500 0 14 0           
7 Unknown 11 ACIS 5.0 NT 24 Fri Mar 26 15:28:38 1999 
-1 9.9999999999999995e-007 1e-010 
body $-1 $14 $-1 $15 #
body $-1 $16 $-1 $17 #
body $-1 $18 $-1 $19 #
body $-1 $20 $-1 $21 #
body $-1 $22 $-1 $23 #
body $-1 $24 $-1 $25 #
body $-1 $26 $-1 $27 #
body $-1 $28 $-1 $29 #
body $-1 $30 $-1 $31 #
body $-1 $32 $-1 $33 #
body $-1 $34 $-1 $35 #
body $-1 $36 $-1 $37 #
body $-1 $38 $-1 $39 #
body $-1 $40 $-1 $41 #
lump $-1 $-1 $42 $0 #
transform $-1 1 0 0 0 1 0 0 0 1 40 16.500625629444258 8.1679783840322848 1 rotate no_reflect no_shear #
lump $-1 $-1 $43 $1 #
transform $-1 1 0 0 0 1 0 0 0 1 40 16.500625629444258 8.1679783840322848 1 rotate no_reflect no_shear #
lump $-1 $-1 $44 $2 #
transform $-1 1 0 0 0 1 0 0 0 1 40 16.500625629444258 8.1679783840322848 1 rotate no_reflect no_shear #
lump $-1 $-1 $45 $3 #
transform $-1 1 0 0 0 1 0 0 0 1 40 16.500625629444258 8.1679783840322848 1 rotate no_reflect no_shear #
lump $-1 $-1 $46 $4 #
transform $-1 1 0 0 0 1 0 0 0 1 40 16.500625629444258 8.1679783840322848 1 rotate no_reflect no_shear #
lump $-1 $-1 $47 $5 #
transform $-1 1 0 0 0 1 0 0 0 1 40 16.500625629444258 8.1679783840322848 1 rotate no_reflect no_shear #
lump $-1 $-1 $48 $6 #
transform $-1 1 0 0 0 1 0 0 0 1 40 16.500625629444258 8.1679783840322848 1 rotate no_reflect no_shear #
lump $-1 $-1 $49 $7 #
transform $-1 1 0 0 0 1 0 0 0 1 40 16.500625629444258 8.1679783840322848 1 rotate no_reflect no_shear #
lump $-1 $-1 $50 $8 #
transform $-1 1 0 0 0 1 0 0 0 1 40 16.500625629444258 8.1679783840322848 1 rotate no_reflect no_shear #
lump $-1 $-1 $51 $9 #
transform $-1 1 0 0 0 1 0 0 0 1 40 16.500625629444258 8.1679783840322848 1 rotate no_reflect no_shear #
lump $-1 $-1 $52 $10 #
transform $-1 1 0 0 0 1 0 0 0 1 40 16.500625629444258 8.1679783840322848 1 rotate no_reflect no_shear #
lump $-1 $-1 $53 $11 #
transform $-1 1 0 0 0 1 0 0 0 1 40 16.500625629444258 8.1679783840322848 1 rotate no_reflect no_shear #
lump $-1 $-1 $54 $12 #
transform $-1 1 0 0 0 1 0 0 0 1 40 16.500625629444258 8.1679783840322848 1 rotate no_reflect no_shear #
lump $-1 $-1 $55 $13 #
transform $-1 1 0 0 0 1 0 0 0 1 40 16.500625629444258 8.1679783840322848 1 rotate no_reflect no_shear #
shell $-1 $-1 $-1 $56 $-1 $14 #
shell $-1 $-1 $-1 $57 $-1 $16 #
shell $-1 $-1 $-1 $58 $-1 $18 #
shell $-1 $-1 $-1 $59 $-1 $20 #
shell $-1 $-1 $-1 $60 $-1 $22 #
shell $-1 $-1 $-1 $61 $-1 $24 #
shell $-1 $-1 $-1 $62 $-1 $26 #
shell $-1 $-1 $-1 $63 $-1 $28 #
shell $-1 $-1 $-1 $64 $-1 $30 #
shell $-1 $-1 $-1 $65 $-1 $32 #
shell $-1 $-1 $-1 $66 $-1 $34 #
shell $-1 $-1 $-1 $67 $-1 $36 #
shell $-1 $-1 $-1 $68 $-1 $38 #
shell $-1 $-1 $-1 $69 $-1 $40 #
face $-1 $70 $71 $42 $-1 $72 forward single #
face $-1 $73 $74 $43 $-1 $75 forward single #
face $-1 $76 $77 $44 $-1 $78 reversed single #
face $-1 $79 $80 $45 $-1 $81 forward single #
face $-1 $82 $83 $46 $-1 $84 reversed single #
face $-1 $85 $86 $47 $-1 $87 forward single #
face $-1 $88 $89 $48 $-1 $90 reversed single #
face $-1 $91 $92 $49 $-1 $93 forward single #
face $-1 $94 $95 $50 $-1 $96 reversed single #
face $-1 $97 $98 $51 $-1 $99 forward single #
face $-1 $100 $101 $52 $-1 $102 reversed single #
face $-1 $103 $104 $53 $-1 $105 forward single #
face $-1 $106 $107 $54 $-1 $108 reversed single #
face $-1 $109 $110 $55 $-1 $111 forward single #
face $-1 $112 $113 $42 $-1 $114 reversed single #
loop $-1 $-1 $115 $56 #
plane-surface $-1 0 0 8.1679783840322848 0 0 1 1 0 0 forward_v I I I I #
face $-1 $116 $117 $43 $-1 $118 reversed single #
loop $-1 $-1 $119 $57 #
plane-surface $-1 0 -16.500625629444258 0 0 1 0 0 0 1 forward_v I I I I #
face $-1 $120 $121 $44 $-1 $122 reversed single #
loop $-1 $-1 $123 $58 #
plane-surface $-1 20.35395237042593 -2.5179177402712547 113.71119741102 0 -1 0 -0.57357644374324357 0 -0.81915203911291934 forward_v I I I I #
face $-1 $124 $125 $45 $-1 $126 forward single #
loop $-1 $127 $128 $59 #
cone-surface $-1 35.397569710553519 -5.3522633313370704 4.6489023840589372 -0.57357644374324357 0 -0.81915203911291934 0.81915203911291934 0 -0.57357644374324357 1 I I 0 1 1 forward I I I I #
face $-1 $129 $130 $46 $-1 $131 reversed single #
loop $-1 $-1 $132 $60 #
plane-surface $-1 20.35395237042593 6.2697990620634449 113.71119741102 0 -1 0 -0.57357644374324357 0 -0.81915203911291934 forward_v I I I I #
face $-1 $133 $134 $47 $-1 $135 forward single #
loop $-1 $136 $137 $61 #
cone-surface $-1 35.397569710553519 3.4354534709976292 4.6489023840589372 -0.57357644374324357 0 -0.81915203911291934 0.81915203911291934 0 -0.57357644374324357 1 I I 0 1 1 forward I I I I #
face $-1 $138 $139 $48 $-1 $140 reversed single #
loop $-1 $-1 $141 $62 #
plane-surface $-1 20.35395237042593 15.057515864398145 113.71119741102 0 -1 0 -0.57357644374324357 0 -0.81915203911291934 forward_v I I I I #
face $-1 $142 $143 $49 $-1 $144 forward single #
loop $-1 $145 $146 $63 #
cone-surface $-1 35.397569710553519 12.223170273332329 4.6489023840589372 -0.57357644374324357 0 -0.81915203911291934 0.81915203911291934 0 -0.57357644374324357 1 I I 0 1 1 forward I I I I #
face $-1 $147 $148 $50 $-1 $149 reversed single #
loop $-1 $-1 $150 $64 #
plane-surface $-1 -85.886115499459478 -8.1866089224028862 67.825081911560517 0 1 0 -0.57357644374324357 0 0.81915203911291934 forward_v I I I I #
face $-1 $151 $152 $51 $-1 $153 forward single #
loop $-1 $154 $155 $65 #
cone-surface $-1 -35.397569710553526 -5.3522633313370704 4.6489023840589425 0.57357644374324357 0 -0.81915203911291934 0.81915203911291934 0 0.57357644374324357 1 I I 0 1 1 forward I I I I #
face $-1 $156 $157 $52 $-1 $158 reversed single #
loop $-1 $-1 $159 $66 #
plane-surface $-1 -85.886115499459478 0.60110787993181347 67.825081911560517 0 1 0 -0.57357644374324357 0 0.81915203911291934 forward_v I I I I #
face $-1 $160 $161 $53 $-1 $162 forward single #
loop $-1 $163 $164 $67 #
cone-surface $-1 -35.397569710553526 3.4354534709976292 4.6489023840589425 0.57357644374324357 0 -0.81915203911291934 0.81915203911291934 0 0.57357644374324357 1 I I 0 1 1 forward I I I I #
face $-1 $165 $166 $54 $-1 $167 reversed single #
loop $-1 $-1 $168 $68 #
plane-surface $-1 -85.886115499459478 9.3888246822665131 67.825081911560517 0 1 0 -0.57357644374324357 0 0.81915203911291934 forward_v I I I I #
face $-1 $169 $170 $55 $-1 $171 forward single #
loop $-1 $172 $173 $69 #
cone-surface $-1 -35.397569710553526 12.223170273332329 4.6489023840589425 0.57357644374324357 0 -0.81915203911291934 0.81915203911291934 0 0.57357644374324357 1 I I 0 1 1 forward I I I I #
face $-1 $174 $175 $42 $-1 $176 reversed single #
loop $-1 $-1 $177 $70 #
plane-surface $-1 0 0 -8.1679783840322848 0 0 1 1 0 0 forward_v I I I I #
coedge $-1 $178 $179 $180 $181 forward $71 $-1 #
face $-1 $182 $183 $43 $-1 $184 reversed single #
loop $-1 $-1 $185 $73 #
plane-surface $-1 0 0 -8.1679783840322848 0 0 1 1 0 0 forward_v I I I I #
coedge $-1 $186 $187 $188 $189 forward $74 $-1 #
face $-1 $190 $191 $44 $-1 $192 reversed single #
loop $-1 $-1 $193 $76 #
plane-surface $-1 -25.532163129033556 -5.3522633313370704 48.179034281986446 0.57357644374324357 0 0.81915203911291934 0.81915203911291934 0 -0.57357644374324357 forward_v I I I I #
coedge $-1 $194 $195 $196 $197 reversed $77 $-1 #
face $-1 $-1 $198 $45 $-1 $199 forward single #
loop $-1 $200 $201 $79 #
cone-surface $-1 34.703578448349333 -5.3522633313370704 3.657780165281789 -0.57357644374324357 0 -0.81915203911291934 0.40957601955645967 0 -0.28678822187162178 1 I I -0.70710678118654746 0.70710678118654746 0.5 forward I I I I #
loop $-1 $-1 $202 $59 #
coedge $-1 $128 $128 $203 $204 reversed $80 $-1 #
face $-1 $205 $206 $46 $-1 $207 reversed single #
loop $-1 $-1 $208 $82 #
plane-surface $-1 -25.532163129033556 3.4354534709976292 48.179034281986446 0.57357644374324357 0 0.81915203911291934 0.81915203911291934 0 -0.57357644374324357 forward_v I I I I #
coedge $-1 $209 $210 $211 $212 reversed $83 $-1 #
face $-1 $-1 $213 $47 $-1 $214 forward single #
loop $-1 $215 $216 $85 #
cone-surface $-1 34.703578448349333 3.4354534709976292 3.657780165281789 -0.57357644374324357 0 -0.81915203911291934 0.40957601955645967 0 -0.28678822187162178 1 I I -0.70710678118654746 0.70710678118654746 0.5 forward I I I I #
loop $-1 $-1 $217 $61 #
coedge $-1 $137 $137 $218 $219 reversed $86 $-1 #
face $-1 $220 $221 $48 $-1 $222 reversed single #
loop $-1 $-1 $223 $88 #
plane-surface $-1 -25.532163129033556 12.223170273332329 48.179034281986446 0.57357644374324357 0 0.81915203911291934 0.81915203911291934 0 -0.57357644374324357 forward_v I I I I #
coedge $-1 $224 $225 $226 $227 reversed $89 $-1 #
face $-1 $-1 $228 $49 $-1 $229 forward single #
loop $-1 $230 $231 $91 #
cone-surface $-1 34.703578448349333 12.223170273332329 3.657780165281789 -0.57357644374324357 0 -0.81915203911291934 0.40957601955645967 0 -0.28678822187162178 1 I I -0.70710678118654746 0.70710678118654746 0.5 forward I I I I #
loop $-1 $-1 $232 $63 #
coedge $-1 $146 $146 $233 $234 reversed $92 $-1 #
face $-1 $235 $236 $50 $-1 $237 reversed single #
loop $-1 $-1 $238 $94 #
plane-surface $-1 -39.999999999999993 -5.3522633313370704 2.2929187825269679 -0.57357644374324357 0 0.81915203911291934 0.81915203911291934 0 0.57357644374324357 forward_v I I I I #
coedge $-1 $239 $240 $241 $242 reversed $95 $-1 #
face $-1 $-1 $243 $51 $-1 $244 forward single #
loop $-1 $245 $246 $97 #
cone-surface $-1 -34.70357844834934 -5.3522633313370704 3.6577801652817943 0.57357644374324357 0 -0.81915203911291934 0.40957601955645967 0 0.28678822187162178 1 I I -0.70710678118654746 0.70710678118654746 0.5 forward I I I I #
loop $-1 $-1 $247 $65 #
coedge $-1 $155 $155 $248 $249 reversed $98 $-1 #
face $-1 $250 $251 $52 $-1 $252 reversed single #
loop $-1 $-1 $253 $100 #
plane-surface $-1 -39.999999999999993 3.4354534709976292 2.2929187825269679 -0.57357644374324357 0 0.81915203911291934 0.81915203911291934 0 0.57357644374324357 forward_v I I I I #
coedge $-1 $254 $255 $256 $257 reversed $101 $-1 #
face $-1 $-1 $258 $53 $-1 $259 forward single #
loop $-1 $260 $261 $103 #
cone-surface $-1 -34.70357844834934 3.4354534709976292 3.6577801652817943 0.57357644374324357 0 -0.81915203911291934 0.40957601955645967 0 0.28678822187162178 1 I I -0.70710678118654746 0.70710678118654746 0.5 forward I I I I #
loop $-1 $-1 $262 $67 #
coedge $-1 $164 $164 $263 $264 reversed $104 $-1 #
face $-1 $265 $266 $54 $-1 $267 reversed single #
loop $-1 $-1 $268 $106 #
plane-surface $-1 -39.999999999999993 12.223170273332329 2.2929187825269679 -0.57357644374324357 0 0.81915203911291934 0.81915203911291934 0 0.57357644374324357 forward_v I I I I #
coedge $-1 $269 $270 $271 $272 reversed $107 $-1 #
face $-1 $-1 $273 $55 $-1 $274 forward single #
loop $-1 $275 $276 $109 #
cone-surface $-1 -34.70357844834934 12.223170273332329 3.6577801652817943 0.57357644374324357 0 -0.81915203911291934 0.40957601955645967 0 0.28678822187162178 1 I I -0.70710678118654746 0.70710678118654746 0.5 forward I I I I #
loop $-1 $-1 $277 $69 #
coedge $-1 $173 $173 $278 $279 reversed $110 $-1 #
face $-1 $280 $281 $42 $-1 $282 reversed single #
loop $-1 $-1 $283 $112 #
plane-surface $-1 0 -16.500625629444258 0 0 1 0 0 0 1 forward_v I I I I #
coedge $-1 $284 $285 $286 $287 forward $113 $-1 #
coedge $-1 $288 $115 $289 $290 forward $71 $-1 #
coedge $-1 $115 $288 $291 $292 forward $71 $-1 #
coedge $-1 $293 $294 $115 $181 reversed $295 $-1 #
edge $-1 $296 -16.500625629444258 $297 16.500625629444258 $180 $298 forward 7 unknown #
face $-1 $299 $300 $43 $-1 $301 forward single #
loop $-1 $-1 $302 $116 #
plane-surface $-1 40 0 0 -1 0 0 0 0 1 forward_v I I I I #
coedge $-1 $303 $304 $305 $306 forward $117 $-1 #
coedge $-1 $305 $119 $302 $307 reversed $74 $-1 #
coedge $-1 $119 $305 $308 $309 reversed $74 $-1 #
coedge $-1 $310 $311 $119 $189 reversed $300 $-1 #
edge $-1 $312 -40 $313 40 $188 $314 forward 7 unknown #
face $-1 $315 $316 $44 $-1 $317 reversed single #
loop $-1 $-1 $318 $120 #
plane-surface $-1 20.35395237042593 -8.1866089224028862 113.71119741102 0 1 0 0.57357644374324357 0 0.81915203911291934 forward_v I I I I #
coedge $-1 $319 $320 $321 $322 reversed $121 $-1 #
coedge $-1 $195 $123 $323 $324 reversed $77 $-1 #
coedge $-1 $123 $194 $319 $325 reversed $77 $-1 #
coedge $-1 $321 $326 $123 $197 forward $327 $-1 #
edge $-1 $328 -29.823023814787035 $329 -21.432569316559203 $196 $330 forward 7 unknown #
loop $-1 $-1 $203 $124 #
plane-surface $-1 -25.532163129033556 -5.3522633313370704 48.179034281986446 0.57357644374324357 0 0.81915203911291934 0.81915203911291934 0 -0.57357644374324357 forward_v I I I I #
loop $-1 $-1 $331 $79 #
coedge $-1 $201 $201 $202 $332 reversed $125 $-1 #
coedge $-1 $202 $202 $201 $332 forward $127 $-1 #
coedge $-1 $203 $203 $128 $204 forward $198 $-1 #
edge $-1 $333 0 $333 6.2831853071796004 $203 $334 forward 7 unknown #
face $-1 $335 $336 $46 $-1 $337 reversed single #
loop $-1 $-1 $338 $129 #
plane-surface $-1 20.35395237042593 0.60110787993181347 113.71119741102 0 1 0 0.57357644374324357 0 0.81915203911291934 forward_v I I I I #
coedge $-1 $339 $340 $341 $342 reversed $130 $-1 #
coedge $-1 $210 $132 $343 $344 reversed $83 $-1 #
coedge $-1 $132 $209 $339 $345 reversed $83 $-1 #
coedge $-1 $341 $346 $132 $212 forward $347 $-1 #
edge $-1 $348 -29.823023814787035 $349 -21.432569316559203 $211 $350 forward 7 unknown #
loop $-1 $-1 $218 $133 #
plane-surface $-1 -25.532163129033556 3.4354534709976292 48.179034281986446 0.57357644374324357 0 0.81915203911291934 0.81915203911291934 0 -0.57357644374324357 forward_v I I I I #
loop $-1 $-1 $351 $85 #
coedge $-1 $216 $216 $217 $352 reversed $134 $-1 #
coedge $-1 $217 $217 $216 $352 forward $136 $-1 #
coedge $-1 $218 $218 $137 $219 forward $213 $-1 #
edge $-1 $353 0 $353 6.2831853071796004 $218 $354 forward 7 unknown #
face $-1 $355 $356 $48 $-1 $357 reversed single #
loop $-1 $-1 $358 $138 #
plane-surface $-1 20.35395237042593 9.3888246822665131 113.71119741102 0 1 0 0.57357644374324357 0 0.81915203911291934 forward_v I I I I #
coedge $-1 $359 $360 $361 $362 reversed $139 $-1 #
coedge $-1 $225 $141 $363 $364 reversed $89 $-1 #
coedge $-1 $141 $224 $359 $365 reversed $89 $-1 #
coedge $-1 $361 $366 $141 $227 forward $367 $-1 #
edge $-1 $368 -29.823023814787035 $369 -21.432569316559203 $226 $370 forward 7 unknown #
loop $-1 $-1 $233 $142 #
plane-surface $-1 -25.532163129033556 12.223170273332329 48.179034281986446 0.57357644374324357 0 0.81915203911291934 0.81915203911291934 0 -0.57357644374324357 forward_v I I I I #
loop $-1 $-1 $371 $91 #
coedge $-1 $231 $231 $232 $372 reversed $143 $-1 #
coedge $-1 $232 $232 $231 $372 forward $145 $-1 #
coedge $-1 $233 $233 $146 $234 forward $228 $-1 #
edge $-1 $373 0 $373 6.2831853071796004 $233 $374 forward 7 unknown #
face $-1 $375 $376 $50 $-1 $377 forward single #
loop $-1 $-1 $378 $147 #
plane-surface $-1 -85.886115499459478 -2.5179177402712547 67.825081911560517 0 -1 0 0.57357644374324357 0 -0.81915203911291934 forward_v I I I I #
coedge $-1 $379 $380 $381 $382 reversed $148 $-1 #
coedge $-1 $240 $150 $383 $384 reversed $95 $-1 #
coedge $-1 $150 $239 $379 $385 reversed $95 $-1 #
coedge $-1 $381 $386 $150 $242 forward $376 $-1 #
edge $-1 $387 2.9430577497297392 $388 11.333512247957568 $241 $389 forward 7 unknown #
loop $-1 $-1 $248 $151 #
plane-surface $-1 -39.999999999999993 -5.3522633313370704 2.2929187825269679 -0.57357644374324357 0 0.81915203911291934 0.81915203911291934 0 0.57357644374324357 forward_v I I I I #
loop $-1 $-1 $390 $97 #
coedge $-1 $246 $246 $247 $391 reversed $152 $-1 #
coedge $-1 $247 $247 $246 $391 forward $154 $-1 #
coedge $-1 $248 $248 $155 $249 forward $243 $-1 #
edge $-1 $392 0 $392 6.2831853071796004 $248 $393 forward 7 unknown #
face $-1 $394 $395 $52 $-1 $396 forward single #
loop $-1 $-1 $397 $156 #
plane-surface $-1 -85.886115499459478 6.2697990620634449 67.825081911560517 0 -1 0 0.57357644374324357 0 -0.81915203911291934 forward_v I I I I #
coedge $-1 $398 $399 $400 $401 reversed $157 $-1 #
coedge $-1 $255 $159 $402 $403 reversed $101 $-1 #
coedge $-1 $159 $254 $398 $404 reversed $101 $-1 #
coedge $-1 $400 $405 $159 $257 forward $395 $-1 #
edge $-1 $406 2.9430577497297392 $407 11.333512247957568 $256 $408 forward 7 unknown #
loop $-1 $-1 $263 $160 #
plane-surface $-1 -39.999999999999993 3.4354534709976292 2.2929187825269679 -0.57357644374324357 0 0.81915203911291934 0.81915203911291934 0 0.57357644374324357 forward_v I I I I #
loop $-1 $-1 $409 $103 #
coedge $-1 $261 $261 $262 $410 reversed $161 $-1 #
coedge $-1 $262 $262 $261 $410 forward $163 $-1 #
coedge $-1 $263 $263 $164 $264 forward $258 $-1 #
edge $-1 $411 0 $411 6.2831853071796004 $263 $412 forward 7 unknown #
face $-1 $413 $414 $54 $-1 $415 forward single #
loop $-1 $-1 $416 $165 #
plane-surface $-1 -85.886115499459478 15.057515864398145 67.825081911560517 0 -1 0 0.57357644374324357 0 -0.81915203911291934 forward_v I I I I #
coedge $-1 $417 $418 $419 $420 reversed $166 $-1 #
coedge $-1 $270 $168 $421 $422 reversed $107 $-1 #
coedge $-1 $168 $269 $417 $423 reversed $107 $-1 #
coedge $-1 $419 $424 $168 $272 forward $414 $-1 #
edge $-1 $425 2.9430577497297392 $426 11.333512247957568 $271 $427 forward 7 unknown #
loop $-1 $-1 $278 $169 #
plane-surface $-1 -39.999999999999993 12.223170273332329 2.2929187825269679 -0.57357644374324357 0 0.81915203911291934 0.81915203911291934 0 0.57357644374324357 forward_v I I I I #
loop $-1 $-1 $428 $109 #
coedge $-1 $276 $276 $277 $429 reversed $170 $-1 #
coedge $-1 $277 $277 $276 $429 forward $172 $-1 #
coedge $-1 $278 $278 $173 $279 forward $273 $-1 #
edge $-1 $430 0 $430 6.2831853071796004 $278 $431 forward 7 unknown #
face $-1 $432 $433 $42 $-1 $434 reversed single #
loop $-1 $-1 $435 $174 #
plane-surface $-1 -40 0 0 1 0 0 0 0 -1 forward_v I I I I #
coedge $-1 $436 $291 $437 $438 forward $175 $-1 #
coedge $-1 $439 $177 $436 $440 forward $113 $-1 #
coedge $-1 $177 $439 $441 $442 forward $113 $-1 #
coedge $-1 $294 $293 $177 $287 reversed $295 $-1 #
edge $-1 $443 -16.500625629444258 $444 16.500625629444258 $286 $445 forward 7 unknown #
coedge $-1 $179 $178 $446 $447 forward $71 $-1 #
coedge $-1 $448 $449 $178 $290 reversed $433 $-1 #
edge $-1 $297 -40 $450 40 $289 $451 forward 7 unknown #
coedge $-1 $283 $452 $179 $292 reversed $175 $-1 #
edge $-1 $453 -40 $296 40 $291 $454 forward 7 unknown #
coedge $-1 $286 $180 $452 $455 forward $295 $-1 #
coedge $-1 $180 $286 $448 $456 reversed $295 $-1 #
loop $-1 $-1 $293 $432 #
vertex $-1 $181 $457 #
vertex $-1 $181 $458 #
straight-curve $-1 40 0 8.1679783840322848 0 1 0 I I #
face $-1 $459 $460 $43 $-1 $461 reversed single #
loop $-1 $-1 $311 $182 #
plane-surface $-1 0 -19.81967605538647 -5.1456244695745124 0 0 1 1 0 0 forward_v I I I I #
coedge $-1 $462 $463 $186 $307 forward $183 $-1 #
coedge $-1 $464 $185 $463 $465 forward $117 $-1 #
coedge $-1 $185 $464 $466 $467 forward $117 $-1 #
coedge $-1 $187 $186 $185 $306 reversed $74 $-1 #
edge $-1 $468 -40 $469 40 $185 $470 forward 7 unknown #
edge $-1 $469 -8.1679783840322848 $313 -5.1456244695745124 $302 $471 forward 7 unknown #
coedge $-1 $466 $472 $187 $309 forward $473 $-1 #
edge $-1 $312 5.1456244695745124 $468 8.1679783840322848 $308 $474 forward 7 unknown #
coedge $-1 $475 $188 $472 $476 forward $300 $-1 #
coedge $-1 $188 $475 $462 $477 forward $300 $-1 #
vertex $-1 $309 $478 #
vertex $-1 $477 $479 #
straight-curve $-1 0 -16.500625629444258 -5.1456244695745124 1 0 0 I I #
face $-1 $-1 $327 $44 $-1 $480 forward single #
loop $-1 $-1 $481 $190 #
plane-surface $-1 40 0 0 -1 0 0 0 0 1 forward_v I I I I #
coedge $-1 $482 $483 $484 $485 reversed $191 $-1 #
coedge $-1 $486 $193 $195 $325 forward $121 $-1 #
coedge $-1 $193 $486 $482 $487 forward $121 $-1 #
coedge $-1 $484 $196 $193 $322 forward $327 $-1 #
edge $-1 $329 -0.15821392539728052 $488 5.510477256734351 $321 $489 forward 7 unknown #
coedge $-1 $490 $491 $194 $324 forward $316 $-1 #
edge $-1 $492 -54.562679922983044 $328 -48.687620321477709 $323 $493 forward 7 unknown #
edge $-1 $329 69.757146295681494 $492 80.000000000000014 $195 $494 forward 7 unknown #
coedge $-1 $196 $484 $490 $495 forward $327 $-1 #
loop $-1 $-1 $484 $315 #
vertex $-1 $324 $496 #
vertex $-1 $197 $497 #
straight-curve $-1 10.176976185212965 -2.5179177402712547 8.1679783840322813 -1 0 0 I I #
coedge $-1 $331 $331 $-1 $498 reversed $200 $-1 #
edge $-1 $499 0 $499 6.2831853071796004 $201 $500 forward 7 unknown #
vertex $-1 $204 $501 #
ellipse-curve $-1 35.80477275088608 -5.3522633313370704 5.2304485832796201 0.57357644374324357 0 0.81915203911291934 0.81915203911291934 0 -0.57357644374324357 1 I I #
face $-1 $-1 $347 $46 $-1 $502 forward single #
loop $-1 $-1 $503 $205 #
plane-surface $-1 40 0 0 -1 0 0 0 0 1 forward_v I I I I #
coedge $-1 $504 $505 $506 $507 reversed $206 $-1 #
coedge $-1 $508 $208 $210 $345 forward $130 $-1 #
coedge $-1 $208 $508 $504 $509 forward $130 $-1 #
coedge $-1 $506 $211 $208 $342 forward $347 $-1 #
edge $-1 $349 -4.5520723265646303 $510 1.1166188555670011 $341 $511 forward 7 unknown #
coedge $-1 $512 $513 $209 $344 forward $336 $-1 #
edge $-1 $514 -54.562679922983044 $348 -48.687620321477709 $343 $515 forward 7 unknown #
edge $-1 $349 69.757146295681494 $514 80.000000000000014 $210 $516 forward 7 unknown #
coedge $-1 $211 $506 $512 $517 forward $347 $-1 #
loop $-1 $-1 $506 $335 #
vertex $-1 $344 $518 #
vertex $-1 $212 $519 #
straight-curve $-1 10.176976185212965 6.2697990620634449 8.1679783840322813 -1 0 0 I I #
coedge $-1 $351 $351 $-1 $520 reversed $215 $-1 #
edge $-1 $521 0 $521 6.2831853071796004 $216 $522 forward 7 unknown #
vertex $-1 $219 $523 #
ellipse-curve $-1 35.80477275088608 3.4354534709976292 5.2304485832796201 0.57357644374324357 0 0.81915203911291934 0.81915203911291934 0 -0.57357644374324357 1 I I #
face $-1 $-1 $367 $48 $-1 $524 forward single #
loop $-1 $-1 $525 $220 #
plane-surface $-1 40 0 0 -1 0 0 0 0 1 forward_v I I I I #
coedge $-1 $526 $527 $528 $529 reversed $221 $-1 #
coedge $-1 $530 $223 $225 $365 forward $139 $-1 #
coedge $-1 $223 $530 $526 $531 forward $139 $-1 #
coedge $-1 $528 $226 $223 $362 forward $367 $-1 #
edge $-1 $369 -8.9459307277319802 $532 -3.2772395456003487 $361 $533 forward 7 unknown #
coedge $-1 $534 $535 $224 $364 forward $356 $-1 #
edge $-1 $536 -54.562679922983044 $368 -48.687620321477709 $363 $537 forward 7 unknown #
edge $-1 $369 69.757146295681494 $536 80.000000000000014 $225 $538 forward 7 unknown #
coedge $-1 $226 $528 $534 $539 forward $367 $-1 #
loop $-1 $-1 $528 $355 #
vertex $-1 $364 $540 #
vertex $-1 $227 $541 #
straight-curve $-1 10.176976185212965 15.057515864398145 8.1679783840322813 -1 0 0 I I #
coedge $-1 $371 $371 $-1 $542 reversed $230 $-1 #
edge $-1 $543 0 $543 6.2831853071796004 $231 $544 forward 7 unknown #
vertex $-1 $234 $545 #
ellipse-curve $-1 35.80477275088608 12.223170273332329 5.2304485832796201 0.57357644374324357 0 0.81915203911291934 0.81915203911291934 0 -0.57357644374324357 1 I I #
face $-1 $-1 $546 $50 $-1 $547 reversed single #
loop $-1 $-1 $241 $235 #
plane-surface $-1 0 0 8.1679783840322848 0 0 1 1 0 0 forward_v I I I I #
coedge $-1 $548 $549 $550 $551 reversed $236 $-1 #
coedge $-1 $552 $238 $240 $385 forward $148 $-1 #
coedge $-1 $238 $552 $548 $553 forward $148 $-1 #
coedge $-1 $550 $241 $238 $382 forward $376 $-1 #
edge $-1 $388 -5.510477256734351 $554 0.15821392539728052 $381 $555 forward 7 unknown #
coedge $-1 $556 $557 $239 $384 forward $546 $-1 #
edge $-1 $558 -31.619622173253294 $387 -25.744562571747974 $383 $559 forward 7 unknown #
edge $-1 $388 -10.242853704318504 $558 8.6223355153435888e-015 $240 $560 forward 7 unknown #
coedge $-1 $241 $550 $556 $561 forward $376 $-1 #
vertex $-1 $384 $562 #
vertex $-1 $242 $563 #
straight-curve $-1 -42.943057749729739 -8.1866089224028862 8.1679783840322848 1 0 0 I I #
coedge $-1 $390 $390 $-1 $564 reversed $245 $-1 #
edge $-1 $565 0 $565 6.2831853071796004 $246 $566 forward 7 unknown #
vertex $-1 $249 $567 #
ellipse-curve $-1 -35.804772750886087 -5.3522633313370704 5.2304485832796228 -0.57357644374324357 0 0.81915203911291934 0.81915203911291934 0 0.57357644374324357 1 I I #
face $-1 $-1 $568 $52 $-1 $569 reversed single #
loop $-1 $-1 $256 $250 #
plane-surface $-1 0 0 8.1679783840322848 0 0 1 1 0 0 forward_v I I I I #
coedge $-1 $570 $571 $572 $573 reversed $251 $-1 #
coedge $-1 $574 $253 $255 $404 forward $157 $-1 #
coedge $-1 $253 $574 $570 $575 forward $157 $-1 #
coedge $-1 $572 $256 $253 $401 forward $395 $-1 #
edge $-1 $407 -1.1166188555670011 $576 4.5520723265646303 $400 $577 forward 7 unknown #
coedge $-1 $578 $579 $254 $403 forward $568 $-1 #
edge $-1 $580 -31.619622173253294 $406 -25.744562571747974 $402 $581 forward 7 unknown #
edge $-1 $407 -10.242853704318504 $580 8.6223355153435888e-015 $255 $582 forward 7 unknown #
coedge $-1 $256 $572 $578 $583 forward $395 $-1 #
vertex $-1 $257 $584 #
vertex $-1 $257 $585 #
straight-curve $-1 -42.943057749729739 0.60110787993181347 8.1679783840322848 1 0 0 I I #
coedge $-1 $409 $409 $-1 $586 reversed $260 $-1 #
edge $-1 $587 0 $587 6.2831853071796004 $261 $588 forward 7 unknown #
vertex $-1 $264 $589 #
ellipse-curve $-1 -35.804772750886087 3.4354534709976292 5.2304485832796228 -0.57357644374324357 0 0.81915203911291934 0.81915203911291934 0 0.57357644374324357 1 I I #
face $-1 $-1 $590 $54 $-1 $591 reversed single #
loop $-1 $-1 $271 $265 #
plane-surface $-1 0 0 8.1679783840322848 0 0 1 1 0 0 forward_v I I I I #
coedge $-1 $592 $593 $594 $595 reversed $266 $-1 #
coedge $-1 $596 $268 $270 $423 forward $166 $-1 #
coedge $-1 $268 $596 $592 $597 forward $166 $-1 #
coedge $-1 $594 $271 $268 $420 forward $414 $-1 #
edge $-1 $426 3.2772395456003487 $598 8.9459307277319802 $419 $599 forward 7 unknown #
coedge $-1 $600 $601 $269 $422 forward $590 $-1 #
edge $-1 $602 -31.619622173253294 $425 -25.744562571747974 $421 $603 forward 7 unknown #
edge $-1 $426 -10.242853704318504 $602 8.6223355153435888e-015 $270 $604 forward 7 unknown #
coedge $-1 $271 $594 $600 $605 forward $414 $-1 #
vertex $-1 $272 $606 #
vertex $-1 $272 $607 #
straight-curve $-1 -42.943057749729739 9.3888246822665131 8.1679783840322848 1 0 0 I I #
coedge $-1 $428 $428 $-1 $608 reversed $275 $-1 #
edge $-1 $609 0 $609 6.2831853071796004 $276 $610 forward 7 unknown #
vertex $-1 $279 $611 #
ellipse-curve $-1 -35.804772750886087 12.223170273332329 5.2304485832796228 -0.57357644374324357 0 0.81915203911291934 0.81915203911291934 0 0.57357644374324357 1 I I #
face $-1 $-1 $295 $42 $-1 $612 reversed single #
loop $-1 $-1 $448 $280 #
plane-surface $-1 0 16.500625629444258 0 0 -1 0 0 0 -1 forward_v I I I I #
coedge $-1 $613 $446 $449 $614 forward $281 $-1 #
coedge $-1 $452 $283 $284 $440 reversed $175 $-1 #
coedge $-1 $446 $613 $283 $438 reversed $281 $-1 #
edge $-1 $453 -8.1679783840322848 $615 8.1679783840322848 $437 $616 forward 7 unknown #
coedge $-1 $285 $284 $613 $617 forward $113 $-1 #
edge $-1 $444 -40 $615 40 $436 $618 forward 7 unknown #
coedge $-1 $449 $448 $285 $442 reversed $433 $-1 #
edge $-1 $619 -40 $443 40 $441 $620 forward 7 unknown #
vertex $-1 $287 $621 #
vertex $-1 $455 $622 #
straight-curve $-1 40 0 -8.1679783840322848 0 -1 0 I I #
coedge $-1 $435 $437 $288 $447 reversed $281 $-1 #
edge $-1 $450 -16.500625629444258 $453 16.500625629444258 $446 $623 forward 7 unknown #
coedge $-1 $441 $289 $294 $456 forward $433 $-1 #
coedge $-1 $289 $441 $435 $614 reversed $433 $-1 #
vertex $-1 $290 $624 #
straight-curve $-1 0 16.500625629444258 8.1679783840322848 -1 0 0 I I #
coedge $-1 $291 $436 $293 $455 reversed $175 $-1 #
vertex $-1 $447 $625 #
straight-curve $-1 0 -16.500625629444258 8.1679783840322848 1 0 0 I I #
edge $-1 $296 -8.1679783840322848 $444 8.1679783840322848 $293 $626 forward 7 unknown #
edge $-1 $297 -8.1679783840322848 $443 8.1679783840322848 $294 $627 forward 7 unknown #
point $-1 40 -16.500625629444258 8.1679783840322848 #
point $-1 40 16.500625629444258 8.1679783840322848 #
face $-1 $-1 $473 $43 $-1 $628 reversed single #
loop $-1 $-1 $629 $299 #
plane-surface $-1 0 -23.138726481328682 -6.6568014268033986 0 1 0 0 0 1 forward_v I I I I #
coedge $-1 $630 $302 $311 $477 reversed $183 $-1 #
coedge $-1 $302 $630 $303 $465 reversed $183 $-1 #
coedge $-1 $304 $303 $631 $632 forward $117 $-1 #
edge $-1 $469 16.500625629444258 $633 23.138726481328682 $463 $634 forward 7 unknown #
coedge $-1 $635 $308 $304 $467 reversed $473 $-1 #
edge $-1 $636 -23.138726481328682 $468 -16.500625629444258 $466 $637 forward 7 unknown #
vertex $-1 $309 $638 #
vertex $-1 $465 $639 #
straight-curve $-1 0 -16.500625629444258 -8.1679783840322848 1 0 0 I I #
straight-curve $-1 40 -16.500625629444258 0 0 0 1 I I #
coedge $-1 $308 $635 $310 $476 reversed $473 $-1 #
loop $-1 $-1 $308 $459 #
straight-curve $-1 -40 -16.500625629444258 0 0 0 -1 I I #
coedge $-1 $311 $310 $640 $641 forward $300 $-1 #
edge $-1 $312 -3.319050425942212 $642 3.319050425942212 $472 $643 forward 7 unknown #
edge $-1 $644 -3.319050425942212 $313 3.319050425942212 $462 $645 forward 7 unknown #
point $-1 -40 -16.500625629444258 -5.1456244695745124 #
point $-1 40 -16.500625629444258 -5.1456244695745124 #
plane-surface $-1 0 0 8.1679783840322848 0 0 1 1 0 0 forward_v I I I I #
coedge $-1 $491 $490 $483 $646 forward $316 $-1 #
coedge $-1 $483 $318 $320 $487 reversed $191 $-1 #
coedge $-1 $318 $482 $481 $646 reversed $191 $-1 #
coedge $-1 $326 $321 $318 $485 forward $327 $-1 #
edge $-1 $488 21.432569316559203 $647 29.823023814787035 $484 $648 forward 7 unknown #
coedge $-1 $320 $319 $491 $649 reversed $121 $-1 #
edge $-1 $650 -80.000000000000014 $488 -69.757146295681494 $482 $651 forward 7 unknown #
vertex $-1 $322 $652 #
straight-curve $-1 31.609545501772146 -2.6761316656685352 8.1679783840322884 0 -1 0 I I #
coedge $-1 $481 $323 $326 $495 reversed $316 $-1 #
coedge $-1 $323 $481 $486 $649 forward $316 $-1 #
vertex $-1 $324 $653 #
straight-curve $-1 40 -2.5179177402712547 56.855598705509998 0 0 1 I I #
straight-curve $-1 -25.532163129033556 -2.5179177402712547 48.179034281986446 0.81915203911291934 0 -0.57357644374324357 I I #
edge $-1 $647 -8.1866089224028862 $328 -2.5179177402712547 $490 $654 forward 7 unknown #
point $-1 40 -2.5179177402712547 8.1679783840322848 #
point $-1 31.609545501772168 -2.5179177402712547 8.1679783840322813 #
edge $-1 $655 1 $655 0 $331 $-1 forward 7 unknown #
vertex $-1 $332 $656 #
ellipse-curve $-1 34.990366670220958 -5.3522633313370704 4.0673561848382489 0.57357644374324357 0 0.81915203911291934 0.81915203911291934 0 -0.57357644374324357 1 I I #
point $-1 36.623924789999009 -5.3522633313370704 4.6568721395363823 #
plane-surface $-1 0 0 8.1679783840322848 0 0 1 1 0 0 forward_v I I I I #
coedge $-1 $513 $512 $505 $657 forward $336 $-1 #
coedge $-1 $505 $338 $340 $509 reversed $206 $-1 #
coedge $-1 $338 $504 $503 $657 reversed $206 $-1 #
coedge $-1 $346 $341 $338 $507 forward $347 $-1 #
edge $-1 $510 21.432569316559203 $658 29.823023814787035 $506 $659 forward 7 unknown #
coedge $-1 $340 $339 $513 $660 reversed $130 $-1 #
edge $-1 $661 -80.000000000000014 $510 -69.757146295681494 $504 $662 forward 7 unknown #
vertex $-1 $342 $663 #
straight-curve $-1 31.609545501772146 1.7177267354988146 8.1679783840322884 0 -1 0 I I #
coedge $-1 $503 $343 $346 $517 reversed $336 $-1 #
coedge $-1 $343 $503 $508 $660 forward $336 $-1 #
vertex $-1 $344 $664 #
straight-curve $-1 40 6.2697990620634449 56.855598705509998 0 0 1 I I #
straight-curve $-1 -25.532163129033556 6.2697990620634449 48.179034281986446 0.81915203911291934 0 -0.57357644374324357 I I #
edge $-1 $658 0.60110787993181347 $348 6.2697990620634449 $512 $665 forward 7 unknown #
point $-1 40 6.2697990620634449 8.1679783840322848 #
point $-1 31.609545501772168 6.2697990620634449 8.1679783840322813 #
edge $-1 $666 1 $666 0 $351 $-1 forward 7 unknown #
vertex $-1 $352 $667 #
ellipse-curve $-1 34.990366670220958 3.4354534709976292 4.0673561848382489 0.57357644374324357 0 0.81915203911291934 0.81915203911291934 0 -0.57357644374324357 1 I I #
point $-1 36.623924789999009 3.4354534709976292 4.6568721395363823 #
plane-surface $-1 0 0 8.1679783840322848 0 0 1 1 0 0 forward_v I I I I #
coedge $-1 $535 $534 $527 $668 forward $356 $-1 #
coedge $-1 $527 $358 $360 $531 reversed $221 $-1 #
coedge $-1 $358 $526 $525 $668 reversed $221 $-1 #
coedge $-1 $366 $361 $358 $529 forward $367 $-1 #
edge $-1 $532 21.432569316559203 $669 29.823023814787035 $528 $670 forward 7 unknown #
coedge $-1 $360 $359 $535 $671 reversed $139 $-1 #
edge $-1 $672 -80.000000000000014 $532 -69.757146295681494 $526 $673 forward 7 unknown #
vertex $-1 $362 $674 #
straight-curve $-1 31.609545501772146 6.1115851366661644 8.1679783840322884 0 -1 0 I I #
coedge $-1 $525 $363 $366 $539 reversed $356 $-1 #
coedge $-1 $363 $525 $530 $671 forward $356 $-1 #
vertex $-1 $364 $675 #
straight-curve $-1 40 15.057515864398145 56.855598705509998 0 0 1 I I #
straight-curve $-1 -25.532163129033556 15.057515864398145 48.179034281986446 0.81915203911291934 0 -0.57357644374324357 I I #
edge $-1 $669 9.3888246822665131 $368 15.057515864398145 $534 $676 forward 7 unknown #
point $-1 40 15.057515864398145 8.1679783840322848 #
point $-1 31.609545501772168 15.057515864398145 8.1679783840322813 #
edge $-1 $677 1 $677 0 $371 $-1 forward 7 unknown #
vertex $-1 $372 $678 #
ellipse-curve $-1 34.990366670220958 12.223170273332329 4.0673561848382489 0.57357644374324357 0 0.81915203911291934 0.81915203911291934 0 -0.57357644374324357 1 I I #
point $-1 36.623924789999009 12.223170273332329 4.6568721395363823 #
loop $-1 $-1 $383 $375 #
plane-surface $-1 -40 0 0 1 0 0 0 0 -1 forward_v I I I I #
coedge $-1 $549 $378 $380 $553 reversed $236 $-1 #
coedge $-1 $378 $548 $679 $680 reversed $236 $-1 #
coedge $-1 $386 $381 $378 $551 forward $376 $-1 #
edge $-1 $554 -11.333512247957568 $681 -2.9430577497297392 $550 $682 forward 7 unknown #
coedge $-1 $380 $379 $557 $683 reversed $148 $-1 #
edge $-1 $684 -8.6223355153435888e-015 $554 10.242853704318504 $548 $685 forward 7 unknown #
vertex $-1 $382 $686 #
straight-curve $-1 -31.609545501772171 -2.6761316656685352 8.1679783840322848 0 1 0 I I #
coedge $-1 $679 $383 $386 $561 reversed $546 $-1 #
coedge $-1 $383 $679 $552 $683 forward $546 $-1 #
vertex $-1 $384 $687 #
straight-curve $-1 -40 -8.1866089224028862 33.912540955780258 0 0 1 I I #
straight-curve $-1 -39.999999999999993 -8.1866089224028862 2.2929187825269679 -0.81915203911291934 0 -0.57357644374324357 I I #
edge $-1 $681 2.5179177402712547 $387 8.1866089224028862 $556 $688 forward 7 unknown #
point $-1 -40 -8.1866089224028862 8.1679783840322848 #
point $-1 -31.609545501772171 -8.1866089224028862 8.1679783840322848 #
edge $-1 $689 1 $689 0 $390 $-1 forward 7 unknown #
vertex $-1 $391 $690 #
ellipse-curve $-1 -34.990366670220965 -5.3522633313370704 4.0673561848382542 -0.57357644374324357 0 0.81915203911291934 0.81915203911291934 0 0.57357644374324357 1 I I #
point $-1 -34.985620711773173 -5.3522633313370704 5.8040250270228748 #
loop $-1 $-1 $402 $394 #
plane-surface $-1 -40 0 0 1 0 0 0 0 -1 forward_v I I I I #
coedge $-1 $571 $397 $399 $575 reversed $251 $-1 #
coedge $-1 $397 $570 $691 $692 reversed $251 $-1 #
coedge $-1 $405 $400 $397 $573 forward $395 $-1 #
edge $-1 $576 -11.333512247957568 $693 -2.9430577497297392 $572 $694 forward 7 unknown #
coedge $-1 $399 $398 $579 $695 reversed $157 $-1 #
edge $-1 $696 -8.6223355153435888e-015 $576 10.242853704318504 $570 $697 forward 7 unknown #
vertex $-1 $401 $698 #
straight-curve $-1 -31.609545501772171 1.7177267354988146 8.1679783840322848 0 1 0 I I #
coedge $-1 $691 $402 $405 $583 reversed $568 $-1 #
coedge $-1 $402 $691 $574 $695 forward $568 $-1 #
vertex $-1 $403 $699 #
straight-curve $-1 -40 0.60110787993181347 33.912540955780258 0 0 1 I I #
straight-curve $-1 -39.999999999999993 0.60110787993181347 2.2929187825269679 -0.81915203911291934 0 -0.57357644374324357 I I #
edge $-1 $693 -6.2697990620634449 $406 -0.60110787993181347 $578 $700 forward 7 unknown #
point $-1 -40 0.60110787993181347 8.1679783840322848 #
point $-1 -31.609545501772171 0.60110787993181347 8.1679783840322848 #
edge $-1 $701 1 $701 0 $409 $-1 forward 7 unknown #
vertex $-1 $410 $702 #
ellipse-curve $-1 -34.990366670220965 3.4354534709976292 4.0673561848382542 -0.57357644374324357 0 0.81915203911291934 0.81915203911291934 0 0.57357644374324357 1 I I #
point $-1 -34.985620711773173 3.4354534709976292 5.8040250270228748 #
loop $-1 $-1 $421 $413 #
plane-surface $-1 -40 0 0 1 0 0 0 0 -1 forward_v I I I I #
coedge $-1 $593 $416 $418 $597 reversed $266 $-1 #
coedge $-1 $416 $592 $703 $704 reversed $266 $-1 #
coedge $-1 $424 $419 $416 $595 forward $414 $-1 #
edge $-1 $598 -11.333512247957568 $705 -2.9430577497297392 $594 $706 forward 7 unknown #
coedge $-1 $418 $417 $601 $707 reversed $166 $-1 #
edge $-1 $708 -8.6223355153435888e-015 $598 10.242853704318504 $592 $709 forward 7 unknown #
vertex $-1 $420 $710 #
straight-curve $-1 -31.609545501772171 6.1115851366661644 8.1679783840322848 0 1 0 I I #
coedge $-1 $703 $421 $424 $605 reversed $590 $-1 #
coedge $-1 $421 $703 $596 $707 forward $590 $-1 #
vertex $-1 $422 $711 #
straight-curve $-1 -40 9.3888246822665131 33.912540955780258 0 0 1 I I #
straight-curve $-1 -39.999999999999993 9.3888246822665131 2.2929187825269679 -0.81915203911291934 0 -0.57357644374324357 I I #
edge $-1 $705 -15.057515864398145 $425 -9.3888246822665131 $600 $712 forward 7 unknown #
point $-1 -40 9.3888246822665131 8.1679783840322848 #
point $-1 -31.609545501772171 9.3888246822665131 8.1679783840322848 #
edge $-1 $713 1 $713 0 $428 $-1 forward 7 unknown #
vertex $-1 $429 $714 #
ellipse-curve $-1 -34.990366670220965 12.223170273332329 4.0673561848382542 -0.57357644374324357 0 0.81915203911291934 0.81915203911291934 0 0.57357644374324357 1 I I #
point $-1 -34.985620711773173 12.223170273332329 5.8040250270228748 #
plane-surface $-1 40 0 0 -1 0 0 0 0 1 forward_v I I I I #
coedge $-1 $437 $435 $439 $617 reversed $281 $-1 #
edge $-1 $450 -8.1679783840322848 $619 8.1679783840322848 $449 $715 forward 7 unknown #
vertex $-1 $617 $716 #
straight-curve $-1 -40 -16.500625629444258 0 0 0 -1 I I #
edge $-1 $615 -16.500625629444258 $619 16.500625629444258 $613 $717 forward 7 unknown #
straight-curve $-1 0 -16.500625629444258 -8.1679783840322848 -1 0 0 I I #
vertex $-1 $442 $718 #
straight-curve $-1 0 16.500625629444258 -8.1679783840322848 1 0 0 I I #
point $-1 40 16.500625629444258 -8.1679783840322848 #
point $-1 40 -16.500625629444258 -8.1679783840322848 #
straight-curve $-1 -40 0 8.1679783840322848 0 -1 0 I I #
point $-1 -40 16.500625629444258 8.1679783840322848 #
point $-1 -40 -16.500625629444258 8.1679783840322848 #
straight-curve $-1 40 -16.500625629444258 0 0 0 -1 I I #
straight-curve $-1 40 16.500625629444258 0 0 0 -1 I I #
plane-surface $-1 -40 0 0 1 0 0 0 0 -1 forward_v I I I I #
coedge $-1 $631 $640 $635 $719 forward $460 $-1 #
coedge $-1 $463 $462 $720 $721 forward $183 $-1 #
coedge $-1 $720 $629 $464 $632 reversed $460 $-1 #
edge $-1 $633 -40 $636 40 $631 $722 forward 7 unknown #
vertex $-1 $721 $723 #
straight-curve $-1 40 0 -8.1679783840322848 0 -1 0 I I #
coedge $-1 $472 $466 $629 $719 reversed $473 $-1 #
vertex $-1 $467 $724 #
straight-curve $-1 -40 0 -8.1679783840322848 0 1 0 I I #
point $-1 -40 -16.500625629444258 -8.1679783840322848 #
point $-1 40 -16.500625629444258 -8.1679783840322848 #
coedge $-1 $629 $720 $475 $641 reversed $460 $-1 #
edge $-1 $642 -40 $644 40 $640 $725 forward 7 unknown #
vertex $-1 $476 $726 #
straight-curve $-1 -40 -19.81967605538647 -5.1456244695745124 0 -1 0 I I #
vertex $-1 $477 $727 #
straight-curve $-1 40 -19.81967605538647 -5.1456244695745124 0 1 0 I I #
edge $-1 $647 48.687620321477709 $650 54.562679922983044 $481 $728 forward 7 unknown #
vertex $-1 $495 $729 #
straight-curve $-1 10.176976185212965 -8.1866089224028862 8.1679783840322813 1 0 0 I I #
edge $-1 $650 -5.510477256734351 $492 0.15821392539728052 $491 $730 forward 7 unknown #
vertex $-1 $649 $731 #
straight-curve $-1 -25.532163129033556 -8.1866089224028862 48.179034281986446 -0.81915203911291934 0 0.57357644374324357 I I #
point $-1 31.609545501772168 -8.1866089224028862 8.1679783840322813 #
point $-1 40.000000000000007 -2.5179177402712547 2.2929187825269537 #
straight-curve $-1 40 0 8.1679783840322848 0 1 0 I I #
vertex $-1 $498 $732 #
point $-1 35.809518709333872 -5.3522633313370704 3.4937797410950049 #
edge $-1 $658 48.687620321477709 $661 54.562679922983044 $503 $733 forward 7 unknown #
vertex $-1 $517 $734 #
straight-curve $-1 10.176976185212965 0.60110787993181347 8.1679783840322813 1 0 0 I I #
edge $-1 $661 -1.1166188555670011 $514 4.5520723265646303 $513 $735 forward 7 unknown #
vertex $-1 $660 $736 #
straight-curve $-1 -25.532163129033556 0.60110787993181347 48.179034281986446 -0.81915203911291934 0 0.57357644374324357 I I #
point $-1 31.609545501772168 0.60110787993181347 8.1679783840322813 #
point $-1 40.000000000000007 6.2697990620634449 2.2929187825269537 #
straight-curve $-1 40 0 8.1679783840322848 0 1 0 I I #
vertex $-1 $520 $737 #
point $-1 35.809518709333872 3.4354534709976292 3.4937797410950049 #
edge $-1 $669 48.687620321477709 $672 54.562679922983044 $525 $738 forward 7 unknown #
vertex $-1 $539 $739 #
straight-curve $-1 10.176976185212965 9.3888246822665131 8.1679783840322813 1 0 0 I I #
edge $-1 $672 3.2772395456003487 $536 8.9459307277319802 $535 $740 forward 7 unknown #
vertex $-1 $671 $741 #
straight-curve $-1 -25.532163129033556 9.3888246822665131 48.179034281986446 -0.81915203911291934 0 0.57357644374324357 I I #
point $-1 31.609545501772168 9.3888246822665131 8.1679783840322813 #
point $-1 40.000000000000007 15.057515864398145 2.2929187825269537 #
straight-curve $-1 40 0 8.1679783840322848 0 1 0 I I #
vertex $-1 $542 $742 #
point $-1 35.809518709333872 12.223170273332329 3.4937797410950049 #
coedge $-1 $557 $556 $549 $680 forward $546 $-1 #
edge $-1 $681 25.744562571747974 $684 31.619622173253294 $679 $743 forward 7 unknown #
vertex $-1 $561 $744 #
straight-curve $-1 -42.943057749729739 -2.5179177402712547 8.1679783840322848 -1 0 0 I I #
edge $-1 $684 -0.15821392539728052 $558 5.510477256734351 $557 $745 forward 7 unknown #
vertex $-1 $683 $746 #
straight-curve $-1 -39.999999999999993 -2.5179177402712547 2.2929187825269679 0.81915203911291934 0 0.57357644374324357 I I #
point $-1 -31.609545501772171 -2.5179177402712547 8.1679783840322848 #
point $-1 -40 -8.1866089224028862 2.292918782526963 #
straight-curve $-1 -40 0 8.1679783840322848 0 -1 0 I I #
vertex $-1 $564 $747 #
point $-1 -34.171214631108043 -5.3522633313370704 4.6409326285814974 #
coedge $-1 $579 $578 $571 $692 forward $568 $-1 #
edge $-1 $693 25.744562571747974 $696 31.619622173253294 $691 $748 forward 7 unknown #
vertex $-1 $583 $749 #
straight-curve $-1 -42.943057749729739 6.2697990620634449 8.1679783840322848 -1 0 0 I I #
edge $-1 $696 -4.5520723265646303 $580 1.1166188555670011 $579 $750 forward 7 unknown #
vertex $-1 $695 $751 #
straight-curve $-1 -39.999999999999993 6.2697990620634449 2.2929187825269679 0.81915203911291934 0 0.57357644374324357 I I #
point $-1 -31.609545501772171 6.2697990620634449 8.1679783840322848 #
point $-1 -40 0.60110787993181347 2.292918782526963 #
straight-curve $-1 -40 0 8.1679783840322848 0 -1 0 I I #
vertex $-1 $586 $752 #
point $-1 -34.171214631108043 3.4354534709976292 4.6409326285814974 #
coedge $-1 $601 $600 $593 $704 forward $590 $-1 #
edge $-1 $705 25.744562571747974 $708 31.619622173253294 $703 $753 forward 7 unknown #
vertex $-1 $605 $754 #
straight-curve $-1 -42.943057749729739 15.057515864398145 8.1679783840322848 -1 0 0 I I #
edge $-1 $708 -8.9459307277319802 $602 -3.2772395456003487 $601 $755 forward 7 unknown #
vertex $-1 $707 $756 #
straight-curve $-1 -39.999999999999993 15.057515864398145 2.2929187825269679 0.81915203911291934 0 0.57357644374324357 I I #
point $-1 -31.609545501772171 15.057515864398145 8.1679783840322848 #
point $-1 -40 9.3888246822665131 2.292918782526963 #
straight-curve $-1 -40 0 8.1679783840322848 0 -1 0 I I #
vertex $-1 $608 $757 #
point $-1 -34.171214631108043 12.223170273332329 4.6409326285814974 #
straight-curve $-1 -40 16.500625629444258 0 0 0 -1 I I #
point $-1 -40 -16.500625629444258 -8.1679783840322848 #
straight-curve $-1 -40 0 -8.1679783840322848 0 1 0 I I #
point $-1 -40 16.500625629444258 -8.1679783840322848 #
edge $-1 $642 -1.5111769572288862 $636 1.5111769572288862 $635 $758 forward 7 unknown #
coedge $-1 $640 $631 $630 $721 reversed $460 $-1 #
edge $-1 $644 -1.5111769572288862 $633 1.5111769572288862 $630 $759 forward 7 unknown #
straight-curve $-1 0 -23.138726481328682 -8.1679783840322848 -1 0 0 I I #
point $-1 40 -23.138726481328682 -8.1679783840322848 #
point $-1 -40 -23.138726481328682 -8.1679783840322848 #
straight-curve $-1 0 -23.138726481328682 -5.1456244695745124 1 0 0 I I #
point $-1 -40 -23.138726481328682 -5.1456244695745124 #
point $-1 40 -23.138726481328682 -5.1456244695745124 #
straight-curve $-1 40 -8.1866089224028862 56.855598705509998 0 0 -1 I I #
point $-1 40 -8.1866089224028862 8.1679783840322848 #
straight-curve $-1 40 -2.6761316656685352 2.2929187825269537 0 1 0 I I #
point $-1 40.000000000000007 -8.1866089224028862 2.2929187825269537 #
point $-1 34.416790226477708 -5.3522633313370704 3.2482041457253295 #
straight-curve $-1 40 0.60110787993181347 56.855598705509998 0 0 -1 I I #
point $-1 40 0.60110787993181347 8.1679783840322848 #
straight-curve $-1 40 1.7177267354988146 2.2929187825269537 0 1 0 I I #
point $-1 40.000000000000007 0.60110787993181347 2.2929187825269537 #
point $-1 34.416790226477708 3.4354534709976292 3.2482041457253295 #
straight-curve $-1 40 9.3888246822665131 56.855598705509998 0 0 -1 I I #
point $-1 40 9.3888246822665131 8.1679783840322848 #
straight-curve $-1 40 6.1115851366661644 2.2929187825269537 0 1 0 I I #
point $-1 40.000000000000007 9.3888246822665131 2.2929187825269537 #
point $-1 34.416790226477708 12.223170273332329 3.2482041457253295 #
straight-curve $-1 -40 -2.5179177402712547 33.912540955780258 0 0 -1 I I #
point $-1 -40 -2.5179177402712547 8.1679783840322848 #
straight-curve $-1 -40 -2.6761316656685352 2.2929187825269661 0 -1 0 I I #
point $-1 -40 -2.5179177402712547 2.292918782526963 #
point $-1 -34.416790226477715 -5.3522633313370704 3.2482041457253348 #
straight-curve $-1 -40 6.2697990620634449 33.912540955780258 0 0 -1 I I #
point $-1 -40 6.2697990620634449 8.1679783840322848 #
straight-curve $-1 -40 1.7177267354988146 2.2929187825269661 0 -1 0 I I #
point $-1 -40 6.2697990620634449 2.292918782526963 #
point $-1 -34.416790226477715 3.4354534709976292 3.2482041457253348 #
straight-curve $-1 -40 15.057515864398145 33.912540955780258 0 0 -1 I I #
point $-1 -40 15.057515864398145 8.1679783840322848 #
straight-curve $-1 -40 6.1115851366661644 2.2929187825269661 0 -1 0 I I #
point $-1 -40 15.057515864398145 2.292918782526963 #
point $-1 -34.416790226477715 12.223170273332329 3.2482041457253348 #
straight-curve $-1 -40 -23.138726481328682 -6.6568014268033986 0 0 -1 I I #
straight-curve $-1 40 -23.138726481328682 -6.6568014268033986 0 0 -1 I I #
End-of-ACIS-data 