500 0 7 0           
7 Unknown 11 ACIS 5.0 NT 24 Fri Mar 26 16:39:11 1999 
-1 9.9999999999999995e-007 1e-010 
body $-1 $7 $-1 $8 #
body $-1 $9 $-1 $10 #
body $-1 $11 $-1 $12 #
body $-1 $13 $-1 $14 #
body $-1 $15 $-1 $16 #
body $-1 $17 $-1 $18 #
body $-1 $19 $-1 $20 #
lump $-1 $-1 $21 $0 #
transform $-1 1 0 0 0 1 0 0 0 1 43.198339793084507 25.846758353811424 12.3989819188835 1 rotate no_reflect no_shear #
lump $-1 $-1 $22 $1 #
transform $-1 1 0 0 0 1 0 0 0 1 43.198339793084507 25.846758353811424 12.3989819188835 1 rotate no_reflect no_shear #
lump $-1 $-1 $23 $2 #
transform $-1 1 0 0 0 1 0 0 0 1 43.198339793084507 25.846758353811424 12.3989819188835 1 rotate no_reflect no_shear #
lump $-1 $-1 $24 $3 #
transform $-1 1 0 0 0 1 0 0 0 1 43.198339793084507 25.846758353811424 12.3989819188835 1 rotate no_reflect no_shear #
lump $-1 $-1 $25 $4 #
transform $-1 1 0 0 0 1 0 0 0 1 43.198339793084507 25.846758353811424 12.3989819188835 1 rotate no_reflect no_shear #
lump $-1 $-1 $26 $5 #
transform $-1 1 0 0 0 1 0 0 0 1 43.198339793084507 25.846758353811424 12.3989819188835 1 rotate no_reflect no_shear #
lump $-1 $-1 $27 $6 #
transform $-1 1 0 0 0 1 0 0 0 1 43.198339793084507 25.846758353811424 12.3989819188835 1 rotate no_reflect no_shear #
shell $-1 $-1 $-1 $28 $-1 $7 #
shell $-1 $-1 $-1 $29 $-1 $9 #
shell $-1 $-1 $-1 $30 $-1 $11 #
shell $-1 $-1 $-1 $31 $-1 $13 #
shell $-1 $-1 $-1 $32 $-1 $15 #
shell $-1 $-1 $-1 $33 $-1 $17 #
shell $-1 $-1 $-1 $34 $-1 $19 #
face $-1 $35 $36 $21 $-1 $37 forward single #
face $-1 $38 $39 $22 $-1 $40 forward single #
face $-1 $41 $42 $23 $-1 $43 reversed single #
face $-1 $44 $45 $24 $-1 $46 forward single #
face $-1 $47 $48 $25 $-1 $49 reversed single #
face $-1 $50 $51 $26 $-1 $52 forward single #
face $-1 $53 $54 $27 $-1 $55 forward single #
face $-1 $56 $57 $21 $-1 $58 reversed single #
loop $-1 $-1 $59 $28 #
plane-surface $-1 0 0 12.3989819188835 0 0 1 1 0 0 forward_v I I I I #
face $-1 $60 $61 $22 $-1 $62 reversed single #
loop $-1 $-1 $63 $29 #
plane-surface $-1 -36.819154979043944 0 5.3684098560344777 0 0 1 1 0 0 forward_v I I I I #
face $-1 $64 $65 $23 $-1 $66 reversed single #
loop $-1 $-1 $67 $30 #
plane-surface $-1 -30.439970165003373 58.802503840387431 102.46652463958884 1 0 0 0 -0.7660444514056185 -0.64278759981090561 forward_v I I I I #
face $-1 $68 $69 $24 $-1 $70 forward single #
loop $-1 $71 $72 $31 #
cone-surface $-1 -19.902120581307216 21.505843535890637 8.0068732390910053 0 -0.7660444514056185 -0.64278759981090561 1.5 0 0 1 I I 0 1 1.5 forward I I I I #
face $-1 $73 $74 $25 $-1 $75 reversed single #
loop $-1 $-1 $76 $32 #
plane-surface $-1 8.9537874271220694 -92.030455370665265 58.261729931440378 -1 0 0 0 -0.7660444514056185 0.64278759981090561 forward_v I I I I #
face $-1 $77 $78 $26 $-1 $79 forward single #
loop $-1 $80 $81 $33 #
cone-surface $-1 3.5166900063930342 -21.324542327413699 7.173367519516475 0 0.7660444514056185 -0.64278759981090561 1 0 0 1 I I 0 1 1 forward I I I I #
face $-1 $82 $83 $27 $-1 $84 forward single #
loop $-1 $85 $86 $34 #
cone-surface $-1 6.778948458830456 -21.324542327413699 7.173367519516475 0 0.7660444514056185 -0.64278759981090561 1 0 0 1 I I 0 1 1 forward I I I I #
face $-1 $87 $88 $21 $-1 $89 reversed single #
loop $-1 $-1 $90 $35 #
plane-surface $-1 0 0 -12.3989819188835 0 0 1 1 0 0 forward_v I I I I #
coedge $-1 $91 $92 $93 $94 forward $36 $-1 #
face $-1 $95 $96 $22 $-1 $97 reversed single #
loop $-1 $-1 $98 $38 #
plane-surface $-1 -36.819154979043944 0 -0.88417040554721194 0 0 1 1 0 0 forward_v I I I I #
coedge $-1 $99 $100 $101 $102 forward $39 $-1 #
face $-1 $103 $104 $23 $-1 $105 reversed single #
loop $-1 $-1 $106 $41 #
plane-surface $-1 -19.902120581307216 -7.3811931764664251 46.931810336763384 0 0.7660444514056185 0.64278759981090561 1 0 0 forward_v I I I I #
coedge $-1 $107 $108 $109 $110 reversed $42 $-1 #
face $-1 $-1 $111 $24 $-1 $112 forward single #
loop $-1 $113 $114 $44 #
cone-surface $-1 -19.902120581307216 18.716129729398446 5.6660254742594454 0 -0.7660444514056185 -0.64278759981090561 0.75 0 0 1 I I -0.70710678118654757 0.70710678118654757 0.75 forward I I I I #
loop $-1 $-1 $115 $31 #
coedge $-1 $72 $72 $116 $117 reversed $45 $-1 #
face $-1 $118 $119 $25 $-1 $120 reversed single #
loop $-1 $-1 $121 $47 #
plane-surface $-1 5.1478192326117451 -25.846758353811424 2.7270156286149287 0 -0.7660444514056185 0.64278759981090561 1 0 0 forward_v I I I I #
coedge $-1 $122 $123 $124 $125 reversed $48 $-1 #
face $-1 $-1 $126 $26 $-1 $127 forward single #
loop $-1 $128 $129 $50 #
cone-surface $-1 3.5166900063930342 -20.477175642534938 6.4623424653782813 0 0.7660444514056185 -0.64278759981090561 0.5 0 0 1 I I -0.70710678118654746 0.70710678118654746 0.5 forward I I I I #
loop $-1 $-1 $130 $33 #
coedge $-1 $81 $81 $131 $132 reversed $51 $-1 #
face $-1 $-1 $133 $27 $-1 $134 forward single #
loop $-1 $135 $136 $53 #
cone-surface $-1 6.778948458830456 -20.477175642534938 6.4623424653782813 0 0.7660444514056185 -0.64278759981090561 0.5 0 0 1 I I -0.70710678118654746 0.70710678118654746 0.5 forward I I I I #
loop $-1 $-1 $137 $34 #
coedge $-1 $86 $86 $138 $139 reversed $54 $-1 #
face $-1 $140 $141 $21 $-1 $142 reversed single #
loop $-1 $-1 $143 $56 #
plane-surface $-1 0 -25.846758353811424 0 0 1 0 0 0 1 forward_v I I I I #
coedge $-1 $144 $145 $146 $147 forward $57 $-1 #
coedge $-1 $148 $59 $149 $150 forward $36 $-1 #
coedge $-1 $59 $148 $151 $152 forward $36 $-1 #
coedge $-1 $153 $154 $59 $94 reversed $155 $-1 #
edge $-1 $156 -25.846758353811424 $157 25.846758353811424 $93 $158 forward 7 unknown #
face $-1 $159 $160 $22 $-1 $161 reversed single #
loop $-1 $-1 $162 $60 #
plane-surface $-1 -30.439970165003377 0 2.2421197252436329 -1 0 0 0 0 1 forward_v I I I I #
coedge $-1 $163 $164 $165 $166 forward $61 $-1 #
coedge $-1 $167 $63 $168 $169 reversed $39 $-1 #
coedge $-1 $63 $167 $170 $171 reversed $39 $-1 #
coedge $-1 $162 $172 $63 $102 reversed $96 $-1 #
edge $-1 $173 -25.846758353811424 $174 25.846758353811424 $101 $175 forward 7 unknown #
face $-1 $176 $177 $23 $-1 $178 forward single #
loop $-1 $-1 $179 $64 #
plane-surface $-1 -9.3642709976110581 58.802503840387431 102.46652463958884 -1 0 0 0 0.7660444514056185 0.64278759981090561 forward_v I I I I #
coedge $-1 $180 $181 $182 $183 reversed $65 $-1 #
coedge $-1 $108 $67 $184 $185 reversed $42 $-1 #
coedge $-1 $67 $107 $180 $186 reversed $42 $-1 #
coedge $-1 $182 $187 $67 $110 forward $177 $-1 #
edge $-1 $188 3.5544935663822912 $189 7.8059622663479225 $109 $190 forward 7 unknown #
loop $-1 $-1 $116 $68 #
plane-surface $-1 -19.902120581307216 -7.3811931764664251 46.931810336763384 0 0.7660444514056185 0.64278759981090561 1 0 0 forward_v I I I I #
loop $-1 $-1 $191 $44 #
coedge $-1 $114 $114 $115 $192 reversed $69 $-1 #
coedge $-1 $115 $115 $114 $192 forward $71 $-1 #
coedge $-1 $116 $116 $72 $117 forward $111 $-1 #
edge $-1 $193 3.1386261693149145e-017 $193 6.2831853071796004 $116 $194 forward 7 unknown #
face $-1 $195 $196 $25 $-1 $197 reversed single #
loop $-1 $-1 $198 $73 #
plane-surface $-1 1.3418510381014208 -92.030455370665265 58.261729931440378 1 0 0 0 0.7660444514056185 -0.64278759981090561 forward_v I I I I #
coedge $-1 $199 $200 $201 $202 reversed $74 $-1 #
coedge $-1 $123 $76 $203 $204 reversed $48 $-1 #
coedge $-1 $76 $122 $199 $205 reversed $48 $-1 #
coedge $-1 $201 $206 $76 $125 forward $207 $-1 #
edge $-1 $208 20.168469331521209 $209 28.284212465964757 $124 $210 forward 7 unknown #
loop $-1 $-1 $131 $77 #
plane-surface $-1 5.1478192326117451 -25.846758353811424 2.7270156286149287 0 -0.7660444514056185 0.64278759981090561 1 0 0 forward_v I I I I #
loop $-1 $-1 $211 $50 #
coedge $-1 $129 $129 $130 $212 reversed $78 $-1 #
coedge $-1 $130 $130 $129 $212 forward $80 $-1 #
coedge $-1 $131 $131 $81 $132 forward $126 $-1 #
edge $-1 $213 6.8038415026949171e-016 $213 6.2831853071796013 $131 $214 forward 7 unknown #
loop $-1 $-1 $138 $82 #
plane-surface $-1 5.1478192326117451 -25.846758353811424 2.7270156286149287 0 -0.7660444514056185 0.64278759981090561 1 0 0 forward_v I I I I #
loop $-1 $-1 $215 $53 #
coedge $-1 $136 $136 $137 $216 reversed $83 $-1 #
coedge $-1 $137 $137 $136 $216 forward $85 $-1 #
coedge $-1 $138 $138 $86 $139 forward $133 $-1 #
edge $-1 $217 6.8038415026949171e-016 $217 6.2831853071796013 $138 $218 forward 7 unknown #
face $-1 $219 $220 $21 $-1 $221 reversed single #
loop $-1 $-1 $222 $87 #
plane-surface $-1 -43.198339793084507 0 0 1 0 0 0 0 -1 forward_v I I I I #
coedge $-1 $223 $151 $224 $225 forward $88 $-1 #
coedge $-1 $226 $90 $223 $227 forward $57 $-1 #
coedge $-1 $90 $226 $228 $229 forward $57 $-1 #
coedge $-1 $154 $153 $90 $147 reversed $155 $-1 #
edge $-1 $230 -25.846758353811424 $231 25.846758353811424 $146 $232 forward 7 unknown #
coedge $-1 $92 $91 $233 $234 forward $36 $-1 #
coedge $-1 $235 $236 $91 $150 reversed $220 $-1 #
edge $-1 $157 -43.198339793084507 $237 43.198339793084507 $149 $238 forward 7 unknown #
coedge $-1 $143 $239 $92 $152 reversed $88 $-1 #
edge $-1 $240 -43.198339793084507 $156 43.198339793084507 $151 $241 forward 7 unknown #
coedge $-1 $146 $93 $239 $242 forward $155 $-1 #
coedge $-1 $93 $146 $235 $243 reversed $155 $-1 #
loop $-1 $-1 $153 $219 #
vertex $-1 $94 $244 #
vertex $-1 $94 $245 #
straight-curve $-1 43.198339793084507 0 12.3989819188835 0 1 0 I I #
face $-1 $246 $247 $22 $-1 $248 reversed single #
loop $-1 $-1 $249 $95 #
plane-surface $-1 0 -25.846758353811424 0 0 1 0 0 0 1 forward_v I I I I #
coedge $-1 $165 $101 $250 $251 reversed $96 $-1 #
coedge $-1 $252 $98 $249 $253 reversed $61 $-1 #
coedge $-1 $98 $252 $254 $255 reversed $61 $-1 #
coedge $-1 $172 $162 $98 $166 reversed $96 $-1 #
edge $-1 $256 -25.846758353811424 $257 25.846758353811424 $165 $258 forward 7 unknown #
coedge $-1 $100 $99 $259 $260 reversed $39 $-1 #
coedge $-1 $261 $262 $99 $169 forward $263 $-1 #
edge $-1 $264 -24.788762303562535 $174 -12.030392675481405 $168 $265 forward 7 unknown #
coedge $-1 $266 $250 $100 $171 forward $160 $-1 #
edge $-1 $173 12.030392675481405 $267 24.788762303562535 $170 $268 forward 7 unknown #
coedge $-1 $101 $165 $261 $269 reversed $96 $-1 #
vertex $-1 $171 $270 #
vertex $-1 $169 $271 #
straight-curve $-1 -30.439970165003377 0 5.3684098560344777 0 1 0 I I #
face $-1 $-1 $272 $23 $-1 $273 reversed single #
loop $-1 $-1 $109 $103 #
plane-surface $-1 0 0 12.3989819188835 0 0 1 1 0 0 forward_v I I I I #
coedge $-1 $274 $275 $276 $277 reversed $104 $-1 #
coedge $-1 $278 $106 $108 $186 forward $65 $-1 #
coedge $-1 $106 $278 $274 $279 forward $65 $-1 #
coedge $-1 $276 $109 $106 $183 forward $177 $-1 #
edge $-1 $189 -20.488909874349766 $280 0.58678929304254979 $182 $281 forward 7 unknown #
coedge $-1 $282 $283 $107 $185 forward $272 $-1 #
edge $-1 $284 -43.900983630549163 $188 -38.83428040091092 $184 $285 forward 7 unknown #
edge $-1 $189 45.079405450317473 $284 51.693516707622869 $108 $286 forward 7 unknown #
coedge $-1 $109 $276 $282 $287 forward $177 $-1 #
vertex $-1 $185 $288 #
vertex $-1 $110 $289 #
straight-curve $-1 -30.439970165003373 29.401251920193715 12.3989819188835 0 -1 0 I I #
coedge $-1 $191 $191 $-1 $290 reversed $113 $-1 #
edge $-1 $291 0 $291 6.2831853071796004 $114 $292 forward 7 unknown #
vertex $-1 $117 $293 #
ellipse-curve $-1 -19.902120581307216 23.721024003828603 9.8656303040643767 0 0.7660444514056185 0.64278759981090561 1.5 0 0 1 I I #
face $-1 $-1 $207 $25 $-1 $294 forward single #
loop $-1 $-1 $295 $118 #
plane-surface $-1 0 -25.846758353811424 0 0 1 0 0 0 1 forward_v I I I I #
coedge $-1 $296 $297 $298 $299 reversed $119 $-1 #
coedge $-1 $300 $121 $123 $205 forward $74 $-1 #
coedge $-1 $121 $300 $296 $301 forward $74 $-1 #
coedge $-1 $298 $124 $121 $202 forward $207 $-1 #
edge $-1 $209 -6.3798778108161969 $302 1.2320585782044517 $201 $303 forward 7 unknown #
coedge $-1 $304 $305 $122 $204 forward $196 $-1 #
edge $-1 $306 -26.40384933710526 $208 -16.731883046836689 $203 $307 forward 7 unknown #
edge $-1 $209 -12.625855160913231 $306 0 $123 $308 forward 7 unknown #
coedge $-1 $124 $298 $304 $309 forward $207 $-1 #
loop $-1 $-1 $298 $195 #
vertex $-1 $204 $310 #
vertex $-1 $125 $311 #
straight-curve $-1 8.9537874271220694 -46.015227685332633 12.3989819188835 0 1 0 I I #
coedge $-1 $211 $211 $-1 $312 reversed $128 $-1 #
edge $-1 $313 0 $313 6.2831853071796004 $129 $314 forward 7 unknown #
vertex $-1 $132 $315 #
ellipse-curve $-1 3.5166900063930342 -21.78888678658965 7.5629987737492144 0 -0.7660444514056185 0.64278759981090561 1 0 0 1 I I #
coedge $-1 $215 $215 $-1 $316 reversed $135 $-1 #
edge $-1 $317 0 $317 6.2831853071796004 $136 $318 forward 7 unknown #
vertex $-1 $139 $319 #
ellipse-curve $-1 6.778948458830456 -21.78888678658965 7.5629987737492144 0 -0.7660444514056185 0.64278759981090561 1 0 0 1 I I #
face $-1 $-1 $155 $21 $-1 $320 reversed single #
loop $-1 $-1 $235 $140 #
plane-surface $-1 0 25.846758353811424 0 0 -1 0 0 0 -1 forward_v I I I I #
coedge $-1 $321 $233 $236 $322 forward $141 $-1 #
coedge $-1 $239 $143 $144 $227 reversed $88 $-1 #
coedge $-1 $233 $321 $143 $225 reversed $141 $-1 #
edge $-1 $240 -12.3989819188835 $323 12.3989819188835 $224 $324 forward 7 unknown #
coedge $-1 $145 $144 $321 $325 forward $57 $-1 #
edge $-1 $231 -43.198339793084507 $323 43.198339793084507 $223 $326 forward 7 unknown #
coedge $-1 $236 $235 $145 $229 reversed $220 $-1 #
edge $-1 $327 -43.198339793084507 $230 43.198339793084507 $228 $328 forward 7 unknown #
vertex $-1 $147 $329 #
vertex $-1 $242 $330 #
straight-curve $-1 43.198339793084507 0 -12.3989819188835 0 -1 0 I I #
coedge $-1 $222 $224 $148 $234 reversed $141 $-1 #
edge $-1 $237 -25.846758353811424 $240 25.846758353811424 $233 $331 forward 7 unknown #
coedge $-1 $228 $149 $154 $243 forward $220 $-1 #
coedge $-1 $149 $228 $222 $322 reversed $220 $-1 #
vertex $-1 $150 $332 #
straight-curve $-1 0 25.846758353811424 12.3989819188835 -1 0 0 I I #
coedge $-1 $151 $223 $153 $242 reversed $88 $-1 #
vertex $-1 $234 $333 #
straight-curve $-1 0 -25.846758353811424 12.3989819188835 1 0 0 I I #
edge $-1 $156 -12.3989819188835 $231 12.3989819188835 $153 $334 forward 7 unknown #
edge $-1 $157 -12.3989819188835 $230 12.3989819188835 $154 $335 forward 7 unknown #
point $-1 43.198339793084507 -25.846758353811424 12.3989819188835 #
point $-1 43.198339793084507 25.846758353811424 12.3989819188835 #
face $-1 $-1 $263 $22 $-1 $336 reversed single #
loop $-1 $-1 $337 $159 #
plane-surface $-1 -43.198339793084507 0 0 1 0 0 0 0 -1 forward_v I I I I #
coedge $-1 $250 $266 $163 $253 forward $160 $-1 #
coedge $-1 $170 $249 $162 $251 forward $160 $-1 #
edge $-1 $257 -2.0052302681690284 $173 4.2473499934126613 $250 $338 forward 7 unknown #
coedge $-1 $164 $163 $337 $339 reversed $61 $-1 #
edge $-1 $340 -24.788762303562535 $257 -12.030392675481405 $249 $341 forward 7 unknown #
coedge $-1 $262 $261 $164 $255 forward $263 $-1 #
edge $-1 $256 12.030392675481405 $342 24.788762303562535 $254 $343 forward 7 unknown #
vertex $-1 $255 $344 #
vertex $-1 $253 $345 #
straight-curve $-1 -30.439970165003377 0 -0.88417040554721194 0 -1 0 I I #
coedge $-1 $346 $347 $167 $260 forward $247 $-1 #
edge $-1 $267 -25.846758353811424 $264 25.846758353811424 $259 $348 forward 7 unknown #
coedge $-1 $254 $168 $172 $269 forward $263 $-1 #
coedge $-1 $168 $254 $346 $349 reversed $263 $-1 #
loop $-1 $-1 $254 $246 #
vertex $-1 $349 $350 #
straight-curve $-1 -18.409577489521972 25.846758353811424 5.3684098560344777 1 0 0 I I #
coedge $-1 $249 $170 $347 $351 forward $160 $-1 #
vertex $-1 $351 $352 #
straight-curve $-1 -18.409577489521972 -25.846758353811424 5.3684098560344777 -1 0 0 I I #
edge $-1 $174 -4.2473499934126613 $256 2.0052302681690284 $261 $353 forward 7 unknown #
point $-1 -30.439970165003377 -25.846758353811424 5.3684098560344777 #
point $-1 -30.439970165003377 25.846758353811424 5.3684098560344777 #
loop $-1 $-1 $184 $176 #
plane-surface $-1 0 25.846758353811424 0 0 -1 0 0 0 -1 forward_v I I I I #
coedge $-1 $275 $179 $181 $279 reversed $104 $-1 #
coedge $-1 $179 $274 $354 $355 reversed $104 $-1 #
coedge $-1 $187 $182 $179 $277 forward $177 $-1 #
edge $-1 $280 -7.8059622663479225 $356 -3.5544935663822912 $276 $357 forward 7 unknown #
coedge $-1 $181 $180 $283 $358 reversed $65 $-1 #
edge $-1 $359 -51.693516707622869 $280 -45.079405450317473 $274 $360 forward 7 unknown #
vertex $-1 $183 $361 #
straight-curve $-1 -9.9510602906536079 21.595289653845793 12.3989819188835 1 0 0 I I #
coedge $-1 $354 $184 $187 $287 reversed $272 $-1 #
coedge $-1 $184 $354 $278 $358 forward $272 $-1 #
vertex $-1 $185 $362 #
straight-curve $-1 -30.439970165003373 25.846758353811424 51.23326231979442 0 0 1 I I #
straight-curve $-1 -30.439970165003373 -7.3811931764664251 46.931810336763384 0 0.64278759981090561 -0.7660444514056185 I I #
edge $-1 $356 9.3642709976110581 $188 30.439970165003373 $282 $363 forward 7 unknown #
point $-1 -30.439970165003373 25.846758353811424 12.3989819188835 #
point $-1 -30.439970165003373 21.595289653845793 12.3989819188835 #
edge $-1 $364 1 $364 0 $191 $-1 forward 7 unknown #
vertex $-1 $192 $365 #
ellipse-curve $-1 -19.902120581307216 19.290663067952661 6.1481161741176242 0 0.7660444514056185 0.64278759981090561 1.5 0 0 1 I I #
point $-1 -18.402120581307216 23.721024003828614 9.8656303040643856 #
plane-surface $-1 0 0 12.3989819188835 0 0 1 1 0 0 forward_v I I I I #
coedge $-1 $305 $304 $297 $366 forward $196 $-1 #
coedge $-1 $297 $198 $200 $301 reversed $119 $-1 #
coedge $-1 $198 $296 $295 $366 reversed $119 $-1 #
coedge $-1 $206 $201 $198 $299 forward $207 $-1 #
edge $-1 $302 -28.284212465964757 $367 -20.168469331521209 $298 $368 forward 7 unknown #
coedge $-1 $200 $199 $305 $369 reversed $74 $-1 #
edge $-1 $370 0 $302 12.625855160913231 $296 $371 forward 7 unknown #
vertex $-1 $202 $372 #
straight-curve $-1 2.5739096163058726 -17.731015219367876 12.3989819188835 -1 0 0 I I #
coedge $-1 $295 $203 $206 $309 reversed $196 $-1 #
coedge $-1 $203 $295 $300 $369 forward $196 $-1 #
vertex $-1 $204 $373 #
straight-curve $-1 8.9537874271220694 -25.846758353811424 29.130864965720189 0 0 1 I I #
straight-curve $-1 8.9537874271220694 -25.846758353811424 2.7270156286149287 0 -0.64278759981090561 -0.7660444514056185 I I #
edge $-1 $367 1.3418510381014208 $208 8.9537874271220694 $304 $374 forward 7 unknown #
point $-1 8.9537874271220694 -25.846758353811424 12.3989819188835 #
point $-1 8.9537874271220694 -17.731015219367876 12.3989819188835 #
edge $-1 $375 1 $375 0 $211 $-1 forward 7 unknown #
vertex $-1 $212 $376 #
ellipse-curve $-1 3.5166900063930342 -20.860197868237748 6.7837362652837339 0 -0.7660444514056185 0.64278759981090561 1 0 0 1 I I #
point $-1 4.5166900063930342 -21.78888678658965 7.5629987737492153 #
edge $-1 $377 1 $377 0 $215 $-1 forward 7 unknown #
vertex $-1 $216 $378 #
ellipse-curve $-1 6.778948458830456 -20.860197868237748 6.7837362652837339 0 -0.7660444514056185 0.64278759981090561 1 0 0 1 I I #
point $-1 7.778948458830456 -21.78888678658965 7.5629987737492153 #
plane-surface $-1 43.198339793084507 0 0 -1 0 0 0 0 1 forward_v I I I I #
coedge $-1 $224 $222 $226 $325 reversed $141 $-1 #
edge $-1 $237 -12.3989819188835 $327 12.3989819188835 $236 $379 forward 7 unknown #
vertex $-1 $325 $380 #
straight-curve $-1 -43.198339793084507 -25.846758353811424 0 0 0 -1 I I #
edge $-1 $323 -25.846758353811424 $327 25.846758353811424 $321 $381 forward 7 unknown #
straight-curve $-1 0 -25.846758353811424 -12.3989819188835 -1 0 0 I I #
vertex $-1 $229 $382 #
straight-curve $-1 0 25.846758353811424 -12.3989819188835 1 0 0 I I #
point $-1 43.198339793084507 25.846758353811424 -12.3989819188835 #
point $-1 43.198339793084507 -25.846758353811424 -12.3989819188835 #
straight-curve $-1 -43.198339793084507 0 12.3989819188835 0 -1 0 I I #
point $-1 -43.198339793084507 25.846758353811424 12.3989819188835 #
point $-1 -43.198339793084507 -25.846758353811424 12.3989819188835 #
straight-curve $-1 43.198339793084507 -25.846758353811424 0 0 0 -1 I I #
straight-curve $-1 43.198339793084507 25.846758353811424 0 0 0 -1 I I #
plane-surface $-1 0 25.846758353811424 0 0 -1 0 0 0 -1 forward_v I I I I #
coedge $-1 $347 $346 $252 $339 forward $247 $-1 #
straight-curve $-1 -30.439970165003377 -25.846758353811424 1.1210598626218164 0 0 1 I I #
edge $-1 $342 -25.846758353811424 $340 25.846758353811424 $337 $383 forward 7 unknown #
vertex $-1 $253 $384 #
straight-curve $-1 -18.409577489521972 -25.846758353811424 -0.88417040554721194 1 0 0 I I #
vertex $-1 $255 $385 #
straight-curve $-1 -18.409577489521972 25.846758353811424 -0.88417040554721194 -1 0 0 I I #
point $-1 -30.439970165003377 25.846758353811424 -0.88417040554721194 #
point $-1 -30.439970165003377 -25.846758353811424 -0.88417040554721194 #
coedge $-1 $337 $259 $262 $349 forward $247 $-1 #
coedge $-1 $259 $337 $266 $351 reversed $247 $-1 #
straight-curve $-1 -43.198339793084507 0 5.3684098560344777 0 1 0 I I #
edge $-1 $264 -5.3684098560344777 $342 0.88417040554721194 $262 $386 forward 7 unknown #
point $-1 -43.198339793084507 25.846758353811424 5.3684098560344777 #
edge $-1 $267 -5.3684098560344777 $340 0.88417040554721194 $347 $387 forward 7 unknown #
point $-1 -43.198339793084507 -25.846758353811424 5.3684098560344777 #
straight-curve $-1 -30.439970165003377 25.846758353811424 1.1210598626218164 0 0 -1 I I #
coedge $-1 $283 $282 $275 $355 forward $272 $-1 #
edge $-1 $356 38.83428040091092 $359 43.900983630549163 $354 $388 forward 7 unknown #
vertex $-1 $287 $389 #
straight-curve $-1 -9.3642709976110581 29.401251920193715 12.3989819188835 0 1 0 I I #
edge $-1 $359 -0.58678929304254979 $284 20.488909874349766 $283 $390 forward 7 unknown #
vertex $-1 $358 $391 #
straight-curve $-1 -9.3642709976110581 -7.3811931764664251 46.931810336763384 0 -0.64278759981090561 0.7660444514056185 I I #
point $-1 -9.3642709976110581 21.595289653845793 12.3989819188835 #
point $-1 -30.439970165003373 25.846758353811424 7.3322786892452569 #
straight-curve $-1 0 25.846758353811424 12.3989819188835 -1 0 0 I I #
vertex $-1 $290 $392 #
point $-1 -18.402120581307216 19.290663067952661 6.1481161741176242 #
edge $-1 $367 16.731883046836689 $370 26.40384933710526 $295 $393 forward 7 unknown #
vertex $-1 $309 $394 #
straight-curve $-1 1.3418510381014208 -46.015227685332633 12.3989819188835 0 -1 0 I I #
edge $-1 $370 -1.2320585782044517 $306 6.3798778108161969 $305 $395 forward 7 unknown #
vertex $-1 $369 $396 #
straight-curve $-1 1.3418510381014208 -25.846758353811424 2.7270156286149287 0 0.64278759981090561 0.7660444514056185 I I #
point $-1 1.3418510381014208 -17.731015219367876 12.3989819188835 #
point $-1 8.9537874271220694 -25.846758353811424 2.7270156286149287 #
straight-curve $-1 0 -25.846758353811424 12.3989819188835 1 0 0 I I #
vertex $-1 $312 $397 #
point $-1 4.5166900063930342 -20.860197868237748 6.7837362652837339 #
vertex $-1 $316 $398 #
point $-1 7.778948458830456 -20.860197868237748 6.7837362652837339 #
straight-curve $-1 -43.198339793084507 25.846758353811424 0 0 0 -1 I I #
point $-1 -43.198339793084507 -25.846758353811424 -12.3989819188835 #
straight-curve $-1 -43.198339793084507 0 -12.3989819188835 0 1 0 I I #
point $-1 -43.198339793084507 25.846758353811424 -12.3989819188835 #
straight-curve $-1 -43.198339793084507 0 -0.88417040554721194 0 -1 0 I I #
point $-1 -43.198339793084507 -25.846758353811424 -0.88417040554721194 #
point $-1 -43.198339793084507 25.846758353811424 -0.88417040554721194 #
straight-curve $-1 -43.198339793084507 25.846758353811424 0 0 0 -1 I I #
straight-curve $-1 -43.198339793084507 -25.846758353811424 0 0 0 -1 I I #
straight-curve $-1 -9.3642709976110581 25.846758353811424 51.23326231979442 0 0 -1 I I #
point $-1 -9.3642709976110581 25.846758353811424 12.3989819188835 #
straight-curve $-1 -9.9510602906536079 25.846758353811424 7.3322786892452569 -1 0 0 I I #
point $-1 -9.3642709976110581 25.846758353811424 7.3322786892452569 #
point $-1 -19.902120581307216 18.141596390844231 5.1839347744012665 #
straight-curve $-1 1.3418510381014208 -25.846758353811424 29.130864965720189 0 0 -1 I I #
point $-1 1.3418510381014208 -25.846758353811424 12.3989819188835 #
straight-curve $-1 2.5739096163058726 -25.846758353811424 2.7270156286149296 1 0 0 I I #
point $-1 1.3418510381014208 -25.846758353811424 2.7270156286149287 #
point $-1 3.5166900063930342 -20.094153416832128 6.1409486654728287 #
point $-1 6.778948458830456 -20.094153416832128 6.1409486654728287 #
End-of-ACIS-data 