500 0 12 0           
7 Unknown 11 ACIS 5.0 NT 24 Thu Mar 25 23:38:35 1999 
-1 9.9999999999999995e-007 1e-010 
body $-1 $12 $-1 $13 #
body $-1 $14 $-1 $15 #
body $-1 $16 $-1 $17 #
body $-1 $18 $-1 $19 #
body $-1 $20 $-1 $21 #
body $-1 $22 $-1 $23 #
body $-1 $24 $-1 $25 #
body $-1 $26 $-1 $27 #
body $-1 $28 $-1 $29 #
body $-1 $30 $-1 $31 #
body $-1 $32 $-1 $33 #
body $-1 $34 $-1 $35 #
lump $-1 $-1 $36 $0 #
transform $-1 1 0 0 0 1 0 0 0 1 50.287179174169133 31.439961241427763 12.700143894277357 1 rotate no_reflect no_shear #
lump $-1 $-1 $37 $1 #
transform $-1 1 0 0 0 1 0 0 0 1 50.287179174169133 31.439961241427763 12.700143894277357 1 rotate no_reflect no_shear #
lump $-1 $-1 $38 $2 #
transform $-1 1 0 0 0 1 0 0 0 1 50.287179174169133 31.439961241427763 12.700143894277357 1 rotate no_reflect no_shear #
lump $-1 $-1 $39 $3 #
transform $-1 1 0 0 0 1 0 0 0 1 50.287179174169133 31.439961241427763 12.700143894277357 1 rotate no_reflect no_shear #
lump $-1 $-1 $40 $4 #
transform $-1 1 0 0 0 1 0 0 0 1 50.287179174169133 31.439961241427763 12.700143894277357 1 rotate no_reflect no_shear #
lump $-1 $-1 $41 $5 #
transform $-1 1 0 0 0 1 0 0 0 1 50.287179174169133 31.439961241427763 12.700143894277357 1 rotate no_reflect no_shear #
lump $-1 $-1 $42 $6 #
transform $-1 1 0 0 0 1 0 0 0 1 50.287179174169133 31.439961241427763 12.700143894277357 1 rotate no_reflect no_shear #
lump $-1 $-1 $43 $7 #
transform $-1 1 0 0 0 1 0 0 0 1 50.287179174169133 31.439961241427763 12.700143894277357 1 rotate no_reflect no_shear #
lump $-1 $-1 $44 $8 #
transform $-1 1 0 0 0 1 0 0 0 1 50.287179174169133 31.439961241427763 12.700143894277357 1 rotate no_reflect no_shear #
lump $-1 $-1 $45 $9 #
transform $-1 1 0 0 0 1 0 0 0 1 50.287179174169133 31.439961241427763 12.700143894277357 1 rotate no_reflect no_shear #
lump $-1 $-1 $46 $10 #
transform $-1 1 0 0 0 1 0 0 0 1 50.287179174169133 31.439961241427763 12.700143894277357 1 rotate no_reflect no_shear #
lump $-1 $-1 $47 $11 #
transform $-1 1 0 0 0 1 0 0 0 1 50.287179174169133 31.439961241427763 12.700143894277357 1 rotate no_reflect no_shear #
shell $-1 $-1 $-1 $48 $-1 $12 #
shell $-1 $-1 $-1 $49 $-1 $14 #
shell $-1 $-1 $-1 $50 $-1 $16 #
shell $-1 $-1 $-1 $51 $-1 $18 #
shell $-1 $-1 $-1 $52 $-1 $20 #
shell $-1 $-1 $-1 $53 $-1 $22 #
shell $-1 $-1 $-1 $54 $-1 $24 #
shell $-1 $-1 $-1 $55 $-1 $26 #
shell $-1 $-1 $-1 $56 $-1 $28 #
shell $-1 $-1 $-1 $57 $-1 $30 #
shell $-1 $-1 $-1 $58 $-1 $32 #
shell $-1 $-1 $-1 $59 $-1 $34 #
face $-1 $60 $61 $36 $-1 $62 forward single #
face $-1 $63 $64 $37 $-1 $65 reversed single #
face $-1 $66 $67 $38 $-1 $68 forward single #
face $-1 $69 $70 $39 $-1 $71 reversed single #
face $-1 $72 $73 $40 $-1 $74 forward single #
face $-1 $75 $76 $41 $-1 $77 forward single #
face $-1 $78 $79 $42 $-1 $80 reversed single #
face $-1 $81 $82 $43 $-1 $83 forward single #
face $-1 $84 $85 $44 $-1 $86 reversed single #
face $-1 $87 $88 $45 $-1 $89 forward single #
face $-1 $90 $91 $46 $-1 $92 reversed single #
face $-1 $93 $94 $47 $-1 $95 forward single #
face $-1 $96 $97 $36 $-1 $98 reversed single #
loop $-1 $-1 $99 $48 #
plane-surface $-1 0 0 12.700143894277357 0 0 1 1 0 0 forward_v I I I I #
face $-1 $100 $101 $37 $-1 $102 reversed single #
loop $-1 $-1 $103 $49 #
plane-surface $-1 0 -23.092912110339221 5.4408258287395164 0 0 1 1 0 0 forward_v I I I I #
face $-1 $104 $105 $38 $-1 $106 forward single #
loop $-1 $-1 $107 $50 #
plane-surface $-1 0 31.439961241427763 0 0 -1 0 0 0 -1 forward_v I I I I #
face $-1 $108 $109 $39 $-1 $110 reversed single #
loop $-1 $-1 $111 $51 #
plane-surface $-1 -105.06390136994818 1.5483369175359911 87.840177980678774 0 1 0 -0.54463904215088732 0 0.83867056331134215 forward_v I I I I #
face $-1 $112 $113 $40 $-1 $114 forward single #
loop $-1 $115 $116 $52 #
cone-surface $-1 -42.209084057022572 4.2914209540563455 6.5743931114431309 0.54463904215088732 0 -0.83867056331134215 0.83867056331134215 0 0.54463904215088732 1 I I 0 1 1 forward I I I I #
face $-1 $117 $118 $41 $-1 $119 forward single #
loop $-1 $120 $121 $53 #
cone-surface $-1 -42.209084057022572 8.4060470088368682 6.5743931114431309 0.54463904215088732 0 -0.83867056331134215 0.83867056331134215 0 0.54463904215088732 1 I I 0 1 1 forward I I I I #
face $-1 $122 $123 $42 $-1 $124 reversed single #
loop $-1 $-1 $125 $54 #
plane-surface $-1 70.082275278205174 -5.797006756326299 149.3805193960618 0 -1 0 -0.79863551827123203 0 -0.60181501223851219 forward_v I I I I #
face $-1 $126 $127 $43 $-1 $128 forward single #
loop $-1 $129 $130 $55 #
cone-surface $-1 47.856922729693494 -9.2009398554533703 9.967976286980031 -0.79863551827123203 0 -0.60181501223851219 0.60181501223851219 0 -0.79863551827123203 1 I I 0 1 1 forward I I I I #
face $-1 $131 $132 $44 $-1 $133 reversed single #
loop $-1 $-1 $134 $56 #
plane-surface $-1 70.082275278205174 6.8257627865927741 149.3805193960618 0 -1 0 -0.79863551827123203 0 -0.60181501223851219 forward_v I I I I #
face $-1 $135 $136 $45 $-1 $137 forward single #
loop $-1 $138 $139 $57 #
cone-surface $-1 47.856922729693494 3.4218296874657064 9.967976286980031 -0.79863551827123203 0 -0.60181501223851219 0.60181501223851219 0 -0.79863551827123203 1 I I 0 1 1 forward I I I I #
face $-1 $140 $141 $46 $-1 $142 reversed single #
loop $-1 $-1 $143 $58 #
plane-surface $-1 70.082275278205174 19.448532329511849 149.3805193960618 0 -1 0 -0.79863551827123203 0 -0.60181501223851219 forward_v I I I I #
face $-1 $144 $145 $47 $-1 $146 forward single #
loop $-1 $147 $148 $59 #
cone-surface $-1 47.856922729693494 16.04459923038478 9.967976286980031 -0.79863551827123203 0 -0.60181501223851219 0.60181501223851219 0 -0.79863551827123203 1 I I 0 1 1 forward I I I I #
face $-1 $149 $150 $36 $-1 $151 reversed single #
loop $-1 $-1 $152 $60 #
plane-surface $-1 0 0 -12.700143894277357 0 0 1 1 0 0 forward_v I I I I #
coedge $-1 $153 $154 $155 $156 forward $61 $-1 #
face $-1 $157 $158 $37 $-1 $159 reversed single #
loop $-1 $-1 $160 $63 #
plane-surface $-1 0 -14.745862979250676 9.0704848615084366 0 -1 0 0 0 -1 forward_v I I I I #
coedge $-1 $161 $162 $163 $164 reversed $64 $-1 #
face $-1 $165 $166 $38 $-1 $167 reversed single #
loop $-1 $-1 $168 $66 #
plane-surface $-1 0 0 12.700143894277357 0 0 1 1 0 0 forward_v I I I I #
coedge $-1 $169 $170 $171 $172 forward $67 $-1 #
face $-1 $173 $174 $39 $-1 $175 reversed single #
loop $-1 $-1 $176 $69 #
plane-surface $-1 -50.287179174169125 6.3487339814466033 3.4914242100011279 -0.54463904215088732 0 0.83867056331134215 0.83867056331134215 0 0.54463904215088732 forward_v I I I I #
coedge $-1 $177 $178 $179 $180 reversed $70 $-1 #
face $-1 $-1 $181 $40 $-1 $182 forward single #
loop $-1 $183 $184 $72 #
cone-surface $-1 -40.948761688433137 4.2914209540563455 4.6336668890913479 0.54463904215088732 0 -0.83867056331134215 0.41933528165567108 0 0.27231952107544366 1 I I -0.70710678118654746 0.70710678118654746 0.5 forward I I I I #
loop $-1 $-1 $185 $52 #
coedge $-1 $116 $116 $186 $187 reversed $73 $-1 #
face $-1 $-1 $188 $41 $-1 $189 forward single #
loop $-1 $190 $191 $75 #
cone-surface $-1 -40.948761688433137 8.4060470088368682 4.6336668890913479 0.54463904215088732 0 -0.83867056331134215 0.41933528165567108 0 0.27231952107544366 1 I I -0.70710678118654746 0.70710678118654746 0.5 forward I I I I #
loop $-1 $-1 $192 $53 #
coedge $-1 $121 $121 $193 $194 reversed $76 $-1 #
face $-1 $195 $196 $42 $-1 $197 reversed single #
loop $-1 $-1 $198 $78 #
plane-surface $-1 -10.239979526116571 -9.2009398554533668 88.853360695776104 0.79863551827123203 0 0.60181501223851219 0.60181501223851219 0 -0.79863551827123203 forward_v I I I I #
coedge $-1 $199 $200 $201 $202 reversed $79 $-1 #
face $-1 $-1 $203 $43 $-1 $204 forward single #
loop $-1 $205 $206 $81 #
cone-surface $-1 46.598146217451422 -9.2009398554533703 9.0194201749749574 -0.79863551827123203 0 -0.60181501223851219 0.3009075061192561 0 -0.39931775913561601 1 I I -0.70710678118654746 0.70710678118654746 0.5 forward I I I I #
loop $-1 $-1 $207 $55 #
coedge $-1 $130 $130 $208 $209 reversed $82 $-1 #
face $-1 $210 $211 $44 $-1 $212 reversed single #
loop $-1 $-1 $213 $84 #
plane-surface $-1 -10.239979526116571 3.4218296874657064 88.853360695776104 0.79863551827123203 0 0.60181501223851219 0.60181501223851219 0 -0.79863551827123203 forward_v I I I I #
coedge $-1 $214 $215 $216 $217 reversed $85 $-1 #
face $-1 $-1 $218 $45 $-1 $219 forward single #
loop $-1 $220 $221 $87 #
cone-surface $-1 46.598146217451422 3.4218296874657064 9.0194201749749574 -0.79863551827123203 0 -0.60181501223851219 0.3009075061192561 0 -0.39931775913561601 1 I I -0.70710678118654746 0.70710678118654746 0.5 forward I I I I #
loop $-1 $-1 $222 $57 #
coedge $-1 $139 $139 $223 $224 reversed $88 $-1 #
face $-1 $225 $226 $46 $-1 $227 reversed single #
loop $-1 $-1 $228 $90 #
plane-surface $-1 -10.239979526116571 16.04459923038478 88.853360695776104 0.79863551827123203 0 0.60181501223851219 0.60181501223851219 0 -0.79863551827123203 forward_v I I I I #
coedge $-1 $229 $230 $231 $232 reversed $91 $-1 #
face $-1 $-1 $233 $47 $-1 $234 forward single #
loop $-1 $235 $236 $93 #
cone-surface $-1 46.598146217451422 16.04459923038478 9.0194201749749574 -0.79863551827123203 0 -0.60181501223851219 0.3009075061192561 0 -0.39931775913561601 1 I I -0.70710678118654746 0.70710678118654746 0.5 forward I I I I #
loop $-1 $-1 $237 $59 #
coedge $-1 $148 $148 $238 $239 reversed $94 $-1 #
face $-1 $240 $241 $36 $-1 $242 reversed single #
loop $-1 $-1 $243 $96 #
plane-surface $-1 0 -31.439961241427763 0 0 1 0 0 0 1 forward_v I I I I #
coedge $-1 $244 $245 $246 $247 forward $97 $-1 #
coedge $-1 $248 $99 $249 $250 forward $61 $-1 #
coedge $-1 $99 $248 $251 $252 forward $61 $-1 #
coedge $-1 $253 $254 $99 $156 reversed $255 $-1 #
edge $-1 $256 -31.439961241427763 $257 31.439961241427763 $155 $258 forward 7 unknown #
face $-1 $259 $260 $37 $-1 $261 reversed single #
loop $-1 $-1 $262 $100 #
plane-surface $-1 -50.287179174169133 0 0 1 0 0 0 0 -1 forward_v I I I I #
coedge $-1 $263 $264 $265 $266 reversed $101 $-1 #
coedge $-1 $267 $103 $268 $269 reversed $64 $-1 #
coedge $-1 $103 $267 $263 $270 forward $64 $-1 #
coedge $-1 $265 $271 $103 $164 forward $272 $-1 #
edge $-1 $273 -19.893505186258157 $274 -3.1994069240810656 $163 $275 forward 7 unknown #
face $-1 $276 $277 $38 $-1 $278 reversed single #
loop $-1 $-1 $279 $104 #
plane-surface $-1 50.287179174169133 0 0 -1 0 0 0 0 1 forward_v I I I I #
coedge $-1 $280 $281 $282 $283 forward $105 $-1 #
coedge $-1 $282 $107 $279 $284 reversed $67 $-1 #
coedge $-1 $107 $282 $285 $286 reversed $67 $-1 #
coedge $-1 $287 $288 $107 $172 reversed $277 $-1 #
edge $-1 $289 -50.287179174169133 $290 50.287179174169133 $171 $291 forward 7 unknown #
face $-1 $292 $293 $39 $-1 $294 reversed single #
loop $-1 $-1 $295 $108 #
plane-surface $-1 -105.06390136994818 11.149131045357215 87.840177980678774 0 -1 0 0.54463904215088732 0 -0.83867056331134215 forward_v I I I I #
coedge $-1 $296 $297 $298 $299 reversed $109 $-1 #
coedge $-1 $178 $111 $300 $301 reversed $70 $-1 #
coedge $-1 $111 $177 $296 $302 reversed $70 $-1 #
coedge $-1 $298 $303 $111 $180 forward $304 $-1 #
edge $-1 $305 2.2447715108049593 $306 16.424956050070108 $179 $307 forward 7 unknown #
loop $-1 $-1 $186 $112 #
plane-surface $-1 -50.287179174169125 6.3487339814466033 3.4914242100011279 -0.54463904215088732 0 0.83867056331134215 0.83867056331134215 0 0.54463904215088732 forward_v I I I I #
loop $-1 $-1 $308 $72 #
coedge $-1 $184 $184 $185 $309 reversed $113 $-1 #
coedge $-1 $185 $185 $184 $309 forward $115 $-1 #
coedge $-1 $186 $186 $116 $187 forward $181 $-1 #
edge $-1 $310 0 $310 6.2831853071796004 $186 $311 forward 7 unknown #
loop $-1 $-1 $193 $117 #
plane-surface $-1 -50.287179174169125 6.3487339814466033 3.4914242100011279 -0.54463904215088732 0 0.83867056331134215 0.83867056331134215 0 0.54463904215088732 forward_v I I I I #
loop $-1 $-1 $312 $75 #
coedge $-1 $191 $191 $192 $313 reversed $118 $-1 #
coedge $-1 $192 $192 $191 $313 forward $120 $-1 #
coedge $-1 $193 $193 $121 $194 forward $188 $-1 #
edge $-1 $314 0 $314 6.2831853071796004 $193 $315 forward 7 unknown #
face $-1 $316 $317 $42 $-1 $318 forward single #
loop $-1 $-1 $319 $122 #
plane-surface $-1 70.082275278205174 -12.604872954580435 149.3805193960618 0 1 0 0.79863551827123203 0 0.60181501223851219 forward_v I I I I #
coedge $-1 $320 $321 $322 $323 reversed $123 $-1 #
coedge $-1 $200 $125 $324 $325 reversed $79 $-1 #
coedge $-1 $125 $199 $320 $326 reversed $79 $-1 #
coedge $-1 $322 $327 $125 $202 forward $317 $-1 #
edge $-1 $328 -15.246041535066546 $329 -12.104446152328208 $201 $330 forward 7 unknown #
loop $-1 $-1 $208 $126 #
plane-surface $-1 -10.239979526116571 -9.2009398554533668 88.853360695776104 0.79863551827123203 0 0.60181501223851219 0.60181501223851219 0 -0.79863551827123203 forward_v I I I I #
loop $-1 $-1 $331 $81 #
coedge $-1 $206 $206 $207 $332 reversed $127 $-1 #
coedge $-1 $207 $207 $206 $332 forward $129 $-1 #
coedge $-1 $208 $208 $130 $209 forward $203 $-1 #
edge $-1 $333 0 $333 6.2831853071796004 $208 $334 forward 7 unknown #
face $-1 $335 $336 $44 $-1 $337 reversed single #
loop $-1 $-1 $338 $131 #
plane-surface $-1 70.082275278205174 0.017896588338638608 149.3805193960618 0 1 0 0.79863551827123203 0 0.60181501223851219 forward_v I I I I #
coedge $-1 $339 $340 $341 $342 reversed $132 $-1 #
coedge $-1 $215 $134 $343 $344 reversed $85 $-1 #
coedge $-1 $134 $214 $339 $345 reversed $85 $-1 #
coedge $-1 $341 $346 $134 $217 forward $347 $-1 #
edge $-1 $348 -15.246041535066546 $349 -12.104446152328208 $216 $350 forward 7 unknown #
loop $-1 $-1 $223 $135 #
plane-surface $-1 -10.239979526116571 3.4218296874657064 88.853360695776104 0.79863551827123203 0 0.60181501223851219 0.60181501223851219 0 -0.79863551827123203 forward_v I I I I #
loop $-1 $-1 $351 $87 #
coedge $-1 $221 $221 $222 $352 reversed $136 $-1 #
coedge $-1 $222 $222 $221 $352 forward $138 $-1 #
coedge $-1 $223 $223 $139 $224 forward $218 $-1 #
edge $-1 $353 0 $353 6.2831853071796004 $223 $354 forward 7 unknown #
face $-1 $355 $356 $46 $-1 $357 reversed single #
loop $-1 $-1 $358 $140 #
plane-surface $-1 70.082275278205174 12.640666131257712 149.3805193960618 0 1 0 0.79863551827123203 0 0.60181501223851219 forward_v I I I I #
coedge $-1 $359 $360 $361 $362 reversed $141 $-1 #
coedge $-1 $230 $143 $363 $364 reversed $91 $-1 #
coedge $-1 $143 $229 $359 $365 reversed $91 $-1 #
coedge $-1 $361 $366 $143 $232 forward $367 $-1 #
edge $-1 $368 -15.246041535066546 $369 -12.104446152328208 $231 $370 forward 7 unknown #
loop $-1 $-1 $238 $144 #
plane-surface $-1 -10.239979526116571 16.04459923038478 88.853360695776104 0.79863551827123203 0 0.60181501223851219 0.60181501223851219 0 -0.79863551827123203 forward_v I I I I #
loop $-1 $-1 $371 $93 #
coedge $-1 $236 $236 $237 $372 reversed $145 $-1 #
coedge $-1 $237 $237 $236 $372 forward $147 $-1 #
coedge $-1 $238 $238 $148 $239 forward $233 $-1 #
edge $-1 $373 0 $373 6.2831853071796004 $238 $374 forward 7 unknown #
face $-1 $375 $376 $36 $-1 $377 reversed single #
loop $-1 $-1 $378 $149 #
plane-surface $-1 -50.287179174169133 0 0 1 0 0 0 0 -1 forward_v I I I I #
coedge $-1 $379 $251 $380 $381 forward $150 $-1 #
coedge $-1 $382 $152 $379 $383 forward $97 $-1 #
coedge $-1 $152 $382 $384 $385 forward $97 $-1 #
coedge $-1 $254 $253 $152 $247 reversed $255 $-1 #
edge $-1 $386 -31.439961241427763 $387 31.439961241427763 $246 $388 forward 7 unknown #
coedge $-1 $154 $153 $389 $390 forward $61 $-1 #
coedge $-1 $391 $392 $153 $250 reversed $376 $-1 #
edge $-1 $257 -50.287179174169133 $393 50.287179174169133 $249 $394 forward 7 unknown #
coedge $-1 $243 $395 $154 $252 reversed $150 $-1 #
edge $-1 $396 -50.287179174169133 $256 50.287179174169133 $251 $397 forward 7 unknown #
coedge $-1 $246 $155 $395 $398 forward $255 $-1 #
coedge $-1 $155 $246 $391 $399 reversed $255 $-1 #
loop $-1 $-1 $253 $375 #
vertex $-1 $156 $400 #
vertex $-1 $156 $401 #
straight-curve $-1 50.287179174169133 0 12.700143894277357 0 1 0 I I #
face $-1 $402 $403 $37 $-1 $404 forward single #
loop $-1 $-1 $268 $157 #
plane-surface $-1 0 -31.439961241427763 0 0 1 0 0 0 1 forward_v I I I I #
coedge $-1 $405 $406 $407 $408 forward $158 $-1 #
coedge $-1 $407 $160 $162 $270 reversed $101 $-1 #
coedge $-1 $160 $407 $409 $410 reversed $101 $-1 #
coedge $-1 $411 $163 $160 $266 forward $272 $-1 #
edge $-1 $274 0.90558339798529808 $412 8.1649014635231385 $265 $413 forward 7 unknown #
coedge $-1 $162 $161 $405 $414 reversed $64 $-1 #
coedge $-1 $415 $416 $161 $269 forward $260 $-1 #
edge $-1 $417 -50.287179174169133 $273 50.287179174169133 $268 $418 forward 7 unknown #
edge $-1 $419 -50.287179174169133 $274 50.287179174169133 $263 $420 forward 7 unknown #
coedge $-1 $163 $411 $415 $421 forward $272 $-1 #
loop $-1 $-1 $265 $402 #
vertex $-1 $269 $422 #
vertex $-1 $164 $423 #
straight-curve $-1 50.287179174169133 -11.54645605516961 5.4408258287395164 0 1 0 I I #
face $-1 $424 $425 $38 $-1 $426 reversed single #
loop $-1 $-1 $288 $165 #
plane-surface $-1 0 36.365180685050603 6.0101172302079053 0 0 1 1 0 0 forward_v I I I I #
coedge $-1 $427 $428 $169 $284 forward $166 $-1 #
coedge $-1 $429 $168 $428 $430 forward $105 $-1 #
coedge $-1 $168 $429 $431 $432 forward $105 $-1 #
coedge $-1 $170 $169 $168 $283 reversed $67 $-1 #
edge $-1 $433 -50.287179174169133 $434 50.287179174169133 $168 $435 forward 7 unknown #
edge $-1 $434 -12.700143894277357 $290 -6.0101172302079053 $279 $436 forward 7 unknown #
coedge $-1 $431 $437 $170 $286 forward $438 $-1 #
edge $-1 $289 6.0101172302079053 $433 12.700143894277357 $285 $439 forward 7 unknown #
coedge $-1 $440 $171 $437 $441 forward $277 $-1 #
coedge $-1 $171 $440 $427 $442 forward $277 $-1 #
vertex $-1 $286 $443 #
vertex $-1 $284 $444 #
straight-curve $-1 0 31.439961241427763 6.0101172302079053 1 0 0 I I #
face $-1 $-1 $304 $39 $-1 $445 forward single #
loop $-1 $-1 $446 $173 #
plane-surface $-1 -50.287179174169133 0 0 1 0 0 0 0 -1 forward_v I I I I #
coedge $-1 $447 $448 $449 $450 reversed $174 $-1 #
coedge $-1 $451 $176 $178 $302 forward $109 $-1 #
coedge $-1 $176 $451 $447 $452 forward $109 $-1 #
coedge $-1 $449 $179 $176 $299 forward $304 $-1 #
edge $-1 $306 -1.6260300731873105 $453 7.9747640546339138 $298 $454 forward 7 unknown #
coedge $-1 $455 $456 $177 $301 forward $293 $-1 #
edge $-1 $457 -40.428664780338266 $305 -31.21994509606203 $300 $458 forward 7 unknown #
edge $-1 $306 -16.907931623684508 $457 8.3777959833898778e-015 $178 $459 forward 7 unknown #
coedge $-1 $179 $449 $455 $460 forward $304 $-1 #
loop $-1 $-1 $449 $292 #
vertex $-1 $301 $461 #
vertex $-1 $180 $462 #
straight-curve $-1 -52.531950684974092 1.5483369175359911 12.70014389427736 1 0 0 I I #
coedge $-1 $308 $308 $-1 $463 reversed $183 $-1 #
edge $-1 $464 0 $464 6.2831853071796004 $184 $465 forward 7 unknown #
vertex $-1 $187 $466 #
ellipse-curve $-1 -43.197086904536562 4.2914209540563455 8.0957840521392388 -0.54463904215088732 0 0.83867056331134215 0.83867056331134215 0 0.54463904215088732 1 I I #
coedge $-1 $312 $312 $-1 $467 reversed $190 $-1 #
edge $-1 $468 0 $468 6.2831853071796004 $191 $469 forward 7 unknown #
vertex $-1 $194 $470 #
ellipse-curve $-1 -43.197086904536562 8.4060470088368682 8.0957840521392388 -0.54463904215088732 0 0.83867056331134215 0.83867056331134215 0 0.54463904215088732 1 I I #
face $-1 $-1 $471 $42 $-1 $472 reversed single #
loop $-1 $-1 $201 $195 #
plane-surface $-1 0 0 12.700143894277357 0 0 1 1 0 0 forward_v I I I I #
coedge $-1 $473 $474 $475 $476 reversed $196 $-1 #
coedge $-1 $477 $198 $200 $326 forward $123 $-1 #
coedge $-1 $198 $477 $473 $478 forward $123 $-1 #
coedge $-1 $475 $201 $198 $323 forward $317 $-1 #
edge $-1 $329 1.1965368285996156 $479 8.0044030268537512 $322 $480 forward 7 unknown #
coedge $-1 $481 $482 $199 $325 forward $471 $-1 #
edge $-1 $483 -66.159153806576541 $328 -61.99011580375354 $324 $484 forward 7 unknown #
edge $-1 $329 95.354157258550117 $483 100.57435834833825 $200 $485 forward 7 unknown #
coedge $-1 $201 $475 $481 $486 forward $317 $-1 #
vertex $-1 $325 $487 #
vertex $-1 $202 $488 #
straight-curve $-1 35.041137639102587 -5.797006756326299 12.70014389427736 -1 0 0 I I #
coedge $-1 $331 $331 $-1 $489 reversed $205 $-1 #
edge $-1 $490 0 $490 6.2831853071796004 $206 $491 forward 7 unknown #
vertex $-1 $209 $492 #
ellipse-curve $-1 48.716381482799967 -9.2009398554533703 10.615624892865858 0.79863551827123203 0 0.60181501223851219 0.60181501223851219 0 -0.79863551827123203 1 I I #
face $-1 $-1 $347 $44 $-1 $493 forward single #
loop $-1 $-1 $494 $210 #
plane-surface $-1 50.287179174169133 0 0 -1 0 0 0 0 1 forward_v I I I I #
coedge $-1 $495 $496 $497 $498 reversed $211 $-1 #
coedge $-1 $499 $213 $215 $345 forward $132 $-1 #
coedge $-1 $213 $499 $495 $500 forward $132 $-1 #
coedge $-1 $497 $216 $213 $342 forward $347 $-1 #
edge $-1 $349 -5.1148479428599209 $501 1.6930182553942146 $341 $502 forward 7 unknown #
coedge $-1 $503 $504 $214 $344 forward $336 $-1 #
edge $-1 $505 -66.159153806576541 $348 -61.99011580375354 $343 $506 forward 7 unknown #
edge $-1 $349 95.354157258550117 $505 100.57435834833825 $215 $507 forward 7 unknown #
coedge $-1 $216 $497 $503 $508 forward $347 $-1 #
loop $-1 $-1 $497 $335 #
vertex $-1 $344 $509 #
vertex $-1 $217 $510 #
straight-curve $-1 35.041137639102587 6.8257627865927741 12.70014389427736 -1 0 0 I I #
coedge $-1 $351 $351 $-1 $511 reversed $220 $-1 #
edge $-1 $512 0 $512 6.2831853071796004 $221 $513 forward 7 unknown #
vertex $-1 $224 $514 #
ellipse-curve $-1 48.716381482799967 3.4218296874657064 10.615624892865858 0.79863551827123203 0 0.60181501223851219 0.60181501223851219 0 -0.79863551827123203 1 I I #
face $-1 $-1 $367 $46 $-1 $515 forward single #
loop $-1 $-1 $516 $225 #
plane-surface $-1 50.287179174169133 0 0 -1 0 0 0 0 1 forward_v I I I I #
coedge $-1 $517 $518 $519 $520 reversed $226 $-1 #
coedge $-1 $521 $228 $230 $365 forward $141 $-1 #
coedge $-1 $228 $521 $517 $522 forward $141 $-1 #
coedge $-1 $519 $231 $228 $362 forward $367 $-1 #
edge $-1 $369 -11.426232714319459 $523 -4.618366516065322 $361 $524 forward 7 unknown #
coedge $-1 $525 $526 $229 $364 forward $356 $-1 #
edge $-1 $527 -66.159153806576541 $368 -61.99011580375354 $363 $528 forward 7 unknown #
edge $-1 $369 95.354157258550117 $527 100.57435834833825 $230 $529 forward 7 unknown #
coedge $-1 $231 $519 $525 $530 forward $367 $-1 #
loop $-1 $-1 $519 $355 #
vertex $-1 $364 $531 #
vertex $-1 $232 $532 #
straight-curve $-1 35.041137639102587 19.448532329511849 12.70014389427736 -1 0 0 I I #
coedge $-1 $371 $371 $-1 $533 reversed $235 $-1 #
edge $-1 $534 0 $534 6.2831853071796004 $236 $535 forward 7 unknown #
vertex $-1 $239 $536 #
ellipse-curve $-1 48.716381482799967 16.04459923038478 10.615624892865858 0.79863551827123203 0 0.60181501223851219 0.60181501223851219 0 -0.79863551827123203 1 I I #
face $-1 $-1 $255 $36 $-1 $537 reversed single #
loop $-1 $-1 $391 $240 #
plane-surface $-1 0 31.439961241427763 0 0 -1 0 0 0 -1 forward_v I I I I #
coedge $-1 $538 $389 $392 $539 forward $241 $-1 #
coedge $-1 $395 $243 $244 $383 reversed $150 $-1 #
coedge $-1 $389 $538 $243 $381 reversed $241 $-1 #
edge $-1 $396 -12.700143894277357 $540 12.700143894277357 $380 $541 forward 7 unknown #
coedge $-1 $245 $244 $538 $542 forward $97 $-1 #
edge $-1 $387 -50.287179174169133 $540 50.287179174169133 $379 $543 forward 7 unknown #
coedge $-1 $392 $391 $245 $385 reversed $376 $-1 #
edge $-1 $544 -50.287179174169133 $386 50.287179174169133 $384 $545 forward 7 unknown #
vertex $-1 $247 $546 #
vertex $-1 $398 $547 #
straight-curve $-1 50.287179174169133 0 -12.700143894277357 0 -1 0 I I #
coedge $-1 $378 $380 $248 $390 reversed $241 $-1 #
edge $-1 $393 -31.439961241427763 $396 31.439961241427763 $389 $548 forward 7 unknown #
coedge $-1 $384 $249 $254 $399 forward $376 $-1 #
coedge $-1 $249 $384 $378 $539 reversed $376 $-1 #
vertex $-1 $250 $549 #
straight-curve $-1 0 31.439961241427763 12.700143894277357 -1 0 0 I I #
coedge $-1 $251 $379 $253 $398 reversed $150 $-1 #
vertex $-1 $390 $550 #
straight-curve $-1 0 -31.439961241427763 12.700143894277357 1 0 0 I I #
edge $-1 $256 -12.700143894277357 $387 12.700143894277357 $253 $551 forward 7 unknown #
edge $-1 $257 -12.700143894277357 $386 12.700143894277357 $254 $552 forward 7 unknown #
point $-1 50.287179174169133 -31.439961241427763 12.700143894277357 #
point $-1 50.287179174169133 31.439961241427763 12.700143894277357 #
face $-1 $-1 $272 $37 $-1 $553 reversed single #
loop $-1 $-1 $409 $259 #
plane-surface $-1 0 0 12.700143894277357 0 0 1 1 0 0 forward_v I I I I #
coedge $-1 $554 $262 $267 $414 forward $158 $-1 #
coedge $-1 $262 $554 $555 $556 reversed $158 $-1 #
coedge $-1 $264 $263 $262 $408 reversed $101 $-1 #
edge $-1 $557 -8.1649014635231385 $419 -0.90558339798529808 $262 $558 forward 7 unknown #
coedge $-1 $555 $559 $264 $410 forward $403 $-1 #
edge $-1 $412 -50.287179174169133 $557 50.287179174169133 $409 $560 forward 7 unknown #
coedge $-1 $271 $265 $559 $561 reversed $272 $-1 #
vertex $-1 $266 $562 #
straight-curve $-1 50.287179174169133 -14.745862979250676 4.5352424307542183 0 0 1 I I #
edge $-1 $419 3.1994069240810656 $417 19.893505186258157 $405 $563 forward 7 unknown #
coedge $-1 $564 $268 $271 $421 reversed $260 $-1 #
coedge $-1 $268 $564 $554 $565 forward $260 $-1 #
vertex $-1 $269 $566 #
straight-curve $-1 0 -31.439961241427763 5.4408258287395164 1 0 0 I I #
vertex $-1 $414 $567 #
straight-curve $-1 0 -14.745862979250676 5.4408258287395164 1 0 0 I I #
edge $-1 $568 -12.700143894277357 $273 -5.4408258287395164 $271 $569 forward 7 unknown #
point $-1 50.287179174169133 -31.439961241427767 5.4408258287395164 #
point $-1 50.287179174169133 -14.745862979250676 5.4408258287395164 #
face $-1 $-1 $438 $38 $-1 $570 reversed single #
loop $-1 $-1 $571 $276 #
plane-surface $-1 0 41.29040012867344 9.355130562242632 0 -1 0 0 0 -1 forward_v I I I I #
coedge $-1 $572 $279 $288 $442 reversed $166 $-1 #
coedge $-1 $279 $572 $280 $430 reversed $166 $-1 #
coedge $-1 $281 $280 $573 $574 forward $105 $-1 #
edge $-1 $434 31.439961241427763 $575 41.29040012867344 $428 $576 forward 7 unknown #
coedge $-1 $577 $285 $281 $432 reversed $438 $-1 #
edge $-1 $578 -41.29040012867344 $433 -31.439961241427763 $431 $579 forward 7 unknown #
vertex $-1 $286 $580 #
vertex $-1 $430 $581 #
straight-curve $-1 0 31.439961241427763 12.700143894277357 1 0 0 I I #
straight-curve $-1 50.287179174169133 31.439961241427763 0 0 0 -1 I I #
coedge $-1 $285 $577 $287 $441 reversed $438 $-1 #
loop $-1 $-1 $285 $424 #
straight-curve $-1 -50.287179174169133 31.439961241427763 0 0 0 1 I I #
coedge $-1 $288 $287 $582 $583 forward $277 $-1 #
edge $-1 $289 -4.92521944362284 $584 4.9252194436228365 $437 $585 forward 7 unknown #
edge $-1 $586 -4.9252194436228365 $290 4.92521944362284 $427 $587 forward 7 unknown #
point $-1 -50.287179174169133 31.439961241427763 6.0101172302079053 #
point $-1 50.287179174169133 31.439961241427763 6.0101172302079053 #
plane-surface $-1 0 0 12.700143894277357 0 0 1 1 0 0 forward_v I I I I #
coedge $-1 $456 $455 $448 $588 forward $293 $-1 #
coedge $-1 $448 $295 $297 $452 reversed $174 $-1 #
coedge $-1 $295 $447 $446 $588 reversed $174 $-1 #
coedge $-1 $303 $298 $295 $450 forward $304 $-1 #
edge $-1 $453 -16.424956050070108 $589 -2.2447715108049593 $449 $590 forward 7 unknown #
coedge $-1 $297 $296 $456 $591 reversed $109 $-1 #
edge $-1 $592 -8.3777959833898778e-015 $453 16.907931623684508 $447 $593 forward 7 unknown #
vertex $-1 $299 $594 #
straight-curve $-1 -36.106994634903984 3.1743669907233016 12.700143894277357 0 1 0 I I #
coedge $-1 $446 $300 $303 $460 reversed $293 $-1 #
coedge $-1 $300 $446 $451 $591 forward $293 $-1 #
vertex $-1 $301 $595 #
straight-curve $-1 -50.287179174169133 1.5483369175359911 43.920088990339387 0 0 1 I I #
straight-curve $-1 -50.287179174169125 1.5483369175359911 3.4914242100011279 -0.83867056331134215 0 -0.54463904215088732 I I #
edge $-1 $589 -11.149131045357215 $305 -1.5483369175359911 $455 $596 forward 7 unknown #
point $-1 -50.287179174169133 1.5483369175359911 12.700143894277357 #
point $-1 -36.106994634903984 1.5483369175359911 12.700143894277357 #
edge $-1 $597 1 $597 0 $308 $-1 forward 7 unknown #
vertex $-1 $309 $598 #
ellipse-curve $-1 -41.221081209508583 4.2914209540563455 5.0530021707470194 -0.54463904215088732 0 0.83867056331134215 0.83867056331134215 0 0.54463904215088732 1 I I #
point $-1 -42.358416341225215 4.2914209540563455 8.6404230942901297 #
edge $-1 $599 1 $599 0 $312 $-1 forward 7 unknown #
vertex $-1 $313 $600 #
ellipse-curve $-1 -41.221081209508583 8.4060470088368682 5.0530021707470194 -0.54463904215088732 0 0.83867056331134215 0.83867056331134215 0 0.54463904215088732 1 I I #
point $-1 -42.358416341225215 8.4060470088368682 8.6404230942901297 #
loop $-1 $-1 $324 $316 #
plane-surface $-1 50.287179174169133 0 0 -1 0 0 0 0 1 forward_v I I I I #
coedge $-1 $474 $319 $321 $478 reversed $196 $-1 #
coedge $-1 $319 $473 $601 $602 reversed $196 $-1 #
coedge $-1 $327 $322 $319 $476 forward $317 $-1 #
edge $-1 $479 12.104446152328208 $603 15.246041535066546 $475 $604 forward 7 unknown #
coedge $-1 $321 $320 $482 $605 reversed $123 $-1 #
edge $-1 $606 -100.57435834833825 $479 -95.354157258550117 $473 $607 forward 7 unknown #
vertex $-1 $323 $608 #
straight-curve $-1 47.145583791430788 -4.6004699277266834 12.70014389427736 0 -1 0 I I #
coedge $-1 $601 $324 $327 $486 reversed $471 $-1 #
coedge $-1 $324 $601 $477 $605 forward $471 $-1 #
vertex $-1 $325 $609 #
straight-curve $-1 50.287179174169133 -5.797006756326299 74.6902596980309 0 0 1 I I #
straight-curve $-1 -10.239979526116571 -5.797006756326299 88.853360695776104 0.60181501223851219 0 -0.79863551827123203 I I #
edge $-1 $603 -12.604872954580435 $328 -5.797006756326299 $481 $610 forward 7 unknown #
point $-1 50.287179174169133 -5.797006756326299 12.700143894277357 #
point $-1 47.145583791430795 -5.797006756326299 12.70014389427736 #
edge $-1 $611 1 $611 0 $331 $-1 forward 7 unknown #
vertex $-1 $332 $612 #
ellipse-curve $-1 46.997463976587035 -9.2009398554533703 9.3203276810942128 0.79863551827123203 0 0.60181501223851219 0.60181501223851219 0 -0.79863551827123203 1 I I #
point $-1 49.318196495038464 -9.2009398554533703 9.8169893745946144 #
plane-surface $-1 0 0 12.700143894277357 0 0 1 1 0 0 forward_v I I I I #
coedge $-1 $504 $503 $496 $613 forward $336 $-1 #
coedge $-1 $496 $338 $340 $500 reversed $211 $-1 #
coedge $-1 $338 $495 $494 $613 reversed $211 $-1 #
coedge $-1 $346 $341 $338 $498 forward $347 $-1 #
edge $-1 $501 12.104446152328208 $614 15.246041535066546 $497 $615 forward 7 unknown #
coedge $-1 $340 $339 $504 $616 reversed $132 $-1 #
edge $-1 $617 -100.57435834833825 $501 -95.354157258550117 $495 $618 forward 7 unknown #
vertex $-1 $342 $619 #
straight-curve $-1 47.145583791430788 1.7109148437328532 12.70014389427736 0 -1 0 I I #
coedge $-1 $494 $343 $346 $508 reversed $336 $-1 #
coedge $-1 $343 $494 $499 $616 forward $336 $-1 #
vertex $-1 $344 $620 #
straight-curve $-1 50.287179174169133 6.8257627865927741 74.6902596980309 0 0 1 I I #
straight-curve $-1 -10.239979526116571 6.8257627865927741 88.853360695776104 0.60181501223851219 0 -0.79863551827123203 I I #
edge $-1 $614 0.017896588338638608 $348 6.8257627865927741 $503 $621 forward 7 unknown #
point $-1 50.287179174169133 6.8257627865927741 12.700143894277357 #
point $-1 47.145583791430795 6.8257627865927741 12.70014389427736 #
edge $-1 $622 1 $622 0 $351 $-1 forward 7 unknown #
vertex $-1 $352 $623 #
ellipse-curve $-1 46.997463976587035 3.4218296874657064 9.3203276810942128 0.79863551827123203 0 0.60181501223851219 0.60181501223851219 0 -0.79863551827123203 1 I I #
point $-1 49.318196495038464 3.4218296874657064 9.8169893745946144 #
plane-surface $-1 0 0 12.700143894277357 0 0 1 1 0 0 forward_v I I I I #
coedge $-1 $526 $525 $518 $624 forward $356 $-1 #
coedge $-1 $518 $358 $360 $522 reversed $226 $-1 #
coedge $-1 $358 $517 $516 $624 reversed $226 $-1 #
coedge $-1 $366 $361 $358 $520 forward $367 $-1 #
edge $-1 $523 12.104446152328208 $625 15.246041535066546 $519 $626 forward 7 unknown #
coedge $-1 $360 $359 $526 $627 reversed $141 $-1 #
edge $-1 $628 -100.57435834833825 $523 -95.354157258550117 $517 $629 forward 7 unknown #
vertex $-1 $362 $630 #
straight-curve $-1 47.145583791430788 8.0222996151923898 12.70014389427736 0 -1 0 I I #
coedge $-1 $516 $363 $366 $530 reversed $356 $-1 #
coedge $-1 $363 $516 $521 $627 forward $356 $-1 #
vertex $-1 $364 $631 #
straight-curve $-1 50.287179174169133 19.448532329511849 74.6902596980309 0 0 1 I I #
straight-curve $-1 -10.239979526116571 19.448532329511849 88.853360695776104 0.60181501223851219 0 -0.79863551827123203 I I #
edge $-1 $625 12.640666131257712 $368 19.448532329511849 $525 $632 forward 7 unknown #
point $-1 50.287179174169133 19.448532329511849 12.700143894277357 #
point $-1 47.145583791430795 19.448532329511849 12.70014389427736 #
edge $-1 $633 1 $633 0 $371 $-1 forward 7 unknown #
vertex $-1 $372 $634 #
ellipse-curve $-1 46.997463976587035 16.04459923038478 9.3203276810942128 0.79863551827123203 0 0.60181501223851219 0.60181501223851219 0 -0.79863551827123203 1 I I #
point $-1 49.318196495038464 16.04459923038478 9.8169893745946144 #
plane-surface $-1 50.287179174169133 0 0 -1 0 0 0 0 1 forward_v I I I I #
coedge $-1 $380 $378 $382 $542 reversed $241 $-1 #
edge $-1 $393 -12.700143894277357 $544 12.700143894277357 $392 $635 forward 7 unknown #
vertex $-1 $542 $636 #
straight-curve $-1 -50.287179174169133 -31.439961241427763 0 0 0 -1 I I #
edge $-1 $540 -31.439961241427763 $544 31.439961241427763 $538 $637 forward 7 unknown #
straight-curve $-1 0 -31.439961241427763 -12.700143894277357 -1 0 0 I I #
vertex $-1 $385 $638 #
straight-curve $-1 0 31.439961241427763 -12.700143894277357 1 0 0 I I #
point $-1 50.287179174169133 31.439961241427763 -12.700143894277357 #
point $-1 50.287179174169133 -31.439961241427763 -12.700143894277357 #
straight-curve $-1 -50.287179174169133 0 12.700143894277357 0 -1 0 I I #
point $-1 -50.287179174169133 31.439961241427763 12.700143894277357 #
point $-1 -50.287179174169133 -31.439961241427763 12.700143894277357 #
straight-curve $-1 50.287179174169133 -31.439961241427763 0 0 0 -1 I I #
straight-curve $-1 50.287179174169133 31.439961241427763 0 0 0 -1 I I #
plane-surface $-1 50.287179174169133 0 0 -1 0 0 0 0 1 forward_v I I I I #
coedge $-1 $406 $405 $416 $565 reversed $158 $-1 #
coedge $-1 $639 $409 $406 $556 forward $403 $-1 #
edge $-1 $557 14.745862979250676 $640 31.439961241427763 $406 $641 forward 7 unknown #
vertex $-1 $556 $642 #
straight-curve $-1 -50.287179174169133 -14.745862979250676 4.5352424307542183 0 0 -1 I I #
coedge $-1 $409 $639 $411 $561 forward $403 $-1 #
straight-curve $-1 0 -14.745862979250676 12.700143894277357 -1 0 0 I I #
edge $-1 $568 -31.439961241427763 $412 -14.745862979250676 $411 $643 forward 7 unknown #
point $-1 50.287179174169133 -14.745862979250676 12.700143894277357 #
straight-curve $-1 -50.287179174169133 -11.54645605516961 5.4408258287395164 0 -1 0 I I #
coedge $-1 $416 $415 $639 $644 reversed $260 $-1 #
edge $-1 $640 -12.700143894277357 $417 -5.4408258287395164 $554 $645 forward 7 unknown #
point $-1 -50.287179174169133 -31.439961241427767 5.4408258287395164 #
point $-1 -50.287179174169133 -14.745862979250676 5.4408258287395164 #
vertex $-1 $561 $646 #
straight-curve $-1 50.287179174169133 -31.439961241427763 0 0 0 -1 I I #
plane-surface $-1 -50.287179174169133 0 0 1 0 0 0 0 -1 forward_v I I I I #
coedge $-1 $582 $573 $572 $647 forward $425 $-1 #
coedge $-1 $428 $427 $571 $647 reversed $166 $-1 #
coedge $-1 $571 $648 $429 $574 reversed $425 $-1 #
edge $-1 $575 -50.287179174169133 $578 50.287179174169133 $573 $649 forward 7 unknown #
vertex $-1 $430 $650 #
straight-curve $-1 50.287179174169133 0 12.700143894277357 0 1 0 I I #
coedge $-1 $437 $431 $648 $651 forward $438 $-1 #
vertex $-1 $574 $652 #
straight-curve $-1 -50.287179174169133 0 12.700143894277357 0 -1 0 I I #
point $-1 -50.287179174169133 31.439961241427763 12.700143894277357 #
point $-1 50.287179174169133 31.439961241427763 12.700143894277357 #
coedge $-1 $648 $571 $440 $583 reversed $425 $-1 #
edge $-1 $584 -50.287179174169133 $586 50.287179174169133 $582 $653 forward 7 unknown #
vertex $-1 $583 $654 #
straight-curve $-1 -50.287179174169133 36.365180685050603 6.0101172302079053 0 1 0 I I #
vertex $-1 $442 $655 #
straight-curve $-1 50.287179174169133 36.365180685050603 6.0101172302079053 0 -1 0 I I #
edge $-1 $589 31.21994509606203 $592 40.428664780338266 $446 $656 forward 7 unknown #
vertex $-1 $460 $657 #
straight-curve $-1 -52.531950684974092 11.149131045357215 12.70014389427736 -1 0 0 I I #
edge $-1 $592 -7.9747640546339138 $457 1.6260300731873105 $456 $658 forward 7 unknown #
vertex $-1 $591 $659 #
straight-curve $-1 -50.287179174169125 11.149131045357215 3.4914242100011279 0.83867056331134215 0 0.54463904215088732 I I #
point $-1 -36.106994634903984 11.149131045357215 12.700143894277357 #
point $-1 -50.287179174169133 1.5483369175359911 3.4914242100011235 #
straight-curve $-1 -50.287179174169133 0 12.700143894277357 0 -1 0 I I #
vertex $-1 $463 $660 #
point $-1 -40.382410646197236 4.2914209540563455 5.5976412128979067 #
vertex $-1 $467 $661 #
point $-1 -40.382410646197236 8.4060470088368682 5.5976412128979067 #
coedge $-1 $482 $481 $474 $602 forward $471 $-1 #
edge $-1 $603 61.99011580375354 $606 66.159153806576541 $601 $662 forward 7 unknown #
vertex $-1 $486 $663 #
straight-curve $-1 35.041137639102587 -12.604872954580435 12.70014389427736 1 0 0 I I #
edge $-1 $606 -8.0044030268537512 $483 -1.1965368285996156 $482 $664 forward 7 unknown #
vertex $-1 $605 $665 #
straight-curve $-1 -10.239979526116571 -12.604872954580435 88.853360695776104 -0.60181501223851219 0 0.79863551827123203 I I #
point $-1 47.145583791430795 -12.604872954580435 12.70014389427736 #
point $-1 50.287179174169133 -5.797006756326299 8.5311058914543594 #
straight-curve $-1 50.287179174169133 0 12.700143894277357 0 1 0 I I #
vertex $-1 $489 $666 #
point $-1 47.599278988825553 -9.2009398554533703 8.5216921628229816 #
edge $-1 $614 61.99011580375354 $617 66.159153806576541 $494 $667 forward 7 unknown #
vertex $-1 $508 $668 #
straight-curve $-1 35.041137639102587 0.017896588338638608 12.70014389427736 1 0 0 I I #
edge $-1 $617 -1.6930182553942146 $505 5.1148479428599209 $504 $669 forward 7 unknown #
vertex $-1 $616 $670 #
straight-curve $-1 -10.239979526116571 0.017896588338638608 88.853360695776104 -0.60181501223851219 0 0.79863551827123203 I I #
point $-1 47.145583791430795 0.017896588338638608 12.70014389427736 #
point $-1 50.287179174169133 6.8257627865927741 8.5311058914543594 #
straight-curve $-1 50.287179174169133 0 12.700143894277357 0 1 0 I I #
vertex $-1 $511 $671 #
point $-1 47.599278988825553 3.4218296874657064 8.5216921628229816 #
edge $-1 $625 61.99011580375354 $628 66.159153806576541 $516 $672 forward 7 unknown #
vertex $-1 $530 $673 #
straight-curve $-1 35.041137639102587 12.640666131257712 12.70014389427736 1 0 0 I I #
edge $-1 $628 4.618366516065322 $527 11.426232714319459 $526 $674 forward 7 unknown #
vertex $-1 $627 $675 #
straight-curve $-1 -10.239979526116571 12.640666131257712 88.853360695776104 -0.60181501223851219 0 0.79863551827123203 I I #
point $-1 47.145583791430795 12.640666131257712 12.70014389427736 #
point $-1 50.287179174169133 19.448532329511849 8.5311058914543594 #
straight-curve $-1 50.287179174169133 0 12.700143894277357 0 1 0 I I #
vertex $-1 $533 $676 #
point $-1 47.599278988825553 16.04459923038478 8.5216921628229816 #
straight-curve $-1 -50.287179174169133 31.439961241427763 0 0 0 -1 I I #
point $-1 -50.287179174169133 -31.439961241427763 -12.700143894277357 #
straight-curve $-1 -50.287179174169133 0 -12.700143894277357 0 1 0 I I #
point $-1 -50.287179174169133 31.439961241427763 -12.700143894277357 #
coedge $-1 $559 $555 $564 $644 forward $403 $-1 #
vertex $-1 $556 $677 #
straight-curve $-1 -50.287179174169133 0 12.700143894277357 0 -1 0 I I #
point $-1 -50.287179174169133 -14.745862979250676 12.700143894277357 #
straight-curve $-1 50.287179174169133 0 12.700143894277357 0 1 0 I I #
edge $-1 $640 -50.287179174169133 $568 50.287179174169133 $564 $678 forward 7 unknown #
straight-curve $-1 -50.287179174169133 -31.439961241427763 0 0 0 -1 I I #
point $-1 50.287179174169133 -31.439961241427763 12.700143894277357 #
edge $-1 $575 -3.3450133320347266 $586 3.3450133320347266 $572 $679 forward 7 unknown #
coedge $-1 $573 $582 $577 $651 reversed $425 $-1 #
straight-curve $-1 0 41.29040012867344 12.700143894277359 -1 0 0 I I #
point $-1 50.287179174169133 41.29040012867344 12.700143894277359 #
edge $-1 $578 -3.3450133320347266 $584 3.3450133320347266 $648 $680 forward 7 unknown #
point $-1 -50.287179174169133 41.29040012867344 12.700143894277359 #
straight-curve $-1 0 41.29040012867344 6.0101172302079053 1 0 0 I I #
point $-1 -50.287179174169133 41.29040012867344 6.0101172302079053 #
point $-1 50.287179174169133 41.29040012867344 6.0101172302079053 #
straight-curve $-1 -50.287179174169133 11.149131045357215 43.920088990339387 0 0 -1 I I #
point $-1 -50.287179174169133 11.149131045357215 12.700143894277357 #
straight-curve $-1 -50.287179174169133 3.1743669907233016 3.4914242100011186 0 -1 0 I I #
point $-1 -50.287179174169133 11.149131045357215 3.4914242100011235 #
point $-1 -40.676442167357692 4.2914209540563455 4.2143316074356765 #
point $-1 -40.676442167357692 8.4060470088368682 4.2143316074356765 #
straight-curve $-1 50.287179174169133 -12.604872954580435 74.6902596980309 0 0 -1 I I #
point $-1 50.287179174169133 -12.604872954580435 12.700143894277357 #
straight-curve $-1 50.287179174169133 -4.6004699277266834 8.5311058914543594 0 1 0 I I #
point $-1 50.287179174169133 -12.604872954580435 8.5311058914543594 #
point $-1 46.198828458315809 -9.2009398554533703 8.718512668855702 #
straight-curve $-1 50.287179174169133 0.017896588338638608 74.6902596980309 0 0 -1 I I #
point $-1 50.287179174169133 0.017896588338638608 12.700143894277357 #
straight-curve $-1 50.287179174169133 1.7109148437328532 8.5311058914543594 0 1 0 I I #
point $-1 50.287179174169133 0.017896588338638608 8.5311058914543594 #
point $-1 46.198828458315809 3.4218296874657064 8.718512668855702 #
straight-curve $-1 50.287179174169133 12.640666131257712 74.6902596980309 0 0 -1 I I #
point $-1 50.287179174169133 12.640666131257712 12.700143894277357 #
straight-curve $-1 50.287179174169133 8.0222996151923898 8.5311058914543594 0 1 0 I I #
point $-1 50.287179174169133 12.640666131257712 8.5311058914543594 #
point $-1 46.198828458315809 16.04459923038478 8.718512668855702 #
point $-1 -50.287179174169133 -31.439961241427763 12.700143894277357 #
straight-curve $-1 0 -31.439961241427763 12.700143894277357 1 0 0 I I #
straight-curve $-1 50.287179174169133 41.29040012867344 9.355130562242632 0 0 -1 I I #
straight-curve $-1 -50.287179174169133 41.29040012867344 9.355130562242632 0 0 -1 I I #
End-of-ACIS-data 