500 0 13 0           
7 Unknown 11 ACIS 5.0 NT 24 Fri Mar 26 15:41:29 1999 
-1 9.9999999999999995e-007 1e-010 
body $-1 $13 $-1 $14 #
body $-1 $15 $-1 $16 #
body $-1 $17 $-1 $18 #
body $-1 $19 $-1 $20 #
body $-1 $21 $-1 $22 #
body $-1 $23 $-1 $24 #
body $-1 $25 $-1 $26 #
body $-1 $27 $-1 $28 #
body $-1 $29 $-1 $30 #
body $-1 $31 $-1 $32 #
body $-1 $33 $-1 $34 #
body $-1 $35 $-1 $36 #
body $-1 $37 $-1 $38 #
lump $-1 $-1 $39 $0 #
transform $-1 1 0 0 0 1 0 0 0 1 52.734763634144109 23.812641871613504 8.6718073568346963 1 rotate no_reflect no_shear #
lump $-1 $-1 $40 $1 #
transform $-1 1 0 0 0 1 0 0 0 1 52.734763634144109 23.812641871613504 8.6718073568346963 1 rotate no_reflect no_shear #
lump $-1 $-1 $41 $2 #
transform $-1 1 0 0 0 1 0 0 0 1 52.734763634144109 23.812641871613504 8.6718073568346963 1 rotate no_reflect no_shear #
lump $-1 $-1 $42 $3 #
transform $-1 1 0 0 0 1 0 0 0 1 52.734763634144109 23.812641871613504 8.6718073568346963 1 rotate no_reflect no_shear #
lump $-1 $-1 $43 $4 #
transform $-1 1 0 0 0 1 0 0 0 1 52.734763634144109 23.812641871613504 8.6718073568346963 1 rotate no_reflect no_shear #
lump $-1 $-1 $44 $5 #
transform $-1 1 0 0 0 1 0 0 0 1 52.734763634144109 23.812641871613504 8.6718073568346963 1 rotate no_reflect no_shear #
lump $-1 $-1 $45 $6 #
transform $-1 1 0 0 0 1 0 0 0 1 52.734763634144109 23.812641871613504 8.6718073568346963 1 rotate no_reflect no_shear #
lump $-1 $-1 $46 $7 #
transform $-1 1 0 0 0 1 0 0 0 1 52.734763634144109 23.812641871613504 8.6718073568346963 1 rotate no_reflect no_shear #
lump $-1 $-1 $47 $8 #
transform $-1 1 0 0 0 1 0 0 0 1 52.734763634144109 23.812641871613504 8.6718073568346963 1 rotate no_reflect no_shear #
lump $-1 $-1 $48 $9 #
transform $-1 1 0 0 0 1 0 0 0 1 52.734763634144109 23.812641871613504 8.6718073568346963 1 rotate no_reflect no_shear #
lump $-1 $-1 $49 $10 #
transform $-1 1 0 0 0 1 0 0 0 1 52.734763634144109 23.812641871613504 8.6718073568346963 1 rotate no_reflect no_shear #
lump $-1 $-1 $50 $11 #
transform $-1 1 0 0 0 1 0 0 0 1 52.734763634144109 23.812641871613504 8.6718073568346963 1 rotate no_reflect no_shear #
lump $-1 $-1 $51 $12 #
transform $-1 1 0 0 0 1 0 0 0 1 52.734763634144109 23.812641871613504 8.6718073568346963 1 rotate no_reflect no_shear #
shell $-1 $-1 $-1 $52 $-1 $13 #
shell $-1 $-1 $-1 $53 $-1 $15 #
shell $-1 $-1 $-1 $54 $-1 $17 #
shell $-1 $-1 $-1 $55 $-1 $19 #
shell $-1 $-1 $-1 $56 $-1 $21 #
shell $-1 $-1 $-1 $57 $-1 $23 #
shell $-1 $-1 $-1 $58 $-1 $25 #
shell $-1 $-1 $-1 $59 $-1 $27 #
shell $-1 $-1 $-1 $60 $-1 $29 #
shell $-1 $-1 $-1 $61 $-1 $31 #
shell $-1 $-1 $-1 $62 $-1 $33 #
shell $-1 $-1 $-1 $63 $-1 $35 #
shell $-1 $-1 $-1 $64 $-1 $37 #
face $-1 $65 $66 $39 $-1 $67 forward single #
face $-1 $68 $69 $40 $-1 $70 reversed single #
face $-1 $71 $72 $41 $-1 $73 reversed single #
face $-1 $74 $75 $42 $-1 $76 forward single #
face $-1 $77 $78 $43 $-1 $79 forward single #
face $-1 $80 $81 $44 $-1 $82 forward single #
face $-1 $83 $84 $45 $-1 $85 reversed single #
face $-1 $86 $87 $46 $-1 $88 forward single #
face $-1 $89 $90 $47 $-1 $91 forward single #
face $-1 $92 $93 $48 $-1 $94 forward single #
face $-1 $95 $96 $49 $-1 $97 reversed single #
face $-1 $98 $99 $50 $-1 $100 forward single #
face $-1 $101 $102 $51 $-1 $103 forward single #
face $-1 $104 $105 $39 $-1 $106 reversed single #
loop $-1 $-1 $107 $52 #
plane-surface $-1 0 0 8.6718073568346963 0 0 1 1 0 0 forward_v I I I I #
face $-1 $108 $109 $40 $-1 $110 reversed single #
loop $-1 $-1 $111 $53 #
plane-surface $-1 0 -19.495687178661697 4.8583504969581792 0 0 1 1 0 0 forward_v I I I I #
face $-1 $112 $113 $41 $-1 $114 reversed single #
loop $-1 $-1 $115 $54 #
plane-surface $-1 -128.6031931900811 -8.4130668657829819 74.230121169437609 0 1 0 -0.71933980857756763 0 0.69465836192734942 forward_v I I I I #
face $-1 $116 $117 $42 $-1 $118 forward single #
loop $-1 $119 $120 $55 #
cone-surface $-1 -48.337786121652314 -6.9538849579664692 4.1657962548679066 0.71933980857756763 0 -0.69465836192734942 0.34732918096367471 0 0.35966990428878381 1 I I 0 1 0.5 forward I I I I #
face $-1 $121 $122 $43 $-1 $123 forward single #
loop $-1 $124 $125 $56 #
cone-surface $-1 -48.337786121652314 -4.7651120962416975 4.1657962548679066 0.71933980857756763 0 -0.69465836192734942 0.34732918096367471 0 0.35966990428878381 1 I I 0 1 0.5 forward I I I I #
face $-1 $126 $127 $44 $-1 $128 forward single #
loop $-1 $129 $130 $57 #
cone-surface $-1 -48.337786121652314 -2.5763392345169258 4.1657962548679066 0.71933980857756763 0 -0.69465836192734942 0.34732918096367471 0 0.35966990428878381 1 I I 0 1 0.5 forward I I I I #
face $-1 $131 $132 $45 $-1 $133 reversed single #
loop $-1 $-1 $134 $58 #
plane-surface $-1 -128.6031931900811 9.7510667126040342 74.230121169437609 0 1 0 -0.71933980857756763 0 0.69465836192734942 forward_v I I I I #
face $-1 $135 $136 $46 $-1 $137 forward single #
loop $-1 $138 $139 $59 #
cone-surface $-1 -48.337786121652314 11.210248620420547 4.1657962548679066 0.71933980857756763 0 -0.69465836192734942 0.34732918096367471 0 0.35966990428878381 1 I I 0 1 0.5 forward I I I I #
face $-1 $140 $141 $47 $-1 $142 forward single #
loop $-1 $143 $144 $60 #
cone-surface $-1 -48.337786121652314 13.399021482145319 4.1657962548679066 0.71933980857756763 0 -0.69465836192734942 0.34732918096367471 0 0.35966990428878381 1 I I 0 1 0.5 forward I I I I #
face $-1 $145 $146 $48 $-1 $147 forward single #
loop $-1 $148 $149 $61 #
cone-surface $-1 -48.337786121652314 15.58779434387009 4.1657962548679066 0.71933980857756763 0 -0.69465836192734942 0.34732918096367471 0 0.35966990428878381 1 I I 0 1 0.5 forward I I I I #
face $-1 $150 $151 $49 $-1 $152 reversed single #
loop $-1 $-1 $153 $62 #
plane-surface $-1 60.541010179146035 -7.481523661876456 153.74779509428285 0 -1 0 -0.74314483375859142 0 -0.66913059716165679 forward_v I I I I #
face $-1 $154 $155 $50 $-1 $156 forward single #
loop $-1 $157 $158 $63 #
cone-surface $-1 50.574517385853959 -12.979529964614622 6.3598994036332295 -0.74314483375859142 0 -0.66913059716165679 0.3345652985808284 0 -0.37157241687929571 1 I I 0 1 0.5 forward I I I I #
face $-1 $159 $160 $51 $-1 $161 forward single #
loop $-1 $162 $163 $64 #
cone-surface $-1 50.574517385853959 -9.6807261829717213 6.3598994036332295 -0.74314483375859142 0 -0.66913059716165679 0.3345652985808284 0 -0.37157241687929571 1 I I 0 1 0.5 forward I I I I #
face $-1 $164 $165 $39 $-1 $166 reversed single #
loop $-1 $-1 $167 $65 #
plane-surface $-1 0 0 -8.6718073568346963 0 0 1 1 0 0 forward_v I I I I #
coedge $-1 $168 $169 $170 $171 forward $66 $-1 #
face $-1 $172 $173 $40 $-1 $174 reversed single #
loop $-1 $-1 $175 $68 #
plane-surface $-1 0 -15.17873248570989 6.7650789268964377 0 -1 0 0 0 -1 forward_v I I I I #
coedge $-1 $176 $177 $178 $179 reversed $69 $-1 #
face $-1 $180 $181 $41 $-1 $182 reversed single #
loop $-1 $-1 $183 $71 #
plane-surface $-1 -52.734763634144102 -4.7651120962416975 0.9648321239966009 -0.71933980857756763 0 0.69465836192734942 0.69465836192734942 0 0.71933980857756763 forward_v I I I I #
coedge $-1 $184 $185 $186 $187 reversed $72 $-1 #
face $-1 $-1 $188 $42 $-1 $189 forward single #
loop $-1 $190 $191 $74 #
cone-surface $-1 -47.482243303724871 -6.9538849579664692 3.3396081788383274 0.71933980857756763 0 -0.69465836192734942 0.17366459048183736 0 0.17983495214439191 1 I I -0.70710678118654746 0.70710678118654746 0.25 forward I I I I #
loop $-1 $-1 $192 $55 #
coedge $-1 $120 $120 $193 $194 reversed $75 $-1 #
face $-1 $-1 $195 $43 $-1 $196 forward single #
loop $-1 $197 $198 $77 #
cone-surface $-1 -47.482243303724871 -4.7651120962416975 3.3396081788383274 0.71933980857756763 0 -0.69465836192734942 0.17366459048183736 0 0.17983495214439191 1 I I -0.70710678118654746 0.70710678118654746 0.25 forward I I I I #
loop $-1 $-1 $199 $56 #
coedge $-1 $125 $125 $200 $201 reversed $78 $-1 #
face $-1 $-1 $202 $44 $-1 $203 forward single #
loop $-1 $204 $205 $80 #
cone-surface $-1 -47.482243303724871 -2.5763392345169258 3.3396081788383274 0.71933980857756763 0 -0.69465836192734942 0.17366459048183736 0 0.17983495214439191 1 I I -0.70710678118654746 0.70710678118654746 0.25 forward I I I I #
loop $-1 $-1 $206 $57 #
coedge $-1 $130 $130 $207 $208 reversed $81 $-1 #
face $-1 $209 $210 $45 $-1 $211 reversed single #
loop $-1 $-1 $212 $83 #
plane-surface $-1 -52.734763634144102 13.399021482145319 0.9648321239966009 -0.71933980857756763 0 0.69465836192734942 0.69465836192734942 0 0.71933980857756763 forward_v I I I I #
coedge $-1 $213 $214 $215 $216 reversed $84 $-1 #
face $-1 $-1 $217 $46 $-1 $218 forward single #
loop $-1 $219 $220 $86 #
cone-surface $-1 -47.482243303724871 11.210248620420547 3.3396081788383274 0.71933980857756763 0 -0.69465836192734942 0.17366459048183736 0 0.17983495214439191 1 I I -0.70710678118654746 0.70710678118654746 0.25 forward I I I I #
loop $-1 $-1 $221 $59 #
coedge $-1 $139 $139 $222 $223 reversed $87 $-1 #
face $-1 $-1 $224 $47 $-1 $225 forward single #
loop $-1 $226 $227 $89 #
cone-surface $-1 -47.482243303724871 13.399021482145319 3.3396081788383274 0.71933980857756763 0 -0.69465836192734942 0.17366459048183736 0 0.17983495214439191 1 I I -0.70710678118654746 0.70710678118654746 0.25 forward I I I I #
loop $-1 $-1 $228 $60 #
coedge $-1 $144 $144 $229 $230 reversed $90 $-1 #
face $-1 $-1 $231 $48 $-1 $232 forward single #
loop $-1 $233 $234 $92 #
cone-surface $-1 -47.482243303724871 15.58779434387009 3.3396081788383274 0.71933980857756763 0 -0.69465836192734942 0.17366459048183736 0 0.17983495214439191 1 I I -0.70710678118654746 0.70710678118654746 0.25 forward I I I I #
loop $-1 $-1 $235 $61 #
coedge $-1 $149 $149 $236 $237 reversed $93 $-1 #
face $-1 $238 $239 $49 $-1 $240 forward single #
loop $-1 $-1 $241 $95 #
plane-surface $-1 -17.838124129243234 -11.330128073793173 83.174907330895508 0.74314483375859142 0 0.66913059716165679 0.66913059716165679 0 -0.74314483375859142 forward_v I I I I #
coedge $-1 $242 $243 $244 $245 reversed $96 $-1 #
face $-1 $-1 $246 $50 $-1 $247 forward single #
loop $-1 $248 $249 $98 #
cone-surface $-1 49.973483380927156 -12.979529964614622 5.8187259683055803 -0.74314483375859142 0 -0.66913059716165679 0.1672826492904142 0 -0.18578620843964785 1 I I -0.70710678118654746 0.70710678118654746 0.25 forward I I I I #
loop $-1 $-1 $250 $63 #
coedge $-1 $158 $158 $251 $252 reversed $99 $-1 #
face $-1 $-1 $253 $51 $-1 $254 forward single #
loop $-1 $255 $256 $101 #
cone-surface $-1 49.973483380927156 -9.6807261829717213 5.8187259683055803 -0.74314483375859142 0 -0.66913059716165679 0.1672826492904142 0 -0.18578620843964785 1 I I -0.70710678118654746 0.70710678118654746 0.25 forward I I I I #
loop $-1 $-1 $257 $64 #
coedge $-1 $163 $163 $258 $259 reversed $102 $-1 #
face $-1 $260 $261 $39 $-1 $262 reversed single #
loop $-1 $-1 $263 $104 #
plane-surface $-1 0 -23.812641871613504 0 0 1 0 0 0 1 forward_v I I I I #
coedge $-1 $264 $265 $266 $267 forward $105 $-1 #
coedge $-1 $268 $107 $269 $270 forward $66 $-1 #
coedge $-1 $107 $268 $271 $272 forward $66 $-1 #
coedge $-1 $273 $274 $107 $171 reversed $275 $-1 #
edge $-1 $276 -23.812641871613504 $277 23.812641871613504 $170 $278 forward 7 unknown #
face $-1 $279 $280 $40 $-1 $281 reversed single #
loop $-1 $-1 $282 $108 #
plane-surface $-1 -52.734763634144109 0 0 1 0 0 0 0 -1 forward_v I I I I #
coedge $-1 $283 $284 $177 $285 reversed $109 $-1 #
coedge $-1 $286 $111 $287 $288 reversed $69 $-1 #
coedge $-1 $111 $286 $175 $285 forward $69 $-1 #
coedge $-1 $289 $290 $111 $179 forward $291 $-1 #
edge $-1 $292 -14.064798282282656 $293 -5.4308888963790416 $178 $294 forward 7 unknown #
face $-1 $295 $296 $41 $-1 $297 forward single #
loop $-1 $-1 $298 $112 #
plane-surface $-1 -128.6031931900811 -1.1171573267004131 74.230121169437609 0 -1 0 0.71933980857756763 0 -0.69465836192734942 forward_v I I I I #
coedge $-1 $299 $300 $301 $302 reversed $113 $-1 #
coedge $-1 $185 $115 $303 $304 reversed $72 $-1 #
coedge $-1 $115 $184 $299 $305 reversed $72 $-1 #
coedge $-1 $301 $306 $115 $187 forward $296 $-1 #
edge $-1 $307 11.566832960896441 $308 19.009372254313938 $186 $309 forward 7 unknown #
loop $-1 $-1 $193 $116 #
plane-surface $-1 -52.734763634144102 -4.7651120962416975 0.9648321239966009 -0.71933980857756763 0 0.69465836192734942 0.69465836192734942 0 0.71933980857756763 forward_v I I I I #
loop $-1 $-1 $310 $74 #
coedge $-1 $191 $191 $192 $311 reversed $117 $-1 #
coedge $-1 $192 $192 $191 $311 forward $119 $-1 #
coedge $-1 $193 $193 $120 $194 forward $188 $-1 #
edge $-1 $312 0 $312 6.2831853071796004 $193 $313 forward 7 unknown #
loop $-1 $-1 $200 $121 #
plane-surface $-1 -52.734763634144102 -4.7651120962416975 0.9648321239966009 -0.71933980857756763 0 0.69465836192734942 0.69465836192734942 0 0.71933980857756763 forward_v I I I I #
loop $-1 $-1 $314 $77 #
coedge $-1 $198 $198 $199 $315 reversed $122 $-1 #
coedge $-1 $199 $199 $198 $315 forward $124 $-1 #
coedge $-1 $200 $200 $125 $201 forward $195 $-1 #
edge $-1 $316 0 $316 6.2831853071796004 $200 $317 forward 7 unknown #
loop $-1 $-1 $207 $126 #
plane-surface $-1 -52.734763634144102 -4.7651120962416975 0.9648321239966009 -0.71933980857756763 0 0.69465836192734942 0.69465836192734942 0 0.71933980857756763 forward_v I I I I #
loop $-1 $-1 $318 $80 #
coedge $-1 $205 $205 $206 $319 reversed $127 $-1 #
coedge $-1 $206 $206 $205 $319 forward $129 $-1 #
coedge $-1 $207 $207 $130 $208 forward $202 $-1 #
edge $-1 $320 0 $320 6.2831853071796004 $207 $321 forward 7 unknown #
face $-1 $322 $323 $45 $-1 $324 forward single #
loop $-1 $-1 $325 $131 #
plane-surface $-1 -128.6031931900811 17.046976251686601 74.230121169437609 0 -1 0 0.71933980857756763 0 -0.69465836192734942 forward_v I I I I #
coedge $-1 $326 $327 $328 $329 reversed $132 $-1 #
coedge $-1 $214 $134 $330 $331 reversed $84 $-1 #
coedge $-1 $134 $213 $326 $332 reversed $84 $-1 #
coedge $-1 $328 $333 $134 $216 forward $323 $-1 #
edge $-1 $334 11.566832960896441 $335 19.009372254313938 $215 $336 forward 7 unknown #
loop $-1 $-1 $222 $135 #
plane-surface $-1 -52.734763634144102 13.399021482145319 0.9648321239966009 -0.71933980857756763 0 0.69465836192734942 0.69465836192734942 0 0.71933980857756763 forward_v I I I I #
loop $-1 $-1 $337 $86 #
coedge $-1 $220 $220 $221 $338 reversed $136 $-1 #
coedge $-1 $221 $221 $220 $338 forward $138 $-1 #
coedge $-1 $222 $222 $139 $223 forward $217 $-1 #
edge $-1 $339 0 $339 6.2831853071796004 $222 $340 forward 7 unknown #
loop $-1 $-1 $229 $140 #
plane-surface $-1 -52.734763634144102 13.399021482145319 0.9648321239966009 -0.71933980857756763 0 0.69465836192734942 0.69465836192734942 0 0.71933980857756763 forward_v I I I I #
loop $-1 $-1 $341 $89 #
coedge $-1 $227 $227 $228 $342 reversed $141 $-1 #
coedge $-1 $228 $228 $227 $342 forward $143 $-1 #
coedge $-1 $229 $229 $144 $230 forward $224 $-1 #
edge $-1 $343 0 $343 6.2831853071796004 $229 $344 forward 7 unknown #
loop $-1 $-1 $236 $145 #
plane-surface $-1 -52.734763634144102 13.399021482145319 0.9648321239966009 -0.71933980857756763 0 0.69465836192734942 0.69465836192734942 0 0.71933980857756763 forward_v I I I I #
loop $-1 $-1 $345 $92 #
coedge $-1 $234 $234 $235 $346 reversed $146 $-1 #
coedge $-1 $235 $235 $234 $346 forward $148 $-1 #
coedge $-1 $236 $236 $149 $237 forward $231 $-1 #
edge $-1 $347 0 $347 6.2831853071796004 $236 $348 forward 7 unknown #
face $-1 $349 $350 $49 $-1 $351 forward single #
loop $-1 $-1 $352 $150 #
plane-surface $-1 0 -15.17873248570989 6.7650789268964377 0 -1 0 0 0 -1 forward_v I I I I #
coedge $-1 $353 $354 $355 $356 reversed $151 $-1 #
coedge $-1 $243 $153 $357 $358 reversed $96 $-1 #
coedge $-1 $153 $242 $353 $359 reversed $96 $-1 #
coedge $-1 $355 $360 $153 $245 forward $350 $-1 #
edge $-1 $361 -22.464258544571091 $362 -18.974261640965079 $244 $363 forward 7 unknown #
loop $-1 $-1 $251 $154 #
plane-surface $-1 -17.838124129243234 -11.330128073793173 83.174907330895508 0.74314483375859142 0 0.66913059716165679 0.66913059716165679 0 -0.74314483375859142 forward_v I I I I #
loop $-1 $-1 $364 $98 #
coedge $-1 $249 $249 $250 $365 reversed $155 $-1 #
coedge $-1 $250 $250 $249 $365 forward $157 $-1 #
coedge $-1 $251 $251 $158 $252 forward $246 $-1 #
edge $-1 $366 0 $366 6.2831853071796004 $251 $367 forward 7 unknown #
loop $-1 $-1 $258 $159 #
plane-surface $-1 -17.838124129243234 -11.330128073793173 83.174907330895508 0.74314483375859142 0 0.66913059716165679 0.66913059716165679 0 -0.74314483375859142 forward_v I I I I #
loop $-1 $-1 $368 $101 #
coedge $-1 $256 $256 $257 $369 reversed $160 $-1 #
coedge $-1 $257 $257 $256 $369 forward $162 $-1 #
coedge $-1 $258 $258 $163 $259 forward $253 $-1 #
edge $-1 $370 0 $370 6.2831853071796004 $258 $371 forward 7 unknown #
face $-1 $372 $373 $39 $-1 $374 reversed single #
loop $-1 $-1 $375 $164 #
plane-surface $-1 -52.734763634144109 0 0 1 0 0 0 0 -1 forward_v I I I I #
coedge $-1 $376 $271 $377 $378 forward $165 $-1 #
coedge $-1 $379 $167 $376 $380 forward $105 $-1 #
coedge $-1 $167 $379 $381 $382 forward $105 $-1 #
coedge $-1 $274 $273 $167 $267 reversed $275 $-1 #
edge $-1 $383 -23.812641871613504 $384 23.812641871613504 $266 $385 forward 7 unknown #
coedge $-1 $169 $168 $386 $387 forward $66 $-1 #
coedge $-1 $388 $389 $168 $270 reversed $373 $-1 #
edge $-1 $277 -52.734763634144109 $390 52.734763634144109 $269 $391 forward 7 unknown #
coedge $-1 $263 $392 $169 $272 reversed $165 $-1 #
edge $-1 $393 -52.734763634144109 $276 52.734763634144109 $271 $394 forward 7 unknown #
coedge $-1 $266 $170 $392 $395 forward $275 $-1 #
coedge $-1 $170 $266 $388 $396 reversed $275 $-1 #
loop $-1 $-1 $273 $372 #
vertex $-1 $171 $397 #
vertex $-1 $171 $398 #
straight-curve $-1 52.734763634144109 0 8.6718073568346963 0 1 0 I I #
face $-1 $399 $400 $40 $-1 $401 forward single #
loop $-1 $-1 $287 $172 #
plane-surface $-1 0 -23.812641871613504 0 0 1 0 0 0 1 forward_v I I I I #
coedge $-1 $402 $403 $283 $404 forward $173 $-1 #
coedge $-1 $405 $175 $282 $404 reversed $109 $-1 #
coedge $-1 $175 $405 $289 $406 reversed $109 $-1 #
edge $-1 $407 -52.734763634144109 $293 52.734763634144109 $175 $408 forward 7 unknown #
coedge $-1 $177 $176 $402 $409 reversed $69 $-1 #
coedge $-1 $410 $411 $176 $288 forward $280 $-1 #
edge $-1 $412 -52.734763634144109 $292 52.734763634144109 $287 $413 forward 7 unknown #
coedge $-1 $414 $178 $284 $406 forward $291 $-1 #
coedge $-1 $178 $414 $410 $415 forward $291 $-1 #
loop $-1 $-1 $289 $399 #
vertex $-1 $288 $416 #
vertex $-1 $179 $417 #
straight-curve $-1 52.734763634144109 -9.7478435893308486 4.8583504969581792 0 1 0 I I #
face $-1 $-1 $418 $41 $-1 $419 reversed single #
loop $-1 $-1 $186 $180 #
plane-surface $-1 0 0 8.6718073568346963 0 0 1 1 0 0 forward_v I I I I #
coedge $-1 $420 $421 $422 $423 reversed $181 $-1 #
coedge $-1 $424 $183 $185 $305 forward $113 $-1 #
coedge $-1 $183 $424 $420 $425 forward $113 $-1 #
coedge $-1 $422 $186 $183 $302 forward $296 $-1 #
edge $-1 $308 -6.0305108176621331 $426 1.2653987214204356 $301 $427 forward 7 unknown #
coedge $-1 $428 $429 $184 $304 forward $418 $-1 #
edge $-1 $430 -36.150228460722211 $307 -28.443253227884107 $303 $431 forward 7 unknown #
edge $-1 $308 -10.713956242847136 $430 1.0206786807905858e-014 $185 $432 forward 7 unknown #
coedge $-1 $186 $422 $428 $433 forward $296 $-1 #
vertex $-1 $304 $434 #
vertex $-1 $187 $435 #
straight-curve $-1 -64.30159659504055 -8.4130668657829819 8.6718073568346981 1 0 0 I I #
coedge $-1 $310 $310 $-1 $436 reversed $190 $-1 #
edge $-1 $437 0 $437 6.2831853071796004 $191 $438 forward 7 unknown #
vertex $-1 $194 $439 #
ellipse-curve $-1 -49.013493987435361 -6.9538849579664692 4.8183197404156433 -0.71933980857756763 0 0.69465836192734942 0.34732918096367471 0 0.35966990428878381 1 I I #
coedge $-1 $314 $314 $-1 $440 reversed $197 $-1 #
edge $-1 $441 0 $441 6.2831853071796004 $198 $442 forward 7 unknown #
vertex $-1 $201 $443 #
ellipse-curve $-1 -49.013493987435361 -4.7651120962416975 4.8183197404156433 -0.71933980857756763 0 0.69465836192734942 0.34732918096367471 0 0.35966990428878381 1 I I #
coedge $-1 $318 $318 $-1 $444 reversed $204 $-1 #
edge $-1 $445 0 $445 6.2831853071796004 $205 $446 forward 7 unknown #
vertex $-1 $208 $447 #
ellipse-curve $-1 -49.013493987435361 -2.5763392345169258 4.8183197404156433 -0.71933980857756763 0 0.69465836192734942 0.34732918096367471 0 0.35966990428878381 1 I I #
face $-1 $-1 $448 $45 $-1 $449 reversed single #
loop $-1 $-1 $215 $209 #
plane-surface $-1 0 0 8.6718073568346963 0 0 1 1 0 0 forward_v I I I I #
coedge $-1 $450 $451 $452 $453 reversed $210 $-1 #
coedge $-1 $454 $212 $214 $332 forward $132 $-1 #
coedge $-1 $212 $454 $450 $455 forward $132 $-1 #
coedge $-1 $452 $215 $212 $329 forward $323 $-1 #
edge $-1 $335 3.0515559715313749 $456 10.347465510613942 $328 $457 forward 7 unknown #
coedge $-1 $458 $459 $213 $331 forward $448 $-1 #
edge $-1 $460 -36.150228460722211 $334 -28.443253227884107 $330 $461 forward 7 unknown #
edge $-1 $335 -10.713956242847136 $460 1.0206786807905858e-014 $214 $462 forward 7 unknown #
coedge $-1 $215 $452 $458 $463 forward $323 $-1 #
vertex $-1 $216 $464 #
vertex $-1 $216 $465 #
straight-curve $-1 -64.30159659504055 9.7510667126040342 8.6718073568346981 1 0 0 I I #
coedge $-1 $337 $337 $-1 $466 reversed $219 $-1 #
edge $-1 $467 0 $467 6.2831853071796004 $220 $468 forward 7 unknown #
vertex $-1 $223 $469 #
ellipse-curve $-1 -49.013493987435361 11.210248620420547 4.8183197404156433 -0.71933980857756763 0 0.69465836192734942 0.34732918096367471 0 0.35966990428878381 1 I I #
coedge $-1 $341 $341 $-1 $470 reversed $226 $-1 #
edge $-1 $471 0 $471 6.2831853071796004 $227 $472 forward 7 unknown #
vertex $-1 $230 $473 #
ellipse-curve $-1 -49.013493987435361 13.399021482145319 4.8183197404156433 -0.71933980857756763 0 0.69465836192734942 0.34732918096367471 0 0.35966990428878381 1 I I #
coedge $-1 $345 $345 $-1 $474 reversed $233 $-1 #
edge $-1 $475 0 $475 6.2831853071796004 $234 $476 forward 7 unknown #
vertex $-1 $237 $477 #
ellipse-curve $-1 -49.013493987435361 15.58779434387009 4.8183197404156433 -0.71933980857756763 0 0.69465836192734942 0.34732918096367471 0 0.35966990428878381 1 I I #
face $-1 $-1 $478 $49 $-1 $479 reversed single #
loop $-1 $-1 $355 $238 #
plane-surface $-1 0 0 8.6718073568346963 0 0 1 1 0 0 forward_v I I I I #
coedge $-1 $480 $481 $354 $482 reversed $239 $-1 #
coedge $-1 $483 $241 $243 $359 forward $151 $-1 #
coedge $-1 $241 $483 $352 $482 forward $151 $-1 #
coedge $-1 $484 $244 $241 $356 forward $350 $-1 #
edge $-1 $362 1.8164596249798697 $485 9.5136684488133039 $355 $486 forward 7 unknown #
coedge $-1 $487 $488 $242 $358 forward $478 $-1 #
edge $-1 $489 -72.078124524635186 $361 -68.202090190306734 $357 $490 forward 7 unknown #
edge $-1 $362 100.25380866505887 $489 105.4695272682882 $243 $491 forward 7 unknown #
coedge $-1 $244 $484 $487 $492 forward $350 $-1 #
vertex $-1 $358 $493 #
vertex $-1 $245 $494 #
straight-curve $-1 30.270505089573017 -7.481523661876456 8.6718073568346909 -1 0 0 I I #
coedge $-1 $364 $364 $-1 $495 reversed $248 $-1 #
edge $-1 $496 0 $496 6.2831853071796004 $249 $497 forward 7 unknown #
vertex $-1 $252 $498 #
ellipse-curve $-1 50.989765182341102 -12.979529964614622 6.7337901896704579 0.74314483375859142 0 0.66913059716165679 0.3345652985808284 0 -0.37157241687929571 1 I I #
coedge $-1 $368 $368 $-1 $499 reversed $255 $-1 #
edge $-1 $500 0 $500 6.2831853071796004 $256 $501 forward 7 unknown #
vertex $-1 $259 $502 #
ellipse-curve $-1 50.989765182341102 -9.6807261829717213 6.7337901896704579 0.74314483375859142 0 0.66913059716165679 0.3345652985808284 0 -0.37157241687929571 1 I I #
face $-1 $-1 $275 $39 $-1 $503 reversed single #
loop $-1 $-1 $388 $260 #
plane-surface $-1 0 23.812641871613504 0 0 -1 0 0 0 -1 forward_v I I I I #
coedge $-1 $504 $386 $389 $505 forward $261 $-1 #
coedge $-1 $392 $263 $264 $380 reversed $165 $-1 #
coedge $-1 $386 $504 $263 $378 reversed $261 $-1 #
edge $-1 $393 -8.6718073568346963 $506 8.6718073568346963 $377 $507 forward 7 unknown #
coedge $-1 $265 $264 $504 $508 forward $105 $-1 #
edge $-1 $384 -52.734763634144109 $506 52.734763634144109 $376 $509 forward 7 unknown #
coedge $-1 $389 $388 $265 $382 reversed $373 $-1 #
edge $-1 $510 -52.734763634144109 $383 52.734763634144109 $381 $511 forward 7 unknown #
vertex $-1 $267 $512 #
vertex $-1 $395 $513 #
straight-curve $-1 52.734763634144109 0 -8.6718073568346963 0 -1 0 I I #
coedge $-1 $375 $377 $268 $387 reversed $261 $-1 #
edge $-1 $390 -23.812641871613504 $393 23.812641871613504 $386 $514 forward 7 unknown #
coedge $-1 $381 $269 $274 $396 forward $373 $-1 #
coedge $-1 $269 $381 $375 $505 reversed $373 $-1 #
vertex $-1 $270 $515 #
straight-curve $-1 0 23.812641871613504 8.6718073568346963 -1 0 0 I I #
coedge $-1 $271 $376 $273 $395 reversed $165 $-1 #
vertex $-1 $387 $516 #
straight-curve $-1 0 -23.812641871613504 8.6718073568346963 1 0 0 I I #
edge $-1 $276 -8.6718073568346963 $384 8.6718073568346963 $273 $517 forward 7 unknown #
edge $-1 $277 -8.6718073568346963 $383 8.6718073568346963 $274 $518 forward 7 unknown #
point $-1 52.734763634144109 -23.812641871613504 8.6718073568346963 #
point $-1 52.734763634144109 23.812641871613504 8.6718073568346963 #
face $-1 $-1 $291 $40 $-1 $519 reversed single #
loop $-1 $-1 $520 $279 #
plane-surface $-1 0 0 8.6718073568346963 0 0 1 1 0 0 forward_v I I I I #
coedge $-1 $521 $282 $286 $409 forward $173 $-1 #
coedge $-1 $282 $521 $522 $523 reversed $173 $-1 #
edge $-1 $524 -5.2892678933864774 $407 -1.4758110335099603 $282 $525 forward 7 unknown #
coedge $-1 $284 $283 $520 $526 reversed $109 $-1 #
edge $-1 $293 1.4758110335099603 $527 5.2892678933864774 $289 $528 forward 7 unknown #
vertex $-1 $409 $529 #
straight-curve $-1 0 -15.17873248570989 4.8583504969581792 1 0 0 I I #
edge $-1 $407 5.4308888963790416 $412 14.064798282282656 $402 $530 forward 7 unknown #
coedge $-1 $531 $287 $290 $415 reversed $280 $-1 #
coedge $-1 $287 $531 $521 $532 forward $280 $-1 #
vertex $-1 $288 $533 #
straight-curve $-1 0 -23.812641871613504 4.8583504969581792 1 0 0 I I #
coedge $-1 $290 $289 $534 $535 reversed $291 $-1 #
edge $-1 $536 -8.6718073568346963 $292 -4.8583504969581792 $290 $537 forward 7 unknown #
point $-1 52.734763634144109 -23.812641871613504 4.8583504969581792 #
point $-1 52.734763634144109 -15.17873248570989 4.8583504969581792 #
loop $-1 $-1 $303 $295 #
plane-surface $-1 -52.734763634144109 0 0 1 0 0 0 0 -1 forward_v I I I I #
coedge $-1 $421 $298 $300 $425 reversed $181 $-1 #
coedge $-1 $298 $420 $538 $539 reversed $181 $-1 #
coedge $-1 $306 $301 $298 $423 forward $296 $-1 #
edge $-1 $426 -19.009372254313938 $540 -11.566832960896441 $422 $541 forward 7 unknown #
coedge $-1 $300 $299 $429 $542 reversed $113 $-1 #
edge $-1 $543 -1.0206786807905858e-014 $426 10.713956242847136 $420 $544 forward 7 unknown #
vertex $-1 $302 $545 #
straight-curve $-1 -45.292224340726612 -2.3825560481208488 8.6718073568346981 0 1 0 I I #
coedge $-1 $538 $303 $306 $433 reversed $418 $-1 #
coedge $-1 $303 $538 $424 $542 forward $418 $-1 #
vertex $-1 $304 $546 #
straight-curve $-1 -52.734763634144109 -8.4130668657829819 37.115060584718805 0 0 1 I I #
straight-curve $-1 -52.734763634144102 -8.4130668657829819 0.9648321239966009 -0.69465836192734942 0 -0.71933980857756763 I I #
edge $-1 $540 1.1171573267004131 $307 8.4130668657829819 $428 $547 forward 7 unknown #
point $-1 -52.734763634144109 -8.4130668657829819 8.6718073568346963 #
point $-1 -45.292224340726612 -8.4130668657829819 8.6718073568346963 #
edge $-1 $548 1 $548 0 $310 $-1 forward 7 unknown #
vertex $-1 $311 $549 #
ellipse-curve $-1 -47.662078255869261 -6.9538849579664692 3.5132727693201646 -0.71933980857756763 0 0.69465836192734942 0.34732918096367471 0 0.35966990428878381 1 I I #
point $-1 -48.666164806471691 -6.9538849579664692 5.1779896447044322 #
edge $-1 $550 1 $550 0 $314 $-1 forward 7 unknown #
vertex $-1 $315 $551 #
ellipse-curve $-1 -47.662078255869261 -4.7651120962416975 3.5132727693201646 -0.71933980857756763 0 0.69465836192734942 0.34732918096367471 0 0.35966990428878381 1 I I #
point $-1 -48.666164806471691 -4.7651120962416975 5.1779896447044322 #
edge $-1 $552 1 $552 0 $318 $-1 forward 7 unknown #
vertex $-1 $319 $553 #
ellipse-curve $-1 -47.662078255869261 -2.5763392345169258 3.5132727693201646 -0.71933980857756763 0 0.69465836192734942 0.34732918096367471 0 0.35966990428878381 1 I I #
point $-1 -48.666164806471691 -2.5763392345169258 5.1779896447044322 #
loop $-1 $-1 $330 $322 #
plane-surface $-1 -52.734763634144109 0 0 1 0 0 0 0 -1 forward_v I I I I #
coedge $-1 $451 $325 $327 $455 reversed $210 $-1 #
coedge $-1 $325 $450 $554 $555 reversed $210 $-1 #
coedge $-1 $333 $328 $325 $453 forward $323 $-1 #
edge $-1 $456 -19.009372254313938 $556 -11.566832960896441 $452 $557 forward 7 unknown #
coedge $-1 $327 $326 $459 $558 reversed $132 $-1 #
edge $-1 $559 -1.0206786807905858e-014 $456 10.713956242847136 $450 $560 forward 7 unknown #
vertex $-1 $329 $561 #
straight-curve $-1 -45.292224340726612 6.6995107410726593 8.6718073568346981 0 1 0 I I #
coedge $-1 $554 $330 $333 $463 reversed $448 $-1 #
coedge $-1 $330 $554 $454 $558 forward $448 $-1 #
vertex $-1 $331 $562 #
straight-curve $-1 -52.734763634144109 9.7510667126040342 37.115060584718805 0 0 1 I I #
straight-curve $-1 -52.734763634144102 9.7510667126040342 0.9648321239966009 -0.69465836192734942 0 -0.71933980857756763 I I #
edge $-1 $556 -17.046976251686601 $334 -9.7510667126040342 $458 $563 forward 7 unknown #
point $-1 -52.734763634144109 9.7510667126040342 8.6718073568346963 #
point $-1 -45.292224340726612 9.7510667126040342 8.6718073568346963 #
edge $-1 $564 1 $564 0 $337 $-1 forward 7 unknown #
vertex $-1 $338 $565 #
ellipse-curve $-1 -47.662078255869261 11.210248620420547 3.5132727693201646 -0.71933980857756763 0 0.69465836192734942 0.34732918096367471 0 0.35966990428878381 1 I I #
point $-1 -48.666164806471691 11.210248620420547 5.1779896447044322 #
edge $-1 $566 1 $566 0 $341 $-1 forward 7 unknown #
vertex $-1 $342 $567 #
ellipse-curve $-1 -47.662078255869261 13.399021482145319 3.5132727693201646 -0.71933980857756763 0 0.69465836192734942 0.34732918096367471 0 0.35966990428878381 1 I I #
point $-1 -48.666164806471691 13.399021482145319 5.1779896447044322 #
edge $-1 $568 1 $568 0 $345 $-1 forward 7 unknown #
vertex $-1 $346 $569 #
ellipse-curve $-1 -47.662078255869261 15.58779434387009 3.5132727693201646 -0.71933980857756763 0 0.69465836192734942 0.34732918096367471 0 0.35966990428878381 1 I I #
point $-1 -48.666164806471691 15.58779434387009 5.1779896447044322 #
loop $-1 $-1 $357 $349 #
plane-surface $-1 52.734763634144109 0 0 -1 0 0 0 0 1 forward_v I I I I #
coedge $-1 $481 $352 $570 $571 reversed $239 $-1 #
coedge $-1 $352 $480 $484 $572 reversed $239 $-1 #
edge $-1 $573 -105.4695272682882 $485 -100.25380866505887 $352 $574 forward 7 unknown #
coedge $-1 $354 $353 $488 $575 reversed $151 $-1 #
coedge $-1 $360 $355 $481 $572 forward $350 $-1 #
vertex $-1 $572 $576 #
straight-curve $-1 49.244766730538089 -5.6650640368965863 8.6718073568346981 0 -1 0 I I #
coedge $-1 $570 $357 $360 $492 reversed $478 $-1 #
coedge $-1 $357 $570 $483 $575 forward $478 $-1 #
vertex $-1 $358 $577 #
straight-curve $-1 52.734763634144109 -7.481523661876456 76.873897547141425 0 0 1 I I #
straight-curve $-1 -17.838124129243234 -7.481523661876456 83.174907330895508 0.66913059716165679 0 -0.74314483375859142 I I #
edge $-1 $578 -15.17873248570989 $361 -7.481523661876456 $487 $579 forward 7 unknown #
point $-1 52.734763634144109 -7.481523661876456 8.6718073568346963 #
point $-1 49.244766730538096 -7.481523661876456 8.6718073568346909 #
edge $-1 $580 1 $580 0 $364 $-1 forward 7 unknown #
vertex $-1 $365 $581 #
ellipse-curve $-1 50.159269589366801 -12.979529964614622 5.9860086175959948 0.74314483375859142 0 0.66913059716165679 0.3345652985808284 0 -0.37157241687929571 1 I I #
point $-1 51.324330480921937 -12.979529964614622 6.3622177727911682 #
edge $-1 $582 1 $582 0 $368 $-1 forward 7 unknown #
vertex $-1 $369 $583 #
ellipse-curve $-1 50.159269589366801 -9.6807261829717213 5.9860086175959948 0.74314483375859142 0 0.66913059716165679 0.3345652985808284 0 -0.37157241687929571 1 I I #
point $-1 51.324330480921937 -9.6807261829717213 6.3622177727911682 #
plane-surface $-1 52.734763634144109 0 0 -1 0 0 0 0 1 forward_v I I I I #
coedge $-1 $377 $375 $379 $508 reversed $261 $-1 #
edge $-1 $390 -8.6718073568346963 $510 8.6718073568346963 $389 $584 forward 7 unknown #
vertex $-1 $508 $585 #
straight-curve $-1 -52.734763634144109 -23.812641871613504 0 0 0 -1 I I #
edge $-1 $506 -23.812641871613504 $510 23.812641871613504 $504 $586 forward 7 unknown #
straight-curve $-1 0 -23.812641871613504 -8.6718073568346963 -1 0 0 I I #
vertex $-1 $382 $587 #
straight-curve $-1 0 23.812641871613504 -8.6718073568346963 1 0 0 I I #
point $-1 52.734763634144109 23.812641871613504 -8.6718073568346963 #
point $-1 52.734763634144109 -23.812641871613504 -8.6718073568346963 #
straight-curve $-1 -52.734763634144109 0 8.6718073568346963 0 -1 0 I I #
point $-1 -52.734763634144109 23.812641871613504 8.6718073568346963 #
point $-1 -52.734763634144109 -23.812641871613504 8.6718073568346963 #
straight-curve $-1 52.734763634144109 -23.812641871613504 0 0 0 -1 I I #
straight-curve $-1 52.734763634144109 23.812641871613504 0 0 0 -1 I I #
plane-surface $-1 52.734763634144109 0 0 -1 0 0 0 0 1 forward_v I I I I #
coedge $-1 $522 $534 $405 $526 forward $400 $-1 #
coedge $-1 $403 $402 $411 $532 reversed $173 $-1 #
coedge $-1 $588 $520 $403 $523 forward $400 $-1 #
edge $-1 $524 15.17873248570989 $589 23.812641871613504 $403 $590 forward 7 unknown #
vertex $-1 $523 $591 #
straight-curve $-1 -52.734763634144109 -15.17873248570989 3.3825394634482189 0 0 -1 I I #
edge $-1 $527 -52.734763634144109 $524 52.734763634144109 $520 $592 forward 7 unknown #
vertex $-1 $406 $593 #
straight-curve $-1 52.734763634144109 -15.17873248570989 3.3825394634482189 0 0 1 I I #
point $-1 -52.734763634144109 -15.17873248570989 4.8583504969581792 #
straight-curve $-1 -52.734763634144109 -9.7478435893308486 4.8583504969581792 0 -1 0 I I #
coedge $-1 $411 $410 $588 $594 reversed $280 $-1 #
edge $-1 $589 -8.6718073568346963 $412 -4.8583504969581792 $521 $595 forward 7 unknown #
point $-1 -52.734763634144109 -23.812641871613504 4.8583504969581792 #
coedge $-1 $520 $588 $414 $535 forward $400 $-1 #
edge $-1 $536 -23.812641871613504 $527 -15.17873248570989 $414 $596 forward 7 unknown #
vertex $-1 $535 $597 #
straight-curve $-1 52.734763634144109 -23.812641871613504 0 0 0 -1 I I #
coedge $-1 $429 $428 $421 $539 forward $418 $-1 #
edge $-1 $540 28.443253227884107 $543 36.150228460722211 $538 $598 forward 7 unknown #
vertex $-1 $433 $599 #
straight-curve $-1 -64.30159659504055 -1.1171573267004131 8.6718073568346981 -1 0 0 I I #
edge $-1 $543 -1.2653987214204356 $430 6.0305108176621331 $429 $600 forward 7 unknown #
vertex $-1 $542 $601 #
straight-curve $-1 -52.734763634144102 -1.1171573267004131 0.9648321239966009 0.69465836192734942 0 0.71933980857756763 I I #
point $-1 -45.292224340726612 -1.1171573267004131 8.6718073568346963 #
point $-1 -52.734763634144109 -8.4130668657829819 0.96483212399659357 #
straight-curve $-1 -52.734763634144109 0 8.6718073568346963 0 -1 0 I I #
vertex $-1 $436 $602 #
point $-1 -47.314749074905592 -6.9538849579664692 3.8729426736089483 #
vertex $-1 $440 $603 #
point $-1 -47.314749074905592 -4.7651120962416975 3.8729426736089483 #
vertex $-1 $444 $604 #
point $-1 -47.314749074905592 -2.5763392345169258 3.8729426736089483 #
coedge $-1 $459 $458 $451 $555 forward $448 $-1 #
edge $-1 $556 28.443253227884107 $559 36.150228460722211 $554 $605 forward 7 unknown #
vertex $-1 $463 $606 #
straight-curve $-1 -64.30159659504055 17.046976251686601 8.6718073568346981 -1 0 0 I I #
edge $-1 $559 -10.347465510613942 $460 -3.0515559715313749 $459 $607 forward 7 unknown #
vertex $-1 $558 $608 #
straight-curve $-1 -52.734763634144102 17.046976251686601 0.9648321239966009 0.69465836192734942 0 0.71933980857756763 I I #
point $-1 -45.292224340726612 17.046976251686601 8.6718073568346963 #
point $-1 -52.734763634144109 9.7510667126040342 0.96483212399659357 #
straight-curve $-1 -52.734763634144109 0 8.6718073568346963 0 -1 0 I I #
vertex $-1 $466 $609 #
point $-1 -47.314749074905592 11.210248620420547 3.8729426736089483 #
vertex $-1 $470 $610 #
point $-1 -47.314749074905592 13.399021482145319 3.8729426736089483 #
vertex $-1 $474 $611 #
point $-1 -47.314749074905592 15.58779434387009 3.8729426736089483 #
coedge $-1 $488 $487 $480 $571 forward $478 $-1 #
edge $-1 $578 68.202090190306734 $573 72.078124524635186 $570 $612 forward 7 unknown #
edge $-1 $485 49.244766730538096 $578 52.734763634144109 $484 $613 forward 7 unknown #
vertex $-1 $571 $614 #
straight-curve $-1 -17.838124129243234 -15.17873248570989 83.174907330895508 -0.66913059716165679 0 0.74314483375859142 I I #
edge $-1 $573 -9.5136684488133039 $489 -1.8164596249798697 $488 $615 forward 7 unknown #
point $-1 49.244766730538096 -15.17873248570989 8.6718073568346909 #
point $-1 52.734763634144109 -7.481523661876456 4.7957730225062392 #
vertex $-1 $492 $616 #
straight-curve $-1 52.734763634144109 0 8.6718073568346963 0 1 0 I I #
vertex $-1 $495 $617 #
point $-1 50.493834887947635 -12.979529964614622 5.6144362007166988 #
vertex $-1 $499 $618 #
point $-1 50.493834887947635 -9.6807261829717213 5.6144362007166988 #
straight-curve $-1 -52.734763634144109 23.812641871613504 0 0 0 -1 I I #
point $-1 -52.734763634144109 -23.812641871613504 -8.6718073568346963 #
straight-curve $-1 -52.734763634144109 0 -8.6718073568346963 0 1 0 I I #
point $-1 -52.734763634144109 23.812641871613504 -8.6718073568346963 #
coedge $-1 $534 $522 $531 $594 forward $400 $-1 #
vertex $-1 $523 $619 #
straight-curve $-1 -52.734763634144109 0 8.6718073568346963 0 -1 0 I I #
point $-1 -52.734763634144109 -15.17873248570989 8.6718073568346963 #
straight-curve $-1 0 -15.17873248570989 8.6718073568346963 -1 0 0 I I #
point $-1 52.734763634144109 -15.17873248570989 8.6718073568346963 #
edge $-1 $589 -52.734763634144109 $536 52.734763634144109 $531 $620 forward 7 unknown #
straight-curve $-1 -52.734763634144109 -23.812641871613504 0 0 0 -1 I I #
straight-curve $-1 52.734763634144109 0 8.6718073568346963 0 1 0 I I #
point $-1 52.734763634144109 -23.812641871613504 8.6718073568346963 #
straight-curve $-1 -52.734763634144109 -1.1171573267004131 37.115060584718805 0 0 -1 I I #
point $-1 -52.734763634144109 -1.1171573267004131 8.6718073568346963 #
straight-curve $-1 -52.734763634144109 -2.3825560481208488 0.96483212399658935 0 -1 0 I I #
point $-1 -52.734763634144109 -1.1171573267004131 0.96483212399659357 #
point $-1 -47.302408351580482 -6.9538849579664692 3.1659435883564901 #
point $-1 -47.302408351580482 -4.7651120962416975 3.1659435883564901 #
point $-1 -47.302408351580482 -2.5763392345169258 3.1659435883564901 #
straight-curve $-1 -52.734763634144109 17.046976251686601 37.115060584718805 0 0 -1 I I #
point $-1 -52.734763634144109 17.046976251686601 8.6718073568346963 #
straight-curve $-1 -52.734763634144109 6.6995107410726593 0.96483212399658935 0 -1 0 I I #
point $-1 -52.734763634144109 17.046976251686601 0.96483212399659357 #
point $-1 -47.302408351580482 11.210248620420547 3.1659435883564901 #
point $-1 -47.302408351580482 13.399021482145319 3.1659435883564901 #
point $-1 -47.302408351580482 15.58779434387009 3.1659435883564901 #
straight-curve $-1 52.734763634144109 -15.17873248570989 76.873897547141425 0 0 -1 I I #
straight-curve $-1 0 -15.17873248570989 8.6718073568346963 1 0 0 I I #
point $-1 52.734763634144109 -15.17873248570989 4.7957730225062392 #
straight-curve $-1 52.734763634144116 -5.6650640368965863 4.7957730225062321 0 1 0 I I #
point $-1 52.734763634144109 -15.17873248570989 8.6718073568346963 #
point $-1 49.787697172487512 -12.979529964614622 5.6514433190151658 #
point $-1 49.787697172487512 -9.6807261829717213 5.6514433190151658 #
point $-1 -52.734763634144109 -23.812641871613504 8.6718073568346963 #
straight-curve $-1 0 -23.812641871613504 8.6718073568346963 1 0 0 I I #
End-of-ACIS-data 