500 0 9 0           
7 Unknown 11 ACIS 5.0 NT 24 Thu Mar 25 23:05:16 1999 
-1 9.9999999999999995e-007 1e-010 
body $-1 $9 $-1 $10 #
body $-1 $11 $-1 $12 #
body $-1 $13 $-1 $14 #
body $-1 $15 $-1 $16 #
body $-1 $17 $-1 $18 #
body $-1 $19 $-1 $20 #
body $-1 $21 $-1 $22 #
body $-1 $23 $-1 $24 #
body $-1 $25 $-1 $26 #
lump $-1 $-1 $27 $0 #
transform $-1 1 0 0 0 1 0 0 0 1 58.536942655720694 36.872717981760331 11.986362197525454 1 rotate no_reflect no_shear #
lump $-1 $-1 $28 $1 #
transform $-1 1 0 0 0 1 0 0 0 1 58.536942655720694 36.872717981760331 11.986362197525454 1 rotate no_reflect no_shear #
lump $-1 $-1 $29 $2 #
transform $-1 1 0 0 0 1 0 0 0 1 58.536942655720694 36.872717981760331 11.986362197525454 1 rotate no_reflect no_shear #
lump $-1 $-1 $30 $3 #
transform $-1 1 0 0 0 1 0 0 0 1 58.536942655720694 36.872717981760331 11.986362197525454 1 rotate no_reflect no_shear #
lump $-1 $-1 $31 $4 #
transform $-1 1 0 0 0 1 0 0 0 1 58.536942655720694 36.872717981760331 11.986362197525454 1 rotate no_reflect no_shear #
lump $-1 $-1 $32 $5 #
transform $-1 1 0 0 0 1 0 0 0 1 58.536942655720694 36.872717981760331 11.986362197525454 1 rotate no_reflect no_shear #
lump $-1 $-1 $33 $6 #
transform $-1 1 0 0 0 1 0 0 0 1 58.536942655720694 36.872717981760331 11.986362197525454 1 rotate no_reflect no_shear #
lump $-1 $-1 $34 $7 #
transform $-1 1 0 0 0 1 0 0 0 1 58.536942655720694 36.872717981760331 11.986362197525454 1 rotate no_reflect no_shear #
lump $-1 $-1 $35 $8 #
transform $-1 1 0 0 0 1 0 0 0 1 58.536942655720694 36.872717981760331 11.986362197525454 1 rotate no_reflect no_shear #
shell $-1 $-1 $-1 $36 $-1 $9 #
shell $-1 $-1 $-1 $37 $-1 $11 #
shell $-1 $-1 $-1 $38 $-1 $13 #
shell $-1 $-1 $-1 $39 $-1 $15 #
shell $-1 $-1 $-1 $40 $-1 $17 #
shell $-1 $-1 $-1 $41 $-1 $19 #
shell $-1 $-1 $-1 $42 $-1 $21 #
shell $-1 $-1 $-1 $43 $-1 $23 #
shell $-1 $-1 $-1 $44 $-1 $25 #
face $-1 $45 $46 $27 $-1 $47 forward single #
face $-1 $48 $49 $28 $-1 $50 reversed single #
face $-1 $51 $52 $29 $-1 $53 reversed single #
face $-1 $54 $55 $30 $-1 $56 forward single #
face $-1 $57 $58 $31 $-1 $59 forward single #
face $-1 $60 $61 $32 $-1 $62 forward single #
face $-1 $63 $64 $33 $-1 $65 reversed single #
face $-1 $66 $67 $34 $-1 $68 forward single #
face $-1 $69 $70 $35 $-1 $71 forward single #
face $-1 $72 $73 $27 $-1 $74 reversed single #
loop $-1 $-1 $75 $36 #
plane-surface $-1 0 0 11.986362197525454 0 0 1 1 0 0 forward_v I I I I #
face $-1 $76 $77 $28 $-1 $78 reversed single #
loop $-1 $-1 $79 $37 #
plane-surface $-1 -53.659535422360605 0 5.0241246670642266 0 0 1 1 0 0 forward_v I I I I #
face $-1 $80 $81 $29 $-1 $82 reversed single #
loop $-1 $-1 $83 $38 #
plane-surface $-1 38.53485831611691 41.201867823815277 147.05503423623617 1 0 0 0 -0.55919291073839883 -0.82903756765294845 forward_v I I I I #
face $-1 $84 $85 $30 $-1 $86 forward single #
loop $-1 $87 $88 $39 #
cone-surface $-1 42.535275184037673 33.408294444974594 8.7836354433569639 0 -0.55919291073839883 -0.82903756765294845 1 0 0 1 I I 0 1 1 forward I I I I #
face $-1 $89 $90 $31 $-1 $91 forward single #
loop $-1 $92 $93 $40 #
cone-surface $-1 48.535900485918802 33.408294444974594 8.7836354433569639 0 -0.55919291073839883 -0.82903756765294845 1 0 0 1 I I 0 1 1 forward I I I I #
face $-1 $94 $95 $32 $-1 $96 forward single #
loop $-1 $97 $98 $41 #
cone-surface $-1 54.536525787799931 33.408294444974594 8.7836354433569639 0 -0.55919291073839883 -0.82903756765294845 1 0 0 1 I I 0 1 1 forward I I I I #
face $-1 $99 $100 $33 $-1 $101 reversed single #
loop $-1 $-1 $102 $42 #
plane-surface $-1 -35.032598926032222 -36.872717981760346 7.5950900203946077 0 -0.5877852598018023 0.80901698891910034 1 0 0 forward_v I I I I #
face $-1 $103 $104 $34 $-1 $105 forward single #
loop $-1 $106 $107 $43 #
cone-surface $-1 -40.925254324447209 -33.00845272252694 8.6314939194023932 0 0.5877852598018023 -0.80901698891910034 1.5 0 0 1 I I 0 1 1.5 forward I I I I #
face $-1 $108 $109 $35 $-1 $110 forward single #
loop $-1 $111 $112 $44 #
cone-surface $-1 -29.139943527617248 -33.00845272252694 8.6314939194023932 0 0.5877852598018023 -0.80901698891910034 1.5 0 0 1 I I 0 1 1.5 forward I I I I #
face $-1 $113 $114 $27 $-1 $115 reversed single #
loop $-1 $-1 $116 $45 #
plane-surface $-1 0 0 -11.986362197525454 0 0 1 1 0 0 forward_v I I I I #
coedge $-1 $117 $118 $119 $120 forward $46 $-1 #
face $-1 $121 $122 $28 $-1 $123 reversed single #
loop $-1 $-1 $124 $48 #
plane-surface $-1 -48.782128189000517 0 8.5052434322948383 -1 0 0 0 0 1 forward_v I I I I #
coedge $-1 $125 $126 $127 $128 forward $49 $-1 #
face $-1 $129 $130 $29 $-1 $131 forward single #
loop $-1 $-1 $132 $51 #
plane-surface $-1 48.535900485918802 -24.265018874943109 49.996385121958554 0 0.55919291073839883 0.82903756765294845 1 0 0 forward_v I I I I #
coedge $-1 $133 $134 $135 $136 reversed $52 $-1 #
face $-1 $-1 $137 $30 $-1 $138 forward single #
loop $-1 $139 $140 $54 #
cone-surface $-1 42.535275184037673 32.057055213952523 6.780340938202114 0 -0.55919291073839883 -0.82903756765294845 0.5 0 0 1 I I -0.70710678118654746 0.70710678118654746 0.5 forward I I I I #
loop $-1 $-1 $141 $39 #
coedge $-1 $88 $88 $142 $143 reversed $55 $-1 #
face $-1 $-1 $144 $31 $-1 $145 forward single #
loop $-1 $146 $147 $57 #
cone-surface $-1 48.535900485918802 32.057055213952523 6.780340938202114 0 -0.55919291073839883 -0.82903756765294845 0.5 0 0 1 I I -0.70710678118654746 0.70710678118654746 0.5 forward I I I I #
loop $-1 $-1 $148 $40 #
coedge $-1 $93 $93 $149 $150 reversed $58 $-1 #
face $-1 $-1 $151 $32 $-1 $152 forward single #
loop $-1 $153 $154 $60 #
cone-surface $-1 54.536525787799931 32.057055213952523 6.780340938202114 0 -0.55919291073839883 -0.82903756765294845 0.5 0 0 1 I I -0.70710678118654746 0.70710678118654746 0.5 forward I I I I #
loop $-1 $-1 $155 $41 #
coedge $-1 $98 $98 $156 $157 reversed $61 $-1 #
face $-1 $158 $159 $33 $-1 $160 forward single #
loop $-1 $-1 $161 $63 #
plane-surface $-1 -21.283069663063937 -105.68702207555232 102.30985219611701 -1 0 0 0 -0.5877852598018023 0.80901698891910034 forward_v I I I I #
coedge $-1 $162 $163 $164 $165 reversed $64 $-1 #
face $-1 $-1 $166 $34 $-1 $167 forward single #
loop $-1 $168 $169 $66 #
cone-surface $-1 -40.925254324447209 -31.725382275689313 6.8654989881554283 0 0.5877852598018023 -0.80901698891910034 0.75 0 0 1 I I -0.70710678118654757 0.70710678118654757 0.75 forward I I I I #
loop $-1 $-1 $170 $43 #
coedge $-1 $107 $107 $171 $172 reversed $67 $-1 #
face $-1 $-1 $173 $35 $-1 $174 forward single #
loop $-1 $175 $176 $69 #
cone-surface $-1 -29.139943527617248 -31.725382275689313 6.8654989881554283 0 0.5877852598018023 -0.80901698891910034 0.75 0 0 1 I I -0.70710678118654757 0.70710678118654757 0.75 forward I I I I #
loop $-1 $-1 $177 $44 #
coedge $-1 $112 $112 $178 $179 reversed $70 $-1 #
face $-1 $180 $181 $27 $-1 $182 reversed single #
loop $-1 $-1 $183 $72 #
plane-surface $-1 0 -36.872717981760331 0 0 1 0 0 0 1 forward_v I I I I #
coedge $-1 $184 $185 $186 $187 forward $73 $-1 #
coedge $-1 $188 $75 $189 $190 forward $46 $-1 #
coedge $-1 $75 $188 $191 $192 forward $46 $-1 #
coedge $-1 $193 $194 $75 $120 reversed $195 $-1 #
edge $-1 $196 -36.872717981760331 $197 36.872717981760331 $119 $198 forward 7 unknown #
face $-1 $199 $200 $28 $-1 $201 reversed single #
loop $-1 $-1 $202 $76 #
plane-surface $-1 0 36.872717981760331 0 0 -1 0 0 0 -1 forward_v I I I I #
coedge $-1 $127 $203 $204 $205 reversed $77 $-1 #
coedge $-1 $206 $79 $207 $208 reversed $49 $-1 #
coedge $-1 $79 $206 $209 $210 reversed $49 $-1 #
coedge $-1 $211 $124 $79 $128 reversed $77 $-1 #
edge $-1 $212 -36.872717981760331 $213 36.872717981760331 $127 $214 forward 7 unknown #
face $-1 $215 $216 $29 $-1 $217 reversed single #
loop $-1 $-1 $135 $80 #
plane-surface $-1 0 0 11.986362197525454 0 0 1 1 0 0 forward_v I I I I #
coedge $-1 $218 $219 $220 $221 reversed $81 $-1 #
coedge $-1 $134 $83 $222 $223 reversed $52 $-1 #
coedge $-1 $83 $133 $218 $224 reversed $52 $-1 #
coedge $-1 $220 $225 $83 $136 forward $130 $-1 #
edge $-1 $226 -16.271784069852693 $227 -11.486222547586969 $135 $228 forward 7 unknown #
loop $-1 $-1 $142 $84 #
plane-surface $-1 48.535900485918802 -24.265018874943109 49.996385121958554 0 0.55919291073839883 0.82903756765294845 1 0 0 forward_v I I I I #
loop $-1 $-1 $229 $54 #
coedge $-1 $140 $140 $141 $230 reversed $85 $-1 #
coedge $-1 $141 $141 $140 $230 forward $87 $-1 #
coedge $-1 $142 $142 $88 $143 forward $137 $-1 #
edge $-1 $231 9.9332615153428852e-016 $231 6.2831853071796013 $142 $232 forward 7 unknown #
loop $-1 $-1 $149 $89 #
plane-surface $-1 48.535900485918802 -24.265018874943109 49.996385121958554 0 0.55919291073839883 0.82903756765294845 1 0 0 forward_v I I I I #
loop $-1 $-1 $233 $57 #
coedge $-1 $147 $147 $148 $234 reversed $90 $-1 #
coedge $-1 $148 $148 $147 $234 forward $92 $-1 #
coedge $-1 $149 $149 $93 $150 forward $144 $-1 #
edge $-1 $235 9.9332615153428852e-016 $235 6.2831853071796013 $149 $236 forward 7 unknown #
loop $-1 $-1 $156 $94 #
plane-surface $-1 48.535900485918802 -24.265018874943109 49.996385121958554 0 0.55919291073839883 0.82903756765294845 1 0 0 forward_v I I I I #
loop $-1 $-1 $237 $60 #
coedge $-1 $154 $154 $155 $238 reversed $95 $-1 #
coedge $-1 $155 $155 $154 $238 forward $97 $-1 #
coedge $-1 $156 $156 $98 $157 forward $151 $-1 #
edge $-1 $239 9.9332615153428852e-016 $239 6.2831853071796013 $156 $240 forward 7 unknown #
face $-1 $241 $242 $33 $-1 $243 reversed single #
loop $-1 $-1 $244 $99 #
plane-surface $-1 -48.782128189000517 0 8.5052434322948383 -1 0 0 0 0 1 forward_v I I I I #
coedge $-1 $245 $246 $247 $248 reversed $100 $-1 #
coedge $-1 $249 $102 $244 $250 reversed $64 $-1 #
coedge $-1 $102 $249 $245 $251 forward $64 $-1 #
coedge $-1 $247 $252 $102 $165 forward $242 $-1 #
edge $-1 $253 -31.265828725984406 $254 -3.7667702000478265 $164 $255 forward 7 unknown #
loop $-1 $-1 $171 $103 #
plane-surface $-1 -35.032598926032222 -36.872717981760346 7.5950900203946077 0 -0.5877852598018023 0.80901698891910034 1 0 0 forward_v I I I I #
loop $-1 $-1 $256 $66 #
coedge $-1 $169 $169 $170 $257 reversed $104 $-1 #
coedge $-1 $170 $170 $169 $257 forward $106 $-1 #
coedge $-1 $171 $171 $107 $172 forward $166 $-1 #
edge $-1 $258 3.5188640939455945e-016 $258 6.2831853071796004 $171 $259 forward 7 unknown #
loop $-1 $-1 $178 $108 #
plane-surface $-1 -35.032598926032222 -36.872717981760346 7.5950900203946077 0 -0.5877852598018023 0.80901698891910034 1 0 0 forward_v I I I I #
loop $-1 $-1 $260 $69 #
coedge $-1 $176 $176 $177 $261 reversed $109 $-1 #
coedge $-1 $177 $177 $176 $261 forward $111 $-1 #
coedge $-1 $178 $178 $112 $179 forward $173 $-1 #
edge $-1 $262 3.5188640939455945e-016 $262 6.2831853071796004 $178 $263 forward 7 unknown #
face $-1 $264 $265 $27 $-1 $266 reversed single #
loop $-1 $-1 $267 $113 #
plane-surface $-1 -58.536942655720694 0 0 1 0 0 0 0 -1 forward_v I I I I #
coedge $-1 $268 $191 $269 $270 forward $114 $-1 #
coedge $-1 $271 $116 $268 $272 forward $73 $-1 #
coedge $-1 $116 $271 $273 $274 forward $73 $-1 #
coedge $-1 $194 $193 $116 $187 reversed $195 $-1 #
edge $-1 $275 -36.872717981760331 $276 36.872717981760331 $186 $277 forward 7 unknown #
coedge $-1 $118 $117 $278 $279 forward $46 $-1 #
coedge $-1 $280 $281 $117 $190 reversed $265 $-1 #
edge $-1 $197 -58.536942655720694 $282 58.536942655720694 $189 $283 forward 7 unknown #
coedge $-1 $183 $284 $118 $192 reversed $114 $-1 #
edge $-1 $285 -58.536942655720694 $196 58.536942655720694 $191 $286 forward 7 unknown #
coedge $-1 $186 $119 $284 $287 forward $195 $-1 #
coedge $-1 $119 $186 $280 $288 reversed $195 $-1 #
loop $-1 $-1 $193 $264 #
vertex $-1 $120 $289 #
vertex $-1 $120 $290 #
straight-curve $-1 58.536942655720694 0 11.986362197525454 0 1 0 I I #
face $-1 $291 $292 $28 $-1 $293 forward single #
loop $-1 $-1 $294 $121 #
plane-surface $-1 -58.536942655720694 0 0 1 0 0 0 0 -1 forward_v I I I I #
coedge $-1 $209 $295 $211 $296 forward $122 $-1 #
coedge $-1 $124 $211 $297 $298 reversed $77 $-1 #
coedge $-1 $299 $207 $124 $205 forward $300 $-1 #
edge $-1 $213 0.77150295091680743 $301 7.7337404813780308 $204 $302 forward 7 unknown #
coedge $-1 $126 $125 $294 $303 reversed $49 $-1 #
coedge $-1 $204 $304 $125 $208 forward $300 $-1 #
edge $-1 $305 -31.707174944540391 $213 -21.952360477820214 $207 $306 forward 7 unknown #
coedge $-1 $307 $202 $126 $210 forward $122 $-1 #
edge $-1 $212 21.952360477820214 $308 31.707174944540391 $209 $309 forward 7 unknown #
coedge $-1 $203 $127 $202 $296 reversed $77 $-1 #
vertex $-1 $210 $310 #
vertex $-1 $208 $311 #
straight-curve $-1 -48.782128189000517 0 5.0241246670642266 0 -1 0 I I #
face $-1 $-1 $312 $29 $-1 $313 reversed single #
loop $-1 $-1 $314 $129 #
plane-surface $-1 58.536942655720694 0 0 -1 0 0 0 0 1 forward_v I I I I #
coedge $-1 $315 $132 $134 $224 forward $81 $-1 #
coedge $-1 $132 $315 $314 $316 reversed $81 $-1 #
coedge $-1 $317 $135 $132 $221 forward $130 $-1 #
edge $-1 $227 14.266908073157509 $318 34.268992412761293 $220 $319 forward 7 unknown #
coedge $-1 $320 $321 $133 $223 forward $312 $-1 #
edge $-1 $322 -64.769056986272844 $226 -61.541154920592632 $222 $323 forward 7 unknown #
edge $-1 $227 67.973005727561741 $322 73.745435963520663 $134 $324 forward 7 unknown #
coedge $-1 $135 $317 $320 $325 forward $130 $-1 #
vertex $-1 $223 $326 #
vertex $-1 $136 $327 #
straight-curve $-1 38.53485831611691 20.600933911907639 11.986362197525452 0 -1 0 I I #
coedge $-1 $229 $229 $-1 $328 reversed $139 $-1 #
edge $-1 $329 0 $329 6.2831853071796004 $140 $330 forward 7 unknown #
vertex $-1 $143 $331 #
ellipse-curve $-1 42.535275184037673 34.47993722062747 10.372411164685342 0 0.55919291073839883 0.82903756765294845 1 0 0 1 I I #
coedge $-1 $233 $233 $-1 $332 reversed $146 $-1 #
edge $-1 $333 0 $333 6.2831853071796004 $147 $334 forward 7 unknown #
vertex $-1 $150 $335 #
ellipse-curve $-1 48.535900485918802 34.47993722062747 10.372411164685342 0 0.55919291073839883 0.82903756765294845 1 0 0 1 I I #
coedge $-1 $237 $237 $-1 $336 reversed $153 $-1 #
edge $-1 $337 0 $337 6.2831853071796004 $154 $338 forward 7 unknown #
vertex $-1 $157 $339 #
ellipse-curve $-1 54.536525787799931 34.47993722062747 10.372411164685342 0 0.55919291073839883 0.82903756765294845 1 0 0 1 I I #
face $-1 $-1 $340 $33 $-1 $341 forward single #
loop $-1 $-1 $164 $158 #
plane-surface $-1 0 -36.872717981760331 0 0 1 0 0 0 1 forward_v I I I I #
coedge $-1 $342 $343 $162 $250 forward $159 $-1 #
coedge $-1 $246 $161 $163 $251 reversed $100 $-1 #
coedge $-1 $161 $245 $344 $345 reversed $100 $-1 #
coedge $-1 $346 $164 $161 $248 forward $242 $-1 #
edge $-1 $254 -43.559836077663888 $347 -39.168563900533051 $247 $348 forward 7 unknown #
coedge $-1 $163 $162 $349 $350 reversed $64 $-1 #
edge $-1 $351 7.7119366583749507 $253 15.18281501727008 $244 $352 forward 7 unknown #
edge $-1 $353 -7.4708783588951473 $254 -1.7761521089745031e-014 $245 $354 forward 7 unknown #
coedge $-1 $164 $346 $342 $355 forward $242 $-1 #
vertex $-1 $250 $356 #
vertex $-1 $165 $357 #
straight-curve $-1 -17.516299463016111 -36.872717981760331 7.5950900203946174 1 0 0 I I #
coedge $-1 $256 $256 $-1 $358 reversed $168 $-1 #
edge $-1 $359 0 $359 6.2831853071796004 $169 $360 forward 7 unknown #
vertex $-1 $172 $361 #
ellipse-curve $-1 -40.925254324447209 -33.850684224513223 9.7907261089600404 0 -0.5877852598018023 0.80901698891910034 1.5 0 0 1 I I #
coedge $-1 $260 $260 $-1 $362 reversed $175 $-1 #
edge $-1 $363 0 $363 6.2831853071796004 $176 $364 forward 7 unknown #
vertex $-1 $179 $365 #
ellipse-curve $-1 -29.139943527617248 -33.850684224513223 9.7907261089600404 0 -0.5877852598018023 0.80901698891910034 1.5 0 0 1 I I #
face $-1 $-1 $195 $27 $-1 $366 reversed single #
loop $-1 $-1 $280 $180 #
plane-surface $-1 0 36.872717981760331 0 0 -1 0 0 0 -1 forward_v I I I I #
coedge $-1 $367 $278 $281 $368 forward $181 $-1 #
coedge $-1 $284 $183 $184 $272 reversed $114 $-1 #
coedge $-1 $278 $367 $183 $270 reversed $181 $-1 #
edge $-1 $285 -11.986362197525454 $369 11.986362197525454 $269 $370 forward 7 unknown #
coedge $-1 $185 $184 $367 $371 forward $73 $-1 #
edge $-1 $276 -58.536942655720694 $369 58.536942655720694 $268 $372 forward 7 unknown #
coedge $-1 $281 $280 $185 $274 reversed $265 $-1 #
edge $-1 $373 -58.536942655720694 $275 58.536942655720694 $273 $374 forward 7 unknown #
vertex $-1 $187 $375 #
vertex $-1 $287 $376 #
straight-curve $-1 58.536942655720694 0 -11.986362197525454 0 -1 0 I I #
coedge $-1 $267 $269 $188 $279 reversed $181 $-1 #
edge $-1 $282 -36.872717981760331 $285 36.872717981760331 $278 $377 forward 7 unknown #
coedge $-1 $273 $189 $194 $288 forward $265 $-1 #
coedge $-1 $189 $273 $267 $368 reversed $265 $-1 #
vertex $-1 $190 $378 #
straight-curve $-1 0 36.872717981760331 11.986362197525454 -1 0 0 I I #
coedge $-1 $191 $268 $193 $287 reversed $114 $-1 #
vertex $-1 $279 $379 #
straight-curve $-1 0 -36.872717981760331 11.986362197525454 1 0 0 I I #
edge $-1 $196 -11.986362197525454 $276 11.986362197525454 $193 $380 forward 7 unknown #
edge $-1 $197 -11.986362197525454 $275 11.986362197525454 $194 $381 forward 7 unknown #
point $-1 58.536942655720694 -36.872717981760331 11.986362197525454 #
point $-1 58.536942655720694 36.872717981760331 11.986362197525454 #
face $-1 $-1 $300 $28 $-1 $382 reversed single #
loop $-1 $-1 $297 $199 #
plane-surface $-1 0 0 11.986362197525454 0 0 1 1 0 0 forward_v I I I I #
coedge $-1 $383 $384 $206 $303 forward $200 $-1 #
coedge $-1 $202 $307 $385 $386 reversed $122 $-1 #
edge $-1 $387 -7.7337404813780308 $212 -0.77150295091680743 $202 $388 forward 7 unknown #
coedge $-1 $385 $389 $203 $298 forward $292 $-1 #
edge $-1 $301 -36.872717981760331 $387 36.872717981760331 $297 $390 forward 7 unknown #
coedge $-1 $304 $204 $389 $391 reversed $300 $-1 #
loop $-1 $-1 $204 $291 #
vertex $-1 $205 $392 #
straight-curve $-1 -48.782128189000517 -36.872717981760331 4.2526217161474191 0 0 1 I I #
edge $-1 $308 -36.872717981760331 $305 36.872717981760331 $294 $393 forward 7 unknown #
coedge $-1 $207 $299 $383 $394 forward $300 $-1 #
vertex $-1 $303 $395 #
straight-curve $-1 -26.829767711180303 -36.872717981760331 5.0241246670642266 1 0 0 I I #
coedge $-1 $295 $209 $384 $396 reversed $122 $-1 #
vertex $-1 $303 $397 #
straight-curve $-1 -26.829767711180303 36.872717981760331 5.0241246670642266 -1 0 0 I I #
point $-1 -48.782128189000517 36.872717981760331 5.0241246670642266 #
point $-1 -48.782128189000517 -36.872717981760331 5.0241246670642266 #
loop $-1 $-1 $222 $215 #
plane-surface $-1 0 36.872717981760331 0 0 -1 0 0 0 -1 forward_v I I I I #
coedge $-1 $398 $399 $219 $316 forward $216 $-1 #
coedge $-1 $219 $218 $321 $400 reversed $81 $-1 #
edge $-1 $318 43.935887552620883 $401 49.708317788579812 $314 $402 forward 7 unknown #
coedge $-1 $225 $220 $399 $403 forward $130 $-1 #
vertex $-1 $403 $404 #
straight-curve $-1 24.267950242959401 32.087156459494608 11.986362197525452 1 0 0 I I #
coedge $-1 $405 $222 $225 $325 reversed $312 $-1 #
coedge $-1 $222 $405 $315 $400 forward $312 $-1 #
vertex $-1 $223 $406 #
straight-curve $-1 38.53485831611691 36.872717981760331 73.527517118118084 0 0 1 I I #
straight-curve $-1 38.53485831611691 -24.265018874943109 49.996385121958554 0 0.82903756765294845 -0.55919291073839883 I I #
edge $-1 $407 -58.536942655720694 $226 -38.53485831611691 $320 $408 forward 7 unknown #
point $-1 38.53485831611691 36.872717981760331 11.986362197525454 #
point $-1 38.53485831611691 32.087156459494608 11.986362197525452 #
edge $-1 $409 1 $409 0 $229 $-1 forward 7 unknown #
vertex $-1 $230 $410 #
ellipse-curve $-1 42.535275184037673 32.336651669321725 7.1948597220285881 0 0.55919291073839883 0.82903756765294845 1 0 0 1 I I #
point $-1 43.535275184037673 34.47993722062747 10.372411164685341 #
edge $-1 $411 1 $411 0 $233 $-1 forward 7 unknown #
vertex $-1 $234 $412 #
ellipse-curve $-1 48.535900485918802 32.336651669321725 7.1948597220285881 0 0.55919291073839883 0.82903756765294845 1 0 0 1 I I #
point $-1 49.535900485918802 34.47993722062747 10.372411164685341 #
edge $-1 $413 1 $413 0 $237 $-1 forward 7 unknown #
vertex $-1 $238 $414 #
ellipse-curve $-1 54.536525787799931 32.336651669321725 7.1948597220285881 0 0.55919291073839883 0.82903756765294845 1 0 0 1 I I #
point $-1 55.536525787799931 34.47993722062747 10.372411164685341 #
loop $-1 $-1 $349 $241 #
plane-surface $-1 0 0 11.986362197525454 0 0 1 1 0 0 forward_v I I I I #
coedge $-1 $343 $244 $252 $355 reversed $159 $-1 #
coedge $-1 $244 $342 $415 $416 reversed $159 $-1 #
coedge $-1 $349 $417 $246 $345 forward $340 $-1 #
edge $-1 $347 15.970793056015829 $353 22.014860570510038 $344 $418 forward 7 unknown #
coedge $-1 $252 $247 $417 $419 reversed $242 $-1 #
vertex $-1 $248 $420 #
straight-curve $-1 -21.283069663063937 -36.872717981760331 51.154926098058503 0 0 1 I I #
coedge $-1 $415 $344 $249 $350 forward $340 $-1 #
edge $-1 $353 3.7667702000478265 $351 31.265828725984392 $349 $421 forward 7 unknown #
vertex $-1 $416 $422 #
straight-curve $-1 -48.782128189000517 -24.589562693172791 16.519324889843418 0 -0.80901698891910034 -0.5877852598018023 I I #
vertex $-1 $350 $423 #
straight-curve $-1 -21.283069663063937 -36.872717981760346 7.5950900203946077 0 -0.80901698891910034 -0.5877852598018023 I I #
edge $-1 $424 -7.7337404813780308 $253 -3.3424683042471992 $252 $425 forward 7 unknown #
point $-1 -48.782128189000517 -36.872717981760331 7.5950900203946183 #
point $-1 -21.283069663063937 -36.872717981760331 7.5950900203946183 #
edge $-1 $426 1 $426 0 $256 $-1 forward 7 unknown #
vertex $-1 $257 $427 #
ellipse-curve $-1 -40.925254324447209 -32.166221220540663 7.4722617298447531 0 -0.5877852598018023 0.80901698891910034 1.5 0 0 1 I I #
point $-1 -39.425254324447209 -33.850684224513216 9.7907261089600315 #
edge $-1 $428 1 $428 0 $260 $-1 forward 7 unknown #
vertex $-1 $261 $429 #
ellipse-curve $-1 -29.139943527617248 -32.166221220540663 7.4722617298447531 0 -0.5877852598018023 0.80901698891910034 1.5 0 0 1 I I #
point $-1 -27.639943527617248 -33.850684224513216 9.7907261089600315 #
plane-surface $-1 58.536942655720694 0 0 -1 0 0 0 0 1 forward_v I I I I #
coedge $-1 $269 $267 $271 $371 reversed $181 $-1 #
edge $-1 $282 -11.986362197525454 $373 11.986362197525454 $281 $430 forward 7 unknown #
vertex $-1 $371 $431 #
straight-curve $-1 -58.536942655720694 -36.872717981760331 0 0 0 -1 I I #
edge $-1 $369 -36.872717981760331 $373 36.872717981760331 $367 $432 forward 7 unknown #
straight-curve $-1 0 -36.872717981760331 -11.986362197525454 -1 0 0 I I #
vertex $-1 $274 $433 #
straight-curve $-1 0 36.872717981760331 -11.986362197525454 1 0 0 I I #
point $-1 58.536942655720694 36.872717981760331 -11.986362197525454 #
point $-1 58.536942655720694 -36.872717981760331 -11.986362197525454 #
straight-curve $-1 -58.536942655720694 0 11.986362197525454 0 -1 0 I I #
point $-1 -58.536942655720694 36.872717981760331 11.986362197525454 #
point $-1 -58.536942655720694 -36.872717981760331 11.986362197525454 #
straight-curve $-1 58.536942655720694 -36.872717981760331 0 0 0 -1 I I #
straight-curve $-1 58.536942655720694 36.872717981760331 0 0 0 -1 I I #
plane-surface $-1 0 -36.872717981760331 0 0 1 0 0 0 1 forward_v I I I I #
coedge $-1 $434 $294 $304 $394 reversed $200 $-1 #
coedge $-1 $294 $434 $307 $396 forward $200 $-1 #
coedge $-1 $435 $297 $295 $386 forward $292 $-1 #
edge $-1 $387 48.782128189000517 $436 58.536942655720694 $295 $437 forward 7 unknown #
vertex $-1 $386 $438 #
straight-curve $-1 -48.782128189000517 36.872717981760331 4.2526217161474191 0 0 -1 I I #
coedge $-1 $297 $435 $299 $391 forward $292 $-1 #
straight-curve $-1 -48.782128189000517 0 11.986362197525454 0 1 0 I I #
edge $-1 $439 -58.536942655720694 $301 -48.782128189000517 $299 $440 forward 7 unknown #
point $-1 -48.782128189000517 -36.872717981760331 11.98636219752545 #
straight-curve $-1 -58.536942655720694 0 5.0241246670642266 0 -1 0 I I #
edge $-1 $439 -11.986362197525454 $305 -5.0241246670642266 $383 $441 forward 7 unknown #
point $-1 -58.536942655720694 -36.872717981760331 5.0241246670642266 #
edge $-1 $436 -11.986362197525454 $308 -5.0241246670642266 $307 $442 forward 7 unknown #
point $-1 -58.536942655720694 36.872717981760331 5.0241246670642266 #
coedge $-1 $399 $314 $405 $443 reversed $216 $-1 #
coedge $-1 $314 $398 $317 $403 reversed $216 $-1 #
edge $-1 $401 -34.268992412761293 $322 -14.266908073157509 $321 $444 forward 7 unknown #
vertex $-1 $316 $445 #
straight-curve $-1 58.536942655720694 -4.3373448898036671 36.554999043950509 0 0.82903756765294845 -0.55919291073839883 I I #
edge $-1 $318 32.087156459494608 $407 36.872717981760331 $399 $446 forward 7 unknown #
point $-1 58.536942655720694 32.087156459494608 11.986362197525452 #
coedge $-1 $321 $320 $398 $443 forward $312 $-1 #
point $-1 38.53485831611691 36.872717981760331 8.75846013184524 #
vertex $-1 $403 $447 #
straight-curve $-1 0 36.872717981760331 11.986362197525454 -1 0 0 I I #
vertex $-1 $328 $448 #
point $-1 43.535275184037673 32.336651669321725 7.1948597220285881 #
vertex $-1 $332 $449 #
point $-1 49.535900485918802 32.336651669321725 7.1948597220285881 #
vertex $-1 $336 $450 #
point $-1 55.536525787799931 32.336651669321725 7.1948597220285881 #
coedge $-1 $417 $349 $343 $416 forward $340 $-1 #
edge $-1 $351 30.828650467266122 $424 36.872717981760331 $415 $451 forward 7 unknown #
coedge $-1 $344 $415 $346 $419 forward $340 $-1 #
straight-curve $-1 -21.283069663063937 -52.84351103777616 11.986362197525452 0 1 0 I I #
edge $-1 $424 -48.782128189000517 $347 -21.283069663063937 $346 $452 forward 7 unknown #
point $-1 -21.283069663063937 -36.872717981760331 11.986362197525454 #
straight-curve $-1 -17.516299463016111 -30.828650467266122 11.986362197525454 -1 0 0 I I #
point $-1 -48.782128189000503 -30.828650467266122 11.986362197525454 #
point $-1 -21.283069663063937 -30.828650467266122 11.986362197525454 #
vertex $-1 $419 $453 #
straight-curve $-1 -48.782128189000517 -36.872717981760331 4.2526217161474191 0 0 -1 I I #
vertex $-1 $358 $454 #
point $-1 -39.425254324447209 -32.166221220540663 7.4722617298447531 #
vertex $-1 $362 $455 #
point $-1 -27.639943527617248 -32.166221220540663 7.4722617298447531 #
straight-curve $-1 -58.536942655720694 36.872717981760331 0 0 0 -1 I I #
point $-1 -58.536942655720694 -36.872717981760331 -11.986362197525454 #
straight-curve $-1 -58.536942655720694 0 -11.986362197525454 0 1 0 I I #
point $-1 -58.536942655720694 36.872717981760331 -11.986362197525454 #
coedge $-1 $384 $383 $435 $456 reversed $200 $-1 #
coedge $-1 $389 $385 $434 $456 forward $292 $-1 #
vertex $-1 $386 $457 #
straight-curve $-1 0 36.872717981760331 11.986362197525454 -1 0 0 I I #
point $-1 -48.782128189000517 36.872717981760331 11.98636219752545 #
vertex $-1 $456 $458 #
straight-curve $-1 0 -36.872717981760331 11.986362197525454 1 0 0 I I #
straight-curve $-1 -58.536942655720694 -36.872717981760331 0 0 0 -1 I I #
straight-curve $-1 -58.536942655720694 36.872717981760331 0 0 0 -1 I I #
edge $-1 $407 -11.986362197525454 $401 -8.75846013184524 $398 $459 forward 7 unknown #
straight-curve $-1 24.267950242959401 36.872717981760331 8.7584601318452364 -1 0 0 I I #
point $-1 58.536942655720694 36.872717981760331 8.75846013184524 #
straight-curve $-1 58.536942655720694 0 11.986362197525454 0 1 0 I I #
point $-1 58.536942655720694 36.872717981760331 11.986362197525454 #
point $-1 42.535275184037673 31.777458758583325 6.3658221543756399 #
point $-1 48.535900485918802 31.777458758583325 6.3658221543756399 #
point $-1 54.536525787799931 31.777458758583325 6.3658221543756399 #
straight-curve $-1 -48.782128189000517 0 11.986362197525454 0 -1 0 I I #
straight-curve $-1 0 -36.872717981760331 11.986362197525454 1 0 0 I I #
point $-1 -48.782128189000517 -36.872717981760331 11.98636219752545 #
point $-1 -40.925254324447209 -31.284543330837963 6.2587362464661034 #
point $-1 -29.139943527617248 -31.284543330837963 6.2587362464661034 #
edge $-1 $436 -36.872717981760331 $439 36.872717981760331 $434 $460 forward 7 unknown #
point $-1 -58.536942655720694 36.872717981760331 11.986362197525454 #
point $-1 -58.536942655720694 -36.872717981760331 11.986362197525454 #
straight-curve $-1 58.536942655720694 36.872717981760331 0 0 0 -1 I I #
straight-curve $-1 -58.536942655720694 0 11.986362197525454 0 -1 0 I I #
End-of-ACIS-data 