500 0 16 0           
7 Unknown 11 ACIS 5.0 NT 24 Fri Mar 26 14:42:15 1999 
-1 9.9999999999999995e-007 1e-010 
body $-1 $16 $-1 $17 #
body $-1 $18 $-1 $19 #
body $-1 $20 $-1 $21 #
body $-1 $22 $-1 $23 #
body $-1 $24 $-1 $25 #
body $-1 $26 $-1 $27 #
body $-1 $28 $-1 $29 #
body $-1 $30 $-1 $31 #
body $-1 $32 $-1 $33 #
body $-1 $34 $-1 $35 #
body $-1 $36 $-1 $37 #
body $-1 $38 $-1 $39 #
body $-1 $40 $-1 $41 #
body $-1 $42 $-1 $43 #
body $-1 $44 $-1 $45 #
body $-1 $46 $-1 $47 #
lump $-1 $-1 $48 $0 #
transform $-1 1 0 0 0 1 0 0 0 1 64.856715598010197 40.942644972576083 16.565358919764627 1 rotate no_reflect no_shear #
lump $-1 $-1 $49 $1 #
transform $-1 1 0 0 0 1 0 0 0 1 64.856715598010197 40.942644972576083 16.565358919764627 1 rotate no_reflect no_shear #
lump $-1 $-1 $50 $2 #
transform $-1 1 0 0 0 1 0 0 0 1 64.856715598010197 40.942644972576083 16.565358919764627 1 rotate no_reflect no_shear #
lump $-1 $-1 $51 $3 #
transform $-1 1 0 0 0 1 0 0 0 1 64.856715598010197 40.942644972576083 16.565358919764627 1 rotate no_reflect no_shear #
lump $-1 $-1 $52 $4 #
transform $-1 1 0 0 0 1 0 0 0 1 64.856715598010197 40.942644972576083 16.565358919764627 1 rotate no_reflect no_shear #
lump $-1 $-1 $53 $5 #
transform $-1 1 0 0 0 1 0 0 0 1 64.856715598010197 40.942644972576083 16.565358919764627 1 rotate no_reflect no_shear #
lump $-1 $-1 $54 $6 #
transform $-1 1 0 0 0 1 0 0 0 1 64.856715598010197 40.942644972576083 16.565358919764627 1 rotate no_reflect no_shear #
lump $-1 $-1 $55 $7 #
transform $-1 1 0 0 0 1 0 0 0 1 64.856715598010197 40.942644972576083 16.565358919764627 1 rotate no_reflect no_shear #
lump $-1 $-1 $56 $8 #
transform $-1 1 0 0 0 1 0 0 0 1 64.856715598010197 40.942644972576083 16.565358919764627 1 rotate no_reflect no_shear #
lump $-1 $-1 $57 $9 #
transform $-1 1 0 0 0 1 0 0 0 1 64.856715598010197 40.942644972576083 16.565358919764627 1 rotate no_reflect no_shear #
lump $-1 $-1 $58 $10 #
transform $-1 1 0 0 0 1 0 0 0 1 64.856715598010197 40.942644972576083 16.565358919764627 1 rotate no_reflect no_shear #
lump $-1 $-1 $59 $11 #
transform $-1 1 0 0 0 1 0 0 0 1 64.856715598010197 40.942644972576083 16.565358919764627 1 rotate no_reflect no_shear #
lump $-1 $-1 $60 $12 #
transform $-1 1 0 0 0 1 0 0 0 1 64.856715598010197 40.942644972576083 16.565358919764627 1 rotate no_reflect no_shear #
lump $-1 $-1 $61 $13 #
transform $-1 1 0 0 0 1 0 0 0 1 64.856715598010197 40.942644972576083 16.565358919764627 1 rotate no_reflect no_shear #
lump $-1 $-1 $62 $14 #
transform $-1 1 0 0 0 1 0 0 0 1 64.856715598010197 40.942644972576083 16.565358919764627 1 rotate no_reflect no_shear #
lump $-1 $-1 $63 $15 #
transform $-1 1 0 0 0 1 0 0 0 1 64.856715598010197 40.942644972576083 16.565358919764627 1 rotate no_reflect no_shear #
shell $-1 $-1 $-1 $64 $-1 $16 #
shell $-1 $-1 $-1 $65 $-1 $18 #
shell $-1 $-1 $-1 $66 $-1 $20 #
shell $-1 $-1 $-1 $67 $-1 $22 #
shell $-1 $-1 $-1 $68 $-1 $24 #
shell $-1 $-1 $-1 $69 $-1 $26 #
shell $-1 $-1 $-1 $70 $-1 $28 #
shell $-1 $-1 $-1 $71 $-1 $30 #
shell $-1 $-1 $-1 $72 $-1 $32 #
shell $-1 $-1 $-1 $73 $-1 $34 #
shell $-1 $-1 $-1 $74 $-1 $36 #
shell $-1 $-1 $-1 $75 $-1 $38 #
shell $-1 $-1 $-1 $76 $-1 $40 #
shell $-1 $-1 $-1 $77 $-1 $42 #
shell $-1 $-1 $-1 $78 $-1 $44 #
shell $-1 $-1 $-1 $79 $-1 $46 #
face $-1 $80 $81 $48 $-1 $82 forward single #
face $-1 $83 $84 $49 $-1 $85 reversed single #
face $-1 $86 $87 $50 $-1 $88 reversed single #
face $-1 $89 $90 $51 $-1 $91 forward single #
face $-1 $92 $93 $52 $-1 $94 forward single #
face $-1 $95 $96 $53 $-1 $97 forward single #
face $-1 $98 $99 $54 $-1 $100 reversed single #
face $-1 $101 $102 $55 $-1 $103 forward single #
face $-1 $104 $105 $56 $-1 $106 forward single #
face $-1 $107 $108 $57 $-1 $109 forward single #
face $-1 $110 $111 $58 $-1 $112 reversed single #
face $-1 $113 $114 $59 $-1 $115 forward single #
face $-1 $116 $117 $60 $-1 $118 forward single #
face $-1 $119 $120 $61 $-1 $121 reversed single #
face $-1 $122 $123 $62 $-1 $124 forward single #
face $-1 $125 $126 $63 $-1 $127 forward single #
face $-1 $128 $129 $48 $-1 $130 reversed single #
loop $-1 $-1 $131 $64 #
plane-surface $-1 0 0 16.565358919764627 0 0 1 1 0 0 forward_v I I I I #
face $-1 $132 $133 $49 $-1 $134 reversed single #
loop $-1 $-1 $135 $65 #
plane-surface $-1 0 -31.349999355519586 8.4681657780579656 0 0 1 1 0 0 forward_v I I I I #
face $-1 $136 $137 $50 $-1 $138 reversed single #
loop $-1 $-1 $139 $66 #
plane-surface $-1 115.42032225712708 -5.2651771979026112 189.14688861137904 0 -1 0 -0.87461971476443456 0 -0.48480960649040278 forward_v I I I I #
face $-1 $140 $141 $51 $-1 $142 forward single #
loop $-1 $143 $144 $67 #
cone-surface $-1 63.378770345421131 -11.614358133695472 14.445598098105616 -0.87461971476443456 0 -0.48480960649040278 0.12120240162260069 0 -0.21865492869110864 1 I I 0 1 0.25 forward I I I I #
face $-1 $145 $146 $52 $-1 $147 forward single #
loop $-1 $148 $149 $68 #
cone-surface $-1 63.378770345421131 -9.2334152827731479 14.445598098105616 -0.87461971476443456 0 -0.48480960649040278 0.12120240162260069 0 -0.21865492869110864 1 I I 0 1 0.25 forward I I I I #
face $-1 $150 $151 $53 $-1 $152 forward single #
loop $-1 $153 $154 $69 #
cone-surface $-1 63.378770345421131 -6.8524724318508206 14.445598098105616 -0.87461971476443456 0 -0.48480960649040278 0.12120240162260069 0 -0.21865492869110864 1 I I 0 1 0.25 forward I I I I #
face $-1 $155 $156 $54 $-1 $157 reversed single #
loop $-1 $-1 $158 $70 #
plane-surface $-1 115.42032225712708 32.386944601756696 189.14688861137904 0 -1 0 -0.87461971476443456 0 -0.48480960649040278 forward_v I I I I #
face $-1 $159 $160 $55 $-1 $161 forward single #
loop $-1 $162 $163 $71 #
cone-surface $-1 63.378770345421131 26.03776366596383 14.445598098105616 -0.87461971476443456 0 -0.48480960649040278 0.12120240162260069 0 -0.21865492869110864 1 I I 0 1 0.25 forward I I I I #
face $-1 $164 $165 $56 $-1 $166 forward single #
loop $-1 $167 $168 $72 #
cone-surface $-1 63.378770345421131 28.418706516886154 14.445598098105616 -0.87461971476443456 0 -0.48480960649040278 0.12120240162260069 0 -0.21865492869110864 1 I I 0 1 0.25 forward I I I I #
face $-1 $169 $170 $57 $-1 $171 forward single #
loop $-1 $172 $173 $73 #
cone-surface $-1 63.378770345421131 30.799649367808478 14.445598098105616 -0.87461971476443456 0 -0.48480960649040278 0.12120240162260069 0 -0.21865492869110864 1 I I 0 1 0.25 forward I I I I #
face $-1 $174 $175 $58 $-1 $176 reversed single #
loop $-1 $-1 $177 $74 #
plane-surface $-1 -131.66407237988233 -3.6735491056642999 121.05367088460306 0 1 0 -0.51503808176128008 0 0.85716729658548041 forward_v I I I I #
face $-1 $178 $179 $59 $-1 $180 forward single #
loop $-1 $181 $182 $75 #
cone-surface $-1 -58.199728160114368 -0.50611516705584592 11.413241401161306 0.51503808176128008 0 -0.85716729658548041 1.2857509448782207 0 0.77255712264192011 1 I I 0 1 1.5 forward I I I I #
face $-1 $183 $184 $60 $-1 $185 forward single #
loop $-1 $186 $187 $76 #
cone-surface $-1 -58.199728160114368 4.245035740856828 11.413241401161306 0.51503808176128008 0 -0.85716729658548041 1.2857509448782207 0 0.77255712264192011 1 I I 0 1 1.5 forward I I I I #
face $-1 $188 $189 $61 $-1 $190 reversed single #
loop $-1 $-1 $191 $77 #
plane-surface $-1 -131.66407237988233 27.676450249855293 121.05367088460306 0 1 0 -0.51503808176128008 0 0.85716729658548041 forward_v I I I I #
face $-1 $192 $193 $62 $-1 $194 forward single #
loop $-1 $195 $196 $78 #
cone-surface $-1 -58.199728160114368 30.84388418846374 11.413241401161306 0.51503808176128008 0 -0.85716729658548041 1.2857509448782207 0 0.77255712264192011 1 I I 0 1 1.5 forward I I I I #
face $-1 $197 $198 $63 $-1 $199 forward single #
loop $-1 $200 $201 $79 #
cone-surface $-1 -58.199728160114368 35.595035096376414 11.413241401161306 0.51503808176128008 0 -0.85716729658548041 1.2857509448782207 0 0.77255712264192011 1 I I 0 1 1.5 forward I I I I #
face $-1 $202 $203 $48 $-1 $204 reversed single #
loop $-1 $-1 $205 $80 #
plane-surface $-1 0 0 -16.565358919764627 0 0 1 1 0 0 forward_v I I I I #
coedge $-1 $206 $207 $208 $209 forward $81 $-1 #
face $-1 $210 $211 $49 $-1 $212 reversed single #
loop $-1 $-1 $213 $83 #
plane-surface $-1 0 -21.757353738463088 12.516762348911296 0 -1 0 0 0 -1 forward_v I I I I #
coedge $-1 $214 $215 $216 $217 reversed $84 $-1 #
face $-1 $218 $219 $50 $-1 $220 reversed single #
loop $-1 $-1 $221 $86 #
plane-surface $-1 1.9703980633476164 -9.2334152827731515 126.26057107671646 0.87461971476443456 0 0.48480960649040278 0.48480960649040278 0 -0.87461971476443456 forward_v I I I I #
coedge $-1 $222 $223 $224 $225 reversed $87 $-1 #
face $-1 $-1 $226 $51 $-1 $227 forward single #
loop $-1 $228 $229 $89 #
cone-surface $-1 62.832133023693359 -11.614358133695472 14.142592094049114 -0.87461971476443456 0 -0.48480960649040278 0.060601200811300347 0 -0.10932746434555432 1 I I -0.70710678118654746 0.70710678118654746 0.125 forward I I I I #
loop $-1 $-1 $230 $67 #
coedge $-1 $144 $144 $231 $232 reversed $90 $-1 #
face $-1 $-1 $233 $52 $-1 $234 forward single #
loop $-1 $235 $236 $92 #
cone-surface $-1 62.832133023693359 -9.2334152827731479 14.142592094049114 -0.87461971476443456 0 -0.48480960649040278 0.060601200811300347 0 -0.10932746434555432 1 I I -0.70710678118654746 0.70710678118654746 0.125 forward I I I I #
loop $-1 $-1 $237 $68 #
coedge $-1 $149 $149 $238 $239 reversed $93 $-1 #
face $-1 $-1 $240 $53 $-1 $241 forward single #
loop $-1 $242 $243 $95 #
cone-surface $-1 62.832133023693359 -6.8524724318508206 14.142592094049114 -0.87461971476443456 0 -0.48480960649040278 0.060601200811300347 0 -0.10932746434555432 1 I I -0.70710678118654746 0.70710678118654746 0.125 forward I I I I #
loop $-1 $-1 $244 $69 #
coedge $-1 $154 $154 $245 $246 reversed $96 $-1 #
face $-1 $247 $248 $54 $-1 $249 reversed single #
loop $-1 $-1 $250 $98 #
plane-surface $-1 1.9703980633476164 28.418706516886154 126.26057107671646 0.87461971476443456 0 0.48480960649040278 0.48480960649040278 0 -0.87461971476443456 forward_v I I I I #
coedge $-1 $251 $252 $253 $254 reversed $99 $-1 #
face $-1 $-1 $255 $55 $-1 $256 forward single #
loop $-1 $257 $258 $101 #
cone-surface $-1 62.832133023693359 26.03776366596383 14.142592094049114 -0.87461971476443456 0 -0.48480960649040278 0.060601200811300347 0 -0.10932746434555432 1 I I -0.70710678118654746 0.70710678118654746 0.125 forward I I I I #
loop $-1 $-1 $259 $71 #
coedge $-1 $163 $163 $260 $261 reversed $102 $-1 #
face $-1 $-1 $262 $56 $-1 $263 forward single #
loop $-1 $264 $265 $104 #
cone-surface $-1 62.832133023693359 28.418706516886154 14.142592094049114 -0.87461971476443456 0 -0.48480960649040278 0.060601200811300347 0 -0.10932746434555432 1 I I -0.70710678118654746 0.70710678118654746 0.125 forward I I I I #
loop $-1 $-1 $266 $72 #
coedge $-1 $168 $168 $267 $268 reversed $105 $-1 #
face $-1 $-1 $269 $57 $-1 $270 forward single #
loop $-1 $271 $272 $107 #
cone-surface $-1 62.832133023693359 30.799649367808478 14.142592094049114 -0.87461971476443456 0 -0.48480960649040278 0.060601200811300347 0 -0.10932746434555432 1 I I -0.70710678118654746 0.70710678118654746 0.125 forward I I I I #
loop $-1 $-1 $273 $73 #
coedge $-1 $173 $173 $274 $275 reversed $108 $-1 #
face $-1 $276 $277 $58 $-1 $278 reversed single #
loop $-1 $-1 $279 $110 #
plane-surface $-1 -64.856715598010197 1.869460286900491 9.8675597354835389 -0.51503808176128008 0 0.85716729658548041 0.85716729658548041 0 0.51503808176128008 forward_v I I I I #
coedge $-1 $280 $281 $282 $283 reversed $111 $-1 #
face $-1 $-1 $284 $59 $-1 $285 forward single #
loop $-1 $286 $287 $113 #
cone-surface $-1 -56.729966939640967 -0.50611516705584592 8.9671480022594068 0.51503808176128008 0 -0.85716729658548041 0.64287547243911036 0 0.38627856132096006 1 I I -0.70710678118654757 0.70710678118654757 0.75 forward I I I I #
loop $-1 $-1 $288 $75 #
coedge $-1 $182 $182 $289 $290 reversed $114 $-1 #
face $-1 $-1 $291 $60 $-1 $292 forward single #
loop $-1 $293 $294 $116 #
cone-surface $-1 -56.729966939640967 4.245035740856828 8.9671480022594068 0.51503808176128008 0 -0.85716729658548041 0.64287547243911036 0 0.38627856132096006 1 I I -0.70710678118654757 0.70710678118654757 0.75 forward I I I I #
loop $-1 $-1 $295 $76 #
coedge $-1 $187 $187 $296 $297 reversed $117 $-1 #
face $-1 $298 $299 $61 $-1 $300 reversed single #
loop $-1 $-1 $301 $119 #
plane-surface $-1 -64.856715598010197 33.219459642420084 9.8675597354835389 -0.51503808176128008 0 0.85716729658548041 0.85716729658548041 0 0.51503808176128008 forward_v I I I I #
coedge $-1 $302 $303 $304 $305 reversed $120 $-1 #
face $-1 $-1 $306 $62 $-1 $307 forward single #
loop $-1 $308 $309 $122 #
cone-surface $-1 -56.729966939640967 30.84388418846374 8.9671480022594068 0.51503808176128008 0 -0.85716729658548041 0.64287547243911036 0 0.38627856132096006 1 I I -0.70710678118654757 0.70710678118654757 0.75 forward I I I I #
loop $-1 $-1 $310 $78 #
coedge $-1 $196 $196 $311 $312 reversed $123 $-1 #
face $-1 $-1 $313 $63 $-1 $314 forward single #
loop $-1 $315 $316 $125 #
cone-surface $-1 -56.729966939640967 35.595035096376414 8.9671480022594068 0.51503808176128008 0 -0.85716729658548041 0.64287547243911036 0 0.38627856132096006 1 I I -0.70710678118654757 0.70710678118654757 0.75 forward I I I I #
loop $-1 $-1 $317 $79 #
coedge $-1 $201 $201 $318 $319 reversed $126 $-1 #
face $-1 $320 $321 $48 $-1 $322 reversed single #
loop $-1 $-1 $323 $128 #
plane-surface $-1 0 -40.942644972576083 0 0 1 0 0 0 1 forward_v I I I I #
coedge $-1 $324 $325 $326 $327 forward $129 $-1 #
coedge $-1 $328 $131 $329 $330 forward $81 $-1 #
coedge $-1 $131 $328 $331 $332 forward $81 $-1 #
coedge $-1 $333 $334 $131 $209 reversed $335 $-1 #
edge $-1 $336 -40.942644972576083 $337 40.942644972576083 $208 $338 forward 7 unknown #
face $-1 $339 $340 $49 $-1 $341 reversed single #
loop $-1 $-1 $342 $132 #
plane-surface $-1 -64.856715598010197 0 0 1 0 0 0 0 -1 forward_v I I I I #
coedge $-1 $343 $344 $345 $346 reversed $133 $-1 #
coedge $-1 $347 $135 $348 $349 reversed $84 $-1 #
coedge $-1 $135 $347 $343 $350 forward $84 $-1 #
coedge $-1 $345 $351 $135 $217 forward $352 $-1 #
edge $-1 $353 -25.26764529481629 $354 -6.0823540607032953 $216 $355 forward 7 unknown #
face $-1 $356 $357 $50 $-1 $358 reversed single #
loop $-1 $-1 $359 $136 #
plane-surface $-1 115.42032225712708 -13.201653367643692 189.14688861137904 0 1 0 0.87461971476443456 0 0.48480960649040278 forward_v I I I I #
coedge $-1 $360 $361 $362 $363 reversed $137 $-1 #
coedge $-1 $223 $139 $364 $365 reversed $87 $-1 #
coedge $-1 $139 $222 $360 $366 reversed $87 $-1 #
coedge $-1 $362 $367 $139 $225 forward $368 $-1 #
edge $-1 $369 -7.1465544694466558 $370 -5.0652836790329587 $224 $371 forward 7 unknown #
loop $-1 $-1 $231 $140 #
plane-surface $-1 1.9703980633476164 -9.2334152827731515 126.26057107671646 0.87461971476443456 0 0.48480960649040278 0.48480960649040278 0 -0.87461971476443456 forward_v I I I I #
loop $-1 $-1 $372 $89 #
coedge $-1 $229 $229 $230 $373 reversed $141 $-1 #
coedge $-1 $230 $230 $229 $373 forward $143 $-1 #
coedge $-1 $231 $231 $144 $232 forward $226 $-1 #
edge $-1 $374 0 $374 6.2831853071796004 $231 $375 forward 7 unknown #
loop $-1 $-1 $238 $145 #
plane-surface $-1 1.9703980633476164 -9.2334152827731515 126.26057107671646 0.87461971476443456 0 0.48480960649040278 0.48480960649040278 0 -0.87461971476443456 forward_v I I I I #
loop $-1 $-1 $376 $92 #
coedge $-1 $236 $236 $237 $377 reversed $146 $-1 #
coedge $-1 $237 $237 $236 $377 forward $148 $-1 #
coedge $-1 $238 $238 $149 $239 forward $233 $-1 #
edge $-1 $378 0 $378 6.2831853071796004 $238 $379 forward 7 unknown #
loop $-1 $-1 $245 $150 #
plane-surface $-1 1.9703980633476164 -9.2334152827731515 126.26057107671646 0.87461971476443456 0 0.48480960649040278 0.48480960649040278 0 -0.87461971476443456 forward_v I I I I #
loop $-1 $-1 $380 $95 #
coedge $-1 $243 $243 $244 $381 reversed $151 $-1 #
coedge $-1 $244 $244 $243 $381 forward $153 $-1 #
coedge $-1 $245 $245 $154 $246 forward $240 $-1 #
edge $-1 $382 0 $382 6.2831853071796004 $245 $383 forward 7 unknown #
face $-1 $384 $385 $54 $-1 $386 reversed single #
loop $-1 $-1 $387 $155 #
plane-surface $-1 115.42032225712708 24.450468432015612 189.14688861137904 0 1 0 0.87461971476443456 0 0.48480960649040278 forward_v I I I I #
coedge $-1 $388 $389 $390 $391 reversed $156 $-1 #
coedge $-1 $252 $158 $392 $393 reversed $99 $-1 #
coedge $-1 $158 $251 $388 $394 reversed $99 $-1 #
coedge $-1 $390 $395 $158 $254 forward $396 $-1 #
edge $-1 $397 -7.1465544694466558 $398 -5.0652836790329587 $253 $399 forward 7 unknown #
loop $-1 $-1 $260 $159 #
plane-surface $-1 1.9703980633476164 28.418706516886154 126.26057107671646 0.87461971476443456 0 0.48480960649040278 0.48480960649040278 0 -0.87461971476443456 forward_v I I I I #
loop $-1 $-1 $400 $101 #
coedge $-1 $258 $258 $259 $401 reversed $160 $-1 #
coedge $-1 $259 $259 $258 $401 forward $162 $-1 #
coedge $-1 $260 $260 $163 $261 forward $255 $-1 #
edge $-1 $402 0 $402 6.2831853071796004 $260 $403 forward 7 unknown #
loop $-1 $-1 $267 $164 #
plane-surface $-1 1.9703980633476164 28.418706516886154 126.26057107671646 0.87461971476443456 0 0.48480960649040278 0.48480960649040278 0 -0.87461971476443456 forward_v I I I I #
loop $-1 $-1 $404 $104 #
coedge $-1 $265 $265 $266 $405 reversed $165 $-1 #
coedge $-1 $266 $266 $265 $405 forward $167 $-1 #
coedge $-1 $267 $267 $168 $268 forward $262 $-1 #
edge $-1 $406 0 $406 6.2831853071796004 $267 $407 forward 7 unknown #
loop $-1 $-1 $274 $169 #
plane-surface $-1 1.9703980633476164 28.418706516886154 126.26057107671646 0.87461971476443456 0 0.48480960649040278 0.48480960649040278 0 -0.87461971476443456 forward_v I I I I #
loop $-1 $-1 $408 $107 #
coedge $-1 $272 $272 $273 $409 reversed $170 $-1 #
coedge $-1 $273 $273 $272 $409 forward $172 $-1 #
coedge $-1 $274 $274 $173 $275 forward $269 $-1 #
edge $-1 $410 0 $410 6.2831853071796004 $274 $411 forward 7 unknown #
face $-1 $412 $413 $58 $-1 $414 forward single #
loop $-1 $-1 $415 $174 #
plane-surface $-1 -131.66407237988233 7.412469679465282 121.05367088460306 0 -1 0 0.51503808176128008 0 -0.85716729658548041 forward_v I I I I #
coedge $-1 $416 $417 $418 $419 reversed $175 $-1 #
coedge $-1 $281 $177 $420 $421 reversed $111 $-1 #
coedge $-1 $177 $280 $416 $422 reversed $111 $-1 #
coedge $-1 $418 $423 $177 $283 forward $413 $-1 #
edge $-1 $424 0.97532059193096643 $425 12.122330149417763 $282 $426 forward 7 unknown #
loop $-1 $-1 $289 $178 #
plane-surface $-1 -64.856715598010197 1.869460286900491 9.8675597354835389 -0.51503808176128008 0 0.85716729658548041 0.85716729658548041 0 0.51503808176128008 forward_v I I I I #
loop $-1 $-1 $427 $113 #
coedge $-1 $287 $287 $288 $428 reversed $179 $-1 #
coedge $-1 $288 $288 $287 $428 forward $181 $-1 #
coedge $-1 $289 $289 $182 $290 forward $284 $-1 #
edge $-1 $429 0 $429 6.2831853071796004 $289 $430 forward 7 unknown #
loop $-1 $-1 $296 $183 #
plane-surface $-1 -64.856715598010197 1.869460286900491 9.8675597354835389 -0.51503808176128008 0 0.85716729658548041 0.85716729658548041 0 0.51503808176128008 forward_v I I I I #
loop $-1 $-1 $431 $116 #
coedge $-1 $294 $294 $295 $432 reversed $184 $-1 #
coedge $-1 $295 $295 $294 $432 forward $186 $-1 #
coedge $-1 $296 $296 $187 $297 forward $291 $-1 #
edge $-1 $433 0 $433 6.2831853071796004 $296 $434 forward 7 unknown #
face $-1 $435 $436 $61 $-1 $437 forward single #
loop $-1 $-1 $438 $188 #
plane-surface $-1 -131.66407237988233 38.762469034984875 121.05367088460306 0 -1 0 0.51503808176128008 0 -0.85716729658548041 forward_v I I I I #
coedge $-1 $439 $440 $441 $442 reversed $189 $-1 #
coedge $-1 $303 $191 $443 $444 reversed $120 $-1 #
coedge $-1 $191 $302 $439 $445 reversed $120 $-1 #
coedge $-1 $441 $446 $191 $305 forward $436 $-1 #
edge $-1 $447 0.97532059193096643 $448 12.122330149417763 $304 $449 forward 7 unknown #
loop $-1 $-1 $311 $192 #
plane-surface $-1 -64.856715598010197 33.219459642420084 9.8675597354835389 -0.51503808176128008 0 0.85716729658548041 0.85716729658548041 0 0.51503808176128008 forward_v I I I I #
loop $-1 $-1 $450 $122 #
coedge $-1 $309 $309 $310 $451 reversed $193 $-1 #
coedge $-1 $310 $310 $309 $451 forward $195 $-1 #
coedge $-1 $311 $311 $196 $312 forward $306 $-1 #
edge $-1 $452 0 $452 6.2831853071796004 $311 $453 forward 7 unknown #
loop $-1 $-1 $318 $197 #
plane-surface $-1 -64.856715598010197 33.219459642420084 9.8675597354835389 -0.51503808176128008 0 0.85716729658548041 0.85716729658548041 0 0.51503808176128008 forward_v I I I I #
loop $-1 $-1 $454 $125 #
coedge $-1 $316 $316 $317 $455 reversed $198 $-1 #
coedge $-1 $317 $317 $316 $455 forward $200 $-1 #
coedge $-1 $318 $318 $201 $319 forward $313 $-1 #
edge $-1 $456 0 $456 6.2831853071796004 $318 $457 forward 7 unknown #
face $-1 $458 $459 $48 $-1 $460 reversed single #
loop $-1 $-1 $461 $202 #
plane-surface $-1 -64.856715598010197 0 0 1 0 0 0 0 -1 forward_v I I I I #
coedge $-1 $462 $331 $463 $464 forward $203 $-1 #
coedge $-1 $465 $205 $462 $466 forward $129 $-1 #
coedge $-1 $205 $465 $467 $468 forward $129 $-1 #
coedge $-1 $334 $333 $205 $327 reversed $335 $-1 #
edge $-1 $469 -40.942644972576083 $470 40.942644972576083 $326 $471 forward 7 unknown #
coedge $-1 $207 $206 $472 $473 forward $81 $-1 #
coedge $-1 $474 $475 $206 $330 reversed $459 $-1 #
edge $-1 $337 -64.856715598010197 $476 64.856715598010197 $329 $477 forward 7 unknown #
coedge $-1 $323 $478 $207 $332 reversed $203 $-1 #
edge $-1 $479 -64.856715598010197 $336 64.856715598010197 $331 $480 forward 7 unknown #
coedge $-1 $326 $208 $478 $481 forward $335 $-1 #
coedge $-1 $208 $326 $474 $482 reversed $335 $-1 #
loop $-1 $-1 $333 $458 #
vertex $-1 $209 $483 #
vertex $-1 $209 $484 #
straight-curve $-1 64.856715598010197 0 16.565358919764627 0 1 0 I I #
face $-1 $485 $486 $49 $-1 $487 forward single #
loop $-1 $-1 $348 $210 #
plane-surface $-1 0 -40.942644972576083 0 0 1 0 0 0 1 forward_v I I I I #
coedge $-1 $488 $489 $490 $491 forward $211 $-1 #
coedge $-1 $490 $213 $215 $350 reversed $133 $-1 #
coedge $-1 $213 $490 $492 $493 reversed $133 $-1 #
coedge $-1 $494 $216 $213 $346 forward $352 $-1 #
edge $-1 $354 2.2097846036023174 $495 10.306977745308979 $345 $496 forward 7 unknown #
coedge $-1 $215 $214 $488 $497 reversed $84 $-1 #
coedge $-1 $498 $499 $214 $349 forward $340 $-1 #
edge $-1 $500 -64.856715598010197 $353 64.856715598010197 $348 $501 forward 7 unknown #
edge $-1 $502 -64.856715598010197 $354 64.856715598010197 $343 $503 forward 7 unknown #
coedge $-1 $216 $494 $498 $504 forward $352 $-1 #
loop $-1 $-1 $345 $485 #
vertex $-1 $349 $505 #
vertex $-1 $217 $506 #
straight-curve $-1 64.856715598010197 -15.674999677759793 8.4681657780579656 0 1 0 I I #
face $-1 $-1 $368 $50 $-1 $507 forward single #
loop $-1 $-1 $508 $218 #
plane-surface $-1 64.856715598010197 0 0 -1 0 0 0 0 1 forward_v I I I I #
coedge $-1 $509 $510 $511 $512 reversed $219 $-1 #
coedge $-1 $513 $221 $223 $366 forward $137 $-1 #
coedge $-1 $221 $513 $509 $514 forward $137 $-1 #
coedge $-1 $511 $224 $221 $363 forward $368 $-1 #
edge $-1 $370 0.64846955651603544 $515 8.584945726257116 $362 $516 forward 7 unknown #
coedge $-1 $517 $518 $222 $365 forward $357 $-1 #
edge $-1 $519 -81.762797422752527 $369 -78.008085385924886 $364 $520 forward 7 unknown #
edge $-1 $370 125.42046595244719 $519 129.71343119602039 $223 $521 forward 7 unknown #
coedge $-1 $224 $511 $517 $522 forward $368 $-1 #
loop $-1 $-1 $511 $356 #
vertex $-1 $365 $523 #
vertex $-1 $225 $524 #
straight-curve $-1 57.710161128563541 -5.2651771979026112 16.56535891976462 -1 0 0 I I #
coedge $-1 $372 $372 $-1 $525 reversed $228 $-1 #
edge $-1 $526 0 $526 6.2831853071796004 $229 $527 forward 7 unknown #
vertex $-1 $232 $528 #
ellipse-curve $-1 63.816080202803342 -11.614358133695472 14.688002901350814 0.87461971476443456 0 0.48480960649040278 0.12120240162260069 0 -0.21865492869110864 1 I I #
coedge $-1 $376 $376 $-1 $529 reversed $235 $-1 #
edge $-1 $530 0 $530 6.2831853071796004 $236 $531 forward 7 unknown #
vertex $-1 $239 $532 #
ellipse-curve $-1 63.816080202803342 -9.2334152827731479 14.688002901350814 0.87461971476443456 0 0.48480960649040278 0.12120240162260069 0 -0.21865492869110864 1 I I #
coedge $-1 $380 $380 $-1 $533 reversed $242 $-1 #
edge $-1 $534 0 $534 6.2831853071796004 $243 $535 forward 7 unknown #
vertex $-1 $246 $536 #
ellipse-curve $-1 63.816080202803342 -6.8524724318508206 14.688002901350814 0.87461971476443456 0 0.48480960649040278 0.12120240162260069 0 -0.21865492869110864 1 I I #
face $-1 $-1 $396 $54 $-1 $537 forward single #
loop $-1 $-1 $538 $247 #
plane-surface $-1 64.856715598010197 0 0 -1 0 0 0 0 1 forward_v I I I I #
coedge $-1 $539 $540 $541 $542 reversed $248 $-1 #
coedge $-1 $543 $250 $252 $394 forward $156 $-1 #
coedge $-1 $250 $543 $539 $544 forward $156 $-1 #
coedge $-1 $541 $253 $250 $391 forward $396 $-1 #
edge $-1 $398 -18.177591343313619 $545 -10.241115173572535 $390 $546 forward 7 unknown #
coedge $-1 $547 $548 $251 $393 forward $385 $-1 #
edge $-1 $549 -81.762797422752527 $397 -78.008085385924886 $392 $550 forward 7 unknown #
edge $-1 $398 125.42046595244719 $549 129.71343119602039 $252 $551 forward 7 unknown #
coedge $-1 $253 $541 $547 $552 forward $396 $-1 #
loop $-1 $-1 $541 $384 #
vertex $-1 $393 $553 #
vertex $-1 $254 $554 #
straight-curve $-1 57.710161128563541 32.386944601756696 16.56535891976462 -1 0 0 I I #
coedge $-1 $400 $400 $-1 $555 reversed $257 $-1 #
edge $-1 $556 0 $556 6.2831853071796004 $258 $557 forward 7 unknown #
vertex $-1 $261 $558 #
ellipse-curve $-1 63.816080202803342 26.03776366596383 14.688002901350814 0.87461971476443456 0 0.48480960649040278 0.12120240162260069 0 -0.21865492869110864 1 I I #
coedge $-1 $404 $404 $-1 $559 reversed $264 $-1 #
edge $-1 $560 0 $560 6.2831853071796004 $265 $561 forward 7 unknown #
vertex $-1 $268 $562 #
ellipse-curve $-1 63.816080202803342 28.418706516886154 14.688002901350814 0.87461971476443456 0 0.48480960649040278 0.12120240162260069 0 -0.21865492869110864 1 I I #
coedge $-1 $408 $408 $-1 $563 reversed $271 $-1 #
edge $-1 $564 0 $564 6.2831853071796004 $272 $565 forward 7 unknown #
vertex $-1 $275 $566 #
ellipse-curve $-1 63.816080202803342 30.799649367808478 14.688002901350814 0.87461971476443456 0 0.48480960649040278 0.12120240162260069 0 -0.21865492869110864 1 I I #
face $-1 $-1 $567 $58 $-1 $568 reversed single #
loop $-1 $-1 $282 $276 #
plane-surface $-1 0 0 16.565358919764627 0 0 1 1 0 0 forward_v I I I I #
coedge $-1 $569 $570 $571 $572 reversed $277 $-1 #
coedge $-1 $573 $279 $281 $422 forward $175 $-1 #
coedge $-1 $279 $573 $569 $574 forward $175 $-1 #
coedge $-1 $571 $282 $279 $419 forward $413 $-1 #
edge $-1 $425 -4.6082792491145455 $575 6.4777395360150365 $418 $576 forward 7 unknown #
coedge $-1 $577 $578 $280 $421 forward $567 $-1 #
edge $-1 $579 -50.659275706817994 $424 -43.961476522536906 $420 $580 forward 7 unknown #
edge $-1 $425 -13.004473691297868 $579 0 $281 $581 forward 7 unknown #
coedge $-1 $282 $571 $577 $582 forward $413 $-1 #
vertex $-1 $421 $583 #
vertex $-1 $283 $584 #
straight-curve $-1 -65.832036189941164 -3.6735491056642999 16.565358919764627 1 0 0 I I #
coedge $-1 $427 $427 $-1 $585 reversed $286 $-1 #
edge $-1 $586 0 $586 6.2831853071796004 $287 $587 forward 7 unknown #
vertex $-1 $290 $588 #
ellipse-curve $-1 -59.283210819266806 -0.50611516705584592 13.216459327624079 -0.51503808176128008 0 0.85716729658548041 1.2857509448782207 0 0.77255712264192011 1 I I #
coedge $-1 $431 $431 $-1 $589 reversed $293 $-1 #
edge $-1 $590 0 $590 6.2831853071796004 $294 $591 forward 7 unknown #
vertex $-1 $297 $592 #
ellipse-curve $-1 -59.283210819266806 4.245035740856828 13.216459327624079 -0.51503808176128008 0 0.85716729658548041 1.2857509448782207 0 0.77255712264192011 1 I I #
face $-1 $-1 $593 $61 $-1 $594 reversed single #
loop $-1 $-1 $304 $298 #
plane-surface $-1 0 0 16.565358919764627 0 0 1 1 0 0 forward_v I I I I #
coedge $-1 $595 $596 $597 $598 reversed $299 $-1 #
coedge $-1 $599 $301 $303 $445 forward $189 $-1 #
coedge $-1 $301 $599 $595 $600 forward $189 $-1 #
coedge $-1 $597 $304 $301 $442 forward $436 $-1 #
edge $-1 $448 11.066720428645251 $601 22.152739213774833 $441 $602 forward 7 unknown #
coedge $-1 $603 $604 $302 $444 forward $593 $-1 #
edge $-1 $605 -50.659275706817994 $447 -43.961476522536906 $443 $606 forward 7 unknown #
edge $-1 $448 -13.004473691297868 $605 0 $303 $607 forward 7 unknown #
coedge $-1 $304 $597 $603 $608 forward $436 $-1 #
vertex $-1 $305 $609 #
vertex $-1 $305 $610 #
straight-curve $-1 -65.832036189941164 27.676450249855293 16.565358919764627 1 0 0 I I #
coedge $-1 $450 $450 $-1 $611 reversed $308 $-1 #
edge $-1 $612 0 $612 6.2831853071796004 $309 $613 forward 7 unknown #
vertex $-1 $312 $614 #
ellipse-curve $-1 -59.283210819266806 30.84388418846374 13.216459327624079 -0.51503808176128008 0 0.85716729658548041 1.2857509448782207 0 0.77255712264192011 1 I I #
coedge $-1 $454 $454 $-1 $615 reversed $315 $-1 #
edge $-1 $616 0 $616 6.2831853071796004 $316 $617 forward 7 unknown #
vertex $-1 $319 $618 #
ellipse-curve $-1 -59.283210819266806 35.595035096376414 13.216459327624079 -0.51503808176128008 0 0.85716729658548041 1.2857509448782207 0 0.77255712264192011 1 I I #
face $-1 $-1 $335 $48 $-1 $619 reversed single #
loop $-1 $-1 $474 $320 #
plane-surface $-1 0 40.942644972576083 0 0 -1 0 0 0 -1 forward_v I I I I #
coedge $-1 $620 $472 $475 $621 forward $321 $-1 #
coedge $-1 $478 $323 $324 $466 reversed $203 $-1 #
coedge $-1 $472 $620 $323 $464 reversed $321 $-1 #
edge $-1 $479 -16.565358919764627 $622 16.565358919764627 $463 $623 forward 7 unknown #
coedge $-1 $325 $324 $620 $624 forward $129 $-1 #
edge $-1 $470 -64.856715598010197 $622 64.856715598010197 $462 $625 forward 7 unknown #
coedge $-1 $475 $474 $325 $468 reversed $459 $-1 #
edge $-1 $626 -64.856715598010197 $469 64.856715598010197 $467 $627 forward 7 unknown #
vertex $-1 $327 $628 #
vertex $-1 $481 $629 #
straight-curve $-1 64.856715598010197 0 -16.565358919764627 0 -1 0 I I #
coedge $-1 $461 $463 $328 $473 reversed $321 $-1 #
edge $-1 $476 -40.942644972576083 $479 40.942644972576083 $472 $630 forward 7 unknown #
coedge $-1 $467 $329 $334 $482 forward $459 $-1 #
coedge $-1 $329 $467 $461 $621 reversed $459 $-1 #
vertex $-1 $330 $631 #
straight-curve $-1 0 40.942644972576083 16.565358919764627 -1 0 0 I I #
coedge $-1 $331 $462 $333 $481 reversed $203 $-1 #
vertex $-1 $473 $632 #
straight-curve $-1 0 -40.942644972576083 16.565358919764627 1 0 0 I I #
edge $-1 $336 -16.565358919764627 $470 16.565358919764627 $333 $633 forward 7 unknown #
edge $-1 $337 -16.565358919764627 $469 16.565358919764627 $334 $634 forward 7 unknown #
point $-1 64.856715598010197 -40.942644972576083 16.565358919764627 #
point $-1 64.856715598010197 40.942644972576083 16.565358919764627 #
face $-1 $-1 $352 $49 $-1 $635 reversed single #
loop $-1 $-1 $492 $339 #
plane-surface $-1 0 0 16.565358919764627 0 0 1 1 0 0 forward_v I I I I #
coedge $-1 $636 $342 $347 $497 forward $211 $-1 #
coedge $-1 $342 $636 $637 $638 reversed $211 $-1 #
coedge $-1 $344 $343 $342 $491 reversed $133 $-1 #
edge $-1 $639 -10.306977745308979 $502 -2.2097846036023174 $342 $640 forward 7 unknown #
coedge $-1 $637 $641 $344 $493 forward $486 $-1 #
edge $-1 $495 -64.856715598010197 $639 64.856715598010197 $492 $642 forward 7 unknown #
coedge $-1 $351 $345 $641 $643 reversed $352 $-1 #
vertex $-1 $346 $644 #
straight-curve $-1 64.856715598010197 -21.757353738463088 6.2583811744556481 0 0 1 I I #
edge $-1 $502 6.0823540607032953 $500 25.26764529481629 $488 $645 forward 7 unknown #
coedge $-1 $646 $348 $351 $504 reversed $340 $-1 #
coedge $-1 $348 $646 $636 $647 forward $340 $-1 #
vertex $-1 $349 $648 #
straight-curve $-1 0 -40.942644972576083 8.4681657780579656 1 0 0 I I #
vertex $-1 $497 $649 #
straight-curve $-1 0 -21.757353738463088 8.4681657780579656 1 0 0 I I #
edge $-1 $650 -16.565358919764627 $353 -8.4681657780579656 $351 $651 forward 7 unknown #
point $-1 64.856715598010197 -40.942644972576083 8.4681657780579656 #
point $-1 64.856715598010197 -21.757353738463088 8.4681657780579656 #
plane-surface $-1 0 0 16.565358919764627 0 0 1 1 0 0 forward_v I I I I #
coedge $-1 $518 $517 $510 $652 forward $357 $-1 #
coedge $-1 $510 $359 $361 $514 reversed $219 $-1 #
coedge $-1 $359 $509 $508 $652 reversed $219 $-1 #
coedge $-1 $367 $362 $359 $512 forward $368 $-1 #
edge $-1 $515 5.0652836790329587 $653 7.1465544694466558 $511 $654 forward 7 unknown #
coedge $-1 $361 $360 $518 $655 reversed $137 $-1 #
edge $-1 $656 -129.71343119602039 $515 -125.42046595244719 $509 $657 forward 7 unknown #
vertex $-1 $363 $658 #
straight-curve $-1 62.7754448075965 -4.6167076413865757 16.565358919764648 0 -1 0 I I #
coedge $-1 $508 $364 $367 $522 reversed $357 $-1 #
coedge $-1 $364 $508 $513 $655 forward $357 $-1 #
vertex $-1 $365 $659 #
straight-curve $-1 64.856715598010197 -5.2651771979026112 94.57344430568952 0 0 1 I I #
straight-curve $-1 1.9703980633476164 -5.2651771979026112 126.26057107671646 0.48480960649040278 0 -0.87461971476443456 I I #
edge $-1 $653 -13.201653367643692 $369 -5.2651771979026112 $517 $660 forward 7 unknown #
point $-1 64.856715598010197 -5.2651771979026112 16.565358919764627 #
point $-1 62.7754448075965 -5.2651771979026112 16.56535891976462 #
edge $-1 $661 1 $661 0 $372 $-1 forward 7 unknown #
vertex $-1 $373 $662 #
ellipse-curve $-1 62.941460488038913 -11.614358133695472 14.203193294860414 0.87461971476443456 0 0.48480960649040278 0.12120240162260069 0 -0.21865492869110864 1 I I #
point $-1 63.937282604425945 -11.614358133695472 14.469347972659708 #
edge $-1 $663 1 $663 0 $376 $-1 forward 7 unknown #
vertex $-1 $377 $664 #
ellipse-curve $-1 62.941460488038913 -9.2334152827731479 14.203193294860414 0.87461971476443456 0 0.48480960649040278 0.12120240162260069 0 -0.21865492869110864 1 I I #
point $-1 63.937282604425945 -9.2334152827731479 14.469347972659708 #
edge $-1 $665 1 $665 0 $380 $-1 forward 7 unknown #
vertex $-1 $381 $666 #
ellipse-curve $-1 62.941460488038913 -6.8524724318508206 14.203193294860414 0.87461971476443456 0 0.48480960649040278 0.12120240162260069 0 -0.21865492869110864 1 I I #
point $-1 63.937282604425945 -6.8524724318508206 14.469347972659708 #
plane-surface $-1 0 0 16.565358919764627 0 0 1 1 0 0 forward_v I I I I #
coedge $-1 $548 $547 $540 $667 forward $385 $-1 #
coedge $-1 $540 $387 $389 $544 reversed $248 $-1 #
coedge $-1 $387 $539 $538 $667 reversed $248 $-1 #
coedge $-1 $395 $390 $387 $542 forward $396 $-1 #
edge $-1 $545 5.0652836790329587 $668 7.1465544694466558 $541 $669 forward 7 unknown #
coedge $-1 $389 $388 $548 $670 reversed $156 $-1 #
edge $-1 $671 -129.71343119602039 $545 -125.42046595244719 $539 $672 forward 7 unknown #
vertex $-1 $391 $673 #
straight-curve $-1 62.7754448075965 14.209353258443077 16.565358919764648 0 -1 0 I I #
coedge $-1 $538 $392 $395 $552 reversed $385 $-1 #
coedge $-1 $392 $538 $543 $670 forward $385 $-1 #
vertex $-1 $393 $674 #
straight-curve $-1 64.856715598010197 32.386944601756696 94.57344430568952 0 0 1 I I #
straight-curve $-1 1.9703980633476164 32.386944601756696 126.26057107671646 0.48480960649040278 0 -0.87461971476443456 I I #
edge $-1 $668 24.450468432015612 $397 32.386944601756696 $547 $675 forward 7 unknown #
point $-1 64.856715598010197 32.386944601756696 16.565358919764627 #
point $-1 62.7754448075965 32.386944601756696 16.56535891976462 #
edge $-1 $676 1 $676 0 $400 $-1 forward 7 unknown #
vertex $-1 $401 $677 #
ellipse-curve $-1 62.941460488038913 26.03776366596383 14.203193294860414 0.87461971476443456 0 0.48480960649040278 0.12120240162260069 0 -0.21865492869110864 1 I I #
point $-1 63.937282604425945 26.03776366596383 14.469347972659708 #
edge $-1 $678 1 $678 0 $404 $-1 forward 7 unknown #
vertex $-1 $405 $679 #
ellipse-curve $-1 62.941460488038913 28.418706516886154 14.203193294860414 0.87461971476443456 0 0.48480960649040278 0.12120240162260069 0 -0.21865492869110864 1 I I #
point $-1 63.937282604425945 28.418706516886154 14.469347972659708 #
edge $-1 $680 1 $680 0 $408 $-1 forward 7 unknown #
vertex $-1 $409 $681 #
ellipse-curve $-1 62.941460488038913 30.799649367808478 14.203193294860414 0.87461971476443456 0 0.48480960649040278 0.12120240162260069 0 -0.21865492869110864 1 I I #
point $-1 63.937282604425945 30.799649367808478 14.469347972659708 #
loop $-1 $-1 $420 $412 #
plane-surface $-1 -64.856715598010197 0 0 1 0 0 0 0 -1 forward_v I I I I #
coedge $-1 $570 $415 $417 $574 reversed $277 $-1 #
coedge $-1 $415 $569 $682 $683 reversed $277 $-1 #
coedge $-1 $423 $418 $415 $572 forward $413 $-1 #
edge $-1 $575 -12.122330149417763 $684 -0.97532059193096643 $571 $685 forward 7 unknown #
coedge $-1 $417 $416 $578 $686 reversed $175 $-1 #
edge $-1 $687 0 $575 13.004473691297868 $569 $688 forward 7 unknown #
vertex $-1 $419 $689 #
straight-curve $-1 -53.709706040523393 0.93473014345024552 16.565358919764627 0 1 0 I I #
coedge $-1 $682 $420 $423 $582 reversed $567 $-1 #
coedge $-1 $420 $682 $573 $686 forward $567 $-1 #
vertex $-1 $421 $690 #
straight-curve $-1 -64.856715598010197 -3.6735491056642999 60.526835442301532 0 0 1 I I #
straight-curve $-1 -64.856715598010197 -3.6735491056642999 9.8675597354835389 -0.85716729658548041 0 -0.51503808176128008 I I #
edge $-1 $684 -7.412469679465282 $424 3.6735491056642999 $577 $691 forward 7 unknown #
point $-1 -64.856715598010197 -3.6735491056642999 16.565358919764627 #
point $-1 -53.7097060405234 -3.6735491056642999 16.565358919764627 #
edge $-1 $692 1 $692 0 $427 $-1 forward 7 unknown #
vertex $-1 $428 $693 #
ellipse-curve $-1 -57.116245500961924 -0.50611516705584592 9.6100234746985169 -0.51503808176128008 0 0.85716729658548041 1.2857509448782207 0 0.77255712264192011 1 I I #
point $-1 -57.997459874388596 -0.50611516705584592 13.989016450266016 #
edge $-1 $694 1 $694 0 $431 $-1 forward 7 unknown #
vertex $-1 $432 $695 #
ellipse-curve $-1 -57.116245500961924 4.245035740856828 9.6100234746985169 -0.51503808176128008 0 0.85716729658548041 1.2857509448782207 0 0.77255712264192011 1 I I #
point $-1 -57.997459874388596 4.245035740856828 13.989016450266016 #
loop $-1 $-1 $443 $435 #
plane-surface $-1 -64.856715598010197 0 0 1 0 0 0 0 -1 forward_v I I I I #
coedge $-1 $596 $438 $440 $600 reversed $299 $-1 #
coedge $-1 $438 $595 $696 $697 reversed $299 $-1 #
coedge $-1 $446 $441 $438 $598 forward $436 $-1 #
edge $-1 $601 -12.122330149417763 $698 -0.97532059193096643 $597 $699 forward 7 unknown #
coedge $-1 $440 $439 $604 $700 reversed $189 $-1 #
edge $-1 $701 0 $601 13.004473691297868 $595 $702 forward 7 unknown #
vertex $-1 $442 $703 #
straight-curve $-1 -53.709706040523393 16.609729821210042 16.565358919764627 0 1 0 I I #
coedge $-1 $696 $443 $446 $608 reversed $593 $-1 #
coedge $-1 $443 $696 $599 $700 forward $593 $-1 #
vertex $-1 $444 $704 #
straight-curve $-1 -64.856715598010197 27.676450249855293 60.526835442301532 0 0 1 I I #
straight-curve $-1 -64.856715598010197 27.676450249855293 9.8675597354835389 -0.85716729658548041 0 -0.51503808176128008 I I #
edge $-1 $698 -38.762469034984875 $447 -27.676450249855293 $603 $705 forward 7 unknown #
point $-1 -64.856715598010197 27.676450249855293 16.565358919764627 #
point $-1 -53.7097060405234 27.676450249855293 16.565358919764627 #
edge $-1 $706 1 $706 0 $450 $-1 forward 7 unknown #
vertex $-1 $451 $707 #
ellipse-curve $-1 -57.116245500961924 30.84388418846374 9.6100234746985169 -0.51503808176128008 0 0.85716729658548041 1.2857509448782207 0 0.77255712264192011 1 I I #
point $-1 -57.997459874388596 30.84388418846374 13.989016450266016 #
edge $-1 $708 1 $708 0 $454 $-1 forward 7 unknown #
vertex $-1 $455 $709 #
ellipse-curve $-1 -57.116245500961924 35.595035096376414 9.6100234746985169 -0.51503808176128008 0 0.85716729658548041 1.2857509448782207 0 0.77255712264192011 1 I I #
point $-1 -57.997459874388596 35.595035096376414 13.989016450266016 #
plane-surface $-1 64.856715598010197 0 0 -1 0 0 0 0 1 forward_v I I I I #
coedge $-1 $463 $461 $465 $624 reversed $321 $-1 #
edge $-1 $476 -16.565358919764627 $626 16.565358919764627 $475 $710 forward 7 unknown #
vertex $-1 $624 $711 #
straight-curve $-1 -64.856715598010197 -40.942644972576083 0 0 0 -1 I I #
edge $-1 $622 -40.942644972576083 $626 40.942644972576083 $620 $712 forward 7 unknown #
straight-curve $-1 0 -40.942644972576083 -16.565358919764627 -1 0 0 I I #
vertex $-1 $468 $713 #
straight-curve $-1 0 40.942644972576083 -16.565358919764627 1 0 0 I I #
point $-1 64.856715598010197 40.942644972576083 -16.565358919764627 #
point $-1 64.856715598010197 -40.942644972576083 -16.565358919764627 #
straight-curve $-1 -64.856715598010197 0 16.565358919764627 0 -1 0 I I #
point $-1 -64.856715598010197 40.942644972576083 16.565358919764627 #
point $-1 -64.856715598010197 -40.942644972576083 16.565358919764627 #
straight-curve $-1 64.856715598010197 -40.942644972576083 0 0 0 -1 I I #
straight-curve $-1 64.856715598010197 40.942644972576083 0 0 0 -1 I I #
plane-surface $-1 64.856715598010197 0 0 -1 0 0 0 0 1 forward_v I I I I #
coedge $-1 $489 $488 $499 $647 reversed $211 $-1 #
coedge $-1 $714 $492 $489 $638 forward $486 $-1 #
edge $-1 $639 21.757353738463088 $715 40.942644972576083 $489 $716 forward 7 unknown #
vertex $-1 $638 $717 #
straight-curve $-1 -64.856715598010197 -21.757353738463088 6.2583811744556481 0 0 -1 I I #
coedge $-1 $492 $714 $494 $643 forward $486 $-1 #
straight-curve $-1 0 -21.757353738463088 16.565358919764627 -1 0 0 I I #
edge $-1 $650 -40.942644972576083 $495 -21.757353738463088 $494 $718 forward 7 unknown #
point $-1 64.856715598010197 -21.757353738463088 16.565358919764627 #
straight-curve $-1 -64.856715598010197 -15.674999677759793 8.4681657780579656 0 -1 0 I I #
coedge $-1 $499 $498 $714 $719 reversed $340 $-1 #
edge $-1 $715 -16.565358919764627 $500 -8.4681657780579656 $636 $720 forward 7 unknown #
point $-1 -64.856715598010197 -40.942644972576083 8.4681657780579656 #
point $-1 -64.856715598010197 -21.757353738463088 8.4681657780579656 #
vertex $-1 $643 $721 #
straight-curve $-1 64.856715598010197 -40.942644972576083 0 0 0 -1 I I #
edge $-1 $653 78.008085385924886 $656 81.762797422752527 $508 $722 forward 7 unknown #
vertex $-1 $522 $723 #
straight-curve $-1 57.710161128563541 -13.201653367643692 16.56535891976462 1 0 0 I I #
edge $-1 $656 -8.584945726257116 $519 -0.64846955651603544 $518 $724 forward 7 unknown #
vertex $-1 $655 $725 #
straight-curve $-1 1.9703980633476164 -13.201653367643692 126.26057107671646 -0.48480960649040278 0 0.87461971476443456 I I #
point $-1 62.7754448075965 -13.201653367643692 16.56535891976462 #
point $-1 64.856715598010197 -5.2651771979026112 12.810646882936993 #
straight-curve $-1 64.856715598010197 0 16.565358919764627 0 1 0 I I #
vertex $-1 $525 $726 #
point $-1 63.062662889661517 -11.614358133695472 13.984538366169305 #
vertex $-1 $529 $727 #
point $-1 63.062662889661517 -9.2334152827731479 13.984538366169305 #
vertex $-1 $533 $728 #
point $-1 63.062662889661517 -6.8524724318508206 13.984538366169305 #
edge $-1 $668 78.008085385924886 $671 81.762797422752527 $538 $729 forward 7 unknown #
vertex $-1 $552 $730 #
straight-curve $-1 57.710161128563541 24.450468432015612 16.56535891976462 1 0 0 I I #
edge $-1 $671 10.241115173572535 $549 18.177591343313619 $548 $731 forward 7 unknown #
vertex $-1 $670 $732 #
straight-curve $-1 1.9703980633476164 24.450468432015612 126.26057107671646 -0.48480960649040278 0 0.87461971476443456 I I #
point $-1 62.7754448075965 24.450468432015612 16.56535891976462 #
point $-1 64.856715598010197 32.386944601756696 12.810646882936993 #
straight-curve $-1 64.856715598010197 0 16.565358919764627 0 1 0 I I #
vertex $-1 $555 $733 #
point $-1 63.062662889661517 26.03776366596383 13.984538366169305 #
vertex $-1 $559 $734 #
point $-1 63.062662889661517 28.418706516886154 13.984538366169305 #
vertex $-1 $563 $735 #
point $-1 63.062662889661517 30.799649367808478 13.984538366169305 #
coedge $-1 $578 $577 $570 $683 forward $567 $-1 #
edge $-1 $684 43.961476522536906 $687 50.659275706817994 $682 $736 forward 7 unknown #
vertex $-1 $582 $737 #
straight-curve $-1 -65.832036189941164 7.412469679465282 16.565358919764627 -1 0 0 I I #
edge $-1 $687 -6.4777395360150365 $579 4.6082792491145455 $578 $738 forward 7 unknown #
vertex $-1 $686 $739 #
straight-curve $-1 -64.856715598010197 7.412469679465282 9.8675597354835389 0.85716729658548041 0 0.51503808176128008 I I #
point $-1 -53.7097060405234 7.412469679465282 16.565358919764627 #
point $-1 -64.856715598010197 -3.6735491056642999 9.8675597354835389 #
straight-curve $-1 -64.856715598010197 0 16.565358919764627 0 -1 0 I I #
vertex $-1 $585 $740 #
point $-1 -55.830494556083707 -0.50611516705584592 10.382580597340437 #
vertex $-1 $589 $741 #
point $-1 -55.830494556083707 4.245035740856828 10.382580597340437 #
coedge $-1 $604 $603 $596 $697 forward $593 $-1 #
edge $-1 $698 43.961476522536906 $701 50.659275706817994 $696 $742 forward 7 unknown #
vertex $-1 $608 $743 #
straight-curve $-1 -65.832036189941164 38.762469034984875 16.565358919764627 -1 0 0 I I #
edge $-1 $701 -22.152739213774833 $605 -11.066720428645251 $604 $744 forward 7 unknown #
vertex $-1 $700 $745 #
straight-curve $-1 -64.856715598010197 38.762469034984875 9.8675597354835389 0.85716729658548041 0 0.51503808176128008 I I #
point $-1 -53.7097060405234 38.762469034984875 16.565358919764627 #
point $-1 -64.856715598010197 27.676450249855293 9.8675597354835389 #
straight-curve $-1 -64.856715598010197 0 16.565358919764627 0 -1 0 I I #
vertex $-1 $611 $746 #
point $-1 -55.830494556083707 30.84388418846374 10.382580597340437 #
vertex $-1 $615 $747 #
point $-1 -55.830494556083707 35.595035096376414 10.382580597340437 #
straight-curve $-1 -64.856715598010197 40.942644972576083 0 0 0 -1 I I #
point $-1 -64.856715598010197 -40.942644972576083 -16.565358919764627 #
straight-curve $-1 -64.856715598010197 0 -16.565358919764627 0 1 0 I I #
point $-1 -64.856715598010197 40.942644972576083 -16.565358919764627 #
coedge $-1 $641 $637 $646 $719 forward $486 $-1 #
vertex $-1 $638 $748 #
straight-curve $-1 -64.856715598010197 0 16.565358919764627 0 -1 0 I I #
point $-1 -64.856715598010197 -21.757353738463088 16.565358919764627 #
straight-curve $-1 64.856715598010197 0 16.565358919764627 0 1 0 I I #
edge $-1 $715 -64.856715598010197 $650 64.856715598010197 $646 $749 forward 7 unknown #
straight-curve $-1 -64.856715598010197 -40.942644972576083 0 0 0 -1 I I #
point $-1 64.856715598010197 -40.942644972576083 16.565358919764627 #
straight-curve $-1 64.856715598010197 -13.201653367643692 94.57344430568952 0 0 -1 I I #
point $-1 64.856715598010197 -13.201653367643692 16.565358919764627 #
straight-curve $-1 64.856715598010197 -4.6167076413865757 12.810646882937007 0 1 0 I I #
point $-1 64.856715598010197 -13.201653367643692 12.810646882936993 #
point $-1 62.722805559347805 -11.614358133695472 14.081990893237814 #
point $-1 62.722805559347805 -9.2334152827731479 14.081990893237814 #
point $-1 62.722805559347805 -6.8524724318508206 14.081990893237814 #
straight-curve $-1 64.856715598010197 24.450468432015612 94.57344430568952 0 0 -1 I I #
point $-1 64.856715598010197 24.450468432015612 16.565358919764627 #
straight-curve $-1 64.856715598010197 14.209353258443077 12.810646882937007 0 1 0 I I #
point $-1 64.856715598010197 24.450468432015612 12.810646882936993 #
point $-1 62.722805559347805 26.03776366596383 14.081990893237814 #
point $-1 62.722805559347805 28.418706516886154 14.081990893237814 #
point $-1 62.722805559347805 30.799649367808478 14.081990893237814 #
straight-curve $-1 -64.856715598010197 7.412469679465282 60.526835442301532 0 0 -1 I I #
point $-1 -64.856715598010197 7.412469679465282 16.565358919764627 #
straight-curve $-1 -64.856715598010197 0.93473014345024552 9.8675597354835372 0 -1 0 I I #
point $-1 -64.856715598010197 7.412469679465282 9.8675597354835389 #
point $-1 -56.34368837832001 -0.50611516705584592 8.3242725298202966 #
point $-1 -56.34368837832001 4.245035740856828 8.3242725298202966 #
straight-curve $-1 -64.856715598010197 38.762469034984875 60.526835442301532 0 0 -1 I I #
point $-1 -64.856715598010197 38.762469034984875 16.565358919764627 #
straight-curve $-1 -64.856715598010197 16.609729821210042 9.8675597354835372 0 -1 0 I I #
point $-1 -64.856715598010197 38.762469034984875 9.8675597354835389 #
point $-1 -56.34368837832001 30.84388418846374 8.3242725298202966 #
point $-1 -56.34368837832001 35.595035096376414 8.3242725298202966 #
point $-1 -64.856715598010197 -40.942644972576083 16.565358919764627 #
straight-curve $-1 0 -40.942644972576083 16.565358919764627 1 0 0 I I #
End-of-ACIS-data 