500 0 10 0           
7 Unknown 11 ACIS 5.0 NT 24 Fri Mar 26 03:24:02 1999 
-1 9.9999999999999995e-007 1e-010 
body $-1 $10 $-1 $11 #
body $-1 $12 $-1 $13 #
body $-1 $14 $-1 $15 #
body $-1 $16 $-1 $17 #
body $-1 $18 $-1 $19 #
body $-1 $20 $-1 $21 #
body $-1 $22 $-1 $23 #
body $-1 $24 $-1 $25 #
body $-1 $26 $-1 $27 #
body $-1 $28 $-1 $29 #
lump $-1 $-1 $30 $0 #
transform $-1 1 0 0 0 1 0 0 0 1 58.927579577013461 25.058473496754292 5.3312825796662251 1 rotate no_reflect no_shear #
lump $-1 $-1 $31 $1 #
transform $-1 1 0 0 0 1 0 0 0 1 58.927579577013461 25.058473496754292 5.3312825796662251 1 rotate no_reflect no_shear #
lump $-1 $-1 $32 $2 #
transform $-1 1 0 0 0 1 0 0 0 1 58.927579577013461 25.058473496754292 5.3312825796662251 1 rotate no_reflect no_shear #
lump $-1 $-1 $33 $3 #
transform $-1 1 0 0 0 1 0 0 0 1 58.927579577013461 25.058473496754292 5.3312825796662251 1 rotate no_reflect no_shear #
lump $-1 $-1 $34 $4 #
transform $-1 1 0 0 0 1 0 0 0 1 58.927579577013461 25.058473496754292 5.3312825796662251 1 rotate no_reflect no_shear #
lump $-1 $-1 $35 $5 #
transform $-1 1 0 0 0 1 0 0 0 1 58.927579577013461 25.058473496754292 5.3312825796662251 1 rotate no_reflect no_shear #
lump $-1 $-1 $36 $6 #
transform $-1 1 0 0 0 1 0 0 0 1 58.927579577013461 25.058473496754292 5.3312825796662251 1 rotate no_reflect no_shear #
lump $-1 $-1 $37 $7 #
transform $-1 1 0 0 0 1 0 0 0 1 58.927579577013461 25.058473496754292 5.3312825796662251 1 rotate no_reflect no_shear #
lump $-1 $-1 $38 $8 #
transform $-1 1 0 0 0 1 0 0 0 1 58.927579577013461 25.058473496754292 5.3312825796662251 1 rotate no_reflect no_shear #
lump $-1 $-1 $39 $9 #
transform $-1 1 0 0 0 1 0 0 0 1 58.927579577013461 25.058473496754292 5.3312825796662251 1 rotate no_reflect no_shear #
shell $-1 $-1 $-1 $40 $-1 $10 #
shell $-1 $-1 $-1 $41 $-1 $12 #
shell $-1 $-1 $-1 $42 $-1 $14 #
shell $-1 $-1 $-1 $43 $-1 $16 #
shell $-1 $-1 $-1 $44 $-1 $18 #
shell $-1 $-1 $-1 $45 $-1 $20 #
shell $-1 $-1 $-1 $46 $-1 $22 #
shell $-1 $-1 $-1 $47 $-1 $24 #
shell $-1 $-1 $-1 $48 $-1 $26 #
shell $-1 $-1 $-1 $49 $-1 $28 #
face $-1 $50 $51 $30 $-1 $52 forward single #
face $-1 $53 $54 $31 $-1 $55 forward single #
face $-1 $56 $57 $32 $-1 $58 forward single #
face $-1 $59 $60 $33 $-1 $61 reversed single #
face $-1 $62 $63 $34 $-1 $64 forward single #
face $-1 $65 $66 $35 $-1 $67 forward single #
face $-1 $68 $69 $36 $-1 $70 reversed single #
face $-1 $71 $72 $37 $-1 $73 forward single #
face $-1 $74 $75 $38 $-1 $76 forward single #
face $-1 $77 $78 $39 $-1 $79 forward single #
face $-1 $80 $81 $30 $-1 $82 reversed single #
loop $-1 $-1 $83 $40 #
plane-surface $-1 0 0 5.3312825796662251 0 0 1 1 0 0 forward_v I I I I #
face $-1 $84 $85 $31 $-1 $86 reversed single #
loop $-1 $-1 $87 $41 #
plane-surface $-1 0 -22.484053157606798 2.0028945699986096 0 0 1 1 0 0 forward_v I I I I #
face $-1 $88 $89 $32 $-1 $90 reversed single #
loop $-1 $-1 $91 $42 #
plane-surface $-1 0 22.484053157606798 2.0028945699986096 0 0 1 1 0 0 forward_v I I I I #
face $-1 $92 $93 $33 $-1 $94 reversed single #
loop $-1 $-1 $95 $43 #
plane-surface $-1 -58.927579577013461 14.646509422753422 0.8399646637025171 -0.55919291073839883 0 0.82903756765294845 0.82903756765294845 0 0.55919291073839883 forward_v I I I I #
face $-1 $96 $97 $34 $-1 $98 forward single #
loop $-1 $99 $100 $44 #
cone-surface $-1 -54.756174533910929 12.390885110308044 1.837190504215827 0.55919291073839883 0 -0.82903756765294845 1.2435563514794228 0 0.83878936610759824 1 I I 0 1 1.5 forward I I I I #
face $-1 $101 $102 $35 $-1 $103 forward single #
loop $-1 $104 $105 $45 #
cone-surface $-1 -54.756174533910929 16.902133735198799 1.837190504215827 0.55919291073839883 0 -0.82903756765294845 1.2435563514794228 0 0.83878936610759824 1 I I 0 1 1.5 forward I I I I #
face $-1 $106 $107 $36 $-1 $108 reversed single #
loop $-1 $-1 $109 $46 #
plane-surface $-1 53.110799789501812 8.405336387626857 166.98249033597503 0 1 0 0.68199836817093118 0 0.7313536940579346 forward_v I I I I #
face $-1 $110 $111 $37 $-1 $112 forward single #
loop $-1 $113 $114 $47 #
cone-surface $-1 55.17417762991839 10.706195673793342 1.6751612193967043 -0.68199836817093118 0 -0.7313536940579346 0.7313536940579346 0 -0.68199836817093118 1 I I 0 1 1 forward I I I I #
face $-1 $115 $116 $38 $-1 $117 forward single #
loop $-1 $118 $119 $48 #
cone-surface $-1 55.17417762991839 14.157484603043077 1.6751612193967043 -0.68199836817093118 0 -0.7313536940579346 0.7313536940579346 0 -0.68199836817093118 1 I I 0 1 1 forward I I I I #
face $-1 $120 $121 $39 $-1 $122 forward single #
loop $-1 $123 $124 $49 #
cone-surface $-1 55.17417762991839 17.608773532292812 1.6751612193967043 -0.68199836817093118 0 -0.7313536940579346 0.7313536940579346 0 -0.68199836817093118 1 I I 0 1 1 forward I I I I #
face $-1 $125 $126 $30 $-1 $127 reversed single #
loop $-1 $-1 $128 $50 #
plane-surface $-1 0 0 -5.3312825796662251 0 0 1 1 0 0 forward_v I I I I #
coedge $-1 $129 $130 $131 $132 forward $51 $-1 #
face $-1 $133 $134 $31 $-1 $135 reversed single #
loop $-1 $-1 $136 $53 #
plane-surface $-1 0 -22.484053157606798 -0.9971054300013904 0 0 1 1 0 0 forward_v I I I I #
coedge $-1 $137 $138 $139 $140 reversed $54 $-1 #
face $-1 $141 $142 $32 $-1 $143 reversed single #
loop $-1 $-1 $144 $56 #
plane-surface $-1 0 22.484053157606798 -0.9971054300013904 0 0 1 1 0 0 forward_v I I I I #
coedge $-1 $145 $146 $147 $148 reversed $57 $-1 #
face $-1 $149 $150 $33 $-1 $151 forward single #
loop $-1 $-1 $152 $59 #
plane-surface $-1 -124.83134906989102 9.3833860270475391 98.546319144108111 0 1 0 -0.55919291073839883 0 0.82903756765294845 forward_v I I I I #
coedge $-1 $153 $154 $155 $156 reversed $60 $-1 #
face $-1 $-1 $157 $34 $-1 $158 forward single #
loop $-1 $159 $160 $62 #
cone-surface $-1 -53.494701064493029 12.390885110308044 -0.033020788992415007 0.55919291073839883 0 -0.82903756765294845 0.62177817573971139 0 0.41939468305379912 1 I I -0.70710678118654757 0.70710678118654757 0.75 forward I I I I #
loop $-1 $-1 $161 $44 #
coedge $-1 $100 $100 $162 $163 reversed $63 $-1 #
face $-1 $-1 $164 $35 $-1 $165 forward single #
loop $-1 $166 $167 $65 #
cone-surface $-1 -53.494701064493029 16.902133735198799 -0.033020788992415007 0.55919291073839883 0 -0.82903756765294845 0.62177817573971139 0 0.41939468305379912 1 I I -0.70710678118654757 0.70710678118654757 0.75 forward I I I I #
loop $-1 $-1 $168 $45 #
coedge $-1 $105 $105 $169 $170 reversed $66 $-1 #
face $-1 $171 $172 $36 $-1 $173 forward single #
loop $-1 $-1 $174 $68 #
plane-surface $-1 -27.266226434069935 14.157484603043077 80.788684324891634 0.68199836817093118 0 0.7313536940579346 0.7313536940579346 0 -0.68199836817093118 forward_v I I I I #
coedge $-1 $175 $176 $177 $178 reversed $69 $-1 #
face $-1 $-1 $179 $37 $-1 $180 forward single #
loop $-1 $181 $182 $71 #
cone-surface $-1 53.717602117929559 10.706195673793342 0.11317525127138328 -0.68199836817093118 0 -0.7313536940579346 0.3656768470289673 0 -0.34099918408546559 1 I I -0.70710678118654746 0.70710678118654746 0.5 forward I I I I #
loop $-1 $-1 $183 $47 #
coedge $-1 $114 $114 $184 $185 reversed $72 $-1 #
face $-1 $-1 $186 $38 $-1 $187 forward single #
loop $-1 $188 $189 $74 #
cone-surface $-1 53.717602117929559 14.157484603043077 0.11317525127138328 -0.68199836817093118 0 -0.7313536940579346 0.3656768470289673 0 -0.34099918408546559 1 I I -0.70710678118654746 0.70710678118654746 0.5 forward I I I I #
loop $-1 $-1 $190 $48 #
coedge $-1 $119 $119 $191 $192 reversed $75 $-1 #
face $-1 $-1 $193 $39 $-1 $194 forward single #
loop $-1 $195 $196 $77 #
cone-surface $-1 53.717602117929559 17.608773532292812 0.11317525127138328 -0.68199836817093118 0 -0.7313536940579346 0.3656768470289673 0 -0.34099918408546559 1 I I -0.70710678118654746 0.70710678118654746 0.5 forward I I I I #
loop $-1 $-1 $197 $49 #
coedge $-1 $124 $124 $198 $199 reversed $78 $-1 #
face $-1 $200 $201 $30 $-1 $202 reversed single #
loop $-1 $-1 $203 $80 #
plane-surface $-1 0 -25.058473496754292 0 0 1 0 0 0 1 forward_v I I I I #
coedge $-1 $204 $205 $206 $207 forward $81 $-1 #
coedge $-1 $208 $83 $209 $210 forward $51 $-1 #
coedge $-1 $83 $208 $211 $212 forward $51 $-1 #
coedge $-1 $213 $214 $83 $132 reversed $215 $-1 #
edge $-1 $216 -25.058473496754292 $217 25.058473496754292 $131 $218 forward 7 unknown #
face $-1 $219 $220 $31 $-1 $221 reversed single #
loop $-1 $-1 $222 $84 #
plane-surface $-1 0 -19.909632818459304 0.5028945699986096 0 -1 0 0 0 -1 forward_v I I I I #
coedge $-1 $223 $224 $225 $226 reversed $85 $-1 #
coedge $-1 $227 $87 $228 $229 forward $54 $-1 #
coedge $-1 $87 $227 $230 $231 reversed $54 $-1 #
coedge $-1 $232 $233 $87 $140 forward $234 $-1 #
edge $-1 $235 8.667606239655905 $236 13.816446917950893 $139 $237 forward 7 unknown #
face $-1 $238 $239 $32 $-1 $240 reversed single #
loop $-1 $-1 $241 $88 #
plane-surface $-1 0 19.909632818459304 0.5028945699986096 0 1 0 0 0 1 forward_v I I I I #
coedge $-1 $242 $243 $244 $245 reversed $89 $-1 #
coedge $-1 $246 $91 $247 $248 reversed $57 $-1 #
coedge $-1 $91 $246 $249 $250 forward $57 $-1 #
coedge $-1 $251 $252 $91 $148 forward $239 $-1 #
edge $-1 $253 -13.816446917950893 $254 -8.667606239655905 $147 $255 forward 7 unknown #
face $-1 $256 $257 $33 $-1 $258 reversed single #
loop $-1 $-1 $259 $92 #
plane-surface $-1 0 19.909632818459304 0.5028945699986096 0 1 0 0 0 1 forward_v I I I I #
coedge $-1 $260 $261 $262 $263 reversed $93 $-1 #
coedge $-1 $264 $95 $259 $265 reversed $60 $-1 #
coedge $-1 $95 $264 $260 $266 forward $60 $-1 #
coedge $-1 $262 $267 $95 $156 forward $257 $-1 #
edge $-1 $268 -12.586378107082593 $269 -2.0601313156708283 $155 $270 forward 7 unknown #
loop $-1 $-1 $162 $96 #
plane-surface $-1 -58.927579577013461 14.646509422753422 0.8399646637025171 -0.55919291073839883 0 0.82903756765294845 0.82903756765294845 0 0.55919291073839883 forward_v I I I I #
loop $-1 $-1 $271 $62 #
coedge $-1 $160 $160 $161 $272 reversed $97 $-1 #
coedge $-1 $161 $161 $160 $272 forward $99 $-1 #
coedge $-1 $162 $162 $100 $163 forward $157 $-1 #
edge $-1 $273 0 $273 6.2831853071796004 $162 $274 forward 7 unknown #
loop $-1 $-1 $169 $101 #
plane-surface $-1 -58.927579577013461 14.646509422753422 0.8399646637025171 -0.55919291073839883 0 0.82903756765294845 0.82903756765294845 0 0.55919291073839883 forward_v I I I I #
loop $-1 $-1 $275 $65 #
coedge $-1 $167 $167 $168 $276 reversed $102 $-1 #
coedge $-1 $168 $168 $167 $276 forward $104 $-1 #
coedge $-1 $169 $169 $105 $170 forward $164 $-1 #
edge $-1 $277 0 $277 6.2831853071796004 $169 $278 forward 7 unknown #
face $-1 $279 $280 $36 $-1 $281 forward single #
loop $-1 $-1 $282 $106 #
plane-surface $-1 0 0 5.3312825796662251 0 0 1 1 0 0 forward_v I I I I #
coedge $-1 $283 $284 $285 $286 reversed $107 $-1 #
coedge $-1 $176 $109 $287 $288 reversed $69 $-1 #
coedge $-1 $109 $175 $283 $289 reversed $69 $-1 #
coedge $-1 $285 $290 $109 $178 forward $291 $-1 #
edge $-1 $292 78.159962588321292 $293 83.079587066667628 $177 $294 forward 7 unknown #
loop $-1 $-1 $184 $110 #
plane-surface $-1 -27.266226434069935 14.157484603043077 80.788684324891634 0.68199836817093118 0 0.7313536940579346 0.7313536940579346 0 -0.68199836817093118 forward_v I I I I #
loop $-1 $-1 $295 $71 #
coedge $-1 $182 $182 $183 $296 reversed $111 $-1 #
coedge $-1 $183 $183 $182 $296 forward $113 $-1 #
coedge $-1 $184 $184 $114 $185 forward $179 $-1 #
edge $-1 $297 0 $297 6.2831853071796004 $184 $298 forward 7 unknown #
loop $-1 $-1 $191 $115 #
plane-surface $-1 -27.266226434069935 14.157484603043077 80.788684324891634 0.68199836817093118 0 0.7313536940579346 0.7313536940579346 0 -0.68199836817093118 forward_v I I I I #
loop $-1 $-1 $299 $74 #
coedge $-1 $189 $189 $190 $300 reversed $116 $-1 #
coedge $-1 $190 $190 $189 $300 forward $118 $-1 #
coedge $-1 $191 $191 $119 $192 forward $186 $-1 #
edge $-1 $301 0 $301 6.2831853071796004 $191 $302 forward 7 unknown #
loop $-1 $-1 $198 $120 #
plane-surface $-1 -27.266226434069935 14.157484603043077 80.788684324891634 0.68199836817093118 0 0.7313536940579346 0.7313536940579346 0 -0.68199836817093118 forward_v I I I I #
loop $-1 $-1 $303 $77 #
coedge $-1 $196 $196 $197 $304 reversed $121 $-1 #
coedge $-1 $197 $197 $196 $304 forward $123 $-1 #
coedge $-1 $198 $198 $124 $199 forward $193 $-1 #
edge $-1 $305 0 $305 6.2831853071796004 $198 $306 forward 7 unknown #
face $-1 $307 $308 $30 $-1 $309 reversed single #
loop $-1 $-1 $310 $125 #
plane-surface $-1 -58.927579577013461 0 0 1 0 0 0 0 -1 forward_v I I I I #
coedge $-1 $311 $211 $312 $313 forward $126 $-1 #
coedge $-1 $314 $128 $311 $315 forward $81 $-1 #
coedge $-1 $128 $314 $316 $317 forward $81 $-1 #
coedge $-1 $214 $213 $128 $207 reversed $215 $-1 #
edge $-1 $318 -25.058473496754292 $319 25.058473496754292 $206 $320 forward 7 unknown #
coedge $-1 $130 $129 $321 $322 forward $51 $-1 #
coedge $-1 $323 $324 $129 $210 reversed $308 $-1 #
edge $-1 $217 -58.927579577013461 $325 58.927579577013461 $209 $326 forward 7 unknown #
coedge $-1 $203 $327 $130 $212 reversed $126 $-1 #
edge $-1 $328 -58.927579577013461 $216 58.927579577013461 $211 $329 forward 7 unknown #
coedge $-1 $206 $131 $327 $330 forward $215 $-1 #
coedge $-1 $131 $206 $323 $331 reversed $215 $-1 #
loop $-1 $-1 $213 $307 #
vertex $-1 $132 $332 #
vertex $-1 $132 $333 #
straight-curve $-1 58.927579577013461 0 5.3312825796662251 0 1 0 I I #
face $-1 $334 $335 $31 $-1 $336 reversed single #
loop $-1 $-1 $337 $133 #
plane-surface $-1 -58.927579577013461 0 0 1 0 0 0 0 -1 forward_v I I I I #
coedge $-1 $338 $228 $233 $339 reversed $134 $-1 #
coedge $-1 $340 $136 $341 $342 reversed $85 $-1 #
coedge $-1 $136 $340 $338 $343 forward $85 $-1 #
coedge $-1 $233 $232 $136 $226 forward $234 $-1 #
edge $-1 $344 -13.816446917950893 $345 -8.667606239655905 $225 $346 forward 7 unknown #
coedge $-1 $138 $137 $337 $347 reversed $54 $-1 #
coedge $-1 $222 $348 $137 $229 reversed $134 $-1 #
edge $-1 $235 -58.927579577013461 $349 58.927579577013461 $228 $350 forward 7 unknown #
coedge $-1 $351 $352 $138 $231 forward $335 $-1 #
edge $-1 $236 -58.927579577013461 $353 58.927579577013461 $230 $354 forward 7 unknown #
coedge $-1 $225 $139 $352 $355 forward $234 $-1 #
coedge $-1 $139 $225 $222 $339 forward $234 $-1 #
loop $-1 $-1 $139 $334 #
vertex $-1 $140 $356 #
vertex $-1 $355 $357 #
straight-curve $-1 58.927579577013461 -11.242026578803399 2.0028945699986096 0 -1 0 I I #
face $-1 $358 $359 $32 $-1 $360 reversed single #
loop $-1 $-1 $147 $141 #
plane-surface $-1 58.927579577013461 0 0 -1 0 0 0 0 1 forward_v I I I I #
coedge $-1 $361 $249 $362 $363 reversed $142 $-1 #
coedge $-1 $364 $144 $361 $365 forward $89 $-1 #
coedge $-1 $144 $364 $366 $367 reversed $89 $-1 #
coedge $-1 $252 $251 $144 $245 forward $239 $-1 #
edge $-1 $368 8.667606239655905 $369 13.816446917950893 $244 $370 forward 7 unknown #
coedge $-1 $146 $145 $371 $372 reversed $57 $-1 #
coedge $-1 $373 $374 $145 $248 forward $375 $-1 #
edge $-1 $376 -58.927579577013461 $253 58.927579577013461 $247 $377 forward 7 unknown #
coedge $-1 $241 $378 $146 $250 reversed $142 $-1 #
edge $-1 $379 -58.927579577013461 $254 58.927579577013461 $249 $380 forward 7 unknown #
coedge $-1 $244 $147 $378 $381 forward $239 $-1 #
coedge $-1 $147 $244 $373 $382 reversed $239 $-1 #
vertex $-1 $382 $383 #
vertex $-1 $148 $384 #
straight-curve $-1 58.927579577013461 11.242026578803399 2.0028945699986096 0 -1 0 I I #
face $-1 $-1 $385 $33 $-1 $386 forward single #
loop $-1 $-1 $267 $149 #
plane-surface $-1 -58.927579577013461 0 0 1 0 0 0 0 -1 forward_v I I I I #
coedge $-1 $387 $388 $153 $265 forward $150 $-1 #
coedge $-1 $261 $152 $154 $266 reversed $93 $-1 #
coedge $-1 $152 $260 $389 $390 reversed $93 $-1 #
coedge $-1 $391 $155 $152 $263 forward $257 $-1 #
edge $-1 $269 -48.433194908351538 $392 -43.941876992387833 $262 $393 forward 7 unknown #
coedge $-1 $154 $153 $394 $395 reversed $60 $-1 #
edge $-1 $396 16.300558794592543 $268 24.332345016690827 $259 $397 forward 7 unknown #
edge $-1 $398 -8.0317862220982832 $269 0 $260 $399 forward 7 unknown #
coedge $-1 $155 $391 $387 $400 forward $257 $-1 #
vertex $-1 $265 $401 #
vertex $-1 $156 $402 #
straight-curve $-1 -58.927579577013461 7.3232547113767108 0.83996466370251777 0 -1 0 I I #
coedge $-1 $271 $271 $-1 $403 reversed $159 $-1 #
edge $-1 $404 0 $404 6.2831853071796004 $160 $405 forward 7 unknown #
vertex $-1 $163 $406 #
ellipse-curve $-1 -55.598253320275042 12.390885110308044 3.0856236216843751 -0.55919291073839883 0 0.82903756765294845 1.2435563514794228 0 0.83878936610759824 1 I I #
coedge $-1 $275 $275 $-1 $407 reversed $166 $-1 #
edge $-1 $408 0 $408 6.2831853071796004 $167 $409 forward 7 unknown #
vertex $-1 $170 $410 #
ellipse-curve $-1 -55.598253320275042 16.902133735198799 3.0856236216843751 -0.55919291073839883 0 0.82903756765294845 1.2435563514794228 0 0.83878936610759824 1 I I #
face $-1 $-1 $291 $36 $-1 $411 reversed single #
loop $-1 $-1 $412 $171 #
plane-surface $-1 0 19.909632818459304 0.5028945699986096 0 1 0 0 0 1 forward_v I I I I #
coedge $-1 $413 $414 $415 $416 forward $172 $-1 #
coedge $-1 $417 $174 $176 $289 forward $107 $-1 #
coedge $-1 $174 $417 $412 $418 forward $107 $-1 #
coedge $-1 $419 $177 $174 $286 forward $291 $-1 #
edge $-1 $293 1.3265940861053185 $420 12.830890516937766 $285 $421 forward 7 unknown #
coedge $-1 $414 $413 $175 $288 forward $172 $-1 #
edge $-1 $422 27.096528443879151 $292 32.372179682262555 $287 $423 forward 7 unknown #
edge $-1 $293 -117.85515915402692 $422 -110.64161626602794 $176 $424 forward 7 unknown #
coedge $-1 $177 $419 $414 $425 reversed $291 $-1 #
loop $-1 $-1 $419 $279 #
vertex $-1 $425 $426 #
vertex $-1 $178 $427 #
straight-curve $-1 58.927579577013461 8.405336387626857 83.491245167987515 0 0 -1 I I #
coedge $-1 $295 $295 $-1 $428 reversed $181 $-1 #
edge $-1 $429 0 $429 6.2831853071796004 $182 $430 forward 7 unknown #
vertex $-1 $185 $431 #
ellipse-curve $-1 56.289753957821759 10.706195673793342 2.8714703404930599 0.68199836817093118 0 0.7313536940579346 0.7313536940579346 0 -0.68199836817093118 1 I I #
coedge $-1 $299 $299 $-1 $432 reversed $188 $-1 #
edge $-1 $433 0 $433 6.2831853071796004 $189 $434 forward 7 unknown #
vertex $-1 $192 $435 #
ellipse-curve $-1 56.289753957821759 14.157484603043077 2.8714703404930599 0.68199836817093118 0 0.7313536940579346 0.7313536940579346 0 -0.68199836817093118 1 I I #
coedge $-1 $303 $303 $-1 $436 reversed $195 $-1 #
edge $-1 $437 0 $437 6.2831853071796004 $196 $438 forward 7 unknown #
vertex $-1 $199 $439 #
ellipse-curve $-1 56.289753957821759 17.608773532292812 2.8714703404930599 0.68199836817093118 0 0.7313536940579346 0.7313536940579346 0 -0.68199836817093118 1 I I #
face $-1 $-1 $215 $30 $-1 $440 reversed single #
loop $-1 $-1 $323 $200 #
plane-surface $-1 0 25.058473496754292 0 0 -1 0 0 0 -1 forward_v I I I I #
coedge $-1 $441 $321 $324 $442 forward $201 $-1 #
coedge $-1 $327 $203 $204 $315 reversed $126 $-1 #
coedge $-1 $321 $441 $203 $313 reversed $201 $-1 #
edge $-1 $328 -5.3312825796662251 $443 5.3312825796662251 $312 $444 forward 7 unknown #
coedge $-1 $205 $204 $441 $445 forward $81 $-1 #
edge $-1 $319 -58.927579577013461 $443 58.927579577013461 $311 $446 forward 7 unknown #
coedge $-1 $324 $323 $205 $317 reversed $308 $-1 #
edge $-1 $447 -58.927579577013461 $318 58.927579577013461 $316 $448 forward 7 unknown #
vertex $-1 $207 $449 #
vertex $-1 $330 $450 #
straight-curve $-1 58.927579577013461 0 -5.3312825796662251 0 -1 0 I I #
coedge $-1 $310 $312 $208 $322 reversed $201 $-1 #
edge $-1 $325 -25.058473496754292 $328 25.058473496754292 $321 $451 forward 7 unknown #
coedge $-1 $316 $209 $214 $331 forward $308 $-1 #
coedge $-1 $209 $316 $310 $442 reversed $308 $-1 #
vertex $-1 $210 $452 #
straight-curve $-1 0 25.058473496754292 5.3312825796662251 -1 0 0 I I #
coedge $-1 $211 $311 $213 $330 reversed $126 $-1 #
vertex $-1 $322 $453 #
straight-curve $-1 0 -25.058473496754292 5.3312825796662251 1 0 0 I I #
edge $-1 $216 -5.3312825796662251 $319 5.3312825796662251 $213 $454 forward 7 unknown #
edge $-1 $217 -5.3312825796662251 $318 5.3312825796662251 $214 $455 forward 7 unknown #
point $-1 58.927579577013461 -25.058473496754292 5.3312825796662251 #
point $-1 58.927579577013461 25.058473496754292 5.3312825796662251 #
face $-1 $-1 $234 $31 $-1 $456 reversed single #
loop $-1 $-1 $230 $219 #
plane-surface $-1 0 -25.058473496754292 0 0 1 0 0 0 1 forward_v I I I I #
coedge $-1 $457 $458 $227 $347 forward $220 $-1 #
coedge $-1 $348 $222 $224 $343 reversed $134 $-1 #
edge $-1 $345 -1.2485527150006952 $235 1.7514472849993048 $233 $459 forward 7 unknown #
coedge $-1 $224 $223 $460 $461 reversed $85 $-1 #
coedge $-1 $352 $351 $223 $342 forward $335 $-1 #
edge $-1 $462 -58.927579577013461 $344 58.927579577013461 $341 $463 forward 7 unknown #
edge $-1 $464 -58.927579577013461 $345 58.927579577013461 $338 $465 forward 7 unknown #
vertex $-1 $342 $466 #
vertex $-1 $226 $467 #
straight-curve $-1 58.927579577013461 -11.242026578803399 -0.9971054300013904 0 1 0 I I #
edge $-1 $353 -13.816446917950893 $349 -8.667606239655905 $337 $468 forward 7 unknown #
coedge $-1 $228 $338 $457 $469 reversed $134 $-1 #
vertex $-1 $347 $470 #
straight-curve $-1 0 -19.909632818459304 2.0028945699986096 -1 0 0 I I #
coedge $-1 $341 $230 $458 $471 forward $335 $-1 #
coedge $-1 $230 $341 $232 $355 reversed $335 $-1 #
vertex $-1 $471 $472 #
straight-curve $-1 0 -25.058473496754292 2.0028945699986096 -1 0 0 I I #
edge $-1 $236 -2.0028945699986096 $344 0.9971054300013904 $232 $473 forward 7 unknown #
point $-1 58.927579577013461 -19.909632818459304 2.0028945699986096 #
point $-1 58.927579577013461 -25.058473496754292 2.0028945699986096 #
face $-1 $-1 $375 $32 $-1 $474 reversed single #
loop $-1 $-1 $371 $238 #
plane-surface $-1 -58.927579577013461 0 0 1 0 0 0 0 -1 forward_v I I I I #
coedge $-1 $378 $241 $242 $365 reversed $142 $-1 #
coedge $-1 $371 $475 $241 $363 forward $359 $-1 #
edge $-1 $476 -1.2485527150006952 $379 1.7514472849993048 $362 $477 forward 7 unknown #
coedge $-1 $243 $242 $475 $478 reversed $89 $-1 #
edge $-1 $368 -58.927579577013461 $476 58.927579577013461 $361 $479 forward 7 unknown #
coedge $-1 $374 $373 $243 $367 forward $375 $-1 #
edge $-1 $369 -58.927579577013461 $480 58.927579577013461 $366 $481 forward 7 unknown #
vertex $-1 $245 $482 #
vertex $-1 $367 $483 #
straight-curve $-1 58.927579577013461 11.242026578803399 -0.9971054300013904 0 1 0 I I #
coedge $-1 $484 $362 $246 $372 forward $359 $-1 #
edge $-1 $379 8.667606239655905 $376 13.816446917950893 $371 $485 forward 7 unknown #
coedge $-1 $366 $247 $252 $382 forward $375 $-1 #
coedge $-1 $247 $366 $484 $486 reversed $375 $-1 #
loop $-1 $-1 $247 $358 #
vertex $-1 $486 $487 #
straight-curve $-1 0 25.058473496754292 2.0028945699986096 1 0 0 I I #
coedge $-1 $249 $361 $251 $381 reversed $142 $-1 #
vertex $-1 $372 $488 #
straight-curve $-1 0 19.909632818459304 2.0028945699986096 1 0 0 I I #
edge $-1 $254 -1.7514472849993048 $368 1.2485527150006952 $251 $489 forward 7 unknown #
edge $-1 $253 -2.0028945699986096 $369 0.9971054300013904 $252 $490 forward 7 unknown #
point $-1 58.927579577013461 25.058473496754292 2.0028945699986096 #
point $-1 58.927579577013461 19.909632818459304 2.0028945699986096 #
loop $-1 $-1 $491 $256 #
plane-surface $-1 0 0 5.3312825796662251 0 0 1 1 0 0 forward_v I I I I #
coedge $-1 $388 $259 $267 $400 reversed $150 $-1 #
coedge $-1 $259 $387 $491 $492 reversed $150 $-1 #
coedge $-1 $394 $493 $261 $390 forward $385 $-1 #
edge $-1 $392 3.4880949579320486 $398 10.146747471408872 $389 $494 forward 7 unknown #
coedge $-1 $267 $262 $493 $495 reversed $257 $-1 #
vertex $-1 $390 $496 #
straight-curve $-1 -58.927579577013461 9.3833860270475391 49.273159572054055 0 0 1 I I #
coedge $-1 $491 $389 $264 $395 forward $385 $-1 #
edge $-1 $398 2.0601313156708283 $396 12.586378107082593 $394 $497 forward 7 unknown #
vertex $-1 $492 $498 #
straight-curve $-1 -38.755151449083755 19.909632818459304 14.446439498676829 -0.82903756765294845 0 -0.55919291073839883 I I #
vertex $-1 $395 $499 #
straight-curve $-1 -58.927579577013461 9.3833860270475391 0.8399646637025171 -0.82903756765294845 0 -0.55919291073839883 I I #
edge $-1 $500 43.941876992387833 $268 48.433194908351538 $267 $501 forward 7 unknown #
point $-1 -58.927579577013461 19.909632818459304 0.8399646637025171 #
point $-1 -58.927579577013461 9.3833860270475391 0.8399646637025171 #
edge $-1 $502 1 $502 0 $271 $-1 forward 7 unknown #
vertex $-1 $272 $503 #
ellipse-curve $-1 -53.914095747546831 12.390885110308044 0.58875738674729639 -0.55919291073839883 0 0.82903756765294845 1.2435563514794228 0 0.83878936610759824 1 I I #
point $-1 -54.354696968795608 12.390885110308044 3.924412987791956 #
edge $-1 $504 1 $504 0 $275 $-1 forward 7 unknown #
vertex $-1 $276 $505 #
ellipse-curve $-1 -53.914095747546831 16.902133735198799 0.58875738674729639 -0.55919291073839883 0 0.82903756765294845 1.2435563514794228 0 0.83878936610759824 1 I I #
point $-1 -54.354696968795608 16.902133735198799 3.924412987791956 #
plane-surface $-1 58.927579577013461 0 0 -1 0 0 0 0 1 forward_v I I I I #
coedge $-1 $415 $506 $284 $418 reversed $280 $-1 #
coedge $-1 $287 $282 $417 $507 forward $172 $-1 #
coedge $-1 $282 $287 $290 $425 forward $172 $-1 #
coedge $-1 $506 $412 $282 $416 reversed $280 $-1 #
edge $-1 $508 -32.372179682262555 $509 -27.096528443879151 $282 $510 forward 7 unknown #
coedge $-1 $284 $283 $413 $507 reversed $107 $-1 #
edge $-1 $509 110.64161626602794 $420 117.85515915402692 $412 $511 forward 7 unknown #
coedge $-1 $290 $285 $506 $512 forward $291 $-1 #
vertex $-1 $512 $513 #
straight-curve $-1 58.927579577013447 7.0787423015215385 0.41165810131989389 0 1 0 I I #
vertex $-1 $288 $514 #
straight-curve $-1 26.555399894750906 8.405336387626857 5.3312825796662224 1 0 0 I I #
straight-curve $-1 -27.266226434069935 8.405336387626857 80.788684324891634 -0.7313536940579346 0 0.68199836817093118 I I #
edge $-1 $292 8.405336387626857 $508 19.909632818459297 $290 $515 forward 7 unknown #
point $-1 58.927579577013461 8.405336387626857 5.3312825796662251 #
point $-1 58.927579577013461 8.405336387626857 0.41165810131988678 #
edge $-1 $516 1 $516 0 $295 $-1 forward 7 unknown #
vertex $-1 $296 $517 #
ellipse-curve $-1 54.058601302015028 10.706195673793342 0.47885209830035058 0.68199836817093118 0 0.7313536940579346 0.7313536940579346 0 -0.68199836817093118 1 I I #
point $-1 57.021107651879696 10.706195673793342 2.1894719723221265 #
edge $-1 $518 1 $518 0 $299 $-1 forward 7 unknown #
vertex $-1 $300 $519 #
ellipse-curve $-1 54.058601302015028 14.157484603043077 0.47885209830035058 0.68199836817093118 0 0.7313536940579346 0.7313536940579346 0 -0.68199836817093118 1 I I #
point $-1 57.021107651879696 14.157484603043077 2.1894719723221265 #
edge $-1 $520 1 $520 0 $303 $-1 forward 7 unknown #
vertex $-1 $304 $521 #
ellipse-curve $-1 54.058601302015028 17.608773532292812 0.47885209830035058 0.68199836817093118 0 0.7313536940579346 0.7313536940579346 0 -0.68199836817093118 1 I I #
point $-1 57.021107651879696 17.608773532292812 2.1894719723221265 #
plane-surface $-1 58.927579577013461 0 0 -1 0 0 0 0 1 forward_v I I I I #
coedge $-1 $312 $310 $314 $445 reversed $201 $-1 #
edge $-1 $325 -5.3312825796662251 $447 5.3312825796662251 $324 $522 forward 7 unknown #
vertex $-1 $445 $523 #
straight-curve $-1 -58.927579577013461 -25.058473496754292 0 0 0 -1 I I #
edge $-1 $443 -25.058473496754292 $447 25.058473496754292 $441 $524 forward 7 unknown #
straight-curve $-1 0 -25.058473496754292 -5.3312825796662251 -1 0 0 I I #
vertex $-1 $317 $525 #
straight-curve $-1 0 25.058473496754292 -5.3312825796662251 1 0 0 I I #
point $-1 58.927579577013461 25.058473496754292 -5.3312825796662251 #
point $-1 58.927579577013461 -25.058473496754292 -5.3312825796662251 #
straight-curve $-1 -58.927579577013461 0 5.3312825796662251 0 -1 0 I I #
point $-1 -58.927579577013461 25.058473496754292 5.3312825796662251 #
point $-1 -58.927579577013461 -25.058473496754292 5.3312825796662251 #
straight-curve $-1 58.927579577013461 -25.058473496754292 0 0 0 -1 I I #
straight-curve $-1 58.927579577013461 25.058473496754292 0 0 0 -1 I I #
plane-surface $-1 58.927579577013461 0 0 -1 0 0 0 0 1 forward_v I I I I #
coedge $-1 $460 $337 $348 $469 forward $220 $-1 #
coedge $-1 $337 $460 $351 $471 reversed $220 $-1 #
straight-curve $-1 58.927579577013461 -19.909632818459304 0.2514472849993048 0 0 1 I I #
coedge $-1 $458 $457 $340 $461 forward $220 $-1 #
edge $-1 $464 8.667606239655905 $462 13.816446917950893 $460 $526 forward 7 unknown #
vertex $-1 $342 $527 #
straight-curve $-1 0 -25.058473496754292 -0.9971054300013904 1 0 0 I I #
vertex $-1 $461 $528 #
straight-curve $-1 0 -19.909632818459304 -0.9971054300013904 1 0 0 I I #
point $-1 58.927579577013461 -25.058473496754292 -0.9971054300013904 #
point $-1 58.927579577013461 -19.909632818459304 -0.9971054300013904 #
straight-curve $-1 -58.927579577013461 -11.242026578803399 2.0028945699986096 0 1 0 I I #
edge $-1 $349 -1.7514472849993048 $464 1.2485527150006952 $457 $529 forward 7 unknown #
point $-1 -58.927579577013461 -19.909632818459304 2.0028945699986096 #
edge $-1 $353 -2.0028945699986096 $462 0.9971054300013904 $458 $530 forward 7 unknown #
point $-1 -58.927579577013461 -25.058473496754292 2.0028945699986096 #
straight-curve $-1 58.927579577013461 -25.058473496754292 0 0 0 -1 I I #
plane-surface $-1 0 25.058473496754292 0 0 -1 0 0 0 -1 forward_v I I I I #
coedge $-1 $362 $484 $364 $478 forward $359 $-1 #
vertex $-1 $478 $531 #
straight-curve $-1 -58.927579577013461 19.909632818459304 0.2514472849993048 0 0 1 I I #
edge $-1 $480 -13.816446917950893 $476 -8.667606239655905 $475 $532 forward 7 unknown #
straight-curve $-1 0 19.909632818459304 -0.9971054300013904 -1 0 0 I I #
vertex $-1 $367 $533 #
straight-curve $-1 0 25.058473496754292 -0.9971054300013904 -1 0 0 I I #
point $-1 58.927579577013461 19.909632818459304 -0.9971054300013904 #
point $-1 58.927579577013461 25.058473496754292 -0.9971054300013904 #
coedge $-1 $475 $371 $374 $486 forward $359 $-1 #
straight-curve $-1 -58.927579577013461 11.242026578803399 2.0028945699986096 0 1 0 I I #
edge $-1 $376 -2.0028945699986096 $480 0.9971054300013904 $374 $534 forward 7 unknown #
point $-1 -58.927579577013461 25.058473496754292 2.0028945699986096 #
point $-1 -58.927579577013461 19.909632818459304 2.0028945699986096 #
straight-curve $-1 58.927579577013461 19.909632818459304 0.2514472849993048 0 0 -1 I I #
straight-curve $-1 58.927579577013461 25.058473496754292 0 0 0 -1 I I #
coedge $-1 $493 $394 $388 $492 forward $385 $-1 #
edge $-1 $396 -10.146747471408872 $500 -3.4880949579320486 $491 $535 forward 7 unknown #
coedge $-1 $389 $491 $391 $495 forward $385 $-1 #
straight-curve $-1 -62.415674534945509 9.3833860270475391 5.3312825796662224 1 0 0 I I #
edge $-1 $500 -19.909632818459304 $392 -9.3833860270475391 $391 $536 forward 7 unknown #
point $-1 -58.927579577013461 9.3833860270475391 5.3312825796662251 #
straight-curve $-1 -52.26892706353663 7.3232547113767108 5.331282579666226 0 1 0 I I #
point $-1 -52.268927063536637 19.909632818459304 5.3312825796662251 #
point $-1 -52.268927063536637 9.3833860270475391 5.3312825796662251 #
vertex $-1 $495 $537 #
straight-curve $-1 -58.927579577013461 19.909632818459304 49.273159572054055 0 0 -1 I I #
vertex $-1 $403 $538 #
point $-1 -52.670539396067404 12.390885110308044 1.4275467528548946 #
vertex $-1 $407 $539 #
point $-1 -52.670539396067404 16.902133735198799 1.4275467528548946 #
coedge $-1 $412 $415 $419 $512 reversed $280 $-1 #
edge $-1 $509 -12.830890516937759 $422 -1.3265940861053185 $413 $540 forward 7 unknown #
vertex $-1 $416 $541 #
vertex $-1 $507 $542 #
straight-curve $-1 26.555399894750906 19.909632818459297 5.3312825796662224 -1 0 0 I I #
straight-curve $-1 -27.266226434069935 19.909632818459297 80.788684324891634 0.7313536940579346 0 -0.68199836817093118 I I #
edge $-1 $420 -83.079587066667614 $508 -78.159962588321292 $419 $543 forward 7 unknown #
point $-1 58.927579577013461 19.909632818459304 0.41165810131989805 #
point $-1 53.651928338630057 8.405336387626857 5.3312825796662224 #
straight-curve $-1 58.927579577013461 0 5.3312825796662251 0 1 0 I I #
vertex $-1 $428 $544 #
point $-1 54.789954996072957 10.706195673793342 -0.2031462698705806 #
vertex $-1 $432 $545 #
point $-1 54.789954996072957 14.157484603043077 -0.2031462698705806 #
vertex $-1 $436 $546 #
point $-1 54.789954996072957 17.608773532292812 -0.2031462698705806 #
straight-curve $-1 -58.927579577013461 25.058473496754292 0 0 0 -1 I I #
point $-1 -58.927579577013461 -25.058473496754292 -5.3312825796662251 #
straight-curve $-1 -58.927579577013461 0 -5.3312825796662251 0 1 0 I I #
point $-1 -58.927579577013461 25.058473496754292 -5.3312825796662251 #
straight-curve $-1 -58.927579577013461 -11.242026578803399 -0.9971054300013904 0 -1 0 I I #
point $-1 -58.927579577013461 -25.058473496754292 -0.9971054300013904 #
point $-1 -58.927579577013461 -19.909632818459304 -0.9971054300013904 #
straight-curve $-1 -58.927579577013461 -19.909632818459304 0.2514472849993048 0 0 -1 I I #
straight-curve $-1 -58.927579577013461 -25.058473496754292 0 0 0 -1 I I #
point $-1 -58.927579577013461 19.909632818459304 -0.9971054300013904 #
straight-curve $-1 -58.927579577013461 11.242026578803399 -0.9971054300013904 0 -1 0 I I #
point $-1 -58.927579577013461 25.058473496754292 -0.9971054300013904 #
straight-curve $-1 -58.927579577013461 25.058473496754292 0 0 0 -1 I I #
straight-curve $-1 -62.415674534945509 19.909632818459304 5.3312825796662224 -1 0 0 I I #
straight-curve $-1 -58.927579577013461 0 5.3312825796662251 0 -1 0 I I #
point $-1 -58.927579577013461 19.909632818459304 5.3312825796662251 #
point $-1 -53.075306381439226 12.390885110308044 -0.6547989647321264 #
point $-1 -53.075306381439226 16.902133735198799 -0.6547989647321264 #
straight-curve $-1 53.651928338630057 7.0787423015215385 5.3312825796662295 0 -1 0 I I #
point $-1 58.927579577013461 19.909632818459297 5.3312825796662251 #
point $-1 53.651928338630057 19.909632818459297 5.3312825796662224 #
straight-curve $-1 58.927579577013461 19.909632818459297 83.491245167987515 0 0 1 I I #
point $-1 53.37660293384409 10.706195673793342 -0.25250159575758402 #
point $-1 53.37660293384409 14.157484603043077 -0.25250159575758402 #
point $-1 53.37660293384409 17.608773532292812 -0.25250159575758402 #
End-of-ACIS-data 