500 0 11 0           
7 Unknown 11 ACIS 5.0 NT 24 Thu Mar 25 22:08:37 1999 
-1 9.9999999999999995e-007 1e-010 
body $-1 $11 $-1 $12 #
body $-1 $13 $-1 $14 #
body $-1 $15 $-1 $16 #
body $-1 $17 $-1 $18 #
body $-1 $19 $-1 $20 #
body $-1 $21 $-1 $22 #
body $-1 $23 $-1 $24 #
body $-1 $25 $-1 $26 #
body $-1 $27 $-1 $28 #
body $-1 $29 $-1 $30 #
body $-1 $31 $-1 $32 #
lump $-1 $-1 $33 $0 #
transform $-1 1 0 0 0 1 0 0 0 1 53.79436628315073 36.477955343950043 17.729330528310349 1 rotate no_reflect no_shear #
lump $-1 $-1 $34 $1 #
transform $-1 1 0 0 0 1 0 0 0 1 53.79436628315073 36.477955343950043 17.729330528310349 1 rotate no_reflect no_shear #
lump $-1 $-1 $35 $2 #
transform $-1 1 0 0 0 1 0 0 0 1 53.79436628315073 36.477955343950043 17.729330528310349 1 rotate no_reflect no_shear #
lump $-1 $-1 $36 $3 #
transform $-1 1 0 0 0 1 0 0 0 1 53.79436628315073 36.477955343950043 17.729330528310349 1 rotate no_reflect no_shear #
lump $-1 $-1 $37 $4 #
transform $-1 1 0 0 0 1 0 0 0 1 53.79436628315073 36.477955343950043 17.729330528310349 1 rotate no_reflect no_shear #
lump $-1 $-1 $38 $5 #
transform $-1 1 0 0 0 1 0 0 0 1 53.79436628315073 36.477955343950043 17.729330528310349 1 rotate no_reflect no_shear #
lump $-1 $-1 $39 $6 #
transform $-1 1 0 0 0 1 0 0 0 1 53.79436628315073 36.477955343950043 17.729330528310349 1 rotate no_reflect no_shear #
lump $-1 $-1 $40 $7 #
transform $-1 1 0 0 0 1 0 0 0 1 53.79436628315073 36.477955343950043 17.729330528310349 1 rotate no_reflect no_shear #
lump $-1 $-1 $41 $8 #
transform $-1 1 0 0 0 1 0 0 0 1 53.79436628315073 36.477955343950043 17.729330528310349 1 rotate no_reflect no_shear #
lump $-1 $-1 $42 $9 #
transform $-1 1 0 0 0 1 0 0 0 1 53.79436628315073 36.477955343950043 17.729330528310349 1 rotate no_reflect no_shear #
lump $-1 $-1 $43 $10 #
transform $-1 1 0 0 0 1 0 0 0 1 53.79436628315073 36.477955343950043 17.729330528310349 1 rotate no_reflect no_shear #
shell $-1 $-1 $-1 $44 $-1 $11 #
shell $-1 $-1 $-1 $45 $-1 $13 #
shell $-1 $-1 $-1 $46 $-1 $15 #
shell $-1 $-1 $-1 $47 $-1 $17 #
shell $-1 $-1 $-1 $48 $-1 $19 #
shell $-1 $-1 $-1 $49 $-1 $21 #
shell $-1 $-1 $-1 $50 $-1 $23 #
shell $-1 $-1 $-1 $51 $-1 $25 #
shell $-1 $-1 $-1 $52 $-1 $27 #
shell $-1 $-1 $-1 $53 $-1 $29 #
shell $-1 $-1 $-1 $54 $-1 $31 #
face $-1 $55 $56 $33 $-1 $57 forward single #
face $-1 $58 $59 $34 $-1 $60 reversed single #
face $-1 $61 $62 $35 $-1 $63 reversed single #
face $-1 $64 $65 $36 $-1 $66 reversed single #
face $-1 $67 $68 $37 $-1 $69 forward single #
face $-1 $70 $71 $38 $-1 $72 reversed single #
face $-1 $73 $74 $39 $-1 $75 forward single #
face $-1 $76 $77 $40 $-1 $78 reversed single #
face $-1 $79 $80 $41 $-1 $81 forward single #
face $-1 $82 $83 $42 $-1 $84 reversed single #
face $-1 $85 $86 $43 $-1 $87 forward single #
face $-1 $88 $89 $33 $-1 $90 reversed single #
loop $-1 $-1 $91 $44 #
plane-surface $-1 0 0 17.729330528310349 0 0 1 1 0 0 forward_v I I I I #
face $-1 $92 $93 $34 $-1 $94 reversed single #
loop $-1 $-1 $95 $45 #
plane-surface $-1 -45.899422408181273 -26.448089930476456 0 0 -1 0 0 0 -1 forward_v I I I I #
face $-1 $96 $97 $35 $-1 $98 reversed single #
loop $-1 $-1 $99 $46 #
plane-surface $-1 38.004478533211817 -31.46302263721325 0 1 0 0 0 0 -1 forward_v I I I I #
face $-1 $100 $101 $36 $-1 $102 reversed single #
loop $-1 $-1 $103 $47 #
plane-surface $-1 -16.86845574018006 -90.272322347809336 104.00793998789626 -1 0 0 0 -0.50000000669873634 0.8660253999169214 forward_v I I I I #
face $-1 $104 $105 $37 $-1 $106 forward single #
loop $-1 $107 $108 $48 #
cone-surface $-1 -25.29422968202309 -29.810769141064387 13.077390805819778 0 0.50000000669873634 -0.8660253999169214 2 0 0 1 I I 0 1 2 forward I I I I #
face $-1 $109 $110 $38 $-1 $111 reversed single #
loop $-1 $-1 $112 $49 #
plane-surface $-1 21.13602279303176 -90.272322347809336 104.00793998789626 -1 0 0 0 -0.50000000669873634 0.8660253999169214 forward_v I I I I #
face $-1 $113 $114 $39 $-1 $115 forward single #
loop $-1 $116 $117 $50 #
cone-surface $-1 12.71024885118873 -29.810769141064387 13.077390805819778 0 0.50000000669873634 -0.8660253999169214 2 0 0 1 I I 0 1 2 forward I I I I #
face $-1 $118 $119 $40 $-1 $120 reversed single #
loop $-1 $-1 $121 $51 #
plane-surface $-1 -33.72000362386612 27.090650618017449 140.48589582055871 1 0 0 0 -0.50000000669873634 -0.8660253999169214 forward_v I I I I #
face $-1 $122 $123 $41 $-1 $124 forward single #
loop $-1 $125 $126 $52 #
cone-surface $-1 -25.29422968202309 29.810769141064377 13.077390805819778 0 -0.50000000669873634 -0.8660253999169214 2 0 0 1 I I 0 1 2 forward I I I I #
face $-1 $127 $128 $42 $-1 $129 reversed single #
loop $-1 $-1 $130 $53 #
plane-surface $-1 4.2844749093457004 27.090650618017449 140.48589582055871 1 0 0 0 -0.50000000669873634 -0.8660253999169214 forward_v I I I I #
face $-1 $131 $132 $43 $-1 $133 forward single #
loop $-1 $134 $135 $54 #
cone-surface $-1 12.71024885118873 29.810769141064377 13.077390805819778 0 -0.50000000669873634 -0.8660253999169214 2 0 0 1 I I 0 1 2 forward I I I I #
face $-1 $136 $137 $33 $-1 $138 reversed single #
loop $-1 $-1 $139 $55 #
plane-surface $-1 0 0 -17.729330528310349 0 0 1 1 0 0 forward_v I I I I #
coedge $-1 $140 $141 $142 $143 forward $56 $-1 #
face $-1 $144 $145 $34 $-1 $146 forward single #
loop $-1 $-1 $147 $58 #
plane-surface $-1 -38.004478533211817 -31.46302263721325 0 -1 0 0 0 0 1 forward_v I I I I #
coedge $-1 $148 $149 $150 $151 forward $59 $-1 #
face $-1 $152 $153 $35 $-1 $154 forward single #
loop $-1 $-1 $155 $61 #
plane-surface $-1 45.899422408181273 -26.448089930476456 0 0 -1 0 0 0 -1 forward_v I I I I #
coedge $-1 $156 $157 $158 $159 forward $62 $-1 #
face $-1 $160 $161 $36 $-1 $162 reversed single #
loop $-1 $-1 $163 $64 #
plane-surface $-1 -25.29422968202309 -36.47795534395005 10.833364840610344 0 -0.50000000669873634 0.8660253999169214 1 0 0 forward_v I I I I #
coedge $-1 $164 $165 $166 $167 reversed $65 $-1 #
face $-1 $-1 $168 $37 $-1 $169 forward single #
loop $-1 $170 $171 $67 #
cone-surface $-1 -25.29422968202309 -28.615664293972952 11.007408527262289 0 0.50000000669873634 -0.8660253999169214 1 0 0 1 I I -0.70710678118654746 0.70710678118654746 1 forward I I I I #
loop $-1 $-1 $172 $48 #
coedge $-1 $108 $108 $173 $174 reversed $68 $-1 #
face $-1 $175 $176 $38 $-1 $177 reversed single #
loop $-1 $-1 $178 $70 #
plane-surface $-1 12.71024885118873 -36.47795534395005 10.833364840610344 0 -0.50000000669873634 0.8660253999169214 1 0 0 forward_v I I I I #
coedge $-1 $179 $180 $181 $182 reversed $71 $-1 #
face $-1 $-1 $183 $39 $-1 $184 forward single #
loop $-1 $185 $186 $73 #
cone-surface $-1 12.71024885118873 -28.615664293972952 11.007408527262289 0 0.50000000669873634 -0.8660253999169214 1 0 0 1 I I -0.70710678118654746 0.70710678118654746 1 forward I I I I #
loop $-1 $-1 $187 $50 #
coedge $-1 $117 $117 $188 $189 reversed $74 $-1 #
face $-1 $190 $191 $40 $-1 $192 reversed single #
loop $-1 $-1 $193 $76 #
plane-surface $-1 -25.29422968202309 -26.703716385841837 47.311320673272789 0 0.50000000669873634 0.8660253999169214 1 0 0 forward_v I I I I #
coedge $-1 $194 $195 $196 $197 reversed $77 $-1 #
face $-1 $-1 $198 $41 $-1 $199 forward single #
loop $-1 $200 $201 $79 #
cone-surface $-1 -25.29422968202309 28.615664293972941 11.007408527262289 0 -0.50000000669873634 -0.8660253999169214 1 0 0 1 I I -0.70710678118654746 0.70710678118654746 1 forward I I I I #
loop $-1 $-1 $202 $52 #
coedge $-1 $126 $126 $203 $204 reversed $80 $-1 #
face $-1 $205 $206 $42 $-1 $207 reversed single #
loop $-1 $-1 $208 $82 #
plane-surface $-1 12.71024885118873 -26.703716385841837 47.311320673272789 0 0.50000000669873634 0.8660253999169214 1 0 0 forward_v I I I I #
coedge $-1 $209 $210 $211 $212 reversed $83 $-1 #
face $-1 $-1 $213 $43 $-1 $214 forward single #
loop $-1 $215 $216 $85 #
cone-surface $-1 12.71024885118873 28.615664293972941 11.007408527262289 0 -0.50000000669873634 -0.8660253999169214 1 0 0 1 I I -0.70710678118654746 0.70710678118654746 1 forward I I I I #
loop $-1 $-1 $217 $54 #
coedge $-1 $135 $135 $218 $219 reversed $86 $-1 #
face $-1 $220 $221 $33 $-1 $222 reversed single #
loop $-1 $-1 $223 $88 #
plane-surface $-1 0 -36.477955343950043 0 0 1 0 0 0 1 forward_v I I I I #
coedge $-1 $224 $225 $226 $227 forward $89 $-1 #
coedge $-1 $228 $91 $229 $230 forward $56 $-1 #
coedge $-1 $91 $228 $231 $232 forward $56 $-1 #
coedge $-1 $233 $234 $91 $143 reversed $235 $-1 #
edge $-1 $236 -36.477955343950043 $237 36.477955343950043 $142 $238 forward 7 unknown #
face $-1 $239 $240 $34 $-1 $241 reversed single #
loop $-1 $-1 $242 $92 #
plane-surface $-1 0 0 17.729330528310349 0 0 1 1 0 0 forward_v I I I I #
coedge $-1 $243 $244 $245 $246 reversed $93 $-1 #
coedge $-1 $247 $95 $248 $249 reversed $59 $-1 #
coedge $-1 $95 $247 $250 $251 reversed $59 $-1 #
coedge $-1 $244 $243 $95 $151 reversed $93 $-1 #
edge $-1 $252 -17.729330528310349 $253 17.729330528310349 $150 $254 forward 7 unknown #
face $-1 $255 $256 $35 $-1 $257 reversed single #
loop $-1 $-1 $258 $96 #
plane-surface $-1 0 0 17.729330528310349 0 0 1 1 0 0 forward_v I I I I #
coedge $-1 $259 $260 $261 $262 reversed $97 $-1 #
coedge $-1 $263 $99 $264 $265 reversed $62 $-1 #
coedge $-1 $99 $263 $266 $267 reversed $62 $-1 #
coedge $-1 $260 $259 $99 $159 reversed $97 $-1 #
edge $-1 $268 -17.729330528310349 $269 17.729330528310349 $158 $270 forward 7 unknown #
face $-1 $271 $272 $36 $-1 $273 forward single #
loop $-1 $-1 $274 $100 #
plane-surface $-1 -33.72000362386612 -90.272322347809336 104.00793998789626 1 0 0 0 0.50000000669873634 -0.8660253999169214 forward_v I I I I #
coedge $-1 $275 $276 $277 $278 reversed $101 $-1 #
coedge $-1 $165 $103 $279 $280 reversed $65 $-1 #
coedge $-1 $103 $164 $275 $281 reversed $65 $-1 #
coedge $-1 $277 $282 $103 $167 forward $272 $-1 #
edge $-1 $283 8.6582058299546247 $284 20.602368554940554 $166 $285 forward 7 unknown #
loop $-1 $-1 $173 $104 #
plane-surface $-1 -25.29422968202309 -36.47795534395005 10.833364840610344 0 -0.50000000669873634 0.8660253999169214 1 0 0 forward_v I I I I #
loop $-1 $-1 $286 $67 #
coedge $-1 $171 $171 $172 $287 reversed $105 $-1 #
coedge $-1 $172 $172 $171 $287 forward $107 $-1 #
coedge $-1 $173 $173 $108 $174 forward $168 $-1 #
edge $-1 $288 1.9824593580364964e-015 $288 6.2831853071796022 $173 $289 forward 7 unknown #
face $-1 $290 $291 $38 $-1 $292 reversed single #
loop $-1 $-1 $293 $109 #
plane-surface $-1 4.2844749093457004 -90.272322347809336 104.00793998789626 1 0 0 0 0.50000000669873634 -0.8660253999169214 forward_v I I I I #
coedge $-1 $294 $295 $296 $297 reversed $110 $-1 #
coedge $-1 $180 $112 $298 $299 reversed $71 $-1 #
coedge $-1 $112 $179 $294 $300 reversed $71 $-1 #
coedge $-1 $296 $301 $112 $182 forward $302 $-1 #
edge $-1 $303 8.6582058299546247 $304 20.602368554940554 $181 $305 forward 7 unknown #
loop $-1 $-1 $188 $113 #
plane-surface $-1 12.71024885118873 -36.47795534395005 10.833364840610344 0 -0.50000000669873634 0.8660253999169214 1 0 0 forward_v I I I I #
loop $-1 $-1 $306 $73 #
coedge $-1 $186 $186 $187 $307 reversed $114 $-1 #
coedge $-1 $187 $187 $186 $307 forward $116 $-1 #
coedge $-1 $188 $188 $117 $189 forward $183 $-1 #
edge $-1 $308 1.9824593580364964e-015 $308 6.2831853071796022 $188 $309 forward 7 unknown #
face $-1 $310 $311 $40 $-1 $312 reversed single #
loop $-1 $-1 $313 $118 #
plane-surface $-1 -16.86845574018006 27.090650618017449 140.48589582055871 -1 0 0 0 0.50000000669873634 0.8660253999169214 forward_v I I I I #
coedge $-1 $314 $315 $316 $317 reversed $119 $-1 #
coedge $-1 $195 $121 $318 $319 reversed $77 $-1 #
coedge $-1 $121 $194 $314 $320 reversed $77 $-1 #
coedge $-1 $316 $321 $121 $197 forward $322 $-1 #
edge $-1 $323 -22.932630034941319 $324 -10.988467309955361 $196 $325 forward 7 unknown #
loop $-1 $-1 $203 $122 #
plane-surface $-1 -25.29422968202309 -26.703716385841837 47.311320673272789 0 0.50000000669873634 0.8660253999169214 1 0 0 forward_v I I I I #
loop $-1 $-1 $326 $79 #
coedge $-1 $201 $201 $202 $327 reversed $123 $-1 #
coedge $-1 $202 $202 $201 $327 forward $125 $-1 #
coedge $-1 $203 $203 $126 $204 forward $198 $-1 #
edge $-1 $328 -1.3322676473992071e-015 $328 6.2831853071795987 $203 $329 forward 7 unknown #
face $-1 $330 $331 $42 $-1 $332 forward single #
loop $-1 $-1 $333 $127 #
plane-surface $-1 21.13602279303176 27.090650618017449 140.48589582055871 -1 0 0 0 0.50000000669873634 0.8660253999169214 forward_v I I I I #
coedge $-1 $334 $335 $336 $337 reversed $128 $-1 #
coedge $-1 $210 $130 $338 $339 reversed $83 $-1 #
coedge $-1 $130 $209 $334 $340 reversed $83 $-1 #
coedge $-1 $336 $341 $130 $212 forward $331 $-1 #
edge $-1 $342 -22.932630034941319 $343 -10.988467309955361 $211 $344 forward 7 unknown #
loop $-1 $-1 $218 $131 #
plane-surface $-1 12.71024885118873 -26.703716385841837 47.311320673272789 0 0.50000000669873634 0.8660253999169214 1 0 0 forward_v I I I I #
loop $-1 $-1 $345 $85 #
coedge $-1 $216 $216 $217 $346 reversed $132 $-1 #
coedge $-1 $217 $217 $216 $346 forward $134 $-1 #
coedge $-1 $218 $218 $135 $219 forward $213 $-1 #
edge $-1 $347 -1.3322676473992071e-015 $347 6.2831853071795987 $218 $348 forward 7 unknown #
face $-1 $349 $350 $33 $-1 $351 reversed single #
loop $-1 $-1 $352 $136 #
plane-surface $-1 -53.79436628315073 0 0 1 0 0 0 0 -1 forward_v I I I I #
coedge $-1 $353 $231 $354 $355 forward $137 $-1 #
coedge $-1 $356 $139 $353 $357 forward $89 $-1 #
coedge $-1 $139 $356 $358 $359 forward $89 $-1 #
coedge $-1 $234 $233 $139 $227 reversed $235 $-1 #
edge $-1 $360 -36.477955343950043 $361 36.477955343950043 $226 $362 forward 7 unknown #
coedge $-1 $141 $140 $363 $364 forward $56 $-1 #
coedge $-1 $365 $366 $140 $230 reversed $350 $-1 #
edge $-1 $237 -53.79436628315073 $367 53.79436628315073 $229 $368 forward 7 unknown #
coedge $-1 $223 $369 $141 $232 reversed $137 $-1 #
edge $-1 $370 -53.79436628315073 $236 53.79436628315073 $231 $371 forward 7 unknown #
coedge $-1 $226 $142 $369 $372 forward $235 $-1 #
coedge $-1 $142 $226 $365 $373 reversed $235 $-1 #
loop $-1 $-1 $233 $349 #
vertex $-1 $143 $374 #
vertex $-1 $143 $375 #
straight-curve $-1 53.79436628315073 0 17.729330528310349 0 1 0 I I #
face $-1 $376 $377 $34 $-1 $378 reversed single #
loop $-1 $-1 $379 $144 #
plane-surface $-1 -53.79436628315073 0 0 1 0 0 0 0 -1 forward_v I I I I #
coedge $-1 $250 $380 $244 $381 forward $145 $-1 #
coedge $-1 $150 $147 $382 $383 reversed $93 $-1 #
coedge $-1 $147 $150 $242 $381 reversed $93 $-1 #
coedge $-1 $384 $385 $147 $246 forward $386 $-1 #
edge $-1 $387 -17.729330528310349 $388 17.729330528310349 $245 $389 forward 7 unknown #
coedge $-1 $149 $148 $379 $390 reversed $59 $-1 #
coedge $-1 $382 $391 $148 $249 forward $377 $-1 #
edge $-1 $392 -30.844655079060093 $253 -15.05476732912118 $248 $393 forward 7 unknown #
coedge $-1 $394 $242 $149 $251 forward $145 $-1 #
edge $-1 $252 15.05476732912118 $395 30.844655079060093 $250 $396 forward 7 unknown #
vertex $-1 $251 $397 #
vertex $-1 $249 $398 #
straight-curve $-1 -38.004478533211817 -26.448089930476456 0 0 0 -1 I I #
face $-1 $399 $400 $35 $-1 $401 reversed single #
loop $-1 $-1 $402 $152 #
plane-surface $-1 0 -36.477955343950043 0 0 1 0 0 0 1 forward_v I I I I #
coedge $-1 $266 $403 $260 $404 forward $153 $-1 #
coedge $-1 $158 $155 $405 $406 reversed $97 $-1 #
coedge $-1 $155 $158 $258 $404 reversed $97 $-1 #
coedge $-1 $407 $408 $155 $262 forward $409 $-1 #
edge $-1 $410 -17.729330528310349 $411 17.729330528310349 $261 $412 forward 7 unknown #
coedge $-1 $157 $156 $402 $413 reversed $62 $-1 #
coedge $-1 $405 $414 $156 $265 forward $400 $-1 #
edge $-1 $415 -20.746444025343418 $269 -10.716578611869831 $264 $416 forward 7 unknown #
coedge $-1 $417 $258 $157 $267 forward $153 $-1 #
edge $-1 $268 10.716578611869831 $418 20.746444025343418 $266 $419 forward 7 unknown #
vertex $-1 $267 $420 #
vertex $-1 $265 $421 #
straight-curve $-1 38.004478533211817 -26.448089930476456 0 0 0 -1 I I #
face $-1 $-1 $422 $36 $-1 $423 reversed single #
loop $-1 $-1 $166 $160 #
plane-surface $-1 0 0 17.729330528310349 0 0 1 1 0 0 forward_v I I I I #
coedge $-1 $424 $425 $426 $427 reversed $161 $-1 #
coedge $-1 $428 $163 $165 $281 forward $101 $-1 #
coedge $-1 $163 $428 $424 $429 forward $101 $-1 #
coedge $-1 $426 $166 $163 $278 forward $272 $-1 #
edge $-1 $284 4.2213408991685153 $430 21.072888782854577 $277 $431 forward 7 unknown #
coedge $-1 $432 $433 $164 $280 forward $422 $-1 #
edge $-1 $434 -41.170605153337789 $283 -34.274639465637783 $279 $435 forward 7 unknown #
edge $-1 $284 -13.791931190622989 $434 -7.929837432145984e-015 $165 $436 forward 7 unknown #
coedge $-1 $166 $426 $432 $437 forward $272 $-1 #
vertex $-1 $280 $438 #
vertex $-1 $167 $439 #
straight-curve $-1 -16.86845574018006 -45.136161173904668 17.729330528310349 0 1 0 I I #
coedge $-1 $286 $286 $-1 $440 reversed $170 $-1 #
edge $-1 $441 0 $441 6.2831853071796004 $171 $442 forward 7 unknown #
vertex $-1 $174 $443 #
ellipse-curve $-1 -25.29422968202309 -30.505873981457086 14.281347684460345 0 -0.50000000669873634 0.8660253999169214 2 0 0 1 I I #
face $-1 $-1 $302 $38 $-1 $444 forward single #
loop $-1 $-1 $445 $175 #
plane-surface $-1 0 -36.477955343950043 0 0 1 0 0 0 1 forward_v I I I I #
coedge $-1 $446 $447 $448 $449 reversed $176 $-1 #
coedge $-1 $450 $178 $180 $300 forward $110 $-1 #
coedge $-1 $178 $450 $446 $451 forward $110 $-1 #
coedge $-1 $448 $181 $178 $297 forward $302 $-1 #
edge $-1 $304 -14.780898367437395 $452 2.0706495162486647 $296 $453 forward 7 unknown #
coedge $-1 $454 $455 $179 $299 forward $291 $-1 #
edge $-1 $456 -41.170605153337789 $303 -34.274639465637783 $298 $457 forward 7 unknown #
edge $-1 $304 -13.791931190622989 $456 -7.929837432145984e-015 $180 $458 forward 7 unknown #
coedge $-1 $181 $448 $454 $459 forward $302 $-1 #
loop $-1 $-1 $448 $290 #
vertex $-1 $299 $460 #
vertex $-1 $182 $461 #
straight-curve $-1 21.13602279303176 -45.136161173904668 17.729330528310349 0 1 0 I I #
coedge $-1 $306 $306 $-1 $462 reversed $185 $-1 #
edge $-1 $463 0 $463 6.2831853071796004 $186 $464 forward 7 unknown #
vertex $-1 $189 $465 #
ellipse-curve $-1 12.71024885118873 -30.505873981457086 14.281347684460345 0 -0.50000000669873634 0.8660253999169214 2 0 0 1 I I #
face $-1 $-1 $322 $40 $-1 $466 forward single #
loop $-1 $-1 $467 $190 #
plane-surface $-1 0 36.477955343950043 0 0 -1 0 0 0 -1 forward_v I I I I #
coedge $-1 $468 $469 $470 $471 reversed $191 $-1 #
coedge $-1 $472 $193 $195 $320 forward $119 $-1 #
coedge $-1 $193 $472 $468 $473 forward $119 $-1 #
coedge $-1 $470 $196 $193 $317 forward $322 $-1 #
edge $-1 $324 -21.072888782854577 $474 -4.2213408991685153 $316 $475 forward 7 unknown #
coedge $-1 $476 $477 $194 $319 forward $311 $-1 #
edge $-1 $478 -59.409583069669026 $323 -52.513617381969006 $318 $479 forward 7 unknown #
edge $-1 $324 59.163979497277083 $478 72.955910687900101 $195 $480 forward 7 unknown #
coedge $-1 $196 $470 $476 $481 forward $322 $-1 #
loop $-1 $-1 $470 $310 #
vertex $-1 $319 $482 #
vertex $-1 $197 $483 #
straight-curve $-1 -33.72000362386612 13.545325309008724 17.729330528310349 0 -1 0 I I #
coedge $-1 $326 $326 $-1 $484 reversed $200 $-1 #
edge $-1 $485 0 $485 6.2831853071796004 $201 $486 forward 7 unknown #
vertex $-1 $204 $487 #
ellipse-curve $-1 -25.29422968202309 30.505873981457071 14.281347684460341 0 0.50000000669873634 0.8660253999169214 2 0 0 1 I I #
face $-1 $-1 $488 $42 $-1 $489 reversed single #
loop $-1 $-1 $211 $205 #
plane-surface $-1 0 0 17.729330528310349 0 0 1 1 0 0 forward_v I I I I #
coedge $-1 $490 $491 $492 $493 reversed $206 $-1 #
coedge $-1 $494 $208 $210 $340 forward $128 $-1 #
coedge $-1 $208 $494 $490 $495 forward $128 $-1 #
coedge $-1 $492 $211 $208 $337 forward $331 $-1 #
edge $-1 $343 -2.0706495162486647 $496 14.780898367437395 $336 $497 forward 7 unknown #
coedge $-1 $498 $499 $209 $339 forward $488 $-1 #
edge $-1 $500 -59.409583069669026 $342 -52.513617381969006 $338 $501 forward 7 unknown #
edge $-1 $343 59.163979497277083 $500 72.955910687900101 $210 $502 forward 7 unknown #
coedge $-1 $211 $492 $498 $503 forward $331 $-1 #
vertex $-1 $212 $504 #
vertex $-1 $212 $505 #
straight-curve $-1 4.2844749093457004 13.545325309008724 17.729330528310349 0 -1 0 I I #
coedge $-1 $345 $345 $-1 $506 reversed $215 $-1 #
edge $-1 $507 0 $507 6.2831853071796004 $216 $508 forward 7 unknown #
vertex $-1 $219 $509 #
ellipse-curve $-1 12.71024885118873 30.505873981457071 14.281347684460341 0 0.50000000669873634 0.8660253999169214 2 0 0 1 I I #
face $-1 $-1 $235 $33 $-1 $510 reversed single #
loop $-1 $-1 $365 $220 #
plane-surface $-1 0 36.477955343950043 0 0 -1 0 0 0 -1 forward_v I I I I #
coedge $-1 $511 $363 $366 $512 forward $221 $-1 #
coedge $-1 $369 $223 $224 $357 reversed $137 $-1 #
coedge $-1 $363 $511 $223 $355 reversed $221 $-1 #
edge $-1 $370 -17.729330528310349 $513 17.729330528310349 $354 $514 forward 7 unknown #
coedge $-1 $225 $224 $511 $515 forward $89 $-1 #
edge $-1 $361 -53.79436628315073 $513 53.79436628315073 $353 $516 forward 7 unknown #
coedge $-1 $366 $365 $225 $359 reversed $350 $-1 #
edge $-1 $517 -53.79436628315073 $360 53.79436628315073 $358 $518 forward 7 unknown #
vertex $-1 $227 $519 #
vertex $-1 $372 $520 #
straight-curve $-1 53.79436628315073 0 -17.729330528310349 0 -1 0 I I #
coedge $-1 $352 $354 $228 $364 reversed $221 $-1 #
edge $-1 $367 -36.477955343950043 $370 36.477955343950043 $363 $521 forward 7 unknown #
coedge $-1 $358 $229 $234 $373 forward $350 $-1 #
coedge $-1 $229 $358 $352 $512 reversed $350 $-1 #
vertex $-1 $230 $522 #
straight-curve $-1 0 36.477955343950043 17.729330528310349 -1 0 0 I I #
coedge $-1 $231 $353 $233 $372 reversed $137 $-1 #
vertex $-1 $364 $523 #
straight-curve $-1 0 -36.477955343950043 17.729330528310349 1 0 0 I I #
edge $-1 $236 -17.729330528310349 $361 17.729330528310349 $233 $524 forward 7 unknown #
edge $-1 $237 -17.729330528310349 $360 17.729330528310349 $234 $525 forward 7 unknown #
point $-1 53.79436628315073 -36.477955343950043 17.729330528310349 #
point $-1 53.79436628315073 36.477955343950043 17.729330528310349 #
face $-1 $-1 $386 $34 $-1 $526 reversed single #
loop $-1 $-1 $382 $239 #
plane-surface $-1 0 0 -17.729330528310349 0 0 1 1 0 0 forward_v I I I I #
coedge $-1 $527 $528 $247 $390 forward $240 $-1 #
coedge $-1 $242 $394 $384 $529 forward $145 $-1 #
edge $-1 $388 -20.746444025343418 $252 -10.716578611869831 $242 $530 forward 7 unknown #
coedge $-1 $531 $248 $243 $383 forward $377 $-1 #
edge $-1 $253 10.716578611869831 $387 20.746444025343418 $382 $532 forward 7 unknown #
coedge $-1 $533 $245 $380 $529 reversed $386 $-1 #
coedge $-1 $245 $533 $531 $534 reversed $386 $-1 #
loop $-1 $-1 $245 $376 #
vertex $-1 $534 $535 #
vertex $-1 $246 $536 #
straight-curve $-1 -38.004478533211817 -36.477955343950043 0 0 0 1 I I #
edge $-1 $395 -17.729330528310349 $392 17.729330528310349 $379 $537 forward 7 unknown #
coedge $-1 $248 $531 $527 $538 forward $377 $-1 #
vertex $-1 $249 $539 #
straight-curve $-1 -22.949711204090637 -26.448089930476456 -17.729330528310349 1 0 0 I I #
coedge $-1 $380 $250 $528 $540 forward $145 $-1 #
vertex $-1 $540 $541 #
straight-curve $-1 -22.949711204090637 -26.448089930476456 17.729330528310349 -1 0 0 I I #
point $-1 -38.004478533211817 -26.448089930476456 17.729330528310349 #
point $-1 -38.004478533211817 -26.448089930476456 -17.729330528310349 #
face $-1 $-1 $409 $35 $-1 $542 reversed single #
loop $-1 $-1 $405 $255 #
plane-surface $-1 0 0 -17.729330528310349 0 0 1 1 0 0 forward_v I I I I #
coedge $-1 $543 $544 $263 $413 forward $256 $-1 #
coedge $-1 $258 $417 $407 $545 forward $153 $-1 #
edge $-1 $411 -30.844655079060093 $268 -15.05476732912118 $258 $546 forward 7 unknown #
coedge $-1 $547 $264 $259 $406 forward $400 $-1 #
edge $-1 $269 15.05476732912118 $410 30.844655079060093 $405 $548 forward 7 unknown #
coedge $-1 $549 $261 $403 $545 reversed $409 $-1 #
coedge $-1 $261 $549 $547 $550 reversed $409 $-1 #
loop $-1 $-1 $261 $399 #
vertex $-1 $550 $551 #
vertex $-1 $262 $552 #
straight-curve $-1 53.79436628315073 -26.448089930476456 0 0 0 1 I I #
edge $-1 $418 -17.729330528310349 $415 17.729330528310349 $402 $553 forward 7 unknown #
coedge $-1 $264 $547 $543 $554 forward $400 $-1 #
vertex $-1 $265 $555 #
straight-curve $-1 38.004478533211817 -15.731511318606625 -17.729330528310349 0 1 0 I I #
coedge $-1 $403 $266 $544 $556 forward $153 $-1 #
vertex $-1 $556 $557 #
straight-curve $-1 38.004478533211817 -15.731511318606625 17.729330528310349 0 -1 0 I I #
point $-1 38.004478533211817 -26.448089930476456 17.729330528310349 #
point $-1 38.004478533211817 -26.448089930476456 -17.729330528310349 #
loop $-1 $-1 $279 $271 #
plane-surface $-1 0 -36.477955343950043 0 0 1 0 0 0 1 forward_v I I I I #
coedge $-1 $425 $274 $276 $429 reversed $161 $-1 #
coedge $-1 $274 $424 $558 $559 reversed $161 $-1 #
coedge $-1 $282 $277 $274 $427 forward $272 $-1 #
edge $-1 $430 -20.602368554940554 $560 -8.6582058299546247 $426 $561 forward 7 unknown #
coedge $-1 $276 $275 $433 $562 reversed $101 $-1 #
edge $-1 $563 7.929837432145984e-015 $430 13.791931190622989 $424 $564 forward 7 unknown #
vertex $-1 $278 $565 #
straight-curve $-1 -12.647114841011545 -24.533792618964117 17.729330528310349 -1 0 0 I I #
coedge $-1 $558 $279 $282 $437 reversed $422 $-1 #
coedge $-1 $279 $558 $428 $562 forward $422 $-1 #
vertex $-1 $280 $566 #
straight-curve $-1 -16.86845574018006 -36.477955343950043 52.003969993948132 0 0 1 I I #
straight-curve $-1 -16.86845574018006 -36.47795534395005 10.833364840610344 0 -0.8660253999169214 -0.50000000669873634 I I #
edge $-1 $560 -33.72000362386612 $283 -16.86845574018006 $432 $567 forward 7 unknown #
point $-1 -16.86845574018006 -36.477955343950043 17.729330528310349 #
point $-1 -16.86845574018006 -24.533792618964114 17.729330528310349 #
edge $-1 $568 1 $568 0 $286 $-1 forward 7 unknown #
vertex $-1 $287 $569 #
ellipse-curve $-1 -25.29422968202309 -29.115664300671689 11.87343392717921 0 -0.50000000669873634 0.8660253999169214 2 0 0 1 I I #
point $-1 -23.29422968202309 -30.505873981457082 14.281347684460346 #
plane-surface $-1 0 0 17.729330528310349 0 0 1 1 0 0 forward_v I I I I #
coedge $-1 $455 $454 $447 $570 forward $291 $-1 #
coedge $-1 $447 $293 $295 $451 reversed $176 $-1 #
coedge $-1 $293 $446 $445 $570 reversed $176 $-1 #
coedge $-1 $301 $296 $293 $449 forward $302 $-1 #
edge $-1 $452 -20.602368554940554 $571 -8.6582058299546247 $448 $572 forward 7 unknown #
coedge $-1 $295 $294 $455 $573 reversed $110 $-1 #
edge $-1 $574 7.929837432145984e-015 $452 13.791931190622989 $446 $575 forward 7 unknown #
vertex $-1 $297 $576 #
straight-curve $-1 6.3551244255943651 -24.533792618964117 17.729330528310349 -1 0 0 I I #
coedge $-1 $445 $298 $301 $459 reversed $291 $-1 #
coedge $-1 $298 $445 $450 $573 forward $291 $-1 #
vertex $-1 $299 $577 #
straight-curve $-1 21.13602279303176 -36.477955343950043 52.003969993948132 0 0 1 I I #
straight-curve $-1 21.13602279303176 -36.47795534395005 10.833364840610344 0 -0.8660253999169214 -0.50000000669873634 I I #
edge $-1 $571 4.2844749093457004 $303 21.13602279303176 $454 $578 forward 7 unknown #
point $-1 21.13602279303176 -36.477955343950043 17.729330528310349 #
point $-1 21.13602279303176 -24.533792618964114 17.729330528310349 #
edge $-1 $579 1 $579 0 $306 $-1 forward 7 unknown #
vertex $-1 $307 $580 #
ellipse-curve $-1 12.71024885118873 -29.115664300671689 11.87343392717921 0 -0.50000000669873634 0.8660253999169214 2 0 0 1 I I #
point $-1 14.71024885118873 -30.505873981457082 14.281347684460346 #
plane-surface $-1 0 0 17.729330528310349 0 0 1 1 0 0 forward_v I I I I #
coedge $-1 $477 $476 $469 $581 forward $311 $-1 #
coedge $-1 $469 $313 $315 $473 reversed $191 $-1 #
coedge $-1 $313 $468 $467 $581 reversed $191 $-1 #
coedge $-1 $321 $316 $313 $471 forward $322 $-1 #
edge $-1 $474 10.988467309955361 $582 22.932630034941319 $470 $583 forward 7 unknown #
coedge $-1 $315 $314 $477 $584 reversed $119 $-1 #
edge $-1 $585 -72.955910687900101 $474 -59.163979497277083 $468 $586 forward 7 unknown #
vertex $-1 $317 $587 #
straight-curve $-1 -12.647114841011545 24.533792618964071 17.729330528310349 1 0 0 I I #
coedge $-1 $467 $318 $321 $481 reversed $311 $-1 #
coedge $-1 $318 $467 $472 $584 forward $311 $-1 #
vertex $-1 $319 $588 #
straight-curve $-1 -33.72000362386612 36.477955343950043 70.242947910279355 0 0 1 I I #
straight-curve $-1 -33.72000362386612 -26.703716385841837 47.311320673272789 0 0.8660253999169214 -0.50000000669873634 I I #
edge $-1 $582 16.86845574018006 $323 33.72000362386612 $476 $589 forward 7 unknown #
point $-1 -33.72000362386612 36.477955343950043 17.729330528310349 #
point $-1 -33.72000362386612 24.533792618964085 17.729330528310349 #
edge $-1 $590 1 $590 0 $326 $-1 forward 7 unknown #
vertex $-1 $327 $591 #
ellipse-curve $-1 -25.29422968202309 29.115664300671678 11.87343392717921 0 0.50000000669873634 0.8660253999169214 2 0 0 1 I I #
point $-1 -23.29422968202309 30.505873981457071 14.281347684460346 #
loop $-1 $-1 $338 $330 #
plane-surface $-1 0 36.477955343950043 0 0 -1 0 0 0 -1 forward_v I I I I #
coedge $-1 $491 $333 $335 $495 reversed $206 $-1 #
coedge $-1 $333 $490 $592 $593 reversed $206 $-1 #
coedge $-1 $341 $336 $333 $493 forward $331 $-1 #
edge $-1 $496 10.988467309955361 $594 22.932630034941319 $492 $595 forward 7 unknown #
coedge $-1 $335 $334 $499 $596 reversed $128 $-1 #
edge $-1 $597 -72.955910687900101 $496 -59.163979497277083 $490 $598 forward 7 unknown #
vertex $-1 $337 $599 #
straight-curve $-1 6.3551244255943651 24.533792618964071 17.729330528310349 1 0 0 I I #
coedge $-1 $592 $338 $341 $503 reversed $488 $-1 #
coedge $-1 $338 $592 $494 $596 forward $488 $-1 #
vertex $-1 $339 $600 #
straight-curve $-1 4.2844749093457004 36.477955343950043 70.242947910279355 0 0 1 I I #
straight-curve $-1 4.2844749093457004 -26.703716385841837 47.311320673272789 0 0.8660253999169214 -0.50000000669873634 I I #
edge $-1 $594 -21.13602279303176 $342 -4.2844749093457004 $498 $601 forward 7 unknown #
point $-1 4.2844749093457004 36.477955343950043 17.729330528310349 #
point $-1 4.2844749093457004 24.533792618964085 17.729330528310349 #
edge $-1 $602 1 $602 0 $345 $-1 forward 7 unknown #
vertex $-1 $346 $603 #
ellipse-curve $-1 12.71024885118873 29.115664300671678 11.87343392717921 0 0.50000000669873634 0.8660253999169214 2 0 0 1 I I #
point $-1 14.71024885118873 30.505873981457071 14.281347684460346 #
plane-surface $-1 53.79436628315073 0 0 -1 0 0 0 0 1 forward_v I I I I #
coedge $-1 $354 $352 $356 $515 reversed $221 $-1 #
edge $-1 $367 -17.729330528310349 $517 17.729330528310349 $366 $604 forward 7 unknown #
vertex $-1 $515 $605 #
straight-curve $-1 -53.79436628315073 -36.477955343950043 0 0 0 -1 I I #
edge $-1 $513 -36.477955343950043 $517 36.477955343950043 $511 $606 forward 7 unknown #
straight-curve $-1 0 -36.477955343950043 -17.729330528310349 -1 0 0 I I #
vertex $-1 $359 $607 #
straight-curve $-1 0 36.477955343950043 -17.729330528310349 1 0 0 I I #
point $-1 53.79436628315073 36.477955343950043 -17.729330528310349 #
point $-1 53.79436628315073 -36.477955343950043 -17.729330528310349 #
straight-curve $-1 -53.79436628315073 0 17.729330528310349 0 -1 0 I I #
point $-1 -53.79436628315073 36.477955343950043 17.729330528310349 #
point $-1 -53.79436628315073 -36.477955343950043 17.729330528310349 #
straight-curve $-1 53.79436628315073 -36.477955343950043 0 0 0 -1 I I #
straight-curve $-1 53.79436628315073 36.477955343950043 0 0 0 -1 I I #
plane-surface $-1 0 -36.477955343950043 0 0 1 0 0 0 1 forward_v I I I I #
coedge $-1 $608 $379 $391 $538 reversed $240 $-1 #
coedge $-1 $379 $608 $394 $540 reversed $240 $-1 #
edge $-1 $609 -53.79436628315073 $388 -38.004478533211817 $384 $610 forward 7 unknown #
straight-curve $-1 -38.004478533211817 -15.731511318606625 17.729330528310349 0 1 0 I I #
coedge $-1 $391 $382 $385 $534 forward $377 $-1 #
straight-curve $-1 -38.004478533211817 -15.731511318606625 -17.729330528310349 0 -1 0 I I #
coedge $-1 $385 $384 $608 $611 forward $386 $-1 #
edge $-1 $387 38.004478533211817 $612 53.79436628315073 $385 $613 forward 7 unknown #
point $-1 -38.004478533211817 -36.477955343950043 -17.729330528310349 #
point $-1 -38.004478533211817 -36.477955343950043 17.729330528310349 #
straight-curve $-1 -53.79436628315073 -26.448089930476456 0 0 0 -1 I I #
edge $-1 $612 -36.477955343950043 $392 -26.448089930476456 $527 $614 forward 7 unknown #
point $-1 -53.79436628315073 -26.448089930476456 -17.729330528310349 #
edge $-1 $395 26.448089930476456 $609 36.477955343950043 $528 $615 forward 7 unknown #
point $-1 -53.79436628315073 -26.448089930476456 17.729330528310349 #
plane-surface $-1 53.79436628315073 0 0 -1 0 0 0 0 1 forward_v I I I I #
coedge $-1 $616 $402 $414 $554 reversed $256 $-1 #
coedge $-1 $402 $616 $417 $556 reversed $256 $-1 #
edge $-1 $617 -36.477955343950043 $411 -26.448089930476456 $407 $618 forward 7 unknown #
straight-curve $-1 22.949711204090637 -26.448089930476456 17.729330528310349 -1 0 0 I I #
coedge $-1 $414 $405 $408 $550 forward $400 $-1 #
straight-curve $-1 22.949711204090637 -26.448089930476456 -17.729330528310349 1 0 0 I I #
coedge $-1 $408 $407 $616 $619 forward $409 $-1 #
edge $-1 $410 26.448089930476456 $620 36.477955343950043 $408 $621 forward 7 unknown #
point $-1 53.79436628315073 -26.448089930476456 -17.729330528310349 #
point $-1 53.79436628315073 -26.448089930476456 17.729330528310349 #
straight-curve $-1 38.004478533211817 -36.477955343950043 0 0 0 -1 I I #
edge $-1 $620 -53.79436628315073 $415 -38.004478533211817 $543 $622 forward 7 unknown #
point $-1 38.004478533211817 -36.477955343950043 -17.729330528310349 #
edge $-1 $418 38.004478533211817 $617 53.79436628315073 $544 $623 forward 7 unknown #
point $-1 38.004478533211817 -36.477955343950043 17.729330528310349 #
coedge $-1 $433 $432 $425 $559 forward $422 $-1 #
edge $-1 $560 34.274639465637783 $563 41.170605153337789 $558 $624 forward 7 unknown #
vertex $-1 $437 $625 #
straight-curve $-1 -33.72000362386612 -45.136161173904668 17.729330528310349 0 -1 0 I I #
edge $-1 $563 -21.072888782854577 $434 -4.2213408991685153 $433 $626 forward 7 unknown #
vertex $-1 $562 $627 #
straight-curve $-1 -33.72000362386612 -36.47795534395005 10.833364840610344 0 0.8660253999169214 0.50000000669873634 I I #
point $-1 -33.72000362386612 -24.533792618964114 17.729330528310349 #
point $-1 -16.86845574018006 -36.477955343950043 10.833364840610347 #
straight-curve $-1 0 -36.477955343950043 17.729330528310349 1 0 0 I I #
vertex $-1 $440 $628 #
point $-1 -23.29422968202309 -29.115664300671689 11.87343392717921 #
edge $-1 $571 34.274639465637783 $574 41.170605153337789 $445 $629 forward 7 unknown #
vertex $-1 $459 $630 #
straight-curve $-1 4.2844749093457004 -45.136161173904668 17.729330528310349 0 -1 0 I I #
edge $-1 $574 -2.0706495162486647 $456 14.780898367437395 $455 $631 forward 7 unknown #
vertex $-1 $573 $632 #
straight-curve $-1 4.2844749093457004 -36.47795534395005 10.833364840610344 0 0.8660253999169214 0.50000000669873634 I I #
point $-1 4.2844749093457004 -24.533792618964114 17.729330528310349 #
point $-1 21.13602279303176 -36.477955343950043 10.833364840610347 #
straight-curve $-1 0 -36.477955343950043 17.729330528310349 1 0 0 I I #
vertex $-1 $462 $633 #
point $-1 14.71024885118873 -29.115664300671689 11.87343392717921 #
edge $-1 $582 52.513617381969006 $585 59.409583069669026 $467 $634 forward 7 unknown #
vertex $-1 $481 $635 #
straight-curve $-1 -16.86845574018006 13.545325309008724 17.729330528310349 0 1 0 I I #
edge $-1 $585 4.2213408991685153 $478 21.072888782854577 $477 $636 forward 7 unknown #
vertex $-1 $584 $637 #
straight-curve $-1 -16.86845574018006 -26.703716385841837 47.311320673272789 0 -0.8660253999169214 0.50000000669873634 I I #
point $-1 -16.86845574018006 24.533792618964085 17.729330528310349 #
point $-1 -33.72000362386612 36.47795534395005 10.833364840610329 #
straight-curve $-1 0 36.477955343950043 17.729330528310349 -1 0 0 I I #
vertex $-1 $484 $638 #
point $-1 -23.29422968202309 29.115664300671678 11.87343392717921 #
coedge $-1 $499 $498 $491 $593 forward $488 $-1 #
edge $-1 $594 52.513617381969006 $597 59.409583069669026 $592 $639 forward 7 unknown #
vertex $-1 $503 $640 #
straight-curve $-1 21.13602279303176 13.545325309008724 17.729330528310349 0 1 0 I I #
edge $-1 $597 -14.780898367437395 $500 2.0706495162486647 $499 $641 forward 7 unknown #
vertex $-1 $596 $642 #
straight-curve $-1 21.13602279303176 -26.703716385841837 47.311320673272789 0 -0.8660253999169214 0.50000000669873634 I I #
point $-1 21.13602279303176 24.533792618964085 17.729330528310349 #
point $-1 4.2844749093457004 36.47795534395005 10.833364840610329 #
straight-curve $-1 0 36.477955343950043 17.729330528310349 -1 0 0 I I #
vertex $-1 $506 $643 #
point $-1 14.71024885118873 29.115664300671678 11.87343392717921 #
straight-curve $-1 -53.79436628315073 36.477955343950043 0 0 0 -1 I I #
point $-1 -53.79436628315073 -36.477955343950043 -17.729330528310349 #
straight-curve $-1 -53.79436628315073 0 -17.729330528310349 0 1 0 I I #
point $-1 -53.79436628315073 36.477955343950043 -17.729330528310349 #
coedge $-1 $528 $527 $533 $611 reversed $240 $-1 #
vertex $-1 $540 $644 #
straight-curve $-1 0 -36.477955343950043 17.729330528310349 1 0 0 I I #
edge $-1 $609 -17.729330528310349 $612 17.729330528310349 $608 $645 forward 7 unknown #
vertex $-1 $538 $646 #
straight-curve $-1 0 -36.477955343950043 -17.729330528310349 -1 0 0 I I #
straight-curve $-1 -53.79436628315073 0 -17.729330528310349 0 1 0 I I #
straight-curve $-1 -53.79436628315073 0 17.729330528310349 0 -1 0 I I #
coedge $-1 $544 $543 $549 $619 reversed $256 $-1 #
vertex $-1 $545 $647 #
straight-curve $-1 53.79436628315073 0 17.729330528310349 0 1 0 I I #
edge $-1 $617 -17.729330528310349 $620 17.729330528310349 $549 $648 forward 7 unknown #
vertex $-1 $619 $649 #
straight-curve $-1 53.79436628315073 0 -17.729330528310349 0 -1 0 I I #
straight-curve $-1 0 -36.477955343950043 -17.729330528310349 -1 0 0 I I #
straight-curve $-1 0 -36.477955343950043 17.729330528310349 1 0 0 I I #
straight-curve $-1 -33.72000362386612 -36.477955343950043 52.003969993948132 0 0 -1 I I #
point $-1 -33.72000362386612 -36.477955343950043 17.729330528310349 #
straight-curve $-1 -12.647114841011545 -36.477955343950043 10.833364840610345 1 0 0 I I #
point $-1 -33.72000362386612 -36.477955343950043 10.833364840610347 #
point $-1 -25.29422968202309 -28.115664287274214 10.141383127345367 #
straight-curve $-1 4.2844749093457004 -36.477955343950043 52.003969993948132 0 0 -1 I I #
point $-1 4.2844749093457004 -36.477955343950043 17.729330528310349 #
straight-curve $-1 6.3551244255943651 -36.477955343950043 10.833364840610345 1 0 0 I I #
point $-1 4.2844749093457004 -36.477955343950043 10.833364840610347 #
point $-1 12.71024885118873 -28.115664287274214 10.141383127345367 #
straight-curve $-1 -16.86845574018006 36.477955343950043 70.242947910279355 0 0 -1 I I #
point $-1 -16.86845574018006 36.477955343950043 17.729330528310349 #
straight-curve $-1 -12.647114841011545 36.477955343950043 10.833364840610333 -1 0 0 I I #
point $-1 -16.86845574018006 36.47795534395005 10.833364840610329 #
point $-1 -25.29422968202309 28.115664287274203 10.141383127345367 #
straight-curve $-1 21.13602279303176 36.477955343950043 70.242947910279355 0 0 -1 I I #
point $-1 21.13602279303176 36.477955343950043 17.729330528310349 #
straight-curve $-1 6.3551244255943651 36.477955343950043 10.833364840610333 -1 0 0 I I #
point $-1 21.13602279303176 36.47795534395005 10.833364840610329 #
point $-1 12.71024885118873 28.115664287274203 10.141383127345367 #
point $-1 -53.79436628315073 -36.477955343950043 17.729330528310349 #
straight-curve $-1 -53.79436628315073 -36.477955343950043 0 0 0 -1 I I #
point $-1 -53.79436628315073 -36.477955343950043 -17.729330528310349 #
point $-1 53.79436628315073 -36.477955343950043 17.729330528310349 #
straight-curve $-1 53.79436628315073 -36.477955343950043 0 0 0 -1 I I #
point $-1 53.79436628315073 -36.477955343950043 -17.729330528310349 #
End-of-ACIS-data 