500 0 8 0           
7 Unknown 11 ACIS 5.0 NT 24 Thu Mar 25 15:33:02 1999 
-1 9.9999999999999995e-007 1e-010 
body $-1 $8 $-1 $9 #
body $-1 $10 $-1 $11 #
body $-1 $12 $-1 $13 #
body $-1 $14 $-1 $15 #
body $-1 $16 $-1 $17 #
body $-1 $18 $-1 $19 #
body $-1 $20 $-1 $21 #
body $-1 $22 $-1 $23 #
lump $-1 $-1 $24 $0 #
transform $-1 1 0 0 0 1 0 0 0 1 56.803491317484053 36.954600210976622 17.272810435230948 1 rotate no_reflect no_shear #
lump $-1 $-1 $25 $1 #
transform $-1 1 0 0 0 1 0 0 0 1 56.803491317484053 36.954600210976622 17.272810435230948 1 rotate no_reflect no_shear #
lump $-1 $-1 $26 $2 #
transform $-1 1 0 0 0 1 0 0 0 1 56.803491317484053 36.954600210976622 17.272810435230948 1 rotate no_reflect no_shear #
lump $-1 $-1 $27 $3 #
transform $-1 1 0 0 0 1 0 0 0 1 56.803491317484053 36.954600210976622 17.272810435230948 1 rotate no_reflect no_shear #
lump $-1 $-1 $28 $4 #
transform $-1 1 0 0 0 1 0 0 0 1 56.803491317484053 36.954600210976622 17.272810435230948 1 rotate no_reflect no_shear #
lump $-1 $-1 $29 $5 #
transform $-1 1 0 0 0 1 0 0 0 1 56.803491317484053 36.954600210976622 17.272810435230948 1 rotate no_reflect no_shear #
lump $-1 $-1 $30 $6 #
transform $-1 1 0 0 0 1 0 0 0 1 56.803491317484053 36.954600210976622 17.272810435230948 1 rotate no_reflect no_shear #
lump $-1 $-1 $31 $7 #
transform $-1 1 0 0 0 1 0 0 0 1 56.803491317484053 36.954600210976622 17.272810435230948 1 rotate no_reflect no_shear #
shell $-1 $-1 $-1 $32 $-1 $8 #
shell $-1 $-1 $-1 $33 $-1 $10 #
shell $-1 $-1 $-1 $34 $-1 $12 #
shell $-1 $-1 $-1 $35 $-1 $14 #
shell $-1 $-1 $-1 $36 $-1 $16 #
shell $-1 $-1 $-1 $37 $-1 $18 #
shell $-1 $-1 $-1 $38 $-1 $20 #
shell $-1 $-1 $-1 $39 $-1 $22 #
face $-1 $40 $41 $24 $-1 $42 forward single #
face $-1 $43 $44 $25 $-1 $45 reversed single #
face $-1 $46 $47 $26 $-1 $48 reversed single #
face $-1 $49 $50 $27 $-1 $51 forward single #
face $-1 $52 $53 $28 $-1 $54 forward single #
face $-1 $55 $56 $29 $-1 $57 reversed single #
face $-1 $58 $59 $30 $-1 $60 forward single #
face $-1 $61 $62 $31 $-1 $63 forward single #
face $-1 $64 $65 $24 $-1 $66 reversed single #
loop $-1 $-1 $67 $32 #
plane-surface $-1 0 0 17.272810435230948 0 0 1 1 0 0 forward_v I I I I #
face $-1 $68 $69 $25 $-1 $70 reversed single #
loop $-1 $-1 $71 $33 #
plane-surface $-1 -48.746007533148514 -33.340051397890448 0 0 1 0 0 0 1 forward_v I I I I #
face $-1 $72 $73 $26 $-1 $74 reversed single #
loop $-1 $-1 $75 $34 #
plane-surface $-1 43.683556904291699 -112.97251030237111 86.174878250749174 -1 0 0 0 -0.66913061440640931 0.74314481823134659 forward_v I I I I #
face $-1 $76 $77 $27 $-1 $78 forward single #
loop $-1 $79 $80 $35 #
cone-surface $-1 28.997634401411354 -27.492561007578939 8.5763123379392727 0 0.66913061440640931 -0.74314481823134659 1.5 0 0 1 I I 0 1 1.5 forward I I I I #
face $-1 $81 $82 $28 $-1 $83 forward single #
loop $-1 $84 $85 $36 #
cone-surface $-1 37.809187903139566 -27.492561007578939 8.5763123379392727 0 0.66913061440640931 -0.74314481823134659 1.5 0 0 1 I I 0 1 1.5 forward I I I I #
face $-1 $86 $87 $29 $-1 $88 reversed single #
loop $-1 $-1 $89 $37 #
plane-surface $-1 37.264326543721438 91.979599083786951 131.68250132235022 1 0 0 0 -0.83867057594974714 -0.54463902268945019 forward_v I I I I #
face $-1 $90 $91 $30 $-1 $92 forward single #
loop $-1 $93 $94 $38 #
cone-surface $-1 42.846945050510762 30.795048865917476 10.540259550340592 0 -0.83867057594974714 -0.54463902268945019 2.5 0 0 1 I I 0 1 2.5 forward I I I I #
face $-1 $95 $96 $31 $-1 $97 forward single #
loop $-1 $98 $99 $39 #
cone-surface $-1 51.220872810694736 30.795048865917476 10.540259550340592 0 -0.83867057594974714 -0.54463902268945019 2.5 0 0 1 I I 0 1 2.5 forward I I I I #
face $-1 $100 $101 $24 $-1 $102 reversed single #
loop $-1 $-1 $103 $40 #
plane-surface $-1 0 0 -17.272810435230948 0 0 1 1 0 0 forward_v I I I I #
coedge $-1 $104 $105 $106 $107 forward $41 $-1 #
face $-1 $108 $109 $25 $-1 $110 reversed single #
loop $-1 $-1 $111 $43 #
plane-surface $-1 -48.746007533148514 -25.108121031404245 0 0 -1 0 0 0 -1 forward_v I I I I #
coedge $-1 $112 $113 $114 $115 reversed $44 $-1 #
face $-1 $116 $117 $26 $-1 $118 reversed single #
loop $-1 $-1 $119 $46 #
plane-surface $-1 33.40341115227546 -36.954600210976636 1.7484377906740605 0 -0.66913061440640931 0.74314481823134659 1 0 0 forward_v I I I I #
coedge $-1 $120 $121 $122 $123 reversed $47 $-1 #
face $-1 $-1 $124 $27 $-1 $125 forward single #
loop $-1 $126 $127 $49 #
cone-surface $-1 28.997634401411354 -26.149454927596715 7.0846419492525321 0 0.66913061440640931 -0.74314481823134659 0.75 0 0 1 I I -0.70710678118654757 0.70710678118654757 0.75 forward I I I I #
loop $-1 $-1 $128 $35 #
coedge $-1 $80 $80 $129 $130 reversed $50 $-1 #
face $-1 $-1 $131 $28 $-1 $132 forward single #
loop $-1 $133 $134 $52 #
cone-surface $-1 37.809187903139566 -26.149454927596715 7.0846419492525321 0 0.66913061440640931 -0.74314481823134659 0.75 0 0 1 I I -0.70710678118654757 0.70710678118654757 0.75 forward I I I I #
loop $-1 $-1 $135 $36 #
coedge $-1 $85 $85 $136 $137 reversed $53 $-1 #
face $-1 $138 $139 $29 $-1 $140 forward single #
loop $-1 $-1 $141 $55 #
plane-surface $-1 47.033908930602742 -3.2992344745946696 69.807705329343861 0 0.83867057594974714 0.54463902268945019 1 0 0 forward_v I I I I #
coedge $-1 $142 $143 $144 $145 reversed $56 $-1 #
face $-1 $-1 $146 $30 $-1 $147 forward single #
loop $-1 $148 $149 $58 #
cone-surface $-1 42.846945050510762 26.655797366518293 7.8521982829643839 0 -0.83867057594974714 -0.54463902268945019 1.25 0 0 1 I I -0.70710678118654746 0.70710678118654746 1.25 forward I I I I #
loop $-1 $-1 $150 $38 #
coedge $-1 $94 $94 $151 $152 reversed $59 $-1 #
face $-1 $-1 $153 $31 $-1 $154 forward single #
loop $-1 $155 $156 $61 #
cone-surface $-1 51.220872810694736 26.655797366518293 7.8521982829643839 0 -0.83867057594974714 -0.54463902268945019 1.25 0 0 1 I I -0.70710678118654746 0.70710678118654746 1.25 forward I I I I #
loop $-1 $-1 $157 $39 #
coedge $-1 $99 $99 $158 $159 reversed $62 $-1 #
face $-1 $160 $161 $24 $-1 $162 reversed single #
loop $-1 $-1 $163 $64 #
plane-surface $-1 0 -36.954600210976622 0 0 1 0 0 0 1 forward_v I I I I #
coedge $-1 $164 $165 $166 $167 forward $65 $-1 #
coedge $-1 $168 $67 $169 $170 forward $41 $-1 #
coedge $-1 $67 $168 $171 $172 forward $41 $-1 #
coedge $-1 $173 $174 $67 $107 reversed $175 $-1 #
edge $-1 $176 -36.954600210976622 $177 36.954600210976622 $106 $178 forward 7 unknown #
face $-1 $179 $180 $25 $-1 $181 reversed single #
loop $-1 $-1 $182 $68 #
plane-surface $-1 -40.688523748812976 -29.224086214647347 0 -1 0 0 0 0 1 forward_v I I I I #
coedge $-1 $183 $184 $185 $186 forward $69 $-1 #
coedge $-1 $187 $71 $188 $189 reversed $44 $-1 #
coedge $-1 $71 $187 $190 $191 reversed $44 $-1 #
coedge $-1 $192 $193 $71 $115 forward $194 $-1 #
edge $-1 $195 -17.272810435230948 $196 17.272810435230948 $114 $197 forward 7 unknown #
face $-1 $198 $199 $26 $-1 $200 reversed single #
loop $-1 $-1 $201 $72 #
plane-surface $-1 23.123265400259221 -112.97251030237111 86.174878250749174 1 0 0 0 0.66913061440640931 -0.74314481823134659 forward_v I I I I #
coedge $-1 $202 $203 $204 $205 reversed $73 $-1 #
coedge $-1 $121 $75 $206 $207 reversed $47 $-1 #
coedge $-1 $75 $120 $202 $208 reversed $47 $-1 #
coedge $-1 $204 $209 $75 $123 forward $210 $-1 #
edge $-1 $211 19.531654940208931 $212 36.773217108649447 $122 $213 forward 7 unknown #
loop $-1 $-1 $129 $76 #
plane-surface $-1 33.40341115227546 -36.954600210976636 1.7484377906740605 0 -0.66913061440640931 0.74314481823134659 1 0 0 forward_v I I I I #
loop $-1 $-1 $214 $49 #
coedge $-1 $127 $127 $128 $215 reversed $77 $-1 #
coedge $-1 $128 $128 $127 $215 forward $79 $-1 #
coedge $-1 $129 $129 $80 $130 forward $124 $-1 #
edge $-1 $216 -1.4095188082343002e-015 $216 6.2831853071795987 $129 $217 forward 7 unknown #
loop $-1 $-1 $136 $81 #
plane-surface $-1 33.40341115227546 -36.954600210976636 1.7484377906740605 0 -0.66913061440640931 0.74314481823134659 1 0 0 forward_v I I I I #
loop $-1 $-1 $218 $52 #
coedge $-1 $134 $134 $135 $219 reversed $82 $-1 #
coedge $-1 $135 $135 $134 $219 forward $84 $-1 #
coedge $-1 $136 $136 $85 $137 forward $131 $-1 #
edge $-1 $220 -1.4095188082343002e-015 $220 6.2831853071795987 $136 $221 forward 7 unknown #
face $-1 $222 $223 $29 $-1 $224 reversed single #
loop $-1 $-1 $144 $86 #
plane-surface $-1 0 0 17.272810435230948 0 0 1 1 0 0 forward_v I I I I #
coedge $-1 $225 $226 $227 $228 reversed $87 $-1 #
coedge $-1 $143 $89 $229 $230 reversed $56 $-1 #
coedge $-1 $89 $142 $225 $231 reversed $56 $-1 #
coedge $-1 $227 $232 $89 $145 forward $139 $-1 #
edge $-1 $233 9.0351993309168535 $234 15.17247546211113 $144 $235 forward 7 unknown #
loop $-1 $-1 $151 $90 #
plane-surface $-1 47.033908930602742 -3.2992344745946696 69.807705329343861 0 0.83867057594974714 0.54463902268945019 1 0 0 forward_v I I I I #
loop $-1 $-1 $236 $58 #
coedge $-1 $149 $149 $150 $237 reversed $91 $-1 #
coedge $-1 $150 $150 $149 $237 forward $93 $-1 #
coedge $-1 $151 $151 $94 $152 forward $146 $-1 #
edge $-1 $238 -1.1635798228359248e-016 $238 6.2831853071796004 $151 $239 forward 7 unknown #
loop $-1 $-1 $158 $95 #
plane-surface $-1 47.033908930602742 -3.2992344745946696 69.807705329343861 0 0.83867057594974714 0.54463902268945019 1 0 0 forward_v I I I I #
loop $-1 $-1 $240 $61 #
coedge $-1 $156 $156 $157 $241 reversed $96 $-1 #
coedge $-1 $157 $157 $156 $241 forward $98 $-1 #
coedge $-1 $158 $158 $99 $159 forward $153 $-1 #
edge $-1 $242 -1.1635798228359248e-016 $242 6.2831853071796004 $158 $243 forward 7 unknown #
face $-1 $244 $245 $24 $-1 $246 reversed single #
loop $-1 $-1 $247 $100 #
plane-surface $-1 -56.803491317484053 0 0 1 0 0 0 0 -1 forward_v I I I I #
coedge $-1 $248 $171 $249 $250 forward $101 $-1 #
coedge $-1 $251 $103 $248 $252 forward $65 $-1 #
coedge $-1 $103 $251 $253 $254 forward $65 $-1 #
coedge $-1 $174 $173 $103 $167 reversed $175 $-1 #
edge $-1 $255 -36.954600210976622 $256 36.954600210976622 $166 $257 forward 7 unknown #
coedge $-1 $105 $104 $258 $259 forward $41 $-1 #
coedge $-1 $260 $261 $104 $170 reversed $245 $-1 #
edge $-1 $177 -56.803491317484053 $262 56.803491317484053 $169 $263 forward 7 unknown #
coedge $-1 $163 $264 $105 $172 reversed $101 $-1 #
edge $-1 $265 -56.803491317484053 $176 56.803491317484053 $171 $266 forward 7 unknown #
coedge $-1 $166 $106 $264 $267 forward $175 $-1 #
coedge $-1 $106 $166 $260 $268 reversed $175 $-1 #
loop $-1 $-1 $173 $244 #
vertex $-1 $107 $269 #
vertex $-1 $107 $270 #
straight-curve $-1 56.803491317484053 0 17.272810435230948 0 1 0 I I #
face $-1 $271 $272 $25 $-1 $273 forward single #
loop $-1 $-1 $274 $108 #
plane-surface $-1 0 0 -17.272810435230948 0 0 1 1 0 0 forward_v I I I I #
coedge $-1 $275 $276 $187 $277 forward $109 $-1 #
coedge $-1 $278 $111 $274 $279 reversed $69 $-1 #
coedge $-1 $111 $278 $280 $281 reversed $69 $-1 #
coedge $-1 $276 $275 $111 $186 reversed $109 $-1 #
edge $-1 $282 -17.272810435230948 $283 17.272810435230948 $185 $284 forward 7 unknown #
coedge $-1 $113 $112 $182 $277 reversed $44 $-1 #
coedge $-1 $285 $286 $112 $189 forward $180 $-1 #
edge $-1 $287 16.315519982238719 $195 32.430487550909795 $188 $288 forward 7 unknown #
coedge $-1 $289 $290 $113 $191 forward $272 $-1 #
edge $-1 $196 -32.430487550909795 $291 -16.315519982238719 $190 $292 forward 7 unknown #
coedge $-1 $293 $114 $290 $294 reversed $194 $-1 #
coedge $-1 $114 $293 $285 $295 reversed $194 $-1 #
loop $-1 $-1 $293 $271 #
vertex $-1 $295 $296 #
vertex $-1 $115 $297 #
straight-curve $-1 -56.803491317484053 -33.340051397890448 0 0 0 1 I I #
face $-1 $-1 $210 $26 $-1 $298 forward single #
loop $-1 $-1 $299 $116 #
plane-surface $-1 0 -36.954600210976622 0 0 1 0 0 0 1 forward_v I I I I #
coedge $-1 $300 $301 $302 $303 reversed $117 $-1 #
coedge $-1 $304 $119 $121 $208 forward $73 $-1 #
coedge $-1 $119 $304 $300 $305 forward $73 $-1 #
coedge $-1 $302 $122 $119 $205 forward $210 $-1 #
edge $-1 $212 -26.981851328153969 $306 -6.4215598241214913 $204 $307 forward 7 unknown #
coedge $-1 $308 $309 $120 $207 forward $199 $-1 #
edge $-1 $310 -41.339001334700512 $211 -25.814628690143639 $206 $311 forward 7 unknown #
edge $-1 $212 -23.200810589616605 $310 -1.9178179933549516e-014 $121 $312 forward 7 unknown #
coedge $-1 $122 $302 $308 $313 forward $210 $-1 #
loop $-1 $-1 $302 $198 #
vertex $-1 $207 $314 #
vertex $-1 $123 $315 #
straight-curve $-1 43.683556904291699 -56.486255151185553 17.272810435230951 0 1 0 I I #
coedge $-1 $214 $214 $-1 $316 reversed $126 $-1 #
edge $-1 $317 0 $317 6.2831853071796004 $127 $318 forward 7 unknown #
vertex $-1 $130 $319 #
ellipse-curve $-1 28.997634401411354 -28.33381912675636 9.5106241129525113 0 -0.66913061440640931 0.74314481823134659 1.5 0 0 1 I I #
coedge $-1 $218 $218 $-1 $320 reversed $133 $-1 #
edge $-1 $321 0 $321 6.2831853071796004 $134 $322 forward 7 unknown #
vertex $-1 $137 $323 #
ellipse-curve $-1 37.809187903139566 -28.33381912675636 9.5106241129525113 0 -0.66913061440640931 0.74314481823134659 1.5 0 0 1 I I #
face $-1 $-1 $324 $29 $-1 $325 reversed single #
loop $-1 $-1 $326 $138 #
plane-surface $-1 56.803491317484053 0 0 -1 0 0 0 0 1 forward_v I I I I #
coedge $-1 $327 $141 $143 $231 forward $87 $-1 #
coedge $-1 $141 $327 $326 $328 reversed $87 $-1 #
coedge $-1 $329 $144 $141 $228 forward $139 $-1 #
edge $-1 $234 13.747372078420067 $330 33.286536852182678 $227 $331 forward 7 unknown #
coedge $-1 $332 $333 $142 $230 forward $324 $-1 #
edge $-1 $334 -58.019017017696036 $233 -48.568440225944158 $229 $335 forward 7 unknown #
edge $-1 $234 62.640679666888403 $334 73.909200421953201 $143 $336 forward 7 unknown #
coedge $-1 $144 $329 $332 $337 forward $139 $-1 #
vertex $-1 $230 $338 #
vertex $-1 $145 $339 #
straight-curve $-1 37.264326543721438 45.989799541893476 17.272810435230951 0 -1 0 I I #
coedge $-1 $236 $236 $-1 $340 reversed $148 $-1 #
edge $-1 $341 0 $341 6.2831853071796004 $149 $342 forward 7 unknown #
vertex $-1 $152 $343 #
ellipse-curve $-1 42.846945050510762 33.885962145379487 12.547522039354996 0 0.83867057594974714 0.54463902268945019 2.5 0 0 1 I I #
coedge $-1 $240 $240 $-1 $344 reversed $155 $-1 #
edge $-1 $345 0 $345 6.2831853071796004 $156 $346 forward 7 unknown #
vertex $-1 $159 $347 #
ellipse-curve $-1 51.220872810694736 33.885962145379487 12.547522039354996 0 0.83867057594974714 0.54463902268945019 2.5 0 0 1 I I #
face $-1 $-1 $175 $24 $-1 $348 reversed single #
loop $-1 $-1 $260 $160 #
plane-surface $-1 0 36.954600210976622 0 0 -1 0 0 0 -1 forward_v I I I I #
coedge $-1 $349 $258 $261 $350 forward $161 $-1 #
coedge $-1 $264 $163 $164 $252 reversed $101 $-1 #
coedge $-1 $258 $349 $163 $250 reversed $161 $-1 #
edge $-1 $265 -17.272810435230948 $351 17.272810435230948 $249 $352 forward 7 unknown #
coedge $-1 $165 $164 $349 $353 forward $65 $-1 #
edge $-1 $256 -56.803491317484053 $351 56.803491317484053 $248 $354 forward 7 unknown #
coedge $-1 $261 $260 $165 $254 reversed $245 $-1 #
edge $-1 $355 -56.803491317484053 $255 56.803491317484053 $253 $356 forward 7 unknown #
vertex $-1 $167 $357 #
vertex $-1 $267 $358 #
straight-curve $-1 56.803491317484053 0 -17.272810435230948 0 -1 0 I I #
coedge $-1 $247 $249 $168 $259 reversed $161 $-1 #
edge $-1 $262 -36.954600210976622 $265 36.954600210976622 $258 $359 forward 7 unknown #
coedge $-1 $253 $169 $174 $268 forward $245 $-1 #
coedge $-1 $169 $253 $247 $350 reversed $245 $-1 #
vertex $-1 $170 $360 #
straight-curve $-1 0 36.954600210976622 17.272810435230948 -1 0 0 I I #
coedge $-1 $171 $248 $173 $267 reversed $101 $-1 #
vertex $-1 $259 $361 #
straight-curve $-1 0 -36.954600210976622 17.272810435230948 1 0 0 I I #
edge $-1 $176 -17.272810435230948 $256 17.272810435230948 $173 $362 forward 7 unknown #
edge $-1 $177 -17.272810435230948 $255 17.272810435230948 $174 $363 forward 7 unknown #
point $-1 56.803491317484053 -36.954600210976622 17.272810435230948 #
point $-1 56.803491317484053 36.954600210976622 17.272810435230948 #
face $-1 $-1 $194 $25 $-1 $364 reversed single #
loop $-1 $-1 $280 $179 #
plane-surface $-1 0 0 17.272810435230948 0 0 1 1 0 0 forward_v I I I I #
coedge $-1 $286 $285 $183 $279 forward $180 $-1 #
coedge $-1 $185 $182 $286 $365 reversed $109 $-1 #
coedge $-1 $182 $185 $289 $366 reversed $109 $-1 #
edge $-1 $291 -17.272810435230948 $287 17.272810435230948 $182 $367 forward 7 unknown #
coedge $-1 $184 $183 $293 $368 reversed $69 $-1 #
edge $-1 $369 -32.430487550909795 $283 -16.315519982238719 $274 $370 forward 7 unknown #
coedge $-1 $290 $289 $184 $281 forward $272 $-1 #
edge $-1 $282 16.315519982238719 $371 32.430487550909795 $280 $372 forward 7 unknown #
vertex $-1 $281 $373 #
vertex $-1 $279 $374 #
straight-curve $-1 -40.688523748812976 -25.108121031404245 0 0 0 -1 I I #
coedge $-1 $274 $188 $193 $295 forward $180 $-1 #
coedge $-1 $188 $274 $275 $365 forward $180 $-1 #
vertex $-1 $189 $375 #
straight-curve $-1 -24.373003766574257 -33.340051397890448 -17.272810435230948 -1 0 0 I I #
coedge $-1 $280 $190 $276 $366 forward $272 $-1 #
coedge $-1 $190 $280 $192 $294 forward $272 $-1 #
vertex $-1 $191 $376 #
straight-curve $-1 -24.373003766574257 -33.340051397890448 17.272810435230948 1 0 0 I I #
coedge $-1 $193 $192 $278 $368 forward $194 $-1 #
edge $-1 $371 25.108121031404245 $196 33.340051397890448 $192 $377 forward 7 unknown #
edge $-1 $195 -33.340051397890448 $369 -25.108121031404245 $193 $378 forward 7 unknown #
point $-1 -56.803491317484053 -33.340051397890448 -17.272810435230948 #
point $-1 -56.803491317484053 -33.340051397890448 17.272810435230948 #
plane-surface $-1 0 0 17.272810435230948 0 0 1 1 0 0 forward_v I I I I #
coedge $-1 $309 $308 $301 $379 forward $199 $-1 #
coedge $-1 $301 $201 $203 $305 reversed $117 $-1 #
coedge $-1 $201 $300 $299 $379 reversed $117 $-1 #
coedge $-1 $209 $204 $201 $303 forward $210 $-1 #
edge $-1 $306 -36.773217108649447 $380 -19.531654940208931 $302 $381 forward 7 unknown #
coedge $-1 $203 $202 $309 $382 reversed $73 $-1 #
edge $-1 $383 1.9178179933549516e-014 $306 23.200810589616605 $300 $384 forward 7 unknown #
vertex $-1 $205 $385 #
straight-curve $-1 16.70170557613773 -19.713038042536102 17.272810435230948 -1 0 0 I I #
coedge $-1 $299 $206 $209 $313 reversed $199 $-1 #
coedge $-1 $206 $299 $304 $382 forward $199 $-1 #
vertex $-1 $207 $386 #
straight-curve $-1 43.683556904291699 -36.954600210976622 43.087439125374587 0 0 1 I I #
straight-curve $-1 43.683556904291699 -36.954600210976636 1.7484377906740605 0 -0.74314481823134659 -0.66913061440640931 I I #
edge $-1 $380 23.123265400259221 $211 43.683556904291699 $308 $387 forward 7 unknown #
point $-1 43.683556904291699 -36.954600210976622 17.272810435230948 #
point $-1 43.683556904291699 -19.713038042536102 17.272810435230944 #
edge $-1 $388 1 $388 0 $214 $-1 forward 7 unknown #
vertex $-1 $215 $389 #
ellipse-curve $-1 28.997634401411354 -26.651302888401521 7.6420005629260421 0 -0.66913061440640931 0.74314481823134659 1.5 0 0 1 I I #
point $-1 30.497634401411354 -28.333819126756357 9.5106241129525042 #
edge $-1 $390 1 $390 0 $218 $-1 forward 7 unknown #
vertex $-1 $219 $391 #
ellipse-curve $-1 37.809187903139566 -26.651302888401521 7.6420005629260421 0 -0.66913061440640931 0.74314481823134659 1.5 0 0 1 I I #
point $-1 39.309187903139566 -28.333819126756357 9.5106241129525042 #
loop $-1 $-1 $229 $222 #
plane-surface $-1 0 36.954600210976622 0 0 -1 0 0 0 -1 forward_v I I I I #
coedge $-1 $392 $393 $226 $328 forward $223 $-1 #
coedge $-1 $226 $225 $333 $394 reversed $87 $-1 #
edge $-1 $330 32.469399529809586 $395 43.737920284874392 $326 $396 forward 7 unknown #
coedge $-1 $232 $227 $393 $397 forward $139 $-1 #
vertex $-1 $397 $398 #
straight-curve $-1 23.516954465301371 30.817324079782345 17.272810435230944 1 0 0 I I #
coedge $-1 $399 $229 $232 $337 reversed $324 $-1 #
coedge $-1 $229 $399 $327 $394 forward $324 $-1 #
vertex $-1 $230 $400 #
straight-curve $-1 37.264326543721438 36.954600210976622 65.84125066117511 0 0 1 I I #
straight-curve $-1 37.264326543721438 -3.2992344745946696 69.807705329343861 0 0.54463902268945019 -0.83867057594974714 I I #
edge $-1 $401 -56.803491317484053 $233 -37.264326543721438 $332 $402 forward 7 unknown #
point $-1 37.264326543721438 36.954600210976622 17.272810435230948 #
point $-1 37.264326543721438 30.817324079782345 17.272810435230951 #
edge $-1 $403 1 $403 0 $236 $-1 forward 7 unknown #
vertex $-1 $237 $404 #
ellipse-curve $-1 42.846945050510762 27.704135586455475 8.5329970613261974 0 0.83867057594974714 0.54463902268945019 2.5 0 0 1 I I #
point $-1 45.346945050510762 33.885962145379473 12.547522039354988 #
edge $-1 $405 1 $405 0 $240 $-1 forward 7 unknown #
vertex $-1 $241 $406 #
ellipse-curve $-1 51.220872810694736 27.704135586455475 8.5329970613261974 0 0.83867057594974714 0.54463902268945019 2.5 0 0 1 I I #
point $-1 53.720872810694736 33.885962145379473 12.547522039354988 #
plane-surface $-1 56.803491317484053 0 0 -1 0 0 0 0 1 forward_v I I I I #
coedge $-1 $249 $247 $251 $353 reversed $161 $-1 #
edge $-1 $262 -17.272810435230948 $355 17.272810435230948 $261 $407 forward 7 unknown #
vertex $-1 $353 $408 #
straight-curve $-1 -56.803491317484053 -36.954600210976622 0 0 0 -1 I I #
edge $-1 $351 -36.954600210976622 $355 36.954600210976622 $349 $409 forward 7 unknown #
straight-curve $-1 0 -36.954600210976622 -17.272810435230948 -1 0 0 I I #
vertex $-1 $254 $410 #
straight-curve $-1 0 36.954600210976622 -17.272810435230948 1 0 0 I I #
point $-1 56.803491317484053 36.954600210976622 -17.272810435230948 #
point $-1 56.803491317484053 -36.954600210976622 -17.272810435230948 #
straight-curve $-1 -56.803491317484053 0 17.272810435230948 0 -1 0 I I #
point $-1 -56.803491317484053 36.954600210976622 17.272810435230948 #
point $-1 -56.803491317484053 -36.954600210976622 17.272810435230948 #
straight-curve $-1 56.803491317484053 -36.954600210976622 0 0 0 -1 I I #
straight-curve $-1 56.803491317484053 36.954600210976622 0 0 0 -1 I I #
plane-surface $-1 -56.803491317484053 0 0 1 0 0 0 0 -1 forward_v I I I I #
edge $-1 $283 10.496077924080572 $287 18.728008290566777 $286 $411 forward 7 unknown #
edge $-1 $291 -18.728008290566777 $282 -10.496077924080572 $289 $412 forward 7 unknown #
straight-curve $-1 -40.688523748812976 -33.340051397890448 0 0 0 -1 I I #
edge $-1 $371 -17.272810435230948 $369 17.272810435230948 $293 $413 forward 7 unknown #
vertex $-1 $368 $414 #
straight-curve $-1 -24.373003766574257 -25.108121031404245 -17.272810435230948 1 0 0 I I #
vertex $-1 $294 $415 #
straight-curve $-1 -24.373003766574257 -25.108121031404245 17.272810435230948 -1 0 0 I I #
point $-1 -40.688523748812976 -25.108121031404245 17.272810435230948 #
point $-1 -40.688523748812976 -25.108121031404245 -17.272810435230948 #
point $-1 -40.688523748812976 -33.340051397890448 -17.272810435230948 #
point $-1 -40.688523748812976 -33.340051397890448 17.272810435230948 #
straight-curve $-1 -56.803491317484053 0 17.272810435230948 0 -1 0 I I #
straight-curve $-1 -56.803491317484053 0 -17.272810435230948 0 1 0 I I #
edge $-1 $380 25.814628690143639 $383 41.339001334700512 $299 $416 forward 7 unknown #
vertex $-1 $313 $417 #
straight-curve $-1 23.123265400259221 -56.486255151185553 17.272810435230951 0 -1 0 I I #
edge $-1 $383 6.4215598241214913 $310 26.981851328153969 $309 $418 forward 7 unknown #
vertex $-1 $382 $419 #
straight-curve $-1 23.123265400259221 -36.954600210976636 1.7484377906740605 0 0.74314481823134659 0.66913061440640931 I I #
point $-1 23.123265400259221 -19.713038042536102 17.272810435230944 #
point $-1 43.683556904291699 -36.954600210976622 1.7484377906740733 #
straight-curve $-1 0 -36.954600210976622 17.272810435230948 1 0 0 I I #
vertex $-1 $316 $420 #
point $-1 30.497634401411354 -26.651302888401521 7.6420005629260421 #
vertex $-1 $320 $421 #
point $-1 39.309187903139566 -26.651302888401521 7.6420005629260421 #
coedge $-1 $393 $326 $399 $422 reversed $223 $-1 #
coedge $-1 $326 $392 $329 $397 reversed $223 $-1 #
edge $-1 $395 -33.286536852182678 $334 -13.747372078420067 $333 $423 forward 7 unknown #
vertex $-1 $328 $424 #
straight-curve $-1 56.803491317484053 13.133222052553554 44.503940439638804 0 0.54463902268945019 -0.83867057594974714 I I #
edge $-1 $330 30.817324079782345 $401 36.954600210976622 $393 $425 forward 7 unknown #
point $-1 56.803491317484045 30.817324079782345 17.272810435230951 #
coedge $-1 $333 $332 $392 $422 forward $324 $-1 #
point $-1 37.264326543721438 36.954600210976622 7.8222336434790734 #
vertex $-1 $397 $426 #
straight-curve $-1 0 36.954600210976622 17.272810435230948 -1 0 0 I I #
vertex $-1 $340 $427 #
point $-1 45.346945050510762 27.704135586455475 8.5329970613261974 #
vertex $-1 $344 $428 #
point $-1 53.720872810694736 27.704135586455475 8.5329970613261974 #
straight-curve $-1 -56.803491317484053 36.954600210976622 0 0 0 -1 I I #
point $-1 -56.803491317484053 -36.954600210976622 -17.272810435230948 #
straight-curve $-1 -56.803491317484053 0 -17.272810435230948 0 1 0 I I #
point $-1 -56.803491317484053 36.954600210976622 -17.272810435230948 #
straight-curve $-1 -40.688523748812976 -14.612043107323673 -17.272810435230948 0 -1 0 I I #
straight-curve $-1 -40.688523748812976 -14.612043107323673 17.272810435230948 0 1 0 I I #
straight-curve $-1 -56.803491317484053 -25.108121031404245 0 0 0 -1 I I #
point $-1 -56.803491317484053 -25.108121031404245 -17.272810435230948 #
point $-1 -56.803491317484053 -25.108121031404245 17.272810435230948 #
straight-curve $-1 23.123265400259221 -36.954600210976622 43.087439125374587 0 0 -1 I I #
point $-1 23.123265400259221 -36.954600210976622 17.272810435230948 #
straight-curve $-1 16.70170557613773 -36.954600210976622 1.7484377906740727 1 0 0 I I #
point $-1 23.123265400259221 -36.954600210976622 1.7484377906740733 #
point $-1 28.997634401411354 -25.647606966791908 6.5272833355790221 #
point $-1 37.809187903139566 -25.647606966791908 6.5272833355790221 #
edge $-1 $401 -17.272810435230948 $395 -7.8222336434790734 $392 $429 forward 7 unknown #
straight-curve $-1 23.516954465301371 36.954600210976622 7.8222336434790734 -1 0 0 I I #
point $-1 56.803491317484045 36.954600210976622 7.8222336434790734 #
straight-curve $-1 56.803491317484053 0 17.272810435230948 0 1 0 I I #
point $-1 56.803491317484053 36.954600210976622 17.272810435230948 #
point $-1 42.846945050510762 25.60745914658111 7.1713995046025714 #
point $-1 51.220872810694736 25.60745914658111 7.1713995046025714 #
straight-curve $-1 56.803491317484053 36.954600210976622 0 0 0 -1 I I #
End-of-ACIS-data 