500 0 8 0           
7 Unknown 11 ACIS 5.0 NT 24 Thu Mar 25 23:08:13 1999 
-1 9.9999999999999995e-007 1e-010 
body $-1 $8 $-1 $9 #
body $-1 $10 $-1 $11 #
body $-1 $12 $-1 $13 #
body $-1 $14 $-1 $15 #
body $-1 $16 $-1 $17 #
body $-1 $18 $-1 $19 #
body $-1 $20 $-1 $21 #
body $-1 $22 $-1 $23 #
lump $-1 $-1 $24 $0 #
transform $-1 1 0 0 0 1 0 0 0 1 42.002014221625416 29.279891630353401 12.01067999489557 1 rotate no_reflect no_shear #
lump $-1 $-1 $25 $1 #
transform $-1 1 0 0 0 1 0 0 0 1 42.002014221625416 29.279891630353401 12.01067999489557 1 rotate no_reflect no_shear #
lump $-1 $-1 $26 $2 #
transform $-1 1 0 0 0 1 0 0 0 1 42.002014221625416 29.279891630353401 12.01067999489557 1 rotate no_reflect no_shear #
lump $-1 $-1 $27 $3 #
transform $-1 1 0 0 0 1 0 0 0 1 42.002014221625416 29.279891630353401 12.01067999489557 1 rotate no_reflect no_shear #
lump $-1 $-1 $28 $4 #
transform $-1 1 0 0 0 1 0 0 0 1 42.002014221625416 29.279891630353401 12.01067999489557 1 rotate no_reflect no_shear #
lump $-1 $-1 $29 $5 #
transform $-1 1 0 0 0 1 0 0 0 1 42.002014221625416 29.279891630353401 12.01067999489557 1 rotate no_reflect no_shear #
lump $-1 $-1 $30 $6 #
transform $-1 1 0 0 0 1 0 0 0 1 42.002014221625416 29.279891630353401 12.01067999489557 1 rotate no_reflect no_shear #
lump $-1 $-1 $31 $7 #
transform $-1 1 0 0 0 1 0 0 0 1 42.002014221625416 29.279891630353401 12.01067999489557 1 rotate no_reflect no_shear #
shell $-1 $-1 $-1 $32 $-1 $8 #
shell $-1 $-1 $-1 $33 $-1 $10 #
shell $-1 $-1 $-1 $34 $-1 $12 #
shell $-1 $-1 $-1 $35 $-1 $14 #
shell $-1 $-1 $-1 $36 $-1 $16 #
shell $-1 $-1 $-1 $37 $-1 $18 #
shell $-1 $-1 $-1 $38 $-1 $20 #
shell $-1 $-1 $-1 $39 $-1 $22 #
face $-1 $40 $41 $24 $-1 $42 forward single #
face $-1 $43 $44 $25 $-1 $45 forward single #
face $-1 $46 $47 $26 $-1 $48 reversed single #
face $-1 $49 $50 $27 $-1 $51 forward single #
face $-1 $52 $53 $28 $-1 $54 forward single #
face $-1 $55 $56 $29 $-1 $57 reversed single #
face $-1 $58 $59 $30 $-1 $60 forward single #
face $-1 $61 $62 $31 $-1 $63 forward single #
face $-1 $64 $65 $24 $-1 $66 reversed single #
loop $-1 $-1 $67 $32 #
plane-surface $-1 0 0 12.01067999489557 0 0 1 1 0 0 forward_v I I I I #
face $-1 $68 $69 $25 $-1 $70 reversed single #
loop $-1 $-1 $71 $33 #
plane-surface $-1 0 -24.269934858923822 -5.8891076104004076 0 0 1 1 0 0 forward_v I I I I #
face $-1 $72 $73 $26 $-1 $74 reversed single #
loop $-1 $-1 $75 $34 #
plane-surface $-1 -109.96270151564147 -6.3832909753200635 54.637760044791648 0 1 0 -0.80901700255871778 0 0.5877852410284794 forward_v I I I I #
face $-1 $76 $77 $27 $-1 $78 forward single #
loop $-1 $79 $80 $35 #
cone-surface $-1 -38.061572669551452 -3.6465823988709651 7.5545002694848478 0.80901700255871778 0 -0.5877852410284794 0.5877852410284794 0 0.80901700255871778 1 I I 0 1 1 forward I I I I #
face $-1 $81 $82 $28 $-1 $83 forward single #
loop $-1 $84 $85 $36 #
cone-surface $-1 -38.061572669551452 0.45848046580268687 7.5545002694848478 0.80901700255871778 0 -0.5877852410284794 0.5877852410284794 0 0.80901700255871778 1 I I 0 1 1 forward I I I I #
face $-1 $86 $87 $29 $-1 $88 reversed single #
loop $-1 $-1 $89 $37 #
plane-surface $-1 60.586373409762047 3.1951890422517888 122.5984473388077 0 -1 0 -0.80901700255871778 0 -0.5877852410284794 forward_v I I I I #
face $-1 $90 $91 $30 $-1 $92 forward single #
loop $-1 $93 $94 $38 #
cone-surface $-1 38.061572669551452 -3.6465823988709651 7.5545002694848336 -0.80901700255871778 0 -0.5877852410284794 0.5877852410284794 0 -0.80901700255871778 1 I I 0 1 1 forward I I I I #
face $-1 $95 $96 $31 $-1 $97 forward single #
loop $-1 $98 $99 $39 #
cone-surface $-1 38.061572669551452 0.45848046580268687 7.5545002694848336 -0.80901700255871778 0 -0.5877852410284794 0.5877852410284794 0 -0.80901700255871778 1 I I 0 1 1 forward I I I I #
face $-1 $100 $101 $24 $-1 $102 reversed single #
loop $-1 $-1 $103 $40 #
plane-surface $-1 0 0 -12.01067999489557 0 0 1 1 0 0 forward_v I I I I #
coedge $-1 $104 $105 $106 $107 forward $41 $-1 #
face $-1 $108 $109 $25 $-1 $110 reversed single #
loop $-1 $-1 $111 $43 #
plane-surface $-1 0 -19.259978087494243 -8.9498938026479884 0 -1 0 0 0 -1 forward_v I I I I #
coedge $-1 $112 $113 $114 $115 reversed $44 $-1 #
face $-1 $116 $117 $26 $-1 $118 reversed single #
loop $-1 $-1 $119 $46 #
plane-surface $-1 -42.002014221625416 -1.5940509665341374 5.2614319389122173 -0.80901700255871778 0 0.5877852410284794 0.5877852410284794 0 0.80901700255871778 forward_v I I I I #
coedge $-1 $120 $121 $122 $123 reversed $47 $-1 #
face $-1 $-1 $124 $27 $-1 $125 forward single #
loop $-1 $126 $127 $49 #
cone-surface $-1 -36.16843041677599 -3.6465823988709651 6.1790519515515552 0.80901700255871778 0 -0.5877852410284794 0.2938926205142397 0 0.40450850127935889 1 I I -0.70710678118654746 0.70710678118654746 0.5 forward I I I I #
loop $-1 $-1 $128 $35 #
coedge $-1 $80 $80 $129 $130 reversed $50 $-1 #
face $-1 $-1 $131 $28 $-1 $132 forward single #
loop $-1 $133 $134 $52 #
cone-surface $-1 -36.16843041677599 0.45848046580268687 6.1790519515515552 0.80901700255871778 0 -0.5877852410284794 0.2938926205142397 0 0.40450850127935889 1 I I -0.70710678118654746 0.70710678118654746 0.5 forward I I I I #
loop $-1 $-1 $135 $36 #
coedge $-1 $85 $85 $136 $137 reversed $53 $-1 #
face $-1 $138 $139 $29 $-1 $140 reversed single #
loop $-1 $-1 $141 $55 #
plane-surface $-1 -7.3743138842540077 -1.5940509665341374 73.222119232928264 0.80901700255871778 0 0.5877852410284794 0.5877852410284794 0 -0.80901700255871778 forward_v I I I I #
coedge $-1 $142 $143 $144 $145 reversed $56 $-1 #
face $-1 $-1 $146 $30 $-1 $147 forward single #
loop $-1 $148 $149 $58 #
cone-surface $-1 36.16843041677599 -3.6465823988709651 6.179051951551541 -0.80901700255871778 0 -0.5877852410284794 0.2938926205142397 0 -0.40450850127935889 1 I I -0.70710678118654746 0.70710678118654746 0.5 forward I I I I #
loop $-1 $-1 $150 $38 #
coedge $-1 $94 $94 $151 $152 reversed $59 $-1 #
face $-1 $-1 $153 $31 $-1 $154 forward single #
loop $-1 $155 $156 $61 #
cone-surface $-1 36.16843041677599 0.45848046580268687 6.179051951551541 -0.80901700255871778 0 -0.5877852410284794 0.2938926205142397 0 -0.40450850127935889 1 I I -0.70710678118654746 0.70710678118654746 0.5 forward I I I I #
loop $-1 $-1 $157 $39 #
coedge $-1 $99 $99 $158 $159 reversed $62 $-1 #
face $-1 $160 $161 $24 $-1 $162 reversed single #
loop $-1 $-1 $163 $64 #
plane-surface $-1 0 -29.279891630353401 0 0 1 0 0 0 1 forward_v I I I I #
coedge $-1 $164 $165 $166 $167 forward $65 $-1 #
coedge $-1 $168 $67 $169 $170 forward $41 $-1 #
coedge $-1 $67 $168 $171 $172 forward $41 $-1 #
coedge $-1 $173 $174 $67 $107 reversed $175 $-1 #
edge $-1 $176 -29.279891630353401 $177 29.279891630353401 $106 $178 forward 7 unknown #
face $-1 $179 $180 $25 $-1 $181 reversed single #
loop $-1 $-1 $182 $68 #
plane-surface $-1 0 0 -12.01067999489557 0 0 1 1 0 0 forward_v I I I I #
coedge $-1 $183 $184 $185 $186 reversed $69 $-1 #
coedge $-1 $187 $71 $184 $188 forward $44 $-1 #
coedge $-1 $71 $187 $189 $190 reversed $44 $-1 #
coedge $-1 $191 $185 $71 $115 forward $180 $-1 #
edge $-1 $192 7.1250106580323322 $193 17.144924200891488 $114 $194 forward 7 unknown #
face $-1 $195 $196 $26 $-1 $197 forward single #
loop $-1 $-1 $198 $72 #
plane-surface $-1 -109.96270151564147 3.1951890422517888 54.637760044791648 0 -1 0 0.80901700255871778 0 -0.5877852410284794 forward_v I I I I #
coedge $-1 $199 $200 $201 $202 reversed $73 $-1 #
coedge $-1 $121 $75 $203 $204 reversed $47 $-1 #
coedge $-1 $75 $120 $199 $205 reversed $47 $-1 #
coedge $-1 $201 $206 $75 $123 forward $196 $-1 #
edge $-1 $207 12.979336536195319 $208 17.882952137351047 $122 $209 forward 7 unknown #
loop $-1 $-1 $129 $76 #
plane-surface $-1 -42.002014221625416 -1.5940509665341374 5.2614319389122173 -0.80901700255871778 0 0.5877852410284794 0.5877852410284794 0 0.80901700255871778 forward_v I I I I #
loop $-1 $-1 $210 $49 #
coedge $-1 $127 $127 $128 $211 reversed $77 $-1 #
coedge $-1 $128 $128 $127 $211 forward $79 $-1 #
coedge $-1 $129 $129 $80 $130 forward $124 $-1 #
edge $-1 $212 0 $212 6.2831853071796004 $129 $213 forward 7 unknown #
loop $-1 $-1 $136 $81 #
plane-surface $-1 -42.002014221625416 -1.5940509665341374 5.2614319389122173 -0.80901700255871778 0 0.5877852410284794 0.5877852410284794 0 0.80901700255871778 forward_v I I I I #
loop $-1 $-1 $214 $52 #
coedge $-1 $134 $134 $135 $215 reversed $82 $-1 #
coedge $-1 $135 $135 $134 $215 forward $84 $-1 #
coedge $-1 $136 $136 $85 $137 forward $131 $-1 #
edge $-1 $216 0 $216 6.2831853071796004 $136 $217 forward 7 unknown #
face $-1 $218 $219 $29 $-1 $220 reversed single #
loop $-1 $-1 $221 $86 #
plane-surface $-1 60.586373409762047 -6.3832909753200635 122.5984473388077 0 1 0 0.80901700255871778 0 0.5877852410284794 forward_v I I I I #
coedge $-1 $222 $223 $224 $225 reversed $87 $-1 #
coedge $-1 $143 $89 $226 $227 reversed $56 $-1 #
coedge $-1 $89 $142 $222 $228 reversed $56 $-1 #
coedge $-1 $224 $229 $89 $145 forward $230 $-1 #
edge $-1 $231 -11.708827516744392 $232 -6.8052119155886643 $144 $233 forward 7 unknown #
loop $-1 $-1 $151 $90 #
plane-surface $-1 -7.3743138842540077 -1.5940509665341374 73.222119232928264 0.80901700255871778 0 0.5877852410284794 0.5877852410284794 0 -0.80901700255871778 forward_v I I I I #
loop $-1 $-1 $234 $58 #
coedge $-1 $149 $149 $150 $235 reversed $91 $-1 #
coedge $-1 $150 $150 $149 $235 forward $93 $-1 #
coedge $-1 $151 $151 $94 $152 forward $146 $-1 #
edge $-1 $236 0 $236 6.2831853071796004 $151 $237 forward 7 unknown #
loop $-1 $-1 $158 $95 #
plane-surface $-1 -7.3743138842540077 -1.5940509665341374 73.222119232928264 0.80901700255871778 0 0.5877852410284794 0.5877852410284794 0 -0.80901700255871778 forward_v I I I I #
loop $-1 $-1 $238 $61 #
coedge $-1 $156 $156 $157 $239 reversed $96 $-1 #
coedge $-1 $157 $157 $156 $239 forward $98 $-1 #
coedge $-1 $158 $158 $99 $159 forward $153 $-1 #
edge $-1 $240 0 $240 6.2831853071796004 $158 $241 forward 7 unknown #
face $-1 $242 $243 $24 $-1 $244 reversed single #
loop $-1 $-1 $245 $100 #
plane-surface $-1 -42.002014221625416 0 0 1 0 0 0 0 -1 forward_v I I I I #
coedge $-1 $246 $171 $247 $248 forward $101 $-1 #
coedge $-1 $249 $103 $246 $250 forward $65 $-1 #
coedge $-1 $103 $249 $251 $252 forward $65 $-1 #
coedge $-1 $174 $173 $103 $167 reversed $175 $-1 #
edge $-1 $253 -29.279891630353401 $254 29.279891630353401 $166 $255 forward 7 unknown #
coedge $-1 $105 $104 $256 $257 forward $41 $-1 #
coedge $-1 $258 $259 $104 $170 reversed $243 $-1 #
edge $-1 $177 -42.002014221625416 $260 42.002014221625416 $169 $261 forward 7 unknown #
coedge $-1 $163 $262 $105 $172 reversed $101 $-1 #
edge $-1 $263 -42.002014221625416 $176 42.002014221625416 $171 $264 forward 7 unknown #
coedge $-1 $166 $106 $262 $265 forward $175 $-1 #
coedge $-1 $106 $166 $258 $266 reversed $175 $-1 #
loop $-1 $-1 $173 $242 #
vertex $-1 $107 $267 #
vertex $-1 $107 $268 #
straight-curve $-1 42.002014221625416 0 12.01067999489557 0 1 0 I I #
face $-1 $269 $270 $25 $-1 $271 reversed single #
loop $-1 $-1 $185 $108 #
plane-surface $-1 42.002014221625416 0 0 -1 0 0 0 0 1 forward_v I I I I #
coedge $-1 $272 $273 $183 $274 forward $109 $-1 #
coedge $-1 $275 $111 $182 $274 reversed $69 $-1 #
coedge $-1 $111 $275 $112 $188 reversed $69 $-1 #
coedge $-1 $114 $276 $111 $186 forward $180 $-1 #
edge $-1 $277 -7.5357330935715741 $192 -1.4141607090764134 $185 $278 forward 7 unknown #
coedge $-1 $113 $112 $279 $280 reversed $44 $-1 #
edge $-1 $192 -42.002014221625416 $281 42.002014221625416 $184 $282 forward 7 unknown #
coedge $-1 $283 $284 $113 $190 forward $270 $-1 #
edge $-1 $193 -42.002014221625416 $285 42.002014221625416 $189 $286 forward 7 unknown #
coedge $-1 $276 $114 $284 $287 forward $180 $-1 #
vertex $-1 $115 $288 #
vertex $-1 $287 $289 #
straight-curve $-1 42.002014221625416 -12.134967429461911 -5.8891076104004076 0 -1 0 I I #
face $-1 $-1 $290 $26 $-1 $291 reversed single #
loop $-1 $-1 $122 $116 #
plane-surface $-1 0 0 12.01067999489557 0 0 1 1 0 0 forward_v I I I I #
coedge $-1 $292 $293 $294 $295 reversed $117 $-1 #
coedge $-1 $296 $119 $121 $205 forward $73 $-1 #
coedge $-1 $119 $296 $292 $297 forward $73 $-1 #
coedge $-1 $294 $122 $119 $202 forward $196 $-1 #
edge $-1 $208 -5.5862654920529948 $298 3.9922145255188575 $201 $299 forward 7 unknown #
coedge $-1 $300 $301 $120 $204 forward $290 $-1 #
edge $-1 $302 -22.057448083483607 $207 -15.308200027500254 $203 $303 forward 7 unknown #
edge $-1 $208 -8.3425293098132354 $302 0 $121 $304 forward 7 unknown #
coedge $-1 $122 $294 $300 $305 forward $196 $-1 #
vertex $-1 $204 $306 #
vertex $-1 $123 $307 #
straight-curve $-1 -54.981350757820735 -6.3832909753200635 12.010679994895568 1 0 0 I I #
coedge $-1 $210 $210 $-1 $308 reversed $126 $-1 #
edge $-1 $309 0 $309 6.2831853071796004 $127 $310 forward 7 unknown #
vertex $-1 $130 $311 #
ellipse-curve $-1 -39.550206421047548 -3.6465823988709651 8.6360559669038963 -0.80901700255871778 0 0.5877852410284794 0.5877852410284794 0 0.80901700255871778 1 I I #
coedge $-1 $214 $214 $-1 $312 reversed $133 $-1 #
edge $-1 $313 0 $313 6.2831853071796004 $134 $314 forward 7 unknown #
vertex $-1 $137 $315 #
ellipse-curve $-1 -39.550206421047548 0.45848046580268687 8.6360559669038963 -0.80901700255871778 0 0.5877852410284794 0.5877852410284794 0 0.80901700255871778 1 I I #
face $-1 $-1 $230 $29 $-1 $316 forward single #
loop $-1 $-1 $317 $138 #
plane-surface $-1 42.002014221625416 0 0 -1 0 0 0 0 1 forward_v I I I I #
coedge $-1 $318 $319 $320 $321 reversed $139 $-1 #
coedge $-1 $322 $141 $143 $228 forward $87 $-1 #
coedge $-1 $141 $322 $318 $323 forward $87 $-1 #
coedge $-1 $320 $144 $141 $225 forward $230 $-1 #
edge $-1 $232 -3.9922145255188575 $324 5.5862654920529948 $224 $325 forward 7 unknown #
coedge $-1 $326 $327 $142 $227 forward $219 $-1 #
edge $-1 $328 -56.037791730491641 $231 -49.288543674508283 $226 $329 forward 7 unknown #
edge $-1 $232 75.661499133437587 $328 84.004028443250832 $143 $330 forward 7 unknown #
coedge $-1 $144 $320 $326 $331 forward $230 $-1 #
loop $-1 $-1 $320 $218 #
vertex $-1 $227 $332 #
vertex $-1 $145 $333 #
straight-curve $-1 30.293186704881023 3.1951890422517888 12.010679994895568 -1 0 0 I I #
coedge $-1 $234 $234 $-1 $334 reversed $148 $-1 #
edge $-1 $335 0 $335 6.2831853071796004 $149 $336 forward 7 unknown #
vertex $-1 $152 $337 #
ellipse-curve $-1 39.550206421047555 -3.6465823988709651 8.6360559669038892 0.80901700255871778 0 0.5877852410284794 0.5877852410284794 0 -0.80901700255871778 1 I I #
coedge $-1 $238 $238 $-1 $338 reversed $155 $-1 #
edge $-1 $339 0 $339 6.2831853071796004 $156 $340 forward 7 unknown #
vertex $-1 $159 $341 #
ellipse-curve $-1 39.550206421047555 0.45848046580268687 8.6360559669038892 0.80901700255871778 0 0.5877852410284794 0.5877852410284794 0 -0.80901700255871778 1 I I #
face $-1 $-1 $175 $24 $-1 $342 reversed single #
loop $-1 $-1 $258 $160 #
plane-surface $-1 0 29.279891630353401 0 0 -1 0 0 0 -1 forward_v I I I I #
coedge $-1 $343 $256 $259 $344 forward $161 $-1 #
coedge $-1 $262 $163 $164 $250 reversed $101 $-1 #
coedge $-1 $256 $343 $163 $248 reversed $161 $-1 #
edge $-1 $263 -12.01067999489557 $345 12.01067999489557 $247 $346 forward 7 unknown #
coedge $-1 $165 $164 $343 $347 forward $65 $-1 #
edge $-1 $254 -42.002014221625416 $345 42.002014221625416 $246 $348 forward 7 unknown #
coedge $-1 $259 $258 $165 $252 reversed $243 $-1 #
edge $-1 $349 -42.002014221625416 $253 42.002014221625416 $251 $350 forward 7 unknown #
vertex $-1 $167 $351 #
vertex $-1 $265 $352 #
straight-curve $-1 42.002014221625416 0 -12.01067999489557 0 -1 0 I I #
coedge $-1 $245 $247 $168 $257 reversed $161 $-1 #
edge $-1 $260 -29.279891630353401 $263 29.279891630353401 $256 $353 forward 7 unknown #
coedge $-1 $251 $169 $174 $266 forward $243 $-1 #
coedge $-1 $169 $251 $245 $344 reversed $243 $-1 #
vertex $-1 $170 $354 #
straight-curve $-1 0 29.279891630353401 12.01067999489557 -1 0 0 I I #
coedge $-1 $171 $246 $173 $265 reversed $101 $-1 #
vertex $-1 $257 $355 #
straight-curve $-1 0 -29.279891630353401 12.01067999489557 1 0 0 I I #
edge $-1 $176 -12.01067999489557 $254 12.01067999489557 $173 $356 forward 7 unknown #
edge $-1 $177 -12.01067999489557 $253 12.01067999489557 $174 $357 forward 7 unknown #
point $-1 42.002014221625416 -29.279891630353401 12.01067999489557 #
point $-1 42.002014221625416 29.279891630353401 12.01067999489557 #
face $-1 $-1 $358 $25 $-1 $359 reversed single #
loop $-1 $-1 $189 $179 #
plane-surface $-1 0 -29.279891630353401 0 0 1 0 0 0 1 forward_v I I I I #
coedge $-1 $360 $182 $276 $361 forward $109 $-1 #
coedge $-1 $182 $360 $362 $363 forward $109 $-1 #
edge $-1 $364 -42.002014221625416 $277 42.002014221625416 $182 $365 forward 7 unknown #
coedge $-1 $184 $183 $366 $367 reversed $69 $-1 #
coedge $-1 $185 $191 $272 $361 reversed $180 $-1 #
vertex $-1 $361 $368 #
straight-curve $-1 42.002014221625416 -19.259978087494243 -4.4749469013239942 0 0 1 I I #
coedge $-1 $366 $369 $187 $280 forward $358 $-1 #
edge $-1 $285 -17.144924200891488 $281 -7.1250106580323322 $279 $370 forward 7 unknown #
vertex $-1 $280 $371 #
straight-curve $-1 0 -19.259978087494243 -5.8891076104004076 -1 0 0 I I #
coedge $-1 $372 $189 $369 $373 forward $270 $-1 #
coedge $-1 $189 $372 $191 $287 reversed $270 $-1 #
vertex $-1 $373 $374 #
straight-curve $-1 0 -29.279891630353401 -5.8891076104004076 -1 0 0 I I #
edge $-1 $193 5.8891076104004076 $375 12.01067999489557 $191 $376 forward 7 unknown #
point $-1 42.002014221625416 -19.259978087494243 -5.8891076104004076 #
point $-1 42.002014221625416 -29.279891630353401 -5.8891076104004076 #
loop $-1 $-1 $203 $195 #
plane-surface $-1 -42.002014221625416 0 0 1 0 0 0 0 -1 forward_v I I I I #
coedge $-1 $293 $198 $200 $297 reversed $117 $-1 #
coedge $-1 $198 $292 $377 $378 reversed $117 $-1 #
coedge $-1 $206 $201 $198 $295 forward $196 $-1 #
edge $-1 $298 -17.882952137351047 $379 -12.979336536195319 $294 $380 forward 7 unknown #
coedge $-1 $200 $199 $301 $381 reversed $73 $-1 #
edge $-1 $382 0 $298 8.3425293098132354 $292 $383 forward 7 unknown #
vertex $-1 $202 $384 #
straight-curve $-1 -37.098398620469688 -0.79702548326706868 12.01067999489557 0 1 0 I I #
coedge $-1 $377 $203 $206 $305 reversed $290 $-1 #
coedge $-1 $203 $377 $296 $381 forward $290 $-1 #
vertex $-1 $204 $385 #
straight-curve $-1 -42.002014221625416 -6.3832909753200635 27.318880022395824 0 0 1 I I #
straight-curve $-1 -42.002014221625416 -6.3832909753200635 5.2614319389122173 -0.5877852410284794 0 -0.80901700255871778 I I #
edge $-1 $379 -3.1951890422517888 $207 6.3832909753200635 $300 $386 forward 7 unknown #
point $-1 -42.002014221625416 -6.3832909753200635 12.01067999489557 #
point $-1 -37.098398620469688 -6.3832909753200635 12.010679994895568 #
edge $-1 $387 1 $387 0 $210 $-1 forward 7 unknown #
vertex $-1 $211 $388 #
ellipse-curve $-1 -36.57293891805535 -3.6465823988709651 6.4729445720657948 -0.80901700255871778 0 0.5877852410284794 0.5877852410284794 0 0.80901700255871778 1 I I #
point $-1 -38.962421180019071 -3.6465823988709651 9.4450729694626183 #
edge $-1 $389 1 $389 0 $214 $-1 forward 7 unknown #
vertex $-1 $215 $390 #
ellipse-curve $-1 -36.57293891805535 0.45848046580268687 6.4729445720657948 -0.80901700255871778 0 0.5877852410284794 0.5877852410284794 0 0.80901700255871778 1 I I #
point $-1 -38.962421180019071 0.45848046580268687 9.4450729694626183 #
plane-surface $-1 0 0 12.01067999489557 0 0 1 1 0 0 forward_v I I I I #
coedge $-1 $327 $326 $319 $391 forward $219 $-1 #
coedge $-1 $319 $221 $223 $323 reversed $139 $-1 #
coedge $-1 $221 $318 $317 $391 reversed $139 $-1 #
coedge $-1 $229 $224 $221 $321 forward $230 $-1 #
edge $-1 $324 6.8052119155886643 $392 11.708827516744392 $320 $393 forward 7 unknown #
coedge $-1 $223 $222 $327 $394 reversed $87 $-1 #
edge $-1 $395 -84.004028443250832 $324 -75.661499133437587 $318 $396 forward 7 unknown #
vertex $-1 $225 $397 #
straight-curve $-1 37.098398620469688 -0.79702548326706868 12.010679994895568 0 -1 0 I I #
coedge $-1 $317 $226 $229 $331 reversed $219 $-1 #
coedge $-1 $226 $317 $322 $394 forward $219 $-1 #
vertex $-1 $227 $398 #
straight-curve $-1 42.002014221625416 3.1951890422517888 61.299223669403851 0 0 1 I I #
straight-curve $-1 -7.3743138842540077 3.1951890422517888 73.222119232928264 0.5877852410284794 0 -0.80901700255871778 I I #
edge $-1 $392 -6.3832909753200635 $231 3.1951890422517888 $326 $399 forward 7 unknown #
point $-1 42.002014221625416 3.1951890422517888 12.01067999489557 #
point $-1 37.098398620469688 3.1951890422517888 12.010679994895568 #
edge $-1 $400 1 $400 0 $234 $-1 forward 7 unknown #
vertex $-1 $235 $401 #
ellipse-curve $-1 36.57293891805535 -3.6465823988709651 6.4729445720657806 0.80901700255871778 0 0.5877852410284794 0.5877852410284794 0 -0.80901700255871778 1 I I #
point $-1 40.137991662076033 -3.6465823988709651 7.8270389643451681 #
edge $-1 $402 1 $402 0 $238 $-1 forward 7 unknown #
vertex $-1 $239 $403 #
ellipse-curve $-1 36.57293891805535 0.45848046580268687 6.4729445720657806 0.80901700255871778 0 0.5877852410284794 0.5877852410284794 0 -0.80901700255871778 1 I I #
point $-1 40.137991662076033 0.45848046580268687 7.8270389643451681 #
plane-surface $-1 42.002014221625416 0 0 -1 0 0 0 0 1 forward_v I I I I #
coedge $-1 $247 $245 $249 $347 reversed $161 $-1 #
edge $-1 $260 -12.01067999489557 $349 12.01067999489557 $259 $404 forward 7 unknown #
vertex $-1 $347 $405 #
straight-curve $-1 -42.002014221625416 -29.279891630353401 0 0 0 -1 I I #
edge $-1 $345 -29.279891630353401 $349 29.279891630353401 $343 $406 forward 7 unknown #
straight-curve $-1 0 -29.279891630353401 -12.01067999489557 -1 0 0 I I #
vertex $-1 $252 $407 #
straight-curve $-1 0 29.279891630353401 -12.01067999489557 1 0 0 I I #
point $-1 42.002014221625416 29.279891630353401 -12.01067999489557 #
point $-1 42.002014221625416 -29.279891630353401 -12.01067999489557 #
straight-curve $-1 -42.002014221625416 0 12.01067999489557 0 -1 0 I I #
point $-1 -42.002014221625416 29.279891630353401 12.01067999489557 #
point $-1 -42.002014221625416 -29.279891630353401 12.01067999489557 #
straight-curve $-1 42.002014221625416 -29.279891630353401 0 0 0 -1 I I #
straight-curve $-1 42.002014221625416 29.279891630353401 0 0 0 -1 I I #
loop $-1 $-1 $366 $269 #
plane-surface $-1 -42.002014221625416 0 0 1 0 0 0 0 -1 forward_v I I I I #
coedge $-1 $273 $272 $372 $408 forward $109 $-1 #
edge $-1 $277 19.259978087494243 $375 29.279891630353401 $276 $409 forward 7 unknown #
coedge $-1 $369 $366 $273 $363 reversed $358 $-1 #
edge $-1 $410 -29.279891630353401 $364 -19.259978087494243 $362 $411 forward 7 unknown #
vertex $-1 $367 $412 #
straight-curve $-1 0 -19.259978087494243 -12.01067999489557 1 0 0 I I #
coedge $-1 $362 $279 $275 $367 forward $358 $-1 #
edge $-1 $281 1.4141607090764134 $364 7.5357330935715741 $366 $413 forward 7 unknown #
point $-1 42.002014221625416 -19.259978087494243 -12.010679994895568 #
coedge $-1 $279 $362 $283 $373 reversed $358 $-1 #
straight-curve $-1 -42.002014221625416 -12.134967429461911 -5.8891076104004076 0 1 0 I I #
point $-1 -42.002014221625416 -19.259978087494243 -5.8891076104004076 #
coedge $-1 $284 $283 $360 $408 reversed $270 $-1 #
edge $-1 $285 5.8891076104004076 $410 12.01067999489557 $369 $414 forward 7 unknown #
point $-1 -42.002014221625416 -29.279891630353401 -5.8891076104004076 #
vertex $-1 $287 $415 #
straight-curve $-1 42.002014221625416 -29.279891630353401 0 0 0 -1 I I #
coedge $-1 $301 $300 $293 $378 forward $290 $-1 #
edge $-1 $379 15.308200027500254 $382 22.057448083483607 $377 $416 forward 7 unknown #
vertex $-1 $305 $417 #
straight-curve $-1 -54.981350757820735 3.1951890422517888 12.010679994895568 -1 0 0 I I #
edge $-1 $382 -3.9922145255188575 $302 5.5862654920529948 $301 $418 forward 7 unknown #
vertex $-1 $381 $419 #
straight-curve $-1 -42.002014221625416 3.1951890422517888 5.2614319389122173 0.5877852410284794 0 0.80901700255871778 I I #
point $-1 -37.098398620469688 3.1951890422517888 12.010679994895568 #
point $-1 -42.002014221625416 -6.3832909753200635 5.2614319389122173 #
straight-curve $-1 -42.002014221625416 0 12.01067999489557 0 -1 0 I I #
vertex $-1 $308 $420 #
point $-1 -35.985153677026872 -3.6465823988709651 7.2819615746245123 #
vertex $-1 $312 $421 #
point $-1 -35.985153677026872 0.45848046580268687 7.2819615746245123 #
edge $-1 $392 49.288543674508283 $395 56.037791730491641 $317 $422 forward 7 unknown #
vertex $-1 $331 $423 #
straight-curve $-1 30.293186704881023 -6.3832909753200635 12.010679994895568 1 0 0 I I #
edge $-1 $395 -5.5862654920529948 $328 3.9922145255188575 $327 $424 forward 7 unknown #
vertex $-1 $394 $425 #
straight-curve $-1 -7.3743138842540077 -6.3832909753200635 73.222119232928264 -0.5877852410284794 0 0.80901700255871778 I I #
point $-1 37.098398620469688 -6.3832909753200635 12.010679994895568 #
point $-1 42.002014221625416 3.1951890422517888 5.2614319389122102 #
straight-curve $-1 42.002014221625416 0 12.01067999489557 0 1 0 I I #
vertex $-1 $334 $426 #
point $-1 37.160724159083827 -3.6465823988709651 5.663927569507063 #
vertex $-1 $338 $427 #
point $-1 37.160724159083827 0.45848046580268687 5.663927569507063 #
straight-curve $-1 -42.002014221625416 29.279891630353401 0 0 0 -1 I I #
point $-1 -42.002014221625416 -29.279891630353401 -12.01067999489557 #
straight-curve $-1 -42.002014221625416 0 -12.01067999489557 0 1 0 I I #
point $-1 -42.002014221625416 29.279891630353401 -12.01067999489557 #
edge $-1 $375 -42.002014221625416 $410 42.002014221625416 $372 $428 forward 7 unknown #
straight-curve $-1 42.002014221625416 0 -12.01067999489557 0 -1 0 I I #
vertex $-1 $363 $429 #
straight-curve $-1 -42.002014221625416 0 -12.01067999489557 0 1 0 I I #
point $-1 -42.002014221625416 -19.259978087494243 -12.010679994895568 #
straight-curve $-1 -42.002014221625416 -19.259978087494243 -4.4749469013239942 0 0 -1 I I #
straight-curve $-1 -42.002014221625416 -29.279891630353401 0 0 0 -1 I I #
point $-1 42.002014221625416 -29.279891630353401 -12.01067999489557 #
straight-curve $-1 -42.002014221625416 3.1951890422517888 27.318880022395824 0 0 -1 I I #
point $-1 -42.002014221625416 3.1951890422517888 12.01067999489557 #
straight-curve $-1 -42.002014221625416 -0.79702548326706868 5.2614319389122217 0 -1 0 I I #
point $-1 -42.002014221625416 3.1951890422517888 5.2614319389122173 #
point $-1 -35.763921915496631 -3.6465823988709651 5.8851593310373156 #
point $-1 -35.763921915496631 0.45848046580268687 5.8851593310373156 #
straight-curve $-1 42.002014221625416 -6.3832909753200635 61.299223669403851 0 0 -1 I I #
point $-1 42.002014221625416 -6.3832909753200635 12.01067999489557 #
straight-curve $-1 42.002014221625416 -0.79702548326706868 5.2614319389122102 0 1 0 I I #
point $-1 42.002014221625416 -6.3832909753200635 5.2614319389122102 #
point $-1 35.763921915496631 -3.6465823988709651 5.8851593310373014 #
point $-1 35.763921915496631 0.45848046580268687 5.8851593310373014 #
straight-curve $-1 0 -29.279891630353401 -12.01067999489557 -1 0 0 I I #
point $-1 -42.002014221625416 -29.279891630353401 -12.01067999489557 #
End-of-ACIS-data 