500 0 6 0           
7 Unknown 11 ACIS 5.0 NT 24 Thu Mar 25 18:37:10 1999 
-1 9.9999999999999995e-007 1e-010 
body $-1 $6 $-1 $7 #
body $-1 $8 $-1 $9 #
body $-1 $10 $-1 $11 #
body $-1 $12 $-1 $13 #
body $-1 $14 $-1 $15 #
body $-1 $16 $-1 $17 #
lump $-1 $-1 $18 $0 #
transform $-1 1 0 0 0 1 0 0 0 1 71.9663075655385 39.892136423998089 15.238559928949835 1 rotate no_reflect no_shear #
lump $-1 $-1 $19 $1 #
transform $-1 1 0 0 0 1 0 0 0 1 71.9663075655385 39.892136423998089 15.238559928949835 1 rotate no_reflect no_shear #
lump $-1 $-1 $20 $2 #
transform $-1 1 0 0 0 1 0 0 0 1 71.9663075655385 39.892136423998089 15.238559928949835 1 rotate no_reflect no_shear #
lump $-1 $-1 $21 $3 #
transform $-1 1 0 0 0 1 0 0 0 1 71.9663075655385 39.892136423998089 15.238559928949835 1 rotate no_reflect no_shear #
lump $-1 $-1 $22 $4 #
transform $-1 1 0 0 0 1 0 0 0 1 71.9663075655385 39.892136423998089 15.238559928949835 1 rotate no_reflect no_shear #
lump $-1 $-1 $23 $5 #
transform $-1 1 0 0 0 1 0 0 0 1 71.9663075655385 39.892136423998089 15.238559928949835 1 rotate no_reflect no_shear #
shell $-1 $-1 $-1 $24 $-1 $6 #
shell $-1 $-1 $-1 $25 $-1 $8 #
shell $-1 $-1 $-1 $26 $-1 $10 #
shell $-1 $-1 $-1 $27 $-1 $12 #
shell $-1 $-1 $-1 $28 $-1 $14 #
shell $-1 $-1 $-1 $29 $-1 $16 #
face $-1 $30 $31 $18 $-1 $32 forward single #
face $-1 $33 $34 $19 $-1 $35 reversed single #
face $-1 $36 $37 $20 $-1 $38 reversed single #
face $-1 $39 $40 $21 $-1 $41 forward single #
face $-1 $42 $43 $22 $-1 $44 reversed single #
face $-1 $45 $46 $23 $-1 $47 forward single #
face $-1 $48 $49 $18 $-1 $50 reversed single #
loop $-1 $-1 $51 $24 #
plane-surface $-1 0 0 15.238559928949835 0 0 1 1 0 0 forward_v I I I I #
face $-1 $52 $53 $19 $-1 $54 reversed single #
loop $-1 $-1 $55 $25 #
plane-surface $-1 -70.291865748338765 -25.71956415112729 0 0 -1 0 0 0 -1 forward_v I I I I #
face $-1 $56 $57 $20 $-1 $58 reversed single #
loop $-1 $-1 $59 $26 #
plane-surface $-1 -189.86900466074405 -21.378428468812267 93.238155851893268 0 1 0 -0.81915205242281985 0 0.57357642473473569 forward_v I I I I #
face $-1 $60 $61 $21 $-1 $62 forward single #
loop $-1 $63 $64 $27 #
cone-surface $-1 -69.123329110731476 -13.903476265926074 12.086573554818303 0.81915205242281985 0 -0.57357642473473569 0.57357642473473569 0 0.81915205242281985 1 I I 0 1 1 forward I I I I #
face $-1 $65 $66 $22 $-1 $67 reversed single #
loop $-1 $-1 $68 $28 #
plane-surface $-1 107.3126498711402 -6.4285240630398803 211.14085294709884 0 -1 0 -0.81915205242281985 0 -0.57357642473473569 forward_v I I I I #
face $-1 $69 $70 $23 $-1 $71 forward single #
loop $-1 $72 $73 $29 #
cone-surface $-1 69.123329110731461 -13.903476265926074 12.086573554818289 -0.81915205242281985 0 -0.57357642473473569 0.57357642473473569 0 -0.81915205242281985 1 I I 0 1 1 forward I I I I #
face $-1 $74 $75 $18 $-1 $76 reversed single #
loop $-1 $-1 $77 $30 #
plane-surface $-1 0 0 -15.238559928949835 0 0 1 1 0 0 forward_v I I I I #
coedge $-1 $78 $79 $80 $81 forward $31 $-1 #
face $-1 $82 $83 $19 $-1 $84 forward single #
loop $-1 $-1 $85 $33 #
plane-surface $-1 -68.617423931139029 -32.805850287562691 0 -1 0 0 0 0 1 forward_v I I I I #
coedge $-1 $86 $87 $88 $89 forward $34 $-1 #
face $-1 $90 $91 $20 $-1 $92 reversed single #
loop $-1 $-1 $93 $36 #
plane-surface $-1 -71.966307565538514 -13.903476265926074 10.681801062289395 -0.81915205242281985 0 0.57357642473473569 0.57357642473473569 0 0.81915205242281985 forward_v I I I I #
coedge $-1 $94 $95 $96 $97 reversed $37 $-1 #
face $-1 $-1 $98 $21 $-1 $99 forward single #
loop $-1 $100 $101 $39 #
cone-surface $-1 -67.466113035682341 -13.903476265926074 10.926178401649628 0.81915205242281985 0 -0.57357642473473569 0.28678821236736785 0 0.40957602621140993 1 I I -0.70710678118654746 0.70710678118654746 0.5 forward I I I I #
loop $-1 $-1 $102 $27 #
coedge $-1 $64 $64 $103 $104 reversed $40 $-1 #
face $-1 $105 $106 $22 $-1 $107 reversed single #
loop $-1 $-1 $108 $42 #
plane-surface $-1 -10.590047224065344 -13.903476265926074 128.58449815749498 0.81915205242281985 0 0.57357642473473569 0.57357642473473569 0 -0.81915205242281985 forward_v I I I I #
coedge $-1 $109 $110 $111 $112 reversed $43 $-1 #
face $-1 $-1 $113 $23 $-1 $114 forward single #
loop $-1 $115 $116 $45 #
cone-surface $-1 67.466113035682326 -13.903476265926074 10.926178401649613 -0.81915205242281985 0 -0.57357642473473569 0.28678821236736785 0 -0.40957602621140993 1 I I -0.70710678118654746 0.70710678118654746 0.5 forward I I I I #
loop $-1 $-1 $117 $29 #
coedge $-1 $73 $73 $118 $119 reversed $46 $-1 #
face $-1 $120 $121 $18 $-1 $122 reversed single #
loop $-1 $-1 $123 $48 #
plane-surface $-1 0 -39.892136423998089 0 0 1 0 0 0 1 forward_v I I I I #
coedge $-1 $124 $125 $126 $127 forward $49 $-1 #
coedge $-1 $128 $51 $129 $130 forward $31 $-1 #
coedge $-1 $51 $128 $131 $132 forward $31 $-1 #
coedge $-1 $133 $134 $51 $81 reversed $135 $-1 #
edge $-1 $136 -39.892136423998089 $137 39.892136423998089 $80 $138 forward 7 unknown #
face $-1 $139 $140 $19 $-1 $141 reversed single #
loop $-1 $-1 $142 $52 #
plane-surface $-1 0 0 15.238559928949835 0 0 1 1 0 0 forward_v I I I I #
coedge $-1 $143 $144 $145 $146 reversed $53 $-1 #
coedge $-1 $147 $55 $148 $149 reversed $34 $-1 #
coedge $-1 $55 $147 $150 $151 reversed $34 $-1 #
coedge $-1 $144 $143 $55 $89 reversed $53 $-1 #
edge $-1 $152 -15.238559928949835 $153 15.238559928949835 $88 $154 forward 7 unknown #
face $-1 $155 $156 $20 $-1 $157 reversed single #
loop $-1 $-1 $158 $56 #
plane-surface $-1 -189.86900466074405 -6.4285240630398803 93.238155851893268 0 -1 0 0.81915205242281985 0 -0.57357642473473569 forward_v I I I I #
coedge $-1 $159 $160 $161 $162 reversed $57 $-1 #
coedge $-1 $95 $59 $163 $164 reversed $37 $-1 #
coedge $-1 $59 $94 $159 $165 reversed $37 $-1 #
coedge $-1 $161 $166 $59 $97 forward $167 $-1 #
edge $-1 $168 22.968194764833527 $169 26.158871576772114 $96 $170 forward 7 unknown #
loop $-1 $-1 $103 $60 #
plane-surface $-1 -71.966307565538514 -13.903476265926074 10.681801062289395 -0.81915205242281985 0 0.57357642473473569 0.57357642473473569 0 0.81915205242281985 forward_v I I I I #
loop $-1 $-1 $171 $39 #
coedge $-1 $101 $101 $102 $172 reversed $61 $-1 #
coedge $-1 $102 $102 $101 $172 forward $63 $-1 #
coedge $-1 $103 $103 $64 $104 forward $98 $-1 #
edge $-1 $173 0 $173 6.2831853071796004 $103 $174 forward 7 unknown #
face $-1 $175 $176 $22 $-1 $177 forward single #
loop $-1 $-1 $178 $65 #
plane-surface $-1 107.3126498711402 -21.378428468812267 211.14085294709884 0 1 0 0.81915205242281985 0 0.57357642473473569 forward_v I I I I #
coedge $-1 $179 $180 $181 $182 reversed $66 $-1 #
coedge $-1 $110 $68 $183 $184 reversed $43 $-1 #
coedge $-1 $68 $109 $179 $185 reversed $43 $-1 #
coedge $-1 $181 $186 $68 $112 forward $176 $-1 #
edge $-1 $187 -18.309982629968403 $188 -15.119305818029844 $111 $189 forward 7 unknown #
loop $-1 $-1 $118 $69 #
plane-surface $-1 -10.590047224065344 -13.903476265926074 128.58449815749498 0.81915205242281985 0 0.57357642473473569 0.57357642473473569 0 -0.81915205242281985 forward_v I I I I #
loop $-1 $-1 $190 $45 #
coedge $-1 $116 $116 $117 $191 reversed $70 $-1 #
coedge $-1 $117 $117 $116 $191 forward $72 $-1 #
coedge $-1 $118 $118 $73 $119 forward $113 $-1 #
edge $-1 $192 0 $192 6.2831853071796004 $118 $193 forward 7 unknown #
face $-1 $194 $195 $18 $-1 $196 reversed single #
loop $-1 $-1 $197 $74 #
plane-surface $-1 -71.9663075655385 0 0 1 0 0 0 0 -1 forward_v I I I I #
coedge $-1 $198 $131 $199 $200 forward $75 $-1 #
coedge $-1 $201 $77 $198 $202 forward $49 $-1 #
coedge $-1 $77 $201 $203 $204 forward $49 $-1 #
coedge $-1 $134 $133 $77 $127 reversed $135 $-1 #
edge $-1 $205 -39.892136423998089 $206 39.892136423998089 $126 $207 forward 7 unknown #
coedge $-1 $79 $78 $208 $209 forward $31 $-1 #
coedge $-1 $210 $211 $78 $130 reversed $195 $-1 #
edge $-1 $137 -71.9663075655385 $212 71.9663075655385 $129 $213 forward 7 unknown #
coedge $-1 $123 $214 $79 $132 reversed $75 $-1 #
edge $-1 $215 -71.9663075655385 $136 71.9663075655385 $131 $216 forward 7 unknown #
coedge $-1 $126 $80 $214 $217 forward $135 $-1 #
coedge $-1 $80 $126 $210 $218 reversed $135 $-1 #
loop $-1 $-1 $133 $194 #
vertex $-1 $81 $219 #
vertex $-1 $81 $220 #
straight-curve $-1 71.9663075655385 0 15.238559928949835 0 1 0 I I #
face $-1 $221 $222 $19 $-1 $223 reversed single #
loop $-1 $-1 $224 $82 #
plane-surface $-1 -71.9663075655385 0 0 1 0 0 0 0 -1 forward_v I I I I #
coedge $-1 $150 $225 $144 $226 forward $83 $-1 #
coedge $-1 $88 $85 $227 $228 reversed $53 $-1 #
coedge $-1 $85 $88 $142 $226 reversed $53 $-1 #
coedge $-1 $229 $230 $85 $146 forward $231 $-1 #
edge $-1 $232 -15.238559928949835 $233 15.238559928949835 $145 $234 forward 7 unknown #
coedge $-1 $87 $86 $224 $235 reversed $34 $-1 #
coedge $-1 $227 $236 $86 $149 forward $222 $-1 #
edge $-1 $237 -36.820374691369118 $153 -33.471491056969647 $148 $238 forward 7 unknown #
coedge $-1 $239 $142 $87 $151 forward $83 $-1 #
edge $-1 $152 33.471491056969647 $240 36.820374691369118 $150 $241 forward 7 unknown #
vertex $-1 $151 $242 #
vertex $-1 $149 $243 #
straight-curve $-1 -68.617423931139029 -25.71956415112729 0 0 0 -1 I I #
face $-1 $-1 $167 $20 $-1 $244 forward single #
loop $-1 $-1 $245 $90 #
plane-surface $-1 -71.9663075655385 0 0 1 0 0 0 0 -1 forward_v I I I I #
coedge $-1 $246 $247 $248 $249 reversed $91 $-1 #
coedge $-1 $250 $93 $95 $165 forward $57 $-1 #
coedge $-1 $93 $250 $246 $251 forward $57 $-1 #
coedge $-1 $248 $96 $93 $162 forward $167 $-1 #
edge $-1 $169 -14.42669033584923 $252 0.52321406992315644 $161 $253 forward 7 unknown #
coedge $-1 $254 $255 $94 $164 forward $156 $-1 #
edge $-1 $256 -35.937276863657218 $168 -31.380517996996801 $163 $257 forward 7 unknown #
edge $-1 $169 -5.5627753762965497 $256 -2.4157181099100639e-014 $95 $258 forward 7 unknown #
coedge $-1 $96 $248 $254 $259 forward $167 $-1 #
loop $-1 $-1 $248 $155 #
vertex $-1 $164 $260 #
vertex $-1 $97 $261 #
straight-curve $-1 -94.934502330372027 -21.378428468812267 15.238559928949833 1 0 0 I I #
coedge $-1 $171 $171 $-1 $262 reversed $100 $-1 #
edge $-1 $263 0 $263 6.2831853071796004 $101 $264 forward 7 unknown #
vertex $-1 $104 $265 #
ellipse-curve $-1 -70.370969159569214 -13.903476265926074 12.960180495619621 -0.81915205242281985 0 0.57357642473473569 0.57357642473473569 0 0.81915205242281985 1 I I #
face $-1 $-1 $266 $22 $-1 $267 reversed single #
loop $-1 $-1 $111 $105 #
plane-surface $-1 0 0 15.238559928949835 0 0 1 1 0 0 forward_v I I I I #
coedge $-1 $268 $269 $270 $271 reversed $106 $-1 #
coedge $-1 $272 $108 $110 $185 forward $66 $-1 #
coedge $-1 $108 $272 $268 $273 forward $66 $-1 #
coedge $-1 $270 $111 $108 $182 forward $176 $-1 #
edge $-1 $188 -0.52321406992315644 $274 14.42669033584923 $181 $275 forward 7 unknown #
coedge $-1 $276 $277 $109 $184 forward $266 $-1 #
edge $-1 $278 -94.888625411259952 $187 -90.331866544599578 $183 $279 forward 7 unknown #
edge $-1 $188 138.36983975478051 $278 143.932615131077 $110 $280 forward 7 unknown #
coedge $-1 $111 $270 $276 $281 forward $176 $-1 #
vertex $-1 $112 $282 #
vertex $-1 $112 $283 #
straight-curve $-1 53.656324935570098 -6.4285240630398803 15.23855992894984 -1 0 0 I I #
coedge $-1 $190 $190 $-1 $284 reversed $115 $-1 #
edge $-1 $285 0 $285 6.2831853071796004 $116 $286 forward 7 unknown #
vertex $-1 $119 $287 #
ellipse-curve $-1 70.370969159569228 -13.903476265926074 12.960180495619628 0.81915205242281985 0 0.57357642473473569 0.57357642473473569 0 -0.81915205242281985 1 I I #
face $-1 $-1 $135 $18 $-1 $288 reversed single #
loop $-1 $-1 $210 $120 #
plane-surface $-1 0 39.892136423998089 0 0 -1 0 0 0 -1 forward_v I I I I #
coedge $-1 $289 $208 $211 $290 forward $121 $-1 #
coedge $-1 $214 $123 $124 $202 reversed $75 $-1 #
coedge $-1 $208 $289 $123 $200 reversed $121 $-1 #
edge $-1 $215 -15.238559928949835 $291 15.238559928949835 $199 $292 forward 7 unknown #
coedge $-1 $125 $124 $289 $293 forward $49 $-1 #
edge $-1 $206 -71.9663075655385 $291 71.9663075655385 $198 $294 forward 7 unknown #
coedge $-1 $211 $210 $125 $204 reversed $195 $-1 #
edge $-1 $295 -71.9663075655385 $205 71.9663075655385 $203 $296 forward 7 unknown #
vertex $-1 $127 $297 #
vertex $-1 $217 $298 #
straight-curve $-1 71.9663075655385 0 -15.238559928949835 0 -1 0 I I #
coedge $-1 $197 $199 $128 $209 reversed $121 $-1 #
edge $-1 $212 -39.892136423998089 $215 39.892136423998089 $208 $299 forward 7 unknown #
coedge $-1 $203 $129 $134 $218 forward $195 $-1 #
coedge $-1 $129 $203 $197 $290 reversed $195 $-1 #
vertex $-1 $130 $300 #
straight-curve $-1 0 39.892136423998089 15.238559928949835 -1 0 0 I I #
coedge $-1 $131 $198 $133 $217 reversed $75 $-1 #
vertex $-1 $209 $301 #
straight-curve $-1 0 -39.892136423998089 15.238559928949835 1 0 0 I I #
edge $-1 $136 -15.238559928949835 $206 15.238559928949835 $133 $302 forward 7 unknown #
edge $-1 $137 -15.238559928949835 $205 15.238559928949835 $134 $303 forward 7 unknown #
point $-1 71.9663075655385 -39.892136423998089 15.238559928949835 #
point $-1 71.9663075655385 39.892136423998089 15.238559928949835 #
face $-1 $-1 $231 $19 $-1 $304 reversed single #
loop $-1 $-1 $227 $139 #
plane-surface $-1 0 0 -15.238559928949835 0 0 1 1 0 0 forward_v I I I I #
coedge $-1 $305 $306 $147 $235 forward $140 $-1 #
coedge $-1 $142 $239 $229 $307 forward $83 $-1 #
edge $-1 $233 -23.48921128021675 $152 -9.3166390073459446 $142 $308 forward 7 unknown #
coedge $-1 $309 $148 $143 $228 forward $222 $-1 #
edge $-1 $153 9.3166390073459446 $232 23.48921128021675 $227 $310 forward 7 unknown #
coedge $-1 $311 $145 $225 $307 reversed $231 $-1 #
coedge $-1 $145 $311 $309 $312 reversed $231 $-1 #
loop $-1 $-1 $145 $221 #
vertex $-1 $312 $313 #
vertex $-1 $146 $314 #
straight-curve $-1 -68.617423931139029 -39.892136423998089 0 0 0 1 I I #
edge $-1 $240 -15.238559928949835 $237 15.238559928949835 $224 $315 forward 7 unknown #
coedge $-1 $148 $309 $305 $316 forward $222 $-1 #
vertex $-1 $149 $317 #
straight-curve $-1 -35.145932874169382 -25.71956415112729 -15.238559928949835 1 0 0 I I #
coedge $-1 $225 $150 $306 $318 forward $83 $-1 #
vertex $-1 $318 $319 #
straight-curve $-1 -35.145932874169382 -25.71956415112729 15.238559928949835 -1 0 0 I I #
point $-1 -68.617423931139029 -25.71956415112729 15.238559928949835 #
point $-1 -68.617423931139029 -25.71956415112729 -15.238559928949835 #
plane-surface $-1 0 0 15.238559928949835 0 0 1 1 0 0 forward_v I I I I #
coedge $-1 $255 $254 $247 $320 forward $156 $-1 #
coedge $-1 $247 $158 $160 $251 reversed $91 $-1 #
coedge $-1 $158 $246 $245 $320 reversed $91 $-1 #
coedge $-1 $166 $161 $158 $249 forward $167 $-1 #
edge $-1 $252 -26.158871576772114 $321 -22.968194764833527 $248 $322 forward 7 unknown #
coedge $-1 $160 $159 $255 $323 reversed $57 $-1 #
edge $-1 $324 2.4157181099100639e-014 $252 5.5627753762965497 $246 $325 forward 7 unknown #
vertex $-1 $162 $326 #
straight-curve $-1 -68.775630753599927 -6.9517381329630368 15.238559928949833 0 1 0 I I #
coedge $-1 $245 $163 $166 $259 reversed $156 $-1 #
coedge $-1 $163 $245 $250 $323 forward $156 $-1 #
vertex $-1 $164 $327 #
straight-curve $-1 -71.9663075655385 -21.378428468812267 46.619077925946634 0 0 1 I I #
straight-curve $-1 -71.966307565538514 -21.378428468812267 10.681801062289395 -0.57357642473473569 0 -0.81915205242281985 I I #
edge $-1 $321 6.4285240630398803 $168 21.378428468812267 $254 $328 forward 7 unknown #
point $-1 -71.9663075655385 -21.378428468812267 15.238559928949835 #
point $-1 -68.775630753599913 -21.378428468812267 15.238559928949835 #
edge $-1 $329 1 $329 0 $171 $-1 forward 7 unknown #
vertex $-1 $172 $330 #
ellipse-curve $-1 -67.875689061893752 -13.903476265926074 11.212966614016995 -0.81915205242281985 0 0.57357642473473569 0.57357642473473569 0 0.81915205242281985 1 I I #
point $-1 -69.79739273483446 -13.903476265926074 13.779332548042429 #
loop $-1 $-1 $183 $175 #
plane-surface $-1 71.9663075655385 0 0 -1 0 0 0 0 1 forward_v I I I I #
coedge $-1 $269 $178 $180 $273 reversed $106 $-1 #
coedge $-1 $178 $268 $331 $332 reversed $106 $-1 #
coedge $-1 $186 $181 $178 $271 forward $176 $-1 #
edge $-1 $274 15.119305818029844 $333 18.309982629968403 $270 $334 forward 7 unknown #
coedge $-1 $180 $179 $277 $335 reversed $66 $-1 #
edge $-1 $336 -143.932615131077 $274 -138.36983975478051 $268 $337 forward 7 unknown #
vertex $-1 $182 $338 #
straight-curve $-1 68.775630753599955 -6.9517381329630368 15.23855992894984 0 -1 0 I I #
coedge $-1 $331 $183 $186 $281 reversed $266 $-1 #
coedge $-1 $183 $331 $272 $335 forward $266 $-1 #
vertex $-1 $184 $339 #
straight-curve $-1 71.9663075655385 -6.4285240630398803 105.57042647354942 0 0 1 I I #
straight-curve $-1 -10.590047224065344 -6.4285240630398803 128.58449815749498 0.57357642473473569 0 -0.81915205242281985 I I #
edge $-1 $333 -21.378428468812267 $187 -6.4285240630398803 $276 $340 forward 7 unknown #
point $-1 71.9663075655385 -6.4285240630398803 15.238559928949835 #
point $-1 68.775630753599941 -6.4285240630398803 15.238559928949854 #
edge $-1 $341 1 $341 0 $190 $-1 forward 7 unknown #
vertex $-1 $191 $342 #
ellipse-curve $-1 67.875689061893738 -13.903476265926074 11.212966614016981 0.81915205242281985 0 0.57357642473473569 0.57357642473473569 0 -0.81915205242281985 1 I I #
point $-1 70.94454558430391 -13.903476265926074 12.141028443196777 #
plane-surface $-1 71.9663075655385 0 0 -1 0 0 0 0 1 forward_v I I I I #
coedge $-1 $199 $197 $201 $293 reversed $121 $-1 #
edge $-1 $212 -15.238559928949835 $295 15.238559928949835 $211 $343 forward 7 unknown #
vertex $-1 $293 $344 #
straight-curve $-1 -71.9663075655385 -39.892136423998089 0 0 0 -1 I I #
edge $-1 $291 -39.892136423998089 $295 39.892136423998089 $289 $345 forward 7 unknown #
straight-curve $-1 0 -39.892136423998089 -15.238559928949835 -1 0 0 I I #
vertex $-1 $204 $346 #
straight-curve $-1 0 39.892136423998089 -15.238559928949835 1 0 0 I I #
point $-1 71.9663075655385 39.892136423998089 -15.238559928949835 #
point $-1 71.9663075655385 -39.892136423998089 -15.238559928949835 #
straight-curve $-1 -71.9663075655385 0 15.238559928949835 0 -1 0 I I #
point $-1 -71.9663075655385 39.892136423998089 15.238559928949835 #
point $-1 -71.9663075655385 -39.892136423998089 15.238559928949835 #
straight-curve $-1 71.9663075655385 -39.892136423998089 0 0 0 -1 I I #
straight-curve $-1 71.9663075655385 39.892136423998089 0 0 0 -1 I I #
plane-surface $-1 0 -39.892136423998089 0 0 1 0 0 0 1 forward_v I I I I #
coedge $-1 $347 $224 $236 $316 reversed $140 $-1 #
coedge $-1 $224 $347 $239 $318 reversed $140 $-1 #
edge $-1 $348 -71.9663075655385 $233 -68.617423931139029 $229 $349 forward 7 unknown #
straight-curve $-1 -68.617423931139029 -16.402925143781346 15.238559928949835 0 1 0 I I #
coedge $-1 $236 $227 $230 $312 forward $222 $-1 #
straight-curve $-1 -68.617423931139029 -16.402925143781346 -15.238559928949835 0 -1 0 I I #
coedge $-1 $230 $229 $347 $350 forward $231 $-1 #
edge $-1 $232 68.617423931139029 $351 71.9663075655385 $230 $352 forward 7 unknown #
point $-1 -68.617423931139029 -39.892136423998096 -15.238559928949835 #
point $-1 -68.617423931139029 -39.892136423998096 15.238559928949835 #
straight-curve $-1 -71.9663075655385 -25.71956415112729 0 0 0 -1 I I #
edge $-1 $351 -39.892136423998089 $237 -25.71956415112729 $305 $353 forward 7 unknown #
point $-1 -71.9663075655385 -25.71956415112729 -15.238559928949835 #
edge $-1 $240 25.71956415112729 $348 39.892136423998089 $306 $354 forward 7 unknown #
point $-1 -71.9663075655385 -25.71956415112729 15.238559928949835 #
edge $-1 $321 31.380517996996801 $324 35.937276863657218 $245 $355 forward 7 unknown #
vertex $-1 $259 $356 #
straight-curve $-1 -94.934502330372027 -6.4285240630398803 15.238559928949833 -1 0 0 I I #
edge $-1 $324 -0.52321406992315644 $256 14.42669033584923 $255 $357 forward 7 unknown #
vertex $-1 $323 $358 #
straight-curve $-1 -71.966307565538514 -6.4285240630398803 10.681801062289395 0.57357642473473569 0 0.81915205242281985 I I #
point $-1 -68.775630753599913 -6.4285240630398803 15.238559928949835 #
point $-1 -71.9663075655385 -21.378428468812267 10.681801062289415 #
straight-curve $-1 -71.9663075655385 0 15.238559928949835 0 -1 0 I I #
vertex $-1 $262 $359 #
point $-1 -67.302112637159013 -13.903476265926074 12.032118666439816 #
coedge $-1 $277 $276 $269 $332 forward $266 $-1 #
edge $-1 $333 90.331866544599578 $336 94.888625411259952 $331 $360 forward 7 unknown #
vertex $-1 $281 $361 #
straight-curve $-1 53.656324935570098 -21.378428468812267 15.23855992894984 1 0 0 I I #
edge $-1 $336 -14.42669033584923 $278 0.52321406992315644 $277 $362 forward 7 unknown #
vertex $-1 $335 $363 #
straight-curve $-1 -10.590047224065344 -21.378428468812267 128.58449815749498 -0.57357642473473569 0 0.81915205242281985 I I #
point $-1 68.775630753599941 -21.378428468812267 15.238559928949854 #
point $-1 71.9663075655385 -6.4285240630398803 10.681801062289466 #
straight-curve $-1 71.9663075655385 0 15.238559928949835 0 1 0 I I #
vertex $-1 $284 $364 #
point $-1 68.449265486628477 -13.903476265926074 10.393814561594162 #
straight-curve $-1 -71.9663075655385 39.892136423998089 0 0 0 -1 I I #
point $-1 -71.9663075655385 -39.892136423998089 -15.238559928949835 #
straight-curve $-1 -71.9663075655385 0 -15.238559928949835 0 1 0 I I #
point $-1 -71.9663075655385 39.892136423998089 -15.238559928949835 #
coedge $-1 $306 $305 $311 $350 reversed $140 $-1 #
vertex $-1 $318 $365 #
straight-curve $-1 0 -39.892136423998089 15.238559928949835 1 0 0 I I #
edge $-1 $348 -15.238559928949835 $351 15.238559928949835 $347 $366 forward 7 unknown #
vertex $-1 $316 $367 #
straight-curve $-1 0 -39.892136423998089 -15.238559928949835 -1 0 0 I I #
straight-curve $-1 -71.9663075655385 0 -15.238559928949835 0 1 0 I I #
straight-curve $-1 -71.9663075655385 0 15.238559928949835 0 -1 0 I I #
straight-curve $-1 -71.9663075655385 -6.4285240630398803 46.619077925946634 0 0 -1 I I #
point $-1 -71.9663075655385 -6.4285240630398803 15.238559928949835 #
straight-curve $-1 -71.9663075655385 -6.9517381329630368 10.681801062289413 0 -1 0 I I #
point $-1 -71.9663075655385 -6.4285240630398803 10.681801062289415 #
point $-1 -67.056537009470929 -13.903476265926074 10.63939018928226 #
straight-curve $-1 71.9663075655385 -21.378428468812267 105.57042647354942 0 0 -1 I I #
point $-1 71.9663075655385 -21.378428468812267 15.238559928949835 #
straight-curve $-1 71.9663075655385 -6.9517381329630368 10.681801062289473 0 1 0 I I #
point $-1 71.9663075655385 -21.378428468812267 10.681801062289466 #
point $-1 67.056537009470915 -13.903476265926074 10.639390189282246 #
point $-1 -71.9663075655385 -39.892136423998089 15.238559928949835 #
straight-curve $-1 -71.9663075655385 -39.892136423998089 0 0 0 -1 I I #
point $-1 -71.9663075655385 -39.892136423998089 -15.238559928949835 #
End-of-ACIS-data 