500 0 8 0           
7 Unknown 11 ACIS 5.0 NT 24 Fri Mar 26 02:32:04 1999 
-1 9.9999999999999995e-007 1e-010 
body $-1 $8 $-1 $9 #
body $-1 $10 $-1 $11 #
body $-1 $12 $-1 $13 #
body $-1 $14 $-1 $15 #
body $-1 $16 $-1 $17 #
body $-1 $18 $-1 $19 #
body $-1 $20 $-1 $21 #
body $-1 $22 $-1 $23 #
lump $-1 $-1 $24 $0 #
transform $-1 1 0 0 0 1 0 0 0 1 77.200842310861532 49.223635910991035 23.622598184158882 1 rotate no_reflect no_shear #
lump $-1 $-1 $25 $1 #
transform $-1 1 0 0 0 1 0 0 0 1 77.200842310861532 49.223635910991035 23.622598184158882 1 rotate no_reflect no_shear #
lump $-1 $-1 $26 $2 #
transform $-1 1 0 0 0 1 0 0 0 1 77.200842310861532 49.223635910991035 23.622598184158882 1 rotate no_reflect no_shear #
lump $-1 $-1 $27 $3 #
transform $-1 1 0 0 0 1 0 0 0 1 77.200842310861532 49.223635910991035 23.622598184158882 1 rotate no_reflect no_shear #
lump $-1 $-1 $28 $4 #
transform $-1 1 0 0 0 1 0 0 0 1 77.200842310861532 49.223635910991035 23.622598184158882 1 rotate no_reflect no_shear #
lump $-1 $-1 $29 $5 #
transform $-1 1 0 0 0 1 0 0 0 1 77.200842310861532 49.223635910991035 23.622598184158882 1 rotate no_reflect no_shear #
lump $-1 $-1 $30 $6 #
transform $-1 1 0 0 0 1 0 0 0 1 77.200842310861532 49.223635910991035 23.622598184158882 1 rotate no_reflect no_shear #
lump $-1 $-1 $31 $7 #
transform $-1 1 0 0 0 1 0 0 0 1 77.200842310861532 49.223635910991035 23.622598184158882 1 rotate no_reflect no_shear #
shell $-1 $-1 $-1 $32 $-1 $8 #
shell $-1 $-1 $-1 $33 $-1 $10 #
shell $-1 $-1 $-1 $34 $-1 $12 #
shell $-1 $-1 $-1 $35 $-1 $14 #
shell $-1 $-1 $-1 $36 $-1 $16 #
shell $-1 $-1 $-1 $37 $-1 $18 #
shell $-1 $-1 $-1 $38 $-1 $20 #
shell $-1 $-1 $-1 $39 $-1 $22 #
face $-1 $40 $41 $24 $-1 $42 forward single #
face $-1 $43 $44 $25 $-1 $45 reversed single #
face $-1 $46 $47 $26 $-1 $48 forward single #
face $-1 $49 $50 $27 $-1 $51 forward single #
face $-1 $52 $53 $28 $-1 $54 forward single #
face $-1 $55 $56 $29 $-1 $57 reversed single #
face $-1 $58 $59 $30 $-1 $60 forward single #
face $-1 $61 $62 $31 $-1 $63 forward single #
face $-1 $64 $65 $24 $-1 $66 reversed single #
loop $-1 $-1 $67 $32 #
plane-surface $-1 0 0 23.622598184158882 0 0 1 1 0 0 forward_v I I I I #
face $-1 $68 $69 $25 $-1 $70 reversed single #
loop $-1 $-1 $71 $33 #
plane-surface $-1 -43.927771857433115 -148.47112692041486 125.50561820099892 -1 0 0 0 -0.64278761758704617 0.76604443648966558 forward_v I I I I #
face $-1 $72 $73 $26 $-1 $74 forward single #
loop $-1 $75 $76 $34 #
cone-surface $-1 -59.597985494422538 -37.670638331653905 13.299600934303202 0 0.64278761758704617 -0.76604443648966558 1.5 0 0 1 I I 0 1 1.5 forward I I I I #
face $-1 $77 $78 $27 $-1 $79 forward single #
loop $-1 $80 $81 $35 #
cone-surface $-1 -53.721655380551503 -37.670638331653905 13.299600934303202 0 0.64278761758704617 -0.76604443648966558 1.5 0 0 1 I I 0 1 1.5 forward I I I I #
face $-1 $82 $83 $28 $-1 $84 forward single #
loop $-1 $85 $86 $36 #
cone-surface $-1 -47.845325266680469 -37.670638331653905 13.299600934303202 0 0.64278761758704617 -0.76604443648966558 1.5 0 0 1 I I 0 1 1.5 forward I I I I #
face $-1 $87 $88 $29 $-1 $89 reversed single #
loop $-1 $-1 $90 $37 #
plane-surface $-1 5.9897178244224634 76.221157922184275 190.07348870612608 1 0 0 0 -0.6560590369687036 -0.75470957328743171 forward_v I I I I #
face $-1 $91 $92 $30 $-1 $93 forward single #
loop $-1 $94 $95 $38 #
cone-surface $-1 11.105856812088703 40.002300133532671 15.385571400955728 0 -0.6560590369687036 -0.75470957328743171 1.5 0 0 1 I I 0 1 1.5 forward I I I I #
face $-1 $96 $97 $31 $-1 $98 forward single #
loop $-1 $99 $100 $39 #
cone-surface $-1 18.780065293588081 40.002300133532671 15.385571400955728 0 -0.6560590369687036 -0.75470957328743171 1.5 0 0 1 I I 0 1 1.5 forward I I I I #
face $-1 $101 $102 $24 $-1 $103 reversed single #
loop $-1 $-1 $104 $40 #
plane-surface $-1 0 0 -23.622598184158882 0 0 1 1 0 0 forward_v I I I I #
coedge $-1 $105 $106 $107 $108 forward $41 $-1 #
face $-1 $109 $110 $25 $-1 $111 reversed single #
loop $-1 $-1 $112 $43 #
plane-surface $-1 -53.721655380551503 -49.223635910991035 7.2270667118960148 0 -0.64278761758704617 0.76604443648966558 1 0 0 forward_v I I I I #
coedge $-1 $113 $114 $115 $116 reversed $44 $-1 #
face $-1 $-1 $117 $26 $-1 $118 forward single #
loop $-1 $119 $120 $46 #
cone-surface $-1 -59.597985494422538 -35.405266601780532 10.599836093211714 0 0.64278761758704617 -0.76604443648966558 0.75 0 0 1 I I -0.70710678118654757 0.70710678118654757 0.75 forward I I I I #
loop $-1 $-1 $121 $34 #
coedge $-1 $76 $76 $122 $123 reversed $47 $-1 #
face $-1 $-1 $124 $27 $-1 $125 forward single #
loop $-1 $126 $127 $49 #
cone-surface $-1 -53.721655380551503 -35.405266601780532 10.599836093211714 0 0.64278761758704617 -0.76604443648966558 0.75 0 0 1 I I -0.70710678118654757 0.70710678118654757 0.75 forward I I I I #
loop $-1 $-1 $128 $35 #
coedge $-1 $81 $81 $129 $130 reversed $50 $-1 #
face $-1 $-1 $131 $28 $-1 $132 forward single #
loop $-1 $133 $134 $52 #
cone-surface $-1 -47.845325266680469 -35.405266601780532 10.599836093211714 0 0.64278761758704617 -0.76604443648966558 0.75 0 0 1 I I -0.70710678118654757 0.70710678118654757 0.75 forward I I I I #
loop $-1 $-1 $135 $36 #
coedge $-1 $86 $86 $136 $137 reversed $53 $-1 #
face $-1 $138 $139 $29 $-1 $140 reversed single #
loop $-1 $-1 $141 $55 #
plane-surface $-1 14.942961052838399 -25.075462597088844 73.545059190404871 0 0.6560590369687036 0.75470957328743171 1 0 0 forward_v I I I I #
coedge $-1 $142 $143 $144 $145 reversed $56 $-1 #
face $-1 $-1 $146 $30 $-1 $147 forward single #
loop $-1 $148 $149 $58 #
cone-surface $-1 11.105856812088703 38.723858969296529 13.914893106526911 0 -0.6560590369687036 -0.75470957328743171 0.75 0 0 1 I I -0.70710678118654757 0.70710678118654757 0.75 forward I I I I #
loop $-1 $-1 $150 $38 #
coedge $-1 $95 $95 $151 $152 reversed $59 $-1 #
face $-1 $-1 $153 $31 $-1 $154 forward single #
loop $-1 $155 $156 $61 #
cone-surface $-1 18.780065293588081 38.723858969296529 13.914893106526911 0 -0.6560590369687036 -0.75470957328743171 0.75 0 0 1 I I -0.70710678118654757 0.70710678118654757 0.75 forward I I I I #
loop $-1 $-1 $157 $39 #
coedge $-1 $100 $100 $158 $159 reversed $62 $-1 #
face $-1 $160 $161 $24 $-1 $162 reversed single #
loop $-1 $-1 $163 $64 #
plane-surface $-1 0 -49.223635910991035 0 0 1 0 0 0 1 forward_v I I I I #
coedge $-1 $164 $165 $166 $167 forward $65 $-1 #
coedge $-1 $168 $67 $169 $170 forward $41 $-1 #
coedge $-1 $67 $168 $171 $172 forward $41 $-1 #
coedge $-1 $173 $174 $67 $108 reversed $175 $-1 #
edge $-1 $176 -49.223635910991035 $177 49.223635910991035 $107 $178 forward 7 unknown #
face $-1 $179 $180 $25 $-1 $181 reversed single #
loop $-1 $-1 $182 $68 #
plane-surface $-1 -63.515538903669892 -148.47112692041486 125.50561820099892 1 0 0 0 0.64278761758704617 -0.76604443648966558 forward_v I I I I #
coedge $-1 $183 $184 $185 $186 reversed $69 $-1 #
coedge $-1 $114 $71 $187 $188 reversed $44 $-1 #
coedge $-1 $71 $113 $183 $189 reversed $44 $-1 #
coedge $-1 $185 $190 $71 $116 forward $191 $-1 #
edge $-1 $192 25.011927549216395 $193 44.55136067452446 $115 $194 forward 7 unknown #
loop $-1 $-1 $122 $72 #
plane-surface $-1 -53.721655380551503 -49.223635910991035 7.2270667118960148 0 -0.64278761758704617 0.76604443648966558 1 0 0 forward_v I I I I #
loop $-1 $-1 $195 $46 #
coedge $-1 $120 $120 $121 $196 reversed $73 $-1 #
coedge $-1 $121 $121 $120 $196 forward $75 $-1 #
coedge $-1 $122 $122 $76 $123 forward $117 $-1 #
edge $-1 $197 5.8386158202769635e-016 $197 6.2831853071796013 $122 $198 forward 7 unknown #
loop $-1 $-1 $129 $77 #
plane-surface $-1 -53.721655380551503 -49.223635910991035 7.2270667118960148 0 -0.64278761758704617 0.76604443648966558 1 0 0 forward_v I I I I #
loop $-1 $-1 $199 $49 #
coedge $-1 $127 $127 $128 $200 reversed $78 $-1 #
coedge $-1 $128 $128 $127 $200 forward $80 $-1 #
coedge $-1 $129 $129 $81 $130 forward $124 $-1 #
edge $-1 $201 5.8386158202769635e-016 $201 6.2831853071796013 $129 $202 forward 7 unknown #
loop $-1 $-1 $136 $82 #
plane-surface $-1 -53.721655380551503 -49.223635910991035 7.2270667118960148 0 -0.64278761758704617 0.76604443648966558 1 0 0 forward_v I I I I #
loop $-1 $-1 $203 $52 #
coedge $-1 $134 $134 $135 $204 reversed $83 $-1 #
coedge $-1 $135 $135 $134 $204 forward $85 $-1 #
coedge $-1 $136 $136 $86 $137 forward $131 $-1 #
edge $-1 $205 5.8386158202769635e-016 $205 6.2831853071796013 $136 $206 forward 7 unknown #
face $-1 $207 $208 $29 $-1 $209 reversed single #
loop $-1 $-1 $210 $87 #
plane-surface $-1 23.896204281254334 76.221157922184275 190.07348870612608 -1 0 0 0 0.6560590369687036 0.75470957328743171 forward_v I I I I #
coedge $-1 $211 $212 $213 $214 reversed $88 $-1 #
coedge $-1 $143 $90 $215 $216 reversed $56 $-1 #
coedge $-1 $90 $142 $211 $217 reversed $56 $-1 #
coedge $-1 $213 $218 $90 $145 forward $219 $-1 #
edge $-1 $220 -11.113056949898898 $221 5.7568208319985459 $144 $222 forward 7 unknown #
loop $-1 $-1 $151 $91 #
plane-surface $-1 14.942961052838399 -25.075462597088844 73.545059190404871 0 0.6560590369687036 0.75470957328743171 1 0 0 forward_v I I I I #
loop $-1 $-1 $223 $58 #
coedge $-1 $149 $149 $150 $224 reversed $92 $-1 #
coedge $-1 $150 $150 $149 $224 forward $94 $-1 #
coedge $-1 $151 $151 $95 $152 forward $146 $-1 #
edge $-1 $225 -3.1535130911000747e-016 $225 6.2831853071796004 $151 $226 forward 7 unknown #
loop $-1 $-1 $158 $96 #
plane-surface $-1 14.942961052838399 -25.075462597088844 73.545059190404871 0 0.6560590369687036 0.75470957328743171 1 0 0 forward_v I I I I #
loop $-1 $-1 $227 $61 #
coedge $-1 $156 $156 $157 $228 reversed $97 $-1 #
coedge $-1 $157 $157 $156 $228 forward $99 $-1 #
coedge $-1 $158 $158 $100 $159 forward $153 $-1 #
edge $-1 $229 -3.1535130911000747e-016 $229 6.2831853071796004 $158 $230 forward 7 unknown #
face $-1 $231 $232 $24 $-1 $233 reversed single #
loop $-1 $-1 $234 $101 #
plane-surface $-1 -77.200842310861532 0 0 1 0 0 0 0 -1 forward_v I I I I #
coedge $-1 $235 $171 $236 $237 forward $102 $-1 #
coedge $-1 $238 $104 $235 $239 forward $65 $-1 #
coedge $-1 $104 $238 $240 $241 forward $65 $-1 #
coedge $-1 $174 $173 $104 $167 reversed $175 $-1 #
edge $-1 $242 -49.223635910991035 $243 49.223635910991035 $166 $244 forward 7 unknown #
coedge $-1 $106 $105 $245 $246 forward $41 $-1 #
coedge $-1 $247 $248 $105 $170 reversed $232 $-1 #
edge $-1 $177 -77.200842310861532 $249 77.200842310861532 $169 $250 forward 7 unknown #
coedge $-1 $163 $251 $106 $172 reversed $102 $-1 #
edge $-1 $252 -77.200842310861532 $176 77.200842310861532 $171 $253 forward 7 unknown #
coedge $-1 $166 $107 $251 $254 forward $175 $-1 #
coedge $-1 $107 $166 $247 $255 reversed $175 $-1 #
loop $-1 $-1 $173 $231 #
vertex $-1 $108 $256 #
vertex $-1 $108 $257 #
straight-curve $-1 77.200842310861532 0 23.622598184158882 0 1 0 I I #
face $-1 $-1 $191 $25 $-1 $258 forward single #
loop $-1 $-1 $259 $109 #
plane-surface $-1 0 -49.223635910991035 0 0 1 0 0 0 1 forward_v I I I I #
coedge $-1 $260 $261 $262 $263 reversed $110 $-1 #
coedge $-1 $264 $112 $114 $189 forward $69 $-1 #
coedge $-1 $112 $264 $260 $265 forward $69 $-1 #
coedge $-1 $262 $115 $112 $186 forward $191 $-1 #
edge $-1 $193 17.066944167157363 $266 36.654711213394137 $185 $267 forward 7 unknown #
coedge $-1 $268 $269 $113 $188 forward $180 $-1 #
edge $-1 $270 -55.525742388603447 $192 -39.13021091634058 $187 $271 forward 7 unknown #
edge $-1 $193 -25.506918651933407 $270 0 $114 $272 forward 7 unknown #
coedge $-1 $115 $262 $268 $273 forward $191 $-1 #
loop $-1 $-1 $262 $179 #
vertex $-1 $188 $274 #
vertex $-1 $116 $275 #
straight-curve $-1 -43.927771857433115 -74.23556346020743 23.622598184158882 0 1 0 I I #
coedge $-1 $195 $195 $-1 $276 reversed $119 $-1 #
edge $-1 $277 0 $277 6.2831853071796004 $120 $278 forward 7 unknown #
vertex $-1 $123 $279 #
ellipse-curve $-1 -59.597985494422538 -39.453919348337003 15.424832448027448 0 -0.64278761758704617 0.76604443648966558 1.5 0 0 1 I I #
coedge $-1 $199 $199 $-1 $280 reversed $126 $-1 #
edge $-1 $281 0 $281 6.2831853071796004 $127 $282 forward 7 unknown #
vertex $-1 $130 $283 #
ellipse-curve $-1 -53.721655380551503 -39.453919348337003 15.424832448027448 0 -0.64278761758704617 0.76604443648966558 1.5 0 0 1 I I #
coedge $-1 $203 $203 $-1 $284 reversed $133 $-1 #
edge $-1 $285 0 $285 6.2831853071796004 $134 $286 forward 7 unknown #
vertex $-1 $137 $287 #
ellipse-curve $-1 -47.845325266680469 -39.453919348337003 15.424832448027448 0 -0.64278761758704617 0.76604443648966558 1.5 0 0 1 I I #
face $-1 $-1 $219 $29 $-1 $288 forward single #
loop $-1 $-1 $289 $138 #
plane-surface $-1 0 49.223635910991035 0 0 -1 0 0 0 -1 forward_v I I I I #
coedge $-1 $290 $291 $292 $293 reversed $139 $-1 #
coedge $-1 $294 $141 $143 $217 forward $88 $-1 #
coedge $-1 $141 $294 $290 $295 forward $88 $-1 #
coedge $-1 $292 $144 $141 $214 forward $219 $-1 #
edge $-1 $221 -1.4817627019967361 $296 16.424723754835135 $213 $297 forward 7 unknown #
coedge $-1 $298 $299 $142 $216 forward $208 $-1 #
edge $-1 $300 -86.078907506383914 $220 -71.414146168904153 $215 $301 forward 7 unknown #
edge $-1 $221 76.094464359352287 $300 98.447271821982071 $143 $302 forward 7 unknown #
coedge $-1 $144 $292 $298 $303 forward $219 $-1 #
loop $-1 $-1 $292 $207 #
vertex $-1 $216 $304 #
vertex $-1 $145 $305 #
straight-curve $-1 5.9897178244224634 38.110578961092138 23.622598184158875 0 -1 0 I I #
coedge $-1 $223 $223 $-1 $306 reversed $148 $-1 #
edge $-1 $307 0 $307 6.2831853071796004 $149 $308 forward 7 unknown #
vertex $-1 $152 $309 #
ellipse-curve $-1 11.105856812088703 40.788697020042314 16.290217515419005 0 0.6560590369687036 0.75470957328743171 1.5 0 0 1 I I #
coedge $-1 $227 $227 $-1 $310 reversed $155 $-1 #
edge $-1 $311 0 $311 6.2831853071796004 $156 $312 forward 7 unknown #
vertex $-1 $159 $313 #
ellipse-curve $-1 18.780065293588081 40.788697020042314 16.290217515419005 0 0.6560590369687036 0.75470957328743171 1.5 0 0 1 I I #
face $-1 $-1 $175 $24 $-1 $314 reversed single #
loop $-1 $-1 $247 $160 #
plane-surface $-1 0 49.223635910991035 0 0 -1 0 0 0 -1 forward_v I I I I #
coedge $-1 $315 $245 $248 $316 forward $161 $-1 #
coedge $-1 $251 $163 $164 $239 reversed $102 $-1 #
coedge $-1 $245 $315 $163 $237 reversed $161 $-1 #
edge $-1 $252 -23.622598184158882 $317 23.622598184158882 $236 $318 forward 7 unknown #
coedge $-1 $165 $164 $315 $319 forward $65 $-1 #
edge $-1 $243 -77.200842310861532 $317 77.200842310861532 $235 $320 forward 7 unknown #
coedge $-1 $248 $247 $165 $241 reversed $232 $-1 #
edge $-1 $321 -77.200842310861532 $242 77.200842310861532 $240 $322 forward 7 unknown #
vertex $-1 $167 $323 #
vertex $-1 $254 $324 #
straight-curve $-1 77.200842310861532 0 -23.622598184158882 0 -1 0 I I #
coedge $-1 $234 $236 $168 $246 reversed $161 $-1 #
edge $-1 $249 -49.223635910991035 $252 49.223635910991035 $245 $325 forward 7 unknown #
coedge $-1 $240 $169 $174 $255 forward $232 $-1 #
coedge $-1 $169 $240 $234 $316 reversed $232 $-1 #
vertex $-1 $170 $326 #
straight-curve $-1 0 49.223635910991035 23.622598184158882 -1 0 0 I I #
coedge $-1 $171 $235 $173 $254 reversed $102 $-1 #
vertex $-1 $246 $327 #
straight-curve $-1 0 -49.223635910991035 23.622598184158882 1 0 0 I I #
edge $-1 $176 -23.622598184158882 $243 23.622598184158882 $173 $328 forward 7 unknown #
edge $-1 $177 -23.622598184158882 $242 23.622598184158882 $174 $329 forward 7 unknown #
point $-1 77.200842310861532 -49.223635910991035 23.622598184158882 #
point $-1 77.200842310861532 49.223635910991035 23.622598184158882 #
plane-surface $-1 0 0 23.622598184158882 0 0 1 1 0 0 forward_v I I I I #
coedge $-1 $269 $268 $261 $330 forward $180 $-1 #
coedge $-1 $261 $182 $184 $265 reversed $110 $-1 #
coedge $-1 $182 $260 $259 $330 reversed $110 $-1 #
coedge $-1 $190 $185 $182 $263 forward $191 $-1 #
edge $-1 $266 -44.55136067452446 $331 -25.011927549216395 $262 $332 forward 7 unknown #
coedge $-1 $184 $183 $269 $333 reversed $69 $-1 #
edge $-1 $334 0 $266 25.506918651933407 $260 $335 forward 7 unknown #
vertex $-1 $186 $336 #
straight-curve $-1 -26.860827690275752 -29.684202785682967 23.622598184158882 -1 0 0 I I #
coedge $-1 $259 $187 $190 $273 reversed $180 $-1 #
coedge $-1 $187 $259 $264 $333 forward $180 $-1 #
vertex $-1 $188 $337 #
straight-curve $-1 -43.927771857433115 -49.223635910991035 62.752809100499462 0 0 1 I I #
straight-curve $-1 -43.927771857433115 -49.223635910991035 7.2270667118960148 0 -0.76604443648966558 -0.64278761758704617 I I #
edge $-1 $331 -63.515538903669892 $192 -43.927771857433115 $268 $338 forward 7 unknown #
point $-1 -43.927771857433115 -49.223635910991035 23.622598184158882 #
point $-1 -43.927771857433115 -29.684202785682967 23.622598184158882 #
edge $-1 $339 1 $339 0 $195 $-1 forward 7 unknown #
vertex $-1 $196 $340 #
ellipse-curve $-1 -59.597985494422538 -35.887357314970814 11.174369420578962 0 -0.64278761758704617 0.76604443648966558 1.5 0 0 1 I I #
point $-1 -58.097985494422538 -39.453919348336996 15.424832448027441 #
edge $-1 $341 1 $341 0 $199 $-1 forward 7 unknown #
vertex $-1 $200 $342 #
ellipse-curve $-1 -53.721655380551503 -35.887357314970814 11.174369420578962 0 -0.64278761758704617 0.76604443648966558 1.5 0 0 1 I I #
point $-1 -52.221655380551503 -39.453919348336996 15.424832448027441 #
edge $-1 $343 1 $343 0 $203 $-1 forward 7 unknown #
vertex $-1 $204 $344 #
ellipse-curve $-1 -47.845325266680469 -35.887357314970814 11.174369420578962 0 -0.64278761758704617 0.76604443648966558 1.5 0 0 1 I I #
point $-1 -46.345325266680469 -39.453919348336996 15.424832448027441 #
plane-surface $-1 0 0 23.622598184158882 0 0 1 1 0 0 forward_v I I I I #
coedge $-1 $299 $298 $291 $345 forward $208 $-1 #
coedge $-1 $291 $210 $212 $295 reversed $139 $-1 #
coedge $-1 $210 $290 $289 $345 reversed $139 $-1 #
coedge $-1 $218 $213 $210 $293 forward $219 $-1 #
edge $-1 $296 -5.7568208319985459 $346 11.113056949898898 $292 $347 forward 7 unknown #
coedge $-1 $212 $211 $299 $348 reversed $88 $-1 #
edge $-1 $349 -98.447271821982071 $296 -76.094464359352287 $290 $350 forward 7 unknown #
vertex $-1 $214 $351 #
straight-curve $-1 7.4714805264191995 32.353758129093578 23.622598184158889 1 0 0 I I #
coedge $-1 $289 $215 $218 $303 reversed $208 $-1 #
coedge $-1 $215 $289 $294 $348 forward $208 $-1 #
vertex $-1 $216 $352 #
straight-curve $-1 5.9897178244224634 49.223635910991035 95.036744353063042 0 0 1 I I #
straight-curve $-1 5.9897178244224634 -25.075462597088844 73.545059190404871 0 0.75470957328743171 -0.6560590369687036 I I #
edge $-1 $346 -23.896204281254334 $220 -5.9897178244224634 $298 $353 forward 7 unknown #
point $-1 5.9897178244224634 49.223635910991035 23.622598184158882 #
point $-1 5.9897178244224634 32.353758129093592 23.622598184158882 #
edge $-1 $354 1 $354 0 $223 $-1 forward 7 unknown #
vertex $-1 $224 $355 #
ellipse-curve $-1 11.105856812088703 39.215903247023057 14.480925286492484 0 0.6560590369687036 0.75470957328743171 1.5 0 0 1 I I #
point $-1 12.605856812088703 40.788697020042285 16.290217515418973 #
edge $-1 $356 1 $356 0 $227 $-1 forward 7 unknown #
vertex $-1 $228 $357 #
ellipse-curve $-1 18.780065293588081 39.215903247023057 14.480925286492484 0 0.6560590369687036 0.75470957328743171 1.5 0 0 1 I I #
point $-1 20.280065293588081 40.788697020042285 16.290217515418973 #
plane-surface $-1 77.200842310861532 0 0 -1 0 0 0 0 1 forward_v I I I I #
coedge $-1 $236 $234 $238 $319 reversed $161 $-1 #
edge $-1 $249 -23.622598184158882 $321 23.622598184158882 $248 $358 forward 7 unknown #
vertex $-1 $319 $359 #
straight-curve $-1 -77.200842310861532 -49.223635910991035 0 0 0 -1 I I #
edge $-1 $317 -49.223635910991035 $321 49.223635910991035 $315 $360 forward 7 unknown #
straight-curve $-1 0 -49.223635910991035 -23.622598184158882 -1 0 0 I I #
vertex $-1 $241 $361 #
straight-curve $-1 0 49.223635910991035 -23.622598184158882 1 0 0 I I #
point $-1 77.200842310861532 49.223635910991035 -23.622598184158882 #
point $-1 77.200842310861532 -49.223635910991035 -23.622598184158882 #
straight-curve $-1 -77.200842310861532 0 23.622598184158882 0 -1 0 I I #
point $-1 -77.200842310861532 49.223635910991035 23.622598184158882 #
point $-1 -77.200842310861532 -49.223635910991035 23.622598184158882 #
straight-curve $-1 77.200842310861532 -49.223635910991035 0 0 0 -1 I I #
straight-curve $-1 77.200842310861532 49.223635910991035 0 0 0 -1 I I #
edge $-1 $331 39.13021091634058 $334 55.525742388603447 $259 $362 forward 7 unknown #
vertex $-1 $273 $363 #
straight-curve $-1 -63.515538903669892 -74.23556346020743 23.622598184158882 0 -1 0 I I #
edge $-1 $334 -36.654711213394137 $270 -17.066944167157363 $269 $364 forward 7 unknown #
vertex $-1 $333 $365 #
straight-curve $-1 -63.515538903669892 -49.223635910991035 7.2270667118960148 0 0.76604443648966558 0.64278761758704617 I I #
point $-1 -63.515538903669892 -29.684202785682967 23.622598184158882 #
point $-1 -43.927771857433115 -49.223635910991035 7.2270667118960148 #
straight-curve $-1 0 -49.223635910991035 23.622598184158882 1 0 0 I I #
vertex $-1 $276 $366 #
point $-1 -58.097985494422538 -35.887357314970814 11.174369420578962 #
vertex $-1 $280 $367 #
point $-1 -52.221655380551503 -35.887357314970814 11.174369420578962 #
vertex $-1 $284 $368 #
point $-1 -46.345325266680469 -35.887357314970814 11.174369420578962 #
edge $-1 $346 71.414146168904153 $349 86.078907506383914 $289 $369 forward 7 unknown #
vertex $-1 $303 $370 #
straight-curve $-1 23.896204281254334 38.110578961092138 23.622598184158875 0 1 0 I I #
edge $-1 $349 -16.424723754835135 $300 1.4817627019967361 $299 $371 forward 7 unknown #
vertex $-1 $348 $372 #
straight-curve $-1 23.896204281254334 -25.075462597088844 73.545059190404871 0 -0.75470957328743171 0.6560590369687036 I I #
point $-1 23.896204281254334 32.353758129093592 23.622598184158882 #
point $-1 5.9897178244224634 49.223635910991035 8.9578368466791289 #
straight-curve $-1 0 49.223635910991035 23.622598184158882 -1 0 0 I I #
vertex $-1 $306 $373 #
point $-1 12.605856812088703 39.215903247023057 14.480925286492484 #
vertex $-1 $310 $374 #
point $-1 20.280065293588081 39.215903247023057 14.480925286492484 #
straight-curve $-1 -77.200842310861532 49.223635910991035 0 0 0 -1 I I #
point $-1 -77.200842310861532 -49.223635910991035 -23.622598184158882 #
straight-curve $-1 -77.200842310861532 0 -23.622598184158882 0 1 0 I I #
point $-1 -77.200842310861532 49.223635910991035 -23.622598184158882 #
straight-curve $-1 -63.515538903669892 -49.223635910991035 62.752809100499462 0 0 -1 I I #
point $-1 -63.515538903669892 -49.223635910991035 23.622598184158882 #
straight-curve $-1 -26.860827690275752 -49.223635910991035 7.2270667118960139 1 0 0 I I #
point $-1 -63.515538903669892 -49.223635910991035 7.2270667118960148 #
point $-1 -59.597985494422538 -34.923175888590251 10.025302765844465 #
point $-1 -53.721655380551503 -34.923175888590251 10.025302765844465 #
point $-1 -47.845325266680469 -34.923175888590251 10.025302765844465 #
straight-curve $-1 23.896204281254334 49.223635910991035 95.036744353063042 0 0 -1 I I #
point $-1 23.896204281254334 49.223635910991035 23.622598184158882 #
straight-curve $-1 7.4714805264191995 49.223635910991035 8.957836846679136 -1 0 0 I I #
point $-1 23.896204281254334 49.223635910991035 8.9578368466791289 #
point $-1 11.105856812088703 38.231814691570001 13.348860926561338 #
point $-1 18.780065293588081 38.231814691570001 13.348860926561338 #
End-of-ACIS-data 