500 0 11 0           
7 Unknown 11 ACIS 5.0 NT 24 Fri Mar 26 18:20:31 1999 
-1 9.9999999999999995e-007 1e-010 
body $-1 $11 $-1 $12 #
body $-1 $13 $-1 $14 #
body $-1 $15 $-1 $16 #
body $-1 $17 $-1 $18 #
body $-1 $19 $-1 $20 #
body $-1 $21 $-1 $22 #
body $-1 $23 $-1 $24 #
body $-1 $25 $-1 $26 #
body $-1 $27 $-1 $28 #
body $-1 $29 $-1 $30 #
body $-1 $31 $-1 $32 #
lump $-1 $-1 $33 $0 #
transform $-1 1 0 0 0 1 0 0 0 1 66.31183812982573 28.670909889116491 6.6274627757541138 1 rotate no_reflect no_shear #
lump $-1 $-1 $34 $1 #
transform $-1 1 0 0 0 1 0 0 0 1 66.31183812982573 28.670909889116491 6.6274627757541138 1 rotate no_reflect no_shear #
lump $-1 $-1 $35 $2 #
transform $-1 1 0 0 0 1 0 0 0 1 66.31183812982573 28.670909889116491 6.6274627757541138 1 rotate no_reflect no_shear #
lump $-1 $-1 $36 $3 #
transform $-1 1 0 0 0 1 0 0 0 1 66.31183812982573 28.670909889116491 6.6274627757541138 1 rotate no_reflect no_shear #
lump $-1 $-1 $37 $4 #
transform $-1 1 0 0 0 1 0 0 0 1 66.31183812982573 28.670909889116491 6.6274627757541138 1 rotate no_reflect no_shear #
lump $-1 $-1 $38 $5 #
transform $-1 1 0 0 0 1 0 0 0 1 66.31183812982573 28.670909889116491 6.6274627757541138 1 rotate no_reflect no_shear #
lump $-1 $-1 $39 $6 #
transform $-1 1 0 0 0 1 0 0 0 1 66.31183812982573 28.670909889116491 6.6274627757541138 1 rotate no_reflect no_shear #
lump $-1 $-1 $40 $7 #
transform $-1 1 0 0 0 1 0 0 0 1 66.31183812982573 28.670909889116491 6.6274627757541138 1 rotate no_reflect no_shear #
lump $-1 $-1 $41 $8 #
transform $-1 1 0 0 0 1 0 0 0 1 66.31183812982573 28.670909889116491 6.6274627757541138 1 rotate no_reflect no_shear #
lump $-1 $-1 $42 $9 #
transform $-1 1 0 0 0 1 0 0 0 1 66.31183812982573 28.670909889116491 6.6274627757541138 1 rotate no_reflect no_shear #
lump $-1 $-1 $43 $10 #
transform $-1 1 0 0 0 1 0 0 0 1 66.31183812982573 28.670909889116491 6.6274627757541138 1 rotate no_reflect no_shear #
shell $-1 $-1 $-1 $44 $-1 $11 #
shell $-1 $-1 $-1 $45 $-1 $13 #
shell $-1 $-1 $-1 $46 $-1 $15 #
shell $-1 $-1 $-1 $47 $-1 $17 #
shell $-1 $-1 $-1 $48 $-1 $19 #
shell $-1 $-1 $-1 $49 $-1 $21 #
shell $-1 $-1 $-1 $50 $-1 $23 #
shell $-1 $-1 $-1 $51 $-1 $25 #
shell $-1 $-1 $-1 $52 $-1 $27 #
shell $-1 $-1 $-1 $53 $-1 $29 #
shell $-1 $-1 $-1 $54 $-1 $31 #
face $-1 $55 $56 $33 $-1 $57 forward single #
face $-1 $58 $59 $34 $-1 $60 forward single #
face $-1 $61 $62 $35 $-1 $63 reversed single #
face $-1 $64 $65 $36 $-1 $66 forward single #
face $-1 $67 $68 $37 $-1 $69 forward single #
face $-1 $70 $71 $38 $-1 $72 reversed single #
face $-1 $73 $74 $39 $-1 $75 forward single #
face $-1 $76 $77 $40 $-1 $78 forward single #
face $-1 $79 $80 $41 $-1 $81 reversed single #
face $-1 $82 $83 $42 $-1 $84 forward single #
face $-1 $85 $86 $43 $-1 $87 forward single #
face $-1 $88 $89 $33 $-1 $90 reversed single #
loop $-1 $-1 $91 $44 #
plane-surface $-1 0 0 6.6274627757541138 0 0 1 1 0 0 forward_v I I I I #
face $-1 $92 $93 $34 $-1 $94 reversed single #
loop $-1 $-1 $95 $45 #
plane-surface $-1 -66.31183812982573 0 0 1 0 0 0 0 -1 forward_v I I I I #
face $-1 $96 $97 $35 $-1 $98 reversed single #
loop $-1 $-1 $99 $46 #
plane-surface $-1 -9.0977363083000959 -115.67987121527254 100.93482131923015 -1 0 0 0 -0.6560590369687036 0.75470957328743171 forward_v I I I I #
face $-1 $100 $101 $36 $-1 $102 forward single #
loop $-1 $103 $104 $47 #
cone-surface $-1 -27.960218309343844 -23.513003406641918 1.6292525690376007 0 0.6560590369687036 -0.75470957328743171 2 0 0 1 I I 0 1 2 forward I I I I #
face $-1 $105 $106 $37 $-1 $107 forward single #
loop $-1 $108 $109 $48 #
cone-surface $-1 -16.642729108717596 -23.513003406641918 1.6292525690376007 0 0.6560590369687036 -0.75470957328743171 2 0 0 1 I I 0 1 2 forward I I I I #
face $-1 $110 $111 $38 $-1 $112 reversed single #
loop $-1 $-1 $113 $49 #
plane-surface $-1 53.63925847284608 -115.67987121527254 100.93482131923015 -1 0 0 0 -0.6560590369687036 0.75470957328743171 forward_v I I I I #
face $-1 $114 $115 $39 $-1 $116 forward single #
loop $-1 $117 $118 $50 #
cone-surface $-1 34.776776471802336 -23.513003406641918 1.6292525690376007 0 0.6560590369687036 -0.75470957328743171 2 0 0 1 I I 0 1 2 forward I I I I #
face $-1 $119 $120 $40 $-1 $121 forward single #
loop $-1 $122 $123 $51 #
cone-surface $-1 46.094265672428577 -23.513003406641918 1.6292525690376007 0 0.6560590369687036 -0.75470957328743171 2 0 0 1 I I 0 1 2 forward I I I I #
face $-1 $124 $125 $41 $-1 $126 reversed single #
loop $-1 $-1 $127 $52 #
plane-surface $-1 -44.311344854342124 72.403450878917539 141.29117268113296 1 0 0 0 -0.6560590369687036 -0.75470957328743171 forward_v I I I I #
face $-1 $128 $129 $42 $-1 $130 forward single #
loop $-1 $131 $132 $53 #
cone-surface $-1 -34.596026045660921 26.093751814951638 4.1556062830275176 0 -0.6560590369687036 -0.75470957328743171 1 0 0 1 I I 0 1 1 forward I I I I #
face $-1 $133 $134 $43 $-1 $135 forward single #
loop $-1 $136 $137 $54 #
cone-surface $-1 -20.023047832639108 26.093751814951638 4.1556062830275176 0 -0.6560590369687036 -0.75470957328743171 1 0 0 1 I I 0 1 1 forward I I I I #
face $-1 $138 $139 $33 $-1 $140 reversed single #
loop $-1 $-1 $141 $55 #
plane-surface $-1 0 0 -6.6274627757541138 0 0 1 1 0 0 forward_v I I I I #
coedge $-1 $142 $143 $144 $145 forward $56 $-1 #
face $-1 $146 $147 $34 $-1 $148 forward single #
loop $-1 $-1 $149 $58 #
plane-surface $-1 0 28.670909889116491 0 0 -1 0 0 0 -1 forward_v I I I I #
coedge $-1 $150 $151 $152 $153 forward $59 $-1 #
face $-1 $154 $155 $35 $-1 $156 reversed single #
loop $-1 $-1 $157 $61 #
plane-surface $-1 -22.301473709030716 -28.670909889116487 0.84246320149810572 0 -0.6560590369687036 0.75470957328743171 1 0 0 forward_v I I I I #
coedge $-1 $158 $159 $160 $161 reversed $62 $-1 #
face $-1 $-1 $162 $36 $-1 $163 forward single #
loop $-1 $164 $165 $64 #
cone-surface $-1 -27.960218309343844 -21.026478189162646 -1.2311674238383459 0 0.6560590369687036 -0.75470957328743171 1 0 0 1 I I -0.70710678118654746 0.70710678118654746 1 forward I I I I #
loop $-1 $-1 $166 $47 #
coedge $-1 $104 $104 $167 $168 reversed $65 $-1 #
face $-1 $-1 $169 $37 $-1 $170 forward single #
loop $-1 $171 $172 $67 #
cone-surface $-1 -16.642729108717596 -21.026478189162646 -1.2311674238383459 0 0.6560590369687036 -0.75470957328743171 1 0 0 1 I I -0.70710678118654746 0.70710678118654746 1 forward I I I I #
loop $-1 $-1 $173 $48 #
coedge $-1 $109 $109 $174 $175 reversed $68 $-1 #
face $-1 $176 $177 $38 $-1 $178 reversed single #
loop $-1 $-1 $179 $70 #
plane-surface $-1 40.435521072115463 -28.670909889116487 0.84246320149810572 0 -0.6560590369687036 0.75470957328743171 1 0 0 forward_v I I I I #
coedge $-1 $180 $181 $182 $183 reversed $71 $-1 #
face $-1 $-1 $184 $39 $-1 $185 forward single #
loop $-1 $186 $187 $73 #
cone-surface $-1 34.776776471802336 -21.026478189162646 -1.2311674238383459 0 0.6560590369687036 -0.75470957328743171 1 0 0 1 I I -0.70710678118654746 0.70710678118654746 1 forward I I I I #
loop $-1 $-1 $188 $50 #
coedge $-1 $118 $118 $189 $190 reversed $74 $-1 #
face $-1 $-1 $191 $40 $-1 $192 forward single #
loop $-1 $193 $194 $76 #
cone-surface $-1 46.094265672428577 -21.026478189162646 -1.2311674238383459 0 0.6560590369687036 -0.75470957328743171 1 0 0 1 I I -0.70710678118654746 0.70710678118654746 1 forward I I I I #
loop $-1 $-1 $195 $51 #
coedge $-1 $123 $123 $196 $197 reversed $77 $-1 #
face $-1 $198 $199 $41 $-1 $200 reversed single #
loop $-1 $-1 $201 $79 #
plane-surface $-1 -27.309536939150007 -14.605510447238515 41.198814563400916 0 0.6560590369687036 0.75470957328743171 1 0 0 forward_v I I I I #
coedge $-1 $202 $203 $204 $205 reversed $80 $-1 #
face $-1 $-1 $206 $42 $-1 $207 forward single #
loop $-1 $208 $209 $82 #
cone-surface $-1 -34.596026045660921 24.941879369310353 2.8305286407040642 0 -0.6560590369687036 -0.75470957328743171 0.5 0 0 1 I I -0.70710678118654746 0.70710678118654746 0.5 forward I I I I #
loop $-1 $-1 $210 $53 #
coedge $-1 $132 $132 $211 $212 reversed $83 $-1 #
face $-1 $-1 $213 $43 $-1 $214 forward single #
loop $-1 $215 $216 $85 #
cone-surface $-1 -20.023047832639108 24.941879369310353 2.8305286407040642 0 -0.6560590369687036 -0.75470957328743171 0.5 0 0 1 I I -0.70710678118654746 0.70710678118654746 0.5 forward I I I I #
loop $-1 $-1 $217 $54 #
coedge $-1 $137 $137 $218 $219 reversed $86 $-1 #
face $-1 $220 $221 $33 $-1 $222 reversed single #
loop $-1 $-1 $223 $88 #
plane-surface $-1 0 -28.670909889116491 0 0 1 0 0 0 1 forward_v I I I I #
coedge $-1 $224 $225 $226 $227 forward $89 $-1 #
coedge $-1 $228 $91 $229 $230 forward $56 $-1 #
coedge $-1 $91 $228 $231 $232 forward $56 $-1 #
coedge $-1 $233 $234 $91 $145 reversed $235 $-1 #
edge $-1 $236 -28.670909889116491 $237 28.670909889116491 $144 $238 forward 7 unknown #
face $-1 $239 $240 $34 $-1 $241 reversed single #
loop $-1 $-1 $152 $92 #
plane-surface $-1 -69.886681478505281 0 -0.48811043323941727 0 0 1 1 0 0 forward_v I I I I #
coedge $-1 $242 $243 $151 $244 forward $93 $-1 #
coedge $-1 $245 $95 $246 $247 reversed $59 $-1 #
coedge $-1 $95 $245 $149 $244 reversed $59 $-1 #
coedge $-1 $248 $249 $95 $153 reversed $147 $-1 #
edge $-1 $250 -28.670909889116491 $251 28.670909889116491 $152 $252 forward 7 unknown #
face $-1 $253 $254 $35 $-1 $255 reversed single #
loop $-1 $-1 $256 $96 #
plane-surface $-1 -35.505211109761333 -115.67987121527254 100.93482131923015 1 0 0 0 0.6560590369687036 -0.75470957328743171 forward_v I I I I #
coedge $-1 $257 $258 $259 $260 reversed $97 $-1 #
coedge $-1 $159 $99 $261 $262 reversed $62 $-1 #
coedge $-1 $99 $158 $257 $263 reversed $62 $-1 #
coedge $-1 $259 $264 $99 $161 forward $265 $-1 #
edge $-1 $266 29.16902571851978 $267 35.823906322447812 $160 $268 forward 7 unknown #
loop $-1 $-1 $167 $100 #
plane-surface $-1 -22.301473709030716 -28.670909889116487 0.84246320149810572 0 -0.6560590369687036 0.75470957328743171 1 0 0 forward_v I I I I #
loop $-1 $-1 $269 $64 #
coedge $-1 $165 $165 $166 $270 reversed $101 $-1 #
coedge $-1 $166 $166 $165 $270 forward $103 $-1 #
coedge $-1 $167 $167 $104 $168 forward $162 $-1 #
edge $-1 $271 3.7789473855551048e-016 $271 6.2831853071796004 $167 $272 forward 7 unknown #
loop $-1 $-1 $174 $105 #
plane-surface $-1 -22.301473709030716 -28.670909889116487 0.84246320149810572 0 -0.6560590369687036 0.75470957328743171 1 0 0 forward_v I I I I #
loop $-1 $-1 $273 $67 #
coedge $-1 $172 $172 $173 $274 reversed $106 $-1 #
coedge $-1 $173 $173 $172 $274 forward $108 $-1 #
coedge $-1 $174 $174 $109 $175 forward $169 $-1 #
edge $-1 $275 3.7789473855551048e-016 $275 6.2831853071796004 $174 $276 forward 7 unknown #
face $-1 $277 $278 $38 $-1 $279 reversed single #
loop $-1 $-1 $280 $110 #
plane-surface $-1 27.231783671384843 -115.67987121527254 100.93482131923015 1 0 0 0 0.6560590369687036 -0.75470957328743171 forward_v I I I I #
coedge $-1 $281 $282 $283 $284 reversed $111 $-1 #
coedge $-1 $181 $113 $285 $286 reversed $71 $-1 #
coedge $-1 $113 $180 $281 $287 reversed $71 $-1 #
coedge $-1 $283 $288 $113 $183 forward $289 $-1 #
edge $-1 $290 29.16902571851978 $291 35.823906322447812 $182 $292 forward 7 unknown #
loop $-1 $-1 $189 $114 #
plane-surface $-1 40.435521072115463 -28.670909889116487 0.84246320149810572 0 -0.6560590369687036 0.75470957328743171 1 0 0 forward_v I I I I #
loop $-1 $-1 $293 $73 #
coedge $-1 $187 $187 $188 $294 reversed $115 $-1 #
coedge $-1 $188 $188 $187 $294 forward $117 $-1 #
coedge $-1 $189 $189 $118 $190 forward $184 $-1 #
edge $-1 $295 3.7789473855551048e-016 $295 6.2831853071796004 $189 $296 forward 7 unknown #
loop $-1 $-1 $196 $119 #
plane-surface $-1 40.435521072115463 -28.670909889116487 0.84246320149810572 0 -0.6560590369687036 0.75470957328743171 1 0 0 forward_v I I I I #
loop $-1 $-1 $297 $76 #
coedge $-1 $194 $194 $195 $298 reversed $120 $-1 #
coedge $-1 $195 $195 $194 $298 forward $122 $-1 #
coedge $-1 $196 $196 $123 $197 forward $191 $-1 #
edge $-1 $299 3.7789473855551048e-016 $299 6.2831853071796004 $196 $300 forward 7 unknown #
face $-1 $301 $302 $41 $-1 $303 forward single #
loop $-1 $-1 $304 $124 #
plane-surface $-1 -10.307729023957894 72.403450878917539 141.29117268113296 -1 0 0 0 0.6560590369687036 0.75470957328743171 forward_v I I I I #
coedge $-1 $305 $306 $307 $308 reversed $125 $-1 #
coedge $-1 $203 $127 $309 $310 reversed $80 $-1 #
coedge $-1 $127 $202 $305 $311 reversed $80 $-1 #
coedge $-1 $307 $312 $127 $205 forward $302 $-1 #
edge $-1 $313 7.5308155503422789 $314 11.037445844358061 $204 $315 forward 7 unknown #
loop $-1 $-1 $211 $128 #
plane-surface $-1 -27.309536939150007 -14.605510447238515 41.198814563400916 0 0.6560590369687036 0.75470957328743171 1 0 0 forward_v I I I I #
loop $-1 $-1 $316 $82 #
coedge $-1 $209 $209 $210 $317 reversed $129 $-1 #
coedge $-1 $210 $210 $209 $317 forward $131 $-1 #
coedge $-1 $211 $211 $132 $212 forward $206 $-1 #
edge $-1 $318 1.0428451035052392e-015 $318 6.2831853071796013 $211 $319 forward 7 unknown #
loop $-1 $-1 $218 $133 #
plane-surface $-1 -27.309536939150007 -14.605510447238515 41.198814563400916 0 0.6560590369687036 0.75470957328743171 1 0 0 forward_v I I I I #
loop $-1 $-1 $320 $85 #
coedge $-1 $216 $216 $217 $321 reversed $134 $-1 #
coedge $-1 $217 $217 $216 $321 forward $136 $-1 #
coedge $-1 $218 $218 $137 $219 forward $213 $-1 #
edge $-1 $322 1.0428451035052392e-015 $322 6.2831853071796013 $218 $323 forward 7 unknown #
face $-1 $324 $325 $33 $-1 $326 reversed single #
loop $-1 $-1 $327 $138 #
plane-surface $-1 -66.31183812982573 0 0 1 0 0 0 0 -1 forward_v I I I I #
coedge $-1 $328 $231 $329 $330 forward $139 $-1 #
coedge $-1 $331 $141 $328 $332 forward $89 $-1 #
coedge $-1 $141 $331 $333 $334 forward $89 $-1 #
coedge $-1 $234 $233 $141 $227 reversed $235 $-1 #
edge $-1 $335 -28.670909889116491 $336 28.670909889116491 $226 $337 forward 7 unknown #
coedge $-1 $143 $142 $338 $339 forward $56 $-1 #
coedge $-1 $340 $341 $142 $230 reversed $325 $-1 #
edge $-1 $237 -66.31183812982573 $342 66.31183812982573 $229 $343 forward 7 unknown #
coedge $-1 $223 $344 $143 $232 reversed $139 $-1 #
edge $-1 $345 -66.31183812982573 $236 66.31183812982573 $231 $346 forward 7 unknown #
coedge $-1 $226 $144 $344 $347 forward $235 $-1 #
coedge $-1 $144 $226 $340 $348 reversed $235 $-1 #
loop $-1 $-1 $233 $324 #
vertex $-1 $145 $349 #
vertex $-1 $145 $350 #
straight-curve $-1 66.31183812982573 0 6.6274627757541138 0 1 0 I I #
face $-1 $351 $352 $34 $-1 $353 reversed single #
loop $-1 $-1 $354 $146 #
plane-surface $-1 -69.886681478505281 0 -3.4881104332394175 0 0 1 1 0 0 forward_v I I I I #
coedge $-1 $355 $149 $356 $357 reversed $93 $-1 #
coedge $-1 $149 $355 $248 $358 reversed $93 $-1 #
edge $-1 $250 0.48811043323941727 $359 3.4881104332394175 $149 $360 forward 7 unknown #
coedge $-1 $151 $150 $354 $361 forward $59 $-1 #
coedge $-1 $362 $363 $150 $247 forward $364 $-1 #
edge $-1 $365 -3.4881104332394175 $251 -0.48811043323941727 $246 $366 forward 7 unknown #
coedge $-1 $367 $152 $243 $358 forward $147 $-1 #
coedge $-1 $152 $367 $362 $368 forward $147 $-1 #
vertex $-1 $244 $369 #
vertex $-1 $368 $370 #
straight-curve $-1 -66.31183812982573 0 -0.48811043323941727 0 -1 0 I I #
face $-1 $-1 $265 $35 $-1 $371 forward single #
loop $-1 $-1 $372 $154 #
plane-surface $-1 0 -28.670909889116491 0 0 1 0 0 0 1 forward_v I I I I #
coedge $-1 $373 $374 $375 $376 reversed $155 $-1 #
coedge $-1 $377 $157 $159 $263 forward $97 $-1 #
coedge $-1 $157 $377 $373 $378 forward $97 $-1 #
coedge $-1 $375 $160 $157 $260 forward $265 $-1 #
edge $-1 $267 -2.0530005462152623 $379 24.354474255245975 $259 $380 forward 7 unknown #
coedge $-1 $381 $382 $158 $262 forward $254 $-1 #
edge $-1 $383 -49.624947458116971 $266 -43.839947883860965 $261 $384 forward 7 unknown #
edge $-1 $267 -8.8178033504200855 $383 4.72070819993692e-015 $159 $385 forward 7 unknown #
coedge $-1 $160 $375 $381 $386 forward $265 $-1 #
loop $-1 $-1 $375 $253 #
vertex $-1 $262 $387 #
vertex $-1 $161 $388 #
straight-curve $-1 -9.0977363083000959 -57.839935607636271 6.6274627757541111 0 1 0 I I #
coedge $-1 $269 $269 $-1 $389 reversed $164 $-1 #
edge $-1 $390 0 $390 6.2831853071796004 $165 $391 forward 7 unknown #
vertex $-1 $168 $392 #
ellipse-curve $-1 -27.960218309343844 -25.343469587152477 3.7349629886261062 0 -0.6560590369687036 0.75470957328743171 2 0 0 1 I I #
coedge $-1 $273 $273 $-1 $393 reversed $171 $-1 #
edge $-1 $394 0 $394 6.2831853071796004 $172 $395 forward 7 unknown #
vertex $-1 $175 $396 #
ellipse-curve $-1 -16.642729108717596 -25.343469587152477 3.7349629886261062 0 -0.6560590369687036 0.75470957328743171 2 0 0 1 I I #
face $-1 $-1 $289 $38 $-1 $397 forward single #
loop $-1 $-1 $398 $176 #
plane-surface $-1 0 -28.670909889116491 0 0 1 0 0 0 1 forward_v I I I I #
coedge $-1 $399 $400 $401 $402 reversed $177 $-1 #
coedge $-1 $403 $179 $181 $287 forward $111 $-1 #
coedge $-1 $179 $403 $399 $404 forward $111 $-1 #
coedge $-1 $401 $182 $179 $284 forward $289 $-1 #
edge $-1 $291 -33.421497936788349 $405 -7.0140231353271112 $283 $406 forward 7 unknown #
coedge $-1 $407 $408 $180 $286 forward $278 $-1 #
edge $-1 $409 -49.624947458116971 $290 -43.839947883860965 $285 $410 forward 7 unknown #
edge $-1 $291 -8.8178033504200855 $409 4.72070819993692e-015 $181 $411 forward 7 unknown #
coedge $-1 $182 $401 $407 $412 forward $289 $-1 #
loop $-1 $-1 $401 $277 #
vertex $-1 $286 $413 #
vertex $-1 $183 $414 #
straight-curve $-1 53.63925847284608 -57.839935607636271 6.6274627757541111 0 1 0 I I #
coedge $-1 $293 $293 $-1 $415 reversed $186 $-1 #
edge $-1 $416 0 $416 6.2831853071796004 $187 $417 forward 7 unknown #
vertex $-1 $190 $418 #
ellipse-curve $-1 34.776776471802336 -25.343469587152477 3.7349629886261062 0 -0.6560590369687036 0.75470957328743171 2 0 0 1 I I #
coedge $-1 $297 $297 $-1 $419 reversed $193 $-1 #
edge $-1 $420 0 $420 6.2831853071796004 $194 $421 forward 7 unknown #
vertex $-1 $197 $422 #
ellipse-curve $-1 46.094265672428577 -25.343469587152477 3.7349629886261062 0 -0.6560590369687036 0.75470957328743171 2 0 0 1 I I #
face $-1 $-1 $423 $41 $-1 $424 reversed single #
loop $-1 $-1 $204 $198 #
plane-surface $-1 0 0 6.6274627757541138 0 0 1 1 0 0 forward_v I I I I #
coedge $-1 $425 $426 $427 $428 reversed $199 $-1 #
coedge $-1 $429 $201 $203 $311 forward $125 $-1 #
coedge $-1 $201 $429 $425 $430 forward $125 $-1 #
coedge $-1 $427 $204 $201 $308 forward $302 $-1 #
edge $-1 $314 -30.656576384767121 $431 3.34703944561711 $307 $432 forward 7 unknown #
coedge $-1 $433 $434 $202 $310 forward $423 $-1 #
edge $-1 $435 -67.066390838906045 $313 -64.01812356481237 $309 $436 forward 7 unknown #
edge $-1 $314 52.695489033094418 $435 57.341819778232953 $203 $437 forward 7 unknown #
coedge $-1 $204 $427 $433 $438 forward $302 $-1 #
vertex $-1 $205 $439 #
vertex $-1 $205 $440 #
straight-curve $-1 -44.311344854342124 36.20172543945877 6.6274627757541111 0 -1 0 I I #
coedge $-1 $316 $316 $-1 $441 reversed $208 $-1 #
edge $-1 $442 0 $442 6.2831853071796004 $209 $443 forward 7 unknown #
vertex $-1 $212 $444 #
ellipse-curve $-1 -34.596026045660921 26.917594742108598 5.1033291387072843 0 0.6560590369687036 0.75470957328743171 1 0 0 1 I I #
coedge $-1 $320 $320 $-1 $445 reversed $215 $-1 #
edge $-1 $446 0 $446 6.2831853071796004 $216 $447 forward 7 unknown #
vertex $-1 $219 $448 #
ellipse-curve $-1 -20.023047832639108 26.917594742108598 5.1033291387072843 0 0.6560590369687036 0.75470957328743171 1 0 0 1 I I #
face $-1 $-1 $235 $33 $-1 $449 reversed single #
loop $-1 $-1 $340 $220 #
plane-surface $-1 0 28.670909889116491 0 0 -1 0 0 0 -1 forward_v I I I I #
coedge $-1 $450 $338 $341 $451 forward $221 $-1 #
coedge $-1 $344 $223 $224 $332 reversed $139 $-1 #
coedge $-1 $338 $450 $223 $330 reversed $221 $-1 #
edge $-1 $345 -6.6274627757541138 $452 6.6274627757541138 $329 $453 forward 7 unknown #
coedge $-1 $225 $224 $450 $454 forward $89 $-1 #
edge $-1 $336 -66.31183812982573 $452 66.31183812982573 $328 $455 forward 7 unknown #
coedge $-1 $341 $340 $225 $334 reversed $325 $-1 #
edge $-1 $456 -66.31183812982573 $335 66.31183812982573 $333 $457 forward 7 unknown #
vertex $-1 $227 $458 #
vertex $-1 $347 $459 #
straight-curve $-1 66.31183812982573 0 -6.6274627757541138 0 -1 0 I I #
coedge $-1 $327 $329 $228 $339 reversed $221 $-1 #
edge $-1 $342 -28.670909889116491 $345 28.670909889116491 $338 $460 forward 7 unknown #
coedge $-1 $333 $229 $234 $348 forward $325 $-1 #
coedge $-1 $229 $333 $327 $451 reversed $325 $-1 #
vertex $-1 $230 $461 #
straight-curve $-1 0 28.670909889116491 6.6274627757541138 -1 0 0 I I #
coedge $-1 $231 $328 $233 $347 reversed $139 $-1 #
vertex $-1 $339 $462 #
straight-curve $-1 0 -28.670909889116491 6.6274627757541138 1 0 0 I I #
edge $-1 $236 -6.6274627757541138 $336 6.6274627757541138 $233 $463 forward 7 unknown #
edge $-1 $237 -6.6274627757541138 $335 6.6274627757541138 $234 $464 forward 7 unknown #
point $-1 66.31183812982573 -28.670909889116491 6.6274627757541138 #
point $-1 66.31183812982573 28.670909889116491 6.6274627757541138 #
face $-1 $-1 $364 $34 $-1 $465 reversed single #
loop $-1 $-1 $466 $239 #
plane-surface $-1 -73.461524827184832 0 -1.9881104332394175 1 0 0 0 0 -1 forward_v I I I I #
coedge $-1 $467 $356 $245 $361 reversed $240 $-1 #
coedge $-1 $243 $242 $466 $468 reversed $93 $-1 #
coedge $-1 $354 $469 $242 $357 forward $240 $-1 #
edge $-1 $470 -3.5748433486795506 $359 3.5748433486795506 $242 $471 forward 7 unknown #
edge $-1 $250 -3.5748433486795506 $472 3.5748433486795506 $243 $473 forward 7 unknown #
vertex $-1 $244 $474 #
straight-curve $-1 -66.31183812982573 28.670909889116491 0 0 0 -1 I I #
edge $-1 $365 -28.670909889116491 $359 28.670909889116491 $354 $475 forward 7 unknown #
coedge $-1 $476 $246 $249 $368 reversed $364 $-1 #
coedge $-1 $246 $476 $467 $477 reversed $364 $-1 #
loop $-1 $-1 $246 $351 #
vertex $-1 $247 $478 #
straight-curve $-1 -66.31183812982573 -28.670909889116491 0 0 0 1 I I #
coedge $-1 $249 $248 $479 $480 forward $147 $-1 #
edge $-1 $481 -3.5748433486795506 $251 3.5748433486795506 $362 $482 forward 7 unknown #
point $-1 -66.31183812982573 28.670909889116491 -0.48811043323941727 #
point $-1 -66.31183812982573 -28.670909889116491 -0.48811043323941727 #
plane-surface $-1 0 0 6.6274627757541138 0 0 1 1 0 0 forward_v I I I I #
coedge $-1 $382 $381 $374 $483 forward $254 $-1 #
coedge $-1 $374 $256 $258 $378 reversed $155 $-1 #
coedge $-1 $256 $373 $372 $483 reversed $155 $-1 #
coedge $-1 $264 $259 $256 $376 forward $265 $-1 #
edge $-1 $379 -35.823906322447812 $484 -29.16902571851978 $375 $485 forward 7 unknown #
coedge $-1 $258 $257 $382 $486 reversed $97 $-1 #
edge $-1 $487 -4.72070819993692e-015 $379 8.8178033504200855 $373 $488 forward 7 unknown #
vertex $-1 $260 $489 #
straight-curve $-1 -11.150736854515358 -22.016029285188463 6.6274627757541147 -1 0 0 I I #
coedge $-1 $372 $261 $264 $386 reversed $254 $-1 #
coedge $-1 $261 $372 $377 $486 forward $254 $-1 #
vertex $-1 $262 $490 #
straight-curve $-1 -9.0977363083000959 -28.670909889116487 50.467410659615076 0 0 1 I I #
straight-curve $-1 -9.0977363083000959 -28.670909889116487 0.84246320149810572 0 -0.75470957328743171 -0.6560590369687036 I I #
edge $-1 $484 -35.505211109761333 $266 -9.0977363083000959 $381 $491 forward 7 unknown #
point $-1 -9.0977363083000959 -28.670909889116491 6.6274627757541138 #
point $-1 -9.0977363083000959 -22.016029285188459 6.6274627757541138 #
edge $-1 $492 1 $492 0 $269 $-1 forward 7 unknown #
vertex $-1 $270 $493 #
ellipse-curve $-1 -27.960218309343844 -21.682537226131348 -0.47645785055091416 0 -0.6560590369687036 0.75470957328743171 2 0 0 1 I I #
point $-1 -25.960218309343844 -25.343469587152484 3.7349629886261155 #
edge $-1 $494 1 $494 0 $273 $-1 forward 7 unknown #
vertex $-1 $274 $495 #
ellipse-curve $-1 -16.642729108717596 -21.682537226131348 -0.47645785055091416 0 -0.6560590369687036 0.75470957328743171 2 0 0 1 I I #
point $-1 -14.642729108717596 -25.343469587152484 3.7349629886261155 #
plane-surface $-1 0 0 6.6274627757541138 0 0 1 1 0 0 forward_v I I I I #
coedge $-1 $408 $407 $400 $496 forward $278 $-1 #
coedge $-1 $400 $280 $282 $404 reversed $177 $-1 #
coedge $-1 $280 $399 $398 $496 reversed $177 $-1 #
coedge $-1 $288 $283 $280 $402 forward $289 $-1 #
edge $-1 $405 -35.823906322447812 $497 -29.16902571851978 $401 $498 forward 7 unknown #
coedge $-1 $282 $281 $408 $499 reversed $111 $-1 #
edge $-1 $500 -4.72070819993692e-015 $405 8.8178033504200855 $399 $501 forward 7 unknown #
vertex $-1 $284 $502 #
straight-curve $-1 20.217760536057732 -22.016029285188463 6.6274627757541147 -1 0 0 I I #
coedge $-1 $398 $285 $288 $412 reversed $278 $-1 #
coedge $-1 $285 $398 $403 $499 forward $278 $-1 #
vertex $-1 $286 $503 #
straight-curve $-1 53.63925847284608 -28.670909889116487 50.467410659615076 0 0 1 I I #
straight-curve $-1 53.63925847284608 -28.670909889116487 0.84246320149810572 0 -0.75470957328743171 -0.6560590369687036 I I #
edge $-1 $497 27.231783671384843 $290 53.63925847284608 $407 $504 forward 7 unknown #
point $-1 53.63925847284608 -28.670909889116491 6.6274627757541138 #
point $-1 53.63925847284608 -22.016029285188459 6.6274627757541138 #
edge $-1 $505 1 $505 0 $293 $-1 forward 7 unknown #
vertex $-1 $294 $506 #
ellipse-curve $-1 34.776776471802336 -21.682537226131348 -0.47645785055091416 0 -0.6560590369687036 0.75470957328743171 2 0 0 1 I I #
point $-1 36.776776471802336 -25.343469587152484 3.7349629886261155 #
edge $-1 $507 1 $507 0 $297 $-1 forward 7 unknown #
vertex $-1 $298 $508 #
ellipse-curve $-1 46.094265672428577 -21.682537226131348 -0.47645785055091416 0 -0.6560590369687036 0.75470957328743171 2 0 0 1 I I #
point $-1 48.094265672428577 -25.343469587152484 3.7349629886261155 #
loop $-1 $-1 $309 $301 #
plane-surface $-1 0 28.670909889116491 0 0 -1 0 0 0 -1 forward_v I I I I #
coedge $-1 $426 $304 $306 $430 reversed $199 $-1 #
coedge $-1 $304 $425 $509 $510 reversed $199 $-1 #
coedge $-1 $312 $307 $304 $428 forward $302 $-1 #
edge $-1 $431 -11.037445844358061 $511 -7.5308155503422789 $427 $512 forward 7 unknown #
coedge $-1 $306 $305 $434 $513 reversed $125 $-1 #
edge $-1 $514 -57.341819778232953 $431 -52.695489033094418 $425 $515 forward 7 unknown #
vertex $-1 $308 $516 #
straight-curve $-1 -13.654768469575004 25.164279595100702 6.6274627757541182 1 0 0 I I #
coedge $-1 $509 $309 $312 $438 reversed $423 $-1 #
coedge $-1 $309 $509 $429 $513 forward $423 $-1 #
vertex $-1 $310 $517 #
straight-curve $-1 -44.311344854342124 28.670909889116491 70.645586340566481 0 0 1 I I #
straight-curve $-1 -44.311344854342124 -14.605510447238515 41.198814563400916 0 0.75470957328743171 -0.6560590369687036 I I #
edge $-1 $511 10.307729023957894 $313 44.311344854342124 $433 $518 forward 7 unknown #
point $-1 -44.311344854342124 28.670909889116491 6.6274627757541138 #
point $-1 -44.311344854342124 25.164279595100709 6.6274627757541111 #
edge $-1 $519 1 $519 0 $316 $-1 forward 7 unknown #
vertex $-1 $317 $520 #
ellipse-curve $-1 -34.596026045660921 25.269908887794706 3.2078834273477801 0 0.6560590369687036 0.75470957328743171 1 0 0 1 I I #
point $-1 -33.596026045660921 26.917594742108573 5.1033291387072541 #
edge $-1 $521 1 $521 0 $320 $-1 forward 7 unknown #
vertex $-1 $321 $522 #
ellipse-curve $-1 -20.023047832639108 25.269908887794706 3.2078834273477801 0 0.6560590369687036 0.75470957328743171 1 0 0 1 I I #
point $-1 -19.023047832639108 26.917594742108573 5.1033291387072541 #
plane-surface $-1 66.31183812982573 0 0 -1 0 0 0 0 1 forward_v I I I I #
coedge $-1 $329 $327 $331 $454 reversed $221 $-1 #
edge $-1 $342 -6.6274627757541138 $456 6.6274627757541138 $341 $523 forward 7 unknown #
vertex $-1 $454 $524 #
straight-curve $-1 -66.31183812982573 -28.670909889116491 0 0 0 -1 I I #
edge $-1 $452 -28.670909889116491 $456 28.670909889116491 $450 $525 forward 7 unknown #
straight-curve $-1 0 -28.670909889116491 -6.6274627757541138 -1 0 0 I I #
vertex $-1 $334 $526 #
straight-curve $-1 0 28.670909889116491 -6.6274627757541138 1 0 0 I I #
point $-1 66.31183812982573 28.670909889116491 -6.6274627757541138 #
point $-1 66.31183812982573 -28.670909889116491 -6.6274627757541138 #
straight-curve $-1 -66.31183812982573 0 6.6274627757541138 0 -1 0 I I #
point $-1 -66.31183812982573 28.670909889116491 6.6274627757541138 #
point $-1 -66.31183812982573 -28.670909889116491 6.6274627757541138 #
straight-curve $-1 66.31183812982573 -28.670909889116491 0 0 0 -1 I I #
straight-curve $-1 66.31183812982573 28.670909889116491 0 0 0 -1 I I #
plane-surface $-1 0 -28.670909889116491 0 0 1 0 0 0 1 forward_v I I I I #
coedge $-1 $527 $479 $355 $468 forward $352 $-1 #
coedge $-1 $469 $354 $363 $477 forward $240 $-1 #
edge $-1 $472 -1.5000000000000002 $470 1.5 $355 $528 forward 7 unknown #
coedge $-1 $356 $467 $527 $529 forward $240 $-1 #
vertex $-1 $357 $530 #
straight-curve $-1 -69.886681478505281 28.670909889116491 -3.4881104332394175 1 0 0 I I #
vertex $-1 $358 $531 #
straight-curve $-1 -69.886681478505281 28.670909889116491 -0.48811043323941727 -1 0 0 I I #
point $-1 -66.31183812982573 28.670909889116491 -3.4881104332394175 #
straight-curve $-1 -66.31183812982573 0 -3.4881104332394175 0 1 0 I I #
coedge $-1 $363 $362 $532 $533 forward $364 $-1 #
edge $-1 $365 -3.5748433486795506 $534 3.5748433486795506 $363 $535 forward 7 unknown #
point $-1 -66.31183812982573 -28.670909889116491 -3.4881104332394175 #
coedge $-1 $466 $532 $367 $480 reversed $352 $-1 #
edge $-1 $472 -28.670909889116491 $481 28.670909889116491 $479 $536 forward 7 unknown #
vertex $-1 $480 $537 #
straight-curve $-1 -69.886681478505281 -28.670909889116491 -0.48811043323941727 1 0 0 I I #
edge $-1 $484 43.839947883860965 $487 49.624947458116971 $372 $538 forward 7 unknown #
vertex $-1 $386 $539 #
straight-curve $-1 -35.505211109761333 -57.839935607636271 6.6274627757541111 0 -1 0 I I #
edge $-1 $487 -24.354474255245975 $383 2.0530005462152623 $382 $540 forward 7 unknown #
vertex $-1 $486 $541 #
straight-curve $-1 -35.505211109761333 -28.670909889116487 0.84246320149810572 0 0.75470957328743171 0.6560590369687036 I I #
point $-1 -35.505211109761333 -22.016029285188459 6.6274627757541138 #
point $-1 -9.0977363083000959 -28.670909889116491 0.84246320149810261 #
straight-curve $-1 0 -28.670909889116491 6.6274627757541138 1 0 0 I I #
vertex $-1 $389 $542 #
point $-1 -25.960218309343844 -21.682537226131348 -0.47645785055091416 #
vertex $-1 $393 $543 #
point $-1 -14.642729108717596 -21.682537226131348 -0.47645785055091416 #
edge $-1 $497 43.839947883860965 $500 49.624947458116971 $398 $544 forward 7 unknown #
vertex $-1 $412 $545 #
straight-curve $-1 27.231783671384843 -57.839935607636271 6.6274627757541111 0 -1 0 I I #
edge $-1 $500 7.0140231353271112 $409 33.421497936788349 $408 $546 forward 7 unknown #
vertex $-1 $499 $547 #
straight-curve $-1 27.231783671384843 -28.670909889116487 0.84246320149810572 0 0.75470957328743171 0.6560590369687036 I I #
point $-1 27.231783671384843 -22.016029285188459 6.6274627757541138 #
point $-1 53.63925847284608 -28.670909889116491 0.84246320149810261 #
straight-curve $-1 0 -28.670909889116491 6.6274627757541138 1 0 0 I I #
vertex $-1 $415 $548 #
point $-1 36.776776471802336 -21.682537226131348 -0.47645785055091416 #
vertex $-1 $419 $549 #
point $-1 48.094265672428577 -21.682537226131348 -0.47645785055091416 #
coedge $-1 $434 $433 $426 $510 forward $423 $-1 #
edge $-1 $511 64.01812356481237 $514 67.066390838906045 $509 $550 forward 7 unknown #
vertex $-1 $438 $551 #
straight-curve $-1 -10.307729023957894 36.20172543945877 6.6274627757541111 0 1 0 I I #
edge $-1 $514 -3.34703944561711 $435 30.656576384767121 $434 $552 forward 7 unknown #
vertex $-1 $513 $553 #
straight-curve $-1 -10.307729023957894 -14.605510447238515 41.198814563400916 0 -0.75470957328743171 0.6560590369687036 I I #
point $-1 -10.307729023957894 25.164279595100709 6.6274627757541111 #
point $-1 -44.311344854342124 28.670909889116487 3.5791955016604433 #
straight-curve $-1 0 28.670909889116491 6.6274627757541138 -1 0 0 I I #
vertex $-1 $441 $554 #
point $-1 -33.596026045660921 25.269908887794706 3.2078834273477801 #
vertex $-1 $445 $555 #
point $-1 -19.023047832639108 25.269908887794706 3.2078834273477801 #
straight-curve $-1 -66.31183812982573 28.670909889116491 0 0 0 -1 I I #
point $-1 -66.31183812982573 -28.670909889116491 -6.6274627757541138 #
straight-curve $-1 -66.31183812982573 0 -6.6274627757541138 0 1 0 I I #
point $-1 -66.31183812982573 28.670909889116491 -6.6274627757541138 #
coedge $-1 $532 $466 $469 $529 reversed $352 $-1 #
straight-curve $-1 -73.461524827184832 28.670909889116491 -1.9881104332394175 0 0 -1 I I #
edge $-1 $534 -28.670909889116491 $470 28.670909889116491 $527 $556 forward 7 unknown #
point $-1 -73.461524827184832 28.670909889116491 -3.4881104332394175 #
point $-1 -73.461524827184832 28.670909889116491 -0.48811043323941727 #
coedge $-1 $479 $527 $476 $533 reversed $352 $-1 #
edge $-1 $481 -1.5000000000000002 $534 1.5 $532 $557 forward 7 unknown #
vertex $-1 $529 $558 #
straight-curve $-1 -69.886681478505281 -28.670909889116491 -3.4881104332394175 -1 0 0 I I #
straight-curve $-1 -73.461524827184832 0 -0.48811043323941727 0 -1 0 I I #
point $-1 -73.461524827184832 -28.670909889116491 -0.48811043323941727 #
straight-curve $-1 -35.505211109761333 -28.670909889116487 50.467410659615076 0 0 -1 I I #
point $-1 -35.505211109761333 -28.670909889116491 6.6274627757541138 #
straight-curve $-1 -11.150736854515358 -28.670909889116491 0.84246320149810172 1 0 0 I I #
point $-1 -35.505211109761333 -28.670909889116491 0.84246320149810261 #
point $-1 -27.960218309343844 -20.370419152193943 -1.9858769971257777 #
point $-1 -16.642729108717596 -20.370419152193943 -1.9858769971257777 #
straight-curve $-1 27.231783671384843 -28.670909889116487 50.467410659615076 0 0 -1 I I #
point $-1 27.231783671384843 -28.670909889116491 6.6274627757541138 #
straight-curve $-1 20.217760536057732 -28.670909889116491 0.84246320149810172 1 0 0 I I #
point $-1 27.231783671384843 -28.670909889116491 0.84246320149810261 #
point $-1 34.776776471802336 -20.370419152193943 -1.9858769971257777 #
point $-1 46.094265672428577 -20.370419152193943 -1.9858769971257777 #
straight-curve $-1 -10.307729023957894 28.670909889116491 70.645586340566481 0 0 -1 I I #
point $-1 -10.307729023957894 28.670909889116491 6.6274627757541138 #
straight-curve $-1 -13.654768469575004 28.670909889116491 3.5791955016604433 -1 0 0 I I #
point $-1 -10.307729023957894 28.670909889116487 3.5791955016604433 #
point $-1 -34.596026045660921 24.613849850826 2.4531738540603483 #
point $-1 -20.023047832639108 24.613849850826 2.4531738540603483 #
straight-curve $-1 -73.461524827184832 0 -3.4881104332394175 0 1 0 I I #
straight-curve $-1 -73.461524827184832 -28.670909889116491 -1.9881104332394175 0 0 -1 I I #
point $-1 -73.461524827184832 -28.670909889116491 -3.4881104332394175 #
End-of-ACIS-data 