500 0 15 0           
7 Unknown 11 ACIS 5.0 NT 24 Fri Mar 26 20:24:14 1999 
-1 9.9999999999999995e-007 1e-010 
body $-1 $15 $-1 $16 #
body $-1 $17 $-1 $18 #
body $-1 $19 $-1 $20 #
body $-1 $21 $-1 $22 #
body $-1 $23 $-1 $24 #
body $-1 $25 $-1 $26 #
body $-1 $27 $-1 $28 #
body $-1 $29 $-1 $30 #
body $-1 $31 $-1 $32 #
body $-1 $33 $-1 $34 #
body $-1 $35 $-1 $36 #
body $-1 $37 $-1 $38 #
body $-1 $39 $-1 $40 #
body $-1 $41 $-1 $42 #
body $-1 $43 $-1 $44 #
lump $-1 $-1 $45 $0 #
transform $-1 1 0 0 0 1 0 0 0 1 46.66035950804163 25.117875158738837 6.4599553678311699 1 rotate no_reflect no_shear #
lump $-1 $-1 $46 $1 #
transform $-1 1 0 0 0 1 0 0 0 1 46.66035950804163 25.117875158738837 6.4599553678311699 1 rotate no_reflect no_shear #
lump $-1 $-1 $47 $2 #
transform $-1 1 0 0 0 1 0 0 0 1 46.66035950804163 25.117875158738837 6.4599553678311699 1 rotate no_reflect no_shear #
lump $-1 $-1 $48 $3 #
transform $-1 1 0 0 0 1 0 0 0 1 46.66035950804163 25.117875158738837 6.4599553678311699 1 rotate no_reflect no_shear #
lump $-1 $-1 $49 $4 #
transform $-1 1 0 0 0 1 0 0 0 1 46.66035950804163 25.117875158738837 6.4599553678311699 1 rotate no_reflect no_shear #
lump $-1 $-1 $50 $5 #
transform $-1 1 0 0 0 1 0 0 0 1 46.66035950804163 25.117875158738837 6.4599553678311699 1 rotate no_reflect no_shear #
lump $-1 $-1 $51 $6 #
transform $-1 1 0 0 0 1 0 0 0 1 46.66035950804163 25.117875158738837 6.4599553678311699 1 rotate no_reflect no_shear #
lump $-1 $-1 $52 $7 #
transform $-1 1 0 0 0 1 0 0 0 1 46.66035950804163 25.117875158738837 6.4599553678311699 1 rotate no_reflect no_shear #
lump $-1 $-1 $53 $8 #
transform $-1 1 0 0 0 1 0 0 0 1 46.66035950804163 25.117875158738837 6.4599553678311699 1 rotate no_reflect no_shear #
lump $-1 $-1 $54 $9 #
transform $-1 1 0 0 0 1 0 0 0 1 46.66035950804163 25.117875158738837 6.4599553678311699 1 rotate no_reflect no_shear #
lump $-1 $-1 $55 $10 #
transform $-1 1 0 0 0 1 0 0 0 1 46.66035950804163 25.117875158738837 6.4599553678311699 1 rotate no_reflect no_shear #
lump $-1 $-1 $56 $11 #
transform $-1 1 0 0 0 1 0 0 0 1 46.66035950804163 25.117875158738837 6.4599553678311699 1 rotate no_reflect no_shear #
lump $-1 $-1 $57 $12 #
transform $-1 1 0 0 0 1 0 0 0 1 46.66035950804163 25.117875158738837 6.4599553678311699 1 rotate no_reflect no_shear #
lump $-1 $-1 $58 $13 #
transform $-1 1 0 0 0 1 0 0 0 1 46.66035950804163 25.117875158738837 6.4599553678311699 1 rotate no_reflect no_shear #
lump $-1 $-1 $59 $14 #
transform $-1 1 0 0 0 1 0 0 0 1 46.66035950804163 25.117875158738837 6.4599553678311699 1 rotate no_reflect no_shear #
shell $-1 $-1 $-1 $60 $-1 $15 #
shell $-1 $-1 $-1 $61 $-1 $17 #
shell $-1 $-1 $-1 $62 $-1 $19 #
shell $-1 $-1 $-1 $63 $-1 $21 #
shell $-1 $-1 $-1 $64 $-1 $23 #
shell $-1 $-1 $-1 $65 $-1 $25 #
shell $-1 $-1 $-1 $66 $-1 $27 #
shell $-1 $-1 $-1 $67 $-1 $29 #
shell $-1 $-1 $-1 $68 $-1 $31 #
shell $-1 $-1 $-1 $69 $-1 $33 #
shell $-1 $-1 $-1 $70 $-1 $35 #
shell $-1 $-1 $-1 $71 $-1 $37 #
shell $-1 $-1 $-1 $72 $-1 $39 #
shell $-1 $-1 $-1 $73 $-1 $41 #
shell $-1 $-1 $-1 $74 $-1 $43 #
face $-1 $75 $76 $45 $-1 $77 forward single #
face $-1 $78 $79 $46 $-1 $80 reversed single #
face $-1 $81 $82 $47 $-1 $83 forward single #
face $-1 $84 $85 $48 $-1 $86 reversed single #
face $-1 $87 $88 $49 $-1 $89 forward single #
face $-1 $90 $91 $50 $-1 $92 forward single #
face $-1 $93 $94 $51 $-1 $95 reversed single #
face $-1 $96 $97 $52 $-1 $98 forward single #
face $-1 $99 $100 $53 $-1 $101 forward single #
face $-1 $102 $103 $54 $-1 $104 reversed single #
face $-1 $105 $106 $55 $-1 $107 forward single #
face $-1 $108 $109 $56 $-1 $110 forward single #
face $-1 $111 $112 $57 $-1 $113 reversed single #
face $-1 $114 $115 $58 $-1 $116 forward single #
face $-1 $117 $118 $59 $-1 $119 forward single #
face $-1 $120 $121 $45 $-1 $122 reversed single #
loop $-1 $-1 $123 $60 #
plane-surface $-1 0 0 6.4599553678311699 0 0 1 1 0 0 forward_v I I I I #
face $-1 $124 $125 $46 $-1 $126 reversed single #
loop $-1 $-1 $127 $61 #
plane-surface $-1 0 -21.784191602386343 3.4599553678311699 0 0 1 1 0 0 forward_v I I I I #
face $-1 $128 $129 $47 $-1 $130 reversed single #
loop $-1 $-1 $131 $62 #
plane-surface $-1 0 21.762461926778489 -3.2939522777710257 0 0 1 1 0 0 forward_v I I I I #
face $-1 $132 $133 $48 $-1 $134 reversed single #
loop $-1 $-1 $135 $63 #
plane-surface $-1 -117.09040095625306 -7.4777740479609527 62.370952702805567 0 -1 0 0.75470958851134928 0 -0.65605901945558964 forward_v I I I I #
face $-1 $136 $137 $49 $-1 $138 forward single #
loop $-1 $139 $140 $64 #
cone-surface $-1 -43.321987235709905 -13.578448260155866 2.9088738429643426 0.75470958851134928 0 -0.65605901945558964 0.65605901945558964 0 0.75470958851134928 1 I I 0 1 1 forward I I I I #
face $-1 $141 $142 $50 $-1 $143 forward single #
loop $-1 $144 $145 $65 #
cone-surface $-1 -43.321987235709905 -9.9180437328389175 2.9088738429643426 0.75470958851134928 0 -0.65605901945558964 0.65605901945558964 0 0.75470958851134928 1 I I 0 1 1 forward I I I I #
face $-1 $146 $147 $51 $-1 $148 reversed single #
loop $-1 $-1 $149 $66 #
plane-surface $-1 -117.09040095625306 10.951004322465042 62.370952702805567 0 -1 0 0.75470958851134928 0 -0.65605901945558964 forward_v I I I I #
face $-1 $150 $151 $52 $-1 $152 forward single #
loop $-1 $153 $154 $67 #
cone-surface $-1 -43.321987235709905 4.8503301102701286 2.9088738429643426 0.75470958851134928 0 -0.65605901945558964 0.65605901945558964 0 0.75470958851134928 1 I I 0 1 1 forward I I I I #
face $-1 $155 $156 $53 $-1 $157 forward single #
loop $-1 $158 $159 $68 #
cone-surface $-1 -43.321987235709905 8.5107346375870812 2.9088738429643426 0.75470958851134928 0 -0.65605901945558964 0.65605901945558964 0 0.75470958851134928 1 I I 0 1 1 forward I I I I #
face $-1 $160 $161 $54 $-1 $162 reversed single #
loop $-1 $-1 $163 $69 #
plane-surface $-1 55.866501543670886 -7.4777740479609527 132.80099415101702 0 -1 0 -0.75470958851134928 0 -0.65605901945558964 forward_v I I I I #
face $-1 $164 $165 $55 $-1 $166 forward single #
loop $-1 $167 $168 $70 #
cone-surface $-1 43.321987235709912 -13.578448260155866 2.9088738429643266 -0.75470958851134928 0 -0.65605901945558964 0.65605901945558964 0 -0.75470958851134928 1 I I 0 1 1 forward I I I I #
face $-1 $169 $170 $56 $-1 $171 forward single #
loop $-1 $172 $173 $71 #
cone-surface $-1 43.321987235709912 -9.9180437328389175 2.9088738429643266 -0.75470958851134928 0 -0.65605901945558964 0.65605901945558964 0 -0.75470958851134928 1 I I 0 1 1 forward I I I I #
face $-1 $174 $175 $57 $-1 $176 reversed single #
loop $-1 $-1 $177 $72 #
plane-surface $-1 55.866501543670886 10.951004322465042 132.80099415101702 0 -1 0 -0.75470958851134928 0 -0.65605901945558964 forward_v I I I I #
face $-1 $178 $179 $58 $-1 $180 forward single #
loop $-1 $181 $182 $73 #
cone-surface $-1 43.321987235709912 4.8503301102701286 2.9088738429643266 -0.75470958851134928 0 -0.65605901945558964 0.65605901945558964 0 -0.75470958851134928 1 I I 0 1 1 forward I I I I #
face $-1 $183 $184 $59 $-1 $185 forward single #
loop $-1 $186 $187 $74 #
cone-surface $-1 43.321987235709912 8.5107346375870812 2.9088738429643266 -0.75470958851134928 0 -0.65605901945558964 0.65605901945558964 0 -0.75470958851134928 1 I I 0 1 1 forward I I I I #
face $-1 $188 $189 $45 $-1 $190 reversed single #
loop $-1 $-1 $191 $75 #
plane-surface $-1 0 0 -6.4599553678311699 0 0 1 1 0 0 forward_v I I I I #
coedge $-1 $192 $193 $194 $195 forward $76 $-1 #
face $-1 $196 $197 $46 $-1 $198 reversed single #
loop $-1 $-1 $199 $78 #
plane-surface $-1 0 -18.45050804603385 4.9599553678311699 0 -1 0 0 0 -1 forward_v I I I I #
coedge $-1 $200 $201 $202 $203 reversed $79 $-1 #
face $-1 $204 $205 $47 $-1 $206 reversed single #
loop $-1 $-1 $207 $81 #
plane-surface $-1 0 18.407048694818144 -4.8769538228010978 0 1 0 0 0 1 forward_v I I I I #
coedge $-1 $208 $209 $210 $211 reversed $82 $-1 #
face $-1 $212 $213 $48 $-1 $214 reversed single #
loop $-1 $-1 $215 $84 #
plane-surface $-1 -46.660359508041623 -11.748245996497392 1.1470532902233828 -0.75470958851134928 0 0.65605901945558964 0.65605901945558964 0 0.75470958851134928 forward_v I I I I #
coedge $-1 $216 $217 $218 $219 reversed $85 $-1 #
face $-1 $-1 $220 $49 $-1 $221 forward single #
loop $-1 $222 $223 $87 #
cone-surface $-1 -41.915477767890636 -13.578448260155866 1.6862138471736072 0.75470958851134928 0 -0.65605901945558964 0.32802950972779482 0 0.37735479425567464 1 I I -0.70710678118654746 0.70710678118654746 0.5 forward I I I I #
loop $-1 $-1 $224 $64 #
coedge $-1 $140 $140 $225 $226 reversed $88 $-1 #
face $-1 $-1 $227 $50 $-1 $228 forward single #
loop $-1 $229 $230 $90 #
cone-surface $-1 -41.915477767890636 -9.9180437328389175 1.6862138471736072 0.75470958851134928 0 -0.65605901945558964 0.32802950972779482 0 0.37735479425567464 1 I I -0.70710678118654746 0.70710678118654746 0.5 forward I I I I #
loop $-1 $-1 $231 $65 #
coedge $-1 $145 $145 $232 $233 reversed $91 $-1 #
face $-1 $234 $235 $51 $-1 $236 reversed single #
loop $-1 $-1 $237 $93 #
plane-surface $-1 -46.660359508041623 6.6805323739286031 1.1470532902233828 -0.75470958851134928 0 0.65605901945558964 0.65605901945558964 0 0.75470958851134928 forward_v I I I I #
coedge $-1 $238 $239 $240 $241 reversed $94 $-1 #
face $-1 $-1 $242 $52 $-1 $243 forward single #
loop $-1 $244 $245 $96 #
cone-surface $-1 -41.915477767890636 4.8503301102701286 1.6862138471736072 0.75470958851134928 0 -0.65605901945558964 0.32802950972779482 0 0.37735479425567464 1 I I -0.70710678118654746 0.70710678118654746 0.5 forward I I I I #
loop $-1 $-1 $246 $67 #
coedge $-1 $154 $154 $247 $248 reversed $97 $-1 #
face $-1 $-1 $249 $53 $-1 $250 forward single #
loop $-1 $251 $252 $99 #
cone-surface $-1 -41.915477767890636 8.5107346375870812 1.6862138471736072 0.75470958851134928 0 -0.65605901945558964 0.32802950972779482 0 0.37735479425567464 1 I I -0.70710678118654746 0.70710678118654746 0.5 forward I I I I #
loop $-1 $-1 $253 $68 #
coedge $-1 $159 $159 $254 $255 reversed $100 $-1 #
face $-1 $256 $257 $54 $-1 $258 reversed single #
loop $-1 $-1 $259 $102 #
plane-surface $-1 -14.563539904540555 -11.748245996497392 71.577094738434837 0.75470958851134928 0 0.65605901945558964 0.65605901945558964 0 -0.75470958851134928 forward_v I I I I #
coedge $-1 $260 $261 $262 $263 reversed $103 $-1 #
face $-1 $-1 $264 $55 $-1 $265 forward single #
loop $-1 $266 $267 $105 #
cone-surface $-1 41.915477767890643 -13.578448260155866 1.6862138471735912 -0.75470958851134928 0 -0.65605901945558964 0.32802950972779482 0 -0.37735479425567464 1 I I -0.70710678118654746 0.70710678118654746 0.5 forward I I I I #
loop $-1 $-1 $268 $70 #
coedge $-1 $168 $168 $269 $270 reversed $106 $-1 #
face $-1 $-1 $271 $56 $-1 $272 forward single #
loop $-1 $273 $274 $108 #
cone-surface $-1 41.915477767890643 -9.9180437328389175 1.6862138471735912 -0.75470958851134928 0 -0.65605901945558964 0.32802950972779482 0 -0.37735479425567464 1 I I -0.70710678118654746 0.70710678118654746 0.5 forward I I I I #
loop $-1 $-1 $275 $71 #
coedge $-1 $173 $173 $276 $277 reversed $109 $-1 #
face $-1 $278 $279 $57 $-1 $280 reversed single #
loop $-1 $-1 $281 $111 #
plane-surface $-1 -14.563539904540555 6.6805323739286031 71.577094738434837 0.75470958851134928 0 0.65605901945558964 0.65605901945558964 0 -0.75470958851134928 forward_v I I I I #
coedge $-1 $282 $283 $284 $285 reversed $112 $-1 #
face $-1 $-1 $286 $58 $-1 $287 forward single #
loop $-1 $288 $289 $114 #
cone-surface $-1 41.915477767890643 4.8503301102701286 1.6862138471735912 -0.75470958851134928 0 -0.65605901945558964 0.32802950972779482 0 -0.37735479425567464 1 I I -0.70710678118654746 0.70710678118654746 0.5 forward I I I I #
loop $-1 $-1 $290 $73 #
coedge $-1 $182 $182 $291 $292 reversed $115 $-1 #
face $-1 $-1 $293 $59 $-1 $294 forward single #
loop $-1 $295 $296 $117 #
cone-surface $-1 41.915477767890643 8.5107346375870812 1.6862138471735912 -0.75470958851134928 0 -0.65605901945558964 0.32802950972779482 0 -0.37735479425567464 1 I I -0.70710678118654746 0.70710678118654746 0.5 forward I I I I #
loop $-1 $-1 $297 $74 #
coedge $-1 $187 $187 $298 $299 reversed $118 $-1 #
face $-1 $300 $301 $45 $-1 $302 reversed single #
loop $-1 $-1 $303 $120 #
plane-surface $-1 0 -25.117875158738837 0 0 1 0 0 0 1 forward_v I I I I #
coedge $-1 $304 $305 $306 $307 forward $121 $-1 #
coedge $-1 $308 $123 $309 $310 forward $76 $-1 #
coedge $-1 $123 $308 $311 $312 forward $76 $-1 #
coedge $-1 $313 $314 $123 $195 reversed $315 $-1 #
edge $-1 $316 -25.117875158738837 $317 25.117875158738837 $194 $318 forward 7 unknown #
face $-1 $319 $320 $46 $-1 $321 reversed single #
loop $-1 $-1 $322 $124 #
plane-surface $-1 -46.66035950804163 0 0 1 0 0 0 0 -1 forward_v I I I I #
coedge $-1 $323 $324 $325 $326 reversed $125 $-1 #
coedge $-1 $327 $127 $328 $329 reversed $79 $-1 #
coedge $-1 $127 $327 $323 $330 forward $79 $-1 #
coedge $-1 $325 $331 $127 $203 forward $332 $-1 #
edge $-1 $333 -14.225779357545665 $334 -7.5584122448406781 $202 $335 forward 7 unknown #
face $-1 $336 $337 $47 $-1 $338 reversed single #
loop $-1 $-1 $210 $128 #
plane-surface $-1 46.66035950804163 0 0 -1 0 0 0 0 1 forward_v I I I I #
coedge $-1 $339 $340 $341 $342 reversed $129 $-1 #
coedge $-1 $343 $131 $344 $345 reversed $82 $-1 #
coedge $-1 $131 $343 $340 $346 forward $82 $-1 #
coedge $-1 $347 $348 $131 $211 forward $205 $-1 #
edge $-1 $349 -14.236644195349589 $350 -7.5258177314288996 $210 $351 forward 7 unknown #
face $-1 $352 $353 $48 $-1 $354 reversed single #
loop $-1 $-1 $355 $132 #
plane-surface $-1 -117.09040095625306 -16.018717945033831 62.370952702805567 0 1 0 -0.75470958851134928 0 0.65605901945558964 forward_v I I I I #
coedge $-1 $356 $357 $358 $359 reversed $133 $-1 #
coedge $-1 $217 $135 $360 $361 reversed $85 $-1 #
coedge $-1 $135 $216 $356 $362 reversed $85 $-1 #
coedge $-1 $358 $363 $135 $219 forward $353 $-1 #
edge $-1 $364 24.725520983571613 $365 30.038423061179408 $218 $366 forward 7 unknown #
loop $-1 $-1 $225 $136 #
plane-surface $-1 -46.660359508041623 -11.748245996497392 1.1470532902233828 -0.75470958851134928 0 0.65605901945558964 0.65605901945558964 0 0.75470958851134928 forward_v I I I I #
loop $-1 $-1 $367 $87 #
coedge $-1 $223 $223 $224 $368 reversed $137 $-1 #
coedge $-1 $224 $224 $223 $368 forward $139 $-1 #
coedge $-1 $225 $225 $140 $226 forward $220 $-1 #
edge $-1 $369 0 $369 6.2831853071796004 $225 $370 forward 7 unknown #
loop $-1 $-1 $232 $141 #
plane-surface $-1 -46.660359508041623 -11.748245996497392 1.1470532902233828 -0.75470958851134928 0 0.65605901945558964 0.65605901945558964 0 0.75470958851134928 forward_v I I I I #
loop $-1 $-1 $371 $90 #
coedge $-1 $230 $230 $231 $372 reversed $142 $-1 #
coedge $-1 $231 $231 $230 $372 forward $144 $-1 #
coedge $-1 $232 $232 $145 $233 forward $227 $-1 #
edge $-1 $373 0 $373 6.2831853071796004 $232 $374 forward 7 unknown #
face $-1 $375 $376 $51 $-1 $377 forward single #
loop $-1 $-1 $378 $146 #
plane-surface $-1 -117.09040095625306 2.4100604253921638 62.370952702805567 0 1 0 -0.75470958851134928 0 0.65605901945558964 forward_v I I I I #
coedge $-1 $379 $380 $381 $382 reversed $147 $-1 #
coedge $-1 $239 $149 $383 $384 reversed $94 $-1 #
coedge $-1 $149 $238 $379 $385 reversed $94 $-1 #
coedge $-1 $381 $386 $149 $241 forward $387 $-1 #
edge $-1 $388 24.725520983571613 $389 30.038423061179408 $240 $390 forward 7 unknown #
loop $-1 $-1 $247 $150 #
plane-surface $-1 -46.660359508041623 6.6805323739286031 1.1470532902233828 -0.75470958851134928 0 0.65605901945558964 0.65605901945558964 0 0.75470958851134928 forward_v I I I I #
loop $-1 $-1 $391 $96 #
coedge $-1 $245 $245 $246 $392 reversed $151 $-1 #
coedge $-1 $246 $246 $245 $392 forward $153 $-1 #
coedge $-1 $247 $247 $154 $248 forward $242 $-1 #
edge $-1 $393 0 $393 6.2831853071796004 $247 $394 forward 7 unknown #
loop $-1 $-1 $254 $155 #
plane-surface $-1 -46.660359508041623 6.6805323739286031 1.1470532902233828 -0.75470958851134928 0 0.65605901945558964 0.65605901945558964 0 0.75470958851134928 forward_v I I I I #
loop $-1 $-1 $395 $99 #
coedge $-1 $252 $252 $253 $396 reversed $156 $-1 #
coedge $-1 $253 $253 $252 $396 forward $158 $-1 #
coedge $-1 $254 $254 $159 $255 forward $249 $-1 #
edge $-1 $397 0 $397 6.2831853071796004 $254 $398 forward 7 unknown #
face $-1 $399 $400 $54 $-1 $401 forward single #
loop $-1 $-1 $402 $160 #
plane-surface $-1 55.866501543670886 -16.018717945033831 132.80099415101702 0 1 0 0.75470958851134928 0 0.65605901945558964 forward_v I I I I #
coedge $-1 $403 $404 $405 $406 reversed $161 $-1 #
coedge $-1 $261 $163 $407 $408 reversed $103 $-1 #
coedge $-1 $163 $260 $403 $409 reversed $103 $-1 #
coedge $-1 $405 $410 $163 $263 forward $400 $-1 #
edge $-1 $411 -18.727108736206187 $412 -14.108673538669922 $262 $413 forward 7 unknown #
loop $-1 $-1 $269 $164 #
plane-surface $-1 -14.563539904540555 -11.748245996497392 71.577094738434837 0.75470958851134928 0 0.65605901945558964 0.65605901945558964 0 -0.75470958851134928 forward_v I I I I #
loop $-1 $-1 $414 $105 #
coedge $-1 $267 $267 $268 $415 reversed $165 $-1 #
coedge $-1 $268 $268 $267 $415 forward $167 $-1 #
coedge $-1 $269 $269 $168 $270 forward $264 $-1 #
edge $-1 $416 0 $416 6.2831853071796004 $269 $417 forward 7 unknown #
loop $-1 $-1 $276 $169 #
plane-surface $-1 -14.563539904540555 -11.748245996497392 71.577094738434837 0.75470958851134928 0 0.65605901945558964 0.65605901945558964 0 -0.75470958851134928 forward_v I I I I #
loop $-1 $-1 $418 $108 #
coedge $-1 $274 $274 $275 $419 reversed $170 $-1 #
coedge $-1 $275 $275 $274 $419 forward $172 $-1 #
coedge $-1 $276 $276 $173 $277 forward $271 $-1 #
edge $-1 $420 0 $420 6.2831853071796004 $276 $421 forward 7 unknown #
face $-1 $422 $423 $57 $-1 $424 reversed single #
loop $-1 $-1 $425 $174 #
plane-surface $-1 55.866501543670886 2.4100604253921638 132.80099415101702 0 1 0 0.75470958851134928 0 0.65605901945558964 forward_v I I I I #
coedge $-1 $426 $427 $428 $429 reversed $175 $-1 #
coedge $-1 $283 $177 $430 $431 reversed $112 $-1 #
coedge $-1 $177 $282 $426 $432 reversed $112 $-1 #
coedge $-1 $428 $433 $177 $285 forward $434 $-1 #
edge $-1 $435 -18.727108736206187 $436 -14.108673538669922 $284 $437 forward 7 unknown #
loop $-1 $-1 $291 $178 #
plane-surface $-1 -14.563539904540555 6.6805323739286031 71.577094738434837 0.75470958851134928 0 0.65605901945558964 0.65605901945558964 0 -0.75470958851134928 forward_v I I I I #
loop $-1 $-1 $438 $114 #
coedge $-1 $289 $289 $290 $439 reversed $179 $-1 #
coedge $-1 $290 $290 $289 $439 forward $181 $-1 #
coedge $-1 $291 $291 $182 $292 forward $286 $-1 #
edge $-1 $440 0 $440 6.2831853071796004 $291 $441 forward 7 unknown #
loop $-1 $-1 $298 $183 #
plane-surface $-1 -14.563539904540555 6.6805323739286031 71.577094738434837 0.75470958851134928 0 0.65605901945558964 0.65605901945558964 0 -0.75470958851134928 forward_v I I I I #
loop $-1 $-1 $442 $117 #
coedge $-1 $296 $296 $297 $443 reversed $184 $-1 #
coedge $-1 $297 $297 $296 $443 forward $186 $-1 #
coedge $-1 $298 $298 $187 $299 forward $293 $-1 #
edge $-1 $444 0 $444 6.2831853071796004 $298 $445 forward 7 unknown #
face $-1 $446 $447 $45 $-1 $448 reversed single #
loop $-1 $-1 $449 $188 #
plane-surface $-1 -46.66035950804163 0 0 1 0 0 0 0 -1 forward_v I I I I #
coedge $-1 $450 $311 $451 $452 forward $189 $-1 #
coedge $-1 $453 $191 $450 $454 forward $121 $-1 #
coedge $-1 $191 $453 $455 $456 forward $121 $-1 #
coedge $-1 $314 $313 $191 $307 reversed $315 $-1 #
edge $-1 $457 -25.117875158738837 $458 25.117875158738837 $306 $459 forward 7 unknown #
coedge $-1 $193 $192 $460 $461 forward $76 $-1 #
coedge $-1 $462 $463 $192 $310 reversed $447 $-1 #
edge $-1 $317 -46.66035950804163 $464 46.66035950804163 $309 $465 forward 7 unknown #
coedge $-1 $303 $466 $193 $312 reversed $189 $-1 #
edge $-1 $467 -46.66035950804163 $316 46.66035950804163 $311 $468 forward 7 unknown #
coedge $-1 $306 $194 $466 $469 forward $315 $-1 #
coedge $-1 $194 $306 $462 $470 reversed $315 $-1 #
loop $-1 $-1 $313 $446 #
vertex $-1 $195 $471 #
vertex $-1 $195 $472 #
straight-curve $-1 46.66035950804163 0 6.4599553678311699 0 1 0 I I #
face $-1 $473 $474 $46 $-1 $475 forward single #
loop $-1 $-1 $328 $196 #
plane-surface $-1 0 -25.117875158738837 0 0 1 0 0 0 1 forward_v I I I I #
coedge $-1 $476 $477 $478 $479 forward $197 $-1 #
coedge $-1 $478 $199 $201 $330 reversed $125 $-1 #
coedge $-1 $199 $478 $480 $481 reversed $125 $-1 #
coedge $-1 $482 $202 $199 $326 forward $332 $-1 #
edge $-1 $334 0.97997768391558493 $483 3.9799776839155849 $325 $484 forward 7 unknown #
coedge $-1 $201 $200 $476 $485 reversed $79 $-1 #
coedge $-1 $486 $487 $200 $329 forward $320 $-1 #
edge $-1 $488 -46.66035950804163 $333 46.66035950804163 $328 $489 forward 7 unknown #
edge $-1 $490 -46.66035950804163 $334 46.66035950804163 $323 $491 forward 7 unknown #
coedge $-1 $202 $482 $486 $492 forward $332 $-1 #
loop $-1 $-1 $325 $473 #
vertex $-1 $329 $493 #
vertex $-1 $203 $494 #
straight-curve $-1 46.66035950804163 -10.892095801193172 3.4599553678311699 0 1 0 I I #
face $-1 $495 $496 $47 $-1 $497 reversed single #
loop $-1 $-1 $498 $204 #
plane-surface $-1 0 0 -6.4599553678311699 0 0 1 1 0 0 forward_v I I I I #
coedge $-1 $499 $207 $498 $500 reversed $129 $-1 #
coedge $-1 $207 $499 $209 $346 reversed $129 $-1 #
coedge $-1 $501 $502 $207 $342 forward $496 $-1 #
edge $-1 $503 -4.0214784564306214 $504 -0.85547536637047683 $341 $505 forward 7 unknown #
coedge $-1 $209 $208 $501 $506 reversed $82 $-1 #
coedge $-1 $507 $508 $208 $345 forward $509 $-1 #
edge $-1 $510 -46.66035950804163 $349 46.66035950804163 $344 $511 forward 7 unknown #
edge $-1 $504 -46.66035950804163 $350 46.66035950804163 $340 $512 forward 7 unknown #
coedge $-1 $513 $210 $499 $514 forward $205 $-1 #
coedge $-1 $210 $513 $507 $515 reversed $205 $-1 #
vertex $-1 $515 $516 #
vertex $-1 $211 $517 #
straight-curve $-1 46.66035950804163 10.881230963389244 -3.2939522777710257 0 -1 0 I I #
face $-1 $-1 $518 $48 $-1 $519 forward single #
loop $-1 $-1 $218 $212 #
plane-surface $-1 -46.66035950804163 0 0 1 0 0 0 0 -1 forward_v I I I I #
coedge $-1 $520 $521 $522 $523 reversed $213 $-1 #
coedge $-1 $524 $215 $217 $362 forward $133 $-1 #
coedge $-1 $215 $524 $520 $525 forward $133 $-1 #
coedge $-1 $522 $218 $215 $359 forward $353 $-1 #
edge $-1 $365 1.6036510497122567 $526 10.144594946785135 $358 $527 forward 7 unknown #
coedge $-1 $528 $529 $216 $361 forward $518 $-1 #
edge $-1 $530 -16.503276167621181 $364 -11.884840970084902 $360 $531 forward 7 unknown #
edge $-1 $365 -1.086200982436365e-014 $530 7.039664207907296 $217 $532 forward 7 unknown #
coedge $-1 $218 $522 $528 $533 reversed $353 $-1 #
vertex $-1 $533 $534 #
vertex $-1 $219 $535 #
straight-curve $-1 -46.66035950804163 -7.4777740479609527 31.185476351402784 0 0 -1 I I #
coedge $-1 $367 $367 $-1 $536 reversed $222 $-1 #
edge $-1 $537 0 $537 6.2831853071796004 $223 $538 forward 7 unknown #
vertex $-1 $226 $539 #
ellipse-curve $-1 -44.351141909273487 -13.578448260155866 3.8035043290272736 -0.75470958851134928 0 0.65605901945558964 0.65605901945558964 0 0.75470958851134928 1 I I #
coedge $-1 $371 $371 $-1 $540 reversed $229 $-1 #
edge $-1 $541 0 $541 6.2831853071796004 $230 $542 forward 7 unknown #
vertex $-1 $233 $543 #
ellipse-curve $-1 -44.351141909273487 -9.9180437328389175 3.8035043290272736 -0.75470958851134928 0 0.65605901945558964 0.65605901945558964 0 0.75470958851134928 1 I I #
face $-1 $-1 $387 $51 $-1 $544 reversed single #
loop $-1 $-1 $545 $234 #
plane-surface $-1 0 0 6.4599553678311699 0 0 1 1 0 0 forward_v I I I I #
coedge $-1 $546 $547 $548 $549 reversed $235 $-1 #
coedge $-1 $550 $237 $239 $385 forward $147 $-1 #
coedge $-1 $237 $550 $546 $551 forward $147 $-1 #
coedge $-1 $548 $240 $237 $382 forward $387 $-1 #
edge $-1 $389 -7.6107381355007409 $552 0.93020576157213775 $381 $553 forward 7 unknown #
coedge $-1 $554 $555 $238 $384 forward $376 $-1 #
edge $-1 $556 -16.503276167621181 $388 -11.884840970084902 $383 $557 forward 7 unknown #
edge $-1 $389 -1.086200982436365e-014 $556 7.039664207907296 $239 $558 forward 7 unknown #
coedge $-1 $240 $548 $554 $559 reversed $387 $-1 #
loop $-1 $-1 $548 $375 #
vertex $-1 $559 $560 #
vertex $-1 $241 $561 #
straight-curve $-1 -46.66035950804163 10.951004322465042 31.185476351402784 0 0 -1 I I #
coedge $-1 $391 $391 $-1 $562 reversed $244 $-1 #
edge $-1 $563 0 $563 6.2831853071796004 $245 $564 forward 7 unknown #
vertex $-1 $248 $565 #
ellipse-curve $-1 -44.351141909273487 4.8503301102701286 3.8035043290272736 -0.75470958851134928 0 0.65605901945558964 0.65605901945558964 0 0.75470958851134928 1 I I #
coedge $-1 $395 $395 $-1 $566 reversed $251 $-1 #
edge $-1 $567 0 $567 6.2831853071796004 $252 $568 forward 7 unknown #
vertex $-1 $255 $569 #
ellipse-curve $-1 -44.351141909273487 8.5107346375870812 3.8035043290272736 -0.75470958851134928 0 0.65605901945558964 0.65605901945558964 0 0.75470958851134928 1 I I #
face $-1 $-1 $570 $54 $-1 $571 reversed single #
loop $-1 $-1 $262 $256 #
plane-surface $-1 0 0 6.4599553678311699 0 0 1 1 0 0 forward_v I I I I #
coedge $-1 $572 $573 $574 $575 reversed $257 $-1 #
coedge $-1 $576 $259 $261 $409 forward $161 $-1 #
coedge $-1 $259 $576 $572 $577 forward $161 $-1 #
coedge $-1 $574 $262 $259 $406 forward $400 $-1 #
edge $-1 $412 1.6036510497122567 $578 10.144594946785135 $405 $579 forward 7 unknown #
coedge $-1 $580 $581 $260 $408 forward $570 $-1 #
edge $-1 $582 -65.253443785285114 $411 -59.94054170767734 $407 $583 forward 7 unknown #
edge $-1 $412 86.281054808175995 $582 93.320719016083288 $261 $584 forward 7 unknown #
coedge $-1 $262 $574 $580 $585 forward $400 $-1 #
vertex $-1 $263 $586 #
vertex $-1 $263 $587 #
straight-curve $-1 27.933250771835443 -7.4777740479609527 6.4599553678311707 -1 0 0 I I #
coedge $-1 $414 $414 $-1 $588 reversed $266 $-1 #
edge $-1 $589 0 $589 6.2831853071796004 $267 $590 forward 7 unknown #
vertex $-1 $270 $591 #
ellipse-curve $-1 44.351141909273508 -13.578448260155866 3.8035043290272701 0.75470958851134928 0 0.65605901945558964 0.65605901945558964 0 -0.75470958851134928 1 I I #
coedge $-1 $418 $418 $-1 $592 reversed $273 $-1 #
edge $-1 $593 0 $593 6.2831853071796004 $274 $594 forward 7 unknown #
vertex $-1 $277 $595 #
ellipse-curve $-1 44.351141909273508 -9.9180437328389175 3.8035043290272701 0.75470958851134928 0 0.65605901945558964 0.65605901945558964 0 -0.75470958851134928 1 I I #
face $-1 $-1 $434 $57 $-1 $596 forward single #
loop $-1 $-1 $597 $278 #
plane-surface $-1 46.66035950804163 0 0 -1 0 0 0 0 1 forward_v I I I I #
coedge $-1 $598 $599 $600 $601 reversed $279 $-1 #
coedge $-1 $602 $281 $283 $432 forward $175 $-1 #
coedge $-1 $281 $602 $598 $603 forward $175 $-1 #
coedge $-1 $600 $284 $281 $429 forward $434 $-1 #
edge $-1 $436 -7.6107381355007409 $604 0.93020576157213775 $428 $605 forward 7 unknown #
coedge $-1 $606 $607 $282 $431 forward $423 $-1 #
edge $-1 $608 -65.253443785285114 $435 -59.94054170767734 $430 $609 forward 7 unknown #
edge $-1 $436 86.281054808175995 $608 93.320719016083288 $283 $610 forward 7 unknown #
coedge $-1 $284 $600 $606 $611 forward $434 $-1 #
loop $-1 $-1 $600 $422 #
vertex $-1 $431 $612 #
vertex $-1 $285 $613 #
straight-curve $-1 27.933250771835443 10.951004322465042 6.4599553678311707 -1 0 0 I I #
coedge $-1 $438 $438 $-1 $614 reversed $288 $-1 #
edge $-1 $615 0 $615 6.2831853071796004 $289 $616 forward 7 unknown #
vertex $-1 $292 $617 #
ellipse-curve $-1 44.351141909273508 4.8503301102701286 3.8035043290272701 0.75470958851134928 0 0.65605901945558964 0.65605901945558964 0 -0.75470958851134928 1 I I #
coedge $-1 $442 $442 $-1 $618 reversed $295 $-1 #
edge $-1 $619 0 $619 6.2831853071796004 $296 $620 forward 7 unknown #
vertex $-1 $299 $621 #
ellipse-curve $-1 44.351141909273508 8.5107346375870812 3.8035043290272701 0.75470958851134928 0 0.65605901945558964 0.65605901945558964 0 -0.75470958851134928 1 I I #
face $-1 $-1 $315 $45 $-1 $622 reversed single #
loop $-1 $-1 $462 $300 #
plane-surface $-1 0 25.117875158738837 0 0 -1 0 0 0 -1 forward_v I I I I #
coedge $-1 $623 $460 $463 $624 forward $301 $-1 #
coedge $-1 $466 $303 $304 $454 reversed $189 $-1 #
coedge $-1 $460 $623 $303 $452 reversed $301 $-1 #
edge $-1 $467 -6.4599553678311699 $625 6.4599553678311699 $451 $626 forward 7 unknown #
coedge $-1 $305 $304 $623 $627 forward $121 $-1 #
edge $-1 $458 -46.66035950804163 $625 46.66035950804163 $450 $628 forward 7 unknown #
coedge $-1 $463 $462 $305 $456 reversed $447 $-1 #
edge $-1 $629 -46.66035950804163 $457 46.66035950804163 $455 $630 forward 7 unknown #
vertex $-1 $307 $631 #
vertex $-1 $469 $632 #
straight-curve $-1 46.66035950804163 0 -6.4599553678311699 0 -1 0 I I #
coedge $-1 $449 $451 $308 $461 reversed $301 $-1 #
edge $-1 $464 -25.117875158738837 $467 25.117875158738837 $460 $633 forward 7 unknown #
coedge $-1 $455 $309 $314 $470 forward $447 $-1 #
coedge $-1 $309 $455 $449 $624 reversed $447 $-1 #
vertex $-1 $310 $634 #
straight-curve $-1 0 25.117875158738837 6.4599553678311699 -1 0 0 I I #
coedge $-1 $311 $450 $313 $469 reversed $189 $-1 #
vertex $-1 $461 $635 #
straight-curve $-1 0 -25.117875158738837 6.4599553678311699 1 0 0 I I #
edge $-1 $316 -6.4599553678311699 $458 6.4599553678311699 $313 $636 forward 7 unknown #
edge $-1 $317 -6.4599553678311699 $457 6.4599553678311699 $314 $637 forward 7 unknown #
point $-1 46.66035950804163 -25.117875158738837 6.4599553678311699 #
point $-1 46.66035950804163 25.117875158738837 6.4599553678311699 #
face $-1 $-1 $332 $46 $-1 $638 reversed single #
loop $-1 $-1 $480 $319 #
plane-surface $-1 0 0 6.4599553678311699 0 0 1 1 0 0 forward_v I I I I #
coedge $-1 $639 $322 $327 $485 forward $197 $-1 #
coedge $-1 $322 $639 $640 $641 reversed $197 $-1 #
coedge $-1 $324 $323 $322 $479 reversed $125 $-1 #
edge $-1 $642 -3.9799776839155849 $490 -0.97997768391558493 $322 $643 forward 7 unknown #
coedge $-1 $640 $644 $324 $481 forward $474 $-1 #
edge $-1 $483 -46.66035950804163 $642 46.66035950804163 $480 $645 forward 7 unknown #
coedge $-1 $331 $325 $644 $646 reversed $332 $-1 #
vertex $-1 $326 $647 #
straight-curve $-1 46.66035950804163 -18.45050804603385 2.4799776839155849 0 0 1 I I #
edge $-1 $490 7.5584122448406781 $488 14.225779357545665 $476 $648 forward 7 unknown #
coedge $-1 $649 $328 $331 $492 reversed $320 $-1 #
coedge $-1 $328 $649 $639 $650 forward $320 $-1 #
vertex $-1 $329 $651 #
straight-curve $-1 0 -25.117875158738837 3.4599553678311699 1 0 0 I I #
vertex $-1 $485 $652 #
straight-curve $-1 0 -18.45050804603385 3.4599553678311699 1 0 0 I I #
edge $-1 $653 -6.4599553678311699 $333 -3.4599553678311699 $331 $654 forward 7 unknown #
point $-1 46.66035950804163 -25.117875158738837 3.4599553678311699 #
point $-1 46.66035950804163 -18.45050804603385 3.4599553678311699 #
face $-1 $-1 $509 $47 $-1 $655 reversed single #
loop $-1 $-1 $501 $336 #
plane-surface $-1 -46.66035950804163 0 0 1 0 0 0 0 -1 forward_v I I I I #
coedge $-1 $656 $657 $339 $500 forward $337 $-1 #
coedge $-1 $340 $339 $347 $514 reversed $129 $-1 #
edge $-1 $658 -46.66035950804163 $503 46.66035950804163 $498 $659 forward 7 unknown #
coedge $-1 $660 $341 $343 $506 forward $496 $-1 #
coedge $-1 $341 $660 $656 $661 reversed $496 $-1 #
vertex $-1 $661 $662 #
vertex $-1 $506 $663 #
straight-curve $-1 -46.66035950804163 18.407048694818144 -2.4384769114005489 0 0 1 I I #
edge $-1 $504 7.5258177314288996 $510 14.236644195349589 $501 $664 forward 7 unknown #
coedge $-1 $665 $344 $348 $515 forward $509 $-1 #
coedge $-1 $344 $665 $660 $666 reversed $509 $-1 #
loop $-1 $-1 $344 $495 #
vertex $-1 $666 $667 #
straight-curve $-1 0 25.117875158738837 -3.2939522777710257 1 0 0 I I #
straight-curve $-1 0 18.407048694818144 -3.2939522777710257 1 0 0 I I #
coedge $-1 $348 $347 $657 $668 reversed $205 $-1 #
edge $-1 $350 0.85547536637047683 $658 4.0214784564306214 $347 $669 forward 7 unknown #
edge $-1 $349 3.2939522777710257 $670 6.4599553678311699 $348 $671 forward 7 unknown #
point $-1 46.66035950804163 25.117875158738833 -3.2939522777710257 #
point $-1 46.66035950804163 18.407048694818144 -3.2939522777710257 #
loop $-1 $-1 $360 $352 #
plane-surface $-1 0 0 6.4599553678311699 0 0 1 1 0 0 forward_v I I I I #
coedge $-1 $521 $355 $357 $525 reversed $213 $-1 #
coedge $-1 $355 $520 $672 $673 reversed $213 $-1 #
coedge $-1 $363 $358 $355 $523 forward $353 $-1 #
edge $-1 $526 -30.038423061179408 $674 -24.725520983571613 $522 $675 forward 7 unknown #
coedge $-1 $357 $356 $529 $676 reversed $133 $-1 #
edge $-1 $677 -7.039664207907296 $526 1.086200982436365e-014 $520 $678 forward 7 unknown #
vertex $-1 $359 $679 #
straight-curve $-1 -46.66035950804163 -5.874122998248696 1.1470532902233685 0 -1 0 I I #
coedge $-1 $672 $360 $363 $533 forward $518 $-1 #
coedge $-1 $360 $672 $524 $676 forward $518 $-1 #
vertex $-1 $361 $680 #
straight-curve $-1 -58.545200478126532 -7.4777740479609527 6.4599553678311707 -1 0 0 I I #
straight-curve $-1 -46.660359508041623 -7.4777740479609527 1.1470532902233828 0.65605901945558964 0 0.75470958851134928 I I #
edge $-1 $364 7.4777740479609527 $674 16.018717945033831 $363 $681 forward 7 unknown #
point $-1 -46.66035950804163 -7.4777740479609527 6.4599553678311699 #
point $-1 -46.66035950804163 -7.4777740479609527 1.1470532902233745 #
edge $-1 $682 1 $682 0 $367 $-1 forward 7 unknown #
vertex $-1 $368 $683 #
ellipse-curve $-1 -42.292832562146309 -13.578448260155866 2.0142433569014022 -0.75470958851134928 0 0.65605901945558964 0.65605901945558964 0 0.75470958851134928 1 I I #
point $-1 -43.695082889817911 -13.578448260155866 4.5582139175386329 #
edge $-1 $684 1 $684 0 $371 $-1 forward 7 unknown #
vertex $-1 $372 $685 #
ellipse-curve $-1 -42.292832562146309 -9.9180437328389175 2.0142433569014022 -0.75470958851134928 0 0.65605901945558964 0.65605901945558964 0 0.75470958851134928 1 I I #
point $-1 -43.695082889817911 -9.9180437328389175 4.5582139175386329 #
plane-surface $-1 -46.66035950804163 0 0 1 0 0 0 0 -1 forward_v I I I I #
coedge $-1 $555 $554 $547 $686 forward $376 $-1 #
coedge $-1 $547 $378 $380 $551 reversed $235 $-1 #
coedge $-1 $378 $546 $545 $686 reversed $235 $-1 #
coedge $-1 $386 $381 $378 $549 forward $387 $-1 #
edge $-1 $552 -30.038423061179408 $687 -24.725520983571613 $548 $688 forward 7 unknown #
coedge $-1 $380 $379 $555 $689 reversed $147 $-1 #
edge $-1 $690 -7.039664207907296 $552 1.086200982436365e-014 $546 $691 forward 7 unknown #
vertex $-1 $382 $692 #
straight-curve $-1 -46.66035950804163 3.3402661869643016 1.1470532902233685 0 -1 0 I I #
coedge $-1 $545 $383 $386 $559 forward $376 $-1 #
coedge $-1 $383 $545 $550 $689 forward $376 $-1 #
vertex $-1 $384 $693 #
straight-curve $-1 -58.545200478126532 10.951004322465042 6.4599553678311707 -1 0 0 I I #
straight-curve $-1 -46.660359508041623 10.951004322465042 1.1470532902233828 0.65605901945558964 0 0.75470958851134928 I I #
edge $-1 $388 -10.951004322465042 $687 -2.4100604253921638 $386 $694 forward 7 unknown #
point $-1 -46.66035950804163 10.951004322465042 6.4599553678311699 #
point $-1 -46.66035950804163 10.951004322465042 1.1470532902233745 #
edge $-1 $695 1 $695 0 $391 $-1 forward 7 unknown #
vertex $-1 $392 $696 #
ellipse-curve $-1 -42.292832562146309 4.8503301102701286 2.0142433569014022 -0.75470958851134928 0 0.65605901945558964 0.65605901945558964 0 0.75470958851134928 1 I I #
point $-1 -43.695082889817911 4.8503301102701286 4.5582139175386329 #
edge $-1 $697 1 $697 0 $395 $-1 forward 7 unknown #
vertex $-1 $396 $698 #
ellipse-curve $-1 -42.292832562146309 8.5107346375870812 2.0142433569014022 -0.75470958851134928 0 0.65605901945558964 0.65605901945558964 0 0.75470958851134928 1 I I #
point $-1 -43.695082889817911 8.5107346375870812 4.5582139175386329 #
loop $-1 $-1 $407 $399 #
plane-surface $-1 46.66035950804163 0 0 -1 0 0 0 0 1 forward_v I I I I #
coedge $-1 $573 $402 $404 $577 reversed $257 $-1 #
coedge $-1 $402 $572 $699 $700 reversed $257 $-1 #
coedge $-1 $410 $405 $402 $575 forward $400 $-1 #
edge $-1 $578 14.108673538669922 $701 18.727108736206187 $574 $702 forward 7 unknown #
coedge $-1 $404 $403 $581 $703 reversed $161 $-1 #
edge $-1 $704 -93.320719016083288 $578 -86.281054808175995 $572 $705 forward 7 unknown #
vertex $-1 $406 $706 #
straight-curve $-1 42.041924310505365 -5.874122998248696 6.4599553678311636 0 -1 0 I I #
coedge $-1 $699 $407 $410 $585 reversed $570 $-1 #
coedge $-1 $407 $699 $576 $703 forward $570 $-1 #
vertex $-1 $408 $707 #
straight-curve $-1 46.66035950804163 -7.4777740479609527 66.400497075508511 0 0 1 I I #
straight-curve $-1 -14.563539904540555 -7.4777740479609527 71.577094738434837 0.65605901945558964 0 -0.75470958851134928 I I #
edge $-1 $701 -16.018717945033831 $411 -7.4777740479609527 $580 $708 forward 7 unknown #
point $-1 46.66035950804163 -7.4777740479609527 6.4599553678311699 #
point $-1 42.041924310505365 -7.4777740479609527 6.4599553678311707 #
edge $-1 $709 1 $709 0 $414 $-1 forward 7 unknown #
vertex $-1 $415 $710 #
ellipse-curve $-1 42.292832562146316 -13.578448260155866 2.0142433569013862 0.75470958851134928 0 0.65605901945558964 0.65605901945558964 0 -0.75470958851134928 1 I I #
point $-1 45.007200928729098 -13.578448260155866 3.0487947405159179 #
edge $-1 $711 1 $711 0 $418 $-1 forward 7 unknown #
vertex $-1 $419 $712 #
ellipse-curve $-1 42.292832562146316 -9.9180437328389175 2.0142433569013862 0.75470958851134928 0 0.65605901945558964 0.65605901945558964 0 -0.75470958851134928 1 I I #
point $-1 45.007200928729098 -9.9180437328389175 3.0487947405159179 #
plane-surface $-1 0 0 6.4599553678311699 0 0 1 1 0 0 forward_v I I I I #
coedge $-1 $607 $606 $599 $713 forward $423 $-1 #
coedge $-1 $599 $425 $427 $603 reversed $279 $-1 #
coedge $-1 $425 $598 $597 $713 reversed $279 $-1 #
coedge $-1 $433 $428 $425 $601 forward $434 $-1 #
edge $-1 $604 14.108673538669922 $714 18.727108736206187 $600 $715 forward 7 unknown #
coedge $-1 $427 $426 $607 $716 reversed $175 $-1 #
edge $-1 $717 -93.320719016083288 $604 -86.281054808175995 $598 $718 forward 7 unknown #
vertex $-1 $429 $719 #
straight-curve $-1 42.041924310505365 3.3402661869643016 6.4599553678311636 0 -1 0 I I #
coedge $-1 $597 $430 $433 $611 reversed $423 $-1 #
coedge $-1 $430 $597 $602 $716 forward $423 $-1 #
vertex $-1 $431 $720 #
straight-curve $-1 46.66035950804163 10.951004322465042 66.400497075508511 0 0 1 I I #
straight-curve $-1 -14.563539904540555 10.951004322465042 71.577094738434837 0.65605901945558964 0 -0.75470958851134928 I I #
edge $-1 $714 2.4100604253921638 $435 10.951004322465042 $606 $721 forward 7 unknown #
point $-1 46.66035950804163 10.951004322465042 6.4599553678311699 #
point $-1 42.041924310505365 10.951004322465042 6.4599553678311707 #
edge $-1 $722 1 $722 0 $438 $-1 forward 7 unknown #
vertex $-1 $439 $723 #
ellipse-curve $-1 42.292832562146316 4.8503301102701286 2.0142433569013862 0.75470958851134928 0 0.65605901945558964 0.65605901945558964 0 -0.75470958851134928 1 I I #
point $-1 45.007200928729098 4.8503301102701286 3.0487947405159179 #
edge $-1 $724 1 $724 0 $442 $-1 forward 7 unknown #
vertex $-1 $443 $725 #
ellipse-curve $-1 42.292832562146316 8.5107346375870812 2.0142433569013862 0.75470958851134928 0 0.65605901945558964 0.65605901945558964 0 -0.75470958851134928 1 I I #
point $-1 45.007200928729098 8.5107346375870812 3.0487947405159179 #
plane-surface $-1 46.66035950804163 0 0 -1 0 0 0 0 1 forward_v I I I I #
coedge $-1 $451 $449 $453 $627 reversed $301 $-1 #
edge $-1 $464 -6.4599553678311699 $629 6.4599553678311699 $463 $726 forward 7 unknown #
vertex $-1 $627 $727 #
straight-curve $-1 -46.66035950804163 -25.117875158738837 0 0 0 -1 I I #
edge $-1 $625 -25.117875158738837 $629 25.117875158738837 $623 $728 forward 7 unknown #
straight-curve $-1 0 -25.117875158738837 -6.4599553678311699 -1 0 0 I I #
vertex $-1 $456 $729 #
straight-curve $-1 0 25.117875158738837 -6.4599553678311699 1 0 0 I I #
point $-1 46.66035950804163 25.117875158738837 -6.4599553678311699 #
point $-1 46.66035950804163 -25.117875158738837 -6.4599553678311699 #
straight-curve $-1 -46.66035950804163 0 6.4599553678311699 0 -1 0 I I #
point $-1 -46.66035950804163 25.117875158738837 6.4599553678311699 #
point $-1 -46.66035950804163 -25.117875158738837 6.4599553678311699 #
straight-curve $-1 46.66035950804163 -25.117875158738837 0 0 0 -1 I I #
straight-curve $-1 46.66035950804163 25.117875158738837 0 0 0 -1 I I #
plane-surface $-1 46.66035950804163 0 0 -1 0 0 0 0 1 forward_v I I I I #
coedge $-1 $477 $476 $487 $650 reversed $197 $-1 #
coedge $-1 $730 $480 $477 $641 forward $474 $-1 #
edge $-1 $642 18.45050804603385 $731 25.117875158738837 $477 $732 forward 7 unknown #
vertex $-1 $641 $733 #
straight-curve $-1 -46.66035950804163 -18.45050804603385 2.4799776839155849 0 0 -1 I I #
coedge $-1 $480 $730 $482 $646 forward $474 $-1 #
straight-curve $-1 0 -18.45050804603385 6.4599553678311699 -1 0 0 I I #
edge $-1 $653 -25.117875158738837 $483 -18.45050804603385 $482 $734 forward 7 unknown #
point $-1 46.66035950804163 -18.45050804603385 6.4599553678311699 #
straight-curve $-1 -46.66035950804163 -10.892095801193172 3.4599553678311699 0 -1 0 I I #
coedge $-1 $487 $486 $730 $735 reversed $320 $-1 #
edge $-1 $731 -6.4599553678311699 $488 -3.4599553678311699 $639 $736 forward 7 unknown #
point $-1 -46.66035950804163 -25.117875158738837 3.4599553678311699 #
point $-1 -46.66035950804163 -18.45050804603385 3.4599553678311699 #
vertex $-1 $646 $737 #
straight-curve $-1 46.66035950804163 -25.117875158738837 0 0 0 -1 I I #
plane-surface $-1 0 25.117875158738837 0 0 -1 0 0 0 -1 forward_v I I I I #
coedge $-1 $738 $498 $502 $661 forward $337 $-1 #
coedge $-1 $498 $738 $513 $668 forward $337 $-1 #
vertex $-1 $500 $739 #
straight-curve $-1 0 18.407048694818144 -6.4599553678311699 -1 0 0 I I #
coedge $-1 $502 $501 $508 $666 forward $496 $-1 #
edge $-1 $503 18.407048694818144 $740 25.117875158738837 $502 $741 forward 7 unknown #
point $-1 -46.66035950804163 18.407048694818144 -6.4599553678311699 #
point $-1 -46.66035950804163 18.407048694818144 -3.2939522777710257 #
straight-curve $-1 -46.66035950804163 10.881230963389244 -3.2939522777710257 0 1 0 I I #
coedge $-1 $508 $507 $738 $742 reversed $509 $-1 #
edge $-1 $510 3.2939522777710257 $740 6.4599553678311699 $508 $743 forward 7 unknown #
point $-1 -46.66035950804163 25.117875158738833 -3.2939522777710257 #
edge $-1 $670 -25.117875158738837 $658 -18.407048694818144 $513 $744 forward 7 unknown #
straight-curve $-1 46.66035950804163 18.407048694818144 -2.4384769114005489 0 0 -1 I I #
vertex $-1 $668 $745 #
straight-curve $-1 46.66035950804163 25.117875158738837 0 0 0 -1 I I #
coedge $-1 $529 $528 $521 $673 forward $518 $-1 #
edge $-1 $674 11.884840970084902 $677 16.503276167621181 $672 $746 forward 7 unknown #
vertex $-1 $673 $747 #
straight-curve $-1 -46.66035950804163 -16.018717945033831 31.185476351402784 0 0 1 I I #
edge $-1 $677 -10.144594946785135 $530 -1.6036510497122567 $529 $748 forward 7 unknown #
vertex $-1 $676 $749 #
straight-curve $-1 -46.660359508041623 -16.018717945033831 1.1470532902233828 -0.65605901945558964 0 -0.75470958851134928 I I #
point $-1 -46.66035950804163 -16.018717945033831 1.1470532902233745 #
point $-1 -42.041924310505351 -7.4777740479609527 6.4599553678311699 #
straight-curve $-1 -46.66035950804163 0 6.4599553678311699 0 -1 0 I I #
vertex $-1 $536 $750 #
point $-1 -41.636773542690719 -13.578448260155866 2.7689529454127513 #
vertex $-1 $540 $751 #
point $-1 -41.636773542690719 -9.9180437328389175 2.7689529454127513 #
edge $-1 $687 11.884840970084902 $690 16.503276167621181 $545 $752 forward 7 unknown #
vertex $-1 $686 $753 #
straight-curve $-1 -46.66035950804163 2.4100604253921638 31.185476351402784 0 0 1 I I #
edge $-1 $690 -0.93020576157213775 $556 7.6107381355007409 $555 $754 forward 7 unknown #
vertex $-1 $689 $755 #
straight-curve $-1 -46.660359508041623 2.4100604253921638 1.1470532902233828 -0.65605901945558964 0 -0.75470958851134928 I I #
point $-1 -46.66035950804163 2.4100604253921638 1.1470532902233745 #
point $-1 -42.041924310505351 10.951004322465042 6.4599553678311699 #
straight-curve $-1 -46.66035950804163 0 6.4599553678311699 0 -1 0 I I #
vertex $-1 $562 $756 #
point $-1 -41.636773542690719 4.8503301102701286 2.7689529454127513 #
vertex $-1 $566 $757 #
point $-1 -41.636773542690719 8.5107346375870812 2.7689529454127513 #
coedge $-1 $581 $580 $573 $700 forward $570 $-1 #
edge $-1 $701 59.94054170767734 $704 65.253443785285114 $699 $758 forward 7 unknown #
vertex $-1 $585 $759 #
straight-curve $-1 27.933250771835443 -16.018717945033831 6.4599553678311707 1 0 0 I I #
edge $-1 $704 -10.144594946785135 $582 -1.6036510497122567 $581 $760 forward 7 unknown #
vertex $-1 $703 $761 #
straight-curve $-1 -14.563539904540555 -16.018717945033831 71.577094738434837 -0.65605901945558964 0 0.75470958851134928 I I #
point $-1 42.041924310505365 -16.018717945033831 6.4599553678311707 #
point $-1 46.66035950804163 -7.4777740479609527 1.147053290223397 #
straight-curve $-1 46.66035950804163 0 6.4599553678311699 0 1 0 I I #
vertex $-1 $588 $762 #
point $-1 42.948891581601906 -13.578448260155866 1.2595337683900367 #
vertex $-1 $592 $763 #
point $-1 42.948891581601906 -9.9180437328389175 1.2595337683900367 #
edge $-1 $714 59.94054170767734 $717 65.253443785285114 $597 $764 forward 7 unknown #
vertex $-1 $611 $765 #
straight-curve $-1 27.933250771835443 2.4100604253921638 6.4599553678311707 1 0 0 I I #
edge $-1 $717 -0.93020576157213775 $608 7.6107381355007409 $607 $766 forward 7 unknown #
vertex $-1 $716 $767 #
straight-curve $-1 -14.563539904540555 2.4100604253921638 71.577094738434837 -0.65605901945558964 0 0.75470958851134928 I I #
point $-1 42.041924310505365 2.4100604253921638 6.4599553678311707 #
point $-1 46.66035950804163 10.951004322465042 1.147053290223397 #
straight-curve $-1 46.66035950804163 0 6.4599553678311699 0 1 0 I I #
vertex $-1 $614 $768 #
point $-1 42.948891581601906 4.8503301102701286 1.2595337683900367 #
vertex $-1 $618 $769 #
point $-1 42.948891581601906 8.5107346375870812 1.2595337683900367 #
straight-curve $-1 -46.66035950804163 25.117875158738837 0 0 0 -1 I I #
point $-1 -46.66035950804163 -25.117875158738837 -6.4599553678311699 #
straight-curve $-1 -46.66035950804163 0 -6.4599553678311699 0 1 0 I I #
point $-1 -46.66035950804163 25.117875158738837 -6.4599553678311699 #
coedge $-1 $644 $640 $649 $735 forward $474 $-1 #
vertex $-1 $641 $770 #
straight-curve $-1 -46.66035950804163 0 6.4599553678311699 0 -1 0 I I #
point $-1 -46.66035950804163 -18.45050804603385 6.4599553678311699 #
straight-curve $-1 46.66035950804163 0 6.4599553678311699 0 1 0 I I #
edge $-1 $731 -46.66035950804163 $653 46.66035950804163 $649 $771 forward 7 unknown #
straight-curve $-1 -46.66035950804163 -25.117875158738837 0 0 0 -1 I I #
point $-1 46.66035950804163 -25.117875158738837 6.4599553678311699 #
coedge $-1 $657 $656 $665 $742 forward $337 $-1 #
point $-1 46.66035950804163 18.407048694818144 -6.4599553678311699 #
vertex $-1 $742 $772 #
straight-curve $-1 -46.66035950804163 0 -6.4599553678311699 0 1 0 I I #
edge $-1 $740 -46.66035950804163 $670 46.66035950804163 $665 $773 forward 7 unknown #
straight-curve $-1 -46.66035950804163 25.117875158738837 0 0 0 -1 I I #
straight-curve $-1 46.66035950804163 0 -6.4599553678311699 0 -1 0 I I #
point $-1 46.66035950804163 25.117875158738837 -6.4599553678311699 #
straight-curve $-1 -58.545200478126532 -16.018717945033831 6.4599553678311707 1 0 0 I I #
point $-1 -46.66035950804163 -16.018717945033831 6.4599553678311699 #
straight-curve $-1 -42.041924310505351 -5.874122998248696 6.4599553678311681 0 1 0 I I #
point $-1 -42.041924310505351 -16.018717945033831 6.4599553678311699 #
point $-1 -41.538122973634962 -13.578448260155866 1.3581843374458125 #
point $-1 -41.538122973634962 -9.9180437328389175 1.3581843374458125 #
straight-curve $-1 -58.545200478126532 2.4100604253921638 6.4599553678311707 1 0 0 I I #
point $-1 -46.66035950804163 2.4100604253921638 6.4599553678311699 #
straight-curve $-1 -42.041924310505351 3.3402661869643016 6.4599553678311681 0 1 0 I I #
point $-1 -42.041924310505351 2.4100604253921638 6.4599553678311699 #
point $-1 -41.538122973634962 4.8503301102701286 1.3581843374458125 #
point $-1 -41.538122973634962 8.5107346375870812 1.3581843374458125 #
straight-curve $-1 46.66035950804163 -16.018717945033831 66.400497075508511 0 0 -1 I I #
point $-1 46.66035950804163 -16.018717945033831 6.4599553678311699 #
straight-curve $-1 46.66035950804163 -5.874122998248696 1.1470532902233899 0 1 0 I I #
point $-1 46.66035950804163 -16.018717945033831 1.147053290223397 #
point $-1 41.53812297363497 -13.578448260155866 1.3581843374457965 #
point $-1 41.53812297363497 -9.9180437328389175 1.3581843374457965 #
straight-curve $-1 46.66035950804163 2.4100604253921638 66.400497075508511 0 0 -1 I I #
point $-1 46.66035950804163 2.4100604253921638 6.4599553678311699 #
straight-curve $-1 46.66035950804163 3.3402661869643016 1.1470532902233899 0 1 0 I I #
point $-1 46.66035950804163 2.4100604253921638 1.147053290223397 #
point $-1 41.53812297363497 4.8503301102701286 1.3581843374457965 #
point $-1 41.53812297363497 8.5107346375870812 1.3581843374457965 #
point $-1 -46.66035950804163 -25.117875158738837 6.4599553678311699 #
straight-curve $-1 0 -25.117875158738837 6.4599553678311699 1 0 0 I I #
point $-1 -46.66035950804163 25.117875158738837 -6.4599553678311699 #
straight-curve $-1 0 25.117875158738837 -6.4599553678311699 1 0 0 I I #
End-of-ACIS-data 