500 0 12 0           
7 Unknown 11 ACIS 5.0 NT 24 Fri Mar 26 15:45:17 1999 
-1 9.9999999999999995e-007 1e-010 
body $-1 $12 $-1 $13 #
body $-1 $14 $-1 $15 #
body $-1 $16 $-1 $17 #
body $-1 $18 $-1 $19 #
body $-1 $20 $-1 $21 #
body $-1 $22 $-1 $23 #
body $-1 $24 $-1 $25 #
body $-1 $26 $-1 $27 #
body $-1 $28 $-1 $29 #
body $-1 $30 $-1 $31 #
body $-1 $32 $-1 $33 #
body $-1 $34 $-1 $35 #
lump $-1 $-1 $36 $0 #
transform $-1 1 0 0 0 1 0 0 0 1 40.423596911526843 17.818606047283218 4.8592095112982161 1 rotate no_reflect no_shear #
lump $-1 $-1 $37 $1 #
transform $-1 1 0 0 0 1 0 0 0 1 40.423596911526843 17.818606047283218 4.8592095112982161 1 rotate no_reflect no_shear #
lump $-1 $-1 $38 $2 #
transform $-1 1 0 0 0 1 0 0 0 1 40.423596911526843 17.818606047283218 4.8592095112982161 1 rotate no_reflect no_shear #
lump $-1 $-1 $39 $3 #
transform $-1 1 0 0 0 1 0 0 0 1 40.423596911526843 17.818606047283218 4.8592095112982161 1 rotate no_reflect no_shear #
lump $-1 $-1 $40 $4 #
transform $-1 1 0 0 0 1 0 0 0 1 40.423596911526843 17.818606047283218 4.8592095112982161 1 rotate no_reflect no_shear #
lump $-1 $-1 $41 $5 #
transform $-1 1 0 0 0 1 0 0 0 1 40.423596911526843 17.818606047283218 4.8592095112982161 1 rotate no_reflect no_shear #
lump $-1 $-1 $42 $6 #
transform $-1 1 0 0 0 1 0 0 0 1 40.423596911526843 17.818606047283218 4.8592095112982161 1 rotate no_reflect no_shear #
lump $-1 $-1 $43 $7 #
transform $-1 1 0 0 0 1 0 0 0 1 40.423596911526843 17.818606047283218 4.8592095112982161 1 rotate no_reflect no_shear #
lump $-1 $-1 $44 $8 #
transform $-1 1 0 0 0 1 0 0 0 1 40.423596911526843 17.818606047283218 4.8592095112982161 1 rotate no_reflect no_shear #
lump $-1 $-1 $45 $9 #
transform $-1 1 0 0 0 1 0 0 0 1 40.423596911526843 17.818606047283218 4.8592095112982161 1 rotate no_reflect no_shear #
lump $-1 $-1 $46 $10 #
transform $-1 1 0 0 0 1 0 0 0 1 40.423596911526843 17.818606047283218 4.8592095112982161 1 rotate no_reflect no_shear #
lump $-1 $-1 $47 $11 #
transform $-1 1 0 0 0 1 0 0 0 1 40.423596911526843 17.818606047283218 4.8592095112982161 1 rotate no_reflect no_shear #
shell $-1 $-1 $-1 $48 $-1 $12 #
shell $-1 $-1 $-1 $49 $-1 $14 #
shell $-1 $-1 $-1 $50 $-1 $16 #
shell $-1 $-1 $-1 $51 $-1 $18 #
shell $-1 $-1 $-1 $52 $-1 $20 #
shell $-1 $-1 $-1 $53 $-1 $22 #
shell $-1 $-1 $-1 $54 $-1 $24 #
shell $-1 $-1 $-1 $55 $-1 $26 #
shell $-1 $-1 $-1 $56 $-1 $28 #
shell $-1 $-1 $-1 $57 $-1 $30 #
shell $-1 $-1 $-1 $58 $-1 $32 #
shell $-1 $-1 $-1 $59 $-1 $34 #
face $-1 $60 $61 $36 $-1 $62 forward single #
face $-1 $63 $64 $37 $-1 $65 forward single #
face $-1 $66 $67 $38 $-1 $68 forward single #
face $-1 $69 $70 $39 $-1 $71 reversed single #
face $-1 $72 $73 $40 $-1 $74 forward single #
face $-1 $75 $76 $41 $-1 $77 reversed single #
face $-1 $78 $79 $42 $-1 $80 forward single #
face $-1 $81 $82 $43 $-1 $83 reversed single #
face $-1 $84 $85 $44 $-1 $86 forward single #
face $-1 $87 $88 $45 $-1 $89 reversed single #
face $-1 $90 $91 $46 $-1 $92 forward single #
face $-1 $93 $94 $47 $-1 $95 forward single #
face $-1 $96 $97 $36 $-1 $98 reversed single #
loop $-1 $-1 $99 $48 #
plane-surface $-1 0 0 4.8592095112982161 0 0 1 1 0 0 forward_v I I I I #
face $-1 $100 $101 $37 $-1 $102 forward single #
loop $-1 $-1 $103 $49 #
plane-surface $-1 0 -17.818606047283218 0 0 1 0 0 0 1 forward_v I I I I #
face $-1 $104 $105 $38 $-1 $106 reversed single #
loop $-1 $-1 $107 $50 #
plane-surface $-1 0 17.818606047283218 0 0 -1 0 0 0 -1 forward_v I I I I #
face $-1 $108 $109 $39 $-1 $110 reversed single #
loop $-1 $-1 $111 $51 #
plane-surface $-1 -94.520929387380818 -8.2740464013918604 61.27674808452376 0 1 0 -0.66913061440640931 0 0.74314481823134659 forward_v I I I I #
face $-1 $112 $113 $40 $-1 $114 forward single #
loop $-1 $115 $116 $52 #
cone-surface $-1 -38.005459827935191 -5.594683531436166 2.6012525184630508 0.66913061440640931 0 -0.74314481823134659 0.74314481823134659 0 0.66913061440640931 1 I I 0 1 1 forward I I I I #
face $-1 $117 $118 $41 $-1 $119 reversed single #
loop $-1 $-1 $120 $53 #
plane-surface $-1 -94.520929387380818 0.43833587201193946 61.27674808452376 0 1 0 -0.66913061440640931 0 0.74314481823134659 forward_v I I I I #
face $-1 $121 $122 $42 $-1 $123 forward single #
loop $-1 $124 $125 $54 #
cone-surface $-1 -38.005459827935191 3.117698741967633 2.6012525184630508 0.66913061440640931 0 -0.74314481823134659 0.74314481823134659 0 0.66913061440640931 1 I I 0 1 1 forward I I I I #
face $-1 $126 $127 $43 $-1 $128 reversed single #
loop $-1 $-1 $129 $55 #
plane-surface $-1 -94.520929387380818 9.1507181454157376 61.27674808452376 0 1 0 -0.66913061440640931 0 0.74314481823134659 forward_v I I I I #
face $-1 $130 $131 $44 $-1 $132 forward single #
loop $-1 $133 $134 $56 #
cone-surface $-1 -38.005459827935191 11.830081015371434 2.6012525184630508 0.66913061440640931 0 -0.74314481823134659 0.74314481823134659 0 0.66913061440640931 1 I I 0 1 1 forward I I I I #
face $-1 $135 $136 $45 $-1 $137 reversed single #
loop $-1 $-1 $138 $57 #
plane-surface $-1 50.388567482423966 -4.1808930944323812 115.14687258859445 0 -1 0 -0.7660444514056185 0 -0.64278759981090561 forward_v I I I I #
face $-1 $139 $140 $46 $-1 $141 forward single #
loop $-1 $142 $143 $58 #
cone-surface $-1 38.520189056734324 -9.5000429804694431 2.7275766355958333 -0.7660444514056185 0 -0.64278759981090561 0.3213937999054528 0 -0.38302222570280925 1 I I 0 1 0.5 forward I I I I #
face $-1 $144 $145 $47 $-1 $146 forward single #
loop $-1 $147 $148 $59 #
cone-surface $-1 38.520189056734324 -6.3085530488472052 2.7275766355958333 -0.7660444514056185 0 -0.64278759981090561 0.3213937999054528 0 -0.38302222570280925 1 I I 0 1 0.5 forward I I I I #
face $-1 $149 $150 $36 $-1 $151 reversed single #
loop $-1 $-1 $152 $60 #
plane-surface $-1 0 0 -4.8592095112982161 0 0 1 1 0 0 forward_v I I I I #
coedge $-1 $153 $154 $155 $156 forward $61 $-1 #
face $-1 $157 $158 $37 $-1 $159 reversed single #
loop $-1 $-1 $160 $63 #
plane-surface $-1 0 0 4.8592095112982161 0 0 1 1 0 0 forward_v I I I I #
coedge $-1 $161 $162 $163 $164 forward $64 $-1 #
face $-1 $165 $166 $38 $-1 $167 reversed single #
loop $-1 $-1 $168 $66 #
plane-surface $-1 0 0 -4.8592095112982161 0 0 1 1 0 0 forward_v I I I I #
coedge $-1 $169 $170 $171 $172 forward $67 $-1 #
face $-1 $173 $174 $39 $-1 $175 reversed single #
loop $-1 $-1 $176 $69 #
plane-surface $-1 -40.423596911526843 -5.5946835314361643 1.1955749263760822 -0.66913061440640931 0 0.74314481823134659 0.74314481823134659 0 0.66913061440640931 forward_v I I I I #
coedge $-1 $177 $178 $179 $180 reversed $70 $-1 #
face $-1 $-1 $181 $40 $-1 $182 forward single #
loop $-1 $183 $184 $72 #
cone-surface $-1 -37.287196602723341 -5.594683531436166 1.8035404089732854 0.66913061440640931 0 -0.74314481823134659 0.3715724091156733 0 0.33456530720320465 1 I I -0.70710678118654746 0.70710678118654746 0.5 forward I I I I #
loop $-1 $-1 $185 $52 #
coedge $-1 $116 $116 $186 $187 reversed $73 $-1 #
face $-1 $188 $189 $41 $-1 $190 reversed single #
loop $-1 $-1 $191 $75 #
plane-surface $-1 -40.423596911526843 3.1176987419676365 1.1955749263760822 -0.66913061440640931 0 0.74314481823134659 0.74314481823134659 0 0.66913061440640931 forward_v I I I I #
coedge $-1 $192 $193 $194 $195 reversed $76 $-1 #
face $-1 $-1 $196 $42 $-1 $197 forward single #
loop $-1 $198 $199 $78 #
cone-surface $-1 -37.287196602723341 3.117698741967633 1.8035404089732854 0.66913061440640931 0 -0.74314481823134659 0.3715724091156733 0 0.33456530720320465 1 I I -0.70710678118654746 0.70710678118654746 0.5 forward I I I I #
loop $-1 $-1 $200 $54 #
coedge $-1 $125 $125 $201 $202 reversed $79 $-1 #
face $-1 $203 $204 $43 $-1 $205 reversed single #
loop $-1 $-1 $206 $81 #
plane-surface $-1 -40.423596911526843 11.830081015371434 1.1955749263760822 -0.66913061440640931 0 0.74314481823134659 0.74314481823134659 0 0.66913061440640931 forward_v I I I I #
coedge $-1 $207 $208 $209 $210 reversed $82 $-1 #
face $-1 $-1 $211 $44 $-1 $212 forward single #
loop $-1 $213 $214 $84 #
cone-surface $-1 -37.287196602723341 11.830081015371434 1.8035404089732854 0.66913061440640931 0 -0.74314481823134659 0.3715724091156733 0 0.33456530720320465 1 I I -0.70710678118654746 0.70710678118654746 0.5 forward I I I I #
loop $-1 $-1 $215 $56 #
coedge $-1 $134 $134 $216 $217 reversed $85 $-1 #
face $-1 $218 $219 $45 $-1 $220 reversed single #
loop $-1 $-1 $221 $87 #
plane-surface $-1 -11.543976757440902 -7.904298014658325 63.179298919626696 0.7660444514056185 0 0.64278759981090561 0.64278759981090561 0 -0.7660444514056185 forward_v I I I I #
coedge $-1 $222 $223 $224 $225 reversed $88 $-1 #
face $-1 $-1 $226 $46 $-1 $227 forward single #
loop $-1 $228 $229 $90 #
cone-surface $-1 37.940874807803439 -9.5000429804694431 2.2414742757089261 -0.7660444514056185 0 -0.64278759981090561 0.1606968999527264 0 -0.19151111285140462 1 I I -0.70710678118654746 0.70710678118654746 0.25 forward I I I I #
loop $-1 $-1 $230 $58 #
coedge $-1 $143 $143 $231 $232 reversed $91 $-1 #
face $-1 $-1 $233 $47 $-1 $234 forward single #
loop $-1 $235 $236 $93 #
cone-surface $-1 37.940874807803439 -6.3085530488472052 2.2414742757089261 -0.7660444514056185 0 -0.64278759981090561 0.1606968999527264 0 -0.19151111285140462 1 I I -0.70710678118654746 0.70710678118654746 0.25 forward I I I I #
loop $-1 $-1 $237 $59 #
coedge $-1 $148 $148 $238 $239 reversed $94 $-1 #
face $-1 $240 $241 $36 $-1 $242 reversed single #
loop $-1 $-1 $243 $96 #
plane-surface $-1 0 -17.818606047283218 0 0 1 0 0 0 1 forward_v I I I I #
coedge $-1 $244 $245 $246 $247 forward $97 $-1 #
coedge $-1 $248 $99 $249 $250 forward $61 $-1 #
coedge $-1 $99 $248 $251 $252 forward $61 $-1 #
coedge $-1 $253 $254 $99 $156 reversed $255 $-1 #
edge $-1 $256 -17.818606047283218 $257 17.818606047283218 $155 $258 forward 7 unknown #
face $-1 $259 $260 $37 $-1 $261 reversed single #
loop $-1 $-1 $262 $100 #
plane-surface $-1 -40.423596911526843 0 0 1 0 0 0 0 -1 forward_v I I I I #
coedge $-1 $263 $264 $265 $266 forward $101 $-1 #
coedge $-1 $265 $103 $262 $267 reversed $64 $-1 #
coedge $-1 $103 $265 $268 $269 reversed $64 $-1 #
coedge $-1 $270 $271 $103 $164 reversed $260 $-1 #
edge $-1 $272 -40.423596911526843 $273 40.423596911526843 $163 $274 forward 7 unknown #
face $-1 $275 $276 $38 $-1 $277 reversed single #
loop $-1 $-1 $278 $104 #
plane-surface $-1 -33.705177888930407 19.473187128261266 0 1 0 0 0 0 -1 forward_v I I I I #
coedge $-1 $279 $280 $170 $281 forward $105 $-1 #
coedge $-1 $282 $107 $283 $284 reversed $67 $-1 #
coedge $-1 $107 $282 $168 $281 reversed $67 $-1 #
coedge $-1 $285 $286 $107 $172 reversed $287 $-1 #
edge $-1 $288 -4.8592095112982161 $289 4.8592095112982161 $171 $290 forward 7 unknown #
face $-1 $291 $292 $39 $-1 $293 forward single #
loop $-1 $-1 $294 $108 #
plane-surface $-1 -94.520929387380818 -2.9153206614804672 61.27674808452376 0 -1 0 0.66913061440640931 0 -0.74314481823134659 forward_v I I I I #
coedge $-1 $295 $296 $297 $298 reversed $109 $-1 #
coedge $-1 $178 $111 $299 $300 reversed $70 $-1 #
coedge $-1 $111 $177 $295 $301 reversed $70 $-1 #
coedge $-1 $297 $302 $111 $180 forward $292 $-1 #
edge $-1 $303 6.8368677821635657 $304 10.90574611332957 $179 $305 forward 7 unknown #
loop $-1 $-1 $186 $112 #
plane-surface $-1 -40.423596911526843 -5.5946835314361643 1.1955749263760822 -0.66913061440640931 0 0.74314481823134659 0.74314481823134659 0 0.66913061440640931 forward_v I I I I #
loop $-1 $-1 $306 $72 #
coedge $-1 $184 $184 $185 $307 reversed $113 $-1 #
coedge $-1 $185 $185 $184 $307 forward $115 $-1 #
coedge $-1 $186 $186 $116 $187 forward $181 $-1 #
edge $-1 $308 0 $308 6.2831853071796004 $186 $309 forward 7 unknown #
face $-1 $310 $311 $41 $-1 $312 forward single #
loop $-1 $-1 $313 $117 #
plane-surface $-1 -94.520929387380818 5.7970616119233336 61.27674808452376 0 -1 0 0.66913061440640931 0 -0.74314481823134659 forward_v I I I I #
coedge $-1 $314 $315 $316 $317 reversed $118 $-1 #
coedge $-1 $193 $120 $318 $319 reversed $76 $-1 #
coedge $-1 $120 $192 $314 $320 reversed $76 $-1 #
coedge $-1 $316 $321 $120 $195 forward $311 $-1 #
edge $-1 $322 6.8368677821635657 $323 10.90574611332957 $194 $324 forward 7 unknown #
loop $-1 $-1 $201 $121 #
plane-surface $-1 -40.423596911526843 3.1176987419676365 1.1955749263760822 -0.66913061440640931 0 0.74314481823134659 0.74314481823134659 0 0.66913061440640931 forward_v I I I I #
loop $-1 $-1 $325 $78 #
coedge $-1 $199 $199 $200 $326 reversed $122 $-1 #
coedge $-1 $200 $200 $199 $326 forward $124 $-1 #
coedge $-1 $201 $201 $125 $202 forward $196 $-1 #
edge $-1 $327 0 $327 6.2831853071796004 $201 $328 forward 7 unknown #
face $-1 $329 $330 $43 $-1 $331 forward single #
loop $-1 $-1 $332 $126 #
plane-surface $-1 -94.520929387380818 14.50944388532713 61.27674808452376 0 -1 0 0.66913061440640931 0 -0.74314481823134659 forward_v I I I I #
coedge $-1 $333 $334 $335 $336 reversed $127 $-1 #
coedge $-1 $208 $129 $337 $338 reversed $82 $-1 #
coedge $-1 $129 $207 $333 $339 reversed $82 $-1 #
coedge $-1 $335 $340 $129 $210 forward $330 $-1 #
edge $-1 $341 6.8368677821635657 $342 10.90574611332957 $209 $343 forward 7 unknown #
loop $-1 $-1 $216 $130 #
plane-surface $-1 -40.423596911526843 11.830081015371434 1.1955749263760822 -0.66913061440640931 0 0.74314481823134659 0.74314481823134659 0 0.66913061440640931 forward_v I I I I #
loop $-1 $-1 $344 $84 #
coedge $-1 $214 $214 $215 $345 reversed $131 $-1 #
coedge $-1 $215 $215 $214 $345 forward $133 $-1 #
coedge $-1 $216 $216 $134 $217 forward $211 $-1 #
edge $-1 $346 0 $346 6.2831853071796004 $216 $347 forward 7 unknown #
face $-1 $348 $349 $45 $-1 $350 reversed single #
loop $-1 $-1 $351 $135 #
plane-surface $-1 50.388567482423966 -11.627702934884269 115.14687258859445 0 1 0 0.7660444514056185 0 0.64278759981090561 forward_v I I I I #
coedge $-1 $352 $353 $354 $355 reversed $136 $-1 #
coedge $-1 $223 $138 $356 $357 reversed $88 $-1 #
coedge $-1 $138 $222 $352 $358 reversed $88 $-1 #
coedge $-1 $354 $359 $138 $225 forward $360 $-1 #
edge $-1 $361 -15.22931317031486 $362 -12.198103732888804 $224 $363 forward 7 unknown #
loop $-1 $-1 $231 $139 #
plane-surface $-1 -11.543976757440902 -7.904298014658325 63.179298919626696 0.7660444514056185 0 0.64278759981090561 0.64278759981090561 0 -0.7660444514056185 forward_v I I I I #
loop $-1 $-1 $364 $90 #
coedge $-1 $229 $229 $230 $365 reversed $140 $-1 #
coedge $-1 $230 $230 $229 $365 forward $142 $-1 #
coedge $-1 $231 $231 $143 $232 forward $226 $-1 #
edge $-1 $366 0 $366 6.2831853071796004 $231 $367 forward 7 unknown #
loop $-1 $-1 $238 $144 #
plane-surface $-1 -11.543976757440902 -7.904298014658325 63.179298919626696 0.7660444514056185 0 0.64278759981090561 0.64278759981090561 0 -0.7660444514056185 forward_v I I I I #
loop $-1 $-1 $368 $93 #
coedge $-1 $236 $236 $237 $369 reversed $145 $-1 #
coedge $-1 $237 $237 $236 $369 forward $147 $-1 #
coedge $-1 $238 $238 $148 $239 forward $233 $-1 #
edge $-1 $370 0 $370 6.2831853071796004 $238 $371 forward 7 unknown #
face $-1 $372 $373 $36 $-1 $374 reversed single #
loop $-1 $-1 $375 $149 #
plane-surface $-1 -40.423596911526843 0 0 1 0 0 0 0 -1 forward_v I I I I #
coedge $-1 $376 $251 $377 $378 forward $150 $-1 #
coedge $-1 $379 $152 $376 $380 forward $97 $-1 #
coedge $-1 $152 $379 $381 $382 forward $97 $-1 #
coedge $-1 $254 $253 $152 $247 reversed $255 $-1 #
edge $-1 $383 -17.818606047283218 $384 17.818606047283218 $246 $385 forward 7 unknown #
coedge $-1 $154 $153 $386 $387 forward $61 $-1 #
coedge $-1 $388 $389 $153 $250 reversed $373 $-1 #
edge $-1 $257 -40.423596911526843 $390 40.423596911526843 $249 $391 forward 7 unknown #
coedge $-1 $243 $392 $154 $252 reversed $150 $-1 #
edge $-1 $393 -40.423596911526843 $256 40.423596911526843 $251 $394 forward 7 unknown #
coedge $-1 $246 $155 $392 $395 forward $255 $-1 #
coedge $-1 $155 $246 $388 $396 reversed $255 $-1 #
loop $-1 $-1 $253 $372 #
vertex $-1 $156 $397 #
vertex $-1 $156 $398 #
straight-curve $-1 40.423596911526843 0 4.8592095112982161 0 1 0 I I #
face $-1 $399 $400 $37 $-1 $401 reversed single #
loop $-1 $-1 $270 $157 #
plane-surface $-1 0 -20.914057603482693 1.8592095112982161 0 0 1 1 0 0 forward_v I I I I #
coedge $-1 $402 $403 $161 $267 forward $158 $-1 #
coedge $-1 $404 $160 $403 $405 forward $101 $-1 #
coedge $-1 $160 $404 $406 $407 forward $101 $-1 #
coedge $-1 $162 $161 $160 $266 reversed $64 $-1 #
edge $-1 $408 -40.423596911526843 $409 40.423596911526843 $160 $410 forward 7 unknown #
edge $-1 $409 -4.8592095112982161 $273 -1.8592095112982161 $262 $411 forward 7 unknown #
coedge $-1 $406 $412 $162 $269 forward $413 $-1 #
edge $-1 $272 1.8592095112982161 $408 4.8592095112982161 $268 $414 forward 7 unknown #
coedge $-1 $415 $163 $412 $416 forward $260 $-1 #
coedge $-1 $163 $415 $402 $417 forward $260 $-1 #
vertex $-1 $269 $418 #
vertex $-1 $267 $419 #
straight-curve $-1 0 -17.818606047283218 1.8592095112982161 -1 0 0 I I #
face $-1 $420 $287 $38 $-1 $421 reversed single #
loop $-1 $-1 $422 $165 #
plane-surface $-1 -32.205177888930407 21.12776820923931 0 0 -1 0 0 0 -1 forward_v I I I I #
coedge $-1 $423 $424 $425 $426 forward $166 $-1 #
coedge $-1 $427 $168 $423 $428 forward $105 $-1 #
coedge $-1 $168 $427 $285 $429 forward $105 $-1 #
edge $-1 $288 30.705177888930407 $430 33.705177888930407 $168 $431 forward 7 unknown #
coedge $-1 $170 $169 $432 $433 forward $67 $-1 #
coedge $-1 $434 $435 $169 $284 forward $436 $-1 #
edge $-1 $437 -33.705177888930407 $289 -30.705177888930407 $283 $438 forward 7 unknown #
coedge $-1 $439 $171 $280 $429 reversed $287 $-1 #
coedge $-1 $171 $439 $434 $440 reversed $287 $-1 #
loop $-1 $-1 $171 $275 #
vertex $-1 $281 $441 #
vertex $-1 $440 $442 #
straight-curve $-1 -30.705177888930407 17.818606047283218 0 0 0 1 I I #
face $-1 $-1 $443 $39 $-1 $444 reversed single #
loop $-1 $-1 $179 $173 #
plane-surface $-1 0 0 4.8592095112982161 0 0 1 1 0 0 forward_v I I I I #
coedge $-1 $445 $446 $447 $448 reversed $174 $-1 #
coedge $-1 $449 $176 $178 $301 forward $109 $-1 #
coedge $-1 $176 $449 $445 $450 forward $109 $-1 #
coedge $-1 $447 $179 $176 $298 forward $292 $-1 #
edge $-1 $304 -5.4767046356737783 $451 -0.11797889576238507 $297 $452 forward 7 unknown #
coedge $-1 $453 $454 $177 $300 forward $443 $-1 #
edge $-1 $455 -29.442799115885798 $303 -25.779164530963662 $299 $456 forward 7 unknown #
edge $-1 $304 -5.4752159085893428 $455 0 $178 $457 forward 7 unknown #
coedge $-1 $179 $447 $453 $458 forward $292 $-1 #
vertex $-1 $300 $459 #
vertex $-1 $180 $460 #
straight-curve $-1 -47.260464693690409 -8.2740464013918604 4.8592095112982179 1 0 0 I I #
coedge $-1 $306 $306 $-1 $461 reversed $183 $-1 #
edge $-1 $462 0 $462 6.2831853071796004 $184 $463 forward 7 unknown #
vertex $-1 $187 $464 #
ellipse-curve $-1 -38.389157745943841 -5.594683531436166 3.0273922188371496 -0.66913061440640931 0 0.74314481823134659 0.74314481823134659 0 0.66913061440640931 1 I I #
face $-1 $-1 $465 $41 $-1 $466 reversed single #
loop $-1 $-1 $194 $188 #
plane-surface $-1 0 0 4.8592095112982161 0 0 1 1 0 0 forward_v I I I I #
coedge $-1 $467 $468 $469 $470 reversed $189 $-1 #
coedge $-1 $471 $191 $193 $320 forward $118 $-1 #
coedge $-1 $191 $471 $467 $472 forward $118 $-1 #
coedge $-1 $469 $194 $191 $317 forward $311 $-1 #
edge $-1 $323 -1.1205134989718788 $473 4.2382122409395153 $316 $474 forward 7 unknown #
coedge $-1 $475 $476 $192 $319 forward $465 $-1 #
edge $-1 $477 -29.442799115885798 $322 -25.779164530963662 $318 $478 forward 7 unknown #
edge $-1 $323 -5.4752159085893428 $477 0 $193 $479 forward 7 unknown #
coedge $-1 $194 $469 $475 $480 forward $311 $-1 #
vertex $-1 $195 $481 #
vertex $-1 $195 $482 #
straight-curve $-1 -47.260464693690409 0.43833587201193946 4.8592095112982179 1 0 0 I I #
coedge $-1 $325 $325 $-1 $483 reversed $198 $-1 #
edge $-1 $484 0 $484 6.2831853071796004 $199 $485 forward 7 unknown #
vertex $-1 $202 $486 #
ellipse-curve $-1 -38.389157745943841 3.117698741967633 3.0273922188371496 -0.66913061440640931 0 0.74314481823134659 0.74314481823134659 0 0.66913061440640931 1 I I #
face $-1 $-1 $487 $43 $-1 $488 reversed single #
loop $-1 $-1 $209 $203 #
plane-surface $-1 0 0 4.8592095112982161 0 0 1 1 0 0 forward_v I I I I #
coedge $-1 $489 $490 $491 $492 reversed $204 $-1 #
coedge $-1 $493 $206 $208 $339 forward $127 $-1 #
coedge $-1 $206 $493 $489 $494 forward $127 $-1 #
coedge $-1 $491 $209 $206 $336 forward $330 $-1 #
edge $-1 $342 3.2356776377300207 $495 8.594403377641413 $335 $496 forward 7 unknown #
coedge $-1 $497 $498 $207 $338 forward $487 $-1 #
edge $-1 $499 -29.442799115885798 $341 -25.779164530963662 $337 $500 forward 7 unknown #
edge $-1 $342 -5.4752159085893428 $499 0 $208 $501 forward 7 unknown #
coedge $-1 $209 $491 $497 $502 forward $330 $-1 #
vertex $-1 $210 $503 #
vertex $-1 $210 $504 #
straight-curve $-1 -47.260464693690409 9.1507181454157376 4.8592095112982179 1 0 0 I I #
coedge $-1 $344 $344 $-1 $505 reversed $213 $-1 #
edge $-1 $506 0 $506 6.2831853071796004 $214 $507 forward 7 unknown #
vertex $-1 $217 $508 #
ellipse-curve $-1 -38.389157745943841 11.830081015371434 3.0273922188371496 -0.66913061440640931 0 0.74314481823134659 0.74314481823134659 0 0.66913061440640931 1 I I #
face $-1 $-1 $360 $45 $-1 $509 forward single #
loop $-1 $-1 $510 $218 #
plane-surface $-1 40.423596911526843 0 0 -1 0 0 0 0 1 forward_v I I I I #
coedge $-1 $511 $512 $513 $514 reversed $219 $-1 #
coedge $-1 $515 $221 $223 $358 forward $136 $-1 #
coedge $-1 $221 $515 $511 $516 forward $136 $-1 #
coedge $-1 $513 $224 $221 $355 forward $360 $-1 #
edge $-1 $362 0.2287440871032187 $517 7.6755539275551063 $354 $518 forward 7 unknown #
coedge $-1 $519 $520 $222 $357 forward $349 $-1 #
edge $-1 $521 -56.326681614535381 $361 -52.714226782999006 $356 $522 forward 7 unknown #
edge $-1 $362 76.131469004594578 $521 80.847193823053701 $223 $523 forward 7 unknown #
coedge $-1 $224 $513 $519 $524 forward $360 $-1 #
loop $-1 $-1 $513 $348 #
vertex $-1 $357 $525 #
vertex $-1 $225 $526 #
straight-curve $-1 25.194283741211983 -4.1808930944323812 4.8592095112982179 -1 0 0 I I #
coedge $-1 $364 $364 $-1 $527 reversed $228 $-1 #
edge $-1 $528 0 $528 6.2831853071796004 $229 $529 forward 7 unknown #
vertex $-1 $232 $530 #
ellipse-curve $-1 38.907992192813815 -9.5000429804694431 3.0529820955300231 0.7660444514056185 0 0.64278759981090561 0.3213937999054528 0 -0.38302222570280925 1 I I #
coedge $-1 $368 $368 $-1 $531 reversed $235 $-1 #
edge $-1 $532 0 $532 6.2831853071796004 $236 $533 forward 7 unknown #
vertex $-1 $239 $534 #
ellipse-curve $-1 38.907992192813815 -6.3085530488472052 3.0529820955300231 0.7660444514056185 0 0.64278759981090561 0.3213937999054528 0 -0.38302222570280925 1 I I #
face $-1 $-1 $255 $36 $-1 $535 reversed single #
loop $-1 $-1 $388 $240 #
plane-surface $-1 0 17.818606047283218 0 0 -1 0 0 0 -1 forward_v I I I I #
coedge $-1 $536 $386 $389 $537 forward $241 $-1 #
coedge $-1 $392 $243 $244 $380 reversed $150 $-1 #
coedge $-1 $386 $536 $243 $378 reversed $241 $-1 #
edge $-1 $393 -4.8592095112982161 $538 4.8592095112982161 $377 $539 forward 7 unknown #
coedge $-1 $245 $244 $536 $540 forward $97 $-1 #
edge $-1 $384 -40.423596911526843 $538 40.423596911526843 $376 $541 forward 7 unknown #
coedge $-1 $389 $388 $245 $382 reversed $373 $-1 #
edge $-1 $542 -40.423596911526843 $383 40.423596911526843 $381 $543 forward 7 unknown #
vertex $-1 $247 $544 #
vertex $-1 $395 $545 #
straight-curve $-1 40.423596911526843 0 -4.8592095112982161 0 -1 0 I I #
coedge $-1 $375 $377 $248 $387 reversed $241 $-1 #
edge $-1 $390 -17.818606047283218 $393 17.818606047283218 $386 $546 forward 7 unknown #
coedge $-1 $381 $249 $254 $396 forward $373 $-1 #
coedge $-1 $249 $381 $375 $537 reversed $373 $-1 #
vertex $-1 $250 $547 #
straight-curve $-1 0 17.818606047283218 4.8592095112982161 -1 0 0 I I #
coedge $-1 $251 $376 $253 $395 reversed $150 $-1 #
vertex $-1 $387 $548 #
straight-curve $-1 0 -17.818606047283218 4.8592095112982161 1 0 0 I I #
edge $-1 $256 -4.8592095112982161 $384 4.8592095112982161 $253 $549 forward 7 unknown #
edge $-1 $257 -4.8592095112982161 $383 4.8592095112982161 $254 $550 forward 7 unknown #
point $-1 40.423596911526843 -17.818606047283218 4.8592095112982161 #
point $-1 40.423596911526843 17.818606047283218 4.8592095112982161 #
face $-1 $-1 $413 $37 $-1 $551 reversed single #
loop $-1 $-1 $552 $259 #
plane-surface $-1 0 -24.009509159682167 3.3592095112982161 0 1 0 0 0 1 forward_v I I I I #
coedge $-1 $553 $262 $271 $417 reversed $158 $-1 #
coedge $-1 $262 $553 $263 $405 reversed $158 $-1 #
coedge $-1 $264 $263 $554 $555 forward $101 $-1 #
edge $-1 $409 17.818606047283218 $556 24.009509159682167 $403 $557 forward 7 unknown #
coedge $-1 $558 $268 $264 $407 reversed $413 $-1 #
edge $-1 $559 -24.009509159682167 $408 -17.818606047283218 $406 $560 forward 7 unknown #
vertex $-1 $269 $561 #
vertex $-1 $405 $562 #
straight-curve $-1 0 -17.818606047283218 4.8592095112982161 -1 0 0 I I #
straight-curve $-1 -40.423596911526843 -17.818606047283218 0 0 0 -1 I I #
coedge $-1 $268 $558 $270 $416 reversed $413 $-1 #
loop $-1 $-1 $268 $399 #
straight-curve $-1 40.423596911526843 -17.818606047283218 0 0 0 1 I I #
coedge $-1 $271 $270 $563 $564 forward $260 $-1 #
edge $-1 $272 -3.0954515561994747 $565 3.0954515561994747 $412 $566 forward 7 unknown #
edge $-1 $567 -3.0954515561994747 $273 3.0954515561994747 $402 $568 forward 7 unknown #
point $-1 40.423596911526843 -17.818606047283218 1.8592095112982161 #
point $-1 -40.423596911526843 -17.818606047283218 1.8592095112982161 #
face $-1 $-1 $436 $38 $-1 $569 forward single #
plane-surface $-1 -30.705177888930407 19.473187128261266 0 -1 0 0 0 0 1 forward_v I I I I #
coedge $-1 $570 $571 $439 $572 forward $276 $-1 #
coedge $-1 $432 $278 $279 $428 reversed $166 $-1 #
coedge $-1 $278 $432 $435 $573 reversed $166 $-1 #
coedge $-1 $571 $570 $278 $426 reversed $276 $-1 #
edge $-1 $574 -4.8592095112982161 $575 4.8592095112982161 $425 $576 forward 7 unknown #
coedge $-1 $280 $279 $570 $577 forward $105 $-1 #
edge $-1 $430 -1.6545810809780441 $575 1.6545810809780441 $423 $578 forward 7 unknown #
edge $-1 $579 -1.6545810809780441 $288 1.6545810809780441 $285 $580 forward 7 unknown #
vertex $-1 $428 $581 #
straight-curve $-1 0 17.818606047283218 -4.8592095112982161 -1 0 0 I I #
coedge $-1 $424 $423 $282 $433 reversed $166 $-1 #
edge $-1 $437 -4.8592095112982161 $430 4.8592095112982161 $432 $582 forward 7 unknown #
coedge $-1 $583 $283 $286 $440 forward $436 $-1 #
coedge $-1 $283 $583 $424 $573 forward $436 $-1 #
loop $-1 $-1 $283 $420 #
vertex $-1 $284 $584 #
straight-curve $-1 0 17.818606047283218 4.8592095112982161 1 0 0 I I #
coedge $-1 $286 $285 $422 $572 reversed $287 $-1 #
edge $-1 $289 -1.6545810809780441 $585 1.6545810809780441 $286 $586 forward 7 unknown #
point $-1 -30.705177888930407 17.818606047283222 -4.8592095112982161 #
point $-1 -30.705177888930407 17.818606047283222 4.8592095112982161 #
loop $-1 $-1 $299 $291 #
plane-surface $-1 -40.423596911526843 0 0 1 0 0 0 0 -1 forward_v I I I I #
coedge $-1 $446 $294 $296 $450 reversed $174 $-1 #
coedge $-1 $294 $445 $587 $588 reversed $174 $-1 #
coedge $-1 $302 $297 $294 $448 forward $292 $-1 #
edge $-1 $451 -10.90574611332957 $589 -6.8368677821635657 $447 $590 forward 7 unknown #
coedge $-1 $296 $295 $454 $591 reversed $109 $-1 #
edge $-1 $592 0 $451 5.4752159085893428 $445 $593 forward 7 unknown #
vertex $-1 $298 $594 #
straight-curve $-1 -36.354718580360846 -2.7973417657180821 4.8592095112982152 0 1 0 I I #
coedge $-1 $587 $299 $302 $458 reversed $443 $-1 #
coedge $-1 $299 $587 $449 $591 forward $443 $-1 #
vertex $-1 $300 $595 #
straight-curve $-1 -40.423596911526843 -8.2740464013918604 30.63837404226188 0 0 1 I I #
straight-curve $-1 -40.423596911526843 -8.2740464013918604 1.1955749263760822 -0.74314481823134659 0 -0.66913061440640931 I I #
edge $-1 $589 2.9153206614804672 $303 8.2740464013918604 $453 $596 forward 7 unknown #
point $-1 -40.423596911526843 -8.2740464013918604 4.8592095112982161 #
point $-1 -36.354718580360839 -8.2740464013918604 4.8592095112982161 #
edge $-1 $597 1 $597 0 $306 $-1 forward 7 unknown #
vertex $-1 $307 $598 #
ellipse-curve $-1 -37.621761909926548 -5.594683531436166 2.1751128180889587 -0.66913061440640931 0 0.74314481823134659 0.74314481823134659 0 0.66913061440640931 1 I I #
point $-1 -37.646012927712484 -5.594683531436166 3.6965228332435527 #
loop $-1 $-1 $318 $310 #
plane-surface $-1 -40.423596911526843 0 0 1 0 0 0 0 -1 forward_v I I I I #
coedge $-1 $468 $313 $315 $472 reversed $189 $-1 #
coedge $-1 $313 $467 $599 $600 reversed $189 $-1 #
coedge $-1 $321 $316 $313 $470 forward $311 $-1 #
edge $-1 $473 -10.90574611332957 $601 -6.8368677821635657 $469 $602 forward 7 unknown #
coedge $-1 $315 $314 $476 $603 reversed $118 $-1 #
edge $-1 $604 0 $473 5.4752159085893428 $467 $605 forward 7 unknown #
vertex $-1 $317 $606 #
straight-curve $-1 -36.354718580360846 1.5588493709838183 4.8592095112982152 0 1 0 I I #
coedge $-1 $599 $318 $321 $480 reversed $465 $-1 #
coedge $-1 $318 $599 $471 $603 forward $465 $-1 #
vertex $-1 $319 $607 #
straight-curve $-1 -40.423596911526843 0.43833587201193946 30.63837404226188 0 0 1 I I #
straight-curve $-1 -40.423596911526843 0.43833587201193946 1.1955749263760822 -0.74314481823134659 0 -0.66913061440640931 I I #
edge $-1 $601 -5.7970616119233336 $322 -0.43833587201193946 $475 $608 forward 7 unknown #
point $-1 -40.423596911526843 0.43833587201193946 4.8592095112982161 #
point $-1 -36.354718580360839 0.43833587201193946 4.8592095112982161 #
edge $-1 $609 1 $609 0 $325 $-1 forward 7 unknown #
vertex $-1 $326 $610 #
ellipse-curve $-1 -37.621761909926548 3.117698741967633 2.1751128180889587 -0.66913061440640931 0 0.74314481823134659 0.74314481823134659 0 0.66913061440640931 1 I I #
point $-1 -37.646012927712484 3.117698741967633 3.6965228332435527 #
loop $-1 $-1 $337 $329 #
plane-surface $-1 -40.423596911526843 0 0 1 0 0 0 0 -1 forward_v I I I I #
coedge $-1 $490 $332 $334 $494 reversed $204 $-1 #
coedge $-1 $332 $489 $611 $612 reversed $204 $-1 #
coedge $-1 $340 $335 $332 $492 forward $330 $-1 #
edge $-1 $495 -10.90574611332957 $613 -6.8368677821635657 $491 $614 forward 7 unknown #
coedge $-1 $334 $333 $498 $615 reversed $127 $-1 #
edge $-1 $616 0 $495 5.4752159085893428 $489 $617 forward 7 unknown #
vertex $-1 $336 $618 #
straight-curve $-1 -36.354718580360846 5.9150405076857169 4.8592095112982152 0 1 0 I I #
coedge $-1 $611 $337 $340 $502 reversed $487 $-1 #
coedge $-1 $337 $611 $493 $615 forward $487 $-1 #
vertex $-1 $338 $619 #
straight-curve $-1 -40.423596911526843 9.1507181454157376 30.63837404226188 0 0 1 I I #
straight-curve $-1 -40.423596911526843 9.1507181454157376 1.1955749263760822 -0.74314481823134659 0 -0.66913061440640931 I I #
edge $-1 $613 -14.50944388532713 $341 -9.1507181454157376 $497 $620 forward 7 unknown #
point $-1 -40.423596911526843 9.1507181454157376 4.8592095112982161 #
point $-1 -36.354718580360839 9.1507181454157376 4.8592095112982161 #
edge $-1 $621 1 $621 0 $344 $-1 forward 7 unknown #
vertex $-1 $345 $622 #
ellipse-curve $-1 -37.621761909926548 11.830081015371434 2.1751128180889587 -0.66913061440640931 0 0.74314481823134659 0.74314481823134659 0 0.66913061440640931 1 I I #
point $-1 -37.646012927712484 11.830081015371434 3.6965228332435527 #
plane-surface $-1 0 0 4.8592095112982161 0 0 1 1 0 0 forward_v I I I I #
coedge $-1 $520 $519 $512 $623 forward $349 $-1 #
coedge $-1 $512 $351 $353 $516 reversed $219 $-1 #
coedge $-1 $351 $511 $510 $623 reversed $219 $-1 #
coedge $-1 $359 $354 $351 $514 forward $360 $-1 #
edge $-1 $517 12.198103732888804 $624 15.22931317031486 $513 $625 forward 7 unknown #
coedge $-1 $353 $352 $520 $626 reversed $136 $-1 #
edge $-1 $627 -80.847193823053701 $517 -76.131469004594578 $511 $628 forward 7 unknown #
vertex $-1 $355 $629 #
straight-curve $-1 37.392387474100779 -3.9521490073291625 4.8592095112982179 0 -1 0 I I #
coedge $-1 $510 $356 $359 $524 reversed $349 $-1 #
coedge $-1 $356 $510 $515 $626 forward $349 $-1 #
vertex $-1 $357 $630 #
straight-curve $-1 40.423596911526843 -4.1808930944323812 57.573436294297224 0 0 1 I I #
straight-curve $-1 -11.543976757440902 -4.1808930944323812 63.179298919626696 0.64278759981090561 0 -0.7660444514056185 I I #
edge $-1 $624 -11.627702934884269 $361 -4.1808930944323812 $519 $631 forward 7 unknown #
point $-1 40.423596911526843 -4.1808930944323812 4.8592095112982161 #
point $-1 37.392387474100786 -4.1808930944323812 4.8592095112982179 #
edge $-1 $632 1 $632 0 $364 $-1 forward 7 unknown #
vertex $-1 $365 $633 #
ellipse-curve $-1 38.132385920654841 -9.5000429804694431 2.4021711756616524 0.7660444514056185 0 0.64278759981090561 0.3213937999054528 0 -0.38302222570280925 1 I I #
point $-1 39.229385992719259 -9.5000429804694431 2.6699598698272045 #
edge $-1 $634 1 $634 0 $368 $-1 forward 7 unknown #
vertex $-1 $369 $635 #
ellipse-curve $-1 38.132385920654841 -6.3085530488472052 2.4021711756616524 0.7660444514056185 0 0.64278759981090561 0.3213937999054528 0 -0.38302222570280925 1 I I #
point $-1 39.229385992719259 -6.3085530488472052 2.6699598698272045 #
plane-surface $-1 40.423596911526843 0 0 -1 0 0 0 0 1 forward_v I I I I #
coedge $-1 $377 $375 $379 $540 reversed $241 $-1 #
edge $-1 $390 -4.8592095112982161 $542 4.8592095112982161 $389 $636 forward 7 unknown #
vertex $-1 $540 $637 #
straight-curve $-1 -40.423596911526843 -17.818606047283218 0 0 0 -1 I I #
edge $-1 $538 -17.818606047283218 $542 17.818606047283218 $536 $638 forward 7 unknown #
straight-curve $-1 0 -17.818606047283218 -4.8592095112982161 -1 0 0 I I #
vertex $-1 $382 $639 #
straight-curve $-1 0 17.818606047283218 -4.8592095112982161 1 0 0 I I #
point $-1 40.423596911526843 17.818606047283218 -4.8592095112982161 #
point $-1 40.423596911526843 -17.818606047283218 -4.8592095112982161 #
straight-curve $-1 -40.423596911526843 0 4.8592095112982161 0 -1 0 I I #
point $-1 -40.423596911526843 17.818606047283218 4.8592095112982161 #
point $-1 -40.423596911526843 -17.818606047283218 4.8592095112982161 #
straight-curve $-1 40.423596911526843 -17.818606047283218 0 0 0 -1 I I #
straight-curve $-1 40.423596911526843 17.818606047283218 0 0 0 -1 I I #
plane-surface $-1 40.423596911526843 0 0 -1 0 0 0 0 1 forward_v I I I I #
coedge $-1 $563 $554 $553 $640 forward $400 $-1 #
coedge $-1 $403 $402 $552 $640 reversed $158 $-1 #
coedge $-1 $552 $641 $404 $555 reversed $400 $-1 #
edge $-1 $556 -40.423596911526843 $559 40.423596911526843 $554 $642 forward 7 unknown #
vertex $-1 $405 $643 #
straight-curve $-1 -40.423596911526843 0 4.8592095112982161 0 -1 0 I I #
coedge $-1 $412 $406 $641 $644 forward $413 $-1 #
vertex $-1 $407 $645 #
straight-curve $-1 40.423596911526843 0 4.8592095112982161 0 1 0 I I #
point $-1 40.423596911526843 -17.818606047283218 4.8592095112982161 #
point $-1 -40.423596911526843 -17.818606047283218 4.8592095112982161 #
coedge $-1 $641 $552 $415 $564 reversed $400 $-1 #
edge $-1 $565 -40.423596911526843 $567 40.423596911526843 $563 $646 forward 7 unknown #
vertex $-1 $644 $647 #
straight-curve $-1 40.423596911526843 -20.914057603482693 1.8592095112982161 0 -1 0 I I #
vertex $-1 $417 $648 #
straight-curve $-1 -40.423596911526843 -20.914057603482693 1.8592095112982161 0 1 0 I I #
plane-surface $-1 0 0 4.8592095112982161 0 0 1 1 0 0 forward_v I I I I #
coedge $-1 $425 $422 $427 $577 reversed $276 $-1 #
coedge $-1 $422 $425 $583 $649 reversed $276 $-1 #
edge $-1 $585 -4.8592095112982161 $579 4.8592095112982161 $439 $650 forward 7 unknown #
edge $-1 $574 -1.6545810809780441 $437 1.6545810809780441 $424 $651 forward 7 unknown #
vertex $-1 $649 $652 #
vertex $-1 $577 $653 #
straight-curve $-1 -33.705177888930407 21.12776820923931 0 0 0 -1 I I #
edge $-1 $575 -1.5 $579 1.5 $570 $654 forward 7 unknown #
straight-curve $-1 -33.705177888930407 19.473187128261266 -4.8592095112982161 0 1 0 I I #
vertex $-1 $429 $655 #
straight-curve $-1 -30.705177888930407 19.473187128261266 -4.8592095112982161 0 -1 0 I I #
point $-1 -33.705177888930407 17.818606047283222 -4.8592095112982161 #
straight-curve $-1 -33.705177888930407 17.818606047283218 0 0 0 -1 I I #
coedge $-1 $435 $434 $571 $649 forward $436 $-1 #
point $-1 -33.705177888930407 17.818606047283222 4.8592095112982161 #
vertex $-1 $440 $656 #
straight-curve $-1 -30.705177888930407 19.473187128261266 4.8592095112982161 0 1 0 I I #
coedge $-1 $454 $453 $446 $588 forward $443 $-1 #
edge $-1 $589 25.779164530963662 $592 29.442799115885798 $587 $657 forward 7 unknown #
vertex $-1 $458 $658 #
straight-curve $-1 -47.260464693690409 -2.9153206614804672 4.8592095112982179 -1 0 0 I I #
edge $-1 $592 0.11797889576238507 $455 5.4767046356737783 $454 $659 forward 7 unknown #
vertex $-1 $591 $660 #
straight-curve $-1 -40.423596911526843 -2.9153206614804672 1.1955749263760822 0.74314481823134659 0 0.66913061440640931 I I #
point $-1 -36.354718580360839 -2.9153206614804672 4.8592095112982161 #
point $-1 -40.423596911526843 -8.2740464013918604 1.1955749263760822 #
straight-curve $-1 -40.423596911526843 0 4.8592095112982161 0 -1 0 I I #
vertex $-1 $461 $661 #
point $-1 -36.878617091695197 -5.594683531436166 2.844243432495368 #
coedge $-1 $476 $475 $468 $600 forward $465 $-1 #
edge $-1 $601 25.779164530963662 $604 29.442799115885798 $599 $662 forward 7 unknown #
vertex $-1 $480 $663 #
straight-curve $-1 -47.260464693690409 5.7970616119233336 4.8592095112982179 -1 0 0 I I #
edge $-1 $604 -4.2382122409395153 $477 1.1205134989718788 $476 $664 forward 7 unknown #
vertex $-1 $603 $665 #
straight-curve $-1 -40.423596911526843 5.7970616119233336 1.1955749263760822 0.74314481823134659 0 0.66913061440640931 I I #
point $-1 -36.354718580360839 5.7970616119233336 4.8592095112982161 #
point $-1 -40.423596911526843 0.43833587201193946 1.1955749263760822 #
straight-curve $-1 -40.423596911526843 0 4.8592095112982161 0 -1 0 I I #
vertex $-1 $483 $666 #
point $-1 -36.878617091695197 3.117698741967633 2.844243432495368 #
coedge $-1 $498 $497 $490 $612 forward $487 $-1 #
edge $-1 $613 25.779164530963662 $616 29.442799115885798 $611 $667 forward 7 unknown #
vertex $-1 $502 $668 #
straight-curve $-1 -47.260464693690409 14.50944388532713 4.8592095112982179 -1 0 0 I I #
edge $-1 $616 -8.594403377641413 $499 -3.2356776377300207 $498 $669 forward 7 unknown #
vertex $-1 $615 $670 #
straight-curve $-1 -40.423596911526843 14.50944388532713 1.1955749263760822 0.74314481823134659 0 0.66913061440640931 I I #
point $-1 -36.354718580360839 14.50944388532713 4.8592095112982161 #
point $-1 -40.423596911526843 9.1507181454157376 1.1955749263760822 #
straight-curve $-1 -40.423596911526843 0 4.8592095112982161 0 -1 0 I I #
vertex $-1 $505 $671 #
point $-1 -36.878617091695197 11.830081015371434 2.844243432495368 #
edge $-1 $624 52.714226782999006 $627 56.326681614535381 $510 $672 forward 7 unknown #
vertex $-1 $524 $673 #
straight-curve $-1 25.194283741211983 -11.627702934884269 4.8592095112982179 1 0 0 I I #
edge $-1 $627 -7.6755539275551063 $521 -0.2287440871032187 $520 $674 forward 7 unknown #
vertex $-1 $626 $675 #
straight-curve $-1 -11.543976757440902 -11.627702934884269 63.179298919626696 -0.64278759981090561 0 0.7660444514056185 I I #
point $-1 37.392387474100786 -11.627702934884269 4.8592095112982179 #
point $-1 40.423596911526843 -4.1808930944323812 1.2467546797618425 #
straight-curve $-1 40.423596911526843 0 4.8592095112982161 0 1 0 I I #
vertex $-1 $527 $676 #
point $-1 38.453779720560298 -9.5000429804694431 2.0191489499588431 #
vertex $-1 $531 $677 #
point $-1 38.453779720560298 -6.3085530488472052 2.0191489499588431 #
straight-curve $-1 -40.423596911526843 17.818606047283218 0 0 0 -1 I I #
point $-1 -40.423596911526843 -17.818606047283218 -4.8592095112982161 #
straight-curve $-1 -40.423596911526843 0 -4.8592095112982161 0 1 0 I I #
point $-1 -40.423596911526843 17.818606047283218 -4.8592095112982161 #
edge $-1 $556 -1.5 $567 1.5 $553 $678 forward 7 unknown #
coedge $-1 $554 $563 $558 $644 reversed $400 $-1 #
straight-curve $-1 0 -24.009509159682167 4.8592095112982161 1 0 0 I I #
point $-1 -40.423596911526843 -24.009509159682167 4.8592095112982161 #
edge $-1 $559 -1.5 $565 1.5 $558 $679 forward 7 unknown #
point $-1 40.423596911526843 -24.009509159682167 4.8592095112982161 #
straight-curve $-1 0 -24.009509159682167 1.8592095112982161 -1 0 0 I I #
point $-1 40.423596911526843 -24.009509159682167 1.8592095112982161 #
point $-1 -40.423596911526843 -24.009509159682167 1.8592095112982161 #
edge $-1 $585 -1.5 $574 1.5 $571 $680 forward 7 unknown #
straight-curve $-1 -30.705177888930407 21.12776820923931 0 0 0 -1 I I #
straight-curve $-1 -33.705177888930407 19.473187128261266 4.8592095112982161 0 -1 0 I I #
point $-1 -33.705177888930407 21.12776820923931 4.8592095112982161 #
point $-1 -33.705177888930407 21.12776820923931 -4.8592095112982161 #
straight-curve $-1 -32.205177888930407 21.12776820923931 -4.8592095112982161 1 0 0 I I #
point $-1 -30.705177888930407 21.12776820923931 -4.8592095112982161 #
point $-1 -30.705177888930407 21.12776820923931 4.8592095112982161 #
straight-curve $-1 -40.423596911526843 -2.9153206614804672 30.63837404226188 0 0 -1 I I #
point $-1 -40.423596911526843 -2.9153206614804672 4.8592095112982161 #
straight-curve $-1 -40.423596911526843 -2.7973417657180821 1.1955749263760795 0 -1 0 I I #
point $-1 -40.423596911526843 -2.9153206614804672 1.1955749263760822 #
point $-1 -36.952631295520135 -5.594683531436166 1.431967999857612 #
straight-curve $-1 -40.423596911526843 5.7970616119233336 30.63837404226188 0 0 -1 I I #
point $-1 -40.423596911526843 5.7970616119233336 4.8592095112982161 #
straight-curve $-1 -40.423596911526843 1.5588493709838183 1.1955749263760795 0 -1 0 I I #
point $-1 -40.423596911526843 5.7970616119233336 1.1955749263760822 #
point $-1 -36.952631295520135 3.117698741967633 1.431967999857612 #
straight-curve $-1 -40.423596911526843 14.50944388532713 30.63837404226188 0 0 -1 I I #
point $-1 -40.423596911526843 14.50944388532713 4.8592095112982161 #
straight-curve $-1 -40.423596911526843 5.9150405076857169 1.1955749263760795 0 -1 0 I I #
point $-1 -40.423596911526843 14.50944388532713 1.1955749263760822 #
point $-1 -36.952631295520135 11.830081015371434 1.431967999857612 #
straight-curve $-1 40.423596911526843 -11.627702934884269 57.573436294297224 0 0 -1 I I #
point $-1 40.423596911526843 -11.627702934884269 4.8592095112982161 #
straight-curve $-1 40.423596911526843 -3.9521490073291625 1.2467546797618425 0 1 0 I I #
point $-1 40.423596911526843 -11.627702934884269 1.2467546797618425 #
point $-1 37.749363694952038 -9.5000429804694431 2.0807773757561998 #
point $-1 37.749363694952038 -6.3085530488472052 2.0807773757561998 #
straight-curve $-1 -40.423596911526843 -24.009509159682167 3.3592095112982161 0 0 -1 I I #
straight-curve $-1 40.423596911526843 -24.009509159682167 3.3592095112982161 0 0 -1 I I #
straight-curve $-1 -32.205177888930407 21.12776820923931 4.8592095112982161 -1 0 0 I I #
End-of-ACIS-data 