500 0 8 0           
7 Unknown 11 ACIS 5.0 NT 24 Thu Mar 25 19:19:53 1999 
-1 9.9999999999999995e-007 1e-010 
body $-1 $8 $-1 $9 #
body $-1 $10 $-1 $11 #
body $-1 $12 $-1 $13 #
body $-1 $14 $-1 $15 #
body $-1 $16 $-1 $17 #
body $-1 $18 $-1 $19 #
body $-1 $20 $-1 $21 #
body $-1 $22 $-1 $23 #
lump $-1 $-1 $24 $0 #
transform $-1 1 0 0 0 1 0 0 0 1 43.249610889004181 25.947918654278858 11.868319994118275 1 rotate no_reflect no_shear #
lump $-1 $-1 $25 $1 #
transform $-1 1 0 0 0 1 0 0 0 1 43.249610889004181 25.947918654278858 11.868319994118275 1 rotate no_reflect no_shear #
lump $-1 $-1 $26 $2 #
transform $-1 1 0 0 0 1 0 0 0 1 43.249610889004181 25.947918654278858 11.868319994118275 1 rotate no_reflect no_shear #
lump $-1 $-1 $27 $3 #
transform $-1 1 0 0 0 1 0 0 0 1 43.249610889004181 25.947918654278858 11.868319994118275 1 rotate no_reflect no_shear #
lump $-1 $-1 $28 $4 #
transform $-1 1 0 0 0 1 0 0 0 1 43.249610889004181 25.947918654278858 11.868319994118275 1 rotate no_reflect no_shear #
lump $-1 $-1 $29 $5 #
transform $-1 1 0 0 0 1 0 0 0 1 43.249610889004181 25.947918654278858 11.868319994118275 1 rotate no_reflect no_shear #
lump $-1 $-1 $30 $6 #
transform $-1 1 0 0 0 1 0 0 0 1 43.249610889004181 25.947918654278858 11.868319994118275 1 rotate no_reflect no_shear #
lump $-1 $-1 $31 $7 #
transform $-1 1 0 0 0 1 0 0 0 1 43.249610889004181 25.947918654278858 11.868319994118275 1 rotate no_reflect no_shear #
shell $-1 $-1 $-1 $32 $-1 $8 #
shell $-1 $-1 $-1 $33 $-1 $10 #
shell $-1 $-1 $-1 $34 $-1 $12 #
shell $-1 $-1 $-1 $35 $-1 $14 #
shell $-1 $-1 $-1 $36 $-1 $16 #
shell $-1 $-1 $-1 $37 $-1 $18 #
shell $-1 $-1 $-1 $38 $-1 $20 #
shell $-1 $-1 $-1 $39 $-1 $22 #
face $-1 $40 $41 $24 $-1 $42 forward single #
face $-1 $43 $44 $25 $-1 $45 reversed single #
face $-1 $46 $47 $26 $-1 $48 reversed single #
face $-1 $49 $50 $27 $-1 $51 forward single #
face $-1 $52 $53 $28 $-1 $54 forward single #
face $-1 $55 $56 $29 $-1 $57 reversed single #
face $-1 $58 $59 $30 $-1 $60 forward single #
face $-1 $61 $62 $31 $-1 $63 forward single #
face $-1 $64 $65 $24 $-1 $66 reversed single #
loop $-1 $-1 $67 $32 #
plane-surface $-1 0 0 11.868319994118275 0 0 1 1 0 0 forward_v I I I I #
face $-1 $68 $69 $25 $-1 $70 reversed single #
loop $-1 $-1 $71 $33 #
plane-surface $-1 0 -19.489748079959345 6.2630769374765975 0 0 1 1 0 0 forward_v I I I I #
face $-1 $72 $73 $26 $-1 $74 reversed single #
loop $-1 $-1 $75 $34 #
plane-surface $-1 22.007513001856147 18.37354203836226 125.9110354530666 0 -1 0 -0.57357644374324357 0 -0.81915203911291934 forward_v I I I I #
face $-1 $76 $77 $27 $-1 $78 forward single #
loop $-1 $79 $80 $35 #
cone-surface $-1 37.95672168715474 11.105227928415978 7.6501784231958556 -0.57357644374324357 0 -0.81915203911291934 0.81915203911291934 0 -0.57357644374324357 1 I I 0 1 1 forward I I I I #
face $-1 $81 $82 $28 $-1 $83 forward single #
loop $-1 $84 $85 $36 #
cone-surface $-1 37.95672168715474 15.46621639438375 7.6501784231958556 -0.57357644374324357 0 -0.81915203911291934 0.81915203911291934 0 -0.57357644374324357 1 I I 0 1 1 forward I I I I #
face $-1 $86 $87 $29 $-1 $88 reversed single #
loop $-1 $-1 $89 $37 #
plane-surface $-1 -43.249610889004174 -9.6329542182697345 5.652481553915834 -0.52991927123019833 0 0.84804809178421925 0.84804809178421925 0 0.52991927123019833 forward_v I I I I #
face $-1 $90 $91 $30 $-1 $92 forward single #
loop $-1 $93 $94 $38 #
cone-surface $-1 -38.010940903305595 -11.089507055714062 8.3363767281249466 0.52991927123019833 0 -0.84804809178421925 0.42402404589210962 0 0.26495963561509916 1 I I 0 1 0.5 forward I I I I #
face $-1 $95 $96 $31 $-1 $97 forward single #
loop $-1 $98 $99 $39 #
cone-surface $-1 -38.010940903305595 -8.176401380825407 8.3363767281249466 0.52991927123019833 0 -0.84804809178421925 0.42402404589210962 0 0.26495963561509916 1 I I 0 1 0.5 forward I I I I #
face $-1 $100 $101 $24 $-1 $102 reversed single #
loop $-1 $-1 $103 $40 #
plane-surface $-1 0 0 -11.868319994118275 0 0 1 1 0 0 forward_v I I I I #
coedge $-1 $104 $105 $106 $107 forward $41 $-1 #
face $-1 $108 $109 $25 $-1 $110 reversed single #
loop $-1 $-1 $111 $43 #
plane-surface $-1 0 -13.031577505639831 9.0656984657974373 0 -1 0 0 0 -1 forward_v I I I I #
coedge $-1 $112 $113 $114 $115 reversed $44 $-1 #
face $-1 $116 $117 $26 $-1 $118 reversed single #
loop $-1 $-1 $119 $46 #
plane-surface $-1 -27.606403012132027 13.28572216139986 55.055021551930395 0.57357644374324357 0 0.81915203911291934 0.81915203911291934 0 -0.57357644374324357 forward_v I I I I #
coedge $-1 $120 $121 $122 $123 reversed $47 $-1 #
face $-1 $-1 $124 $27 $-1 $125 forward single #
loop $-1 $126 $127 $49 #
cone-surface $-1 36.966550932530261 11.105227928415978 6.2360680608049943 -0.57357644374324357 0 -0.81915203911291934 0.40957601955645967 0 -0.28678822187162178 1 I I -0.70710678118654746 0.70710678118654746 0.5 forward I I I I #
loop $-1 $-1 $128 $35 #
coedge $-1 $80 $80 $129 $130 reversed $50 $-1 #
face $-1 $-1 $131 $28 $-1 $132 forward single #
loop $-1 $133 $134 $52 #
cone-surface $-1 36.966550932530261 15.46621639438375 6.2360680608049943 -0.57357644374324357 0 -0.81915203911291934 0.40957601955645967 0 -0.28678822187162178 1 I I -0.70710678118654746 0.70710678118654746 0.5 forward I I I I #
loop $-1 $-1 $135 $36 #
coedge $-1 $85 $85 $136 $137 reversed $53 $-1 #
face $-1 $138 $139 $29 $-1 $140 forward single #
loop $-1 $-1 $141 $55 #
plane-surface $-1 -89.087215455585664 -6.2343309308996355 79.007981523575808 0 -1 0 0.52991927123019833 0 -0.84804809178421925 forward_v I I I I #
coedge $-1 $142 $143 $144 $145 reversed $56 $-1 #
face $-1 $-1 $146 $30 $-1 $147 forward single #
loop $-1 $148 $149 $58 #
cone-surface $-1 -37.613501449882946 -11.089507055714062 7.7003406592867822 0.52991927123019833 0 -0.84804809178421925 0.21201202294605481 0 0.13247981780754958 1 I I -0.70710678118654746 0.70710678118654746 0.25 forward I I I I #
loop $-1 $-1 $150 $38 #
coedge $-1 $94 $94 $151 $152 reversed $59 $-1 #
face $-1 $-1 $153 $31 $-1 $154 forward single #
loop $-1 $155 $156 $61 #
cone-surface $-1 -37.613501449882946 -8.176401380825407 7.7003406592867822 0.52991927123019833 0 -0.84804809178421925 0.21201202294605481 0 0.13247981780754958 1 I I -0.70710678118654746 0.70710678118654746 0.25 forward I I I I #
loop $-1 $-1 $157 $39 #
coedge $-1 $99 $99 $158 $159 reversed $62 $-1 #
face $-1 $160 $161 $24 $-1 $162 reversed single #
loop $-1 $-1 $163 $64 #
plane-surface $-1 0 -25.947918654278858 0 0 1 0 0 0 1 forward_v I I I I #
coedge $-1 $164 $165 $166 $167 forward $65 $-1 #
coedge $-1 $168 $67 $169 $170 forward $41 $-1 #
coedge $-1 $67 $168 $171 $172 forward $41 $-1 #
coedge $-1 $173 $174 $67 $107 reversed $175 $-1 #
edge $-1 $176 -25.947918654278858 $177 25.947918654278858 $106 $178 forward 7 unknown #
face $-1 $179 $180 $25 $-1 $181 reversed single #
loop $-1 $-1 $182 $68 #
plane-surface $-1 -43.249610889004181 0 0 1 0 0 0 0 -1 forward_v I I I I #
coedge $-1 $183 $184 $185 $186 reversed $69 $-1 #
coedge $-1 $187 $71 $188 $189 reversed $44 $-1 #
coedge $-1 $71 $187 $183 $190 forward $44 $-1 #
coedge $-1 $185 $191 $71 $115 forward $192 $-1 #
edge $-1 $193 -16.203044614299188 $194 -3.2867034656601586 $114 $195 forward 7 unknown #
face $-1 $196 $197 $26 $-1 $198 reversed single #
loop $-1 $-1 $199 $72 #
plane-surface $-1 22.007513001856147 8.1979022844374612 125.9110354530666 0 1 0 0.57357644374324357 0 0.81915203911291934 forward_v I I I I #
coedge $-1 $200 $201 $202 $203 reversed $73 $-1 #
coedge $-1 $121 $75 $204 $205 reversed $47 $-1 #
coedge $-1 $75 $120 $200 $206 reversed $47 $-1 #
coedge $-1 $202 $207 $75 $123 forward $208 $-1 #
edge $-1 $209 -32.245854388076111 $210 -23.066841049882928 $122 $211 forward 7 unknown #
loop $-1 $-1 $129 $76 #
plane-surface $-1 -27.606403012132027 13.28572216139986 55.055021551930395 0.57357644374324357 0 0.81915203911291934 0.81915203911291934 0 -0.57357644374324357 forward_v I I I I #
loop $-1 $-1 $212 $49 #
coedge $-1 $127 $127 $128 $213 reversed $77 $-1 #
coedge $-1 $128 $128 $127 $213 forward $79 $-1 #
coedge $-1 $129 $129 $80 $130 forward $124 $-1 #
edge $-1 $214 0 $214 6.2831853071796004 $129 $215 forward 7 unknown #
loop $-1 $-1 $136 $81 #
plane-surface $-1 -27.606403012132027 13.28572216139986 55.055021551930395 0.57357644374324357 0 0.81915203911291934 0.81915203911291934 0 -0.57357644374324357 forward_v I I I I #
loop $-1 $-1 $216 $52 #
coedge $-1 $134 $134 $135 $217 reversed $82 $-1 #
coedge $-1 $135 $135 $134 $217 forward $84 $-1 #
coedge $-1 $136 $136 $85 $137 forward $131 $-1 #
edge $-1 $218 0 $218 6.2831853071796004 $136 $219 forward 7 unknown #
face $-1 $220 $221 $29 $-1 $222 reversed single #
loop $-1 $-1 $144 $86 #
plane-surface $-1 0 0 11.868319994118275 0 0 1 1 0 0 forward_v I I I I #
coedge $-1 $223 $224 $225 $226 reversed $87 $-1 #
coedge $-1 $227 $89 $228 $229 reversed $56 $-1 #
coedge $-1 $89 $227 $223 $230 forward $56 $-1 #
coedge $-1 $225 $231 $89 $145 forward $139 $-1 #
edge $-1 $232 -8.2151003965049672 $233 -1.4178538217647683 $144 $234 forward 7 unknown #
loop $-1 $-1 $151 $90 #
plane-surface $-1 -43.249610889004174 -9.6329542182697345 5.652481553915834 -0.52991927123019833 0 0.84804809178421925 0.84804809178421925 0 0.52991927123019833 forward_v I I I I #
loop $-1 $-1 $235 $58 #
coedge $-1 $149 $149 $150 $236 reversed $91 $-1 #
coedge $-1 $150 $150 $149 $236 forward $93 $-1 #
coedge $-1 $151 $151 $94 $152 forward $146 $-1 #
edge $-1 $237 0 $237 6.2831853071796004 $151 $238 forward 7 unknown #
loop $-1 $-1 $158 $95 #
plane-surface $-1 -43.249610889004174 -9.6329542182697345 5.652481553915834 -0.52991927123019833 0 0.84804809178421925 0.84804809178421925 0 0.52991927123019833 forward_v I I I I #
loop $-1 $-1 $239 $61 #
coedge $-1 $156 $156 $157 $240 reversed $96 $-1 #
coedge $-1 $157 $157 $156 $240 forward $98 $-1 #
coedge $-1 $158 $158 $99 $159 forward $153 $-1 #
edge $-1 $241 0 $241 6.2831853071796004 $158 $242 forward 7 unknown #
face $-1 $243 $244 $24 $-1 $245 reversed single #
loop $-1 $-1 $246 $100 #
plane-surface $-1 -43.249610889004181 0 0 1 0 0 0 0 -1 forward_v I I I I #
coedge $-1 $247 $171 $248 $249 forward $101 $-1 #
coedge $-1 $250 $103 $247 $251 forward $65 $-1 #
coedge $-1 $103 $250 $252 $253 forward $65 $-1 #
coedge $-1 $174 $173 $103 $167 reversed $175 $-1 #
edge $-1 $254 -25.947918654278858 $255 25.947918654278858 $166 $256 forward 7 unknown #
coedge $-1 $105 $104 $257 $258 forward $41 $-1 #
coedge $-1 $259 $260 $104 $170 reversed $244 $-1 #
edge $-1 $177 -43.249610889004181 $261 43.249610889004181 $169 $262 forward 7 unknown #
coedge $-1 $163 $263 $105 $172 reversed $101 $-1 #
edge $-1 $264 -43.249610889004181 $176 43.249610889004181 $171 $265 forward 7 unknown #
coedge $-1 $166 $106 $263 $266 forward $175 $-1 #
coedge $-1 $106 $166 $259 $267 reversed $175 $-1 #
loop $-1 $-1 $173 $243 #
vertex $-1 $107 $268 #
vertex $-1 $107 $269 #
straight-curve $-1 43.249610889004181 0 11.868319994118275 0 1 0 I I #
face $-1 $270 $271 $25 $-1 $272 forward single #
loop $-1 $-1 $188 $108 #
plane-surface $-1 0 -25.947918654278858 0 0 1 0 0 0 1 forward_v I I I I #
coedge $-1 $273 $274 $275 $276 forward $109 $-1 #
coedge $-1 $275 $111 $113 $190 reversed $69 $-1 #
coedge $-1 $111 $275 $277 $278 reversed $69 $-1 #
coedge $-1 $279 $114 $111 $186 forward $192 $-1 #
edge $-1 $194 1.7302277045778789 $280 7.3354707612195584 $185 $281 forward 7 unknown #
coedge $-1 $113 $112 $273 $282 reversed $44 $-1 #
coedge $-1 $283 $284 $112 $189 forward $180 $-1 #
edge $-1 $285 -43.249610889004181 $193 43.249610889004181 $188 $286 forward 7 unknown #
edge $-1 $287 -43.249610889004181 $194 43.249610889004181 $183 $288 forward 7 unknown #
coedge $-1 $114 $279 $283 $289 forward $192 $-1 #
loop $-1 $-1 $185 $270 #
vertex $-1 $189 $290 #
vertex $-1 $115 $291 #
straight-curve $-1 43.249610889004181 -9.7448740399796723 6.2630769374765975 0 1 0 I I #
face $-1 $-1 $208 $26 $-1 $292 forward single #
loop $-1 $-1 $293 $116 #
plane-surface $-1 43.249610889004181 0 0 -1 0 0 0 0 1 forward_v I I I I #
coedge $-1 $294 $295 $296 $297 reversed $117 $-1 #
coedge $-1 $298 $119 $121 $206 forward $73 $-1 #
coedge $-1 $119 $298 $294 $299 forward $73 $-1 #
coedge $-1 $296 $122 $119 $203 forward $208 $-1 #
edge $-1 $210 -11.730680957662329 $300 -1.555041203737531 $202 $301 forward 7 unknown #
coedge $-1 $302 $303 $120 $205 forward $197 $-1 #
edge $-1 $304 -57.514412188591088 $209 -51.087197732415028 $204 $305 forward 7 unknown #
edge $-1 $210 75.29371547403413 $304 86.499221778008391 $121 $306 forward 7 unknown #
coedge $-1 $122 $296 $302 $307 forward $208 $-1 #
loop $-1 $-1 $296 $196 #
vertex $-1 $205 $308 #
vertex $-1 $123 $309 #
straight-curve $-1 11.003756500928073 18.37354203836226 11.868319994118274 -1 0 0 I I #
coedge $-1 $212 $212 $-1 $310 reversed $126 $-1 #
edge $-1 $311 0 $311 6.2831853071796004 $127 $312 forward 7 unknown #
vertex $-1 $130 $313 #
ellipse-curve $-1 38.660104219907588 11.105227928415978 8.6547127660302472 0.57357644374324357 0 0.81915203911291934 0.81915203911291934 0 -0.57357644374324357 1 I I #
coedge $-1 $216 $216 $-1 $314 reversed $133 $-1 #
edge $-1 $315 0 $315 6.2831853071796004 $134 $316 forward 7 unknown #
vertex $-1 $137 $317 #
ellipse-curve $-1 38.660104219907588 15.46621639438375 8.6547127660302472 0.57357644374324357 0 0.81915203911291934 0.81915203911291934 0 -0.57357644374324357 1 I I #
face $-1 $-1 $318 $29 $-1 $319 forward single #
loop $-1 $-1 $320 $138 #
plane-surface $-1 -43.249610889004181 0 0 1 0 0 0 0 -1 forward_v I I I I #
coedge $-1 $224 $141 $143 $230 reversed $87 $-1 #
coedge $-1 $141 $223 $320 $321 reversed $87 $-1 #
coedge $-1 $322 $144 $141 $226 forward $139 $-1 #
edge $-1 $233 -11.241417538955645 $323 -1.2939968387886509 $225 $324 forward 7 unknown #
coedge $-1 $143 $142 $325 $326 reversed $56 $-1 #
coedge $-1 $327 $328 $142 $229 forward $318 $-1 #
edge $-1 $329 -19.243239701662446 $232 -7.5134559823942499 $228 $330 forward 7 unknown #
edge $-1 $331 -8.3790584163743152e-015 $233 11.729783719268186 $223 $332 forward 7 unknown #
coedge $-1 $144 $322 $327 $333 forward $139 $-1 #
vertex $-1 $229 $334 #
vertex $-1 $145 $335 #
straight-curve $-1 -33.302190188837187 -4.8164771091348673 11.868319994118275 0 1 0 I I #
coedge $-1 $235 $235 $-1 $336 reversed $148 $-1 #
edge $-1 $337 0 $337 6.2831853071796004 $149 $338 forward 7 unknown #
vertex $-1 $152 $339 #
ellipse-curve $-1 -38.275900538920688 -11.089507055714062 8.7604007740170484 -0.52991927123019833 0 0.84804809178421925 0.42402404589210962 0 0.26495963561509916 1 I I #
coedge $-1 $239 $239 $-1 $340 reversed $155 $-1 #
edge $-1 $341 0 $341 6.2831853071796004 $156 $342 forward 7 unknown #
vertex $-1 $159 $343 #
ellipse-curve $-1 -38.275900538920688 -8.176401380825407 8.7604007740170484 -0.52991927123019833 0 0.84804809178421925 0.42402404589210962 0 0.26495963561509916 1 I I #
face $-1 $-1 $175 $24 $-1 $344 reversed single #
loop $-1 $-1 $259 $160 #
plane-surface $-1 0 25.947918654278858 0 0 -1 0 0 0 -1 forward_v I I I I #
coedge $-1 $345 $257 $260 $346 forward $161 $-1 #
coedge $-1 $263 $163 $164 $251 reversed $101 $-1 #
coedge $-1 $257 $345 $163 $249 reversed $161 $-1 #
edge $-1 $264 -11.868319994118275 $347 11.868319994118275 $248 $348 forward 7 unknown #
coedge $-1 $165 $164 $345 $349 forward $65 $-1 #
edge $-1 $255 -43.249610889004181 $347 43.249610889004181 $247 $350 forward 7 unknown #
coedge $-1 $260 $259 $165 $253 reversed $244 $-1 #
edge $-1 $351 -43.249610889004181 $254 43.249610889004181 $252 $352 forward 7 unknown #
vertex $-1 $167 $353 #
vertex $-1 $266 $354 #
straight-curve $-1 43.249610889004181 0 -11.868319994118275 0 -1 0 I I #
coedge $-1 $246 $248 $168 $258 reversed $161 $-1 #
edge $-1 $261 -25.947918654278858 $264 25.947918654278858 $257 $355 forward 7 unknown #
coedge $-1 $252 $169 $174 $267 forward $244 $-1 #
coedge $-1 $169 $252 $246 $346 reversed $244 $-1 #
vertex $-1 $170 $356 #
straight-curve $-1 0 25.947918654278858 11.868319994118275 -1 0 0 I I #
coedge $-1 $171 $247 $173 $266 reversed $101 $-1 #
vertex $-1 $258 $357 #
straight-curve $-1 0 -25.947918654278858 11.868319994118275 1 0 0 I I #
edge $-1 $176 -11.868319994118275 $255 11.868319994118275 $173 $358 forward 7 unknown #
edge $-1 $177 -11.868319994118275 $254 11.868319994118275 $174 $359 forward 7 unknown #
point $-1 43.249610889004181 -25.947918654278858 11.868319994118275 #
point $-1 43.249610889004181 25.947918654278858 11.868319994118275 #
face $-1 $-1 $192 $25 $-1 $360 reversed single #
loop $-1 $-1 $277 $179 #
plane-surface $-1 0 0 11.868319994118275 0 0 1 1 0 0 forward_v I I I I #
coedge $-1 $361 $182 $187 $282 forward $109 $-1 #
coedge $-1 $182 $361 $362 $363 reversed $109 $-1 #
coedge $-1 $184 $183 $182 $276 reversed $69 $-1 #
edge $-1 $364 -7.3354707612195584 $287 -1.7302277045778789 $182 $365 forward 7 unknown #
coedge $-1 $362 $366 $184 $278 forward $271 $-1 #
edge $-1 $280 -43.249610889004181 $364 43.249610889004181 $277 $367 forward 7 unknown #
coedge $-1 $191 $185 $366 $368 reversed $192 $-1 #
vertex $-1 $186 $369 #
straight-curve $-1 43.249610889004181 -13.031577505639831 4.5328492328987187 0 0 1 I I #
edge $-1 $287 3.2867034656601586 $285 16.203044614299188 $273 $370 forward 7 unknown #
coedge $-1 $371 $188 $191 $289 reversed $180 $-1 #
coedge $-1 $188 $371 $361 $372 forward $180 $-1 #
vertex $-1 $189 $373 #
straight-curve $-1 0 -25.947918654278858 6.2630769374765975 1 0 0 I I #
vertex $-1 $282 $374 #
straight-curve $-1 0 -13.031577505639831 6.2630769374765975 1 0 0 I I #
edge $-1 $375 -11.868319994118275 $193 -6.2630769374765975 $191 $376 forward 7 unknown #
point $-1 43.249610889004181 -25.947918654278858 6.2630769374765975 #
point $-1 43.249610889004181 -13.031577505639831 6.2630769374765975 #
plane-surface $-1 0 0 11.868319994118275 0 0 1 1 0 0 forward_v I I I I #
coedge $-1 $303 $302 $295 $377 forward $197 $-1 #
coedge $-1 $295 $199 $201 $299 reversed $117 $-1 #
coedge $-1 $199 $294 $293 $377 reversed $117 $-1 #
coedge $-1 $207 $202 $199 $297 forward $208 $-1 #
edge $-1 $300 23.066841049882928 $378 32.245854388076111 $296 $379 forward 7 unknown #
coedge $-1 $201 $200 $303 $380 reversed $73 $-1 #
edge $-1 $381 -86.499221778008391 $300 -75.29371547403413 $294 $382 forward 7 unknown #
vertex $-1 $203 $383 #
straight-curve $-1 34.070597550810987 6.6428610806999302 11.868319994118274 0 -1 0 I I #
coedge $-1 $293 $204 $207 $307 reversed $197 $-1 #
coedge $-1 $204 $293 $298 $380 forward $197 $-1 #
vertex $-1 $205 $384 #
straight-curve $-1 43.249610889004181 18.37354203836226 62.955517726533301 0 0 1 I I #
straight-curve $-1 -27.606403012132027 18.37354203836226 55.055021551930395 0.81915203911291934 0 -0.57357644374324357 I I #
edge $-1 $378 8.1979022844374612 $209 18.37354203836226 $302 $385 forward 7 unknown #
point $-1 43.249610889004181 18.37354203836226 11.868319994118275 #
point $-1 34.070597550811001 18.37354203836226 11.868319994118266 #
edge $-1 $386 1 $386 0 $212 $-1 forward 7 unknown #
vertex $-1 $213 $387 #
ellipse-curve $-1 37.253339154401885 11.105227928415978 6.6456440803614543 0.57357644374324357 0 0.81915203911291934 0.81915203911291934 0 -0.57357644374324357 1 I I #
point $-1 39.479256259020516 11.105227928415978 8.0811363222870156 #
edge $-1 $388 1 $388 0 $216 $-1 forward 7 unknown #
vertex $-1 $217 $389 #
ellipse-curve $-1 37.253339154401885 15.46621639438375 6.6456440803614543 0.57357644374324357 0 0.81915203911291934 0.81915203911291934 0 -0.57357644374324357 1 I I #
point $-1 39.479256259020516 15.46621639438375 8.0811363222870156 #
loop $-1 $-1 $228 $220 #
plane-surface $-1 0 -13.031577505639831 9.0656984657974373 0 -1 0 0 0 -1 forward_v I I I I #
coedge $-1 $325 $390 $224 $321 forward $221 $-1 #
edge $-1 $323 27.63567076766963 $331 33.851509207872077 $320 $391 forward 7 unknown #
coedge $-1 $231 $225 $390 $392 forward $139 $-1 #
vertex $-1 $392 $393 #
straight-curve $-1 -44.543607727792832 -6.2343309308996355 11.868319994118274 -1 0 0 I I #
coedge $-1 $394 $320 $227 $326 forward $221 $-1 #
edge $-1 $331 1.4178538217647683 $329 8.2151003965049672 $325 $395 forward 7 unknown #
coedge $-1 $328 $228 $231 $333 reversed $318 $-1 #
coedge $-1 $228 $327 $394 $396 reversed $318 $-1 #
vertex $-1 $396 $397 #
straight-curve $-1 -26.930418180263018 -13.031577505639831 15.849845112728811 0.84804809178421925 0 0.52991927123019833 I I #
vertex $-1 $326 $398 #
straight-curve $-1 -43.249610889004174 -6.2343309308996355 5.652481553915834 0.84804809178421925 0 0.52991927123019833 I I #
edge $-1 $399 -43.249610889004181 $232 -33.302190188837187 $231 $400 forward 7 unknown #
point $-1 -33.302190188837187 -13.031577505639834 11.868319994118275 #
point $-1 -33.302190188837187 -6.2343309308996355 11.868319994118275 #
edge $-1 $401 1 $401 0 $235 $-1 forward 7 unknown #
vertex $-1 $236 $402 #
ellipse-curve $-1 -37.745981267690496 -11.089507055714062 7.9123526822328367 -0.52991927123019833 0 0.84804809178421925 0.42402404589210962 0 0.26495963561509916 1 I I #
point $-1 -37.851876493028584 -11.089507055714062 9.0253604096321549 #
edge $-1 $403 1 $403 0 $239 $-1 forward 7 unknown #
vertex $-1 $240 $404 #
ellipse-curve $-1 -37.745981267690496 -8.176401380825407 7.9123526822328367 -0.52991927123019833 0 0.84804809178421925 0.42402404589210962 0 0.26495963561509916 1 I I #
point $-1 -37.851876493028584 -8.176401380825407 9.0253604096321549 #
plane-surface $-1 43.249610889004181 0 0 -1 0 0 0 0 1 forward_v I I I I #
coedge $-1 $248 $246 $250 $349 reversed $161 $-1 #
edge $-1 $261 -11.868319994118275 $351 11.868319994118275 $260 $405 forward 7 unknown #
vertex $-1 $349 $406 #
straight-curve $-1 -43.249610889004181 -25.947918654278858 0 0 0 -1 I I #
edge $-1 $347 -25.947918654278858 $351 25.947918654278858 $345 $407 forward 7 unknown #
straight-curve $-1 0 -25.947918654278858 -11.868319994118275 -1 0 0 I I #
vertex $-1 $253 $408 #
straight-curve $-1 0 25.947918654278858 -11.868319994118275 1 0 0 I I #
point $-1 43.249610889004181 25.947918654278858 -11.868319994118275 #
point $-1 43.249610889004181 -25.947918654278858 -11.868319994118275 #
straight-curve $-1 -43.249610889004181 0 11.868319994118275 0 -1 0 I I #
point $-1 -43.249610889004181 25.947918654278858 11.868319994118275 #
point $-1 -43.249610889004181 -25.947918654278858 11.868319994118275 #
straight-curve $-1 43.249610889004181 -25.947918654278858 0 0 0 -1 I I #
straight-curve $-1 43.249610889004181 25.947918654278858 0 0 0 -1 I I #
plane-surface $-1 43.249610889004181 0 0 -1 0 0 0 0 1 forward_v I I I I #
coedge $-1 $274 $273 $284 $372 reversed $109 $-1 #
coedge $-1 $409 $277 $274 $363 forward $271 $-1 #
edge $-1 $364 13.031577505639831 $410 25.947918654278858 $274 $411 forward 7 unknown #
vertex $-1 $363 $412 #
straight-curve $-1 -43.249610889004181 -13.031577505639831 4.5328492328987187 0 0 -1 I I #
coedge $-1 $277 $409 $279 $368 forward $271 $-1 #
straight-curve $-1 0 -13.031577505639831 11.868319994118275 -1 0 0 I I #
edge $-1 $375 -25.947918654278858 $280 -13.031577505639831 $279 $413 forward 7 unknown #
point $-1 43.249610889004181 -13.031577505639831 11.868319994118277 #
straight-curve $-1 -43.249610889004181 -9.7448740399796723 6.2630769374765975 0 -1 0 I I #
coedge $-1 $284 $283 $409 $414 reversed $180 $-1 #
edge $-1 $410 -11.868319994118275 $285 -6.2630769374765975 $361 $415 forward 7 unknown #
point $-1 -43.249610889004181 -25.947918654278858 6.2630769374765975 #
point $-1 -43.249610889004181 -13.031577505639831 6.2630769374765975 #
vertex $-1 $368 $416 #
straight-curve $-1 43.249610889004181 -25.947918654278858 0 0 0 -1 I I #
edge $-1 $378 51.087197732415028 $381 57.514412188591088 $293 $417 forward 7 unknown #
vertex $-1 $307 $418 #
straight-curve $-1 11.003756500928073 8.1979022844374612 11.868319994118274 1 0 0 I I #
edge $-1 $381 1.555041203737531 $304 11.730680957662329 $303 $419 forward 7 unknown #
vertex $-1 $380 $420 #
straight-curve $-1 -27.606403012132027 8.1979022844374612 55.055021551930395 -0.81915203911291934 0 0.57357644374324357 I I #
point $-1 34.070597550811001 8.1979022844374612 11.868319994118266 #
point $-1 43.249610889004181 18.37354203836226 5.4411055379422137 #
straight-curve $-1 43.249610889004181 0 11.868319994118275 0 1 0 I I #
vertex $-1 $310 $421 #
point $-1 38.0724911935148 11.105227928415978 6.0720676366182103 #
vertex $-1 $314 $422 #
point $-1 38.0724911935148 15.46621639438375 6.0720676366182103 #
coedge $-1 $320 $394 $322 $392 reversed $221 $-1 #
straight-curve $-1 -43.249610889004181 -6.2343309308996355 39.503990761787904 0 0 -1 I I #
edge $-1 $323 6.2343309308996355 $399 13.031577505639831 $390 $423 forward 7 unknown #
point $-1 -43.249610889004181 -6.2343309308996355 11.868319994118275 #
coedge $-1 $390 $325 $328 $396 forward $221 $-1 #
straight-curve $-1 -43.249610889004181 -4.8164771091348673 5.6524815539158269 0 -1 0 I I #
edge $-1 $329 -33.851509207872077 $399 -27.635670767669627 $394 $424 forward 7 unknown #
point $-1 -43.249610889004181 -13.031577505639834 5.6524815539158295 #
point $-1 -43.249610889004181 -6.2343309308996355 5.6524815539158295 #
vertex $-1 $396 $425 #
straight-curve $-1 0 -13.031577505639831 11.868319994118275 1 0 0 I I #
vertex $-1 $336 $426 #
point $-1 -37.321957221798385 -11.089507055714062 8.177312317847937 #
vertex $-1 $340 $427 #
point $-1 -37.321957221798385 -8.176401380825407 8.177312317847937 #
straight-curve $-1 -43.249610889004181 25.947918654278858 0 0 0 -1 I I #
point $-1 -43.249610889004181 -25.947918654278858 -11.868319994118275 #
straight-curve $-1 -43.249610889004181 0 -11.868319994118275 0 1 0 I I #
point $-1 -43.249610889004181 25.947918654278858 -11.868319994118275 #
coedge $-1 $366 $362 $371 $414 forward $271 $-1 #
vertex $-1 $363 $428 #
straight-curve $-1 -43.249610889004181 0 11.868319994118275 0 -1 0 I I #
point $-1 -43.249610889004181 -13.031577505639831 11.868319994118277 #
straight-curve $-1 43.249610889004181 0 11.868319994118275 0 1 0 I I #
edge $-1 $410 -43.249610889004181 $375 43.249610889004181 $371 $429 forward 7 unknown #
straight-curve $-1 -43.249610889004181 -25.947918654278858 0 0 0 -1 I I #
point $-1 43.249610889004181 -25.947918654278858 11.868319994118275 #
straight-curve $-1 43.249610889004181 8.1979022844374612 62.955517726533301 0 0 -1 I I #
point $-1 43.249610889004181 8.1979022844374612 11.868319994118275 #
straight-curve $-1 43.249610889004188 6.6428610806999302 5.4411055379422173 0 1 0 I I #
point $-1 43.249610889004181 8.1979022844374612 5.4411055379422137 #
point $-1 36.679762710658636 11.105227928415978 5.8264920412485344 #
point $-1 36.679762710658636 15.46621639438375 5.8264920412485344 #
straight-curve $-1 -43.249610889004181 0 11.868319994118275 0 -1 0 I I #
straight-curve $-1 -43.249610889004181 -13.031577505639834 39.503990761787904 0 0 1 I I #
point $-1 -43.249610889004181 -13.031577505639831 11.868319994118277 #
point $-1 -37.481021632075397 -11.089507055714062 7.4883286363407278 #
point $-1 -37.481021632075397 -8.176401380825407 7.4883286363407278 #
point $-1 -43.249610889004181 -25.947918654278858 11.868319994118275 #
straight-curve $-1 0 -25.947918654278858 11.868319994118275 1 0 0 I I #
End-of-ACIS-data 