500 0 10 0           
7 Unknown 11 ACIS 5.0 NT 24 Fri Mar 26 01:35:21 1999 
-1 9.9999999999999995e-007 1e-010 
body $-1 $10 $-1 $11 #
body $-1 $12 $-1 $13 #
body $-1 $14 $-1 $15 #
body $-1 $16 $-1 $17 #
body $-1 $18 $-1 $19 #
body $-1 $20 $-1 $21 #
body $-1 $22 $-1 $23 #
body $-1 $24 $-1 $25 #
body $-1 $26 $-1 $27 #
body $-1 $28 $-1 $29 #
lump $-1 $-1 $30 $0 #
transform $-1 1 0 0 0 1 0 0 0 1 50.456862086855679 32.599780230407973 15.558791561975712 1 rotate no_reflect no_shear #
lump $-1 $-1 $31 $1 #
transform $-1 1 0 0 0 1 0 0 0 1 50.456862086855679 32.599780230407973 15.558791561975712 1 rotate no_reflect no_shear #
lump $-1 $-1 $32 $2 #
transform $-1 1 0 0 0 1 0 0 0 1 50.456862086855679 32.599780230407973 15.558791561975712 1 rotate no_reflect no_shear #
lump $-1 $-1 $33 $3 #
transform $-1 1 0 0 0 1 0 0 0 1 50.456862086855679 32.599780230407973 15.558791561975712 1 rotate no_reflect no_shear #
lump $-1 $-1 $34 $4 #
transform $-1 1 0 0 0 1 0 0 0 1 50.456862086855679 32.599780230407973 15.558791561975712 1 rotate no_reflect no_shear #
lump $-1 $-1 $35 $5 #
transform $-1 1 0 0 0 1 0 0 0 1 50.456862086855679 32.599780230407973 15.558791561975712 1 rotate no_reflect no_shear #
lump $-1 $-1 $36 $6 #
transform $-1 1 0 0 0 1 0 0 0 1 50.456862086855679 32.599780230407973 15.558791561975712 1 rotate no_reflect no_shear #
lump $-1 $-1 $37 $7 #
transform $-1 1 0 0 0 1 0 0 0 1 50.456862086855679 32.599780230407973 15.558791561975712 1 rotate no_reflect no_shear #
lump $-1 $-1 $38 $8 #
transform $-1 1 0 0 0 1 0 0 0 1 50.456862086855679 32.599780230407973 15.558791561975712 1 rotate no_reflect no_shear #
lump $-1 $-1 $39 $9 #
transform $-1 1 0 0 0 1 0 0 0 1 50.456862086855679 32.599780230407973 15.558791561975712 1 rotate no_reflect no_shear #
shell $-1 $-1 $-1 $40 $-1 $10 #
shell $-1 $-1 $-1 $41 $-1 $12 #
shell $-1 $-1 $-1 $42 $-1 $14 #
shell $-1 $-1 $-1 $43 $-1 $16 #
shell $-1 $-1 $-1 $44 $-1 $18 #
shell $-1 $-1 $-1 $45 $-1 $20 #
shell $-1 $-1 $-1 $46 $-1 $22 #
shell $-1 $-1 $-1 $47 $-1 $24 #
shell $-1 $-1 $-1 $48 $-1 $26 #
shell $-1 $-1 $-1 $49 $-1 $28 #
face $-1 $50 $51 $30 $-1 $52 forward single #
face $-1 $53 $54 $31 $-1 $55 reversed single #
face $-1 $56 $57 $32 $-1 $58 reversed single #
face $-1 $59 $60 $33 $-1 $61 reversed single #
face $-1 $62 $63 $34 $-1 $64 forward single #
face $-1 $65 $66 $35 $-1 $67 forward single #
face $-1 $68 $69 $36 $-1 $70 reversed single #
face $-1 $71 $72 $37 $-1 $73 forward single #
face $-1 $74 $75 $38 $-1 $76 reversed single #
face $-1 $77 $78 $39 $-1 $79 forward single #
face $-1 $80 $81 $30 $-1 $82 reversed single #
loop $-1 $-1 $83 $40 #
plane-surface $-1 0 0 15.558791561975712 0 0 1 1 0 0 forward_v I I I I #
face $-1 $84 $85 $31 $-1 $86 reversed single #
loop $-1 $-1 $87 $41 #
plane-surface $-1 -41.401970182277175 -26.518881672951025 0 0 1 0 0 0 1 forward_v I I I I #
face $-1 $88 $89 $32 $-1 $90 reversed single #
loop $-1 $-1 $91 $42 #
plane-surface $-1 41.401970182277168 -26.518881672951025 0 0 1 0 0 0 1 forward_v I I I I #
face $-1 $92 $93 $33 $-1 $94 reversed single #
loop $-1 $-1 $95 $43 #
plane-surface $-1 4.7504905268575435 47.520112021284575 128.4833874739131 1 0 0 0 -0.64278761758704617 -0.76604443648966558 forward_v I I I I #
face $-1 $96 $97 $34 $-1 $98 forward single #
loop $-1 $99 $100 $44 #
cone-surface $-1 9.9511483100032549 28.059361142948831 11.469347565683321 0 -0.64278761758704617 -0.76604443648966558 1 0 0 1 I I 0 1 1 forward I I I I #
face $-1 $101 $102 $35 $-1 $103 forward single #
loop $-1 $104 $105 $45 #
cone-surface $-1 17.75213498472182 28.059361142948831 11.469347565683321 0 -0.64278761758704617 -0.76604443648966558 1 0 0 1 I I 0 1 1 forward I I I I #
face $-1 $106 $107 $36 $-1 $108 reversed single #
loop $-1 $-1 $109 $46 #
plane-surface $-1 -20.422184284622816 -118.17947269168197 63.977110054753879 -1 0 0 0 -0.84804810408105047 0.52991925155115449 forward_v I I I I #
face $-1 $110 $111 $37 $-1 $112 forward single #
loop $-1 $113 $114 $47 #
cone-surface $-1 -26.384631281160743 -29.484870700283359 12.070916632706854 0 0.84804810408105047 -0.52991925155115449 1 0 0 1 I I 0 1 1 forward I I I I #
face $-1 $115 $116 $38 $-1 $117 reversed single #
loop $-1 $-1 $118 $48 #
plane-surface $-1 11.924893993075857 -118.17947269168197 63.977110054753879 -1 0 0 0 -0.84804810408105047 0.52991925155115449 forward_v I I I I #
face $-1 $119 $120 $39 $-1 $121 forward single #
loop $-1 $122 $123 $49 #
cone-surface $-1 5.9624469965379276 -29.484870700283359 12.070916632706854 0 0.84804810408105047 -0.52991925155115449 1 0 0 1 I I 0 1 1 forward I I I I #
face $-1 $124 $125 $30 $-1 $126 reversed single #
loop $-1 $-1 $127 $50 #
plane-surface $-1 0 0 -15.558791561975712 0 0 1 1 0 0 forward_v I I I I #
coedge $-1 $128 $129 $130 $131 forward $51 $-1 #
face $-1 $132 $133 $31 $-1 $134 reversed single #
loop $-1 $-1 $135 $53 #
plane-surface $-1 -41.401970182277175 -19.384543978969731 0 0 -1 0 0 0 -1 forward_v I I I I #
coedge $-1 $136 $137 $138 $139 reversed $54 $-1 #
face $-1 $140 $141 $32 $-1 $142 reversed single #
loop $-1 $-1 $143 $56 #
plane-surface $-1 32.347078277698664 -22.951712825960378 0 1 0 0 0 0 -1 forward_v I I I I #
coedge $-1 $144 $145 $146 $147 forward $57 $-1 #
face $-1 $148 $149 $33 $-1 $150 reversed single #
loop $-1 $-1 $151 $59 #
plane-surface $-1 13.851641647362541 -17.345980322171656 51.178990505188835 0 0.64278761758704617 0.76604443648966558 1 0 0 forward_v I I I I #
coedge $-1 $152 $153 $154 $155 reversed $60 $-1 #
face $-1 $-1 $156 $34 $-1 $157 forward single #
loop $-1 $158 $159 $62 #
cone-surface $-1 9.9511483100032549 26.94517893780062 10.14151694770476 0 -0.64278761758704617 -0.76604443648966558 0.5 0 0 1 I I -0.70710678118654746 0.70710678118654746 0.5 forward I I I I #
loop $-1 $-1 $160 $44 #
coedge $-1 $100 $100 $161 $162 reversed $63 $-1 #
face $-1 $-1 $163 $35 $-1 $164 forward single #
loop $-1 $165 $166 $65 #
cone-surface $-1 17.75213498472182 26.94517893780062 10.14151694770476 0 -0.64278761758704617 -0.76604443648966558 0.5 0 0 1 I I -0.70710678118654746 0.70710678118654746 0.5 forward I I I I #
loop $-1 $-1 $167 $45 #
coedge $-1 $105 $105 $168 $169 reversed $66 $-1 #
face $-1 $170 $171 $36 $-1 $172 reversed single #
loop $-1 $-1 $173 $68 #
plane-surface $-1 -26.384631281160743 -32.599780230407973 10.500984869381114 0 -0.84804810408105047 0.52991925155115449 1 0 0 forward_v I I I I #
coedge $-1 $174 $175 $176 $177 reversed $69 $-1 #
face $-1 $-1 $178 $37 $-1 $179 forward single #
loop $-1 $180 $181 $71 #
cone-surface $-1 -26.384631281160743 -27.526171260575545 10.846985423959728 0 0.84804810408105047 -0.52991925155115449 0.5 0 0 1 I I -0.70710678118654746 0.70710678118654746 0.5 forward I I I I #
loop $-1 $-1 $182 $47 #
coedge $-1 $114 $114 $183 $184 reversed $72 $-1 #
face $-1 $185 $186 $38 $-1 $187 reversed single #
loop $-1 $-1 $188 $74 #
plane-surface $-1 5.9624469965379276 -32.599780230407973 10.500984869381114 0 -0.84804810408105047 0.52991925155115449 1 0 0 forward_v I I I I #
coedge $-1 $189 $190 $191 $192 reversed $75 $-1 #
face $-1 $-1 $193 $39 $-1 $194 forward single #
loop $-1 $195 $196 $77 #
cone-surface $-1 5.9624469965379276 -27.526171260575545 10.846985423959728 0 0.84804810408105047 -0.52991925155115449 0.5 0 0 1 I I -0.70710678118654746 0.70710678118654746 0.5 forward I I I I #
loop $-1 $-1 $197 $49 #
coedge $-1 $123 $123 $198 $199 reversed $78 $-1 #
face $-1 $200 $201 $30 $-1 $202 reversed single #
loop $-1 $-1 $203 $80 #
plane-surface $-1 0 -32.599780230407973 0 0 1 0 0 0 1 forward_v I I I I #
coedge $-1 $204 $205 $206 $207 forward $81 $-1 #
coedge $-1 $208 $83 $209 $210 forward $51 $-1 #
coedge $-1 $83 $208 $211 $212 forward $51 $-1 #
coedge $-1 $213 $214 $83 $131 reversed $215 $-1 #
edge $-1 $216 -32.599780230407973 $217 32.599780230407973 $130 $218 forward 7 unknown #
face $-1 $219 $220 $31 $-1 $221 reversed single #
loop $-1 $-1 $222 $84 #
plane-surface $-1 -32.347078277698671 -22.951712825960378 0 -1 0 0 0 0 1 forward_v I I I I #
coedge $-1 $223 $224 $225 $226 forward $85 $-1 #
coedge $-1 $227 $87 $228 $229 reversed $54 $-1 #
coedge $-1 $87 $227 $230 $231 reversed $54 $-1 #
coedge $-1 $232 $233 $87 $139 forward $234 $-1 #
edge $-1 $235 -15.558791561975712 $236 15.558791561975712 $138 $237 forward 7 unknown #
face $-1 $238 $239 $32 $-1 $240 reversed single #
loop $-1 $-1 $241 $88 #
plane-surface $-1 41.401970182277168 -19.384543978969731 0 0 -1 0 0 0 -1 forward_v I I I I #
coedge $-1 $242 $243 $244 $245 forward $89 $-1 #
coedge $-1 $246 $91 $247 $248 reversed $57 $-1 #
coedge $-1 $91 $246 $249 $250 reversed $57 $-1 #
coedge $-1 $243 $242 $91 $147 reversed $89 $-1 #
edge $-1 $251 -15.558791561975712 $252 15.558791561975712 $146 $253 forward 7 unknown #
face $-1 $254 $255 $33 $-1 $256 reversed single #
loop $-1 $-1 $257 $92 #
plane-surface $-1 22.952792767867539 47.520112021284575 128.4833874739131 -1 0 0 0 0.64278761758704617 0.76604443648966558 forward_v I I I I #
coedge $-1 $258 $259 $260 $261 reversed $93 $-1 #
coedge $-1 $153 $95 $262 $263 reversed $60 $-1 #
coedge $-1 $95 $152 $258 $264 reversed $60 $-1 #
coedge $-1 $260 $265 $95 $155 forward $266 $-1 #
edge $-1 $267 -8.8397242197656851 $268 -1.3444628375567831 $154 $269 forward 7 unknown #
loop $-1 $-1 $161 $96 #
plane-surface $-1 13.851641647362541 -17.345980322171656 51.178990505188835 0 0.64278761758704617 0.76604443648966558 1 0 0 forward_v I I I I #
loop $-1 $-1 $270 $62 #
coedge $-1 $159 $159 $160 $271 reversed $97 $-1 #
coedge $-1 $160 $160 $159 $271 forward $99 $-1 #
coedge $-1 $161 $161 $100 $162 forward $156 $-1 #
edge $-1 $272 4.3789618652077234e-016 $272 6.2831853071796004 $161 $273 forward 7 unknown #
loop $-1 $-1 $168 $101 #
plane-surface $-1 13.851641647362541 -17.345980322171656 51.178990505188835 0 0.64278761758704617 0.76604443648966558 1 0 0 forward_v I I I I #
loop $-1 $-1 $274 $65 #
coedge $-1 $166 $166 $167 $275 reversed $102 $-1 #
coedge $-1 $167 $167 $166 $275 forward $104 $-1 #
coedge $-1 $168 $168 $105 $169 forward $163 $-1 #
edge $-1 $276 4.3789618652077234e-016 $276 6.2831853071796004 $168 $277 forward 7 unknown #
face $-1 $278 $279 $36 $-1 $280 forward single #
loop $-1 $-1 $281 $106 #
plane-surface $-1 -32.347078277698671 -118.17947269168197 63.977110054753879 1 0 0 0 0.84804810408105047 -0.52991925155115449 forward_v I I I I #
coedge $-1 $282 $283 $284 $285 reversed $107 $-1 #
coedge $-1 $175 $109 $286 $287 reversed $69 $-1 #
coedge $-1 $109 $174 $282 $288 reversed $69 $-1 #
coedge $-1 $284 $289 $109 $177 forward $279 $-1 #
edge $-1 $290 26.48995611543301 $291 29.650424400347649 $176 $292 forward 7 unknown #
loop $-1 $-1 $183 $110 #
plane-surface $-1 -26.384631281160743 -32.599780230407973 10.500984869381114 0 -0.84804810408105047 0.52991925155115449 1 0 0 forward_v I I I I #
loop $-1 $-1 $293 $71 #
coedge $-1 $181 $181 $182 $294 reversed $111 $-1 #
coedge $-1 $182 $182 $181 $294 forward $113 $-1 #
coedge $-1 $183 $183 $114 $184 forward $178 $-1 #
edge $-1 $295 7.5243064764144144e-016 $295 6.2831853071796013 $183 $296 forward 7 unknown #
face $-1 $297 $298 $38 $-1 $299 reversed single #
loop $-1 $-1 $300 $115 #
plane-surface $-1 -1.7763568394002505e-015 -118.17947269168197 63.977110054753879 1 0 0 0 0.84804810408105047 -0.52991925155115449 forward_v I I I I #
coedge $-1 $301 $302 $303 $304 reversed $116 $-1 #
coedge $-1 $190 $118 $305 $306 reversed $75 $-1 #
coedge $-1 $118 $189 $301 $307 reversed $75 $-1 #
coedge $-1 $303 $308 $118 $192 forward $309 $-1 #
edge $-1 $310 26.48995611543301 $311 29.650424400347649 $191 $312 forward 7 unknown #
loop $-1 $-1 $198 $119 #
plane-surface $-1 5.9624469965379276 -32.599780230407973 10.500984869381114 0 -0.84804810408105047 0.52991925155115449 1 0 0 forward_v I I I I #
loop $-1 $-1 $313 $77 #
coedge $-1 $196 $196 $197 $314 reversed $120 $-1 #
coedge $-1 $197 $197 $196 $314 forward $122 $-1 #
coedge $-1 $198 $198 $123 $199 forward $193 $-1 #
edge $-1 $315 7.5243064764144144e-016 $315 6.2831853071796013 $198 $316 forward 7 unknown #
face $-1 $317 $318 $30 $-1 $319 reversed single #
loop $-1 $-1 $320 $124 #
plane-surface $-1 -50.456862086855679 0 0 1 0 0 0 0 -1 forward_v I I I I #
coedge $-1 $321 $211 $322 $323 forward $125 $-1 #
coedge $-1 $324 $127 $321 $325 forward $81 $-1 #
coedge $-1 $127 $324 $326 $327 forward $81 $-1 #
coedge $-1 $214 $213 $127 $207 reversed $215 $-1 #
edge $-1 $328 -32.599780230407973 $329 32.599780230407973 $206 $330 forward 7 unknown #
coedge $-1 $129 $128 $331 $332 forward $51 $-1 #
coedge $-1 $333 $334 $128 $210 reversed $318 $-1 #
edge $-1 $217 -50.456862086855679 $335 50.456862086855679 $209 $336 forward 7 unknown #
coedge $-1 $203 $337 $129 $212 reversed $125 $-1 #
edge $-1 $338 -50.456862086855679 $216 50.456862086855679 $211 $339 forward 7 unknown #
coedge $-1 $206 $130 $337 $340 forward $215 $-1 #
coedge $-1 $130 $206 $333 $341 reversed $215 $-1 #
loop $-1 $-1 $213 $317 #
vertex $-1 $131 $342 #
vertex $-1 $131 $343 #
straight-curve $-1 50.456862086855679 0 15.558791561975712 0 1 0 I I #
face $-1 $344 $345 $31 $-1 $346 forward single #
loop $-1 $-1 $347 $132 #
plane-surface $-1 0 0 -15.558791561975712 0 0 1 1 0 0 forward_v I I I I #
coedge $-1 $348 $349 $227 $350 forward $133 $-1 #
coedge $-1 $351 $135 $347 $352 reversed $85 $-1 #
coedge $-1 $135 $351 $353 $354 reversed $85 $-1 #
coedge $-1 $349 $348 $135 $226 reversed $133 $-1 #
edge $-1 $355 -15.558791561975712 $356 15.558791561975712 $225 $357 forward 7 unknown #
coedge $-1 $137 $136 $222 $350 reversed $54 $-1 #
coedge $-1 $358 $359 $136 $229 forward $220 $-1 #
edge $-1 $360 11.646093186560083 $235 29.755876995717092 $228 $361 forward 7 unknown #
coedge $-1 $362 $363 $137 $231 forward $345 $-1 #
edge $-1 $236 -29.755876995717092 $364 -11.646093186560083 $230 $365 forward 7 unknown #
coedge $-1 $366 $138 $363 $367 reversed $234 $-1 #
coedge $-1 $138 $366 $358 $368 reversed $234 $-1 #
loop $-1 $-1 $366 $344 #
vertex $-1 $368 $369 #
vertex $-1 $139 $370 #
straight-curve $-1 -50.456862086855679 -26.518881672951025 0 0 0 1 I I #
face $-1 $371 $372 $32 $-1 $373 forward single #
loop $-1 $-1 $247 $140 #
plane-surface $-1 0 0 -15.558791561975712 0 0 1 1 0 0 forward_v I I I I #
coedge $-1 $374 $375 $376 $377 reversed $141 $-1 #
coedge $-1 $146 $143 $378 $379 reversed $89 $-1 #
coedge $-1 $143 $146 $380 $381 reversed $89 $-1 #
coedge $-1 $375 $374 $143 $245 reversed $141 $-1 #
edge $-1 $382 -15.558791561975712 $383 15.558791561975712 $244 $384 forward 7 unknown #
coedge $-1 $145 $144 $385 $386 reversed $57 $-1 #
coedge $-1 $378 $387 $144 $248 forward $239 $-1 #
edge $-1 $388 -29.755876995717088 $252 -11.64609318656008 $247 $389 forward 7 unknown #
coedge $-1 $390 $380 $145 $250 forward $372 $-1 #
edge $-1 $251 11.64609318656008 $391 29.755876995717088 $249 $392 forward 7 unknown #
vertex $-1 $250 $393 #
vertex $-1 $248 $394 #
straight-curve $-1 32.347078277698664 -26.518881672951025 0 0 0 -1 I I #
face $-1 $-1 $266 $33 $-1 $395 forward single #
loop $-1 $-1 $396 $148 #
plane-surface $-1 0 32.599780230407973 0 0 -1 0 0 0 -1 forward_v I I I I #
coedge $-1 $397 $398 $399 $400 reversed $149 $-1 #
coedge $-1 $401 $151 $153 $264 forward $93 $-1 #
coedge $-1 $151 $401 $397 $402 forward $93 $-1 #
coedge $-1 $399 $154 $151 $261 forward $266 $-1 #
edge $-1 $268 -2.1753302968237271 $403 16.026971944186268 $260 $404 forward 7 unknown #
coedge $-1 $405 $406 $152 $263 forward $255 $-1 #
edge $-1 $407 -54.972173368098169 $267 -48.682902174980839 $262 $408 forward 7 unknown #
edge $-1 $268 55.415191532356246 $407 65.199560460815945 $153 $409 forward 7 unknown #
coedge $-1 $154 $399 $405 $410 forward $266 $-1 #
loop $-1 $-1 $399 $254 #
vertex $-1 $263 $411 #
vertex $-1 $155 $412 #
straight-curve $-1 4.7504905268575435 23.760056010642288 15.55879156197571 0 -1 0 I I #
coedge $-1 $270 $270 $-1 $413 reversed $158 $-1 #
edge $-1 $414 0 $414 6.2831853071796004 $159 $415 forward 7 unknown #
vertex $-1 $162 $416 #
ellipse-curve $-1 9.9511483100032549 28.852149539303518 12.414155965417049 0 0.64278761758704617 0.76604443648966558 1 0 0 1 I I #
coedge $-1 $274 $274 $-1 $417 reversed $165 $-1 #
edge $-1 $418 0 $418 6.2831853071796004 $166 $419 forward 7 unknown #
vertex $-1 $169 $420 #
ellipse-curve $-1 17.75213498472182 28.852149539303518 12.414155965417049 0 0.64278761758704617 0.76604443648966558 1 0 0 1 I I #
face $-1 $-1 $421 $36 $-1 $422 reversed single #
loop $-1 $-1 $176 $170 #
plane-surface $-1 0 0 15.558791561975712 0 0 1 1 0 0 forward_v I I I I #
coedge $-1 $423 $424 $425 $426 reversed $171 $-1 #
coedge $-1 $427 $173 $175 $288 forward $107 $-1 #
coedge $-1 $173 $427 $423 $428 forward $107 $-1 #
coedge $-1 $425 $176 $173 $285 forward $279 $-1 #
edge $-1 $291 7.229868644042444 $429 19.154762637118299 $284 $430 forward 7 unknown #
coedge $-1 $431 $432 $174 $287 forward $421 $-1 #
edge $-1 $433 -21.487570157995826 $290 -16.42976346540123 $286 $434 forward 7 unknown #
edge $-1 $291 -5.9640563645564235 $433 0 $175 $435 forward 7 unknown #
coedge $-1 $176 $425 $431 $436 forward $279 $-1 #
vertex $-1 $177 $437 #
vertex $-1 $177 $438 #
straight-curve $-1 -20.422184284622816 -59.089736345840983 15.55879156197571 0 1 0 I I #
coedge $-1 $293 $293 $-1 $439 reversed $180 $-1 #
edge $-1 $440 0 $440 6.2831853071796004 $181 $441 forward 7 unknown #
vertex $-1 $184 $442 #
ellipse-curve $-1 -26.384631281160743 -31.019546087950655 13.02988821567841 0 -0.84804810408105047 0.52991925155115449 1 0 0 1 I I #
face $-1 $-1 $309 $38 $-1 $443 forward single #
loop $-1 $-1 $444 $185 #
plane-surface $-1 0 -32.599780230407973 0 0 1 0 0 0 1 forward_v I I I I #
coedge $-1 $445 $446 $447 $448 reversed $186 $-1 #
coedge $-1 $449 $188 $190 $307 forward $116 $-1 #
coedge $-1 $188 $449 $445 $450 forward $116 $-1 #
coedge $-1 $447 $191 $188 $304 forward $309 $-1 #
edge $-1 $311 -8.9436704948068932 $451 2.9812234982689656 $303 $452 forward 7 unknown #
coedge $-1 $453 $454 $189 $306 forward $298 $-1 #
edge $-1 $455 -21.487570157995826 $310 -16.42976346540123 $305 $456 forward 7 unknown #
edge $-1 $311 -5.9640563645564235 $455 0 $190 $457 forward 7 unknown #
coedge $-1 $191 $447 $453 $458 forward $309 $-1 #
loop $-1 $-1 $447 $297 #
vertex $-1 $306 $459 #
vertex $-1 $192 $460 #
straight-curve $-1 11.924893993075857 -59.089736345840983 15.55879156197571 0 1 0 I I #
coedge $-1 $313 $313 $-1 $461 reversed $195 $-1 #
edge $-1 $462 0 $462 6.2831853071796004 $196 $463 forward 7 unknown #
vertex $-1 $199 $464 #
ellipse-curve $-1 5.9624469965379276 -31.019546087950655 13.02988821567841 0 -0.84804810408105047 0.52991925155115449 1 0 0 1 I I #
face $-1 $-1 $215 $30 $-1 $465 reversed single #
loop $-1 $-1 $333 $200 #
plane-surface $-1 0 32.599780230407973 0 0 -1 0 0 0 -1 forward_v I I I I #
coedge $-1 $466 $331 $334 $467 forward $201 $-1 #
coedge $-1 $337 $203 $204 $325 reversed $125 $-1 #
coedge $-1 $331 $466 $203 $323 reversed $201 $-1 #
edge $-1 $338 -15.558791561975712 $468 15.558791561975712 $322 $469 forward 7 unknown #
coedge $-1 $205 $204 $466 $470 forward $81 $-1 #
edge $-1 $329 -50.456862086855679 $468 50.456862086855679 $321 $471 forward 7 unknown #
coedge $-1 $334 $333 $205 $327 reversed $318 $-1 #
edge $-1 $472 -50.456862086855679 $328 50.456862086855679 $326 $473 forward 7 unknown #
vertex $-1 $207 $474 #
vertex $-1 $340 $475 #
straight-curve $-1 50.456862086855679 0 -15.558791561975712 0 -1 0 I I #
coedge $-1 $320 $322 $208 $332 reversed $201 $-1 #
edge $-1 $335 -32.599780230407973 $338 32.599780230407973 $331 $476 forward 7 unknown #
coedge $-1 $326 $209 $214 $341 forward $318 $-1 #
coedge $-1 $209 $326 $320 $467 reversed $318 $-1 #
vertex $-1 $210 $477 #
straight-curve $-1 0 32.599780230407973 15.558791561975712 -1 0 0 I I #
coedge $-1 $211 $321 $213 $340 reversed $125 $-1 #
vertex $-1 $332 $478 #
straight-curve $-1 0 -32.599780230407973 15.558791561975712 1 0 0 I I #
edge $-1 $216 -15.558791561975712 $329 15.558791561975712 $213 $479 forward 7 unknown #
edge $-1 $217 -15.558791561975712 $328 15.558791561975712 $214 $480 forward 7 unknown #
point $-1 50.456862086855679 -32.599780230407973 15.558791561975712 #
point $-1 50.456862086855679 32.599780230407973 15.558791561975712 #
face $-1 $-1 $234 $31 $-1 $481 reversed single #
loop $-1 $-1 $353 $219 #
plane-surface $-1 0 0 15.558791561975712 0 0 1 1 0 0 forward_v I I I I #
coedge $-1 $359 $358 $223 $352 forward $220 $-1 #
coedge $-1 $225 $222 $359 $482 reversed $133 $-1 #
coedge $-1 $222 $225 $362 $483 reversed $133 $-1 #
edge $-1 $364 -15.558791561975712 $360 15.558791561975712 $222 $484 forward 7 unknown #
coedge $-1 $224 $223 $366 $485 reversed $85 $-1 #
edge $-1 $486 -29.755876995717092 $356 -11.646093186560083 $347 $487 forward 7 unknown #
coedge $-1 $363 $362 $224 $354 forward $345 $-1 #
edge $-1 $355 11.646093186560083 $488 29.755876995717092 $353 $489 forward 7 unknown #
vertex $-1 $354 $490 #
vertex $-1 $352 $491 #
straight-curve $-1 -32.347078277698671 -19.384543978969731 0 0 0 -1 I I #
coedge $-1 $347 $228 $233 $368 forward $220 $-1 #
coedge $-1 $228 $347 $348 $482 forward $220 $-1 #
vertex $-1 $229 $492 #
straight-curve $-1 -20.700985091138588 -26.518881672951025 -15.558791561975712 -1 0 0 I I #
coedge $-1 $353 $230 $349 $483 forward $345 $-1 #
coedge $-1 $230 $353 $232 $367 forward $345 $-1 #
vertex $-1 $231 $493 #
straight-curve $-1 -20.700985091138588 -26.518881672951025 15.558791561975712 1 0 0 I I #
coedge $-1 $233 $232 $351 $485 forward $234 $-1 #
edge $-1 $488 19.384543978969731 $236 26.518881672951025 $232 $494 forward 7 unknown #
edge $-1 $235 -26.518881672951025 $486 -19.384543978969731 $233 $495 forward 7 unknown #
point $-1 -50.456862086855679 -26.518881672951025 -15.558791561975712 #
point $-1 -50.456862086855679 -26.518881672951025 15.558791561975712 #
face $-1 $-1 $496 $32 $-1 $497 reversed single #
loop $-1 $-1 $249 $238 #
plane-surface $-1 0 0 15.558791561975712 0 0 1 1 0 0 forward_v I I I I #
coedge $-1 $244 $241 $498 $499 reversed $141 $-1 #
coedge $-1 $241 $244 $500 $501 reversed $141 $-1 #
coedge $-1 $502 $503 $241 $377 forward $496 $-1 #
edge $-1 $504 -15.558791561975712 $505 15.558791561975712 $376 $506 forward 7 unknown #
coedge $-1 $498 $247 $242 $379 forward $239 $-1 #
edge $-1 $252 -15.043025259970836 $383 -7.9086875659895419 $378 $507 forward 7 unknown #
coedge $-1 $249 $500 $243 $381 forward $372 $-1 #
edge $-1 $382 7.9086875659895419 $251 15.043025259970836 $380 $508 forward 7 unknown #
vertex $-1 $381 $509 #
vertex $-1 $379 $510 #
straight-curve $-1 32.347078277698664 -19.384543978969731 0 0 0 -1 I I #
coedge $-1 $503 $502 $246 $386 forward $496 $-1 #
edge $-1 $391 -15.558791561975712 $388 15.558791561975712 $385 $511 forward 7 unknown #
coedge $-1 $247 $498 $503 $512 forward $239 $-1 #
vertex $-1 $386 $513 #
straight-curve $-1 20.700985091138584 -26.518881672951025 -15.558791561975712 -1 0 0 I I #
coedge $-1 $500 $249 $502 $514 forward $372 $-1 #
vertex $-1 $514 $515 #
straight-curve $-1 20.700985091138584 -26.518881672951025 15.558791561975712 1 0 0 I I #
point $-1 32.347078277698664 -26.518881672951025 15.558791561975712 #
point $-1 32.347078277698664 -26.518881672951025 -15.558791561975712 #
plane-surface $-1 0 0 15.558791561975712 0 0 1 1 0 0 forward_v I I I I #
coedge $-1 $406 $405 $398 $516 forward $255 $-1 #
coedge $-1 $398 $257 $259 $402 reversed $149 $-1 #
coedge $-1 $257 $397 $396 $516 reversed $149 $-1 #
coedge $-1 $265 $260 $257 $400 forward $266 $-1 #
edge $-1 $403 1.3444628375567831 $517 8.8397242197656851 $399 $518 forward 7 unknown #
coedge $-1 $259 $258 $406 $519 reversed $93 $-1 #
edge $-1 $520 -65.199560460815945 $403 -55.415191532356246 $397 $521 forward 7 unknown #
vertex $-1 $261 $522 #
straight-curve $-1 6.9258208236812706 25.104518848199067 15.55879156197571 1 0 0 I I #
coedge $-1 $396 $262 $265 $410 reversed $255 $-1 #
coedge $-1 $262 $396 $401 $519 forward $255 $-1 #
vertex $-1 $263 $523 #
straight-curve $-1 4.7504905268575435 32.599780230407973 64.241693736956549 0 0 1 I I #
straight-curve $-1 4.7504905268575435 -17.345980322171656 51.178990505188835 0 0.76604443648966558 -0.64278761758704617 I I #
edge $-1 $517 -22.952792767867539 $267 -4.7504905268575435 $405 $524 forward 7 unknown #
point $-1 4.7504905268575435 32.599780230407973 15.558791561975712 #
point $-1 4.7504905268575435 25.104518848199071 15.55879156197571 #
edge $-1 $525 1 $525 0 $270 $-1 forward 7 unknown #
vertex $-1 $271 $526 #
ellipse-curve $-1 9.9511483100032549 27.266572746594143 10.524539165949593 0 0.64278761758704617 0.76604443648966558 1 0 0 1 I I #
point $-1 10.951148310003255 28.852149539303522 12.414155965417052 #
edge $-1 $527 1 $527 0 $274 $-1 forward 7 unknown #
vertex $-1 $275 $528 #
ellipse-curve $-1 17.75213498472182 27.266572746594143 10.524539165949593 0 0.64278761758704617 0.76604443648966558 1 0 0 1 I I #
point $-1 18.75213498472182 28.852149539303522 12.414155965417052 #
loop $-1 $-1 $286 $278 #
plane-surface $-1 0 -32.599780230407973 0 0 1 0 0 0 1 forward_v I I I I #
coedge $-1 $424 $281 $283 $428 reversed $171 $-1 #
coedge $-1 $281 $423 $529 $530 reversed $171 $-1 #
coedge $-1 $289 $284 $281 $426 forward $279 $-1 #
edge $-1 $429 -29.650424400347649 $531 -26.48995611543301 $425 $532 forward 7 unknown #
coedge $-1 $283 $282 $432 $533 reversed $107 $-1 #
edge $-1 $534 0 $429 5.9640563645564235 $423 $535 forward 7 unknown #
vertex $-1 $285 $536 #
straight-curve $-1 -13.192315640580372 -29.439311945493333 15.558791561975712 -1 0 0 I I #
coedge $-1 $529 $286 $289 $436 reversed $421 $-1 #
coedge $-1 $286 $529 $427 $533 forward $421 $-1 #
vertex $-1 $287 $537 #
straight-curve $-1 -20.422184284622816 -32.599780230407973 31.98855502737694 0 0 1 I I #
straight-curve $-1 -20.422184284622816 -32.599780230407973 10.500984869381114 0 -0.52991925155115449 -0.84804810408105047 I I #
edge $-1 $531 -32.347078277698671 $290 -20.422184284622816 $431 $538 forward 7 unknown #
point $-1 -20.422184284622816 -32.599780230407973 15.558791561975712 #
point $-1 -20.422184284622816 -29.439311945493333 15.558791561975712 #
edge $-1 $539 1 $539 0 $293 $-1 forward 7 unknown #
vertex $-1 $294 $540 #
ellipse-curve $-1 -26.384631281160743 -27.950195312616071 11.111945049735304 0 -0.84804810408105047 0.52991925155115449 1 0 0 1 I I #
point $-1 -25.384631281160743 -31.019546087950648 13.029888215678406 #
plane-surface $-1 0 0 15.558791561975712 0 0 1 1 0 0 forward_v I I I I #
coedge $-1 $454 $453 $446 $541 forward $298 $-1 #
coedge $-1 $446 $300 $302 $450 reversed $186 $-1 #
coedge $-1 $300 $445 $444 $541 reversed $186 $-1 #
coedge $-1 $308 $303 $300 $448 forward $309 $-1 #
edge $-1 $451 -29.650424400347649 $542 -26.48995611543301 $447 $543 forward 7 unknown #
coedge $-1 $302 $301 $454 $544 reversed $116 $-1 #
edge $-1 $545 0 $451 5.9640563645564235 $445 $546 forward 7 unknown #
vertex $-1 $304 $547 #
straight-curve $-1 2.9812234982689638 -29.439311945493333 15.558791561975712 -1 0 0 I I #
coedge $-1 $444 $305 $308 $458 reversed $298 $-1 #
coedge $-1 $305 $444 $449 $544 forward $298 $-1 #
vertex $-1 $306 $548 #
straight-curve $-1 11.924893993075857 -32.599780230407973 31.98855502737694 0 0 1 I I #
straight-curve $-1 11.924893993075857 -32.599780230407973 10.500984869381114 0 -0.52991925155115449 -0.84804810408105047 I I #
edge $-1 $542 -1.7763568394002505e-015 $310 11.924893993075857 $453 $549 forward 7 unknown #
point $-1 11.924893993075857 -32.599780230407973 15.558791561975712 #
point $-1 11.924893993075857 -29.439311945493333 15.558791561975712 #
edge $-1 $550 1 $550 0 $313 $-1 forward 7 unknown #
vertex $-1 $314 $551 #
ellipse-curve $-1 5.9624469965379276 -27.950195312616071 11.111945049735304 0 -0.84804810408105047 0.52991925155115449 1 0 0 1 I I #
point $-1 6.9624469965379276 -31.019546087950648 13.029888215678406 #
plane-surface $-1 50.456862086855679 0 0 -1 0 0 0 0 1 forward_v I I I I #
coedge $-1 $322 $320 $324 $470 reversed $201 $-1 #
edge $-1 $335 -15.558791561975712 $472 15.558791561975712 $334 $552 forward 7 unknown #
vertex $-1 $470 $553 #
straight-curve $-1 -50.456862086855679 -32.599780230407973 0 0 0 -1 I I #
edge $-1 $468 -32.599780230407973 $472 32.599780230407973 $466 $554 forward 7 unknown #
straight-curve $-1 0 -32.599780230407973 -15.558791561975712 -1 0 0 I I #
vertex $-1 $327 $555 #
straight-curve $-1 0 32.599780230407973 -15.558791561975712 1 0 0 I I #
point $-1 50.456862086855679 32.599780230407973 -15.558791561975712 #
point $-1 50.456862086855679 -32.599780230407973 -15.558791561975712 #
straight-curve $-1 -50.456862086855679 0 15.558791561975712 0 -1 0 I I #
point $-1 -50.456862086855679 32.599780230407973 15.558791561975712 #
point $-1 -50.456862086855679 -32.599780230407973 15.558791561975712 #
straight-curve $-1 50.456862086855679 -32.599780230407973 0 0 0 -1 I I #
straight-curve $-1 50.456862086855679 32.599780230407973 0 0 0 -1 I I #
plane-surface $-1 -50.456862086855679 0 0 1 0 0 0 0 -1 forward_v I I I I #
edge $-1 $356 7.9086875659895419 $360 15.043025259970836 $359 $556 forward 7 unknown #
edge $-1 $364 -15.043025259970836 $355 -7.9086875659895419 $362 $557 forward 7 unknown #
straight-curve $-1 -32.347078277698671 -26.518881672951025 0 0 0 -1 I I #
edge $-1 $488 -15.558791561975712 $486 15.558791561975712 $366 $558 forward 7 unknown #
vertex $-1 $485 $559 #
straight-curve $-1 -20.700985091138588 -19.384543978969731 -15.558791561975712 1 0 0 I I #
vertex $-1 $367 $560 #
straight-curve $-1 -20.700985091138588 -19.384543978969731 15.558791561975712 -1 0 0 I I #
point $-1 -32.347078277698671 -19.384543978969731 15.558791561975712 #
point $-1 -32.347078277698671 -19.384543978969731 -15.558791561975712 #
point $-1 -32.347078277698671 -26.518881672951025 -15.558791561975712 #
point $-1 -32.347078277698671 -26.518881672951025 15.558791561975712 #
straight-curve $-1 -50.456862086855679 0 15.558791561975712 0 -1 0 I I #
straight-curve $-1 -50.456862086855679 0 -15.558791561975712 0 1 0 I I #
loop $-1 $-1 $385 $371 #
plane-surface $-1 50.456862086855679 0 0 -1 0 0 0 0 1 forward_v I I I I #
coedge $-1 $387 $378 $374 $499 forward $239 $-1 #
edge $-1 $383 11.64609318656008 $504 29.755876995717088 $498 $561 forward 7 unknown #
coedge $-1 $380 $390 $375 $501 forward $372 $-1 #
edge $-1 $505 -29.755876995717088 $382 -11.64609318656008 $500 $562 forward 7 unknown #
coedge $-1 $385 $376 $390 $514 reversed $496 $-1 #
coedge $-1 $376 $385 $387 $512 reversed $496 $-1 #
vertex $-1 $512 $563 #
vertex $-1 $377 $564 #
straight-curve $-1 50.456862086855679 -19.384543978969731 0 0 0 1 I I #
straight-curve $-1 32.347078277698664 -11.475856412980189 -15.558791561975712 0 1 0 I I #
straight-curve $-1 32.347078277698664 -11.475856412980189 15.558791561975712 0 -1 0 I I #
point $-1 32.347078277698664 -19.384543978969731 15.558791561975712 #
point $-1 32.347078277698664 -19.384543978969731 -15.558791561975712 #
straight-curve $-1 50.456862086855679 -26.518881672951025 0 0 0 -1 I I #
edge $-1 $504 19.384543978969731 $388 26.518881672951025 $503 $565 forward 7 unknown #
point $-1 50.456862086855672 -26.518881672951025 -15.558791561975712 #
edge $-1 $391 -26.518881672951025 $505 -19.384543978969731 $502 $566 forward 7 unknown #
point $-1 50.456862086855672 -26.518881672951025 15.558791561975712 #
edge $-1 $517 48.682902174980839 $520 54.972173368098169 $396 $567 forward 7 unknown #
vertex $-1 $410 $568 #
straight-curve $-1 22.952792767867539 23.760056010642288 15.55879156197571 0 1 0 I I #
edge $-1 $520 -16.026971944186268 $407 2.1753302968237271 $406 $569 forward 7 unknown #
vertex $-1 $519 $570 #
straight-curve $-1 22.952792767867539 -17.345980322171656 51.178990505188835 0 -0.76604443648966558 0.64278761758704617 I I #
point $-1 22.952792767867539 25.104518848199071 15.55879156197571 #
point $-1 4.7504905268575435 32.599780230407973 9.2695203688583803 #
straight-curve $-1 0 32.599780230407973 15.558791561975712 -1 0 0 I I #
vertex $-1 $413 $571 #
point $-1 10.951148310003255 27.266572746594143 10.524539165949593 #
vertex $-1 $417 $572 #
point $-1 18.75213498472182 27.266572746594143 10.524539165949593 #
coedge $-1 $432 $431 $424 $530 forward $421 $-1 #
edge $-1 $531 16.42976346540123 $534 21.487570157995826 $529 $573 forward 7 unknown #
vertex $-1 $436 $574 #
straight-curve $-1 -32.347078277698671 -59.089736345840983 15.55879156197571 0 -1 0 I I #
edge $-1 $534 -19.154762637118299 $433 -7.229868644042444 $432 $575 forward 7 unknown #
vertex $-1 $533 $576 #
straight-curve $-1 -32.347078277698671 -32.599780230407973 10.500984869381114 0 0.52991925155115449 0.84804810408105047 I I #
point $-1 -32.347078277698671 -29.439311945493333 15.558791561975712 #
point $-1 -20.422184284622816 -32.599780230407973 10.500984869381114 #
straight-curve $-1 0 -32.599780230407973 15.558791561975712 1 0 0 I I #
vertex $-1 $439 $577 #
point $-1 -25.384631281160743 -27.950195312616071 11.111945049735304 #
edge $-1 $542 16.42976346540123 $545 21.487570157995826 $444 $578 forward 7 unknown #
vertex $-1 $458 $579 #
straight-curve $-1 -1.7763568394002505e-015 -59.089736345840983 15.55879156197571 0 -1 0 I I #
edge $-1 $545 -2.9812234982689656 $455 8.9436704948068932 $454 $580 forward 7 unknown #
vertex $-1 $544 $581 #
straight-curve $-1 -1.7763568394002505e-015 -32.599780230407973 10.500984869381114 0 0.52991925155115449 0.84804810408105047 I I #
point $-1 -1.7763568394002505e-015 -29.439311945493333 15.558791561975712 #
point $-1 11.924893993075857 -32.599780230407973 10.500984869381114 #
straight-curve $-1 0 -32.599780230407973 15.558791561975712 1 0 0 I I #
vertex $-1 $461 $582 #
point $-1 6.9624469965379276 -27.950195312616071 11.111945049735304 #
straight-curve $-1 -50.456862086855679 32.599780230407973 0 0 0 -1 I I #
point $-1 -50.456862086855679 -32.599780230407973 -15.558791561975712 #
straight-curve $-1 -50.456862086855679 0 -15.558791561975712 0 1 0 I I #
point $-1 -50.456862086855679 32.599780230407973 -15.558791561975712 #
straight-curve $-1 -32.347078277698671 -11.475856412980189 -15.558791561975712 0 -1 0 I I #
straight-curve $-1 -32.347078277698671 -11.475856412980189 15.558791561975712 0 1 0 I I #
straight-curve $-1 -50.456862086855679 -19.384543978969731 0 0 0 -1 I I #
point $-1 -50.456862086855679 -19.384543978969731 -15.558791561975712 #
point $-1 -50.456862086855679 -19.384543978969731 15.558791561975712 #
straight-curve $-1 20.700985091138584 -19.384543978969731 -15.558791561975712 1 0 0 I I #
straight-curve $-1 20.700985091138584 -19.384543978969731 15.558791561975712 -1 0 0 I I #
point $-1 50.456862086855672 -19.384543978969731 -15.558791561975712 #
point $-1 50.456862086855672 -19.384543978969731 15.558791561975712 #
straight-curve $-1 50.456862086855679 0 -15.558791561975712 0 -1 0 I I #
straight-curve $-1 50.456862086855679 0 15.558791561975712 0 1 0 I I #
straight-curve $-1 22.952792767867539 32.599780230407973 64.241693736956549 0 0 -1 I I #
point $-1 22.952792767867539 32.599780230407973 15.558791561975712 #
straight-curve $-1 6.9258208236812706 32.599780230407966 9.2695203688583838 -1 0 0 I I #
point $-1 22.952792767867539 32.599780230407973 9.2695203688583803 #
point $-1 9.9511483100032549 26.623785129007096 9.7584947294599278 #
point $-1 17.75213498472182 26.623785129007096 9.7584947294599278 #
straight-curve $-1 -32.347078277698671 -32.599780230407973 31.98855502737694 0 0 -1 I I #
point $-1 -32.347078277698671 -32.599780230407973 15.558791561975712 #
straight-curve $-1 -13.192315640580372 -32.599780230407973 10.50098486938111 1 0 0 I I #
point $-1 -32.347078277698671 -32.599780230407973 10.500984869381114 #
point $-1 -26.384631281160743 -27.102147208535019 10.582025798184151 #
straight-curve $-1 -1.7763568394002505e-015 -32.599780230407973 31.98855502737694 0 0 -1 I I #
point $-1 -1.7763568394002505e-015 -32.599780230407973 15.558791561975712 #
straight-curve $-1 2.9812234982689638 -32.599780230407973 10.50098486938111 1 0 0 I I #
point $-1 -1.7763568394002505e-015 -32.599780230407973 10.500984869381114 #
point $-1 5.9624469965379276 -27.102147208535019 10.582025798184151 #
End-of-ACIS-data 