500 0 7 0           
7 Unknown 11 ACIS 5.0 NT 24 Fri Mar 26 20:24:49 1999 
-1 9.9999999999999995e-007 1e-010 
body $-1 $7 $-1 $8 #
body $-1 $9 $-1 $10 #
body $-1 $11 $-1 $12 #
body $-1 $13 $-1 $14 #
body $-1 $15 $-1 $16 #
body $-1 $17 $-1 $18 #
body $-1 $19 $-1 $20 #
lump $-1 $-1 $21 $0 #
transform $-1 1 0 0 0 1 0 0 0 1 53.531907101657154 30.804821336610516 7.7953580749241844 1 rotate no_reflect no_shear #
lump $-1 $-1 $22 $1 #
transform $-1 1 0 0 0 1 0 0 0 1 53.531907101657154 30.804821336610516 7.7953580749241844 1 rotate no_reflect no_shear #
lump $-1 $-1 $23 $2 #
transform $-1 1 0 0 0 1 0 0 0 1 53.531907101657154 30.804821336610516 7.7953580749241844 1 rotate no_reflect no_shear #
lump $-1 $-1 $24 $3 #
transform $-1 1 0 0 0 1 0 0 0 1 53.531907101657154 30.804821336610516 7.7953580749241844 1 rotate no_reflect no_shear #
lump $-1 $-1 $25 $4 #
transform $-1 1 0 0 0 1 0 0 0 1 53.531907101657154 30.804821336610516 7.7953580749241844 1 rotate no_reflect no_shear #
lump $-1 $-1 $26 $5 #
transform $-1 1 0 0 0 1 0 0 0 1 53.531907101657154 30.804821336610516 7.7953580749241844 1 rotate no_reflect no_shear #
lump $-1 $-1 $27 $6 #
transform $-1 1 0 0 0 1 0 0 0 1 53.531907101657154 30.804821336610516 7.7953580749241844 1 rotate no_reflect no_shear #
shell $-1 $-1 $-1 $28 $-1 $7 #
shell $-1 $-1 $-1 $29 $-1 $9 #
shell $-1 $-1 $-1 $30 $-1 $11 #
shell $-1 $-1 $-1 $31 $-1 $13 #
shell $-1 $-1 $-1 $32 $-1 $15 #
shell $-1 $-1 $-1 $33 $-1 $17 #
shell $-1 $-1 $-1 $34 $-1 $19 #
face $-1 $35 $36 $21 $-1 $37 forward single #
face $-1 $38 $39 $22 $-1 $40 reversed single #
face $-1 $41 $42 $23 $-1 $43 reversed single #
face $-1 $44 $45 $24 $-1 $46 forward single #
face $-1 $47 $48 $25 $-1 $49 reversed single #
face $-1 $50 $51 $26 $-1 $52 forward single #
face $-1 $53 $54 $27 $-1 $55 forward single #
face $-1 $56 $57 $21 $-1 $58 reversed single #
loop $-1 $-1 $59 $28 #
plane-surface $-1 0 0 7.7953580749241844 0 0 1 1 0 0 forward_v I I I I #
face $-1 $60 $61 $22 $-1 $62 reversed single #
loop $-1 $-1 $63 $29 #
plane-surface $-1 -45.844219549851488 -28.181009009169077 0 1 0 0 0 0 -1 forward_v I I I I #
face $-1 $64 $65 $23 $-1 $66 reversed single #
loop $-1 $-1 $67 $30 #
plane-surface $-1 -53.531907101657133 -20.77310853303895 1.7609956271725338 -0.5877852598018023 0 0.80901698891910034 0.80901698891910034 0 0.5877852598018023 forward_v I I I I #
face $-1 $68 $69 $24 $-1 $70 forward single #
loop $-1 $71 $72 $31 #
cone-surface $-1 -47.792257429644387 -20.77310853303895 2.5940568943994728 0.5877852598018023 0 -0.80901698891910034 1.2135254833786506 0 0.88167788970270344 1 I I 0 1 1.5 forward I I I I #
face $-1 $73 $74 $25 $-1 $75 reversed single #
loop $-1 $-1 $76 $32 #
plane-surface $-1 92.719985188654178 13.820402281339316 147.26241670531411 0 -1 0 -0.86602541151947299 0 -0.49999998660252726 forward_v I I I I #
face $-1 $77 $78 $26 $-1 $79 forward single #
loop $-1 $80 $81 $33 #
cone-surface $-1 50.856591607534789 9.4923603104936589 3.9891536648914721 -0.86602541151947299 0 -0.49999998660252726 0.24999999330126363 0 -0.43301270575973649 1 I I 0 1 0.5 forward I I I I #
face $-1 $82 $83 $27 $-1 $84 forward single #
loop $-1 $85 $86 $34 #
cone-surface $-1 50.856591607534789 12.089185493001054 3.9891536648914721 -0.86602541151947299 0 -0.49999998660252726 0.24999999330126363 0 -0.43301270575973649 1 I I 0 1 0.5 forward I I I I #
face $-1 $87 $88 $21 $-1 $89 reversed single #
loop $-1 $-1 $90 $35 #
plane-surface $-1 0 0 -7.7953580749241844 0 0 1 1 0 0 forward_v I I I I #
coedge $-1 $91 $92 $93 $94 forward $36 $-1 #
face $-1 $95 $96 $22 $-1 $97 reversed single #
loop $-1 $-1 $98 $38 #
plane-surface $-1 -44.344219549851488 -25.557196681727639 0 0 -1 0 0 0 -1 forward_v I I I I #
coedge $-1 $99 $100 $101 $102 forward $39 $-1 #
face $-1 $103 $104 $23 $-1 $105 forward single #
loop $-1 $-1 $106 $41 #
plane-surface $-1 -116.46243894852412 -15.989020384350262 88.377440216131887 0 -1 0 0.5877852598018023 0 -0.80901698891910034 forward_v I I I I #
coedge $-1 $107 $108 $109 $110 reversed $42 $-1 #
face $-1 $-1 $111 $24 $-1 $112 forward single #
loop $-1 $113 $114 $44 #
cone-surface $-1 -45.764562419047863 -20.77310853303895 -0.1968258039387436 0.5877852598018023 0 -0.80901698891910034 0.60676274168932531 0 0.44083894485135172 1 I I -0.70710678118654757 0.70710678118654757 0.75 forward I I I I #
loop $-1 $-1 $115 $31 #
coedge $-1 $72 $72 $116 $117 reversed $45 $-1 #
face $-1 $118 $119 $25 $-1 $120 reversed single #
loop $-1 $-1 $121 $47 #
plane-surface $-1 1.4343845009534562e-006 10.79077290174736 93.730511038041485 0.86602541151947299 0 0.49999998660252726 0.49999998660252726 0 -0.86602541151947299 forward_v I I I I #
coedge $-1 $122 $123 $124 $125 reversed $48 $-1 #
face $-1 $-1 $126 $26 $-1 $127 forward single #
loop $-1 $128 $129 $50 #
cone-surface $-1 49.923381632396968 9.4923603104936589 3.4503646537843018 -0.86602541151947299 0 -0.49999998660252726 0.12499999665063181 0 -0.21650635287986825 1 I I -0.70710678118654746 0.70710678118654746 0.25 forward I I I I #
loop $-1 $-1 $130 $33 #
coedge $-1 $81 $81 $131 $132 reversed $51 $-1 #
face $-1 $-1 $133 $27 $-1 $134 forward single #
loop $-1 $135 $136 $53 #
cone-surface $-1 49.923381632396968 12.089185493001054 3.4503646537843018 -0.86602541151947299 0 -0.49999998660252726 0.12499999665063181 0 -0.21650635287986825 1 I I -0.70710678118654746 0.70710678118654746 0.25 forward I I I I #
loop $-1 $-1 $137 $34 #
coedge $-1 $86 $86 $138 $139 reversed $54 $-1 #
face $-1 $140 $141 $21 $-1 $142 reversed single #
loop $-1 $-1 $143 $56 #
plane-surface $-1 0 -30.804821336610516 0 0 1 0 0 0 1 forward_v I I I I #
coedge $-1 $144 $145 $146 $147 forward $57 $-1 #
coedge $-1 $148 $59 $149 $150 forward $36 $-1 #
coedge $-1 $59 $148 $151 $152 forward $36 $-1 #
coedge $-1 $153 $154 $59 $94 reversed $155 $-1 #
edge $-1 $156 -30.804821336610516 $157 30.804821336610516 $93 $158 forward 7 unknown #
face $-1 $159 $160 $22 $-1 $161 forward single #
loop $-1 $-1 $162 $60 #
plane-surface $-1 -42.844219549851488 -28.181009009169077 0 -1 0 0 0 0 1 forward_v I I I I #
coedge $-1 $163 $101 $164 $165 reversed $61 $-1 #
coedge $-1 $166 $63 $167 $168 reversed $39 $-1 #
coedge $-1 $63 $166 $169 $170 reversed $39 $-1 #
coedge $-1 $98 $171 $63 $102 reversed $61 $-1 #
edge $-1 $172 -7.7953580749241844 $173 7.7953580749241844 $101 $174 forward 7 unknown #
face $-1 $175 $176 $23 $-1 $177 forward single #
loop $-1 $-1 $178 $64 #
plane-surface $-1 0 0 7.7953580749241844 0 0 1 1 0 0 forward_v I I I I #
coedge $-1 $179 $180 $181 $182 reversed $65 $-1 #
coedge $-1 $183 $67 $184 $185 reversed $42 $-1 #
coedge $-1 $67 $183 $179 $186 forward $42 $-1 #
coedge $-1 $181 $178 $67 $110 forward $104 $-1 #
edge $-1 $187 -15.170642415208164 $188 -5.6024661178307866 $109 $189 forward 7 unknown #
loop $-1 $-1 $116 $68 #
plane-surface $-1 -53.531907101657133 -20.77310853303895 1.7609956271725338 -0.5877852598018023 0 0.80901698891910034 0.80901698891910034 0 0.5877852598018023 forward_v I I I I #
loop $-1 $-1 $190 $44 #
coedge $-1 $114 $114 $115 $191 reversed $69 $-1 #
coedge $-1 $115 $115 $114 $191 forward $71 $-1 #
coedge $-1 $116 $116 $72 $117 forward $111 $-1 #
edge $-1 $192 0 $192 6.2831853071796004 $116 $193 forward 7 unknown #
face $-1 $194 $195 $25 $-1 $196 forward single #
loop $-1 $-1 $197 $73 #
plane-surface $-1 92.719985188654178 7.7611435221554039 147.26241670531411 0 1 0 0.86602541151947299 0 0.49999998660252726 forward_v I I I I #
coedge $-1 $198 $199 $200 $201 reversed $74 $-1 #
coedge $-1 $123 $76 $202 $203 reversed $48 $-1 #
coedge $-1 $76 $122 $198 $204 reversed $48 $-1 #
coedge $-1 $200 $205 $76 $125 forward $195 $-1 #
edge $-1 $206 -7.1719145073300652 $207 -3.2546907636012179 $124 $208 forward 7 unknown #
loop $-1 $-1 $131 $77 #
plane-surface $-1 1.4343845009534562e-006 10.79077290174736 93.730511038041485 0.86602541151947299 0 0.49999998660252726 0.49999998660252726 0 -0.86602541151947299 forward_v I I I I #
loop $-1 $-1 $209 $50 #
coedge $-1 $129 $129 $130 $210 reversed $78 $-1 #
coedge $-1 $130 $130 $129 $210 forward $80 $-1 #
coedge $-1 $131 $131 $81 $132 forward $126 $-1 #
edge $-1 $211 0 $211 6.2831853071796004 $131 $212 forward 7 unknown #
loop $-1 $-1 $138 $82 #
plane-surface $-1 1.4343845009534562e-006 10.79077290174736 93.730511038041485 0.86602541151947299 0 0.49999998660252726 0.49999998660252726 0 -0.86602541151947299 forward_v I I I I #
loop $-1 $-1 $213 $53 #
coedge $-1 $136 $136 $137 $214 reversed $83 $-1 #
coedge $-1 $137 $137 $136 $214 forward $85 $-1 #
coedge $-1 $138 $138 $86 $139 forward $133 $-1 #
edge $-1 $215 0 $215 6.2831853071796004 $138 $216 forward 7 unknown #
face $-1 $217 $218 $21 $-1 $219 reversed single #
loop $-1 $-1 $220 $87 #
plane-surface $-1 -53.531907101657154 0 0 1 0 0 0 0 -1 forward_v I I I I #
coedge $-1 $221 $151 $222 $223 forward $88 $-1 #
coedge $-1 $224 $90 $221 $225 forward $57 $-1 #
coedge $-1 $90 $224 $226 $227 forward $57 $-1 #
coedge $-1 $154 $153 $90 $147 reversed $155 $-1 #
edge $-1 $228 -30.804821336610516 $229 30.804821336610516 $146 $230 forward 7 unknown #
coedge $-1 $92 $91 $231 $232 forward $36 $-1 #
coedge $-1 $233 $234 $91 $150 reversed $218 $-1 #
edge $-1 $157 -53.531907101657154 $235 53.531907101657154 $149 $236 forward 7 unknown #
coedge $-1 $143 $237 $92 $152 reversed $88 $-1 #
edge $-1 $238 -53.531907101657154 $156 53.531907101657154 $151 $239 forward 7 unknown #
coedge $-1 $146 $93 $237 $240 forward $155 $-1 #
coedge $-1 $93 $146 $233 $241 reversed $155 $-1 #
loop $-1 $-1 $153 $217 #
vertex $-1 $94 $242 #
vertex $-1 $94 $243 #
straight-curve $-1 53.531907101657154 0 7.7953580749241844 0 1 0 I I #
face $-1 $244 $245 $22 $-1 $246 reversed single #
loop $-1 $-1 $247 $95 #
plane-surface $-1 0 0 7.7953580749241844 0 0 1 1 0 0 forward_v I I I I #
coedge $-1 $248 $249 $250 $251 reversed $96 $-1 #
coedge $-1 $171 $98 $252 $253 forward $61 $-1 #
coedge $-1 $169 $247 $98 $165 forward $160 $-1 #
edge $-1 $254 20.672109774925744 $172 23.672109774925744 $164 $255 forward 7 unknown #
coedge $-1 $100 $99 $256 $257 reversed $39 $-1 #
coedge $-1 $258 $259 $99 $168 forward $245 $-1 #
edge $-1 $260 -16.714316832025979 $173 -11.4666921771431 $167 $261 forward 7 unknown #
coedge $-1 $262 $164 $100 $170 forward $160 $-1 #
edge $-1 $172 11.4666921771431 $263 16.714316832025979 $169 $264 forward 7 unknown #
coedge $-1 $101 $163 $258 $265 reversed $61 $-1 #
vertex $-1 $170 $266 #
vertex $-1 $168 $267 #
straight-curve $-1 -45.844219549851488 -25.557196681727639 0 0 0 -1 I I #
face $-1 $-1 $268 $23 $-1 $269 reversed single #
loop $-1 $-1 $184 $103 #
plane-surface $-1 -44.344219549851488 -25.557196681727639 0 0 -1 0 0 0 -1 forward_v I I I I #
coedge $-1 $109 $270 $271 $272 forward $104 $-1 #
coedge $-1 $180 $106 $108 $186 reversed $65 $-1 #
coedge $-1 $106 $179 $273 $274 reversed $65 $-1 #
coedge $-1 $270 $109 $106 $182 forward $104 $-1 #
edge $-1 $188 -13.004899585140137 $275 -4.6993123726049078 $181 $276 forward 7 unknown #
coedge $-1 $108 $107 $277 $278 reversed $42 $-1 #
coedge $-1 $271 $279 $107 $185 forward $176 $-1 #
edge $-1 $280 -3.1989540230319546 $187 7.0673164339482337 $184 $281 forward 7 unknown #
edge $-1 $282 -2.6381252543030654e-014 $188 10.266270456980163 $179 $283 forward 7 unknown #
vertex $-1 $185 $284 #
vertex $-1 $110 $285 #
straight-curve $-1 -45.226319889121925 -10.386554266519475 7.7953580749241844 0 1 0 I I #
coedge $-1 $190 $190 $-1 $286 reversed $113 $-1 #
edge $-1 $287 0 $287 6.2831853071796004 $114 $288 forward 7 unknown #
vertex $-1 $117 $289 #
ellipse-curve $-1 -49.379113495389547 -20.77310853303895 4.7781768510483467 -0.5877852598018023 0 0.80901698891910034 1.2135254833786506 0 0.88167788970270344 1 I I #
face $-1 $-1 $290 $25 $-1 $291 reversed single #
loop $-1 $-1 $124 $118 #
plane-surface $-1 0 0 7.7953580749241844 0 0 1 1 0 0 forward_v I I I I #
coedge $-1 $292 $293 $294 $295 reversed $119 $-1 #
coedge $-1 $296 $121 $123 $204 forward $74 $-1 #
coedge $-1 $121 $296 $292 $297 forward $74 $-1 #
coedge $-1 $294 $124 $121 $201 forward $195 $-1 #
edge $-1 $207 -8.425015830465636 $298 -2.365757071281724 $200 $299 forward 7 unknown #
coedge $-1 $300 $301 $122 $203 forward $290 $-1 #
edge $-1 $302 -72.62068106888529 $206 -65.835850277732874 $202 $303 forward 7 unknown #
edge $-1 $207 99.229366505933086 $302 107.06381420331437 $123 $304 forward 7 unknown #
coedge $-1 $124 $294 $300 $305 forward $195 $-1 #
vertex $-1 $203 $306 #
vertex $-1 $125 $307 #
straight-curve $-1 46.359992594327089 13.820402281339316 7.7953580749241809 -1 0 0 I I #
coedge $-1 $209 $209 $-1 $308 reversed $128 $-1 #
edge $-1 $309 0 $309 6.2831853071796004 $129 $310 forward 7 unknown #
vertex $-1 $132 $311 #
ellipse-curve $-1 51.57329522979272 9.4923603104936589 4.4029426793479951 0.86602541151947299 0 0.49999998660252726 0.24999999330126363 0 -0.43301270575973649 1 I I #
coedge $-1 $213 $213 $-1 $312 reversed $135 $-1 #
edge $-1 $313 0 $313 6.2831853071796004 $136 $314 forward 7 unknown #
vertex $-1 $139 $315 #
ellipse-curve $-1 51.57329522979272 12.089185493001054 4.4029426793479951 0.86602541151947299 0 0.49999998660252726 0.24999999330126363 0 -0.43301270575973649 1 I I #
face $-1 $-1 $155 $21 $-1 $316 reversed single #
loop $-1 $-1 $233 $140 #
plane-surface $-1 0 30.804821336610516 0 0 -1 0 0 0 -1 forward_v I I I I #
coedge $-1 $317 $231 $234 $318 forward $141 $-1 #
coedge $-1 $237 $143 $144 $225 reversed $88 $-1 #
coedge $-1 $231 $317 $143 $223 reversed $141 $-1 #
edge $-1 $238 -7.7953580749241844 $319 7.7953580749241844 $222 $320 forward 7 unknown #
coedge $-1 $145 $144 $317 $321 forward $57 $-1 #
edge $-1 $229 -53.531907101657154 $319 53.531907101657154 $221 $322 forward 7 unknown #
coedge $-1 $234 $233 $145 $227 reversed $218 $-1 #
edge $-1 $323 -53.531907101657154 $228 53.531907101657154 $226 $324 forward 7 unknown #
vertex $-1 $147 $325 #
vertex $-1 $240 $326 #
straight-curve $-1 53.531907101657154 0 -7.7953580749241844 0 -1 0 I I #
coedge $-1 $220 $222 $148 $232 reversed $141 $-1 #
edge $-1 $235 -30.804821336610516 $238 30.804821336610516 $231 $327 forward 7 unknown #
coedge $-1 $226 $149 $154 $241 forward $218 $-1 #
coedge $-1 $149 $226 $220 $318 reversed $218 $-1 #
vertex $-1 $150 $328 #
straight-curve $-1 0 30.804821336610516 7.7953580749241844 -1 0 0 I I #
coedge $-1 $151 $221 $153 $240 reversed $88 $-1 #
vertex $-1 $232 $329 #
straight-curve $-1 0 -30.804821336610516 7.7953580749241844 1 0 0 I I #
edge $-1 $156 -7.7953580749241844 $229 7.7953580749241844 $153 $330 forward 7 unknown #
edge $-1 $157 -7.7953580749241844 $228 7.7953580749241844 $154 $331 forward 7 unknown #
point $-1 53.531907101657154 -30.804821336610516 7.7953580749241844 #
point $-1 53.531907101657154 30.804821336610516 7.7953580749241844 #
face $-1 $-1 $332 $22 $-1 $333 reversed single #
loop $-1 $-1 $334 $159 #
plane-surface $-1 0 0 -7.7953580749241844 0 0 1 1 0 0 forward_v I I I I #
coedge $-1 $164 $262 $249 $335 forward $160 $-1 #
coedge $-1 $252 $162 $334 $336 reversed $96 $-1 #
coedge $-1 $162 $252 $247 $335 reversed $96 $-1 #
coedge $-1 $337 $338 $162 $251 forward $332 $-1 #
edge $-1 $339 -7.7953580749241844 $340 7.7953580749241844 $250 $341 forward 7 unknown #
coedge $-1 $249 $248 $163 $253 reversed $96 $-1 #
edge $-1 $254 -7.7953580749241844 $342 7.7953580749241844 $252 $343 forward 7 unknown #
vertex $-1 $165 $344 #
straight-curve $-1 -22.172109774925744 -25.557196681727639 7.7953580749241844 -1 0 0 I I #
coedge $-1 $338 $337 $166 $257 forward $332 $-1 #
edge $-1 $263 -7.7953580749241844 $260 7.7953580749241844 $256 $345 forward 7 unknown #
coedge $-1 $334 $167 $171 $265 forward $245 $-1 #
coedge $-1 $167 $334 $338 $346 forward $245 $-1 #
vertex $-1 $168 $347 #
straight-curve $-1 -45.844219549851488 -14.090504504584539 -7.7953580749241844 0 1 0 I I #
coedge $-1 $247 $169 $337 $348 forward $160 $-1 #
vertex $-1 $348 $349 #
straight-curve $-1 -45.844219549851488 -14.090504504584539 7.7953580749241844 0 -1 0 I I #
edge $-1 $173 -23.672109774925744 $342 -20.672109774925744 $258 $350 forward 7 unknown #
point $-1 -45.844219549851488 -25.557196681727639 7.7953580749241844 #
point $-1 -45.844219549851488 -25.557196681727639 -7.7953580749241844 #
loop $-1 $-1 $351 $175 #
plane-surface $-1 -53.531907101657154 0 0 1 0 0 0 0 -1 forward_v I I I I #
coedge $-1 $178 $181 $352 $353 forward $104 $-1 #
coedge $-1 $279 $184 $178 $272 reversed $176 $-1 #
edge $-1 $354 4.6993123726049078 $187 13.004899585140137 $178 $355 forward 7 unknown #
coedge $-1 $277 $352 $180 $274 forward $268 $-1 #
edge $-1 $275 36.393362033141756 $282 42.427724480893424 $273 $356 forward 7 unknown #
vertex $-1 $353 $357 #
straight-curve $-1 -58.231219474262062 -15.989020384350262 7.7953580749241809 -1 0 0 I I #
coedge $-1 $351 $273 $183 $278 forward $268 $-1 #
edge $-1 $282 5.6024661178307866 $280 15.170642415208164 $277 $358 forward 7 unknown #
coedge $-1 $184 $271 $351 $359 reversed $176 $-1 #
vertex $-1 $359 $360 #
straight-curve $-1 -50.9438989502532 -25.557196681727639 3.6412936486943766 0.80901698891910034 0 0.5877852598018023 I I #
vertex $-1 $278 $361 #
straight-curve $-1 -53.531907101657133 -15.989020384350262 1.7609956271725338 0.80901698891910034 0 0.5877852598018023 I I #
point $-1 -45.226319889121925 -25.557196681727639 7.7953580749241844 #
point $-1 -45.226319889121925 -15.989020384350262 7.7953580749241844 #
edge $-1 $362 1 $362 0 $190 $-1 forward 7 unknown #
vertex $-1 $191 $363 #
ellipse-curve $-1 -46.205401363899213 -20.77310853303895 0.40993693775058171 -0.5877852598018023 0 0.80901698891910034 1.2135254833786506 0 0.88167788970270344 1 I I #
point $-1 -48.165588012010907 -20.77310853303895 5.6598547407510669 #
loop $-1 $-1 $202 $194 #
plane-surface $-1 53.531907101657154 0 0 -1 0 0 0 0 1 forward_v I I I I #
coedge $-1 $293 $197 $199 $297 reversed $119 $-1 #
coedge $-1 $197 $292 $364 $365 reversed $119 $-1 #
coedge $-1 $205 $200 $197 $295 forward $195 $-1 #
edge $-1 $298 3.2546907636012179 $366 7.1719145073300652 $294 $367 forward 7 unknown #
coedge $-1 $199 $198 $301 $368 reversed $74 $-1 #
edge $-1 $369 -107.06381420331437 $298 -99.229366505933086 $292 $370 forward 7 unknown #
vertex $-1 $201 $371 #
straight-curve $-1 49.6146833579283 5.39538645087368 7.795358074924188 0 -1 0 I I #
coedge $-1 $364 $202 $205 $305 reversed $290 $-1 #
coedge $-1 $202 $364 $296 $368 forward $290 $-1 #
vertex $-1 $203 $372 #
straight-curve $-1 53.531907101657154 13.820402281339316 73.631208352657055 0 0 1 I I #
straight-curve $-1 1.4343845009534562e-006 13.820402281339316 93.730511038041485 0.49999998660252726 0 -0.86602541151947299 I I #
edge $-1 $366 7.7611435221554039 $206 13.820402281339316 $300 $373 forward 7 unknown #
point $-1 53.531907101657154 13.820402281339316 7.7953580749241844 #
point $-1 49.614683357928307 13.820402281339316 7.7953580749241809 #
edge $-1 $374 1 $374 0 $209 $-1 forward 7 unknown #
vertex $-1 $210 $375 #
ellipse-curve $-1 50.139887985276836 9.4923603104936589 3.5753646504349335 0.86602541151947299 0 0.49999998660252726 0.24999999330126363 0 -0.43301270575973649 1 I I #
point $-1 51.823295223094014 9.4923603104936589 3.9699299735882736 #
edge $-1 $376 1 $376 0 $213 $-1 forward 7 unknown #
vertex $-1 $214 $377 #
ellipse-curve $-1 50.139887985276836 12.089185493001054 3.5753646504349335 0.86602541151947299 0 0.49999998660252726 0.24999999330126363 0 -0.43301270575973649 1 I I #
point $-1 51.823295223094014 12.089185493001054 3.9699299735882736 #
plane-surface $-1 53.531907101657154 0 0 -1 0 0 0 0 1 forward_v I I I I #
coedge $-1 $222 $220 $224 $321 reversed $141 $-1 #
edge $-1 $235 -7.7953580749241844 $323 7.7953580749241844 $234 $378 forward 7 unknown #
vertex $-1 $321 $379 #
straight-curve $-1 -53.531907101657154 -30.804821336610516 0 0 0 -1 I I #
edge $-1 $319 -30.804821336610516 $323 30.804821336610516 $317 $380 forward 7 unknown #
straight-curve $-1 0 -30.804821336610516 -7.7953580749241844 -1 0 0 I I #
vertex $-1 $227 $381 #
straight-curve $-1 0 30.804821336610516 -7.7953580749241844 1 0 0 I I #
point $-1 53.531907101657154 30.804821336610516 -7.7953580749241844 #
point $-1 53.531907101657154 -30.804821336610516 -7.7953580749241844 #
straight-curve $-1 -53.531907101657154 0 7.7953580749241844 0 -1 0 I I #
point $-1 -53.531907101657154 30.804821336610516 7.7953580749241844 #
point $-1 -53.531907101657154 -30.804821336610516 7.7953580749241844 #
straight-curve $-1 53.531907101657154 -30.804821336610516 0 0 0 -1 I I #
straight-curve $-1 53.531907101657154 30.804821336610516 0 0 0 -1 I I #
loop $-1 $-1 $250 $244 #
plane-surface $-1 0 -30.804821336610516 0 0 1 0 0 0 1 forward_v I I I I #
coedge $-1 $259 $258 $248 $336 forward $245 $-1 #
edge $-1 $340 -16.714316832025979 $254 -11.4666921771431 $247 $382 forward 7 unknown #
edge $-1 $342 11.4666921771431 $339 16.714316832025979 $334 $383 forward 7 unknown #
coedge $-1 $256 $250 $262 $348 reversed $332 $-1 #
coedge $-1 $250 $256 $259 $346 reversed $332 $-1 #
vertex $-1 $346 $384 #
vertex $-1 $251 $385 #
straight-curve $-1 -42.844219549851488 -30.804821336610516 0 0 0 1 I I #
vertex $-1 $265 $386 #
straight-curve $-1 -42.844219549851488 -25.557196681727639 0 0 0 -1 I I #
point $-1 -42.844219549851488 -25.557196681727639 7.7953580749241844 #
straight-curve $-1 -45.844219549851488 -30.804821336610516 0 0 0 -1 I I #
edge $-1 $339 42.844219549851488 $260 45.844219549851488 $338 $387 forward 7 unknown #
point $-1 -45.844219549851488 -30.804821336610516 -7.7953580749241844 #
edge $-1 $263 -45.844219549851488 $340 -42.844219549851488 $337 $388 forward 7 unknown #
point $-1 -45.844219549851488 -30.804821336610516 7.7953580749241844 #
straight-curve $-1 -22.172109774925744 -25.557196681727639 -7.7953580749241844 1 0 0 I I #
coedge $-1 $352 $277 $279 $359 forward $268 $-1 #
coedge $-1 $273 $351 $270 $353 reversed $268 $-1 #
edge $-1 $275 15.989020384350262 $354 25.557196681727639 $352 $389 forward 7 unknown #
vertex $-1 $272 $390 #
straight-curve $-1 -58.231219474262062 -25.557196681727639 7.7953580749241809 1 0 0 I I #
straight-curve $-1 -53.531907101657154 -15.989020384350262 44.188720108065944 0 0 -1 I I #
point $-1 -53.531907101657154 -15.989020384350262 7.7953580749241844 #
straight-curve $-1 -53.531907101657154 -10.386554266519475 1.7609956271725169 0 -1 0 I I #
edge $-1 $280 -42.427724480893424 $354 -36.393362033141756 $351 $391 forward 7 unknown #
point $-1 -53.531907101657154 -25.557196681727639 1.7609956271725182 #
point $-1 -53.531907101657154 -15.989020384350262 1.7609956271725182 #
vertex $-1 $286 $392 #
point $-1 -44.991875880520567 -20.77310853303895 1.291614827453285 #
coedge $-1 $301 $300 $293 $365 forward $290 $-1 #
edge $-1 $366 65.835850277732874 $369 72.62068106888529 $364 $393 forward 7 unknown #
vertex $-1 $305 $394 #
straight-curve $-1 46.359992594327089 7.7611435221554039 7.7953580749241809 1 0 0 I I #
edge $-1 $369 2.365757071281724 $302 8.425015830465636 $301 $395 forward 7 unknown #
vertex $-1 $368 $396 #
straight-curve $-1 1.4343845009534562e-006 7.7611435221554039 93.730511038041485 -0.49999998660252726 0 0.86602541151947299 I I #
point $-1 49.614683357928307 7.7611435221554039 7.7953580749241809 #
point $-1 53.531907101657154 13.820402281339316 1.0105272837717649 #
straight-curve $-1 53.531907101657154 0 7.7953580749241844 0 1 0 I I #
vertex $-1 $308 $397 #
point $-1 50.389887978578102 9.4923603104936589 3.1423519446751973 #
vertex $-1 $312 $398 #
point $-1 50.389887978578102 12.089185493001054 3.1423519446751973 #
straight-curve $-1 -53.531907101657154 30.804821336610516 0 0 0 -1 I I #
point $-1 -53.531907101657154 -30.804821336610516 -7.7953580749241844 #
straight-curve $-1 -53.531907101657154 0 -7.7953580749241844 0 1 0 I I #
point $-1 -53.531907101657154 30.804821336610516 -7.7953580749241844 #
straight-curve $-1 -42.844219549851488 -14.090504504584539 7.7953580749241844 0 1 0 I I #
straight-curve $-1 -42.844219549851488 -14.090504504584539 -7.7953580749241844 0 -1 0 I I #
point $-1 -42.844219549851488 -30.804821336610516 -7.7953580749241844 #
point $-1 -42.844219549851488 -30.804821336610516 7.7953580749241844 #
point $-1 -42.844219549851488 -25.557196681727639 -7.7953580749241844 #
straight-curve $-1 0 -30.804821336610516 -7.7953580749241844 -1 0 0 I I #
straight-curve $-1 0 -30.804821336610516 7.7953580749241844 1 0 0 I I #
straight-curve $-1 -53.531907101657154 0 7.7953580749241844 0 -1 0 I I #
point $-1 -53.531907101657154 -25.557196681727639 7.7953580749241844 #
straight-curve $-1 -53.531907101657154 -25.557196681727639 44.188720108065944 0 0 1 I I #
point $-1 -45.323723474196512 -20.77310853303895 -0.80358854562806892 #
straight-curve $-1 53.531907101657154 7.7611435221554039 73.631208352657055 0 0 -1 I I #
point $-1 53.531907101657154 7.7611435221554039 7.7953580749241844 #
straight-curve $-1 53.531907101657154 5.39538645087368 1.0105272837717578 0 1 0 I I #
point $-1 53.531907101657154 7.7611435221554039 1.0105272837717649 #
point $-1 49.706875279517099 9.4923603104936589 3.3253646571336701 #
point $-1 49.706875279517099 12.089185493001054 3.3253646571336701 #
End-of-ACIS-data 