500 0 15 0           
7 Unknown 11 ACIS 5.0 NT 24 Fri Mar 26 14:26:15 1999 
-1 9.9999999999999995e-007 1e-010 
body $-1 $15 $-1 $16 #
body $-1 $17 $-1 $18 #
body $-1 $19 $-1 $20 #
body $-1 $21 $-1 $22 #
body $-1 $23 $-1 $24 #
body $-1 $25 $-1 $26 #
body $-1 $27 $-1 $28 #
body $-1 $29 $-1 $30 #
body $-1 $31 $-1 $32 #
body $-1 $33 $-1 $34 #
body $-1 $35 $-1 $36 #
body $-1 $37 $-1 $38 #
body $-1 $39 $-1 $40 #
body $-1 $41 $-1 $42 #
body $-1 $43 $-1 $44 #
lump $-1 $-1 $45 $0 #
transform $-1 1 0 0 0 1 0 0 0 1 67.736442152165296 40.986263352230928 14.241435022944586 1 rotate no_reflect no_shear #
lump $-1 $-1 $46 $1 #
transform $-1 1 0 0 0 1 0 0 0 1 67.736442152165296 40.986263352230928 14.241435022944586 1 rotate no_reflect no_shear #
lump $-1 $-1 $47 $2 #
transform $-1 1 0 0 0 1 0 0 0 1 67.736442152165296 40.986263352230928 14.241435022944586 1 rotate no_reflect no_shear #
lump $-1 $-1 $48 $3 #
transform $-1 1 0 0 0 1 0 0 0 1 67.736442152165296 40.986263352230928 14.241435022944586 1 rotate no_reflect no_shear #
lump $-1 $-1 $49 $4 #
transform $-1 1 0 0 0 1 0 0 0 1 67.736442152165296 40.986263352230928 14.241435022944586 1 rotate no_reflect no_shear #
lump $-1 $-1 $50 $5 #
transform $-1 1 0 0 0 1 0 0 0 1 67.736442152165296 40.986263352230928 14.241435022944586 1 rotate no_reflect no_shear #
lump $-1 $-1 $51 $6 #
transform $-1 1 0 0 0 1 0 0 0 1 67.736442152165296 40.986263352230928 14.241435022944586 1 rotate no_reflect no_shear #
lump $-1 $-1 $52 $7 #
transform $-1 1 0 0 0 1 0 0 0 1 67.736442152165296 40.986263352230928 14.241435022944586 1 rotate no_reflect no_shear #
lump $-1 $-1 $53 $8 #
transform $-1 1 0 0 0 1 0 0 0 1 67.736442152165296 40.986263352230928 14.241435022944586 1 rotate no_reflect no_shear #
lump $-1 $-1 $54 $9 #
transform $-1 1 0 0 0 1 0 0 0 1 67.736442152165296 40.986263352230928 14.241435022944586 1 rotate no_reflect no_shear #
lump $-1 $-1 $55 $10 #
transform $-1 1 0 0 0 1 0 0 0 1 67.736442152165296 40.986263352230928 14.241435022944586 1 rotate no_reflect no_shear #
lump $-1 $-1 $56 $11 #
transform $-1 1 0 0 0 1 0 0 0 1 67.736442152165296 40.986263352230928 14.241435022944586 1 rotate no_reflect no_shear #
lump $-1 $-1 $57 $12 #
transform $-1 1 0 0 0 1 0 0 0 1 67.736442152165296 40.986263352230928 14.241435022944586 1 rotate no_reflect no_shear #
lump $-1 $-1 $58 $13 #
transform $-1 1 0 0 0 1 0 0 0 1 67.736442152165296 40.986263352230928 14.241435022944586 1 rotate no_reflect no_shear #
lump $-1 $-1 $59 $14 #
transform $-1 1 0 0 0 1 0 0 0 1 67.736442152165296 40.986263352230928 14.241435022944586 1 rotate no_reflect no_shear #
shell $-1 $-1 $-1 $60 $-1 $15 #
shell $-1 $-1 $-1 $61 $-1 $17 #
shell $-1 $-1 $-1 $62 $-1 $19 #
shell $-1 $-1 $-1 $63 $-1 $21 #
shell $-1 $-1 $-1 $64 $-1 $23 #
shell $-1 $-1 $-1 $65 $-1 $25 #
shell $-1 $-1 $-1 $66 $-1 $27 #
shell $-1 $-1 $-1 $67 $-1 $29 #
shell $-1 $-1 $-1 $68 $-1 $31 #
shell $-1 $-1 $-1 $69 $-1 $33 #
shell $-1 $-1 $-1 $70 $-1 $35 #
shell $-1 $-1 $-1 $71 $-1 $37 #
shell $-1 $-1 $-1 $72 $-1 $39 #
shell $-1 $-1 $-1 $73 $-1 $41 #
shell $-1 $-1 $-1 $74 $-1 $43 #
face $-1 $75 $76 $45 $-1 $77 forward single #
face $-1 $78 $79 $46 $-1 $80 forward single #
face $-1 $81 $82 $47 $-1 $83 forward single #
face $-1 $84 $85 $48 $-1 $86 reversed single #
face $-1 $87 $88 $49 $-1 $89 forward single #
face $-1 $90 $91 $50 $-1 $92 forward single #
face $-1 $93 $94 $51 $-1 $95 reversed single #
face $-1 $96 $97 $52 $-1 $98 forward single #
face $-1 $99 $100 $53 $-1 $101 forward single #
face $-1 $102 $103 $54 $-1 $104 reversed single #
face $-1 $105 $106 $55 $-1 $107 forward single #
face $-1 $108 $109 $56 $-1 $110 forward single #
face $-1 $111 $112 $57 $-1 $113 reversed single #
face $-1 $114 $115 $58 $-1 $116 forward single #
face $-1 $117 $118 $59 $-1 $119 forward single #
face $-1 $120 $121 $45 $-1 $122 reversed single #
loop $-1 $-1 $123 $60 #
plane-surface $-1 0 0 14.241435022944586 0 0 1 1 0 0 forward_v I I I I #
face $-1 $124 $125 $46 $-1 $126 reversed single #
loop $-1 $-1 $127 $61 #
plane-surface $-1 -59.625643492517469 0 6.2383511107405178 0 0 1 1 0 0 forward_v I I I I #
face $-1 $128 $129 $47 $-1 $130 reversed single #
loop $-1 $-1 $131 $62 #
plane-surface $-1 59.625643492517469 0 6.2383511107405178 0 0 1 1 0 0 forward_v I I I I #
face $-1 $132 $133 $48 $-1 $134 reversed single #
loop $-1 $-1 $135 $63 #
plane-surface $-1 -7.8008426478424155 119.73245036618562 138.97617529689944 -1 0 0 0 0.87461971476443456 0.48480960649040278 forward_v I I I I #
face $-1 $136 $137 $49 $-1 $138 forward single #
loop $-1 $139 $140 $64 #
cone-surface $-1 -18.817727781249012 36.278162722135427 7.2540498043929365 0 -0.87461971476443456 -0.48480960649040278 2 0 0 1 I I 0 1 2 forward I I I I #
face $-1 $141 $142 $50 $-1 $143 forward single #
loop $-1 $144 $145 $65 #
cone-surface $-1 -12.207596701205048 36.278162722135427 7.2540498043929365 0 -0.87461971476443456 -0.48480960649040278 2 0 0 1 I I 0 1 2 forward I I I I #
face $-1 $146 $147 $51 $-1 $148 reversed single #
loop $-1 $-1 $149 $66 #
plane-surface $-1 23.224481834611666 119.73245036618562 138.97617529689944 -1 0 0 0 0.87461971476443456 0.48480960649040278 forward_v I I I I #
face $-1 $150 $151 $52 $-1 $152 forward single #
loop $-1 $153 $154 $67 #
cone-surface $-1 12.207596701205077 36.278162722135427 7.2540498043929365 0 -0.87461971476443456 -0.48480960649040278 2 0 0 1 I I 0 1 2 forward I I I I #
face $-1 $155 $156 $53 $-1 $157 forward single #
loop $-1 $158 $159 $68 #
cone-surface $-1 18.817727781249033 36.278162722135427 7.2540498043929365 0 -0.87461971476443456 -0.48480960649040278 2 0 0 1 I I 0 1 2 forward I I I I #
face $-1 $160 $161 $54 $-1 $162 reversed single #
loop $-1 $-1 $163 $69 #
plane-surface $-1 -23.224481834611652 -159.47351878079979 67.281387372123021 1 0 0 0 0.87461971476443456 -0.48480960649040278 forward_v I I I I #
face $-1 $164 $165 $55 $-1 $166 forward single #
loop $-1 $167 $168 $70 #
cone-surface $-1 -18.817727781249012 -36.278162722135427 7.2540498043929436 0 0.87461971476443456 -0.48480960649040278 2 0 0 1 I I 0 1 2 forward I I I I #
face $-1 $169 $170 $56 $-1 $171 forward single #
loop $-1 $172 $173 $71 #
cone-surface $-1 -12.207596701205048 -36.278162722135427 7.2540498043929436 0 0.87461971476443456 -0.48480960649040278 2 0 0 1 I I 0 1 2 forward I I I I #
face $-1 $174 $175 $57 $-1 $176 reversed single #
loop $-1 $-1 $177 $72 #
plane-surface $-1 7.8008426478424298 -159.47351878079979 67.281387372123021 1 0 0 0 0.87461971476443456 -0.48480960649040278 forward_v I I I I #
face $-1 $178 $179 $58 $-1 $180 forward single #
loop $-1 $181 $182 $73 #
cone-surface $-1 12.207596701205077 -36.278162722135427 7.2540498043929436 0 0.87461971476443456 -0.48480960649040278 2 0 0 1 I I 0 1 2 forward I I I I #
face $-1 $183 $184 $59 $-1 $185 forward single #
loop $-1 $186 $187 $74 #
cone-surface $-1 18.817727781249033 -36.278162722135427 7.2540498043929436 0 0.87461971476443456 -0.48480960649040278 2 0 0 1 I I 0 1 2 forward I I I I #
face $-1 $188 $189 $45 $-1 $190 reversed single #
loop $-1 $-1 $191 $75 #
plane-surface $-1 0 0 -14.241435022944586 0 0 1 1 0 0 forward_v I I I I #
coedge $-1 $192 $193 $194 $195 forward $76 $-1 #
face $-1 $196 $197 $46 $-1 $198 reversed single #
loop $-1 $-1 $199 $78 #
plane-surface $-1 -59.625643492517469 0 0.18807734810120191 0 0 1 1 0 0 forward_v I I I I #
coedge $-1 $200 $201 $202 $203 forward $79 $-1 #
face $-1 $204 $205 $47 $-1 $206 reversed single #
loop $-1 $-1 $207 $81 #
plane-surface $-1 59.625643492517469 0 0.18807734810120191 0 0 1 1 0 0 forward_v I I I I #
coedge $-1 $208 $209 $210 $211 reversed $82 $-1 #
face $-1 $212 $213 $48 $-1 $214 reversed single #
loop $-1 $-1 $215 $84 #
plane-surface $-1 -15.512662241227034 1.2451949376167448 73.29761956719706 0 0.87461971476443456 0.48480960649040278 1 0 0 forward_v I I I I #
coedge $-1 $216 $217 $218 $219 reversed $85 $-1 #
face $-1 $-1 $220 $49 $-1 $221 forward single #
loop $-1 $222 $223 $87 #
cone-surface $-1 -18.817727781249012 34.198288373120882 6.1011566696128625 0 -0.87461971476443456 -0.48480960649040278 1 0 0 1 I I -0.70710678118654746 0.70710678118654746 1 forward I I I I #
loop $-1 $-1 $224 $64 #
coedge $-1 $140 $140 $225 $226 reversed $88 $-1 #
face $-1 $-1 $227 $50 $-1 $228 forward single #
loop $-1 $229 $230 $90 #
cone-surface $-1 -12.207596701205048 34.198288373120882 6.1011566696128625 0 -0.87461971476443456 -0.48480960649040278 1 0 0 1 I I -0.70710678118654746 0.70710678118654746 1 forward I I I I #
loop $-1 $-1 $231 $65 #
coedge $-1 $145 $145 $232 $233 reversed $91 $-1 #
face $-1 $234 $235 $51 $-1 $236 reversed single #
loop $-1 $-1 $237 $93 #
plane-surface $-1 15.512662241227048 1.2451949376167448 73.29761956719706 0 0.87461971476443456 0.48480960649040278 1 0 0 forward_v I I I I #
coedge $-1 $238 $239 $240 $241 reversed $94 $-1 #
face $-1 $-1 $242 $52 $-1 $243 forward single #
loop $-1 $244 $245 $96 #
cone-surface $-1 12.207596701205077 34.198288373120882 6.1011566696128625 0 -0.87461971476443456 -0.48480960649040278 1 0 0 1 I I -0.70710678118654746 0.70710678118654746 1 forward I I I I #
loop $-1 $-1 $246 $67 #
coedge $-1 $154 $154 $247 $248 reversed $97 $-1 #
face $-1 $-1 $249 $53 $-1 $250 forward single #
loop $-1 $251 $252 $99 #
cone-surface $-1 18.817727781249033 34.198288373120882 6.1011566696128625 0 -0.87461971476443456 -0.48480960649040278 1 0 0 1 I I -0.70710678118654746 0.70710678118654746 1 forward I I I I #
loop $-1 $-1 $253 $68 #
coedge $-1 $159 $159 $254 $255 reversed $100 $-1 #
face $-1 $256 $257 $54 $-1 $258 reversed single #
loop $-1 $-1 $259 $102 #
plane-surface $-1 -15.512662241227034 -40.986263352230921 1.6028316424206395 0 -0.87461971476443456 0.48480960649040278 1 0 0 forward_v I I I I #
coedge $-1 $260 $261 $262 $263 reversed $103 $-1 #
face $-1 $-1 $264 $55 $-1 $265 forward single #
loop $-1 $266 $267 $105 #
cone-surface $-1 -18.817727781249012 -34.198288373120882 6.1011566696128696 0 0.87461971476443456 -0.48480960649040278 1 0 0 1 I I -0.70710678118654746 0.70710678118654746 1 forward I I I I #
loop $-1 $-1 $268 $70 #
coedge $-1 $168 $168 $269 $270 reversed $106 $-1 #
face $-1 $-1 $271 $56 $-1 $272 forward single #
loop $-1 $273 $274 $108 #
cone-surface $-1 -12.207596701205048 -34.198288373120882 6.1011566696128696 0 0.87461971476443456 -0.48480960649040278 1 0 0 1 I I -0.70710678118654746 0.70710678118654746 1 forward I I I I #
loop $-1 $-1 $275 $71 #
coedge $-1 $173 $173 $276 $277 reversed $109 $-1 #
face $-1 $278 $279 $57 $-1 $280 reversed single #
loop $-1 $-1 $281 $111 #
plane-surface $-1 15.512662241227048 -40.986263352230921 1.6028316424206395 0 -0.87461971476443456 0.48480960649040278 1 0 0 forward_v I I I I #
coedge $-1 $282 $283 $284 $285 reversed $112 $-1 #
face $-1 $-1 $286 $58 $-1 $287 forward single #
loop $-1 $288 $289 $114 #
cone-surface $-1 12.207596701205077 -34.198288373120882 6.1011566696128696 0 0.87461971476443456 -0.48480960649040278 1 0 0 1 I I -0.70710678118654746 0.70710678118654746 1 forward I I I I #
loop $-1 $-1 $290 $73 #
coedge $-1 $182 $182 $291 $292 reversed $115 $-1 #
face $-1 $-1 $293 $59 $-1 $294 forward single #
loop $-1 $295 $296 $117 #
cone-surface $-1 18.817727781249033 -34.198288373120882 6.1011566696128696 0 0.87461971476443456 -0.48480960649040278 1 0 0 1 I I -0.70710678118654746 0.70710678118654746 1 forward I I I I #
loop $-1 $-1 $297 $74 #
coedge $-1 $187 $187 $298 $299 reversed $118 $-1 #
face $-1 $300 $301 $45 $-1 $302 reversed single #
loop $-1 $-1 $303 $120 #
plane-surface $-1 0 -40.986263352230928 0 0 1 0 0 0 1 forward_v I I I I #
coedge $-1 $304 $305 $306 $307 forward $121 $-1 #
coedge $-1 $308 $123 $309 $310 forward $76 $-1 #
coedge $-1 $123 $308 $311 $312 forward $76 $-1 #
coedge $-1 $313 $314 $123 $195 reversed $315 $-1 #
edge $-1 $316 -40.986263352230928 $317 40.986263352230928 $194 $318 forward 7 unknown #
face $-1 $319 $320 $46 $-1 $321 reversed single #
loop $-1 $-1 $322 $124 #
plane-surface $-1 -51.514844832869642 0 3.2132142294208599 -1 0 0 0 0 1 forward_v I I I I #
coedge $-1 $323 $324 $325 $326 forward $125 $-1 #
coedge $-1 $327 $127 $328 $329 reversed $79 $-1 #
coedge $-1 $127 $327 $330 $331 reversed $79 $-1 #
coedge $-1 $322 $332 $127 $203 reversed $197 $-1 #
edge $-1 $333 -40.986263352230928 $334 40.986263352230928 $202 $335 forward 7 unknown #
face $-1 $336 $337 $47 $-1 $338 reversed single #
loop $-1 $-1 $339 $128 #
plane-surface $-1 51.514844832869642 0 3.2132142294208599 1 0 0 0 0 -1 forward_v I I I I #
coedge $-1 $340 $341 $342 $343 reversed $129 $-1 #
coedge $-1 $344 $131 $345 $346 reversed $82 $-1 #
coedge $-1 $131 $344 $347 $348 reversed $82 $-1 #
coedge $-1 $349 $350 $131 $211 forward $351 $-1 #
edge $-1 $352 -40.986263352230928 $353 40.986263352230928 $210 $354 forward 7 unknown #
face $-1 $355 $356 $48 $-1 $357 reversed single #
loop $-1 $-1 $358 $132 #
plane-surface $-1 -23.224481834611652 119.73245036618562 138.97617529689944 1 0 0 0 -0.87461971476443456 -0.48480960649040278 forward_v I I I I #
coedge $-1 $359 $360 $361 $362 reversed $133 $-1 #
coedge $-1 $217 $135 $363 $364 reversed $85 $-1 #
coedge $-1 $135 $216 $359 $365 reversed $85 $-1 #
coedge $-1 $361 $366 $135 $219 forward $356 $-1 #
edge $-1 $367 55.246652625505135 $368 67.885256006029081 $218 $369 forward 7 unknown #
loop $-1 $-1 $225 $136 #
plane-surface $-1 -15.512662241227034 1.2451949376167448 73.29761956719706 0 0.87461971476443456 0.48480960649040278 1 0 0 forward_v I I I I #
loop $-1 $-1 $370 $87 #
coedge $-1 $223 $223 $224 $371 reversed $137 $-1 #
coedge $-1 $224 $224 $223 $371 forward $139 $-1 #
coedge $-1 $225 $225 $140 $226 forward $220 $-1 #
edge $-1 $372 -7.7681835609804978e-016 $372 6.2831853071795996 $225 $373 forward 7 unknown #
loop $-1 $-1 $232 $141 #
plane-surface $-1 -15.512662241227034 1.2451949376167448 73.29761956719706 0 0.87461971476443456 0.48480960649040278 1 0 0 forward_v I I I I #
loop $-1 $-1 $374 $90 #
coedge $-1 $230 $230 $231 $375 reversed $142 $-1 #
coedge $-1 $231 $231 $230 $375 forward $144 $-1 #
coedge $-1 $232 $232 $145 $233 forward $227 $-1 #
edge $-1 $376 -7.7681835609804978e-016 $376 6.2831853071795996 $232 $377 forward 7 unknown #
face $-1 $378 $379 $51 $-1 $380 forward single #
loop $-1 $-1 $381 $146 #
plane-surface $-1 7.8008426478424298 119.73245036618562 138.97617529689944 1 0 0 0 -0.87461971476443456 -0.48480960649040278 forward_v I I I I #
coedge $-1 $382 $383 $384 $385 reversed $147 $-1 #
coedge $-1 $239 $149 $386 $387 reversed $94 $-1 #
coedge $-1 $149 $238 $382 $388 reversed $94 $-1 #
coedge $-1 $384 $389 $149 $241 forward $390 $-1 #
edge $-1 $391 55.246652625505135 $392 67.885256006029081 $240 $393 forward 7 unknown #
loop $-1 $-1 $247 $150 #
plane-surface $-1 15.512662241227048 1.2451949376167448 73.29761956719706 0 0.87461971476443456 0.48480960649040278 1 0 0 forward_v I I I I #
loop $-1 $-1 $394 $96 #
coedge $-1 $245 $245 $246 $395 reversed $151 $-1 #
coedge $-1 $246 $246 $245 $395 forward $153 $-1 #
coedge $-1 $247 $247 $154 $248 forward $242 $-1 #
edge $-1 $396 -7.7681835609804978e-016 $396 6.2831853071795996 $247 $397 forward 7 unknown #
loop $-1 $-1 $254 $155 #
plane-surface $-1 15.512662241227048 1.2451949376167448 73.29761956719706 0 0.87461971476443456 0.48480960649040278 1 0 0 forward_v I I I I #
loop $-1 $-1 $398 $99 #
coedge $-1 $252 $252 $253 $399 reversed $156 $-1 #
coedge $-1 $253 $253 $252 $399 forward $158 $-1 #
coedge $-1 $254 $254 $159 $255 forward $249 $-1 #
edge $-1 $400 -7.7681835609804978e-016 $400 6.2831853071795996 $254 $401 forward 7 unknown #
face $-1 $402 $403 $54 $-1 $404 forward single #
loop $-1 $-1 $405 $160 #
plane-surface $-1 -7.8008426478424155 -159.47351878079979 67.281387372123021 -1 0 0 0 -0.87461971476443456 0.48480960649040278 forward_v I I I I #
coedge $-1 $406 $407 $408 $409 reversed $161 $-1 #
coedge $-1 $261 $163 $410 $411 reversed $103 $-1 #
coedge $-1 $163 $260 $406 $412 reversed $103 $-1 #
coedge $-1 $408 $413 $163 $263 forward $414 $-1 #
edge $-1 $415 19.399258663116925 $416 32.037862043640885 $262 $417 forward 7 unknown #
loop $-1 $-1 $269 $164 #
plane-surface $-1 -15.512662241227034 -40.986263352230921 1.6028316424206395 0 -0.87461971476443456 0.48480960649040278 1 0 0 forward_v I I I I #
loop $-1 $-1 $418 $105 #
coedge $-1 $267 $267 $268 $419 reversed $165 $-1 #
coedge $-1 $268 $268 $267 $419 forward $167 $-1 #
coedge $-1 $269 $269 $168 $270 forward $264 $-1 #
edge $-1 $420 6.0806534770180727e-016 $420 6.2831853071796013 $269 $421 forward 7 unknown #
loop $-1 $-1 $276 $169 #
plane-surface $-1 -15.512662241227034 -40.986263352230921 1.6028316424206395 0 -0.87461971476443456 0.48480960649040278 1 0 0 forward_v I I I I #
loop $-1 $-1 $422 $108 #
coedge $-1 $274 $274 $275 $423 reversed $170 $-1 #
coedge $-1 $275 $275 $274 $423 forward $172 $-1 #
coedge $-1 $276 $276 $173 $277 forward $271 $-1 #
edge $-1 $424 6.0806534770180727e-016 $424 6.2831853071796013 $276 $425 forward 7 unknown #
face $-1 $426 $427 $57 $-1 $428 reversed single #
loop $-1 $-1 $429 $174 #
plane-surface $-1 23.224481834611666 -159.47351878079979 67.281387372123021 -1 0 0 0 -0.87461971476443456 0.48480960649040278 forward_v I I I I #
coedge $-1 $430 $431 $432 $433 reversed $175 $-1 #
coedge $-1 $283 $177 $434 $435 reversed $112 $-1 #
coedge $-1 $177 $282 $430 $436 reversed $112 $-1 #
coedge $-1 $432 $437 $177 $285 forward $427 $-1 #
edge $-1 $438 19.399258663116925 $439 32.037862043640885 $284 $440 forward 7 unknown #
loop $-1 $-1 $291 $178 #
plane-surface $-1 15.512662241227048 -40.986263352230921 1.6028316424206395 0 -0.87461971476443456 0.48480960649040278 1 0 0 forward_v I I I I #
loop $-1 $-1 $441 $114 #
coedge $-1 $289 $289 $290 $442 reversed $179 $-1 #
coedge $-1 $290 $290 $289 $442 forward $181 $-1 #
coedge $-1 $291 $291 $182 $292 forward $286 $-1 #
edge $-1 $443 6.0806534770180727e-016 $443 6.2831853071796013 $291 $444 forward 7 unknown #
loop $-1 $-1 $298 $183 #
plane-surface $-1 15.512662241227048 -40.986263352230921 1.6028316424206395 0 -0.87461971476443456 0.48480960649040278 1 0 0 forward_v I I I I #
loop $-1 $-1 $445 $117 #
coedge $-1 $296 $296 $297 $446 reversed $184 $-1 #
coedge $-1 $297 $297 $296 $446 forward $186 $-1 #
coedge $-1 $298 $298 $187 $299 forward $293 $-1 #
edge $-1 $447 6.0806534770180727e-016 $447 6.2831853071796013 $298 $448 forward 7 unknown #
face $-1 $449 $450 $45 $-1 $451 reversed single #
loop $-1 $-1 $452 $188 #
plane-surface $-1 -67.736442152165296 0 0 1 0 0 0 0 -1 forward_v I I I I #
coedge $-1 $453 $311 $454 $455 forward $189 $-1 #
coedge $-1 $456 $191 $453 $457 forward $121 $-1 #
coedge $-1 $191 $456 $458 $459 forward $121 $-1 #
coedge $-1 $314 $313 $191 $307 reversed $315 $-1 #
edge $-1 $460 -40.986263352230928 $461 40.986263352230928 $306 $462 forward 7 unknown #
coedge $-1 $193 $192 $463 $464 forward $76 $-1 #
coedge $-1 $465 $466 $192 $310 reversed $450 $-1 #
edge $-1 $317 -67.736442152165296 $467 67.736442152165296 $309 $468 forward 7 unknown #
coedge $-1 $303 $469 $193 $312 reversed $189 $-1 #
edge $-1 $470 -67.736442152165296 $316 67.736442152165296 $311 $471 forward 7 unknown #
coedge $-1 $306 $194 $469 $472 forward $315 $-1 #
coedge $-1 $194 $306 $465 $473 reversed $315 $-1 #
loop $-1 $-1 $313 $449 #
vertex $-1 $195 $474 #
vertex $-1 $195 $475 #
straight-curve $-1 67.736442152165296 0 14.241435022944586 0 1 0 I I #
face $-1 $476 $477 $46 $-1 $478 reversed single #
loop $-1 $-1 $479 $196 #
plane-surface $-1 0 -40.986263352230928 0 0 1 0 0 0 1 forward_v I I I I #
coedge $-1 $325 $202 $480 $481 reversed $197 $-1 #
coedge $-1 $482 $199 $479 $483 reversed $125 $-1 #
coedge $-1 $199 $482 $484 $485 reversed $125 $-1 #
coedge $-1 $332 $322 $199 $326 reversed $197 $-1 #
edge $-1 $486 -40.986263352230928 $487 40.986263352230928 $325 $488 forward 7 unknown #
coedge $-1 $201 $200 $489 $490 reversed $79 $-1 #
coedge $-1 $491 $492 $200 $329 forward $493 $-1 #
edge $-1 $494 -37.923620405906561 $334 -21.702023086610907 $328 $495 forward 7 unknown #
coedge $-1 $496 $480 $201 $331 forward $320 $-1 #
edge $-1 $333 21.702023086610907 $497 37.923620405906561 $330 $498 forward 7 unknown #
coedge $-1 $202 $325 $491 $499 reversed $197 $-1 #
vertex $-1 $331 $500 #
vertex $-1 $329 $501 #
straight-curve $-1 -51.514844832869642 0 6.2383511107405178 0 1 0 I I #
face $-1 $502 $503 $47 $-1 $504 reversed single #
loop $-1 $-1 $347 $204 #
plane-surface $-1 0 -40.986263352230928 0 0 1 0 0 0 1 forward_v I I I I #
coedge $-1 $505 $506 $507 $508 reversed $205 $-1 #
coedge $-1 $509 $207 $510 $511 reversed $129 $-1 #
coedge $-1 $207 $509 $512 $513 reversed $129 $-1 #
coedge $-1 $350 $349 $207 $343 forward $351 $-1 #
edge $-1 $514 -40.986263352230928 $515 40.986263352230928 $342 $516 forward 7 unknown #
coedge $-1 $209 $208 $506 $517 forward $82 $-1 #
coedge $-1 $518 $507 $208 $346 forward $503 $-1 #
edge $-1 $519 21.702023086610907 $352 37.923620405906561 $345 $520 forward 7 unknown #
coedge $-1 $521 $522 $209 $348 forward $337 $-1 #
edge $-1 $353 -37.923620405906561 $523 -21.702023086610907 $347 $524 forward 7 unknown #
coedge $-1 $342 $210 $522 $525 forward $351 $-1 #
coedge $-1 $210 $342 $518 $526 reversed $351 $-1 #
loop $-1 $-1 $210 $502 #
vertex $-1 $526 $527 #
vertex $-1 $525 $528 #
straight-curve $-1 67.736442152165296 0 6.2383511107405178 0 -1 0 I I #
face $-1 $-1 $529 $48 $-1 $530 forward single #
loop $-1 $-1 $218 $212 #
plane-surface $-1 0 40.986263352230928 0 0 -1 0 0 0 -1 forward_v I I I I #
coedge $-1 $531 $532 $533 $534 reversed $213 $-1 #
coedge $-1 $535 $215 $217 $365 forward $133 $-1 #
coedge $-1 $215 $535 $531 $536 forward $133 $-1 #
coedge $-1 $533 $218 $215 $362 forward $356 $-1 #
edge $-1 $368 0.044511527228898728 $537 15.468150713998135 $361 $538 forward 7 unknown #
coedge $-1 $539 $540 $216 $364 forward $529 $-1 #
edge $-1 $541 -25.885653822552676 $367 -18.87996183086188 $363 $542 forward 7 unknown #
edge $-1 $368 -81.972526704461856 $541 -67.522128243082619 $217 $543 forward 7 unknown #
coedge $-1 $218 $533 $539 $544 reversed $356 $-1 #
vertex $-1 $544 $545 #
vertex $-1 $219 $546 #
straight-curve $-1 -7.8008426478424155 40.986263352230928 69.488087648449721 0 0 -1 I I #
coedge $-1 $370 $370 $-1 $547 reversed $222 $-1 #
edge $-1 $548 0 $548 6.2831853071796004 $223 $549 forward 7 unknown #
vertex $-1 $226 $550 #
ellipse-curve $-1 -18.817727781249012 37.48341735638553 7.9221333326826056 0 0.87461971476443456 0.48480960649040278 2 0 0 1 I I #
coedge $-1 $374 $374 $-1 $551 reversed $229 $-1 #
edge $-1 $552 0 $552 6.2831853071796004 $230 $553 forward 7 unknown #
vertex $-1 $233 $554 #
ellipse-curve $-1 -12.207596701205048 37.48341735638553 7.9221333326826056 0 0.87461971476443456 0.48480960649040278 2 0 0 1 I I #
face $-1 $-1 $390 $51 $-1 $555 reversed single #
loop $-1 $-1 $556 $234 #
plane-surface $-1 0 0 14.241435022944586 0 0 1 1 0 0 forward_v I I I I #
coedge $-1 $557 $558 $559 $560 reversed $235 $-1 #
coedge $-1 $561 $237 $239 $388 forward $147 $-1 #
coedge $-1 $237 $561 $557 $562 forward $147 $-1 #
coedge $-1 $559 $240 $237 $385 forward $390 $-1 #
edge $-1 $392 -15.468150713998142 $563 -0.044511527228905834 $384 $564 forward 7 unknown #
coedge $-1 $565 $566 $238 $387 forward $379 $-1 #
edge $-1 $567 -25.885653822552676 $391 -18.87996183086188 $386 $568 forward 7 unknown #
edge $-1 $392 -81.972526704461856 $567 -67.522128243082619 $239 $569 forward 7 unknown #
coedge $-1 $240 $559 $565 $570 reversed $390 $-1 #
loop $-1 $-1 $559 $378 #
vertex $-1 $570 $571 #
vertex $-1 $241 $572 #
straight-curve $-1 23.224481834611666 40.986263352230928 69.488087648449721 0 0 -1 I I #
coedge $-1 $394 $394 $-1 $573 reversed $244 $-1 #
edge $-1 $574 0 $574 6.2831853071796004 $245 $575 forward 7 unknown #
vertex $-1 $248 $576 #
ellipse-curve $-1 12.207596701205077 37.48341735638553 7.9221333326826056 0 0.87461971476443456 0.48480960649040278 2 0 0 1 I I #
coedge $-1 $398 $398 $-1 $577 reversed $251 $-1 #
edge $-1 $578 0 $578 6.2831853071796004 $252 $579 forward 7 unknown #
vertex $-1 $255 $580 #
ellipse-curve $-1 18.817727781249033 37.48341735638553 7.9221333326826056 0 0.87461971476443456 0.48480960649040278 2 0 0 1 I I #
face $-1 $-1 $414 $54 $-1 $581 reversed single #
loop $-1 $-1 $582 $256 #
plane-surface $-1 0 0 14.241435022944586 0 0 1 1 0 0 forward_v I I I I #
coedge $-1 $583 $584 $585 $586 reversed $257 $-1 #
coedge $-1 $587 $259 $261 $412 forward $161 $-1 #
coedge $-1 $259 $587 $583 $588 forward $161 $-1 #
coedge $-1 $585 $262 $259 $409 forward $414 $-1 #
edge $-1 $416 -15.468150713998135 $589 -0.044511527228898728 $408 $590 forward 7 unknown #
coedge $-1 $591 $592 $260 $411 forward $403 $-1 #
edge $-1 $593 -45.756188029859771 $415 -38.750496038168968 $410 $594 forward 7 unknown #
edge $-1 $416 -1.4708645604606407e-014 $593 14.450398461379255 $261 $595 forward 7 unknown #
coedge $-1 $262 $585 $591 $596 reversed $414 $-1 #
loop $-1 $-1 $585 $402 #
vertex $-1 $596 $597 #
vertex $-1 $263 $598 #
straight-curve $-1 -23.224481834611652 -40.986263352230928 33.64069368606151 0 0 -1 I I #
coedge $-1 $418 $418 $-1 $599 reversed $266 $-1 #
edge $-1 $600 0 $600 6.2831853071796004 $267 $601 forward 7 unknown #
vertex $-1 $270 $602 #
ellipse-curve $-1 -18.817727781249012 -37.483417356385523 7.9221333326826091 0 -0.87461971476443456 0.48480960649040278 2 0 0 1 I I #
coedge $-1 $422 $422 $-1 $603 reversed $273 $-1 #
edge $-1 $604 0 $604 6.2831853071796004 $274 $605 forward 7 unknown #
vertex $-1 $277 $606 #
ellipse-curve $-1 -12.207596701205048 -37.483417356385523 7.9221333326826091 0 -0.87461971476443456 0.48480960649040278 2 0 0 1 I I #
face $-1 $-1 $607 $57 $-1 $608 forward single #
loop $-1 $-1 $284 $278 #
plane-surface $-1 0 -40.986263352230928 0 0 1 0 0 0 1 forward_v I I I I #
coedge $-1 $609 $610 $611 $612 reversed $279 $-1 #
coedge $-1 $613 $281 $283 $436 forward $175 $-1 #
coedge $-1 $281 $613 $609 $614 forward $175 $-1 #
coedge $-1 $611 $284 $281 $433 forward $427 $-1 #
edge $-1 $439 0.044511527228905834 $615 15.468150713998142 $432 $616 forward 7 unknown #
coedge $-1 $617 $618 $282 $435 forward $607 $-1 #
edge $-1 $619 -45.756188029859771 $438 -38.750496038168968 $434 $620 forward 7 unknown #
edge $-1 $439 -1.4708645604606407e-014 $619 14.450398461379255 $283 $621 forward 7 unknown #
coedge $-1 $284 $611 $617 $622 reversed $427 $-1 #
vertex $-1 $622 $623 #
vertex $-1 $285 $624 #
straight-curve $-1 7.8008426478424298 -40.986263352230928 33.64069368606151 0 0 -1 I I #
coedge $-1 $441 $441 $-1 $625 reversed $288 $-1 #
edge $-1 $626 0 $626 6.2831853071796004 $289 $627 forward 7 unknown #
vertex $-1 $292 $628 #
ellipse-curve $-1 12.207596701205077 -37.483417356385523 7.9221333326826091 0 -0.87461971476443456 0.48480960649040278 2 0 0 1 I I #
coedge $-1 $445 $445 $-1 $629 reversed $295 $-1 #
edge $-1 $630 0 $630 6.2831853071796004 $296 $631 forward 7 unknown #
vertex $-1 $299 $632 #
ellipse-curve $-1 18.817727781249033 -37.483417356385523 7.9221333326826091 0 -0.87461971476443456 0.48480960649040278 2 0 0 1 I I #
face $-1 $-1 $315 $45 $-1 $633 reversed single #
loop $-1 $-1 $465 $300 #
plane-surface $-1 0 40.986263352230928 0 0 -1 0 0 0 -1 forward_v I I I I #
coedge $-1 $634 $463 $466 $635 forward $301 $-1 #
coedge $-1 $469 $303 $304 $457 reversed $189 $-1 #
coedge $-1 $463 $634 $303 $455 reversed $301 $-1 #
edge $-1 $470 -14.241435022944586 $636 14.241435022944586 $454 $637 forward 7 unknown #
coedge $-1 $305 $304 $634 $638 forward $121 $-1 #
edge $-1 $461 -67.736442152165296 $636 67.736442152165296 $453 $639 forward 7 unknown #
coedge $-1 $466 $465 $305 $459 reversed $450 $-1 #
edge $-1 $640 -67.736442152165296 $460 67.736442152165296 $458 $641 forward 7 unknown #
vertex $-1 $307 $642 #
vertex $-1 $472 $643 #
straight-curve $-1 67.736442152165296 0 -14.241435022944586 0 -1 0 I I #
coedge $-1 $452 $454 $308 $464 reversed $301 $-1 #
edge $-1 $467 -40.986263352230928 $470 40.986263352230928 $463 $644 forward 7 unknown #
coedge $-1 $458 $309 $314 $473 forward $450 $-1 #
coedge $-1 $309 $458 $452 $635 reversed $450 $-1 #
vertex $-1 $310 $645 #
straight-curve $-1 0 40.986263352230928 14.241435022944586 -1 0 0 I I #
coedge $-1 $311 $453 $313 $472 reversed $189 $-1 #
vertex $-1 $464 $646 #
straight-curve $-1 0 -40.986263352230928 14.241435022944586 1 0 0 I I #
edge $-1 $316 -14.241435022944586 $461 14.241435022944586 $313 $647 forward 7 unknown #
edge $-1 $317 -14.241435022944586 $460 14.241435022944586 $314 $648 forward 7 unknown #
point $-1 67.736442152165296 -40.986263352230928 14.241435022944586 #
point $-1 67.736442152165296 40.986263352230928 14.241435022944586 #
face $-1 $-1 $493 $46 $-1 $649 reversed single #
loop $-1 $-1 $650 $319 #
plane-surface $-1 -67.736442152165296 0 0 1 0 0 0 0 -1 forward_v I I I I #
coedge $-1 $480 $496 $323 $483 forward $320 $-1 #
coedge $-1 $330 $479 $322 $481 forward $320 $-1 #
edge $-1 $487 -1.418529766609228 $333 4.6317439960300879 $480 $651 forward 7 unknown #
coedge $-1 $324 $323 $650 $652 reversed $125 $-1 #
edge $-1 $653 -37.923620405906561 $487 -21.702023086610907 $479 $654 forward 7 unknown #
coedge $-1 $492 $491 $324 $485 forward $493 $-1 #
edge $-1 $486 21.702023086610907 $655 37.923620405906561 $484 $656 forward 7 unknown #
vertex $-1 $485 $657 #
vertex $-1 $483 $658 #
straight-curve $-1 -51.514844832869642 0 0.18807734810120191 0 -1 0 I I #
coedge $-1 $659 $660 $327 $490 forward $477 $-1 #
edge $-1 $497 -40.986263352230928 $494 40.986263352230928 $489 $661 forward 7 unknown #
coedge $-1 $484 $328 $332 $499 forward $493 $-1 #
coedge $-1 $328 $484 $659 $662 reversed $493 $-1 #
loop $-1 $-1 $484 $476 #
vertex $-1 $662 $663 #
straight-curve $-1 -29.812821746258734 40.986263352230928 6.2383511107405178 1 0 0 I I #
coedge $-1 $479 $330 $660 $664 forward $320 $-1 #
vertex $-1 $664 $665 #
straight-curve $-1 -29.812821746258734 -40.986263352230928 6.2383511107405178 -1 0 0 I I #
edge $-1 $334 -4.6317439960300879 $486 1.418529766609228 $491 $666 forward 7 unknown #
point $-1 -51.514844832869642 -40.986263352230928 6.2383511107405178 #
point $-1 -51.514844832869642 40.986263352230928 6.2383511107405178 #
face $-1 $-1 $351 $47 $-1 $667 reversed single #
loop $-1 $-1 $345 $336 #
plane-surface $-1 0 40.986263352230928 0 0 -1 0 0 0 -1 forward_v I I I I #
coedge $-1 $668 $339 $509 $669 reversed $205 $-1 #
coedge $-1 $339 $668 $344 $517 reversed $205 $-1 #
coedge $-1 $345 $512 $339 $508 forward $503 $-1 #
edge $-1 $670 -1.418529766609228 $519 4.6317439960300879 $507 $671 forward 7 unknown #
coedge $-1 $341 $340 $505 $669 forward $129 $-1 #
coedge $-1 $522 $521 $340 $511 forward $337 $-1 #
edge $-1 $672 21.702023086610907 $514 37.923620405906561 $510 $673 forward 7 unknown #
coedge $-1 $507 $518 $341 $513 forward $503 $-1 #
edge $-1 $515 -37.923620405906561 $670 -21.702023086610907 $512 $674 forward 7 unknown #
vertex $-1 $343 $675 #
vertex $-1 $343 $676 #
straight-curve $-1 67.736442152165296 0 0.18807734810120191 0 1 0 I I #
edge $-1 $519 -40.986263352230928 $523 40.986263352230928 $506 $677 forward 7 unknown #
coedge $-1 $512 $345 $350 $526 forward $503 $-1 #
vertex $-1 $346 $678 #
straight-curve $-1 29.812821746258734 40.986263352230928 6.2383511107405178 1 0 0 I I #
coedge $-1 $510 $347 $668 $679 forward $337 $-1 #
coedge $-1 $347 $510 $349 $525 reversed $337 $-1 #
vertex $-1 $348 $680 #
straight-curve $-1 29.812821746258734 -40.986263352230928 6.2383511107405178 -1 0 0 I I #
edge $-1 $353 -6.2383511107405178 $514 -0.18807734810120191 $349 $681 forward 7 unknown #
edge $-1 $352 -6.2383511107405178 $515 -0.18807734810120191 $350 $682 forward 7 unknown #
point $-1 67.736442152165296 40.986263352230928 6.2383511107405178 #
point $-1 67.736442152165296 -40.986263352230928 6.2383511107405178 #
loop $-1 $-1 $363 $355 #
plane-surface $-1 0 0 14.241435022944586 0 0 1 1 0 0 forward_v I I I I #
coedge $-1 $532 $358 $360 $536 reversed $213 $-1 #
coedge $-1 $358 $531 $683 $684 reversed $213 $-1 #
coedge $-1 $366 $361 $358 $534 forward $356 $-1 #
edge $-1 $537 -67.885256006029081 $685 -55.246652625505135 $533 $686 forward 7 unknown #
coedge $-1 $360 $359 $540 $687 reversed $133 $-1 #
edge $-1 $688 67.522128243082619 $537 81.972526704461856 $531 $689 forward 7 unknown #
vertex $-1 $362 $690 #
straight-curve $-1 -7.7563311206135168 40.986263352230928 1.6028316424206324 -1 0 0 I I #
coedge $-1 $683 $363 $366 $544 forward $529 $-1 #
coedge $-1 $363 $683 $535 $687 forward $529 $-1 #
vertex $-1 $364 $691 #
straight-curve $-1 -7.8008426478424155 59.866225183092808 14.241435022944586 0 1 0 I I #
straight-curve $-1 -7.8008426478424155 1.2451949376167448 73.29761956719706 0 -0.48480960649040278 0.87461971476443456 I I #
edge $-1 $367 7.8008426478424155 $685 23.224481834611652 $366 $692 forward 7 unknown #
point $-1 -7.8008426478424155 40.986263352230928 14.241435022944586 #
point $-1 -7.8008426478424155 40.986263352230928 1.6028316424206395 #
edge $-1 $693 1 $693 0 $370 $-1 forward 7 unknown #
vertex $-1 $371 $694 #
ellipse-curve $-1 -18.817727781249012 35.072908087885317 6.5859662761032656 0 0.87461971476443456 0.48480960649040278 2 0 0 1 I I #
point $-1 -16.817727781249012 37.48341735638553 7.9221333326826073 #
edge $-1 $695 1 $695 0 $374 $-1 forward 7 unknown #
vertex $-1 $375 $696 #
ellipse-curve $-1 -12.207596701205048 35.072908087885317 6.5859662761032656 0 0.87461971476443456 0.48480960649040278 2 0 0 1 I I #
point $-1 -10.207596701205048 37.48341735638553 7.9221333326826073 #
plane-surface $-1 0 40.986263352230928 0 0 -1 0 0 0 -1 forward_v I I I I #
coedge $-1 $566 $565 $558 $697 forward $379 $-1 #
coedge $-1 $558 $381 $383 $562 reversed $235 $-1 #
coedge $-1 $381 $557 $556 $697 reversed $235 $-1 #
coedge $-1 $389 $384 $381 $560 forward $390 $-1 #
edge $-1 $563 -67.885256006029081 $698 -55.246652625505135 $559 $699 forward 7 unknown #
coedge $-1 $383 $382 $566 $700 reversed $147 $-1 #
edge $-1 $701 67.522128243082619 $563 81.972526704461856 $557 $702 forward 7 unknown #
vertex $-1 $385 $703 #
straight-curve $-1 7.7563311206135239 40.986263352230928 1.6028316424206324 -1 0 0 I I #
coedge $-1 $556 $386 $389 $570 forward $379 $-1 #
coedge $-1 $386 $556 $561 $700 forward $379 $-1 #
vertex $-1 $387 $704 #
straight-curve $-1 23.224481834611666 59.866225183092808 14.241435022944586 0 1 0 I I #
straight-curve $-1 23.224481834611666 1.2451949376167448 73.29761956719706 0 -0.48480960649040278 0.87461971476443456 I I #
edge $-1 $391 -23.224481834611666 $698 -7.8008426478424298 $389 $705 forward 7 unknown #
point $-1 23.224481834611666 40.986263352230928 14.241435022944586 #
point $-1 23.224481834611666 40.986263352230928 1.6028316424206395 #
edge $-1 $706 1 $706 0 $394 $-1 forward 7 unknown #
vertex $-1 $395 $707 #
ellipse-curve $-1 12.207596701205077 35.072908087885317 6.5859662761032656 0 0.87461971476443456 0.48480960649040278 2 0 0 1 I I #
point $-1 14.207596701205077 37.48341735638553 7.9221333326826073 #
edge $-1 $708 1 $708 0 $398 $-1 forward 7 unknown #
vertex $-1 $399 $709 #
ellipse-curve $-1 18.817727781249033 35.072908087885317 6.5859662761032656 0 0.87461971476443456 0.48480960649040278 2 0 0 1 I I #
point $-1 20.817727781249033 37.48341735638553 7.9221333326826073 #
plane-surface $-1 0 -40.986263352230928 0 0 1 0 0 0 1 forward_v I I I I #
coedge $-1 $592 $591 $584 $710 forward $403 $-1 #
coedge $-1 $584 $405 $407 $588 reversed $257 $-1 #
coedge $-1 $405 $583 $582 $710 reversed $257 $-1 #
coedge $-1 $413 $408 $405 $586 forward $414 $-1 #
edge $-1 $589 -32.037862043640885 $711 -19.399258663116925 $585 $712 forward 7 unknown #
coedge $-1 $407 $406 $592 $713 reversed $161 $-1 #
edge $-1 $714 -14.450398461379255 $589 1.4708645604606407e-014 $583 $715 forward 7 unknown #
vertex $-1 $409 $716 #
straight-curve $-1 -7.7563311206135168 -40.986263352230928 1.6028316424206168 1 0 0 I I #
coedge $-1 $582 $410 $413 $596 forward $403 $-1 #
coedge $-1 $410 $582 $587 $713 forward $403 $-1 #
vertex $-1 $411 $717 #
straight-curve $-1 -23.224481834611652 -79.736759390399897 14.241435022944586 0 -1 0 I I #
straight-curve $-1 -23.224481834611652 -40.986263352230921 1.6028316424206395 0 0.48480960649040278 0.87461971476443456 I I #
edge $-1 $415 -23.224481834611652 $711 -7.8008426478424155 $413 $718 forward 7 unknown #
point $-1 -23.224481834611652 -40.986263352230928 14.241435022944586 #
point $-1 -23.224481834611652 -40.986263352230928 1.6028316424206266 #
edge $-1 $719 1 $719 0 $418 $-1 forward 7 unknown #
vertex $-1 $419 $720 #
ellipse-curve $-1 -18.817727781249012 -35.072908087885317 6.5859662761032727 0 -0.87461971476443456 0.48480960649040278 2 0 0 1 I I #
point $-1 -16.817727781249012 -37.48341735638553 7.9221333326826144 #
edge $-1 $721 1 $721 0 $422 $-1 forward 7 unknown #
vertex $-1 $423 $722 #
ellipse-curve $-1 -12.207596701205048 -35.072908087885317 6.5859662761032727 0 -0.87461971476443456 0.48480960649040278 2 0 0 1 I I #
point $-1 -10.207596701205048 -37.48341735638553 7.9221333326826144 #
loop $-1 $-1 $434 $426 #
plane-surface $-1 0 0 14.241435022944586 0 0 1 1 0 0 forward_v I I I I #
coedge $-1 $610 $429 $431 $614 reversed $279 $-1 #
coedge $-1 $429 $609 $723 $724 reversed $279 $-1 #
coedge $-1 $437 $432 $429 $612 forward $427 $-1 #
edge $-1 $615 -32.037862043640885 $725 -19.399258663116925 $611 $726 forward 7 unknown #
coedge $-1 $431 $430 $618 $727 reversed $175 $-1 #
edge $-1 $728 -14.450398461379255 $615 1.4708645604606407e-014 $609 $729 forward 7 unknown #
vertex $-1 $433 $730 #
straight-curve $-1 7.7563311206135239 -40.986263352230928 1.6028316424206168 1 0 0 I I #
coedge $-1 $723 $434 $437 $622 forward $607 $-1 #
coedge $-1 $434 $723 $613 $727 forward $607 $-1 #
vertex $-1 $435 $731 #
straight-curve $-1 7.8008426478424298 -79.736759390399897 14.241435022944586 0 -1 0 I I #
straight-curve $-1 7.8008426478424298 -40.986263352230921 1.6028316424206395 0 0.48480960649040278 0.87461971476443456 I I #
edge $-1 $438 7.8008426478424298 $725 23.224481834611666 $437 $732 forward 7 unknown #
point $-1 7.8008426478424298 -40.986263352230928 14.241435022944586 #
point $-1 7.8008426478424298 -40.986263352230928 1.6028316424206266 #
edge $-1 $733 1 $733 0 $441 $-1 forward 7 unknown #
vertex $-1 $442 $734 #
ellipse-curve $-1 12.207596701205077 -35.072908087885317 6.5859662761032727 0 -0.87461971476443456 0.48480960649040278 2 0 0 1 I I #
point $-1 14.207596701205077 -37.48341735638553 7.9221333326826144 #
edge $-1 $735 1 $735 0 $445 $-1 forward 7 unknown #
vertex $-1 $446 $736 #
ellipse-curve $-1 18.817727781249033 -35.072908087885317 6.5859662761032727 0 -0.87461971476443456 0.48480960649040278 2 0 0 1 I I #
point $-1 20.817727781249033 -37.48341735638553 7.9221333326826144 #
plane-surface $-1 67.736442152165296 0 0 -1 0 0 0 0 1 forward_v I I I I #
coedge $-1 $454 $452 $456 $638 reversed $301 $-1 #
edge $-1 $467 -14.241435022944586 $640 14.241435022944586 $466 $737 forward 7 unknown #
vertex $-1 $638 $738 #
straight-curve $-1 -67.736442152165296 -40.986263352230928 0 0 0 -1 I I #
edge $-1 $636 -40.986263352230928 $640 40.986263352230928 $634 $739 forward 7 unknown #
straight-curve $-1 0 -40.986263352230928 -14.241435022944586 -1 0 0 I I #
vertex $-1 $459 $740 #
straight-curve $-1 0 40.986263352230928 -14.241435022944586 1 0 0 I I #
point $-1 67.736442152165296 40.986263352230928 -14.241435022944586 #
point $-1 67.736442152165296 -40.986263352230928 -14.241435022944586 #
straight-curve $-1 -67.736442152165296 0 14.241435022944586 0 -1 0 I I #
point $-1 -67.736442152165296 40.986263352230928 14.241435022944586 #
point $-1 -67.736442152165296 -40.986263352230928 14.241435022944586 #
straight-curve $-1 67.736442152165296 -40.986263352230928 0 0 0 -1 I I #
straight-curve $-1 67.736442152165296 40.986263352230928 0 0 0 -1 I I #
plane-surface $-1 0 40.986263352230928 0 0 -1 0 0 0 -1 forward_v I I I I #
coedge $-1 $660 $659 $482 $652 forward $477 $-1 #
straight-curve $-1 -51.514844832869642 -40.986263352230928 1.6066071147104299 0 0 1 I I #
edge $-1 $655 -40.986263352230928 $653 40.986263352230928 $650 $741 forward 7 unknown #
vertex $-1 $483 $742 #
straight-curve $-1 -29.812821746258734 -40.986263352230928 0.18807734810120191 1 0 0 I I #
vertex $-1 $485 $743 #
straight-curve $-1 -29.812821746258734 40.986263352230928 0.18807734810120191 -1 0 0 I I #
point $-1 -51.514844832869642 40.986263352230928 0.18807734810120191 #
point $-1 -51.514844832869642 -40.986263352230928 0.18807734810120191 #
coedge $-1 $650 $489 $492 $662 forward $477 $-1 #
coedge $-1 $489 $650 $496 $664 reversed $477 $-1 #
straight-curve $-1 -67.736442152165296 0 6.2383511107405178 0 1 0 I I #
edge $-1 $494 -6.2383511107405178 $655 -0.18807734810120191 $492 $744 forward 7 unknown #
point $-1 -67.736442152165296 40.986263352230928 6.2383511107405178 #
edge $-1 $497 -6.2383511107405178 $653 -0.18807734810120191 $660 $745 forward 7 unknown #
point $-1 -67.736442152165296 -40.986263352230928 6.2383511107405178 #
straight-curve $-1 -51.514844832869642 40.986263352230928 1.6066071147104299 0 0 -1 I I #
plane-surface $-1 67.736442152165296 0 0 -1 0 0 0 0 1 forward_v I I I I #
coedge $-1 $506 $505 $521 $679 reversed $205 $-1 #
edge $-1 $672 -40.986263352230928 $670 40.986263352230928 $505 $746 forward 7 unknown #
vertex $-1 $513 $747 #
straight-curve $-1 51.514844832869642 40.986263352230928 1.6066071147104299 0 0 1 I I #
vertex $-1 $511 $748 #
straight-curve $-1 29.812821746258734 -40.986263352230928 0.18807734810120191 1 0 0 I I #
straight-curve $-1 29.812821746258734 40.986263352230928 0.18807734810120191 -1 0 0 I I #
point $-1 67.736442152165296 -40.986263352230928 0.18807734810120191 #
point $-1 67.736442152165296 40.986263352230928 0.18807734810120191 #
straight-curve $-1 51.514844832869642 0 6.2383511107405178 0 -1 0 I I #
point $-1 51.514844832869642 40.986263352230928 6.2383511107405178 #
edge $-1 $523 -4.6317439960300879 $672 1.418529766609228 $521 $749 forward 7 unknown #
point $-1 51.514844832869642 -40.986263352230928 6.2383511107405178 #
straight-curve $-1 67.736442152165296 -40.986263352230928 0 0 0 -1 I I #
straight-curve $-1 67.736442152165296 40.986263352230928 0 0 0 -1 I I #
coedge $-1 $540 $539 $532 $684 forward $529 $-1 #
edge $-1 $685 18.87996183086188 $688 25.885653822552676 $683 $750 forward 7 unknown #
vertex $-1 $684 $751 #
straight-curve $-1 -23.224481834611652 40.986263352230928 69.488087648449721 0 0 1 I I #
edge $-1 $688 -15.468150713998135 $541 -0.044511527228898728 $540 $752 forward 7 unknown #
vertex $-1 $687 $753 #
straight-curve $-1 -23.224481834611652 1.2451949376167448 73.29761956719706 0 0.48480960649040278 -0.87461971476443456 I I #
point $-1 -23.224481834611652 40.986263352230928 1.6028316424206395 #
point $-1 -7.8008426478424155 33.980571360540132 14.241435022944579 #
straight-curve $-1 0 40.986263352230928 14.241435022944586 -1 0 0 I I #
vertex $-1 $547 $754 #
point $-1 -16.817727781249012 35.072908087885317 6.5859662761032656 #
vertex $-1 $551 $755 #
point $-1 -10.207596701205048 35.072908087885317 6.5859662761032656 #
edge $-1 $698 18.87996183086188 $701 25.885653822552676 $556 $756 forward 7 unknown #
vertex $-1 $697 $757 #
straight-curve $-1 7.8008426478424298 40.986263352230928 69.488087648449721 0 0 1 I I #
edge $-1 $701 0.044511527228905834 $567 15.468150713998142 $566 $758 forward 7 unknown #
vertex $-1 $700 $759 #
straight-curve $-1 7.8008426478424298 1.2451949376167448 73.29761956719706 0 0.48480960649040278 -0.87461971476443456 I I #
point $-1 7.8008426478424298 40.986263352230928 1.6028316424206395 #
point $-1 23.224481834611666 33.980571360540132 14.241435022944579 #
straight-curve $-1 0 40.986263352230928 14.241435022944586 -1 0 0 I I #
vertex $-1 $573 $760 #
point $-1 14.207596701205077 35.072908087885317 6.5859662761032656 #
vertex $-1 $577 $761 #
point $-1 20.817727781249033 35.072908087885317 6.5859662761032656 #
edge $-1 $711 38.750496038168968 $714 45.756188029859771 $582 $762 forward 7 unknown #
vertex $-1 $586 $763 #
straight-curve $-1 -7.8008426478424155 -40.986263352230928 33.64069368606151 0 0 1 I I #
edge $-1 $714 0.044511527228898728 $593 15.468150713998135 $592 $764 forward 7 unknown #
vertex $-1 $713 $765 #
straight-curve $-1 -7.8008426478424155 -40.986263352230921 1.6028316424206395 0 -0.48480960649040278 -0.87461971476443456 I I #
point $-1 -7.8008426478424155 -40.986263352230928 1.6028316424206266 #
point $-1 -23.224481834611652 -33.980571360540125 14.241435022944586 #
straight-curve $-1 0 -40.986263352230928 14.241435022944586 1 0 0 I I #
vertex $-1 $599 $766 #
point $-1 -16.817727781249012 -35.072908087885317 6.5859662761032727 #
vertex $-1 $603 $767 #
point $-1 -10.207596701205048 -35.072908087885317 6.5859662761032727 #
coedge $-1 $618 $617 $610 $724 forward $607 $-1 #
edge $-1 $725 38.750496038168968 $728 45.756188029859771 $723 $768 forward 7 unknown #
vertex $-1 $724 $769 #
straight-curve $-1 23.224481834611666 -40.986263352230928 33.64069368606151 0 0 1 I I #
edge $-1 $728 -15.468150713998142 $619 -0.044511527228905834 $618 $770 forward 7 unknown #
vertex $-1 $727 $771 #
straight-curve $-1 23.224481834611666 -40.986263352230921 1.6028316424206395 0 -0.48480960649040278 -0.87461971476443456 I I #
point $-1 23.224481834611666 -40.986263352230928 1.6028316424206266 #
point $-1 7.8008426478424298 -33.980571360540125 14.241435022944586 #
straight-curve $-1 0 -40.986263352230928 14.241435022944586 1 0 0 I I #
vertex $-1 $625 $772 #
point $-1 14.207596701205077 -35.072908087885317 6.5859662761032727 #
vertex $-1 $629 $773 #
point $-1 20.817727781249033 -35.072908087885317 6.5859662761032727 #
straight-curve $-1 -67.736442152165296 40.986263352230928 0 0 0 -1 I I #
point $-1 -67.736442152165296 -40.986263352230928 -14.241435022944586 #
straight-curve $-1 -67.736442152165296 0 -14.241435022944586 0 1 0 I I #
point $-1 -67.736442152165296 40.986263352230928 -14.241435022944586 #
straight-curve $-1 -67.736442152165296 0 0.18807734810120191 0 -1 0 I I #
point $-1 -67.736442152165296 -40.986263352230928 0.18807734810120191 #
point $-1 -67.736442152165296 40.986263352230928 0.18807734810120191 #
straight-curve $-1 -67.736442152165296 40.986263352230928 0 0 0 -1 I I #
straight-curve $-1 -67.736442152165296 -40.986263352230928 0 0 0 -1 I I #
straight-curve $-1 51.514844832869642 0 0.18807734810120191 0 1 0 I I #
point $-1 51.514844832869642 40.986263352230928 0.18807734810120191 #
point $-1 51.514844832869642 -40.986263352230928 0.18807734810120191 #
straight-curve $-1 51.514844832869642 -40.986263352230928 1.6066071147104299 0 0 -1 I I #
straight-curve $-1 -23.224481834611652 59.866225183092808 14.241435022944586 0 -1 0 I I #
point $-1 -23.224481834611652 40.986263352230928 14.241435022944586 #
straight-curve $-1 -7.7563311206135168 33.980571360540132 14.241435022944586 1 0 0 I I #
point $-1 -23.224481834611652 33.980571360540132 14.241435022944579 #
point $-1 -18.817727781249012 33.323668658356446 5.6163470631224595 #
point $-1 -12.207596701205048 33.323668658356446 5.6163470631224595 #
straight-curve $-1 7.8008426478424298 59.866225183092808 14.241435022944586 0 -1 0 I I #
point $-1 7.8008426478424298 40.986263352230928 14.241435022944586 #
straight-curve $-1 7.7563311206135239 33.980571360540132 14.241435022944586 1 0 0 I I #
point $-1 7.8008426478424298 33.980571360540132 14.241435022944579 #
point $-1 12.207596701205077 33.323668658356446 5.6163470631224595 #
point $-1 18.817727781249033 33.323668658356446 5.6163470631224595 #
straight-curve $-1 -7.8008426478424155 -79.736759390399897 14.241435022944586 0 1 0 I I #
point $-1 -7.8008426478424155 -40.986263352230928 14.241435022944586 #
straight-curve $-1 -7.7563311206135168 -33.980571360540125 14.241435022944586 -1 0 0 I I #
point $-1 -7.8008426478424155 -33.980571360540125 14.241435022944586 #
point $-1 -18.817727781249012 -33.323668658356446 5.6163470631224666 #
point $-1 -12.207596701205048 -33.323668658356446 5.6163470631224666 #
straight-curve $-1 23.224481834611666 -79.736759390399897 14.241435022944586 0 1 0 I I #
point $-1 23.224481834611666 -40.986263352230928 14.241435022944586 #
straight-curve $-1 7.7563311206135239 -33.980571360540125 14.241435022944586 -1 0 0 I I #
point $-1 23.224481834611666 -33.980571360540125 14.241435022944586 #
point $-1 12.207596701205077 -33.323668658356446 5.6163470631224666 #
point $-1 18.817727781249033 -33.323668658356446 5.6163470631224666 #
End-of-ACIS-data 