500 0 9 0           
7 Unknown 11 ACIS 5.0 NT 24 Thu Mar 25 23:28:24 1999 
-1 9.9999999999999995e-007 1e-010 
body $-1 $9 $-1 $10 #
body $-1 $11 $-1 $12 #
body $-1 $13 $-1 $14 #
body $-1 $15 $-1 $16 #
body $-1 $17 $-1 $18 #
body $-1 $19 $-1 $20 #
body $-1 $21 $-1 $22 #
body $-1 $23 $-1 $24 #
body $-1 $25 $-1 $26 #
lump $-1 $-1 $27 $0 #
transform $-1 1 0 0 0 1 0 0 0 1 73.077181310464795 43.206908539637119 18.353343238338791 1 rotate no_reflect no_shear #
lump $-1 $-1 $28 $1 #
transform $-1 1 0 0 0 1 0 0 0 1 73.077181310464795 43.206908539637119 18.353343238338791 1 rotate no_reflect no_shear #
lump $-1 $-1 $29 $2 #
transform $-1 1 0 0 0 1 0 0 0 1 73.077181310464795 43.206908539637119 18.353343238338791 1 rotate no_reflect no_shear #
lump $-1 $-1 $30 $3 #
transform $-1 1 0 0 0 1 0 0 0 1 73.077181310464795 43.206908539637119 18.353343238338791 1 rotate no_reflect no_shear #
lump $-1 $-1 $31 $4 #
transform $-1 1 0 0 0 1 0 0 0 1 73.077181310464795 43.206908539637119 18.353343238338791 1 rotate no_reflect no_shear #
lump $-1 $-1 $32 $5 #
transform $-1 1 0 0 0 1 0 0 0 1 73.077181310464795 43.206908539637119 18.353343238338791 1 rotate no_reflect no_shear #
lump $-1 $-1 $33 $6 #
transform $-1 1 0 0 0 1 0 0 0 1 73.077181310464795 43.206908539637119 18.353343238338791 1 rotate no_reflect no_shear #
lump $-1 $-1 $34 $7 #
transform $-1 1 0 0 0 1 0 0 0 1 73.077181310464795 43.206908539637119 18.353343238338791 1 rotate no_reflect no_shear #
lump $-1 $-1 $35 $8 #
transform $-1 1 0 0 0 1 0 0 0 1 73.077181310464795 43.206908539637119 18.353343238338791 1 rotate no_reflect no_shear #
shell $-1 $-1 $-1 $36 $-1 $9 #
shell $-1 $-1 $-1 $37 $-1 $11 #
shell $-1 $-1 $-1 $38 $-1 $13 #
shell $-1 $-1 $-1 $39 $-1 $15 #
shell $-1 $-1 $-1 $40 $-1 $17 #
shell $-1 $-1 $-1 $41 $-1 $19 #
shell $-1 $-1 $-1 $42 $-1 $21 #
shell $-1 $-1 $-1 $43 $-1 $23 #
shell $-1 $-1 $-1 $44 $-1 $25 #
face $-1 $45 $46 $27 $-1 $47 forward single #
face $-1 $48 $49 $28 $-1 $50 reversed single #
face $-1 $51 $52 $29 $-1 $53 reversed single #
face $-1 $54 $55 $30 $-1 $56 reversed single #
face $-1 $57 $58 $31 $-1 $59 forward single #
face $-1 $60 $61 $32 $-1 $62 forward single #
face $-1 $63 $64 $33 $-1 $65 reversed single #
face $-1 $66 $67 $34 $-1 $68 forward single #
face $-1 $69 $70 $35 $-1 $71 forward single #
face $-1 $72 $73 $27 $-1 $74 reversed single #
loop $-1 $-1 $75 $36 #
plane-surface $-1 0 0 18.353343238338791 0 0 1 1 0 0 forward_v I I I I #
face $-1 $76 $77 $28 $-1 $78 reversed single #
loop $-1 $-1 $79 $37 #
plane-surface $-1 -46.550167391000777 -33.951305277987586 0 1 0 0 0 0 -1 forward_v I I I I #
face $-1 $80 $81 $29 $-1 $82 reversed single #
loop $-1 $-1 $83 $38 #
plane-surface $-1 -41.460331112393995 24.695702016338046 0 0 1 0 0 0 1 forward_v I I I I #
face $-1 $84 $85 $30 $-1 $86 reversed single #
loop $-1 $-1 $87 $39 #
plane-surface $-1 33.638207472455363 12.057724369833128 204.19479225110544 0 -1 0 -0.55919291073839883 0 -0.82903756765294845 forward_v I I I I #
face $-1 $88 $89 $31 $-1 $90 forward single #
loop $-1 $91 $92 $40 #
cone-surface $-1 59.955651723765733 5.3326679634833667 9.1154051917195122 -0.55919291073839883 0 -0.82903756765294845 0.82903756765294845 0 -0.55919291073839883 1 I I 0 1 1 forward I I I I #
face $-1 $93 $94 $32 $-1 $95 forward single #
loop $-1 $96 $97 $41 #
cone-surface $-1 59.955651723765733 9.3677018072932228 9.1154051917195122 -0.55919291073839883 0 -0.82903756765294845 0.82903756765294845 0 -0.55919291073839883 1 I I 0 1 1 forward I I I I #
face $-1 $98 $99 $33 $-1 $100 reversed single #
loop $-1 $-1 $101 $42 #
plane-surface $-1 -163.0587929553617 16.854826181007958 126.47477775953195 0 1 0 -0.61566148304635926 0 0.78801074757464917 forward_v I I I I #
face $-1 $102 $103 $34 $-1 $104 forward single #
loop $-1 $105 $106 $43 #
cone-surface $-1 -67.87223383931962 19.095076419673696 13.94107536580734 0.61566148304635926 0 -0.78801074757464917 0.78801074757464917 0 0.61566148304635926 1 I I 0 1 1 forward I I I I #
face $-1 $107 $108 $35 $-1 $109 forward single #
loop $-1 $110 $111 $44 #
cone-surface $-1 -67.87223383931962 22.455451777672302 13.94107536580734 0.61566148304635926 0 -0.78801074757464917 0.78801074757464917 0 0.61566148304635926 1 I I 0 1 1 forward I I I I #
face $-1 $112 $113 $27 $-1 $114 reversed single #
loop $-1 $-1 $115 $45 #
plane-surface $-1 0 0 -18.353343238338791 0 0 1 1 0 0 forward_v I I I I #
coedge $-1 $116 $117 $118 $119 forward $46 $-1 #
face $-1 $120 $121 $28 $-1 $122 reversed single #
loop $-1 $-1 $123 $48 #
plane-surface $-1 -41.460331112393995 -24.695702016338053 0 0 -1 0 0 0 -1 forward_v I I I I #
coedge $-1 $124 $125 $126 $127 forward $49 $-1 #
face $-1 $128 $129 $29 $-1 $130 reversed single #
loop $-1 $-1 $131 $51 #
plane-surface $-1 -46.550167391000777 33.951305277987579 0 1 0 0 0 0 -1 forward_v I I I I #
coedge $-1 $132 $133 $134 $135 forward $52 $-1 #
face $-1 $136 $137 $30 $-1 $138 reversed single #
loop $-1 $-1 $139 $54 #
plane-surface $-1 -48.090275978657687 7.3501848853882947 83.027334961982959 0.55919291073839883 0 0.82903756765294845 0.82903756765294845 0 -0.55919291073839883 forward_v I I I I #
coedge $-1 $140 $141 $142 $143 reversed $55 $-1 #
face $-1 $-1 $144 $31 $-1 $145 forward single #
loop $-1 $146 $147 $57 #
cone-surface $-1 59.196687329122682 5.3326679634833667 7.9901942250081994 -0.55919291073839883 0 -0.82903756765294845 0.41451878382647422 0 -0.27959645536919941 1 I I -0.70710678118654746 0.70710678118654746 0.5 forward I I I I #
loop $-1 $-1 $148 $40 #
coedge $-1 $92 $92 $149 $150 reversed $58 $-1 #
face $-1 $-1 $151 $32 $-1 $152 forward single #
loop $-1 $153 $154 $60 #
cone-surface $-1 59.196687329122682 9.3677018072932228 7.9901942250081994 -0.55919291073839883 0 -0.82903756765294845 0.41451878382647422 0 -0.27959645536919941 1 I I -0.70710678118654746 0.70710678118654746 0.5 forward I I I I #
loop $-1 $-1 $155 $41 #
coedge $-1 $97 $97 $156 $157 reversed $61 $-1 #
face $-1 $158 $159 $33 $-1 $160 reversed single #
loop $-1 $-1 $161 $63 #
plane-surface $-1 -73.077181310464809 20.775264098673006 11.303569209316862 -0.61566148304635926 0 0.78801074757464917 0.78801074757464917 0 0.61566148304635926 forward_v I I I I #
coedge $-1 $162 $163 $164 $165 reversed $64 $-1 #
face $-1 $-1 $166 $34 $-1 $167 forward single #
loop $-1 $168 $169 $66 #
cone-surface $-1 -66.871105174186482 19.095076419673696 12.659689133999539 0.61566148304635926 0 -0.78801074757464917 0.39400537378732459 0 0.30783074152317963 1 I I -0.70710678118654746 0.70710678118654746 0.5 forward I I I I #
loop $-1 $-1 $170 $43 #
coedge $-1 $106 $106 $171 $172 reversed $67 $-1 #
face $-1 $-1 $173 $35 $-1 $174 forward single #
loop $-1 $175 $176 $69 #
cone-surface $-1 -66.871105174186482 22.455451777672302 12.659689133999539 0.61566148304635926 0 -0.78801074757464917 0.39400537378732459 0 0.30783074152317963 1 I I -0.70710678118654746 0.70710678118654746 0.5 forward I I I I #
loop $-1 $-1 $177 $44 #
coedge $-1 $111 $111 $178 $179 reversed $70 $-1 #
face $-1 $180 $181 $27 $-1 $182 reversed single #
loop $-1 $-1 $183 $72 #
plane-surface $-1 0 -43.206908539637119 0 0 1 0 0 0 1 forward_v I I I I #
coedge $-1 $184 $185 $186 $187 forward $73 $-1 #
coedge $-1 $188 $75 $189 $190 forward $46 $-1 #
coedge $-1 $75 $188 $191 $192 forward $46 $-1 #
coedge $-1 $193 $194 $75 $119 reversed $195 $-1 #
edge $-1 $196 -43.206908539637119 $197 43.206908539637119 $118 $198 forward 7 unknown #
face $-1 $199 $200 $28 $-1 $201 forward single #
loop $-1 $-1 $202 $76 #
plane-surface $-1 -36.370494833787212 -33.951305277987586 0 -1 0 0 0 0 1 forward_v I I I I #
coedge $-1 $203 $204 $205 $206 forward $77 $-1 #
coedge $-1 $207 $79 $208 $209 reversed $49 $-1 #
coedge $-1 $79 $207 $210 $211 reversed $49 $-1 #
coedge $-1 $204 $203 $79 $127 reversed $77 $-1 #
edge $-1 $212 -18.353343238338791 $213 18.353343238338791 $126 $214 forward 7 unknown #
face $-1 $215 $216 $29 $-1 $217 reversed single #
loop $-1 $-1 $218 $80 #
plane-surface $-1 -36.370494833787212 33.951305277987579 0 -1 0 0 0 0 1 forward_v I I I I #
coedge $-1 $219 $220 $221 $222 reversed $81 $-1 #
coedge $-1 $223 $83 $224 $225 reversed $52 $-1 #
coedge $-1 $83 $223 $226 $227 reversed $52 $-1 #
coedge $-1 $220 $219 $83 $135 reversed $81 $-1 #
edge $-1 $228 -18.353343238338791 $229 18.353343238338791 $134 $230 forward 7 unknown #
face $-1 $231 $232 $30 $-1 $233 forward single #
loop $-1 $-1 $234 $84 #
plane-surface $-1 33.638207472455363 2.6426454009434615 204.19479225110544 0 1 0 0.55919291073839883 0 0.82903756765294845 forward_v I I I I #
coedge $-1 $235 $236 $237 $238 reversed $85 $-1 #
coedge $-1 $141 $87 $239 $240 reversed $55 $-1 #
coedge $-1 $87 $140 $235 $241 reversed $55 $-1 #
coedge $-1 $237 $242 $87 $143 forward $232 $-1 #
edge $-1 $243 -56.258077574237113 $244 -30.973754279386633 $142 $245 forward 7 unknown #
loop $-1 $-1 $149 $88 #
plane-surface $-1 -48.090275978657687 7.3501848853882947 83.027334961982959 0.55919291073839883 0 0.82903756765294845 0.82903756765294845 0 -0.55919291073839883 forward_v I I I I #
loop $-1 $-1 $246 $57 #
coedge $-1 $147 $147 $148 $247 reversed $89 $-1 #
coedge $-1 $148 $148 $147 $247 forward $91 $-1 #
coedge $-1 $149 $149 $92 $150 forward $144 $-1 #
edge $-1 $248 0 $248 6.2831853071796004 $149 $249 forward 7 unknown #
loop $-1 $-1 $156 $93 #
plane-surface $-1 -48.090275978657687 7.3501848853882947 83.027334961982959 0.55919291073839883 0 0.82903756765294845 0.82903756765294845 0 -0.55919291073839883 forward_v I I I I #
loop $-1 $-1 $250 $60 #
coedge $-1 $154 $154 $155 $251 reversed $94 $-1 #
coedge $-1 $155 $155 $154 $251 forward $96 $-1 #
coedge $-1 $156 $156 $97 $157 forward $151 $-1 #
edge $-1 $252 0 $252 6.2831853071796004 $156 $253 forward 7 unknown #
face $-1 $254 $255 $33 $-1 $256 reversed single #
loop $-1 $-1 $257 $98 #
plane-surface $-1 -163.0587929553617 24.695702016338053 126.47477775953195 0 -1 0 0.61566148304635926 0 -0.78801074757464917 forward_v I I I I #
coedge $-1 $258 $259 $260 $261 reversed $99 $-1 #
coedge $-1 $163 $101 $262 $263 reversed $64 $-1 #
coedge $-1 $101 $162 $258 $264 reversed $64 $-1 #
coedge $-1 $260 $265 $101 $165 forward $266 $-1 #
edge $-1 $267 8.4522151672160533 $268 17.475514262286438 $164 $269 forward 7 unknown #
loop $-1 $-1 $171 $102 #
plane-surface $-1 -73.077181310464809 20.775264098673006 11.303569209316862 -0.61566148304635926 0 0.78801074757464917 0.78801074757464917 0 0.61566148304635926 forward_v I I I I #
loop $-1 $-1 $270 $66 #
coedge $-1 $169 $169 $170 $271 reversed $103 $-1 #
coedge $-1 $170 $170 $169 $271 forward $105 $-1 #
coedge $-1 $171 $171 $106 $172 forward $166 $-1 #
edge $-1 $272 0 $272 6.2831853071796004 $171 $273 forward 7 unknown #
loop $-1 $-1 $178 $107 #
plane-surface $-1 -73.077181310464809 20.775264098673006 11.303569209316862 -0.61566148304635926 0 0.78801074757464917 0.78801074757464917 0 0.61566148304635926 forward_v I I I I #
loop $-1 $-1 $274 $69 #
coedge $-1 $176 $176 $177 $275 reversed $108 $-1 #
coedge $-1 $177 $177 $176 $275 forward $110 $-1 #
coedge $-1 $178 $178 $111 $179 forward $173 $-1 #
edge $-1 $276 0 $276 6.2831853071796004 $178 $277 forward 7 unknown #
face $-1 $278 $279 $27 $-1 $280 reversed single #
loop $-1 $-1 $281 $112 #
plane-surface $-1 -73.077181310464795 0 0 1 0 0 0 0 -1 forward_v I I I I #
coedge $-1 $282 $191 $283 $284 forward $113 $-1 #
coedge $-1 $285 $115 $282 $286 forward $73 $-1 #
coedge $-1 $115 $285 $287 $288 forward $73 $-1 #
coedge $-1 $194 $193 $115 $187 reversed $195 $-1 #
edge $-1 $289 -43.206908539637119 $290 43.206908539637119 $186 $291 forward 7 unknown #
coedge $-1 $117 $116 $292 $293 forward $46 $-1 #
coedge $-1 $294 $295 $116 $190 reversed $279 $-1 #
edge $-1 $197 -73.077181310464795 $296 73.077181310464795 $189 $297 forward 7 unknown #
coedge $-1 $183 $298 $117 $192 reversed $113 $-1 #
edge $-1 $299 -73.077181310464795 $196 73.077181310464795 $191 $300 forward 7 unknown #
coedge $-1 $186 $118 $298 $301 forward $195 $-1 #
coedge $-1 $118 $186 $294 $302 reversed $195 $-1 #
loop $-1 $-1 $193 $278 #
vertex $-1 $119 $303 #
vertex $-1 $119 $304 #
straight-curve $-1 73.077181310464795 0 18.353343238338791 0 1 0 I I #
face $-1 $305 $306 $28 $-1 $307 reversed single #
loop $-1 $-1 $308 $120 #
plane-surface $-1 0 0 18.353343238338791 0 0 1 1 0 0 forward_v I I I I #
coedge $-1 $309 $310 $311 $312 reversed $121 $-1 #
coedge $-1 $126 $123 $313 $314 reversed $77 $-1 #
coedge $-1 $123 $126 $315 $316 reversed $77 $-1 #
coedge $-1 $310 $309 $123 $206 reversed $121 $-1 #
edge $-1 $317 -18.353343238338791 $318 18.353343238338791 $205 $319 forward 7 unknown #
coedge $-1 $125 $124 $320 $321 reversed $49 $-1 #
coedge $-1 $313 $322 $124 $209 forward $306 $-1 #
edge $-1 $323 -26.231255900643326 $213 -7.7200493773442602 $208 $324 forward 7 unknown #
coedge $-1 $325 $315 $125 $211 forward $200 $-1 #
edge $-1 $212 7.7200493773442602 $326 26.231255900643326 $210 $327 forward 7 unknown #
vertex $-1 $211 $328 #
vertex $-1 $209 $329 #
straight-curve $-1 -46.550167391000777 -24.695702016338053 0 0 0 -1 I I #
face $-1 $330 $331 $29 $-1 $332 forward single #
loop $-1 $-1 $333 $128 #
plane-surface $-1 0 0 -18.353343238338791 0 0 1 1 0 0 forward_v I I I I #
coedge $-1 $334 $335 $223 $336 forward $129 $-1 #
coedge $-1 $134 $131 $337 $338 reversed $81 $-1 #
coedge $-1 $131 $134 $339 $340 reversed $81 $-1 #
coedge $-1 $341 $342 $131 $222 forward $343 $-1 #
edge $-1 $344 -18.353343238338791 $345 18.353343238338791 $221 $346 forward 7 unknown #
coedge $-1 $133 $132 $218 $336 reversed $52 $-1 #
coedge $-1 $337 $333 $132 $225 forward $216 $-1 #
edge $-1 $347 15.640329277590215 $229 25.820001834803779 $224 $348 forward 7 unknown #
coedge $-1 $349 $339 $133 $227 forward $331 $-1 #
edge $-1 $228 -25.820001834803779 $350 -15.640329277590215 $226 $351 forward 7 unknown #
vertex $-1 $227 $352 #
vertex $-1 $225 $353 #
straight-curve $-1 -46.550167391000777 24.695702016338046 0 0 0 -1 I I #
face $-1 $-1 $354 $30 $-1 $355 reversed single #
loop $-1 $-1 $142 $136 #
plane-surface $-1 0 0 18.353343238338791 0 0 1 1 0 0 forward_v I I I I #
coedge $-1 $356 $357 $358 $359 reversed $137 $-1 #
coedge $-1 $360 $139 $141 $241 forward $85 $-1 #
coedge $-1 $139 $360 $356 $361 forward $85 $-1 #
coedge $-1 $358 $142 $139 $238 forward $232 $-1 #
edge $-1 $244 -8.3826319271389806 $362 1.0324470417506859 $237 $363 forward 7 unknown #
coedge $-1 $364 $365 $140 $240 forward $354 $-1 #
edge $-1 $366 -100.79854461468281 $243 -83.744052887213925 $239 $367 forward 7 unknown #
edge $-1 $244 115.6559578665687 $366 146.15436262092959 $141 $368 forward 7 unknown #
coedge $-1 $142 $358 $364 $369 forward $232 $-1 #
vertex $-1 $143 $370 #
vertex $-1 $143 $371 #
straight-curve $-1 16.819103736227682 12.057724369833128 18.353343238338795 -1 0 0 I I #
coedge $-1 $246 $246 $-1 $372 reversed $146 $-1 #
edge $-1 $373 0 $373 6.2831853071796004 $147 $374 forward 7 unknown #
vertex $-1 $150 $375 #
ellipse-curve $-1 60.435019663039569 5.3326679634833667 9.8260973746043252 0.55919291073839883 0 0.82903756765294845 0.82903756765294845 0 -0.55919291073839883 1 I I #
coedge $-1 $250 $250 $-1 $376 reversed $153 $-1 #
edge $-1 $377 0 $377 6.2831853071796004 $154 $378 forward 7 unknown #
vertex $-1 $157 $379 #
ellipse-curve $-1 60.435019663039569 9.3677018072932228 9.8260973746043252 0.55919291073839883 0 0.82903756765294845 0.82903756765294845 0 -0.55919291073839883 1 I I #
face $-1 $-1 $266 $33 $-1 $380 forward single #
loop $-1 $-1 $381 $158 #
plane-surface $-1 -73.077181310464795 0 0 1 0 0 0 0 -1 forward_v I I I I #
coedge $-1 $382 $383 $384 $385 reversed $159 $-1 #
coedge $-1 $386 $161 $163 $264 forward $99 $-1 #
coedge $-1 $161 $386 $382 $387 forward $99 $-1 #
coedge $-1 $384 $164 $161 $261 forward $266 $-1 #
edge $-1 $268 6.4671941316714552 $388 14.308069967001551 $260 $389 forward 7 unknown #
coedge $-1 $390 $391 $162 $263 forward $255 $-1 #
edge $-1 $392 -51.933819670449097 $267 -44.884045641427178 $262 $393 forward 7 unknown #
edge $-1 $268 -11.450730999345428 $392 -1.7760113164789269e-014 $163 $394 forward 7 unknown #
coedge $-1 $164 $384 $390 $395 forward $266 $-1 #
loop $-1 $-1 $384 $254 #
vertex $-1 $263 $396 #
vertex $-1 $165 $397 #
straight-curve $-1 -81.529396477680848 16.854826181007958 18.353343238338795 1 0 0 I I #
coedge $-1 $270 $270 $-1 $398 reversed $168 $-1 #
edge $-1 $399 0 $399 6.2831853071796004 $169 $400 forward 7 unknown #
vertex $-1 $172 $401 #
ellipse-curve $-1 -68.565531762929595 19.095076419673696 14.828456223827835 -0.61566148304635926 0 0.78801074757464917 0.78801074757464917 0 0.61566148304635926 1 I I #
coedge $-1 $274 $274 $-1 $402 reversed $175 $-1 #
edge $-1 $403 0 $403 6.2831853071796004 $176 $404 forward 7 unknown #
vertex $-1 $179 $405 #
ellipse-curve $-1 -68.565531762929595 22.455451777672302 14.828456223827835 -0.61566148304635926 0 0.78801074757464917 0.78801074757464917 0 0.61566148304635926 1 I I #
face $-1 $-1 $195 $27 $-1 $406 reversed single #
loop $-1 $-1 $294 $180 #
plane-surface $-1 0 43.206908539637119 0 0 -1 0 0 0 -1 forward_v I I I I #
coedge $-1 $407 $292 $295 $408 forward $181 $-1 #
coedge $-1 $298 $183 $184 $286 reversed $113 $-1 #
coedge $-1 $292 $407 $183 $284 reversed $181 $-1 #
edge $-1 $299 -18.353343238338791 $409 18.353343238338791 $283 $410 forward 7 unknown #
coedge $-1 $185 $184 $407 $411 forward $73 $-1 #
edge $-1 $290 -73.077181310464795 $409 73.077181310464795 $282 $412 forward 7 unknown #
coedge $-1 $295 $294 $185 $288 reversed $279 $-1 #
edge $-1 $413 -73.077181310464795 $289 73.077181310464795 $287 $414 forward 7 unknown #
vertex $-1 $187 $415 #
vertex $-1 $301 $416 #
straight-curve $-1 73.077181310464795 0 -18.353343238338791 0 -1 0 I I #
coedge $-1 $281 $283 $188 $293 reversed $181 $-1 #
edge $-1 $296 -43.206908539637119 $299 43.206908539637119 $292 $417 forward 7 unknown #
coedge $-1 $287 $189 $194 $302 forward $279 $-1 #
coedge $-1 $189 $287 $281 $408 reversed $279 $-1 #
vertex $-1 $190 $418 #
straight-curve $-1 0 43.206908539637119 18.353343238338791 -1 0 0 I I #
coedge $-1 $191 $282 $193 $301 reversed $113 $-1 #
vertex $-1 $293 $419 #
straight-curve $-1 0 -43.206908539637119 18.353343238338791 1 0 0 I I #
edge $-1 $196 -18.353343238338791 $290 18.353343238338791 $193 $420 forward 7 unknown #
edge $-1 $197 -18.353343238338791 $289 18.353343238338791 $194 $421 forward 7 unknown #
point $-1 73.077181310464795 -43.206908539637119 18.353343238338791 #
point $-1 73.077181310464795 43.206908539637119 18.353343238338791 #
face $-1 $-1 $422 $28 $-1 $423 reversed single #
loop $-1 $-1 $424 $199 #
plane-surface $-1 0 0 -18.353343238338791 0 0 1 1 0 0 forward_v I I I I #
coedge $-1 $315 $325 $310 $425 forward $200 $-1 #
coedge $-1 $205 $202 $424 $426 reversed $121 $-1 #
coedge $-1 $202 $205 $308 $425 reversed $121 $-1 #
coedge $-1 $427 $428 $202 $312 forward $422 $-1 #
edge $-1 $429 -18.353343238338791 $430 18.353343238338791 $311 $431 forward 7 unknown #
coedge $-1 $424 $208 $203 $314 forward $306 $-1 #
edge $-1 $213 -25.820001834803779 $318 -15.640329277590215 $313 $432 forward 7 unknown #
coedge $-1 $210 $308 $204 $316 forward $200 $-1 #
edge $-1 $317 15.640329277590215 $212 25.820001834803779 $315 $433 forward 7 unknown #
vertex $-1 $316 $434 #
vertex $-1 $314 $435 #
straight-curve $-1 -36.370494833787212 -24.695702016338053 0 0 0 -1 I I #
coedge $-1 $428 $427 $207 $321 forward $422 $-1 #
edge $-1 $326 -18.353343238338791 $323 18.353343238338791 $320 $436 forward 7 unknown #
coedge $-1 $208 $424 $428 $437 forward $306 $-1 #
vertex $-1 $209 $438 #
straight-curve $-1 -46.550167391000777 -16.975652638993793 -18.353343238338791 0 1 0 I I #
coedge $-1 $308 $210 $427 $439 forward $200 $-1 #
vertex $-1 $439 $440 #
straight-curve $-1 -46.550167391000777 -16.975652638993793 18.353343238338791 0 -1 0 I I #
point $-1 -46.550167391000777 -24.695702016338053 18.353343238338791 #
point $-1 -46.550167391000777 -24.695702016338053 -18.353343238338791 #
face $-1 $-1 $343 $29 $-1 $441 reversed single #
loop $-1 $-1 $349 $215 #
plane-surface $-1 0 0 18.353343238338791 0 0 1 1 0 0 forward_v I I I I #
coedge $-1 $224 $442 $334 $443 forward $216 $-1 #
coedge $-1 $444 $218 $333 $443 reversed $129 $-1 #
coedge $-1 $218 $444 $349 $445 reversed $129 $-1 #
edge $-1 $350 -18.353343238338791 $347 18.353343238338791 $218 $446 forward 7 unknown #
coedge $-1 $442 $224 $219 $338 forward $216 $-1 #
edge $-1 $229 7.7200493773442567 $344 26.231255900643323 $337 $447 forward 7 unknown #
coedge $-1 $226 $448 $220 $340 forward $331 $-1 #
edge $-1 $345 -26.231255900643323 $228 -7.7200493773442567 $339 $449 forward 7 unknown #
coedge $-1 $450 $221 $448 $451 reversed $343 $-1 #
coedge $-1 $221 $450 $442 $452 reversed $343 $-1 #
loop $-1 $-1 $450 $330 #
vertex $-1 $452 $453 #
vertex $-1 $222 $454 #
straight-curve $-1 -46.550167391000777 43.206908539637119 0 0 0 1 I I #
vertex $-1 $225 $455 #
straight-curve $-1 -20.730165556196997 24.695702016338046 -18.353343238338791 -1 0 0 I I #
coedge $-1 $448 $226 $335 $445 forward $331 $-1 #
vertex $-1 $227 $456 #
straight-curve $-1 -20.730165556196997 24.695702016338046 18.353343238338791 1 0 0 I I #
point $-1 -46.550167391000777 24.695702016338046 18.353343238338791 #
point $-1 -46.550167391000777 24.695702016338046 -18.353343238338791 #
loop $-1 $-1 $239 $231 #
plane-surface $-1 73.077181310464795 0 0 -1 0 0 0 0 1 forward_v I I I I #
coedge $-1 $357 $234 $236 $361 reversed $137 $-1 #
coedge $-1 $234 $356 $457 $458 reversed $137 $-1 #
coedge $-1 $242 $237 $234 $359 forward $232 $-1 #
edge $-1 $362 30.973754279386633 $459 56.258077574237113 $358 $460 forward 7 unknown #
coedge $-1 $236 $235 $365 $461 reversed $85 $-1 #
edge $-1 $462 -146.15436262092959 $362 -115.6559578665687 $356 $463 forward 7 unknown #
vertex $-1 $238 $464 #
straight-curve $-1 47.792858015614314 3.6750924426941474 18.353343238338795 0 -1 0 I I #
coedge $-1 $457 $239 $242 $369 reversed $354 $-1 #
coedge $-1 $239 $457 $360 $461 forward $354 $-1 #
vertex $-1 $240 $465 #
straight-curve $-1 73.077181310464795 12.057724369833128 102.09739612555272 0 0 1 I I #
straight-curve $-1 -48.090275978657687 12.057724369833128 83.027334961982959 0.82903756765294845 0 -0.55919291073839883 I I #
edge $-1 $459 2.6426454009434615 $243 12.057724369833128 $364 $466 forward 7 unknown #
point $-1 73.077181310464795 12.057724369833128 18.353343238338791 #
point $-1 47.792858015614314 12.057724369833128 18.353343238338795 #
edge $-1 $467 1 $467 0 $246 $-1 forward 7 unknown #
vertex $-1 $247 $468 #
ellipse-curve $-1 59.476283784491883 5.3326679634833667 8.4047130088346744 0.55919291073839883 0 0.82903756765294845 0.82903756765294845 0 -0.55919291073839883 1 I I #
point $-1 61.264057230692529 5.3326679634833667 9.2669044638659521 #
edge $-1 $469 1 $469 0 $250 $-1 forward 7 unknown #
vertex $-1 $251 $470 #
ellipse-curve $-1 59.476283784491883 9.3677018072932228 8.4047130088346744 0.55919291073839883 0 0.82903756765294845 0.82903756765294845 0 -0.55919291073839883 1 I I #
point $-1 61.264057230692529 9.3677018072932228 9.2669044638659521 #
plane-surface $-1 0 0 18.353343238338791 0 0 1 1 0 0 forward_v I I I I #
coedge $-1 $391 $390 $383 $471 forward $255 $-1 #
coedge $-1 $383 $257 $259 $387 reversed $159 $-1 #
coedge $-1 $257 $382 $381 $471 reversed $159 $-1 #
coedge $-1 $265 $260 $257 $385 forward $266 $-1 #
edge $-1 $388 -17.475514262286438 $472 -8.4522151672160533 $384 $473 forward 7 unknown #
coedge $-1 $259 $258 $391 $474 reversed $99 $-1 #
edge $-1 $475 1.7760113164789269e-014 $388 11.450730999345428 $382 $476 forward 7 unknown #
vertex $-1 $261 $477 #
straight-curve $-1 -64.053882215394395 10.387632049336503 18.353343238338791 0 1 0 I I #
coedge $-1 $381 $262 $265 $395 reversed $255 $-1 #
coedge $-1 $262 $381 $386 $474 forward $255 $-1 #
vertex $-1 $263 $478 #
straight-curve $-1 -73.077181310464795 16.854826181007958 63.237388879765973 0 0 1 I I #
straight-curve $-1 -73.077181310464809 16.854826181007958 11.303569209316862 -0.78801074757464917 0 -0.61566148304635926 I I #
edge $-1 $472 -24.695702016338053 $267 -16.854826181007958 $390 $479 forward 7 unknown #
point $-1 -73.077181310464795 16.854826181007958 18.353343238338791 #
point $-1 -64.05388221539441 16.854826181007958 18.353343238338791 #
edge $-1 $480 1 $480 0 $270 $-1 forward 7 unknown #
vertex $-1 $271 $481 #
ellipse-curve $-1 -67.178935915709658 19.095076419673696 13.053694507786863 -0.61566148304635926 0 0.78801074757464917 0.78801074757464917 0 0.61566148304635926 1 I I #
point $-1 -67.777521015354935 19.095076419673696 15.444117706874177 #
edge $-1 $482 1 $482 0 $274 $-1 forward 7 unknown #
vertex $-1 $275 $483 #
ellipse-curve $-1 -67.178935915709658 22.455451777672302 13.053694507786863 -0.61566148304635926 0 0.78801074757464917 0.78801074757464917 0 0.61566148304635926 1 I I #
point $-1 -67.777521015354935 22.455451777672302 15.444117706874177 #
plane-surface $-1 73.077181310464795 0 0 -1 0 0 0 0 1 forward_v I I I I #
coedge $-1 $283 $281 $285 $411 reversed $181 $-1 #
edge $-1 $296 -18.353343238338791 $413 18.353343238338791 $295 $484 forward 7 unknown #
vertex $-1 $411 $485 #
straight-curve $-1 -73.077181310464795 -43.206908539637119 0 0 0 -1 I I #
edge $-1 $409 -43.206908539637119 $413 43.206908539637119 $407 $486 forward 7 unknown #
straight-curve $-1 0 -43.206908539637119 -18.353343238338791 -1 0 0 I I #
vertex $-1 $288 $487 #
straight-curve $-1 0 43.206908539637119 -18.353343238338791 1 0 0 I I #
point $-1 73.077181310464795 43.206908539637119 -18.353343238338791 #
point $-1 73.077181310464795 -43.206908539637119 -18.353343238338791 #
straight-curve $-1 -73.077181310464795 0 18.353343238338791 0 -1 0 I I #
point $-1 -73.077181310464795 43.206908539637119 18.353343238338791 #
point $-1 -73.077181310464795 -43.206908539637119 18.353343238338791 #
straight-curve $-1 73.077181310464795 -43.206908539637119 0 0 0 -1 I I #
straight-curve $-1 73.077181310464795 43.206908539637119 0 0 0 -1 I I #
loop $-1 $-1 $311 $305 #
plane-surface $-1 0 -43.206908539637119 0 0 1 0 0 0 1 forward_v I I I I #
coedge $-1 $322 $313 $309 $426 forward $306 $-1 #
edge $-1 $430 -26.231255900643326 $317 -7.7200493773442602 $308 $488 forward 7 unknown #
edge $-1 $318 7.7200493773442602 $429 26.231255900643326 $424 $489 forward 7 unknown #
coedge $-1 $320 $311 $325 $439 reversed $422 $-1 #
coedge $-1 $311 $320 $322 $437 reversed $422 $-1 #
vertex $-1 $437 $490 #
vertex $-1 $312 $491 #
straight-curve $-1 -36.370494833787212 -43.206908539637119 0 0 0 1 I I #
straight-curve $-1 -20.730165556196997 -24.695702016338053 -18.353343238338791 1 0 0 I I #
straight-curve $-1 -20.730165556196997 -24.695702016338053 18.353343238338791 -1 0 0 I I #
point $-1 -36.370494833787212 -24.695702016338053 18.353343238338791 #
point $-1 -36.370494833787212 -24.695702016338053 -18.353343238338791 #
straight-curve $-1 -46.550167391000777 -43.206908539637119 0 0 0 -1 I I #
edge $-1 $429 36.370494833787212 $323 46.550167391000777 $428 $492 forward 7 unknown #
point $-1 -46.550167391000777 -43.206908539637119 -18.353343238338791 #
edge $-1 $326 -46.550167391000777 $430 -36.370494833787212 $427 $493 forward 7 unknown #
point $-1 -46.550167391000777 -43.206908539637119 18.353343238338791 #
plane-surface $-1 0 43.206908539637119 0 0 -1 0 0 0 -1 forward_v I I I I #
coedge $-1 $333 $337 $342 $452 forward $216 $-1 #
edge $-1 $494 -26.231255900643323 $347 -7.7200493773442567 $333 $495 forward 7 unknown #
coedge $-1 $335 $334 $450 $496 reversed $129 $-1 #
edge $-1 $350 7.7200493773442567 $497 26.231255900643323 $349 $498 forward 7 unknown #
straight-curve $-1 -36.370494833787212 24.695702016338046 0 0 0 -1 I I #
straight-curve $-1 -46.550167391000777 16.97565263899379 -18.353343238338791 0 1 0 I I #
coedge $-1 $339 $349 $341 $451 forward $331 $-1 #
straight-curve $-1 -46.550167391000777 16.97565263899379 18.353343238338791 0 -1 0 I I #
coedge $-1 $342 $341 $444 $496 forward $343 $-1 #
edge $-1 $497 36.370494833787212 $345 46.550167391000777 $341 $499 forward 7 unknown #
edge $-1 $344 -46.550167391000777 $494 -36.370494833787212 $342 $500 forward 7 unknown #
point $-1 -46.550167391000777 43.206908539637112 -18.353343238338791 #
point $-1 -46.550167391000777 43.206908539637112 18.353343238338791 #
point $-1 -36.370494833787212 24.695702016338046 -18.353343238338791 #
point $-1 -36.370494833787212 24.695702016338046 18.353343238338791 #
coedge $-1 $365 $364 $357 $458 forward $354 $-1 #
edge $-1 $459 83.744052887213925 $462 100.79854461468281 $457 $501 forward 7 unknown #
vertex $-1 $369 $502 #
straight-curve $-1 16.819103736227682 2.6426454009434615 18.353343238338795 1 0 0 I I #
edge $-1 $462 -1.0324470417506859 $366 8.3826319271389806 $365 $503 forward 7 unknown #
vertex $-1 $461 $504 #
straight-curve $-1 -48.090275978657687 2.6426454009434615 83.027334961982959 -0.82903756765294845 0 0.55919291073839883 I I #
point $-1 47.792858015614314 2.6426454009434615 18.353343238338795 #
point $-1 73.077181310464795 12.057724369833128 1.298851510869909 #
straight-curve $-1 73.077181310464795 0 18.353343238338791 0 1 0 I I #
vertex $-1 $372 $505 #
point $-1 60.30532135214483 5.3326679634833667 7.8455200980962747 #
vertex $-1 $376 $506 #
point $-1 60.30532135214483 9.3677018072932228 7.8455200980962747 #
edge $-1 $472 44.884045641427178 $475 51.933819670449097 $381 $507 forward 7 unknown #
vertex $-1 $395 $508 #
straight-curve $-1 -81.529396477680848 24.695702016338053 18.353343238338795 -1 0 0 I I #
edge $-1 $475 -14.308069967001551 $392 -6.4671941316714552 $391 $509 forward 7 unknown #
vertex $-1 $474 $510 #
straight-curve $-1 -73.077181310464809 24.695702016338053 11.303569209316862 0.78801074757464917 0 0.61566148304635926 I I #
point $-1 -64.05388221539441 24.695702016338053 18.353343238338791 #
point $-1 -73.077181310464795 16.854826181007958 11.303569209316873 #
straight-curve $-1 -73.077181310464795 0 18.353343238338791 0 -1 0 I I #
vertex $-1 $398 $511 #
point $-1 -66.390925168135013 19.095076419673696 13.669355990833223 #
vertex $-1 $402 $512 #
point $-1 -66.390925168135013 22.455451777672302 13.669355990833223 #
straight-curve $-1 -73.077181310464795 43.206908539637119 0 0 0 -1 I I #
point $-1 -73.077181310464795 -43.206908539637119 -18.353343238338791 #
straight-curve $-1 -73.077181310464795 0 -18.353343238338791 0 1 0 I I #
point $-1 -73.077181310464795 43.206908539637119 -18.353343238338791 #
straight-curve $-1 -36.370494833787212 -16.975652638993793 18.353343238338791 0 1 0 I I #
straight-curve $-1 -36.370494833787212 -16.975652638993793 -18.353343238338791 0 -1 0 I I #
point $-1 -36.370494833787212 -43.206908539637119 -18.353343238338791 #
point $-1 -36.370494833787212 -43.206908539637119 18.353343238338791 #
straight-curve $-1 0 -43.206908539637119 -18.353343238338791 -1 0 0 I I #
straight-curve $-1 0 -43.206908539637119 18.353343238338791 1 0 0 I I #
vertex $-1 $496 $513 #
straight-curve $-1 -36.370494833787212 16.97565263899379 -18.353343238338791 0 -1 0 I I #
edge $-1 $497 -18.353343238338791 $494 18.353343238338791 $450 $514 forward 7 unknown #
vertex $-1 $451 $515 #
straight-curve $-1 -36.370494833787212 16.97565263899379 18.353343238338791 0 1 0 I I #
straight-curve $-1 0 43.206908539637119 18.353343238338791 -1 0 0 I I #
straight-curve $-1 0 43.206908539637119 -18.353343238338791 1 0 0 I I #
straight-curve $-1 73.077181310464795 2.6426454009434615 102.09739612555272 0 0 -1 I I #
point $-1 73.077181310464795 2.6426454009434615 18.353343238338791 #
straight-curve $-1 73.077181310464795 3.6750924426941474 1.2988515108698948 0 1 0 I I #
point $-1 73.077181310464795 2.6426454009434615 1.298851510869909 #
point $-1 58.91709087375348 5.3326679634833667 7.5756754411817253 #
point $-1 58.91709087375348 9.3677018072932228 7.5756754411817253 #
straight-curve $-1 -73.077181310464795 24.695702016338053 63.237388879765973 0 0 -1 I I #
point $-1 -73.077181310464795 24.695702016338053 18.353343238338791 #
straight-curve $-1 -73.077181310464795 10.387632049336503 11.303569209316873 0 -1 0 I I #
point $-1 -73.077181310464795 24.695702016338053 11.303569209316873 #
point $-1 -66.563274432663306 19.095076419673696 12.265683760212214 #
point $-1 -66.563274432663306 22.455451777672302 12.265683760212214 #
point $-1 -36.370494833787212 43.206908539637112 -18.353343238338791 #
straight-curve $-1 -36.370494833787212 43.206908539637119 0 0 0 -1 I I #
point $-1 -36.370494833787212 43.206908539637112 18.353343238338791 #
End-of-ACIS-data 