500 0 18 0           
7 Unknown 11 ACIS 5.0 NT 24 Fri Mar 26 15:44:52 1999 
-1 9.9999999999999995e-007 1e-010 
body $-1 $18 $-1 $19 #
body $-1 $20 $-1 $21 #
body $-1 $22 $-1 $23 #
body $-1 $24 $-1 $25 #
body $-1 $26 $-1 $27 #
body $-1 $28 $-1 $29 #
body $-1 $30 $-1 $31 #
body $-1 $32 $-1 $33 #
body $-1 $34 $-1 $35 #
body $-1 $36 $-1 $37 #
body $-1 $38 $-1 $39 #
body $-1 $40 $-1 $41 #
body $-1 $42 $-1 $43 #
body $-1 $44 $-1 $45 #
body $-1 $46 $-1 $47 #
body $-1 $48 $-1 $49 #
body $-1 $50 $-1 $51 #
body $-1 $52 $-1 $53 #
lump $-1 $-1 $54 $0 #
transform $-1 1 0 0 0 1 0 0 0 1 63.673818170720544 28.754557622534961 13.206017845698542 1 rotate no_reflect no_shear #
lump $-1 $-1 $55 $1 #
transform $-1 1 0 0 0 1 0 0 0 1 63.673818170720544 28.754557622534961 13.206017845698542 1 rotate no_reflect no_shear #
lump $-1 $-1 $56 $2 #
transform $-1 1 0 0 0 1 0 0 0 1 63.673818170720544 28.754557622534961 13.206017845698542 1 rotate no_reflect no_shear #
lump $-1 $-1 $57 $3 #
transform $-1 1 0 0 0 1 0 0 0 1 63.673818170720544 28.754557622534961 13.206017845698542 1 rotate no_reflect no_shear #
lump $-1 $-1 $58 $4 #
transform $-1 1 0 0 0 1 0 0 0 1 63.673818170720544 28.754557622534961 13.206017845698542 1 rotate no_reflect no_shear #
lump $-1 $-1 $59 $5 #
transform $-1 1 0 0 0 1 0 0 0 1 63.673818170720544 28.754557622534961 13.206017845698542 1 rotate no_reflect no_shear #
lump $-1 $-1 $60 $6 #
transform $-1 1 0 0 0 1 0 0 0 1 63.673818170720544 28.754557622534961 13.206017845698542 1 rotate no_reflect no_shear #
lump $-1 $-1 $61 $7 #
transform $-1 1 0 0 0 1 0 0 0 1 63.673818170720544 28.754557622534961 13.206017845698542 1 rotate no_reflect no_shear #
lump $-1 $-1 $62 $8 #
transform $-1 1 0 0 0 1 0 0 0 1 63.673818170720544 28.754557622534961 13.206017845698542 1 rotate no_reflect no_shear #
lump $-1 $-1 $63 $9 #
transform $-1 1 0 0 0 1 0 0 0 1 63.673818170720544 28.754557622534961 13.206017845698542 1 rotate no_reflect no_shear #
lump $-1 $-1 $64 $10 #
transform $-1 1 0 0 0 1 0 0 0 1 63.673818170720544 28.754557622534961 13.206017845698542 1 rotate no_reflect no_shear #
lump $-1 $-1 $65 $11 #
transform $-1 1 0 0 0 1 0 0 0 1 63.673818170720544 28.754557622534961 13.206017845698542 1 rotate no_reflect no_shear #
lump $-1 $-1 $66 $12 #
transform $-1 1 0 0 0 1 0 0 0 1 63.673818170720544 28.754557622534961 13.206017845698542 1 rotate no_reflect no_shear #
lump $-1 $-1 $67 $13 #
transform $-1 1 0 0 0 1 0 0 0 1 63.673818170720544 28.754557622534961 13.206017845698542 1 rotate no_reflect no_shear #
lump $-1 $-1 $68 $14 #
transform $-1 1 0 0 0 1 0 0 0 1 63.673818170720544 28.754557622534961 13.206017845698542 1 rotate no_reflect no_shear #
lump $-1 $-1 $69 $15 #
transform $-1 1 0 0 0 1 0 0 0 1 63.673818170720544 28.754557622534961 13.206017845698542 1 rotate no_reflect no_shear #
lump $-1 $-1 $70 $16 #
transform $-1 1 0 0 0 1 0 0 0 1 63.673818170720544 28.754557622534961 13.206017845698542 1 rotate no_reflect no_shear #
lump $-1 $-1 $71 $17 #
transform $-1 1 0 0 0 1 0 0 0 1 63.673818170720544 28.754557622534961 13.206017845698542 1 rotate no_reflect no_shear #
shell $-1 $-1 $-1 $72 $-1 $18 #
shell $-1 $-1 $-1 $73 $-1 $20 #
shell $-1 $-1 $-1 $74 $-1 $22 #
shell $-1 $-1 $-1 $75 $-1 $24 #
shell $-1 $-1 $-1 $76 $-1 $26 #
shell $-1 $-1 $-1 $77 $-1 $28 #
shell $-1 $-1 $-1 $78 $-1 $30 #
shell $-1 $-1 $-1 $79 $-1 $32 #
shell $-1 $-1 $-1 $80 $-1 $34 #
shell $-1 $-1 $-1 $81 $-1 $36 #
shell $-1 $-1 $-1 $82 $-1 $38 #
shell $-1 $-1 $-1 $83 $-1 $40 #
shell $-1 $-1 $-1 $84 $-1 $42 #
shell $-1 $-1 $-1 $85 $-1 $44 #
shell $-1 $-1 $-1 $86 $-1 $46 #
shell $-1 $-1 $-1 $87 $-1 $48 #
shell $-1 $-1 $-1 $88 $-1 $50 #
shell $-1 $-1 $-1 $89 $-1 $52 #
face $-1 $90 $91 $54 $-1 $92 reversed single #
face $-1 $93 $94 $55 $-1 $95 forward single #
face $-1 $96 $97 $56 $-1 $98 forward single #
face $-1 $99 $100 $57 $-1 $101 reversed single #
face $-1 $102 $103 $58 $-1 $104 forward single #
face $-1 $105 $106 $59 $-1 $107 forward single #
face $-1 $108 $109 $60 $-1 $110 reversed single #
face $-1 $111 $112 $61 $-1 $113 forward single #
face $-1 $114 $115 $62 $-1 $116 forward single #
face $-1 $117 $118 $63 $-1 $119 reversed single #
face $-1 $120 $121 $64 $-1 $122 forward single #
face $-1 $123 $124 $65 $-1 $125 forward single #
face $-1 $126 $127 $66 $-1 $128 reversed single #
face $-1 $129 $130 $67 $-1 $131 forward single #
face $-1 $132 $133 $68 $-1 $134 forward single #
face $-1 $135 $136 $69 $-1 $137 reversed single #
face $-1 $138 $139 $70 $-1 $140 forward single #
face $-1 $141 $142 $71 $-1 $143 forward single #
face $-1 $144 $145 $54 $-1 $146 reversed single #
loop $-1 $-1 $147 $72 #
plane-surface $-1 63.673818170720544 0 0 -1 0 0 0 0 1 forward_v I I I I #
face $-1 $148 $149 $55 $-1 $150 reversed single #
loop $-1 $-1 $151 $73 #
plane-surface $-1 -63.673818170720544 0 0 1 0 0 0 0 -1 forward_v I I I I #
face $-1 $152 $153 $56 $-1 $154 reversed single #
loop $-1 $-1 $155 $74 #
plane-surface $-1 63.673818170720544 0 0 -1 0 0 0 0 1 forward_v I I I I #
face $-1 $156 $157 $57 $-1 $158 reversed single #
loop $-1 $-1 $159 $75 #
plane-surface $-1 20.909575328896992 106.27629187306063 120.74371274334615 1 0 0 0 -0.84804810408105047 -0.52991925155115449 forward_v I I I I #
face $-1 $160 $161 $58 $-1 $162 forward single #
loop $-1 $163 $164 $76 #
cone-surface $-1 29.18834112665953 24.096617980961177 7.6388129558327913 0 -0.84804810408105047 -0.52991925155115449 2.5 0 0 1 I I 0 1 2.5 forward I I I I #
face $-1 $165 $166 $59 $-1 $167 forward single #
loop $-1 $168 $169 $77 #
cone-surface $-1 41.606489823303356 24.096617980961177 7.6388129558327913 0 -0.84804810408105047 -0.52991925155115449 2.5 0 0 1 I I 0 1 2.5 forward I I I I #
face $-1 $170 $171 $60 $-1 $172 reversed single #
loop $-1 $-1 $173 $78 #
plane-surface $-1 -27.492022583413039 -105.39427930596477 110.23993485555033 -1 0 0 0 -0.6018150307709319 0.79863550430605224 forward_v I I I I #
face $-1 $174 $175 $61 $-1 $176 forward single #
loop $-1 $177 $178 $79 #
cone-surface $-1 -39.087562286097089 -25.148176894001558 10.1973982832817 0 0.6018150307709319 -0.79863550430605224 1 0 0 1 I I 0 1 1 forward I I I I #
face $-1 $179 $180 $62 $-1 $181 forward single #
loop $-1 $182 $183 $80 #
cone-surface $-1 -32.130238464486652 -25.148176894001558 10.1973982832817 0 0.6018150307709319 -0.79863550430605224 1 0 0 1 I I 0 1 1 forward I I I I #
face $-1 $184 $185 $63 $-1 $186 reversed single #
loop $-1 $-1 $187 $81 #
plane-surface $-1 -2.549394772880083 -105.39427930596477 110.23993485555033 -1 0 0 0 -0.6018150307709319 0.79863550430605224 forward_v I I I I #
face $-1 $188 $189 $64 $-1 $190 forward single #
loop $-1 $191 $192 $82 #
cone-surface $-1 -14.144934475564135 -25.148176894001558 10.1973982832817 0 0.6018150307709319 -0.79863550430605224 1 0 0 1 I I 0 1 1 forward I I I I #
face $-1 $193 $194 $65 $-1 $195 forward single #
loop $-1 $196 $197 $83 #
cone-surface $-1 -7.1876106539537048 -25.148176894001558 10.1973982832817 0 0.6018150307709319 -0.79863550430605224 1 0 0 1 I I 0 1 1 forward I I I I #
face $-1 $198 $199 $66 $-1 $200 reversed single #
loop $-1 $-1 $201 $84 #
plane-surface $-1 22.39323303765287 -105.39427930596477 110.23993485555033 -1 0 0 0 -0.6018150307709319 0.79863550430605224 forward_v I I I I #
face $-1 $202 $203 $67 $-1 $204 forward single #
loop $-1 $205 $206 $85 #
cone-surface $-1 10.79769333496882 -25.148176894001558 10.1973982832817 0 0.6018150307709319 -0.79863550430605224 1 0 0 1 I I 0 1 1 forward I I I I #
face $-1 $207 $208 $68 $-1 $209 forward single #
loop $-1 $210 $211 $86 #
cone-surface $-1 17.75501715657925 -25.148176894001558 10.1973982832817 0 0.6018150307709319 -0.79863550430605224 1 0 0 1 I I 0 1 1 forward I I I I #
face $-1 $212 $213 $69 $-1 $214 reversed single #
loop $-1 $-1 $215 $87 #
plane-surface $-1 47.335860848185824 -105.39427930596477 110.23993485555033 -1 0 0 0 -0.6018150307709319 0.79863550430605224 forward_v I I I I #
face $-1 $216 $217 $70 $-1 $218 forward single #
loop $-1 $219 $220 $88 #
cone-surface $-1 35.740321145501774 -25.148176894001558 10.1973982832817 0 0.6018150307709319 -0.79863550430605224 1 0 0 1 I I 0 1 1 forward I I I I #
face $-1 $221 $222 $71 $-1 $223 forward single #
loop $-1 $224 $225 $89 #
cone-surface $-1 42.697644967112204 -25.148176894001558 10.1973982832817 0 0.6018150307709319 -0.79863550430605224 1 0 0 1 I I 0 1 1 forward I I I I #
face $-1 $226 $227 $54 $-1 $228 forward single #
loop $-1 $-1 $229 $90 #
plane-surface $-1 -63.673818170720544 0 0 1 0 0 0 0 -1 forward_v I I I I #
coedge $-1 $230 $231 $232 $233 reversed $91 $-1 #
face $-1 $234 $235 $55 $-1 $236 reversed single #
loop $-1 $-1 $237 $93 #
plane-surface $-1 0 0 -13.206017845698542 0 0 1 1 0 0 forward_v I I I I #
coedge $-1 $238 $239 $240 $241 forward $94 $-1 #
face $-1 $242 $243 $56 $-1 $244 reversed single #
loop $-1 $-1 $245 $96 #
plane-surface $-1 0 0 -13.206017845698542 0 0 1 1 0 0 forward_v I I I I #
coedge $-1 $246 $247 $248 $249 forward $97 $-1 #
face $-1 $250 $251 $57 $-1 $252 reversed single #
loop $-1 $-1 $253 $99 #
plane-surface $-1 35.39741547498145 -1.7206296855015637 53.259748606481082 0 0.84804810408105047 0.52991925155115449 1 0 0 forward_v I I I I #
coedge $-1 $254 $255 $256 $257 reversed $100 $-1 #
face $-1 $-1 $258 $58 $-1 $259 forward single #
loop $-1 $260 $261 $102 #
cone-surface $-1 29.18834112665953 21.102037888712943 5.7675916966169236 0 -0.84804810408105047 -0.52991925155115449 1.25 0 0 1 I I -0.70710678118654746 0.70710678118654746 1.25 forward I I I I #
loop $-1 $-1 $262 $76 #
coedge $-1 $164 $164 $263 $264 reversed $103 $-1 #
face $-1 $-1 $265 $59 $-1 $266 forward single #
loop $-1 $267 $268 $105 #
cone-surface $-1 41.606489823303356 21.102037888712943 5.7675916966169236 0 -0.84804810408105047 -0.52991925155115449 1.25 0 0 1 I I -0.70710678118654746 0.70710678118654746 1.25 forward I I I I #
loop $-1 $-1 $269 $77 #
coedge $-1 $169 $169 $270 $271 reversed $106 $-1 #
face $-1 $272 $273 $60 $-1 $274 reversed single #
loop $-1 $-1 $275 $108 #
plane-surface $-1 -35.608900375291874 -28.754557622534961 8.5355910838197815 0 -0.6018150307709319 0.79863550430605224 1 0 0 forward_v I I I I #
coedge $-1 $276 $277 $278 $279 reversed $109 $-1 #
face $-1 $-1 $280 $61 $-1 $281 forward single #
loop $-1 $282 $283 $111 #
cone-surface $-1 -39.087562286097089 -24.339821413127339 9.124674349651217 0 0.6018150307709319 -0.79863550430605224 0.5 0 0 1 I I -0.70710678118654746 0.70710678118654746 0.5 forward I I I I #
loop $-1 $-1 $284 $79 #
coedge $-1 $178 $178 $285 $286 reversed $112 $-1 #
face $-1 $-1 $287 $62 $-1 $288 forward single #
loop $-1 $289 $290 $114 #
cone-surface $-1 -32.130238464486652 -24.339821413127339 9.124674349651217 0 0.6018150307709319 -0.79863550430605224 0.5 0 0 1 I I -0.70710678118654746 0.70710678118654746 0.5 forward I I I I #
loop $-1 $-1 $291 $80 #
coedge $-1 $183 $183 $292 $293 reversed $115 $-1 #
face $-1 $294 $295 $63 $-1 $296 reversed single #
loop $-1 $-1 $297 $117 #
plane-surface $-1 -10.66627256475892 -28.754557622534961 8.5355910838197815 0 -0.6018150307709319 0.79863550430605224 1 0 0 forward_v I I I I #
coedge $-1 $298 $299 $300 $301 reversed $118 $-1 #
face $-1 $-1 $302 $64 $-1 $303 forward single #
loop $-1 $304 $305 $120 #
cone-surface $-1 -14.144934475564135 -24.339821413127339 9.124674349651217 0 0.6018150307709319 -0.79863550430605224 0.5 0 0 1 I I -0.70710678118654746 0.70710678118654746 0.5 forward I I I I #
loop $-1 $-1 $306 $82 #
coedge $-1 $192 $192 $307 $308 reversed $121 $-1 #
face $-1 $-1 $309 $65 $-1 $310 forward single #
loop $-1 $311 $312 $123 #
cone-surface $-1 -7.1876106539537048 -24.339821413127339 9.124674349651217 0 0.6018150307709319 -0.79863550430605224 0.5 0 0 1 I I -0.70710678118654746 0.70710678118654746 0.5 forward I I I I #
loop $-1 $-1 $313 $83 #
coedge $-1 $197 $197 $314 $315 reversed $124 $-1 #
face $-1 $316 $317 $66 $-1 $318 reversed single #
loop $-1 $-1 $319 $126 #
plane-surface $-1 14.276355245774035 -28.754557622534961 8.5355910838197815 0 -0.6018150307709319 0.79863550430605224 1 0 0 forward_v I I I I #
coedge $-1 $320 $321 $322 $323 reversed $127 $-1 #
face $-1 $-1 $324 $67 $-1 $325 forward single #
loop $-1 $326 $327 $129 #
cone-surface $-1 10.79769333496882 -24.339821413127339 9.124674349651217 0 0.6018150307709319 -0.79863550430605224 0.5 0 0 1 I I -0.70710678118654746 0.70710678118654746 0.5 forward I I I I #
loop $-1 $-1 $328 $85 #
coedge $-1 $206 $206 $329 $330 reversed $130 $-1 #
face $-1 $-1 $331 $68 $-1 $332 forward single #
loop $-1 $333 $334 $132 #
cone-surface $-1 17.75501715657925 -24.339821413127339 9.124674349651217 0 0.6018150307709319 -0.79863550430605224 0.5 0 0 1 I I -0.70710678118654746 0.70710678118654746 0.5 forward I I I I #
loop $-1 $-1 $335 $86 #
coedge $-1 $211 $211 $336 $337 reversed $133 $-1 #
face $-1 $338 $339 $69 $-1 $340 reversed single #
loop $-1 $-1 $341 $135 #
plane-surface $-1 39.218983056306989 -28.754557622534961 8.5355910838197815 0 -0.6018150307709319 0.79863550430605224 1 0 0 forward_v I I I I #
coedge $-1 $342 $343 $344 $345 reversed $136 $-1 #
face $-1 $-1 $346 $70 $-1 $347 forward single #
loop $-1 $348 $349 $138 #
cone-surface $-1 35.740321145501774 -24.339821413127339 9.124674349651217 0 0.6018150307709319 -0.79863550430605224 0.5 0 0 1 I I -0.70710678118654746 0.70710678118654746 0.5 forward I I I I #
loop $-1 $-1 $350 $88 #
coedge $-1 $220 $220 $351 $352 reversed $139 $-1 #
face $-1 $-1 $353 $71 $-1 $354 forward single #
loop $-1 $355 $356 $141 #
cone-surface $-1 42.697644967112204 -24.339821413127339 9.124674349651217 0 0.6018150307709319 -0.79863550430605224 0.5 0 0 1 I I -0.70710678118654746 0.70710678118654746 0.5 forward I I I I #
loop $-1 $-1 $357 $89 #
coedge $-1 $225 $225 $358 $359 reversed $142 $-1 #
face $-1 $360 $361 $54 $-1 $362 reversed single #
loop $-1 $-1 $363 $144 #
plane-surface $-1 0 0 13.206017845698542 0 0 1 1 0 0 forward_v I I I I #
coedge $-1 $364 $365 $366 $367 reversed $145 $-1 #
coedge $-1 $368 $147 $369 $370 reversed $91 $-1 #
coedge $-1 $147 $368 $371 $372 forward $91 $-1 #
coedge $-1 $373 $374 $147 $233 forward $361 $-1 #
edge $-1 $375 -28.754557622534961 $376 28.754557622534961 $147 $377 forward 7 unknown #
face $-1 $378 $379 $55 $-1 $380 reversed single #
loop $-1 $-1 $381 $148 #
plane-surface $-1 -70.568099445547873 -14.230104689239269 0 0 1 0 0 0 1 forward_v I I I I #
coedge $-1 $382 $383 $239 $384 forward $149 $-1 #
coedge $-1 $385 $151 $386 $387 reversed $94 $-1 #
coedge $-1 $151 $385 $237 $384 reversed $94 $-1 #
coedge $-1 $388 $389 $151 $241 reversed $390 $-1 #
edge $-1 $391 -13.206017845698542 $392 13.206017845698542 $240 $393 forward 7 unknown #
face $-1 $394 $395 $56 $-1 $396 reversed single #
loop $-1 $-1 $248 $152 #
plane-surface $-1 70.568099445547858 -14.230104689239269 0 0 1 0 0 0 1 forward_v I I I I #
coedge $-1 $397 $398 $247 $399 forward $153 $-1 #
coedge $-1 $400 $155 $401 $402 reversed $97 $-1 #
coedge $-1 $155 $400 $245 $399 reversed $97 $-1 #
coedge $-1 $403 $404 $155 $249 reversed $243 $-1 #
edge $-1 $405 -13.206017845698542 $406 13.206017845698542 $248 $407 forward 7 unknown #
face $-1 $408 $409 $57 $-1 $410 reversed single #
loop $-1 $-1 $411 $156 #
plane-surface $-1 49.885255621065909 106.27629187306063 120.74371274334615 -1 0 0 0 0.84804810408105047 0.52991925155115449 forward_v I I I I #
coedge $-1 $412 $413 $414 $415 reversed $157 $-1 #
coedge $-1 $255 $159 $416 $417 reversed $100 $-1 #
coedge $-1 $159 $254 $412 $418 reversed $100 $-1 #
coedge $-1 $414 $419 $159 $257 forward $420 $-1 #
edge $-1 $421 24.383588313995354 $422 29.830427672849058 $256 $423 forward 7 unknown #
loop $-1 $-1 $263 $160 #
plane-surface $-1 35.39741547498145 -1.7206296855015637 53.259748606481082 0 0.84804810408105047 0.52991925155115449 1 0 0 forward_v I I I I #
loop $-1 $-1 $424 $102 #
coedge $-1 $261 $261 $262 $425 reversed $161 $-1 #
coedge $-1 $262 $262 $261 $425 forward $163 $-1 #
coedge $-1 $263 $263 $164 $264 forward $258 $-1 #
edge $-1 $426 7.536904512749666e-016 $426 6.2831853071796013 $263 $427 forward 7 unknown #
loop $-1 $-1 $270 $165 #
plane-surface $-1 35.39741547498145 -1.7206296855015637 53.259748606481082 0 0.84804810408105047 0.52991925155115449 1 0 0 forward_v I I I I #
loop $-1 $-1 $428 $105 #
coedge $-1 $268 $268 $269 $429 reversed $166 $-1 #
coedge $-1 $269 $269 $268 $429 forward $168 $-1 #
coedge $-1 $270 $270 $169 $271 forward $265 $-1 #
edge $-1 $430 7.536904512749666e-016 $430 6.2831853071796013 $270 $431 forward 7 unknown #
face $-1 $432 $433 $60 $-1 $434 forward single #
loop $-1 $-1 $435 $170 #
plane-surface $-1 -43.725778167170709 -105.39427930596477 110.23993485555033 1 0 0 0 0.6018150307709319 -0.79863550430605224 forward_v I I I I #
coedge $-1 $436 $437 $438 $439 reversed $171 $-1 #
coedge $-1 $277 $173 $440 $441 reversed $109 $-1 #
coedge $-1 $173 $276 $436 $442 reversed $109 $-1 #
coedge $-1 $438 $443 $173 $279 forward $433 $-1 #
edge $-1 $444 23.942582030447426 $445 30.140447556536721 $278 $446 forward 7 unknown #
loop $-1 $-1 $285 $174 #
plane-surface $-1 -35.608900375291874 -28.754557622534961 8.5355910838197815 0 -0.6018150307709319 0.79863550430605224 1 0 0 forward_v I I I I #
loop $-1 $-1 $447 $111 #
coedge $-1 $283 $283 $284 $448 reversed $175 $-1 #
coedge $-1 $284 $284 $283 $448 forward $177 $-1 #
coedge $-1 $285 $285 $178 $286 forward $280 $-1 #
edge $-1 $449 -1.0690382459638171e-015 $449 6.2831853071795996 $285 $450 forward 7 unknown #
loop $-1 $-1 $292 $179 #
plane-surface $-1 -35.608900375291874 -28.754557622534961 8.5355910838197815 0 -0.6018150307709319 0.79863550430605224 1 0 0 forward_v I I I I #
loop $-1 $-1 $451 $114 #
coedge $-1 $290 $290 $291 $452 reversed $180 $-1 #
coedge $-1 $291 $291 $290 $452 forward $182 $-1 #
coedge $-1 $292 $292 $183 $293 forward $287 $-1 #
edge $-1 $453 -1.0690382459638171e-015 $453 6.2831853071795996 $292 $454 forward 7 unknown #
face $-1 $455 $456 $63 $-1 $457 reversed single #
loop $-1 $-1 $458 $184 #
plane-surface $-1 -18.783150356637755 -105.39427930596477 110.23993485555033 1 0 0 0 0.6018150307709319 -0.79863550430605224 forward_v I I I I #
coedge $-1 $459 $460 $461 $462 reversed $185 $-1 #
coedge $-1 $299 $187 $463 $464 reversed $118 $-1 #
coedge $-1 $187 $298 $459 $465 reversed $118 $-1 #
coedge $-1 $461 $466 $187 $301 forward $467 $-1 #
edge $-1 $468 23.942582030447426 $469 30.140447556536721 $300 $470 forward 7 unknown #
loop $-1 $-1 $307 $188 #
plane-surface $-1 -10.66627256475892 -28.754557622534961 8.5355910838197815 0 -0.6018150307709319 0.79863550430605224 1 0 0 forward_v I I I I #
loop $-1 $-1 $471 $120 #
coedge $-1 $305 $305 $306 $472 reversed $189 $-1 #
coedge $-1 $306 $306 $305 $472 forward $191 $-1 #
coedge $-1 $307 $307 $192 $308 forward $302 $-1 #
edge $-1 $473 -1.0690382459638171e-015 $473 6.2831853071795996 $307 $474 forward 7 unknown #
loop $-1 $-1 $314 $193 #
plane-surface $-1 -10.66627256475892 -28.754557622534961 8.5355910838197815 0 -0.6018150307709319 0.79863550430605224 1 0 0 forward_v I I I I #
loop $-1 $-1 $475 $123 #
coedge $-1 $312 $312 $313 $476 reversed $194 $-1 #
coedge $-1 $313 $313 $312 $476 forward $196 $-1 #
coedge $-1 $314 $314 $197 $315 forward $309 $-1 #
edge $-1 $477 -1.0690382459638171e-015 $477 6.2831853071795996 $314 $478 forward 7 unknown #
face $-1 $479 $480 $66 $-1 $481 reversed single #
loop $-1 $-1 $482 $198 #
plane-surface $-1 6.1594774538951977 -105.39427930596477 110.23993485555033 1 0 0 0 0.6018150307709319 -0.79863550430605224 forward_v I I I I #
coedge $-1 $483 $484 $485 $486 reversed $199 $-1 #
coedge $-1 $321 $201 $487 $488 reversed $127 $-1 #
coedge $-1 $201 $320 $483 $489 reversed $127 $-1 #
coedge $-1 $485 $490 $201 $323 forward $491 $-1 #
edge $-1 $492 23.942582030447426 $493 30.140447556536721 $322 $494 forward 7 unknown #
loop $-1 $-1 $329 $202 #
plane-surface $-1 14.276355245774035 -28.754557622534961 8.5355910838197815 0 -0.6018150307709319 0.79863550430605224 1 0 0 forward_v I I I I #
loop $-1 $-1 $495 $129 #
coedge $-1 $327 $327 $328 $496 reversed $203 $-1 #
coedge $-1 $328 $328 $327 $496 forward $205 $-1 #
coedge $-1 $329 $329 $206 $330 forward $324 $-1 #
edge $-1 $497 -1.0690382459638171e-015 $497 6.2831853071795996 $329 $498 forward 7 unknown #
loop $-1 $-1 $336 $207 #
plane-surface $-1 14.276355245774035 -28.754557622534961 8.5355910838197815 0 -0.6018150307709319 0.79863550430605224 1 0 0 forward_v I I I I #
loop $-1 $-1 $499 $132 #
coedge $-1 $334 $334 $335 $500 reversed $208 $-1 #
coedge $-1 $335 $335 $334 $500 forward $210 $-1 #
coedge $-1 $336 $336 $211 $337 forward $331 $-1 #
edge $-1 $501 -1.0690382459638171e-015 $501 6.2831853071795996 $336 $502 forward 7 unknown #
face $-1 $503 $504 $69 $-1 $505 reversed single #
loop $-1 $-1 $506 $212 #
plane-surface $-1 31.102105264428154 -105.39427930596477 110.23993485555033 1 0 0 0 0.6018150307709319 -0.79863550430605224 forward_v I I I I #
coedge $-1 $507 $508 $509 $510 reversed $213 $-1 #
coedge $-1 $343 $215 $511 $512 reversed $136 $-1 #
coedge $-1 $215 $342 $507 $513 reversed $136 $-1 #
coedge $-1 $509 $514 $215 $345 forward $515 $-1 #
edge $-1 $516 23.942582030447426 $517 30.140447556536721 $344 $518 forward 7 unknown #
loop $-1 $-1 $351 $216 #
plane-surface $-1 39.218983056306989 -28.754557622534961 8.5355910838197815 0 -0.6018150307709319 0.79863550430605224 1 0 0 forward_v I I I I #
loop $-1 $-1 $519 $138 #
coedge $-1 $349 $349 $350 $520 reversed $217 $-1 #
coedge $-1 $350 $350 $349 $520 forward $219 $-1 #
coedge $-1 $351 $351 $220 $352 forward $346 $-1 #
edge $-1 $521 -1.0690382459638171e-015 $521 6.2831853071795996 $351 $522 forward 7 unknown #
loop $-1 $-1 $358 $221 #
plane-surface $-1 39.218983056306989 -28.754557622534961 8.5355910838197815 0 -0.6018150307709319 0.79863550430605224 1 0 0 forward_v I I I I #
loop $-1 $-1 $523 $141 #
coedge $-1 $356 $356 $357 $524 reversed $222 $-1 #
coedge $-1 $357 $357 $356 $524 forward $224 $-1 #
coedge $-1 $358 $358 $225 $359 forward $353 $-1 #
edge $-1 $525 -1.0690382459638171e-015 $525 6.2831853071795996 $358 $526 forward 7 unknown #
face $-1 $527 $528 $54 $-1 $529 reversed single #
loop $-1 $-1 $232 $226 #
plane-surface $-1 0 0 -13.206017845698542 0 0 1 1 0 0 forward_v I I I I #
coedge $-1 $530 $531 $368 $532 forward $227 $-1 #
coedge $-1 $533 $229 $534 $535 reversed $145 $-1 #
coedge $-1 $229 $533 $536 $537 forward $145 $-1 #
coedge $-1 $374 $373 $229 $367 forward $361 $-1 #
edge $-1 $538 -28.754557622534961 $539 28.754557622534961 $229 $540 forward 7 unknown #
coedge $-1 $231 $230 $363 $532 reversed $91 $-1 #
coedge $-1 $541 $542 $230 $370 forward $543 $-1 #
edge $-1 $544 -13.206017845698542 $375 13.206017845698542 $230 $545 forward 7 unknown #
coedge $-1 $546 $547 $231 $372 reversed $528 $-1 #
edge $-1 $548 -13.206017845698542 $376 13.206017845698542 $231 $549 forward 7 unknown #
coedge $-1 $366 $232 $547 $550 forward $361 $-1 #
coedge $-1 $232 $366 $541 $551 forward $361 $-1 #
vertex $-1 $233 $552 #
vertex $-1 $372 $553 #
straight-curve $-1 63.673818170720544 0 -13.206017845698542 0 -1 0 I I #
face $-1 $554 $390 $55 $-1 $555 reversed single #
loop $-1 $-1 $556 $234 #
plane-surface $-1 -77.462380720375194 -10.873889179425902 0 1 0 0 0 0 -1 forward_v I I I I #
coedge $-1 $557 $558 $559 $560 forward $235 $-1 #
coedge $-1 $561 $237 $557 $562 forward $149 $-1 #
coedge $-1 $237 $561 $388 $563 forward $149 $-1 #
edge $-1 $391 7.5176736696125337 $564 14.230104689239269 $237 $565 forward 7 unknown #
coedge $-1 $239 $238 $566 $567 forward $94 $-1 #
coedge $-1 $568 $569 $238 $387 forward $570 $-1 #
edge $-1 $571 -14.230104689239269 $392 -7.5176736696125337 $386 $572 forward 7 unknown #
coedge $-1 $573 $240 $383 $563 reversed $390 $-1 #
coedge $-1 $240 $573 $568 $574 reversed $390 $-1 #
loop $-1 $-1 $240 $378 #
vertex $-1 $384 $575 #
vertex $-1 $574 $576 #
straight-curve $-1 -63.673818170720544 -7.5176736696125337 0 0 0 1 I I #
face $-1 $577 $578 $56 $-1 $579 reversed single #
loop $-1 $-1 $580 $242 #
plane-surface $-1 70.568099445547858 -7.5176736696125337 0 0 -1 0 0 0 -1 forward_v I I I I #
coedge $-1 $581 $245 $582 $583 forward $153 $-1 #
coedge $-1 $245 $581 $403 $584 forward $153 $-1 #
edge $-1 $405 -14.230104689239269 $585 -7.5176736696125337 $245 $586 forward 7 unknown #
coedge $-1 $247 $246 $587 $588 forward $97 $-1 #
coedge $-1 $589 $590 $246 $402 forward $591 $-1 #
edge $-1 $592 7.5176736696125337 $406 14.230104689239269 $401 $593 forward 7 unknown #
coedge $-1 $594 $248 $398 $584 reversed $243 $-1 #
coedge $-1 $248 $594 $589 $595 reversed $243 $-1 #
vertex $-1 $399 $596 #
vertex $-1 $595 $597 #
straight-curve $-1 63.673818170720544 -14.230104689239269 0 0 0 1 I I #
face $-1 $-1 $420 $57 $-1 $598 forward single #
loop $-1 $-1 $599 $250 #
plane-surface $-1 0 28.754557622534961 0 0 -1 0 0 0 -1 forward_v I I I I #
coedge $-1 $600 $601 $602 $603 reversed $251 $-1 #
coedge $-1 $604 $253 $255 $418 forward $157 $-1 #
coedge $-1 $253 $604 $600 $605 forward $157 $-1 #
coedge $-1 $602 $256 $253 $415 forward $420 $-1 #
edge $-1 $422 3.2108675914062665 $606 32.186547883575187 $414 $607 forward 7 unknown #
coedge $-1 $608 $609 $254 $417 forward $409 $-1 #
edge $-1 $610 -55.882603916152149 $421 -47.165838525974536 $416 $611 forward 7 unknown #
edge $-1 $422 47.23049384584732 $610 57.509115245069893 $255 $612 forward 7 unknown #
coedge $-1 $256 $602 $608 $613 forward $420 $-1 #
loop $-1 $-1 $602 $408 #
vertex $-1 $417 $614 #
vertex $-1 $257 $615 #
straight-curve $-1 20.909575328896992 53.138145936530314 13.20601784569854 0 -1 0 I I #
coedge $-1 $424 $424 $-1 $616 reversed $260 $-1 #
edge $-1 $617 0 $617 6.2831853071796004 $261 $618 forward 7 unknown #
vertex $-1 $264 $619 #
ellipse-curve $-1 29.18834112665953 26.031137943108114 8.8476351506097242 0 0.84804810408105047 0.52991925155115449 2.5 0 0 1 I I #
coedge $-1 $428 $428 $-1 $620 reversed $267 $-1 #
edge $-1 $621 0 $621 6.2831853071796004 $268 $622 forward 7 unknown #
vertex $-1 $271 $623 #
ellipse-curve $-1 41.606489823303356 26.031137943108114 8.8476351506097242 0 0.84804810408105047 0.52991925155115449 2.5 0 0 1 I I #
face $-1 $-1 $624 $60 $-1 $625 reversed single #
loop $-1 $-1 $278 $272 #
plane-surface $-1 0 0 13.206017845698542 0 0 1 1 0 0 forward_v I I I I #
coedge $-1 $626 $627 $628 $629 reversed $273 $-1 #
coedge $-1 $630 $275 $277 $442 forward $171 $-1 #
coedge $-1 $275 $630 $626 $631 forward $171 $-1 #
coedge $-1 $628 $278 $275 $439 forward $433 $-1 #
edge $-1 $445 9.6875723957671021 $632 25.921327979524772 $438 $633 forward 7 unknown #
coedge $-1 $634 $635 $276 $441 forward $624 $-1 #
edge $-1 $636 -46.584376343955384 $444 -41.913949582076626 $440 $637 forward 7 unknown #
edge $-1 $445 -7.76056848546287 $636 0 $277 $638 forward 7 unknown #
coedge $-1 $278 $628 $634 $639 forward $433 $-1 #
vertex $-1 $279 $640 #
vertex $-1 $279 $641 #
straight-curve $-1 -27.492022583413039 -52.697139652982386 13.20601784569854 0 1 0 I I #
coedge $-1 $447 $447 $-1 $642 reversed $282 $-1 #
edge $-1 $643 0 $643 6.2831853071796004 $283 $644 forward 7 unknown #
vertex $-1 $286 $645 #
ellipse-curve $-1 -39.087562286097089 -25.655624859490317 10.870804464759161 0 -0.6018150307709319 0.79863550430605224 1 0 0 1 I I #
coedge $-1 $451 $451 $-1 $646 reversed $289 $-1 #
edge $-1 $647 0 $647 6.2831853071796004 $290 $648 forward 7 unknown #
vertex $-1 $293 $649 #
ellipse-curve $-1 -32.130238464486652 -25.655624859490317 10.870804464759161 0 -0.6018150307709319 0.79863550430605224 1 0 0 1 I I #
face $-1 $-1 $467 $63 $-1 $650 forward single #
loop $-1 $-1 $651 $294 #
plane-surface $-1 0 -28.754557622534961 0 0 1 0 0 0 1 forward_v I I I I #
coedge $-1 $652 $653 $654 $655 reversed $295 $-1 #
coedge $-1 $656 $297 $299 $465 forward $185 $-1 #
coedge $-1 $297 $656 $652 $657 forward $185 $-1 #
coedge $-1 $654 $300 $297 $462 forward $467 $-1 #
edge $-1 $469 -2.7837415094993769 $658 13.450014074258295 $461 $659 forward 7 unknown #
coedge $-1 $660 $661 $298 $464 forward $456 $-1 #
edge $-1 $662 -46.584376343955384 $468 -41.913949582076626 $463 $663 forward 7 unknown #
edge $-1 $469 -7.76056848546287 $662 0 $299 $664 forward 7 unknown #
coedge $-1 $300 $654 $660 $665 forward $467 $-1 #
loop $-1 $-1 $654 $455 #
vertex $-1 $464 $666 #
vertex $-1 $301 $667 #
straight-curve $-1 -2.549394772880083 -52.697139652982386 13.20601784569854 0 1 0 I I #
coedge $-1 $471 $471 $-1 $668 reversed $304 $-1 #
edge $-1 $669 0 $669 6.2831853071796004 $305 $670 forward 7 unknown #
vertex $-1 $308 $671 #
ellipse-curve $-1 -14.144934475564135 -25.655624859490317 10.870804464759161 0 -0.6018150307709319 0.79863550430605224 1 0 0 1 I I #
coedge $-1 $475 $475 $-1 $672 reversed $311 $-1 #
edge $-1 $673 0 $673 6.2831853071796004 $312 $674 forward 7 unknown #
vertex $-1 $315 $675 #
ellipse-curve $-1 -7.1876106539537048 -25.655624859490317 10.870804464759161 0 -0.6018150307709319 0.79863550430605224 1 0 0 1 I I #
face $-1 $-1 $491 $66 $-1 $676 forward single #
loop $-1 $-1 $677 $316 #
plane-surface $-1 0 -28.754557622534961 0 0 1 0 0 0 1 forward_v I I I I #
coedge $-1 $678 $679 $680 $681 reversed $317 $-1 #
coedge $-1 $682 $319 $321 $489 forward $199 $-1 #
coedge $-1 $319 $682 $678 $683 forward $199 $-1 #
coedge $-1 $680 $322 $319 $486 forward $491 $-1 #
edge $-1 $493 -15.255055414765852 $684 0.97870016899181955 $485 $685 forward 7 unknown #
coedge $-1 $686 $687 $320 $488 forward $480 $-1 #
edge $-1 $688 -46.584376343955384 $492 -41.913949582076626 $487 $689 forward 7 unknown #
edge $-1 $493 -7.76056848546287 $688 0 $321 $690 forward 7 unknown #
coedge $-1 $322 $680 $686 $691 forward $491 $-1 #
loop $-1 $-1 $680 $479 #
vertex $-1 $488 $692 #
vertex $-1 $323 $693 #
straight-curve $-1 22.39323303765287 -52.697139652982386 13.20601784569854 0 1 0 I I #
coedge $-1 $495 $495 $-1 $694 reversed $326 $-1 #
edge $-1 $695 0 $695 6.2831853071796004 $327 $696 forward 7 unknown #
vertex $-1 $330 $697 #
ellipse-curve $-1 10.79769333496882 -25.655624859490317 10.870804464759161 0 -0.6018150307709319 0.79863550430605224 1 0 0 1 I I #
coedge $-1 $499 $499 $-1 $698 reversed $333 $-1 #
edge $-1 $699 0 $699 6.2831853071796004 $334 $700 forward 7 unknown #
vertex $-1 $337 $701 #
ellipse-curve $-1 17.75501715657925 -25.655624859490317 10.870804464759161 0 -0.6018150307709319 0.79863550430605224 1 0 0 1 I I #
face $-1 $-1 $515 $69 $-1 $702 forward single #
loop $-1 $-1 $703 $338 #
plane-surface $-1 0 -28.754557622534961 0 0 1 0 0 0 1 forward_v I I I I #
coedge $-1 $704 $705 $706 $707 reversed $339 $-1 #
coedge $-1 $708 $341 $343 $513 forward $213 $-1 #
coedge $-1 $341 $708 $704 $709 forward $213 $-1 #
coedge $-1 $706 $344 $341 $510 forward $515 $-1 #
edge $-1 $517 -27.72636932003233 $710 -11.492613736274659 $509 $711 forward 7 unknown #
coedge $-1 $712 $713 $342 $512 forward $504 $-1 #
edge $-1 $714 -46.584376343955384 $516 -41.913949582076626 $511 $715 forward 7 unknown #
edge $-1 $517 -7.76056848546287 $714 0 $343 $716 forward 7 unknown #
coedge $-1 $344 $706 $712 $717 forward $515 $-1 #
loop $-1 $-1 $706 $503 #
vertex $-1 $512 $718 #
vertex $-1 $345 $719 #
straight-curve $-1 47.335860848185824 -52.697139652982386 13.20601784569854 0 1 0 I I #
coedge $-1 $519 $519 $-1 $720 reversed $348 $-1 #
edge $-1 $721 0 $721 6.2831853071796004 $349 $722 forward 7 unknown #
vertex $-1 $352 $723 #
ellipse-curve $-1 35.740321145501774 -25.655624859490317 10.870804464759161 0 -0.6018150307709319 0.79863550430605224 1 0 0 1 I I #
coedge $-1 $523 $523 $-1 $724 reversed $355 $-1 #
edge $-1 $725 0 $725 6.2831853071796004 $356 $726 forward 7 unknown #
vertex $-1 $359 $727 #
ellipse-curve $-1 42.697644967112204 -25.655624859490317 10.870804464759161 0 -0.6018150307709319 0.79863550430605224 1 0 0 1 I I #
face $-1 $-1 $543 $54 $-1 $728 reversed single #
loop $-1 $-1 $534 $360 #
plane-surface $-1 0 -28.754557622534961 0 0 1 0 0 0 1 forward_v I I I I #
coedge $-1 $729 $363 $542 $730 forward $227 $-1 #
coedge $-1 $363 $729 $546 $731 forward $227 $-1 #
edge $-1 $548 -28.754557622534961 $544 28.754557622534961 $368 $732 forward 7 unknown #
coedge $-1 $365 $364 $729 $733 reversed $145 $-1 #
coedge $-1 $547 $546 $364 $535 forward $528 $-1 #
edge $-1 $734 -13.206017845698542 $538 13.206017845698542 $364 $735 forward 7 unknown #
coedge $-1 $542 $541 $365 $537 reversed $543 $-1 #
edge $-1 $736 -13.206017845698542 $539 13.206017845698542 $536 $737 forward 7 unknown #
vertex $-1 $367 $738 #
vertex $-1 $551 $739 #
straight-curve $-1 -63.673818170720544 0 -13.206017845698542 0 1 0 I I #
coedge $-1 $536 $369 $374 $551 reversed $543 $-1 #
coedge $-1 $369 $536 $530 $730 reversed $543 $-1 #
loop $-1 $-1 $369 $527 #
vertex $-1 $532 $740 #
straight-curve $-1 63.673818170720544 28.754557622534961 0 0 0 -1 I I #
coedge $-1 $534 $371 $531 $731 reversed $528 $-1 #
coedge $-1 $371 $534 $373 $550 reversed $528 $-1 #
vertex $-1 $532 $741 #
straight-curve $-1 63.673818170720544 -28.754557622534961 0 0 0 -1 I I #
edge $-1 $376 -63.673818170720544 $538 63.673818170720544 $547 $742 forward 7 unknown #
edge $-1 $539 -63.673818170720544 $375 63.673818170720544 $541 $743 forward 7 unknown #
point $-1 63.673818170720544 28.754557622534961 -13.206017845698542 #
point $-1 63.673818170720544 -28.754557622534961 -13.206017845698542 #
face $-1 $-1 $570 $55 $-1 $744 forward single #
plane-surface $-1 -70.568099445547873 -7.5176736696125337 0 0 -1 0 0 0 -1 forward_v I I I I #
coedge $-1 $745 $746 $573 $747 forward $379 $-1 #
coedge $-1 $566 $381 $382 $562 reversed $235 $-1 #
coedge $-1 $381 $566 $569 $748 reversed $235 $-1 #
coedge $-1 $746 $745 $381 $560 reversed $379 $-1 #
edge $-1 $749 -13.206017845698542 $750 13.206017845698542 $559 $751 forward 7 unknown #
coedge $-1 $383 $382 $745 $752 forward $149 $-1 #
edge $-1 $564 -6.8942812748273212 $750 6.8942812748273212 $557 $753 forward 7 unknown #
edge $-1 $754 -6.8942812748273212 $391 6.8942812748273212 $388 $755 forward 7 unknown #
vertex $-1 $562 $756 #
straight-curve $-1 -63.673818170720544 0 -13.206017845698542 0 -1 0 I I #
coedge $-1 $558 $557 $385 $567 reversed $235 $-1 #
edge $-1 $571 -13.206017845698542 $564 13.206017845698542 $566 $757 forward 7 unknown #
coedge $-1 $758 $386 $389 $574 forward $570 $-1 #
coedge $-1 $386 $758 $558 $748 forward $570 $-1 #
loop $-1 $-1 $386 $554 #
vertex $-1 $387 $759 #
straight-curve $-1 -63.673818170720544 0 13.206017845698542 0 1 0 I I #
coedge $-1 $389 $388 $556 $747 reversed $390 $-1 #
edge $-1 $392 -6.8942812748273212 $760 6.8942812748273212 $389 $761 forward 7 unknown #
point $-1 -63.673818170720551 -7.5176736696125337 -13.206017845698542 #
point $-1 -63.673818170720551 -7.5176736696125337 13.206017845698542 #
face $-1 $-1 $591 $56 $-1 $762 forward single #
loop $-1 $-1 $763 $394 #
plane-surface $-1 77.462380720375194 -10.873889179425902 0 -1 0 0 0 0 1 forward_v I I I I #
coedge $-1 $582 $764 $765 $766 forward $395 $-1 #
coedge $-1 $398 $397 $767 $768 forward $153 $-1 #
coedge $-1 $587 $580 $397 $583 reversed $395 $-1 #
edge $-1 $585 -6.8942812748273283 $769 6.8942812748273354 $582 $770 forward 7 unknown #
edge $-1 $771 -6.8942812748273354 $405 6.8942812748273283 $403 $772 forward 7 unknown #
vertex $-1 $583 $773 #
straight-curve $-1 63.673818170720544 0 -13.206017845698542 0 1 0 I I #
coedge $-1 $764 $582 $400 $588 reversed $395 $-1 #
edge $-1 $592 -13.206017845698542 $585 13.206017845698542 $587 $774 forward 7 unknown #
coedge $-1 $775 $401 $404 $595 forward $591 $-1 #
coedge $-1 $401 $775 $764 $776 forward $591 $-1 #
loop $-1 $-1 $401 $577 #
vertex $-1 $402 $777 #
straight-curve $-1 63.673818170720544 0 13.206017845698542 0 -1 0 I I #
coedge $-1 $404 $403 $763 $778 reversed $243 $-1 #
edge $-1 $406 -6.8942812748273283 $779 6.8942812748273354 $404 $780 forward 7 unknown #
point $-1 63.67381817072053 -14.230104689239269 -13.206017845698542 #
point $-1 63.67381817072053 -14.230104689239269 13.206017845698542 #
plane-surface $-1 0 0 13.206017845698542 0 0 1 1 0 0 forward_v I I I I #
coedge $-1 $609 $608 $601 $781 forward $409 $-1 #
coedge $-1 $601 $411 $413 $605 reversed $251 $-1 #
coedge $-1 $411 $600 $599 $781 reversed $251 $-1 #
coedge $-1 $419 $414 $411 $603 forward $420 $-1 #
edge $-1 $606 -29.830427672849058 $782 -24.383588313995354 $602 $783 forward 7 unknown #
coedge $-1 $413 $412 $609 $784 reversed $157 $-1 #
edge $-1 $785 -57.509115245069893 $606 -47.23049384584732 $600 $786 forward 7 unknown #
vertex $-1 $415 $787 #
straight-curve $-1 17.698707737490725 23.307718263681259 13.206017845698536 1 0 0 I I #
coedge $-1 $599 $416 $419 $613 reversed $409 $-1 #
coedge $-1 $416 $599 $604 $784 forward $409 $-1 #
vertex $-1 $417 $788 #
straight-curve $-1 20.909575328896992 28.754557622534961 60.371856371673076 0 0 1 I I #
straight-curve $-1 20.909575328896992 -1.7206296855015637 53.259748606481082 0 0.52991925155115449 -0.84804810408105047 I I #
edge $-1 $782 -49.885255621065909 $421 -20.909575328896992 $608 $789 forward 7 unknown #
point $-1 20.909575328896992 28.754557622534961 13.206017845698542 #
point $-1 20.909575328896992 23.307718263681256 13.20601784569854 #
edge $-1 $790 1 $790 0 $424 $-1 forward 7 unknown #
vertex $-1 $425 $791 #
ellipse-curve $-1 29.18834112665953 22.162098018814255 6.4299907610558664 0 0.84804810408105047 0.52991925155115449 2.5 0 0 1 I I #
point $-1 31.68834112665953 26.031137943108103 8.8476351506097153 #
edge $-1 $792 1 $792 0 $428 $-1 forward 7 unknown #
vertex $-1 $429 $793 #
ellipse-curve $-1 41.606489823303356 22.162098018814255 6.4299907610558664 0 0.84804810408105047 0.52991925155115449 2.5 0 0 1 I I #
point $-1 44.106489823303356 26.031137943108103 8.8476351506097153 #
loop $-1 $-1 $440 $432 #
plane-surface $-1 0 -28.754557622534961 0 0 1 0 0 0 1 forward_v I I I I #
coedge $-1 $627 $435 $437 $631 reversed $273 $-1 #
coedge $-1 $435 $626 $794 $795 reversed $273 $-1 #
coedge $-1 $443 $438 $435 $629 forward $433 $-1 #
edge $-1 $632 -30.140447556536721 $796 -23.942582030447426 $628 $797 forward 7 unknown #
coedge $-1 $437 $436 $635 $798 reversed $171 $-1 #
edge $-1 $799 0 $632 7.76056848546287 $626 $800 forward 7 unknown #
vertex $-1 $439 $801 #
straight-curve $-1 -17.804450187645937 -22.556692096445669 13.206017845698542 -1 0 0 I I #
coedge $-1 $794 $440 $443 $639 reversed $624 $-1 #
coedge $-1 $440 $794 $630 $798 forward $624 $-1 #
vertex $-1 $441 $802 #
straight-curve $-1 -27.492022583413039 -28.754557622534961 55.119967427775165 0 0 1 I I #
straight-curve $-1 -27.492022583413039 -28.754557622534961 8.5355910838197815 0 -0.79863550430605224 -0.6018150307709319 I I #
edge $-1 $796 -43.725778167170709 $444 -27.492022583413039 $634 $803 forward 7 unknown #
point $-1 -27.492022583413039 -28.754557622534961 13.206017845698542 #
point $-1 -27.492022583413039 -22.556692096445666 13.206017845698542 #
edge $-1 $804 1 $804 0 $447 $-1 forward 7 unknown #
vertex $-1 $448 $805 #
ellipse-curve $-1 -39.087562286097089 -24.640728928512804 9.523992101804243 0 -0.6018150307709319 0.79863550430605224 1 0 0 1 I I #
point $-1 -38.087562286097089 -25.655624859490317 10.870804464759159 #
edge $-1 $806 1 $806 0 $451 $-1 forward 7 unknown #
vertex $-1 $452 $807 #
ellipse-curve $-1 -32.130238464486652 -24.640728928512804 9.523992101804243 0 -0.6018150307709319 0.79863550430605224 1 0 0 1 I I #
point $-1 -31.130238464486652 -25.655624859490317 10.870804464759159 #
plane-surface $-1 0 0 13.206017845698542 0 0 1 1 0 0 forward_v I I I I #
coedge $-1 $661 $660 $653 $808 forward $456 $-1 #
coedge $-1 $653 $458 $460 $657 reversed $295 $-1 #
coedge $-1 $458 $652 $651 $808 reversed $295 $-1 #
coedge $-1 $466 $461 $458 $655 forward $467 $-1 #
edge $-1 $658 -30.140447556536721 $809 -23.942582030447426 $654 $810 forward 7 unknown #
coedge $-1 $460 $459 $661 $811 reversed $185 $-1 #
edge $-1 $812 0 $658 7.76056848546287 $652 $813 forward 7 unknown #
vertex $-1 $462 $814 #
straight-curve $-1 -5.3331362823794599 -22.556692096445669 13.206017845698542 -1 0 0 I I #
coedge $-1 $651 $463 $466 $665 reversed $456 $-1 #
coedge $-1 $463 $651 $656 $811 forward $456 $-1 #
vertex $-1 $464 $815 #
straight-curve $-1 -2.549394772880083 -28.754557622534961 55.119967427775165 0 0 1 I I #
straight-curve $-1 -2.549394772880083 -28.754557622534961 8.5355910838197815 0 -0.79863550430605224 -0.6018150307709319 I I #
edge $-1 $809 -18.783150356637755 $468 -2.549394772880083 $660 $816 forward 7 unknown #
point $-1 -2.549394772880083 -28.754557622534961 13.206017845698542 #
point $-1 -2.549394772880083 -22.556692096445666 13.206017845698542 #
edge $-1 $817 1 $817 0 $471 $-1 forward 7 unknown #
vertex $-1 $472 $818 #
ellipse-curve $-1 -14.144934475564135 -24.640728928512804 9.523992101804243 0 -0.6018150307709319 0.79863550430605224 1 0 0 1 I I #
point $-1 -13.144934475564135 -25.655624859490317 10.870804464759159 #
edge $-1 $819 1 $819 0 $475 $-1 forward 7 unknown #
vertex $-1 $476 $820 #
ellipse-curve $-1 -7.1876106539537048 -24.640728928512804 9.523992101804243 0 -0.6018150307709319 0.79863550430605224 1 0 0 1 I I #
point $-1 -6.1876106539537048 -25.655624859490317 10.870804464759159 #
plane-surface $-1 0 0 13.206017845698542 0 0 1 1 0 0 forward_v I I I I #
coedge $-1 $687 $686 $679 $821 forward $480 $-1 #
coedge $-1 $679 $482 $484 $683 reversed $317 $-1 #
coedge $-1 $482 $678 $677 $821 reversed $317 $-1 #
coedge $-1 $490 $485 $482 $681 forward $491 $-1 #
edge $-1 $684 -30.140447556536721 $822 -23.942582030447426 $680 $823 forward 7 unknown #
coedge $-1 $484 $483 $687 $824 reversed $199 $-1 #
edge $-1 $825 0 $684 7.76056848546287 $678 $826 forward 7 unknown #
vertex $-1 $486 $827 #
straight-curve $-1 7.1381776228870173 -22.556692096445669 13.206017845698542 -1 0 0 I I #
coedge $-1 $677 $487 $490 $691 reversed $480 $-1 #
coedge $-1 $487 $677 $682 $824 forward $480 $-1 #
vertex $-1 $488 $828 #
straight-curve $-1 22.39323303765287 -28.754557622534961 55.119967427775165 0 0 1 I I #
straight-curve $-1 22.39323303765287 -28.754557622534961 8.5355910838197815 0 -0.79863550430605224 -0.6018150307709319 I I #
edge $-1 $822 6.1594774538951977 $492 22.39323303765287 $686 $829 forward 7 unknown #
point $-1 22.39323303765287 -28.754557622534961 13.206017845698542 #
point $-1 22.39323303765287 -22.556692096445666 13.206017845698542 #
edge $-1 $830 1 $830 0 $495 $-1 forward 7 unknown #
vertex $-1 $496 $831 #
ellipse-curve $-1 10.79769333496882 -24.640728928512804 9.523992101804243 0 -0.6018150307709319 0.79863550430605224 1 0 0 1 I I #
point $-1 11.79769333496882 -25.655624859490317 10.870804464759159 #
edge $-1 $832 1 $832 0 $499 $-1 forward 7 unknown #
vertex $-1 $500 $833 #
ellipse-curve $-1 17.75501715657925 -24.640728928512804 9.523992101804243 0 -0.6018150307709319 0.79863550430605224 1 0 0 1 I I #
point $-1 18.75501715657925 -25.655624859490317 10.870804464759159 #
plane-surface $-1 0 0 13.206017845698542 0 0 1 1 0 0 forward_v I I I I #
coedge $-1 $713 $712 $705 $834 forward $504 $-1 #
coedge $-1 $705 $506 $508 $709 reversed $339 $-1 #
coedge $-1 $506 $704 $703 $834 reversed $339 $-1 #
coedge $-1 $514 $509 $506 $707 forward $515 $-1 #
edge $-1 $710 -30.140447556536721 $835 -23.942582030447426 $706 $836 forward 7 unknown #
coedge $-1 $508 $507 $713 $837 reversed $213 $-1 #
edge $-1 $838 0 $710 7.76056848546287 $704 $839 forward 7 unknown #
vertex $-1 $510 $840 #
straight-curve $-1 19.609491528153494 -22.556692096445669 13.206017845698542 -1 0 0 I I #
coedge $-1 $703 $511 $514 $717 reversed $504 $-1 #
coedge $-1 $511 $703 $708 $837 forward $504 $-1 #
vertex $-1 $512 $841 #
straight-curve $-1 47.335860848185824 -28.754557622534961 55.119967427775165 0 0 1 I I #
straight-curve $-1 47.335860848185824 -28.754557622534961 8.5355910838197815 0 -0.79863550430605224 -0.6018150307709319 I I #
edge $-1 $835 31.102105264428154 $516 47.335860848185824 $712 $842 forward 7 unknown #
point $-1 47.335860848185824 -28.754557622534961 13.206017845698542 #
point $-1 47.335860848185824 -22.556692096445666 13.206017845698542 #
edge $-1 $843 1 $843 0 $519 $-1 forward 7 unknown #
vertex $-1 $520 $844 #
ellipse-curve $-1 35.740321145501774 -24.640728928512804 9.523992101804243 0 -0.6018150307709319 0.79863550430605224 1 0 0 1 I I #
point $-1 36.740321145501774 -25.655624859490317 10.870804464759159 #
edge $-1 $845 1 $845 0 $523 $-1 forward 7 unknown #
vertex $-1 $524 $846 #
ellipse-curve $-1 42.697644967112204 -24.640728928512804 9.523992101804243 0 -0.6018150307709319 0.79863550430605224 1 0 0 1 I I #
point $-1 43.697644967112204 -25.655624859490317 10.870804464759159 #
plane-surface $-1 0 28.754557622534961 0 0 -1 0 0 0 -1 forward_v I I I I #
coedge $-1 $531 $530 $533 $733 forward $227 $-1 #
edge $-1 $544 -63.673818170720544 $736 63.673818170720544 $542 $847 forward 7 unknown #
edge $-1 $734 -63.673818170720544 $548 63.673818170720544 $546 $848 forward 7 unknown #
straight-curve $-1 63.673818170720544 0 13.206017845698542 0 1 0 I I #
edge $-1 $736 -28.754557622534961 $734 28.754557622534961 $533 $849 forward 7 unknown #
vertex $-1 $733 $850 #
straight-curve $-1 -63.673818170720544 -28.754557622534961 0 0 0 -1 I I #
vertex $-1 $730 $851 #
straight-curve $-1 -63.673818170720544 28.754557622534961 0 0 0 -1 I I #
point $-1 -63.673818170720544 -28.754557622534961 -13.206017845698542 #
point $-1 -63.673818170720544 28.754557622534961 -13.206017845698542 #
point $-1 63.673818170720544 28.754557622534961 13.206017845698542 #
point $-1 63.673818170720544 -28.754557622534961 13.206017845698542 #
straight-curve $-1 0 -28.754557622534961 -13.206017845698542 -1 0 0 I I #
straight-curve $-1 0 28.754557622534961 -13.206017845698542 1 0 0 I I #
plane-surface $-1 0 0 13.206017845698542 0 0 1 1 0 0 forward_v I I I I #
coedge $-1 $559 $556 $561 $752 reversed $379 $-1 #
coedge $-1 $556 $559 $758 $852 reversed $379 $-1 #
edge $-1 $760 -13.206017845698542 $754 13.206017845698542 $573 $853 forward 7 unknown #
edge $-1 $749 -6.8942812748273212 $571 6.8942812748273212 $558 $854 forward 7 unknown #
vertex $-1 $852 $855 #
vertex $-1 $752 $856 #
straight-curve $-1 -77.462380720375194 -14.230104689239269 0 0 0 -1 I I #
edge $-1 $750 -3.3562155098133672 $754 3.3562155098133681 $745 $857 forward 7 unknown #
straight-curve $-1 -70.568099445547873 -14.230104689239269 -13.206017845698542 -1 0 0 I I #
vertex $-1 $563 $858 #
straight-curve $-1 -70.568099445547873 -7.5176736696125337 -13.206017845698542 1 0 0 I I #
point $-1 -63.673818170720551 -14.230104689239269 -13.206017845698542 #
straight-curve $-1 -63.673818170720544 -14.230104689239269 0 0 0 -1 I I #
coedge $-1 $569 $568 $746 $852 forward $570 $-1 #
point $-1 -63.673818170720551 -14.230104689239269 13.206017845698542 #
vertex $-1 $574 $859 #
straight-curve $-1 -70.568099445547873 -7.5176736696125337 13.206017845698542 -1 0 0 I I #
plane-surface $-1 0 0 13.206017845698542 0 0 1 1 0 0 forward_v I I I I #
coedge $-1 $767 $860 $594 $778 forward $578 $-1 #
coedge $-1 $580 $587 $590 $776 reversed $395 $-1 #
coedge $-1 $860 $767 $580 $766 reversed $578 $-1 #
edge $-1 $861 -13.206017845698542 $769 13.206017845698542 $765 $862 forward 7 unknown #
coedge $-1 $765 $763 $581 $768 reversed $578 $-1 #
edge $-1 $769 -3.3562155098133681 $771 3.3562155098133672 $767 $863 forward 7 unknown #
vertex $-1 $768 $864 #
straight-curve $-1 70.568099445547858 -7.5176736696125337 -13.206017845698542 1 0 0 I I #
vertex $-1 $778 $865 #
straight-curve $-1 70.568099445547858 -14.230104689239269 -13.206017845698542 -1 0 0 I I #
point $-1 63.67381817072053 -7.5176736696125337 -13.206017845698542 #
straight-curve $-1 63.673818170720544 -7.5176736696125337 0 0 0 -1 I I #
coedge $-1 $590 $589 $860 $866 forward $591 $-1 #
edge $-1 $861 -6.8942812748273354 $592 6.8942812748273283 $764 $867 forward 7 unknown #
point $-1 63.67381817072053 -7.5176736696125337 13.206017845698542 #
edge $-1 $779 -13.206017845698542 $771 13.206017845698542 $763 $868 forward 7 unknown #
vertex $-1 $866 $869 #
straight-curve $-1 70.568099445547858 -14.230104689239269 13.206017845698542 1 0 0 I I #
edge $-1 $782 47.165838525974536 $785 55.882603916152149 $599 $870 forward 7 unknown #
vertex $-1 $613 $871 #
straight-curve $-1 49.885255621065909 53.138145936530314 13.20601784569854 0 1 0 I I #
edge $-1 $785 -32.186547883575187 $610 -3.2108675914062665 $609 $872 forward 7 unknown #
vertex $-1 $784 $873 #
straight-curve $-1 49.885255621065909 -1.7206296855015637 53.259748606481082 0 -0.52991925155115449 0.84804810408105047 I I #
point $-1 49.885255621065909 23.307718263681256 13.20601784569854 #
point $-1 20.909575328896992 28.754557622534964 4.4892524555209263 #
straight-curve $-1 0 28.754557622534961 13.206017845698542 -1 0 0 I I #
vertex $-1 $616 $874 #
point $-1 31.68834112665953 22.162098018814255 6.4299907610558664 #
vertex $-1 $620 $875 #
point $-1 44.106489823303356 22.162098018814255 6.4299907610558664 #
coedge $-1 $635 $634 $627 $795 forward $624 $-1 #
edge $-1 $796 41.913949582076626 $799 46.584376343955384 $794 $876 forward 7 unknown #
vertex $-1 $639 $877 #
straight-curve $-1 -43.725778167170709 -52.697139652982386 13.20601784569854 0 -1 0 I I #
edge $-1 $799 -25.921327979524772 $636 -9.6875723957671021 $635 $878 forward 7 unknown #
vertex $-1 $798 $879 #
straight-curve $-1 -43.725778167170709 -28.754557622534961 8.5355910838197815 0 0.79863550430605224 0.6018150307709319 I I #
point $-1 -43.725778167170709 -22.556692096445666 13.206017845698542 #
point $-1 -27.492022583413039 -28.754557622534961 8.5355910838197815 #
straight-curve $-1 0 -28.754557622534961 13.206017845698542 1 0 0 I I #
vertex $-1 $642 $880 #
point $-1 -38.087562286097089 -24.640728928512804 9.523992101804243 #
vertex $-1 $646 $881 #
point $-1 -31.130238464486652 -24.640728928512804 9.523992101804243 #
edge $-1 $809 41.913949582076626 $812 46.584376343955384 $651 $882 forward 7 unknown #
vertex $-1 $665 $883 #
straight-curve $-1 -18.783150356637755 -52.697139652982386 13.20601784569854 0 -1 0 I I #
edge $-1 $812 -13.450014074258295 $662 2.7837415094993769 $661 $884 forward 7 unknown #
vertex $-1 $811 $885 #
straight-curve $-1 -18.783150356637755 -28.754557622534961 8.5355910838197815 0 0.79863550430605224 0.6018150307709319 I I #
point $-1 -18.783150356637755 -22.556692096445666 13.206017845698542 #
point $-1 -2.549394772880083 -28.754557622534961 8.5355910838197815 #
straight-curve $-1 0 -28.754557622534961 13.206017845698542 1 0 0 I I #
vertex $-1 $668 $886 #
point $-1 -13.144934475564135 -24.640728928512804 9.523992101804243 #
vertex $-1 $672 $887 #
point $-1 -6.1876106539537048 -24.640728928512804 9.523992101804243 #
edge $-1 $822 41.913949582076626 $825 46.584376343955384 $677 $888 forward 7 unknown #
vertex $-1 $691 $889 #
straight-curve $-1 6.1594774538951977 -52.697139652982386 13.20601784569854 0 -1 0 I I #
edge $-1 $825 -0.97870016899181955 $688 15.255055414765852 $687 $890 forward 7 unknown #
vertex $-1 $824 $891 #
straight-curve $-1 6.1594774538951977 -28.754557622534961 8.5355910838197815 0 0.79863550430605224 0.6018150307709319 I I #
point $-1 6.1594774538951977 -22.556692096445666 13.206017845698542 #
point $-1 22.39323303765287 -28.754557622534961 8.5355910838197815 #
straight-curve $-1 0 -28.754557622534961 13.206017845698542 1 0 0 I I #
vertex $-1 $694 $892 #
point $-1 11.79769333496882 -24.640728928512804 9.523992101804243 #
vertex $-1 $698 $893 #
point $-1 18.75501715657925 -24.640728928512804 9.523992101804243 #
edge $-1 $835 41.913949582076626 $838 46.584376343955384 $703 $894 forward 7 unknown #
vertex $-1 $717 $895 #
straight-curve $-1 31.102105264428154 -52.697139652982386 13.20601784569854 0 -1 0 I I #
edge $-1 $838 11.492613736274659 $714 27.72636932003233 $713 $896 forward 7 unknown #
vertex $-1 $837 $897 #
straight-curve $-1 31.102105264428154 -28.754557622534961 8.5355910838197815 0 0.79863550430605224 0.6018150307709319 I I #
point $-1 31.102105264428154 -22.556692096445666 13.206017845698542 #
point $-1 47.335860848185824 -28.754557622534961 8.5355910838197815 #
straight-curve $-1 0 -28.754557622534961 13.206017845698542 1 0 0 I I #
vertex $-1 $720 $898 #
point $-1 36.740321145501774 -24.640728928512804 9.523992101804243 #
vertex $-1 $724 $899 #
point $-1 43.697644967112204 -24.640728928512804 9.523992101804243 #
straight-curve $-1 0 28.754557622534961 13.206017845698542 -1 0 0 I I #
straight-curve $-1 0 -28.754557622534961 13.206017845698542 1 0 0 I I #
straight-curve $-1 -63.673818170720544 0 13.206017845698542 0 -1 0 I I #
point $-1 -63.673818170720544 -28.754557622534961 13.206017845698542 #
point $-1 -63.673818170720544 28.754557622534961 13.206017845698542 #
edge $-1 $760 -3.3562155098133681 $749 3.3562155098133672 $746 $900 forward 7 unknown #
straight-curve $-1 -77.462380720375194 -7.5176736696125337 0 0 0 -1 I I #
straight-curve $-1 -70.568099445547873 -14.230104689239269 13.206017845698542 1 0 0 I I #
point $-1 -77.462380720375194 -14.230104689239269 13.206017845698542 #
point $-1 -77.462380720375194 -14.230104689239269 -13.206017845698542 #
straight-curve $-1 -77.462380720375194 -10.873889179425902 -13.206017845698542 0 1 0 I I #
point $-1 -77.462380720375194 -7.5176736696125337 -13.206017845698542 #
point $-1 -77.462380720375194 -7.5176736696125337 13.206017845698542 #
coedge $-1 $763 $765 $775 $866 reversed $578 $-1 #
vertex $-1 $866 $901 #
straight-curve $-1 77.462380720375194 -7.5176736696125337 0 0 0 -1 I I #
straight-curve $-1 77.462380720375194 -10.873889179425902 -13.206017845698542 0 -1 0 I I #
point $-1 77.462380720375194 -7.5176736696125337 -13.206017845698542 #
point $-1 77.462380720375194 -14.230104689239269 -13.206017845698542 #
edge $-1 $779 -3.3562155098133672 $861 3.3562155098133681 $860 $902 forward 7 unknown #
straight-curve $-1 70.568099445547858 -7.5176736696125337 13.206017845698542 -1 0 0 I I #
straight-curve $-1 77.462380720375194 -14.230104689239269 0 0 0 -1 I I #
point $-1 77.462380720375194 -14.230104689239269 13.206017845698542 #
straight-curve $-1 49.885255621065909 28.754557622534961 60.371856371673076 0 0 -1 I I #
point $-1 49.885255621065909 28.754557622534961 13.206017845698542 #
straight-curve $-1 17.698707737490725 28.754557622534961 4.4892524555209299 -1 0 0 I I #
point $-1 49.885255621065909 28.754557622534964 4.4892524555209263 #
point $-1 29.18834112665953 20.04197775861163 5.1051926321779808 #
point $-1 41.606489823303356 20.04197775861163 5.1051926321779808 #
straight-curve $-1 -43.725778167170709 -28.754557622534961 55.119967427775165 0 0 -1 I I #
point $-1 -43.725778167170709 -28.754557622534961 13.206017845698542 #
straight-curve $-1 -17.804450187645937 -28.754557622534961 8.5355910838197815 1 0 0 I I #
point $-1 -43.725778167170709 -28.754557622534961 8.5355910838197815 #
point $-1 -39.087562286097089 -24.038913897741875 8.725356597498191 #
point $-1 -32.130238464486652 -24.038913897741875 8.725356597498191 #
straight-curve $-1 -18.783150356637755 -28.754557622534961 55.119967427775165 0 0 -1 I I #
point $-1 -18.783150356637755 -28.754557622534961 13.206017845698542 #
straight-curve $-1 -5.3331362823794599 -28.754557622534961 8.5355910838197815 1 0 0 I I #
point $-1 -18.783150356637755 -28.754557622534961 8.5355910838197815 #
point $-1 -14.144934475564135 -24.038913897741875 8.725356597498191 #
point $-1 -7.1876106539537048 -24.038913897741875 8.725356597498191 #
straight-curve $-1 6.1594774538951977 -28.754557622534961 55.119967427775165 0 0 -1 I I #
point $-1 6.1594774538951977 -28.754557622534961 13.206017845698542 #
straight-curve $-1 7.1381776228870173 -28.754557622534961 8.5355910838197815 1 0 0 I I #
point $-1 6.1594774538951977 -28.754557622534961 8.5355910838197815 #
point $-1 10.79769333496882 -24.038913897741875 8.725356597498191 #
point $-1 17.75501715657925 -24.038913897741875 8.725356597498191 #
straight-curve $-1 31.102105264428154 -28.754557622534961 55.119967427775165 0 0 -1 I I #
point $-1 31.102105264428154 -28.754557622534961 13.206017845698542 #
straight-curve $-1 19.609491528153494 -28.754557622534961 8.5355910838197815 1 0 0 I I #
point $-1 31.102105264428154 -28.754557622534961 8.5355910838197815 #
point $-1 35.740321145501774 -24.038913897741875 8.725356597498191 #
point $-1 42.697644967112204 -24.038913897741875 8.725356597498191 #
straight-curve $-1 -77.462380720375194 -10.873889179425902 13.206017845698542 0 -1 0 I I #
point $-1 77.462380720375194 -7.5176736696125337 13.206017845698542 #
straight-curve $-1 77.462380720375194 -10.873889179425902 13.206017845698542 0 1 0 I I #
End-of-ACIS-data 