500 0 8 0           
7 Unknown 11 ACIS 5.0 NT 24 Thu Mar 25 20:11:20 1999 
-1 9.9999999999999995e-007 1e-010 
body $-1 $8 $-1 $9 #
body $-1 $10 $-1 $11 #
body $-1 $12 $-1 $13 #
body $-1 $14 $-1 $15 #
body $-1 $16 $-1 $17 #
body $-1 $18 $-1 $19 #
body $-1 $20 $-1 $21 #
body $-1 $22 $-1 $23 #
lump $-1 $-1 $24 $0 #
transform $-1 1 0 0 0 1 0 0 0 1 69.823908200323501 33.481679519514842 16.70681345499959 1 rotate no_reflect no_shear #
lump $-1 $-1 $25 $1 #
transform $-1 1 0 0 0 1 0 0 0 1 69.823908200323501 33.481679519514842 16.70681345499959 1 rotate no_reflect no_shear #
lump $-1 $-1 $26 $2 #
transform $-1 1 0 0 0 1 0 0 0 1 69.823908200323501 33.481679519514842 16.70681345499959 1 rotate no_reflect no_shear #
lump $-1 $-1 $27 $3 #
transform $-1 1 0 0 0 1 0 0 0 1 69.823908200323501 33.481679519514842 16.70681345499959 1 rotate no_reflect no_shear #
lump $-1 $-1 $28 $4 #
transform $-1 1 0 0 0 1 0 0 0 1 69.823908200323501 33.481679519514842 16.70681345499959 1 rotate no_reflect no_shear #
lump $-1 $-1 $29 $5 #
transform $-1 1 0 0 0 1 0 0 0 1 69.823908200323501 33.481679519514842 16.70681345499959 1 rotate no_reflect no_shear #
lump $-1 $-1 $30 $6 #
transform $-1 1 0 0 0 1 0 0 0 1 69.823908200323501 33.481679519514842 16.70681345499959 1 rotate no_reflect no_shear #
lump $-1 $-1 $31 $7 #
transform $-1 1 0 0 0 1 0 0 0 1 69.823908200323501 33.481679519514842 16.70681345499959 1 rotate no_reflect no_shear #
shell $-1 $-1 $-1 $32 $-1 $8 #
shell $-1 $-1 $-1 $33 $-1 $10 #
shell $-1 $-1 $-1 $34 $-1 $12 #
shell $-1 $-1 $-1 $35 $-1 $14 #
shell $-1 $-1 $-1 $36 $-1 $16 #
shell $-1 $-1 $-1 $37 $-1 $18 #
shell $-1 $-1 $-1 $38 $-1 $20 #
shell $-1 $-1 $-1 $39 $-1 $22 #
face $-1 $40 $41 $24 $-1 $42 forward single #
face $-1 $43 $44 $25 $-1 $45 forward single #
face $-1 $46 $47 $26 $-1 $48 reversed single #
face $-1 $49 $50 $27 $-1 $51 forward single #
face $-1 $52 $53 $28 $-1 $54 forward single #
face $-1 $55 $56 $29 $-1 $57 reversed single #
face $-1 $58 $59 $30 $-1 $60 forward single #
face $-1 $61 $62 $31 $-1 $63 forward single #
face $-1 $64 $65 $24 $-1 $66 reversed single #
loop $-1 $-1 $67 $32 #
plane-surface $-1 0 0 16.70681345499959 0 0 1 1 0 0 forward_v I I I I #
face $-1 $68 $69 $25 $-1 $70 reversed single #
loop $-1 $-1 $71 $33 #
plane-surface $-1 0 -33.481679519514842 0 0 1 0 0 0 1 forward_v I I I I #
face $-1 $72 $73 $26 $-1 $74 reversed single #
loop $-1 $-1 $75 $34 #
plane-surface $-1 -182.80136603864509 -17.342888544378432 84.404972649203771 0 1 0 -0.80901700255871778 0 0.5877852410284794 forward_v I I I I #
face $-1 $76 $77 $27 $-1 $78 forward single #
loop $-1 $79 $80 $35 #
cone-surface $-1 -64.193827642033625 -15.165249287682258 9.2205377205098706 0.80901700255871778 0 -0.5877852410284794 0.14694631025711985 0 0.20225425063967944 1 I I 0 1 0.25 forward I I I I #
face $-1 $81 $82 $28 $-1 $83 forward single #
loop $-1 $84 $85 $36 #
cone-surface $-1 -64.193827642033625 -11.898790402637996 9.2205377205098706 0.80901700255871778 0 -0.5877852410284794 0.14694631025711985 0 0.20225425063967944 1 I I 0 1 0.25 forward I I I I #
face $-1 $86 $87 $29 $-1 $88 reversed single #
loop $-1 $-1 $89 $37 #
plane-surface $-1 -182.80136603864509 8.0693954875682046 84.404972649203771 0 1 0 -0.80901700255871778 0 0.5877852410284794 forward_v I I I I #
face $-1 $90 $91 $30 $-1 $92 forward single #
loop $-1 $93 $94 $38 #
cone-surface $-1 -64.193827642033625 10.247034744264383 9.2205377205098706 0.80901700255871778 0 -0.5877852410284794 0.14694631025711985 0 0.20225425063967944 1 I I 0 1 0.25 forward I I I I #
face $-1 $95 $96 $31 $-1 $97 forward single #
loop $-1 $98 $99 $39 #
cone-surface $-1 -64.193827642033625 13.513493629308641 9.2205377205098706 0.80901700255871778 0 -0.5877852410284794 0.14694631025711985 0 0.20225425063967944 1 I I 0 1 0.25 forward I I I I #
face $-1 $100 $101 $24 $-1 $102 reversed single #
loop $-1 $-1 $103 $40 #
plane-surface $-1 0 0 -16.70681345499959 0 0 1 1 0 0 forward_v I I I I #
coedge $-1 $104 $105 $106 $107 forward $41 $-1 #
face $-1 $108 $109 $25 $-1 $110 forward single #
loop $-1 $-1 $111 $43 #
plane-surface $-1 -69.823908200323501 0 0 1 0 0 0 0 -1 forward_v I I I I #
coedge $-1 $112 $113 $114 $115 forward $44 $-1 #
face $-1 $116 $117 $26 $-1 $118 reversed single #
loop $-1 $-1 $119 $46 #
plane-surface $-1 -69.823908200323501 -13.532019845160125 2.3220472270486283 -0.80901700255871778 0 0.5877852410284794 0.5877852410284794 0 0.80901700255871778 forward_v I I I I #
coedge $-1 $120 $121 $122 $123 reversed $47 $-1 #
face $-1 $-1 $124 $27 $-1 $125 forward single #
loop $-1 $126 $127 $49 #
cone-surface $-1 -63.688192015434424 -15.165249287682258 8.8531719448670714 0.80901700255871778 0 -0.5877852410284794 0.073473155128559925 0 0.10112712531983972 1 I I -0.70710678118654746 0.70710678118654746 0.125 forward I I I I #
loop $-1 $-1 $128 $35 #
coedge $-1 $80 $80 $129 $130 reversed $50 $-1 #
face $-1 $-1 $131 $28 $-1 $132 forward single #
loop $-1 $133 $134 $52 #
cone-surface $-1 -63.688192015434424 -11.898790402637996 8.8531719448670714 0.80901700255871778 0 -0.5877852410284794 0.073473155128559925 0 0.10112712531983972 1 I I -0.70710678118654746 0.70710678118654746 0.125 forward I I I I #
loop $-1 $-1 $135 $36 #
coedge $-1 $85 $85 $136 $137 reversed $53 $-1 #
face $-1 $138 $139 $29 $-1 $140 reversed single #
loop $-1 $-1 $141 $55 #
plane-surface $-1 -69.823908200323501 11.880264186786512 2.3220472270486283 -0.80901700255871778 0 0.5877852410284794 0.5877852410284794 0 0.80901700255871778 forward_v I I I I #
coedge $-1 $142 $143 $144 $145 reversed $56 $-1 #
face $-1 $-1 $146 $30 $-1 $147 forward single #
loop $-1 $148 $149 $58 #
cone-surface $-1 -63.688192015434424 10.247034744264383 8.8531719448670714 0.80901700255871778 0 -0.5877852410284794 0.073473155128559925 0 0.10112712531983972 1 I I -0.70710678118654746 0.70710678118654746 0.125 forward I I I I #
loop $-1 $-1 $150 $38 #
coedge $-1 $94 $94 $151 $152 reversed $59 $-1 #
face $-1 $-1 $153 $31 $-1 $154 forward single #
loop $-1 $155 $156 $61 #
cone-surface $-1 -63.688192015434424 13.513493629308641 8.8531719448670714 0.80901700255871778 0 -0.5877852410284794 0.073473155128559925 0 0.10112712531983972 1 I I -0.70710678118654746 0.70710678118654746 0.125 forward I I I I #
loop $-1 $-1 $157 $39 #
coedge $-1 $99 $99 $158 $159 reversed $62 $-1 #
face $-1 $160 $161 $24 $-1 $162 reversed single #
loop $-1 $-1 $163 $64 #
plane-surface $-1 0 -33.481679519514842 0 0 1 0 0 0 1 forward_v I I I I #
coedge $-1 $164 $165 $166 $167 forward $65 $-1 #
coedge $-1 $168 $67 $169 $170 forward $41 $-1 #
coedge $-1 $67 $168 $171 $172 forward $41 $-1 #
coedge $-1 $173 $174 $67 $107 reversed $175 $-1 #
edge $-1 $176 -33.481679519514842 $177 33.481679519514842 $106 $178 forward 7 unknown #
face $-1 $179 $180 $25 $-1 $181 reversed single #
loop $-1 $-1 $182 $68 #
plane-surface $-1 0 -41.551075007083043 14.761586482087738 0 0 1 1 0 0 forward_v I I I I #
coedge $-1 $183 $184 $113 $185 forward $69 $-1 #
coedge $-1 $186 $71 $187 $188 reversed $44 $-1 #
coedge $-1 $71 $186 $111 $185 reversed $44 $-1 #
coedge $-1 $189 $182 $71 $115 reversed $109 $-1 #
edge $-1 $190 -69.823908200323501 $191 69.823908200323501 $114 $192 forward 7 unknown #
face $-1 $193 $194 $26 $-1 $195 forward single #
loop $-1 $-1 $196 $72 #
plane-surface $-1 -182.80136603864509 -9.7211511459418176 84.404972649203771 0 -1 0 0.80901700255871778 0 -0.5877852410284794 forward_v I I I I #
coedge $-1 $197 $198 $199 $200 reversed $73 $-1 #
coedge $-1 $121 $75 $201 $202 reversed $47 $-1 #
coedge $-1 $75 $120 $197 $203 reversed $47 $-1 #
coedge $-1 $199 $204 $75 $123 forward $194 $-1 #
edge $-1 $205 21.576774818999041 $206 32.027918933020082 $122 $207 forward 7 unknown #
loop $-1 $-1 $129 $76 #
plane-surface $-1 -69.823908200323501 -13.532019845160125 2.3220472270486283 -0.80901700255871778 0 0.5877852410284794 0.5877852410284794 0 0.80901700255871778 forward_v I I I I #
loop $-1 $-1 $208 $49 #
coedge $-1 $127 $127 $128 $209 reversed $77 $-1 #
coedge $-1 $128 $128 $127 $209 forward $79 $-1 #
coedge $-1 $129 $129 $80 $130 forward $124 $-1 #
edge $-1 $210 0 $210 6.2831853071796004 $129 $211 forward 7 unknown #
loop $-1 $-1 $136 $81 #
plane-surface $-1 -69.823908200323501 -13.532019845160125 2.3220472270486283 -0.80901700255871778 0 0.5877852410284794 0.5877852410284794 0 0.80901700255871778 forward_v I I I I #
loop $-1 $-1 $212 $52 #
coedge $-1 $134 $134 $135 $213 reversed $82 $-1 #
coedge $-1 $135 $135 $134 $213 forward $84 $-1 #
coedge $-1 $136 $136 $85 $137 forward $131 $-1 #
edge $-1 $214 0 $214 6.2831853071796004 $136 $215 forward 7 unknown #
face $-1 $216 $217 $29 $-1 $218 forward single #
loop $-1 $-1 $219 $86 #
plane-surface $-1 -182.80136603864509 15.691132886004819 84.404972649203771 0 -1 0 0.80901700255871778 0 -0.5877852410284794 forward_v I I I I #
coedge $-1 $220 $221 $222 $223 reversed $87 $-1 #
coedge $-1 $143 $89 $224 $225 reversed $56 $-1 #
coedge $-1 $89 $142 $220 $226 reversed $56 $-1 #
coedge $-1 $222 $227 $89 $145 forward $217 $-1 #
edge $-1 $228 21.576774818999041 $229 32.027918933020082 $144 $230 forward 7 unknown #
loop $-1 $-1 $151 $90 #
plane-surface $-1 -69.823908200323501 11.880264186786512 2.3220472270486283 -0.80901700255871778 0 0.5877852410284794 0.5877852410284794 0 0.80901700255871778 forward_v I I I I #
loop $-1 $-1 $231 $58 #
coedge $-1 $149 $149 $150 $232 reversed $91 $-1 #
coedge $-1 $150 $150 $149 $232 forward $93 $-1 #
coedge $-1 $151 $151 $94 $152 forward $146 $-1 #
edge $-1 $233 0 $233 6.2831853071796004 $151 $234 forward 7 unknown #
loop $-1 $-1 $158 $95 #
plane-surface $-1 -69.823908200323501 11.880264186786512 2.3220472270486283 -0.80901700255871778 0 0.5877852410284794 0.5877852410284794 0 0.80901700255871778 forward_v I I I I #
loop $-1 $-1 $235 $61 #
coedge $-1 $156 $156 $157 $236 reversed $96 $-1 #
coedge $-1 $157 $157 $156 $236 forward $98 $-1 #
coedge $-1 $158 $158 $99 $159 forward $153 $-1 #
edge $-1 $237 0 $237 6.2831853071796004 $158 $238 forward 7 unknown #
face $-1 $239 $240 $24 $-1 $241 reversed single #
loop $-1 $-1 $242 $100 #
plane-surface $-1 -69.823908200323501 0 0 1 0 0 0 0 -1 forward_v I I I I #
coedge $-1 $243 $171 $244 $245 forward $101 $-1 #
coedge $-1 $246 $103 $243 $247 forward $65 $-1 #
coedge $-1 $103 $246 $248 $249 forward $65 $-1 #
coedge $-1 $174 $173 $103 $167 reversed $175 $-1 #
edge $-1 $250 -33.481679519514842 $251 33.481679519514842 $166 $252 forward 7 unknown #
coedge $-1 $105 $104 $253 $254 forward $41 $-1 #
coedge $-1 $255 $256 $104 $170 reversed $240 $-1 #
edge $-1 $177 -69.823908200323501 $257 69.823908200323501 $169 $258 forward 7 unknown #
coedge $-1 $163 $259 $105 $172 reversed $101 $-1 #
edge $-1 $260 -69.823908200323501 $176 69.823908200323501 $171 $261 forward 7 unknown #
coedge $-1 $166 $106 $259 $262 forward $175 $-1 #
coedge $-1 $106 $166 $255 $263 reversed $175 $-1 #
loop $-1 $-1 $173 $239 #
vertex $-1 $107 $264 #
vertex $-1 $107 $265 #
straight-curve $-1 69.823908200323501 0 16.70681345499959 0 1 0 I I #
face $-1 $266 $267 $25 $-1 $268 reversed single #
loop $-1 $-1 $269 $108 #
plane-surface $-1 0 -41.551075007083043 8.2194824310272292 0 0 1 1 0 0 forward_v I I I I #
coedge $-1 $114 $270 $271 $272 forward $109 $-1 #
coedge $-1 $273 $111 $274 $275 reversed $69 $-1 #
coedge $-1 $111 $273 $189 $276 reversed $69 $-1 #
edge $-1 $190 -14.761586482087738 $277 -8.2194824310272292 $111 $278 forward 7 unknown #
coedge $-1 $113 $112 $279 $280 forward $44 $-1 #
coedge $-1 $271 $281 $112 $188 forward $282 $-1 #
edge $-1 $283 8.2194824310272292 $191 14.761586482087738 $187 $284 forward 7 unknown #
coedge $-1 $270 $114 $184 $276 forward $109 $-1 #
vertex $-1 $185 $285 #
vertex $-1 $272 $286 #
straight-curve $-1 0 -33.481679519514842 14.761586482087738 1 0 0 I I #
face $-1 $-1 $287 $26 $-1 $288 reversed single #
loop $-1 $-1 $122 $116 #
plane-surface $-1 0 0 16.70681345499959 0 0 1 1 0 0 forward_v I I I I #
coedge $-1 $289 $290 $291 $292 reversed $117 $-1 #
coedge $-1 $293 $119 $121 $203 forward $73 $-1 #
coedge $-1 $119 $293 $289 $294 forward $73 $-1 #
coedge $-1 $291 $122 $119 $200 forward $194 $-1 #
edge $-1 $206 -10.57687862179837 $295 -2.9551412233617551 $199 $296 forward 7 unknown #
coedge $-1 $297 $298 $120 $202 forward $287 $-1 #
edge $-1 $299 -39.880439097553257 $205 -25.495672869602295 $201 $300 forward 7 unknown #
edge $-1 $206 -17.780548718327992 $299 0 $121 $301 forward 7 unknown #
coedge $-1 $122 $291 $297 $302 forward $194 $-1 #
vertex $-1 $202 $303 #
vertex $-1 $123 $304 #
straight-curve $-1 -91.400683019322543 -17.342888544378432 16.70681345499959 1 0 0 I I #
coedge $-1 $208 $208 $-1 $305 reversed $126 $-1 #
edge $-1 $306 0 $306 6.2831853071796004 $127 $307 forward 7 unknown #
vertex $-1 $130 $308 #
ellipse-curve $-1 -64.598336143312977 -15.165249287682258 9.5144303410241093 -0.80901700255871778 0 0.5877852410284794 0.14694631025711985 0 0.20225425063967944 1 I I #
coedge $-1 $212 $212 $-1 $309 reversed $133 $-1 #
edge $-1 $310 0 $310 6.2831853071796004 $134 $311 forward 7 unknown #
vertex $-1 $137 $312 #
ellipse-curve $-1 -64.598336143312977 -11.898790402637996 9.5144303410241093 -0.80901700255871778 0 0.5877852410284794 0.14694631025711985 0 0.20225425063967944 1 I I #
face $-1 $-1 $313 $29 $-1 $314 reversed single #
loop $-1 $-1 $144 $138 #
plane-surface $-1 0 0 16.70681345499959 0 0 1 1 0 0 forward_v I I I I #
coedge $-1 $315 $316 $317 $318 reversed $139 $-1 #
coedge $-1 $319 $141 $143 $226 forward $87 $-1 #
coedge $-1 $141 $319 $315 $320 forward $87 $-1 #
coedge $-1 $317 $144 $141 $223 forward $217 $-1 #
edge $-1 $229 2.1292633941749486 $321 9.7510007926115634 $222 $322 forward 7 unknown #
coedge $-1 $323 $324 $142 $225 forward $313 $-1 #
edge $-1 $325 -39.880439097553257 $228 -25.495672869602295 $224 $326 forward 7 unknown #
edge $-1 $229 -17.780548718327992 $325 0 $143 $327 forward 7 unknown #
coedge $-1 $144 $317 $323 $328 forward $217 $-1 #
vertex $-1 $145 $329 #
vertex $-1 $145 $330 #
straight-curve $-1 -91.400683019322543 8.0693954875682046 16.70681345499959 1 0 0 I I #
coedge $-1 $231 $231 $-1 $331 reversed $148 $-1 #
edge $-1 $332 0 $332 6.2831853071796004 $149 $333 forward 7 unknown #
vertex $-1 $152 $334 #
ellipse-curve $-1 -64.598336143312977 10.247034744264383 9.5144303410241093 -0.80901700255871778 0 0.5877852410284794 0.14694631025711985 0 0.20225425063967944 1 I I #
coedge $-1 $235 $235 $-1 $335 reversed $155 $-1 #
edge $-1 $336 0 $336 6.2831853071796004 $156 $337 forward 7 unknown #
vertex $-1 $159 $338 #
ellipse-curve $-1 -64.598336143312977 13.513493629308641 9.5144303410241093 -0.80901700255871778 0 0.5877852410284794 0.14694631025711985 0 0.20225425063967944 1 I I #
face $-1 $-1 $175 $24 $-1 $339 reversed single #
loop $-1 $-1 $255 $160 #
plane-surface $-1 0 33.481679519514842 0 0 -1 0 0 0 -1 forward_v I I I I #
coedge $-1 $340 $253 $256 $341 forward $161 $-1 #
coedge $-1 $259 $163 $164 $247 reversed $101 $-1 #
coedge $-1 $253 $340 $163 $245 reversed $161 $-1 #
edge $-1 $260 -16.70681345499959 $342 16.70681345499959 $244 $343 forward 7 unknown #
coedge $-1 $165 $164 $340 $344 forward $65 $-1 #
edge $-1 $251 -69.823908200323501 $342 69.823908200323501 $243 $345 forward 7 unknown #
coedge $-1 $256 $255 $165 $249 reversed $240 $-1 #
edge $-1 $346 -69.823908200323501 $250 69.823908200323501 $248 $347 forward 7 unknown #
vertex $-1 $167 $348 #
vertex $-1 $262 $349 #
straight-curve $-1 69.823908200323501 0 -16.70681345499959 0 -1 0 I I #
coedge $-1 $242 $244 $168 $254 reversed $161 $-1 #
edge $-1 $257 -33.481679519514842 $260 33.481679519514842 $253 $350 forward 7 unknown #
coedge $-1 $248 $169 $174 $263 forward $240 $-1 #
coedge $-1 $169 $248 $242 $341 reversed $240 $-1 #
vertex $-1 $170 $351 #
straight-curve $-1 0 33.481679519514842 16.70681345499959 -1 0 0 I I #
coedge $-1 $171 $243 $173 $262 reversed $101 $-1 #
vertex $-1 $254 $352 #
straight-curve $-1 0 -33.481679519514842 16.70681345499959 1 0 0 I I #
edge $-1 $176 -16.70681345499959 $251 16.70681345499959 $173 $353 forward 7 unknown #
edge $-1 $177 -16.70681345499959 $250 16.70681345499959 $174 $354 forward 7 unknown #
point $-1 69.823908200323501 -33.481679519514842 16.70681345499959 #
point $-1 69.823908200323501 33.481679519514842 16.70681345499959 #
face $-1 $-1 $282 $25 $-1 $355 reversed single #
loop $-1 $-1 $356 $179 #
plane-surface $-1 0 -49.620470494651244 11.490534456557484 0 1 0 0 0 1 forward_v I I I I #
coedge $-1 $357 $279 $281 $358 forward $180 $-1 #
coedge $-1 $182 $189 $359 $360 forward $109 $-1 #
coedge $-1 $361 $187 $182 $272 reversed $282 $-1 #
edge $-1 $362 -8.069395487568201 $191 8.069395487568201 $271 $363 forward 7 unknown #
coedge $-1 $184 $183 $356 $364 reversed $69 $-1 #
coedge $-1 $279 $357 $183 $275 forward $180 $-1 #
edge $-1 $365 -8.069395487568201 $277 8.069395487568201 $183 $366 forward 7 unknown #
edge $-1 $190 -8.069395487568201 $367 8.069395487568201 $184 $368 forward 7 unknown #
vertex $-1 $185 $369 #
straight-curve $-1 -69.823908200323501 -33.481679519514842 0 0 0 -1 I I #
coedge $-1 $269 $274 $186 $280 reversed $180 $-1 #
edge $-1 $283 -69.823908200323501 $277 69.823908200323501 $279 $370 forward 7 unknown #
coedge $-1 $187 $361 $269 $358 reversed $282 $-1 #
loop $-1 $-1 $187 $266 #
vertex $-1 $188 $371 #
straight-curve $-1 69.823908200323501 -33.481679519514842 0 0 0 1 I I #
point $-1 -69.823908200323501 -33.481679519514842 14.761586482087738 #
point $-1 69.823908200323501 -33.481679519514842 14.761586482087738 #
loop $-1 $-1 $201 $193 #
plane-surface $-1 -69.823908200323501 0 0 1 0 0 0 0 -1 forward_v I I I I #
coedge $-1 $290 $196 $198 $294 reversed $117 $-1 #
coedge $-1 $196 $289 $372 $373 reversed $117 $-1 #
coedge $-1 $204 $199 $196 $292 forward $194 $-1 #
edge $-1 $295 -32.027918933020082 $374 -21.576774818999041 $291 $375 forward 7 unknown #
coedge $-1 $198 $197 $298 $376 reversed $73 $-1 #
edge $-1 $377 0 $295 17.780548718327992 $289 $378 forward 7 unknown #
vertex $-1 $200 $379 #
straight-curve $-1 -59.37276408630246 -6.7660099225800625 16.70681345499959 0 1 0 I I #
coedge $-1 $372 $201 $204 $302 reversed $287 $-1 #
coedge $-1 $201 $372 $293 $376 forward $287 $-1 #
vertex $-1 $202 $380 #
straight-curve $-1 -69.823908200323501 -17.342888544378432 42.202486324601885 0 0 1 I I #
straight-curve $-1 -69.823908200323501 -17.342888544378432 2.3220472270486283 -0.5877852410284794 0 -0.80901700255871778 I I #
edge $-1 $374 9.7211511459418176 $205 17.342888544378432 $297 $381 forward 7 unknown #
point $-1 -69.823908200323501 -17.342888544378432 16.70681345499959 #
point $-1 -59.37276408630246 -17.342888544378432 16.70681345499959 #
edge $-1 $382 1 $382 0 $208 $-1 forward 7 unknown #
vertex $-1 $209 $383 #
ellipse-curve $-1 -63.789319140754266 -15.165249287682258 8.9266450999956319 -0.80901700255871778 0 0.5877852410284794 0.14694631025711985 0 0.20225425063967944 1 I I #
point $-1 -64.451389833055856 -15.165249287682258 9.7166845916637907 #
edge $-1 $384 1 $384 0 $212 $-1 forward 7 unknown #
vertex $-1 $213 $385 #
ellipse-curve $-1 -63.789319140754266 -11.898790402637996 8.9266450999956319 -0.80901700255871778 0 0.5877852410284794 0.14694631025711985 0 0.20225425063967944 1 I I #
point $-1 -64.451389833055856 -11.898790402637996 9.7166845916637907 #
loop $-1 $-1 $224 $216 #
plane-surface $-1 -69.823908200323501 0 0 1 0 0 0 0 -1 forward_v I I I I #
coedge $-1 $316 $219 $221 $320 reversed $139 $-1 #
coedge $-1 $219 $315 $386 $387 reversed $139 $-1 #
coedge $-1 $227 $222 $219 $318 forward $217 $-1 #
edge $-1 $321 -32.027918933020082 $388 -21.576774818999041 $317 $389 forward 7 unknown #
coedge $-1 $221 $220 $324 $390 reversed $87 $-1 #
edge $-1 $391 0 $321 17.780548718327992 $315 $392 forward 7 unknown #
vertex $-1 $223 $393 #
straight-curve $-1 -59.37276408630246 5.940132093393256 16.70681345499959 0 1 0 I I #
coedge $-1 $386 $224 $227 $328 reversed $313 $-1 #
coedge $-1 $224 $386 $319 $390 forward $313 $-1 #
vertex $-1 $225 $394 #
straight-curve $-1 -69.823908200323501 8.0693954875682046 42.202486324601885 0 0 1 I I #
straight-curve $-1 -69.823908200323501 8.0693954875682046 2.3220472270486283 -0.5877852410284794 0 -0.80901700255871778 I I #
edge $-1 $388 -15.691132886004819 $228 -8.0693954875682046 $323 $395 forward 7 unknown #
point $-1 -69.823908200323501 8.0693954875682046 16.70681345499959 #
point $-1 -59.37276408630246 8.0693954875682046 16.70681345499959 #
edge $-1 $396 1 $396 0 $231 $-1 forward 7 unknown #
vertex $-1 $232 $397 #
ellipse-curve $-1 -63.789319140754266 10.247034744264383 8.9266450999956319 -0.80901700255871778 0 0.5877852410284794 0.14694631025711985 0 0.20225425063967944 1 I I #
point $-1 -64.451389833055856 10.247034744264383 9.7166845916637907 #
edge $-1 $398 1 $398 0 $235 $-1 forward 7 unknown #
vertex $-1 $236 $399 #
ellipse-curve $-1 -63.789319140754266 13.513493629308641 8.9266450999956319 -0.80901700255871778 0 0.5877852410284794 0.14694631025711985 0 0.20225425063967944 1 I I #
point $-1 -64.451389833055856 13.513493629308641 9.7166845916637907 #
plane-surface $-1 69.823908200323501 0 0 -1 0 0 0 0 1 forward_v I I I I #
coedge $-1 $244 $242 $246 $344 reversed $161 $-1 #
edge $-1 $257 -16.70681345499959 $346 16.70681345499959 $256 $400 forward 7 unknown #
vertex $-1 $344 $401 #
straight-curve $-1 -69.823908200323501 -33.481679519514842 0 0 0 -1 I I #
edge $-1 $342 -33.481679519514842 $346 33.481679519514842 $340 $402 forward 7 unknown #
straight-curve $-1 0 -33.481679519514842 -16.70681345499959 -1 0 0 I I #
vertex $-1 $249 $403 #
straight-curve $-1 0 33.481679519514842 -16.70681345499959 1 0 0 I I #
point $-1 69.823908200323501 33.481679519514842 -16.70681345499959 #
point $-1 69.823908200323501 -33.481679519514842 -16.70681345499959 #
straight-curve $-1 -69.823908200323501 0 16.70681345499959 0 -1 0 I I #
point $-1 -69.823908200323501 33.481679519514842 16.70681345499959 #
point $-1 -69.823908200323501 -33.481679519514842 16.70681345499959 #
straight-curve $-1 69.823908200323501 -33.481679519514842 0 0 0 -1 I I #
straight-curve $-1 69.823908200323501 33.481679519514842 0 0 0 -1 I I #
plane-surface $-1 69.823908200323501 0 0 -1 0 0 0 0 1 forward_v I I I I #
coedge $-1 $404 $359 $273 $364 forward $267 $-1 #
coedge $-1 $274 $269 $404 $405 forward $180 $-1 #
edge $-1 $283 -8.069395487568201 $406 8.069395487568201 $281 $407 forward 7 unknown #
coedge $-1 $356 $408 $270 $360 reversed $267 $-1 #
edge $-1 $367 -69.823908200323501 $362 69.823908200323501 $359 $409 forward 7 unknown #
coedge $-1 $281 $271 $408 $410 forward $282 $-1 #
vertex $-1 $272 $411 #
straight-curve $-1 69.823908200323501 -41.551075007083043 14.761586482087738 0 1 0 I I #
edge $-1 $367 -3.2710520255302544 $365 3.2710520255302544 $273 $412 forward 7 unknown #
vertex $-1 $275 $413 #
straight-curve $-1 -69.823908200323501 -41.551075007083043 8.2194824310272292 0 1 0 I I #
vertex $-1 $276 $414 #
straight-curve $-1 -69.823908200323501 -41.551075007083043 14.761586482087738 0 -1 0 I I #
point $-1 -69.823908200323501 -33.481679519514842 8.2194824310272292 #
straight-curve $-1 0 -33.481679519514842 8.2194824310272292 -1 0 0 I I #
point $-1 69.823908200323501 -33.481679519514842 8.2194824310272292 #
coedge $-1 $298 $297 $290 $373 forward $287 $-1 #
edge $-1 $374 25.495672869602295 $377 39.880439097553257 $372 $415 forward 7 unknown #
vertex $-1 $302 $416 #
straight-curve $-1 -91.400683019322543 -9.7211511459418176 16.70681345499959 -1 0 0 I I #
edge $-1 $377 2.9551412233617551 $299 10.57687862179837 $298 $417 forward 7 unknown #
vertex $-1 $376 $418 #
straight-curve $-1 -69.823908200323501 -9.7211511459418176 2.3220472270486283 0.5877852410284794 0 0.80901700255871778 I I #
point $-1 -59.37276408630246 -9.7211511459418176 16.70681345499959 #
point $-1 -69.823908200323501 -17.342888544378432 2.3220472270486283 #
straight-curve $-1 -69.823908200323501 0 16.70681345499959 0 -1 0 I I #
vertex $-1 $305 $419 #
point $-1 -63.642372830497145 -15.165249287682258 9.1288993506353115 #
vertex $-1 $309 $420 #
point $-1 -63.642372830497145 -11.898790402637996 9.1288993506353115 #
coedge $-1 $324 $323 $316 $387 forward $313 $-1 #
edge $-1 $388 25.495672869602295 $391 39.880439097553257 $386 $421 forward 7 unknown #
vertex $-1 $328 $422 #
straight-curve $-1 -91.400683019322543 15.691132886004819 16.70681345499959 -1 0 0 I I #
edge $-1 $391 -9.7510007926115634 $325 -2.1292633941749486 $324 $423 forward 7 unknown #
vertex $-1 $390 $424 #
straight-curve $-1 -69.823908200323501 15.691132886004819 2.3220472270486283 0.5877852410284794 0 0.80901700255871778 I I #
point $-1 -59.37276408630246 15.691132886004819 16.70681345499959 #
point $-1 -69.823908200323501 8.0693954875682046 2.3220472270486283 #
straight-curve $-1 -69.823908200323501 0 16.70681345499959 0 -1 0 I I #
vertex $-1 $331 $425 #
point $-1 -63.642372830497145 10.247034744264383 9.1288993506353115 #
vertex $-1 $335 $426 #
point $-1 -63.642372830497145 13.513493629308641 9.1288993506353115 #
straight-curve $-1 -69.823908200323501 33.481679519514842 0 0 0 -1 I I #
point $-1 -69.823908200323501 -33.481679519514842 -16.70681345499959 #
straight-curve $-1 -69.823908200323501 0 -16.70681345499959 0 1 0 I I #
point $-1 -69.823908200323501 33.481679519514842 -16.70681345499959 #
coedge $-1 $408 $356 $357 $405 reversed $267 $-1 #
edge $-1 $406 -69.823908200323501 $365 69.823908200323501 $404 $427 forward 7 unknown #
vertex $-1 $410 $428 #
straight-curve $-1 69.823908200323501 -41.551075007083043 8.2194824310272292 0 -1 0 I I #
coedge $-1 $359 $404 $361 $410 reversed $267 $-1 #
straight-curve $-1 0 -49.620470494651244 14.761586482087738 1 0 0 I I #
edge $-1 $362 -3.2710520255302544 $406 3.2710520255302544 $361 $429 forward 7 unknown #
point $-1 69.823908200323501 -49.620470494651244 14.761586482087738 #
straight-curve $-1 -69.823908200323501 -49.620470494651244 11.490534456557484 0 0 -1 I I #
point $-1 -69.823908200323501 -49.620470494651244 8.2194824310272292 #
point $-1 -69.823908200323501 -49.620470494651244 14.761586482087738 #
straight-curve $-1 -69.823908200323501 -9.7211511459418176 42.202486324601885 0 0 -1 I I #
point $-1 -69.823908200323501 -9.7211511459418176 16.70681345499959 #
straight-curve $-1 -69.823908200323501 -6.7660099225800625 2.3220472270486221 0 -1 0 I I #
point $-1 -69.823908200323501 -9.7211511459418176 2.3220472270486283 #
point $-1 -63.587064890114583 -15.165249287682258 8.7796987897385108 #
point $-1 -63.587064890114583 -11.898790402637996 8.7796987897385108 #
straight-curve $-1 -69.823908200323501 15.691132886004819 42.202486324601885 0 0 -1 I I #
point $-1 -69.823908200323501 15.691132886004819 16.70681345499959 #
straight-curve $-1 -69.823908200323501 5.940132093393256 2.3220472270486221 0 -1 0 I I #
point $-1 -69.823908200323501 15.691132886004819 2.3220472270486283 #
point $-1 -63.587064890114583 10.247034744264383 8.7796987897385108 #
point $-1 -63.587064890114583 13.513493629308641 8.7796987897385108 #
straight-curve $-1 0 -49.620470494651244 8.2194824310272292 -1 0 0 I I #
point $-1 69.823908200323501 -49.620470494651244 8.2194824310272292 #
straight-curve $-1 69.823908200323501 -49.620470494651244 11.490534456557484 0 0 -1 I I #
End-of-ACIS-data 