500 0 8 0           
7 Unknown 11 ACIS 5.0 NT 24 Thu Mar 25 19:32:48 1999 
-1 9.9999999999999995e-007 1e-010 
body $-1 $8 $-1 $9 #
body $-1 $10 $-1 $11 #
body $-1 $12 $-1 $13 #
body $-1 $14 $-1 $15 #
body $-1 $16 $-1 $17 #
body $-1 $18 $-1 $19 #
body $-1 $20 $-1 $21 #
body $-1 $22 $-1 $23 #
lump $-1 $-1 $24 $0 #
transform $-1 1 0 0 0 1 0 0 0 1 56.248054445020905 26.269920236638477 9.6893330180956951 1 rotate no_reflect no_shear #
lump $-1 $-1 $25 $1 #
transform $-1 1 0 0 0 1 0 0 0 1 56.248054445020905 26.269920236638477 9.6893330180956951 1 rotate no_reflect no_shear #
lump $-1 $-1 $26 $2 #
transform $-1 1 0 0 0 1 0 0 0 1 56.248054445020905 26.269920236638477 9.6893330180956951 1 rotate no_reflect no_shear #
lump $-1 $-1 $27 $3 #
transform $-1 1 0 0 0 1 0 0 0 1 56.248054445020905 26.269920236638477 9.6893330180956951 1 rotate no_reflect no_shear #
lump $-1 $-1 $28 $4 #
transform $-1 1 0 0 0 1 0 0 0 1 56.248054445020905 26.269920236638477 9.6893330180956951 1 rotate no_reflect no_shear #
lump $-1 $-1 $29 $5 #
transform $-1 1 0 0 0 1 0 0 0 1 56.248054445020905 26.269920236638477 9.6893330180956951 1 rotate no_reflect no_shear #
lump $-1 $-1 $30 $6 #
transform $-1 1 0 0 0 1 0 0 0 1 56.248054445020905 26.269920236638477 9.6893330180956951 1 rotate no_reflect no_shear #
lump $-1 $-1 $31 $7 #
transform $-1 1 0 0 0 1 0 0 0 1 56.248054445020905 26.269920236638477 9.6893330180956951 1 rotate no_reflect no_shear #
shell $-1 $-1 $-1 $32 $-1 $8 #
shell $-1 $-1 $-1 $33 $-1 $10 #
shell $-1 $-1 $-1 $34 $-1 $12 #
shell $-1 $-1 $-1 $35 $-1 $14 #
shell $-1 $-1 $-1 $36 $-1 $16 #
shell $-1 $-1 $-1 $37 $-1 $18 #
shell $-1 $-1 $-1 $38 $-1 $20 #
shell $-1 $-1 $-1 $39 $-1 $22 #
face $-1 $40 $41 $24 $-1 $42 forward single #
face $-1 $43 $44 $25 $-1 $45 reversed single #
face $-1 $46 $47 $26 $-1 $48 reversed single #
face $-1 $49 $50 $27 $-1 $51 reversed single #
face $-1 $52 $53 $28 $-1 $54 forward single #
face $-1 $55 $56 $29 $-1 $57 reversed single #
face $-1 $58 $59 $30 $-1 $60 forward single #
face $-1 $61 $62 $31 $-1 $63 forward single #
face $-1 $64 $65 $24 $-1 $66 reversed single #
loop $-1 $-1 $67 $32 #
plane-surface $-1 0 0 9.6893330180956951 0 0 1 1 0 0 forward_v I I I I #
face $-1 $68 $69 $25 $-1 $70 reversed single #
loop $-1 $-1 $71 $33 #
plane-surface $-1 0 -17.420179590083634 7.0435214644163437 0 -1 0 0 0 -1 forward_v I I I I #
face $-1 $72 $73 $26 $-1 $74 reversed single #
loop $-1 $-1 $75 $34 #
plane-surface $-1 0 21.845049913361059 4.3977099107369941 0 0 1 1 0 0 forward_v I I I I #
face $-1 $76 $77 $27 $-1 $78 reversed single #
loop $-1 $-1 $79 $35 #
plane-surface $-1 -16.063049376475334 12.797871579482752 86.978915222278943 0.7660444514056185 0 0.64278759981090561 0.64278759981090561 0 -0.7660444514056185 forward_v I I I I #
face $-1 $80 $81 $28 $-1 $82 forward single #
loop $-1 $83 $84 $36 #
cone-surface $-1 51.314320134984904 12.797871579482752 4.2344894222436258 -0.7660444514056185 0 -0.64278759981090561 0.64278759981090561 0 -0.7660444514056185 1 I I 0 1 1 forward I I I I #
face $-1 $85 $86 $29 $-1 $87 reversed single #
loop $-1 $-1 $88 $37 #
plane-surface $-1 -56.248054445020919 -13.696051403944821 0.16107314527657479 -0.52991927123019833 0 0.84804809178421925 0.84804809178421925 0 0.52991927123019833 forward_v I I I I #
face $-1 $89 $90 $30 $-1 $91 forward single #
loop $-1 $92 $93 $38 #
cone-surface $-1 -48.358893311307952 -15.292106340861455 4.501179035794026 0.52991927123019833 0 -0.84804809178421925 0.42402404589210962 0 0.26495963561509916 1 I I 0 1 0.5 forward I I I I #
face $-1 $94 $95 $31 $-1 $96 forward single #
loop $-1 $97 $98 $39 #
cone-surface $-1 -48.358893311307952 -12.099996467028188 4.501179035794026 0.52991927123019833 0 -0.84804809178421925 0.42402404589210962 0 0.26495963561509916 1 I I 0 1 0.5 forward I I I I #
face $-1 $99 $100 $24 $-1 $101 reversed single #
loop $-1 $-1 $102 $40 #
plane-surface $-1 0 0 -9.6893330180956951 0 0 1 1 0 0 forward_v I I I I #
coedge $-1 $103 $104 $105 $106 forward $41 $-1 #
face $-1 $107 $108 $25 $-1 $109 reversed single #
loop $-1 $-1 $110 $43 #
plane-surface $-1 0 -21.845049913361056 4.3977099107369941 0 0 1 1 0 0 forward_v I I I I #
coedge $-1 $111 $112 $113 $114 reversed $44 $-1 #
face $-1 $115 $116 $26 $-1 $117 forward single #
loop $-1 $-1 $118 $46 #
plane-surface $-1 0 17.420179590083638 7.0435214644163437 0 1 0 0 0 1 forward_v I I I I #
coedge $-1 $119 $120 $121 $122 reversed $47 $-1 #
face $-1 $123 $124 $27 $-1 $125 forward single #
loop $-1 $-1 $126 $49 #
plane-surface $-1 70.11397064346346 8.1755635688818664 159.2900190437752 0 1 0 0.7660444514056185 0 0.64278759981090561 forward_v I I I I #
coedge $-1 $127 $128 $129 $130 reversed $50 $-1 #
face $-1 $-1 $131 $28 $-1 $132 forward single #
loop $-1 $133 $134 $52 #
cone-surface $-1 49.726286398279392 12.797871579482752 2.901970934363888 -0.7660444514056185 0 -0.64278759981090561 0.3213937999054528 0 -0.38302222570280925 1 I I -0.70710678118654746 0.70710678118654746 0.5 forward I I I I #
loop $-1 $-1 $135 $36 #
coedge $-1 $84 $84 $136 $137 reversed $53 $-1 #
face $-1 $138 $139 $29 $-1 $140 reversed single #
loop $-1 $-1 $141 $55 #
plane-surface $-1 -115.86191048426491 -9.9719232178060082 95.563183622626269 0 -1 0 0.52991927123019833 0 -0.84804809178421925 forward_v I I I I #
coedge $-1 $142 $143 $144 $145 reversed $56 $-1 #
face $-1 $-1 $146 $30 $-1 $147 forward single #
loop $-1 $148 $149 $58 #
cone-surface $-1 -47.961453857885303 -15.292106340861455 3.8651429669558617 0.52991927123019833 0 -0.84804809178421925 0.21201202294605481 0 0.13247981780754958 1 I I -0.70710678118654746 0.70710678118654746 0.25 forward I I I I #
loop $-1 $-1 $150 $38 #
coedge $-1 $93 $93 $151 $152 reversed $59 $-1 #
face $-1 $-1 $153 $31 $-1 $154 forward single #
loop $-1 $155 $156 $61 #
cone-surface $-1 -47.961453857885303 -12.099996467028188 3.8651429669558617 0.52991927123019833 0 -0.84804809178421925 0.21201202294605481 0 0.13247981780754958 1 I I -0.70710678118654746 0.70710678118654746 0.25 forward I I I I #
loop $-1 $-1 $157 $39 #
coedge $-1 $98 $98 $158 $159 reversed $62 $-1 #
face $-1 $160 $161 $24 $-1 $162 reversed single #
loop $-1 $-1 $163 $64 #
plane-surface $-1 0 -26.269920236638477 0 0 1 0 0 0 1 forward_v I I I I #
coedge $-1 $164 $165 $166 $167 forward $65 $-1 #
coedge $-1 $168 $67 $169 $170 forward $41 $-1 #
coedge $-1 $67 $168 $171 $172 forward $41 $-1 #
coedge $-1 $173 $174 $67 $106 reversed $175 $-1 #
edge $-1 $176 -26.269920236638477 $177 26.269920236638477 $105 $178 forward 7 unknown #
face $-1 $179 $180 $25 $-1 $181 reversed single #
loop $-1 $-1 $182 $68 #
plane-surface $-1 -56.248054445020905 0 0 1 0 0 0 0 -1 forward_v I I I I #
coedge $-1 $183 $184 $185 $186 reversed $69 $-1 #
coedge $-1 $187 $71 $188 $189 reversed $44 $-1 #
coedge $-1 $71 $187 $182 $190 reversed $44 $-1 #
coedge $-1 $191 $192 $71 $114 forward $193 $-1 #
edge $-1 $194 -56.248054445020905 $195 56.248054445020905 $113 $196 forward 7 unknown #
face $-1 $197 $198 $26 $-1 $199 reversed single #
loop $-1 $-1 $200 $72 #
plane-surface $-1 0 0 9.6893330180956951 0 0 1 1 0 0 forward_v I I I I #
coedge $-1 $201 $202 $200 $203 reversed $73 $-1 #
coedge $-1 $204 $75 $205 $206 forward $47 $-1 #
coedge $-1 $75 $204 $207 $208 reversed $47 $-1 #
coedge $-1 $209 $210 $75 $122 forward $198 $-1 #
edge $-1 $211 6.4976546334031084 $212 15.347395279957951 $121 $213 forward 7 unknown #
face $-1 $214 $215 $27 $-1 $216 reversed single #
loop $-1 $-1 $129 $76 #
plane-surface $-1 0 0 9.6893330180956951 0 0 1 1 0 0 forward_v I I I I #
coedge $-1 $217 $218 $219 $220 reversed $77 $-1 #
coedge $-1 $221 $79 $222 $223 reversed $50 $-1 #
coedge $-1 $79 $221 $217 $224 forward $50 $-1 #
coedge $-1 $219 $225 $79 $130 forward $124 $-1 #
edge $-1 $226 -11.021243800342262 $227 -1.7766277791404903 $129 $228 forward 7 unknown #
loop $-1 $-1 $136 $80 #
plane-surface $-1 -16.063049376475334 12.797871579482752 86.978915222278943 0.7660444514056185 0 0.64278759981090561 0.64278759981090561 0 -0.7660444514056185 forward_v I I I I #
loop $-1 $-1 $229 $52 #
coedge $-1 $134 $134 $135 $230 reversed $81 $-1 #
coedge $-1 $135 $135 $134 $230 forward $83 $-1 #
coedge $-1 $136 $136 $84 $137 forward $131 $-1 #
edge $-1 $231 0 $231 6.2831853071796004 $136 $232 forward 7 unknown #
face $-1 $233 $234 $29 $-1 $235 forward single #
loop $-1 $-1 $236 $85 #
plane-surface $-1 -56.248054445020905 0 0 1 0 0 0 0 -1 forward_v I I I I #
coedge $-1 $237 $238 $239 $240 reversed $86 $-1 #
coedge $-1 $241 $88 $242 $243 reversed $56 $-1 #
coedge $-1 $88 $241 $237 $244 forward $56 $-1 #
coedge $-1 $239 $245 $88 $145 forward $234 $-1 #
edge $-1 $246 -10.572153888111224 $247 -3.1238975158335975 $144 $248 forward 7 unknown #
loop $-1 $-1 $151 $89 #
plane-surface $-1 -56.248054445020919 -13.696051403944821 0.16107314527657479 -0.52991927123019833 0 0.84804809178421925 0.84804809178421925 0 0.52991927123019833 forward_v I I I I #
loop $-1 $-1 $249 $58 #
coedge $-1 $149 $149 $150 $250 reversed $90 $-1 #
coedge $-1 $150 $150 $149 $250 forward $92 $-1 #
coedge $-1 $151 $151 $93 $152 forward $146 $-1 #
edge $-1 $251 0 $251 6.2831853071796004 $151 $252 forward 7 unknown #
loop $-1 $-1 $158 $94 #
plane-surface $-1 -56.248054445020919 -13.696051403944821 0.16107314527657479 -0.52991927123019833 0 0.84804809178421925 0.84804809178421925 0 0.52991927123019833 forward_v I I I I #
loop $-1 $-1 $253 $61 #
coedge $-1 $156 $156 $157 $254 reversed $95 $-1 #
coedge $-1 $157 $157 $156 $254 forward $97 $-1 #
coedge $-1 $158 $158 $98 $159 forward $153 $-1 #
edge $-1 $255 0 $255 6.2831853071796004 $158 $256 forward 7 unknown #
face $-1 $257 $258 $24 $-1 $259 reversed single #
loop $-1 $-1 $260 $99 #
plane-surface $-1 -56.248054445020905 0 0 1 0 0 0 0 -1 forward_v I I I I #
coedge $-1 $261 $171 $262 $263 forward $100 $-1 #
coedge $-1 $264 $102 $261 $265 forward $65 $-1 #
coedge $-1 $102 $264 $266 $267 forward $65 $-1 #
coedge $-1 $174 $173 $102 $167 reversed $175 $-1 #
edge $-1 $268 -26.269920236638477 $269 26.269920236638477 $166 $270 forward 7 unknown #
coedge $-1 $104 $103 $271 $272 forward $41 $-1 #
coedge $-1 $273 $274 $103 $170 reversed $258 $-1 #
edge $-1 $177 -56.248054445020905 $275 56.248054445020905 $169 $276 forward 7 unknown #
coedge $-1 $163 $277 $104 $172 reversed $100 $-1 #
edge $-1 $278 -56.248054445020905 $176 56.248054445020905 $171 $279 forward 7 unknown #
coedge $-1 $166 $105 $277 $280 forward $175 $-1 #
coedge $-1 $105 $166 $273 $281 reversed $175 $-1 #
loop $-1 $-1 $173 $257 #
vertex $-1 $106 $282 #
vertex $-1 $106 $283 #
straight-curve $-1 56.248054445020905 0 9.6893330180956951 0 1 0 I I #
face $-1 $284 $193 $25 $-1 $285 forward single #
loop $-1 $-1 $286 $107 #
plane-surface $-1 0 -26.269920236638477 0 0 1 0 0 0 1 forward_v I I I I #
coedge $-1 $287 $288 $112 $190 forward $108 $-1 #
coedge $-1 $289 $110 $286 $290 reversed $69 $-1 #
coedge $-1 $110 $289 $187 $291 forward $69 $-1 #
coedge $-1 $188 $292 $110 $186 forward $293 $-1 #
edge $-1 $294 -15.347395279957949 $295 -6.4976546334031067 $185 $296 forward 7 unknown #
coedge $-1 $112 $111 $184 $291 reversed $44 $-1 #
coedge $-1 $297 $185 $111 $189 forward $293 $-1 #
edge $-1 $295 0.87594917852882226 $194 6.1675722858875215 $188 $298 forward 7 unknown #
edge $-1 $195 -6.1675722858875215 $299 -0.87594917852882226 $182 $300 forward 7 unknown #
coedge $-1 $301 $113 $288 $302 forward $193 $-1 #
coedge $-1 $113 $301 $297 $303 forward $193 $-1 #
loop $-1 $-1 $113 $179 #
vertex $-1 $189 $304 #
vertex $-1 $302 $305 #
straight-curve $-1 0 -17.420179590083634 9.6893330180956951 -1 0 0 I I #
face $-1 $306 $307 $26 $-1 $308 reversed single #
loop $-1 $-1 $210 $115 #
plane-surface $-1 56.248054445020905 0 0 -1 0 0 0 0 1 forward_v I I I I #
coedge $-1 $309 $310 $118 $203 forward $116 $-1 #
coedge $-1 $205 $118 $311 $312 reversed $73 $-1 #
coedge $-1 $118 $205 $210 $313 reversed $73 $-1 #
edge $-1 $314 -56.248054445020905 $315 56.248054445020905 $200 $316 forward 7 unknown #
coedge $-1 $120 $119 $317 $318 reversed $47 $-1 #
coedge $-1 $202 $201 $119 $206 reversed $73 $-1 #
edge $-1 $211 -56.248054445020905 $319 56.248054445020905 $205 $320 forward 7 unknown #
coedge $-1 $321 $322 $120 $208 forward $323 $-1 #
edge $-1 $212 -56.248054445020905 $324 56.248054445020905 $207 $325 forward 7 unknown #
coedge $-1 $326 $121 $322 $327 reversed $198 $-1 #
coedge $-1 $121 $326 $202 $313 forward $198 $-1 #
vertex $-1 $122 $328 #
vertex $-1 $208 $329 #
straight-curve $-1 56.248054445020905 10.92252495668053 4.3977099107369941 0 1 0 I I #
face $-1 $-1 $330 $27 $-1 $331 forward single #
loop $-1 $-1 $332 $123 #
plane-surface $-1 56.248054445020905 0 0 -1 0 0 0 0 1 forward_v I I I I #
coedge $-1 $218 $126 $128 $224 reversed $77 $-1 #
coedge $-1 $126 $217 $332 $333 reversed $77 $-1 #
coedge $-1 $334 $129 $126 $220 forward $124 $-1 #
edge $-1 $227 13.733623525222569 $335 21.191069123289175 $219 $336 forward 7 unknown #
coedge $-1 $128 $127 $337 $338 reversed $50 $-1 #
coedge $-1 $339 $340 $127 $223 forward $330 $-1 #
edge $-1 $341 -76.716511983300478 $226 -65.11478600062685 $222 $342 forward 7 unknown #
edge $-1 $343 -112.4961088900418 $227 -100.89438290736818 $217 $344 forward 7 unknown #
coedge $-1 $129 $334 $339 $345 forward $124 $-1 #
vertex $-1 $223 $346 #
vertex $-1 $130 $347 #
straight-curve $-1 48.790608846954299 6.3989357897413761 9.6893330180957022 0 -1 0 I I #
coedge $-1 $229 $229 $-1 $348 reversed $133 $-1 #
edge $-1 $349 0 $349 6.2831853071796004 $134 $350 forward 7 unknown #
vertex $-1 $137 $351 #
ellipse-curve $-1 52.519331645987606 12.797871579482752 5.2456141102179146 0.7660444514056185 0 0.64278759981090561 0.64278759981090561 0 -0.7660444514056185 1 I I #
face $-1 $-1 $352 $29 $-1 $353 forward single #
loop $-1 $-1 $239 $138 #
plane-surface $-1 0 0 9.6893330180956951 0 0 1 1 0 0 forward_v I I I I #
coedge $-1 $354 $355 $238 $356 forward $139 $-1 #
coedge $-1 $238 $141 $143 $244 reversed $86 $-1 #
coedge $-1 $141 $237 $236 $356 reversed $86 $-1 #
coedge $-1 $357 $144 $141 $240 forward $234 $-1 #
edge $-1 $247 -16.931303793307244 $358 -1.6829007971115502 $239 $359 forward 7 unknown #
coedge $-1 $143 $142 $354 $360 reversed $56 $-1 #
coedge $-1 $361 $362 $142 $243 forward $352 $-1 #
edge $-1 $363 -25.674098618116439 $246 -7.6935110265396638 $242 $364 forward 7 unknown #
edge $-1 $365 1.675811683274863e-014 $247 17.980587591576793 $237 $366 forward 7 unknown #
coedge $-1 $144 $357 $361 $367 forward $234 $-1 #
vertex $-1 $243 $368 #
vertex $-1 $145 $369 #
straight-curve $-1 -40.999651448825212 -6.8480257019724107 9.6893330180956951 0 1 0 I I #
coedge $-1 $249 $249 $-1 $370 reversed $148 $-1 #
edge $-1 $371 0 $371 6.2831853071796004 $149 $372 forward 7 unknown #
vertex $-1 $152 $373 #
ellipse-curve $-1 -48.623852946923051 -15.292106340861455 4.9252030816861421 -0.52991927123019833 0 0.84804809178421925 0.42402404589210962 0 0.26495963561509916 1 I I #
coedge $-1 $253 $253 $-1 $374 reversed $155 $-1 #
edge $-1 $375 0 $375 6.2831853071796004 $156 $376 forward 7 unknown #
vertex $-1 $159 $377 #
ellipse-curve $-1 -48.623852946923051 -12.099996467028188 4.9252030816861421 -0.52991927123019833 0 0.84804809178421925 0.42402404589210962 0 0.26495963561509916 1 I I #
face $-1 $-1 $175 $24 $-1 $378 reversed single #
loop $-1 $-1 $273 $160 #
plane-surface $-1 0 26.269920236638477 0 0 -1 0 0 0 -1 forward_v I I I I #
coedge $-1 $379 $271 $274 $380 forward $161 $-1 #
coedge $-1 $277 $163 $164 $265 reversed $100 $-1 #
coedge $-1 $271 $379 $163 $263 reversed $161 $-1 #
edge $-1 $278 -9.6893330180956951 $381 9.6893330180956951 $262 $382 forward 7 unknown #
coedge $-1 $165 $164 $379 $383 forward $65 $-1 #
edge $-1 $269 -56.248054445020905 $381 56.248054445020905 $261 $384 forward 7 unknown #
coedge $-1 $274 $273 $165 $267 reversed $258 $-1 #
edge $-1 $385 -56.248054445020905 $268 56.248054445020905 $266 $386 forward 7 unknown #
vertex $-1 $167 $387 #
vertex $-1 $280 $388 #
straight-curve $-1 56.248054445020905 0 -9.6893330180956951 0 -1 0 I I #
coedge $-1 $260 $262 $168 $272 reversed $161 $-1 #
edge $-1 $275 -26.269920236638477 $278 26.269920236638477 $271 $389 forward 7 unknown #
coedge $-1 $266 $169 $174 $281 forward $258 $-1 #
coedge $-1 $169 $266 $260 $380 reversed $258 $-1 #
vertex $-1 $170 $390 #
straight-curve $-1 0 26.269920236638477 9.6893330180956951 -1 0 0 I I #
coedge $-1 $171 $261 $173 $280 reversed $100 $-1 #
vertex $-1 $272 $391 #
straight-curve $-1 0 -26.269920236638477 9.6893330180956951 1 0 0 I I #
edge $-1 $176 -9.6893330180956951 $269 9.6893330180956951 $173 $392 forward 7 unknown #
edge $-1 $177 -9.6893330180956951 $268 9.6893330180956951 $174 $393 forward 7 unknown #
point $-1 56.248054445020905 -26.269920236638477 9.6893330180956951 #
point $-1 56.248054445020905 26.269920236638477 9.6893330180956951 #
face $-1 $-1 $293 $25 $-1 $394 reversed single #
plane-surface $-1 0 0 9.6893330180956951 0 0 1 1 0 0 forward_v I I I I #
coedge $-1 $395 $396 $183 $290 forward $180 $-1 #
coedge $-1 $397 $182 $289 $398 forward $108 $-1 #
coedge $-1 $182 $397 $191 $302 reversed $108 $-1 #
coedge $-1 $184 $183 $287 $398 reversed $69 $-1 #
edge $-1 $399 -56.248054445020905 $294 56.248054445020905 $286 $400 forward 7 unknown #
edge $-1 $299 -56.248054445020905 $295 56.248054445020905 $187 $401 forward 7 unknown #
coedge $-1 $185 $297 $395 $402 forward $293 $-1 #
loop $-1 $-1 $188 $284 #
vertex $-1 $290 $403 #
vertex $-1 $186 $404 #
straight-curve $-1 56.248054445020905 -10.922524956680528 4.3977099107369941 0 1 0 I I #
coedge $-1 $292 $188 $192 $303 reversed $293 $-1 #
straight-curve $-1 56.248054445020905 -17.420179590083634 3.5217607322081719 0 0 1 I I #
vertex $-1 $398 $405 #
straight-curve $-1 -56.248054445020905 -17.420179590083634 3.5217607322081719 0 0 -1 I I #
coedge $-1 $192 $191 $406 $407 forward $193 $-1 #
edge $-1 $195 17.420179590083634 $408 26.269920236638477 $288 $409 forward 7 unknown #
edge $-1 $410 -26.269920236638477 $194 -17.420179590083634 $297 $411 forward 7 unknown #
point $-1 56.248054445020905 -17.420179590083634 9.6893330180956934 #
point $-1 -56.248054445020905 -17.420179590083634 9.6893330180956934 #
face $-1 $-1 $323 $26 $-1 $412 reversed single #
loop $-1 $-1 $311 $197 #
plane-surface $-1 -56.248054445020905 0 0 1 0 0 0 0 -1 forward_v I I I I #
coedge $-1 $413 $200 $326 $414 forward $116 $-1 #
coedge $-1 $200 $413 $415 $416 forward $116 $-1 #
coedge $-1 $415 $317 $201 $312 forward $307 $-1 #
edge $-1 $319 0.87594917852882226 $314 6.1675722858875215 $311 $417 forward 7 unknown #
edge $-1 $315 -6.1675722858875215 $211 -0.87594917852882226 $210 $418 forward 7 unknown #
vertex $-1 $312 $419 #
vertex $-1 $414 $420 #
straight-curve $-1 0 17.420179590083638 9.6893330180956951 1 0 0 I I #
coedge $-1 $311 $421 $204 $318 forward $307 $-1 #
edge $-1 $324 -15.347395279957951 $319 -6.4976546334031084 $317 $422 forward 7 unknown #
vertex $-1 $318 $423 #
straight-curve $-1 0 17.420179590083638 4.3977099107369941 -1 0 0 I I #
coedge $-1 $424 $207 $421 $425 reversed $323 $-1 #
coedge $-1 $207 $424 $209 $327 forward $323 $-1 #
loop $-1 $-1 $207 $306 #
vertex $-1 $208 $426 #
straight-curve $-1 0 26.269920236638477 4.3977099107369941 -1 0 0 I I #
coedge $-1 $210 $209 $309 $414 reversed $198 $-1 #
edge $-1 $427 -9.6893330180956951 $212 -4.3977099107369941 $209 $428 forward 7 unknown #
point $-1 56.248054445020905 17.420179590083638 4.3977099107369941 #
point $-1 56.248054445020905 26.26992023663848 4.3977099107369941 #
loop $-1 $-1 $222 $214 #
plane-surface $-1 0 17.420179590083638 7.0435214644163437 0 1 0 0 0 1 forward_v I I I I #
coedge $-1 $337 $429 $218 $333 forward $215 $-1 #
edge $-1 $335 69.955676503791906 $343 78.843114319547425 $332 $430 forward 7 unknown #
coedge $-1 $225 $219 $429 $431 forward $124 $-1 #
vertex $-1 $431 $432 #
straight-curve $-1 35.05698532173173 8.1755635688818664 9.6893330180956951 1 0 0 I I #
coedge $-1 $433 $332 $221 $338 forward $215 $-1 #
edge $-1 $343 1.7766277791404903 $341 11.021243800342262 $337 $434 forward 7 unknown #
coedge $-1 $340 $222 $225 $345 reversed $330 $-1 #
coedge $-1 $222 $339 $433 $435 reversed $330 $-1 #
vertex $-1 $435 $436 #
straight-curve $-1 6.9356318414106077 17.420179590083638 59.570153538340136 -0.64278759981090572 0 0.76604445140561861 I I #
vertex $-1 $338 $437 #
straight-curve $-1 -16.063049376475334 8.1755635688818664 86.978915222278943 -0.64278759981090561 0 0.7660444514056185 I I #
edge $-1 $438 -56.248054445020905 $226 -48.790608846954292 $225 $439 forward 7 unknown #
point $-1 48.790608846954292 17.420179590083638 9.6893330180956951 #
point $-1 48.790608846954299 8.1755635688818664 9.6893330180956951 #
edge $-1 $440 1 $440 0 $229 $-1 forward 7 unknown #
vertex $-1 $230 $441 #
ellipse-curve $-1 50.109308623982201 12.797871579482752 3.2233647342693406 0.7660444514056185 0 0.64278759981090561 0.64278759981090561 0 -0.7660444514056185 1 I I #
point $-1 53.162119245798507 12.797871579482752 4.4795696588122933 #
loop $-1 $-1 $242 $233 #
plane-surface $-1 0 -17.420179590083634 7.0435214644163437 0 -1 0 0 0 -1 forward_v I I I I #
coedge $-1 $442 $236 $241 $360 forward $139 $-1 #
coedge $-1 $236 $442 $357 $443 reversed $139 $-1 #
edge $-1 $358 38.092258793217439 $365 47.620518666036553 $236 $444 forward 7 unknown #
coedge $-1 $245 $239 $355 $443 forward $234 $-1 #
vertex $-1 $443 $445 #
straight-curve $-1 -57.930955242132455 -9.9719232178060082 9.6893330180956951 -1 0 0 I I #
edge $-1 $365 3.1238975158335975 $363 10.572153888111224 $354 $446 forward 7 unknown #
coedge $-1 $362 $242 $245 $367 reversed $352 $-1 #
coedge $-1 $242 $361 $442 $447 reversed $352 $-1 #
vertex $-1 $447 $448 #
straight-curve $-1 -34.4751841036474 -17.420179590083634 13.766272774481088 0.84804809178421925 0 0.52991927123019833 I I #
vertex $-1 $360 $449 #
straight-curve $-1 -56.248054445020919 -9.9719232178060082 0.16107314527657479 0.84804809178421925 0 0.52991927123019833 I I #
edge $-1 $450 -56.248054445020905 $246 -40.999651448825212 $245 $451 forward 7 unknown #
point $-1 -40.999651448825212 -17.420179590083634 9.6893330180956951 #
point $-1 -40.999651448825212 -9.9719232178060082 9.6893330180956951 #
edge $-1 $452 1 $452 0 $249 $-1 forward 7 unknown #
vertex $-1 $250 $453 #
ellipse-curve $-1 -48.093933675692853 -15.292106340861455 4.0771549899019162 -0.52991927123019833 0 0.84804809178421925 0.42402404589210962 0 0.26495963561509916 1 I I #
point $-1 -48.199828901030941 -15.292106340861455 5.1901627173012352 #
edge $-1 $454 1 $454 0 $253 $-1 forward 7 unknown #
vertex $-1 $254 $455 #
ellipse-curve $-1 -48.093933675692853 -12.099996467028188 4.0771549899019162 -0.52991927123019833 0 0.84804809178421925 0.42402404589210962 0 0.26495963561509916 1 I I #
point $-1 -48.199828901030941 -12.099996467028188 5.1901627173012352 #
plane-surface $-1 56.248054445020905 0 0 -1 0 0 0 0 1 forward_v I I I I #
coedge $-1 $262 $260 $264 $383 reversed $161 $-1 #
edge $-1 $275 -9.6893330180956951 $385 9.6893330180956951 $274 $456 forward 7 unknown #
vertex $-1 $383 $457 #
straight-curve $-1 -56.248054445020905 -26.269920236638477 0 0 0 -1 I I #
edge $-1 $381 -26.269920236638477 $385 26.269920236638477 $379 $458 forward 7 unknown #
straight-curve $-1 0 -26.269920236638477 -9.6893330180956951 -1 0 0 I I #
vertex $-1 $267 $459 #
straight-curve $-1 0 26.269920236638477 -9.6893330180956951 1 0 0 I I #
point $-1 56.248054445020905 26.269920236638477 -9.6893330180956951 #
point $-1 56.248054445020905 -26.269920236638477 -9.6893330180956951 #
straight-curve $-1 -56.248054445020905 0 9.6893330180956951 0 -1 0 I I #
point $-1 -56.248054445020905 26.269920236638477 9.6893330180956951 #
point $-1 -56.248054445020905 -26.269920236638477 9.6893330180956951 #
straight-curve $-1 56.248054445020905 -26.269920236638477 0 0 0 -1 I I #
straight-curve $-1 56.248054445020905 26.269920236638477 0 0 0 -1 I I #
plane-surface $-1 56.248054445020905 0 0 -1 0 0 0 0 1 forward_v I I I I #
coedge $-1 $406 $286 $292 $402 reversed $180 $-1 #
coedge $-1 $286 $406 $397 $460 forward $180 $-1 #
coedge $-1 $288 $287 $396 $460 reversed $108 $-1 #
edge $-1 $299 6.4976546334031067 $399 15.347395279957949 $287 $461 forward 7 unknown #
vertex $-1 $290 $462 #
straight-curve $-1 0 -26.269920236638477 4.3977099107369941 1 0 0 I I #
straight-curve $-1 0 -17.420179590083634 4.3977099107369941 1 0 0 I I #
edge $-1 $410 -9.6893330180956951 $294 -4.3977099107369941 $292 $463 forward 7 unknown #
point $-1 56.248054445020905 -26.269920236638477 4.3977099107369941 #
point $-1 56.248054445020905 -17.420179590083634 4.3977099107369941 #
point $-1 -56.248054445020905 -17.420179590083634 4.3977099107369941 #
coedge $-1 $396 $395 $301 $407 reversed $180 $-1 #
edge $-1 $408 -56.248054445020905 $410 56.248054445020905 $406 $464 forward 7 unknown #
vertex $-1 $302 $465 #
straight-curve $-1 -56.248054445020905 0 9.6893330180956951 0 -1 0 I I #
vertex $-1 $303 $466 #
straight-curve $-1 56.248054445020905 0 9.6893330180956951 0 1 0 I I #
plane-surface $-1 0 26.269920236638477 0 0 -1 0 0 0 -1 forward_v I I I I #
coedge $-1 $310 $309 $424 $467 forward $116 $-1 #
edge $-1 $315 17.420179590083638 $427 26.269920236638477 $326 $468 forward 7 unknown #
coedge $-1 $421 $311 $310 $416 reversed $307 $-1 #
edge $-1 $469 -26.269920236638477 $314 -17.420179590083638 $415 $470 forward 7 unknown #
straight-curve $-1 -56.248054445020905 17.420179590083638 3.5217607322081719 0 0 1 I I #
straight-curve $-1 56.248054445020905 17.420179590083638 3.5217607322081719 0 0 -1 I I #
point $-1 -56.248054445020905 17.420179590083638 9.6893330180956934 #
point $-1 56.248054445020905 17.420179590083638 9.6893330180956934 #
coedge $-1 $317 $415 $321 $425 forward $307 $-1 #
straight-curve $-1 -56.248054445020905 10.92252495668053 4.3977099107369941 0 -1 0 I I #
point $-1 -56.248054445020905 17.420179590083638 4.3977099107369941 #
coedge $-1 $322 $321 $413 $467 reversed $323 $-1 #
edge $-1 $469 -9.6893330180956951 $324 -4.3977099107369941 $321 $471 forward 7 unknown #
point $-1 -56.248054445020905 26.26992023663848 4.3977099107369941 #
vertex $-1 $414 $472 #
straight-curve $-1 56.248054445020905 26.269920236638477 0 0 0 -1 I I #
coedge $-1 $332 $433 $334 $431 reversed $215 $-1 #
straight-curve $-1 56.248054445020905 8.1755635688818664 79.645009521887602 0 0 -1 I I #
edge $-1 $335 8.1755635688818664 $438 17.420179590083638 $429 $473 forward 7 unknown #
point $-1 56.248054445020905 8.1755635688818664 9.6893330180956951 #
coedge $-1 $429 $337 $340 $435 forward $215 $-1 #
straight-curve $-1 56.248054445020905 6.3989357897413761 0.80189520234016243 0 1 0 I I #
edge $-1 $341 -78.843114319547425 $438 -69.955676503791906 $433 $474 forward 7 unknown #
point $-1 56.248054445020898 17.420179590083638 0.80189520234017664 #
point $-1 56.248054445020898 8.1755635688818664 0.80189520234017664 #
vertex $-1 $345 $475 #
straight-curve $-1 0 17.420179590083638 9.6893330180956951 -1 0 0 I I #
vertex $-1 $348 $476 #
point $-1 50.752096223793103 12.797871579482752 2.4573202828637224 #
coedge $-1 $355 $354 $362 $447 forward $139 $-1 #
edge $-1 $358 9.9719232178060082 $450 17.420179590083634 $355 $477 forward 7 unknown #
straight-curve $-1 -56.248054445020905 -9.9719232178060082 47.781591811313135 0 0 -1 I I #
point $-1 -56.248054445020905 -9.9719232178060082 9.6893330180956951 #
straight-curve $-1 -56.248054445020905 -6.8480257019724107 0.16107314527658179 0 -1 0 I I #
edge $-1 $363 -47.620518666036553 $450 -38.092258793217439 $442 $478 forward 7 unknown #
point $-1 -56.248054445020905 -17.420179590083634 0.16107314527658367 #
point $-1 -56.248054445020905 -9.9719232178060082 0.16107314527658367 #
vertex $-1 $447 $479 #
straight-curve $-1 0 -17.420179590083634 9.6893330180956951 1 0 0 I I #
vertex $-1 $370 $480 #
point $-1 -47.669909629800742 -15.292106340861455 4.3421146255170155 #
vertex $-1 $374 $481 #
point $-1 -47.669909629800742 -12.099996467028188 4.3421146255170155 #
straight-curve $-1 -56.248054445020905 26.269920236638477 0 0 0 -1 I I #
point $-1 -56.248054445020905 -26.269920236638477 -9.6893330180956951 #
straight-curve $-1 -56.248054445020905 0 -9.6893330180956951 0 1 0 I I #
point $-1 -56.248054445020905 26.269920236638477 -9.6893330180956951 #
edge $-1 $408 -9.6893330180956951 $399 -4.3977099107369941 $397 $482 forward 7 unknown #
straight-curve $-1 -56.248054445020905 -10.922524956680528 4.3977099107369941 0 -1 0 I I #
point $-1 -56.248054445020905 -26.269920236638477 4.3977099107369941 #
straight-curve $-1 56.248054445020905 -26.269920236638477 0 0 0 -1 I I #
straight-curve $-1 0 -26.269920236638477 9.6893330180956951 1 0 0 I I #
point $-1 -56.248054445020905 -26.269920236638477 9.6893330180956951 #
point $-1 56.248054445020905 -26.269920236638477 9.6893330180956951 #
edge $-1 $427 -56.248054445020905 $469 56.248054445020905 $424 $483 forward 7 unknown #
straight-curve $-1 56.248054445020905 0 9.6893330180956951 0 1 0 I I #
vertex $-1 $467 $484 #
straight-curve $-1 -56.248054445020905 0 9.6893330180956951 0 -1 0 I I #
straight-curve $-1 -56.248054445020905 26.269920236638477 0 0 0 -1 I I #
point $-1 56.248054445020905 26.269920236638477 9.6893330180956951 #
straight-curve $-1 56.248054445020905 0 9.6893330180956951 0 1 0 I I #
straight-curve $-1 56.248054445020905 17.420179590083638 79.645009521887602 0 0 1 I I #
point $-1 56.248054445020905 17.420179590083638 9.6893330180956934 #
point $-1 49.343264172576582 12.797871579482752 2.5805771344584354 #
straight-curve $-1 -56.248054445020905 0 9.6893330180956951 0 -1 0 I I #
straight-curve $-1 -56.248054445020905 -17.420179590083634 47.781591811313135 0 0 1 I I #
point $-1 -56.248054445020905 -17.420179590083634 9.6893330180956934 #
point $-1 -47.828974040077753 -15.292106340861455 3.6531309440098068 #
point $-1 -47.828974040077753 -12.099996467028188 3.6531309440098068 #
straight-curve $-1 -56.248054445020905 -26.269920236638477 0 0 0 -1 I I #
straight-curve $-1 0 26.269920236638477 9.6893330180956951 -1 0 0 I I #
point $-1 -56.248054445020905 26.269920236638477 9.6893330180956951 #
End-of-ACIS-data 