500 0 4 0           
7 Unknown 11 ACIS 5.0 NT 24 Fri Mar 26 14:39:09 1999 
-1 9.9999999999999995e-007 1e-010 
body $-1 $4 $-1 $5 #
body $-1 $6 $-1 $7 #
body $-1 $8 $-1 $9 #
body $-1 $10 $-1 $11 #
lump $-1 $-1 $12 $0 #
transform $-1 1 0 0 0 1 0 0 0 1 77.825861384929965 54.408986707165703 20.711679857615589 1 rotate no_reflect no_shear #
lump $-1 $-1 $13 $1 #
transform $-1 1 0 0 0 1 0 0 0 1 77.825861384929965 54.408986707165703 20.711679857615589 1 rotate no_reflect no_shear #
lump $-1 $-1 $14 $2 #
transform $-1 1 0 0 0 1 0 0 0 1 77.825861384929965 54.408986707165703 20.711679857615589 1 rotate no_reflect no_shear #
lump $-1 $-1 $15 $3 #
transform $-1 1 0 0 0 1 0 0 0 1 77.825861384929965 54.408986707165703 20.711679857615589 1 rotate no_reflect no_shear #
shell $-1 $-1 $-1 $16 $-1 $4 #
shell $-1 $-1 $-1 $17 $-1 $6 #
shell $-1 $-1 $-1 $18 $-1 $8 #
shell $-1 $-1 $-1 $19 $-1 $10 #
face $-1 $20 $21 $12 $-1 $22 forward single #
face $-1 $23 $24 $13 $-1 $25 reversed single #
face $-1 $26 $27 $14 $-1 $28 forward single #
face $-1 $29 $30 $15 $-1 $31 forward single #
face $-1 $32 $33 $12 $-1 $34 reversed single #
loop $-1 $-1 $35 $16 #
plane-surface $-1 0 0 20.711679857615589 0 0 1 1 0 0 forward_v I I I I #
face $-1 $36 $37 $13 $-1 $38 reversed single #
loop $-1 $-1 $39 $17 #
plane-surface $-1 -36.094364766213076 -154.45998675972336 119.94910069564645 -1 0 0 0 -0.64278761758704617 0.76604443648966558 forward_v I I I I #
face $-1 $40 $41 $14 $-1 $42 forward single #
loop $-1 $43 $44 $18 #
cone-surface $-1 -65.902576636725144 -40.023015145206379 7.7696426449767042 0 0.64278761758704617 -0.76604443648966558 3 0 0 1 I I 0 1 3 forward I I I I #
face $-1 $45 $46 $15 $-1 $47 forward single #
loop $-1 $48 $49 $19 #
cone-surface $-1 -48.017649514417897 -40.023015145206379 7.7696426449767042 0 0.64278761758704617 -0.76604443648966558 3 0 0 1 I I 0 1 3 forward I I I I #
face $-1 $50 $51 $12 $-1 $52 reversed single #
loop $-1 $-1 $53 $20 #
plane-surface $-1 0 0 -20.711679857615589 0 0 1 1 0 0 forward_v I I I I #
coedge $-1 $54 $55 $56 $57 forward $21 $-1 #
face $-1 $58 $59 $13 $-1 $60 forward single #
loop $-1 $-1 $61 $23 #
plane-surface $-1 -56.96011307557152 -54.40898670716571 0.71296443776344631 0 -0.64278761758704617 0.76604443648966558 1 0 0 forward_v I I I I #
coedge $-1 $62 $63 $64 $65 reversed $24 $-1 #
face $-1 $-1 $66 $14 $-1 $67 forward single #
loop $-1 $68 $69 $26 #
cone-surface $-1 -65.902576636725144 -36.589632381709229 3.6778964875293951 0 0.64278761758704617 -0.76604443648966558 1.5 0 0 1 I I -0.70710678118654757 0.70710678118654757 1.5 forward I I I I #
loop $-1 $-1 $70 $18 #
coedge $-1 $44 $44 $71 $72 reversed $27 $-1 #
face $-1 $-1 $73 $15 $-1 $74 forward single #
loop $-1 $75 $76 $29 #
cone-surface $-1 -48.017649514417897 -36.589632381709229 3.6778964875293951 0 0.64278761758704617 -0.76604443648966558 1.5 0 0 1 I I -0.70710678118654757 0.70710678118654757 1.5 forward I I I I #
loop $-1 $-1 $77 $19 #
coedge $-1 $49 $49 $78 $79 reversed $30 $-1 #
face $-1 $80 $81 $12 $-1 $82 reversed single #
loop $-1 $-1 $83 $32 #
plane-surface $-1 0 -54.408986707165703 0 0 1 0 0 0 1 forward_v I I I I #
coedge $-1 $84 $85 $86 $87 forward $33 $-1 #
coedge $-1 $88 $35 $89 $90 forward $21 $-1 #
coedge $-1 $35 $88 $91 $92 forward $21 $-1 #
coedge $-1 $93 $94 $35 $57 reversed $95 $-1 #
edge $-1 $96 -54.408986707165703 $97 54.408986707165703 $56 $98 forward 7 unknown #
face $-1 $99 $100 $13 $-1 $101 reversed single #
loop $-1 $-1 $64 $36 #
plane-surface $-1 0 0 20.711679857615589 0 0 1 1 0 0 forward_v I I I I #
coedge $-1 $102 $103 $104 $105 reversed $37 $-1 #
coedge $-1 $63 $39 $106 $107 reversed $24 $-1 #
coedge $-1 $39 $62 $102 $108 reversed $24 $-1 #
coedge $-1 $104 $109 $39 $65 forward $59 $-1 #
edge $-1 $110 22.821006672695979 $111 46.654547122381445 $64 $112 forward 7 unknown #
loop $-1 $-1 $71 $40 #
plane-surface $-1 -56.96011307557152 -54.40898670716571 0.71296443776344631 0 -0.64278761758704617 0.76604443648966558 1 0 0 forward_v I I I I #
loop $-1 $-1 $113 $26 #
coedge $-1 $69 $69 $70 $114 reversed $41 $-1 #
coedge $-1 $70 $70 $69 $114 forward $43 $-1 #
coedge $-1 $71 $71 $44 $72 forward $66 $-1 #
edge $-1 $115 -1.522426907710056e-015 $115 6.2831853071795987 $71 $116 forward 7 unknown #
loop $-1 $-1 $78 $45 #
plane-surface $-1 -56.96011307557152 -54.40898670716571 0.71296443776344631 0 -0.64278761758704617 0.76604443648966558 1 0 0 forward_v I I I I #
loop $-1 $-1 $117 $29 #
coedge $-1 $76 $76 $77 $118 reversed $46 $-1 #
coedge $-1 $77 $77 $76 $118 forward $48 $-1 #
coedge $-1 $78 $78 $49 $79 forward $73 $-1 #
edge $-1 $119 -1.522426907710056e-015 $119 6.2831853071795987 $78 $120 forward 7 unknown #
face $-1 $121 $122 $12 $-1 $123 reversed single #
loop $-1 $-1 $124 $50 #
plane-surface $-1 -77.825861384929965 0 0 1 0 0 0 0 -1 forward_v I I I I #
coedge $-1 $125 $91 $126 $127 forward $51 $-1 #
coedge $-1 $128 $53 $125 $129 forward $33 $-1 #
coedge $-1 $53 $128 $130 $131 forward $33 $-1 #
coedge $-1 $94 $93 $53 $87 reversed $95 $-1 #
edge $-1 $132 -54.408986707165703 $133 54.408986707165703 $86 $134 forward 7 unknown #
coedge $-1 $55 $54 $135 $136 forward $21 $-1 #
coedge $-1 $137 $138 $54 $90 reversed $122 $-1 #
edge $-1 $97 -77.825861384929965 $139 77.825861384929965 $89 $140 forward 7 unknown #
coedge $-1 $83 $141 $55 $92 reversed $51 $-1 #
edge $-1 $142 -77.825861384929965 $96 77.825861384929965 $91 $143 forward 7 unknown #
coedge $-1 $86 $56 $141 $144 forward $95 $-1 #
coedge $-1 $56 $86 $137 $145 reversed $95 $-1 #
loop $-1 $-1 $93 $121 #
vertex $-1 $57 $146 #
vertex $-1 $57 $147 #
straight-curve $-1 77.825861384929965 0 20.711679857615589 0 1 0 I I #
face $-1 $-1 $148 $13 $-1 $149 reversed single #
loop $-1 $-1 $150 $58 #
plane-surface $-1 -77.825861384929965 0 0 1 0 0 0 0 -1 forward_v I I I I #
coedge $-1 $151 $61 $63 $108 forward $37 $-1 #
coedge $-1 $61 $151 $150 $152 reversed $37 $-1 #
coedge $-1 $153 $64 $61 $105 forward $59 $-1 #
edge $-1 $111 7.6143082284273156 $154 49.345804847144208 $104 $155 forward 7 unknown #
coedge $-1 $156 $157 $62 $107 forward $148 $-1 #
edge $-1 $158 -59.261585910059772 $110 -39.262870490207632 $106 $159 forward 7 unknown #
edge $-1 $111 -31.112477702861035 $158 -9.2967162063127932e-015 $63 $160 forward 7 unknown #
coedge $-1 $64 $153 $156 $161 forward $59 $-1 #
vertex $-1 $107 $162 #
vertex $-1 $65 $163 #
straight-curve $-1 -36.094364766213076 -77.229993379861682 20.711679857615593 0 1 0 I I #
coedge $-1 $113 $113 $-1 $164 reversed $68 $-1 #
edge $-1 $165 0 $165 6.2831853071796004 $69 $166 forward 7 unknown #
vertex $-1 $72 $167 #
ellipse-curve $-1 -65.902576636725144 -42.492216482322966 10.712322147689523 0 -0.64278761758704617 0.76604443648966558 3 0 0 1 I I #
coedge $-1 $117 $117 $-1 $168 reversed $75 $-1 #
edge $-1 $169 0 $169 6.2831853071796004 $76 $170 forward 7 unknown #
vertex $-1 $79 $171 #
ellipse-curve $-1 -48.017649514417897 -42.492216482322966 10.712322147689523 0 -0.64278761758704617 0.76604443648966558 3 0 0 1 I I #
face $-1 $-1 $95 $12 $-1 $172 reversed single #
loop $-1 $-1 $137 $80 #
plane-surface $-1 0 54.408986707165703 0 0 -1 0 0 0 -1 forward_v I I I I #
coedge $-1 $173 $135 $138 $174 forward $81 $-1 #
coedge $-1 $141 $83 $84 $129 reversed $51 $-1 #
coedge $-1 $135 $173 $83 $127 reversed $81 $-1 #
edge $-1 $142 -20.711679857615589 $175 20.711679857615589 $126 $176 forward 7 unknown #
coedge $-1 $85 $84 $173 $177 forward $33 $-1 #
edge $-1 $133 -77.825861384929965 $175 77.825861384929965 $125 $178 forward 7 unknown #
coedge $-1 $138 $137 $85 $131 reversed $122 $-1 #
edge $-1 $179 -77.825861384929965 $132 77.825861384929965 $130 $180 forward 7 unknown #
vertex $-1 $87 $181 #
vertex $-1 $144 $182 #
straight-curve $-1 77.825861384929965 0 -20.711679857615589 0 -1 0 I I #
coedge $-1 $124 $126 $88 $136 reversed $81 $-1 #
edge $-1 $139 -54.408986707165703 $142 54.408986707165703 $135 $183 forward 7 unknown #
coedge $-1 $130 $89 $94 $145 forward $122 $-1 #
coedge $-1 $89 $130 $124 $174 reversed $122 $-1 #
vertex $-1 $90 $184 #
straight-curve $-1 0 54.408986707165703 20.711679857615589 -1 0 0 I I #
coedge $-1 $91 $125 $93 $144 reversed $51 $-1 #
vertex $-1 $136 $185 #
straight-curve $-1 0 -54.408986707165703 20.711679857615589 1 0 0 I I #
edge $-1 $96 -20.711679857615589 $133 20.711679857615589 $93 $186 forward 7 unknown #
edge $-1 $97 -20.711679857615589 $132 20.711679857615589 $94 $187 forward 7 unknown #
point $-1 77.825861384929965 -54.408986707165703 20.711679857615589 #
point $-1 77.825861384929965 54.408986707165703 20.711679857615589 #
loop $-1 $-1 $106 $99 #
plane-surface $-1 0 -54.408986707165703 0 0 1 0 0 0 1 forward_v I I I I #
coedge $-1 $188 $189 $103 $152 forward $100 $-1 #
coedge $-1 $103 $102 $157 $190 reversed $37 $-1 #
edge $-1 $154 -10.501769278015933 $191 20.610708424845093 $150 $192 forward 7 unknown #
coedge $-1 $109 $104 $189 $193 forward $59 $-1 #
vertex $-1 $193 $194 #
straight-curve $-1 -28.48005653778576 -30.575446257480248 20.711679857615589 -1 0 0 I I #
coedge $-1 $195 $106 $109 $161 reversed $148 $-1 #
coedge $-1 $106 $195 $151 $190 forward $148 $-1 #
vertex $-1 $107 $196 #
straight-curve $-1 -36.094364766213076 -54.408986707165703 59.974550347823225 0 0 1 I I #
straight-curve $-1 -36.094364766213076 -54.40898670716571 0.71296443776344631 0 -0.76604443648966558 -0.64278761758704617 I I #
edge $-1 $197 -77.825861384929965 $110 -36.094364766213076 $156 $198 forward 7 unknown #
point $-1 -36.094364766213076 -54.408986707165703 20.711679857615589 #
point $-1 -36.094364766213076 -30.575446257480241 20.711679857615589 #
edge $-1 $199 1 $199 0 $113 $-1 forward 7 unknown #
vertex $-1 $114 $200 #
ellipse-curve $-1 -65.902576636725144 -37.553813808089799 4.8269631422638932 0 -0.64278761758704617 0.76604443648966558 3 0 0 1 I I #
point $-1 -62.902576636725144 -42.492216482322966 10.712322147689516 #
edge $-1 $201 1 $201 0 $117 $-1 forward 7 unknown #
vertex $-1 $118 $202 #
ellipse-curve $-1 -48.017649514417897 -37.553813808089799 4.8269631422638932 0 -0.64278761758704617 0.76604443648966558 3 0 0 1 I I #
point $-1 -45.017649514417897 -42.492216482322966 10.712322147689516 #
plane-surface $-1 77.825861384929965 0 0 -1 0 0 0 0 1 forward_v I I I I #
coedge $-1 $126 $124 $128 $177 reversed $81 $-1 #
edge $-1 $139 -20.711679857615589 $179 20.711679857615589 $138 $203 forward 7 unknown #
vertex $-1 $177 $204 #
straight-curve $-1 -77.825861384929965 -54.408986707165703 0 0 0 -1 I I #
edge $-1 $175 -54.408986707165703 $179 54.408986707165703 $173 $205 forward 7 unknown #
straight-curve $-1 0 -54.408986707165703 -20.711679857615589 -1 0 0 I I #
vertex $-1 $131 $206 #
straight-curve $-1 0 54.408986707165703 -20.711679857615589 1 0 0 I I #
point $-1 77.825861384929965 54.408986707165703 -20.711679857615589 #
point $-1 77.825861384929965 -54.408986707165703 -20.711679857615589 #
straight-curve $-1 -77.825861384929965 0 20.711679857615589 0 -1 0 I I #
point $-1 -77.825861384929965 54.408986707165703 20.711679857615589 #
point $-1 -77.825861384929965 -54.408986707165703 20.711679857615589 #
straight-curve $-1 77.825861384929965 -54.408986707165703 0 0 0 -1 I I #
straight-curve $-1 77.825861384929965 54.408986707165703 0 0 0 -1 I I #
coedge $-1 $189 $150 $195 $207 reversed $100 $-1 #
coedge $-1 $150 $188 $153 $193 reversed $100 $-1 #
edge $-1 $191 -49.345804847144208 $158 -7.6143082284273156 $157 $208 forward 7 unknown #
vertex $-1 $152 $209 #
straight-curve $-1 -77.825861384929965 -38.620268186202438 13.961272602950892 0 -0.76604443648966558 -0.64278761758704617 I I #
edge $-1 $154 30.575446257480241 $197 54.408986707165703 $189 $210 forward 7 unknown #
point $-1 -77.825861384929965 -30.575446257480241 20.711679857615589 #
coedge $-1 $157 $156 $188 $207 forward $148 $-1 #
point $-1 -36.094364766213076 -54.408986707165703 0.71296443776345231 #
vertex $-1 $193 $211 #
straight-curve $-1 0 -54.408986707165703 20.711679857615589 1 0 0 I I #
vertex $-1 $164 $212 #
point $-1 -62.902576636725144 -37.553813808089799 4.8269631422638932 #
vertex $-1 $168 $213 #
point $-1 -45.017649514417897 -37.553813808089799 4.8269631422638932 #
straight-curve $-1 -77.825861384929965 54.408986707165703 0 0 0 -1 I I #
point $-1 -77.825861384929965 -54.408986707165703 -20.711679857615589 #
straight-curve $-1 -77.825861384929965 0 -20.711679857615589 0 1 0 I I #
point $-1 -77.825861384929965 54.408986707165703 -20.711679857615589 #
edge $-1 $197 -20.711679857615589 $191 -0.71296443776345231 $188 $214 forward 7 unknown #
straight-curve $-1 -28.48005653778576 -54.408986707165703 0.71296443776345675 1 0 0 I I #
point $-1 -77.825861384929965 -54.408986707165703 0.71296443776345231 #
straight-curve $-1 -77.825861384929965 0 20.711679857615589 0 -1 0 I I #
point $-1 -77.825861384929965 -54.408986707165703 20.711679857615589 #
point $-1 -65.902576636725144 -35.62545095532866 2.528829832794897 #
point $-1 -48.017649514417897 -35.62545095532866 2.528829832794897 #
straight-curve $-1 -77.825861384929965 -54.408986707165703 0 0 0 -1 I I #
End-of-ACIS-data 