500 0 14 0           
7 Unknown 11 ACIS 5.0 NT 24 Thu Mar 25 18:59:09 1999 
-1 9.9999999999999995e-007 1e-010 
body $-1 $14 $-1 $15 #
body $-1 $16 $-1 $17 #
body $-1 $18 $-1 $19 #
body $-1 $20 $-1 $21 #
body $-1 $22 $-1 $23 #
body $-1 $24 $-1 $25 #
body $-1 $26 $-1 $27 #
body $-1 $28 $-1 $29 #
body $-1 $30 $-1 $31 #
body $-1 $32 $-1 $33 #
body $-1 $34 $-1 $35 #
body $-1 $36 $-1 $37 #
body $-1 $38 $-1 $39 #
body $-1 $40 $-1 $41 #
lump $-1 $-1 $42 $0 #
transform $-1 1 0 0 0 1 0 0 0 1 62.595904416028318 34.60397571283238 8.5619151186931131 1 rotate no_reflect no_shear #
lump $-1 $-1 $43 $1 #
transform $-1 1 0 0 0 1 0 0 0 1 62.595904416028318 34.60397571283238 8.5619151186931131 1 rotate no_reflect no_shear #
lump $-1 $-1 $44 $2 #
transform $-1 1 0 0 0 1 0 0 0 1 62.595904416028318 34.60397571283238 8.5619151186931131 1 rotate no_reflect no_shear #
lump $-1 $-1 $45 $3 #
transform $-1 1 0 0 0 1 0 0 0 1 62.595904416028318 34.60397571283238 8.5619151186931131 1 rotate no_reflect no_shear #
lump $-1 $-1 $46 $4 #
transform $-1 1 0 0 0 1 0 0 0 1 62.595904416028318 34.60397571283238 8.5619151186931131 1 rotate no_reflect no_shear #
lump $-1 $-1 $47 $5 #
transform $-1 1 0 0 0 1 0 0 0 1 62.595904416028318 34.60397571283238 8.5619151186931131 1 rotate no_reflect no_shear #
lump $-1 $-1 $48 $6 #
transform $-1 1 0 0 0 1 0 0 0 1 62.595904416028318 34.60397571283238 8.5619151186931131 1 rotate no_reflect no_shear #
lump $-1 $-1 $49 $7 #
transform $-1 1 0 0 0 1 0 0 0 1 62.595904416028318 34.60397571283238 8.5619151186931131 1 rotate no_reflect no_shear #
lump $-1 $-1 $50 $8 #
transform $-1 1 0 0 0 1 0 0 0 1 62.595904416028318 34.60397571283238 8.5619151186931131 1 rotate no_reflect no_shear #
lump $-1 $-1 $51 $9 #
transform $-1 1 0 0 0 1 0 0 0 1 62.595904416028318 34.60397571283238 8.5619151186931131 1 rotate no_reflect no_shear #
lump $-1 $-1 $52 $10 #
transform $-1 1 0 0 0 1 0 0 0 1 62.595904416028318 34.60397571283238 8.5619151186931131 1 rotate no_reflect no_shear #
lump $-1 $-1 $53 $11 #
transform $-1 1 0 0 0 1 0 0 0 1 62.595904416028318 34.60397571283238 8.5619151186931131 1 rotate no_reflect no_shear #
lump $-1 $-1 $54 $12 #
transform $-1 1 0 0 0 1 0 0 0 1 62.595904416028318 34.60397571283238 8.5619151186931131 1 rotate no_reflect no_shear #
lump $-1 $-1 $55 $13 #
transform $-1 1 0 0 0 1 0 0 0 1 62.595904416028318 34.60397571283238 8.5619151186931131 1 rotate no_reflect no_shear #
shell $-1 $-1 $-1 $56 $-1 $14 #
shell $-1 $-1 $-1 $57 $-1 $16 #
shell $-1 $-1 $-1 $58 $-1 $18 #
shell $-1 $-1 $-1 $59 $-1 $20 #
shell $-1 $-1 $-1 $60 $-1 $22 #
shell $-1 $-1 $-1 $61 $-1 $24 #
shell $-1 $-1 $-1 $62 $-1 $26 #
shell $-1 $-1 $-1 $63 $-1 $28 #
shell $-1 $-1 $-1 $64 $-1 $30 #
shell $-1 $-1 $-1 $65 $-1 $32 #
shell $-1 $-1 $-1 $66 $-1 $34 #
shell $-1 $-1 $-1 $67 $-1 $36 #
shell $-1 $-1 $-1 $68 $-1 $38 #
shell $-1 $-1 $-1 $69 $-1 $40 #
face $-1 $70 $71 $42 $-1 $72 forward single #
face $-1 $73 $74 $43 $-1 $75 forward single #
face $-1 $76 $77 $44 $-1 $78 reversed single #
face $-1 $79 $80 $45 $-1 $81 forward single #
face $-1 $82 $83 $46 $-1 $84 forward single #
face $-1 $85 $86 $47 $-1 $87 reversed single #
face $-1 $88 $89 $48 $-1 $90 forward single #
face $-1 $91 $92 $49 $-1 $93 forward single #
face $-1 $94 $95 $50 $-1 $96 reversed single #
face $-1 $97 $98 $51 $-1 $99 forward single #
face $-1 $100 $101 $52 $-1 $102 forward single #
face $-1 $103 $104 $53 $-1 $105 reversed single #
face $-1 $106 $107 $54 $-1 $108 forward single #
face $-1 $109 $110 $55 $-1 $111 forward single #
face $-1 $112 $113 $42 $-1 $114 reversed single #
loop $-1 $-1 $115 $56 #
plane-surface $-1 0 0 8.5619151186931131 0 0 1 1 0 0 forward_v I I I I #
face $-1 $116 $117 $43 $-1 $118 reversed single #
loop $-1 $-1 $119 $57 #
plane-surface $-1 -62.595904416028318 0 0 1 0 0 0 0 -1 forward_v I I I I #
face $-1 $120 $121 $44 $-1 $122 reversed single #
loop $-1 $-1 $123 $58 #
plane-surface $-1 5.5923151847144226 -129.08743424146536 82.193473528766077 -1 0 0 0 -0.75470958851134928 0.65605901945558964 forward_v I I I I #
face $-1 $124 $125 $45 $-1 $126 forward single #
loop $-1 $127 $128 $59 #
cone-surface $-1 -5.4174006214399384 -29.790968282673671 3.339381693425028 0 0.75470958851134928 -0.65605901945558964 2 0 0 1 I I 0 1 2 forward I I I I #
face $-1 $129 $130 $46 $-1 $131 forward single #
loop $-1 $132 $133 $60 #
cone-surface $-1 1.1884288622526782 -29.790968282673671 3.339381693425028 0 0.75470958851134928 -0.65605901945558964 2 0 0 1 I I 0 1 2 forward I I I I #
face $-1 $134 $135 $47 $-1 $136 reversed single #
loop $-1 $-1 $137 $61 #
plane-surface $-1 54.889103351720252 -34.60397571283238 0.060258182535363858 0 -0.75470958851134928 0.65605901945558964 1 0 0 forward_v I I I I #
face $-1 $138 $139 $48 $-1 $140 forward single #
loop $-1 $141 $142 $62 #
cone-surface $-1 51.586188609873943 -29.790968282673671 3.339381693425028 0 0.75470958851134928 -0.65605901945558964 2 0 0 1 I I 0 1 2 forward I I I I #
face $-1 $143 $144 $49 $-1 $145 forward single #
loop $-1 $146 $147 $63 #
cone-surface $-1 58.19201809356656 -29.790968282673671 3.339381693425028 0 0.75470958851134928 -0.65605901945558964 2 0 0 1 I I 0 1 2 forward I I I I #
face $-1 $148 $149 $50 $-1 $150 reversed single #
loop $-1 $-1 $151 $64 #
plane-surface $-1 -9.8212869439016828 83.682933490613664 134.42537807094297 1 0 0 0 -0.75470958851134928 -0.65605901945558964 forward_v I I I I #
face $-1 $152 $153 $51 $-1 $154 forward single #
loop $-1 $155 $156 $65 #
cone-surface $-1 -5.4174006214399384 29.790968282673663 3.3393816934250351 0 -0.75470958851134928 -0.65605901945558964 2 0 0 1 I I 0 1 2 forward I I I I #
face $-1 $157 $158 $52 $-1 $159 forward single #
loop $-1 $160 $161 $66 #
cone-surface $-1 1.1884288622526782 29.790968282673663 3.3393816934250351 0 -0.75470958851134928 -0.65605901945558964 2 0 0 1 I I 0 1 2 forward I I I I #
face $-1 $162 $163 $53 $-1 $164 reversed single #
loop $-1 $-1 $165 $67 #
plane-surface $-1 54.889103351720252 -10.800525038019316 52.292162724712256 0 0.75470958851134928 0.65605901945558964 1 0 0 forward_v I I I I #
face $-1 $166 $167 $54 $-1 $168 forward single #
loop $-1 $169 $170 $68 #
cone-surface $-1 51.586188609873943 29.790968282673663 3.3393816934250351 0 -0.75470958851134928 -0.65605901945558964 2 0 0 1 I I 0 1 2 forward I I I I #
face $-1 $171 $172 $55 $-1 $173 forward single #
loop $-1 $174 $175 $69 #
cone-surface $-1 58.19201809356656 29.790968282673663 3.3393816934250351 0 -0.75470958851134928 -0.65605901945558964 2 0 0 1 I I 0 1 2 forward I I I I #
face $-1 $176 $177 $42 $-1 $178 reversed single #
loop $-1 $-1 $179 $70 #
plane-surface $-1 0 0 -8.5619151186931131 0 0 1 1 0 0 forward_v I I I I #
coedge $-1 $180 $181 $182 $183 forward $71 $-1 #
face $-1 $184 $185 $43 $-1 $186 forward single #
loop $-1 $-1 $187 $73 #
plane-surface $-1 0 34.60397571283238 0 0 -1 0 0 0 -1 forward_v I I I I #
coedge $-1 $188 $189 $190 $191 forward $74 $-1 #
face $-1 $192 $193 $44 $-1 $194 reversed single #
loop $-1 $-1 $195 $76 #
plane-surface $-1 -2.1144858795936301 -34.60397571283238 0.060258182535363858 0 -0.75470958851134928 0.65605901945558964 1 0 0 forward_v I I I I #
coedge $-1 $196 $197 $198 $199 reversed $77 $-1 #
face $-1 $-1 $200 $45 $-1 $201 forward single #
loop $-1 $202 $203 $79 #
cone-surface $-1 -5.4174006214399384 -27.918439981749444 1.7116177167802338 0 0.75470958851134928 -0.65605901945558964 1 0 0 1 I I -0.70710678118654746 0.70710678118654746 1 forward I I I I #
loop $-1 $-1 $204 $59 #
coedge $-1 $128 $128 $205 $206 reversed $80 $-1 #
face $-1 $-1 $207 $46 $-1 $208 forward single #
loop $-1 $209 $210 $82 #
cone-surface $-1 1.1884288622526782 -27.918439981749444 1.7116177167802338 0 0.75470958851134928 -0.65605901945558964 1 0 0 1 I I -0.70710678118654746 0.70710678118654746 1 forward I I I I #
loop $-1 $-1 $211 $60 #
coedge $-1 $133 $133 $212 $213 reversed $83 $-1 #
face $-1 $214 $215 $47 $-1 $216 reversed single #
loop $-1 $-1 $217 $85 #
plane-surface $-1 47.182302287412199 -129.08743424146536 82.193473528766077 1 0 0 0 0.75470958851134928 -0.65605901945558964 forward_v I I I I #
coedge $-1 $218 $219 $220 $221 reversed $86 $-1 #
face $-1 $-1 $222 $48 $-1 $223 forward single #
loop $-1 $224 $225 $88 #
cone-surface $-1 51.586188609873943 -27.918439981749444 1.7116177167802338 0 0.75470958851134928 -0.65605901945558964 1 0 0 1 I I -0.70710678118654746 0.70710678118654746 1 forward I I I I #
loop $-1 $-1 $226 $62 #
coedge $-1 $142 $142 $227 $228 reversed $89 $-1 #
face $-1 $-1 $229 $49 $-1 $230 forward single #
loop $-1 $231 $232 $91 #
cone-surface $-1 58.19201809356656 -27.918439981749444 1.7116177167802338 0 0.75470958851134928 -0.65605901945558964 1 0 0 1 I I -0.70710678118654746 0.70710678118654746 1 forward I I I I #
loop $-1 $-1 $233 $63 #
coedge $-1 $147 $147 $234 $235 reversed $92 $-1 #
face $-1 $236 $237 $50 $-1 $238 reversed single #
loop $-1 $-1 $239 $94 #
plane-surface $-1 -2.1144858795936301 -10.800525038019316 52.292162724712256 0 0.75470958851134928 0.65605901945558964 1 0 0 forward_v I I I I #
coedge $-1 $240 $241 $242 $243 reversed $95 $-1 #
face $-1 $-1 $244 $51 $-1 $245 forward single #
loop $-1 $246 $247 $97 #
cone-surface $-1 -5.4174006214399384 27.918439981749437 1.7116177167802409 0 -0.75470958851134928 -0.65605901945558964 1 0 0 1 I I -0.70710678118654746 0.70710678118654746 1 forward I I I I #
loop $-1 $-1 $248 $65 #
coedge $-1 $156 $156 $249 $250 reversed $98 $-1 #
face $-1 $-1 $251 $52 $-1 $252 forward single #
loop $-1 $253 $254 $100 #
cone-surface $-1 1.1884288622526782 27.918439981749437 1.7116177167802409 0 -0.75470958851134928 -0.65605901945558964 1 0 0 1 I I -0.70710678118654746 0.70710678118654746 1 forward I I I I #
loop $-1 $-1 $255 $66 #
coedge $-1 $161 $161 $256 $257 reversed $101 $-1 #
face $-1 $258 $259 $53 $-1 $260 forward single #
loop $-1 $-1 $261 $103 #
plane-surface $-1 47.182302287412199 83.682933490613664 134.42537807094297 1 0 0 0 -0.75470958851134928 -0.65605901945558964 forward_v I I I I #
coedge $-1 $262 $263 $264 $265 reversed $104 $-1 #
face $-1 $-1 $266 $54 $-1 $267 forward single #
loop $-1 $268 $269 $106 #
cone-surface $-1 51.586188609873943 27.918439981749437 1.7116177167802409 0 -0.75470958851134928 -0.65605901945558964 1 0 0 1 I I -0.70710678118654746 0.70710678118654746 1 forward I I I I #
loop $-1 $-1 $270 $68 #
coedge $-1 $170 $170 $271 $272 reversed $107 $-1 #
face $-1 $-1 $273 $55 $-1 $274 forward single #
loop $-1 $275 $276 $109 #
cone-surface $-1 58.19201809356656 27.918439981749437 1.7116177167802409 0 -0.75470958851134928 -0.65605901945558964 1 0 0 1 I I -0.70710678118654746 0.70710678118654746 1 forward I I I I #
loop $-1 $-1 $277 $69 #
coedge $-1 $175 $175 $278 $279 reversed $110 $-1 #
face $-1 $280 $281 $42 $-1 $282 reversed single #
loop $-1 $-1 $283 $112 #
plane-surface $-1 0 -34.60397571283238 0 0 1 0 0 0 1 forward_v I I I I #
coedge $-1 $284 $285 $286 $287 forward $113 $-1 #
coedge $-1 $288 $115 $289 $290 forward $71 $-1 #
coedge $-1 $115 $288 $291 $292 forward $71 $-1 #
coedge $-1 $293 $294 $115 $183 reversed $295 $-1 #
edge $-1 $296 -34.60397571283238 $297 34.60397571283238 $182 $298 forward 7 unknown #
face $-1 $299 $300 $43 $-1 $301 reversed single #
loop $-1 $-1 $190 $116 #
plane-surface $-1 -68.188219600742755 0 6.5321560138665582 0 0 1 1 0 0 forward_v I I I I #
coedge $-1 $302 $303 $189 $304 forward $117 $-1 #
coedge $-1 $305 $119 $306 $307 reversed $74 $-1 #
coedge $-1 $119 $305 $187 $304 reversed $74 $-1 #
coedge $-1 $308 $309 $119 $191 reversed $185 $-1 #
edge $-1 $310 -34.60397571283238 $311 34.60397571283238 $190 $312 forward 7 unknown #
face $-1 $313 $314 $44 $-1 $315 reversed single #
loop $-1 $-1 $316 $120 #
plane-surface $-1 -9.8212869439016828 -129.08743424146536 82.193473528766077 1 0 0 0 0.75470958851134928 -0.65605901945558964 forward_v I I I I #
coedge $-1 $317 $318 $319 $320 reversed $121 $-1 #
coedge $-1 $197 $123 $321 $322 reversed $77 $-1 #
coedge $-1 $123 $196 $317 $323 reversed $77 $-1 #
coedge $-1 $319 $324 $123 $199 forward $325 $-1 #
edge $-1 $326 29.9397414079003 $327 37.330118843391951 $198 $328 forward 7 unknown #
loop $-1 $-1 $205 $124 #
plane-surface $-1 -2.1144858795936301 -34.60397571283238 0.060258182535363858 0 -0.75470958851134928 0.65605901945558964 1 0 0 forward_v I I I I #
loop $-1 $-1 $329 $79 #
coedge $-1 $203 $203 $204 $330 reversed $125 $-1 #
coedge $-1 $204 $204 $203 $330 forward $127 $-1 #
coedge $-1 $205 $205 $128 $206 forward $200 $-1 #
edge $-1 $331 -5.1039699788119634e-016 $331 6.2831853071795996 $205 $332 forward 7 unknown #
loop $-1 $-1 $212 $129 #
plane-surface $-1 -2.1144858795936301 -34.60397571283238 0.060258182535363858 0 -0.75470958851134928 0.65605901945558964 1 0 0 forward_v I I I I #
loop $-1 $-1 $333 $82 #
coedge $-1 $210 $210 $211 $334 reversed $130 $-1 #
coedge $-1 $211 $211 $210 $334 forward $132 $-1 #
coedge $-1 $212 $212 $133 $213 forward $207 $-1 #
edge $-1 $335 -5.1039699788119634e-016 $335 6.2831853071795996 $212 $336 forward 7 unknown #
face $-1 $337 $338 $47 $-1 $339 forward single #
loop $-1 $-1 $340 $134 #
plane-surface $-1 0 -34.60397571283238 0 0 1 0 0 0 1 forward_v I I I I #
coedge $-1 $341 $342 $343 $344 reversed $135 $-1 #
coedge $-1 $345 $137 $346 $347 reversed $86 $-1 #
coedge $-1 $137 $345 $341 $348 forward $86 $-1 #
coedge $-1 $343 $349 $137 $221 forward $338 $-1 #
edge $-1 $350 -35.151352740168178 $351 -19.737750611552073 $220 $352 forward 7 unknown #
loop $-1 $-1 $227 $138 #
plane-surface $-1 54.889103351720252 -34.60397571283238 0.060258182535363858 0 -0.75470958851134928 0.65605901945558964 1 0 0 forward_v I I I I #
loop $-1 $-1 $353 $88 #
coedge $-1 $225 $225 $226 $354 reversed $139 $-1 #
coedge $-1 $226 $226 $225 $354 forward $141 $-1 #
coedge $-1 $227 $227 $142 $228 forward $222 $-1 #
edge $-1 $355 -5.1039699788119634e-016 $355 6.2831853071795996 $227 $356 forward 7 unknown #
loop $-1 $-1 $234 $143 #
plane-surface $-1 54.889103351720252 -34.60397571283238 0.060258182535363858 0 -0.75470958851134928 0.65605901945558964 1 0 0 forward_v I I I I #
loop $-1 $-1 $357 $91 #
coedge $-1 $232 $232 $233 $358 reversed $144 $-1 #
coedge $-1 $233 $233 $232 $358 forward $146 $-1 #
coedge $-1 $234 $234 $147 $235 forward $229 $-1 #
edge $-1 $359 -5.1039699788119634e-016 $359 6.2831853071795996 $234 $360 forward 7 unknown #
face $-1 $361 $362 $50 $-1 $363 forward single #
loop $-1 $-1 $364 $148 #
plane-surface $-1 5.5923151847144226 83.682933490613664 134.42537807094297 -1 0 0 0 0.75470958851134928 0.65605901945558964 forward_v I I I I #
coedge $-1 $365 $366 $367 $368 reversed $149 $-1 #
coedge $-1 $241 $151 $369 $370 reversed $95 $-1 #
coedge $-1 $151 $240 $365 $371 reversed $95 $-1 #
coedge $-1 $367 $372 $151 $243 forward $362 $-1 #
edge $-1 $373 7.2374910324744519 $374 14.62786846796611 $242 $375 forward 7 unknown #
loop $-1 $-1 $249 $152 #
plane-surface $-1 -2.1144858795936301 -10.800525038019316 52.292162724712256 0 0.75470958851134928 0.65605901945558964 1 0 0 forward_v I I I I #
loop $-1 $-1 $376 $97 #
coedge $-1 $247 $247 $248 $377 reversed $153 $-1 #
coedge $-1 $248 $248 $247 $377 forward $155 $-1 #
coedge $-1 $249 $249 $156 $250 forward $244 $-1 #
edge $-1 $378 5.1039699788119634e-016 $378 6.2831853071796013 $249 $379 forward 7 unknown #
loop $-1 $-1 $256 $157 #
plane-surface $-1 -2.1144858795936301 -10.800525038019316 52.292162724712256 0 0.75470958851134928 0.65605901945558964 1 0 0 forward_v I I I I #
loop $-1 $-1 $380 $100 #
coedge $-1 $254 $254 $255 $381 reversed $158 $-1 #
coedge $-1 $255 $255 $254 $381 forward $160 $-1 #
coedge $-1 $256 $256 $161 $257 forward $251 $-1 #
edge $-1 $382 5.1039699788119634e-016 $382 6.2831853071796013 $256 $383 forward 7 unknown #
face $-1 $384 $385 $53 $-1 $386 reversed single #
loop $-1 $-1 $387 $162 #
plane-surface $-1 0 0 8.5619151186931131 0 0 1 1 0 0 forward_v I I I I #
coedge $-1 $388 $389 $390 $391 reversed $163 $-1 #
coedge $-1 $392 $165 $393 $394 reversed $104 $-1 #
coedge $-1 $165 $392 $388 $395 forward $104 $-1 #
coedge $-1 $390 $396 $165 $265 forward $397 $-1 #
edge $-1 $398 -35.151352740168193 $399 -19.737750611552073 $264 $400 forward 7 unknown #
loop $-1 $-1 $271 $166 #
plane-surface $-1 54.889103351720252 -10.800525038019316 52.292162724712256 0 0.75470958851134928 0.65605901945558964 1 0 0 forward_v I I I I #
loop $-1 $-1 $401 $106 #
coedge $-1 $269 $269 $270 $402 reversed $167 $-1 #
coedge $-1 $270 $270 $269 $402 forward $169 $-1 #
coedge $-1 $271 $271 $170 $272 forward $266 $-1 #
edge $-1 $403 5.1039699788119634e-016 $403 6.2831853071796013 $271 $404 forward 7 unknown #
loop $-1 $-1 $278 $171 #
plane-surface $-1 54.889103351720252 -10.800525038019316 52.292162724712256 0 0.75470958851134928 0.65605901945558964 1 0 0 forward_v I I I I #
loop $-1 $-1 $405 $109 #
coedge $-1 $276 $276 $277 $406 reversed $172 $-1 #
coedge $-1 $277 $277 $276 $406 forward $174 $-1 #
coedge $-1 $278 $278 $175 $279 forward $273 $-1 #
edge $-1 $407 5.1039699788119634e-016 $407 6.2831853071796013 $278 $408 forward 7 unknown #
face $-1 $409 $410 $42 $-1 $411 reversed single #
loop $-1 $-1 $412 $176 #
plane-surface $-1 -62.595904416028318 0 0 1 0 0 0 0 -1 forward_v I I I I #
coedge $-1 $413 $291 $414 $415 forward $177 $-1 #
coedge $-1 $416 $179 $413 $417 forward $113 $-1 #
coedge $-1 $179 $416 $418 $419 forward $113 $-1 #
coedge $-1 $294 $293 $179 $287 reversed $295 $-1 #
edge $-1 $420 -34.60397571283238 $421 34.60397571283238 $286 $422 forward 7 unknown #
coedge $-1 $181 $180 $423 $424 forward $71 $-1 #
coedge $-1 $425 $426 $180 $290 reversed $410 $-1 #
edge $-1 $297 -62.595904416028318 $427 62.595904416028318 $289 $428 forward 7 unknown #
coedge $-1 $283 $429 $181 $292 reversed $177 $-1 #
edge $-1 $430 -62.595904416028318 $296 62.595904416028318 $291 $431 forward 7 unknown #
coedge $-1 $286 $182 $429 $432 forward $295 $-1 #
coedge $-1 $182 $286 $425 $433 reversed $295 $-1 #
loop $-1 $-1 $293 $409 #
vertex $-1 $183 $434 #
vertex $-1 $183 $435 #
straight-curve $-1 62.595904416028318 0 8.5619151186931131 0 1 0 I I #
face $-1 $436 $437 $43 $-1 $438 reversed single #
loop $-1 $-1 $439 $184 #
plane-surface $-1 -68.188219600742755 0 3.5321560138665582 0 0 1 1 0 0 forward_v I I I I #
coedge $-1 $440 $187 $441 $442 reversed $117 $-1 #
coedge $-1 $187 $440 $308 $443 reversed $117 $-1 #
edge $-1 $310 -6.5321560138665582 $444 -3.5321560138665582 $187 $445 forward 7 unknown #
coedge $-1 $189 $188 $439 $446 forward $74 $-1 #
coedge $-1 $447 $448 $188 $307 forward $449 $-1 #
edge $-1 $450 3.5321560138665582 $311 6.5321560138665582 $306 $451 forward 7 unknown #
coedge $-1 $452 $190 $303 $443 forward $185 $-1 #
coedge $-1 $190 $452 $447 $453 forward $185 $-1 #
vertex $-1 $304 $454 #
vertex $-1 $453 $455 #
straight-curve $-1 -62.595904416028318 0 6.5321560138665582 0 -1 0 I I #
face $-1 $-1 $325 $44 $-1 $456 forward single #
loop $-1 $-1 $457 $192 #
plane-surface $-1 0 -34.60397571283238 0 0 1 0 0 0 1 forward_v I I I I #
coedge $-1 $458 $459 $460 $461 reversed $193 $-1 #
coedge $-1 $462 $195 $197 $323 forward $121 $-1 #
coedge $-1 $195 $462 $458 $463 forward $121 $-1 #
coedge $-1 $460 $198 $195 $320 forward $325 $-1 #
edge $-1 $327 -6.6495581245112376 $464 8.7640440041048677 $319 $465 forward 7 unknown #
coedge $-1 $466 $467 $196 $322 forward $314 $-1 #
edge $-1 $468 -41.036478581847675 $326 -32.534821645689924 $321 $469 forward 7 unknown #
edge $-1 $327 -11.264805781687643 $468 0 $197 $470 forward 7 unknown #
coedge $-1 $198 $460 $466 $471 forward $325 $-1 #
loop $-1 $-1 $460 $313 #
vertex $-1 $322 $472 #
vertex $-1 $199 $473 #
straight-curve $-1 5.5923151847144226 -64.54371712073268 8.5619151186931148 0 1 0 I I #
coedge $-1 $329 $329 $-1 $474 reversed $202 $-1 #
edge $-1 $475 0 $475 6.2831853071796004 $203 $476 forward 7 unknown #
vertex $-1 $206 $477 #
ellipse-curve $-1 -5.4174006214399384 -30.908786995086555 4.3110866506142376 0 -0.75470958851134928 0.65605901945558964 2 0 0 1 I I #
coedge $-1 $333 $333 $-1 $478 reversed $209 $-1 #
edge $-1 $479 0 $479 6.2831853071796004 $210 $480 forward 7 unknown #
vertex $-1 $213 $481 #
ellipse-curve $-1 1.1884288622526782 -30.908786995086555 4.3110866506142376 0 -0.75470958851134928 0.65605901945558964 2 0 0 1 I I #
face $-1 $-1 $482 $47 $-1 $483 reversed single #
loop $-1 $-1 $343 $214 #
plane-surface $-1 0 0 8.5619151186931131 0 0 1 1 0 0 forward_v I I I I #
coedge $-1 $484 $485 $342 $486 forward $215 $-1 #
coedge $-1 $342 $217 $219 $348 reversed $135 $-1 #
coedge $-1 $217 $341 $340 $486 reversed $135 $-1 #
coedge $-1 $487 $220 $217 $344 forward $338 $-1 #
edge $-1 $351 -37.330118843391951 $488 -29.9397414079003 $343 $489 forward 7 unknown #
coedge $-1 $219 $218 $484 $490 reversed $86 $-1 #
coedge $-1 $491 $492 $218 $347 forward $482 $-1 #
edge $-1 $493 -11.328386473640073 $350 -0.063580691952430116 $346 $494 forward 7 unknown #
edge $-1 $495 0 $351 11.264805781687643 $341 $496 forward 7 unknown #
coedge $-1 $220 $487 $491 $497 forward $338 $-1 #
vertex $-1 $347 $498 #
vertex $-1 $221 $499 #
straight-curve $-1 27.444551675860126 -27.213598277340729 8.5619151186931131 -1 0 0 I I #
coedge $-1 $353 $353 $-1 $500 reversed $224 $-1 #
edge $-1 $501 0 $501 6.2831853071796004 $225 $502 forward 7 unknown #
vertex $-1 $228 $503 #
ellipse-curve $-1 51.586188609873943 -30.908786995086555 4.3110866506142376 0 -0.75470958851134928 0.65605901945558964 2 0 0 1 I I #
coedge $-1 $357 $357 $-1 $504 reversed $231 $-1 #
edge $-1 $505 0 $505 6.2831853071796004 $232 $506 forward 7 unknown #
vertex $-1 $235 $507 #
ellipse-curve $-1 58.19201809356656 -30.908786995086555 4.3110866506142376 0 -0.75470958851134928 0.65605901945558964 2 0 0 1 I I #
face $-1 $-1 $508 $50 $-1 $509 reversed single #
loop $-1 $-1 $242 $236 #
plane-surface $-1 0 0 8.5619151186931131 0 0 1 1 0 0 forward_v I I I I #
coedge $-1 $510 $511 $512 $513 reversed $237 $-1 #
coedge $-1 $514 $239 $241 $371 forward $149 $-1 #
coedge $-1 $239 $514 $510 $515 forward $149 $-1 #
coedge $-1 $512 $242 $239 $368 forward $362 $-1 #
edge $-1 $374 -8.7640440041048677 $516 6.6495581245112376 $367 $517 forward 7 unknown #
coedge $-1 $518 $519 $240 $370 forward $508 $-1 #
edge $-1 $520 -67.152430852936135 $373 -58.65077391677837 $369 $521 forward 7 unknown #
edge $-1 $374 57.943145643977111 $520 69.207951425664774 $241 $522 forward 7 unknown #
coedge $-1 $242 $512 $518 $523 forward $362 $-1 #
vertex $-1 $243 $524 #
vertex $-1 $243 $525 #
straight-curve $-1 -9.8212869439016828 41.841466745306832 8.5619151186931148 0 -1 0 I I #
coedge $-1 $376 $376 $-1 $526 reversed $246 $-1 #
edge $-1 $527 0 $527 6.2831853071796004 $247 $528 forward 7 unknown #
vertex $-1 $250 $529 #
ellipse-curve $-1 -5.4174006214399384 30.908786995086547 4.3110866506142447 0 0.75470958851134928 0.65605901945558964 2 0 0 1 I I #
coedge $-1 $380 $380 $-1 $530 reversed $253 $-1 #
edge $-1 $531 0 $531 6.2831853071796004 $254 $532 forward 7 unknown #
vertex $-1 $257 $533 #
ellipse-curve $-1 1.1884288622526782 30.908786995086547 4.3110866506142447 0 0.75470958851134928 0.65605901945558964 2 0 0 1 I I #
face $-1 $-1 $397 $53 $-1 $534 reversed single #
loop $-1 $-1 $393 $258 #
plane-surface $-1 62.595904416028318 0 0 -1 0 0 0 0 1 forward_v I I I I #
coedge $-1 $535 $536 $389 $537 forward $259 $-1 #
coedge $-1 $389 $261 $263 $395 reversed $163 $-1 #
coedge $-1 $261 $388 $387 $537 reversed $163 $-1 #
coedge $-1 $538 $264 $261 $391 forward $397 $-1 #
edge $-1 $399 -67.152430852936135 $539 -58.65077391677837 $390 $540 forward 7 unknown #
coedge $-1 $263 $262 $535 $541 reversed $104 $-1 #
coedge $-1 $542 $543 $262 $394 forward $385 $-1 #
edge $-1 $544 34.667556404784804 $398 45.932362186472467 $393 $545 forward 7 unknown #
edge $-1 $546 57.943145643977111 $399 69.207951425664774 $388 $547 forward 7 unknown #
coedge $-1 $264 $538 $542 $548 forward $397 $-1 #
loop $-1 $-1 $390 $384 #
vertex $-1 $394 $549 #
vertex $-1 $265 $550 #
straight-curve $-1 27.444551675860126 34.60397571283238 0.0602581825353532 -1 0 0 I I #
coedge $-1 $401 $401 $-1 $551 reversed $268 $-1 #
edge $-1 $552 0 $552 6.2831853071796004 $269 $553 forward 7 unknown #
vertex $-1 $272 $554 #
ellipse-curve $-1 51.586188609873943 30.908786995086547 4.3110866506142447 0 0.75470958851134928 0.65605901945558964 2 0 0 1 I I #
coedge $-1 $405 $405 $-1 $555 reversed $275 $-1 #
edge $-1 $556 0 $556 6.2831853071796004 $276 $557 forward 7 unknown #
vertex $-1 $279 $558 #
ellipse-curve $-1 58.19201809356656 30.908786995086547 4.3110866506142447 0 0.75470958851134928 0.65605901945558964 2 0 0 1 I I #
face $-1 $-1 $295 $42 $-1 $559 reversed single #
loop $-1 $-1 $425 $280 #
plane-surface $-1 0 34.60397571283238 0 0 -1 0 0 0 -1 forward_v I I I I #
coedge $-1 $560 $423 $426 $561 forward $281 $-1 #
coedge $-1 $429 $283 $284 $417 reversed $177 $-1 #
coedge $-1 $423 $560 $283 $415 reversed $281 $-1 #
edge $-1 $430 -8.5619151186931131 $562 8.5619151186931131 $414 $563 forward 7 unknown #
coedge $-1 $285 $284 $560 $564 forward $113 $-1 #
edge $-1 $421 -62.595904416028318 $562 62.595904416028318 $413 $565 forward 7 unknown #
coedge $-1 $426 $425 $285 $419 reversed $410 $-1 #
edge $-1 $566 -62.595904416028318 $420 62.595904416028318 $418 $567 forward 7 unknown #
vertex $-1 $287 $568 #
vertex $-1 $432 $569 #
straight-curve $-1 62.595904416028318 0 -8.5619151186931131 0 -1 0 I I #
coedge $-1 $412 $414 $288 $424 reversed $281 $-1 #
edge $-1 $427 -34.60397571283238 $430 34.60397571283238 $423 $570 forward 7 unknown #
coedge $-1 $418 $289 $294 $433 forward $410 $-1 #
coedge $-1 $289 $418 $412 $561 reversed $410 $-1 #
vertex $-1 $290 $571 #
straight-curve $-1 0 34.60397571283238 8.5619151186931131 -1 0 0 I I #
coedge $-1 $291 $413 $293 $432 reversed $177 $-1 #
vertex $-1 $424 $572 #
straight-curve $-1 0 -34.60397571283238 8.5619151186931131 1 0 0 I I #
edge $-1 $296 -8.5619151186931131 $421 8.5619151186931131 $293 $573 forward 7 unknown #
edge $-1 $297 -8.5619151186931131 $420 8.5619151186931131 $294 $574 forward 7 unknown #
point $-1 62.595904416028318 -34.60397571283238 8.5619151186931131 #
point $-1 62.595904416028318 34.60397571283238 8.5619151186931131 #
face $-1 $-1 $449 $43 $-1 $575 reversed single #
loop $-1 $-1 $576 $299 #
plane-surface $-1 -73.780534785457192 0 5.0321560138665582 1 0 0 0 0 -1 forward_v I I I I #
coedge $-1 $577 $441 $305 $446 reversed $300 $-1 #
coedge $-1 $303 $302 $576 $578 reversed $117 $-1 #
coedge $-1 $439 $579 $302 $442 forward $300 $-1 #
edge $-1 $580 -5.5923151847144368 $444 5.5923151847144368 $302 $581 forward 7 unknown #
edge $-1 $310 -5.5923151847144368 $582 5.5923151847144368 $303 $583 forward 7 unknown #
vertex $-1 $304 $584 #
straight-curve $-1 -62.595904416028318 34.60397571283238 0 0 0 -1 I I #
edge $-1 $450 -34.60397571283238 $444 34.60397571283238 $439 $585 forward 7 unknown #
coedge $-1 $586 $306 $309 $453 reversed $449 $-1 #
coedge $-1 $306 $586 $577 $587 reversed $449 $-1 #
loop $-1 $-1 $306 $436 #
vertex $-1 $307 $588 #
straight-curve $-1 -62.595904416028318 -34.60397571283238 0 0 0 1 I I #
coedge $-1 $309 $308 $589 $590 forward $185 $-1 #
edge $-1 $591 -5.5923151847144368 $311 5.5923151847144368 $447 $592 forward 7 unknown #
point $-1 -62.595904416028318 34.60397571283238 6.5321560138665582 #
point $-1 -62.595904416028318 -34.60397571283238 6.5321560138665582 #
plane-surface $-1 0 0 8.5619151186931131 0 0 1 1 0 0 forward_v I I I I #
coedge $-1 $467 $466 $459 $593 forward $314 $-1 #
coedge $-1 $459 $316 $318 $463 reversed $193 $-1 #
coedge $-1 $316 $458 $457 $593 reversed $193 $-1 #
coedge $-1 $324 $319 $316 $461 forward $325 $-1 #
edge $-1 $464 -37.330118843391951 $594 -29.9397414079003 $460 $595 forward 7 unknown #
coedge $-1 $318 $317 $467 $596 reversed $121 $-1 #
edge $-1 $597 0 $464 11.264805781687643 $458 $598 forward 7 unknown #
vertex $-1 $320 $599 #
straight-curve $-1 -1.0572429397968151 -27.213598277340729 8.5619151186931131 -1 0 0 I I #
coedge $-1 $457 $321 $324 $471 reversed $314 $-1 #
coedge $-1 $321 $457 $462 $596 forward $314 $-1 #
vertex $-1 $322 $600 #
straight-curve $-1 5.5923151847144226 -34.60397571283238 41.096736764383039 0 0 1 I I #
straight-curve $-1 5.5923151847144226 -34.60397571283238 0.060258182535363858 0 -0.65605901945558964 -0.75470958851134928 I I #
edge $-1 $594 -9.8212869439016828 $326 5.5923151847144226 $466 $601 forward 7 unknown #
point $-1 5.5923151847144226 -34.60397571283238 8.5619151186931131 #
point $-1 5.5923151847144226 -27.213598277340729 8.5619151186931131 #
edge $-1 $602 1 $602 0 $329 $-1 forward 7 unknown #
vertex $-1 $330 $603 #
ellipse-curve $-1 -5.4174006214399384 -28.673149570260794 2.3676767362358233 0 -0.75470958851134928 0.65605901945558964 2 0 0 1 I I #
point $-1 -3.4174006214399384 -30.908786995086551 4.3110866506142331 #
edge $-1 $604 1 $604 0 $333 $-1 forward 7 unknown #
vertex $-1 $334 $605 #
ellipse-curve $-1 1.1884288622526782 -28.673149570260794 2.3676767362358233 0 -0.75470958851134928 0.65605901945558964 2 0 0 1 I I #
point $-1 3.1884288622526782 -30.908786995086551 4.3110866506142331 #
loop $-1 $-1 $346 $337 #
plane-surface $-1 62.595904416028318 0 0 -1 0 0 0 0 1 forward_v I I I I #
coedge $-1 $606 $340 $345 $490 forward $215 $-1 #
coedge $-1 $340 $606 $487 $607 reversed $215 $-1 #
edge $-1 $488 32.534821645689924 $495 41.036478581847675 $340 $608 forward 7 unknown #
coedge $-1 $349 $343 $485 $607 forward $338 $-1 #
vertex $-1 $607 $609 #
straight-curve $-1 47.182302287412199 -64.54371712073268 8.5619151186931148 0 -1 0 I I #
edge $-1 $495 19.737750611552073 $493 35.151352740168178 $484 $610 forward 7 unknown #
coedge $-1 $492 $346 $349 $497 reversed $482 $-1 #
coedge $-1 $346 $491 $606 $611 forward $482 $-1 #
vertex $-1 $490 $612 #
straight-curve $-1 62.595904416028318 -27.171885590922109 8.6099000765537976 0 0.65605901945558975 0.75470958851134939 I I #
vertex $-1 $490 $613 #
straight-curve $-1 47.182302287412199 -34.60397571283238 0.060258182535363858 0 0.65605901945558964 0.75470958851134928 I I #
edge $-1 $614 -34.60397571283238 $350 -27.213598277340729 $491 $615 forward 7 unknown #
point $-1 62.595904416028304 -27.213598277340729 8.5619151186931131 #
point $-1 47.182302287412199 -27.213598277340729 8.5619151186931131 #
edge $-1 $616 1 $616 0 $353 $-1 forward 7 unknown #
vertex $-1 $354 $617 #
ellipse-curve $-1 51.586188609873943 -28.673149570260794 2.3676767362358233 0 -0.75470958851134928 0.65605901945558964 2 0 0 1 I I #
point $-1 53.586188609873943 -30.908786995086551 4.3110866506142331 #
edge $-1 $618 1 $618 0 $357 $-1 forward 7 unknown #
vertex $-1 $358 $619 #
ellipse-curve $-1 58.19201809356656 -28.673149570260794 2.3676767362358233 0 -0.75470958851134928 0.65605901945558964 2 0 0 1 I I #
point $-1 60.19201809356656 -30.908786995086551 4.3110866506142331 #
loop $-1 $-1 $369 $361 #
plane-surface $-1 0 34.60397571283238 0 0 -1 0 0 0 -1 forward_v I I I I #
coedge $-1 $511 $364 $366 $515 reversed $237 $-1 #
coedge $-1 $364 $510 $620 $621 reversed $237 $-1 #
coedge $-1 $372 $367 $364 $513 forward $362 $-1 #
edge $-1 $516 -14.62786846796611 $622 -7.2374910324744519 $512 $623 forward 7 unknown #
coedge $-1 $366 $365 $519 $624 reversed $149 $-1 #
edge $-1 $625 -69.207951425664774 $516 -57.943145643977111 $510 $626 forward 7 unknown #
vertex $-1 $368 $627 #
straight-curve $-1 -1.0572429397968151 27.213598277340726 8.5619151186931148 1 0 0 I I #
coedge $-1 $620 $369 $372 $523 reversed $508 $-1 #
coedge $-1 $369 $620 $514 $624 forward $508 $-1 #
vertex $-1 $370 $628 #
straight-curve $-1 -9.8212869439016828 34.60397571283238 67.212689035471485 0 0 1 I I #
straight-curve $-1 -9.8212869439016828 -10.800525038019316 52.292162724712256 0 0.65605901945558964 -0.75470958851134928 I I #
edge $-1 $622 -5.5923151847144226 $373 9.8212869439016828 $518 $629 forward 7 unknown #
point $-1 -9.8212869439016828 34.60397571283238 8.5619151186931131 #
point $-1 -9.8212869439016828 27.213598277340722 8.5619151186931148 #
edge $-1 $630 1 $630 0 $376 $-1 forward 7 unknown #
vertex $-1 $377 $631 #
ellipse-curve $-1 -5.4174006214399384 28.673149570260787 2.3676767362358304 0 0.75470958851134928 0.65605901945558964 2 0 0 1 I I #
point $-1 -3.4174006214399384 30.908786995086544 4.3110866506142402 #
edge $-1 $632 1 $632 0 $380 $-1 forward 7 unknown #
vertex $-1 $381 $633 #
ellipse-curve $-1 1.1884288622526782 28.673149570260787 2.3676767362358304 0 0.75470958851134928 0.65605901945558964 2 0 0 1 I I #
point $-1 3.1884288622526782 30.908786995086544 4.3110866506142402 #
plane-surface $-1 0 34.60397571283238 0 0 -1 0 0 0 -1 forward_v I I I I #
coedge $-1 $634 $387 $392 $541 forward $259 $-1 #
coedge $-1 $387 $634 $538 $635 forward $259 $-1 #
edge $-1 $539 7.2374910324744519 $546 14.62786846796611 $387 $636 forward 7 unknown #
coedge $-1 $396 $390 $536 $635 reversed $397 $-1 #
vertex $-1 $537 $637 #
straight-curve $-1 47.182302287412199 34.60397571283238 67.212689035471485 0 0 1 I I #
edge $-1 $546 19.737750611552073 $544 35.151352740168178 $535 $638 forward 7 unknown #
coedge $-1 $543 $393 $396 $548 reversed $385 $-1 #
coedge $-1 $393 $542 $634 $639 reversed $385 $-1 #
vertex $-1 $639 $640 #
straight-curve $-1 62.595904416028318 4.4696352154962575 34.725852347642245 0 0.65605901945558975 -0.75470958851134939 I I #
vertex $-1 $541 $641 #
straight-curve $-1 47.182302287412199 -10.800525038019316 52.292162724712256 0 0.65605901945558964 -0.75470958851134928 I I #
edge $-1 $642 -8.5619151186931131 $398 -0.060258182535350847 $542 $643 forward 7 unknown #
point $-1 62.595904416028318 34.60397571283238 0.060258182535350847 #
point $-1 47.182302287412199 34.60397571283238 0.060258182535356752 #
edge $-1 $644 1 $644 0 $401 $-1 forward 7 unknown #
vertex $-1 $402 $645 #
ellipse-curve $-1 51.586188609873943 28.673149570260787 2.3676767362358304 0 0.75470958851134928 0.65605901945558964 2 0 0 1 I I #
point $-1 53.586188609873943 30.908786995086544 4.3110866506142402 #
edge $-1 $646 1 $646 0 $405 $-1 forward 7 unknown #
vertex $-1 $406 $647 #
ellipse-curve $-1 58.19201809356656 28.673149570260787 2.3676767362358304 0 0.75470958851134928 0.65605901945558964 2 0 0 1 I I #
point $-1 60.19201809356656 30.908786995086544 4.3110866506142402 #
plane-surface $-1 62.595904416028318 0 0 -1 0 0 0 0 1 forward_v I I I I #
coedge $-1 $414 $412 $416 $564 reversed $281 $-1 #
edge $-1 $427 -8.5619151186931131 $566 8.5619151186931131 $426 $648 forward 7 unknown #
vertex $-1 $564 $649 #
straight-curve $-1 -62.595904416028318 -34.60397571283238 0 0 0 -1 I I #
edge $-1 $562 -34.60397571283238 $566 34.60397571283238 $560 $650 forward 7 unknown #
straight-curve $-1 0 -34.60397571283238 -8.5619151186931131 -1 0 0 I I #
vertex $-1 $419 $651 #
straight-curve $-1 0 34.60397571283238 -8.5619151186931131 1 0 0 I I #
point $-1 62.595904416028318 34.60397571283238 -8.5619151186931131 #
point $-1 62.595904416028318 -34.60397571283238 -8.5619151186931131 #
straight-curve $-1 -62.595904416028318 0 8.5619151186931131 0 -1 0 I I #
point $-1 -62.595904416028318 34.60397571283238 8.5619151186931131 #
point $-1 -62.595904416028318 -34.60397571283238 8.5619151186931131 #
straight-curve $-1 62.595904416028318 -34.60397571283238 0 0 0 -1 I I #
straight-curve $-1 62.595904416028318 34.60397571283238 0 0 0 -1 I I #
plane-surface $-1 0 -34.60397571283238 0 0 1 0 0 0 1 forward_v I I I I #
coedge $-1 $652 $589 $440 $578 forward $437 $-1 #
coedge $-1 $579 $439 $448 $587 forward $300 $-1 #
edge $-1 $582 -1.5 $580 1.5 $440 $653 forward 7 unknown #
coedge $-1 $441 $577 $652 $654 forward $300 $-1 #
vertex $-1 $442 $655 #
straight-curve $-1 -68.188219600742755 34.60397571283238 3.5321560138665582 1 0 0 I I #
vertex $-1 $443 $656 #
straight-curve $-1 -68.188219600742755 34.60397571283238 6.5321560138665582 -1 0 0 I I #
point $-1 -62.595904416028318 34.60397571283238 3.5321560138665582 #
straight-curve $-1 -62.595904416028318 0 3.5321560138665582 0 1 0 I I #
coedge $-1 $448 $447 $657 $658 forward $449 $-1 #
edge $-1 $450 -5.5923151847144368 $659 5.5923151847144368 $448 $660 forward 7 unknown #
point $-1 -62.595904416028318 -34.60397571283238 3.5321560138665582 #
coedge $-1 $576 $657 $452 $590 reversed $437 $-1 #
edge $-1 $582 -34.60397571283238 $591 34.60397571283238 $589 $661 forward 7 unknown #
vertex $-1 $590 $662 #
straight-curve $-1 -68.188219600742755 -34.60397571283238 6.5321560138665582 1 0 0 I I #
edge $-1 $594 32.534821645689924 $597 41.036478581847675 $457 $663 forward 7 unknown #
vertex $-1 $471 $664 #
straight-curve $-1 -9.8212869439016828 -64.54371712073268 8.5619151186931148 0 -1 0 I I #
edge $-1 $597 -8.7640440041048677 $468 6.6495581245112376 $467 $665 forward 7 unknown #
vertex $-1 $596 $666 #
straight-curve $-1 -9.8212869439016828 -34.60397571283238 0.060258182535363858 0 0.65605901945558964 0.75470958851134928 I I #
point $-1 -9.8212869439016828 -27.213598277340729 8.5619151186931131 #
point $-1 5.5923151847144226 -34.60397571283238 0.060258182535363858 #
straight-curve $-1 0 -34.60397571283238 8.5619151186931131 1 0 0 I I #
vertex $-1 $474 $667 #
point $-1 -3.4174006214399384 -28.673149570260794 2.3676767362358233 #
vertex $-1 $478 $668 #
point $-1 3.1884288622526782 -28.673149570260794 2.3676767362358233 #
coedge $-1 $485 $484 $492 $611 reversed $215 $-1 #
edge $-1 $488 47.182302287412199 $614 62.595904416028318 $485 $669 forward 7 unknown #
straight-curve $-1 47.182302287412199 -34.60397571283238 41.096736764383039 0 0 -1 I I #
point $-1 47.182302287412199 -34.60397571283238 8.5619151186931131 #
straight-curve $-1 27.444551675860126 -34.60397571283238 0.060258182535364732 1 0 0 I I #
edge $-1 $614 -8.5619151186931131 $493 -0.060258182535363858 $492 $670 forward 7 unknown #
point $-1 62.595904416028304 -34.60397571283238 0.060258182535363858 #
point $-1 47.182302287412199 -34.60397571283238 0.060258182535363858 #
vertex $-1 $497 $671 #
straight-curve $-1 62.595904416028318 0 8.5619151186931131 0 1 0 I I #
vertex $-1 $500 $672 #
point $-1 53.586188609873943 -28.673149570260794 2.3676767362358233 #
vertex $-1 $504 $673 #
point $-1 60.19201809356656 -28.673149570260794 2.3676767362358233 #
coedge $-1 $519 $518 $511 $621 forward $508 $-1 #
edge $-1 $622 58.65077391677837 $625 67.152430852936135 $620 $674 forward 7 unknown #
vertex $-1 $523 $675 #
straight-curve $-1 5.5923151847144226 41.841466745306832 8.5619151186931148 0 1 0 I I #
edge $-1 $625 -6.6495581245112376 $520 8.7640440041048677 $519 $676 forward 7 unknown #
vertex $-1 $624 $677 #
straight-curve $-1 5.5923151847144226 -10.800525038019316 52.292162724712256 0 -0.65605901945558964 0.75470958851134928 I I #
point $-1 5.5923151847144226 27.213598277340722 8.5619151186931148 #
point $-1 -9.8212869439016828 34.60397571283238 0.060258182535356752 #
straight-curve $-1 0 34.60397571283238 8.5619151186931131 -1 0 0 I I #
vertex $-1 $526 $678 #
point $-1 -3.4174006214399384 28.673149570260787 2.3676767362358304 #
vertex $-1 $530 $679 #
point $-1 3.1884288622526782 28.673149570260787 2.3676767362358304 #
coedge $-1 $536 $535 $543 $639 forward $259 $-1 #
edge $-1 $642 -62.595904416028318 $539 -47.182302287412199 $538 $680 forward 7 unknown #
straight-curve $-1 47.182302287412199 41.841466745306832 8.5619151186931148 0 -1 0 I I #
point $-1 47.182302287412199 34.60397571283238 8.5619151186931131 #
straight-curve $-1 27.444551675860126 27.213598277340726 8.5619151186931148 1 0 0 I I #
edge $-1 $544 27.213598277340722 $642 34.60397571283238 $543 $681 forward 7 unknown #
point $-1 62.595904416028304 27.213598277340722 8.5619151186931148 #
point $-1 47.182302287412199 27.213598277340722 8.5619151186931148 #
vertex $-1 $639 $682 #
straight-curve $-1 62.595904416028318 34.60397571283238 0 0 0 -1 I I #
vertex $-1 $551 $683 #
point $-1 53.586188609873943 28.673149570260787 2.3676767362358304 #
vertex $-1 $555 $684 #
point $-1 60.19201809356656 28.673149570260787 2.3676767362358304 #
straight-curve $-1 -62.595904416028318 34.60397571283238 0 0 0 -1 I I #
point $-1 -62.595904416028318 -34.60397571283238 -8.5619151186931131 #
straight-curve $-1 -62.595904416028318 0 -8.5619151186931131 0 1 0 I I #
point $-1 -62.595904416028318 34.60397571283238 -8.5619151186931131 #
coedge $-1 $657 $576 $579 $654 reversed $437 $-1 #
straight-curve $-1 -73.780534785457192 34.60397571283238 5.0321560138665582 0 0 -1 I I #
edge $-1 $659 -34.60397571283238 $580 34.60397571283238 $652 $685 forward 7 unknown #
point $-1 -73.780534785457192 34.60397571283238 3.5321560138665582 #
point $-1 -73.780534785457192 34.60397571283238 6.5321560138665582 #
coedge $-1 $589 $652 $586 $658 reversed $437 $-1 #
edge $-1 $591 -1.5 $659 1.5 $657 $686 forward 7 unknown #
vertex $-1 $654 $687 #
straight-curve $-1 -68.188219600742755 -34.60397571283238 3.5321560138665582 -1 0 0 I I #
straight-curve $-1 -73.780534785457192 0 6.5321560138665582 0 -1 0 I I #
point $-1 -73.780534785457192 -34.60397571283238 6.5321560138665582 #
straight-curve $-1 -9.8212869439016828 -34.60397571283238 41.096736764383039 0 0 -1 I I #
point $-1 -9.8212869439016828 -34.60397571283238 8.5619151186931131 #
straight-curve $-1 -1.0572429397968151 -34.60397571283238 0.060258182535364732 1 0 0 I I #
point $-1 -9.8212869439016828 -34.60397571283238 0.060258182535363858 #
point $-1 -5.4174006214399384 -27.163730393238094 1.0555586973246442 #
point $-1 1.1884288622526782 -27.163730393238094 1.0555586973246442 #
straight-curve $-1 0 -34.60397571283238 8.5619151186931131 1 0 0 I I #
straight-curve $-1 62.595904416028318 -34.60397571283238 0 0 0 -1 I I #
point $-1 62.595904416028318 -34.60397571283238 8.5619151186931131 #
point $-1 51.586188609873943 -27.163730393238094 1.0555586973246442 #
point $-1 58.19201809356656 -27.163730393238094 1.0555586973246442 #
straight-curve $-1 5.5923151847144226 34.60397571283238 67.212689035471485 0 0 -1 I I #
point $-1 5.5923151847144226 34.60397571283238 8.5619151186931131 #
straight-curve $-1 -1.0572429397968151 34.60397571283238 0.0602581825353532 -1 0 0 I I #
point $-1 5.5923151847144226 34.60397571283238 0.060258182535356752 #
point $-1 -5.4174006214399384 27.163730393238087 1.0555586973246514 #
point $-1 1.1884288622526782 27.163730393238087 1.0555586973246514 #
straight-curve $-1 0 34.60397571283238 8.5619151186931131 -1 0 0 I I #
straight-curve $-1 62.595904416028318 0 8.5619151186931131 0 1 0 I I #
point $-1 62.595904416028318 34.60397571283238 8.5619151186931131 #
point $-1 51.586188609873943 27.163730393238087 1.0555586973246514 #
point $-1 58.19201809356656 27.163730393238087 1.0555586973246514 #
straight-curve $-1 -73.780534785457192 0 3.5321560138665582 0 1 0 I I #
straight-curve $-1 -73.780534785457192 -34.60397571283238 5.0321560138665582 0 0 -1 I I #
point $-1 -73.780534785457192 -34.60397571283238 3.5321560138665582 #
End-of-ACIS-data 