500 0 11 0           
7 Unknown 11 ACIS 5.0 NT 24 Thu Mar 25 18:16:12 1999 
-1 9.9999999999999995e-007 1e-010 
body $-1 $11 $-1 $12 #
body $-1 $13 $-1 $14 #
body $-1 $15 $-1 $16 #
body $-1 $17 $-1 $18 #
body $-1 $19 $-1 $20 #
body $-1 $21 $-1 $22 #
body $-1 $23 $-1 $24 #
body $-1 $25 $-1 $26 #
body $-1 $27 $-1 $28 #
body $-1 $29 $-1 $30 #
body $-1 $31 $-1 $32 #
lump $-1 $-1 $33 $0 #
transform $-1 1 0 0 0 1 0 0 0 1 55.502182073427534 33.002176416694624 6.7808207258948512 1 rotate no_reflect no_shear #
lump $-1 $-1 $34 $1 #
transform $-1 1 0 0 0 1 0 0 0 1 55.502182073427534 33.002176416694624 6.7808207258948512 1 rotate no_reflect no_shear #
lump $-1 $-1 $35 $2 #
transform $-1 1 0 0 0 1 0 0 0 1 55.502182073427534 33.002176416694624 6.7808207258948512 1 rotate no_reflect no_shear #
lump $-1 $-1 $36 $3 #
transform $-1 1 0 0 0 1 0 0 0 1 55.502182073427534 33.002176416694624 6.7808207258948512 1 rotate no_reflect no_shear #
lump $-1 $-1 $37 $4 #
transform $-1 1 0 0 0 1 0 0 0 1 55.502182073427534 33.002176416694624 6.7808207258948512 1 rotate no_reflect no_shear #
lump $-1 $-1 $38 $5 #
transform $-1 1 0 0 0 1 0 0 0 1 55.502182073427534 33.002176416694624 6.7808207258948512 1 rotate no_reflect no_shear #
lump $-1 $-1 $39 $6 #
transform $-1 1 0 0 0 1 0 0 0 1 55.502182073427534 33.002176416694624 6.7808207258948512 1 rotate no_reflect no_shear #
lump $-1 $-1 $40 $7 #
transform $-1 1 0 0 0 1 0 0 0 1 55.502182073427534 33.002176416694624 6.7808207258948512 1 rotate no_reflect no_shear #
lump $-1 $-1 $41 $8 #
transform $-1 1 0 0 0 1 0 0 0 1 55.502182073427534 33.002176416694624 6.7808207258948512 1 rotate no_reflect no_shear #
lump $-1 $-1 $42 $9 #
transform $-1 1 0 0 0 1 0 0 0 1 55.502182073427534 33.002176416694624 6.7808207258948512 1 rotate no_reflect no_shear #
lump $-1 $-1 $43 $10 #
transform $-1 1 0 0 0 1 0 0 0 1 55.502182073427534 33.002176416694624 6.7808207258948512 1 rotate no_reflect no_shear #
shell $-1 $-1 $-1 $44 $-1 $11 #
shell $-1 $-1 $-1 $45 $-1 $13 #
shell $-1 $-1 $-1 $46 $-1 $15 #
shell $-1 $-1 $-1 $47 $-1 $17 #
shell $-1 $-1 $-1 $48 $-1 $19 #
shell $-1 $-1 $-1 $49 $-1 $21 #
shell $-1 $-1 $-1 $50 $-1 $23 #
shell $-1 $-1 $-1 $51 $-1 $25 #
shell $-1 $-1 $-1 $52 $-1 $27 #
shell $-1 $-1 $-1 $53 $-1 $29 #
shell $-1 $-1 $-1 $54 $-1 $31 #
face $-1 $55 $56 $33 $-1 $57 reversed single #
face $-1 $58 $59 $34 $-1 $60 forward single #
face $-1 $61 $62 $35 $-1 $63 reversed single #
face $-1 $64 $65 $36 $-1 $66 forward single #
face $-1 $67 $68 $37 $-1 $69 forward single #
face $-1 $70 $71 $38 $-1 $72 reversed single #
face $-1 $73 $74 $39 $-1 $75 forward single #
face $-1 $76 $77 $40 $-1 $78 forward single #
face $-1 $79 $80 $41 $-1 $81 reversed single #
face $-1 $82 $83 $42 $-1 $84 forward single #
face $-1 $85 $86 $43 $-1 $87 forward single #
face $-1 $88 $89 $33 $-1 $90 forward single #
loop $-1 $-1 $91 $44 #
plane-surface $-1 0 -33.002176416694624 0 0 1 0 0 0 1 forward_v I I I I #
face $-1 $92 $93 $34 $-1 $94 reversed single #
loop $-1 $-1 $95 $45 #
plane-surface $-1 0 -33.002176416694624 0 0 1 0 0 0 1 forward_v I I I I #
face $-1 $96 $97 $35 $-1 $98 reversed single #
loop $-1 $-1 $99 $46 #
plane-surface $-1 98.772805280403176 15.317166007934063 153.86290530586729 0 -1 0 -0.87461971476443456 0 -0.48480960649040278 forward_v I I I I #
face $-1 $100 $101 $36 $-1 $102 forward single #
loop $-1 $103 $104 $47 #
cone-surface $-1 53.579923445356052 4.5450351295523248 4.3919849818578989 -0.87461971476443456 0 -0.48480960649040278 0.24240480324520139 0 -0.43730985738221728 1 I I 0 1 0.5 forward I I I I #
face $-1 $105 $106 $37 $-1 $107 forward single #
loop $-1 $108 $109 $48 #
cone-surface $-1 53.579923445356052 11.008313656581365 4.3919849818578989 -0.87461971476443456 0 -0.48480960649040278 0.24240480324520139 0 -0.43730985738221728 1 I I 0 1 0.5 forward I I I I #
face $-1 $110 $111 $38 $-1 $112 reversed single #
loop $-1 $-1 $113 $49 #
plane-surface $-1 -117.57503556537259 -15.788916263522857 95.709993055940615 0 1 0 -0.55919291073839883 0 0.82903756765294845 forward_v I I I I #
face $-1 $114 $115 $39 $-1 $116 forward single #
loop $-1 $117 $118 $50 #
cone-surface $-1 -52.262560652899872 -11.891444329212131 3.8333361388633875 0.55919291073839883 0 -0.82903756765294845 0.82903756765294845 0 0.55919291073839883 1 I I 0 1 1 forward I I I I #
face $-1 $119 $120 $40 $-1 $121 forward single #
loop $-1 $122 $123 $51 #
cone-surface $-1 -52.262560652899872 -6.0452364277460404 3.8333361388633875 0.55919291073839883 0 -0.82903756765294845 0.82903756765294845 0 0.55919291073839883 1 I I 0 1 1 forward I I I I #
face $-1 $124 $125 $41 $-1 $126 reversed single #
loop $-1 $-1 $127 $52 #
plane-surface $-1 -117.57503556537259 13.408529993119679 95.709993055940615 0 1 0 -0.55919291073839883 0 0.82903756765294845 forward_v I I I I #
face $-1 $128 $129 $42 $-1 $130 forward single #
loop $-1 $131 $132 $53 #
cone-surface $-1 -52.262560652899872 17.306001927430401 3.8333361388633875 0.55919291073839883 0 -0.82903756765294845 0.82903756765294845 0 0.55919291073839883 1 I I 0 1 1 forward I I I I #
face $-1 $133 $134 $43 $-1 $135 forward single #
loop $-1 $136 $137 $54 #
cone-surface $-1 -52.262560652899872 23.152209828896488 3.8333361388633875 0.55919291073839883 0 -0.82903756765294845 0.82903756765294845 0 0.55919291073839883 1 I I 0 1 1 forward I I I I #
face $-1 $138 $139 $33 $-1 $140 reversed single #
loop $-1 $-1 $141 $55 #
plane-surface $-1 0 0 6.7808207258948512 0 0 1 1 0 0 forward_v I I I I #
coedge $-1 $142 $143 $144 $145 reversed $56 $-1 #
face $-1 $146 $147 $34 $-1 $148 reversed single #
loop $-1 $-1 $149 $58 #
plane-surface $-1 0 0 -6.7808207258948512 0 0 1 1 0 0 forward_v I I I I #
coedge $-1 $150 $151 $152 $153 forward $59 $-1 #
face $-1 $154 $155 $35 $-1 $156 reversed single #
loop $-1 $-1 $157 $61 #
plane-surface $-1 1.6861999726733643 7.7766743930668483 100.0469232051131 0.87461971476443456 0 0.48480960649040278 0.48480960649040278 0 -0.87461971476443456 forward_v I I I I #
coedge $-1 $158 $159 $160 $161 reversed $62 $-1 #
face $-1 $-1 $162 $36 $-1 $163 forward single #
loop $-1 $164 $165 $64 #
cone-surface $-1 52.497879498790283 4.5450351295523248 3.7921982504541107 -0.87461971476443456 0 -0.48480960649040278 0.12120240162260069 0 -0.21865492869110864 1 I I -0.70710678118654746 0.70710678118654746 0.25 forward I I I I #
loop $-1 $-1 $166 $47 #
coedge $-1 $104 $104 $167 $168 reversed $65 $-1 #
face $-1 $-1 $169 $37 $-1 $170 forward single #
loop $-1 $171 $172 $67 #
cone-surface $-1 52.497879498790283 11.008313656581365 3.7921982504541107 -0.87461971476443456 0 -0.48480960649040278 0.12120240162260069 0 -0.21865492869110864 1 I I -0.70710678118654746 0.70710678118654746 0.25 forward I I I I #
loop $-1 $-1 $173 $48 #
coedge $-1 $109 $109 $174 $175 reversed $68 $-1 #
face $-1 $176 $177 $38 $-1 $178 reversed single #
loop $-1 $-1 $179 $70 #
plane-surface $-1 -55.502182073427541 -8.9683403784790841 3.6832050047697322 -0.55919291073839883 0 0.82903756765294845 0.82903756765294845 0 0.55919291073839883 forward_v I I I I #
coedge $-1 $180 $181 $182 $183 reversed $71 $-1 #
face $-1 $-1 $184 $39 $-1 $185 forward single #
loop $-1 $186 $187 $73 #
cone-surface $-1 -51.039544815378363 -11.891444329212131 2.0201406285680124 0.55919291073839883 0 -0.82903756765294845 0.41451878382647422 0 0.27959645536919941 1 I I -0.70710678118654746 0.70710678118654746 0.5 forward I I I I #
loop $-1 $-1 $188 $50 #
coedge $-1 $118 $118 $189 $190 reversed $74 $-1 #
face $-1 $-1 $191 $40 $-1 $192 forward single #
loop $-1 $193 $194 $76 #
cone-surface $-1 -51.039544815378363 -6.0452364277460404 2.0201406285680124 0.55919291073839883 0 -0.82903756765294845 0.41451878382647422 0 0.27959645536919941 1 I I -0.70710678118654746 0.70710678118654746 0.5 forward I I I I #
loop $-1 $-1 $195 $51 #
coedge $-1 $123 $123 $196 $197 reversed $77 $-1 #
face $-1 $198 $199 $41 $-1 $200 reversed single #
loop $-1 $-1 $201 $79 #
plane-surface $-1 -55.502182073427541 20.229105878163452 3.6832050047697322 -0.55919291073839883 0 0.82903756765294845 0.82903756765294845 0 0.55919291073839883 forward_v I I I I #
coedge $-1 $202 $203 $204 $205 reversed $80 $-1 #
face $-1 $-1 $206 $42 $-1 $207 forward single #
loop $-1 $208 $209 $82 #
cone-surface $-1 -51.039544815378363 17.306001927430401 2.0201406285680124 0.55919291073839883 0 -0.82903756765294845 0.41451878382647422 0 0.27959645536919941 1 I I -0.70710678118654746 0.70710678118654746 0.5 forward I I I I #
loop $-1 $-1 $210 $53 #
coedge $-1 $132 $132 $211 $212 reversed $83 $-1 #
face $-1 $-1 $213 $43 $-1 $214 forward single #
loop $-1 $215 $216 $85 #
cone-surface $-1 -51.039544815378363 23.152209828896488 2.0201406285680124 0.55919291073839883 0 -0.82903756765294845 0.41451878382647422 0 0.27959645536919941 1 I I -0.70710678118654746 0.70710678118654746 0.5 forward I I I I #
loop $-1 $-1 $217 $54 #
coedge $-1 $137 $137 $218 $219 reversed $86 $-1 #
face $-1 $220 $221 $33 $-1 $222 reversed single #
loop $-1 $-1 $223 $88 #
plane-surface $-1 0 0 -6.7808207258948512 0 0 1 1 0 0 forward_v I I I I #
coedge $-1 $224 $225 $226 $227 forward $89 $-1 #
coedge $-1 $228 $91 $229 $230 reversed $56 $-1 #
coedge $-1 $91 $228 $231 $232 forward $56 $-1 #
coedge $-1 $233 $223 $91 $145 forward $139 $-1 #
edge $-1 $234 -55.502182073427534 $235 55.502182073427534 $91 $236 forward 7 unknown #
face $-1 $237 $238 $34 $-1 $239 reversed single #
loop $-1 $-1 $240 $92 #
plane-surface $-1 -43.44054062163783 -40.611636736798815 0 0 1 0 0 0 1 forward_v I I I I #
coedge $-1 $241 $242 $151 $243 forward $93 $-1 #
coedge $-1 $244 $95 $245 $246 reversed $59 $-1 #
coedge $-1 $95 $244 $149 $243 reversed $59 $-1 #
coedge $-1 $247 $248 $95 $153 reversed $238 $-1 #
edge $-1 $249 -6.7808207258948512 $250 6.7808207258948512 $152 $251 forward 7 unknown #
face $-1 $252 $253 $35 $-1 $254 forward single #
loop $-1 $-1 $255 $96 #
plane-surface $-1 98.772805280403176 0.23618277819963396 153.86290530586729 0 1 0 0.87461971476443456 0 0.48480960649040278 forward_v I I I I #
coedge $-1 $256 $257 $258 $259 reversed $97 $-1 #
coedge $-1 $159 $99 $260 $261 reversed $62 $-1 #
coedge $-1 $99 $158 $256 $262 reversed $62 $-1 #
coedge $-1 $258 $263 $99 $161 forward $253 $-1 #
edge $-1 $264 -6.1157794332259456 $265 -3.9980402128322936 $160 $266 forward 7 unknown #
loop $-1 $-1 $167 $100 #
plane-surface $-1 1.6861999726733643 7.7766743930668483 100.0469232051131 0.87461971476443456 0 0.48480960649040278 0.48480960649040278 0 -0.87461971476443456 forward_v I I I I #
loop $-1 $-1 $267 $64 #
coedge $-1 $165 $165 $166 $268 reversed $101 $-1 #
coedge $-1 $166 $166 $165 $268 forward $103 $-1 #
coedge $-1 $167 $167 $104 $168 forward $162 $-1 #
edge $-1 $269 0 $269 6.2831853071796004 $167 $270 forward 7 unknown #
loop $-1 $-1 $174 $105 #
plane-surface $-1 1.6861999726733643 7.7766743930668483 100.0469232051131 0.87461971476443456 0 0.48480960649040278 0.48480960649040278 0 -0.87461971476443456 forward_v I I I I #
loop $-1 $-1 $271 $67 #
coedge $-1 $172 $172 $173 $272 reversed $106 $-1 #
coedge $-1 $173 $173 $172 $272 forward $108 $-1 #
coedge $-1 $174 $174 $109 $175 forward $169 $-1 #
edge $-1 $273 0 $273 6.2831853071796004 $174 $274 forward 7 unknown #
face $-1 $275 $276 $38 $-1 $277 reversed single #
loop $-1 $-1 $278 $110 #
plane-surface $-1 -117.57503556537259 -2.1477644934353108 95.709993055940615 0 -1 0 0.55919291073839883 0 -0.82903756765294845 forward_v I I I I #
coedge $-1 $279 $280 $281 $282 reversed $111 $-1 #
coedge $-1 $181 $113 $283 $284 reversed $71 $-1 #
coedge $-1 $113 $180 $279 $285 reversed $71 $-1 #
coedge $-1 $281 $286 $113 $183 forward $287 $-1 #
edge $-1 $288 3.2853357092587601 $289 7.8777397860094354 $182 $290 forward 7 unknown #
loop $-1 $-1 $189 $114 #
plane-surface $-1 -55.502182073427541 -8.9683403784790841 3.6832050047697322 -0.55919291073839883 0 0.82903756765294845 0.82903756765294845 0 0.55919291073839883 forward_v I I I I #
loop $-1 $-1 $291 $73 #
coedge $-1 $187 $187 $188 $292 reversed $115 $-1 #
coedge $-1 $188 $188 $187 $292 forward $117 $-1 #
coedge $-1 $189 $189 $118 $190 forward $184 $-1 #
edge $-1 $293 0 $293 6.2831853071796004 $189 $294 forward 7 unknown #
loop $-1 $-1 $196 $119 #
plane-surface $-1 -55.502182073427541 -8.9683403784790841 3.6832050047697322 -0.55919291073839883 0 0.82903756765294845 0.82903756765294845 0 0.55919291073839883 forward_v I I I I #
loop $-1 $-1 $295 $76 #
coedge $-1 $194 $194 $195 $296 reversed $120 $-1 #
coedge $-1 $195 $195 $194 $296 forward $122 $-1 #
coedge $-1 $196 $196 $123 $197 forward $191 $-1 #
edge $-1 $297 0 $297 6.2831853071796004 $196 $298 forward 7 unknown #
face $-1 $299 $300 $41 $-1 $301 forward single #
loop $-1 $-1 $302 $124 #
plane-surface $-1 -117.57503556537259 27.049681763207225 95.709993055940615 0 -1 0 0.55919291073839883 0 -0.82903756765294845 forward_v I I I I #
coedge $-1 $303 $304 $305 $306 reversed $125 $-1 #
coedge $-1 $203 $127 $307 $308 reversed $80 $-1 #
coedge $-1 $127 $202 $303 $309 reversed $80 $-1 #
coedge $-1 $305 $310 $127 $205 forward $300 $-1 #
edge $-1 $311 3.2853357092587601 $312 7.8777397860094354 $204 $313 forward 7 unknown #
loop $-1 $-1 $211 $128 #
plane-surface $-1 -55.502182073427541 20.229105878163452 3.6832050047697322 -0.55919291073839883 0 0.82903756765294845 0.82903756765294845 0 0.55919291073839883 forward_v I I I I #
loop $-1 $-1 $314 $82 #
coedge $-1 $209 $209 $210 $315 reversed $129 $-1 #
coedge $-1 $210 $210 $209 $315 forward $131 $-1 #
coedge $-1 $211 $211 $132 $212 forward $206 $-1 #
edge $-1 $316 0 $316 6.2831853071796004 $211 $317 forward 7 unknown #
loop $-1 $-1 $218 $133 #
plane-surface $-1 -55.502182073427541 20.229105878163452 3.6832050047697322 -0.55919291073839883 0 0.82903756765294845 0.82903756765294845 0 0.55919291073839883 forward_v I I I I #
loop $-1 $-1 $318 $85 #
coedge $-1 $216 $216 $217 $319 reversed $134 $-1 #
coedge $-1 $217 $217 $216 $319 forward $136 $-1 #
coedge $-1 $218 $218 $137 $219 forward $213 $-1 #
edge $-1 $320 0 $320 6.2831853071796004 $218 $321 forward 7 unknown #
face $-1 $322 $323 $33 $-1 $324 reversed single #
loop $-1 $-1 $325 $138 #
plane-surface $-1 -55.502182073427534 0 0 1 0 0 0 0 -1 forward_v I I I I #
coedge $-1 $144 $326 $327 $328 forward $139 $-1 #
coedge $-1 $329 $141 $330 $331 forward $89 $-1 #
coedge $-1 $141 $329 $228 $332 forward $89 $-1 #
coedge $-1 $229 $333 $141 $227 reversed $334 $-1 #
edge $-1 $335 -33.002176416694624 $336 33.002176416694624 $226 $337 forward 7 unknown #
coedge $-1 $143 $142 $225 $332 reversed $56 $-1 #
coedge $-1 $327 $226 $142 $230 forward $334 $-1 #
edge $-1 $335 -6.7808207258948512 $234 6.7808207258948512 $229 $338 forward 7 unknown #
coedge $-1 $339 $340 $143 $232 reversed $221 $-1 #
edge $-1 $341 -6.7808207258948512 $235 6.7808207258948512 $231 $342 forward 7 unknown #
coedge $-1 $326 $144 $340 $343 forward $139 $-1 #
vertex $-1 $230 $344 #
vertex $-1 $343 $345 #
straight-curve $-1 0 -33.002176416694624 -6.7808207258948512 -1 0 0 I I #
face $-1 $346 $347 $34 $-1 $348 reversed single #
loop $-1 $-1 $152 $146 #
plane-surface $-1 -44.94054062163783 -36.806906576746719 0 1 0 0 0 0 -1 forward_v I I I I #
coedge $-1 $349 $350 $351 $352 forward $147 $-1 #
coedge $-1 $353 $149 $354 $355 forward $93 $-1 #
coedge $-1 $149 $353 $247 $356 forward $93 $-1 #
edge $-1 $249 -44.94054062163783 $357 -41.94054062163783 $149 $358 forward 7 unknown #
coedge $-1 $151 $150 $359 $360 forward $59 $-1 #
coedge $-1 $361 $362 $150 $246 forward $363 $-1 #
edge $-1 $364 41.94054062163783 $250 44.94054062163783 $245 $365 forward 7 unknown #
coedge $-1 $351 $152 $242 $356 reversed $238 $-1 #
coedge $-1 $152 $351 $361 $366 reversed $238 $-1 #
vertex $-1 $243 $367 #
vertex $-1 $366 $368 #
straight-curve $-1 -44.94054062163783 -33.002176416694624 0 0 0 1 I I #
face $-1 $-1 $369 $35 $-1 $370 reversed single #
loop $-1 $-1 $160 $154 #
plane-surface $-1 0 0 6.7808207258948512 0 0 1 1 0 0 forward_v I I I I #
coedge $-1 $371 $372 $373 $374 reversed $155 $-1 #
coedge $-1 $375 $157 $159 $262 forward $97 $-1 #
coedge $-1 $157 $375 $371 $376 forward $97 $-1 #
coedge $-1 $373 $160 $157 $259 forward $253 $-1 #
edge $-1 $265 -11.428828811400638 $377 3.6521544183337902 $258 $378 forward 7 unknown #
coedge $-1 $379 $380 $158 $261 forward $369 $-1 #
edge $-1 $381 -73.971134755550324 $264 -70.150631927038788 $260 $382 forward 7 unknown #
edge $-1 $265 106.63617673463725 $381 111.00436414685505 $159 $383 forward 7 unknown #
coedge $-1 $160 $373 $379 $384 forward $253 $-1 #
vertex $-1 $161 $385 #
vertex $-1 $161 $386 #
straight-curve $-1 49.386402640201588 15.317166007934063 6.7808207258948556 -1 0 0 I I #
coedge $-1 $267 $267 $-1 $387 reversed $164 $-1 #
edge $-1 $388 0 $388 6.2831853071796004 $165 $389 forward 7 unknown #
vertex $-1 $168 $390 #
ellipse-curve $-1 54.443312463230711 4.5450351295523248 4.870569311639084 0.87461971476443456 0 0.48480960649040278 0.24240480324520139 0 -0.43730985738221728 1 I I #
coedge $-1 $271 $271 $-1 $391 reversed $171 $-1 #
edge $-1 $392 0 $392 6.2831853071796004 $172 $393 forward 7 unknown #
vertex $-1 $175 $394 #
ellipse-curve $-1 54.443312463230711 11.008313656581365 4.870569311639084 0.87461971476443456 0 0.48480960649040278 0.24240480324520139 0 -0.43730985738221728 1 I I #
face $-1 $-1 $287 $38 $-1 $395 forward single #
loop $-1 $-1 $396 $176 #
plane-surface $-1 -55.502182073427534 0 0 1 0 0 0 0 -1 forward_v I I I I #
coedge $-1 $397 $398 $399 $400 reversed $177 $-1 #
coedge $-1 $401 $179 $181 $285 forward $111 $-1 #
coedge $-1 $179 $401 $397 $402 forward $111 $-1 #
coedge $-1 $399 $182 $179 $282 forward $287 $-1 #
edge $-1 $289 -11.304746074283315 $403 2.3364056958042312 $281 $404 forward 7 unknown #
coedge $-1 $405 $406 $180 $284 forward $276 $-1 #
edge $-1 $407 -44.171791523200568 $288 -41.074175802075459 $283 $408 forward 7 unknown #
edge $-1 $289 -5.5394402569138492 $407 -8.6223131303995443e-015 $181 $409 forward 7 unknown #
coedge $-1 $182 $399 $405 $410 forward $287 $-1 #
loop $-1 $-1 $399 $275 #
vertex $-1 $284 $411 #
vertex $-1 $183 $412 #
straight-curve $-1 -58.787517782686294 -15.788916263522857 6.7808207258948485 1 0 0 I I #
coedge $-1 $291 $291 $-1 $413 reversed $186 $-1 #
edge $-1 $414 0 $414 6.2831853071796004 $187 $415 forward 7 unknown #
vertex $-1 $190 $416 #
ellipse-curve $-1 -53.205980035052193 -11.891444329212131 5.2320128653322984 -0.55919291073839883 0 0.82903756765294845 0.82903756765294845 0 0.55919291073839883 1 I I #
coedge $-1 $295 $295 $-1 $417 reversed $193 $-1 #
edge $-1 $418 0 $418 6.2831853071796004 $194 $419 forward 7 unknown #
vertex $-1 $197 $420 #
ellipse-curve $-1 -53.205980035052193 -6.0452364277460404 5.2320128653322984 -0.55919291073839883 0 0.82903756765294845 0.82903756765294845 0 0.55919291073839883 1 I I #
face $-1 $-1 $421 $41 $-1 $422 reversed single #
loop $-1 $-1 $204 $198 #
plane-surface $-1 0 0 6.7808207258948512 0 0 1 1 0 0 forward_v I I I I #
coedge $-1 $423 $424 $425 $426 reversed $199 $-1 #
coedge $-1 $427 $201 $203 $309 forward $125 $-1 #
coedge $-1 $201 $427 $423 $428 forward $125 $-1 #
coedge $-1 $425 $204 $201 $306 forward $300 $-1 #
edge $-1 $312 3.2939770540379527 $429 16.935128824125499 $305 $430 forward 7 unknown #
coedge $-1 $431 $432 $202 $308 forward $421 $-1 #
edge $-1 $433 -44.171791523200568 $311 -41.074175802075459 $307 $434 forward 7 unknown #
edge $-1 $312 -5.5394402569138492 $433 -8.6223131303995443e-015 $203 $435 forward 7 unknown #
coedge $-1 $204 $425 $431 $436 forward $300 $-1 #
vertex $-1 $308 $437 #
vertex $-1 $205 $438 #
straight-curve $-1 -58.787517782686294 13.408529993119679 6.7808207258948485 1 0 0 I I #
coedge $-1 $314 $314 $-1 $439 reversed $208 $-1 #
edge $-1 $440 0 $440 6.2831853071796004 $209 $441 forward 7 unknown #
vertex $-1 $212 $442 #
ellipse-curve $-1 -53.205980035052193 17.306001927430401 5.2320128653322984 -0.55919291073839883 0 0.82903756765294845 0.82903756765294845 0 0.55919291073839883 1 I I #
coedge $-1 $318 $318 $-1 $443 reversed $215 $-1 #
edge $-1 $444 0 $444 6.2831853071796004 $216 $445 forward 7 unknown #
vertex $-1 $219 $446 #
ellipse-curve $-1 -53.205980035052193 23.152209828896488 5.2320128653322984 -0.55919291073839883 0 0.82903756765294845 0.82903756765294845 0 0.55919291073839883 1 I I #
face $-1 $-1 $334 $33 $-1 $447 reversed single #
loop $-1 $-1 $448 $220 #
plane-surface $-1 0 33.002176416694624 0 0 -1 0 0 0 -1 forward_v I I I I #
coedge $-1 $340 $339 $449 $450 forward $221 $-1 #
coedge $-1 $223 $233 $451 $452 forward $139 $-1 #
coedge $-1 $333 $229 $223 $328 reversed $334 $-1 #
edge $-1 $453 -33.002176416694624 $234 33.002176416694624 $327 $454 forward 7 unknown #
coedge $-1 $225 $224 $339 $455 forward $89 $-1 #
coedge $-1 $448 $449 $224 $331 reversed $323 $-1 #
edge $-1 $336 -55.502182073427534 $456 55.502182073427534 $330 $457 forward 7 unknown #
edge $-1 $341 -55.502182073427534 $335 55.502182073427534 $228 $458 forward 7 unknown #
coedge $-1 $226 $327 $448 $459 reversed $334 $-1 #
loop $-1 $-1 $229 $322 #
vertex $-1 $227 $460 #
vertex $-1 $227 $461 #
straight-curve $-1 55.502182073427534 0 6.7808207258948512 0 1 0 I I #
straight-curve $-1 55.502182073427534 -33.002176416694624 0 0 0 -1 I I #
coedge $-1 $325 $231 $329 $455 reversed $221 $-1 #
coedge $-1 $231 $325 $233 $343 reversed $221 $-1 #
vertex $-1 $455 $462 #
straight-curve $-1 -55.502182073427534 -33.002176416694624 0 0 0 -1 I I #
edge $-1 $235 -33.002176416694624 $463 33.002176416694624 $340 $464 forward 7 unknown #
point $-1 55.502182073427534 -33.002176416694624 -6.7808207258948512 #
point $-1 -55.502182073427534 -33.002176416694624 -6.7808207258948512 #
face $-1 $-1 $363 $34 $-1 $465 forward single #
loop $-1 $-1 $466 $237 #
plane-surface $-1 -41.94054062163783 -36.806906576746719 0 -1 0 0 0 0 1 forward_v I I I I #
coedge $-1 $467 $240 $353 $468 reversed $147 $-1 #
coedge $-1 $240 $467 $469 $470 reversed $147 $-1 #
coedge $-1 $248 $247 $240 $352 reversed $238 $-1 #
edge $-1 $471 -6.7808207258948512 $472 6.7808207258948512 $351 $473 forward 7 unknown #
coedge $-1 $242 $241 $349 $468 forward $93 $-1 #
coedge $-1 $359 $466 $241 $355 reversed $347 $-1 #
edge $-1 $357 -3.8047301600520953 $474 3.8047301600520953 $354 $475 forward 7 unknown #
edge $-1 $472 -3.8047301600520953 $249 3.8047301600520953 $247 $476 forward 7 unknown #
vertex $-1 $355 $477 #
straight-curve $-1 0 -33.002176416694624 -6.7808207258948512 1 0 0 I I #
coedge $-1 $478 $354 $244 $360 reversed $347 $-1 #
edge $-1 $364 -6.7808207258948512 $357 6.7808207258948512 $359 $479 forward 7 unknown #
coedge $-1 $469 $245 $248 $366 forward $363 $-1 #
coedge $-1 $245 $469 $478 $480 forward $363 $-1 #
loop $-1 $-1 $245 $346 #
vertex $-1 $246 $481 #
straight-curve $-1 0 -33.002176416694624 6.7808207258948512 -1 0 0 I I #
edge $-1 $250 -3.8047301600520953 $471 3.8047301600520953 $248 $482 forward 7 unknown #
point $-1 -44.94054062163783 -33.002176416694624 -6.7808207258948512 #
point $-1 -44.94054062163783 -33.002176416694624 6.7808207258948512 #
loop $-1 $-1 $260 $252 #
plane-surface $-1 55.502182073427534 0 0 -1 0 0 0 0 1 forward_v I I I I #
coedge $-1 $372 $255 $257 $376 reversed $155 $-1 #
coedge $-1 $255 $371 $483 $484 reversed $155 $-1 #
coedge $-1 $263 $258 $255 $374 forward $253 $-1 #
edge $-1 $377 3.9980402128322936 $485 6.1157794332259456 $373 $486 forward 7 unknown #
coedge $-1 $257 $256 $380 $487 reversed $97 $-1 #
edge $-1 $488 -111.00436414685505 $377 -106.63617673463725 $371 $489 forward 7 unknown #
vertex $-1 $259 $490 #
straight-curve $-1 53.384442853033889 3.8883371965334241 6.7808207258948485 0 -1 0 I I #
coedge $-1 $483 $260 $263 $384 reversed $369 $-1 #
coedge $-1 $260 $483 $375 $487 forward $369 $-1 #
vertex $-1 $261 $491 #
straight-curve $-1 55.502182073427534 15.317166007934063 76.931452652933643 0 0 1 I I #
straight-curve $-1 1.6861999726733643 15.317166007934063 100.0469232051131 0.48480960649040278 0 -0.87461971476443456 I I #
edge $-1 $485 0.23618277819963396 $264 15.317166007934063 $379 $492 forward 7 unknown #
point $-1 55.502182073427534 15.317166007934063 6.7808207258948512 #
point $-1 53.384442853033882 15.317166007934063 6.7808207258948556 #
edge $-1 $493 1 $493 0 $267 $-1 forward 7 unknown #
vertex $-1 $268 $494 #
ellipse-curve $-1 52.716534427481392 4.5450351295523248 3.9134006520767115 0.87461971476443456 0 0.48480960649040278 0.24240480324520139 0 -0.43730985738221728 1 I I #
point $-1 54.685717266475919 4.5450351295523248 4.43325945425687 #
edge $-1 $495 1 $495 0 $271 $-1 forward 7 unknown #
vertex $-1 $272 $496 #
ellipse-curve $-1 52.716534427481392 11.008313656581365 3.9134006520767115 0.87461971476443456 0 0.48480960649040278 0.24240480324520139 0 -0.43730985738221728 1 I I #
point $-1 54.685717266475919 11.008313656581365 4.43325945425687 #
plane-surface $-1 0 0 6.7808207258948512 0 0 1 1 0 0 forward_v I I I I #
coedge $-1 $406 $405 $398 $497 forward $276 $-1 #
coedge $-1 $398 $278 $280 $402 reversed $177 $-1 #
coedge $-1 $278 $397 $396 $497 reversed $177 $-1 #
coedge $-1 $286 $281 $278 $400 forward $287 $-1 #
edge $-1 $403 -7.8777397860094354 $498 -3.2853357092587601 $399 $499 forward 7 unknown #
coedge $-1 $280 $279 $406 $500 reversed $111 $-1 #
edge $-1 $501 8.6223131303995443e-015 $403 5.5394402569138492 $397 $502 forward 7 unknown #
vertex $-1 $282 $503 #
straight-curve $-1 -50.909777996676858 -4.484170189239542 6.7808207258948521 0 1 0 I I #
coedge $-1 $396 $283 $286 $410 reversed $276 $-1 #
coedge $-1 $283 $396 $401 $500 forward $276 $-1 #
vertex $-1 $284 $504 #
straight-curve $-1 -55.502182073427534 -15.788916263522857 47.854996527970307 0 0 1 I I #
straight-curve $-1 -55.502182073427541 -15.788916263522857 3.6832050047697322 -0.82903756765294845 0 -0.55919291073839883 I I #
edge $-1 $498 2.1477644934353108 $288 15.788916263522857 $405 $505 forward 7 unknown #
point $-1 -55.502182073427534 -15.788916263522857 6.7808207258948512 #
point $-1 -50.909777996676858 -15.788916263522857 6.7808207258948512 #
edge $-1 $506 1 $506 0 $291 $-1 forward 7 unknown #
vertex $-1 $292 $507 #
ellipse-curve $-1 -51.319141270747565 -11.891444329212131 2.4346594123944865 -0.55919291073839883 0 0.82903756765294845 0.82903756765294845 0 0.55919291073839883 1 I I #
point $-1 -52.376942467399239 -11.891444329212131 5.7912057760706865 #
edge $-1 $508 1 $508 0 $295 $-1 forward 7 unknown #
vertex $-1 $296 $509 #
ellipse-curve $-1 -51.319141270747565 -6.0452364277460404 2.4346594123944865 -0.55919291073839883 0 0.82903756765294845 0.82903756765294845 0 0.55919291073839883 1 I I #
point $-1 -52.376942467399239 -6.0452364277460404 5.7912057760706865 #
loop $-1 $-1 $307 $299 #
plane-surface $-1 -55.502182073427534 0 0 1 0 0 0 0 -1 forward_v I I I I #
coedge $-1 $424 $302 $304 $428 reversed $199 $-1 #
coedge $-1 $302 $423 $510 $511 reversed $199 $-1 #
coedge $-1 $310 $305 $302 $426 forward $300 $-1 #
edge $-1 $429 -7.8777397860094354 $512 -3.2853357092587601 $425 $513 forward 7 unknown #
coedge $-1 $304 $303 $432 $514 reversed $125 $-1 #
edge $-1 $515 8.6223131303995443e-015 $429 5.5394402569138492 $423 $516 forward 7 unknown #
vertex $-1 $306 $517 #
straight-curve $-1 -50.909777996676858 10.114552939081726 6.7808207258948521 0 1 0 I I #
coedge $-1 $510 $307 $310 $436 reversed $421 $-1 #
coedge $-1 $307 $510 $427 $514 forward $421 $-1 #
vertex $-1 $308 $518 #
straight-curve $-1 -55.502182073427534 13.408529993119679 47.854996527970307 0 0 1 I I #
straight-curve $-1 -55.502182073427541 13.408529993119679 3.6832050047697322 -0.82903756765294845 0 -0.55919291073839883 I I #
edge $-1 $512 -27.049681763207225 $311 -13.408529993119679 $431 $519 forward 7 unknown #
point $-1 -55.502182073427534 13.408529993119679 6.7808207258948512 #
point $-1 -50.909777996676858 13.408529993119679 6.7808207258948512 #
edge $-1 $520 1 $520 0 $314 $-1 forward 7 unknown #
vertex $-1 $315 $521 #
ellipse-curve $-1 -51.319141270747565 17.306001927430401 2.4346594123944865 -0.55919291073839883 0 0.82903756765294845 0.82903756765294845 0 0.55919291073839883 1 I I #
point $-1 -52.376942467399239 17.306001927430401 5.7912057760706865 #
edge $-1 $522 1 $522 0 $318 $-1 forward 7 unknown #
vertex $-1 $319 $523 #
ellipse-curve $-1 -51.319141270747565 23.152209828896488 2.4346594123944865 -0.55919291073839883 0 0.82903756765294845 0.82903756765294845 0 0.55919291073839883 1 I I #
point $-1 -52.376942467399239 23.152209828896488 5.7912057760706865 #
plane-surface $-1 55.502182073427534 0 0 -1 0 0 0 0 1 forward_v I I I I #
coedge $-1 $451 $330 $333 $459 forward $323 $-1 #
coedge $-1 $330 $451 $325 $450 reversed $323 $-1 #
edge $-1 $456 -6.7808207258948512 $463 6.7808207258948512 $449 $524 forward 7 unknown #
coedge $-1 $449 $448 $326 $452 reversed $323 $-1 #
edge $-1 $463 -55.502182073427534 $453 55.502182073427534 $451 $525 forward 7 unknown #
vertex $-1 $328 $526 #
straight-curve $-1 55.502182073427534 0 -6.7808207258948512 0 -1 0 I I #
edge $-1 $456 -33.002176416694624 $341 33.002176416694624 $339 $527 forward 7 unknown #
vertex $-1 $331 $528 #
straight-curve $-1 0 33.002176416694624 6.7808207258948512 -1 0 0 I I #
straight-curve $-1 0 -33.002176416694624 6.7808207258948512 1 0 0 I I #
edge $-1 $336 -6.7808207258948512 $453 6.7808207258948512 $333 $529 forward 7 unknown #
point $-1 55.502182073427534 -33.002176416694624 6.7808207258948512 #
point $-1 55.502182073427534 33.002176416694624 6.7808207258948512 #
point $-1 -55.502182073427534 -33.002176416694624 6.7808207258948512 #
vertex $-1 $452 $530 #
straight-curve $-1 -55.502182073427534 0 -6.7808207258948512 0 1 0 I I #
plane-surface $-1 0 0 6.7808207258948512 0 0 1 1 0 0 forward_v I I I I #
coedge $-1 $354 $478 $467 $531 forward $347 $-1 #
coedge $-1 $350 $349 $466 $531 reversed $147 $-1 #
edge $-1 $474 -1.5 $472 1.5 $349 $532 forward 7 unknown #
coedge $-1 $362 $361 $350 $470 forward $363 $-1 #
edge $-1 $471 -1.5 $533 1.5 $350 $534 forward 7 unknown #
vertex $-1 $366 $535 #
vertex $-1 $356 $536 #
straight-curve $-1 -44.94054062163783 -40.611636736798815 0 0 0 -1 I I #
vertex $-1 $531 $537 #
straight-curve $-1 -41.94054062163783 -36.806906576746719 -6.7808207258948512 0 -1 0 I I #
straight-curve $-1 -44.94054062163783 -36.806906576746719 -6.7808207258948512 0 1 0 I I #
point $-1 -41.94054062163783 -33.002176416694624 -6.7808207258948512 #
coedge $-1 $466 $359 $362 $480 reversed $347 $-1 #
straight-curve $-1 -41.94054062163783 -33.002176416694624 0 0 0 -1 I I #
edge $-1 $533 -3.8047301600520953 $364 3.8047301600520953 $478 $538 forward 7 unknown #
point $-1 -41.94054062163783 -33.002176416694624 6.7808207258948512 #
straight-curve $-1 -44.94054062163783 -36.806906576746719 6.7808207258948512 0 -1 0 I I #
coedge $-1 $380 $379 $372 $484 forward $369 $-1 #
edge $-1 $485 70.150631927038788 $488 73.971134755550324 $483 $539 forward 7 unknown #
vertex $-1 $384 $540 #
straight-curve $-1 49.386402640201588 0.23618277819963396 6.7808207258948556 1 0 0 I I #
edge $-1 $488 -3.6521544183337902 $381 11.428828811400638 $380 $541 forward 7 unknown #
vertex $-1 $487 $542 #
straight-curve $-1 1.6861999726733643 0.23618277819963396 100.0469232051131 -0.48480960649040278 0 0.87461971476443456 I I #
point $-1 53.384442853033882 0.23618277819963396 6.7808207258948556 #
point $-1 55.502182073427534 15.317166007934063 2.9603178973833195 #
straight-curve $-1 55.502182073427534 0 6.7808207258948512 0 1 0 I I #
vertex $-1 $387 $543 #
point $-1 52.958939230726592 4.5450351295523248 3.4760907946944943 #
vertex $-1 $391 $544 #
point $-1 52.958939230726592 11.008313656581365 3.4760907946944943 #
edge $-1 $498 41.074175802075459 $501 44.171791523200568 $396 $545 forward 7 unknown #
vertex $-1 $410 $546 #
straight-curve $-1 -58.787517782686294 -2.1477644934353108 6.7808207258948485 -1 0 0 I I #
edge $-1 $501 -2.3364056958042312 $407 11.304746074283315 $406 $547 forward 7 unknown #
vertex $-1 $500 $548 #
straight-curve $-1 -55.502182073427541 -2.1477644934353108 3.6832050047697322 0.82903756765294845 0 0.55919291073839883 I I #
point $-1 -50.909777996676858 -2.1477644934353108 6.7808207258948512 #
point $-1 -55.502182073427534 -15.788916263522857 3.6832050047697371 #
straight-curve $-1 -55.502182073427534 0 6.7808207258948512 0 -1 0 I I #
vertex $-1 $413 $549 #
point $-1 -50.490103703094611 -11.891444329212131 2.9938523231328853 #
vertex $-1 $417 $550 #
point $-1 -50.490103703094611 -6.0452364277460404 2.9938523231328853 #
coedge $-1 $432 $431 $424 $511 forward $421 $-1 #
edge $-1 $512 41.074175802075459 $515 44.171791523200568 $510 $551 forward 7 unknown #
vertex $-1 $436 $552 #
straight-curve $-1 -58.787517782686294 27.049681763207225 6.7808207258948485 -1 0 0 I I #
edge $-1 $515 -16.935128824125499 $433 -3.2939770540379527 $432 $553 forward 7 unknown #
vertex $-1 $514 $554 #
straight-curve $-1 -55.502182073427541 27.049681763207225 3.6832050047697322 0.82903756765294845 0 0.55919291073839883 I I #
point $-1 -50.909777996676858 27.049681763207225 6.7808207258948512 #
point $-1 -55.502182073427534 13.408529993119679 3.6832050047697371 #
straight-curve $-1 -55.502182073427534 0 6.7808207258948512 0 -1 0 I I #
vertex $-1 $439 $555 #
point $-1 -50.490103703094611 17.306001927430401 2.9938523231328853 #
vertex $-1 $443 $556 #
point $-1 -50.490103703094611 23.152209828896488 2.9938523231328853 #
straight-curve $-1 -55.502182073427534 33.002176416694624 0 0 0 -1 I I #
straight-curve $-1 0 33.002176416694624 -6.7808207258948512 1 0 0 I I #
point $-1 55.502182073427534 33.002176416694624 -6.7808207258948512 #
straight-curve $-1 -55.502182073427534 0 6.7808207258948512 0 -1 0 I I #
point $-1 -55.502182073427534 33.002176416694624 6.7808207258948512 #
straight-curve $-1 55.502182073427534 33.002176416694624 0 0 0 -1 I I #
point $-1 -55.502182073427534 33.002176416694624 -6.7808207258948512 #
edge $-1 $533 -6.7808207258948512 $474 6.7808207258948512 $466 $557 forward 7 unknown #
straight-curve $-1 -43.44054062163783 -40.611636736798815 -6.7808207258948512 -1 0 0 I I #
vertex $-1 $480 $558 #
straight-curve $-1 -43.44054062163783 -40.611636736798815 6.7808207258948512 1 0 0 I I #
point $-1 -44.94054062163783 -40.611636736798815 6.7808207258948512 #
point $-1 -44.94054062163783 -40.611636736798815 -6.7808207258948512 #
point $-1 -41.94054062163783 -40.611636736798815 -6.7808207258948512 #
straight-curve $-1 -41.94054062163783 -36.806906576746719 6.7808207258948512 0 1 0 I I #
straight-curve $-1 55.502182073427534 0.23618277819963396 76.931452652933643 0 0 -1 I I #
point $-1 55.502182073427534 0.23618277819963396 6.7808207258948512 #
straight-curve $-1 55.502182073427534 3.8883371965334241 2.9603178973833195 0 1 0 I I #
point $-1 55.502182073427534 0.23618277819963396 2.9603178973833195 #
point $-1 52.279224570099174 4.5450351295523248 3.67099584883151 #
point $-1 52.279224570099174 11.008313656581365 3.67099584883151 #
straight-curve $-1 -55.502182073427534 -2.1477644934353108 47.854996527970307 0 0 -1 I I #
point $-1 -55.502182073427534 -2.1477644934353108 6.7808207258948512 #
straight-curve $-1 -55.502182073427534 -4.484170189239542 3.6832050047697331 0 -1 0 I I #
point $-1 -55.502182073427534 -2.1477644934353108 3.6832050047697371 #
point $-1 -50.759948360009162 -11.891444329212131 1.6056218447415382 #
point $-1 -50.759948360009162 -6.0452364277460404 1.6056218447415382 #
straight-curve $-1 -55.502182073427534 27.049681763207225 47.854996527970307 0 0 -1 I I #
point $-1 -55.502182073427534 27.049681763207225 6.7808207258948512 #
straight-curve $-1 -55.502182073427534 10.114552939081726 3.6832050047697331 0 -1 0 I I #
point $-1 -55.502182073427534 27.049681763207225 3.6832050047697371 #
point $-1 -50.759948360009162 17.306001927430401 1.6056218447415382 #
point $-1 -50.759948360009162 23.152209828896488 1.6056218447415382 #
straight-curve $-1 -41.94054062163783 -40.611636736798815 0 0 0 -1 I I #
point $-1 -41.94054062163783 -40.611636736798815 6.7808207258948512 #
End-of-ACIS-data 