500 0 3 0           
7 Unknown 11 ACIS 5.0 NT 24 Thu Mar 25 16:29:49 1999 
-1 9.9999999999999995e-007 1e-010 
body $-1 $3 $-1 $4 #
body $-1 $5 $-1 $6 #
body $-1 $7 $-1 $8 #
lump $-1 $-1 $9 $0 #
transform $-1 1 0 0 0 1 0 0 0 1 59.155858027893913 24.123790316841021 8.471487107113699 1 rotate no_reflect no_shear #
lump $-1 $-1 $10 $1 #
transform $-1 1 0 0 0 1 0 0 0 1 59.155858027893913 24.123790316841021 8.471487107113699 1 rotate no_reflect no_shear #
lump $-1 $-1 $11 $2 #
transform $-1 1 0 0 0 1 0 0 0 1 59.155858027893913 24.123790316841021 8.471487107113699 1 rotate no_reflect no_shear #
shell $-1 $-1 $-1 $12 $-1 $3 #
shell $-1 $-1 $-1 $13 $-1 $5 #
shell $-1 $-1 $-1 $14 $-1 $7 #
face $-1 $15 $16 $9 $-1 $17 forward single #
face $-1 $18 $19 $10 $-1 $20 reversed single #
face $-1 $21 $22 $11 $-1 $23 forward single #
face $-1 $24 $25 $9 $-1 $26 reversed single #
loop $-1 $-1 $27 $12 #
plane-surface $-1 0 0 8.471487107113699 0 0 1 1 0 0 forward_v I I I I #
face $-1 $28 $29 $10 $-1 $30 forward single #
loop $-1 $-1 $31 $13 #
plane-surface $-1 0 -19.519302968726748 -0.80612212212980916 0 0 1 1 0 0 forward_v I I I I #
face $-1 $32 $33 $11 $-1 $34 forward single #
loop $-1 $-1 $35 $14 #
plane-surface $-1 -43.96325794499657 14.313670187960163 0 0 1 0 0 0 1 forward_v I I I I #
face $-1 $36 $37 $9 $-1 $38 reversed single #
loop $-1 $-1 $39 $15 #
plane-surface $-1 0 0 -8.471487107113699 0 0 1 1 0 0 forward_v I I I I #
coedge $-1 $40 $41 $42 $43 forward $16 $-1 #
face $-1 $44 $45 $10 $-1 $46 forward single #
loop $-1 $-1 $47 $18 #
plane-surface $-1 0 -19.519302968726748 -5.8368932950318939 0 0 1 1 0 0 forward_v I I I I #
coedge $-1 $48 $49 $50 $51 reversed $19 $-1 #
face $-1 $52 $53 $11 $-1 $54 forward single #
loop $-1 $-1 $55 $21 #
plane-surface $-1 -45.713632076326626 19.218730252400594 0 1 0 0 0 0 -1 forward_v I I I I #
coedge $-1 $56 $57 $58 $59 reversed $22 $-1 #
face $-1 $60 $61 $9 $-1 $62 reversed single #
loop $-1 $-1 $63 $24 #
plane-surface $-1 0 -24.123790316841021 0 0 1 0 0 0 1 forward_v I I I I #
coedge $-1 $64 $65 $66 $67 forward $25 $-1 #
coedge $-1 $68 $27 $69 $70 forward $16 $-1 #
coedge $-1 $27 $68 $71 $72 forward $16 $-1 #
coedge $-1 $73 $74 $27 $43 reversed $75 $-1 #
edge $-1 $76 -24.123790316841021 $77 24.123790316841021 $42 $78 forward 7 unknown #
face $-1 $79 $80 $10 $-1 $81 reversed single #
loop $-1 $-1 $82 $28 #
plane-surface $-1 0 -14.914815620612476 -3.3215077085808513 0 -1 0 0 0 -1 forward_v I I I I #
coedge $-1 $83 $84 $85 $86 reversed $29 $-1 #
coedge $-1 $87 $31 $88 $89 reversed $19 $-1 #
coedge $-1 $31 $87 $90 $91 reversed $19 $-1 #
coedge $-1 $92 $93 $31 $51 forward $80 $-1 #
edge $-1 $94 -14.364138832477646 $95 -5.1551641362491019 $50 $96 forward 7 unknown #
face $-1 $97 $98 $11 $-1 $99 forward single #
loop $-1 $-1 $100 $32 #
plane-surface $-1 -42.212883813666515 19.218730252400594 0 -1 0 0 0 0 1 forward_v I I I I #
coedge $-1 $101 $102 $103 $104 reversed $33 $-1 #
coedge $-1 $105 $35 $106 $107 reversed $22 $-1 #
coedge $-1 $35 $105 $108 $109 reversed $22 $-1 #
coedge $-1 $102 $101 $35 $59 forward $33 $-1 #
edge $-1 $110 -8.471487107113699 $111 8.471487107113699 $58 $112 forward 7 unknown #
face $-1 $113 $114 $9 $-1 $115 reversed single #
loop $-1 $-1 $116 $36 #
plane-surface $-1 -59.155858027893913 0 0 1 0 0 0 0 -1 forward_v I I I I #
coedge $-1 $117 $71 $118 $119 forward $37 $-1 #
coedge $-1 $120 $39 $117 $121 forward $25 $-1 #
coedge $-1 $39 $120 $122 $123 forward $25 $-1 #
coedge $-1 $74 $73 $39 $67 reversed $75 $-1 #
edge $-1 $124 -24.123790316841021 $125 24.123790316841021 $66 $126 forward 7 unknown #
coedge $-1 $41 $40 $127 $128 forward $16 $-1 #
coedge $-1 $129 $130 $40 $70 reversed $114 $-1 #
edge $-1 $77 -59.155858027893913 $131 59.155858027893913 $69 $132 forward 7 unknown #
coedge $-1 $63 $133 $41 $72 reversed $37 $-1 #
edge $-1 $134 -59.155858027893913 $76 59.155858027893913 $71 $135 forward 7 unknown #
coedge $-1 $66 $42 $133 $136 forward $75 $-1 #
coedge $-1 $42 $66 $129 $137 reversed $75 $-1 #
loop $-1 $-1 $73 $113 #
vertex $-1 $43 $138 #
vertex $-1 $43 $139 #
straight-curve $-1 59.155858027893913 0 8.471487107113699 0 1 0 I I #
face $-1 $140 $141 $10 $-1 $142 reversed single #
loop $-1 $-1 $50 $44 #
plane-surface $-1 59.155858027893913 0 0 -1 0 0 0 0 1 forward_v I I I I #
coedge $-1 $90 $143 $92 $144 reversed $45 $-1 #
coedge $-1 $145 $47 $143 $146 reversed $29 $-1 #
coedge $-1 $47 $145 $147 $148 reversed $29 $-1 #
coedge $-1 $149 $92 $47 $86 forward $80 $-1 #
edge $-1 $150 5.1551641362491019 $151 14.364138832477646 $85 $152 forward 7 unknown #
coedge $-1 $49 $48 $153 $154 reversed $19 $-1 #
coedge $-1 $155 $156 $48 $89 forward $157 $-1 #
edge $-1 $158 -59.155858027893913 $94 59.155858027893913 $88 $159 forward 7 unknown #
coedge $-1 $160 $82 $49 $91 forward $45 $-1 #
edge $-1 $95 -59.155858027893913 $161 59.155858027893913 $90 $162 forward 7 unknown #
coedge $-1 $85 $50 $82 $144 forward $80 $-1 #
coedge $-1 $50 $163 $155 $164 forward $80 $-1 #
vertex $-1 $89 $165 #
vertex $-1 $51 $166 #
straight-curve $-1 59.155858027893913 -9.7596514843633742 -0.80612212212980916 0 1 0 I I #
face $-1 $167 $168 $11 $-1 $169 reversed single #
loop $-1 $-1 $170 $52 #
plane-surface $-1 0 0 8.471487107113699 0 0 1 1 0 0 forward_v I I I I #
coedge $-1 $171 $172 $105 $173 reversed $53 $-1 #
coedge $-1 $58 $55 $174 $175 reversed $33 $-1 #
coedge $-1 $55 $58 $176 $177 reversed $33 $-1 #
coedge $-1 $178 $179 $55 $104 forward $168 $-1 #
edge $-1 $180 -8.471487107113699 $181 8.471487107113699 $103 $182 forward 7 unknown #
coedge $-1 $57 $56 $100 $173 forward $22 $-1 #
coedge $-1 $174 $170 $56 $107 forward $98 $-1 #
edge $-1 $183 20.23125484116823 $110 23.73200310382834 $106 $184 forward 7 unknown #
coedge $-1 $185 $176 $57 $109 forward $186 $-1 #
edge $-1 $111 -23.73200310382834 $187 -20.23125484116823 $108 $188 forward 7 unknown #
vertex $-1 $107 $189 #
vertex $-1 $109 $190 #
straight-curve $-1 -45.713632076326626 14.313670187960163 0 0 0 -1 I I #
face $-1 $-1 $75 $9 $-1 $191 reversed single #
loop $-1 $-1 $129 $60 #
plane-surface $-1 0 24.123790316841021 0 0 -1 0 0 0 -1 forward_v I I I I #
coedge $-1 $192 $127 $130 $193 forward $61 $-1 #
coedge $-1 $133 $63 $64 $121 reversed $37 $-1 #
coedge $-1 $127 $192 $63 $119 reversed $61 $-1 #
edge $-1 $134 -8.471487107113699 $194 8.471487107113699 $118 $195 forward 7 unknown #
coedge $-1 $65 $64 $192 $196 forward $25 $-1 #
edge $-1 $125 -59.155858027893913 $194 59.155858027893913 $117 $197 forward 7 unknown #
coedge $-1 $130 $129 $65 $123 reversed $114 $-1 #
edge $-1 $198 -59.155858027893913 $124 59.155858027893913 $122 $199 forward 7 unknown #
vertex $-1 $67 $200 #
vertex $-1 $136 $201 #
straight-curve $-1 59.155858027893913 0 -8.471487107113699 0 -1 0 I I #
coedge $-1 $116 $118 $68 $128 reversed $61 $-1 #
edge $-1 $131 -24.123790316841021 $134 24.123790316841021 $127 $202 forward 7 unknown #
coedge $-1 $122 $69 $74 $137 forward $114 $-1 #
coedge $-1 $69 $122 $116 $193 reversed $114 $-1 #
vertex $-1 $70 $203 #
straight-curve $-1 0 24.123790316841021 8.471487107113699 -1 0 0 I I #
coedge $-1 $71 $117 $73 $136 reversed $37 $-1 #
vertex $-1 $128 $204 #
straight-curve $-1 0 -24.123790316841021 8.471487107113699 1 0 0 I I #
edge $-1 $76 -8.471487107113699 $125 8.471487107113699 $73 $205 forward 7 unknown #
edge $-1 $77 -8.471487107113699 $124 8.471487107113699 $74 $206 forward 7 unknown #
point $-1 59.155858027893913 -24.123790316841021 8.471487107113699 #
point $-1 59.155858027893913 24.123790316841021 8.471487107113699 #
face $-1 $207 $208 $10 $-1 $209 forward single #
loop $-1 $-1 $147 $79 #
plane-surface $-1 0 -24.123790316841021 0 0 1 0 0 0 1 forward_v I I I I #
coedge $-1 $82 $160 $83 $146 forward $45 $-1 #
edge $-1 $95 -0.8546317321606165 $150 4.1761394407414683 $92 $210 forward 7 unknown #
coedge $-1 $84 $83 $211 $212 reversed $29 $-1 #
edge $-1 $213 -59.155858027893913 $150 59.155858027893913 $143 $214 forward 7 unknown #
coedge $-1 $215 $216 $84 $148 forward $141 $-1 #
edge $-1 $151 -59.155858027893913 $217 59.155858027893913 $147 $218 forward 7 unknown #
coedge $-1 $219 $85 $216 $220 forward $80 $-1 #
vertex $-1 $86 $221 #
vertex $-1 $220 $222 #
straight-curve $-1 59.155858027893913 -9.7596514843633742 -5.8368932950318939 0 -1 0 I I #
coedge $-1 $223 $224 $87 $154 forward $225 $-1 #
edge $-1 $161 5.1551641362491019 $158 14.364138832477646 $153 $226 forward 7 unknown #
coedge $-1 $227 $88 $93 $164 reversed $157 $-1 #
coedge $-1 $88 $227 $223 $228 forward $157 $-1 #
loop $-1 $-1 $88 $229 #
vertex $-1 $154 $230 #
straight-curve $-1 0 -24.123790316841021 -0.80612212212980916 1 0 0 I I #
coedge $-1 $143 $90 $224 $231 reversed $45 $-1 #
vertex $-1 $154 $232 #
straight-curve $-1 0 -14.914815620612476 -0.80612212212980916 -1 0 0 I I #
coedge $-1 $93 $233 $234 $235 reversed $80 $-1 #
edge $-1 $236 -8.471487107113699 $94 0.80612212212980916 $93 $237 forward 7 unknown #
point $-1 59.155858027893913 -24.123790316841021 -0.80612212212980916 #
point $-1 59.155858027893913 -14.914815620612476 -0.80612212212980916 #
face $-1 $238 $239 $11 $-1 $240 reversed single #
loop $-1 $-1 $103 $97 #
plane-surface $-1 0 24.123790316841021 0 0 -1 0 0 0 -1 forward_v I I I I #
coedge $-1 $106 $241 $171 $242 forward $98 $-1 #
coedge $-1 $243 $100 $170 $242 reversed $53 $-1 #
coedge $-1 $100 $243 $185 $244 reversed $53 $-1 #
edge $-1 $183 -8.471487107113699 $187 8.471487107113699 $100 $245 forward 7 unknown #
coedge $-1 $246 $106 $101 $175 forward $98 $-1 #
edge $-1 $110 4.7043050617598663 $180 14.514425190640727 $174 $247 forward 7 unknown #
coedge $-1 $108 $248 $102 $177 forward $186 $-1 #
edge $-1 $181 -14.514425190640727 $111 -4.7043050617598663 $176 $249 forward 7 unknown #
coedge $-1 $250 $103 $248 $251 reversed $168 $-1 #
coedge $-1 $103 $250 $246 $252 reversed $168 $-1 #
vertex $-1 $252 $253 #
vertex $-1 $177 $254 #
straight-curve $-1 -45.713632076326626 24.123790316841021 0 0 0 -1 I I #
vertex $-1 $107 $255 #
straight-curve $-1 -21.981628972498285 14.313670187960163 8.471487107113699 -1 0 0 I I #
coedge $-1 $256 $108 $172 $244 forward $186 $-1 #
loop $-1 $-1 $185 $257 #
vertex $-1 $109 $258 #
straight-curve $-1 -21.981628972498285 14.313670187960163 -8.471487107113699 1 0 0 I I #
point $-1 -45.713632076326626 14.313670187960163 8.471487107113699 #
point $-1 -45.713632076326626 14.313670187960163 -8.471487107113699 #
plane-surface $-1 59.155858027893913 0 0 -1 0 0 0 0 1 forward_v I I I I #
coedge $-1 $118 $116 $120 $196 reversed $61 $-1 #
edge $-1 $131 -8.471487107113699 $198 8.471487107113699 $130 $259 forward 7 unknown #
vertex $-1 $196 $260 #
straight-curve $-1 -59.155858027893913 -24.123790316841021 0 0 0 -1 I I #
edge $-1 $194 -24.123790316841021 $198 24.123790316841021 $192 $261 forward 7 unknown #
straight-curve $-1 0 -24.123790316841021 -8.471487107113699 -1 0 0 I I #
vertex $-1 $123 $262 #
straight-curve $-1 0 24.123790316841021 -8.471487107113699 1 0 0 I I #
point $-1 59.155858027893913 24.123790316841021 -8.471487107113699 #
point $-1 59.155858027893913 -24.123790316841021 -8.471487107113699 #
straight-curve $-1 -59.155858027893913 0 8.471487107113699 0 -1 0 I I #
point $-1 -59.155858027893913 24.123790316841021 8.471487107113699 #
point $-1 -59.155858027893913 -24.123790316841021 8.471487107113699 #
straight-curve $-1 59.155858027893913 -24.123790316841021 0 0 0 -1 I I #
straight-curve $-1 59.155858027893913 24.123790316841021 0 0 0 -1 I I #
face $-1 $229 $263 $10 $-1 $264 reversed single #
loop $-1 $-1 $234 $140 #
plane-surface $-1 0 0 8.471487107113699 0 0 1 1 0 0 forward_v I I I I #
straight-curve $-1 59.155858027893913 -14.914815620612476 -1.6607538542904257 0 0 -1 I I #
coedge $-1 $224 $265 $145 $212 forward $225 $-1 #
edge $-1 $217 -14.364138832477646 $213 -5.1551641362491019 $211 $266 forward 7 unknown #
vertex $-1 $212 $267 #
straight-curve $-1 0 -14.914815620612476 -5.8368932950318939 1 0 0 I I #
coedge $-1 $268 $147 $265 $269 forward $141 $-1 #
coedge $-1 $147 $268 $149 $220 reversed $141 $-1 #
vertex $-1 $269 $270 #
straight-curve $-1 0 -24.123790316841021 -5.8368932950318939 -1 0 0 I I #
coedge $-1 $233 $149 $271 $272 reversed $80 $-1 #
edge $-1 $151 5.8368932950318939 $273 8.471487107113699 $149 $237 forward 7 unknown #
point $-1 59.155858027893913 -14.914815620612476 -5.8368932950318939 #
point $-1 59.155858027893913 -24.123790316841021 -5.8368932950318939 #
coedge $-1 $274 $153 $156 $228 reversed $225 $-1 #
coedge $-1 $153 $211 $160 $231 forward $225 $-1 #
loop $-1 $-1 $153 $275 #
straight-curve $-1 -59.155858027893913 -9.7596514843633742 -0.80612212212980916 0 -1 0 I I #
coedge $-1 $156 $155 $276 $277 reversed $157 $-1 #
edge $-1 $278 -8.471487107113699 $158 0.80612212212980916 $223 $279 forward 7 unknown #
face $-1 $275 $157 $10 $-1 $142 reversed single #
point $-1 -59.155858027893913 -24.123790316841021 -0.80612212212980916 #
edge $-1 $213 -4.1761394407414683 $161 0.8546317321606165 $224 $280 forward 7 unknown #
point $-1 -59.155858027893913 -14.914815620612476 -0.80612212212980916 #
coedge $-1 $163 $219 $281 $282 reversed $80 $-1 #
coedge $-1 $283 $276 $163 $235 forward $208 $-1 #
edge $-1 $236 -24.123790316841021 $284 24.123790316841021 $163 $285 forward 7 unknown #
vertex $-1 $235 $286 #
straight-curve $-1 59.155858027893913 -24.123790316841021 0 0 0 -1 I I #
face $-1 $287 $288 $11 $-1 $289 forward single #
loop $-1 $-1 $290 $167 #
plane-surface $-1 0 -19.519302968726748 -0.80612212212980916 0 0 1 1 0 0 forward_v I I I I #
coedge $-1 $170 $291 $292 $293 forward $98 $-1 #
edge $-1 $294 -14.514425190640727 $183 -4.7043050617598663 $170 $295 forward 7 unknown #
coedge $-1 $172 $171 $296 $297 reversed $53 $-1 #
edge $-1 $187 4.7043050617598663 $298 14.514425190640727 $185 $299 forward 7 unknown #
straight-curve $-1 -42.212883813666515 14.313670187960163 0 0 0 -1 I I #
coedge $-1 $300 $174 $179 $252 forward $98 $-1 #
straight-curve $-1 -45.713632076326626 9.6093651262002968 8.471487107113699 0 1 0 I I #
coedge $-1 $176 $301 $178 $251 forward $186 $-1 #
straight-curve $-1 -45.713632076326626 9.6093651262002968 -8.471487107113699 0 -1 0 I I #
coedge $-1 $179 $178 $302 $303 reversed $168 $-1 #
edge $-1 $304 -59.155858027893913 $181 -45.713632076326626 $178 $305 forward 7 unknown #
edge $-1 $180 45.713632076326626 $306 59.155858027893913 $179 $307 forward 7 unknown #
point $-1 -45.713632076326626 24.123790316841024 8.471487107113699 #
point $-1 -45.713632076326626 24.123790316841024 -8.471487107113699 #
point $-1 -42.212883813666515 14.313670187960163 8.471487107113699 #
coedge $-1 $308 $185 $309 $310 forward $186 $-1 #
face $-1 $311 $186 $11 $-1 $312 reversed single #
point $-1 -42.212883813666515 14.313670187960163 -8.471487107113699 #
straight-curve $-1 -59.155858027893913 24.123790316841021 0 0 0 -1 I I #
point $-1 -59.155858027893913 -24.123790316841021 -8.471487107113699 #
straight-curve $-1 -59.155858027893913 0 -8.471487107113699 0 1 0 I I #
point $-1 -59.155858027893913 24.123790316841021 -8.471487107113699 #
loop $-1 $-1 $271 $207 #
plane-surface $-1 0 0 -8.471487107113699 0 0 1 1 0 0 forward_v I I I I #
coedge $-1 $211 $313 $215 $269 reversed $225 $-1 #
straight-curve $-1 -59.155858027893913 -9.7596514843633742 -5.8368932950318939 0 1 0 I I #
point $-1 -59.155858027893913 -14.914815620612476 -5.8368932950318939 #
coedge $-1 $216 $215 $314 $315 reversed $141 $-1 #
edge $-1 $217 5.8368932950318939 $316 8.471487107113699 $265 $279 forward 7 unknown #
point $-1 -59.155858027893913 -24.123790316841021 -5.8368932950318939 #
coedge $-1 $314 $317 $219 $272 forward $263 $-1 #
edge $-1 $318 -24.123790316841021 $273 24.123790316841021 $219 $319 forward 7 unknown #
vertex $-1 $220 $320 #
coedge $-1 $321 $223 $322 $323 reversed $225 $-1 #
face $-1 $324 $225 $10 $-1 $325 reversed single #
coedge $-1 $234 $322 $227 $277 forward $208 $-1 #
edge $-1 $278 -59.155858027893913 $236 59.155858027893913 $227 $326 forward 7 unknown #
vertex $-1 $323 $327 #
straight-curve $-1 -59.155858027893913 -24.123790316841021 0 0 0 -1 I I #
straight-curve $-1 -59.155858027893913 -14.914815620612476 -1.6607538542904257 0 0 1 I I #
coedge $-1 $328 $329 $233 $282 forward $330 $-1 #
edge $-1 $284 -8.471487107113699 $318 8.471487107113699 $233 $331 forward 7 unknown #
coedge $-1 $322 $234 $329 $332 forward $208 $-1 #
vertex $-1 $235 $333 #
straight-curve $-1 59.155858027893913 0 8.471487107113699 0 1 0 I I #
point $-1 59.155858027893913 -24.123790316841021 8.471487107113699 #
face $-1 $334 $335 $11 $-1 $336 forward single #
loop $-1 $-1 $337 $238 #
plane-surface $-1 0 -19.519302968726748 -5.8368932950318939 0 0 1 1 0 0 forward_v I I I I #
coedge $-1 $338 $339 $340 $341 reversed $239 $-1 #
coedge $-1 $241 $342 $343 $344 forward $98 $-1 #
coedge $-1 $345 $296 $241 $293 reversed $346 $-1 #
edge $-1 $347 -59.155858027893913 $294 42.212883813666515 $292 $307 forward 7 unknown #
vertex $-1 $297 $348 #
straight-curve $-1 -42.212883813666515 9.6093651262002968 8.471487107113699 0 -1 0 I I #
coedge $-1 $292 $309 $243 $297 forward $346 $-1 #
edge $-1 $298 -8.471487107113699 $294 8.471487107113699 $296 $349 forward 7 unknown #
vertex $-1 $310 $350 #
straight-curve $-1 -42.212883813666515 9.6093651262002968 -8.471487107113699 0 1 0 I I #
coedge $-1 $342 $246 $351 $352 forward $98 $-1 #
coedge $-1 $248 $353 $354 $355 forward $186 $-1 #
coedge $-1 $354 $351 $250 $303 forward $356 $-1 #
edge $-1 $306 -8.471487107113699 $304 8.471487107113699 $250 $357 forward 7 unknown #
vertex $-1 $251 $358 #
straight-curve $-1 0 24.123790316841021 -8.471487107113699 1 0 0 I I #
vertex $-1 $252 $359 #
straight-curve $-1 0 24.123790316841021 8.471487107113699 -1 0 0 I I #
coedge $-1 $353 $256 $360 $361 forward $186 $-1 #
coedge $-1 $296 $345 $256 $310 reversed $346 $-1 #
edge $-1 $298 -42.212883813666515 $362 59.155858027893913 $309 $305 forward 7 unknown #
face $-1 $363 $364 $11 $-1 $365 reversed single #
plane-surface $-1 0 0 -8.471487107113699 0 0 1 1 0 0 forward_v I I I I #
coedge $-1 $265 $321 $366 $367 reversed $225 $-1 #
coedge $-1 $366 $271 $268 $315 forward $263 $-1 #
edge $-1 $273 -59.155858027893913 $316 59.155858027893913 $268 $368 forward 7 unknown #
vertex $-1 $367 $369 #
coedge $-1 $271 $366 $328 $370 forward $263 $-1 #
vertex $-1 $272 $371 #
straight-curve $-1 59.155858027893913 0 -8.471487107113699 0 -1 0 I I #
point $-1 59.155858027893913 -24.123790316841021 -8.471487107113699 #
coedge $-1 $313 $274 $372 $373 forward $225 $-1 #
coedge $-1 $276 $283 $274 $323 forward $208 $-1 #
edge $-1 $374 -24.123790316841021 $278 24.123790316841021 $274 $375 forward 7 unknown #
face $-1 $-1 $330 $10 $-1 $376 reversed single #
plane-surface $-1 -59.155858027893913 0 0 1 0 0 0 0 -1 forward_v I I I I #
straight-curve $-1 0 -24.123790316841021 8.471487107113699 1 0 0 I I #
point $-1 -59.155858027893913 -24.123790316841021 8.471487107113699 #
coedge $-1 $372 $281 $317 $370 reversed $330 $-1 #
coedge $-1 $281 $372 $283 $332 reversed $330 $-1 #
loop $-1 $-1 $281 $324 #
straight-curve $-1 59.155858027893913 24.123790316841021 0 0 0 -1 I I #
edge $-1 $284 -59.155858027893913 $374 59.155858027893913 $329 $377 forward 7 unknown #
point $-1 59.155858027893913 24.123790316841021 8.471487107113699 #
face $-1 $378 $379 $11 $-1 $380 reversed single #
loop $-1 $-1 $381 $287 #
plane-surface $-1 0 -14.914815620612476 -3.3215077085808513 0 -1 0 0 0 -1 forward_v I I I I #
coedge $-1 $382 $383 $384 $385 reversed $288 $-1 #
coedge $-1 $386 $290 $387 $388 reversed $239 $-1 #
coedge $-1 $290 $386 $389 $390 reversed $239 $-1 #
coedge $-1 $391 $392 $290 $341 forward $379 $-1 #
edge $-1 $393 -14.364138832477646 $394 -5.1551641362491019 $340 $395 forward 7 unknown #
coedge $-1 $291 $300 $396 $397 forward $98 $-1 #
coedge $-1 $392 $398 $291 $344 reversed $379 $-1 #
edge $-1 $399 -24.123790316841021 $347 24.123790316841021 $343 $400 forward 7 unknown #
coedge $-1 $309 $292 $398 $401 forward $346 $-1 #
loop $-1 $-1 $296 $402 #
vertex $-1 $344 $403 #
point $-1 -42.212883813666515 24.123790316841024 8.471487107113699 #
straight-curve $-1 -42.212883813666515 24.123790316841021 0 0 0 1 I I #
point $-1 -42.212883813666515 24.123790316841024 -8.471487107113699 #
coedge $-1 $302 $404 $300 $352 reversed $356 $-1 #
edge $-1 $306 -24.123790316841021 $405 24.123790316841021 $351 $406 forward 7 unknown #
coedge $-1 $301 $308 $407 $408 forward $186 $-1 #
coedge $-1 $409 $302 $301 $355 reversed $356 $-1 #
edge $-1 $410 -24.123790316841021 $304 24.123790316841021 $354 $411 forward 7 unknown #
loop $-1 $-1 $412 $363 #
straight-curve $-1 -59.155858027893913 24.123790316841021 0 0 0 -1 I I #
point $-1 -59.155858027893913 24.123790316841021 -8.471487107113699 #
point $-1 -59.155858027893913 24.123790316841021 8.471487107113699 #
coedge $-1 $398 $413 $308 $361 reversed $379 $-1 #
edge $-1 $362 -24.123790316841021 $414 24.123790316841021 $360 $415 forward 7 unknown #
vertex $-1 $361 $416 #
face $-1 $402 $356 $11 $-1 $417 reversed single #
loop $-1 $-1 $387 $311 #
plane-surface $-1 0 -24.123790316841021 0 0 1 0 0 0 1 forward_v I I I I #
coedge $-1 $317 $314 $313 $367 forward $263 $-1 #
edge $-1 $316 -24.123790316841021 $418 24.123790316841021 $313 $419 forward 7 unknown #
straight-curve $-1 0 -24.123790316841021 -8.471487107113699 -1 0 0 I I #
point $-1 -59.155858027893913 -24.123790316841021 -8.471487107113699 #
edge $-1 $418 -59.155858027893913 $318 59.155858027893913 $328 $420 forward 7 unknown #
point $-1 59.155858027893913 24.123790316841021 -8.471487107113699 #
coedge $-1 $329 $328 $321 $373 reversed $330 $-1 #
edge $-1 $374 -8.471487107113699 $418 8.471487107113699 $372 $421 forward 7 unknown #
vertex $-1 $332 $422 #
straight-curve $-1 -59.155858027893913 0 8.471487107113699 0 -1 0 I I #
plane-surface $-1 0 24.123790316841021 0 0 -1 0 0 0 -1 forward_v I I I I #
straight-curve $-1 0 24.123790316841021 8.471487107113699 -1 0 0 I I #
face $-1 $257 $423 $11 $-1 $365 reversed single #
loop $-1 $-1 $340 $334 #
plane-surface $-1 59.155858027893913 0 0 -1 0 0 0 0 1 forward_v I I I I #
coedge $-1 $389 $424 $391 $425 reversed $335 $-1 #
coedge $-1 $426 $337 $424 $427 reversed $288 $-1 #
coedge $-1 $337 $426 $428 $429 reversed $288 $-1 #
coedge $-1 $413 $391 $337 $385 forward $379 $-1 #
edge $-1 $430 5.1551641362491019 $431 14.364138832477646 $384 $432 forward 7 unknown #
coedge $-1 $339 $338 $412 $433 reversed $239 $-1 #
coedge $-1 $434 $435 $338 $388 forward $364 $-1 #
edge $-1 $436 -59.155858027893913 $393 59.155858027893913 $387 $437 forward 7 unknown #
coedge $-1 $438 $381 $339 $390 forward $335 $-1 #
edge $-1 $394 -59.155858027893913 $439 59.155858027893913 $389 $440 forward 7 unknown #
coedge $-1 $384 $340 $381 $425 forward $379 $-1 #
coedge $-1 $340 $343 $434 $441 forward $379 $-1 #
vertex $-1 $388 $442 #
vertex $-1 $341 $443 #
straight-curve $-1 59.155858027893913 -9.7596514843633742 -0.80612212212980916 0 1 0 I I #
coedge $-1 $435 $434 $342 $397 reversed $364 $-1 #
edge $-1 $405 -59.155858027893913 $399 59.155858027893913 $396 $444 forward 7 unknown #
coedge $-1 $343 $360 $345 $401 reversed $379 $-1 #
vertex $-1 $344 $445 #
straight-curve $-1 59.155858027893913 0 8.471487107113699 0 1 0 I I #
edge $-1 $347 -8.471487107113699 $362 8.471487107113699 $398 $446 forward 7 unknown #
face $-1 $-1 $346 $11 $-1 $169 reversed single #
point $-1 59.155858027893913 24.123790316841021 8.471487107113699 #
coedge $-1 $351 $412 $435 $447 reversed $356 $-1 #
vertex $-1 $352 $448 #
straight-curve $-1 -59.155858027893913 0 8.471487107113699 0 -1 0 I I #
coedge $-1 $449 $450 $353 $408 reversed $423 $-1 #
edge $-1 $414 -59.155858027893913 $410 59.155858027893913 $407 $451 forward 7 unknown #
coedge $-1 $452 $354 $450 $453 reversed $356 $-1 #
vertex $-1 $355 $454 #
straight-curve $-1 -59.155858027893913 0 -8.471487107113699 0 1 0 I I #
coedge $-1 $404 $455 $386 $433 forward $356 $-1 #
coedge $-1 $360 $384 $449 $456 forward $379 $-1 #
vertex $-1 $456 $457 #
straight-curve $-1 59.155858027893913 0 -8.471487107113699 0 -1 0 I I #
point $-1 59.155858027893913 24.123790316841021 -8.471487107113699 #
plane-surface $-1 -59.155858027893913 0 0 1 0 0 0 0 -1 forward_v I I I I #
vertex $-1 $370 $458 #
straight-curve $-1 -59.155858027893913 0 -8.471487107113699 0 1 0 I I #
straight-curve $-1 0 24.123790316841021 -8.471487107113699 1 0 0 I I #
straight-curve $-1 -59.155858027893913 24.123790316841021 0 0 0 -1 I I #
point $-1 -59.155858027893913 24.123790316841021 8.471487107113699 #
loop $-1 $-1 $428 $378 #
coedge $-1 $381 $438 $382 $427 forward $335 $-1 #
edge $-1 $394 -0.8546317321606165 $430 4.1761394407414683 $391 $459 forward 7 unknown #
coedge $-1 $383 $382 $452 $460 reversed $288 $-1 #
edge $-1 $461 -59.155858027893913 $430 59.155858027893913 $424 $462 forward 7 unknown #
coedge $-1 $450 $449 $383 $429 forward $423 $-1 #
edge $-1 $431 -59.155858027893913 $463 59.155858027893913 $428 $464 forward 7 unknown #
vertex $-1 $385 $465 #
vertex $-1 $456 $466 #
straight-curve $-1 59.155858027893913 -9.7596514843633742 -5.8368932950318939 0 -1 0 I I #
edge $-1 $439 5.1551641362491019 $436 14.364138832477646 $412 $467 forward 7 unknown #
coedge $-1 $396 $387 $392 $441 reversed $364 $-1 #
coedge $-1 $387 $396 $404 $447 forward $364 $-1 #
vertex $-1 $433 $468 #
straight-curve $-1 0 -24.123790316841021 -0.80612212212980916 1 0 0 I I #
coedge $-1 $424 $389 $455 $469 reversed $335 $-1 #
vertex $-1 $433 $470 #
straight-curve $-1 0 -14.914815620612476 -0.80612212212980916 -1 0 0 I I #
edge $-1 $399 -8.471487107113699 $393 0.80612212212980916 $392 $471 forward 7 unknown #
point $-1 59.155858027893913 -24.123790316841021 -0.80612212212980916 #
point $-1 59.155858027893913 -14.914815620612476 -0.80612212212980916 #
straight-curve $-1 0 -24.123790316841021 8.471487107113699 1 0 0 I I #
point $-1 59.155858027893913 -24.123790316841021 8.471487107113699 #
straight-curve $-1 59.155858027893913 24.123790316841021 0 0 0 -1 I I #
edge $-1 $405 -8.471487107113699 $436 0.80612212212980916 $404 $472 forward 7 unknown #
point $-1 -59.155858027893913 -24.123790316841021 8.471487107113699 #
coedge $-1 $428 $407 $413 $456 reversed $423 $-1 #
coedge $-1 $407 $428 $409 $453 forward $423 $-1 #
straight-curve $-1 0 -24.123790316841021 -8.471487107113699 -1 0 0 I I #
coedge $-1 $455 $409 $426 $460 forward $356 $-1 #
edge $-1 $463 5.8368932950318939 $410 8.471487107113699 $409 $472 forward 7 unknown #
point $-1 -59.155858027893913 -24.123790316841021 -8.471487107113699 #
coedge $-1 $412 $452 $438 $469 forward $356 $-1 #
edge $-1 $431 5.8368932950318939 $414 8.471487107113699 $413 $471 forward 7 unknown #
point $-1 59.155858027893913 -24.123790316841021 -8.471487107113699 #
point $-1 -59.155858027893913 24.123790316841021 -8.471487107113699 #
straight-curve $-1 59.155858027893913 -14.914815620612476 -1.6607538542904257 0 0 -1 I I #
edge $-1 $463 -14.364138832477646 $461 -5.1551641362491019 $452 $473 forward 7 unknown #
vertex $-1 $460 $474 #
straight-curve $-1 0 -14.914815620612476 -5.8368932950318939 1 0 0 I I #
vertex $-1 $453 $475 #
straight-curve $-1 0 -24.123790316841021 -5.8368932950318939 -1 0 0 I I #
point $-1 59.155858027893913 -14.914815620612476 -5.8368932950318939 #
point $-1 59.155858027893913 -24.123790316841021 -5.8368932950318939 #
straight-curve $-1 -59.155858027893913 -9.7596514843633742 -0.80612212212980916 0 -1 0 I I #
point $-1 -59.155858027893913 -24.123790316841021 -0.80612212212980916 #
edge $-1 $461 -4.1761394407414683 $439 0.8546317321606165 $455 $476 forward 7 unknown #
point $-1 -59.155858027893913 -14.914815620612476 -0.80612212212980916 #
straight-curve $-1 59.155858027893913 -24.123790316841021 0 0 0 -1 I I #
straight-curve $-1 -59.155858027893913 -24.123790316841021 0 0 0 -1 I I #
straight-curve $-1 -59.155858027893913 -9.7596514843633742 -5.8368932950318939 0 1 0 I I #
point $-1 -59.155858027893913 -14.914815620612476 -5.8368932950318939 #
point $-1 -59.155858027893913 -24.123790316841021 -5.8368932950318939 #
straight-curve $-1 -59.155858027893913 -14.914815620612476 -1.6607538542904257 0 0 1 I I #
End-of-ACIS-data 