500 0 8 0           
7 Unknown 11 ACIS 5.0 NT 24 Fri Mar 26 19:36:32 1999 
-1 9.9999999999999995e-007 1e-010 
body $-1 $8 $-1 $9 #
body $-1 $10 $-1 $11 #
body $-1 $12 $-1 $13 #
body $-1 $14 $-1 $15 #
body $-1 $16 $-1 $17 #
body $-1 $18 $-1 $19 #
body $-1 $20 $-1 $21 #
body $-1 $22 $-1 $23 #
lump $-1 $-1 $24 $0 #
transform $-1 1 0 0 0 1 0 0 0 1 72.488784447767571 31.285855847003809 8.0726234936139356 1 rotate no_reflect no_shear #
lump $-1 $-1 $25 $1 #
transform $-1 1 0 0 0 1 0 0 0 1 72.488784447767571 31.285855847003809 8.0726234936139356 1 rotate no_reflect no_shear #
lump $-1 $-1 $26 $2 #
transform $-1 1 0 0 0 1 0 0 0 1 72.488784447767571 31.285855847003809 8.0726234936139356 1 rotate no_reflect no_shear #
lump $-1 $-1 $27 $3 #
transform $-1 1 0 0 0 1 0 0 0 1 72.488784447767571 31.285855847003809 8.0726234936139356 1 rotate no_reflect no_shear #
lump $-1 $-1 $28 $4 #
transform $-1 1 0 0 0 1 0 0 0 1 72.488784447767571 31.285855847003809 8.0726234936139356 1 rotate no_reflect no_shear #
lump $-1 $-1 $29 $5 #
transform $-1 1 0 0 0 1 0 0 0 1 72.488784447767571 31.285855847003809 8.0726234936139356 1 rotate no_reflect no_shear #
lump $-1 $-1 $30 $6 #
transform $-1 1 0 0 0 1 0 0 0 1 72.488784447767571 31.285855847003809 8.0726234936139356 1 rotate no_reflect no_shear #
lump $-1 $-1 $31 $7 #
transform $-1 1 0 0 0 1 0 0 0 1 72.488784447767571 31.285855847003809 8.0726234936139356 1 rotate no_reflect no_shear #
shell $-1 $-1 $-1 $32 $-1 $8 #
shell $-1 $-1 $-1 $33 $-1 $10 #
shell $-1 $-1 $-1 $34 $-1 $12 #
shell $-1 $-1 $-1 $35 $-1 $14 #
shell $-1 $-1 $-1 $36 $-1 $16 #
shell $-1 $-1 $-1 $37 $-1 $18 #
shell $-1 $-1 $-1 $38 $-1 $20 #
shell $-1 $-1 $-1 $39 $-1 $22 #
face $-1 $40 $41 $24 $-1 $42 forward single #
face $-1 $43 $44 $25 $-1 $45 reversed single #
face $-1 $46 $47 $26 $-1 $48 reversed single #
face $-1 $49 $50 $27 $-1 $51 forward single #
face $-1 $52 $53 $28 $-1 $54 reversed single #
face $-1 $55 $56 $29 $-1 $57 forward single #
face $-1 $58 $59 $30 $-1 $60 reversed single #
face $-1 $61 $62 $31 $-1 $63 forward single #
face $-1 $64 $65 $24 $-1 $66 reversed single #
loop $-1 $-1 $67 $32 #
plane-surface $-1 0 0 8.0726234936139356 0 0 1 1 0 0 forward_v I I I I #
face $-1 $68 $69 $25 $-1 $70 reversed single #
loop $-1 $-1 $71 $33 #
plane-surface $-1 -68.149545453378806 0 5.0726234936139356 0 0 1 1 0 0 forward_v I I I I #
face $-1 $72 $73 $26 $-1 $74 reversed single #
loop $-1 $-1 $75 $34 #
plane-surface $-1 -59.884068787113605 123.32907525661687 130.32627980487732 1 0 0 0 -0.85716730853699208 -0.51503806187062418 forward_v I I I I #
face $-1 $76 $77 $27 $-1 $78 forward single #
loop $-1 $79 $80 $35 #
cone-surface $-1 -49.847365122706037 28.99352456834599 4.7624626685741074 0 -0.85716730853699208 -0.51503806187062418 1 0 0 1 I I 0 1 1 forward I I I I #
face $-1 $81 $82 $28 $-1 $83 reversed single #
loop $-1 $-1 $84 $36 #
plane-surface $-1 8.2654766662652008 123.32907525661687 130.32627980487732 1 0 0 0 -0.85716730853699208 -0.51503806187062418 forward_v I I I I #
face $-1 $85 $86 $29 $-1 $87 forward single #
loop $-1 $88 $89 $37 #
cone-surface $-1 18.302180330672769 28.99352456834599 4.7624626685741074 0 -0.85716730853699208 -0.51503806187062418 1 0 0 1 I I 0 1 1 forward I I I I #
face $-1 $90 $91 $30 $-1 $92 reversed single #
loop $-1 $-1 $93 $38 #
plane-surface $-1 -1.3721270623818356 -143.95458921574945 95.166853385023941 -1 0 0 0 -0.77714596973225614 0.62932038083071107 forward_v I I I I #
face $-1 $94 $95 $31 $-1 $96 forward single #
loop $-1 $97 $98 $39 #
cone-surface $-1 -16.572510159583871 -28.609429217087431 5.1921636688493811 0 0.77714596973225614 -0.62932038083071107 1 0 0 1 I I 0 1 1 forward I I I I #
face $-1 $99 $100 $24 $-1 $101 reversed single #
loop $-1 $-1 $102 $40 #
plane-surface $-1 0 0 -8.0726234936139356 0 0 1 1 0 0 forward_v I I I I #
coedge $-1 $103 $104 $105 $106 forward $41 $-1 #
face $-1 $107 $108 $25 $-1 $109 reversed single #
loop $-1 $-1 $110 $43 #
plane-surface $-1 -63.810306458990041 0 6.5726234936139356 -1 0 0 0 0 1 forward_v I I I I #
coedge $-1 $111 $112 $113 $114 forward $44 $-1 #
face $-1 $115 $116 $26 $-1 $117 reversed single #
loop $-1 $-1 $118 $46 #
plane-surface $-1 -49.847365122706037 -0.94095727180531696 55.657313706206011 0 0.85716730853699208 0.51503806187062418 1 0 0 forward_v I I I I #
coedge $-1 $119 $120 $121 $122 reversed $47 $-1 #
face $-1 $-1 $123 $27 $-1 $124 forward single #
loop $-1 $125 $126 $49 #
cone-surface $-1 -49.847365122706037 28.090133478743141 4.219650557955493 0 -0.85716730853699208 -0.51503806187062418 0.5 0 0 1 I I -0.70710678118654746 0.70710678118654746 0.5 forward I I I I #
loop $-1 $-1 $127 $35 #
coedge $-1 $80 $80 $128 $129 reversed $50 $-1 #
face $-1 $130 $131 $28 $-1 $132 reversed single #
loop $-1 $-1 $133 $52 #
plane-surface $-1 18.302180330672769 -0.94095727180531696 55.657313706206011 0 0.85716730853699208 0.51503806187062418 1 0 0 forward_v I I I I #
coedge $-1 $134 $135 $136 $137 reversed $53 $-1 #
face $-1 $-1 $138 $29 $-1 $139 forward single #
loop $-1 $140 $141 $55 #
cone-surface $-1 18.302180330672769 28.090133478743141 4.219650557955493 0 -0.85716730853699208 -0.51503806187062418 0.5 0 0 1 I I -0.70710678118654746 0.70710678118654746 0.5 forward I I I I #
loop $-1 $-1 $142 $37 #
coedge $-1 $89 $89 $143 $144 reversed $56 $-1 #
face $-1 $145 $146 $30 $-1 $147 reversed single #
loop $-1 $-1 $148 $58 #
plane-surface $-1 -16.572510159583871 -31.285855847003816 3.9295145157751108 0 -0.77714596973225614 0.62932038083071107 1 0 0 forward_v I I I I #
coedge $-1 $149 $150 $151 $152 reversed $59 $-1 #
face $-1 $-1 $153 $31 $-1 $154 forward single #
loop $-1 $155 $156 $61 #
cone-surface $-1 -16.572510159583871 -27.221941306222639 4.0685981425888933 0 0.77714596973225614 -0.62932038083071107 0.5 0 0 1 I I -0.70710678118654746 0.70710678118654746 0.5 forward I I I I #
loop $-1 $-1 $157 $39 #
coedge $-1 $98 $98 $158 $159 reversed $62 $-1 #
face $-1 $160 $161 $24 $-1 $162 reversed single #
loop $-1 $-1 $163 $64 #
plane-surface $-1 0 -31.285855847003809 0 0 1 0 0 0 1 forward_v I I I I #
coedge $-1 $164 $165 $166 $167 forward $65 $-1 #
coedge $-1 $168 $67 $169 $170 forward $41 $-1 #
coedge $-1 $67 $168 $171 $172 forward $41 $-1 #
coedge $-1 $173 $174 $67 $106 reversed $175 $-1 #
edge $-1 $176 -31.285855847003809 $177 31.285855847003809 $105 $178 forward 7 unknown #
face $-1 $179 $180 $25 $-1 $181 reversed single #
loop $-1 $-1 $182 $68 #
plane-surface $-1 0 31.285855847003809 0 0 -1 0 0 0 -1 forward_v I I I I #
coedge $-1 $113 $183 $184 $185 reversed $69 $-1 #
coedge $-1 $186 $71 $187 $188 reversed $44 $-1 #
coedge $-1 $71 $186 $189 $190 reversed $44 $-1 #
coedge $-1 $191 $110 $71 $114 reversed $69 $-1 #
edge $-1 $192 -31.285855847003809 $193 31.285855847003809 $113 $194 forward 7 unknown #
face $-1 $195 $196 $26 $-1 $197 forward single #
loop $-1 $-1 $198 $72 #
plane-surface $-1 -39.810661458298469 123.32907525661687 130.32627980487732 -1 0 0 0 0.85716730853699208 0.51503806187062418 forward_v I I I I #
coedge $-1 $199 $200 $201 $202 reversed $73 $-1 #
coedge $-1 $120 $75 $203 $204 reversed $47 $-1 #
coedge $-1 $75 $119 $199 $205 reversed $47 $-1 #
coedge $-1 $201 $206 $75 $122 forward $196 $-1 #
edge $-1 $207 30.378681781304628 $208 34.013729467951549 $121 $209 forward 7 unknown #
loop $-1 $-1 $128 $76 #
plane-surface $-1 -49.847365122706037 -0.94095727180531696 55.657313706206011 0 0.85716730853699208 0.51503806187062418 1 0 0 forward_v I I I I #
loop $-1 $-1 $210 $49 #
coedge $-1 $126 $126 $127 $211 reversed $77 $-1 #
coedge $-1 $127 $127 $126 $211 forward $79 $-1 #
coedge $-1 $128 $128 $80 $129 forward $123 $-1 #
edge $-1 $212 -1.6827607749570195e-015 $212 6.2831853071795987 $128 $213 forward 7 unknown #
face $-1 $214 $215 $28 $-1 $216 forward single #
loop $-1 $-1 $217 $81 #
plane-surface $-1 28.338883995080337 123.32907525661687 130.32627980487732 -1 0 0 0 0.85716730853699208 0.51503806187062418 forward_v I I I I #
coedge $-1 $218 $219 $220 $221 reversed $82 $-1 #
coedge $-1 $135 $84 $222 $223 reversed $53 $-1 #
coedge $-1 $84 $134 $218 $224 reversed $53 $-1 #
coedge $-1 $220 $225 $84 $137 forward $215 $-1 #
edge $-1 $226 30.378681781304628 $227 34.013729467951549 $136 $228 forward 7 unknown #
loop $-1 $-1 $143 $85 #
plane-surface $-1 18.302180330672769 -0.94095727180531696 55.657313706206011 0 0.85716730853699208 0.51503806187062418 1 0 0 forward_v I I I I #
loop $-1 $-1 $229 $55 #
coedge $-1 $141 $141 $142 $230 reversed $86 $-1 #
coedge $-1 $142 $142 $141 $230 forward $88 $-1 #
coedge $-1 $143 $143 $89 $144 forward $138 $-1 #
edge $-1 $231 -1.6827607749570195e-015 $231 6.2831853071795987 $143 $232 forward 7 unknown #
face $-1 $233 $234 $30 $-1 $235 reversed single #
loop $-1 $-1 $236 $90 #
plane-surface $-1 -31.772893256785906 -143.95458921574945 95.166853385023941 1 0 0 0 0.77714596973225614 -0.62932038083071107 forward_v I I I I #
coedge $-1 $237 $238 $239 $240 reversed $91 $-1 #
coedge $-1 $150 $93 $241 $242 reversed $59 $-1 #
coedge $-1 $93 $149 $237 $243 reversed $59 $-1 #
coedge $-1 $239 $244 $93 $152 forward $245 $-1 #
edge $-1 $246 40.691438760870916 $247 44.046462168706313 $151 $248 forward 7 unknown #
loop $-1 $-1 $158 $94 #
plane-surface $-1 -16.572510159583871 -31.285855847003816 3.9295145157751108 0 -0.77714596973225614 0.62932038083071107 1 0 0 forward_v I I I I #
loop $-1 $-1 $249 $61 #
coedge $-1 $156 $156 $157 $250 reversed $95 $-1 #
coedge $-1 $157 $157 $156 $250 forward $97 $-1 #
coedge $-1 $158 $158 $98 $159 forward $153 $-1 #
edge $-1 $251 -1.5755459753017766e-015 $251 6.2831853071795987 $158 $252 forward 7 unknown #
face $-1 $253 $254 $24 $-1 $255 reversed single #
loop $-1 $-1 $256 $99 #
plane-surface $-1 -72.488784447767571 0 0 1 0 0 0 0 -1 forward_v I I I I #
coedge $-1 $257 $171 $258 $259 forward $100 $-1 #
coedge $-1 $260 $102 $257 $261 forward $65 $-1 #
coedge $-1 $102 $260 $262 $263 forward $65 $-1 #
coedge $-1 $174 $173 $102 $167 reversed $175 $-1 #
edge $-1 $264 -31.285855847003809 $265 31.285855847003809 $166 $266 forward 7 unknown #
coedge $-1 $104 $103 $267 $268 forward $41 $-1 #
coedge $-1 $269 $270 $103 $170 reversed $254 $-1 #
edge $-1 $177 -72.488784447767571 $271 72.488784447767571 $169 $272 forward 7 unknown #
coedge $-1 $163 $273 $104 $172 reversed $100 $-1 #
edge $-1 $274 -72.488784447767571 $176 72.488784447767571 $171 $275 forward 7 unknown #
coedge $-1 $166 $105 $273 $276 forward $175 $-1 #
coedge $-1 $105 $166 $269 $277 reversed $175 $-1 #
loop $-1 $-1 $173 $253 #
vertex $-1 $106 $278 #
vertex $-1 $106 $279 #
straight-curve $-1 72.488784447767571 0 8.0726234936139356 0 1 0 I I #
face $-1 $280 $281 $25 $-1 $282 forward single #
loop $-1 $-1 $283 $107 #
plane-surface $-1 -72.488784447767571 0 0 1 0 0 0 0 -1 forward_v I I I I #
coedge $-1 $189 $284 $191 $285 forward $108 $-1 #
coedge $-1 $110 $191 $286 $287 reversed $69 $-1 #
coedge $-1 $288 $187 $110 $185 forward $289 $-1 #
edge $-1 $193 1.7863117468069678 $290 4.7863117468069678 $184 $291 forward 7 unknown #
coedge $-1 $112 $111 $283 $292 reversed $44 $-1 #
coedge $-1 $184 $293 $111 $188 forward $289 $-1 #
edge $-1 $294 -38.414011721078168 $193 -29.735533732300638 $187 $295 forward 7 unknown #
coedge $-1 $296 $182 $112 $190 forward $108 $-1 #
edge $-1 $192 29.735533732300638 $297 38.414011721078168 $189 $298 forward 7 unknown #
coedge $-1 $183 $113 $182 $285 reversed $69 $-1 #
vertex $-1 $190 $299 #
vertex $-1 $188 $300 #
straight-curve $-1 -63.810306458990041 0 5.0726234936139356 0 -1 0 I I #
face $-1 $-1 $301 $26 $-1 $302 reversed single #
loop $-1 $-1 $121 $115 #
plane-surface $-1 0 0 8.0726234936139356 0 0 1 1 0 0 forward_v I I I I #
coedge $-1 $303 $304 $305 $306 reversed $116 $-1 #
coedge $-1 $307 $118 $120 $205 forward $73 $-1 #
coedge $-1 $118 $307 $303 $308 forward $73 $-1 #
coedge $-1 $305 $121 $118 $202 forward $196 $-1 #
edge $-1 $208 -34.960386225760587 $309 -14.88697889694545 $201 $310 forward 7 unknown #
coedge $-1 $311 $312 $119 $204 forward $301 $-1 #
edge $-1 $313 -63.140251899537738 $207 -57.090516408824726 $203 $314 forward 7 unknown #
edge $-1 $208 55.51388829073445 $313 62.571711694007568 $120 $315 forward 7 unknown #
coedge $-1 $121 $305 $311 $316 forward $196 $-1 #
vertex $-1 $204 $317 #
vertex $-1 $122 $318 #
straight-curve $-1 -59.884068787113605 61.664537628308437 8.0726234936139321 0 -1 0 I I #
coedge $-1 $210 $210 $-1 $319 reversed $125 $-1 #
edge $-1 $320 0 $320 6.2831853071796004 $126 $321 forward 7 unknown #
vertex $-1 $129 $322 #
ellipse-curve $-1 -49.847365122706037 29.468332003680349 5.0477557482574147 0 0.85716730853699208 0.51503806187062418 1 0 0 1 I I #
face $-1 $-1 $323 $28 $-1 $324 reversed single #
loop $-1 $-1 $136 $130 #
plane-surface $-1 0 0 8.0726234936139356 0 0 1 1 0 0 forward_v I I I I #
coedge $-1 $325 $326 $327 $328 reversed $131 $-1 #
coedge $-1 $329 $133 $135 $224 forward $82 $-1 #
coedge $-1 $133 $329 $325 $330 forward $82 $-1 #
coedge $-1 $327 $136 $133 $221 forward $215 $-1 #
edge $-1 $227 -0.8856134990711837 $331 19.187793829743953 $220 $332 forward 7 unknown #
coedge $-1 $333 $334 $134 $223 forward $323 $-1 #
edge $-1 $335 -63.140251899537738 $226 -57.090516408824726 $222 $336 forward 7 unknown #
edge $-1 $227 55.51388829073445 $335 62.571711694007568 $135 $337 forward 7 unknown #
coedge $-1 $136 $327 $333 $338 forward $215 $-1 #
vertex $-1 $137 $339 #
vertex $-1 $137 $340 #
straight-curve $-1 8.2654766662652008 61.664537628308437 8.0726234936139321 0 -1 0 I I #
coedge $-1 $229 $229 $-1 $341 reversed $140 $-1 #
edge $-1 $342 0 $342 6.2831853071796004 $141 $343 forward 7 unknown #
vertex $-1 $144 $344 #
ellipse-curve $-1 18.302180330672769 29.468332003680349 5.0477557482574147 0 0.85716730853699208 0.51503806187062418 1 0 0 1 I I #
face $-1 $-1 $245 $30 $-1 $345 forward single #
loop $-1 $-1 $346 $145 #
plane-surface $-1 0 -31.285855847003809 0 0 1 0 0 0 1 forward_v I I I I #
coedge $-1 $347 $348 $349 $350 reversed $146 $-1 #
coedge $-1 $351 $148 $150 $243 forward $91 $-1 #
coedge $-1 $148 $351 $347 $352 forward $91 $-1 #
coedge $-1 $349 $151 $148 $240 forward $245 $-1 #
edge $-1 $247 -6.9141280174100999 $353 23.486638176993971 $239 $354 forward 7 unknown #
coedge $-1 $355 $356 $149 $242 forward $234 $-1 #
edge $-1 $357 -43.653912176736853 $246 -39.510803198898031 $241 $358 forward 7 unknown #
edge $-1 $247 -5.3311850530038978 $357 -1.1374033043381581e-014 $150 $359 forward 7 unknown #
coedge $-1 $151 $349 $355 $360 forward $245 $-1 #
loop $-1 $-1 $349 $233 #
vertex $-1 $242 $361 #
vertex $-1 $152 $362 #
straight-curve $-1 -1.3721270623818356 -71.977294607874725 8.0726234936139321 0 1 0 I I #
coedge $-1 $249 $249 $-1 $363 reversed $155 $-1 #
edge $-1 $364 0 $364 6.2831853071796004 $156 $365 forward 7 unknown #
vertex $-1 $159 $366 #
ellipse-curve $-1 -16.572510159583871 -29.608344143086111 6.001069004694525 0 -0.77714596973225614 0.62932038083071107 1 0 0 1 I I #
face $-1 $-1 $175 $24 $-1 $367 reversed single #
loop $-1 $-1 $269 $160 #
plane-surface $-1 0 31.285855847003809 0 0 -1 0 0 0 -1 forward_v I I I I #
coedge $-1 $368 $267 $270 $369 forward $161 $-1 #
coedge $-1 $273 $163 $164 $261 reversed $100 $-1 #
coedge $-1 $267 $368 $163 $259 reversed $161 $-1 #
edge $-1 $274 -8.0726234936139356 $370 8.0726234936139356 $258 $371 forward 7 unknown #
coedge $-1 $165 $164 $368 $372 forward $65 $-1 #
edge $-1 $265 -72.488784447767571 $370 72.488784447767571 $257 $373 forward 7 unknown #
coedge $-1 $270 $269 $165 $263 reversed $254 $-1 #
edge $-1 $374 -72.488784447767571 $264 72.488784447767571 $262 $375 forward 7 unknown #
vertex $-1 $167 $376 #
vertex $-1 $276 $377 #
straight-curve $-1 72.488784447767571 0 -8.0726234936139356 0 -1 0 I I #
coedge $-1 $256 $258 $168 $268 reversed $161 $-1 #
edge $-1 $271 -31.285855847003809 $274 31.285855847003809 $267 $378 forward 7 unknown #
coedge $-1 $262 $169 $174 $277 forward $254 $-1 #
coedge $-1 $169 $262 $256 $369 reversed $254 $-1 #
vertex $-1 $170 $379 #
straight-curve $-1 0 31.285855847003809 8.0726234936139356 -1 0 0 I I #
coedge $-1 $171 $257 $173 $276 reversed $100 $-1 #
vertex $-1 $268 $380 #
straight-curve $-1 0 -31.285855847003809 8.0726234936139356 1 0 0 I I #
edge $-1 $176 -8.0726234936139356 $265 8.0726234936139356 $173 $381 forward 7 unknown #
edge $-1 $177 -8.0726234936139356 $264 8.0726234936139356 $174 $382 forward 7 unknown #
point $-1 72.488784447767571 -31.285855847003809 8.0726234936139356 #
point $-1 72.488784447767571 31.285855847003809 8.0726234936139356 #
face $-1 $-1 $289 $25 $-1 $383 reversed single #
loop $-1 $-1 $286 $179 #
plane-surface $-1 0 0 8.0726234936139356 0 0 1 1 0 0 forward_v I I I I #
coedge $-1 $384 $385 $186 $292 forward $180 $-1 #
coedge $-1 $182 $296 $386 $387 reversed $108 $-1 #
edge $-1 $388 -4.7863117468069678 $192 -1.7863117468069678 $182 $389 forward 7 unknown #
coedge $-1 $386 $390 $183 $287 forward $281 $-1 #
edge $-1 $290 -31.285855847003809 $388 31.285855847003809 $286 $391 forward 7 unknown #
coedge $-1 $293 $184 $390 $392 reversed $289 $-1 #
loop $-1 $-1 $184 $280 #
vertex $-1 $185 $393 #
straight-curve $-1 -63.810306458990041 -31.285855847003809 3.2863117468069678 0 0 1 I I #
edge $-1 $297 -31.285855847003809 $294 31.285855847003809 $283 $394 forward 7 unknown #
coedge $-1 $187 $288 $384 $395 forward $289 $-1 #
vertex $-1 $292 $396 #
straight-curve $-1 -34.074772726689403 -31.285855847003809 5.0726234936139356 1 0 0 I I #
coedge $-1 $284 $189 $385 $397 reversed $108 $-1 #
vertex $-1 $292 $398 #
straight-curve $-1 -34.074772726689403 31.285855847003809 5.0726234936139356 -1 0 0 I I #
point $-1 -63.810306458990041 31.285855847003809 5.0726234936139356 #
point $-1 -63.810306458990041 -31.285855847003809 5.0726234936139356 #
loop $-1 $-1 $203 $195 #
plane-surface $-1 0 31.285855847003809 0 0 -1 0 0 0 -1 forward_v I I I I #
coedge $-1 $304 $198 $200 $308 reversed $116 $-1 #
coedge $-1 $198 $303 $399 $400 reversed $116 $-1 #
coedge $-1 $206 $201 $198 $306 forward $196 $-1 #
edge $-1 $309 -34.013729467951549 $401 -30.378681781304628 $305 $402 forward 7 unknown #
coedge $-1 $200 $199 $312 $403 reversed $73 $-1 #
edge $-1 $404 -62.571711694007568 $309 -55.51388829073445 $303 $405 forward 7 unknown #
vertex $-1 $202 $406 #
straight-curve $-1 -24.923682561353019 27.650808160356885 8.0726234936139356 1 0 0 I I #
coedge $-1 $399 $203 $206 $316 reversed $301 $-1 #
coedge $-1 $203 $399 $307 $403 forward $301 $-1 #
vertex $-1 $204 $407 #
straight-curve $-1 -59.884068787113605 31.285855847003809 65.163139902438658 0 0 1 I I #
straight-curve $-1 -59.884068787113605 -0.94095727180531696 55.657313706206011 0 0.51503806187062418 -0.85716730853699208 I I #
edge $-1 $401 39.810661458298469 $207 59.884068787113605 $311 $408 forward 7 unknown #
point $-1 -59.884068787113605 31.285855847003809 8.0726234936139356 #
point $-1 -59.884068787113605 27.650808160356892 8.0726234936139321 #
edge $-1 $409 1 $409 0 $210 $-1 forward 7 unknown #
vertex $-1 $211 $410 #
ellipse-curve $-1 -49.847365122706037 28.518717133011638 4.4771695888908054 0 0.85716730853699208 0.51503806187062418 1 0 0 1 I I #
point $-1 -48.847365122706037 29.468332003680338 5.0477557482574102 #
loop $-1 $-1 $222 $214 #
plane-surface $-1 0 31.285855847003809 0 0 -1 0 0 0 -1 forward_v I I I I #
coedge $-1 $326 $217 $219 $330 reversed $131 $-1 #
coedge $-1 $217 $325 $411 $412 reversed $131 $-1 #
coedge $-1 $225 $220 $217 $328 forward $215 $-1 #
edge $-1 $331 -34.013729467951549 $413 -30.378681781304628 $327 $414 forward 7 unknown #
coedge $-1 $219 $218 $334 $415 reversed $82 $-1 #
edge $-1 $416 -62.571711694007568 $331 -55.51388829073445 $325 $417 forward 7 unknown #
vertex $-1 $221 $418 #
straight-curve $-1 9.1510901653363845 27.650808160356885 8.0726234936139356 1 0 0 I I #
coedge $-1 $411 $222 $225 $338 reversed $323 $-1 #
coedge $-1 $222 $411 $329 $415 forward $323 $-1 #
vertex $-1 $223 $419 #
straight-curve $-1 8.2654766662652008 31.285855847003809 65.163139902438658 0 0 1 I I #
straight-curve $-1 8.2654766662652008 -0.94095727180531696 55.657313706206011 0 0.51503806187062418 -0.85716730853699208 I I #
edge $-1 $413 -28.338883995080337 $226 -8.2654766662652008 $333 $420 forward 7 unknown #
point $-1 8.2654766662652008 31.285855847003809 8.0726234936139356 #
point $-1 8.2654766662652008 27.650808160356892 8.0726234936139321 #
edge $-1 $421 1 $421 0 $229 $-1 forward 7 unknown #
vertex $-1 $230 $422 #
ellipse-curve $-1 18.302180330672769 28.518717133011638 4.4771695888908054 0 0.85716730853699208 0.51503806187062418 1 0 0 1 I I #
point $-1 19.302180330672769 29.468332003680338 5.0477557482574102 #
plane-surface $-1 0 0 8.0726234936139356 0 0 1 1 0 0 forward_v I I I I #
coedge $-1 $356 $355 $348 $423 forward $234 $-1 #
coedge $-1 $348 $236 $238 $352 reversed $146 $-1 #
coedge $-1 $236 $347 $346 $423 reversed $146 $-1 #
coedge $-1 $244 $239 $236 $350 forward $245 $-1 #
edge $-1 $353 -44.046462168706313 $424 -40.691438760870916 $349 $425 forward 7 unknown #
coedge $-1 $238 $237 $356 $426 reversed $91 $-1 #
edge $-1 $427 1.1374033043381581e-014 $353 5.3311850530038978 $347 $428 forward 7 unknown #
vertex $-1 $240 $429 #
straight-curve $-1 -8.2862550797919354 -27.930832439168405 8.0726234936139356 -1 0 0 I I #
coedge $-1 $346 $241 $244 $360 reversed $234 $-1 #
coedge $-1 $241 $346 $351 $426 forward $234 $-1 #
vertex $-1 $242 $430 #
straight-curve $-1 -1.3721270623818356 -31.285855847003809 47.583426692511971 0 0 1 I I #
straight-curve $-1 -1.3721270623818356 -31.285855847003816 3.9295145157751108 0 -0.62932038083071107 -0.77714596973225614 I I #
edge $-1 $424 -31.772893256785906 $246 -1.3721270623818356 $355 $431 forward 7 unknown #
point $-1 -1.3721270623818356 -31.285855847003809 8.0726234936139356 #
point $-1 -1.3721270623818356 -27.930832439168409 8.0726234936139356 #
edge $-1 $432 1 $432 0 $249 $-1 forward 7 unknown #
vertex $-1 $250 $433 #
ellipse-curve $-1 -16.572510159583871 -27.610514291088766 4.3832583330042487 0 -0.77714596973225614 0.62932038083071107 1 0 0 1 I I #
point $-1 -15.572510159583871 -29.6083441430861 6.0010690046945143 #
plane-surface $-1 72.488784447767571 0 0 -1 0 0 0 0 1 forward_v I I I I #
coedge $-1 $258 $256 $260 $372 reversed $161 $-1 #
edge $-1 $271 -8.0726234936139356 $374 8.0726234936139356 $270 $434 forward 7 unknown #
vertex $-1 $372 $435 #
straight-curve $-1 -72.488784447767571 -31.285855847003809 0 0 0 -1 I I #
edge $-1 $370 -31.285855847003809 $374 31.285855847003809 $368 $436 forward 7 unknown #
straight-curve $-1 0 -31.285855847003809 -8.0726234936139356 -1 0 0 I I #
vertex $-1 $263 $437 #
straight-curve $-1 0 31.285855847003809 -8.0726234936139356 1 0 0 I I #
point $-1 72.488784447767571 31.285855847003809 -8.0726234936139356 #
point $-1 72.488784447767571 -31.285855847003809 -8.0726234936139356 #
straight-curve $-1 -72.488784447767571 0 8.0726234936139356 0 -1 0 I I #
point $-1 -72.488784447767571 31.285855847003809 8.0726234936139356 #
point $-1 -72.488784447767571 -31.285855847003809 8.0726234936139356 #
straight-curve $-1 72.488784447767571 -31.285855847003809 0 0 0 -1 I I #
straight-curve $-1 72.488784447767571 31.285855847003809 0 0 0 -1 I I #
plane-surface $-1 0 -31.285855847003809 0 0 1 0 0 0 1 forward_v I I I I #
coedge $-1 $438 $283 $293 $395 reversed $180 $-1 #
coedge $-1 $283 $438 $296 $397 forward $180 $-1 #
coedge $-1 $439 $286 $284 $387 forward $281 $-1 #
edge $-1 $388 63.810306458990041 $440 72.488784447767571 $284 $441 forward 7 unknown #
vertex $-1 $387 $442 #
straight-curve $-1 -63.810306458990041 31.285855847003809 3.2863117468069678 0 0 -1 I I #
coedge $-1 $286 $439 $288 $392 forward $281 $-1 #
straight-curve $-1 -63.810306458990041 0 8.0726234936139356 0 1 0 I I #
edge $-1 $443 -72.488784447767571 $290 -63.810306458990041 $288 $444 forward 7 unknown #
point $-1 -63.810306458990041 -31.285855847003809 8.0726234936139356 #
straight-curve $-1 -72.488784447767571 0 5.0726234936139356 0 -1 0 I I #
edge $-1 $443 -8.0726234936139356 $294 -5.0726234936139356 $384 $445 forward 7 unknown #
point $-1 -72.488784447767571 -31.285855847003809 5.0726234936139356 #
edge $-1 $440 -8.0726234936139356 $297 -5.0726234936139356 $296 $446 forward 7 unknown #
point $-1 -72.488784447767571 31.285855847003809 5.0726234936139356 #
coedge $-1 $312 $311 $304 $400 forward $301 $-1 #
edge $-1 $401 57.090516408824726 $404 63.140251899537738 $399 $447 forward 7 unknown #
vertex $-1 $316 $448 #
straight-curve $-1 -39.810661458298469 61.664537628308437 8.0726234936139321 0 1 0 I I #
edge $-1 $404 14.88697889694545 $313 34.960386225760587 $312 $449 forward 7 unknown #
vertex $-1 $403 $450 #
straight-curve $-1 -39.810661458298469 -0.94095727180531696 55.657313706206011 0 -0.51503806187062418 0.85716730853699208 I I #
point $-1 -39.810661458298469 27.650808160356892 8.0726234936139321 #
point $-1 -59.884068787113605 31.285855847003809 2.0228880029009204 #
straight-curve $-1 0 31.285855847003809 8.0726234936139356 -1 0 0 I I #
vertex $-1 $319 $451 #
point $-1 -48.847365122706037 28.518717133011638 4.4771695888908054 #
coedge $-1 $334 $333 $326 $412 forward $323 $-1 #
edge $-1 $413 57.090516408824726 $416 63.140251899537738 $411 $452 forward 7 unknown #
vertex $-1 $338 $453 #
straight-curve $-1 28.338883995080337 61.664537628308437 8.0726234936139321 0 1 0 I I #
edge $-1 $416 -19.187793829743953 $335 0.8856134990711837 $334 $454 forward 7 unknown #
vertex $-1 $415 $455 #
straight-curve $-1 28.338883995080337 -0.94095727180531696 55.657313706206011 0 -0.51503806187062418 0.85716730853699208 I I #
point $-1 28.338883995080337 27.650808160356892 8.0726234936139321 #
point $-1 8.2654766662652008 31.285855847003809 2.0228880029009204 #
straight-curve $-1 0 31.285855847003809 8.0726234936139356 -1 0 0 I I #
vertex $-1 $341 $456 #
point $-1 19.302180330672769 28.518717133011638 4.4771695888908054 #
edge $-1 $424 39.510803198898031 $427 43.653912176736853 $346 $457 forward 7 unknown #
vertex $-1 $360 $458 #
straight-curve $-1 -31.772893256785906 -71.977294607874725 8.0726234936139321 0 -1 0 I I #
edge $-1 $427 -23.486638176993971 $357 6.9141280174100999 $356 $459 forward 7 unknown #
vertex $-1 $426 $460 #
straight-curve $-1 -31.772893256785906 -31.285855847003816 3.9295145157751108 0 0.62932038083071107 0.77714596973225614 I I #
point $-1 -31.772893256785906 -27.930832439168409 8.0726234936139356 #
point $-1 -1.3721270623818356 -31.285855847003809 3.9295145157751197 #
straight-curve $-1 0 -31.285855847003809 8.0726234936139356 1 0 0 I I #
vertex $-1 $363 $461 #
point $-1 -15.572510159583871 -27.610514291088766 4.3832583330042487 #
straight-curve $-1 -72.488784447767571 31.285855847003809 0 0 0 -1 I I #
point $-1 -72.488784447767571 -31.285855847003809 -8.0726234936139356 #
straight-curve $-1 -72.488784447767571 0 -8.0726234936139356 0 1 0 I I #
point $-1 -72.488784447767571 31.285855847003809 -8.0726234936139356 #
coedge $-1 $385 $384 $439 $462 reversed $180 $-1 #
coedge $-1 $390 $386 $438 $462 forward $281 $-1 #
vertex $-1 $387 $463 #
straight-curve $-1 0 31.285855847003809 8.0726234936139356 -1 0 0 I I #
point $-1 -63.810306458990041 31.285855847003809 8.0726234936139356 #
vertex $-1 $462 $464 #
straight-curve $-1 0 -31.285855847003809 8.0726234936139356 1 0 0 I I #
straight-curve $-1 -72.488784447767571 -31.285855847003809 0 0 0 -1 I I #
straight-curve $-1 -72.488784447767571 31.285855847003809 0 0 0 -1 I I #
straight-curve $-1 -39.810661458298469 31.285855847003809 65.163139902438658 0 0 -1 I I #
point $-1 -39.810661458298469 31.285855847003809 8.0726234936139356 #
straight-curve $-1 -24.923682561353019 31.285855847003809 2.0228880029009169 -1 0 0 I I #
point $-1 -39.810661458298469 31.285855847003809 2.0228880029009204 #
point $-1 -49.847365122706037 27.661549824474644 3.9621315270201811 #
straight-curve $-1 28.338883995080337 31.285855847003809 65.163139902438658 0 0 -1 I I #
point $-1 28.338883995080337 31.285855847003809 8.0726234936139356 #
straight-curve $-1 9.1510901653363845 31.285855847003809 2.0228880029009169 -1 0 0 I I #
point $-1 28.338883995080337 31.285855847003809 2.0228880029009204 #
point $-1 18.302180330672769 27.661549824474644 3.9621315270201811 #
straight-curve $-1 -31.772893256785906 -31.285855847003809 47.583426692511971 0 0 -1 I I #
point $-1 -31.772893256785906 -31.285855847003809 8.0726234936139356 #
straight-curve $-1 -8.2862550797919354 -31.285855847003809 3.929514515775117 1 0 0 I I #
point $-1 -31.772893256785906 -31.285855847003809 3.9295145157751197 #
point $-1 -16.572510159583871 -26.833368321356513 3.7539379521735379 #
edge $-1 $440 -31.285855847003809 $443 31.285855847003809 $438 $465 forward 7 unknown #
point $-1 -72.488784447767571 31.285855847003809 8.0726234936139356 #
point $-1 -72.488784447767571 -31.285855847003809 8.0726234936139356 #
straight-curve $-1 -72.488784447767571 0 8.0726234936139356 0 -1 0 I I #
End-of-ACIS-data 