500 0 10 0           
7 Unknown 11 ACIS 5.0 NT 24 Fri Mar 26 20:42:11 1999 
-1 9.9999999999999995e-007 1e-010 
body $-1 $10 $-1 $11 #
body $-1 $12 $-1 $13 #
body $-1 $14 $-1 $15 #
body $-1 $16 $-1 $17 #
body $-1 $18 $-1 $19 #
body $-1 $20 $-1 $21 #
body $-1 $22 $-1 $23 #
body $-1 $24 $-1 $25 #
body $-1 $26 $-1 $27 #
body $-1 $28 $-1 $29 #
lump $-1 $-1 $30 $0 #
transform $-1 1 0 0 0 1 0 0 0 1 47.867671742912073 31.324422074482449 7.2712389520163869 1 rotate no_reflect no_shear #
lump $-1 $-1 $31 $1 #
transform $-1 1 0 0 0 1 0 0 0 1 47.867671742912073 31.324422074482449 7.2712389520163869 1 rotate no_reflect no_shear #
lump $-1 $-1 $32 $2 #
transform $-1 1 0 0 0 1 0 0 0 1 47.867671742912073 31.324422074482449 7.2712389520163869 1 rotate no_reflect no_shear #
lump $-1 $-1 $33 $3 #
transform $-1 1 0 0 0 1 0 0 0 1 47.867671742912073 31.324422074482449 7.2712389520163869 1 rotate no_reflect no_shear #
lump $-1 $-1 $34 $4 #
transform $-1 1 0 0 0 1 0 0 0 1 47.867671742912073 31.324422074482449 7.2712389520163869 1 rotate no_reflect no_shear #
lump $-1 $-1 $35 $5 #
transform $-1 1 0 0 0 1 0 0 0 1 47.867671742912073 31.324422074482449 7.2712389520163869 1 rotate no_reflect no_shear #
lump $-1 $-1 $36 $6 #
transform $-1 1 0 0 0 1 0 0 0 1 47.867671742912073 31.324422074482449 7.2712389520163869 1 rotate no_reflect no_shear #
lump $-1 $-1 $37 $7 #
transform $-1 1 0 0 0 1 0 0 0 1 47.867671742912073 31.324422074482449 7.2712389520163869 1 rotate no_reflect no_shear #
lump $-1 $-1 $38 $8 #
transform $-1 1 0 0 0 1 0 0 0 1 47.867671742912073 31.324422074482449 7.2712389520163869 1 rotate no_reflect no_shear #
lump $-1 $-1 $39 $9 #
transform $-1 1 0 0 0 1 0 0 0 1 47.867671742912073 31.324422074482449 7.2712389520163869 1 rotate no_reflect no_shear #
shell $-1 $-1 $-1 $40 $-1 $10 #
shell $-1 $-1 $-1 $41 $-1 $12 #
shell $-1 $-1 $-1 $42 $-1 $14 #
shell $-1 $-1 $-1 $43 $-1 $16 #
shell $-1 $-1 $-1 $44 $-1 $18 #
shell $-1 $-1 $-1 $45 $-1 $20 #
shell $-1 $-1 $-1 $46 $-1 $22 #
shell $-1 $-1 $-1 $47 $-1 $24 #
shell $-1 $-1 $-1 $48 $-1 $26 #
shell $-1 $-1 $-1 $49 $-1 $28 #
face $-1 $50 $51 $30 $-1 $52 forward single #
face $-1 $53 $54 $31 $-1 $55 reversed single #
face $-1 $56 $57 $32 $-1 $58 reversed single #
face $-1 $59 $60 $33 $-1 $61 forward single #
face $-1 $62 $63 $34 $-1 $64 forward single #
face $-1 $65 $66 $35 $-1 $67 reversed single #
face $-1 $68 $69 $36 $-1 $70 forward single #
face $-1 $71 $72 $37 $-1 $73 forward single #
face $-1 $74 $75 $38 $-1 $76 reversed single #
face $-1 $77 $78 $39 $-1 $79 forward single #
face $-1 $80 $81 $30 $-1 $82 reversed single #
loop $-1 $-1 $83 $40 #
plane-surface $-1 0 0 7.2712389520163869 0 0 1 1 0 0 forward_v I I I I #
face $-1 $84 $85 $31 $-1 $86 reversed single #
loop $-1 $-1 $87 $41 #
plane-surface $-1 -43.176154843258118 -28.324422074482449 0 0 -1 0 0 0 -1 forward_v I I I I #
face $-1 $88 $89 $32 $-1 $90 reversed single #
loop $-1 $-1 $91 $42 #
plane-surface $-1 -21.881708586140235 -112.51259861118376 54.698738605753356 -1 0 0 0 -0.84804810408105047 0.52991925155115449 forward_v I I I I #
face $-1 $92 $93 $33 $-1 $94 forward single #
loop $-1 $95 $96 $43 #
cone-surface $-1 -33.740943841471619 -29.777178889253442 5.2973038670663097 0 0.84804810408105047 -0.52991925155115449 0.5 0 0 1 I I 0 1 0.5 forward I I I I #
face $-1 $97 $98 $34 $-1 $99 forward single #
loop $-1 $100 $101 $44 #
cone-surface $-1 -26.625402688272786 -29.777178889253442 5.2973038670663097 0 0.84804810408105047 -0.52991925155115449 0.5 0 0 1 I I 0 1 0.5 forward I I I I #
face $-1 $102 $103 $35 $-1 $104 reversed single #
loop $-1 $-1 $105 $45 #
plane-surface $-1 31.26474238544813 -112.51259861118376 54.698738605753356 1 0 0 0 0.84804810408105047 -0.52991925155115449 forward_v I I I I #
face $-1 $106 $107 $36 $-1 $108 forward single #
loop $-1 $109 $110 $46 #
cone-surface $-1 36.008436487580688 -29.777178889253442 5.2973038670663097 0 0.84804810408105047 -0.52991925155115449 0.5 0 0 1 I I 0 1 0.5 forward I I I I #
face $-1 $111 $112 $37 $-1 $113 forward single #
loop $-1 $114 $115 $47 #
cone-surface $-1 43.123977640779522 -29.777178889253442 5.2973038670663097 0 0.84804810408105047 -0.52991925155115449 0.5 0 0 1 I I 0 1 0.5 forward I I I I #
face $-1 $116 $117 $38 $-1 $118 reversed single #
loop $-1 $-1 $119 $48 #
plane-surface $-1 -21.870339852350714 26.931229366805233 114.74135248719723 1 0 0 0 -0.51503808176128008 -0.85716729658548041 forward_v I I I I #
face $-1 $120 $121 $39 $-1 $122 forward single #
loop $-1 $123 $124 $49 #
cone-surface $-1 -14.646730780228594 24.993806974207402 2.8037348335066223 0 -0.51503808176128008 -0.85716729658548041 2 0 0 1 I I 0 1 2 forward I I I I #
face $-1 $125 $126 $30 $-1 $127 reversed single #
loop $-1 $-1 $128 $50 #
plane-surface $-1 0 0 -7.2712389520163869 0 0 1 1 0 0 forward_v I I I I #
coedge $-1 $129 $130 $131 $132 forward $51 $-1 #
face $-1 $133 $134 $31 $-1 $135 forward single #
loop $-1 $-1 $136 $53 #
plane-surface $-1 -38.48463794360417 -29.824422074482449 0 -1 0 0 0 0 1 forward_v I I I I #
coedge $-1 $137 $138 $139 $140 forward $54 $-1 #
face $-1 $141 $142 $32 $-1 $143 forward single #
loop $-1 $-1 $144 $56 #
plane-surface $-1 -30.183173264872202 -31.324422074482456 3.9667370387527328 0 -0.84804810408105047 0.52991925155115449 1 0 0 forward_v I I I I #
coedge $-1 $145 $146 $147 $148 reversed $57 $-1 #
face $-1 $-1 $149 $33 $-1 $150 forward single #
loop $-1 $151 $152 $59 #
cone-surface $-1 -33.740943841471619 -29.050364628110152 4.8431399258602736 0 0.84804810408105047 -0.52991925155115449 0.25 0 0 1 I I -0.70710678118654746 0.70710678118654746 0.25 forward I I I I #
loop $-1 $-1 $153 $43 #
coedge $-1 $96 $96 $154 $155 reversed $60 $-1 #
face $-1 $-1 $156 $34 $-1 $157 forward single #
loop $-1 $158 $159 $62 #
cone-surface $-1 -26.625402688272786 -29.050364628110152 4.8431399258602736 0 0.84804810408105047 -0.52991925155115449 0.25 0 0 1 I I -0.70710678118654746 0.70710678118654746 0.25 forward I I I I #
loop $-1 $-1 $160 $44 #
coedge $-1 $101 $101 $161 $162 reversed $63 $-1 #
face $-1 $163 $164 $35 $-1 $165 reversed single #
loop $-1 $-1 $166 $65 #
plane-surface $-1 39.566207064180098 -31.324422074482456 3.9667370387527328 0 -0.84804810408105047 0.52991925155115449 1 0 0 forward_v I I I I #
coedge $-1 $167 $168 $169 $170 reversed $66 $-1 #
face $-1 $-1 $171 $36 $-1 $172 forward single #
loop $-1 $173 $174 $68 #
cone-surface $-1 36.008436487580688 -29.050364628110152 4.8431399258602736 0 0.84804810408105047 -0.52991925155115449 0.25 0 0 1 I I -0.70710678118654746 0.70710678118654746 0.25 forward I I I I #
loop $-1 $-1 $175 $46 #
coedge $-1 $110 $110 $176 $177 reversed $69 $-1 #
face $-1 $-1 $178 $37 $-1 $179 forward single #
loop $-1 $180 $181 $71 #
cone-surface $-1 43.123977640779522 -29.050364628110152 4.8431399258602736 0 0.84804810408105047 -0.52991925155115449 0.25 0 0 1 I I -0.70710678118654746 0.70710678118654746 0.25 forward I I I I #
loop $-1 $-1 $182 $47 #
coedge $-1 $115 $115 $183 $184 reversed $72 $-1 #
face $-1 $185 $186 $38 $-1 $187 reversed single #
loop $-1 $-1 $188 $74 #
plane-surface $-1 -14.646730780228602 -22.376118298890894 32.680146923770963 0 0.51503808176128008 0.85716729658548041 1 0 0 forward_v I I I I #
coedge $-1 $189 $190 $191 $192 reversed $75 $-1 #
face $-1 $-1 $193 $39 $-1 $194 forward single #
loop $-1 $195 $196 $77 #
cone-surface $-1 -14.646730780228594 23.854662258503026 0.90787969005621516 0 -0.51503808176128008 -0.85716729658548041 1 0 0 1 I I -0.70710678118654735 0.70710678118654768 1 forward I I I I #
loop $-1 $-1 $197 $49 #
coedge $-1 $124 $124 $198 $199 reversed $78 $-1 #
face $-1 $200 $201 $30 $-1 $202 reversed single #
loop $-1 $-1 $203 $80 #
plane-surface $-1 0 -31.324422074482449 0 0 1 0 0 0 1 forward_v I I I I #
coedge $-1 $204 $205 $206 $207 forward $81 $-1 #
coedge $-1 $208 $83 $209 $210 forward $51 $-1 #
coedge $-1 $83 $208 $211 $212 forward $51 $-1 #
coedge $-1 $213 $214 $83 $132 reversed $215 $-1 #
edge $-1 $216 -31.324422074482449 $217 31.324422074482449 $131 $218 forward 7 unknown #
face $-1 $219 $220 $31 $-1 $221 reversed single #
loop $-1 $-1 $222 $84 #
plane-surface $-1 0 0 7.2712389520163869 0 0 1 1 0 0 forward_v I I I I #
coedge $-1 $223 $224 $225 $226 reversed $85 $-1 #
coedge $-1 $227 $87 $228 $229 reversed $54 $-1 #
coedge $-1 $87 $227 $230 $231 reversed $54 $-1 #
coedge $-1 $224 $223 $87 $140 reversed $85 $-1 #
edge $-1 $232 -7.2712389520163869 $233 7.2712389520163869 $139 $234 forward 7 unknown #
face $-1 $235 $236 $32 $-1 $237 forward single #
loop $-1 $-1 $147 $88 #
plane-surface $-1 0 0 7.2712389520163869 0 0 1 1 0 0 forward_v I I I I #
coedge $-1 $238 $239 $240 $241 reversed $89 $-1 #
coedge $-1 $146 $91 $242 $243 reversed $57 $-1 #
coedge $-1 $91 $145 $238 $244 reversed $57 $-1 #
coedge $-1 $240 $245 $91 $148 forward $142 $-1 #
edge $-1 $246 24.931877231109432 $247 26.99675913132139 $147 $248 forward 7 unknown #
loop $-1 $-1 $154 $92 #
plane-surface $-1 -30.183173264872202 -31.324422074482456 3.9667370387527328 0 -0.84804810408105047 0.52991925155115449 1 0 0 forward_v I I I I #
loop $-1 $-1 $249 $59 #
coedge $-1 $152 $152 $153 $250 reversed $93 $-1 #
coedge $-1 $153 $153 $152 $250 forward $95 $-1 #
coedge $-1 $154 $154 $96 $155 forward $149 $-1 #
edge $-1 $251 1.5048612952828829e-015 $251 6.2831853071796022 $154 $252 forward 7 unknown #
loop $-1 $-1 $161 $97 #
plane-surface $-1 -30.183173264872202 -31.324422074482456 3.9667370387527328 0 -0.84804810408105047 0.52991925155115449 1 0 0 forward_v I I I I #
loop $-1 $-1 $253 $62 #
coedge $-1 $159 $159 $160 $254 reversed $98 $-1 #
coedge $-1 $160 $160 $159 $254 forward $100 $-1 #
coedge $-1 $161 $161 $101 $162 forward $156 $-1 #
edge $-1 $255 1.5048612952828829e-015 $255 6.2831853071796022 $161 $256 forward 7 unknown #
face $-1 $257 $258 $35 $-1 $259 reversed single #
loop $-1 $-1 $169 $102 #
plane-surface $-1 0 -31.324422074482449 0 0 1 0 0 0 1 forward_v I I I I #
coedge $-1 $260 $261 $262 $263 reversed $103 $-1 #
coedge $-1 $168 $105 $264 $265 reversed $66 $-1 #
coedge $-1 $105 $167 $260 $266 reversed $66 $-1 #
coedge $-1 $262 $267 $105 $170 forward $164 $-1 #
edge $-1 $268 20.078130350860292 $269 23.382632264123934 $169 $270 forward 7 unknown #
loop $-1 $-1 $176 $106 #
plane-surface $-1 39.566207064180098 -31.324422074482456 3.9667370387527328 0 -0.84804810408105047 0.52991925155115449 1 0 0 forward_v I I I I #
loop $-1 $-1 $271 $68 #
coedge $-1 $174 $174 $175 $272 reversed $107 $-1 #
coedge $-1 $175 $175 $174 $272 forward $109 $-1 #
coedge $-1 $176 $176 $110 $177 forward $171 $-1 #
edge $-1 $273 1.5048612952828829e-015 $273 6.2831853071796022 $176 $274 forward 7 unknown #
loop $-1 $-1 $183 $111 #
plane-surface $-1 39.566207064180098 -31.324422074482456 3.9667370387527328 0 -0.84804810408105047 0.52991925155115449 1 0 0 forward_v I I I I #
loop $-1 $-1 $275 $71 #
coedge $-1 $181 $181 $182 $276 reversed $112 $-1 #
coedge $-1 $182 $182 $181 $276 forward $114 $-1 #
coedge $-1 $183 $183 $115 $184 forward $178 $-1 #
edge $-1 $277 1.5048612952828829e-015 $277 6.2831853071796022 $183 $278 forward 7 unknown #
face $-1 $279 $280 $38 $-1 $281 reversed single #
loop $-1 $-1 $282 $116 #
plane-surface $-1 -7.4231217081064891 26.931229366805233 114.74135248719723 -1 0 0 0 0.51503808176128008 0.85716729658548041 forward_v I I I I #
coedge $-1 $283 $284 $285 $286 reversed $117 $-1 #
coedge $-1 $190 $119 $287 $288 reversed $75 $-1 #
coedge $-1 $119 $189 $283 $289 reversed $75 $-1 #
coedge $-1 $285 $290 $119 $192 forward $291 $-1 #
edge $-1 $292 -17.858807391079832 $293 -6.4457904584158818 $191 $294 forward 7 unknown #
loop $-1 $-1 $198 $120 #
plane-surface $-1 -14.646730780228602 -22.376118298890894 32.680146923770963 0 0.51503808176128008 0.85716729658548041 1 0 0 forward_v I I I I #
loop $-1 $-1 $295 $77 #
coedge $-1 $196 $196 $197 $296 reversed $121 $-1 #
coedge $-1 $197 $197 $196 $296 forward $123 $-1 #
coedge $-1 $198 $198 $124 $199 forward $193 $-1 #
edge $-1 $297 -1.4932506820600353e-015 $297 6.2831853071795987 $198 $298 forward 7 unknown #
face $-1 $299 $300 $30 $-1 $301 reversed single #
loop $-1 $-1 $302 $125 #
plane-surface $-1 -47.867671742912073 0 0 1 0 0 0 0 -1 forward_v I I I I #
coedge $-1 $303 $211 $304 $305 forward $126 $-1 #
coedge $-1 $306 $128 $303 $307 forward $81 $-1 #
coedge $-1 $128 $306 $308 $309 forward $81 $-1 #
coedge $-1 $214 $213 $128 $207 reversed $215 $-1 #
edge $-1 $310 -31.324422074482449 $311 31.324422074482449 $206 $312 forward 7 unknown #
coedge $-1 $130 $129 $313 $314 forward $51 $-1 #
coedge $-1 $315 $316 $129 $210 reversed $300 $-1 #
edge $-1 $217 -47.867671742912073 $317 47.867671742912073 $209 $318 forward 7 unknown #
coedge $-1 $203 $319 $130 $212 reversed $126 $-1 #
edge $-1 $320 -47.867671742912073 $216 47.867671742912073 $211 $321 forward 7 unknown #
coedge $-1 $206 $131 $319 $322 forward $215 $-1 #
coedge $-1 $131 $206 $315 $323 reversed $215 $-1 #
loop $-1 $-1 $213 $299 #
vertex $-1 $132 $324 #
vertex $-1 $132 $325 #
straight-curve $-1 47.867671742912073 0 7.2712389520163869 0 1 0 I I #
face $-1 $326 $327 $31 $-1 $328 reversed single #
loop $-1 $-1 $329 $133 #
plane-surface $-1 -47.867671742912073 0 0 1 0 0 0 0 -1 forward_v I I I I #
coedge $-1 $230 $330 $224 $331 forward $134 $-1 #
coedge $-1 $139 $136 $332 $333 reversed $85 $-1 #
coedge $-1 $136 $139 $222 $331 reversed $85 $-1 #
coedge $-1 $334 $335 $136 $226 forward $336 $-1 #
edge $-1 $337 -7.2712389520163869 $338 7.2712389520163869 $225 $339 forward 7 unknown #
coedge $-1 $138 $137 $329 $340 reversed $54 $-1 #
coedge $-1 $332 $341 $137 $229 forward $327 $-1 #
edge $-1 $342 -26.279594321283007 $233 -16.896560521975111 $228 $343 forward 7 unknown #
coedge $-1 $344 $222 $138 $231 forward $134 $-1 #
edge $-1 $232 16.896560521975111 $345 26.279594321283007 $230 $346 forward 7 unknown #
vertex $-1 $231 $347 #
vertex $-1 $229 $348 #
straight-curve $-1 -38.48463794360417 -28.324422074482449 0 0 0 -1 I I #
face $-1 $-1 $349 $32 $-1 $350 reversed single #
loop $-1 $-1 $351 $141 #
plane-surface $-1 -38.48463794360417 -29.824422074482449 0 -1 0 0 0 0 1 forward_v I I I I #
coedge $-1 $352 $144 $146 $244 forward $89 $-1 #
coedge $-1 $144 $352 $351 $353 reversed $89 $-1 #
coedge $-1 $354 $147 $144 $241 forward $142 $-1 #
edge $-1 $247 6.7901219537041335 $355 23.393051311168069 $240 $356 forward 7 unknown #
coedge $-1 $357 $358 $145 $243 forward $349 $-1 #
edge $-1 $359 -23.382632264123934 $246 -20.078130350860292 $242 $360 forward 7 unknown #
edge $-1 $247 -3.8965972535772959 $359 -1.3557137071152151e-014 $146 $361 forward 7 unknown #
coedge $-1 $147 $354 $357 $362 forward $142 $-1 #
vertex $-1 $148 $363 #
vertex $-1 $148 $364 #
straight-curve $-1 -21.881708586140235 -56.256299305591881 7.271238952016386 0 1 0 I I #
coedge $-1 $249 $249 $-1 $365 reversed $151 $-1 #
edge $-1 $366 0 $366 6.2831853071796004 $152 $367 forward 7 unknown #
vertex $-1 $155 $368 #
ellipse-curve $-1 -33.740943841471619 -30.291981124376473 5.6189879953845612 0 -0.84804810408105047 0.52991925155115449 0.5 0 0 1 I I #
coedge $-1 $253 $253 $-1 $369 reversed $158 $-1 #
edge $-1 $370 0 $370 6.2831853071796004 $159 $371 forward 7 unknown #
vertex $-1 $162 $372 #
ellipse-curve $-1 -26.625402688272786 -30.291981124376473 5.6189879953845612 0 -0.84804810408105047 0.52991925155115449 0.5 0 0 1 I I #
face $-1 $-1 $373 $35 $-1 $374 forward single #
loop $-1 $-1 $375 $163 #
plane-surface $-1 47.867671742912073 0 0 -1 0 0 0 0 1 forward_v I I I I #
coedge $-1 $376 $166 $168 $266 forward $103 $-1 #
coedge $-1 $166 $376 $375 $377 reversed $103 $-1 #
coedge $-1 $378 $169 $166 $263 forward $164 $-1 #
edge $-1 $269 11.481638853358081 $379 28.084568210822017 $262 $380 forward 7 unknown #
coedge $-1 $381 $382 $167 $265 forward $373 $-1 #
edge $-1 $383 -26.99675913132139 $268 -24.931877231109432 $264 $384 forward 7 unknown #
edge $-1 $269 1.3557137071152151e-014 $383 3.8965972535772959 $168 $385 forward 7 unknown #
coedge $-1 $169 $378 $381 $386 reversed $164 $-1 #
vertex $-1 $386 $387 #
vertex $-1 $170 $388 #
straight-curve $-1 31.26474238544813 -31.324422074482449 27.349369302876678 0 0 -1 I I #
coedge $-1 $271 $271 $-1 $389 reversed $173 $-1 #
edge $-1 $390 0 $390 6.2831853071796004 $174 $391 forward 7 unknown #
vertex $-1 $177 $392 #
ellipse-curve $-1 36.008436487580688 -30.291981124376473 5.6189879953845612 0 -0.84804810408105047 0.52991925155115449 0.5 0 0 1 I I #
coedge $-1 $275 $275 $-1 $393 reversed $180 $-1 #
edge $-1 $394 0 $394 6.2831853071796004 $181 $395 forward 7 unknown #
vertex $-1 $184 $396 #
ellipse-curve $-1 43.123977640779522 -30.291981124376473 5.6189879953845612 0 -0.84804810408105047 0.52991925155115449 0.5 0 0 1 I I #
face $-1 $-1 $291 $38 $-1 $397 forward single #
loop $-1 $-1 $398 $185 #
plane-surface $-1 0 31.324422074482449 0 0 -1 0 0 0 -1 forward_v I I I I #
coedge $-1 $399 $400 $401 $402 reversed $186 $-1 #
coedge $-1 $403 $188 $190 $289 forward $117 $-1 #
coedge $-1 $188 $403 $399 $404 forward $117 $-1 #
coedge $-1 $401 $191 $188 $286 forward $291 $-1 #
edge $-1 $293 -14.546974462236413 $405 -0.099756317992188315 $285 $406 forward 7 unknown #
coedge $-1 $407 $408 $189 $288 forward $280 $-1 #
edge $-1 $409 -56.957069834871938 $292 -50.099437291582227 $287 $410 forward 7 unknown #
edge $-1 $293 49.334037368389374 $409 62.648844148964905 $190 $411 forward 7 unknown #
coedge $-1 $191 $401 $407 $412 forward $291 $-1 #
loop $-1 $-1 $401 $279 #
vertex $-1 $288 $413 #
vertex $-1 $192 $414 #
straight-curve $-1 -21.870339852350714 13.465614683402617 7.2712389520163896 0 -1 0 I I #
coedge $-1 $295 $295 $-1 $415 reversed $195 $-1 #
edge $-1 $416 0 $416 6.2831853071796004 $196 $417 forward 7 unknown #
vertex $-1 $199 $418 #
ellipse-curve $-1 -14.646730780228594 25.617913608150484 3.8424226803715267 0 0.51503808176128008 0.85716729658548041 2 0 0 1 I I #
face $-1 $-1 $215 $30 $-1 $419 reversed single #
loop $-1 $-1 $315 $200 #
plane-surface $-1 0 31.324422074482449 0 0 -1 0 0 0 -1 forward_v I I I I #
coedge $-1 $420 $313 $316 $421 forward $201 $-1 #
coedge $-1 $319 $203 $204 $307 reversed $126 $-1 #
coedge $-1 $313 $420 $203 $305 reversed $201 $-1 #
edge $-1 $320 -7.2712389520163869 $422 7.2712389520163869 $304 $423 forward 7 unknown #
coedge $-1 $205 $204 $420 $424 forward $81 $-1 #
edge $-1 $311 -47.867671742912073 $422 47.867671742912073 $303 $425 forward 7 unknown #
coedge $-1 $316 $315 $205 $309 reversed $300 $-1 #
edge $-1 $426 -47.867671742912073 $310 47.867671742912073 $308 $427 forward 7 unknown #
vertex $-1 $207 $428 #
vertex $-1 $322 $429 #
straight-curve $-1 47.867671742912073 0 -7.2712389520163869 0 -1 0 I I #
coedge $-1 $302 $304 $208 $314 reversed $201 $-1 #
edge $-1 $317 -31.324422074482449 $320 31.324422074482449 $313 $430 forward 7 unknown #
coedge $-1 $308 $209 $214 $323 forward $300 $-1 #
coedge $-1 $209 $308 $302 $421 reversed $300 $-1 #
vertex $-1 $210 $431 #
straight-curve $-1 0 31.324422074482449 7.2712389520163869 -1 0 0 I I #
coedge $-1 $211 $303 $213 $322 reversed $126 $-1 #
vertex $-1 $314 $432 #
straight-curve $-1 0 -31.324422074482449 7.2712389520163869 1 0 0 I I #
edge $-1 $216 -7.2712389520163869 $311 7.2712389520163869 $213 $433 forward 7 unknown #
edge $-1 $217 -7.2712389520163869 $310 7.2712389520163869 $214 $434 forward 7 unknown #
point $-1 47.867671742912073 -31.324422074482449 7.2712389520163869 #
point $-1 47.867671742912073 31.324422074482449 7.2712389520163869 #
face $-1 $-1 $336 $31 $-1 $435 reversed single #
loop $-1 $-1 $332 $219 #
plane-surface $-1 0 0 -7.2712389520163869 0 0 1 1 0 0 forward_v I I I I #
coedge $-1 $436 $437 $227 $340 forward $220 $-1 #
coedge $-1 $222 $344 $334 $438 forward $134 $-1 #
edge $-1 $338 -16.412211037241224 $232 -13.412211037241224 $222 $439 forward 7 unknown #
coedge $-1 $440 $228 $223 $333 forward $327 $-1 #
edge $-1 $233 13.412211037241224 $337 16.412211037241224 $332 $441 forward 7 unknown #
coedge $-1 $442 $225 $330 $438 reversed $336 $-1 #
coedge $-1 $225 $442 $440 $443 reversed $336 $-1 #
loop $-1 $-1 $225 $326 #
vertex $-1 $443 $444 #
vertex $-1 $226 $445 #
straight-curve $-1 -38.48463794360417 -31.324422074482449 0 0 0 1 I I #
edge $-1 $345 -7.2712389520163869 $342 7.2712389520163869 $329 $446 forward 7 unknown #
coedge $-1 $228 $440 $436 $447 forward $327 $-1 #
vertex $-1 $229 $448 #
straight-curve $-1 -21.588077421629059 -28.324422074482449 -7.2712389520163869 1 0 0 I I #
coedge $-1 $330 $230 $437 $449 forward $134 $-1 #
vertex $-1 $449 $450 #
straight-curve $-1 -21.588077421629059 -28.324422074482449 7.2712389520163869 -1 0 0 I I #
point $-1 -38.48463794360417 -28.324422074482449 7.2712389520163869 #
point $-1 -38.48463794360417 -28.324422074482449 -7.2712389520163869 #
loop $-1 $-1 $242 $235 #
plane-surface $-1 0 -31.324422074482449 0 0 1 0 0 0 1 forward_v I I I I #
coedge $-1 $451 $452 $239 $353 forward $236 $-1 #
coedge $-1 $239 $238 $358 $453 reversed $89 $-1 #
edge $-1 $355 -5.1811497274650948 $454 -1.2845524738878127 $351 $455 forward 7 unknown #
coedge $-1 $245 $240 $452 $456 forward $142 $-1 #
vertex $-1 $456 $457 #
straight-curve $-1 -15.091586632436101 -29.259540174270491 7.2712389520163869 -1 0 0 I I #
coedge $-1 $458 $242 $245 $362 reversed $349 $-1 #
coedge $-1 $242 $458 $352 $453 forward $349 $-1 #
vertex $-1 $243 $459 #
straight-curve $-1 -21.881708586140235 -31.324422074482449 27.349369302876678 0 0 1 I I #
straight-curve $-1 -21.881708586140235 -31.324422074482456 3.9667370387527328 0 -0.52991925155115449 -0.84804810408105047 I I #
edge $-1 $460 -38.48463794360417 $246 -21.881708586140235 $357 $461 forward 7 unknown #
point $-1 -21.881708586140235 -31.324422074482449 7.2712389520163869 #
point $-1 -21.881708586140235 -29.259540174270491 7.2712389520163869 #
edge $-1 $462 1 $462 0 $249 $-1 forward 7 unknown #
vertex $-1 $250 $463 #
ellipse-curve $-1 -33.740943841471619 -29.262376654130414 4.9756197387480618 0 -0.84804810408105047 0.52991925155115449 0.5 0 0 1 I I #
point $-1 -33.240943841471619 -30.291981124376466 5.6189879953845576 #
edge $-1 $464 1 $464 0 $253 $-1 forward 7 unknown #
vertex $-1 $254 $465 #
ellipse-curve $-1 -26.625402688272786 -29.262376654130414 4.9756197387480618 0 -0.84804810408105047 0.52991925155115449 0.5 0 0 1 I I #
point $-1 -26.125402688272786 -30.291981124376466 5.6189879953845576 #
loop $-1 $-1 $264 $257 #
plane-surface $-1 0 0 7.2712389520163869 0 0 1 1 0 0 forward_v I I I I #
coedge $-1 $466 $467 $261 $377 forward $258 $-1 #
coedge $-1 $261 $260 $382 $468 reversed $103 $-1 #
edge $-1 $379 -6.6177152379399224 $469 -2.7211179843626403 $375 $470 forward 7 unknown #
coedge $-1 $267 $262 $467 $471 reversed $164 $-1 #
vertex $-1 $377 $472 #
straight-curve $-1 19.783103532090049 -31.324422074482449 3.9667370387527399 1 0 0 I I #
coedge $-1 $473 $264 $267 $386 forward $373 $-1 #
coedge $-1 $264 $473 $376 $468 forward $373 $-1 #
vertex $-1 $265 $474 #
straight-curve $-1 31.26474238544813 -56.256299305591881 7.271238952016386 0 -1 0 I I #
straight-curve $-1 31.26474238544813 -31.324422074482456 3.9667370387527328 0 0.52991925155115449 0.84804810408105047 I I #
edge $-1 $268 31.26474238544813 $475 47.867671742912073 $267 $476 forward 7 unknown #
point $-1 31.26474238544813 -31.324422074482449 7.2712389520163869 #
point $-1 31.26474238544813 -31.324422074482449 3.9667370387527443 #
edge $-1 $477 1 $477 0 $271 $-1 forward 7 unknown #
vertex $-1 $272 $478 #
ellipse-curve $-1 36.008436487580688 -29.262376654130414 4.9756197387480618 0 -0.84804810408105047 0.52991925155115449 0.5 0 0 1 I I #
point $-1 36.508436487580688 -30.291981124376466 5.6189879953845576 #
edge $-1 $479 1 $479 0 $275 $-1 forward 7 unknown #
vertex $-1 $276 $480 #
ellipse-curve $-1 43.123977640779522 -29.262376654130414 4.9756197387480618 0 -0.84804810408105047 0.52991925155115449 0.5 0 0 1 I I #
point $-1 43.623977640779522 -30.291981124376466 5.6189879953845576 #
plane-surface $-1 0 0 7.2712389520163869 0 0 1 1 0 0 forward_v I I I I #
coedge $-1 $408 $407 $400 $481 forward $280 $-1 #
coedge $-1 $400 $282 $284 $404 reversed $186 $-1 #
coedge $-1 $282 $399 $398 $481 reversed $186 $-1 #
coedge $-1 $290 $285 $282 $402 forward $291 $-1 #
edge $-1 $405 6.4457904584158818 $482 17.858807391079832 $401 $483 forward 7 unknown #
coedge $-1 $284 $283 $408 $484 reversed $117 $-1 #
edge $-1 $485 -62.648844148964905 $405 -49.334037368389374 $399 $486 forward 7 unknown #
vertex $-1 $286 $487 #
straight-curve $-1 -7.3233653901143008 19.911405141818513 7.2712389520163825 1 0 0 I I #
coedge $-1 $398 $287 $290 $412 reversed $280 $-1 #
coedge $-1 $287 $398 $403 $484 forward $280 $-1 #
vertex $-1 $288 $488 #
straight-curve $-1 -21.870339852350714 31.324422074482449 57.370676243598616 0 0 1 I I #
straight-curve $-1 -21.870339852350714 -22.376118298890894 32.680146923770963 0 0.85716729658548041 -0.51503808176128008 I I #
edge $-1 $482 7.4231217081064891 $292 21.870339852350714 $407 $489 forward 7 unknown #
point $-1 -21.870339852350714 31.324422074482449 7.2712389520163869 #
point $-1 -21.870339852350714 19.911405141818499 7.271238952016386 #
edge $-1 $490 1 $490 0 $295 $-1 forward 7 unknown #
vertex $-1 $296 $491 #
ellipse-curve $-1 -14.646730780228594 24.369700340264306 1.7650469866416958 0 0.51503808176128008 0.85716729658548041 2 0 0 1 I I #
point $-1 -12.646730780228594 25.617913608150495 3.8424226803715502 #
plane-surface $-1 47.867671742912073 0 0 -1 0 0 0 0 1 forward_v I I I I #
coedge $-1 $304 $302 $306 $424 reversed $201 $-1 #
edge $-1 $317 -7.2712389520163869 $426 7.2712389520163869 $316 $492 forward 7 unknown #
vertex $-1 $424 $493 #
straight-curve $-1 -47.867671742912073 -31.324422074482449 0 0 0 -1 I I #
edge $-1 $422 -31.324422074482449 $426 31.324422074482449 $420 $494 forward 7 unknown #
straight-curve $-1 0 -31.324422074482449 -7.2712389520163869 -1 0 0 I I #
vertex $-1 $309 $495 #
straight-curve $-1 0 31.324422074482449 -7.2712389520163869 1 0 0 I I #
point $-1 47.867671742912073 31.324422074482449 -7.2712389520163869 #
point $-1 47.867671742912073 -31.324422074482449 -7.2712389520163869 #
straight-curve $-1 -47.867671742912073 0 7.2712389520163869 0 -1 0 I I #
point $-1 -47.867671742912073 31.324422074482449 7.2712389520163869 #
point $-1 -47.867671742912073 -31.324422074482449 7.2712389520163869 #
straight-curve $-1 47.867671742912073 -31.324422074482449 0 0 0 -1 I I #
straight-curve $-1 47.867671742912073 31.324422074482449 0 0 0 -1 I I #
plane-surface $-1 0 -31.324422074482449 0 0 1 0 0 0 1 forward_v I I I I #
coedge $-1 $496 $329 $341 $447 reversed $220 $-1 #
coedge $-1 $329 $496 $344 $449 reversed $220 $-1 #
edge $-1 $497 -47.867671742912073 $338 -38.48463794360417 $334 $498 forward 7 unknown #
straight-curve $-1 -38.48463794360417 -14.912211037241224 7.2712389520163869 0 1 0 I I #
coedge $-1 $341 $332 $335 $443 forward $327 $-1 #
straight-curve $-1 -38.48463794360417 -14.912211037241224 -7.2712389520163869 0 -1 0 I I #
coedge $-1 $335 $334 $496 $499 forward $336 $-1 #
edge $-1 $337 38.48463794360417 $500 47.867671742912073 $335 $501 forward 7 unknown #
point $-1 -38.48463794360417 -31.324422074482449 -7.2712389520163869 #
point $-1 -38.48463794360417 -31.324422074482449 7.2712389520163869 #
straight-curve $-1 -47.867671742912073 -28.324422074482449 0 0 0 -1 I I #
edge $-1 $500 -31.324422074482449 $342 -28.324422074482449 $436 $502 forward 7 unknown #
point $-1 -47.867671742912066 -28.324422074482449 -7.2712389520163869 #
edge $-1 $345 28.324422074482449 $497 31.324422074482449 $437 $503 forward 7 unknown #
point $-1 -47.867671742912066 -28.324422074482449 7.2712389520163869 #
coedge $-1 $452 $351 $458 $504 reversed $236 $-1 #
coedge $-1 $351 $451 $354 $456 reversed $236 $-1 #
edge $-1 $454 -23.393051311168069 $359 -6.7901219537041335 $358 $505 forward 7 unknown #
vertex $-1 $353 $506 #
straight-curve $-1 -38.48463794360417 -32.005131160023261 2.8773747486795607 0 -0.52991925155115449 -0.84804810408105047 I I #
edge $-1 $355 14.347329137029266 $460 16.412211037241224 $354 $507 forward 7 unknown #
point $-1 -38.48463794360417 -29.259540174270491 7.2712389520163869 #
coedge $-1 $358 $357 $451 $504 forward $349 $-1 #
point $-1 -21.881708586140235 -31.324422074482449 3.9667370387527443 #
vertex $-1 $362 $508 #
straight-curve $-1 0 -31.324422074482449 7.2712389520163869 1 0 0 I I #
vertex $-1 $365 $509 #
point $-1 -33.240943841471619 -29.262376654130414 4.9756197387480618 #
vertex $-1 $369 $510 #
point $-1 -26.125402688272786 -29.262376654130414 4.9756197387480618 #
coedge $-1 $467 $375 $473 $511 reversed $258 $-1 #
coedge $-1 $375 $466 $378 $471 forward $258 $-1 #
edge $-1 $469 -28.084568210822017 $383 -11.481638853358081 $382 $512 forward 7 unknown #
vertex $-1 $377 $513 #
straight-curve $-1 47.867671742912073 -27.817567368614654 9.5788778996359731 0 0.52991925155115449 0.84804810408105047 I I #
edge $-1 $475 -7.2712389520163869 $379 -3.9667370387527443 $467 $514 forward 7 unknown #
point $-1 47.867671742912066 -31.324422074482449 3.9667370387527443 #
coedge $-1 $382 $381 $466 $511 forward $373 $-1 #
point $-1 31.26474238544813 -29.259540174270491 7.2712389520163869 #
vertex $-1 $511 $515 #
straight-curve $-1 0 -31.324422074482449 7.2712389520163869 1 0 0 I I #
vertex $-1 $389 $516 #
point $-1 36.508436487580688 -29.262376654130414 4.9756197387480618 #
vertex $-1 $393 $517 #
point $-1 43.623977640779522 -29.262376654130414 4.9756197387480618 #
edge $-1 $482 50.099437291582227 $485 56.957069834871938 $398 $518 forward 7 unknown #
vertex $-1 $412 $519 #
straight-curve $-1 -7.4231217081064891 13.465614683402617 7.2712389520163896 0 1 0 I I #
edge $-1 $485 0.099756317992188315 $409 14.546974462236413 $408 $520 forward 7 unknown #
vertex $-1 $484 $521 #
straight-curve $-1 -7.4231217081064891 -22.376118298890894 32.680146923770963 0 -0.85716729658548041 0.51503808176128008 I I #
point $-1 -7.4231217081064891 19.911405141818499 7.271238952016386 #
point $-1 -21.870339852350714 31.324422074482449 0.41360640872667886 #
straight-curve $-1 0 31.324422074482449 7.2712389520163869 -1 0 0 I I #
vertex $-1 $415 $522 #
point $-1 -12.646730780228594 24.369700340264306 1.7650469866416958 #
straight-curve $-1 -47.867671742912073 31.324422074482449 0 0 0 -1 I I #
point $-1 -47.867671742912073 -31.324422074482449 -7.2712389520163869 #
straight-curve $-1 -47.867671742912073 0 -7.2712389520163869 0 1 0 I I #
point $-1 -47.867671742912073 31.324422074482449 -7.2712389520163869 #
coedge $-1 $437 $436 $442 $499 reversed $220 $-1 #
vertex $-1 $449 $523 #
straight-curve $-1 0 -31.324422074482449 7.2712389520163869 1 0 0 I I #
edge $-1 $497 -7.2712389520163869 $500 7.2712389520163869 $496 $524 forward 7 unknown #
vertex $-1 $447 $525 #
straight-curve $-1 0 -31.324422074482449 -7.2712389520163869 -1 0 0 I I #
straight-curve $-1 -47.867671742912073 0 -7.2712389520163869 0 1 0 I I #
straight-curve $-1 -47.867671742912073 0 7.2712389520163869 0 -1 0 I I #
edge $-1 $460 -7.2712389520163869 $454 -3.9667370387527443 $458 $526 forward 7 unknown #
straight-curve $-1 -15.091586632436101 -31.324422074482449 3.9667370387527399 1 0 0 I I #
point $-1 -38.48463794360417 -31.324422074482449 3.9667370387527443 #
straight-curve $-1 -38.48463794360417 -14.912211037241224 7.2712389520163869 0 -1 0 I I #
point $-1 -38.48463794360417 -31.324422074482449 7.2712389520163869 #
point $-1 -33.740943841471619 -28.838352602089891 4.7106601129724854 #
point $-1 -26.625402688272786 -28.838352602089891 4.7106601129724854 #
edge $-1 $475 -31.324422074482449 $469 -29.259540174270491 $466 $527 forward 7 unknown #
straight-curve $-1 19.783103532090049 -29.259540174270491 7.2712389520163869 -1 0 0 I I #
point $-1 47.867671742912066 -29.259540174270491 7.2712389520163869 #
straight-curve $-1 47.867671742912073 -31.324422074482449 0 0 0 -1 I I #
point $-1 47.867671742912073 -31.324422074482449 7.2712389520163869 #
point $-1 36.008436487580688 -28.838352602089891 4.7106601129724854 #
point $-1 43.123977640779522 -28.838352602089891 4.7106601129724854 #
straight-curve $-1 -7.4231217081064891 31.324422074482449 57.370676243598616 0 0 -1 I I #
point $-1 -7.4231217081064891 31.324422074482449 7.2712389520163869 #
straight-curve $-1 -7.3233653901143008 31.324422074482449 0.41360640872668242 -1 0 0 I I #
point $-1 -7.4231217081064891 31.324422074482449 0.41360640872667886 #
point $-1 -14.646730780228594 23.339624176741747 0.050712393470734418 #
point $-1 -47.867671742912073 -31.324422074482449 7.2712389520163869 #
straight-curve $-1 -47.867671742912073 -31.324422074482449 0 0 0 -1 I I #
point $-1 -47.867671742912073 -31.324422074482449 -7.2712389520163869 #
straight-curve $-1 -38.48463794360417 -31.324422074482449 0 0 0 -1 I I #
straight-curve $-1 47.867671742912073 0 7.2712389520163869 0 1 0 I I #
End-of-ACIS-data 