500 0 4 0           
7 Unknown 11 ACIS 5.0 NT 24 Fri Mar 26 02:53:46 1999 
-1 9.9999999999999995e-007 1e-010 
body $-1 $4 $-1 $5 #
body $-1 $6 $-1 $7 #
body $-1 $8 $-1 $9 #
body $-1 $10 $-1 $11 #
lump $-1 $-1 $12 $0 #
transform $-1 1 0 0 0 1 0 0 0 1 56.465346232490006 36.106493118243762 16.578551904739555 1 rotate no_reflect no_shear #
lump $-1 $-1 $13 $1 #
transform $-1 1 0 0 0 1 0 0 0 1 56.465346232490006 36.106493118243762 16.578551904739555 1 rotate no_reflect no_shear #
lump $-1 $-1 $14 $2 #
transform $-1 1 0 0 0 1 0 0 0 1 56.465346232490006 36.106493118243762 16.578551904739555 1 rotate no_reflect no_shear #
lump $-1 $-1 $15 $3 #
transform $-1 1 0 0 0 1 0 0 0 1 56.465346232490006 36.106493118243762 16.578551904739555 1 rotate no_reflect no_shear #
shell $-1 $-1 $-1 $16 $-1 $4 #
shell $-1 $-1 $-1 $17 $-1 $6 #
shell $-1 $-1 $-1 $18 $-1 $8 #
shell $-1 $-1 $-1 $19 $-1 $10 #
face $-1 $20 $21 $12 $-1 $22 forward single #
face $-1 $23 $24 $13 $-1 $25 forward single #
face $-1 $26 $27 $14 $-1 $28 reversed single #
face $-1 $29 $30 $15 $-1 $31 forward single #
face $-1 $32 $33 $12 $-1 $34 reversed single #
loop $-1 $-1 $35 $16 #
plane-surface $-1 0 0 16.578551904739555 0 0 1 1 0 0 forward_v I I I I #
face $-1 $36 $37 $13 $-1 $38 reversed single #
loop $-1 $-1 $39 $17 #
plane-surface $-1 0 -36.106493118243762 0 0 1 0 0 0 1 forward_v I I I I #
face $-1 $40 $41 $14 $-1 $42 reversed single #
loop $-1 $-1 $43 $18 #
plane-surface $-1 -140.3892069106202 -7.9847763282377393 84.266478959953972 0 1 0 -0.74314483375859142 0 0.66913059716165679 forward_v I I I I #
face $-1 $44 $45 $15 $-1 $46 forward single #
loop $-1 $47 $48 $19 #
cone-surface $-1 -51.42505264772398 -1.9735629042030496 11.294758140120019 0.74314483375859142 0 -0.66913059716165679 1.0036958957424851 0 1.1147172506378871 1 I I 0 1 1.5 forward I I I I #
face $-1 $49 $50 $12 $-1 $51 reversed single #
loop $-1 $-1 $52 $20 #
plane-surface $-1 0 0 -16.578551904739555 0 0 1 1 0 0 forward_v I I I I #
coedge $-1 $53 $54 $55 $56 forward $21 $-1 #
face $-1 $57 $58 $13 $-1 $59 reversed single #
loop $-1 $-1 $60 $23 #
plane-surface $-1 0 0 -16.578551904739555 0 0 1 1 0 0 forward_v I I I I #
coedge $-1 $61 $62 $63 $64 forward $24 $-1 #
face $-1 $65 $66 $14 $-1 $67 reversed single #
loop $-1 $-1 $68 $26 #
plane-surface $-1 -56.46534623249002 -1.9735629042030496 8.70109727298248 -0.74314483375859142 0 0.66913059716165679 0.66913059716165679 0 0.74314483375859142 forward_v I I I I #
coedge $-1 $69 $70 $71 $72 reversed $27 $-1 #
face $-1 $-1 $73 $15 $-1 $74 forward single #
loop $-1 $75 $76 $29 #
cone-surface $-1 -49.373846353976873 -1.9735629042030496 9.4478437435077822 0.74314483375859142 0 -0.66913059716165679 0.50184794787124254 0 0.55735862531894353 1 I I -0.70710678118654757 0.70710678118654757 0.75 forward I I I I #
loop $-1 $-1 $77 $19 #
coedge $-1 $48 $48 $78 $79 reversed $30 $-1 #
face $-1 $80 $81 $12 $-1 $82 reversed single #
loop $-1 $-1 $83 $32 #
plane-surface $-1 0 -36.106493118243762 0 0 1 0 0 0 1 forward_v I I I I #
coedge $-1 $84 $85 $86 $87 forward $33 $-1 #
coedge $-1 $88 $35 $89 $90 forward $21 $-1 #
coedge $-1 $35 $88 $91 $92 forward $21 $-1 #
coedge $-1 $93 $94 $35 $56 reversed $95 $-1 #
edge $-1 $96 -36.106493118243762 $97 36.106493118243762 $55 $98 forward 7 unknown #
face $-1 $99 $100 $13 $-1 $101 forward single #
loop $-1 $-1 $102 $36 #
plane-surface $-1 56.465346232490006 0 0 -1 0 0 0 0 1 forward_v I I I I #
coedge $-1 $103 $104 $105 $106 forward $37 $-1 #
coedge $-1 $105 $39 $102 $107 reversed $24 $-1 #
coedge $-1 $39 $105 $108 $109 reversed $24 $-1 #
coedge $-1 $110 $111 $39 $64 reversed $100 $-1 #
edge $-1 $112 -56.465346232490006 $113 56.465346232490006 $63 $114 forward 7 unknown #
face $-1 $115 $116 $14 $-1 $117 forward single #
loop $-1 $-1 $118 $40 #
plane-surface $-1 -140.3892069106202 4.0376505198316401 84.266478959953972 0 -1 0 0.74314483375859142 0 -0.66913059716165679 forward_v I I I I #
coedge $-1 $119 $120 $121 $122 reversed $41 $-1 #
coedge $-1 $70 $43 $123 $124 reversed $27 $-1 #
coedge $-1 $43 $69 $119 $125 reversed $27 $-1 #
coedge $-1 $121 $126 $43 $72 forward $116 $-1 #
edge $-1 $127 13.729257222820095 $128 20.822149055495807 $71 $129 forward 7 unknown #
loop $-1 $-1 $78 $44 #
plane-surface $-1 -56.46534623249002 -1.9735629042030496 8.70109727298248 -0.74314483375859142 0 0.66913059716165679 0.66913059716165679 0 0.74314483375859142 forward_v I I I I #
loop $-1 $-1 $130 $29 #
coedge $-1 $76 $76 $77 $131 reversed $45 $-1 #
coedge $-1 $77 $77 $76 $131 forward $47 $-1 #
coedge $-1 $78 $78 $48 $79 forward $73 $-1 #
edge $-1 $132 0 $132 6.2831853071796004 $78 $133 forward 7 unknown #
face $-1 $134 $135 $12 $-1 $136 reversed single #
loop $-1 $-1 $137 $49 #
plane-surface $-1 -56.465346232490006 0 0 1 0 0 0 0 -1 forward_v I I I I #
coedge $-1 $91 $138 $93 $139 reversed $50 $-1 #
coedge $-1 $140 $52 $138 $141 forward $33 $-1 #
coedge $-1 $52 $140 $142 $143 forward $33 $-1 #
coedge $-1 $94 $93 $52 $87 reversed $95 $-1 #
edge $-1 $144 -36.106493118243762 $145 36.106493118243762 $86 $146 forward 7 unknown #
coedge $-1 $54 $53 $147 $148 forward $21 $-1 #
coedge $-1 $149 $150 $53 $90 reversed $135 $-1 #
edge $-1 $97 -56.465346232490006 $151 56.465346232490006 $89 $152 forward 7 unknown #
coedge $-1 $153 $83 $54 $92 reversed $50 $-1 #
edge $-1 $154 -56.465346232490006 $96 56.465346232490006 $91 $155 forward 7 unknown #
coedge $-1 $86 $55 $83 $139 forward $95 $-1 #
coedge $-1 $55 $86 $149 $156 reversed $95 $-1 #
loop $-1 $-1 $93 $134 #
vertex $-1 $56 $157 #
vertex $-1 $56 $158 #
straight-curve $-1 56.465346232490006 0 16.578551904739555 0 1 0 I I #
face $-1 $159 $160 $13 $-1 $161 reversed single #
loop $-1 $-1 $111 $57 #
plane-surface $-1 0 -44.565576913573494 -10.02332761847024 0 0 1 1 0 0 forward_v I I I I #
coedge $-1 $162 $163 $61 $107 forward $58 $-1 #
coedge $-1 $164 $60 $163 $165 forward $37 $-1 #
coedge $-1 $60 $164 $166 $167 forward $37 $-1 #
coedge $-1 $62 $61 $60 $106 reversed $24 $-1 #
edge $-1 $168 -56.465346232490006 $169 56.465346232490006 $60 $170 forward 7 unknown #
edge $-1 $169 -16.578551904739555 $113 -10.02332761847024 $102 $171 forward 7 unknown #
coedge $-1 $166 $172 $62 $109 forward $173 $-1 #
edge $-1 $112 10.02332761847024 $168 16.578551904739555 $108 $174 forward 7 unknown #
coedge $-1 $175 $63 $172 $176 forward $100 $-1 #
coedge $-1 $63 $175 $162 $177 forward $100 $-1 #
vertex $-1 $109 $178 #
vertex $-1 $177 $179 #
straight-curve $-1 0 -36.106493118243762 -10.02332761847024 1 0 0 I I #
face $-1 $-1 $180 $14 $-1 $181 reversed single #
loop $-1 $-1 $71 $65 #
plane-surface $-1 0 0 16.578551904739555 0 0 1 1 0 0 forward_v I I I I #
coedge $-1 $182 $183 $184 $185 reversed $66 $-1 #
coedge $-1 $186 $68 $70 $125 forward $41 $-1 #
coedge $-1 $68 $186 $182 $187 forward $41 $-1 #
coedge $-1 $184 $71 $68 $122 forward $116 $-1 #
edge $-1 $128 -6.9979948761362145 $188 5.0244319719331649 $121 $189 forward 7 unknown #
coedge $-1 $190 $191 $69 $124 forward $180 $-1 #
edge $-1 $192 -33.432142206994492 $127 -25.554687575237431 $123 $193 forward 7 unknown #
edge $-1 $128 -10.600160660359304 $192 -2.1389731374768986e-014 $70 $194 forward 7 unknown #
coedge $-1 $71 $184 $190 $195 forward $116 $-1 #
vertex $-1 $124 $196 #
vertex $-1 $72 $197 #
straight-curve $-1 -70.194603455310101 -7.9847763282377393 16.578551904739555 1 0 0 I I #
coedge $-1 $130 $130 $-1 $198 reversed $75 $-1 #
edge $-1 $199 0 $199 6.2831853071796004 $76 $200 forward 7 unknown #
vertex $-1 $79 $201 #
ellipse-curve $-1 -52.918900316152154 -1.9735629042030496 12.639824588861023 -0.74314483375859142 0 0.66913059716165679 1.0036958957424851 0 1.1147172506378871 1 I I #
face $-1 $-1 $95 $12 $-1 $202 reversed single #
loop $-1 $-1 $149 $80 #
plane-surface $-1 0 36.106493118243762 0 0 -1 0 0 0 -1 forward_v I I I I #
coedge $-1 $203 $147 $150 $204 forward $81 $-1 #
coedge $-1 $83 $153 $84 $141 reversed $50 $-1 #
edge $-1 $96 -16.578551904739555 $145 16.578551904739555 $93 $205 forward 7 unknown #
coedge $-1 $85 $84 $203 $206 forward $33 $-1 #
edge $-1 $145 -56.465346232490006 $207 56.465346232490006 $138 $208 forward 7 unknown #
coedge $-1 $150 $149 $85 $143 reversed $135 $-1 #
edge $-1 $209 -56.465346232490006 $144 56.465346232490006 $142 $210 forward 7 unknown #
vertex $-1 $87 $211 #
vertex $-1 $139 $212 #
straight-curve $-1 56.465346232490006 0 -16.578551904739555 0 -1 0 I I #
coedge $-1 $137 $213 $88 $148 reversed $81 $-1 #
edge $-1 $151 -36.106493118243762 $154 36.106493118243762 $147 $214 forward 7 unknown #
coedge $-1 $142 $89 $94 $156 forward $135 $-1 #
coedge $-1 $89 $142 $137 $204 reversed $135 $-1 #
vertex $-1 $90 $215 #
straight-curve $-1 0 36.106493118243762 16.578551904739555 -1 0 0 I I #
coedge $-1 $138 $91 $213 $216 forward $50 $-1 #
vertex $-1 $148 $217 #
straight-curve $-1 0 -36.106493118243762 16.578551904739555 1 0 0 I I #
edge $-1 $97 -16.578551904739555 $144 16.578551904739555 $94 $218 forward 7 unknown #
point $-1 56.465346232490006 -36.106493118243762 16.578551904739555 #
point $-1 56.465346232490006 36.106493118243762 16.578551904739555 #
face $-1 $-1 $173 $13 $-1 $219 reversed single #
loop $-1 $-1 $220 $99 #
plane-surface $-1 0 -53.024660708903227 -13.300939761604898 0 1 0 0 0 1 forward_v I I I I #
coedge $-1 $221 $102 $111 $177 reversed $58 $-1 #
coedge $-1 $102 $221 $103 $165 reversed $58 $-1 #
coedge $-1 $104 $103 $222 $223 forward $37 $-1 #
edge $-1 $169 36.106493118243762 $224 53.024660708903227 $163 $225 forward 7 unknown #
coedge $-1 $226 $108 $104 $167 reversed $173 $-1 #
edge $-1 $227 -53.024660708903227 $168 -36.106493118243762 $166 $228 forward 7 unknown #
vertex $-1 $109 $229 #
vertex $-1 $165 $230 #
straight-curve $-1 0 -36.106493118243762 -16.578551904739555 1 0 0 I I #
straight-curve $-1 56.465346232490006 -36.106493118243762 0 0 0 1 I I #
coedge $-1 $108 $226 $110 $176 reversed $173 $-1 #
loop $-1 $-1 $108 $159 #
straight-curve $-1 -56.465346232490006 -36.106493118243762 0 0 0 -1 I I #
coedge $-1 $111 $110 $231 $232 forward $100 $-1 #
edge $-1 $112 -8.4590837953297324 $233 8.4590837953297324 $172 $234 forward 7 unknown #
edge $-1 $235 -8.4590837953297324 $113 8.4590837953297324 $162 $236 forward 7 unknown #
point $-1 -56.465346232490006 -36.106493118243762 -10.02332761847024 #
point $-1 56.465346232490006 -36.106493118243762 -10.02332761847024 #
loop $-1 $-1 $123 $115 #
plane-surface $-1 -56.465346232490006 0 0 1 0 0 0 0 -1 forward_v I I I I #
coedge $-1 $183 $118 $120 $187 reversed $66 $-1 #
coedge $-1 $118 $182 $237 $238 reversed $66 $-1 #
coedge $-1 $126 $121 $118 $185 forward $116 $-1 #
edge $-1 $188 -20.822149055495807 $239 -13.729257222820095 $184 $240 forward 7 unknown #
coedge $-1 $120 $119 $191 $241 reversed $41 $-1 #
edge $-1 $242 2.1389731374768986e-014 $188 10.600160660359304 $182 $243 forward 7 unknown #
vertex $-1 $122 $244 #
straight-curve $-1 -49.372454399814295 -0.98678145210152479 16.578551904739555 0 1 0 I I #
coedge $-1 $237 $123 $126 $195 reversed $180 $-1 #
coedge $-1 $123 $237 $186 $241 forward $180 $-1 #
vertex $-1 $124 $245 #
straight-curve $-1 -56.465346232490006 -7.9847763282377393 42.133239479976986 0 0 1 I I #
straight-curve $-1 -56.46534623249002 -7.9847763282377393 8.70109727298248 -0.66913059716165679 0 -0.74314483375859142 I I #
edge $-1 $239 -4.0376505198316401 $127 7.9847763282377393 $190 $246 forward 7 unknown #
point $-1 -56.465346232490006 -7.9847763282377393 16.578551904739555 #
point $-1 -49.372454399814295 -7.9847763282377393 16.578551904739555 #
edge $-1 $247 1 $247 0 $130 $-1 forward 7 unknown #
vertex $-1 $131 $248 #
ellipse-curve $-1 -49.931204979295813 -1.9735629042030496 9.9496916913790248 -0.74314483375859142 0 0.66913059716165679 1.0036958957424851 0 1.1147172506378871 1 I I #
point $-1 -51.915204420409651 -1.9735629042030496 13.754541839498899 #
plane-surface $-1 56.465346232490006 0 0 -1 0 0 0 0 1 forward_v I I I I #
coedge $-1 $213 $137 $140 $206 reversed $81 $-1 #
edge $-1 $151 -16.578551904739555 $209 16.578551904739555 $150 $249 forward 7 unknown #
straight-curve $-1 56.465346232490006 -36.106493118243762 0 0 0 -1 I I #
edge $-1 $207 -36.106493118243762 $209 36.106493118243762 $203 $250 forward 7 unknown #
vertex $-1 $206 $251 #
straight-curve $-1 0 -36.106493118243762 -16.578551904739555 -1 0 0 I I #
vertex $-1 $143 $252 #
straight-curve $-1 0 36.106493118243762 -16.578551904739555 1 0 0 I I #
point $-1 56.465346232490006 36.106493118243762 -16.578551904739555 #
point $-1 56.465346232490006 -36.106493118243762 -16.578551904739555 #
coedge $-1 $147 $203 $153 $216 reversed $81 $-1 #
straight-curve $-1 -56.465346232490006 0 16.578551904739555 0 -1 0 I I #
point $-1 -56.465346232490006 36.106493118243762 16.578551904739555 #
edge $-1 $154 -16.578551904739555 $207 16.578551904739555 $213 $253 forward 7 unknown #
point $-1 -56.465346232490006 -36.106493118243762 16.578551904739555 #
straight-curve $-1 56.465346232490006 36.106493118243762 0 0 0 -1 I I #
plane-surface $-1 -56.465346232490006 0 0 1 0 0 0 0 -1 forward_v I I I I #
coedge $-1 $222 $231 $226 $254 forward $160 $-1 #
coedge $-1 $163 $162 $255 $256 forward $58 $-1 #
coedge $-1 $255 $220 $164 $223 reversed $160 $-1 #
edge $-1 $224 -56.465346232490006 $227 56.465346232490006 $222 $257 forward 7 unknown #
vertex $-1 $256 $258 #
straight-curve $-1 56.465346232490006 0 -16.578551904739555 0 -1 0 I I #
coedge $-1 $172 $166 $220 $254 reversed $173 $-1 #
vertex $-1 $167 $259 #
straight-curve $-1 -56.465346232490006 0 -16.578551904739555 0 1 0 I I #
point $-1 -56.465346232490006 -36.106493118243762 -16.578551904739555 #
point $-1 56.465346232490006 -36.106493118243762 -16.578551904739555 #
coedge $-1 $220 $255 $175 $232 reversed $160 $-1 #
edge $-1 $233 -56.465346232490006 $235 56.465346232490006 $231 $260 forward 7 unknown #
vertex $-1 $176 $261 #
straight-curve $-1 -56.465346232490006 -44.565576913573494 -10.02332761847024 0 -1 0 I I #
vertex $-1 $177 $262 #
straight-curve $-1 56.465346232490006 -44.565576913573494 -10.02332761847024 0 1 0 I I #
coedge $-1 $191 $190 $183 $238 forward $180 $-1 #
edge $-1 $239 25.554687575237431 $242 33.432142206994492 $237 $263 forward 7 unknown #
vertex $-1 $195 $264 #
straight-curve $-1 -70.194603455310101 4.0376505198316401 16.578551904739555 -1 0 0 I I #
edge $-1 $242 -5.0244319719331649 $192 6.9979948761362145 $191 $265 forward 7 unknown #
vertex $-1 $241 $266 #
straight-curve $-1 -56.46534623249002 4.0376505198316401 8.70109727298248 0.66913059716165679 0 0.74314483375859142 I I #
point $-1 -49.372454399814295 4.0376505198316401 16.578551904739555 #
point $-1 -56.465346232490006 -7.9847763282377393 8.701097272982496 #
straight-curve $-1 -56.465346232490006 0 16.578551904739555 0 -1 0 I I #
vertex $-1 $198 $267 #
point $-1 -48.927509083553332 -1.9735629042030496 11.064408942016911 #
straight-curve $-1 -56.465346232490006 36.106493118243762 0 0 0 -1 I I #
straight-curve $-1 -56.465346232490006 0 -16.578551904739555 0 1 0 I I #
point $-1 -56.465346232490006 -36.106493118243762 -16.578551904739555 #
point $-1 -56.465346232490006 36.106493118243762 -16.578551904739555 #
straight-curve $-1 -56.465346232490006 -36.106493118243762 0 0 0 -1 I I #
edge $-1 $233 -3.2776121431346574 $227 3.2776121431346574 $226 $268 forward 7 unknown #
coedge $-1 $231 $222 $221 $256 reversed $160 $-1 #
edge $-1 $235 -3.2776121431346574 $224 3.2776121431346574 $221 $269 forward 7 unknown #
straight-curve $-1 0 -53.024660708903227 -16.578551904739555 -1 0 0 I I #
point $-1 56.465346232490006 -53.024660708903227 -16.578551904739555 #
point $-1 -56.465346232490006 -53.024660708903227 -16.578551904739555 #
straight-curve $-1 0 -53.024660708903227 -10.02332761847024 1 0 0 I I #
point $-1 -56.465346232490006 -53.024660708903227 -10.02332761847024 #
point $-1 56.465346232490006 -53.024660708903227 -10.02332761847024 #
straight-curve $-1 -56.465346232490006 4.0376505198316401 42.133239479976986 0 0 -1 I I #
point $-1 -56.465346232490006 4.0376505198316401 16.578551904739555 #
straight-curve $-1 -56.465346232490006 -0.98678145210152479 8.7010972729824942 0 -1 0 I I #
point $-1 -56.465346232490006 4.0376505198316401 8.701097272982496 #
point $-1 -48.816487728657933 -1.9735629042030496 8.9459957956365397 #
straight-curve $-1 -56.465346232490006 -53.024660708903227 -13.300939761604898 0 0 -1 I I #
straight-curve $-1 56.465346232490006 -53.024660708903227 -13.300939761604898 0 0 -1 I I #
End-of-ACIS-data 