500 0 8 0           
7 Unknown 11 ACIS 5.0 NT 24 Fri Mar 26 03:24:28 1999 
-1 9.9999999999999995e-007 1e-010 
body $-1 $8 $-1 $9 #
body $-1 $10 $-1 $11 #
body $-1 $12 $-1 $13 #
body $-1 $14 $-1 $15 #
body $-1 $16 $-1 $17 #
body $-1 $18 $-1 $19 #
body $-1 $20 $-1 $21 #
body $-1 $22 $-1 $23 #
lump $-1 $-1 $24 $0 #
transform $-1 1 0 0 0 1 0 0 0 1 68.658101138340399 29.635063381752673 14.029602761826288 1 rotate no_reflect no_shear #
lump $-1 $-1 $25 $1 #
transform $-1 1 0 0 0 1 0 0 0 1 68.658101138340399 29.635063381752673 14.029602761826288 1 rotate no_reflect no_shear #
lump $-1 $-1 $26 $2 #
transform $-1 1 0 0 0 1 0 0 0 1 68.658101138340399 29.635063381752673 14.029602761826288 1 rotate no_reflect no_shear #
lump $-1 $-1 $27 $3 #
transform $-1 1 0 0 0 1 0 0 0 1 68.658101138340399 29.635063381752673 14.029602761826288 1 rotate no_reflect no_shear #
lump $-1 $-1 $28 $4 #
transform $-1 1 0 0 0 1 0 0 0 1 68.658101138340399 29.635063381752673 14.029602761826288 1 rotate no_reflect no_shear #
lump $-1 $-1 $29 $5 #
transform $-1 1 0 0 0 1 0 0 0 1 68.658101138340399 29.635063381752673 14.029602761826288 1 rotate no_reflect no_shear #
lump $-1 $-1 $30 $6 #
transform $-1 1 0 0 0 1 0 0 0 1 68.658101138340399 29.635063381752673 14.029602761826288 1 rotate no_reflect no_shear #
lump $-1 $-1 $31 $7 #
transform $-1 1 0 0 0 1 0 0 0 1 68.658101138340399 29.635063381752673 14.029602761826288 1 rotate no_reflect no_shear #
shell $-1 $-1 $-1 $32 $-1 $8 #
shell $-1 $-1 $-1 $33 $-1 $10 #
shell $-1 $-1 $-1 $34 $-1 $12 #
shell $-1 $-1 $-1 $35 $-1 $14 #
shell $-1 $-1 $-1 $36 $-1 $16 #
shell $-1 $-1 $-1 $37 $-1 $18 #
shell $-1 $-1 $-1 $38 $-1 $20 #
shell $-1 $-1 $-1 $39 $-1 $22 #
face $-1 $40 $41 $24 $-1 $42 forward single #
face $-1 $43 $44 $25 $-1 $45 reversed single #
face $-1 $46 $47 $26 $-1 $48 forward single #
face $-1 $49 $50 $27 $-1 $51 forward single #
face $-1 $52 $53 $28 $-1 $54 forward single #
face $-1 $55 $56 $29 $-1 $57 reversed single #
face $-1 $58 $59 $30 $-1 $60 forward single #
face $-1 $61 $62 $31 $-1 $63 forward single #
face $-1 $64 $65 $24 $-1 $66 reversed single #
loop $-1 $-1 $67 $32 #
plane-surface $-1 0 0 14.029602761826288 0 0 1 1 0 0 forward_v I I I I #
face $-1 $68 $69 $25 $-1 $70 reversed single #
loop $-1 $-1 $71 $33 #
plane-surface $-1 -11.29498082540443 79.937063102106777 151.55698456511311 1 0 0 0 -0.68199836817093118 -0.7313536940579346 forward_v I I I I #
face $-1 $72 $73 $26 $-1 $74 forward single #
loop $-1 $75 $76 $34 #
cone-surface $-1 -3.7434487907801639 26.795986598839207 11.234133017123462 0 -0.68199836817093118 -0.7313536940579346 1 0 0 1 I I 0 1 1 forward I I I I #
face $-1 $77 $78 $27 $-1 $79 forward single #
loop $-1 $80 $81 $35 #
cone-surface $-1 7.5838492611562316 26.795986598839207 11.234133017123462 0 -0.68199836817093118 -0.7313536940579346 1 0 0 1 I I 0 1 1 forward I I I I #
face $-1 $82 $83 $28 $-1 $84 forward single #
loop $-1 $85 $86 $36 #
cone-surface $-1 18.911147313092627 26.795986598839207 11.234133017123462 0 -0.68199836817093118 -0.7313536940579346 1 0 0 1 I I 0 1 1 forward I I I I #
face $-1 $87 $88 $29 $-1 $89 reversed single #
loop $-1 $-1 $90 $37 #
plane-surface $-1 56.793221909364533 -29.635063381752687 0.27871062614191544 0 -0.80901700255871778 0.5877852410284794 1 0 0 forward_v I I I I #
face $-1 $91 $92 $30 $-1 $93 forward single #
loop $-1 $94 $95 $38 #
cone-surface $-1 51.708273668374872 -23.910670238187315 6.6244423099617409 0 0.80901700255871778 -0.5877852410284794 1.5 0 0 1 I I 0 1 1.5 forward I I I I #
face $-1 $96 $97 $31 $-1 $98 forward single #
loop $-1 $99 $100 $39 #
cone-surface $-1 61.878170150354194 -23.910670238187315 6.6244423099617409 0 0.80901700255871778 -0.5877852410284794 1.5 0 0 1 I I 0 1 1.5 forward I I I I #
face $-1 $101 $102 $24 $-1 $103 reversed single #
loop $-1 $-1 $104 $40 #
plane-surface $-1 0 0 -14.029602761826288 0 0 1 1 0 0 forward_v I I I I #
coedge $-1 $105 $106 $107 $108 forward $41 $-1 #
face $-1 $109 $110 $25 $-1 $111 reversed single #
loop $-1 $-1 $112 $43 #
plane-surface $-1 7.5838492611562316 -13.712362774019027 51.130272776056046 0 0.68199836817093118 0.7313536940579346 1 0 0 forward_v I I I I #
coedge $-1 $113 $114 $115 $116 reversed $44 $-1 #
face $-1 $-1 $117 $26 $-1 $118 forward single #
loop $-1 $119 $120 $46 #
cone-surface $-1 -3.7434487907801639 25.396825329796002 9.7337162852742356 0 -0.68199836817093118 -0.7313536940579346 0.5 0 0 1 I I -0.70710678118654746 0.70710678118654746 0.5 forward I I I I #
loop $-1 $-1 $121 $34 #
coedge $-1 $76 $76 $122 $123 reversed $47 $-1 #
face $-1 $-1 $124 $27 $-1 $125 forward single #
loop $-1 $126 $127 $49 #
cone-surface $-1 7.5838492611562316 25.396825329796002 9.7337162852742356 0 -0.68199836817093118 -0.7313536940579346 0.5 0 0 1 I I -0.70710678118654746 0.70710678118654746 0.5 forward I I I I #
loop $-1 $-1 $128 $35 #
coedge $-1 $81 $81 $129 $130 reversed $50 $-1 #
face $-1 $-1 $131 $28 $-1 $132 forward single #
loop $-1 $133 $134 $52 #
cone-surface $-1 18.911147313092627 25.396825329796002 9.7337162852742356 0 -0.68199836817093118 -0.7313536940579346 0.5 0 0 1 I I -0.70710678118654746 0.70710678118654746 0.5 forward I I I I #
loop $-1 $-1 $135 $36 #
coedge $-1 $86 $86 $136 $137 reversed $53 $-1 #
face $-1 $138 $139 $29 $-1 $140 reversed single #
loop $-1 $-1 $141 $55 #
plane-surface $-1 44.92834268038866 -140.72620575037956 80.991147678456173 1 0 0 0 0.80901700255871778 -0.5877852410284794 forward_v I I I I #
coedge $-1 $142 $143 $144 $145 reversed $56 $-1 #
face $-1 $-1 $146 $30 $-1 $147 forward single #
loop $-1 $148 $149 $58 #
cone-surface $-1 51.708273668374872 -22.574818163739259 5.6538889951680193 0 0.80901700255871778 -0.5877852410284794 0.75 0 0 1 I I -0.70710678118654757 0.70710678118654757 0.75 forward I I I I #
loop $-1 $-1 $150 $38 #
coedge $-1 $95 $95 $151 $152 reversed $59 $-1 #
face $-1 $-1 $153 $31 $-1 $154 forward single #
loop $-1 $155 $156 $61 #
cone-surface $-1 61.878170150354194 -22.574818163739259 5.6538889951680193 0 0.80901700255871778 -0.5877852410284794 0.75 0 0 1 I I -0.70710678118654757 0.70710678118654757 0.75 forward I I I I #
loop $-1 $-1 $157 $39 #
coedge $-1 $100 $100 $158 $159 reversed $62 $-1 #
face $-1 $160 $161 $24 $-1 $162 reversed single #
loop $-1 $-1 $163 $64 #
plane-surface $-1 0 -29.635063381752673 0 0 1 0 0 0 1 forward_v I I I I #
coedge $-1 $164 $165 $166 $167 forward $65 $-1 #
coedge $-1 $168 $67 $169 $170 forward $41 $-1 #
coedge $-1 $67 $168 $171 $172 forward $41 $-1 #
coedge $-1 $173 $174 $67 $108 reversed $175 $-1 #
edge $-1 $176 -29.635063381752673 $177 29.635063381752673 $107 $178 forward 7 unknown #
face $-1 $179 $180 $25 $-1 $181 reversed single #
loop $-1 $-1 $182 $68 #
plane-surface $-1 26.462679347716893 79.937063102106777 151.55698456511311 -1 0 0 0 0.68199836817093118 0.7313536940579346 forward_v I I I I #
coedge $-1 $183 $184 $185 $186 reversed $69 $-1 #
coedge $-1 $114 $71 $187 $188 reversed $44 $-1 #
coedge $-1 $71 $113 $183 $189 reversed $44 $-1 #
coedge $-1 $185 $190 $71 $116 forward $191 $-1 #
edge $-1 $192 10.333468169300716 $193 13.895297565212168 $115 $194 forward 7 unknown #
loop $-1 $-1 $122 $72 #
plane-surface $-1 7.5838492611562316 -13.712362774019027 51.130272776056046 0 0.68199836817093118 0.7313536940579346 1 0 0 forward_v I I I I #
loop $-1 $-1 $195 $46 #
coedge $-1 $120 $120 $121 $196 reversed $73 $-1 #
coedge $-1 $121 $121 $120 $196 forward $75 $-1 #
coedge $-1 $122 $122 $76 $123 forward $117 $-1 #
edge $-1 $197 -1.7534534140041362e-016 $197 6.2831853071796004 $122 $198 forward 7 unknown #
loop $-1 $-1 $129 $77 #
plane-surface $-1 7.5838492611562316 -13.712362774019027 51.130272776056046 0 0.68199836817093118 0.7313536940579346 1 0 0 forward_v I I I I #
loop $-1 $-1 $199 $49 #
coedge $-1 $127 $127 $128 $200 reversed $78 $-1 #
coedge $-1 $128 $128 $127 $200 forward $80 $-1 #
coedge $-1 $129 $129 $81 $130 forward $124 $-1 #
edge $-1 $201 -1.7534534140041362e-016 $201 6.2831853071796004 $129 $202 forward 7 unknown #
loop $-1 $-1 $136 $82 #
plane-surface $-1 7.5838492611562316 -13.712362774019027 51.130272776056046 0 0.68199836817093118 0.7313536940579346 1 0 0 forward_v I I I I #
loop $-1 $-1 $203 $52 #
coedge $-1 $134 $134 $135 $204 reversed $83 $-1 #
coedge $-1 $135 $135 $134 $204 forward $85 $-1 #
coedge $-1 $136 $136 $86 $137 forward $131 $-1 #
edge $-1 $205 -1.7534534140041362e-016 $205 6.2831853071796004 $136 $206 forward 7 unknown #
face $-1 $207 $208 $29 $-1 $209 forward single #
loop $-1 $-1 $210 $87 #
plane-surface $-1 0 -29.635063381752673 0 0 1 0 0 0 1 forward_v I I I I #
coedge $-1 $211 $212 $213 $214 reversed $88 $-1 #
coedge $-1 $215 $90 $216 $217 reversed $56 $-1 #
coedge $-1 $90 $215 $211 $218 forward $56 $-1 #
coedge $-1 $213 $219 $90 $145 forward $208 $-1 #
edge $-1 $220 -40.261490183658147 $221 -16.531731725706393 $144 $222 forward 7 unknown #
loop $-1 $-1 $151 $91 #
plane-surface $-1 56.793221909364533 -29.635063381752687 0.27871062614191544 0 -0.80901700255871778 0.5877852410284794 1 0 0 forward_v I I I I #
loop $-1 $-1 $223 $58 #
coedge $-1 $149 $149 $150 $224 reversed $92 $-1 #
coedge $-1 $150 $150 $149 $224 forward $94 $-1 #
coedge $-1 $151 $151 $95 $152 forward $146 $-1 #
edge $-1 $225 -1.0479641404981444e-015 $225 6.2831853071795996 $151 $226 forward 7 unknown #
loop $-1 $-1 $158 $96 #
plane-surface $-1 56.793221909364533 -29.635063381752687 0.27871062614191544 0 -0.80901700255871778 0.5877852410284794 1 0 0 forward_v I I I I #
loop $-1 $-1 $227 $61 #
coedge $-1 $156 $156 $157 $228 reversed $97 $-1 #
coedge $-1 $157 $157 $156 $228 forward $99 $-1 #
coedge $-1 $158 $158 $100 $159 forward $153 $-1 #
edge $-1 $229 -1.0479641404981444e-015 $229 6.2831853071795996 $158 $230 forward 7 unknown #
face $-1 $231 $232 $24 $-1 $233 reversed single #
loop $-1 $-1 $234 $101 #
plane-surface $-1 -68.658101138340399 0 0 1 0 0 0 0 -1 forward_v I I I I #
coedge $-1 $235 $171 $236 $237 forward $102 $-1 #
coedge $-1 $238 $104 $235 $239 forward $65 $-1 #
coedge $-1 $104 $238 $240 $241 forward $65 $-1 #
coedge $-1 $174 $173 $104 $167 reversed $175 $-1 #
edge $-1 $242 -29.635063381752673 $243 29.635063381752673 $166 $244 forward 7 unknown #
coedge $-1 $106 $105 $245 $246 forward $41 $-1 #
coedge $-1 $247 $248 $105 $170 reversed $232 $-1 #
edge $-1 $177 -68.658101138340399 $249 68.658101138340399 $169 $250 forward 7 unknown #
coedge $-1 $163 $251 $106 $172 reversed $102 $-1 #
edge $-1 $252 -68.658101138340399 $176 68.658101138340399 $171 $253 forward 7 unknown #
coedge $-1 $166 $107 $251 $254 forward $175 $-1 #
coedge $-1 $107 $166 $247 $255 reversed $175 $-1 #
loop $-1 $-1 $173 $231 #
vertex $-1 $108 $256 #
vertex $-1 $108 $257 #
straight-curve $-1 68.658101138340399 0 14.029602761826288 0 1 0 I I #
face $-1 $-1 $191 $25 $-1 $258 forward single #
loop $-1 $-1 $259 $109 #
plane-surface $-1 0 29.635063381752673 0 0 -1 0 0 0 -1 forward_v I I I I #
coedge $-1 $260 $261 $262 $263 reversed $110 $-1 #
coedge $-1 $264 $112 $114 $189 forward $69 $-1 #
coedge $-1 $112 $264 $260 $265 forward $69 $-1 #
coedge $-1 $262 $115 $112 $186 forward $191 $-1 #
edge $-1 $193 -15.086905455982546 $266 22.670754717138777 $185 $267 forward 7 unknown #
coedge $-1 $268 $269 $113 $188 forward $180 $-1 #
edge $-1 $270 -65.070349240495403 $192 -61.748889520730266 $187 $271 forward 7 unknown #
edge $-1 $193 54.399939568376077 $270 59.27012676350536 $114 $272 forward 7 unknown #
coedge $-1 $115 $262 $268 $273 forward $191 $-1 #
loop $-1 $-1 $262 $179 #
vertex $-1 $188 $274 #
vertex $-1 $116 $275 #
straight-curve $-1 -11.29498082540443 39.968531551053388 14.029602761826283 0 -1 0 I I #
coedge $-1 $195 $195 $-1 $276 reversed $119 $-1 #
edge $-1 $277 0 $277 6.2831853071796004 $120 $278 forward 7 unknown #
vertex $-1 $123 $279 #
ellipse-curve $-1 -3.7434487907801639 27.854148683796947 12.368872901943725 0 0.68199836817093118 0.7313536940579346 1 0 0 1 I I #
coedge $-1 $199 $199 $-1 $280 reversed $126 $-1 #
edge $-1 $281 0 $281 6.2831853071796004 $127 $282 forward 7 unknown #
vertex $-1 $130 $283 #
ellipse-curve $-1 7.5838492611562316 27.854148683796947 12.368872901943725 0 0.68199836817093118 0.7313536940579346 1 0 0 1 I I #
coedge $-1 $203 $203 $-1 $284 reversed $133 $-1 #
edge $-1 $285 0 $285 6.2831853071796004 $134 $286 forward 7 unknown #
vertex $-1 $137 $287 #
ellipse-curve $-1 18.911147313092627 27.854148683796947 12.368872901943725 0 0.68199836817093118 0.7313536940579346 1 0 0 1 I I #
face $-1 $-1 $288 $29 $-1 $289 reversed single #
loop $-1 $-1 $213 $138 #
plane-surface $-1 0 0 14.029602761826288 0 0 1 1 0 0 forward_v I I I I #
coedge $-1 $290 $291 $212 $292 forward $139 $-1 #
coedge $-1 $212 $141 $143 $218 reversed $88 $-1 #
coedge $-1 $141 $211 $210 $292 reversed $88 $-1 #
coedge $-1 $293 $144 $141 $214 forward $208 $-1 #
edge $-1 $221 -50.718647135509777 $294 -40.728039493437109 $213 $295 forward 7 unknown #
coedge $-1 $143 $142 $290 $296 reversed $56 $-1 #
coedge $-1 $297 $298 $142 $217 forward $288 $-1 #
edge $-1 $299 -8.5967856186975613 $220 8.4002516403386895 $216 $300 forward 7 unknown #
edge $-1 $301 2.4161062406544664e-014 $221 16.997037259036276 $211 $302 forward 7 unknown #
coedge $-1 $144 $293 $297 $303 forward $208 $-1 #
vertex $-1 $217 $304 #
vertex $-1 $145 $305 #
straight-curve $-1 28.396610954682266 -19.644455739680005 14.029602761826288 -1 0 0 I I #
coedge $-1 $223 $223 $-1 $306 reversed $148 $-1 #
edge $-1 $307 0 $307 6.2831853071796004 $149 $308 forward 7 unknown #
vertex $-1 $152 $309 #
ellipse-curve $-1 51.708273668374872 -24.639759560716339 7.1541566939841097 0 -0.80901700255871778 0.5877852410284794 1.5 0 0 1 I I #
coedge $-1 $227 $227 $-1 $310 reversed $155 $-1 #
edge $-1 $311 0 $311 6.2831853071796004 $156 $312 forward 7 unknown #
vertex $-1 $159 $313 #
ellipse-curve $-1 61.878170150354194 -24.639759560716339 7.1541566939841097 0 -0.80901700255871778 0.5877852410284794 1.5 0 0 1 I I #
face $-1 $-1 $175 $24 $-1 $314 reversed single #
loop $-1 $-1 $247 $160 #
plane-surface $-1 0 29.635063381752673 0 0 -1 0 0 0 -1 forward_v I I I I #
coedge $-1 $315 $245 $248 $316 forward $161 $-1 #
coedge $-1 $251 $163 $164 $239 reversed $102 $-1 #
coedge $-1 $245 $315 $163 $237 reversed $161 $-1 #
edge $-1 $252 -14.029602761826288 $317 14.029602761826288 $236 $318 forward 7 unknown #
coedge $-1 $165 $164 $315 $319 forward $65 $-1 #
edge $-1 $243 -68.658101138340399 $317 68.658101138340399 $235 $320 forward 7 unknown #
coedge $-1 $248 $247 $165 $241 reversed $232 $-1 #
edge $-1 $321 -68.658101138340399 $242 68.658101138340399 $240 $322 forward 7 unknown #
vertex $-1 $167 $323 #
vertex $-1 $254 $324 #
straight-curve $-1 68.658101138340399 0 -14.029602761826288 0 -1 0 I I #
coedge $-1 $234 $236 $168 $246 reversed $161 $-1 #
edge $-1 $249 -29.635063381752673 $252 29.635063381752673 $245 $325 forward 7 unknown #
coedge $-1 $240 $169 $174 $255 forward $232 $-1 #
coedge $-1 $169 $240 $234 $316 reversed $232 $-1 #
vertex $-1 $170 $326 #
straight-curve $-1 0 29.635063381752673 14.029602761826288 -1 0 0 I I #
coedge $-1 $171 $235 $173 $254 reversed $102 $-1 #
vertex $-1 $246 $327 #
straight-curve $-1 0 -29.635063381752673 14.029602761826288 1 0 0 I I #
edge $-1 $176 -14.029602761826288 $243 14.029602761826288 $173 $328 forward 7 unknown #
edge $-1 $177 -14.029602761826288 $242 14.029602761826288 $174 $329 forward 7 unknown #
point $-1 68.658101138340399 -29.635063381752673 14.029602761826288 #
point $-1 68.658101138340399 29.635063381752673 14.029602761826288 #
plane-surface $-1 0 0 14.029602761826288 0 0 1 1 0 0 forward_v I I I I #
coedge $-1 $269 $268 $261 $330 forward $180 $-1 #
coedge $-1 $261 $182 $184 $265 reversed $110 $-1 #
coedge $-1 $182 $260 $259 $330 reversed $110 $-1 #
coedge $-1 $190 $185 $182 $263 forward $191 $-1 #
edge $-1 $266 -13.895297565212168 $331 -10.333468169300716 $262 $332 forward 7 unknown #
coedge $-1 $184 $183 $269 $333 reversed $69 $-1 #
edge $-1 $334 -59.27012676350536 $266 -54.399939568376077 $260 $335 forward 7 unknown #
vertex $-1 $186 $336 #
straight-curve $-1 3.7919246305781158 26.073233985841213 14.029602761826293 1 0 0 I I #
coedge $-1 $259 $187 $190 $273 reversed $180 $-1 #
coedge $-1 $187 $259 $264 $333 forward $180 $-1 #
vertex $-1 $188 $337 #
straight-curve $-1 -11.29498082540443 29.635063381752673 75.778492282556556 0 0 1 I I #
straight-curve $-1 -11.29498082540443 -13.712362774019027 51.130272776056046 0 0.7313536940579346 -0.68199836817093118 I I #
edge $-1 $331 -26.462679347716893 $192 11.29498082540443 $268 $338 forward 7 unknown #
point $-1 -11.29498082540443 29.635063381752673 14.029602761826288 #
point $-1 -11.29498082540443 26.07323398584122 14.02960276182629 #
edge $-1 $339 1 $339 0 $195 $-1 forward 7 unknown #
vertex $-1 $196 $340 #
ellipse-curve $-1 -3.7434487907801639 25.737824513881467 10.099393132303202 0 0.68199836817093118 0.7313536940579346 1 0 0 1 I I #
point $-1 -2.7434487907801639 27.854148683796943 12.368872901943721 #
edge $-1 $341 1 $341 0 $199 $-1 forward 7 unknown #
vertex $-1 $200 $342 #
ellipse-curve $-1 7.5838492611562316 25.737824513881467 10.099393132303202 0 0.68199836817093118 0.7313536940579346 1 0 0 1 I I #
point $-1 8.5838492611562316 27.854148683796943 12.368872901943721 #
edge $-1 $343 1 $343 0 $203 $-1 forward 7 unknown #
vertex $-1 $204 $344 #
ellipse-curve $-1 18.911147313092627 25.737824513881467 10.099393132303202 0 0.68199836817093118 0.7313536940579346 1 0 0 1 I I #
point $-1 19.911147313092627 27.854148683796943 12.368872901943721 #
loop $-1 $-1 $216 $207 #
plane-surface $-1 68.658101138340399 0 0 -1 0 0 0 0 1 forward_v I I I I #
coedge $-1 $345 $210 $215 $296 forward $139 $-1 #
coedge $-1 $210 $345 $293 $346 reversed $139 $-1 #
edge $-1 $294 26.465971077401797 $301 40.21686321308615 $210 $347 forward 7 unknown #
coedge $-1 $219 $213 $291 $346 forward $208 $-1 #
vertex $-1 $346 $348 #
straight-curve $-1 44.92834268038866 -70.363102875189782 14.02960276182629 0 -1 0 I I #
edge $-1 $301 16.531731725706393 $299 40.261490183658147 $290 $349 forward 7 unknown #
coedge $-1 $298 $216 $219 $303 reversed $288 $-1 #
coedge $-1 $216 $297 $345 $350 forward $288 $-1 #
vertex $-1 $296 $351 #
straight-curve $-1 68.658101138340399 -24.581999674796361 7.2336563590205287 0 0.5877852410284794 0.80901700255871778 I I #
vertex $-1 $296 $352 #
straight-curve $-1 44.92834268038866 -29.635063381752687 0.27871062614191544 0 0.5877852410284794 0.80901700255871778 I I #
edge $-1 $353 -29.635063381752673 $220 -19.644455739680005 $297 $354 forward 7 unknown #
point $-1 68.658101138340413 -19.644455739680005 14.029602761826288 #
point $-1 44.92834268038866 -19.644455739680005 14.029602761826288 #
edge $-1 $355 1 $355 0 $223 $-1 forward 7 unknown #
vertex $-1 $224 $356 #
ellipse-curve $-1 51.708273668374872 -23.181580915658298 6.0947279259393792 0 -0.80901700255871778 0.5877852410284794 1.5 0 0 1 I I #
point $-1 53.208273668374872 -24.639759560716332 7.1541566939841026 #
edge $-1 $357 1 $357 0 $227 $-1 forward 7 unknown #
vertex $-1 $228 $358 #
ellipse-curve $-1 61.878170150354194 -23.181580915658298 6.0947279259393792 0 -0.80901700255871778 0.5877852410284794 1.5 0 0 1 I I #
point $-1 63.378170150354194 -24.639759560716332 7.1541566939841026 #
plane-surface $-1 68.658101138340399 0 0 -1 0 0 0 0 1 forward_v I I I I #
coedge $-1 $236 $234 $238 $319 reversed $161 $-1 #
edge $-1 $249 -14.029602761826288 $321 14.029602761826288 $248 $359 forward 7 unknown #
vertex $-1 $319 $360 #
straight-curve $-1 -68.658101138340399 -29.635063381752673 0 0 0 -1 I I #
edge $-1 $317 -29.635063381752673 $321 29.635063381752673 $315 $361 forward 7 unknown #
straight-curve $-1 0 -29.635063381752673 -14.029602761826288 -1 0 0 I I #
vertex $-1 $241 $362 #
straight-curve $-1 0 29.635063381752673 -14.029602761826288 1 0 0 I I #
point $-1 68.658101138340399 29.635063381752673 -14.029602761826288 #
point $-1 68.658101138340399 -29.635063381752673 -14.029602761826288 #
straight-curve $-1 -68.658101138340399 0 14.029602761826288 0 -1 0 I I #
point $-1 -68.658101138340399 29.635063381752673 14.029602761826288 #
point $-1 -68.658101138340399 -29.635063381752673 14.029602761826288 #
straight-curve $-1 68.658101138340399 -29.635063381752673 0 0 0 -1 I I #
straight-curve $-1 68.658101138340399 29.635063381752673 0 0 0 -1 I I #
edge $-1 $331 61.748889520730266 $334 65.070349240495403 $259 $363 forward 7 unknown #
vertex $-1 $273 $364 #
straight-curve $-1 26.462679347716893 39.968531551053388 14.029602761826283 0 1 0 I I #
edge $-1 $334 -22.670754717138777 $270 15.086905455982546 $269 $365 forward 7 unknown #
vertex $-1 $333 $366 #
straight-curve $-1 26.462679347716893 -13.712362774019027 51.130272776056046 0 -0.7313536940579346 0.68199836817093118 I I #
point $-1 26.462679347716893 26.07323398584122 14.02960276182629 #
point $-1 -11.29498082540443 29.635063381752673 10.708143042061153 #
straight-curve $-1 0 29.635063381752673 14.029602761826288 -1 0 0 I I #
vertex $-1 $276 $367 #
point $-1 -2.7434487907801639 25.737824513881467 10.099393132303202 #
vertex $-1 $280 $368 #
point $-1 8.5838492611562316 25.737824513881467 10.099393132303202 #
vertex $-1 $284 $369 #
point $-1 19.911147313092627 25.737824513881467 10.099393132303202 #
coedge $-1 $291 $290 $298 $350 reversed $139 $-1 #
edge $-1 $294 44.92834268038866 $353 68.658101138340399 $291 $370 forward 7 unknown #
straight-curve $-1 44.92834268038866 -29.635063381752673 40.495573839228086 0 0 -1 I I #
point $-1 44.92834268038866 -29.635063381752673 14.029602761826288 #
straight-curve $-1 28.396610954682266 -29.635063381752673 0.2787106261419342 1 0 0 I I #
edge $-1 $353 -14.029602761826288 $299 -0.27871062614193498 $298 $371 forward 7 unknown #
point $-1 68.658101138340413 -29.635063381752673 0.27871062614193498 #
point $-1 44.92834268038866 -29.635063381752673 0.27871062614193498 #
vertex $-1 $303 $372 #
straight-curve $-1 68.658101138340399 0 14.029602761826288 0 1 0 I I #
vertex $-1 $306 $373 #
point $-1 53.208273668374872 -23.181580915658298 6.0947279259393792 #
vertex $-1 $310 $374 #
point $-1 63.378170150354194 -23.181580915658298 6.0947279259393792 #
straight-curve $-1 -68.658101138340399 29.635063381752673 0 0 0 -1 I I #
point $-1 -68.658101138340399 -29.635063381752673 -14.029602761826288 #
straight-curve $-1 -68.658101138340399 0 -14.029602761826288 0 1 0 I I #
point $-1 -68.658101138340399 29.635063381752673 -14.029602761826288 #
straight-curve $-1 26.462679347716893 29.635063381752673 75.778492282556556 0 0 -1 I I #
point $-1 26.462679347716893 29.635063381752673 14.029602761826288 #
straight-curve $-1 3.7919246305781158 29.635063381752669 10.70814304206116 -1 0 0 I I #
point $-1 26.462679347716893 29.635063381752673 10.708143042061153 #
point $-1 -3.7434487907801639 25.055826145710537 9.368039438245269 #
point $-1 7.5838492611562316 25.055826145710537 9.368039438245269 #
point $-1 18.911147313092627 25.055826145710537 9.368039438245269 #
straight-curve $-1 0 -29.635063381752673 14.029602761826288 1 0 0 I I #
straight-curve $-1 68.658101138340399 -29.635063381752673 0 0 0 -1 I I #
point $-1 68.658101138340399 -29.635063381752673 14.029602761826288 #
point $-1 51.708273668374872 -21.96805541182022 5.2130500643966595 #
point $-1 61.878170150354194 -21.96805541182022 5.2130500643966595 #
End-of-ACIS-data 