500 0 7 0           
7 Unknown 11 ACIS 5.0 NT 24 Thu Mar 25 23:32:01 1999 
-1 9.9999999999999995e-007 1e-010 
body $-1 $7 $-1 $8 #
body $-1 $9 $-1 $10 #
body $-1 $11 $-1 $12 #
body $-1 $13 $-1 $14 #
body $-1 $15 $-1 $16 #
body $-1 $17 $-1 $18 #
body $-1 $19 $-1 $20 #
lump $-1 $-1 $21 $0 #
transform $-1 1 0 0 0 1 0 0 0 1 53.17423017059847 30.507471091223845 12.448876772778862 1 rotate no_reflect no_shear #
lump $-1 $-1 $22 $1 #
transform $-1 1 0 0 0 1 0 0 0 1 53.17423017059847 30.507471091223845 12.448876772778862 1 rotate no_reflect no_shear #
lump $-1 $-1 $23 $2 #
transform $-1 1 0 0 0 1 0 0 0 1 53.17423017059847 30.507471091223845 12.448876772778862 1 rotate no_reflect no_shear #
lump $-1 $-1 $24 $3 #
transform $-1 1 0 0 0 1 0 0 0 1 53.17423017059847 30.507471091223845 12.448876772778862 1 rotate no_reflect no_shear #
lump $-1 $-1 $25 $4 #
transform $-1 1 0 0 0 1 0 0 0 1 53.17423017059847 30.507471091223845 12.448876772778862 1 rotate no_reflect no_shear #
lump $-1 $-1 $26 $5 #
transform $-1 1 0 0 0 1 0 0 0 1 53.17423017059847 30.507471091223845 12.448876772778862 1 rotate no_reflect no_shear #
lump $-1 $-1 $27 $6 #
transform $-1 1 0 0 0 1 0 0 0 1 53.17423017059847 30.507471091223845 12.448876772778862 1 rotate no_reflect no_shear #
shell $-1 $-1 $-1 $28 $-1 $7 #
shell $-1 $-1 $-1 $29 $-1 $9 #
shell $-1 $-1 $-1 $30 $-1 $11 #
shell $-1 $-1 $-1 $31 $-1 $13 #
shell $-1 $-1 $-1 $32 $-1 $15 #
shell $-1 $-1 $-1 $33 $-1 $17 #
shell $-1 $-1 $-1 $34 $-1 $19 #
face $-1 $35 $36 $21 $-1 $37 forward single #
face $-1 $38 $39 $22 $-1 $40 forward single #
face $-1 $41 $42 $23 $-1 $43 reversed single #
face $-1 $44 $45 $24 $-1 $46 forward single #
face $-1 $47 $48 $25 $-1 $49 forward single #
face $-1 $50 $51 $26 $-1 $52 reversed single #
face $-1 $53 $54 $27 $-1 $55 forward single #
face $-1 $56 $57 $21 $-1 $58 reversed single #
loop $-1 $-1 $59 $28 #
plane-surface $-1 0 0 12.448876772778862 0 0 1 1 0 0 forward_v I I I I #
face $-1 $60 $61 $22 $-1 $62 reversed single #
loop $-1 $-1 $63 $29 #
plane-surface $-1 -53.17423017059847 0 0 1 0 0 0 0 -1 forward_v I I I I #
face $-1 $64 $65 $23 $-1 $66 reversed single #
loop $-1 $-1 $67 $30 #
plane-surface $-1 -41.772720062060976 32.9809650617714 127.90032661128517 1 0 0 0 -0.51503808176128008 -0.85716729658548041 forward_v I I I I #
face $-1 $68 $69 $24 $-1 $70 forward single #
loop $-1 $71 $72 $31 #
cone-surface $-1 -34.131313804437468 22.145823667645146 4.84395083675071 0 -0.51503808176128008 -0.85716729658548041 3 0 0 1 I I 0 1 3 forward I I I I #
face $-1 $73 $74 $25 $-1 $75 forward single #
loop $-1 $76 $77 $32 #
cone-surface $-1 -22.669204418002202 22.145823667645146 4.84395083675071 0 -0.51503808176128008 -0.85716729658548041 3 0 0 1 I I 0 1 3 forward I I I I #
face $-1 $78 $79 $26 $-1 $80 reversed single #
loop $-1 $-1 $81 $33 #
plane-surface $-1 -3.8485800655005917 -115.44112883316323 71.483746370358475 -1 0 0 0 -0.79863551827123203 0.60181501223851219 forward_v I I I I #
face $-1 $82 $83 $27 $-1 $84 forward single #
loop $-1 $85 $86 $34 #
cone-surface $-1 -9.9618747904785678 -26.739889470911386 8.5364904524639087 0 0.79863551827123203 -0.60181501223851219 1.5 0 0 1 I I 0 1 1.5 forward I I I I #
face $-1 $87 $88 $21 $-1 $89 reversed single #
loop $-1 $-1 $90 $35 #
plane-surface $-1 0 0 -12.448876772778862 0 0 1 1 0 0 forward_v I I I I #
coedge $-1 $91 $92 $93 $94 forward $36 $-1 #
face $-1 $95 $96 $22 $-1 $97 forward single #
loop $-1 $-1 $98 $38 #
plane-surface $-1 0 30.507471091223845 0 0 -1 0 0 0 -1 forward_v I I I I #
coedge $-1 $99 $100 $101 $102 forward $39 $-1 #
face $-1 $103 $104 $23 $-1 $105 reversed single #
loop $-1 $-1 $106 $41 #
plane-surface $-1 -28.400259111219832 -21.792541950624241 36.741904364593211 0 0.51503808176128008 0.85716729658548041 1 0 0 forward_v I I I I #
coedge $-1 $107 $108 $109 $110 reversed $42 $-1 #
face $-1 $-1 $111 $24 $-1 $112 forward single #
loop $-1 $113 $114 $44 #
cone-surface $-1 -34.131313804437468 18.946432315728178 -0.48073044985119928 0 -0.51503808176128008 -0.85716729658548041 1.5 0 0 1 I I -0.70710678118654757 0.70710678118654757 1.5 forward I I I I #
loop $-1 $-1 $115 $31 #
coedge $-1 $72 $72 $116 $117 reversed $45 $-1 #
face $-1 $-1 $118 $25 $-1 $119 forward single #
loop $-1 $120 $121 $47 #
cone-surface $-1 -22.669204418002202 18.946432315728178 -0.48073044985119928 0 -0.51503808176128008 -0.85716729658548041 1.5 0 0 1 I I -0.70710678118654757 0.70710678118654757 1.5 forward I I I I #
loop $-1 $-1 $122 $32 #
coedge $-1 $77 $77 $123 $124 reversed $48 $-1 #
face $-1 $125 $126 $26 $-1 $127 reversed single #
loop $-1 $-1 $128 $50 #
plane-surface $-1 -9.9618747904785678 -30.507471091223849 7.4816464085741075 0 -0.79863551827123203 0.60181501223851219 1 0 0 forward_v I I I I #
coedge $-1 $129 $130 $131 $132 reversed $51 $-1 #
face $-1 $-1 $133 $27 $-1 $134 forward single #
loop $-1 $135 $136 $53 #
cone-surface $-1 -9.9618747904785678 -24.244869438054234 6.6563580550724506 0 0.79863551827123203 -0.60181501223851219 0.75 0 0 1 I I -0.70710678118654757 0.70710678118654757 0.75 forward I I I I #
loop $-1 $-1 $137 $34 #
coedge $-1 $86 $86 $138 $139 reversed $54 $-1 #
face $-1 $140 $141 $21 $-1 $142 reversed single #
loop $-1 $-1 $143 $56 #
plane-surface $-1 0 -30.507471091223845 0 0 1 0 0 0 1 forward_v I I I I #
coedge $-1 $144 $145 $146 $147 forward $57 $-1 #
coedge $-1 $148 $59 $149 $150 forward $36 $-1 #
coedge $-1 $59 $148 $151 $152 forward $36 $-1 #
coedge $-1 $153 $154 $59 $94 reversed $155 $-1 #
edge $-1 $156 -30.507471091223845 $157 30.507471091223845 $93 $158 forward 7 unknown #
face $-1 $159 $160 $22 $-1 $161 reversed single #
loop $-1 $-1 $101 $60 #
plane-surface $-1 -58.874985224867217 0 7.0531284869660258 0 0 1 1 0 0 forward_v I I I I #
coedge $-1 $162 $163 $100 $164 forward $61 $-1 #
coedge $-1 $165 $63 $166 $167 reversed $39 $-1 #
coedge $-1 $63 $165 $98 $164 reversed $39 $-1 #
coedge $-1 $168 $169 $63 $102 reversed $96 $-1 #
edge $-1 $170 -30.507471091223845 $171 30.507471091223845 $101 $172 forward 7 unknown #
face $-1 $173 $174 $23 $-1 $175 forward single #
loop $-1 $-1 $176 $64 #
plane-surface $-1 -15.027798160378689 32.9809650617714 127.90032661128517 -1 0 0 0 0.51503808176128008 0.85716729658548041 forward_v I I I I #
coedge $-1 $177 $178 $179 $180 reversed $65 $-1 #
coedge $-1 $108 $67 $181 $182 reversed $42 $-1 #
coedge $-1 $67 $107 $177 $183 reversed $42 $-1 #
coedge $-1 $179 $184 $67 $110 forward $174 $-1 #
edge $-1 $185 -14.016988560338145 $186 -2.1473621717308333 $109 $187 forward 7 unknown #
loop $-1 $-1 $116 $68 #
plane-surface $-1 -28.400259111219832 -21.792541950624241 36.741904364593211 0 0.51503808176128008 0.85716729658548041 1 0 0 forward_v I I I I #
loop $-1 $-1 $188 $44 #
coedge $-1 $114 $114 $115 $189 reversed $69 $-1 #
coedge $-1 $115 $115 $114 $189 forward $71 $-1 #
coedge $-1 $116 $116 $72 $117 forward $111 $-1 #
edge $-1 $190 -3.0496380636274512e-016 $190 6.2831853071796004 $116 $191 forward 7 unknown #
loop $-1 $-1 $123 $73 #
plane-surface $-1 -28.400259111219832 -21.792541950624241 36.741904364593211 0 0.51503808176128008 0.85716729658548041 1 0 0 forward_v I I I I #
loop $-1 $-1 $192 $47 #
coedge $-1 $121 $121 $122 $193 reversed $74 $-1 #
coedge $-1 $122 $122 $121 $193 forward $76 $-1 #
coedge $-1 $123 $123 $77 $124 forward $118 $-1 #
edge $-1 $194 -3.0496380636274512e-016 $194 6.2831853071796004 $123 $195 forward 7 unknown #
face $-1 $196 $197 $26 $-1 $198 reversed single #
loop $-1 $-1 $199 $78 #
plane-surface $-1 -16.075169515456544 -115.44112883316323 71.483746370358475 1 0 0 0 0.79863551827123203 -0.60181501223851219 forward_v I I I I #
coedge $-1 $200 $201 $202 $203 reversed $79 $-1 #
coedge $-1 $130 $81 $204 $205 reversed $51 $-1 #
coedge $-1 $81 $129 $200 $206 reversed $51 $-1 #
coedge $-1 $202 $207 $81 $132 forward $208 $-1 #
edge $-1 $209 27.213093325357772 $210 30.956169777675221 $131 $211 forward 7 unknown #
loop $-1 $-1 $138 $82 #
plane-surface $-1 -9.9618747904785678 -30.507471091223849 7.4816464085741075 0 -0.79863551827123203 0.60181501223851219 1 0 0 forward_v I I I I #
loop $-1 $-1 $212 $53 #
coedge $-1 $136 $136 $137 $213 reversed $83 $-1 #
coedge $-1 $137 $137 $136 $213 forward $85 $-1 #
coedge $-1 $138 $138 $86 $139 forward $133 $-1 #
edge $-1 $214 1.3445237978203993e-017 $214 6.2831853071796004 $138 $215 forward 7 unknown #
face $-1 $216 $217 $21 $-1 $218 reversed single #
loop $-1 $-1 $219 $87 #
plane-surface $-1 -53.17423017059847 0 0 1 0 0 0 0 -1 forward_v I I I I #
coedge $-1 $220 $151 $219 $221 forward $88 $-1 #
coedge $-1 $222 $90 $220 $223 forward $57 $-1 #
coedge $-1 $90 $222 $224 $225 forward $57 $-1 #
coedge $-1 $154 $153 $90 $147 reversed $155 $-1 #
edge $-1 $226 -30.507471091223845 $227 30.507471091223845 $146 $228 forward 7 unknown #
coedge $-1 $92 $91 $229 $230 forward $36 $-1 #
coedge $-1 $231 $232 $91 $150 reversed $217 $-1 #
edge $-1 $157 -53.17423017059847 $233 53.17423017059847 $149 $234 forward 7 unknown #
coedge $-1 $143 $235 $92 $152 reversed $88 $-1 #
edge $-1 $236 -53.17423017059847 $156 53.17423017059847 $151 $237 forward 7 unknown #
coedge $-1 $146 $93 $235 $238 forward $155 $-1 #
coedge $-1 $93 $146 $231 $239 reversed $155 $-1 #
loop $-1 $-1 $153 $216 #
vertex $-1 $94 $240 #
vertex $-1 $94 $241 #
straight-curve $-1 53.17423017059847 0 12.448876772778862 0 1 0 I I #
face $-1 $242 $243 $22 $-1 $244 reversed single #
loop $-1 $-1 $245 $95 #
plane-surface $-1 -58.874985224867217 0 1.5586326325001796 0 0 1 1 0 0 forward_v I I I I #
coedge $-1 $246 $98 $247 $248 reversed $61 $-1 #
coedge $-1 $98 $246 $168 $249 reversed $61 $-1 #
edge $-1 $170 -7.0531284869660258 $250 -1.5586326325001796 $98 $251 forward 7 unknown #
coedge $-1 $100 $99 $245 $252 forward $39 $-1 #
coedge $-1 $253 $254 $99 $167 forward $255 $-1 #
edge $-1 $256 1.5586326325001796 $171 7.0531284869660258 $166 $257 forward 7 unknown #
coedge $-1 $258 $101 $163 $249 forward $96 $-1 #
coedge $-1 $101 $258 $253 $259 forward $96 $-1 #
vertex $-1 $164 $260 #
vertex $-1 $259 $261 #
straight-curve $-1 -53.17423017059847 0 7.0531284869660258 0 -1 0 I I #
face $-1 $-1 $262 $23 $-1 $263 reversed single #
loop $-1 $-1 $109 $103 #
plane-surface $-1 0 0 12.448876772778862 0 0 1 1 0 0 forward_v I I I I #
coedge $-1 $264 $265 $266 $267 reversed $104 $-1 #
coedge $-1 $268 $106 $108 $183 forward $65 $-1 #
coedge $-1 $106 $268 $264 $269 forward $65 $-1 #
coedge $-1 $266 $109 $106 $180 forward $174 $-1 #
edge $-1 $186 -27.572590506451061 $270 -0.82766860476877291 $179 $271 forward 7 unknown #
coedge $-1 $272 $273 $107 $182 forward $262 $-1 #
edge $-1 $274 -58.633277721472652 $185 -51.501286532863723 $181 $275 forward 7 unknown #
edge $-1 $186 47.167439558525999 $274 61.014942182447697 $108 $276 forward 7 unknown #
coedge $-1 $109 $266 $272 $277 forward $174 $-1 #
vertex $-1 $182 $278 #
vertex $-1 $110 $279 #
straight-curve $-1 -41.772720062060976 16.4904825308857 12.44887677277886 0 -1 0 I I #
coedge $-1 $188 $188 $-1 $280 reversed $113 $-1 #
edge $-1 $281 0 $281 6.2831853071796004 $114 $282 forward 7 unknown #
vertex $-1 $117 $283 #
ellipse-curve $-1 -34.131313804437468 24.572657896920191 8.8828811784743973 0 0.51503808176128008 0.85716729658548041 3 0 0 1 I I #
coedge $-1 $192 $192 $-1 $284 reversed $120 $-1 #
edge $-1 $285 0 $285 6.2831853071796004 $121 $286 forward 7 unknown #
vertex $-1 $124 $287 #
ellipse-curve $-1 -22.669204418002202 24.572657896920191 8.8828811784743973 0 0.51503808176128008 0.85716729658548041 3 0 0 1 I I #
face $-1 $-1 $208 $26 $-1 $288 forward single #
loop $-1 $-1 $289 $125 #
plane-surface $-1 0 -30.507471091223845 0 0 1 0 0 0 1 forward_v I I I I #
coedge $-1 $290 $291 $292 $293 reversed $126 $-1 #
coedge $-1 $294 $128 $130 $206 forward $79 $-1 #
coedge $-1 $128 $294 $290 $295 forward $79 $-1 #
coedge $-1 $292 $131 $128 $203 forward $208 $-1 #
edge $-1 $210 -1.1323573297386922 $296 11.09423212021726 $202 $297 forward 7 unknown #
coedge $-1 $298 $299 $129 $205 forward $197 $-1 #
edge $-1 $300 -28.260226776605126 $209 -23.292996412400377 $204 $301 forward 7 unknown #
edge $-1 $210 -6.2196461972503796 $300 -5.6847305887599196e-015 $130 $302 forward 7 unknown #
coedge $-1 $131 $292 $298 $303 forward $208 $-1 #
loop $-1 $-1 $292 $196 #
vertex $-1 $205 $304 #
vertex $-1 $132 $305 #
straight-curve $-1 -3.8485800655005917 -57.720564416581617 12.44887677277886 0 1 0 I I #
coedge $-1 $212 $212 $-1 $306 reversed $135 $-1 #
edge $-1 $307 0 $307 6.2831853071796004 $136 $308 forward 7 unknown #
vertex $-1 $139 $309 #
ellipse-curve $-1 -9.9618747904785678 -28.635932865065122 9.9652615906764872 0 -0.79863551827123203 0.60181501223851219 1.5 0 0 1 I I #
face $-1 $-1 $155 $21 $-1 $310 reversed single #
loop $-1 $-1 $231 $140 #
plane-surface $-1 0 30.507471091223845 0 0 -1 0 0 0 -1 forward_v I I I I #
coedge $-1 $229 $311 $143 $221 reversed $141 $-1 #
coedge $-1 $235 $143 $144 $223 reversed $88 $-1 #
edge $-1 $236 -12.448876772778862 $312 12.448876772778862 $219 $313 forward 7 unknown #
coedge $-1 $145 $144 $311 $314 forward $57 $-1 #
edge $-1 $227 -53.17423017059847 $312 53.17423017059847 $220 $315 forward 7 unknown #
coedge $-1 $232 $231 $145 $225 reversed $217 $-1 #
edge $-1 $316 -53.17423017059847 $226 53.17423017059847 $224 $317 forward 7 unknown #
vertex $-1 $147 $318 #
vertex $-1 $238 $319 #
straight-curve $-1 53.17423017059847 0 -12.448876772778862 0 -1 0 I I #
coedge $-1 $320 $219 $148 $230 reversed $141 $-1 #
edge $-1 $233 -30.507471091223845 $236 30.507471091223845 $229 $321 forward 7 unknown #
coedge $-1 $224 $149 $154 $239 forward $217 $-1 #
coedge $-1 $149 $224 $320 $322 reversed $217 $-1 #
vertex $-1 $150 $323 #
straight-curve $-1 0 30.507471091223845 12.448876772778862 -1 0 0 I I #
coedge $-1 $151 $220 $153 $238 reversed $88 $-1 #
vertex $-1 $230 $324 #
straight-curve $-1 0 -30.507471091223845 12.448876772778862 1 0 0 I I #
edge $-1 $156 -12.448876772778862 $227 12.448876772778862 $153 $325 forward 7 unknown #
edge $-1 $157 -12.448876772778862 $226 12.448876772778862 $154 $326 forward 7 unknown #
point $-1 53.17423017059847 -30.507471091223845 12.448876772778862 #
point $-1 53.17423017059847 30.507471091223845 12.448876772778862 #
face $-1 $-1 $255 $22 $-1 $327 reversed single #
loop $-1 $-1 $328 $159 #
plane-surface $-1 -64.575740279135971 0 4.3058805597331027 1 0 0 0 0 -1 forward_v I I I I #
coedge $-1 $329 $247 $165 $252 reversed $160 $-1 #
coedge $-1 $163 $162 $328 $330 reversed $61 $-1 #
coedge $-1 $245 $331 $162 $248 forward $160 $-1 #
edge $-1 $332 -5.700755054268754 $250 5.7007550542687468 $162 $333 forward 7 unknown #
edge $-1 $170 -5.7007550542687468 $334 5.700755054268754 $163 $335 forward 7 unknown #
vertex $-1 $164 $336 #
straight-curve $-1 -53.17423017059847 30.507471091223845 0 0 0 -1 I I #
edge $-1 $256 -30.507471091223845 $250 30.507471091223845 $245 $337 forward 7 unknown #
coedge $-1 $338 $166 $169 $259 reversed $255 $-1 #
coedge $-1 $166 $338 $329 $339 reversed $255 $-1 #
loop $-1 $-1 $166 $242 #
vertex $-1 $167 $340 #
straight-curve $-1 -53.17423017059847 -30.507471091223845 0 0 0 1 I I #
coedge $-1 $169 $168 $341 $342 forward $96 $-1 #
edge $-1 $343 -5.700755054268754 $171 5.7007550542687468 $253 $344 forward 7 unknown #
point $-1 -53.17423017059847 30.507471091223845 7.0531284869660258 #
point $-1 -53.17423017059847 -30.507471091223845 7.0531284869660258 #
loop $-1 $-1 $181 $173 #
plane-surface $-1 0 30.507471091223845 0 0 -1 0 0 0 -1 forward_v I I I I #
coedge $-1 $265 $176 $178 $269 reversed $104 $-1 #
coedge $-1 $176 $264 $345 $346 reversed $104 $-1 #
coedge $-1 $184 $179 $176 $267 forward $174 $-1 #
edge $-1 $270 2.1473621717308333 $347 14.016988560338145 $266 $348 forward 7 unknown #
coedge $-1 $178 $177 $273 $349 reversed $65 $-1 #
edge $-1 $350 -61.014942182447697 $270 -47.167439558525999 $264 $351 forward 7 unknown #
vertex $-1 $180 $352 #
straight-curve $-1 -14.200129555609916 18.637844702616537 12.44887677277886 1 0 0 I I #
coedge $-1 $345 $181 $184 $277 reversed $262 $-1 #
coedge $-1 $181 $345 $268 $349 forward $262 $-1 #
vertex $-1 $182 $353 #
straight-curve $-1 -41.772720062060976 30.507471091223845 63.950163305642583 0 0 1 I I #
straight-curve $-1 -41.772720062060976 -21.792541950624241 36.741904364593211 0 0.85716729658548041 -0.51503808176128008 I I #
edge $-1 $347 15.027798160378689 $185 41.772720062060976 $272 $354 forward 7 unknown #
point $-1 -41.772720062060976 30.507471091223845 12.448876772778862 #
point $-1 -41.772720062060976 18.637844702616533 12.44887677277886 #
edge $-1 $355 1 $355 0 $188 $-1 forward 7 unknown #
vertex $-1 $189 $356 #
ellipse-curve $-1 -34.131313804437468 19.718989438370098 0.80502049502702144 0 0.51503808176128008 0.85716729658548041 3 0 0 1 I I #
point $-1 -31.131313804437468 24.572657896920191 8.8828811784743991 #
edge $-1 $357 1 $357 0 $192 $-1 forward 7 unknown #
vertex $-1 $193 $358 #
ellipse-curve $-1 -22.669204418002202 19.718989438370098 0.80502049502702144 0 0.51503808176128008 0.85716729658548041 3 0 0 1 I I #
point $-1 -19.669204418002202 24.572657896920191 8.8828811784743991 #
plane-surface $-1 0 0 12.448876772778862 0 0 1 1 0 0 forward_v I I I I #
coedge $-1 $299 $298 $291 $359 forward $197 $-1 #
coedge $-1 $291 $199 $201 $295 reversed $126 $-1 #
coedge $-1 $199 $290 $289 $359 reversed $126 $-1 #
coedge $-1 $207 $202 $199 $293 forward $208 $-1 #
edge $-1 $296 -30.956169777675221 $360 -27.213093325357772 $292 $361 forward 7 unknown #
coedge $-1 $201 $200 $299 $362 reversed $79 $-1 #
edge $-1 $363 5.6847305887599196e-015 $296 6.2196461972503796 $290 $364 forward 7 unknown #
vertex $-1 $203 $365 #
straight-curve $-1 -4.9809373952392839 -26.764394638906396 12.448876772778862 -1 0 0 I I #
coedge $-1 $289 $204 $207 $303 reversed $197 $-1 #
coedge $-1 $204 $289 $294 $362 forward $197 $-1 #
vertex $-1 $205 $366 #
straight-curve $-1 -3.8485800655005917 -30.507471091223849 35.741873185179237 0 0 1 I I #
straight-curve $-1 -3.8485800655005917 -30.507471091223849 7.4816464085741075 0 -0.60181501223851219 -0.79863551827123203 I I #
edge $-1 $360 -16.075169515456544 $209 -3.8485800655005917 $298 $367 forward 7 unknown #
point $-1 -3.8485800655005917 -30.507471091223845 12.448876772778862 #
point $-1 -3.8485800655005917 -26.764394638906396 12.448876772778862 #
edge $-1 $368 1 $368 0 $212 $-1 forward 7 unknown #
vertex $-1 $213 $369 #
ellipse-curve $-1 -9.9618747904785678 -24.843846076757657 7.1077193142513346 0 -0.79863551827123203 0.60181501223851219 1.5 0 0 1 I I #
point $-1 -8.4618747904785678 -28.635932865065115 9.9652615906764819 #
plane-surface $-1 53.17423017059847 0 0 -1 0 0 0 0 1 forward_v I I I I #
coedge $-1 $219 $320 $222 $314 reversed $141 $-1 #
vertex $-1 $314 $370 #
straight-curve $-1 -53.17423017059847 -30.507471091223845 0 0 0 -1 I I #
edge $-1 $312 -30.507471091223845 $316 30.507471091223845 $311 $371 forward 7 unknown #
straight-curve $-1 0 -30.507471091223845 -12.448876772778862 -1 0 0 I I #
vertex $-1 $225 $372 #
straight-curve $-1 0 30.507471091223845 -12.448876772778862 1 0 0 I I #
point $-1 53.17423017059847 30.507471091223845 -12.448876772778862 #
point $-1 53.17423017059847 -30.507471091223845 -12.448876772778862 #
coedge $-1 $311 $229 $232 $322 forward $141 $-1 #
straight-curve $-1 -53.17423017059847 0 12.448876772778862 0 -1 0 I I #
edge $-1 $233 -12.448876772778862 $316 12.448876772778862 $232 $373 forward 7 unknown #
point $-1 -53.17423017059847 30.507471091223845 12.448876772778862 #
point $-1 -53.17423017059847 -30.507471091223845 12.448876772778862 #
straight-curve $-1 53.17423017059847 -30.507471091223845 0 0 0 -1 I I #
straight-curve $-1 53.17423017059847 30.507471091223845 0 0 0 -1 I I #
plane-surface $-1 0 -30.507471091223845 0 0 1 0 0 0 1 forward_v I I I I #
coedge $-1 $374 $341 $246 $330 forward $243 $-1 #
coedge $-1 $331 $245 $254 $339 forward $160 $-1 #
edge $-1 $334 -2.7472479272329231 $332 2.7472479272329231 $246 $375 forward 7 unknown #
coedge $-1 $247 $329 $374 $376 forward $160 $-1 #
vertex $-1 $248 $377 #
straight-curve $-1 -58.874985224867217 30.507471091223845 1.5586326325001796 1 0 0 I I #
vertex $-1 $249 $378 #
straight-curve $-1 -58.874985224867217 30.507471091223845 7.0531284869660258 -1 0 0 I I #
point $-1 -53.17423017059847 30.507471091223845 1.5586326325001796 #
straight-curve $-1 -53.17423017059847 0 1.5586326325001796 0 1 0 I I #
coedge $-1 $254 $253 $379 $380 forward $255 $-1 #
edge $-1 $256 -5.7007550542687468 $381 5.700755054268754 $254 $382 forward 7 unknown #
point $-1 -53.17423017059847 -30.507471091223845 1.5586326325001796 #
coedge $-1 $328 $379 $258 $342 reversed $243 $-1 #
edge $-1 $334 -30.507471091223845 $343 30.507471091223845 $341 $383 forward 7 unknown #
vertex $-1 $342 $384 #
straight-curve $-1 -58.874985224867217 -30.507471091223845 7.0531284869660258 1 0 0 I I #
coedge $-1 $273 $272 $265 $346 forward $262 $-1 #
edge $-1 $347 51.501286532863723 $350 58.633277721472652 $345 $385 forward 7 unknown #
vertex $-1 $277 $386 #
straight-curve $-1 -15.027798160378689 16.4904825308857 12.44887677277886 0 1 0 I I #
edge $-1 $350 0.82766860476877291 $274 27.572590506451061 $273 $387 forward 7 unknown #
vertex $-1 $349 $388 #
straight-curve $-1 -15.027798160378689 -21.792541950624241 36.741904364593211 0 -0.85716729658548041 0.51503808176128008 I I #
point $-1 -15.027798160378689 18.637844702616533 12.44887677277886 #
point $-1 -41.772720062060976 30.507471091223849 5.3168855841699347 #
straight-curve $-1 0 30.507471091223845 12.448876772778862 -1 0 0 I I #
vertex $-1 $280 $389 #
point $-1 -31.131313804437468 19.718989438370098 0.80502049502702144 #
vertex $-1 $284 $390 #
point $-1 -19.669204418002202 19.718989438370098 0.80502049502702144 #
edge $-1 $360 23.292996412400377 $363 28.260226776605126 $289 $391 forward 7 unknown #
vertex $-1 $303 $392 #
straight-curve $-1 -16.075169515456544 -57.720564416581617 12.44887677277886 0 -1 0 I I #
edge $-1 $363 -11.09423212021726 $300 1.1323573297386922 $299 $393 forward 7 unknown #
vertex $-1 $362 $394 #
straight-curve $-1 -16.075169515456544 -30.507471091223849 7.4816464085741075 0 0.60181501223851219 0.79863551827123203 I I #
point $-1 -16.075169515456544 -26.764394638906396 12.448876772778862 #
point $-1 -3.8485800655005917 -30.507471091223845 7.4816464085741119 #
straight-curve $-1 0 -30.507471091223845 12.448876772778862 1 0 0 I I #
vertex $-1 $306 $395 #
point $-1 -8.4618747904785678 -24.843846076757657 7.1077193142513346 #
point $-1 -53.17423017059847 -30.507471091223845 -12.448876772778862 #
straight-curve $-1 -53.17423017059847 0 -12.448876772778862 0 1 0 I I #
point $-1 -53.17423017059847 30.507471091223845 -12.448876772778862 #
straight-curve $-1 -53.17423017059847 30.507471091223845 0 0 0 -1 I I #
coedge $-1 $379 $328 $331 $376 reversed $243 $-1 #
straight-curve $-1 -64.575740279135971 30.507471091223845 4.3058805597331027 0 0 -1 I I #
edge $-1 $381 -30.507471091223845 $332 30.507471091223845 $374 $396 forward 7 unknown #
point $-1 -64.575740279135971 30.507471091223845 1.5586326325001796 #
point $-1 -64.575740279135971 30.507471091223845 7.0531284869660258 #
coedge $-1 $341 $374 $338 $380 reversed $243 $-1 #
edge $-1 $343 -2.7472479272329231 $381 2.7472479272329231 $379 $397 forward 7 unknown #
vertex $-1 $376 $398 #
straight-curve $-1 -58.874985224867217 -30.507471091223845 1.5586326325001796 -1 0 0 I I #
straight-curve $-1 -64.575740279135971 0 7.0531284869660258 0 -1 0 I I #
point $-1 -64.575740279135971 -30.507471091223845 7.0531284869660258 #
straight-curve $-1 -15.027798160378689 30.507471091223845 63.950163305642583 0 0 -1 I I #
point $-1 -15.027798160378689 30.507471091223845 12.448876772778862 #
straight-curve $-1 -14.200129555609916 30.507471091223842 5.3168855841699365 -1 0 0 I I #
point $-1 -15.027798160378689 30.507471091223849 5.3168855841699347 #
point $-1 -34.131313804437468 18.173875193086257 -1.76648139472942 #
point $-1 -22.669204418002202 18.173875193086257 -1.76648139472942 #
straight-curve $-1 -16.075169515456544 -30.507471091223849 35.741873185179237 0 0 -1 I I #
point $-1 -16.075169515456544 -30.507471091223845 12.448876772778862 #
straight-curve $-1 -4.9809373952392839 -30.507471091223845 7.481646408574111 1 0 0 I I #
point $-1 -16.075169515456544 -30.507471091223845 7.4816464085741119 #
point $-1 -9.9618747904785678 -23.645892799350811 6.2049967958935666 #
straight-curve $-1 -64.575740279135971 0 1.5586326325001796 0 1 0 I I #
straight-curve $-1 -64.575740279135971 -30.507471091223845 4.3058805597331027 0 0 -1 I I #
point $-1 -64.575740279135971 -30.507471091223845 1.5586326325001796 #
End-of-ACIS-data 