500 0 5 0           
7 Unknown 11 ACIS 5.0 NT 24 Fri Mar 26 03:12:21 1999 
-1 9.9999999999999995e-007 1e-010 
body $-1 $5 $-1 $6 #
body $-1 $7 $-1 $8 #
body $-1 $9 $-1 $10 #
body $-1 $11 $-1 $12 #
body $-1 $13 $-1 $14 #
lump $-1 $-1 $15 $0 #
transform $-1 1 0 0 0 1 0 0 0 1 73.481246375927 35.626305999200476 9.5895399726050066 1 rotate no_reflect no_shear #
lump $-1 $-1 $16 $1 #
transform $-1 1 0 0 0 1 0 0 0 1 73.481246375927 35.626305999200476 9.5895399726050066 1 rotate no_reflect no_shear #
lump $-1 $-1 $17 $2 #
transform $-1 1 0 0 0 1 0 0 0 1 73.481246375927 35.626305999200476 9.5895399726050066 1 rotate no_reflect no_shear #
lump $-1 $-1 $18 $3 #
transform $-1 1 0 0 0 1 0 0 0 1 73.481246375927 35.626305999200476 9.5895399726050066 1 rotate no_reflect no_shear #
lump $-1 $-1 $19 $4 #
transform $-1 1 0 0 0 1 0 0 0 1 73.481246375927 35.626305999200476 9.5895399726050066 1 rotate no_reflect no_shear #
shell $-1 $-1 $-1 $20 $-1 $5 #
shell $-1 $-1 $-1 $21 $-1 $7 #
shell $-1 $-1 $-1 $22 $-1 $9 #
shell $-1 $-1 $-1 $23 $-1 $11 #
shell $-1 $-1 $-1 $24 $-1 $13 #
face $-1 $25 $26 $15 $-1 $27 forward single #
face $-1 $28 $29 $16 $-1 $30 forward single #
face $-1 $31 $32 $17 $-1 $33 reversed single #
face $-1 $34 $35 $18 $-1 $36 forward single #
face $-1 $37 $38 $19 $-1 $39 forward single #
face $-1 $40 $41 $15 $-1 $42 reversed single #
loop $-1 $-1 $43 $20 #
plane-surface $-1 0 0 9.5895399726050066 0 0 1 1 0 0 forward_v I I I I #
face $-1 $44 $45 $16 $-1 $46 reversed single #
loop $-1 $-1 $47 $21 #
plane-surface $-1 0 -35.626305999200476 0 0 1 0 0 0 1 forward_v I I I I #
face $-1 $48 $49 $17 $-1 $50 reversed single #
loop $-1 $-1 $51 $22 #
plane-surface $-1 116.69285639075981 -10.074263071576254 206.90362019066129 0 -1 0 -0.83867057594974714 0 -0.54463902268945019 forward_v I I I I #
face $-1 $52 $53 $18 $-1 $54 forward single #
loop $-1 $55 $56 $23 #
cone-surface $-1 70.746331097959285 -22.478519026987421 6.0842805101282504 -0.83867057594974714 0 -0.54463902268945019 0.54463902268945019 0 -0.83867057594974714 1 I I 0 1 1 forward I I I I #
face $-1 $57 $58 $19 $-1 $59 forward single #
loop $-1 $60 $61 $24 #
cone-surface $-1 70.746331097959285 -15.035965453740722 6.0842805101282504 -0.83867057594974714 0 -0.54463902268945019 0.54463902268945019 0 -0.83867057594974714 1 I I 0 1 1 forward I I I I #
face $-1 $62 $63 $15 $-1 $64 reversed single #
loop $-1 $-1 $65 $25 #
plane-surface $-1 0 0 -9.5895399726050066 0 0 1 1 0 0 forward_v I I I I #
coedge $-1 $66 $67 $68 $69 forward $26 $-1 #
face $-1 $70 $71 $16 $-1 $72 forward single #
loop $-1 $-1 $73 $28 #
plane-surface $-1 -73.481246375927 0 0 1 0 0 0 0 -1 forward_v I I I I #
coedge $-1 $74 $75 $76 $77 forward $29 $-1 #
face $-1 $78 $79 $17 $-1 $80 reversed single #
loop $-1 $-1 $81 $31 #
plane-surface $-1 -6.5602620484481236 -18.757242240364072 126.86211176628612 0.83867057594974714 0 0.54463902268945019 0.54463902268945019 0 -0.83867057594974714 forward_v I I I I #
coedge $-1 $82 $83 $84 $85 reversed $32 $-1 #
face $-1 $-1 $86 $18 $-1 $87 forward single #
loop $-1 $88 $89 $34 #
cone-surface $-1 69.5339866710748 -22.478519026987421 5.2969748590701791 -0.83867057594974714 0 -0.54463902268945019 0.2723195113447251 0 -0.41933528797487357 1 I I -0.70710678118654746 0.70710678118654746 0.5 forward I I I I #
loop $-1 $-1 $90 $23 #
coedge $-1 $56 $56 $91 $92 reversed $35 $-1 #
face $-1 $-1 $93 $19 $-1 $94 forward single #
loop $-1 $95 $96 $37 #
cone-surface $-1 69.5339866710748 -15.035965453740722 5.2969748590701791 -0.83867057594974714 0 -0.54463902268945019 0.2723195113447251 0 -0.41933528797487357 1 I I -0.70710678118654746 0.70710678118654746 0.5 forward I I I I #
loop $-1 $-1 $97 $24 #
coedge $-1 $61 $61 $98 $99 reversed $38 $-1 #
face $-1 $100 $101 $15 $-1 $102 reversed single #
loop $-1 $-1 $103 $40 #
plane-surface $-1 0 -35.626305999200476 0 0 1 0 0 0 1 forward_v I I I I #
coedge $-1 $104 $105 $106 $107 forward $41 $-1 #
coedge $-1 $108 $43 $109 $110 forward $26 $-1 #
coedge $-1 $43 $108 $111 $112 forward $26 $-1 #
coedge $-1 $113 $114 $43 $69 reversed $115 $-1 #
edge $-1 $116 -35.626305999200476 $117 35.626305999200476 $68 $118 forward 7 unknown #
face $-1 $119 $120 $16 $-1 $121 reversed single #
loop $-1 $-1 $122 $44 #
plane-surface $-1 0 -39.719348294224773 -0.04284793968342937 0 0 1 1 0 0 forward_v I I I I #
coedge $-1 $123 $124 $75 $125 forward $45 $-1 #
coedge $-1 $126 $47 $127 $128 reversed $29 $-1 #
coedge $-1 $47 $126 $73 $125 reversed $29 $-1 #
coedge $-1 $129 $122 $47 $77 reversed $71 $-1 #
edge $-1 $130 -73.481246375927 $131 73.481246375927 $76 $132 forward 7 unknown #
face $-1 $133 $134 $17 $-1 $135 reversed single #
loop $-1 $-1 $136 $48 #
plane-surface $-1 116.69285639075981 -27.440221409151889 206.90362019066129 0 1 0 0.83867057594974714 0 0.54463902268945019 forward_v I I I I #
coedge $-1 $137 $138 $139 $140 reversed $49 $-1 #
coedge $-1 $83 $51 $141 $142 reversed $32 $-1 #
coedge $-1 $51 $82 $137 $143 reversed $32 $-1 #
coedge $-1 $139 $144 $51 $85 forward $145 $-1 #
edge $-1 $146 -15.134818180547093 $147 -11.251005902430954 $84 $148 forward 7 unknown #
loop $-1 $-1 $91 $52 #
plane-surface $-1 -6.5602620484481236 -18.757242240364072 126.86211176628612 0.83867057594974714 0 0.54463902268945019 0.54463902268945019 0 -0.83867057594974714 forward_v I I I I #
loop $-1 $-1 $149 $34 #
coedge $-1 $89 $89 $90 $150 reversed $53 $-1 #
coedge $-1 $90 $90 $89 $150 forward $55 $-1 #
coedge $-1 $91 $91 $56 $92 forward $86 $-1 #
edge $-1 $151 0 $151 6.2831853071796004 $91 $152 forward 7 unknown #
loop $-1 $-1 $98 $57 #
plane-surface $-1 -6.5602620484481236 -18.757242240364072 126.86211176628612 0.83867057594974714 0 0.54463902268945019 0.54463902268945019 0 -0.83867057594974714 forward_v I I I I #
loop $-1 $-1 $153 $37 #
coedge $-1 $96 $96 $97 $154 reversed $58 $-1 #
coedge $-1 $97 $97 $96 $154 forward $60 $-1 #
coedge $-1 $98 $98 $61 $99 forward $93 $-1 #
edge $-1 $155 0 $155 6.2831853071796004 $98 $156 forward 7 unknown #
face $-1 $157 $158 $15 $-1 $159 reversed single #
loop $-1 $-1 $160 $62 #
plane-surface $-1 -73.481246375927 0 0 1 0 0 0 0 -1 forward_v I I I I #
coedge $-1 $161 $111 $162 $163 forward $63 $-1 #
coedge $-1 $164 $65 $161 $165 forward $41 $-1 #
coedge $-1 $65 $164 $166 $167 forward $41 $-1 #
coedge $-1 $114 $113 $65 $107 reversed $115 $-1 #
edge $-1 $168 -35.626305999200476 $169 35.626305999200476 $106 $170 forward 7 unknown #
coedge $-1 $67 $66 $171 $172 forward $26 $-1 #
coedge $-1 $173 $174 $66 $110 reversed $158 $-1 #
edge $-1 $117 -73.481246375927 $175 73.481246375927 $109 $176 forward 7 unknown #
coedge $-1 $103 $177 $67 $112 reversed $63 $-1 #
edge $-1 $178 -73.481246375927 $116 73.481246375927 $111 $179 forward 7 unknown #
coedge $-1 $106 $68 $177 $180 forward $115 $-1 #
coedge $-1 $68 $106 $173 $181 reversed $115 $-1 #
loop $-1 $-1 $113 $157 #
vertex $-1 $69 $182 #
vertex $-1 $69 $183 #
straight-curve $-1 73.481246375927 0 9.5895399726050066 0 1 0 I I #
face $-1 $184 $185 $16 $-1 $186 reversed single #
loop $-1 $-1 $187 $70 #
plane-surface $-1 0 -39.719348294224773 -4.4503429772341931 0 0 1 1 0 0 forward_v I I I I #
coedge $-1 $76 $188 $189 $190 forward $71 $-1 #
coedge $-1 $191 $73 $192 $193 reversed $45 $-1 #
coedge $-1 $73 $191 $129 $194 reversed $45 $-1 #
edge $-1 $130 0.04284793968342937 $195 4.4503429772341931 $73 $196 forward 7 unknown #
coedge $-1 $75 $74 $197 $198 forward $29 $-1 #
coedge $-1 $189 $199 $74 $128 forward $200 $-1 #
edge $-1 $201 -4.4503429772341931 $131 -0.04284793968342937 $127 $202 forward 7 unknown #
coedge $-1 $188 $76 $124 $194 forward $71 $-1 #
vertex $-1 $125 $203 #
vertex $-1 $190 $204 #
straight-curve $-1 0 -35.626305999200476 -0.04284793968342937 1 0 0 I I #
face $-1 $-1 $145 $17 $-1 $205 forward single #
loop $-1 $-1 $206 $78 #
plane-surface $-1 73.481246375927 0 0 -1 0 0 0 0 1 forward_v I I I I #
coedge $-1 $207 $208 $209 $210 reversed $79 $-1 #
coedge $-1 $211 $81 $83 $143 forward $49 $-1 #
coedge $-1 $81 $211 $207 $212 forward $49 $-1 #
coedge $-1 $209 $84 $81 $140 forward $145 $-1 #
edge $-1 $147 0.69564195139421869 $213 18.061600288969853 $139 $214 forward 7 unknown #
coedge $-1 $215 $216 $82 $142 forward $134 $-1 #
edge $-1 $217 -99.842816768252391 $146 -93.862270122725633 $141 $218 forward 7 unknown #
edge $-1 $147 139.83150852869321 $217 146.96249275185392 $83 $219 forward 7 unknown #
coedge $-1 $84 $209 $215 $220 forward $145 $-1 #
loop $-1 $-1 $209 $133 #
vertex $-1 $142 $221 #
vertex $-1 $85 $222 #
straight-curve $-1 58.346428195379907 -10.074263071576254 9.5895399726050101 -1 0 0 I I #
coedge $-1 $149 $149 $-1 $223 reversed $88 $-1 #
edge $-1 $224 0 $224 6.2831853071796004 $89 $225 forward 7 unknown #
vertex $-1 $92 $226 #
ellipse-curve $-1 71.539340236868938 -22.478519026987421 6.5992666498416295 0.83867057594974714 0 0.54463902268945019 0.54463902268945019 0 -0.83867057594974714 1 I I #
coedge $-1 $153 $153 $-1 $227 reversed $95 $-1 #
edge $-1 $228 0 $228 6.2831853071796004 $96 $229 forward 7 unknown #
vertex $-1 $99 $230 #
ellipse-curve $-1 71.539340236868938 -15.035965453740722 6.5992666498416295 0.83867057594974714 0 0.54463902268945019 0.54463902268945019 0 -0.83867057594974714 1 I I #
face $-1 $-1 $115 $15 $-1 $231 reversed single #
loop $-1 $-1 $173 $100 #
plane-surface $-1 0 35.626305999200476 0 0 -1 0 0 0 -1 forward_v I I I I #
coedge $-1 $232 $171 $174 $233 forward $101 $-1 #
coedge $-1 $177 $103 $104 $165 reversed $63 $-1 #
coedge $-1 $171 $232 $103 $163 reversed $101 $-1 #
edge $-1 $178 -9.5895399726050066 $234 9.5895399726050066 $162 $235 forward 7 unknown #
coedge $-1 $105 $104 $232 $236 forward $41 $-1 #
edge $-1 $169 -73.481246375927 $234 73.481246375927 $161 $237 forward 7 unknown #
coedge $-1 $174 $173 $105 $167 reversed $158 $-1 #
edge $-1 $238 -73.481246375927 $168 73.481246375927 $166 $239 forward 7 unknown #
vertex $-1 $107 $240 #
vertex $-1 $180 $241 #
straight-curve $-1 73.481246375927 0 -9.5895399726050066 0 -1 0 I I #
coedge $-1 $160 $162 $108 $172 reversed $101 $-1 #
edge $-1 $175 -35.626305999200476 $178 35.626305999200476 $171 $242 forward 7 unknown #
coedge $-1 $166 $109 $114 $181 forward $158 $-1 #
coedge $-1 $109 $166 $160 $233 reversed $158 $-1 #
vertex $-1 $110 $243 #
straight-curve $-1 0 35.626305999200476 9.5895399726050066 -1 0 0 I I #
coedge $-1 $111 $161 $113 $180 reversed $63 $-1 #
vertex $-1 $172 $244 #
straight-curve $-1 0 -35.626305999200476 9.5895399726050066 1 0 0 I I #
edge $-1 $116 -9.5895399726050066 $169 9.5895399726050066 $113 $245 forward 7 unknown #
edge $-1 $117 -9.5895399726050066 $168 9.5895399726050066 $114 $246 forward 7 unknown #
point $-1 73.481246375927 -35.626305999200476 9.5895399726050066 #
point $-1 73.481246375927 35.626305999200476 9.5895399726050066 #
face $-1 $-1 $200 $16 $-1 $247 reversed single #
loop $-1 $-1 $248 $119 #
plane-surface $-1 0 -43.812390589249063 -2.2465954584588115 0 1 0 0 0 1 forward_v I I I I #
coedge $-1 $249 $197 $199 $250 forward $120 $-1 #
coedge $-1 $122 $129 $251 $252 forward $71 $-1 #
coedge $-1 $253 $127 $122 $190 reversed $200 $-1 #
edge $-1 $254 -4.09304229502429 $131 4.09304229502429 $189 $255 forward 7 unknown #
coedge $-1 $124 $123 $248 $256 reversed $45 $-1 #
coedge $-1 $197 $249 $123 $193 forward $120 $-1 #
edge $-1 $257 -4.09304229502429 $195 4.09304229502429 $123 $258 forward 7 unknown #
edge $-1 $130 -4.09304229502429 $259 4.09304229502429 $124 $260 forward 7 unknown #
vertex $-1 $125 $261 #
straight-curve $-1 -73.481246375927 -35.626305999200476 0 0 0 -1 I I #
coedge $-1 $187 $192 $126 $198 reversed $120 $-1 #
edge $-1 $201 -73.481246375927 $195 73.481246375927 $197 $262 forward 7 unknown #
coedge $-1 $127 $253 $187 $250 reversed $200 $-1 #
loop $-1 $-1 $127 $184 #
vertex $-1 $128 $263 #
straight-curve $-1 73.481246375927 -35.626305999200476 0 0 0 1 I I #
point $-1 -73.481246375927 -35.626305999200483 -0.04284793968342937 #
point $-1 73.481246375927 -35.626305999200483 -0.04284793968342937 #
plane-surface $-1 0 0 9.5895399726050066 0 0 1 1 0 0 forward_v I I I I #
coedge $-1 $216 $215 $208 $264 forward $134 $-1 #
coedge $-1 $208 $136 $138 $212 reversed $79 $-1 #
coedge $-1 $136 $207 $206 $264 reversed $79 $-1 #
coedge $-1 $144 $139 $136 $210 forward $145 $-1 #
edge $-1 $213 11.251005902430954 $265 15.134818180547093 $209 $266 forward 7 unknown #
coedge $-1 $138 $137 $216 $267 reversed $49 $-1 #
edge $-1 $268 -146.96249275185392 $213 -139.83150852869321 $207 $269 forward 7 unknown #
vertex $-1 $140 $270 #
straight-curve $-1 69.597434097810861 -9.3786211201820358 9.5895399726050101 0 -1 0 I I #
coedge $-1 $206 $141 $144 $220 reversed $134 $-1 #
coedge $-1 $141 $206 $211 $267 forward $134 $-1 #
vertex $-1 $142 $271 #
straight-curve $-1 73.481246375927 -10.074263071576254 103.45181009533064 0 0 1 I I #
straight-curve $-1 -6.5602620484481236 -10.074263071576254 126.86211176628612 0.54463902268945019 0 -0.83867057594974714 I I #
edge $-1 $265 -27.440221409151889 $146 -10.074263071576254 $215 $272 forward 7 unknown #
point $-1 73.481246375927 -10.074263071576254 9.5895399726050066 #
point $-1 69.597434097810861 -10.074263071576254 9.5895399726050101 #
edge $-1 $273 1 $273 0 $149 $-1 forward 7 unknown #
vertex $-1 $150 $274 #
ellipse-curve $-1 69.953321959049674 -22.478519026987421 5.5692943704149043 0.83867057594974714 0 0.54463902268945019 0.54463902268945019 0 -0.83867057594974714 1 I I #
point $-1 72.083979259558333 -22.478519026987421 5.7605960738918505 #
edge $-1 $275 1 $275 0 $153 $-1 forward 7 unknown #
vertex $-1 $154 $276 #
ellipse-curve $-1 69.953321959049674 -15.035965453740722 5.5692943704149043 0.83867057594974714 0 0.54463902268945019 0.54463902268945019 0 -0.83867057594974714 1 I I #
point $-1 72.083979259558333 -15.035965453740722 5.7605960738918505 #
plane-surface $-1 73.481246375927 0 0 -1 0 0 0 0 1 forward_v I I I I #
coedge $-1 $162 $160 $164 $236 reversed $101 $-1 #
edge $-1 $175 -9.5895399726050066 $238 9.5895399726050066 $174 $277 forward 7 unknown #
vertex $-1 $236 $278 #
straight-curve $-1 -73.481246375927 -35.626305999200476 0 0 0 -1 I I #
edge $-1 $234 -35.626305999200476 $238 35.626305999200476 $232 $279 forward 7 unknown #
straight-curve $-1 0 -35.626305999200476 -9.5895399726050066 -1 0 0 I I #
vertex $-1 $167 $280 #
straight-curve $-1 0 35.626305999200476 -9.5895399726050066 1 0 0 I I #
point $-1 73.481246375927 35.626305999200476 -9.5895399726050066 #
point $-1 73.481246375927 -35.626305999200476 -9.5895399726050066 #
straight-curve $-1 -73.481246375927 0 9.5895399726050066 0 -1 0 I I #
point $-1 -73.481246375927 35.626305999200476 9.5895399726050066 #
point $-1 -73.481246375927 -35.626305999200476 9.5895399726050066 #
straight-curve $-1 73.481246375927 -35.626305999200476 0 0 0 -1 I I #
straight-curve $-1 73.481246375927 35.626305999200476 0 0 0 -1 I I #
plane-surface $-1 73.481246375927 0 0 -1 0 0 0 0 1 forward_v I I I I #
coedge $-1 $281 $251 $191 $256 forward $185 $-1 #
coedge $-1 $192 $187 $281 $282 forward $120 $-1 #
edge $-1 $201 -4.09304229502429 $283 4.09304229502429 $199 $284 forward 7 unknown #
coedge $-1 $248 $285 $188 $252 reversed $185 $-1 #
edge $-1 $259 -73.481246375927 $254 73.481246375927 $251 $286 forward 7 unknown #
coedge $-1 $199 $189 $285 $287 forward $200 $-1 #
vertex $-1 $190 $288 #
straight-curve $-1 73.481246375927 -39.719348294224773 -0.04284793968342937 0 1 0 I I #
edge $-1 $259 -2.2037475187753821 $257 2.2037475187753817 $191 $289 forward 7 unknown #
vertex $-1 $193 $290 #
straight-curve $-1 -73.481246375927 -39.719348294224773 -4.4503429772341931 0 1 0 I I #
vertex $-1 $194 $291 #
straight-curve $-1 -73.481246375927 -39.719348294224773 -0.04284793968342937 0 -1 0 I I #
point $-1 -73.481246375927 -35.626305999200483 -4.4503429772341931 #
straight-curve $-1 0 -35.626305999200476 -4.4503429772341931 -1 0 0 I I #
point $-1 73.481246375927 -35.626305999200483 -4.4503429772341931 #
edge $-1 $265 93.862270122725633 $268 99.842816768252391 $206 $292 forward 7 unknown #
vertex $-1 $220 $293 #
straight-curve $-1 58.346428195379907 -27.440221409151889 9.5895399726050101 1 0 0 I I #
edge $-1 $268 -18.061600288969853 $217 -0.69564195139421869 $216 $294 forward 7 unknown #
vertex $-1 $267 $295 #
straight-curve $-1 -6.5602620484481236 -27.440221409151889 126.86211176628612 -0.54463902268945019 0 0.83867057594974714 I I #
point $-1 69.597434097810861 -27.440221409151889 9.5895399726050101 #
point $-1 73.481246375927 -10.074263071576254 3.6089933270782524 #
straight-curve $-1 73.481246375927 0 9.5895399726050066 0 1 0 I I #
vertex $-1 $223 $296 #
point $-1 70.497960981739126 -22.478519026987421 4.7306237944651572 #
vertex $-1 $227 $297 #
point $-1 70.497960981739126 -15.035965453740722 4.7306237944651572 #
straight-curve $-1 -73.481246375927 35.626305999200476 0 0 0 -1 I I #
point $-1 -73.481246375927 -35.626305999200476 -9.5895399726050066 #
straight-curve $-1 -73.481246375927 0 -9.5895399726050066 0 1 0 I I #
point $-1 -73.481246375927 35.626305999200476 -9.5895399726050066 #
coedge $-1 $285 $248 $249 $282 reversed $185 $-1 #
edge $-1 $283 -73.481246375927 $257 73.481246375927 $281 $298 forward 7 unknown #
vertex $-1 $287 $299 #
straight-curve $-1 73.481246375927 -39.719348294224773 -4.4503429772341931 0 -1 0 I I #
coedge $-1 $251 $281 $253 $287 reversed $185 $-1 #
straight-curve $-1 0 -43.812390589249063 -0.04284793968342937 1 0 0 I I #
edge $-1 $254 -2.2037475187753821 $283 2.2037475187753817 $253 $300 forward 7 unknown #
point $-1 73.481246375927 -43.812390589249063 -0.04284793968342937 #
straight-curve $-1 -73.481246375927 -43.812390589249063 -2.2465954584588115 0 0 -1 I I #
point $-1 -73.481246375927 -43.812390589249063 -4.4503429772341931 #
point $-1 -73.481246375927 -43.812390589249063 -0.04284793968342937 #
straight-curve $-1 73.481246375927 -27.440221409151889 103.45181009533064 0 0 -1 I I #
point $-1 73.481246375927 -27.440221409151889 9.5895399726050066 #
straight-curve $-1 73.481246375926986 -9.3786211201820358 3.6089933270782524 0 1 0 I I #
point $-1 73.481246375927 -27.440221409151889 3.6089933270782524 #
point $-1 69.114651383099925 -22.478519026987421 5.0246553477254539 #
point $-1 69.114651383099925 -15.035965453740722 5.0246553477254539 #
straight-curve $-1 0 -43.812390589249063 -4.4503429772341931 -1 0 0 I I #
point $-1 73.481246375927 -43.812390589249063 -4.4503429772341931 #
straight-curve $-1 73.481246375927 -43.812390589249063 -2.2465954584588115 0 0 -1 I I #
End-of-ACIS-data 