500 0 7 0           
7 Unknown 11 ACIS 5.0 NT 24 Fri Mar 26 14:34:34 1999 
-1 9.9999999999999995e-007 1e-010 
body $-1 $7 $-1 $8 #
body $-1 $9 $-1 $10 #
body $-1 $11 $-1 $12 #
body $-1 $13 $-1 $14 #
body $-1 $15 $-1 $16 #
body $-1 $17 $-1 $18 #
body $-1 $19 $-1 $20 #
lump $-1 $-1 $21 $0 #
transform $-1 1 0 0 0 1 0 0 0 1 53.426923429059727 23.106773442027649 7.8630163246754625 1 rotate no_reflect no_shear #
lump $-1 $-1 $22 $1 #
transform $-1 1 0 0 0 1 0 0 0 1 53.426923429059727 23.106773442027649 7.8630163246754625 1 rotate no_reflect no_shear #
lump $-1 $-1 $23 $2 #
transform $-1 1 0 0 0 1 0 0 0 1 53.426923429059727 23.106773442027649 7.8630163246754625 1 rotate no_reflect no_shear #
lump $-1 $-1 $24 $3 #
transform $-1 1 0 0 0 1 0 0 0 1 53.426923429059727 23.106773442027649 7.8630163246754625 1 rotate no_reflect no_shear #
lump $-1 $-1 $25 $4 #
transform $-1 1 0 0 0 1 0 0 0 1 53.426923429059727 23.106773442027649 7.8630163246754625 1 rotate no_reflect no_shear #
lump $-1 $-1 $26 $5 #
transform $-1 1 0 0 0 1 0 0 0 1 53.426923429059727 23.106773442027649 7.8630163246754625 1 rotate no_reflect no_shear #
lump $-1 $-1 $27 $6 #
transform $-1 1 0 0 0 1 0 0 0 1 53.426923429059727 23.106773442027649 7.8630163246754625 1 rotate no_reflect no_shear #
shell $-1 $-1 $-1 $28 $-1 $7 #
shell $-1 $-1 $-1 $29 $-1 $9 #
shell $-1 $-1 $-1 $30 $-1 $11 #
shell $-1 $-1 $-1 $31 $-1 $13 #
shell $-1 $-1 $-1 $32 $-1 $15 #
shell $-1 $-1 $-1 $33 $-1 $17 #
shell $-1 $-1 $-1 $34 $-1 $19 #
face $-1 $35 $36 $21 $-1 $37 forward single #
face $-1 $38 $39 $22 $-1 $40 forward single #
face $-1 $41 $42 $23 $-1 $43 reversed single #
face $-1 $44 $45 $24 $-1 $46 forward single #
face $-1 $47 $48 $25 $-1 $49 reversed single #
face $-1 $50 $51 $26 $-1 $52 forward single #
face $-1 $53 $54 $27 $-1 $55 forward single #
face $-1 $56 $57 $21 $-1 $58 reversed single #
loop $-1 $-1 $59 $28 #
plane-surface $-1 0 0 7.8630163246754625 0 0 1 1 0 0 forward_v I I I I #
face $-1 $60 $61 $22 $-1 $62 reversed single #
loop $-1 $-1 $63 $29 #
plane-surface $-1 0 -23.106773442027649 0 0 1 0 0 0 1 forward_v I I I I #
face $-1 $64 $65 $23 $-1 $66 reversed single #
loop $-1 $-1 $67 $30 #
plane-surface $-1 56.064230949658977 10.339972421706751 154.03118588266477 0 -1 0 -0.71933980857756763 0 -0.69465836192734942 forward_v I I I I #
face $-1 $68 $69 $24 $-1 $70 forward single #
loop $-1 $71 $72 $31 #
cone-surface $-1 50.54697852616367 6.3197145542247632 4.9158703441577947 -0.71933980857756763 0 -0.69465836192734942 0.69465836192734942 0 -0.71933980857756763 1 I I 0 1 1 forward I I I I #
face $-1 $73 $74 $25 $-1 $75 reversed single #
loop $-1 $-1 $76 $32 #
plane-surface $-1 -145.01854774725791 5.8357632390914596 55.159948397544895 0 1 0 -0.85716730853699208 0 0.51503806187062418 forward_v I I I I #
face $-1 $77 $78 $26 $-1 $79 forward single #
loop $-1 $80 $81 $33 #
cone-surface $-1 -50.673950772880886 8.4335395626735306 3.7370642355616974 0.85716730853699208 0 -0.51503806187062418 0.25751903093531209 0 0.42858365426849604 1 I I 0 1 0.5 forward I I I I #
face $-1 $82 $83 $27 $-1 $84 forward single #
loop $-1 $85 $86 $34 #
cone-surface $-1 -50.673950772880886 12.330204048046635 3.7370642355616974 0.85716730853699208 0 -0.51503806187062418 0.25751903093531209 0 0.42858365426849604 1 I I 0 1 0.5 forward I I I I #
face $-1 $87 $88 $21 $-1 $89 reversed single #
loop $-1 $-1 $90 $35 #
plane-surface $-1 0 0 -7.8630163246754625 0 0 1 1 0 0 forward_v I I I I #
coedge $-1 $91 $92 $93 $94 forward $36 $-1 #
face $-1 $95 $96 $22 $-1 $97 forward single #
loop $-1 $-1 $98 $38 #
plane-surface $-1 -53.426923429059727 0 0 1 0 0 0 0 -1 forward_v I I I I #
coedge $-1 $99 $100 $101 $102 forward $39 $-1 #
face $-1 $103 $104 $23 $-1 $105 reversed single #
loop $-1 $-1 $106 $41 #
plane-surface $-1 -20.799994795037392 6.3197145542247632 79.804267658567653 0.71933980857756763 0 0.69465836192734942 0.69465836192734942 0 -0.71933980857756763 forward_v I I I I #
coedge $-1 $107 $108 $109 $110 reversed $42 $-1 #
face $-1 $-1 $111 $24 $-1 $112 forward single #
loop $-1 $113 $114 $44 #
cone-surface $-1 49.684394226147504 6.3197145542247632 4.0828823880785245 -0.71933980857756763 0 -0.69465836192734942 0.34732918096367471 0 -0.35966990428878381 1 I I -0.70710678118654691 0.70710678118654813 0.5 forward I I I I #
loop $-1 $-1 $115 $31 #
coedge $-1 $72 $72 $116 $117 reversed $45 $-1 #
face $-1 $118 $119 $25 $-1 $120 reversed single #
loop $-1 $-1 $121 $47 #
plane-surface $-1 -53.426923429059727 10.381871805360088 0.12615020831857038 -0.85716730853699208 0 0.51503806187062418 0.51503806187062418 0 0.85716730853699208 forward_v I I I I #
coedge $-1 $122 $123 $124 $125 reversed $48 $-1 #
face $-1 $-1 $126 $26 $-1 $127 forward single #
loop $-1 $128 $129 $50 #
cone-surface $-1 -50.031075291478139 8.4335395626735306 3.3507856891587293 0.85716730853699208 0 -0.51503806187062418 0.12875951546765604 0 0.21429182713424802 1 I I -0.70710678118654746 0.70710678118654746 0.25 forward I I I I #
loop $-1 $-1 $130 $33 #
coedge $-1 $81 $81 $131 $132 reversed $51 $-1 #
face $-1 $-1 $133 $27 $-1 $134 forward single #
loop $-1 $135 $136 $53 #
cone-surface $-1 -50.031075291478139 12.330204048046635 3.3507856891587293 0.85716730853699208 0 -0.51503806187062418 0.12875951546765604 0 0.21429182713424802 1 I I -0.70710678118654746 0.70710678118654746 0.25 forward I I I I #
loop $-1 $-1 $137 $34 #
coedge $-1 $86 $86 $138 $139 reversed $54 $-1 #
face $-1 $140 $141 $21 $-1 $142 reversed single #
loop $-1 $-1 $143 $56 #
plane-surface $-1 0 -23.106773442027649 0 0 1 0 0 0 1 forward_v I I I I #
coedge $-1 $144 $145 $146 $147 forward $57 $-1 #
coedge $-1 $148 $59 $149 $150 forward $36 $-1 #
coedge $-1 $59 $148 $151 $152 forward $36 $-1 #
coedge $-1 $153 $154 $59 $94 reversed $155 $-1 #
edge $-1 $156 -23.106773442027649 $157 23.106773442027649 $93 $158 forward 7 unknown #
face $-1 $159 $160 $22 $-1 $161 reversed single #
loop $-1 $-1 $162 $60 #
plane-surface $-1 0 -28.170532438299901 2.3782504150711516 0 0 1 1 0 0 forward_v I I I I #
coedge $-1 $163 $164 $100 $165 forward $61 $-1 #
coedge $-1 $166 $63 $167 $168 reversed $39 $-1 #
coedge $-1 $63 $166 $98 $165 reversed $39 $-1 #
coedge $-1 $169 $162 $63 $102 reversed $96 $-1 #
edge $-1 $170 -53.426923429059727 $171 53.426923429059727 $101 $172 forward 7 unknown #
face $-1 $173 $174 $23 $-1 $175 reversed single #
loop $-1 $-1 $176 $64 #
plane-surface $-1 56.064230949658977 2.2994566867427757 154.03118588266477 0 1 0 0.71933980857756763 0 0.69465836192734942 forward_v I I I I #
coedge $-1 $177 $178 $179 $180 reversed $65 $-1 #
coedge $-1 $108 $67 $181 $182 reversed $42 $-1 #
coedge $-1 $67 $107 $177 $183 reversed $42 $-1 #
coedge $-1 $179 $184 $67 $110 forward $185 $-1 #
edge $-1 $186 -25.394807954230238 $187 -20.640746939892914 $109 $188 forward 7 unknown #
loop $-1 $-1 $116 $68 #
plane-surface $-1 -20.799994795037392 6.3197145542247632 79.804267658567653 0.71933980857756763 0 0.69465836192734942 0.69465836192734942 0 -0.71933980857756763 forward_v I I I I #
loop $-1 $-1 $189 $44 #
coedge $-1 $114 $114 $115 $190 reversed $69 $-1 #
coedge $-1 $115 $115 $114 $190 forward $71 $-1 #
coedge $-1 $116 $116 $72 $117 forward $111 $-1 #
edge $-1 $191 0 $191 6.2831853071796004 $116 $192 forward 7 unknown #
face $-1 $193 $194 $25 $-1 $195 forward single #
loop $-1 $-1 $196 $73 #
plane-surface $-1 -145.01854774725791 14.927980371628717 55.159948397544895 0 -1 0 0.85716730853699208 0 -0.51503806187062418 forward_v I I I I #
coedge $-1 $197 $198 $199 $200 reversed $74 $-1 #
coedge $-1 $123 $76 $201 $202 reversed $48 $-1 #
coedge $-1 $76 $122 $197 $203 reversed $48 $-1 #
coedge $-1 $199 $204 $76 $125 forward $194 $-1 #
edge $-1 $205 19.082350444569229 $206 23.731128448389924 $124 $207 forward 7 unknown #
loop $-1 $-1 $131 $77 #
plane-surface $-1 -53.426923429059727 10.381871805360088 0.12615020831857038 -0.85716730853699208 0 0.51503806187062418 0.51503806187062418 0 0.85716730853699208 forward_v I I I I #
loop $-1 $-1 $208 $50 #
coedge $-1 $129 $129 $130 $209 reversed $78 $-1 #
coedge $-1 $130 $130 $129 $209 forward $80 $-1 #
coedge $-1 $131 $131 $81 $132 forward $126 $-1 #
edge $-1 $210 0 $210 6.2831853071796004 $131 $211 forward 7 unknown #
loop $-1 $-1 $138 $82 #
plane-surface $-1 -53.426923429059727 10.381871805360088 0.12615020831857038 -0.85716730853699208 0 0.51503806187062418 0.51503806187062418 0 0.85716730853699208 forward_v I I I I #
loop $-1 $-1 $212 $53 #
coedge $-1 $136 $136 $137 $213 reversed $83 $-1 #
coedge $-1 $137 $137 $136 $213 forward $85 $-1 #
coedge $-1 $138 $138 $86 $139 forward $133 $-1 #
edge $-1 $214 0 $214 6.2831853071796004 $138 $215 forward 7 unknown #
face $-1 $216 $217 $21 $-1 $218 reversed single #
loop $-1 $-1 $219 $87 #
plane-surface $-1 -53.426923429059727 0 0 1 0 0 0 0 -1 forward_v I I I I #
coedge $-1 $220 $151 $221 $222 forward $88 $-1 #
coedge $-1 $223 $90 $220 $224 forward $57 $-1 #
coedge $-1 $90 $223 $225 $226 forward $57 $-1 #
coedge $-1 $154 $153 $90 $147 reversed $155 $-1 #
edge $-1 $227 -23.106773442027649 $228 23.106773442027649 $146 $229 forward 7 unknown #
coedge $-1 $92 $91 $230 $231 forward $36 $-1 #
coedge $-1 $232 $233 $91 $150 reversed $217 $-1 #
edge $-1 $157 -53.426923429059727 $234 53.426923429059727 $149 $235 forward 7 unknown #
coedge $-1 $143 $236 $92 $152 reversed $88 $-1 #
edge $-1 $237 -53.426923429059727 $156 53.426923429059727 $151 $238 forward 7 unknown #
coedge $-1 $146 $93 $236 $239 forward $155 $-1 #
coedge $-1 $93 $146 $232 $240 reversed $155 $-1 #
loop $-1 $-1 $153 $216 #
vertex $-1 $94 $241 #
vertex $-1 $94 $242 #
straight-curve $-1 53.426923429059727 0 7.8630163246754625 0 1 0 I I #
face $-1 $243 $244 $22 $-1 $245 reversed single #
loop $-1 $-1 $246 $95 #
plane-surface $-1 0 -28.170532438299901 -2.3030843139255164 0 0 1 1 0 0 forward_v I I I I #
coedge $-1 $101 $247 $248 $249 forward $96 $-1 #
coedge $-1 $250 $98 $251 $252 reversed $61 $-1 #
coedge $-1 $98 $250 $169 $253 reversed $61 $-1 #
edge $-1 $170 -2.3782504150711516 $254 2.3030843139255164 $98 $255 forward 7 unknown #
coedge $-1 $100 $99 $256 $257 forward $39 $-1 #
coedge $-1 $248 $258 $99 $168 forward $259 $-1 #
edge $-1 $260 -2.3030843139255164 $171 2.3782504150711516 $167 $261 forward 7 unknown #
coedge $-1 $247 $101 $164 $253 forward $96 $-1 #
vertex $-1 $165 $262 #
vertex $-1 $249 $263 #
straight-curve $-1 0 -23.106773442027649 2.3782504150711516 1 0 0 I I #
face $-1 $-1 $185 $23 $-1 $264 forward single #
loop $-1 $-1 $265 $103 #
plane-surface $-1 53.426923429059727 0 0 -1 0 0 0 0 1 forward_v I I I I #
coedge $-1 $266 $267 $268 $269 reversed $104 $-1 #
coedge $-1 $270 $106 $108 $183 forward $65 $-1 #
coedge $-1 $106 $270 $266 $271 forward $65 $-1 #
coedge $-1 $268 $109 $106 $180 forward $185 $-1 #
edge $-1 $187 -7.1801151445943692 $272 0.86040059036960592 $179 $273 forward 7 unknown #
coedge $-1 $274 $275 $107 $182 forward $174 $-1 #
edge $-1 $276 -74.075551027461117 $186 -69.15257661665693 $181 $277 forward 7 unknown #
edge $-1 $187 100.01010715109709 $276 106.85384685811947 $108 $278 forward 7 unknown #
coedge $-1 $109 $268 $274 $279 forward $185 $-1 #
loop $-1 $-1 $268 $173 #
vertex $-1 $182 $280 #
vertex $-1 $110 $281 #
straight-curve $-1 28.032115474829489 10.339972421706751 7.8630163246754563 -1 0 0 I I #
coedge $-1 $189 $189 $-1 $282 reversed $113 $-1 #
edge $-1 $283 0 $283 6.2831853071796004 $114 $284 forward 7 unknown #
vertex $-1 $117 $285 #
ellipse-curve $-1 51.049892921891043 6.3197145542247632 5.4015291192733805 0.71933980857756763 0 0.69465836192734942 0.69465836192734942 0 -0.71933980857756763 1 I I #
face $-1 $-1 $286 $25 $-1 $287 reversed single #
loop $-1 $-1 $124 $118 #
plane-surface $-1 0 0 7.8630163246754625 0 0 1 1 0 0 forward_v I I I I #
coedge $-1 $288 $289 $290 $291 reversed $119 $-1 #
coedge $-1 $292 $121 $123 $203 forward $74 $-1 #
coedge $-1 $121 $292 $288 $293 forward $74 $-1 #
coedge $-1 $290 $124 $121 $200 forward $194 $-1 #
edge $-1 $206 0.64482733641141543 $294 9.7370444689486728 $199 $295 forward 7 unknown #
coedge $-1 $296 $297 $122 $202 forward $286 $-1 #
edge $-1 $298 -27.453823990453877 $205 -19.716957874096984 $201 $299 forward 7 unknown #
edge $-1 $206 -9.0260863186232907 $298 0 $123 $300 forward 7 unknown #
coedge $-1 $124 $290 $296 $301 forward $194 $-1 #
vertex $-1 $125 $302 #
vertex $-1 $125 $303 #
straight-curve $-1 -72.509273873628956 5.8357632390914596 7.8630163246754634 1 0 0 I I #
coedge $-1 $208 $208 $-1 $304 reversed $128 $-1 #
edge $-1 $305 0 $305 6.2831853071796004 $129 $306 forward 7 unknown #
vertex $-1 $132 $307 #
ellipse-curve $-1 -51.102534427149379 8.4335395626735306 3.9945832664970098 -0.85716730853699208 0 0.51503806187062418 0.25751903093531209 0 0.42858365426849604 1 I I #
coedge $-1 $212 $212 $-1 $308 reversed $135 $-1 #
edge $-1 $309 0 $309 6.2831853071796004 $136 $310 forward 7 unknown #
vertex $-1 $139 $311 #
ellipse-curve $-1 -51.102534427149379 12.330204048046635 3.9945832664970098 -0.85716730853699208 0 0.51503806187062418 0.25751903093531209 0 0.42858365426849604 1 I I #
face $-1 $-1 $155 $21 $-1 $312 reversed single #
loop $-1 $-1 $232 $140 #
plane-surface $-1 0 23.106773442027649 0 0 -1 0 0 0 -1 forward_v I I I I #
coedge $-1 $313 $230 $233 $314 forward $141 $-1 #
coedge $-1 $236 $143 $144 $224 reversed $88 $-1 #
coedge $-1 $230 $313 $143 $222 reversed $141 $-1 #
edge $-1 $237 -7.8630163246754625 $315 7.8630163246754625 $221 $316 forward 7 unknown #
coedge $-1 $145 $144 $313 $317 forward $57 $-1 #
edge $-1 $228 -53.426923429059727 $315 53.426923429059727 $220 $318 forward 7 unknown #
coedge $-1 $233 $232 $145 $226 reversed $217 $-1 #
edge $-1 $319 -53.426923429059727 $227 53.426923429059727 $225 $320 forward 7 unknown #
vertex $-1 $147 $321 #
vertex $-1 $239 $322 #
straight-curve $-1 53.426923429059727 0 -7.8630163246754625 0 -1 0 I I #
coedge $-1 $219 $221 $148 $231 reversed $141 $-1 #
edge $-1 $234 -23.106773442027649 $237 23.106773442027649 $230 $323 forward 7 unknown #
coedge $-1 $225 $149 $154 $240 forward $217 $-1 #
coedge $-1 $149 $225 $219 $314 reversed $217 $-1 #
vertex $-1 $150 $324 #
straight-curve $-1 0 23.106773442027649 7.8630163246754625 -1 0 0 I I #
coedge $-1 $151 $220 $153 $239 reversed $88 $-1 #
vertex $-1 $231 $325 #
straight-curve $-1 0 -23.106773442027649 7.8630163246754625 1 0 0 I I #
edge $-1 $156 -7.8630163246754625 $228 7.8630163246754625 $153 $326 forward 7 unknown #
edge $-1 $157 -7.8630163246754625 $227 7.8630163246754625 $154 $327 forward 7 unknown #
point $-1 53.426923429059727 -23.106773442027649 7.8630163246754625 #
point $-1 53.426923429059727 23.106773442027649 7.8630163246754625 #
face $-1 $-1 $259 $22 $-1 $328 reversed single #
loop $-1 $-1 $329 $159 #
plane-surface $-1 0 -33.234291434572157 0.037583050572817633 0 1 0 0 0 1 forward_v I I I I #
coedge $-1 $330 $256 $258 $331 forward $160 $-1 #
coedge $-1 $162 $169 $332 $333 forward $96 $-1 #
coedge $-1 $334 $167 $162 $249 reversed $259 $-1 #
edge $-1 $335 -5.0637589962722558 $171 5.0637589962722522 $248 $336 forward 7 unknown #
coedge $-1 $164 $163 $329 $337 reversed $61 $-1 #
coedge $-1 $256 $330 $163 $252 forward $160 $-1 #
edge $-1 $338 -5.0637589962722558 $254 5.0637589962722522 $163 $339 forward 7 unknown #
edge $-1 $170 -5.0637589962722522 $340 5.0637589962722558 $164 $341 forward 7 unknown #
vertex $-1 $165 $342 #
straight-curve $-1 -53.426923429059727 -23.106773442027649 0 0 0 -1 I I #
coedge $-1 $246 $251 $166 $257 reversed $160 $-1 #
edge $-1 $260 -53.426923429059727 $254 53.426923429059727 $256 $343 forward 7 unknown #
coedge $-1 $167 $334 $246 $331 reversed $259 $-1 #
loop $-1 $-1 $167 $243 #
vertex $-1 $168 $344 #
straight-curve $-1 53.426923429059727 -23.106773442027649 0 0 0 1 I I #
point $-1 -53.426923429059727 -23.106773442027649 2.3782504150711516 #
point $-1 53.426923429059727 -23.106773442027649 2.3782504150711516 #
plane-surface $-1 0 0 7.8630163246754625 0 0 1 1 0 0 forward_v I I I I #
coedge $-1 $275 $274 $267 $345 forward $174 $-1 #
coedge $-1 $267 $176 $178 $271 reversed $104 $-1 #
coedge $-1 $176 $266 $265 $345 reversed $104 $-1 #
coedge $-1 $184 $179 $176 $269 forward $185 $-1 #
edge $-1 $272 20.640746939892914 $346 25.394807954230238 $268 $347 forward 7 unknown #
coedge $-1 $178 $177 $275 $348 reversed $65 $-1 #
edge $-1 $349 -106.85384685811947 $272 -100.01010715109709 $266 $350 forward 7 unknown #
vertex $-1 $180 $351 #
straight-curve $-1 48.672862414722388 3.1598572771123816 7.8630163246754634 0 -1 0 I I #
coedge $-1 $265 $181 $184 $279 reversed $174 $-1 #
coedge $-1 $181 $265 $270 $348 forward $174 $-1 #
vertex $-1 $182 $352 #
straight-curve $-1 53.426923429059727 10.339972421706751 77.015592941332386 0 0 1 I I #
straight-curve $-1 -20.799994795037392 10.339972421706751 79.804267658567653 0.69465836192734942 0 -0.71933980857756763 I I #
edge $-1 $346 2.2994566867427757 $186 10.339972421706751 $274 $353 forward 7 unknown #
point $-1 53.426923429059727 10.339972421706751 7.8630163246754625 #
point $-1 48.672862414722402 10.339972421706751 7.8630163246754563 #
edge $-1 $354 1 $354 0 $189 $-1 forward 7 unknown #
vertex $-1 $190 $355 #
ellipse-curve $-1 50.04406413043629 6.3197145542247632 4.4302115690421999 0.71933980857756763 0 0.69465836192734942 0.69465836192734942 0 -0.71933980857756763 1 I I #
point $-1 51.74455128381841 6.3197145542247632 4.6821893106958212 #
loop $-1 $-1 $201 $193 #
plane-surface $-1 -53.426923429059727 0 0 1 0 0 0 0 -1 forward_v I I I I #
coedge $-1 $289 $196 $198 $293 reversed $119 $-1 #
coedge $-1 $196 $288 $356 $357 reversed $119 $-1 #
coedge $-1 $204 $199 $196 $291 forward $194 $-1 #
edge $-1 $294 -23.731128448389924 $358 -19.082350444569229 $290 $359 forward 7 unknown #
coedge $-1 $198 $197 $297 $360 reversed $74 $-1 #
edge $-1 $361 0 $294 9.0260863186232907 $288 $362 forward 7 unknown #
vertex $-1 $200 $363 #
straight-curve $-1 -48.778145425239039 5.1909359026800441 7.8630163246754634 0 1 0 I I #
coedge $-1 $356 $201 $204 $301 reversed $286 $-1 #
coedge $-1 $201 $356 $292 $360 forward $286 $-1 #
vertex $-1 $202 $364 #
straight-curve $-1 -53.426923429059727 5.8357632390914596 27.579974198772447 0 0 1 I I #
straight-curve $-1 -53.426923429059727 5.8357632390914596 0.12615020831857038 -0.51503806187062418 0 -0.85716730853699208 I I #
edge $-1 $358 -14.927980371628717 $205 -5.8357632390914596 $296 $365 forward 7 unknown #
point $-1 -53.426923429059727 5.8357632390914596 7.8630163246754625 #
point $-1 -48.778145425239032 5.8357632390914596 7.8630163246754634 #
edge $-1 $366 1 $366 0 $208 $-1 forward 7 unknown #
vertex $-1 $209 $367 #
ellipse-curve $-1 -50.245367118612386 8.4335395626735306 3.4795452046263855 -0.85716730853699208 0 0.51503806187062418 0.25751903093531209 0 0.42858365426849604 1 I I #
point $-1 -50.845015396214066 8.4335395626735306 4.4231669207655058 #
edge $-1 $368 1 $368 0 $212 $-1 forward 7 unknown #
vertex $-1 $213 $369 #
ellipse-curve $-1 -50.245367118612386 12.330204048046635 3.4795452046263855 -0.85716730853699208 0 0.51503806187062418 0.25751903093531209 0 0.42858365426849604 1 I I #
point $-1 -50.845015396214066 12.330204048046635 4.4231669207655058 #
plane-surface $-1 53.426923429059727 0 0 -1 0 0 0 0 1 forward_v I I I I #
coedge $-1 $221 $219 $223 $317 reversed $141 $-1 #
edge $-1 $234 -7.8630163246754625 $319 7.8630163246754625 $233 $370 forward 7 unknown #
vertex $-1 $317 $371 #
straight-curve $-1 -53.426923429059727 -23.106773442027649 0 0 0 -1 I I #
edge $-1 $315 -23.106773442027649 $319 23.106773442027649 $313 $372 forward 7 unknown #
straight-curve $-1 0 -23.106773442027649 -7.8630163246754625 -1 0 0 I I #
vertex $-1 $226 $373 #
straight-curve $-1 0 23.106773442027649 -7.8630163246754625 1 0 0 I I #
point $-1 53.426923429059727 23.106773442027649 -7.8630163246754625 #
point $-1 53.426923429059727 -23.106773442027649 -7.8630163246754625 #
straight-curve $-1 -53.426923429059727 0 7.8630163246754625 0 -1 0 I I #
point $-1 -53.426923429059727 23.106773442027649 7.8630163246754625 #
point $-1 -53.426923429059727 -23.106773442027649 7.8630163246754625 #
straight-curve $-1 53.426923429059727 -23.106773442027649 0 0 0 -1 I I #
straight-curve $-1 53.426923429059727 23.106773442027649 0 0 0 -1 I I #
plane-surface $-1 53.426923429059727 0 0 -1 0 0 0 0 1 forward_v I I I I #
coedge $-1 $374 $332 $250 $337 forward $244 $-1 #
coedge $-1 $251 $246 $374 $375 forward $160 $-1 #
edge $-1 $260 -5.0637589962722522 $376 5.0637589962722558 $258 $377 forward 7 unknown #
coedge $-1 $329 $378 $247 $333 reversed $244 $-1 #
edge $-1 $340 -53.426923429059727 $335 53.426923429059727 $332 $379 forward 7 unknown #
coedge $-1 $258 $248 $378 $380 forward $259 $-1 #
vertex $-1 $249 $381 #
straight-curve $-1 53.426923429059727 -28.170532438299901 2.3782504150711516 0 1 0 I I #
edge $-1 $340 -2.340667364498334 $338 2.340667364498334 $250 $382 forward 7 unknown #
vertex $-1 $252 $383 #
straight-curve $-1 -53.426923429059727 -28.170532438299901 -2.3030843139255164 0 1 0 I I #
vertex $-1 $253 $384 #
straight-curve $-1 -53.426923429059727 -28.170532438299901 2.3782504150711516 0 -1 0 I I #
point $-1 -53.426923429059727 -23.106773442027649 -2.3030843139255164 #
straight-curve $-1 0 -23.106773442027649 -2.3030843139255164 -1 0 0 I I #
point $-1 53.426923429059727 -23.106773442027649 -2.3030843139255164 #
edge $-1 $346 69.15257661665693 $349 74.075551027461117 $265 $385 forward 7 unknown #
vertex $-1 $279 $386 #
straight-curve $-1 28.032115474829489 2.2994566867427757 7.8630163246754563 1 0 0 I I #
edge $-1 $349 -0.86040059036960592 $276 7.1801151445943692 $275 $387 forward 7 unknown #
vertex $-1 $348 $388 #
straight-curve $-1 -20.799994795037392 2.2994566867427757 79.804267658567653 -0.69465836192734942 0 0.71933980857756763 I I #
point $-1 48.672862414722402 2.2994566867427757 7.8630163246754563 #
point $-1 53.426923429059727 10.339972421706751 2.9400419138712692 #
straight-curve $-1 53.426923429059727 0 7.8630163246754625 0 1 0 I I #
vertex $-1 $282 $389 #
point $-1 50.738722492363635 6.3197145542247632 3.7108717604646322 #
coedge $-1 $297 $296 $289 $357 forward $286 $-1 #
edge $-1 $358 19.716957874096984 $361 27.453823990453877 $356 $390 forward 7 unknown #
vertex $-1 $301 $391 #
straight-curve $-1 -72.509273873628956 14.927980371628717 7.8630163246754634 -1 0 0 I I #
edge $-1 $361 -9.7370444689486728 $298 -0.64482733641141543 $297 $392 forward 7 unknown #
vertex $-1 $360 $393 #
straight-curve $-1 -53.426923429059727 14.927980371628717 0.12615020831857038 0.51503806187062418 0 0.85716730853699208 I I #
point $-1 -48.778145425239032 14.927980371628717 7.8630163246754634 #
point $-1 -53.426923429059727 5.8357632390914596 0.12615020831857038 #
straight-curve $-1 -53.426923429059727 0 7.8630163246754625 0 -1 0 I I #
vertex $-1 $304 $394 #
point $-1 -49.987848087677072 8.4335395626735306 3.9081288588948815 #
vertex $-1 $308 $395 #
point $-1 -49.987848087677072 12.330204048046635 3.9081288588948815 #
straight-curve $-1 -53.426923429059727 23.106773442027649 0 0 0 -1 I I #
point $-1 -53.426923429059727 -23.106773442027649 -7.8630163246754625 #
straight-curve $-1 -53.426923429059727 0 -7.8630163246754625 0 1 0 I I #
point $-1 -53.426923429059727 23.106773442027649 -7.8630163246754625 #
coedge $-1 $378 $329 $330 $375 reversed $244 $-1 #
edge $-1 $376 -53.426923429059727 $338 53.426923429059727 $374 $396 forward 7 unknown #
vertex $-1 $380 $397 #
straight-curve $-1 53.426923429059727 -28.170532438299901 -2.3030843139255164 0 -1 0 I I #
coedge $-1 $332 $374 $334 $380 reversed $244 $-1 #
straight-curve $-1 0 -33.234291434572157 2.3782504150711516 1 0 0 I I #
edge $-1 $335 -2.340667364498334 $376 2.340667364498334 $334 $398 forward 7 unknown #
point $-1 53.426923429059727 -33.234291434572157 2.3782504150711516 #
straight-curve $-1 -53.426923429059727 -33.234291434572157 0.037583050572817633 0 0 -1 I I #
point $-1 -53.426923429059727 -33.234291434572157 -2.3030843139255164 #
point $-1 -53.426923429059727 -33.234291434572157 2.3782504150711516 #
straight-curve $-1 53.426923429059727 2.2994566867427757 77.015592941332386 0 0 -1 I I #
point $-1 53.426923429059727 2.2994566867427757 7.8630163246754625 #
straight-curve $-1 53.426923429059727 3.1598572771123816 2.9400419138712692 0 1 0 I I #
point $-1 53.426923429059727 2.2994566867427757 2.9400419138712692 #
point $-1 49.324724321858717 6.3197145542247632 3.7355532071148492 #
straight-curve $-1 -53.426923429059727 14.927980371628717 27.579974198772447 0 0 -1 I I #
point $-1 -53.426923429059727 14.927980371628717 7.8630163246754625 #
straight-curve $-1 -53.426923429059727 5.1909359026800441 0.12615020831857329 0 -1 0 I I #
point $-1 -53.426923429059727 14.927980371628717 0.12615020831857038 #
point $-1 -49.816783464343892 8.4335395626735306 3.2220261736910731 #
point $-1 -49.816783464343892 12.330204048046635 3.2220261736910731 #
straight-curve $-1 0 -33.234291434572157 -2.3030843139255164 -1 0 0 I I #
point $-1 53.426923429059727 -33.234291434572157 -2.3030843139255164 #
straight-curve $-1 53.426923429059727 -33.234291434572157 0.037583050572817633 0 0 -1 I I #
End-of-ACIS-data 