500 0 4 0           
7 Unknown 11 ACIS 5.0 NT 24 Fri Mar 26 15:52:27 1999 
-1 9.9999999999999995e-007 1e-010 
body $-1 $4 $-1 $5 #
body $-1 $6 $-1 $7 #
body $-1 $8 $-1 $9 #
body $-1 $10 $-1 $11 #
lump $-1 $-1 $12 $0 #
transform $-1 1 0 0 0 1 0 0 0 1 75.704214606158644 43.407184472153325 16.121078851143608 1 rotate no_reflect no_shear #
lump $-1 $-1 $13 $1 #
transform $-1 1 0 0 0 1 0 0 0 1 75.704214606158644 43.407184472153325 16.121078851143608 1 rotate no_reflect no_shear #
lump $-1 $-1 $14 $2 #
transform $-1 1 0 0 0 1 0 0 0 1 75.704214606158644 43.407184472153325 16.121078851143608 1 rotate no_reflect no_shear #
lump $-1 $-1 $15 $3 #
transform $-1 1 0 0 0 1 0 0 0 1 75.704214606158644 43.407184472153325 16.121078851143608 1 rotate no_reflect no_shear #
shell $-1 $-1 $-1 $16 $-1 $4 #
shell $-1 $-1 $-1 $17 $-1 $6 #
shell $-1 $-1 $-1 $18 $-1 $8 #
shell $-1 $-1 $-1 $19 $-1 $10 #
face $-1 $20 $21 $12 $-1 $22 forward single #
face $-1 $23 $24 $13 $-1 $25 forward single #
face $-1 $26 $27 $14 $-1 $28 forward single #
face $-1 $29 $30 $15 $-1 $31 reversed single #
face $-1 $32 $33 $12 $-1 $34 reversed single #
loop $-1 $-1 $35 $16 #
plane-surface $-1 0 0 16.121078851143608 0 0 1 1 0 0 forward_v I I I I #
face $-1 $36 $37 $13 $-1 $38 forward single #
loop $-1 $-1 $39 $17 #
plane-surface $-1 -69.486261309013273 -17.360279588536436 0 0 1 0 0 0 1 forward_v I I I I #
face $-1 $40 $41 $14 $-1 $42 forward single #
loop $-1 $-1 $43 $18 #
plane-surface $-1 75.704217090541704 1.5655783360605255 218.77531594531948 0 -1 0 -0.70710678939079041 0 -0.70710677298230451 forward_v I I I I #
face $-1 $44 $45 $15 $-1 $46 reversed single #
loop $-1 $47 $48 $19 #
cone-surface $-1 67.347541382684909 -10.562654214917757 7.7644055554336822 -0.70710678939079041 0 -0.70710677298230451 2.828427091929218 0 -2.8284271575631617 1 I I 0 1 4 forward I I I I #
face $-1 $49 $50 $12 $-1 $51 reversed single #
loop $-1 $-1 $52 $20 #
plane-surface $-1 0 0 -16.121078851143608 0 0 1 1 0 0 forward_v I I I I #
coedge $-1 $53 $54 $55 $56 forward $21 $-1 #
face $-1 $57 $58 $13 $-1 $59 forward single #
loop $-1 $-1 $60 $23 #
plane-surface $-1 -69.486261309013273 -11.16502676986611 0 0 -1 0 0 0 -1 forward_v I I I I #
coedge $-1 $61 $62 $63 $64 reversed $24 $-1 #
face $-1 $65 $66 $14 $-1 $67 forward single #
loop $-1 $-1 $68 $26 #
plane-surface $-1 -31.357711176482738 -10.562654214917757 111.71339016267811 0.70710678939079041 0 0.70710677298230451 0.70710677298230451 0 -0.70710678939079041 forward_v I I I I #
coedge $-1 $69 $70 $71 $72 reversed $27 $-1 #
face $-1 $73 $74 $15 $-1 $75 forward single #
loop $-1 $76 $77 $29 #
cone-surface $-1 63.311462925097715 -10.562654214917757 3.728327191504107 -0.70710678939079041 0 -0.70710677298230451 1.414213545964609 0 -1.4142135787815808 1 I I -0.70710678118654746 0.70710678118654746 2 forward I I I I #
loop $-1 $-1 $78 $19 #
coedge $-1 $48 $48 $79 $80 reversed $30 $-1 #
face $-1 $81 $82 $12 $-1 $83 reversed single #
loop $-1 $-1 $84 $32 #
plane-surface $-1 0 -43.407184472153325 0 0 1 0 0 0 1 forward_v I I I I #
coedge $-1 $85 $86 $87 $88 forward $33 $-1 #
coedge $-1 $89 $35 $90 $91 forward $21 $-1 #
coedge $-1 $35 $89 $92 $93 forward $21 $-1 #
coedge $-1 $94 $95 $35 $56 reversed $96 $-1 #
edge $-1 $97 -43.407184472153325 $98 43.407184472153325 $55 $99 forward 7 unknown #
face $-1 $100 $101 $13 $-1 $102 forward single #
loop $-1 $-1 $103 $36 #
plane-surface $-1 -63.268308011867902 -14.262653179201273 0 -1 0 0 0 0 1 forward_v I I I I #
coedge $-1 $104 $105 $106 $107 reversed $37 $-1 #
coedge $-1 $108 $39 $109 $110 reversed $24 $-1 #
coedge $-1 $39 $108 $111 $112 reversed $24 $-1 #
coedge $-1 $113 $114 $39 $64 forward $115 $-1 #
edge $-1 $116 -16.121078851143608 $117 16.121078851143608 $63 $118 forward 7 unknown #
face $-1 $119 $120 $14 $-1 $121 forward single #
loop $-1 $-1 $122 $40 #
plane-surface $-1 75.704217090541704 -22.690886765896039 218.77531594531948 0 1 0 0.70710678939079041 0 0.70710677298230451 forward_v I I I I #
coedge $-1 $123 $124 $125 $126 reversed $41 $-1 #
coedge $-1 $70 $43 $124 $127 forward $27 $-1 #
coedge $-1 $43 $69 $128 $129 reversed $27 $-1 #
coedge $-1 $130 $125 $43 $72 forward $120 $-1 #
edge $-1 $131 26.382489371551472 $132 37.852106060887792 $71 $133 forward 7 unknown #
face $-1 $134 $135 $15 $-1 $136 forward single #
loop $-1 $-1 $137 $44 #
plane-surface $-1 75.704217090541704 1.5655783360605255 218.77531594531948 0 -1 0 -0.70710678939079041 0 -0.70710677298230451 forward_v I I I I #
loop $-1 $-1 $138 $29 #
coedge $-1 $77 $77 $78 $139 forward $45 $-1 #
coedge $-1 $78 $78 $77 $139 reversed $47 $-1 #
coedge $-1 $79 $79 $48 $80 forward $135 $-1 #
edge $-1 $140 0 $140 6.2831853071796004 $79 $141 forward 7 unknown #
face $-1 $142 $143 $12 $-1 $144 reversed single #
loop $-1 $-1 $145 $49 #
plane-surface $-1 -75.704214606158644 0 0 1 0 0 0 0 -1 forward_v I I I I #
coedge $-1 $146 $92 $147 $148 forward $50 $-1 #
coedge $-1 $149 $52 $146 $150 forward $33 $-1 #
coedge $-1 $52 $149 $151 $152 forward $33 $-1 #
coedge $-1 $95 $94 $52 $88 reversed $96 $-1 #
edge $-1 $153 -43.407184472153325 $154 43.407184472153325 $87 $155 forward 7 unknown #
coedge $-1 $54 $53 $156 $157 forward $21 $-1 #
coedge $-1 $158 $159 $53 $91 reversed $143 $-1 #
edge $-1 $98 -75.704214606158644 $160 75.704214606158644 $90 $161 forward 7 unknown #
coedge $-1 $84 $162 $54 $93 reversed $50 $-1 #
edge $-1 $163 -75.704214606158644 $97 75.704214606158644 $92 $164 forward 7 unknown #
coedge $-1 $87 $55 $162 $165 forward $96 $-1 #
coedge $-1 $55 $87 $158 $166 reversed $96 $-1 #
loop $-1 $-1 $94 $142 #
vertex $-1 $56 $167 #
vertex $-1 $56 $168 #
straight-curve $-1 75.704214606158644 0 16.121078851143608 0 1 0 I I #
face $-1 $169 $115 $13 $-1 $170 reversed single #
loop $-1 $-1 $171 $57 #
plane-surface $-1 0 0 16.121078851143608 0 0 1 1 0 0 forward_v I I I I #
coedge $-1 $172 $173 $108 $174 reversed $58 $-1 #
coedge $-1 $175 $60 $171 $176 reversed $37 $-1 #
coedge $-1 $60 $175 $177 $178 reversed $37 $-1 #
coedge $-1 $173 $172 $60 $107 forward $58 $-1 #
edge $-1 $179 -16.121078851143608 $180 16.121078851143608 $106 $181 forward 7 unknown #
coedge $-1 $62 $61 $103 $174 forward $24 $-1 #
coedge $-1 $182 $183 $61 $110 forward $101 $-1 #
edge $-1 $184 28.525177357361265 $116 40.961083951652007 $109 $185 forward 7 unknown #
coedge $-1 $186 $187 $62 $112 forward $188 $-1 #
edge $-1 $117 -40.961083951652007 $189 -28.525177357361265 $111 $190 forward 7 unknown #
coedge $-1 $191 $63 $187 $192 reversed $115 $-1 #
coedge $-1 $63 $191 $182 $193 reversed $115 $-1 #
loop $-1 $-1 $63 $100 #
vertex $-1 $193 $194 #
vertex $-1 $64 $195 #
straight-curve $-1 -75.704214606158644 -17.360279588536436 0 0 0 -1 I I #
face $-1 $196 $197 $14 $-1 $198 forward single #
loop $-1 $-1 $199 $65 #
plane-surface $-1 0 0 16.121078851143608 0 0 1 1 0 0 forward_v I I I I #
coedge $-1 $200 $201 $199 $202 reversed $66 $-1 #
coedge $-1 $203 $68 $201 $204 reversed $41 $-1 #
coedge $-1 $68 $203 $69 $127 reversed $41 $-1 #
coedge $-1 $71 $199 $68 $126 forward $120 $-1 #
edge $-1 $205 -17.409559658437161 $131 6.8469054435194039 $125 $206 forward 7 unknown #
edge $-1 $131 135.18794154683809 $207 151.40842921231737 $69 $208 forward 7 unknown #
coedge $-1 $209 $210 $70 $129 forward $211 $-1 #
edge $-1 $132 93.266579121516131 $207 104.73619607700608 $128 $212 forward 7 unknown #
coedge $-1 $213 $71 $210 $214 forward $120 $-1 #
vertex $-1 $126 $215 #
vertex $-1 $214 $216 #
straight-curve $-1 37.852108545270852 1.5655783360605255 16.121078851143608 1 0 0 I I #
face $-1 $217 $218 $15 $-1 $219 forward single #
loop $-1 $220 $79 $73 #
plane-surface $-1 -31.357711176482738 -10.562654214917757 111.71339016267811 0.70710678939079041 0 0.70710677298230451 0.70710677298230451 0 -0.70710678939079041 forward_v I I I I #
coedge $-1 $221 $222 $223 $224 reversed $74 $-1 #
coedge $-1 $138 $138 $-1 $225 forward $76 $-1 #
edge $-1 $226 0 $226 6.2831853071796004 $77 $227 forward 7 unknown #
vertex $-1 $80 $228 #
ellipse-curve $-1 69.969406261490491 -10.562654214917757 10.386270373398624 -0.70710678939079041 0 -0.70710677298230451 2.828427091929218 0 -2.8284271575631617 1 I I #
face $-1 $-1 $96 $12 $-1 $229 reversed single #
loop $-1 $-1 $158 $81 #
plane-surface $-1 0 43.407184472153325 0 0 -1 0 0 0 -1 forward_v I I I I #
coedge $-1 $230 $156 $159 $231 forward $82 $-1 #
coedge $-1 $162 $84 $85 $150 reversed $50 $-1 #
coedge $-1 $156 $230 $84 $148 reversed $82 $-1 #
edge $-1 $163 -16.121078851143608 $232 16.121078851143608 $147 $233 forward 7 unknown #
coedge $-1 $86 $85 $230 $234 forward $33 $-1 #
edge $-1 $154 -75.704214606158644 $232 75.704214606158644 $146 $235 forward 7 unknown #
coedge $-1 $159 $158 $86 $152 reversed $143 $-1 #
edge $-1 $236 -75.704214606158644 $153 75.704214606158644 $151 $237 forward 7 unknown #
vertex $-1 $88 $238 #
vertex $-1 $165 $239 #
straight-curve $-1 75.704214606158644 0 -16.121078851143608 0 -1 0 I I #
coedge $-1 $145 $147 $89 $157 reversed $82 $-1 #
edge $-1 $160 -43.407184472153325 $163 43.407184472153325 $156 $240 forward 7 unknown #
coedge $-1 $151 $90 $95 $166 forward $143 $-1 #
coedge $-1 $90 $151 $145 $231 reversed $143 $-1 #
vertex $-1 $91 $241 #
straight-curve $-1 0 43.407184472153325 16.121078851143608 -1 0 0 I I #
coedge $-1 $92 $146 $94 $165 reversed $50 $-1 #
vertex $-1 $157 $242 #
straight-curve $-1 0 -43.407184472153325 16.121078851143608 1 0 0 I I #
edge $-1 $97 -16.121078851143608 $154 16.121078851143608 $94 $243 forward 7 unknown #
edge $-1 $98 -16.121078851143608 $153 16.121078851143608 $95 $244 forward 7 unknown #
point $-1 75.704214606158644 -43.407184472153325 16.121078851143608 #
point $-1 75.704214606158644 43.407184472153325 16.121078851143608 #
face $-1 $245 $188 $13 $-1 $246 reversed single #
plane-surface $-1 -75.704214606158644 0 0 1 0 0 0 0 -1 forward_v I I I I #
coedge $-1 $183 $247 $104 $176 forward $101 $-1 #
coedge $-1 $106 $103 $183 $248 reversed $58 $-1 #
coedge $-1 $103 $106 $186 $249 reversed $58 $-1 #
edge $-1 $184 -16.121078851143608 $189 16.121078851143608 $103 $250 forward 7 unknown #
coedge $-1 $105 $104 $251 $252 reversed $37 $-1 #
edge $-1 $253 -40.961083951652007 $179 -28.525177357361265 $171 $254 forward 7 unknown #
coedge $-1 $255 $186 $105 $178 forward $188 $-1 #
edge $-1 $180 28.525177357361265 $256 40.961083951652007 $177 $257 forward 7 unknown #
vertex $-1 $176 $258 #
vertex $-1 $178 $259 #
straight-curve $-1 -63.268308011867902 -11.16502676986611 0 0 0 -1 I I #
coedge $-1 $260 $109 $114 $193 forward $101 $-1 #
coedge $-1 $109 $171 $172 $248 forward $101 $-1 #
vertex $-1 $110 $261 #
straight-curve $-1 -34.743130654506636 -17.360279588536436 16.121078851143608 -1 0 0 I I #
coedge $-1 $177 $111 $173 $249 forward $188 $-1 #
coedge $-1 $111 $262 $113 $192 forward $188 $-1 #
loop $-1 $-1 $177 $169 #
vertex $-1 $112 $263 #
straight-curve $-1 -34.743130654506636 -17.360279588536436 -16.121078851143608 1 0 0 I I #
coedge $-1 $114 $113 $264 $265 reversed $115 $-1 #
edge $-1 $266 -43.407184472153325 $117 -17.360279588536436 $113 $267 forward 7 unknown #
edge $-1 $116 17.360279588536436 $268 43.407184472153325 $114 $269 forward 7 unknown #
point $-1 -75.704214606158644 -17.360279588536436 16.121078851143608 #
point $-1 -75.704214606158644 -17.360279588536436 -16.121078851143608 #
face $-1 $270 $271 $14 $-1 $272 forward single #
loop $-1 $-1 $273 $119 #
plane-surface $-1 -69.486261309013273 -17.360279588536436 0 0 1 0 0 0 1 forward_v I I I I #
coedge $-1 $125 $274 $122 $202 forward $120 $-1 #
coedge $-1 $201 $122 $275 $276 reversed $66 $-1 #
coedge $-1 $122 $200 $123 $204 forward $66 $-1 #
edge $-1 $277 -37.852106060887792 $205 -26.382489371551472 $199 $278 forward 7 unknown #
coedge $-1 $124 $123 $209 $279 reversed $41 $-1 #
edge $-1 $280 -151.40842921231737 $205 -135.18794154683809 $201 $281 forward 7 unknown #
vertex $-1 $126 $282 #
straight-curve $-1 64.234597916822324 -5.2813271074588783 16.121078851143601 0 1 0 I I #
vertex $-1 $279 $283 #
straight-curve $-1 -31.357711176482738 1.5655783360605255 111.71339016267811 0.70710677298230451 0 -0.70710678939079041 I I #
coedge $-1 $275 $128 $203 $279 forward $211 $-1 #
coedge $-1 $128 $284 $130 $214 reversed $211 $-1 #
loop $-1 $-1 $275 $285 #
straight-curve $-1 75.704214606158644 1.5655783360605255 109.38765797265974 0 0 -1 I I #
coedge $-1 $286 $130 $287 $288 forward $120 $-1 #
edge $-1 $132 1.5655783360605255 $289 43.407184472153325 $210 $290 forward 7 unknown #
point $-1 64.234597916822324 1.5655783360605255 16.121078851143608 #
point $-1 75.704214606158644 1.5655783360605255 16.121078851143608 #
face $-1 $291 $292 $15 $-1 $293 forward single #
loop $-1 $-1 $294 $134 #
plane-surface $-1 75.704217090541704 -22.690886765896039 218.77531594531948 0 1 0 0.70710678939079041 0 0.70710677298230451 forward_v I I I I #
loop $-1 $-1 $295 $73 #
coedge $-1 $222 $137 $296 $297 forward $74 $-1 #
coedge $-1 $137 $221 $298 $299 reversed $74 $-1 #
coedge $-1 $300 $301 $137 $224 forward $292 $-1 #
edge $-1 $302 26.382489371551472 $303 37.852106060887792 $223 $304 forward 7 unknown #
edge $-1 $305 1 $305 0 $138 $-1 forward 7 unknown #
vertex $-1 $139 $306 #
ellipse-curve $-1 64.725676503879299 -10.562654214917757 5.1425407374687158 0.70710678939079041 0 0.70710677298230451 2.828427091929218 0 -2.8284271575631617 1 I I #
point $-1 72.797833353419733 -10.562654214917757 7.5578432158354865 #
plane-surface $-1 75.704214606158644 0 0 -1 0 0 0 0 1 forward_v I I I I #
coedge $-1 $147 $145 $149 $234 reversed $82 $-1 #
edge $-1 $160 -16.121078851143608 $236 16.121078851143608 $159 $307 forward 7 unknown #
vertex $-1 $234 $308 #
straight-curve $-1 -75.704214606158644 -43.407184472153325 0 0 0 -1 I I #
edge $-1 $232 -43.407184472153325 $236 43.407184472153325 $230 $309 forward 7 unknown #
straight-curve $-1 0 -43.407184472153325 -16.121078851143608 -1 0 0 I I #
vertex $-1 $152 $310 #
straight-curve $-1 0 43.407184472153325 -16.121078851143608 1 0 0 I I #
point $-1 75.704214606158644 43.407184472153325 -16.121078851143608 #
point $-1 75.704214606158644 -43.407184472153325 -16.121078851143608 #
straight-curve $-1 -75.704214606158644 0 16.121078851143608 0 -1 0 I I #
point $-1 -75.704214606158644 43.407184472153325 16.121078851143608 #
point $-1 -75.704214606158644 -43.407184472153325 16.121078851143608 #
straight-curve $-1 75.704214606158644 -43.407184472153325 0 0 0 -1 I I #
straight-curve $-1 75.704214606158644 43.407184472153325 0 0 0 -1 I I #
face $-1 $311 $312 $13 $-1 $313 reversed single #
plane-surface $-1 0 0 -16.121078851143608 0 0 1 1 0 0 forward_v I I I I #
coedge $-1 $171 $314 $315 $316 forward $101 $-1 #
edge $-1 $179 4.0337001802654733 $184 10.228952998935799 $183 $317 forward 7 unknown #
edge $-1 $189 -10.228952998935799 $180 -4.0337001802654733 $186 $318 forward 7 unknown #
straight-curve $-1 -63.268308011867902 -17.360279588536436 0 0 0 -1 I I #
coedge $-1 $315 $319 $175 $252 forward $320 $-1 #
edge $-1 $256 -16.121078851143608 $253 16.121078851143608 $251 $321 forward 7 unknown #
vertex $-1 $252 $322 #
straight-curve $-1 -34.743130654506636 -11.16502676986611 16.121078851143608 1 0 0 I I #
coedge $-1 $323 $177 $319 $324 forward $188 $-1 #
vertex $-1 $324 $325 #
straight-curve $-1 -34.743130654506636 -11.16502676986611 -16.121078851143608 -1 0 0 I I #
point $-1 -63.268308011867902 -11.16502676986611 16.121078851143608 #
point $-1 -63.268308011867902 -11.16502676986611 -16.121078851143608 #
coedge $-1 $326 $182 $327 $328 forward $101 $-1 #
point $-1 -63.268308011867902 -17.360279588536436 16.121078851143608 #
coedge $-1 $187 $329 $330 $331 forward $188 $-1 #
point $-1 -63.268308011867902 -17.360279588536436 -16.121078851143608 #
coedge $-1 $330 $327 $191 $265 forward $312 $-1 #
edge $-1 $268 -16.121078851143608 $266 16.121078851143608 $191 $332 forward 7 unknown #
vertex $-1 $192 $333 #
straight-curve $-1 -75.704214606158644 0 -16.121078851143608 0 1 0 I I #
vertex $-1 $193 $334 #
straight-curve $-1 -75.704214606158644 0 16.121078851143608 0 -1 0 I I #
face $-1 $335 $336 $14 $-1 $337 forward single #
loop $-1 $-1 $338 $196 #
plane-surface $-1 -69.486261309013273 -11.16502676986611 0 0 -1 0 0 0 -1 forward_v I I I I #
coedge $-1 $339 $340 $341 $342 reversed $197 $-1 #
coedge $-1 $199 $343 $344 $345 forward $120 $-1 #
coedge $-1 $344 $209 $200 $276 forward $211 $-1 #
edge $-1 $280 -104.73619607700608 $277 -93.266579121516131 $275 $346 forward 7 unknown #
vertex $-1 $276 $347 #
straight-curve $-1 37.852108545270852 -22.690886765896039 16.121078851143608 -1 0 0 I I #
edge $-1 $207 -6.8469054435194039 $280 17.409559658437161 $209 $348 forward 7 unknown #
vertex $-1 $279 $349 #
straight-curve $-1 -31.357711176482738 -22.690886765896039 111.71339016267811 -0.70710677298230451 0 0.70710678939079041 I I #
point $-1 64.234597916822324 -22.690886765896039 16.121078851143608 #
point $-1 75.704214606158644 1.5655783360605255 4.6514618956536538 #
coedge $-1 $210 $350 $351 $352 reversed $211 $-1 #
face $-1 $-1 $211 $14 $-1 $353 reversed single #
coedge $-1 $354 $213 $355 $356 forward $120 $-1 #
coedge $-1 $351 $357 $213 $288 reversed $358 $-1 #
edge $-1 $289 -75.704214606158644 $359 75.704214606158644 $287 $360 forward 7 unknown #
vertex $-1 $214 $361 #
straight-curve $-1 75.704214606158644 0 16.121078851143608 0 1 0 I I #
face $-1 $362 $363 $15 $-1 $364 forward single #
loop $-1 $-1 $365 $217 #
plane-surface $-1 0 0 16.121078851143608 0 0 1 1 0 0 forward_v I I I I #
coedge $-1 $366 $367 $365 $368 reversed $218 $-1 #
coedge $-1 $369 $296 $301 $370 reversed $220 $-1 #
coedge $-1 $295 $371 $221 $297 reversed $220 $-1 #
edge $-1 $302 135.18794154683809 $372 151.40842921231737 $221 $373 forward 7 unknown #
coedge $-1 $374 $375 $222 $299 forward $376 $-1 #
edge $-1 $303 93.266579121516131 $372 104.73619607700608 $298 $377 forward 7 unknown #
coedge $-1 $378 $223 $375 $379 forward $292 $-1 #
coedge $-1 $223 $365 $295 $370 forward $292 $-1 #
vertex $-1 $370 $380 #
vertex $-1 $379 $381 #
straight-curve $-1 37.852108545270852 1.5655783360605255 16.121078851143608 1 0 0 I I #
vertex $-1 $225 $382 #
point $-1 67.554103595808513 -10.562654214917757 2.3141135799055546 #
straight-curve $-1 -75.704214606158644 43.407184472153325 0 0 0 -1 I I #
point $-1 -75.704214606158644 -43.407184472153325 -16.121078851143608 #
straight-curve $-1 -75.704214606158644 0 -16.121078851143608 0 1 0 I I #
point $-1 -75.704214606158644 43.407184472153325 -16.121078851143608 #
face $-1 $383 $320 $13 $-1 $170 reversed single #
loop $-1 $-1 $264 $245 #
plane-surface $-1 0 -43.407184472153325 0 0 1 0 0 0 1 forward_v I I I I #
coedge $-1 $247 $326 $384 $385 forward $101 $-1 #
coedge $-1 $386 $251 $247 $316 reversed $320 $-1 #
edge $-1 $387 -43.407184472153325 $253 11.16502676986611 $315 $269 forward 7 unknown #
straight-curve $-1 -63.268308011867902 -7.1313265896006364 16.121078851143608 0 -1 0 I I #
straight-curve $-1 -63.268308011867902 -7.1313265896006364 -16.121078851143608 0 1 0 I I #
coedge $-1 $251 $386 $255 $324 reversed $320 $-1 #
loop $-1 $-1 $251 $311 #
straight-curve $-1 -75.704214606158644 -11.16502676986611 0 0 0 1 I I #
point $-1 -75.704214606158644 -11.16502676986611 16.121078851143608 #
coedge $-1 $329 $255 $388 $389 forward $188 $-1 #
edge $-1 $256 -11.16502676986611 $390 43.407184472153325 $319 $267 forward 7 unknown #
point $-1 -75.704214606158644 -11.16502676986611 -16.121078851143608 #
coedge $-1 $314 $260 $391 $392 forward $101 $-1 #
coedge $-1 $264 $393 $260 $328 reversed $312 $-1 #
edge $-1 $268 -75.704214606158644 $394 75.704214606158644 $327 $395 forward 7 unknown #
coedge $-1 $262 $323 $396 $397 forward $188 $-1 #
coedge $-1 $393 $264 $262 $331 reversed $312 $-1 #
edge $-1 $398 -75.704214606158644 $266 75.704214606158644 $330 $399 forward 7 unknown #
straight-curve $-1 -75.704214606158644 -43.407184472153325 0 0 0 -1 I I #
point $-1 -75.704214606158644 -43.407184472153325 -16.121078851143608 #
point $-1 -75.704214606158644 -43.407184472153325 16.121078851143608 #
face $-1 $400 $401 $14 $-1 $402 reversed single #
loop $-1 $-1 $403 $270 #
plane-surface $-1 -63.268308011867902 -14.262653179201273 0 -1 0 0 0 0 1 forward_v I I I I #
coedge $-1 $404 $405 $406 $407 reversed $271 $-1 #
coedge $-1 $408 $273 $409 $410 reversed $197 $-1 #
coedge $-1 $273 $408 $411 $412 reversed $197 $-1 #
coedge $-1 $413 $414 $273 $342 forward $401 $-1 #
edge $-1 $415 -16.121078851143608 $416 16.121078851143608 $341 $417 forward 7 unknown #
coedge $-1 $274 $418 $419 $420 forward $120 $-1 #
coedge $-1 $421 $275 $274 $345 reversed $211 $-1 #
edge $-1 $422 -43.407184472153325 $277 -22.690886765896039 $344 $290 forward 7 unknown #
straight-curve $-1 75.704214606158644 -22.690886765896039 109.38765797265974 0 0 1 I I #
point $-1 75.704214606158644 -22.690886765896039 16.121078851143608 #
straight-curve $-1 75.704214606158644 -5.2813271074588783 4.6514618956536609 0 -1 0 I I #
point $-1 75.704214606158644 -22.690886765896039 4.6514618956536538 #
coedge $-1 $284 $421 $423 $424 reversed $211 $-1 #
coedge $-1 $425 $287 $284 $352 forward $358 $-1 #
edge $-1 $289 -16.121078851143608 $426 16.121078851143608 $284 $427 forward 7 unknown #
plane-surface $-1 75.704214606158644 0 0 -1 0 0 0 0 1 forward_v I I I I #
coedge $-1 $428 $286 $404 $429 forward $120 $-1 #
coedge $-1 $430 $431 $286 $356 reversed $432 $-1 #
edge $-1 $359 -43.407184472153325 $433 11.16502676986611 $355 $434 forward 7 unknown #
coedge $-1 $287 $425 $430 $435 reversed $358 $-1 #
loop $-1 $-1 $351 $436 #
vertex $-1 $288 $437 #
straight-curve $-1 0 43.407184472153325 16.121078851143608 -1 0 0 I I #
point $-1 75.704214606158644 43.407184472153325 16.121078851143608 #
face $-1 $438 $439 $15 $-1 $440 forward single #
loop $-1 $-1 $441 $291 #
plane-surface $-1 -69.486261309013273 -17.360279588536436 0 0 1 0 0 0 1 forward_v I I I I #
coedge $-1 $301 $442 $294 $368 forward $292 $-1 #
coedge $-1 $367 $294 $443 $444 reversed $218 $-1 #
coedge $-1 $294 $366 $369 $445 forward $218 $-1 #
edge $-1 $446 -37.852106060887792 $447 -26.382489371551472 $365 $448 forward 7 unknown #
coedge $-1 $371 $295 $367 $445 reversed $220 $-1 #
edge $-1 $447 -17.409559658437161 $302 6.8469054435194039 $301 $449 forward 7 unknown #
coedge $-1 $296 $369 $374 $450 reversed $220 $-1 #
vertex $-1 $450 $451 #
straight-curve $-1 -31.357711176482738 1.5655783360605255 111.71339016267811 0.70710677298230451 0 -0.70710678939079041 I I #
coedge $-1 $443 $298 $371 $450 forward $376 $-1 #
coedge $-1 $298 $452 $300 $379 reversed $376 $-1 #
loop $-1 $-1 $443 $453 #
straight-curve $-1 75.704214606158644 1.5655783360605255 109.38765797265974 0 0 -1 I I #
coedge $-1 $454 $300 $455 $456 forward $292 $-1 #
edge $-1 $303 1.5655783360605255 $457 43.407184472153325 $375 $458 forward 7 unknown #
point $-1 64.234597916822324 1.5655783360605255 16.121078851143608 #
point $-1 75.704214606158644 1.5655783360605255 16.121078851143608 #
point $-1 61.897249346316137 -10.562654214917757 2.3141136455394982 #
face $-1 $459 $460 $13 $-1 $461 reversed single #
coedge $-1 $462 $463 $314 $385 reversed $460 $-1 #
edge $-1 $464 -75.704214606158644 $387 75.704214606158644 $384 $465 forward 7 unknown #
coedge $-1 $319 $315 $463 $466 forward $320 $-1 #
vertex $-1 $385 $467 #
coedge $-1 $463 $462 $323 $389 reversed $460 $-1 #
edge $-1 $390 -75.704214606158644 $468 75.704214606158644 $388 $469 forward 7 unknown #
vertex $-1 $389 $470 #
coedge $-1 $471 $472 $326 $392 reversed $473 $-1 #
edge $-1 $394 -43.407184472153325 $464 43.407184472153325 $391 $474 forward 7 unknown #
coedge $-1 $327 $330 $471 $475 reversed $312 $-1 #
vertex $-1 $392 $476 #
straight-curve $-1 0 -43.407184472153325 16.121078851143608 1 0 0 I I #
coedge $-1 $472 $471 $329 $397 reversed $473 $-1 #
edge $-1 $468 -43.407184472153325 $398 43.407184472153325 $396 $477 forward 7 unknown #
vertex $-1 $475 $478 #
straight-curve $-1 0 -43.407184472153325 -16.121078851143608 -1 0 0 I I #
face $-1 $479 $480 $14 $-1 $481 reversed single #
loop $-1 $-1 $341 $335 #
plane-surface $-1 -75.704214606158644 0 0 1 0 0 0 0 -1 forward_v I I I I #
coedge $-1 $482 $483 $408 $484 reversed $336 $-1 #
coedge $-1 $485 $338 $354 $429 reversed $271 $-1 #
coedge $-1 $338 $485 $486 $487 reversed $271 $-1 #
coedge $-1 $483 $482 $338 $407 forward $336 $-1 #
edge $-1 $488 -16.121078851143608 $489 16.121078851143608 $406 $490 forward 7 unknown #
coedge $-1 $340 $339 $403 $484 forward $197 $-1 #
coedge $-1 $418 $428 $339 $410 forward $120 $-1 #
edge $-1 $491 28.525177357361265 $415 40.961083951652007 $409 $492 forward 7 unknown #
coedge $-1 $493 $494 $340 $412 forward $480 $-1 #
edge $-1 $416 -40.961083951652007 $495 -28.525177357361265 $411 $496 forward 7 unknown #
coedge $-1 $497 $341 $494 $498 reversed $401 $-1 #
coedge $-1 $341 $497 $418 $499 reversed $401 $-1 #
vertex $-1 $499 $500 #
vertex $-1 $342 $501 #
straight-curve $-1 -75.704214606158644 -17.360279588536436 0 0 0 -1 I I #
coedge $-1 $343 $409 $414 $499 forward $120 $-1 #
coedge $-1 $502 $503 $343 $420 reversed $504 $-1 #
edge $-1 $505 -75.704214606158644 $422 75.704214606158644 $419 $506 forward 7 unknown #
coedge $-1 $350 $344 $503 $507 forward $211 $-1 #
vertex $-1 $345 $508 #
coedge $-1 $509 $510 $350 $424 forward $480 $-1 #
edge $-1 $426 -43.407184472153325 $511 43.407184472153325 $350 $512 forward 7 unknown #
coedge $-1 $357 $351 $510 $513 reversed $358 $-1 #
vertex $-1 $424 $514 #
straight-curve $-1 75.704214606158644 43.407184472153325 0 0 0 -1 I I #
coedge $-1 $409 $354 $482 $515 forward $120 $-1 #
edge $-1 $433 -40.961083951652007 $488 -28.525177357361265 $354 $516 forward 7 unknown #
coedge $-1 $517 $355 $357 $435 forward $432 $-1 #
coedge $-1 $355 $517 $485 $518 forward $432 $-1 #
loop $-1 $-1 $431 $519 #
vertex $-1 $518 $520 #
straight-curve $-1 -75.704214606158644 0 16.121078851143608 0 -1 0 I I #
edge $-1 $359 -16.121078851143608 $521 16.121078851143608 $357 $522 forward 7 unknown #
face $-1 $285 $358 $14 $-1 $523 reversed single #
point $-1 -75.704214606158644 43.407184472153325 16.121078851143608 #
face $-1 $524 $525 $15 $-1 $526 forward single #
loop $-1 $-1 $527 $362 #
plane-surface $-1 -69.486261309013273 -11.16502676986611 0 0 -1 0 0 0 -1 forward_v I I I I #
coedge $-1 $528 $529 $530 $531 reversed $363 $-1 #
coedge $-1 $365 $532 $533 $534 forward $292 $-1 #
coedge $-1 $533 $374 $366 $444 forward $376 $-1 #
edge $-1 $535 -104.73619607700608 $446 -93.266579121516131 $443 $536 forward 7 unknown #
edge $-1 $535 -151.40842921231737 $447 -135.18794154683809 $367 $537 forward 7 unknown #
vertex $-1 $444 $538 #
vertex $-1 $370 $539 #
straight-curve $-1 37.852108545270852 -22.690886765896039 16.121078851143608 -1 0 0 I I #
straight-curve $-1 64.234597916822324 -5.2813271074588783 16.121078851143601 0 1 0 I I #
edge $-1 $372 -6.8469054435194039 $535 17.409559658437161 $374 $540 forward 7 unknown #
point $-1 75.704214606158644 1.5655783360605255 4.6514618956536538 #
coedge $-1 $375 $541 $542 $543 reversed $376 $-1 #
face $-1 $-1 $376 $15 $-1 $544 reversed single #
coedge $-1 $545 $378 $546 $547 forward $292 $-1 #
coedge $-1 $542 $548 $378 $456 reversed $549 $-1 #
edge $-1 $457 -75.704214606158644 $550 75.704214606158644 $455 $551 forward 7 unknown #
vertex $-1 $379 $552 #
straight-curve $-1 75.704214606158644 0 16.121078851143608 0 1 0 I I #
face $-1 $-1 $473 $13 $-1 $553 reversed single #
loop $-1 $-1 $462 $383 #
plane-surface $-1 0 43.407184472153325 0 0 -1 0 0 0 -1 forward_v I I I I #
coedge $-1 $388 $384 $472 $554 forward $460 $-1 #
coedge $-1 $384 $388 $386 $466 reversed $460 $-1 #
vertex $-1 $392 $555 #
straight-curve $-1 0 43.407184472153325 16.121078851143608 -1 0 0 I I #
edge $-1 $387 -16.121078851143608 $390 16.121078851143608 $463 $556 forward 7 unknown #
point $-1 -75.704214606158644 43.407184472153325 16.121078851143608 #
vertex $-1 $397 $557 #
straight-curve $-1 0 43.407184472153325 -16.121078851143608 1 0 0 I I #
point $-1 -75.704214606158644 43.407184472153325 -16.121078851143608 #
coedge $-1 $396 $391 $393 $475 forward $473 $-1 #
coedge $-1 $391 $396 $462 $554 reversed $473 $-1 #
loop $-1 $-1 $471 $459 #
straight-curve $-1 75.704214606158644 0 16.121078851143608 0 1 0 I I #
edge $-1 $394 -16.121078851143608 $398 16.121078851143608 $471 $558 forward 7 unknown #
point $-1 75.704214606158644 -43.407184472153325 16.121078851143608 #
straight-curve $-1 75.704214606158644 0 -16.121078851143608 0 -1 0 I I #
point $-1 75.704214606158644 -43.407184472153325 -16.121078851143608 #
face $-1 $519 $504 $14 $-1 $559 reversed single #
loop $-1 $-1 $486 $400 #
plane-surface $-1 0 0 -16.121078851143608 0 0 1 1 0 0 forward_v I I I I #
coedge $-1 $406 $403 $428 $515 reversed $336 $-1 #
coedge $-1 $403 $406 $493 $560 reversed $336 $-1 #
edge $-1 $491 -16.121078851143608 $495 16.121078851143608 $403 $561 forward 7 unknown #
coedge $-1 $405 $404 $431 $518 reversed $271 $-1 #
coedge $-1 $562 $493 $405 $487 forward $480 $-1 #
edge $-1 $489 28.525177357361265 $563 40.961083951652007 $486 $564 forward 7 unknown #
vertex $-1 $429 $565 #
vertex $-1 $487 $566 #
straight-curve $-1 -63.268308011867902 -11.16502676986611 0 0 0 -1 I I #
vertex $-1 $410 $567 #
straight-curve $-1 -34.743130654506636 -17.360279588536436 16.121078851143608 -1 0 0 I I #
coedge $-1 $486 $411 $483 $560 forward $480 $-1 #
coedge $-1 $411 $509 $413 $498 forward $480 $-1 #
vertex $-1 $412 $568 #
straight-curve $-1 -34.743130654506636 -17.360279588536436 -16.121078851143608 1 0 0 I I #
coedge $-1 $414 $413 $502 $569 reversed $401 $-1 #
edge $-1 $570 -43.407184472153325 $416 -17.360279588536436 $413 $571 forward 7 unknown #
edge $-1 $415 17.360279588536436 $505 43.407184472153325 $414 $434 forward 7 unknown #
point $-1 -75.704214606158644 -17.360279588536436 16.121078851143608 #
point $-1 -75.704214606158644 -17.360279588536436 -16.121078851143608 #
coedge $-1 $572 $419 $497 $569 forward $504 $-1 #
coedge $-1 $419 $572 $421 $507 reversed $504 $-1 #
loop $-1 $-1 $502 $479 #
vertex $-1 $499 $573 #
straight-curve $-1 0 -43.407184472153325 16.121078851143608 1 0 0 I I #
edge $-1 $422 -16.121078851143608 $511 16.121078851143608 $421 $574 forward 7 unknown #
point $-1 75.704214606158644 -43.407184472153325 16.121078851143608 #
coedge $-1 $494 $423 $572 $575 forward $480 $-1 #
coedge $-1 $423 $562 $425 $513 forward $480 $-1 #
vertex $-1 $507 $576 #
straight-curve $-1 75.704214606158644 0 -16.121078851143608 0 -1 0 I I #
edge $-1 $521 -75.704214606158644 $426 75.704214606158644 $425 $577 forward 7 unknown #
point $-1 75.704214606158644 43.407184472153325 -16.121078851143608 #
edge $-1 $488 4.0337001802654733 $491 10.228952998935799 $428 $578 forward 7 unknown #
straight-curve $-1 -34.743130654506636 -11.16502676986611 16.121078851143608 1 0 0 I I #
coedge $-1 $431 $430 $562 $579 reversed $432 $-1 #
edge $-1 $563 -16.121078851143608 $433 16.121078851143608 $431 $580 forward 7 unknown #
face $-1 $436 $432 $14 $-1 $402 reversed single #
point $-1 -75.704214606158644 -11.16502676986611 16.121078851143608 #
vertex $-1 $513 $581 #
straight-curve $-1 -75.704214606158644 43.407184472153325 0 0 0 -1 I I #
plane-surface $-1 0 43.407184472153325 0 0 -1 0 0 0 -1 forward_v I I I I #
face $-1 $582 $583 $15 $-1 $584 reversed single #
loop $-1 $-1 $585 $438 #
plane-surface $-1 -63.268308011867902 -14.262653179201273 0 -1 0 0 0 0 1 forward_v I I I I #
coedge $-1 $586 $587 $588 $589 reversed $439 $-1 #
coedge $-1 $590 $441 $591 $592 reversed $363 $-1 #
coedge $-1 $441 $590 $593 $594 reversed $363 $-1 #
coedge $-1 $595 $596 $441 $531 forward $583 $-1 #
edge $-1 $597 -16.121078851143608 $598 16.121078851143608 $530 $599 forward 7 unknown #
coedge $-1 $442 $600 $601 $602 forward $292 $-1 #
coedge $-1 $603 $443 $442 $534 reversed $376 $-1 #
edge $-1 $604 -43.407184472153325 $446 -22.690886765896039 $533 $458 forward 7 unknown #
vertex $-1 $450 $605 #
straight-curve $-1 75.704214606158644 -22.690886765896039 109.38765797265974 0 0 1 I I #
straight-curve $-1 -31.357711176482738 -22.690886765896039 111.71339016267811 -0.70710677298230451 0 0.70710678939079041 I I #
point $-1 75.704214606158644 -22.690886765896039 16.121078851143608 #
point $-1 64.234597916822324 -22.690886765896039 16.121078851143608 #
straight-curve $-1 75.704214606158644 -5.2813271074588783 4.6514618956536609 0 -1 0 I I #
coedge $-1 $452 $603 $606 $607 reversed $376 $-1 #
coedge $-1 $608 $455 $452 $543 forward $549 $-1 #
edge $-1 $457 -16.121078851143608 $609 16.121078851143608 $452 $610 forward 7 unknown #
plane-surface $-1 75.704214606158644 0 0 -1 0 0 0 0 1 forward_v I I I I #
coedge $-1 $611 $454 $586 $612 forward $292 $-1 #
coedge $-1 $613 $614 $454 $547 reversed $615 $-1 #
edge $-1 $550 -43.407184472153325 $616 11.16502676986611 $546 $617 forward 7 unknown #
coedge $-1 $455 $608 $613 $618 reversed $549 $-1 #
loop $-1 $-1 $542 $619 #
vertex $-1 $456 $620 #
straight-curve $-1 0 43.407184472153325 16.121078851143608 -1 0 0 I I #
point $-1 75.704214606158644 43.407184472153325 16.121078851143608 #
plane-surface $-1 75.704214606158644 0 0 -1 0 0 0 0 1 forward_v I I I I #
edge $-1 $464 -16.121078851143608 $468 16.121078851143608 $472 $621 forward 7 unknown #
point $-1 75.704214606158644 43.407184472153325 16.121078851143608 #
straight-curve $-1 -75.704214606158644 43.407184472153325 0 0 0 -1 I I #
point $-1 75.704214606158644 43.407184472153325 -16.121078851143608 #
straight-curve $-1 75.704214606158644 -43.407184472153325 0 0 0 -1 I I #
plane-surface $-1 0 -43.407184472153325 0 0 1 0 0 0 1 forward_v I I I I #
edge $-1 $495 -10.228952998935799 $489 -4.0337001802654733 $493 $622 forward 7 unknown #
straight-curve $-1 -63.268308011867902 -17.360279588536436 0 0 0 -1 I I #
coedge $-1 $510 $486 $517 $579 forward $480 $-1 #
vertex $-1 $579 $623 #
straight-curve $-1 -34.743130654506636 -11.16502676986611 -16.121078851143608 -1 0 0 I I #
point $-1 -63.268308011867902 -11.16502676986611 16.121078851143608 #
point $-1 -63.268308011867902 -11.16502676986611 -16.121078851143608 #
point $-1 -63.268308011867902 -17.360279588536436 16.121078851143608 #
point $-1 -63.268308011867902 -17.360279588536436 -16.121078851143608 #
edge $-1 $505 -16.121078851143608 $570 16.121078851143608 $497 $624 forward 7 unknown #
vertex $-1 $498 $625 #
straight-curve $-1 -75.704214606158644 0 -16.121078851143608 0 1 0 I I #
coedge $-1 $503 $502 $509 $575 reversed $504 $-1 #
point $-1 -75.704214606158644 -43.407184472153325 16.121078851143608 #
straight-curve $-1 75.704214606158644 -43.407184472153325 0 0 0 -1 I I #
edge $-1 $511 -75.704214606158644 $570 75.704214606158644 $572 $626 forward 7 unknown #
point $-1 75.704214606158644 -43.407184472153325 -16.121078851143608 #
straight-curve $-1 0 43.407184472153325 -16.121078851143608 1 0 0 I I #
straight-curve $-1 -63.268308011867902 -7.1313265896006364 16.121078851143608 0 -1 0 I I #
edge $-1 $563 -11.16502676986611 $521 43.407184472153325 $517 $571 forward 7 unknown #
straight-curve $-1 -75.704214606158644 -11.16502676986611 0 0 0 1 I I #
point $-1 -75.704214606158644 43.407184472153325 -16.121078851143608 #
face $-1 $627 $628 $15 $-1 $629 reversed single #
loop $-1 $-1 $530 $524 #
plane-surface $-1 -75.704214606158644 0 0 1 0 0 0 0 -1 forward_v I I I I #
coedge $-1 $630 $631 $590 $632 reversed $525 $-1 #
coedge $-1 $633 $527 $545 $612 reversed $439 $-1 #
coedge $-1 $527 $633 $634 $635 reversed $439 $-1 #
coedge $-1 $631 $630 $527 $589 forward $525 $-1 #
edge $-1 $636 -16.121078851143608 $637 16.121078851143608 $588 $638 forward 7 unknown #
coedge $-1 $529 $528 $585 $632 forward $363 $-1 #
coedge $-1 $600 $611 $528 $592 forward $292 $-1 #
edge $-1 $639 28.525177357361265 $597 40.961083951652007 $591 $640 forward 7 unknown #
coedge $-1 $641 $642 $529 $594 forward $628 $-1 #
edge $-1 $598 -40.961083951652007 $643 -28.525177357361265 $593 $644 forward 7 unknown #
coedge $-1 $645 $530 $642 $646 reversed $583 $-1 #
coedge $-1 $530 $645 $600 $647 reversed $583 $-1 #
vertex $-1 $647 $648 #
vertex $-1 $531 $649 #
straight-curve $-1 -75.704214606158644 -17.360279588536436 0 0 0 -1 I I #
coedge $-1 $532 $591 $596 $647 forward $292 $-1 #
coedge $-1 $650 $651 $532 $602 reversed $652 $-1 #
edge $-1 $653 -75.704214606158644 $604 75.704214606158644 $601 $654 forward 7 unknown #
coedge $-1 $541 $533 $651 $655 forward $376 $-1 #
vertex $-1 $534 $656 #
point $-1 75.704214606158644 -22.690886765896039 4.6514618956536538 #
coedge $-1 $657 $658 $541 $607 forward $628 $-1 #
edge $-1 $609 -43.407184472153325 $659 43.407184472153325 $541 $660 forward 7 unknown #
coedge $-1 $548 $542 $658 $661 reversed $549 $-1 #
vertex $-1 $607 $662 #
straight-curve $-1 75.704214606158644 43.407184472153325 0 0 0 -1 I I #
coedge $-1 $591 $545 $630 $663 forward $292 $-1 #
edge $-1 $616 -40.961083951652007 $636 -28.525177357361265 $545 $664 forward 7 unknown #
coedge $-1 $665 $546 $548 $618 forward $615 $-1 #
coedge $-1 $546 $665 $633 $666 forward $615 $-1 #
loop $-1 $-1 $614 $667 #
vertex $-1 $666 $668 #
straight-curve $-1 -75.704214606158644 0 16.121078851143608 0 -1 0 I I #
edge $-1 $550 -16.121078851143608 $669 16.121078851143608 $548 $670 forward 7 unknown #
face $-1 $453 $549 $15 $-1 $671 reversed single #
point $-1 -75.704214606158644 43.407184472153325 16.121078851143608 #
straight-curve $-1 75.704214606158644 43.407184472153325 0 0 0 -1 I I #
straight-curve $-1 -63.268308011867902 -7.1313265896006364 -16.121078851143608 0 1 0 I I #
point $-1 -75.704214606158644 -11.16502676986611 -16.121078851143608 #
straight-curve $-1 -75.704214606158644 -43.407184472153325 0 0 0 -1 I I #
point $-1 -75.704214606158644 -43.407184472153325 -16.121078851143608 #
straight-curve $-1 0 -43.407184472153325 -16.121078851143608 -1 0 0 I I #
face $-1 $667 $652 $15 $-1 $672 reversed single #
loop $-1 $-1 $634 $582 #
plane-surface $-1 0 0 -16.121078851143608 0 0 1 1 0 0 forward_v I I I I #
coedge $-1 $588 $585 $611 $663 reversed $525 $-1 #
coedge $-1 $585 $588 $641 $673 reversed $525 $-1 #
edge $-1 $639 -16.121078851143608 $643 16.121078851143608 $585 $674 forward 7 unknown #
coedge $-1 $587 $586 $614 $666 reversed $439 $-1 #
coedge $-1 $675 $641 $587 $635 forward $628 $-1 #
edge $-1 $637 28.525177357361265 $676 40.961083951652007 $634 $677 forward 7 unknown #
vertex $-1 $612 $678 #
vertex $-1 $635 $679 #
straight-curve $-1 -63.268308011867902 -11.16502676986611 0 0 0 -1 I I #
vertex $-1 $592 $680 #
straight-curve $-1 -34.743130654506636 -17.360279588536436 16.121078851143608 -1 0 0 I I #
coedge $-1 $634 $593 $631 $673 forward $628 $-1 #
coedge $-1 $593 $657 $595 $646 forward $628 $-1 #
vertex $-1 $594 $681 #
straight-curve $-1 -34.743130654506636 -17.360279588536436 -16.121078851143608 1 0 0 I I #
coedge $-1 $596 $595 $650 $682 reversed $583 $-1 #
edge $-1 $683 -43.407184472153325 $598 -17.360279588536436 $595 $684 forward 7 unknown #
edge $-1 $597 17.360279588536436 $653 43.407184472153325 $596 $617 forward 7 unknown #
point $-1 -75.704214606158644 -17.360279588536436 16.121078851143608 #
point $-1 -75.704214606158644 -17.360279588536436 -16.121078851143608 #
coedge $-1 $685 $601 $645 $682 forward $652 $-1 #
coedge $-1 $601 $685 $603 $655 reversed $652 $-1 #
loop $-1 $-1 $650 $627 #
vertex $-1 $647 $686 #
straight-curve $-1 0 -43.407184472153325 16.121078851143608 1 0 0 I I #
edge $-1 $604 -16.121078851143608 $659 16.121078851143608 $603 $687 forward 7 unknown #
point $-1 75.704214606158644 -43.407184472153325 16.121078851143608 #
coedge $-1 $642 $606 $685 $688 forward $628 $-1 #
coedge $-1 $606 $675 $608 $661 forward $628 $-1 #
vertex $-1 $655 $689 #
straight-curve $-1 75.704214606158644 0 -16.121078851143608 0 -1 0 I I #
edge $-1 $669 -75.704214606158644 $609 75.704214606158644 $608 $690 forward 7 unknown #
point $-1 75.704214606158644 43.407184472153325 -16.121078851143608 #
edge $-1 $636 4.0337001802654733 $639 10.228952998935799 $611 $691 forward 7 unknown #
straight-curve $-1 -34.743130654506636 -11.16502676986611 16.121078851143608 1 0 0 I I #
coedge $-1 $614 $613 $675 $692 reversed $615 $-1 #
edge $-1 $676 -16.121078851143608 $616 16.121078851143608 $614 $693 forward 7 unknown #
face $-1 $619 $615 $15 $-1 $584 reversed single #
point $-1 -75.704214606158644 -11.16502676986611 16.121078851143608 #
vertex $-1 $661 $694 #
straight-curve $-1 -75.704214606158644 43.407184472153325 0 0 0 -1 I I #
plane-surface $-1 0 43.407184472153325 0 0 -1 0 0 0 -1 forward_v I I I I #
plane-surface $-1 0 -43.407184472153325 0 0 1 0 0 0 1 forward_v I I I I #
edge $-1 $643 -10.228952998935799 $637 -4.0337001802654733 $641 $695 forward 7 unknown #
straight-curve $-1 -63.268308011867902 -17.360279588536436 0 0 0 -1 I I #
coedge $-1 $658 $634 $665 $692 forward $628 $-1 #
vertex $-1 $692 $696 #
straight-curve $-1 -34.743130654506636 -11.16502676986611 -16.121078851143608 -1 0 0 I I #
point $-1 -63.268308011867902 -11.16502676986611 16.121078851143608 #
point $-1 -63.268308011867902 -11.16502676986611 -16.121078851143608 #
point $-1 -63.268308011867902 -17.360279588536436 16.121078851143608 #
point $-1 -63.268308011867902 -17.360279588536436 -16.121078851143608 #
edge $-1 $653 -16.121078851143608 $683 16.121078851143608 $645 $697 forward 7 unknown #
vertex $-1 $646 $698 #
straight-curve $-1 -75.704214606158644 0 -16.121078851143608 0 1 0 I I #
coedge $-1 $651 $650 $657 $688 reversed $652 $-1 #
point $-1 -75.704214606158644 -43.407184472153325 16.121078851143608 #
straight-curve $-1 75.704214606158644 -43.407184472153325 0 0 0 -1 I I #
edge $-1 $659 -75.704214606158644 $683 75.704214606158644 $685 $699 forward 7 unknown #
point $-1 75.704214606158644 -43.407184472153325 -16.121078851143608 #
straight-curve $-1 0 43.407184472153325 -16.121078851143608 1 0 0 I I #
straight-curve $-1 -63.268308011867902 -7.1313265896006364 16.121078851143608 0 -1 0 I I #
edge $-1 $676 -11.16502676986611 $669 43.407184472153325 $665 $684 forward 7 unknown #
straight-curve $-1 -75.704214606158644 -11.16502676986611 0 0 0 1 I I #
point $-1 -75.704214606158644 43.407184472153325 -16.121078851143608 #
straight-curve $-1 -63.268308011867902 -7.1313265896006364 -16.121078851143608 0 1 0 I I #
point $-1 -75.704214606158644 -11.16502676986611 -16.121078851143608 #
straight-curve $-1 -75.704214606158644 -43.407184472153325 0 0 0 -1 I I #
point $-1 -75.704214606158644 -43.407184472153325 -16.121078851143608 #
straight-curve $-1 0 -43.407184472153325 -16.121078851143608 -1 0 0 I I #
End-of-ACIS-data 