500 0 9 0           
7 Unknown 11 ACIS 5.0 NT 24 Thu Mar 25 16:21:53 1999 
-1 9.9999999999999995e-007 1e-010 
body $-1 $9 $-1 $10 #
body $-1 $11 $-1 $12 #
body $-1 $13 $-1 $14 #
body $-1 $15 $-1 $16 #
body $-1 $17 $-1 $18 #
body $-1 $19 $-1 $20 #
body $-1 $21 $-1 $22 #
body $-1 $23 $-1 $24 #
body $-1 $25 $-1 $26 #
lump $-1 $-1 $27 $0 #
transform $-1 1 0 0 0 1 0 0 0 1 51.523789178136539 28.711457372977339 6.149475966347004 1 rotate no_reflect no_shear #
lump $-1 $-1 $28 $1 #
transform $-1 1 0 0 0 1 0 0 0 1 51.523789178136539 28.711457372977339 6.149475966347004 1 rotate no_reflect no_shear #
lump $-1 $-1 $29 $2 #
transform $-1 1 0 0 0 1 0 0 0 1 51.523789178136539 28.711457372977339 6.149475966347004 1 rotate no_reflect no_shear #
lump $-1 $-1 $30 $3 #
transform $-1 1 0 0 0 1 0 0 0 1 51.523789178136539 28.711457372977339 6.149475966347004 1 rotate no_reflect no_shear #
lump $-1 $-1 $31 $4 #
transform $-1 1 0 0 0 1 0 0 0 1 51.523789178136539 28.711457372977339 6.149475966347004 1 rotate no_reflect no_shear #
lump $-1 $-1 $32 $5 #
transform $-1 1 0 0 0 1 0 0 0 1 51.523789178136539 28.711457372977339 6.149475966347004 1 rotate no_reflect no_shear #
lump $-1 $-1 $33 $6 #
transform $-1 1 0 0 0 1 0 0 0 1 51.523789178136539 28.711457372977339 6.149475966347004 1 rotate no_reflect no_shear #
lump $-1 $-1 $34 $7 #
transform $-1 1 0 0 0 1 0 0 0 1 51.523789178136539 28.711457372977339 6.149475966347004 1 rotate no_reflect no_shear #
lump $-1 $-1 $35 $8 #
transform $-1 1 0 0 0 1 0 0 0 1 51.523789178136539 28.711457372977339 6.149475966347004 1 rotate no_reflect no_shear #
shell $-1 $-1 $-1 $36 $-1 $9 #
shell $-1 $-1 $-1 $37 $-1 $11 #
shell $-1 $-1 $-1 $38 $-1 $13 #
shell $-1 $-1 $-1 $39 $-1 $15 #
shell $-1 $-1 $-1 $40 $-1 $17 #
shell $-1 $-1 $-1 $41 $-1 $19 #
shell $-1 $-1 $-1 $42 $-1 $21 #
shell $-1 $-1 $-1 $43 $-1 $23 #
shell $-1 $-1 $-1 $44 $-1 $25 #
face $-1 $45 $46 $27 $-1 $47 forward single #
face $-1 $48 $49 $28 $-1 $50 reversed single #
face $-1 $51 $52 $29 $-1 $53 forward single #
face $-1 $54 $55 $30 $-1 $56 reversed single #
face $-1 $57 $58 $31 $-1 $59 forward single #
face $-1 $60 $61 $32 $-1 $62 reversed single #
face $-1 $63 $64 $33 $-1 $65 forward single #
face $-1 $66 $67 $34 $-1 $68 reversed single #
face $-1 $69 $70 $35 $-1 $71 forward single #
face $-1 $72 $73 $27 $-1 $74 reversed single #
loop $-1 $-1 $75 $36 #
plane-surface $-1 0 0 6.149475966347004 0 0 1 1 0 0 forward_v I I I I #
face $-1 $76 $77 $28 $-1 $78 reversed single #
loop $-1 $-1 $79 $37 #
plane-surface $-1 -120.47607859676215 -19.023641679026184 77.090041283376692 0 -1 0 0.66913061440640931 0 -0.74314481823134659 forward_v I I I I #
face $-1 $80 $81 $29 $-1 $82 forward single #
loop $-1 $83 $84 $38 #
cone-surface $-1 -46.498722177005206 -23.86754952600176 1.2267805341786633 0.66913061440640931 0 -0.74314481823134659 1.1147172273470198 0 1.003695921609614 1 I I 0 1 1.5 forward I I I I #
face $-1 $85 $86 $30 $-1 $87 reversed single #
loop $-1 $-1 $88 $39 #
plane-surface $-1 -120.47607859676215 -4.6679129925375147 77.090041283376692 0 -1 0 0.66913061440640931 0 -0.74314481823134659 forward_v I I I I #
face $-1 $89 $90 $31 $-1 $91 forward single #
loop $-1 $92 $93 $40 #
cone-surface $-1 -46.498722177005206 -9.5118208395130921 1.2267805341786633 0.66913061440640931 0 -0.74314481823134659 1.1147172273470198 0 1.003695921609614 1 I I 0 1 1.5 forward I I I I #
face $-1 $94 $95 $32 $-1 $96 reversed single #
loop $-1 $-1 $97 $41 #
plane-surface $-1 -120.47607859676215 9.6878156939511566 77.090041283376692 0 -1 0 0.66913061440640931 0 -0.74314481823134659 forward_v I I I I #
face $-1 $98 $99 $33 $-1 $100 forward single #
loop $-1 $101 $102 $42 #
cone-surface $-1 -46.498722177005206 4.8439078469755792 1.2267805341786633 0.66913061440640931 0 -0.74314481823134659 1.1147172273470198 0 1.003695921609614 1 I I 0 1 1.5 forward I I I I #
face $-1 $103 $104 $34 $-1 $105 reversed single #
loop $-1 $-1 $106 $43 #
plane-surface $-1 -120.47607859676215 24.043544380439826 77.090041283376692 0 -1 0 0.66913061440640931 0 -0.74314481823134659 forward_v I I I I #
face $-1 $107 $108 $35 $-1 $109 forward single #
loop $-1 $110 $111 $44 #
cone-surface $-1 -46.498722177005206 19.199636533464247 1.2267805341786633 0.66913061440640931 0 -0.74314481823134659 1.1147172273470198 0 1.003695921609614 1 I I 0 1 1.5 forward I I I I #
face $-1 $112 $113 $27 $-1 $114 reversed single #
loop $-1 $-1 $115 $45 #
plane-surface $-1 0 0 -6.149475966347004 0 0 1 1 0 0 forward_v I I I I #
coedge $-1 $116 $117 $118 $119 forward $46 $-1 #
face $-1 $120 $121 $28 $-1 $122 forward single #
loop $-1 $-1 $123 $48 #
plane-surface $-1 -51.523789178136539 -23.86754952600176 0.51076739662369164 -0.66913061440640931 0 0.74314481823134659 0.74314481823134659 0 0.66913061440640931 forward_v I I I I #
coedge $-1 $124 $125 $126 $127 reversed $49 $-1 #
face $-1 $-1 $128 $29 $-1 $129 forward single #
loop $-1 $130 $131 $51 #
cone-surface $-1 -44.103017299384135 -23.86754952600176 -1.4339192268015237 0.66913061440640931 0 -0.74314481823134659 0.55735861367350992 0 0.50184796080480698 1 I I -0.70710678118654757 0.70710678118654757 0.75 forward I I I I #
loop $-1 $-1 $132 $38 #
coedge $-1 $84 $84 $133 $134 reversed $52 $-1 #
face $-1 $135 $136 $30 $-1 $137 reversed single #
loop $-1 $-1 $138 $54 #
plane-surface $-1 -51.523789178136539 -9.5118208395130921 0.51076739662369164 -0.66913061440640931 0 0.74314481823134659 0.74314481823134659 0 0.66913061440640931 forward_v I I I I #
coedge $-1 $139 $140 $141 $142 reversed $55 $-1 #
face $-1 $-1 $143 $31 $-1 $144 forward single #
loop $-1 $145 $146 $57 #
cone-surface $-1 -44.103017299384135 -9.5118208395130921 -1.4339192268015237 0.66913061440640931 0 -0.74314481823134659 0.55735861367350992 0 0.50184796080480698 1 I I -0.70710678118654757 0.70710678118654757 0.75 forward I I I I #
loop $-1 $-1 $147 $40 #
coedge $-1 $93 $93 $148 $149 reversed $58 $-1 #
face $-1 $150 $151 $32 $-1 $152 reversed single #
loop $-1 $-1 $153 $60 #
plane-surface $-1 -51.523789178136539 4.8439078469755792 0.51076739662369164 -0.66913061440640931 0 0.74314481823134659 0.74314481823134659 0 0.66913061440640931 forward_v I I I I #
coedge $-1 $154 $155 $156 $157 reversed $61 $-1 #
face $-1 $-1 $158 $33 $-1 $159 forward single #
loop $-1 $160 $161 $63 #
cone-surface $-1 -44.103017299384135 4.8439078469755792 -1.4339192268015237 0.66913061440640931 0 -0.74314481823134659 0.55735861367350992 0 0.50184796080480698 1 I I -0.70710678118654757 0.70710678118654757 0.75 forward I I I I #
loop $-1 $-1 $162 $42 #
coedge $-1 $102 $102 $163 $164 reversed $64 $-1 #
face $-1 $165 $166 $34 $-1 $167 reversed single #
loop $-1 $-1 $168 $66 #
plane-surface $-1 -51.523789178136539 19.199636533464247 0.51076739662369164 -0.66913061440640931 0 0.74314481823134659 0.74314481823134659 0 0.66913061440640931 forward_v I I I I #
coedge $-1 $169 $170 $171 $172 reversed $67 $-1 #
face $-1 $-1 $173 $35 $-1 $174 forward single #
loop $-1 $175 $176 $69 #
cone-surface $-1 -44.103017299384135 19.199636533464247 -1.4339192268015237 0.66913061440640931 0 -0.74314481823134659 0.55735861367350992 0 0.50184796080480698 1 I I -0.70710678118654757 0.70710678118654757 0.75 forward I I I I #
loop $-1 $-1 $177 $44 #
coedge $-1 $111 $111 $178 $179 reversed $70 $-1 #
face $-1 $180 $181 $27 $-1 $182 reversed single #
loop $-1 $-1 $183 $72 #
plane-surface $-1 0 -28.711457372977339 0 0 1 0 0 0 1 forward_v I I I I #
coedge $-1 $184 $185 $186 $187 forward $73 $-1 #
coedge $-1 $188 $75 $189 $190 forward $46 $-1 #
coedge $-1 $75 $188 $191 $192 forward $46 $-1 #
coedge $-1 $193 $194 $75 $119 reversed $195 $-1 #
edge $-1 $196 -28.711457372977339 $197 28.711457372977339 $118 $198 forward 7 unknown #
face $-1 $199 $200 $28 $-1 $201 reversed single #
loop $-1 $-1 $202 $76 #
plane-surface $-1 0 0 6.149475966347004 0 0 1 1 0 0 forward_v I I I I #
coedge $-1 $203 $204 $205 $206 reversed $77 $-1 #
coedge $-1 $125 $79 $207 $208 reversed $49 $-1 #
coedge $-1 $79 $124 $203 $209 reversed $49 $-1 #
coedge $-1 $205 $210 $79 $127 forward $200 $-1 #
edge $-1 $211 32.395544675341341 $212 38.034253245064654 $126 $213 forward 7 unknown #
loop $-1 $-1 $133 $80 #
plane-surface $-1 -51.523789178136539 -23.86754952600176 0.51076739662369164 -0.66913061440640931 0 0.74314481823134659 0.74314481823134659 0 0.66913061440640931 forward_v I I I I #
loop $-1 $-1 $214 $51 #
coedge $-1 $131 $131 $132 $215 reversed $81 $-1 #
coedge $-1 $132 $132 $131 $215 forward $83 $-1 #
coedge $-1 $133 $133 $84 $134 forward $128 $-1 #
edge $-1 $216 0 $216 6.2831853071796004 $133 $217 forward 7 unknown #
face $-1 $218 $219 $30 $-1 $220 forward single #
loop $-1 $-1 $221 $85 #
plane-surface $-1 -120.47607859676215 -14.35572868648867 77.090041283376692 0 1 0 -0.66913061440640931 0 0.74314481823134659 forward_v I I I I #
coedge $-1 $222 $223 $224 $225 reversed $86 $-1 #
coedge $-1 $140 $88 $226 $227 reversed $55 $-1 #
coedge $-1 $88 $139 $222 $228 reversed $55 $-1 #
coedge $-1 $224 $229 $88 $142 forward $230 $-1 #
edge $-1 $231 32.395544675341341 $232 38.034253245064654 $141 $233 forward 7 unknown #
loop $-1 $-1 $148 $89 #
plane-surface $-1 -51.523789178136539 -9.5118208395130921 0.51076739662369164 -0.66913061440640931 0 0.74314481823134659 0.74314481823134659 0 0.66913061440640931 forward_v I I I I #
loop $-1 $-1 $234 $57 #
coedge $-1 $146 $146 $147 $235 reversed $90 $-1 #
coedge $-1 $147 $147 $146 $235 forward $92 $-1 #
coedge $-1 $148 $148 $93 $149 forward $143 $-1 #
edge $-1 $236 0 $236 6.2831853071796004 $148 $237 forward 7 unknown #
face $-1 $238 $239 $32 $-1 $240 forward single #
loop $-1 $-1 $241 $94 #
plane-surface $-1 -120.47607859676215 1.7763568394002505e-015 77.090041283376692 0 1 0 -0.66913061440640931 0 0.74314481823134659 forward_v I I I I #
coedge $-1 $242 $243 $244 $245 reversed $95 $-1 #
coedge $-1 $155 $97 $246 $247 reversed $61 $-1 #
coedge $-1 $97 $154 $242 $248 reversed $61 $-1 #
coedge $-1 $244 $249 $97 $157 forward $250 $-1 #
edge $-1 $251 32.395544675341341 $252 38.034253245064654 $156 $253 forward 7 unknown #
loop $-1 $-1 $163 $98 #
plane-surface $-1 -51.523789178136539 4.8439078469755792 0.51076739662369164 -0.66913061440640931 0 0.74314481823134659 0.74314481823134659 0 0.66913061440640931 forward_v I I I I #
loop $-1 $-1 $254 $63 #
coedge $-1 $161 $161 $162 $255 reversed $99 $-1 #
coedge $-1 $162 $162 $161 $255 forward $101 $-1 #
coedge $-1 $163 $163 $102 $164 forward $158 $-1 #
edge $-1 $256 0 $256 6.2831853071796004 $163 $257 forward 7 unknown #
face $-1 $258 $259 $34 $-1 $260 forward single #
loop $-1 $-1 $261 $103 #
plane-surface $-1 -120.47607859676215 14.35572868648867 77.090041283376692 0 1 0 -0.66913061440640931 0 0.74314481823134659 forward_v I I I I #
coedge $-1 $262 $263 $264 $265 reversed $104 $-1 #
coedge $-1 $170 $106 $266 $267 reversed $67 $-1 #
coedge $-1 $106 $169 $262 $268 reversed $67 $-1 #
coedge $-1 $264 $269 $106 $172 forward $270 $-1 #
edge $-1 $271 32.395544675341341 $272 38.034253245064654 $171 $273 forward 7 unknown #
loop $-1 $-1 $178 $107 #
plane-surface $-1 -51.523789178136539 19.199636533464247 0.51076739662369164 -0.66913061440640931 0 0.74314481823134659 0.74314481823134659 0 0.66913061440640931 forward_v I I I I #
loop $-1 $-1 $274 $69 #
coedge $-1 $176 $176 $177 $275 reversed $108 $-1 #
coedge $-1 $177 $177 $176 $275 forward $110 $-1 #
coedge $-1 $178 $178 $111 $179 forward $173 $-1 #
edge $-1 $276 0 $276 6.2831853071796004 $178 $277 forward 7 unknown #
face $-1 $278 $279 $27 $-1 $280 reversed single #
loop $-1 $-1 $281 $112 #
plane-surface $-1 -51.523789178136539 0 0 1 0 0 0 0 -1 forward_v I I I I #
coedge $-1 $282 $191 $283 $284 forward $113 $-1 #
coedge $-1 $285 $115 $282 $286 forward $73 $-1 #
coedge $-1 $115 $285 $287 $288 forward $73 $-1 #
coedge $-1 $194 $193 $115 $187 reversed $195 $-1 #
edge $-1 $289 -28.711457372977339 $290 28.711457372977339 $186 $291 forward 7 unknown #
coedge $-1 $117 $116 $292 $293 forward $46 $-1 #
coedge $-1 $294 $295 $116 $190 reversed $279 $-1 #
edge $-1 $197 -51.523789178136539 $296 51.523789178136539 $189 $297 forward 7 unknown #
coedge $-1 $183 $298 $117 $192 reversed $113 $-1 #
edge $-1 $299 -51.523789178136539 $196 51.523789178136539 $191 $300 forward 7 unknown #
coedge $-1 $186 $118 $298 $301 forward $195 $-1 #
coedge $-1 $118 $186 $294 $302 reversed $195 $-1 #
loop $-1 $-1 $193 $278 #
vertex $-1 $119 $303 #
vertex $-1 $119 $304 #
straight-curve $-1 51.523789178136539 0 6.149475966347004 0 1 0 I I #
face $-1 $-1 $305 $28 $-1 $306 reversed single #
loop $-1 $-1 $126 $120 #
plane-surface $-1 -51.523789178136539 0 0 1 0 0 0 0 -1 forward_v I I I I #
coedge $-1 $207 $307 $308 $309 forward $121 $-1 #
coedge $-1 $308 $123 $125 $209 forward $77 $-1 #
coedge $-1 $123 $308 $310 $311 reversed $77 $-1 #
coedge $-1 $312 $126 $123 $206 forward $200 $-1 #
edge $-1 $212 7.0898669160253043 $313 16.777682609976459 $205 $314 forward 7 unknown #
coedge $-1 $315 $202 $124 $208 forward $121 $-1 #
edge $-1 $316 -14.976670288874665 $211 -8.7142501202445359 $207 $317 forward 7 unknown #
edge $-1 $212 0 $316 8.4269176276226005 $125 $318 forward 7 unknown #
coedge $-1 $126 $312 $315 $319 reversed $200 $-1 #
vertex $-1 $319 $320 #
vertex $-1 $127 $321 #
straight-curve $-1 -51.523789178136539 -19.023641679026184 38.545020641688346 0 0 -1 I I #
coedge $-1 $214 $214 $-1 $322 reversed $130 $-1 #
edge $-1 $323 0 $323 6.2831853071796004 $131 $324 forward 7 unknown #
vertex $-1 $134 $325 #
ellipse-curve $-1 -48.392579093821475 -23.86754952600176 3.3301216814853487 -0.66913061440640931 0 0.74314481823134659 1.1147172273470198 0 1.003695921609614 1 I I #
face $-1 $-1 $230 $30 $-1 $326 reversed single #
loop $-1 $-1 $327 $135 #
plane-surface $-1 0 0 6.149475966347004 0 0 1 1 0 0 forward_v I I I I #
coedge $-1 $328 $329 $330 $331 reversed $136 $-1 #
coedge $-1 $332 $138 $140 $228 forward $86 $-1 #
coedge $-1 $138 $332 $328 $333 forward $86 $-1 #
coedge $-1 $330 $141 $138 $225 forward $230 $-1 #
edge $-1 $232 -0.087997427219031366 $334 9.5998182667321235 $224 $335 forward 7 unknown #
coedge $-1 $336 $337 $139 $227 forward $219 $-1 #
edge $-1 $338 -14.976670288874665 $231 -8.7142501202445359 $226 $339 forward 7 unknown #
edge $-1 $232 0 $338 8.4269176276226005 $140 $340 forward 7 unknown #
coedge $-1 $141 $330 $336 $341 reversed $230 $-1 #
loop $-1 $-1 $330 $218 #
vertex $-1 $341 $342 #
vertex $-1 $142 $343 #
straight-curve $-1 -51.523789178136539 -4.6679129925375147 38.545020641688346 0 0 -1 I I #
coedge $-1 $234 $234 $-1 $344 reversed $145 $-1 #
edge $-1 $345 0 $345 6.2831853071796004 $146 $346 forward 7 unknown #
vertex $-1 $149 $347 #
ellipse-curve $-1 -48.392579093821475 -9.5118208395130921 3.3301216814853487 -0.66913061440640931 0 0.74314481823134659 1.1147172273470198 0 1.003695921609614 1 I I #
face $-1 $-1 $250 $32 $-1 $348 reversed single #
loop $-1 $-1 $349 $150 #
plane-surface $-1 0 0 6.149475966347004 0 0 1 1 0 0 forward_v I I I I #
coedge $-1 $350 $351 $352 $353 reversed $151 $-1 #
coedge $-1 $354 $153 $155 $248 forward $95 $-1 #
coedge $-1 $153 $354 $350 $355 forward $95 $-1 #
coedge $-1 $352 $156 $153 $245 forward $250 $-1 #
edge $-1 $252 -7.265861770463367 $356 2.4219539234877878 $244 $357 forward 7 unknown #
coedge $-1 $358 $359 $154 $247 forward $239 $-1 #
edge $-1 $360 -14.976670288874665 $251 -8.7142501202445359 $246 $361 forward 7 unknown #
edge $-1 $252 0 $360 8.4269176276226005 $155 $362 forward 7 unknown #
coedge $-1 $156 $352 $358 $363 reversed $250 $-1 #
loop $-1 $-1 $352 $238 #
vertex $-1 $363 $364 #
vertex $-1 $157 $365 #
straight-curve $-1 -51.523789178136539 9.6878156939511566 38.545020641688346 0 0 -1 I I #
coedge $-1 $254 $254 $-1 $366 reversed $160 $-1 #
edge $-1 $367 0 $367 6.2831853071796004 $161 $368 forward 7 unknown #
vertex $-1 $164 $369 #
ellipse-curve $-1 -48.392579093821475 4.8439078469755792 3.3301216814853487 -0.66913061440640931 0 0.74314481823134659 1.1147172273470198 0 1.003695921609614 1 I I #
face $-1 $-1 $270 $34 $-1 $370 reversed single #
loop $-1 $-1 $371 $165 #
plane-surface $-1 0 0 6.149475966347004 0 0 1 1 0 0 forward_v I I I I #
coedge $-1 $372 $373 $374 $375 reversed $166 $-1 #
coedge $-1 $376 $168 $170 $268 forward $104 $-1 #
coedge $-1 $168 $376 $372 $377 forward $104 $-1 #
coedge $-1 $374 $171 $168 $265 forward $270 $-1 #
edge $-1 $272 -14.443726113707703 $378 -4.755910419756546 $264 $379 forward 7 unknown #
coedge $-1 $380 $381 $169 $267 forward $259 $-1 #
edge $-1 $382 -14.976670288874665 $271 -8.7142501202445359 $266 $383 forward 7 unknown #
edge $-1 $272 0 $382 8.4269176276226005 $170 $384 forward 7 unknown #
coedge $-1 $171 $374 $380 $385 reversed $270 $-1 #
loop $-1 $-1 $374 $258 #
vertex $-1 $385 $386 #
vertex $-1 $172 $387 #
straight-curve $-1 -51.523789178136539 24.043544380439826 38.545020641688346 0 0 -1 I I #
coedge $-1 $274 $274 $-1 $388 reversed $175 $-1 #
edge $-1 $389 0 $389 6.2831853071796004 $176 $390 forward 7 unknown #
vertex $-1 $179 $391 #
ellipse-curve $-1 -48.392579093821475 19.199636533464247 3.3301216814853487 -0.66913061440640931 0 0.74314481823134659 1.1147172273470198 0 1.003695921609614 1 I I #
face $-1 $-1 $195 $27 $-1 $392 reversed single #
loop $-1 $-1 $294 $180 #
plane-surface $-1 0 28.711457372977339 0 0 -1 0 0 0 -1 forward_v I I I I #
coedge $-1 $393 $292 $295 $394 forward $181 $-1 #
coedge $-1 $298 $183 $184 $286 reversed $113 $-1 #
coedge $-1 $292 $393 $183 $284 reversed $181 $-1 #
edge $-1 $299 -6.149475966347004 $395 6.149475966347004 $283 $396 forward 7 unknown #
coedge $-1 $185 $184 $393 $397 forward $73 $-1 #
edge $-1 $290 -51.523789178136539 $395 51.523789178136539 $282 $398 forward 7 unknown #
coedge $-1 $295 $294 $185 $288 reversed $279 $-1 #
edge $-1 $399 -51.523789178136539 $289 51.523789178136539 $287 $400 forward 7 unknown #
vertex $-1 $187 $401 #
vertex $-1 $301 $402 #
straight-curve $-1 51.523789178136539 0 -6.149475966347004 0 -1 0 I I #
coedge $-1 $281 $283 $188 $293 reversed $181 $-1 #
edge $-1 $296 -28.711457372977339 $299 28.711457372977339 $292 $403 forward 7 unknown #
coedge $-1 $287 $189 $194 $302 forward $279 $-1 #
coedge $-1 $189 $287 $281 $394 reversed $279 $-1 #
vertex $-1 $190 $404 #
straight-curve $-1 0 28.711457372977339 6.149475966347004 -1 0 0 I I #
coedge $-1 $191 $282 $193 $301 reversed $113 $-1 #
vertex $-1 $293 $405 #
straight-curve $-1 0 -28.711457372977339 6.149475966347004 1 0 0 I I #
edge $-1 $196 -6.149475966347004 $290 6.149475966347004 $193 $406 forward 7 unknown #
edge $-1 $197 -6.149475966347004 $289 6.149475966347004 $194 $407 forward 7 unknown #
point $-1 51.523789178136539 -28.711457372977339 6.149475966347004 #
point $-1 51.523789178136539 28.711457372977339 6.149475966347004 #
loop $-1 $-1 $310 $199 #
plane-surface $-1 0 -28.711457372977339 0 0 1 0 0 0 1 forward_v I I I I #
coedge $-1 $202 $315 $408 $409 forward $121 $-1 #
coedge $-1 $204 $203 $202 $309 reversed $77 $-1 #
edge $-1 $410 -16.777682609976456 $316 -7.0898669160253043 $202 $411 forward 7 unknown #
coedge $-1 $408 $412 $204 $311 forward $305 $-1 #
edge $-1 $313 -18.973933420727462 $410 -10.547015793104864 $310 $413 forward 7 unknown #
coedge $-1 $210 $205 $412 $414 reversed $200 $-1 #
vertex $-1 $206 $415 #
straight-curve $-1 -51.523789178136539 -11.93377476300088 0.51076739662368953 0 -1 0 I I #
coedge $-1 $307 $207 $210 $319 forward $121 $-1 #
vertex $-1 $208 $416 #
straight-curve $-1 -60.238039298381075 -19.023641679026184 6.1494759663470049 -1 0 0 I I #
straight-curve $-1 -51.523789178136539 -19.023641679026184 0.51076739662369164 0.74314481823134659 0 0.66913061440640931 I I #
edge $-1 $211 19.023641679026184 $417 28.711457372977339 $210 $418 forward 7 unknown #
point $-1 -51.523789178136539 -19.023641679026184 6.149475966347004 #
point $-1 -51.523789178136539 -19.023641679026184 0.51076739662369164 #
edge $-1 $419 1 $419 0 $214 $-1 forward 7 unknown #
vertex $-1 $215 $420 #
ellipse-curve $-1 -44.604865260188944 -23.86754952600176 -0.87656061312801381 -0.66913061440640931 0 0.74314481823134659 1.1147172273470198 0 1.003695921609614 1 I I #
point $-1 -47.277861866474446 -23.86754952600176 4.3338176030949542 #
plane-surface $-1 -51.523789178136539 0 0 1 0 0 0 0 -1 forward_v I I I I #
coedge $-1 $337 $336 $329 $421 forward $219 $-1 #
coedge $-1 $329 $221 $223 $333 reversed $136 $-1 #
coedge $-1 $221 $328 $327 $421 reversed $136 $-1 #
coedge $-1 $229 $224 $221 $331 forward $230 $-1 #
edge $-1 $334 -38.034253245064654 $422 -32.395544675341341 $330 $423 forward 7 unknown #
coedge $-1 $223 $222 $337 $424 reversed $86 $-1 #
edge $-1 $425 -8.4269176276226005 $334 0 $328 $426 forward 7 unknown #
vertex $-1 $225 $427 #
straight-curve $-1 -51.523789178136539 -4.755910419756546 0.51076739662368953 0 -1 0 I I #
coedge $-1 $327 $226 $229 $341 forward $219 $-1 #
coedge $-1 $226 $327 $332 $424 forward $219 $-1 #
vertex $-1 $227 $428 #
straight-curve $-1 -60.238039298381075 -4.6679129925375147 6.1494759663470049 -1 0 0 I I #
straight-curve $-1 -51.523789178136539 -4.6679129925375147 0.51076739662369164 0.74314481823134659 0 0.66913061440640931 I I #
edge $-1 $231 4.6679129925375147 $422 14.35572868648867 $229 $429 forward 7 unknown #
point $-1 -51.523789178136539 -4.6679129925375147 6.149475966347004 #
point $-1 -51.523789178136539 -4.6679129925375147 0.51076739662369164 #
edge $-1 $430 1 $430 0 $234 $-1 forward 7 unknown #
vertex $-1 $235 $431 #
ellipse-curve $-1 -44.604865260188944 -9.5118208395130921 -0.87656061312801381 -0.66913061440640931 0 0.74314481823134659 1.1147172273470198 0 1.003695921609614 1 I I #
point $-1 -47.277861866474446 -9.5118208395130921 4.3338176030949542 #
plane-surface $-1 -51.523789178136539 0 0 1 0 0 0 0 -1 forward_v I I I I #
coedge $-1 $359 $358 $351 $432 forward $239 $-1 #
coedge $-1 $351 $241 $243 $355 reversed $151 $-1 #
coedge $-1 $241 $350 $349 $432 reversed $151 $-1 #
coedge $-1 $249 $244 $241 $353 forward $250 $-1 #
edge $-1 $356 -38.034253245064654 $433 -32.395544675341341 $352 $434 forward 7 unknown #
coedge $-1 $243 $242 $359 $435 reversed $95 $-1 #
edge $-1 $436 -8.4269176276226005 $356 0 $350 $437 forward 7 unknown #
vertex $-1 $245 $438 #
straight-curve $-1 -51.523789178136539 2.4219539234877896 0.51076739662368953 0 -1 0 I I #
coedge $-1 $349 $246 $249 $363 forward $239 $-1 #
coedge $-1 $246 $349 $354 $435 forward $239 $-1 #
vertex $-1 $247 $439 #
straight-curve $-1 -60.238039298381075 9.6878156939511566 6.1494759663470049 -1 0 0 I I #
straight-curve $-1 -51.523789178136539 9.6878156939511566 0.51076739662369164 0.74314481823134659 0 0.66913061440640931 I I #
edge $-1 $251 -9.6878156939511566 $433 -1.7763568394002505e-015 $249 $440 forward 7 unknown #
point $-1 -51.523789178136539 9.6878156939511566 6.149475966347004 #
point $-1 -51.523789178136539 9.6878156939511566 0.51076739662369164 #
edge $-1 $441 1 $441 0 $254 $-1 forward 7 unknown #
vertex $-1 $255 $442 #
ellipse-curve $-1 -44.604865260188944 4.8439078469755792 -0.87656061312801381 -0.66913061440640931 0 0.74314481823134659 1.1147172273470198 0 1.003695921609614 1 I I #
point $-1 -47.277861866474446 4.8439078469755792 4.3338176030949542 #
plane-surface $-1 -51.523789178136539 0 0 1 0 0 0 0 -1 forward_v I I I I #
coedge $-1 $381 $380 $373 $443 forward $259 $-1 #
coedge $-1 $373 $261 $263 $377 reversed $166 $-1 #
coedge $-1 $261 $372 $371 $443 reversed $166 $-1 #
coedge $-1 $269 $264 $261 $375 forward $270 $-1 #
edge $-1 $378 -38.034253245064654 $444 -32.395544675341341 $374 $445 forward 7 unknown #
coedge $-1 $263 $262 $381 $446 reversed $104 $-1 #
edge $-1 $447 -8.4269176276226005 $378 0 $372 $448 forward 7 unknown #
vertex $-1 $265 $449 #
straight-curve $-1 -51.523789178136539 9.5998182667321235 0.51076739662368953 0 -1 0 I I #
coedge $-1 $371 $266 $269 $385 forward $259 $-1 #
coedge $-1 $266 $371 $376 $446 forward $259 $-1 #
vertex $-1 $267 $450 #
straight-curve $-1 -60.238039298381075 24.043544380439826 6.1494759663470049 -1 0 0 I I #
straight-curve $-1 -51.523789178136539 24.043544380439826 0.51076739662369164 0.74314481823134659 0 0.66913061440640931 I I #
edge $-1 $271 -24.043544380439826 $444 -14.35572868648867 $269 $451 forward 7 unknown #
point $-1 -51.523789178136539 24.043544380439826 6.149475966347004 #
point $-1 -51.523789178136539 24.043544380439826 0.51076739662369164 #
edge $-1 $452 1 $452 0 $274 $-1 forward 7 unknown #
vertex $-1 $275 $453 #
ellipse-curve $-1 -44.604865260188944 19.199636533464247 -0.87656061312801381 -0.66913061440640931 0 0.74314481823134659 1.1147172273470198 0 1.003695921609614 1 I I #
point $-1 -47.277861866474446 19.199636533464247 4.3338176030949542 #
plane-surface $-1 51.523789178136539 0 0 -1 0 0 0 0 1 forward_v I I I I #
coedge $-1 $283 $281 $285 $397 reversed $181 $-1 #
edge $-1 $296 -6.149475966347004 $399 6.149475966347004 $295 $454 forward 7 unknown #
vertex $-1 $397 $455 #
straight-curve $-1 -51.523789178136539 -28.711457372977339 0 0 0 -1 I I #
edge $-1 $395 -28.711457372977339 $399 28.711457372977339 $393 $456 forward 7 unknown #
straight-curve $-1 0 -28.711457372977339 -6.149475966347004 -1 0 0 I I #
vertex $-1 $288 $457 #
straight-curve $-1 0 28.711457372977339 -6.149475966347004 1 0 0 I I #
point $-1 51.523789178136539 28.711457372977339 -6.149475966347004 #
point $-1 51.523789178136539 -28.711457372977339 -6.149475966347004 #
straight-curve $-1 -51.523789178136539 0 6.149475966347004 0 -1 0 I I #
point $-1 -51.523789178136539 28.711457372977339 6.149475966347004 #
point $-1 -51.523789178136539 -28.711457372977339 6.149475966347004 #
straight-curve $-1 51.523789178136539 -28.711457372977339 0 0 0 -1 I I #
straight-curve $-1 51.523789178136539 28.711457372977339 0 0 0 -1 I I #
coedge $-1 $412 $310 $307 $409 reversed $305 $-1 #
edge $-1 $417 -51.523789178136539 $410 -45.26136900950641 $408 $458 forward 7 unknown #
vertex $-1 $311 $459 #
straight-curve $-1 -45.26136900950641 -11.93377476300088 6.1494759663470013 0 1 0 I I #
coedge $-1 $310 $408 $312 $414 forward $305 $-1 #
straight-curve $-1 -37.423408875056353 -28.711457372977339 13.206807124141362 0.74314481823134659 0 0.66913061440640931 I I #
edge $-1 $417 -6.149475966347004 $313 -0.51076739662369164 $312 $460 forward 7 unknown #
point $-1 -51.523789178136539 -28.711457372977339 0.51076739662369164 #
point $-1 -45.26136900950641 -19.023641679026184 6.1494759663470031 #
vertex $-1 $319 $461 #
straight-curve $-1 -51.523789178136539 0 6.149475966347004 0 -1 0 I I #
vertex $-1 $322 $462 #
point $-1 -43.490148032841923 -23.86754952600176 0.12713530848160026 #
edge $-1 $422 8.7142501202445359 $425 14.976670288874665 $327 $463 forward 7 unknown #
vertex $-1 $331 $464 #
straight-curve $-1 -51.523789178136539 -14.35572868648867 38.545020641688346 0 0 1 I I #
edge $-1 $425 -9.5998182667321235 $338 0.087997427219031366 $337 $465 forward 7 unknown #
vertex $-1 $424 $466 #
straight-curve $-1 -51.523789178136539 -14.35572868648867 0.51076739662369164 -0.74314481823134659 0 -0.66913061440640931 I I #
point $-1 -51.523789178136539 -14.35572868648867 0.51076739662369164 #
point $-1 -45.26136900950641 -4.6679129925375147 6.1494759663470031 #
straight-curve $-1 -51.523789178136539 0 6.149475966347004 0 -1 0 I I #
vertex $-1 $344 $467 #
point $-1 -43.490148032841923 -9.5118208395130921 0.12713530848160026 #
edge $-1 $433 8.7142501202445359 $436 14.976670288874665 $349 $468 forward 7 unknown #
vertex $-1 $353 $469 #
straight-curve $-1 -51.523789178136539 1.7763568394002505e-015 38.545020641688346 0 0 1 I I #
edge $-1 $436 -2.4219539234877878 $360 7.265861770463367 $359 $470 forward 7 unknown #
vertex $-1 $435 $471 #
straight-curve $-1 -51.523789178136539 1.7763568394002505e-015 0.51076739662369164 -0.74314481823134659 0 -0.66913061440640931 I I #
point $-1 -51.523789178136539 1.7763568394002505e-015 0.51076739662369164 #
point $-1 -45.26136900950641 9.6878156939511566 6.1494759663470031 #
straight-curve $-1 -51.523789178136539 0 6.149475966347004 0 -1 0 I I #
vertex $-1 $366 $472 #
point $-1 -43.490148032841923 4.8439078469755792 0.12713530848160026 #
edge $-1 $444 8.7142501202445359 $447 14.976670288874665 $371 $473 forward 7 unknown #
vertex $-1 $375 $474 #
straight-curve $-1 -51.523789178136539 14.35572868648867 38.545020641688346 0 0 1 I I #
edge $-1 $447 4.755910419756546 $382 14.443726113707703 $381 $475 forward 7 unknown #
vertex $-1 $446 $476 #
straight-curve $-1 -51.523789178136539 14.35572868648867 0.51076739662369164 -0.74314481823134659 0 -0.66913061440640931 I I #
point $-1 -51.523789178136539 14.35572868648867 0.51076739662369164 #
point $-1 -45.26136900950641 24.043544380439826 6.1494759663470031 #
straight-curve $-1 -51.523789178136539 0 6.149475966347004 0 -1 0 I I #
vertex $-1 $388 $477 #
point $-1 -43.490148032841923 19.199636533464247 0.12713530848160026 #
straight-curve $-1 -51.523789178136539 28.711457372977339 0 0 0 -1 I I #
point $-1 -51.523789178136539 -28.711457372977339 -6.149475966347004 #
straight-curve $-1 -51.523789178136539 0 -6.149475966347004 0 1 0 I I #
point $-1 -51.523789178136539 28.711457372977339 -6.149475966347004 #
straight-curve $-1 0 -28.711457372977339 6.149475966347004 1 0 0 I I #
point $-1 -45.26136900950641 -28.711457372977335 6.1494759663470031 #
straight-curve $-1 -51.523789178136539 -28.711457372977339 0 0 0 -1 I I #
point $-1 -51.523789178136539 -28.711457372977339 6.149475966347004 #
point $-1 -43.601169338579325 -23.86754952600176 -1.9912778404750338 #
straight-curve $-1 -60.238039298381075 -14.35572868648867 6.1494759663470049 1 0 0 I I #
point $-1 -51.523789178136539 -14.35572868648867 6.149475966347004 #
straight-curve $-1 -45.26136900950641 -4.755910419756546 6.1494759663470013 0 1 0 I I #
point $-1 -45.26136900950641 -14.35572868648867 6.1494759663470031 #
point $-1 -43.601169338579325 -9.5118208395130921 -1.9912778404750338 #
straight-curve $-1 -60.238039298381075 1.7763568394002505e-015 6.1494759663470049 1 0 0 I I #
point $-1 -51.523789178136539 1.7763568394002505e-015 6.149475966347004 #
straight-curve $-1 -45.26136900950641 2.4219539234877896 6.1494759663470013 0 1 0 I I #
point $-1 -45.26136900950641 1.7763568394002505e-015 6.1494759663470031 #
point $-1 -43.601169338579325 4.8439078469755792 -1.9912778404750338 #
straight-curve $-1 -60.238039298381075 14.35572868648867 6.1494759663470049 1 0 0 I I #
point $-1 -51.523789178136539 14.35572868648867 6.149475966347004 #
straight-curve $-1 -45.26136900950641 9.5998182667321235 6.1494759663470013 0 1 0 I I #
point $-1 -45.26136900950641 14.35572868648867 6.1494759663470031 #
point $-1 -43.601169338579325 19.199636533464247 -1.9912778404750338 #
End-of-ACIS-data 