500 0 5 0           
7 Unknown 11 ACIS 5.0 NT 24 Fri Mar 26 00:53:12 1999 
-1 9.9999999999999995e-007 1e-010 
body $-1 $5 $-1 $6 #
body $-1 $7 $-1 $8 #
body $-1 $9 $-1 $10 #
body $-1 $11 $-1 $12 #
body $-1 $13 $-1 $14 #
lump $-1 $-1 $15 $0 #
transform $-1 1 0 0 0 1 0 0 0 1 54.922330393383589 36.690704674768135 16.208205850300644 1 rotate no_reflect no_shear #
lump $-1 $-1 $16 $1 #
transform $-1 1 0 0 0 1 0 0 0 1 54.922330393383589 36.690704674768135 16.208205850300644 1 rotate no_reflect no_shear #
lump $-1 $-1 $17 $2 #
transform $-1 1 0 0 0 1 0 0 0 1 54.922330393383589 36.690704674768135 16.208205850300644 1 rotate no_reflect no_shear #
lump $-1 $-1 $18 $3 #
transform $-1 1 0 0 0 1 0 0 0 1 54.922330393383589 36.690704674768135 16.208205850300644 1 rotate no_reflect no_shear #
lump $-1 $-1 $19 $4 #
transform $-1 1 0 0 0 1 0 0 0 1 54.922330393383589 36.690704674768135 16.208205850300644 1 rotate no_reflect no_shear #
shell $-1 $-1 $-1 $20 $-1 $5 #
shell $-1 $-1 $-1 $21 $-1 $7 #
shell $-1 $-1 $-1 $22 $-1 $9 #
shell $-1 $-1 $-1 $23 $-1 $11 #
shell $-1 $-1 $-1 $24 $-1 $13 #
face $-1 $25 $26 $15 $-1 $27 forward single #
face $-1 $28 $29 $16 $-1 $30 forward single #
face $-1 $31 $32 $17 $-1 $33 reversed single #
face $-1 $34 $35 $18 $-1 $36 forward single #
face $-1 $37 $38 $19 $-1 $39 forward single #
face $-1 $40 $41 $15 $-1 $42 reversed single #
loop $-1 $-1 $43 $20 #
plane-surface $-1 0 0 16.208205850300644 0 0 1 1 0 0 forward_v I I I I #
face $-1 $44 $45 $16 $-1 $46 forward single #
loop $-1 $-1 $47 $21 #
plane-surface $-1 0 -36.690704674768135 0 0 1 0 0 0 1 forward_v I I I I #
face $-1 $48 $49 $17 $-1 $50 reversed single #
loop $-1 $-1 $51 $22 #
plane-surface $-1 22.985348098713587 95.128268544202399 129.41732295026475 1 0 0 0 -0.86602541151947299 -0.49999998660252726 forward_v I I I I #
face $-1 $52 $53 $18 $-1 $54 forward single #
loop $-1 $55 $56 $23 #
cone-surface $-1 32.110200182905018 33.647970602609007 12.697023497551461 0 -0.86602541151947299 -0.49999998660252726 1.5 0 0 1 I I 0 1 1.5 forward I I I I #
face $-1 $57 $58 $19 $-1 $59 forward single #
loop $-1 $60 $61 $24 #
cone-surface $-1 45.797478309192172 33.647970602609007 12.697023497551461 0 -0.86602541151947299 -0.49999998660252726 1.5 0 0 1 I I 0 1 1.5 forward I I I I #
face $-1 $62 $63 $15 $-1 $64 reversed single #
loop $-1 $-1 $65 $25 #
plane-surface $-1 0 0 -16.208205850300644 0 0 1 1 0 0 forward_v I I I I #
coedge $-1 $66 $67 $68 $69 forward $26 $-1 #
face $-1 $70 $71 $16 $-1 $72 reversed single #
loop $-1 $-1 $73 $28 #
plane-surface $-1 0 0 16.208205850300644 0 0 1 1 0 0 forward_v I I I I #
coedge $-1 $74 $75 $76 $77 forward $29 $-1 #
face $-1 $78 $79 $17 $-1 $80 forward single #
loop $-1 $-1 $81 $31 #
plane-surface $-1 38.953839246048588 9.8312543173051381e-007 74.494994028522001 0 0.86602541151947299 0.49999998660252726 1 0 0 forward_v I I I I #
coedge $-1 $82 $83 $84 $85 reversed $32 $-1 #
face $-1 $-1 $86 $18 $-1 $87 forward single #
loop $-1 $88 $89 $34 #
cone-surface $-1 32.110200182905018 31.475123496317956 11.442529680645215 0 -0.86602541151947299 -0.49999998660252726 0.75 0 0 1 I I -0.70710678118654757 0.70710678118654757 0.75 forward I I I I #
loop $-1 $-1 $90 $23 #
coedge $-1 $56 $56 $91 $92 reversed $35 $-1 #
face $-1 $-1 $93 $19 $-1 $94 forward single #
loop $-1 $95 $96 $37 #
cone-surface $-1 45.797478309192172 31.475123496317956 11.442529680645215 0 -0.86602541151947299 -0.49999998660252726 0.75 0 0 1 I I -0.70710678118654757 0.70710678118654757 0.75 forward I I I I #
loop $-1 $-1 $97 $24 #
coedge $-1 $61 $61 $98 $99 reversed $38 $-1 #
face $-1 $100 $101 $15 $-1 $102 reversed single #
loop $-1 $-1 $103 $40 #
plane-surface $-1 0 -36.690704674768135 0 0 1 0 0 0 1 forward_v I I I I #
coedge $-1 $104 $105 $106 $107 forward $41 $-1 #
coedge $-1 $108 $43 $109 $110 forward $26 $-1 #
coedge $-1 $43 $108 $111 $112 forward $26 $-1 #
coedge $-1 $113 $114 $43 $69 reversed $115 $-1 #
edge $-1 $116 -36.690704674768135 $117 36.690704674768135 $68 $118 forward 7 unknown #
face $-1 $119 $120 $16 $-1 $121 reversed single #
loop $-1 $-1 $122 $44 #
plane-surface $-1 -54.922330393383589 0 0 1 0 0 0 0 -1 forward_v I I I I #
coedge $-1 $123 $124 $75 $125 forward $45 $-1 #
coedge $-1 $126 $47 $127 $128 reversed $29 $-1 #
coedge $-1 $47 $126 $73 $125 reversed $29 $-1 #
coedge $-1 $129 $130 $47 $77 reversed $131 $-1 #
edge $-1 $132 -16.208205850300644 $133 16.208205850300644 $76 $134 forward 7 unknown #
face $-1 $135 $136 $17 $-1 $137 reversed single #
loop $-1 $-1 $84 $48 #
plane-surface $-1 0 0 16.208205850300644 0 0 1 1 0 0 forward_v I I I I #
coedge $-1 $138 $139 $140 $141 reversed $49 $-1 #
coedge $-1 $83 $51 $142 $143 reversed $32 $-1 #
coedge $-1 $51 $82 $138 $144 reversed $32 $-1 #
coedge $-1 $140 $145 $51 $85 forward $79 $-1 #
edge $-1 $146 10.873429597333065 $147 13.912241646348463 $84 $148 forward 7 unknown #
loop $-1 $-1 $91 $52 #
plane-surface $-1 38.953839246048588 9.8312543173051381e-007 74.494994028522001 0 0.86602541151947299 0.49999998660252726 1 0 0 forward_v I I I I #
loop $-1 $-1 $149 $34 #
coedge $-1 $89 $89 $90 $150 reversed $53 $-1 #
coedge $-1 $90 $90 $89 $150 forward $55 $-1 #
coedge $-1 $91 $91 $56 $92 forward $86 $-1 #
edge $-1 $151 -7.3633592741354528e-017 $151 6.2831853071796004 $91 $152 forward 7 unknown #
loop $-1 $-1 $98 $57 #
plane-surface $-1 38.953839246048588 9.8312543173051381e-007 74.494994028522001 0 0.86602541151947299 0.49999998660252726 1 0 0 forward_v I I I I #
loop $-1 $-1 $153 $37 #
coedge $-1 $96 $96 $97 $154 reversed $58 $-1 #
coedge $-1 $97 $97 $96 $154 forward $60 $-1 #
coedge $-1 $98 $98 $61 $99 forward $93 $-1 #
edge $-1 $155 -7.3633592741354528e-017 $155 6.2831853071796004 $98 $156 forward 7 unknown #
face $-1 $157 $158 $15 $-1 $159 reversed single #
loop $-1 $-1 $160 $62 #
plane-surface $-1 -54.922330393383589 0 0 1 0 0 0 0 -1 forward_v I I I I #
coedge $-1 $161 $111 $162 $163 forward $63 $-1 #
coedge $-1 $164 $65 $161 $165 forward $41 $-1 #
coedge $-1 $65 $164 $166 $167 forward $41 $-1 #
coedge $-1 $114 $113 $65 $107 reversed $115 $-1 #
edge $-1 $168 -36.690704674768135 $169 36.690704674768135 $106 $170 forward 7 unknown #
coedge $-1 $67 $66 $171 $172 forward $26 $-1 #
coedge $-1 $173 $174 $66 $110 reversed $158 $-1 #
edge $-1 $117 -54.922330393383589 $175 54.922330393383589 $109 $176 forward 7 unknown #
coedge $-1 $103 $177 $67 $112 reversed $63 $-1 #
edge $-1 $178 -54.922330393383589 $116 54.922330393383589 $111 $179 forward 7 unknown #
coedge $-1 $106 $68 $177 $180 forward $115 $-1 #
coedge $-1 $68 $106 $173 $181 reversed $115 $-1 #
loop $-1 $-1 $113 $157 #
vertex $-1 $69 $182 #
vertex $-1 $69 $183 #
straight-curve $-1 54.922330393383589 0 16.208205850300644 0 1 0 I I #
face $-1 $184 $131 $16 $-1 $185 reversed single #
loop $-1 $-1 $186 $70 #
plane-surface $-1 -50.48309142113947 -57.655576477453131 0 0 1 0 0 0 1 forward_v I I I I #
coedge $-1 $187 $188 $126 $189 forward $71 $-1 #
coedge $-1 $190 $73 $188 $191 forward $45 $-1 #
coedge $-1 $73 $190 $129 $192 forward $45 $-1 #
edge $-1 $132 46.04385244889535 $193 54.922330393383589 $73 $194 forward 7 unknown #
coedge $-1 $75 $74 $122 $189 reversed $29 $-1 #
coedge $-1 $195 $196 $74 $128 forward $197 $-1 #
edge $-1 $198 -54.922330393383589 $133 -46.04385244889535 $127 $199 forward 7 unknown #
coedge $-1 $200 $76 $124 $192 reversed $131 $-1 #
coedge $-1 $76 $200 $195 $201 reversed $131 $-1 #
loop $-1 $-1 $200 $119 #
vertex $-1 $125 $202 #
vertex $-1 $201 $203 #
straight-curve $-1 -46.04385244889535 -36.690704674768135 0 0 0 -1 I I #
face $-1 $-1 $204 $17 $-1 $205 reversed single #
loop $-1 $-1 $206 $78 #
plane-surface $-1 54.922330393383589 0 0 -1 0 0 0 0 1 forward_v I I I I #
coedge $-1 $207 $81 $83 $144 forward $49 $-1 #
coedge $-1 $81 $207 $206 $208 reversed $49 $-1 #
coedge $-1 $209 $84 $81 $141 forward $79 $-1 #
edge $-1 $147 3.5084284756892927 $210 35.445410770359295 $140 $211 forward 7 unknown #
coedge $-1 $212 $213 $82 $143 forward $204 $-1 #
edge $-1 $214 -53.763832676421423 $146 -48.50045562483173 $142 $215 forward 7 unknown #
edge $-1 $147 67.303785088655857 $214 73.38140934953627 $83 $216 forward 7 unknown #
coedge $-1 $84 $209 $212 $217 forward $79 $-1 #
vertex $-1 $143 $218 #
vertex $-1 $85 $219 #
straight-curve $-1 22.985348098713587 47.564134272101199 16.208205850300644 0 -1 0 I I #
coedge $-1 $149 $149 $-1 $220 reversed $88 $-1 #
edge $-1 $221 0 $221 6.2831853071796004 $89 $222 forward 7 unknown #
vertex $-1 $92 $223 #
ellipse-curve $-1 32.110200182905018 35.171298650260432 13.576517324505799 0 0.86602541151947299 0.49999998660252726 1.5 0 0 1 I I #
coedge $-1 $153 $153 $-1 $224 reversed $95 $-1 #
edge $-1 $225 0 $225 6.2831853071796004 $96 $226 forward 7 unknown #
vertex $-1 $99 $227 #
ellipse-curve $-1 45.797478309192172 35.171298650260432 13.576517324505799 0 0.86602541151947299 0.49999998660252726 1.5 0 0 1 I I #
face $-1 $-1 $115 $15 $-1 $228 reversed single #
loop $-1 $-1 $173 $100 #
plane-surface $-1 0 36.690704674768135 0 0 -1 0 0 0 -1 forward_v I I I I #
coedge $-1 $229 $171 $174 $230 forward $101 $-1 #
coedge $-1 $177 $103 $104 $165 reversed $63 $-1 #
coedge $-1 $171 $229 $103 $163 reversed $101 $-1 #
edge $-1 $178 -16.208205850300644 $231 16.208205850300644 $162 $232 forward 7 unknown #
coedge $-1 $105 $104 $229 $233 forward $41 $-1 #
edge $-1 $169 -54.922330393383589 $231 54.922330393383589 $161 $234 forward 7 unknown #
coedge $-1 $174 $173 $105 $167 reversed $158 $-1 #
edge $-1 $235 -54.922330393383589 $168 54.922330393383589 $166 $236 forward 7 unknown #
vertex $-1 $107 $237 #
vertex $-1 $180 $238 #
straight-curve $-1 54.922330393383589 0 -16.208205850300644 0 -1 0 I I #
coedge $-1 $160 $162 $108 $172 reversed $101 $-1 #
edge $-1 $175 -36.690704674768135 $178 36.690704674768135 $171 $239 forward 7 unknown #
coedge $-1 $166 $109 $114 $181 forward $158 $-1 #
coedge $-1 $109 $166 $160 $230 reversed $158 $-1 #
vertex $-1 $110 $240 #
straight-curve $-1 0 36.690704674768135 16.208205850300644 -1 0 0 I I #
coedge $-1 $111 $161 $113 $180 reversed $63 $-1 #
vertex $-1 $172 $241 #
straight-curve $-1 0 -36.690704674768135 16.208205850300644 1 0 0 I I #
edge $-1 $116 -16.208205850300644 $169 16.208205850300644 $113 $242 forward 7 unknown #
edge $-1 $117 -16.208205850300644 $168 16.208205850300644 $114 $243 forward 7 unknown #
point $-1 54.922330393383589 -36.690704674768135 16.208205850300644 #
point $-1 54.922330393383589 36.690704674768135 16.208205850300644 #
face $-1 $-1 $197 $16 $-1 $244 reversed single #
plane-surface $-1 -46.04385244889535 -47.173140576110633 0 -1 0 0 0 0 1 forward_v I I I I #
coedge $-1 $245 $246 $247 $248 forward $120 $-1 #
coedge $-1 $247 $122 $196 $249 reversed $71 $-1 #
coedge $-1 $122 $247 $123 $191 reversed $71 $-1 #
edge $-1 $193 -16.208205850300644 $198 16.208205850300644 $122 $250 forward 7 unknown #
coedge $-1 $124 $123 $246 $251 forward $45 $-1 #
edge $-1 $193 36.690704674768135 $252 57.655576477453131 $188 $253 forward 7 unknown #
edge $-1 $254 -10.482435901342498 $132 10.482435901342498 $129 $255 forward 7 unknown #
vertex $-1 $191 $256 #
straight-curve $-1 0 -36.690704674768135 16.208205850300644 -1 0 0 I I #
coedge $-1 $257 $127 $130 $201 forward $197 $-1 #
coedge $-1 $127 $257 $187 $249 forward $197 $-1 #
loop $-1 $-1 $127 $184 #
vertex $-1 $189 $258 #
straight-curve $-1 0 -36.690704674768135 -16.208205850300644 1 0 0 I I #
coedge $-1 $130 $129 $259 $260 forward $131 $-1 #
edge $-1 $133 -10.482435901342498 $261 10.482435901342498 $130 $262 forward 7 unknown #
point $-1 -46.04385244889535 -36.690704674768135 16.208205850300644 #
point $-1 -46.04385244889535 -36.690704674768135 -16.208205850300644 #
loop $-1 $-1 $142 $135 #
plane-surface $-1 0 36.690704674768135 0 0 -1 0 0 0 -1 forward_v I I I I #
coedge $-1 $263 $264 $139 $208 forward $136 $-1 #
coedge $-1 $139 $138 $213 $265 reversed $49 $-1 #
edge $-1 $210 35.046506404591483 $266 41.124130665471895 $206 $267 forward 7 unknown #
coedge $-1 $145 $140 $264 $268 forward $79 $-1 #
vertex $-1 $268 $269 #
straight-curve $-1 19.476919623024294 33.651892625752723 16.208205850300651 1 0 0 I I #
coedge $-1 $270 $142 $145 $217 reversed $204 $-1 #
coedge $-1 $142 $270 $207 $265 forward $204 $-1 #
vertex $-1 $143 $271 #
straight-curve $-1 22.985348098713587 36.690704674768135 64.708661475132374 0 0 1 I I #
straight-curve $-1 22.985348098713587 9.8312543173051381e-007 74.494994028522001 0 0.49999998660252726 -0.86602541151947299 I I #
edge $-1 $272 -54.922330393383589 $146 -22.985348098713587 $212 $273 forward 7 unknown #
point $-1 22.985348098713587 36.690704674768135 16.208205850300644 #
point $-1 22.985348098713587 33.651892625752737 16.208205850300644 #
edge $-1 $274 1 $274 0 $149 $-1 forward 7 unknown #
vertex $-1 $150 $275 #
ellipse-curve $-1 32.110200182905018 32.12464255495756 11.817529670597111 0 0.86602541151947299 0.49999998660252726 1.5 0 0 1 I I #
point $-1 33.610200182905018 35.171298650260454 13.576517324505812 #
edge $-1 $276 1 $276 0 $153 $-1 forward 7 unknown #
vertex $-1 $154 $277 #
ellipse-curve $-1 45.797478309192172 32.12464255495756 11.817529670597111 0 0.86602541151947299 0.49999998660252726 1.5 0 0 1 I I #
point $-1 47.297478309192172 35.171298650260454 13.576517324505812 #
plane-surface $-1 54.922330393383589 0 0 -1 0 0 0 0 1 forward_v I I I I #
coedge $-1 $162 $160 $164 $233 reversed $101 $-1 #
edge $-1 $175 -16.208205850300644 $235 16.208205850300644 $174 $278 forward 7 unknown #
vertex $-1 $233 $279 #
straight-curve $-1 -54.922330393383589 -36.690704674768135 0 0 0 -1 I I #
edge $-1 $231 -36.690704674768135 $235 36.690704674768135 $229 $280 forward 7 unknown #
straight-curve $-1 0 -36.690704674768135 -16.208205850300644 -1 0 0 I I #
vertex $-1 $167 $281 #
straight-curve $-1 0 36.690704674768135 -16.208205850300644 1 0 0 I I #
point $-1 54.922330393383589 36.690704674768135 -16.208205850300644 #
point $-1 54.922330393383589 -36.690704674768135 -16.208205850300644 #
straight-curve $-1 -54.922330393383589 0 16.208205850300644 0 -1 0 I I #
point $-1 -54.922330393383589 36.690704674768135 16.208205850300644 #
point $-1 -54.922330393383589 -36.690704674768135 16.208205850300644 #
straight-curve $-1 54.922330393383589 -36.690704674768135 0 0 0 -1 I I #
straight-curve $-1 54.922330393383589 36.690704674768135 0 0 0 -1 I I #
plane-surface $-1 0 0 -16.208205850300644 0 0 1 1 0 0 forward_v I I I I #
coedge $-1 $259 $186 $257 $282 reversed $120 $-1 #
coedge $-1 $186 $259 $190 $251 reversed $120 $-1 #
coedge $-1 $188 $187 $186 $248 reversed $71 $-1 #
edge $-1 $252 -16.208205850300644 $283 16.208205850300644 $247 $284 forward 7 unknown #
edge $-1 $283 -57.655576477453131 $198 -36.690704674768135 $187 $285 forward 7 unknown #
straight-curve $-1 -54.922330393383589 -36.690704674768135 0 0 0 -1 I I #
edge $-1 $252 -4.4392389722441195 $254 4.4392389722441195 $246 $286 forward 7 unknown #
vertex $-1 $191 $287 #
straight-curve $-1 -54.922330393383589 0 16.208205850300644 0 -1 0 I I #
vertex $-1 $192 $288 #
straight-curve $-1 -46.04385244889535 -47.173140576110633 16.208205850300644 0 1 0 I I #
point $-1 -54.922330393383589 -36.690704674768135 16.208205850300644 #
coedge $-1 $196 $195 $245 $282 forward $197 $-1 #
point $-1 -54.922330393383589 -36.690704674768135 -16.208205850300644 #
coedge $-1 $246 $245 $200 $260 reversed $120 $-1 #
edge $-1 $254 -16.208205850300644 $261 16.208205850300644 $200 $289 forward 7 unknown #
vertex $-1 $260 $290 #
straight-curve $-1 -46.04385244889535 -47.173140576110633 -16.208205850300644 0 -1 0 I I #
coedge $-1 $264 $206 $270 $291 reversed $136 $-1 #
coedge $-1 $206 $263 $209 $268 reversed $136 $-1 #
edge $-1 $266 -35.445410770359295 $214 -3.5084284756892927 $213 $292 forward 7 unknown #
vertex $-1 $208 $293 #
straight-curve $-1 54.922330393383589 16.128639892991604 46.559370981656826 0 0.49999998660252726 -0.86602541151947299 I I #
edge $-1 $210 33.651892625752737 $272 36.690704674768135 $264 $294 forward 7 unknown #
point $-1 54.922330393383589 33.651892625752737 16.208205850300644 #
coedge $-1 $213 $212 $263 $291 forward $204 $-1 #
point $-1 22.985348098713587 36.690704674768135 10.944828798710951 #
vertex $-1 $268 $295 #
straight-curve $-1 0 36.690704674768135 16.208205850300644 -1 0 0 I I #
vertex $-1 $220 $296 #
point $-1 33.610200182905018 32.12464255495756 11.817529670597111 #
vertex $-1 $224 $297 #
point $-1 47.297478309192172 32.12464255495756 11.817529670597111 #
straight-curve $-1 -54.922330393383589 36.690704674768135 0 0 0 -1 I I #
point $-1 -54.922330393383589 -36.690704674768135 -16.208205850300644 #
straight-curve $-1 -54.922330393383589 0 -16.208205850300644 0 1 0 I I #
point $-1 -54.922330393383589 36.690704674768135 -16.208205850300644 #
edge $-1 $261 -4.4392389722441195 $283 4.4392389722441195 $245 $298 forward 7 unknown #
vertex $-1 $249 $299 #
straight-curve $-1 -54.922330393383589 -57.655576477453131 0 0 0 -1 I I #
straight-curve $-1 -54.922330393383589 0 -16.208205850300644 0 1 0 I I #
straight-curve $-1 -50.48309142113947 -57.655576477453131 16.208205850300644 1 0 0 I I #
point $-1 -54.922330393383589 -57.655576477453131 16.208205850300644 #
point $-1 -46.04385244889535 -57.655576477453131 16.208205850300644 #
straight-curve $-1 -46.04385244889535 -57.655576477453131 0 0 0 -1 I I #
point $-1 -46.04385244889535 -57.655576477453131 -16.208205850300644 #
edge $-1 $272 -16.208205850300644 $266 -10.944828798710951 $263 $300 forward 7 unknown #
straight-curve $-1 19.476919623024294 36.690704674768135 10.944828798710947 -1 0 0 I I #
point $-1 54.922330393383589 36.690704674768135 10.944828798710951 #
straight-curve $-1 54.922330393383589 0 16.208205850300644 0 1 0 I I #
point $-1 54.922330393383589 36.690704674768135 16.208205850300644 #
point $-1 32.110200182905018 30.825604437678351 11.06752969069332 #
point $-1 45.797478309192172 30.825604437678351 11.06752969069332 #
straight-curve $-1 -50.48309142113947 -57.655576477453131 -16.208205850300644 -1 0 0 I I #
point $-1 -54.922330393383589 -57.655576477453131 -16.208205850300644 #
straight-curve $-1 54.922330393383589 36.690704674768135 0 0 0 -1 I I #
End-of-ACIS-data 