500 0 11 0           
7 Unknown 11 ACIS 5.0 NT 24 Thu Mar 25 19:13:40 1999 
-1 9.9999999999999995e-007 1e-010 
body $-1 $11 $-1 $12 #
body $-1 $13 $-1 $14 #
body $-1 $15 $-1 $16 #
body $-1 $17 $-1 $18 #
body $-1 $19 $-1 $20 #
body $-1 $21 $-1 $22 #
body $-1 $23 $-1 $24 #
body $-1 $25 $-1 $26 #
body $-1 $27 $-1 $28 #
body $-1 $29 $-1 $30 #
body $-1 $31 $-1 $32 #
lump $-1 $-1 $33 $0 #
transform $-1 1 0 0 0 1 0 0 0 1 78.146916104617446 46.807539116661999 23.378913722257209 1 rotate no_reflect no_shear #
lump $-1 $-1 $34 $1 #
transform $-1 1 0 0 0 1 0 0 0 1 78.146916104617446 46.807539116661999 23.378913722257209 1 rotate no_reflect no_shear #
lump $-1 $-1 $35 $2 #
transform $-1 1 0 0 0 1 0 0 0 1 78.146916104617446 46.807539116661999 23.378913722257209 1 rotate no_reflect no_shear #
lump $-1 $-1 $36 $3 #
transform $-1 1 0 0 0 1 0 0 0 1 78.146916104617446 46.807539116661999 23.378913722257209 1 rotate no_reflect no_shear #
lump $-1 $-1 $37 $4 #
transform $-1 1 0 0 0 1 0 0 0 1 78.146916104617446 46.807539116661999 23.378913722257209 1 rotate no_reflect no_shear #
lump $-1 $-1 $38 $5 #
transform $-1 1 0 0 0 1 0 0 0 1 78.146916104617446 46.807539116661999 23.378913722257209 1 rotate no_reflect no_shear #
lump $-1 $-1 $39 $6 #
transform $-1 1 0 0 0 1 0 0 0 1 78.146916104617446 46.807539116661999 23.378913722257209 1 rotate no_reflect no_shear #
lump $-1 $-1 $40 $7 #
transform $-1 1 0 0 0 1 0 0 0 1 78.146916104617446 46.807539116661999 23.378913722257209 1 rotate no_reflect no_shear #
lump $-1 $-1 $41 $8 #
transform $-1 1 0 0 0 1 0 0 0 1 78.146916104617446 46.807539116661999 23.378913722257209 1 rotate no_reflect no_shear #
lump $-1 $-1 $42 $9 #
transform $-1 1 0 0 0 1 0 0 0 1 78.146916104617446 46.807539116661999 23.378913722257209 1 rotate no_reflect no_shear #
lump $-1 $-1 $43 $10 #
transform $-1 1 0 0 0 1 0 0 0 1 78.146916104617446 46.807539116661999 23.378913722257209 1 rotate no_reflect no_shear #
shell $-1 $-1 $-1 $44 $-1 $11 #
shell $-1 $-1 $-1 $45 $-1 $13 #
shell $-1 $-1 $-1 $46 $-1 $15 #
shell $-1 $-1 $-1 $47 $-1 $17 #
shell $-1 $-1 $-1 $48 $-1 $19 #
shell $-1 $-1 $-1 $49 $-1 $21 #
shell $-1 $-1 $-1 $50 $-1 $23 #
shell $-1 $-1 $-1 $51 $-1 $25 #
shell $-1 $-1 $-1 $52 $-1 $27 #
shell $-1 $-1 $-1 $53 $-1 $29 #
shell $-1 $-1 $-1 $54 $-1 $31 #
face $-1 $55 $56 $33 $-1 $57 forward single #
face $-1 $58 $59 $34 $-1 $60 forward single #
face $-1 $61 $62 $35 $-1 $63 forward single #
face $-1 $64 $65 $36 $-1 $66 reversed single #
face $-1 $67 $68 $37 $-1 $69 forward single #
face $-1 $70 $71 $38 $-1 $72 forward single #
face $-1 $73 $74 $39 $-1 $75 reversed single #
face $-1 $76 $77 $40 $-1 $78 forward single #
face $-1 $79 $80 $41 $-1 $81 forward single #
face $-1 $82 $83 $42 $-1 $84 reversed single #
face $-1 $85 $86 $43 $-1 $87 forward single #
face $-1 $88 $89 $33 $-1 $90 reversed single #
loop $-1 $-1 $91 $44 #
plane-surface $-1 0 0 23.378913722257209 0 0 1 1 0 0 forward_v I I I I #
face $-1 $92 $93 $34 $-1 $94 reversed single #
loop $-1 $-1 $95 $45 #
plane-surface $-1 -70.418924740033091 0 6.2475500555463359 0 0 1 1 0 0 forward_v I I I I #
face $-1 $96 $97 $35 $-1 $98 reversed single #
loop $-1 $-1 $99 $46 #
plane-surface $-1 70.418924740033106 0 6.2475500555463359 0 0 1 1 0 0 forward_v I I I I #
face $-1 $100 $101 $36 $-1 $102 reversed single #
loop $-1 $-1 $103 $47 #
plane-surface $-1 -25.88012288816056 -127.30481464882571 151.49792956607754 1 0 0 0 0.51503808176128008 -0.85716729658548041 forward_v I I I I #
face $-1 $104 $105 $37 $-1 $106 forward single #
loop $-1 $107 $108 $48 #
cone-surface $-1 -18.485802062971828 -41.468603494671598 19.671011134523049 0 0.51503808176128008 -0.85716729658548041 1.5 0 0 1 I I 0 1 1.5 forward I I I I #
face $-1 $109 $110 $38 $-1 $111 forward single #
loop $-1 $112 $113 $49 #
cone-surface $-1 -7.3943208251887285 -41.468603494671598 19.671011134523049 0 0.51503808176128008 -0.85716729658548041 1.5 0 0 1 I I 0 1 1.5 forward I I I I #
face $-1 $114 $115 $39 $-1 $116 reversed single #
loop $-1 $-1 $117 $50 #
plane-surface $-1 25.880122888160589 -127.30481464882571 151.49792956607754 -1 0 0 0 -0.51503808176128008 0.85716729658548041 forward_v I I I I #
face $-1 $118 $119 $40 $-1 $120 forward single #
loop $-1 $121 $122 $51 #
cone-surface $-1 7.3943208251887427 -41.468603494671598 19.671011134523049 0 0.51503808176128008 -0.85716729658548041 1.5 0 0 1 I I 0 1 1.5 forward I I I I #
face $-1 $123 $124 $41 $-1 $125 forward single #
loop $-1 $126 $127 $52 #
cone-surface $-1 18.485802062971842 -41.468603494671598 19.671011134523049 0 0.51503808176128008 -0.85716729658548041 1.5 0 0 1 I I 0 1 1.5 forward I I I I #
face $-1 $128 $129 $42 $-1 $130 reversed single #
loop $-1 $-1 $131 $53 #
plane-surface $-1 -19.049157721067669 91.128113139665274 179.64346001782653 -1 0 0 0 0.70710678939079041 0.70710677298230451 forward_v I I I I #
face $-1 $132 $133 $43 $-1 $134 forward single #
loop $-1 $135 $136 $54 #
cone-surface $-1 -25.599113786952515 35.908938505820345 12.480312889826831 0 -0.70710678939079041 -0.70710677298230451 1.5 0 0 1 I I 0 1 1.5 forward I I I I #
face $-1 $137 $138 $33 $-1 $139 reversed single #
loop $-1 $-1 $140 $55 #
plane-surface $-1 0 0 -23.378913722257209 0 0 1 1 0 0 forward_v I I I I #
coedge $-1 $141 $142 $143 $144 forward $56 $-1 #
face $-1 $145 $146 $34 $-1 $147 reversed single #
loop $-1 $-1 $148 $58 #
plane-surface $-1 -70.418924740033091 0 -3.0173977959200418 0 0 1 1 0 0 forward_v I I I I #
coedge $-1 $149 $150 $151 $152 forward $59 $-1 #
face $-1 $153 $154 $35 $-1 $155 reversed single #
loop $-1 $-1 $156 $61 #
plane-surface $-1 70.418924740033106 0 -3.0173977959200418 0 0 1 1 0 0 forward_v I I I I #
coedge $-1 $157 $158 $159 $160 reversed $62 $-1 #
face $-1 $161 $162 $36 $-1 $163 reversed single #
loop $-1 $-1 $164 $64 #
plane-surface $-1 -12.940061444080271 -46.807539116661999 17.527967938302993 0 -0.51503808176128008 0.85716729658548041 1 0 0 forward_v I I I I #
coedge $-1 $165 $166 $167 $168 reversed $65 $-1 #
face $-1 $-1 $169 $37 $-1 $170 forward single #
loop $-1 $171 $172 $67 #
cone-surface $-1 -18.485802062971828 -40.612193733500789 18.245705966326874 0 0.51503808176128008 -0.85716729658548041 0.75 0 0 1 I I -0.70710678118654757 0.70710678118654757 0.75 forward I I I I #
loop $-1 $-1 $173 $48 #
coedge $-1 $108 $108 $174 $175 reversed $68 $-1 #
face $-1 $-1 $176 $38 $-1 $177 forward single #
loop $-1 $178 $179 $70 #
cone-surface $-1 -7.3943208251887285 -40.612193733500789 18.245705966326874 0 0.51503808176128008 -0.85716729658548041 0.75 0 0 1 I I -0.70710678118654757 0.70710678118654757 0.75 forward I I I I #
loop $-1 $-1 $180 $49 #
coedge $-1 $113 $113 $181 $182 reversed $71 $-1 #
face $-1 $183 $184 $39 $-1 $185 reversed single #
loop $-1 $-1 $186 $73 #
plane-surface $-1 -12.940061444080271 -46.807539116661999 17.527967938302993 0 -0.51503808176128008 0.85716729658548041 1 0 0 forward_v I I I I #
coedge $-1 $187 $188 $189 $190 reversed $74 $-1 #
face $-1 $-1 $191 $40 $-1 $192 forward single #
loop $-1 $193 $194 $76 #
cone-surface $-1 7.3943208251887427 -40.612193733500789 18.245705966326874 0 0.51503808176128008 -0.85716729658548041 0.75 0 0 1 I I -0.70710678118654757 0.70710678118654757 0.75 forward I I I I #
loop $-1 $-1 $195 $51 #
coedge $-1 $122 $122 $196 $197 reversed $77 $-1 #
face $-1 $-1 $198 $41 $-1 $199 forward single #
loop $-1 $200 $201 $79 #
cone-surface $-1 18.485802062971842 -40.612193733500789 18.245705966326874 0 0.51503808176128008 -0.85716729658548041 0.75 0 0 1 I I -0.70710678118654757 0.70710678118654757 0.75 forward I I I I #
loop $-1 $-1 $202 $52 #
coedge $-1 $127 $127 $203 $204 reversed $80 $-1 #
face $-1 $205 $206 $42 $-1 $207 reversed single #
loop $-1 $-1 $208 $82 #
plane-surface $-1 -25.599113786952515 -19.388316755389724 69.127032687316671 0 0.70710678939079041 0.70710677298230451 1 0 0 forward_v I I I I #
coedge $-1 $209 $210 $211 $212 reversed $83 $-1 #
face $-1 $-1 $213 $43 $-1 $214 forward single #
loop $-1 $215 $216 $85 #
cone-surface $-1 -25.599113786952515 34.703876787226619 11.275251199196688 0 -0.70710678939079041 -0.70710677298230451 0.75 0 0 1 I I -0.70710678118654757 0.70710678118654757 0.75 forward I I I I #
loop $-1 $-1 $217 $54 #
coedge $-1 $136 $136 $218 $219 reversed $86 $-1 #
face $-1 $220 $221 $33 $-1 $222 reversed single #
loop $-1 $-1 $223 $88 #
plane-surface $-1 0 -46.807539116661999 0 0 1 0 0 0 1 forward_v I I I I #
coedge $-1 $224 $225 $226 $227 forward $89 $-1 #
coedge $-1 $228 $91 $229 $230 forward $56 $-1 #
coedge $-1 $91 $228 $231 $232 forward $56 $-1 #
coedge $-1 $233 $234 $91 $144 reversed $235 $-1 #
edge $-1 $236 -46.807539116661999 $237 46.807539116661999 $143 $238 forward 7 unknown #
face $-1 $239 $240 $34 $-1 $241 reversed single #
loop $-1 $-1 $242 $92 #
plane-surface $-1 -62.690933375448736 0 1.6150761298131471 -1 0 0 0 0 1 forward_v I I I I #
coedge $-1 $243 $244 $245 $246 forward $93 $-1 #
coedge $-1 $247 $95 $248 $249 reversed $59 $-1 #
coedge $-1 $95 $247 $250 $251 reversed $59 $-1 #
coedge $-1 $242 $252 $95 $152 reversed $146 $-1 #
edge $-1 $253 -46.807539116661999 $254 46.807539116661999 $151 $255 forward 7 unknown #
face $-1 $256 $257 $35 $-1 $258 reversed single #
loop $-1 $-1 $259 $96 #
plane-surface $-1 62.690933375448751 0 1.6150761298131471 1 0 0 0 0 -1 forward_v I I I I #
coedge $-1 $260 $261 $262 $263 reversed $97 $-1 #
coedge $-1 $264 $99 $265 $266 reversed $62 $-1 #
coedge $-1 $99 $264 $267 $268 reversed $62 $-1 #
coedge $-1 $269 $270 $99 $160 forward $271 $-1 #
edge $-1 $272 -46.807539116661999 $273 46.807539116661999 $159 $274 forward 7 unknown #
face $-1 $275 $276 $36 $-1 $277 forward single #
loop $-1 $-1 $278 $100 #
plane-surface $-1 1.7763568394002505e-014 -127.30481464882571 151.49792956607754 -1 0 0 0 -0.51503808176128008 0.85716729658548041 forward_v I I I I #
coedge $-1 $279 $280 $281 $282 reversed $101 $-1 #
coedge $-1 $166 $103 $283 $284 reversed $65 $-1 #
coedge $-1 $103 $165 $279 $285 reversed $65 $-1 #
coedge $-1 $281 $286 $103 $168 forward $287 $-1 #
edge $-1 $288 52.370051060781563 $289 58.22099684473578 $167 $290 forward 7 unknown #
loop $-1 $-1 $174 $104 #
plane-surface $-1 -12.940061444080271 -46.807539116661999 17.527967938302993 0 -0.51503808176128008 0.85716729658548041 1 0 0 forward_v I I I I #
loop $-1 $-1 $291 $67 #
coedge $-1 $172 $172 $173 $292 reversed $105 $-1 #
coedge $-1 $173 $173 $172 $292 forward $107 $-1 #
coedge $-1 $174 $174 $108 $175 forward $169 $-1 #
edge $-1 $293 -8.0158859289326997e-016 $293 6.2831853071795996 $174 $294 forward 7 unknown #
loop $-1 $-1 $181 $109 #
plane-surface $-1 -12.940061444080271 -46.807539116661999 17.527967938302993 0 -0.51503808176128008 0.85716729658548041 1 0 0 forward_v I I I I #
loop $-1 $-1 $295 $70 #
coedge $-1 $179 $179 $180 $296 reversed $110 $-1 #
coedge $-1 $180 $180 $179 $296 forward $112 $-1 #
coedge $-1 $181 $181 $113 $182 forward $176 $-1 #
edge $-1 $297 -8.0158859289326997e-016 $297 6.2831853071795996 $181 $298 forward 7 unknown #
face $-1 $299 $300 $39 $-1 $301 forward single #
loop $-1 $-1 $302 $114 #
plane-surface $-1 0 -46.807539116661999 0 0 1 0 0 0 1 forward_v I I I I #
coedge $-1 $303 $304 $305 $306 reversed $115 $-1 #
coedge $-1 $188 $117 $307 $308 reversed $74 $-1 #
coedge $-1 $117 $187 $309 $310 reversed $74 $-1 #
coedge $-1 $311 $302 $117 $190 forward $184 $-1 #
edge $-1 $312 -58.22099684473578 $313 -52.370051060781563 $189 $314 forward 7 unknown #
loop $-1 $-1 $196 $118 #
plane-surface $-1 -12.940061444080271 -46.807539116661999 17.527967938302993 0 -0.51503808176128008 0.85716729658548041 1 0 0 forward_v I I I I #
loop $-1 $-1 $315 $76 #
coedge $-1 $194 $194 $195 $316 reversed $119 $-1 #
coedge $-1 $195 $195 $194 $316 forward $121 $-1 #
coedge $-1 $196 $196 $122 $197 forward $191 $-1 #
edge $-1 $317 -8.0158859289326997e-016 $317 6.2831853071795996 $196 $318 forward 7 unknown #
loop $-1 $-1 $203 $123 #
plane-surface $-1 -12.940061444080271 -46.807539116661999 17.527967938302993 0 -0.51503808176128008 0.85716729658548041 1 0 0 forward_v I I I I #
loop $-1 $-1 $319 $79 #
coedge $-1 $201 $201 $202 $320 reversed $124 $-1 #
coedge $-1 $202 $202 $201 $320 forward $126 $-1 #
coedge $-1 $203 $203 $127 $204 forward $198 $-1 #
edge $-1 $321 -8.0158859289326997e-016 $321 6.2831853071795996 $203 $322 forward 7 unknown #
face $-1 $323 $324 $42 $-1 $325 reversed single #
loop $-1 $-1 $326 $128 #
plane-surface $-1 -32.149069852837357 91.128113139665274 179.64346001782653 1 0 0 0 -0.70710678939079041 -0.70710677298230451 forward_v I I I I #
coedge $-1 $327 $328 $329 $330 reversed $129 $-1 #
coedge $-1 $210 $131 $331 $332 reversed $83 $-1 #
coedge $-1 $131 $209 $327 $333 reversed $83 $-1 #
coedge $-1 $329 $334 $131 $212 forward $324 $-1 #
edge $-1 $335 66.442816286656054 $336 86.890554729729999 $211 $337 forward 7 unknown #
loop $-1 $-1 $218 $132 #
plane-surface $-1 -25.599113786952515 -19.388316755389724 69.127032687316671 0 0.70710678939079041 0.70710677298230451 1 0 0 forward_v I I I I #
loop $-1 $-1 $338 $85 #
coedge $-1 $216 $216 $217 $339 reversed $133 $-1 #
coedge $-1 $217 $217 $216 $339 forward $135 $-1 #
coedge $-1 $218 $218 $136 $219 forward $213 $-1 #
edge $-1 $340 -1.5545240530711266e-022 $340 6.2831853071796004 $218 $341 forward 7 unknown #
face $-1 $342 $343 $33 $-1 $344 reversed single #
loop $-1 $-1 $345 $137 #
plane-surface $-1 -78.146916104617446 0 0 1 0 0 0 0 -1 forward_v I I I I #
coedge $-1 $346 $231 $347 $348 forward $138 $-1 #
coedge $-1 $349 $140 $346 $350 forward $89 $-1 #
coedge $-1 $140 $349 $351 $352 forward $89 $-1 #
coedge $-1 $234 $233 $140 $227 reversed $235 $-1 #
edge $-1 $353 -46.807539116661999 $354 46.807539116661999 $226 $355 forward 7 unknown #
coedge $-1 $142 $141 $356 $357 forward $56 $-1 #
coedge $-1 $358 $359 $141 $230 reversed $343 $-1 #
edge $-1 $237 -78.146916104617446 $360 78.146916104617446 $229 $361 forward 7 unknown #
coedge $-1 $223 $362 $142 $232 reversed $138 $-1 #
edge $-1 $363 -78.146916104617446 $236 78.146916104617446 $231 $364 forward 7 unknown #
coedge $-1 $226 $143 $362 $365 forward $235 $-1 #
coedge $-1 $143 $226 $358 $366 reversed $235 $-1 #
loop $-1 $-1 $233 $342 #
vertex $-1 $144 $367 #
vertex $-1 $144 $368 #
straight-curve $-1 78.146916104617446 0 23.378913722257209 0 1 0 I I #
face $-1 $369 $370 $34 $-1 $371 reversed single #
loop $-1 $-1 $372 $145 #
plane-surface $-1 0 -46.807539116661999 0 0 1 0 0 0 1 forward_v I I I I #
coedge $-1 $245 $151 $373 $374 reversed $146 $-1 #
coedge $-1 $375 $148 $372 $376 reversed $93 $-1 #
coedge $-1 $148 $375 $377 $378 reversed $93 $-1 #
coedge $-1 $252 $242 $148 $246 reversed $146 $-1 #
edge $-1 $379 -46.807539116661999 $380 46.807539116661999 $245 $381 forward 7 unknown #
coedge $-1 $150 $149 $382 $383 reversed $59 $-1 #
coedge $-1 $384 $385 $149 $249 forward $386 $-1 #
edge $-1 $387 -42.937453734600901 $254 -27.481471005432191 $248 $388 forward 7 unknown #
coedge $-1 $389 $373 $150 $251 forward $240 $-1 #
edge $-1 $253 27.481471005432191 $390 42.937453734600901 $250 $391 forward 7 unknown #
coedge $-1 $151 $245 $384 $392 reversed $146 $-1 #
vertex $-1 $251 $393 #
vertex $-1 $249 $394 #
straight-curve $-1 -62.690933375448736 0 6.2475500555463359 0 1 0 I I #
face $-1 $395 $396 $35 $-1 $397 reversed single #
loop $-1 $-1 $267 $153 #
plane-surface $-1 0 -46.807539116661999 0 0 1 0 0 0 1 forward_v I I I I #
coedge $-1 $398 $399 $400 $401 reversed $154 $-1 #
coedge $-1 $402 $156 $403 $404 reversed $97 $-1 #
coedge $-1 $156 $402 $405 $406 reversed $97 $-1 #
coedge $-1 $270 $269 $156 $263 forward $271 $-1 #
edge $-1 $407 -46.807539116661999 $408 46.807539116661999 $262 $409 forward 7 unknown #
coedge $-1 $158 $157 $399 $410 forward $62 $-1 #
coedge $-1 $411 $400 $157 $266 forward $396 $-1 #
edge $-1 $412 27.481471005432198 $272 42.937453734600908 $265 $413 forward 7 unknown #
coedge $-1 $414 $415 $158 $268 forward $257 $-1 #
edge $-1 $273 -42.937453734600908 $416 -27.481471005432198 $267 $417 forward 7 unknown #
coedge $-1 $262 $159 $415 $418 forward $271 $-1 #
coedge $-1 $159 $262 $411 $419 reversed $271 $-1 #
loop $-1 $-1 $159 $395 #
vertex $-1 $419 $420 #
vertex $-1 $418 $421 #
straight-curve $-1 78.146916104617446 0 6.2475500555463359 0 -1 0 I I #
face $-1 $-1 $287 $36 $-1 $422 reversed single #
loop $-1 $-1 $423 $161 #
plane-surface $-1 0 0 23.378913722257209 0 0 1 1 0 0 forward_v I I I I #
coedge $-1 $424 $425 $426 $427 reversed $162 $-1 #
coedge $-1 $428 $164 $166 $285 forward $101 $-1 #
coedge $-1 $164 $428 $424 $429 forward $101 $-1 #
coedge $-1 $426 $167 $164 $282 forward $287 $-1 #
edge $-1 $289 -19.410092166120425 $430 6.4700307220401534 $281 $431 forward 7 unknown #
coedge $-1 $432 $433 $165 $284 forward $276 $-1 #
edge $-1 $434 -26.582477052032026 $288 -16.844868207750856 $283 $435 forward 7 unknown #
edge $-1 $289 0 $434 11.360219741316383 $166 $436 forward 7 unknown #
coedge $-1 $167 $426 $432 $437 reversed $287 $-1 #
loop $-1 $-1 $426 $275 #
vertex $-1 $437 $438 #
vertex $-1 $168 $439 #
straight-curve $-1 -25.88012288816056 -46.807539116661999 75.748964783038772 0 0 -1 I I #
coedge $-1 $291 $291 $-1 $440 reversed $171 $-1 #
edge $-1 $441 0 $441 6.2831853071796004 $172 $442 forward 7 unknown #
vertex $-1 $175 $443 #
ellipse-curve $-1 -18.485802062971828 -41.938734694521429 20.453440830280091 0 -0.51503808176128008 0.85716729658548041 1.5 0 0 1 I I #
coedge $-1 $295 $295 $-1 $444 reversed $178 $-1 #
edge $-1 $445 0 $445 6.2831853071796004 $179 $446 forward 7 unknown #
vertex $-1 $182 $447 #
ellipse-curve $-1 -7.3943208251887285 -41.938734694521429 20.453440830280091 0 -0.51503808176128008 0.85716729658548041 1.5 0 0 1 I I #
face $-1 $-1 $448 $39 $-1 $449 forward single #
loop $-1 $-1 $450 $183 #
plane-surface $-1 1.7763568394002505e-014 -127.30481464882571 151.49792956607754 -1 0 0 0 -0.51503808176128008 0.85716729658548041 forward_v I I I I #
coedge $-1 $189 $451 $304 $452 forward $184 $-1 #
coedge $-1 $307 $186 $453 $454 reversed $115 $-1 #
coedge $-1 $186 $307 $302 $452 reversed $115 $-1 #
coedge $-1 $450 $455 $186 $306 forward $300 $-1 #
edge $-1 $456 -11.360219741316383 $457 0 $305 $458 forward 7 unknown #
coedge $-1 $304 $303 $187 $308 forward $115 $-1 #
edge $-1 $459 -11.360219741316383 $312 0 $187 $460 forward 7 unknown #
coedge $-1 $453 $461 $188 $310 forward $448 $-1 #
edge $-1 $313 16.844868207750856 $459 26.582477052032026 $309 $462 forward 7 unknown #
coedge $-1 $451 $189 $461 $463 reversed $184 $-1 #
vertex $-1 $190 $464 #
vertex $-1 $310 $465 #
straight-curve $-1 25.880122888160589 -46.807539116661999 75.748964783038772 0 0 1 I I #
coedge $-1 $315 $315 $-1 $466 reversed $193 $-1 #
edge $-1 $467 0 $467 6.2831853071796004 $194 $468 forward 7 unknown #
vertex $-1 $197 $469 #
ellipse-curve $-1 7.3943208251887427 -41.938734694521429 20.453440830280091 0 -0.51503808176128008 0.85716729658548041 1.5 0 0 1 I I #
coedge $-1 $319 $319 $-1 $470 reversed $200 $-1 #
edge $-1 $471 0 $471 6.2831853071796004 $201 $472 forward 7 unknown #
vertex $-1 $204 $473 #
ellipse-curve $-1 18.485802062971842 -41.938734694521429 20.453440830280091 0 -0.51503808176128008 0.85716729658548041 1.5 0 0 1 I I #
face $-1 $-1 $474 $42 $-1 $475 forward single #
loop $-1 $-1 $211 $205 #
plane-surface $-1 0 46.807539116661999 0 0 -1 0 0 0 -1 forward_v I I I I #
coedge $-1 $476 $477 $478 $479 reversed $206 $-1 #
coedge $-1 $480 $208 $210 $333 forward $129 $-1 #
coedge $-1 $208 $480 $476 $481 forward $129 $-1 #
coedge $-1 $478 $211 $208 $330 forward $324 $-1 #
edge $-1 $336 6.2496008275914114 $482 19.3495129593611 $329 $483 forward 7 unknown #
coedge $-1 $484 $485 $209 $332 forward $474 $-1 #
edge $-1 $486 -19.204255421752713 $335 1.2434825468293624 $331 $487 forward 7 unknown #
edge $-1 $336 -93.615078233324041 $486 -64.697609542787561 $210 $488 forward 7 unknown #
coedge $-1 $211 $478 $484 $489 reversed $324 $-1 #
vertex $-1 $489 $490 #
vertex $-1 $212 $491 #
straight-curve $-1 -19.049157721067669 46.807539116661999 89.821730008913264 0 0 -1 I I #
coedge $-1 $338 $338 $-1 $492 reversed $215 $-1 #
edge $-1 $493 0 $493 6.2831853071796004 $216 $494 forward 7 unknown #
vertex $-1 $219 $495 #
ellipse-curve $-1 -25.599113786952515 36.583670132370962 13.15504450072023 0 0.70710678939079041 0.70710677298230451 1.5 0 0 1 I I #
face $-1 $-1 $235 $33 $-1 $496 reversed single #
loop $-1 $-1 $358 $220 #
plane-surface $-1 0 46.807539116661999 0 0 -1 0 0 0 -1 forward_v I I I I #
coedge $-1 $497 $356 $359 $498 forward $221 $-1 #
coedge $-1 $362 $223 $224 $350 reversed $138 $-1 #
coedge $-1 $356 $497 $223 $348 reversed $221 $-1 #
edge $-1 $363 -23.378913722257209 $499 23.378913722257209 $347 $500 forward 7 unknown #
coedge $-1 $225 $224 $497 $501 forward $89 $-1 #
edge $-1 $354 -78.146916104617446 $499 78.146916104617446 $346 $502 forward 7 unknown #
coedge $-1 $359 $358 $225 $352 reversed $343 $-1 #
edge $-1 $503 -78.146916104617446 $353 78.146916104617446 $351 $504 forward 7 unknown #
vertex $-1 $227 $505 #
vertex $-1 $365 $506 #
straight-curve $-1 78.146916104617446 0 -23.378913722257209 0 -1 0 I I #
coedge $-1 $345 $347 $228 $357 reversed $221 $-1 #
edge $-1 $360 -46.807539116661999 $363 46.807539116661999 $356 $507 forward 7 unknown #
coedge $-1 $351 $229 $234 $366 forward $343 $-1 #
coedge $-1 $229 $351 $345 $498 reversed $343 $-1 #
vertex $-1 $230 $508 #
straight-curve $-1 0 46.807539116661999 23.378913722257209 -1 0 0 I I #
coedge $-1 $231 $346 $233 $365 reversed $138 $-1 #
vertex $-1 $357 $509 #
straight-curve $-1 0 -46.807539116661999 23.378913722257209 1 0 0 I I #
edge $-1 $236 -23.378913722257209 $354 23.378913722257209 $233 $510 forward 7 unknown #
edge $-1 $237 -23.378913722257209 $353 23.378913722257209 $234 $511 forward 7 unknown #
point $-1 78.146916104617446 -46.807539116661999 23.378913722257209 #
point $-1 78.146916104617446 46.807539116661999 23.378913722257209 #
face $-1 $-1 $386 $34 $-1 $512 reversed single #
loop $-1 $-1 $513 $239 #
plane-surface $-1 -78.146916104617446 0 0 1 0 0 0 0 -1 forward_v I I I I #
coedge $-1 $373 $389 $243 $376 forward $240 $-1 #
coedge $-1 $250 $372 $242 $374 forward $240 $-1 #
edge $-1 $380 -3.8249358608266153 $253 5.4400119906397624 $373 $514 forward 7 unknown #
coedge $-1 $244 $243 $513 $515 reversed $93 $-1 #
edge $-1 $516 -42.937453734600901 $380 -27.481471005432191 $372 $517 forward 7 unknown #
coedge $-1 $385 $384 $244 $378 forward $386 $-1 #
edge $-1 $379 27.481471005432191 $518 42.937453734600901 $377 $519 forward 7 unknown #
vertex $-1 $378 $520 #
vertex $-1 $376 $521 #
straight-curve $-1 -62.690933375448736 0 -3.0173977959200418 0 -1 0 I I #
coedge $-1 $522 $523 $247 $383 forward $370 $-1 #
edge $-1 $390 -46.807539116661999 $387 46.807539116661999 $382 $524 forward 7 unknown #
coedge $-1 $377 $248 $252 $392 forward $386 $-1 #
coedge $-1 $248 $377 $522 $525 reversed $386 $-1 #
loop $-1 $-1 $377 $369 #
vertex $-1 $525 $526 #
straight-curve $-1 -35.209462370016546 46.807539116661999 6.2475500555463359 1 0 0 I I #
coedge $-1 $372 $250 $523 $527 forward $240 $-1 #
vertex $-1 $527 $528 #
straight-curve $-1 -35.209462370016546 -46.807539116661999 6.2475500555463359 -1 0 0 I I #
edge $-1 $254 -5.4400119906397624 $379 3.8249358608266153 $384 $529 forward 7 unknown #
point $-1 -62.690933375448736 -46.807539116661999 6.2475500555463359 #
point $-1 -62.690933375448736 46.807539116661999 6.2475500555463359 #
face $-1 $-1 $271 $35 $-1 $530 reversed single #
loop $-1 $-1 $265 $256 #
plane-surface $-1 0 46.807539116661999 0 0 -1 0 0 0 -1 forward_v I I I I #
coedge $-1 $531 $259 $402 $532 reversed $154 $-1 #
coedge $-1 $259 $531 $264 $410 reversed $154 $-1 #
coedge $-1 $265 $405 $259 $401 forward $396 $-1 #
edge $-1 $533 -3.8249358608266153 $412 5.4400119906397624 $400 $534 forward 7 unknown #
coedge $-1 $261 $260 $398 $532 forward $97 $-1 #
coedge $-1 $415 $414 $260 $404 forward $257 $-1 #
edge $-1 $535 27.481471005432198 $407 42.937453734600908 $403 $536 forward 7 unknown #
coedge $-1 $400 $411 $261 $406 forward $396 $-1 #
edge $-1 $408 -42.937453734600908 $533 -27.481471005432198 $405 $537 forward 7 unknown #
vertex $-1 $263 $538 #
vertex $-1 $263 $539 #
straight-curve $-1 78.146916104617446 0 -3.0173977959200418 0 1 0 I I #
edge $-1 $412 -46.807539116661999 $416 46.807539116661999 $399 $540 forward 7 unknown #
coedge $-1 $405 $265 $270 $419 forward $396 $-1 #
vertex $-1 $266 $541 #
straight-curve $-1 35.209462370016553 46.807539116661999 6.2475500555463359 1 0 0 I I #
coedge $-1 $403 $267 $531 $542 forward $257 $-1 #
coedge $-1 $267 $403 $269 $418 reversed $257 $-1 #
vertex $-1 $268 $543 #
straight-curve $-1 35.209462370016553 -46.807539116661999 6.2475500555463359 -1 0 0 I I #
edge $-1 $273 -6.2475500555463359 $407 3.0173977959200418 $269 $544 forward 7 unknown #
edge $-1 $272 -6.2475500555463359 $408 3.0173977959200418 $270 $545 forward 7 unknown #
point $-1 78.146916104617461 46.807539116661999 6.2475500555463359 #
point $-1 78.146916104617461 -46.807539116661999 6.2475500555463359 #
plane-surface $-1 0 -46.807539116661999 0 0 1 0 0 0 1 forward_v I I I I #
coedge $-1 $433 $432 $425 $546 forward $276 $-1 #
coedge $-1 $425 $278 $280 $429 reversed $162 $-1 #
coedge $-1 $278 $424 $423 $546 reversed $162 $-1 #
coedge $-1 $286 $281 $278 $427 forward $287 $-1 #
edge $-1 $430 -58.22099684473578 $547 -52.370051060781563 $426 $548 forward 7 unknown #
coedge $-1 $280 $279 $433 $549 reversed $101 $-1 #
edge $-1 $550 -11.360219741316383 $430 0 $424 $551 forward 7 unknown #
vertex $-1 $282 $552 #
straight-curve $-1 -6.4700307220401356 -46.807539116661999 17.527967938302993 1 0 0 I I #
coedge $-1 $423 $283 $286 $437 forward $276 $-1 #
coedge $-1 $283 $423 $428 $549 forward $276 $-1 #
vertex $-1 $284 $553 #
straight-curve $-1 -25.88012288816056 -63.652407324412856 23.378913722257209 0 -1 0 I I #
straight-curve $-1 -25.88012288816056 -46.807539116661999 17.527967938302993 0 0.85716729658548041 0.51503808176128008 I I #
edge $-1 $288 -25.88012288816056 $547 1.7763568394002505e-014 $286 $554 forward 7 unknown #
point $-1 -25.88012288816056 -46.807539116661999 23.378913722257209 #
point $-1 -25.88012288816056 -46.807539116661999 17.527967938302993 #
edge $-1 $555 1 $555 0 $291 $-1 forward 7 unknown #
vertex $-1 $292 $556 #
ellipse-curve $-1 -18.485802062971828 -40.998472294821745 18.888581438765986 0 -0.51503808176128008 0.85716729658548041 1.5 0 0 1 I I #
point $-1 -16.985802062971828 -41.938734694521443 20.453440830280112 #
edge $-1 $557 1 $557 0 $295 $-1 forward 7 unknown #
vertex $-1 $296 $558 #
ellipse-curve $-1 -7.3943208251887285 -40.998472294821745 18.888581438765986 0 -0.51503808176128008 0.85716729658548041 1.5 0 0 1 I I #
point $-1 -5.8943208251887285 -41.938734694521443 20.453440830280112 #
loop $-1 $-1 $453 $299 #
plane-surface $-1 0 0 23.378913722257209 0 0 1 1 0 0 forward_v I I I I #
coedge $-1 $455 $305 $451 $559 reversed $300 $-1 #
coedge $-1 $302 $311 $450 $559 forward $184 $-1 #
edge $-1 $457 6.4700307220401534 $312 32.350153610200721 $302 $560 forward 7 unknown #
coedge $-1 $561 $309 $303 $454 forward $448 $-1 #
edge $-1 $459 -32.350153610200721 $456 -6.4700307220401534 $453 $562 forward 7 unknown #
coedge $-1 $305 $450 $561 $563 reversed $300 $-1 #
vertex $-1 $454 $564 #
vertex $-1 $452 $565 #
straight-curve $-1 1.7763568394002505e-014 -46.807539116661999 17.527967938302993 0 -0.85716729658548041 -0.51503808176128008 I I #
vertex $-1 $310 $566 #
straight-curve $-1 25.880122888160589 -46.807539116661999 17.527967938302993 0 -0.85716729658548041 -0.51503808176128008 I I #
coedge $-1 $309 $561 $311 $463 forward $448 $-1 #
straight-curve $-1 25.880122888160589 -63.652407324412856 23.378913722257209 0 1 0 I I #
edge $-1 $567 1.7763568394002505e-014 $313 25.880122888160589 $311 $568 forward 7 unknown #
point $-1 25.880122888160589 -46.807539116661999 17.527967938302993 #
point $-1 25.880122888160589 -46.807539116661999 23.378913722257209 #
edge $-1 $569 1 $569 0 $315 $-1 forward 7 unknown #
vertex $-1 $316 $570 #
ellipse-curve $-1 7.3943208251887427 -40.998472294821745 18.888581438765986 0 -0.51503808176128008 0.85716729658548041 1.5 0 0 1 I I #
point $-1 8.8943208251887427 -41.938734694521443 20.453440830280112 #
edge $-1 $571 1 $571 0 $319 $-1 forward 7 unknown #
vertex $-1 $320 $572 #
ellipse-curve $-1 18.485802062971842 -40.998472294821745 18.888581438765986 0 -0.51503808176128008 0.85716729658548041 1.5 0 0 1 I I #
point $-1 19.985802062971842 -41.938734694521443 20.453440830280112 #
loop $-1 $-1 $331 $323 #
plane-surface $-1 0 0 23.378913722257209 0 0 1 1 0 0 forward_v I I I I #
coedge $-1 $477 $326 $328 $481 reversed $206 $-1 #
coedge $-1 $326 $476 $573 $574 reversed $206 $-1 #
coedge $-1 $334 $329 $326 $479 forward $324 $-1 #
edge $-1 $482 -86.890554729729999 $575 -66.442816286656054 $478 $576 forward 7 unknown #
coedge $-1 $328 $327 $485 $577 reversed $129 $-1 #
edge $-1 $578 64.697609542787561 $482 93.615078233324041 $476 $579 forward 7 unknown #
vertex $-1 $330 $580 #
straight-curve $-1 -12.799556893476257 46.807539116661999 2.9311752791832646 -1 0 0 I I #
coedge $-1 $573 $331 $334 $489 forward $474 $-1 #
coedge $-1 $331 $573 $480 $577 forward $474 $-1 #
vertex $-1 $332 $581 #
straight-curve $-1 -19.049157721067669 45.564056569832637 23.378913722257209 0 1 0 I I #
straight-curve $-1 -19.049157721067669 -19.388316755389724 69.127032687316671 0 -0.70710677298230451 0.70710678939079041 I I #
edge $-1 $335 19.049157721067669 $575 32.149069852837357 $334 $582 forward 7 unknown #
point $-1 -19.049157721067669 46.807539116661999 23.378913722257209 #
point $-1 -19.049157721067669 46.807539116661999 2.9311752791832646 #
edge $-1 $583 1 $583 0 $338 $-1 forward 7 unknown #
vertex $-1 $339 $584 #
ellipse-curve $-1 -25.599113786952515 35.234206879269713 11.805581278933417 0 0.70710678939079041 0.70710677298230451 1.5 0 0 1 I I #
point $-1 -24.099113786952515 36.583670132370976 13.155044500720244 #
plane-surface $-1 78.146916104617446 0 0 -1 0 0 0 0 1 forward_v I I I I #
coedge $-1 $347 $345 $349 $501 reversed $221 $-1 #
edge $-1 $360 -23.378913722257209 $503 23.378913722257209 $359 $585 forward 7 unknown #
vertex $-1 $501 $586 #
straight-curve $-1 -78.146916104617446 -46.807539116661999 0 0 0 -1 I I #
edge $-1 $499 -46.807539116661999 $503 46.807539116661999 $497 $587 forward 7 unknown #
straight-curve $-1 0 -46.807539116661999 -23.378913722257209 -1 0 0 I I #
vertex $-1 $352 $588 #
straight-curve $-1 0 46.807539116661999 -23.378913722257209 1 0 0 I I #
point $-1 78.146916104617446 46.807539116661999 -23.378913722257209 #
point $-1 78.146916104617446 -46.807539116661999 -23.378913722257209 #
straight-curve $-1 -78.146916104617446 0 23.378913722257209 0 -1 0 I I #
point $-1 -78.146916104617446 46.807539116661999 23.378913722257209 #
point $-1 -78.146916104617446 -46.807539116661999 23.378913722257209 #
straight-curve $-1 78.146916104617446 -46.807539116661999 0 0 0 -1 I I #
straight-curve $-1 78.146916104617446 46.807539116661999 0 0 0 -1 I I #
plane-surface $-1 0 46.807539116661999 0 0 -1 0 0 0 -1 forward_v I I I I #
coedge $-1 $523 $522 $375 $515 forward $370 $-1 #
straight-curve $-1 -62.690933375448736 -46.807539116661999 0.80753806490657354 0 0 1 I I #
edge $-1 $518 -46.807539116661999 $516 46.807539116661999 $513 $589 forward 7 unknown #
vertex $-1 $376 $590 #
straight-curve $-1 -35.209462370016546 -46.807539116661999 -3.0173977959200418 1 0 0 I I #
vertex $-1 $378 $591 #
straight-curve $-1 -35.209462370016546 46.807539116661999 -3.0173977959200418 -1 0 0 I I #
point $-1 -62.690933375448736 46.807539116661999 -3.0173977959200418 #
point $-1 -62.690933375448736 -46.807539116661999 -3.0173977959200418 #
coedge $-1 $513 $382 $385 $525 forward $370 $-1 #
coedge $-1 $382 $513 $389 $527 reversed $370 $-1 #
straight-curve $-1 -78.146916104617446 0 6.2475500555463359 0 1 0 I I #
edge $-1 $387 -6.2475500555463359 $518 3.0173977959200418 $385 $592 forward 7 unknown #
point $-1 -78.146916104617446 46.807539116661999 6.2475500555463359 #
edge $-1 $390 -6.2475500555463359 $516 3.0173977959200418 $523 $593 forward 7 unknown #
point $-1 -78.146916104617446 -46.807539116661999 6.2475500555463359 #
straight-curve $-1 -62.690933375448736 46.807539116661999 0.80753806490657354 0 0 -1 I I #
plane-surface $-1 78.146916104617446 0 0 -1 0 0 0 0 1 forward_v I I I I #
coedge $-1 $399 $398 $414 $542 reversed $154 $-1 #
edge $-1 $535 -46.807539116661999 $533 46.807539116661999 $398 $594 forward 7 unknown #
vertex $-1 $406 $595 #
straight-curve $-1 62.690933375448751 46.807539116661999 0.80753806490657354 0 0 1 I I #
vertex $-1 $404 $596 #
straight-curve $-1 35.209462370016553 -46.807539116661999 -3.0173977959200418 1 0 0 I I #
straight-curve $-1 35.209462370016553 46.807539116661999 -3.0173977959200418 -1 0 0 I I #
point $-1 78.146916104617461 -46.807539116661999 -3.0173977959200418 #
point $-1 78.146916104617461 46.807539116661999 -3.0173977959200418 #
straight-curve $-1 62.690933375448751 0 6.2475500555463359 0 -1 0 I I #
point $-1 62.690933375448751 46.807539116661999 6.2475500555463359 #
edge $-1 $416 -5.4400119906397624 $535 3.8249358608266153 $414 $597 forward 7 unknown #
point $-1 62.690933375448751 -46.807539116661999 6.2475500555463359 #
straight-curve $-1 78.146916104617446 -46.807539116661999 0 0 0 -1 I I #
straight-curve $-1 78.146916104617446 46.807539116661999 0 0 0 -1 I I #
edge $-1 $547 16.844868207750856 $550 26.582477052032026 $423 $598 forward 7 unknown #
vertex $-1 $546 $599 #
straight-curve $-1 1.7763568394002505e-014 -46.807539116661999 75.748964783038772 0 0 1 I I #
edge $-1 $550 -6.4700307220401534 $434 19.410092166120425 $433 $600 forward 7 unknown #
vertex $-1 $549 $601 #
straight-curve $-1 1.7763568394002505e-014 -46.807539116661999 17.527967938302993 0 -0.85716729658548041 -0.51503808176128008 I I #
point $-1 1.7763568394002505e-014 -46.807539116661999 17.527967938302993 #
point $-1 -25.88012288816056 -37.06993027238083 23.378913722257209 #
straight-curve $-1 0 -46.807539116661999 23.378913722257209 1 0 0 I I #
vertex $-1 $440 $602 #
point $-1 -16.985802062971828 -40.998472294821745 18.888581438765986 #
vertex $-1 $444 $603 #
point $-1 -5.8943208251887285 -40.998472294821745 18.888581438765986 #
edge $-1 $567 52.370051060781563 $457 58.22099684473578 $451 $604 forward 7 unknown #
straight-curve $-1 -6.4700307220401356 -46.807539116661999 17.527967938302993 1 0 0 I I #
coedge $-1 $461 $453 $455 $563 forward $448 $-1 #
straight-curve $-1 -6.4700307220401356 -37.06993027238083 23.378913722257209 -1 0 0 I I #
edge $-1 $456 -26.582477052032026 $567 -16.844868207750856 $561 $605 forward 7 unknown #
point $-1 1.7763568394002505e-014 -37.06993027238083 23.378913722257209 #
point $-1 1.7763568394002505e-014 -46.807539116661999 17.527967938302993 #
point $-1 25.880122888160589 -37.06993027238083 23.378913722257209 #
vertex $-1 $463 $606 #
straight-curve $-1 0 -46.807539116661999 23.378913722257209 1 0 0 I I #
vertex $-1 $466 $607 #
point $-1 8.8943208251887427 -40.998472294821745 18.888581438765986 #
vertex $-1 $470 $608 #
point $-1 19.985802062971842 -40.998472294821745 18.888581438765986 #
coedge $-1 $485 $484 $477 $574 forward $474 $-1 #
edge $-1 $575 -1.2434825468293624 $578 19.204255421752713 $573 $609 forward 7 unknown #
vertex $-1 $574 $610 #
straight-curve $-1 -32.149069852837357 46.807539116661999 89.821730008913264 0 0 1 I I #
edge $-1 $578 -19.3495129593611 $486 -6.2496008275914114 $485 $611 forward 7 unknown #
vertex $-1 $577 $612 #
straight-curve $-1 -32.149069852837357 -19.388316755389724 69.127032687316671 0 0.70710677298230451 -0.70710678939079041 I I #
point $-1 -32.149069852837357 46.807539116661999 2.9311752791832646 #
point $-1 -19.049157721067669 26.359801148079924 23.378913722257209 #
straight-curve $-1 0 46.807539116661999 23.378913722257209 -1 0 0 I I #
vertex $-1 $492 $613 #
point $-1 -24.099113786952515 35.234206879269713 11.805581278933417 #
straight-curve $-1 -78.146916104617446 46.807539116661999 0 0 0 -1 I I #
point $-1 -78.146916104617446 -46.807539116661999 -23.378913722257209 #
straight-curve $-1 -78.146916104617446 0 -23.378913722257209 0 1 0 I I #
point $-1 -78.146916104617446 46.807539116661999 -23.378913722257209 #
straight-curve $-1 -78.146916104617446 0 -3.0173977959200418 0 -1 0 I I #
point $-1 -78.146916104617446 -46.807539116661999 -3.0173977959200418 #
point $-1 -78.146916104617446 46.807539116661999 -3.0173977959200418 #
straight-curve $-1 -78.146916104617446 46.807539116661999 0 0 0 -1 I I #
straight-curve $-1 -78.146916104617446 -46.807539116661999 0 0 0 -1 I I #
straight-curve $-1 62.690933375448751 0 -3.0173977959200418 0 1 0 I I #
point $-1 62.690933375448751 46.807539116661999 -3.0173977959200418 #
point $-1 62.690933375448751 -46.807539116661999 -3.0173977959200418 #
straight-curve $-1 62.690933375448751 -46.807539116661999 0.80753806490657354 0 0 -1 I I #
straight-curve $-1 1.7763568394002505e-014 -63.652407324412856 23.378913722257209 0 1 0 I I #
point $-1 1.7763568394002505e-014 -46.807539116661999 23.378913722257209 #
straight-curve $-1 -6.4700307220401356 -37.06993027238083 23.378913722257209 -1 0 0 I I #
point $-1 1.7763568394002505e-014 -37.06993027238083 23.378913722257209 #
point $-1 -18.485802062971828 -40.225915172179832 17.602830493887762 #
point $-1 -7.3943208251887285 -40.225915172179832 17.602830493887762 #
straight-curve $-1 1.7763568394002505e-014 -46.807539116661999 75.748964783038772 0 0 -1 I I #
straight-curve $-1 1.7763568394002505e-014 -63.652407324412856 23.378913722257209 0 -1 0 I I #
point $-1 1.7763568394002505e-014 -46.807539116661999 23.378913722257209 #
point $-1 7.3943208251887427 -40.225915172179832 17.602830493887762 #
point $-1 18.485802062971842 -40.225915172179832 17.602830493887762 #
straight-curve $-1 -32.149069852837357 45.564056569832637 23.378913722257209 0 -1 0 I I #
point $-1 -32.149069852837357 46.807539116661999 23.378913722257209 #
straight-curve $-1 -12.799556893476257 26.359801148079917 23.378913722257206 1 0 0 I I #
point $-1 -32.149069852837357 26.359801148079924 23.378913722257209 #
point $-1 -25.599113786952515 34.173546695183525 10.74492111945996 #
End-of-ACIS-data 