500 0 4 0           
7 Unknown 11 ACIS 5.0 NT 24 Fri Mar 26 14:26:36 1999 
-1 9.9999999999999995e-007 1e-010 
body $-1 $4 $-1 $5 #
body $-1 $6 $-1 $7 #
body $-1 $8 $-1 $9 #
body $-1 $10 $-1 $11 #
lump $-1 $-1 $12 $0 #
transform $-1 1 0 0 0 1 0 0 0 1 77.265541550950644 46.53641292063589 15.296074539562142 1 rotate no_reflect no_shear #
lump $-1 $-1 $13 $1 #
transform $-1 1 0 0 0 1 0 0 0 1 77.265541550950644 46.53641292063589 15.296074539562142 1 rotate no_reflect no_shear #
lump $-1 $-1 $14 $2 #
transform $-1 1 0 0 0 1 0 0 0 1 77.265541550950644 46.53641292063589 15.296074539562142 1 rotate no_reflect no_shear #
lump $-1 $-1 $15 $3 #
transform $-1 1 0 0 0 1 0 0 0 1 77.265541550950644 46.53641292063589 15.296074539562142 1 rotate no_reflect no_shear #
shell $-1 $-1 $-1 $16 $-1 $4 #
shell $-1 $-1 $-1 $17 $-1 $6 #
shell $-1 $-1 $-1 $18 $-1 $8 #
shell $-1 $-1 $-1 $19 $-1 $10 #
face $-1 $20 $21 $12 $-1 $22 forward single #
face $-1 $23 $24 $13 $-1 $25 reversed single #
face $-1 $26 $27 $14 $-1 $28 reversed single #
face $-1 $29 $30 $15 $-1 $31 forward single #
face $-1 $32 $33 $12 $-1 $34 reversed single #
loop $-1 $-1 $35 $16 #
plane-surface $-1 0 0 15.296074539562142 0 0 1 1 0 0 forward_v I I I I #
face $-1 $36 $37 $13 $-1 $38 reversed single #
loop $-1 $-1 $39 $17 #
plane-surface $-1 0 -39.405203433860002 8.9185632890787261 0 0 1 1 0 0 forward_v I I I I #
face $-1 $40 $41 $14 $-1 $42 reversed single #
loop $-1 $-1 $43 $18 #
plane-surface $-1 62.233813052008259 -29.704382153243508 59.695842526184336 0 0.57357644374324357 0.81915203911291934 1 0 0 forward_v I I I I #
face $-1 $44 $45 $15 $-1 $46 forward single #
loop $-1 $47 $48 $19 #
cone-surface $-1 62.233813052008259 38.899554593812454 9.059742190457758 0 -0.57357644374324357 -0.81915203911291934 2 0 0 1 I I 0 1 2 forward I I I I #
face $-1 $49 $50 $12 $-1 $51 reversed single #
loop $-1 $-1 $52 $20 #
plane-surface $-1 0 0 -15.296074539562142 0 0 1 1 0 0 forward_v I I I I #
coedge $-1 $53 $54 $55 $56 forward $21 $-1 #
face $-1 $57 $58 $13 $-1 $59 reversed single #
loop $-1 $-1 $60 $23 #
plane-surface $-1 0 -32.273993947084115 12.107318914320434 0 -1 0 0 0 -1 forward_v I I I I #
coedge $-1 $61 $62 $63 $64 reversed $24 $-1 #
face $-1 $65 $66 $14 $-1 $67 forward single #
loop $-1 $-1 $68 $26 #
plane-surface $-1 47.202084553065873 58.931006940136676 186.28029435543476 1 0 0 0 -0.57357644374324357 -0.81915203911291934 forward_v I I I I #
coedge $-1 $69 $70 $71 $72 reversed $27 $-1 #
face $-1 $-1 $73 $15 $-1 $74 forward single #
loop $-1 $75 $76 $29 #
cone-surface $-1 62.233813052008259 37.104797894175782 6.4965640365148403 0 -0.57357644374324357 -0.81915203911291934 1 0 0 1 I I -0.70710678118654746 0.70710678118654746 1 forward I I I I #
loop $-1 $-1 $77 $19 #
coedge $-1 $48 $48 $78 $79 reversed $30 $-1 #
face $-1 $80 $81 $12 $-1 $82 reversed single #
loop $-1 $-1 $83 $32 #
plane-surface $-1 0 -46.53641292063589 0 0 1 0 0 0 1 forward_v I I I I #
coedge $-1 $84 $85 $86 $87 forward $33 $-1 #
coedge $-1 $88 $35 $89 $90 forward $21 $-1 #
coedge $-1 $35 $88 $91 $92 forward $21 $-1 #
coedge $-1 $93 $94 $35 $56 reversed $95 $-1 #
edge $-1 $96 -46.53641292063589 $97 46.53641292063589 $55 $98 forward 7 unknown #
face $-1 $99 $100 $13 $-1 $101 reversed single #
loop $-1 $-1 $102 $36 #
plane-surface $-1 -77.265541550950644 0 0 1 0 0 0 0 -1 forward_v I I I I #
coedge $-1 $103 $104 $105 $106 reversed $37 $-1 #
coedge $-1 $107 $39 $108 $109 reversed $24 $-1 #
coedge $-1 $39 $107 $103 $110 forward $24 $-1 #
coedge $-1 $105 $111 $39 $64 forward $112 $-1 #
edge $-1 $113 -26.833811203705888 $114 -12.571392230154114 $63 $115 forward 7 unknown #
face $-1 $116 $117 $14 $-1 $118 reversed single #
loop $-1 $-1 $119 $40 #
plane-surface $-1 0 0 15.296074539562142 0 0 1 1 0 0 forward_v I I I I #
coedge $-1 $120 $121 $122 $123 reversed $41 $-1 #
coedge $-1 $124 $43 $125 $126 reversed $27 $-1 #
coedge $-1 $43 $124 $120 $127 forward $27 $-1 #
coedge $-1 $122 $128 $43 $72 forward $129 $-1 #
edge $-1 $130 -46.148635024946515 $131 -16.085178027061744 $71 $132 forward 7 unknown #
loop $-1 $-1 $78 $44 #
plane-surface $-1 62.233813052008259 -29.704382153243508 59.695842526184336 0 0.57357644374324357 0.81915203911291934 1 0 0 forward_v I I I I #
loop $-1 $-1 $133 $29 #
coedge $-1 $76 $76 $77 $134 reversed $45 $-1 #
coedge $-1 $77 $77 $76 $134 forward $47 $-1 #
coedge $-1 $78 $78 $48 $79 forward $73 $-1 #
edge $-1 $135 -1.0890646724049962e-015 $135 6.2831853071795996 $78 $136 forward 7 unknown #
face $-1 $137 $138 $12 $-1 $139 reversed single #
loop $-1 $-1 $140 $49 #
plane-surface $-1 -77.265541550950644 0 0 1 0 0 0 0 -1 forward_v I I I I #
coedge $-1 $141 $91 $142 $143 forward $50 $-1 #
coedge $-1 $144 $52 $141 $145 forward $33 $-1 #
coedge $-1 $52 $144 $146 $147 forward $33 $-1 #
coedge $-1 $94 $93 $52 $87 reversed $95 $-1 #
edge $-1 $148 -46.53641292063589 $149 46.53641292063589 $86 $150 forward 7 unknown #
coedge $-1 $54 $53 $151 $152 forward $21 $-1 #
coedge $-1 $153 $154 $53 $90 reversed $138 $-1 #
edge $-1 $97 -77.265541550950644 $155 77.265541550950644 $89 $156 forward 7 unknown #
coedge $-1 $83 $157 $54 $92 reversed $50 $-1 #
edge $-1 $158 -77.265541550950644 $96 77.265541550950644 $91 $159 forward 7 unknown #
coedge $-1 $86 $55 $157 $160 forward $95 $-1 #
coedge $-1 $55 $86 $153 $161 reversed $95 $-1 #
loop $-1 $-1 $93 $137 #
vertex $-1 $56 $162 #
vertex $-1 $56 $163 #
straight-curve $-1 77.265541550950644 0 15.296074539562142 0 1 0 I I #
face $-1 $164 $165 $13 $-1 $166 forward single #
loop $-1 $-1 $108 $57 #
plane-surface $-1 0 -46.53641292063589 0 0 1 0 0 0 1 forward_v I I I I #
coedge $-1 $167 $168 $169 $170 forward $58 $-1 #
coedge $-1 $169 $60 $62 $110 reversed $37 $-1 #
coedge $-1 $60 $169 $171 $172 reversed $37 $-1 #
coedge $-1 $173 $63 $60 $106 forward $112 $-1 #
edge $-1 $114 2.8649038319185092 $174 9.2424150824019247 $105 $175 forward 7 unknown #
coedge $-1 $62 $61 $167 $176 reversed $24 $-1 #
coedge $-1 $177 $178 $61 $109 forward $100 $-1 #
edge $-1 $179 -77.265541550950644 $113 77.265541550950644 $108 $180 forward 7 unknown #
edge $-1 $181 -77.265541550950644 $114 77.265541550950644 $103 $182 forward 7 unknown #
coedge $-1 $63 $173 $177 $183 forward $112 $-1 #
loop $-1 $-1 $105 $164 #
vertex $-1 $109 $184 #
vertex $-1 $64 $185 #
straight-curve $-1 77.265541550950644 -19.702601716930001 8.9185632890787261 0 1 0 I I #
face $-1 $-1 $129 $14 $-1 $186 reversed single #
loop $-1 $-1 $125 $65 #
plane-surface $-1 77.265541550950644 0 0 -1 0 0 0 0 1 forward_v I I I I #
coedge $-1 $187 $188 $121 $189 forward $66 $-1 #
coedge $-1 $121 $68 $70 $127 reversed $41 $-1 #
coedge $-1 $68 $120 $119 $189 reversed $41 $-1 #
coedge $-1 $190 $71 $68 $123 forward $129 $-1 #
edge $-1 $131 -86.828685106703972 $191 -77.844072638155239 $122 $192 forward 7 unknown #
coedge $-1 $70 $69 $187 $193 reversed $27 $-1 #
coedge $-1 $194 $195 $69 $126 forward $117 $-1 #
edge $-1 $196 48.122365088039572 $130 63.786558704349623 $125 $197 forward 7 unknown #
edge $-1 $198 77.408632224961735 $131 93.072825841271793 $120 $199 forward 7 unknown #
coedge $-1 $71 $190 $194 $200 forward $129 $-1 #
loop $-1 $-1 $122 $116 #
vertex $-1 $126 $201 #
vertex $-1 $72 $202 #
straight-curve $-1 31.116906526004129 46.536412920635897 6.3114620710133948 -1 0 0 I I #
coedge $-1 $133 $133 $-1 $203 reversed $75 $-1 #
edge $-1 $204 0 $204 6.2831853071796004 $76 $205 forward 7 unknown #
vertex $-1 $79 $206 #
ellipse-curve $-1 62.233813052008259 40.120734849705897 10.803768305287784 0 0.57357644374324357 0.81915203911291934 2 0 0 1 I I #
face $-1 $-1 $95 $12 $-1 $207 reversed single #
loop $-1 $-1 $153 $80 #
plane-surface $-1 0 46.53641292063589 0 0 -1 0 0 0 -1 forward_v I I I I #
coedge $-1 $208 $151 $154 $209 forward $81 $-1 #
coedge $-1 $157 $83 $84 $145 reversed $50 $-1 #
coedge $-1 $151 $208 $83 $143 reversed $81 $-1 #
edge $-1 $158 -15.296074539562142 $210 15.296074539562142 $142 $211 forward 7 unknown #
coedge $-1 $85 $84 $208 $212 forward $33 $-1 #
edge $-1 $149 -77.265541550950644 $210 77.265541550950644 $141 $213 forward 7 unknown #
coedge $-1 $154 $153 $85 $147 reversed $138 $-1 #
edge $-1 $214 -77.265541550950644 $148 77.265541550950644 $146 $215 forward 7 unknown #
vertex $-1 $87 $216 #
vertex $-1 $160 $217 #
straight-curve $-1 77.265541550950644 0 -15.296074539562142 0 -1 0 I I #
coedge $-1 $140 $142 $88 $152 reversed $81 $-1 #
edge $-1 $155 -46.53641292063589 $158 46.53641292063589 $151 $218 forward 7 unknown #
coedge $-1 $146 $89 $94 $161 forward $138 $-1 #
coedge $-1 $89 $146 $140 $209 reversed $138 $-1 #
vertex $-1 $90 $219 #
straight-curve $-1 0 46.53641292063589 15.296074539562142 -1 0 0 I I #
coedge $-1 $91 $141 $93 $160 reversed $50 $-1 #
vertex $-1 $152 $220 #
straight-curve $-1 0 -46.53641292063589 15.296074539562142 1 0 0 I I #
edge $-1 $96 -15.296074539562142 $149 15.296074539562142 $93 $221 forward 7 unknown #
edge $-1 $97 -15.296074539562142 $148 15.296074539562142 $94 $222 forward 7 unknown #
point $-1 77.265541550950644 -46.53641292063589 15.296074539562142 #
point $-1 77.265541550950644 46.53641292063589 15.296074539562142 #
face $-1 $-1 $112 $13 $-1 $223 reversed single #
loop $-1 $-1 $171 $99 #
plane-surface $-1 0 0 15.296074539562142 0 0 1 1 0 0 forward_v I I I I #
coedge $-1 $224 $102 $107 $176 forward $58 $-1 #
coedge $-1 $102 $224 $225 $226 reversed $58 $-1 #
coedge $-1 $104 $103 $102 $170 reversed $37 $-1 #
edge $-1 $227 -9.2424150824019247 $181 -2.8649038319185092 $102 $228 forward 7 unknown #
coedge $-1 $225 $229 $104 $172 forward $165 $-1 #
edge $-1 $174 -77.265541550950644 $227 77.265541550950644 $171 $230 forward 7 unknown #
coedge $-1 $111 $105 $229 $231 reversed $112 $-1 #
vertex $-1 $106 $232 #
straight-curve $-1 77.265541550950644 -32.273993947084115 6.0536594571602169 0 0 1 I I #
edge $-1 $181 12.571392230154114 $179 26.833811203705888 $167 $233 forward 7 unknown #
coedge $-1 $234 $108 $111 $183 reversed $100 $-1 #
coedge $-1 $108 $234 $224 $235 forward $100 $-1 #
vertex $-1 $109 $236 #
straight-curve $-1 0 -46.53641292063589 8.9185632890787261 1 0 0 I I #
vertex $-1 $176 $237 #
straight-curve $-1 0 -32.273993947084115 8.9185632890787261 1 0 0 I I #
edge $-1 $238 -15.296074539562142 $113 -8.9185632890787261 $111 $239 forward 7 unknown #
point $-1 77.265541550950644 -46.53641292063589 8.9185632890787261 #
point $-1 77.265541550950644 -32.273993947084115 8.9185632890787261 #
plane-surface $-1 0 46.53641292063589 0 0 -1 0 0 0 -1 forward_v I I I I #
coedge $-1 $240 $119 $124 $193 forward $66 $-1 #
coedge $-1 $119 $240 $190 $241 forward $66 $-1 #
edge $-1 $191 -17.070909450567552 $198 -4.2395533087075954 $119 $242 forward 7 unknown #
coedge $-1 $128 $122 $188 $241 reversed $129 $-1 #
vertex $-1 $189 $243 #
straight-curve $-1 47.202084553065873 46.53641292063589 93.140147177717381 0 0 1 I I #
edge $-1 $198 16.085178027061744 $196 46.148635024946515 $187 $244 forward 7 unknown #
coedge $-1 $195 $125 $128 $200 reversed $117 $-1 #
coedge $-1 $125 $194 $240 $245 reversed $117 $-1 #
vertex $-1 $245 $246 #
straight-curve $-1 77.265541550950644 -5.7144767100280394 42.897929571273899 0 0.81915203911291934 -0.57357644374324357 I I #
vertex $-1 $193 $247 #
straight-curve $-1 47.202084553065873 -29.704382153243508 59.695842526184336 0 0.81915203911291934 -0.57357644374324357 I I #
edge $-1 $248 -15.296074539562142 $130 -6.3114620710134011 $194 $249 forward 7 unknown #
point $-1 77.265541550950644 46.53641292063589 6.3114620710134011 #
point $-1 47.202084553065873 46.53641292063589 6.311462071013402 #
edge $-1 $250 1 $250 0 $133 $-1 forward 7 unknown #
vertex $-1 $134 $251 #
ellipse-curve $-1 62.233813052008259 37.678374337919024 7.3157160756277593 0 0.57357644374324357 0.81915203911291934 2 0 0 1 I I #
point $-1 64.233813052008259 40.120734849705876 10.803768305287758 #
plane-surface $-1 77.265541550950644 0 0 -1 0 0 0 0 1 forward_v I I I I #
coedge $-1 $142 $140 $144 $212 reversed $81 $-1 #
edge $-1 $155 -15.296074539562142 $214 15.296074539562142 $154 $252 forward 7 unknown #
vertex $-1 $212 $253 #
straight-curve $-1 -77.265541550950644 -46.53641292063589 0 0 0 -1 I I #
edge $-1 $210 -46.53641292063589 $214 46.53641292063589 $208 $254 forward 7 unknown #
straight-curve $-1 0 -46.53641292063589 -15.296074539562142 -1 0 0 I I #
vertex $-1 $147 $255 #
straight-curve $-1 0 46.53641292063589 -15.296074539562142 1 0 0 I I #
point $-1 77.265541550950644 46.53641292063589 -15.296074539562142 #
point $-1 77.265541550950644 -46.53641292063589 -15.296074539562142 #
straight-curve $-1 -77.265541550950644 0 15.296074539562142 0 -1 0 I I #
point $-1 -77.265541550950644 46.53641292063589 15.296074539562142 #
point $-1 -77.265541550950644 -46.53641292063589 15.296074539562142 #
straight-curve $-1 77.265541550950644 -46.53641292063589 0 0 0 -1 I I #
straight-curve $-1 77.265541550950644 46.53641292063589 0 0 0 -1 I I #
plane-surface $-1 77.265541550950644 0 0 -1 0 0 0 0 1 forward_v I I I I #
coedge $-1 $168 $167 $178 $235 reversed $58 $-1 #
coedge $-1 $256 $171 $168 $226 forward $165 $-1 #
edge $-1 $227 32.273993947084115 $257 46.53641292063589 $168 $258 forward 7 unknown #
vertex $-1 $226 $259 #
straight-curve $-1 -77.265541550950644 -32.273993947084115 6.0536594571602169 0 0 -1 I I #
coedge $-1 $171 $256 $173 $231 forward $165 $-1 #
straight-curve $-1 0 -32.273993947084115 15.296074539562142 -1 0 0 I I #
edge $-1 $238 -46.53641292063589 $174 -32.273993947084115 $173 $260 forward 7 unknown #
point $-1 77.265541550950644 -32.273993947084115 15.296074539562142 #
straight-curve $-1 -77.265541550950644 -19.702601716930001 8.9185632890787261 0 -1 0 I I #
coedge $-1 $178 $177 $256 $261 reversed $100 $-1 #
edge $-1 $257 -15.296074539562142 $179 -8.9185632890787261 $224 $262 forward 7 unknown #
point $-1 -77.265541550950644 -46.53641292063589 8.9185632890787261 #
point $-1 -77.265541550950644 -32.273993947084115 8.9185632890787261 #
vertex $-1 $231 $263 #
straight-curve $-1 77.265541550950644 -46.53641292063589 0 0 0 -1 I I #
coedge $-1 $188 $187 $195 $245 forward $66 $-1 #
edge $-1 $248 -77.265541550950644 $191 -47.202084553065873 $190 $264 forward 7 unknown #
straight-curve $-1 47.202084553065873 29.465503470068338 15.296074539562142 0 -1 0 I I #
point $-1 47.202084553065873 46.53641292063589 15.296074539562142 #
straight-curve $-1 31.116906526004129 33.705056778775926 15.296074539562149 1 0 0 I I #
edge $-1 $196 33.705056778775933 $248 46.53641292063589 $195 $265 forward 7 unknown #
point $-1 77.265541550950644 33.705056778775933 15.296074539562142 #
point $-1 47.202084553065873 33.705056778775933 15.296074539562142 #
vertex $-1 $245 $266 #
straight-curve $-1 77.265541550950644 46.53641292063589 0 0 0 -1 I I #
vertex $-1 $203 $267 #
point $-1 64.233813052008259 37.678374337919024 7.3157160756277593 #
straight-curve $-1 -77.265541550950644 46.53641292063589 0 0 0 -1 I I #
point $-1 -77.265541550950644 -46.53641292063589 -15.296074539562142 #
straight-curve $-1 -77.265541550950644 0 -15.296074539562142 0 1 0 I I #
point $-1 -77.265541550950644 46.53641292063589 -15.296074539562142 #
coedge $-1 $229 $225 $234 $261 forward $165 $-1 #
vertex $-1 $226 $268 #
straight-curve $-1 -77.265541550950644 0 15.296074539562142 0 -1 0 I I #
point $-1 -77.265541550950644 -32.273993947084115 15.296074539562142 #
straight-curve $-1 77.265541550950644 0 15.296074539562142 0 1 0 I I #
edge $-1 $257 -77.265541550950644 $238 77.265541550950644 $234 $269 forward 7 unknown #
straight-curve $-1 -77.265541550950644 -46.53641292063589 0 0 0 -1 I I #
point $-1 77.265541550950644 -46.53641292063589 15.296074539562142 #
straight-curve $-1 0 46.53641292063589 15.296074539562142 -1 0 0 I I #
straight-curve $-1 77.265541550950644 0 15.296074539562142 0 1 0 I I #
point $-1 77.265541550950644 46.53641292063589 15.296074539562142 #
point $-1 62.233813052008259 36.53122145043254 5.6774119974019213 #
point $-1 -77.265541550950644 -46.53641292063589 15.296074539562142 #
straight-curve $-1 0 -46.53641292063589 15.296074539562142 1 0 0 I I #
End-of-ACIS-data 