500 0 12 0           
7 Unknown 11 ACIS 5.0 NT 24 Fri Mar 26 16:30:28 1999 
-1 9.9999999999999995e-007 1e-010 
body $-1 $12 $-1 $13 #
body $-1 $14 $-1 $15 #
body $-1 $16 $-1 $17 #
body $-1 $18 $-1 $19 #
body $-1 $20 $-1 $21 #
body $-1 $22 $-1 $23 #
body $-1 $24 $-1 $25 #
body $-1 $26 $-1 $27 #
body $-1 $28 $-1 $29 #
body $-1 $30 $-1 $31 #
body $-1 $32 $-1 $33 #
body $-1 $34 $-1 $35 #
lump $-1 $-1 $36 $0 #
transform $-1 1 0 0 0 1 0 0 0 1 52.458876308481095 29.417923461286382 14.063898770746519 1 rotate no_reflect no_shear #
lump $-1 $-1 $37 $1 #
transform $-1 1 0 0 0 1 0 0 0 1 52.458876308481095 29.417923461286382 14.063898770746519 1 rotate no_reflect no_shear #
lump $-1 $-1 $38 $2 #
transform $-1 1 0 0 0 1 0 0 0 1 52.458876308481095 29.417923461286382 14.063898770746519 1 rotate no_reflect no_shear #
lump $-1 $-1 $39 $3 #
transform $-1 1 0 0 0 1 0 0 0 1 52.458876308481095 29.417923461286382 14.063898770746519 1 rotate no_reflect no_shear #
lump $-1 $-1 $40 $4 #
transform $-1 1 0 0 0 1 0 0 0 1 52.458876308481095 29.417923461286382 14.063898770746519 1 rotate no_reflect no_shear #
lump $-1 $-1 $41 $5 #
transform $-1 1 0 0 0 1 0 0 0 1 52.458876308481095 29.417923461286382 14.063898770746519 1 rotate no_reflect no_shear #
lump $-1 $-1 $42 $6 #
transform $-1 1 0 0 0 1 0 0 0 1 52.458876308481095 29.417923461286382 14.063898770746519 1 rotate no_reflect no_shear #
lump $-1 $-1 $43 $7 #
transform $-1 1 0 0 0 1 0 0 0 1 52.458876308481095 29.417923461286382 14.063898770746519 1 rotate no_reflect no_shear #
lump $-1 $-1 $44 $8 #
transform $-1 1 0 0 0 1 0 0 0 1 52.458876308481095 29.417923461286382 14.063898770746519 1 rotate no_reflect no_shear #
lump $-1 $-1 $45 $9 #
transform $-1 1 0 0 0 1 0 0 0 1 52.458876308481095 29.417923461286382 14.063898770746519 1 rotate no_reflect no_shear #
lump $-1 $-1 $46 $10 #
transform $-1 1 0 0 0 1 0 0 0 1 52.458876308481095 29.417923461286382 14.063898770746519 1 rotate no_reflect no_shear #
lump $-1 $-1 $47 $11 #
transform $-1 1 0 0 0 1 0 0 0 1 52.458876308481095 29.417923461286382 14.063898770746519 1 rotate no_reflect no_shear #
shell $-1 $-1 $-1 $48 $-1 $12 #
shell $-1 $-1 $-1 $49 $-1 $14 #
shell $-1 $-1 $-1 $50 $-1 $16 #
shell $-1 $-1 $-1 $51 $-1 $18 #
shell $-1 $-1 $-1 $52 $-1 $20 #
shell $-1 $-1 $-1 $53 $-1 $22 #
shell $-1 $-1 $-1 $54 $-1 $24 #
shell $-1 $-1 $-1 $55 $-1 $26 #
shell $-1 $-1 $-1 $56 $-1 $28 #
shell $-1 $-1 $-1 $57 $-1 $30 #
shell $-1 $-1 $-1 $58 $-1 $32 #
shell $-1 $-1 $-1 $59 $-1 $34 #
face $-1 $60 $61 $36 $-1 $62 forward single #
face $-1 $63 $64 $37 $-1 $65 forward single #
face $-1 $66 $67 $38 $-1 $68 reversed single #
face $-1 $69 $70 $39 $-1 $71 forward single #
face $-1 $72 $73 $40 $-1 $74 reversed single #
face $-1 $75 $76 $41 $-1 $77 forward single #
face $-1 $78 $79 $42 $-1 $80 forward single #
face $-1 $81 $82 $43 $-1 $83 forward single #
face $-1 $84 $85 $44 $-1 $86 reversed single #
face $-1 $87 $88 $45 $-1 $89 forward single #
face $-1 $90 $91 $46 $-1 $92 forward single #
face $-1 $93 $94 $47 $-1 $95 forward single #
face $-1 $96 $97 $36 $-1 $98 reversed single #
loop $-1 $-1 $99 $48 #
plane-surface $-1 0 0 14.063898770746519 0 0 1 1 0 0 forward_v I I I I #
face $-1 $100 $101 $37 $-1 $102 reversed single #
loop $-1 $-1 $103 $49 #
plane-surface $-1 -46.503521013645233 0 -6.6129124161701043 0 0 1 1 0 0 forward_v I I I I #
face $-1 $104 $105 $38 $-1 $106 reversed single #
loop $-1 $-1 $107 $50 #
plane-surface $-1 31.831108233133094 -107.38700928814377 71.223730287565402 1 0 0 0 0.74314483375859142 -0.66913059716165679 forward_v I I I I #
face $-1 $108 $109 $39 $-1 $110 forward single #
loop $-1 $111 $112 $51 #
cone-surface $-1 42.144992270807094 -21.073110142635635 5.3157739012898055 0 0.74314483375859142 -0.66913059716165679 4 0 0 1 I I 0 1 4 forward I I I I #
face $-1 $113 $114 $40 $-1 $115 reversed single #
loop $-1 $-1 $116 $52 #
plane-surface $-1 -35.661725334840504 85.365057308891053 106.8160835375096 1 0 0 0 -0.83867057594974714 -0.54463902268945019 forward_v I I I I #
face $-1 $117 $118 $41 $-1 $119 forward single #
loop $-1 $120 $121 $53 #
cone-surface $-1 -33.590660293328845 24.20601615016 6.7082647343448469 0 -0.83867057594974714 -0.54463902268945019 0.5 0 0 1 I I 0 1 0.5 forward I I I I #
face $-1 $122 $123 $42 $-1 $124 forward single #
loop $-1 $125 $126 $54 #
cone-surface $-1 -30.484062731061357 24.20601615016 6.7082647343448469 0 -0.83867057594974714 -0.54463902268945019 0.5 0 0 1 I I 0 1 0.5 forward I I I I #
face $-1 $127 $128 $43 $-1 $129 forward single #
loop $-1 $130 $131 $55 #
cone-surface $-1 -27.377465168793869 24.20601615016 6.7082647343448469 0 -0.83867057594974714 -0.54463902268945019 0.5 0 0 1 I I 0 1 0.5 forward I I I I #
face $-1 $132 $133 $44 $-1 $134 reversed single #
loop $-1 $-1 $135 $56 #
plane-surface $-1 10.841795678804726 85.365057308891053 106.8160835375096 1 0 0 0 -0.83867057594974714 -0.54463902268945019 forward_v I I I I #
face $-1 $136 $137 $45 $-1 $138 forward single #
loop $-1 $139 $140 $57 #
cone-surface $-1 12.912860720316388 24.20601615016 6.7082647343448469 0 -0.83867057594974714 -0.54463902268945019 0.5 0 0 1 I I 0 1 0.5 forward I I I I #
face $-1 $141 $142 $46 $-1 $143 forward single #
loop $-1 $144 $145 $58 #
cone-surface $-1 16.019458282583869 24.20601615016 6.7082647343448469 0 -0.83867057594974714 -0.54463902268945019 0.5 0 0 1 I I 0 1 0.5 forward I I I I #
face $-1 $146 $147 $47 $-1 $148 forward single #
loop $-1 $149 $150 $59 #
cone-surface $-1 19.126055844851365 24.20601615016 6.7082647343448469 0 -0.83867057594974714 -0.54463902268945019 0.5 0 0 1 I I 0 1 0.5 forward I I I I #
face $-1 $151 $152 $36 $-1 $153 reversed single #
loop $-1 $-1 $154 $60 #
plane-surface $-1 0 0 -14.063898770746519 0 0 1 1 0 0 forward_v I I I I #
coedge $-1 $155 $156 $157 $158 forward $61 $-1 #
face $-1 $159 $160 $37 $-1 $161 reversed single #
loop $-1 $-1 $162 $63 #
plane-surface $-1 -40.548165718809372 0 -10.338405593458312 -1 0 0 0 0 1 forward_v I I I I #
coedge $-1 $163 $164 $165 $166 forward $64 $-1 #
face $-1 $167 $168 $38 $-1 $169 forward single #
loop $-1 $-1 $170 $66 #
plane-surface $-1 42.144992270807094 -29.417923461286392 1.0200518261185181 0 -0.74314483375859142 0.66913059716165679 1 0 0 forward_v I I I I #
coedge $-1 $171 $172 $173 $174 reversed $67 $-1 #
face $-1 $-1 $175 $39 $-1 $176 forward single #
loop $-1 $177 $178 $69 #
cone-surface $-1 42.144992270807094 -17.114373281386143 1.751311309823782 0 0.74314483375859142 -0.66913059716165679 2 0 0 1 I I -0.70710678118654746 0.70710678118654746 2 forward I I I I #
loop $-1 $-1 $179 $51 #
coedge $-1 $112 $112 $180 $181 reversed $70 $-1 #
face $-1 $182 $183 $40 $-1 $184 reversed single #
loop $-1 $-1 $185 $72 #
plane-surface $-1 -30.484062731061361 -2.6263747057297167 49.673781289433805 0 0.83867057594974714 0.54463902268945019 1 0 0 forward_v I I I I #
coedge $-1 $186 $187 $188 $189 reversed $73 $-1 #
face $-1 $-1 $190 $41 $-1 $191 forward single #
loop $-1 $192 $193 $75 #
cone-surface $-1 -33.590660293328845 23.243926600327089 6.0834764954498084 0 -0.83867057594974714 -0.54463902268945019 0.25 0 0 1 I I -0.70710678118654746 0.70710678118654746 0.25 forward I I I I #
loop $-1 $-1 $194 $53 #
coedge $-1 $121 $121 $195 $196 reversed $76 $-1 #
face $-1 $-1 $197 $42 $-1 $198 forward single #
loop $-1 $199 $200 $78 #
cone-surface $-1 -30.484062731061357 23.243926600327089 6.0834764954498084 0 -0.83867057594974714 -0.54463902268945019 0.25 0 0 1 I I -0.70710678118654746 0.70710678118654746 0.25 forward I I I I #
loop $-1 $-1 $201 $54 #
coedge $-1 $126 $126 $202 $203 reversed $79 $-1 #
face $-1 $-1 $204 $43 $-1 $205 forward single #
loop $-1 $206 $207 $81 #
cone-surface $-1 -27.377465168793869 23.243926600327089 6.0834764954498084 0 -0.83867057594974714 -0.54463902268945019 0.25 0 0 1 I I -0.70710678118654746 0.70710678118654746 0.25 forward I I I I #
loop $-1 $-1 $208 $55 #
coedge $-1 $131 $131 $209 $210 reversed $82 $-1 #
face $-1 $211 $212 $44 $-1 $213 reversed single #
loop $-1 $-1 $214 $84 #
plane-surface $-1 16.019458282583869 -2.6263747057297167 49.673781289433805 0 0.83867057594974714 0.54463902268945019 1 0 0 forward_v I I I I #
coedge $-1 $215 $216 $217 $218 reversed $85 $-1 #
face $-1 $-1 $219 $45 $-1 $220 forward single #
loop $-1 $221 $222 $87 #
cone-surface $-1 12.912860720316388 23.243926600327089 6.0834764954498084 0 -0.83867057594974714 -0.54463902268945019 0.25 0 0 1 I I -0.70710678118654746 0.70710678118654746 0.25 forward I I I I #
loop $-1 $-1 $223 $57 #
coedge $-1 $140 $140 $224 $225 reversed $88 $-1 #
face $-1 $-1 $226 $46 $-1 $227 forward single #
loop $-1 $228 $229 $90 #
cone-surface $-1 16.019458282583869 23.243926600327089 6.0834764954498084 0 -0.83867057594974714 -0.54463902268945019 0.25 0 0 1 I I -0.70710678118654746 0.70710678118654746 0.25 forward I I I I #
loop $-1 $-1 $230 $58 #
coedge $-1 $145 $145 $231 $232 reversed $91 $-1 #
face $-1 $-1 $233 $47 $-1 $234 forward single #
loop $-1 $235 $236 $93 #
cone-surface $-1 19.126055844851365 23.243926600327089 6.0834764954498084 0 -0.83867057594974714 -0.54463902268945019 0.25 0 0 1 I I -0.70710678118654746 0.70710678118654746 0.25 forward I I I I #
loop $-1 $-1 $237 $59 #
coedge $-1 $150 $150 $238 $239 reversed $94 $-1 #
face $-1 $240 $241 $36 $-1 $242 reversed single #
loop $-1 $-1 $243 $96 #
plane-surface $-1 0 -29.417923461286382 0 0 1 0 0 0 1 forward_v I I I I #
coedge $-1 $244 $245 $246 $247 forward $97 $-1 #
coedge $-1 $248 $99 $249 $250 forward $61 $-1 #
coedge $-1 $99 $248 $251 $252 forward $61 $-1 #
coedge $-1 $253 $254 $99 $158 reversed $255 $-1 #
edge $-1 $256 -29.417923461286382 $257 29.417923461286382 $157 $258 forward 7 unknown #
face $-1 $259 $260 $37 $-1 $261 reversed single #
loop $-1 $-1 $262 $100 #
plane-surface $-1 0 0 -14.063898770746519 0 0 1 1 0 0 forward_v I I I I #
coedge $-1 $263 $165 $264 $265 reversed $101 $-1 #
coedge $-1 $266 $103 $267 $268 reversed $64 $-1 #
coedge $-1 $103 $266 $269 $270 reversed $64 $-1 #
coedge $-1 $162 $271 $103 $166 reversed $101 $-1 #
edge $-1 $272 -29.417923461286382 $273 29.417923461286382 $165 $274 forward 7 unknown #
face $-1 $275 $276 $38 $-1 $277 reversed single #
loop $-1 $-1 $278 $104 #
plane-surface $-1 0 0 14.063898770746519 0 0 1 1 0 0 forward_v I I I I #
coedge $-1 $279 $280 $281 $282 reversed $105 $-1 #
coedge $-1 $172 $107 $283 $284 reversed $67 $-1 #
coedge $-1 $107 $171 $279 $285 reversed $67 $-1 #
coedge $-1 $281 $286 $107 $174 forward $276 $-1 #
edge $-1 $287 21.547966373036182 $288 34.591813317664169 $173 $289 forward 7 unknown #
loop $-1 $-1 $180 $108 #
plane-surface $-1 42.144992270807094 -29.417923461286392 1.0200518261185181 0 -0.74314483375859142 0.66913059716165679 1 0 0 forward_v I I I I #
loop $-1 $-1 $290 $69 #
coedge $-1 $178 $178 $179 $291 reversed $109 $-1 #
coedge $-1 $179 $179 $178 $291 forward $111 $-1 #
coedge $-1 $180 $180 $112 $181 forward $175 $-1 #
edge $-1 $292 -2.9648699640595747e-016 $292 6.2831853071796004 $180 $293 forward 7 unknown #
face $-1 $294 $295 $40 $-1 $296 reversed single #
loop $-1 $-1 $297 $113 #
plane-surface $-1 -25.306400127282217 85.365057308891053 106.8160835375096 -1 0 0 0 0.83867057594974714 0.54463902268945019 forward_v I I I I #
coedge $-1 $298 $299 $300 $301 reversed $114 $-1 #
coedge $-1 $187 $116 $302 $303 reversed $73 $-1 #
coedge $-1 $116 $186 $298 $304 reversed $73 $-1 #
coedge $-1 $300 $305 $116 $189 forward $306 $-1 #
edge $-1 $307 13.264605193159145 $308 22.183576003720933 $188 $309 forward 7 unknown #
loop $-1 $-1 $195 $117 #
plane-surface $-1 -30.484062731061361 -2.6263747057297167 49.673781289433805 0 0.83867057594974714 0.54463902268945019 1 0 0 forward_v I I I I #
loop $-1 $-1 $310 $75 #
coedge $-1 $193 $193 $194 $311 reversed $118 $-1 #
coedge $-1 $194 $194 $193 $311 forward $120 $-1 #
coedge $-1 $195 $195 $121 $196 forward $190 $-1 #
edge $-1 $312 6.1709334646513511e-016 $312 6.2831853071796013 $195 $313 forward 7 unknown #
loop $-1 $-1 $202 $122 #
plane-surface $-1 -30.484062731061361 -2.6263747057297167 49.673781289433805 0 0.83867057594974714 0.54463902268945019 1 0 0 forward_v I I I I #
loop $-1 $-1 $314 $78 #
coedge $-1 $200 $200 $201 $315 reversed $123 $-1 #
coedge $-1 $201 $201 $200 $315 forward $125 $-1 #
coedge $-1 $202 $202 $126 $203 forward $197 $-1 #
edge $-1 $316 6.1709334646513511e-016 $316 6.2831853071796013 $202 $317 forward 7 unknown #
loop $-1 $-1 $209 $127 #
plane-surface $-1 -30.484062731061361 -2.6263747057297167 49.673781289433805 0 0.83867057594974714 0.54463902268945019 1 0 0 forward_v I I I I #
loop $-1 $-1 $318 $81 #
coedge $-1 $207 $207 $208 $319 reversed $128 $-1 #
coedge $-1 $208 $208 $207 $319 forward $130 $-1 #
coedge $-1 $209 $209 $131 $210 forward $204 $-1 #
edge $-1 $320 6.1709334646513511e-016 $320 6.2831853071796013 $209 $321 forward 7 unknown #
face $-1 $322 $323 $44 $-1 $324 forward single #
loop $-1 $-1 $325 $132 #
plane-surface $-1 21.197120886363013 85.365057308891053 106.8160835375096 -1 0 0 0 0.83867057594974714 0.54463902268945019 forward_v I I I I #
coedge $-1 $326 $327 $328 $329 reversed $133 $-1 #
coedge $-1 $216 $135 $330 $331 reversed $85 $-1 #
coedge $-1 $135 $215 $326 $332 reversed $85 $-1 #
coedge $-1 $328 $333 $135 $218 forward $323 $-1 #
edge $-1 $334 13.264605193159145 $335 22.183576003720933 $217 $336 forward 7 unknown #
loop $-1 $-1 $224 $136 #
plane-surface $-1 16.019458282583869 -2.6263747057297167 49.673781289433805 0 0.83867057594974714 0.54463902268945019 1 0 0 forward_v I I I I #
loop $-1 $-1 $337 $87 #
coedge $-1 $222 $222 $223 $338 reversed $137 $-1 #
coedge $-1 $223 $223 $222 $338 forward $139 $-1 #
coedge $-1 $224 $224 $140 $225 forward $219 $-1 #
edge $-1 $339 6.1709334646513511e-016 $339 6.2831853071796013 $224 $340 forward 7 unknown #
loop $-1 $-1 $231 $141 #
plane-surface $-1 16.019458282583869 -2.6263747057297167 49.673781289433805 0 0.83867057594974714 0.54463902268945019 1 0 0 forward_v I I I I #
loop $-1 $-1 $341 $90 #
coedge $-1 $229 $229 $230 $342 reversed $142 $-1 #
coedge $-1 $230 $230 $229 $342 forward $144 $-1 #
coedge $-1 $231 $231 $145 $232 forward $226 $-1 #
edge $-1 $343 6.1709334646513511e-016 $343 6.2831853071796013 $231 $344 forward 7 unknown #
loop $-1 $-1 $238 $146 #
plane-surface $-1 16.019458282583869 -2.6263747057297167 49.673781289433805 0 0.83867057594974714 0.54463902268945019 1 0 0 forward_v I I I I #
loop $-1 $-1 $345 $93 #
coedge $-1 $236 $236 $237 $346 reversed $147 $-1 #
coedge $-1 $237 $237 $236 $346 forward $149 $-1 #
coedge $-1 $238 $238 $150 $239 forward $233 $-1 #
edge $-1 $347 6.1709334646513511e-016 $347 6.2831853071796013 $238 $348 forward 7 unknown #
face $-1 $349 $350 $36 $-1 $351 reversed single #
loop $-1 $-1 $352 $151 #
plane-surface $-1 -52.458876308481095 0 0 1 0 0 0 0 -1 forward_v I I I I #
coedge $-1 $353 $251 $354 $355 forward $152 $-1 #
coedge $-1 $356 $154 $353 $357 forward $97 $-1 #
coedge $-1 $154 $356 $358 $359 forward $97 $-1 #
coedge $-1 $254 $253 $154 $247 reversed $255 $-1 #
edge $-1 $360 -29.417923461286382 $361 29.417923461286382 $246 $362 forward 7 unknown #
coedge $-1 $156 $155 $363 $364 forward $61 $-1 #
coedge $-1 $365 $366 $155 $250 reversed $350 $-1 #
edge $-1 $257 -52.458876308481095 $367 52.458876308481095 $249 $368 forward 7 unknown #
coedge $-1 $243 $369 $156 $252 reversed $152 $-1 #
edge $-1 $370 -52.458876308481095 $256 52.458876308481095 $251 $371 forward 7 unknown #
coedge $-1 $246 $157 $369 $372 forward $255 $-1 #
coedge $-1 $157 $246 $365 $373 reversed $255 $-1 #
loop $-1 $-1 $253 $349 #
vertex $-1 $158 $374 #
vertex $-1 $158 $375 #
straight-curve $-1 52.458876308481095 0 14.063898770746519 0 1 0 I I #
face $-1 $376 $377 $37 $-1 $378 reversed single #
loop $-1 $-1 $264 $159 #
plane-surface $-1 0 -29.417923461286382 0 0 1 0 0 0 1 forward_v I I I I #
coedge $-1 $379 $380 $263 $381 forward $160 $-1 #
coedge $-1 $271 $162 $262 $381 reversed $101 $-1 #
coedge $-1 $269 $382 $162 $265 forward $260 $-1 #
edge $-1 $383 -8.8946959740173632 $272 -1.4437096194409484 $264 $384 forward 7 unknown #
coedge $-1 $164 $163 $385 $386 reversed $64 $-1 #
coedge $-1 $387 $388 $163 $268 forward $389 $-1 #
edge $-1 $390 -29.207115801658478 $273 -17.296405211986755 $267 $391 forward 7 unknown #
coedge $-1 $392 $264 $164 $270 forward $260 $-1 #
edge $-1 $272 17.296405211986755 $393 29.207115801658478 $269 $394 forward 7 unknown #
coedge $-1 $165 $263 $387 $395 reversed $101 $-1 #
vertex $-1 $270 $396 #
vertex $-1 $268 $397 #
straight-curve $-1 -40.548165718809372 0 -6.6129124161701043 0 1 0 I I #
face $-1 $-1 $398 $38 $-1 $399 reversed single #
loop $-1 $-1 $281 $167 #
plane-surface $-1 0 -29.417923461286382 0 0 1 0 0 0 1 forward_v I I I I #
coedge $-1 $283 $400 $401 $402 forward $168 $-1 #
coedge $-1 $401 $170 $172 $285 forward $105 $-1 #
coedge $-1 $170 $401 $403 $404 reversed $105 $-1 #
coedge $-1 $405 $173 $170 $282 forward $276 $-1 #
edge $-1 $288 10.758612097729547 $406 31.386380173077548 $281 $407 forward 7 unknown #
coedge $-1 $408 $278 $171 $284 forward $168 $-1 #
edge $-1 $409 -36.020313432622359 $287 -24.275581182785505 $283 $410 forward 7 unknown #
edge $-1 $288 1.5877287230062735e-014 $409 17.552227173075202 $172 $411 forward 7 unknown #
coedge $-1 $173 $405 $408 $412 reversed $276 $-1 #
vertex $-1 $412 $413 #
vertex $-1 $174 $414 #
straight-curve $-1 31.831108233133094 -29.417923461286378 35.611865143782701 0 0 -1 I I #
coedge $-1 $290 $290 $-1 $415 reversed $177 $-1 #
edge $-1 $416 0 $416 6.2831853071796004 $178 $417 forward 7 unknown #
vertex $-1 $181 $418 #
ellipse-curve $-1 42.144992270807094 -23.545557336367953 7.541975298432523 0 -0.74314483375859142 0.66913059716165679 4 0 0 1 I I #
face $-1 $-1 $306 $40 $-1 $419 forward single #
loop $-1 $-1 $420 $182 #
plane-surface $-1 0 29.417923461286382 0 0 -1 0 0 0 -1 forward_v I I I I #
coedge $-1 $421 $422 $423 $424 reversed $183 $-1 #
coedge $-1 $425 $185 $187 $304 forward $114 $-1 #
coedge $-1 $185 $425 $421 $426 forward $114 $-1 #
coedge $-1 $423 $188 $185 $301 forward $306 $-1 #
edge $-1 $308 -20.419693969309826 $427 -10.064368761751536 $300 $428 forward 7 unknown #
coedge $-1 $429 $430 $186 $303 forward $295 $-1 #
edge $-1 $431 -53.078154104366206 $307 -39.34414299800828 $302 $432 forward 7 unknown #
edge $-1 $308 42.459916372243185 $431 58.835846922572713 $187 $433 forward 7 unknown #
coedge $-1 $188 $423 $429 $434 forward $306 $-1 #
loop $-1 $-1 $423 $294 #
vertex $-1 $303 $435 #
vertex $-1 $189 $436 #
straight-curve $-1 -35.661725334840504 42.682528654445527 14.063898770746519 0 -1 0 I I #
coedge $-1 $310 $310 $-1 $437 reversed $192 $-1 #
edge $-1 $438 0 $438 6.2831853071796004 $193 $439 forward 7 unknown #
vertex $-1 $196 $440 #
ellipse-curve $-1 -33.590660293328845 24.958438056005498 7.1968932175675384 0 0.83867057594974714 0.54463902268945019 0.5 0 0 1 I I #
coedge $-1 $314 $314 $-1 $441 reversed $199 $-1 #
edge $-1 $442 0 $442 6.2831853071796004 $200 $443 forward 7 unknown #
vertex $-1 $203 $444 #
ellipse-curve $-1 -30.484062731061357 24.958438056005498 7.1968932175675384 0 0.83867057594974714 0.54463902268945019 0.5 0 0 1 I I #
coedge $-1 $318 $318 $-1 $445 reversed $206 $-1 #
edge $-1 $446 0 $446 6.2831853071796004 $207 $447 forward 7 unknown #
vertex $-1 $210 $448 #
ellipse-curve $-1 -27.377465168793869 24.958438056005498 7.1968932175675384 0 0.83867057594974714 0.54463902268945019 0.5 0 0 1 I I #
face $-1 $-1 $449 $44 $-1 $450 reversed single #
loop $-1 $-1 $217 $211 #
plane-surface $-1 0 0 14.063898770746519 0 0 1 1 0 0 forward_v I I I I #
coedge $-1 $451 $452 $453 $454 reversed $212 $-1 #
coedge $-1 $455 $214 $216 $332 forward $133 $-1 #
coedge $-1 $214 $455 $451 $456 forward $133 $-1 #
coedge $-1 $453 $217 $214 $329 forward $323 $-1 #
edge $-1 $335 2.8320665375127909 $457 13.187391745071078 $328 $458 forward 7 unknown #
coedge $-1 $459 $460 $215 $331 forward $449 $-1 #
edge $-1 $461 -53.078154104366206 $334 -39.34414299800828 $330 $462 forward 7 unknown #
edge $-1 $335 42.459916372243185 $461 58.835846922572713 $216 $463 forward 7 unknown #
coedge $-1 $217 $453 $459 $464 forward $323 $-1 #
vertex $-1 $331 $465 #
vertex $-1 $218 $466 #
straight-curve $-1 10.841795678804726 42.682528654445527 14.063898770746519 0 -1 0 I I #
coedge $-1 $337 $337 $-1 $467 reversed $221 $-1 #
edge $-1 $468 0 $468 6.2831853071796004 $222 $469 forward 7 unknown #
vertex $-1 $225 $470 #
ellipse-curve $-1 12.912860720316388 24.958438056005498 7.1968932175675384 0 0.83867057594974714 0.54463902268945019 0.5 0 0 1 I I #
coedge $-1 $341 $341 $-1 $471 reversed $228 $-1 #
edge $-1 $472 0 $472 6.2831853071796004 $229 $473 forward 7 unknown #
vertex $-1 $232 $474 #
ellipse-curve $-1 16.019458282583869 24.958438056005498 7.1968932175675384 0 0.83867057594974714 0.54463902268945019 0.5 0 0 1 I I #
coedge $-1 $345 $345 $-1 $475 reversed $235 $-1 #
edge $-1 $476 0 $476 6.2831853071796004 $236 $477 forward 7 unknown #
vertex $-1 $239 $478 #
ellipse-curve $-1 19.126055844851365 24.958438056005498 7.1968932175675384 0 0.83867057594974714 0.54463902268945019 0.5 0 0 1 I I #
face $-1 $-1 $255 $36 $-1 $479 reversed single #
loop $-1 $-1 $365 $240 #
plane-surface $-1 0 29.417923461286382 0 0 -1 0 0 0 -1 forward_v I I I I #
coedge $-1 $480 $363 $366 $481 forward $241 $-1 #
coedge $-1 $369 $243 $244 $357 reversed $152 $-1 #
coedge $-1 $363 $480 $243 $355 reversed $241 $-1 #
edge $-1 $370 -14.063898770746519 $482 14.063898770746519 $354 $483 forward 7 unknown #
coedge $-1 $245 $244 $480 $484 forward $97 $-1 #
edge $-1 $361 -52.458876308481095 $482 52.458876308481095 $353 $485 forward 7 unknown #
coedge $-1 $366 $365 $245 $359 reversed $350 $-1 #
edge $-1 $486 -52.458876308481095 $360 52.458876308481095 $358 $487 forward 7 unknown #
vertex $-1 $247 $488 #
vertex $-1 $372 $489 #
straight-curve $-1 52.458876308481095 0 -14.063898770746519 0 -1 0 I I #
coedge $-1 $352 $354 $248 $364 reversed $241 $-1 #
edge $-1 $367 -29.417923461286382 $370 29.417923461286382 $363 $490 forward 7 unknown #
coedge $-1 $358 $249 $254 $373 forward $350 $-1 #
coedge $-1 $249 $358 $352 $481 reversed $350 $-1 #
vertex $-1 $250 $491 #
straight-curve $-1 0 29.417923461286382 14.063898770746519 -1 0 0 I I #
coedge $-1 $251 $353 $253 $372 reversed $152 $-1 #
vertex $-1 $364 $492 #
straight-curve $-1 0 -29.417923461286382 14.063898770746519 1 0 0 I I #
edge $-1 $256 -14.063898770746519 $361 14.063898770746519 $253 $493 forward 7 unknown #
edge $-1 $257 -14.063898770746519 $360 14.063898770746519 $254 $494 forward 7 unknown #
point $-1 52.458876308481095 -29.417923461286382 14.063898770746519 #
point $-1 52.458876308481095 29.417923461286382 14.063898770746519 #
face $-1 $-1 $389 $37 $-1 $495 reversed single #
loop $-1 $-1 $385 $259 #
plane-surface $-1 -52.458876308481095 0 0 1 0 0 0 0 -1 forward_v I I I I #
coedge $-1 $496 $262 $382 $497 forward $160 $-1 #
coedge $-1 $262 $496 $498 $499 forward $160 $-1 #
edge $-1 $500 -29.417923461286382 $383 29.417923461286382 $262 $501 forward 7 unknown #
coedge $-1 $264 $392 $379 $497 reversed $260 $-1 #
vertex $-1 $497 $502 #
straight-curve $-1 -40.548165718809372 -29.417923461286382 -5.1692027967291558 0 0 1 I I #
coedge $-1 $503 $504 $266 $386 forward $377 $-1 #
edge $-1 $393 -29.417923461286382 $390 29.417923461286382 $385 $505 forward 7 unknown #
coedge $-1 $498 $267 $271 $395 forward $389 $-1 #
coedge $-1 $267 $498 $503 $506 reversed $389 $-1 #
loop $-1 $-1 $387 $376 #
vertex $-1 $506 $507 #
straight-curve $-1 -23.251760506822617 29.417923461286382 -6.6129124161701043 1 0 0 I I #
coedge $-1 $382 $269 $504 $508 forward $260 $-1 #
vertex $-1 $508 $509 #
straight-curve $-1 -23.251760506822617 -29.417923461286382 -6.6129124161701043 -1 0 0 I I #
edge $-1 $273 1.4437096194409484 $500 8.8946959740173632 $387 $510 forward 7 unknown #
point $-1 -40.548165718809372 -29.417923461286382 -6.6129124161701043 #
point $-1 -40.548165718809372 29.417923461286382 -6.6129124161701043 #
loop $-1 $-1 $403 $275 #
plane-surface $-1 52.458876308481095 0 0 -1 0 0 0 0 1 forward_v I I I I #
coedge $-1 $278 $408 $511 $512 forward $168 $-1 #
coedge $-1 $280 $279 $278 $402 reversed $105 $-1 #
edge $-1 $513 -31.386380173077548 $409 -10.758612097729547 $278 $514 forward 7 unknown #
coedge $-1 $511 $515 $280 $404 forward $398 $-1 #
edge $-1 $406 -9.4631932240802286 $513 8.0890339489949561 $403 $516 forward 7 unknown #
coedge $-1 $286 $281 $515 $517 reversed $276 $-1 #
vertex $-1 $282 $518 #
straight-curve $-1 21.072496135403547 -29.417923461286382 1.0200518261185294 1 0 0 I I #
coedge $-1 $400 $283 $286 $412 forward $168 $-1 #
vertex $-1 $284 $519 #
straight-curve $-1 31.831108233133094 -53.693504644071886 14.063898770746519 0 -1 0 I I #
straight-curve $-1 31.831108233133094 -29.417923461286392 1.0200518261185181 0 0.66913059716165679 0.74314483375859142 I I #
edge $-1 $287 31.831108233133094 $520 52.458876308481095 $286 $521 forward 7 unknown #
point $-1 31.831108233133094 -29.417923461286382 14.063898770746519 #
point $-1 31.831108233133094 -29.417923461286382 1.0200518261185298 #
edge $-1 $522 1 $522 0 $290 $-1 forward 7 unknown #
vertex $-1 $291 $523 #
ellipse-curve $-1 42.144992270807094 -18.600662948903327 3.0895725041470956 0 -0.74314483375859142 0.66913059716165679 4 0 0 1 I I #
point $-1 46.144992270807094 -23.545557336367946 7.541975298432515 #
plane-surface $-1 0 0 14.063898770746519 0 0 1 1 0 0 forward_v I I I I #
coedge $-1 $430 $429 $422 $524 forward $295 $-1 #
coedge $-1 $422 $297 $299 $426 reversed $183 $-1 #
coedge $-1 $297 $421 $420 $524 reversed $183 $-1 #
coedge $-1 $305 $300 $297 $424 forward $306 $-1 #
edge $-1 $427 -22.183576003720933 $525 -13.264605193159145 $423 $526 forward 7 unknown #
coedge $-1 $299 $298 $430 $527 reversed $114 $-1 #
edge $-1 $528 -58.835846922572713 $427 -42.459916372243185 $421 $529 forward 7 unknown #
vertex $-1 $301 $530 #
straight-curve $-1 -15.24203136553068 20.49895265072459 14.063898770746519 1 0 0 I I #
coedge $-1 $420 $302 $305 $434 reversed $295 $-1 #
coedge $-1 $302 $420 $425 $527 forward $295 $-1 #
vertex $-1 $303 $531 #
straight-curve $-1 -35.661725334840504 29.417923461286382 53.408041768754799 0 0 1 I I #
straight-curve $-1 -35.661725334840504 -2.6263747057297167 49.673781289433805 0 0.54463902268945019 -0.83867057594974714 I I #
edge $-1 $525 25.306400127282217 $307 35.661725334840504 $429 $532 forward 7 unknown #
point $-1 -35.661725334840504 29.417923461286382 14.063898770746519 #
point $-1 -35.661725334840504 20.498952650724593 14.063898770746519 #
edge $-1 $533 1 $533 0 $310 $-1 forward 7 unknown #
vertex $-1 $311 $534 #
ellipse-curve $-1 -33.590660293328845 23.453594244314527 6.2196362511221706 0 0.83867057594974714 0.54463902268945019 0.5 0 0 1 I I #
point $-1 -33.090660293328845 24.958438056005477 7.1968932175675242 #
edge $-1 $535 1 $535 0 $314 $-1 forward 7 unknown #
vertex $-1 $315 $536 #
ellipse-curve $-1 -30.484062731061357 23.453594244314527 6.2196362511221706 0 0.83867057594974714 0.54463902268945019 0.5 0 0 1 I I #
point $-1 -29.984062731061357 24.958438056005477 7.1968932175675242 #
edge $-1 $537 1 $537 0 $318 $-1 forward 7 unknown #
vertex $-1 $319 $538 #
ellipse-curve $-1 -27.377465168793869 23.453594244314527 6.2196362511221706 0 0.83867057594974714 0.54463902268945019 0.5 0 0 1 I I #
point $-1 -26.877465168793869 24.958438056005477 7.1968932175675242 #
loop $-1 $-1 $330 $322 #
plane-surface $-1 0 29.417923461286382 0 0 -1 0 0 0 -1 forward_v I I I I #
coedge $-1 $452 $325 $327 $456 reversed $212 $-1 #
coedge $-1 $325 $451 $539 $540 reversed $212 $-1 #
coedge $-1 $333 $328 $325 $454 forward $323 $-1 #
edge $-1 $457 -22.183576003720933 $541 -13.264605193159145 $453 $542 forward 7 unknown #
coedge $-1 $327 $326 $460 $543 reversed $133 $-1 #
edge $-1 $544 -58.835846922572713 $457 -42.459916372243185 $451 $545 forward 7 unknown #
vertex $-1 $329 $546 #
straight-curve $-1 8.0097291412919347 20.49895265072459 14.063898770746519 1 0 0 I I #
coedge $-1 $539 $330 $333 $464 reversed $449 $-1 #
coedge $-1 $330 $539 $455 $543 forward $449 $-1 #
vertex $-1 $331 $547 #
straight-curve $-1 10.841795678804726 29.417923461286382 53.408041768754799 0 0 1 I I #
straight-curve $-1 10.841795678804726 -2.6263747057297167 49.673781289433805 0 0.54463902268945019 -0.83867057594974714 I I #
edge $-1 $541 -21.197120886363013 $334 -10.841795678804726 $459 $548 forward 7 unknown #
point $-1 10.841795678804726 29.417923461286382 14.063898770746519 #
point $-1 10.841795678804726 20.498952650724593 14.063898770746519 #
edge $-1 $549 1 $549 0 $337 $-1 forward 7 unknown #
vertex $-1 $338 $550 #
ellipse-curve $-1 12.912860720316388 23.453594244314527 6.2196362511221706 0 0.83867057594974714 0.54463902268945019 0.5 0 0 1 I I #
point $-1 13.412860720316388 24.958438056005477 7.1968932175675242 #
edge $-1 $551 1 $551 0 $341 $-1 forward 7 unknown #
vertex $-1 $342 $552 #
ellipse-curve $-1 16.019458282583869 23.453594244314527 6.2196362511221706 0 0.83867057594974714 0.54463902268945019 0.5 0 0 1 I I #
point $-1 16.519458282583869 24.958438056005477 7.1968932175675242 #
edge $-1 $553 1 $553 0 $345 $-1 forward 7 unknown #
vertex $-1 $346 $554 #
ellipse-curve $-1 19.126055844851365 23.453594244314527 6.2196362511221706 0 0.83867057594974714 0.54463902268945019 0.5 0 0 1 I I #
point $-1 19.626055844851365 24.958438056005477 7.1968932175675242 #
plane-surface $-1 52.458876308481095 0 0 -1 0 0 0 0 1 forward_v I I I I #
coedge $-1 $354 $352 $356 $484 reversed $241 $-1 #
edge $-1 $367 -14.063898770746519 $486 14.063898770746519 $366 $555 forward 7 unknown #
vertex $-1 $484 $556 #
straight-curve $-1 -52.458876308481095 -29.417923461286382 0 0 0 -1 I I #
edge $-1 $482 -29.417923461286382 $486 29.417923461286382 $480 $557 forward 7 unknown #
straight-curve $-1 0 -29.417923461286382 -14.063898770746519 -1 0 0 I I #
vertex $-1 $359 $558 #
straight-curve $-1 0 29.417923461286382 -14.063898770746519 1 0 0 I I #
point $-1 52.458876308481095 29.417923461286382 -14.063898770746519 #
point $-1 52.458876308481095 -29.417923461286382 -14.063898770746519 #
straight-curve $-1 -52.458876308481095 0 14.063898770746519 0 -1 0 I I #
point $-1 -52.458876308481095 29.417923461286382 14.063898770746519 #
point $-1 -52.458876308481095 -29.417923461286382 14.063898770746519 #
straight-curve $-1 52.458876308481095 -29.417923461286382 0 0 0 -1 I I #
straight-curve $-1 52.458876308481095 29.417923461286382 0 0 0 -1 I I #
plane-surface $-1 0 29.417923461286382 0 0 -1 0 0 0 -1 forward_v I I I I #
coedge $-1 $380 $379 $559 $560 forward $160 $-1 #
edge $-1 $383 40.548165718809372 $561 52.458876308481095 $382 $562 forward 7 unknown #
coedge $-1 $388 $387 $380 $499 reversed $389 $-1 #
edge $-1 $563 -52.458876308481095 $500 -40.548165718809372 $498 $564 forward 7 unknown #
vertex $-1 $395 $565 #
straight-curve $-1 -40.548165718809372 0 -14.063898770746519 0 -1 0 I I #
point $-1 -40.548165718809372 -29.417923461286382 -14.063898770746519 #
coedge $-1 $559 $385 $388 $506 forward $377 $-1 #
coedge $-1 $385 $559 $392 $508 reversed $377 $-1 #
straight-curve $-1 -52.458876308481095 0 -6.6129124161701043 0 1 0 I I #
edge $-1 $390 6.6129124161701043 $563 14.063898770746519 $388 $566 forward 7 unknown #
point $-1 -52.458876308481095 29.417923461286382 -6.6129124161701043 #
edge $-1 $393 6.6129124161701043 $561 14.063898770746519 $504 $567 forward 7 unknown #
point $-1 -52.458876308481095 -29.417923461286382 -6.6129124161701043 #
straight-curve $-1 -40.548165718809372 29.417923461286382 -5.1692027967291558 0 0 -1 I I #
coedge $-1 $515 $403 $400 $512 reversed $398 $-1 #
edge $-1 $520 -29.417923461286382 $513 -17.673191211449524 $511 $568 forward 7 unknown #
vertex $-1 $402 $569 #
straight-curve $-1 21.072496135403547 -17.673191211449524 14.063898770746519 -1 0 0 I I #
coedge $-1 $403 $511 $405 $517 forward $398 $-1 #
straight-curve $-1 52.458876308481095 -23.085811328201434 8.0525749814530592 0 0.66913059716165679 0.74314483375859142 I I #
edge $-1 $520 -14.063898770746519 $406 -1.0200518261185298 $515 $570 forward 7 unknown #
point $-1 52.458876308481095 -29.417923461286382 1.0200518261185298 #
point $-1 31.831108233133094 -17.673191211449524 14.063898770746521 #
vertex $-1 $512 $571 #
straight-curve $-1 0 -29.417923461286382 14.063898770746519 1 0 0 I I #
vertex $-1 $415 $572 #
point $-1 46.144992270807094 -18.600662948903327 3.0895725041470956 #
edge $-1 $525 39.34414299800828 $528 53.078154104366206 $420 $573 forward 7 unknown #
vertex $-1 $434 $574 #
straight-curve $-1 -25.306400127282217 42.682528654445527 14.063898770746519 0 1 0 I I #
edge $-1 $528 10.064368761751536 $431 20.419693969309826 $430 $575 forward 7 unknown #
vertex $-1 $527 $576 #
straight-curve $-1 -25.306400127282217 -2.6263747057297167 49.673781289433805 0 -0.54463902268945019 0.83867057594974714 I I #
point $-1 -25.306400127282217 20.498952650724593 14.063898770746519 #
point $-1 -35.661725334840504 29.417923461286378 0.32988766438859329 #
straight-curve $-1 0 29.417923461286382 14.063898770746519 -1 0 0 I I #
vertex $-1 $437 $577 #
point $-1 -33.090660293328845 23.453594244314527 6.2196362511221706 #
vertex $-1 $441 $578 #
point $-1 -29.984062731061357 23.453594244314527 6.2196362511221706 #
vertex $-1 $445 $579 #
point $-1 -26.877465168793869 23.453594244314527 6.2196362511221706 #
coedge $-1 $460 $459 $452 $540 forward $449 $-1 #
edge $-1 $541 39.34414299800828 $544 53.078154104366206 $539 $580 forward 7 unknown #
vertex $-1 $464 $581 #
straight-curve $-1 21.197120886363013 42.682528654445527 14.063898770746519 0 1 0 I I #
edge $-1 $544 -13.187391745071078 $461 -2.8320665375127909 $460 $582 forward 7 unknown #
vertex $-1 $543 $583 #
straight-curve $-1 21.197120886363013 -2.6263747057297167 49.673781289433805 0 -0.54463902268945019 0.83867057594974714 I I #
point $-1 21.197120886363013 20.498952650724593 14.063898770746519 #
point $-1 10.841795678804726 29.417923461286378 0.32988766438859329 #
straight-curve $-1 0 29.417923461286382 14.063898770746519 -1 0 0 I I #
vertex $-1 $467 $584 #
point $-1 13.412860720316388 23.453594244314527 6.2196362511221706 #
vertex $-1 $471 $585 #
point $-1 16.519458282583869 23.453594244314527 6.2196362511221706 #
vertex $-1 $475 $586 #
point $-1 19.626055844851365 23.453594244314527 6.2196362511221706 #
straight-curve $-1 -52.458876308481095 29.417923461286382 0 0 0 -1 I I #
point $-1 -52.458876308481095 -29.417923461286382 -14.063898770746519 #
straight-curve $-1 -52.458876308481095 0 -14.063898770746519 0 1 0 I I #
point $-1 -52.458876308481095 29.417923461286382 -14.063898770746519 #
coedge $-1 $504 $503 $496 $560 reversed $377 $-1 #
edge $-1 $561 -29.417923461286382 $563 29.417923461286382 $559 $587 forward 7 unknown #
vertex $-1 $560 $588 #
straight-curve $-1 0 -29.417923461286382 -14.063898770746519 -1 0 0 I I #
vertex $-1 $499 $589 #
straight-curve $-1 0 29.417923461286382 -14.063898770746519 1 0 0 I I #
point $-1 -40.548165718809372 29.417923461286382 -14.063898770746519 #
straight-curve $-1 -52.458876308481095 29.417923461286382 0 0 0 -1 I I #
straight-curve $-1 -52.458876308481095 -29.417923461286382 0 0 0 -1 I I #
straight-curve $-1 52.458876308481095 0 14.063898770746519 0 1 0 I I #
point $-1 52.458876308481095 -17.673191211449524 14.063898770746521 #
straight-curve $-1 52.458876308481095 -29.417923461286382 0 0 0 -1 I I #
point $-1 52.458876308481095 -29.417923461286382 14.063898770746519 #
point $-1 42.144992270807094 -15.628083613868961 0.41305011550046844 #
straight-curve $-1 -25.306400127282217 29.417923461286382 53.408041768754799 0 0 -1 I I #
point $-1 -25.306400127282217 29.417923461286382 14.063898770746519 #
straight-curve $-1 -15.24203136553068 29.417923461286385 0.32988766438859329 -1 0 0 I I #
point $-1 -25.306400127282217 29.417923461286378 0.32988766438859329 #
point $-1 -33.590660293328845 23.034258956339652 5.9473167397774462 #
point $-1 -30.484062731061357 23.034258956339652 5.9473167397774462 #
point $-1 -27.377465168793869 23.034258956339652 5.9473167397774462 #
straight-curve $-1 21.197120886363013 29.417923461286382 53.408041768754799 0 0 -1 I I #
point $-1 21.197120886363013 29.417923461286382 14.063898770746519 #
straight-curve $-1 8.0097291412919347 29.417923461286385 0.32988766438859329 -1 0 0 I I #
point $-1 21.197120886363013 29.417923461286378 0.32988766438859329 #
point $-1 12.912860720316388 23.034258956339652 5.9473167397774462 #
point $-1 16.019458282583869 23.034258956339652 5.9473167397774462 #
point $-1 19.126055844851365 23.034258956339652 5.9473167397774462 #
straight-curve $-1 -52.458876308481095 0 -14.063898770746519 0 1 0 I I #
point $-1 -52.458876308481095 -29.417923461286382 -14.063898770746519 #
point $-1 -52.458876308481095 29.417923461286382 -14.063898770746519 #
End-of-ACIS-data 