500 0 14 0           
7 Unknown 11 ACIS 5.0 NT 24 Fri Mar 26 18:55:02 1999 
-1 9.9999999999999995e-007 1e-010 
body $-1 $14 $-1 $15 #
body $-1 $16 $-1 $17 #
body $-1 $18 $-1 $19 #
body $-1 $20 $-1 $21 #
body $-1 $22 $-1 $23 #
body $-1 $24 $-1 $25 #
body $-1 $26 $-1 $27 #
body $-1 $28 $-1 $29 #
body $-1 $30 $-1 $31 #
body $-1 $32 $-1 $33 #
body $-1 $34 $-1 $35 #
body $-1 $36 $-1 $37 #
body $-1 $38 $-1 $39 #
body $-1 $40 $-1 $41 #
lump $-1 $-1 $42 $0 #
transform $-1 1 0 0 0 1 0 0 0 1 77.344889675588234 31.120654758167991 7.1344720748888255 1 rotate no_reflect no_shear #
lump $-1 $-1 $43 $1 #
transform $-1 1 0 0 0 1 0 0 0 1 77.344889675588234 31.120654758167991 7.1344720748888255 1 rotate no_reflect no_shear #
lump $-1 $-1 $44 $2 #
transform $-1 1 0 0 0 1 0 0 0 1 77.344889675588234 31.120654758167991 7.1344720748888255 1 rotate no_reflect no_shear #
lump $-1 $-1 $45 $3 #
transform $-1 1 0 0 0 1 0 0 0 1 77.344889675588234 31.120654758167991 7.1344720748888255 1 rotate no_reflect no_shear #
lump $-1 $-1 $46 $4 #
transform $-1 1 0 0 0 1 0 0 0 1 77.344889675588234 31.120654758167991 7.1344720748888255 1 rotate no_reflect no_shear #
lump $-1 $-1 $47 $5 #
transform $-1 1 0 0 0 1 0 0 0 1 77.344889675588234 31.120654758167991 7.1344720748888255 1 rotate no_reflect no_shear #
lump $-1 $-1 $48 $6 #
transform $-1 1 0 0 0 1 0 0 0 1 77.344889675588234 31.120654758167991 7.1344720748888255 1 rotate no_reflect no_shear #
lump $-1 $-1 $49 $7 #
transform $-1 1 0 0 0 1 0 0 0 1 77.344889675588234 31.120654758167991 7.1344720748888255 1 rotate no_reflect no_shear #
lump $-1 $-1 $50 $8 #
transform $-1 1 0 0 0 1 0 0 0 1 77.344889675588234 31.120654758167991 7.1344720748888255 1 rotate no_reflect no_shear #
lump $-1 $-1 $51 $9 #
transform $-1 1 0 0 0 1 0 0 0 1 77.344889675588234 31.120654758167991 7.1344720748888255 1 rotate no_reflect no_shear #
lump $-1 $-1 $52 $10 #
transform $-1 1 0 0 0 1 0 0 0 1 77.344889675588234 31.120654758167991 7.1344720748888255 1 rotate no_reflect no_shear #
lump $-1 $-1 $53 $11 #
transform $-1 1 0 0 0 1 0 0 0 1 77.344889675588234 31.120654758167991 7.1344720748888255 1 rotate no_reflect no_shear #
lump $-1 $-1 $54 $12 #
transform $-1 1 0 0 0 1 0 0 0 1 77.344889675588234 31.120654758167991 7.1344720748888255 1 rotate no_reflect no_shear #
lump $-1 $-1 $55 $13 #
transform $-1 1 0 0 0 1 0 0 0 1 77.344889675588234 31.120654758167991 7.1344720748888255 1 rotate no_reflect no_shear #
shell $-1 $-1 $-1 $56 $-1 $14 #
shell $-1 $-1 $-1 $57 $-1 $16 #
shell $-1 $-1 $-1 $58 $-1 $18 #
shell $-1 $-1 $-1 $59 $-1 $20 #
shell $-1 $-1 $-1 $60 $-1 $22 #
shell $-1 $-1 $-1 $61 $-1 $24 #
shell $-1 $-1 $-1 $62 $-1 $26 #
shell $-1 $-1 $-1 $63 $-1 $28 #
shell $-1 $-1 $-1 $64 $-1 $30 #
shell $-1 $-1 $-1 $65 $-1 $32 #
shell $-1 $-1 $-1 $66 $-1 $34 #
shell $-1 $-1 $-1 $67 $-1 $36 #
shell $-1 $-1 $-1 $68 $-1 $38 #
shell $-1 $-1 $-1 $69 $-1 $40 #
face $-1 $70 $71 $42 $-1 $72 forward single #
face $-1 $73 $74 $43 $-1 $75 forward single #
face $-1 $76 $77 $44 $-1 $78 reversed single #
face $-1 $79 $80 $45 $-1 $81 forward single #
face $-1 $82 $83 $46 $-1 $84 forward single #
face $-1 $85 $86 $47 $-1 $87 forward single #
face $-1 $88 $89 $48 $-1 $90 reversed single #
face $-1 $91 $92 $49 $-1 $93 forward single #
face $-1 $94 $95 $50 $-1 $96 forward single #
face $-1 $97 $98 $51 $-1 $99 forward single #
face $-1 $100 $101 $52 $-1 $102 reversed single #
face $-1 $103 $104 $53 $-1 $105 forward single #
face $-1 $106 $107 $54 $-1 $108 forward single #
face $-1 $109 $110 $55 $-1 $111 forward single #
face $-1 $112 $113 $42 $-1 $114 reversed single #
loop $-1 $-1 $115 $56 #
plane-surface $-1 0 0 7.1344720748888255 0 0 1 1 0 0 forward_v I I I I #
face $-1 $116 $117 $43 $-1 $118 forward single #
loop $-1 $-1 $119 $57 #
plane-surface $-1 -77.344889675588234 0 0 1 0 0 0 0 -1 forward_v I I I I #
face $-1 $120 $121 $44 $-1 $122 reversed single #
loop $-1 $-1 $123 $58 #
plane-surface $-1 -70.110107798614948 71.690750091494849 161.95994437009261 1 0 0 0 -0.5877852598018023 -0.80901698891910034 forward_v I I I I #
face $-1 $124 $125 $45 $-1 $126 forward single #
loop $-1 $127 $128 $59 #
cone-surface $-1 -62.728762721035793 23.956599959914779 0.36232457825800246 0 -0.5877852598018023 -0.80901698891910034 2.5 0 0 1 I I 0 1 2.5 forward I I I I #
face $-1 $129 $130 $46 $-1 $131 forward single #
loop $-1 $132 $133 $60 #
cone-surface $-1 -51.656745104667039 23.956599959914779 0.36232457825800246 0 -0.5877852598018023 -0.80901698891910034 2.5 0 0 1 I I 0 1 2.5 forward I I I I #
face $-1 $134 $135 $47 $-1 $136 forward single #
loop $-1 $137 $138 $61 #
cone-surface $-1 -40.584727488298299 23.956599959914779 0.36232457825800246 0 -0.5877852598018023 -0.80901698891910034 2.5 0 0 1 I I 0 1 2.5 forward I I I I #
face $-1 $139 $140 $48 $-1 $141 reversed single #
loop $-1 $-1 $142 $62 #
plane-surface $-1 3.6173909384866363 -136.61883184839175 113.33659273275565 -1 0 0 0 -0.68199836817093118 0.7313536940579346 forward_v I I I I #
face $-1 $143 $144 $49 $-1 $145 forward single #
loop $-1 $146 $147 $63 #
cone-surface $-1 -22.144280100687574 -25.812036600971268 1.9613997394671872 0 0.68199836817093118 -0.7313536940579346 2.5 0 0 1 I I 0 1 2.5 forward I I I I #
face $-1 $148 $149 $50 $-1 $150 forward single #
loop $-1 $151 $152 $64 #
cone-surface $-1 -12.483653460997246 -25.812036600971268 1.9613997394671872 0 0.68199836817093118 -0.7313536940579346 2.5 0 0 1 I I 0 1 2.5 forward I I I I #
face $-1 $153 $154 $51 $-1 $155 forward single #
loop $-1 $156 $157 $65 #
cone-surface $-1 -2.823026821306911 -25.812036600971268 1.9613997394671872 0 0.68199836817093118 -0.7313536940579346 2.5 0 0 1 I I 0 1 2.5 forward I I I I #
face $-1 $158 $159 $52 $-1 $160 reversed single #
loop $-1 $-1 $161 $66 #
plane-surface $-1 -12.483653460997246 -31.120654758167987 0.2036511712659177 0 -0.68199836817093118 0.7313536940579346 1 0 0 forward_v I I I I #
face $-1 $162 $163 $53 $-1 $164 forward single #
loop $-1 $165 $166 $67 #
cone-surface $-1 10.057808698280212 -25.812036600971268 1.9613997394671872 0 0.68199836817093118 -0.7313536940579346 2.5 0 0 1 I I 0 1 2.5 forward I I I I #
face $-1 $167 $168 $54 $-1 $169 forward single #
loop $-1 $170 $171 $68 #
cone-surface $-1 19.718435337970533 -25.812036600971268 1.9613997394671872 0 0.68199836817093118 -0.7313536940579346 2.5 0 0 1 I I 0 1 2.5 forward I I I I #
face $-1 $172 $173 $55 $-1 $174 forward single #
loop $-1 $175 $176 $69 #
cone-surface $-1 29.379061977660868 -25.812036600971268 1.9613997394671872 0 0.68199836817093118 -0.7313536940579346 2.5 0 0 1 I I 0 1 2.5 forward I I I I #
face $-1 $177 $178 $42 $-1 $179 reversed single #
loop $-1 $-1 $180 $70 #
plane-surface $-1 0 0 -7.1344720748888255 0 0 1 1 0 0 forward_v I I I I #
coedge $-1 $181 $182 $183 $184 forward $71 $-1 #
face $-1 $185 $186 $43 $-1 $187 reversed single #
loop $-1 $-1 $188 $73 #
plane-surface $-1 0 0 7.1344720748888255 0 0 1 1 0 0 forward_v I I I I #
coedge $-1 $189 $190 $191 $192 forward $74 $-1 #
face $-1 $193 $194 $44 $-1 $195 reversed single #
loop $-1 $-1 $196 $76 #
plane-surface $-1 -51.656745104667039 -19.233622053119888 36.813284862843801 0 0.5877852598018023 0.80901698891910034 1 0 0 forward_v I I I I #
coedge $-1 $197 $198 $199 $200 reversed $77 $-1 #
face $-1 $-1 $201 $45 $-1 $202 forward single #
loop $-1 $203 $204 $79 #
cone-surface $-1 -62.728762721035793 20.810261720036653 -3.9682384062672176 0 -0.5877852598018023 -0.80901698891910034 1.25 0 0 1 I I -0.70710678118654746 0.70710678118654746 1.25 forward I I I I #
loop $-1 $-1 $205 $59 #
coedge $-1 $128 $128 $206 $207 reversed $80 $-1 #
face $-1 $-1 $208 $46 $-1 $209 forward single #
loop $-1 $210 $211 $82 #
cone-surface $-1 -51.656745104667039 20.810261720036653 -3.9682384062672176 0 -0.5877852598018023 -0.80901698891910034 1.25 0 0 1 I I -0.70710678118654746 0.70710678118654746 1.25 forward I I I I #
loop $-1 $-1 $212 $60 #
coedge $-1 $133 $133 $213 $214 reversed $83 $-1 #
face $-1 $-1 $215 $47 $-1 $216 forward single #
loop $-1 $217 $218 $85 #
cone-surface $-1 -40.584727488298299 20.810261720036653 -3.9682384062672176 0 -0.5877852598018023 -0.80901698891910034 1.25 0 0 1 I I -0.70710678118654746 0.70710678118654746 1.25 forward I I I I #
loop $-1 $-1 $219 $61 #
coedge $-1 $138 $138 $220 $221 reversed $86 $-1 #
face $-1 $222 $223 $48 $-1 $224 reversed single #
loop $-1 $-1 $225 $88 #
plane-surface $-1 -12.483653460997246 -31.120654758167987 0.2036511712659177 0 -0.68199836817093118 0.7313536940579346 1 0 0 forward_v I I I I #
coedge $-1 $226 $227 $228 $229 reversed $89 $-1 #
face $-1 $-1 $230 $49 $-1 $231 forward single #
loop $-1 $232 $233 $91 #
cone-surface $-1 -22.144280100687574 -23.367118136872669 -0.66045426171541788 0 0.68199836817093118 -0.7313536940579346 1.25 0 0 1 I I -0.70710678118654746 0.70710678118654746 1.25 forward I I I I #
loop $-1 $-1 $234 $63 #
coedge $-1 $147 $147 $235 $236 reversed $92 $-1 #
face $-1 $-1 $237 $50 $-1 $238 forward single #
loop $-1 $239 $240 $94 #
cone-surface $-1 -12.483653460997246 -23.367118136872669 -0.66045426171541788 0 0.68199836817093118 -0.7313536940579346 1.25 0 0 1 I I -0.70710678118654746 0.70710678118654746 1.25 forward I I I I #
loop $-1 $-1 $241 $64 #
coedge $-1 $152 $152 $242 $243 reversed $95 $-1 #
face $-1 $-1 $244 $51 $-1 $245 forward single #
loop $-1 $246 $247 $97 #
cone-surface $-1 -2.823026821306911 -23.367118136872669 -0.66045426171541788 0 0.68199836817093118 -0.7313536940579346 1.25 0 0 1 I I -0.70710678118654746 0.70710678118654746 1.25 forward I I I I #
loop $-1 $-1 $248 $65 #
coedge $-1 $157 $157 $249 $250 reversed $98 $-1 #
face $-1 $251 $252 $52 $-1 $253 reversed single #
loop $-1 $-1 $254 $100 #
plane-surface $-1 35.819479737454415 -136.61883184839175 113.33659273275565 -1 0 0 0 -0.68199836817093118 0.7313536940579346 forward_v I I I I #
coedge $-1 $255 $256 $257 $258 reversed $101 $-1 #
face $-1 $-1 $259 $53 $-1 $260 forward single #
loop $-1 $261 $262 $103 #
cone-surface $-1 10.057808698280212 -23.367118136872669 -0.66045426171541788 0 0.68199836817093118 -0.7313536940579346 1.25 0 0 1 I I -0.70710678118654746 0.70710678118654746 1.25 forward I I I I #
loop $-1 $-1 $263 $67 #
coedge $-1 $166 $166 $264 $265 reversed $104 $-1 #
face $-1 $-1 $266 $54 $-1 $267 forward single #
loop $-1 $268 $269 $106 #
cone-surface $-1 19.718435337970533 -23.367118136872669 -0.66045426171541788 0 0.68199836817093118 -0.7313536940579346 1.25 0 0 1 I I -0.70710678118654746 0.70710678118654746 1.25 forward I I I I #
loop $-1 $-1 $270 $68 #
coedge $-1 $171 $171 $271 $272 reversed $107 $-1 #
face $-1 $-1 $273 $55 $-1 $274 forward single #
loop $-1 $275 $276 $109 #
cone-surface $-1 29.379061977660868 -23.367118136872669 -0.66045426171541788 0 0.68199836817093118 -0.7313536940579346 1.25 0 0 1 I I -0.70710678118654746 0.70710678118654746 1.25 forward I I I I #
loop $-1 $-1 $277 $69 #
coedge $-1 $176 $176 $278 $279 reversed $110 $-1 #
face $-1 $280 $281 $42 $-1 $282 reversed single #
loop $-1 $-1 $283 $112 #
plane-surface $-1 0 -31.120654758167991 0 0 1 0 0 0 1 forward_v I I I I #
coedge $-1 $284 $285 $286 $287 forward $113 $-1 #
coedge $-1 $288 $115 $289 $290 forward $71 $-1 #
coedge $-1 $115 $288 $291 $292 forward $71 $-1 #
coedge $-1 $293 $294 $115 $184 reversed $295 $-1 #
edge $-1 $296 -31.120654758167991 $297 31.120654758167991 $183 $298 forward 7 unknown #
face $-1 $299 $300 $43 $-1 $301 reversed single #
loop $-1 $-1 $302 $116 #
plane-surface $-1 -84.579671552561507 -29.189250157798675 0 1 0 0 0 0 -1 forward_v I I I I #
coedge $-1 $303 $304 $189 $305 forward $117 $-1 #
coedge $-1 $306 $119 $188 $305 reversed $74 $-1 #
coedge $-1 $119 $306 $307 $308 reversed $74 $-1 #
coedge $-1 $309 $310 $119 $192 reversed $300 $-1 #
edge $-1 $311 -7.1344720748888255 $312 7.1344720748888255 $191 $313 forward 7 unknown #
face $-1 $314 $315 $44 $-1 $316 forward single #
loop $-1 $-1 $317 $120 #
plane-surface $-1 -33.203382410719129 71.690750091494849 161.95994437009261 -1 0 0 0 0.5877852598018023 0.80901698891910034 forward_v I I I I #
coedge $-1 $318 $319 $320 $321 reversed $121 $-1 #
coedge $-1 $198 $123 $322 $323 reversed $77 $-1 #
coedge $-1 $123 $197 $318 $324 reversed $77 $-1 #
coedge $-1 $320 $325 $123 $200 forward $315 $-1 #
edge $-1 $326 4.7247202875794336 $327 14.22961655383412 $199 $328 forward 7 unknown #
loop $-1 $-1 $206 $124 #
plane-surface $-1 -51.656745104667039 -19.233622053119888 36.813284862843801 0 0.5877852598018023 0.80901698891910034 1 0 0 forward_v I I I I #
loop $-1 $-1 $329 $79 #
coedge $-1 $204 $204 $205 $330 reversed $125 $-1 #
coedge $-1 $205 $205 $204 $330 forward $127 $-1 #
coedge $-1 $206 $206 $128 $207 forward $201 $-1 #
edge $-1 $331 9.4201330208004467e-016 $331 6.2831853071796013 $206 $332 forward 7 unknown #
loop $-1 $-1 $213 $129 #
plane-surface $-1 -51.656745104667039 -19.233622053119888 36.813284862843801 0 0.5877852598018023 0.80901698891910034 1 0 0 forward_v I I I I #
loop $-1 $-1 $333 $82 #
coedge $-1 $211 $211 $212 $334 reversed $130 $-1 #
coedge $-1 $212 $212 $211 $334 forward $132 $-1 #
coedge $-1 $213 $213 $133 $214 forward $208 $-1 #
edge $-1 $335 9.4201330208004467e-016 $335 6.2831853071796013 $213 $336 forward 7 unknown #
loop $-1 $-1 $220 $134 #
plane-surface $-1 -51.656745104667039 -19.233622053119888 36.813284862843801 0 0.5877852598018023 0.80901698891910034 1 0 0 forward_v I I I I #
loop $-1 $-1 $337 $85 #
coedge $-1 $218 $218 $219 $338 reversed $135 $-1 #
coedge $-1 $219 $219 $218 $338 forward $137 $-1 #
coedge $-1 $220 $220 $138 $221 forward $215 $-1 #
edge $-1 $339 9.4201330208004467e-016 $339 6.2831853071796013 $220 $340 forward 7 unknown #
face $-1 $341 $342 $48 $-1 $343 forward single #
loop $-1 $-1 $344 $139 #
plane-surface $-1 -28.584697860481128 -136.61883184839175 113.33659273275565 1 0 0 0 0.68199836817093118 -0.7313536940579346 forward_v I I I I #
coedge $-1 $345 $346 $347 $348 reversed $140 $-1 #
coedge $-1 $227 $142 $349 $350 reversed $89 $-1 #
coedge $-1 $142 $226 $345 $351 reversed $89 $-1 #
coedge $-1 $347 $352 $142 $229 forward $342 $-1 #
edge $-1 $353 37.188761166027888 $354 44.621156472651464 $228 $355 forward 7 unknown #
loop $-1 $-1 $235 $143 #
plane-surface $-1 -12.483653460997246 -31.120654758167987 0.2036511712659177 0 -0.68199836817093118 0.7313536940579346 1 0 0 forward_v I I I I #
loop $-1 $-1 $356 $91 #
coedge $-1 $233 $233 $234 $357 reversed $144 $-1 #
coedge $-1 $234 $234 $233 $357 forward $146 $-1 #
coedge $-1 $235 $235 $147 $236 forward $230 $-1 #
edge $-1 $358 -7.0138136560165447e-017 $358 6.2831853071796004 $235 $359 forward 7 unknown #
loop $-1 $-1 $242 $148 #
plane-surface $-1 -12.483653460997246 -31.120654758167987 0.2036511712659177 0 -0.68199836817093118 0.7313536940579346 1 0 0 forward_v I I I I #
loop $-1 $-1 $360 $94 #
coedge $-1 $240 $240 $241 $361 reversed $149 $-1 #
coedge $-1 $241 $241 $240 $361 forward $151 $-1 #
coedge $-1 $242 $242 $152 $243 forward $237 $-1 #
edge $-1 $362 -7.0138136560165447e-017 $362 6.2831853071796004 $242 $363 forward 7 unknown #
loop $-1 $-1 $249 $153 #
plane-surface $-1 -12.483653460997246 -31.120654758167987 0.2036511712659177 0 -0.68199836817093118 0.7313536940579346 1 0 0 forward_v I I I I #
loop $-1 $-1 $364 $97 #
coedge $-1 $247 $247 $248 $365 reversed $154 $-1 #
coedge $-1 $248 $248 $247 $365 forward $156 $-1 #
coedge $-1 $249 $249 $157 $250 forward $244 $-1 #
edge $-1 $366 -7.0138136560165447e-017 $366 6.2831853071796004 $249 $367 forward 7 unknown #
face $-1 $368 $369 $52 $-1 $370 forward single #
loop $-1 $-1 $371 $158 #
plane-surface $-1 0 -31.120654758167991 0 0 1 0 0 0 1 forward_v I I I I #
coedge $-1 $372 $373 $374 $375 reversed $159 $-1 #
coedge $-1 $376 $161 $377 $378 reversed $101 $-1 #
coedge $-1 $161 $376 $371 $379 reversed $101 $-1 #
coedge $-1 $380 $381 $161 $258 forward $369 $-1 #
edge $-1 $382 -10.162518309553811 $383 4.8508718889438544e-015 $257 $384 forward 7 unknown #
loop $-1 $-1 $264 $162 #
plane-surface $-1 -12.483653460997246 -31.120654758167987 0.2036511712659177 0 -0.68199836817093118 0.7313536940579346 1 0 0 forward_v I I I I #
loop $-1 $-1 $385 $103 #
coedge $-1 $262 $262 $263 $386 reversed $163 $-1 #
coedge $-1 $263 $263 $262 $386 forward $165 $-1 #
coedge $-1 $264 $264 $166 $265 forward $259 $-1 #
edge $-1 $387 -7.0138136560165447e-017 $387 6.2831853071796004 $264 $388 forward 7 unknown #
loop $-1 $-1 $271 $167 #
plane-surface $-1 -12.483653460997246 -31.120654758167987 0.2036511712659177 0 -0.68199836817093118 0.7313536940579346 1 0 0 forward_v I I I I #
loop $-1 $-1 $389 $106 #
coedge $-1 $269 $269 $270 $390 reversed $168 $-1 #
coedge $-1 $270 $270 $269 $390 forward $170 $-1 #
coedge $-1 $271 $271 $171 $272 forward $266 $-1 #
edge $-1 $391 -7.0138136560165447e-017 $391 6.2831853071796004 $271 $392 forward 7 unknown #
loop $-1 $-1 $278 $172 #
plane-surface $-1 -12.483653460997246 -31.120654758167987 0.2036511712659177 0 -0.68199836817093118 0.7313536940579346 1 0 0 forward_v I I I I #
loop $-1 $-1 $393 $109 #
coedge $-1 $276 $276 $277 $394 reversed $173 $-1 #
coedge $-1 $277 $277 $276 $394 forward $175 $-1 #
coedge $-1 $278 $278 $176 $279 forward $273 $-1 #
edge $-1 $395 -7.0138136560165447e-017 $395 6.2831853071796004 $278 $396 forward 7 unknown #
face $-1 $397 $398 $42 $-1 $399 reversed single #
loop $-1 $-1 $400 $177 #
plane-surface $-1 -77.344889675588234 0 0 1 0 0 0 0 -1 forward_v I I I I #
coedge $-1 $401 $291 $402 $403 forward $178 $-1 #
coedge $-1 $404 $180 $401 $405 forward $113 $-1 #
coedge $-1 $180 $404 $406 $407 forward $113 $-1 #
coedge $-1 $294 $293 $180 $287 reversed $295 $-1 #
edge $-1 $408 -31.120654758167991 $409 31.120654758167991 $286 $410 forward 7 unknown #
coedge $-1 $182 $181 $400 $411 forward $71 $-1 #
coedge $-1 $412 $413 $181 $290 reversed $398 $-1 #
edge $-1 $297 -77.344889675588234 $414 77.344889675588234 $289 $415 forward 7 unknown #
coedge $-1 $283 $416 $182 $292 reversed $178 $-1 #
edge $-1 $417 -77.344889675588234 $296 77.344889675588234 $291 $418 forward 7 unknown #
coedge $-1 $286 $183 $416 $419 forward $295 $-1 #
coedge $-1 $183 $286 $412 $420 reversed $295 $-1 #
loop $-1 $-1 $293 $397 #
vertex $-1 $184 $421 #
vertex $-1 $184 $422 #
straight-curve $-1 77.344889675588234 0 7.1344720748888255 0 1 0 I I #
face $-1 $423 $424 $43 $-1 $425 reversed single #
loop $-1 $-1 $191 $185 #
plane-surface $-1 -80.962280614074871 -27.257845557429359 0 0 -1 0 0 0 -1 forward_v I I I I #
coedge $-1 $426 $427 $428 $429 forward $186 $-1 #
coedge $-1 $430 $188 $310 $431 forward $117 $-1 #
coedge $-1 $188 $430 $432 $433 forward $117 $-1 #
edge $-1 $434 -31.120654758167991 $312 -27.257845557429359 $188 $435 forward 7 unknown #
coedge $-1 $190 $189 $436 $437 reversed $74 $-1 #
coedge $-1 $438 $439 $190 $308 forward $424 $-1 #
edge $-1 $311 27.257845557429359 $440 31.120654758167991 $307 $441 forward 7 unknown #
coedge $-1 $428 $191 $439 $442 reversed $300 $-1 #
coedge $-1 $191 $428 $303 $431 reversed $300 $-1 #
vertex $-1 $308 $443 #
vertex $-1 $431 $444 #
straight-curve $-1 -77.344889675588234 -27.257845557429359 0 0 0 1 I I #
face $-1 $-1 $445 $44 $-1 $446 reversed single #
loop $-1 $-1 $199 $193 #
plane-surface $-1 0 0 7.1344720748888255 0 0 1 1 0 0 forward_v I I I I #
coedge $-1 $447 $448 $449 $450 reversed $194 $-1 #
coedge $-1 $451 $196 $198 $324 forward $121 $-1 #
coedge $-1 $196 $451 $447 $452 forward $121 $-1 #
coedge $-1 $449 $199 $196 $321 forward $315 $-1 #
edge $-1 $327 -44.281735246281428 $453 -7.3750098583856101 $320 $454 forward 7 unknown #
coedge $-1 $455 $456 $197 $323 forward $445 $-1 #
edge $-1 $457 -80.75121160666643 $326 -73.845500110157488 $322 $458 forward 7 unknown #
edge $-1 $327 50.492611532930397 $457 62.241309516335974 $198 $459 forward 7 unknown #
coedge $-1 $199 $449 $455 $460 forward $315 $-1 #
vertex $-1 $323 $461 #
vertex $-1 $200 $462 #
straight-curve $-1 -70.110107798614948 35.845375045747424 7.1344720748888193 0 -1 0 I I #
coedge $-1 $329 $329 $-1 $463 reversed $203 $-1 #
edge $-1 $464 0 $464 6.2831853071796004 $204 $465 forward 7 unknown #
vertex $-1 $207 $466 #
ellipse-curve $-1 -62.728762721035793 26.368206625040649 3.6816163266343422 0 0.5877852598018023 0.80901698891910034 2.5 0 0 1 I I #
coedge $-1 $333 $333 $-1 $467 reversed $210 $-1 #
edge $-1 $468 0 $468 6.2831853071796004 $211 $469 forward 7 unknown #
vertex $-1 $214 $470 #
ellipse-curve $-1 -51.656745104667039 26.368206625040649 3.6816163266343422 0 0.5877852598018023 0.80901698891910034 2.5 0 0 1 I I #
coedge $-1 $337 $337 $-1 $471 reversed $217 $-1 #
edge $-1 $472 0 $472 6.2831853071796004 $218 $473 forward 7 unknown #
vertex $-1 $221 $474 #
ellipse-curve $-1 -40.584727488298299 26.368206625040649 3.6816163266343422 0 0.5877852598018023 0.80901698891910034 2.5 0 0 1 I I #
face $-1 $-1 $475 $48 $-1 $476 reversed single #
loop $-1 $-1 $228 $222 #
plane-surface $-1 0 0 7.1344720748888255 0 0 1 1 0 0 forward_v I I I I #
coedge $-1 $477 $478 $479 $480 reversed $223 $-1 #
coedge $-1 $481 $225 $227 $351 forward $140 $-1 #
coedge $-1 $225 $481 $477 $482 forward $140 $-1 #
coedge $-1 $479 $228 $225 $348 forward $342 $-1 #
edge $-1 $354 -9.8592176689852593 $483 22.342871129982505 $347 $484 forward 7 unknown #
coedge $-1 $485 $486 $226 $350 forward $475 $-1 #
edge $-1 $487 -56.464645195111906 $353 -49.533824291488997 $349 $488 forward 7 unknown #
edge $-1 $354 -10.162518309553811 $487 4.8508718889438544e-015 $227 $489 forward 7 unknown #
coedge $-1 $228 $479 $485 $490 forward $342 $-1 #
vertex $-1 $229 $491 #
vertex $-1 $229 $492 #
straight-curve $-1 3.6173909384866363 -68.309415924195875 7.1344720748888264 0 1 0 I I #
coedge $-1 $356 $356 $-1 $493 reversed $232 $-1 #
edge $-1 $494 0 $494 6.2831853071796004 $233 $495 forward 7 unknown #
vertex $-1 $236 $496 #
ellipse-curve $-1 -22.144280100687574 -27.404457104856203 3.6690616230773703 0 -0.68199836817093118 0.7313536940579346 2.5 0 0 1 I I #
coedge $-1 $360 $360 $-1 $497 reversed $239 $-1 #
edge $-1 $498 0 $498 6.2831853071796004 $240 $499 forward 7 unknown #
vertex $-1 $243 $500 #
ellipse-curve $-1 -12.483653460997246 -27.404457104856203 3.6690616230773703 0 -0.68199836817093118 0.7313536940579346 2.5 0 0 1 I I #
coedge $-1 $364 $364 $-1 $501 reversed $246 $-1 #
edge $-1 $502 0 $502 6.2831853071796004 $247 $503 forward 7 unknown #
vertex $-1 $250 $504 #
ellipse-curve $-1 -2.823026821306911 -27.404457104856203 3.6690616230773703 0 -0.68199836817093118 0.7313536940579346 2.5 0 0 1 I I #
face $-1 $-1 $505 $52 $-1 $506 forward single #
loop $-1 $-1 $381 $251 #
plane-surface $-1 3.6173909384866363 -136.61883184839175 113.33659273275565 -1 0 0 0 -0.68199836817093118 0.7313536940579346 forward_v I I I I #
coedge $-1 $374 $507 $256 $379 forward $252 $-1 #
coedge $-1 $373 $254 $376 $508 reversed $159 $-1 #
coedge $-1 $254 $372 $509 $510 reversed $159 $-1 #
coedge $-1 $511 $371 $254 $375 forward $252 $-1 #
edge $-1 $512 -56.464645195111906 $513 -49.533824291488997 $374 $514 forward 7 unknown #
coedge $-1 $256 $255 $372 $508 forward $101 $-1 #
coedge $-1 $515 $509 $255 $378 forward $505 $-1 #
edge $-1 $516 -42.061306467953038 $382 -9.8592176689852593 $377 $517 forward 7 unknown #
edge $-1 $383 9.8592176689852593 $512 42.061306467953038 $371 $518 forward 7 unknown #
coedge $-1 $381 $257 $507 $519 reversed $369 $-1 #
coedge $-1 $257 $380 $515 $520 reversed $369 $-1 #
vertex $-1 $378 $521 #
vertex $-1 $379 $522 #
straight-curve $-1 3.6173909384866363 -31.120654758167987 0.2036511712659177 0 -0.7313536940579346 -0.68199836817093118 I I #
coedge $-1 $385 $385 $-1 $523 reversed $261 $-1 #
edge $-1 $524 0 $524 6.2831853071796004 $262 $525 forward 7 unknown #
vertex $-1 $265 $526 #
ellipse-curve $-1 10.057808698280212 -27.404457104856203 3.6690616230773703 0 -0.68199836817093118 0.7313536940579346 2.5 0 0 1 I I #
coedge $-1 $389 $389 $-1 $527 reversed $268 $-1 #
edge $-1 $528 0 $528 6.2831853071796004 $269 $529 forward 7 unknown #
vertex $-1 $272 $530 #
ellipse-curve $-1 19.718435337970533 -27.404457104856203 3.6690616230773703 0 -0.68199836817093118 0.7313536940579346 2.5 0 0 1 I I #
coedge $-1 $393 $393 $-1 $531 reversed $275 $-1 #
edge $-1 $532 0 $532 6.2831853071796004 $276 $533 forward 7 unknown #
vertex $-1 $279 $534 #
ellipse-curve $-1 29.379061977660868 -27.404457104856203 3.6690616230773703 0 -0.68199836817093118 0.7313536940579346 2.5 0 0 1 I I #
face $-1 $-1 $295 $42 $-1 $535 reversed single #
loop $-1 $-1 $412 $280 #
plane-surface $-1 0 31.120654758167991 0 0 -1 0 0 0 -1 forward_v I I I I #
coedge $-1 $536 $402 $288 $411 reversed $281 $-1 #
coedge $-1 $416 $283 $284 $405 reversed $178 $-1 #
coedge $-1 $400 $537 $283 $403 reversed $281 $-1 #
edge $-1 $417 -7.1344720748888255 $538 7.1344720748888255 $402 $539 forward 7 unknown #
coedge $-1 $285 $284 $537 $540 forward $113 $-1 #
edge $-1 $409 -77.344889675588234 $538 77.344889675588234 $401 $541 forward 7 unknown #
coedge $-1 $413 $412 $285 $407 reversed $398 $-1 #
edge $-1 $542 -77.344889675588234 $408 77.344889675588234 $406 $543 forward 7 unknown #
vertex $-1 $287 $544 #
vertex $-1 $419 $545 #
straight-curve $-1 77.344889675588234 0 -7.1344720748888255 0 -1 0 I I #
edge $-1 $414 -31.120654758167991 $417 31.120654758167991 $400 $546 forward 7 unknown #
coedge $-1 $406 $289 $294 $420 forward $398 $-1 #
coedge $-1 $289 $406 $536 $547 reversed $398 $-1 #
vertex $-1 $290 $548 #
straight-curve $-1 0 31.120654758167991 7.1344720748888255 -1 0 0 I I #
coedge $-1 $291 $401 $293 $419 reversed $178 $-1 #
vertex $-1 $411 $549 #
straight-curve $-1 0 -31.120654758167991 7.1344720748888255 1 0 0 I I #
edge $-1 $296 -7.1344720748888255 $409 7.1344720748888255 $293 $550 forward 7 unknown #
edge $-1 $297 -7.1344720748888255 $408 7.1344720748888255 $294 $551 forward 7 unknown #
point $-1 77.344889675588234 -31.120654758167991 7.1344720748888255 #
point $-1 77.344889675588234 31.120654758167991 7.1344720748888255 #
face $-1 $-1 $552 $43 $-1 $553 reversed single #
loop $-1 $-1 $307 $299 #
plane-surface $-1 0 0 -7.1344720748888255 0 0 1 1 0 0 forward_v I I I I #
coedge $-1 $554 $302 $555 $556 reversed $186 $-1 #
coedge $-1 $302 $554 $430 $557 reversed $186 $-1 #
coedge $-1 $310 $309 $302 $429 reversed $300 $-1 #
edge $-1 $558 -7.1344720748888255 $559 7.1344720748888255 $428 $560 forward 7 unknown #
coedge $-1 $304 $303 $427 $557 forward $117 $-1 #
edge $-1 $312 -3.6173909384866363 $558 3.6173909384866363 $310 $561 forward 7 unknown #
coedge $-1 $562 $436 $304 $433 reversed $552 $-1 #
edge $-1 $563 -84.579671552561507 $434 -77.344889675588234 $432 $564 forward 7 unknown #
vertex $-1 $437 $565 #
straight-curve $-1 -77.344889675588234 0 7.1344720748888255 0 1 0 I I #
coedge $-1 $432 $566 $306 $437 forward $552 $-1 #
edge $-1 $440 -7.1344720748888255 $434 7.1344720748888255 $436 $567 forward 7 unknown #
coedge $-1 $555 $307 $566 $568 forward $424 $-1 #
coedge $-1 $307 $555 $309 $442 forward $424 $-1 #
vertex $-1 $568 $569 #
straight-curve $-1 -77.344889675588234 0 -7.1344720748888255 0 -1 0 I I #
edge $-1 $559 -3.6173909384866363 $311 3.6173909384866363 $309 $570 forward 7 unknown #
point $-1 -77.344889675588234 -27.257845557429359 -7.1344720748888255 #
point $-1 -77.344889675588234 -27.257845557429359 7.1344720748888255 #
loop $-1 $-1 $322 $314 #
plane-surface $-1 0 31.120654758167991 0 0 -1 0 0 0 -1 forward_v I I I I #
coedge $-1 $448 $317 $319 $452 reversed $194 $-1 #
coedge $-1 $317 $447 $571 $572 reversed $194 $-1 #
coedge $-1 $325 $320 $317 $450 forward $315 $-1 #
edge $-1 $453 -14.22961655383412 $573 -4.7247202875794336 $449 $574 forward 7 unknown #
coedge $-1 $319 $318 $456 $575 reversed $121 $-1 #
edge $-1 $576 -62.241309516335974 $453 -50.492611532930397 $447 $577 forward 7 unknown #
vertex $-1 $321 $578 #
straight-curve $-1 -25.828372552333519 21.615758491913308 7.1344720748888264 1 0 0 I I #
coedge $-1 $571 $322 $325 $460 reversed $445 $-1 #
coedge $-1 $322 $571 $451 $575 forward $445 $-1 #
vertex $-1 $323 $579 #
straight-curve $-1 -70.110107798614948 31.120654758167991 80.979972185046307 0 0 1 I I #
straight-curve $-1 -70.110107798614948 -19.233622053119888 36.813284862843801 0 0.80901698891910034 -0.5877852598018023 I I #
edge $-1 $573 33.203382410719129 $326 70.110107798614948 $455 $580 forward 7 unknown #
point $-1 -70.110107798614948 31.120654758167991 7.1344720748888255 #
point $-1 -70.110107798614948 21.615758491913304 7.1344720748888264 #
edge $-1 $581 1 $581 0 $329 $-1 forward 7 unknown #
vertex $-1 $330 $582 #
ellipse-curve $-1 -62.728762721035793 21.544993294788906 -2.9569671701183422 0 0.5877852598018023 0.80901698891910034 2.5 0 0 1 I I #
point $-1 -60.228762721035793 26.368206625040656 3.681616326634348 #
edge $-1 $583 1 $583 0 $333 $-1 forward 7 unknown #
vertex $-1 $334 $584 #
ellipse-curve $-1 -51.656745104667039 21.544993294788906 -2.9569671701183422 0 0.5877852598018023 0.80901698891910034 2.5 0 0 1 I I #
point $-1 -49.156745104667039 26.368206625040656 3.681616326634348 #
edge $-1 $585 1 $585 0 $337 $-1 forward 7 unknown #
vertex $-1 $338 $586 #
ellipse-curve $-1 -40.584727488298299 21.544993294788906 -2.9569671701183422 0 0.5877852598018023 0.80901698891910034 2.5 0 0 1 I I #
point $-1 -38.084727488298299 26.368206625040656 3.681616326634348 #
loop $-1 $-1 $349 $341 #
plane-surface $-1 0 -31.120654758167991 0 0 1 0 0 0 1 forward_v I I I I #
coedge $-1 $478 $344 $346 $482 reversed $223 $-1 #
coedge $-1 $344 $477 $587 $588 reversed $223 $-1 #
coedge $-1 $352 $347 $344 $480 forward $342 $-1 #
edge $-1 $483 -44.621156472651464 $589 -37.188761166027888 $479 $590 forward 7 unknown #
coedge $-1 $346 $345 $486 $591 reversed $140 $-1 #
edge $-1 $592 -4.8508718889438544e-015 $483 10.162518309553811 $477 $593 forward 7 unknown #
vertex $-1 $348 $594 #
straight-curve $-1 -6.241826730498623 -23.688259451544411 7.1344720748888255 -1 0 0 I I #
coedge $-1 $587 $349 $352 $490 reversed $475 $-1 #
coedge $-1 $349 $587 $481 $591 forward $475 $-1 #
vertex $-1 $350 $595 #
straight-curve $-1 3.6173909384866363 -31.120654758167987 56.668296366377824 0 0 1 I I #
straight-curve $-1 3.6173909384866363 -31.120654758167987 0.2036511712659177 0 -0.7313536940579346 -0.68199836817093118 I I #
edge $-1 $589 -28.584697860481128 $353 3.6173909384866363 $485 $596 forward 7 unknown #
point $-1 3.6173909384866363 -31.120654758167991 7.1344720748888255 #
point $-1 3.6173909384866363 -23.688259451544411 7.1344720748888255 #
edge $-1 $597 1 $597 0 $356 $-1 forward 7 unknown #
vertex $-1 $357 $598 #
ellipse-curve $-1 -22.144280100687574 -24.219616097086334 0.25373785585700037 0 -0.68199836817093118 0.7313536940579346 2.5 0 0 1 I I #
point $-1 -19.644280100687574 -27.404457104856206 3.6690616230773738 #
edge $-1 $599 1 $599 0 $360 $-1 forward 7 unknown #
vertex $-1 $361 $600 #
ellipse-curve $-1 -12.483653460997246 -24.219616097086334 0.25373785585700037 0 -0.68199836817093118 0.7313536940579346 2.5 0 0 1 I I #
point $-1 -9.983653460997246 -27.404457104856206 3.6690616230773738 #
edge $-1 $601 1 $601 0 $364 $-1 forward 7 unknown #
vertex $-1 $365 $602 #
ellipse-curve $-1 -2.823026821306911 -24.219616097086334 0.25373785585700037 0 -0.68199836817093118 0.7313536940579346 2.5 0 0 1 I I #
point $-1 -0.32302682130691096 -27.404457104856206 3.6690616230773738 #
loop $-1 $-1 $377 $368 #
plane-surface $-1 0 0 7.1344720748888255 0 0 1 1 0 0 forward_v I I I I #
coedge $-1 $371 $511 $380 $519 forward $252 $-1 #
edge $-1 $516 -10.162518309553811 $512 4.8508718889438544e-015 $372 $603 forward 7 unknown #
coedge $-1 $377 $604 $373 $510 forward $505 $-1 #
edge $-1 $513 37.188761166027888 $516 44.621156472651464 $509 $605 forward 7 unknown #
coedge $-1 $507 $374 $604 $606 reversed $252 $-1 #
vertex $-1 $375 $607 #
vertex $-1 $375 $608 #
straight-curve $-1 35.819479737454415 -31.120654758167987 56.668296366377824 0 0 1 I I #
coedge $-1 $604 $377 $381 $520 forward $505 $-1 #
vertex $-1 $510 $609 #
straight-curve $-1 -6.241826730498623 -23.688259451544411 7.1344720748888255 -1 0 0 I I #
straight-curve $-1 -6.241826730498623 -31.120654758167991 0.20365117126591423 1 0 0 I I #
edge $-1 $610 49.533824291488997 $383 56.464645195111906 $507 $611 forward 7 unknown #
edge $-1 $382 -44.621156472651464 $610 -37.188761166027888 $515 $612 forward 7 unknown #
point $-1 3.6173909384866363 -23.688259451544411 7.1344720748888255 #
point $-1 3.6173909384866363 -31.120654758167991 0.20365117126591439 #
edge $-1 $613 1 $613 0 $385 $-1 forward 7 unknown #
vertex $-1 $386 $614 #
ellipse-curve $-1 10.057808698280212 -24.219616097086334 0.25373785585700037 0 -0.68199836817093118 0.7313536940579346 2.5 0 0 1 I I #
point $-1 12.557808698280212 -27.404457104856206 3.6690616230773738 #
edge $-1 $615 1 $615 0 $389 $-1 forward 7 unknown #
vertex $-1 $390 $616 #
ellipse-curve $-1 19.718435337970533 -24.219616097086334 0.25373785585700037 0 -0.68199836817093118 0.7313536940579346 2.5 0 0 1 I I #
point $-1 22.218435337970533 -27.404457104856206 3.6690616230773738 #
edge $-1 $617 1 $617 0 $393 $-1 forward 7 unknown #
vertex $-1 $394 $618 #
ellipse-curve $-1 29.379061977660868 -24.219616097086334 0.25373785585700037 0 -0.68199836817093118 0.7313536940579346 2.5 0 0 1 I I #
point $-1 31.879061977660868 -27.404457104856206 3.6690616230773738 #
plane-surface $-1 77.344889675588234 0 0 -1 0 0 0 0 1 forward_v I I I I #
coedge $-1 $537 $400 $413 $547 forward $281 $-1 #
coedge $-1 $402 $536 $404 $540 reversed $281 $-1 #
vertex $-1 $540 $619 #
straight-curve $-1 -77.344889675588234 -31.120654758167991 0 0 0 -1 I I #
edge $-1 $538 -31.120654758167991 $542 31.120654758167991 $537 $620 forward 7 unknown #
straight-curve $-1 0 -31.120654758167991 -7.1344720748888255 -1 0 0 I I #
vertex $-1 $407 $621 #
straight-curve $-1 0 31.120654758167991 -7.1344720748888255 1 0 0 I I #
point $-1 77.344889675588234 31.120654758167991 -7.1344720748888255 #
point $-1 77.344889675588234 -31.120654758167991 -7.1344720748888255 #
straight-curve $-1 -77.344889675588234 0 7.1344720748888255 0 -1 0 I I #
edge $-1 $414 -7.1344720748888255 $542 7.1344720748888255 $413 $622 forward 7 unknown #
point $-1 -77.344889675588234 31.120654758167991 7.1344720748888255 #
point $-1 -77.344889675588234 -31.120654758167991 7.1344720748888255 #
straight-curve $-1 77.344889675588234 -31.120654758167991 0 0 0 -1 I I #
straight-curve $-1 77.344889675588234 31.120654758167991 0 0 0 -1 I I #
loop $-1 $-1 $436 $423 #
plane-surface $-1 0 -31.120654758167991 0 0 1 0 0 0 1 forward_v I I I I #
coedge $-1 $427 $426 $562 $623 reversed $186 $-1 #
coedge $-1 $439 $438 $426 $556 forward $424 $-1 #
edge $-1 $624 -1.9314046003693157 $559 1.9314046003693157 $426 $625 forward 7 unknown #
edge $-1 $558 -1.9314046003693157 $563 1.9314046003693157 $427 $626 forward 7 unknown #
vertex $-1 $431 $627 #
vertex $-1 $442 $628 #
straight-curve $-1 -84.579671552561507 -27.257845557429359 0 0 0 -1 I I #
straight-curve $-1 -80.962280614074871 -27.257845557429359 7.1344720748888255 -1 0 0 I I #
coedge $-1 $566 $432 $554 $623 forward $552 $-1 #
vertex $-1 $557 $629 #
straight-curve $-1 0 -31.120654758167991 7.1344720748888255 1 0 0 I I #
point $-1 -77.344889675588234 -31.120654758167991 7.1344720748888255 #
coedge $-1 $436 $562 $438 $568 reversed $552 $-1 #
straight-curve $-1 -77.344889675588234 -31.120654758167991 0 0 0 1 I I #
edge $-1 $440 -3.6173909384866363 $624 3.6173909384866363 $566 $630 forward 7 unknown #
point $-1 -77.344889675588234 -31.120654758167991 -7.1344720748888255 #
straight-curve $-1 -80.962280614074871 -27.257845557429359 -7.1344720748888255 1 0 0 I I #
coedge $-1 $456 $455 $448 $572 forward $445 $-1 #
edge $-1 $573 73.845500110157488 $576 80.75121160666643 $571 $631 forward 7 unknown #
vertex $-1 $460 $632 #
straight-curve $-1 -33.203382410719129 35.845375045747424 7.1344720748888193 0 1 0 I I #
edge $-1 $576 7.3750098583856101 $457 44.281735246281428 $456 $633 forward 7 unknown #
vertex $-1 $575 $634 #
straight-curve $-1 -33.203382410719129 -19.233622053119888 36.813284862843801 0 -0.80901698891910034 0.5877852598018023 I I #
point $-1 -33.203382410719129 21.615758491913304 7.1344720748888264 #
point $-1 -70.110107798614948 31.120654758167987 0.22876057837986963 #
straight-curve $-1 0 31.120654758167991 7.1344720748888255 -1 0 0 I I #
vertex $-1 $463 $635 #
point $-1 -60.228762721035793 21.544993294788906 -2.9569671701183422 #
vertex $-1 $467 $636 #
point $-1 -49.156745104667039 21.544993294788906 -2.9569671701183422 #
vertex $-1 $471 $637 #
point $-1 -38.084727488298299 21.544993294788906 -2.9569671701183422 #
coedge $-1 $486 $485 $478 $588 forward $475 $-1 #
edge $-1 $589 49.533824291488997 $592 56.464645195111906 $587 $638 forward 7 unknown #
vertex $-1 $490 $639 #
straight-curve $-1 -28.584697860481128 -68.309415924195875 7.1344720748888264 0 -1 0 I I #
edge $-1 $592 -22.342871129982505 $487 9.8592176689852593 $486 $640 forward 7 unknown #
vertex $-1 $591 $641 #
straight-curve $-1 -28.584697860481128 -31.120654758167987 0.2036511712659177 0 0.7313536940579346 0.68199836817093118 I I #
point $-1 -28.584697860481128 -23.688259451544411 7.1344720748888255 #
point $-1 3.6173909384866363 -31.120654758167991 0.20365117126591439 #
straight-curve $-1 0 -31.120654758167991 7.1344720748888255 1 0 0 I I #
vertex $-1 $493 $642 #
point $-1 -19.644280100687574 -24.219616097086334 0.25373785585700037 #
vertex $-1 $497 $643 #
point $-1 -9.983653460997246 -24.219616097086334 0.25373785585700037 #
vertex $-1 $501 $644 #
point $-1 -0.32302682130691096 -24.219616097086334 0.25373785585700037 #
straight-curve $-1 35.819479737454415 -31.120654758167987 0.2036511712659177 0 -0.7313536940579346 -0.68199836817093118 I I #
coedge $-1 $509 $515 $511 $606 forward $505 $-1 #
straight-curve $-1 35.819479737454415 -68.309415924195875 7.1344720748888264 0 1 0 I I #
edge $-1 $610 3.6173909384866363 $513 35.819479737454415 $511 $645 forward 7 unknown #
point $-1 35.819479737454415 -31.120654758167991 0.20365117126591439 #
point $-1 35.819479737454415 -31.120654758167991 7.1344720748888255 #
point $-1 35.819479737454415 -23.688259451544411 7.1344720748888255 #
vertex $-1 $606 $646 #
straight-curve $-1 3.6173909384866363 -31.120654758167987 56.668296366377824 0 0 -1 I I #
straight-curve $-1 3.6173909384866363 -68.309415924195875 7.1344720748888264 0 -1 0 I I #
vertex $-1 $523 $647 #
point $-1 12.557808698280212 -24.219616097086334 0.25373785585700037 #
vertex $-1 $527 $648 #
point $-1 22.218435337970533 -24.219616097086334 0.25373785585700037 #
vertex $-1 $531 $649 #
point $-1 31.879061977660868 -24.219616097086334 0.25373785585700037 #
point $-1 -77.344889675588234 -31.120654758167991 -7.1344720748888255 #
straight-curve $-1 -77.344889675588234 0 -7.1344720748888255 0 1 0 I I #
point $-1 -77.344889675588234 31.120654758167991 -7.1344720748888255 #
straight-curve $-1 -77.344889675588234 31.120654758167991 0 0 0 -1 I I #
edge $-1 $563 -7.1344720748888255 $624 7.1344720748888255 $554 $650 forward 7 unknown #
vertex $-1 $556 $651 #
straight-curve $-1 -84.579671552561507 -29.189250157798675 -7.1344720748888255 0 1 0 I I #
straight-curve $-1 -84.579671552561507 -29.189250157798675 7.1344720748888255 0 -1 0 I I #
point $-1 -84.579671552561507 -27.257845557429359 7.1344720748888255 #
point $-1 -84.579671552561507 -27.257845557429359 -7.1344720748888255 #
point $-1 -84.579671552561507 -31.120654758167991 7.1344720748888255 #
straight-curve $-1 -80.962280614074871 -31.120654758167991 -7.1344720748888255 -1 0 0 I I #
straight-curve $-1 -33.203382410719129 31.120654758167991 80.979972185046307 0 0 -1 I I #
point $-1 -33.203382410719129 31.120654758167991 7.1344720748888255 #
straight-curve $-1 -25.828372552333519 31.120654758167987 0.22876057837986963 -1 0 0 I I #
point $-1 -33.203382410719129 31.120654758167987 0.22876057837986963 #
point $-1 -62.728762721035793 20.0755301452844 -4.979509642416093 #
point $-1 -51.656745104667039 20.0755301452844 -4.979509642416093 #
point $-1 -40.584727488298299 20.0755301452844 -4.979509642416093 #
straight-curve $-1 -28.584697860481128 -31.120654758167987 56.668296366377824 0 0 -1 I I #
point $-1 -28.584697860481128 -31.120654758167991 7.1344720748888255 #
straight-curve $-1 -6.241826730498623 -31.120654758167991 0.20365117126591423 1 0 0 I I #
point $-1 -28.584697860481128 -31.120654758167991 0.20365117126591439 #
point $-1 -22.144280100687574 -22.514620176659005 -1.5746463792878362 #
point $-1 -12.483653460997246 -22.514620176659005 -1.5746463792878362 #
point $-1 -2.823026821306911 -22.514620176659005 -1.5746463792878362 #
straight-curve $-1 0 -31.120654758167991 7.1344720748888255 1 0 0 I I #
point $-1 3.6173909384866363 -31.120654758167991 7.1344720748888255 #
point $-1 10.057808698280212 -22.514620176659005 -1.5746463792878362 #
point $-1 19.718435337970533 -22.514620176659005 -1.5746463792878362 #
point $-1 29.379061977660868 -22.514620176659005 -1.5746463792878362 #
straight-curve $-1 -84.579671552561507 -31.120654758167991 0 0 0 -1 I I #
point $-1 -84.579671552561507 -31.120654758167991 -7.1344720748888255 #
End-of-ACIS-data 