500 0 9 0           
7 Unknown 11 ACIS 5.0 NT 24 Fri Mar 26 02:56:50 1999 
-1 9.9999999999999995e-007 1e-010 
body $-1 $9 $-1 $10 #
body $-1 $11 $-1 $12 #
body $-1 $13 $-1 $14 #
body $-1 $15 $-1 $16 #
body $-1 $17 $-1 $18 #
body $-1 $19 $-1 $20 #
body $-1 $21 $-1 $22 #
body $-1 $23 $-1 $24 #
body $-1 $25 $-1 $26 #
lump $-1 $-1 $27 $0 #
transform $-1 1 0 0 0 1 0 0 0 1 47.680898464918975 21.227581979320398 8.5266636706265206 1 rotate no_reflect no_shear #
lump $-1 $-1 $28 $1 #
transform $-1 1 0 0 0 1 0 0 0 1 47.680898464918975 21.227581979320398 8.5266636706265206 1 rotate no_reflect no_shear #
lump $-1 $-1 $29 $2 #
transform $-1 1 0 0 0 1 0 0 0 1 47.680898464918975 21.227581979320398 8.5266636706265206 1 rotate no_reflect no_shear #
lump $-1 $-1 $30 $3 #
transform $-1 1 0 0 0 1 0 0 0 1 47.680898464918975 21.227581979320398 8.5266636706265206 1 rotate no_reflect no_shear #
lump $-1 $-1 $31 $4 #
transform $-1 1 0 0 0 1 0 0 0 1 47.680898464918975 21.227581979320398 8.5266636706265206 1 rotate no_reflect no_shear #
lump $-1 $-1 $32 $5 #
transform $-1 1 0 0 0 1 0 0 0 1 47.680898464918975 21.227581979320398 8.5266636706265206 1 rotate no_reflect no_shear #
lump $-1 $-1 $33 $6 #
transform $-1 1 0 0 0 1 0 0 0 1 47.680898464918975 21.227581979320398 8.5266636706265206 1 rotate no_reflect no_shear #
lump $-1 $-1 $34 $7 #
transform $-1 1 0 0 0 1 0 0 0 1 47.680898464918975 21.227581979320398 8.5266636706265206 1 rotate no_reflect no_shear #
lump $-1 $-1 $35 $8 #
transform $-1 1 0 0 0 1 0 0 0 1 47.680898464918975 21.227581979320398 8.5266636706265206 1 rotate no_reflect no_shear #
shell $-1 $-1 $-1 $36 $-1 $9 #
shell $-1 $-1 $-1 $37 $-1 $11 #
shell $-1 $-1 $-1 $38 $-1 $13 #
shell $-1 $-1 $-1 $39 $-1 $15 #
shell $-1 $-1 $-1 $40 $-1 $17 #
shell $-1 $-1 $-1 $41 $-1 $19 #
shell $-1 $-1 $-1 $42 $-1 $21 #
shell $-1 $-1 $-1 $43 $-1 $23 #
shell $-1 $-1 $-1 $44 $-1 $25 #
face $-1 $45 $46 $27 $-1 $47 forward single #
face $-1 $48 $49 $28 $-1 $50 reversed single #
face $-1 $51 $52 $29 $-1 $53 forward single #
face $-1 $54 $55 $30 $-1 $56 reversed single #
face $-1 $57 $58 $31 $-1 $59 forward single #
face $-1 $60 $61 $32 $-1 $62 reversed single #
face $-1 $63 $64 $33 $-1 $65 forward single #
face $-1 $66 $67 $34 $-1 $68 reversed single #
face $-1 $69 $70 $35 $-1 $71 forward single #
face $-1 $72 $73 $27 $-1 $74 reversed single #
loop $-1 $-1 $75 $36 #
plane-surface $-1 0 0 8.5266636706265206 0 0 1 1 0 0 forward_v I I I I #
face $-1 $76 $77 $28 $-1 $78 reversed single #
loop $-1 $-1 $79 $37 #
plane-surface $-1 31.245362899965265 8.8817841970012523e-016 137.52180834463917 0 -1 0 -0.61566148304635926 0 -0.78801074757464917 forward_v I I I I #
face $-1 $80 $81 $29 $-1 $82 forward single #
loop $-1 $83 $84 $38 #
cone-surface $-1 43.323094211729249 -4.3385724675192918 4.5003757740802364 -0.61566148304635926 0 -0.78801074757464917 1.1820161213619738 0 -0.92349222456953894 1 I I 0 1 1.5 forward I I I I #
face $-1 $85 $86 $30 $-1 $87 reversed single #
loop $-1 $-1 $88 $39 #
plane-surface $-1 31.245362899965265 8.6771449350385872 137.52180834463917 0 -1 0 -0.61566148304635926 0 -0.78801074757464917 forward_v I I I I #
face $-1 $89 $90 $31 $-1 $91 forward single #
loop $-1 $92 $93 $40 #
cone-surface $-1 43.323094211729249 4.3385724675192954 4.5003757740802364 -0.61566148304635926 0 -0.78801074757464917 1.1820161213619738 0 -0.92349222456953894 1 I I 0 1 1.5 forward I I I I #
face $-1 $94 $95 $32 $-1 $96 reversed single #
loop $-1 $-1 $97 $41 #
plane-surface $-1 -106.39148378870875 -10.37695525722792 76.621607011691609 0 1 0 -0.61566148304635926 0 0.78801074757464917 forward_v I I I I #
face $-1 $98 $99 $33 $-1 $100 forward single #
loop $-1 $101 $102 $42 #
cone-surface $-1 -41.876104178246074 -5.1884776286139598 3.3470747997211272 0.61566148304635926 0 -0.78801074757464917 1.1820161213619738 0 0.92349222456953894 1 I I 0 1 1.5 forward I I I I #
face $-1 $103 $104 $34 $-1 $105 reversed single #
loop $-1 $-1 $106 $43 #
plane-surface $-1 -106.39148378870875 10.850626722092478 76.621607011691609 0 1 0 -0.61566148304635926 0 0.78801074757464917 forward_v I I I I #
face $-1 $107 $108 $35 $-1 $109 forward single #
loop $-1 $110 $111 $44 #
cone-surface $-1 -41.876104178246074 16.039104350706438 3.3470747997211272 0.61566148304635926 0 -0.78801074757464917 1.1820161213619738 0 0.92349222456953894 1 I I 0 1 1.5 forward I I I I #
face $-1 $112 $113 $27 $-1 $114 reversed single #
loop $-1 $-1 $115 $45 #
plane-surface $-1 0 0 -8.5266636706265206 0 0 1 1 0 0 forward_v I I I I #
coedge $-1 $116 $117 $118 $119 forward $46 $-1 #
face $-1 $120 $121 $28 $-1 $122 reversed single #
loop $-1 $-1 $123 $48 #
plane-surface $-1 -27.465222423824514 -4.3385724675192918 62.375687455895687 0.61566148304635926 0 0.78801074757464917 0.78801074757464917 0 -0.61566148304635926 forward_v I I I I #
coedge $-1 $124 $125 $126 $127 reversed $49 $-1 #
face $-1 $-1 $128 $29 $-1 $129 forward single #
loop $-1 $130 $131 $51 #
cone-surface $-1 41.614801288732529 -4.3385724675192918 2.3138605861132771 -0.61566148304635926 0 -0.78801074757464917 0.59100806068098688 0 -0.46174611228476947 1 I I -0.70710678118654757 0.70710678118654757 0.75 forward I I I I #
loop $-1 $-1 $132 $38 #
coedge $-1 $84 $84 $133 $134 reversed $52 $-1 #
face $-1 $135 $136 $30 $-1 $137 reversed single #
loop $-1 $-1 $138 $54 #
plane-surface $-1 -27.465222423824514 -4.3385724675192918 62.375687455895687 0.61566148304635926 0 0.78801074757464917 0.78801074757464917 0 -0.61566148304635926 forward_v I I I I #
coedge $-1 $139 $140 $141 $142 reversed $55 $-1 #
face $-1 $-1 $143 $31 $-1 $144 forward single #
loop $-1 $145 $146 $57 #
cone-surface $-1 41.614801288732529 4.3385724675192954 2.3138605861132771 -0.61566148304635926 0 -0.78801074757464917 0.59100806068098688 0 -0.46174611228476947 1 I I -0.70710678118654757 0.70710678118654757 0.75 forward I I I I #
loop $-1 $-1 $147 $40 #
coedge $-1 $93 $93 $148 $149 reversed $58 $-1 #
face $-1 $150 $151 $32 $-1 $152 reversed single #
loop $-1 $-1 $153 $60 #
plane-surface $-1 -47.680898464918975 -5.1884776286139598 1.4754861229481264 -0.61566148304635926 0 0.78801074757464917 0.78801074757464917 0 0.61566148304635926 forward_v I I I I #
coedge $-1 $154 $155 $156 $157 reversed $61 $-1 #
face $-1 $-1 $158 $33 $-1 $159 forward single #
loop $-1 $160 $161 $63 #
cone-surface $-1 -40.122111537785457 -5.1884776286139598 1.1020666419739502 0.61566148304635926 0 -0.78801074757464917 0.59100806068098688 0 0.46174611228476947 1 I I -0.70710678118654757 0.70710678118654757 0.75 forward I I I I #
loop $-1 $-1 $162 $42 #
coedge $-1 $102 $102 $163 $164 reversed $64 $-1 #
face $-1 $165 $166 $34 $-1 $167 forward single #
loop $-1 $-1 $168 $66 #
plane-surface $-1 -47.680898464918975 16.039104350706438 1.4754861229481264 -0.61566148304635926 0 0.78801074757464917 0.78801074757464917 0 0.61566148304635926 forward_v I I I I #
coedge $-1 $169 $170 $171 $172 reversed $67 $-1 #
face $-1 $-1 $173 $35 $-1 $174 forward single #
loop $-1 $175 $176 $69 #
cone-surface $-1 -40.122111537785457 16.039104350706438 1.1020666419739502 0.61566148304635926 0 -0.78801074757464917 0.59100806068098688 0 0.46174611228476947 1 I I -0.70710678118654757 0.70710678118654757 0.75 forward I I I I #
loop $-1 $-1 $177 $44 #
coedge $-1 $111 $111 $178 $179 reversed $70 $-1 #
face $-1 $180 $181 $27 $-1 $182 reversed single #
loop $-1 $-1 $183 $72 #
plane-surface $-1 0 -21.227581979320398 0 0 1 0 0 0 1 forward_v I I I I #
coedge $-1 $184 $185 $186 $187 forward $73 $-1 #
coedge $-1 $188 $75 $189 $190 forward $46 $-1 #
coedge $-1 $75 $188 $191 $192 forward $46 $-1 #
coedge $-1 $193 $194 $75 $119 reversed $195 $-1 #
edge $-1 $196 -21.227581979320398 $197 21.227581979320398 $118 $198 forward 7 unknown #
face $-1 $199 $200 $28 $-1 $201 forward single #
loop $-1 $-1 $202 $76 #
plane-surface $-1 31.245362899965265 -8.6771449350385836 137.52180834463917 0 1 0 0.61566148304635926 0 0.78801074757464917 forward_v I I I I #
coedge $-1 $203 $204 $205 $206 reversed $77 $-1 #
coedge $-1 $125 $79 $207 $208 reversed $49 $-1 #
coedge $-1 $79 $124 $203 $209 reversed $49 $-1 #
coedge $-1 $205 $210 $79 $127 forward $200 $-1 #
edge $-1 $211 -32.058217014936346 $212 -25.835702129980778 $126 $213 forward 7 unknown #
loop $-1 $-1 $133 $80 #
plane-surface $-1 -27.465222423824514 -4.3385724675192918 62.375687455895687 0.61566148304635926 0 0.78801074757464917 0.78801074757464917 0 -0.61566148304635926 forward_v I I I I #
loop $-1 $-1 $214 $51 #
coedge $-1 $131 $131 $132 $215 reversed $81 $-1 #
coedge $-1 $132 $132 $131 $215 forward $83 $-1 #
coedge $-1 $133 $133 $84 $134 forward $128 $-1 #
edge $-1 $216 0 $216 6.2831853071796004 $133 $217 forward 7 unknown #
face $-1 $218 $219 $30 $-1 $220 forward single #
loop $-1 $-1 $221 $85 #
plane-surface $-1 47.680898464918975 0 0 -1 0 0 0 0 1 forward_v I I I I #
coedge $-1 $222 $223 $224 $225 reversed $86 $-1 #
coedge $-1 $140 $88 $226 $227 reversed $55 $-1 #
coedge $-1 $88 $139 $228 $229 reversed $55 $-1 #
coedge $-1 $230 $221 $88 $142 forward $136 $-1 #
edge $-1 $231 -65.095802040213698 $232 -60.234240501693066 $141 $233 forward 7 unknown #
loop $-1 $-1 $148 $89 #
plane-surface $-1 -27.465222423824514 -4.3385724675192918 62.375687455895687 0.61566148304635926 0 0.78801074757464917 0.78801074757464917 0 -0.61566148304635926 forward_v I I I I #
loop $-1 $-1 $234 $57 #
coedge $-1 $146 $146 $147 $235 reversed $90 $-1 #
coedge $-1 $147 $147 $146 $235 forward $92 $-1 #
coedge $-1 $148 $148 $93 $149 forward $143 $-1 #
edge $-1 $236 0 $236 6.2831853071796004 $148 $237 forward 7 unknown #
face $-1 $238 $239 $32 $-1 $240 reversed single #
loop $-1 $-1 $241 $94 #
plane-surface $-1 -106.39148378870875 8.8817841970012523e-016 76.621607011691609 0 -1 0 0.61566148304635926 0 -0.78801074757464917 forward_v I I I I #
coedge $-1 $242 $243 $244 $245 reversed $95 $-1 #
coedge $-1 $155 $97 $246 $247 reversed $61 $-1 #
coedge $-1 $97 $154 $242 $248 reversed $61 $-1 #
coedge $-1 $244 $249 $97 $157 forward $250 $-1 #
edge $-1 $251 5.5148434294354018 $252 14.539938946429494 $156 $253 forward 7 unknown #
loop $-1 $-1 $163 $98 #
plane-surface $-1 -47.680898464918975 -5.1884776286139598 1.4754861229481264 -0.61566148304635926 0 0.78801074757464917 0.78801074757464917 0 0.61566148304635926 forward_v I I I I #
loop $-1 $-1 $254 $63 #
coedge $-1 $161 $161 $162 $255 reversed $99 $-1 #
coedge $-1 $162 $162 $161 $255 forward $101 $-1 #
coedge $-1 $163 $163 $102 $164 forward $158 $-1 #
edge $-1 $256 0 $256 6.2831853071796004 $163 $257 forward 7 unknown #
face $-1 $258 $259 $34 $-1 $260 reversed single #
loop $-1 $-1 $171 $103 #
plane-surface $-1 0 0 8.5266636706265206 0 0 1 1 0 0 forward_v I I I I #
coedge $-1 $261 $262 $263 $264 reversed $104 $-1 #
coedge $-1 $170 $106 $265 $266 reversed $67 $-1 #
coedge $-1 $106 $169 $261 $267 reversed $67 $-1 #
coedge $-1 $263 $268 $106 $172 forward $166 $-1 #
edge $-1 $269 5.5148434294354018 $270 14.539938946429494 $171 $271 forward 7 unknown #
loop $-1 $-1 $178 $107 #
plane-surface $-1 -47.680898464918975 16.039104350706438 1.4754861229481264 -0.61566148304635926 0 0.78801074757464917 0.78801074757464917 0 0.61566148304635926 forward_v I I I I #
loop $-1 $-1 $272 $69 #
coedge $-1 $176 $176 $177 $273 reversed $108 $-1 #
coedge $-1 $177 $177 $176 $273 forward $110 $-1 #
coedge $-1 $178 $178 $111 $179 forward $173 $-1 #
edge $-1 $274 0 $274 6.2831853071796004 $178 $275 forward 7 unknown #
face $-1 $276 $277 $27 $-1 $278 reversed single #
loop $-1 $-1 $279 $112 #
plane-surface $-1 -47.680898464918975 0 0 1 0 0 0 0 -1 forward_v I I I I #
coedge $-1 $280 $191 $281 $282 forward $113 $-1 #
coedge $-1 $283 $115 $280 $284 forward $73 $-1 #
coedge $-1 $115 $283 $285 $286 forward $73 $-1 #
coedge $-1 $194 $193 $115 $187 reversed $195 $-1 #
edge $-1 $287 -21.227581979320398 $288 21.227581979320398 $186 $289 forward 7 unknown #
coedge $-1 $117 $116 $290 $291 forward $46 $-1 #
coedge $-1 $292 $293 $116 $190 reversed $277 $-1 #
edge $-1 $197 -47.680898464918975 $294 47.680898464918975 $189 $295 forward 7 unknown #
coedge $-1 $183 $296 $117 $192 reversed $113 $-1 #
edge $-1 $297 -47.680898464918975 $196 47.680898464918975 $191 $298 forward 7 unknown #
coedge $-1 $186 $118 $296 $299 forward $195 $-1 #
coedge $-1 $118 $186 $292 $300 reversed $195 $-1 #
loop $-1 $-1 $193 $276 #
vertex $-1 $119 $301 #
vertex $-1 $119 $302 #
straight-curve $-1 47.680898464918975 0 8.5266636706265206 0 1 0 I I #
face $-1 $-1 $303 $28 $-1 $304 reversed single #
loop $-1 $-1 $126 $120 #
plane-surface $-1 0 0 8.5266636706265206 0 0 1 1 0 0 forward_v I I I I #
coedge $-1 $305 $306 $307 $308 reversed $121 $-1 #
coedge $-1 $309 $123 $125 $209 forward $77 $-1 #
coedge $-1 $123 $309 $305 $310 forward $77 $-1 #
coedge $-1 $307 $126 $123 $206 forward $200 $-1 #
edge $-1 $212 -2.1692862337596468 $311 6.5078587012789377 $205 $312 forward 7 unknown #
coedge $-1 $313 $314 $124 $208 forward $303 $-1 #
edge $-1 $315 -65.095802040213698 $211 -60.234240501693066 $207 $316 forward 7 unknown #
edge $-1 $212 87.465312136822988 $315 95.361796929837965 $125 $317 forward 7 unknown #
coedge $-1 $126 $307 $313 $318 forward $200 $-1 #
vertex $-1 $208 $319 #
vertex $-1 $127 $320 #
straight-curve $-1 15.622681449982633 8.8817841970012523e-016 8.5266636706265189 -1 0 0 I I #
coedge $-1 $214 $214 $-1 $321 reversed $130 $-1 #
edge $-1 $322 0 $322 6.2831853071796004 $131 $323 forward 7 unknown #
vertex $-1 $134 $324 #
ellipse-curve $-1 44.569641022441189 -4.3385724675192918 6.0958829013662017 0.61566148304635926 0 0.78801074757464917 1.1820161213619738 0 -0.92349222456953894 1 I I #
face $-1 $-1 $325 $30 $-1 $326 forward single #
loop $-1 $-1 $327 $135 #
plane-surface $-1 31.245362899965265 8.8817841970012523e-016 137.52180834463917 0 -1 0 -0.61566148304635926 0 -0.78801074757464917 forward_v I I I I #
coedge $-1 $141 $328 $223 $329 forward $136 $-1 #
coedge $-1 $226 $138 $330 $331 reversed $86 $-1 #
coedge $-1 $138 $226 $221 $329 reversed $86 $-1 #
coedge $-1 $332 $327 $138 $225 forward $219 $-1 #
edge $-1 $333 87.465312136822988 $334 95.361796929837965 $224 $335 forward 7 unknown #
coedge $-1 $223 $222 $139 $227 forward $86 $-1 #
edge $-1 $336 87.465312136822988 $231 95.361796929837965 $139 $337 forward 7 unknown #
coedge $-1 $330 $338 $140 $229 forward $325 $-1 #
edge $-1 $232 -32.058217014936346 $336 -25.835702129980778 $228 $339 forward 7 unknown #
coedge $-1 $328 $141 $338 $340 reversed $136 $-1 #
vertex $-1 $142 $341 #
vertex $-1 $142 $342 #
straight-curve $-1 47.680898464918975 8.6771449350385872 68.760904172319584 0 0 1 I I #
coedge $-1 $234 $234 $-1 $343 reversed $145 $-1 #
edge $-1 $344 0 $344 6.2831853071796004 $146 $345 forward 7 unknown #
vertex $-1 $149 $346 #
ellipse-curve $-1 44.569641022441189 4.3385724675192954 6.0958829013662017 0.61566148304635926 0 0.78801074757464917 1.1820161213619738 0 -0.92349222456953894 1 I I #
face $-1 $-1 $250 $32 $-1 $347 forward single #
loop $-1 $-1 $348 $150 #
plane-surface $-1 -47.680898464918975 0 0 1 0 0 0 0 -1 forward_v I I I I #
coedge $-1 $349 $350 $351 $352 reversed $151 $-1 #
coedge $-1 $353 $153 $155 $248 forward $95 $-1 #
coedge $-1 $153 $353 $349 $354 forward $95 $-1 #
coedge $-1 $351 $156 $153 $245 forward $250 $-1 #
edge $-1 $252 -7.7827164429209397 $355 2.5942388143069808 $244 $356 forward 7 unknown #
coedge $-1 $357 $358 $154 $247 forward $239 $-1 #
edge $-1 $359 -36.835317382897678 $251 -29.784139835219285 $246 $360 forward 7 unknown #
edge $-1 $252 -11.453010691506002 $359 0 $155 $361 forward 7 unknown #
coedge $-1 $156 $351 $357 $362 forward $250 $-1 #
loop $-1 $-1 $351 $238 #
vertex $-1 $247 $363 #
vertex $-1 $157 $364 #
straight-curve $-1 -53.195741894354377 -10.37695525722792 8.5266636706265189 1 0 0 I I #
coedge $-1 $254 $254 $-1 $365 reversed $160 $-1 #
edge $-1 $366 0 $366 6.2831853071796004 $161 $367 forward 7 unknown #
vertex $-1 $164 $368 #
ellipse-curve $-1 -43.168350706421926 -5.1884776286139598 5.0010748967873253 -0.61566148304635926 0 0.78801074757464917 1.1820161213619738 0 0.92349222456953894 1 I I #
face $-1 $-1 $369 $34 $-1 $370 reversed single #
loop $-1 $-1 $371 $165 #
plane-surface $-1 0 21.227581979320398 0 0 -1 0 0 0 -1 forward_v I I I I #
coedge $-1 $372 $168 $170 $267 forward $104 $-1 #
coedge $-1 $168 $372 $371 $373 reversed $104 $-1 #
coedge $-1 $374 $171 $168 $264 forward $166 $-1 #
edge $-1 $270 2.8310745467392593 $375 13.208029803967179 $263 $376 forward 7 unknown #
coedge $-1 $377 $378 $169 $266 forward $369 $-1 #
edge $-1 $379 -36.835317382897678 $269 -29.784139835219285 $265 $380 forward 7 unknown #
edge $-1 $270 -11.453010691506002 $379 0 $170 $381 forward 7 unknown #
coedge $-1 $171 $374 $377 $382 forward $166 $-1 #
vertex $-1 $266 $383 #
vertex $-1 $172 $384 #
straight-curve $-1 -53.195741894354377 10.850626722092478 8.5266636706265189 1 0 0 I I #
coedge $-1 $272 $272 $-1 $385 reversed $175 $-1 #
edge $-1 $386 0 $386 6.2831853071796004 $176 $387 forward 7 unknown #
vertex $-1 $179 $388 #
ellipse-curve $-1 -43.168350706421926 16.039104350706438 5.0010748967873253 -0.61566148304635926 0 0.78801074757464917 1.1820161213619738 0 0.92349222456953894 1 I I #
face $-1 $-1 $195 $27 $-1 $389 reversed single #
loop $-1 $-1 $292 $180 #
plane-surface $-1 0 21.227581979320398 0 0 -1 0 0 0 -1 forward_v I I I I #
coedge $-1 $390 $290 $293 $391 forward $181 $-1 #
coedge $-1 $296 $183 $184 $284 reversed $113 $-1 #
coedge $-1 $290 $390 $183 $282 reversed $181 $-1 #
edge $-1 $297 -8.5266636706265206 $392 8.5266636706265206 $281 $393 forward 7 unknown #
coedge $-1 $185 $184 $390 $394 forward $73 $-1 #
edge $-1 $288 -47.680898464918975 $392 47.680898464918975 $280 $395 forward 7 unknown #
coedge $-1 $293 $292 $185 $286 reversed $277 $-1 #
edge $-1 $396 -47.680898464918975 $287 47.680898464918975 $285 $397 forward 7 unknown #
vertex $-1 $187 $398 #
vertex $-1 $299 $399 #
straight-curve $-1 47.680898464918975 0 -8.5266636706265206 0 -1 0 I I #
coedge $-1 $279 $281 $188 $291 reversed $181 $-1 #
edge $-1 $294 -21.227581979320398 $297 21.227581979320398 $290 $400 forward 7 unknown #
coedge $-1 $285 $189 $194 $300 forward $277 $-1 #
coedge $-1 $189 $285 $279 $391 reversed $277 $-1 #
vertex $-1 $190 $401 #
straight-curve $-1 0 21.227581979320398 8.5266636706265206 -1 0 0 I I #
coedge $-1 $191 $280 $193 $299 reversed $113 $-1 #
vertex $-1 $291 $402 #
straight-curve $-1 0 -21.227581979320398 8.5266636706265206 1 0 0 I I #
edge $-1 $196 -8.5266636706265206 $288 8.5266636706265206 $193 $403 forward 7 unknown #
edge $-1 $197 -8.5266636706265206 $287 8.5266636706265206 $194 $404 forward 7 unknown #
point $-1 47.680898464918975 -21.227581979320398 8.5266636706265206 #
point $-1 47.680898464918975 21.227581979320398 8.5266636706265206 #
loop $-1 $-1 $207 $199 #
plane-surface $-1 47.680898464918975 0 0 -1 0 0 0 0 1 forward_v I I I I #
coedge $-1 $306 $202 $204 $310 reversed $121 $-1 #
coedge $-1 $202 $305 $405 $406 reversed $121 $-1 #
coedge $-1 $210 $205 $202 $308 forward $200 $-1 #
edge $-1 $311 25.835702129980778 $407 32.058217014936346 $307 $408 forward 7 unknown #
coedge $-1 $204 $203 $314 $409 reversed $77 $-1 #
edge $-1 $410 -95.361796929837965 $311 -87.465312136822988 $305 $411 forward 7 unknown #
vertex $-1 $206 $412 #
straight-curve $-1 41.45838357996341 -2.1692862337596459 8.5266636706265118 0 -1 0 I I #
coedge $-1 $405 $207 $210 $318 reversed $303 $-1 #
coedge $-1 $207 $405 $309 $409 forward $303 $-1 #
vertex $-1 $208 $413 #
straight-curve $-1 47.680898464918975 8.8817841970012523e-016 68.760904172319584 0 0 1 I I #
straight-curve $-1 -27.465222423824514 8.8817841970012523e-016 62.375687455895687 0.78801074757464917 0 -0.61566148304635926 I I #
edge $-1 $407 -8.6771449350385836 $211 8.8817841970012523e-016 $313 $414 forward 7 unknown #
point $-1 47.680898464918975 8.8817841970012523e-016 8.5266636706265206 #
point $-1 41.45838357996341 8.8817841970012523e-016 8.5266636706265189 #
edge $-1 $415 1 $415 0 $214 $-1 forward 7 unknown #
vertex $-1 $215 $416 #
ellipse-curve $-1 42.076547401017301 -4.3385724675192918 2.9048686467942639 0.61566148304635926 0 0.78801074757464917 1.1820161213619738 0 -0.92349222456953894 1 I I #
point $-1 45.751657143803172 -4.3385724675192918 5.1723906767966685 #
loop $-1 $-1 $330 $218 #
plane-surface $-1 0 0 8.5266636706265206 0 0 1 1 0 0 forward_v I I I I #
coedge $-1 $224 $332 $417 $418 reversed $219 $-1 #
coedge $-1 $221 $230 $332 $419 forward $136 $-1 #
edge $-1 $334 2.1692862337596468 $231 10.846431168798233 $221 $420 forward 7 unknown #
coedge $-1 $417 $228 $222 $331 forward $325 $-1 #
edge $-1 $336 -10.846431168798233 $333 -2.1692862337596468 $330 $421 forward 7 unknown #
coedge $-1 $327 $224 $328 $419 reversed $219 $-1 #
vertex $-1 $331 $422 #
vertex $-1 $329 $423 #
straight-curve $-1 -27.465222423824514 8.8817841970012523e-016 62.375687455895687 0.78801074757464917 0 -0.61566148304635926 I I #
vertex $-1 $229 $424 #
straight-curve $-1 -27.465222423824514 8.6771449350385872 62.375687455895687 0.78801074757464917 0 -0.61566148304635926 I I #
coedge $-1 $228 $417 $230 $340 forward $325 $-1 #
straight-curve $-1 15.622681449982633 8.6771449350385872 8.5266636706265189 -1 0 0 I I #
edge $-1 $425 8.8817841970012523e-016 $232 8.6771449350385872 $230 $426 forward 7 unknown #
point $-1 47.680898464918982 8.6771449350385872 3.6651021321058934 #
point $-1 47.680898464918975 8.6771449350385872 8.5266636706265206 #
edge $-1 $427 1 $427 0 $234 $-1 forward 7 unknown #
vertex $-1 $235 $428 #
ellipse-curve $-1 42.076547401017301 4.3385724675192954 2.9048686467942639 0.61566148304635926 0 0.78801074757464917 1.1820161213619738 0 -0.92349222456953894 1 I I #
point $-1 45.751657143803172 4.3385724675192954 5.1723906767966685 #
plane-surface $-1 0 0 8.5266636706265206 0 0 1 1 0 0 forward_v I I I I #
coedge $-1 $358 $357 $350 $429 forward $239 $-1 #
coedge $-1 $350 $241 $243 $354 reversed $151 $-1 #
coedge $-1 $241 $349 $348 $429 reversed $151 $-1 #
coedge $-1 $249 $244 $241 $352 forward $250 $-1 #
edge $-1 $355 -14.539938946429494 $430 -5.5148434294354018 $351 $431 forward 7 unknown #
coedge $-1 $243 $242 $358 $432 reversed $95 $-1 #
edge $-1 $433 0 $355 11.453010691506002 $349 $434 forward 7 unknown #
vertex $-1 $245 $435 #
straight-curve $-1 -38.655802947924876 -2.5942388143069799 8.5266636706265206 0 1 0 I I #
coedge $-1 $348 $246 $249 $362 reversed $239 $-1 #
coedge $-1 $246 $348 $353 $432 forward $239 $-1 #
vertex $-1 $247 $436 #
straight-curve $-1 -47.680898464918975 -10.37695525722792 38.310803505845804 0 0 1 I I #
straight-curve $-1 -47.680898464918975 -10.37695525722792 1.4754861229481264 -0.78801074757464917 0 -0.61566148304635926 I I #
edge $-1 $430 -8.8817841970012523e-016 $251 10.37695525722792 $357 $437 forward 7 unknown #
point $-1 -47.680898464918975 -10.37695525722792 8.5266636706265206 #
point $-1 -38.655802947924883 -10.37695525722792 8.5266636706265224 #
edge $-1 $438 1 $438 0 $254 $-1 forward 7 unknown #
vertex $-1 $255 $439 #
ellipse-curve $-1 -40.583857650070229 -5.1884776286139598 1.6930747026549371 -0.61566148304635926 0 0.78801074757464917 1.1820161213619738 0 0.92349222456953894 1 I I #
point $-1 -41.986334585059943 -5.1884776286139598 5.9245671213568567 #
loop $-1 $-1 $265 $258 #
plane-surface $-1 -47.680898464918975 0 0 1 0 0 0 0 -1 forward_v I I I I #
coedge $-1 $440 $441 $262 $373 forward $259 $-1 #
coedge $-1 $262 $261 $378 $442 reversed $104 $-1 #
edge $-1 $375 6.8793195433455852 $443 18.332330234851586 $371 $444 forward 7 unknown #
coedge $-1 $268 $263 $441 $445 forward $166 $-1 #
vertex $-1 $445 $446 #
straight-curve $-1 -38.655802947924876 8.0195521753532191 8.5266636706265206 0 1 0 I I #
coedge $-1 $447 $265 $268 $382 reversed $369 $-1 #
coedge $-1 $265 $447 $372 $442 forward $369 $-1 #
vertex $-1 $266 $448 #
straight-curve $-1 -47.680898464918975 10.850626722092478 38.310803505845804 0 0 1 I I #
straight-curve $-1 -47.680898464918975 10.850626722092478 1.4754861229481264 -0.78801074757464917 0 -0.61566148304635926 I I #
edge $-1 $449 -21.227581979320398 $269 -10.850626722092478 $377 $450 forward 7 unknown #
point $-1 -47.680898464918975 10.850626722092478 8.5266636706265206 #
point $-1 -38.655802947924883 10.850626722092478 8.5266636706265224 #
edge $-1 $451 1 $451 0 $272 $-1 forward 7 unknown #
vertex $-1 $273 $452 #
ellipse-curve $-1 -40.583857650070229 16.039104350706438 1.6930747026549371 -0.61566148304635926 0 0.78801074757464917 1.1820161213619738 0 0.92349222456953894 1 I I #
point $-1 -41.986334585059943 16.039104350706438 5.9245671213568567 #
plane-surface $-1 47.680898464918975 0 0 -1 0 0 0 0 1 forward_v I I I I #
coedge $-1 $281 $279 $283 $394 reversed $181 $-1 #
edge $-1 $294 -8.5266636706265206 $396 8.5266636706265206 $293 $453 forward 7 unknown #
vertex $-1 $394 $454 #
straight-curve $-1 -47.680898464918975 -21.227581979320398 0 0 0 -1 I I #
edge $-1 $392 -21.227581979320398 $396 21.227581979320398 $390 $455 forward 7 unknown #
straight-curve $-1 0 -21.227581979320398 -8.5266636706265206 -1 0 0 I I #
vertex $-1 $286 $456 #
straight-curve $-1 0 21.227581979320398 -8.5266636706265206 1 0 0 I I #
point $-1 47.680898464918975 21.227581979320398 -8.5266636706265206 #
point $-1 47.680898464918975 -21.227581979320398 -8.5266636706265206 #
straight-curve $-1 -47.680898464918975 0 8.5266636706265206 0 -1 0 I I #
point $-1 -47.680898464918975 21.227581979320398 8.5266636706265206 #
point $-1 -47.680898464918975 -21.227581979320398 8.5266636706265206 #
straight-curve $-1 47.680898464918975 -21.227581979320398 0 0 0 -1 I I #
straight-curve $-1 47.680898464918975 21.227581979320398 0 0 0 -1 I I #
coedge $-1 $314 $313 $306 $406 forward $303 $-1 #
edge $-1 $407 60.234240501693066 $410 65.095802040213698 $405 $457 forward 7 unknown #
vertex $-1 $318 $458 #
straight-curve $-1 15.622681449982633 -8.6771449350385836 8.5266636706265189 1 0 0 I I #
edge $-1 $410 -6.5078587012789377 $315 2.1692862337596468 $314 $459 forward 7 unknown #
vertex $-1 $409 $460 #
straight-curve $-1 -27.465222423824514 -8.6771449350385836 62.375687455895687 -0.78801074757464917 0 0.61566148304635926 I I #
point $-1 41.45838357996341 -8.6771449350385836 8.5266636706265189 #
point $-1 47.680898464918982 8.8817841970012523e-016 3.6651021321058934 #
straight-curve $-1 47.680898464918975 0 8.5266636706265206 0 1 0 I I #
vertex $-1 $321 $461 #
point $-1 43.258563522379269 -4.3385724675192918 1.981376422224725 #
coedge $-1 $338 $330 $327 $418 forward $325 $-1 #
edge $-1 $333 25.835702129980778 $425 32.058217014936346 $417 $462 forward 7 unknown #
edge $-1 $425 60.234240501693066 $334 65.095802040213698 $328 $463 forward 7 unknown #
straight-curve $-1 47.680898464918975 -2.1692862337596459 3.6651021321059005 0 1 0 I I #
straight-curve $-1 41.45838357996341 -2.1692862337596459 8.5266636706265118 0 -1 0 I I #
point $-1 41.45838357996341 8.8817841970012523e-016 8.5266636706265189 #
point $-1 47.680898464918982 8.8817841970012523e-016 3.6651021321058934 #
point $-1 41.45838357996341 8.6771449350385872 8.5266636706265189 #
vertex $-1 $340 $464 #
straight-curve $-1 47.680898464918975 0 8.5266636706265206 0 1 0 I I #
vertex $-1 $343 $465 #
point $-1 43.258563522379269 4.3385724675192954 1.981376422224725 #
edge $-1 $430 29.784139835219285 $433 36.835317382897678 $348 $466 forward 7 unknown #
vertex $-1 $362 $467 #
straight-curve $-1 -53.195741894354377 8.8817841970012523e-016 8.5266636706265189 -1 0 0 I I #
edge $-1 $433 -2.5942388143069808 $359 7.7827164429209397 $358 $468 forward 7 unknown #
vertex $-1 $432 $469 #
straight-curve $-1 -47.680898464918975 8.8817841970012523e-016 1.4754861229481264 0.78801074757464917 0 0.61566148304635926 I I #
point $-1 -38.655802947924883 8.8817841970012523e-016 8.5266636706265224 #
point $-1 -47.680898464918975 -10.37695525722792 1.4754861229481264 #
straight-curve $-1 -47.680898464918975 0 8.5266636706265206 0 -1 0 I I #
vertex $-1 $365 $470 #
point $-1 -39.401841528708253 -5.1884776286139598 2.616566927224476 #
coedge $-1 $441 $371 $447 $471 reversed $259 $-1 #
coedge $-1 $371 $440 $374 $445 reversed $259 $-1 #
edge $-1 $443 -13.208029803967179 $379 -2.8310745467392593 $378 $472 forward 7 unknown #
vertex $-1 $373 $473 #
straight-curve $-1 -33.234825211768232 21.227581979320398 12.761995743032466 -0.78801074757464917 0 -0.61566148304635926 I I #
edge $-1 $375 38.655802947924883 $449 47.680898464918975 $441 $474 forward 7 unknown #
point $-1 -38.655802947924883 21.227581979320398 8.5266636706265224 #
coedge $-1 $378 $377 $440 $471 forward $369 $-1 #
point $-1 -47.680898464918975 10.850626722092478 1.4754861229481264 #
vertex $-1 $445 $475 #
straight-curve $-1 -47.680898464918975 0 8.5266636706265206 0 -1 0 I I #
vertex $-1 $385 $476 #
point $-1 -39.401841528708253 16.039104350706438 2.616566927224476 #
straight-curve $-1 -47.680898464918975 21.227581979320398 0 0 0 -1 I I #
point $-1 -47.680898464918975 -21.227581979320398 -8.5266636706265206 #
straight-curve $-1 -47.680898464918975 0 -8.5266636706265206 0 1 0 I I #
point $-1 -47.680898464918975 21.227581979320398 -8.5266636706265206 #
straight-curve $-1 47.680898464918975 -8.6771449350385836 68.760904172319584 0 0 -1 I I #
point $-1 47.680898464918975 -8.6771449350385836 8.5266636706265206 #
straight-curve $-1 47.680898464918975 -2.1692862337596459 3.6651021321059005 0 1 0 I I #
point $-1 47.680898464918982 -8.6771449350385836 3.6651021321058934 #
point $-1 41.153055176447758 -4.3385724675192918 1.7228525254322902 #
straight-curve $-1 15.622681449982633 8.8817841970012523e-016 8.5266636706265189 1 0 0 I I #
straight-curve $-1 47.680898464918975 8.8817841970012523e-016 68.760904172319584 0 0 -1 I I #
point $-1 47.680898464918975 8.8817841970012523e-016 8.5266636706265206 #
point $-1 41.153055176447758 4.3385724675192954 1.7228525254322902 #
straight-curve $-1 -47.680898464918975 8.8817841970012523e-016 38.310803505845804 0 0 -1 I I #
point $-1 -47.680898464918975 8.8817841970012523e-016 8.5266636706265206 #
straight-curve $-1 -47.680898464918975 -2.5942388143069799 1.4754861229481242 0 -1 0 I I #
point $-1 -47.680898464918975 8.8817841970012523e-016 1.4754861229481264 #
point $-1 -39.660365425500686 -5.1884776286139598 0.51105858129296333 #
edge $-1 $449 -8.5266636706265206 $443 -1.4754861229481264 $440 $477 forward 7 unknown #
straight-curve $-1 -47.680898464918975 8.0195521753532191 1.4754861229481242 0 -1 0 I I #
point $-1 -47.680898464918975 21.227581979320398 1.4754861229481264 #
straight-curve $-1 0 21.227581979320398 8.5266636706265206 -1 0 0 I I #
point $-1 -47.680898464918975 21.227581979320398 8.5266636706265206 #
point $-1 -39.660365425500686 16.039104350706438 0.51105858129296333 #
straight-curve $-1 -47.680898464918975 21.227581979320398 0 0 0 -1 I I #
End-of-ACIS-data 