500 0 7 0           
7 Unknown 11 ACIS 5.0 NT 24 Fri Mar 26 18:34:52 1999 
-1 9.9999999999999995e-007 1e-010 
body $-1 $7 $-1 $8 #
body $-1 $9 $-1 $10 #
body $-1 $11 $-1 $12 #
body $-1 $13 $-1 $14 #
body $-1 $15 $-1 $16 #
body $-1 $17 $-1 $18 #
body $-1 $19 $-1 $20 #
lump $-1 $-1 $21 $0 #
transform $-1 1 0 0 0 1 0 0 0 1 59.287697988830224 29.22461746195831 11.836028045057835 1 rotate no_reflect no_shear #
lump $-1 $-1 $22 $1 #
transform $-1 1 0 0 0 1 0 0 0 1 59.287697988830224 29.22461746195831 11.836028045057835 1 rotate no_reflect no_shear #
lump $-1 $-1 $23 $2 #
transform $-1 1 0 0 0 1 0 0 0 1 59.287697988830224 29.22461746195831 11.836028045057835 1 rotate no_reflect no_shear #
lump $-1 $-1 $24 $3 #
transform $-1 1 0 0 0 1 0 0 0 1 59.287697988830224 29.22461746195831 11.836028045057835 1 rotate no_reflect no_shear #
lump $-1 $-1 $25 $4 #
transform $-1 1 0 0 0 1 0 0 0 1 59.287697988830224 29.22461746195831 11.836028045057835 1 rotate no_reflect no_shear #
lump $-1 $-1 $26 $5 #
transform $-1 1 0 0 0 1 0 0 0 1 59.287697988830224 29.22461746195831 11.836028045057835 1 rotate no_reflect no_shear #
lump $-1 $-1 $27 $6 #
transform $-1 1 0 0 0 1 0 0 0 1 59.287697988830224 29.22461746195831 11.836028045057835 1 rotate no_reflect no_shear #
shell $-1 $-1 $-1 $28 $-1 $7 #
shell $-1 $-1 $-1 $29 $-1 $9 #
shell $-1 $-1 $-1 $30 $-1 $11 #
shell $-1 $-1 $-1 $31 $-1 $13 #
shell $-1 $-1 $-1 $32 $-1 $15 #
shell $-1 $-1 $-1 $33 $-1 $17 #
shell $-1 $-1 $-1 $34 $-1 $19 #
face $-1 $35 $36 $21 $-1 $37 forward single #
face $-1 $38 $39 $22 $-1 $40 reversed single #
face $-1 $41 $42 $23 $-1 $43 reversed single #
face $-1 $44 $45 $24 $-1 $46 reversed single #
face $-1 $47 $48 $25 $-1 $49 forward single #
face $-1 $50 $51 $26 $-1 $52 forward single #
face $-1 $53 $54 $27 $-1 $55 forward single #
face $-1 $56 $57 $21 $-1 $58 reversed single #
loop $-1 $-1 $59 $28 #
plane-surface $-1 0 0 11.836028045057835 0 0 1 1 0 0 forward_v I I I I #
face $-1 $60 $61 $22 $-1 $62 reversed single #
loop $-1 $-1 $63 $29 #
plane-surface $-1 0 -24.095001314469027 7.8790300646998332 0 0 1 1 0 0 forward_v I I I I #
face $-1 $64 $65 $23 $-1 $66 reversed single #
loop $-1 $-1 $67 $30 #
plane-surface $-1 0 24.095001314469023 7.8790300646998332 0 0 1 1 0 0 forward_v I I I I #
face $-1 $68 $69 $24 $-1 $70 reversed single #
loop $-1 $-1 $71 $31 #
plane-surface $-1 38.851315700929682 15.394490144452377 171.29005994664971 0 -1 0 -0.61566148304635926 0 -0.78801074757464917 forward_v I I I I #
face $-1 $72 $73 $25 $-1 $74 forward single #
loop $-1 $75 $76 $32 #
cone-surface $-1 54.204884955790206 9.3024371505585677 7.5600391528687085 -0.61566148304635926 0 -0.78801074757464917 0.39400537378732459 0 -0.30783074152317963 1 I I 0 1 0.5 forward I I I I #
face $-1 $77 $78 $26 $-1 $79 forward single #
loop $-1 $80 $81 $33 #
cone-surface $-1 54.204884955790206 11.586957023268745 7.5600391528687085 -0.61566148304635926 0 -0.78801074757464917 0.39400537378732459 0 -0.30783074152317963 1 I I 0 1 0.5 forward I I I I #
face $-1 $82 $83 $27 $-1 $84 forward single #
loop $-1 $85 $86 $34 #
cone-surface $-1 54.204884955790206 13.871476895978923 7.5600391528687085 -0.61566148304635926 0 -0.78801074757464917 0.39400537378732459 0 -0.30783074152317963 1 I I 0 1 0.5 forward I I I I #
face $-1 $87 $88 $21 $-1 $89 reversed single #
loop $-1 $-1 $90 $35 #
plane-surface $-1 0 0 -11.836028045057835 0 0 1 1 0 0 forward_v I I I I #
coedge $-1 $91 $92 $93 $94 forward $36 $-1 #
face $-1 $95 $96 $22 $-1 $97 reversed single #
loop $-1 $-1 $98 $38 #
plane-surface $-1 0 -18.965385166979743 9.8575290548788335 0 -1 0 0 0 -1 forward_v I I I I #
coedge $-1 $99 $100 $101 $102 reversed $39 $-1 #
face $-1 $103 $104 $23 $-1 $105 forward single #
loop $-1 $-1 $106 $41 #
plane-surface $-1 0 18.96538516697974 9.8575290548788335 0 1 0 0 0 1 forward_v I I I I #
coedge $-1 $107 $108 $109 $110 reversed $42 $-1 #
face $-1 $111 $112 $24 $-1 $113 reversed single #
loop $-1 $-1 $114 $44 #
plane-surface $-1 -34.150988439486049 11.586957023268745 77.851373518333446 0.61566148304635926 0 0.78801074757464917 0.78801074757464917 0 -0.61566148304635926 forward_v I I I I #
coedge $-1 $115 $116 $117 $118 reversed $45 $-1 #
face $-1 $-1 $119 $25 $-1 $120 forward single #
loop $-1 $121 $122 $47 #
cone-surface $-1 53.439606101928753 9.3024371505585677 6.5805269073559831 -0.61566148304635926 0 -0.78801074757464917 0.19700268689366229 0 -0.15391537076158981 1 I I -0.70710678118654746 0.70710678118654746 0.25 forward I I I I #
loop $-1 $-1 $123 $32 #
coedge $-1 $76 $76 $124 $125 reversed $48 $-1 #
face $-1 $-1 $126 $26 $-1 $127 forward single #
loop $-1 $128 $129 $50 #
cone-surface $-1 53.439606101928753 11.586957023268745 6.5805269073559831 -0.61566148304635926 0 -0.78801074757464917 0.19700268689366229 0 -0.15391537076158981 1 I I -0.70710678118654746 0.70710678118654746 0.25 forward I I I I #
loop $-1 $-1 $130 $33 #
coedge $-1 $81 $81 $131 $132 reversed $51 $-1 #
face $-1 $-1 $133 $27 $-1 $134 forward single #
loop $-1 $135 $136 $53 #
cone-surface $-1 53.439606101928753 13.871476895978923 6.5805269073559831 -0.61566148304635926 0 -0.78801074757464917 0.19700268689366229 0 -0.15391537076158981 1 I I -0.70710678118654746 0.70710678118654746 0.25 forward I I I I #
loop $-1 $-1 $137 $34 #
coedge $-1 $86 $86 $138 $139 reversed $54 $-1 #
face $-1 $140 $141 $21 $-1 $142 reversed single #
loop $-1 $-1 $143 $56 #
plane-surface $-1 0 -29.22461746195831 0 0 1 0 0 0 1 forward_v I I I I #
coedge $-1 $144 $145 $146 $147 forward $57 $-1 #
coedge $-1 $148 $59 $149 $150 forward $36 $-1 #
coedge $-1 $59 $148 $151 $152 forward $36 $-1 #
coedge $-1 $153 $154 $59 $94 reversed $155 $-1 #
edge $-1 $156 -29.22461746195831 $157 29.22461746195831 $93 $158 forward 7 unknown #
face $-1 $159 $160 $22 $-1 $161 reversed single #
loop $-1 $-1 $162 $60 #
plane-surface $-1 -59.287697988830224 0 0 1 0 0 0 0 -1 forward_v I I I I #
coedge $-1 $163 $164 $165 $166 reversed $61 $-1 #
coedge $-1 $167 $63 $168 $169 reversed $39 $-1 #
coedge $-1 $63 $167 $163 $170 forward $39 $-1 #
coedge $-1 $165 $171 $63 $102 forward $172 $-1 #
edge $-1 $173 -17.177116804723795 $174 -6.9178845097452299 $101 $175 forward 7 unknown #
face $-1 $176 $177 $23 $-1 $178 reversed single #
loop $-1 $-1 $179 $64 #
plane-surface $-1 0 0 11.836028045057835 0 0 1 1 0 0 forward_v I I I I #
coedge $-1 $180 $181 $182 $183 reversed $65 $-1 #
coedge $-1 $184 $67 $180 $185 forward $42 $-1 #
coedge $-1 $67 $184 $186 $187 reversed $42 $-1 #
coedge $-1 $188 $189 $67 $110 forward $177 $-1 #
edge $-1 $190 6.9178845097452282 $191 17.177116804723795 $109 $192 forward 7 unknown #
face $-1 $193 $194 $24 $-1 $195 forward single #
loop $-1 $-1 $196 $68 #
plane-surface $-1 38.851315700929682 7.7794239020851137 171.29005994664971 0 1 0 0.61566148304635926 0 0.78801074757464917 forward_v I I I I #
coedge $-1 $197 $198 $199 $200 reversed $69 $-1 #
coedge $-1 $116 $71 $201 $202 reversed $45 $-1 #
coedge $-1 $71 $115 $197 $203 reversed $45 $-1 #
coedge $-1 $199 $204 $71 $118 forward $194 $-1 #
edge $-1 $205 -39.862040138365387 $206 -30.919141038485062 $117 $207 forward 7 unknown #
loop $-1 $-1 $124 $72 #
plane-surface $-1 -34.150988439486049 11.586957023268745 77.851373518333446 0.61566148304635926 0 0.78801074757464917 0.78801074757464917 0 -0.61566148304635926 forward_v I I I I #
loop $-1 $-1 $208 $47 #
coedge $-1 $122 $122 $123 $209 reversed $73 $-1 #
coedge $-1 $123 $123 $122 $209 forward $75 $-1 #
coedge $-1 $124 $124 $76 $125 forward $119 $-1 #
edge $-1 $210 0 $210 6.2831853071796004 $124 $211 forward 7 unknown #
loop $-1 $-1 $131 $77 #
plane-surface $-1 -34.150988439486049 11.586957023268745 77.851373518333446 0.61566148304635926 0 0.78801074757464917 0.78801074757464917 0 -0.61566148304635926 forward_v I I I I #
loop $-1 $-1 $212 $50 #
coedge $-1 $129 $129 $130 $213 reversed $78 $-1 #
coedge $-1 $130 $130 $129 $213 forward $80 $-1 #
coedge $-1 $131 $131 $81 $132 forward $126 $-1 #
edge $-1 $214 0 $214 6.2831853071796004 $131 $215 forward 7 unknown #
loop $-1 $-1 $138 $82 #
plane-surface $-1 -34.150988439486049 11.586957023268745 77.851373518333446 0.61566148304635926 0 0.78801074757464917 0.78801074757464917 0 -0.61566148304635926 forward_v I I I I #
loop $-1 $-1 $216 $53 #
coedge $-1 $136 $136 $137 $217 reversed $83 $-1 #
coedge $-1 $137 $137 $136 $217 forward $85 $-1 #
coedge $-1 $138 $138 $86 $139 forward $133 $-1 #
edge $-1 $218 0 $218 6.2831853071796004 $138 $219 forward 7 unknown #
face $-1 $220 $221 $21 $-1 $222 reversed single #
loop $-1 $-1 $223 $87 #
plane-surface $-1 -59.287697988830224 0 0 1 0 0 0 0 -1 forward_v I I I I #
coedge $-1 $224 $151 $225 $226 forward $88 $-1 #
coedge $-1 $227 $90 $224 $228 forward $57 $-1 #
coedge $-1 $90 $227 $229 $230 forward $57 $-1 #
coedge $-1 $154 $153 $90 $147 reversed $155 $-1 #
edge $-1 $231 -29.22461746195831 $232 29.22461746195831 $146 $233 forward 7 unknown #
coedge $-1 $92 $91 $234 $235 forward $36 $-1 #
coedge $-1 $236 $237 $91 $150 reversed $221 $-1 #
edge $-1 $157 -59.287697988830224 $238 59.287697988830224 $149 $239 forward 7 unknown #
coedge $-1 $143 $240 $92 $152 reversed $88 $-1 #
edge $-1 $241 -59.287697988830224 $156 59.287697988830224 $151 $242 forward 7 unknown #
coedge $-1 $146 $93 $240 $243 forward $155 $-1 #
coedge $-1 $93 $146 $236 $244 reversed $155 $-1 #
loop $-1 $-1 $153 $220 #
vertex $-1 $94 $245 #
vertex $-1 $94 $246 #
straight-curve $-1 59.287697988830224 0 11.836028045057835 0 1 0 I I #
face $-1 $247 $248 $22 $-1 $249 forward single #
loop $-1 $-1 $168 $95 #
plane-surface $-1 0 -29.22461746195831 0 0 1 0 0 0 1 forward_v I I I I #
coedge $-1 $250 $251 $252 $253 forward $96 $-1 #
coedge $-1 $252 $98 $100 $170 reversed $61 $-1 #
coedge $-1 $98 $252 $254 $255 reversed $61 $-1 #
coedge $-1 $256 $101 $98 $166 forward $172 $-1 #
edge $-1 $174 2.9502655372604165 $257 6.9072635176184169 $165 $258 forward 7 unknown #
coedge $-1 $100 $99 $250 $259 reversed $39 $-1 #
coedge $-1 $260 $261 $99 $169 forward $160 $-1 #
edge $-1 $262 -59.287697988830224 $173 59.287697988830224 $168 $263 forward 7 unknown #
edge $-1 $264 -59.287697988830224 $174 59.287697988830224 $163 $265 forward 7 unknown #
coedge $-1 $101 $256 $260 $266 forward $172 $-1 #
loop $-1 $-1 $165 $247 #
vertex $-1 $169 $267 #
vertex $-1 $102 $268 #
straight-curve $-1 59.287697988830224 -12.047500657234513 7.8790300646998332 0 1 0 I I #
face $-1 $269 $270 $23 $-1 $271 reversed single #
loop $-1 $-1 $189 $103 #
plane-surface $-1 59.287697988830224 0 0 -1 0 0 0 0 1 forward_v I I I I #
coedge $-1 $272 $273 $181 $274 forward $104 $-1 #
coedge $-1 $275 $106 $107 $185 reversed $65 $-1 #
coedge $-1 $106 $275 $179 $274 reversed $65 $-1 #
coedge $-1 $276 $277 $106 $183 forward $270 $-1 #
edge $-1 $278 2.9502655372604165 $279 6.9072635176184169 $182 $280 forward 7 unknown #
coedge $-1 $108 $107 $277 $281 reversed $42 $-1 #
edge $-1 $190 -59.287697988830224 $278 59.287697988830224 $180 $282 forward 7 unknown #
coedge $-1 $283 $284 $108 $187 forward $285 $-1 #
edge $-1 $191 -59.287697988830224 $286 59.287697988830224 $186 $287 forward 7 unknown #
coedge $-1 $288 $109 $284 $289 reversed $177 $-1 #
coedge $-1 $109 $288 $275 $290 forward $177 $-1 #
vertex $-1 $110 $291 #
vertex $-1 $187 $292 #
straight-curve $-1 59.287697988830224 12.047500657234512 7.8790300646998332 0 1 0 I I #
face $-1 $-1 $293 $24 $-1 $294 reversed single #
loop $-1 $-1 $117 $111 #
plane-surface $-1 0 0 11.836028045057835 0 0 1 1 0 0 forward_v I I I I #
coedge $-1 $295 $296 $297 $298 reversed $112 $-1 #
coedge $-1 $299 $114 $116 $203 forward $69 $-1 #
coedge $-1 $114 $299 $295 $300 forward $69 $-1 #
coedge $-1 $297 $117 $114 $200 forward $194 $-1 #
edge $-1 $206 -9.601011632818004 $301 -1.9859453904507411 $199 $302 forward 7 unknown #
coedge $-1 $303 $304 $115 $202 forward $293 $-1 #
edge $-1 $305 -80.795960595407152 $205 -73.809001928267023 $201 $306 forward 7 unknown #
edge $-1 $206 107.22669403748401 $305 118.57539597766046 $116 $307 forward 7 unknown #
coedge $-1 $117 $297 $303 $308 forward $194 $-1 #
vertex $-1 $202 $309 #
vertex $-1 $118 $310 #
straight-curve $-1 19.425657850464841 15.394490144452377 11.83602804505783 -1 0 0 I I #
coedge $-1 $208 $208 $-1 $311 reversed $121 $-1 #
edge $-1 $312 0 $312 6.2831853071796004 $122 $313 forward 7 unknown #
vertex $-1 $125 $314 #
ellipse-curve $-1 54.816248438890057 9.3024371505585677 8.3425487114877601 0.61566148304635926 0 0.78801074757464917 0.39400537378732459 0 -0.30783074152317963 1 I I #
coedge $-1 $212 $212 $-1 $315 reversed $128 $-1 #
edge $-1 $316 0 $316 6.2831853071796004 $129 $317 forward 7 unknown #
vertex $-1 $132 $318 #
ellipse-curve $-1 54.816248438890057 11.586957023268745 8.3425487114877601 0.61566148304635926 0 0.78801074757464917 0.39400537378732459 0 -0.30783074152317963 1 I I #
coedge $-1 $216 $216 $-1 $319 reversed $135 $-1 #
edge $-1 $320 0 $320 6.2831853071796004 $136 $321 forward 7 unknown #
vertex $-1 $139 $322 #
ellipse-curve $-1 54.816248438890057 13.871476895978923 8.3425487114877601 0.61566148304635926 0 0.78801074757464917 0.39400537378732459 0 -0.30783074152317963 1 I I #
face $-1 $-1 $155 $21 $-1 $323 reversed single #
loop $-1 $-1 $236 $140 #
plane-surface $-1 0 29.22461746195831 0 0 -1 0 0 0 -1 forward_v I I I I #
coedge $-1 $324 $234 $237 $325 forward $141 $-1 #
coedge $-1 $240 $143 $144 $228 reversed $88 $-1 #
coedge $-1 $234 $324 $143 $226 reversed $141 $-1 #
edge $-1 $241 -11.836028045057835 $326 11.836028045057835 $225 $327 forward 7 unknown #
coedge $-1 $145 $144 $324 $328 forward $57 $-1 #
edge $-1 $232 -59.287697988830224 $326 59.287697988830224 $224 $329 forward 7 unknown #
coedge $-1 $237 $236 $145 $230 reversed $221 $-1 #
edge $-1 $330 -59.287697988830224 $231 59.287697988830224 $229 $331 forward 7 unknown #
vertex $-1 $147 $332 #
vertex $-1 $243 $333 #
straight-curve $-1 59.287697988830224 0 -11.836028045057835 0 -1 0 I I #
coedge $-1 $223 $225 $148 $235 reversed $141 $-1 #
edge $-1 $238 -29.22461746195831 $241 29.22461746195831 $234 $334 forward 7 unknown #
coedge $-1 $229 $149 $154 $244 forward $221 $-1 #
coedge $-1 $149 $229 $223 $325 reversed $221 $-1 #
vertex $-1 $150 $335 #
straight-curve $-1 0 29.22461746195831 11.836028045057835 -1 0 0 I I #
coedge $-1 $151 $224 $153 $243 reversed $88 $-1 #
vertex $-1 $235 $336 #
straight-curve $-1 0 -29.22461746195831 11.836028045057835 1 0 0 I I #
edge $-1 $156 -11.836028045057835 $232 11.836028045057835 $153 $337 forward 7 unknown #
edge $-1 $157 -11.836028045057835 $231 11.836028045057835 $154 $338 forward 7 unknown #
point $-1 59.287697988830224 -29.22461746195831 11.836028045057835 #
point $-1 59.287697988830224 29.22461746195831 11.836028045057835 #
face $-1 $-1 $172 $22 $-1 $339 reversed single #
loop $-1 $-1 $254 $159 #
plane-surface $-1 0 0 11.836028045057835 0 0 1 1 0 0 forward_v I I I I #
coedge $-1 $340 $162 $167 $259 forward $96 $-1 #
coedge $-1 $162 $340 $341 $342 reversed $96 $-1 #
coedge $-1 $164 $163 $162 $253 reversed $61 $-1 #
edge $-1 $343 -6.9072635176184169 $264 -2.9502655372604165 $162 $344 forward 7 unknown #
coedge $-1 $341 $345 $164 $255 forward $248 $-1 #
edge $-1 $257 -59.287697988830224 $343 59.287697988830224 $254 $346 forward 7 unknown #
coedge $-1 $171 $165 $345 $347 reversed $172 $-1 #
vertex $-1 $166 $348 #
straight-curve $-1 59.287697988830224 -18.965385166979743 4.9287645274394167 0 0 1 I I #
edge $-1 $264 6.9178845097452299 $262 17.177116804723795 $250 $349 forward 7 unknown #
coedge $-1 $350 $168 $171 $266 reversed $160 $-1 #
coedge $-1 $168 $350 $340 $351 forward $160 $-1 #
vertex $-1 $169 $352 #
straight-curve $-1 0 -29.22461746195831 7.8790300646998332 1 0 0 I I #
vertex $-1 $259 $353 #
straight-curve $-1 0 -18.965385166979743 7.8790300646998332 1 0 0 I I #
edge $-1 $354 -11.836028045057835 $173 -7.8790300646998332 $171 $355 forward 7 unknown #
point $-1 59.287697988830224 -29.22461746195831 7.8790300646998332 #
point $-1 59.287697988830224 -18.965385166979743 7.8790300646998332 #
face $-1 $-1 $285 $23 $-1 $356 reversed single #
loop $-1 $-1 $182 $176 #
plane-surface $-1 -59.287697988830224 0 0 1 0 0 0 0 -1 forward_v I I I I #
coedge $-1 $357 $179 $288 $358 forward $104 $-1 #
coedge $-1 $179 $357 $276 $359 forward $104 $-1 #
edge $-1 $279 -59.287697988830224 $360 59.287697988830224 $179 $361 forward 7 unknown #
coedge $-1 $181 $180 $189 $290 reversed $65 $-1 #
coedge $-1 $362 $182 $273 $359 reversed $270 $-1 #
coedge $-1 $182 $362 $184 $281 forward $270 $-1 #
vertex $-1 $281 $363 #
vertex $-1 $183 $364 #
straight-curve $-1 -59.287697988830224 18.96538516697974 4.9287645274394167 0 0 1 I I #
edge $-1 $286 -17.177116804723795 $278 -6.9178845097452282 $277 $365 forward 7 unknown #
straight-curve $-1 0 18.96538516697974 7.8790300646998332 -1 0 0 I I #
coedge $-1 $366 $186 $362 $367 reversed $285 $-1 #
coedge $-1 $186 $366 $188 $289 forward $285 $-1 #
loop $-1 $-1 $186 $269 #
vertex $-1 $187 $368 #
straight-curve $-1 0 29.22461746195831 7.8790300646998332 -1 0 0 I I #
coedge $-1 $189 $188 $272 $358 reversed $177 $-1 #
edge $-1 $369 -11.836028045057835 $191 -7.8790300646998332 $188 $370 forward 7 unknown #
edge $-1 $360 -6.9072635176184169 $190 -2.9502655372604165 $189 $371 forward 7 unknown #
point $-1 59.287697988830224 18.96538516697974 7.8790300646998332 #
point $-1 59.287697988830224 29.224617461958307 7.8790300646998332 #
loop $-1 $-1 $201 $193 #
plane-surface $-1 59.287697988830224 0 0 -1 0 0 0 0 1 forward_v I I I I #
coedge $-1 $296 $196 $198 $300 reversed $112 $-1 #
coedge $-1 $196 $295 $372 $373 reversed $112 $-1 #
coedge $-1 $204 $199 $196 $298 forward $194 $-1 #
edge $-1 $301 30.919141038485062 $374 39.862040138365387 $297 $375 forward 7 unknown #
coedge $-1 $198 $197 $304 $376 reversed $69 $-1 #
edge $-1 $377 -118.57539597766046 $301 -107.22669403748401 $295 $378 forward 7 unknown #
vertex $-1 $200 $379 #
straight-curve $-1 50.344798888949903 5.7934785116343726 11.83602804505783 0 -1 0 I I #
coedge $-1 $372 $201 $204 $308 reversed $293 $-1 #
coedge $-1 $201 $372 $299 $376 forward $293 $-1 #
vertex $-1 $202 $380 #
straight-curve $-1 59.287697988830224 15.394490144452377 85.645029973324853 0 0 1 I I #
straight-curve $-1 -34.150988439486049 15.394490144452377 77.851373518333446 0.78801074757464917 0 -0.61566148304635926 I I #
edge $-1 $374 7.7794239020851137 $205 15.394490144452377 $303 $381 forward 7 unknown #
point $-1 59.287697988830224 15.394490144452377 11.836028045057835 #
point $-1 50.344798888949903 15.394490144452377 11.83602804505783 #
edge $-1 $382 1 $382 0 $208 $-1 forward 7 unknown #
vertex $-1 $209 $383 #
ellipse-curve $-1 53.593521472690341 9.3024371505585677 6.7775295942496454 0.61566148304635926 0 0.78801074757464917 0.39400537378732459 0 -0.30783074152317963 1 I I #
point $-1 55.210253812677394 9.3024371505585677 8.034717969964591 #
edge $-1 $384 1 $384 0 $212 $-1 forward 7 unknown #
vertex $-1 $213 $385 #
ellipse-curve $-1 53.593521472690341 11.586957023268745 6.7775295942496454 0.61566148304635926 0 0.78801074757464917 0.39400537378732459 0 -0.30783074152317963 1 I I #
point $-1 55.210253812677394 11.586957023268745 8.034717969964591 #
edge $-1 $386 1 $386 0 $216 $-1 forward 7 unknown #
vertex $-1 $217 $387 #
ellipse-curve $-1 53.593521472690341 13.871476895978923 6.7775295942496454 0.61566148304635926 0 0.78801074757464917 0.39400537378732459 0 -0.30783074152317963 1 I I #
point $-1 55.210253812677394 13.871476895978923 8.034717969964591 #
plane-surface $-1 59.287697988830224 0 0 -1 0 0 0 0 1 forward_v I I I I #
coedge $-1 $225 $223 $227 $328 reversed $141 $-1 #
edge $-1 $238 -11.836028045057835 $330 11.836028045057835 $237 $388 forward 7 unknown #
vertex $-1 $328 $389 #
straight-curve $-1 -59.287697988830224 -29.22461746195831 0 0 0 -1 I I #
edge $-1 $326 -29.22461746195831 $330 29.22461746195831 $324 $390 forward 7 unknown #
straight-curve $-1 0 -29.22461746195831 -11.836028045057835 -1 0 0 I I #
vertex $-1 $230 $391 #
straight-curve $-1 0 29.22461746195831 -11.836028045057835 1 0 0 I I #
point $-1 59.287697988830224 29.22461746195831 -11.836028045057835 #
point $-1 59.287697988830224 -29.22461746195831 -11.836028045057835 #
straight-curve $-1 -59.287697988830224 0 11.836028045057835 0 -1 0 I I #
point $-1 -59.287697988830224 29.22461746195831 11.836028045057835 #
point $-1 -59.287697988830224 -29.22461746195831 11.836028045057835 #
straight-curve $-1 59.287697988830224 -29.22461746195831 0 0 0 -1 I I #
straight-curve $-1 59.287697988830224 29.22461746195831 0 0 0 -1 I I #
plane-surface $-1 59.287697988830224 0 0 -1 0 0 0 0 1 forward_v I I I I #
coedge $-1 $251 $250 $261 $351 reversed $96 $-1 #
coedge $-1 $392 $254 $251 $342 forward $248 $-1 #
edge $-1 $343 18.965385166979743 $393 29.22461746195831 $251 $394 forward 7 unknown #
vertex $-1 $342 $395 #
straight-curve $-1 -59.287697988830224 -18.965385166979743 4.9287645274394167 0 0 -1 I I #
coedge $-1 $254 $392 $256 $347 forward $248 $-1 #
straight-curve $-1 0 -18.965385166979743 11.836028045057835 -1 0 0 I I #
edge $-1 $354 -29.22461746195831 $257 -18.965385166979743 $256 $396 forward 7 unknown #
point $-1 59.287697988830224 -18.965385166979743 11.836028045057834 #
straight-curve $-1 -59.287697988830224 -12.047500657234513 7.8790300646998332 0 -1 0 I I #
coedge $-1 $261 $260 $392 $397 reversed $160 $-1 #
edge $-1 $393 -11.836028045057835 $262 -7.8790300646998332 $340 $398 forward 7 unknown #
point $-1 -59.287697988830224 -29.22461746195831 7.8790300646998332 #
point $-1 -59.287697988830224 -18.965385166979743 7.8790300646998332 #
vertex $-1 $347 $399 #
straight-curve $-1 59.287697988830224 -29.22461746195831 0 0 0 -1 I I #
plane-surface $-1 0 29.22461746195831 0 0 -1 0 0 0 -1 forward_v I I I I #
coedge $-1 $273 $272 $366 $400 forward $104 $-1 #
edge $-1 $360 18.96538516697974 $369 29.22461746195831 $288 $401 forward 7 unknown #
edge $-1 $402 -29.22461746195831 $279 -18.96538516697974 $276 $403 forward 7 unknown #
vertex $-1 $358 $404 #
straight-curve $-1 0 18.96538516697974 11.836028045057835 1 0 0 I I #
coedge $-1 $277 $276 $283 $367 forward $270 $-1 #
point $-1 -59.287697988830224 18.96538516697974 7.8790300646998332 #
point $-1 -59.287697988830224 18.96538516697974 11.836028045057834 #
straight-curve $-1 -59.287697988830224 12.047500657234512 7.8790300646998332 0 -1 0 I I #
coedge $-1 $284 $283 $357 $400 reversed $285 $-1 #
edge $-1 $402 -11.836028045057835 $286 -7.8790300646998332 $283 $405 forward 7 unknown #
point $-1 -59.287697988830224 29.224617461958307 7.8790300646998332 #
vertex $-1 $358 $406 #
straight-curve $-1 59.287697988830224 29.22461746195831 0 0 0 -1 I I #
straight-curve $-1 59.287697988830224 18.96538516697974 4.9287645274394167 0 0 -1 I I #
coedge $-1 $304 $303 $296 $373 forward $293 $-1 #
edge $-1 $374 73.809001928267023 $377 80.795960595407152 $372 $407 forward 7 unknown #
vertex $-1 $308 $408 #
straight-curve $-1 19.425657850464841 7.7794239020851137 11.83602804505783 1 0 0 I I #
edge $-1 $377 1.9859453904507411 $305 9.601011632818004 $304 $409 forward 7 unknown #
vertex $-1 $376 $410 #
straight-curve $-1 -34.150988439486049 7.7794239020851137 77.851373518333446 -0.78801074757464917 0 0.61566148304635926 I I #
point $-1 50.344798888949903 7.7794239020851137 11.83602804505783 #
point $-1 59.287697988830224 15.394490144452377 4.8490693779177008 #
straight-curve $-1 59.287697988830224 0 11.836028045057835 0 1 0 I I #
vertex $-1 $311 $411 #
point $-1 53.987526846477664 9.3024371505585677 6.4696988527264656 #
vertex $-1 $315 $412 #
point $-1 53.987526846477664 11.586957023268745 6.4696988527264656 #
vertex $-1 $319 $413 #
point $-1 53.987526846477664 13.871476895978923 6.4696988527264656 #
straight-curve $-1 -59.287697988830224 29.22461746195831 0 0 0 -1 I I #
point $-1 -59.287697988830224 -29.22461746195831 -11.836028045057835 #
straight-curve $-1 -59.287697988830224 0 -11.836028045057835 0 1 0 I I #
point $-1 -59.287697988830224 29.22461746195831 -11.836028045057835 #
coedge $-1 $345 $341 $350 $397 forward $248 $-1 #
vertex $-1 $342 $414 #
straight-curve $-1 -59.287697988830224 0 11.836028045057835 0 -1 0 I I #
point $-1 -59.287697988830224 -18.965385166979743 11.836028045057834 #
straight-curve $-1 59.287697988830224 0 11.836028045057835 0 1 0 I I #
edge $-1 $393 -59.287697988830224 $354 59.287697988830224 $350 $415 forward 7 unknown #
straight-curve $-1 -59.287697988830224 -29.22461746195831 0 0 0 -1 I I #
point $-1 59.287697988830224 -29.22461746195831 11.836028045057835 #
edge $-1 $369 -59.287697988830224 $402 59.287697988830224 $366 $416 forward 7 unknown #
straight-curve $-1 59.287697988830224 0 11.836028045057835 0 1 0 I I #
vertex $-1 $400 $417 #
straight-curve $-1 -59.287697988830224 0 11.836028045057835 0 -1 0 I I #
point $-1 59.287697988830224 18.96538516697974 11.836028045057834 #
straight-curve $-1 -59.287697988830224 29.22461746195831 0 0 0 -1 I I #
point $-1 59.287697988830224 29.22461746195831 11.836028045057835 #
straight-curve $-1 59.287697988830224 7.7794239020851137 85.645029973324853 0 0 -1 I I #
point $-1 59.287697988830224 7.7794239020851137 11.836028045057835 #
straight-curve $-1 59.287697988830224 5.7934785116343726 4.8490693779177008 0 1 0 I I #
point $-1 59.287697988830224 7.7794239020851137 4.8490693779177008 #
point $-1 53.285690731167165 9.3024371505585677 6.3835242204623208 #
point $-1 53.285690731167165 11.586957023268745 6.3835242204623208 #
point $-1 53.285690731167165 13.871476895978923 6.3835242204623208 #
point $-1 -59.287697988830224 -29.22461746195831 11.836028045057835 #
straight-curve $-1 0 -29.22461746195831 11.836028045057835 1 0 0 I I #
straight-curve $-1 0 29.22461746195831 11.836028045057835 -1 0 0 I I #
point $-1 -59.287697988830224 29.22461746195831 11.836028045057835 #
End-of-ACIS-data 