500 0 13 0           
7 Unknown 11 ACIS 5.0 NT 24 Thu Mar 25 23:29:26 1999 
-1 9.9999999999999995e-007 1e-010 
body $-1 $13 $-1 $14 #
body $-1 $15 $-1 $16 #
body $-1 $17 $-1 $18 #
body $-1 $19 $-1 $20 #
body $-1 $21 $-1 $22 #
body $-1 $23 $-1 $24 #
body $-1 $25 $-1 $26 #
body $-1 $27 $-1 $28 #
body $-1 $29 $-1 $30 #
body $-1 $31 $-1 $32 #
body $-1 $33 $-1 $34 #
body $-1 $35 $-1 $36 #
body $-1 $37 $-1 $38 #
lump $-1 $-1 $39 $0 #
transform $-1 1 0 0 0 1 0 0 0 1 69.766533402508628 46.628410541345204 15.474450659192181 1 rotate no_reflect no_shear #
lump $-1 $-1 $40 $1 #
transform $-1 1 0 0 0 1 0 0 0 1 69.766533402508628 46.628410541345204 15.474450659192181 1 rotate no_reflect no_shear #
lump $-1 $-1 $41 $2 #
transform $-1 1 0 0 0 1 0 0 0 1 69.766533402508628 46.628410541345204 15.474450659192181 1 rotate no_reflect no_shear #
lump $-1 $-1 $42 $3 #
transform $-1 1 0 0 0 1 0 0 0 1 69.766533402508628 46.628410541345204 15.474450659192181 1 rotate no_reflect no_shear #
lump $-1 $-1 $43 $4 #
transform $-1 1 0 0 0 1 0 0 0 1 69.766533402508628 46.628410541345204 15.474450659192181 1 rotate no_reflect no_shear #
lump $-1 $-1 $44 $5 #
transform $-1 1 0 0 0 1 0 0 0 1 69.766533402508628 46.628410541345204 15.474450659192181 1 rotate no_reflect no_shear #
lump $-1 $-1 $45 $6 #
transform $-1 1 0 0 0 1 0 0 0 1 69.766533402508628 46.628410541345204 15.474450659192181 1 rotate no_reflect no_shear #
lump $-1 $-1 $46 $7 #
transform $-1 1 0 0 0 1 0 0 0 1 69.766533402508628 46.628410541345204 15.474450659192181 1 rotate no_reflect no_shear #
lump $-1 $-1 $47 $8 #
transform $-1 1 0 0 0 1 0 0 0 1 69.766533402508628 46.628410541345204 15.474450659192181 1 rotate no_reflect no_shear #
lump $-1 $-1 $48 $9 #
transform $-1 1 0 0 0 1 0 0 0 1 69.766533402508628 46.628410541345204 15.474450659192181 1 rotate no_reflect no_shear #
lump $-1 $-1 $49 $10 #
transform $-1 1 0 0 0 1 0 0 0 1 69.766533402508628 46.628410541345204 15.474450659192181 1 rotate no_reflect no_shear #
lump $-1 $-1 $50 $11 #
transform $-1 1 0 0 0 1 0 0 0 1 69.766533402508628 46.628410541345204 15.474450659192181 1 rotate no_reflect no_shear #
lump $-1 $-1 $51 $12 #
transform $-1 1 0 0 0 1 0 0 0 1 69.766533402508628 46.628410541345204 15.474450659192181 1 rotate no_reflect no_shear #
shell $-1 $-1 $-1 $52 $-1 $13 #
shell $-1 $-1 $-1 $53 $-1 $15 #
shell $-1 $-1 $-1 $54 $-1 $17 #
shell $-1 $-1 $-1 $55 $-1 $19 #
shell $-1 $-1 $-1 $56 $-1 $21 #
shell $-1 $-1 $-1 $57 $-1 $23 #
shell $-1 $-1 $-1 $58 $-1 $25 #
shell $-1 $-1 $-1 $59 $-1 $27 #
shell $-1 $-1 $-1 $60 $-1 $29 #
shell $-1 $-1 $-1 $61 $-1 $31 #
shell $-1 $-1 $-1 $62 $-1 $33 #
shell $-1 $-1 $-1 $63 $-1 $35 #
shell $-1 $-1 $-1 $64 $-1 $37 #
face $-1 $65 $66 $39 $-1 $67 forward single #
face $-1 $68 $69 $40 $-1 $70 reversed single #
face $-1 $71 $72 $41 $-1 $73 reversed single #
face $-1 $74 $75 $42 $-1 $76 reversed single #
face $-1 $77 $78 $43 $-1 $79 forward single #
face $-1 $80 $81 $44 $-1 $82 forward single #
face $-1 $83 $84 $45 $-1 $85 forward single #
face $-1 $86 $87 $46 $-1 $88 reversed single #
face $-1 $89 $90 $47 $-1 $91 forward single #
face $-1 $92 $93 $48 $-1 $94 forward single #
face $-1 $95 $96 $49 $-1 $97 forward single #
face $-1 $98 $99 $50 $-1 $100 reversed single #
face $-1 $101 $102 $51 $-1 $103 forward single #
face $-1 $104 $105 $39 $-1 $106 reversed single #
loop $-1 $-1 $107 $52 #
plane-surface $-1 0 0 15.474450659192181 0 0 1 1 0 0 forward_v I I I I #
face $-1 $108 $109 $40 $-1 $110 reversed single #
loop $-1 $-1 $111 $53 #
plane-surface $-1 -64.242923824105446 -37.461426632364237 0 0 -1 0 0 0 -1 forward_v I I I I #
face $-1 $112 $113 $41 $-1 $114 reversed single #
loop $-1 $-1 $115 $54 #
plane-surface $-1 58.719314245702265 -42.04491858685472 0 1 0 0 0 0 -1 forward_v I I I I #
face $-1 $116 $117 $42 $-1 $118 reversed single #
loop $-1 $-1 $119 $55 #
plane-surface $-1 -21.317560646694645 -147.00010010710727 106.27479830272172 -1 0 0 0 -0.71933980857756763 0.69465836192734942 forward_v I I I I #
face $-1 $120 $121 $43 $-1 $122 forward single #
loop $-1 $123 $124 $56 #
cone-surface $-1 -30.724693340379126 -43.19812399845587 11.955227406595911 0 0.71933980857756763 -0.69465836192734942 0.5 0 0 1 I I 0 1 0.5 forward I I I I #
face $-1 $125 $126 $44 $-1 $127 forward single #
loop $-1 $128 $129 $57 #
cone-surface $-1 -27.197018580247445 -43.19812399845587 11.955227406595911 0 0.71933980857756763 -0.69465836192734942 0.5 0 0 1 I I 0 1 0.5 forward I I I I #
face $-1 $130 $131 $45 $-1 $132 forward single #
loop $-1 $133 $134 $58 #
cone-surface $-1 -23.669343820115763 -43.19812399845587 11.955227406595911 0 0.71933980857756763 -0.69465836192734942 0.5 0 0 1 I I 0 1 0.5 forward I I I I #
face $-1 $135 $136 $46 $-1 $137 reversed single #
loop $-1 $-1 $138 $59 #
plane-surface $-1 37.40175359900762 -147.00010010710727 106.27479830272172 -1 0 0 0 -0.71933980857756763 0.69465836192734942 forward_v I I I I #
face $-1 $139 $140 $47 $-1 $141 forward single #
loop $-1 $142 $143 $60 #
cone-surface $-1 27.994620905323131 -43.19812399845587 11.955227406595911 0 0.71933980857756763 -0.69465836192734942 0.5 0 0 1 I I 0 1 0.5 forward I I I I #
face $-1 $144 $145 $48 $-1 $146 forward single #
loop $-1 $147 $148 $61 #
cone-surface $-1 31.52229566545482 -43.19812399845587 11.955227406595911 0 0.71933980857756763 -0.69465836192734942 0.5 0 0 1 I I 0 1 0.5 forward I I I I #
face $-1 $149 $150 $49 $-1 $151 forward single #
loop $-1 $152 $153 $62 #
cone-surface $-1 35.049970425586508 -43.19812399845587 11.955227406595911 0 0.71933980857756763 -0.69465836192734942 0.5 0 0 1 I I 0 1 0.5 forward I I I I #
face $-1 $154 $155 $50 $-1 $156 reversed single #
loop $-1 $-1 $157 $63 #
plane-surface $-1 36.130110357864652 67.788524329274964 172.85996349445853 1 0 0 0 -0.6560590369687036 -0.75470957328743171 forward_v I I I I #
face $-1 $158 $159 $51 $-1 $160 forward single #
loop $-1 $161 $162 $64 #
cone-surface $-1 47.424712301783458 38.849727151601329 7.9978810685458255 0 -0.6560590369687036 -0.75470957328743171 2 0 0 1 I I 0 1 2 forward I I I I #
face $-1 $163 $164 $39 $-1 $165 reversed single #
loop $-1 $-1 $166 $65 #
plane-surface $-1 0 0 -15.474450659192181 0 0 1 1 0 0 forward_v I I I I #
coedge $-1 $167 $168 $169 $170 forward $66 $-1 #
face $-1 $171 $172 $40 $-1 $173 forward single #
loop $-1 $-1 $174 $68 #
plane-surface $-1 -58.719314245702265 -42.04491858685472 0 -1 0 0 0 0 1 forward_v I I I I #
coedge $-1 $175 $176 $177 $178 forward $69 $-1 #
face $-1 $179 $180 $41 $-1 $181 forward single #
loop $-1 $-1 $182 $71 #
plane-surface $-1 64.242923824105446 -37.461426632364237 0 0 -1 0 0 0 -1 forward_v I I I I #
coedge $-1 $183 $184 $185 $186 forward $72 $-1 #
face $-1 $187 $188 $42 $-1 $189 reversed single #
loop $-1 $-1 $190 $74 #
plane-surface $-1 -27.197018580247445 -46.628410541345204 9.346986681249021 0 -0.71933980857756763 0.69465836192734942 1 0 0 forward_v I I I I #
coedge $-1 $191 $192 $193 $194 reversed $75 $-1 #
face $-1 $-1 $195 $43 $-1 $196 forward single #
loop $-1 $197 $198 $77 #
cone-surface $-1 -30.724693340379126 -42.546614023966029 11.32607155248939 0 0.71933980857756763 -0.69465836192734942 0.25 0 0 1 I I -0.70710678118654746 0.70710678118654746 0.25 forward I I I I #
loop $-1 $-1 $199 $56 #
coedge $-1 $124 $124 $200 $201 reversed $78 $-1 #
face $-1 $-1 $202 $44 $-1 $203 forward single #
loop $-1 $204 $205 $80 #
cone-surface $-1 -27.197018580247445 -42.546614023966029 11.32607155248939 0 0.71933980857756763 -0.69465836192734942 0.25 0 0 1 I I -0.70710678118654746 0.70710678118654746 0.25 forward I I I I #
loop $-1 $-1 $206 $57 #
coedge $-1 $129 $129 $207 $208 reversed $81 $-1 #
face $-1 $-1 $209 $45 $-1 $210 forward single #
loop $-1 $211 $212 $83 #
cone-surface $-1 -23.669343820115763 -42.546614023966029 11.32607155248939 0 0.71933980857756763 -0.69465836192734942 0.25 0 0 1 I I -0.70710678118654746 0.70710678118654746 0.25 forward I I I I #
loop $-1 $-1 $213 $58 #
coedge $-1 $134 $134 $214 $215 reversed $84 $-1 #
face $-1 $216 $217 $46 $-1 $218 reversed single #
loop $-1 $-1 $219 $86 #
plane-surface $-1 31.52229566545482 -46.628410541345204 9.346986681249021 0 -0.71933980857756763 0.69465836192734942 1 0 0 forward_v I I I I #
coedge $-1 $220 $221 $222 $223 reversed $87 $-1 #
face $-1 $-1 $224 $47 $-1 $225 forward single #
loop $-1 $226 $227 $89 #
cone-surface $-1 27.994620905323131 -42.546614023966029 11.32607155248939 0 0.71933980857756763 -0.69465836192734942 0.25 0 0 1 I I -0.70710678118654746 0.70710678118654746 0.25 forward I I I I #
loop $-1 $-1 $228 $60 #
coedge $-1 $143 $143 $229 $230 reversed $90 $-1 #
face $-1 $-1 $231 $48 $-1 $232 forward single #
loop $-1 $233 $234 $92 #
cone-surface $-1 31.52229566545482 -42.546614023966029 11.32607155248939 0 0.71933980857756763 -0.69465836192734942 0.25 0 0 1 I I -0.70710678118654746 0.70710678118654746 0.25 forward I I I I #
loop $-1 $-1 $235 $61 #
coedge $-1 $148 $148 $236 $237 reversed $93 $-1 #
face $-1 $-1 $238 $49 $-1 $239 forward single #
loop $-1 $240 $241 $95 #
cone-surface $-1 35.049970425586508 -42.546614023966029 11.32607155248939 0 0.71933980857756763 -0.69465836192734942 0.25 0 0 1 I I -0.70710678118654746 0.70710678118654746 0.25 forward I I I I #
loop $-1 $-1 $242 $62 #
coedge $-1 $153 $153 $243 $244 reversed $96 $-1 #
face $-1 $245 $246 $50 $-1 $247 reversed single #
loop $-1 $-1 $248 $98 #
plane-surface $-1 47.424712301783458 -23.753405104114435 67.553022186557257 0 0.6560590369687036 0.75470957328743171 1 0 0 forward_v I I I I #
coedge $-1 $249 $250 $251 $252 reversed $99 $-1 #
face $-1 $-1 $253 $51 $-1 $254 forward single #
loop $-1 $255 $256 $101 #
cone-surface $-1 47.424712301783458 35.65112149801891 4.3183062560657799 0 -0.6560590369687036 -0.75470957328743171 1 0 0 1 I I -0.70710678118654746 0.70710678118654746 1 forward I I I I #
loop $-1 $-1 $257 $64 #
coedge $-1 $162 $162 $258 $259 reversed $102 $-1 #
face $-1 $260 $261 $39 $-1 $262 reversed single #
loop $-1 $-1 $263 $104 #
plane-surface $-1 0 -46.628410541345204 0 0 1 0 0 0 1 forward_v I I I I #
coedge $-1 $264 $265 $266 $267 forward $105 $-1 #
coedge $-1 $268 $107 $269 $270 forward $66 $-1 #
coedge $-1 $107 $268 $271 $272 forward $66 $-1 #
coedge $-1 $273 $274 $107 $170 reversed $275 $-1 #
edge $-1 $276 -46.628410541345204 $277 46.628410541345204 $169 $278 forward 7 unknown #
face $-1 $279 $280 $40 $-1 $281 reversed single #
loop $-1 $-1 $282 $108 #
plane-surface $-1 0 0 15.474450659192181 0 0 1 1 0 0 forward_v I I I I #
coedge $-1 $283 $284 $285 $286 reversed $109 $-1 #
coedge $-1 $287 $111 $288 $289 reversed $69 $-1 #
coedge $-1 $111 $287 $290 $291 reversed $69 $-1 #
coedge $-1 $284 $283 $111 $178 reversed $109 $-1 #
edge $-1 $292 -15.474450659192181 $293 15.474450659192181 $177 $294 forward 7 unknown #
face $-1 $295 $296 $41 $-1 $297 reversed single #
loop $-1 $-1 $298 $112 #
plane-surface $-1 0 0 15.474450659192181 0 0 1 1 0 0 forward_v I I I I #
coedge $-1 $299 $300 $301 $302 reversed $113 $-1 #
coedge $-1 $303 $115 $304 $305 reversed $72 $-1 #
coedge $-1 $115 $303 $306 $307 reversed $72 $-1 #
coedge $-1 $300 $299 $115 $186 reversed $113 $-1 #
edge $-1 $308 -15.474450659192181 $309 15.474450659192181 $185 $310 forward 7 unknown #
face $-1 $311 $312 $42 $-1 $313 forward single #
loop $-1 $-1 $314 $116 #
plane-surface $-1 -33.076476513800245 -147.00010010710727 106.27479830272172 1 0 0 0 0.71933980857756763 -0.69465836192734942 forward_v I I I I #
coedge $-1 $315 $316 $317 $318 reversed $117 $-1 #
coedge $-1 $192 $119 $319 $320 reversed $75 $-1 #
coedge $-1 $119 $191 $315 $321 reversed $75 $-1 #
coedge $-1 $317 $322 $119 $194 forward $312 $-1 #
edge $-1 $323 26.871639512208432 $324 32.788862553296184 $193 $325 forward 7 unknown #
loop $-1 $-1 $200 $120 #
plane-surface $-1 -27.197018580247445 -46.628410541345204 9.346986681249021 0 -0.71933980857756763 0.69465836192734942 1 0 0 forward_v I I I I #
loop $-1 $-1 $326 $77 #
coedge $-1 $198 $198 $199 $327 reversed $121 $-1 #
coedge $-1 $199 $199 $198 $327 forward $123 $-1 #
coedge $-1 $200 $200 $124 $201 forward $195 $-1 #
edge $-1 $328 -3.5074445250725914e-016 $328 6.2831853071796004 $200 $329 forward 7 unknown #
loop $-1 $-1 $207 $125 #
plane-surface $-1 -27.197018580247445 -46.628410541345204 9.346986681249021 0 -0.71933980857756763 0.69465836192734942 1 0 0 forward_v I I I I #
loop $-1 $-1 $330 $80 #
coedge $-1 $205 $205 $206 $331 reversed $126 $-1 #
coedge $-1 $206 $206 $205 $331 forward $128 $-1 #
coedge $-1 $207 $207 $129 $208 forward $202 $-1 #
edge $-1 $332 -3.5074445250725914e-016 $332 6.2831853071796004 $207 $333 forward 7 unknown #
loop $-1 $-1 $214 $130 #
plane-surface $-1 -27.197018580247445 -46.628410541345204 9.346986681249021 0 -0.71933980857756763 0.69465836192734942 1 0 0 forward_v I I I I #
loop $-1 $-1 $334 $83 #
coedge $-1 $212 $212 $213 $335 reversed $131 $-1 #
coedge $-1 $213 $213 $212 $335 forward $133 $-1 #
coedge $-1 $214 $214 $134 $215 forward $209 $-1 #
edge $-1 $336 -3.5074445250725914e-016 $336 6.2831853071796004 $214 $337 forward 7 unknown #
face $-1 $338 $339 $46 $-1 $340 reversed single #
loop $-1 $-1 $341 $135 #
plane-surface $-1 25.64283773190202 -147.00010010710727 106.27479830272172 1 0 0 0 0.71933980857756763 -0.69465836192734942 forward_v I I I I #
coedge $-1 $342 $343 $344 $345 reversed $136 $-1 #
coedge $-1 $221 $138 $346 $347 reversed $87 $-1 #
coedge $-1 $138 $220 $342 $348 reversed $87 $-1 #
coedge $-1 $344 $349 $138 $223 forward $350 $-1 #
edge $-1 $351 26.871639512208432 $352 32.788862553296184 $222 $353 forward 7 unknown #
loop $-1 $-1 $229 $139 #
plane-surface $-1 31.52229566545482 -46.628410541345204 9.346986681249021 0 -0.71933980857756763 0.69465836192734942 1 0 0 forward_v I I I I #
loop $-1 $-1 $354 $89 #
coedge $-1 $227 $227 $228 $355 reversed $140 $-1 #
coedge $-1 $228 $228 $227 $355 forward $142 $-1 #
coedge $-1 $229 $229 $143 $230 forward $224 $-1 #
edge $-1 $356 -3.5074445250725914e-016 $356 6.2831853071796004 $229 $357 forward 7 unknown #
loop $-1 $-1 $236 $144 #
plane-surface $-1 31.52229566545482 -46.628410541345204 9.346986681249021 0 -0.71933980857756763 0.69465836192734942 1 0 0 forward_v I I I I #
loop $-1 $-1 $358 $92 #
coedge $-1 $234 $234 $235 $359 reversed $145 $-1 #
coedge $-1 $235 $235 $234 $359 forward $147 $-1 #
coedge $-1 $236 $236 $148 $237 forward $231 $-1 #
edge $-1 $360 -3.5074445250725914e-016 $360 6.2831853071796004 $236 $361 forward 7 unknown #
loop $-1 $-1 $243 $149 #
plane-surface $-1 31.52229566545482 -46.628410541345204 9.346986681249021 0 -0.71933980857756763 0.69465836192734942 1 0 0 forward_v I I I I #
loop $-1 $-1 $362 $95 #
coedge $-1 $241 $241 $242 $363 reversed $150 $-1 #
coedge $-1 $242 $242 $241 $363 forward $152 $-1 #
coedge $-1 $243 $243 $153 $244 forward $238 $-1 #
edge $-1 $364 -3.5074445250725914e-016 $364 6.2831853071796004 $243 $365 forward 7 unknown #
face $-1 $366 $367 $50 $-1 $368 reversed single #
loop $-1 $-1 $369 $154 #
plane-surface $-1 58.719314245702265 67.788524329274964 172.85996349445853 -1 0 0 0 0.6560590369687036 0.75470957328743171 forward_v I I I I #
coedge $-1 $370 $371 $372 $373 reversed $155 $-1 #
coedge $-1 $250 $157 $374 $375 reversed $99 $-1 #
coedge $-1 $157 $249 $370 $376 reversed $99 $-1 #
coedge $-1 $372 $377 $157 $252 forward $378 $-1 #
edge $-1 $379 -12.734148376707722 $380 -2.2618748304473755 $251 $381 forward 7 unknown #
loop $-1 $-1 $258 $158 #
plane-surface $-1 47.424712301783458 -23.753405104114435 67.553022186557257 0 0.6560590369687036 0.75470957328743171 1 0 0 forward_v I I I I #
loop $-1 $-1 $382 $101 #
coedge $-1 $256 $256 $257 $383 reversed $159 $-1 #
coedge $-1 $257 $257 $256 $383 forward $161 $-1 #
coedge $-1 $258 $258 $162 $259 forward $253 $-1 #
edge $-1 $384 3.5047710980055092e-016 $384 6.2831853071796004 $258 $385 forward 7 unknown #
face $-1 $386 $387 $39 $-1 $388 reversed single #
loop $-1 $-1 $389 $163 #
plane-surface $-1 -69.766533402508628 0 0 1 0 0 0 0 -1 forward_v I I I I #
coedge $-1 $390 $271 $391 $392 forward $164 $-1 #
coedge $-1 $393 $166 $390 $394 forward $105 $-1 #
coedge $-1 $166 $393 $395 $396 forward $105 $-1 #
coedge $-1 $274 $273 $166 $267 reversed $275 $-1 #
edge $-1 $397 -46.628410541345204 $398 46.628410541345204 $266 $399 forward 7 unknown #
coedge $-1 $168 $167 $400 $401 forward $66 $-1 #
coedge $-1 $402 $403 $167 $270 reversed $387 $-1 #
edge $-1 $277 -69.766533402508628 $404 69.766533402508628 $269 $405 forward 7 unknown #
coedge $-1 $263 $406 $168 $272 reversed $164 $-1 #
edge $-1 $407 -69.766533402508628 $276 69.766533402508628 $271 $408 forward 7 unknown #
coedge $-1 $266 $169 $406 $409 forward $275 $-1 #
coedge $-1 $169 $266 $402 $410 reversed $275 $-1 #
loop $-1 $-1 $273 $386 #
vertex $-1 $170 $411 #
vertex $-1 $170 $412 #
straight-curve $-1 69.766533402508628 0 15.474450659192181 0 1 0 I I #
face $-1 $413 $414 $40 $-1 $415 reversed single #
loop $-1 $-1 $416 $171 #
plane-surface $-1 -69.766533402508628 0 0 1 0 0 0 0 -1 forward_v I I I I #
coedge $-1 $290 $417 $284 $418 forward $172 $-1 #
coedge $-1 $177 $174 $419 $420 reversed $109 $-1 #
coedge $-1 $174 $177 $282 $418 reversed $109 $-1 #
coedge $-1 $421 $422 $174 $286 forward $423 $-1 #
edge $-1 $424 -15.474450659192181 $425 15.474450659192181 $285 $426 forward 7 unknown #
coedge $-1 $176 $175 $416 $427 reversed $69 $-1 #
coedge $-1 $419 $428 $175 $289 forward $414 $-1 #
edge $-1 $429 -37.645071490455905 $293 -26.597852333649541 $288 $430 forward 7 unknown #
coedge $-1 $431 $282 $176 $291 forward $172 $-1 #
edge $-1 $292 26.597852333649541 $432 37.645071490455905 $290 $433 forward 7 unknown #
vertex $-1 $291 $434 #
vertex $-1 $289 $435 #
straight-curve $-1 -58.719314245702265 -37.461426632364237 0 0 0 -1 I I #
face $-1 $436 $437 $41 $-1 $438 reversed single #
loop $-1 $-1 $439 $179 #
plane-surface $-1 0 -46.628410541345204 0 0 1 0 0 0 1 forward_v I I I I #
coedge $-1 $306 $440 $300 $441 forward $180 $-1 #
coedge $-1 $185 $182 $442 $443 reversed $113 $-1 #
coedge $-1 $182 $185 $298 $441 reversed $113 $-1 #
coedge $-1 $444 $445 $182 $302 forward $446 $-1 #
edge $-1 $447 -15.474450659192181 $448 15.474450659192181 $301 $449 forward 7 unknown #
coedge $-1 $184 $183 $439 $450 reversed $72 $-1 #
coedge $-1 $442 $451 $183 $305 forward $437 $-1 #
edge $-1 $452 -25.605951247917844 $309 -16.438967338936877 $304 $453 forward 7 unknown #
coedge $-1 $454 $298 $184 $307 forward $180 $-1 #
edge $-1 $308 16.438967338936877 $455 25.605951247917844 $306 $456 forward 7 unknown #
vertex $-1 $307 $457 #
vertex $-1 $305 $458 #
straight-curve $-1 58.719314245702265 -37.461426632364237 0 0 0 -1 I I #
face $-1 $-1 $459 $42 $-1 $460 reversed single #
loop $-1 $-1 $193 $187 #
plane-surface $-1 0 0 15.474450659192181 0 0 1 1 0 0 forward_v I I I I #
coedge $-1 $461 $462 $463 $464 reversed $188 $-1 #
coedge $-1 $465 $190 $192 $321 forward $117 $-1 #
coedge $-1 $190 $465 $461 $466 forward $117 $-1 #
coedge $-1 $463 $193 $190 $318 forward $312 $-1 #
edge $-1 $324 7.7190513565709225 $467 19.477967223676522 $317 $468 forward 7 unknown #
coedge $-1 $469 $470 $191 $320 forward $459 $-1 #
edge $-1 $471 -43.790412470111839 $323 -37.662948492168681 $319 $472 forward 7 unknown #
edge $-1 $324 -8.5181772298403615 $471 0 $192 $473 forward 7 unknown #
coedge $-1 $193 $463 $469 $474 forward $312 $-1 #
vertex $-1 $320 $475 #
vertex $-1 $194 $476 #
straight-curve $-1 -21.317560646694645 -73.500050053553636 15.474450659192179 0 1 0 I I #
coedge $-1 $326 $326 $-1 $477 reversed $197 $-1 #
edge $-1 $478 0 $478 6.2831853071796004 $198 $479 forward 7 unknown #
vertex $-1 $201 $480 #
ellipse-curve $-1 -30.724693340379126 -43.669799020801328 12.410718670220604 0 -0.71933980857756763 0.69465836192734942 0.5 0 0 1 I I #
coedge $-1 $330 $330 $-1 $481 reversed $204 $-1 #
edge $-1 $482 0 $482 6.2831853071796004 $205 $483 forward 7 unknown #
vertex $-1 $208 $484 #
ellipse-curve $-1 -27.197018580247445 -43.669799020801328 12.410718670220604 0 -0.71933980857756763 0.69465836192734942 0.5 0 0 1 I I #
coedge $-1 $334 $334 $-1 $485 reversed $211 $-1 #
edge $-1 $486 0 $486 6.2831853071796004 $212 $487 forward 7 unknown #
vertex $-1 $215 $488 #
ellipse-curve $-1 -23.669343820115763 -43.669799020801328 12.410718670220604 0 -0.71933980857756763 0.69465836192734942 0.5 0 0 1 I I #
face $-1 $-1 $350 $46 $-1 $489 forward single #
loop $-1 $-1 $490 $216 #
plane-surface $-1 0 -46.628410541345204 0 0 1 0 0 0 1 forward_v I I I I #
coedge $-1 $491 $492 $493 $494 reversed $217 $-1 #
coedge $-1 $495 $219 $221 $348 forward $136 $-1 #
coedge $-1 $219 $495 $491 $496 forward $136 $-1 #
coedge $-1 $493 $222 $219 $345 forward $350 $-1 #
edge $-1 $352 -21.64060576628021 $497 -9.88168989917461 $344 $498 forward 7 unknown #
coedge $-1 $499 $500 $220 $347 forward $339 $-1 #
edge $-1 $501 -43.790412470111839 $351 -37.662948492168681 $346 $502 forward 7 unknown #
edge $-1 $352 -8.5181772298403615 $501 0 $221 $503 forward 7 unknown #
coedge $-1 $222 $493 $499 $504 forward $350 $-1 #
loop $-1 $-1 $493 $338 #
vertex $-1 $347 $505 #
vertex $-1 $223 $506 #
straight-curve $-1 37.40175359900762 -73.500050053553636 15.474450659192179 0 1 0 I I #
coedge $-1 $354 $354 $-1 $507 reversed $226 $-1 #
edge $-1 $508 0 $508 6.2831853071796004 $227 $509 forward 7 unknown #
vertex $-1 $230 $510 #
ellipse-curve $-1 27.994620905323131 -43.669799020801328 12.410718670220604 0 -0.71933980857756763 0.69465836192734942 0.5 0 0 1 I I #
coedge $-1 $358 $358 $-1 $511 reversed $233 $-1 #
edge $-1 $512 0 $512 6.2831853071796004 $234 $513 forward 7 unknown #
vertex $-1 $237 $514 #
ellipse-curve $-1 31.52229566545482 -43.669799020801328 12.410718670220604 0 -0.71933980857756763 0.69465836192734942 0.5 0 0 1 I I #
coedge $-1 $362 $362 $-1 $515 reversed $240 $-1 #
edge $-1 $516 0 $516 6.2831853071796004 $241 $517 forward 7 unknown #
vertex $-1 $244 $518 #
ellipse-curve $-1 35.049970425586508 -43.669799020801328 12.410718670220604 0 -0.71933980857756763 0.69465836192734942 0.5 0 0 1 I I #
face $-1 $-1 $378 $50 $-1 $519 forward single #
loop $-1 $-1 $520 $245 #
plane-surface $-1 0 46.628410541345204 0 0 -1 0 0 0 -1 forward_v I I I I #
coedge $-1 $521 $522 $523 $524 reversed $246 $-1 #
coedge $-1 $525 $248 $250 $376 forward $155 $-1 #
coedge $-1 $248 $525 $521 $526 forward $155 $-1 #
coedge $-1 $523 $251 $248 $373 forward $378 $-1 #
edge $-1 $380 12.417754206972923 $527 35.006958094810535 $372 $528 forward 7 unknown #
coedge $-1 $529 $530 $249 $375 forward $367 $-1 #
edge $-1 $531 -80.058939790944578 $379 -70.955531088037077 $374 $532 forward 7 unknown #
edge $-1 $380 79.380922436481001 $531 93.256821082690408 $250 $533 forward 7 unknown #
coedge $-1 $251 $523 $529 $534 forward $378 $-1 #
loop $-1 $-1 $523 $366 #
vertex $-1 $375 $535 #
vertex $-1 $252 $536 #
straight-curve $-1 36.130110357864652 33.894262164637482 15.474450659192186 0 -1 0 I I #
coedge $-1 $382 $382 $-1 $537 reversed $255 $-1 #
edge $-1 $538 0 $538 6.2831853071796004 $256 $539 forward 7 unknown #
vertex $-1 $259 $540 #
ellipse-curve $-1 47.424712301783458 41.392273768215041 10.922746307738432 0 0.6560590369687036 0.75470957328743171 2 0 0 1 I I #
face $-1 $-1 $275 $39 $-1 $541 reversed single #
loop $-1 $-1 $402 $260 #
plane-surface $-1 0 46.628410541345204 0 0 -1 0 0 0 -1 forward_v I I I I #
coedge $-1 $542 $400 $403 $543 forward $261 $-1 #
coedge $-1 $406 $263 $264 $394 reversed $164 $-1 #
coedge $-1 $400 $542 $263 $392 reversed $261 $-1 #
edge $-1 $407 -15.474450659192181 $544 15.474450659192181 $391 $545 forward 7 unknown #
coedge $-1 $265 $264 $542 $546 forward $105 $-1 #
edge $-1 $398 -69.766533402508628 $544 69.766533402508628 $390 $547 forward 7 unknown #
coedge $-1 $403 $402 $265 $396 reversed $387 $-1 #
edge $-1 $548 -69.766533402508628 $397 69.766533402508628 $395 $549 forward 7 unknown #
vertex $-1 $267 $550 #
vertex $-1 $409 $551 #
straight-curve $-1 69.766533402508628 0 -15.474450659192181 0 -1 0 I I #
coedge $-1 $389 $391 $268 $401 reversed $261 $-1 #
edge $-1 $404 -46.628410541345204 $407 46.628410541345204 $400 $552 forward 7 unknown #
coedge $-1 $395 $269 $274 $410 forward $387 $-1 #
coedge $-1 $269 $395 $389 $543 reversed $387 $-1 #
vertex $-1 $270 $553 #
straight-curve $-1 0 46.628410541345204 15.474450659192181 -1 0 0 I I #
coedge $-1 $271 $390 $273 $409 reversed $164 $-1 #
vertex $-1 $401 $554 #
straight-curve $-1 0 -46.628410541345204 15.474450659192181 1 0 0 I I #
edge $-1 $276 -15.474450659192181 $398 15.474450659192181 $273 $555 forward 7 unknown #
edge $-1 $277 -15.474450659192181 $397 15.474450659192181 $274 $556 forward 7 unknown #
point $-1 69.766533402508628 -46.628410541345204 15.474450659192181 #
point $-1 69.766533402508628 46.628410541345204 15.474450659192181 #
face $-1 $-1 $423 $40 $-1 $557 reversed single #
loop $-1 $-1 $419 $279 #
plane-surface $-1 0 0 -15.474450659192181 0 0 1 1 0 0 forward_v I I I I #
coedge $-1 $558 $559 $287 $427 forward $280 $-1 #
coedge $-1 $282 $431 $421 $560 forward $172 $-1 #
edge $-1 $425 -25.605951247917844 $292 -16.438967338936877 $282 $561 forward 7 unknown #
coedge $-1 $562 $288 $283 $420 forward $414 $-1 #
edge $-1 $293 16.438967338936877 $424 25.605951247917844 $419 $563 forward 7 unknown #
coedge $-1 $564 $285 $417 $560 reversed $423 $-1 #
coedge $-1 $285 $564 $562 $565 reversed $423 $-1 #
loop $-1 $-1 $285 $413 #
vertex $-1 $565 $566 #
vertex $-1 $286 $567 #
straight-curve $-1 -58.719314245702265 -46.628410541345204 0 0 0 1 I I #
edge $-1 $432 -15.474450659192181 $429 15.474450659192181 $416 $568 forward 7 unknown #
coedge $-1 $288 $562 $558 $569 forward $414 $-1 #
vertex $-1 $289 $570 #
straight-curve $-1 -32.121461912052723 -37.461426632364237 -15.474450659192181 1 0 0 I I #
coedge $-1 $417 $290 $559 $571 forward $172 $-1 #
vertex $-1 $571 $572 #
straight-curve $-1 -32.121461912052723 -37.461426632364237 15.474450659192181 -1 0 0 I I #
point $-1 -58.719314245702265 -37.461426632364237 15.474450659192181 #
point $-1 -58.719314245702265 -37.461426632364237 -15.474450659192181 #
face $-1 $-1 $446 $41 $-1 $573 reversed single #
loop $-1 $-1 $442 $295 #
plane-surface $-1 0 0 -15.474450659192181 0 0 1 1 0 0 forward_v I I I I #
coedge $-1 $574 $575 $303 $450 forward $296 $-1 #
coedge $-1 $298 $454 $444 $576 forward $180 $-1 #
edge $-1 $448 -37.645071490455905 $308 -26.597852333649541 $298 $577 forward 7 unknown #
coedge $-1 $578 $304 $299 $443 forward $437 $-1 #
edge $-1 $309 26.597852333649541 $447 37.645071490455905 $442 $579 forward 7 unknown #
coedge $-1 $580 $301 $440 $576 reversed $446 $-1 #
coedge $-1 $301 $580 $578 $581 reversed $446 $-1 #
loop $-1 $-1 $301 $436 #
vertex $-1 $581 $582 #
vertex $-1 $302 $583 #
straight-curve $-1 69.766533402508628 -37.461426632364237 0 0 0 1 I I #
edge $-1 $455 -15.474450659192181 $452 15.474450659192181 $439 $584 forward 7 unknown #
coedge $-1 $304 $578 $574 $585 forward $437 $-1 #
vertex $-1 $305 $586 #
straight-curve $-1 58.719314245702265 -21.02245929342736 -15.474450659192181 0 1 0 I I #
coedge $-1 $440 $306 $575 $587 forward $180 $-1 #
vertex $-1 $587 $588 #
straight-curve $-1 58.719314245702265 -21.02245929342736 15.474450659192181 0 -1 0 I I #
point $-1 58.719314245702265 -37.461426632364237 15.474450659192181 #
point $-1 58.719314245702265 -37.461426632364237 -15.474450659192181 #
loop $-1 $-1 $319 $311 #
plane-surface $-1 0 -46.628410541345204 0 0 1 0 0 0 1 forward_v I I I I #
coedge $-1 $462 $314 $316 $466 reversed $188 $-1 #
coedge $-1 $314 $461 $589 $590 reversed $188 $-1 #
coedge $-1 $322 $317 $314 $464 forward $312 $-1 #
edge $-1 $467 -32.788862553296184 $591 -26.871639512208432 $463 $592 forward 7 unknown #
coedge $-1 $316 $315 $470 $593 reversed $117 $-1 #
edge $-1 $594 0 $467 8.5181772298403615 $461 $595 forward 7 unknown #
vertex $-1 $318 $596 #
straight-curve $-1 -13.598509290123722 -40.711187500257452 15.474450659192181 -1 0 0 I I #
coedge $-1 $589 $319 $322 $474 reversed $459 $-1 #
coedge $-1 $319 $589 $465 $593 forward $459 $-1 #
vertex $-1 $320 $597 #
straight-curve $-1 -21.317560646694645 -46.628410541345204 53.13739915136086 0 0 1 I I #
straight-curve $-1 -21.317560646694645 -46.628410541345204 9.346986681249021 0 -0.69465836192734942 -0.71933980857756763 I I #
edge $-1 $591 -33.076476513800245 $323 -21.317560646694645 $469 $598 forward 7 unknown #
point $-1 -21.317560646694645 -46.628410541345204 15.474450659192181 #
point $-1 -21.317560646694645 -40.711187500257452 15.474450659192181 #
edge $-1 $599 1 $599 0 $326 $-1 forward 7 unknown #
vertex $-1 $327 $600 #
ellipse-curve $-1 -30.724693340379126 -42.726448976110419 11.499736142971228 0 -0.71933980857756763 0.69465836192734942 0.5 0 0 1 I I #
point $-1 -30.224693340379126 -43.669799020801321 12.410718670220596 #
edge $-1 $601 1 $601 0 $330 $-1 forward 7 unknown #
vertex $-1 $331 $602 #
ellipse-curve $-1 -27.197018580247445 -42.726448976110419 11.499736142971228 0 -0.71933980857756763 0.69465836192734942 0.5 0 0 1 I I #
point $-1 -26.697018580247445 -43.669799020801321 12.410718670220596 #
edge $-1 $603 1 $603 0 $334 $-1 forward 7 unknown #
vertex $-1 $335 $604 #
ellipse-curve $-1 -23.669343820115763 -42.726448976110419 11.499736142971228 0 -0.71933980857756763 0.69465836192734942 0.5 0 0 1 I I #
point $-1 -23.169343820115763 -43.669799020801321 12.410718670220596 #
plane-surface $-1 0 0 15.474450659192181 0 0 1 1 0 0 forward_v I I I I #
coedge $-1 $500 $499 $492 $605 forward $339 $-1 #
coedge $-1 $492 $341 $343 $496 reversed $217 $-1 #
coedge $-1 $341 $491 $490 $605 reversed $217 $-1 #
coedge $-1 $349 $344 $341 $494 forward $350 $-1 #
edge $-1 $497 -32.788862553296184 $606 -26.871639512208432 $493 $607 forward 7 unknown #
coedge $-1 $343 $342 $500 $608 reversed $136 $-1 #
edge $-1 $609 0 $497 8.5181772298403615 $491 $610 forward 7 unknown #
vertex $-1 $345 $611 #
straight-curve $-1 15.76114783272741 -40.711187500257452 15.474450659192181 -1 0 0 I I #
coedge $-1 $490 $346 $349 $504 reversed $339 $-1 #
coedge $-1 $346 $490 $495 $608 forward $339 $-1 #
vertex $-1 $347 $612 #
straight-curve $-1 37.40175359900762 -46.628410541345204 53.13739915136086 0 0 1 I I #
straight-curve $-1 37.40175359900762 -46.628410541345204 9.346986681249021 0 -0.69465836192734942 -0.71933980857756763 I I #
edge $-1 $606 25.64283773190202 $351 37.40175359900762 $499 $613 forward 7 unknown #
point $-1 37.40175359900762 -46.628410541345204 15.474450659192181 #
point $-1 37.40175359900762 -40.711187500257452 15.474450659192181 #
edge $-1 $614 1 $614 0 $354 $-1 forward 7 unknown #
vertex $-1 $355 $615 #
ellipse-curve $-1 27.994620905323131 -42.726448976110419 11.499736142971228 0 -0.71933980857756763 0.69465836192734942 0.5 0 0 1 I I #
point $-1 28.494620905323131 -43.669799020801321 12.410718670220596 #
edge $-1 $616 1 $616 0 $358 $-1 forward 7 unknown #
vertex $-1 $359 $617 #
ellipse-curve $-1 31.52229566545482 -42.726448976110419 11.499736142971228 0 -0.71933980857756763 0.69465836192734942 0.5 0 0 1 I I #
point $-1 32.02229566545482 -43.669799020801321 12.410718670220596 #
edge $-1 $618 1 $618 0 $362 $-1 forward 7 unknown #
vertex $-1 $363 $619 #
ellipse-curve $-1 35.049970425586508 -42.726448976110419 11.499736142971228 0 -0.71933980857756763 0.69465836192734942 0.5 0 0 1 I I #
point $-1 35.549970425586508 -43.669799020801321 12.410718670220596 #
plane-surface $-1 0 0 15.474450659192181 0 0 1 1 0 0 forward_v I I I I #
coedge $-1 $530 $529 $522 $620 forward $367 $-1 #
coedge $-1 $522 $369 $371 $526 reversed $246 $-1 #
coedge $-1 $369 $521 $520 $620 reversed $246 $-1 #
coedge $-1 $377 $372 $369 $524 forward $378 $-1 #
edge $-1 $527 2.2618748304473755 $621 12.734148376707722 $523 $622 forward 7 unknown #
coedge $-1 $371 $370 $530 $623 reversed $155 $-1 #
edge $-1 $624 -93.256821082690408 $527 -79.380922436481001 $521 $625 forward 7 unknown #
vertex $-1 $373 $626 #
straight-curve $-1 23.712356150891729 36.156136995084843 15.474450659192186 1 0 0 I I #
coedge $-1 $520 $374 $377 $534 reversed $367 $-1 #
coedge $-1 $374 $520 $525 $623 forward $367 $-1 #
vertex $-1 $375 $627 #
straight-curve $-1 36.130110357864652 46.628410541345204 86.429981747229263 0 0 1 I I #
straight-curve $-1 36.130110357864652 -23.753405104114435 67.553022186557257 0 0.75470957328743171 -0.6560590369687036 I I #
edge $-1 $621 -58.719314245702265 $379 -36.130110357864652 $529 $628 forward 7 unknown #
point $-1 36.130110357864652 46.628410541345204 15.474450659192181 #
point $-1 36.130110357864652 36.156136995084857 15.474450659192172 #
edge $-1 $629 1 $629 0 $382 $-1 forward 7 unknown #
vertex $-1 $383 $630 #
ellipse-curve $-1 47.424712301783458 36.307180534987616 5.0730158293532117 0 0.6560590369687036 0.75470957328743171 2 0 0 1 I I #
point $-1 49.424712301783458 41.392273768215048 10.922746307738439 #
plane-surface $-1 69.766533402508628 0 0 -1 0 0 0 0 1 forward_v I I I I #
coedge $-1 $391 $389 $393 $546 reversed $261 $-1 #
edge $-1 $404 -15.474450659192181 $548 15.474450659192181 $403 $631 forward 7 unknown #
vertex $-1 $546 $632 #
straight-curve $-1 -69.766533402508628 -46.628410541345204 0 0 0 -1 I I #
edge $-1 $544 -46.628410541345204 $548 46.628410541345204 $542 $633 forward 7 unknown #
straight-curve $-1 0 -46.628410541345204 -15.474450659192181 -1 0 0 I I #
vertex $-1 $396 $634 #
straight-curve $-1 0 46.628410541345204 -15.474450659192181 1 0 0 I I #
point $-1 69.766533402508628 46.628410541345204 -15.474450659192181 #
point $-1 69.766533402508628 -46.628410541345204 -15.474450659192181 #
straight-curve $-1 -69.766533402508628 0 15.474450659192181 0 -1 0 I I #
point $-1 -69.766533402508628 46.628410541345204 15.474450659192181 #
point $-1 -69.766533402508628 -46.628410541345204 15.474450659192181 #
straight-curve $-1 69.766533402508628 -46.628410541345204 0 0 0 -1 I I #
straight-curve $-1 69.766533402508628 46.628410541345204 0 0 0 -1 I I #
plane-surface $-1 0 -46.628410541345204 0 0 1 0 0 0 1 forward_v I I I I #
coedge $-1 $635 $416 $428 $569 reversed $280 $-1 #
coedge $-1 $416 $635 $431 $571 reversed $280 $-1 #
edge $-1 $636 -69.766533402508628 $425 -58.719314245702265 $421 $637 forward 7 unknown #
straight-curve $-1 -58.719314245702265 -21.02245929342736 15.474450659192181 0 1 0 I I #
coedge $-1 $428 $419 $422 $565 forward $414 $-1 #
straight-curve $-1 -58.719314245702265 -21.02245929342736 -15.474450659192181 0 -1 0 I I #
coedge $-1 $422 $421 $635 $638 forward $423 $-1 #
edge $-1 $424 58.719314245702265 $639 69.766533402508628 $422 $640 forward 7 unknown #
point $-1 -58.719314245702265 -46.628410541345204 -15.474450659192181 #
point $-1 -58.719314245702265 -46.628410541345204 15.474450659192181 #
straight-curve $-1 -69.766533402508628 -37.461426632364237 0 0 0 -1 I I #
edge $-1 $639 -46.628410541345204 $429 -37.461426632364237 $558 $641 forward 7 unknown #
point $-1 -69.766533402508628 -37.461426632364237 -15.474450659192181 #
edge $-1 $432 37.461426632364237 $636 46.628410541345204 $559 $642 forward 7 unknown #
point $-1 -69.766533402508628 -37.461426632364237 15.474450659192181 #
plane-surface $-1 69.766533402508628 0 0 -1 0 0 0 0 1 forward_v I I I I #
coedge $-1 $643 $439 $451 $585 reversed $296 $-1 #
coedge $-1 $439 $643 $454 $587 reversed $296 $-1 #
edge $-1 $644 -46.628410541345204 $448 -37.461426632364237 $444 $645 forward 7 unknown #
straight-curve $-1 32.121461912052723 -37.461426632364237 15.474450659192181 -1 0 0 I I #
coedge $-1 $451 $442 $445 $581 forward $437 $-1 #
straight-curve $-1 32.121461912052723 -37.461426632364237 -15.474450659192181 1 0 0 I I #
coedge $-1 $445 $444 $643 $646 forward $446 $-1 #
edge $-1 $447 37.461426632364237 $647 46.628410541345204 $445 $648 forward 7 unknown #
point $-1 69.766533402508628 -37.461426632364237 -15.474450659192181 #
point $-1 69.766533402508628 -37.461426632364237 15.474450659192181 #
straight-curve $-1 58.719314245702265 -46.628410541345204 0 0 0 -1 I I #
edge $-1 $647 -69.766533402508628 $452 -58.719314245702265 $574 $649 forward 7 unknown #
point $-1 58.719314245702265 -46.628410541345204 -15.474450659192181 #
edge $-1 $455 58.719314245702265 $644 69.766533402508628 $575 $650 forward 7 unknown #
point $-1 58.719314245702265 -46.628410541345204 15.474450659192181 #
coedge $-1 $470 $469 $462 $590 forward $459 $-1 #
edge $-1 $591 37.662948492168681 $594 43.790412470111839 $589 $651 forward 7 unknown #
vertex $-1 $474 $652 #
straight-curve $-1 -33.076476513800245 -73.500050053553636 15.474450659192179 0 -1 0 I I #
edge $-1 $594 -19.477967223676522 $471 -7.7190513565709225 $470 $653 forward 7 unknown #
vertex $-1 $593 $654 #
straight-curve $-1 -33.076476513800245 -46.628410541345204 9.346986681249021 0 0.69465836192734942 0.71933980857756763 I I #
point $-1 -33.076476513800245 -40.711187500257452 15.474450659192181 #
point $-1 -21.317560646694645 -46.628410541345204 9.346986681249021 #
straight-curve $-1 0 -46.628410541345204 15.474450659192181 1 0 0 I I #
vertex $-1 $477 $655 #
point $-1 -30.224693340379126 -42.726448976110419 11.499736142971228 #
vertex $-1 $481 $656 #
point $-1 -26.697018580247445 -42.726448976110419 11.499736142971228 #
vertex $-1 $485 $657 #
point $-1 -23.169343820115763 -42.726448976110419 11.499736142971228 #
edge $-1 $606 37.662948492168681 $609 43.790412470111839 $490 $658 forward 7 unknown #
vertex $-1 $504 $659 #
straight-curve $-1 25.64283773190202 -73.500050053553636 15.474450659192179 0 -1 0 I I #
edge $-1 $609 9.88168989917461 $501 21.64060576628021 $500 $660 forward 7 unknown #
vertex $-1 $608 $661 #
straight-curve $-1 25.64283773190202 -46.628410541345204 9.346986681249021 0 0.69465836192734942 0.71933980857756763 I I #
point $-1 25.64283773190202 -40.711187500257452 15.474450659192181 #
point $-1 37.40175359900762 -46.628410541345204 9.346986681249021 #
straight-curve $-1 0 -46.628410541345204 15.474450659192181 1 0 0 I I #
vertex $-1 $507 $662 #
point $-1 28.494620905323131 -42.726448976110419 11.499736142971228 #
vertex $-1 $511 $663 #
point $-1 32.02229566545482 -42.726448976110419 11.499736142971228 #
vertex $-1 $515 $664 #
point $-1 35.549970425586508 -42.726448976110419 11.499736142971228 #
edge $-1 $621 70.955531088037077 $624 80.058939790944578 $520 $665 forward 7 unknown #
vertex $-1 $534 $666 #
straight-curve $-1 58.719314245702265 33.894262164637482 15.474450659192186 0 1 0 I I #
edge $-1 $624 -35.006958094810535 $531 -12.417754206972923 $530 $667 forward 7 unknown #
vertex $-1 $623 $668 #
straight-curve $-1 58.719314245702265 -23.753405104114435 67.553022186557257 0 -0.75470957328743171 0.6560590369687036 I I #
point $-1 58.719314245702265 36.156136995084857 15.474450659192172 #
point $-1 36.130110357864652 46.628410541345204 6.3710419562846923 #
straight-curve $-1 0 46.628410541345204 15.474450659192181 -1 0 0 I I #
vertex $-1 $537 $669 #
point $-1 49.424712301783458 36.307180534987616 5.0730158293532117 #
straight-curve $-1 -69.766533402508628 46.628410541345204 0 0 0 -1 I I #
point $-1 -69.766533402508628 -46.628410541345204 -15.474450659192181 #
straight-curve $-1 -69.766533402508628 0 -15.474450659192181 0 1 0 I I #
point $-1 -69.766533402508628 46.628410541345204 -15.474450659192181 #
coedge $-1 $559 $558 $564 $638 reversed $280 $-1 #
vertex $-1 $571 $670 #
straight-curve $-1 0 -46.628410541345204 15.474450659192181 1 0 0 I I #
edge $-1 $636 -15.474450659192181 $639 15.474450659192181 $635 $671 forward 7 unknown #
vertex $-1 $569 $672 #
straight-curve $-1 0 -46.628410541345204 -15.474450659192181 -1 0 0 I I #
straight-curve $-1 -69.766533402508628 0 -15.474450659192181 0 1 0 I I #
straight-curve $-1 -69.766533402508628 0 15.474450659192181 0 -1 0 I I #
coedge $-1 $575 $574 $580 $646 reversed $296 $-1 #
vertex $-1 $576 $673 #
straight-curve $-1 69.766533402508628 0 15.474450659192181 0 1 0 I I #
edge $-1 $644 -15.474450659192181 $647 15.474450659192181 $580 $674 forward 7 unknown #
vertex $-1 $646 $675 #
straight-curve $-1 69.766533402508628 0 -15.474450659192181 0 -1 0 I I #
straight-curve $-1 0 -46.628410541345204 -15.474450659192181 -1 0 0 I I #
straight-curve $-1 0 -46.628410541345204 15.474450659192181 1 0 0 I I #
straight-curve $-1 -33.076476513800245 -46.628410541345204 53.13739915136086 0 0 -1 I I #
point $-1 -33.076476513800245 -46.628410541345204 15.474450659192181 #
straight-curve $-1 -13.598509290123722 -46.628410541345204 9.346986681249021 1 0 0 I I #
point $-1 -33.076476513800245 -46.628410541345204 9.346986681249021 #
point $-1 -30.724693340379126 -42.366779071821639 11.152406962007552 #
point $-1 -27.197018580247445 -42.366779071821639 11.152406962007552 #
point $-1 -23.669343820115763 -42.366779071821639 11.152406962007552 #
straight-curve $-1 25.64283773190202 -46.628410541345204 53.13739915136086 0 0 -1 I I #
point $-1 25.64283773190202 -46.628410541345204 15.474450659192181 #
straight-curve $-1 15.76114783272741 -46.628410541345204 9.346986681249021 1 0 0 I I #
point $-1 25.64283773190202 -46.628410541345204 9.346986681249021 #
point $-1 27.994620905323131 -42.366779071821639 11.152406962007552 #
point $-1 31.52229566545482 -42.366779071821639 11.152406962007552 #
point $-1 35.049970425586508 -42.366779071821639 11.152406962007552 #
straight-curve $-1 58.719314245702265 46.628410541345204 86.429981747229263 0 0 -1 I I #
point $-1 58.719314245702265 46.628410541345204 15.474450659192181 #
straight-curve $-1 23.712356150891729 46.628410541345204 6.3710419562846994 -1 0 0 I I #
point $-1 58.719314245702265 46.628410541345204 6.3710419562846923 #
point $-1 47.424712301783458 34.995062461050203 3.5635966827783481 #
point $-1 -69.766533402508628 -46.628410541345204 15.474450659192181 #
straight-curve $-1 -69.766533402508628 -46.628410541345204 0 0 0 -1 I I #
point $-1 -69.766533402508628 -46.628410541345204 -15.474450659192181 #
point $-1 69.766533402508628 -46.628410541345204 15.474450659192181 #
straight-curve $-1 69.766533402508628 -46.628410541345204 0 0 0 -1 I I #
point $-1 69.766533402508628 -46.628410541345204 -15.474450659192181 #
End-of-ACIS-data 