500 0 13 0           
7 Unknown 11 ACIS 5.0 NT 24 Fri Mar 26 19:13:16 1999 
-1 9.9999999999999995e-007 1e-010 
body $-1 $13 $-1 $14 #
body $-1 $15 $-1 $16 #
body $-1 $17 $-1 $18 #
body $-1 $19 $-1 $20 #
body $-1 $21 $-1 $22 #
body $-1 $23 $-1 $24 #
body $-1 $25 $-1 $26 #
body $-1 $27 $-1 $28 #
body $-1 $29 $-1 $30 #
body $-1 $31 $-1 $32 #
body $-1 $33 $-1 $34 #
body $-1 $35 $-1 $36 #
body $-1 $37 $-1 $38 #
lump $-1 $-1 $39 $0 #
transform $-1 1 0 0 0 1 0 0 0 1 54.23871578112125 35.897332980965174 17.806685401144748 1 rotate no_reflect no_shear #
lump $-1 $-1 $40 $1 #
transform $-1 1 0 0 0 1 0 0 0 1 54.23871578112125 35.897332980965174 17.806685401144748 1 rotate no_reflect no_shear #
lump $-1 $-1 $41 $2 #
transform $-1 1 0 0 0 1 0 0 0 1 54.23871578112125 35.897332980965174 17.806685401144748 1 rotate no_reflect no_shear #
lump $-1 $-1 $42 $3 #
transform $-1 1 0 0 0 1 0 0 0 1 54.23871578112125 35.897332980965174 17.806685401144748 1 rotate no_reflect no_shear #
lump $-1 $-1 $43 $4 #
transform $-1 1 0 0 0 1 0 0 0 1 54.23871578112125 35.897332980965174 17.806685401144748 1 rotate no_reflect no_shear #
lump $-1 $-1 $44 $5 #
transform $-1 1 0 0 0 1 0 0 0 1 54.23871578112125 35.897332980965174 17.806685401144748 1 rotate no_reflect no_shear #
lump $-1 $-1 $45 $6 #
transform $-1 1 0 0 0 1 0 0 0 1 54.23871578112125 35.897332980965174 17.806685401144748 1 rotate no_reflect no_shear #
lump $-1 $-1 $46 $7 #
transform $-1 1 0 0 0 1 0 0 0 1 54.23871578112125 35.897332980965174 17.806685401144748 1 rotate no_reflect no_shear #
lump $-1 $-1 $47 $8 #
transform $-1 1 0 0 0 1 0 0 0 1 54.23871578112125 35.897332980965174 17.806685401144748 1 rotate no_reflect no_shear #
lump $-1 $-1 $48 $9 #
transform $-1 1 0 0 0 1 0 0 0 1 54.23871578112125 35.897332980965174 17.806685401144748 1 rotate no_reflect no_shear #
lump $-1 $-1 $49 $10 #
transform $-1 1 0 0 0 1 0 0 0 1 54.23871578112125 35.897332980965174 17.806685401144748 1 rotate no_reflect no_shear #
lump $-1 $-1 $50 $11 #
transform $-1 1 0 0 0 1 0 0 0 1 54.23871578112125 35.897332980965174 17.806685401144748 1 rotate no_reflect no_shear #
lump $-1 $-1 $51 $12 #
transform $-1 1 0 0 0 1 0 0 0 1 54.23871578112125 35.897332980965174 17.806685401144748 1 rotate no_reflect no_shear #
shell $-1 $-1 $-1 $52 $-1 $13 #
shell $-1 $-1 $-1 $53 $-1 $15 #
shell $-1 $-1 $-1 $54 $-1 $17 #
shell $-1 $-1 $-1 $55 $-1 $19 #
shell $-1 $-1 $-1 $56 $-1 $21 #
shell $-1 $-1 $-1 $57 $-1 $23 #
shell $-1 $-1 $-1 $58 $-1 $25 #
shell $-1 $-1 $-1 $59 $-1 $27 #
shell $-1 $-1 $-1 $60 $-1 $29 #
shell $-1 $-1 $-1 $61 $-1 $31 #
shell $-1 $-1 $-1 $62 $-1 $33 #
shell $-1 $-1 $-1 $63 $-1 $35 #
shell $-1 $-1 $-1 $64 $-1 $37 #
face $-1 $65 $66 $39 $-1 $67 forward single #
face $-1 $68 $69 $40 $-1 $70 forward single #
face $-1 $71 $72 $41 $-1 $73 forward single #
face $-1 $74 $75 $42 $-1 $76 reversed single #
face $-1 $77 $78 $43 $-1 $79 forward single #
face $-1 $80 $81 $44 $-1 $82 reversed single #
face $-1 $83 $84 $45 $-1 $85 forward single #
face $-1 $86 $87 $46 $-1 $88 forward single #
face $-1 $89 $90 $47 $-1 $91 forward single #
face $-1 $92 $93 $48 $-1 $94 reversed single #
face $-1 $95 $96 $49 $-1 $97 forward single #
face $-1 $98 $99 $50 $-1 $100 forward single #
face $-1 $101 $102 $51 $-1 $103 forward single #
face $-1 $104 $105 $39 $-1 $106 reversed single #
loop $-1 $-1 $107 $52 #
plane-surface $-1 0 0 17.806685401144748 0 0 1 1 0 0 forward_v I I I I #
face $-1 $108 $109 $40 $-1 $110 reversed single #
loop $-1 $-1 $111 $53 #
plane-surface $-1 0 -29.088236251368279 1.0709230200289346 0 0 1 1 0 0 forward_v I I I I #
face $-1 $112 $113 $41 $-1 $114 reversed single #
loop $-1 $-1 $115 $54 #
plane-surface $-1 0 27.280021067283222 8.1985653537697143 0 0 1 1 0 0 forward_v I I I I #
face $-1 $116 $117 $42 $-1 $118 reversed single #
loop $-1 $-1 $119 $55 #
plane-surface $-1 -132.27085063609096 18.662709153601266 85.189427026399713 0 -1 0 0.71933980857756763 0 -0.69465836192734942 forward_v I I I I #
face $-1 $120 $121 $43 $-1 $122 forward single #
loop $-1 $123 $124 $56 #
cone-surface $-1 -48.716213690325688 12.762921079932603 12.204830096987536 0.71933980857756763 0 -0.69465836192734942 1.0419875428910241 0 1.0790097128663514 1 I I 0 1 1.5 forward I I I I #
face $-1 $125 $126 $44 $-1 $127 reversed single #
loop $-1 $-1 $128 $57 #
plane-surface $-1 46.209845051067752 -10.140194705802017 154.30846824827597 0 1 0 0.66913061440640931 0 0.74314481823134659 forward_v I I I I #
face $-1 $129 $130 $45 $-1 $131 forward single #
loop $-1 $132 $133 $58 #
cone-surface $-1 44.470725844163987 -8.4737988014586243 8.9074188813718713 -0.66913061440640931 0 -0.74314481823134659 0.3715724091156733 0 -0.33456530720320465 1 I I 0 1 0.5 forward I I I I #
face $-1 $134 $135 $46 $-1 $136 forward single #
loop $-1 $137 $138 $59 #
cone-surface $-1 44.470725844163987 -5.974204944943537 8.9074188813718713 -0.66913061440640931 0 -0.74314481823134659 0.3715724091156733 0 -0.33456530720320465 1 I I 0 1 0.5 forward I I I I #
face $-1 $139 $140 $47 $-1 $141 forward single #
loop $-1 $142 $143 $60 #
cone-surface $-1 44.470725844163987 -3.4746110884284462 8.9074188813718713 -0.66913061440640931 0 -0.74314481823134659 0.3715724091156733 0 -0.33456530720320465 1 I I 0 1 0.5 forward I I I I #
face $-1 $144 $145 $48 $-1 $146 reversed single #
loop $-1 $-1 $147 $61 #
plane-surface $-1 46.209845051067752 6.5237643376318957 154.30846824827597 0 -1 0 -0.66913061440640931 0 -0.74314481823134659 forward_v I I I I #
face $-1 $148 $149 $49 $-1 $150 forward single #
loop $-1 $151 $152 $62 #
cone-surface $-1 44.470725844163987 -0.14181927974166797 8.9074188813718713 -0.66913061440640931 0 -0.74314481823134659 0.3715724091156733 0 -0.33456530720320465 1 I I 0 1 0.5 forward I I I I #
face $-1 $153 $154 $50 $-1 $155 forward single #
loop $-1 $156 $157 $63 #
cone-surface $-1 44.470725844163987 2.3577745767734157 8.9074188813718713 -0.66913061440640931 0 -0.74314481823134659 0.3715724091156733 0 -0.33456530720320465 1 I I 0 1 0.5 forward I I I I #
face $-1 $158 $159 $51 $-1 $160 forward single #
loop $-1 $161 $162 $64 #
cone-surface $-1 44.470725844163987 4.8573684332885065 8.9074188813718713 -0.66913061440640931 0 -0.74314481823134659 0.3715724091156733 0 -0.33456530720320465 1 I I 0 1 0.5 forward I I I I #
face $-1 $163 $164 $39 $-1 $165 reversed single #
loop $-1 $-1 $166 $65 #
plane-surface $-1 0 0 -17.806685401144748 0 0 1 1 0 0 forward_v I I I I #
coedge $-1 $167 $168 $169 $170 forward $66 $-1 #
face $-1 $171 $172 $40 $-1 $173 reversed single #
loop $-1 $-1 $174 $68 #
plane-surface $-1 0 -29.088236251368279 -5.7621010864475144 0 0 1 1 0 0 forward_v I I I I #
coedge $-1 $175 $176 $177 $178 reversed $69 $-1 #
face $-1 $179 $180 $41 $-1 $181 reversed single #
loop $-1 $-1 $182 $71 #
plane-surface $-1 0 27.280021067283222 -1.7876772765753284 0 0 1 1 0 0 forward_v I I I I #
coedge $-1 $183 $184 $185 $186 reversed $72 $-1 #
face $-1 $187 $188 $42 $-1 $189 reversed single #
loop $-1 $-1 $190 $74 #
plane-surface $-1 -54.238715781121257 12.76292107993261 9.8346721112861957 -0.71933980857756763 0 0.69465836192734942 0.69465836192734942 0 0.71933980857756763 forward_v I I I I #
coedge $-1 $191 $192 $193 $194 reversed $75 $-1 #
face $-1 $-1 $195 $43 $-1 $196 forward single #
loop $-1 $197 $198 $77 #
cone-surface $-1 -46.503448525048924 12.762921079932603 10.067987666314092 0.71933980857756763 0 -0.69465836192734942 0.52099377144551207 0 0.53950485643317569 1 I I -0.70710678118654757 0.70710678118654757 0.75 forward I I I I #
loop $-1 $-1 $199 $56 #
coedge $-1 $124 $124 $200 $201 reversed $78 $-1 #
face $-1 $202 $203 $44 $-1 $204 reversed single #
loop $-1 $-1 $205 $80 #
plane-surface $-1 -26.375725379404791 -5.974204944943537 73.69402708774993 0.66913061440640931 0 0.74314481823134659 0.74314481823134659 0 -0.66913061440640931 forward_v I I I I #
coedge $-1 $206 $207 $208 $209 reversed $81 $-1 #
face $-1 $-1 $210 $45 $-1 $211 forward single #
loop $-1 $212 $213 $83 #
cone-surface $-1 43.808083960881198 -8.4737988014586243 8.1714805289748398 -0.66913061440640931 0 -0.74314481823134659 0.18578620455783665 0 -0.16728265360160233 1 I I -0.70710678118654746 0.70710678118654746 0.25 forward I I I I #
loop $-1 $-1 $214 $58 #
coedge $-1 $133 $133 $215 $216 reversed $84 $-1 #
face $-1 $-1 $217 $46 $-1 $218 forward single #
loop $-1 $219 $220 $86 #
cone-surface $-1 43.808083960881198 -5.974204944943537 8.1714805289748398 -0.66913061440640931 0 -0.74314481823134659 0.18578620455783665 0 -0.16728265360160233 1 I I -0.70710678118654746 0.70710678118654746 0.25 forward I I I I #
loop $-1 $-1 $221 $59 #
coedge $-1 $138 $138 $222 $223 reversed $87 $-1 #
face $-1 $-1 $224 $47 $-1 $225 forward single #
loop $-1 $226 $227 $89 #
cone-surface $-1 43.808083960881198 -3.4746110884284462 8.1714805289748398 -0.66913061440640931 0 -0.74314481823134659 0.18578620455783665 0 -0.16728265360160233 1 I I -0.70710678118654746 0.70710678118654746 0.25 forward I I I I #
loop $-1 $-1 $228 $60 #
coedge $-1 $143 $143 $229 $230 reversed $90 $-1 #
face $-1 $231 $232 $48 $-1 $233 forward single #
loop $-1 $-1 $234 $92 #
plane-surface $-1 -26.375725379404791 -5.974204944943537 73.69402708774993 0.66913061440640931 0 0.74314481823134659 0.74314481823134659 0 -0.66913061440640931 forward_v I I I I #
coedge $-1 $235 $236 $237 $238 reversed $93 $-1 #
face $-1 $-1 $239 $49 $-1 $240 forward single #
loop $-1 $241 $242 $95 #
cone-surface $-1 43.808083960881198 -0.14181927974166797 8.1714805289748398 -0.66913061440640931 0 -0.74314481823134659 0.18578620455783665 0 -0.16728265360160233 1 I I -0.70710678118654746 0.70710678118654746 0.25 forward I I I I #
loop $-1 $-1 $243 $62 #
coedge $-1 $152 $152 $244 $245 reversed $96 $-1 #
face $-1 $-1 $246 $50 $-1 $247 forward single #
loop $-1 $248 $249 $98 #
cone-surface $-1 43.808083960881198 2.3577745767734157 8.1714805289748398 -0.66913061440640931 0 -0.74314481823134659 0.18578620455783665 0 -0.16728265360160233 1 I I -0.70710678118654746 0.70710678118654746 0.25 forward I I I I #
loop $-1 $-1 $250 $63 #
coedge $-1 $157 $157 $251 $252 reversed $99 $-1 #
face $-1 $-1 $253 $51 $-1 $254 forward single #
loop $-1 $255 $256 $101 #
cone-surface $-1 43.808083960881198 4.8573684332885065 8.1714805289748398 -0.66913061440640931 0 -0.74314481823134659 0.18578620455783665 0 -0.16728265360160233 1 I I -0.70710678118654746 0.70710678118654746 0.25 forward I I I I #
loop $-1 $-1 $257 $64 #
coedge $-1 $162 $162 $258 $259 reversed $102 $-1 #
face $-1 $260 $261 $39 $-1 $262 reversed single #
loop $-1 $-1 $263 $104 #
plane-surface $-1 0 -35.897332980965174 0 0 1 0 0 0 1 forward_v I I I I #
coedge $-1 $264 $265 $266 $267 forward $105 $-1 #
coedge $-1 $268 $107 $269 $270 forward $66 $-1 #
coedge $-1 $107 $268 $271 $272 forward $66 $-1 #
coedge $-1 $273 $274 $107 $170 reversed $275 $-1 #
edge $-1 $276 -35.897332980965174 $277 35.897332980965174 $169 $278 forward 7 unknown #
face $-1 $279 $280 $40 $-1 $281 reversed single #
loop $-1 $-1 $282 $108 #
plane-surface $-1 0 -22.279139521771384 -2.3455890332092899 0 -1 0 0 0 -1 forward_v I I I I #
coedge $-1 $283 $284 $285 $286 reversed $109 $-1 #
coedge $-1 $287 $111 $288 $289 forward $69 $-1 #
coedge $-1 $111 $287 $290 $291 reversed $69 $-1 #
coedge $-1 $292 $293 $111 $178 forward $294 $-1 #
edge $-1 $295 7.7350213960872445 $296 21.353214855281035 $177 $297 forward 7 unknown #
face $-1 $298 $299 $41 $-1 $300 reversed single #
loop $-1 $-1 $301 $112 #
plane-surface $-1 0 18.66270915360127 3.205444038597193 0 1 0 0 0 1 forward_v I I I I #
coedge $-1 $302 $303 $304 $305 reversed $113 $-1 #
coedge $-1 $306 $115 $307 $308 reversed $72 $-1 #
coedge $-1 $115 $306 $309 $310 forward $72 $-1 #
coedge $-1 $311 $312 $115 $186 forward $299 $-1 #
edge $-1 $313 -22.257322447323563 $314 -5.0226986199596588 $185 $315 forward 7 unknown #
face $-1 $316 $317 $42 $-1 $318 reversed single #
loop $-1 $-1 $319 $116 #
plane-surface $-1 -132.27085063609096 6.8631330062639542 85.189427026399713 0 1 0 -0.71933980857756763 0 0.69465836192734942 forward_v I I I I #
coedge $-1 $320 $321 $322 $323 reversed $117 $-1 #
coedge $-1 $192 $119 $324 $325 reversed $75 $-1 #
coedge $-1 $119 $191 $320 $326 reversed $75 $-1 #
coedge $-1 $322 $327 $119 $194 forward $317 $-1 #
edge $-1 $328 24.788028112055109 $329 32.760041401913654 $193 $330 forward 7 unknown #
loop $-1 $-1 $200 $120 #
plane-surface $-1 -54.238715781121257 12.76292107993261 9.8346721112861957 -0.71933980857756763 0 0.69465836192734942 0.69465836192734942 0 0.71933980857756763 forward_v I I I I #
loop $-1 $-1 $331 $77 #
coedge $-1 $198 $198 $199 $332 reversed $121 $-1 #
coedge $-1 $199 $199 $198 $332 forward $123 $-1 #
coedge $-1 $200 $200 $124 $201 forward $195 $-1 #
edge $-1 $333 0 $333 6.2831853071796004 $200 $334 forward 7 unknown #
face $-1 $335 $336 $44 $-1 $337 forward single #
loop $-1 $-1 $338 $125 #
plane-surface $-1 46.209845051067752 -1.8082151840850571 154.30846824827597 0 -1 0 -0.66913061440640931 0 -0.74314481823134659 forward_v I I I I #
coedge $-1 $339 $340 $341 $342 reversed $126 $-1 #
coedge $-1 $207 $128 $343 $344 reversed $81 $-1 #
coedge $-1 $128 $206 $339 $345 reversed $81 $-1 #
coedge $-1 $341 $346 $128 $209 forward $347 $-1 #
edge $-1 $348 59.347548722993238 $349 76.045777466860599 $208 $350 forward 7 unknown #
loop $-1 $-1 $215 $129 #
plane-surface $-1 -26.375725379404791 -5.974204944943537 73.69402708774993 0.66913061440640931 0 0.74314481823134659 0.74314481823134659 0 -0.66913061440640931 forward_v I I I I #
loop $-1 $-1 $351 $83 #
coedge $-1 $213 $213 $214 $352 reversed $130 $-1 #
coedge $-1 $214 $214 $213 $352 forward $132 $-1 #
coedge $-1 $215 $215 $133 $216 forward $210 $-1 #
edge $-1 $353 0 $353 6.2831853071796004 $215 $354 forward 7 unknown #
loop $-1 $-1 $222 $134 #
plane-surface $-1 -26.375725379404791 -5.974204944943537 73.69402708774993 0.66913061440640931 0 0.74314481823134659 0.74314481823134659 0 -0.66913061440640931 forward_v I I I I #
loop $-1 $-1 $355 $86 #
coedge $-1 $220 $220 $221 $356 reversed $135 $-1 #
coedge $-1 $221 $221 $220 $356 forward $137 $-1 #
coedge $-1 $222 $222 $138 $223 forward $217 $-1 #
edge $-1 $357 0 $357 6.2831853071796004 $222 $358 forward 7 unknown #
loop $-1 $-1 $229 $139 #
plane-surface $-1 -26.375725379404791 -5.974204944943537 73.69402708774993 0.66913061440640931 0 0.74314481823134659 0.74314481823134659 0 -0.66913061440640931 forward_v I I I I #
loop $-1 $-1 $359 $89 #
coedge $-1 $227 $227 $228 $360 reversed $140 $-1 #
coedge $-1 $228 $228 $227 $360 forward $142 $-1 #
coedge $-1 $229 $229 $143 $230 forward $224 $-1 #
edge $-1 $361 0 $361 6.2831853071796004 $229 $362 forward 7 unknown #
face $-1 $363 $364 $48 $-1 $365 forward single #
loop $-1 $-1 $366 $144 #
plane-surface $-1 0 0 17.806685401144748 0 0 1 1 0 0 forward_v I I I I #
coedge $-1 $367 $368 $369 $370 reversed $145 $-1 #
coedge $-1 $236 $147 $371 $372 reversed $93 $-1 #
coedge $-1 $147 $235 $366 $373 reversed $93 $-1 #
coedge $-1 $374 $375 $147 $238 forward $376 $-1 #
edge $-1 $377 -76.045777466860599 $378 -59.347548722993238 $237 $379 forward 7 unknown #
loop $-1 $-1 $244 $148 #
plane-surface $-1 -26.375725379404791 -5.974204944943537 73.69402708774993 0.66913061440640931 0 0.74314481823134659 0.74314481823134659 0 -0.66913061440640931 forward_v I I I I #
loop $-1 $-1 $380 $95 #
coedge $-1 $242 $242 $243 $381 reversed $149 $-1 #
coedge $-1 $243 $243 $242 $381 forward $151 $-1 #
coedge $-1 $244 $244 $152 $245 forward $239 $-1 #
edge $-1 $382 0 $382 6.2831853071796004 $244 $383 forward 7 unknown #
loop $-1 $-1 $251 $153 #
plane-surface $-1 -26.375725379404791 -5.974204944943537 73.69402708774993 0.66913061440640931 0 0.74314481823134659 0.74314481823134659 0 -0.66913061440640931 forward_v I I I I #
loop $-1 $-1 $384 $98 #
coedge $-1 $249 $249 $250 $385 reversed $154 $-1 #
coedge $-1 $250 $250 $249 $385 forward $156 $-1 #
coedge $-1 $251 $251 $157 $252 forward $246 $-1 #
edge $-1 $386 0 $386 6.2831853071796004 $251 $387 forward 7 unknown #
loop $-1 $-1 $258 $158 #
plane-surface $-1 -26.375725379404791 -5.974204944943537 73.69402708774993 0.66913061440640931 0 0.74314481823134659 0.74314481823134659 0 -0.66913061440640931 forward_v I I I I #
loop $-1 $-1 $388 $101 #
coedge $-1 $256 $256 $257 $389 reversed $159 $-1 #
coedge $-1 $257 $257 $256 $389 forward $161 $-1 #
coedge $-1 $258 $258 $162 $259 forward $253 $-1 #
edge $-1 $390 0 $390 6.2831853071796004 $258 $391 forward 7 unknown #
face $-1 $392 $393 $39 $-1 $394 reversed single #
loop $-1 $-1 $395 $163 #
plane-surface $-1 -54.23871578112125 0 0 1 0 0 0 0 -1 forward_v I I I I #
coedge $-1 $396 $271 $397 $398 forward $164 $-1 #
coedge $-1 $399 $166 $396 $400 forward $105 $-1 #
coedge $-1 $166 $399 $401 $402 forward $105 $-1 #
coedge $-1 $274 $273 $166 $267 reversed $275 $-1 #
edge $-1 $403 -35.897332980965174 $404 35.897332980965174 $266 $405 forward 7 unknown #
coedge $-1 $168 $167 $406 $407 forward $66 $-1 #
coedge $-1 $408 $409 $167 $270 reversed $393 $-1 #
edge $-1 $277 -54.23871578112125 $410 54.23871578112125 $269 $411 forward 7 unknown #
coedge $-1 $263 $412 $168 $272 reversed $164 $-1 #
edge $-1 $413 -54.23871578112125 $276 54.23871578112125 $271 $414 forward 7 unknown #
coedge $-1 $266 $169 $412 $415 forward $275 $-1 #
coedge $-1 $169 $266 $408 $416 reversed $275 $-1 #
loop $-1 $-1 $273 $392 #
vertex $-1 $170 $417 #
vertex $-1 $170 $418 #
straight-curve $-1 54.23871578112125 0 17.806685401144748 0 1 0 I I #
face $-1 $419 $420 $40 $-1 $421 reversed single #
loop $-1 $-1 $422 $171 #
plane-surface $-1 -54.23871578112125 0 0 1 0 0 0 0 -1 forward_v I I I I #
coedge $-1 $423 $288 $293 $424 reversed $172 $-1 #
coedge $-1 $425 $174 $426 $427 reversed $109 $-1 #
coedge $-1 $174 $425 $423 $428 forward $109 $-1 #
coedge $-1 $293 $292 $174 $286 forward $294 $-1 #
edge $-1 $429 -21.353214855281035 $430 -7.7350213960872445 $285 $431 forward 7 unknown #
coedge $-1 $176 $175 $422 $432 reversed $69 $-1 #
coedge $-1 $282 $433 $175 $289 reversed $172 $-1 #
edge $-1 $295 -54.23871578112125 $434 54.23871578112125 $288 $435 forward 7 unknown #
coedge $-1 $436 $437 $176 $291 forward $420 $-1 #
edge $-1 $296 -54.23871578112125 $438 54.23871578112125 $290 $439 forward 7 unknown #
coedge $-1 $285 $177 $437 $440 forward $294 $-1 #
coedge $-1 $177 $285 $282 $424 forward $294 $-1 #
loop $-1 $-1 $177 $419 #
vertex $-1 $178 $441 #
vertex $-1 $440 $442 #
straight-curve $-1 54.23871578112125 -14.54411812568414 1.0709230200289346 0 -1 0 I I #
face $-1 $443 $444 $41 $-1 $445 reversed single #
loop $-1 $-1 $185 $179 #
plane-surface $-1 54.23871578112125 0 0 -1 0 0 0 0 1 forward_v I I I I #
coedge $-1 $446 $309 $447 $448 reversed $180 $-1 #
coedge $-1 $449 $182 $446 $450 forward $113 $-1 #
coedge $-1 $182 $449 $451 $452 reversed $113 $-1 #
coedge $-1 $312 $311 $182 $305 forward $299 $-1 #
edge $-1 $453 5.0226986199596588 $454 22.257322447323563 $304 $455 forward 7 unknown #
coedge $-1 $184 $183 $456 $457 reversed $72 $-1 #
coedge $-1 $458 $459 $183 $308 forward $460 $-1 #
edge $-1 $461 -54.23871578112125 $313 54.23871578112125 $307 $462 forward 7 unknown #
coedge $-1 $301 $463 $184 $310 reversed $180 $-1 #
edge $-1 $464 -54.23871578112125 $314 54.23871578112125 $309 $465 forward 7 unknown #
coedge $-1 $304 $185 $463 $466 forward $299 $-1 #
coedge $-1 $185 $304 $458 $467 reversed $299 $-1 #
vertex $-1 $467 $468 #
vertex $-1 $186 $469 #
straight-curve $-1 54.23871578112125 13.640010533641611 8.1985653537697143 0 -1 0 I I #
face $-1 $-1 $470 $42 $-1 $471 forward single #
loop $-1 $-1 $193 $187 #
plane-surface $-1 -54.23871578112125 0 0 1 0 0 0 0 -1 forward_v I I I I #
coedge $-1 $472 $473 $474 $475 reversed $188 $-1 #
coedge $-1 $476 $190 $192 $326 forward $117 $-1 #
coedge $-1 $190 $476 $472 $477 forward $117 $-1 #
coedge $-1 $474 $193 $190 $323 forward $317 $-1 #
edge $-1 $329 -12.281248613634961 $478 -0.48167246629764904 $322 $479 forward 7 unknown #
coedge $-1 $480 $481 $191 $325 forward $470 $-1 #
edge $-1 $482 -19.595193100828148 $328 -11.896709536924227 $324 $483 forward 7 unknown #
edge $-1 $329 1.0047061284303404e-014 $482 11.0824024957308 $192 $484 forward 7 unknown #
coedge $-1 $193 $474 $480 $485 reversed $317 $-1 #
vertex $-1 $485 $486 #
vertex $-1 $194 $487 #
straight-curve $-1 -54.23871578112125 18.662709153601266 42.594713513199856 0 0 -1 I I #
coedge $-1 $331 $331 $-1 $488 reversed $197 $-1 #
edge $-1 $489 0 $489 6.2831853071796004 $198 $490 forward 7 unknown #
vertex $-1 $201 $491 #
ellipse-curve $-1 -50.38947399916929 12.762921079932603 13.820678756215477 -0.71933980857756763 0 0.69465836192734942 1.0419875428910241 0 1.0790097128663514 1 I I #
face $-1 $-1 $347 $44 $-1 $492 reversed single #
loop $-1 $-1 $493 $202 #
plane-surface $-1 0 0 17.806685401144748 0 0 1 1 0 0 forward_v I I I I #
coedge $-1 $494 $495 $496 $497 reversed $203 $-1 #
coedge $-1 $498 $205 $207 $345 forward $126 $-1 #
coedge $-1 $205 $498 $494 $499 forward $126 $-1 #
coedge $-1 $496 $208 $205 $342 forward $347 $-1 #
edge $-1 $349 -7.1530922333302485 $500 1.1788872883867114 $341 $501 forward 7 unknown #
coedge $-1 $502 $503 $206 $344 forward $336 $-1 #
edge $-1 $504 12.588531841035223 $348 31.133793255587374 $343 $505 forward 7 unknown #
edge $-1 $349 -108.47743156224249 $504 -83.522320580389604 $207 $506 forward 7 unknown #
coedge $-1 $208 $496 $502 $507 reversed $347 $-1 #
loop $-1 $-1 $496 $335 #
vertex $-1 $507 $508 #
vertex $-1 $209 $509 #
straight-curve $-1 54.23871578112125 -10.140194705802017 77.154234124137986 0 0 -1 I I #
coedge $-1 $351 $351 $-1 $510 reversed $212 $-1 #
edge $-1 $511 0 $511 6.2831853071796004 $213 $512 forward 7 unknown #
vertex $-1 $216 $513 #
ellipse-curve $-1 44.966085073845178 -8.4737988014586243 9.4575710292110706 0.66913061440640931 0 0.74314481823134659 0.3715724091156733 0 -0.33456530720320465 1 I I #
coedge $-1 $355 $355 $-1 $514 reversed $219 $-1 #
edge $-1 $515 0 $515 6.2831853071796004 $220 $516 forward 7 unknown #
vertex $-1 $223 $517 #
ellipse-curve $-1 44.966085073845178 -5.974204944943537 9.4575710292110706 0.66913061440640931 0 0.74314481823134659 0.3715724091156733 0 -0.33456530720320465 1 I I #
coedge $-1 $359 $359 $-1 $518 reversed $226 $-1 #
edge $-1 $519 0 $519 6.2831853071796004 $227 $520 forward 7 unknown #
vertex $-1 $230 $521 #
ellipse-curve $-1 44.966085073845178 -3.4746110884284462 9.4575710292110706 0.66913061440640931 0 0.74314481823134659 0.3715724091156733 0 -0.33456530720320465 1 I I #
face $-1 $-1 $376 $48 $-1 $522 reversed single #
loop $-1 $-1 $523 $231 #
plane-surface $-1 46.209845051067752 -1.8082151840850571 154.30846824827597 0 -1 0 -0.66913061440640931 0 -0.74314481823134659 forward_v I I I I #
coedge $-1 $524 $525 $236 $373 forward $232 $-1 #
coedge $-1 $371 $234 $524 $526 reversed $145 $-1 #
coedge $-1 $234 $371 $375 $527 reversed $145 $-1 #
coedge $-1 $523 $528 $234 $370 forward $364 $-1 #
edge $-1 $529 83.522320580389604 $530 108.47743156224249 $369 $531 forward 7 unknown #
coedge $-1 $368 $367 $235 $372 forward $145 $-1 #
edge $-1 $532 83.522320580389604 $377 108.47743156224249 $235 $533 forward 7 unknown #
edge $-1 $378 -31.133793255587374 $532 -12.588531841035223 $366 $534 forward 7 unknown #
coedge $-1 $535 $237 $525 $536 reversed $376 $-1 #
coedge $-1 $237 $535 $368 $527 forward $376 $-1 #
loop $-1 $-1 $237 $363 #
vertex $-1 $238 $537 #
vertex $-1 $373 $538 #
straight-curve $-1 54.23871578112125 6.5237643376318957 77.154234124137986 0 0 1 I I #
coedge $-1 $380 $380 $-1 $539 reversed $241 $-1 #
edge $-1 $540 0 $540 6.2831853071796004 $242 $541 forward 7 unknown #
vertex $-1 $245 $542 #
ellipse-curve $-1 44.966085073845178 -0.14181927974166797 9.4575710292110706 0.66913061440640931 0 0.74314481823134659 0.3715724091156733 0 -0.33456530720320465 1 I I #
coedge $-1 $384 $384 $-1 $543 reversed $248 $-1 #
edge $-1 $544 0 $544 6.2831853071796004 $249 $545 forward 7 unknown #
vertex $-1 $252 $546 #
ellipse-curve $-1 44.966085073845178 2.3577745767734157 9.4575710292110706 0.66913061440640931 0 0.74314481823134659 0.3715724091156733 0 -0.33456530720320465 1 I I #
coedge $-1 $388 $388 $-1 $547 reversed $255 $-1 #
edge $-1 $548 0 $548 6.2831853071796004 $256 $549 forward 7 unknown #
vertex $-1 $259 $550 #
ellipse-curve $-1 44.966085073845178 4.8573684332885065 9.4575710292110706 0.66913061440640931 0 0.74314481823134659 0.3715724091156733 0 -0.33456530720320465 1 I I #
face $-1 $-1 $275 $39 $-1 $551 reversed single #
loop $-1 $-1 $408 $260 #
plane-surface $-1 0 35.897332980965174 0 0 -1 0 0 0 -1 forward_v I I I I #
coedge $-1 $552 $406 $409 $553 forward $261 $-1 #
coedge $-1 $412 $263 $264 $400 reversed $164 $-1 #
coedge $-1 $406 $552 $263 $398 reversed $261 $-1 #
edge $-1 $413 -17.806685401144748 $554 17.806685401144748 $397 $555 forward 7 unknown #
coedge $-1 $265 $264 $552 $556 forward $105 $-1 #
edge $-1 $404 -54.23871578112125 $554 54.23871578112125 $396 $557 forward 7 unknown #
coedge $-1 $409 $408 $265 $402 reversed $393 $-1 #
edge $-1 $558 -54.23871578112125 $403 54.23871578112125 $401 $559 forward 7 unknown #
vertex $-1 $267 $560 #
vertex $-1 $415 $561 #
straight-curve $-1 54.23871578112125 0 -17.806685401144748 0 -1 0 I I #
coedge $-1 $395 $397 $268 $407 reversed $261 $-1 #
edge $-1 $410 -35.897332980965174 $413 35.897332980965174 $406 $562 forward 7 unknown #
coedge $-1 $401 $269 $274 $416 forward $393 $-1 #
coedge $-1 $269 $401 $395 $553 reversed $393 $-1 #
vertex $-1 $270 $563 #
straight-curve $-1 0 35.897332980965174 17.806685401144748 -1 0 0 I I #
coedge $-1 $271 $396 $273 $415 reversed $164 $-1 #
vertex $-1 $407 $564 #
straight-curve $-1 0 -35.897332980965174 17.806685401144748 1 0 0 I I #
edge $-1 $276 -17.806685401144748 $404 17.806685401144748 $273 $565 forward 7 unknown #
edge $-1 $277 -17.806685401144748 $403 17.806685401144748 $274 $566 forward 7 unknown #
point $-1 54.23871578112125 -35.897332980965174 17.806685401144748 #
point $-1 54.23871578112125 35.897332980965174 17.806685401144748 #
face $-1 $-1 $294 $40 $-1 $567 reversed single #
loop $-1 $-1 $290 $279 #
plane-surface $-1 0 -35.897332980965174 0 0 1 0 0 0 1 forward_v I I I I #
coedge $-1 $568 $569 $287 $432 forward $280 $-1 #
coedge $-1 $433 $282 $284 $428 reversed $172 $-1 #
edge $-1 $430 -4.5893065698428694 $295 2.2437175366335795 $293 $570 forward 7 unknown #
coedge $-1 $284 $283 $571 $572 reversed $109 $-1 #
coedge $-1 $437 $436 $283 $427 forward $420 $-1 #
edge $-1 $573 -54.23871578112125 $429 54.23871578112125 $426 $574 forward 7 unknown #
edge $-1 $575 -54.23871578112125 $430 54.23871578112125 $423 $576 forward 7 unknown #
vertex $-1 $427 $577 #
vertex $-1 $286 $578 #
straight-curve $-1 54.23871578112125 -14.54411812568414 -5.7621010864475144 0 1 0 I I #
edge $-1 $438 -21.353214855281035 $434 -7.7350213960872445 $422 $579 forward 7 unknown #
coedge $-1 $288 $423 $568 $580 reversed $172 $-1 #
vertex $-1 $432 $581 #
straight-curve $-1 0 -22.279139521771384 1.0709230200289346 -1 0 0 I I #
coedge $-1 $426 $290 $569 $582 forward $420 $-1 #
coedge $-1 $290 $426 $292 $440 reversed $420 $-1 #
vertex $-1 $582 $583 #
straight-curve $-1 0 -35.897332980965174 1.0709230200289346 -1 0 0 I I #
edge $-1 $296 -1.0709230200289346 $429 5.7621010864475144 $292 $584 forward 7 unknown #
point $-1 54.23871578112125 -22.279139521771384 1.0709230200289346 #
point $-1 54.23871578112125 -35.897332980965174 1.0709230200289346 #
face $-1 $-1 $460 $41 $-1 $585 reversed single #
loop $-1 $-1 $456 $298 #
plane-surface $-1 -54.23871578112125 0 0 1 0 0 0 0 -1 forward_v I I I I #
coedge $-1 $463 $301 $302 $450 reversed $180 $-1 #
coedge $-1 $456 $586 $301 $448 forward $444 $-1 #
edge $-1 $587 -3.3903992958739249 $464 6.5958433344711178 $447 $588 forward 7 unknown #
coedge $-1 $303 $302 $586 $589 reversed $113 $-1 #
edge $-1 $453 -54.23871578112125 $587 54.23871578112125 $446 $590 forward 7 unknown #
coedge $-1 $459 $458 $303 $452 forward $460 $-1 #
edge $-1 $454 -54.23871578112125 $591 54.23871578112125 $451 $592 forward 7 unknown #
vertex $-1 $305 $593 #
vertex $-1 $452 $594 #
straight-curve $-1 54.23871578112125 13.640010533641611 -1.7876772765753284 0 1 0 I I #
coedge $-1 $595 $447 $306 $457 forward $444 $-1 #
edge $-1 $464 5.0226986199596588 $461 22.257322447323563 $456 $596 forward 7 unknown #
coedge $-1 $451 $307 $312 $467 forward $460 $-1 #
coedge $-1 $307 $451 $595 $597 reversed $460 $-1 #
loop $-1 $-1 $307 $443 #
vertex $-1 $597 $598 #
straight-curve $-1 0 35.897332980965174 8.1985653537697143 1 0 0 I I #
coedge $-1 $309 $446 $311 $466 reversed $180 $-1 #
vertex $-1 $457 $599 #
straight-curve $-1 0 18.66270915360127 8.1985653537697143 1 0 0 I I #
edge $-1 $314 -6.5958433344711178 $453 3.3903992958739249 $311 $600 forward 7 unknown #
edge $-1 $313 -8.1985653537697143 $454 1.7876772765753284 $312 $601 forward 7 unknown #
point $-1 54.23871578112125 35.897332980965174 8.1985653537697143 #
point $-1 54.23871578112125 18.66270915360127 8.1985653537697143 #
loop $-1 $-1 $324 $316 #
plane-surface $-1 0 0 17.806685401144748 0 0 1 1 0 0 forward_v I I I I #
coedge $-1 $473 $319 $321 $477 reversed $188 $-1 #
coedge $-1 $319 $472 $602 $603 reversed $188 $-1 #
coedge $-1 $327 $322 $319 $475 forward $317 $-1 #
edge $-1 $478 -32.760041401913654 $604 -24.788028112055109 $474 $605 forward 7 unknown #
coedge $-1 $321 $320 $481 $606 reversed $117 $-1 #
edge $-1 $607 -11.0824024957308 $478 -1.0047061284303404e-014 $472 $608 forward 7 unknown #
vertex $-1 $323 $609 #
straight-curve $-1 -54.23871578112125 6.3814605399663051 9.8346721112862063 0 -1 0 I I #
coedge $-1 $602 $324 $327 $485 forward $470 $-1 #
coedge $-1 $324 $602 $476 $606 forward $470 $-1 #
vertex $-1 $325 $610 #
straight-curve $-1 -66.135425318045478 18.662709153601266 17.806685401144748 -1 0 0 I I #
straight-curve $-1 -54.238715781121257 18.662709153601266 9.8346721112861957 0.69465836192734942 0 0.71933980857756763 I I #
edge $-1 $328 -18.662709153601266 $604 -6.8631330062639542 $327 $611 forward 7 unknown #
point $-1 -54.23871578112125 18.662709153601266 17.806685401144748 #
point $-1 -54.23871578112125 18.662709153601266 9.8346721112862028 #
edge $-1 $612 1 $612 0 $331 $-1 forward 7 unknown #
vertex $-1 $332 $613 #
ellipse-curve $-1 -47.0429533814821 12.762921079932603 10.588981437759605 -0.71933980857756763 0 0.69465836192734942 1.0419875428910241 0 1.0790097128663514 1 I I #
point $-1 -49.347486456278254 12.762921079932603 14.899688469081818 #
plane-surface $-1 54.23871578112125 0 0 -1 0 0 0 0 1 forward_v I I I I #
coedge $-1 $503 $502 $495 $614 forward $336 $-1 #
coedge $-1 $495 $338 $340 $499 reversed $203 $-1 #
coedge $-1 $338 $494 $493 $614 reversed $203 $-1 #
coedge $-1 $346 $341 $338 $497 forward $347 $-1 #
edge $-1 $500 -76.045777466860599 $615 -59.347548722993238 $496 $616 forward 7 unknown #
coedge $-1 $340 $339 $503 $617 reversed $126 $-1 #
edge $-1 $618 83.522320580389604 $500 108.47743156224249 $494 $619 forward 7 unknown #
vertex $-1 $342 $620 #
straight-curve $-1 54.238715781121243 -2.9871024724717685 1.1084566572773937 0 1 0 I I #
coedge $-1 $493 $343 $346 $507 forward $336 $-1 #
coedge $-1 $343 $493 $498 $617 forward $336 $-1 #
vertex $-1 $344 $621 #
straight-curve $-1 23.104922525533876 -10.140194705802017 17.806685401144748 1 0 0 I I #
straight-curve $-1 -26.375725379404791 -10.140194705802017 73.69402708774993 -0.74314481823134659 0 0.66913061440640931 I I #
edge $-1 $348 -10.140194705802017 $615 -1.8082151840850571 $346 $622 forward 7 unknown #
point $-1 54.23871578112125 -10.140194705802017 17.806685401144748 #
point $-1 54.23871578112125 -10.140194705802017 1.1084566572773866 #
edge $-1 $623 1 $623 0 $351 $-1 forward 7 unknown #
vertex $-1 $352 $624 #
ellipse-curve $-1 43.975366614482802 -8.4737988014586243 8.3572667335326756 0.66913061440640931 0 0.74314481823134659 0.3715724091156733 0 -0.33456530720320465 1 I I #
point $-1 45.33765748296085 -8.4737988014586243 9.1230057220078606 #
edge $-1 $625 1 $625 0 $355 $-1 forward 7 unknown #
vertex $-1 $356 $626 #
ellipse-curve $-1 43.975366614482802 -5.974204944943537 8.3572667335326756 0.66913061440640931 0 0.74314481823134659 0.3715724091156733 0 -0.33456530720320465 1 I I #
point $-1 45.33765748296085 -5.974204944943537 9.1230057220078606 #
edge $-1 $627 1 $627 0 $359 $-1 forward 7 unknown #
vertex $-1 $360 $628 #
ellipse-curve $-1 43.975366614482802 -3.4746110884284462 8.3572667335326756 0.66913061440640931 0 0.74314481823134659 0.3715724091156733 0 -0.33456530720320465 1 I I #
point $-1 45.33765748296085 -3.4746110884284462 9.1230057220078606 #
plane-surface $-1 54.23871578112125 0 0 -1 0 0 0 0 1 forward_v I I I I #
coedge $-1 $528 $369 $535 $629 reversed $364 $-1 #
coedge $-1 $630 $366 $367 $526 forward $232 $-1 #
coedge $-1 $366 $630 $374 $536 forward $232 $-1 #
edge $-1 $532 -9.5108668101036642 $529 -1.1788872883867114 $524 $631 forward 7 unknown #
edge $-1 $530 1.1788872883867114 $377 9.5108668101036642 $375 $632 forward 7 unknown #
coedge $-1 $369 $523 $630 $633 reversed $364 $-1 #
vertex $-1 $526 $634 #
vertex $-1 $527 $635 #
straight-curve $-1 -26.375725379404791 -1.8082151840850571 73.69402708774993 0.74314481823134659 0 -0.66913061440640931 I I #
vertex $-1 $373 $636 #
straight-curve $-1 -26.375725379404791 6.5237643376318957 73.69402708774993 0.74314481823134659 0 -0.66913061440640931 I I #
straight-curve $-1 23.104922525533876 6.5237643376318957 17.806685401144748 -1 0 0 I I #
coedge $-1 $375 $374 $523 $629 forward $376 $-1 #
edge $-1 $637 -1.8082151840850571 $378 6.5237643376318957 $374 $638 forward 7 unknown #
point $-1 54.23871578112125 6.5237643376318957 1.1084566572773866 #
point $-1 54.23871578112125 6.5237643376318957 17.806685401144748 #
edge $-1 $639 1 $639 0 $380 $-1 forward 7 unknown #
vertex $-1 $381 $640 #
ellipse-curve $-1 43.975366614482802 -0.14181927974166797 8.3572667335326756 0.66913061440640931 0 0.74314481823134659 0.3715724091156733 0 -0.33456530720320465 1 I I #
point $-1 45.33765748296085 -0.14181927974166797 9.1230057220078606 #
edge $-1 $641 1 $641 0 $384 $-1 forward 7 unknown #
vertex $-1 $385 $642 #
ellipse-curve $-1 43.975366614482802 2.3577745767734157 8.3572667335326756 0.66913061440640931 0 0.74314481823134659 0.3715724091156733 0 -0.33456530720320465 1 I I #
point $-1 45.33765748296085 2.3577745767734157 9.1230057220078606 #
edge $-1 $643 1 $643 0 $388 $-1 forward 7 unknown #
vertex $-1 $389 $644 #
ellipse-curve $-1 43.975366614482802 4.8573684332885065 8.3572667335326756 0.66913061440640931 0 0.74314481823134659 0.3715724091156733 0 -0.33456530720320465 1 I I #
point $-1 45.33765748296085 4.8573684332885065 9.1230057220078606 #
plane-surface $-1 54.23871578112125 0 0 -1 0 0 0 0 1 forward_v I I I I #
coedge $-1 $397 $395 $399 $556 reversed $261 $-1 #
edge $-1 $410 -17.806685401144748 $558 17.806685401144748 $409 $645 forward 7 unknown #
vertex $-1 $556 $646 #
straight-curve $-1 -54.23871578112125 -35.897332980965174 0 0 0 -1 I I #
edge $-1 $554 -35.897332980965174 $558 35.897332980965174 $552 $647 forward 7 unknown #
straight-curve $-1 0 -35.897332980965174 -17.806685401144748 -1 0 0 I I #
vertex $-1 $402 $648 #
straight-curve $-1 0 35.897332980965174 -17.806685401144748 1 0 0 I I #
point $-1 54.23871578112125 35.897332980965174 -17.806685401144748 #
point $-1 54.23871578112125 -35.897332980965174 -17.806685401144748 #
straight-curve $-1 -54.23871578112125 0 17.806685401144748 0 -1 0 I I #
point $-1 -54.23871578112125 35.897332980965174 17.806685401144748 #
point $-1 -54.23871578112125 -35.897332980965174 17.806685401144748 #
straight-curve $-1 54.23871578112125 -35.897332980965174 0 0 0 -1 I I #
straight-curve $-1 54.23871578112125 35.897332980965174 0 0 0 -1 I I #
plane-surface $-1 54.23871578112125 0 0 -1 0 0 0 0 1 forward_v I I I I #
coedge $-1 $571 $422 $433 $580 forward $280 $-1 #
coedge $-1 $422 $571 $436 $582 reversed $280 $-1 #
straight-curve $-1 54.23871578112125 -22.279139521771384 -1.172794516604645 0 0 1 I I #
coedge $-1 $569 $568 $425 $572 forward $280 $-1 #
edge $-1 $575 7.7350213960872445 $573 21.353214855281035 $571 $649 forward 7 unknown #
vertex $-1 $427 $650 #
straight-curve $-1 0 -35.897332980965174 -5.7621010864475144 1 0 0 I I #
vertex $-1 $572 $651 #
straight-curve $-1 0 -22.279139521771384 -5.7621010864475144 1 0 0 I I #
point $-1 54.23871578112125 -35.897332980965174 -5.7621010864475144 #
point $-1 54.23871578112125 -22.279139521771384 -5.7621010864475144 #
straight-curve $-1 -54.23871578112125 -14.54411812568414 1.0709230200289346 0 1 0 I I #
edge $-1 $434 -2.2437175366335795 $575 4.5893065698428694 $568 $652 forward 7 unknown #
point $-1 -54.23871578112125 -22.279139521771384 1.0709230200289346 #
edge $-1 $438 -1.0709230200289346 $573 5.7621010864475144 $569 $653 forward 7 unknown #
point $-1 -54.23871578112125 -35.897332980965174 1.0709230200289346 #
straight-curve $-1 54.23871578112125 -35.897332980965174 0 0 0 -1 I I #
plane-surface $-1 0 35.897332980965174 0 0 -1 0 0 0 -1 forward_v I I I I #
coedge $-1 $447 $595 $449 $589 forward $444 $-1 #
vertex $-1 $589 $654 #
straight-curve $-1 -54.23871578112125 18.66270915360127 1.6027220192985965 0 0 1 I I #
edge $-1 $591 -22.257322447323563 $587 -5.0226986199596588 $586 $655 forward 7 unknown #
straight-curve $-1 0 18.66270915360127 -1.7876772765753284 -1 0 0 I I #
vertex $-1 $452 $656 #
straight-curve $-1 0 35.897332980965174 -1.7876772765753284 -1 0 0 I I #
point $-1 54.23871578112125 18.66270915360127 -1.7876772765753284 #
point $-1 54.23871578112125 35.897332980965174 -1.7876772765753284 #
coedge $-1 $586 $456 $459 $597 forward $444 $-1 #
straight-curve $-1 -54.23871578112125 13.640010533641611 8.1985653537697143 0 1 0 I I #
edge $-1 $461 -8.1985653537697143 $591 1.7876772765753284 $459 $657 forward 7 unknown #
point $-1 -54.23871578112125 35.897332980965174 8.1985653537697143 #
point $-1 -54.23871578112125 18.66270915360127 8.1985653537697143 #
straight-curve $-1 54.23871578112125 18.66270915360127 1.6027220192985965 0 0 -1 I I #
straight-curve $-1 54.23871578112125 35.897332980965174 0 0 0 -1 I I #
coedge $-1 $481 $480 $473 $603 forward $470 $-1 #
edge $-1 $604 11.896709536924227 $607 19.595193100828148 $602 $658 forward 7 unknown #
vertex $-1 $603 $659 #
straight-curve $-1 -54.23871578112125 6.8631330062639542 42.594713513199856 0 0 1 I I #
edge $-1 $607 0.48167246629764904 $482 12.281248613634961 $481 $660 forward 7 unknown #
vertex $-1 $606 $661 #
straight-curve $-1 -54.238715781121257 6.8631330062639542 9.8346721112861957 -0.69465836192734942 0 -0.71933980857756763 I I #
point $-1 -54.23871578112125 6.8631330062639542 9.8346721112862028 #
point $-1 -46.54023221721733 18.662709153601266 17.806685401144748 #
straight-curve $-1 -54.23871578112125 0 17.806685401144748 0 -1 0 I I #
vertex $-1 $488 $662 #
point $-1 -46.000965838591078 12.762921079932603 11.667991150625955 #
edge $-1 $615 -31.133793255587374 $618 -12.588531841035223 $493 $663 forward 7 unknown #
vertex $-1 $497 $664 #
straight-curve $-1 54.23871578112125 -1.8082151840850571 77.154234124137986 0 0 1 I I #
edge $-1 $618 -1.1788872883867114 $504 7.1530922333302485 $503 $665 forward 7 unknown #
vertex $-1 $617 $666 #
straight-curve $-1 -26.375725379404791 -1.8082151840850571 73.69402708774993 0.74314481823134659 0 -0.66913061440640931 I I #
point $-1 54.23871578112125 -1.8082151840850571 1.1084566572773866 #
point $-1 35.6934543665691 -10.140194705802017 17.806685401144748 #
straight-curve $-1 54.23871578112125 0 17.806685401144748 0 1 0 I I #
vertex $-1 $510 $667 #
point $-1 44.346939023598473 -8.4737988014586243 8.0227014263294709 #
vertex $-1 $514 $668 #
point $-1 44.346939023598473 -5.974204944943537 8.0227014263294709 #
vertex $-1 $518 $669 #
point $-1 44.346939023598473 -3.4746110884284462 8.0227014263294709 #
edge $-1 $637 59.347548722993238 $530 76.045777466860599 $535 $670 forward 7 unknown #
coedge $-1 $525 $524 $528 $633 forward $232 $-1 #
straight-curve $-1 35.693454366569121 -2.9871024724717685 17.80668540114474 0 -1 0 I I #
straight-curve $-1 54.238715781121243 -2.9871024724717685 1.1084566572773937 0 1 0 I I #
edge $-1 $529 12.588531841035223 $637 31.133793255587374 $630 $671 forward 7 unknown #
point $-1 35.6934543665691 -1.8082151840850571 17.806685401144748 #
point $-1 54.23871578112125 -1.8082151840850571 1.1084566572773866 #
point $-1 35.6934543665691 6.5237643376318957 17.806685401144748 #
vertex $-1 $536 $672 #
straight-curve $-1 54.23871578112125 0 17.806685401144748 0 1 0 I I #
vertex $-1 $539 $673 #
point $-1 44.346939023598473 -0.14181927974166797 8.0227014263294709 #
vertex $-1 $543 $674 #
point $-1 44.346939023598473 2.3577745767734157 8.0227014263294709 #
vertex $-1 $547 $675 #
point $-1 44.346939023598473 4.8573684332885065 8.0227014263294709 #
straight-curve $-1 -54.23871578112125 35.897332980965174 0 0 0 -1 I I #
point $-1 -54.23871578112125 -35.897332980965174 -17.806685401144748 #
straight-curve $-1 -54.23871578112125 0 -17.806685401144748 0 1 0 I I #
point $-1 -54.23871578112125 35.897332980965174 -17.806685401144748 #
straight-curve $-1 -54.23871578112125 -14.54411812568414 -5.7621010864475144 0 -1 0 I I #
point $-1 -54.23871578112125 -35.897332980965174 -5.7621010864475144 #
point $-1 -54.23871578112125 -22.279139521771384 -5.7621010864475144 #
straight-curve $-1 -54.23871578112125 -22.279139521771384 -1.172794516604645 0 0 -1 I I #
straight-curve $-1 -54.23871578112125 -35.897332980965174 0 0 0 -1 I I #
point $-1 -54.23871578112125 18.66270915360127 -1.7876772765753284 #
straight-curve $-1 -54.23871578112125 13.640010533641611 -1.7876772765753284 0 -1 0 I I #
point $-1 -54.23871578112125 35.897332980965174 -1.7876772765753284 #
straight-curve $-1 -54.23871578112125 35.897332980965174 0 0 0 -1 I I #
straight-curve $-1 -66.135425318045478 6.8631330062639542 17.806685401144748 1 0 0 I I #
point $-1 -54.23871578112125 6.8631330062639542 17.806685401144748 #
straight-curve $-1 -46.540232217217323 6.3814605399663051 17.806685401144748 0 1 0 I I #
point $-1 -46.54023221721733 6.8631330062639542 17.806685401144748 #
point $-1 -45.963943668615748 12.762921079932603 9.5469938948685797 #
straight-curve $-1 23.104922525533876 -1.8082151840850571 17.806685401144748 -1 0 0 I I #
point $-1 54.23871578112125 -1.8082151840850571 17.806685401144748 #
straight-curve $-1 35.693454366569121 -2.9871024724717685 17.80668540114474 0 -1 0 I I #
point $-1 35.6934543665691 -1.8082151840850571 17.806685401144748 #
point $-1 43.640801307279595 -8.4737988014586243 7.9856943244170031 #
point $-1 43.640801307279595 -5.974204944943537 7.9856943244170031 #
point $-1 43.640801307279595 -3.4746110884284462 7.9856943244170031 #
straight-curve $-1 54.23871578112125 -1.8082151840850571 77.154234124137986 0 0 -1 I I #
straight-curve $-1 23.104922525533876 -1.8082151840850571 17.806685401144748 1 0 0 I I #
point $-1 54.23871578112125 -1.8082151840850571 17.806685401144748 #
point $-1 43.640801307279595 -0.14181927974166797 7.9856943244170031 #
point $-1 43.640801307279595 2.3577745767734157 7.9856943244170031 #
point $-1 43.640801307279595 4.8573684332885065 7.9856943244170031 #
End-of-ACIS-data 