500 0 8 0           
7 Unknown 11 ACIS 5.0 NT 24 Fri Mar 26 03:24:44 1999 
-1 9.9999999999999995e-007 1e-010 
body $-1 $8 $-1 $9 #
body $-1 $10 $-1 $11 #
body $-1 $12 $-1 $13 #
body $-1 $14 $-1 $15 #
body $-1 $16 $-1 $17 #
body $-1 $18 $-1 $19 #
body $-1 $20 $-1 $21 #
body $-1 $22 $-1 $23 #
lump $-1 $-1 $24 $0 #
transform $-1 1 0 0 0 1 0 0 0 1 62.522659993285927 28.805416556982379 6.6118747217742202 1 rotate no_reflect no_shear #
lump $-1 $-1 $25 $1 #
transform $-1 1 0 0 0 1 0 0 0 1 62.522659993285927 28.805416556982379 6.6118747217742202 1 rotate no_reflect no_shear #
lump $-1 $-1 $26 $2 #
transform $-1 1 0 0 0 1 0 0 0 1 62.522659993285927 28.805416556982379 6.6118747217742202 1 rotate no_reflect no_shear #
lump $-1 $-1 $27 $3 #
transform $-1 1 0 0 0 1 0 0 0 1 62.522659993285927 28.805416556982379 6.6118747217742202 1 rotate no_reflect no_shear #
lump $-1 $-1 $28 $4 #
transform $-1 1 0 0 0 1 0 0 0 1 62.522659993285927 28.805416556982379 6.6118747217742202 1 rotate no_reflect no_shear #
lump $-1 $-1 $29 $5 #
transform $-1 1 0 0 0 1 0 0 0 1 62.522659993285927 28.805416556982379 6.6118747217742202 1 rotate no_reflect no_shear #
lump $-1 $-1 $30 $6 #
transform $-1 1 0 0 0 1 0 0 0 1 62.522659993285927 28.805416556982379 6.6118747217742202 1 rotate no_reflect no_shear #
lump $-1 $-1 $31 $7 #
transform $-1 1 0 0 0 1 0 0 0 1 62.522659993285927 28.805416556982379 6.6118747217742202 1 rotate no_reflect no_shear #
shell $-1 $-1 $-1 $32 $-1 $8 #
shell $-1 $-1 $-1 $33 $-1 $10 #
shell $-1 $-1 $-1 $34 $-1 $12 #
shell $-1 $-1 $-1 $35 $-1 $14 #
shell $-1 $-1 $-1 $36 $-1 $16 #
shell $-1 $-1 $-1 $37 $-1 $18 #
shell $-1 $-1 $-1 $38 $-1 $20 #
shell $-1 $-1 $-1 $39 $-1 $22 #
face $-1 $40 $41 $24 $-1 $42 forward single #
face $-1 $43 $44 $25 $-1 $45 reversed single #
face $-1 $46 $47 $26 $-1 $48 reversed single #
face $-1 $49 $50 $27 $-1 $51 forward single #
face $-1 $52 $53 $28 $-1 $54 forward single #
face $-1 $55 $56 $29 $-1 $57 forward single #
face $-1 $58 $59 $30 $-1 $60 reversed single #
face $-1 $61 $62 $31 $-1 $63 forward single #
face $-1 $64 $65 $24 $-1 $66 reversed single #
loop $-1 $-1 $67 $32 #
plane-surface $-1 0 0 6.6118747217742202 0 0 1 1 0 0 forward_v I I I I #
face $-1 $68 $69 $25 $-1 $70 reversed single #
loop $-1 $-1 $71 $33 #
plane-surface $-1 -58.588987004802092 -26.075695206115007 0 0 1 0 0 0 1 forward_v I I I I #
face $-1 $72 $73 $26 $-1 $74 reversed single #
loop $-1 $-1 $75 $34 #
plane-surface $-1 28.770382638177225 48.593469999395523 138.26183028748889 1 0 0 0 -0.54463904215088732 -0.83867056331134215 forward_v I I I I #
face $-1 $76 $77 $27 $-1 $78 forward single #
loop $-1 $79 $80 $35 #
cone-surface $-1 35.520838109198962 24.757336707360853 3.5314040575282641 0 -0.54463904215088732 -0.83867056331134215 1.5 0 0 1 I I 0 1 1.5 forward I I I I #
face $-1 $81 $82 $28 $-1 $83 forward single #
loop $-1 $84 $85 $36 #
cone-surface $-1 45.646521315731576 24.757336707360853 3.5314040575282641 0 -0.54463904215088732 -0.83867056331134215 1.5 0 0 1 I I 0 1 1.5 forward I I I I #
face $-1 $86 $87 $29 $-1 $88 forward single #
loop $-1 $89 $90 $37 #
cone-surface $-1 55.77220452226419 24.757336707360853 3.5314040575282641 0 -0.54463904215088732 -0.83867056331134215 1.5 0 0 1 I I 0 1 1.5 forward I I I I #
face $-1 $91 $92 $30 $-1 $93 reversed single #
loop $-1 $-1 $94 $38 #
plane-surface $-1 22.983085087744701 -98.729873014487964 105.29920876047096 -1 0 0 0 -0.55919291073839883 0.82903756765294845 forward_v I I I I #
face $-1 $95 $96 $31 $-1 $97 forward single #
loop $-1 $98 $99 $39 #
cone-surface $-1 11.586957621845897 -24.365325992040383 3.0121177643170407 0 0.55919291073839883 -0.82903756765294845 1 0 0 1 I I 0 1 1 forward I I I I #
face $-1 $100 $101 $24 $-1 $102 reversed single #
loop $-1 $-1 $103 $40 #
plane-surface $-1 0 0 -6.6118747217742202 0 0 1 1 0 0 forward_v I I I I #
coedge $-1 $104 $105 $106 $107 forward $41 $-1 #
face $-1 $108 $109 $25 $-1 $110 reversed single #
loop $-1 $-1 $111 $43 #
plane-surface $-1 -58.588987004802092 -22.782530807961386 0 0 -1 0 0 0 -1 forward_v I I I I #
coedge $-1 $112 $113 $114 $115 reversed $44 $-1 #
face $-1 $116 $117 $26 $-1 $118 forward single #
loop $-1 $-1 $119 $46 #
plane-surface $-1 45.646521315731576 -19.511093303542182 33.390001334903644 0 0.54463904215088732 0.83867056331134215 1 0 0 forward_v I I I I #
coedge $-1 $120 $121 $122 $123 reversed $47 $-1 #
face $-1 $-1 $124 $27 $-1 $125 forward single #
loop $-1 $126 $127 $49 #
cone-surface $-1 35.520838109198962 23.841683406363856 2.1214216465862785 0 -0.54463904215088732 -0.83867056331134215 0.75 0 0 1 I I -0.70710678118654757 0.70710678118654757 0.75 forward I I I I #
loop $-1 $-1 $128 $35 #
coedge $-1 $80 $80 $129 $130 reversed $50 $-1 #
face $-1 $-1 $131 $28 $-1 $132 forward single #
loop $-1 $133 $134 $52 #
cone-surface $-1 45.646521315731576 23.841683406363856 2.1214216465862785 0 -0.54463904215088732 -0.83867056331134215 0.75 0 0 1 I I -0.70710678118654757 0.70710678118654757 0.75 forward I I I I #
loop $-1 $-1 $135 $36 #
coedge $-1 $85 $85 $136 $137 reversed $53 $-1 #
face $-1 $-1 $138 $29 $-1 $139 forward single #
loop $-1 $140 $141 $55 #
cone-surface $-1 55.77220452226419 23.841683406363856 2.1214216465862785 0 -0.54463904215088732 -0.83867056331134215 0.75 0 0 1 I I -0.70710678118654757 0.70710678118654757 0.75 forward I I I I #
loop $-1 $-1 $142 $37 #
coedge $-1 $90 $90 $143 $144 reversed $56 $-1 #
face $-1 $145 $146 $30 $-1 $147 reversed single #
loop $-1 $-1 $148 $58 #
plane-surface $-1 11.586957621845897 -28.805416556982379 1.6319408324188203 0 -0.55919291073839883 0.82903756765294845 1 0 0 forward_v I I I I #
coedge $-1 $149 $150 $151 $152 reversed $59 $-1 #
face $-1 $-1 $153 $31 $-1 $154 forward single #
loop $-1 $155 $156 $61 #
cone-surface $-1 11.586957621845897 -23.337166706989681 1.4878089677110902 0 0.55919291073839883 -0.82903756765294845 0.5 0 0 1 I I -0.70710678118654746 0.70710678118654746 0.5 forward I I I I #
loop $-1 $-1 $157 $39 #
coedge $-1 $99 $99 $158 $159 reversed $62 $-1 #
face $-1 $160 $161 $24 $-1 $162 reversed single #
loop $-1 $-1 $163 $64 #
plane-surface $-1 0 -28.805416556982379 0 0 1 0 0 0 1 forward_v I I I I #
coedge $-1 $164 $165 $166 $167 forward $65 $-1 #
coedge $-1 $168 $67 $169 $170 forward $41 $-1 #
coedge $-1 $67 $168 $171 $172 forward $41 $-1 #
coedge $-1 $173 $174 $67 $107 reversed $175 $-1 #
edge $-1 $176 -28.805416556982379 $177 28.805416556982379 $106 $178 forward 7 unknown #
face $-1 $179 $180 $25 $-1 $181 reversed single #
loop $-1 $-1 $182 $68 #
plane-surface $-1 -54.655314016318258 -24.429113007038197 0 -1 0 0 0 0 1 forward_v I I I I #
coedge $-1 $183 $184 $185 $186 forward $69 $-1 #
coedge $-1 $187 $71 $188 $189 reversed $44 $-1 #
coedge $-1 $71 $187 $190 $191 reversed $44 $-1 #
coedge $-1 $192 $193 $71 $115 forward $194 $-1 #
edge $-1 $195 -6.6118747217742202 $196 6.6118747217742202 $114 $197 forward 7 unknown #
face $-1 $198 $199 $26 $-1 $200 reversed single #
loop $-1 $-1 $122 $72 #
plane-surface $-1 0 0 6.6118747217742202 0 0 1 1 0 0 forward_v I I I I #
coedge $-1 $201 $202 $203 $204 reversed $73 $-1 #
coedge $-1 $121 $75 $205 $206 reversed $47 $-1 #
coedge $-1 $75 $120 $201 $207 reversed $47 $-1 #
coedge $-1 $203 $208 $75 $123 forward $117 $-1 #
edge $-1 $209 -4.5086815572846177 $210 2.5731301031907776 $122 $211 forward 7 unknown #
loop $-1 $-1 $129 $76 #
plane-surface $-1 45.646521315731576 -19.511093303542182 33.390001334903644 0 0.54463904215088732 0.83867056331134215 1 0 0 forward_v I I I I #
loop $-1 $-1 $212 $49 #
coedge $-1 $127 $127 $128 $213 reversed $77 $-1 #
coedge $-1 $128 $128 $127 $213 forward $79 $-1 #
coedge $-1 $129 $129 $80 $130 forward $124 $-1 #
edge $-1 $214 3.7391544230713446e-016 $214 6.2831853071796004 $129 $215 forward 7 unknown #
loop $-1 $-1 $136 $81 #
plane-surface $-1 45.646521315731576 -19.511093303542182 33.390001334903644 0 0.54463904215088732 0.83867056331134215 1 0 0 forward_v I I I I #
loop $-1 $-1 $216 $52 #
coedge $-1 $134 $134 $135 $217 reversed $82 $-1 #
coedge $-1 $135 $135 $134 $217 forward $84 $-1 #
coedge $-1 $136 $136 $85 $137 forward $131 $-1 #
edge $-1 $218 3.7391544230713446e-016 $218 6.2831853071796004 $136 $219 forward 7 unknown #
loop $-1 $-1 $143 $86 #
plane-surface $-1 45.646521315731576 -19.511093303542182 33.390001334903644 0 0.54463904215088732 0.83867056331134215 1 0 0 forward_v I I I I #
loop $-1 $-1 $220 $55 #
coedge $-1 $141 $141 $142 $221 reversed $87 $-1 #
coedge $-1 $142 $142 $141 $221 forward $89 $-1 #
coedge $-1 $143 $143 $90 $144 forward $138 $-1 #
edge $-1 $222 3.7391544230713446e-016 $222 6.2831853071796004 $143 $223 forward 7 unknown #
face $-1 $224 $225 $30 $-1 $226 reversed single #
loop $-1 $-1 $227 $91 #
plane-surface $-1 0.19083015594709352 -98.729873014487964 105.29920876047096 1 0 0 0 0.55919291073839883 -0.82903756765294845 forward_v I I I I #
coedge $-1 $228 $229 $230 $231 reversed $92 $-1 #
coedge $-1 $150 $94 $232 $233 reversed $59 $-1 #
coedge $-1 $94 $149 $228 $234 reversed $59 $-1 #
coedge $-1 $230 $235 $94 $152 forward $236 $-1 #
edge $-1 $237 20.559519950261603 $238 27.942575420782589 $151 $239 forward 7 unknown #
loop $-1 $-1 $158 $95 #
plane-surface $-1 11.586957621845897 -28.805416556982379 1.6319408324188203 0 -0.55919291073839883 0.82903756765294845 1 0 0 forward_v I I I I #
loop $-1 $-1 $240 $61 #
coedge $-1 $156 $156 $157 $241 reversed $96 $-1 #
coedge $-1 $157 $157 $156 $241 forward $98 $-1 #
coedge $-1 $158 $158 $99 $159 forward $153 $-1 #
edge $-1 $242 9.5868080377154861e-016 $242 6.2831853071796013 $158 $243 forward 7 unknown #
face $-1 $244 $245 $24 $-1 $246 reversed single #
loop $-1 $-1 $247 $100 #
plane-surface $-1 -62.522659993285927 0 0 1 0 0 0 0 -1 forward_v I I I I #
coedge $-1 $248 $171 $249 $250 forward $101 $-1 #
coedge $-1 $251 $103 $248 $252 forward $65 $-1 #
coedge $-1 $103 $251 $253 $254 forward $65 $-1 #
coedge $-1 $174 $173 $103 $167 reversed $175 $-1 #
edge $-1 $255 -28.805416556982379 $256 28.805416556982379 $166 $257 forward 7 unknown #
coedge $-1 $105 $104 $258 $259 forward $41 $-1 #
coedge $-1 $260 $261 $104 $170 reversed $245 $-1 #
edge $-1 $177 -62.522659993285927 $262 62.522659993285927 $169 $263 forward 7 unknown #
coedge $-1 $163 $264 $105 $172 reversed $101 $-1 #
edge $-1 $265 -62.522659993285927 $176 62.522659993285927 $171 $266 forward 7 unknown #
coedge $-1 $166 $106 $264 $267 forward $175 $-1 #
coedge $-1 $106 $166 $260 $268 reversed $175 $-1 #
loop $-1 $-1 $173 $244 #
vertex $-1 $107 $269 #
vertex $-1 $107 $270 #
straight-curve $-1 62.522659993285927 0 6.6118747217742202 0 1 0 I I #
face $-1 $271 $272 $25 $-1 $273 forward single #
loop $-1 $-1 $274 $108 #
plane-surface $-1 0 0 -6.6118747217742202 0 0 1 1 0 0 forward_v I I I I #
coedge $-1 $275 $276 $187 $277 forward $109 $-1 #
coedge $-1 $278 $111 $274 $279 reversed $69 $-1 #
coedge $-1 $111 $278 $280 $281 reversed $69 $-1 #
coedge $-1 $276 $275 $111 $186 reversed $109 $-1 #
edge $-1 $282 -6.6118747217742202 $283 6.6118747217742202 $185 $284 forward 7 unknown #
coedge $-1 $113 $112 $182 $277 reversed $44 $-1 #
coedge $-1 $285 $286 $112 $189 forward $180 $-1 #
edge $-1 $287 25.360820513917211 $195 33.228166490884881 $188 $288 forward 7 unknown #
coedge $-1 $289 $290 $113 $191 forward $272 $-1 #
edge $-1 $196 -33.228166490884881 $291 -25.360820513917211 $190 $292 forward 7 unknown #
coedge $-1 $293 $114 $290 $294 reversed $194 $-1 #
coedge $-1 $114 $293 $285 $295 reversed $194 $-1 #
loop $-1 $-1 $293 $271 #
vertex $-1 $295 $296 #
vertex $-1 $115 $297 #
straight-curve $-1 -62.522659993285927 -26.075695206115007 0 0 0 1 I I #
face $-1 $-1 $298 $26 $-1 $299 reversed single #
loop $-1 $-1 $300 $116 #
plane-surface $-1 62.522659993285927 0 0 -1 0 0 0 0 1 forward_v I I I I #
coedge $-1 $301 $119 $121 $207 forward $73 $-1 #
coedge $-1 $119 $301 $300 $302 reversed $73 $-1 #
coedge $-1 $303 $122 $119 $204 forward $117 $-1 #
edge $-1 $210 5.9471219803114366 $304 39.699399335420139 $203 $305 forward 7 unknown #
coedge $-1 $306 $307 $120 $206 forward $298 $-1 #
edge $-1 $308 -67.118022773545192 $209 -62.519040421970224 $205 $309 forward 7 unknown #
edge $-1 $210 49.166740796578409 $308 57.610833113964773 $121 $310 forward 7 unknown #
coedge $-1 $122 $303 $306 $311 forward $117 $-1 #
vertex $-1 $206 $312 #
vertex $-1 $123 $313 #
straight-curve $-1 28.770382638177225 24.296734999697762 6.611874721774214 0 -1 0 I I #
coedge $-1 $212 $212 $-1 $314 reversed $126 $-1 #
edge $-1 $315 0 $315 6.2831853071796004 $127 $316 forward 7 unknown #
vertex $-1 $130 $317 #
ellipse-curve $-1 35.520838109198962 25.264510726744682 4.312383545986739 0 0.54463904215088732 0.83867056331134215 1.5 0 0 1 I I #
coedge $-1 $216 $216 $-1 $318 reversed $133 $-1 #
edge $-1 $319 0 $319 6.2831853071796004 $134 $320 forward 7 unknown #
vertex $-1 $137 $321 #
ellipse-curve $-1 45.646521315731576 25.264510726744682 4.312383545986739 0 0.54463904215088732 0.83867056331134215 1.5 0 0 1 I I #
coedge $-1 $220 $220 $-1 $322 reversed $140 $-1 #
edge $-1 $323 0 $323 6.2831853071796004 $141 $324 forward 7 unknown #
vertex $-1 $144 $325 #
ellipse-curve $-1 55.77220452226419 25.264510726744682 4.312383545986739 0 0.54463904215088732 0.83867056331134215 1.5 0 0 1 I I #
face $-1 $-1 $236 $30 $-1 $326 forward single #
loop $-1 $-1 $327 $145 #
plane-surface $-1 0 -28.805416556982379 0 0 1 0 0 0 1 forward_v I I I I #
coedge $-1 $328 $329 $330 $331 reversed $146 $-1 #
coedge $-1 $332 $148 $150 $234 forward $92 $-1 #
coedge $-1 $148 $332 $328 $333 forward $92 $-1 #
coedge $-1 $330 $151 $148 $231 forward $236 $-1 #
edge $-1 $238 -17.189606276821753 $334 5.6026486549758552 $230 $335 forward 7 unknown #
coedge $-1 $336 $337 $149 $233 forward $225 $-1 #
edge $-1 $338 -51.01766354781666 $237 -46.037729658461259 $232 $339 forward 7 unknown #
edge $-1 $238 -8.9055740760009563 $338 0 $150 $340 forward 7 unknown #
coedge $-1 $151 $330 $336 $341 forward $236 $-1 #
loop $-1 $-1 $330 $224 #
vertex $-1 $233 $342 #
vertex $-1 $152 $343 #
straight-curve $-1 22.983085087744701 -49.364936507243982 6.6118747217742211 0 1 0 I I #
coedge $-1 $240 $240 $-1 $344 reversed $155 $-1 #
edge $-1 $345 0 $345 6.2831853071796004 $156 $346 forward 7 unknown #
vertex $-1 $159 $347 #
ellipse-curve $-1 11.586957621845897 -25.113888821721886 4.1219077770965207 0 -0.55919291073839883 0.82903756765294845 1 0 0 1 I I #
face $-1 $-1 $175 $24 $-1 $348 reversed single #
loop $-1 $-1 $260 $160 #
plane-surface $-1 0 28.805416556982379 0 0 -1 0 0 0 -1 forward_v I I I I #
coedge $-1 $349 $258 $261 $350 forward $161 $-1 #
coedge $-1 $264 $163 $164 $252 reversed $101 $-1 #
coedge $-1 $258 $349 $163 $250 reversed $161 $-1 #
edge $-1 $265 -6.6118747217742202 $351 6.6118747217742202 $249 $352 forward 7 unknown #
coedge $-1 $165 $164 $349 $353 forward $65 $-1 #
edge $-1 $256 -62.522659993285927 $351 62.522659993285927 $248 $354 forward 7 unknown #
coedge $-1 $261 $260 $165 $254 reversed $245 $-1 #
edge $-1 $355 -62.522659993285927 $255 62.522659993285927 $253 $356 forward 7 unknown #
vertex $-1 $167 $357 #
vertex $-1 $267 $358 #
straight-curve $-1 62.522659993285927 0 -6.6118747217742202 0 -1 0 I I #
coedge $-1 $247 $249 $168 $259 reversed $161 $-1 #
edge $-1 $262 -28.805416556982379 $265 28.805416556982379 $258 $359 forward 7 unknown #
coedge $-1 $253 $169 $174 $268 forward $245 $-1 #
coedge $-1 $169 $253 $247 $350 reversed $245 $-1 #
vertex $-1 $170 $360 #
straight-curve $-1 0 28.805416556982379 6.6118747217742202 -1 0 0 I I #
coedge $-1 $171 $248 $173 $267 reversed $101 $-1 #
vertex $-1 $259 $361 #
straight-curve $-1 0 -28.805416556982379 6.6118747217742202 1 0 0 I I #
edge $-1 $176 -6.6118747217742202 $256 6.6118747217742202 $173 $362 forward 7 unknown #
edge $-1 $177 -6.6118747217742202 $255 6.6118747217742202 $174 $363 forward 7 unknown #
point $-1 62.522659993285927 -28.805416556982379 6.6118747217742202 #
point $-1 62.522659993285927 28.805416556982379 6.6118747217742202 #
face $-1 $-1 $194 $25 $-1 $364 reversed single #
loop $-1 $-1 $280 $179 #
plane-surface $-1 0 0 6.6118747217742202 0 0 1 1 0 0 forward_v I I I I #
coedge $-1 $286 $285 $183 $279 forward $180 $-1 #
coedge $-1 $185 $182 $286 $365 reversed $109 $-1 #
coedge $-1 $182 $185 $289 $366 reversed $109 $-1 #
edge $-1 $291 -6.6118747217742202 $287 6.6118747217742202 $182 $367 forward 7 unknown #
coedge $-1 $184 $183 $293 $368 reversed $69 $-1 #
edge $-1 $369 -33.228166490884881 $283 -25.360820513917211 $274 $370 forward 7 unknown #
coedge $-1 $290 $289 $184 $281 forward $272 $-1 #
edge $-1 $282 25.360820513917211 $371 33.228166490884881 $280 $372 forward 7 unknown #
vertex $-1 $281 $373 #
vertex $-1 $279 $374 #
straight-curve $-1 -54.655314016318258 -22.782530807961386 0 0 0 -1 I I #
coedge $-1 $274 $188 $193 $295 forward $180 $-1 #
coedge $-1 $188 $274 $275 $365 forward $180 $-1 #
vertex $-1 $189 $375 #
straight-curve $-1 -29.294493502401046 -26.075695206115007 -6.6118747217742202 -1 0 0 I I #
coedge $-1 $280 $190 $276 $366 forward $272 $-1 #
coedge $-1 $190 $280 $192 $294 forward $272 $-1 #
vertex $-1 $191 $376 #
straight-curve $-1 -29.294493502401046 -26.075695206115007 6.6118747217742202 1 0 0 I I #
coedge $-1 $193 $192 $278 $368 forward $194 $-1 #
edge $-1 $371 22.782530807961386 $196 26.075695206115007 $192 $377 forward 7 unknown #
edge $-1 $195 -26.075695206115007 $369 -22.782530807961386 $193 $378 forward 7 unknown #
point $-1 -62.522659993285927 -26.075695206115007 -6.6118747217742202 #
point $-1 -62.522659993285927 -26.075695206115007 6.6118747217742202 #
loop $-1 $-1 $205 $198 #
plane-surface $-1 0 28.805416556982379 0 0 -1 0 0 0 -1 forward_v I I I I #
coedge $-1 $379 $380 $202 $302 forward $199 $-1 #
coedge $-1 $202 $201 $307 $381 reversed $73 $-1 #
edge $-1 $304 31.89230181849809 $382 40.336394135884447 $300 $383 forward 7 unknown #
coedge $-1 $208 $203 $380 $384 forward $117 $-1 #
vertex $-1 $384 $385 #
straight-curve $-1 22.823260657865788 21.723604896506995 6.6118747217742211 1 0 0 I I #
coedge $-1 $386 $205 $208 $311 reversed $298 $-1 #
coedge $-1 $205 $386 $301 $381 forward $298 $-1 #
vertex $-1 $206 $387 #
straight-curve $-1 28.770382638177225 28.805416556982379 69.130915143744446 0 0 1 I I #
straight-curve $-1 28.770382638177225 -19.511093303542182 33.390001334903644 0 0.83867056331134215 -0.54463904215088732 I I #
edge $-1 $388 -62.522659993285927 $209 -28.770382638177225 $306 $389 forward 7 unknown #
point $-1 28.770382638177225 28.805416556982379 6.6118747217742202 #
point $-1 28.770382638177225 21.723604896506984 6.6118747217742211 #
edge $-1 $390 1 $390 0 $212 $-1 forward 7 unknown #
vertex $-1 $213 $391 #
ellipse-curve $-1 35.520838109198962 24.250162687977021 2.7504245690697853 0 0.54463904215088732 0.83867056331134215 1.5 0 0 1 I I #
point $-1 37.020838109198962 25.264510726744685 4.3123835459867434 #
edge $-1 $392 1 $392 0 $216 $-1 forward 7 unknown #
vertex $-1 $217 $393 #
ellipse-curve $-1 45.646521315731576 24.250162687977021 2.7504245690697853 0 0.54463904215088732 0.83867056331134215 1.5 0 0 1 I I #
point $-1 47.146521315731576 25.264510726744685 4.3123835459867434 #
edge $-1 $394 1 $394 0 $220 $-1 forward 7 unknown #
vertex $-1 $221 $395 #
ellipse-curve $-1 55.77220452226419 24.250162687977021 2.7504245690697853 0 0.54463904215088732 0.83867056331134215 1.5 0 0 1 I I #
point $-1 57.27220452226419 25.264510726744685 4.3123835459867434 #
plane-surface $-1 0 0 6.6118747217742202 0 0 1 1 0 0 forward_v I I I I #
coedge $-1 $337 $336 $329 $396 forward $225 $-1 #
coedge $-1 $329 $227 $229 $333 reversed $146 $-1 #
coedge $-1 $227 $328 $327 $396 reversed $146 $-1 #
coedge $-1 $235 $230 $227 $331 forward $236 $-1 #
edge $-1 $334 -27.942575420782589 $397 -20.559519950261603 $330 $398 forward 7 unknown #
coedge $-1 $229 $228 $337 $399 reversed $92 $-1 #
edge $-1 $400 0 $334 8.9055740760009563 $328 $401 forward 7 unknown #
vertex $-1 $231 $402 #
straight-curve $-1 5.7934788109229487 -21.422361086461397 6.6118747217742193 -1 0 0 I I #
coedge $-1 $327 $232 $235 $341 reversed $225 $-1 #
coedge $-1 $232 $327 $332 $399 forward $225 $-1 #
vertex $-1 $233 $403 #
straight-curve $-1 22.983085087744701 -28.805416556982379 52.649604380235481 0 0 1 I I #
straight-curve $-1 22.983085087744701 -28.805416556982379 1.6319408324188203 0 -0.82903756765294845 -0.55919291073839883 I I #
edge $-1 $397 0.19083015594709352 $237 22.983085087744701 $336 $404 forward 7 unknown #
point $-1 22.983085087744701 -28.805416556982379 6.6118747217742202 #
point $-1 22.983085087744701 -21.422361086461393 6.6118747217742211 #
edge $-1 $405 1 $405 0 $240 $-1 forward 7 unknown #
vertex $-1 $241 $406 #
ellipse-curve $-1 11.586957621845897 -23.616763162358879 1.9023277515375643 0 -0.55919291073839883 0.82903756765294845 1 0 0 1 I I #
point $-1 12.586957621845897 -25.113888821721883 4.1219077770965171 #
plane-surface $-1 62.522659993285927 0 0 -1 0 0 0 0 1 forward_v I I I I #
coedge $-1 $249 $247 $251 $353 reversed $161 $-1 #
edge $-1 $262 -6.6118747217742202 $355 6.6118747217742202 $261 $407 forward 7 unknown #
vertex $-1 $353 $408 #
straight-curve $-1 -62.522659993285927 -28.805416556982379 0 0 0 -1 I I #
edge $-1 $351 -28.805416556982379 $355 28.805416556982379 $349 $409 forward 7 unknown #
straight-curve $-1 0 -28.805416556982379 -6.6118747217742202 -1 0 0 I I #
vertex $-1 $254 $410 #
straight-curve $-1 0 28.805416556982379 -6.6118747217742202 1 0 0 I I #
point $-1 62.522659993285927 28.805416556982379 -6.6118747217742202 #
point $-1 62.522659993285927 -28.805416556982379 -6.6118747217742202 #
straight-curve $-1 -62.522659993285927 0 6.6118747217742202 0 -1 0 I I #
point $-1 -62.522659993285927 28.805416556982379 6.6118747217742202 #
point $-1 -62.522659993285927 -28.805416556982379 6.6118747217742202 #
straight-curve $-1 62.522659993285927 -28.805416556982379 0 0 0 -1 I I #
straight-curve $-1 62.522659993285927 28.805416556982379 0 0 0 -1 I I #
plane-surface $-1 -62.522659993285927 0 0 1 0 0 0 0 -1 forward_v I I I I #
edge $-1 $283 10.567974304442288 $287 13.861138702595909 $286 $411 forward 7 unknown #
edge $-1 $291 -13.861138702595909 $282 -10.567974304442288 $289 $412 forward 7 unknown #
straight-curve $-1 -54.655314016318258 -26.075695206115007 0 0 0 -1 I I #
edge $-1 $371 -6.6118747217742202 $369 6.6118747217742202 $293 $413 forward 7 unknown #
vertex $-1 $368 $414 #
straight-curve $-1 -29.294493502401046 -22.782530807961386 -6.6118747217742202 1 0 0 I I #
vertex $-1 $294 $415 #
straight-curve $-1 -29.294493502401046 -22.782530807961386 6.6118747217742202 -1 0 0 I I #
point $-1 -54.655314016318258 -22.782530807961386 6.6118747217742202 #
point $-1 -54.655314016318258 -22.782530807961386 -6.6118747217742202 #
point $-1 -54.655314016318258 -26.075695206115007 -6.6118747217742202 #
point $-1 -54.655314016318258 -26.075695206115007 6.6118747217742202 #
straight-curve $-1 -62.522659993285927 0 6.6118747217742202 0 -1 0 I I #
straight-curve $-1 -62.522659993285927 0 -6.6118747217742202 0 1 0 I I #
coedge $-1 $380 $300 $386 $416 reversed $199 $-1 #
coedge $-1 $300 $379 $303 $384 reversed $199 $-1 #
edge $-1 $382 -39.699399335420139 $308 -5.9471219803114366 $307 $417 forward 7 unknown #
vertex $-1 $302 $418 #
straight-curve $-1 62.522659993285927 -5.0235298349081514 23.981667436188022 0 0.83867056331134215 -0.54463904215088732 I I #
edge $-1 $304 21.723604896506984 $388 28.805416556982379 $380 $419 forward 7 unknown #
point $-1 62.522659993285927 21.723604896506984 6.6118747217742211 #
coedge $-1 $307 $306 $379 $416 forward $298 $-1 #
point $-1 28.770382638177225 28.805416556982379 2.0128923701992498 #
vertex $-1 $384 $420 #
straight-curve $-1 0 28.805416556982379 6.6118747217742202 -1 0 0 I I #
vertex $-1 $314 $421 #
point $-1 37.020838109198962 24.250162687977021 2.7504245690697853 #
vertex $-1 $318 $422 #
point $-1 47.146521315731576 24.250162687977021 2.7504245690697853 #
vertex $-1 $322 $423 #
point $-1 57.27220452226419 24.250162687977021 2.7504245690697853 #
edge $-1 $397 46.037729658461259 $400 51.01766354781666 $327 $424 forward 7 unknown #
vertex $-1 $341 $425 #
straight-curve $-1 0.19083015594709352 -49.364936507243982 6.6118747217742211 0 -1 0 I I #
edge $-1 $400 -5.6026486549758552 $338 17.189606276821753 $337 $426 forward 7 unknown #
vertex $-1 $399 $427 #
straight-curve $-1 0.19083015594709352 -28.805416556982379 1.6319408324188203 0 0.82903756765294845 0.55919291073839883 I I #
point $-1 0.19083015594709352 -21.422361086461393 6.6118747217742211 #
point $-1 22.983085087744701 -28.805416556982379 1.6319408324188203 #
straight-curve $-1 0 -28.805416556982379 6.6118747217742202 1 0 0 I I #
vertex $-1 $344 $428 #
point $-1 12.586957621845897 -23.616763162358879 1.9023277515375643 #
straight-curve $-1 -62.522659993285927 28.805416556982379 0 0 0 -1 I I #
point $-1 -62.522659993285927 -28.805416556982379 -6.6118747217742202 #
straight-curve $-1 -62.522659993285927 0 -6.6118747217742202 0 1 0 I I #
point $-1 -62.522659993285927 28.805416556982379 -6.6118747217742202 #
straight-curve $-1 -54.655314016318258 -12.214556503519098 -6.6118747217742202 0 -1 0 I I #
straight-curve $-1 -54.655314016318258 -12.214556503519098 6.6118747217742202 0 1 0 I I #
straight-curve $-1 -62.522659993285927 -22.782530807961386 0 0 0 -1 I I #
point $-1 -62.522659993285927 -22.782530807961386 -6.6118747217742202 #
point $-1 -62.522659993285927 -22.782530807961386 6.6118747217742202 #
edge $-1 $388 -6.6118747217742202 $382 -2.0128923701992498 $379 $429 forward 7 unknown #
straight-curve $-1 22.823260657865788 28.805416556982379 2.012892370199248 -1 0 0 I I #
point $-1 62.522659993285927 28.805416556982379 2.0128923701992498 #
straight-curve $-1 62.522659993285927 0 6.6118747217742202 0 1 0 I I #
point $-1 62.522659993285927 28.805416556982379 6.6118747217742202 #
point $-1 35.520838109198962 23.433204124750691 1.4924187241027718 #
point $-1 45.646521315731576 23.433204124750691 1.4924187241027718 #
point $-1 55.77220452226419 23.433204124750691 1.4924187241027718 #
straight-curve $-1 0.19083015594709352 -28.805416556982379 52.649604380235481 0 0 -1 I I #
point $-1 0.19083015594709352 -28.805416556982379 6.6118747217742202 #
straight-curve $-1 5.7934788109229487 -28.805416556982379 1.6319408324188194 1 0 0 I I #
point $-1 0.19083015594709352 -28.805416556982379 1.6319408324188203 #
point $-1 11.586957621845897 -23.057570251620483 1.0732901838846161 #
straight-curve $-1 62.522659993285927 28.805416556982379 0 0 0 -1 I I #
End-of-ACIS-data 