500 0 10 0           
7 Unknown 11 ACIS 5.0 NT 24 Fri Mar 26 14:57:27 1999 
-1 9.9999999999999995e-007 1e-010 
body $-1 $10 $-1 $11 #
body $-1 $12 $-1 $13 #
body $-1 $14 $-1 $15 #
body $-1 $16 $-1 $17 #
body $-1 $18 $-1 $19 #
body $-1 $20 $-1 $21 #
body $-1 $22 $-1 $23 #
body $-1 $24 $-1 $25 #
body $-1 $26 $-1 $27 #
body $-1 $28 $-1 $29 #
lump $-1 $-1 $30 $0 #
transform $-1 1 0 0 0 1 0 0 0 1 41.88116092410047 25.665264179080705 7.693626435103007 1 rotate no_reflect no_shear #
lump $-1 $-1 $31 $1 #
transform $-1 1 0 0 0 1 0 0 0 1 41.88116092410047 25.665264179080705 7.693626435103007 1 rotate no_reflect no_shear #
lump $-1 $-1 $32 $2 #
transform $-1 1 0 0 0 1 0 0 0 1 41.88116092410047 25.665264179080705 7.693626435103007 1 rotate no_reflect no_shear #
lump $-1 $-1 $33 $3 #
transform $-1 1 0 0 0 1 0 0 0 1 41.88116092410047 25.665264179080705 7.693626435103007 1 rotate no_reflect no_shear #
lump $-1 $-1 $34 $4 #
transform $-1 1 0 0 0 1 0 0 0 1 41.88116092410047 25.665264179080705 7.693626435103007 1 rotate no_reflect no_shear #
lump $-1 $-1 $35 $5 #
transform $-1 1 0 0 0 1 0 0 0 1 41.88116092410047 25.665264179080705 7.693626435103007 1 rotate no_reflect no_shear #
lump $-1 $-1 $36 $6 #
transform $-1 1 0 0 0 1 0 0 0 1 41.88116092410047 25.665264179080705 7.693626435103007 1 rotate no_reflect no_shear #
lump $-1 $-1 $37 $7 #
transform $-1 1 0 0 0 1 0 0 0 1 41.88116092410047 25.665264179080705 7.693626435103007 1 rotate no_reflect no_shear #
lump $-1 $-1 $38 $8 #
transform $-1 1 0 0 0 1 0 0 0 1 41.88116092410047 25.665264179080705 7.693626435103007 1 rotate no_reflect no_shear #
lump $-1 $-1 $39 $9 #
transform $-1 1 0 0 0 1 0 0 0 1 41.88116092410047 25.665264179080705 7.693626435103007 1 rotate no_reflect no_shear #
shell $-1 $-1 $-1 $40 $-1 $10 #
shell $-1 $-1 $-1 $41 $-1 $12 #
shell $-1 $-1 $-1 $42 $-1 $14 #
shell $-1 $-1 $-1 $43 $-1 $16 #
shell $-1 $-1 $-1 $44 $-1 $18 #
shell $-1 $-1 $-1 $45 $-1 $20 #
shell $-1 $-1 $-1 $46 $-1 $22 #
shell $-1 $-1 $-1 $47 $-1 $24 #
shell $-1 $-1 $-1 $48 $-1 $26 #
shell $-1 $-1 $-1 $49 $-1 $28 #
face $-1 $50 $51 $30 $-1 $52 forward single #
face $-1 $53 $54 $31 $-1 $55 forward single #
face $-1 $56 $57 $32 $-1 $58 reversed single #
face $-1 $59 $60 $33 $-1 $61 forward single #
face $-1 $62 $63 $34 $-1 $64 forward single #
face $-1 $65 $66 $35 $-1 $67 forward single #
face $-1 $68 $69 $36 $-1 $70 reversed single #
face $-1 $71 $72 $37 $-1 $73 forward single #
face $-1 $74 $75 $38 $-1 $76 forward single #
face $-1 $77 $78 $39 $-1 $79 forward single #
face $-1 $80 $81 $30 $-1 $82 reversed single #
loop $-1 $-1 $83 $40 #
plane-surface $-1 0 0 7.693626435103007 0 0 1 1 0 0 forward_v I I I I #
face $-1 $84 $85 $31 $-1 $86 reversed single #
loop $-1 $-1 $87 $41 #
plane-surface $-1 -41.88116092410047 0 0 1 0 0 0 0 -1 forward_v I I I I #
face $-1 $88 $89 $32 $-1 $90 reversed single #
loop $-1 $-1 $91 $42 #
plane-surface $-1 -21.335065255519787 -21.517247700032748 58.073852179551722 0.6560590369687036 0 0.75470957328743171 0.75470957328743171 0 -0.6560590369687036 forward_v I I I I #
face $-1 $92 $93 $33 $-1 $94 forward single #
loop $-1 $95 $96 $43 #
cone-surface $-1 38.828629369204698 -24.006057587461523 4.9213925767863902 -0.6560590369687036 0 -0.75470957328743171 0.37735478664371586 0 -0.3280295184843518 1 I I 0 1 0.5 forward I I I I #
face $-1 $97 $98 $34 $-1 $99 forward single #
loop $-1 $100 $101 $44 #
cone-surface $-1 38.828629369204698 -21.517247700032748 4.9213925767863902 -0.6560590369687036 0 -0.75470957328743171 0.37735478664371586 0 -0.3280295184843518 1 I I 0 1 0.5 forward I I I I #
face $-1 $102 $103 $35 $-1 $104 forward single #
loop $-1 $105 $106 $45 #
cone-surface $-1 38.828629369204698 -19.028437812603975 4.9213925767863902 -0.6560590369687036 0 -0.75470957328743171 0.37735478664371586 0 -0.3280295184843518 1 I I 0 1 0.5 forward I I I I #
face $-1 $107 $108 $36 $-1 $109 reversed single #
loop $-1 $-1 $110 $46 #
plane-surface $-1 33.617962950473526 17.369231220984787 121.29007835917197 0 1 0 0.6560590369687036 0 0.75470957328743171 forward_v I I I I #
face $-1 $111 $112 $37 $-1 $113 forward single #
loop $-1 $114 $115 $47 #
cone-surface $-1 38.828629369204698 19.028437812603972 4.9213925767863902 -0.6560590369687036 0 -0.75470957328743171 0.37735478664371586 0 -0.3280295184843518 1 I I 0 1 0.5 forward I I I I #
face $-1 $116 $117 $38 $-1 $118 forward single #
loop $-1 $119 $120 $48 #
cone-surface $-1 38.828629369204698 21.517247700032744 4.9213925767863902 -0.6560590369687036 0 -0.75470957328743171 0.37735478664371586 0 -0.3280295184843518 1 I I 0 1 0.5 forward I I I I #
face $-1 $121 $122 $39 $-1 $123 forward single #
loop $-1 $124 $125 $49 #
cone-surface $-1 38.828629369204698 24.006057587461523 4.9213925767863902 -0.6560590369687036 0 -0.75470957328743171 0.37735478664371586 0 -0.3280295184843518 1 I I 0 1 0.5 forward I I I I #
face $-1 $126 $127 $30 $-1 $128 reversed single #
loop $-1 $-1 $129 $50 #
plane-surface $-1 0 0 -7.693626435103007 0 0 1 1 0 0 forward_v I I I I #
coedge $-1 $130 $131 $132 $133 forward $51 $-1 #
face $-1 $134 $135 $31 $-1 $136 reversed single #
loop $-1 $-1 $137 $53 #
plane-surface $-1 0 25.665264179080705 0 0 -1 0 0 0 -1 forward_v I I I I #
coedge $-1 $138 $139 $140 $141 forward $54 $-1 #
face $-1 $142 $143 $32 $-1 $144 forward single #
loop $-1 $-1 $145 $56 #
plane-surface $-1 33.617962950473526 -17.369231220984791 121.29007835917197 0 -1 0 -0.6560590369687036 0 -0.75470957328743171 forward_v I I I I #
coedge $-1 $146 $147 $148 $149 reversed $57 $-1 #
face $-1 $-1 $150 $33 $-1 $151 forward single #
loop $-1 $152 $153 $59 #
cone-surface $-1 38.242286741023037 -24.006057587461523 4.2468825559202008 -0.6560590369687036 0 -0.75470957328743171 0.18867739332185793 0 -0.1640147592421759 1 I I -0.70710678118654746 0.70710678118654746 0.25 forward I I I I #
loop $-1 $-1 $154 $43 #
coedge $-1 $96 $96 $155 $156 reversed $60 $-1 #
face $-1 $-1 $157 $34 $-1 $158 forward single #
loop $-1 $159 $160 $62 #
cone-surface $-1 38.242286741023037 -21.517247700032748 4.2468825559202008 -0.6560590369687036 0 -0.75470957328743171 0.18867739332185793 0 -0.1640147592421759 1 I I -0.70710678118654746 0.70710678118654746 0.25 forward I I I I #
loop $-1 $-1 $161 $44 #
coedge $-1 $101 $101 $162 $163 reversed $63 $-1 #
face $-1 $-1 $164 $35 $-1 $165 forward single #
loop $-1 $166 $167 $65 #
cone-surface $-1 38.242286741023037 -19.028437812603975 4.2468825559202008 -0.6560590369687036 0 -0.75470957328743171 0.18867739332185793 0 -0.1640147592421759 1 I I -0.70710678118654746 0.70710678118654746 0.25 forward I I I I #
loop $-1 $-1 $168 $45 #
coedge $-1 $106 $106 $169 $170 reversed $66 $-1 #
face $-1 $171 $172 $36 $-1 $173 reversed single #
loop $-1 $-1 $174 $68 #
plane-surface $-1 -21.335065255519787 21.517247700032744 58.073852179551722 0.6560590369687036 0 0.75470957328743171 0.75470957328743171 0 -0.6560590369687036 forward_v I I I I #
coedge $-1 $175 $176 $177 $178 reversed $69 $-1 #
face $-1 $-1 $179 $37 $-1 $180 forward single #
loop $-1 $181 $182 $71 #
cone-surface $-1 38.242286741023037 19.028437812603972 4.2468825559202008 -0.6560590369687036 0 -0.75470957328743171 0.18867739332185793 0 -0.1640147592421759 1 I I -0.70710678118654746 0.70710678118654746 0.25 forward I I I I #
loop $-1 $-1 $183 $47 #
coedge $-1 $115 $115 $184 $185 reversed $72 $-1 #
face $-1 $-1 $186 $38 $-1 $187 forward single #
loop $-1 $188 $189 $74 #
cone-surface $-1 38.242286741023037 21.517247700032744 4.2468825559202008 -0.6560590369687036 0 -0.75470957328743171 0.18867739332185793 0 -0.1640147592421759 1 I I -0.70710678118654746 0.70710678118654746 0.25 forward I I I I #
loop $-1 $-1 $190 $48 #
coedge $-1 $120 $120 $191 $192 reversed $75 $-1 #
face $-1 $-1 $193 $39 $-1 $194 forward single #
loop $-1 $195 $196 $77 #
cone-surface $-1 38.242286741023037 24.006057587461523 4.2468825559202008 -0.6560590369687036 0 -0.75470957328743171 0.18867739332185793 0 -0.1640147592421759 1 I I -0.70710678118654746 0.70710678118654746 0.25 forward I I I I #
loop $-1 $-1 $197 $49 #
coedge $-1 $125 $125 $198 $199 reversed $78 $-1 #
face $-1 $200 $201 $30 $-1 $202 reversed single #
loop $-1 $-1 $203 $80 #
plane-surface $-1 0 -25.665264179080705 0 0 1 0 0 0 1 forward_v I I I I #
coedge $-1 $204 $205 $206 $207 forward $81 $-1 #
coedge $-1 $208 $83 $209 $210 forward $51 $-1 #
coedge $-1 $83 $208 $211 $212 forward $51 $-1 #
coedge $-1 $213 $214 $83 $133 reversed $215 $-1 #
edge $-1 $216 -25.665264179080705 $217 25.665264179080705 $132 $218 forward 7 unknown #
face $-1 $219 $220 $31 $-1 $221 reversed single #
loop $-1 $-1 $140 $84 #
plane-surface $-1 -45.821576368842557 0 4.4836089039018825 0 0 1 1 0 0 forward_v I I I I #
coedge $-1 $222 $223 $138 $224 forward $85 $-1 #
coedge $-1 $225 $87 $137 $224 reversed $54 $-1 #
coedge $-1 $87 $225 $226 $227 reversed $54 $-1 #
coedge $-1 $228 $229 $87 $141 reversed $135 $-1 #
edge $-1 $230 -25.665264179080705 $231 25.665264179080705 $140 $232 forward 7 unknown #
face $-1 $233 $234 $32 $-1 $235 reversed single #
loop $-1 $-1 $236 $88 #
plane-surface $-1 0 0 7.693626435103007 0 0 1 1 0 0 forward_v I I I I #
coedge $-1 $237 $238 $239 $240 reversed $89 $-1 #
coedge $-1 $241 $91 $242 $243 reversed $57 $-1 #
coedge $-1 $91 $241 $237 $244 forward $57 $-1 #
coedge $-1 $239 $245 $91 $149 forward $246 $-1 #
edge $-1 $247 -14.906640329064331 $248 -6.6106073709684168 $148 $249 forward 7 unknown #
loop $-1 $-1 $155 $92 #
plane-surface $-1 -21.335065255519787 -21.517247700032748 58.073852179551722 0.6560590369687036 0 0.75470957328743171 0.75470957328743171 0 -0.6560590369687036 forward_v I I I I #
loop $-1 $-1 $250 $59 #
coedge $-1 $153 $153 $154 $251 reversed $93 $-1 #
coedge $-1 $154 $154 $153 $251 forward $95 $-1 #
coedge $-1 $155 $155 $96 $156 forward $150 $-1 #
edge $-1 $252 0 $252 6.2831853071796004 $155 $253 forward 7 unknown #
loop $-1 $-1 $162 $97 #
plane-surface $-1 -21.335065255519787 -21.517247700032748 58.073852179551722 0.6560590369687036 0 0.75470957328743171 0.75470957328743171 0 -0.6560590369687036 forward_v I I I I #
loop $-1 $-1 $254 $62 #
coedge $-1 $160 $160 $161 $255 reversed $98 $-1 #
coedge $-1 $161 $161 $160 $255 forward $100 $-1 #
coedge $-1 $162 $162 $101 $163 forward $157 $-1 #
edge $-1 $256 0 $256 6.2831853071796004 $162 $257 forward 7 unknown #
loop $-1 $-1 $169 $102 #
plane-surface $-1 -21.335065255519787 -21.517247700032748 58.073852179551722 0.6560590369687036 0 0.75470957328743171 0.75470957328743171 0 -0.6560590369687036 forward_v I I I I #
loop $-1 $-1 $258 $65 #
coedge $-1 $167 $167 $168 $259 reversed $103 $-1 #
coedge $-1 $168 $168 $167 $259 forward $105 $-1 #
coedge $-1 $169 $169 $106 $170 forward $164 $-1 #
edge $-1 $260 0 $260 6.2831853071796004 $169 $261 forward 7 unknown #
face $-1 $262 $263 $36 $-1 $264 reversed single #
loop $-1 $-1 $177 $107 #
plane-surface $-1 41.88116092410047 0 0 -1 0 0 0 0 1 forward_v I I I I #
coedge $-1 $265 $266 $267 $268 reversed $108 $-1 #
coedge $-1 $176 $110 $269 $270 reversed $69 $-1 #
coedge $-1 $110 $175 $265 $271 reversed $69 $-1 #
coedge $-1 $267 $272 $110 $178 forward $172 $-1 #
edge $-1 $273 52.95141274448298 $274 57.524215206027584 $177 $275 forward 7 unknown #
loop $-1 $-1 $184 $111 #
plane-surface $-1 -21.335065255519787 21.517247700032744 58.073852179551722 0.6560590369687036 0 0.75470957328743171 0.75470957328743171 0 -0.6560590369687036 forward_v I I I I #
loop $-1 $-1 $276 $71 #
coedge $-1 $182 $182 $183 $277 reversed $112 $-1 #
coedge $-1 $183 $183 $182 $277 forward $114 $-1 #
coedge $-1 $184 $184 $115 $185 forward $179 $-1 #
edge $-1 $278 0 $278 6.2831853071796004 $184 $279 forward 7 unknown #
loop $-1 $-1 $191 $116 #
plane-surface $-1 -21.335065255519787 21.517247700032744 58.073852179551722 0.6560590369687036 0 0.75470957328743171 0.75470957328743171 0 -0.6560590369687036 forward_v I I I I #
loop $-1 $-1 $280 $74 #
coedge $-1 $189 $189 $190 $281 reversed $117 $-1 #
coedge $-1 $190 $190 $189 $281 forward $119 $-1 #
coedge $-1 $191 $191 $120 $192 forward $186 $-1 #
edge $-1 $282 0 $282 6.2831853071796004 $191 $283 forward 7 unknown #
loop $-1 $-1 $198 $121 #
plane-surface $-1 -21.335065255519787 21.517247700032744 58.073852179551722 0.6560590369687036 0 0.75470957328743171 0.75470957328743171 0 -0.6560590369687036 forward_v I I I I #
loop $-1 $-1 $284 $77 #
coedge $-1 $196 $196 $197 $285 reversed $122 $-1 #
coedge $-1 $197 $197 $196 $285 forward $124 $-1 #
coedge $-1 $198 $198 $125 $199 forward $193 $-1 #
edge $-1 $286 0 $286 6.2831853071796004 $198 $287 forward 7 unknown #
face $-1 $288 $289 $30 $-1 $290 reversed single #
loop $-1 $-1 $291 $126 #
plane-surface $-1 -41.88116092410047 0 0 1 0 0 0 0 -1 forward_v I I I I #
coedge $-1 $292 $211 $293 $294 forward $127 $-1 #
coedge $-1 $295 $129 $292 $296 forward $81 $-1 #
coedge $-1 $129 $295 $297 $298 forward $81 $-1 #
coedge $-1 $214 $213 $129 $207 reversed $215 $-1 #
edge $-1 $299 -25.665264179080705 $300 25.665264179080705 $206 $301 forward 7 unknown #
coedge $-1 $131 $130 $302 $303 forward $51 $-1 #
coedge $-1 $304 $305 $130 $210 reversed $289 $-1 #
edge $-1 $217 -41.88116092410047 $306 41.88116092410047 $209 $307 forward 7 unknown #
coedge $-1 $203 $308 $131 $212 reversed $127 $-1 #
edge $-1 $309 -41.88116092410047 $216 41.88116092410047 $211 $310 forward 7 unknown #
coedge $-1 $206 $132 $308 $311 forward $215 $-1 #
coedge $-1 $132 $206 $304 $312 reversed $215 $-1 #
loop $-1 $-1 $213 $288 #
vertex $-1 $133 $313 #
vertex $-1 $133 $314 #
straight-curve $-1 41.88116092410047 0 7.693626435103007 0 1 0 I I #
face $-1 $315 $316 $31 $-1 $317 forward single #
loop $-1 $-1 $318 $134 #
plane-surface $-1 -49.761991813584643 0 6.0886176695024448 1 0 0 0 0 -1 forward_v I I I I #
coedge $-1 $319 $137 $229 $320 reversed $85 $-1 #
coedge $-1 $137 $319 $321 $322 reversed $85 $-1 #
edge $-1 $323 -7.693626435103007 $231 -4.4836089039018825 $137 $324 forward 7 unknown #
coedge $-1 $139 $138 $325 $326 reversed $54 $-1 #
coedge $-1 $327 $328 $139 $227 forward $329 $-1 #
edge $-1 $230 4.4836089039018825 $330 7.693626435103007 $226 $331 forward 7 unknown #
coedge $-1 $332 $140 $328 $333 forward $135 $-1 #
coedge $-1 $140 $332 $222 $320 forward $135 $-1 #
vertex $-1 $227 $334 #
vertex $-1 $224 $335 #
straight-curve $-1 -41.88116092410047 0 4.4836089039018825 0 1 0 I I #
face $-1 $-1 $246 $32 $-1 $336 reversed single #
loop $-1 $-1 $242 $142 #
plane-surface $-1 0 -25.665264179080705 0 0 1 0 0 0 1 forward_v I I I I #
coedge $-1 $337 $338 $238 $339 forward $143 $-1 #
coedge $-1 $238 $145 $147 $244 reversed $89 $-1 #
coedge $-1 $145 $237 $236 $339 reversed $89 $-1 #
coedge $-1 $340 $148 $145 $240 forward $246 $-1 #
edge $-1 $248 -57.524215206027584 $341 -52.95141274448298 $239 $342 forward 7 unknown #
coedge $-1 $147 $146 $337 $343 reversed $57 $-1 #
coedge $-1 $344 $345 $146 $243 forward $234 $-1 #
edge $-1 $346 49.691386901541485 $247 56.661495083684756 $242 $347 forward 7 unknown #
edge $-1 $348 76.792213666057677 $248 83.762321848200969 $237 $349 forward 7 unknown #
coedge $-1 $148 $340 $344 $350 forward $246 $-1 #
loop $-1 $-1 $239 $233 #
vertex $-1 $243 $351 #
vertex $-1 $149 $352 #
straight-curve $-1 41.881160924100463 -10.758623850016374 3.1208239735584051 0 1 0 I I #
coedge $-1 $250 $250 $-1 $353 reversed $152 $-1 #
edge $-1 $354 0 $354 6.2831853071796004 $153 $355 forward 7 unknown #
vertex $-1 $156 $356 #
ellipse-curve $-1 39.250957238144174 -24.006057587461523 5.4072252043307136 0.6560590369687036 0 0.75470957328743171 0.37735478664371586 0 -0.3280295184843518 1 I I #
coedge $-1 $254 $254 $-1 $357 reversed $159 $-1 #
edge $-1 $358 0 $358 6.2831853071796004 $160 $359 forward 7 unknown #
vertex $-1 $163 $360 #
ellipse-curve $-1 39.250957238144174 -21.517247700032748 5.4072252043307136 0.6560590369687036 0 0.75470957328743171 0.37735478664371586 0 -0.3280295184843518 1 I I #
coedge $-1 $258 $258 $-1 $361 reversed $166 $-1 #
edge $-1 $362 0 $362 6.2831853071796004 $167 $363 forward 7 unknown #
vertex $-1 $170 $364 #
ellipse-curve $-1 39.250957238144174 -19.028437812603975 5.4072252043307136 0.6560590369687036 0 0.75470957328743171 0.37735478664371586 0 -0.3280295184843518 1 I I #
face $-1 $-1 $365 $36 $-1 $366 forward single #
loop $-1 $-1 $367 $171 #
plane-surface $-1 0 25.665264179080705 0 0 -1 0 0 0 -1 forward_v I I I I #
coedge $-1 $368 $174 $176 $271 forward $108 $-1 #
coedge $-1 $174 $368 $367 $369 reversed $108 $-1 #
coedge $-1 $370 $177 $174 $268 forward $172 $-1 #
edge $-1 $274 6.610607370968415 $371 14.906640329064329 $267 $372 forward 7 unknown #
coedge $-1 $373 $374 $175 $270 forward $365 $-1 #
edge $-1 $375 19.811772076951122 $273 25.072179448863707 $269 $376 forward 7 unknown #
edge $-1 $274 -83.762321848200969 $375 -76.792213666057677 $176 $377 forward 7 unknown #
coedge $-1 $177 $370 $373 $378 reversed $172 $-1 #
vertex $-1 $378 $379 #
vertex $-1 $178 $380 #
straight-curve $-1 41.88116092410047 17.369231220984787 60.645039179585986 0 0 -1 I I #
coedge $-1 $276 $276 $-1 $381 reversed $181 $-1 #
edge $-1 $382 0 $382 6.2831853071796004 $182 $383 forward 7 unknown #
vertex $-1 $185 $384 #
ellipse-curve $-1 39.250957238144174 19.028437812603972 5.4072252043307136 0.6560590369687036 0 0.75470957328743171 0.37735478664371586 0 -0.3280295184843518 1 I I #
coedge $-1 $280 $280 $-1 $385 reversed $188 $-1 #
edge $-1 $386 0 $386 6.2831853071796004 $189 $387 forward 7 unknown #
vertex $-1 $192 $388 #
ellipse-curve $-1 39.250957238144174 21.517247700032744 5.4072252043307136 0.6560590369687036 0 0.75470957328743171 0.37735478664371586 0 -0.3280295184843518 1 I I #
coedge $-1 $284 $284 $-1 $389 reversed $195 $-1 #
edge $-1 $390 0 $390 6.2831853071796004 $196 $391 forward 7 unknown #
vertex $-1 $199 $392 #
ellipse-curve $-1 39.250957238144174 24.006057587461523 5.4072252043307136 0.6560590369687036 0 0.75470957328743171 0.37735478664371586 0 -0.3280295184843518 1 I I #
face $-1 $-1 $215 $30 $-1 $393 reversed single #
loop $-1 $-1 $304 $200 #
plane-surface $-1 0 25.665264179080705 0 0 -1 0 0 0 -1 forward_v I I I I #
coedge $-1 $394 $302 $305 $395 forward $201 $-1 #
coedge $-1 $308 $203 $204 $296 reversed $127 $-1 #
coedge $-1 $302 $394 $203 $294 reversed $201 $-1 #
edge $-1 $309 -7.693626435103007 $396 7.693626435103007 $293 $397 forward 7 unknown #
coedge $-1 $205 $204 $394 $398 forward $81 $-1 #
edge $-1 $300 -41.88116092410047 $396 41.88116092410047 $292 $399 forward 7 unknown #
coedge $-1 $305 $304 $205 $298 reversed $289 $-1 #
edge $-1 $400 -41.88116092410047 $299 41.88116092410047 $297 $401 forward 7 unknown #
vertex $-1 $207 $402 #
vertex $-1 $311 $403 #
straight-curve $-1 41.88116092410047 0 -7.693626435103007 0 -1 0 I I #
coedge $-1 $291 $293 $208 $303 reversed $201 $-1 #
edge $-1 $306 -25.665264179080705 $309 25.665264179080705 $302 $404 forward 7 unknown #
coedge $-1 $297 $209 $214 $312 forward $289 $-1 #
coedge $-1 $209 $297 $291 $395 reversed $289 $-1 #
vertex $-1 $210 $405 #
straight-curve $-1 0 25.665264179080705 7.693626435103007 -1 0 0 I I #
coedge $-1 $211 $292 $213 $311 reversed $127 $-1 #
vertex $-1 $303 $406 #
straight-curve $-1 0 -25.665264179080705 7.693626435103007 1 0 0 I I #
edge $-1 $216 -7.693626435103007 $300 7.693626435103007 $213 $407 forward 7 unknown #
edge $-1 $217 -7.693626435103007 $299 7.693626435103007 $214 $408 forward 7 unknown #
point $-1 41.88116092410047 -25.665264179080705 7.693626435103007 #
point $-1 41.88116092410047 25.665264179080705 7.693626435103007 #
face $-1 $-1 $329 $31 $-1 $409 reversed single #
loop $-1 $-1 $325 $219 #
plane-surface $-1 0 0 7.693626435103007 0 0 1 1 0 0 forward_v I I I I #
coedge $-1 $410 $411 $319 $412 forward $220 $-1 #
coedge $-1 $223 $222 $318 $412 reversed $85 $-1 #
edge $-1 $413 -3.9404154447420865 $231 3.9404154447420865 $222 $414 forward 7 unknown #
coedge $-1 $415 $325 $223 $322 forward $316 $-1 #
edge $-1 $323 41.88116092410047 $416 49.761991813584643 $223 $417 forward 7 unknown #
vertex $-1 $322 $418 #
straight-curve $-1 -41.88116092410047 25.665264179080705 0 0 0 -1 I I #
coedge $-1 $321 $419 $225 $326 forward $316 $-1 #
edge $-1 $330 -25.665264179080705 $323 25.665264179080705 $325 $420 forward 7 unknown #
coedge $-1 $421 $226 $419 $422 reversed $329 $-1 #
coedge $-1 $226 $421 $228 $333 reversed $329 $-1 #
loop $-1 $-1 $226 $315 #
vertex $-1 $227 $423 #
straight-curve $-1 -41.88116092410047 -25.665264179080705 0 0 0 1 I I #
coedge $-1 $229 $228 $410 $424 forward $135 $-1 #
edge $-1 $230 -3.9404154447420865 $425 3.9404154447420865 $328 $426 forward 7 unknown #
point $-1 -41.88116092410047 -25.665264179080705 4.4836089039018825 #
point $-1 -41.88116092410047 25.665264179080705 4.4836089039018825 #
plane-surface $-1 41.88116092410047 0 0 -1 0 0 0 0 1 forward_v I I I I #
coedge $-1 $427 $236 $241 $343 forward $143 $-1 #
coedge $-1 $236 $427 $340 $428 forward $143 $-1 #
edge $-1 $341 -25.072179448863707 $348 -19.811772076951122 $236 $429 forward 7 unknown #
coedge $-1 $245 $239 $338 $428 reversed $246 $-1 #
vertex $-1 $339 $430 #
straight-curve $-1 41.88116092410047 -17.369231220984791 60.645039179585986 0 0 1 I I #
edge $-1 $348 6.6106073709684168 $346 14.906640329064331 $337 $431 forward 7 unknown #
coedge $-1 $345 $242 $245 $350 reversed $234 $-1 #
coedge $-1 $242 $344 $427 $432 reversed $234 $-1 #
vertex $-1 $432 $433 #
straight-curve $-1 -0.88181185233515791 -25.665264179080705 40.29410987136756 0.75470957328743171 0 -0.6560590369687036 I I #
vertex $-1 $343 $434 #
straight-curve $-1 -21.335065255519787 -17.369231220984791 58.073852179551722 0.75470957328743171 0 -0.6560590369687036 I I #
edge $-1 $435 -7.693626435103007 $247 -3.1208239735584078 $245 $436 forward 7 unknown #
point $-1 41.88116092410047 -25.665264179080705 3.1208239735584078 #
point $-1 41.881160924100477 -17.369231220984791 3.1208239735584016 #
edge $-1 $437 1 $437 0 $250 $-1 forward 7 unknown #
vertex $-1 $251 $438 #
ellipse-curve $-1 38.406301500265215 -24.006057587461523 4.4355599492420588 0.6560590369687036 0 0.75470957328743171 0.37735478664371586 0 -0.3280295184843518 1 I I #
point $-1 39.628312024787895 -24.006057587461523 5.0791956858463694 #
edge $-1 $439 1 $439 0 $254 $-1 forward 7 unknown #
vertex $-1 $255 $440 #
ellipse-curve $-1 38.406301500265215 -21.517247700032748 4.4355599492420588 0.6560590369687036 0 0.75470957328743171 0.37735478664371586 0 -0.3280295184843518 1 I I #
point $-1 39.628312024787895 -21.517247700032748 5.0791956858463694 #
edge $-1 $441 1 $441 0 $258 $-1 forward 7 unknown #
vertex $-1 $259 $442 #
ellipse-curve $-1 38.406301500265215 -19.028437812603975 4.4355599492420588 0.6560590369687036 0 0.75470957328743171 0.37735478664371586 0 -0.3280295184843518 1 I I #
point $-1 39.628312024787895 -19.028437812603975 5.0791956858463694 #
loop $-1 $-1 $269 $262 #
plane-surface $-1 0 0 7.693626435103007 0 0 1 1 0 0 forward_v I I I I #
coedge $-1 $443 $444 $266 $369 forward $263 $-1 #
coedge $-1 $266 $265 $374 $445 reversed $108 $-1 #
edge $-1 $371 -56.661495083684756 $446 -49.691386901541485 $367 $447 forward 7 unknown #
coedge $-1 $272 $267 $444 $448 reversed $172 $-1 #
vertex $-1 $369 $449 #
straight-curve $-1 41.881160924100463 10.758623850016372 3.1208239735584051 0 1 0 I I #
coedge $-1 $450 $269 $272 $378 forward $365 $-1 #
coedge $-1 $269 $450 $368 $445 forward $365 $-1 #
vertex $-1 $270 $451 #
straight-curve $-1 16.808981475236763 17.369231220984787 7.6936264351030061 1 0 0 I I #
straight-curve $-1 -21.335065255519787 17.369231220984787 58.073852179551722 -0.75470957328743171 0 0.6560590369687036 I I #
edge $-1 $273 17.369231220984787 $452 25.665264179080705 $272 $453 forward 7 unknown #
point $-1 41.88116092410047 17.369231220984787 7.693626435103007 #
point $-1 41.881160924100477 17.369231220984787 3.1208239735584016 #
edge $-1 $454 1 $454 0 $276 $-1 forward 7 unknown #
vertex $-1 $277 $455 #
ellipse-curve $-1 38.406301500265215 19.028437812603972 4.4355599492420588 0.6560590369687036 0 0.75470957328743171 0.37735478664371586 0 -0.3280295184843518 1 I I #
point $-1 39.628312024787895 19.028437812603972 5.0791956858463694 #
edge $-1 $456 1 $456 0 $280 $-1 forward 7 unknown #
vertex $-1 $281 $457 #
ellipse-curve $-1 38.406301500265215 21.517247700032744 4.4355599492420588 0.6560590369687036 0 0.75470957328743171 0.37735478664371586 0 -0.3280295184843518 1 I I #
point $-1 39.628312024787895 21.517247700032744 5.0791956858463694 #
edge $-1 $458 1 $458 0 $284 $-1 forward 7 unknown #
vertex $-1 $285 $459 #
ellipse-curve $-1 38.406301500265215 24.006057587461523 4.4355599492420588 0.6560590369687036 0 0.75470957328743171 0.37735478664371586 0 -0.3280295184843518 1 I I #
point $-1 39.628312024787895 24.006057587461523 5.0791956858463694 #
plane-surface $-1 41.88116092410047 0 0 -1 0 0 0 0 1 forward_v I I I I #
coedge $-1 $293 $291 $295 $398 reversed $201 $-1 #
edge $-1 $306 -7.693626435103007 $400 7.693626435103007 $305 $460 forward 7 unknown #
vertex $-1 $398 $461 #
straight-curve $-1 -41.88116092410047 -25.665264179080705 0 0 0 -1 I I #
edge $-1 $396 -25.665264179080705 $400 25.665264179080705 $394 $462 forward 7 unknown #
straight-curve $-1 0 -25.665264179080705 -7.693626435103007 -1 0 0 I I #
vertex $-1 $298 $463 #
straight-curve $-1 0 25.665264179080705 -7.693626435103007 1 0 0 I I #
point $-1 41.88116092410047 25.665264179080705 -7.693626435103007 #
point $-1 41.88116092410047 -25.665264179080705 -7.693626435103007 #
straight-curve $-1 -41.88116092410047 0 7.693626435103007 0 -1 0 I I #
point $-1 -41.88116092410047 25.665264179080705 7.693626435103007 #
point $-1 -41.88116092410047 -25.665264179080705 7.693626435103007 #
straight-curve $-1 41.88116092410047 -25.665264179080705 0 0 0 -1 I I #
straight-curve $-1 41.88116092410047 25.665264179080705 0 0 0 -1 I I #
plane-surface $-1 0 -25.665264179080705 0 0 1 0 0 0 1 forward_v I I I I #
coedge $-1 $464 $318 $332 $424 reversed $220 $-1 #
coedge $-1 $318 $464 $415 $465 reversed $220 $-1 #
edge $-1 $416 -1.6050087656005623 $413 1.6050087656005623 $319 $466 forward 7 unknown #
vertex $-1 $320 $467 #
straight-curve $-1 -45.821576368842557 25.665264179080705 4.4836089039018825 1 0 0 I I #
coedge $-1 $419 $321 $411 $465 forward $316 $-1 #
vertex $-1 $322 $468 #
straight-curve $-1 0 25.665264179080705 7.693626435103007 -1 0 0 I I #
point $-1 -41.88116092410047 25.665264179080705 7.693626435103007 #
coedge $-1 $325 $415 $327 $422 forward $316 $-1 #
straight-curve $-1 -41.88116092410047 0 7.693626435103007 0 1 0 I I #
coedge $-1 $328 $327 $464 $469 forward $329 $-1 #
edge $-1 $470 -49.761991813584643 $330 -41.88116092410047 $327 $471 forward 7 unknown #
point $-1 -41.88116092410047 -25.665264179080705 7.693626435103007 #
edge $-1 $425 -25.665264179080705 $413 25.665264179080705 $410 $472 forward 7 unknown #
vertex $-1 $424 $473 #
straight-curve $-1 -45.821576368842557 -25.665264179080705 4.4836089039018825 -1 0 0 I I #
coedge $-1 $338 $337 $345 $432 forward $143 $-1 #
edge $-1 $435 -25.665264179080705 $341 -17.369231220984791 $340 $474 forward 7 unknown #
straight-curve $-1 16.808981475236763 -17.369231220984791 7.6936264351030061 -1 0 0 I I #
point $-1 41.88116092410047 -17.369231220984791 7.693626435103007 #
straight-curve $-1 36.620753552187878 -10.758623850016374 7.6936264351030133 0 -1 0 I I #
edge $-1 $346 36.620753552187885 $435 41.88116092410047 $345 $475 forward 7 unknown #
point $-1 36.620753552187885 -25.665264179080705 7.693626435102999 #
point $-1 36.620753552187885 -17.369231220984791 7.693626435102999 #
vertex $-1 $428 $476 #
straight-curve $-1 41.88116092410047 -25.665264179080705 0 0 0 -1 I I #
vertex $-1 $353 $477 #
point $-1 38.783656286908929 -24.006057587461523 4.1075304307577065 #
vertex $-1 $357 $478 #
point $-1 38.783656286908929 -21.517247700032748 4.1075304307577065 #
vertex $-1 $361 $479 #
point $-1 38.783656286908929 -19.028437812603975 4.1075304307577065 #
coedge $-1 $444 $367 $450 $480 reversed $263 $-1 #
coedge $-1 $367 $443 $370 $448 forward $263 $-1 #
edge $-1 $446 -14.906640329064329 $375 -6.610607370968415 $374 $481 forward 7 unknown #
vertex $-1 $369 $482 #
straight-curve $-1 -0.88181185233515791 25.665264179080705 40.29410987136756 -0.75470957328743171 0 0.6560590369687036 I I #
edge $-1 $452 -7.693626435103007 $371 -3.1208239735584016 $370 $483 forward 7 unknown #
point $-1 41.881160924100477 25.665264179080701 3.1208239735584016 #
coedge $-1 $374 $373 $443 $480 forward $365 $-1 #
point $-1 36.620753552187885 17.369231220984787 7.693626435102999 #
vertex $-1 $378 $484 #
straight-curve $-1 41.88116092410047 0 7.693626435103007 0 1 0 I I #
vertex $-1 $381 $485 #
point $-1 38.783656286908929 19.028437812603972 4.1075304307577065 #
vertex $-1 $385 $486 #
point $-1 38.783656286908929 21.517247700032744 4.1075304307577065 #
vertex $-1 $389 $487 #
point $-1 38.783656286908929 24.006057587461523 4.1075304307577065 #
straight-curve $-1 -41.88116092410047 25.665264179080705 0 0 0 -1 I I #
point $-1 -41.88116092410047 -25.665264179080705 -7.693626435103007 #
straight-curve $-1 -41.88116092410047 0 -7.693626435103007 0 1 0 I I #
point $-1 -41.88116092410047 25.665264179080705 -7.693626435103007 #
coedge $-1 $411 $410 $421 $469 reversed $220 $-1 #
edge $-1 $416 -25.665264179080705 $470 25.665264179080705 $411 $488 forward 7 unknown #
straight-curve $-1 -49.761991813584643 25.665264179080705 6.0886176695024448 0 0 -1 I I #
point $-1 -49.761991813584643 25.665264179080705 4.4836089039018825 #
point $-1 -49.761991813584643 25.665264179080705 7.693626435103007 #
edge $-1 $470 -1.6050087656005623 $425 1.6050087656005623 $464 $489 forward 7 unknown #
vertex $-1 $465 $490 #
straight-curve $-1 0 -25.665264179080705 7.693626435103007 1 0 0 I I #
straight-curve $-1 -49.761991813584643 0 4.4836089039018825 0 1 0 I I #
point $-1 -49.761991813584643 -25.665264179080705 4.4836089039018825 #
straight-curve $-1 41.88116092410047 0 7.693626435103007 0 1 0 I I #
straight-curve $-1 0 -25.665264179080705 7.693626435103007 1 0 0 I I #
point $-1 41.88116092410047 -25.665264179080705 7.693626435103007 #
point $-1 38.078271981780858 -24.006057587461523 4.0582051625983429 #
point $-1 38.078271981780858 -21.517247700032748 4.0582051625983429 #
point $-1 38.078271981780858 -19.028437812603975 4.0582051625983429 #
edge $-1 $452 -41.88116092410047 $446 -36.620753552187885 $443 $491 forward 7 unknown #
straight-curve $-1 36.620753552187878 10.758623850016372 7.6936264351030133 0 -1 0 I I #
point $-1 36.620753552187885 25.665264179080701 7.693626435102999 #
straight-curve $-1 41.88116092410047 25.665264179080705 0 0 0 -1 I I #
point $-1 41.88116092410047 25.665264179080705 7.693626435103007 #
point $-1 38.078271981780858 19.028437812603972 4.0582051625983429 #
point $-1 38.078271981780858 21.517247700032744 4.0582051625983429 #
point $-1 38.078271981780858 24.006057587461523 4.0582051625983429 #
straight-curve $-1 -49.761991813584643 0 7.693626435103007 0 -1 0 I I #
straight-curve $-1 -49.761991813584643 -25.665264179080705 6.0886176695024448 0 0 -1 I I #
point $-1 -49.761991813584643 -25.665264179080705 7.693626435103007 #
straight-curve $-1 0 25.665264179080705 7.693626435103007 -1 0 0 I I #
End-of-ACIS-data 