500 0 10 0           
7 Unknown 11 ACIS 5.0 NT 24 Fri Mar 26 15:21:36 1999 
-1 9.9999999999999995e-007 1e-010 
body $-1 $10 $-1 $11 #
body $-1 $12 $-1 $13 #
body $-1 $14 $-1 $15 #
body $-1 $16 $-1 $17 #
body $-1 $18 $-1 $19 #
body $-1 $20 $-1 $21 #
body $-1 $22 $-1 $23 #
body $-1 $24 $-1 $25 #
body $-1 $26 $-1 $27 #
body $-1 $28 $-1 $29 #
lump $-1 $-1 $30 $0 #
transform $-1 1 0 0 0 1 0 0 0 1 70.666219061861014 44.842327943036089 11.033153236779421 1 rotate no_reflect no_shear #
lump $-1 $-1 $31 $1 #
transform $-1 1 0 0 0 1 0 0 0 1 70.666219061861014 44.842327943036089 11.033153236779421 1 rotate no_reflect no_shear #
lump $-1 $-1 $32 $2 #
transform $-1 1 0 0 0 1 0 0 0 1 70.666219061861014 44.842327943036089 11.033153236779421 1 rotate no_reflect no_shear #
lump $-1 $-1 $33 $3 #
transform $-1 1 0 0 0 1 0 0 0 1 70.666219061861014 44.842327943036089 11.033153236779421 1 rotate no_reflect no_shear #
lump $-1 $-1 $34 $4 #
transform $-1 1 0 0 0 1 0 0 0 1 70.666219061861014 44.842327943036089 11.033153236779421 1 rotate no_reflect no_shear #
lump $-1 $-1 $35 $5 #
transform $-1 1 0 0 0 1 0 0 0 1 70.666219061861014 44.842327943036089 11.033153236779421 1 rotate no_reflect no_shear #
lump $-1 $-1 $36 $6 #
transform $-1 1 0 0 0 1 0 0 0 1 70.666219061861014 44.842327943036089 11.033153236779421 1 rotate no_reflect no_shear #
lump $-1 $-1 $37 $7 #
transform $-1 1 0 0 0 1 0 0 0 1 70.666219061861014 44.842327943036089 11.033153236779421 1 rotate no_reflect no_shear #
lump $-1 $-1 $38 $8 #
transform $-1 1 0 0 0 1 0 0 0 1 70.666219061861014 44.842327943036089 11.033153236779421 1 rotate no_reflect no_shear #
lump $-1 $-1 $39 $9 #
transform $-1 1 0 0 0 1 0 0 0 1 70.666219061861014 44.842327943036089 11.033153236779421 1 rotate no_reflect no_shear #
shell $-1 $-1 $-1 $40 $-1 $10 #
shell $-1 $-1 $-1 $41 $-1 $12 #
shell $-1 $-1 $-1 $42 $-1 $14 #
shell $-1 $-1 $-1 $43 $-1 $16 #
shell $-1 $-1 $-1 $44 $-1 $18 #
shell $-1 $-1 $-1 $45 $-1 $20 #
shell $-1 $-1 $-1 $46 $-1 $22 #
shell $-1 $-1 $-1 $47 $-1 $24 #
shell $-1 $-1 $-1 $48 $-1 $26 #
shell $-1 $-1 $-1 $49 $-1 $28 #
face $-1 $50 $51 $30 $-1 $52 forward single #
face $-1 $53 $54 $31 $-1 $55 forward single #
face $-1 $56 $57 $32 $-1 $58 reversed single #
face $-1 $59 $60 $33 $-1 $61 reversed single #
face $-1 $62 $63 $34 $-1 $64 forward single #
face $-1 $65 $66 $35 $-1 $67 forward single #
face $-1 $68 $69 $36 $-1 $70 reversed single #
face $-1 $71 $72 $37 $-1 $73 forward single #
face $-1 $74 $75 $38 $-1 $76 forward single #
face $-1 $77 $78 $39 $-1 $79 forward single #
face $-1 $80 $81 $30 $-1 $82 reversed single #
loop $-1 $-1 $83 $40 #
plane-surface $-1 0 0 11.033153236779421 0 0 1 1 0 0 forward_v I I I I #
face $-1 $84 $85 $31 $-1 $86 forward single #
loop $-1 $-1 $87 $41 #
plane-surface $-1 0 -44.842327943036089 0 0 1 0 0 0 1 forward_v I I I I #
face $-1 $88 $89 $32 $-1 $90 reversed single #
loop $-1 $-1 $91 $42 #
plane-surface $-1 -50.746439538256247 37.438219119608419 0 0 1 0 0 0 1 forward_v I I I I #
face $-1 $92 $93 $33 $-1 $94 reversed single #
loop $-1 $-1 $95 $43 #
plane-surface $-1 -190.52292525783585 -23.542649803272191 81.900468080619746 0 1 0 -0.84804810408105047 0 0.52991925155115449 forward_v I I I I #
face $-1 $96 $97 $34 $-1 $98 forward single #
loop $-1 $99 $100 $44 #
cone-surface $-1 -68.809086891938762 -19.938371121137514 8.6452411810278953 0.84804810408105047 0 -0.52991925155115449 0.26495962577557725 0 0.42402405204052523 1 I I 0 1 0.5 forward I I I I #
face $-1 $101 $102 $35 $-1 $103 forward single #
loop $-1 $104 $105 $45 #
cone-surface $-1 -68.809086891938762 -14.531953097935499 8.6452411810278953 0.84804810408105047 0 -0.52991925155115449 0.26495962577557725 0 0.42402405204052523 1 I I 0 1 0.5 forward I I I I #
face $-1 $106 $107 $36 $-1 $108 reversed single #
loop $-1 $-1 $109 $46 #
plane-surface $-1 32.528415785468425 14.141891194225558 200.78035863357402 0 -1 0 -0.55919291073839883 0 -0.82903756765294845 forward_v I I I I #
face $-1 $110 $111 $37 $-1 $112 forward single #
loop $-1 $113 $114 $47 #
cone-surface $-1 65.33737721982429 -0.61736375805246979 6.999199203551715 -0.55919291073839883 0 -0.82903756765294845 0.82903756765294845 0 -0.55919291073839883 1 I I 0 1 1 forward I I I I #
face $-1 $115 $116 $38 $-1 $117 forward single #
loop $-1 $118 $119 $48 #
cone-surface $-1 65.33737721982429 4.9173568490517923 6.999199203551715 -0.55919291073839883 0 -0.82903756765294845 0.82903756765294845 0 -0.55919291073839883 1 I I 0 1 1 forward I I I I #
face $-1 $120 $121 $39 $-1 $122 forward single #
loop $-1 $123 $124 $49 #
cone-surface $-1 65.33737721982429 10.452077456156054 6.999199203551715 -0.55919291073839883 0 -0.82903756765294845 0.82903756765294845 0 -0.55919291073839883 1 I I 0 1 1 forward I I I I #
face $-1 $125 $126 $30 $-1 $127 reversed single #
loop $-1 $-1 $128 $50 #
plane-surface $-1 0 0 -11.033153236779421 0 0 1 1 0 0 forward_v I I I I #
coedge $-1 $129 $130 $131 $132 forward $51 $-1 #
face $-1 $133 $134 $31 $-1 $135 reversed single #
loop $-1 $-1 $136 $53 #
plane-surface $-1 0 0 11.033153236779421 0 0 1 1 0 0 forward_v I I I I #
coedge $-1 $137 $138 $139 $140 forward $54 $-1 #
face $-1 $141 $142 $32 $-1 $143 reversed single #
loop $-1 $-1 $144 $56 #
plane-surface $-1 -52.89296648821032 41.140273531322258 0 1 0 0 0 0 -1 forward_v I I I I #
coedge $-1 $145 $146 $147 $148 forward $57 $-1 #
face $-1 $149 $150 $33 $-1 $151 reversed single #
loop $-1 $-1 $152 $59 #
plane-surface $-1 -70.666219061861014 -17.235162109536507 7.0056882501971103 -0.84804810408105047 0 0.52991925155115449 0.52991925155115449 0 0.84804810408105047 forward_v I I I I #
coedge $-1 $153 $154 $155 $156 reversed $60 $-1 #
face $-1 $-1 $157 $34 $-1 $158 forward single #
loop $-1 $159 $160 $62 #
cone-surface $-1 -67.998262372125254 -19.938371121137514 8.138581805679733 0.84804810408105047 0 -0.52991925155115449 0.13247981288778862 0 0.21201202602026262 1 I I -0.70710678118654746 0.70710678118654746 0.25 forward I I I I #
loop $-1 $-1 $161 $44 #
coedge $-1 $100 $100 $162 $163 reversed $63 $-1 #
face $-1 $-1 $164 $35 $-1 $165 forward single #
loop $-1 $166 $167 $65 #
cone-surface $-1 -67.998262372125254 -14.531953097935499 8.138581805679733 0.84804810408105047 0 -0.52991925155115449 0.13247981288778862 0 0.21201202602026262 1 I I -0.70710678118654746 0.70710678118654746 0.25 forward I I I I #
loop $-1 $-1 $168 $45 #
coedge $-1 $105 $105 $169 $170 reversed $66 $-1 #
face $-1 $171 $172 $36 $-1 $173 reversed single #
loop $-1 $-1 $174 $68 #
plane-surface $-1 -46.503681670690341 4.9173568490517923 83.61045790102267 0.55919291073839883 0 0.82903756765294845 0.82903756765294845 0 -0.55919291073839883 forward_v I I I I #
coedge $-1 $175 $176 $177 $178 reversed $69 $-1 #
face $-1 $-1 $179 $37 $-1 $180 forward single #
loop $-1 $181 $182 $71 #
cone-surface $-1 64.51375075850477 -0.61736375805246979 5.7781227824552897 -0.55919291073839883 0 -0.82903756765294845 0.41451878382647422 0 -0.27959645536919941 1 I I -0.70710678118654746 0.70710678118654746 0.5 forward I I I I #
loop $-1 $-1 $183 $47 #
coedge $-1 $114 $114 $184 $185 reversed $72 $-1 #
face $-1 $-1 $186 $38 $-1 $187 forward single #
loop $-1 $188 $189 $74 #
cone-surface $-1 64.51375075850477 4.9173568490517923 5.7781227824552897 -0.55919291073839883 0 -0.82903756765294845 0.41451878382647422 0 -0.27959645536919941 1 I I -0.70710678118654746 0.70710678118654746 0.5 forward I I I I #
loop $-1 $-1 $190 $48 #
coedge $-1 $119 $119 $191 $192 reversed $75 $-1 #
face $-1 $-1 $193 $39 $-1 $194 forward single #
loop $-1 $195 $196 $77 #
cone-surface $-1 64.51375075850477 10.452077456156054 5.7781227824552897 -0.55919291073839883 0 -0.82903756765294845 0.41451878382647422 0 -0.27959645536919941 1 I I -0.70710678118654746 0.70710678118654746 0.5 forward I I I I #
loop $-1 $-1 $197 $49 #
coedge $-1 $124 $124 $198 $199 reversed $78 $-1 #
face $-1 $200 $201 $30 $-1 $202 reversed single #
loop $-1 $-1 $203 $80 #
plane-surface $-1 0 -44.842327943036089 0 0 1 0 0 0 1 forward_v I I I I #
coedge $-1 $204 $205 $206 $207 forward $81 $-1 #
coedge $-1 $208 $83 $209 $210 forward $51 $-1 #
coedge $-1 $83 $208 $211 $212 forward $51 $-1 #
coedge $-1 $213 $214 $83 $132 reversed $215 $-1 #
edge $-1 $216 -44.842327943036089 $217 44.842327943036089 $131 $218 forward 7 unknown #
face $-1 $219 $220 $31 $-1 $221 reversed single #
loop $-1 $-1 $222 $84 #
plane-surface $-1 -70.666219061861014 0 0 1 0 0 0 0 -1 forward_v I I I I #
coedge $-1 $223 $224 $225 $226 forward $85 $-1 #
coedge $-1 $225 $87 $222 $227 reversed $54 $-1 #
coedge $-1 $87 $225 $228 $229 reversed $54 $-1 #
coedge $-1 $230 $231 $87 $140 reversed $220 $-1 #
edge $-1 $232 -70.666219061861014 $233 70.666219061861014 $139 $234 forward 7 unknown #
face $-1 $235 $236 $32 $-1 $237 reversed single #
loop $-1 $-1 $238 $88 #
plane-surface $-1 -48.599912588302175 41.140273531322258 0 -1 0 0 0 0 1 forward_v I I I I #
coedge $-1 $239 $240 $241 $242 reversed $89 $-1 #
coedge $-1 $243 $91 $244 $245 reversed $57 $-1 #
coedge $-1 $91 $243 $246 $247 reversed $57 $-1 #
coedge $-1 $240 $239 $91 $148 reversed $89 $-1 #
edge $-1 $248 -11.033153236779421 $249 11.033153236779421 $147 $250 forward 7 unknown #
face $-1 $251 $252 $33 $-1 $253 forward single #
loop $-1 $-1 $254 $92 #
plane-surface $-1 -190.52292525783585 -10.927674415800823 81.900468080619746 0 -1 0 0.84804810408105047 0 -0.52991925155115449 forward_v I I I I #
coedge $-1 $255 $256 $257 $258 reversed $93 $-1 #
coedge $-1 $154 $95 $259 $260 reversed $60 $-1 #
coedge $-1 $95 $153 $255 $261 reversed $60 $-1 #
coedge $-1 $257 $262 $95 $156 forward $252 $-1 #
edge $-1 $263 24.595243567056912 $264 27.111882919314937 $155 $265 forward 7 unknown #
loop $-1 $-1 $162 $96 #
plane-surface $-1 -70.666219061861014 -17.235162109536507 7.0056882501971103 -0.84804810408105047 0 0.52991925155115449 0.52991925155115449 0 0.84804810408105047 forward_v I I I I #
loop $-1 $-1 $266 $62 #
coedge $-1 $160 $160 $161 $267 reversed $97 $-1 #
coedge $-1 $161 $161 $160 $267 forward $99 $-1 #
coedge $-1 $162 $162 $100 $163 forward $157 $-1 #
edge $-1 $268 0 $268 6.2831853071796004 $162 $269 forward 7 unknown #
loop $-1 $-1 $169 $101 #
plane-surface $-1 -70.666219061861014 -17.235162109536507 7.0056882501971103 -0.84804810408105047 0 0.52991925155115449 0.52991925155115449 0 0.84804810408105047 forward_v I I I I #
loop $-1 $-1 $270 $65 #
coedge $-1 $167 $167 $168 $271 reversed $102 $-1 #
coedge $-1 $168 $168 $167 $271 forward $104 $-1 #
coedge $-1 $169 $169 $105 $170 forward $164 $-1 #
edge $-1 $272 0 $272 6.2831853071796004 $169 $273 forward 7 unknown #
face $-1 $274 $275 $36 $-1 $276 reversed single #
loop $-1 $-1 $277 $106 #
plane-surface $-1 32.528415785468425 -4.3071774961219731 200.78035863357402 0 1 0 0.55919291073839883 0 0.82903756765294845 forward_v I I I I #
coedge $-1 $278 $279 $280 $281 reversed $107 $-1 #
coedge $-1 $176 $109 $282 $283 reversed $69 $-1 #
coedge $-1 $109 $175 $278 $284 reversed $69 $-1 #
coedge $-1 $280 $285 $109 $178 forward $286 $-1 #
edge $-1 $287 -54.402011169126801 $288 -44.83238749695392 $177 $289 forward 7 unknown #
loop $-1 $-1 $184 $110 #
plane-surface $-1 -46.503681670690341 4.9173568490517923 83.61045790102267 0.55919291073839883 0 0.82903756765294845 0.82903756765294845 0 -0.55919291073839883 forward_v I I I I #
loop $-1 $-1 $290 $71 #
coedge $-1 $182 $182 $183 $291 reversed $111 $-1 #
coedge $-1 $183 $183 $182 $291 forward $113 $-1 #
coedge $-1 $184 $184 $114 $185 forward $179 $-1 #
edge $-1 $292 0 $292 6.2831853071796004 $184 $293 forward 7 unknown #
loop $-1 $-1 $191 $115 #
plane-surface $-1 -46.503681670690341 4.9173568490517923 83.61045790102267 0.55919291073839883 0 0.82903756765294845 0.82903756765294845 0 -0.55919291073839883 forward_v I I I I #
loop $-1 $-1 $294 $74 #
coedge $-1 $189 $189 $190 $295 reversed $116 $-1 #
coedge $-1 $190 $190 $189 $295 forward $118 $-1 #
coedge $-1 $191 $191 $119 $192 forward $186 $-1 #
edge $-1 $296 0 $296 6.2831853071796004 $191 $297 forward 7 unknown #
loop $-1 $-1 $198 $120 #
plane-surface $-1 -46.503681670690341 4.9173568490517923 83.61045790102267 0.55919291073839883 0 0.82903756765294845 0.82903756765294845 0 -0.55919291073839883 forward_v I I I I #
loop $-1 $-1 $298 $77 #
coedge $-1 $196 $196 $197 $299 reversed $121 $-1 #
coedge $-1 $197 $197 $196 $299 forward $123 $-1 #
coedge $-1 $198 $198 $124 $199 forward $193 $-1 #
edge $-1 $300 0 $300 6.2831853071796004 $198 $301 forward 7 unknown #
face $-1 $302 $303 $30 $-1 $304 reversed single #
loop $-1 $-1 $305 $125 #
plane-surface $-1 -70.666219061861014 0 0 1 0 0 0 0 -1 forward_v I I I I #
coedge $-1 $306 $211 $307 $308 forward $126 $-1 #
coedge $-1 $309 $128 $306 $310 forward $81 $-1 #
coedge $-1 $128 $309 $311 $312 forward $81 $-1 #
coedge $-1 $214 $213 $128 $207 reversed $215 $-1 #
edge $-1 $313 -44.842327943036089 $314 44.842327943036089 $206 $315 forward 7 unknown #
coedge $-1 $130 $129 $316 $317 forward $51 $-1 #
coedge $-1 $318 $319 $129 $210 reversed $303 $-1 #
edge $-1 $217 -70.666219061861014 $320 70.666219061861014 $209 $321 forward 7 unknown #
coedge $-1 $203 $322 $130 $212 reversed $126 $-1 #
edge $-1 $323 -70.666219061861014 $216 70.666219061861014 $211 $324 forward 7 unknown #
coedge $-1 $206 $131 $322 $325 forward $215 $-1 #
coedge $-1 $131 $206 $318 $326 reversed $215 $-1 #
loop $-1 $-1 $213 $302 #
vertex $-1 $132 $327 #
vertex $-1 $132 $328 #
straight-curve $-1 70.666219061861014 0 11.033153236779421 0 1 0 I I #
face $-1 $329 $330 $31 $-1 $331 reversed single #
loop $-1 $-1 $230 $133 #
plane-surface $-1 0 -51.085607086745476 5.8667942971999256 0 0 1 1 0 0 forward_v I I I I #
coedge $-1 $332 $333 $137 $227 forward $134 $-1 #
coedge $-1 $334 $136 $333 $335 forward $85 $-1 #
coedge $-1 $136 $334 $336 $337 forward $85 $-1 #
coedge $-1 $138 $137 $136 $226 reversed $54 $-1 #
edge $-1 $338 -70.666219061861014 $339 70.666219061861014 $136 $340 forward 7 unknown #
edge $-1 $339 -11.033153236779421 $233 -5.8667942971999256 $222 $341 forward 7 unknown #
coedge $-1 $336 $342 $138 $229 forward $343 $-1 #
edge $-1 $232 5.8667942971999256 $338 11.033153236779421 $228 $344 forward 7 unknown #
coedge $-1 $345 $139 $342 $346 forward $220 $-1 #
coedge $-1 $139 $345 $332 $347 forward $220 $-1 #
vertex $-1 $229 $348 #
vertex $-1 $227 $349 #
straight-curve $-1 0 -44.842327943036089 5.8667942971999256 -1 0 0 I I #
face $-1 $350 $351 $32 $-1 $352 reversed single #
loop $-1 $-1 $353 $141 #
plane-surface $-1 0 44.842327943036089 0 0 -1 0 0 0 -1 forward_v I I I I #
coedge $-1 $354 $355 $243 $356 forward $142 $-1 #
coedge $-1 $147 $144 $357 $358 reversed $89 $-1 #
coedge $-1 $144 $147 $359 $360 reversed $89 $-1 #
coedge $-1 $361 $362 $144 $242 forward $236 $-1 #
edge $-1 $363 -11.033153236779421 $364 11.033153236779421 $241 $365 forward 7 unknown #
coedge $-1 $146 $145 $238 $356 reversed $57 $-1 #
coedge $-1 $357 $366 $145 $245 forward $351 $-1 #
edge $-1 $367 23.226692819174051 $249 27.519746719082196 $244 $368 forward 7 unknown #
coedge $-1 $369 $359 $146 $247 forward $370 $-1 #
edge $-1 $248 -27.519746719082196 $371 -23.226692819174051 $246 $372 forward 7 unknown #
vertex $-1 $247 $373 #
vertex $-1 $245 $374 #
straight-curve $-1 -52.89296648821032 37.438219119608419 0 0 0 -1 I I #
face $-1 $-1 $375 $33 $-1 $376 reversed single #
loop $-1 $-1 $155 $149 #
plane-surface $-1 0 0 11.033153236779421 0 0 1 1 0 0 forward_v I I I I #
coedge $-1 $377 $378 $379 $380 reversed $150 $-1 #
coedge $-1 $381 $152 $154 $261 forward $93 $-1 #
coedge $-1 $152 $381 $377 $382 forward $93 $-1 #
coedge $-1 $379 $155 $152 $258 forward $252 $-1 #
edge $-1 $264 -14.925068748503937 $383 -2.3100933610325693 $257 $384 forward 7 unknown #
coedge $-1 $385 $386 $153 $260 forward $375 $-1 #
edge $-1 $387 -33.944545790112763 $263 -29.917080803530453 $259 $388 forward 7 unknown #
edge $-1 $264 -4.7490996880966971 $387 0 $154 $389 forward 7 unknown #
coedge $-1 $155 $379 $385 $390 forward $252 $-1 #
vertex $-1 $260 $391 #
vertex $-1 $156 $392 #
straight-curve $-1 -95.261462628917926 -23.542649803272191 11.03315323677942 1 0 0 I I #
coedge $-1 $266 $266 $-1 $393 reversed $159 $-1 #
edge $-1 $394 0 $394 6.2831853071796004 $160 $395 forward 7 unknown #
vertex $-1 $163 $396 #
ellipse-curve $-1 -69.407899385732009 -19.938371121137514 9.0194207434882667 -0.84804810408105047 0 0.52991925155115449 0.26495962577557725 0 0.42402405204052523 1 I I #
coedge $-1 $270 $270 $-1 $397 reversed $166 $-1 #
edge $-1 $398 0 $398 6.2831853071796004 $167 $399 forward 7 unknown #
vertex $-1 $170 $400 #
ellipse-curve $-1 -69.407899385732009 -14.531953097935499 9.0194207434882667 -0.84804810408105047 0 0.52991925155115449 0.26495962577557725 0 0.42402405204052523 1 I I #
face $-1 $-1 $286 $36 $-1 $401 forward single #
loop $-1 $-1 $402 $171 #
plane-surface $-1 70.666219061861014 0 0 -1 0 0 0 0 1 forward_v I I I I #
coedge $-1 $403 $404 $405 $406 reversed $172 $-1 #
coedge $-1 $407 $174 $176 $284 forward $107 $-1 #
coedge $-1 $174 $407 $403 $408 forward $107 $-1 #
coedge $-1 $405 $177 $174 $281 forward $286 $-1 #
edge $-1 $288 -11.683212769699661 $409 6.7658559206478692 $280 $410 forward 7 unknown #
coedge $-1 $411 $412 $175 $283 forward $275 $-1 #
edge $-1 $413 -95.811818871923109 $287 -89.357026080007586 $282 $414 forward 7 unknown #
edge $-1 $288 129.78938622166527 $413 141.33243812372203 $176 $415 forward 7 unknown #
coedge $-1 $177 $405 $411 $416 forward $286 $-1 #
loop $-1 $-1 $405 $274 #
vertex $-1 $283 $417 #
vertex $-1 $178 $418 #
straight-curve $-1 16.264207892734213 14.141891194225558 11.033153236779427 -1 0 0 I I #
coedge $-1 $290 $290 $-1 $419 reversed $181 $-1 #
edge $-1 $420 0 $420 6.2831853071796004 $182 $421 forward 7 unknown #
vertex $-1 $185 $422 #
ellipse-curve $-1 65.881407225774595 -0.61736375805246979 7.8057568408216502 0.55919291073839883 0 0.82903756765294845 0.82903756765294845 0 -0.55919291073839883 1 I I #
coedge $-1 $294 $294 $-1 $423 reversed $188 $-1 #
edge $-1 $424 0 $424 6.2831853071796004 $189 $425 forward 7 unknown #
vertex $-1 $192 $426 #
ellipse-curve $-1 65.881407225774595 4.9173568490517923 7.8057568408216502 0.55919291073839883 0 0.82903756765294845 0.82903756765294845 0 -0.55919291073839883 1 I I #
coedge $-1 $298 $298 $-1 $427 reversed $195 $-1 #
edge $-1 $428 0 $428 6.2831853071796004 $196 $429 forward 7 unknown #
vertex $-1 $199 $430 #
ellipse-curve $-1 65.881407225774595 10.452077456156054 7.8057568408216502 0.55919291073839883 0 0.82903756765294845 0.82903756765294845 0 -0.55919291073839883 1 I I #
face $-1 $-1 $215 $30 $-1 $431 reversed single #
loop $-1 $-1 $318 $200 #
plane-surface $-1 0 44.842327943036089 0 0 -1 0 0 0 -1 forward_v I I I I #
coedge $-1 $432 $316 $319 $433 forward $201 $-1 #
coedge $-1 $322 $203 $204 $310 reversed $126 $-1 #
coedge $-1 $316 $432 $203 $308 reversed $201 $-1 #
edge $-1 $323 -11.033153236779421 $434 11.033153236779421 $307 $435 forward 7 unknown #
coedge $-1 $205 $204 $432 $436 forward $81 $-1 #
edge $-1 $314 -70.666219061861014 $434 70.666219061861014 $306 $437 forward 7 unknown #
coedge $-1 $319 $318 $205 $312 reversed $303 $-1 #
edge $-1 $438 -70.666219061861014 $313 70.666219061861014 $311 $439 forward 7 unknown #
vertex $-1 $207 $440 #
vertex $-1 $325 $441 #
straight-curve $-1 70.666219061861014 0 -11.033153236779421 0 -1 0 I I #
coedge $-1 $305 $307 $208 $317 reversed $201 $-1 #
edge $-1 $320 -44.842327943036089 $323 44.842327943036089 $316 $442 forward 7 unknown #
coedge $-1 $311 $209 $214 $326 forward $303 $-1 #
coedge $-1 $209 $311 $305 $433 reversed $303 $-1 #
vertex $-1 $210 $443 #
straight-curve $-1 0 44.842327943036089 11.033153236779421 -1 0 0 I I #
coedge $-1 $211 $306 $213 $325 reversed $126 $-1 #
vertex $-1 $317 $444 #
straight-curve $-1 0 -44.842327943036089 11.033153236779421 1 0 0 I I #
edge $-1 $216 -11.033153236779421 $314 11.033153236779421 $213 $445 forward 7 unknown #
edge $-1 $217 -11.033153236779421 $313 11.033153236779421 $214 $446 forward 7 unknown #
point $-1 70.666219061861014 -44.842327943036089 11.033153236779421 #
point $-1 70.666219061861014 44.842327943036089 11.033153236779421 #
face $-1 $-1 $343 $31 $-1 $447 reversed single #
loop $-1 $-1 $448 $219 #
plane-surface $-1 0 -57.328886230454863 8.4499737669896735 0 1 0 0 0 1 forward_v I I I I #
coedge $-1 $449 $222 $231 $347 reversed $134 $-1 #
coedge $-1 $222 $449 $223 $335 reversed $134 $-1 #
coedge $-1 $224 $223 $450 $451 forward $85 $-1 #
edge $-1 $339 44.842327943036089 $452 57.328886230454863 $333 $453 forward 7 unknown #
coedge $-1 $454 $228 $224 $337 reversed $343 $-1 #
edge $-1 $455 -57.328886230454863 $338 -44.842327943036089 $336 $456 forward 7 unknown #
vertex $-1 $229 $457 #
vertex $-1 $335 $458 #
straight-curve $-1 0 -44.842327943036089 11.033153236779421 -1 0 0 I I #
straight-curve $-1 -70.666219061861014 -44.842327943036089 0 0 0 -1 I I #
coedge $-1 $228 $454 $230 $346 reversed $343 $-1 #
loop $-1 $-1 $228 $329 #
straight-curve $-1 70.666219061861014 -44.842327943036089 0 0 0 1 I I #
coedge $-1 $231 $230 $459 $460 forward $220 $-1 #
edge $-1 $232 -6.2432791437093869 $461 6.2432791437093869 $342 $462 forward 7 unknown #
edge $-1 $463 -6.2432791437093869 $233 6.2432791437093869 $332 $464 forward 7 unknown #
point $-1 70.666219061861014 -44.842327943036089 5.8667942971999256 #
point $-1 -70.666219061861014 -44.842327943036089 5.8667942971999256 #
face $-1 $-1 $370 $32 $-1 $465 forward single #
loop $-1 $-1 $366 $235 #
plane-surface $-1 0 0 -11.033153236779421 0 0 1 1 0 0 forward_v I I I I #
coedge $-1 $362 $361 $466 $467 forward $236 $-1 #
coedge $-1 $466 $238 $366 $468 reversed $142 $-1 #
coedge $-1 $238 $466 $369 $469 reversed $142 $-1 #
edge $-1 $371 -11.033153236779421 $367 11.033153236779421 $238 $470 forward 7 unknown #
coedge $-1 $471 $244 $239 $358 forward $351 $-1 #
edge $-1 $249 16.86808235394729 $363 24.272191177374967 $357 $472 forward 7 unknown #
coedge $-1 $246 $473 $240 $360 forward $370 $-1 #
edge $-1 $364 -24.272191177374967 $248 -16.86808235394729 $359 $474 forward 7 unknown #
coedge $-1 $353 $241 $473 $475 reversed $236 $-1 #
coedge $-1 $241 $353 $471 $476 reversed $236 $-1 #
vertex $-1 $476 $477 #
vertex $-1 $242 $478 #
straight-curve $-1 -52.89296648821032 44.842327943036089 0 0 0 1 I I #
coedge $-1 $244 $471 $354 $468 forward $351 $-1 #
vertex $-1 $245 $479 #
straight-curve $-1 -25.373219769128124 37.438219119608419 -11.033153236779421 -1 0 0 I I #
coedge $-1 $473 $246 $355 $469 forward $370 $-1 #
loop $-1 $-1 $369 $350 #
vertex $-1 $247 $480 #
straight-curve $-1 -25.373219769128124 37.438219119608419 11.033153236779421 1 0 0 I I #
point $-1 -52.89296648821032 37.438219119608419 11.033153236779421 #
point $-1 -52.89296648821032 37.438219119608419 -11.033153236779421 #
loop $-1 $-1 $259 $251 #
plane-surface $-1 -70.666219061861014 0 0 1 0 0 0 0 -1 forward_v I I I I #
coedge $-1 $378 $254 $256 $382 reversed $150 $-1 #
coedge $-1 $254 $377 $481 $482 reversed $150 $-1 #
coedge $-1 $262 $257 $254 $380 forward $252 $-1 #
edge $-1 $383 -27.111882919314937 $483 -24.595243567056912 $379 $484 forward 7 unknown #
coedge $-1 $256 $255 $386 $485 reversed $93 $-1 #
edge $-1 $486 0 $383 4.7490996880966971 $377 $487 forward 7 unknown #
vertex $-1 $258 $488 #
straight-curve $-1 -68.149579709602989 -8.6175810547682534 11.033153236779423 0 1 0 I I #
coedge $-1 $481 $259 $262 $390 reversed $375 $-1 #
coedge $-1 $259 $481 $381 $485 forward $375 $-1 #
vertex $-1 $260 $489 #
straight-curve $-1 -70.666219061861014 -23.542649803272191 40.950234040309873 0 0 1 I I #
straight-curve $-1 -70.666219061861014 -23.542649803272191 7.0056882501971103 -0.52991925155115449 0 -0.84804810408105047 I I #
edge $-1 $483 10.927674415800823 $263 23.542649803272191 $385 $490 forward 7 unknown #
point $-1 -70.666219061861014 -23.542649803272191 11.033153236779421 #
point $-1 -68.149579709602989 -23.542649803272191 11.033153236779421 #
edge $-1 $491 1 $491 0 $266 $-1 forward 7 unknown #
vertex $-1 $267 $492 #
ellipse-curve $-1 -68.210274398145515 -19.938371121137514 8.2710616185675221 -0.84804810408105047 0 0.52991925155115449 0.26495962577557725 0 0.42402405204052523 1 I I #
point $-1 -69.142939759956434 -19.938371121137514 9.4434447955287943 #
edge $-1 $493 1 $493 0 $270 $-1 forward 7 unknown #
vertex $-1 $271 $494 #
ellipse-curve $-1 -68.210274398145515 -14.531953097935499 8.2710616185675221 -0.84804810408105047 0 0.52991925155115449 0.26495962577557725 0 0.42402405204052523 1 I I #
point $-1 -69.142939759956434 -14.531953097935499 9.4434447955287943 #
plane-surface $-1 0 0 11.033153236779421 0 0 1 1 0 0 forward_v I I I I #
coedge $-1 $412 $411 $404 $495 forward $275 $-1 #
coedge $-1 $404 $277 $279 $408 reversed $172 $-1 #
coedge $-1 $277 $403 $402 $495 reversed $172 $-1 #
coedge $-1 $285 $280 $277 $406 forward $286 $-1 #
edge $-1 $409 44.83238749695392 $496 54.402011169126801 $405 $497 forward 7 unknown #
coedge $-1 $279 $278 $412 $498 reversed $107 $-1 #
edge $-1 $499 -141.33243812372203 $409 -129.78938622166527 $403 $500 forward 7 unknown #
vertex $-1 $281 $501 #
straight-curve $-1 61.096595389688147 2.4586784245258961 11.03315323677942 0 -1 0 I I #
coedge $-1 $402 $282 $285 $416 reversed $275 $-1 #
coedge $-1 $282 $402 $407 $498 forward $275 $-1 #
vertex $-1 $283 $502 #
straight-curve $-1 70.666219061861014 14.141891194225558 100.39017931678701 0 0 1 I I #
straight-curve $-1 -46.503681670690341 14.141891194225558 83.61045790102267 0.82903756765294845 0 -0.55919291073839883 I I #
edge $-1 $496 -4.3071774961219731 $287 14.141891194225558 $411 $503 forward 7 unknown #
point $-1 70.666219061861014 14.141891194225558 11.033153236779421 #
point $-1 61.096595389688133 14.141891194225558 11.033153236779427 #
edge $-1 $504 1 $504 0 $290 $-1 forward 7 unknown #
vertex $-1 $291 $505 #
ellipse-curve $-1 64.793347213873972 -0.61736375805246979 6.1926415662817638 0.55919291073839883 0 0.82903756765294845 0.82903756765294845 0 -0.55919291073839883 1 I I #
point $-1 66.710444793427556 -0.61736375805246979 7.2465639300832683 #
edge $-1 $506 1 $506 0 $294 $-1 forward 7 unknown #
vertex $-1 $295 $507 #
ellipse-curve $-1 64.793347213873972 4.9173568490517923 6.1926415662817638 0.55919291073839883 0 0.82903756765294845 0.82903756765294845 0 -0.55919291073839883 1 I I #
point $-1 66.710444793427556 4.9173568490517923 7.2465639300832683 #
edge $-1 $508 1 $508 0 $298 $-1 forward 7 unknown #
vertex $-1 $299 $509 #
ellipse-curve $-1 64.793347213873972 10.452077456156054 6.1926415662817638 0.55919291073839883 0 0.82903756765294845 0.82903756765294845 0 -0.55919291073839883 1 I I #
point $-1 66.710444793427556 10.452077456156054 7.2465639300832683 #
plane-surface $-1 70.666219061861014 0 0 -1 0 0 0 0 1 forward_v I I I I #
coedge $-1 $307 $305 $309 $436 reversed $201 $-1 #
edge $-1 $320 -11.033153236779421 $438 11.033153236779421 $319 $510 forward 7 unknown #
vertex $-1 $436 $511 #
straight-curve $-1 -70.666219061861014 -44.842327943036089 0 0 0 -1 I I #
edge $-1 $434 -44.842327943036089 $438 44.842327943036089 $432 $512 forward 7 unknown #
straight-curve $-1 0 -44.842327943036089 -11.033153236779421 -1 0 0 I I #
vertex $-1 $312 $513 #
straight-curve $-1 0 44.842327943036089 -11.033153236779421 1 0 0 I I #
point $-1 70.666219061861014 44.842327943036089 -11.033153236779421 #
point $-1 70.666219061861014 -44.842327943036089 -11.033153236779421 #
straight-curve $-1 -70.666219061861014 0 11.033153236779421 0 -1 0 I I #
point $-1 -70.666219061861014 44.842327943036089 11.033153236779421 #
point $-1 -70.666219061861014 -44.842327943036089 11.033153236779421 #
straight-curve $-1 70.666219061861014 -44.842327943036089 0 0 0 -1 I I #
straight-curve $-1 70.666219061861014 44.842327943036089 0 0 0 -1 I I #
plane-surface $-1 70.666219061861014 0 0 -1 0 0 0 0 1 forward_v I I I I #
coedge $-1 $459 $450 $449 $514 forward $330 $-1 #
coedge $-1 $333 $332 $448 $514 reversed $134 $-1 #
coedge $-1 $448 $515 $334 $451 reversed $330 $-1 #
edge $-1 $452 -70.666219061861014 $455 70.666219061861014 $450 $516 forward 7 unknown #
vertex $-1 $335 $517 #
straight-curve $-1 -70.666219061861014 0 11.033153236779421 0 -1 0 I I #
coedge $-1 $342 $336 $515 $518 forward $343 $-1 #
vertex $-1 $337 $519 #
straight-curve $-1 70.666219061861014 0 11.033153236779421 0 1 0 I I #
point $-1 70.666219061861014 -44.842327943036089 11.033153236779421 #
point $-1 -70.666219061861014 -44.842327943036089 11.033153236779421 #
coedge $-1 $515 $448 $345 $460 reversed $330 $-1 #
edge $-1 $461 -70.666219061861014 $463 70.666219061861014 $459 $520 forward 7 unknown #
vertex $-1 $518 $521 #
straight-curve $-1 70.666219061861014 -51.085607086745476 5.8667942971999256 0 -1 0 I I #
vertex $-1 $347 $522 #
straight-curve $-1 -70.666219061861014 -51.085607086745476 5.8667942971999256 0 1 0 I I #
plane-surface $-1 0 0 11.033153236779421 0 0 1 1 0 0 forward_v I I I I #
coedge $-1 $355 $354 $353 $467 reversed $142 $-1 #
edge $-1 $523 -11.033153236779421 $524 11.033153236779421 $353 $525 forward 7 unknown #
edge $-1 $524 -24.272191177374967 $367 -16.86808235394729 $366 $526 forward 7 unknown #
edge $-1 $371 16.86808235394729 $523 24.272191177374967 $369 $527 forward 7 unknown #
straight-curve $-1 -48.599912588302175 37.438219119608419 0 0 0 -1 I I #
coedge $-1 $366 $357 $362 $476 forward $351 $-1 #
straight-curve $-1 -52.89296648821032 20.570136765661129 -11.033153236779421 0 1 0 I I #
coedge $-1 $359 $369 $361 $475 forward $370 $-1 #
straight-curve $-1 -52.89296648821032 20.570136765661129 11.033153236779421 0 -1 0 I I #
edge $-1 $523 48.599912588302175 $364 52.89296648821032 $361 $528 forward 7 unknown #
edge $-1 $363 -52.89296648821032 $524 -48.599912588302175 $362 $529 forward 7 unknown #
point $-1 -52.89296648821032 44.842327943036096 -11.033153236779421 #
point $-1 -52.89296648821032 44.842327943036096 11.033153236779421 #
point $-1 -48.599912588302175 37.438219119608419 -11.033153236779421 #
point $-1 -48.599912588302175 37.438219119608419 11.033153236779421 #
coedge $-1 $386 $385 $378 $482 forward $375 $-1 #
edge $-1 $483 29.917080803530453 $486 33.944545790112763 $481 $530 forward 7 unknown #
vertex $-1 $390 $531 #
straight-curve $-1 -95.261462628917926 -10.927674415800823 11.03315323677942 -1 0 0 I I #
edge $-1 $486 2.3100933610325693 $387 14.925068748503937 $386 $532 forward 7 unknown #
vertex $-1 $485 $533 #
straight-curve $-1 -70.666219061861014 -10.927674415800823 7.0056882501971103 0.52991925155115449 0 0.84804810408105047 I I #
point $-1 -68.149579709602989 -10.927674415800823 11.033153236779421 #
point $-1 -70.666219061861014 -23.542649803272191 7.0056882501971103 #
straight-curve $-1 -70.666219061861014 0 11.033153236779421 0 -1 0 I I #
vertex $-1 $393 $534 #
point $-1 -67.94531477236994 -19.938371121137514 8.6950856706080462 #
vertex $-1 $397 $535 #
point $-1 -67.94531477236994 -14.531953097935499 8.6950856706080462 #
edge $-1 $496 89.357026080007586 $499 95.811818871923109 $402 $536 forward 7 unknown #
vertex $-1 $416 $537 #
straight-curve $-1 16.264207892734213 -4.3071774961219731 11.033153236779427 1 0 0 I I #
edge $-1 $499 -6.7658559206478692 $413 11.683212769699661 $412 $538 forward 7 unknown #
vertex $-1 $498 $539 #
straight-curve $-1 -46.503681670690341 -4.3071774961219731 83.61045790102267 -0.82903756765294845 0 0.55919291073839883 I I #
point $-1 61.096595389688133 -4.3071774961219731 11.033153236779427 #
point $-1 70.666219061861014 14.141891194225558 4.5783604448639039 #
straight-curve $-1 70.666219061861014 0 11.033153236779421 0 1 0 I I #
vertex $-1 $419 $540 #
point $-1 65.622384781526918 -0.61736375805246979 5.6334486555433649 #
vertex $-1 $423 $541 #
point $-1 65.622384781526918 4.9173568490517923 5.6334486555433649 #
vertex $-1 $427 $542 #
point $-1 65.622384781526918 10.452077456156054 5.6334486555433649 #
straight-curve $-1 -70.666219061861014 44.842327943036089 0 0 0 -1 I I #
point $-1 -70.666219061861014 -44.842327943036089 -11.033153236779421 #
straight-curve $-1 -70.666219061861014 0 -11.033153236779421 0 1 0 I I #
point $-1 -70.666219061861014 44.842327943036089 -11.033153236779421 #
edge $-1 $452 -2.5831794697897479 $463 2.5831794697897479 $449 $543 forward 7 unknown #
coedge $-1 $450 $459 $454 $518 reversed $330 $-1 #
straight-curve $-1 0 -57.328886230454863 11.033153236779421 1 0 0 I I #
point $-1 -70.666219061861014 -57.328886230454863 11.033153236779421 #
edge $-1 $455 -2.5831794697897479 $461 2.5831794697897479 $454 $544 forward 7 unknown #
point $-1 70.666219061861014 -57.328886230454863 11.033153236779421 #
straight-curve $-1 0 -57.328886230454863 5.8667942971999256 -1 0 0 I I #
point $-1 70.666219061861014 -57.328886230454863 5.8667942971999256 #
point $-1 -70.666219061861014 -57.328886230454863 5.8667942971999256 #
vertex $-1 $475 $545 #
vertex $-1 $467 $546 #
straight-curve $-1 -48.599912588302175 44.842327943036089 0 0 0 -1 I I #
straight-curve $-1 -48.599912588302175 20.570136765661129 -11.033153236779421 0 -1 0 I I #
straight-curve $-1 -48.599912588302175 20.570136765661129 11.033153236779421 0 1 0 I I #
straight-curve $-1 0 44.842327943036089 11.033153236779421 -1 0 0 I I #
straight-curve $-1 0 44.842327943036089 -11.033153236779421 1 0 0 I I #
straight-curve $-1 -70.666219061861014 -10.927674415800823 40.950234040309873 0 0 -1 I I #
point $-1 -70.666219061861014 -10.927674415800823 11.033153236779421 #
straight-curve $-1 -70.666219061861014 -8.6175810547682534 7.0056882501971209 0 -1 0 I I #
point $-1 -70.666219061861014 -10.927674415800823 7.0056882501971103 #
point $-1 -67.786250346104993 -19.938371121137514 8.0061019927919439 #
point $-1 -67.786250346104993 -14.531953097935499 8.0061019927919439 #
straight-curve $-1 70.666219061861014 -4.3071774961219731 100.39017931678701 0 0 -1 I I #
point $-1 70.666219061861014 -4.3071774961219731 11.033153236779421 #
straight-curve $-1 70.666219061861014 2.4586784245258961 4.5783604448638968 0 1 0 I I #
point $-1 70.666219061861014 -4.3071774961219731 4.5783604448639039 #
point $-1 64.234154303135568 -0.61736375805246979 5.3636039986288155 #
point $-1 64.234154303135568 4.9173568490517923 5.3636039986288155 #
point $-1 64.234154303135568 10.452077456156054 5.3636039986288155 #
straight-curve $-1 -70.666219061861014 -57.328886230454863 8.4499737669896735 0 0 -1 I I #
straight-curve $-1 70.666219061861014 -57.328886230454863 8.4499737669896735 0 0 -1 I I #
point $-1 -48.599912588302175 44.842327943036096 11.033153236779421 #
point $-1 -48.599912588302175 44.842327943036096 -11.033153236779421 #
End-of-ACIS-data 