500 0 7 0           
7 Unknown 11 ACIS 5.0 NT 24 Thu Mar 25 16:10:19 1999 
-1 9.9999999999999995e-007 1e-010 
body $-1 $7 $-1 $8 #
body $-1 $9 $-1 $10 #
body $-1 $11 $-1 $12 #
body $-1 $13 $-1 $14 #
body $-1 $15 $-1 $16 #
body $-1 $17 $-1 $18 #
body $-1 $19 $-1 $20 #
lump $-1 $-1 $21 $0 #
transform $-1 1 0 0 0 1 0 0 0 1 74.885097811822874 37.183843712506537 10.196364407044092 1 rotate no_reflect no_shear #
lump $-1 $-1 $22 $1 #
transform $-1 1 0 0 0 1 0 0 0 1 74.885097811822874 37.183843712506537 10.196364407044092 1 rotate no_reflect no_shear #
lump $-1 $-1 $23 $2 #
transform $-1 1 0 0 0 1 0 0 0 1 74.885097811822874 37.183843712506537 10.196364407044092 1 rotate no_reflect no_shear #
lump $-1 $-1 $24 $3 #
transform $-1 1 0 0 0 1 0 0 0 1 74.885097811822874 37.183843712506537 10.196364407044092 1 rotate no_reflect no_shear #
lump $-1 $-1 $25 $4 #
transform $-1 1 0 0 0 1 0 0 0 1 74.885097811822874 37.183843712506537 10.196364407044092 1 rotate no_reflect no_shear #
lump $-1 $-1 $26 $5 #
transform $-1 1 0 0 0 1 0 0 0 1 74.885097811822874 37.183843712506537 10.196364407044092 1 rotate no_reflect no_shear #
lump $-1 $-1 $27 $6 #
transform $-1 1 0 0 0 1 0 0 0 1 74.885097811822874 37.183843712506537 10.196364407044092 1 rotate no_reflect no_shear #
shell $-1 $-1 $-1 $28 $-1 $7 #
shell $-1 $-1 $-1 $29 $-1 $9 #
shell $-1 $-1 $-1 $30 $-1 $11 #
shell $-1 $-1 $-1 $31 $-1 $13 #
shell $-1 $-1 $-1 $32 $-1 $15 #
shell $-1 $-1 $-1 $33 $-1 $17 #
shell $-1 $-1 $-1 $34 $-1 $19 #
face $-1 $35 $36 $21 $-1 $37 forward single #
face $-1 $38 $39 $22 $-1 $40 forward single #
face $-1 $41 $42 $23 $-1 $43 reversed single #
face $-1 $44 $45 $24 $-1 $46 forward single #
face $-1 $47 $48 $25 $-1 $49 forward single #
face $-1 $50 $51 $26 $-1 $52 reversed single #
face $-1 $53 $54 $27 $-1 $55 forward single #
face $-1 $56 $57 $21 $-1 $58 reversed single #
loop $-1 $-1 $59 $28 #
plane-surface $-1 0 0 10.196364407044092 0 0 1 1 0 0 forward_v I I I I #
face $-1 $60 $61 $22 $-1 $62 reversed single #
loop $-1 $-1 $63 $29 #
plane-surface $-1 -69.429761238105669 0 7.8754959037193784 0 0 1 1 0 0 forward_v I I I I #
face $-1 $64 $65 $23 $-1 $66 reversed single #
loop $-1 $-1 $67 $30 #
plane-surface $-1 40.332312493979046 -150.2168464228925 103.80574737023925 1 0 0 0 0.75470958851134928 -0.65605901945558964 forward_v I I I I #
face $-1 $68 $69 $24 $-1 $70 forward single #
loop $-1 $71 $72 $31 #
cone-surface $-1 50.204536870505848 -34.079054885802186 6.9294790607288386 0 0.75470958851134928 -0.65605901945558964 1 0 0 1 I I 0 1 1 forward I I I I #
face $-1 $73 $74 $25 $-1 $75 forward single #
loop $-1 $76 $77 $32 #
cone-surface $-1 65.012873435296058 -34.079054885802186 6.9294790607288386 0 0.75470958851134928 -0.65605901945558964 1 0 0 1 I I 0 1 1 forward I I I I #
face $-1 $78 $79 $26 $-1 $80 reversed single #
loop $-1 $-1 $81 $33 #
plane-surface $-1 -34.988046657752591 56.384549294822442 170.0334156845729 1 0 0 0 -0.54463904215088732 -0.83867056331134215 forward_v I I I I #
face $-1 $82 $83 $27 $-1 $84 forward single #
loop $-1 $85 $86 $34 #
cone-surface $-1 -16.809853211973838 30.711576084860301 4.5315900421673039 0 -0.54463904215088732 -0.83867056331134215 2.5 0 0 1 I I 0 1 2.5 forward I I I I #
face $-1 $87 $88 $21 $-1 $89 reversed single #
loop $-1 $-1 $90 $35 #
plane-surface $-1 0 0 -10.196364407044092 0 0 1 1 0 0 forward_v I I I I #
coedge $-1 $91 $92 $93 $94 forward $36 $-1 #
face $-1 $95 $96 $22 $-1 $97 reversed single #
loop $-1 $-1 $98 $38 #
plane-surface $-1 -69.429761238105669 0 4.1526264163389621 0 0 1 1 0 0 forward_v I I I I #
coedge $-1 $99 $100 $101 $102 forward $39 $-1 #
face $-1 $103 $104 $23 $-1 $105 forward single #
loop $-1 $-1 $106 $41 #
plane-surface $-1 57.608705152900967 -37.18384371250653 5.5476596857183722 0 -0.75470958851134928 0.65605901945558964 1 0 0 forward_v I I I I #
coedge $-1 $107 $108 $109 $110 reversed $42 $-1 #
face $-1 $-1 $111 $24 $-1 $112 forward single #
loop $-1 $113 $114 $44 #
cone-surface $-1 50.204536870505848 -32.617439894422219 5.6589165653486528 0 0.75470958851134928 -0.65605901945558964 0.5 0 0 1 I I -0.70710678118654746 0.70710678118654746 0.5 forward I I I I #
loop $-1 $-1 $115 $31 #
coedge $-1 $72 $72 $116 $117 reversed $45 $-1 #
face $-1 $-1 $118 $25 $-1 $119 forward single #
loop $-1 $120 $121 $47 #
cone-surface $-1 65.012873435296058 -32.617439894422219 5.6589165653486528 0 0.75470958851134928 -0.65605901945558964 0.5 0 0 1 I I -0.70710678118654746 0.70710678118654746 0.5 forward I I I I #
loop $-1 $-1 $122 $32 #
coedge $-1 $77 $77 $123 $124 reversed $48 $-1 #
face $-1 $125 $126 $26 $-1 $127 reversed single #
loop $-1 $-1 $128 $50 #
plane-surface $-1 -16.809853211973838 -25.18614659239099 44.425561353640006 0 0.54463904215088732 0.83867056331134215 1 0 0 forward_v I I I I #
coedge $-1 $129 $130 $131 $132 reversed $51 $-1 #
face $-1 $-1 $133 $27 $-1 $134 forward single #
loop $-1 $135 $136 $53 #
cone-surface $-1 -16.809853211973838 28.389334739100669 0.95565202292123708 0 -0.54463904215088732 -0.83867056331134215 1.25 0 0 1 I I -0.70710678118654746 0.70710678118654746 1.25 forward I I I I #
loop $-1 $-1 $137 $34 #
coedge $-1 $86 $86 $138 $139 reversed $54 $-1 #
face $-1 $140 $141 $21 $-1 $142 reversed single #
loop $-1 $-1 $143 $56 #
plane-surface $-1 0 -37.183843712506537 0 0 1 0 0 0 1 forward_v I I I I #
coedge $-1 $144 $145 $146 $147 forward $57 $-1 #
coedge $-1 $148 $59 $149 $150 forward $36 $-1 #
coedge $-1 $59 $148 $151 $152 forward $36 $-1 #
coedge $-1 $153 $154 $59 $94 reversed $155 $-1 #
edge $-1 $156 -37.183843712506537 $157 37.183843712506537 $93 $158 forward 7 unknown #
face $-1 $159 $160 $22 $-1 $161 reversed single #
loop $-1 $-1 $162 $60 #
plane-surface $-1 -63.974424664388465 0 6.0140611600291702 -1 0 0 0 0 1 forward_v I I I I #
coedge $-1 $163 $164 $165 $166 forward $61 $-1 #
coedge $-1 $167 $63 $168 $169 reversed $39 $-1 #
coedge $-1 $63 $167 $170 $171 reversed $39 $-1 #
coedge $-1 $162 $172 $63 $102 reversed $96 $-1 #
edge $-1 $173 -37.183843712506537 $174 37.183843712506537 $101 $175 forward 7 unknown #
face $-1 $176 $177 $23 $-1 $178 reversed single #
loop $-1 $-1 $179 $64 #
plane-surface $-1 0 0 10.196364407044092 0 0 1 1 0 0 forward_v I I I I #
coedge $-1 $180 $181 $182 $183 reversed $65 $-1 #
coedge $-1 $108 $67 $184 $185 reversed $42 $-1 #
coedge $-1 $67 $107 $180 $186 reversed $42 $-1 #
coedge $-1 $182 $187 $67 $110 forward $177 $-1 #
edge $-1 $188 41.706509278075529 $189 46.355213999401258 $109 $190 forward 7 unknown #
loop $-1 $-1 $116 $68 #
plane-surface $-1 57.608705152900967 -37.18384371250653 5.5476596857183722 0 -0.75470958851134928 0.65605901945558964 1 0 0 forward_v I I I I #
loop $-1 $-1 $191 $44 #
coedge $-1 $114 $114 $115 $192 reversed $69 $-1 #
coedge $-1 $115 $115 $114 $192 forward $71 $-1 #
coedge $-1 $116 $116 $72 $117 forward $111 $-1 #
edge $-1 $193 0 $193 6.2831853071796004 $116 $194 forward 7 unknown #
loop $-1 $-1 $123 $73 #
plane-surface $-1 57.608705152900967 -37.18384371250653 5.5476596857183722 0 -0.75470958851134928 0.65605901945558964 1 0 0 forward_v I I I I #
loop $-1 $-1 $195 $47 #
coedge $-1 $121 $121 $122 $196 reversed $74 $-1 #
coedge $-1 $122 $122 $121 $196 forward $76 $-1 #
coedge $-1 $123 $123 $77 $124 forward $118 $-1 #
edge $-1 $197 0 $197 6.2831853071796004 $123 $198 forward 7 unknown #
face $-1 $199 $200 $26 $-1 $201 reversed single #
loop $-1 $-1 $202 $78 #
plane-surface $-1 1.3683402338049149 56.384549294822442 170.0334156845729 -1 0 0 0 0.54463904215088732 0.83867056331134215 forward_v I I I I #
coedge $-1 $203 $204 $205 $206 reversed $79 $-1 #
coedge $-1 $130 $81 $207 $208 reversed $51 $-1 #
coedge $-1 $81 $129 $203 $209 reversed $51 $-1 #
coedge $-1 $205 $210 $81 $132 forward $211 $-1 #
edge $-1 $212 -8.9915690650953159 $213 0.670081104055118 $131 $214 forward 7 unknown #
loop $-1 $-1 $138 $82 #
plane-surface $-1 -16.809853211973838 -25.18614659239099 44.425561353640006 0 0.54463904215088732 0.83867056331134215 1 0 0 forward_v I I I I #
loop $-1 $-1 $215 $53 #
coedge $-1 $136 $136 $137 $216 reversed $83 $-1 #
coedge $-1 $137 $137 $136 $216 forward $85 $-1 #
coedge $-1 $138 $138 $86 $139 forward $133 $-1 #
edge $-1 $217 -1.8031611333093434e-015 $217 6.2831853071795987 $138 $218 forward 7 unknown #
face $-1 $219 $220 $21 $-1 $221 reversed single #
loop $-1 $-1 $222 $87 #
plane-surface $-1 -74.885097811822874 0 0 1 0 0 0 0 -1 forward_v I I I I #
coedge $-1 $223 $151 $224 $225 forward $88 $-1 #
coedge $-1 $226 $90 $223 $227 forward $57 $-1 #
coedge $-1 $90 $226 $228 $229 forward $57 $-1 #
coedge $-1 $154 $153 $90 $147 reversed $155 $-1 #
edge $-1 $230 -37.183843712506537 $231 37.183843712506537 $146 $232 forward 7 unknown #
coedge $-1 $92 $91 $233 $234 forward $36 $-1 #
coedge $-1 $235 $236 $91 $150 reversed $220 $-1 #
edge $-1 $157 -74.885097811822874 $237 74.885097811822874 $149 $238 forward 7 unknown #
coedge $-1 $143 $239 $92 $152 reversed $88 $-1 #
edge $-1 $240 -74.885097811822874 $156 74.885097811822874 $151 $241 forward 7 unknown #
coedge $-1 $146 $93 $239 $242 forward $155 $-1 #
coedge $-1 $93 $146 $235 $243 reversed $155 $-1 #
loop $-1 $-1 $153 $219 #
vertex $-1 $94 $244 #
vertex $-1 $94 $245 #
straight-curve $-1 74.885097811822874 0 10.196364407044092 0 1 0 I I #
face $-1 $246 $247 $22 $-1 $248 reversed single #
loop $-1 $-1 $249 $95 #
plane-surface $-1 0 -37.183843712506537 0 0 1 0 0 0 1 forward_v I I I I #
coedge $-1 $165 $101 $250 $251 reversed $96 $-1 #
coedge $-1 $252 $98 $249 $253 reversed $61 $-1 #
coedge $-1 $98 $252 $254 $255 reversed $61 $-1 #
coedge $-1 $172 $162 $98 $166 reversed $96 $-1 #
edge $-1 $256 -37.183843712506537 $257 37.183843712506537 $165 $258 forward 7 unknown #
coedge $-1 $100 $99 $259 $260 reversed $39 $-1 #
coedge $-1 $261 $262 $99 $169 forward $263 $-1 #
edge $-1 $264 -40.170217192770039 $174 -29.25954404533563 $168 $265 forward 7 unknown #
coedge $-1 $266 $250 $100 $171 forward $160 $-1 #
edge $-1 $173 29.25954404533563 $267 40.170217192770039 $170 $268 forward 7 unknown #
coedge $-1 $101 $165 $261 $269 reversed $96 $-1 #
vertex $-1 $171 $270 #
vertex $-1 $169 $271 #
straight-curve $-1 -63.974424664388465 0 7.8754959037193784 0 1 0 I I #
face $-1 $-1 $272 $23 $-1 $273 reversed single #
loop $-1 $-1 $109 $103 #
plane-surface $-1 0 -37.183843712506537 0 0 1 0 0 0 1 forward_v I I I I #
coedge $-1 $184 $274 $275 $276 forward $104 $-1 #
coedge $-1 $275 $106 $108 $186 forward $65 $-1 #
coedge $-1 $106 $275 $277 $278 reversed $65 $-1 #
coedge $-1 $279 $109 $106 $183 forward $177 $-1 #
edge $-1 $189 11.527959917528563 $280 46.080745235372405 $182 $281 forward 7 unknown #
coedge $-1 $282 $179 $107 $185 forward $104 $-1 #
edge $-1 $283 -41.965636758099826 $188 -37.924579498939714 $184 $284 forward 7 unknown #
edge $-1 $189 -1.0694430631949516e-014 $283 6.159594090350974 $108 $285 forward 7 unknown #
coedge $-1 $109 $279 $282 $286 reversed $177 $-1 #
vertex $-1 $286 $287 #
vertex $-1 $110 $288 #
straight-curve $-1 40.332312493979046 -37.183843712506537 51.902873685119623 0 0 -1 I I #
coedge $-1 $191 $191 $-1 $289 reversed $113 $-1 #
edge $-1 $290 0 $290 6.2831853071796004 $114 $291 forward 7 unknown #
vertex $-1 $117 $292 #
ellipse-curve $-1 50.204536870505848 -35.163315082926481 7.8720120463812293 0 -0.75470958851134928 0.65605901945558964 1 0 0 1 I I #
coedge $-1 $195 $195 $-1 $293 reversed $120 $-1 #
edge $-1 $294 0 $294 6.2831853071796004 $121 $295 forward 7 unknown #
vertex $-1 $124 $296 #
ellipse-curve $-1 65.012873435296058 -35.163315082926481 7.8720120463812293 0 -0.75470958851134928 0.65605901945558964 1 0 0 1 I I #
face $-1 $-1 $211 $26 $-1 $297 forward single #
loop $-1 $-1 $298 $125 #
plane-surface $-1 0 37.183843712506537 0 0 -1 0 0 0 -1 forward_v I I I I #
coedge $-1 $299 $300 $301 $302 reversed $126 $-1 #
coedge $-1 $303 $128 $130 $209 forward $79 $-1 #
coedge $-1 $128 $303 $299 $304 forward $79 $-1 #
coedge $-1 $301 $131 $128 $206 forward $211 $-1 #
edge $-1 $213 -26.583120051765672 $305 9.7732668397918339 $205 $306 forward 7 unknown #
coedge $-1 $307 $308 $129 $208 forward $200 $-1 #
edge $-1 $309 -81.094692534782155 $212 -74.820343435242364 $207 $310 forward 7 unknown #
edge $-1 $213 62.847490351440911 $309 74.367687425013074 $130 $311 forward 7 unknown #
coedge $-1 $131 $301 $307 $312 forward $211 $-1 #
loop $-1 $-1 $301 $199 #
vertex $-1 $208 $313 #
vertex $-1 $132 $314 #
straight-curve $-1 -34.988046657752591 28.192274647411221 10.196364407044086 0 -1 0 I I #
coedge $-1 $215 $215 $-1 $315 reversed $135 $-1 #
edge $-1 $316 0 $316 6.2831853071796004 $136 $317 forward 7 unknown #
vertex $-1 $139 $318 #
ellipse-curve $-1 -16.809853211973838 32.353018627931327 7.0591898572741965 0 0.54463904215088732 0.83867056331134215 2.5 0 0 1 I I #
face $-1 $-1 $155 $21 $-1 $319 reversed single #
loop $-1 $-1 $235 $140 #
plane-surface $-1 0 37.183843712506537 0 0 -1 0 0 0 -1 forward_v I I I I #
coedge $-1 $320 $233 $236 $321 forward $141 $-1 #
coedge $-1 $239 $143 $144 $227 reversed $88 $-1 #
coedge $-1 $233 $320 $143 $225 reversed $141 $-1 #
edge $-1 $240 -10.196364407044092 $322 10.196364407044092 $224 $323 forward 7 unknown #
coedge $-1 $145 $144 $320 $324 forward $57 $-1 #
edge $-1 $231 -74.885097811822874 $322 74.885097811822874 $223 $325 forward 7 unknown #
coedge $-1 $236 $235 $145 $229 reversed $220 $-1 #
edge $-1 $326 -74.885097811822874 $230 74.885097811822874 $228 $327 forward 7 unknown #
vertex $-1 $147 $328 #
vertex $-1 $242 $329 #
straight-curve $-1 74.885097811822874 0 -10.196364407044092 0 -1 0 I I #
coedge $-1 $222 $224 $148 $234 reversed $141 $-1 #
edge $-1 $237 -37.183843712506537 $240 37.183843712506537 $233 $330 forward 7 unknown #
coedge $-1 $228 $149 $154 $243 forward $220 $-1 #
coedge $-1 $149 $228 $222 $321 reversed $220 $-1 #
vertex $-1 $150 $331 #
straight-curve $-1 0 37.183843712506537 10.196364407044092 -1 0 0 I I #
coedge $-1 $151 $223 $153 $242 reversed $88 $-1 #
vertex $-1 $234 $332 #
straight-curve $-1 0 -37.183843712506537 10.196364407044092 1 0 0 I I #
edge $-1 $156 -10.196364407044092 $231 10.196364407044092 $153 $333 forward 7 unknown #
edge $-1 $157 -10.196364407044092 $230 10.196364407044092 $154 $334 forward 7 unknown #
point $-1 74.885097811822874 -37.183843712506537 10.196364407044092 #
point $-1 74.885097811822874 37.183843712506537 10.196364407044092 #
face $-1 $-1 $263 $22 $-1 $335 reversed single #
loop $-1 $-1 $336 $159 #
plane-surface $-1 -74.885097811822874 0 0 1 0 0 0 0 -1 forward_v I I I I #
coedge $-1 $250 $266 $163 $253 forward $160 $-1 #
coedge $-1 $170 $249 $162 $251 forward $160 $-1 #
edge $-1 $257 1.145595836324377 $173 4.8684653237047932 $250 $337 forward 7 unknown #
coedge $-1 $164 $163 $336 $338 reversed $61 $-1 #
edge $-1 $339 -40.170217192770039 $257 -29.25954404533563 $249 $340 forward 7 unknown #
coedge $-1 $262 $261 $164 $255 forward $263 $-1 #
edge $-1 $256 29.25954404533563 $341 40.170217192770039 $254 $342 forward 7 unknown #
vertex $-1 $255 $343 #
vertex $-1 $253 $344 #
straight-curve $-1 -63.974424664388465 0 4.1526264163389621 0 -1 0 I I #
coedge $-1 $345 $346 $167 $260 forward $247 $-1 #
edge $-1 $267 -37.183843712506537 $264 37.183843712506537 $259 $347 forward 7 unknown #
coedge $-1 $254 $168 $172 $269 forward $263 $-1 #
coedge $-1 $168 $254 $345 $348 reversed $263 $-1 #
loop $-1 $-1 $254 $246 #
vertex $-1 $348 $349 #
straight-curve $-1 -34.714880619052835 37.183843712506537 7.8754959037193784 1 0 0 I I #
coedge $-1 $249 $170 $346 $350 forward $160 $-1 #
vertex $-1 $350 $351 #
straight-curve $-1 -34.714880619052835 -37.183843712506537 7.8754959037193784 -1 0 0 I I #
edge $-1 $174 -4.8684653237047932 $256 -1.145595836324377 $261 $352 forward 7 unknown #
point $-1 -63.974424664388465 -37.183843712506537 7.8754959037193784 #
point $-1 -63.974424664388465 37.183843712506537 7.8754959037193784 #
loop $-1 $-1 $277 $176 #
plane-surface $-1 74.885097811822874 0 0 -1 0 0 0 0 1 forward_v I I I I #
coedge $-1 $179 $282 $353 $354 forward $104 $-1 #
coedge $-1 $181 $180 $179 $276 reversed $65 $-1 #
edge $-1 $355 -46.080745235372405 $283 -11.527959917528563 $179 $356 forward 7 unknown #
coedge $-1 $353 $357 $181 $278 forward $272 $-1 #
edge $-1 $280 -10.103962043503717 $355 -3.9443679531527334 $277 $358 forward 7 unknown #
coedge $-1 $187 $182 $357 $359 reversed $177 $-1 #
vertex $-1 $183 $360 #
straight-curve $-1 28.804352576450484 -37.183843712506537 5.5476596857183562 1 0 0 I I #
coedge $-1 $274 $184 $187 $286 forward $104 $-1 #
vertex $-1 $185 $361 #
straight-curve $-1 40.332312493979046 -75.108423211446251 10.196364407044094 0 -1 0 I I #
straight-curve $-1 40.332312493979046 -37.18384371250653 5.5476596857183722 0 0.65605901945558964 0.75470958851134928 I I #
edge $-1 $188 40.332312493979046 $362 74.885097811822874 $187 $363 forward 7 unknown #
point $-1 40.332312493979046 -37.183843712506537 10.196364407044092 #
point $-1 40.332312493979046 -37.183843712506537 5.5476596857183642 #
edge $-1 $364 1 $364 0 $191 $-1 forward 7 unknown #
vertex $-1 $192 $365 #
ellipse-curve $-1 50.204536870505848 -32.994794688677892 5.9869460750764478 0 -0.75470958851134928 0.65605901945558964 1 0 0 1 I I #
point $-1 51.204536870505848 -35.163315082926481 7.8720120463812293 #
edge $-1 $366 1 $366 0 $195 $-1 forward 7 unknown #
vertex $-1 $196 $367 #
ellipse-curve $-1 65.012873435296058 -32.994794688677892 5.9869460750764478 0 -0.75470958851134928 0.65605901945558964 1 0 0 1 I I #
point $-1 66.012873435296058 -35.163315082926481 7.8720120463812293 #
plane-surface $-1 0 0 10.196364407044092 0 0 1 1 0 0 forward_v I I I I #
coedge $-1 $308 $307 $300 $368 forward $200 $-1 #
coedge $-1 $300 $202 $204 $304 reversed $126 $-1 #
coedge $-1 $202 $299 $298 $368 reversed $126 $-1 #
coedge $-1 $210 $205 $202 $302 forward $211 $-1 #
edge $-1 $305 -0.670081104055118 $369 8.9915690650953159 $301 $370 forward 7 unknown #
coedge $-1 $204 $203 $308 $371 reversed $79 $-1 #
edge $-1 $372 -74.367687425013074 $305 -62.847490351440911 $299 $373 forward 7 unknown #
vertex $-1 $206 $374 #
straight-curve $-1 -8.404926605986919 27.522193543356103 10.19636440704409 1 0 0 I I #
coedge $-1 $298 $207 $210 $312 reversed $200 $-1 #
coedge $-1 $207 $298 $303 $371 forward $200 $-1 #
vertex $-1 $208 $375 #
straight-curve $-1 -34.988046657752591 37.183843712506537 85.016707842286451 0 0 1 I I #
straight-curve $-1 -34.988046657752591 -25.18614659239099 44.425561353640006 0 0.83867056331134215 -0.54463904215088732 I I #
edge $-1 $369 -1.3683402338049149 $212 34.988046657752591 $307 $376 forward 7 unknown #
point $-1 -34.988046657752591 37.183843712506537 10.196364407044092 #
point $-1 -34.988046657752591 27.522193543356103 10.196364407044094 #
edge $-1 $377 1 $377 0 $215 $-1 forward 7 unknown #
vertex $-1 $216 $378 #
ellipse-curve $-1 -16.809853211973838 29.070133541789279 2.0039902270604149 0 0.54463904215088732 0.83867056331134215 2.5 0 0 1 I I #
point $-1 -14.309853211973838 32.35301862793132 7.0591898572741938 #
plane-surface $-1 74.885097811822874 0 0 -1 0 0 0 0 1 forward_v I I I I #
coedge $-1 $224 $222 $226 $324 reversed $141 $-1 #
edge $-1 $237 -10.196364407044092 $326 10.196364407044092 $236 $379 forward 7 unknown #
vertex $-1 $324 $380 #
straight-curve $-1 -74.885097811822874 -37.183843712506537 0 0 0 -1 I I #
edge $-1 $322 -37.183843712506537 $326 37.183843712506537 $320 $381 forward 7 unknown #
straight-curve $-1 0 -37.183843712506537 -10.196364407044092 -1 0 0 I I #
vertex $-1 $229 $382 #
straight-curve $-1 0 37.183843712506537 -10.196364407044092 1 0 0 I I #
point $-1 74.885097811822874 37.183843712506537 -10.196364407044092 #
point $-1 74.885097811822874 -37.183843712506537 -10.196364407044092 #
straight-curve $-1 -74.885097811822874 0 10.196364407044092 0 -1 0 I I #
point $-1 -74.885097811822874 37.183843712506537 10.196364407044092 #
point $-1 -74.885097811822874 -37.183843712506537 10.196364407044092 #
straight-curve $-1 74.885097811822874 -37.183843712506537 0 0 0 -1 I I #
straight-curve $-1 74.885097811822874 37.183843712506537 0 0 0 -1 I I #
plane-surface $-1 0 37.183843712506537 0 0 -1 0 0 0 -1 forward_v I I I I #
coedge $-1 $346 $345 $252 $338 forward $247 $-1 #
straight-curve $-1 -63.974424664388465 -37.183843712506537 3.0070305800145851 0 0 1 I I #
edge $-1 $341 -37.183843712506537 $339 37.183843712506537 $336 $383 forward 7 unknown #
vertex $-1 $253 $384 #
straight-curve $-1 -34.714880619052835 -37.183843712506537 4.1526264163389621 1 0 0 I I #
vertex $-1 $255 $385 #
straight-curve $-1 -34.714880619052835 37.183843712506537 4.1526264163389621 -1 0 0 I I #
point $-1 -63.974424664388465 37.183843712506537 4.1526264163389621 #
point $-1 -63.974424664388465 -37.183843712506537 4.1526264163389621 #
coedge $-1 $336 $259 $262 $348 forward $247 $-1 #
coedge $-1 $259 $336 $266 $350 reversed $247 $-1 #
straight-curve $-1 -74.885097811822874 0 7.8754959037193784 0 1 0 I I #
edge $-1 $264 -7.8754959037193784 $341 -4.1526264163389621 $262 $386 forward 7 unknown #
point $-1 -74.885097811822874 37.183843712506537 7.8754959037193784 #
edge $-1 $267 -7.8754959037193784 $339 -4.1526264163389621 $346 $387 forward 7 unknown #
point $-1 -74.885097811822874 -37.183843712506537 7.8754959037193784 #
straight-curve $-1 -63.974424664388465 37.183843712506537 3.0070305800145851 0 0 -1 I I #
coedge $-1 $357 $277 $274 $354 reversed $272 $-1 #
edge $-1 $362 -37.183843712506537 $355 -33.142786453346424 $353 $388 forward 7 unknown #
vertex $-1 $278 $389 #
straight-curve $-1 28.804352576450484 -33.142786453346432 10.196364407044092 -1 0 0 I I #
coedge $-1 $277 $353 $279 $359 forward $272 $-1 #
straight-curve $-1 74.885097811822874 -30.555048281628991 13.173216721905344 0 0.65605901945558975 0.75470958851134939 I I #
edge $-1 $362 -10.196364407044092 $280 -5.5476596857183642 $357 $390 forward 7 unknown #
point $-1 74.885097811822888 -37.183843712506537 5.5476596857183642 #
point $-1 40.332312493979046 -33.142786453346424 10.196364407044092 #
vertex $-1 $354 $391 #
straight-curve $-1 0 -37.183843712506537 10.196364407044092 1 0 0 I I #
vertex $-1 $289 $392 #
point $-1 51.204536870505848 -32.994794688677892 5.9869460750764478 #
vertex $-1 $293 $393 #
point $-1 66.012873435296058 -32.994794688677892 5.9869460750764478 #
edge $-1 $369 74.820343435242364 $372 81.094692534782155 $298 $394 forward 7 unknown #
vertex $-1 $312 $395 #
straight-curve $-1 1.3683402338049149 28.192274647411221 10.196364407044086 0 1 0 I I #
edge $-1 $372 -9.7732668397918339 $309 26.583120051765672 $308 $396 forward 7 unknown #
vertex $-1 $371 $397 #
straight-curve $-1 1.3683402338049149 -25.18614659239099 44.425561353640006 0 -0.83867056331134215 0.54463904215088732 I I #
point $-1 1.3683402338049149 27.522193543356103 10.196364407044094 #
point $-1 -34.988046657752591 37.183843712506544 3.9220153075042958 #
straight-curve $-1 0 37.183843712506537 10.196364407044092 -1 0 0 I I #
vertex $-1 $315 $398 #
point $-1 -14.309853211973838 29.070133541789279 2.0039902270604149 #
straight-curve $-1 -74.885097811822874 37.183843712506537 0 0 0 -1 I I #
point $-1 -74.885097811822874 -37.183843712506537 -10.196364407044092 #
straight-curve $-1 -74.885097811822874 0 -10.196364407044092 0 1 0 I I #
point $-1 -74.885097811822874 37.183843712506537 -10.196364407044092 #
straight-curve $-1 -74.885097811822874 0 4.1526264163389621 0 -1 0 I I #
point $-1 -74.885097811822874 -37.183843712506537 4.1526264163389621 #
point $-1 -74.885097811822874 37.183843712506537 4.1526264163389621 #
straight-curve $-1 -74.885097811822874 37.183843712506537 0 0 0 -1 I I #
straight-curve $-1 -74.885097811822874 -37.183843712506537 0 0 0 -1 I I #
straight-curve $-1 74.885097811822874 0 10.196364407044092 0 1 0 I I #
point $-1 74.885097811822888 -33.142786453346424 10.196364407044092 #
straight-curve $-1 74.885097811822874 -37.183843712506537 0 0 0 -1 I I #
point $-1 74.885097811822874 -37.183843712506537 10.196364407044092 #
point $-1 50.204536870505848 -32.240085100166546 5.3308870556208579 #
point $-1 65.012873435296058 -32.240085100166546 5.3308870556208579 #
straight-curve $-1 1.3683402338049149 37.183843712506537 85.016707842286451 0 0 -1 I I #
point $-1 1.3683402338049149 37.183843712506537 10.196364407044092 #
straight-curve $-1 -8.404926605986919 37.183843712506537 3.9220153075042994 -1 0 0 I I #
point $-1 1.3683402338049149 37.183843712506544 3.9220153075042958 #
point $-1 -16.809853211973838 27.708535936412058 -0.0926861812179407 #
End-of-ACIS-data 