500 0 9 0           
7 Unknown 11 ACIS 5.0 NT 24 Thu Mar 25 20:02:21 1999 
-1 9.9999999999999995e-007 1e-010 
body $-1 $9 $-1 $10 #
body $-1 $11 $-1 $12 #
body $-1 $13 $-1 $14 #
body $-1 $15 $-1 $16 #
body $-1 $17 $-1 $18 #
body $-1 $19 $-1 $20 #
body $-1 $21 $-1 $22 #
body $-1 $23 $-1 $24 #
body $-1 $25 $-1 $26 #
lump $-1 $-1 $27 $0 #
transform $-1 1 0 0 0 1 0 0 0 1 72.540055543687245 47.307220707376544 16.28964020262028 1 rotate no_reflect no_shear #
lump $-1 $-1 $28 $1 #
transform $-1 1 0 0 0 1 0 0 0 1 72.540055543687245 47.307220707376544 16.28964020262028 1 rotate no_reflect no_shear #
lump $-1 $-1 $29 $2 #
transform $-1 1 0 0 0 1 0 0 0 1 72.540055543687245 47.307220707376544 16.28964020262028 1 rotate no_reflect no_shear #
lump $-1 $-1 $30 $3 #
transform $-1 1 0 0 0 1 0 0 0 1 72.540055543687245 47.307220707376544 16.28964020262028 1 rotate no_reflect no_shear #
lump $-1 $-1 $31 $4 #
transform $-1 1 0 0 0 1 0 0 0 1 72.540055543687245 47.307220707376544 16.28964020262028 1 rotate no_reflect no_shear #
lump $-1 $-1 $32 $5 #
transform $-1 1 0 0 0 1 0 0 0 1 72.540055543687245 47.307220707376544 16.28964020262028 1 rotate no_reflect no_shear #
lump $-1 $-1 $33 $6 #
transform $-1 1 0 0 0 1 0 0 0 1 72.540055543687245 47.307220707376544 16.28964020262028 1 rotate no_reflect no_shear #
lump $-1 $-1 $34 $7 #
transform $-1 1 0 0 0 1 0 0 0 1 72.540055543687245 47.307220707376544 16.28964020262028 1 rotate no_reflect no_shear #
lump $-1 $-1 $35 $8 #
transform $-1 1 0 0 0 1 0 0 0 1 72.540055543687245 47.307220707376544 16.28964020262028 1 rotate no_reflect no_shear #
shell $-1 $-1 $-1 $36 $-1 $9 #
shell $-1 $-1 $-1 $37 $-1 $11 #
shell $-1 $-1 $-1 $38 $-1 $13 #
shell $-1 $-1 $-1 $39 $-1 $15 #
shell $-1 $-1 $-1 $40 $-1 $17 #
shell $-1 $-1 $-1 $41 $-1 $19 #
shell $-1 $-1 $-1 $42 $-1 $21 #
shell $-1 $-1 $-1 $43 $-1 $23 #
shell $-1 $-1 $-1 $44 $-1 $25 #
face $-1 $45 $46 $27 $-1 $47 forward single #
face $-1 $48 $49 $28 $-1 $50 forward single #
face $-1 $51 $52 $29 $-1 $53 reversed single #
face $-1 $54 $55 $30 $-1 $56 forward single #
face $-1 $57 $58 $31 $-1 $59 reversed single #
face $-1 $60 $61 $32 $-1 $62 forward single #
face $-1 $63 $64 $33 $-1 $65 reversed single #
face $-1 $66 $67 $34 $-1 $68 forward single #
face $-1 $69 $70 $35 $-1 $71 forward single #
face $-1 $72 $73 $27 $-1 $74 reversed single #
loop $-1 $-1 $75 $36 #
plane-surface $-1 0 0 16.28964020262028 0 0 1 1 0 0 forward_v I I I I #
face $-1 $76 $77 $28 $-1 $78 forward single #
loop $-1 $-1 $79 $37 #
plane-surface $-1 0 -47.307220707376544 0 0 1 0 0 0 1 forward_v I I I I #
face $-1 $80 $81 $29 $-1 $82 reversed single #
loop $-1 $-1 $83 $38 #
plane-surface $-1 33.390962742189927 7.3329182246259315 212.45952636490196 0 -1 0 -0.55919291073839883 0 -0.82903756765294845 forward_v I I I I #
face $-1 $84 $85 $30 $-1 $86 forward single #
loop $-1 $87 $88 $39 #
cone-surface $-1 68.226269153454709 0.4643212264758958 13.029767586555652 -0.55919291073839883 0 -0.82903756765294845 1.2435563514794228 0 -0.83878936610759824 1 I I 0 1 1.5 forward I I I I #
face $-1 $89 $90 $31 $-1 $91 reversed single #
loop $-1 $-1 $92 $40 #
plane-surface $-1 -47.736806867009264 0.46432122647588869 92.182663954205452 0.55919291073839883 0 0.82903756765294845 0.82903756765294845 0 -0.55919291073839883 forward_v I I I I #
face $-1 $93 $94 $32 $-1 $95 forward single #
loop $-1 $96 $97 $41 #
cone-surface $-1 68.226269153454709 14.201515222775974 13.029767586555652 -0.55919291073839883 0 -0.82903756765294845 1.2435563514794228 0 -0.83878936610759824 1 I I 0 1 1.5 forward I I I I #
face $-1 $98 $99 $33 $-1 $100 reversed single #
loop $-1 $-1 $101 $42 #
plane-surface $-1 -149.42080228110495 14.304134176788882 130.01291544339043 0 1 0 -0.52991927123019833 0 0.84804809178421925 forward_v I I I I #
face $-1 $102 $103 $34 $-1 $104 forward single #
loop $-1 $105 $106 $43 #
cone-surface $-1 -64.362585972102835 21.136237058733656 10.47101380654073 0.52991927123019833 0 -0.84804809178421925 1.2720721376763289 0 0.79487890684529749 1 I I 0 1 1.5 forward I I I I #
face $-1 $107 $108 $35 $-1 $109 forward single #
loop $-1 $110 $111 $44 #
cone-surface $-1 -64.362585972102835 31.384391381650815 10.47101380654073 0.52991927123019833 0 -0.84804809178421925 1.2720721376763289 0 0.79487890684529749 1 I I 0 1 1.5 forward I I I I #
face $-1 $112 $113 $27 $-1 $114 reversed single #
loop $-1 $-1 $115 $45 #
plane-surface $-1 0 0 -16.28964020262028 0 0 1 1 0 0 forward_v I I I I #
coedge $-1 $116 $117 $118 $119 forward $46 $-1 #
face $-1 $120 $121 $28 $-1 $122 reversed single #
loop $-1 $-1 $123 $48 #
plane-surface $-1 0 0 16.28964020262028 0 0 1 1 0 0 forward_v I I I I #
coedge $-1 $124 $125 $126 $127 forward $49 $-1 #
face $-1 $128 $129 $29 $-1 $130 reversed single #
loop $-1 $-1 $131 $51 #
plane-surface $-1 -47.736806867009264 0.46432122647588869 92.182663954205452 0.55919291073839883 0 0.82903756765294845 0.82903756765294845 0 -0.55919291073839883 forward_v I I I I #
coedge $-1 $132 $133 $134 $135 reversed $52 $-1 #
face $-1 $-1 $136 $30 $-1 $137 forward single #
loop $-1 $138 $139 $54 #
cone-surface $-1 67.373502951082131 0.4643212264758958 11.765489723558307 -0.55919291073839883 0 -0.82903756765294845 0.62177817573971139 0 -0.41939468305379912 1 I I -0.70710678118654757 0.70710678118654757 0.75 forward I I I I #
loop $-1 $-1 $140 $39 #
coedge $-1 $88 $88 $141 $142 reversed $55 $-1 #
face $-1 $143 $144 $31 $-1 $145 reversed single #
loop $-1 $-1 $146 $57 #
plane-surface $-1 33.390962742189927 21.07011222092601 212.45952636490196 0 -1 0 -0.55919291073839883 0 -0.82903756765294845 forward_v I I I I #
coedge $-1 $147 $148 $149 $150 reversed $58 $-1 #
face $-1 $-1 $151 $32 $-1 $152 forward single #
loop $-1 $153 $154 $60 #
cone-surface $-1 67.373502951082131 14.201515222775974 11.765489723558307 -0.55919291073839883 0 -0.82903756765294845 0.62177817573971139 0 -0.41939468305379912 1 I I -0.70710678118654757 0.70710678118654757 0.75 forward I I I I #
loop $-1 $-1 $155 $41 #
coedge $-1 $97 $97 $156 $157 reversed $61 $-1 #
face $-1 $158 $159 $33 $-1 $160 reversed single #
loop $-1 $-1 $161 $63 #
plane-surface $-1 -72.540055543687245 26.260314220192228 6.9780040798999465 -0.52991927123019833 0 0.84804809178421925 0.84804809178421925 0 0.52991927123019833 forward_v I I I I #
coedge $-1 $162 $163 $164 $165 reversed $64 $-1 #
face $-1 $-1 $166 $34 $-1 $167 forward single #
loop $-1 $168 $169 $66 #
cone-surface $-1 -63.238543214829249 21.136237058733656 8.672169402983176 0.52991927123019833 0 -0.84804809178421925 0.63603606883816444 0 0.39743945342264875 1 I I -0.70710678118654757 0.70710678118654757 0.75 forward I I I I #
loop $-1 $-1 $170 $43 #
coedge $-1 $106 $106 $171 $172 reversed $67 $-1 #
face $-1 $-1 $173 $35 $-1 $174 forward single #
loop $-1 $175 $176 $69 #
cone-surface $-1 -63.238543214829249 31.384391381650815 8.672169402983176 0.52991927123019833 0 -0.84804809178421925 0.63603606883816444 0 0.39743945342264875 1 I I -0.70710678118654757 0.70710678118654757 0.75 forward I I I I #
loop $-1 $-1 $177 $44 #
coedge $-1 $111 $111 $178 $179 reversed $70 $-1 #
face $-1 $180 $181 $27 $-1 $182 reversed single #
loop $-1 $-1 $183 $72 #
plane-surface $-1 0 -47.307220707376544 0 0 1 0 0 0 1 forward_v I I I I #
coedge $-1 $184 $185 $186 $187 forward $73 $-1 #
coedge $-1 $188 $75 $189 $190 forward $46 $-1 #
coedge $-1 $75 $188 $191 $192 forward $46 $-1 #
coedge $-1 $193 $194 $75 $119 reversed $195 $-1 #
edge $-1 $196 -47.307220707376544 $197 47.307220707376544 $118 $198 forward 7 unknown #
face $-1 $199 $200 $28 $-1 $201 reversed single #
loop $-1 $-1 $202 $76 #
plane-surface $-1 -72.540055543687245 0 0 1 0 0 0 0 -1 forward_v I I I I #
coedge $-1 $203 $204 $205 $206 forward $77 $-1 #
coedge $-1 $205 $79 $202 $207 reversed $49 $-1 #
coedge $-1 $79 $205 $208 $209 reversed $49 $-1 #
coedge $-1 $210 $211 $79 $127 reversed $200 $-1 #
edge $-1 $212 -72.540055543687245 $213 72.540055543687245 $126 $214 forward 7 unknown #
face $-1 $215 $216 $29 $-1 $217 reversed single #
loop $-1 $-1 $218 $80 #
plane-surface $-1 33.390962742189927 -6.4042757716741541 212.45952636490196 0 1 0 0.55919291073839883 0 0.82903756765294845 forward_v I I I I #
coedge $-1 $219 $220 $221 $222 reversed $81 $-1 #
coedge $-1 $133 $83 $223 $224 reversed $52 $-1 #
coedge $-1 $83 $132 $219 $225 reversed $52 $-1 #
coedge $-1 $221 $226 $83 $135 forward $227 $-1 #
edge $-1 $228 -55.844574172592282 $229 -48.08374443076476 $134 $230 forward 7 unknown #
loop $-1 $-1 $141 $84 #
plane-surface $-1 -47.736806867009264 0.46432122647588869 92.182663954205452 0.55919291073839883 0 0.82903756765294845 0.82903756765294845 0 -0.55919291073839883 forward_v I I I I #
loop $-1 $-1 $231 $54 #
coedge $-1 $139 $139 $140 $232 reversed $85 $-1 #
coedge $-1 $140 $140 $139 $232 forward $87 $-1 #
coedge $-1 $141 $141 $88 $142 forward $136 $-1 #
edge $-1 $233 0 $233 6.2831853071796004 $141 $234 forward 7 unknown #
face $-1 $235 $236 $31 $-1 $237 forward single #
loop $-1 $-1 $238 $89 #
plane-surface $-1 72.540055543687245 0 0 -1 0 0 0 0 1 forward_v I I I I #
coedge $-1 $239 $240 $241 $242 reversed $90 $-1 #
coedge $-1 $243 $92 $244 $245 reversed $58 $-1 #
coedge $-1 $92 $243 $238 $246 reversed $58 $-1 #
coedge $-1 $247 $248 $92 $150 forward $236 $-1 #
edge $-1 $249 135.7188589021462 $250 145.08011108737449 $149 $251 forward 7 unknown #
loop $-1 $-1 $156 $93 #
plane-surface $-1 -47.736806867009264 0.46432122647588869 92.182663954205452 0.55919291073839883 0 0.82903756765294845 0.82903756765294845 0 -0.55919291073839883 forward_v I I I I #
loop $-1 $-1 $252 $60 #
coedge $-1 $154 $154 $155 $253 reversed $94 $-1 #
coedge $-1 $155 $155 $154 $253 forward $96 $-1 #
coedge $-1 $156 $156 $97 $157 forward $151 $-1 #
edge $-1 $254 0 $254 6.2831853071796004 $156 $255 forward 7 unknown #
face $-1 $256 $257 $33 $-1 $258 forward single #
loop $-1 $-1 $259 $98 #
plane-surface $-1 -149.42080228110495 38.216494263595578 130.01291544339043 0 -1 0 0.52991927123019833 0 -0.84804809178421925 forward_v I I I I #
coedge $-1 $260 $261 $262 $263 reversed $99 $-1 #
coedge $-1 $163 $101 $264 $265 reversed $64 $-1 #
coedge $-1 $101 $162 $260 $266 reversed $64 $-1 #
coedge $-1 $262 $267 $101 $165 forward $257 $-1 #
edge $-1 $268 2.1703455968652321 $269 17.072078132332187 $164 $270 forward 7 unknown #
loop $-1 $-1 $171 $102 #
plane-surface $-1 -72.540055543687245 26.260314220192228 6.9780040798999465 -0.52991927123019833 0 0.84804809178421925 0.84804809178421925 0 0.52991927123019833 forward_v I I I I #
loop $-1 $-1 $271 $66 #
coedge $-1 $169 $169 $170 $272 reversed $103 $-1 #
coedge $-1 $170 $170 $169 $272 forward $105 $-1 #
coedge $-1 $171 $171 $106 $172 forward $166 $-1 #
edge $-1 $273 0 $273 6.2831853071796004 $171 $274 forward 7 unknown #
loop $-1 $-1 $178 $107 #
plane-surface $-1 -72.540055543687245 26.260314220192228 6.9780040798999465 -0.52991927123019833 0 0.84804809178421925 0.84804809178421925 0 0.52991927123019833 forward_v I I I I #
loop $-1 $-1 $275 $69 #
coedge $-1 $176 $176 $177 $276 reversed $108 $-1 #
coedge $-1 $177 $177 $176 $276 forward $110 $-1 #
coedge $-1 $178 $178 $111 $179 forward $173 $-1 #
edge $-1 $277 0 $277 6.2831853071796004 $178 $278 forward 7 unknown #
face $-1 $279 $280 $27 $-1 $281 reversed single #
loop $-1 $-1 $282 $112 #
plane-surface $-1 -72.540055543687245 0 0 1 0 0 0 0 -1 forward_v I I I I #
coedge $-1 $283 $191 $284 $285 forward $113 $-1 #
coedge $-1 $286 $115 $283 $287 forward $73 $-1 #
coedge $-1 $115 $286 $288 $289 forward $73 $-1 #
coedge $-1 $194 $193 $115 $187 reversed $195 $-1 #
edge $-1 $290 -47.307220707376544 $291 47.307220707376544 $186 $292 forward 7 unknown #
coedge $-1 $117 $116 $293 $294 forward $46 $-1 #
coedge $-1 $295 $296 $116 $190 reversed $280 $-1 #
edge $-1 $197 -72.540055543687245 $297 72.540055543687245 $189 $298 forward 7 unknown #
coedge $-1 $183 $299 $117 $192 reversed $113 $-1 #
edge $-1 $300 -72.540055543687245 $196 72.540055543687245 $191 $301 forward 7 unknown #
coedge $-1 $186 $118 $299 $302 forward $195 $-1 #
coedge $-1 $118 $186 $295 $303 reversed $195 $-1 #
loop $-1 $-1 $193 $279 #
vertex $-1 $119 $304 #
vertex $-1 $119 $305 #
straight-curve $-1 72.540055543687245 0 16.28964020262028 0 1 0 I I #
face $-1 $306 $307 $28 $-1 $308 reversed single #
loop $-1 $-1 $210 $120 #
plane-surface $-1 0 -54.640138932002479 10.334254728110272 0 0 1 1 0 0 forward_v I I I I #
coedge $-1 $309 $310 $124 $207 forward $121 $-1 #
coedge $-1 $311 $123 $310 $312 forward $77 $-1 #
coedge $-1 $123 $311 $313 $314 forward $77 $-1 #
coedge $-1 $125 $124 $123 $206 reversed $49 $-1 #
edge $-1 $315 -72.540055543687245 $316 72.540055543687245 $123 $317 forward 7 unknown #
edge $-1 $316 -16.28964020262028 $213 -10.334254728110272 $202 $318 forward 7 unknown #
coedge $-1 $313 $319 $125 $209 forward $320 $-1 #
edge $-1 $212 10.334254728110272 $315 16.28964020262028 $208 $321 forward 7 unknown #
coedge $-1 $322 $126 $319 $323 forward $200 $-1 #
coedge $-1 $126 $322 $309 $324 forward $200 $-1 #
vertex $-1 $209 $325 #
vertex $-1 $207 $326 #
straight-curve $-1 0 -47.307220707376544 10.334254728110272 -1 0 0 I I #
face $-1 $-1 $227 $29 $-1 $327 forward single #
loop $-1 $-1 $328 $128 #
plane-surface $-1 72.540055543687245 0 0 -1 0 0 0 0 1 forward_v I I I I #
coedge $-1 $329 $330 $331 $332 reversed $129 $-1 #
coedge $-1 $333 $131 $133 $225 forward $81 $-1 #
coedge $-1 $131 $333 $329 $334 forward $81 $-1 #
coedge $-1 $331 $134 $131 $222 forward $227 $-1 #
edge $-1 $229 -7.1007576113879871 $335 6.6364363849120984 $221 $336 forward 7 unknown #
coedge $-1 $337 $338 $132 $224 forward $216 $-1 #
edge $-1 $339 -95.17486883744472 $228 -89.940122979830704 $223 $340 forward 7 unknown #
edge $-1 $229 135.7188589021462 $339 145.08011108737449 $133 $341 forward 7 unknown #
coedge $-1 $134 $331 $337 $342 forward $227 $-1 #
loop $-1 $-1 $331 $215 #
vertex $-1 $224 $343 #
vertex $-1 $135 $344 #
straight-curve $-1 16.695481371094964 7.3329182246259315 16.289640202620276 -1 0 0 I I #
coedge $-1 $231 $231 $-1 $345 reversed $138 $-1 #
edge $-1 $346 0 $346 6.2831853071796004 $139 $347 forward 7 unknown #
vertex $-1 $142 $348 #
ellipse-curve $-1 68.659640672773477 0.4643212264758958 13.672267273813262 0.55919291073839883 0 0.82903756765294845 1.2435563514794228 0 -0.83878936610759824 1 I I #
face $-1 $-1 $349 $31 $-1 $350 forward single #
loop $-1 $-1 $248 $143 #
plane-surface $-1 33.390962742189927 7.3329182246259315 212.45952636490196 0 -1 0 -0.55919291073839883 0 -0.82903756765294845 forward_v I I I I #
coedge $-1 $241 $351 $148 $246 forward $144 $-1 #
coedge $-1 $240 $146 $243 $352 reversed $90 $-1 #
coedge $-1 $146 $239 $353 $354 reversed $90 $-1 #
coedge $-1 $355 $238 $146 $242 forward $144 $-1 #
edge $-1 $356 -95.17486883744472 $357 -89.940122979830704 $241 $358 forward 7 unknown #
coedge $-1 $148 $147 $239 $352 forward $58 $-1 #
coedge $-1 $359 $353 $147 $245 forward $349 $-1 #
edge $-1 $360 -20.837951607688066 $249 -7.1007576113879871 $244 $361 forward 7 unknown #
edge $-1 $250 7.1007576113879871 $356 20.837951607688066 $238 $362 forward 7 unknown #
coedge $-1 $248 $149 $351 $363 reversed $236 $-1 #
coedge $-1 $149 $247 $359 $364 reversed $236 $-1 #
vertex $-1 $245 $365 #
vertex $-1 $246 $366 #
straight-curve $-1 -47.736806867009264 7.3329182246259315 92.182663954205452 0.82903756765294845 0 -0.55919291073839883 I I #
coedge $-1 $252 $252 $-1 $367 reversed $153 $-1 #
edge $-1 $368 0 $368 6.2831853071796004 $154 $369 forward 7 unknown #
vertex $-1 $157 $370 #
ellipse-curve $-1 68.659640672773477 14.201515222775974 13.672267273813262 0.55919291073839883 0 0.82903756765294845 1.2435563514794228 0 -0.83878936610759824 1 I I #
face $-1 $-1 $371 $33 $-1 $372 reversed single #
loop $-1 $-1 $164 $158 #
plane-surface $-1 0 0 16.28964020262028 0 0 1 1 0 0 forward_v I I I I #
coedge $-1 $373 $374 $375 $376 reversed $159 $-1 #
coedge $-1 $377 $161 $163 $266 forward $99 $-1 #
coedge $-1 $161 $377 $373 $378 forward $99 $-1 #
coedge $-1 $375 $164 $161 $263 forward $257 $-1 #
edge $-1 $269 1.1739770666927676 $379 25.086337153499464 $262 $380 forward 7 unknown #
coedge $-1 $381 $382 $162 $265 forward $371 $-1 #
edge $-1 $383 -58.028453641795267 $268 -48.716817519074937 $264 $384 forward 7 unknown #
edge $-1 $269 -17.571801269094316 $383 0 $163 $385 forward 7 unknown #
coedge $-1 $164 $375 $381 $386 forward $257 $-1 #
vertex $-1 $265 $387 #
vertex $-1 $165 $388 #
straight-curve $-1 -74.710401140552477 14.304134176788882 16.289640202620276 1 0 0 I I #
coedge $-1 $271 $271 $-1 $389 reversed $168 $-1 #
edge $-1 $390 0 $390 6.2831853071796004 $169 $391 forward 7 unknown #
vertex $-1 $172 $392 #
ellipse-curve $-1 -65.089189275953771 21.136237058733656 11.633822141260111 -0.52991927123019833 0 0.84804809178421925 1.2720721376763289 0 0.79487890684529749 1 I I #
coedge $-1 $275 $275 $-1 $393 reversed $175 $-1 #
edge $-1 $394 0 $394 6.2831853071796004 $176 $395 forward 7 unknown #
vertex $-1 $179 $396 #
ellipse-curve $-1 -65.089189275953771 31.384391381650815 11.633822141260111 -0.52991927123019833 0 0.84804809178421925 1.2720721376763289 0 0.79487890684529749 1 I I #
face $-1 $-1 $195 $27 $-1 $397 reversed single #
loop $-1 $-1 $295 $180 #
plane-surface $-1 0 47.307220707376544 0 0 -1 0 0 0 -1 forward_v I I I I #
coedge $-1 $398 $293 $296 $399 forward $181 $-1 #
coedge $-1 $299 $183 $184 $287 reversed $113 $-1 #
coedge $-1 $293 $398 $183 $285 reversed $181 $-1 #
edge $-1 $300 -16.28964020262028 $400 16.28964020262028 $284 $401 forward 7 unknown #
coedge $-1 $185 $184 $398 $402 forward $73 $-1 #
edge $-1 $291 -72.540055543687245 $400 72.540055543687245 $283 $403 forward 7 unknown #
coedge $-1 $296 $295 $185 $289 reversed $280 $-1 #
edge $-1 $404 -72.540055543687245 $290 72.540055543687245 $288 $405 forward 7 unknown #
vertex $-1 $187 $406 #
vertex $-1 $302 $407 #
straight-curve $-1 72.540055543687245 0 -16.28964020262028 0 -1 0 I I #
coedge $-1 $282 $284 $188 $294 reversed $181 $-1 #
edge $-1 $297 -47.307220707376544 $300 47.307220707376544 $293 $408 forward 7 unknown #
coedge $-1 $288 $189 $194 $303 forward $280 $-1 #
coedge $-1 $189 $288 $282 $399 reversed $280 $-1 #
vertex $-1 $190 $409 #
straight-curve $-1 0 47.307220707376544 16.28964020262028 -1 0 0 I I #
coedge $-1 $191 $283 $193 $302 reversed $113 $-1 #
vertex $-1 $294 $410 #
straight-curve $-1 0 -47.307220707376544 16.28964020262028 1 0 0 I I #
edge $-1 $196 -16.28964020262028 $291 16.28964020262028 $193 $411 forward 7 unknown #
edge $-1 $197 -16.28964020262028 $290 16.28964020262028 $194 $412 forward 7 unknown #
point $-1 72.540055543687245 -47.307220707376544 16.28964020262028 #
point $-1 72.540055543687245 47.307220707376544 16.28964020262028 #
face $-1 $-1 $320 $28 $-1 $413 reversed single #
loop $-1 $-1 $414 $199 #
plane-surface $-1 0 -61.973057156628414 13.311947465365275 0 1 0 0 0 1 forward_v I I I I #
coedge $-1 $415 $202 $211 $324 reversed $121 $-1 #
coedge $-1 $202 $415 $203 $312 reversed $121 $-1 #
coedge $-1 $204 $203 $416 $417 forward $77 $-1 #
edge $-1 $316 47.307220707376544 $418 61.973057156628414 $310 $419 forward 7 unknown #
coedge $-1 $420 $208 $204 $314 reversed $320 $-1 #
edge $-1 $421 -61.973057156628414 $315 -47.307220707376544 $313 $422 forward 7 unknown #
vertex $-1 $209 $423 #
vertex $-1 $312 $424 #
straight-curve $-1 0 -47.307220707376544 16.28964020262028 -1 0 0 I I #
straight-curve $-1 -72.540055543687245 -47.307220707376544 0 0 0 -1 I I #
coedge $-1 $208 $420 $210 $323 reversed $320 $-1 #
loop $-1 $-1 $208 $306 #
straight-curve $-1 72.540055543687245 -47.307220707376544 0 0 0 1 I I #
coedge $-1 $211 $210 $425 $426 forward $200 $-1 #
edge $-1 $212 -7.332918224625935 $427 7.332918224625935 $319 $428 forward 7 unknown #
edge $-1 $429 -7.332918224625935 $213 7.332918224625935 $309 $430 forward 7 unknown #
point $-1 72.540055543687245 -47.307220707376544 10.334254728110272 #
point $-1 -72.540055543687245 -47.307220707376544 10.334254728110272 #
plane-surface $-1 0 0 16.28964020262028 0 0 1 1 0 0 forward_v I I I I #
coedge $-1 $338 $337 $330 $431 forward $216 $-1 #
coedge $-1 $330 $218 $220 $334 reversed $129 $-1 #
coedge $-1 $218 $329 $328 $431 reversed $129 $-1 #
coedge $-1 $226 $221 $218 $332 forward $227 $-1 #
edge $-1 $335 48.08374443076476 $432 55.844574172592282 $331 $433 forward 7 unknown #
coedge $-1 $220 $219 $338 $434 reversed $81 $-1 #
edge $-1 $435 -145.08011108737449 $335 -135.7188589021462 $329 $436 forward 7 unknown #
vertex $-1 $222 $437 #
straight-curve $-1 64.779225801859724 0.23216061323794435 16.289640202620269 0 -1 0 I I #
coedge $-1 $328 $223 $226 $342 reversed $216 $-1 #
coedge $-1 $223 $328 $333 $434 forward $216 $-1 #
vertex $-1 $224 $438 #
straight-curve $-1 72.540055543687245 7.3329182246259315 106.22976318245098 0 0 1 I I #
straight-curve $-1 -47.736806867009264 7.3329182246259315 92.182663954205452 0.82903756765294845 0 -0.55919291073839883 I I #
edge $-1 $432 -6.4042757716741541 $228 7.3329182246259315 $337 $439 forward 7 unknown #
point $-1 72.540055543687245 7.3329182246259315 16.28964020262028 #
point $-1 64.779225801859724 7.3329182246259315 16.289640202620276 #
edge $-1 $440 1 $440 0 $231 $-1 forward 7 unknown #
vertex $-1 $232 $441 #
ellipse-curve $-1 67.792897634135926 0.4643212264758958 12.387267899298019 0.55919291073839883 0 0.82903756765294845 1.2435563514794228 0 -0.83878936610759824 1 I I #
point $-1 69.903197024252918 0.4643212264758958 12.833477907705687 #
loop $-1 $-1 $244 $235 #
plane-surface $-1 0 0 16.28964020262028 0 0 1 1 0 0 forward_v I I I I #
coedge $-1 $238 $355 $247 $363 forward $144 $-1 #
edge $-1 $360 135.7188589021462 $356 145.08011108737449 $239 $442 forward 7 unknown #
coedge $-1 $244 $443 $240 $354 forward $349 $-1 #
edge $-1 $357 -55.844574172592282 $360 -48.08374443076476 $353 $444 forward 7 unknown #
coedge $-1 $351 $241 $443 $445 reversed $144 $-1 #
vertex $-1 $242 $446 #
vertex $-1 $242 $447 #
straight-curve $-1 72.540055543687245 21.07011222092601 106.22976318245098 0 0 1 I I #
coedge $-1 $443 $244 $248 $364 forward $349 $-1 #
vertex $-1 $354 $448 #
straight-curve $-1 64.779225801859724 0.23216061323794435 16.289640202620269 0 -1 0 I I #
straight-curve $-1 72.540055543687259 0.23216061323794435 11.054894345006261 0 1 0 I I #
edge $-1 $449 89.940122979830704 $250 95.17486883744472 $351 $450 forward 7 unknown #
edge $-1 $249 48.08374443076476 $449 55.844574172592282 $359 $451 forward 7 unknown #
point $-1 64.779225801859724 7.3329182246259315 16.289640202620276 #
point $-1 72.540055543687245 7.3329182246259315 11.054894345006261 #
edge $-1 $452 1 $452 0 $252 $-1 forward 7 unknown #
vertex $-1 $253 $453 #
ellipse-curve $-1 67.792897634135926 14.201515222775974 12.387267899298019 0.55919291073839883 0 0.82903756765294845 1.2435563514794228 0 -0.83878936610759824 1 I I #
point $-1 69.903197024252918 14.201515222775974 12.833477907705687 #
loop $-1 $-1 $264 $256 #
plane-surface $-1 -72.540055543687245 0 0 1 0 0 0 0 -1 forward_v I I I I #
coedge $-1 $374 $259 $261 $378 reversed $159 $-1 #
coedge $-1 $259 $373 $454 $455 reversed $159 $-1 #
coedge $-1 $267 $262 $259 $376 forward $257 $-1 #
edge $-1 $379 -17.072078132332187 $456 -2.1703455968652321 $375 $457 forward 7 unknown #
coedge $-1 $261 $260 $382 $458 reversed $99 $-1 #
edge $-1 $459 0 $379 17.571801269094316 $373 $460 forward 7 unknown #
vertex $-1 $263 $461 #
straight-curve $-1 -57.638323008220297 13.130157110096114 16.28964020262028 0 1 0 I I #
coedge $-1 $454 $264 $267 $386 reversed $371 $-1 #
coedge $-1 $264 $454 $377 $458 forward $371 $-1 #
vertex $-1 $265 $462 #
straight-curve $-1 -72.540055543687245 14.304134176788882 65.006457721695213 0 0 1 I I #
straight-curve $-1 -72.540055543687245 14.304134176788882 6.9780040798999465 -0.84804809178421925 0 -0.52991927123019833 I I #
edge $-1 $456 -38.216494263595578 $268 -14.304134176788882 $381 $463 forward 7 unknown #
point $-1 -72.540055543687245 14.304134176788882 16.28964020262028 #
point $-1 -57.63832300822029 14.304134176788882 16.28964020262028 #
edge $-1 $464 1 $464 0 $271 $-1 forward 7 unknown #
vertex $-1 $272 $465 #
ellipse-curve $-1 -63.635982668251899 21.136237058733656 9.3082054718213403 -0.52991927123019833 0 0.84804809178421925 1.2720721376763289 0 0.79487890684529749 1 I I #
point $-1 -63.817117138277453 21.136237058733656 12.428701048105417 #
edge $-1 $466 1 $466 0 $275 $-1 forward 7 unknown #
vertex $-1 $276 $467 #
ellipse-curve $-1 -63.635982668251899 31.384391381650815 9.3082054718213403 -0.52991927123019833 0 0.84804809178421925 1.2720721376763289 0 0.79487890684529749 1 I I #
point $-1 -63.817117138277453 31.384391381650815 12.428701048105417 #
plane-surface $-1 72.540055543687245 0 0 -1 0 0 0 0 1 forward_v I I I I #
coedge $-1 $284 $282 $286 $402 reversed $181 $-1 #
edge $-1 $297 -16.28964020262028 $404 16.28964020262028 $296 $468 forward 7 unknown #
vertex $-1 $402 $469 #
straight-curve $-1 -72.540055543687245 -47.307220707376544 0 0 0 -1 I I #
edge $-1 $400 -47.307220707376544 $404 47.307220707376544 $398 $470 forward 7 unknown #
straight-curve $-1 0 -47.307220707376544 -16.28964020262028 -1 0 0 I I #
vertex $-1 $289 $471 #
straight-curve $-1 0 47.307220707376544 -16.28964020262028 1 0 0 I I #
point $-1 72.540055543687245 47.307220707376544 -16.28964020262028 #
point $-1 72.540055543687245 -47.307220707376544 -16.28964020262028 #
straight-curve $-1 -72.540055543687245 0 16.28964020262028 0 -1 0 I I #
point $-1 -72.540055543687245 47.307220707376544 16.28964020262028 #
point $-1 -72.540055543687245 -47.307220707376544 16.28964020262028 #
straight-curve $-1 72.540055543687245 -47.307220707376544 0 0 0 -1 I I #
straight-curve $-1 72.540055543687245 47.307220707376544 0 0 0 -1 I I #
plane-surface $-1 72.540055543687245 0 0 -1 0 0 0 0 1 forward_v I I I I #
coedge $-1 $425 $416 $415 $472 forward $307 $-1 #
coedge $-1 $310 $309 $414 $472 reversed $121 $-1 #
coedge $-1 $414 $473 $311 $417 reversed $307 $-1 #
edge $-1 $418 -72.540055543687245 $421 72.540055543687245 $416 $474 forward 7 unknown #
vertex $-1 $312 $475 #
straight-curve $-1 -72.540055543687245 0 16.28964020262028 0 -1 0 I I #
coedge $-1 $319 $313 $473 $476 forward $320 $-1 #
vertex $-1 $314 $477 #
straight-curve $-1 72.540055543687245 0 16.28964020262028 0 1 0 I I #
point $-1 72.540055543687245 -47.307220707376544 16.28964020262028 #
point $-1 -72.540055543687245 -47.307220707376544 16.28964020262028 #
coedge $-1 $473 $414 $322 $426 reversed $307 $-1 #
edge $-1 $427 -72.540055543687245 $429 72.540055543687245 $425 $478 forward 7 unknown #
vertex $-1 $476 $479 #
straight-curve $-1 72.540055543687245 -54.640138932002479 10.334254728110272 0 -1 0 I I #
vertex $-1 $324 $480 #
straight-curve $-1 -72.540055543687245 -54.640138932002479 10.334254728110272 0 1 0 I I #
edge $-1 $432 89.940122979830704 $435 95.17486883744472 $328 $481 forward 7 unknown #
vertex $-1 $342 $482 #
straight-curve $-1 16.695481371094964 -6.4042757716741541 16.289640202620276 1 0 0 I I #
edge $-1 $435 -6.6364363849120984 $339 7.1007576113879871 $338 $483 forward 7 unknown #
vertex $-1 $434 $484 #
straight-curve $-1 -47.736806867009264 -6.4042757716741541 92.182663954205452 -0.82903756765294845 0 0.55919291073839883 I I #
point $-1 64.779225801859724 -6.4042757716741541 16.289640202620276 #
point $-1 72.540055543687245 7.3329182246259315 11.054894345006261 #
straight-curve $-1 72.540055543687245 0 16.28964020262028 0 1 0 I I #
vertex $-1 $345 $485 #
point $-1 69.036453985615353 0.4643212264758958 11.548478533190421 #
straight-curve $-1 -47.736806867009264 21.07011222092601 92.182663954205452 0.82903756765294845 0 -0.55919291073839883 I I #
coedge $-1 $353 $359 $355 $445 forward $349 $-1 #
straight-curve $-1 16.695481371094964 21.07011222092601 16.289640202620276 -1 0 0 I I #
edge $-1 $449 7.3329182246259315 $357 21.07011222092601 $355 $486 forward 7 unknown #
point $-1 72.540055543687245 21.07011222092601 11.054894345006261 #
point $-1 72.540055543687245 21.07011222092601 16.28964020262028 #
point $-1 64.779225801859724 21.07011222092601 16.289640202620276 #
vertex $-1 $445 $487 #
straight-curve $-1 72.540055543687245 7.3329182246259315 106.22976318245098 0 0 -1 I I #
straight-curve $-1 16.695481371094964 7.3329182246259315 16.289640202620276 1 0 0 I I #
vertex $-1 $367 $488 #
point $-1 69.036453985615353 14.201515222775974 11.548478533190421 #
coedge $-1 $382 $381 $374 $455 forward $371 $-1 #
edge $-1 $456 48.716817519074937 $459 58.028453641795267 $454 $489 forward 7 unknown #
vertex $-1 $386 $490 #
straight-curve $-1 -74.710401140552477 38.216494263595578 16.289640202620276 -1 0 0 I I #
edge $-1 $459 -25.086337153499464 $383 -1.1739770666927676 $382 $491 forward 7 unknown #
vertex $-1 $458 $492 #
straight-curve $-1 -72.540055543687245 38.216494263595578 6.9780040798999465 0.84804809178421925 0 0.52991927123019833 I I #
point $-1 -57.63832300822029 38.216494263595578 16.28964020262028 #
point $-1 -72.540055543687245 14.304134176788882 6.9780040798999465 #
straight-curve $-1 -72.540055543687245 0 16.28964020262028 0 -1 0 I I #
vertex $-1 $389 $493 #
point $-1 -62.363910530575566 21.136237058733656 10.103084378666638 #
vertex $-1 $393 $494 #
point $-1 -62.363910530575566 31.384391381650815 10.103084378666638 #
straight-curve $-1 -72.540055543687245 47.307220707376544 0 0 0 -1 I I #
point $-1 -72.540055543687245 -47.307220707376544 -16.28964020262028 #
straight-curve $-1 -72.540055543687245 0 -16.28964020262028 0 1 0 I I #
point $-1 -72.540055543687245 47.307220707376544 -16.28964020262028 #
edge $-1 $418 -2.9776927372550013 $429 2.9776927372550031 $415 $495 forward 7 unknown #
coedge $-1 $416 $425 $420 $476 reversed $307 $-1 #
straight-curve $-1 0 -61.973057156628414 16.289640202620276 1 0 0 I I #
point $-1 -72.540055543687245 -61.973057156628414 16.289640202620276 #
edge $-1 $421 -2.9776927372550013 $427 2.9776927372550031 $420 $496 forward 7 unknown #
point $-1 72.540055543687245 -61.973057156628414 16.289640202620276 #
straight-curve $-1 0 -61.973057156628414 10.334254728110272 -1 0 0 I I #
point $-1 72.540055543687245 -61.973057156628414 10.334254728110272 #
point $-1 -72.540055543687245 -61.973057156628414 10.334254728110272 #
straight-curve $-1 72.540055543687245 -6.4042757716741541 106.22976318245098 0 0 -1 I I #
point $-1 72.540055543687245 -6.4042757716741541 16.28964020262028 #
straight-curve $-1 72.540055543687259 0.23216061323794435 11.054894345006261 0 1 0 I I #
point $-1 72.540055543687245 -6.4042757716741541 11.054894345006261 #
point $-1 66.954108268028335 0.4643212264758958 11.143711547818596 #
straight-curve $-1 72.540055543687245 0 16.28964020262028 0 1 0 I I #
point $-1 72.540055543687245 7.3329182246259315 16.28964020262028 #
point $-1 66.954108268028335 14.201515222775974 11.143711547818596 #
straight-curve $-1 -72.540055543687245 38.216494263595578 65.006457721695213 0 0 -1 I I #
point $-1 -72.540055543687245 38.216494263595578 16.28964020262028 #
straight-curve $-1 -72.540055543687245 13.130157110096114 6.9780040798999474 0 -1 0 I I #
point $-1 -72.540055543687245 38.216494263595578 6.9780040798999465 #
point $-1 -62.8411037614066 21.136237058733656 8.0361333341450116 #
point $-1 -62.8411037614066 31.384391381650815 8.0361333341450116 #
straight-curve $-1 -72.540055543687245 -61.973057156628414 13.311947465365275 0 0 -1 I I #
straight-curve $-1 72.540055543687245 -61.973057156628414 13.311947465365275 0 0 -1 I I #
End-of-ACIS-data 