500 0 9 0           
7 Unknown 11 ACIS 5.0 NT 24 Fri Mar 26 16:54:11 1999 
-1 9.9999999999999995e-007 1e-010 
body $-1 $9 $-1 $10 #
body $-1 $11 $-1 $12 #
body $-1 $13 $-1 $14 #
body $-1 $15 $-1 $16 #
body $-1 $17 $-1 $18 #
body $-1 $19 $-1 $20 #
body $-1 $21 $-1 $22 #
body $-1 $23 $-1 $24 #
body $-1 $25 $-1 $26 #
lump $-1 $-1 $27 $0 #
transform $-1 1 0 0 0 1 0 0 0 1 65.473189489425337 28.135068572795877 7.2616932259239269 1 rotate no_reflect no_shear #
lump $-1 $-1 $28 $1 #
transform $-1 1 0 0 0 1 0 0 0 1 65.473189489425337 28.135068572795877 7.2616932259239269 1 rotate no_reflect no_shear #
lump $-1 $-1 $29 $2 #
transform $-1 1 0 0 0 1 0 0 0 1 65.473189489425337 28.135068572795877 7.2616932259239269 1 rotate no_reflect no_shear #
lump $-1 $-1 $30 $3 #
transform $-1 1 0 0 0 1 0 0 0 1 65.473189489425337 28.135068572795877 7.2616932259239269 1 rotate no_reflect no_shear #
lump $-1 $-1 $31 $4 #
transform $-1 1 0 0 0 1 0 0 0 1 65.473189489425337 28.135068572795877 7.2616932259239269 1 rotate no_reflect no_shear #
lump $-1 $-1 $32 $5 #
transform $-1 1 0 0 0 1 0 0 0 1 65.473189489425337 28.135068572795877 7.2616932259239269 1 rotate no_reflect no_shear #
lump $-1 $-1 $33 $6 #
transform $-1 1 0 0 0 1 0 0 0 1 65.473189489425337 28.135068572795877 7.2616932259239269 1 rotate no_reflect no_shear #
lump $-1 $-1 $34 $7 #
transform $-1 1 0 0 0 1 0 0 0 1 65.473189489425337 28.135068572795877 7.2616932259239269 1 rotate no_reflect no_shear #
lump $-1 $-1 $35 $8 #
transform $-1 1 0 0 0 1 0 0 0 1 65.473189489425337 28.135068572795877 7.2616932259239269 1 rotate no_reflect no_shear #
shell $-1 $-1 $-1 $36 $-1 $9 #
shell $-1 $-1 $-1 $37 $-1 $11 #
shell $-1 $-1 $-1 $38 $-1 $13 #
shell $-1 $-1 $-1 $39 $-1 $15 #
shell $-1 $-1 $-1 $40 $-1 $17 #
shell $-1 $-1 $-1 $41 $-1 $19 #
shell $-1 $-1 $-1 $42 $-1 $21 #
shell $-1 $-1 $-1 $43 $-1 $23 #
shell $-1 $-1 $-1 $44 $-1 $25 #
face $-1 $45 $46 $27 $-1 $47 forward single #
face $-1 $48 $49 $28 $-1 $50 forward single #
face $-1 $51 $52 $29 $-1 $53 reversed single #
face $-1 $54 $55 $30 $-1 $56 forward single #
face $-1 $57 $58 $31 $-1 $59 forward single #
face $-1 $60 $61 $32 $-1 $62 reversed single #
face $-1 $63 $64 $33 $-1 $65 forward single #
face $-1 $66 $67 $34 $-1 $68 reversed single #
face $-1 $69 $70 $35 $-1 $71 forward single #
face $-1 $72 $73 $27 $-1 $74 reversed single #
loop $-1 $-1 $75 $36 #
plane-surface $-1 0 0 7.2616932259239269 0 0 1 1 0 0 forward_v I I I I #
face $-1 $76 $77 $28 $-1 $78 forward single #
loop $-1 $-1 $79 $37 #
plane-surface $-1 -65.473189489425337 0 0 1 0 0 0 0 -1 forward_v I I I I #
face $-1 $80 $81 $29 $-1 $82 reversed single #
loop $-1 $-1 $83 $38 #
plane-surface $-1 40.197237860107514 107.30903114794599 121.74977357802265 1 0 0 0 -0.83867057594974714 -0.54463902268945019 forward_v I I I I #
face $-1 $84 $85 $30 $-1 $86 forward single #
loop $-1 $87 $88 $39 #
cone-surface $-1 47.418938325626897 26.409600664938349 4.9781057904144204 0 -0.83867057594974714 -0.54463902268945019 0.5 0 0 1 I I 0 1 0.5 forward I I I I #
face $-1 $89 $90 $31 $-1 $91 forward single #
loop $-1 $92 $93 $40 #
cone-surface $-1 58.251489023905961 26.409600664938349 4.9781057904144204 0 -0.83867057594974714 -0.54463902268945019 0.5 0 0 1 I I 0 1 0.5 forward I I I I #
face $-1 $94 $95 $32 $-1 $96 reversed single #
loop $-1 $-1 $97 $41 #
plane-surface $-1 -17.562099818027594 -136.69453779356053 75.757733261109706 -1 0 0 0 -0.82903758062907751 0.55919289150049634 forward_v I I I I #
face $-1 $98 $99 $33 $-1 $100 forward single #
loop $-1 $101 $102 $42 #
cone-surface $-1 -30.420115386293787 -25.586259177858867 4.253962554619183 0 0.82903758062907751 -0.55919289150049634 1 0 0 1 I I 0 1 1 forward I I I I #
face $-1 $103 $104 $34 $-1 $105 reversed single #
loop $-1 $-1 $106 $43 #
plane-surface $-1 52.433249689324853 -136.69453779356053 75.757733261109706 -1 0 0 0 -0.82903758062907751 0.55919289150049634 forward_v I I I I #
face $-1 $107 $108 $35 $-1 $109 forward single #
loop $-1 $110 $111 $44 #
cone-surface $-1 39.575234121058656 -25.586259177858867 4.253962554619183 0 0.82903758062907751 -0.55919289150049634 1 0 0 1 I I 0 1 1 forward I I I I #
face $-1 $112 $113 $27 $-1 $114 reversed single #
loop $-1 $-1 $115 $45 #
plane-surface $-1 0 0 -7.2616932259239269 0 0 1 1 0 0 forward_v I I I I #
coedge $-1 $116 $117 $118 $119 forward $46 $-1 #
face $-1 $120 $121 $28 $-1 $122 reversed single #
loop $-1 $-1 $123 $48 #
plane-surface $-1 0 0 7.2616932259239269 0 0 1 1 0 0 forward_v I I I I #
coedge $-1 $124 $125 $126 $127 forward $49 $-1 #
face $-1 $128 $129 $29 $-1 $130 forward single #
loop $-1 $-1 $131 $51 #
plane-surface $-1 52.835213674766422 -2.5118439287805643 50.431265706259055 0 0.83867057594974714 0.54463902268945019 1 0 0 forward_v I I I I #
coedge $-1 $132 $133 $134 $135 reversed $52 $-1 #
face $-1 $-1 $136 $30 $-1 $137 forward single #
loop $-1 $138 $139 $54 #
cone-surface $-1 47.418938325626897 25.780597732976037 4.569626523397333 0 -0.83867057594974714 -0.54463902268945019 0.25 0 0 1 I I -0.70710678118654746 0.70710678118654746 0.25 forward I I I I #
loop $-1 $-1 $140 $39 #
coedge $-1 $88 $88 $141 $142 reversed $55 $-1 #
face $-1 $-1 $143 $31 $-1 $144 forward single #
loop $-1 $145 $146 $57 #
cone-surface $-1 58.251489023905961 25.780597732976037 4.569626523397333 0 -0.83867057594974714 -0.54463902268945019 0.25 0 0 1 I I -0.70710678118654746 0.70710678118654746 0.25 forward I I I I #
loop $-1 $-1 $147 $40 #
coedge $-1 $93 $93 $148 $149 reversed $58 $-1 #
face $-1 $150 $151 $32 $-1 $152 reversed single #
loop $-1 $-1 $153 $60 #
plane-surface $-1 -30.420115386293787 -28.135068572795873 2.5334489684063897 0 -0.82903758062907751 0.55919289150049634 1 0 0 forward_v I I I I #
coedge $-1 $154 $155 $156 $157 reversed $61 $-1 #
face $-1 $-1 $158 $33 $-1 $159 forward single #
loop $-1 $160 $161 $63 #
cone-surface $-1 -30.420115386293787 -24.217551453645751 3.3307575663229594 0 0.82903758062907751 -0.55919289150049634 0.5 0 0 1 I I -0.70710678118654746 0.70710678118654746 0.5 forward I I I I #
loop $-1 $-1 $162 $42 #
coedge $-1 $102 $102 $163 $164 reversed $64 $-1 #
face $-1 $165 $166 $34 $-1 $167 reversed single #
loop $-1 $-1 $168 $66 #
plane-surface $-1 39.575234121058656 -28.135068572795873 2.5334489684063897 0 -0.82903758062907751 0.55919289150049634 1 0 0 forward_v I I I I #
coedge $-1 $169 $170 $171 $172 reversed $67 $-1 #
face $-1 $-1 $173 $35 $-1 $174 forward single #
loop $-1 $175 $176 $69 #
cone-surface $-1 39.575234121058656 -24.217551453645751 3.3307575663229594 0 0.82903758062907751 -0.55919289150049634 0.5 0 0 1 I I -0.70710678118654746 0.70710678118654746 0.5 forward I I I I #
loop $-1 $-1 $177 $44 #
coedge $-1 $111 $111 $178 $179 reversed $70 $-1 #
face $-1 $180 $181 $27 $-1 $182 reversed single #
loop $-1 $-1 $183 $72 #
plane-surface $-1 0 -28.135068572795877 0 0 1 0 0 0 1 forward_v I I I I #
coedge $-1 $184 $185 $186 $187 forward $73 $-1 #
coedge $-1 $188 $75 $189 $190 forward $46 $-1 #
coedge $-1 $75 $188 $191 $192 forward $46 $-1 #
coedge $-1 $193 $194 $75 $119 reversed $195 $-1 #
edge $-1 $196 -28.135068572795877 $197 28.135068572795877 $118 $198 forward 7 unknown #
face $-1 $199 $200 $28 $-1 $201 reversed single #
loop $-1 $-1 $202 $76 #
plane-surface $-1 -74.628308224190206 -26.635068572795877 0 1 0 0 0 0 -1 forward_v I I I I #
coedge $-1 $203 $204 $124 $205 forward $77 $-1 #
coedge $-1 $206 $79 $123 $205 reversed $49 $-1 #
coedge $-1 $79 $206 $207 $208 reversed $49 $-1 #
coedge $-1 $209 $210 $79 $127 reversed $200 $-1 #
edge $-1 $211 -7.2616932259239269 $212 7.2616932259239269 $126 $213 forward 7 unknown #
face $-1 $214 $215 $29 $-1 $216 reversed single #
loop $-1 $-1 $134 $80 #
plane-surface $-1 0 0 7.2616932259239269 0 0 1 1 0 0 forward_v I I I I #
coedge $-1 $217 $218 $219 $220 reversed $81 $-1 #
coedge $-1 $133 $83 $221 $222 reversed $52 $-1 #
coedge $-1 $83 $132 $217 $223 reversed $52 $-1 #
coedge $-1 $219 $224 $83 $135 forward $129 $-1 #
edge $-1 $225 25.519447001177117 $226 28.131712240942466 $134 $227 forward 7 unknown #
loop $-1 $-1 $141 $84 #
plane-surface $-1 52.835213674766422 -2.5118439287805643 50.431265706259055 0 0.83867057594974714 0.54463902268945019 1 0 0 forward_v I I I I #
loop $-1 $-1 $228 $54 #
coedge $-1 $139 $139 $140 $229 reversed $85 $-1 #
coedge $-1 $140 $140 $139 $229 forward $87 $-1 #
coedge $-1 $141 $141 $88 $142 forward $136 $-1 #
edge $-1 $230 -3.5966497736492964e-015 $230 6.2831853071795969 $141 $231 forward 7 unknown #
loop $-1 $-1 $148 $89 #
plane-surface $-1 52.835213674766422 -2.5118439287805643 50.431265706259055 0 0.83867057594974714 0.54463902268945019 1 0 0 forward_v I I I I #
loop $-1 $-1 $232 $57 #
coedge $-1 $146 $146 $147 $233 reversed $90 $-1 #
coedge $-1 $147 $147 $146 $233 forward $92 $-1 #
coedge $-1 $148 $148 $93 $149 forward $143 $-1 #
edge $-1 $234 -3.5966497736492964e-015 $234 6.2831853071795969 $148 $235 forward 7 unknown #
face $-1 $236 $237 $32 $-1 $238 reversed single #
loop $-1 $-1 $239 $94 #
plane-surface $-1 -43.278130954559984 -136.69453779356053 75.757733261109706 1 0 0 0 0.82903758062907751 -0.55919289150049634 forward_v I I I I #
coedge $-1 $240 $241 $242 $243 reversed $95 $-1 #
coedge $-1 $155 $97 $244 $245 reversed $61 $-1 #
coedge $-1 $97 $154 $240 $246 reversed $61 $-1 #
coedge $-1 $242 $247 $97 $157 forward $248 $-1 #
edge $-1 $249 40.212200323984391 $250 43.401441246061253 $156 $251 forward 7 unknown #
loop $-1 $-1 $163 $98 #
plane-surface $-1 -30.420115386293787 -28.135068572795873 2.5334489684063897 0 -0.82903758062907751 0.55919289150049634 1 0 0 forward_v I I I I #
loop $-1 $-1 $252 $63 #
coedge $-1 $161 $161 $162 $253 reversed $99 $-1 #
coedge $-1 $162 $162 $161 $253 forward $101 $-1 #
coedge $-1 $163 $163 $102 $164 forward $158 $-1 #
edge $-1 $254 1.4726665764702984e-015 $254 6.2831853071796022 $163 $255 forward 7 unknown #
face $-1 $256 $257 $34 $-1 $258 reversed single #
loop $-1 $-1 $259 $103 #
plane-surface $-1 26.717218552792463 -136.69453779356053 75.757733261109706 1 0 0 0 0.82903758062907751 -0.55919289150049634 forward_v I I I I #
coedge $-1 $260 $261 $262 $263 reversed $104 $-1 #
coedge $-1 $170 $106 $264 $265 reversed $67 $-1 #
coedge $-1 $106 $169 $260 $266 reversed $67 $-1 #
coedge $-1 $262 $267 $106 $172 forward $268 $-1 #
edge $-1 $269 40.212200323984391 $270 43.401441246061253 $171 $271 forward 7 unknown #
loop $-1 $-1 $178 $107 #
plane-surface $-1 39.575234121058656 -28.135068572795873 2.5334489684063897 0 -0.82903758062907751 0.55919289150049634 1 0 0 forward_v I I I I #
loop $-1 $-1 $272 $69 #
coedge $-1 $176 $176 $177 $273 reversed $108 $-1 #
coedge $-1 $177 $177 $176 $273 forward $110 $-1 #
coedge $-1 $178 $178 $111 $179 forward $173 $-1 #
edge $-1 $274 1.4726665764702984e-015 $274 6.2831853071796022 $178 $275 forward 7 unknown #
face $-1 $276 $277 $27 $-1 $278 reversed single #
loop $-1 $-1 $279 $112 #
plane-surface $-1 -65.473189489425337 0 0 1 0 0 0 0 -1 forward_v I I I I #
coedge $-1 $280 $191 $281 $282 forward $113 $-1 #
coedge $-1 $283 $115 $280 $284 forward $73 $-1 #
coedge $-1 $115 $283 $285 $286 forward $73 $-1 #
coedge $-1 $194 $193 $115 $187 reversed $195 $-1 #
edge $-1 $287 -28.135068572795877 $288 28.135068572795877 $186 $289 forward 7 unknown #
coedge $-1 $117 $116 $290 $291 forward $46 $-1 #
coedge $-1 $292 $293 $116 $190 reversed $277 $-1 #
edge $-1 $197 -65.473189489425337 $294 65.473189489425337 $189 $295 forward 7 unknown #
coedge $-1 $183 $296 $117 $192 reversed $113 $-1 #
edge $-1 $297 -65.473189489425337 $196 65.473189489425337 $191 $298 forward 7 unknown #
coedge $-1 $186 $118 $296 $299 forward $195 $-1 #
coedge $-1 $118 $186 $292 $300 reversed $195 $-1 #
loop $-1 $-1 $193 $276 #
vertex $-1 $119 $301 #
vertex $-1 $119 $302 #
straight-curve $-1 65.473189489425337 0 7.2616932259239269 0 1 0 I I #
face $-1 $303 $304 $28 $-1 $305 reversed single #
loop $-1 $-1 $126 $120 #
plane-surface $-1 -70.050748856807772 -25.135068572795877 0 0 -1 0 0 0 -1 forward_v I I I I #
coedge $-1 $306 $307 $308 $309 forward $121 $-1 #
coedge $-1 $310 $123 $210 $311 forward $77 $-1 #
coedge $-1 $123 $310 $312 $313 forward $77 $-1 #
edge $-1 $314 -28.135068572795877 $212 -25.135068572795877 $123 $315 forward 7 unknown #
coedge $-1 $125 $124 $316 $317 reversed $49 $-1 #
coedge $-1 $318 $319 $125 $208 forward $304 $-1 #
edge $-1 $211 25.135068572795877 $320 28.135068572795877 $207 $321 forward 7 unknown #
coedge $-1 $308 $126 $319 $322 reversed $200 $-1 #
coedge $-1 $126 $308 $203 $311 reversed $200 $-1 #
vertex $-1 $208 $323 #
vertex $-1 $311 $324 #
straight-curve $-1 -65.473189489425337 -25.135068572795877 0 0 0 1 I I #
face $-1 $-1 $325 $29 $-1 $326 reversed single #
loop $-1 $-1 $327 $128 #
plane-surface $-1 65.473189489425337 0 0 -1 0 0 0 0 1 forward_v I I I I #
coedge $-1 $328 $131 $133 $223 forward $81 $-1 #
coedge $-1 $131 $328 $327 $329 reversed $81 $-1 #
coedge $-1 $330 $134 $131 $220 forward $129 $-1 #
edge $-1 $226 13.779631022724303 $331 39.055582652042112 $219 $332 forward 7 unknown #
coedge $-1 $333 $334 $132 $222 forward $325 $-1 #
edge $-1 $335 -57.635729411417003 $225 -53.6131935630874 $221 $336 forward 7 unknown #
edge $-1 $226 51.473813101703279 $335 56.270137145591789 $133 $337 forward 7 unknown #
coedge $-1 $134 $330 $333 $338 forward $129 $-1 #
vertex $-1 $222 $339 #
vertex $-1 $135 $340 #
straight-curve $-1 40.197237860107514 53.654515573972994 7.2616932259239277 0 -1 0 I I #
coedge $-1 $228 $228 $-1 $341 reversed $138 $-1 #
edge $-1 $342 0 $342 6.2831853071796004 $139 $343 forward 7 unknown #
vertex $-1 $142 $344 #
ellipse-curve $-1 47.418938325626897 26.828935952913199 5.2504253017591296 0 0.83867057594974714 0.54463902268945019 0.5 0 0 1 I I #
coedge $-1 $232 $232 $-1 $345 reversed $145 $-1 #
edge $-1 $346 0 $346 6.2831853071796004 $146 $347 forward 7 unknown #
vertex $-1 $149 $348 #
ellipse-curve $-1 58.251489023905961 26.828935952913199 5.2504253017591296 0 0.83867057594974714 0.54463902268945019 0.5 0 0 1 I I #
face $-1 $-1 $248 $32 $-1 $349 forward single #
loop $-1 $-1 $350 $150 #
plane-surface $-1 0 -28.135068572795877 0 0 1 0 0 0 1 forward_v I I I I #
coedge $-1 $351 $352 $353 $354 reversed $151 $-1 #
coedge $-1 $355 $153 $155 $246 forward $95 $-1 #
coedge $-1 $153 $355 $351 $356 forward $95 $-1 #
coedge $-1 $353 $156 $153 $243 forward $248 $-1 #
edge $-1 $250 2.3520421248807004 $357 28.06807326141309 $242 $358 forward 7 unknown #
coedge $-1 $359 $360 $154 $245 forward $237 $-1 #
edge $-1 $361 -35.345417662148471 $249 -30.617173404630925 $244 $362 forward 7 unknown #
edge $-1 $250 -5.7032930327835363 $361 6.404651964132713e-015 $155 $363 forward 7 unknown #
coedge $-1 $156 $353 $359 $364 forward $248 $-1 #
loop $-1 $-1 $353 $236 #
vertex $-1 $245 $365 #
vertex $-1 $157 $366 #
straight-curve $-1 -17.562099818027594 -68.347268896780264 7.2616932259239277 0 1 0 I I #
coedge $-1 $252 $252 $-1 $367 reversed $160 $-1 #
edge $-1 $368 0 $368 6.2831853071796004 $161 $369 forward 7 unknown #
vertex $-1 $164 $370 #
ellipse-curve $-1 -30.420115386293787 -26.540448111757446 4.8975710971651569 0 -0.82903758062907751 0.55919289150049634 1 0 0 1 I I #
face $-1 $-1 $268 $34 $-1 $371 forward single #
loop $-1 $-1 $372 $165 #
plane-surface $-1 0 -28.135068572795877 0 0 1 0 0 0 1 forward_v I I I I #
coedge $-1 $373 $374 $375 $376 reversed $166 $-1 #
coedge $-1 $377 $168 $170 $266 forward $104 $-1 #
coedge $-1 $168 $377 $373 $378 forward $104 $-1 #
coedge $-1 $375 $171 $168 $263 forward $268 $-1 #
edge $-1 $270 -32.645632628795525 $379 -6.929601492263135 $262 $380 forward 7 unknown #
coedge $-1 $381 $382 $169 $265 forward $257 $-1 #
edge $-1 $383 -35.345417662148471 $269 -30.617173404630925 $264 $384 forward 7 unknown #
edge $-1 $270 -5.7032930327835363 $383 6.404651964132713e-015 $170 $385 forward 7 unknown #
coedge $-1 $171 $375 $381 $386 forward $268 $-1 #
loop $-1 $-1 $375 $256 #
vertex $-1 $265 $387 #
vertex $-1 $172 $388 #
straight-curve $-1 52.433249689324853 -68.347268896780264 7.2616932259239277 0 1 0 I I #
coedge $-1 $272 $272 $-1 $389 reversed $175 $-1 #
edge $-1 $390 0 $390 6.2831853071796004 $176 $391 forward 7 unknown #
vertex $-1 $179 $392 #
ellipse-curve $-1 39.575234121058656 -26.540448111757446 4.8975710971651569 0 -0.82903758062907751 0.55919289150049634 1 0 0 1 I I #
face $-1 $-1 $195 $27 $-1 $393 reversed single #
loop $-1 $-1 $292 $180 #
plane-surface $-1 0 28.135068572795877 0 0 -1 0 0 0 -1 forward_v I I I I #
coedge $-1 $394 $290 $293 $395 forward $181 $-1 #
coedge $-1 $296 $183 $184 $284 reversed $113 $-1 #
coedge $-1 $290 $394 $183 $282 reversed $181 $-1 #
edge $-1 $297 -7.2616932259239269 $396 7.2616932259239269 $281 $397 forward 7 unknown #
coedge $-1 $185 $184 $394 $398 forward $73 $-1 #
edge $-1 $288 -65.473189489425337 $396 65.473189489425337 $280 $399 forward 7 unknown #
coedge $-1 $293 $292 $185 $286 reversed $277 $-1 #
edge $-1 $400 -65.473189489425337 $287 65.473189489425337 $285 $401 forward 7 unknown #
vertex $-1 $187 $402 #
vertex $-1 $299 $403 #
straight-curve $-1 65.473189489425337 0 -7.2616932259239269 0 -1 0 I I #
coedge $-1 $279 $281 $188 $291 reversed $181 $-1 #
edge $-1 $294 -28.135068572795877 $297 28.135068572795877 $290 $404 forward 7 unknown #
coedge $-1 $285 $189 $194 $300 forward $277 $-1 #
coedge $-1 $189 $285 $279 $395 reversed $277 $-1 #
vertex $-1 $190 $405 #
straight-curve $-1 0 28.135068572795877 7.2616932259239269 -1 0 0 I I #
coedge $-1 $191 $280 $193 $299 reversed $113 $-1 #
vertex $-1 $291 $406 #
straight-curve $-1 0 -28.135068572795877 7.2616932259239269 1 0 0 I I #
edge $-1 $196 -7.2616932259239269 $288 7.2616932259239269 $193 $407 forward 7 unknown #
edge $-1 $197 -7.2616932259239269 $287 7.2616932259239269 $194 $408 forward 7 unknown #
point $-1 65.473189489425337 -28.135068572795877 7.2616932259239269 #
point $-1 65.473189489425337 28.135068572795877 7.2616932259239269 #
face $-1 $-1 $409 $28 $-1 $410 reversed single #
loop $-1 $-1 $207 $199 #
plane-surface $-1 0 0 -7.2616932259239269 0 0 1 1 0 0 forward_v I I I I #
coedge $-1 $411 $202 $412 $413 reversed $121 $-1 #
coedge $-1 $202 $411 $310 $414 reversed $121 $-1 #
coedge $-1 $210 $209 $202 $309 reversed $200 $-1 #
edge $-1 $415 -7.2616932259239269 $416 7.2616932259239269 $308 $417 forward 7 unknown #
coedge $-1 $204 $203 $307 $414 forward $77 $-1 #
edge $-1 $212 -4.5775593673824346 $415 4.5775593673824346 $210 $418 forward 7 unknown #
coedge $-1 $419 $316 $204 $313 reversed $409 $-1 #
edge $-1 $420 -74.628308224190206 $314 -65.473189489425337 $312 $421 forward 7 unknown #
vertex $-1 $317 $422 #
straight-curve $-1 -65.473189489425337 0 7.2616932259239269 0 1 0 I I #
coedge $-1 $312 $423 $206 $317 forward $409 $-1 #
edge $-1 $320 -7.2616932259239269 $314 7.2616932259239269 $316 $424 forward 7 unknown #
coedge $-1 $412 $207 $423 $425 forward $304 $-1 #
coedge $-1 $207 $412 $209 $322 forward $304 $-1 #
vertex $-1 $425 $426 #
straight-curve $-1 -65.473189489425337 0 -7.2616932259239269 0 -1 0 I I #
edge $-1 $416 -4.5775593673824346 $211 4.5775593673824346 $209 $427 forward 7 unknown #
point $-1 -65.473189489425337 -25.135068572795877 -7.2616932259239269 #
point $-1 -65.473189489425337 -25.135068572795877 7.2616932259239269 #
loop $-1 $-1 $221 $214 #
plane-surface $-1 0 28.135068572795877 0 0 -1 0 0 0 -1 forward_v I I I I #
coedge $-1 $428 $429 $218 $329 forward $215 $-1 #
coedge $-1 $218 $217 $334 $430 reversed $81 $-1 #
edge $-1 $331 29.642179662572033 $431 34.438503706460551 $327 $432 forward 7 unknown #
coedge $-1 $224 $219 $429 $433 forward $129 $-1 #
vertex $-1 $433 $434 #
straight-curve $-1 26.417606837383211 25.522803333030527 7.2616932259239277 1 0 0 I I #
coedge $-1 $435 $221 $224 $338 reversed $325 $-1 #
coedge $-1 $221 $435 $328 $430 forward $325 $-1 #
vertex $-1 $222 $436 #
straight-curve $-1 40.197237860107514 28.135068572795873 60.874886789011327 0 0 1 I I #
straight-curve $-1 40.197237860107514 -2.5118439287805643 50.431265706259055 0 0.54463902268945019 -0.83867057594974714 I I #
edge $-1 $437 -65.473189489425337 $225 -40.197237860107514 $333 $438 forward 7 unknown #
point $-1 40.197237860107514 28.135068572795877 7.2616932259239269 #
point $-1 40.197237860107514 25.522803333030527 7.2616932259239277 #
edge $-1 $439 1 $439 0 $228 $-1 forward 7 unknown #
vertex $-1 $229 $440 #
ellipse-curve $-1 47.418938325626897 25.990265376963475 4.7057862790696952 0 0.83867057594974714 0.54463902268945019 0.5 0 0 1 I I #
point $-1 47.918938325626897 26.82893595291322 5.2504253017591456 #
edge $-1 $441 1 $441 0 $232 $-1 forward 7 unknown #
vertex $-1 $233 $442 #
ellipse-curve $-1 58.251489023905961 25.990265376963475 4.7057862790696952 0 0.83867057594974714 0.54463902268945019 0.5 0 0 1 I I #
point $-1 58.751489023905961 26.82893595291322 5.2504253017591456 #
plane-surface $-1 0 0 7.2616932259239269 0 0 1 1 0 0 forward_v I I I I #
coedge $-1 $360 $359 $352 $443 forward $237 $-1 #
coedge $-1 $352 $239 $241 $356 reversed $151 $-1 #
coedge $-1 $239 $351 $350 $443 reversed $151 $-1 #
coedge $-1 $247 $242 $239 $354 forward $248 $-1 #
edge $-1 $357 -43.401441246061253 $444 -40.212200323984391 $353 $445 forward 7 unknown #
coedge $-1 $241 $240 $360 $446 reversed $95 $-1 #
edge $-1 $447 -6.404651964132713e-015 $357 5.7032930327835363 $351 $448 forward 7 unknown #
vertex $-1 $243 $449 #
straight-curve $-1 -15.210057693146894 -24.945827650719014 7.2616932259239269 -1 0 0 I I #
coedge $-1 $350 $244 $247 $364 reversed $237 $-1 #
coedge $-1 $244 $350 $355 $446 forward $237 $-1 #
vertex $-1 $245 $450 #
straight-curve $-1 -17.562099818027594 -28.135068572795873 37.878866630554853 0 0 1 I I #
straight-curve $-1 -17.562099818027594 -28.135068572795873 2.5334489684063897 0 -0.55919289150049634 -0.82903758062907751 I I #
edge $-1 $444 -43.278130954559984 $249 -17.562099818027594 $359 $451 forward 7 unknown #
point $-1 -17.562099818027594 -28.135068572795877 7.2616932259239269 #
point $-1 -17.562099818027594 -24.945827650719014 7.2616932259239269 #
edge $-1 $452 1 $452 0 $252 $-1 forward 7 unknown #
vertex $-1 $253 $453 #
ellipse-curve $-1 -30.420115386293787 -24.632070243960289 3.6103540120732074 0 -0.82903758062907751 0.55919289150049634 1 0 0 1 I I #
point $-1 -29.420115386293787 -26.540448111757446 4.8975710971651587 #
plane-surface $-1 0 0 7.2616932259239269 0 0 1 1 0 0 forward_v I I I I #
coedge $-1 $382 $381 $374 $454 forward $257 $-1 #
coedge $-1 $374 $259 $261 $378 reversed $166 $-1 #
coedge $-1 $259 $373 $372 $454 reversed $166 $-1 #
coedge $-1 $267 $262 $259 $376 forward $268 $-1 #
edge $-1 $379 -43.401441246061253 $455 -40.212200323984391 $375 $456 forward 7 unknown #
coedge $-1 $261 $260 $382 $457 reversed $104 $-1 #
edge $-1 $458 -6.404651964132713e-015 $379 5.7032930327835363 $373 $459 forward 7 unknown #
vertex $-1 $263 $460 #
straight-curve $-1 19.787617060529328 -24.945827650719014 7.2616932259239269 -1 0 0 I I #
coedge $-1 $372 $264 $267 $386 reversed $257 $-1 #
coedge $-1 $264 $372 $377 $457 forward $257 $-1 #
vertex $-1 $265 $461 #
straight-curve $-1 52.433249689324853 -28.135068572795873 37.878866630554853 0 0 1 I I #
straight-curve $-1 52.433249689324853 -28.135068572795873 2.5334489684063897 0 -0.55919289150049634 -0.82903758062907751 I I #
edge $-1 $455 26.717218552792463 $269 52.433249689324853 $381 $462 forward 7 unknown #
point $-1 52.433249689324853 -28.135068572795877 7.2616932259239269 #
point $-1 52.433249689324853 -24.945827650719014 7.2616932259239269 #
edge $-1 $463 1 $463 0 $272 $-1 forward 7 unknown #
vertex $-1 $273 $464 #
ellipse-curve $-1 39.575234121058656 -24.632070243960289 3.6103540120732074 0 -0.82903758062907751 0.55919289150049634 1 0 0 1 I I #
point $-1 40.575234121058656 -26.540448111757446 4.8975710971651587 #
plane-surface $-1 65.473189489425337 0 0 -1 0 0 0 0 1 forward_v I I I I #
coedge $-1 $281 $279 $283 $398 reversed $181 $-1 #
edge $-1 $294 -7.2616932259239269 $400 7.2616932259239269 $293 $465 forward 7 unknown #
vertex $-1 $398 $466 #
straight-curve $-1 -65.473189489425337 -28.135068572795877 0 0 0 -1 I I #
edge $-1 $396 -28.135068572795877 $400 28.135068572795877 $394 $467 forward 7 unknown #
straight-curve $-1 0 -28.135068572795877 -7.2616932259239269 -1 0 0 I I #
vertex $-1 $286 $468 #
straight-curve $-1 0 28.135068572795877 -7.2616932259239269 1 0 0 I I #
point $-1 65.473189489425337 28.135068572795877 -7.2616932259239269 #
point $-1 65.473189489425337 -28.135068572795877 -7.2616932259239269 #
straight-curve $-1 -65.473189489425337 0 7.2616932259239269 0 -1 0 I I #
point $-1 -65.473189489425337 28.135068572795877 7.2616932259239269 #
point $-1 -65.473189489425337 -28.135068572795877 7.2616932259239269 #
straight-curve $-1 65.473189489425337 -28.135068572795877 0 0 0 -1 I I #
straight-curve $-1 65.473189489425337 28.135068572795877 0 0 0 -1 I I #
loop $-1 $-1 $316 $303 #
plane-surface $-1 0 -28.135068572795877 0 0 1 0 0 0 1 forward_v I I I I #
coedge $-1 $307 $306 $419 $469 reversed $121 $-1 #
coedge $-1 $319 $318 $306 $413 forward $304 $-1 #
edge $-1 $470 -1.5 $416 1.5 $306 $471 forward 7 unknown #
edge $-1 $415 -1.5 $420 1.5 $307 $472 forward 7 unknown #
vertex $-1 $311 $473 #
vertex $-1 $322 $474 #
straight-curve $-1 -74.628308224190206 -25.135068572795877 0 0 0 -1 I I #
straight-curve $-1 -70.050748856807772 -25.135068572795877 7.2616932259239269 -1 0 0 I I #
coedge $-1 $423 $312 $411 $469 forward $409 $-1 #
vertex $-1 $414 $475 #
straight-curve $-1 0 -28.135068572795877 7.2616932259239269 1 0 0 I I #
point $-1 -65.473189489425337 -28.135068572795877 7.2616932259239269 #
coedge $-1 $316 $419 $318 $425 reversed $409 $-1 #
straight-curve $-1 -65.473189489425337 -28.135068572795877 0 0 0 1 I I #
edge $-1 $320 -4.5775593673824346 $470 4.5775593673824346 $423 $476 forward 7 unknown #
point $-1 -65.473189489425337 -28.135068572795877 -7.2616932259239269 #
straight-curve $-1 -70.050748856807772 -25.135068572795877 -7.2616932259239269 1 0 0 I I #
coedge $-1 $429 $327 $435 $477 reversed $215 $-1 #
coedge $-1 $327 $428 $330 $433 reversed $215 $-1 #
edge $-1 $431 -39.055582652042112 $335 -13.779631022724303 $334 $478 forward 7 unknown #
vertex $-1 $329 $479 #
straight-curve $-1 65.473189489425337 9.3785155712221968 32.121717115939099 0 0.54463902268945019 -0.83867057594974714 I I #
edge $-1 $331 25.522803333030527 $437 28.135068572795877 $429 $480 forward 7 unknown #
point $-1 65.473189489425323 25.522803333030527 7.2616932259239277 #
coedge $-1 $334 $333 $428 $477 forward $325 $-1 #
point $-1 40.197237860107514 28.135068572795877 3.2391573775943243 #
vertex $-1 $433 $481 #
straight-curve $-1 0 28.135068572795877 7.2616932259239269 -1 0 0 I I #
vertex $-1 $341 $482 #
point $-1 47.918938325626897 25.990265376963475 4.7057862790696952 #
vertex $-1 $345 $483 #
point $-1 58.751489023905961 25.990265376963475 4.7057862790696952 #
edge $-1 $444 30.617173404630925 $447 35.345417662148471 $350 $484 forward 7 unknown #
vertex $-1 $364 $485 #
straight-curve $-1 -43.278130954559984 -68.347268896780264 7.2616932259239277 0 -1 0 I I #
edge $-1 $447 -28.06807326141309 $361 -2.3520421248807004 $360 $486 forward 7 unknown #
vertex $-1 $446 $487 #
straight-curve $-1 -43.278130954559984 -28.135068572795873 2.5334489684063897 0 0.55919289150049634 0.82903758062907751 I I #
point $-1 -43.278130954559984 -24.945827650719014 7.2616932259239269 #
point $-1 -17.562099818027594 -28.135068572795877 2.5334489684063843 #
straight-curve $-1 0 -28.135068572795877 7.2616932259239269 1 0 0 I I #
vertex $-1 $367 $488 #
point $-1 -29.420115386293787 -24.632070243960289 3.6103540120732074 #
edge $-1 $455 30.617173404630925 $458 35.345417662148471 $372 $489 forward 7 unknown #
vertex $-1 $386 $490 #
straight-curve $-1 26.717218552792463 -68.347268896780264 7.2616932259239277 0 -1 0 I I #
edge $-1 $458 6.929601492263135 $383 32.645632628795525 $382 $491 forward 7 unknown #
vertex $-1 $457 $492 #
straight-curve $-1 26.717218552792463 -28.135068572795873 2.5334489684063897 0 0.55919289150049634 0.82903758062907751 I I #
point $-1 26.717218552792463 -24.945827650719014 7.2616932259239269 #
point $-1 52.433249689324853 -28.135068572795877 2.5334489684063843 #
straight-curve $-1 0 -28.135068572795877 7.2616932259239269 1 0 0 I I #
vertex $-1 $389 $493 #
point $-1 40.575234121058656 -24.632070243960289 3.6103540120732074 #
straight-curve $-1 -65.473189489425337 28.135068572795877 0 0 0 -1 I I #
point $-1 -65.473189489425337 -28.135068572795877 -7.2616932259239269 #
straight-curve $-1 -65.473189489425337 0 -7.2616932259239269 0 1 0 I I #
point $-1 -65.473189489425337 28.135068572795877 -7.2616932259239269 #
edge $-1 $420 -7.2616932259239269 $470 7.2616932259239269 $411 $494 forward 7 unknown #
vertex $-1 $413 $495 #
straight-curve $-1 -74.628308224190206 -26.635068572795877 -7.2616932259239269 0 1 0 I I #
straight-curve $-1 -74.628308224190206 -26.635068572795877 7.2616932259239269 0 -1 0 I I #
point $-1 -74.628308224190206 -25.135068572795877 7.2616932259239269 #
point $-1 -74.628308224190206 -25.135068572795877 -7.2616932259239269 #
point $-1 -74.628308224190206 -28.135068572795877 7.2616932259239269 #
straight-curve $-1 -70.050748856807772 -28.135068572795877 -7.2616932259239269 -1 0 0 I I #
edge $-1 $437 -7.2616932259239269 $431 -3.2391573775943243 $428 $496 forward 7 unknown #
straight-curve $-1 26.417606837383211 28.135068572795873 3.2391573775943279 -1 0 0 I I #
point $-1 65.473189489425323 28.135068572795877 3.2391573775943243 #
straight-curve $-1 65.473189489425337 0 7.2616932259239269 0 1 0 I I #
point $-1 65.473189489425337 28.135068572795877 7.2616932259239269 #
point $-1 47.418938325626897 25.5709300889886 4.4334667677249708 #
point $-1 58.251489023905961 25.5709300889886 4.4334667677249708 #
straight-curve $-1 -43.278130954559984 -28.135068572795873 37.878866630554853 0 0 -1 I I #
point $-1 -43.278130954559984 -28.135068572795877 7.2616932259239269 #
straight-curve $-1 -15.210057693146894 -28.135068572795877 2.533448968406383 1 0 0 I I #
point $-1 -43.278130954559984 -28.135068572795877 2.5334489684063843 #
point $-1 -30.420115386293787 -23.803032663331212 3.0511611205727114 #
straight-curve $-1 26.717218552792463 -28.135068572795873 37.878866630554853 0 0 -1 I I #
point $-1 26.717218552792463 -28.135068572795877 7.2616932259239269 #
straight-curve $-1 19.787617060529328 -28.135068572795877 2.533448968406383 1 0 0 I I #
point $-1 26.717218552792463 -28.135068572795877 2.5334489684063843 #
point $-1 39.575234121058656 -23.803032663331212 3.0511611205727114 #
straight-curve $-1 -74.628308224190206 -28.135068572795877 0 0 0 -1 I I #
point $-1 -74.628308224190206 -28.135068572795877 -7.2616932259239269 #
straight-curve $-1 65.473189489425337 28.135068572795877 0 0 0 -1 I I #
End-of-ACIS-data 