500 0 9 0           
7 Unknown 11 ACIS 5.0 NT 24 Fri Mar 26 18:09:13 1999 
-1 9.9999999999999995e-007 1e-010 
body $-1 $9 $-1 $10 #
body $-1 $11 $-1 $12 #
body $-1 $13 $-1 $14 #
body $-1 $15 $-1 $16 #
body $-1 $17 $-1 $18 #
body $-1 $19 $-1 $20 #
body $-1 $21 $-1 $22 #
body $-1 $23 $-1 $24 #
body $-1 $25 $-1 $26 #
lump $-1 $-1 $27 $0 #
transform $-1 1 0 0 0 1 0 0 0 1 53.546555986205632 23.369320471228178 10.455893420224244 1 rotate no_reflect no_shear #
lump $-1 $-1 $28 $1 #
transform $-1 1 0 0 0 1 0 0 0 1 53.546555986205632 23.369320471228178 10.455893420224244 1 rotate no_reflect no_shear #
lump $-1 $-1 $29 $2 #
transform $-1 1 0 0 0 1 0 0 0 1 53.546555986205632 23.369320471228178 10.455893420224244 1 rotate no_reflect no_shear #
lump $-1 $-1 $30 $3 #
transform $-1 1 0 0 0 1 0 0 0 1 53.546555986205632 23.369320471228178 10.455893420224244 1 rotate no_reflect no_shear #
lump $-1 $-1 $31 $4 #
transform $-1 1 0 0 0 1 0 0 0 1 53.546555986205632 23.369320471228178 10.455893420224244 1 rotate no_reflect no_shear #
lump $-1 $-1 $32 $5 #
transform $-1 1 0 0 0 1 0 0 0 1 53.546555986205632 23.369320471228178 10.455893420224244 1 rotate no_reflect no_shear #
lump $-1 $-1 $33 $6 #
transform $-1 1 0 0 0 1 0 0 0 1 53.546555986205632 23.369320471228178 10.455893420224244 1 rotate no_reflect no_shear #
lump $-1 $-1 $34 $7 #
transform $-1 1 0 0 0 1 0 0 0 1 53.546555986205632 23.369320471228178 10.455893420224244 1 rotate no_reflect no_shear #
lump $-1 $-1 $35 $8 #
transform $-1 1 0 0 0 1 0 0 0 1 53.546555986205632 23.369320471228178 10.455893420224244 1 rotate no_reflect no_shear #
shell $-1 $-1 $-1 $36 $-1 $9 #
shell $-1 $-1 $-1 $37 $-1 $11 #
shell $-1 $-1 $-1 $38 $-1 $13 #
shell $-1 $-1 $-1 $39 $-1 $15 #
shell $-1 $-1 $-1 $40 $-1 $17 #
shell $-1 $-1 $-1 $41 $-1 $19 #
shell $-1 $-1 $-1 $42 $-1 $21 #
shell $-1 $-1 $-1 $43 $-1 $23 #
shell $-1 $-1 $-1 $44 $-1 $25 #
face $-1 $45 $46 $27 $-1 $47 forward single #
face $-1 $48 $49 $28 $-1 $50 forward single #
face $-1 $51 $52 $29 $-1 $53 reversed single #
face $-1 $54 $55 $30 $-1 $56 forward single #
face $-1 $57 $58 $31 $-1 $59 forward single #
face $-1 $60 $61 $32 $-1 $62 reversed single #
face $-1 $63 $64 $33 $-1 $65 forward single #
face $-1 $66 $67 $34 $-1 $68 forward single #
face $-1 $69 $70 $35 $-1 $71 forward single #
face $-1 $72 $73 $27 $-1 $74 reversed single #
loop $-1 $-1 $75 $36 #
plane-surface $-1 0 0 10.455893420224244 0 0 1 1 0 0 forward_v I I I I #
face $-1 $76 $77 $28 $-1 $78 forward single #
loop $-1 $-1 $79 $37 #
plane-surface $-1 0 -23.369320471228178 0 0 1 0 0 0 1 forward_v I I I I #
face $-1 $80 $81 $29 $-1 $82 reversed single #
loop $-1 $-1 $83 $38 #
plane-surface $-1 -135.58464019643191 0.8431737869963456 74.525327994431279 0 1 0 -0.7660444514056185 0 0.64278759981090561 forward_v I I I I #
face $-1 $84 $85 $30 $-1 $86 forward single #
loop $-1 $87 $88 $39 #
cone-surface $-1 -50.321940044716456 3.5068441734622056 7.0445635394600004 0.7660444514056185 0 -0.64278759981090561 0.64278759981090561 0 0.7660444514056185 1 I I 0 1 1 forward I I I I #
face $-1 $89 $90 $31 $-1 $91 forward single #
loop $-1 $92 $93 $40 #
cone-surface $-1 -50.321940044716456 7.5023497531609955 7.0445635394600004 0.7660444514056185 0 -0.64278759981090561 0.64278759981090561 0 0.7660444514056185 1 I I 0 1 1 forward I I I I #
face $-1 $94 $95 $32 $-1 $96 reversed single #
loop $-1 $-1 $97 $41 #
plane-surface $-1 48.260940544553947 -4.7991457025238553 158.63048918967689 0 -1 0 -0.68199836817093118 0 -0.7313536940579346 forward_v I I I I #
face $-1 $98 $99 $33 $-1 $100 forward single #
loop $-1 $101 $102 $42 #
cone-surface $-1 51.314798289714744 -10.575601937633495 8.3015115084149382 -0.68199836817093118 0 -0.7313536940579346 0.3656768470289673 0 -0.34099918408546559 1 I I 0 1 0.5 forward I I I I #
face $-1 $103 $104 $34 $-1 $105 forward single #
loop $-1 $106 $107 $43 #
cone-surface $-1 51.314798289714744 -8.4094308494673804 8.3015115084149382 -0.68199836817093118 0 -0.7313536940579346 0.3656768470289673 0 -0.34099918408546559 1 I I 0 1 0.5 forward I I I I #
face $-1 $108 $109 $35 $-1 $110 forward single #
loop $-1 $111 $112 $44 #
cone-surface $-1 51.314798289714744 -6.2432597613012675 8.3015115084149382 -0.68199836817093118 0 -0.7313536940579346 0.3656768470289673 0 -0.34099918408546559 1 I I 0 1 0.5 forward I I I I #
face $-1 $113 $114 $27 $-1 $115 reversed single #
loop $-1 $-1 $116 $45 #
plane-surface $-1 0 0 -10.455893420224244 0 0 1 1 0 0 forward_v I I I I #
coedge $-1 $117 $118 $119 $120 forward $46 $-1 #
face $-1 $121 $122 $28 $-1 $123 reversed single #
loop $-1 $-1 $124 $48 #
plane-surface $-1 0 0 10.455893420224244 0 0 1 1 0 0 forward_v I I I I #
coedge $-1 $125 $126 $127 $128 forward $49 $-1 #
face $-1 $129 $130 $29 $-1 $131 reversed single #
loop $-1 $-1 $132 $51 #
plane-surface $-1 -53.546555986205647 5.5045969633116023 5.6872035934044902 -0.7660444514056185 0 0.64278759981090561 0.64278759981090561 0 0.7660444514056185 forward_v I I I I #
coedge $-1 $133 $134 $135 $136 reversed $52 $-1 #
face $-1 $-1 $137 $30 $-1 $138 forward single #
loop $-1 $139 $140 $54 #
cone-surface $-1 -48.715004762585323 3.5068441734622056 5.6961847722001817 0.7660444514056185 0 -0.64278759981090561 0.3213937999054528 0 0.38302222570280925 1 I I -0.70710678118654746 0.70710678118654746 0.5 forward I I I I #
loop $-1 $-1 $141 $39 #
coedge $-1 $88 $88 $142 $143 reversed $55 $-1 #
face $-1 $-1 $144 $31 $-1 $145 forward single #
loop $-1 $146 $147 $57 #
cone-surface $-1 -48.715004762585323 7.5023497531609955 5.6961847722001817 0.7660444514056185 0 -0.64278759981090561 0.3213937999054528 0 0.38302222570280925 1 I I -0.70710678118654746 0.70710678118654746 0.5 forward I I I I #
loop $-1 $-1 $148 $40 #
coedge $-1 $93 $93 $149 $150 reversed $58 $-1 #
face $-1 $151 $152 $32 $-1 $153 reversed single #
loop $-1 $-1 $154 $60 #
plane-surface $-1 -24.776387062977349 -8.4094308494673804 80.307546140493898 0.68199836817093118 0 0.7313536940579346 0.7313536940579346 0 -0.68199836817093118 forward_v I I I I #
coedge $-1 $155 $156 $157 $158 reversed $61 $-1 #
face $-1 $-1 $159 $33 $-1 $160 forward single #
loop $-1 $161 $162 $63 #
cone-surface $-1 50.620649997918832 -10.575601937633495 7.5571286167219949 -0.68199836817093118 0 -0.7313536940579346 0.18283842351448365 0 -0.17049959204273279 1 I I -0.70710678118654746 0.70710678118654746 0.25 forward I I I I #
loop $-1 $-1 $163 $42 #
coedge $-1 $102 $102 $164 $165 reversed $64 $-1 #
face $-1 $-1 $166 $34 $-1 $167 forward single #
loop $-1 $168 $169 $66 #
cone-surface $-1 50.620649997918832 -8.4094308494673804 7.5571286167219949 -0.68199836817093118 0 -0.7313536940579346 0.18283842351448365 0 -0.17049959204273279 1 I I -0.70710678118654746 0.70710678118654746 0.25 forward I I I I #
loop $-1 $-1 $170 $43 #
coedge $-1 $107 $107 $171 $172 reversed $67 $-1 #
face $-1 $-1 $173 $35 $-1 $174 forward single #
loop $-1 $175 $176 $69 #
cone-surface $-1 50.620649997918832 -6.2432597613012675 7.5571286167219949 -0.68199836817093118 0 -0.7313536940579346 0.18283842351448365 0 -0.17049959204273279 1 I I -0.70710678118654746 0.70710678118654746 0.25 forward I I I I #
loop $-1 $-1 $177 $44 #
coedge $-1 $112 $112 $178 $179 reversed $70 $-1 #
face $-1 $180 $181 $27 $-1 $182 reversed single #
loop $-1 $-1 $183 $72 #
plane-surface $-1 0 -23.369320471228178 0 0 1 0 0 0 1 forward_v I I I I #
coedge $-1 $184 $185 $186 $187 forward $73 $-1 #
coedge $-1 $188 $75 $189 $190 forward $46 $-1 #
coedge $-1 $75 $188 $191 $192 forward $46 $-1 #
coedge $-1 $193 $194 $75 $120 reversed $195 $-1 #
edge $-1 $196 -23.369320471228178 $197 23.369320471228178 $119 $198 forward 7 unknown #
face $-1 $199 $200 $28 $-1 $201 reversed single #
loop $-1 $-1 $202 $76 #
plane-surface $-1 -53.546555986205632 0 0 1 0 0 0 0 -1 forward_v I I I I #
coedge $-1 $203 $204 $205 $206 forward $77 $-1 #
coedge $-1 $205 $79 $202 $207 reversed $49 $-1 #
coedge $-1 $79 $205 $208 $209 reversed $49 $-1 #
coedge $-1 $210 $211 $79 $128 reversed $200 $-1 #
edge $-1 $212 -53.546555986205632 $213 53.546555986205632 $127 $214 forward 7 unknown #
face $-1 $215 $216 $29 $-1 $217 forward single #
loop $-1 $-1 $218 $80 #
plane-surface $-1 -135.58464019643191 10.166020139626859 74.525327994431279 0 -1 0 0.7660444514056185 0 -0.64278759981090561 forward_v I I I I #
coedge $-1 $219 $220 $221 $222 reversed $81 $-1 #
coedge $-1 $134 $83 $223 $224 reversed $52 $-1 #
coedge $-1 $83 $133 $219 $225 reversed $52 $-1 #
coedge $-1 $221 $226 $83 $136 forward $216 $-1 #
edge $-1 $227 14.24576411201032 $228 18.247169882132006 $135 $229 forward 7 unknown #
loop $-1 $-1 $142 $84 #
plane-surface $-1 -53.546555986205647 5.5045969633116023 5.6872035934044902 -0.7660444514056185 0 0.64278759981090561 0.64278759981090561 0 0.7660444514056185 forward_v I I I I #
loop $-1 $-1 $230 $54 #
coedge $-1 $140 $140 $141 $231 reversed $85 $-1 #
coedge $-1 $141 $141 $140 $231 forward $87 $-1 #
coedge $-1 $142 $142 $88 $143 forward $137 $-1 #
edge $-1 $232 0 $232 6.2831853071796004 $142 $233 forward 7 unknown #
loop $-1 $-1 $149 $89 #
plane-surface $-1 -53.546555986205647 5.5045969633116023 5.6872035934044902 -0.7660444514056185 0 0.64278759981090561 0.64278759981090561 0 0.7660444514056185 forward_v I I I I #
loop $-1 $-1 $234 $57 #
coedge $-1 $147 $147 $148 $235 reversed $90 $-1 #
coedge $-1 $148 $148 $147 $235 forward $92 $-1 #
coedge $-1 $149 $149 $93 $150 forward $144 $-1 #
edge $-1 $236 0 $236 6.2831853071796004 $149 $237 forward 7 unknown #
face $-1 $238 $239 $32 $-1 $240 reversed single #
loop $-1 $-1 $241 $94 #
plane-surface $-1 48.260940544553947 -12.019715996410905 158.63048918967689 0 1 0 0.68199836817093118 0 0.7313536940579346 forward_v I I I I #
coedge $-1 $242 $243 $244 $245 reversed $95 $-1 #
coedge $-1 $156 $97 $246 $247 reversed $61 $-1 #
coedge $-1 $97 $155 $242 $248 reversed $61 $-1 #
coedge $-1 $244 $249 $97 $158 forward $250 $-1 #
edge $-1 $251 -29.416085713928659 $252 -25.999867720453288 $157 $253 forward 7 unknown #
loop $-1 $-1 $164 $98 #
plane-surface $-1 -24.776387062977349 -8.4094308494673804 80.307546140493898 0.68199836817093118 0 0.7313536940579346 0.7313536940579346 0 -0.68199836817093118 forward_v I I I I #
loop $-1 $-1 $254 $63 #
coedge $-1 $162 $162 $163 $255 reversed $99 $-1 #
coedge $-1 $163 $163 $162 $255 forward $101 $-1 #
coedge $-1 $164 $164 $102 $165 forward $159 $-1 #
edge $-1 $256 0 $256 6.2831853071796004 $164 $257 forward 7 unknown #
loop $-1 $-1 $171 $103 #
plane-surface $-1 -24.776387062977349 -8.4094308494673804 80.307546140493898 0.68199836817093118 0 0.7313536940579346 0.7313536940579346 0 -0.68199836817093118 forward_v I I I I #
loop $-1 $-1 $258 $66 #
coedge $-1 $169 $169 $170 $259 reversed $104 $-1 #
coedge $-1 $170 $170 $169 $259 forward $106 $-1 #
coedge $-1 $171 $171 $107 $172 forward $166 $-1 #
edge $-1 $260 0 $260 6.2831853071796004 $171 $261 forward 7 unknown #
loop $-1 $-1 $178 $108 #
plane-surface $-1 -24.776387062977349 -8.4094308494673804 80.307546140493898 0.68199836817093118 0 0.7313536940579346 0.7313536940579346 0 -0.68199836817093118 forward_v I I I I #
loop $-1 $-1 $262 $69 #
coedge $-1 $176 $176 $177 $263 reversed $109 $-1 #
coedge $-1 $177 $177 $176 $263 forward $111 $-1 #
coedge $-1 $178 $178 $112 $179 forward $173 $-1 #
edge $-1 $264 0 $264 6.2831853071796004 $178 $265 forward 7 unknown #
face $-1 $266 $267 $27 $-1 $268 reversed single #
loop $-1 $-1 $269 $113 #
plane-surface $-1 -53.546555986205632 0 0 1 0 0 0 0 -1 forward_v I I I I #
coedge $-1 $270 $191 $271 $272 forward $114 $-1 #
coedge $-1 $273 $116 $270 $274 forward $73 $-1 #
coedge $-1 $116 $273 $275 $276 forward $73 $-1 #
coedge $-1 $194 $193 $116 $187 reversed $195 $-1 #
edge $-1 $277 -23.369320471228178 $278 23.369320471228178 $186 $279 forward 7 unknown #
coedge $-1 $118 $117 $280 $281 forward $46 $-1 #
coedge $-1 $282 $283 $117 $190 reversed $267 $-1 #
edge $-1 $197 -53.546555986205632 $284 53.546555986205632 $189 $285 forward 7 unknown #
coedge $-1 $183 $286 $118 $192 reversed $114 $-1 #
edge $-1 $287 -53.546555986205632 $196 53.546555986205632 $191 $288 forward 7 unknown #
coedge $-1 $186 $119 $286 $289 forward $195 $-1 #
coedge $-1 $119 $186 $282 $290 reversed $195 $-1 #
loop $-1 $-1 $193 $266 #
vertex $-1 $120 $291 #
vertex $-1 $120 $292 #
straight-curve $-1 53.546555986205632 0 10.455893420224244 0 1 0 I I #
face $-1 $293 $294 $28 $-1 $295 reversed single #
loop $-1 $-1 $210 $121 #
plane-surface $-1 0 -27.755166814020381 5.3607235054292168 0 0 1 1 0 0 forward_v I I I I #
coedge $-1 $296 $297 $125 $207 forward $122 $-1 #
coedge $-1 $298 $124 $297 $299 forward $77 $-1 #
coedge $-1 $124 $298 $300 $301 forward $77 $-1 #
coedge $-1 $126 $125 $124 $206 reversed $49 $-1 #
edge $-1 $302 -53.546555986205632 $303 53.546555986205632 $124 $304 forward 7 unknown #
edge $-1 $303 -10.455893420224244 $213 -5.3607235054292168 $202 $305 forward 7 unknown #
coedge $-1 $300 $306 $126 $209 forward $307 $-1 #
edge $-1 $212 5.3607235054292168 $302 10.455893420224244 $208 $308 forward 7 unknown #
coedge $-1 $309 $127 $306 $310 forward $200 $-1 #
coedge $-1 $127 $309 $296 $311 forward $200 $-1 #
vertex $-1 $209 $312 #
vertex $-1 $207 $313 #
straight-curve $-1 0 -23.369320471228178 5.3607235054292168 -1 0 0 I I #
face $-1 $-1 $314 $29 $-1 $315 reversed single #
loop $-1 $-1 $135 $129 #
plane-surface $-1 0 0 10.455893420224244 0 0 1 1 0 0 forward_v I I I I #
coedge $-1 $316 $317 $318 $319 reversed $130 $-1 #
coedge $-1 $320 $132 $134 $225 forward $81 $-1 #
coedge $-1 $132 $320 $316 $321 forward $81 $-1 #
coedge $-1 $318 $135 $132 $222 forward $216 $-1 #
edge $-1 $228 -1.9091246946594556 $322 7.4137216579710579 $221 $323 forward 7 unknown #
coedge $-1 $324 $325 $133 $224 forward $314 $-1 #
edge $-1 $326 -31.575460403811132 $227 -26.806770576991397 $223 $327 forward 7 unknown #
edge $-1 $228 -6.2250823931557298 $326 -2.2061860048766535e-014 $134 $328 forward 7 unknown #
coedge $-1 $135 $318 $324 $329 forward $216 $-1 #
vertex $-1 $224 $330 #
vertex $-1 $136 $331 #
straight-curve $-1 -67.792320098215953 0.8431737869963456 10.455893420224243 1 0 0 I I #
coedge $-1 $230 $230 $-1 $332 reversed $139 $-1 #
edge $-1 $333 0 $333 6.2831853071796004 $140 $334 forward 7 unknown #
vertex $-1 $143 $335 #
ellipse-curve $-1 -51.545853101144793 3.5068441734622056 8.0715485068143753 -0.7660444514056185 0 0.64278759981090561 0.64278759981090561 0 0.7660444514056185 1 I I #
coedge $-1 $234 $234 $-1 $336 reversed $146 $-1 #
edge $-1 $337 0 $337 6.2831853071796004 $147 $338 forward 7 unknown #
vertex $-1 $150 $339 #
ellipse-curve $-1 -51.545853101144793 7.5023497531609955 8.0715485068143753 -0.7660444514056185 0 0.64278759981090561 0.64278759981090561 0 0.7660444514056185 1 I I #
face $-1 $-1 $250 $32 $-1 $340 forward single #
loop $-1 $-1 $341 $151 #
plane-surface $-1 53.546555986205632 0 0 -1 0 0 0 0 1 forward_v I I I I #
coedge $-1 $342 $343 $344 $345 reversed $152 $-1 #
coedge $-1 $346 $154 $156 $248 forward $95 $-1 #
coedge $-1 $154 $346 $342 $347 forward $95 $-1 #
coedge $-1 $344 $157 $154 $245 forward $250 $-1 #
edge $-1 $252 0.59443027779016511 $348 7.8150005716772153 $244 $349 forward 7 unknown #
coedge $-1 $350 $351 $155 $247 forward $239 $-1 #
edge $-1 $352 -72.045026061875831 $251 -68.859351174614204 $246 $353 forward 7 unknown #
edge $-1 $252 102.4220232485403 $352 107.09311197241124 $156 $354 forward 7 unknown #
coedge $-1 $157 $344 $350 $355 forward $250 $-1 #
loop $-1 $-1 $344 $238 #
vertex $-1 $247 $356 #
vertex $-1 $158 $357 #
straight-curve $-1 24.130470272276973 -4.7991457025238553 10.455893420224243 -1 0 0 I I #
coedge $-1 $254 $254 $-1 $358 reversed $161 $-1 #
edge $-1 $359 0 $359 6.2831853071796004 $162 $360 forward 7 unknown #
vertex $-1 $165 $361 #
ellipse-curve $-1 51.838446989467947 -10.575601937633495 8.8630559765934223 0.68199836817093118 0 0.7313536940579346 0.3656768470289673 0 -0.34099918408546559 1 I I #
coedge $-1 $258 $258 $-1 $362 reversed $168 $-1 #
edge $-1 $363 0 $363 6.2831853071796004 $169 $364 forward 7 unknown #
vertex $-1 $172 $365 #
ellipse-curve $-1 51.838446989467947 -8.4094308494673804 8.8630559765934223 0.68199836817093118 0 0.7313536940579346 0.3656768470289673 0 -0.34099918408546559 1 I I #
coedge $-1 $262 $262 $-1 $366 reversed $175 $-1 #
edge $-1 $367 0 $367 6.2831853071796004 $176 $368 forward 7 unknown #
vertex $-1 $179 $369 #
ellipse-curve $-1 51.838446989467947 -6.2432597613012675 8.8630559765934223 0.68199836817093118 0 0.7313536940579346 0.3656768470289673 0 -0.34099918408546559 1 I I #
face $-1 $-1 $195 $27 $-1 $370 reversed single #
loop $-1 $-1 $282 $180 #
plane-surface $-1 0 23.369320471228178 0 0 -1 0 0 0 -1 forward_v I I I I #
coedge $-1 $371 $280 $283 $372 forward $181 $-1 #
coedge $-1 $286 $183 $184 $274 reversed $114 $-1 #
coedge $-1 $280 $371 $183 $272 reversed $181 $-1 #
edge $-1 $287 -10.455893420224244 $373 10.455893420224244 $271 $374 forward 7 unknown #
coedge $-1 $185 $184 $371 $375 forward $73 $-1 #
edge $-1 $278 -53.546555986205632 $373 53.546555986205632 $270 $376 forward 7 unknown #
coedge $-1 $283 $282 $185 $276 reversed $267 $-1 #
edge $-1 $377 -53.546555986205632 $277 53.546555986205632 $275 $378 forward 7 unknown #
vertex $-1 $187 $379 #
vertex $-1 $289 $380 #
straight-curve $-1 53.546555986205632 0 -10.455893420224244 0 -1 0 I I #
coedge $-1 $269 $271 $188 $281 reversed $181 $-1 #
edge $-1 $284 -23.369320471228178 $287 23.369320471228178 $280 $381 forward 7 unknown #
coedge $-1 $275 $189 $194 $290 forward $267 $-1 #
coedge $-1 $189 $275 $269 $372 reversed $267 $-1 #
vertex $-1 $190 $382 #
straight-curve $-1 0 23.369320471228178 10.455893420224244 -1 0 0 I I #
coedge $-1 $191 $270 $193 $289 reversed $114 $-1 #
vertex $-1 $281 $383 #
straight-curve $-1 0 -23.369320471228178 10.455893420224244 1 0 0 I I #
edge $-1 $196 -10.455893420224244 $278 10.455893420224244 $193 $384 forward 7 unknown #
edge $-1 $197 -10.455893420224244 $277 10.455893420224244 $194 $385 forward 7 unknown #
point $-1 53.546555986205632 -23.369320471228178 10.455893420224244 #
point $-1 53.546555986205632 23.369320471228178 10.455893420224244 #
face $-1 $-1 $307 $28 $-1 $386 reversed single #
loop $-1 $-1 $387 $199 #
plane-surface $-1 0 -32.141013156812583 7.9083084628267297 0 1 0 0 0 1 forward_v I I I I #
coedge $-1 $388 $202 $211 $311 reversed $122 $-1 #
coedge $-1 $202 $388 $203 $299 reversed $122 $-1 #
coedge $-1 $204 $203 $389 $390 forward $77 $-1 #
edge $-1 $303 23.369320471228178 $391 32.141013156812583 $297 $392 forward 7 unknown #
coedge $-1 $393 $208 $204 $301 reversed $307 $-1 #
edge $-1 $394 -32.141013156812583 $302 -23.369320471228178 $300 $395 forward 7 unknown #
vertex $-1 $209 $396 #
vertex $-1 $299 $397 #
straight-curve $-1 0 -23.369320471228178 10.455893420224244 -1 0 0 I I #
straight-curve $-1 -53.546555986205632 -23.369320471228178 0 0 0 -1 I I #
coedge $-1 $208 $393 $210 $310 reversed $307 $-1 #
loop $-1 $-1 $208 $293 #
straight-curve $-1 53.546555986205632 -23.369320471228178 0 0 0 1 I I #
coedge $-1 $211 $210 $398 $399 forward $200 $-1 #
edge $-1 $212 -4.3858463427922025 $400 4.3858463427922025 $306 $401 forward 7 unknown #
edge $-1 $402 -4.3858463427922025 $213 4.3858463427922025 $296 $403 forward 7 unknown #
point $-1 53.546555986205632 -23.369320471228178 5.3607235054292168 #
point $-1 -53.546555986205632 -23.369320471228178 5.3607235054292168 #
loop $-1 $-1 $223 $215 #
plane-surface $-1 -53.546555986205632 0 0 1 0 0 0 0 -1 forward_v I I I I #
coedge $-1 $317 $218 $220 $321 reversed $130 $-1 #
coedge $-1 $218 $316 $404 $405 reversed $130 $-1 #
coedge $-1 $226 $221 $218 $319 forward $216 $-1 #
edge $-1 $322 -18.247169882132006 $406 -14.24576411201032 $318 $407 forward 7 unknown #
coedge $-1 $220 $219 $325 $408 reversed $81 $-1 #
edge $-1 $409 2.2061860048766535e-014 $322 6.2250823931557298 $316 $410 forward 7 unknown #
vertex $-1 $222 $411 #
straight-curve $-1 -49.545150216083947 2.7522984816558012 10.455893420224244 0 1 0 I I #
coedge $-1 $404 $223 $226 $329 reversed $314 $-1 #
coedge $-1 $223 $404 $320 $408 forward $314 $-1 #
vertex $-1 $224 $412 #
straight-curve $-1 -53.546555986205632 0.8431737869963456 37.26266399721564 0 0 1 I I #
straight-curve $-1 -53.546555986205647 0.8431737869963456 5.6872035934044902 -0.64278759981090561 0 -0.7660444514056185 I I #
edge $-1 $406 -10.166020139626859 $227 -0.8431737869963456 $324 $413 forward 7 unknown #
point $-1 -53.546555986205632 0.8431737869963456 10.455893420224244 #
point $-1 -49.545150216083947 0.8431737869963456 10.455893420224244 #
edge $-1 $414 1 $414 0 $230 $-1 forward 7 unknown #
vertex $-1 $231 $415 #
ellipse-curve $-1 -49.098026988288133 3.5068441734622056 6.0175785721056343 -0.7660444514056185 0 0.64278759981090561 0.64278759981090561 0 0.7660444514056185 1 I I #
point $-1 -50.903065501333877 3.5068441734622056 8.8375929582199859 #
edge $-1 $416 1 $416 0 $234 $-1 forward 7 unknown #
vertex $-1 $235 $417 #
ellipse-curve $-1 -49.098026988288133 7.5023497531609955 6.0175785721056343 -0.7660444514056185 0 0.64278759981090561 0.64278759981090561 0 0.7660444514056185 1 I I #
point $-1 -50.903065501333877 7.5023497531609955 8.8375929582199859 #
plane-surface $-1 0 0 10.455893420224244 0 0 1 1 0 0 forward_v I I I I #
coedge $-1 $351 $350 $343 $418 forward $239 $-1 #
coedge $-1 $343 $241 $243 $347 reversed $152 $-1 #
coedge $-1 $241 $342 $341 $418 reversed $152 $-1 #
coedge $-1 $249 $244 $241 $345 forward $250 $-1 #
edge $-1 $348 25.999867720453288 $419 29.416085713928659 $344 $420 forward 7 unknown #
coedge $-1 $243 $242 $351 $421 reversed $95 $-1 #
edge $-1 $422 -107.09311197241124 $348 -102.4220232485403 $342 $423 forward 7 unknown #
vertex $-1 $245 $424 #
straight-curve $-1 50.130337992730247 -4.2047154247336902 10.455893420224243 0 -1 0 I I #
coedge $-1 $341 $246 $249 $355 reversed $239 $-1 #
coedge $-1 $246 $341 $346 $421 forward $239 $-1 #
vertex $-1 $247 $425 #
straight-curve $-1 53.546555986205632 -4.7991457025238553 79.315244594838447 0 0 1 I I #
straight-curve $-1 -24.776387062977349 -4.7991457025238553 80.307546140493898 0.7313536940579346 0 -0.68199836817093118 I I #
edge $-1 $419 -12.019715996410905 $251 -4.7991457025238553 $350 $426 forward 7 unknown #
point $-1 53.546555986205632 -4.7991457025238553 10.455893420224244 #
point $-1 50.130337992730261 -4.7991457025238553 10.455893420224243 #
edge $-1 $427 1 $427 0 $254 $-1 forward 7 unknown #
vertex $-1 $255 $428 #
ellipse-curve $-1 50.791149589961563 -10.575601937633495 7.7399670402364782 0.68199836817093118 0 0.7313536940579346 0.3656768470289673 0 -0.34099918408546559 1 I I #
point $-1 52.20412383649689 -10.575601937633495 8.5220567925079305 #
edge $-1 $429 1 $429 0 $258 $-1 forward 7 unknown #
vertex $-1 $259 $430 #
ellipse-curve $-1 50.791149589961563 -8.4094308494673804 7.7399670402364782 0.68199836817093118 0 0.7313536940579346 0.3656768470289673 0 -0.34099918408546559 1 I I #
point $-1 52.20412383649689 -8.4094308494673804 8.5220567925079305 #
edge $-1 $431 1 $431 0 $262 $-1 forward 7 unknown #
vertex $-1 $263 $432 #
ellipse-curve $-1 50.791149589961563 -6.2432597613012675 7.7399670402364782 0.68199836817093118 0 0.7313536940579346 0.3656768470289673 0 -0.34099918408546559 1 I I #
point $-1 52.20412383649689 -6.2432597613012675 8.5220567925079305 #
plane-surface $-1 53.546555986205632 0 0 -1 0 0 0 0 1 forward_v I I I I #
coedge $-1 $271 $269 $273 $375 reversed $181 $-1 #
edge $-1 $284 -10.455893420224244 $377 10.455893420224244 $283 $433 forward 7 unknown #
vertex $-1 $375 $434 #
straight-curve $-1 -53.546555986205632 -23.369320471228178 0 0 0 -1 I I #
edge $-1 $373 -23.369320471228178 $377 23.369320471228178 $371 $435 forward 7 unknown #
straight-curve $-1 0 -23.369320471228178 -10.455893420224244 -1 0 0 I I #
vertex $-1 $276 $436 #
straight-curve $-1 0 23.369320471228178 -10.455893420224244 1 0 0 I I #
point $-1 53.546555986205632 23.369320471228178 -10.455893420224244 #
point $-1 53.546555986205632 -23.369320471228178 -10.455893420224244 #
straight-curve $-1 -53.546555986205632 0 10.455893420224244 0 -1 0 I I #
point $-1 -53.546555986205632 23.369320471228178 10.455893420224244 #
point $-1 -53.546555986205632 -23.369320471228178 10.455893420224244 #
straight-curve $-1 53.546555986205632 -23.369320471228178 0 0 0 -1 I I #
straight-curve $-1 53.546555986205632 23.369320471228178 0 0 0 -1 I I #
plane-surface $-1 53.546555986205632 0 0 -1 0 0 0 0 1 forward_v I I I I #
coedge $-1 $398 $389 $388 $437 forward $294 $-1 #
coedge $-1 $297 $296 $387 $437 reversed $122 $-1 #
coedge $-1 $387 $438 $298 $390 reversed $294 $-1 #
edge $-1 $391 -53.546555986205632 $394 53.546555986205632 $389 $439 forward 7 unknown #
vertex $-1 $299 $440 #
straight-curve $-1 -53.546555986205632 0 10.455893420224244 0 -1 0 I I #
coedge $-1 $306 $300 $438 $441 forward $307 $-1 #
vertex $-1 $301 $442 #
straight-curve $-1 53.546555986205632 0 10.455893420224244 0 1 0 I I #
point $-1 53.546555986205632 -23.369320471228178 10.455893420224244 #
point $-1 -53.546555986205632 -23.369320471228178 10.455893420224244 #
coedge $-1 $438 $387 $309 $399 reversed $294 $-1 #
edge $-1 $400 -53.546555986205632 $402 53.546555986205632 $398 $443 forward 7 unknown #
vertex $-1 $441 $444 #
straight-curve $-1 53.546555986205632 -27.755166814020381 5.3607235054292168 0 -1 0 I I #
vertex $-1 $311 $445 #
straight-curve $-1 -53.546555986205632 -27.755166814020381 5.3607235054292168 0 1 0 I I #
coedge $-1 $325 $324 $317 $405 forward $314 $-1 #
edge $-1 $406 26.806770576991397 $409 31.575460403811132 $404 $446 forward 7 unknown #
vertex $-1 $329 $447 #
straight-curve $-1 -67.792320098215953 10.166020139626859 10.455893420224243 -1 0 0 I I #
edge $-1 $409 -7.4137216579710579 $326 1.9091246946594556 $325 $448 forward 7 unknown #
vertex $-1 $408 $449 #
straight-curve $-1 -53.546555986205647 10.166020139626859 5.6872035934044902 0.64278759981090561 0 0.7660444514056185 I I #
point $-1 -49.545150216083947 10.166020139626859 10.455893420224244 #
point $-1 -53.546555986205632 0.8431737869963456 5.6872035934045071 #
straight-curve $-1 -53.546555986205632 0 10.455893420224244 0 -1 0 I I #
vertex $-1 $332 $450 #
point $-1 -48.455239388477224 3.5068441734622056 6.7836230235112529 #
vertex $-1 $336 $451 #
point $-1 -48.455239388477224 7.5023497531609955 6.7836230235112529 #
edge $-1 $419 68.859351174614204 $422 72.045026061875831 $341 $452 forward 7 unknown #
vertex $-1 $355 $453 #
straight-curve $-1 24.130470272276973 -12.019715996410905 10.455893420224243 1 0 0 I I #
edge $-1 $422 -7.8150005716772153 $352 -0.59443027779016511 $351 $454 forward 7 unknown #
vertex $-1 $421 $455 #
straight-curve $-1 -24.776387062977349 -12.019715996410905 80.307546140493898 -0.7313536940579346 0 0.68199836817093118 I I #
point $-1 50.130337992730261 -12.019715996410905 10.455893420224243 #
point $-1 53.546555986205632 -4.7991457025238553 7.2702185329626161 #
straight-curve $-1 53.546555986205632 0 10.455893420224244 0 1 0 I I #
vertex $-1 $358 $456 #
point $-1 51.156826436990535 -10.575601937633495 7.398967856151013 #
vertex $-1 $362 $457 #
point $-1 51.156826436990535 -8.4094308494673804 7.398967856151013 #
vertex $-1 $366 $458 #
point $-1 51.156826436990535 -6.2432597613012675 7.398967856151013 #
straight-curve $-1 -53.546555986205632 23.369320471228178 0 0 0 -1 I I #
point $-1 -53.546555986205632 -23.369320471228178 -10.455893420224244 #
straight-curve $-1 -53.546555986205632 0 -10.455893420224244 0 1 0 I I #
point $-1 -53.546555986205632 23.369320471228178 -10.455893420224244 #
edge $-1 $391 -2.5475849573975129 $402 2.5475849573975129 $388 $459 forward 7 unknown #
coedge $-1 $389 $398 $393 $441 reversed $294 $-1 #
straight-curve $-1 0 -32.141013156812583 10.455893420224243 1 0 0 I I #
point $-1 -53.546555986205632 -32.141013156812583 10.455893420224243 #
edge $-1 $394 -2.5475849573975129 $400 2.5475849573975129 $393 $460 forward 7 unknown #
point $-1 53.546555986205632 -32.141013156812583 10.455893420224243 #
straight-curve $-1 0 -32.141013156812583 5.3607235054292168 -1 0 0 I I #
point $-1 53.546555986205632 -32.141013156812583 5.3607235054292168 #
point $-1 -53.546555986205632 -32.141013156812583 5.3607235054292168 #
straight-curve $-1 -53.546555986205632 10.166020139626859 37.26266399721564 0 0 -1 I I #
point $-1 -53.546555986205632 10.166020139626859 10.455893420224244 #
straight-curve $-1 -53.546555986205632 2.7522984816558012 5.6872035934045098 0 -1 0 I I #
point $-1 -53.546555986205632 10.166020139626859 5.6872035934045071 #
point $-1 -48.331982536882514 3.5068441734622056 5.3747909722947291 #
point $-1 -48.331982536882514 7.5023497531609955 5.3747909722947291 #
straight-curve $-1 53.546555986205632 -12.019715996410905 79.315244594838447 0 0 -1 I I #
point $-1 53.546555986205632 -12.019715996410905 10.455893420224244 #
straight-curve $-1 53.546555986205618 -4.2047154247336902 7.2702185329626232 0 1 0 I I #
point $-1 53.546555986205632 -12.019715996410905 7.2702185329626161 #
point $-1 50.450150405876101 -10.575601937633495 7.3742901932075116 #
point $-1 50.450150405876101 -8.4094308494673804 7.3742901932075116 #
point $-1 50.450150405876101 -6.2432597613012675 7.3742901932075116 #
straight-curve $-1 -53.546555986205632 -32.141013156812583 7.9083084628267297 0 0 -1 I I #
straight-curve $-1 53.546555986205632 -32.141013156812583 7.9083084628267297 0 0 -1 I I #
End-of-ACIS-data 