500 0 13 0           
7 Unknown 11 ACIS 5.0 NT 24 Thu Mar 25 23:47:45 1999 
-1 9.9999999999999995e-007 1e-010 
body $-1 $13 $-1 $14 #
body $-1 $15 $-1 $16 #
body $-1 $17 $-1 $18 #
body $-1 $19 $-1 $20 #
body $-1 $21 $-1 $22 #
body $-1 $23 $-1 $24 #
body $-1 $25 $-1 $26 #
body $-1 $27 $-1 $28 #
body $-1 $29 $-1 $30 #
body $-1 $31 $-1 $32 #
body $-1 $33 $-1 $34 #
body $-1 $35 $-1 $36 #
body $-1 $37 $-1 $38 #
lump $-1 $-1 $39 $0 #
transform $-1 1 0 0 0 1 0 0 0 1 56.783959471419415 32.362195231453043 15.81517478686659 1 rotate no_reflect no_shear #
lump $-1 $-1 $40 $1 #
transform $-1 1 0 0 0 1 0 0 0 1 56.783959471419415 32.362195231453043 15.81517478686659 1 rotate no_reflect no_shear #
lump $-1 $-1 $41 $2 #
transform $-1 1 0 0 0 1 0 0 0 1 56.783959471419415 32.362195231453043 15.81517478686659 1 rotate no_reflect no_shear #
lump $-1 $-1 $42 $3 #
transform $-1 1 0 0 0 1 0 0 0 1 56.783959471419415 32.362195231453043 15.81517478686659 1 rotate no_reflect no_shear #
lump $-1 $-1 $43 $4 #
transform $-1 1 0 0 0 1 0 0 0 1 56.783959471419415 32.362195231453043 15.81517478686659 1 rotate no_reflect no_shear #
lump $-1 $-1 $44 $5 #
transform $-1 1 0 0 0 1 0 0 0 1 56.783959471419415 32.362195231453043 15.81517478686659 1 rotate no_reflect no_shear #
lump $-1 $-1 $45 $6 #
transform $-1 1 0 0 0 1 0 0 0 1 56.783959471419415 32.362195231453043 15.81517478686659 1 rotate no_reflect no_shear #
lump $-1 $-1 $46 $7 #
transform $-1 1 0 0 0 1 0 0 0 1 56.783959471419415 32.362195231453043 15.81517478686659 1 rotate no_reflect no_shear #
lump $-1 $-1 $47 $8 #
transform $-1 1 0 0 0 1 0 0 0 1 56.783959471419415 32.362195231453043 15.81517478686659 1 rotate no_reflect no_shear #
lump $-1 $-1 $48 $9 #
transform $-1 1 0 0 0 1 0 0 0 1 56.783959471419415 32.362195231453043 15.81517478686659 1 rotate no_reflect no_shear #
lump $-1 $-1 $49 $10 #
transform $-1 1 0 0 0 1 0 0 0 1 56.783959471419415 32.362195231453043 15.81517478686659 1 rotate no_reflect no_shear #
lump $-1 $-1 $50 $11 #
transform $-1 1 0 0 0 1 0 0 0 1 56.783959471419415 32.362195231453043 15.81517478686659 1 rotate no_reflect no_shear #
lump $-1 $-1 $51 $12 #
transform $-1 1 0 0 0 1 0 0 0 1 56.783959471419415 32.362195231453043 15.81517478686659 1 rotate no_reflect no_shear #
shell $-1 $-1 $-1 $52 $-1 $13 #
shell $-1 $-1 $-1 $53 $-1 $15 #
shell $-1 $-1 $-1 $54 $-1 $17 #
shell $-1 $-1 $-1 $55 $-1 $19 #
shell $-1 $-1 $-1 $56 $-1 $21 #
shell $-1 $-1 $-1 $57 $-1 $23 #
shell $-1 $-1 $-1 $58 $-1 $25 #
shell $-1 $-1 $-1 $59 $-1 $27 #
shell $-1 $-1 $-1 $60 $-1 $29 #
shell $-1 $-1 $-1 $61 $-1 $31 #
shell $-1 $-1 $-1 $62 $-1 $33 #
shell $-1 $-1 $-1 $63 $-1 $35 #
shell $-1 $-1 $-1 $64 $-1 $37 #
face $-1 $65 $66 $39 $-1 $67 forward single #
face $-1 $68 $69 $40 $-1 $70 reversed single #
face $-1 $71 $72 $41 $-1 $73 reversed single #
face $-1 $74 $75 $42 $-1 $76 forward single #
face $-1 $77 $78 $43 $-1 $79 reversed single #
face $-1 $80 $81 $44 $-1 $82 forward single #
face $-1 $83 $84 $45 $-1 $85 reversed single #
face $-1 $86 $87 $46 $-1 $88 forward single #
face $-1 $89 $90 $47 $-1 $91 reversed single #
face $-1 $92 $93 $48 $-1 $94 forward single #
face $-1 $95 $96 $49 $-1 $97 reversed single #
face $-1 $98 $99 $50 $-1 $100 forward single #
face $-1 $101 $102 $51 $-1 $103 forward single #
face $-1 $104 $105 $39 $-1 $106 reversed single #
loop $-1 $-1 $107 $52 #
plane-surface $-1 0 0 15.81517478686659 0 0 1 1 0 0 forward_v I I I I #
face $-1 $108 $109 $40 $-1 $110 reversed single #
loop $-1 $-1 $111 $53 #
plane-surface $-1 0 -22.338139067636455 9.0177434506637955 0 0 1 1 0 0 forward_v I I I I #
face $-1 $112 $113 $41 $-1 $114 reversed single #
loop $-1 $-1 $115 $54 #
plane-surface $-1 -152.03003146062426 -7.4176666302158445 65.141498360758831 0 1 0 -0.83867057594974714 0 0.54463902268945019 forward_v I I I I #
face $-1 $116 $117 $42 $-1 $118 forward single #
loop $-1 $119 $120 $55 #
cone-surface $-1 -52.216602130656184 -4.2813400001087416 9.2270485164562608 0.83867057594974714 0 -0.54463902268945019 0.54463902268945019 0 0.83867057594974714 1 I I 0 1 1 forward I I I I #
face $-1 $121 $122 $43 $-1 $123 reversed single #
loop $-1 $-1 $124 $56 #
plane-surface $-1 -152.03003146062426 3.7514029036023864 65.141498360758831 0 1 0 -0.83867057594974714 0 0.54463902268945019 forward_v I I I I #
face $-1 $125 $126 $44 $-1 $127 forward single #
loop $-1 $128 $129 $57 #
cone-surface $-1 -52.216602130656184 6.8877295337094893 9.2270485164562608 0.83867057594974714 0 -0.54463902268945019 0.54463902268945019 0 0.83867057594974714 1 I I 0 1 1 forward I I I I #
face $-1 $130 $131 $45 $-1 $132 reversed single #
loop $-1 $-1 $133 $58 #
plane-surface $-1 -152.03003146062426 14.920472437420617 65.141498360758831 0 1 0 -0.83867057594974714 0 0.54463902268945019 forward_v I I I I #
face $-1 $134 $135 $46 $-1 $136 forward single #
loop $-1 $137 $138 $59 #
cone-surface $-1 -52.216602130656184 18.05679906752772 9.2270485164562608 0.83867057594974714 0 -0.54463902268945019 0.54463902268945019 0 0.83867057594974714 1 I I 0 1 1 forward I I I I #
face $-1 $139 $140 $47 $-1 $141 reversed single #
loop $-1 $-1 $142 $60 #
plane-surface $-1 -152.03003146062426 26.089541971238848 65.141498360758831 0 1 0 -0.83867057594974714 0 0.54463902268945019 forward_v I I I I #
face $-1 $143 $144 $48 $-1 $145 forward single #
loop $-1 $146 $147 $61 #
cone-surface $-1 -52.216602130656184 29.225868601345951 9.2270485164562608 0.83867057594974714 0 -0.54463902268945019 0.54463902268945019 0 0.83867057594974714 1 I I 0 1 1 forward I I I I #
face $-1 $148 $149 $49 $-1 $150 reversed single #
loop $-1 $-1 $151 $62 #
plane-surface $-1 81.908790232466941 -1.6204916846637545 160.86393186818486 0 -1 0 -0.80901700255871778 0 -0.5877852410284794 forward_v I I I I #
face $-1 $152 $153 $50 $-1 $154 forward single #
loop $-1 $155 $156 $63 #
cone-surface $-1 50.043555623089141 -9.2587711269181199 7.7114339310248567 -0.80901700255871778 0 -0.5877852410284794 0.8816778615427191 0 -1.2135255038380768 1 I I 0 1 1.5 forward I I I I #
face $-1 $157 $158 $51 $-1 $159 forward single #
loop $-1 $160 $161 $64 #
cone-surface $-1 50.043555623089141 -4.6758034615655006 7.7114339310248567 -0.80901700255871778 0 -0.5877852410284794 0.8816778615427191 0 -1.2135255038380768 1 I I 0 1 1.5 forward I I I I #
face $-1 $162 $163 $39 $-1 $164 reversed single #
loop $-1 $-1 $165 $65 #
plane-surface $-1 0 0 -15.81517478686659 0 0 1 1 0 0 forward_v I I I I #
coedge $-1 $166 $167 $168 $169 forward $66 $-1 #
face $-1 $170 $171 $40 $-1 $172 reversed single #
loop $-1 $-1 $173 $68 #
plane-surface $-1 0 -12.314082903819866 12.416459118765191 0 -1 0 0 0 -1 forward_v I I I I #
coedge $-1 $174 $175 $176 $177 reversed $69 $-1 #
face $-1 $178 $179 $41 $-1 $180 reversed single #
loop $-1 $-1 $181 $71 #
plane-surface $-1 -56.783959471419422 -4.2813400001087416 3.2879779788563965 -0.83867057594974714 0 0.54463902268945019 0.54463902268945019 0 0.83867057594974714 forward_v I I I I #
coedge $-1 $182 $183 $184 $185 reversed $72 $-1 #
face $-1 $-1 $186 $42 $-1 $187 forward single #
loop $-1 $188 $189 $74 #
cone-surface $-1 -51.297537735343724 -4.2813400001087416 8.6302011387063065 0.83867057594974714 0 -0.54463902268945019 0.2723195113447251 0 0.41933528797487357 1 I I -0.70710678118654746 0.70710678118654746 0.5 forward I I I I #
loop $-1 $-1 $190 $55 #
coedge $-1 $120 $120 $191 $192 reversed $75 $-1 #
face $-1 $193 $194 $43 $-1 $195 reversed single #
loop $-1 $-1 $196 $77 #
plane-surface $-1 -56.783959471419422 6.8877295337094893 3.2879779788563965 -0.83867057594974714 0 0.54463902268945019 0.54463902268945019 0 0.83867057594974714 forward_v I I I I #
coedge $-1 $197 $198 $199 $200 reversed $78 $-1 #
face $-1 $-1 $201 $44 $-1 $202 forward single #
loop $-1 $203 $204 $80 #
cone-surface $-1 -51.297537735343724 6.8877295337094893 8.6302011387063065 0.83867057594974714 0 -0.54463902268945019 0.2723195113447251 0 0.41933528797487357 1 I I -0.70710678118654746 0.70710678118654746 0.5 forward I I I I #
loop $-1 $-1 $205 $57 #
coedge $-1 $129 $129 $206 $207 reversed $81 $-1 #
face $-1 $208 $209 $45 $-1 $210 reversed single #
loop $-1 $-1 $211 $83 #
plane-surface $-1 -56.783959471419422 18.05679906752772 3.2879779788563965 -0.83867057594974714 0 0.54463902268945019 0.54463902268945019 0 0.83867057594974714 forward_v I I I I #
coedge $-1 $212 $213 $214 $215 reversed $84 $-1 #
face $-1 $-1 $216 $46 $-1 $217 forward single #
loop $-1 $218 $219 $86 #
cone-surface $-1 -51.297537735343724 18.05679906752772 8.6302011387063065 0.83867057594974714 0 -0.54463902268945019 0.2723195113447251 0 0.41933528797487357 1 I I -0.70710678118654746 0.70710678118654746 0.5 forward I I I I #
loop $-1 $-1 $220 $59 #
coedge $-1 $138 $138 $221 $222 reversed $87 $-1 #
face $-1 $223 $224 $47 $-1 $225 forward single #
loop $-1 $-1 $226 $89 #
plane-surface $-1 -56.783959471419422 29.225868601345951 3.2879779788563965 -0.83867057594974714 0 0.54463902268945019 0.54463902268945019 0 0.83867057594974714 forward_v I I I I #
coedge $-1 $227 $228 $229 $230 reversed $90 $-1 #
face $-1 $-1 $231 $48 $-1 $232 forward single #
loop $-1 $233 $234 $92 #
cone-surface $-1 -51.297537735343724 29.225868601345951 8.6302011387063065 0.83867057594974714 0 -0.54463902268945019 0.2723195113447251 0 0.41933528797487357 1 I I -0.70710678118654746 0.70710678118654746 0.5 forward I I I I #
loop $-1 $-1 $235 $61 #
coedge $-1 $147 $147 $236 $237 reversed $93 $-1 #
face $-1 $238 $239 $49 $-1 $240 forward single #
loop $-1 $-1 $241 $95 #
plane-surface $-1 -9.969587137499957 -6.9672872942418103 94.110385259265527 0.80901700255871778 0 0.5877852410284794 0.5877852410284794 0 -0.80901700255871778 forward_v I I I I #
coedge $-1 $242 $243 $244 $245 reversed $96 $-1 #
face $-1 $-1 $246 $50 $-1 $247 forward single #
loop $-1 $248 $249 $98 #
cone-surface $-1 47.630763086404464 -9.2587711269181199 5.9584375931957414 -0.80901700255871778 0 -0.5877852410284794 0.44083893077135955 0 -0.60676275191903839 1 I I -0.70710678118654757 0.70710678118654757 0.75 forward I I I I #
loop $-1 $-1 $250 $63 #
coedge $-1 $156 $156 $251 $252 reversed $99 $-1 #
face $-1 $-1 $253 $51 $-1 $254 forward single #
loop $-1 $255 $256 $101 #
cone-surface $-1 47.630763086404464 -4.6758034615655006 5.9584375931957414 -0.80901700255871778 0 -0.5877852410284794 0.44083893077135955 0 -0.60676275191903839 1 I I -0.70710678118654757 0.70710678118654757 0.75 forward I I I I #
loop $-1 $-1 $257 $64 #
coedge $-1 $161 $161 $258 $259 reversed $102 $-1 #
face $-1 $260 $261 $39 $-1 $262 reversed single #
loop $-1 $-1 $263 $104 #
plane-surface $-1 0 -32.362195231453043 0 0 1 0 0 0 1 forward_v I I I I #
coedge $-1 $264 $265 $266 $267 forward $105 $-1 #
coedge $-1 $268 $107 $269 $270 forward $66 $-1 #
coedge $-1 $107 $268 $271 $272 forward $66 $-1 #
coedge $-1 $273 $274 $107 $169 reversed $275 $-1 #
edge $-1 $276 -32.362195231453043 $277 32.362195231453043 $168 $278 forward 7 unknown #
face $-1 $279 $280 $40 $-1 $281 reversed single #
loop $-1 $-1 $282 $108 #
plane-surface $-1 -56.783959471419415 0 0 1 0 0 0 0 -1 forward_v I I I I #
coedge $-1 $283 $284 $175 $285 reversed $109 $-1 #
coedge $-1 $286 $111 $287 $288 reversed $69 $-1 #
coedge $-1 $111 $286 $173 $285 forward $69 $-1 #
coedge $-1 $289 $290 $111 $177 forward $291 $-1 #
edge $-1 $292 -21.193125697634816 $293 -1.1450133700016387 $176 $294 forward 7 unknown #
face $-1 $295 $296 $41 $-1 $297 forward single #
loop $-1 $-1 $298 $112 #
plane-surface $-1 -152.03003146062426 -1.1450133700016387 65.141498360758831 0 -1 0 0.83867057594974714 0 -0.54463902268945019 forward_v I I I I #
coedge $-1 $299 $300 $301 $302 reversed $113 $-1 #
coedge $-1 $183 $115 $303 $304 reversed $72 $-1 #
coedge $-1 $115 $182 $299 $305 reversed $72 $-1 #
coedge $-1 $301 $306 $115 $185 forward $296 $-1 #
edge $-1 $307 19.231056258892714 $308 27.366312725743995 $184 $309 forward 7 unknown #
loop $-1 $-1 $191 $116 #
plane-surface $-1 -56.783959471419422 -4.2813400001087416 3.2879779788563965 -0.83867057594974714 0 0.54463902268945019 0.54463902268945019 0 0.83867057594974714 forward_v I I I I #
loop $-1 $-1 $310 $74 #
coedge $-1 $189 $189 $190 $311 reversed $117 $-1 #
coedge $-1 $190 $190 $189 $311 forward $119 $-1 #
coedge $-1 $191 $191 $120 $192 forward $186 $-1 #
edge $-1 $312 0 $312 6.2831853071796004 $191 $313 forward 7 unknown #
face $-1 $314 $315 $43 $-1 $316 forward single #
loop $-1 $-1 $317 $121 #
plane-surface $-1 -152.03003146062426 10.024056163816592 65.141498360758831 0 -1 0 0.83867057594974714 0 -0.54463902268945019 forward_v I I I I #
coedge $-1 $318 $319 $320 $321 reversed $122 $-1 #
coedge $-1 $198 $124 $322 $323 reversed $78 $-1 #
coedge $-1 $124 $197 $318 $324 reversed $78 $-1 #
coedge $-1 $320 $325 $124 $200 forward $315 $-1 #
edge $-1 $326 19.231056258892714 $327 27.366312725743995 $199 $328 forward 7 unknown #
loop $-1 $-1 $206 $125 #
plane-surface $-1 -56.783959471419422 6.8877295337094893 3.2879779788563965 -0.83867057594974714 0 0.54463902268945019 0.54463902268945019 0 0.83867057594974714 forward_v I I I I #
loop $-1 $-1 $329 $80 #
coedge $-1 $204 $204 $205 $330 reversed $126 $-1 #
coedge $-1 $205 $205 $204 $330 forward $128 $-1 #
coedge $-1 $206 $206 $129 $207 forward $201 $-1 #
edge $-1 $331 0 $331 6.2831853071796004 $206 $332 forward 7 unknown #
face $-1 $333 $334 $45 $-1 $335 forward single #
loop $-1 $-1 $336 $130 #
plane-surface $-1 -152.03003146062426 21.193125697634823 65.141498360758831 0 -1 0 0.83867057594974714 0 -0.54463902268945019 forward_v I I I I #
coedge $-1 $337 $338 $339 $340 reversed $131 $-1 #
coedge $-1 $213 $133 $341 $342 reversed $84 $-1 #
coedge $-1 $133 $212 $337 $343 reversed $84 $-1 #
coedge $-1 $339 $344 $133 $215 forward $334 $-1 #
edge $-1 $345 19.231056258892714 $346 27.366312725743995 $214 $347 forward 7 unknown #
loop $-1 $-1 $221 $134 #
plane-surface $-1 -56.783959471419422 18.05679906752772 3.2879779788563965 -0.83867057594974714 0 0.54463902268945019 0.54463902268945019 0 0.83867057594974714 forward_v I I I I #
loop $-1 $-1 $348 $86 #
coedge $-1 $219 $219 $220 $349 reversed $135 $-1 #
coedge $-1 $220 $220 $219 $349 forward $137 $-1 #
coedge $-1 $221 $221 $138 $222 forward $216 $-1 #
edge $-1 $350 0 $350 6.2831853071796004 $221 $351 forward 7 unknown #
face $-1 $352 $353 $47 $-1 $354 reversed single #
loop $-1 $-1 $229 $139 #
plane-surface $-1 0 0 15.81517478686659 0 0 1 1 0 0 forward_v I I I I #
coedge $-1 $355 $356 $357 $358 reversed $140 $-1 #
coedge $-1 $228 $142 $359 $360 reversed $90 $-1 #
coedge $-1 $142 $227 $355 $361 reversed $90 $-1 #
coedge $-1 $357 $362 $142 $230 forward $224 $-1 #
edge $-1 $363 19.231056258892714 $364 27.366312725743995 $229 $365 forward 7 unknown #
loop $-1 $-1 $236 $143 #
plane-surface $-1 -56.783959471419422 29.225868601345951 3.2879779788563965 -0.83867057594974714 0 0.54463902268945019 0.54463902268945019 0 0.83867057594974714 forward_v I I I I #
loop $-1 $-1 $366 $92 #
coedge $-1 $234 $234 $235 $367 reversed $144 $-1 #
coedge $-1 $235 $235 $234 $367 forward $146 $-1 #
coedge $-1 $236 $236 $147 $237 forward $231 $-1 #
edge $-1 $368 0 $368 6.2831853071796004 $236 $369 forward 7 unknown #
face $-1 $370 $371 $49 $-1 $372 forward single #
loop $-1 $-1 $373 $148 #
plane-surface $-1 0 -12.314082903819866 12.416459118765191 0 -1 0 0 0 -1 forward_v I I I I #
coedge $-1 $374 $375 $376 $377 reversed $149 $-1 #
coedge $-1 $243 $151 $378 $379 reversed $96 $-1 #
coedge $-1 $151 $242 $374 $380 reversed $96 $-1 #
coedge $-1 $376 $381 $151 $245 forward $371 $-1 #
edge $-1 $382 -15.829564355185944 $383 -5.9608162280566788 $244 $384 forward 7 unknown #
loop $-1 $-1 $251 $152 #
plane-surface $-1 -9.969587137499957 -6.9672872942418103 94.110385259265527 0.80901700255871778 0 0.5877852410284794 0.5877852410284794 0 -0.80901700255871778 forward_v I I I I #
loop $-1 $-1 $385 $98 #
coedge $-1 $249 $249 $250 $386 reversed $153 $-1 #
coedge $-1 $250 $250 $249 $386 forward $155 $-1 #
coedge $-1 $251 $251 $156 $252 forward $246 $-1 #
edge $-1 $387 0 $387 6.2831853071796004 $251 $388 forward 7 unknown #
loop $-1 $-1 $258 $157 #
plane-surface $-1 -9.969587137499957 -6.9672872942418103 94.110385259265527 0.80901700255871778 0 0.5877852410284794 0.5877852410284794 0 -0.80901700255871778 forward_v I I I I #
loop $-1 $-1 $389 $101 #
coedge $-1 $256 $256 $257 $390 reversed $158 $-1 #
coedge $-1 $257 $257 $256 $390 forward $160 $-1 #
coedge $-1 $258 $258 $161 $259 forward $253 $-1 #
edge $-1 $391 0 $391 6.2831853071796004 $258 $392 forward 7 unknown #
face $-1 $393 $394 $39 $-1 $395 reversed single #
loop $-1 $-1 $396 $162 #
plane-surface $-1 -56.783959471419415 0 0 1 0 0 0 0 -1 forward_v I I I I #
coedge $-1 $397 $271 $398 $399 forward $163 $-1 #
coedge $-1 $400 $165 $397 $401 forward $105 $-1 #
coedge $-1 $165 $400 $402 $403 forward $105 $-1 #
coedge $-1 $274 $273 $165 $267 reversed $275 $-1 #
edge $-1 $404 -32.362195231453043 $405 32.362195231453043 $266 $406 forward 7 unknown #
coedge $-1 $167 $166 $407 $408 forward $66 $-1 #
coedge $-1 $409 $410 $166 $270 reversed $394 $-1 #
edge $-1 $277 -56.783959471419415 $411 56.783959471419415 $269 $412 forward 7 unknown #
coedge $-1 $263 $413 $167 $272 reversed $163 $-1 #
edge $-1 $414 -56.783959471419415 $276 56.783959471419415 $271 $415 forward 7 unknown #
coedge $-1 $266 $168 $413 $416 forward $275 $-1 #
coedge $-1 $168 $266 $409 $417 reversed $275 $-1 #
loop $-1 $-1 $273 $393 #
vertex $-1 $169 $418 #
vertex $-1 $169 $419 #
straight-curve $-1 56.783959471419415 0 15.81517478686659 0 1 0 I I #
face $-1 $420 $421 $40 $-1 $422 forward single #
loop $-1 $-1 $287 $170 #
plane-surface $-1 0 -32.362195231453043 0 0 1 0 0 0 1 forward_v I I I I #
coedge $-1 $423 $424 $283 $425 forward $171 $-1 #
coedge $-1 $426 $173 $282 $425 reversed $109 $-1 #
coedge $-1 $173 $426 $289 $427 reversed $109 $-1 #
edge $-1 $428 -56.783959471419415 $293 56.783959471419415 $173 $429 forward 7 unknown #
coedge $-1 $175 $174 $423 $430 reversed $69 $-1 #
coedge $-1 $431 $432 $174 $288 forward $280 $-1 #
edge $-1 $433 -56.783959471419415 $292 56.783959471419415 $287 $434 forward 7 unknown #
coedge $-1 $435 $176 $284 $427 forward $291 $-1 #
coedge $-1 $176 $435 $431 $436 forward $291 $-1 #
loop $-1 $-1 $289 $420 #
vertex $-1 $288 $437 #
vertex $-1 $177 $438 #
straight-curve $-1 56.783959471419415 -11.169069533818227 9.0177434506637955 0 1 0 I I #
face $-1 $-1 $439 $41 $-1 $440 reversed single #
loop $-1 $-1 $184 $178 #
plane-surface $-1 0 0 15.81517478686659 0 0 1 1 0 0 forward_v I I I I #
coedge $-1 $441 $442 $443 $444 reversed $179 $-1 #
coedge $-1 $445 $181 $183 $305 forward $113 $-1 #
coedge $-1 $181 $445 $441 $446 forward $113 $-1 #
coedge $-1 $443 $184 $181 $302 forward $296 $-1 #
edge $-1 $308 -5.2769966301614737 $447 0.99565663005273208 $301 $448 forward 7 unknown #
coedge $-1 $449 $450 $182 $304 forward $439 $-1 #
edge $-1 $451 -29.282771201523008 $307 -16.755574393512823 $303 $452 forward 7 unknown #
edge $-1 $308 -14.936969493443659 $451 -1.3181006846785195e-014 $183 $453 forward 7 unknown #
coedge $-1 $184 $443 $449 $454 forward $296 $-1 #
vertex $-1 $304 $455 #
vertex $-1 $185 $456 #
straight-curve $-1 -76.015015730312129 -7.4176666302158445 15.815174786866592 1 0 0 I I #
coedge $-1 $310 $310 $-1 $457 reversed $188 $-1 #
edge $-1 $458 0 $458 6.2831853071796004 $189 $459 forward 7 unknown #
vertex $-1 $192 $460 #
ellipse-curve $-1 -52.716331237993778 -4.2813400001087416 9.5515763828614944 -0.83867057594974714 0 0.54463902268945019 0.54463902268945019 0 0.83867057594974714 1 I I #
face $-1 $-1 $461 $43 $-1 $462 reversed single #
loop $-1 $-1 $199 $193 #
plane-surface $-1 0 0 15.81517478686659 0 0 1 1 0 0 forward_v I I I I #
coedge $-1 $463 $464 $465 $466 reversed $194 $-1 #
coedge $-1 $467 $196 $198 $324 forward $122 $-1 #
coedge $-1 $196 $467 $463 $468 forward $122 $-1 #
coedge $-1 $465 $199 $196 $321 forward $315 $-1 #
edge $-1 $327 0.30753813674764174 $469 6.5801913969618475 $320 $470 forward 7 unknown #
coedge $-1 $471 $472 $197 $323 forward $461 $-1 #
edge $-1 $473 -29.282771201523008 $326 -16.755574393512823 $322 $474 forward 7 unknown #
edge $-1 $327 -14.936969493443659 $473 -1.3181006846785195e-014 $198 $475 forward 7 unknown #
coedge $-1 $199 $465 $471 $476 forward $315 $-1 #
vertex $-1 $200 $477 #
vertex $-1 $200 $478 #
straight-curve $-1 -76.015015730312129 3.7514029036023864 15.815174786866592 1 0 0 I I #
coedge $-1 $329 $329 $-1 $479 reversed $203 $-1 #
edge $-1 $480 0 $480 6.2831853071796004 $204 $481 forward 7 unknown #
vertex $-1 $207 $482 #
ellipse-curve $-1 -52.716331237993778 6.8877295337094893 9.5515763828614944 -0.83867057594974714 0 0.54463902268945019 0.54463902268945019 0 0.83867057594974714 1 I I #
face $-1 $-1 $483 $45 $-1 $484 reversed single #
loop $-1 $-1 $214 $208 #
plane-surface $-1 0 0 15.81517478686659 0 0 1 1 0 0 forward_v I I I I #
coedge $-1 $485 $486 $487 $488 reversed $209 $-1 #
coedge $-1 $489 $211 $213 $343 forward $131 $-1 #
coedge $-1 $211 $489 $485 $490 forward $131 $-1 #
coedge $-1 $487 $214 $211 $340 forward $334 $-1 #
edge $-1 $346 5.8920729036567572 $491 12.164726163870963 $339 $492 forward 7 unknown #
coedge $-1 $493 $494 $212 $342 forward $483 $-1 #
edge $-1 $495 -29.282771201523008 $345 -16.755574393512823 $341 $496 forward 7 unknown #
edge $-1 $346 -14.936969493443659 $495 -1.3181006846785195e-014 $213 $497 forward 7 unknown #
coedge $-1 $214 $487 $493 $498 forward $334 $-1 #
vertex $-1 $215 $499 #
vertex $-1 $215 $500 #
straight-curve $-1 -76.015015730312129 14.920472437420617 15.815174786866592 1 0 0 I I #
coedge $-1 $348 $348 $-1 $501 reversed $218 $-1 #
edge $-1 $502 0 $502 6.2831853071796004 $219 $503 forward 7 unknown #
vertex $-1 $222 $504 #
ellipse-curve $-1 -52.716331237993778 18.05679906752772 9.5515763828614944 -0.83867057594974714 0 0.54463902268945019 0.54463902268945019 0 0.83867057594974714 1 I I #
face $-1 $-1 $505 $47 $-1 $506 reversed single #
loop $-1 $-1 $507 $223 #
plane-surface $-1 0 32.362195231453043 0 0 -1 0 0 0 -1 forward_v I I I I #
coedge $-1 $508 $226 $228 $361 forward $140 $-1 #
coedge $-1 $226 $508 $507 $509 reversed $140 $-1 #
coedge $-1 $510 $229 $226 $358 forward $224 $-1 #
edge $-1 $364 11.476607670565873 $511 17.749260930780082 $357 $512 forward 7 unknown #
coedge $-1 $513 $514 $227 $360 forward $505 $-1 #
edge $-1 $515 -29.282771201523008 $363 -16.755574393512823 $359 $516 forward 7 unknown #
edge $-1 $364 -14.936969493443659 $515 -1.3181006846785195e-014 $228 $517 forward 7 unknown #
coedge $-1 $229 $510 $513 $518 forward $224 $-1 #
vertex $-1 $360 $519 #
vertex $-1 $230 $520 #
straight-curve $-1 -76.015015730312129 26.089541971238848 15.815174786866592 1 0 0 I I #
coedge $-1 $366 $366 $-1 $521 reversed $233 $-1 #
edge $-1 $522 0 $522 6.2831853071796004 $234 $523 forward 7 unknown #
vertex $-1 $237 $524 #
ellipse-curve $-1 -52.716331237993778 29.225868601345951 9.5515763828614944 -0.83867057594974714 0 0.54463902268945019 0.54463902268945019 0 0.83867057594974714 1 I I #
face $-1 $-1 $525 $49 $-1 $526 reversed single #
loop $-1 $-1 $376 $238 #
plane-surface $-1 0 0 15.81517478686659 0 0 1 1 0 0 forward_v I I I I #
coedge $-1 $527 $528 $375 $529 reversed $239 $-1 #
coedge $-1 $530 $241 $243 $380 forward $149 $-1 #
coedge $-1 $241 $530 $373 $529 forward $149 $-1 #
coedge $-1 $531 $244 $241 $377 forward $371 $-1 #
edge $-1 $383 -1.8631519624571506 $532 8.8304392566989609 $376 $533 forward 7 unknown #
coedge $-1 $534 $535 $242 $379 forward $525 $-1 #
edge $-1 $536 -78.199958044793874 $382 -64.61679114722584 $378 $537 forward 7 unknown #
edge $-1 $383 96.778201477559605 $536 113.56791894283892 $243 $538 forward 7 unknown #
coedge $-1 $244 $531 $534 $539 forward $371 $-1 #
vertex $-1 $379 $540 #
vertex $-1 $245 $541 #
straight-curve $-1 40.954395116233471 -1.6204916846637545 15.815174786866592 -1 0 0 I I #
coedge $-1 $385 $385 $-1 $542 reversed $248 $-1 #
edge $-1 $543 0 $543 6.2831853071796004 $249 $544 forward 7 unknown #
vertex $-1 $252 $545 #
ellipse-curve $-1 51.849585407854768 -9.2587711269181199 9.0235913380826034 0.80901700255871778 0 0.5877852410284794 0.8816778615427191 0 -1.2135255038380768 1 I I #
coedge $-1 $389 $389 $-1 $546 reversed $255 $-1 #
edge $-1 $547 0 $547 6.2831853071796004 $256 $548 forward 7 unknown #
vertex $-1 $259 $549 #
ellipse-curve $-1 51.849585407854768 -4.6758034615655006 9.0235913380826034 0.80901700255871778 0 0.5877852410284794 0.8816778615427191 0 -1.2135255038380768 1 I I #
face $-1 $-1 $275 $39 $-1 $550 reversed single #
loop $-1 $-1 $409 $260 #
plane-surface $-1 0 32.362195231453043 0 0 -1 0 0 0 -1 forward_v I I I I #
coedge $-1 $551 $407 $410 $552 forward $261 $-1 #
coedge $-1 $413 $263 $264 $401 reversed $163 $-1 #
coedge $-1 $407 $551 $263 $399 reversed $261 $-1 #
edge $-1 $414 -15.81517478686659 $553 15.81517478686659 $398 $554 forward 7 unknown #
coedge $-1 $265 $264 $551 $555 forward $105 $-1 #
edge $-1 $405 -56.783959471419415 $553 56.783959471419415 $397 $556 forward 7 unknown #
coedge $-1 $410 $409 $265 $403 reversed $394 $-1 #
edge $-1 $557 -56.783959471419415 $404 56.783959471419415 $402 $558 forward 7 unknown #
vertex $-1 $267 $559 #
vertex $-1 $416 $560 #
straight-curve $-1 56.783959471419415 0 -15.81517478686659 0 -1 0 I I #
coedge $-1 $396 $398 $268 $408 reversed $261 $-1 #
edge $-1 $411 -32.362195231453043 $414 32.362195231453043 $407 $561 forward 7 unknown #
coedge $-1 $402 $269 $274 $417 forward $394 $-1 #
coedge $-1 $269 $402 $396 $552 reversed $394 $-1 #
vertex $-1 $270 $562 #
straight-curve $-1 0 32.362195231453043 15.81517478686659 -1 0 0 I I #
coedge $-1 $271 $397 $273 $416 reversed $163 $-1 #
vertex $-1 $408 $563 #
straight-curve $-1 0 -32.362195231453043 15.81517478686659 1 0 0 I I #
edge $-1 $276 -15.81517478686659 $405 15.81517478686659 $273 $564 forward 7 unknown #
edge $-1 $277 -15.81517478686659 $404 15.81517478686659 $274 $565 forward 7 unknown #
point $-1 56.783959471419415 -32.362195231453043 15.81517478686659 #
point $-1 56.783959471419415 32.362195231453043 15.81517478686659 #
face $-1 $-1 $291 $40 $-1 $566 reversed single #
loop $-1 $-1 $567 $279 #
plane-surface $-1 0 0 15.81517478686659 0 0 1 1 0 0 forward_v I I I I #
coedge $-1 $568 $282 $286 $430 forward $171 $-1 #
coedge $-1 $282 $568 $569 $570 reversed $171 $-1 #
edge $-1 $571 -9.6069452274839904 $428 -2.8095138912811999 $282 $572 forward 7 unknown #
coedge $-1 $284 $283 $567 $573 reversed $109 $-1 #
edge $-1 $293 2.8095138912811999 $574 9.6069452274839904 $289 $575 forward 7 unknown #
vertex $-1 $430 $576 #
straight-curve $-1 0 -12.314082903819866 9.0177434506637955 1 0 0 I I #
edge $-1 $428 1.1450133700016387 $433 21.193125697634816 $423 $577 forward 7 unknown #
coedge $-1 $578 $287 $290 $436 reversed $280 $-1 #
coedge $-1 $287 $578 $568 $579 forward $280 $-1 #
vertex $-1 $288 $580 #
straight-curve $-1 0 -32.362195231453043 9.0177434506637955 1 0 0 I I #
coedge $-1 $290 $289 $581 $582 reversed $291 $-1 #
edge $-1 $583 -15.81517478686659 $292 -9.0177434506637955 $290 $584 forward 7 unknown #
point $-1 56.783959471419415 -32.362195231453043 9.0177434506637955 #
point $-1 56.783959471419415 -12.314082903819866 9.0177434506637955 #
loop $-1 $-1 $303 $295 #
plane-surface $-1 -56.783959471419415 0 0 1 0 0 0 0 -1 forward_v I I I I #
coedge $-1 $442 $298 $300 $446 reversed $179 $-1 #
coedge $-1 $298 $441 $585 $586 reversed $179 $-1 #
coedge $-1 $306 $301 $298 $444 forward $296 $-1 #
edge $-1 $447 -27.366312725743995 $587 -19.231056258892714 $443 $588 forward 7 unknown #
coedge $-1 $300 $299 $450 $589 reversed $113 $-1 #
edge $-1 $590 1.3181006846785195e-014 $447 14.936969493443659 $441 $591 forward 7 unknown #
vertex $-1 $302 $592 #
straight-curve $-1 -48.648703004568141 -2.1406700000543708 15.81517478686659 0 1 0 I I #
coedge $-1 $585 $303 $306 $454 reversed $439 $-1 #
coedge $-1 $303 $585 $445 $589 forward $439 $-1 #
vertex $-1 $304 $593 #
straight-curve $-1 -56.783959471419415 -7.4176666302158445 32.570749180379416 0 0 1 I I #
straight-curve $-1 -56.783959471419422 -7.4176666302158445 3.2879779788563965 -0.54463902268945019 0 -0.83867057594974714 I I #
edge $-1 $587 1.1450133700016387 $307 7.4176666302158445 $449 $594 forward 7 unknown #
point $-1 -56.783959471419415 -7.4176666302158445 15.81517478686659 #
point $-1 -48.648703004568134 -7.4176666302158445 15.81517478686659 #
edge $-1 $595 1 $595 0 $310 $-1 forward 7 unknown #
vertex $-1 $311 $596 #
ellipse-curve $-1 -51.716873023318598 -4.2813400001087416 8.9025206500510308 -0.83867057594974714 0 0.54463902268945019 0.54463902268945019 0 0.83867057594974714 1 I I #
point $-1 -52.171692215304326 -4.2813400001087416 10.390246958811236 #
loop $-1 $-1 $322 $314 #
plane-surface $-1 -56.783959471419415 0 0 1 0 0 0 0 -1 forward_v I I I I #
coedge $-1 $464 $317 $319 $468 reversed $194 $-1 #
coedge $-1 $317 $463 $597 $598 reversed $194 $-1 #
coedge $-1 $325 $320 $317 $466 forward $315 $-1 #
edge $-1 $469 -27.366312725743995 $599 -19.231056258892714 $465 $600 forward 7 unknown #
coedge $-1 $319 $318 $472 $601 reversed $122 $-1 #
edge $-1 $602 1.3181006846785195e-014 $469 14.936969493443659 $463 $603 forward 7 unknown #
vertex $-1 $321 $604 #
straight-curve $-1 -48.648703004568141 3.4438647668547446 15.81517478686659 0 1 0 I I #
coedge $-1 $597 $322 $325 $476 reversed $461 $-1 #
coedge $-1 $322 $597 $467 $601 forward $461 $-1 #
vertex $-1 $323 $605 #
straight-curve $-1 -56.783959471419415 3.7514029036023864 32.570749180379416 0 0 1 I I #
straight-curve $-1 -56.783959471419422 3.7514029036023864 3.2879779788563965 -0.54463902268945019 0 -0.83867057594974714 I I #
edge $-1 $599 -10.024056163816592 $326 -3.7514029036023864 $471 $606 forward 7 unknown #
point $-1 -56.783959471419415 3.7514029036023864 15.81517478686659 #
point $-1 -48.648703004568134 3.7514029036023864 15.81517478686659 #
edge $-1 $607 1 $607 0 $329 $-1 forward 7 unknown #
vertex $-1 $330 $608 #
ellipse-curve $-1 -51.716873023318598 6.8877295337094893 8.9025206500510308 -0.83867057594974714 0 0.54463902268945019 0.54463902268945019 0 0.83867057594974714 1 I I #
point $-1 -52.171692215304326 6.8877295337094893 10.390246958811236 #
loop $-1 $-1 $341 $333 #
plane-surface $-1 -56.783959471419415 0 0 1 0 0 0 0 -1 forward_v I I I I #
coedge $-1 $486 $336 $338 $490 reversed $209 $-1 #
coedge $-1 $336 $485 $609 $610 reversed $209 $-1 #
coedge $-1 $344 $339 $336 $488 forward $334 $-1 #
edge $-1 $491 -27.366312725743995 $611 -19.231056258892714 $487 $612 forward 7 unknown #
coedge $-1 $338 $337 $494 $613 reversed $131 $-1 #
edge $-1 $614 1.3181006846785195e-014 $491 14.936969493443659 $485 $615 forward 7 unknown #
vertex $-1 $340 $616 #
straight-curve $-1 -48.648703004568141 9.0283995337638601 15.81517478686659 0 1 0 I I #
coedge $-1 $609 $341 $344 $498 reversed $483 $-1 #
coedge $-1 $341 $609 $489 $613 forward $483 $-1 #
vertex $-1 $342 $617 #
straight-curve $-1 -56.783959471419415 14.920472437420617 32.570749180379416 0 0 1 I I #
straight-curve $-1 -56.783959471419422 14.920472437420617 3.2879779788563965 -0.54463902268945019 0 -0.83867057594974714 I I #
edge $-1 $611 -21.193125697634823 $345 -14.920472437420617 $493 $618 forward 7 unknown #
point $-1 -56.783959471419415 14.920472437420617 15.81517478686659 #
point $-1 -48.648703004568134 14.920472437420617 15.81517478686659 #
edge $-1 $619 1 $619 0 $348 $-1 forward 7 unknown #
vertex $-1 $349 $620 #
ellipse-curve $-1 -51.716873023318598 18.05679906752772 8.9025206500510308 -0.83867057594974714 0 0.54463902268945019 0.54463902268945019 0 0.83867057594974714 1 I I #
point $-1 -52.171692215304326 18.05679906752772 10.390246958811236 #
loop $-1 $-1 $359 $352 #
plane-surface $-1 -56.783959471419415 0 0 1 0 0 0 0 -1 forward_v I I I I #
coedge $-1 $621 $622 $356 $509 forward $353 $-1 #
coedge $-1 $356 $355 $514 $623 reversed $140 $-1 #
edge $-1 $511 -0.85235459058683438 $624 14.084614902856812 $507 $625 forward 7 unknown #
coedge $-1 $362 $357 $622 $626 forward $224 $-1 #
vertex $-1 $626 $627 #
straight-curve $-1 -48.648703004568141 14.612934300672975 15.81517478686659 0 1 0 I I #
coedge $-1 $628 $359 $362 $518 reversed $505 $-1 #
coedge $-1 $359 $628 $508 $623 forward $505 $-1 #
vertex $-1 $360 $629 #
straight-curve $-1 -56.783959471419415 26.089541971238848 32.570749180379416 0 0 1 I I #
straight-curve $-1 -56.783959471419422 26.089541971238848 3.2879779788563965 -0.54463902268945019 0 -0.83867057594974714 I I #
edge $-1 $630 -32.362195231453043 $363 -26.089541971238848 $513 $631 forward 7 unknown #
point $-1 -56.783959471419415 26.089541971238848 15.81517478686659 #
point $-1 -48.648703004568134 26.089541971238848 15.81517478686659 #
edge $-1 $632 1 $632 0 $366 $-1 forward 7 unknown #
vertex $-1 $367 $633 #
ellipse-curve $-1 -51.716873023318598 29.225868601345951 8.9025206500510308 -0.83867057594974714 0 0.54463902268945019 0.54463902268945019 0 0.83867057594974714 1 I I #
point $-1 -52.171692215304326 29.225868601345951 10.390246958811236 #
loop $-1 $-1 $378 $370 #
plane-surface $-1 56.783959471419415 0 0 -1 0 0 0 0 1 forward_v I I I I #
coedge $-1 $528 $373 $634 $635 reversed $239 $-1 #
coedge $-1 $373 $527 $531 $636 reversed $239 $-1 #
edge $-1 $637 -113.56791894283892 $532 -96.778201477559605 $373 $638 forward 7 unknown #
coedge $-1 $375 $374 $535 $639 reversed $149 $-1 #
coedge $-1 $381 $376 $528 $636 forward $371 $-1 #
vertex $-1 $636 $640 #
straight-curve $-1 46.915211344290149 -3.4836436471209051 15.815174786866599 0 -1 0 I I #
coedge $-1 $634 $378 $381 $539 reversed $525 $-1 #
coedge $-1 $378 $634 $530 $639 forward $525 $-1 #
vertex $-1 $379 $641 #
straight-curve $-1 56.783959471419415 -1.6204916846637545 80.431965934092432 0 0 1 I I #
straight-curve $-1 -9.969587137499957 -1.6204916846637545 94.110385259265527 0.5877852410284794 0 -0.80901700255871778 I I #
edge $-1 $642 -12.314082903819866 $382 -1.6204916846637545 $534 $643 forward 7 unknown #
point $-1 56.783959471419415 -1.6204916846637545 15.81517478686659 #
point $-1 46.915211344290149 -1.6204916846637545 15.815174786866592 #
edge $-1 $644 1 $644 0 $385 $-1 forward 7 unknown #
vertex $-1 $386 $645 #
ellipse-curve $-1 48.237525838323499 -9.2587711269181199 6.3992765239671012 0.80901700255871778 0 0.5877852410284794 0.8816778615427191 0 -1.2135255038380768 1 I I #
point $-1 52.731263269397502 -9.2587711269181199 7.8100658342445355 #
edge $-1 $646 1 $646 0 $389 $-1 forward 7 unknown #
vertex $-1 $390 $647 #
ellipse-curve $-1 48.237525838323499 -4.6758034615655006 6.3992765239671012 0.80901700255871778 0 0.5877852410284794 0.8816778615427191 0 -1.2135255038380768 1 I I #
point $-1 52.731263269397502 -4.6758034615655006 7.8100658342445355 #
plane-surface $-1 56.783959471419415 0 0 -1 0 0 0 0 1 forward_v I I I I #
coedge $-1 $398 $396 $400 $555 reversed $261 $-1 #
edge $-1 $411 -15.81517478686659 $557 15.81517478686659 $410 $648 forward 7 unknown #
vertex $-1 $555 $649 #
straight-curve $-1 -56.783959471419415 -32.362195231453043 0 0 0 -1 I I #
edge $-1 $553 -32.362195231453043 $557 32.362195231453043 $551 $650 forward 7 unknown #
straight-curve $-1 0 -32.362195231453043 -15.81517478686659 -1 0 0 I I #
vertex $-1 $403 $651 #
straight-curve $-1 0 32.362195231453043 -15.81517478686659 1 0 0 I I #
point $-1 56.783959471419415 32.362195231453043 -15.81517478686659 #
point $-1 56.783959471419415 -32.362195231453043 -15.81517478686659 #
straight-curve $-1 -56.783959471419415 0 15.81517478686659 0 -1 0 I I #
point $-1 -56.783959471419415 32.362195231453043 15.81517478686659 #
point $-1 -56.783959471419415 -32.362195231453043 15.81517478686659 #
straight-curve $-1 56.783959471419415 -32.362195231453043 0 0 0 -1 I I #
straight-curve $-1 56.783959471419415 32.362195231453043 0 0 0 -1 I I #
plane-surface $-1 56.783959471419415 0 0 -1 0 0 0 0 1 forward_v I I I I #
coedge $-1 $569 $581 $426 $573 forward $421 $-1 #
coedge $-1 $424 $423 $432 $579 reversed $171 $-1 #
coedge $-1 $652 $567 $424 $570 forward $421 $-1 #
edge $-1 $571 12.314082903819866 $653 32.362195231453043 $424 $654 forward 7 unknown #
vertex $-1 $570 $655 #
straight-curve $-1 -56.783959471419415 -12.314082903819866 6.2082295593825956 0 0 -1 I I #
edge $-1 $574 -56.783959471419415 $571 56.783959471419415 $567 $656 forward 7 unknown #
vertex $-1 $427 $657 #
straight-curve $-1 56.783959471419415 -12.314082903819866 6.2082295593825956 0 0 1 I I #
point $-1 -56.783959471419415 -12.314082903819866 9.0177434506637955 #
straight-curve $-1 -56.783959471419415 -11.169069533818227 9.0177434506637955 0 -1 0 I I #
coedge $-1 $432 $431 $652 $658 reversed $280 $-1 #
edge $-1 $653 -15.81517478686659 $433 -9.0177434506637955 $568 $659 forward 7 unknown #
point $-1 -56.783959471419415 -32.362195231453043 9.0177434506637955 #
coedge $-1 $567 $652 $435 $582 forward $421 $-1 #
edge $-1 $583 -32.362195231453043 $574 -12.314082903819866 $435 $660 forward 7 unknown #
vertex $-1 $582 $661 #
straight-curve $-1 56.783959471419415 -32.362195231453043 0 0 0 -1 I I #
coedge $-1 $450 $449 $442 $586 forward $439 $-1 #
edge $-1 $587 16.755574393512823 $590 29.282771201523008 $585 $662 forward 7 unknown #
vertex $-1 $454 $663 #
straight-curve $-1 -76.015015730312129 -1.1450133700016387 15.815174786866592 -1 0 0 I I #
edge $-1 $590 -0.99565663005273208 $451 5.2769966301614737 $450 $664 forward 7 unknown #
vertex $-1 $589 $665 #
straight-curve $-1 -56.783959471419422 -1.1450133700016387 3.2879779788563965 0.54463902268945019 0 0.83867057594974714 I I #
point $-1 -48.648703004568134 -1.1450133700016387 15.81517478686659 #
point $-1 -56.783959471419415 -7.4176666302158445 3.2879779788564076 #
straight-curve $-1 -56.783959471419415 0 15.81517478686659 0 -1 0 I I #
vertex $-1 $457 $666 #
point $-1 -51.172234000629146 -4.2813400001087416 9.7411912260007796 #
coedge $-1 $472 $471 $464 $598 forward $461 $-1 #
edge $-1 $599 16.755574393512823 $602 29.282771201523008 $597 $667 forward 7 unknown #
vertex $-1 $476 $668 #
straight-curve $-1 -76.015015730312129 10.024056163816592 15.815174786866592 -1 0 0 I I #
edge $-1 $602 -6.5801913969618475 $473 -0.30753813674764174 $472 $669 forward 7 unknown #
vertex $-1 $601 $670 #
straight-curve $-1 -56.783959471419422 10.024056163816592 3.2879779788563965 0.54463902268945019 0 0.83867057594974714 I I #
point $-1 -48.648703004568134 10.024056163816592 15.81517478686659 #
point $-1 -56.783959471419415 3.7514029036023864 3.2879779788564076 #
straight-curve $-1 -56.783959471419415 0 15.81517478686659 0 -1 0 I I #
vertex $-1 $479 $671 #
point $-1 -51.172234000629146 6.8877295337094893 9.7411912260007796 #
coedge $-1 $494 $493 $486 $610 forward $483 $-1 #
edge $-1 $611 16.755574393512823 $614 29.282771201523008 $609 $672 forward 7 unknown #
vertex $-1 $498 $673 #
straight-curve $-1 -76.015015730312129 21.193125697634823 15.815174786866592 -1 0 0 I I #
edge $-1 $614 -12.164726163870963 $495 -5.8920729036567572 $494 $674 forward 7 unknown #
vertex $-1 $613 $675 #
straight-curve $-1 -56.783959471419422 21.193125697634823 3.2879779788563965 0.54463902268945019 0 0.83867057594974714 I I #
point $-1 -48.648703004568134 21.193125697634823 15.81517478686659 #
point $-1 -56.783959471419415 14.920472437420617 3.2879779788564076 #
straight-curve $-1 -56.783959471419415 0 15.81517478686659 0 -1 0 I I #
vertex $-1 $501 $676 #
point $-1 -51.172234000629146 18.05679906752772 9.7411912260007796 #
coedge $-1 $622 $507 $628 $677 reversed $353 $-1 #
coedge $-1 $507 $621 $510 $626 reversed $353 $-1 #
edge $-1 $624 -17.749260930780082 $515 -11.476607670565873 $514 $678 forward 7 unknown #
vertex $-1 $509 $679 #
straight-curve $-1 -49.112928575770212 32.362195231453043 15.100330071465718 -0.54463902268945019 0 -0.83867057594974714 I I #
edge $-1 $511 48.648703004568134 $630 56.783959471419415 $622 $680 forward 7 unknown #
point $-1 -48.648703004568134 32.362195231453057 15.81517478686659 #
coedge $-1 $514 $513 $621 $677 forward $505 $-1 #
point $-1 -56.783959471419415 26.089541971238848 3.2879779788564076 #
vertex $-1 $626 $681 #
straight-curve $-1 -56.783959471419415 0 15.81517478686659 0 -1 0 I I #
vertex $-1 $521 $682 #
point $-1 -51.172234000629146 29.225868601345951 9.7411912260007796 #
coedge $-1 $535 $534 $527 $635 forward $525 $-1 #
edge $-1 $642 64.61679114722584 $637 78.199958044793874 $634 $683 forward 7 unknown #
edge $-1 $532 46.915211344290149 $642 56.783959471419415 $531 $684 forward 7 unknown #
vertex $-1 $635 $685 #
straight-curve $-1 -9.969587137499957 -12.314082903819866 94.110385259265527 -0.5877852410284794 0 0.80901700255871778 I I #
edge $-1 $637 -8.8304392566989609 $536 1.8631519624571506 $535 $686 forward 7 unknown #
point $-1 46.915211344290149 -12.314082903819866 15.815174786866592 #
point $-1 56.783959471419422 -1.6204916846637545 2.2320078892985578 #
vertex $-1 $539 $687 #
straight-curve $-1 56.783959471419415 0 15.81517478686659 0 1 0 I I #
vertex $-1 $542 $688 #
point $-1 49.119203699866219 -9.2587711269181199 5.1857510201290244 #
vertex $-1 $546 $689 #
point $-1 49.119203699866219 -4.6758034615655006 5.1857510201290244 #
straight-curve $-1 -56.783959471419415 32.362195231453043 0 0 0 -1 I I #
point $-1 -56.783959471419415 -32.362195231453043 -15.81517478686659 #
straight-curve $-1 -56.783959471419415 0 -15.81517478686659 0 1 0 I I #
point $-1 -56.783959471419415 32.362195231453043 -15.81517478686659 #
coedge $-1 $581 $569 $578 $658 forward $421 $-1 #
vertex $-1 $570 $690 #
straight-curve $-1 -56.783959471419415 0 15.81517478686659 0 -1 0 I I #
point $-1 -56.783959471419415 -12.314082903819866 15.815174786866587 #
straight-curve $-1 0 -12.314082903819866 15.81517478686659 -1 0 0 I I #
point $-1 56.783959471419415 -12.314082903819866 15.815174786866587 #
edge $-1 $653 -56.783959471419415 $583 56.783959471419415 $578 $691 forward 7 unknown #
straight-curve $-1 -56.783959471419415 -32.362195231453043 0 0 0 -1 I I #
straight-curve $-1 56.783959471419415 0 15.81517478686659 0 1 0 I I #
point $-1 56.783959471419415 -32.362195231453043 15.81517478686659 #
straight-curve $-1 -56.783959471419415 -1.1450133700016387 32.570749180379416 0 0 -1 I I #
point $-1 -56.783959471419415 -1.1450133700016387 15.81517478686659 #
straight-curve $-1 -56.783959471419415 -2.1406700000543708 3.2879779788564076 0 -1 0 I I #
point $-1 -56.783959471419415 -1.1450133700016387 3.2879779788564076 #
point $-1 -50.878202447368849 -4.2813400001087416 8.3578816273615821 #
straight-curve $-1 -56.783959471419415 10.024056163816592 32.570749180379416 0 0 -1 I I #
point $-1 -56.783959471419415 10.024056163816592 15.81517478686659 #
straight-curve $-1 -56.783959471419415 3.4438647668547446 3.2879779788564076 0 -1 0 I I #
point $-1 -56.783959471419415 10.024056163816592 3.2879779788564076 #
point $-1 -50.878202447368849 6.8877295337094893 8.3578816273615821 #
straight-curve $-1 -56.783959471419415 21.193125697634823 32.570749180379416 0 0 -1 I I #
point $-1 -56.783959471419415 21.193125697634823 15.81517478686659 #
straight-curve $-1 -56.783959471419415 9.0283995337638601 3.2879779788564076 0 -1 0 I I #
point $-1 -56.783959471419415 21.193125697634823 3.2879779788564076 #
point $-1 -50.878202447368849 18.05679906752772 8.3578816273615821 #
edge $-1 $630 -15.81517478686659 $624 -3.2879779788564076 $621 $692 forward 7 unknown #
straight-curve $-1 -56.783959471419415 14.612934300672975 3.2879779788564076 0 -1 0 I I #
point $-1 -56.783959471419415 32.362195231453057 3.2879779788564076 #
straight-curve $-1 0 32.362195231453043 15.81517478686659 -1 0 0 I I #
point $-1 -56.783959471419415 32.362195231453043 15.81517478686659 #
point $-1 -50.878202447368849 29.225868601345951 8.3578816273615821 #
straight-curve $-1 56.783959471419415 -12.314082903819866 80.431965934092432 0 0 -1 I I #
straight-curve $-1 0 -12.314082903819866 15.81517478686659 1 0 0 I I #
point $-1 56.783959471419422 -12.314082903819866 2.2320078892985578 #
straight-curve $-1 56.783959471419408 -3.4836436471209051 2.232007889298572 0 1 0 I I #
point $-1 56.783959471419415 -12.314082903819866 15.815174786866587 #
point $-1 47.024000334485429 -9.2587711269181199 5.5175986624243816 #
point $-1 47.024000334485429 -4.6758034615655006 5.5175986624243816 #
point $-1 -56.783959471419415 -32.362195231453043 15.81517478686659 #
straight-curve $-1 0 -32.362195231453043 15.81517478686659 1 0 0 I I #
straight-curve $-1 -56.783959471419415 32.362195231453043 0 0 0 -1 I I #
End-of-ACIS-data 