500 0 5 0           
7 Unknown 11 ACIS 5.0 NT 24 Thu Mar 25 15:50:13 1999 
-1 9.9999999999999995e-007 1e-010 
body $-1 $5 $-1 $6 #
body $-1 $7 $-1 $8 #
body $-1 $9 $-1 $10 #
body $-1 $11 $-1 $12 #
body $-1 $13 $-1 $14 #
lump $-1 $-1 $15 $0 #
transform $-1 1 0 0 0 1 0 0 0 1 45.431073946348462 21.31157855531259 10.015017550226442 1 rotate no_reflect no_shear #
lump $-1 $-1 $16 $1 #
transform $-1 1 0 0 0 1 0 0 0 1 45.431073946348462 21.31157855531259 10.015017550226442 1 rotate no_reflect no_shear #
lump $-1 $-1 $17 $2 #
transform $-1 1 0 0 0 1 0 0 0 1 45.431073946348462 21.31157855531259 10.015017550226442 1 rotate no_reflect no_shear #
lump $-1 $-1 $18 $3 #
transform $-1 1 0 0 0 1 0 0 0 1 45.431073946348462 21.31157855531259 10.015017550226442 1 rotate no_reflect no_shear #
lump $-1 $-1 $19 $4 #
transform $-1 1 0 0 0 1 0 0 0 1 45.431073946348462 21.31157855531259 10.015017550226442 1 rotate no_reflect no_shear #
shell $-1 $-1 $-1 $20 $-1 $5 #
shell $-1 $-1 $-1 $21 $-1 $7 #
shell $-1 $-1 $-1 $22 $-1 $9 #
shell $-1 $-1 $-1 $23 $-1 $11 #
shell $-1 $-1 $-1 $24 $-1 $13 #
face $-1 $25 $26 $15 $-1 $27 forward single #
face $-1 $28 $29 $16 $-1 $30 reversed single #
face $-1 $31 $32 $17 $-1 $33 reversed single #
face $-1 $34 $35 $18 $-1 $36 reversed single #
face $-1 $37 $38 $19 $-1 $39 forward single #
face $-1 $40 $41 $15 $-1 $42 reversed single #
loop $-1 $-1 $43 $20 #
plane-surface $-1 0 0 10.015017550226442 0 0 1 1 0 0 forward_v I I I I #
face $-1 $44 $45 $16 $-1 $46 reversed single #
loop $-1 $-1 $47 $21 #
plane-surface $-1 0 -14.998605655911909 5.9991688123979792 0 0 1 1 0 0 forward_v I I I I #
face $-1 $48 $49 $17 $-1 $50 reversed single #
loop $-1 $-1 $51 $22 #
plane-surface $-1 0 14.998605655911906 5.9991688123979792 0 0 1 1 0 0 forward_v I I I I #
face $-1 $52 $53 $18 $-1 $54 reversed single #
loop $-1 $-1 $55 $23 #
plane-surface $-1 -45.431073946348462 -5.8761271575649765 5.6756837755685083 -0.77714596973225614 0 0.62932038083071107 0.62932038083071107 0 0.77714596973225614 forward_v I I I I #
face $-1 $56 $57 $19 $-1 $58 forward single #
loop $-1 $59 $60 $24 #
cone-surface $-1 -42.844361368473251 -5.8761271575649765 7.173431551493854 0.77714596973225614 0 -0.62932038083071107 0.62932038083071107 0 0.77714596973225614 1 I I 0 1 1 forward I I I I #
face $-1 $61 $62 $15 $-1 $63 reversed single #
loop $-1 $-1 $64 $25 #
plane-surface $-1 0 0 -10.015017550226442 0 0 1 1 0 0 forward_v I I I I #
coedge $-1 $65 $66 $67 $68 forward $26 $-1 #
face $-1 $69 $70 $16 $-1 $71 reversed single #
loop $-1 $-1 $72 $28 #
plane-surface $-1 0 -8.6856327565112288 8.0070931813122108 0 -1 0 0 0 -1 forward_v I I I I #
coedge $-1 $73 $74 $75 $76 reversed $29 $-1 #
face $-1 $77 $78 $17 $-1 $79 forward single #
loop $-1 $-1 $80 $31 #
plane-surface $-1 0 8.6856327565112252 8.0070931813122108 0 1 0 0 0 1 forward_v I I I I #
coedge $-1 $81 $82 $83 $84 reversed $32 $-1 #
face $-1 $85 $86 $18 $-1 $87 reversed single #
loop $-1 $-1 $88 $34 #
plane-surface $-1 -116.04422598237409 -3.0666215586187242 62.857085290496926 0 -1 0 0.77714596973225614 0 -0.62932038083071107 forward_v I I I I #
coedge $-1 $89 $90 $91 $92 reversed $35 $-1 #
face $-1 $-1 $93 $19 $-1 $94 forward single #
loop $-1 $95 $96 $37 #
cone-surface $-1 -41.626037361204006 -5.8761271575649765 6.1868522496748781 0.77714596973225614 0 -0.62932038083071107 0.31466019041535553 0 0.38857298486612807 1 I I -0.70710678118654746 0.70710678118654746 0.5 forward I I I I #
loop $-1 $-1 $97 $24 #
coedge $-1 $60 $60 $98 $99 reversed $38 $-1 #
face $-1 $100 $101 $15 $-1 $102 reversed single #
loop $-1 $-1 $103 $40 #
plane-surface $-1 0 -21.31157855531259 0 0 1 0 0 0 1 forward_v I I I I #
coedge $-1 $104 $105 $106 $107 forward $41 $-1 #
coedge $-1 $108 $43 $109 $110 forward $26 $-1 #
coedge $-1 $43 $108 $111 $112 forward $26 $-1 #
coedge $-1 $113 $114 $43 $68 reversed $115 $-1 #
edge $-1 $116 -21.31157855531259 $117 21.31157855531259 $67 $118 forward 7 unknown #
face $-1 $119 $120 $16 $-1 $121 reversed single #
loop $-1 $-1 $122 $44 #
plane-surface $-1 -45.431073946348462 0 0 1 0 0 0 0 -1 forward_v I I I I #
coedge $-1 $123 $124 $125 $126 reversed $45 $-1 #
coedge $-1 $127 $47 $128 $129 reversed $29 $-1 #
coedge $-1 $47 $127 $123 $130 forward $29 $-1 #
coedge $-1 $125 $131 $47 $76 forward $132 $-1 #
edge $-1 $133 -13.812275727356635 $134 -1.1863299285552742 $75 $135 forward 7 unknown #
face $-1 $136 $137 $17 $-1 $138 reversed single #
loop $-1 $-1 $139 $48 #
plane-surface $-1 0 0 10.015017550226442 0 0 1 1 0 0 forward_v I I I I #
coedge $-1 $140 $141 $142 $143 reversed $49 $-1 #
coedge $-1 $144 $51 $140 $145 forward $32 $-1 #
coedge $-1 $51 $144 $146 $147 reversed $32 $-1 #
coedge $-1 $148 $149 $51 $84 forward $137 $-1 #
edge $-1 $150 1.1863299285552724 $151 13.812275727356633 $83 $152 forward 7 unknown #
face $-1 $153 $154 $18 $-1 $155 forward single #
loop $-1 $-1 $156 $52 #
plane-surface $-1 -45.431073946348462 0 0 1 0 0 0 0 -1 forward_v I I I I #
coedge $-1 $157 $158 $159 $160 reversed $53 $-1 #
coedge $-1 $161 $55 $162 $163 reversed $35 $-1 #
coedge $-1 $55 $161 $157 $164 forward $35 $-1 #
coedge $-1 $159 $165 $55 $92 forward $154 $-1 #
edge $-1 $166 -5.7475691777287405 $167 -0.12855797983623596 $91 $168 forward 7 unknown #
loop $-1 $-1 $98 $56 #
plane-surface $-1 -45.431073946348462 -5.8761271575649765 5.6756837755685083 -0.77714596973225614 0 0.62932038083071107 0.62932038083071107 0 0.77714596973225614 forward_v I I I I #
loop $-1 $-1 $169 $37 #
coedge $-1 $96 $96 $97 $170 reversed $57 $-1 #
coedge $-1 $97 $97 $96 $170 forward $59 $-1 #
coedge $-1 $98 $98 $60 $99 forward $93 $-1 #
edge $-1 $171 0 $171 6.2831853071796004 $98 $172 forward 7 unknown #
face $-1 $173 $174 $15 $-1 $175 reversed single #
loop $-1 $-1 $176 $61 #
plane-surface $-1 -45.431073946348462 0 0 1 0 0 0 0 -1 forward_v I I I I #
coedge $-1 $177 $111 $178 $179 forward $62 $-1 #
coedge $-1 $180 $64 $177 $181 forward $41 $-1 #
coedge $-1 $64 $180 $182 $183 forward $41 $-1 #
coedge $-1 $114 $113 $64 $107 reversed $115 $-1 #
edge $-1 $184 -21.31157855531259 $185 21.31157855531259 $106 $186 forward 7 unknown #
coedge $-1 $66 $65 $187 $188 forward $26 $-1 #
coedge $-1 $189 $190 $65 $110 reversed $174 $-1 #
edge $-1 $117 -45.431073946348462 $191 45.431073946348462 $109 $192 forward 7 unknown #
coedge $-1 $103 $193 $66 $112 reversed $62 $-1 #
edge $-1 $194 -45.431073946348462 $116 45.431073946348462 $111 $195 forward 7 unknown #
coedge $-1 $106 $67 $193 $196 forward $115 $-1 #
coedge $-1 $67 $106 $189 $197 reversed $115 $-1 #
loop $-1 $-1 $113 $173 #
vertex $-1 $68 $198 #
vertex $-1 $68 $199 #
straight-curve $-1 45.431073946348462 0 10.015017550226442 0 1 0 I I #
face $-1 $200 $201 $16 $-1 $202 forward single #
loop $-1 $-1 $128 $69 #
plane-surface $-1 0 -21.31157855531259 0 0 1 0 0 0 1 forward_v I I I I #
coedge $-1 $203 $204 $205 $206 forward $70 $-1 #
coedge $-1 $205 $72 $74 $130 reversed $45 $-1 #
coedge $-1 $72 $205 $207 $208 reversed $45 $-1 #
coedge $-1 $209 $75 $72 $126 forward $132 $-1 #
edge $-1 $134 1.9956222217418738 $210 6.0114709595703371 $125 $211 forward 7 unknown #
coedge $-1 $74 $73 $203 $212 reversed $29 $-1 #
coedge $-1 $213 $214 $73 $129 forward $120 $-1 #
edge $-1 $215 -45.431073946348462 $133 45.431073946348462 $128 $216 forward 7 unknown #
edge $-1 $217 -45.431073946348462 $134 45.431073946348462 $123 $218 forward 7 unknown #
coedge $-1 $75 $209 $213 $219 forward $132 $-1 #
loop $-1 $-1 $125 $200 #
vertex $-1 $129 $220 #
vertex $-1 $76 $221 #
straight-curve $-1 45.431073946348462 -7.4993028279559546 5.9991688123979792 0 1 0 I I #
face $-1 $222 $223 $17 $-1 $224 reversed single #
loop $-1 $-1 $149 $77 #
plane-surface $-1 45.431073946348462 0 0 -1 0 0 0 0 1 forward_v I I I I #
coedge $-1 $225 $226 $141 $227 forward $78 $-1 #
coedge $-1 $228 $80 $81 $145 reversed $49 $-1 #
coedge $-1 $80 $228 $139 $227 reversed $49 $-1 #
coedge $-1 $229 $230 $80 $143 forward $223 $-1 #
edge $-1 $231 1.9956222217418738 $232 6.0114709595703371 $142 $233 forward 7 unknown #
coedge $-1 $82 $81 $230 $234 reversed $32 $-1 #
edge $-1 $150 -45.431073946348462 $231 45.431073946348462 $140 $235 forward 7 unknown #
coedge $-1 $236 $237 $82 $147 forward $238 $-1 #
edge $-1 $151 -45.431073946348462 $239 45.431073946348462 $146 $240 forward 7 unknown #
coedge $-1 $241 $83 $237 $242 reversed $137 $-1 #
coedge $-1 $83 $241 $228 $243 forward $137 $-1 #
vertex $-1 $84 $244 #
vertex $-1 $147 $245 #
straight-curve $-1 45.431073946348462 7.4993028279559528 5.9991688123979792 0 1 0 I I #
face $-1 $-1 $246 $18 $-1 $247 forward single #
loop $-1 $-1 $159 $85 #
plane-surface $-1 0 0 10.015017550226442 0 0 1 1 0 0 forward_v I I I I #
coedge $-1 $248 $249 $158 $250 forward $86 $-1 #
coedge $-1 $158 $88 $90 $164 reversed $53 $-1 #
coedge $-1 $88 $157 $156 $250 reversed $53 $-1 #
coedge $-1 $251 $91 $88 $160 forward $154 $-1 #
edge $-1 $167 -16.104962155782758 $252 -12.591039044838581 $159 $253 forward 7 unknown #
coedge $-1 $90 $89 $248 $254 reversed $35 $-1 #
coedge $-1 $255 $256 $89 $163 forward $246 $-1 #
edge $-1 $257 -15.201273090466898 $166 -9.6175939057792021 $162 $258 forward 7 unknown #
edge $-1 $259 0 $167 5.5836791846876981 $157 $260 forward 7 unknown #
coedge $-1 $91 $251 $255 $261 forward $154 $-1 #
vertex $-1 $163 $262 #
vertex $-1 $92 $263 #
straight-curve $-1 -41.917150835404286 -2.9380635787824882 10.015017550226442 0 1 0 I I #
coedge $-1 $169 $169 $-1 $264 reversed $95 $-1 #
edge $-1 $265 0 $265 6.2831853071796004 $96 $266 forward 7 unknown #
vertex $-1 $99 $267 #
ellipse-curve $-1 -43.674112390876374 -5.8761271575649765 7.8453506628974772 -0.77714596973225614 0 0.62932038083071107 0.62932038083071107 0 0.77714596973225614 1 I I #
face $-1 $-1 $115 $15 $-1 $268 reversed single #
loop $-1 $-1 $189 $100 #
plane-surface $-1 0 21.31157855531259 0 0 -1 0 0 0 -1 forward_v I I I I #
coedge $-1 $269 $187 $190 $270 forward $101 $-1 #
coedge $-1 $193 $103 $104 $181 reversed $62 $-1 #
coedge $-1 $187 $269 $103 $179 reversed $101 $-1 #
edge $-1 $194 -10.015017550226442 $271 10.015017550226442 $178 $272 forward 7 unknown #
coedge $-1 $105 $104 $269 $273 forward $41 $-1 #
edge $-1 $185 -45.431073946348462 $271 45.431073946348462 $177 $274 forward 7 unknown #
coedge $-1 $190 $189 $105 $183 reversed $174 $-1 #
edge $-1 $275 -45.431073946348462 $184 45.431073946348462 $182 $276 forward 7 unknown #
vertex $-1 $107 $277 #
vertex $-1 $196 $278 #
straight-curve $-1 45.431073946348462 0 -10.015017550226442 0 -1 0 I I #
coedge $-1 $176 $178 $108 $188 reversed $101 $-1 #
edge $-1 $191 -21.31157855531259 $194 21.31157855531259 $187 $279 forward 7 unknown #
coedge $-1 $182 $109 $114 $197 forward $174 $-1 #
coedge $-1 $109 $182 $176 $270 reversed $174 $-1 #
vertex $-1 $110 $280 #
straight-curve $-1 0 21.31157855531259 10.015017550226442 -1 0 0 I I #
coedge $-1 $111 $177 $113 $196 reversed $62 $-1 #
vertex $-1 $188 $281 #
straight-curve $-1 0 -21.31157855531259 10.015017550226442 1 0 0 I I #
edge $-1 $116 -10.015017550226442 $185 10.015017550226442 $113 $282 forward 7 unknown #
edge $-1 $117 -10.015017550226442 $184 10.015017550226442 $114 $283 forward 7 unknown #
point $-1 45.431073946348462 -21.31157855531259 10.015017550226442 #
point $-1 45.431073946348462 21.31157855531259 10.015017550226442 #
face $-1 $-1 $132 $16 $-1 $284 reversed single #
loop $-1 $-1 $207 $119 #
plane-surface $-1 0 0 10.015017550226442 0 0 1 1 0 0 forward_v I I I I #
coedge $-1 $285 $122 $127 $212 forward $70 $-1 #
coedge $-1 $122 $285 $286 $287 reversed $70 $-1 #
coedge $-1 $124 $123 $122 $206 reversed $45 $-1 #
edge $-1 $288 -6.0114709595703371 $217 -1.9956222217418738 $122 $289 forward 7 unknown #
coedge $-1 $286 $290 $124 $208 forward $201 $-1 #
edge $-1 $210 -45.431073946348462 $288 45.431073946348462 $207 $291 forward 7 unknown #
coedge $-1 $131 $125 $290 $292 reversed $132 $-1 #
vertex $-1 $126 $293 #
straight-curve $-1 45.431073946348462 -8.6856327565112288 4.0035465906561054 0 0 1 I I #
edge $-1 $217 1.1863299285552742 $215 13.812275727356635 $203 $294 forward 7 unknown #
coedge $-1 $295 $128 $131 $219 reversed $120 $-1 #
coedge $-1 $128 $295 $285 $296 forward $120 $-1 #
vertex $-1 $129 $297 #
straight-curve $-1 0 -21.31157855531259 5.9991688123979792 1 0 0 I I #
vertex $-1 $212 $298 #
straight-curve $-1 0 -8.6856327565112288 5.9991688123979792 1 0 0 I I #
edge $-1 $299 -10.015017550226442 $133 -5.9991688123979792 $131 $300 forward 7 unknown #
point $-1 45.431073946348462 -21.31157855531259 5.9991688123979792 #
point $-1 45.431073946348462 -8.6856327565112288 5.9991688123979792 #
face $-1 $-1 $238 $17 $-1 $301 reversed single #
loop $-1 $-1 $142 $136 #
plane-surface $-1 -45.431073946348462 0 0 1 0 0 0 0 -1 forward_v I I I I #
coedge $-1 $302 $139 $241 $303 forward $78 $-1 #
coedge $-1 $139 $302 $229 $304 forward $78 $-1 #
edge $-1 $232 -45.431073946348462 $305 45.431073946348462 $139 $306 forward 7 unknown #
coedge $-1 $141 $140 $149 $243 reversed $49 $-1 #
coedge $-1 $307 $142 $226 $304 reversed $223 $-1 #
coedge $-1 $142 $307 $144 $234 forward $223 $-1 #
vertex $-1 $234 $308 #
vertex $-1 $143 $309 #
straight-curve $-1 -45.431073946348462 8.6856327565112252 4.0035465906561054 0 0 1 I I #
edge $-1 $239 -13.812275727356633 $231 -1.1863299285552724 $230 $310 forward 7 unknown #
straight-curve $-1 0 8.6856327565112252 5.9991688123979792 -1 0 0 I I #
coedge $-1 $311 $146 $307 $312 reversed $238 $-1 #
coedge $-1 $146 $311 $148 $242 forward $238 $-1 #
loop $-1 $-1 $146 $222 #
vertex $-1 $147 $313 #
straight-curve $-1 0 21.31157855531259 5.9991688123979792 -1 0 0 I I #
coedge $-1 $149 $148 $225 $303 reversed $137 $-1 #
edge $-1 $314 -10.015017550226442 $151 -5.9991688123979792 $148 $315 forward 7 unknown #
edge $-1 $305 -6.0114709595703371 $150 -1.9956222217418738 $149 $316 forward 7 unknown #
point $-1 45.431073946348462 8.6856327565112252 5.9991688123979792 #
point $-1 45.431073946348462 21.311578555312586 5.9991688123979792 #
loop $-1 $-1 $162 $153 #
plane-surface $-1 0 -8.6856327565112288 8.0070931813122108 0 -1 0 0 0 -1 forward_v I I I I #
coedge $-1 $317 $156 $161 $254 forward $86 $-1 #
coedge $-1 $156 $317 $251 $318 reversed $86 $-1 #
edge $-1 $252 21.41352509502202 $259 25.752858869679955 $156 $319 forward 7 unknown #
coedge $-1 $165 $159 $249 $318 forward $154 $-1 #
vertex $-1 $318 $320 #
straight-curve $-1 -58.022112991187043 -3.0666215586187242 10.015017550226442 -1 0 0 I I #
edge $-1 $259 0.12855797983623596 $257 5.7475691777287405 $248 $321 forward 7 unknown #
coedge $-1 $256 $162 $165 $261 reversed $246 $-1 #
coedge $-1 $162 $255 $317 $322 reversed $246 $-1 #
vertex $-1 $322 $323 #
straight-curve $-1 -35.864602975944194 -8.6856327565112288 17.489291892624259 0.62932038083071107 0 0.77714596973225614 I I #
vertex $-1 $254 $324 #
straight-curve $-1 -45.431073946348462 -3.0666215586187242 5.6756837755685083 0.62932038083071107 0 0.77714596973225614 I I #
edge $-1 $325 -45.431073946348462 $166 -41.917150835404286 $165 $326 forward 7 unknown #
point $-1 -41.917150835404286 -8.6856327565112288 10.015017550226442 #
point $-1 -41.917150835404286 -3.0666215586187242 10.015017550226442 #
edge $-1 $327 1 $327 0 $169 $-1 forward 7 unknown #
vertex $-1 $170 $328 #
ellipse-curve $-1 -42.014610346070135 -5.8761271575649765 6.5015124400902335 -0.77714596973225614 0 0.62932038083071107 0.62932038083071107 0 0.77714596973225614 1 I I #
point $-1 -43.044792010045661 -5.8761271575649765 8.6224966326297299 #
plane-surface $-1 45.431073946348462 0 0 -1 0 0 0 0 1 forward_v I I I I #
coedge $-1 $178 $176 $180 $273 reversed $101 $-1 #
edge $-1 $191 -10.015017550226442 $275 10.015017550226442 $190 $329 forward 7 unknown #
vertex $-1 $273 $330 #
straight-curve $-1 -45.431073946348462 -21.31157855531259 0 0 0 -1 I I #
edge $-1 $271 -21.31157855531259 $275 21.31157855531259 $269 $331 forward 7 unknown #
straight-curve $-1 0 -21.31157855531259 -10.015017550226442 -1 0 0 I I #
vertex $-1 $183 $332 #
straight-curve $-1 0 21.31157855531259 -10.015017550226442 1 0 0 I I #
point $-1 45.431073946348462 21.31157855531259 -10.015017550226442 #
point $-1 45.431073946348462 -21.31157855531259 -10.015017550226442 #
straight-curve $-1 -45.431073946348462 0 10.015017550226442 0 -1 0 I I #
point $-1 -45.431073946348462 21.31157855531259 10.015017550226442 #
point $-1 -45.431073946348462 -21.31157855531259 10.015017550226442 #
straight-curve $-1 45.431073946348462 -21.31157855531259 0 0 0 -1 I I #
straight-curve $-1 45.431073946348462 21.31157855531259 0 0 0 -1 I I #
plane-surface $-1 45.431073946348462 0 0 -1 0 0 0 0 1 forward_v I I I I #
coedge $-1 $204 $203 $214 $296 reversed $70 $-1 #
coedge $-1 $333 $207 $204 $287 forward $201 $-1 #
edge $-1 $288 8.6856327565112288 $334 21.31157855531259 $204 $335 forward 7 unknown #
vertex $-1 $287 $336 #
straight-curve $-1 -45.431073946348462 -8.6856327565112288 4.0035465906561054 0 0 -1 I I #
coedge $-1 $207 $333 $209 $292 forward $201 $-1 #
straight-curve $-1 0 -8.6856327565112288 10.015017550226442 -1 0 0 I I #
edge $-1 $299 -21.31157855531259 $210 -8.6856327565112288 $209 $337 forward 7 unknown #
point $-1 45.431073946348462 -8.6856327565112288 10.015017550226442 #
straight-curve $-1 -45.431073946348462 -7.4993028279559546 5.9991688123979792 0 -1 0 I I #
coedge $-1 $214 $213 $333 $338 reversed $120 $-1 #
edge $-1 $334 -10.015017550226442 $215 -5.9991688123979792 $285 $339 forward 7 unknown #
point $-1 -45.431073946348462 -21.31157855531259 5.9991688123979792 #
point $-1 -45.431073946348462 -8.6856327565112288 5.9991688123979792 #
vertex $-1 $292 $340 #
straight-curve $-1 45.431073946348462 -21.31157855531259 0 0 0 -1 I I #
plane-surface $-1 0 21.31157855531259 0 0 -1 0 0 0 -1 forward_v I I I I #
coedge $-1 $226 $225 $311 $341 forward $78 $-1 #
edge $-1 $305 8.6856327565112252 $314 21.31157855531259 $241 $342 forward 7 unknown #
edge $-1 $343 -21.31157855531259 $232 -8.6856327565112252 $229 $344 forward 7 unknown #
vertex $-1 $303 $345 #
straight-curve $-1 0 8.6856327565112252 10.015017550226442 1 0 0 I I #
coedge $-1 $230 $229 $236 $312 forward $223 $-1 #
point $-1 -45.431073946348462 8.6856327565112252 5.9991688123979792 #
point $-1 -45.431073946348462 8.6856327565112252 10.015017550226442 #
straight-curve $-1 -45.431073946348462 7.4993028279559528 5.9991688123979792 0 -1 0 I I #
coedge $-1 $237 $236 $302 $341 reversed $238 $-1 #
edge $-1 $343 -10.015017550226442 $239 -5.9991688123979792 $236 $346 forward 7 unknown #
point $-1 -45.431073946348462 21.311578555312586 5.9991688123979792 #
vertex $-1 $303 $347 #
straight-curve $-1 45.431073946348462 21.31157855531259 0 0 0 -1 I I #
straight-curve $-1 45.431073946348462 8.6856327565112252 4.0035465906561054 0 0 -1 I I #
coedge $-1 $249 $248 $256 $322 forward $86 $-1 #
edge $-1 $252 3.0666215586187242 $325 8.6856327565112288 $249 $348 forward 7 unknown #
straight-curve $-1 -45.431073946348462 -3.0666215586187242 31.428542645248463 0 0 -1 I I #
point $-1 -45.431073946348462 -3.0666215586187242 10.015017550226442 #
straight-curve $-1 -45.431073946348462 -2.9380635787824882 5.6756837755685119 0 -1 0 I I #
edge $-1 $257 -25.752858869679955 $325 -21.41352509502202 $317 $349 forward 7 unknown #
point $-1 -45.431073946348462 -8.6856327565112288 5.6756837755685083 #
point $-1 -45.431073946348462 -3.0666215586187242 5.6756837755685083 #
vertex $-1 $322 $350 #
straight-curve $-1 0 -8.6856327565112288 10.015017550226442 1 0 0 I I #
vertex $-1 $264 $351 #
point $-1 -41.385289965239423 -5.8761271575649765 7.2786584098224898 #
straight-curve $-1 -45.431073946348462 21.31157855531259 0 0 0 -1 I I #
point $-1 -45.431073946348462 -21.31157855531259 -10.015017550226442 #
straight-curve $-1 -45.431073946348462 0 -10.015017550226442 0 1 0 I I #
point $-1 -45.431073946348462 21.31157855531259 -10.015017550226442 #
coedge $-1 $290 $286 $295 $338 forward $201 $-1 #
vertex $-1 $287 $352 #
straight-curve $-1 -45.431073946348462 0 10.015017550226442 0 -1 0 I I #
point $-1 -45.431073946348462 -8.6856327565112288 10.015017550226442 #
straight-curve $-1 45.431073946348462 0 10.015017550226442 0 1 0 I I #
edge $-1 $334 -45.431073946348462 $299 45.431073946348462 $295 $353 forward 7 unknown #
straight-curve $-1 -45.431073946348462 -21.31157855531259 0 0 0 -1 I I #
point $-1 45.431073946348462 -21.31157855531259 10.015017550226442 #
edge $-1 $314 -45.431073946348462 $343 45.431073946348462 $311 $354 forward 7 unknown #
straight-curve $-1 45.431073946348462 0 10.015017550226442 0 1 0 I I #
vertex $-1 $341 $355 #
straight-curve $-1 -45.431073946348462 0 10.015017550226442 0 -1 0 I I #
point $-1 45.431073946348462 8.6856327565112252 10.015017550226442 #
straight-curve $-1 -45.431073946348462 21.31157855531259 0 0 0 -1 I I #
point $-1 45.431073946348462 21.31157855531259 10.015017550226442 #
straight-curve $-1 -45.431073946348462 0 10.015017550226442 0 -1 0 I I #
straight-curve $-1 -45.431073946348462 -8.6856327565112288 31.428542645248463 0 0 1 I I #
point $-1 -45.431073946348462 -8.6856327565112288 10.015017550226442 #
point $-1 -41.237464376337876 -5.8761271575649765 5.8721920592595227 #
point $-1 -45.431073946348462 -21.31157855531259 10.015017550226442 #
straight-curve $-1 0 -21.31157855531259 10.015017550226442 1 0 0 I I #
straight-curve $-1 0 21.31157855531259 10.015017550226442 -1 0 0 I I #
point $-1 -45.431073946348462 21.31157855531259 10.015017550226442 #
End-of-ACIS-data 