500 0 8 0           
7 Unknown 11 ACIS 5.0 NT 24 Fri Mar 26 15:38:21 1999 
-1 9.9999999999999995e-007 1e-010 
body $-1 $8 $-1 $9 #
body $-1 $10 $-1 $11 #
body $-1 $12 $-1 $13 #
body $-1 $14 $-1 $15 #
body $-1 $16 $-1 $17 #
body $-1 $18 $-1 $19 #
body $-1 $20 $-1 $21 #
body $-1 $22 $-1 $23 #
lump $-1 $-1 $24 $0 #
transform $-1 1 0 0 0 1 0 0 0 1 41.920224616229746 29.144579758899752 13.577529968492099 1 rotate no_reflect no_shear #
lump $-1 $-1 $25 $1 #
transform $-1 1 0 0 0 0.49999998660252726 -0.86602541151947299 0 0.86602541151947299 0.49999998660252726 38.6745371783378 101.75254008834538 111.91865031559223 1 rotate no_reflect no_shear #
lump $-1 $-1 $26 $2 #
transform $-1 1 0 0 0 -0.49999998660252726 0.86602541151947299 0 -0.86602541151947299 -0.49999998660252726 34.8203123822829 54.624748128145633 22.49390219508922 1 rotate no_reflect no_shear #
lump $-1 $-1 $27 $3 #
transform $-1 1 0 0 0 -0.49999998660252726 0.86602541151947299 0 -0.86602541151947299 -0.49999998660252726 38.674537178337793 54.624748128145633 22.49390219508922 1 rotate no_reflect no_shear #
lump $-1 $-1 $28 $4 #
transform $-1 1 0 0 0 -0.49999998660252726 0.86602541151947299 0 -0.86602541151947299 -0.49999998660252726 42.528761974392687 54.624748128145633 22.49390219508922 1 rotate no_reflect no_shear #
lump $-1 $-1 $29 $5 #
transform $-1 1 0 0 0 0.81915203911291934 0.57357644374324357 0 -0.57357644374324357 0.81915203911291934 37.717703674987604 -48.088906712590074 88.488106248062678 1 rotate no_reflect no_shear #
lump $-1 $-1 $30 $6 #
transform $-1 1 0 0 0 -0.81915203911291934 -0.57357644374324357 0 0.57357644374324357 -0.81915203911291934 34.846913323177411 7.3643364965234177 20.45566796165275 1 rotate no_reflect no_shear #
lump $-1 $-1 $31 $7 #
transform $-1 1 0 0 0 -0.81915203911291934 -0.57357644374324357 0 0.57357644374324357 -0.81915203911291934 40.588494026797797 7.3643364965234177 20.45566796165275 1 rotate no_reflect no_shear #
shell $-1 $-1 $-1 $32 $-1 $8 #
shell $-1 $-1 $-1 $33 $-1 $10 #
shell $-1 $-1 $-1 $34 $-1 $12 #
shell $-1 $-1 $-1 $35 $-1 $14 #
shell $-1 $-1 $-1 $36 $-1 $16 #
shell $-1 $-1 $-1 $37 $-1 $18 #
shell $-1 $-1 $-1 $38 $-1 $20 #
shell $-1 $-1 $-1 $39 $-1 $22 #
face $-1 $40 $41 $24 $-1 $42 forward single #
face $-1 $43 $44 $25 $-1 $45 forward single #
face $-1 $46 $47 $26 $-1 $48 forward single #
face $-1 $49 $50 $27 $-1 $51 forward single #
face $-1 $52 $53 $28 $-1 $54 forward single #
face $-1 $55 $56 $29 $-1 $57 forward single #
face $-1 $58 $59 $30 $-1 $60 forward single #
face $-1 $61 $62 $31 $-1 $63 forward single #
face $-1 $64 $65 $24 $-1 $66 reversed single #
loop $-1 $-1 $67 $32 #
plane-surface $-1 0 0 13.577529968492099 0 0 1 1 0 0 forward_v I I I I #
face $-1 $68 $69 $25 $-1 $70 reversed single #
loop $-1 $-1 $71 $33 #
plane-surface $-1 0 0 83.840449232459491 0 0 1 1 0 0 forward_v I I I I #
face $-1 $72 $73 $26 $-1 $74 forward single #
loop $-1 $75 $76 $34 #
cone-surface $-1 0 0 -0.96789452803125187 0 0 1 0.5 0 0 1 I I 0 1 0.5 forward I I I I #
face $-1 $77 $78 $27 $-1 $79 forward single #
loop $-1 $80 $81 $35 #
cone-surface $-1 0 0 -0.96789452803125187 0 0 1 0.5 0 0 1 I I 0 1 0.5 forward I I I I #
face $-1 $82 $83 $28 $-1 $84 forward single #
loop $-1 $85 $86 $36 #
cone-surface $-1 0 0 -0.96789452803125187 0 0 1 0.5 0 0 1 I I 0 1 0.5 forward I I I I #
face $-1 $87 $88 $29 $-1 $89 reversed single #
loop $-1 $-1 $90 $37 #
plane-surface $-1 0 0 83.840449232459491 0 0 1 1 0 0 forward_v I I I I #
face $-1 $91 $92 $30 $-1 $93 forward single #
loop $-1 $94 $95 $38 #
cone-surface $-1 0 0 -2.0975676747947638 0 0 1 1 0 0 1 I I 0 1 1 forward I I I I #
face $-1 $96 $97 $31 $-1 $98 forward single #
loop $-1 $99 $100 $39 #
cone-surface $-1 0 0 -2.0975676747947638 0 0 1 1 0 0 1 I I 0 1 1 forward I I I I #
face $-1 $101 $102 $24 $-1 $103 reversed single #
loop $-1 $-1 $104 $40 #
plane-surface $-1 0 0 -13.577529968492099 0 0 1 1 0 0 forward_v I I I I #
coedge $-1 $105 $106 $107 $108 forward $41 $-1 #
face $-1 $109 $110 $25 $-1 $111 reversed single #
loop $-1 $-1 $112 $43 #
plane-surface $-1 0 0 -83.840449232459491 0 0 1 1 0 0 forward_v I I I I #
coedge $-1 $113 $114 $115 $116 forward $44 $-1 #
face $-1 $-1 $117 $26 $-1 $118 forward single #
loop $-1 $-1 $119 $46 #
plane-surface $-1 0 0 -1.6857890560625037 0 0 -1 -1 0 0 forward_v I I I I #
loop $-1 $-1 $120 $34 #
coedge $-1 $76 $76 $119 $121 reversed $47 $-1 #
face $-1 $-1 $122 $27 $-1 $123 forward single #
loop $-1 $-1 $124 $49 #
plane-surface $-1 0 0 -1.6857890560625037 0 0 -1 -1 0 0 forward_v I I I I #
loop $-1 $-1 $125 $35 #
coedge $-1 $81 $81 $124 $126 reversed $50 $-1 #
face $-1 $-1 $127 $28 $-1 $128 forward single #
loop $-1 $-1 $129 $52 #
plane-surface $-1 0 0 -1.6857890560625037 0 0 -1 -1 0 0 forward_v I I I I #
loop $-1 $-1 $130 $36 #
coedge $-1 $86 $86 $129 $131 reversed $53 $-1 #
face $-1 $132 $133 $29 $-1 $134 reversed single #
loop $-1 $-1 $135 $55 #
plane-surface $-1 0 0 -83.840449232459491 0 0 1 1 0 0 forward_v I I I I #
coedge $-1 $136 $137 $138 $139 forward $56 $-1 #
face $-1 $-1 $140 $30 $-1 $141 forward single #
loop $-1 $-1 $142 $58 #
plane-surface $-1 0 0 -3.6951353495895276 0 0 -1 -1 0 0 forward_v I I I I #
loop $-1 $-1 $143 $38 #
coedge $-1 $95 $95 $142 $144 reversed $59 $-1 #
face $-1 $-1 $145 $31 $-1 $146 forward single #
loop $-1 $-1 $147 $61 #
plane-surface $-1 0 0 -3.6951353495895276 0 0 -1 -1 0 0 forward_v I I I I #
loop $-1 $-1 $148 $39 #
coedge $-1 $100 $100 $147 $149 reversed $62 $-1 #
face $-1 $150 $151 $24 $-1 $152 reversed single #
loop $-1 $-1 $153 $64 #
plane-surface $-1 0 -29.144579758899752 0 0 1 0 0 0 1 forward_v I I I I #
coedge $-1 $154 $155 $156 $157 forward $65 $-1 #
coedge $-1 $158 $67 $159 $160 forward $41 $-1 #
coedge $-1 $67 $158 $161 $162 forward $41 $-1 #
coedge $-1 $163 $164 $67 $108 reversed $165 $-1 #
edge $-1 $166 -29.144579758899752 $167 29.144579758899752 $107 $168 forward 7 unknown #
face $-1 $169 $170 $25 $-1 $171 reversed single #
loop $-1 $-1 $172 $68 #
plane-surface $-1 0 -167.68089846491898 0 0 1 0 0 0 1 forward_v I I I I #
coedge $-1 $173 $174 $175 $176 forward $69 $-1 #
coedge $-1 $177 $71 $178 $179 forward $44 $-1 #
coedge $-1 $71 $177 $180 $181 forward $44 $-1 #
coedge $-1 $182 $183 $71 $116 reversed $184 $-1 #
edge $-1 $185 -167.68089846491898 $186 167.68089846491898 $115 $187 forward 7 unknown #
loop $-1 $188 $189 $72 #
cone-surface $-1 0 0 0 0 0 1 0.25 0 0 1 I I -0.70710678118654746 0.70710678118654746 0.25 forward I I I I #
coedge $-1 $119 $119 $76 $121 forward $73 $-1 #
coedge $-1 $120 $120 $189 $190 forward $75 $-1 #
edge $-1 $191 0 $191 6.2831853071796004 $119 $192 forward 7 unknown #
loop $-1 $193 $194 $77 #
cone-surface $-1 0 0 0 0 0 1 0.25 0 0 1 I I -0.70710678118654746 0.70710678118654746 0.25 forward I I I I #
coedge $-1 $124 $124 $81 $126 forward $78 $-1 #
coedge $-1 $125 $125 $194 $195 forward $80 $-1 #
edge $-1 $196 0 $196 6.2831853071796004 $124 $197 forward 7 unknown #
loop $-1 $198 $199 $82 #
cone-surface $-1 0 0 0 0 0 1 0.25 0 0 1 I I -0.70710678118654746 0.70710678118654746 0.25 forward I I I I #
coedge $-1 $129 $129 $86 $131 forward $83 $-1 #
coedge $-1 $130 $130 $199 $200 forward $85 $-1 #
edge $-1 $201 0 $201 6.2831853071796004 $129 $202 forward 7 unknown #
face $-1 $203 $204 $29 $-1 $205 reversed single #
loop $-1 $-1 $206 $87 #
plane-surface $-1 0 -167.68089846491898 0 0 1 0 0 0 1 forward_v I I I I #
coedge $-1 $207 $208 $209 $210 forward $88 $-1 #
coedge $-1 $211 $90 $212 $213 forward $56 $-1 #
coedge $-1 $90 $211 $214 $215 forward $56 $-1 #
coedge $-1 $216 $217 $90 $139 reversed $218 $-1 #
edge $-1 $219 -167.68089846491898 $220 167.68089846491898 $138 $221 forward 7 unknown #
loop $-1 $222 $223 $91 #
cone-surface $-1 0 0 0 0 0 1 0.5 0 0 1 I I -0.70710678118654813 0.70710678118654691 0.5 forward I I I I #
coedge $-1 $142 $142 $95 $144 forward $92 $-1 #
coedge $-1 $143 $143 $223 $224 forward $94 $-1 #
edge $-1 $225 0 $225 6.2831853071796004 $142 $226 forward 7 unknown #
loop $-1 $227 $228 $96 #
cone-surface $-1 0 0 0 0 0 1 0.5 0 0 1 I I -0.70710678118654813 0.70710678118654691 0.5 forward I I I I #
coedge $-1 $147 $147 $100 $149 forward $97 $-1 #
coedge $-1 $148 $148 $228 $229 forward $99 $-1 #
edge $-1 $230 0 $230 6.2831853071796004 $147 $231 forward 7 unknown #
face $-1 $232 $233 $24 $-1 $234 reversed single #
loop $-1 $-1 $235 $101 #
plane-surface $-1 -41.920224616229746 0 0 1 0 0 0 0 -1 forward_v I I I I #
coedge $-1 $236 $161 $237 $238 forward $102 $-1 #
coedge $-1 $239 $104 $236 $240 forward $65 $-1 #
coedge $-1 $104 $239 $241 $242 forward $65 $-1 #
coedge $-1 $164 $163 $104 $157 reversed $165 $-1 #
edge $-1 $243 -29.144579758899752 $244 29.144579758899752 $156 $245 forward 7 unknown #
coedge $-1 $106 $105 $246 $247 forward $41 $-1 #
coedge $-1 $248 $249 $105 $160 reversed $233 $-1 #
edge $-1 $167 -41.920224616229746 $250 41.920224616229746 $159 $251 forward 7 unknown #
coedge $-1 $153 $252 $106 $162 reversed $102 $-1 #
edge $-1 $253 -41.920224616229746 $166 41.920224616229746 $161 $254 forward 7 unknown #
coedge $-1 $156 $107 $252 $255 forward $165 $-1 #
coedge $-1 $107 $156 $248 $256 reversed $165 $-1 #
loop $-1 $-1 $163 $232 #
vertex $-1 $108 $257 #
vertex $-1 $108 $258 #
straight-curve $-1 41.920224616229746 0 13.577529968492099 0 1 0 I I #
face $-1 $259 $260 $25 $-1 $261 reversed single #
loop $-1 $-1 $262 $109 #
plane-surface $-1 -6.4237079934248236 0 0 1 0 0 0 0 -1 forward_v I I I I #
coedge $-1 $263 $180 $264 $265 forward $110 $-1 #
coedge $-1 $266 $112 $263 $267 forward $69 $-1 #
coedge $-1 $112 $266 $268 $269 forward $69 $-1 #
coedge $-1 $183 $182 $112 $176 reversed $184 $-1 #
edge $-1 $270 -167.68089846491898 $271 167.68089846491898 $175 $272 forward 7 unknown #
coedge $-1 $114 $113 $273 $274 forward $44 $-1 #
coedge $-1 $275 $276 $113 $179 reversed $260 $-1 #
edge $-1 $186 -6.4237079934248236 $277 6.4237079934248236 $178 $278 forward 7 unknown #
coedge $-1 $172 $279 $114 $181 reversed $110 $-1 #
edge $-1 $280 -6.4237079934248236 $185 6.4237079934248236 $180 $281 forward 7 unknown #
coedge $-1 $175 $115 $279 $282 forward $184 $-1 #
coedge $-1 $115 $175 $275 $283 reversed $184 $-1 #
loop $-1 $-1 $182 $259 #
vertex $-1 $116 $284 #
vertex $-1 $116 $285 #
straight-curve $-1 6.4237079934248236 0 83.840449232459491 0 1 0 I I #
loop $-1 $-1 $286 $72 #
coedge $-1 $189 $189 $120 $190 reversed $117 $-1 #
edge $-1 $287 0 $287 6.2831853071796004 $189 $288 forward 7 unknown #
vertex $-1 $121 $289 #
ellipse-curve $-1 0 0 -1.6857890560625037 0 0 -1 0.5 0 0 1 I I #
loop $-1 $-1 $290 $77 #
coedge $-1 $194 $194 $125 $195 reversed $122 $-1 #
edge $-1 $291 0 $291 6.2831853071796004 $194 $292 forward 7 unknown #
vertex $-1 $126 $293 #
ellipse-curve $-1 0 0 -1.6857890560625037 0 0 -1 0.5 0 0 1 I I #
loop $-1 $-1 $294 $82 #
coedge $-1 $199 $199 $130 $200 reversed $127 $-1 #
edge $-1 $295 0 $295 6.2831853071796004 $199 $296 forward 7 unknown #
vertex $-1 $131 $297 #
ellipse-curve $-1 0 0 -1.6857890560625037 0 0 -1 0.5 0 0 1 I I #
face $-1 $298 $299 $29 $-1 $300 reversed single #
loop $-1 $-1 $301 $132 #
plane-surface $-1 -6.6985108208904496 0 0 1 0 0 0 0 -1 forward_v I I I I #
coedge $-1 $302 $214 $303 $304 forward $133 $-1 #
coedge $-1 $305 $135 $302 $306 forward $88 $-1 #
coedge $-1 $135 $305 $307 $308 forward $88 $-1 #
coedge $-1 $217 $216 $135 $210 reversed $218 $-1 #
edge $-1 $309 -167.68089846491898 $310 167.68089846491898 $209 $311 forward 7 unknown #
coedge $-1 $137 $136 $312 $313 forward $56 $-1 #
coedge $-1 $314 $315 $136 $213 reversed $299 $-1 #
edge $-1 $220 -6.6985108208904496 $316 6.6985108208904496 $212 $317 forward 7 unknown #
coedge $-1 $206 $318 $137 $215 reversed $133 $-1 #
edge $-1 $319 -6.6985108208904496 $219 6.6985108208904496 $214 $320 forward 7 unknown #
coedge $-1 $209 $138 $318 $321 forward $218 $-1 #
coedge $-1 $138 $209 $314 $322 reversed $218 $-1 #
loop $-1 $-1 $216 $298 #
vertex $-1 $139 $323 #
vertex $-1 $139 $324 #
straight-curve $-1 6.6985108208904496 0 83.840449232459491 0 1 0 I I #
loop $-1 $-1 $325 $91 #
coedge $-1 $223 $223 $143 $224 reversed $140 $-1 #
edge $-1 $326 0 $326 6.2831853071796004 $223 $327 forward 7 unknown #
vertex $-1 $144 $328 #
ellipse-curve $-1 0 0 -3.6951353495895276 0 0 -1 1 0 0 1 I I #
loop $-1 $-1 $329 $96 #
coedge $-1 $228 $228 $148 $229 reversed $145 $-1 #
edge $-1 $330 0 $330 6.2831853071796004 $228 $331 forward 7 unknown #
vertex $-1 $149 $332 #
ellipse-curve $-1 0 0 -3.6951353495895276 0 0 -1 1 0 0 1 I I #
face $-1 $-1 $165 $24 $-1 $333 reversed single #
loop $-1 $-1 $248 $150 #
plane-surface $-1 0 29.144579758899752 0 0 -1 0 0 0 -1 forward_v I I I I #
coedge $-1 $334 $246 $249 $335 forward $151 $-1 #
coedge $-1 $252 $153 $154 $240 reversed $102 $-1 #
coedge $-1 $246 $334 $153 $238 reversed $151 $-1 #
edge $-1 $253 -13.577529968492099 $336 13.577529968492099 $237 $337 forward 7 unknown #
coedge $-1 $155 $154 $334 $338 forward $65 $-1 #
edge $-1 $244 -41.920224616229746 $336 41.920224616229746 $236 $339 forward 7 unknown #
coedge $-1 $249 $248 $155 $242 reversed $233 $-1 #
edge $-1 $340 -41.920224616229746 $243 41.920224616229746 $241 $341 forward 7 unknown #
vertex $-1 $157 $342 #
vertex $-1 $255 $343 #
straight-curve $-1 41.920224616229746 0 -13.577529968492099 0 -1 0 I I #
coedge $-1 $235 $237 $158 $247 reversed $151 $-1 #
edge $-1 $250 -29.144579758899752 $253 29.144579758899752 $246 $344 forward 7 unknown #
coedge $-1 $241 $159 $164 $256 forward $233 $-1 #
coedge $-1 $159 $241 $235 $335 reversed $233 $-1 #
vertex $-1 $160 $345 #
straight-curve $-1 0 29.144579758899752 13.577529968492099 -1 0 0 I I #
coedge $-1 $161 $236 $163 $255 reversed $102 $-1 #
vertex $-1 $247 $346 #
straight-curve $-1 0 -29.144579758899752 13.577529968492099 1 0 0 I I #
edge $-1 $166 -13.577529968492099 $244 13.577529968492099 $163 $347 forward 7 unknown #
edge $-1 $167 -13.577529968492099 $243 13.577529968492099 $164 $348 forward 7 unknown #
point $-1 41.920224616229746 -29.144579758899752 13.577529968492099 #
point $-1 41.920224616229746 29.144579758899752 13.577529968492099 #
face $-1 $-1 $184 $25 $-1 $349 reversed single #
loop $-1 $-1 $275 $169 #
plane-surface $-1 0 167.68089846491898 0 0 -1 0 0 0 -1 forward_v I I I I #
coedge $-1 $350 $273 $276 $351 forward $170 $-1 #
coedge $-1 $279 $172 $173 $267 reversed $110 $-1 #
coedge $-1 $273 $350 $172 $265 reversed $170 $-1 #
edge $-1 $280 -83.840449232459491 $352 83.840449232459491 $264 $353 forward 7 unknown #
coedge $-1 $174 $173 $350 $354 forward $69 $-1 #
edge $-1 $271 -6.4237079934248236 $352 6.4237079934248236 $263 $355 forward 7 unknown #
coedge $-1 $276 $275 $174 $269 reversed $260 $-1 #
edge $-1 $356 -6.4237079934248236 $270 6.4237079934248236 $268 $357 forward 7 unknown #
vertex $-1 $176 $358 #
vertex $-1 $282 $359 #
straight-curve $-1 6.4237079934248236 0 -83.840449232459491 0 -1 0 I I #
coedge $-1 $262 $264 $177 $274 reversed $170 $-1 #
edge $-1 $277 -167.68089846491898 $280 167.68089846491898 $273 $360 forward 7 unknown #
coedge $-1 $268 $178 $183 $283 forward $260 $-1 #
coedge $-1 $178 $268 $262 $351 reversed $260 $-1 #
vertex $-1 $179 $361 #
straight-curve $-1 0 167.68089846491898 83.840449232459491 -1 0 0 I I #
coedge $-1 $180 $263 $182 $282 reversed $110 $-1 #
vertex $-1 $274 $362 #
straight-curve $-1 0 -167.68089846491898 83.840449232459491 1 0 0 I I #
edge $-1 $185 -83.840449232459491 $271 83.840449232459491 $182 $363 forward 7 unknown #
edge $-1 $186 -83.840449232459491 $270 83.840449232459491 $183 $364 forward 7 unknown #
point $-1 6.4237079934248236 -167.68089846491898 83.840449232459491 #
point $-1 6.4237079934248236 167.68089846491898 83.840449232459491 #
coedge $-1 $286 $286 $-1 $365 reversed $188 $-1 #
vertex $-1 $190 $366 #
ellipse-curve $-1 0 0 -0.25 0 0 -1 0.5 0 0 1 I I #
point $-1 0.5 0 -1.6857890560625037 #
coedge $-1 $290 $290 $-1 $367 reversed $193 $-1 #
vertex $-1 $195 $368 #
ellipse-curve $-1 0 0 -0.25 0 0 -1 0.5 0 0 1 I I #
point $-1 0.5 0 -1.6857890560625037 #
coedge $-1 $294 $294 $-1 $369 reversed $198 $-1 #
vertex $-1 $200 $370 #
ellipse-curve $-1 0 0 -0.25 0 0 -1 0.5 0 0 1 I I #
point $-1 0.5 0 -1.6857890560625037 #
face $-1 $-1 $218 $29 $-1 $371 reversed single #
loop $-1 $-1 $314 $203 #
plane-surface $-1 0 167.68089846491898 0 0 -1 0 0 0 -1 forward_v I I I I #
coedge $-1 $372 $312 $315 $373 forward $204 $-1 #
coedge $-1 $318 $206 $207 $306 reversed $133 $-1 #
coedge $-1 $312 $372 $206 $304 reversed $204 $-1 #
edge $-1 $319 -83.840449232459491 $374 83.840449232459491 $303 $375 forward 7 unknown #
coedge $-1 $208 $207 $372 $376 forward $88 $-1 #
edge $-1 $310 -6.6985108208904496 $374 6.6985108208904496 $302 $377 forward 7 unknown #
coedge $-1 $315 $314 $208 $308 reversed $299 $-1 #
edge $-1 $378 -6.6985108208904496 $309 6.6985108208904496 $307 $379 forward 7 unknown #
vertex $-1 $210 $380 #
vertex $-1 $321 $381 #
straight-curve $-1 6.6985108208904496 0 -83.840449232459491 0 -1 0 I I #
coedge $-1 $301 $303 $211 $313 reversed $204 $-1 #
edge $-1 $316 -167.68089846491898 $319 167.68089846491898 $312 $382 forward 7 unknown #
coedge $-1 $307 $212 $217 $322 forward $299 $-1 #
coedge $-1 $212 $307 $301 $373 reversed $299 $-1 #
vertex $-1 $213 $383 #
straight-curve $-1 0 167.68089846491898 83.840449232459491 -1 0 0 I I #
coedge $-1 $214 $302 $216 $321 reversed $133 $-1 #
vertex $-1 $313 $384 #
straight-curve $-1 0 -167.68089846491898 83.840449232459491 1 0 0 I I #
edge $-1 $219 -83.840449232459491 $310 83.840449232459491 $216 $385 forward 7 unknown #
edge $-1 $220 -83.840449232459491 $309 83.840449232459491 $217 $386 forward 7 unknown #
point $-1 6.6985108208904496 -167.68089846491898 83.840449232459491 #
point $-1 6.6985108208904496 167.68089846491898 83.840449232459491 #
coedge $-1 $325 $325 $-1 $387 reversed $222 $-1 #
vertex $-1 $224 $388 #
ellipse-curve $-1 0 0 -0.49999999999999911 0 0 -1 1 0 0 1 I I #
point $-1 1 0 -3.6951353495895276 #
coedge $-1 $329 $329 $-1 $389 reversed $227 $-1 #
vertex $-1 $229 $390 #
ellipse-curve $-1 0 0 -0.49999999999999911 0 0 -1 1 0 0 1 I I #
point $-1 1 0 -3.6951353495895276 #
plane-surface $-1 41.920224616229746 0 0 -1 0 0 0 0 1 forward_v I I I I #
coedge $-1 $237 $235 $239 $338 reversed $151 $-1 #
edge $-1 $250 -13.577529968492099 $340 13.577529968492099 $249 $391 forward 7 unknown #
vertex $-1 $338 $392 #
straight-curve $-1 -41.920224616229746 -29.144579758899752 0 0 0 -1 I I #
edge $-1 $336 -29.144579758899752 $340 29.144579758899752 $334 $393 forward 7 unknown #
straight-curve $-1 0 -29.144579758899752 -13.577529968492099 -1 0 0 I I #
vertex $-1 $242 $394 #
straight-curve $-1 0 29.144579758899752 -13.577529968492099 1 0 0 I I #
point $-1 41.920224616229746 29.144579758899752 -13.577529968492099 #
point $-1 41.920224616229746 -29.144579758899752 -13.577529968492099 #
straight-curve $-1 -41.920224616229746 0 13.577529968492099 0 -1 0 I I #
point $-1 -41.920224616229746 29.144579758899752 13.577529968492099 #
point $-1 -41.920224616229746 -29.144579758899752 13.577529968492099 #
straight-curve $-1 41.920224616229746 -29.144579758899752 0 0 0 -1 I I #
straight-curve $-1 41.920224616229746 29.144579758899752 0 0 0 -1 I I #
plane-surface $-1 6.4237079934248236 0 0 -1 0 0 0 0 1 forward_v I I I I #
coedge $-1 $264 $262 $266 $354 reversed $170 $-1 #
edge $-1 $277 -83.840449232459491 $356 83.840449232459491 $276 $395 forward 7 unknown #
vertex $-1 $354 $396 #
straight-curve $-1 -6.4237079934248236 -167.68089846491898 0 0 0 -1 I I #
edge $-1 $352 -167.68089846491898 $356 167.68089846491898 $350 $397 forward 7 unknown #
straight-curve $-1 0 -167.68089846491898 -83.840449232459491 -1 0 0 I I #
vertex $-1 $269 $398 #
straight-curve $-1 0 167.68089846491898 -83.840449232459491 1 0 0 I I #
point $-1 6.4237079934248236 167.68089846491898 -83.840449232459491 #
point $-1 6.4237079934248236 -167.68089846491898 -83.840449232459491 #
straight-curve $-1 -6.4237079934248236 0 83.840449232459491 0 -1 0 I I #
point $-1 -6.4237079934248236 167.68089846491898 83.840449232459491 #
point $-1 -6.4237079934248236 -167.68089846491898 83.840449232459491 #
straight-curve $-1 6.4237079934248236 -167.68089846491898 0 0 0 -1 I I #
straight-curve $-1 6.4237079934248236 167.68089846491898 0 0 0 -1 I I #
edge $-1 $399 1 $399 0 $286 $-1 forward 7 unknown #
point $-1 0.5 0 -0.25 #
edge $-1 $400 1 $400 0 $290 $-1 forward 7 unknown #
point $-1 0.5 0 -0.25 #
edge $-1 $401 1 $401 0 $294 $-1 forward 7 unknown #
point $-1 0.5 0 -0.25 #
plane-surface $-1 6.6985108208904496 0 0 -1 0 0 0 0 1 forward_v I I I I #
coedge $-1 $303 $301 $305 $376 reversed $204 $-1 #
edge $-1 $316 -83.840449232459491 $378 83.840449232459491 $315 $402 forward 7 unknown #
vertex $-1 $376 $403 #
straight-curve $-1 -6.6985108208904496 -167.68089846491898 0 0 0 -1 I I #
edge $-1 $374 -167.68089846491898 $378 167.68089846491898 $372 $404 forward 7 unknown #
straight-curve $-1 0 -167.68089846491898 -83.840449232459491 -1 0 0 I I #
vertex $-1 $308 $405 #
straight-curve $-1 0 167.68089846491898 -83.840449232459491 1 0 0 I I #
point $-1 6.6985108208904496 167.68089846491898 -83.840449232459491 #
point $-1 6.6985108208904496 -167.68089846491898 -83.840449232459491 #
straight-curve $-1 -6.6985108208904496 0 83.840449232459491 0 -1 0 I I #
point $-1 -6.6985108208904496 167.68089846491898 83.840449232459491 #
point $-1 -6.6985108208904496 -167.68089846491898 83.840449232459491 #
straight-curve $-1 6.6985108208904496 -167.68089846491898 0 0 0 -1 I I #
straight-curve $-1 6.6985108208904496 167.68089846491898 0 0 0 -1 I I #
edge $-1 $406 1 $406 0 $325 $-1 forward 7 unknown #
point $-1 1 0 -0.49999999999999911 #
edge $-1 $407 1 $407 0 $329 $-1 forward 7 unknown #
point $-1 1 0 -0.49999999999999911 #
straight-curve $-1 -41.920224616229746 29.144579758899752 0 0 0 -1 I I #
point $-1 -41.920224616229746 -29.144579758899752 -13.577529968492099 #
straight-curve $-1 -41.920224616229746 0 -13.577529968492099 0 1 0 I I #
point $-1 -41.920224616229746 29.144579758899752 -13.577529968492099 #
straight-curve $-1 -6.4237079934248236 167.68089846491898 0 0 0 -1 I I #
point $-1 -6.4237079934248236 -167.68089846491898 -83.840449232459491 #
straight-curve $-1 -6.4237079934248236 0 -83.840449232459491 0 1 0 I I #
point $-1 -6.4237079934248236 167.68089846491898 -83.840449232459491 #
vertex $-1 $365 $408 #
vertex $-1 $367 $409 #
vertex $-1 $369 $410 #
straight-curve $-1 -6.6985108208904496 167.68089846491898 0 0 0 -1 I I #
point $-1 -6.6985108208904496 -167.68089846491898 -83.840449232459491 #
straight-curve $-1 -6.6985108208904496 0 -83.840449232459491 0 1 0 I I #
point $-1 -6.6985108208904496 167.68089846491898 -83.840449232459491 #
vertex $-1 $387 $411 #
vertex $-1 $389 $412 #
point $-1 0 0 0.25 #
point $-1 0 0 0.25 #
point $-1 0 0 0.25 #
point $-1 0 0 0.49999999999999911 #
point $-1 0 0 0.49999999999999911 #
End-of-ACIS-data 