500 0 7 0           
7 Unknown 11 ACIS 5.0 NT 24 Fri Mar 26 19:10:09 1999 
-1 9.9999999999999995e-007 1e-010 
body $-1 $7 $-1 $8 #
body $-1 $9 $-1 $10 #
body $-1 $11 $-1 $12 #
body $-1 $13 $-1 $14 #
body $-1 $15 $-1 $16 #
body $-1 $17 $-1 $18 #
body $-1 $19 $-1 $20 #
lump $-1 $-1 $21 $0 #
transform $-1 1 0 0 0 1 0 0 0 1 42.995696890163885 29.502577267029501 10.799274033515587 1 rotate no_reflect no_shear #
lump $-1 $-1 $22 $1 #
transform $-1 1 0 0 0 1 0 0 0 1 42.995696890163885 29.502577267029501 10.799274033515587 1 rotate no_reflect no_shear #
lump $-1 $-1 $23 $2 #
transform $-1 1 0 0 0 1 0 0 0 1 42.995696890163885 29.502577267029501 10.799274033515587 1 rotate no_reflect no_shear #
lump $-1 $-1 $24 $3 #
transform $-1 1 0 0 0 1 0 0 0 1 42.995696890163885 29.502577267029501 10.799274033515587 1 rotate no_reflect no_shear #
lump $-1 $-1 $25 $4 #
transform $-1 1 0 0 0 1 0 0 0 1 42.995696890163885 29.502577267029501 10.799274033515587 1 rotate no_reflect no_shear #
lump $-1 $-1 $26 $5 #
transform $-1 1 0 0 0 1 0 0 0 1 42.995696890163885 29.502577267029501 10.799274033515587 1 rotate no_reflect no_shear #
lump $-1 $-1 $27 $6 #
transform $-1 1 0 0 0 1 0 0 0 1 42.995696890163885 29.502577267029501 10.799274033515587 1 rotate no_reflect no_shear #
shell $-1 $-1 $-1 $28 $-1 $7 #
shell $-1 $-1 $-1 $29 $-1 $9 #
shell $-1 $-1 $-1 $30 $-1 $11 #
shell $-1 $-1 $-1 $31 $-1 $13 #
shell $-1 $-1 $-1 $32 $-1 $15 #
shell $-1 $-1 $-1 $33 $-1 $17 #
shell $-1 $-1 $-1 $34 $-1 $19 #
face $-1 $35 $36 $21 $-1 $37 forward single #
face $-1 $38 $39 $22 $-1 $40 forward single #
face $-1 $41 $42 $23 $-1 $43 forward single #
face $-1 $44 $45 $24 $-1 $46 reversed single #
face $-1 $47 $48 $25 $-1 $49 forward single #
face $-1 $50 $51 $26 $-1 $52 forward single #
face $-1 $53 $54 $27 $-1 $55 forward single #
face $-1 $56 $57 $21 $-1 $58 reversed single #
loop $-1 $-1 $59 $28 #
plane-surface $-1 0 0 10.799274033515587 0 0 1 1 0 0 forward_v I I I I #
face $-1 $60 $61 $22 $-1 $62 reversed single #
loop $-1 $-1 $63 $29 #
plane-surface $-1 0 -25.78165768734782 -6.586545356761448 0 0 1 1 0 0 forward_v I I I I #
face $-1 $64 $65 $23 $-1 $66 reversed single #
loop $-1 $-1 $67 $30 #
plane-surface $-1 0 25.781657687347824 -6.586545356761448 0 0 1 1 0 0 forward_v I I I I #
face $-1 $68 $69 $24 $-1 $70 reversed single #
loop $-1 $-1 $71 $31 #
plane-surface $-1 -98.269900031210312 -8.2629210172841709 69.875810417670181 0 -1 0 0.64278761758704617 0 -0.76604443648966558 forward_v I I I I #
face $-1 $72 $73 $25 $-1 $74 forward single #
loop $-1 $75 $76 $32 #
cone-surface $-1 -38.624311869143789 -17.431067344610138 7.0179056116419938 0.64278761758704617 0 -0.76604443648966558 0.38302221824483279 0 0.32139380879352308 1 I I 0 1 0.5 forward I I I I #
face $-1 $77 $78 $26 $-1 $79 forward single #
loop $-1 $80 $81 $33 #
cone-surface $-1 -38.624311869143789 -13.993012471862901 7.0179056116419938 0.64278761758704617 0 -0.76604443648966558 0.38302221824483279 0 0.32139380879352308 1 I I 0 1 0.5 forward I I I I #
face $-1 $82 $83 $27 $-1 $84 forward single #
loop $-1 $85 $86 $34 #
cone-surface $-1 -38.624311869143789 -10.554957599115664 7.0179056116419938 0.64278761758704617 0 -0.76604443648966558 0.38302221824483279 0 0.32139380879352308 1 I I 0 1 0.5 forward I I I I #
face $-1 $87 $88 $21 $-1 $89 reversed single #
loop $-1 $-1 $90 $35 #
plane-surface $-1 0 0 -10.799274033515587 0 0 1 1 0 0 forward_v I I I I #
coedge $-1 $91 $92 $93 $94 forward $36 $-1 #
face $-1 $95 $96 $22 $-1 $97 reversed single #
loop $-1 $-1 $98 $38 #
plane-surface $-1 0 -22.06073810766614 -8.6929096951385176 0 -1 0 0 0 -1 forward_v I I I I #
coedge $-1 $99 $100 $101 $102 reversed $39 $-1 #
face $-1 $103 $104 $23 $-1 $105 reversed single #
loop $-1 $-1 $106 $41 #
plane-surface $-1 0 22.060738107666143 -8.6929096951385176 0 1 0 0 0 1 forward_v I I I I #
coedge $-1 $107 $108 $109 $110 reversed $42 $-1 #
face $-1 $111 $112 $24 $-1 $113 reversed single #
loop $-1 $-1 $114 $44 #
plane-surface $-1 -42.995696890163885 -13.993012471862901 4.0025816262580634 -0.64278761758704617 0 0.76604443648966558 0.76604443648966558 0 0.64278761758704617 forward_v I I I I #
coedge $-1 $115 $116 $117 $118 reversed $45 $-1 #
face $-1 $-1 $119 $25 $-1 $120 forward single #
loop $-1 $121 $122 $47 #
cone-surface $-1 -38.142221155953507 -17.431067344610138 6.4433722842747443 0.64278761758704617 0 -0.76604443648966558 0.1915111091224164 0 0.16069690439676154 1 I I -0.70710678118654746 0.70710678118654746 0.25 forward I I I I #
loop $-1 $-1 $123 $32 #
coedge $-1 $76 $76 $124 $125 reversed $48 $-1 #
face $-1 $-1 $126 $26 $-1 $127 forward single #
loop $-1 $128 $129 $50 #
cone-surface $-1 -38.142221155953507 -13.993012471862901 6.4433722842747443 0.64278761758704617 0 -0.76604443648966558 0.1915111091224164 0 0.16069690439676154 1 I I -0.70710678118654746 0.70710678118654746 0.25 forward I I I I #
loop $-1 $-1 $130 $33 #
coedge $-1 $81 $81 $131 $132 reversed $51 $-1 #
face $-1 $-1 $133 $27 $-1 $134 forward single #
loop $-1 $135 $136 $53 #
cone-surface $-1 -38.142221155953507 -10.554957599115664 6.4433722842747443 0.64278761758704617 0 -0.76604443648966558 0.1915111091224164 0 0.16069690439676154 1 I I -0.70710678118654746 0.70710678118654746 0.25 forward I I I I #
loop $-1 $-1 $137 $34 #
coedge $-1 $86 $86 $138 $139 reversed $54 $-1 #
face $-1 $140 $141 $21 $-1 $142 reversed single #
loop $-1 $-1 $143 $56 #
plane-surface $-1 0 -29.502577267029501 0 0 1 0 0 0 1 forward_v I I I I #
coedge $-1 $144 $145 $146 $147 forward $57 $-1 #
coedge $-1 $148 $59 $149 $150 forward $36 $-1 #
coedge $-1 $59 $148 $151 $152 forward $36 $-1 #
coedge $-1 $153 $154 $59 $94 reversed $155 $-1 #
edge $-1 $156 -29.502577267029501 $157 29.502577267029501 $93 $158 forward 7 unknown #
face $-1 $159 $160 $22 $-1 $161 reversed single #
loop $-1 $-1 $162 $60 #
plane-surface $-1 0 0 -10.799274033515587 0 0 1 1 0 0 forward_v I I I I #
coedge $-1 $163 $164 $165 $166 reversed $61 $-1 #
coedge $-1 $167 $63 $164 $168 forward $39 $-1 #
coedge $-1 $63 $167 $169 $170 reversed $39 $-1 #
coedge $-1 $171 $165 $63 $102 forward $160 $-1 #
edge $-1 $172 9.1699092639922295 $173 16.611748423355593 $101 $174 forward 7 unknown #
face $-1 $175 $176 $23 $-1 $177 reversed single #
loop $-1 $-1 $109 $64 #
plane-surface $-1 42.995696890163885 0 0 -1 0 0 0 0 1 forward_v I I I I #
coedge $-1 $178 $179 $180 $181 reversed $65 $-1 #
coedge $-1 $182 $67 $183 $184 reversed $42 $-1 #
coedge $-1 $67 $182 $179 $185 forward $42 $-1 #
coedge $-1 $186 $187 $67 $110 forward $104 $-1 #
edge $-1 $188 -16.611748423355593 $189 -9.1699092639922313 $109 $190 forward 7 unknown #
face $-1 $191 $192 $24 $-1 $193 reversed single #
loop $-1 $-1 $194 $68 #
plane-surface $-1 -98.269900031210312 -19.723103926441631 69.875810417670181 0 1 0 -0.64278761758704617 0 0.76604443648966558 forward_v I I I I #
coedge $-1 $195 $196 $197 $198 reversed $69 $-1 #
coedge $-1 $116 $71 $199 $200 reversed $45 $-1 #
coedge $-1 $71 $115 $195 $201 reversed $45 $-1 #
coedge $-1 $197 $202 $71 $118 forward $192 $-1 #
edge $-1 $203 24.138631175319503 $204 30.935323582577027 $117 $205 forward 7 unknown #
loop $-1 $-1 $124 $72 #
plane-surface $-1 -42.995696890163885 -13.993012471862901 4.0025816262580634 -0.64278761758704617 0 0.76604443648966558 0.76604443648966558 0 0.64278761758704617 forward_v I I I I #
loop $-1 $-1 $206 $47 #
coedge $-1 $122 $122 $123 $207 reversed $73 $-1 #
coedge $-1 $123 $123 $122 $207 forward $75 $-1 #
coedge $-1 $124 $124 $76 $125 forward $119 $-1 #
edge $-1 $208 0 $208 6.2831853071796004 $124 $209 forward 7 unknown #
loop $-1 $-1 $131 $77 #
plane-surface $-1 -42.995696890163885 -13.993012471862901 4.0025816262580634 -0.64278761758704617 0 0.76604443648966558 0.76604443648966558 0 0.64278761758704617 forward_v I I I I #
loop $-1 $-1 $210 $50 #
coedge $-1 $129 $129 $130 $211 reversed $78 $-1 #
coedge $-1 $130 $130 $129 $211 forward $80 $-1 #
coedge $-1 $131 $131 $81 $132 forward $126 $-1 #
edge $-1 $212 0 $212 6.2831853071796004 $131 $213 forward 7 unknown #
loop $-1 $-1 $138 $82 #
plane-surface $-1 -42.995696890163885 -13.993012471862901 4.0025816262580634 -0.64278761758704617 0 0.76604443648966558 0.76604443648966558 0 0.64278761758704617 forward_v I I I I #
loop $-1 $-1 $214 $53 #
coedge $-1 $136 $136 $137 $215 reversed $83 $-1 #
coedge $-1 $137 $137 $136 $215 forward $85 $-1 #
coedge $-1 $138 $138 $86 $139 forward $133 $-1 #
edge $-1 $216 0 $216 6.2831853071796004 $138 $217 forward 7 unknown #
face $-1 $218 $219 $21 $-1 $220 reversed single #
loop $-1 $-1 $221 $87 #
plane-surface $-1 -42.995696890163885 0 0 1 0 0 0 0 -1 forward_v I I I I #
coedge $-1 $222 $151 $223 $224 forward $88 $-1 #
coedge $-1 $225 $90 $222 $226 forward $57 $-1 #
coedge $-1 $90 $225 $227 $228 forward $57 $-1 #
coedge $-1 $154 $153 $90 $147 reversed $155 $-1 #
edge $-1 $229 -29.502577267029501 $230 29.502577267029501 $146 $231 forward 7 unknown #
coedge $-1 $92 $91 $232 $233 forward $36 $-1 #
coedge $-1 $234 $235 $91 $150 reversed $219 $-1 #
edge $-1 $157 -42.995696890163885 $236 42.995696890163885 $149 $237 forward 7 unknown #
coedge $-1 $143 $238 $92 $152 reversed $88 $-1 #
edge $-1 $239 -42.995696890163885 $156 42.995696890163885 $151 $240 forward 7 unknown #
coedge $-1 $146 $93 $238 $241 forward $155 $-1 #
coedge $-1 $93 $146 $234 $242 reversed $155 $-1 #
loop $-1 $-1 $153 $218 #
vertex $-1 $94 $243 #
vertex $-1 $94 $244 #
straight-curve $-1 42.995696890163885 0 10.799274033515587 0 1 0 I I #
face $-1 $245 $246 $22 $-1 $247 reversed single #
loop $-1 $-1 $165 $95 #
plane-surface $-1 42.995696890163885 0 0 -1 0 0 0 0 1 forward_v I I I I #
coedge $-1 $248 $249 $163 $250 forward $96 $-1 #
coedge $-1 $251 $98 $162 $250 reversed $61 $-1 #
coedge $-1 $98 $251 $99 $168 reversed $61 $-1 #
coedge $-1 $101 $252 $98 $166 forward $160 $-1 #
edge $-1 $253 -6.4528191859463284 $172 -2.2400905091921892 $165 $254 forward 7 unknown #
coedge $-1 $100 $99 $255 $256 reversed $39 $-1 #
edge $-1 $172 -42.995696890163885 $257 42.995696890163885 $164 $258 forward 7 unknown #
coedge $-1 $259 $260 $100 $170 forward $246 $-1 #
edge $-1 $173 -42.995696890163885 $261 42.995696890163885 $169 $262 forward 7 unknown #
coedge $-1 $252 $101 $260 $263 forward $160 $-1 #
vertex $-1 $102 $264 #
vertex $-1 $263 $265 #
straight-curve $-1 42.995696890163885 -12.89082884367391 -6.586545356761448 0 -1 0 I I #
face $-1 $266 $267 $23 $-1 $268 reversed single #
loop $-1 $-1 $269 $103 #
plane-surface $-1 0 0 -10.799274033515587 0 0 1 1 0 0 forward_v I I I I #
coedge $-1 $270 $106 $269 $271 reversed $65 $-1 #
coedge $-1 $106 $270 $108 $185 reversed $65 $-1 #
coedge $-1 $272 $273 $106 $181 forward $267 $-1 #
edge $-1 $274 -6.4528191859463284 $275 -2.2400905091921892 $180 $276 forward 7 unknown #
coedge $-1 $108 $107 $272 $277 reversed $42 $-1 #
coedge $-1 $278 $279 $107 $184 forward $280 $-1 #
edge $-1 $281 -42.995696890163885 $188 42.995696890163885 $183 $282 forward 7 unknown #
edge $-1 $275 -42.995696890163885 $189 42.995696890163885 $179 $283 forward 7 unknown #
coedge $-1 $284 $109 $270 $285 forward $104 $-1 #
coedge $-1 $109 $284 $278 $286 reversed $104 $-1 #
vertex $-1 $286 $287 #
vertex $-1 $110 $288 #
straight-curve $-1 42.995696890163885 12.890828843673912 -6.586545356761448 0 -1 0 I I #
face $-1 $-1 $289 $24 $-1 $290 forward single #
loop $-1 $-1 $117 $111 #
plane-surface $-1 -42.995696890163885 0 0 1 0 0 0 0 -1 forward_v I I I I #
coedge $-1 $291 $292 $293 $294 reversed $112 $-1 #
coedge $-1 $295 $114 $116 $201 forward $69 $-1 #
coedge $-1 $114 $295 $291 $296 forward $69 $-1 #
coedge $-1 $293 $117 $114 $198 forward $192 $-1 #
edge $-1 $204 1.2664147813527205 $297 12.726597690510181 $197 $298 forward 7 unknown #
coedge $-1 $299 $300 $115 $200 forward $289 $-1 #
edge $-1 $301 -14.23923554989441 $203 -6.1392531254412717 $199 $302 forward 7 unknown #
edge $-1 $204 0 $301 10.573776191849429 $116 $303 forward 7 unknown #
coedge $-1 $117 $293 $299 $304 reversed $192 $-1 #
vertex $-1 $304 $305 #
vertex $-1 $118 $306 #
straight-curve $-1 -42.995696890163885 -8.2629210172841709 34.93790520883509 0 0 -1 I I #
coedge $-1 $206 $206 $-1 $307 reversed $121 $-1 #
edge $-1 $308 0 $308 6.2831853071796004 $122 $309 forward 7 unknown #
vertex $-1 $125 $310 #
ellipse-curve $-1 -38.945705677937312 -17.431067344610138 7.400927829886828 -0.64278761758704617 0 0.76604443648966558 0.38302221824483279 0 0.32139380879352308 1 I I #
coedge $-1 $210 $210 $-1 $311 reversed $128 $-1 #
edge $-1 $312 0 $312 6.2831853071796004 $129 $313 forward 7 unknown #
vertex $-1 $132 $314 #
ellipse-curve $-1 -38.945705677937312 -13.993012471862901 7.400927829886828 -0.64278761758704617 0 0.76604443648966558 0.38302221824483279 0 0.32139380879352308 1 I I #
coedge $-1 $214 $214 $-1 $315 reversed $135 $-1 #
edge $-1 $316 0 $316 6.2831853071796004 $136 $317 forward 7 unknown #
vertex $-1 $139 $318 #
ellipse-curve $-1 -38.945705677937312 -10.554957599115664 7.400927829886828 -0.64278761758704617 0 0.76604443648966558 0.38302221824483279 0 0.32139380879352308 1 I I #
face $-1 $-1 $155 $21 $-1 $319 reversed single #
loop $-1 $-1 $234 $140 #
plane-surface $-1 0 29.502577267029501 0 0 -1 0 0 0 -1 forward_v I I I I #
coedge $-1 $320 $232 $235 $321 forward $141 $-1 #
coedge $-1 $238 $143 $144 $226 reversed $88 $-1 #
coedge $-1 $232 $320 $143 $224 reversed $141 $-1 #
edge $-1 $239 -10.799274033515587 $322 10.799274033515587 $223 $323 forward 7 unknown #
coedge $-1 $145 $144 $320 $324 forward $57 $-1 #
edge $-1 $230 -42.995696890163885 $322 42.995696890163885 $222 $325 forward 7 unknown #
coedge $-1 $235 $234 $145 $228 reversed $219 $-1 #
edge $-1 $326 -42.995696890163885 $229 42.995696890163885 $227 $327 forward 7 unknown #
vertex $-1 $147 $328 #
vertex $-1 $241 $329 #
straight-curve $-1 42.995696890163885 0 -10.799274033515587 0 -1 0 I I #
coedge $-1 $221 $223 $148 $233 reversed $141 $-1 #
edge $-1 $236 -29.502577267029501 $239 29.502577267029501 $232 $330 forward 7 unknown #
coedge $-1 $227 $149 $154 $242 forward $219 $-1 #
coedge $-1 $149 $227 $221 $321 reversed $219 $-1 #
vertex $-1 $150 $331 #
straight-curve $-1 0 29.502577267029501 10.799274033515587 -1 0 0 I I #
coedge $-1 $151 $222 $153 $241 reversed $88 $-1 #
vertex $-1 $233 $332 #
straight-curve $-1 0 -29.502577267029501 10.799274033515587 1 0 0 I I #
edge $-1 $156 -10.799274033515587 $230 10.799274033515587 $153 $333 forward 7 unknown #
edge $-1 $157 -10.799274033515587 $229 10.799274033515587 $154 $334 forward 7 unknown #
point $-1 42.995696890163885 -29.502577267029501 10.799274033515587 #
point $-1 42.995696890163885 29.502577267029501 10.799274033515587 #
face $-1 $-1 $335 $22 $-1 $336 reversed single #
loop $-1 $-1 $169 $159 #
plane-surface $-1 0 -29.502577267029501 0 0 1 0 0 0 1 forward_v I I I I #
coedge $-1 $337 $162 $252 $338 forward $96 $-1 #
coedge $-1 $162 $337 $339 $340 forward $96 $-1 #
edge $-1 $341 -42.995696890163885 $253 42.995696890163885 $162 $342 forward 7 unknown #
coedge $-1 $164 $163 $343 $344 reversed $61 $-1 #
coedge $-1 $165 $171 $248 $338 reversed $160 $-1 #
vertex $-1 $338 $345 #
straight-curve $-1 42.995696890163885 -22.06073810766614 -4.3464548475692588 0 0 1 I I #
coedge $-1 $343 $346 $167 $256 forward $335 $-1 #
edge $-1 $261 -16.611748423355593 $257 -9.1699092639922295 $255 $347 forward 7 unknown #
vertex $-1 $256 $348 #
straight-curve $-1 0 -22.06073810766614 -6.586545356761448 -1 0 0 I I #
coedge $-1 $349 $169 $346 $350 forward $246 $-1 #
coedge $-1 $169 $349 $171 $263 reversed $246 $-1 #
vertex $-1 $350 $351 #
straight-curve $-1 0 -29.502577267029501 -6.586545356761448 -1 0 0 I I #
edge $-1 $173 6.586545356761448 $352 10.799274033515587 $171 $353 forward 7 unknown #
point $-1 42.995696890163885 -22.06073810766614 -6.586545356761448 #
point $-1 42.995696890163885 -29.502577267029501 -6.586545356761448 #
face $-1 $-1 $280 $23 $-1 $354 reversed single #
loop $-1 $-1 $272 $175 #
plane-surface $-1 -42.995696890163885 0 0 1 0 0 0 0 -1 forward_v I I I I #
coedge $-1 $355 $356 $178 $271 forward $176 $-1 #
coedge $-1 $179 $178 $186 $285 reversed $65 $-1 #
edge $-1 $357 -42.995696890163885 $274 42.995696890163885 $269 $358 forward 7 unknown #
coedge $-1 $359 $180 $182 $277 forward $267 $-1 #
coedge $-1 $180 $359 $355 $360 reversed $267 $-1 #
vertex $-1 $360 $361 #
vertex $-1 $277 $362 #
straight-curve $-1 -42.995696890163885 22.060738107666143 -4.3464548475692588 0 0 1 I I #
edge $-1 $275 9.1699092639922313 $281 16.611748423355593 $272 $363 forward 7 unknown #
coedge $-1 $364 $183 $187 $286 forward $280 $-1 #
coedge $-1 $183 $364 $359 $365 reversed $280 $-1 #
loop $-1 $-1 $183 $266 #
vertex $-1 $365 $366 #
straight-curve $-1 0 29.502577267029501 -6.586545356761448 1 0 0 I I #
straight-curve $-1 0 22.060738107666143 -6.586545356761448 1 0 0 I I #
coedge $-1 $187 $186 $356 $367 reversed $104 $-1 #
edge $-1 $189 2.2400905091921892 $357 6.4528191859463284 $186 $368 forward 7 unknown #
edge $-1 $188 6.586545356761448 $369 10.799274033515587 $187 $370 forward 7 unknown #
point $-1 42.995696890163885 29.502577267029505 -6.586545356761448 #
point $-1 42.995696890163885 22.060738107666143 -6.586545356761448 #
loop $-1 $-1 $199 $191 #
plane-surface $-1 0 0 10.799274033515587 0 0 1 1 0 0 forward_v I I I I #
coedge $-1 $292 $194 $196 $296 reversed $112 $-1 #
coedge $-1 $194 $291 $371 $372 reversed $112 $-1 #
coedge $-1 $202 $197 $194 $294 forward $192 $-1 #
edge $-1 $297 -30.935323582577027 $373 -24.138631175319503 $293 $374 forward 7 unknown #
coedge $-1 $196 $195 $300 $375 reversed $69 $-1 #
edge $-1 $376 -10.573776191849429 $297 0 $291 $377 forward 7 unknown #
vertex $-1 $198 $378 #
straight-curve $-1 -42.995696890163885 -6.9965062359314505 4.0025816262580634 0 -1 0 I I #
coedge $-1 $371 $199 $202 $304 forward $289 $-1 #
coedge $-1 $199 $371 $295 $375 forward $289 $-1 #
vertex $-1 $200 $379 #
straight-curve $-1 -49.134950015605156 -8.2629210172841709 10.799274033515587 -1 0 0 I I #
straight-curve $-1 -42.995696890163885 -8.2629210172841709 4.0025816262580634 0.76604443648966558 0 0.64278761758704617 I I #
edge $-1 $203 8.2629210172841709 $373 19.723103926441631 $202 $380 forward 7 unknown #
point $-1 -42.995696890163885 -8.2629210172841709 10.799274033515587 #
point $-1 -42.995696890163885 -8.2629210172841709 4.0025816262580634 #
edge $-1 $381 1 $381 0 $206 $-1 forward 7 unknown #
vertex $-1 $207 $382 #
ellipse-curve $-1 -38.302918060350265 -17.431067344610138 6.6348833933971605 -0.64278761758704617 0 0.76604443648966558 0.38302221824483279 0 0.32139380879352308 1 I I #
point $-1 -38.562683459692479 -17.431067344610138 7.7223216386803495 #
edge $-1 $383 1 $383 0 $210 $-1 forward 7 unknown #
vertex $-1 $211 $384 #
ellipse-curve $-1 -38.302918060350265 -13.993012471862901 6.6348833933971605 -0.64278761758704617 0 0.76604443648966558 0.38302221824483279 0 0.32139380879352308 1 I I #
point $-1 -38.562683459692479 -13.993012471862901 7.7223216386803495 #
edge $-1 $385 1 $385 0 $214 $-1 forward 7 unknown #
vertex $-1 $215 $386 #
ellipse-curve $-1 -38.302918060350265 -10.554957599115664 6.6348833933971605 -0.64278761758704617 0 0.76604443648966558 0.38302221824483279 0 0.32139380879352308 1 I I #
point $-1 -38.562683459692479 -10.554957599115664 7.7223216386803495 #
plane-surface $-1 42.995696890163885 0 0 -1 0 0 0 0 1 forward_v I I I I #
coedge $-1 $223 $221 $225 $324 reversed $141 $-1 #
edge $-1 $236 -10.799274033515587 $326 10.799274033515587 $235 $387 forward 7 unknown #
vertex $-1 $324 $388 #
straight-curve $-1 -42.995696890163885 -29.502577267029501 0 0 0 -1 I I #
edge $-1 $322 -29.502577267029501 $326 29.502577267029501 $320 $389 forward 7 unknown #
straight-curve $-1 0 -29.502577267029501 -10.799274033515587 -1 0 0 I I #
vertex $-1 $228 $390 #
straight-curve $-1 0 29.502577267029501 -10.799274033515587 1 0 0 I I #
point $-1 42.995696890163885 29.502577267029501 -10.799274033515587 #
point $-1 42.995696890163885 -29.502577267029501 -10.799274033515587 #
straight-curve $-1 -42.995696890163885 0 10.799274033515587 0 -1 0 I I #
point $-1 -42.995696890163885 29.502577267029501 10.799274033515587 #
point $-1 -42.995696890163885 -29.502577267029501 10.799274033515587 #
straight-curve $-1 42.995696890163885 -29.502577267029501 0 0 0 -1 I I #
straight-curve $-1 42.995696890163885 29.502577267029501 0 0 0 -1 I I #
loop $-1 $-1 $343 $245 #
plane-surface $-1 -42.995696890163885 0 0 1 0 0 0 0 -1 forward_v I I I I #
coedge $-1 $249 $248 $349 $391 forward $96 $-1 #
edge $-1 $253 22.06073810766614 $352 29.502577267029501 $252 $392 forward 7 unknown #
coedge $-1 $346 $343 $249 $340 reversed $335 $-1 #
edge $-1 $393 -29.502577267029501 $341 -22.06073810766614 $339 $394 forward 7 unknown #
vertex $-1 $344 $395 #
straight-curve $-1 0 -22.06073810766614 -10.799274033515587 1 0 0 I I #
coedge $-1 $339 $255 $251 $344 forward $335 $-1 #
edge $-1 $257 2.2400905091921892 $341 6.4528191859463284 $343 $396 forward 7 unknown #
point $-1 42.995696890163885 -22.06073810766614 -10.799274033515587 #
coedge $-1 $255 $339 $259 $350 reversed $335 $-1 #
straight-curve $-1 -42.995696890163885 -12.89082884367391 -6.586545356761448 0 1 0 I I #
point $-1 -42.995696890163885 -22.06073810766614 -6.586545356761448 #
coedge $-1 $260 $259 $337 $391 reversed $246 $-1 #
edge $-1 $261 6.586545356761448 $393 10.799274033515587 $346 $397 forward 7 unknown #
point $-1 -42.995696890163885 -29.502577267029501 -6.586545356761448 #
vertex $-1 $263 $398 #
straight-curve $-1 42.995696890163885 -29.502577267029501 0 0 0 -1 I I #
plane-surface $-1 0 29.502577267029501 0 0 -1 0 0 0 -1 forward_v I I I I #
coedge $-1 $399 $269 $273 $360 forward $176 $-1 #
coedge $-1 $269 $399 $284 $367 forward $176 $-1 #
vertex $-1 $271 $400 #
straight-curve $-1 0 22.060738107666143 -10.799274033515587 -1 0 0 I I #
coedge $-1 $273 $272 $279 $365 forward $267 $-1 #
edge $-1 $274 22.060738107666143 $401 29.502577267029501 $273 $402 forward 7 unknown #
point $-1 -42.995696890163885 22.060738107666143 -10.799274033515587 #
point $-1 -42.995696890163885 22.060738107666143 -6.586545356761448 #
straight-curve $-1 -42.995696890163885 12.890828843673912 -6.586545356761448 0 1 0 I I #
coedge $-1 $279 $278 $399 $403 reversed $280 $-1 #
edge $-1 $281 6.586545356761448 $401 10.799274033515587 $279 $404 forward 7 unknown #
point $-1 -42.995696890163885 29.502577267029505 -6.586545356761448 #
edge $-1 $369 -29.502577267029501 $357 -22.060738107666143 $284 $405 forward 7 unknown #
straight-curve $-1 42.995696890163885 22.060738107666143 -4.3464548475692588 0 0 -1 I I #
vertex $-1 $367 $406 #
straight-curve $-1 42.995696890163885 29.502577267029501 0 0 0 -1 I I #
coedge $-1 $300 $299 $292 $372 forward $289 $-1 #
edge $-1 $373 6.1392531254412717 $376 14.23923554989441 $371 $407 forward 7 unknown #
vertex $-1 $372 $408 #
straight-curve $-1 -42.995696890163885 -19.723103926441631 34.93790520883509 0 0 1 I I #
edge $-1 $376 -12.726597690510181 $301 -1.2664147813527205 $300 $409 forward 7 unknown #
vertex $-1 $375 $410 #
straight-curve $-1 -42.995696890163885 -19.723103926441631 4.0025816262580634 -0.76604443648966558 0 -0.64278761758704617 I I #
point $-1 -42.995696890163885 -19.723103926441631 4.0025816262580634 #
point $-1 -34.895714465710746 -8.2629210172841709 10.799274033515587 #
straight-curve $-1 -42.995696890163885 0 10.799274033515587 0 -1 0 I I #
vertex $-1 $307 $411 #
point $-1 -37.919895842105433 -17.431067344610138 6.9562772021906838 #
vertex $-1 $311 $412 #
point $-1 -37.919895842105433 -13.993012471862901 6.9562772021906838 #
vertex $-1 $315 $413 #
point $-1 -37.919895842105433 -10.554957599115664 6.9562772021906838 #
straight-curve $-1 -42.995696890163885 29.502577267029501 0 0 0 -1 I I #
point $-1 -42.995696890163885 -29.502577267029501 -10.799274033515587 #
straight-curve $-1 -42.995696890163885 0 -10.799274033515587 0 1 0 I I #
point $-1 -42.995696890163885 29.502577267029501 -10.799274033515587 #
edge $-1 $352 -42.995696890163885 $393 42.995696890163885 $349 $414 forward 7 unknown #
straight-curve $-1 42.995696890163885 0 -10.799274033515587 0 -1 0 I I #
vertex $-1 $340 $415 #
straight-curve $-1 -42.995696890163885 0 -10.799274033515587 0 1 0 I I #
point $-1 -42.995696890163885 -22.06073810766614 -10.799274033515587 #
straight-curve $-1 -42.995696890163885 -22.06073810766614 -4.3464548475692588 0 0 -1 I I #
straight-curve $-1 -42.995696890163885 -29.502577267029501 0 0 0 -1 I I #
point $-1 42.995696890163885 -29.502577267029501 -10.799274033515587 #
coedge $-1 $356 $355 $364 $403 forward $176 $-1 #
point $-1 42.995696890163885 22.060738107666143 -10.799274033515587 #
vertex $-1 $403 $416 #
straight-curve $-1 -42.995696890163885 0 -10.799274033515587 0 1 0 I I #
edge $-1 $401 -42.995696890163885 $369 42.995696890163885 $364 $417 forward 7 unknown #
straight-curve $-1 -42.995696890163885 29.502577267029501 0 0 0 -1 I I #
straight-curve $-1 42.995696890163885 0 -10.799274033515587 0 -1 0 I I #
point $-1 42.995696890163885 29.502577267029501 -10.799274033515587 #
straight-curve $-1 -49.134950015605156 -19.723103926441631 10.799274033515587 1 0 0 I I #
point $-1 -42.995696890163885 -19.723103926441631 10.799274033515587 #
straight-curve $-1 -34.895714465710746 -6.9965062359314505 10.799274033515587 0 1 0 I I #
point $-1 -34.895714465710746 -19.723103926441631 10.799274033515587 #
point $-1 -37.981524251556749 -17.431067344610138 6.2518611751523281 #
point $-1 -37.981524251556749 -13.993012471862901 6.2518611751523281 #
point $-1 -37.981524251556749 -10.554957599115664 6.2518611751523281 #
straight-curve $-1 0 -29.502577267029501 -10.799274033515587 -1 0 0 I I #
point $-1 -42.995696890163885 -29.502577267029501 -10.799274033515587 #
point $-1 -42.995696890163885 29.502577267029501 -10.799274033515587 #
straight-curve $-1 0 29.502577267029501 -10.799274033515587 1 0 0 I I #
End-of-ACIS-data 