500 0 11 0           
7 Unknown 11 ACIS 5.0 NT 24 Fri Mar 26 14:40:34 1999 
-1 9.9999999999999995e-007 1e-010 
body $-1 $11 $-1 $12 #
body $-1 $13 $-1 $14 #
body $-1 $15 $-1 $16 #
body $-1 $17 $-1 $18 #
body $-1 $19 $-1 $20 #
body $-1 $21 $-1 $22 #
body $-1 $23 $-1 $24 #
body $-1 $25 $-1 $26 #
body $-1 $27 $-1 $28 #
body $-1 $29 $-1 $30 #
body $-1 $31 $-1 $32 #
lump $-1 $-1 $33 $0 #
transform $-1 1 0 0 0 1 0 0 0 1 50.466628009887998 21.350092800643008 6.263245553336616 1 rotate no_reflect no_shear #
lump $-1 $-1 $34 $1 #
transform $-1 1 0 0 0 1 0 0 0 1 50.466628009887998 21.350092800643008 6.263245553336616 1 rotate no_reflect no_shear #
lump $-1 $-1 $35 $2 #
transform $-1 1 0 0 0 1 0 0 0 1 50.466628009887998 21.350092800643008 6.263245553336616 1 rotate no_reflect no_shear #
lump $-1 $-1 $36 $3 #
transform $-1 1 0 0 0 1 0 0 0 1 50.466628009887998 21.350092800643008 6.263245553336616 1 rotate no_reflect no_shear #
lump $-1 $-1 $37 $4 #
transform $-1 1 0 0 0 1 0 0 0 1 50.466628009887998 21.350092800643008 6.263245553336616 1 rotate no_reflect no_shear #
lump $-1 $-1 $38 $5 #
transform $-1 1 0 0 0 1 0 0 0 1 50.466628009887998 21.350092800643008 6.263245553336616 1 rotate no_reflect no_shear #
lump $-1 $-1 $39 $6 #
transform $-1 1 0 0 0 1 0 0 0 1 50.466628009887998 21.350092800643008 6.263245553336616 1 rotate no_reflect no_shear #
lump $-1 $-1 $40 $7 #
transform $-1 1 0 0 0 1 0 0 0 1 50.466628009887998 21.350092800643008 6.263245553336616 1 rotate no_reflect no_shear #
lump $-1 $-1 $41 $8 #
transform $-1 1 0 0 0 1 0 0 0 1 50.466628009887998 21.350092800643008 6.263245553336616 1 rotate no_reflect no_shear #
lump $-1 $-1 $42 $9 #
transform $-1 1 0 0 0 1 0 0 0 1 50.466628009887998 21.350092800643008 6.263245553336616 1 rotate no_reflect no_shear #
lump $-1 $-1 $43 $10 #
transform $-1 1 0 0 0 1 0 0 0 1 50.466628009887998 21.350092800643008 6.263245553336616 1 rotate no_reflect no_shear #
shell $-1 $-1 $-1 $44 $-1 $11 #
shell $-1 $-1 $-1 $45 $-1 $13 #
shell $-1 $-1 $-1 $46 $-1 $15 #
shell $-1 $-1 $-1 $47 $-1 $17 #
shell $-1 $-1 $-1 $48 $-1 $19 #
shell $-1 $-1 $-1 $49 $-1 $21 #
shell $-1 $-1 $-1 $50 $-1 $23 #
shell $-1 $-1 $-1 $51 $-1 $25 #
shell $-1 $-1 $-1 $52 $-1 $27 #
shell $-1 $-1 $-1 $53 $-1 $29 #
shell $-1 $-1 $-1 $54 $-1 $31 #
face $-1 $55 $56 $33 $-1 $57 forward single #
face $-1 $58 $59 $34 $-1 $60 forward single #
face $-1 $61 $62 $35 $-1 $63 reversed single #
face $-1 $64 $65 $36 $-1 $66 forward single #
face $-1 $67 $68 $37 $-1 $69 forward single #
face $-1 $70 $71 $38 $-1 $72 reversed single #
face $-1 $73 $74 $39 $-1 $75 forward single #
face $-1 $76 $77 $40 $-1 $78 forward single #
face $-1 $79 $80 $41 $-1 $81 reversed single #
face $-1 $82 $83 $42 $-1 $84 forward single #
face $-1 $85 $86 $43 $-1 $87 forward single #
face $-1 $88 $89 $33 $-1 $90 reversed single #
loop $-1 $-1 $91 $44 #
plane-surface $-1 0 0 6.263245553336616 0 0 1 1 0 0 forward_v I I I I #
face $-1 $92 $93 $34 $-1 $94 reversed single #
loop $-1 $-1 $95 $45 #
plane-surface $-1 0 -18.959254068117026 -2.2657905166344041 0 0 1 1 0 0 forward_v I I I I #
face $-1 $96 $97 $35 $-1 $98 reversed single #
loop $-1 $-1 $99 $46 #
plane-surface $-1 20.78906920671561 -4.2942125079510607 142.29571851463677 0 1 0 0.54463904215088732 0 0.83867056331134215 forward_v I I I I #
face $-1 $100 $101 $36 $-1 $102 forward single #
loop $-1 $103 $104 $47 #
cone-surface $-1 47.404970662160515 -2.3841978678147626 4.0096184362764928 -0.54463904215088732 0 -0.83867056331134215 0.41933528165567108 0 -0.27231952107544366 1 I I 0 1 0.5 forward I I I I #
face $-1 $105 $106 $37 $-1 $107 forward single #
loop $-1 $108 $109 $48 #
cone-surface $-1 47.404970662160515 0.48082409238968538 4.0096184362764928 -0.54463904215088732 0 -0.83867056331134215 0.41933528165567108 0 -0.27231952107544366 1 I I 0 1 0.5 forward I I I I #
face $-1 $110 $111 $38 $-1 $112 reversed single #
loop $-1 $-1 $113 $49 #
plane-surface $-1 20.78906920671561 14.665041560165966 142.29571851463677 0 1 0 0.54463904215088732 0 0.83867056331134215 forward_v I I I I #
face $-1 $114 $115 $39 $-1 $116 forward single #
loop $-1 $117 $118 $50 #
cone-surface $-1 47.404970662160515 16.57505620030226 4.0096184362764928 -0.54463904215088732 0 -0.83867056331134215 0.41933528165567108 0 -0.27231952107544366 1 I I 0 1 0.5 forward I I I I #
face $-1 $119 $120 $40 $-1 $121 forward single #
loop $-1 $122 $123 $51 #
cone-surface $-1 47.404970662160515 19.440078160506712 4.0096184362764928 -0.54463904215088732 0 -0.83867056331134215 0.41933528165567108 0 -0.27231952107544366 1 I I 0 1 0.5 forward I I I I #
face $-1 $124 $125 $41 $-1 $126 reversed single #
loop $-1 $-1 $127 $52 #
plane-surface $-1 -136.06288441618631 11.792749158325133 56.013257498378216 0 1 0 -0.84804810408105047 0 0.52991925155115449 forward_v I I I I #
face $-1 $128 $129 $42 $-1 $130 forward single #
loop $-1 $131 $132 $53 #
cone-surface $-1 -48.543264350693939 14.523418770415955 3.9226357369964031 0.84804810408105047 0 -0.52991925155115449 0.26495962577557725 0 0.42402405204052523 1 I I 0 1 0.5 forward I I I I #
face $-1 $133 $134 $43 $-1 $135 forward single #
loop $-1 $136 $137 $54 #
cone-surface $-1 -48.543264350693939 18.619423188552187 3.9226357369964031 0.84804810408105047 0 -0.52991925155115449 0.26495962577557725 0 0.42402405204052523 1 I I 0 1 0.5 forward I I I I #
face $-1 $138 $139 $33 $-1 $140 reversed single #
loop $-1 $-1 $141 $55 #
plane-surface $-1 0 0 -6.263245553336616 0 0 1 1 0 0 forward_v I I I I #
coedge $-1 $142 $143 $144 $145 forward $56 $-1 #
face $-1 $146 $147 $34 $-1 $148 reversed single #
loop $-1 $-1 $149 $58 #
plane-surface $-1 0 -18.959254068117026 -5.7632455533366169 0 0 1 1 0 0 forward_v I I I I #
coedge $-1 $150 $151 $152 $153 reversed $59 $-1 #
face $-1 $154 $155 $35 $-1 $156 reversed single #
loop $-1 $-1 $157 $61 #
plane-surface $-1 -34.183122673065469 -0.95168688771253684 57.645967831683322 0.54463904215088732 0 0.83867056331134215 0.83867056331134215 0 -0.54463904215088732 forward_v I I I I #
coedge $-1 $158 $159 $160 $161 reversed $62 $-1 #
face $-1 $-1 $162 $36 $-1 $163 forward single #
loop $-1 $164 $165 $64 #
cone-surface $-1 46.970802741378549 -2.3841978678147626 3.3410584791057198 -0.54463904215088732 0 -0.83867056331134215 0.20966764082783554 0 -0.13615976053772183 1 I I -0.70710678118654746 0.70710678118654746 0.25 forward I I I I #
loop $-1 $-1 $166 $47 #
coedge $-1 $104 $104 $167 $168 reversed $65 $-1 #
face $-1 $-1 $169 $37 $-1 $170 forward single #
loop $-1 $171 $172 $67 #
cone-surface $-1 46.970802741378549 0.48082409238968538 3.3410584791057198 -0.54463904215088732 0 -0.83867056331134215 0.20966764082783554 0 -0.13615976053772183 1 I I -0.70710678118654746 0.70710678118654746 0.25 forward I I I I #
loop $-1 $-1 $173 $48 #
coedge $-1 $109 $109 $174 $175 reversed $68 $-1 #
face $-1 $176 $177 $38 $-1 $178 reversed single #
loop $-1 $-1 $179 $70 #
plane-surface $-1 -34.183122673065469 18.007567180404489 57.645967831683322 0.54463904215088732 0 0.83867056331134215 0.83867056331134215 0 -0.54463904215088732 forward_v I I I I #
coedge $-1 $180 $181 $182 $183 reversed $71 $-1 #
face $-1 $-1 $184 $39 $-1 $185 forward single #
loop $-1 $186 $187 $73 #
cone-surface $-1 46.970802741378549 16.57505620030226 3.3410584791057198 -0.54463904215088732 0 -0.83867056331134215 0.20966764082783554 0 -0.13615976053772183 1 I I -0.70710678118654746 0.70710678118654746 0.25 forward I I I I #
loop $-1 $-1 $188 $50 #
coedge $-1 $118 $118 $189 $190 reversed $74 $-1 #
face $-1 $-1 $191 $40 $-1 $192 forward single #
loop $-1 $193 $194 $76 #
cone-surface $-1 46.970802741378549 19.440078160506712 3.3410584791057198 -0.54463904215088732 0 -0.83867056331134215 0.20966764082783554 0 -0.13615976053772183 1 I I -0.70710678118654746 0.70710678118654746 0.25 forward I I I I #
loop $-1 $-1 $195 $51 #
coedge $-1 $123 $123 $196 $197 reversed $77 $-1 #
face $-1 $198 $199 $41 $-1 $200 reversed single #
loop $-1 $-1 $201 $79 #
plane-surface $-1 -50.466628009887998 16.571420979484071 2.5267820117574615 -0.84804810408105047 0 0.52991925155115449 0.52991925155115449 0 0.84804810408105047 forward_v I I I I #
coedge $-1 $202 $203 $204 $205 reversed $80 $-1 #
face $-1 $-1 $206 $42 $-1 $207 forward single #
loop $-1 $208 $209 $82 #
cone-surface $-1 -47.575289402462204 14.523418770415955 3.3177778785579788 0.84804810408105047 0 -0.52991925155115449 0.13247981288778862 0 0.21201202602026262 1 I I -0.70710678118654746 0.70710678118654746 0.25 forward I I I I #
loop $-1 $-1 $210 $53 #
coedge $-1 $132 $132 $211 $212 reversed $83 $-1 #
face $-1 $-1 $213 $43 $-1 $214 forward single #
loop $-1 $215 $216 $85 #
cone-surface $-1 -47.575289402462204 18.619423188552187 3.3177778785579788 0.84804810408105047 0 -0.52991925155115449 0.13247981288778862 0 0.21201202602026262 1 I I -0.70710678118654746 0.70710678118654746 0.25 forward I I I I #
loop $-1 $-1 $217 $54 #
coedge $-1 $137 $137 $218 $219 reversed $86 $-1 #
face $-1 $220 $221 $33 $-1 $222 reversed single #
loop $-1 $-1 $223 $88 #
plane-surface $-1 0 -21.350092800643008 0 0 1 0 0 0 1 forward_v I I I I #
coedge $-1 $224 $225 $226 $227 forward $89 $-1 #
coedge $-1 $228 $91 $229 $230 forward $56 $-1 #
coedge $-1 $91 $228 $231 $232 forward $56 $-1 #
coedge $-1 $233 $234 $91 $145 reversed $235 $-1 #
edge $-1 $236 -21.350092800643008 $237 21.350092800643008 $144 $238 forward 7 unknown #
face $-1 $239 $240 $34 $-1 $241 reversed single #
loop $-1 $-1 $242 $92 #
plane-surface $-1 0 -16.568415335591045 -4.0145180349855103 0 -1 0 0 0 -1 forward_v I I I I #
coedge $-1 $243 $244 $245 $246 reversed $93 $-1 #
coedge $-1 $247 $95 $248 $249 forward $59 $-1 #
coedge $-1 $95 $247 $250 $251 reversed $59 $-1 #
coedge $-1 $252 $253 $95 $153 forward $254 $-1 #
edge $-1 $255 7.0887883015325315 $256 11.870465766584495 $152 $257 forward 7 unknown #
face $-1 $258 $259 $35 $-1 $260 forward single #
loop $-1 $-1 $261 $96 #
plane-surface $-1 20.78906920671561 2.390838732525987 142.29571851463677 0 -1 0 -0.54463904215088732 0 -0.83867056331134215 forward_v I I I I #
coedge $-1 $262 $263 $264 $265 reversed $97 $-1 #
coedge $-1 $159 $99 $266 $267 reversed $62 $-1 #
coedge $-1 $99 $158 $262 $268 reversed $62 $-1 #
coedge $-1 $264 $269 $99 $161 forward $270 $-1 #
edge $-1 $271 64.884613703981771 $272 68.474083305416144 $160 $273 forward 7 unknown #
loop $-1 $-1 $167 $100 #
plane-surface $-1 -34.183122673065469 -0.95168688771253684 57.645967831683322 0.54463904215088732 0 0.83867056331134215 0.83867056331134215 0 -0.54463904215088732 forward_v I I I I #
loop $-1 $-1 $274 $64 #
coedge $-1 $165 $165 $166 $275 reversed $101 $-1 #
coedge $-1 $166 $166 $165 $275 forward $103 $-1 #
coedge $-1 $167 $167 $104 $168 forward $162 $-1 #
edge $-1 $276 0 $276 6.2831853071796004 $167 $277 forward 7 unknown #
loop $-1 $-1 $174 $105 #
plane-surface $-1 -34.183122673065469 -0.95168688771253684 57.645967831683322 0.54463904215088732 0 0.83867056331134215 0.83867056331134215 0 -0.54463904215088732 forward_v I I I I #
loop $-1 $-1 $278 $67 #
coedge $-1 $172 $172 $173 $279 reversed $106 $-1 #
coedge $-1 $173 $173 $172 $279 forward $108 $-1 #
coedge $-1 $174 $174 $109 $175 forward $169 $-1 #
edge $-1 $280 0 $280 6.2831853071796004 $174 $281 forward 7 unknown #
face $-1 $282 $283 $38 $-1 $284 forward single #
loop $-1 $-1 $182 $110 #
plane-surface $-1 50.466628009887998 0 0 -1 0 0 0 0 1 forward_v I I I I #
coedge $-1 $285 $286 $287 $288 reversed $111 $-1 #
coedge $-1 $181 $113 $289 $290 reversed $71 $-1 #
coedge $-1 $113 $180 $285 $291 reversed $71 $-1 #
coedge $-1 $287 $292 $113 $183 forward $177 $-1 #
edge $-1 $293 64.884613703981771 $294 68.474083305416144 $182 $295 forward 7 unknown #
loop $-1 $-1 $189 $114 #
plane-surface $-1 -34.183122673065469 18.007567180404489 57.645967831683322 0.54463904215088732 0 0.83867056331134215 0.83867056331134215 0 -0.54463904215088732 forward_v I I I I #
loop $-1 $-1 $296 $73 #
coedge $-1 $187 $187 $188 $297 reversed $115 $-1 #
coedge $-1 $188 $188 $187 $297 forward $117 $-1 #
coedge $-1 $189 $189 $118 $190 forward $184 $-1 #
edge $-1 $298 0 $298 6.2831853071796004 $189 $299 forward 7 unknown #
loop $-1 $-1 $196 $119 #
plane-surface $-1 -34.183122673065469 18.007567180404489 57.645967831683322 0.54463904215088732 0 0.83867056331134215 0.83867056331134215 0 -0.54463904215088732 forward_v I I I I #
loop $-1 $-1 $300 $76 #
coedge $-1 $194 $194 $195 $301 reversed $120 $-1 #
coedge $-1 $195 $195 $194 $301 forward $122 $-1 #
coedge $-1 $196 $196 $123 $197 forward $191 $-1 #
edge $-1 $302 0 $302 6.2831853071796004 $196 $303 forward 7 unknown #
face $-1 $304 $305 $41 $-1 $306 forward single #
loop $-1 $-1 $307 $124 #
plane-surface $-1 0 21.350092800643008 0 0 -1 0 0 0 -1 forward_v I I I I #
coedge $-1 $308 $309 $310 $311 reversed $125 $-1 #
coedge $-1 $203 $127 $312 $313 reversed $80 $-1 #
coedge $-1 $127 $202 $308 $314 reversed $80 $-1 #
coedge $-1 $310 $315 $127 $205 forward $305 $-1 #
edge $-1 $316 17.564814198205156 $317 19.89961567217032 $204 $318 forward 7 unknown #
loop $-1 $-1 $211 $128 #
plane-surface $-1 -50.466628009887998 16.571420979484071 2.5267820117574615 -0.84804810408105047 0 0.52991925155115449 0.52991925155115449 0 0.84804810408105047 forward_v I I I I #
loop $-1 $-1 $319 $82 #
coedge $-1 $209 $209 $210 $320 reversed $129 $-1 #
coedge $-1 $210 $210 $209 $320 forward $131 $-1 #
coedge $-1 $211 $211 $132 $212 forward $206 $-1 #
edge $-1 $321 0 $321 6.2831853071796004 $211 $322 forward 7 unknown #
loop $-1 $-1 $218 $133 #
plane-surface $-1 -50.466628009887998 16.571420979484071 2.5267820117574615 -0.84804810408105047 0 0.52991925155115449 0.52991925155115449 0 0.84804810408105047 forward_v I I I I #
loop $-1 $-1 $323 $85 #
coedge $-1 $216 $216 $217 $324 reversed $134 $-1 #
coedge $-1 $217 $217 $216 $324 forward $136 $-1 #
coedge $-1 $218 $218 $137 $219 forward $213 $-1 #
edge $-1 $325 0 $325 6.2831853071796004 $218 $326 forward 7 unknown #
face $-1 $327 $328 $33 $-1 $329 reversed single #
loop $-1 $-1 $330 $138 #
plane-surface $-1 -50.466628009887998 0 0 1 0 0 0 0 -1 forward_v I I I I #
coedge $-1 $331 $231 $332 $333 forward $139 $-1 #
coedge $-1 $334 $141 $331 $335 forward $89 $-1 #
coedge $-1 $141 $334 $336 $337 forward $89 $-1 #
coedge $-1 $234 $233 $141 $227 reversed $235 $-1 #
edge $-1 $338 -21.350092800643008 $339 21.350092800643008 $226 $340 forward 7 unknown #
coedge $-1 $143 $142 $341 $342 forward $56 $-1 #
coedge $-1 $343 $344 $142 $230 reversed $328 $-1 #
edge $-1 $237 -50.466628009887998 $345 50.466628009887998 $229 $346 forward 7 unknown #
coedge $-1 $223 $347 $143 $232 reversed $139 $-1 #
edge $-1 $348 -50.466628009887998 $236 50.466628009887998 $231 $349 forward 7 unknown #
coedge $-1 $226 $144 $347 $350 forward $235 $-1 #
coedge $-1 $144 $226 $343 $351 reversed $235 $-1 #
loop $-1 $-1 $233 $327 #
vertex $-1 $145 $352 #
vertex $-1 $145 $353 #
straight-curve $-1 50.466628009887998 0 6.263245553336616 0 1 0 I I #
face $-1 $354 $355 $34 $-1 $356 reversed single #
loop $-1 $-1 $357 $146 #
plane-surface $-1 -50.466628009887998 0 0 1 0 0 0 0 -1 forward_v I I I I #
coedge $-1 $358 $248 $253 $359 reversed $147 $-1 #
coedge $-1 $360 $149 $361 $362 reversed $93 $-1 #
coedge $-1 $149 $360 $358 $363 forward $93 $-1 #
coedge $-1 $253 $252 $149 $246 forward $254 $-1 #
edge $-1 $364 -11.870465766584495 $365 -7.0887883015325315 $245 $366 forward 7 unknown #
coedge $-1 $151 $150 $357 $367 reversed $59 $-1 #
coedge $-1 $242 $368 $150 $249 reversed $147 $-1 #
edge $-1 $255 -50.466628009887998 $369 50.466628009887998 $248 $370 forward 7 unknown #
coedge $-1 $371 $372 $151 $251 forward $355 $-1 #
edge $-1 $256 -50.466628009887998 $373 50.466628009887998 $250 $374 forward 7 unknown #
coedge $-1 $245 $152 $372 $375 forward $254 $-1 #
coedge $-1 $152 $245 $242 $359 forward $254 $-1 #
loop $-1 $-1 $152 $354 #
vertex $-1 $153 $376 #
vertex $-1 $375 $377 #
straight-curve $-1 50.466628009887998 -9.4796270340585131 -2.2657905166344041 0 -1 0 I I #
face $-1 $-1 $270 $35 $-1 $378 reversed single #
loop $-1 $-1 $379 $154 #
plane-surface $-1 0 0 6.263245553336616 0 0 1 1 0 0 forward_v I I I I #
coedge $-1 $380 $381 $382 $383 reversed $155 $-1 #
coedge $-1 $384 $157 $159 $268 forward $97 $-1 #
coedge $-1 $157 $384 $380 $385 forward $97 $-1 #
coedge $-1 $382 $160 $157 $265 forward $270 $-1 #
edge $-1 $272 -3.8183690640947923 $386 2.8666821763822554 $264 $387 forward 7 unknown #
coedge $-1 $388 $389 $158 $267 forward $259 $-1 #
edge $-1 $390 34.544795031563687 $271 40.072093406530193 $266 $391 forward 7 unknown #
edge $-1 $272 -100.93325601977601 $390 -94.342708292498031 $159 $392 forward 7 unknown #
coedge $-1 $160 $382 $388 $393 reversed $270 $-1 #
loop $-1 $-1 $382 $258 #
vertex $-1 $393 $394 #
vertex $-1 $161 $395 #
straight-curve $-1 50.466628009887998 -4.2942125079510607 71.147859257318387 0 0 -1 I I #
coedge $-1 $274 $274 $-1 $396 reversed $164 $-1 #
edge $-1 $397 0 $397 6.2831853071796004 $165 $398 forward 7 unknown #
vertex $-1 $168 $399 #
ellipse-curve $-1 47.702978822404759 -2.3841978678147626 4.4685107526194239 0.54463904215088732 0 0.83867056331134215 0.41933528165567108 0 -0.27231952107544366 1 I I #
coedge $-1 $278 $278 $-1 $400 reversed $171 $-1 #
edge $-1 $401 0 $401 6.2831853071796004 $172 $402 forward 7 unknown #
vertex $-1 $175 $403 #
ellipse-curve $-1 47.702978822404759 0.48082409238968538 4.4685107526194239 0.54463904215088732 0 0.83867056331134215 0.41933528165567108 0 -0.27231952107544366 1 I I #
face $-1 $-1 $404 $38 $-1 $405 reversed single #
loop $-1 $-1 $289 $176 #
plane-surface $-1 0 0 6.263245553336616 0 0 1 1 0 0 forward_v I I I I #
coedge $-1 $406 $179 $181 $291 forward $111 $-1 #
coedge $-1 $179 $406 $407 $408 reversed $111 $-1 #
coedge $-1 $409 $182 $179 $288 forward $177 $-1 #
edge $-1 $294 5.6612579699637209 $410 12.346309210440767 $287 $411 forward 7 unknown #
coedge $-1 $412 $413 $180 $290 forward $283 $-1 #
edge $-1 $414 34.544795031563687 $293 40.072093406530193 $289 $415 forward 7 unknown #
edge $-1 $294 -100.93325601977601 $414 -94.342708292498031 $181 $416 forward 7 unknown #
coedge $-1 $182 $409 $412 $417 reversed $177 $-1 #
vertex $-1 $417 $418 #
vertex $-1 $183 $419 #
straight-curve $-1 50.466628009887998 14.665041560165966 71.147859257318387 0 0 -1 I I #
coedge $-1 $296 $296 $-1 $420 reversed $186 $-1 #
edge $-1 $421 0 $421 6.2831853071796004 $187 $422 forward 7 unknown #
vertex $-1 $190 $423 #
ellipse-curve $-1 47.702978822404759 16.57505620030226 4.4685107526194239 0.54463904215088732 0 0.83867056331134215 0.41933528165567108 0 -0.27231952107544366 1 I I #
coedge $-1 $300 $300 $-1 $424 reversed $193 $-1 #
edge $-1 $425 0 $425 6.2831853071796004 $194 $426 forward 7 unknown #
vertex $-1 $197 $427 #
ellipse-curve $-1 47.702978822404759 19.440078160506712 4.4685107526194239 0.54463904215088732 0 0.83867056331134215 0.41933528165567108 0 -0.27231952107544366 1 I I #
face $-1 $-1 $428 $41 $-1 $429 reversed single #
loop $-1 $-1 $310 $198 #
plane-surface $-1 0 0 6.263245553336616 0 0 1 1 0 0 forward_v I I I I #
coedge $-1 $430 $431 $309 $432 forward $199 $-1 #
coedge $-1 $433 $201 $203 $314 forward $125 $-1 #
coedge $-1 $201 $433 $307 $432 reversed $125 $-1 #
coedge $-1 $434 $204 $201 $311 forward $305 $-1 #
edge $-1 $317 3.5070386685830979 $435 13.064382310900973 $310 $436 forward 7 unknown #
coedge $-1 $437 $438 $202 $313 forward $428 $-1 #
edge $-1 $439 -25.479846737431647 $316 -21.743383195852491 $312 $440 forward 7 unknown #
edge $-1 $317 -4.4059570720083219 $439 0 $203 $441 forward 7 unknown #
coedge $-1 $204 $434 $437 $442 forward $305 $-1 #
vertex $-1 $313 $443 #
vertex $-1 $205 $444 #
straight-curve $-1 -68.031442208093154 11.792749158325133 6.2632455533366169 1 0 0 I I #
coedge $-1 $319 $319 $-1 $445 reversed $208 $-1 #
edge $-1 $446 0 $446 6.2831853071796004 $209 $447 forward 7 unknown #
vertex $-1 $212 $448 #
ellipse-curve $-1 -49.299227272905412 14.523418770415955 4.3950137825470392 -0.84804810408105047 0 0.52991925155115449 0.26495962577557725 0 0.42402405204052523 1 I I #
coedge $-1 $323 $323 $-1 $449 reversed $215 $-1 #
edge $-1 $450 0 $450 6.2831853071796004 $216 $451 forward 7 unknown #
vertex $-1 $219 $452 #
ellipse-curve $-1 -49.299227272905412 18.619423188552187 4.3950137825470392 -0.84804810408105047 0 0.52991925155115449 0.26495962577557725 0 0.42402405204052523 1 I I #
face $-1 $-1 $235 $33 $-1 $453 reversed single #
loop $-1 $-1 $343 $220 #
plane-surface $-1 0 21.350092800643008 0 0 -1 0 0 0 -1 forward_v I I I I #
coedge $-1 $454 $341 $344 $455 forward $221 $-1 #
coedge $-1 $347 $223 $224 $335 reversed $139 $-1 #
coedge $-1 $341 $454 $223 $333 reversed $221 $-1 #
edge $-1 $348 -6.263245553336616 $456 6.263245553336616 $332 $457 forward 7 unknown #
coedge $-1 $225 $224 $454 $458 forward $89 $-1 #
edge $-1 $339 -50.466628009887998 $456 50.466628009887998 $331 $459 forward 7 unknown #
coedge $-1 $344 $343 $225 $337 reversed $328 $-1 #
edge $-1 $460 -50.466628009887998 $338 50.466628009887998 $336 $461 forward 7 unknown #
vertex $-1 $227 $462 #
vertex $-1 $350 $463 #
straight-curve $-1 50.466628009887998 0 -6.263245553336616 0 -1 0 I I #
coedge $-1 $330 $332 $228 $342 reversed $221 $-1 #
edge $-1 $345 -21.350092800643008 $348 21.350092800643008 $341 $464 forward 7 unknown #
coedge $-1 $336 $229 $234 $351 forward $328 $-1 #
coedge $-1 $229 $336 $330 $455 reversed $328 $-1 #
vertex $-1 $230 $465 #
straight-curve $-1 0 21.350092800643008 6.263245553336616 -1 0 0 I I #
coedge $-1 $231 $331 $233 $350 reversed $139 $-1 #
vertex $-1 $342 $466 #
straight-curve $-1 0 -21.350092800643008 6.263245553336616 1 0 0 I I #
edge $-1 $236 -6.263245553336616 $339 6.263245553336616 $233 $467 forward 7 unknown #
edge $-1 $237 -6.263245553336616 $338 6.263245553336616 $234 $468 forward 7 unknown #
point $-1 50.466628009887998 -21.350092800643008 6.263245553336616 #
point $-1 50.466628009887998 21.350092800643008 6.263245553336616 #
face $-1 $-1 $254 $34 $-1 $469 reversed single #
loop $-1 $-1 $250 $239 #
plane-surface $-1 0 -21.350092800643008 0 0 1 0 0 0 1 forward_v I I I I #
coedge $-1 $470 $471 $247 $367 forward $240 $-1 #
coedge $-1 $368 $242 $244 $363 reversed $147 $-1 #
edge $-1 $365 -3.7559865358438618 $255 -0.25853149914164897 $253 $472 forward 7 unknown #
coedge $-1 $244 $243 $473 $474 reversed $93 $-1 #
coedge $-1 $372 $371 $243 $362 forward $355 $-1 #
edge $-1 $475 -50.466628009887998 $364 50.466628009887998 $361 $476 forward 7 unknown #
edge $-1 $477 -50.466628009887998 $365 50.466628009887998 $358 $478 forward 7 unknown #
vertex $-1 $362 $479 #
vertex $-1 $246 $480 #
straight-curve $-1 50.466628009887998 -9.4796270340585131 -5.7632455533366169 0 1 0 I I #
edge $-1 $373 -11.870465766584495 $369 -7.0887883015325315 $357 $481 forward 7 unknown #
coedge $-1 $248 $358 $470 $482 reversed $147 $-1 #
vertex $-1 $367 $483 #
straight-curve $-1 0 -16.568415335591045 -2.2657905166344041 -1 0 0 I I #
coedge $-1 $361 $250 $471 $484 forward $355 $-1 #
coedge $-1 $250 $361 $252 $375 reversed $355 $-1 #
vertex $-1 $484 $485 #
straight-curve $-1 0 -21.350092800643008 -2.2657905166344041 -1 0 0 I I #
edge $-1 $256 2.2657905166344041 $364 5.7632455533366169 $252 $486 forward 7 unknown #
point $-1 50.466628009887998 -16.568415335591045 -2.2657905166344041 #
point $-1 50.466628009887998 -21.350092800643008 -2.2657905166344041 #
plane-surface $-1 50.466628009887998 0 0 -1 0 0 0 0 1 forward_v I I I I #
coedge $-1 $389 $388 $381 $487 forward $259 $-1 #
coedge $-1 $381 $261 $263 $385 reversed $155 $-1 #
coedge $-1 $261 $380 $379 $487 reversed $155 $-1 #
coedge $-1 $269 $264 $261 $383 forward $270 $-1 #
edge $-1 $386 -68.474083305416144 $488 -64.884613703981771 $382 $489 forward 7 unknown #
coedge $-1 $263 $262 $389 $490 reversed $97 $-1 #
edge $-1 $491 94.342708292498031 $386 100.93325601977601 $380 $492 forward 7 unknown #
vertex $-1 $265 $493 #
straight-curve $-1 50.466628009887998 -0.47584344385626842 2.6737759519022326 0 1 0 I I #
coedge $-1 $379 $266 $269 $393 forward $259 $-1 #
coedge $-1 $266 $379 $384 $490 forward $259 $-1 #
vertex $-1 $267 $494 #
straight-curve $-1 10.394534603357805 -4.2942125079510607 6.2632455533366169 1 0 0 I I #
straight-curve $-1 -34.183122673065469 -4.2942125079510607 57.645967831683322 -0.83867056331134215 0 0.54463904215088732 I I #
edge $-1 $271 -4.2942125079510607 $488 2.390838732525987 $269 $495 forward 7 unknown #
point $-1 50.466628009887998 -4.2942125079510607 6.263245553336616 #
point $-1 50.466628009887998 -4.2942125079510607 2.6737759519022362 #
edge $-1 $496 1 $496 0 $274 $-1 forward 7 unknown #
vertex $-1 $275 $497 #
ellipse-curve $-1 47.106962501916271 -2.3841978678147626 3.5507261199335556 0.54463904215088732 0 0.83867056331134215 0.41933528165567108 0 -0.27231952107544366 1 I I #
point $-1 48.122314104060436 -2.3841978678147626 4.1961912315439873 #
edge $-1 $498 1 $498 0 $278 $-1 forward 7 unknown #
vertex $-1 $279 $499 #
ellipse-curve $-1 47.106962501916271 0.48082409238968538 3.5507261199335556 0.54463904215088732 0 0.83867056331134215 0.41933528165567108 0 -0.27231952107544366 1 I I #
point $-1 48.122314104060436 0.48082409238968538 4.1961912315439873 #
loop $-1 $-1 $407 $282 #
plane-surface $-1 0 21.350092800643008 0 0 -1 0 0 0 -1 forward_v I I I I #
coedge $-1 $286 $285 $413 $500 reversed $111 $-1 #
coedge $-1 $501 $502 $286 $408 forward $404 $-1 #
edge $-1 $410 -70.900944293941308 $503 -64.310396566663343 $407 $504 forward 7 unknown #
coedge $-1 $292 $287 $502 $505 reversed $177 $-1 #
vertex $-1 $408 $506 #
straight-curve $-1 50.466628009887998 9.0037835902022447 2.6737759519022326 0 1 0 I I #
coedge $-1 $507 $289 $292 $417 forward $283 $-1 #
coedge $-1 $289 $507 $406 $500 forward $283 $-1 #
vertex $-1 $290 $508 #
straight-curve $-1 10.394534603357805 14.665041560165966 6.2632455533366169 1 0 0 I I #
straight-curve $-1 -34.183122673065469 14.665041560165966 57.645967831683322 -0.83867056331134215 0 0.54463904215088732 I I #
edge $-1 $293 14.665041560165966 $509 21.350092800643008 $292 $510 forward 7 unknown #
point $-1 50.466628009887998 14.665041560165966 6.263245553336616 #
point $-1 50.466628009887998 14.665041560165966 2.6737759519022362 #
edge $-1 $511 1 $511 0 $296 $-1 forward 7 unknown #
vertex $-1 $297 $512 #
ellipse-curve $-1 47.106962501916271 16.57505620030226 3.5507261199335556 0.54463904215088732 0 0.83867056331134215 0.41933528165567108 0 -0.27231952107544366 1 I I #
point $-1 48.122314104060436 16.57505620030226 4.1961912315439873 #
edge $-1 $513 1 $513 0 $300 $-1 forward 7 unknown #
vertex $-1 $301 $514 #
ellipse-curve $-1 47.106962501916271 19.440078160506712 3.5507261199335556 0.54463904215088732 0 0.83867056331134215 0.41933528165567108 0 -0.27231952107544366 1 I I #
point $-1 48.122314104060436 19.440078160506712 4.1961912315439873 #
loop $-1 $-1 $312 $304 #
plane-surface $-1 -50.466628009887998 0 0 1 0 0 0 0 -1 forward_v I I I I #
coedge $-1 $431 $307 $515 $516 reversed $199 $-1 #
coedge $-1 $307 $430 $434 $517 reversed $199 $-1 #
edge $-1 $435 7.8942454523983567 $518 12.300202524406679 $307 $519 forward 7 unknown #
coedge $-1 $309 $308 $438 $520 reversed $125 $-1 #
coedge $-1 $315 $310 $431 $517 forward $305 $-1 #
vertex $-1 $517 $521 #
straight-curve $-1 -48.131826535922826 8.2857104897420353 6.2632455533366151 0 1 0 I I #
coedge $-1 $515 $312 $315 $442 reversed $428 $-1 #
coedge $-1 $312 $515 $433 $520 forward $428 $-1 #
vertex $-1 $313 $522 #
straight-curve $-1 -50.466628009887998 11.792749158325133 28.006628749189108 0 0 1 I I #
straight-curve $-1 -50.466628009887998 11.792749158325133 2.5267820117574615 -0.52991925155115449 0 -0.84804810408105047 I I #
edge $-1 $523 -21.350092800643008 $316 -11.792749158325133 $437 $524 forward 7 unknown #
point $-1 -50.466628009887998 11.792749158325133 6.263245553336616 #
point $-1 -48.131826535922833 11.792749158325133 6.263245553336616 #
edge $-1 $525 1 $525 0 $319 $-1 forward 7 unknown #
vertex $-1 $320 $526 #
ellipse-curve $-1 -47.787301428482465 14.523418770415955 3.4502576914457674 -0.84804810408105047 0 0.52991925155115449 0.26495962577557725 0 0.42402405204052523 1 I I #
point $-1 -49.034267647129838 14.523418770415955 4.8190378345875633 #
edge $-1 $527 1 $527 0 $323 $-1 forward 7 unknown #
vertex $-1 $324 $528 #
ellipse-curve $-1 -47.787301428482465 18.619423188552187 3.4502576914457674 -0.84804810408105047 0 0.52991925155115449 0.26495962577557725 0 0.42402405204052523 1 I I #
point $-1 -49.034267647129838 18.619423188552187 4.8190378345875633 #
plane-surface $-1 50.466628009887998 0 0 -1 0 0 0 0 1 forward_v I I I I #
coedge $-1 $332 $330 $334 $458 reversed $221 $-1 #
edge $-1 $345 -6.263245553336616 $460 6.263245553336616 $344 $529 forward 7 unknown #
vertex $-1 $458 $530 #
straight-curve $-1 -50.466628009887998 -21.350092800643008 0 0 0 -1 I I #
edge $-1 $456 -21.350092800643008 $460 21.350092800643008 $454 $531 forward 7 unknown #
straight-curve $-1 0 -21.350092800643008 -6.263245553336616 -1 0 0 I I #
vertex $-1 $337 $532 #
straight-curve $-1 0 21.350092800643008 -6.263245553336616 1 0 0 I I #
point $-1 50.466628009887998 21.350092800643008 -6.263245553336616 #
point $-1 50.466628009887998 -21.350092800643008 -6.263245553336616 #
straight-curve $-1 -50.466628009887998 0 6.263245553336616 0 -1 0 I I #
point $-1 -50.466628009887998 21.350092800643008 6.263245553336616 #
point $-1 -50.466628009887998 -21.350092800643008 6.263245553336616 #
straight-curve $-1 50.466628009887998 -21.350092800643008 0 0 0 -1 I I #
straight-curve $-1 50.466628009887998 21.350092800643008 0 0 0 -1 I I #
plane-surface $-1 50.466628009887998 0 0 -1 0 0 0 0 1 forward_v I I I I #
coedge $-1 $473 $357 $368 $482 forward $240 $-1 #
coedge $-1 $357 $473 $371 $484 reversed $240 $-1 #
straight-curve $-1 50.466628009887998 -16.568415335591045 -2.0072590174927551 0 0 1 I I #
coedge $-1 $471 $470 $360 $474 forward $240 $-1 #
edge $-1 $477 7.0887883015325315 $475 11.870465766584495 $473 $533 forward 7 unknown #
vertex $-1 $362 $534 #
straight-curve $-1 0 -21.350092800643008 -5.7632455533366169 1 0 0 I I #
vertex $-1 $474 $535 #
straight-curve $-1 0 -16.568415335591045 -5.7632455533366169 1 0 0 I I #
point $-1 50.466628009887998 -21.350092800643008 -5.7632455533366169 #
point $-1 50.466628009887998 -16.568415335591045 -5.7632455533366169 #
straight-curve $-1 -50.466628009887998 -9.4796270340585131 -2.2657905166344041 0 1 0 I I #
edge $-1 $369 0.25853149914164897 $477 3.7559865358438618 $470 $536 forward 7 unknown #
point $-1 -50.466628009887998 -16.568415335591045 -2.2657905166344041 #
edge $-1 $373 2.2657905166344041 $475 5.7632455533366169 $471 $537 forward 7 unknown #
point $-1 -50.466628009887998 -21.350092800643008 -2.2657905166344041 #
straight-curve $-1 50.466628009887998 -21.350092800643008 0 0 0 -1 I I #
edge $-1 $488 -40.072093406530193 $491 -34.544795031563687 $379 $538 forward 7 unknown #
vertex $-1 $487 $539 #
straight-curve $-1 50.466628009887998 2.390838732525987 71.147859257318387 0 0 1 I I #
edge $-1 $491 -2.8666821763822554 $390 3.8183690640947923 $389 $540 forward 7 unknown #
vertex $-1 $490 $541 #
straight-curve $-1 -34.183122673065469 2.390838732525987 57.645967831683322 0.83867056331134215 0 -0.54463904215088732 I I #
point $-1 50.466628009887998 2.390838732525987 2.6737759519022362 #
point $-1 44.939329634921492 -4.2942125079510607 6.2632455533366169 #
straight-curve $-1 50.466628009887998 0 6.263245553336616 0 1 0 I I #
vertex $-1 $396 $542 #
point $-1 47.526297783571941 -2.3841978678147626 3.2784065988581119 #
vertex $-1 $400 $543 #
point $-1 47.526297783571941 0.48082409238968538 3.2784065988581119 #
edge $-1 $503 -12.346309210440767 $414 -5.6612579699637209 $413 $544 forward 7 unknown #
coedge $-1 $502 $407 $507 $545 reversed $404 $-1 #
coedge $-1 $407 $501 $409 $505 forward $404 $-1 #
vertex $-1 $408 $546 #
straight-curve $-1 -8.9959068804178557 21.350092800643008 41.289198339747855 -0.83867056331134215 0 0.54463904215088732 I I #
edge $-1 $509 -6.263245553336616 $410 -2.6737759519022362 $409 $547 forward 7 unknown #
point $-1 50.466628009887998 21.350092800643012 2.6737759519022362 #
coedge $-1 $413 $412 $501 $545 forward $283 $-1 #
point $-1 44.939329634921492 14.665041560165966 6.2632455533366169 #
vertex $-1 $417 $548 #
straight-curve $-1 50.466628009887998 0 6.263245553336616 0 1 0 I I #
vertex $-1 $420 $549 #
point $-1 47.526297783571941 16.57505620030226 3.2784065988581119 #
vertex $-1 $424 $550 #
point $-1 47.526297783571941 19.440078160506712 3.2784065988581119 #
coedge $-1 $438 $437 $430 $516 forward $428 $-1 #
edge $-1 $523 -6.263245553336616 $518 -2.5267820117574615 $430 $551 forward 7 unknown #
edge $-1 $435 48.131826535922833 $523 50.466628009887998 $431 $552 forward 7 unknown #
vertex $-1 $432 $553 #
straight-curve $-1 -43.948513894226792 21.350092800643008 12.957945442393498 -0.52991925155115449 0 -0.84804810408105047 I I #
edge $-1 $518 -13.064382310900973 $439 -3.5070386685830979 $438 $554 forward 7 unknown #
point $-1 -48.131826535922833 21.350092800643008 6.263245553336616 #
point $-1 -50.466628009887998 11.792749158325133 2.5267820117574615 #
vertex $-1 $517 $555 #
straight-curve $-1 -50.466628009887998 0 6.263245553336616 0 -1 0 I I #
vertex $-1 $445 $556 #
point $-1 -47.52234180270689 14.523418770415955 3.8742817434862928 #
vertex $-1 $449 $557 #
point $-1 -47.52234180270689 18.619423188552187 3.8742817434862928 #
straight-curve $-1 -50.466628009887998 21.350092800643008 0 0 0 -1 I I #
point $-1 -50.466628009887998 -21.350092800643008 -6.263245553336616 #
straight-curve $-1 -50.466628009887998 0 -6.263245553336616 0 1 0 I I #
point $-1 -50.466628009887998 21.350092800643008 -6.263245553336616 #
straight-curve $-1 -50.466628009887998 -9.4796270340585131 -5.7632455533366169 0 -1 0 I I #
point $-1 -50.466628009887998 -21.350092800643008 -5.7632455533366169 #
point $-1 -50.466628009887998 -16.568415335591045 -5.7632455533366169 #
straight-curve $-1 -50.466628009887998 -16.568415335591045 -2.0072590174927551 0 0 -1 I I #
straight-curve $-1 -50.466628009887998 -21.350092800643008 0 0 0 -1 I I #
straight-curve $-1 10.394534603357805 2.390838732525987 6.2632455533366169 -1 0 0 I I #
point $-1 50.466628009887998 2.390838732525987 6.263245553336616 #
straight-curve $-1 44.939329634921485 -0.47584344385626842 6.2632455533366169 0 -1 0 I I #
point $-1 44.939329634921492 2.390838732525987 6.2632455533366169 #
point $-1 46.834642980840826 -2.3841978678147626 3.1313908382778841 #
point $-1 46.834642980840826 0.48082409238968538 3.1313908382778841 #
straight-curve $-1 44.939329634921485 9.0037835902022447 6.2632455533366169 0 -1 0 I I #
edge $-1 $509 -50.466628009887998 $503 -44.939329634921492 $501 $558 forward 7 unknown #
point $-1 44.939329634921492 21.350092800643012 6.2632455533366169 #
straight-curve $-1 50.466628009887998 21.350092800643008 0 0 0 -1 I I #
point $-1 50.466628009887998 21.350092800643008 6.263245553336616 #
point $-1 46.834642980840826 16.57505620030226 3.1313908382778841 #
point $-1 46.834642980840826 19.440078160506712 3.1313908382778841 #
straight-curve $-1 -50.466628009887998 21.350092800643008 0 0 0 -1 I I #
straight-curve $-1 0 21.350092800643008 6.263245553336616 -1 0 0 I I #
point $-1 -50.466628009887998 21.350092800643008 2.5267820117574615 #
straight-curve $-1 -50.466628009887998 8.2857104897420353 2.5267820117574642 0 -1 0 I I #
point $-1 -50.466628009887998 21.350092800643008 6.263245553336616 #
point $-1 -47.363277376441943 14.523418770415955 3.1852980656701901 #
point $-1 -47.363277376441943 18.619423188552187 3.1852980656701901 #
straight-curve $-1 0 21.350092800643008 6.263245553336616 -1 0 0 I I #
End-of-ACIS-data 