500 0 6 0           
7 Unknown 11 ACIS 5.0 NT 24 Thu Mar 25 23:10:25 1999 
-1 9.9999999999999995e-007 1e-010 
body $-1 $6 $-1 $7 #
body $-1 $8 $-1 $9 #
body $-1 $10 $-1 $11 #
body $-1 $12 $-1 $13 #
body $-1 $14 $-1 $15 #
body $-1 $16 $-1 $17 #
lump $-1 $-1 $18 $0 #
transform $-1 1 0 0 0 1 0 0 0 1 70.116885891293066 41.956076845057339 9.2439863635733204 1 rotate no_reflect no_shear #
lump $-1 $-1 $19 $1 #
transform $-1 1 0 0 0 1 0 0 0 1 70.116885891293066 41.956076845057339 9.2439863635733204 1 rotate no_reflect no_shear #
lump $-1 $-1 $20 $2 #
transform $-1 1 0 0 0 1 0 0 0 1 70.116885891293066 41.956076845057339 9.2439863635733204 1 rotate no_reflect no_shear #
lump $-1 $-1 $21 $3 #
transform $-1 1 0 0 0 1 0 0 0 1 70.116885891293066 41.956076845057339 9.2439863635733204 1 rotate no_reflect no_shear #
lump $-1 $-1 $22 $4 #
transform $-1 1 0 0 0 1 0 0 0 1 70.116885891293066 41.956076845057339 9.2439863635733204 1 rotate no_reflect no_shear #
lump $-1 $-1 $23 $5 #
transform $-1 1 0 0 0 1 0 0 0 1 70.116885891293066 41.956076845057339 9.2439863635733204 1 rotate no_reflect no_shear #
shell $-1 $-1 $-1 $24 $-1 $6 #
shell $-1 $-1 $-1 $25 $-1 $8 #
shell $-1 $-1 $-1 $26 $-1 $10 #
shell $-1 $-1 $-1 $27 $-1 $12 #
shell $-1 $-1 $-1 $28 $-1 $14 #
shell $-1 $-1 $-1 $29 $-1 $16 #
face $-1 $30 $31 $18 $-1 $32 forward single #
face $-1 $33 $34 $19 $-1 $35 reversed single #
face $-1 $36 $37 $20 $-1 $38 reversed single #
face $-1 $39 $40 $21 $-1 $41 forward single #
face $-1 $42 $43 $22 $-1 $44 reversed single #
face $-1 $45 $46 $23 $-1 $47 forward single #
face $-1 $48 $49 $18 $-1 $50 reversed single #
loop $-1 $-1 $51 $24 #
plane-surface $-1 0 0 9.2439863635733204 0 0 1 1 0 0 forward_v I I I I #
face $-1 $52 $53 $19 $-1 $54 reversed single #
loop $-1 $-1 $55 $25 #
plane-surface $-1 -55.345409259499746 -38.79133109761959 0 1 0 0 0 0 -1 forward_v I I I I #
face $-1 $56 $57 $20 $-1 $58 reversed single #
loop $-1 $-1 $59 $26 #
plane-surface $-1 -186.37595277241846 6.6863750353156064 82.083476358424633 0 1 0 -0.82903758062907751 0 0.55919289150049634 forward_v I I I I #
face $-1 $60 $61 $21 $-1 $62 forward single #
loop $-1 $63 $64 $27 #
cone-surface $-1 -67.032906047105968 11.617243688371893 5.6436390188821584 0.82903758062907751 0 -0.55919289150049634 0.55919289150049634 0 0.82903758062907751 1 I I 0 1 1 forward I I I I #
face $-1 $65 $66 $22 $-1 $67 reversed single #
loop $-1 $-1 $68 $28 #
plane-surface $-1 107.9582244432934 16.54811234142818 198.34254323955005 0 -1 0 -0.82903758062907751 0 -0.55919289150049634 forward_v I I I I #
face $-1 $69 $70 $23 $-1 $71 forward single #
loop $-1 $72 $73 $29 #
cone-surface $-1 67.032906047105982 11.617243688371893 5.6436390188821424 -0.82903758062907751 0 -0.55919289150049634 0.55919289150049634 0 -0.82903758062907751 1 I I 0 1 1 forward I I I I #
face $-1 $74 $75 $18 $-1 $76 reversed single #
loop $-1 $-1 $77 $30 #
plane-surface $-1 0 0 -9.2439863635733204 0 0 1 1 0 0 forward_v I I I I #
coedge $-1 $78 $79 $80 $81 forward $31 $-1 #
face $-1 $82 $83 $19 $-1 $84 reversed single #
loop $-1 $-1 $85 $33 #
plane-surface $-1 -53.487161211823086 -35.626585350181841 0 0 -1 0 0 0 -1 forward_v I I I I #
coedge $-1 $86 $87 $88 $89 forward $34 $-1 #
face $-1 $90 $91 $20 $-1 $92 reversed single #
loop $-1 $-1 $93 $36 #
plane-surface $-1 -70.116885891293052 11.617243688371893 3.6657480292995785 -0.82903758062907751 0 0.55919289150049634 0.55919289150049634 0 0.82903758062907751 forward_v I I I I #
coedge $-1 $94 $95 $96 $97 reversed $37 $-1 #
face $-1 $-1 $98 $21 $-1 $99 forward single #
loop $-1 $100 $101 $39 #
cone-surface $-1 -65.415691986733336 11.617243688371893 4.5528143955776077 0.82903758062907751 0 -0.55919289150049634 0.27959644575024817 0 0.41451879031453875 1 I I -0.70710678118654746 0.70710678118654746 0.5 forward I I I I #
loop $-1 $-1 $102 $27 #
coedge $-1 $64 $64 $103 $104 reversed $40 $-1 #
face $-1 $105 $106 $22 $-1 $107 reversed single #
loop $-1 $-1 $108 $42 #
plane-surface $-1 -8.3008424378320029 11.617243688371893 119.924814910425 0.82903758062907751 0 0.55919289150049634 0.55919289150049634 0 -0.82903758062907751 forward_v I I I I #
coedge $-1 $109 $110 $111 $112 reversed $43 $-1 #
face $-1 $-1 $113 $23 $-1 $114 forward single #
loop $-1 $115 $116 $45 #
cone-surface $-1 65.41569198673335 11.617243688371893 4.5528143955775917 -0.82903758062907751 0 -0.55919289150049634 0.27959644575024817 0 -0.41451879031453875 1 I I -0.70710678118654746 0.70710678118654746 0.5 forward I I I I #
loop $-1 $-1 $117 $29 #
coedge $-1 $73 $73 $118 $119 reversed $46 $-1 #
face $-1 $120 $121 $18 $-1 $122 reversed single #
loop $-1 $-1 $123 $48 #
plane-surface $-1 0 -41.956076845057339 0 0 1 0 0 0 1 forward_v I I I I #
coedge $-1 $124 $125 $126 $127 forward $49 $-1 #
coedge $-1 $128 $51 $129 $130 forward $31 $-1 #
coedge $-1 $51 $128 $131 $132 forward $31 $-1 #
coedge $-1 $133 $134 $51 $81 reversed $135 $-1 #
edge $-1 $136 -41.956076845057339 $137 41.956076845057339 $80 $138 forward 7 unknown #
face $-1 $139 $140 $19 $-1 $141 forward single #
loop $-1 $-1 $142 $52 #
plane-surface $-1 -51.628913164146425 -38.79133109761959 0 -1 0 0 0 0 1 forward_v I I I I #
coedge $-1 $143 $144 $145 $146 forward $53 $-1 #
coedge $-1 $147 $55 $148 $149 reversed $34 $-1 #
coedge $-1 $55 $147 $150 $151 reversed $34 $-1 #
coedge $-1 $144 $143 $55 $89 reversed $53 $-1 #
edge $-1 $152 -9.2439863635733204 $153 9.2439863635733204 $88 $154 forward 7 unknown #
face $-1 $155 $156 $20 $-1 $157 reversed single #
loop $-1 $-1 $158 $56 #
plane-surface $-1 -186.37595277241846 16.54811234142818 82.083476358424633 0 -1 0 0.82903758062907751 0 -0.55919289150049634 forward_v I I I I #
coedge $-1 $159 $160 $161 $162 reversed $57 $-1 #
coedge $-1 $95 $59 $163 $164 reversed $37 $-1 #
coedge $-1 $59 $94 $159 $165 reversed $37 $-1 #
coedge $-1 $161 $166 $59 $97 forward $167 $-1 #
edge $-1 $168 23.071090494916163 $169 26.833659643174201 $96 $170 forward 7 unknown #
loop $-1 $-1 $103 $60 #
plane-surface $-1 -70.116885891293052 11.617243688371893 3.6657480292995785 -0.82903758062907751 0 0.55919289150049634 0.55919289150049634 0 0.82903758062907751 forward_v I I I I #
loop $-1 $-1 $171 $39 #
coedge $-1 $101 $101 $102 $172 reversed $61 $-1 #
coedge $-1 $102 $102 $101 $172 forward $63 $-1 #
coedge $-1 $103 $103 $64 $104 forward $98 $-1 #
edge $-1 $173 0 $173 6.2831853071796004 $103 $174 forward 7 unknown #
face $-1 $175 $176 $22 $-1 $177 forward single #
loop $-1 $-1 $178 $65 #
plane-surface $-1 107.9582244432934 6.6863750353156064 198.34254323955005 0 1 0 0.82903758062907751 0 0.55919289150049634 forward_v I I I I #
coedge $-1 $179 $180 $181 $182 reversed $66 $-1 #
coedge $-1 $110 $68 $183 $184 reversed $43 $-1 #
coedge $-1 $68 $109 $179 $185 reversed $43 $-1 #
coedge $-1 $181 $186 $68 $112 forward $176 $-1 #
edge $-1 $187 -16.137773669646364 $188 -12.375204521388326 $111 $189 forward 7 unknown #
loop $-1 $-1 $118 $69 #
plane-surface $-1 -8.3008424378320029 11.617243688371893 119.924814910425 0.82903758062907751 0 0.55919289150049634 0.55919289150049634 0 -0.82903758062907751 forward_v I I I I #
loop $-1 $-1 $190 $45 #
coedge $-1 $116 $116 $117 $191 reversed $70 $-1 #
coedge $-1 $117 $117 $116 $191 forward $72 $-1 #
coedge $-1 $118 $118 $73 $119 forward $113 $-1 #
edge $-1 $192 0 $192 6.2831853071796004 $118 $193 forward 7 unknown #
face $-1 $194 $195 $18 $-1 $196 reversed single #
loop $-1 $-1 $197 $74 #
plane-surface $-1 -70.116885891293066 0 0 1 0 0 0 0 -1 forward_v I I I I #
coedge $-1 $198 $131 $199 $200 forward $75 $-1 #
coedge $-1 $201 $77 $198 $202 forward $49 $-1 #
coedge $-1 $77 $201 $203 $204 forward $49 $-1 #
coedge $-1 $134 $133 $77 $127 reversed $135 $-1 #
edge $-1 $205 -41.956076845057339 $206 41.956076845057339 $126 $207 forward 7 unknown #
coedge $-1 $79 $78 $208 $209 forward $31 $-1 #
coedge $-1 $210 $211 $78 $130 reversed $195 $-1 #
edge $-1 $137 -70.116885891293066 $212 70.116885891293066 $129 $213 forward 7 unknown #
coedge $-1 $123 $214 $79 $132 reversed $75 $-1 #
edge $-1 $215 -70.116885891293066 $136 70.116885891293066 $131 $216 forward 7 unknown #
coedge $-1 $126 $80 $214 $217 forward $135 $-1 #
coedge $-1 $80 $126 $210 $218 reversed $135 $-1 #
loop $-1 $-1 $133 $194 #
vertex $-1 $81 $219 #
vertex $-1 $81 $220 #
straight-curve $-1 70.116885891293066 0 9.2439863635733204 0 1 0 I I #
face $-1 $221 $222 $19 $-1 $223 reversed single #
loop $-1 $-1 $224 $82 #
plane-surface $-1 0 0 9.2439863635733204 0 0 1 1 0 0 forward_v I I I I #
coedge $-1 $225 $226 $227 $228 reversed $83 $-1 #
coedge $-1 $88 $85 $229 $230 reversed $53 $-1 #
coedge $-1 $85 $88 $231 $232 reversed $53 $-1 #
coedge $-1 $226 $225 $85 $146 reversed $83 $-1 #
edge $-1 $233 -9.2439863635733204 $234 9.2439863635733204 $145 $235 forward 7 unknown #
coedge $-1 $87 $86 $236 $237 reversed $34 $-1 #
coedge $-1 $229 $238 $86 $149 forward $222 $-1 #
edge $-1 $239 -22.560411296247544 $153 -16.230919801372046 $148 $240 forward 7 unknown #
coedge $-1 $241 $231 $87 $151 forward $140 $-1 #
edge $-1 $152 16.230919801372046 $242 22.560411296247544 $150 $243 forward 7 unknown #
vertex $-1 $151 $244 #
vertex $-1 $149 $245 #
straight-curve $-1 -55.345409259499746 -35.626585350181841 0 0 0 -1 I I #
face $-1 $-1 $167 $20 $-1 $246 forward single #
loop $-1 $-1 $247 $90 #
plane-surface $-1 -70.116885891293066 0 0 1 0 0 0 0 -1 forward_v I I I I #
coedge $-1 $248 $249 $250 $251 reversed $91 $-1 #
coedge $-1 $252 $93 $95 $165 forward $57 $-1 #
coedge $-1 $93 $252 $248 $253 forward $57 $-1 #
coedge $-1 $250 $96 $93 $162 forward $167 $-1 #
edge $-1 $169 0.87775319112965988 $254 10.739490497242233 $161 $255 forward 7 unknown #
coedge $-1 $256 $257 $94 $164 forward $156 $-1 #
edge $-1 $258 -37.375990149912759 $168 -31.797751815638996 $163 $259 forward 7 unknown #
edge $-1 $169 -6.7285711343036425 $258 2.5250441212413278e-014 $95 $260 forward 7 unknown #
coedge $-1 $96 $250 $256 $261 forward $167 $-1 #
loop $-1 $-1 $250 $155 #
vertex $-1 $164 $262 #
vertex $-1 $97 $263 #
straight-curve $-1 -93.187976386209229 6.6863750353156064 9.2439863635733204 1 0 0 I I #
coedge $-1 $171 $171 $-1 $264 reversed $100 $-1 #
edge $-1 $265 0 $265 6.2831853071796004 $101 $266 forward 7 unknown #
vertex $-1 $104 $267 #
ellipse-curve $-1 -68.23560131716404 11.617243688371893 6.4548671964364468 -0.82903758062907751 0 0.55919289150049634 0.55919289150049634 0 0.82903758062907751 1 I I #
face $-1 $-1 $268 $22 $-1 $269 reversed single #
loop $-1 $-1 $111 $105 #
plane-surface $-1 0 0 9.2439863635733204 0 0 1 1 0 0 forward_v I I I I #
coedge $-1 $270 $271 $272 $273 reversed $106 $-1 #
coedge $-1 $274 $108 $110 $185 forward $66 $-1 #
coedge $-1 $108 $274 $270 $275 forward $66 $-1 #
coedge $-1 $272 $111 $108 $182 forward $176 $-1 #
edge $-1 $188 -10.739490497242233 $276 -0.87775319112965988 $181 $277 forward 7 unknown #
coedge $-1 $278 $279 $109 $184 forward $268 $-1 #
edge $-1 $280 -95.505523590475462 $187 -89.927285256201714 $183 $281 forward 7 unknown #
edge $-1 $188 133.50520064828254 $280 140.23377178258619 $110 $282 forward 7 unknown #
coedge $-1 $111 $272 $278 $283 forward $176 $-1 #
vertex $-1 $184 $284 #
vertex $-1 $112 $285 #
straight-curve $-1 53.979112221646702 16.54811234142818 9.2439863635733275 -1 0 0 I I #
coedge $-1 $190 $190 $-1 $286 reversed $115 $-1 #
edge $-1 $287 0 $287 6.2831853071796004 $116 $288 forward 7 unknown #
vertex $-1 $119 $289 #
ellipse-curve $-1 68.235601317164054 11.617243688371893 6.4548671964364344 0.82903758062907751 0 0.55919289150049634 0.55919289150049634 0 -0.82903758062907751 1 I I #
face $-1 $-1 $135 $18 $-1 $290 reversed single #
loop $-1 $-1 $210 $120 #
plane-surface $-1 0 41.956076845057339 0 0 -1 0 0 0 -1 forward_v I I I I #
coedge $-1 $291 $208 $211 $292 forward $121 $-1 #
coedge $-1 $214 $123 $124 $202 reversed $75 $-1 #
coedge $-1 $208 $291 $123 $200 reversed $121 $-1 #
edge $-1 $215 -9.2439863635733204 $293 9.2439863635733204 $199 $294 forward 7 unknown #
coedge $-1 $125 $124 $291 $295 forward $49 $-1 #
edge $-1 $206 -70.116885891293066 $293 70.116885891293066 $198 $296 forward 7 unknown #
coedge $-1 $211 $210 $125 $204 reversed $195 $-1 #
edge $-1 $297 -70.116885891293066 $205 70.116885891293066 $203 $298 forward 7 unknown #
vertex $-1 $127 $299 #
vertex $-1 $217 $300 #
straight-curve $-1 70.116885891293066 0 -9.2439863635733204 0 -1 0 I I #
coedge $-1 $197 $199 $128 $209 reversed $121 $-1 #
edge $-1 $212 -41.956076845057339 $215 41.956076845057339 $208 $301 forward 7 unknown #
coedge $-1 $203 $129 $134 $218 forward $195 $-1 #
coedge $-1 $129 $203 $197 $292 reversed $195 $-1 #
vertex $-1 $130 $302 #
straight-curve $-1 0 41.956076845057339 9.2439863635733204 -1 0 0 I I #
coedge $-1 $131 $198 $133 $217 reversed $75 $-1 #
vertex $-1 $209 $303 #
straight-curve $-1 0 -41.956076845057339 9.2439863635733204 1 0 0 I I #
edge $-1 $136 -9.2439863635733204 $206 9.2439863635733204 $133 $304 forward 7 unknown #
edge $-1 $137 -9.2439863635733204 $205 9.2439863635733204 $134 $305 forward 7 unknown #
point $-1 70.116885891293066 -41.956076845057339 9.2439863635733204 #
point $-1 70.116885891293066 41.956076845057339 9.2439863635733204 #
face $-1 $-1 $306 $19 $-1 $307 reversed single #
loop $-1 $-1 $308 $139 #
plane-surface $-1 0 0 -9.2439863635733204 0 0 1 1 0 0 forward_v I I I I #
coedge $-1 $231 $241 $226 $309 forward $140 $-1 #
coedge $-1 $145 $142 $308 $310 reversed $83 $-1 #
coedge $-1 $142 $145 $224 $309 reversed $83 $-1 #
coedge $-1 $311 $312 $142 $228 forward $306 $-1 #
edge $-1 $313 -9.2439863635733204 $314 9.2439863635733204 $227 $315 forward 7 unknown #
coedge $-1 $308 $148 $143 $230 forward $222 $-1 #
edge $-1 $153 -28.601828653588203 $234 -24.885332558234882 $229 $316 forward 7 unknown #
coedge $-1 $150 $224 $144 $232 forward $140 $-1 #
edge $-1 $233 24.885332558234882 $152 28.601828653588203 $231 $317 forward 7 unknown #
vertex $-1 $232 $318 #
vertex $-1 $230 $319 #
straight-curve $-1 -51.628913164146425 -35.626585350181841 0 0 0 -1 I I #
coedge $-1 $312 $311 $147 $237 forward $306 $-1 #
edge $-1 $242 -9.2439863635733204 $239 9.2439863635733204 $236 $320 forward 7 unknown #
coedge $-1 $148 $308 $312 $321 forward $222 $-1 #
vertex $-1 $149 $322 #
straight-curve $-1 -55.345409259499746 -19.395665548809795 -9.2439863635733204 0 1 0 I I #
coedge $-1 $224 $150 $311 $323 forward $140 $-1 #
vertex $-1 $323 $324 #
straight-curve $-1 -55.345409259499746 -19.395665548809795 9.2439863635733204 0 -1 0 I I #
point $-1 -55.345409259499746 -35.626585350181841 9.2439863635733204 #
point $-1 -55.345409259499746 -35.626585350181841 -9.2439863635733204 #
plane-surface $-1 0 0 9.2439863635733204 0 0 1 1 0 0 forward_v I I I I #
coedge $-1 $257 $256 $249 $325 forward $156 $-1 #
coedge $-1 $249 $158 $160 $253 reversed $91 $-1 #
coedge $-1 $158 $248 $247 $325 reversed $91 $-1 #
coedge $-1 $166 $161 $158 $251 forward $167 $-1 #
edge $-1 $254 -26.833659643174201 $326 -23.071090494916163 $250 $327 forward 7 unknown #
coedge $-1 $160 $159 $257 $328 reversed $57 $-1 #
edge $-1 $329 -2.5250441212413278e-014 $254 6.7285711343036425 $248 $330 forward 7 unknown #
vertex $-1 $162 $331 #
straight-curve $-1 -66.354316743035014 5.8086218441859465 9.2439863635733222 0 1 0 I I #
coedge $-1 $247 $163 $166 $261 reversed $156 $-1 #
coedge $-1 $163 $247 $252 $328 forward $156 $-1 #
vertex $-1 $164 $332 #
straight-curve $-1 -70.116885891293066 6.6863750353156064 41.041738179212317 0 0 1 I I #
straight-curve $-1 -70.116885891293052 6.6863750353156064 3.6657480292995785 -0.55919289150049634 0 -0.82903758062907751 I I #
edge $-1 $326 -16.54811234142818 $168 -6.6863750353156064 $256 $333 forward 7 unknown #
point $-1 -70.116885891293066 6.6863750353156064 9.2439863635733204 #
point $-1 -66.354316743035028 6.6863750353156064 9.2439863635733204 #
edge $-1 $334 1 $334 0 $171 $-1 forward 7 unknown #
vertex $-1 $172 $335 #
ellipse-curve $-1 -65.830210777047881 11.617243688371893 4.8324108413278557 -0.82903758062907751 0 0.55919289150049634 0.55919289150049634 0 0.82903758062907751 1 I I #
point $-1 -67.676408425663567 11.617243688371893 7.2839047770655387 #
loop $-1 $-1 $183 $175 #
plane-surface $-1 70.116885891293066 0 0 -1 0 0 0 0 1 forward_v I I I I #
coedge $-1 $271 $178 $180 $275 reversed $106 $-1 #
coedge $-1 $178 $270 $336 $337 reversed $106 $-1 #
coedge $-1 $186 $181 $178 $273 forward $176 $-1 #
edge $-1 $276 12.375204521388326 $338 16.137773669646364 $272 $339 forward 7 unknown #
coedge $-1 $180 $179 $279 $340 reversed $66 $-1 #
edge $-1 $341 -140.23377178258619 $276 -133.50520064828254 $270 $342 forward 7 unknown #
vertex $-1 $182 $343 #
straight-curve $-1 66.354316743035042 5.8086218441859465 9.2439863635733133 0 -1 0 I I #
coedge $-1 $336 $183 $186 $283 reversed $268 $-1 #
coedge $-1 $183 $336 $274 $340 forward $268 $-1 #
vertex $-1 $184 $344 #
straight-curve $-1 70.116885891293066 16.54811234142818 99.171271619775027 0 0 1 I I #
straight-curve $-1 -8.3008424378320029 16.54811234142818 119.924814910425 0.55919289150049634 0 -0.82903758062907751 I I #
edge $-1 $338 6.6863750353156064 $187 16.54811234142818 $278 $345 forward 7 unknown #
point $-1 70.116885891293066 16.54811234142818 9.2439863635733204 #
point $-1 66.354316743035028 16.54811234142818 9.2439863635733133 #
edge $-1 $346 1 $346 0 $190 $-1 forward 7 unknown #
vertex $-1 $191 $347 #
ellipse-curve $-1 65.830210777047895 11.617243688371893 4.8324108413278397 0.82903758062907751 0 0.55919289150049634 0.55919289150049634 0 -0.82903758062907751 1 I I #
point $-1 68.79479420866457 11.617243688371893 5.6258296158073673 #
plane-surface $-1 70.116885891293066 0 0 -1 0 0 0 0 1 forward_v I I I I #
coedge $-1 $199 $197 $201 $295 reversed $121 $-1 #
edge $-1 $212 -9.2439863635733204 $297 9.2439863635733204 $211 $348 forward 7 unknown #
vertex $-1 $295 $349 #
straight-curve $-1 -70.116885891293066 -41.956076845057339 0 0 0 -1 I I #
edge $-1 $293 -41.956076845057339 $297 41.956076845057339 $291 $350 forward 7 unknown #
straight-curve $-1 0 -41.956076845057339 -9.2439863635733204 -1 0 0 I I #
vertex $-1 $204 $351 #
straight-curve $-1 0 41.956076845057339 -9.2439863635733204 1 0 0 I I #
point $-1 70.116885891293066 41.956076845057339 -9.2439863635733204 #
point $-1 70.116885891293066 -41.956076845057339 -9.2439863635733204 #
straight-curve $-1 -70.116885891293066 0 9.2439863635733204 0 -1 0 I I #
point $-1 -70.116885891293066 41.956076845057339 9.2439863635733204 #
point $-1 -70.116885891293066 -41.956076845057339 9.2439863635733204 #
straight-curve $-1 70.116885891293066 -41.956076845057339 0 0 0 -1 I I #
straight-curve $-1 70.116885891293066 41.956076845057339 0 0 0 -1 I I #
loop $-1 $-1 $227 $221 #
plane-surface $-1 0 -41.956076845057339 0 0 1 0 0 0 1 forward_v I I I I #
coedge $-1 $238 $229 $225 $310 forward $222 $-1 #
edge $-1 $314 -22.560411296247544 $233 -16.230919801372046 $224 $352 forward 7 unknown #
edge $-1 $234 16.230919801372046 $313 22.560411296247544 $308 $353 forward 7 unknown #
coedge $-1 $236 $227 $241 $323 reversed $306 $-1 #
coedge $-1 $227 $236 $238 $321 reversed $306 $-1 #
vertex $-1 $321 $354 #
vertex $-1 $228 $355 #
straight-curve $-1 -51.628913164146425 -41.956076845057339 0 0 0 1 I I #
straight-curve $-1 -26.743580605911543 -35.626585350181841 -9.2439863635733204 1 0 0 I I #
straight-curve $-1 -26.743580605911543 -35.626585350181841 9.2439863635733204 -1 0 0 I I #
point $-1 -51.628913164146425 -35.626585350181841 9.2439863635733204 #
point $-1 -51.628913164146425 -35.626585350181841 -9.2439863635733204 #
straight-curve $-1 -55.345409259499746 -41.956076845057339 0 0 0 -1 I I #
edge $-1 $313 51.628913164146425 $239 55.345409259499746 $312 $356 forward 7 unknown #
point $-1 -55.345409259499746 -41.956076845057339 -9.2439863635733204 #
edge $-1 $242 -55.345409259499746 $314 -51.628913164146425 $311 $357 forward 7 unknown #
point $-1 -55.345409259499746 -41.956076845057339 9.2439863635733204 #
edge $-1 $326 31.797751815638996 $329 37.375990149912759 $247 $358 forward 7 unknown #
vertex $-1 $261 $359 #
straight-curve $-1 -93.187976386209229 16.54811234142818 9.2439863635733204 -1 0 0 I I #
edge $-1 $329 -10.739490497242233 $258 -0.87775319112965988 $257 $360 forward 7 unknown #
vertex $-1 $328 $361 #
straight-curve $-1 -70.116885891293052 16.54811234142818 3.6657480292995785 0.55919289150049634 0 0.82903758062907751 I I #
point $-1 -66.354316743035028 16.54811234142818 9.2439863635733204 #
point $-1 -70.116885891293066 6.6863750353156064 3.6657480292995577 #
straight-curve $-1 -70.116885891293066 0 9.2439863635733204 0 -1 0 I I #
vertex $-1 $264 $362 #
point $-1 -65.27101788554738 11.617243688371893 5.6614484219569334 #
coedge $-1 $279 $278 $271 $337 forward $268 $-1 #
edge $-1 $338 89.927285256201714 $341 95.505523590475462 $336 $363 forward 7 unknown #
vertex $-1 $283 $364 #
straight-curve $-1 53.979112221646702 6.6863750353156064 9.2439863635733275 1 0 0 I I #
edge $-1 $341 0.87775319112965988 $280 10.739490497242233 $279 $365 forward 7 unknown #
vertex $-1 $340 $366 #
straight-curve $-1 -8.3008424378320029 6.6863750353156064 119.924814910425 -0.55919289150049634 0 0.82903758062907751 I I #
point $-1 66.354316743035028 6.6863750353156064 9.2439863635733133 #
point $-1 70.116885891293066 16.54811234142818 3.6657480292995643 #
straight-curve $-1 70.116885891293066 0 9.2439863635733204 0 1 0 I I #
vertex $-1 $286 $367 #
point $-1 66.389403668548383 11.617243688371893 4.003373260698762 #
straight-curve $-1 -70.116885891293066 41.956076845057339 0 0 0 -1 I I #
point $-1 -70.116885891293066 -41.956076845057339 -9.2439863635733204 #
straight-curve $-1 -70.116885891293066 0 -9.2439863635733204 0 1 0 I I #
point $-1 -70.116885891293066 41.956076845057339 -9.2439863635733204 #
straight-curve $-1 -51.628913164146425 -19.395665548809795 9.2439863635733204 0 1 0 I I #
straight-curve $-1 -51.628913164146425 -19.395665548809795 -9.2439863635733204 0 -1 0 I I #
point $-1 -51.628913164146425 -41.956076845057339 -9.2439863635733204 #
point $-1 -51.628913164146425 -41.956076845057339 9.2439863635733204 #
straight-curve $-1 0 -41.956076845057339 -9.2439863635733204 -1 0 0 I I #
straight-curve $-1 0 -41.956076845057339 9.2439863635733204 1 0 0 I I #
straight-curve $-1 -70.116885891293066 16.54811234142818 41.041738179212317 0 0 -1 I I #
point $-1 -70.116885891293066 16.54811234142818 9.2439863635733204 #
straight-curve $-1 -70.116885891293066 5.8086218441859465 3.665748029299575 0 -1 0 I I #
point $-1 -70.116885891293066 16.54811234142818 3.6657480292995577 #
point $-1 -65.00117319641879 11.617243688371893 4.2732179498273597 #
straight-curve $-1 70.116885891293066 6.6863750353156064 99.171271619775027 0 0 -1 I I #
point $-1 70.116885891293066 6.6863750353156064 9.2439863635733204 #
straight-curve $-1 70.116885891293066 5.8086218441859465 3.6657480292995643 0 1 0 I I #
point $-1 70.116885891293066 6.6863750353156064 3.6657480292995643 #
point $-1 65.001173196418804 11.617243688371893 4.2732179498273437 #
End-of-ACIS-data 