500 0 14 0           
7 Unknown 11 ACIS 5.0 NT 24 Thu Mar 25 20:31:04 1999 
-1 9.9999999999999995e-007 1e-010 
body $-1 $14 $-1 $15 #
body $-1 $16 $-1 $17 #
body $-1 $18 $-1 $19 #
body $-1 $20 $-1 $21 #
body $-1 $22 $-1 $23 #
body $-1 $24 $-1 $25 #
body $-1 $26 $-1 $27 #
body $-1 $28 $-1 $29 #
body $-1 $30 $-1 $31 #
body $-1 $32 $-1 $33 #
body $-1 $34 $-1 $35 #
body $-1 $36 $-1 $37 #
body $-1 $38 $-1 $39 #
body $-1 $40 $-1 $41 #
lump $-1 $-1 $42 $0 #
transform $-1 1 0 0 0 1 0 0 0 1 79.086886196478162 47.268455701176428 12.527648238951583 1 rotate no_reflect no_shear #
lump $-1 $-1 $43 $1 #
transform $-1 1 0 0 0 1 0 0 0 1 79.086886196478162 5.7038974653606225 2.9008156219183121 1 rotate no_reflect no_shear #
lump $-1 $-1 $44 $2 #
transform $-1 1 0 0 0 1 0 0 0 1 79.086886196478162 88.833013936992245 2.9008156219183121 1 rotate no_reflect no_shear #
lump $-1 $-1 $45 $3 #
transform $-1 0.79863550430605224 0 -0.6018150307709319 0 1 0 0.6018150307709319 0 0.79863550430605224 127.0419356097383 28.659332451580063 234.40798060762739 1 rotate no_reflect no_shear #
lump $-1 $-1 $46 $4 #
transform $-1 0.79863550430605224 0 -0.6018150307709319 0 -1 0 -0.6018150307709319 0 -0.79863550430605224 146.8823833862852 24.888154077963438 14.698996423049181 1 rotate no_reflect no_shear #
lump $-1 $-1 $47 $5 #
transform $-1 0.79863550430605224 0 -0.6018150307709319 0 -1 0 -0.6018150307709319 0 -0.79863550430605224 146.8823833862852 32.430510825196691 14.698996423049181 1 rotate no_reflect no_shear #
lump $-1 $-1 $48 $6 #
transform $-1 0.5877852410284794 0 0.80901700255871778 0 1 0 -0.80901700255871778 0 0.5877852410284794 -127.96527122475436 22.038455948143753 108.22320545895053 1 rotate no_reflect no_shear #
lump $-1 $-1 $49 $7 #
transform $-1 0.5877852410284794 0 0.80901700255871778 0 -1 0 0.80901700255871778 0 -0.5877852410284794 6.960580570413935 17.474618590677686 17.683657410589738 1 rotate no_reflect no_shear #
lump $-1 $-1 $50 $8 #
transform $-1 0.5877852410284794 0 0.80901700255871778 0 -1 0 0.80901700255871778 0 -0.5877852410284794 6.960580570413935 22.038455948143749 17.683657410589738 1 rotate no_reflect no_shear #
lump $-1 $-1 $51 $9 #
transform $-1 0.5877852410284794 0 0.80901700255871778 0 -1 0 0.80901700255871778 0 -0.5877852410284794 6.960580570413935 26.602293305609813 17.683657410589738 1 rotate no_reflect no_shear #
lump $-1 $-1 $52 $10 #
transform $-1 0.5877852410284794 0 0.80901700255871778 0 1 0 -0.80901700255871778 0 0.5877852410284794 -127.96527122475436 57.899116718598933 108.22320545895053 1 rotate no_reflect no_shear #
lump $-1 $-1 $53 $11 #
transform $-1 0.5877852410284794 0 0.80901700255871778 0 -1 0 0.80901700255871778 0 -0.5877852410284794 6.960580570413935 53.335279361132869 17.683657410589738 1 rotate no_reflect no_shear #
lump $-1 $-1 $54 $12 #
transform $-1 0.5877852410284794 0 0.80901700255871778 0 -1 0 0.80901700255871778 0 -0.5877852410284794 6.960580570413935 57.899116718598933 17.683657410589738 1 rotate no_reflect no_shear #
lump $-1 $-1 $55 $13 #
transform $-1 0.5877852410284794 0 0.80901700255871778 0 -1 0 0.80901700255871778 0 -0.5877852410284794 6.960580570413935 62.462954076064996 17.683657410589738 1 rotate no_reflect no_shear #
shell $-1 $-1 $-1 $56 $-1 $14 #
shell $-1 $-1 $-1 $57 $-1 $16 #
shell $-1 $-1 $-1 $58 $-1 $18 #
shell $-1 $-1 $-1 $59 $-1 $20 #
shell $-1 $-1 $-1 $60 $-1 $22 #
shell $-1 $-1 $-1 $61 $-1 $24 #
shell $-1 $-1 $-1 $62 $-1 $26 #
shell $-1 $-1 $-1 $63 $-1 $28 #
shell $-1 $-1 $-1 $64 $-1 $30 #
shell $-1 $-1 $-1 $65 $-1 $32 #
shell $-1 $-1 $-1 $66 $-1 $34 #
shell $-1 $-1 $-1 $67 $-1 $36 #
shell $-1 $-1 $-1 $68 $-1 $38 #
shell $-1 $-1 $-1 $69 $-1 $40 #
face $-1 $70 $71 $42 $-1 $72 forward single #
face $-1 $73 $74 $43 $-1 $75 forward single #
face $-1 $76 $77 $44 $-1 $78 forward single #
face $-1 $79 $80 $45 $-1 $81 forward single #
face $-1 $82 $83 $46 $-1 $84 forward single #
face $-1 $85 $86 $47 $-1 $87 forward single #
face $-1 $88 $89 $48 $-1 $90 forward single #
face $-1 $91 $92 $49 $-1 $93 forward single #
face $-1 $94 $95 $50 $-1 $96 forward single #
face $-1 $97 $98 $51 $-1 $99 forward single #
face $-1 $100 $101 $52 $-1 $102 forward single #
face $-1 $103 $104 $53 $-1 $105 forward single #
face $-1 $106 $107 $54 $-1 $108 forward single #
face $-1 $109 $110 $55 $-1 $111 forward single #
face $-1 $112 $113 $42 $-1 $114 reversed single #
loop $-1 $-1 $115 $56 #
plane-surface $-1 0 0 12.527648238951583 0 0 1 1 0 0 forward_v I I I I #
face $-1 $116 $117 $43 $-1 $118 reversed single #
loop $-1 $-1 $119 $57 #
plane-surface $-1 0 0 2.9008156219183121 0 0 1 1 0 0 forward_v I I I I #
face $-1 $120 $121 $44 $-1 $122 reversed single #
loop $-1 $-1 $123 $58 #
plane-surface $-1 0 0 2.9008156219183121 0 0 1 1 0 0 forward_v I I I I #
face $-1 $124 $125 $45 $-1 $126 reversed single #
loop $-1 $-1 $127 $59 #
plane-surface $-1 0 0 158.17377239295632 0 0 1 1 0 0 forward_v I I I I #
face $-1 $128 $129 $46 $-1 $130 forward single #
loop $-1 $131 $132 $60 #
cone-surface $-1 0 0 -3.1766716513565481 0 0 1 2 0 0 1 I I 0 1 2 forward I I I I #
face $-1 $133 $134 $47 $-1 $135 forward single #
loop $-1 $136 $137 $61 #
cone-surface $-1 0 0 -3.1766716513565481 0 0 1 2 0 0 1 I I 0 1 2 forward I I I I #
face $-1 $138 $139 $48 $-1 $140 reversed single #
loop $-1 $-1 $141 $62 #
plane-surface $-1 0 0 158.17377239295632 0 0 1 1 0 0 forward_v I I I I #
face $-1 $142 $143 $49 $-1 $144 forward single #
loop $-1 $145 $146 $63 #
cone-surface $-1 0 0 -2.3506729331339464 0 0 1 1 0 0 1 I I 0 1 1 forward I I I I #
face $-1 $147 $148 $50 $-1 $149 forward single #
loop $-1 $150 $151 $64 #
cone-surface $-1 0 0 -2.3506729331339464 0 0 1 1 0 0 1 I I 0 1 1 forward I I I I #
face $-1 $152 $153 $51 $-1 $154 forward single #
loop $-1 $155 $156 $65 #
cone-surface $-1 0 0 -2.3506729331339464 0 0 1 1 0 0 1 I I 0 1 1 forward I I I I #
face $-1 $157 $158 $52 $-1 $159 reversed single #
loop $-1 $-1 $160 $66 #
plane-surface $-1 0 0 158.17377239295632 0 0 1 1 0 0 forward_v I I I I #
face $-1 $161 $162 $53 $-1 $163 forward single #
loop $-1 $164 $165 $67 #
cone-surface $-1 0 0 -2.3506729331339464 0 0 1 1 0 0 1 I I 0 1 1 forward I I I I #
face $-1 $166 $167 $54 $-1 $168 forward single #
loop $-1 $169 $170 $68 #
cone-surface $-1 0 0 -2.3506729331339464 0 0 1 1 0 0 1 I I 0 1 1 forward I I I I #
face $-1 $171 $172 $55 $-1 $173 forward single #
loop $-1 $174 $175 $69 #
cone-surface $-1 0 0 -2.3506729331339464 0 0 1 1 0 0 1 I I 0 1 1 forward I I I I #
face $-1 $176 $177 $42 $-1 $178 reversed single #
loop $-1 $-1 $179 $70 #
plane-surface $-1 0 0 -12.527648238951583 0 0 1 1 0 0 forward_v I I I I #
coedge $-1 $180 $181 $182 $183 forward $71 $-1 #
face $-1 $184 $185 $43 $-1 $186 reversed single #
loop $-1 $-1 $187 $73 #
plane-surface $-1 0 0 -2.9008156219183121 0 0 1 1 0 0 forward_v I I I I #
coedge $-1 $188 $189 $190 $191 forward $74 $-1 #
face $-1 $192 $193 $44 $-1 $194 reversed single #
loop $-1 $-1 $195 $76 #
plane-surface $-1 0 0 -2.9008156219183121 0 0 1 1 0 0 forward_v I I I I #
coedge $-1 $196 $197 $198 $199 forward $77 $-1 #
face $-1 $200 $201 $45 $-1 $202 reversed single #
loop $-1 $-1 $203 $79 #
plane-surface $-1 0 0 -158.17377239295632 0 0 1 1 0 0 forward_v I I I I #
coedge $-1 $204 $205 $206 $207 forward $80 $-1 #
face $-1 $-1 $208 $46 $-1 $209 forward single #
loop $-1 $-1 $210 $82 #
plane-surface $-1 0 0 -5.3533433027130961 0 0 -1 -1 0 0 forward_v I I I I #
loop $-1 $-1 $211 $60 #
coedge $-1 $132 $132 $210 $212 reversed $83 $-1 #
face $-1 $-1 $213 $47 $-1 $214 forward single #
loop $-1 $-1 $215 $85 #
plane-surface $-1 0 0 -5.3533433027130961 0 0 -1 -1 0 0 forward_v I I I I #
loop $-1 $-1 $216 $61 #
coedge $-1 $137 $137 $215 $217 reversed $86 $-1 #
face $-1 $218 $219 $48 $-1 $220 reversed single #
loop $-1 $-1 $221 $88 #
plane-surface $-1 0 0 -158.17377239295632 0 0 1 1 0 0 forward_v I I I I #
coedge $-1 $222 $223 $224 $225 forward $89 $-1 #
face $-1 $-1 $226 $49 $-1 $227 forward single #
loop $-1 $-1 $228 $91 #
plane-surface $-1 0 0 -4.201345866267892 0 0 -1 -1 0 0 forward_v I I I I #
loop $-1 $-1 $229 $63 #
coedge $-1 $146 $146 $228 $230 reversed $92 $-1 #
face $-1 $-1 $231 $50 $-1 $232 forward single #
loop $-1 $-1 $233 $94 #
plane-surface $-1 0 0 -4.201345866267892 0 0 -1 -1 0 0 forward_v I I I I #
loop $-1 $-1 $234 $64 #
coedge $-1 $151 $151 $233 $235 reversed $95 $-1 #
face $-1 $-1 $236 $51 $-1 $237 forward single #
loop $-1 $-1 $238 $97 #
plane-surface $-1 0 0 -4.201345866267892 0 0 -1 -1 0 0 forward_v I I I I #
loop $-1 $-1 $239 $65 #
coedge $-1 $156 $156 $238 $240 reversed $98 $-1 #
face $-1 $241 $242 $52 $-1 $243 reversed single #
loop $-1 $-1 $244 $100 #
plane-surface $-1 0 0 -158.17377239295632 0 0 1 1 0 0 forward_v I I I I #
coedge $-1 $245 $246 $247 $248 forward $101 $-1 #
face $-1 $-1 $249 $53 $-1 $250 forward single #
loop $-1 $-1 $251 $103 #
plane-surface $-1 0 0 -4.201345866267892 0 0 -1 -1 0 0 forward_v I I I I #
loop $-1 $-1 $252 $67 #
coedge $-1 $165 $165 $251 $253 reversed $104 $-1 #
face $-1 $-1 $254 $54 $-1 $255 forward single #
loop $-1 $-1 $256 $106 #
plane-surface $-1 0 0 -4.201345866267892 0 0 -1 -1 0 0 forward_v I I I I #
loop $-1 $-1 $257 $68 #
coedge $-1 $170 $170 $256 $258 reversed $107 $-1 #
face $-1 $-1 $259 $55 $-1 $260 forward single #
loop $-1 $-1 $261 $109 #
plane-surface $-1 0 0 -4.201345866267892 0 0 -1 -1 0 0 forward_v I I I I #
loop $-1 $-1 $262 $69 #
coedge $-1 $175 $175 $261 $263 reversed $110 $-1 #
face $-1 $264 $265 $42 $-1 $266 reversed single #
loop $-1 $-1 $267 $112 #
plane-surface $-1 0 -47.268455701176428 0 0 1 0 0 0 1 forward_v I I I I #
coedge $-1 $268 $269 $270 $271 forward $113 $-1 #
coedge $-1 $272 $115 $273 $274 forward $71 $-1 #
coedge $-1 $115 $272 $275 $276 forward $71 $-1 #
coedge $-1 $277 $278 $115 $183 reversed $279 $-1 #
edge $-1 $280 -47.268455701176428 $281 47.268455701176428 $182 $282 forward 7 unknown #
face $-1 $283 $284 $43 $-1 $285 reversed single #
loop $-1 $-1 $286 $116 #
plane-surface $-1 0 -5.7038974653606225 0 0 1 0 0 0 1 forward_v I I I I #
coedge $-1 $287 $288 $289 $290 forward $117 $-1 #
coedge $-1 $291 $119 $292 $293 forward $74 $-1 #
coedge $-1 $119 $291 $294 $295 forward $74 $-1 #
coedge $-1 $296 $297 $119 $191 reversed $298 $-1 #
edge $-1 $299 -5.7038974653606225 $300 5.7038974653606225 $190 $301 forward 7 unknown #
face $-1 $302 $303 $44 $-1 $304 reversed single #
loop $-1 $-1 $305 $120 #
plane-surface $-1 0 -5.7038974653606189 0 0 1 0 0 0 1 forward_v I I I I #
coedge $-1 $306 $307 $308 $309 forward $121 $-1 #
coedge $-1 $310 $123 $311 $312 forward $77 $-1 #
coedge $-1 $123 $310 $313 $314 forward $77 $-1 #
coedge $-1 $315 $316 $123 $199 reversed $317 $-1 #
edge $-1 $318 -5.7038974653606189 $319 5.7038974653606189 $198 $320 forward 7 unknown #
face $-1 $321 $322 $45 $-1 $323 reversed single #
loop $-1 $-1 $324 $124 #
plane-surface $-1 0 -8.7994162051054641 0 0 1 0 0 0 1 forward_v I I I I #
coedge $-1 $325 $326 $327 $328 forward $125 $-1 #
coedge $-1 $329 $127 $330 $331 forward $80 $-1 #
coedge $-1 $127 $329 $332 $333 forward $80 $-1 #
coedge $-1 $334 $335 $127 $207 reversed $336 $-1 #
edge $-1 $337 -8.7994162051054641 $338 8.7994162051054641 $206 $339 forward 7 unknown #
loop $-1 $340 $341 $128 #
cone-surface $-1 0 0 0 0 0 1 1 0 0 1 I I -0.70710678118654746 0.70710678118654746 1 forward I I I I #
coedge $-1 $210 $210 $132 $212 forward $129 $-1 #
coedge $-1 $211 $211 $341 $342 forward $131 $-1 #
edge $-1 $343 0 $343 6.2831853071796004 $210 $344 forward 7 unknown #
loop $-1 $345 $346 $133 #
cone-surface $-1 0 0 0 0 0 1 1 0 0 1 I I -0.70710678118654746 0.70710678118654746 1 forward I I I I #
coedge $-1 $215 $215 $137 $217 forward $134 $-1 #
coedge $-1 $216 $216 $346 $347 forward $136 $-1 #
edge $-1 $348 0 $348 6.2831853071796004 $215 $349 forward 7 unknown #
face $-1 $350 $351 $48 $-1 $352 reversed single #
loop $-1 $-1 $353 $138 #
plane-surface $-1 0 -7.6063955957767773 0 0 1 0 0 0 1 forward_v I I I I #
coedge $-1 $354 $355 $356 $357 forward $139 $-1 #
coedge $-1 $358 $141 $359 $360 forward $89 $-1 #
coedge $-1 $141 $358 $361 $362 forward $89 $-1 #
coedge $-1 $363 $364 $141 $225 reversed $365 $-1 #
edge $-1 $366 -7.6063955957767773 $367 7.6063955957767773 $224 $368 forward 7 unknown #
loop $-1 $369 $370 $142 #
cone-surface $-1 0 0 0 0 0 1 0.5 0 0 1 I I -0.70710678118654746 0.70710678118654746 0.5 forward I I I I #
coedge $-1 $228 $228 $146 $230 forward $143 $-1 #
coedge $-1 $229 $229 $370 $371 forward $145 $-1 #
edge $-1 $372 0 $372 6.2831853071796004 $228 $373 forward 7 unknown #
loop $-1 $374 $375 $147 #
cone-surface $-1 0 0 0 0 0 1 0.5 0 0 1 I I -0.70710678118654746 0.70710678118654746 0.5 forward I I I I #
coedge $-1 $233 $233 $151 $235 forward $148 $-1 #
coedge $-1 $234 $234 $375 $376 forward $150 $-1 #
edge $-1 $377 0 $377 6.2831853071796004 $233 $378 forward 7 unknown #
loop $-1 $379 $380 $152 #
cone-surface $-1 0 0 0 0 0 1 0.5 0 0 1 I I -0.70710678118654746 0.70710678118654746 0.5 forward I I I I #
coedge $-1 $238 $238 $156 $240 forward $153 $-1 #
coedge $-1 $239 $239 $380 $381 forward $155 $-1 #
edge $-1 $382 0 $382 6.2831853071796004 $238 $383 forward 7 unknown #
face $-1 $384 $385 $52 $-1 $386 reversed single #
loop $-1 $-1 $387 $157 #
plane-surface $-1 0 -7.6063955957767773 0 0 1 0 0 0 1 forward_v I I I I #
coedge $-1 $388 $389 $390 $391 forward $158 $-1 #
coedge $-1 $392 $160 $393 $394 forward $101 $-1 #
coedge $-1 $160 $392 $395 $396 forward $101 $-1 #
coedge $-1 $397 $398 $160 $248 reversed $399 $-1 #
edge $-1 $400 -7.6063955957767773 $401 7.6063955957767773 $247 $402 forward 7 unknown #
loop $-1 $403 $404 $161 #
cone-surface $-1 0 0 0 0 0 1 0.5 0 0 1 I I -0.70710678118654746 0.70710678118654746 0.5 forward I I I I #
coedge $-1 $251 $251 $165 $253 forward $162 $-1 #
coedge $-1 $252 $252 $404 $405 forward $164 $-1 #
edge $-1 $406 0 $406 6.2831853071796004 $251 $407 forward 7 unknown #
loop $-1 $408 $409 $166 #
cone-surface $-1 0 0 0 0 0 1 0.5 0 0 1 I I -0.70710678118654746 0.70710678118654746 0.5 forward I I I I #
coedge $-1 $256 $256 $170 $258 forward $167 $-1 #
coedge $-1 $257 $257 $409 $410 forward $169 $-1 #
edge $-1 $411 0 $411 6.2831853071796004 $256 $412 forward 7 unknown #
loop $-1 $413 $414 $171 #
cone-surface $-1 0 0 0 0 0 1 0.5 0 0 1 I I -0.70710678118654746 0.70710678118654746 0.5 forward I I I I #
coedge $-1 $261 $261 $175 $263 forward $172 $-1 #
coedge $-1 $262 $262 $414 $415 forward $174 $-1 #
edge $-1 $416 0 $416 6.2831853071796004 $261 $417 forward 7 unknown #
face $-1 $418 $419 $42 $-1 $420 reversed single #
loop $-1 $-1 $421 $176 #
plane-surface $-1 -79.086886196478162 0 0 1 0 0 0 0 -1 forward_v I I I I #
coedge $-1 $422 $275 $423 $424 forward $177 $-1 #
coedge $-1 $425 $179 $422 $426 forward $113 $-1 #
coedge $-1 $179 $425 $427 $428 forward $113 $-1 #
coedge $-1 $278 $277 $179 $271 reversed $279 $-1 #
edge $-1 $429 -47.268455701176428 $430 47.268455701176428 $270 $431 forward 7 unknown #
coedge $-1 $181 $180 $432 $433 forward $71 $-1 #
coedge $-1 $434 $435 $180 $274 reversed $419 $-1 #
edge $-1 $281 -79.086886196478162 $436 79.086886196478162 $273 $437 forward 7 unknown #
coedge $-1 $267 $438 $181 $276 reversed $177 $-1 #
edge $-1 $439 -79.086886196478162 $280 79.086886196478162 $275 $440 forward 7 unknown #
coedge $-1 $270 $182 $438 $441 forward $279 $-1 #
coedge $-1 $182 $270 $434 $442 reversed $279 $-1 #
loop $-1 $-1 $277 $418 #
vertex $-1 $183 $443 #
vertex $-1 $183 $444 #
straight-curve $-1 79.086886196478162 0 12.527648238951583 0 1 0 I I #
face $-1 $445 $446 $43 $-1 $447 reversed single #
loop $-1 $-1 $448 $184 #
plane-surface $-1 -79.086886196478162 0 0 1 0 0 0 0 -1 forward_v I I I I #
coedge $-1 $449 $294 $450 $451 forward $185 $-1 #
coedge $-1 $452 $187 $449 $453 forward $117 $-1 #
coedge $-1 $187 $452 $454 $455 forward $117 $-1 #
coedge $-1 $297 $296 $187 $290 reversed $298 $-1 #
edge $-1 $456 -5.7038974653606225 $457 5.7038974653606225 $289 $458 forward 7 unknown #
coedge $-1 $189 $188 $459 $460 forward $74 $-1 #
coedge $-1 $461 $462 $188 $293 reversed $446 $-1 #
edge $-1 $300 -79.086886196478162 $463 79.086886196478162 $292 $464 forward 7 unknown #
coedge $-1 $286 $465 $189 $295 reversed $185 $-1 #
edge $-1 $466 -79.086886196478162 $299 79.086886196478162 $294 $467 forward 7 unknown #
coedge $-1 $289 $190 $465 $468 forward $298 $-1 #
coedge $-1 $190 $289 $461 $469 reversed $298 $-1 #
loop $-1 $-1 $296 $445 #
vertex $-1 $191 $470 #
vertex $-1 $191 $471 #
straight-curve $-1 79.086886196478162 0 2.9008156219183121 0 1 0 I I #
face $-1 $472 $473 $44 $-1 $474 reversed single #
loop $-1 $-1 $475 $192 #
plane-surface $-1 -79.086886196478162 0 0 1 0 0 0 0 -1 forward_v I I I I #
coedge $-1 $476 $313 $477 $478 forward $193 $-1 #
coedge $-1 $479 $195 $476 $480 forward $121 $-1 #
coedge $-1 $195 $479 $481 $482 forward $121 $-1 #
coedge $-1 $316 $315 $195 $309 reversed $317 $-1 #
edge $-1 $483 -5.7038974653606189 $484 5.7038974653606189 $308 $485 forward 7 unknown #
coedge $-1 $197 $196 $486 $487 forward $77 $-1 #
coedge $-1 $488 $489 $196 $312 reversed $473 $-1 #
edge $-1 $319 -79.086886196478162 $490 79.086886196478162 $311 $491 forward 7 unknown #
coedge $-1 $305 $492 $197 $314 reversed $193 $-1 #
edge $-1 $493 -79.086886196478162 $318 79.086886196478162 $313 $494 forward 7 unknown #
coedge $-1 $308 $198 $492 $495 forward $317 $-1 #
coedge $-1 $198 $308 $488 $496 reversed $317 $-1 #
loop $-1 $-1 $315 $472 #
vertex $-1 $199 $497 #
vertex $-1 $199 $498 #
straight-curve $-1 79.086886196478162 0 2.9008156219183121 0 1 0 I I #
face $-1 $499 $500 $45 $-1 $501 reversed single #
loop $-1 $-1 $502 $200 #
plane-surface $-1 -316.34754478591265 0 0 1 0 0 0 0 -1 forward_v I I I I #
coedge $-1 $503 $332 $504 $505 forward $201 $-1 #
coedge $-1 $506 $203 $503 $507 forward $125 $-1 #
coedge $-1 $203 $506 $508 $509 forward $125 $-1 #
coedge $-1 $335 $334 $203 $328 reversed $336 $-1 #
edge $-1 $510 -8.7994162051054641 $511 8.7994162051054641 $327 $512 forward 7 unknown #
coedge $-1 $205 $204 $513 $514 forward $80 $-1 #
coedge $-1 $515 $516 $204 $331 reversed $500 $-1 #
edge $-1 $338 -316.34754478591265 $517 316.34754478591265 $330 $518 forward 7 unknown #
coedge $-1 $324 $519 $205 $333 reversed $201 $-1 #
edge $-1 $520 -316.34754478591265 $337 316.34754478591265 $332 $521 forward 7 unknown #
coedge $-1 $327 $206 $519 $522 forward $336 $-1 #
coedge $-1 $206 $327 $515 $523 reversed $336 $-1 #
loop $-1 $-1 $334 $499 #
vertex $-1 $207 $524 #
vertex $-1 $207 $525 #
straight-curve $-1 316.34754478591265 0 158.17377239295632 0 1 0 I I #
loop $-1 $-1 $526 $128 #
coedge $-1 $341 $341 $211 $342 reversed $208 $-1 #
edge $-1 $527 0 $527 6.2831853071796004 $341 $528 forward 7 unknown #
vertex $-1 $212 $529 #
ellipse-curve $-1 0 0 -5.3533433027130961 0 0 -1 2 0 0 1 I I #
loop $-1 $-1 $530 $133 #
coedge $-1 $346 $346 $216 $347 reversed $213 $-1 #
edge $-1 $531 0 $531 6.2831853071796004 $346 $532 forward 7 unknown #
vertex $-1 $217 $533 #
ellipse-curve $-1 0 0 -5.3533433027130961 0 0 -1 2 0 0 1 I I #
face $-1 $534 $535 $48 $-1 $536 reversed single #
loop $-1 $-1 $537 $218 #
plane-surface $-1 -316.34754478591265 0 0 1 0 0 0 0 -1 forward_v I I I I #
coedge $-1 $538 $361 $539 $540 forward $219 $-1 #
coedge $-1 $541 $221 $538 $542 forward $139 $-1 #
coedge $-1 $221 $541 $543 $544 forward $139 $-1 #
coedge $-1 $364 $363 $221 $357 reversed $365 $-1 #
edge $-1 $545 -7.6063955957767773 $546 7.6063955957767773 $356 $547 forward 7 unknown #
coedge $-1 $223 $222 $548 $549 forward $89 $-1 #
coedge $-1 $550 $551 $222 $360 reversed $535 $-1 #
edge $-1 $367 -316.34754478591265 $552 316.34754478591265 $359 $553 forward 7 unknown #
coedge $-1 $353 $554 $223 $362 reversed $219 $-1 #
edge $-1 $555 -316.34754478591265 $366 316.34754478591265 $361 $556 forward 7 unknown #
coedge $-1 $356 $224 $554 $557 forward $365 $-1 #
coedge $-1 $224 $356 $550 $558 reversed $365 $-1 #
loop $-1 $-1 $363 $534 #
vertex $-1 $225 $559 #
vertex $-1 $225 $560 #
straight-curve $-1 316.34754478591265 0 158.17377239295632 0 1 0 I I #
loop $-1 $-1 $561 $142 #
coedge $-1 $370 $370 $229 $371 reversed $226 $-1 #
edge $-1 $562 0 $562 6.2831853071796004 $370 $563 forward 7 unknown #
vertex $-1 $230 $564 #
ellipse-curve $-1 0 0 -4.201345866267892 0 0 -1 1 0 0 1 I I #
loop $-1 $-1 $565 $147 #
coedge $-1 $375 $375 $234 $376 reversed $231 $-1 #
edge $-1 $566 0 $566 6.2831853071796004 $375 $567 forward 7 unknown #
vertex $-1 $235 $568 #
ellipse-curve $-1 0 0 -4.201345866267892 0 0 -1 1 0 0 1 I I #
loop $-1 $-1 $569 $152 #
coedge $-1 $380 $380 $239 $381 reversed $236 $-1 #
edge $-1 $570 0 $570 6.2831853071796004 $380 $571 forward 7 unknown #
vertex $-1 $240 $572 #
ellipse-curve $-1 0 0 -4.201345866267892 0 0 -1 1 0 0 1 I I #
face $-1 $573 $574 $52 $-1 $575 reversed single #
loop $-1 $-1 $576 $241 #
plane-surface $-1 -316.34754478591265 0 0 1 0 0 0 0 -1 forward_v I I I I #
coedge $-1 $577 $395 $578 $579 forward $242 $-1 #
coedge $-1 $580 $244 $577 $581 forward $158 $-1 #
coedge $-1 $244 $580 $582 $583 forward $158 $-1 #
coedge $-1 $398 $397 $244 $391 reversed $399 $-1 #
edge $-1 $584 -7.6063955957767773 $585 7.6063955957767773 $390 $586 forward 7 unknown #
coedge $-1 $246 $245 $587 $588 forward $101 $-1 #
coedge $-1 $589 $590 $245 $394 reversed $574 $-1 #
edge $-1 $401 -316.34754478591265 $591 316.34754478591265 $393 $592 forward 7 unknown #
coedge $-1 $387 $593 $246 $396 reversed $242 $-1 #
edge $-1 $594 -316.34754478591265 $400 316.34754478591265 $395 $595 forward 7 unknown #
coedge $-1 $390 $247 $593 $596 forward $399 $-1 #
coedge $-1 $247 $390 $589 $597 reversed $399 $-1 #
loop $-1 $-1 $397 $573 #
vertex $-1 $248 $598 #
vertex $-1 $248 $599 #
straight-curve $-1 316.34754478591265 0 158.17377239295632 0 1 0 I I #
loop $-1 $-1 $600 $161 #
coedge $-1 $404 $404 $252 $405 reversed $249 $-1 #
edge $-1 $601 0 $601 6.2831853071796004 $404 $602 forward 7 unknown #
vertex $-1 $253 $603 #
ellipse-curve $-1 0 0 -4.201345866267892 0 0 -1 1 0 0 1 I I #
loop $-1 $-1 $604 $166 #
coedge $-1 $409 $409 $257 $410 reversed $254 $-1 #
edge $-1 $605 0 $605 6.2831853071796004 $409 $606 forward 7 unknown #
vertex $-1 $258 $607 #
ellipse-curve $-1 0 0 -4.201345866267892 0 0 -1 1 0 0 1 I I #
loop $-1 $-1 $608 $171 #
coedge $-1 $414 $414 $262 $415 reversed $259 $-1 #
edge $-1 $609 0 $609 6.2831853071796004 $414 $610 forward 7 unknown #
vertex $-1 $263 $611 #
ellipse-curve $-1 0 0 -4.201345866267892 0 0 -1 1 0 0 1 I I #
face $-1 $-1 $279 $42 $-1 $612 reversed single #
loop $-1 $-1 $434 $264 #
plane-surface $-1 0 47.268455701176428 0 0 -1 0 0 0 -1 forward_v I I I I #
coedge $-1 $613 $432 $435 $614 forward $265 $-1 #
coedge $-1 $438 $267 $268 $426 reversed $177 $-1 #
coedge $-1 $432 $613 $267 $424 reversed $265 $-1 #
edge $-1 $439 -12.527648238951583 $615 12.527648238951583 $423 $616 forward 7 unknown #
coedge $-1 $269 $268 $613 $617 forward $113 $-1 #
edge $-1 $430 -79.086886196478162 $615 79.086886196478162 $422 $618 forward 7 unknown #
coedge $-1 $435 $434 $269 $428 reversed $419 $-1 #
edge $-1 $619 -79.086886196478162 $429 79.086886196478162 $427 $620 forward 7 unknown #
vertex $-1 $271 $621 #
vertex $-1 $441 $622 #
straight-curve $-1 79.086886196478162 0 -12.527648238951583 0 -1 0 I I #
coedge $-1 $421 $423 $272 $433 reversed $265 $-1 #
edge $-1 $436 -47.268455701176428 $439 47.268455701176428 $432 $623 forward 7 unknown #
coedge $-1 $427 $273 $278 $442 forward $419 $-1 #
coedge $-1 $273 $427 $421 $614 reversed $419 $-1 #
vertex $-1 $274 $624 #
straight-curve $-1 0 47.268455701176428 12.527648238951583 -1 0 0 I I #
coedge $-1 $275 $422 $277 $441 reversed $177 $-1 #
vertex $-1 $433 $625 #
straight-curve $-1 0 -47.268455701176428 12.527648238951583 1 0 0 I I #
edge $-1 $280 -12.527648238951583 $430 12.527648238951583 $277 $626 forward 7 unknown #
edge $-1 $281 -12.527648238951583 $429 12.527648238951583 $278 $627 forward 7 unknown #
point $-1 79.086886196478162 -47.268455701176428 12.527648238951583 #
point $-1 79.086886196478162 47.268455701176428 12.527648238951583 #
face $-1 $-1 $298 $43 $-1 $628 reversed single #
loop $-1 $-1 $461 $283 #
plane-surface $-1 0 5.7038974653606225 0 0 -1 0 0 0 -1 forward_v I I I I #
coedge $-1 $629 $459 $462 $630 forward $284 $-1 #
coedge $-1 $465 $286 $287 $453 reversed $185 $-1 #
coedge $-1 $459 $629 $286 $451 reversed $284 $-1 #
edge $-1 $466 -2.9008156219183121 $631 2.9008156219183121 $450 $632 forward 7 unknown #
coedge $-1 $288 $287 $629 $633 forward $117 $-1 #
edge $-1 $457 -79.086886196478162 $631 79.086886196478162 $449 $634 forward 7 unknown #
coedge $-1 $462 $461 $288 $455 reversed $446 $-1 #
edge $-1 $635 -79.086886196478162 $456 79.086886196478162 $454 $636 forward 7 unknown #
vertex $-1 $290 $637 #
vertex $-1 $468 $638 #
straight-curve $-1 79.086886196478162 0 -2.9008156219183121 0 -1 0 I I #
coedge $-1 $448 $450 $291 $460 reversed $284 $-1 #
edge $-1 $463 -5.7038974653606225 $466 5.7038974653606225 $459 $639 forward 7 unknown #
coedge $-1 $454 $292 $297 $469 forward $446 $-1 #
coedge $-1 $292 $454 $448 $630 reversed $446 $-1 #
vertex $-1 $293 $640 #
straight-curve $-1 0 5.7038974653606225 2.9008156219183121 -1 0 0 I I #
coedge $-1 $294 $449 $296 $468 reversed $185 $-1 #
vertex $-1 $460 $641 #
straight-curve $-1 0 -5.7038974653606225 2.9008156219183121 1 0 0 I I #
edge $-1 $299 -2.9008156219183121 $457 2.9008156219183121 $296 $642 forward 7 unknown #
edge $-1 $300 -2.9008156219183121 $456 2.9008156219183121 $297 $643 forward 7 unknown #
point $-1 79.086886196478162 -5.7038974653606225 2.9008156219183121 #
point $-1 79.086886196478162 5.7038974653606225 2.9008156219183121 #
face $-1 $-1 $317 $44 $-1 $644 reversed single #
loop $-1 $-1 $488 $302 #
plane-surface $-1 0 5.7038974653606189 0 0 -1 0 0 0 -1 forward_v I I I I #
coedge $-1 $645 $486 $489 $646 forward $303 $-1 #
coedge $-1 $492 $305 $306 $480 reversed $193 $-1 #
coedge $-1 $486 $645 $305 $478 reversed $303 $-1 #
edge $-1 $493 -2.9008156219183121 $647 2.9008156219183121 $477 $648 forward 7 unknown #
coedge $-1 $307 $306 $645 $649 forward $121 $-1 #
edge $-1 $484 -79.086886196478162 $647 79.086886196478162 $476 $650 forward 7 unknown #
coedge $-1 $489 $488 $307 $482 reversed $473 $-1 #
edge $-1 $651 -79.086886196478162 $483 79.086886196478162 $481 $652 forward 7 unknown #
vertex $-1 $309 $653 #
vertex $-1 $495 $654 #
straight-curve $-1 79.086886196478162 0 -2.9008156219183121 0 -1 0 I I #
coedge $-1 $475 $477 $310 $487 reversed $303 $-1 #
edge $-1 $490 -5.7038974653606189 $493 5.7038974653606189 $486 $655 forward 7 unknown #
coedge $-1 $481 $311 $316 $496 forward $473 $-1 #
coedge $-1 $311 $481 $475 $646 reversed $473 $-1 #
vertex $-1 $312 $656 #
straight-curve $-1 0 5.7038974653606189 2.9008156219183121 -1 0 0 I I #
coedge $-1 $313 $476 $315 $495 reversed $193 $-1 #
vertex $-1 $487 $657 #
straight-curve $-1 0 -5.7038974653606189 2.9008156219183121 1 0 0 I I #
edge $-1 $318 -2.9008156219183121 $484 2.9008156219183121 $315 $658 forward 7 unknown #
edge $-1 $319 -2.9008156219183121 $483 2.9008156219183121 $316 $659 forward 7 unknown #
point $-1 79.086886196478162 -5.7038974653606189 2.9008156219183121 #
point $-1 79.086886196478162 5.7038974653606189 2.9008156219183121 #
face $-1 $-1 $336 $45 $-1 $660 reversed single #
loop $-1 $-1 $515 $321 #
plane-surface $-1 0 8.7994162051054641 0 0 -1 0 0 0 -1 forward_v I I I I #
coedge $-1 $661 $513 $516 $662 forward $322 $-1 #
coedge $-1 $519 $324 $325 $507 reversed $201 $-1 #
coedge $-1 $513 $661 $324 $505 reversed $322 $-1 #
edge $-1 $520 -158.17377239295632 $663 158.17377239295632 $504 $664 forward 7 unknown #
coedge $-1 $326 $325 $661 $665 forward $125 $-1 #
edge $-1 $511 -316.34754478591265 $663 316.34754478591265 $503 $666 forward 7 unknown #
coedge $-1 $516 $515 $326 $509 reversed $500 $-1 #
edge $-1 $667 -316.34754478591265 $510 316.34754478591265 $508 $668 forward 7 unknown #
vertex $-1 $328 $669 #
vertex $-1 $522 $670 #
straight-curve $-1 316.34754478591265 0 -158.17377239295632 0 -1 0 I I #
coedge $-1 $502 $504 $329 $514 reversed $322 $-1 #
edge $-1 $517 -8.7994162051054641 $520 8.7994162051054641 $513 $671 forward 7 unknown #
coedge $-1 $508 $330 $335 $523 forward $500 $-1 #
coedge $-1 $330 $508 $502 $662 reversed $500 $-1 #
vertex $-1 $331 $672 #
straight-curve $-1 0 8.7994162051054641 158.17377239295632 -1 0 0 I I #
coedge $-1 $332 $503 $334 $522 reversed $201 $-1 #
vertex $-1 $514 $673 #
straight-curve $-1 0 -8.7994162051054641 158.17377239295632 1 0 0 I I #
edge $-1 $337 -158.17377239295632 $511 158.17377239295632 $334 $674 forward 7 unknown #
edge $-1 $338 -158.17377239295632 $510 158.17377239295632 $335 $675 forward 7 unknown #
point $-1 316.34754478591265 -8.7994162051054641 158.17377239295632 #
point $-1 316.34754478591265 8.7994162051054641 158.17377239295632 #
coedge $-1 $526 $526 $-1 $676 reversed $340 $-1 #
vertex $-1 $342 $677 #
ellipse-curve $-1 0 0 -1 0 0 -1 2 0 0 1 I I #
point $-1 2 0 -5.3533433027130961 #
coedge $-1 $530 $530 $-1 $678 reversed $345 $-1 #
vertex $-1 $347 $679 #
ellipse-curve $-1 0 0 -1 0 0 -1 2 0 0 1 I I #
point $-1 2 0 -5.3533433027130961 #
face $-1 $-1 $365 $48 $-1 $680 reversed single #
loop $-1 $-1 $550 $350 #
plane-surface $-1 0 7.6063955957767773 0 0 -1 0 0 0 -1 forward_v I I I I #
coedge $-1 $681 $548 $551 $682 forward $351 $-1 #
coedge $-1 $554 $353 $354 $542 reversed $219 $-1 #
coedge $-1 $548 $681 $353 $540 reversed $351 $-1 #
edge $-1 $555 -158.17377239295632 $683 158.17377239295632 $539 $684 forward 7 unknown #
coedge $-1 $355 $354 $681 $685 forward $139 $-1 #
edge $-1 $546 -316.34754478591265 $683 316.34754478591265 $538 $686 forward 7 unknown #
coedge $-1 $551 $550 $355 $544 reversed $535 $-1 #
edge $-1 $687 -316.34754478591265 $545 316.34754478591265 $543 $688 forward 7 unknown #
vertex $-1 $357 $689 #
vertex $-1 $557 $690 #
straight-curve $-1 316.34754478591265 0 -158.17377239295632 0 -1 0 I I #
coedge $-1 $537 $539 $358 $549 reversed $351 $-1 #
edge $-1 $552 -7.6063955957767773 $555 7.6063955957767773 $548 $691 forward 7 unknown #
coedge $-1 $543 $359 $364 $558 forward $535 $-1 #
coedge $-1 $359 $543 $537 $682 reversed $535 $-1 #
vertex $-1 $360 $692 #
straight-curve $-1 0 7.6063955957767773 158.17377239295632 -1 0 0 I I #
coedge $-1 $361 $538 $363 $557 reversed $219 $-1 #
vertex $-1 $549 $693 #
straight-curve $-1 0 -7.6063955957767773 158.17377239295632 1 0 0 I I #
edge $-1 $366 -158.17377239295632 $546 158.17377239295632 $363 $694 forward 7 unknown #
edge $-1 $367 -158.17377239295632 $545 158.17377239295632 $364 $695 forward 7 unknown #
point $-1 316.34754478591265 -7.6063955957767773 158.17377239295632 #
point $-1 316.34754478591265 7.6063955957767773 158.17377239295632 #
coedge $-1 $561 $561 $-1 $696 reversed $369 $-1 #
vertex $-1 $371 $697 #
ellipse-curve $-1 0 0 -0.5 0 0 -1 1 0 0 1 I I #
point $-1 1 0 -4.201345866267892 #
coedge $-1 $565 $565 $-1 $698 reversed $374 $-1 #
vertex $-1 $376 $699 #
ellipse-curve $-1 0 0 -0.5 0 0 -1 1 0 0 1 I I #
point $-1 1 0 -4.201345866267892 #
coedge $-1 $569 $569 $-1 $700 reversed $379 $-1 #
vertex $-1 $381 $701 #
ellipse-curve $-1 0 0 -0.5 0 0 -1 1 0 0 1 I I #
point $-1 1 0 -4.201345866267892 #
face $-1 $-1 $399 $52 $-1 $702 reversed single #
loop $-1 $-1 $589 $384 #
plane-surface $-1 0 7.6063955957767773 0 0 -1 0 0 0 -1 forward_v I I I I #
coedge $-1 $703 $587 $590 $704 forward $385 $-1 #
coedge $-1 $593 $387 $388 $581 reversed $242 $-1 #
coedge $-1 $587 $703 $387 $579 reversed $385 $-1 #
edge $-1 $594 -158.17377239295632 $705 158.17377239295632 $578 $706 forward 7 unknown #
coedge $-1 $389 $388 $703 $707 forward $158 $-1 #
edge $-1 $585 -316.34754478591265 $705 316.34754478591265 $577 $708 forward 7 unknown #
coedge $-1 $590 $589 $389 $583 reversed $574 $-1 #
edge $-1 $709 -316.34754478591265 $584 316.34754478591265 $582 $710 forward 7 unknown #
vertex $-1 $391 $711 #
vertex $-1 $596 $712 #
straight-curve $-1 316.34754478591265 0 -158.17377239295632 0 -1 0 I I #
coedge $-1 $576 $578 $392 $588 reversed $385 $-1 #
edge $-1 $591 -7.6063955957767773 $594 7.6063955957767773 $587 $713 forward 7 unknown #
coedge $-1 $582 $393 $398 $597 forward $574 $-1 #
coedge $-1 $393 $582 $576 $704 reversed $574 $-1 #
vertex $-1 $394 $714 #
straight-curve $-1 0 7.6063955957767773 158.17377239295632 -1 0 0 I I #
coedge $-1 $395 $577 $397 $596 reversed $242 $-1 #
vertex $-1 $588 $715 #
straight-curve $-1 0 -7.6063955957767773 158.17377239295632 1 0 0 I I #
edge $-1 $400 -158.17377239295632 $585 158.17377239295632 $397 $716 forward 7 unknown #
edge $-1 $401 -158.17377239295632 $584 158.17377239295632 $398 $717 forward 7 unknown #
point $-1 316.34754478591265 -7.6063955957767773 158.17377239295632 #
point $-1 316.34754478591265 7.6063955957767773 158.17377239295632 #
coedge $-1 $600 $600 $-1 $718 reversed $403 $-1 #
vertex $-1 $405 $719 #
ellipse-curve $-1 0 0 -0.5 0 0 -1 1 0 0 1 I I #
point $-1 1 0 -4.201345866267892 #
coedge $-1 $604 $604 $-1 $720 reversed $408 $-1 #
vertex $-1 $410 $721 #
ellipse-curve $-1 0 0 -0.5 0 0 -1 1 0 0 1 I I #
point $-1 1 0 -4.201345866267892 #
coedge $-1 $608 $608 $-1 $722 reversed $413 $-1 #
vertex $-1 $415 $723 #
ellipse-curve $-1 0 0 -0.5 0 0 -1 1 0 0 1 I I #
point $-1 1 0 -4.201345866267892 #
plane-surface $-1 79.086886196478162 0 0 -1 0 0 0 0 1 forward_v I I I I #
coedge $-1 $423 $421 $425 $617 reversed $265 $-1 #
edge $-1 $436 -12.527648238951583 $619 12.527648238951583 $435 $724 forward 7 unknown #
vertex $-1 $617 $725 #
straight-curve $-1 -79.086886196478162 -47.268455701176428 0 0 0 -1 I I #
edge $-1 $615 -47.268455701176428 $619 47.268455701176428 $613 $726 forward 7 unknown #
straight-curve $-1 0 -47.268455701176428 -12.527648238951583 -1 0 0 I I #
vertex $-1 $428 $727 #
straight-curve $-1 0 47.268455701176428 -12.527648238951583 1 0 0 I I #
point $-1 79.086886196478162 47.268455701176428 -12.527648238951583 #
point $-1 79.086886196478162 -47.268455701176428 -12.527648238951583 #
straight-curve $-1 -79.086886196478162 0 12.527648238951583 0 -1 0 I I #
point $-1 -79.086886196478162 47.268455701176428 12.527648238951583 #
point $-1 -79.086886196478162 -47.268455701176428 12.527648238951583 #
straight-curve $-1 79.086886196478162 -47.268455701176428 0 0 0 -1 I I #
straight-curve $-1 79.086886196478162 47.268455701176428 0 0 0 -1 I I #
plane-surface $-1 79.086886196478162 0 0 -1 0 0 0 0 1 forward_v I I I I #
coedge $-1 $450 $448 $452 $633 reversed $284 $-1 #
edge $-1 $463 -2.9008156219183121 $635 2.9008156219183121 $462 $728 forward 7 unknown #
vertex $-1 $633 $729 #
straight-curve $-1 -79.086886196478162 -5.7038974653606225 0 0 0 -1 I I #
edge $-1 $631 -5.7038974653606225 $635 5.7038974653606225 $629 $730 forward 7 unknown #
straight-curve $-1 0 -5.7038974653606225 -2.9008156219183121 -1 0 0 I I #
vertex $-1 $455 $731 #
straight-curve $-1 0 5.7038974653606225 -2.9008156219183121 1 0 0 I I #
point $-1 79.086886196478162 5.7038974653606225 -2.9008156219183121 #
point $-1 79.086886196478162 -5.7038974653606225 -2.9008156219183121 #
straight-curve $-1 -79.086886196478162 0 2.9008156219183121 0 -1 0 I I #
point $-1 -79.086886196478162 5.7038974653606225 2.9008156219183121 #
point $-1 -79.086886196478162 -5.7038974653606225 2.9008156219183121 #
straight-curve $-1 79.086886196478162 -5.7038974653606225 0 0 0 -1 I I #
straight-curve $-1 79.086886196478162 5.7038974653606225 0 0 0 -1 I I #
plane-surface $-1 79.086886196478162 0 0 -1 0 0 0 0 1 forward_v I I I I #
coedge $-1 $477 $475 $479 $649 reversed $303 $-1 #
edge $-1 $490 -2.9008156219183121 $651 2.9008156219183121 $489 $732 forward 7 unknown #
vertex $-1 $649 $733 #
straight-curve $-1 -79.086886196478162 -5.7038974653606189 0 0 0 -1 I I #
edge $-1 $647 -5.7038974653606189 $651 5.7038974653606189 $645 $734 forward 7 unknown #
straight-curve $-1 0 -5.7038974653606189 -2.9008156219183121 -1 0 0 I I #
vertex $-1 $482 $735 #
straight-curve $-1 0 5.7038974653606189 -2.9008156219183121 1 0 0 I I #
point $-1 79.086886196478162 5.7038974653606189 -2.9008156219183121 #
point $-1 79.086886196478162 -5.7038974653606189 -2.9008156219183121 #
straight-curve $-1 -79.086886196478162 0 2.9008156219183121 0 -1 0 I I #
point $-1 -79.086886196478162 5.7038974653606189 2.9008156219183121 #
point $-1 -79.086886196478162 -5.7038974653606189 2.9008156219183121 #
straight-curve $-1 79.086886196478162 -5.7038974653606189 0 0 0 -1 I I #
straight-curve $-1 79.086886196478162 5.7038974653606189 0 0 0 -1 I I #
plane-surface $-1 316.34754478591265 0 0 -1 0 0 0 0 1 forward_v I I I I #
coedge $-1 $504 $502 $506 $665 reversed $322 $-1 #
edge $-1 $517 -158.17377239295632 $667 158.17377239295632 $516 $736 forward 7 unknown #
vertex $-1 $665 $737 #
straight-curve $-1 -316.34754478591265 -8.7994162051054641 0 0 0 -1 I I #
edge $-1 $663 -8.7994162051054641 $667 8.7994162051054641 $661 $738 forward 7 unknown #
straight-curve $-1 0 -8.7994162051054641 -158.17377239295632 -1 0 0 I I #
vertex $-1 $509 $739 #
straight-curve $-1 0 8.7994162051054641 -158.17377239295632 1 0 0 I I #
point $-1 316.34754478591265 8.7994162051054641 -158.17377239295632 #
point $-1 316.34754478591265 -8.7994162051054641 -158.17377239295632 #
straight-curve $-1 -316.34754478591265 0 158.17377239295632 0 -1 0 I I #
point $-1 -316.34754478591265 8.7994162051054641 158.17377239295632 #
point $-1 -316.34754478591265 -8.7994162051054641 158.17377239295632 #
straight-curve $-1 316.34754478591265 -8.7994162051054641 0 0 0 -1 I I #
straight-curve $-1 316.34754478591265 8.7994162051054641 0 0 0 -1 I I #
edge $-1 $740 1 $740 0 $526 $-1 forward 7 unknown #
point $-1 2 0 -1 #
edge $-1 $741 1 $741 0 $530 $-1 forward 7 unknown #
point $-1 2 0 -1 #
plane-surface $-1 316.34754478591265 0 0 -1 0 0 0 0 1 forward_v I I I I #
coedge $-1 $539 $537 $541 $685 reversed $351 $-1 #
edge $-1 $552 -158.17377239295632 $687 158.17377239295632 $551 $742 forward 7 unknown #
vertex $-1 $685 $743 #
straight-curve $-1 -316.34754478591265 -7.6063955957767773 0 0 0 -1 I I #
edge $-1 $683 -7.6063955957767773 $687 7.6063955957767773 $681 $744 forward 7 unknown #
straight-curve $-1 0 -7.6063955957767773 -158.17377239295632 -1 0 0 I I #
vertex $-1 $544 $745 #
straight-curve $-1 0 7.6063955957767773 -158.17377239295632 1 0 0 I I #
point $-1 316.34754478591265 7.6063955957767773 -158.17377239295632 #
point $-1 316.34754478591265 -7.6063955957767773 -158.17377239295632 #
straight-curve $-1 -316.34754478591265 0 158.17377239295632 0 -1 0 I I #
point $-1 -316.34754478591265 7.6063955957767773 158.17377239295632 #
point $-1 -316.34754478591265 -7.6063955957767773 158.17377239295632 #
straight-curve $-1 316.34754478591265 -7.6063955957767773 0 0 0 -1 I I #
straight-curve $-1 316.34754478591265 7.6063955957767773 0 0 0 -1 I I #
edge $-1 $746 1 $746 0 $561 $-1 forward 7 unknown #
point $-1 1 0 -0.5 #
edge $-1 $747 1 $747 0 $565 $-1 forward 7 unknown #
point $-1 1 0 -0.5 #
edge $-1 $748 1 $748 0 $569 $-1 forward 7 unknown #
point $-1 1 0 -0.5 #
plane-surface $-1 316.34754478591265 0 0 -1 0 0 0 0 1 forward_v I I I I #
coedge $-1 $578 $576 $580 $707 reversed $385 $-1 #
edge $-1 $591 -158.17377239295632 $709 158.17377239295632 $590 $749 forward 7 unknown #
vertex $-1 $707 $750 #
straight-curve $-1 -316.34754478591265 -7.6063955957767773 0 0 0 -1 I I #
edge $-1 $705 -7.6063955957767773 $709 7.6063955957767773 $703 $751 forward 7 unknown #
straight-curve $-1 0 -7.6063955957767773 -158.17377239295632 -1 0 0 I I #
vertex $-1 $583 $752 #
straight-curve $-1 0 7.6063955957767773 -158.17377239295632 1 0 0 I I #
point $-1 316.34754478591265 7.6063955957767773 -158.17377239295632 #
point $-1 316.34754478591265 -7.6063955957767773 -158.17377239295632 #
straight-curve $-1 -316.34754478591265 0 158.17377239295632 0 -1 0 I I #
point $-1 -316.34754478591265 7.6063955957767773 158.17377239295632 #
point $-1 -316.34754478591265 -7.6063955957767773 158.17377239295632 #
straight-curve $-1 316.34754478591265 -7.6063955957767773 0 0 0 -1 I I #
straight-curve $-1 316.34754478591265 7.6063955957767773 0 0 0 -1 I I #
edge $-1 $753 1 $753 0 $600 $-1 forward 7 unknown #
point $-1 1 0 -0.5 #
edge $-1 $754 1 $754 0 $604 $-1 forward 7 unknown #
point $-1 1 0 -0.5 #
edge $-1 $755 1 $755 0 $608 $-1 forward 7 unknown #
point $-1 1 0 -0.5 #
straight-curve $-1 -79.086886196478162 47.268455701176428 0 0 0 -1 I I #
point $-1 -79.086886196478162 -47.268455701176428 -12.527648238951583 #
straight-curve $-1 -79.086886196478162 0 -12.527648238951583 0 1 0 I I #
point $-1 -79.086886196478162 47.268455701176428 -12.527648238951583 #
straight-curve $-1 -79.086886196478162 5.7038974653606225 0 0 0 -1 I I #
point $-1 -79.086886196478162 -5.7038974653606225 -2.9008156219183121 #
straight-curve $-1 -79.086886196478162 0 -2.9008156219183121 0 1 0 I I #
point $-1 -79.086886196478162 5.7038974653606225 -2.9008156219183121 #
straight-curve $-1 -79.086886196478162 5.7038974653606189 0 0 0 -1 I I #
point $-1 -79.086886196478162 -5.7038974653606189 -2.9008156219183121 #
straight-curve $-1 -79.086886196478162 0 -2.9008156219183121 0 1 0 I I #
point $-1 -79.086886196478162 5.7038974653606189 -2.9008156219183121 #
straight-curve $-1 -316.34754478591265 8.7994162051054641 0 0 0 -1 I I #
point $-1 -316.34754478591265 -8.7994162051054641 -158.17377239295632 #
straight-curve $-1 -316.34754478591265 0 -158.17377239295632 0 1 0 I I #
point $-1 -316.34754478591265 8.7994162051054641 -158.17377239295632 #
vertex $-1 $676 $756 #
vertex $-1 $678 $757 #
straight-curve $-1 -316.34754478591265 7.6063955957767773 0 0 0 -1 I I #
point $-1 -316.34754478591265 -7.6063955957767773 -158.17377239295632 #
straight-curve $-1 -316.34754478591265 0 -158.17377239295632 0 1 0 I I #
point $-1 -316.34754478591265 7.6063955957767773 -158.17377239295632 #
vertex $-1 $696 $758 #
vertex $-1 $698 $759 #
vertex $-1 $700 $760 #
straight-curve $-1 -316.34754478591265 7.6063955957767773 0 0 0 -1 I I #
point $-1 -316.34754478591265 -7.6063955957767773 -158.17377239295632 #
straight-curve $-1 -316.34754478591265 0 -158.17377239295632 0 1 0 I I #
point $-1 -316.34754478591265 7.6063955957767773 -158.17377239295632 #
vertex $-1 $718 $761 #
vertex $-1 $720 $762 #
vertex $-1 $722 $763 #
point $-1 0 0 1 #
point $-1 0 0 1 #
point $-1 0 0 0.5 #
point $-1 0 0 0.5 #
point $-1 0 0 0.5 #
point $-1 0 0 0.5 #
point $-1 0 0 0.5 #
point $-1 0 0 0.5 #
End-of-ACIS-data 