500 0 2 0           
7 Unknown 11 ACIS 5.0 NT 24 Fri Mar 26 19:21:26 1999 
-1 9.9999999999999995e-007 1e-010 
body $-1 $2 $-1 $3 #
body $-1 $4 $-1 $5 #
lump $-1 $-1 $6 $0 #
transform $-1 1 0 0 0 1 0 0 0 1 70.560014648884547 31.660810674752639 8.7183902926204127 1 rotate no_reflect no_shear #
lump $-1 $-1 $7 $1 #
transform $-1 1 0 0 0 1 0 0 0 1 70.560014648884547 31.660810674752639 8.7183902926204127 1 rotate no_reflect no_shear #
shell $-1 $-1 $-1 $8 $-1 $2 #
shell $-1 $-1 $-1 $9 $-1 $4 #
face $-1 $10 $11 $6 $-1 $12 forward single #
face $-1 $13 $14 $7 $-1 $15 forward single #
face $-1 $16 $17 $6 $-1 $18 reversed single #
loop $-1 $-1 $19 $8 #
plane-surface $-1 0 0 8.7183902926204127 0 0 1 1 0 0 forward_v I I I I #
face $-1 $20 $21 $7 $-1 $22 reversed single #
loop $-1 $-1 $23 $9 #
plane-surface $-1 0 -36.576948310778505 -3.9858691347871584 0 0 1 1 0 0 forward_v I I I I #
face $-1 $24 $25 $6 $-1 $26 reversed single #
loop $-1 $-1 $27 $10 #
plane-surface $-1 0 0 -8.7183902926204127 0 0 1 1 0 0 forward_v I I I I #
coedge $-1 $28 $29 $30 $31 forward $11 $-1 #
face $-1 $32 $33 $7 $-1 $34 forward single #
loop $-1 $-1 $35 $13 #
plane-surface $-1 0 -41.493085946804371 -6.3521297137037855 0 1 0 0 0 1 forward_v I I I I #
coedge $-1 $36 $37 $38 $39 forward $14 $-1 #
face $-1 $40 $41 $6 $-1 $42 reversed single #
loop $-1 $-1 $43 $16 #
plane-surface $-1 0 -31.660810674752639 0 0 1 0 0 0 1 forward_v I I I I #
coedge $-1 $44 $45 $46 $47 forward $17 $-1 #
coedge $-1 $48 $19 $49 $50 forward $11 $-1 #
coedge $-1 $19 $48 $51 $52 forward $11 $-1 #
coedge $-1 $53 $54 $19 $31 reversed $55 $-1 #
edge $-1 $56 -31.660810674752639 $57 31.660810674752639 $30 $58 forward 7 unknown #
face $-1 $59 $60 $7 $-1 $61 reversed single #
loop $-1 $-1 $62 $20 #
plane-surface $-1 0 0 8.7183902926204127 0 0 1 1 0 0 forward_v I I I I #
coedge $-1 $63 $64 $65 $66 forward $21 $-1 #
coedge $-1 $67 $23 $68 $69 reversed $14 $-1 #
coedge $-1 $23 $67 $64 $70 forward $14 $-1 #
coedge $-1 $71 $72 $23 $39 reversed $73 $-1 #
edge $-1 $74 -4.9161376360258657 $75 4.9161376360258657 $38 $76 forward 7 unknown #
face $-1 $77 $78 $6 $-1 $79 reversed single #
loop $-1 $-1 $80 $24 #
plane-surface $-1 -70.560014648884547 0 0 1 0 0 0 0 -1 forward_v I I I I #
coedge $-1 $81 $51 $82 $83 forward $25 $-1 #
coedge $-1 $84 $27 $81 $85 forward $17 $-1 #
coedge $-1 $27 $84 $86 $87 forward $17 $-1 #
coedge $-1 $54 $53 $27 $47 reversed $55 $-1 #
edge $-1 $88 -31.660810674752639 $89 31.660810674752639 $46 $90 forward 7 unknown #
coedge $-1 $29 $28 $91 $92 forward $11 $-1 #
coedge $-1 $93 $94 $28 $50 reversed $78 $-1 #
edge $-1 $57 -70.560014648884547 $95 70.560014648884547 $49 $96 forward 7 unknown #
coedge $-1 $43 $97 $29 $52 reversed $25 $-1 #
edge $-1 $98 -70.560014648884547 $56 70.560014648884547 $51 $99 forward 7 unknown #
coedge $-1 $46 $30 $97 $100 forward $55 $-1 #
coedge $-1 $30 $46 $93 $101 reversed $55 $-1 #
loop $-1 $-1 $53 $77 #
vertex $-1 $31 $102 #
vertex $-1 $31 $103 #
straight-curve $-1 70.560014648884547 0 8.7183902926204127 0 1 0 I I #
face $-1 $104 $105 $7 $-1 $106 reversed single #
loop $-1 $-1 $107 $32 #
plane-surface $-1 0 0 -8.7183902926204127 0 0 1 1 0 0 forward_v I I I I #
coedge $-1 $108 $109 $110 $111 forward $33 $-1 #
coedge $-1 $112 $35 $113 $114 reversed $21 $-1 #
coedge $-1 $35 $112 $37 $70 reversed $21 $-1 #
coedge $-1 $115 $116 $35 $66 reversed $117 $-1 #
edge $-1 $118 -2.3662605789166271 $119 2.3662605789166271 $65 $120 forward 7 unknown #
coedge $-1 $37 $36 $115 $121 forward $14 $-1 #
coedge $-1 $122 $123 $36 $69 forward $105 $-1 #
edge $-1 $124 -70.560014648884547 $75 70.560014648884547 $68 $125 forward 7 unknown #
edge $-1 $118 -70.560014648884547 $74 70.560014648884547 $64 $126 forward 7 unknown #
coedge $-1 $127 $38 $112 $128 forward $73 $-1 #
coedge $-1 $38 $110 $122 $129 forward $73 $-1 #
loop $-1 $-1 $72 $130 #
vertex $-1 $39 $131 #
vertex $-1 $39 $132 #
straight-curve $-1 70.560014648884547 -36.576948310778505 -3.9858691347871584 0 1 0 I I #
face $-1 $-1 $55 $6 $-1 $133 reversed single #
loop $-1 $-1 $93 $40 #
plane-surface $-1 0 31.660810674752639 0 0 -1 0 0 0 -1 forward_v I I I I #
coedge $-1 $134 $91 $94 $135 forward $41 $-1 #
coedge $-1 $97 $43 $44 $85 reversed $25 $-1 #
coedge $-1 $91 $134 $43 $83 reversed $41 $-1 #
edge $-1 $98 -8.7183902926204127 $136 8.7183902926204127 $82 $137 forward 7 unknown #
coedge $-1 $45 $44 $134 $138 forward $17 $-1 #
edge $-1 $89 -70.560014648884547 $136 70.560014648884547 $81 $139 forward 7 unknown #
coedge $-1 $94 $93 $45 $87 reversed $78 $-1 #
edge $-1 $140 -70.560014648884547 $88 70.560014648884547 $86 $141 forward 7 unknown #
vertex $-1 $47 $142 #
vertex $-1 $100 $143 #
straight-curve $-1 70.560014648884547 0 -8.7183902926204127 0 -1 0 I I #
coedge $-1 $80 $82 $48 $92 reversed $41 $-1 #
edge $-1 $95 -31.660810674752639 $98 31.660810674752639 $91 $144 forward 7 unknown #
coedge $-1 $86 $49 $54 $101 forward $78 $-1 #
coedge $-1 $49 $86 $80 $135 reversed $78 $-1 #
vertex $-1 $50 $145 #
straight-curve $-1 0 31.660810674752639 8.7183902926204127 -1 0 0 I I #
coedge $-1 $51 $81 $53 $100 reversed $25 $-1 #
vertex $-1 $92 $146 #
straight-curve $-1 0 -31.660810674752639 8.7183902926204127 1 0 0 I I #
edge $-1 $56 -8.7183902926204127 $89 8.7183902926204127 $53 $147 forward 7 unknown #
edge $-1 $57 -8.7183902926204127 $88 8.7183902926204127 $54 $148 forward 7 unknown #
point $-1 70.560014648884547 -31.660810674752639 8.7183902926204127 #
point $-1 70.560014648884547 31.660810674752639 8.7183902926204127 #
face $-1 $149 $117 $7 $-1 $150 reversed single #
loop $-1 $-1 $68 $59 #
plane-surface $-1 0 -31.660810674752639 0 0 1 0 0 0 1 forward_v I I I I #
coedge $-1 $113 $151 $127 $152 forward $60 $-1 #
coedge $-1 $153 $62 $154 $155 forward $33 $-1 #
coedge $-1 $62 $153 $156 $157 forward $33 $-1 #
coedge $-1 $72 $158 $62 $111 reversed $73 $-1 #
edge $-1 $159 -31.660810674752639 $160 31.660810674752639 $110 $161 forward 7 unknown #
coedge $-1 $64 $63 $71 $128 reversed $21 $-1 #
coedge $-1 $162 $107 $63 $114 forward $60 $-1 #
edge $-1 $163 -70.560014648884547 $119 70.560014648884547 $63 $164 forward 7 unknown #
coedge $-1 $165 $65 $67 $121 reversed $117 $-1 #
coedge $-1 $65 $166 $162 $167 reversed $117 $-1 #
loop $-1 $-1 $166 $104 #
vertex $-1 $121 $168 #
vertex $-1 $167 $169 #
straight-curve $-1 -70.560014648884547 -41.493085946804371 -6.3521297137037855 0 0 -1 I I #
edge $-1 $124 -4.9161376360258657 $118 4.9161376360258657 $115 $170 forward 7 unknown #
coedge $-1 $156 $68 $72 $129 reversed $105 $-1 #
coedge $-1 $68 $156 $165 $171 forward $105 $-1 #
vertex $-1 $171 $172 #
straight-curve $-1 0 -31.660810674752639 -3.9858691347871584 1 0 0 I I #
straight-curve $-1 0 -41.493085946804371 -3.9858691347871584 1 0 0 I I #
coedge $-1 $158 $71 $107 $152 reversed $73 $-1 #
edge $-1 $74 -2.3662605789166271 $163 2.3662605789166271 $71 $173 forward 7 unknown #
edge $-1 $159 -8.7183902926204127 $75 3.9858691347871584 $72 $174 forward 7 unknown #
face $-1 $-1 $73 $7 $-1 $175 reversed single #
point $-1 70.560014648884547 -41.493085946804371 -3.9858691347871584 #
point $-1 70.560014648884547 -31.660810674752639 -3.9858691347871584 #
plane-surface $-1 70.560014648884547 0 0 -1 0 0 0 0 1 forward_v I I I I #
coedge $-1 $82 $80 $84 $138 reversed $41 $-1 #
edge $-1 $95 -8.7183902926204127 $140 8.7183902926204127 $94 $176 forward 7 unknown #
vertex $-1 $138 $177 #
straight-curve $-1 -70.560014648884547 -31.660810674752639 0 0 0 -1 I I #
edge $-1 $136 -31.660810674752639 $140 31.660810674752639 $134 $178 forward 7 unknown #
straight-curve $-1 0 -31.660810674752639 -8.7183902926204127 -1 0 0 I I #
vertex $-1 $87 $179 #
straight-curve $-1 0 31.660810674752639 -8.7183902926204127 1 0 0 I I #
point $-1 70.560014648884547 31.660810674752639 -8.7183902926204127 #
point $-1 70.560014648884547 -31.660810674752639 -8.7183902926204127 #
straight-curve $-1 -70.560014648884547 0 8.7183902926204127 0 -1 0 I I #
point $-1 -70.560014648884547 31.660810674752639 8.7183902926204127 #
point $-1 -70.560014648884547 -31.660810674752639 8.7183902926204127 #
straight-curve $-1 70.560014648884547 -31.660810674752639 0 0 0 -1 I I #
straight-curve $-1 70.560014648884547 31.660810674752639 0 0 0 -1 I I #
face $-1 $130 $180 $7 $-1 $181 reversed single #
plane-surface $-1 -70.560014648884547 0 0 1 0 0 0 0 -1 forward_v I I I I #
coedge $-1 $107 $162 $182 $183 forward $60 $-1 #
edge $-1 $184 -31.660810674752639 $163 41.493085946804371 $127 $185 forward 7 unknown #
coedge $-1 $109 $108 $186 $187 forward $33 $-1 #
coedge $-1 $188 $189 $108 $155 reversed $180 $-1 #
edge $-1 $160 -70.560014648884547 $190 70.560014648884547 $154 $191 forward 7 unknown #
coedge $-1 $123 $122 $109 $157 reversed $105 $-1 #
edge $-1 $192 -70.560014648884547 $159 70.560014648884547 $156 $193 forward 7 unknown #
coedge $-1 $110 $127 $188 $194 reversed $73 $-1 #
vertex $-1 $111 $195 #
vertex $-1 $111 $196 #
straight-curve $-1 70.560014648884547 0 8.7183902926204127 0 1 0 I I #
coedge $-1 $151 $113 $116 $167 forward $60 $-1 #
vertex $-1 $128 $197 #
straight-curve $-1 0 -41.493085946804371 -8.7183902926204127 -1 0 0 I I #
coedge $-1 $186 $115 $123 $171 reversed $117 $-1 #
coedge $-1 $116 $186 $189 $198 forward $117 $-1 #
edge $-1 $119 -41.493085946804371 $199 31.660810674752639 $116 $200 forward 7 unknown #
point $-1 -70.560014648884547 -41.493085946804371 -3.9858691347871584 #
point $-1 -70.560014648884547 -41.493085946804371 -8.7183902926204127 #
straight-curve $-1 -70.560014648884547 -36.576948310778505 -3.9858691347871584 0 -1 0 I I #
edge $-1 $192 -8.7183902926204127 $124 3.9858691347871584 $165 $201 forward 7 unknown #
point $-1 -70.560014648884547 -31.660810674752639 -3.9858691347871584 #
straight-curve $-1 70.560014648884547 -41.493085946804371 -6.3521297137037855 0 0 -1 I I #
straight-curve $-1 70.560014648884547 -31.660810674752639 0 0 0 -1 I I #
plane-surface $-1 70.560014648884547 0 0 -1 0 0 0 0 1 forward_v I I I I #
straight-curve $-1 -70.560014648884547 31.660810674752639 0 0 0 -1 I I #
point $-1 -70.560014648884547 -31.660810674752639 -8.7183902926204127 #
straight-curve $-1 -70.560014648884547 0 -8.7183902926204127 0 1 0 I I #
point $-1 -70.560014648884547 31.660810674752639 -8.7183902926204127 #
loop $-1 $-1 $188 $149 #
plane-surface $-1 0 31.660810674752639 0 0 -1 0 0 0 -1 forward_v I I I I #
coedge $-1 $189 $188 $151 $183 reversed $180 $-1 #
edge $-1 $199 -70.560014648884547 $184 70.560014648884547 $182 $202 forward 7 unknown #
vertex $-1 $152 $203 #
straight-curve $-1 70.560014648884547 0 -8.7183902926204127 0 -1 0 I I #
coedge $-1 $166 $165 $153 $187 reversed $117 $-1 #
edge $-1 $190 -31.660810674752639 $192 31.660810674752639 $186 $204 forward 7 unknown #
coedge $-1 $182 $154 $158 $194 forward $180 $-1 #
coedge $-1 $154 $182 $166 $198 reversed $180 $-1 #
vertex $-1 $155 $205 #
straight-curve $-1 0 31.660810674752639 8.7183902926204127 -1 0 0 I I #
vertex $-1 $187 $206 #
straight-curve $-1 0 -31.660810674752639 8.7183902926204127 1 0 0 I I #
edge $-1 $160 -8.7183902926204127 $184 8.7183902926204127 $158 $207 forward 7 unknown #
point $-1 70.560014648884547 -31.660810674752639 8.7183902926204127 #
point $-1 70.560014648884547 31.660810674752639 8.7183902926204127 #
point $-1 70.560014648884547 -41.493085946804371 -8.7183902926204127 #
edge $-1 $190 -8.7183902926204127 $199 8.7183902926204127 $189 $208 forward 7 unknown #
vertex $-1 $183 $209 #
straight-curve $-1 -70.560014648884547 0 -8.7183902926204127 0 1 0 I I #
straight-curve $-1 -70.560014648884547 -31.660810674752639 0 0 0 -1 I I #
straight-curve $-1 0 31.660810674752639 -8.7183902926204127 1 0 0 I I #
point $-1 70.560014648884547 31.660810674752639 -8.7183902926204127 #
straight-curve $-1 -70.560014648884547 0 8.7183902926204127 0 -1 0 I I #
point $-1 -70.560014648884547 31.660810674752639 8.7183902926204127 #
point $-1 -70.560014648884547 -31.660810674752639 8.7183902926204127 #
straight-curve $-1 70.560014648884547 31.660810674752639 0 0 0 -1 I I #
straight-curve $-1 -70.560014648884547 31.660810674752639 0 0 0 -1 I I #
point $-1 -70.560014648884547 31.660810674752639 -8.7183902926204127 #
End-of-ACIS-data 