500 0 11 0           
7 Unknown 11 ACIS 5.0 NT 24 Fri Mar 26 17:12:14 1999 
-1 9.9999999999999995e-007 1e-010 
body $-1 $11 $-1 $12 #
body $-1 $13 $-1 $14 #
body $-1 $15 $-1 $16 #
body $-1 $17 $-1 $18 #
body $-1 $19 $-1 $20 #
body $-1 $21 $-1 $22 #
body $-1 $23 $-1 $24 #
body $-1 $25 $-1 $26 #
body $-1 $27 $-1 $28 #
body $-1 $29 $-1 $30 #
body $-1 $31 $-1 $32 #
lump $-1 $-1 $33 $0 #
transform $-1 1 0 0 0 1 0 0 0 1 51.584826197088532 23.336360138246473 7.9757549837399964 1 rotate no_reflect no_shear #
lump $-1 $-1 $34 $1 #
transform $-1 1 0 0 0 1 0 0 0 1 51.584826197088532 23.336360138246473 7.9757549837399964 1 rotate no_reflect no_shear #
lump $-1 $-1 $35 $2 #
transform $-1 1 0 0 0 1 0 0 0 1 51.584826197088532 23.336360138246473 7.9757549837399964 1 rotate no_reflect no_shear #
lump $-1 $-1 $36 $3 #
transform $-1 1 0 0 0 1 0 0 0 1 51.584826197088532 23.336360138246473 7.9757549837399964 1 rotate no_reflect no_shear #
lump $-1 $-1 $37 $4 #
transform $-1 1 0 0 0 1 0 0 0 1 51.584826197088532 23.336360138246473 7.9757549837399964 1 rotate no_reflect no_shear #
lump $-1 $-1 $38 $5 #
transform $-1 1 0 0 0 1 0 0 0 1 51.584826197088532 23.336360138246473 7.9757549837399964 1 rotate no_reflect no_shear #
lump $-1 $-1 $39 $6 #
transform $-1 1 0 0 0 1 0 0 0 1 51.584826197088532 23.336360138246473 7.9757549837399964 1 rotate no_reflect no_shear #
lump $-1 $-1 $40 $7 #
transform $-1 1 0 0 0 1 0 0 0 1 51.584826197088532 23.336360138246473 7.9757549837399964 1 rotate no_reflect no_shear #
lump $-1 $-1 $41 $8 #
transform $-1 1 0 0 0 1 0 0 0 1 51.584826197088532 23.336360138246473 7.9757549837399964 1 rotate no_reflect no_shear #
lump $-1 $-1 $42 $9 #
transform $-1 1 0 0 0 1 0 0 0 1 51.584826197088532 23.336360138246473 7.9757549837399964 1 rotate no_reflect no_shear #
lump $-1 $-1 $43 $10 #
transform $-1 1 0 0 0 1 0 0 0 1 51.584826197088532 23.336360138246473 7.9757549837399964 1 rotate no_reflect no_shear #
shell $-1 $-1 $-1 $44 $-1 $11 #
shell $-1 $-1 $-1 $45 $-1 $13 #
shell $-1 $-1 $-1 $46 $-1 $15 #
shell $-1 $-1 $-1 $47 $-1 $17 #
shell $-1 $-1 $-1 $48 $-1 $19 #
shell $-1 $-1 $-1 $49 $-1 $21 #
shell $-1 $-1 $-1 $50 $-1 $23 #
shell $-1 $-1 $-1 $51 $-1 $25 #
shell $-1 $-1 $-1 $52 $-1 $27 #
shell $-1 $-1 $-1 $53 $-1 $29 #
shell $-1 $-1 $-1 $54 $-1 $31 #
face $-1 $55 $56 $33 $-1 $57 forward single #
face $-1 $58 $59 $34 $-1 $60 forward single #
face $-1 $61 $62 $35 $-1 $63 reversed single #
face $-1 $64 $65 $36 $-1 $66 forward single #
face $-1 $67 $68 $37 $-1 $69 forward single #
face $-1 $70 $71 $38 $-1 $72 reversed single #
face $-1 $73 $74 $39 $-1 $75 forward single #
face $-1 $76 $77 $40 $-1 $78 forward single #
face $-1 $79 $80 $41 $-1 $81 reversed single #
face $-1 $82 $83 $42 $-1 $84 forward single #
face $-1 $85 $86 $43 $-1 $87 forward single #
face $-1 $88 $89 $33 $-1 $90 reversed single #
loop $-1 $-1 $91 $44 #
plane-surface $-1 0 0 7.9757549837399964 0 0 1 1 0 0 forward_v I I I I #
face $-1 $92 $93 $34 $-1 $94 reversed single #
loop $-1 $-1 $95 $45 #
plane-surface $-1 -51.584826197088532 0 0 1 0 0 0 0 -1 forward_v I I I I #
face $-1 $96 $97 $35 $-1 $98 reversed single #
loop $-1 $-1 $99 $46 #
plane-surface $-1 8.1719688925436387 -81.028098360415157 88.074897303003382 -1 0 0 0 -0.55919291073839883 0.82903756765294845 forward_v I I I I #
face $-1 $100 $101 $36 $-1 $102 forward single #
loop $-1 $103 $104 $47 #
cone-surface $-1 -5.8998983326470338 -18.093598149762062 3.4569982110049882 0 0.55919291073839883 -0.82903756765294845 2 0 0 1 I I 0 1 2 forward I I I I #
face $-1 $105 $106 $37 $-1 $107 forward single #
loop $-1 $108 $109 $48 #
cone-surface $-1 2.543222002467374 -18.093598149762062 3.4569982110049882 0 0.55919291073839883 -0.82903756765294845 2 0 0 1 I I 0 1 2 forward I I I I #
face $-1 $110 $111 $38 $-1 $112 reversed single #
loop $-1 $-1 $113 $49 #
plane-surface $-1 -26.800099303673917 46.218937451667699 112.8866820000257 1 0 0 0 -0.5877852598018023 -0.80901698891910034 forward_v I I I I #
face $-1 $114 $115 $39 $-1 $116 forward single #
loop $-1 $117 $118 $50 #
cone-surface $-1 -20.901211428555978 18.52603167764693 4.033094258914085 0 -0.5877852598018023 -0.80901698891910034 1.5 0 0 1 I I 0 1 1.5 forward I I I I #
face $-1 $119 $120 $40 $-1 $121 forward single #
loop $-1 $122 $123 $51 #
cone-surface $-1 -12.052879615879078 18.52603167764693 4.033094258914085 0 -0.5877852598018023 -0.80901698891910034 1.5 0 0 1 I I 0 1 1.5 forward I I I I #
face $-1 $124 $125 $41 $-1 $126 reversed single #
loop $-1 $-1 $127 $52 #
plane-surface $-1 15.683070464057275 46.218937451667699 112.8866820000257 1 0 0 0 -0.5877852598018023 -0.80901698891910034 forward_v I I I I #
face $-1 $128 $129 $42 $-1 $130 forward single #
loop $-1 $131 $132 $53 #
cone-surface $-1 21.581958339175216 18.52603167764693 4.033094258914085 0 -0.5877852598018023 -0.80901698891910034 1.5 0 0 1 I I 0 1 1.5 forward I I I I #
face $-1 $133 $134 $43 $-1 $135 forward single #
loop $-1 $136 $137 $54 #
cone-surface $-1 30.430290151852105 18.52603167764693 4.033094258914085 0 -0.5877852598018023 -0.80901698891910034 1.5 0 0 1 I I 0 1 1.5 forward I I I I #
face $-1 $138 $139 $33 $-1 $140 reversed single #
loop $-1 $-1 $141 $55 #
plane-surface $-1 0 0 -7.9757549837399964 0 0 1 1 0 0 forward_v I I I I #
coedge $-1 $142 $143 $144 $145 forward $56 $-1 #
face $-1 $146 $147 $34 $-1 $148 reversed single #
loop $-1 $-1 $149 $58 #
plane-surface $-1 0 23.336360138246473 0 0 -1 0 0 0 -1 forward_v I I I I #
coedge $-1 $150 $151 $152 $153 forward $59 $-1 #
face $-1 $154 $155 $35 $-1 $156 reversed single #
loop $-1 $-1 $157 $61 #
plane-surface $-1 -1.6783381650898335 -23.336360138246469 2.5433796265346444 0 -0.55919291073839883 0.82903756765294845 1 0 0 forward_v I I I I #
coedge $-1 $158 $159 $160 $161 reversed $62 $-1 #
face $-1 $-1 $162 $36 $-1 $163 forward single #
loop $-1 $164 $165 $64 #
cone-surface $-1 -5.8998983326470338 -16.318557009843172 0.82539154921970237 0 0.55919291073839883 -0.82903756765294845 1 0 0 1 I I -0.70710678118654746 0.70710678118654746 1 forward I I I I #
loop $-1 $-1 $166 $47 #
coedge $-1 $104 $104 $167 $168 reversed $65 $-1 #
face $-1 $-1 $169 $37 $-1 $170 forward single #
loop $-1 $171 $172 $67 #
cone-surface $-1 2.543222002467374 -16.318557009843172 0.82539154921970237 0 0.55919291073839883 -0.82903756765294845 1 0 0 1 I I -0.70710678118654746 0.70710678118654746 1 forward I I I I #
loop $-1 $-1 $173 $48 #
coedge $-1 $109 $109 $174 $175 reversed $68 $-1 #
face $-1 $176 $177 $38 $-1 $178 reversed single #
loop $-1 $-1 $179 $70 #
plane-surface $-1 -16.47704552221753 -14.4226634845053 29.420680472258326 0 0.5877852598018023 0.80901698891910034 1 0 0 forward_v I I I I #
coedge $-1 $180 $181 $182 $183 reversed $71 $-1 #
face $-1 $-1 $184 $39 $-1 $185 forward single #
loop $-1 $186 $187 $73 #
cone-surface $-1 -20.901211428555978 17.396172507519626 2.4779765548273147 0 -0.5877852598018023 -0.80901698891910034 0.75 0 0 1 I I -0.70710678118654757 0.70710678118654757 0.75 forward I I I I #
loop $-1 $-1 $188 $50 #
coedge $-1 $118 $118 $189 $190 reversed $74 $-1 #
face $-1 $-1 $191 $40 $-1 $192 forward single #
loop $-1 $193 $194 $76 #
cone-surface $-1 -12.052879615879078 17.396172507519626 2.4779765548273147 0 -0.5877852598018023 -0.80901698891910034 0.75 0 0 1 I I -0.70710678118654757 0.70710678118654757 0.75 forward I I I I #
loop $-1 $-1 $195 $51 #
coedge $-1 $123 $123 $196 $197 reversed $77 $-1 #
face $-1 $198 $199 $41 $-1 $200 reversed single #
loop $-1 $-1 $201 $79 #
plane-surface $-1 26.006124245513661 -14.4226634845053 29.420680472258326 0 0.5877852598018023 0.80901698891910034 1 0 0 forward_v I I I I #
coedge $-1 $202 $203 $204 $205 reversed $80 $-1 #
face $-1 $-1 $206 $42 $-1 $207 forward single #
loop $-1 $208 $209 $82 #
cone-surface $-1 21.581958339175216 17.396172507519626 2.4779765548273147 0 -0.5877852598018023 -0.80901698891910034 0.75 0 0 1 I I -0.70710678118654757 0.70710678118654757 0.75 forward I I I I #
loop $-1 $-1 $210 $53 #
coedge $-1 $132 $132 $211 $212 reversed $83 $-1 #
face $-1 $-1 $213 $43 $-1 $214 forward single #
loop $-1 $215 $216 $85 #
cone-surface $-1 30.430290151852105 17.396172507519626 2.4779765548273147 0 -0.5877852598018023 -0.80901698891910034 0.75 0 0 1 I I -0.70710678118654757 0.70710678118654757 0.75 forward I I I I #
loop $-1 $-1 $217 $54 #
coedge $-1 $137 $137 $218 $219 reversed $86 $-1 #
face $-1 $220 $221 $33 $-1 $222 reversed single #
loop $-1 $-1 $223 $88 #
plane-surface $-1 0 -23.336360138246473 0 0 1 0 0 0 1 forward_v I I I I #
coedge $-1 $224 $225 $226 $227 forward $89 $-1 #
coedge $-1 $228 $91 $229 $230 forward $56 $-1 #
coedge $-1 $91 $228 $231 $232 forward $56 $-1 #
coedge $-1 $233 $234 $91 $145 reversed $235 $-1 #
edge $-1 $236 -23.336360138246473 $237 23.336360138246473 $144 $238 forward 7 unknown #
face $-1 $239 $240 $34 $-1 $241 reversed single #
loop $-1 $-1 $152 $92 #
plane-surface $-1 -56.349365558736594 0 3.9977355221090036 0 0 1 1 0 0 forward_v I I I I #
coedge $-1 $242 $243 $150 $244 forward $93 $-1 #
coedge $-1 $245 $95 $149 $244 reversed $59 $-1 #
coedge $-1 $95 $245 $246 $247 reversed $59 $-1 #
coedge $-1 $248 $249 $95 $153 reversed $147 $-1 #
edge $-1 $250 -23.336360138246473 $251 23.336360138246473 $152 $252 forward 7 unknown #
face $-1 $253 $254 $35 $-1 $255 reversed single #
loop $-1 $-1 $256 $96 #
plane-surface $-1 -11.528645222723306 -81.028098360415157 88.074897303003382 1 0 0 0 0.55919291073839883 -0.82903756765294845 forward_v I I I I #
coedge $-1 $257 $258 $259 $260 reversed $97 $-1 #
coedge $-1 $159 $99 $261 $262 reversed $62 $-1 #
coedge $-1 $99 $158 $257 $263 reversed $62 $-1 #
coedge $-1 $259 $264 $99 $161 forward $265 $-1 #
edge $-1 $266 17.177689041961106 $267 25.231516560568963 $160 $268 forward 7 unknown #
loop $-1 $-1 $167 $100 #
plane-surface $-1 -1.6783381650898335 -23.336360138246469 2.5433796265346444 0 -0.55919291073839883 0.82903756765294845 1 0 0 forward_v I I I I #
loop $-1 $-1 $269 $64 #
coedge $-1 $165 $165 $166 $270 reversed $101 $-1 #
coedge $-1 $166 $166 $165 $270 forward $103 $-1 #
coedge $-1 $167 $167 $104 $168 forward $162 $-1 #
edge $-1 $271 -2.1368619012083244e-016 $271 6.2831853071796004 $167 $272 forward 7 unknown #
loop $-1 $-1 $174 $105 #
plane-surface $-1 -1.6783381650898335 -23.336360138246469 2.5433796265346444 0 -0.55919291073839883 0.82903756765294845 1 0 0 forward_v I I I I #
loop $-1 $-1 $273 $67 #
coedge $-1 $172 $172 $173 $274 reversed $106 $-1 #
coedge $-1 $173 $173 $172 $274 forward $108 $-1 #
coedge $-1 $174 $174 $109 $175 forward $169 $-1 #
edge $-1 $275 -2.1368619012083244e-016 $275 6.2831853071796004 $174 $276 forward 7 unknown #
face $-1 $277 $278 $38 $-1 $279 forward single #
loop $-1 $-1 $280 $110 #
plane-surface $-1 -6.1539917407611444 46.218937451667699 112.8866820000257 -1 0 0 0 0.5877852598018023 0.80901698891910034 forward_v I I I I #
coedge $-1 $281 $282 $283 $284 reversed $111 $-1 #
coedge $-1 $181 $113 $285 $286 reversed $71 $-1 #
coedge $-1 $113 $180 $281 $287 reversed $71 $-1 #
coedge $-1 $283 $288 $113 $183 forward $278 $-1 #
edge $-1 $289 -0.22689141241262334 $290 8.0157250582345689 $182 $291 forward 7 unknown #
loop $-1 $-1 $189 $114 #
plane-surface $-1 -16.47704552221753 -14.4226634845053 29.420680472258326 0 0.5877852598018023 0.80901698891910034 1 0 0 forward_v I I I I #
loop $-1 $-1 $292 $73 #
coedge $-1 $187 $187 $188 $293 reversed $115 $-1 #
coedge $-1 $188 $188 $187 $293 forward $117 $-1 #
coedge $-1 $189 $189 $118 $190 forward $184 $-1 #
edge $-1 $294 -1.3921551551301128e-015 $294 6.2831853071795987 $189 $295 forward 7 unknown #
loop $-1 $-1 $196 $119 #
plane-surface $-1 -16.47704552221753 -14.4226634845053 29.420680472258326 0 0.5877852598018023 0.80901698891910034 1 0 0 forward_v I I I I #
loop $-1 $-1 $296 $76 #
coedge $-1 $194 $194 $195 $297 reversed $120 $-1 #
coedge $-1 $195 $195 $194 $297 forward $122 $-1 #
coedge $-1 $196 $196 $123 $197 forward $191 $-1 #
edge $-1 $298 -1.3921551551301128e-015 $298 6.2831853071795987 $196 $299 forward 7 unknown #
face $-1 $300 $301 $41 $-1 $302 forward single #
loop $-1 $-1 $303 $124 #
plane-surface $-1 36.329178026970048 46.218937451667699 112.8866820000257 -1 0 0 0 0.5877852598018023 0.80901698891910034 forward_v I I I I #
coedge $-1 $304 $305 $306 $307 reversed $125 $-1 #
coedge $-1 $203 $127 $308 $309 reversed $80 $-1 #
coedge $-1 $127 $202 $304 $310 reversed $80 $-1 #
coedge $-1 $306 $311 $127 $205 forward $301 $-1 #
edge $-1 $312 -0.22689141241262334 $313 8.0157250582345689 $204 $314 forward 7 unknown #
loop $-1 $-1 $211 $128 #
plane-surface $-1 26.006124245513661 -14.4226634845053 29.420680472258326 0 0.5877852598018023 0.80901698891910034 1 0 0 forward_v I I I I #
loop $-1 $-1 $315 $82 #
coedge $-1 $209 $209 $210 $316 reversed $129 $-1 #
coedge $-1 $210 $210 $209 $316 forward $131 $-1 #
coedge $-1 $211 $211 $132 $212 forward $206 $-1 #
edge $-1 $317 -1.3921551551301128e-015 $317 6.2831853071795987 $211 $318 forward 7 unknown #
loop $-1 $-1 $218 $133 #
plane-surface $-1 26.006124245513661 -14.4226634845053 29.420680472258326 0 0.5877852598018023 0.80901698891910034 1 0 0 forward_v I I I I #
loop $-1 $-1 $319 $85 #
coedge $-1 $216 $216 $217 $320 reversed $134 $-1 #
coedge $-1 $217 $217 $216 $320 forward $136 $-1 #
coedge $-1 $218 $218 $137 $219 forward $213 $-1 #
edge $-1 $321 -1.3921551551301128e-015 $321 6.2831853071795987 $218 $322 forward 7 unknown #
face $-1 $323 $324 $33 $-1 $325 reversed single #
loop $-1 $-1 $326 $138 #
plane-surface $-1 -51.584826197088532 0 0 1 0 0 0 0 -1 forward_v I I I I #
coedge $-1 $327 $231 $328 $329 forward $139 $-1 #
coedge $-1 $330 $141 $327 $331 forward $89 $-1 #
coedge $-1 $141 $330 $332 $333 forward $89 $-1 #
coedge $-1 $234 $233 $141 $227 reversed $235 $-1 #
edge $-1 $334 -23.336360138246473 $335 23.336360138246473 $226 $336 forward 7 unknown #
coedge $-1 $143 $142 $337 $338 forward $56 $-1 #
coedge $-1 $339 $340 $142 $230 reversed $324 $-1 #
edge $-1 $237 -51.584826197088532 $341 51.584826197088532 $229 $342 forward 7 unknown #
coedge $-1 $223 $343 $143 $232 reversed $139 $-1 #
edge $-1 $344 -51.584826197088532 $236 51.584826197088532 $231 $345 forward 7 unknown #
coedge $-1 $226 $144 $343 $346 forward $235 $-1 #
coedge $-1 $144 $226 $339 $347 reversed $235 $-1 #
loop $-1 $-1 $233 $323 #
vertex $-1 $145 $348 #
vertex $-1 $145 $349 #
straight-curve $-1 51.584826197088532 0 7.9757549837399964 0 1 0 I I #
face $-1 $350 $351 $34 $-1 $352 forward single #
loop $-1 $-1 $353 $146 #
plane-surface $-1 -61.113904920384655 0 5.9867452529245 1 0 0 0 0 -1 forward_v I I I I #
coedge $-1 $354 $149 $249 $355 reversed $93 $-1 #
coedge $-1 $149 $354 $356 $357 reversed $93 $-1 #
edge $-1 $358 -7.9757549837399964 $251 -3.9977355221090036 $149 $359 forward 7 unknown #
coedge $-1 $151 $150 $360 $361 reversed $59 $-1 #
coedge $-1 $362 $363 $151 $247 forward $364 $-1 #
edge $-1 $250 3.9977355221090036 $365 7.9757549837399964 $246 $366 forward 7 unknown #
coedge $-1 $367 $152 $363 $368 forward $147 $-1 #
coedge $-1 $152 $367 $242 $355 forward $147 $-1 #
vertex $-1 $247 $369 #
vertex $-1 $244 $370 #
straight-curve $-1 -51.584826197088532 0 3.9977355221090036 0 1 0 I I #
face $-1 $-1 $265 $35 $-1 $371 forward single #
loop $-1 $-1 $372 $154 #
plane-surface $-1 0 -23.336360138246473 0 0 1 0 0 0 1 forward_v I I I I #
coedge $-1 $373 $374 $375 $376 reversed $155 $-1 #
coedge $-1 $377 $157 $159 $263 forward $97 $-1 #
coedge $-1 $157 $377 $373 $378 forward $97 $-1 #
coedge $-1 $375 $160 $157 $260 forward $265 $-1 #
edge $-1 $267 -9.0111379750885554 $379 10.689476140178389 $259 $380 forward 7 unknown #
coedge $-1 $381 $382 $158 $262 forward $254 $-1 #
edge $-1 $383 -41.494069024967047 $266 -36.061693667761695 $261 $384 forward 7 unknown #
edge $-1 $267 -9.7146713645422444 $383 4.1869907962579859e-015 $159 $385 forward 7 unknown #
coedge $-1 $160 $375 $381 $386 forward $265 $-1 #
loop $-1 $-1 $375 $253 #
vertex $-1 $262 $387 #
vertex $-1 $161 $388 #
straight-curve $-1 8.1719688925436387 -40.514049180207579 7.9757549837399964 0 1 0 I I #
coedge $-1 $269 $269 $-1 $389 reversed $164 $-1 #
edge $-1 $390 0 $390 6.2831853071796004 $165 $391 forward 7 unknown #
vertex $-1 $168 $392 #
ellipse-curve $-1 -5.8998983326470338 -19.30944637894255 5.259567305137316 0 -0.55919291073839883 0.82903756765294845 2 0 0 1 I I #
coedge $-1 $273 $273 $-1 $393 reversed $171 $-1 #
edge $-1 $394 0 $394 6.2831853071796004 $172 $395 forward 7 unknown #
vertex $-1 $175 $396 #
ellipse-curve $-1 2.543222002467374 -19.30944637894255 5.259567305137316 0 -0.55919291073839883 0.82903756765294845 2 0 0 1 I I #
face $-1 $-1 $397 $38 $-1 $398 reversed single #
loop $-1 $-1 $182 $176 #
plane-surface $-1 0 0 7.9757549837399964 0 0 1 1 0 0 forward_v I I I I #
coedge $-1 $399 $400 $401 $402 reversed $177 $-1 #
coedge $-1 $403 $179 $181 $287 forward $111 $-1 #
coedge $-1 $179 $403 $399 $404 forward $111 $-1 #
coedge $-1 $401 $182 $179 $284 forward $278 $-1 #
edge $-1 $290 -18.561576542565152 $405 2.0845310203476206 $283 $406 forward 7 unknown #
coedge $-1 $407 $408 $180 $286 forward $397 $-1 #
edge $-1 $409 -54.456197541129782 $289 -48.467586016272854 $285 $410 forward 7 unknown #
edge $-1 $290 36.484285937604881 $409 46.672720276492953 $181 $411 forward 7 unknown #
coedge $-1 $182 $401 $407 $412 forward $278 $-1 #
vertex $-1 $286 $413 #
vertex $-1 $183 $414 #
straight-curve $-1 -26.800099303673917 23.10946872583385 7.9757549837399964 0 -1 0 I I #
coedge $-1 $292 $292 $-1 $415 reversed $186 $-1 #
edge $-1 $416 0 $416 6.2831853071796004 $187 $417 forward 7 unknown #
vertex $-1 $190 $418 #
ellipse-curve $-1 -20.901211428555978 19.21505190292288 4.9814492213115269 0 0.5877852598018023 0.80901698891910034 1.5 0 0 1 I I #
coedge $-1 $296 $296 $-1 $419 reversed $193 $-1 #
edge $-1 $420 0 $420 6.2831853071796004 $194 $421 forward 7 unknown #
vertex $-1 $197 $422 #
ellipse-curve $-1 -12.052879615879078 19.21505190292288 4.9814492213115269 0 0.5877852598018023 0.80901698891910034 1.5 0 0 1 I I #
face $-1 $-1 $423 $41 $-1 $424 reversed single #
loop $-1 $-1 $204 $198 #
plane-surface $-1 0 0 7.9757549837399964 0 0 1 1 0 0 forward_v I I I I #
coedge $-1 $425 $426 $427 $428 reversed $199 $-1 #
coedge $-1 $429 $201 $203 $310 forward $125 $-1 #
coedge $-1 $201 $429 $425 $430 forward $125 $-1 #
coedge $-1 $427 $204 $201 $307 forward $301 $-1 #
edge $-1 $313 2.6800083413004447 $431 23.326115904213218 $306 $432 forward 7 unknown #
coedge $-1 $433 $434 $202 $309 forward $423 $-1 #
edge $-1 $435 -54.456197541129782 $312 -48.467586016272854 $308 $436 forward 7 unknown #
edge $-1 $313 36.484285937604881 $435 46.672720276492953 $203 $437 forward 7 unknown #
coedge $-1 $204 $427 $433 $438 forward $301 $-1 #
vertex $-1 $205 $439 #
vertex $-1 $205 $440 #
straight-curve $-1 15.683070464057275 23.10946872583385 7.9757549837399964 0 -1 0 I I #
coedge $-1 $315 $315 $-1 $441 reversed $208 $-1 #
edge $-1 $442 0 $442 6.2831853071796004 $209 $443 forward 7 unknown #
vertex $-1 $212 $444 #
ellipse-curve $-1 21.581958339175216 19.21505190292288 4.9814492213115269 0 0.5877852598018023 0.80901698891910034 1.5 0 0 1 I I #
coedge $-1 $319 $319 $-1 $445 reversed $215 $-1 #
edge $-1 $446 0 $446 6.2831853071796004 $216 $447 forward 7 unknown #
vertex $-1 $219 $448 #
ellipse-curve $-1 30.430290151852105 19.21505190292288 4.9814492213115269 0 0.5877852598018023 0.80901698891910034 1.5 0 0 1 I I #
face $-1 $-1 $235 $33 $-1 $449 reversed single #
loop $-1 $-1 $339 $220 #
plane-surface $-1 0 23.336360138246473 0 0 -1 0 0 0 -1 forward_v I I I I #
coedge $-1 $450 $337 $340 $451 forward $221 $-1 #
coedge $-1 $343 $223 $224 $331 reversed $139 $-1 #
coedge $-1 $337 $450 $223 $329 reversed $221 $-1 #
edge $-1 $344 -7.9757549837399964 $452 7.9757549837399964 $328 $453 forward 7 unknown #
coedge $-1 $225 $224 $450 $454 forward $89 $-1 #
edge $-1 $335 -51.584826197088532 $452 51.584826197088532 $327 $455 forward 7 unknown #
coedge $-1 $340 $339 $225 $333 reversed $324 $-1 #
edge $-1 $456 -51.584826197088532 $334 51.584826197088532 $332 $457 forward 7 unknown #
vertex $-1 $227 $458 #
vertex $-1 $346 $459 #
straight-curve $-1 51.584826197088532 0 -7.9757549837399964 0 -1 0 I I #
coedge $-1 $326 $328 $228 $338 reversed $221 $-1 #
edge $-1 $341 -23.336360138246473 $344 23.336360138246473 $337 $460 forward 7 unknown #
coedge $-1 $332 $229 $234 $347 forward $324 $-1 #
coedge $-1 $229 $332 $326 $451 reversed $324 $-1 #
vertex $-1 $230 $461 #
straight-curve $-1 0 23.336360138246473 7.9757549837399964 -1 0 0 I I #
coedge $-1 $231 $327 $233 $346 reversed $139 $-1 #
vertex $-1 $338 $462 #
straight-curve $-1 0 -23.336360138246473 7.9757549837399964 1 0 0 I I #
edge $-1 $236 -7.9757549837399964 $335 7.9757549837399964 $233 $463 forward 7 unknown #
edge $-1 $237 -7.9757549837399964 $334 7.9757549837399964 $234 $464 forward 7 unknown #
point $-1 51.584826197088532 -23.336360138246473 7.9757549837399964 #
point $-1 51.584826197088532 23.336360138246473 7.9757549837399964 #
face $-1 $-1 $364 $34 $-1 $465 reversed single #
loop $-1 $-1 $360 $239 #
plane-surface $-1 0 0 7.9757549837399964 0 0 1 1 0 0 forward_v I I I I #
coedge $-1 $466 $467 $354 $468 forward $240 $-1 #
coedge $-1 $243 $242 $353 $468 reversed $93 $-1 #
edge $-1 $469 -4.7645393616480618 $251 4.7645393616480618 $242 $470 forward 7 unknown #
coedge $-1 $471 $360 $243 $357 forward $351 $-1 #
edge $-1 $358 51.584826197088532 $472 61.113904920384655 $243 $473 forward 7 unknown #
vertex $-1 $357 $474 #
straight-curve $-1 -51.584826197088532 23.336360138246473 0 0 0 -1 I I #
coedge $-1 $356 $475 $245 $361 forward $351 $-1 #
edge $-1 $365 -23.336360138246473 $358 23.336360138246473 $360 $476 forward 7 unknown #
coedge $-1 $477 $246 $475 $478 reversed $364 $-1 #
coedge $-1 $246 $477 $248 $368 reversed $364 $-1 #
loop $-1 $-1 $246 $350 #
vertex $-1 $247 $479 #
straight-curve $-1 -51.584826197088532 -23.336360138246473 0 0 0 1 I I #
coedge $-1 $249 $248 $466 $480 forward $147 $-1 #
edge $-1 $250 -4.7645393616480618 $481 4.7645393616480618 $363 $482 forward 7 unknown #
point $-1 -51.584826197088532 -23.336360138246473 3.9977355221090036 #
point $-1 -51.584826197088532 23.336360138246473 3.9977355221090036 #
plane-surface $-1 0 0 7.9757549837399964 0 0 1 1 0 0 forward_v I I I I #
coedge $-1 $382 $381 $374 $483 forward $254 $-1 #
coedge $-1 $374 $256 $258 $378 reversed $155 $-1 #
coedge $-1 $256 $373 $372 $483 reversed $155 $-1 #
coedge $-1 $264 $259 $256 $376 forward $265 $-1 #
edge $-1 $379 -25.231516560568963 $484 -17.177689041961106 $375 $485 forward 7 unknown #
coedge $-1 $258 $257 $382 $486 reversed $97 $-1 #
edge $-1 $487 -4.1869907962579859e-015 $379 9.7146713645422444 $373 $488 forward 7 unknown #
vertex $-1 $260 $489 #
straight-curve $-1 -0.83916908254491673 -15.282532619638616 7.9757549837399964 -1 0 0 I I #
coedge $-1 $372 $261 $264 $386 reversed $254 $-1 #
coedge $-1 $261 $372 $377 $486 forward $254 $-1 #
vertex $-1 $262 $490 #
straight-curve $-1 8.1719688925436387 -23.336360138246473 44.037448651501691 0 0 1 I I #
straight-curve $-1 8.1719688925436387 -23.336360138246469 2.5433796265346444 0 -0.82903756765294845 -0.55919291073839883 I I #
edge $-1 $484 -11.528645222723306 $266 8.1719688925436387 $381 $491 forward 7 unknown #
point $-1 8.1719688925436387 -23.336360138246473 7.9757549837399964 #
point $-1 8.1719688925436387 -15.282532619638616 7.9757549837399955 #
edge $-1 $492 1 $492 0 $269 $-1 forward 7 unknown #
vertex $-1 $270 $493 #
ellipse-curve $-1 -5.8998983326470338 -16.877749920581572 1.6544291168726508 0 -0.55919291073839883 0.82903756765294845 2 0 0 1 I I #
point $-1 -3.8998983326470338 -19.309446378942557 5.2595673051373257 #
edge $-1 $494 1 $494 0 $273 $-1 forward 7 unknown #
vertex $-1 $274 $495 #
ellipse-curve $-1 2.543222002467374 -16.877749920581572 1.6544291168726508 0 -0.55919291073839883 0.82903756765294845 2 0 0 1 I I #
point $-1 4.543222002467374 -19.309446378942557 5.2595673051373257 #
loop $-1 $-1 $285 $277 #
plane-surface $-1 0 23.336360138246473 0 0 -1 0 0 0 -1 forward_v I I I I #
coedge $-1 $400 $280 $282 $404 reversed $177 $-1 #
coedge $-1 $280 $399 $496 $497 reversed $177 $-1 #
coedge $-1 $288 $283 $280 $402 forward $278 $-1 #
edge $-1 $405 -8.0157250582345689 $498 0.22689141241262334 $401 $499 forward 7 unknown #
coedge $-1 $282 $281 $408 $500 reversed $111 $-1 #
edge $-1 $501 -46.672720276492953 $405 -36.484285937604881 $399 $502 forward 7 unknown #
vertex $-1 $284 $503 #
straight-curve $-1 -8.238522761108765 15.093743667599277 7.9757549837399964 1 0 0 I I #
coedge $-1 $496 $285 $288 $412 reversed $397 $-1 #
coedge $-1 $285 $496 $403 $500 forward $397 $-1 #
vertex $-1 $286 $504 #
straight-curve $-1 -26.800099303673917 23.336360138246473 56.44334100001285 0 0 1 I I #
straight-curve $-1 -26.800099303673917 -14.4226634845053 29.420680472258326 0 0.80901698891910034 -0.5877852598018023 I I #
edge $-1 $498 6.1539917407611444 $289 26.800099303673917 $407 $505 forward 7 unknown #
point $-1 -26.800099303673917 23.336360138246473 7.9757549837399964 #
point $-1 -26.800099303673917 15.093743667599281 7.9757549837399964 #
edge $-1 $506 1 $506 0 $292 $-1 forward 7 unknown #
vertex $-1 $293 $507 #
ellipse-curve $-1 -20.901211428555978 17.837011452370977 3.08473929651664 0 0.5877852598018023 0.80901698891910034 1.5 0 0 1 I I #
point $-1 -19.401211428555978 19.21505190292288 4.9814492213115305 #
edge $-1 $508 1 $508 0 $296 $-1 forward 7 unknown #
vertex $-1 $297 $509 #
ellipse-curve $-1 -12.052879615879078 17.837011452370977 3.08473929651664 0 0.5877852598018023 0.80901698891910034 1.5 0 0 1 I I #
point $-1 -10.552879615879078 19.21505190292288 4.9814492213115305 #
loop $-1 $-1 $308 $300 #
plane-surface $-1 0 23.336360138246473 0 0 -1 0 0 0 -1 forward_v I I I I #
coedge $-1 $426 $303 $305 $430 reversed $199 $-1 #
coedge $-1 $303 $425 $510 $511 reversed $199 $-1 #
coedge $-1 $311 $306 $303 $428 forward $301 $-1 #
edge $-1 $431 -8.0157250582345689 $512 0.22689141241262334 $427 $513 forward 7 unknown #
coedge $-1 $305 $304 $434 $514 reversed $125 $-1 #
edge $-1 $515 -46.672720276492953 $431 -36.484285937604881 $425 $516 forward 7 unknown #
vertex $-1 $307 $517 #
straight-curve $-1 13.00306212275683 15.093743667599277 7.9757549837399964 1 0 0 I I #
coedge $-1 $510 $308 $311 $438 reversed $423 $-1 #
coedge $-1 $308 $510 $429 $514 forward $423 $-1 #
vertex $-1 $309 $518 #
straight-curve $-1 15.683070464057275 23.336360138246473 56.44334100001285 0 0 1 I I #
straight-curve $-1 15.683070464057275 -14.4226634845053 29.420680472258326 0 0.80901698891910034 -0.5877852598018023 I I #
edge $-1 $512 -36.329178026970048 $312 -15.683070464057275 $433 $519 forward 7 unknown #
point $-1 15.683070464057275 23.336360138246473 7.9757549837399964 #
point $-1 15.683070464057275 15.093743667599281 7.9757549837399964 #
edge $-1 $520 1 $520 0 $315 $-1 forward 7 unknown #
vertex $-1 $316 $521 #
ellipse-curve $-1 21.581958339175216 17.837011452370977 3.08473929651664 0 0.5877852598018023 0.80901698891910034 1.5 0 0 1 I I #
point $-1 23.081958339175216 19.21505190292288 4.9814492213115305 #
edge $-1 $522 1 $522 0 $319 $-1 forward 7 unknown #
vertex $-1 $320 $523 #
ellipse-curve $-1 30.430290151852105 17.837011452370977 3.08473929651664 0 0.5877852598018023 0.80901698891910034 1.5 0 0 1 I I #
point $-1 31.930290151852105 19.21505190292288 4.9814492213115305 #
plane-surface $-1 51.584826197088532 0 0 -1 0 0 0 0 1 forward_v I I I I #
coedge $-1 $328 $326 $330 $454 reversed $221 $-1 #
edge $-1 $341 -7.9757549837399964 $456 7.9757549837399964 $340 $524 forward 7 unknown #
vertex $-1 $454 $525 #
straight-curve $-1 -51.584826197088532 -23.336360138246473 0 0 0 -1 I I #
edge $-1 $452 -23.336360138246473 $456 23.336360138246473 $450 $526 forward 7 unknown #
straight-curve $-1 0 -23.336360138246473 -7.9757549837399964 -1 0 0 I I #
vertex $-1 $333 $527 #
straight-curve $-1 0 23.336360138246473 -7.9757549837399964 1 0 0 I I #
point $-1 51.584826197088532 23.336360138246473 -7.9757549837399964 #
point $-1 51.584826197088532 -23.336360138246473 -7.9757549837399964 #
straight-curve $-1 -51.584826197088532 0 7.9757549837399964 0 -1 0 I I #
point $-1 -51.584826197088532 23.336360138246473 7.9757549837399964 #
point $-1 -51.584826197088532 -23.336360138246473 7.9757549837399964 #
straight-curve $-1 51.584826197088532 -23.336360138246473 0 0 0 -1 I I #
straight-curve $-1 51.584826197088532 23.336360138246473 0 0 0 -1 I I #
plane-surface $-1 0 -23.336360138246473 0 0 1 0 0 0 1 forward_v I I I I #
coedge $-1 $528 $353 $367 $480 reversed $240 $-1 #
coedge $-1 $353 $528 $471 $529 reversed $240 $-1 #
edge $-1 $472 -1.9890097308154964 $469 1.9890097308154964 $354 $530 forward 7 unknown #
vertex $-1 $355 $531 #
straight-curve $-1 -56.349365558736594 23.336360138246473 3.9977355221090036 1 0 0 I I #
coedge $-1 $475 $356 $467 $529 forward $351 $-1 #
vertex $-1 $357 $532 #
straight-curve $-1 0 23.336360138246473 7.9757549837399964 -1 0 0 I I #
point $-1 -51.584826197088532 23.336360138246473 7.9757549837399964 #
coedge $-1 $360 $471 $362 $478 forward $351 $-1 #
straight-curve $-1 -51.584826197088532 0 7.9757549837399964 0 1 0 I I #
coedge $-1 $363 $362 $528 $533 forward $364 $-1 #
edge $-1 $534 -61.113904920384655 $365 -51.584826197088532 $362 $535 forward 7 unknown #
point $-1 -51.584826197088532 -23.336360138246473 7.9757549837399964 #
edge $-1 $481 -23.336360138246473 $469 23.336360138246473 $466 $536 forward 7 unknown #
vertex $-1 $480 $537 #
straight-curve $-1 -56.349365558736594 -23.336360138246473 3.9977355221090036 -1 0 0 I I #
edge $-1 $484 36.061693667761695 $487 41.494069024967047 $372 $538 forward 7 unknown #
vertex $-1 $386 $539 #
straight-curve $-1 -11.528645222723306 -40.514049180207579 7.9757549837399964 0 -1 0 I I #
edge $-1 $487 -10.689476140178389 $383 9.0111379750885554 $382 $540 forward 7 unknown #
vertex $-1 $486 $541 #
straight-curve $-1 -11.528645222723306 -23.336360138246469 2.5433796265346444 0 0.82903756765294845 0.55919291073839883 I I #
point $-1 -11.528645222723306 -15.282532619638616 7.9757549837399955 #
point $-1 8.1719688925436387 -23.336360138246473 2.5433796265346422 #
straight-curve $-1 0 -23.336360138246473 7.9757549837399964 1 0 0 I I #
vertex $-1 $389 $542 #
point $-1 -3.8998983326470338 -16.877749920581572 1.6544291168726508 #
vertex $-1 $393 $543 #
point $-1 4.543222002467374 -16.877749920581572 1.6544291168726508 #
coedge $-1 $408 $407 $400 $497 forward $397 $-1 #
edge $-1 $498 48.467586016272854 $501 54.456197541129782 $496 $544 forward 7 unknown #
vertex $-1 $412 $545 #
straight-curve $-1 -6.1539917407611444 23.10946872583385 7.9757549837399964 0 1 0 I I #
edge $-1 $501 -2.0845310203476206 $409 18.561576542565152 $408 $546 forward 7 unknown #
vertex $-1 $500 $547 #
straight-curve $-1 -6.1539917407611444 -14.4226634845053 29.420680472258326 0 -0.80901698891910034 0.5877852598018023 I I #
point $-1 -6.1539917407611444 15.093743667599281 7.9757549837399964 #
point $-1 -26.800099303673917 23.336360138246469 1.9871434588830681 #
straight-curve $-1 0 23.336360138246473 7.9757549837399964 -1 0 0 I I #
vertex $-1 $415 $548 #
point $-1 -19.401211428555978 17.837011452370977 3.08473929651664 #
vertex $-1 $419 $549 #
point $-1 -10.552879615879078 17.837011452370977 3.08473929651664 #
coedge $-1 $434 $433 $426 $511 forward $423 $-1 #
edge $-1 $512 48.467586016272854 $515 54.456197541129782 $510 $550 forward 7 unknown #
vertex $-1 $438 $551 #
straight-curve $-1 36.329178026970048 23.10946872583385 7.9757549837399964 0 1 0 I I #
edge $-1 $515 -23.326115904213218 $435 -2.6800083413004447 $434 $552 forward 7 unknown #
vertex $-1 $514 $553 #
straight-curve $-1 36.329178026970048 -14.4226634845053 29.420680472258326 0 -0.80901698891910034 0.5877852598018023 I I #
point $-1 36.329178026970048 15.093743667599281 7.9757549837399964 #
point $-1 15.683070464057275 23.336360138246469 1.9871434588830681 #
straight-curve $-1 0 23.336360138246473 7.9757549837399964 -1 0 0 I I #
vertex $-1 $441 $554 #
point $-1 23.081958339175216 17.837011452370977 3.08473929651664 #
vertex $-1 $445 $555 #
point $-1 31.930290151852105 17.837011452370977 3.08473929651664 #
straight-curve $-1 -51.584826197088532 23.336360138246473 0 0 0 -1 I I #
point $-1 -51.584826197088532 -23.336360138246473 -7.9757549837399964 #
straight-curve $-1 -51.584826197088532 0 -7.9757549837399964 0 1 0 I I #
point $-1 -51.584826197088532 23.336360138246473 -7.9757549837399964 #
coedge $-1 $467 $466 $477 $533 reversed $240 $-1 #
edge $-1 $472 -23.336360138246473 $534 23.336360138246473 $467 $556 forward 7 unknown #
straight-curve $-1 -61.113904920384655 23.336360138246473 5.9867452529245 0 0 -1 I I #
point $-1 -61.113904920384655 23.336360138246473 3.9977355221090036 #
point $-1 -61.113904920384655 23.336360138246473 7.9757549837399964 #
edge $-1 $534 -1.9890097308154964 $481 1.9890097308154964 $528 $557 forward 7 unknown #
vertex $-1 $529 $558 #
straight-curve $-1 0 -23.336360138246473 7.9757549837399964 1 0 0 I I #
straight-curve $-1 -61.113904920384655 0 3.9977355221090036 0 1 0 I I #
point $-1 -61.113904920384655 -23.336360138246473 3.9977355221090036 #
straight-curve $-1 -11.528645222723306 -23.336360138246473 44.037448651501691 0 0 -1 I I #
point $-1 -11.528645222723306 -23.336360138246473 7.9757549837399964 #
straight-curve $-1 -0.83916908254491673 -23.336360138246473 2.5433796265346404 1 0 0 I I #
point $-1 -11.528645222723306 -23.336360138246473 2.5433796265346422 #
point $-1 -5.8998983326470338 -15.759364099104772 -0.0036460184332460788 #
point $-1 2.543222002467374 -15.759364099104772 -0.0036460184332460788 #
straight-curve $-1 -6.1539917407611444 23.336360138246473 56.44334100001285 0 0 -1 I I #
point $-1 -6.1539917407611444 23.336360138246473 7.9757549837399964 #
straight-curve $-1 -8.238522761108765 23.336360138246476 1.9871434588830681 -1 0 0 I I #
point $-1 -6.1539917407611444 23.336360138246469 1.9871434588830681 #
point $-1 -20.901211428555978 16.955333562668276 1.8712138131379894 #
point $-1 -12.052879615879078 16.955333562668276 1.8712138131379894 #
straight-curve $-1 36.329178026970048 23.336360138246473 56.44334100001285 0 0 -1 I I #
point $-1 36.329178026970048 23.336360138246473 7.9757549837399964 #
straight-curve $-1 13.00306212275683 23.336360138246476 1.9871434588830681 -1 0 0 I I #
point $-1 36.329178026970048 23.336360138246469 1.9871434588830681 #
point $-1 21.581958339175216 16.955333562668276 1.8712138131379894 #
point $-1 30.430290151852105 16.955333562668276 1.8712138131379894 #
straight-curve $-1 -61.113904920384655 0 7.9757549837399964 0 -1 0 I I #
straight-curve $-1 -61.113904920384655 -23.336360138246473 5.9867452529245 0 0 -1 I I #
point $-1 -61.113904920384655 -23.336360138246473 7.9757549837399964 #
End-of-ACIS-data 