500 0 11 0           
7 Unknown 11 ACIS 5.0 NT 24 Thu Mar 25 22:11:01 1999 
-1 9.9999999999999995e-007 1e-010 
body $-1 $11 $-1 $12 #
body $-1 $13 $-1 $14 #
body $-1 $15 $-1 $16 #
body $-1 $17 $-1 $18 #
body $-1 $19 $-1 $20 #
body $-1 $21 $-1 $22 #
body $-1 $23 $-1 $24 #
body $-1 $25 $-1 $26 #
body $-1 $27 $-1 $28 #
body $-1 $29 $-1 $30 #
body $-1 $31 $-1 $32 #
lump $-1 $-1 $33 $0 #
transform $-1 1 0 0 0 1 0 0 0 1 45.692312387462998 19.513533207959295 5.5724366873231217 1 rotate no_reflect no_shear #
lump $-1 $-1 $34 $1 #
transform $-1 1 0 0 0 1 0 0 0 1 45.692312387462998 19.513533207959295 5.5724366873231217 1 rotate no_reflect no_shear #
lump $-1 $-1 $35 $2 #
transform $-1 1 0 0 0 1 0 0 0 1 45.692312387462998 19.513533207959295 5.5724366873231217 1 rotate no_reflect no_shear #
lump $-1 $-1 $36 $3 #
transform $-1 1 0 0 0 1 0 0 0 1 45.692312387462998 19.513533207959295 5.5724366873231217 1 rotate no_reflect no_shear #
lump $-1 $-1 $37 $4 #
transform $-1 1 0 0 0 1 0 0 0 1 45.692312387462998 19.513533207959295 5.5724366873231217 1 rotate no_reflect no_shear #
lump $-1 $-1 $38 $5 #
transform $-1 1 0 0 0 1 0 0 0 1 45.692312387462998 19.513533207959295 5.5724366873231217 1 rotate no_reflect no_shear #
lump $-1 $-1 $39 $6 #
transform $-1 1 0 0 0 1 0 0 0 1 45.692312387462998 19.513533207959295 5.5724366873231217 1 rotate no_reflect no_shear #
lump $-1 $-1 $40 $7 #
transform $-1 1 0 0 0 1 0 0 0 1 45.692312387462998 19.513533207959295 5.5724366873231217 1 rotate no_reflect no_shear #
lump $-1 $-1 $41 $8 #
transform $-1 1 0 0 0 1 0 0 0 1 45.692312387462998 19.513533207959295 5.5724366873231217 1 rotate no_reflect no_shear #
lump $-1 $-1 $42 $9 #
transform $-1 1 0 0 0 1 0 0 0 1 45.692312387462998 19.513533207959295 5.5724366873231217 1 rotate no_reflect no_shear #
lump $-1 $-1 $43 $10 #
transform $-1 1 0 0 0 1 0 0 0 1 45.692312387462998 19.513533207959295 5.5724366873231217 1 rotate no_reflect no_shear #
shell $-1 $-1 $-1 $44 $-1 $11 #
shell $-1 $-1 $-1 $45 $-1 $13 #
shell $-1 $-1 $-1 $46 $-1 $15 #
shell $-1 $-1 $-1 $47 $-1 $17 #
shell $-1 $-1 $-1 $48 $-1 $19 #
shell $-1 $-1 $-1 $49 $-1 $21 #
shell $-1 $-1 $-1 $50 $-1 $23 #
shell $-1 $-1 $-1 $51 $-1 $25 #
shell $-1 $-1 $-1 $52 $-1 $27 #
shell $-1 $-1 $-1 $53 $-1 $29 #
shell $-1 $-1 $-1 $54 $-1 $31 #
face $-1 $55 $56 $33 $-1 $57 forward single #
face $-1 $58 $59 $34 $-1 $60 forward single #
face $-1 $61 $62 $35 $-1 $63 reversed single #
face $-1 $64 $65 $36 $-1 $66 forward single #
face $-1 $67 $68 $37 $-1 $69 forward single #
face $-1 $70 $71 $38 $-1 $72 reversed single #
face $-1 $73 $74 $39 $-1 $75 forward single #
face $-1 $76 $77 $40 $-1 $78 forward single #
face $-1 $79 $80 $41 $-1 $81 reversed single #
face $-1 $82 $83 $42 $-1 $84 forward single #
face $-1 $85 $86 $43 $-1 $87 forward single #
face $-1 $88 $89 $33 $-1 $90 reversed single #
loop $-1 $-1 $91 $44 #
plane-surface $-1 0 0 5.5724366873231217 0 0 1 1 0 0 forward_v I I I I #
face $-1 $92 $93 $34 $-1 $94 forward single #
loop $-1 $-1 $95 $45 #
plane-surface $-1 0 -19.513533207959295 0 0 1 0 0 0 1 forward_v I I I I #
face $-1 $96 $97 $35 $-1 $98 reversed single #
loop $-1 $-1 $99 $46 #
plane-surface $-1 52.456075626876476 -5.8277733300199905 129.6747341013602 0 -1 0 -0.74314483375859142 0 -0.66913059716165679 forward_v I I I I #
face $-1 $100 $101 $36 $-1 $102 forward single #
loop $-1 $103 $104 $47 #
cone-surface $-1 43.059131830184491 -10.859440733015678 2.7323070634828932 -0.74314483375859142 0 -0.66913059716165679 0.3345652985808284 0 -0.37157241687929571 1 I I 0 1 0.5 forward I I I I #
face $-1 $105 $106 $37 $-1 $107 forward single #
loop $-1 $108 $109 $48 #
cone-surface $-1 43.059131830184491 -7.8404402912182647 2.7323070634828932 -0.74314483375859142 0 -0.66913059716165679 0.3345652985808284 0 -0.37157241687929571 1 I I 0 1 0.5 forward I I I I #
face $-1 $110 $111 $38 $-1 $112 reversed single #
loop $-1 $-1 $113 $49 #
plane-surface $-1 52.456075626876476 12.469198843765335 129.6747341013602 0 1 0 0.74314483375859142 0 0.66913059716165679 forward_v I I I I #
face $-1 $114 $115 $39 $-1 $116 forward single #
loop $-1 $117 $118 $50 #
cone-surface $-1 43.059131830184491 14.481865804963608 2.7323070634828932 -0.74314483375859142 0 -0.66913059716165679 0.3345652985808284 0 -0.37157241687929571 1 I I 0 1 0.5 forward I I I I #
face $-1 $119 $120 $40 $-1 $121 forward single #
loop $-1 $122 $123 $51 #
cone-surface $-1 43.059131830184491 17.500866246761024 2.7323070634828932 -0.74314483375859142 0 -0.66913059716165679 0.3345652985808284 0 -0.37157241687929571 1 I I 0 1 0.5 forward I I I I #
face $-1 $124 $125 $41 $-1 $126 reversed single #
loop $-1 $-1 $127 $52 #
plane-surface $-1 -96.793946712090261 -12.872107694213952 76.835340400380161 0 1 0 -0.55919291073839883 0 0.82903756765294845 forward_v I I I I #
face $-1 $128 $129 $42 $-1 $130 forward single #
loop $-1 $131 $132 $53 #
cone-surface $-1 -41.847001118443792 -10.980112070528746 2.5660306418739234 0.55919291073839883 0 -0.82903756765294845 0.41451878382647422 0 0.27959645536919941 1 I I 0 1 0.5 forward I I I I #
face $-1 $133 $134 $43 $-1 $135 forward single #
loop $-1 $136 $137 $54 #
cone-surface $-1 -41.847001118443792 -8.1421186350009354 2.5660306418739234 0.55919291073839883 0 -0.82903756765294845 0.41451878382647422 0 0.27959645536919941 1 I I 0 1 0.5 forward I I I I #
face $-1 $138 $139 $33 $-1 $140 reversed single #
loop $-1 $-1 $141 $55 #
plane-surface $-1 0 0 -5.5724366873231217 0 0 1 1 0 0 forward_v I I I I #
coedge $-1 $142 $143 $144 $145 forward $56 $-1 #
face $-1 $146 $147 $34 $-1 $148 reversed single #
loop $-1 $-1 $149 $58 #
plane-surface $-1 0 0 5.5724366873231217 0 0 1 1 0 0 forward_v I I I I #
coedge $-1 $150 $151 $152 $153 forward $59 $-1 #
face $-1 $154 $155 $35 $-1 $156 reversed single #
loop $-1 $-1 $157 $61 #
plane-surface $-1 -15.455936159577156 -9.3499405121169712 68.526485554320033 0.74314483375859142 0 0.66913059716165679 0.66913059716165679 0 -0.74314483375859142 forward_v I I I I #
coedge $-1 $158 $159 $160 $161 reversed $62 $-1 #
face $-1 $-1 $162 $36 $-1 $163 forward single #
loop $-1 $164 $165 $64 #
cone-surface $-1 42.472249940991979 -10.859440733015678 2.203876250080623 -0.74314483375859142 0 -0.66913059716165679 0.1672826492904142 0 -0.18578620843964785 1 I I -0.70710678118654746 0.70710678118654746 0.25 forward I I I I #
loop $-1 $-1 $166 $47 #
coedge $-1 $104 $104 $167 $168 reversed $65 $-1 #
face $-1 $-1 $169 $37 $-1 $170 forward single #
loop $-1 $171 $172 $67 #
cone-surface $-1 42.472249940991979 -7.8404402912182647 2.203876250080623 -0.74314483375859142 0 -0.66913059716165679 0.1672826492904142 0 -0.18578620843964785 1 I I -0.70710678118654746 0.70710678118654746 0.25 forward I I I I #
loop $-1 $-1 $173 $48 #
coedge $-1 $109 $109 $174 $175 reversed $68 $-1 #
face $-1 $176 $177 $38 $-1 $178 reversed single #
loop $-1 $-1 $179 $70 #
plane-surface $-1 -15.455936159577156 15.991366025862316 68.526485554320033 0.74314483375859142 0 0.66913059716165679 0.66913059716165679 0 -0.74314483375859142 forward_v I I I I #
coedge $-1 $180 $181 $182 $183 reversed $71 $-1 #
face $-1 $-1 $184 $39 $-1 $185 forward single #
loop $-1 $186 $187 $73 #
cone-surface $-1 42.472249940991979 14.481865804963608 2.203876250080623 -0.74314483375859142 0 -0.66913059716165679 0.1672826492904142 0 -0.18578620843964785 1 I I -0.70710678118654746 0.70710678118654746 0.25 forward I I I I #
loop $-1 $-1 $188 $50 #
coedge $-1 $118 $118 $189 $190 reversed $74 $-1 #
face $-1 $-1 $191 $40 $-1 $192 forward single #
loop $-1 $193 $194 $76 #
cone-surface $-1 42.472249940991979 17.500866246761024 2.203876250080623 -0.74314483375859142 0 -0.66913059716165679 0.1672826492904142 0 -0.18578620843964785 1 I I -0.70710678118654746 0.70710678118654746 0.25 forward I I I I #
loop $-1 $-1 $195 $51 #
coedge $-1 $123 $123 $196 $197 reversed $77 $-1 #
face $-1 $198 $199 $41 $-1 $200 reversed single #
loop $-1 $-1 $201 $79 #
plane-surface $-1 -45.692312387462998 -9.5611153527648405 1.0740533560981476 -0.55919291073839883 0 0.82903756765294845 0.82903756765294845 0 0.55919291073839883 forward_v I I I I #
coedge $-1 $202 $203 $204 $205 reversed $80 $-1 #
face $-1 $-1 $206 $42 $-1 $207 forward single #
loop $-1 $208 $209 $82 #
cone-surface $-1 -41.196455332825707 -10.980112070528746 1.6015568701239804 0.55919291073839883 0 -0.82903756765294845 0.20725939191323711 0 0.13979822768459971 1 I I -0.70710678118654746 0.70710678118654746 0.25 forward I I I I #
loop $-1 $-1 $210 $53 #
coedge $-1 $132 $132 $211 $212 reversed $83 $-1 #
face $-1 $-1 $213 $43 $-1 $214 forward single #
loop $-1 $215 $216 $85 #
cone-surface $-1 -41.196455332825707 -8.1421186350009354 1.6015568701239804 0.55919291073839883 0 -0.82903756765294845 0.20725939191323711 0 0.13979822768459971 1 I I -0.70710678118654746 0.70710678118654746 0.25 forward I I I I #
loop $-1 $-1 $217 $54 #
coedge $-1 $137 $137 $218 $219 reversed $86 $-1 #
face $-1 $220 $221 $33 $-1 $222 reversed single #
loop $-1 $-1 $223 $88 #
plane-surface $-1 0 -19.513533207959295 0 0 1 0 0 0 1 forward_v I I I I #
coedge $-1 $224 $225 $226 $227 forward $89 $-1 #
coedge $-1 $228 $91 $229 $230 forward $56 $-1 #
coedge $-1 $91 $228 $231 $232 forward $56 $-1 #
coedge $-1 $233 $234 $91 $145 reversed $235 $-1 #
edge $-1 $236 -19.513533207959295 $237 19.513533207959295 $144 $238 forward 7 unknown #
face $-1 $239 $240 $34 $-1 $241 reversed single #
loop $-1 $-1 $242 $92 #
plane-surface $-1 -45.692312387462998 0 0 1 0 0 0 0 -1 forward_v I I I I #
coedge $-1 $243 $244 $245 $246 forward $93 $-1 #
coedge $-1 $245 $95 $242 $247 reversed $59 $-1 #
coedge $-1 $95 $245 $248 $249 reversed $59 $-1 #
coedge $-1 $250 $251 $95 $153 reversed $240 $-1 #
edge $-1 $252 -45.692312387462998 $253 45.692312387462998 $152 $254 forward 7 unknown #
face $-1 $255 $256 $35 $-1 $257 reversed single #
loop $-1 $-1 $258 $96 #
plane-surface $-1 52.456075626876476 -12.872107694213952 129.6747341013602 0 1 0 0.74314483375859142 0 0.66913059716165679 forward_v I I I I #
coedge $-1 $259 $260 $261 $262 reversed $97 $-1 #
coedge $-1 $159 $99 $263 $264 reversed $62 $-1 #
coedge $-1 $99 $158 $259 $265 reversed $62 $-1 #
coedge $-1 $261 $266 $99 $161 forward $267 $-1 #
edge $-1 $268 -19.46427457402476 $269 -15.000104820973487 $160 $270 forward 7 unknown #
loop $-1 $-1 $167 $100 #
plane-surface $-1 -15.455936159577156 -9.3499405121169712 68.526485554320033 0.74314483375859142 0 0.66913059716165679 0.66913059716165679 0 -0.74314483375859142 forward_v I I I I #
loop $-1 $-1 $271 $64 #
coedge $-1 $165 $165 $166 $272 reversed $101 $-1 #
coedge $-1 $166 $166 $165 $272 forward $103 $-1 #
coedge $-1 $167 $167 $104 $168 forward $162 $-1 #
edge $-1 $273 0 $273 6.2831853071796004 $167 $274 forward 7 unknown #
loop $-1 $-1 $174 $105 #
plane-surface $-1 -15.455936159577156 -9.3499405121169712 68.526485554320033 0.74314483375859142 0 0.66913059716165679 0.66913059716165679 0 -0.74314483375859142 forward_v I I I I #
loop $-1 $-1 $275 $67 #
coedge $-1 $172 $172 $173 $276 reversed $106 $-1 #
coedge $-1 $173 $173 $172 $276 forward $108 $-1 #
coedge $-1 $174 $174 $109 $175 forward $169 $-1 #
edge $-1 $277 0 $277 6.2831853071796004 $174 $278 forward 7 unknown #
face $-1 $279 $280 $38 $-1 $281 forward single #
loop $-1 $-1 $182 $110 #
plane-surface $-1 45.692312387462998 0 0 -1 0 0 0 0 1 forward_v I I I I #
coedge $-1 $282 $283 $284 $285 reversed $111 $-1 #
coedge $-1 $181 $113 $286 $287 reversed $71 $-1 #
coedge $-1 $113 $180 $282 $288 reversed $71 $-1 #
coedge $-1 $284 $289 $113 $183 forward $177 $-1 #
edge $-1 $290 59.264930363356982 $291 64.222893282813686 $182 $292 forward 7 unknown #
loop $-1 $-1 $189 $114 #
plane-surface $-1 -15.455936159577156 15.991366025862316 68.526485554320033 0.74314483375859142 0 0.66913059716165679 0.66913059716165679 0 -0.74314483375859142 forward_v I I I I #
loop $-1 $-1 $293 $73 #
coedge $-1 $187 $187 $188 $294 reversed $115 $-1 #
coedge $-1 $188 $188 $187 $294 forward $117 $-1 #
coedge $-1 $189 $189 $118 $190 forward $184 $-1 #
edge $-1 $295 0 $295 6.2831853071796004 $189 $296 forward 7 unknown #
loop $-1 $-1 $196 $119 #
plane-surface $-1 -15.455936159577156 15.991366025862316 68.526485554320033 0.74314483375859142 0 0.66913059716165679 0.66913059716165679 0 -0.74314483375859142 forward_v I I I I #
loop $-1 $-1 $297 $76 #
coedge $-1 $194 $194 $195 $298 reversed $120 $-1 #
coedge $-1 $195 $195 $194 $298 forward $122 $-1 #
coedge $-1 $196 $196 $123 $197 forward $191 $-1 #
edge $-1 $299 0 $299 6.2831853071796004 $196 $300 forward 7 unknown #
face $-1 $301 $302 $41 $-1 $303 forward single #
loop $-1 $-1 $304 $124 #
plane-surface $-1 -96.793946712090261 -6.2501230113157291 76.835340400380161 0 -1 0 0.55919291073839883 0 -0.82903756765294845 forward_v I I I I #
coedge $-1 $305 $306 $307 $308 reversed $125 $-1 #
coedge $-1 $203 $127 $309 $310 reversed $80 $-1 #
coedge $-1 $127 $202 $305 $311 reversed $80 $-1 #
coedge $-1 $307 $312 $127 $205 forward $302 $-1 #
edge $-1 $313 2.7046609685821323 $314 9.3737883907535675 $204 $315 forward 7 unknown #
loop $-1 $-1 $211 $128 #
plane-surface $-1 -45.692312387462998 -9.5611153527648405 1.0740533560981476 -0.55919291073839883 0 0.82903756765294845 0.82903756765294845 0 0.55919291073839883 forward_v I I I I #
loop $-1 $-1 $316 $82 #
coedge $-1 $209 $209 $210 $317 reversed $129 $-1 #
coedge $-1 $210 $210 $209 $317 forward $131 $-1 #
coedge $-1 $211 $211 $132 $212 forward $206 $-1 #
edge $-1 $318 0 $318 6.2831853071796004 $211 $319 forward 7 unknown #
loop $-1 $-1 $218 $133 #
plane-surface $-1 -45.692312387462998 -9.5611153527648405 1.0740533560981476 -0.55919291073839883 0 0.82903756765294845 0.82903756765294845 0 0.55919291073839883 forward_v I I I I #
loop $-1 $-1 $320 $85 #
coedge $-1 $216 $216 $217 $321 reversed $134 $-1 #
coedge $-1 $217 $217 $216 $321 forward $136 $-1 #
coedge $-1 $218 $218 $137 $219 forward $213 $-1 #
edge $-1 $322 0 $322 6.2831853071796004 $218 $323 forward 7 unknown #
face $-1 $324 $325 $33 $-1 $326 reversed single #
loop $-1 $-1 $327 $138 #
plane-surface $-1 -45.692312387462998 0 0 1 0 0 0 0 -1 forward_v I I I I #
coedge $-1 $328 $231 $329 $330 forward $139 $-1 #
coedge $-1 $331 $141 $328 $332 forward $89 $-1 #
coedge $-1 $141 $331 $333 $334 forward $89 $-1 #
coedge $-1 $234 $233 $141 $227 reversed $235 $-1 #
edge $-1 $335 -19.513533207959295 $336 19.513533207959295 $226 $337 forward 7 unknown #
coedge $-1 $143 $142 $338 $339 forward $56 $-1 #
coedge $-1 $340 $341 $142 $230 reversed $325 $-1 #
edge $-1 $237 -45.692312387462998 $342 45.692312387462998 $229 $343 forward 7 unknown #
coedge $-1 $223 $344 $143 $232 reversed $139 $-1 #
edge $-1 $345 -45.692312387462998 $236 45.692312387462998 $231 $346 forward 7 unknown #
coedge $-1 $226 $144 $344 $347 forward $235 $-1 #
coedge $-1 $144 $226 $340 $348 reversed $235 $-1 #
loop $-1 $-1 $233 $324 #
vertex $-1 $145 $349 #
vertex $-1 $145 $350 #
straight-curve $-1 45.692312387462998 0 5.5724366873231217 0 1 0 I I #
face $-1 $351 $352 $34 $-1 $353 reversed single #
loop $-1 $-1 $250 $146 #
plane-surface $-1 0 -22.834245964831965 2.5724366873231217 0 0 1 1 0 0 forward_v I I I I #
coedge $-1 $354 $355 $150 $247 forward $147 $-1 #
coedge $-1 $356 $149 $355 $357 forward $93 $-1 #
coedge $-1 $149 $356 $358 $359 forward $93 $-1 #
coedge $-1 $151 $150 $149 $246 reversed $59 $-1 #
edge $-1 $360 -45.692312387462998 $361 45.692312387462998 $149 $362 forward 7 unknown #
edge $-1 $361 -5.5724366873231217 $253 -2.5724366873231217 $242 $363 forward 7 unknown #
coedge $-1 $358 $364 $151 $249 forward $365 $-1 #
edge $-1 $252 2.5724366873231217 $360 5.5724366873231217 $248 $366 forward 7 unknown #
coedge $-1 $367 $152 $364 $368 forward $240 $-1 #
coedge $-1 $152 $367 $354 $369 forward $240 $-1 #
vertex $-1 $249 $370 #
vertex $-1 $247 $371 #
straight-curve $-1 0 -19.513533207959295 2.5724366873231217 -1 0 0 I I #
face $-1 $-1 $267 $35 $-1 $372 forward single #
loop $-1 $-1 $373 $154 #
plane-surface $-1 45.692312387462998 0 0 -1 0 0 0 0 1 forward_v I I I I #
coedge $-1 $374 $375 $376 $377 reversed $155 $-1 #
coedge $-1 $378 $157 $159 $265 forward $97 $-1 #
coedge $-1 $157 $378 $374 $379 forward $97 $-1 #
coedge $-1 $376 $160 $157 $262 forward $267 $-1 #
edge $-1 $269 1.1528030739615049 $380 8.1971374381554654 $261 $381 forward 7 unknown #
coedge $-1 $382 $383 $158 $264 forward $256 $-1 #
edge $-1 $384 -64.222893282813686 $268 -59.264930363356982 $263 $385 forward 7 unknown #
edge $-1 $269 84.713027672674841 $384 91.384624774925967 $159 $386 forward 7 unknown #
coedge $-1 $160 $376 $382 $387 forward $267 $-1 #
loop $-1 $-1 $376 $255 #
vertex $-1 $264 $388 #
vertex $-1 $161 $389 #
straight-curve $-1 26.228037813438238 -5.8277733300199905 5.572436687323119 -1 0 0 I I #
coedge $-1 $271 $271 $-1 $390 reversed $164 $-1 #
edge $-1 $391 0 $391 6.2831853071796004 $165 $392 forward 7 unknown #
vertex $-1 $168 $393 #
ellipse-curve $-1 43.460227510937365 -10.859440733015678 3.0934552275947582 0.74314483375859142 0 0.66913059716165679 0.3345652985808284 0 -0.37157241687929571 1 I I #
coedge $-1 $275 $275 $-1 $394 reversed $171 $-1 #
edge $-1 $395 0 $395 6.2831853071796004 $172 $396 forward 7 unknown #
vertex $-1 $175 $397 #
ellipse-curve $-1 43.460227510937365 -7.8404402912182647 3.0934552275947582 0.74314483375859142 0 0.66913059716165679 0.3345652985808284 0 -0.37157241687929571 1 I I #
face $-1 $-1 $398 $38 $-1 $399 reversed single #
loop $-1 $-1 $286 $176 #
plane-surface $-1 0 0 5.5724366873231217 0 0 1 1 0 0 forward_v I I I I #
coedge $-1 $400 $179 $181 $288 forward $111 $-1 #
coedge $-1 $179 $400 $401 $402 reversed $111 $-1 #
coedge $-1 $403 $182 $179 $285 forward $177 $-1 #
edge $-1 $291 4.4735158308341774 $404 11.517850195028137 $284 $405 forward 7 unknown #
coedge $-1 $406 $407 $180 $287 forward $280 $-1 #
edge $-1 $408 15.000104820973487 $290 19.46427457402476 $286 $409 forward 7 unknown #
edge $-1 $291 -91.384624774925967 $408 -84.713027672674841 $181 $410 forward 7 unknown #
coedge $-1 $182 $403 $406 $411 reversed $177 $-1 #
vertex $-1 $411 $412 #
vertex $-1 $183 $413 #
straight-curve $-1 45.692312387462998 12.469198843765335 64.837367050680101 0 0 -1 I I #
coedge $-1 $293 $293 $-1 $414 reversed $186 $-1 #
edge $-1 $415 0 $415 6.2831853071796004 $187 $416 forward 7 unknown #
vertex $-1 $190 $417 #
ellipse-curve $-1 43.460227510937365 14.481865804963608 3.0934552275947582 0.74314483375859142 0 0.66913059716165679 0.3345652985808284 0 -0.37157241687929571 1 I I #
coedge $-1 $297 $297 $-1 $418 reversed $193 $-1 #
edge $-1 $419 0 $419 6.2831853071796004 $194 $420 forward 7 unknown #
vertex $-1 $197 $421 #
ellipse-curve $-1 43.460227510937365 17.500866246761024 3.0934552275947582 0.74314483375859142 0 0.66913059716165679 0.3345652985808284 0 -0.37157241687929571 1 I I #
face $-1 $-1 $422 $41 $-1 $423 reversed single #
loop $-1 $-1 $204 $198 #
plane-surface $-1 0 0 5.5724366873231217 0 0 1 1 0 0 forward_v I I I I #
coedge $-1 $424 $425 $426 $427 reversed $199 $-1 #
coedge $-1 $428 $201 $203 $311 forward $125 $-1 #
coedge $-1 $201 $428 $424 $429 forward $125 $-1 #
coedge $-1 $426 $204 $201 $308 forward $302 $-1 #
edge $-1 $314 -8.0915500178315316 $430 -1.4695653349333089 $307 $431 forward 7 unknown #
coedge $-1 $432 $433 $202 $310 forward $422 $-1 #
edge $-1 $434 -37.343616844091933 $313 -32.845233512866962 $309 $435 forward 7 unknown #
edge $-1 $314 -8.0444212450493744 $434 0 $203 $436 forward 7 unknown #
coedge $-1 $204 $426 $432 $437 forward $302 $-1 #
vertex $-1 $310 $438 #
vertex $-1 $205 $439 #
straight-curve $-1 -48.39697335604513 -12.872107694213952 5.572436687323119 1 0 0 I I #
coedge $-1 $316 $316 $-1 $440 reversed $208 $-1 #
edge $-1 $441 0 $441 6.2831853071796004 $209 $442 forward 7 unknown #
vertex $-1 $212 $443 #
ellipse-curve $-1 -42.357748676377277 -10.980112070528746 3.3232450217106342 -0.55919291073839883 0 0.82903756765294845 0.41451878382647422 0 0.27959645536919941 1 I I #
coedge $-1 $320 $320 $-1 $444 reversed $215 $-1 #
edge $-1 $445 0 $445 6.2831853071796004 $216 $446 forward 7 unknown #
vertex $-1 $219 $447 #
ellipse-curve $-1 -42.357748676377277 -8.1421186350009354 3.3232450217106342 -0.55919291073839883 0 0.82903756765294845 0.41451878382647422 0 0.27959645536919941 1 I I #
face $-1 $-1 $235 $33 $-1 $448 reversed single #
loop $-1 $-1 $340 $220 #
plane-surface $-1 0 19.513533207959295 0 0 -1 0 0 0 -1 forward_v I I I I #
coedge $-1 $449 $338 $341 $450 forward $221 $-1 #
coedge $-1 $344 $223 $224 $332 reversed $139 $-1 #
coedge $-1 $338 $449 $223 $330 reversed $221 $-1 #
edge $-1 $345 -5.5724366873231217 $451 5.5724366873231217 $329 $452 forward 7 unknown #
coedge $-1 $225 $224 $449 $453 forward $89 $-1 #
edge $-1 $336 -45.692312387462998 $451 45.692312387462998 $328 $454 forward 7 unknown #
coedge $-1 $341 $340 $225 $334 reversed $325 $-1 #
edge $-1 $455 -45.692312387462998 $335 45.692312387462998 $333 $456 forward 7 unknown #
vertex $-1 $227 $457 #
vertex $-1 $347 $458 #
straight-curve $-1 45.692312387462998 0 -5.5724366873231217 0 -1 0 I I #
coedge $-1 $327 $329 $228 $339 reversed $221 $-1 #
edge $-1 $342 -19.513533207959295 $345 19.513533207959295 $338 $459 forward 7 unknown #
coedge $-1 $333 $229 $234 $348 forward $325 $-1 #
coedge $-1 $229 $333 $327 $450 reversed $325 $-1 #
vertex $-1 $230 $460 #
straight-curve $-1 0 19.513533207959295 5.5724366873231217 -1 0 0 I I #
coedge $-1 $231 $328 $233 $347 reversed $139 $-1 #
vertex $-1 $339 $461 #
straight-curve $-1 0 -19.513533207959295 5.5724366873231217 1 0 0 I I #
edge $-1 $236 -5.5724366873231217 $336 5.5724366873231217 $233 $462 forward 7 unknown #
edge $-1 $237 -5.5724366873231217 $335 5.5724366873231217 $234 $463 forward 7 unknown #
point $-1 45.692312387462998 -19.513533207959295 5.5724366873231217 #
point $-1 45.692312387462998 19.513533207959295 5.5724366873231217 #
face $-1 $-1 $365 $34 $-1 $464 reversed single #
loop $-1 $-1 $465 $239 #
plane-surface $-1 0 -26.154958721704638 4.0724366873231217 0 1 0 0 0 1 forward_v I I I I #
coedge $-1 $466 $242 $251 $369 reversed $147 $-1 #
coedge $-1 $242 $466 $243 $357 reversed $147 $-1 #
coedge $-1 $244 $243 $467 $468 forward $93 $-1 #
edge $-1 $361 19.513533207959295 $469 26.154958721704638 $355 $470 forward 7 unknown #
coedge $-1 $471 $248 $244 $359 reversed $365 $-1 #
edge $-1 $472 -26.154958721704638 $360 -19.513533207959295 $358 $473 forward 7 unknown #
vertex $-1 $249 $474 #
vertex $-1 $357 $475 #
straight-curve $-1 0 -19.513533207959295 5.5724366873231217 -1 0 0 I I #
straight-curve $-1 -45.692312387462998 -19.513533207959295 0 0 0 -1 I I #
coedge $-1 $248 $471 $250 $368 reversed $365 $-1 #
loop $-1 $-1 $248 $351 #
straight-curve $-1 45.692312387462998 -19.513533207959295 0 0 0 1 I I #
coedge $-1 $251 $250 $476 $477 forward $240 $-1 #
edge $-1 $252 -3.3207127568726733 $478 3.3207127568726733 $364 $479 forward 7 unknown #
edge $-1 $480 -3.3207127568726733 $253 3.3207127568726733 $354 $481 forward 7 unknown #
point $-1 45.692312387462998 -19.513533207959291 2.5724366873231217 #
point $-1 -45.692312387462998 -19.513533207959291 2.5724366873231217 #
plane-surface $-1 0 0 5.5724366873231217 0 0 1 1 0 0 forward_v I I I I #
coedge $-1 $383 $382 $375 $482 forward $256 $-1 #
coedge $-1 $375 $258 $260 $379 reversed $155 $-1 #
coedge $-1 $258 $374 $373 $482 reversed $155 $-1 #
coedge $-1 $266 $261 $258 $377 forward $267 $-1 #
edge $-1 $380 15.000104820973487 $483 19.46427457402476 $376 $484 forward 7 unknown #
coedge $-1 $260 $259 $383 $485 reversed $97 $-1 #
edge $-1 $486 -91.384624774925967 $380 -84.713027672674841 $374 $487 forward 7 unknown #
vertex $-1 $262 $488 #
straight-curve $-1 41.228142634411725 -4.6749702560584856 5.572436687323119 0 -1 0 I I #
coedge $-1 $373 $263 $266 $387 reversed $256 $-1 #
coedge $-1 $263 $373 $378 $485 forward $256 $-1 #
vertex $-1 $264 $489 #
straight-curve $-1 45.692312387462998 -5.8277733300199905 64.837367050680101 0 0 1 I I #
straight-curve $-1 -15.455936159577156 -5.8277733300199905 68.526485554320033 0.66913059716165679 0 -0.74314483375859142 I I #
edge $-1 $483 -12.872107694213952 $268 -5.8277733300199905 $382 $490 forward 7 unknown #
point $-1 45.692312387462998 -5.8277733300199905 5.5724366873231217 #
point $-1 41.228142634411725 -5.8277733300199905 5.5724366873231261 #
edge $-1 $491 1 $491 0 $271 $-1 forward 7 unknown #
vertex $-1 $272 $492 #
ellipse-curve $-1 42.658036149431624 -10.859440733015678 2.3711588993710371 0.74314483375859142 0 0.66913059716165679 0.3345652985808284 0 -0.37157241687929571 1 I I #
point $-1 43.794792809518185 -10.859440733015678 2.7218828107154538 #
edge $-1 $493 1 $493 0 $275 $-1 forward 7 unknown #
vertex $-1 $276 $494 #
ellipse-curve $-1 42.658036149431624 -7.8404402912182647 2.3711588993710371 0.74314483375859142 0 0.66913059716165679 0.3345652985808284 0 -0.37157241687929571 1 I I #
point $-1 43.794792809518185 -7.8404402912182647 2.7218828107154538 #
loop $-1 $-1 $401 $279 #
plane-surface $-1 0 19.513533207959295 0 0 -1 0 0 0 -1 forward_v I I I I #
coedge $-1 $283 $282 $407 $495 reversed $111 $-1 #
coedge $-1 $496 $497 $283 $402 forward $398 $-1 #
edge $-1 $404 -60.751053021187978 $498 -54.079455918936851 $401 $499 forward 7 unknown #
coedge $-1 $289 $284 $497 $500 reversed $177 $-1 #
vertex $-1 $285 $501 #
straight-curve $-1 45.692312387462998 7.995683012931158 0.61447376786641428 0 1 0 I I #
coedge $-1 $502 $286 $289 $411 forward $280 $-1 #
coedge $-1 $286 $502 $400 $495 forward $280 $-1 #
vertex $-1 $287 $503 #
straight-curve $-1 26.228037813438238 12.469198843765335 5.572436687323119 1 0 0 I I #
straight-curve $-1 -15.455936159577156 12.469198843765335 68.526485554320033 -0.66913059716165679 0 0.74314483375859142 I I #
edge $-1 $290 12.469198843765335 $504 19.513533207959295 $289 $505 forward 7 unknown #
point $-1 45.692312387462998 12.469198843765335 5.5724366873231217 #
point $-1 45.692312387463005 12.469198843765335 0.61447376786641428 #
edge $-1 $506 1 $506 0 $293 $-1 forward 7 unknown #
vertex $-1 $294 $507 #
ellipse-curve $-1 42.658036149431624 14.481865804963608 2.3711588993710371 0.74314483375859142 0 0.66913059716165679 0.3345652985808284 0 -0.37157241687929571 1 I I #
point $-1 43.794792809518185 14.481865804963608 2.7218828107154538 #
edge $-1 $508 1 $508 0 $297 $-1 forward 7 unknown #
vertex $-1 $298 $509 #
ellipse-curve $-1 42.658036149431624 17.500866246761024 2.3711588993710371 0.74314483375859142 0 0.66913059716165679 0.3345652985808284 0 -0.37157241687929571 1 I I #
point $-1 43.794792809518185 17.500866246761024 2.7218828107154538 #
loop $-1 $-1 $309 $301 #
plane-surface $-1 -45.692312387462998 0 0 1 0 0 0 0 -1 forward_v I I I I #
coedge $-1 $425 $304 $306 $429 reversed $199 $-1 #
coedge $-1 $304 $424 $510 $511 reversed $199 $-1 #
coedge $-1 $312 $307 $304 $427 forward $302 $-1 #
edge $-1 $430 -9.3737883907535675 $512 -2.7046609685821323 $426 $513 forward 7 unknown #
coedge $-1 $306 $305 $433 $514 reversed $125 $-1 #
edge $-1 $515 0 $430 8.0444212450493744 $424 $516 forward 7 unknown #
vertex $-1 $308 $517 #
straight-curve $-1 -39.023184965291563 -4.7805576763824202 5.5724366873231217 0 1 0 I I #
coedge $-1 $510 $309 $312 $437 reversed $422 $-1 #
coedge $-1 $309 $510 $428 $514 forward $422 $-1 #
vertex $-1 $310 $518 #
straight-curve $-1 -45.692312387462998 -12.872107694213952 38.417670200190081 0 0 1 I I #
straight-curve $-1 -45.692312387462998 -12.872107694213952 1.0740533560981476 -0.82903756765294845 0 -0.55919291073839883 I I #
edge $-1 $512 6.2501230113157291 $313 12.872107694213952 $432 $519 forward 7 unknown #
point $-1 -45.692312387462998 -12.872107694213952 5.5724366873231217 #
point $-1 -39.023184965291563 -12.872107694213952 5.5724366873231217 #
edge $-1 $520 1 $520 0 $316 $-1 forward 7 unknown #
vertex $-1 $317 $521 #
ellipse-curve $-1 -41.336253560510308 -10.980112070528746 1.8088162620372175 -0.55919291073839883 0 0.82903756765294845 0.41451878382647422 0 0.27959645536919941 1 I I #
point $-1 -41.943229892550804 -10.980112070528746 3.6028414770798292 #
edge $-1 $522 1 $522 0 $320 $-1 forward 7 unknown #
vertex $-1 $321 $523 #
ellipse-curve $-1 -41.336253560510308 -8.1421186350009354 1.8088162620372175 -0.55919291073839883 0 0.82903756765294845 0.41451878382647422 0 0.27959645536919941 1 I I #
point $-1 -41.943229892550804 -8.1421186350009354 3.6028414770798292 #
plane-surface $-1 45.692312387462998 0 0 -1 0 0 0 0 1 forward_v I I I I #
coedge $-1 $329 $327 $331 $453 reversed $221 $-1 #
edge $-1 $342 -5.5724366873231217 $455 5.5724366873231217 $341 $524 forward 7 unknown #
vertex $-1 $453 $525 #
straight-curve $-1 -45.692312387462998 -19.513533207959295 0 0 0 -1 I I #
edge $-1 $451 -19.513533207959295 $455 19.513533207959295 $449 $526 forward 7 unknown #
straight-curve $-1 0 -19.513533207959295 -5.5724366873231217 -1 0 0 I I #
vertex $-1 $334 $527 #
straight-curve $-1 0 19.513533207959295 -5.5724366873231217 1 0 0 I I #
point $-1 45.692312387462998 19.513533207959295 -5.5724366873231217 #
point $-1 45.692312387462998 -19.513533207959295 -5.5724366873231217 #
straight-curve $-1 -45.692312387462998 0 5.5724366873231217 0 -1 0 I I #
point $-1 -45.692312387462998 19.513533207959295 5.5724366873231217 #
point $-1 -45.692312387462998 -19.513533207959295 5.5724366873231217 #
straight-curve $-1 45.692312387462998 -19.513533207959295 0 0 0 -1 I I #
straight-curve $-1 45.692312387462998 19.513533207959295 0 0 0 -1 I I #
plane-surface $-1 45.692312387462998 0 0 -1 0 0 0 0 1 forward_v I I I I #
coedge $-1 $476 $467 $466 $528 forward $352 $-1 #
coedge $-1 $355 $354 $465 $528 reversed $147 $-1 #
coedge $-1 $465 $529 $356 $468 reversed $352 $-1 #
edge $-1 $469 -45.692312387462998 $472 45.692312387462998 $467 $530 forward 7 unknown #
vertex $-1 $357 $531 #
straight-curve $-1 -45.692312387462998 0 5.5724366873231217 0 -1 0 I I #
coedge $-1 $364 $358 $529 $532 forward $365 $-1 #
vertex $-1 $359 $533 #
straight-curve $-1 45.692312387462998 0 5.5724366873231217 0 1 0 I I #
point $-1 45.692312387462998 -19.513533207959295 5.5724366873231217 #
point $-1 -45.692312387462998 -19.513533207959295 5.5724366873231217 #
coedge $-1 $529 $465 $367 $477 reversed $352 $-1 #
edge $-1 $478 -45.692312387462998 $480 45.692312387462998 $476 $534 forward 7 unknown #
vertex $-1 $532 $535 #
straight-curve $-1 45.692312387462998 -22.834245964831965 2.5724366873231217 0 -1 0 I I #
vertex $-1 $369 $536 #
straight-curve $-1 -45.692312387462998 -22.834245964831965 2.5724366873231217 0 1 0 I I #
edge $-1 $483 59.264930363356982 $486 64.222893282813686 $373 $537 forward 7 unknown #
vertex $-1 $387 $538 #
straight-curve $-1 26.228037813438238 -12.872107694213952 5.572436687323119 1 0 0 I I #
edge $-1 $486 -8.1971374381554654 $384 -1.1528030739615049 $383 $539 forward 7 unknown #
vertex $-1 $485 $540 #
straight-curve $-1 -15.455936159577156 -12.872107694213952 68.526485554320033 -0.66913059716165679 0 0.74314483375859142 I I #
point $-1 41.228142634411725 -12.872107694213952 5.5724366873231261 #
point $-1 45.692312387463005 -5.8277733300199905 0.61447376786641428 #
straight-curve $-1 45.692312387462998 0 5.5724366873231217 0 1 0 I I #
vertex $-1 $390 $541 #
point $-1 42.992601448012458 -10.859440733015678 1.9995864824917415 #
vertex $-1 $394 $542 #
point $-1 42.992601448012458 -7.8404402912182647 1.9995864824917415 #
edge $-1 $498 -11.51785019502814 $408 -4.4735158308341774 $407 $543 forward 7 unknown #
coedge $-1 $497 $401 $502 $544 reversed $398 $-1 #
coedge $-1 $401 $496 $403 $500 forward $398 $-1 #
vertex $-1 $402 $545 #
straight-curve $-1 5.0419240011960085 19.513533207959295 45.761304965956526 -0.66913059716165679 0 0.74314483375859142 I I #
edge $-1 $504 -5.5724366873231217 $404 -0.6144737678664115 $403 $546 forward 7 unknown #
point $-1 45.692312387462998 19.513533207959295 0.6144737678664115 #
coedge $-1 $407 $406 $496 $544 forward $280 $-1 #
point $-1 41.228142634411725 12.469198843765335 5.5724366873231261 #
vertex $-1 $411 $547 #
straight-curve $-1 45.692312387462998 0 5.5724366873231217 0 1 0 I I #
vertex $-1 $414 $548 #
point $-1 42.992601448012458 14.481865804963608 1.9995864824917415 #
vertex $-1 $418 $549 #
point $-1 42.992601448012458 17.500866246761024 1.9995864824917415 #
coedge $-1 $433 $432 $425 $511 forward $422 $-1 #
edge $-1 $512 32.845233512866962 $515 37.343616844091933 $510 $550 forward 7 unknown #
vertex $-1 $437 $551 #
straight-curve $-1 -48.39697335604513 -6.2501230113157291 5.572436687323119 -1 0 0 I I #
edge $-1 $515 1.4695653349333089 $434 8.0915500178315316 $433 $552 forward 7 unknown #
vertex $-1 $514 $553 #
straight-curve $-1 -45.692312387462998 -6.2501230113157291 1.0740533560981476 0.82903756765294845 0 0.55919291073839883 I I #
point $-1 -39.023184965291563 -6.2501230113157291 5.5724366873231217 #
point $-1 -45.692312387462998 -12.872107694213952 1.0740533560981476 #
straight-curve $-1 -45.692312387462998 0 5.5724366873231217 0 -1 0 I I #
vertex $-1 $440 $554 #
point $-1 -40.921734776683834 -10.980112070528746 2.0884127174064169 #
vertex $-1 $444 $555 #
point $-1 -40.921734776683834 -8.1421186350009354 2.0884127174064169 #
straight-curve $-1 -45.692312387462998 19.513533207959295 0 0 0 -1 I I #
point $-1 -45.692312387462998 -19.513533207959295 -5.5724366873231217 #
straight-curve $-1 -45.692312387462998 0 -5.5724366873231217 0 1 0 I I #
point $-1 -45.692312387462998 19.513533207959295 -5.5724366873231217 #
edge $-1 $469 -1.5 $480 1.5 $466 $556 forward 7 unknown #
coedge $-1 $467 $476 $471 $532 reversed $352 $-1 #
straight-curve $-1 0 -26.154958721704638 5.5724366873231217 1 0 0 I I #
point $-1 -45.692312387462998 -26.154958721704638 5.5724366873231217 #
edge $-1 $472 -1.5 $478 1.5 $471 $557 forward 7 unknown #
point $-1 45.692312387462998 -26.154958721704638 5.5724366873231217 #
straight-curve $-1 0 -26.154958721704638 2.5724366873231217 -1 0 0 I I #
point $-1 45.692312387462998 -26.154958721704638 2.5724366873231217 #
point $-1 -45.692312387462998 -26.154958721704638 2.5724366873231217 #
straight-curve $-1 45.692312387462998 -12.872107694213952 64.837367050680101 0 0 -1 I I #
point $-1 45.692312387462998 -12.872107694213952 5.5724366873231217 #
straight-curve $-1 45.692312387462998 -4.6749702560584856 0.61447376786641428 0 1 0 I I #
point $-1 45.692312387463005 -12.872107694213952 0.61447376786641428 #
point $-1 42.286463732552335 -10.859440733015678 2.036593600790209 #
point $-1 42.286463732552335 -7.8404402912182647 2.036593600790209 #
straight-curve $-1 41.228142634411725 7.995683012931158 5.572436687323119 0 -1 0 I I #
edge $-1 $504 -45.692312387462998 $498 -41.228142634411725 $496 $558 forward 7 unknown #
point $-1 41.228142634411725 19.513533207959298 5.5724366873231261 #
straight-curve $-1 45.692312387462998 19.513533207959295 0 0 0 -1 I I #
point $-1 45.692312387462998 19.513533207959295 5.5724366873231217 #
point $-1 42.286463732552335 14.481865804963608 2.036593600790209 #
point $-1 42.286463732552335 17.500866246761024 2.036593600790209 #
straight-curve $-1 -45.692312387462998 -6.2501230113157291 38.417670200190081 0 0 -1 I I #
point $-1 -45.692312387462998 -6.2501230113157291 5.5724366873231217 #
straight-curve $-1 -45.692312387462998 -4.7805576763824202 1.074053356098146 0 -1 0 I I #
point $-1 -45.692312387462998 -6.2501230113157291 1.0740533560981476 #
point $-1 -41.056657105141106 -10.980112070528746 1.3942974782107433 #
point $-1 -41.056657105141106 -8.1421186350009354 1.3942974782107433 #
straight-curve $-1 -45.692312387462998 -26.154958721704638 4.0724366873231217 0 0 -1 I I #
straight-curve $-1 45.692312387462998 -26.154958721704638 4.0724366873231217 0 0 -1 I I #
straight-curve $-1 0 19.513533207959295 5.5724366873231217 -1 0 0 I I #
End-of-ACIS-data 