500 0 8 0           
7 Unknown 11 ACIS 5.0 NT 24 Fri Mar 26 14:57:18 1999 
-1 9.9999999999999995e-007 1e-010 
body $-1 $8 $-1 $9 #
body $-1 $10 $-1 $11 #
body $-1 $12 $-1 $13 #
body $-1 $14 $-1 $15 #
body $-1 $16 $-1 $17 #
body $-1 $18 $-1 $19 #
body $-1 $20 $-1 $21 #
body $-1 $22 $-1 $23 #
lump $-1 $-1 $24 $0 #
transform $-1 1 0 0 0 1 0 0 0 1 66.907559434797207 34.149461516142317 11.462221370489715 1 rotate no_reflect no_shear #
lump $-1 $-1 $25 $1 #
transform $-1 1 0 0 0 1 0 0 0 1 66.907559434797207 34.149461516142317 11.462221370489715 1 rotate no_reflect no_shear #
lump $-1 $-1 $26 $2 #
transform $-1 1 0 0 0 1 0 0 0 1 66.907559434797207 34.149461516142317 11.462221370489715 1 rotate no_reflect no_shear #
lump $-1 $-1 $27 $3 #
transform $-1 1 0 0 0 1 0 0 0 1 66.907559434797207 34.149461516142317 11.462221370489715 1 rotate no_reflect no_shear #
lump $-1 $-1 $28 $4 #
transform $-1 1 0 0 0 1 0 0 0 1 66.907559434797207 34.149461516142317 11.462221370489715 1 rotate no_reflect no_shear #
lump $-1 $-1 $29 $5 #
transform $-1 1 0 0 0 1 0 0 0 1 66.907559434797207 34.149461516142317 11.462221370489715 1 rotate no_reflect no_shear #
lump $-1 $-1 $30 $6 #
transform $-1 1 0 0 0 1 0 0 0 1 66.907559434797207 34.149461516142317 11.462221370489715 1 rotate no_reflect no_shear #
lump $-1 $-1 $31 $7 #
transform $-1 1 0 0 0 1 0 0 0 1 66.907559434797207 34.149461516142317 11.462221370489715 1 rotate no_reflect no_shear #
shell $-1 $-1 $-1 $32 $-1 $8 #
shell $-1 $-1 $-1 $33 $-1 $10 #
shell $-1 $-1 $-1 $34 $-1 $12 #
shell $-1 $-1 $-1 $35 $-1 $14 #
shell $-1 $-1 $-1 $36 $-1 $16 #
shell $-1 $-1 $-1 $37 $-1 $18 #
shell $-1 $-1 $-1 $38 $-1 $20 #
shell $-1 $-1 $-1 $39 $-1 $22 #
face $-1 $40 $41 $24 $-1 $42 forward single #
face $-1 $43 $44 $25 $-1 $45 forward single #
face $-1 $46 $47 $26 $-1 $48 reversed single #
face $-1 $49 $50 $27 $-1 $51 forward single #
face $-1 $52 $53 $28 $-1 $54 forward single #
face $-1 $55 $56 $29 $-1 $57 reversed single #
face $-1 $58 $59 $30 $-1 $60 forward single #
face $-1 $61 $62 $31 $-1 $63 forward single #
face $-1 $64 $65 $24 $-1 $66 reversed single #
loop $-1 $-1 $67 $32 #
plane-surface $-1 0 0 11.462221370489715 0 0 1 1 0 0 forward_v I I I I #
face $-1 $68 $69 $25 $-1 $70 reversed single #
loop $-1 $-1 $71 $33 #
plane-surface $-1 0 -29.874934815736573 -6.3265221356281875 0 0 1 1 0 0 forward_v I I I I #
face $-1 $72 $73 $26 $-1 $74 reversed single #
loop $-1 $-1 $75 $34 #
plane-surface $-1 -149.29237397207658 18.654870202677255 106.84645759599866 0 1 0 -0.61566148304635926 0 0.78801074757464917 forward_v I I I I #
face $-1 $76 $77 $27 $-1 $78 forward single #
loop $-1 $79 $80 $35 #
cone-surface $-1 -60.159372511712832 22.388770732876466 6.0364581808470446 0.61566148304635926 0 -0.78801074757464917 0.39400537378732459 0 0.30783074152317963 1 I I 0 1 0.5 forward I I I I #
face $-1 $81 $82 $28 $-1 $83 forward single #
loop $-1 $84 $85 $36 #
cone-surface $-1 -60.159372511712832 27.989621528175277 6.0364581808470446 0.61566148304635926 0 -0.78801074757464917 0.39400537378732459 0 0.30783074152317963 1 I I 0 1 0.5 forward I I I I #
face $-1 $86 $87 $29 $-1 $88 reversed single #
loop $-1 $-1 $89 $37 #
plane-surface $-1 57.003339951924829 1.421291899580174 191.01006878470056 0 -1 0 -0.66913061440640931 0 -0.74314481823134659 forward_v I I I I #
face $-1 $90 $91 $30 $-1 $92 forward single #
loop $-1 $93 $94 $38 #
cone-surface $-1 60.760863364716926 -10.296694331995035 5.7370837480340571 -0.66913061440640931 0 -0.74314481823134659 0.74314481823134659 0 -0.66913061440640931 1 I I 0 1 1 forward I I I I #
face $-1 $95 $96 $31 $-1 $97 forward single #
loop $-1 $98 $99 $39 #
cone-surface $-1 60.760863364716926 -3.2659025930499119 5.7370837480340571 -0.66913061440640931 0 -0.74314481823134659 0.74314481823134659 0 -0.66913061440640931 1 I I 0 1 1 forward I I I I #
face $-1 $100 $101 $24 $-1 $102 reversed single #
loop $-1 $-1 $103 $40 #
plane-surface $-1 0 0 -11.462221370489715 0 0 1 1 0 0 forward_v I I I I #
coedge $-1 $104 $105 $106 $107 forward $41 $-1 #
face $-1 $108 $109 $25 $-1 $110 reversed single #
loop $-1 $-1 $111 $43 #
plane-surface $-1 0 -25.600408115330829 -8.8943717530589517 0 -1 0 0 0 -1 forward_v I I I I #
coedge $-1 $112 $113 $114 $115 reversed $44 $-1 #
face $-1 $116 $117 $26 $-1 $118 reversed single #
loop $-1 $-1 $119 $46 #
plane-surface $-1 -66.907559434797221 25.189196130525865 1.3987057387790145 -0.61566148304635926 0 0.78801074757464917 0.78801074757464917 0 0.61566148304635926 forward_v I I I I #
coedge $-1 $120 $121 $122 $123 reversed $47 $-1 #
face $-1 $-1 $124 $27 $-1 $125 forward single #
loop $-1 $126 $127 $49 #
cone-surface $-1 -59.69762639942806 22.388770732876466 5.4454501201660577 0.61566148304635926 0 -0.78801074757464917 0.19700268689366229 0 0.15391537076158981 1 I I -0.70710678118654746 0.70710678118654746 0.25 forward I I I I #
loop $-1 $-1 $128 $35 #
coedge $-1 $80 $80 $129 $130 reversed $50 $-1 #
face $-1 $-1 $131 $28 $-1 $132 forward single #
loop $-1 $133 $134 $52 #
cone-surface $-1 -59.69762639942806 27.989621528175277 5.4454501201660577 0.61566148304635926 0 -0.78801074757464917 0.19700268689366229 0 0.15391537076158981 1 I I -0.70710678118654746 0.70710678118654746 0.25 forward I I I I #
loop $-1 $-1 $135 $36 #
coedge $-1 $85 $85 $136 $137 reversed $53 $-1 #
face $-1 $138 $139 $29 $-1 $140 reversed single #
loop $-1 $-1 $141 $55 #
plane-surface $-1 -32.536452754153572 -6.7812984625224715 91.566056595749785 0.66913061440640931 0 0.74314481823134659 0.74314481823134659 0 -0.66913061440640931 forward_v I I I I #
coedge $-1 $142 $143 $144 $145 reversed $56 $-1 #
face $-1 $-1 $146 $30 $-1 $147 forward single #
loop $-1 $148 $149 $58 #
cone-surface $-1 59.519448107119729 -10.296694331995035 4.3583524568718843 -0.66913061440640931 0 -0.74314481823134659 0.3715724091156733 0 -0.33456530720320465 1 I I -0.70710678118654746 0.70710678118654746 0.5 forward I I I I #
loop $-1 $-1 $150 $38 #
coedge $-1 $94 $94 $151 $152 reversed $59 $-1 #
face $-1 $-1 $153 $31 $-1 $154 forward single #
loop $-1 $155 $156 $61 #
cone-surface $-1 59.519448107119729 -3.2659025930499119 4.3583524568718843 -0.66913061440640931 0 -0.74314481823134659 0.3715724091156733 0 -0.33456530720320465 1 I I -0.70710678118654746 0.70710678118654746 0.5 forward I I I I #
loop $-1 $-1 $157 $39 #
coedge $-1 $99 $99 $158 $159 reversed $62 $-1 #
face $-1 $160 $161 $24 $-1 $162 reversed single #
loop $-1 $-1 $163 $64 #
plane-surface $-1 0 -34.149461516142317 0 0 1 0 0 0 1 forward_v I I I I #
coedge $-1 $164 $165 $166 $167 forward $65 $-1 #
coedge $-1 $168 $67 $169 $170 forward $41 $-1 #
coedge $-1 $67 $168 $171 $172 forward $41 $-1 #
coedge $-1 $173 $174 $67 $107 reversed $175 $-1 #
edge $-1 $176 -34.149461516142317 $177 34.149461516142317 $106 $178 forward 7 unknown #
face $-1 $179 $180 $25 $-1 $181 reversed single #
loop $-1 $-1 $182 $68 #
plane-surface $-1 0 0 -11.462221370489715 0 0 1 1 0 0 forward_v I I I I #
coedge $-1 $183 $184 $185 $186 reversed $69 $-1 #
coedge $-1 $187 $71 $184 $188 forward $44 $-1 #
coedge $-1 $71 $187 $189 $190 reversed $44 $-1 #
coedge $-1 $191 $185 $71 $115 forward $180 $-1 #
edge $-1 $192 10.662940707462543 $193 19.21199410827403 $114 $194 forward 7 unknown #
face $-1 $195 $196 $26 $-1 $197 forward single #
loop $-1 $-1 $198 $72 #
plane-surface $-1 -149.29237397207658 31.723522058374474 106.84645759599866 0 -1 0 0.61566148304635926 0 -0.78801074757464917 forward_v I I I I #
coedge $-1 $199 $200 $201 $202 reversed $73 $-1 #
coedge $-1 $121 $75 $203 $204 reversed $47 $-1 #
coedge $-1 $75 $120 $199 $205 reversed $47 $-1 #
coedge $-1 $201 $206 $75 $123 forward $196 $-1 #
edge $-1 $207 7.7386275512410805 $208 20.619339914363472 $122 $209 forward 7 unknown #
loop $-1 $-1 $129 $76 #
plane-surface $-1 -66.907559434797221 25.189196130525865 1.3987057387790145 -0.61566148304635926 0 0.78801074757464917 0.78801074757464917 0 0.61566148304635926 forward_v I I I I #
loop $-1 $-1 $210 $49 #
coedge $-1 $127 $127 $128 $211 reversed $77 $-1 #
coedge $-1 $128 $128 $127 $211 forward $79 $-1 #
coedge $-1 $129 $129 $80 $130 forward $124 $-1 #
edge $-1 $212 0 $212 6.2831853071796004 $129 $213 forward 7 unknown #
loop $-1 $-1 $136 $81 #
plane-surface $-1 -66.907559434797221 25.189196130525865 1.3987057387790145 -0.61566148304635926 0 0.78801074757464917 0.78801074757464917 0 0.61566148304635926 forward_v I I I I #
loop $-1 $-1 $214 $52 #
coedge $-1 $134 $134 $135 $215 reversed $82 $-1 #
coedge $-1 $135 $135 $134 $215 forward $84 $-1 #
coedge $-1 $136 $136 $85 $137 forward $131 $-1 #
edge $-1 $216 0 $216 6.2831853071796004 $136 $217 forward 7 unknown #
face $-1 $218 $219 $29 $-1 $220 reversed single #
loop $-1 $-1 $221 $86 #
plane-surface $-1 57.003339951924829 -14.983888824625117 191.01006878470056 0 1 0 0.66913061440640931 0 0.74314481823134659 forward_v I I I I #
coedge $-1 $222 $223 $224 $225 reversed $87 $-1 #
coedge $-1 $143 $89 $226 $227 reversed $56 $-1 #
coedge $-1 $89 $142 $222 $228 reversed $56 $-1 #
coedge $-1 $224 $229 $89 $145 forward $230 $-1 #
edge $-1 $231 -38.405889458834793 $232 -27.92619721946221 $144 $233 forward 7 unknown #
loop $-1 $-1 $151 $90 #
plane-surface $-1 -32.536452754153572 -6.7812984625224715 91.566056595749785 0.66913061440640931 0 0.74314481823134659 0.74314481823134659 0 -0.66913061440640931 forward_v I I I I #
loop $-1 $-1 $234 $58 #
coedge $-1 $149 $149 $150 $235 reversed $91 $-1 #
coedge $-1 $150 $150 $149 $235 forward $93 $-1 #
coedge $-1 $151 $151 $94 $152 forward $146 $-1 #
edge $-1 $236 0 $236 6.2831853071796004 $151 $237 forward 7 unknown #
loop $-1 $-1 $158 $95 #
plane-surface $-1 -32.536452754153572 -6.7812984625224715 91.566056595749785 0.66913061440640931 0 0.74314481823134659 0.74314481823134659 0 -0.66913061440640931 forward_v I I I I #
loop $-1 $-1 $238 $61 #
coedge $-1 $156 $156 $157 $239 reversed $96 $-1 #
coedge $-1 $157 $157 $156 $239 forward $98 $-1 #
coedge $-1 $158 $158 $99 $159 forward $153 $-1 #
edge $-1 $240 0 $240 6.2831853071796004 $158 $241 forward 7 unknown #
face $-1 $242 $243 $24 $-1 $244 reversed single #
loop $-1 $-1 $245 $100 #
plane-surface $-1 -66.907559434797207 0 0 1 0 0 0 0 -1 forward_v I I I I #
coedge $-1 $246 $171 $247 $248 forward $101 $-1 #
coedge $-1 $249 $103 $246 $250 forward $65 $-1 #
coedge $-1 $103 $249 $251 $252 forward $65 $-1 #
coedge $-1 $174 $173 $103 $167 reversed $175 $-1 #
edge $-1 $253 -34.149461516142317 $254 34.149461516142317 $166 $255 forward 7 unknown #
coedge $-1 $105 $104 $256 $257 forward $41 $-1 #
coedge $-1 $258 $259 $104 $170 reversed $243 $-1 #
edge $-1 $177 -66.907559434797207 $260 66.907559434797207 $169 $261 forward 7 unknown #
coedge $-1 $163 $262 $105 $172 reversed $101 $-1 #
edge $-1 $263 -66.907559434797207 $176 66.907559434797207 $171 $264 forward 7 unknown #
coedge $-1 $166 $106 $262 $265 forward $175 $-1 #
coedge $-1 $106 $166 $258 $266 reversed $175 $-1 #
loop $-1 $-1 $173 $242 #
vertex $-1 $107 $267 #
vertex $-1 $107 $268 #
straight-curve $-1 66.907559434797207 0 11.462221370489715 0 1 0 I I #
face $-1 $269 $270 $25 $-1 $271 reversed single #
loop $-1 $-1 $185 $108 #
plane-surface $-1 66.907559434797207 0 0 -1 0 0 0 0 1 forward_v I I I I #
coedge $-1 $272 $273 $183 $274 forward $109 $-1 #
coedge $-1 $275 $111 $182 $274 reversed $69 $-1 #
coedge $-1 $111 $275 $112 $188 reversed $69 $-1 #
coedge $-1 $114 $276 $111 $186 forward $180 $-1 #
edge $-1 $277 -7.0150354939602391 $192 -1.8793362590987117 $185 $278 forward 7 unknown #
coedge $-1 $113 $112 $279 $280 reversed $44 $-1 #
edge $-1 $192 -66.907559434797207 $281 66.907559434797207 $184 $282 forward 7 unknown #
coedge $-1 $283 $284 $113 $190 forward $270 $-1 #
edge $-1 $193 -66.907559434797207 $285 66.907559434797207 $189 $286 forward 7 unknown #
coedge $-1 $276 $114 $284 $287 forward $180 $-1 #
vertex $-1 $115 $288 #
vertex $-1 $287 $289 #
straight-curve $-1 66.907559434797207 -14.937467407868287 -6.3265221356281875 0 -1 0 I I #
face $-1 $-1 $290 $26 $-1 $291 reversed single #
loop $-1 $-1 $122 $116 #
plane-surface $-1 0 0 11.462221370489715 0 0 1 1 0 0 forward_v I I I I #
coedge $-1 $292 $293 $294 $295 reversed $117 $-1 #
coedge $-1 $296 $119 $121 $205 forward $73 $-1 #
coedge $-1 $119 $296 $292 $297 forward $73 $-1 #
coedge $-1 $294 $122 $119 $202 forward $196 $-1 #
edge $-1 $208 6.0602721374143229 $298 19.128923993111542 $201 $299 forward 7 unknown #
coedge $-1 $300 $301 $120 $204 forward $290 $-1 #
edge $-1 $302 -52.0245230592203 $207 -41.961007427509614 $203 $303 forward 7 unknown #
edge $-1 $208 -16.345858737037339 $302 -1.8033521786330445e-014 $121 $304 forward 7 unknown #
coedge $-1 $122 $294 $300 $305 forward $196 $-1 #
vertex $-1 $204 $306 #
vertex $-1 $123 $307 #
straight-curve $-1 -74.646186986038288 18.654870202677255 11.462221370489715 1 0 0 I I #
coedge $-1 $210 $210 $-1 $308 reversed $126 $-1 #
edge $-1 $309 0 $309 6.2831853071796004 $127 $310 forward 7 unknown #
vertex $-1 $130 $311 #
ellipse-curve $-1 -60.467203253236015 22.388770732876466 6.4304635546343691 -0.61566148304635926 0 0.78801074757464917 0.39400537378732459 0 0.30783074152317963 1 I I #
coedge $-1 $214 $214 $-1 $312 reversed $133 $-1 #
edge $-1 $313 0 $313 6.2831853071796004 $134 $314 forward 7 unknown #
vertex $-1 $137 $315 #
ellipse-curve $-1 -60.467203253236015 27.989621528175277 6.4304635546343691 -0.61566148304635926 0 0.78801074757464917 0.39400537378732459 0 0.30783074152317963 1 I I #
face $-1 $-1 $230 $29 $-1 $316 forward single #
loop $-1 $-1 $317 $138 #
plane-surface $-1 66.907559434797207 0 0 -1 0 0 0 0 1 forward_v I I I I #
coedge $-1 $318 $319 $320 $321 reversed $139 $-1 #
coedge $-1 $322 $141 $143 $228 forward $87 $-1 #
coedge $-1 $141 $322 $318 $323 forward $87 $-1 #
coedge $-1 $320 $144 $141 $225 forward $230 $-1 #
edge $-1 $232 -4.8119411308414097 $324 11.593239593363881 $224 $325 forward 7 unknown #
coedge $-1 $326 $327 $142 $227 forward $219 $-1 #
edge $-1 $328 -93.478770502678898 $231 -84.042813021860567 $226 $329 forward 7 unknown #
edge $-1 $232 119.7133018585927 $328 133.81511886959441 $143 $330 forward 7 unknown #
coedge $-1 $144 $320 $326 $331 forward $230 $-1 #
loop $-1 $-1 $320 $218 #
vertex $-1 $227 $332 #
vertex $-1 $145 $333 #
straight-curve $-1 28.501669975962415 1.421291899580174 11.462221370489715 -1 0 0 I I #
coedge $-1 $234 $234 $-1 $334 reversed $148 $-1 #
edge $-1 $335 0 $335 6.2831853071796004 $149 $336 forward 7 unknown #
vertex $-1 $152 $337 #
ellipse-curve $-1 61.667713315110909 -10.296694331995035 6.7442426300805485 0.66913061440640931 0 0.74314481823134659 0.74314481823134659 0 -0.66913061440640931 1 I I #
coedge $-1 $238 $238 $-1 $338 reversed $155 $-1 #
edge $-1 $339 0 $339 6.2831853071796004 $156 $340 forward 7 unknown #
vertex $-1 $159 $341 #
ellipse-curve $-1 61.667713315110909 -3.2659025930499119 6.7442426300805485 0.66913061440640931 0 0.74314481823134659 0.74314481823134659 0 -0.66913061440640931 1 I I #
face $-1 $-1 $175 $24 $-1 $342 reversed single #
loop $-1 $-1 $258 $160 #
plane-surface $-1 0 34.149461516142317 0 0 -1 0 0 0 -1 forward_v I I I I #
coedge $-1 $343 $256 $259 $344 forward $161 $-1 #
coedge $-1 $262 $163 $164 $250 reversed $101 $-1 #
coedge $-1 $256 $343 $163 $248 reversed $161 $-1 #
edge $-1 $263 -11.462221370489715 $345 11.462221370489715 $247 $346 forward 7 unknown #
coedge $-1 $165 $164 $343 $347 forward $65 $-1 #
edge $-1 $254 -66.907559434797207 $345 66.907559434797207 $246 $348 forward 7 unknown #
coedge $-1 $259 $258 $165 $252 reversed $243 $-1 #
edge $-1 $349 -66.907559434797207 $253 66.907559434797207 $251 $350 forward 7 unknown #
vertex $-1 $167 $351 #
vertex $-1 $265 $352 #
straight-curve $-1 66.907559434797207 0 -11.462221370489715 0 -1 0 I I #
coedge $-1 $245 $247 $168 $257 reversed $161 $-1 #
edge $-1 $260 -34.149461516142317 $263 34.149461516142317 $256 $353 forward 7 unknown #
coedge $-1 $251 $169 $174 $266 forward $243 $-1 #
coedge $-1 $169 $251 $245 $344 reversed $243 $-1 #
vertex $-1 $170 $354 #
straight-curve $-1 0 34.149461516142317 11.462221370489715 -1 0 0 I I #
coedge $-1 $171 $246 $173 $265 reversed $101 $-1 #
vertex $-1 $257 $355 #
straight-curve $-1 0 -34.149461516142317 11.462221370489715 1 0 0 I I #
edge $-1 $176 -11.462221370489715 $254 11.462221370489715 $173 $356 forward 7 unknown #
edge $-1 $177 -11.462221370489715 $253 11.462221370489715 $174 $357 forward 7 unknown #
point $-1 66.907559434797207 -34.149461516142317 11.462221370489715 #
point $-1 66.907559434797207 34.149461516142317 11.462221370489715 #
face $-1 $-1 $358 $25 $-1 $359 reversed single #
loop $-1 $-1 $189 $179 #
plane-surface $-1 0 -34.149461516142317 0 0 1 0 0 0 1 forward_v I I I I #
coedge $-1 $360 $182 $276 $361 forward $109 $-1 #
coedge $-1 $182 $360 $362 $363 forward $109 $-1 #
edge $-1 $364 -66.907559434797207 $277 66.907559434797207 $182 $365 forward 7 unknown #
coedge $-1 $184 $183 $366 $367 reversed $69 $-1 #
coedge $-1 $185 $191 $272 $361 reversed $180 $-1 #
vertex $-1 $361 $368 #
straight-curve $-1 66.907559434797207 -25.600408115330829 -4.4471858765294758 0 0 1 I I #
coedge $-1 $366 $369 $187 $280 forward $358 $-1 #
edge $-1 $285 -19.21199410827403 $281 -10.662940707462543 $279 $370 forward 7 unknown #
vertex $-1 $280 $371 #
straight-curve $-1 0 -25.600408115330829 -6.3265221356281875 -1 0 0 I I #
coedge $-1 $372 $189 $369 $373 forward $270 $-1 #
coedge $-1 $189 $372 $191 $287 reversed $270 $-1 #
vertex $-1 $373 $374 #
straight-curve $-1 0 -34.149461516142317 -6.3265221356281875 -1 0 0 I I #
edge $-1 $193 6.3265221356281875 $375 11.462221370489715 $191 $376 forward 7 unknown #
point $-1 66.907559434797207 -25.600408115330829 -6.3265221356281875 #
point $-1 66.907559434797207 -34.149461516142317 -6.3265221356281875 #
loop $-1 $-1 $203 $195 #
plane-surface $-1 -66.907559434797207 0 0 1 0 0 0 0 -1 forward_v I I I I #
coedge $-1 $293 $198 $200 $297 reversed $117 $-1 #
coedge $-1 $198 $292 $377 $378 reversed $117 $-1 #
coedge $-1 $206 $201 $198 $295 forward $196 $-1 #
edge $-1 $298 -20.619339914363472 $379 -7.7386275512410805 $294 $380 forward 7 unknown #
coedge $-1 $200 $199 $301 $381 reversed $73 $-1 #
edge $-1 $382 1.8033521786330445e-014 $298 16.345858737037339 $292 $383 forward 7 unknown #
vertex $-1 $202 $384 #
straight-curve $-1 -54.026847071674815 12.594598065262932 11.462221370489715 0 1 0 I I #
coedge $-1 $377 $203 $206 $305 reversed $290 $-1 #
coedge $-1 $203 $377 $296 $381 forward $290 $-1 #
vertex $-1 $204 $385 #
straight-curve $-1 -66.907559434797207 18.654870202677255 53.423228797999329 0 0 1 I I #
straight-curve $-1 -66.907559434797221 18.654870202677255 1.3987057387790145 -0.78801074757464917 0 -0.61566148304635926 I I #
edge $-1 $379 -31.723522058374474 $207 -18.654870202677255 $300 $386 forward 7 unknown #
point $-1 -66.907559434797207 18.654870202677255 11.462221370489715 #
point $-1 -54.026847071674815 18.654870202677255 11.462221370489713 #
edge $-1 $387 1 $387 0 $210 $-1 forward 7 unknown #
vertex $-1 $211 $388 #
ellipse-curve $-1 -59.851541770189648 22.388770732876466 5.64245280705972 -0.61566148304635926 0 0.78801074757464917 0.39400537378732459 0 0.30783074152317963 1 I I #
point $-1 -60.073197879448685 22.388770732876466 6.7382942961575489 #
edge $-1 $389 1 $389 0 $214 $-1 forward 7 unknown #
vertex $-1 $215 $390 #
ellipse-curve $-1 -59.851541770189648 27.989621528175277 5.64245280705972 -0.61566148304635926 0 0.78801074757464917 0.39400537378732459 0 0.30783074152317963 1 I I #
point $-1 -60.073197879448685 27.989621528175277 6.7382942961575489 #
plane-surface $-1 0 0 11.462221370489715 0 0 1 1 0 0 forward_v I I I I #
coedge $-1 $327 $326 $319 $391 forward $219 $-1 #
coedge $-1 $319 $221 $223 $323 reversed $139 $-1 #
coedge $-1 $221 $318 $317 $391 reversed $139 $-1 #
coedge $-1 $229 $224 $221 $321 forward $230 $-1 #
edge $-1 $324 27.92619721946221 $392 38.405889458834793 $320 $393 forward 7 unknown #
coedge $-1 $223 $222 $327 $394 reversed $87 $-1 #
edge $-1 $395 -133.81511886959441 $324 -119.7133018585927 $318 $396 forward 7 unknown #
vertex $-1 $225 $397 #
straight-curve $-1 56.427867195424625 -3.3906492312612357 11.462221370489708 0 -1 0 I I #
coedge $-1 $317 $226 $229 $331 reversed $219 $-1 #
coedge $-1 $226 $317 $322 $394 forward $219 $-1 #
vertex $-1 $227 $398 #
straight-curve $-1 66.907559434797207 1.421291899580174 95.505034392350282 0 0 1 I I #
straight-curve $-1 -32.536452754153572 1.421291899580174 91.566056595749785 0.74314481823134659 0 -0.66913061440640931 I I #
edge $-1 $392 -14.983888824625117 $231 1.421291899580174 $326 $399 forward 7 unknown #
point $-1 66.907559434797207 1.421291899580174 11.462221370489715 #
point $-1 56.427867195424625 1.421291899580174 11.462221370489715 #
edge $-1 $400 1 $400 0 $234 $-1 forward 7 unknown #
vertex $-1 $235 $401 #
ellipse-curve $-1 59.854013414322935 -10.296694331995035 4.7299248659875577 0.66913061440640931 0 0.74314481823134659 0.74314481823134659 0 -0.66913061440640931 1 I I #
point $-1 62.410858133342259 -10.296694331995035 6.0751120156741472 #
edge $-1 $402 1 $402 0 $238 $-1 forward 7 unknown #
vertex $-1 $239 $403 #
ellipse-curve $-1 59.854013414322935 -3.2659025930499119 4.7299248659875577 0.66913061440640931 0 0.74314481823134659 0.74314481823134659 0 -0.66913061440640931 1 I I #
point $-1 62.410858133342259 -3.2659025930499119 6.0751120156741472 #
plane-surface $-1 66.907559434797207 0 0 -1 0 0 0 0 1 forward_v I I I I #
coedge $-1 $247 $245 $249 $347 reversed $161 $-1 #
edge $-1 $260 -11.462221370489715 $349 11.462221370489715 $259 $404 forward 7 unknown #
vertex $-1 $347 $405 #
straight-curve $-1 -66.907559434797207 -34.149461516142317 0 0 0 -1 I I #
edge $-1 $345 -34.149461516142317 $349 34.149461516142317 $343 $406 forward 7 unknown #
straight-curve $-1 0 -34.149461516142317 -11.462221370489715 -1 0 0 I I #
vertex $-1 $252 $407 #
straight-curve $-1 0 34.149461516142317 -11.462221370489715 1 0 0 I I #
point $-1 66.907559434797207 34.149461516142317 -11.462221370489715 #
point $-1 66.907559434797207 -34.149461516142317 -11.462221370489715 #
straight-curve $-1 -66.907559434797207 0 11.462221370489715 0 -1 0 I I #
point $-1 -66.907559434797207 34.149461516142317 11.462221370489715 #
point $-1 -66.907559434797207 -34.149461516142317 11.462221370489715 #
straight-curve $-1 66.907559434797207 -34.149461516142317 0 0 0 -1 I I #
straight-curve $-1 66.907559434797207 34.149461516142317 0 0 0 -1 I I #
loop $-1 $-1 $366 $269 #
plane-surface $-1 -66.907559434797207 0 0 1 0 0 0 0 -1 forward_v I I I I #
coedge $-1 $273 $272 $372 $408 forward $109 $-1 #
edge $-1 $277 25.600408115330829 $375 34.149461516142317 $276 $409 forward 7 unknown #
coedge $-1 $369 $366 $273 $363 reversed $358 $-1 #
edge $-1 $410 -34.149461516142317 $364 -25.600408115330829 $362 $411 forward 7 unknown #
vertex $-1 $367 $412 #
straight-curve $-1 0 -25.600408115330829 -11.462221370489715 1 0 0 I I #
coedge $-1 $362 $279 $275 $367 forward $358 $-1 #
edge $-1 $281 1.8793362590987117 $364 7.0150354939602391 $366 $413 forward 7 unknown #
point $-1 66.907559434797207 -25.600408115330829 -11.462221370489715 #
coedge $-1 $279 $362 $283 $373 reversed $358 $-1 #
straight-curve $-1 -66.907559434797207 -14.937467407868287 -6.3265221356281875 0 1 0 I I #
point $-1 -66.907559434797207 -25.600408115330829 -6.3265221356281875 #
coedge $-1 $284 $283 $360 $408 reversed $270 $-1 #
edge $-1 $285 6.3265221356281875 $410 11.462221370489715 $369 $414 forward 7 unknown #
point $-1 -66.907559434797207 -34.149461516142317 -6.3265221356281875 #
vertex $-1 $287 $415 #
straight-curve $-1 66.907559434797207 -34.149461516142317 0 0 0 -1 I I #
coedge $-1 $301 $300 $293 $378 forward $290 $-1 #
edge $-1 $379 41.961007427509614 $382 52.0245230592203 $377 $416 forward 7 unknown #
vertex $-1 $305 $417 #
straight-curve $-1 -74.646186986038288 31.723522058374474 11.462221370489715 -1 0 0 I I #
edge $-1 $382 -19.128923993111542 $302 -6.0602721374143229 $301 $418 forward 7 unknown #
vertex $-1 $381 $419 #
straight-curve $-1 -66.907559434797221 31.723522058374474 1.3987057387790145 0.78801074757464917 0 0.61566148304635926 I I #
point $-1 -54.026847071674815 31.723522058374474 11.462221370489713 #
point $-1 -66.907559434797207 18.654870202677255 1.3987057387790256 #
straight-curve $-1 -66.907559434797207 0 11.462221370489715 0 -1 0 I I #
vertex $-1 $308 $420 #
point $-1 -59.457536396402325 22.388770732876466 5.9502835485828998 #
vertex $-1 $312 $421 #
point $-1 -59.457536396402325 27.989621528175277 5.9502835485828998 #
edge $-1 $392 84.042813021860567 $395 93.478770502678898 $317 $422 forward 7 unknown #
vertex $-1 $331 $423 #
straight-curve $-1 28.501669975962415 -14.983888824625117 11.462221370489715 1 0 0 I I #
edge $-1 $395 -11.593239593363881 $328 4.8119411308414097 $327 $424 forward 7 unknown #
vertex $-1 $394 $425 #
straight-curve $-1 -32.536452754153572 -14.983888824625117 91.566056595749785 -0.74314481823134659 0 0.66913061440640931 I I #
point $-1 56.427867195424625 -14.983888824625117 11.462221370489715 #
point $-1 66.907559434797207 1.421291899580174 2.0262638896713838 #
straight-curve $-1 66.907559434797207 0 11.462221370489715 0 1 0 I I #
vertex $-1 $334 $426 #
point $-1 60.597158232554278 -10.296694331995035 4.0607942515811484 #
vertex $-1 $338 $427 #
point $-1 60.597158232554278 -3.2659025930499119 4.0607942515811484 #
straight-curve $-1 -66.907559434797207 34.149461516142317 0 0 0 -1 I I #
point $-1 -66.907559434797207 -34.149461516142317 -11.462221370489715 #
straight-curve $-1 -66.907559434797207 0 -11.462221370489715 0 1 0 I I #
point $-1 -66.907559434797207 34.149461516142317 -11.462221370489715 #
edge $-1 $375 -66.907559434797207 $410 66.907559434797207 $372 $428 forward 7 unknown #
straight-curve $-1 66.907559434797207 0 -11.462221370489715 0 -1 0 I I #
vertex $-1 $363 $429 #
straight-curve $-1 -66.907559434797207 0 -11.462221370489715 0 1 0 I I #
point $-1 -66.907559434797207 -25.600408115330829 -11.462221370489715 #
straight-curve $-1 -66.907559434797207 -25.600408115330829 -4.4471858765294758 0 0 -1 I I #
straight-curve $-1 -66.907559434797207 -34.149461516142317 0 0 0 -1 I I #
point $-1 66.907559434797207 -34.149461516142317 -11.462221370489715 #
straight-curve $-1 -66.907559434797207 31.723522058374474 53.423228797999329 0 0 -1 I I #
point $-1 -66.907559434797207 31.723522058374474 11.462221370489715 #
straight-curve $-1 -66.907559434797207 12.594598065262932 1.3987057387790174 0 -1 0 I I #
point $-1 -66.907559434797207 31.723522058374474 1.3987057387790256 #
point $-1 -59.543711028666472 22.388770732876466 5.2484474332723954 #
point $-1 -59.543711028666472 27.989621528175277 5.2484474332723954 #
straight-curve $-1 66.907559434797207 -14.983888824625117 95.505034392350282 0 0 -1 I I #
point $-1 66.907559434797207 -14.983888824625117 11.462221370489715 #
straight-curve $-1 66.907559434797207 -3.3906492312612357 2.0262638896713767 0 1 0 I I #
point $-1 66.907559434797207 -14.983888824625117 2.0262638896713838 #
point $-1 59.184882799916522 -10.296694331995035 3.986780047756211 #
point $-1 59.184882799916522 -3.2659025930499119 3.986780047756211 #
straight-curve $-1 0 -34.149461516142317 -11.462221370489715 -1 0 0 I I #
point $-1 -66.907559434797207 -34.149461516142317 -11.462221370489715 #
End-of-ACIS-data 