500 0 13 0           
7 Unknown 11 ACIS 5.0 NT 24 Fri Mar 26 19:00:57 1999 
-1 9.9999999999999995e-007 1e-010 
body $-1 $13 $-1 $14 #
body $-1 $15 $-1 $16 #
body $-1 $17 $-1 $18 #
body $-1 $19 $-1 $20 #
body $-1 $21 $-1 $22 #
body $-1 $23 $-1 $24 #
body $-1 $25 $-1 $26 #
body $-1 $27 $-1 $28 #
body $-1 $29 $-1 $30 #
body $-1 $31 $-1 $32 #
body $-1 $33 $-1 $34 #
body $-1 $35 $-1 $36 #
body $-1 $37 $-1 $38 #
lump $-1 $-1 $39 $0 #
transform $-1 1 0 0 0 1 0 0 0 1 41.995910519730216 20.993213145270452 6.6457899702716272 1 rotate no_reflect no_shear #
lump $-1 $-1 $40 $1 #
transform $-1 1 0 0 0 0.49999998660252726 -0.86602541151947299 0 0.86602541151947299 0.49999998660252726 29.24079400886373 93.732265087751117 87.517468319213862 1 rotate no_reflect no_shear #
lump $-1 $-1 $41 $2 #
transform $-1 1 0 0 0 -0.49999998660252726 0.86602541151947299 0 -0.86602541151947299 -0.49999998660252726 29.24079400886373 39.711281423619624 10.600913396150503 1 rotate no_reflect no_shear #
lump $-1 $-1 $42 $3 #
transform $-1 1 0 0 0 0.49999998660252726 -0.86602541151947299 0 0.86602541151947299 0.49999998660252726 54.751027030596703 93.732265087751117 87.517468319213862 1 rotate no_reflect no_shear #
lump $-1 $-1 $43 $4 #
transform $-1 1 0 0 0 -0.49999998660252726 0.86602541151947299 0 -0.86602541151947299 -0.49999998660252726 54.751027030596703 39.711281423619624 10.600913396150503 1 rotate no_reflect no_shear #
lump $-1 $-1 $44 $5 #
transform $-1 1 0 0 0 0.57357642473473569 0.81915205242281985 0 -0.81915205242281985 0.57357642473473569 14.708295446640104 -68.802072591204194 56.943991898151857 1 rotate no_reflect no_shear #
lump $-1 $-1 $45 $6 #
transform $-1 1 0 0 0 -0.57357642473473569 -0.81915205242281985 0 0.81915205242281985 -0.57357642473473569 11.271403036324429 3.9490263303291497 9.373653484497293 1 rotate no_reflect no_shear #
lump $-1 $-1 $46 $7 #
transform $-1 1 0 0 0 -0.57357642473473569 -0.81915205242281985 0 0.81915205242281985 -0.57357642473473569 14.708295446640104 3.9490263303291497 9.373653484497293 1 rotate no_reflect no_shear #
lump $-1 $-1 $47 $8 #
transform $-1 1 0 0 0 -0.57357642473473569 -0.81915205242281985 0 0.81915205242281985 -0.57357642473473569 18.145187856955779 3.9490263303291497 9.373653484497293 1 rotate no_reflect no_shear #
lump $-1 $-1 $48 $9 #
transform $-1 1 0 0 0 0.57357642473473569 0.81915205242281985 0 -0.81915205242281985 0.57357642473473569 69.283525592820325 -68.802072591204194 56.943991898151857 1 rotate no_reflect no_shear #
lump $-1 $-1 $49 $10 #
transform $-1 1 0 0 0 -0.57357642473473569 -0.81915205242281985 0 0.81915205242281985 -0.57357642473473569 65.846633182504661 3.9490263303291497 9.373653484497293 1 rotate no_reflect no_shear #
lump $-1 $-1 $50 $11 #
transform $-1 1 0 0 0 -0.57357642473473569 -0.81915205242281985 0 0.81915205242281985 -0.57357642473473569 69.283525592820325 3.9490263303291497 9.373653484497293 1 rotate no_reflect no_shear #
lump $-1 $-1 $51 $12 #
transform $-1 1 0 0 0 -0.57357642473473569 -0.81915205242281985 0 0.81915205242281985 -0.57357642473473569 72.720418003136004 3.9490263303291497 9.373653484497293 1 rotate no_reflect no_shear #
shell $-1 $-1 $-1 $52 $-1 $13 #
shell $-1 $-1 $-1 $53 $-1 $15 #
shell $-1 $-1 $-1 $54 $-1 $17 #
shell $-1 $-1 $-1 $55 $-1 $19 #
shell $-1 $-1 $-1 $56 $-1 $21 #
shell $-1 $-1 $-1 $57 $-1 $23 #
shell $-1 $-1 $-1 $58 $-1 $25 #
shell $-1 $-1 $-1 $59 $-1 $27 #
shell $-1 $-1 $-1 $60 $-1 $29 #
shell $-1 $-1 $-1 $61 $-1 $31 #
shell $-1 $-1 $-1 $62 $-1 $33 #
shell $-1 $-1 $-1 $63 $-1 $35 #
shell $-1 $-1 $-1 $64 $-1 $37 #
face $-1 $65 $66 $39 $-1 $67 forward single #
face $-1 $68 $69 $40 $-1 $70 forward single #
face $-1 $71 $72 $41 $-1 $73 forward single #
face $-1 $74 $75 $42 $-1 $76 forward single #
face $-1 $77 $78 $43 $-1 $79 forward single #
face $-1 $80 $81 $44 $-1 $82 forward single #
face $-1 $83 $84 $45 $-1 $85 forward single #
face $-1 $86 $87 $46 $-1 $88 forward single #
face $-1 $89 $90 $47 $-1 $91 forward single #
face $-1 $92 $93 $48 $-1 $94 forward single #
face $-1 $95 $96 $49 $-1 $97 forward single #
face $-1 $98 $99 $50 $-1 $100 forward single #
face $-1 $101 $102 $51 $-1 $103 forward single #
face $-1 $104 $105 $39 $-1 $106 reversed single #
loop $-1 $-1 $107 $52 #
plane-surface $-1 0 0 6.6457899702716272 0 0 1 1 0 0 forward_v I I I I #
face $-1 $108 $109 $40 $-1 $110 reversed single #
loop $-1 $-1 $111 $53 #
plane-surface $-1 0 0 83.991821039460433 0 0 1 1 0 0 forward_v I I I I #
face $-1 $112 $113 $41 $-1 $114 forward single #
loop $-1 $115 $116 $54 #
cone-surface $-1 0 0 -0.75 0 0 1 0.5 0 0 1 I I 0 1 0.5 forward I I I I #
face $-1 $117 $118 $42 $-1 $119 reversed single #
loop $-1 $-1 $120 $55 #
plane-surface $-1 0 0 83.991821039460433 0 0 1 1 0 0 forward_v I I I I #
face $-1 $121 $122 $43 $-1 $123 forward single #
loop $-1 $124 $125 $56 #
cone-surface $-1 0 0 -0.75 0 0 1 0.5 0 0 1 I I 0 1 0.5 forward I I I I #
face $-1 $126 $127 $44 $-1 $128 reversed single #
loop $-1 $-1 $129 $57 #
plane-surface $-1 0 0 83.991821039460433 0 0 1 1 0 0 forward_v I I I I #
face $-1 $130 $131 $45 $-1 $132 forward single #
loop $-1 $133 $134 $58 #
cone-surface $-1 0 0 -1.69380779442732 0 0 1 1 0 0 1 I I 0 1 1 forward I I I I #
face $-1 $135 $136 $46 $-1 $137 forward single #
loop $-1 $138 $139 $59 #
cone-surface $-1 0 0 -1.69380779442732 0 0 1 1 0 0 1 I I 0 1 1 forward I I I I #
face $-1 $140 $141 $47 $-1 $142 forward single #
loop $-1 $143 $144 $60 #
cone-surface $-1 0 0 -1.69380779442732 0 0 1 1 0 0 1 I I 0 1 1 forward I I I I #
face $-1 $145 $146 $48 $-1 $147 reversed single #
loop $-1 $-1 $148 $61 #
plane-surface $-1 0 0 83.991821039460433 0 0 1 1 0 0 forward_v I I I I #
face $-1 $149 $150 $49 $-1 $151 forward single #
loop $-1 $152 $153 $62 #
cone-surface $-1 0 0 -1.69380779442732 0 0 1 1 0 0 1 I I 0 1 1 forward I I I I #
face $-1 $154 $155 $50 $-1 $156 forward single #
loop $-1 $157 $158 $63 #
cone-surface $-1 0 0 -1.69380779442732 0 0 1 1 0 0 1 I I 0 1 1 forward I I I I #
face $-1 $159 $160 $51 $-1 $161 forward single #
loop $-1 $162 $163 $64 #
cone-surface $-1 0 0 -1.69380779442732 0 0 1 1 0 0 1 I I 0 1 1 forward I I I I #
face $-1 $164 $165 $39 $-1 $166 reversed single #
loop $-1 $-1 $167 $65 #
plane-surface $-1 0 0 -6.6457899702716272 0 0 1 1 0 0 forward_v I I I I #
coedge $-1 $168 $169 $170 $171 forward $66 $-1 #
face $-1 $172 $173 $40 $-1 $174 reversed single #
loop $-1 $-1 $175 $68 #
plane-surface $-1 0 0 -83.991821039460433 0 0 1 1 0 0 forward_v I I I I #
coedge $-1 $176 $177 $178 $179 forward $69 $-1 #
face $-1 $-1 $180 $41 $-1 $181 forward single #
loop $-1 $-1 $182 $71 #
plane-surface $-1 0 0 -1.25 0 0 -1 -1 0 0 forward_v I I I I #
loop $-1 $-1 $183 $54 #
coedge $-1 $116 $116 $182 $184 reversed $72 $-1 #
face $-1 $185 $186 $42 $-1 $187 reversed single #
loop $-1 $-1 $188 $74 #
plane-surface $-1 0 0 -83.991821039460433 0 0 1 1 0 0 forward_v I I I I #
coedge $-1 $189 $190 $191 $192 forward $75 $-1 #
face $-1 $-1 $193 $43 $-1 $194 forward single #
loop $-1 $-1 $195 $77 #
plane-surface $-1 0 0 -1.25 0 0 -1 -1 0 0 forward_v I I I I #
loop $-1 $-1 $196 $56 #
coedge $-1 $125 $125 $195 $197 reversed $78 $-1 #
face $-1 $198 $199 $44 $-1 $200 reversed single #
loop $-1 $-1 $201 $80 #
plane-surface $-1 0 0 -83.991821039460433 0 0 1 1 0 0 forward_v I I I I #
coedge $-1 $202 $203 $204 $205 forward $81 $-1 #
face $-1 $-1 $206 $45 $-1 $207 forward single #
loop $-1 $-1 $208 $83 #
plane-surface $-1 0 0 -2.88761558885464 0 0 -1 -1 0 0 forward_v I I I I #
loop $-1 $-1 $209 $58 #
coedge $-1 $134 $134 $208 $210 reversed $84 $-1 #
face $-1 $-1 $211 $46 $-1 $212 forward single #
loop $-1 $-1 $213 $86 #
plane-surface $-1 0 0 -2.88761558885464 0 0 -1 -1 0 0 forward_v I I I I #
loop $-1 $-1 $214 $59 #
coedge $-1 $139 $139 $213 $215 reversed $87 $-1 #
face $-1 $-1 $216 $47 $-1 $217 forward single #
loop $-1 $-1 $218 $89 #
plane-surface $-1 0 0 -2.88761558885464 0 0 -1 -1 0 0 forward_v I I I I #
loop $-1 $-1 $219 $60 #
coedge $-1 $144 $144 $218 $220 reversed $90 $-1 #
face $-1 $221 $222 $48 $-1 $223 reversed single #
loop $-1 $-1 $224 $92 #
plane-surface $-1 0 0 -83.991821039460433 0 0 1 1 0 0 forward_v I I I I #
coedge $-1 $225 $226 $227 $228 forward $93 $-1 #
face $-1 $-1 $229 $49 $-1 $230 forward single #
loop $-1 $-1 $231 $95 #
plane-surface $-1 0 0 -2.88761558885464 0 0 -1 -1 0 0 forward_v I I I I #
loop $-1 $-1 $232 $62 #
coedge $-1 $153 $153 $231 $233 reversed $96 $-1 #
face $-1 $-1 $234 $50 $-1 $235 forward single #
loop $-1 $-1 $236 $98 #
plane-surface $-1 0 0 -2.88761558885464 0 0 -1 -1 0 0 forward_v I I I I #
loop $-1 $-1 $237 $63 #
coedge $-1 $158 $158 $236 $238 reversed $99 $-1 #
face $-1 $-1 $239 $51 $-1 $240 forward single #
loop $-1 $-1 $241 $101 #
plane-surface $-1 0 0 -2.88761558885464 0 0 -1 -1 0 0 forward_v I I I I #
loop $-1 $-1 $242 $64 #
coedge $-1 $163 $163 $241 $243 reversed $102 $-1 #
face $-1 $244 $245 $39 $-1 $246 reversed single #
loop $-1 $-1 $247 $104 #
plane-surface $-1 0 -20.993213145270452 0 0 1 0 0 0 1 forward_v I I I I #
coedge $-1 $248 $249 $250 $251 forward $105 $-1 #
coedge $-1 $252 $107 $253 $254 forward $66 $-1 #
coedge $-1 $107 $252 $255 $256 forward $66 $-1 #
coedge $-1 $257 $258 $107 $171 reversed $259 $-1 #
edge $-1 $260 -20.993213145270452 $261 20.993213145270452 $170 $262 forward 7 unknown #
face $-1 $263 $264 $40 $-1 $265 reversed single #
loop $-1 $-1 $266 $108 #
plane-surface $-1 0 -167.98364207892087 0 0 1 0 0 0 1 forward_v I I I I #
coedge $-1 $267 $268 $269 $270 forward $109 $-1 #
coedge $-1 $271 $111 $272 $273 forward $69 $-1 #
coedge $-1 $111 $271 $274 $275 forward $69 $-1 #
coedge $-1 $276 $277 $111 $179 reversed $278 $-1 #
edge $-1 $279 -167.98364207892087 $280 167.98364207892087 $178 $281 forward 7 unknown #
loop $-1 $282 $283 $112 #
cone-surface $-1 0 0 0 0 0 1 0.25 0 0 1 I I -0.70710678118654746 0.70710678118654746 0.25 forward I I I I #
coedge $-1 $182 $182 $116 $184 forward $113 $-1 #
coedge $-1 $183 $183 $283 $284 forward $115 $-1 #
edge $-1 $285 0 $285 6.2831853071796004 $182 $286 forward 7 unknown #
face $-1 $287 $288 $42 $-1 $289 reversed single #
loop $-1 $-1 $290 $117 #
plane-surface $-1 0 -167.98364207892087 0 0 1 0 0 0 1 forward_v I I I I #
coedge $-1 $291 $292 $293 $294 forward $118 $-1 #
coedge $-1 $295 $120 $296 $297 forward $75 $-1 #
coedge $-1 $120 $295 $298 $299 forward $75 $-1 #
coedge $-1 $300 $301 $120 $192 reversed $302 $-1 #
edge $-1 $303 -167.98364207892087 $304 167.98364207892087 $191 $305 forward 7 unknown #
loop $-1 $306 $307 $121 #
cone-surface $-1 0 0 0 0 0 1 0.25 0 0 1 I I -0.70710678118654746 0.70710678118654746 0.25 forward I I I I #
coedge $-1 $195 $195 $125 $197 forward $122 $-1 #
coedge $-1 $196 $196 $307 $308 forward $124 $-1 #
edge $-1 $309 0 $309 6.2831853071796004 $195 $310 forward 7 unknown #
face $-1 $311 $312 $44 $-1 $313 reversed single #
loop $-1 $-1 $314 $126 #
plane-surface $-1 0 -167.98364207892087 0 0 1 0 0 0 1 forward_v I I I I #
coedge $-1 $315 $316 $317 $318 forward $127 $-1 #
coedge $-1 $319 $129 $320 $321 forward $81 $-1 #
coedge $-1 $129 $319 $322 $323 forward $81 $-1 #
coedge $-1 $324 $325 $129 $205 reversed $326 $-1 #
edge $-1 $327 -167.98364207892087 $328 167.98364207892087 $204 $329 forward 7 unknown #
loop $-1 $330 $331 $130 #
cone-surface $-1 0 0 0 0 0 1 0.5 0 0 1 I I -0.70710678118654746 0.70710678118654746 0.5 forward I I I I #
coedge $-1 $208 $208 $134 $210 forward $131 $-1 #
coedge $-1 $209 $209 $331 $332 forward $133 $-1 #
edge $-1 $333 0 $333 6.2831853071796004 $208 $334 forward 7 unknown #
loop $-1 $335 $336 $135 #
cone-surface $-1 0 0 0 0 0 1 0.5 0 0 1 I I -0.70710678118654746 0.70710678118654746 0.5 forward I I I I #
coedge $-1 $213 $213 $139 $215 forward $136 $-1 #
coedge $-1 $214 $214 $336 $337 forward $138 $-1 #
edge $-1 $338 0 $338 6.2831853071796004 $213 $339 forward 7 unknown #
loop $-1 $340 $341 $140 #
cone-surface $-1 0 0 0 0 0 1 0.5 0 0 1 I I -0.70710678118654746 0.70710678118654746 0.5 forward I I I I #
coedge $-1 $218 $218 $144 $220 forward $141 $-1 #
coedge $-1 $219 $219 $341 $342 forward $143 $-1 #
edge $-1 $343 0 $343 6.2831853071796004 $218 $344 forward 7 unknown #
face $-1 $345 $346 $48 $-1 $347 reversed single #
loop $-1 $-1 $348 $145 #
plane-surface $-1 0 -167.98364207892087 0 0 1 0 0 0 1 forward_v I I I I #
coedge $-1 $349 $350 $351 $352 forward $146 $-1 #
coedge $-1 $353 $148 $354 $355 forward $93 $-1 #
coedge $-1 $148 $353 $356 $357 forward $93 $-1 #
coedge $-1 $358 $359 $148 $228 reversed $360 $-1 #
edge $-1 $361 -167.98364207892087 $362 167.98364207892087 $227 $363 forward 7 unknown #
loop $-1 $364 $365 $149 #
cone-surface $-1 0 0 0 0 0 1 0.5 0 0 1 I I -0.70710678118654746 0.70710678118654746 0.5 forward I I I I #
coedge $-1 $231 $231 $153 $233 forward $150 $-1 #
coedge $-1 $232 $232 $365 $366 forward $152 $-1 #
edge $-1 $367 0 $367 6.2831853071796004 $231 $368 forward 7 unknown #
loop $-1 $369 $370 $154 #
cone-surface $-1 0 0 0 0 0 1 0.5 0 0 1 I I -0.70710678118654746 0.70710678118654746 0.5 forward I I I I #
coedge $-1 $236 $236 $158 $238 forward $155 $-1 #
coedge $-1 $237 $237 $370 $371 forward $157 $-1 #
edge $-1 $372 0 $372 6.2831853071796004 $236 $373 forward 7 unknown #
loop $-1 $374 $375 $159 #
cone-surface $-1 0 0 0 0 0 1 0.5 0 0 1 I I -0.70710678118654746 0.70710678118654746 0.5 forward I I I I #
coedge $-1 $241 $241 $163 $243 forward $160 $-1 #
coedge $-1 $242 $242 $375 $376 forward $162 $-1 #
edge $-1 $377 0 $377 6.2831853071796004 $241 $378 forward 7 unknown #
face $-1 $379 $380 $39 $-1 $381 reversed single #
loop $-1 $-1 $382 $164 #
plane-surface $-1 -41.995910519730216 0 0 1 0 0 0 0 -1 forward_v I I I I #
coedge $-1 $383 $255 $384 $385 forward $165 $-1 #
coedge $-1 $386 $167 $383 $387 forward $105 $-1 #
coedge $-1 $167 $386 $388 $389 forward $105 $-1 #
coedge $-1 $258 $257 $167 $251 reversed $259 $-1 #
edge $-1 $390 -20.993213145270452 $391 20.993213145270452 $250 $392 forward 7 unknown #
coedge $-1 $169 $168 $393 $394 forward $66 $-1 #
coedge $-1 $395 $396 $168 $254 reversed $380 $-1 #
edge $-1 $261 -41.995910519730216 $397 41.995910519730216 $253 $398 forward 7 unknown #
coedge $-1 $247 $399 $169 $256 reversed $165 $-1 #
edge $-1 $400 -41.995910519730216 $260 41.995910519730216 $255 $401 forward 7 unknown #
coedge $-1 $250 $170 $399 $402 forward $259 $-1 #
coedge $-1 $170 $250 $395 $403 reversed $259 $-1 #
loop $-1 $-1 $257 $379 #
vertex $-1 $171 $404 #
vertex $-1 $171 $405 #
straight-curve $-1 41.995910519730216 0 6.6457899702716272 0 1 0 I I #
face $-1 $406 $407 $40 $-1 $408 reversed single #
loop $-1 $-1 $409 $172 #
plane-surface $-1 -7.294974312318077 0 0 1 0 0 0 0 -1 forward_v I I I I #
coedge $-1 $410 $274 $411 $412 forward $173 $-1 #
coedge $-1 $413 $175 $410 $414 forward $109 $-1 #
coedge $-1 $175 $413 $415 $416 forward $109 $-1 #
coedge $-1 $277 $276 $175 $270 reversed $278 $-1 #
edge $-1 $417 -167.98364207892087 $418 167.98364207892087 $269 $419 forward 7 unknown #
coedge $-1 $177 $176 $420 $421 forward $69 $-1 #
coedge $-1 $422 $423 $176 $273 reversed $407 $-1 #
edge $-1 $280 -7.294974312318077 $424 7.294974312318077 $272 $425 forward 7 unknown #
coedge $-1 $266 $426 $177 $275 reversed $173 $-1 #
edge $-1 $427 -7.294974312318077 $279 7.294974312318077 $274 $428 forward 7 unknown #
coedge $-1 $269 $178 $426 $429 forward $278 $-1 #
coedge $-1 $178 $269 $422 $430 reversed $278 $-1 #
loop $-1 $-1 $276 $406 #
vertex $-1 $179 $431 #
vertex $-1 $179 $432 #
straight-curve $-1 7.294974312318077 0 83.991821039460433 0 1 0 I I #
loop $-1 $-1 $433 $112 #
coedge $-1 $283 $283 $183 $284 reversed $180 $-1 #
edge $-1 $434 0 $434 6.2831853071796004 $283 $435 forward 7 unknown #
vertex $-1 $184 $436 #
ellipse-curve $-1 0 0 -1.25 0 0 -1 0.5 0 0 1 I I #
face $-1 $437 $438 $42 $-1 $439 reversed single #
loop $-1 $-1 $440 $185 #
plane-surface $-1 -7.294974312318077 0 0 1 0 0 0 0 -1 forward_v I I I I #
coedge $-1 $441 $298 $442 $443 forward $186 $-1 #
coedge $-1 $444 $188 $441 $445 forward $118 $-1 #
coedge $-1 $188 $444 $446 $447 forward $118 $-1 #
coedge $-1 $301 $300 $188 $294 reversed $302 $-1 #
edge $-1 $448 -167.98364207892087 $449 167.98364207892087 $293 $450 forward 7 unknown #
coedge $-1 $190 $189 $451 $452 forward $75 $-1 #
coedge $-1 $453 $454 $189 $297 reversed $438 $-1 #
edge $-1 $304 -7.294974312318077 $455 7.294974312318077 $296 $456 forward 7 unknown #
coedge $-1 $290 $457 $190 $299 reversed $186 $-1 #
edge $-1 $458 -7.294974312318077 $303 7.294974312318077 $298 $459 forward 7 unknown #
coedge $-1 $293 $191 $457 $460 forward $302 $-1 #
coedge $-1 $191 $293 $453 $461 reversed $302 $-1 #
loop $-1 $-1 $300 $437 #
vertex $-1 $192 $462 #
vertex $-1 $192 $463 #
straight-curve $-1 7.294974312318077 0 83.991821039460433 0 1 0 I I #
loop $-1 $-1 $464 $121 #
coedge $-1 $307 $307 $196 $308 reversed $193 $-1 #
edge $-1 $465 0 $465 6.2831853071796004 $307 $466 forward 7 unknown #
vertex $-1 $197 $467 #
ellipse-curve $-1 0 0 -1.25 0 0 -1 0.5 0 0 1 I I #
face $-1 $468 $469 $44 $-1 $470 reversed single #
loop $-1 $-1 $471 $198 #
plane-surface $-1 -5.7281540171927929 0 0 1 0 0 0 0 -1 forward_v I I I I #
coedge $-1 $472 $322 $473 $474 forward $199 $-1 #
coedge $-1 $475 $201 $472 $476 forward $127 $-1 #
coedge $-1 $201 $475 $477 $478 forward $127 $-1 #
coedge $-1 $325 $324 $201 $318 reversed $326 $-1 #
edge $-1 $479 -167.98364207892087 $480 167.98364207892087 $317 $481 forward 7 unknown #
coedge $-1 $203 $202 $482 $483 forward $81 $-1 #
coedge $-1 $484 $485 $202 $321 reversed $469 $-1 #
edge $-1 $328 -5.7281540171927929 $486 5.7281540171927929 $320 $487 forward 7 unknown #
coedge $-1 $314 $488 $203 $323 reversed $199 $-1 #
edge $-1 $489 -5.7281540171927929 $327 5.7281540171927929 $322 $490 forward 7 unknown #
coedge $-1 $317 $204 $488 $491 forward $326 $-1 #
coedge $-1 $204 $317 $484 $492 reversed $326 $-1 #
loop $-1 $-1 $324 $468 #
vertex $-1 $205 $493 #
vertex $-1 $205 $494 #
straight-curve $-1 5.7281540171927929 0 83.991821039460433 0 1 0 I I #
loop $-1 $-1 $495 $130 #
coedge $-1 $331 $331 $209 $332 reversed $206 $-1 #
edge $-1 $496 0 $496 6.2831853071796004 $331 $497 forward 7 unknown #
vertex $-1 $210 $498 #
ellipse-curve $-1 0 0 -2.88761558885464 0 0 -1 1 0 0 1 I I #
loop $-1 $-1 $499 $135 #
coedge $-1 $336 $336 $214 $337 reversed $211 $-1 #
edge $-1 $500 0 $500 6.2831853071796004 $336 $501 forward 7 unknown #
vertex $-1 $215 $502 #
ellipse-curve $-1 0 0 -2.88761558885464 0 0 -1 1 0 0 1 I I #
loop $-1 $-1 $503 $140 #
coedge $-1 $341 $341 $219 $342 reversed $216 $-1 #
edge $-1 $504 0 $504 6.2831853071796004 $341 $505 forward 7 unknown #
vertex $-1 $220 $506 #
ellipse-curve $-1 0 0 -2.88761558885464 0 0 -1 1 0 0 1 I I #
face $-1 $507 $508 $48 $-1 $509 reversed single #
loop $-1 $-1 $510 $221 #
plane-surface $-1 -5.7281540171927929 0 0 1 0 0 0 0 -1 forward_v I I I I #
coedge $-1 $511 $356 $512 $513 forward $222 $-1 #
coedge $-1 $514 $224 $511 $515 forward $146 $-1 #
coedge $-1 $224 $514 $516 $517 forward $146 $-1 #
coedge $-1 $359 $358 $224 $352 reversed $360 $-1 #
edge $-1 $518 -167.98364207892087 $519 167.98364207892087 $351 $520 forward 7 unknown #
coedge $-1 $226 $225 $521 $522 forward $93 $-1 #
coedge $-1 $523 $524 $225 $355 reversed $508 $-1 #
edge $-1 $362 -5.7281540171927929 $525 5.7281540171927929 $354 $526 forward 7 unknown #
coedge $-1 $348 $527 $226 $357 reversed $222 $-1 #
edge $-1 $528 -5.7281540171927929 $361 5.7281540171927929 $356 $529 forward 7 unknown #
coedge $-1 $351 $227 $527 $530 forward $360 $-1 #
coedge $-1 $227 $351 $523 $531 reversed $360 $-1 #
loop $-1 $-1 $358 $507 #
vertex $-1 $228 $532 #
vertex $-1 $228 $533 #
straight-curve $-1 5.7281540171927929 0 83.991821039460433 0 1 0 I I #
loop $-1 $-1 $534 $149 #
coedge $-1 $365 $365 $232 $366 reversed $229 $-1 #
edge $-1 $535 0 $535 6.2831853071796004 $365 $536 forward 7 unknown #
vertex $-1 $233 $537 #
ellipse-curve $-1 0 0 -2.88761558885464 0 0 -1 1 0 0 1 I I #
loop $-1 $-1 $538 $154 #
coedge $-1 $370 $370 $237 $371 reversed $234 $-1 #
edge $-1 $539 0 $539 6.2831853071796004 $370 $540 forward 7 unknown #
vertex $-1 $238 $541 #
ellipse-curve $-1 0 0 -2.88761558885464 0 0 -1 1 0 0 1 I I #
loop $-1 $-1 $542 $159 #
coedge $-1 $375 $375 $242 $376 reversed $239 $-1 #
edge $-1 $543 0 $543 6.2831853071796004 $375 $544 forward 7 unknown #
vertex $-1 $243 $545 #
ellipse-curve $-1 0 0 -2.88761558885464 0 0 -1 1 0 0 1 I I #
face $-1 $-1 $259 $39 $-1 $546 reversed single #
loop $-1 $-1 $395 $244 #
plane-surface $-1 0 20.993213145270452 0 0 -1 0 0 0 -1 forward_v I I I I #
coedge $-1 $547 $393 $396 $548 forward $245 $-1 #
coedge $-1 $399 $247 $248 $387 reversed $165 $-1 #
coedge $-1 $393 $547 $247 $385 reversed $245 $-1 #
edge $-1 $400 -6.6457899702716272 $549 6.6457899702716272 $384 $550 forward 7 unknown #
coedge $-1 $249 $248 $547 $551 forward $105 $-1 #
edge $-1 $391 -41.995910519730216 $549 41.995910519730216 $383 $552 forward 7 unknown #
coedge $-1 $396 $395 $249 $389 reversed $380 $-1 #
edge $-1 $553 -41.995910519730216 $390 41.995910519730216 $388 $554 forward 7 unknown #
vertex $-1 $251 $555 #
vertex $-1 $402 $556 #
straight-curve $-1 41.995910519730216 0 -6.6457899702716272 0 -1 0 I I #
coedge $-1 $382 $384 $252 $394 reversed $245 $-1 #
edge $-1 $397 -20.993213145270452 $400 20.993213145270452 $393 $557 forward 7 unknown #
coedge $-1 $388 $253 $258 $403 forward $380 $-1 #
coedge $-1 $253 $388 $382 $548 reversed $380 $-1 #
vertex $-1 $254 $558 #
straight-curve $-1 0 20.993213145270452 6.6457899702716272 -1 0 0 I I #
coedge $-1 $255 $383 $257 $402 reversed $165 $-1 #
vertex $-1 $394 $559 #
straight-curve $-1 0 -20.993213145270452 6.6457899702716272 1 0 0 I I #
edge $-1 $260 -6.6457899702716272 $391 6.6457899702716272 $257 $560 forward 7 unknown #
edge $-1 $261 -6.6457899702716272 $390 6.6457899702716272 $258 $561 forward 7 unknown #
point $-1 41.995910519730216 -20.993213145270452 6.6457899702716272 #
point $-1 41.995910519730216 20.993213145270452 6.6457899702716272 #
face $-1 $-1 $278 $40 $-1 $562 reversed single #
loop $-1 $-1 $422 $263 #
plane-surface $-1 0 167.98364207892087 0 0 -1 0 0 0 -1 forward_v I I I I #
coedge $-1 $563 $420 $423 $564 forward $264 $-1 #
coedge $-1 $426 $266 $267 $414 reversed $173 $-1 #
coedge $-1 $420 $563 $266 $412 reversed $264 $-1 #
edge $-1 $427 -83.991821039460433 $565 83.991821039460433 $411 $566 forward 7 unknown #
coedge $-1 $268 $267 $563 $567 forward $109 $-1 #
edge $-1 $418 -7.294974312318077 $565 7.294974312318077 $410 $568 forward 7 unknown #
coedge $-1 $423 $422 $268 $416 reversed $407 $-1 #
edge $-1 $569 -7.294974312318077 $417 7.294974312318077 $415 $570 forward 7 unknown #
vertex $-1 $270 $571 #
vertex $-1 $429 $572 #
straight-curve $-1 7.294974312318077 0 -83.991821039460433 0 -1 0 I I #
coedge $-1 $409 $411 $271 $421 reversed $264 $-1 #
edge $-1 $424 -167.98364207892087 $427 167.98364207892087 $420 $573 forward 7 unknown #
coedge $-1 $415 $272 $277 $430 forward $407 $-1 #
coedge $-1 $272 $415 $409 $564 reversed $407 $-1 #
vertex $-1 $273 $574 #
straight-curve $-1 0 167.98364207892087 83.991821039460433 -1 0 0 I I #
coedge $-1 $274 $410 $276 $429 reversed $173 $-1 #
vertex $-1 $421 $575 #
straight-curve $-1 0 -167.98364207892087 83.991821039460433 1 0 0 I I #
edge $-1 $279 -83.991821039460433 $418 83.991821039460433 $276 $576 forward 7 unknown #
edge $-1 $280 -83.991821039460433 $417 83.991821039460433 $277 $577 forward 7 unknown #
point $-1 7.294974312318077 -167.98364207892087 83.991821039460433 #
point $-1 7.294974312318077 167.98364207892087 83.991821039460433 #
coedge $-1 $433 $433 $-1 $578 reversed $282 $-1 #
vertex $-1 $284 $579 #
ellipse-curve $-1 0 0 -0.25 0 0 -1 0.5 0 0 1 I I #
point $-1 0.5 0 -1.25 #
face $-1 $-1 $302 $42 $-1 $580 reversed single #
loop $-1 $-1 $453 $287 #
plane-surface $-1 0 167.98364207892087 0 0 -1 0 0 0 -1 forward_v I I I I #
coedge $-1 $581 $451 $454 $582 forward $288 $-1 #
coedge $-1 $457 $290 $291 $445 reversed $186 $-1 #
coedge $-1 $451 $581 $290 $443 reversed $288 $-1 #
edge $-1 $458 -83.991821039460433 $583 83.991821039460433 $442 $584 forward 7 unknown #
coedge $-1 $292 $291 $581 $585 forward $118 $-1 #
edge $-1 $449 -7.294974312318077 $583 7.294974312318077 $441 $586 forward 7 unknown #
coedge $-1 $454 $453 $292 $447 reversed $438 $-1 #
edge $-1 $587 -7.294974312318077 $448 7.294974312318077 $446 $588 forward 7 unknown #
vertex $-1 $294 $589 #
vertex $-1 $460 $590 #
straight-curve $-1 7.294974312318077 0 -83.991821039460433 0 -1 0 I I #
coedge $-1 $440 $442 $295 $452 reversed $288 $-1 #
edge $-1 $455 -167.98364207892087 $458 167.98364207892087 $451 $591 forward 7 unknown #
coedge $-1 $446 $296 $301 $461 forward $438 $-1 #
coedge $-1 $296 $446 $440 $582 reversed $438 $-1 #
vertex $-1 $297 $592 #
straight-curve $-1 0 167.98364207892087 83.991821039460433 -1 0 0 I I #
coedge $-1 $298 $441 $300 $460 reversed $186 $-1 #
vertex $-1 $452 $593 #
straight-curve $-1 0 -167.98364207892087 83.991821039460433 1 0 0 I I #
edge $-1 $303 -83.991821039460433 $449 83.991821039460433 $300 $594 forward 7 unknown #
edge $-1 $304 -83.991821039460433 $448 83.991821039460433 $301 $595 forward 7 unknown #
point $-1 7.294974312318077 -167.98364207892087 83.991821039460433 #
point $-1 7.294974312318077 167.98364207892087 83.991821039460433 #
coedge $-1 $464 $464 $-1 $596 reversed $306 $-1 #
vertex $-1 $308 $597 #
ellipse-curve $-1 0 0 -0.25 0 0 -1 0.5 0 0 1 I I #
point $-1 0.5 0 -1.25 #
face $-1 $-1 $326 $44 $-1 $598 reversed single #
loop $-1 $-1 $484 $311 #
plane-surface $-1 0 167.98364207892087 0 0 -1 0 0 0 -1 forward_v I I I I #
coedge $-1 $599 $482 $485 $600 forward $312 $-1 #
coedge $-1 $488 $314 $315 $476 reversed $199 $-1 #
coedge $-1 $482 $599 $314 $474 reversed $312 $-1 #
edge $-1 $489 -83.991821039460433 $601 83.991821039460433 $473 $602 forward 7 unknown #
coedge $-1 $316 $315 $599 $603 forward $127 $-1 #
edge $-1 $480 -5.7281540171927929 $601 5.7281540171927929 $472 $604 forward 7 unknown #
coedge $-1 $485 $484 $316 $478 reversed $469 $-1 #
edge $-1 $605 -5.7281540171927929 $479 5.7281540171927929 $477 $606 forward 7 unknown #
vertex $-1 $318 $607 #
vertex $-1 $491 $608 #
straight-curve $-1 5.7281540171927929 0 -83.991821039460433 0 -1 0 I I #
coedge $-1 $471 $473 $319 $483 reversed $312 $-1 #
edge $-1 $486 -167.98364207892087 $489 167.98364207892087 $482 $609 forward 7 unknown #
coedge $-1 $477 $320 $325 $492 forward $469 $-1 #
coedge $-1 $320 $477 $471 $600 reversed $469 $-1 #
vertex $-1 $321 $610 #
straight-curve $-1 0 167.98364207892087 83.991821039460433 -1 0 0 I I #
coedge $-1 $322 $472 $324 $491 reversed $199 $-1 #
vertex $-1 $483 $611 #
straight-curve $-1 0 -167.98364207892087 83.991821039460433 1 0 0 I I #
edge $-1 $327 -83.991821039460433 $480 83.991821039460433 $324 $612 forward 7 unknown #
edge $-1 $328 -83.991821039460433 $479 83.991821039460433 $325 $613 forward 7 unknown #
point $-1 5.7281540171927929 -167.98364207892087 83.991821039460433 #
point $-1 5.7281540171927929 167.98364207892087 83.991821039460433 #
coedge $-1 $495 $495 $-1 $614 reversed $330 $-1 #
vertex $-1 $332 $615 #
ellipse-curve $-1 0 0 -0.5 0 0 -1 1 0 0 1 I I #
point $-1 1 0 -2.88761558885464 #
coedge $-1 $499 $499 $-1 $616 reversed $335 $-1 #
vertex $-1 $337 $617 #
ellipse-curve $-1 0 0 -0.5 0 0 -1 1 0 0 1 I I #
point $-1 1 0 -2.88761558885464 #
coedge $-1 $503 $503 $-1 $618 reversed $340 $-1 #
vertex $-1 $342 $619 #
ellipse-curve $-1 0 0 -0.5 0 0 -1 1 0 0 1 I I #
point $-1 1 0 -2.88761558885464 #
face $-1 $-1 $360 $48 $-1 $620 reversed single #
loop $-1 $-1 $523 $345 #
plane-surface $-1 0 167.98364207892087 0 0 -1 0 0 0 -1 forward_v I I I I #
coedge $-1 $621 $521 $524 $622 forward $346 $-1 #
coedge $-1 $527 $348 $349 $515 reversed $222 $-1 #
coedge $-1 $521 $621 $348 $513 reversed $346 $-1 #
edge $-1 $528 -83.991821039460433 $623 83.991821039460433 $512 $624 forward 7 unknown #
coedge $-1 $350 $349 $621 $625 forward $146 $-1 #
edge $-1 $519 -5.7281540171927929 $623 5.7281540171927929 $511 $626 forward 7 unknown #
coedge $-1 $524 $523 $350 $517 reversed $508 $-1 #
edge $-1 $627 -5.7281540171927929 $518 5.7281540171927929 $516 $628 forward 7 unknown #
vertex $-1 $352 $629 #
vertex $-1 $530 $630 #
straight-curve $-1 5.7281540171927929 0 -83.991821039460433 0 -1 0 I I #
coedge $-1 $510 $512 $353 $522 reversed $346 $-1 #
edge $-1 $525 -167.98364207892087 $528 167.98364207892087 $521 $631 forward 7 unknown #
coedge $-1 $516 $354 $359 $531 forward $508 $-1 #
coedge $-1 $354 $516 $510 $622 reversed $508 $-1 #
vertex $-1 $355 $632 #
straight-curve $-1 0 167.98364207892087 83.991821039460433 -1 0 0 I I #
coedge $-1 $356 $511 $358 $530 reversed $222 $-1 #
vertex $-1 $522 $633 #
straight-curve $-1 0 -167.98364207892087 83.991821039460433 1 0 0 I I #
edge $-1 $361 -83.991821039460433 $519 83.991821039460433 $358 $634 forward 7 unknown #
edge $-1 $362 -83.991821039460433 $518 83.991821039460433 $359 $635 forward 7 unknown #
point $-1 5.7281540171927929 -167.98364207892087 83.991821039460433 #
point $-1 5.7281540171927929 167.98364207892087 83.991821039460433 #
coedge $-1 $534 $534 $-1 $636 reversed $364 $-1 #
vertex $-1 $366 $637 #
ellipse-curve $-1 0 0 -0.5 0 0 -1 1 0 0 1 I I #
point $-1 1 0 -2.88761558885464 #
coedge $-1 $538 $538 $-1 $638 reversed $369 $-1 #
vertex $-1 $371 $639 #
ellipse-curve $-1 0 0 -0.5 0 0 -1 1 0 0 1 I I #
point $-1 1 0 -2.88761558885464 #
coedge $-1 $542 $542 $-1 $640 reversed $374 $-1 #
vertex $-1 $376 $641 #
ellipse-curve $-1 0 0 -0.5 0 0 -1 1 0 0 1 I I #
point $-1 1 0 -2.88761558885464 #
plane-surface $-1 41.995910519730216 0 0 -1 0 0 0 0 1 forward_v I I I I #
coedge $-1 $384 $382 $386 $551 reversed $245 $-1 #
edge $-1 $397 -6.6457899702716272 $553 6.6457899702716272 $396 $642 forward 7 unknown #
vertex $-1 $551 $643 #
straight-curve $-1 -41.995910519730216 -20.993213145270452 0 0 0 -1 I I #
edge $-1 $549 -20.993213145270452 $553 20.993213145270452 $547 $644 forward 7 unknown #
straight-curve $-1 0 -20.993213145270452 -6.6457899702716272 -1 0 0 I I #
vertex $-1 $389 $645 #
straight-curve $-1 0 20.993213145270452 -6.6457899702716272 1 0 0 I I #
point $-1 41.995910519730216 20.993213145270452 -6.6457899702716272 #
point $-1 41.995910519730216 -20.993213145270452 -6.6457899702716272 #
straight-curve $-1 -41.995910519730216 0 6.6457899702716272 0 -1 0 I I #
point $-1 -41.995910519730216 20.993213145270452 6.6457899702716272 #
point $-1 -41.995910519730216 -20.993213145270452 6.6457899702716272 #
straight-curve $-1 41.995910519730216 -20.993213145270452 0 0 0 -1 I I #
straight-curve $-1 41.995910519730216 20.993213145270452 0 0 0 -1 I I #
plane-surface $-1 7.294974312318077 0 0 -1 0 0 0 0 1 forward_v I I I I #
coedge $-1 $411 $409 $413 $567 reversed $264 $-1 #
edge $-1 $424 -83.991821039460433 $569 83.991821039460433 $423 $646 forward 7 unknown #
vertex $-1 $567 $647 #
straight-curve $-1 -7.294974312318077 -167.98364207892087 0 0 0 -1 I I #
edge $-1 $565 -167.98364207892087 $569 167.98364207892087 $563 $648 forward 7 unknown #
straight-curve $-1 0 -167.98364207892087 -83.991821039460433 -1 0 0 I I #
vertex $-1 $416 $649 #
straight-curve $-1 0 167.98364207892087 -83.991821039460433 1 0 0 I I #
point $-1 7.294974312318077 167.98364207892087 -83.991821039460433 #
point $-1 7.294974312318077 -167.98364207892087 -83.991821039460433 #
straight-curve $-1 -7.294974312318077 0 83.991821039460433 0 -1 0 I I #
point $-1 -7.294974312318077 167.98364207892087 83.991821039460433 #
point $-1 -7.294974312318077 -167.98364207892087 83.991821039460433 #
straight-curve $-1 7.294974312318077 -167.98364207892087 0 0 0 -1 I I #
straight-curve $-1 7.294974312318077 167.98364207892087 0 0 0 -1 I I #
edge $-1 $650 1 $650 0 $433 $-1 forward 7 unknown #
point $-1 0.5 0 -0.25 #
plane-surface $-1 7.294974312318077 0 0 -1 0 0 0 0 1 forward_v I I I I #
coedge $-1 $442 $440 $444 $585 reversed $288 $-1 #
edge $-1 $455 -83.991821039460433 $587 83.991821039460433 $454 $651 forward 7 unknown #
vertex $-1 $585 $652 #
straight-curve $-1 -7.294974312318077 -167.98364207892087 0 0 0 -1 I I #
edge $-1 $583 -167.98364207892087 $587 167.98364207892087 $581 $653 forward 7 unknown #
straight-curve $-1 0 -167.98364207892087 -83.991821039460433 -1 0 0 I I #
vertex $-1 $447 $654 #
straight-curve $-1 0 167.98364207892087 -83.991821039460433 1 0 0 I I #
point $-1 7.294974312318077 167.98364207892087 -83.991821039460433 #
point $-1 7.294974312318077 -167.98364207892087 -83.991821039460433 #
straight-curve $-1 -7.294974312318077 0 83.991821039460433 0 -1 0 I I #
point $-1 -7.294974312318077 167.98364207892087 83.991821039460433 #
point $-1 -7.294974312318077 -167.98364207892087 83.991821039460433 #
straight-curve $-1 7.294974312318077 -167.98364207892087 0 0 0 -1 I I #
straight-curve $-1 7.294974312318077 167.98364207892087 0 0 0 -1 I I #
edge $-1 $655 1 $655 0 $464 $-1 forward 7 unknown #
point $-1 0.5 0 -0.25 #
plane-surface $-1 5.7281540171927929 0 0 -1 0 0 0 0 1 forward_v I I I I #
coedge $-1 $473 $471 $475 $603 reversed $312 $-1 #
edge $-1 $486 -83.991821039460433 $605 83.991821039460433 $485 $656 forward 7 unknown #
vertex $-1 $603 $657 #
straight-curve $-1 -5.7281540171927929 -167.98364207892087 0 0 0 -1 I I #
edge $-1 $601 -167.98364207892087 $605 167.98364207892087 $599 $658 forward 7 unknown #
straight-curve $-1 0 -167.98364207892087 -83.991821039460433 -1 0 0 I I #
vertex $-1 $478 $659 #
straight-curve $-1 0 167.98364207892087 -83.991821039460433 1 0 0 I I #
point $-1 5.7281540171927929 167.98364207892087 -83.991821039460433 #
point $-1 5.7281540171927929 -167.98364207892087 -83.991821039460433 #
straight-curve $-1 -5.7281540171927929 0 83.991821039460433 0 -1 0 I I #
point $-1 -5.7281540171927929 167.98364207892087 83.991821039460433 #
point $-1 -5.7281540171927929 -167.98364207892087 83.991821039460433 #
straight-curve $-1 5.7281540171927929 -167.98364207892087 0 0 0 -1 I I #
straight-curve $-1 5.7281540171927929 167.98364207892087 0 0 0 -1 I I #
edge $-1 $660 1 $660 0 $495 $-1 forward 7 unknown #
point $-1 1 0 -0.5 #
edge $-1 $661 1 $661 0 $499 $-1 forward 7 unknown #
point $-1 1 0 -0.5 #
edge $-1 $662 1 $662 0 $503 $-1 forward 7 unknown #
point $-1 1 0 -0.5 #
plane-surface $-1 5.7281540171927929 0 0 -1 0 0 0 0 1 forward_v I I I I #
coedge $-1 $512 $510 $514 $625 reversed $346 $-1 #
edge $-1 $525 -83.991821039460433 $627 83.991821039460433 $524 $663 forward 7 unknown #
vertex $-1 $625 $664 #
straight-curve $-1 -5.7281540171927929 -167.98364207892087 0 0 0 -1 I I #
edge $-1 $623 -167.98364207892087 $627 167.98364207892087 $621 $665 forward 7 unknown #
straight-curve $-1 0 -167.98364207892087 -83.991821039460433 -1 0 0 I I #
vertex $-1 $517 $666 #
straight-curve $-1 0 167.98364207892087 -83.991821039460433 1 0 0 I I #
point $-1 5.7281540171927929 167.98364207892087 -83.991821039460433 #
point $-1 5.7281540171927929 -167.98364207892087 -83.991821039460433 #
straight-curve $-1 -5.7281540171927929 0 83.991821039460433 0 -1 0 I I #
point $-1 -5.7281540171927929 167.98364207892087 83.991821039460433 #
point $-1 -5.7281540171927929 -167.98364207892087 83.991821039460433 #
straight-curve $-1 5.7281540171927929 -167.98364207892087 0 0 0 -1 I I #
straight-curve $-1 5.7281540171927929 167.98364207892087 0 0 0 -1 I I #
edge $-1 $667 1 $667 0 $534 $-1 forward 7 unknown #
point $-1 1 0 -0.5 #
edge $-1 $668 1 $668 0 $538 $-1 forward 7 unknown #
point $-1 1 0 -0.5 #
edge $-1 $669 1 $669 0 $542 $-1 forward 7 unknown #
point $-1 1 0 -0.5 #
straight-curve $-1 -41.995910519730216 20.993213145270452 0 0 0 -1 I I #
point $-1 -41.995910519730216 -20.993213145270452 -6.6457899702716272 #
straight-curve $-1 -41.995910519730216 0 -6.6457899702716272 0 1 0 I I #
point $-1 -41.995910519730216 20.993213145270452 -6.6457899702716272 #
straight-curve $-1 -7.294974312318077 167.98364207892087 0 0 0 -1 I I #
point $-1 -7.294974312318077 -167.98364207892087 -83.991821039460433 #
straight-curve $-1 -7.294974312318077 0 -83.991821039460433 0 1 0 I I #
point $-1 -7.294974312318077 167.98364207892087 -83.991821039460433 #
vertex $-1 $578 $670 #
straight-curve $-1 -7.294974312318077 167.98364207892087 0 0 0 -1 I I #
point $-1 -7.294974312318077 -167.98364207892087 -83.991821039460433 #
straight-curve $-1 -7.294974312318077 0 -83.991821039460433 0 1 0 I I #
point $-1 -7.294974312318077 167.98364207892087 -83.991821039460433 #
vertex $-1 $596 $671 #
straight-curve $-1 -5.7281540171927929 167.98364207892087 0 0 0 -1 I I #
point $-1 -5.7281540171927929 -167.98364207892087 -83.991821039460433 #
straight-curve $-1 -5.7281540171927929 0 -83.991821039460433 0 1 0 I I #
point $-1 -5.7281540171927929 167.98364207892087 -83.991821039460433 #
vertex $-1 $614 $672 #
vertex $-1 $616 $673 #
vertex $-1 $618 $674 #
straight-curve $-1 -5.7281540171927929 167.98364207892087 0 0 0 -1 I I #
point $-1 -5.7281540171927929 -167.98364207892087 -83.991821039460433 #
straight-curve $-1 -5.7281540171927929 0 -83.991821039460433 0 1 0 I I #
point $-1 -5.7281540171927929 167.98364207892087 -83.991821039460433 #
vertex $-1 $636 $675 #
vertex $-1 $638 $676 #
vertex $-1 $640 $677 #
point $-1 0 0 0.25 #
point $-1 0 0 0.25 #
point $-1 0 0 0.5 #
point $-1 0 0 0.5 #
point $-1 0 0 0.5 #
point $-1 0 0 0.5 #
point $-1 0 0 0.5 #
point $-1 0 0 0.5 #
End-of-ACIS-data 