500 0 18 0           
7 Unknown 11 ACIS 5.0 NT 24 Thu Mar 25 16:59:57 1999 
-1 9.9999999999999995e-007 1e-010 
body $-1 $18 $-1 $19 #
body $-1 $20 $-1 $21 #
body $-1 $22 $-1 $23 #
body $-1 $24 $-1 $25 #
body $-1 $26 $-1 $27 #
body $-1 $28 $-1 $29 #
body $-1 $30 $-1 $31 #
body $-1 $32 $-1 $33 #
body $-1 $34 $-1 $35 #
body $-1 $36 $-1 $37 #
body $-1 $38 $-1 $39 #
body $-1 $40 $-1 $41 #
body $-1 $42 $-1 $43 #
body $-1 $44 $-1 $45 #
body $-1 $46 $-1 $47 #
body $-1 $48 $-1 $49 #
body $-1 $50 $-1 $51 #
body $-1 $52 $-1 $53 #
lump $-1 $-1 $54 $0 #
transform $-1 1 0 0 0 1 0 0 0 1 53.40250862147893 33.362755630342512 10.982208273703341 1 rotate no_reflect no_shear #
lump $-1 $-1 $55 $1 #
transform $-1 1 0 0 0 1 0 0 0 1 53.40250862147893 33.362755630342512 10.982208273703341 1 rotate no_reflect no_shear #
lump $-1 $-1 $56 $2 #
transform $-1 1 0 0 0 1 0 0 0 1 53.40250862147893 33.362755630342512 10.982208273703341 1 rotate no_reflect no_shear #
lump $-1 $-1 $57 $3 #
transform $-1 1 0 0 0 1 0 0 0 1 53.40250862147893 33.362755630342512 10.982208273703341 1 rotate no_reflect no_shear #
lump $-1 $-1 $58 $4 #
transform $-1 1 0 0 0 1 0 0 0 1 53.40250862147893 33.362755630342512 10.982208273703341 1 rotate no_reflect no_shear #
lump $-1 $-1 $59 $5 #
transform $-1 1 0 0 0 1 0 0 0 1 53.40250862147893 33.362755630342512 10.982208273703341 1 rotate no_reflect no_shear #
lump $-1 $-1 $60 $6 #
transform $-1 1 0 0 0 1 0 0 0 1 53.40250862147893 33.362755630342512 10.982208273703341 1 rotate no_reflect no_shear #
lump $-1 $-1 $61 $7 #
transform $-1 1 0 0 0 1 0 0 0 1 53.40250862147893 33.362755630342512 10.982208273703341 1 rotate no_reflect no_shear #
lump $-1 $-1 $62 $8 #
transform $-1 1 0 0 0 1 0 0 0 1 53.40250862147893 33.362755630342512 10.982208273703341 1 rotate no_reflect no_shear #
lump $-1 $-1 $63 $9 #
transform $-1 1 0 0 0 1 0 0 0 1 53.40250862147893 33.362755630342512 10.982208273703341 1 rotate no_reflect no_shear #
lump $-1 $-1 $64 $10 #
transform $-1 1 0 0 0 1 0 0 0 1 53.40250862147893 33.362755630342512 10.982208273703341 1 rotate no_reflect no_shear #
lump $-1 $-1 $65 $11 #
transform $-1 1 0 0 0 1 0 0 0 1 53.40250862147893 33.362755630342512 10.982208273703341 1 rotate no_reflect no_shear #
lump $-1 $-1 $66 $12 #
transform $-1 1 0 0 0 1 0 0 0 1 53.40250862147893 33.362755630342512 10.982208273703341 1 rotate no_reflect no_shear #
lump $-1 $-1 $67 $13 #
transform $-1 1 0 0 0 1 0 0 0 1 53.40250862147893 33.362755630342512 10.982208273703341 1 rotate no_reflect no_shear #
lump $-1 $-1 $68 $14 #
transform $-1 1 0 0 0 1 0 0 0 1 53.40250862147893 33.362755630342512 10.982208273703341 1 rotate no_reflect no_shear #
lump $-1 $-1 $69 $15 #
transform $-1 1 0 0 0 1 0 0 0 1 53.40250862147893 33.362755630342512 10.982208273703341 1 rotate no_reflect no_shear #
lump $-1 $-1 $70 $16 #
transform $-1 1 0 0 0 1 0 0 0 1 53.40250862147893 33.362755630342512 10.982208273703341 1 rotate no_reflect no_shear #
lump $-1 $-1 $71 $17 #
transform $-1 1 0 0 0 1 0 0 0 1 53.40250862147893 33.362755630342512 10.982208273703341 1 rotate no_reflect no_shear #
shell $-1 $-1 $-1 $72 $-1 $18 #
shell $-1 $-1 $-1 $73 $-1 $20 #
shell $-1 $-1 $-1 $74 $-1 $22 #
shell $-1 $-1 $-1 $75 $-1 $24 #
shell $-1 $-1 $-1 $76 $-1 $26 #
shell $-1 $-1 $-1 $77 $-1 $28 #
shell $-1 $-1 $-1 $78 $-1 $30 #
shell $-1 $-1 $-1 $79 $-1 $32 #
shell $-1 $-1 $-1 $80 $-1 $34 #
shell $-1 $-1 $-1 $81 $-1 $36 #
shell $-1 $-1 $-1 $82 $-1 $38 #
shell $-1 $-1 $-1 $83 $-1 $40 #
shell $-1 $-1 $-1 $84 $-1 $42 #
shell $-1 $-1 $-1 $85 $-1 $44 #
shell $-1 $-1 $-1 $86 $-1 $46 #
shell $-1 $-1 $-1 $87 $-1 $48 #
shell $-1 $-1 $-1 $88 $-1 $50 #
shell $-1 $-1 $-1 $89 $-1 $52 #
face $-1 $90 $91 $54 $-1 $92 forward single #
face $-1 $93 $94 $55 $-1 $95 reversed single #
face $-1 $96 $97 $56 $-1 $98 reversed single #
face $-1 $99 $100 $57 $-1 $101 forward single #
face $-1 $102 $103 $58 $-1 $104 forward single #
face $-1 $105 $106 $59 $-1 $107 forward single #
face $-1 $108 $109 $60 $-1 $110 reversed single #
face $-1 $111 $112 $61 $-1 $113 forward single #
face $-1 $114 $115 $62 $-1 $116 forward single #
face $-1 $117 $118 $63 $-1 $119 forward single #
face $-1 $120 $121 $64 $-1 $122 reversed single #
face $-1 $123 $124 $65 $-1 $125 forward single #
face $-1 $126 $127 $66 $-1 $128 forward single #
face $-1 $129 $130 $67 $-1 $131 forward single #
face $-1 $132 $133 $68 $-1 $134 reversed single #
face $-1 $135 $136 $69 $-1 $137 forward single #
face $-1 $138 $139 $70 $-1 $140 forward single #
face $-1 $141 $142 $71 $-1 $143 forward single #
face $-1 $144 $145 $54 $-1 $146 reversed single #
loop $-1 $-1 $147 $72 #
plane-surface $-1 0 0 10.982208273703341 0 0 1 1 0 0 forward_v I I I I #
face $-1 $148 $149 $55 $-1 $150 reversed single #
loop $-1 $-1 $151 $73 #
plane-surface $-1 -50.175615618201597 -21.770454466822521 0 0 -1 0 0 0 -1 forward_v I I I I #
face $-1 $152 $153 $56 $-1 $154 reversed single #
loop $-1 $-1 $155 $74 #
plane-surface $-1 -140.8920577051025 -5.8194094321799312 65.46497672973517 0 1 0 -0.81915205242281985 0 0.57357642473473569 forward_v I I I I #
face $-1 $156 $157 $57 $-1 $158 forward single #
loop $-1 $159 $160 $75 #
cone-surface $-1 -50.188028893689072 -3.4962974293919444 7.0039819197930351 0.81915205242281985 0 -0.57357642473473569 0.57357642473473569 0 0.81915205242281985 1 I I 0 1 1 forward I I I I #
face $-1 $161 $162 $58 $-1 $163 forward single #
loop $-1 $164 $165 $76 #
cone-surface $-1 -50.188028893689072 -0.011629425209967792 7.0039819197930351 0.81915205242281985 0 -0.57357642473473569 0.57357642473473569 0 0.81915205242281985 1 I I 0 1 1 forward I I I I #
face $-1 $166 $167 $59 $-1 $168 forward single #
loop $-1 $169 $170 $77 #
cone-surface $-1 -50.188028893689072 3.4730385789720088 7.0039819197930351 0.81915205242281985 0 -0.57357642473473569 0.57357642473473569 0 0.81915205242281985 1 I I 0 1 1 forward I I I I #
face $-1 $171 $172 $60 $-1 $173 reversed single #
loop $-1 $-1 $174 $78 #
plane-surface $-1 -53.402508621478901 -0.011629425209967792 4.2041367957876048 -0.81915205242281985 0 0.57357642473473569 0.57357642473473569 0 0.81915205242281985 forward_v I I I I #
face $-1 $175 $176 $61 $-1 $177 forward single #
loop $-1 $178 $179 $79 #
cone-surface $-1 -50.188028893689072 8.1192625845479824 7.0039819197930351 0.81915205242281985 0 -0.57357642473473569 0.57357642473473569 0 0.81915205242281985 1 I I 0 1 1 forward I I I I #
face $-1 $180 $181 $62 $-1 $182 forward single #
loop $-1 $183 $184 $80 #
cone-surface $-1 -50.188028893689072 11.603930588729959 7.0039819197930351 0.81915205242281985 0 -0.57357642473473569 0.57357642473473569 0 0.81915205242281985 1 I I 0 1 1 forward I I I I #
face $-1 $185 $186 $63 $-1 $187 forward single #
loop $-1 $188 $189 $81 #
cone-surface $-1 -50.188028893689072 15.088598592911936 7.0039819197930351 0.81915205242281985 0 -0.57357642473473569 0.57357642473473569 0 0.81915205242281985 1 I I 0 1 1 forward I I I I #
face $-1 $190 $191 $64 $-1 $192 reversed single #
loop $-1 $-1 $193 $82 #
plane-surface $-1 79.631217771154937 5.7961505817599956 152.95452581335877 0 -1 0 -0.81915205242281985 0 -0.57357642473473569 forward_v I I I I #
face $-1 $194 $195 $65 $-1 $196 forward single #
loop $-1 $197 $198 $83 #
cone-surface $-1 50.188028893689072 -3.4962974293919444 7.0039819197930351 -0.81915205242281985 0 -0.57357642473473569 0.57357642473473569 0 -0.81915205242281985 1 I I 0 1 1 forward I I I I #
face $-1 $199 $200 $66 $-1 $201 forward single #
loop $-1 $202 $203 $84 #
cone-surface $-1 50.188028893689072 -0.011629425209967792 7.0039819197930351 -0.81915205242281985 0 -0.57357642473473569 0.57357642473473569 0 -0.81915205242281985 1 I I 0 1 1 forward I I I I #
face $-1 $204 $205 $67 $-1 $206 forward single #
loop $-1 $207 $208 $85 #
cone-surface $-1 50.188028893689072 3.4730385789720088 7.0039819197930351 -0.81915205242281985 0 -0.57357642473473569 0.57357642473473569 0 -0.81915205242281985 1 I I 0 1 1 forward I I I I #
face $-1 $209 $210 $68 $-1 $211 reversed single #
loop $-1 $-1 $212 $86 #
plane-surface $-1 79.631217771154937 17.411710595699923 152.95452581335877 0 -1 0 -0.81915205242281985 0 -0.57357642473473569 forward_v I I I I #
face $-1 $213 $214 $69 $-1 $215 forward single #
loop $-1 $216 $217 $87 #
cone-surface $-1 50.188028893689072 8.1192625845479824 7.0039819197930351 -0.81915205242281985 0 -0.57357642473473569 0.57357642473473569 0 -0.81915205242281985 1 I I 0 1 1 forward I I I I #
face $-1 $218 $219 $70 $-1 $220 forward single #
loop $-1 $221 $222 $88 #
cone-surface $-1 50.188028893689072 11.603930588729959 7.0039819197930351 -0.81915205242281985 0 -0.57357642473473569 0.57357642473473569 0 -0.81915205242281985 1 I I 0 1 1 forward I I I I #
face $-1 $223 $224 $71 $-1 $225 forward single #
loop $-1 $226 $227 $89 #
cone-surface $-1 50.188028893689072 15.088598592911936 7.0039819197930351 -0.81915205242281985 0 -0.57357642473473569 0.57357642473473569 0 -0.81915205242281985 1 I I 0 1 1 forward I I I I #
face $-1 $228 $229 $54 $-1 $230 reversed single #
loop $-1 $-1 $231 $90 #
plane-surface $-1 0 0 -10.982208273703341 0 0 1 1 0 0 forward_v I I I I #
coedge $-1 $232 $233 $234 $235 forward $91 $-1 #
face $-1 $236 $237 $55 $-1 $238 forward single #
loop $-1 $-1 $239 $93 #
plane-surface $-1 -46.948722614924264 -27.566605048582517 0 -1 0 0 0 0 1 forward_v I I I I #
coedge $-1 $240 $241 $242 $243 forward $94 $-1 #
face $-1 $244 $245 $56 $-1 $246 reversed single #
loop $-1 $-1 $247 $96 #
plane-surface $-1 -53.402508621478901 -0.011629425209967792 4.2041367957876048 -0.81915205242281985 0 0.57357642473473569 0.57357642473473569 0 0.81915205242281985 forward_v I I I I #
coedge $-1 $248 $249 $250 $251 reversed $97 $-1 #
face $-1 $-1 $252 $57 $-1 $253 forward single #
loop $-1 $254 $255 $99 #
cone-surface $-1 -48.937001439745501 -3.4962974293919444 6.1280030924732305 0.81915205242281985 0 -0.57357642473473569 0.28678821236736785 0 0.40957602621140993 1 I I -0.70710678118654746 0.70710678118654746 0.5 forward I I I I #
loop $-1 $-1 $256 $75 #
coedge $-1 $160 $160 $257 $258 reversed $100 $-1 #
face $-1 $-1 $259 $58 $-1 $260 forward single #
loop $-1 $261 $262 $102 #
cone-surface $-1 -48.937001439745501 -0.011629425209967792 6.1280030924732305 0.81915205242281985 0 -0.57357642473473569 0.28678821236736785 0 0.40957602621140993 1 I I -0.70710678118654746 0.70710678118654746 0.5 forward I I I I #
loop $-1 $-1 $263 $76 #
coedge $-1 $165 $165 $264 $265 reversed $103 $-1 #
face $-1 $-1 $266 $59 $-1 $267 forward single #
loop $-1 $268 $269 $105 #
cone-surface $-1 -48.937001439745501 3.4730385789720088 6.1280030924732305 0.81915205242281985 0 -0.57357642473473569 0.28678821236736785 0 0.40957602621140993 1 I I -0.70710678118654746 0.70710678118654746 0.5 forward I I I I #
loop $-1 $-1 $270 $77 #
coedge $-1 $170 $170 $271 $272 reversed $106 $-1 #
face $-1 $273 $274 $60 $-1 $275 reversed single #
loop $-1 $-1 $276 $108 #
plane-surface $-1 -140.8920577051025 17.411710595699923 65.46497672973517 0 -1 0 0.81915205242281985 0 -0.57357642473473569 forward_v I I I I #
coedge $-1 $277 $278 $279 $280 reversed $109 $-1 #
face $-1 $-1 $281 $61 $-1 $282 forward single #
loop $-1 $283 $284 $111 #
cone-surface $-1 -48.937001439745501 8.1192625845479824 6.1280030924732305 0.81915205242281985 0 -0.57357642473473569 0.28678821236736785 0 0.40957602621140993 1 I I -0.70710678118654746 0.70710678118654746 0.5 forward I I I I #
loop $-1 $-1 $285 $79 #
coedge $-1 $179 $179 $286 $287 reversed $112 $-1 #
face $-1 $-1 $288 $62 $-1 $289 forward single #
loop $-1 $290 $291 $114 #
cone-surface $-1 -48.937001439745501 11.603930588729959 6.1280030924732305 0.81915205242281985 0 -0.57357642473473569 0.28678821236736785 0 0.40957602621140993 1 I I -0.70710678118654746 0.70710678118654746 0.5 forward I I I I #
loop $-1 $-1 $292 $80 #
coedge $-1 $184 $184 $293 $294 reversed $115 $-1 #
face $-1 $-1 $295 $63 $-1 $296 forward single #
loop $-1 $297 $298 $117 #
cone-surface $-1 -48.937001439745501 15.088598592911936 6.1280030924732305 0.81915205242281985 0 -0.57357642473473569 0.28678821236736785 0 0.40957602621140993 1 I I -0.70710678118654746 0.70710678118654746 0.5 forward I I I I #
loop $-1 $-1 $299 $81 #
coedge $-1 $189 $189 $300 $301 reversed $118 $-1 #
face $-1 $302 $303 $64 $-1 $304 reversed single #
loop $-1 $-1 $305 $120 #
plane-surface $-1 -7.858331312468664 -0.011629425209967792 91.693685879411206 0.81915205242281985 0 0.57357642473473569 0.57357642473473569 0 -0.81915205242281985 forward_v I I I I #
coedge $-1 $306 $307 $308 $309 reversed $121 $-1 #
face $-1 $-1 $310 $65 $-1 $311 forward single #
loop $-1 $312 $313 $123 #
cone-surface $-1 48.937001439745501 -3.4962974293919444 6.1280030924732305 -0.81915205242281985 0 -0.57357642473473569 0.28678821236736785 0 -0.40957602621140993 1 I I -0.70710678118654746 0.70710678118654746 0.5 forward I I I I #
loop $-1 $-1 $314 $83 #
coedge $-1 $198 $198 $315 $316 reversed $124 $-1 #
face $-1 $-1 $317 $66 $-1 $318 forward single #
loop $-1 $319 $320 $126 #
cone-surface $-1 48.937001439745501 -0.011629425209967792 6.1280030924732305 -0.81915205242281985 0 -0.57357642473473569 0.28678821236736785 0 -0.40957602621140993 1 I I -0.70710678118654746 0.70710678118654746 0.5 forward I I I I #
loop $-1 $-1 $321 $84 #
coedge $-1 $203 $203 $322 $323 reversed $127 $-1 #
face $-1 $-1 $324 $67 $-1 $325 forward single #
loop $-1 $326 $327 $129 #
cone-surface $-1 48.937001439745501 3.4730385789720088 6.1280030924732305 -0.81915205242281985 0 -0.57357642473473569 0.28678821236736785 0 -0.40957602621140993 1 I I -0.70710678118654746 0.70710678118654746 0.5 forward I I I I #
loop $-1 $-1 $328 $85 #
coedge $-1 $208 $208 $329 $330 reversed $130 $-1 #
face $-1 $331 $332 $68 $-1 $333 forward single #
loop $-1 $-1 $334 $132 #
plane-surface $-1 -7.858331312468664 -0.011629425209967792 91.693685879411206 0.81915205242281985 0 0.57357642473473569 0.57357642473473569 0 -0.81915205242281985 forward_v I I I I #
coedge $-1 $335 $336 $337 $338 reversed $133 $-1 #
face $-1 $-1 $339 $69 $-1 $340 forward single #
loop $-1 $341 $342 $135 #
cone-surface $-1 48.937001439745501 8.1192625845479824 6.1280030924732305 -0.81915205242281985 0 -0.57357642473473569 0.28678821236736785 0 -0.40957602621140993 1 I I -0.70710678118654746 0.70710678118654746 0.5 forward I I I I #
loop $-1 $-1 $343 $87 #
coedge $-1 $217 $217 $344 $345 reversed $136 $-1 #
face $-1 $-1 $346 $70 $-1 $347 forward single #
loop $-1 $348 $349 $138 #
cone-surface $-1 48.937001439745501 11.603930588729959 6.1280030924732305 -0.81915205242281985 0 -0.57357642473473569 0.28678821236736785 0 -0.40957602621140993 1 I I -0.70710678118654746 0.70710678118654746 0.5 forward I I I I #
loop $-1 $-1 $350 $88 #
coedge $-1 $222 $222 $351 $352 reversed $139 $-1 #
face $-1 $-1 $353 $71 $-1 $354 forward single #
loop $-1 $355 $356 $141 #
cone-surface $-1 48.937001439745501 15.088598592911936 6.1280030924732305 -0.81915205242281985 0 -0.57357642473473569 0.28678821236736785 0 -0.40957602621140993 1 I I -0.70710678118654746 0.70710678118654746 0.5 forward I I I I #
loop $-1 $-1 $357 $89 #
coedge $-1 $227 $227 $358 $359 reversed $142 $-1 #
face $-1 $360 $361 $54 $-1 $362 reversed single #
loop $-1 $-1 $363 $144 #
plane-surface $-1 0 -33.362755630342512 0 0 1 0 0 0 1 forward_v I I I I #
coedge $-1 $364 $365 $366 $367 forward $145 $-1 #
coedge $-1 $368 $147 $369 $370 forward $91 $-1 #
coedge $-1 $147 $368 $371 $372 forward $91 $-1 #
coedge $-1 $373 $374 $147 $235 reversed $375 $-1 #
edge $-1 $376 -33.362755630342512 $377 33.362755630342512 $234 $378 forward 7 unknown #
face $-1 $379 $380 $55 $-1 $381 reversed single #
loop $-1 $-1 $382 $148 #
plane-surface $-1 0 0 10.982208273703341 0 0 1 1 0 0 forward_v I I I I #
coedge $-1 $383 $384 $385 $386 reversed $149 $-1 #
coedge $-1 $387 $151 $388 $389 reversed $94 $-1 #
coedge $-1 $151 $387 $390 $391 reversed $94 $-1 #
coedge $-1 $384 $383 $151 $243 reversed $149 $-1 #
edge $-1 $392 -10.982208273703341 $393 10.982208273703341 $242 $394 forward 7 unknown #
face $-1 $395 $396 $56 $-1 $397 reversed single #
loop $-1 $-1 $398 $152 #
plane-surface $-1 -140.8920577051025 5.7961505817599956 65.46497672973517 0 -1 0 0.81915205242281985 0 -0.57357642473473569 forward_v I I I I #
coedge $-1 $399 $400 $401 $402 reversed $153 $-1 #
coedge $-1 $249 $155 $403 $404 reversed $97 $-1 #
coedge $-1 $155 $248 $399 $405 reversed $97 $-1 #
coedge $-1 $401 $406 $155 $251 forward $407 $-1 #
edge $-1 $408 17.043520231072321 $409 21.789576831187745 $250 $410 forward 7 unknown #
loop $-1 $-1 $257 $156 #
plane-surface $-1 -53.402508621478901 -0.011629425209967792 4.2041367957876048 -0.81915205242281985 0 0.57357642473473569 0.57357642473473569 0 0.81915205242281985 forward_v I I I I #
loop $-1 $-1 $411 $99 #
coedge $-1 $255 $255 $256 $412 reversed $157 $-1 #
coedge $-1 $256 $256 $255 $412 forward $159 $-1 #
coedge $-1 $257 $257 $160 $258 forward $252 $-1 #
edge $-1 $413 0 $413 6.2831853071796004 $257 $414 forward 7 unknown #
loop $-1 $-1 $264 $161 #
plane-surface $-1 -53.402508621478901 -0.011629425209967792 4.2041367957876048 -0.81915205242281985 0 0.57357642473473569 0.57357642473473569 0 0.81915205242281985 forward_v I I I I #
loop $-1 $-1 $415 $102 #
coedge $-1 $262 $262 $263 $416 reversed $162 $-1 #
coedge $-1 $263 $263 $262 $416 forward $164 $-1 #
coedge $-1 $264 $264 $165 $265 forward $259 $-1 #
edge $-1 $417 0 $417 6.2831853071796004 $264 $418 forward 7 unknown #
loop $-1 $-1 $271 $166 #
plane-surface $-1 -53.402508621478901 -0.011629425209967792 4.2041367957876048 -0.81915205242281985 0 0.57357642473473569 0.57357642473473569 0 0.81915205242281985 forward_v I I I I #
loop $-1 $-1 $419 $105 #
coedge $-1 $269 $269 $270 $420 reversed $167 $-1 #
coedge $-1 $270 $270 $269 $420 forward $169 $-1 #
coedge $-1 $271 $271 $170 $272 forward $266 $-1 #
edge $-1 $421 0 $421 6.2831853071796004 $271 $422 forward 7 unknown #
face $-1 $423 $424 $60 $-1 $425 forward single #
loop $-1 $-1 $426 $171 #
plane-surface $-1 -53.40250862147893 0 0 1 0 0 0 0 -1 forward_v I I I I #
coedge $-1 $427 $428 $429 $430 reversed $172 $-1 #
coedge $-1 $431 $174 $432 $433 reversed $109 $-1 #
coedge $-1 $174 $431 $434 $435 reversed $109 $-1 #
coedge $-1 $436 $437 $174 $280 forward $424 $-1 #
edge $-1 $438 -4.9769468549031306e-014 $439 8.2744973388861354 $279 $440 forward 7 unknown #
loop $-1 $-1 $286 $175 #
plane-surface $-1 -53.402508621478901 -0.011629425209967792 4.2041367957876048 -0.81915205242281985 0 0.57357642473473569 0.57357642473473569 0 0.81915205242281985 forward_v I I I I #
loop $-1 $-1 $441 $111 #
coedge $-1 $284 $284 $285 $442 reversed $176 $-1 #
coedge $-1 $285 $285 $284 $442 forward $178 $-1 #
coedge $-1 $286 $286 $179 $287 forward $281 $-1 #
edge $-1 $443 0 $443 6.2831853071796004 $286 $444 forward 7 unknown #
loop $-1 $-1 $293 $180 #
plane-surface $-1 -53.402508621478901 -0.011629425209967792 4.2041367957876048 -0.81915205242281985 0 0.57357642473473569 0.57357642473473569 0 0.81915205242281985 forward_v I I I I #
loop $-1 $-1 $445 $114 #
coedge $-1 $291 $291 $292 $446 reversed $181 $-1 #
coedge $-1 $292 $292 $291 $446 forward $183 $-1 #
coedge $-1 $293 $293 $184 $294 forward $288 $-1 #
edge $-1 $447 0 $447 6.2831853071796004 $293 $448 forward 7 unknown #
loop $-1 $-1 $300 $185 #
plane-surface $-1 -53.402508621478901 -0.011629425209967792 4.2041367957876048 -0.81915205242281985 0 0.57357642473473569 0.57357642473473569 0 0.81915205242281985 forward_v I I I I #
loop $-1 $-1 $449 $117 #
coedge $-1 $298 $298 $299 $450 reversed $186 $-1 #
coedge $-1 $299 $299 $298 $450 forward $188 $-1 #
coedge $-1 $300 $300 $189 $301 forward $295 $-1 #
edge $-1 $451 0 $451 6.2831853071796004 $300 $452 forward 7 unknown #
face $-1 $453 $454 $64 $-1 $455 forward single #
loop $-1 $-1 $456 $190 #
plane-surface $-1 79.631217771154937 -5.8194094321799312 152.95452581335877 0 1 0 0.81915205242281985 0 0.57357642473473569 forward_v I I I I #
coedge $-1 $457 $458 $459 $460 reversed $191 $-1 #
coedge $-1 $307 $193 $461 $462 reversed $121 $-1 #
coedge $-1 $193 $306 $457 $463 reversed $121 $-1 #
coedge $-1 $459 $464 $193 $309 forward $454 $-1 #
edge $-1 $465 -13.586899735901461 $466 -8.8408431357860451 $308 $467 forward 7 unknown #
loop $-1 $-1 $315 $194 #
plane-surface $-1 -7.858331312468664 -0.011629425209967792 91.693685879411206 0.81915205242281985 0 0.57357642473473569 0.57357642473473569 0 -0.81915205242281985 forward_v I I I I #
loop $-1 $-1 $468 $123 #
coedge $-1 $313 $313 $314 $469 reversed $195 $-1 #
coedge $-1 $314 $314 $313 $469 forward $197 $-1 #
coedge $-1 $315 $315 $198 $316 forward $310 $-1 #
edge $-1 $470 0 $470 6.2831853071796004 $315 $471 forward 7 unknown #
loop $-1 $-1 $322 $199 #
plane-surface $-1 -7.858331312468664 -0.011629425209967792 91.693685879411206 0.81915205242281985 0 0.57357642473473569 0.57357642473473569 0 -0.81915205242281985 forward_v I I I I #
loop $-1 $-1 $472 $126 #
coedge $-1 $320 $320 $321 $473 reversed $200 $-1 #
coedge $-1 $321 $321 $320 $473 forward $202 $-1 #
coedge $-1 $322 $322 $203 $323 forward $317 $-1 #
edge $-1 $474 0 $474 6.2831853071796004 $322 $475 forward 7 unknown #
loop $-1 $-1 $329 $204 #
plane-surface $-1 -7.858331312468664 -0.011629425209967792 91.693685879411206 0.81915205242281985 0 0.57357642473473569 0.57357642473473569 0 -0.81915205242281985 forward_v I I I I #
loop $-1 $-1 $476 $129 #
coedge $-1 $327 $327 $328 $477 reversed $205 $-1 #
coedge $-1 $328 $328 $327 $477 forward $207 $-1 #
coedge $-1 $329 $329 $208 $330 forward $324 $-1 #
edge $-1 $478 0 $478 6.2831853071796004 $329 $479 forward 7 unknown #
face $-1 $480 $481 $68 $-1 $482 forward single #
loop $-1 $-1 $483 $209 #
plane-surface $-1 0 0 10.982208273703341 0 0 1 1 0 0 forward_v I I I I #
coedge $-1 $484 $485 $486 $487 reversed $210 $-1 #
coedge $-1 $336 $212 $488 $489 reversed $133 $-1 #
coedge $-1 $212 $335 $483 $490 reversed $133 $-1 #
coedge $-1 $491 $492 $212 $338 forward $493 $-1 #
edge $-1 $494 -72.273126110891809 $495 -65.49505463297605 $337 $496 forward 7 unknown #
loop $-1 $-1 $344 $213 #
plane-surface $-1 -7.858331312468664 -0.011629425209967792 91.693685879411206 0.81915205242281985 0 0.57357642473473569 0.57357642473473569 0 -0.81915205242281985 forward_v I I I I #
loop $-1 $-1 $497 $135 #
coedge $-1 $342 $342 $343 $498 reversed $214 $-1 #
coedge $-1 $343 $343 $342 $498 forward $216 $-1 #
coedge $-1 $344 $344 $217 $345 forward $339 $-1 #
edge $-1 $499 0 $499 6.2831853071796004 $344 $500 forward 7 unknown #
loop $-1 $-1 $351 $218 #
plane-surface $-1 -7.858331312468664 -0.011629425209967792 91.693685879411206 0.81915205242281985 0 0.57357642473473569 0.57357642473473569 0 -0.81915205242281985 forward_v I I I I #
loop $-1 $-1 $501 $138 #
coedge $-1 $349 $349 $350 $502 reversed $219 $-1 #
coedge $-1 $350 $350 $349 $502 forward $221 $-1 #
coedge $-1 $351 $351 $222 $352 forward $346 $-1 #
edge $-1 $503 0 $503 6.2831853071796004 $351 $504 forward 7 unknown #
loop $-1 $-1 $358 $223 #
plane-surface $-1 -7.858331312468664 -0.011629425209967792 91.693685879411206 0.81915205242281985 0 0.57357642473473569 0.57357642473473569 0 -0.81915205242281985 forward_v I I I I #
loop $-1 $-1 $505 $141 #
coedge $-1 $356 $356 $357 $506 reversed $224 $-1 #
coedge $-1 $357 $357 $356 $506 forward $226 $-1 #
coedge $-1 $358 $358 $227 $359 forward $353 $-1 #
edge $-1 $507 0 $507 6.2831853071796004 $358 $508 forward 7 unknown #
face $-1 $509 $510 $54 $-1 $511 reversed single #
loop $-1 $-1 $512 $228 #
plane-surface $-1 -53.40250862147893 0 0 1 0 0 0 0 -1 forward_v I I I I #
coedge $-1 $513 $371 $514 $515 forward $229 $-1 #
coedge $-1 $516 $231 $513 $517 forward $145 $-1 #
coedge $-1 $231 $516 $518 $519 forward $145 $-1 #
coedge $-1 $374 $373 $231 $367 reversed $375 $-1 #
edge $-1 $520 -33.362755630342512 $521 33.362755630342512 $366 $522 forward 7 unknown #
coedge $-1 $233 $232 $523 $524 forward $91 $-1 #
coedge $-1 $525 $526 $232 $370 reversed $510 $-1 #
edge $-1 $377 -53.40250862147893 $527 53.40250862147893 $369 $528 forward 7 unknown #
coedge $-1 $363 $529 $233 $372 reversed $229 $-1 #
edge $-1 $530 -53.40250862147893 $376 53.40250862147893 $371 $531 forward 7 unknown #
coedge $-1 $366 $234 $529 $532 forward $375 $-1 #
coedge $-1 $234 $366 $525 $533 reversed $375 $-1 #
loop $-1 $-1 $373 $509 #
vertex $-1 $235 $534 #
vertex $-1 $235 $535 #
straight-curve $-1 53.40250862147893 0 10.982208273703341 0 1 0 I I #
face $-1 $536 $537 $55 $-1 $538 reversed single #
loop $-1 $-1 $539 $236 #
plane-surface $-1 -53.40250862147893 0 0 1 0 0 0 0 -1 forward_v I I I I #
coedge $-1 $390 $540 $384 $541 forward $237 $-1 #
coedge $-1 $242 $239 $542 $543 reversed $149 $-1 #
coedge $-1 $239 $242 $382 $541 reversed $149 $-1 #
coedge $-1 $544 $545 $239 $386 forward $546 $-1 #
edge $-1 $547 -10.982208273703341 $548 10.982208273703341 $385 $549 forward 7 unknown #
coedge $-1 $241 $240 $539 $550 reversed $94 $-1 #
coedge $-1 $542 $551 $240 $389 forward $537 $-1 #
edge $-1 $552 -28.314700812378131 $393 -21.860914805823466 $388 $553 forward 7 unknown #
coedge $-1 $554 $382 $241 $391 forward $237 $-1 #
edge $-1 $392 21.860914805823466 $555 28.314700812378131 $390 $556 forward 7 unknown #
vertex $-1 $391 $557 #
vertex $-1 $389 $558 #
straight-curve $-1 -46.948722614924264 -21.770454466822521 0 0 0 -1 I I #
face $-1 $-1 $407 $56 $-1 $559 forward single #
loop $-1 $-1 $560 $244 #
plane-surface $-1 -53.40250862147893 0 0 1 0 0 0 0 -1 forward_v I I I I #
coedge $-1 $561 $562 $563 $564 reversed $245 $-1 #
coedge $-1 $565 $247 $249 $405 forward $153 $-1 #
coedge $-1 $247 $565 $561 $566 forward $153 $-1 #
coedge $-1 $563 $250 $247 $402 forward $407 $-1 #
edge $-1 $409 -5.8135947195749473 $567 5.8019652943649795 $401 $568 forward 7 unknown #
coedge $-1 $569 $570 $248 $404 forward $396 $-1 #
edge $-1 $571 -28.528351569080023 $408 -21.750280091164242 $403 $572 forward 7 unknown #
edge $-1 $409 -8.2744973388861354 $571 4.9769468549031306e-014 $249 $573 forward 7 unknown #
coedge $-1 $250 $563 $569 $574 forward $407 $-1 #
loop $-1 $-1 $563 $395 #
vertex $-1 $404 $575 #
vertex $-1 $251 $576 #
straight-curve $-1 -70.446028852551251 -5.8194094321799312 10.982208273703343 1 0 0 I I #
coedge $-1 $411 $411 $-1 $577 reversed $254 $-1 #
edge $-1 $578 0 $578 6.2831853071796004 $255 $579 forward 7 unknown #
vertex $-1 $258 $580 #
ellipse-curve $-1 -51.029480321421218 -3.4962974293919444 7.5931725347454586 -0.81915205242281985 0 0.57357642473473569 0.57357642473473569 0 0.81915205242281985 1 I I #
coedge $-1 $415 $415 $-1 $581 reversed $261 $-1 #
edge $-1 $582 0 $582 6.2831853071796004 $262 $583 forward 7 unknown #
vertex $-1 $265 $584 #
ellipse-curve $-1 -51.029480321421218 -0.011629425209967792 7.5931725347454586 -0.81915205242281985 0 0.57357642473473569 0.57357642473473569 0 0.81915205242281985 1 I I #
coedge $-1 $419 $419 $-1 $585 reversed $268 $-1 #
edge $-1 $586 0 $586 6.2831853071796004 $269 $587 forward 7 unknown #
vertex $-1 $272 $588 #
ellipse-curve $-1 -51.029480321421218 3.4730385789720088 7.5931725347454586 -0.81915205242281985 0 0.57357642473473569 0.57357642473473569 0 0.81915205242281985 1 I I #
face $-1 $-1 $589 $60 $-1 $590 forward single #
loop $-1 $-1 $436 $273 #
plane-surface $-1 -140.8920577051025 5.7961505817599956 65.46497672973517 0 -1 0 0.81915205242281985 0 -0.57357642473473569 forward_v I I I I #
coedge $-1 $432 $591 $428 $592 forward $274 $-1 #
coedge $-1 $428 $276 $431 $593 reversed $172 $-1 #
coedge $-1 $276 $427 $426 $592 reversed $172 $-1 #
coedge $-1 $594 $434 $276 $430 forward $589 $-1 #
edge $-1 $595 -21.789576831187745 $596 -17.043520231072321 $429 $597 forward 7 unknown #
coedge $-1 $278 $277 $427 $593 forward $109 $-1 #
coedge $-1 $598 $426 $277 $433 forward $274 $-1 #
edge $-1 $599 -17.417525308304906 $438 -5.8019652943649795 $432 $600 forward 7 unknown #
coedge $-1 $429 $601 $278 $435 forward $589 $-1 #
edge $-1 $439 5.8019652943649795 $595 17.417525308304906 $434 $602 forward 7 unknown #
coedge $-1 $437 $279 $601 $603 reversed $424 $-1 #
coedge $-1 $279 $436 $598 $604 reversed $424 $-1 #
vertex $-1 $433 $605 #
vertex $-1 $435 $606 #
straight-curve $-1 -53.402508621478901 5.7961505817599956 4.2041367957876048 0.57357642473473569 0 0.81915205242281985 I I #
coedge $-1 $441 $441 $-1 $607 reversed $283 $-1 #
edge $-1 $608 0 $608 6.2831853071796004 $284 $609 forward 7 unknown #
vertex $-1 $287 $610 #
ellipse-curve $-1 -51.029480321421218 8.1192625845479824 7.5931725347454586 -0.81915205242281985 0 0.57357642473473569 0.57357642473473569 0 0.81915205242281985 1 I I #
coedge $-1 $445 $445 $-1 $611 reversed $290 $-1 #
edge $-1 $612 0 $612 6.2831853071796004 $291 $613 forward 7 unknown #
vertex $-1 $294 $614 #
ellipse-curve $-1 -51.029480321421218 11.603930588729959 7.5931725347454586 -0.81915205242281985 0 0.57357642473473569 0.57357642473473569 0 0.81915205242281985 1 I I #
coedge $-1 $449 $449 $-1 $615 reversed $297 $-1 #
edge $-1 $616 0 $616 6.2831853071796004 $298 $617 forward 7 unknown #
vertex $-1 $301 $618 #
ellipse-curve $-1 -51.029480321421218 15.088598592911936 7.5931725347454586 -0.81915205242281985 0 0.57357642473473569 0.57357642473473569 0 0.81915205242281985 1 I I #
face $-1 $-1 $619 $64 $-1 $620 reversed single #
loop $-1 $-1 $308 $302 #
plane-surface $-1 0 0 10.982208273703341 0 0 1 1 0 0 forward_v I I I I #
coedge $-1 $621 $622 $623 $624 reversed $303 $-1 #
coedge $-1 $625 $305 $307 $463 forward $191 $-1 #
coedge $-1 $305 $625 $621 $626 forward $191 $-1 #
coedge $-1 $623 $308 $305 $460 forward $454 $-1 #
edge $-1 $466 -5.8019652943649795 $627 5.8135947195749473 $459 $628 forward 7 unknown #
coedge $-1 $629 $630 $306 $462 forward $619 $-1 #
edge $-1 $631 -72.273126110891809 $465 -65.49505463297605 $461 $632 forward 7 unknown #
edge $-1 $466 98.530519904071753 $631 106.80501724295792 $307 $633 forward 7 unknown #
coedge $-1 $308 $623 $629 $634 forward $454 $-1 #
vertex $-1 $309 $635 #
vertex $-1 $309 $636 #
straight-curve $-1 39.815608885577468 5.7961505817599956 10.982208273703336 -1 0 0 I I #
coedge $-1 $468 $468 $-1 $637 reversed $312 $-1 #
edge $-1 $638 0 $638 6.2831853071796004 $313 $639 forward 7 unknown #
vertex $-1 $316 $640 #
ellipse-curve $-1 51.029480321421218 -3.4962974293919444 7.5931725347454622 0.81915205242281985 0 0.57357642473473569 0.57357642473473569 0 -0.81915205242281985 1 I I #
coedge $-1 $472 $472 $-1 $641 reversed $319 $-1 #
edge $-1 $642 0 $642 6.2831853071796004 $320 $643 forward 7 unknown #
vertex $-1 $323 $644 #
ellipse-curve $-1 51.029480321421218 -0.011629425209967792 7.5931725347454622 0.81915205242281985 0 0.57357642473473569 0.57357642473473569 0 -0.81915205242281985 1 I I #
coedge $-1 $476 $476 $-1 $645 reversed $326 $-1 #
edge $-1 $646 0 $646 6.2831853071796004 $327 $647 forward 7 unknown #
vertex $-1 $330 $648 #
ellipse-curve $-1 51.029480321421218 3.4730385789720088 7.5931725347454622 0.81915205242281985 0 0.57357642473473569 0.57357642473473569 0 -0.81915205242281985 1 I I #
face $-1 $-1 $493 $68 $-1 $649 reversed single #
loop $-1 $-1 $650 $331 #
plane-surface $-1 79.631217771154937 5.7961505817599956 152.95452581335877 0 -1 0 -0.81915205242281985 0 -0.57357642473473569 forward_v I I I I #
coedge $-1 $651 $652 $336 $490 forward $332 $-1 #
coedge $-1 $488 $334 $651 $653 reversed $210 $-1 #
coedge $-1 $334 $488 $492 $654 reversed $210 $-1 #
coedge $-1 $655 $650 $334 $487 forward $481 $-1 #
edge $-1 $656 98.530519904071753 $657 106.80501724295792 $486 $658 forward 7 unknown #
coedge $-1 $485 $484 $335 $489 forward $210 $-1 #
edge $-1 $659 98.530519904071753 $494 106.80501724295792 $335 $660 forward 7 unknown #
edge $-1 $495 -13.586899735901461 $659 -8.8408431357860451 $483 $661 forward 7 unknown #
coedge $-1 $662 $337 $652 $663 reversed $493 $-1 #
coedge $-1 $337 $662 $485 $654 forward $493 $-1 #
loop $-1 $-1 $337 $480 #
vertex $-1 $338 $664 #
vertex $-1 $338 $665 #
straight-curve $-1 53.40250862147893 17.411710595699923 76.477262906679385 0 0 1 I I #
coedge $-1 $497 $497 $-1 $666 reversed $341 $-1 #
edge $-1 $667 0 $667 6.2831853071796004 $342 $668 forward 7 unknown #
vertex $-1 $345 $669 #
ellipse-curve $-1 51.029480321421218 8.1192625845479824 7.5931725347454622 0.81915205242281985 0 0.57357642473473569 0.57357642473473569 0 -0.81915205242281985 1 I I #
coedge $-1 $501 $501 $-1 $670 reversed $348 $-1 #
edge $-1 $671 0 $671 6.2831853071796004 $349 $672 forward 7 unknown #
vertex $-1 $352 $673 #
ellipse-curve $-1 51.029480321421218 11.603930588729959 7.5931725347454622 0.81915205242281985 0 0.57357642473473569 0.57357642473473569 0 -0.81915205242281985 1 I I #
coedge $-1 $505 $505 $-1 $674 reversed $355 $-1 #
edge $-1 $675 0 $675 6.2831853071796004 $356 $676 forward 7 unknown #
vertex $-1 $359 $677 #
ellipse-curve $-1 51.029480321421218 15.088598592911936 7.5931725347454622 0.81915205242281985 0 0.57357642473473569 0.57357642473473569 0 -0.81915205242281985 1 I I #
face $-1 $-1 $375 $54 $-1 $678 reversed single #
loop $-1 $-1 $525 $360 #
plane-surface $-1 0 33.362755630342512 0 0 -1 0 0 0 -1 forward_v I I I I #
coedge $-1 $679 $523 $526 $680 forward $361 $-1 #
coedge $-1 $529 $363 $364 $517 reversed $229 $-1 #
coedge $-1 $523 $679 $363 $515 reversed $361 $-1 #
edge $-1 $530 -10.982208273703341 $681 10.982208273703341 $514 $682 forward 7 unknown #
coedge $-1 $365 $364 $679 $683 forward $145 $-1 #
edge $-1 $521 -53.40250862147893 $681 53.40250862147893 $513 $684 forward 7 unknown #
coedge $-1 $526 $525 $365 $519 reversed $510 $-1 #
edge $-1 $685 -53.40250862147893 $520 53.40250862147893 $518 $686 forward 7 unknown #
vertex $-1 $367 $687 #
vertex $-1 $532 $688 #
straight-curve $-1 53.40250862147893 0 -10.982208273703341 0 -1 0 I I #
coedge $-1 $512 $514 $368 $524 reversed $361 $-1 #
edge $-1 $527 -33.362755630342512 $530 33.362755630342512 $523 $689 forward 7 unknown #
coedge $-1 $518 $369 $374 $533 forward $510 $-1 #
coedge $-1 $369 $518 $512 $680 reversed $510 $-1 #
vertex $-1 $370 $690 #
straight-curve $-1 0 33.362755630342512 10.982208273703341 -1 0 0 I I #
coedge $-1 $371 $513 $373 $532 reversed $229 $-1 #
vertex $-1 $524 $691 #
straight-curve $-1 0 -33.362755630342512 10.982208273703341 1 0 0 I I #
edge $-1 $376 -10.982208273703341 $521 10.982208273703341 $373 $692 forward 7 unknown #
edge $-1 $377 -10.982208273703341 $520 10.982208273703341 $374 $693 forward 7 unknown #
point $-1 53.40250862147893 -33.362755630342512 10.982208273703341 #
point $-1 53.40250862147893 33.362755630342512 10.982208273703341 #
face $-1 $-1 $546 $55 $-1 $694 reversed single #
loop $-1 $-1 $542 $379 #
plane-surface $-1 0 0 -10.982208273703341 0 0 1 1 0 0 forward_v I I I I #
coedge $-1 $695 $696 $387 $550 forward $380 $-1 #
coedge $-1 $382 $554 $544 $697 forward $237 $-1 #
edge $-1 $548 -19.579453106051254 $392 -7.9871519425312627 $382 $698 forward 7 unknown #
coedge $-1 $699 $388 $383 $543 forward $537 $-1 #
edge $-1 $393 7.9871519425312627 $547 19.579453106051254 $542 $700 forward 7 unknown #
coedge $-1 $701 $385 $540 $697 reversed $546 $-1 #
coedge $-1 $385 $701 $699 $702 reversed $546 $-1 #
loop $-1 $-1 $385 $536 #
vertex $-1 $702 $703 #
vertex $-1 $386 $704 #
straight-curve $-1 -46.948722614924264 -33.362755630342512 0 0 0 1 I I #
edge $-1 $555 -10.982208273703341 $552 10.982208273703341 $539 $705 forward 7 unknown #
coedge $-1 $388 $699 $695 $706 forward $537 $-1 #
vertex $-1 $389 $707 #
straight-curve $-1 -25.087807809100799 -21.770454466822521 -10.982208273703341 1 0 0 I I #
coedge $-1 $540 $390 $696 $708 forward $237 $-1 #
vertex $-1 $708 $709 #
straight-curve $-1 -25.087807809100799 -21.770454466822521 10.982208273703341 -1 0 0 I I #
point $-1 -46.948722614924264 -21.770454466822521 10.982208273703341 #
point $-1 -46.948722614924264 -21.770454466822521 -10.982208273703341 #
plane-surface $-1 0 0 10.982208273703341 0 0 1 1 0 0 forward_v I I I I #
coedge $-1 $570 $569 $562 $710 forward $396 $-1 #
coedge $-1 $562 $398 $400 $566 reversed $245 $-1 #
coedge $-1 $398 $561 $560 $710 reversed $245 $-1 #
coedge $-1 $406 $401 $398 $564 forward $407 $-1 #
edge $-1 $567 -21.789576831187745 $711 -17.043520231072321 $563 $712 forward 7 unknown #
coedge $-1 $400 $399 $570 $713 reversed $153 $-1 #
edge $-1 $714 -4.9769468549031306e-014 $567 8.2744973388861354 $561 $715 forward 7 unknown #
vertex $-1 $402 $716 #
straight-curve $-1 -48.656452021363513 -0.005814712604983896 10.982208273703341 0 1 0 I I #
coedge $-1 $560 $403 $406 $574 reversed $396 $-1 #
coedge $-1 $403 $560 $565 $713 forward $396 $-1 #
vertex $-1 $404 $717 #
straight-curve $-1 -53.40250862147893 -5.8194094321799312 32.732488364867585 0 0 1 I I #
straight-curve $-1 -53.402508621478901 -5.8194094321799312 4.2041367957876048 -0.57357642473473569 0 -0.81915205242281985 I I #
edge $-1 $711 -5.7961505817599956 $408 5.8194094321799312 $569 $718 forward 7 unknown #
point $-1 -53.40250862147893 -5.8194094321799312 10.982208273703341 #
point $-1 -48.656452021363506 -5.8194094321799312 10.982208273703341 #
edge $-1 $719 1 $719 0 $411 $-1 forward 7 unknown #
vertex $-1 $412 $720 #
ellipse-curve $-1 -49.346577465956912 -3.4962974293919444 6.4147913048405982 -0.81915205242281985 0 0.57357642473473569 0.57357642473473569 0 0.81915205242281985 1 I I #
point $-1 -50.455903896686493 -3.4962974293919444 8.4123245871682908 #
edge $-1 $721 1 $721 0 $415 $-1 forward 7 unknown #
vertex $-1 $416 $722 #
ellipse-curve $-1 -49.346577465956912 -0.011629425209967792 6.4147913048405982 -0.81915205242281985 0 0.57357642473473569 0.57357642473473569 0 0.81915205242281985 1 I I #
point $-1 -50.455903896686493 -0.011629425209967792 8.4123245871682908 #
edge $-1 $723 1 $723 0 $419 $-1 forward 7 unknown #
vertex $-1 $420 $724 #
ellipse-curve $-1 -49.346577465956912 3.4730385789720088 6.4147913048405982 -0.81915205242281985 0 0.57357642473473569 0.57357642473473569 0 0.81915205242281985 1 I I #
point $-1 -50.455903896686493 3.4730385789720088 8.4123245871682908 #
loop $-1 $-1 $429 $423 #
plane-surface $-1 0 0 10.982208273703341 0 0 1 1 0 0 forward_v I I I I #
coedge $-1 $426 $598 $594 $725 reversed $274 $-1 #
edge $-1 $596 21.750280091164242 $599 28.528351569080023 $426 $726 forward 7 unknown #
edge $-1 $599 -4.9769468549031306e-014 $595 8.2744973388861354 $427 $727 forward 7 unknown #
coedge $-1 $601 $429 $591 $725 forward $589 $-1 #
vertex $-1 $430 $728 #
vertex $-1 $725 $729 #
straight-curve $-1 -70.446028852551251 17.411710595699923 10.982208273703343 -1 0 0 I I #
coedge $-1 $591 $432 $437 $604 forward $274 $-1 #
vertex $-1 $592 $730 #
straight-curve $-1 -53.40250862147893 -0.005814712604983896 4.2041367957875604 0 -1 0 I I #
coedge $-1 $434 $594 $436 $603 forward $589 $-1 #
straight-curve $-1 -48.656452021363513 -0.005814712604983896 10.982208273703341 0 1 0 I I #
edge $-1 $731 17.043520231072321 $439 21.789576831187745 $601 $732 forward 7 unknown #
edge $-1 $438 -28.528351569080023 $731 -21.750280091164242 $598 $733 forward 7 unknown #
point $-1 -53.40250862147893 5.7961505817599956 4.2041367957875639 #
point $-1 -48.656452021363506 5.7961505817599956 10.982208273703341 #
edge $-1 $734 1 $734 0 $441 $-1 forward 7 unknown #
vertex $-1 $442 $735 #
ellipse-curve $-1 -49.346577465956912 8.1192625845479824 6.4147913048405982 -0.81915205242281985 0 0.57357642473473569 0.57357642473473569 0 0.81915205242281985 1 I I #
point $-1 -50.455903896686493 8.1192625845479824 8.4123245871682908 #
edge $-1 $736 1 $736 0 $445 $-1 forward 7 unknown #
vertex $-1 $446 $737 #
ellipse-curve $-1 -49.346577465956912 11.603930588729959 6.4147913048405982 -0.81915205242281985 0 0.57357642473473569 0.57357642473473569 0 0.81915205242281985 1 I I #
point $-1 -50.455903896686493 11.603930588729959 8.4123245871682908 #
edge $-1 $738 1 $738 0 $449 $-1 forward 7 unknown #
vertex $-1 $450 $739 #
ellipse-curve $-1 -49.346577465956912 15.088598592911936 6.4147913048405982 -0.81915205242281985 0 0.57357642473473569 0.57357642473473569 0 0.81915205242281985 1 I I #
point $-1 -50.455903896686493 15.088598592911936 8.4123245871682908 #
loop $-1 $-1 $461 $453 #
plane-surface $-1 53.40250862147893 0 0 -1 0 0 0 0 1 forward_v I I I I #
coedge $-1 $622 $456 $458 $626 reversed $303 $-1 #
coedge $-1 $456 $621 $740 $741 reversed $303 $-1 #
coedge $-1 $464 $459 $456 $624 forward $454 $-1 #
edge $-1 $627 8.8408431357860451 $742 13.586899735901461 $623 $743 forward 7 unknown #
coedge $-1 $458 $457 $630 $744 reversed $191 $-1 #
edge $-1 $745 -106.80501724295792 $627 -98.530519904071753 $621 $746 forward 7 unknown #
vertex $-1 $460 $747 #
straight-curve $-1 48.656452021363521 -0.005814712604983896 10.982208273703336 0 -1 0 I I #
coedge $-1 $740 $461 $464 $634 reversed $619 $-1 #
coedge $-1 $461 $740 $625 $744 forward $619 $-1 #
vertex $-1 $462 $748 #
straight-curve $-1 53.40250862147893 5.7961505817599956 76.477262906679385 0 0 1 I I #
straight-curve $-1 -7.858331312468664 5.7961505817599956 91.693685879411206 0.57357642473473569 0 -0.81915205242281985 I I #
edge $-1 $742 -5.8194094321799312 $465 5.7961505817599956 $629 $749 forward 7 unknown #
point $-1 53.40250862147893 5.7961505817599956 10.982208273703341 #
point $-1 48.656452021363513 5.7961505817599956 10.982208273703336 #
edge $-1 $750 1 $750 0 $468 $-1 forward 7 unknown #
vertex $-1 $469 $751 #
ellipse-curve $-1 49.346577465956912 -3.4962974293919444 6.4147913048405982 0.81915205242281985 0 0.57357642473473569 0.57357642473473569 0 -0.81915205242281985 1 I I #
point $-1 51.603056746155971 -3.4962974293919444 6.7740204823226513 #
edge $-1 $752 1 $752 0 $472 $-1 forward 7 unknown #
vertex $-1 $473 $753 #
ellipse-curve $-1 49.346577465956912 -0.011629425209967792 6.4147913048405982 0.81915205242281985 0 0.57357642473473569 0.57357642473473569 0 -0.81915205242281985 1 I I #
point $-1 51.603056746155971 -0.011629425209967792 6.7740204823226513 #
edge $-1 $754 1 $754 0 $476 $-1 forward 7 unknown #
vertex $-1 $477 $755 #
ellipse-curve $-1 49.346577465956912 3.4730385789720088 6.4147913048405982 0.81915205242281985 0 0.57357642473473569 0.57357642473473569 0 -0.81915205242281985 1 I I #
point $-1 51.603056746155971 3.4730385789720088 6.7740204823226513 #
plane-surface $-1 53.40250862147893 0 0 -1 0 0 0 0 1 forward_v I I I I #
coedge $-1 $486 $655 $756 $757 reversed $481 $-1 #
coedge $-1 $756 $483 $484 $653 forward $332 $-1 #
coedge $-1 $483 $756 $491 $663 forward $332 $-1 #
edge $-1 $659 -17.417525308304906 $656 -5.8019652943649795 $651 $758 forward 7 unknown #
edge $-1 $657 5.8019652943649795 $494 17.417525308304906 $492 $759 forward 7 unknown #
coedge $-1 $650 $486 $662 $760 reversed $481 $-1 #
vertex $-1 $653 $761 #
vertex $-1 $654 $762 #
straight-curve $-1 -7.858331312468664 5.7961505817599956 91.693685879411206 0.57357642473473569 0 -0.81915205242281985 I I #
vertex $-1 $490 $763 #
straight-curve $-1 -7.858331312468664 17.411710595699923 91.693685879411206 0.57357642473473569 0 -0.81915205242281985 I I #
straight-curve $-1 39.815608885577468 17.411710595699923 10.982208273703336 -1 0 0 I I #
coedge $-1 $492 $491 $655 $760 forward $493 $-1 #
edge $-1 $764 5.7961505817599956 $495 17.411710595699923 $491 $765 forward 7 unknown #
point $-1 53.40250862147893 17.411710595699923 4.2041367957875764 #
point $-1 53.40250862147893 17.411710595699923 10.982208273703341 #
edge $-1 $766 1 $766 0 $497 $-1 forward 7 unknown #
vertex $-1 $498 $767 #
ellipse-curve $-1 49.346577465956912 8.1192625845479824 6.4147913048405982 0.81915205242281985 0 0.57357642473473569 0.57357642473473569 0 -0.81915205242281985 1 I I #
point $-1 51.603056746155971 8.1192625845479824 6.7740204823226513 #
edge $-1 $768 1 $768 0 $501 $-1 forward 7 unknown #
vertex $-1 $502 $769 #
ellipse-curve $-1 49.346577465956912 11.603930588729959 6.4147913048405982 0.81915205242281985 0 0.57357642473473569 0.57357642473473569 0 -0.81915205242281985 1 I I #
point $-1 51.603056746155971 11.603930588729959 6.7740204823226513 #
edge $-1 $770 1 $770 0 $505 $-1 forward 7 unknown #
vertex $-1 $506 $771 #
ellipse-curve $-1 49.346577465956912 15.088598592911936 6.4147913048405982 0.81915205242281985 0 0.57357642473473569 0.57357642473473569 0 -0.81915205242281985 1 I I #
point $-1 51.603056746155971 15.088598592911936 6.7740204823226513 #
plane-surface $-1 53.40250862147893 0 0 -1 0 0 0 0 1 forward_v I I I I #
coedge $-1 $514 $512 $516 $683 reversed $361 $-1 #
edge $-1 $527 -10.982208273703341 $685 10.982208273703341 $526 $772 forward 7 unknown #
vertex $-1 $683 $773 #
straight-curve $-1 -53.40250862147893 -33.362755630342512 0 0 0 -1 I I #
edge $-1 $681 -33.362755630342512 $685 33.362755630342512 $679 $774 forward 7 unknown #
straight-curve $-1 0 -33.362755630342512 -10.982208273703341 -1 0 0 I I #
vertex $-1 $519 $775 #
straight-curve $-1 0 33.362755630342512 -10.982208273703341 1 0 0 I I #
point $-1 53.40250862147893 33.362755630342512 -10.982208273703341 #
point $-1 53.40250862147893 -33.362755630342512 -10.982208273703341 #
straight-curve $-1 -53.40250862147893 0 10.982208273703341 0 -1 0 I I #
point $-1 -53.40250862147893 33.362755630342512 10.982208273703341 #
point $-1 -53.40250862147893 -33.362755630342512 10.982208273703341 #
straight-curve $-1 53.40250862147893 -33.362755630342512 0 0 0 -1 I I #
straight-curve $-1 53.40250862147893 33.362755630342512 0 0 0 -1 I I #
plane-surface $-1 0 -33.362755630342512 0 0 1 0 0 0 1 forward_v I I I I #
coedge $-1 $776 $539 $551 $706 reversed $380 $-1 #
coedge $-1 $539 $776 $554 $708 reversed $380 $-1 #
edge $-1 $777 -53.40250862147893 $548 -46.948722614924264 $544 $778 forward 7 unknown #
straight-curve $-1 -46.948722614924264 -13.783302524291258 10.982208273703341 0 1 0 I I #
coedge $-1 $551 $542 $545 $702 forward $537 $-1 #
straight-curve $-1 -46.948722614924264 -13.783302524291258 -10.982208273703341 0 -1 0 I I #
coedge $-1 $545 $544 $776 $779 forward $546 $-1 #
edge $-1 $547 46.948722614924264 $780 53.40250862147893 $545 $781 forward 7 unknown #
point $-1 -46.948722614924264 -33.362755630342512 -10.982208273703341 #
point $-1 -46.948722614924264 -33.362755630342512 10.982208273703341 #
straight-curve $-1 -53.40250862147893 -21.770454466822521 0 0 0 -1 I I #
edge $-1 $780 -33.362755630342512 $552 -21.770454466822521 $695 $782 forward 7 unknown #
point $-1 -53.40250862147893 -21.770454466822521 -10.982208273703341 #
edge $-1 $555 21.770454466822521 $777 33.362755630342512 $696 $783 forward 7 unknown #
point $-1 -53.40250862147893 -21.770454466822521 10.982208273703341 #
edge $-1 $711 21.750280091164242 $714 28.528351569080023 $560 $784 forward 7 unknown #
vertex $-1 $574 $785 #
straight-curve $-1 -70.446028852551251 5.7961505817599956 10.982208273703343 -1 0 0 I I #
edge $-1 $714 -5.8019652943649795 $571 5.8135947195749473 $570 $786 forward 7 unknown #
vertex $-1 $713 $787 #
straight-curve $-1 -53.402508621478901 5.7961505817599956 4.2041367957876048 0.57357642473473569 0 0.81915205242281985 I I #
point $-1 -48.656452021363506 5.7961505817599956 10.982208273703341 #
point $-1 -53.40250862147893 -5.8194094321799312 4.2041367957875639 #
straight-curve $-1 -53.40250862147893 0 10.982208273703341 0 -1 0 I I #
vertex $-1 $577 $788 #
point $-1 -48.773001041222173 -3.4962974293919444 7.233943357263418 #
vertex $-1 $581 $789 #
point $-1 -48.773001041222173 -0.011629425209967792 7.233943357263418 #
vertex $-1 $585 $790 #
point $-1 -48.773001041222173 3.4730385789720088 7.233943357263418 #
edge $-1 $596 -17.411710595699923 $731 -5.7961505817599956 $591 $791 forward 7 unknown #
straight-curve $-1 -53.40250862147893 17.411710595699923 32.732488364867585 0 0 -1 I I #
straight-curve $-1 -53.402508621478901 17.411710595699923 4.2041367957876048 0.57357642473473569 0 0.81915205242281985 I I #
point $-1 -48.656452021363506 17.411710595699923 10.982208273703341 #
point $-1 -53.40250862147893 17.411710595699923 10.982208273703341 #
point $-1 -53.40250862147893 17.411710595699923 4.2041367957875639 #
vertex $-1 $604 $792 #
straight-curve $-1 -70.446028852551251 5.7961505817599956 10.982208273703343 1 0 0 I I #
straight-curve $-1 -53.40250862147893 5.7961505817599956 32.732488364867585 0 0 1 I I #
vertex $-1 $607 $793 #
point $-1 -48.773001041222173 8.1192625845479824 7.233943357263418 #
vertex $-1 $611 $794 #
point $-1 -48.773001041222173 11.603930588729959 7.233943357263418 #
vertex $-1 $615 $795 #
point $-1 -48.773001041222173 15.088598592911936 7.233943357263418 #
coedge $-1 $630 $629 $622 $741 forward $619 $-1 #
edge $-1 $742 65.49505463297605 $745 72.273126110891809 $740 $796 forward 7 unknown #
vertex $-1 $634 $797 #
straight-curve $-1 39.815608885577468 -5.8194094321799312 10.982208273703336 1 0 0 I I #
edge $-1 $745 -5.8135947195749473 $631 5.8019652943649795 $630 $798 forward 7 unknown #
vertex $-1 $744 $799 #
straight-curve $-1 -7.858331312468664 -5.8194094321799312 91.693685879411206 -0.57357642473473569 0 0.81915205242281985 I I #
point $-1 48.656452021363513 -5.8194094321799312 10.982208273703336 #
point $-1 53.40250862147893 5.7961505817599956 4.2041367957875764 #
straight-curve $-1 53.40250862147893 0 10.982208273703341 0 1 0 I I #
vertex $-1 $637 $800 #
point $-1 49.920153890691644 -3.4962974293919444 5.5956392524177785 #
vertex $-1 $641 $801 #
point $-1 49.920153890691644 -0.011629425209967792 5.5956392524177785 #
vertex $-1 $645 $802 #
point $-1 49.920153890691644 3.4730385789720088 5.5956392524177785 #
coedge $-1 $652 $651 $650 $757 forward $332 $-1 #
edge $-1 $656 8.8408431357860451 $764 13.586899735901461 $756 $803 forward 7 unknown #
straight-curve $-1 48.656452021363521 -0.005814712604983896 10.982208273703336 0 -1 0 I I #
straight-curve $-1 53.402508621478937 -0.005814712604983896 4.2041367957875622 0 1 0 I I #
edge $-1 $764 65.49505463297605 $657 72.273126110891809 $662 $804 forward 7 unknown #
point $-1 48.656452021363513 5.7961505817599956 10.982208273703336 #
point $-1 53.40250862147893 5.7961505817599956 4.2041367957875764 #
point $-1 48.656452021363513 17.411710595699923 10.982208273703336 #
vertex $-1 $663 $805 #
straight-curve $-1 53.40250862147893 0 10.982208273703341 0 1 0 I I #
vertex $-1 $666 $806 #
point $-1 49.920153890691644 8.1192625845479824 5.5956392524177785 #
vertex $-1 $670 $807 #
point $-1 49.920153890691644 11.603930588729959 5.5956392524177785 #
vertex $-1 $674 $808 #
point $-1 49.920153890691644 15.088598592911936 5.5956392524177785 #
straight-curve $-1 -53.40250862147893 33.362755630342512 0 0 0 -1 I I #
point $-1 -53.40250862147893 -33.362755630342512 -10.982208273703341 #
straight-curve $-1 -53.40250862147893 0 -10.982208273703341 0 1 0 I I #
point $-1 -53.40250862147893 33.362755630342512 -10.982208273703341 #
coedge $-1 $696 $695 $701 $779 reversed $380 $-1 #
vertex $-1 $708 $809 #
straight-curve $-1 0 -33.362755630342512 10.982208273703341 1 0 0 I I #
edge $-1 $777 -10.982208273703341 $780 10.982208273703341 $776 $810 forward 7 unknown #
vertex $-1 $706 $811 #
straight-curve $-1 0 -33.362755630342512 -10.982208273703341 -1 0 0 I I #
straight-curve $-1 -53.40250862147893 0 -10.982208273703341 0 1 0 I I #
straight-curve $-1 -53.40250862147893 0 10.982208273703341 0 -1 0 I I #
straight-curve $-1 -53.40250862147893 5.7961505817599956 32.732488364867585 0 0 -1 I I #
point $-1 -53.40250862147893 5.7961505817599956 10.982208273703341 #
straight-curve $-1 -53.40250862147893 -0.005814712604983896 4.2041367957875604 0 -1 0 I I #
point $-1 -53.40250862147893 5.7961505817599956 4.2041367957875639 #
point $-1 -48.52742541353409 -3.4962974293919444 5.8412148801058628 #
point $-1 -48.52742541353409 -0.011629425209967792 5.8412148801058628 #
point $-1 -48.52742541353409 3.4730385789720088 5.8412148801058628 #
straight-curve $-1 -53.40250862147893 0 10.982208273703341 0 -1 0 I I #
point $-1 -53.40250862147893 5.7961505817599956 10.982208273703341 #
point $-1 -48.52742541353409 8.1192625845479824 5.8412148801058628 #
point $-1 -48.52742541353409 11.603930588729959 5.8412148801058628 #
point $-1 -48.52742541353409 15.088598592911936 5.8412148801058628 #
straight-curve $-1 53.40250862147893 -5.8194094321799312 76.477262906679385 0 0 -1 I I #
point $-1 53.40250862147893 -5.8194094321799312 10.982208273703341 #
straight-curve $-1 53.402508621478937 -0.005814712604983896 4.2041367957875622 0 1 0 I I #
point $-1 53.40250862147893 -5.8194094321799312 4.2041367957875764 #
point $-1 48.52742541353409 -3.4962974293919444 5.8412148801058628 #
point $-1 48.52742541353409 -0.011629425209967792 5.8412148801058628 #
point $-1 48.52742541353409 3.4730385789720088 5.8412148801058628 #
straight-curve $-1 39.815608885577468 5.7961505817599956 10.982208273703336 1 0 0 I I #
straight-curve $-1 53.40250862147893 5.7961505817599956 76.477262906679385 0 0 -1 I I #
point $-1 53.40250862147893 5.7961505817599956 10.982208273703341 #
point $-1 48.52742541353409 8.1192625845479824 5.8412148801058628 #
point $-1 48.52742541353409 11.603930588729959 5.8412148801058628 #
point $-1 48.52742541353409 15.088598592911936 5.8412148801058628 #
point $-1 -53.40250862147893 -33.362755630342512 10.982208273703341 #
straight-curve $-1 -53.40250862147893 -33.362755630342512 0 0 0 -1 I I #
point $-1 -53.40250862147893 -33.362755630342512 -10.982208273703341 #
End-of-ACIS-data 