500 0 9 0           
7 Unknown 11 ACIS 5.0 NT 24 Fri Mar 26 15:28:46 1999 
-1 9.9999999999999995e-007 1e-010 
body $-1 $9 $-1 $10 #
body $-1 $11 $-1 $12 #
body $-1 $13 $-1 $14 #
body $-1 $15 $-1 $16 #
body $-1 $17 $-1 $18 #
body $-1 $19 $-1 $20 #
body $-1 $21 $-1 $22 #
body $-1 $23 $-1 $24 #
body $-1 $25 $-1 $26 #
lump $-1 $-1 $27 $0 #
transform $-1 1 0 0 0 1 0 0 0 1 51.781365398113955 32.55049922779844 8.8766593203478656 1 rotate no_reflect no_shear #
lump $-1 $-1 $28 $1 #
transform $-1 1 0 0 0 1 0 0 0 1 51.781365398113955 32.55049922779844 8.8766593203478656 1 rotate no_reflect no_shear #
lump $-1 $-1 $29 $2 #
transform $-1 1 0 0 0 1 0 0 0 1 51.781365398113955 32.55049922779844 8.8766593203478656 1 rotate no_reflect no_shear #
lump $-1 $-1 $30 $3 #
transform $-1 1 0 0 0 1 0 0 0 1 51.781365398113955 32.55049922779844 8.8766593203478656 1 rotate no_reflect no_shear #
lump $-1 $-1 $31 $4 #
transform $-1 1 0 0 0 1 0 0 0 1 51.781365398113955 32.55049922779844 8.8766593203478656 1 rotate no_reflect no_shear #
lump $-1 $-1 $32 $5 #
transform $-1 1 0 0 0 1 0 0 0 1 51.781365398113955 32.55049922779844 8.8766593203478656 1 rotate no_reflect no_shear #
lump $-1 $-1 $33 $6 #
transform $-1 1 0 0 0 1 0 0 0 1 51.781365398113955 32.55049922779844 8.8766593203478656 1 rotate no_reflect no_shear #
lump $-1 $-1 $34 $7 #
transform $-1 1 0 0 0 1 0 0 0 1 51.781365398113955 32.55049922779844 8.8766593203478656 1 rotate no_reflect no_shear #
lump $-1 $-1 $35 $8 #
transform $-1 1 0 0 0 1 0 0 0 1 51.781365398113955 32.55049922779844 8.8766593203478656 1 rotate no_reflect no_shear #
shell $-1 $-1 $-1 $36 $-1 $9 #
shell $-1 $-1 $-1 $37 $-1 $11 #
shell $-1 $-1 $-1 $38 $-1 $13 #
shell $-1 $-1 $-1 $39 $-1 $15 #
shell $-1 $-1 $-1 $40 $-1 $17 #
shell $-1 $-1 $-1 $41 $-1 $19 #
shell $-1 $-1 $-1 $42 $-1 $21 #
shell $-1 $-1 $-1 $43 $-1 $23 #
shell $-1 $-1 $-1 $44 $-1 $25 #
face $-1 $45 $46 $27 $-1 $47 forward single #
face $-1 $48 $49 $28 $-1 $50 forward single #
face $-1 $51 $52 $29 $-1 $53 reversed single #
face $-1 $54 $55 $30 $-1 $56 forward single #
face $-1 $57 $58 $31 $-1 $59 forward single #
face $-1 $60 $61 $32 $-1 $62 reversed single #
face $-1 $63 $64 $33 $-1 $65 forward single #
face $-1 $66 $67 $34 $-1 $68 forward single #
face $-1 $69 $70 $35 $-1 $71 forward single #
face $-1 $72 $73 $27 $-1 $74 reversed single #
loop $-1 $-1 $75 $36 #
plane-surface $-1 0 0 8.8766593203478656 0 0 1 1 0 0 forward_v I I I I #
face $-1 $76 $77 $28 $-1 $78 reversed single #
loop $-1 $-1 $79 $37 #
plane-surface $-1 0 -28.175996884817632 -4.3201475084369445 0 0 1 1 0 0 forward_v I I I I #
face $-1 $80 $81 $29 $-1 $82 reversed single #
loop $-1 $-1 $83 $38 #
plane-surface $-1 -136.61498888435602 -8.289058444220613 60.145609777843717 0 1 0 -0.81915205242281985 0 0.57357642473473569 forward_v I I I I #
face $-1 $84 $85 $30 $-1 $86 forward single #
loop $-1 $87 $88 $39 #
cone-surface $-1 -48.524678944785158 -6.3863951383920643 4.5237759037952738 0.81915205242281985 0 -0.57357642473473569 0.14339410618368392 0 0.20478801310570496 1 I I 0 1 0.25 forward I I I I #
face $-1 $89 $90 $31 $-1 $91 forward single #
loop $-1 $92 $93 $40 #
cone-surface $-1 -48.524678944785158 -3.5324001796492404 4.5237759037952738 0.81915205242281985 0 -0.57357642473473569 0.14339410618368392 0 0.20478801310570496 1 I I 0 1 0.25 forward I I I I #
face $-1 $94 $95 $32 $-1 $96 reversed single #
loop $-1 $-1 $97 $41 #
plane-surface $-1 33.932404912842806 21.303890137918586 148.75437784679838 0 -1 0 -0.61566148304635926 0 -0.78801074757464917 forward_v I I I I #
face $-1 $98 $99 $33 $-1 $100 forward single #
loop $-1 $101 $102 $42 #
cone-surface $-1 47.748483171751609 11.189911378891168 5.4669343336796414 -0.61566148304635926 0 -0.78801074757464917 0.78801074757464917 0 -0.61566148304635926 1 I I 0 1 1 forward I I I I #
face $-1 $103 $104 $34 $-1 $105 forward single #
loop $-1 $106 $107 $43 #
cone-surface $-1 47.748483171751609 14.98265341352645 5.4669343336796414 -0.61566148304635926 0 -0.78801074757464917 0.78801074757464917 0 -0.61566148304635926 1 I I 0 1 1 forward I I I I #
face $-1 $108 $109 $35 $-1 $110 forward single #
loop $-1 $111 $112 $44 #
cone-surface $-1 47.748483171751609 18.775395448161731 5.4669343336796414 -0.61566148304635926 0 -0.78801074757464917 0.78801074757464917 0 -0.61566148304635926 1 I I 0 1 1 forward I I I I #
face $-1 $113 $114 $27 $-1 $115 reversed single #
loop $-1 $-1 $116 $45 #
plane-surface $-1 0 0 -8.8766593203478656 0 0 1 1 0 0 forward_v I I I I #
coedge $-1 $117 $118 $119 $120 forward $46 $-1 #
face $-1 $121 $122 $28 $-1 $123 reversed single #
loop $-1 $-1 $124 $48 #
plane-surface $-1 0 -28.175996884817632 -7.3201475084369445 0 0 1 1 0 0 forward_v I I I I #
coedge $-1 $125 $126 $127 $128 reversed $49 $-1 #
face $-1 $129 $130 $29 $-1 $131 reversed single #
loop $-1 $-1 $132 $51 #
plane-surface $-1 -51.781365398113962 -4.9593976590206523 0.74446891197740683 -0.81915205242281985 0 0.57357642473473569 0.57357642473473569 0 0.81915205242281985 forward_v I I I I #
coedge $-1 $133 $134 $135 $136 reversed $52 $-1 #
face $-1 $-1 $137 $30 $-1 $138 forward single #
loop $-1 $139 $140 $54 #
cone-surface $-1 -48.012708912020898 -6.3863951383920643 4.1652906383360637 0.81915205242281985 0 -0.57357642473473569 0.071697053091841961 0 0.10239400655285248 1 I I -0.70710678118654746 0.70710678118654746 0.125 forward I I I I #
loop $-1 $-1 $141 $39 #
coedge $-1 $88 $88 $142 $143 reversed $55 $-1 #
face $-1 $-1 $144 $31 $-1 $145 forward single #
loop $-1 $146 $147 $57 #
cone-surface $-1 -48.012708912020898 -3.5324001796492404 4.1652906383360637 0.81915205242281985 0 -0.57357642473473569 0.071697053091841961 0 0.10239400655285248 1 I I -0.70710678118654746 0.70710678118654746 0.125 forward I I I I #
loop $-1 $-1 $148 $40 #
coedge $-1 $93 $93 $149 $150 reversed $58 $-1 #
face $-1 $151 $152 $32 $-1 $153 reversed single #
loop $-1 $-1 $154 $60 #
plane-surface $-1 -29.827179517493732 14.98265341352645 67.145832931190682 0.61566148304635926 0 0.78801074757464917 0.78801074757464917 0 -0.61566148304635926 forward_v I I I I #
coedge $-1 $155 $156 $157 $158 reversed $61 $-1 #
face $-1 $-1 $159 $33 $-1 $160 forward single #
loop $-1 $161 $162 $63 #
cone-surface $-1 46.921472825762443 11.189911378891168 4.408409382970941 -0.61566148304635926 0 -0.78801074757464917 0.39400537378732459 0 -0.30783074152317963 1 I I -0.70710678118654746 0.70710678118654746 0.5 forward I I I I #
loop $-1 $-1 $163 $42 #
coedge $-1 $102 $102 $164 $165 reversed $64 $-1 #
face $-1 $-1 $166 $34 $-1 $167 forward single #
loop $-1 $168 $169 $66 #
cone-surface $-1 46.921472825762443 14.98265341352645 4.408409382970941 -0.61566148304635926 0 -0.78801074757464917 0.39400537378732459 0 -0.30783074152317963 1 I I -0.70710678118654746 0.70710678118654746 0.5 forward I I I I #
loop $-1 $-1 $170 $43 #
coedge $-1 $107 $107 $171 $172 reversed $67 $-1 #
face $-1 $-1 $173 $35 $-1 $174 forward single #
loop $-1 $175 $176 $69 #
cone-surface $-1 46.921472825762443 18.775395448161731 4.408409382970941 -0.61566148304635926 0 -0.78801074757464917 0.39400537378732459 0 -0.30783074152317963 1 I I -0.70710678118654746 0.70710678118654746 0.5 forward I I I I #
loop $-1 $-1 $177 $44 #
coedge $-1 $112 $112 $178 $179 reversed $70 $-1 #
face $-1 $180 $181 $27 $-1 $182 reversed single #
loop $-1 $-1 $183 $72 #
plane-surface $-1 0 -32.55049922779844 0 0 1 0 0 0 1 forward_v I I I I #
coedge $-1 $184 $185 $186 $187 forward $73 $-1 #
coedge $-1 $188 $75 $189 $190 forward $46 $-1 #
coedge $-1 $75 $188 $191 $192 forward $46 $-1 #
coedge $-1 $193 $194 $75 $120 reversed $195 $-1 #
edge $-1 $196 -32.55049922779844 $197 32.55049922779844 $119 $198 forward 7 unknown #
face $-1 $199 $200 $28 $-1 $201 reversed single #
loop $-1 $-1 $202 $76 #
plane-surface $-1 0 -23.801494541836824 -5.8201475084369445 0 -1 0 0 0 -1 forward_v I I I I #
coedge $-1 $203 $204 $205 $206 reversed $77 $-1 #
coedge $-1 $207 $79 $208 $209 forward $49 $-1 #
coedge $-1 $79 $207 $210 $211 reversed $49 $-1 #
coedge $-1 $212 $213 $79 $128 forward $214 $-1 #
edge $-1 $215 9.7134960994280082 $216 18.462500785389622 $127 $217 forward 7 unknown #
face $-1 $218 $219 $29 $-1 $220 reversed single #
loop $-1 $-1 $221 $80 #
plane-surface $-1 -136.61498888435602 -1.6297368738206917 60.145609777843717 0 -1 0 0.81915205242281985 0 -0.57357642473473569 forward_v I I I I #
coedge $-1 $222 $223 $224 $225 reversed $81 $-1 #
coedge $-1 $134 $83 $226 $227 reversed $52 $-1 #
coedge $-1 $83 $133 $222 $228 reversed $52 $-1 #
coedge $-1 $224 $229 $83 $136 forward $230 $-1 #
edge $-1 $231 16.526129044064056 $232 22.220349898298821 $135 $233 forward 7 unknown #
loop $-1 $-1 $142 $84 #
plane-surface $-1 -51.781365398113962 -4.9593976590206523 0.74446891197740683 -0.81915205242281985 0 0.57357642473473569 0.57357642473473569 0 0.81915205242281985 forward_v I I I I #
loop $-1 $-1 $234 $54 #
coedge $-1 $140 $140 $141 $235 reversed $85 $-1 #
coedge $-1 $141 $141 $140 $235 forward $87 $-1 #
coedge $-1 $142 $142 $88 $143 forward $137 $-1 #
edge $-1 $236 0 $236 6.2831853071796004 $142 $237 forward 7 unknown #
loop $-1 $-1 $149 $89 #
plane-surface $-1 -51.781365398113962 -4.9593976590206523 0.74446891197740683 -0.81915205242281985 0 0.57357642473473569 0.57357642473473569 0 0.81915205242281985 forward_v I I I I #
loop $-1 $-1 $238 $57 #
coedge $-1 $147 $147 $148 $239 reversed $90 $-1 #
coedge $-1 $148 $148 $147 $239 forward $92 $-1 #
coedge $-1 $149 $149 $93 $150 forward $144 $-1 #
edge $-1 $240 0 $240 6.2831853071796004 $149 $241 forward 7 unknown #
face $-1 $242 $243 $32 $-1 $244 forward single #
loop $-1 $-1 $245 $94 #
plane-surface $-1 33.932404912842806 8.6614166891343132 148.75437784679838 0 1 0 0.61566148304635926 0 0.78801074757464917 forward_v I I I I #
coedge $-1 $246 $247 $248 $249 reversed $95 $-1 #
coedge $-1 $156 $97 $250 $251 reversed $61 $-1 #
coedge $-1 $97 $155 $246 $252 reversed $61 $-1 #
coedge $-1 $248 $253 $97 $158 forward $243 $-1 #
edge $-1 $254 -34.815162941692549 $255 -27.787757697899846 $157 $256 forward 7 unknown #
loop $-1 $-1 $164 $98 #
plane-surface $-1 -29.827179517493732 14.98265341352645 67.145832931190682 0.61566148304635926 0 0.78801074757464917 0.78801074757464917 0 -0.61566148304635926 forward_v I I I I #
loop $-1 $-1 $257 $63 #
coedge $-1 $162 $162 $163 $258 reversed $99 $-1 #
coedge $-1 $163 $163 $162 $258 forward $101 $-1 #
coedge $-1 $164 $164 $102 $165 forward $159 $-1 #
edge $-1 $259 0 $259 6.2831853071796004 $164 $260 forward 7 unknown #
loop $-1 $-1 $171 $103 #
plane-surface $-1 -29.827179517493732 14.98265341352645 67.145832931190682 0.61566148304635926 0 0.78801074757464917 0.78801074757464917 0 -0.61566148304635926 forward_v I I I I #
loop $-1 $-1 $261 $66 #
coedge $-1 $169 $169 $170 $262 reversed $104 $-1 #
coedge $-1 $170 $170 $169 $262 forward $106 $-1 #
coedge $-1 $171 $171 $107 $172 forward $166 $-1 #
edge $-1 $263 0 $263 6.2831853071796004 $171 $264 forward 7 unknown #
loop $-1 $-1 $178 $108 #
plane-surface $-1 -29.827179517493732 14.98265341352645 67.145832931190682 0.61566148304635926 0 0.78801074757464917 0.78801074757464917 0 -0.61566148304635926 forward_v I I I I #
loop $-1 $-1 $265 $69 #
coedge $-1 $176 $176 $177 $266 reversed $109 $-1 #
coedge $-1 $177 $177 $176 $266 forward $111 $-1 #
coedge $-1 $178 $178 $112 $179 forward $173 $-1 #
edge $-1 $267 0 $267 6.2831853071796004 $178 $268 forward 7 unknown #
face $-1 $269 $270 $27 $-1 $271 reversed single #
loop $-1 $-1 $272 $113 #
plane-surface $-1 -51.781365398113955 0 0 1 0 0 0 0 -1 forward_v I I I I #
coedge $-1 $273 $191 $274 $275 forward $114 $-1 #
coedge $-1 $276 $116 $273 $277 forward $73 $-1 #
coedge $-1 $116 $276 $278 $279 forward $73 $-1 #
coedge $-1 $194 $193 $116 $187 reversed $195 $-1 #
edge $-1 $280 -32.55049922779844 $281 32.55049922779844 $186 $282 forward 7 unknown #
coedge $-1 $118 $117 $283 $284 forward $46 $-1 #
coedge $-1 $285 $286 $117 $190 reversed $270 $-1 #
edge $-1 $197 -51.781365398113955 $287 51.781365398113955 $189 $288 forward 7 unknown #
coedge $-1 $183 $289 $118 $192 reversed $114 $-1 #
edge $-1 $290 -51.781365398113955 $196 51.781365398113955 $191 $291 forward 7 unknown #
coedge $-1 $186 $119 $289 $292 forward $195 $-1 #
coedge $-1 $119 $186 $285 $293 reversed $195 $-1 #
loop $-1 $-1 $193 $269 #
vertex $-1 $120 $294 #
vertex $-1 $120 $295 #
straight-curve $-1 51.781365398113955 0 8.8766593203478656 0 1 0 I I #
face $-1 $296 $297 $28 $-1 $298 reversed single #
loop $-1 $-1 $299 $121 #
plane-surface $-1 -51.781365398113955 0 0 1 0 0 0 0 -1 forward_v I I I I #
coedge $-1 $300 $208 $213 $301 reversed $122 $-1 #
coedge $-1 $302 $124 $303 $304 reversed $77 $-1 #
coedge $-1 $124 $302 $300 $305 forward $77 $-1 #
coedge $-1 $213 $212 $124 $206 forward $214 $-1 #
edge $-1 $306 -18.462500785389622 $307 -9.7134960994280082 $205 $308 forward 7 unknown #
coedge $-1 $126 $125 $299 $309 reversed $49 $-1 #
coedge $-1 $202 $310 $125 $209 reversed $122 $-1 #
edge $-1 $215 -51.781365398113955 $311 51.781365398113955 $208 $312 forward 7 unknown #
coedge $-1 $313 $314 $126 $211 forward $297 $-1 #
edge $-1 $216 -51.781365398113955 $315 51.781365398113955 $210 $316 forward 7 unknown #
coedge $-1 $205 $127 $314 $317 forward $214 $-1 #
coedge $-1 $127 $205 $202 $301 forward $214 $-1 #
loop $-1 $-1 $127 $296 #
vertex $-1 $128 $318 #
vertex $-1 $317 $319 #
straight-curve $-1 51.781365398113955 -14.087998442408816 -4.3201475084369445 0 -1 0 I I #
face $-1 $-1 $230 $29 $-1 $320 forward single #
loop $-1 $-1 $321 $129 #
plane-surface $-1 -51.781365398113955 0 0 1 0 0 0 0 -1 forward_v I I I I #
coedge $-1 $322 $323 $324 $325 reversed $130 $-1 #
coedge $-1 $326 $132 $134 $228 forward $81 $-1 #
coedge $-1 $132 $326 $322 $327 forward $81 $-1 #
coedge $-1 $324 $135 $132 $225 forward $230 $-1 #
edge $-1 $232 -5.8093596147102868 $328 0.84996195568963451 $224 $329 forward 7 unknown #
coedge $-1 $330 $331 $133 $227 forward $219 $-1 #
edge $-1 $332 -29.328335976944441 $231 -21.196145568573993 $226 $333 forward 7 unknown #
edge $-1 $232 -9.9275713029317831 $332 -1.2351422990330951e-014 $134 $334 forward 7 unknown #
coedge $-1 $135 $324 $330 $335 forward $230 $-1 #
loop $-1 $-1 $324 $218 #
vertex $-1 $227 $336 #
vertex $-1 $136 $337 #
straight-curve $-1 -68.307494442178012 -8.289058444220613 8.8766593203478656 1 0 0 I I #
coedge $-1 $234 $234 $-1 $338 reversed $139 $-1 #
edge $-1 $339 0 $339 6.2831853071796004 $140 $340 forward 7 unknown #
vertex $-1 $143 $341 #
ellipse-curve $-1 -48.93425497099657 -6.3863951383920643 4.8105641161626433 -0.81915205242281985 0 0.57357642473473569 0.14339410618368392 0 0.20478801310570496 1 I I #
coedge $-1 $238 $238 $-1 $342 reversed $146 $-1 #
edge $-1 $343 0 $343 6.2831853071796004 $147 $344 forward 7 unknown #
vertex $-1 $150 $345 #
ellipse-curve $-1 -48.93425497099657 -3.5324001796492404 4.8105641161626433 -0.81915205242281985 0 0.57357642473473569 0.14339410618368392 0 0.20478801310570496 1 I I #
face $-1 $-1 $346 $32 $-1 $347 reversed single #
loop $-1 $-1 $157 $151 #
plane-surface $-1 0 0 8.8766593203478656 0 0 1 1 0 0 forward_v I I I I #
coedge $-1 $348 $349 $350 $351 reversed $152 $-1 #
coedge $-1 $352 $154 $156 $252 forward $95 $-1 #
coedge $-1 $154 $352 $348 $353 forward $95 $-1 #
coedge $-1 $350 $157 $154 $249 forward $243 $-1 #
edge $-1 $255 -13.812563431155361 $354 -1.1700899823710884 $248 $355 forward 7 unknown #
coedge $-1 $356 $357 $155 $251 forward $346 $-1 #
edge $-1 $358 -70.990940422545037 $254 -65.500529603051319 $250 $359 forward 7 unknown #
edge $-1 $255 94.644825468893515 $358 103.5627307962279 $156 $360 forward 7 unknown #
coedge $-1 $157 $350 $356 $361 forward $243 $-1 #
vertex $-1 $251 $362 #
vertex $-1 $158 $363 #
straight-curve $-1 16.966202456421403 21.303890137918586 8.8766593203478692 -1 0 0 I I #
coedge $-1 $257 $257 $-1 $364 reversed $161 $-1 #
edge $-1 $365 0 $365 6.2831853071796004 $162 $366 forward 7 unknown #
vertex $-1 $165 $367 #
ellipse-curve $-1 48.267662776217591 11.189911378891168 6.1314539106010093 0.61566148304635926 0 0.78801074757464917 0.78801074757464917 0 -0.61566148304635926 1 I I #
coedge $-1 $261 $261 $-1 $368 reversed $168 $-1 #
edge $-1 $369 0 $369 6.2831853071796004 $169 $370 forward 7 unknown #
vertex $-1 $172 $371 #
ellipse-curve $-1 48.267662776217591 14.98265341352645 6.1314539106010093 0.61566148304635926 0 0.78801074757464917 0.78801074757464917 0 -0.61566148304635926 1 I I #
coedge $-1 $265 $265 $-1 $372 reversed $175 $-1 #
edge $-1 $373 0 $373 6.2831853071796004 $176 $374 forward 7 unknown #
vertex $-1 $179 $375 #
ellipse-curve $-1 48.267662776217591 18.775395448161731 6.1314539106010093 0.61566148304635926 0 0.78801074757464917 0.78801074757464917 0 -0.61566148304635926 1 I I #
face $-1 $-1 $195 $27 $-1 $376 reversed single #
loop $-1 $-1 $285 $180 #
plane-surface $-1 0 32.55049922779844 0 0 -1 0 0 0 -1 forward_v I I I I #
coedge $-1 $377 $283 $286 $378 forward $181 $-1 #
coedge $-1 $289 $183 $184 $277 reversed $114 $-1 #
coedge $-1 $283 $377 $183 $275 reversed $181 $-1 #
edge $-1 $290 -8.8766593203478656 $379 8.8766593203478656 $274 $380 forward 7 unknown #
coedge $-1 $185 $184 $377 $381 forward $73 $-1 #
edge $-1 $281 -51.781365398113955 $379 51.781365398113955 $273 $382 forward 7 unknown #
coedge $-1 $286 $285 $185 $279 reversed $270 $-1 #
edge $-1 $383 -51.781365398113955 $280 51.781365398113955 $278 $384 forward 7 unknown #
vertex $-1 $187 $385 #
vertex $-1 $292 $386 #
straight-curve $-1 51.781365398113955 0 -8.8766593203478656 0 -1 0 I I #
coedge $-1 $272 $274 $188 $284 reversed $181 $-1 #
edge $-1 $287 -32.55049922779844 $290 32.55049922779844 $283 $387 forward 7 unknown #
coedge $-1 $278 $189 $194 $293 forward $270 $-1 #
coedge $-1 $189 $278 $272 $378 reversed $270 $-1 #
vertex $-1 $190 $388 #
straight-curve $-1 0 32.55049922779844 8.8766593203478656 -1 0 0 I I #
coedge $-1 $191 $273 $193 $292 reversed $114 $-1 #
vertex $-1 $284 $389 #
straight-curve $-1 0 -32.55049922779844 8.8766593203478656 1 0 0 I I #
edge $-1 $196 -8.8766593203478656 $281 8.8766593203478656 $193 $390 forward 7 unknown #
edge $-1 $197 -8.8766593203478656 $280 8.8766593203478656 $194 $391 forward 7 unknown #
point $-1 51.781365398113955 -32.55049922779844 8.8766593203478656 #
point $-1 51.781365398113955 32.55049922779844 8.8766593203478656 #
face $-1 $-1 $214 $28 $-1 $392 reversed single #
loop $-1 $-1 $210 $199 #
plane-surface $-1 0 -32.55049922779844 0 0 1 0 0 0 1 forward_v I I I I #
coedge $-1 $393 $394 $207 $309 forward $200 $-1 #
coedge $-1 $310 $202 $204 $305 reversed $122 $-1 #
edge $-1 $307 -4.4100737542184723 $215 -1.4100737542184723 $213 $395 forward 7 unknown #
coedge $-1 $204 $203 $396 $397 reversed $77 $-1 #
coedge $-1 $314 $313 $203 $304 forward $297 $-1 #
edge $-1 $398 -51.781365398113955 $306 51.781365398113955 $303 $399 forward 7 unknown #
edge $-1 $400 -51.781365398113955 $307 51.781365398113955 $300 $401 forward 7 unknown #
vertex $-1 $304 $402 #
vertex $-1 $206 $403 #
straight-curve $-1 51.781365398113955 -14.087998442408816 -7.3201475084369445 0 1 0 I I #
edge $-1 $315 -18.462500785389622 $311 -9.7134960994280082 $299 $404 forward 7 unknown #
coedge $-1 $208 $300 $393 $405 reversed $122 $-1 #
vertex $-1 $309 $406 #
straight-curve $-1 0 -23.801494541836824 -4.3201475084369445 -1 0 0 I I #
coedge $-1 $303 $210 $394 $407 forward $297 $-1 #
coedge $-1 $210 $303 $212 $317 reversed $297 $-1 #
vertex $-1 $407 $408 #
straight-curve $-1 0 -32.55049922779844 -4.3201475084369445 -1 0 0 I I #
edge $-1 $216 4.3201475084369445 $306 7.3201475084369445 $212 $409 forward 7 unknown #
point $-1 51.781365398113955 -23.801494541836824 -4.3201475084369445 #
point $-1 51.781365398113955 -32.55049922779844 -4.3201475084369445 #
plane-surface $-1 0 0 8.8766593203478656 0 0 1 1 0 0 forward_v I I I I #
coedge $-1 $331 $330 $323 $410 forward $219 $-1 #
coedge $-1 $323 $221 $223 $327 reversed $130 $-1 #
coedge $-1 $221 $322 $321 $410 reversed $130 $-1 #
coedge $-1 $229 $224 $221 $325 forward $230 $-1 #
edge $-1 $328 -22.220349898298821 $411 -16.526129044064056 $324 $412 forward 7 unknown #
coedge $-1 $223 $222 $331 $413 reversed $81 $-1 #
edge $-1 $414 1.2351422990330951e-014 $328 9.9275713029317831 $322 $415 forward 7 unknown #
vertex $-1 $225 $416 #
straight-curve $-1 -46.087144543879184 -2.4796988295103262 8.8766593203478656 0 1 0 I I #
coedge $-1 $321 $226 $229 $335 reversed $219 $-1 #
coedge $-1 $226 $321 $326 $413 forward $219 $-1 #
vertex $-1 $227 $417 #
straight-curve $-1 -51.781365398113955 -8.289058444220613 30.072804888921858 0 0 1 I I #
straight-curve $-1 -51.781365398113962 -8.289058444220613 0.74446891197740683 -0.57357642473473569 0 -0.81915205242281985 I I #
edge $-1 $411 1.6297368738206917 $231 8.289058444220613 $330 $418 forward 7 unknown #
point $-1 -51.781365398113955 -8.289058444220613 8.8766593203478656 #
point $-1 -46.087144543879191 -8.289058444220613 8.8766593203478656 #
edge $-1 $419 1 $419 0 $234 $-1 forward 7 unknown #
vertex $-1 $235 $420 #
ellipse-curve $-1 -48.115102918573747 -6.3863951383920643 4.2369876914279061 -0.81915205242281985 0 0.57357642473473569 0.14339410618368392 0 0.20478801310570496 1 I I #
point $-1 -48.790860864812885 -6.3863951383920643 5.0153521292683463 #
edge $-1 $421 1 $421 0 $238 $-1 forward 7 unknown #
vertex $-1 $239 $422 #
ellipse-curve $-1 -48.115102918573747 -3.5324001796492404 4.2369876914279061 -0.81915205242281985 0 0.57357642473473569 0.14339410618368392 0 0.20478801310570496 1 I I #
point $-1 -48.790860864812885 -3.5324001796492404 5.0153521292683463 #
loop $-1 $-1 $250 $242 #
plane-surface $-1 51.781365398113955 0 0 -1 0 0 0 0 1 forward_v I I I I #
coedge $-1 $349 $245 $247 $353 reversed $152 $-1 #
coedge $-1 $245 $348 $423 $424 reversed $152 $-1 #
coedge $-1 $253 $248 $245 $351 forward $243 $-1 #
edge $-1 $354 27.787757697899846 $425 34.815162941692549 $350 $426 forward 7 unknown #
coedge $-1 $247 $246 $357 $427 reversed $95 $-1 #
edge $-1 $428 -103.5627307962279 $354 -94.644825468893515 $348 $429 forward 7 unknown #
vertex $-1 $249 $430 #
straight-curve $-1 44.753960154321256 7.4913267067632248 8.876659320347855 0 -1 0 I I #
coedge $-1 $423 $250 $253 $361 reversed $346 $-1 #
coedge $-1 $250 $423 $352 $427 forward $346 $-1 #
vertex $-1 $251 $431 #
straight-curve $-1 51.781365398113955 21.303890137918586 74.377188923399189 0 0 1 I I #
straight-curve $-1 -29.827179517493732 21.303890137918586 67.145832931190682 0.78801074757464917 0 -0.61566148304635926 I I #
edge $-1 $425 8.6614166891343132 $254 21.303890137918586 $356 $432 forward 7 unknown #
point $-1 51.781365398113955 21.303890137918586 8.8766593203478656 #
point $-1 44.753960154321248 21.303890137918586 8.8766593203478692 #
edge $-1 $433 1 $433 0 $257 $-1 forward 7 unknown #
vertex $-1 $258 $434 #
ellipse-curve $-1 47.229303567285619 11.189911378891168 4.8024147567582656 0.61566148304635926 0 0.78801074757464917 0.78801074757464917 0 -0.61566148304635926 1 I I #
point $-1 49.055673523792244 11.189911378891168 5.5157924275546577 #
edge $-1 $435 1 $435 0 $261 $-1 forward 7 unknown #
vertex $-1 $262 $436 #
ellipse-curve $-1 47.229303567285619 14.98265341352645 4.8024147567582656 0.61566148304635926 0 0.78801074757464917 0.78801074757464917 0 -0.61566148304635926 1 I I #
point $-1 49.055673523792244 14.98265341352645 5.5157924275546577 #
edge $-1 $437 1 $437 0 $265 $-1 forward 7 unknown #
vertex $-1 $266 $438 #
ellipse-curve $-1 47.229303567285619 18.775395448161731 4.8024147567582656 0.61566148304635926 0 0.78801074757464917 0.78801074757464917 0 -0.61566148304635926 1 I I #
point $-1 49.055673523792244 18.775395448161731 5.5157924275546577 #
plane-surface $-1 51.781365398113955 0 0 -1 0 0 0 0 1 forward_v I I I I #
coedge $-1 $274 $272 $276 $381 reversed $181 $-1 #
edge $-1 $287 -8.8766593203478656 $383 8.8766593203478656 $286 $439 forward 7 unknown #
vertex $-1 $381 $440 #
straight-curve $-1 -51.781365398113955 -32.55049922779844 0 0 0 -1 I I #
edge $-1 $379 -32.55049922779844 $383 32.55049922779844 $377 $441 forward 7 unknown #
straight-curve $-1 0 -32.55049922779844 -8.8766593203478656 -1 0 0 I I #
vertex $-1 $279 $442 #
straight-curve $-1 0 32.55049922779844 -8.8766593203478656 1 0 0 I I #
point $-1 51.781365398113955 32.55049922779844 -8.8766593203478656 #
point $-1 51.781365398113955 -32.55049922779844 -8.8766593203478656 #
straight-curve $-1 -51.781365398113955 0 8.8766593203478656 0 -1 0 I I #
point $-1 -51.781365398113955 32.55049922779844 8.8766593203478656 #
point $-1 -51.781365398113955 -32.55049922779844 8.8766593203478656 #
straight-curve $-1 51.781365398113955 -32.55049922779844 0 0 0 -1 I I #
straight-curve $-1 51.781365398113955 32.55049922779844 0 0 0 -1 I I #
plane-surface $-1 51.781365398113955 0 0 -1 0 0 0 0 1 forward_v I I I I #
coedge $-1 $396 $299 $310 $405 forward $200 $-1 #
coedge $-1 $299 $396 $313 $407 reversed $200 $-1 #
straight-curve $-1 51.781365398113955 -23.801494541836824 -2.9100737542184723 0 0 1 I I #
coedge $-1 $394 $393 $302 $397 forward $200 $-1 #
edge $-1 $400 9.7134960994280082 $398 18.462500785389622 $396 $443 forward 7 unknown #
vertex $-1 $304 $444 #
straight-curve $-1 0 -32.55049922779844 -7.3201475084369445 1 0 0 I I #
vertex $-1 $397 $445 #
straight-curve $-1 0 -23.801494541836824 -7.3201475084369445 1 0 0 I I #
point $-1 51.781365398113955 -32.55049922779844 -7.3201475084369445 #
point $-1 51.781365398113955 -23.801494541836824 -7.3201475084369445 #
straight-curve $-1 -51.781365398113955 -14.087998442408816 -4.3201475084369445 0 1 0 I I #
edge $-1 $311 1.4100737542184723 $400 4.4100737542184723 $393 $446 forward 7 unknown #
point $-1 -51.781365398113955 -23.801494541836824 -4.3201475084369445 #
edge $-1 $315 4.3201475084369445 $398 7.3201475084369445 $394 $447 forward 7 unknown #
point $-1 -51.781365398113955 -32.55049922779844 -4.3201475084369445 #
straight-curve $-1 51.781365398113955 -32.55049922779844 0 0 0 -1 I I #
edge $-1 $411 21.196145568573993 $414 29.328335976944441 $321 $448 forward 7 unknown #
vertex $-1 $335 $449 #
straight-curve $-1 -68.307494442178012 -1.6297368738206917 8.8766593203478656 -1 0 0 I I #
edge $-1 $414 -0.84996195568963451 $332 5.8093596147102868 $331 $450 forward 7 unknown #
vertex $-1 $413 $451 #
straight-curve $-1 -51.781365398113962 -1.6297368738206917 0.74446891197740683 0.57357642473473569 0 0.81915205242281985 I I #
point $-1 -46.087144543879191 -1.6297368738206917 8.8766593203478656 #
point $-1 -51.781365398113955 -8.289058444220613 0.74446891197741694 #
straight-curve $-1 -51.781365398113955 0 8.8766593203478656 0 -1 0 I I #
vertex $-1 $338 $452 #
point $-1 -47.971708812390069 -6.3863951383920643 4.4417757045336108 #
vertex $-1 $342 $453 #
point $-1 -47.971708812390069 -3.5324001796492404 4.4417757045336108 #
coedge $-1 $357 $356 $349 $424 forward $346 $-1 #
edge $-1 $425 65.500529603051319 $428 70.990940422545037 $423 $454 forward 7 unknown #
vertex $-1 $361 $455 #
straight-curve $-1 16.966202456421403 8.6614166891343132 8.8766593203478692 1 0 0 I I #
edge $-1 $428 1.1700899823710884 $358 13.812563431155361 $357 $456 forward 7 unknown #
vertex $-1 $427 $457 #
straight-curve $-1 -29.827179517493732 8.6614166891343132 67.145832931190682 -0.78801074757464917 0 0.61566148304635926 I I #
point $-1 44.753960154321248 8.6614166891343132 8.8766593203478692 #
point $-1 51.781365398113962 21.303890137918586 3.3862485008541441 #
straight-curve $-1 51.781365398113955 0 8.8766593203478656 0 1 0 I I #
vertex $-1 $364 $458 #
point $-1 48.017314314860272 11.189911378891168 4.186753273711906 #
vertex $-1 $368 $459 #
point $-1 48.017314314860272 14.98265341352645 4.186753273711906 #
vertex $-1 $372 $460 #
point $-1 48.017314314860272 18.775395448161731 4.186753273711906 #
straight-curve $-1 -51.781365398113955 32.55049922779844 0 0 0 -1 I I #
point $-1 -51.781365398113955 -32.55049922779844 -8.8766593203478656 #
straight-curve $-1 -51.781365398113955 0 -8.8766593203478656 0 1 0 I I #
point $-1 -51.781365398113955 32.55049922779844 -8.8766593203478656 #
straight-curve $-1 -51.781365398113955 -14.087998442408816 -7.3201475084369445 0 -1 0 I I #
point $-1 -51.781365398113955 -32.55049922779844 -7.3201475084369445 #
point $-1 -51.781365398113955 -23.801494541836824 -7.3201475084369445 #
straight-curve $-1 -51.781365398113955 -23.801494541836824 -2.9100737542184723 0 0 -1 I I #
straight-curve $-1 -51.781365398113955 -32.55049922779844 0 0 0 -1 I I #
straight-curve $-1 -51.781365398113955 -1.6297368738206917 30.072804888921858 0 0 -1 I I #
point $-1 -51.781365398113955 -1.6297368738206917 8.8766593203478656 #
straight-curve $-1 -51.781365398113955 -2.4796988295103262 0.74446891197742293 0 -1 0 I I #
point $-1 -51.781365398113955 -1.6297368738206917 0.74446891197741694 #
point $-1 -47.910314905468049 -6.3863951383920643 4.0935935852442213 #
point $-1 -47.910314905468049 -3.5324001796492404 4.0935935852442213 #
straight-curve $-1 51.781365398113955 8.6614166891343132 74.377188923399189 0 0 -1 I I #
point $-1 51.781365398113955 8.6614166891343132 8.8766593203478656 #
straight-curve $-1 51.781365398113962 7.4913267067632248 3.3862485008541441 0 1 0 I I #
point $-1 51.781365398113962 8.6614166891343132 3.3862485008541441 #
point $-1 46.613642084239267 11.189911378891168 4.0144040091836164 #
point $-1 46.613642084239267 14.98265341352645 4.0144040091836164 #
point $-1 46.613642084239267 18.775395448161731 4.0144040091836164 #
End-of-ACIS-data 