500 0 11 0           
7 Unknown 11 ACIS 5.0 NT 24 Fri Mar 26 18:12:29 1999 
-1 9.9999999999999995e-007 1e-010 
body $-1 $11 $-1 $12 #
body $-1 $13 $-1 $14 #
body $-1 $15 $-1 $16 #
body $-1 $17 $-1 $18 #
body $-1 $19 $-1 $20 #
body $-1 $21 $-1 $22 #
body $-1 $23 $-1 $24 #
body $-1 $25 $-1 $26 #
body $-1 $27 $-1 $28 #
body $-1 $29 $-1 $30 #
body $-1 $31 $-1 $32 #
lump $-1 $-1 $33 $0 #
transform $-1 1 0 0 0 1 0 0 0 1 57.626270332956935 36.150297550251658 10.809564512088709 1 rotate no_reflect no_shear #
lump $-1 $-1 $34 $1 #
transform $-1 1 0 0 0 1 0 0 0 1 57.626270332956935 36.150297550251658 10.809564512088709 1 rotate no_reflect no_shear #
lump $-1 $-1 $35 $2 #
transform $-1 1 0 0 0 1 0 0 0 1 57.626270332956935 36.150297550251658 10.809564512088709 1 rotate no_reflect no_shear #
lump $-1 $-1 $36 $3 #
transform $-1 1 0 0 0 1 0 0 0 1 57.626270332956935 36.150297550251658 10.809564512088709 1 rotate no_reflect no_shear #
lump $-1 $-1 $37 $4 #
transform $-1 1 0 0 0 1 0 0 0 1 57.626270332956935 36.150297550251658 10.809564512088709 1 rotate no_reflect no_shear #
lump $-1 $-1 $38 $5 #
transform $-1 1 0 0 0 1 0 0 0 1 57.626270332956935 36.150297550251658 10.809564512088709 1 rotate no_reflect no_shear #
lump $-1 $-1 $39 $6 #
transform $-1 1 0 0 0 1 0 0 0 1 57.626270332956935 36.150297550251658 10.809564512088709 1 rotate no_reflect no_shear #
lump $-1 $-1 $40 $7 #
transform $-1 1 0 0 0 1 0 0 0 1 57.626270332956935 36.150297550251658 10.809564512088709 1 rotate no_reflect no_shear #
lump $-1 $-1 $41 $8 #
transform $-1 1 0 0 0 1 0 0 0 1 57.626270332956935 36.150297550251658 10.809564512088709 1 rotate no_reflect no_shear #
lump $-1 $-1 $42 $9 #
transform $-1 1 0 0 0 1 0 0 0 1 57.626270332956935 36.150297550251658 10.809564512088709 1 rotate no_reflect no_shear #
lump $-1 $-1 $43 $10 #
transform $-1 1 0 0 0 1 0 0 0 1 57.626270332956935 36.150297550251658 10.809564512088709 1 rotate no_reflect no_shear #
shell $-1 $-1 $-1 $44 $-1 $11 #
shell $-1 $-1 $-1 $45 $-1 $13 #
shell $-1 $-1 $-1 $46 $-1 $15 #
shell $-1 $-1 $-1 $47 $-1 $17 #
shell $-1 $-1 $-1 $48 $-1 $19 #
shell $-1 $-1 $-1 $49 $-1 $21 #
shell $-1 $-1 $-1 $50 $-1 $23 #
shell $-1 $-1 $-1 $51 $-1 $25 #
shell $-1 $-1 $-1 $52 $-1 $27 #
shell $-1 $-1 $-1 $53 $-1 $29 #
shell $-1 $-1 $-1 $54 $-1 $31 #
face $-1 $55 $56 $33 $-1 $57 reversed single #
face $-1 $58 $59 $34 $-1 $60 forward single #
face $-1 $61 $62 $35 $-1 $63 forward single #
face $-1 $64 $65 $36 $-1 $66 reversed single #
face $-1 $67 $68 $37 $-1 $69 forward single #
face $-1 $70 $71 $38 $-1 $72 reversed single #
face $-1 $73 $74 $39 $-1 $75 forward single #
face $-1 $76 $77 $40 $-1 $78 reversed single #
face $-1 $79 $80 $41 $-1 $81 forward single #
face $-1 $82 $83 $42 $-1 $84 forward single #
face $-1 $85 $86 $43 $-1 $87 forward single #
face $-1 $88 $89 $33 $-1 $90 forward single #
loop $-1 $-1 $91 $44 #
plane-surface $-1 57.626270332956935 0 0 -1 0 0 0 0 1 forward_v I I I I #
face $-1 $92 $93 $34 $-1 $94 reversed single #
loop $-1 $-1 $95 $45 #
plane-surface $-1 -57.626270332956935 0 0 1 0 0 0 0 -1 forward_v I I I I #
face $-1 $96 $97 $35 $-1 $98 reversed single #
loop $-1 $-1 $99 $46 #
plane-surface $-1 57.626270332956935 0 0 -1 0 0 0 0 1 forward_v I I I I #
face $-1 $100 $101 $36 $-1 $102 reversed single #
loop $-1 $-1 $103 $47 #
plane-surface $-1 -21.427405849722433 -133.88999615250407 68.352614722237504 -1 0 0 0 -0.84804810408105047 0.52991925155115449 forward_v I I I I #
face $-1 $104 $105 $37 $-1 $106 forward single #
loop $-1 $107 $108 $48 #
cone-surface $-1 -31.574359176137641 -34.199704843604138 8.514409749976469 0 0.84804810408105047 -0.52991925155115449 0.5 0 0 1 I I 0 1 0.5 forward I I I I #
face $-1 $109 $110 $38 $-1 $111 reversed single #
loop $-1 $-1 $112 $49 #
plane-surface $-1 26.797997324831844 -133.88999615250407 68.352614722237504 -1 0 0 0 -0.84804810408105047 0.52991925155115449 forward_v I I I I #
face $-1 $113 $114 $39 $-1 $115 forward single #
loop $-1 $116 $117 $50 #
cone-surface $-1 16.651043998416625 -34.199704843604138 8.514409749976469 0 0.84804810408105047 -0.52991925155115449 0.5 0 0 1 I I 0 1 0.5 forward I I I I #
face $-1 $118 $119 $40 $-1 $120 reversed single #
loop $-1 $-1 $121 $51 #
plane-surface $-1 -34.280984029517889 43.031260052125269 140.9555961018734 1 0 0 0 -0.57357644374324357 -0.81915203911291934 forward_v I I I I #
face $-1 $122 $123 $41 $-1 $124 forward single #
loop $-1 $125 $126 $52 #
cone-surface $-1 -29.620603046813049 30.354869968535688 5.5129937098144062 0 -0.57357644374324357 -0.81915203911291934 1.5 0 0 1 I I 0 1 1.5 forward I I I I #
face $-1 $127 $128 $42 $-1 $129 forward single #
loop $-1 $130 $131 $53 #
cone-surface $-1 -22.630031572755783 30.354869968535688 5.5129937098144062 0 -0.57357644374324357 -0.81915203911291934 1.5 0 0 1 I I 0 1 1.5 forward I I I I #
face $-1 $132 $133 $43 $-1 $134 forward single #
loop $-1 $135 $136 $54 #
cone-surface $-1 -15.639460098698521 30.354869968535688 5.5129937098144062 0 -0.57357644374324357 -0.81915203911291934 1.5 0 0 1 I I 0 1 1.5 forward I I I I #
face $-1 $137 $138 $33 $-1 $139 reversed single #
loop $-1 $-1 $140 $55 #
plane-surface $-1 0 0 10.809564512088709 0 0 1 1 0 0 forward_v I I I I #
coedge $-1 $141 $142 $143 $144 reversed $56 $-1 #
face $-1 $145 $146 $34 $-1 $147 forward single #
loop $-1 $-1 $148 $58 #
plane-surface $-1 0 36.150297550251658 0 0 -1 0 0 0 -1 forward_v I I I I #
coedge $-1 $149 $150 $151 $152 forward $59 $-1 #
face $-1 $153 $154 $35 $-1 $155 forward single #
loop $-1 $-1 $156 $61 #
plane-surface $-1 0 -36.150297550251658 0 0 1 0 0 0 1 forward_v I I I I #
coedge $-1 $157 $158 $159 $160 forward $62 $-1 #
face $-1 $161 $162 $36 $-1 $163 reversed single #
loop $-1 $-1 $164 $64 #
plane-surface $-1 -31.574359176137637 -36.150297550251636 7.2780746331874298 0 -0.84804810408105047 0.52991925155115449 1 0 0 forward_v I I I I #
coedge $-1 $165 $166 $167 $168 reversed $65 $-1 #
face $-1 $-1 $169 $37 $-1 $170 forward single #
loop $-1 $171 $172 $67 #
cone-surface $-1 -31.574359176137641 -33.140459970171989 7.852520114427076 0 0.84804810408105047 -0.52991925155115449 0.25 0 0 1 I I -0.70710678118654746 0.70710678118654746 0.25 forward I I I I #
loop $-1 $-1 $173 $48 #
coedge $-1 $108 $108 $174 $175 reversed $68 $-1 #
face $-1 $176 $177 $38 $-1 $178 reversed single #
loop $-1 $-1 $179 $70 #
plane-surface $-1 16.65104399841664 -36.150297550251636 7.2780746331874298 0 -0.84804810408105047 0.52991925155115449 1 0 0 forward_v I I I I #
coedge $-1 $180 $181 $182 $183 reversed $71 $-1 #
face $-1 $-1 $184 $39 $-1 $185 forward single #
loop $-1 $186 $187 $73 #
cone-surface $-1 16.651043998416625 -33.140459970171989 7.852520114427076 0 0.84804810408105047 -0.52991925155115449 0.25 0 0 1 I I -0.70710678118654746 0.70710678118654746 0.25 forward I I I I #
loop $-1 $-1 $188 $50 #
coedge $-1 $117 $117 $189 $190 reversed $74 $-1 #
face $-1 $191 $192 $40 $-1 $193 reversed single #
loop $-1 $-1 $194 $76 #
plane-surface $-1 -22.630031572755783 -23.074882355403169 46.546242402445387 0 0.57357644374324357 0.81915203911291934 1 0 0 forward_v I I I I #
coedge $-1 $195 $196 $197 $198 reversed $77 $-1 #
face $-1 $-1 $199 $41 $-1 $200 forward single #
loop $-1 $201 $202 $79 #
cone-surface $-1 -29.620603046813049 28.223217848620003 2.4686790421605203 0 -0.57357644374324357 -0.81915203911291934 0.75 0 0 1 I I -0.70710678118654757 0.70710678118654757 0.75 forward I I I I #
loop $-1 $-1 $203 $52 #
coedge $-1 $126 $126 $204 $205 reversed $80 $-1 #
face $-1 $-1 $206 $42 $-1 $207 forward single #
loop $-1 $208 $209 $82 #
cone-surface $-1 -22.630031572755783 28.223217848620003 2.4686790421605203 0 -0.57357644374324357 -0.81915203911291934 0.75 0 0 1 I I -0.70710678118654757 0.70710678118654757 0.75 forward I I I I #
loop $-1 $-1 $210 $53 #
coedge $-1 $131 $131 $211 $212 reversed $83 $-1 #
face $-1 $-1 $213 $43 $-1 $214 forward single #
loop $-1 $215 $216 $85 #
cone-surface $-1 -15.639460098698521 28.223217848620003 2.4686790421605203 0 -0.57357644374324357 -0.81915203911291934 0.75 0 0 1 I I -0.70710678118654757 0.70710678118654757 0.75 forward I I I I #
loop $-1 $-1 $217 $54 #
coedge $-1 $136 $136 $218 $219 reversed $86 $-1 #
face $-1 $220 $221 $33 $-1 $222 reversed single #
loop $-1 $-1 $223 $88 #
plane-surface $-1 0 0 -10.809564512088709 0 0 1 1 0 0 forward_v I I I I #
coedge $-1 $224 $225 $141 $226 forward $89 $-1 #
coedge $-1 $227 $91 $140 $226 reversed $56 $-1 #
coedge $-1 $91 $227 $223 $228 reversed $56 $-1 #
coedge $-1 $229 $230 $91 $144 forward $231 $-1 #
edge $-1 $232 -10.809564512088709 $233 10.809564512088709 $91 $234 forward 7 unknown #
face $-1 $235 $236 $34 $-1 $237 reversed single #
loop $-1 $-1 $151 $92 #
plane-surface $-1 -62.326703912158266 0 10.309564512088709 0 0 1 1 0 0 forward_v I I I I #
coedge $-1 $238 $239 $150 $240 forward $93 $-1 #
coedge $-1 $241 $95 $242 $243 reversed $59 $-1 #
coedge $-1 $95 $241 $148 $240 reversed $59 $-1 #
coedge $-1 $244 $245 $95 $152 reversed $146 $-1 #
edge $-1 $246 -36.150297550251658 $247 36.150297550251658 $151 $248 forward 7 unknown #
face $-1 $249 $250 $35 $-1 $251 reversed single #
loop $-1 $-1 $252 $96 #
plane-surface $-1 62.326703912158266 0 10.309564512088709 0 0 1 1 0 0 forward_v I I I I #
coedge $-1 $253 $254 $158 $255 forward $97 $-1 #
coedge $-1 $256 $99 $257 $258 reversed $62 $-1 #
coedge $-1 $99 $256 $156 $255 reversed $62 $-1 #
coedge $-1 $259 $260 $99 $160 reversed $154 $-1 #
edge $-1 $261 -36.150297550251658 $262 36.150297550251658 $159 $263 forward 7 unknown #
face $-1 $264 $265 $36 $-1 $266 forward single #
loop $-1 $-1 $267 $100 #
plane-surface $-1 -41.721312502552841 -133.88999615250407 68.352614722237504 1 0 0 0 0.84804810408105047 -0.52991925155115449 forward_v I I I I #
coedge $-1 $268 $269 $270 $271 reversed $101 $-1 #
coedge $-1 $166 $103 $272 $273 reversed $65 $-1 #
coedge $-1 $103 $165 $268 $274 reversed $65 $-1 #
coedge $-1 $270 $275 $103 $168 forward $265 $-1 #
edge $-1 $276 30.794700526000376 $277 33.001420244471682 $167 $278 forward 7 unknown #
loop $-1 $-1 $174 $104 #
plane-surface $-1 -31.574359176137637 -36.150297550251636 7.2780746331874298 0 -0.84804810408105047 0.52991925155115449 1 0 0 forward_v I I I I #
loop $-1 $-1 $279 $67 #
coedge $-1 $172 $172 $173 $280 reversed $105 $-1 #
coedge $-1 $173 $173 $172 $280 forward $107 $-1 #
coedge $-1 $174 $174 $108 $175 forward $169 $-1 #
edge $-1 $281 4.5240324131000867e-015 $281 6.2831853071796049 $174 $282 forward 7 unknown #
face $-1 $283 $284 $38 $-1 $285 reversed single #
loop $-1 $-1 $286 $109 #
plane-surface $-1 6.5040906720014355 -133.88999615250407 68.352614722237504 1 0 0 0 0.84804810408105047 -0.52991925155115449 forward_v I I I I #
coedge $-1 $287 $288 $289 $290 reversed $110 $-1 #
coedge $-1 $181 $112 $291 $292 reversed $71 $-1 #
coedge $-1 $112 $180 $287 $293 reversed $71 $-1 #
coedge $-1 $289 $294 $112 $183 forward $295 $-1 #
edge $-1 $296 30.794700526000376 $297 33.001420244471682 $182 $298 forward 7 unknown #
loop $-1 $-1 $189 $113 #
plane-surface $-1 16.65104399841664 -36.150297550251636 7.2780746331874298 0 -0.84804810408105047 0.52991925155115449 1 0 0 forward_v I I I I #
loop $-1 $-1 $299 $73 #
coedge $-1 $187 $187 $188 $300 reversed $114 $-1 #
coedge $-1 $188 $188 $187 $300 forward $116 $-1 #
coedge $-1 $189 $189 $117 $190 forward $184 $-1 #
edge $-1 $301 4.5240324131000867e-015 $301 6.2831853071796049 $189 $302 forward 7 unknown #
face $-1 $303 $304 $40 $-1 $305 reversed single #
loop $-1 $-1 $306 $118 #
plane-surface $-1 -10.979079115993676 43.031260052125269 140.9555961018734 -1 0 0 0 0.57357644374324357 0.81915203911291934 forward_v I I I I #
coedge $-1 $307 $308 $309 $310 reversed $119 $-1 #
coedge $-1 $196 $121 $311 $312 reversed $77 $-1 #
coedge $-1 $121 $195 $307 $313 reversed $77 $-1 #
coedge $-1 $309 $314 $121 $198 forward $315 $-1 #
edge $-1 $316 -14.634667524189023 $317 -6.4467519349735802 $197 $318 forward 7 unknown #
loop $-1 $-1 $204 $122 #
plane-surface $-1 -22.630031572755783 -23.074882355403169 46.546242402445387 0 0.57357644374324357 0.81915203911291934 1 0 0 forward_v I I I I #
loop $-1 $-1 $319 $79 #
coedge $-1 $202 $202 $203 $320 reversed $123 $-1 #
coedge $-1 $203 $203 $202 $320 forward $125 $-1 #
coedge $-1 $204 $204 $126 $205 forward $199 $-1 #
edge $-1 $321 -1.502905182053293e-015 $321 6.2831853071795987 $204 $322 forward 7 unknown #
loop $-1 $-1 $211 $127 #
plane-surface $-1 -22.630031572755783 -23.074882355403169 46.546242402445387 0 0.57357644374324357 0.81915203911291934 1 0 0 forward_v I I I I #
loop $-1 $-1 $323 $82 #
coedge $-1 $209 $209 $210 $324 reversed $128 $-1 #
coedge $-1 $210 $210 $209 $324 forward $130 $-1 #
coedge $-1 $211 $211 $131 $212 forward $206 $-1 #
edge $-1 $325 -1.502905182053293e-015 $325 6.2831853071795987 $211 $326 forward 7 unknown #
loop $-1 $-1 $218 $132 #
plane-surface $-1 -22.630031572755783 -23.074882355403169 46.546242402445387 0 0.57357644374324357 0.81915203911291934 1 0 0 forward_v I I I I #
loop $-1 $-1 $327 $85 #
coedge $-1 $216 $216 $217 $328 reversed $133 $-1 #
coedge $-1 $217 $217 $216 $328 forward $135 $-1 #
coedge $-1 $218 $218 $136 $219 forward $213 $-1 #
edge $-1 $329 -1.502905182053293e-015 $329 6.2831853071795987 $218 $330 forward 7 unknown #
face $-1 $331 $332 $33 $-1 $333 reversed single #
loop $-1 $-1 $334 $137 #
plane-surface $-1 0 -36.150297550251658 0 0 1 0 0 0 1 forward_v I I I I #
coedge $-1 $335 $336 $142 $228 forward $138 $-1 #
coedge $-1 $337 $140 $230 $338 forward $89 $-1 #
coedge $-1 $140 $337 $339 $340 forward $89 $-1 #
edge $-1 $341 -36.150297550251658 $232 36.150297550251658 $141 $342 forward 7 unknown #
coedge $-1 $142 $141 $343 $344 forward $56 $-1 #
edge $-1 $233 -36.150297550251658 $345 36.150297550251658 $142 $346 forward 7 unknown #
coedge $-1 $347 $143 $336 $348 reversed $231 $-1 #
coedge $-1 $143 $347 $224 $338 reversed $231 $-1 #
loop $-1 $-1 $143 $331 #
vertex $-1 $226 $349 #
vertex $-1 $228 $350 #
straight-curve $-1 57.626270332956935 36.150297550251658 0 0 0 -1 I I #
face $-1 $351 $352 $34 $-1 $353 reversed single #
loop $-1 $-1 $354 $145 #
plane-surface $-1 -62.326703912158266 0 4.1179573310349618 0 0 1 1 0 0 forward_v I I I I #
coedge $-1 $355 $148 $356 $357 reversed $93 $-1 #
coedge $-1 $148 $355 $244 $358 reversed $93 $-1 #
edge $-1 $246 -10.309564512088709 $359 -4.1179573310349618 $148 $360 forward 7 unknown #
coedge $-1 $150 $149 $354 $361 forward $59 $-1 #
coedge $-1 $362 $363 $149 $243 forward $364 $-1 #
edge $-1 $365 4.1179573310349618 $247 10.309564512088709 $242 $366 forward 7 unknown #
coedge $-1 $367 $151 $239 $358 forward $146 $-1 #
coedge $-1 $151 $367 $362 $368 forward $146 $-1 #
vertex $-1 $240 $369 #
vertex $-1 $368 $370 #
straight-curve $-1 -57.626270332956935 0 10.309564512088709 0 -1 0 I I #
face $-1 $371 $372 $35 $-1 $373 reversed single #
loop $-1 $-1 $374 $153 #
plane-surface $-1 62.326703912158266 0 4.1179573310349618 0 0 1 1 0 0 forward_v I I I I #
coedge $-1 $260 $259 $375 $376 forward $154 $-1 #
coedge $-1 $377 $156 $378 $379 reversed $97 $-1 #
coedge $-1 $156 $377 $259 $380 reversed $97 $-1 #
edge $-1 $261 -10.309564512088709 $381 -4.1179573310349618 $156 $382 forward 7 unknown #
coedge $-1 $158 $157 $383 $384 forward $62 $-1 #
coedge $-1 $385 $386 $157 $258 forward $387 $-1 #
edge $-1 $388 4.1179573310349618 $262 10.309564512088709 $257 $389 forward 7 unknown #
coedge $-1 $252 $159 $254 $380 forward $154 $-1 #
coedge $-1 $159 $252 $385 $390 forward $154 $-1 #
vertex $-1 $255 $391 #
vertex $-1 $390 $392 #
straight-curve $-1 57.626270332956935 0 10.309564512088709 0 1 0 I I #
face $-1 $-1 $393 $36 $-1 $394 reversed single #
loop $-1 $-1 $167 $161 #
plane-surface $-1 0 0 10.809564512088709 0 0 1 1 0 0 forward_v I I I I #
coedge $-1 $395 $396 $397 $398 reversed $162 $-1 #
coedge $-1 $399 $164 $166 $274 forward $101 $-1 #
coedge $-1 $164 $399 $395 $400 forward $101 $-1 #
coedge $-1 $397 $167 $164 $271 forward $265 $-1 #
edge $-1 $277 5.6402262616536145 $401 25.934132914484024 $270 $402 forward 7 unknown #
coedge $-1 $403 $404 $165 $273 forward $393 $-1 #
edge $-1 $405 -26.898232727931358 $276 -23.366742849030043 $272 $406 forward 7 unknown #
edge $-1 $277 -4.164256557979126 $405 3.9918193188544054e-014 $166 $407 forward 7 unknown #
coedge $-1 $167 $397 $403 $408 forward $265 $-1 #
vertex $-1 $273 $409 #
vertex $-1 $168 $410 #
straight-curve $-1 -21.427405849722433 -66.944998076252034 10.809564512088709 0 1 0 I I #
coedge $-1 $279 $279 $-1 $411 reversed $171 $-1 #
edge $-1 $412 0 $412 6.2831853071796004 $172 $413 forward 7 unknown #
vertex $-1 $175 $414 #
ellipse-curve $-1 -31.574359176137641 -35.046937691015998 9.0438195726380588 0 -0.84804810408105047 0.52991925155115449 0.5 0 0 1 I I #
face $-1 $-1 $295 $38 $-1 $415 forward single #
loop $-1 $-1 $416 $176 #
plane-surface $-1 0 -36.150297550251658 0 0 1 0 0 0 1 forward_v I I I I #
coedge $-1 $417 $418 $419 $420 reversed $177 $-1 #
coedge $-1 $421 $179 $181 $293 forward $110 $-1 #
coedge $-1 $179 $421 $417 $422 forward $110 $-1 #
coedge $-1 $419 $182 $179 $290 forward $295 $-1 #
edge $-1 $297 -18.472475325623524 $423 1.8214313272068843 $289 $424 forward 7 unknown #
coedge $-1 $425 $426 $180 $292 forward $284 $-1 #
edge $-1 $427 -26.898232727931358 $296 -23.366742849030043 $291 $428 forward 7 unknown #
edge $-1 $297 -4.164256557979126 $427 3.9918193188544054e-014 $181 $429 forward 7 unknown #
coedge $-1 $182 $419 $425 $430 forward $295 $-1 #
loop $-1 $-1 $419 $283 #
vertex $-1 $292 $431 #
vertex $-1 $183 $432 #
straight-curve $-1 26.797997324831844 -66.944998076252034 10.809564512088709 0 1 0 I I #
coedge $-1 $299 $299 $-1 $433 reversed $186 $-1 #
edge $-1 $434 0 $434 6.2831853071796004 $187 $435 forward 7 unknown #
vertex $-1 $190 $436 #
ellipse-curve $-1 16.651043998416625 -35.046937691015998 9.0438195726380588 0 -0.84804810408105047 0.52991925155115449 0.5 0 0 1 I I #
face $-1 $-1 $315 $40 $-1 $437 forward single #
loop $-1 $-1 $438 $191 #
plane-surface $-1 0 36.150297550251658 0 0 -1 0 0 0 -1 forward_v I I I I #
coedge $-1 $439 $440 $441 $442 reversed $192 $-1 #
coedge $-1 $443 $194 $196 $313 forward $119 $-1 #
coedge $-1 $194 $443 $439 $444 forward $119 $-1 #
coedge $-1 $441 $197 $194 $310 forward $315 $-1 #
edge $-1 $317 -22.965968243139997 $445 0.33593667038421593 $309 $446 forward 7 unknown #
coedge $-1 $447 $448 $195 $312 forward $304 $-1 #
edge $-1 $449 -65.401473866758181 $316 -59.668233538847986 $311 $450 forward 7 unknown #
edge $-1 $317 62.30499575110494 $449 72.300595100503301 $196 $451 forward 7 unknown #
coedge $-1 $197 $441 $447 $452 forward $315 $-1 #
loop $-1 $-1 $441 $303 #
vertex $-1 $312 $453 #
vertex $-1 $198 $454 #
straight-curve $-1 -34.280984029517889 21.515630026062635 10.809564512088713 0 -1 0 I I #
coedge $-1 $319 $319 $-1 $455 reversed $201 $-1 #
edge $-1 $456 0 $456 6.2831853071796004 $202 $457 forward 7 unknown #
vertex $-1 $205 $458 #
ellipse-curve $-1 -29.620603046813049 32.056339755643947 7.9429443481336088 0 0.57357644374324357 0.81915203911291934 1.5 0 0 1 I I #
coedge $-1 $323 $323 $-1 $459 reversed $208 $-1 #
edge $-1 $460 0 $460 6.2831853071796004 $209 $461 forward 7 unknown #
vertex $-1 $212 $462 #
ellipse-curve $-1 -22.630031572755783 32.056339755643947 7.9429443481336088 0 0.57357644374324357 0.81915203911291934 1.5 0 0 1 I I #
coedge $-1 $327 $327 $-1 $463 reversed $215 $-1 #
edge $-1 $464 0 $464 6.2831853071796004 $216 $465 forward 7 unknown #
vertex $-1 $219 $466 #
ellipse-curve $-1 -15.639460098698521 32.056339755643947 7.9429443481336088 0 0.57357644374324357 0.81915203911291934 1.5 0 0 1 I I #
face $-1 $-1 $231 $33 $-1 $467 reversed single #
loop $-1 $-1 $468 $220 #
plane-surface $-1 -57.626270332956935 0 0 1 0 0 0 0 -1 forward_v I I I I #
coedge $-1 $469 $339 $468 $470 forward $221 $-1 #
coedge $-1 $471 $223 $469 $472 forward $138 $-1 #
coedge $-1 $223 $471 $229 $348 forward $138 $-1 #
coedge $-1 $225 $224 $473 $474 forward $89 $-1 #
edge $-1 $232 -57.626270332956935 $475 57.626270332956935 $230 $476 forward 7 unknown #
coedge $-1 $334 $343 $225 $340 reversed $221 $-1 #
edge $-1 $477 -57.626270332956935 $341 57.626270332956935 $339 $478 forward 7 unknown #
vertex $-1 $226 $479 #
straight-curve $-1 57.626270332956935 0 10.809564512088709 0 1 0 I I #
coedge $-1 $339 $469 $227 $344 reversed $221 $-1 #
edge $-1 $341 -10.809564512088709 $345 10.809564512088709 $227 $480 forward 7 unknown #
vertex $-1 $344 $481 #
straight-curve $-1 57.626270332956935 0 -10.809564512088709 0 -1 0 I I #
coedge $-1 $230 $229 $482 $483 reversed $231 $-1 #
edge $-1 $484 -57.626270332956935 $233 57.626270332956935 $229 $485 forward 7 unknown #
point $-1 57.626270332956935 36.150297550251658 10.809564512088709 #
point $-1 57.626270332956935 36.150297550251658 -10.809564512088709 #
face $-1 $-1 $364 $34 $-1 $486 reversed single #
loop $-1 $-1 $487 $235 #
plane-surface $-1 -67.027137491359596 0 7.2137609215618355 1 0 0 0 0 -1 forward_v I I I I #
coedge $-1 $488 $356 $241 $361 reversed $236 $-1 #
coedge $-1 $239 $238 $487 $489 reversed $93 $-1 #
coedge $-1 $354 $490 $238 $357 forward $236 $-1 #
edge $-1 $491 -4.7004335792013308 $359 4.7004335792013308 $238 $492 forward 7 unknown #
edge $-1 $246 -4.7004335792013308 $493 4.7004335792013308 $239 $494 forward 7 unknown #
vertex $-1 $240 $495 #
straight-curve $-1 -57.626270332956935 36.150297550251658 0 0 0 -1 I I #
edge $-1 $365 -36.150297550251658 $359 36.150297550251658 $354 $496 forward 7 unknown #
coedge $-1 $497 $242 $245 $368 reversed $364 $-1 #
coedge $-1 $242 $497 $488 $498 reversed $364 $-1 #
loop $-1 $-1 $242 $351 #
vertex $-1 $243 $499 #
straight-curve $-1 -57.626270332956935 -36.150297550251658 0 0 0 1 I I #
coedge $-1 $245 $244 $500 $501 forward $146 $-1 #
edge $-1 $502 -4.7004335792013308 $247 4.7004335792013308 $362 $503 forward 7 unknown #
point $-1 -57.626270332956935 36.150297550251658 10.309564512088709 #
point $-1 -57.626270332956935 -36.150297550251658 10.309564512088709 #
face $-1 $-1 $387 $35 $-1 $504 reversed single #
loop $-1 $-1 $505 $249 #
plane-surface $-1 67.027137491359596 0 7.2137609215618355 -1 0 0 0 0 1 forward_v I I I I #
coedge $-1 $378 $506 $507 $508 forward $250 $-1 #
coedge $-1 $505 $509 $252 $376 reversed $372 $-1 #
edge $-1 $510 -36.150297550251658 $511 36.150297550251658 $375 $512 forward 7 unknown #
coedge $-1 $254 $253 $505 $513 reversed $97 $-1 #
coedge $-1 $383 $374 $253 $379 forward $250 $-1 #
edge $-1 $514 -4.7004335792013308 $381 4.7004335792013308 $253 $515 forward 7 unknown #
edge $-1 $261 -4.7004335792013308 $510 4.7004335792013308 $254 $516 forward 7 unknown #
vertex $-1 $255 $517 #
straight-curve $-1 57.626270332956935 -36.150297550251658 0 0 0 -1 I I #
coedge $-1 $506 $378 $256 $384 reversed $250 $-1 #
edge $-1 $388 -36.150297550251658 $381 36.150297550251658 $383 $518 forward 7 unknown #
coedge $-1 $519 $257 $260 $390 reversed $387 $-1 #
coedge $-1 $257 $519 $506 $520 reversed $387 $-1 #
loop $-1 $-1 $257 $371 #
vertex $-1 $258 $521 #
straight-curve $-1 57.626270332956935 36.150297550251658 0 0 0 1 I I #
edge $-1 $511 -4.7004335792013308 $262 4.7004335792013308 $385 $522 forward 7 unknown #
point $-1 57.626270332956935 -36.150297550251658 10.309564512088709 #
point $-1 57.626270332956935 36.150297550251658 10.309564512088709 #
loop $-1 $-1 $272 $264 #
plane-surface $-1 0 -36.150297550251658 0 0 1 0 0 0 1 forward_v I I I I #
coedge $-1 $396 $267 $269 $400 reversed $162 $-1 #
coedge $-1 $267 $395 $523 $524 reversed $162 $-1 #
coedge $-1 $275 $270 $267 $398 forward $265 $-1 #
edge $-1 $401 -33.001420244471682 $525 -30.794700526000376 $397 $526 forward 7 unknown #
coedge $-1 $269 $268 $404 $527 reversed $101 $-1 #
edge $-1 $528 -3.9918193188544054e-014 $401 4.164256557979126 $395 $529 forward 7 unknown #
vertex $-1 $271 $530 #
straight-curve $-1 -15.787179588068819 -33.943577831780345 10.809564512088709 -1 0 0 I I #
coedge $-1 $523 $272 $275 $408 reversed $393 $-1 #
coedge $-1 $272 $523 $399 $527 forward $393 $-1 #
vertex $-1 $273 $531 #
straight-curve $-1 -21.427405849722433 -36.150297550251658 34.176307361118752 0 0 1 I I #
straight-curve $-1 -21.427405849722433 -36.150297550251636 7.2780746331874298 0 -0.52991925155115449 -0.84804810408105047 I I #
edge $-1 $525 -41.721312502552841 $276 -21.427405849722433 $403 $532 forward 7 unknown #
point $-1 -21.427405849722433 -36.150297550251658 10.809564512088709 #
point $-1 -21.427405849722433 -33.943577831780352 10.809564512088709 #
edge $-1 $533 1 $533 0 $279 $-1 forward 7 unknown #
vertex $-1 $280 $534 #
ellipse-curve $-1 -31.574359176137641 -33.35247199619225 7.9849999273148642 0 -0.84804810408105047 0.52991925155115449 0.5 0 0 1 I I #
point $-1 -31.074359176137641 -35.046937691016019 9.0438195726380748 #
plane-surface $-1 0 0 10.809564512088709 0 0 1 1 0 0 forward_v I I I I #
coedge $-1 $426 $425 $418 $535 forward $284 $-1 #
coedge $-1 $418 $286 $288 $422 reversed $177 $-1 #
coedge $-1 $286 $417 $416 $535 reversed $177 $-1 #
coedge $-1 $294 $289 $286 $420 forward $295 $-1 #
edge $-1 $423 -33.001420244471682 $536 -30.794700526000376 $419 $537 forward 7 unknown #
coedge $-1 $288 $287 $426 $538 reversed $110 $-1 #
edge $-1 $539 -3.9918193188544054e-014 $423 4.164256557979126 $417 $540 forward 7 unknown #
vertex $-1 $290 $541 #
straight-curve $-1 8.3255219992083198 -33.943577831780345 10.809564512088709 -1 0 0 I I #
coedge $-1 $416 $291 $294 $430 reversed $284 $-1 #
coedge $-1 $291 $416 $421 $538 forward $284 $-1 #
vertex $-1 $292 $542 #
straight-curve $-1 26.797997324831844 -36.150297550251658 34.176307361118752 0 0 1 I I #
straight-curve $-1 26.797997324831844 -36.150297550251636 7.2780746331874298 0 -0.52991925155115449 -0.84804810408105047 I I #
edge $-1 $536 6.5040906720014355 $296 26.797997324831844 $425 $543 forward 7 unknown #
point $-1 26.797997324831844 -36.150297550251658 10.809564512088709 #
point $-1 26.797997324831844 -33.943577831780352 10.809564512088709 #
edge $-1 $544 1 $544 0 $299 $-1 forward 7 unknown #
vertex $-1 $300 $545 #
ellipse-curve $-1 16.651043998416625 -33.35247199619225 7.9849999273148642 0 -0.84804810408105047 0.52991925155115449 0.5 0 0 1 I I #
point $-1 17.151043998416625 -35.046937691016019 9.0438195726380748 #
plane-surface $-1 0 0 10.809564512088709 0 0 1 1 0 0 forward_v I I I I #
coedge $-1 $448 $447 $440 $546 forward $304 $-1 #
coedge $-1 $440 $306 $308 $444 reversed $192 $-1 #
coedge $-1 $306 $439 $438 $546 reversed $192 $-1 #
coedge $-1 $314 $309 $306 $442 forward $315 $-1 #
edge $-1 $445 6.4467519349735802 $547 14.634667524189023 $441 $548 forward 7 unknown #
coedge $-1 $308 $307 $448 $549 reversed $119 $-1 #
edge $-1 $550 -72.300595100503301 $445 -62.30499575110494 $439 $551 forward 7 unknown #
vertex $-1 $310 $552 #
straight-curve $-1 -11.315015786377892 27.962381961036225 10.809564512088713 1 0 0 I I #
coedge $-1 $438 $311 $314 $452 reversed $304 $-1 #
coedge $-1 $311 $438 $443 $549 forward $304 $-1 #
vertex $-1 $312 $553 #
straight-curve $-1 -34.280984029517889 36.150297550251658 70.477798050936698 0 0 1 I I #
straight-curve $-1 -34.280984029517889 -23.074882355403169 46.546242402445387 0 0.81915203911291934 -0.57357644374324357 I I #
edge $-1 $547 10.979079115993676 $316 34.280984029517889 $447 $554 forward 7 unknown #
point $-1 -34.280984029517889 36.150297550251658 10.809564512088709 #
point $-1 -34.280984029517889 27.962381961036215 10.809564512088713 #
edge $-1 $555 1 $555 0 $319 $-1 forward 7 unknown #
vertex $-1 $320 $556 #
ellipse-curve $-1 -29.620603046813049 28.653400181427436 3.0830430714952097 0 0.57357644374324357 0.81915203911291934 1.5 0 0 1 I I #
point $-1 -28.120603046813049 32.05633975564394 7.9429443481336026 #
edge $-1 $557 1 $557 0 $323 $-1 forward 7 unknown #
vertex $-1 $324 $558 #
ellipse-curve $-1 -22.630031572755783 28.653400181427436 3.0830430714952097 0 0.57357644374324357 0.81915203911291934 1.5 0 0 1 I I #
point $-1 -21.130031572755783 32.05633975564394 7.9429443481336026 #
edge $-1 $559 1 $559 0 $327 $-1 forward 7 unknown #
vertex $-1 $328 $560 #
ellipse-curve $-1 -15.639460098698521 28.653400181427436 3.0830430714952097 0 0.57357644374324357 0.81915203911291934 1.5 0 0 1 I I #
point $-1 -14.139460098698521 32.05633975564394 7.9429443481336026 #
plane-surface $-1 0 36.150297550251658 0 0 -1 0 0 0 -1 forward_v I I I I #
coedge $-1 $473 $561 $334 $470 reversed $332 $-1 #
coedge $-1 $343 $334 $335 $472 reversed $221 $-1 #
edge $-1 $477 -10.809564512088709 $562 10.809564512088709 $468 $563 forward 7 unknown #
coedge $-1 $336 $335 $561 $564 forward $138 $-1 #
edge $-1 $345 -57.626270332956935 $562 57.626270332956935 $469 $565 forward 7 unknown #
coedge $-1 $482 $468 $337 $474 reversed $332 $-1 #
edge $-1 $475 -36.150297550251658 $477 36.150297550251658 $473 $566 forward 7 unknown #
vertex $-1 $338 $567 #
straight-curve $-1 0 36.150297550251658 10.809564512088709 -1 0 0 I I #
vertex $-1 $474 $568 #
straight-curve $-1 0 -36.150297550251658 10.809564512088709 1 0 0 I I #
point $-1 57.626270332956935 -36.150297550251658 10.809564512088709 #
straight-curve $-1 57.626270332956935 -36.150297550251658 0 0 0 -1 I I #
point $-1 57.626270332956935 -36.150297550251658 -10.809564512088709 #
coedge $-1 $561 $473 $347 $483 forward $332 $-1 #
edge $-1 $475 -10.809564512088709 $484 10.809564512088709 $347 $569 forward 7 unknown #
vertex $-1 $348 $570 #
straight-curve $-1 0 36.150297550251658 -10.809564512088709 1 0 0 I I #
plane-surface $-1 0 -36.150297550251658 0 0 1 0 0 0 1 forward_v I I I I #
coedge $-1 $571 $500 $355 $489 forward $352 $-1 #
coedge $-1 $490 $354 $363 $498 forward $236 $-1 #
edge $-1 $493 -3.0958035905268737 $491 3.0958035905268737 $355 $572 forward 7 unknown #
coedge $-1 $356 $488 $571 $573 forward $236 $-1 #
vertex $-1 $357 $574 #
straight-curve $-1 -62.326703912158266 36.150297550251658 4.1179573310349618 1 0 0 I I #
vertex $-1 $358 $575 #
straight-curve $-1 -62.326703912158266 36.150297550251658 10.309564512088709 -1 0 0 I I #
point $-1 -57.626270332956935 36.150297550251658 4.1179573310349618 #
straight-curve $-1 -57.626270332956935 0 4.1179573310349618 0 1 0 I I #
coedge $-1 $363 $362 $576 $577 forward $364 $-1 #
edge $-1 $365 -4.7004335792013308 $578 4.7004335792013308 $363 $579 forward 7 unknown #
point $-1 -57.626270332956935 -36.150297550251658 4.1179573310349618 #
coedge $-1 $487 $576 $367 $501 reversed $352 $-1 #
edge $-1 $493 -36.150297550251658 $502 36.150297550251658 $500 $580 forward 7 unknown #
vertex $-1 $501 $581 #
straight-curve $-1 -62.326703912158266 -36.150297550251658 10.309564512088709 1 0 0 I I #
plane-surface $-1 0 36.150297550251658 0 0 -1 0 0 0 -1 forward_v I I I I #
coedge $-1 $507 $375 $377 $513 forward $372 $-1 #
coedge $-1 $374 $383 $386 $520 forward $250 $-1 #
coedge $-1 $509 $505 $374 $508 reversed $372 $-1 #
edge $-1 $582 -36.150297550251658 $514 36.150297550251658 $507 $583 forward 7 unknown #
coedge $-1 $375 $507 $519 $584 reversed $372 $-1 #
vertex $-1 $376 $585 #
vertex $-1 $376 $586 #
straight-curve $-1 67.027137491359596 0 10.309564512088709 0 1 0 I I #
edge $-1 $510 -3.0958035905268737 $514 3.0958035905268737 $505 $587 forward 7 unknown #
vertex $-1 $513 $588 #
straight-curve $-1 62.326703912158266 -36.150297550251658 4.1179573310349618 -1 0 0 I I #
straight-curve $-1 62.326703912158266 -36.150297550251658 10.309564512088709 1 0 0 I I #
point $-1 57.626270332956935 -36.150297550251658 4.1179573310349618 #
straight-curve $-1 57.626270332956935 0 4.1179573310349618 0 -1 0 I I #
coedge $-1 $386 $385 $509 $584 forward $387 $-1 #
edge $-1 $388 -4.7004335792013308 $582 4.7004335792013308 $386 $589 forward 7 unknown #
point $-1 57.626270332956935 36.150297550251658 4.1179573310349618 #
straight-curve $-1 62.326703912158266 36.150297550251658 10.309564512088709 -1 0 0 I I #
coedge $-1 $404 $403 $396 $524 forward $393 $-1 #
edge $-1 $525 23.366742849030043 $528 26.898232727931358 $523 $590 forward 7 unknown #
vertex $-1 $408 $591 #
straight-curve $-1 -41.721312502552841 -66.944998076252034 10.809564512088709 0 -1 0 I I #
edge $-1 $528 -25.934132914484024 $405 -5.6402262616536145 $404 $592 forward 7 unknown #
vertex $-1 $527 $593 #
straight-curve $-1 -41.721312502552841 -36.150297550251636 7.2780746331874298 0 0.52991925155115449 0.84804810408105047 I I #
point $-1 -41.721312502552841 -33.943577831780352 10.809564512088709 #
point $-1 -21.427405849722433 -36.150297550251658 7.278074633187396 #
straight-curve $-1 0 -36.150297550251658 10.809564512088709 1 0 0 I I #
vertex $-1 $411 $594 #
point $-1 -31.074359176137641 -33.35247199619225 7.9849999273148642 #
edge $-1 $536 23.366742849030043 $539 26.898232727931358 $416 $595 forward 7 unknown #
vertex $-1 $430 $596 #
straight-curve $-1 6.5040906720014355 -66.944998076252034 10.809564512088709 0 -1 0 I I #
edge $-1 $539 -1.8214313272068843 $427 18.472475325623524 $426 $597 forward 7 unknown #
vertex $-1 $538 $598 #
straight-curve $-1 6.5040906720014355 -36.150297550251636 7.2780746331874298 0 0.52991925155115449 0.84804810408105047 I I #
point $-1 6.5040906720014355 -33.943577831780352 10.809564512088709 #
point $-1 26.797997324831844 -36.150297550251658 7.278074633187396 #
straight-curve $-1 0 -36.150297550251658 10.809564512088709 1 0 0 I I #
vertex $-1 $433 $599 #
point $-1 17.151043998416625 -33.35247199619225 7.9849999273148642 #
edge $-1 $547 59.668233538847986 $550 65.401473866758181 $438 $600 forward 7 unknown #
vertex $-1 $452 $601 #
straight-curve $-1 -10.979079115993676 21.515630026062635 10.809564512088713 0 1 0 I I #
edge $-1 $550 -0.33593667038421593 $449 22.965968243139997 $448 $602 forward 7 unknown #
vertex $-1 $549 $603 #
straight-curve $-1 -10.979079115993676 -23.074882355403169 46.546242402445387 0 -0.81915203911291934 0.57357644374324357 I I #
point $-1 -10.979079115993676 27.962381961036215 10.809564512088713 #
point $-1 -34.280984029517889 36.150297550251658 5.0763241841785245 #
straight-curve $-1 0 36.150297550251658 10.809564512088709 -1 0 0 I I #
vertex $-1 $455 $604 #
point $-1 -28.120603046813049 28.653400181427436 3.0830430714952097 #
vertex $-1 $459 $605 #
point $-1 -21.130031572755783 28.653400181427436 3.0830430714952097 #
vertex $-1 $463 $606 #
point $-1 -14.139460098698521 28.653400181427436 3.0830430714952097 #
coedge $-1 $468 $482 $471 $564 reversed $332 $-1 #
vertex $-1 $564 $607 #
straight-curve $-1 -57.626270332956935 -36.150297550251658 0 0 0 -1 I I #
edge $-1 $562 -36.150297550251658 $484 36.150297550251658 $561 $608 forward 7 unknown #
straight-curve $-1 0 -36.150297550251658 -10.809564512088709 -1 0 0 I I #
straight-curve $-1 -57.626270332956935 0 10.809564512088709 0 -1 0 I I #
point $-1 -57.626270332956935 36.150297550251658 10.809564512088709 #
point $-1 -57.626270332956935 -36.150297550251658 10.809564512088709 #
straight-curve $-1 -57.626270332956935 36.150297550251658 0 0 0 -1 I I #
point $-1 -57.626270332956935 36.150297550251658 -10.809564512088709 #
coedge $-1 $576 $487 $490 $573 reversed $352 $-1 #
straight-curve $-1 -67.027137491359596 36.150297550251658 7.2137609215618355 0 0 -1 I I #
edge $-1 $578 -36.150297550251658 $491 36.150297550251658 $571 $609 forward 7 unknown #
point $-1 -67.027137491359596 36.150297550251658 4.1179573310349618 #
point $-1 -67.027137491359596 36.150297550251658 10.309564512088709 #
coedge $-1 $500 $571 $497 $577 reversed $352 $-1 #
edge $-1 $502 -3.0958035905268737 $578 3.0958035905268737 $576 $610 forward 7 unknown #
vertex $-1 $573 $611 #
straight-curve $-1 -62.326703912158266 -36.150297550251658 4.1179573310349618 -1 0 0 I I #
straight-curve $-1 -67.027137491359596 0 10.309564512088709 0 -1 0 I I #
point $-1 -67.027137491359596 -36.150297550251658 10.309564512088709 #
vertex $-1 $508 $612 #
straight-curve $-1 67.027137491359596 0 4.1179573310349618 0 -1 0 I I #
edge $-1 $511 -3.0958035905268737 $582 3.0958035905268737 $509 $613 forward 7 unknown #
point $-1 67.027137491359596 -36.150297550251658 10.309564512088709 #
point $-1 67.027137491359596 36.150297550251658 10.309564512088709 #
straight-curve $-1 67.027137491359596 -36.150297550251658 7.2137609215618355 0 0 -1 I I #
point $-1 67.027137491359596 -36.150297550251658 4.1179573310349618 #
straight-curve $-1 62.326703912158266 36.150297550251658 4.1179573310349618 1 0 0 I I #
straight-curve $-1 -41.721312502552841 -36.150297550251658 34.176307361118752 0 0 -1 I I #
point $-1 -41.721312502552841 -36.150297550251658 10.809564512088709 #
straight-curve $-1 -15.787179588068819 -36.150297550251658 7.2780746331873987 1 0 0 I I #
point $-1 -41.721312502552841 -36.150297550251658 7.278074633187396 #
point $-1 -31.574359176137641 -32.928447944151728 7.7200403015392878 #
straight-curve $-1 6.5040906720014355 -36.150297550251658 34.176307361118752 0 0 -1 I I #
point $-1 6.5040906720014355 -36.150297550251658 10.809564512088709 #
straight-curve $-1 8.3255219992083198 -36.150297550251658 7.2780746331873987 1 0 0 I I #
point $-1 6.5040906720014355 -36.150297550251658 7.278074633187396 #
point $-1 16.651043998416625 -32.928447944151728 7.7200403015392878 #
straight-curve $-1 -10.979079115993676 36.150297550251658 70.477798050936698 0 0 -1 I I #
point $-1 -10.979079115993676 36.150297550251658 10.809564512088709 #
straight-curve $-1 -11.315015786377892 36.150297550251658 5.0763241841785245 -1 0 0 I I #
point $-1 -10.979079115993676 36.150297550251658 5.0763241841785245 #
point $-1 -29.620603046813049 27.793035515812569 1.8543150128258308 #
point $-1 -22.630031572755783 27.793035515812569 1.8543150128258308 #
point $-1 -15.639460098698521 27.793035515812569 1.8543150128258308 #
point $-1 -57.626270332956935 -36.150297550251658 -10.809564512088709 #
straight-curve $-1 -57.626270332956935 0 -10.809564512088709 0 1 0 I I #
straight-curve $-1 -67.027137491359596 0 4.1179573310349618 0 1 0 I I #
straight-curve $-1 -67.027137491359596 -36.150297550251658 7.2137609215618355 0 0 -1 I I #
point $-1 -67.027137491359596 -36.150297550251658 4.1179573310349618 #
point $-1 67.027137491359596 36.150297550251658 4.1179573310349618 #
straight-curve $-1 67.027137491359596 36.150297550251658 7.2137609215618355 0 0 -1 I I #
End-of-ACIS-data 