500 0 10 0           
7 Unknown 11 ACIS 5.0 NT 24 Fri Mar 26 14:54:26 1999 
-1 9.9999999999999995e-007 1e-010 
body $-1 $10 $-1 $11 #
body $-1 $12 $-1 $13 #
body $-1 $14 $-1 $15 #
body $-1 $16 $-1 $17 #
body $-1 $18 $-1 $19 #
body $-1 $20 $-1 $21 #
body $-1 $22 $-1 $23 #
body $-1 $24 $-1 $25 #
body $-1 $26 $-1 $27 #
body $-1 $28 $-1 $29 #
lump $-1 $-1 $30 $0 #
transform $-1 1 0 0 0 1 0 0 0 1 60.138554033021023 30.52058688426526 13.751076640821097 1 rotate no_reflect no_shear #
lump $-1 $-1 $31 $1 #
transform $-1 1 0 0 0 1 0 0 0 1 60.138554033021023 30.52058688426526 13.751076640821097 1 rotate no_reflect no_shear #
lump $-1 $-1 $32 $2 #
transform $-1 1 0 0 0 1 0 0 0 1 60.138554033021023 30.52058688426526 13.751076640821097 1 rotate no_reflect no_shear #
lump $-1 $-1 $33 $3 #
transform $-1 1 0 0 0 1 0 0 0 1 60.138554033021023 30.52058688426526 13.751076640821097 1 rotate no_reflect no_shear #
lump $-1 $-1 $34 $4 #
transform $-1 1 0 0 0 1 0 0 0 1 60.138554033021023 30.52058688426526 13.751076640821097 1 rotate no_reflect no_shear #
lump $-1 $-1 $35 $5 #
transform $-1 1 0 0 0 1 0 0 0 1 60.138554033021023 30.52058688426526 13.751076640821097 1 rotate no_reflect no_shear #
lump $-1 $-1 $36 $6 #
transform $-1 1 0 0 0 1 0 0 0 1 60.138554033021023 30.52058688426526 13.751076640821097 1 rotate no_reflect no_shear #
lump $-1 $-1 $37 $7 #
transform $-1 1 0 0 0 1 0 0 0 1 60.138554033021023 30.52058688426526 13.751076640821097 1 rotate no_reflect no_shear #
lump $-1 $-1 $38 $8 #
transform $-1 1 0 0 0 1 0 0 0 1 60.138554033021023 30.52058688426526 13.751076640821097 1 rotate no_reflect no_shear #
lump $-1 $-1 $39 $9 #
transform $-1 1 0 0 0 1 0 0 0 1 60.138554033021023 30.52058688426526 13.751076640821097 1 rotate no_reflect no_shear #
shell $-1 $-1 $-1 $40 $-1 $10 #
shell $-1 $-1 $-1 $41 $-1 $12 #
shell $-1 $-1 $-1 $42 $-1 $14 #
shell $-1 $-1 $-1 $43 $-1 $16 #
shell $-1 $-1 $-1 $44 $-1 $18 #
shell $-1 $-1 $-1 $45 $-1 $20 #
shell $-1 $-1 $-1 $46 $-1 $22 #
shell $-1 $-1 $-1 $47 $-1 $24 #
shell $-1 $-1 $-1 $48 $-1 $26 #
shell $-1 $-1 $-1 $49 $-1 $28 #
face $-1 $50 $51 $30 $-1 $52 forward single #
face $-1 $53 $54 $31 $-1 $55 forward single #
face $-1 $56 $57 $32 $-1 $58 reversed single #
face $-1 $59 $60 $33 $-1 $61 forward single #
face $-1 $62 $63 $34 $-1 $64 reversed single #
face $-1 $65 $66 $35 $-1 $67 forward single #
face $-1 $68 $69 $36 $-1 $70 reversed single #
face $-1 $71 $72 $37 $-1 $73 forward single #
face $-1 $74 $75 $38 $-1 $76 reversed single #
face $-1 $77 $78 $39 $-1 $79 forward single #
face $-1 $80 $81 $30 $-1 $82 reversed single #
loop $-1 $-1 $83 $40 #
plane-surface $-1 0 0 13.751076640821097 0 0 1 1 0 0 forward_v I I I I #
face $-1 $84 $85 $31 $-1 $86 reversed single #
loop $-1 $-1 $87 $41 #
plane-surface $-1 -54.768520866051873 0 11.686662190789725 0 0 1 1 0 0 forward_v I I I I #
face $-1 $88 $89 $32 $-1 $90 reversed single #
loop $-1 $-1 $91 $42 #
plane-surface $-1 -40.625696213210972 -30.520586884265271 10.629020898446598 0 -0.57357644374324357 0.81915203911291934 1 0 0 forward_v I I I I #
face $-1 $92 $93 $33 $-1 $94 forward single #
loop $-1 $95 $96 $43 #
cone-surface $-1 -40.625696213210972 -27.565034434656567 11.152965339152571 0 0.57357644374324357 -0.81915203911291934 1 0 0 1 I I 0 1 1 forward I I I I #
face $-1 $97 $98 $34 $-1 $99 reversed single #
loop $-1 $-1 $100 $44 #
plane-surface $-1 42.592971061277503 -99.508702792507464 109.1542592293499 1 0 0 0 0.57357644374324357 -0.81915203911291934 forward_v I I I I #
face $-1 $101 $102 $35 $-1 $103 forward single #
loop $-1 $104 $105 $45 #
cone-surface $-1 51.365762547149259 -27.565034434656567 11.152965339152571 0 0.57357644374324357 -0.81915203911291934 1 0 0 1 I I 0 1 1 forward I I I I #
face $-1 $106 $107 $36 $-1 $108 reversed single #
loop $-1 $-1 $109 $46 #
plane-surface $-1 -40.625696213210972 -19.481415078072558 45.640800270513665 0 0.57357644374324357 0.81915203911291934 1 0 0 forward_v I I I I #
face $-1 $110 $111 $37 $-1 $112 forward single #
loop $-1 $113 $114 $47 #
cone-surface $-1 -40.625696213210972 27.565034434656553 11.152965339152571 0 -0.57357644374324357 -0.81915203911291934 1 0 0 1 I I 0 1 1 forward I I I I #
face $-1 $115 $116 $38 $-1 $117 reversed single #
loop $-1 $-1 $118 $48 #
plane-surface $-1 42.592971061277503 49.506700830169635 144.16603860141697 1 0 0 0 -0.57357644374324357 -0.81915203911291934 forward_v I I I I #
face $-1 $119 $120 $39 $-1 $121 forward single #
loop $-1 $122 $123 $49 #
cone-surface $-1 51.365762547149259 27.565034434656553 11.152965339152571 0 -0.57357644374324357 -0.81915203911291934 1 0 0 1 I I 0 1 1 forward I I I I #
face $-1 $124 $125 $30 $-1 $126 reversed single #
loop $-1 $-1 $127 $50 #
plane-surface $-1 0 0 -13.751076640821097 0 0 1 1 0 0 forward_v I I I I #
coedge $-1 $128 $129 $130 $131 forward $51 $-1 #
face $-1 $132 $133 $31 $-1 $134 reversed single #
loop $-1 $-1 $135 $53 #
plane-surface $-1 -54.768520866051873 0 8.3692312131081934 0 0 1 1 0 0 forward_v I I I I #
coedge $-1 $136 $137 $138 $139 forward $54 $-1 #
face $-1 $140 $141 $32 $-1 $142 reversed single #
loop $-1 $-1 $143 $56 #
plane-surface $-1 -31.852904727339215 -99.508702792507464 109.1542592293499 -1 0 0 0 -0.57357644374324357 0.81915203911291934 forward_v I I I I #
coedge $-1 $144 $145 $146 $147 reversed $57 $-1 #
face $-1 $-1 $148 $33 $-1 $149 forward single #
loop $-1 $150 $151 $59 #
cone-surface $-1 -40.625696213210972 -26.552072563062158 9.7063058891148373 0 0.57357644374324357 -0.81915203911291934 0.5 0 0 1 I I -0.70710678118654746 0.70710678118654746 0.5 forward I I I I #
loop $-1 $-1 $152 $43 #
coedge $-1 $96 $96 $153 $154 reversed $60 $-1 #
face $-1 $155 $156 $34 $-1 $157 reversed single #
loop $-1 $-1 $158 $62 #
plane-surface $-1 51.365762547149259 -30.520586884265271 10.629020898446598 0 -0.57357644374324357 0.81915203911291934 1 0 0 forward_v I I I I #
coedge $-1 $159 $160 $161 $162 reversed $63 $-1 #
face $-1 $-1 $163 $35 $-1 $164 forward single #
loop $-1 $165 $166 $65 #
cone-surface $-1 51.365762547149259 -26.552072563062158 9.7063058891148373 0 0.57357644374324357 -0.81915203911291934 0.5 0 0 1 I I -0.70710678118654746 0.70710678118654746 0.5 forward I I I I #
loop $-1 $-1 $167 $45 #
coedge $-1 $105 $105 $168 $169 reversed $66 $-1 #
face $-1 $170 $171 $36 $-1 $172 reversed single #
loop $-1 $-1 $173 $68 #
plane-surface $-1 -31.852904727339215 49.506700830169635 144.16603860141697 -1 0 0 0 0.57357644374324357 0.81915203911291934 forward_v I I I I #
coedge $-1 $174 $175 $176 $177 reversed $69 $-1 #
face $-1 $-1 $178 $37 $-1 $179 forward single #
loop $-1 $180 $181 $71 #
cone-surface $-1 -40.625696213210972 26.552072563062143 9.7063058891148373 0 -0.57357644374324357 -0.81915203911291934 0.5 0 0 1 I I -0.70710678118654746 0.70710678118654746 0.5 forward I I I I #
loop $-1 $-1 $182 $47 #
coedge $-1 $114 $114 $183 $184 reversed $72 $-1 #
face $-1 $185 $186 $38 $-1 $187 forward single #
loop $-1 $-1 $188 $74 #
plane-surface $-1 51.365762547149259 -19.481415078072558 45.640800270513665 0 0.57357644374324357 0.81915203911291934 1 0 0 forward_v I I I I #
coedge $-1 $189 $190 $191 $192 reversed $75 $-1 #
face $-1 $-1 $193 $39 $-1 $194 forward single #
loop $-1 $195 $196 $77 #
cone-surface $-1 51.365762547149259 26.552072563062143 9.7063058891148373 0 -0.57357644374324357 -0.81915203911291934 0.5 0 0 1 I I -0.70710678118654746 0.70710678118654746 0.5 forward I I I I #
loop $-1 $-1 $197 $49 #
coedge $-1 $123 $123 $198 $199 reversed $78 $-1 #
face $-1 $200 $201 $30 $-1 $202 reversed single #
loop $-1 $-1 $203 $80 #
plane-surface $-1 0 -30.52058688426526 0 0 1 0 0 0 1 forward_v I I I I #
coedge $-1 $204 $205 $206 $207 forward $81 $-1 #
coedge $-1 $208 $83 $209 $210 forward $51 $-1 #
coedge $-1 $83 $208 $211 $212 forward $51 $-1 #
coedge $-1 $213 $214 $83 $131 reversed $215 $-1 #
edge $-1 $216 -30.52058688426526 $217 30.52058688426526 $130 $218 forward 7 unknown #
face $-1 $219 $220 $31 $-1 $221 reversed single #
loop $-1 $-1 $138 $84 #
plane-surface $-1 -49.398487699082722 0 10.027946701948959 -1 0 0 0 0 1 forward_v I I I I #
coedge $-1 $222 $223 $224 $225 forward $85 $-1 #
coedge $-1 $226 $87 $227 $228 reversed $54 $-1 #
coedge $-1 $87 $226 $229 $230 reversed $54 $-1 #
coedge $-1 $231 $232 $87 $139 reversed $133 $-1 #
edge $-1 $233 -30.52058688426526 $234 30.52058688426526 $138 $235 forward 7 unknown #
face $-1 $236 $237 $32 $-1 $238 forward single #
loop $-1 $-1 $239 $88 #
plane-surface $-1 0 -30.52058688426526 0 0 1 0 0 0 1 forward_v I I I I #
coedge $-1 $240 $241 $242 $243 reversed $89 $-1 #
coedge $-1 $244 $91 $245 $246 reversed $57 $-1 #
coedge $-1 $91 $244 $240 $247 forward $57 $-1 #
coedge $-1 $242 $239 $91 $147 forward $141 $-1 #
edge $-1 $248 -29.085639592477236 $249 -11.540056620733729 $146 $250 forward 7 unknown #
loop $-1 $-1 $153 $92 #
plane-surface $-1 -40.625696213210972 -30.520586884265271 10.629020898446598 0 -0.57357644374324357 0.81915203911291934 1 0 0 forward_v I I I I #
loop $-1 $-1 $251 $59 #
coedge $-1 $151 $151 $152 $252 reversed $93 $-1 #
coedge $-1 $152 $152 $151 $252 forward $95 $-1 #
coedge $-1 $153 $153 $96 $154 forward $148 $-1 #
edge $-1 $253 -2.1841695394371275e-015 $253 6.2831853071795987 $153 $254 forward 7 unknown #
face $-1 $255 $256 $34 $-1 $257 forward single #
loop $-1 $-1 $258 $97 #
plane-surface $-1 60.138554033021023 0 0 -1 0 0 0 0 1 forward_v I I I I #
coedge $-1 $259 $260 $261 $262 reversed $98 $-1 #
coedge $-1 $160 $100 $263 $264 reversed $63 $-1 #
coedge $-1 $100 $159 $259 $265 reversed $63 $-1 #
coedge $-1 $261 $266 $100 $162 forward $267 $-1 #
edge $-1 $268 40.826052973853855 $269 43.948108716228347 $161 $270 forward 7 unknown #
loop $-1 $-1 $168 $101 #
plane-surface $-1 51.365762547149259 -30.520586884265271 10.629020898446598 0 -0.57357644374324357 0.81915203911291934 1 0 0 forward_v I I I I #
loop $-1 $-1 $271 $65 #
coedge $-1 $166 $166 $167 $272 reversed $102 $-1 #
coedge $-1 $167 $167 $166 $272 forward $104 $-1 #
coedge $-1 $168 $168 $105 $169 forward $163 $-1 #
edge $-1 $273 -2.1841695394371275e-015 $273 6.2831853071795987 $168 $274 forward 7 unknown #
face $-1 $275 $276 $36 $-1 $277 forward single #
loop $-1 $-1 $278 $106 #
plane-surface $-1 0 30.52058688426526 0 0 -1 0 0 0 -1 forward_v I I I I #
coedge $-1 $279 $280 $281 $282 reversed $107 $-1 #
coedge $-1 $283 $109 $284 $285 forward $69 $-1 #
coedge $-1 $109 $283 $279 $286 forward $69 $-1 #
coedge $-1 $281 $287 $109 $177 forward $288 $-1 #
edge $-1 $289 -29.085639592477243 $290 -11.540056620733729 $176 $291 forward 7 unknown #
loop $-1 $-1 $183 $110 #
plane-surface $-1 -40.625696213210972 -19.481415078072558 45.640800270513665 0 0.57357644374324357 0.81915203911291934 1 0 0 forward_v I I I I #
loop $-1 $-1 $292 $71 #
coedge $-1 $181 $181 $182 $293 reversed $111 $-1 #
coedge $-1 $182 $182 $181 $293 forward $113 $-1 #
coedge $-1 $183 $183 $114 $184 forward $178 $-1 #
edge $-1 $294 5.7962645302390556e-016 $294 6.2831853071796013 $183 $295 forward 7 unknown #
face $-1 $296 $297 $38 $-1 $298 reversed single #
loop $-1 $-1 $191 $115 #
plane-surface $-1 0 0 13.751076640821097 0 0 1 1 0 0 forward_v I I I I #
coedge $-1 $299 $300 $301 $302 reversed $116 $-1 #
coedge $-1 $190 $118 $303 $304 reversed $75 $-1 #
coedge $-1 $118 $189 $299 $305 reversed $75 $-1 #
coedge $-1 $301 $306 $118 $192 forward $186 $-1 #
edge $-1 $307 -5.7672364691804425 $308 -1.3084788694085887 $191 $309 forward 7 unknown #
loop $-1 $-1 $198 $119 #
plane-surface $-1 51.365762547149259 -19.481415078072558 45.640800270513665 0 0.57357644374324357 0.81915203911291934 1 0 0 forward_v I I I I #
loop $-1 $-1 $310 $77 #
coedge $-1 $196 $196 $197 $311 reversed $120 $-1 #
coedge $-1 $197 $197 $196 $311 forward $122 $-1 #
coedge $-1 $198 $198 $123 $199 forward $193 $-1 #
edge $-1 $312 5.7962645302390556e-016 $312 6.2831853071796013 $198 $313 forward 7 unknown #
face $-1 $314 $315 $30 $-1 $316 reversed single #
loop $-1 $-1 $317 $124 #
plane-surface $-1 -60.138554033021023 0 0 1 0 0 0 0 -1 forward_v I I I I #
coedge $-1 $318 $211 $319 $320 forward $125 $-1 #
coedge $-1 $321 $127 $318 $322 forward $81 $-1 #
coedge $-1 $127 $321 $323 $324 forward $81 $-1 #
coedge $-1 $214 $213 $127 $207 reversed $215 $-1 #
edge $-1 $325 -30.52058688426526 $326 30.52058688426526 $206 $327 forward 7 unknown #
coedge $-1 $129 $128 $328 $329 forward $51 $-1 #
coedge $-1 $330 $331 $128 $210 reversed $315 $-1 #
edge $-1 $217 -60.138554033021023 $332 60.138554033021023 $209 $333 forward 7 unknown #
coedge $-1 $203 $334 $129 $212 reversed $125 $-1 #
edge $-1 $335 -60.138554033021023 $216 60.138554033021023 $211 $336 forward 7 unknown #
coedge $-1 $206 $130 $334 $337 forward $215 $-1 #
coedge $-1 $130 $206 $330 $338 reversed $215 $-1 #
loop $-1 $-1 $213 $314 #
vertex $-1 $131 $339 #
vertex $-1 $131 $340 #
straight-curve $-1 60.138554033021023 0 13.751076640821097 0 1 0 I I #
face $-1 $341 $342 $31 $-1 $343 reversed single #
loop $-1 $-1 $344 $132 #
plane-surface $-1 0 -30.52058688426526 0 0 1 0 0 0 1 forward_v I I I I #
coedge $-1 $345 $135 $344 $346 reversed $85 $-1 #
coedge $-1 $135 $345 $347 $348 reversed $85 $-1 #
coedge $-1 $232 $231 $135 $225 reversed $133 $-1 #
edge $-1 $349 -30.52058688426526 $350 30.52058688426526 $224 $351 forward 7 unknown #
coedge $-1 $137 $136 $352 $353 reversed $54 $-1 #
coedge $-1 $354 $355 $136 $228 forward $356 $-1 #
edge $-1 $357 -32.754293599995087 $234 -22.014227266056785 $227 $358 forward 7 unknown #
coedge $-1 $359 $360 $137 $230 forward $220 $-1 #
edge $-1 $233 22.014227266056785 $361 32.754293599995087 $229 $362 forward 7 unknown #
coedge $-1 $224 $138 $360 $363 reversed $133 $-1 #
coedge $-1 $138 $224 $354 $364 reversed $133 $-1 #
vertex $-1 $230 $365 #
vertex $-1 $228 $366 #
straight-curve $-1 -49.398487699082722 0 11.686662190789725 0 1 0 I I #
face $-1 $-1 $367 $32 $-1 $368 forward single #
loop $-1 $-1 $245 $140 #
plane-surface $-1 -49.398487699082722 0 10.027946701948959 -1 0 0 0 0 1 forward_v I I I I #
coedge $-1 $146 $369 $370 $371 forward $141 $-1 #
coedge $-1 $241 $143 $145 $247 reversed $89 $-1 #
coedge $-1 $143 $240 $372 $373 reversed $89 $-1 #
coedge $-1 $369 $146 $143 $243 forward $141 $-1 #
edge $-1 $249 -43.948108716228347 $374 -40.826052973853855 $242 $375 forward 7 unknown #
coedge $-1 $145 $144 $376 $377 reversed $57 $-1 #
coedge $-1 $370 $378 $144 $246 forward $237 $-1 #
edge $-1 $379 6.8849814809153536 $248 12.328119490557974 $245 $380 forward 7 unknown #
edge $-1 $381 -5.4431380096426345 $249 -1.2806143718170109e-014 $240 $382 forward 7 unknown #
vertex $-1 $246 $383 #
vertex $-1 $147 $384 #
straight-curve $-1 -20.312848106605486 -30.52058688426526 10.629020898446601 1 0 0 I I #
coedge $-1 $251 $251 $-1 $385 reversed $150 $-1 #
edge $-1 $386 0 $386 6.2831853071796004 $151 $387 forward 7 unknown #
vertex $-1 $154 $388 #
ellipse-curve $-1 -40.625696213210972 -28.29120808437936 12.190048769633853 0 -0.57357644374324357 0.81915203911291934 1 0 0 1 I I #
face $-1 $-1 $267 $34 $-1 $389 reversed single #
loop $-1 $-1 $390 $155 #
plane-surface $-1 0 0 13.751076640821097 0 0 1 1 0 0 forward_v I I I I #
coedge $-1 $391 $392 $260 $393 forward $156 $-1 #
coedge $-1 $394 $158 $160 $265 forward $98 $-1 #
coedge $-1 $158 $394 $258 $393 reversed $98 $-1 #
coedge $-1 $395 $161 $158 $262 forward $267 $-1 #
edge $-1 $269 16.910089787702873 $396 34.455672759446387 $261 $397 forward 7 unknown #
coedge $-1 $398 $390 $159 $264 forward $256 $-1 #
edge $-1 $399 -23.692522111760262 $268 -19.233764511988472 $263 $400 forward 7 unknown #
edge $-1 $269 1.2806143718170109e-014 $399 5.4431380096426345 $160 $401 forward 7 unknown #
coedge $-1 $161 $395 $398 $402 reversed $267 $-1 #
loop $-1 $-1 $261 $255 #
vertex $-1 $402 $403 #
vertex $-1 $162 $404 #
straight-curve $-1 42.592971061277503 -30.520586884265256 54.577129614674952 0 0 -1 I I #
coedge $-1 $271 $271 $-1 $405 reversed $165 $-1 #
edge $-1 $406 0 $406 6.2831853071796004 $166 $407 forward 7 unknown #
vertex $-1 $169 $408 #
ellipse-curve $-1 51.365762547149259 -28.29120808437936 12.190048769633853 0 -0.57357644374324357 0.81915203911291934 1 0 0 1 I I #
face $-1 $-1 $288 $36 $-1 $409 forward single #
loop $-1 $-1 $284 $170 #
plane-surface $-1 -49.398487699082722 0 10.027946701948959 -1 0 0 0 0 1 forward_v I I I I #
coedge $-1 $410 $411 $280 $412 forward $171 $-1 #
coedge $-1 $280 $173 $175 $286 reversed $107 $-1 #
coedge $-1 $173 $279 $278 $412 reversed $107 $-1 #
coedge $-1 $413 $176 $173 $282 forward $288 $-1 #
edge $-1 $290 1.3084788694085887 $414 5.7672364691804425 $281 $415 forward 7 unknown #
coedge $-1 $175 $174 $410 $416 reversed $69 $-1 #
coedge $-1 $417 $418 $174 $285 reversed $276 $-1 #
edge $-1 $289 55.598035758887818 $419 61.041173768530513 $284 $420 forward 7 unknown #
edge $-1 $421 -61.041173768530513 $290 -55.598035758887818 $279 $422 forward 7 unknown #
coedge $-1 $176 $413 $417 $423 forward $288 $-1 #
loop $-1 $-1 $281 $275 #
vertex $-1 $177 $424 #
vertex $-1 $177 $425 #
straight-curve $-1 -20.312848106605486 26.06182928449341 13.7510766408211 1 0 0 I I #
coedge $-1 $292 $292 $-1 $426 reversed $180 $-1 #
edge $-1 $427 0 $427 6.2831853071796004 $181 $428 forward 7 unknown #
vertex $-1 $184 $429 #
ellipse-curve $-1 -40.625696213210972 28.291208084379331 12.19004876963383 0 0.57357644374324357 0.81915203911291934 1 0 0 1 I I #
face $-1 $-1 $430 $38 $-1 $431 reversed single #
loop $-1 $-1 $303 $185 #
plane-surface $-1 0 30.52058688426526 0 0 -1 0 0 0 -1 forward_v I I I I #
coedge $-1 $432 $188 $190 $305 forward $116 $-1 #
coedge $-1 $188 $432 $433 $434 reversed $116 $-1 #
coedge $-1 $435 $191 $188 $302 forward $186 $-1 #
edge $-1 $308 16.910089787702873 $436 34.455672759446387 $301 $437 forward 7 unknown #
coedge $-1 $438 $439 $189 $304 forward $297 $-1 #
edge $-1 $440 -61.453998402261917 $307 -58.331942659887389 $303 $441 forward 7 unknown #
edge $-1 $308 55.598035758887818 $440 61.041173768530513 $190 $442 forward 7 unknown #
coedge $-1 $191 $435 $438 $443 forward $186 $-1 #
vertex $-1 $192 $444 #
vertex $-1 $192 $445 #
straight-curve $-1 42.592971061277503 24.753350415084817 13.751076640821097 0 -1 0 I I #
coedge $-1 $310 $310 $-1 $446 reversed $195 $-1 #
edge $-1 $447 0 $447 6.2831853071796004 $196 $448 forward 7 unknown #
vertex $-1 $199 $449 #
ellipse-curve $-1 51.365762547149259 28.291208084379331 12.19004876963383 0 0.57357644374324357 0.81915203911291934 1 0 0 1 I I #
face $-1 $-1 $215 $30 $-1 $450 reversed single #
loop $-1 $-1 $330 $200 #
plane-surface $-1 0 30.52058688426526 0 0 -1 0 0 0 -1 forward_v I I I I #
coedge $-1 $451 $328 $331 $452 forward $201 $-1 #
coedge $-1 $334 $203 $204 $322 reversed $125 $-1 #
coedge $-1 $328 $451 $203 $320 reversed $201 $-1 #
edge $-1 $335 -13.751076640821097 $453 13.751076640821097 $319 $454 forward 7 unknown #
coedge $-1 $205 $204 $451 $455 forward $81 $-1 #
edge $-1 $326 -60.138554033021023 $453 60.138554033021023 $318 $456 forward 7 unknown #
coedge $-1 $331 $330 $205 $324 reversed $315 $-1 #
edge $-1 $457 -60.138554033021023 $325 60.138554033021023 $323 $458 forward 7 unknown #
vertex $-1 $207 $459 #
vertex $-1 $337 $460 #
straight-curve $-1 60.138554033021023 0 -13.751076640821097 0 -1 0 I I #
coedge $-1 $317 $319 $208 $329 reversed $201 $-1 #
edge $-1 $332 -30.52058688426526 $335 30.52058688426526 $328 $461 forward 7 unknown #
coedge $-1 $323 $209 $214 $338 forward $315 $-1 #
coedge $-1 $209 $323 $317 $452 reversed $315 $-1 #
vertex $-1 $210 $462 #
straight-curve $-1 0 30.52058688426526 13.751076640821097 -1 0 0 I I #
coedge $-1 $211 $318 $213 $337 reversed $125 $-1 #
vertex $-1 $329 $463 #
straight-curve $-1 0 -30.52058688426526 13.751076640821097 1 0 0 I I #
edge $-1 $216 -13.751076640821097 $326 13.751076640821097 $213 $464 forward 7 unknown #
edge $-1 $217 -13.751076640821097 $325 13.751076640821097 $214 $465 forward 7 unknown #
point $-1 60.138554033021023 -30.52058688426526 13.751076640821097 #
point $-1 60.138554033021023 30.52058688426526 13.751076640821097 #
face $-1 $-1 $356 $31 $-1 $466 reversed single #
loop $-1 $-1 $467 $219 #
plane-surface $-1 -60.138554033021023 0 0 1 0 0 0 0 -1 forward_v I I I I #
coedge $-1 $360 $359 $222 $346 forward $220 $-1 #
coedge $-1 $223 $222 $467 $468 reversed $85 $-1 #
edge $-1 $469 -32.754293599995087 $350 -22.014227266056785 $344 $470 forward 7 unknown #
coedge $-1 $355 $354 $223 $348 forward $356 $-1 #
edge $-1 $349 22.014227266056785 $471 32.754293599995087 $347 $472 forward 7 unknown #
vertex $-1 $348 $473 #
vertex $-1 $346 $474 #
straight-curve $-1 -49.398487699082722 0 8.3692312131081934 0 -1 0 I I #
coedge $-1 $475 $476 $226 $353 forward $342 $-1 #
edge $-1 $361 -30.52058688426526 $357 30.52058688426526 $352 $477 forward 7 unknown #
coedge $-1 $347 $227 $232 $364 forward $356 $-1 #
coedge $-1 $227 $347 $475 $478 reversed $356 $-1 #
loop $-1 $-1 $347 $341 #
vertex $-1 $478 $479 #
straight-curve $-1 -27.384260433025936 30.52058688426526 11.686662190789725 1 0 0 I I #
coedge $-1 $344 $229 $476 $480 forward $220 $-1 #
coedge $-1 $229 $344 $231 $363 forward $220 $-1 #
vertex $-1 $480 $481 #
straight-curve $-1 -27.384260433025936 -30.52058688426526 11.686662190789725 -1 0 0 I I #
edge $-1 $350 3.3552578621337137 $233 6.6726888398152457 $360 $482 forward 7 unknown #
edge $-1 $234 -6.6726888398152457 $349 -3.3552578621337137 $354 $483 forward 7 unknown #
point $-1 -49.398487699082722 -30.52058688426526 11.686662190789725 #
point $-1 -49.398487699082722 30.52058688426526 11.686662190789725 #
loop $-1 $-1 $484 $236 #
plane-surface $-1 0 0 13.751076640821097 0 0 1 1 0 0 forward_v I I I I #
coedge $-1 $239 $242 $485 $486 reversed $141 $-1 #
coedge $-1 $378 $245 $239 $371 reversed $237 $-1 #
edge $-1 $487 40.826052973853855 $248 43.948108716228347 $239 $488 forward 7 unknown #
coedge $-1 $376 $485 $241 $373 forward $367 $-1 #
edge $-1 $374 19.233764511988472 $381 23.692522111760262 $372 $489 forward 7 unknown #
vertex $-1 $243 $490 #
straight-curve $-1 -31.852904727339215 -30.520586884265256 54.577129614674952 0 0 1 I I #
coedge $-1 $484 $372 $244 $377 forward $367 $-1 #
edge $-1 $381 11.540056620733729 $379 29.085639592477243 $376 $491 forward 7 unknown #
coedge $-1 $245 $370 $484 $492 reversed $237 $-1 #
vertex $-1 $492 $493 #
straight-curve $-1 -49.398487699082722 -20.42198266514697 17.700139833882616 0 -0.81915203911291934 -0.57357644374324357 I I #
vertex $-1 $377 $494 #
straight-curve $-1 -31.852904727339215 -30.520586884265271 10.629020898446598 0 -0.81915203911291934 -0.57357644374324357 I I #
point $-1 -49.398487699082722 -30.52058688426526 10.629020898446605 #
point $-1 -31.852904727339215 -30.52058688426526 10.629020898446605 #
edge $-1 $495 1 $495 0 $251 $-1 forward 7 unknown #
vertex $-1 $252 $496 #
ellipse-curve $-1 -40.625696213210972 -26.838860784933779 10.115881908671296 0 -0.57357644374324357 0.81915203911291934 1 0 0 1 I I #
point $-1 -39.625696213210972 -28.291208084379356 12.190048769633844 #
plane-surface $-1 0 -30.52058688426526 0 0 1 0 0 0 1 forward_v I I I I #
coedge $-1 $263 $497 $394 $498 forward $256 $-1 #
coedge $-1 $392 $258 $497 $499 reversed $156 $-1 #
coedge $-1 $258 $391 $395 $500 forward $156 $-1 #
edge $-1 $396 -9.4522224868826363 $501 -4.009084477240016 $258 $502 forward 7 unknown #
coedge $-1 $260 $259 $390 $498 reversed $98 $-1 #
coedge $-1 $266 $261 $392 $500 reversed $267 $-1 #
vertex $-1 $393 $503 #
straight-curve $-1 25.68288127357463 -30.52058688426526 10.629020898446601 1 0 0 I I #
coedge $-1 $497 $263 $266 $402 forward $256 $-1 #
vertex $-1 $264 $504 #
straight-curve $-1 42.592971061277503 -49.754351396253732 13.751076640821097 0 -1 0 I I #
straight-curve $-1 42.592971061277503 -30.520586884265271 10.629020898446598 0 0.81915203911291934 0.57357644374324357 I I #
edge $-1 $268 42.592971061277503 $505 60.138554033021023 $266 $506 forward 7 unknown #
point $-1 42.592971061277503 -30.52058688426526 13.751076640821097 #
point $-1 42.592971061277503 -30.52058688426526 10.629020898446605 #
edge $-1 $507 1 $507 0 $271 $-1 forward 7 unknown #
vertex $-1 $272 $508 #
ellipse-curve $-1 51.365762547149259 -26.838860784933779 10.115881908671296 0 -0.57357644374324357 0.81915203911291934 1 0 0 1 I I #
point $-1 52.365762547149259 -28.291208084379356 12.190048769633844 #
plane-surface $-1 0 0 13.751076640821097 0 0 1 1 0 0 forward_v I I I I #
coedge $-1 $509 $278 $283 $416 forward $171 $-1 #
coedge $-1 $278 $509 $413 $510 reversed $171 $-1 #
edge $-1 $414 58.331942659887389 $421 61.453998402261917 $278 $511 forward 7 unknown #
coedge $-1 $287 $281 $411 $510 forward $288 $-1 #
vertex $-1 $510 $512 #
straight-curve $-1 -31.852904727339215 24.753350415084817 13.751076640821097 0 1 0 I I #
edge $-1 $421 11.540056620733729 $419 29.085639592477236 $410 $513 forward 7 unknown #
coedge $-1 $418 $284 $287 $423 reversed $276 $-1 #
coedge $-1 $284 $417 $509 $514 reversed $276 $-1 #
vertex $-1 $514 $515 #
straight-curve $-1 -49.398487699082729 -19.481415078072558 45.640800270513665 0 0.81915203911291934 -0.57357644374324357 I I #
vertex $-1 $416 $516 #
straight-curve $-1 -31.852904727339215 -19.481415078072558 45.640800270513665 0 -0.81915203911291934 0.57357644374324357 I I #
edge $-1 $517 -5.7672364691804425 $289 -1.3084788694085887 $287 $518 forward 7 unknown #
point $-1 -49.398487699082729 26.061829284493406 13.751076640821097 #
point $-1 -31.852904727339215 26.061829284493406 13.751076640821097 #
edge $-1 $519 1 $519 0 $292 $-1 forward 7 unknown #
vertex $-1 $293 $520 #
ellipse-curve $-1 -40.625696213210972 26.838860784933765 10.115881908671296 0 0.57357644374324357 0.81915203911291934 1 0 0 1 I I #
point $-1 -39.625696213210972 28.291208084379342 12.190048769633844 #
loop $-1 $-1 $433 $296 #
plane-surface $-1 60.138554033021023 0 0 -1 0 0 0 0 1 forward_v I I I I #
coedge $-1 $300 $299 $439 $521 reversed $116 $-1 #
coedge $-1 $522 $523 $300 $434 forward $430 $-1 #
edge $-1 $436 34.529671361505223 $524 39.97280937114791 $433 $525 forward 7 unknown #
coedge $-1 $306 $301 $523 $526 forward $186 $-1 #
vertex $-1 $526 $527 #
straight-curve $-1 25.68288127357463 26.06182928449341 13.7510766408211 1 0 0 I I #
coedge $-1 $528 $303 $306 $443 reversed $297 $-1 #
coedge $-1 $303 $528 $432 $521 forward $297 $-1 #
vertex $-1 $304 $529 #
straight-curve $-1 42.592971061277503 30.52058688426526 72.083019300708486 0 0 1 I I #
straight-curve $-1 42.592971061277503 -19.481415078072558 45.640800270513665 0 0.81915203911291934 -0.57357644374324357 I I #
edge $-1 $530 -60.138554033021023 $307 -42.592971061277503 $438 $531 forward 7 unknown #
point $-1 42.592971061277503 30.52058688426526 13.751076640821097 #
point $-1 42.592971061277503 26.061829284493406 13.751076640821097 #
edge $-1 $532 1 $532 0 $310 $-1 forward 7 unknown #
vertex $-1 $311 $533 #
ellipse-curve $-1 51.365762547149259 26.838860784933765 10.115881908671296 0 0.57357644374324357 0.81915203911291934 1 0 0 1 I I #
point $-1 52.365762547149259 28.291208084379342 12.190048769633844 #
plane-surface $-1 60.138554033021023 0 0 -1 0 0 0 0 1 forward_v I I I I #
coedge $-1 $319 $317 $321 $455 reversed $201 $-1 #
edge $-1 $332 -13.751076640821097 $457 13.751076640821097 $331 $534 forward 7 unknown #
vertex $-1 $455 $535 #
straight-curve $-1 -60.138554033021023 -30.52058688426526 0 0 0 -1 I I #
edge $-1 $453 -30.52058688426526 $457 30.52058688426526 $451 $536 forward 7 unknown #
straight-curve $-1 0 -30.52058688426526 -13.751076640821097 -1 0 0 I I #
vertex $-1 $324 $537 #
straight-curve $-1 0 30.52058688426526 -13.751076640821097 1 0 0 I I #
point $-1 60.138554033021023 30.52058688426526 -13.751076640821097 #
point $-1 60.138554033021023 -30.52058688426526 -13.751076640821097 #
straight-curve $-1 -60.138554033021023 0 13.751076640821097 0 -1 0 I I #
point $-1 -60.138554033021023 30.52058688426526 13.751076640821097 #
point $-1 -60.138554033021023 -30.52058688426526 13.751076640821097 #
straight-curve $-1 60.138554033021023 -30.52058688426526 0 0 0 -1 I I #
straight-curve $-1 60.138554033021023 30.52058688426526 0 0 0 -1 I I #
plane-surface $-1 0 30.52058688426526 0 0 -1 0 0 0 -1 forward_v I I I I #
coedge $-1 $476 $475 $345 $468 forward $342 $-1 #
edge $-1 $471 -30.52058688426526 $469 30.52058688426526 $467 $538 forward 7 unknown #
vertex $-1 $346 $539 #
straight-curve $-1 -27.384260433025936 -30.52058688426526 8.3692312131081934 1 0 0 I I #
vertex $-1 $348 $540 #
straight-curve $-1 -27.384260433025936 30.52058688426526 8.3692312131081934 -1 0 0 I I #
point $-1 -49.398487699082722 30.52058688426526 8.3692312131081934 #
point $-1 -49.398487699082722 -30.52058688426526 8.3692312131081934 #
coedge $-1 $467 $352 $355 $478 forward $342 $-1 #
coedge $-1 $352 $467 $359 $480 reversed $342 $-1 #
straight-curve $-1 -60.138554033021023 0 11.686662190789725 0 1 0 I I #
edge $-1 $357 -11.686662190789725 $471 -8.3692312131081934 $355 $541 forward 7 unknown #
point $-1 -60.138554033021023 30.52058688426526 11.686662190789725 #
edge $-1 $361 -11.686662190789725 $469 -8.3692312131081934 $476 $542 forward 7 unknown #
point $-1 -60.138554033021023 -30.52058688426526 11.686662190789725 #
straight-curve $-1 -49.398487699082722 -30.52058688426526 5.0139733509744797 0 0 1 I I #
straight-curve $-1 -49.398487699082722 30.52058688426526 5.0139733509744797 0 0 -1 I I #
coedge $-1 $485 $376 $378 $492 forward $367 $-1 #
coedge $-1 $372 $484 $369 $486 forward $367 $-1 #
edge $-1 $487 -49.398487699082729 $374 -31.852904727339215 $369 $543 forward 7 unknown #
vertex $-1 $486 $544 #
straight-curve $-1 -49.398487699082729 -30.520586884265256 54.577129614674952 0 0 -1 I I #
straight-curve $-1 -31.852904727339215 -49.754351396253732 13.751076640821097 0 1 0 I I #
point $-1 -31.852904727339215 -30.52058688426526 13.751076640821097 #
straight-curve $-1 -20.312848106605486 -26.061829284493466 13.751076640821097 -1 0 0 I I #
edge $-1 $379 -23.692522111760262 $487 -19.233764511988472 $484 $545 forward 7 unknown #
point $-1 -49.398487699082729 -26.06182928449347 13.751076640821097 #
point $-1 -31.852904727339215 -26.06182928449347 13.751076640821097 #
vertex $-1 $385 $546 #
point $-1 -39.625696213210972 -26.838860784933779 10.115881908671296 #
coedge $-1 $390 $398 $391 $499 forward $256 $-1 #
edge $-1 $501 -34.455672759446387 $399 -16.910089787702873 $390 $547 forward 7 unknown #
edge $-1 $505 -30.52058688426526 $501 -26.06182928449347 $391 $548 forward 7 unknown #
edge $-1 $505 -13.751076640821097 $396 -10.629020898446605 $392 $549 forward 7 unknown #
vertex $-1 $393 $550 #
straight-curve $-1 60.138554033021023 -22.777779559986357 16.050593057942663 0 0.81915203911291934 0.57357644374324357 I I #
point $-1 60.138554033021016 -30.52058688426526 10.629020898446605 #
point $-1 42.592971061277503 -26.06182928449347 13.751076640821097 #
vertex $-1 $499 $551 #
straight-curve $-1 0 -30.52058688426526 13.751076640821097 1 0 0 I I #
vertex $-1 $405 $552 #
point $-1 52.365762547149259 -26.838860784933779 10.115881908671296 #
coedge $-1 $411 $410 $418 $514 forward $171 $-1 #
edge $-1 $414 31.852904727339215 $517 49.398487699082729 $411 $553 forward 7 unknown #
straight-curve $-1 -31.852904727339215 30.52058688426526 72.083019300708486 0 0 -1 I I #
point $-1 -31.852904727339215 30.52058688426526 13.751076640821097 #
straight-curve $-1 -20.312848106605486 30.520586884265263 10.629020898446566 -1 0 0 I I #
edge $-1 $419 -61.453998402261924 $517 -58.331942659887389 $509 $554 forward 7 unknown #
point $-1 -49.398487699082722 30.52058688426526 10.629020898446562 #
point $-1 -31.852904727339215 30.520586884265256 10.629020898446569 #
vertex $-1 $514 $555 #
straight-curve $-1 -49.398487699082729 24.753350415084817 13.751076640821097 0 -1 0 I I #
vertex $-1 $426 $556 #
point $-1 -39.625696213210972 26.838860784933765 10.115881908671296 #
edge $-1 $524 -34.455672759446387 $440 -16.910089787702873 $439 $557 forward 7 unknown #
coedge $-1 $523 $433 $528 $558 reversed $430 $-1 #
coedge $-1 $433 $522 $435 $526 reversed $430 $-1 #
vertex $-1 $434 $559 #
straight-curve $-1 60.138554033021023 -2.2232214211825667 33.55648274397619 0 0.81915203911291934 -0.57357644374324357 I I #
edge $-1 $436 26.061829284493406 $530 30.52058688426526 $523 $560 forward 7 unknown #
point $-1 60.138554033021016 26.061829284493406 13.751076640821097 #
coedge $-1 $439 $438 $522 $558 forward $297 $-1 #
point $-1 42.592971061277503 30.520586884265256 10.629020898446569 #
vertex $-1 $526 $561 #
straight-curve $-1 0 30.52058688426526 13.751076640821097 -1 0 0 I I #
vertex $-1 $446 $562 #
point $-1 52.365762547149259 26.838860784933765 10.115881908671296 #
straight-curve $-1 -60.138554033021023 30.52058688426526 0 0 0 -1 I I #
point $-1 -60.138554033021023 -30.52058688426526 -13.751076640821097 #
straight-curve $-1 -60.138554033021023 0 -13.751076640821097 0 1 0 I I #
point $-1 -60.138554033021023 30.52058688426526 -13.751076640821097 #
straight-curve $-1 -60.138554033021023 0 8.3692312131081934 0 -1 0 I I #
point $-1 -60.138554033021023 -30.52058688426526 8.3692312131081934 #
point $-1 -60.138554033021023 30.52058688426526 8.3692312131081934 #
straight-curve $-1 -60.138554033021023 30.52058688426526 0 0 0 -1 I I #
straight-curve $-1 -60.138554033021023 -30.52058688426526 0 0 0 -1 I I #
straight-curve $-1 0 -30.52058688426526 13.751076640821097 1 0 0 I I #
point $-1 -49.398487699082729 -30.52058688426526 13.751076640821097 #
straight-curve $-1 -49.398487699082729 -49.754351396253732 13.751076640821097 0 -1 0 I I #
point $-1 -40.625696213210972 -26.265284341190537 9.2967298695583782 #
straight-curve $-1 25.68288127357463 -26.061829284493466 13.751076640821097 -1 0 0 I I #
straight-curve $-1 60.138554033021023 0 13.751076640821097 0 1 0 I I #
straight-curve $-1 60.138554033021023 -30.52058688426526 0 0 0 -1 I I #
point $-1 60.138554033021016 -26.06182928449347 13.751076640821097 #
point $-1 60.138554033021023 -30.52058688426526 13.751076640821097 #
point $-1 51.365762547149259 -26.265284341190537 9.2967298695583782 #
straight-curve $-1 0 30.52058688426526 13.751076640821097 -1 0 0 I I #
straight-curve $-1 -49.398487699082729 30.52058688426526 72.083019300708486 0 0 1 I I #
point $-1 -49.398487699082729 30.52058688426526 13.751076640821097 #
point $-1 -40.625696213210972 26.265284341190522 9.2967298695583782 #
straight-curve $-1 25.68288127357463 30.520586884265263 10.629020898446566 -1 0 0 I I #
edge $-1 $530 -13.751076640821097 $524 -10.629020898446569 $522 $563 forward 7 unknown #
point $-1 60.138554033021016 30.520586884265256 10.629020898446569 #
straight-curve $-1 60.138554033021023 0 13.751076640821097 0 1 0 I I #
point $-1 60.138554033021023 30.52058688426526 13.751076640821097 #
point $-1 51.365762547149259 26.265284341190522 9.2967298695583782 #
straight-curve $-1 60.138554033021023 30.52058688426526 0 0 0 -1 I I #
End-of-ACIS-data 