500 0 5 0           
7 Unknown 11 ACIS 5.0 NT 24 Thu Mar 25 18:40:54 1999 
-1 9.9999999999999995e-007 1e-010 
body $-1 $5 $-1 $6 #
body $-1 $7 $-1 $8 #
body $-1 $9 $-1 $10 #
body $-1 $11 $-1 $12 #
body $-1 $13 $-1 $14 #
lump $-1 $-1 $15 $0 #
transform $-1 1 0 0 0 1 0 0 0 1 64.937284463026828 34.764544940043841 15.523148592387752 1 rotate no_reflect no_shear #
lump $-1 $-1 $16 $1 #
transform $-1 1 0 0 0 1 0 0 0 1 64.937284463026828 34.764544940043841 15.523148592387752 1 rotate no_reflect no_shear #
lump $-1 $-1 $17 $2 #
transform $-1 1 0 0 0 1 0 0 0 1 64.937284463026828 34.764544940043841 15.523148592387752 1 rotate no_reflect no_shear #
lump $-1 $-1 $18 $3 #
transform $-1 1 0 0 0 1 0 0 0 1 64.937284463026828 34.764544940043841 15.523148592387752 1 rotate no_reflect no_shear #
lump $-1 $-1 $19 $4 #
transform $-1 1 0 0 0 1 0 0 0 1 64.937284463026828 34.764544940043841 15.523148592387752 1 rotate no_reflect no_shear #
shell $-1 $-1 $-1 $20 $-1 $5 #
shell $-1 $-1 $-1 $21 $-1 $7 #
shell $-1 $-1 $-1 $22 $-1 $9 #
shell $-1 $-1 $-1 $23 $-1 $11 #
shell $-1 $-1 $-1 $24 $-1 $13 #
face $-1 $25 $26 $15 $-1 $27 forward single #
face $-1 $28 $29 $16 $-1 $30 forward single #
face $-1 $31 $32 $17 $-1 $33 forward single #
face $-1 $34 $35 $18 $-1 $36 reversed single #
face $-1 $37 $38 $19 $-1 $39 reversed single #
face $-1 $40 $41 $15 $-1 $42 reversed single #
loop $-1 $-1 $43 $20 #
plane-surface $-1 0 0 15.523148592387752 0 0 1 1 0 0 forward_v I I I I #
face $-1 $44 $45 $16 $-1 $46 forward single #
loop $-1 $-1 $47 $21 #
plane-surface $-1 -42.408987593228289 -27.574684127577299 0 1 0 0 0 0 -1 forward_v I I I I #
face $-1 $48 $49 $17 $-1 $50 forward single #
loop $-1 $-1 $51 $22 #
plane-surface $-1 -30.409365145251908 54.852687240817325 151.13245725676447 -1 0 0 0 0.5877852598018023 0.80901698891910034 forward_v I I I I #
face $-1 $52 $53 $18 $-1 $54 reversed single #
loop $-1 $55 $56 $23 #
cone-surface $-1 -55.072164657948278 25.644940128467482 7.5906260150004963 0 -0.5877852598018023 -0.80901698891910034 2 0 0 1 I I 0 1 2 forward I I I I #
face $-1 $57 $58 $19 $-1 $59 reversed single #
loop $-1 $60 $61 $24 #
cone-surface $-1 -40.274484950330454 25.644940128467482 7.5906260150004963 0 -0.5877852598018023 -0.80901698891910034 2 0 0 1 I I 0 1 2 forward I I I I #
face $-1 $62 $63 $15 $-1 $64 reversed single #
loop $-1 $-1 $65 $25 #
plane-surface $-1 0 0 -15.523148592387752 0 0 1 1 0 0 forward_v I I I I #
coedge $-1 $66 $67 $68 $69 forward $26 $-1 #
face $-1 $70 $71 $16 $-1 $72 forward single #
loop $-1 $-1 $73 $28 #
plane-surface $-1 -38.149987435739803 -20.384823315110758 0 0 -1 0 0 0 -1 forward_v I I I I #
coedge $-1 $74 $75 $76 $77 reversed $29 $-1 #
face $-1 $78 $79 $17 $-1 $80 reversed single #
loop $-1 $-1 $81 $31 #
plane-surface $-1 -47.673324804139369 -21.485669997030207 46.06172456704239 0 0.5877852598018023 0.80901698891910034 1 0 0 forward_v I I I I #
coedge $-1 $82 $83 $84 $85 reversed $32 $-1 #
face $-1 $86 $87 $18 $-1 $88 forward single #
loop $-1 $89 $90 $34 #
cone-surface $-1 -55.072164657948278 23.046286011628958 4.0138855408419083 0 -0.5877852598018023 -0.80901698891910034 1 0 0 1 I I -0.70710678118654746 0.70710678118654746 1 forward I I I I #
loop $-1 $-1 $91 $23 #
coedge $-1 $56 $56 $92 $93 reversed $35 $-1 #
face $-1 $94 $95 $19 $-1 $96 reversed single #
loop $-1 $97 $98 $37 #
cone-surface $-1 -40.274484950330454 23.046286011628958 4.0138855408419083 0 -0.5877852598018023 -0.80901698891910034 1 0 0 1 I I -0.70710678118654746 0.70710678118654746 1 forward I I I I #
loop $-1 $-1 $99 $24 #
coedge $-1 $61 $61 $100 $101 reversed $38 $-1 #
face $-1 $102 $103 $15 $-1 $104 reversed single #
loop $-1 $-1 $105 $40 #
plane-surface $-1 0 -34.764544940043841 0 0 1 0 0 0 1 forward_v I I I I #
coedge $-1 $106 $107 $108 $109 forward $41 $-1 #
coedge $-1 $110 $43 $111 $112 forward $26 $-1 #
coedge $-1 $43 $110 $113 $114 forward $26 $-1 #
coedge $-1 $115 $116 $43 $69 reversed $117 $-1 #
edge $-1 $118 -34.764544940043841 $119 34.764544940043841 $68 $120 forward 7 unknown #
face $-1 $121 $122 $16 $-1 $123 forward single #
loop $-1 $-1 $124 $44 #
plane-surface $-1 -33.890987278251316 -27.574684127577299 0 -1 0 0 0 0 1 forward_v I I I I #
coedge $-1 $125 $126 $127 $128 reversed $45 $-1 #
coedge $-1 $129 $47 $130 $131 reversed $29 $-1 #
coedge $-1 $47 $129 $132 $133 reversed $29 $-1 #
coedge $-1 $126 $125 $47 $77 forward $45 $-1 #
edge $-1 $134 -15.523148592387752 $135 15.523148592387752 $76 $136 forward 7 unknown #
face $-1 $137 $138 $17 $-1 $139 forward single #
loop $-1 $-1 $140 $48 #
plane-surface $-1 0 34.764544940043841 0 0 -1 0 0 0 -1 forward_v I I I I #
coedge $-1 $141 $142 $140 $143 reversed $49 $-1 #
coedge $-1 $83 $51 $142 $144 forward $32 $-1 #
coedge $-1 $51 $82 $145 $146 reversed $32 $-1 #
coedge $-1 $147 $140 $51 $85 forward $79 $-1 #
edge $-1 $148 -70.372678220290055 $149 -60.043080035994478 $84 $150 forward 7 unknown #
face $-1 $151 $152 $18 $-1 $153 forward single #
loop $-1 $-1 $154 $52 #
plane-surface $-1 -30.409365145251908 54.852687240817325 151.13245725676447 -1 0 0 0 0.5877852598018023 0.80901698891910034 forward_v I I I I #
loop $-1 $-1 $155 $34 #
coedge $-1 $90 $90 $91 $156 forward $53 $-1 #
coedge $-1 $91 $91 $90 $156 reversed $55 $-1 #
coedge $-1 $92 $92 $56 $93 forward $152 $-1 #
edge $-1 $157 1.0383449354295376e-015 $157 6.2831853071796013 $92 $158 forward 7 unknown #
face $-1 $159 $160 $19 $-1 $161 reversed single #
loop $-1 $162 $163 $57 #
cone-surface $-1 -55.072164657948278 25.644940128467482 7.5906260150004963 0 -0.5877852598018023 -0.80901698891910034 2 0 0 1 I I 0 1 2 forward I I I I #
loop $-1 $-1 $164 $37 #
coedge $-1 $98 $98 $99 $165 forward $58 $-1 #
coedge $-1 $99 $99 $98 $165 reversed $60 $-1 #
coedge $-1 $100 $100 $61 $101 forward $166 $-1 #
edge $-1 $167 1.0383449354295376e-015 $167 6.2831853071796013 $100 $168 forward 7 unknown #
face $-1 $169 $170 $15 $-1 $171 reversed single #
loop $-1 $-1 $172 $62 #
plane-surface $-1 -64.937284463026828 0 0 1 0 0 0 0 -1 forward_v I I I I #
coedge $-1 $173 $113 $174 $175 forward $63 $-1 #
coedge $-1 $176 $65 $173 $177 forward $41 $-1 #
coedge $-1 $65 $176 $178 $179 forward $41 $-1 #
coedge $-1 $116 $115 $65 $109 reversed $117 $-1 #
edge $-1 $180 -34.764544940043841 $181 34.764544940043841 $108 $182 forward 7 unknown #
coedge $-1 $67 $66 $183 $184 forward $26 $-1 #
coedge $-1 $185 $186 $66 $112 reversed $170 $-1 #
edge $-1 $119 -64.937284463026828 $187 64.937284463026828 $111 $188 forward 7 unknown #
coedge $-1 $105 $189 $67 $114 reversed $63 $-1 #
edge $-1 $190 -64.937284463026828 $118 64.937284463026828 $113 $191 forward 7 unknown #
coedge $-1 $108 $68 $189 $192 forward $117 $-1 #
coedge $-1 $68 $108 $185 $193 reversed $117 $-1 #
loop $-1 $-1 $115 $169 #
vertex $-1 $69 $194 #
vertex $-1 $69 $195 #
straight-curve $-1 64.937284463026828 0 15.523148592387752 0 1 0 I I #
face $-1 $196 $197 $16 $-1 $198 reversed single #
loop $-1 $-1 $130 $70 #
plane-surface $-1 0 0 15.523148592387752 0 0 1 1 0 0 forward_v I I I I #
coedge $-1 $199 $200 $201 $202 reversed $71 $-1 #
coedge $-1 $76 $73 $203 $204 reversed $45 $-1 #
coedge $-1 $73 $76 $205 $206 reversed $45 $-1 #
coedge $-1 $200 $199 $73 $128 forward $71 $-1 #
edge $-1 $207 -15.523148592387752 $208 15.523148592387752 $127 $209 forward 7 unknown #
coedge $-1 $75 $74 $210 $211 reversed $29 $-1 #
coedge $-1 $203 $212 $74 $131 forward $122 $-1 #
edge $-1 $213 -20.977202876255191 $134 -6.5974812513221082 $130 $214 forward 7 unknown #
coedge $-1 $215 $205 $75 $133 forward $216 $-1 #
edge $-1 $135 6.5974812513221082 $217 20.977202876255191 $132 $218 forward 7 unknown #
vertex $-1 $131 $219 #
vertex $-1 $133 $220 #
straight-curve $-1 -42.408987593228289 -20.384823315110758 0 0 0 -1 I I #
face $-1 $221 $222 $17 $-1 $223 forward single #
loop $-1 $-1 $145 $78 #
plane-surface $-1 0 0 15.523148592387752 0 0 1 1 0 0 forward_v I I I I #
coedge $-1 $84 $224 $81 $143 forward $79 $-1 #
coedge $-1 $225 $81 $226 $227 reversed $49 $-1 #
coedge $-1 $81 $225 $82 $144 reversed $49 $-1 #
edge $-1 $228 -41.100622060957143 $148 -6.5727027431822229 $140 $229 forward 7 unknown #
edge $-1 $148 -69.529089880087696 $230 -51.955328013758049 $82 $231 forward 7 unknown #
coedge $-1 $232 $233 $83 $146 forward $138 $-1 #
edge $-1 $149 -7.3382013196351785 $230 6.8792705894441433 $145 $234 forward 7 unknown #
coedge $-1 $235 $84 $233 $236 reversed $79 $-1 #
vertex $-1 $143 $237 #
vertex $-1 $146 $238 #
straight-curve $-1 -30.409365145251908 34.764544940043841 75.566228628382234 0 0 1 I I #
face $-1 $239 $240 $18 $-1 $241 reversed single #
loop $-1 $242 $92 $86 #
plane-surface $-1 -47.673324804139369 -21.485669997030207 46.06172456704239 0 0.5877852598018023 0.80901698891910034 1 0 0 forward_v I I I I #
coedge $-1 $243 $244 $245 $246 reversed $87 $-1 #
coedge $-1 $155 $155 $-1 $247 forward $89 $-1 #
edge $-1 $248 0 $248 6.2831853071796004 $90 $249 forward 7 unknown #
vertex $-1 $93 $250 #
ellipse-curve $-1 -55.072164657948278 27.655808985504187 10.358349500239958 0 -0.5877852598018023 -0.80901698891910034 2 0 0 1 I I #
face $-1 $251 $252 $19 $-1 $253 forward single #
loop $-1 $254 $255 $94 #
cone-surface $-1 -55.072164657948278 23.046286011628958 4.0138855408419083 0 -0.5877852598018023 -0.80901698891910034 1 0 0 1 I I -0.70710678118654746 0.70710678118654746 1 forward I I I I #
loop $-1 $-1 $256 $57 #
coedge $-1 $163 $163 $257 $258 reversed $95 $-1 #
coedge $-1 $164 $164 $-1 $259 forward $97 $-1 #
edge $-1 $260 0 $260 6.2831853071796004 $98 $261 forward 7 unknown #
loop $-1 $262 $100 $251 #
vertex $-1 $101 $263 #
ellipse-curve $-1 -40.274484950330454 27.655808985504187 10.358349500239958 0 -0.5877852598018023 -0.80901698891910034 2 0 0 1 I I #
face $-1 $-1 $117 $15 $-1 $264 reversed single #
loop $-1 $-1 $185 $102 #
plane-surface $-1 0 34.764544940043841 0 0 -1 0 0 0 -1 forward_v I I I I #
coedge $-1 $265 $183 $186 $266 forward $103 $-1 #
coedge $-1 $189 $105 $106 $177 reversed $63 $-1 #
coedge $-1 $183 $265 $105 $175 reversed $103 $-1 #
edge $-1 $190 -15.523148592387752 $267 15.523148592387752 $174 $268 forward 7 unknown #
coedge $-1 $107 $106 $265 $269 forward $41 $-1 #
edge $-1 $181 -64.937284463026828 $267 64.937284463026828 $173 $270 forward 7 unknown #
coedge $-1 $186 $185 $107 $179 reversed $170 $-1 #
edge $-1 $271 -64.937284463026828 $180 64.937284463026828 $178 $272 forward 7 unknown #
vertex $-1 $109 $273 #
vertex $-1 $192 $274 #
straight-curve $-1 64.937284463026828 0 -15.523148592387752 0 -1 0 I I #
coedge $-1 $172 $174 $110 $184 reversed $103 $-1 #
edge $-1 $187 -34.764544940043841 $190 34.764544940043841 $183 $275 forward 7 unknown #
coedge $-1 $178 $111 $116 $193 forward $170 $-1 #
coedge $-1 $111 $178 $172 $266 reversed $170 $-1 #
vertex $-1 $112 $276 #
straight-curve $-1 0 34.764544940043841 15.523148592387752 -1 0 0 I I #
coedge $-1 $113 $173 $115 $192 reversed $63 $-1 #
vertex $-1 $184 $277 #
straight-curve $-1 0 -34.764544940043841 15.523148592387752 1 0 0 I I #
edge $-1 $118 -15.523148592387752 $181 15.523148592387752 $115 $278 forward 7 unknown #
edge $-1 $119 -15.523148592387752 $180 15.523148592387752 $116 $279 forward 7 unknown #
point $-1 64.937284463026828 -34.764544940043841 15.523148592387752 #
point $-1 64.937284463026828 34.764544940043841 15.523148592387752 #
face $-1 $280 $216 $16 $-1 $281 reversed single #
loop $-1 $-1 $201 $121 #
plane-surface $-1 0 -34.764544940043841 0 0 1 0 0 0 1 forward_v I I I I #
coedge $-1 $127 $124 $282 $283 reversed $71 $-1 #
coedge $-1 $124 $127 $284 $285 reversed $71 $-1 #
coedge $-1 $286 $287 $124 $202 forward $197 $-1 #
edge $-1 $288 -15.523148592387752 $289 15.523148592387752 $201 $290 forward 7 unknown #
coedge $-1 $282 $130 $125 $204 forward $122 $-1 #
edge $-1 $134 -23.333993875358388 $207 -14.815993560381415 $203 $291 forward 7 unknown #
coedge $-1 $132 $284 $126 $206 forward $216 $-1 #
edge $-1 $208 14.815993560381415 $135 23.333993875358388 $205 $292 forward 7 unknown #
vertex $-1 $204 $293 #
vertex $-1 $206 $294 #
straight-curve $-1 -33.890987278251316 -20.384823315110758 0 0 0 -1 I I #
coedge $-1 $295 $296 $129 $211 forward $297 $-1 #
edge $-1 $217 -15.523148592387752 $213 15.523148592387752 $210 $298 forward 7 unknown #
coedge $-1 $130 $299 $295 $300 forward $122 $-1 #
vertex $-1 $211 $301 #
straight-curve $-1 -42.408987593228289 -13.78734206378865 15.523148592387752 0 1 0 I I #
coedge $-1 $302 $132 $296 $303 forward $216 $-1 #
loop $-1 $-1 $132 $196 #
vertex $-1 $303 $304 #
straight-curve $-1 -42.408987593228289 -13.78734206378865 -15.523148592387752 0 -1 0 I I #
point $-1 -42.408987593228289 -20.384823315110758 15.523148592387752 #
point $-1 -42.408987593228289 -20.384823315110758 -15.523148592387752 #
face $-1 $305 $306 $17 $-1 $307 forward single #
loop $-1 $-1 $308 $137 #
plane-surface $-1 -42.408987593228289 -27.574684127577299 0 1 0 0 0 0 -1 forward_v I I I I #
coedge $-1 $140 $309 $310 $311 reversed $79 $-1 #
coedge $-1 $142 $141 $232 $312 reversed $49 $-1 #
coedge $-1 $310 $313 $141 $227 forward $314 $-1 #
edge $-1 $315 29.726990620025603 $228 47.30075248635525 $226 $316 forward 7 unknown #
vertex $-1 $311 $317 #
straight-curve $-1 -23.836662402069685 34.764544940043834 5.1935504080921788 1 0 0 I I #
vertex $-1 $312 $318 #
straight-curve $-1 -30.409365145251908 -21.485669997030207 46.06172456704239 0 -0.80901698891910034 0.5877852598018023 I I #
coedge $-1 $319 $145 $225 $312 forward $138 $-1 #
coedge $-1 $145 $320 $147 $236 forward $138 $-1 #
straight-curve $-1 -30.409365145251908 27.426343620408662 15.523148592387756 0 -1 0 I I #
coedge $-1 $309 $147 $321 $322 forward $79 $-1 #
edge $-1 $323 -64.937284463026828 $149 30.409365145251908 $147 $324 forward 7 unknown #
point $-1 -30.409365145251908 34.764544940043841 5.1935504080921717 #
point $-1 -30.409365145251908 34.764544940043841 15.523148592387752 #
face $-1 $325 $326 $18 $-1 $327 forward single #
loop $-1 $-1 $328 $151 #
plane-surface $-1 0 34.764544940043841 0 0 -1 0 0 0 -1 forward_v I I I I #
loop $-1 $-1 $329 $86 #
coedge $-1 $244 $154 $330 $331 forward $87 $-1 #
coedge $-1 $154 $243 $332 $333 reversed $87 $-1 #
coedge $-1 $334 $328 $154 $246 forward $240 $-1 #
edge $-1 $335 -70.372678220290055 $336 -60.043080035994478 $245 $337 forward 7 unknown #
edge $-1 $338 1 $338 0 $155 $-1 forward 7 unknown #
vertex $-1 $156 $339 #
ellipse-curve $-1 -55.072164657948278 23.634071271430759 4.8229025297610084 0 0.5877852598018023 0.80901698891910034 2 0 0 1 I I #
point $-1 -53.072164657948278 27.655808985504201 10.358349500239981 #
face $-1 $340 $166 $19 $-1 $341 forward single #
loop $-1 $-1 $342 $159 #
plane-surface $-1 -30.409365145251908 54.852687240817325 151.13245725676447 -1 0 0 0 0.5877852598018023 0.80901698891910034 forward_v I I I I #
loop $-1 $-1 $343 $94 #
coedge $-1 $255 $255 $256 $344 forward $160 $-1 #
coedge $-1 $256 $256 $255 $344 reversed $162 $-1 #
coedge $-1 $257 $257 $163 $258 forward $262 $-1 #
edge $-1 $345 1.0383449354295376e-015 $345 6.2831853071796013 $257 $346 forward 7 unknown #
edge $-1 $347 1 $347 0 $164 $-1 forward 7 unknown #
vertex $-1 $165 $348 #
ellipse-curve $-1 -40.274484950330454 23.634071271430759 4.8229025297610084 0 0.5877852598018023 0.80901698891910034 2 0 0 1 I I #
loop $-1 $349 $257 $251 #
point $-1 -38.274484950330454 27.655808985504201 10.358349500239981 #
plane-surface $-1 64.937284463026828 0 0 -1 0 0 0 0 1 forward_v I I I I #
coedge $-1 $174 $172 $176 $269 reversed $103 $-1 #
edge $-1 $187 -15.523148592387752 $271 15.523148592387752 $186 $350 forward 7 unknown #
vertex $-1 $269 $351 #
straight-curve $-1 -64.937284463026828 -34.764544940043841 0 0 0 -1 I I #
edge $-1 $267 -34.764544940043841 $271 34.764544940043841 $265 $352 forward 7 unknown #
straight-curve $-1 0 -34.764544940043841 -15.523148592387752 -1 0 0 I I #
vertex $-1 $179 $353 #
straight-curve $-1 0 34.764544940043841 -15.523148592387752 1 0 0 I I #
point $-1 64.937284463026828 34.764544940043841 -15.523148592387752 #
point $-1 64.937284463026828 -34.764544940043841 -15.523148592387752 #
straight-curve $-1 -64.937284463026828 0 15.523148592387752 0 -1 0 I I #
point $-1 -64.937284463026828 34.764544940043841 15.523148592387752 #
point $-1 -64.937284463026828 -34.764544940043841 15.523148592387752 #
straight-curve $-1 64.937284463026828 -34.764544940043841 0 0 0 -1 I I #
straight-curve $-1 64.937284463026828 34.764544940043841 0 0 0 -1 I I #
face $-1 $354 $297 $16 $-1 $198 reversed single #
plane-surface $-1 0 0 -15.523148592387752 0 0 1 1 0 0 forward_v I I I I #
coedge $-1 $355 $203 $199 $283 forward $122 $-1 #
edge $-1 $207 6.5974812513221082 $288 20.977202876255191 $282 $356 forward 7 unknown #
coedge $-1 $205 $357 $200 $285 forward $216 $-1 #
edge $-1 $289 -20.977202876255191 $208 -6.5974812513221082 $284 $358 forward 7 unknown #
coedge $-1 $359 $201 $357 $360 reversed $197 $-1 #
coedge $-1 $201 $359 $355 $361 reversed $197 $-1 #
vertex $-1 $361 $362 #
vertex $-1 $202 $363 #
straight-curve $-1 -33.890987278251316 -34.764544940043841 0 0 0 -1 I I #
straight-curve $-1 -19.074993717869901 -20.384823315110758 15.523148592387752 1 0 0 I I #
straight-curve $-1 -19.074993717869901 -20.384823315110758 -15.523148592387752 -1 0 0 I I #
point $-1 -33.890987278251316 -20.384823315110758 15.523148592387752 #
point $-1 -33.890987278251316 -20.384823315110758 -15.523148592387752 #
coedge $-1 $364 $210 $212 $300 reversed $297 $-1 #
coedge $-1 $210 $364 $215 $303 reversed $297 $-1 #
loop $-1 $-1 $210 $280 #
straight-curve $-1 -42.408987593228289 -34.764544940043841 0 0 0 1 I I #
coedge $-1 $212 $365 $366 $367 forward $122 $-1 #
edge $-1 $368 -64.937284463026828 $213 -42.408987593228289 $295 $369 forward 7 unknown #
point $-1 -42.408987593228289 -34.764544940043841 15.523148592387752 #
coedge $-1 $370 $215 $371 $372 forward $216 $-1 #
edge $-1 $217 42.408987593228289 $373 64.937284463026828 $296 $374 forward 7 unknown #
point $-1 -42.408987593228289 -34.764544940043841 -15.523148592387752 #
face $-1 $375 $376 $17 $-1 $377 forward single #
loop $-1 $-1 $378 $221 #
plane-surface $-1 -38.149987435739803 -20.384823315110758 0 0 -1 0 0 0 -1 forward_v I I I I #
coedge $-1 $379 $380 $381 $382 reversed $222 $-1 #
coedge $-1 $224 $235 $383 $384 reversed $79 $-1 #
coedge $-1 $385 $226 $224 $311 forward $314 $-1 #
edge $-1 $228 -5.1935504080921815 $386 15.523148592387752 $224 $387 forward 7 unknown #
edge $-1 $230 6.5727027431822229 $315 41.100622060957143 $232 $388 forward 7 unknown #
coedge $-1 $226 $389 $319 $390 reversed $314 $-1 #
loop $-1 $-1 $226 $391 #
vertex $-1 $390 $392 #
straight-curve $-1 -64.937284463026828 -3.5025674100749349 32.996235497105246 0 0.80901698891910034 -0.5877852598018023 I I #
point $-1 -64.937284463026828 34.764544940043841 5.1935504080921815 #
point $-1 -30.409365145251908 20.547073030964519 15.523148592387756 #
coedge $-1 $393 $232 $313 $390 forward $138 $-1 #
coedge $-1 $233 $394 $395 $396 forward $138 $-1 #
coedge $-1 $395 $397 $235 $322 reversed $398 $-1 #
edge $-1 $323 -15.523148592387752 $399 15.523148592387752 $321 $400 forward 7 unknown #
vertex $-1 $396 $401 #
straight-curve $-1 0 34.764544940043841 15.523148592387752 -1 0 0 I I #
face $-1 $402 $403 $18 $-1 $404 forward single #
loop $-1 $-1 $332 $239 #
plane-surface $-1 0 0 15.523148592387752 0 0 1 1 0 0 forward_v I I I I #
coedge $-1 $245 $405 $329 $406 forward $240 $-1 #
coedge $-1 $407 $330 $328 $406 reversed $242 $-1 #
coedge $-1 $329 $408 $243 $331 reversed $242 $-1 #
edge $-1 $335 -69.529089880087696 $409 -51.955328013758049 $243 $410 forward 7 unknown #
coedge $-1 $411 $412 $244 $333 forward $326 $-1 #
edge $-1 $336 -7.3382013196351785 $409 6.8792705894441433 $332 $413 forward 7 unknown #
coedge $-1 $414 $245 $412 $415 reversed $240 $-1 #
vertex $-1 $406 $416 #
vertex $-1 $333 $417 #
straight-curve $-1 -30.409365145251908 34.764544940043841 75.566228628382234 0 0 1 I I #
vertex $-1 $247 $418 #
point $-1 -53.072164657948278 23.634071271430759 4.8229025297610084 #
face $-1 $419 $420 $19 $-1 $421 reversed single #
plane-surface $-1 -47.673324804139369 -21.485669997030207 46.06172456704239 0 0.5877852598018023 0.80901698891910034 1 0 0 forward_v I I I I #
coedge $-1 $422 $423 $424 $425 reversed $252 $-1 #
coedge $-1 $343 $343 $-1 $426 forward $254 $-1 #
edge $-1 $427 0 $427 6.2831853071796004 $255 $428 forward 7 unknown #
vertex $-1 $258 $429 #
ellipse-curve $-1 -55.072164657948278 27.655808985504187 10.358349500239958 0 -0.5877852598018023 -0.80901698891910034 2 0 0 1 I I #
vertex $-1 $259 $430 #
point $-1 -38.274484950330454 23.634071271430759 4.8229025297610084 #
loop $-1 $-1 $431 $251 #
straight-curve $-1 -64.937284463026828 34.764544940043841 0 0 0 -1 I I #
point $-1 -64.937284463026828 -34.764544940043841 -15.523148592387752 #
straight-curve $-1 -64.937284463026828 0 -15.523148592387752 0 1 0 I I #
point $-1 -64.937284463026828 34.764544940043841 -15.523148592387752 #
face $-1 $432 $433 $16 $-1 $434 reversed single #
coedge $-1 $435 $282 $287 $361 forward $122 $-1 #
straight-curve $-1 -33.890987278251316 -13.78734206378865 15.523148592387752 0 -1 0 I I #
coedge $-1 $284 $436 $286 $360 forward $216 $-1 #
straight-curve $-1 -33.890987278251316 -13.78734206378865 -15.523148592387752 0 1 0 I I #
coedge $-1 $287 $286 $437 $438 reversed $197 $-1 #
edge $-1 $439 -64.937284463026828 $289 33.890987278251316 $286 $374 forward 7 unknown #
edge $-1 $288 -33.890987278251316 $440 64.937284463026828 $287 $369 forward 7 unknown #
point $-1 -33.890987278251316 -34.764544940043841 15.523148592387752 #
point $-1 -33.890987278251316 -34.764544940043841 -15.523148592387752 #
coedge $-1 $296 $295 $441 $442 forward $297 $-1 #
coedge $-1 $299 $435 $443 $444 forward $122 $-1 #
coedge $-1 $445 $441 $299 $367 reversed $433 $-1 #
edge $-1 $446 -34.764544940043841 $368 34.764544940043841 $366 $447 forward 7 unknown #
vertex $-1 $367 $448 #
straight-curve $-1 0 -34.764544940043841 15.523148592387752 1 0 0 I I #
coedge $-1 $436 $302 $449 $450 forward $216 $-1 #
coedge $-1 $441 $445 $302 $372 reversed $433 $-1 #
edge $-1 $373 -34.764544940043841 $451 34.764544940043841 $371 $452 forward 7 unknown #
vertex $-1 $372 $453 #
straight-curve $-1 0 -34.764544940043841 -15.523148592387752 -1 0 0 I I #
face $-1 $454 $455 $17 $-1 $456 reversed single #
loop $-1 $-1 $457 $305 #
plane-surface $-1 -33.890987278251316 -27.574684127577299 0 -1 0 0 0 0 1 forward_v I I I I #
coedge $-1 $458 $459 $460 $461 reversed $306 $-1 #
coedge $-1 $462 $308 $463 $464 reversed $222 $-1 #
coedge $-1 $308 $462 $465 $466 reversed $222 $-1 #
coedge $-1 $459 $458 $308 $382 forward $306 $-1 #
edge $-1 $467 -15.523148592387752 $468 15.523148592387752 $381 $469 forward 7 unknown #
coedge $-1 $470 $471 $309 $384 forward $472 $-1 #
edge $-1 $386 -64.937284463026828 $399 64.937284463026828 $309 $473 forward 7 unknown #
coedge $-1 $389 $310 $471 $474 reversed $314 $-1 #
vertex $-1 $384 $475 #
straight-curve $-1 -64.937284463026828 34.764544940043841 0 0 0 -1 I I #
straight-curve $-1 -23.836662402069685 20.547073030964526 15.523148592387752 -1 0 0 I I #
coedge $-1 $313 $385 $476 $477 reversed $314 $-1 #
edge $-1 $315 -20.547073030964519 $478 34.764544940043841 $313 $479 forward 7 unknown #
face $-1 $480 $314 $17 $-1 $481 reversed single #
point $-1 -64.937284463026828 20.547073030964519 15.523148592387756 #
coedge $-1 $463 $319 $482 $483 forward $138 $-1 #
coedge $-1 $320 $484 $485 $486 forward $138 $-1 #
coedge $-1 $487 $321 $320 $396 reversed $398 $-1 #
edge $-1 $488 -34.764544940043841 $323 34.764544940043841 $395 $489 forward 7 unknown #
coedge $-1 $321 $487 $470 $490 reversed $398 $-1 #
loop $-1 $-1 $487 $480 #
vertex $-1 $490 $491 #
straight-curve $-1 64.937284463026828 34.764544940043841 0 0 0 -1 I I #
point $-1 64.937284463026828 34.764544940043841 15.523148592387752 #
face $-1 $492 $493 $18 $-1 $494 forward single #
loop $-1 $-1 $495 $325 #
plane-surface $-1 -42.408987593228289 -27.574684127577299 0 1 0 0 0 0 -1 forward_v I I I I #
coedge $-1 $328 $496 $497 $498 reversed $240 $-1 #
edge $-1 $499 -41.100622060957143 $335 -6.5727027431822229 $328 $500 forward 7 unknown #
coedge $-1 $408 $329 $501 $502 reversed $242 $-1 #
coedge $-1 $330 $407 $411 $503 reversed $242 $-1 #
vertex $-1 $503 $504 #
straight-curve $-1 -30.409365145251908 -21.485669997030207 46.06172456704239 0 -0.80901698891910034 0.5877852598018023 I I #
coedge $-1 $505 $332 $408 $503 forward $326 $-1 #
coedge $-1 $332 $506 $334 $415 forward $326 $-1 #
straight-curve $-1 -30.409365145251908 27.426343620408662 15.523148592387756 0 -1 0 I I #
coedge $-1 $496 $334 $507 $508 forward $240 $-1 #
edge $-1 $509 -64.937284463026828 $336 30.409365145251908 $334 $510 forward 7 unknown #
point $-1 -30.409365145251908 34.764544940043841 5.1935504080921717 #
point $-1 -30.409365145251908 34.764544940043841 15.523148592387752 #
point $-1 -55.072164657948278 22.458500751827156 3.2048685519228082 #
face $-1 $511 $512 $19 $-1 $513 forward single #
loop $-1 $-1 $514 $340 #
plane-surface $-1 0 34.764544940043841 0 0 -1 0 0 0 -1 forward_v I I I I #
coedge $-1 $423 $342 $515 $516 forward $252 $-1 #
coedge $-1 $342 $422 $517 $518 reversed $252 $-1 #
coedge $-1 $519 $514 $342 $425 forward $420 $-1 #
edge $-1 $520 -70.372678220290055 $521 -60.043080035994478 $424 $522 forward 7 unknown #
edge $-1 $523 1 $523 0 $343 $-1 forward 7 unknown #
vertex $-1 $344 $524 #
ellipse-curve $-1 -55.072164657948278 23.634071271430759 4.8229025297610084 0 0.5877852598018023 0.80901698891910034 2 0 0 1 I I #
point $-1 -53.072164657948278 27.655808985504201 10.358349500239981 #
point $-1 -40.274484950330454 22.458500751827156 3.2048685519228082 #
coedge $-1 $525 $515 $514 $526 reversed $349 $-1 #
face $-1 $527 $528 $16 $-1 $529 reversed single #
loop $-1 $-1 $445 $354 #
plane-surface $-1 -64.937284463026828 0 0 1 0 0 0 0 -1 forward_v I I I I #
coedge $-1 $365 $355 $530 $531 forward $122 $-1 #
coedge $-1 $357 $370 $532 $533 forward $216 $-1 #
coedge $-1 $532 $530 $359 $438 forward $534 $-1 #
edge $-1 $440 -15.523148592387752 $439 15.523148592387752 $437 $535 forward 7 unknown #
vertex $-1 $438 $536 #
vertex $-1 $531 $537 #
coedge $-1 $366 $371 $364 $442 reversed $433 $-1 #
edge $-1 $368 -15.523148592387752 $373 15.523148592387752 $441 $538 forward 7 unknown #
coedge $-1 $539 $540 $365 $444 reversed $528 $-1 #
edge $-1 $541 -64.937284463026828 $446 64.937284463026828 $443 $542 forward 7 unknown #
coedge $-1 $371 $366 $540 $543 forward $433 $-1 #
vertex $-1 $444 $544 #
straight-curve $-1 -64.937284463026828 0 15.523148592387752 0 -1 0 I I #
point $-1 -64.937284463026828 -34.764544940043841 15.523148592387752 #
coedge $-1 $540 $539 $370 $450 reversed $528 $-1 #
edge $-1 $451 -64.937284463026828 $545 64.937284463026828 $449 $546 forward 7 unknown #
vertex $-1 $450 $547 #
straight-curve $-1 -64.937284463026828 0 -15.523148592387752 0 1 0 I I #
point $-1 -64.937284463026828 -34.764544940043841 -15.523148592387752 #
face $-1 $548 $472 $17 $-1 $549 reversed single #
loop $-1 $-1 $550 $375 #
plane-surface $-1 0 -34.764544940043841 0 0 1 0 0 0 1 forward_v I I I I #
coedge $-1 $551 $552 $550 $553 reversed $376 $-1 #
coedge $-1 $381 $378 $554 $555 reversed $306 $-1 #
coedge $-1 $378 $381 $556 $557 reversed $306 $-1 #
coedge $-1 $552 $551 $378 $461 forward $376 $-1 #
edge $-1 $558 -15.523148592387752 $559 15.523148592387752 $460 $560 forward 7 unknown #
coedge $-1 $380 $379 $561 $562 reversed $222 $-1 #
coedge $-1 $554 $393 $379 $464 forward $138 $-1 #
edge $-1 $563 -20.977202876255191 $467 -6.5974812513221082 $463 $564 forward 7 unknown #
coedge $-1 $565 $556 $380 $466 forward $472 $-1 #
edge $-1 $468 6.5974812513221082 $566 20.977202876255191 $465 $567 forward 7 unknown #
vertex $-1 $464 $568 #
vertex $-1 $466 $569 #
straight-curve $-1 -42.408987593228289 -20.384823315110758 0 0 0 -1 I I #
coedge $-1 $570 $383 $397 $490 forward $472 $-1 #
coedge $-1 $383 $565 $385 $474 forward $472 $-1 #
loop $-1 $-1 $465 $454 #
straight-curve $-1 0 34.764544940043841 -15.523148592387752 1 0 0 I I #
edge $-1 $571 -34.764544940043841 $386 34.764544940043841 $385 $572 forward 7 unknown #
point $-1 -64.937284463026828 34.764544940043841 -15.523148592387752 #
coedge $-1 $573 $482 $389 $477 forward $574 $-1 #
edge $-1 $478 -15.523148592387752 $571 15.523148592387752 $389 $575 forward 7 unknown #
vertex $-1 $390 $576 #
straight-curve $-1 -64.937284463026828 0 15.523148592387752 0 -1 0 I I #
face $-1 $-1 $398 $17 $-1 $577 reversed single #
plane-surface $-1 -64.937284463026828 0 0 1 0 0 0 0 -1 forward_v I I I I #
coedge $-1 $476 $561 $393 $483 reversed $574 $-1 #
edge $-1 $478 -64.937284463026828 $563 -42.408987593228289 $482 $578 forward 7 unknown #
coedge $-1 $394 $554 $551 $579 forward $138 $-1 #
coedge $-1 $550 $580 $394 $486 reversed $455 $-1 #
edge $-1 $581 -33.890987278251316 $488 64.937284463026828 $485 $578 forward 7 unknown #
coedge $-1 $397 $395 $580 $582 forward $398 $-1 #
vertex $-1 $396 $583 #
straight-curve $-1 64.937284463026828 0 15.523148592387752 0 1 0 I I #
edge $-1 $399 -34.764544940043841 $584 34.764544940043841 $397 $585 forward 7 unknown #
point $-1 64.937284463026828 34.764544940043841 -15.523148592387752 #
face $-1 $586 $587 $18 $-1 $588 forward single #
loop $-1 $-1 $589 $402 #
plane-surface $-1 -38.149987435739803 -20.384823315110758 0 0 -1 0 0 0 -1 forward_v I I I I #
coedge $-1 $590 $591 $592 $593 reversed $403 $-1 #
coedge $-1 $405 $414 $594 $595 reversed $240 $-1 #
coedge $-1 $596 $501 $405 $498 forward $597 $-1 #
edge $-1 $499 -5.1935504080921815 $598 15.523148592387752 $405 $599 forward 7 unknown #
vertex $-1 $498 $600 #
straight-curve $-1 -23.836662402069685 34.764544940043834 5.1935504080921788 1 0 0 I I #
coedge $-1 $497 $601 $407 $502 forward $597 $-1 #
edge $-1 $602 29.726990620025603 $499 47.30075248635525 $501 $603 forward 7 unknown #
edge $-1 $409 6.5727027431822229 $602 41.100622060957143 $411 $604 forward 7 unknown #
point $-1 -30.409365145251908 20.547073030964519 15.523148592387756 #
coedge $-1 $605 $411 $601 $606 forward $326 $-1 #
coedge $-1 $412 $607 $608 $609 forward $326 $-1 #
coedge $-1 $608 $610 $414 $508 reversed $611 $-1 #
edge $-1 $509 -15.523148592387752 $612 15.523148592387752 $507 $613 forward 7 unknown #
vertex $-1 $609 $614 #
straight-curve $-1 0 34.764544940043841 15.523148592387752 -1 0 0 I I #
face $-1 $615 $616 $19 $-1 $617 forward single #
loop $-1 $-1 $517 $419 #
plane-surface $-1 0 0 15.523148592387752 0 0 1 1 0 0 forward_v I I I I #
coedge $-1 $424 $618 $431 $526 forward $420 $-1 #
coedge $-1 $431 $619 $422 $516 reversed $349 $-1 #
edge $-1 $520 -69.529089880087696 $620 -51.955328013758049 $422 $621 forward 7 unknown #
coedge $-1 $622 $623 $423 $518 forward $512 $-1 #
edge $-1 $521 -7.3382013196351785 $620 6.8792705894441433 $517 $624 forward 7 unknown #
coedge $-1 $625 $424 $623 $626 reversed $420 $-1 #
vertex $-1 $526 $627 #
vertex $-1 $518 $628 #
straight-curve $-1 -30.409365145251908 34.764544940043841 75.566228628382234 0 0 1 I I #
vertex $-1 $426 $629 #
point $-1 -53.072164657948278 23.634071271430759 4.8229025297610084 #
coedge $-1 $619 $431 $630 $631 reversed $349 $-1 #
edge $-1 $632 -41.100622060957143 $520 -6.5727027431822229 $514 $633 forward 7 unknown #
face $-1 $-1 $534 $16 $-1 $634 reversed single #
loop $-1 $-1 $539 $432 #
plane-surface $-1 0 34.764544940043841 0 0 -1 0 0 0 -1 forward_v I I I I #
coedge $-1 $437 $635 $435 $531 reversed $534 $-1 #
edge $-1 $440 -34.764544940043841 $541 34.764544940043841 $530 $636 forward 7 unknown #
coedge $-1 $635 $437 $436 $533 reversed $534 $-1 #
edge $-1 $545 -34.764544940043841 $439 34.764544940043841 $532 $637 forward 7 unknown #
loop $-1 $-1 $437 $527 #
straight-curve $-1 64.937284463026828 -34.764544940043841 0 0 0 -1 I I #
point $-1 64.937284463026828 -34.764544940043841 -15.523148592387752 #
point $-1 64.937284463026828 -34.764544940043841 15.523148592387752 #
straight-curve $-1 -64.937284463026828 -34.764544940043841 0 0 0 -1 I I #
coedge $-1 $449 $443 $635 $638 forward $528 $-1 #
coedge $-1 $443 $449 $445 $543 reversed $528 $-1 #
vertex $-1 $531 $639 #
straight-curve $-1 0 34.764544940043841 15.523148592387752 -1 0 0 I I #
edge $-1 $446 -15.523148592387752 $451 15.523148592387752 $540 $640 forward 7 unknown #
point $-1 -64.937284463026828 34.764544940043841 15.523148592387752 #
vertex $-1 $533 $641 #
straight-curve $-1 0 34.764544940043841 -15.523148592387752 1 0 0 I I #
point $-1 -64.937284463026828 34.764544940043841 -15.523148592387752 #
face $-1 $391 $574 $17 $-1 $456 reversed single #
plane-surface $-1 0 0 -15.523148592387752 0 0 1 1 0 0 forward_v I I I I #
coedge $-1 $642 $485 $457 $553 forward $455 $-1 #
coedge $-1 $460 $457 $484 $579 reversed $376 $-1 #
coedge $-1 $457 $460 $643 $644 reversed $376 $-1 #
edge $-1 $581 -15.523148592387752 $645 15.523148592387752 $550 $646 forward 7 unknown #
coedge $-1 $484 $463 $458 $555 forward $138 $-1 #
edge $-1 $467 -23.333993875358388 $558 -14.815993560381415 $554 $647 forward 7 unknown #
coedge $-1 $465 $643 $459 $557 forward $472 $-1 #
edge $-1 $559 14.815993560381415 $468 23.333993875358388 $556 $648 forward 7 unknown #
vertex $-1 $555 $649 #
vertex $-1 $557 $650 #
straight-curve $-1 -33.890987278251316 -20.384823315110758 0 0 0 -1 I I #
coedge $-1 $482 $573 $462 $562 forward $574 $-1 #
edge $-1 $566 -15.523148592387752 $563 15.523148592387752 $561 $651 forward 7 unknown #
vertex $-1 $562 $652 #
straight-curve $-1 -42.408987593228289 -13.78734206378865 15.523148592387752 0 1 0 I I #
coedge $-1 $471 $465 $573 $653 forward $472 $-1 #
vertex $-1 $653 $654 #
straight-curve $-1 -42.408987593228289 -13.78734206378865 -15.523148592387752 0 -1 0 I I #
point $-1 -42.408987593228289 -20.384823315110758 15.523148592387752 #
point $-1 -42.408987593228289 -20.384823315110758 -15.523148592387752 #
coedge $-1 $643 $470 $642 $655 forward $472 $-1 #
vertex $-1 $474 $656 #
straight-curve $-1 -64.937284463026828 0 -15.523148592387752 0 1 0 I I #
coedge $-1 $561 $476 $565 $653 reversed $574 $-1 #
loop $-1 $-1 $561 $548 #
straight-curve $-1 -64.937284463026828 -34.764544940043841 0 0 0 -1 I I #
point $-1 -64.937284463026828 -34.764544940043841 15.523148592387752 #
plane-surface $-1 64.937284463026828 0 0 -1 0 0 0 0 1 forward_v I I I I #
straight-curve $-1 0 -34.764544940043841 15.523148592387752 1 0 0 I I #
edge $-1 $558 6.5974812513221082 $581 20.977202876255191 $484 $657 forward 7 unknown #
coedge $-1 $485 $642 $487 $582 reversed $455 $-1 #
vertex $-1 $486 $658 #
edge $-1 $488 -15.523148592387752 $584 15.523148592387752 $487 $659 forward 7 unknown #
point $-1 64.937284463026828 -34.764544940043841 15.523148592387752 #
vertex $-1 $582 $660 #
straight-curve $-1 64.937284463026828 0 -15.523148592387752 0 -1 0 I I #
face $-1 $661 $662 $18 $-1 $663 reversed single #
loop $-1 $-1 $664 $492 #
plane-surface $-1 -33.890987278251316 -27.574684127577299 0 -1 0 0 0 0 1 forward_v I I I I #
coedge $-1 $665 $666 $667 $668 reversed $493 $-1 #
coedge $-1 $669 $495 $670 $671 reversed $403 $-1 #
coedge $-1 $495 $669 $672 $673 reversed $403 $-1 #
coedge $-1 $666 $665 $495 $593 forward $493 $-1 #
edge $-1 $674 -15.523148592387752 $675 15.523148592387752 $592 $676 forward 7 unknown #
coedge $-1 $677 $678 $496 $595 forward $679 $-1 #
edge $-1 $598 -64.937284463026828 $612 64.937284463026828 $496 $680 forward 7 unknown #
coedge $-1 $681 $497 $678 $682 reversed $597 $-1 #
loop $-1 $-1 $501 $683 #
vertex $-1 $595 $684 #
straight-curve $-1 -64.937284463026828 34.764544940043841 0 0 0 -1 I I #
point $-1 -64.937284463026828 34.764544940043841 5.1935504080921815 #
coedge $-1 $501 $681 $505 $606 reversed $597 $-1 #
vertex $-1 $606 $685 #
straight-curve $-1 -64.937284463026828 -3.5025674100749349 32.996235497105246 0 0.80901698891910034 -0.5877852598018023 I I #
straight-curve $-1 -23.836662402069685 20.547073030964526 15.523148592387752 -1 0 0 I I #
coedge $-1 $670 $505 $686 $687 forward $326 $-1 #
edge $-1 $602 -20.547073030964519 $688 34.764544940043841 $601 $689 forward 7 unknown #
coedge $-1 $506 $690 $691 $692 forward $326 $-1 #
coedge $-1 $693 $507 $506 $609 reversed $611 $-1 #
edge $-1 $694 -34.764544940043841 $509 34.764544940043841 $608 $695 forward 7 unknown #
coedge $-1 $507 $693 $677 $696 reversed $611 $-1 #
loop $-1 $-1 $693 $697 #
vertex $-1 $696 $698 #
straight-curve $-1 64.937284463026828 34.764544940043841 0 0 0 -1 I I #
point $-1 64.937284463026828 34.764544940043841 15.523148592387752 #
face $-1 $699 $700 $19 $-1 $701 forward single #
loop $-1 $-1 $702 $511 #
plane-surface $-1 -42.408987593228289 -27.574684127577299 0 1 0 0 0 0 -1 forward_v I I I I #
coedge $-1 $514 $703 $704 $705 reversed $420 $-1 #
coedge $-1 $515 $525 $622 $706 reversed $349 $-1 #
vertex $-1 $706 $707 #
straight-curve $-1 -30.409365145251908 -21.485669997030207 46.06172456704239 0 -0.80901698891910034 0.5877852598018023 I I #
coedge $-1 $708 $517 $619 $706 forward $512 $-1 #
coedge $-1 $517 $709 $519 $626 forward $512 $-1 #
straight-curve $-1 -30.409365145251908 27.426343620408662 15.523148592387756 0 -1 0 I I #
coedge $-1 $703 $519 $710 $711 forward $420 $-1 #
edge $-1 $712 -64.937284463026828 $521 30.409365145251908 $519 $713 forward 7 unknown #
point $-1 -30.409365145251908 34.764544940043841 5.1935504080921717 #
point $-1 -30.409365145251908 34.764544940043841 15.523148592387752 #
point $-1 -55.072164657948278 22.458500751827156 3.2048685519228082 #
coedge $-1 $704 $714 $525 $631 forward $715 $-1 #
edge $-1 $716 29.726990620025603 $632 47.30075248635525 $630 $717 forward 7 unknown #
vertex $-1 $705 $718 #
straight-curve $-1 -23.836662402069685 34.764544940043834 5.1935504080921788 1 0 0 I I #
plane-surface $-1 64.937284463026828 0 0 -1 0 0 0 0 1 forward_v I I I I #
coedge $-1 $530 $532 $539 $638 reversed $534 $-1 #
straight-curve $-1 64.937284463026828 0 15.523148592387752 0 1 0 I I #
straight-curve $-1 64.937284463026828 0 -15.523148592387752 0 -1 0 I I #
edge $-1 $541 -15.523148592387752 $545 15.523148592387752 $635 $719 forward 7 unknown #
point $-1 64.937284463026828 34.764544940043841 15.523148592387752 #
straight-curve $-1 -64.937284463026828 34.764544940043841 0 0 0 -1 I I #
point $-1 64.937284463026828 34.764544940043841 -15.523148592387752 #
coedge $-1 $580 $550 $570 $655 reversed $455 $-1 #
coedge $-1 $556 $570 $552 $644 forward $472 $-1 #
edge $-1 $645 -20.977202876255191 $559 -6.5974812513221082 $643 $720 forward 7 unknown #
vertex $-1 $553 $721 #
straight-curve $-1 -33.890987278251316 -34.764544940043841 0 0 0 -1 I I #
straight-curve $-1 -19.074993717869901 -20.384823315110758 15.523148592387752 1 0 0 I I #
straight-curve $-1 -19.074993717869901 -20.384823315110758 -15.523148592387752 -1 0 0 I I #
point $-1 -33.890987278251316 -20.384823315110758 15.523148592387752 #
point $-1 -33.890987278251316 -20.384823315110758 -15.523148592387752 #
straight-curve $-1 -42.408987593228289 -34.764544940043841 0 0 0 1 I I #
point $-1 -42.408987593228289 -34.764544940043841 15.523148592387752 #
edge $-1 $566 42.408987593228289 $571 64.937284463026828 $573 $722 forward 7 unknown #
point $-1 -42.408987593228289 -34.764544940043841 -15.523148592387752 #
edge $-1 $584 -64.937284463026828 $645 33.890987278251316 $642 $722 forward 7 unknown #
point $-1 -64.937284463026828 -34.764544940043841 -15.523148592387752 #
straight-curve $-1 -33.890987278251316 -13.78734206378865 15.523148592387752 0 -1 0 I I #
point $-1 -33.890987278251316 -34.764544940043841 15.523148592387752 #
straight-curve $-1 64.937284463026828 -34.764544940043841 0 0 0 -1 I I #
point $-1 64.937284463026828 -34.764544940043841 -15.523148592387752 #
face $-1 $723 $679 $18 $-1 $724 reversed single #
loop $-1 $-1 $725 $586 #
plane-surface $-1 0 -34.764544940043841 0 0 1 0 0 0 1 forward_v I I I I #
coedge $-1 $726 $727 $725 $728 reversed $587 $-1 #
coedge $-1 $592 $589 $729 $730 reversed $493 $-1 #
coedge $-1 $589 $592 $731 $732 reversed $493 $-1 #
coedge $-1 $727 $726 $589 $668 forward $587 $-1 #
edge $-1 $733 -15.523148592387752 $734 15.523148592387752 $667 $735 forward 7 unknown #
coedge $-1 $591 $590 $736 $737 reversed $403 $-1 #
coedge $-1 $729 $605 $590 $671 forward $326 $-1 #
edge $-1 $738 -20.977202876255191 $674 -6.5974812513221082 $670 $739 forward 7 unknown #
coedge $-1 $740 $731 $591 $673 forward $679 $-1 #
edge $-1 $675 6.5974812513221082 $741 20.977202876255191 $672 $742 forward 7 unknown #
vertex $-1 $671 $743 #
vertex $-1 $673 $744 #
straight-curve $-1 -42.408987593228289 -20.384823315110758 0 0 0 -1 I I #
coedge $-1 $745 $594 $610 $696 forward $679 $-1 #
coedge $-1 $594 $740 $596 $682 forward $679 $-1 #
loop $-1 $-1 $672 $661 #
straight-curve $-1 0 34.764544940043841 -15.523148592387752 1 0 0 I I #
coedge $-1 $601 $596 $746 $747 reversed $597 $-1 #
edge $-1 $748 -34.764544940043841 $598 34.764544940043841 $596 $749 forward 7 unknown #
face $-1 $697 $597 $18 $-1 $750 reversed single #
point $-1 -64.937284463026828 34.764544940043841 -15.523148592387752 #
point $-1 -64.937284463026828 20.547073030964519 15.523148592387756 #
coedge $-1 $746 $736 $605 $687 reversed $751 $-1 #
edge $-1 $688 -64.937284463026828 $738 -42.408987593228289 $686 $752 forward 7 unknown #
vertex $-1 $606 $753 #
straight-curve $-1 -64.937284463026828 0 15.523148592387752 0 -1 0 I I #
coedge $-1 $607 $729 $726 $754 forward $326 $-1 #
coedge $-1 $725 $755 $607 $692 reversed $662 $-1 #
edge $-1 $756 -33.890987278251316 $694 64.937284463026828 $691 $752 forward 7 unknown #
coedge $-1 $610 $608 $755 $757 forward $611 $-1 #
vertex $-1 $609 $758 #
straight-curve $-1 64.937284463026828 0 15.523148592387752 0 1 0 I I #
edge $-1 $612 -34.764544940043841 $759 34.764544940043841 $610 $760 forward 7 unknown #
face $-1 $-1 $611 $18 $-1 $761 reversed single #
point $-1 64.937284463026828 34.764544940043841 -15.523148592387752 #
face $-1 $762 $763 $19 $-1 $764 forward single #
loop $-1 $-1 $765 $615 #
plane-surface $-1 -38.149987435739803 -20.384823315110758 0 0 -1 0 0 0 -1 forward_v I I I I #
coedge $-1 $766 $767 $768 $769 reversed $616 $-1 #
coedge $-1 $618 $625 $770 $771 reversed $420 $-1 #
coedge $-1 $772 $630 $618 $705 forward $715 $-1 #
edge $-1 $632 -5.1935504080921815 $773 15.523148592387752 $618 $774 forward 7 unknown #
edge $-1 $620 6.5727027431822229 $716 41.100622060957143 $622 $775 forward 7 unknown #
point $-1 -30.409365145251908 20.547073030964519 15.523148592387756 #
coedge $-1 $776 $622 $714 $777 forward $512 $-1 #
coedge $-1 $623 $778 $779 $780 forward $512 $-1 #
coedge $-1 $779 $781 $625 $711 reversed $782 $-1 #
edge $-1 $712 -15.523148592387752 $783 15.523148592387752 $710 $784 forward 7 unknown #
vertex $-1 $780 $785 #
straight-curve $-1 0 34.764544940043841 15.523148592387752 -1 0 0 I I #
coedge $-1 $630 $786 $708 $777 reversed $715 $-1 #
loop $-1 $-1 $630 $787 #
vertex $-1 $777 $788 #
straight-curve $-1 -64.937284463026828 -3.5025674100749349 32.996235497105246 0 0.80901698891910034 -0.5877852598018023 I I #
point $-1 -64.937284463026828 34.764544940043841 5.1935504080921815 #
straight-curve $-1 64.937284463026828 34.764544940043841 0 0 0 -1 I I #
straight-curve $-1 -33.890987278251316 -13.78734206378865 -15.523148592387752 0 1 0 I I #
point $-1 -33.890987278251316 -34.764544940043841 -15.523148592387752 #
straight-curve $-1 0 -34.764544940043841 -15.523148592387752 -1 0 0 I I #
face $-1 $683 $751 $18 $-1 $663 reversed single #
plane-surface $-1 0 0 -15.523148592387752 0 0 1 1 0 0 forward_v I I I I #
coedge $-1 $789 $691 $664 $728 forward $662 $-1 #
coedge $-1 $667 $664 $690 $754 reversed $587 $-1 #
coedge $-1 $664 $667 $790 $791 reversed $587 $-1 #
edge $-1 $756 -15.523148592387752 $792 15.523148592387752 $725 $793 forward 7 unknown #
coedge $-1 $690 $670 $665 $730 forward $326 $-1 #
edge $-1 $674 -23.333993875358388 $733 -14.815993560381415 $729 $794 forward 7 unknown #
coedge $-1 $672 $790 $666 $732 forward $679 $-1 #
edge $-1 $734 14.815993560381415 $675 23.333993875358388 $731 $795 forward 7 unknown #
vertex $-1 $730 $796 #
vertex $-1 $732 $797 #
straight-curve $-1 -33.890987278251316 -20.384823315110758 0 0 0 -1 I I #
coedge $-1 $686 $798 $669 $737 forward $751 $-1 #
edge $-1 $741 -15.523148592387752 $738 15.523148592387752 $736 $799 forward 7 unknown #
vertex $-1 $737 $800 #
straight-curve $-1 -42.408987593228289 -13.78734206378865 15.523148592387752 0 1 0 I I #
coedge $-1 $678 $672 $798 $801 forward $679 $-1 #
vertex $-1 $801 $802 #
straight-curve $-1 -42.408987593228289 -13.78734206378865 -15.523148592387752 0 -1 0 I I #
point $-1 -42.408987593228289 -20.384823315110758 15.523148592387752 #
point $-1 -42.408987593228289 -20.384823315110758 -15.523148592387752 #
coedge $-1 $790 $677 $789 $803 forward $679 $-1 #
coedge $-1 $798 $686 $681 $747 forward $751 $-1 #
edge $-1 $688 -15.523148592387752 $748 15.523148592387752 $681 $804 forward 7 unknown #
vertex $-1 $682 $805 #
straight-curve $-1 -64.937284463026828 0 -15.523148592387752 0 1 0 I I #
plane-surface $-1 -64.937284463026828 0 0 1 0 0 0 0 -1 forward_v I I I I #
loop $-1 $-1 $736 $723 #
straight-curve $-1 0 -34.764544940043841 15.523148592387752 1 0 0 I I #
point $-1 -64.937284463026828 -34.764544940043841 15.523148592387752 #
edge $-1 $733 6.5974812513221082 $756 20.977202876255191 $690 $806 forward 7 unknown #
coedge $-1 $691 $789 $693 $757 reversed $662 $-1 #
vertex $-1 $692 $807 #
edge $-1 $694 -15.523148592387752 $759 15.523148592387752 $693 $808 forward 7 unknown #
point $-1 64.937284463026828 -34.764544940043841 15.523148592387752 #
vertex $-1 $757 $809 #
straight-curve $-1 64.937284463026828 0 -15.523148592387752 0 -1 0 I I #
plane-surface $-1 64.937284463026828 0 0 -1 0 0 0 0 1 forward_v I I I I #
face $-1 $810 $811 $19 $-1 $812 reversed single #
loop $-1 $-1 $813 $699 #
plane-surface $-1 -33.890987278251316 -27.574684127577299 0 -1 0 0 0 0 1 forward_v I I I I #
coedge $-1 $814 $815 $816 $817 reversed $700 $-1 #
coedge $-1 $818 $702 $819 $820 reversed $616 $-1 #
coedge $-1 $702 $818 $821 $822 reversed $616 $-1 #
coedge $-1 $815 $814 $702 $769 forward $700 $-1 #
edge $-1 $823 -15.523148592387752 $824 15.523148592387752 $768 $825 forward 7 unknown #
coedge $-1 $826 $827 $703 $771 forward $828 $-1 #
edge $-1 $773 -64.937284463026828 $783 64.937284463026828 $703 $829 forward 7 unknown #
coedge $-1 $786 $704 $827 $830 reversed $715 $-1 #
vertex $-1 $771 $831 #
straight-curve $-1 -64.937284463026828 34.764544940043841 0 0 0 -1 I I #
straight-curve $-1 -23.836662402069685 20.547073030964526 15.523148592387752 -1 0 0 I I #
coedge $-1 $819 $708 $832 $833 forward $512 $-1 #
edge $-1 $716 -20.547073030964519 $834 34.764544940043841 $714 $835 forward 7 unknown #
coedge $-1 $709 $836 $837 $838 forward $512 $-1 #
coedge $-1 $839 $710 $709 $780 reversed $782 $-1 #
edge $-1 $840 -34.764544940043841 $712 34.764544940043841 $779 $841 forward 7 unknown #
coedge $-1 $710 $839 $826 $842 reversed $782 $-1 #
loop $-1 $-1 $839 $843 #
vertex $-1 $842 $844 #
straight-curve $-1 64.937284463026828 34.764544940043841 0 0 0 -1 I I #
point $-1 64.937284463026828 34.764544940043841 15.523148592387752 #
coedge $-1 $714 $772 $845 $846 reversed $715 $-1 #
face $-1 $843 $715 $19 $-1 $847 reversed single #
point $-1 -64.937284463026828 20.547073030964519 15.523148592387756 #
coedge $-1 $755 $725 $745 $803 reversed $662 $-1 #
coedge $-1 $731 $745 $727 $791 forward $679 $-1 #
edge $-1 $792 -20.977202876255191 $734 -6.5974812513221082 $790 $848 forward 7 unknown #
vertex $-1 $728 $849 #
straight-curve $-1 -33.890987278251316 -34.764544940043841 0 0 0 -1 I I #
straight-curve $-1 -19.074993717869901 -20.384823315110758 15.523148592387752 1 0 0 I I #
straight-curve $-1 -19.074993717869901 -20.384823315110758 -15.523148592387752 -1 0 0 I I #
point $-1 -33.890987278251316 -20.384823315110758 15.523148592387752 #
point $-1 -33.890987278251316 -20.384823315110758 -15.523148592387752 #
coedge $-1 $736 $746 $740 $801 reversed $751 $-1 #
straight-curve $-1 -42.408987593228289 -34.764544940043841 0 0 0 1 I I #
point $-1 -42.408987593228289 -34.764544940043841 15.523148592387752 #
edge $-1 $741 42.408987593228289 $748 64.937284463026828 $798 $850 forward 7 unknown #
point $-1 -42.408987593228289 -34.764544940043841 -15.523148592387752 #
edge $-1 $759 -64.937284463026828 $792 33.890987278251316 $789 $850 forward 7 unknown #
straight-curve $-1 -64.937284463026828 -34.764544940043841 0 0 0 -1 I I #
point $-1 -64.937284463026828 -34.764544940043841 -15.523148592387752 #
straight-curve $-1 -33.890987278251316 -13.78734206378865 15.523148592387752 0 -1 0 I I #
point $-1 -33.890987278251316 -34.764544940043841 15.523148592387752 #
straight-curve $-1 64.937284463026828 -34.764544940043841 0 0 0 -1 I I #
point $-1 64.937284463026828 -34.764544940043841 -15.523148592387752 #
face $-1 $851 $828 $19 $-1 $852 reversed single #
loop $-1 $-1 $853 $762 #
plane-surface $-1 0 -34.764544940043841 0 0 1 0 0 0 1 forward_v I I I I #
coedge $-1 $854 $855 $853 $856 reversed $763 $-1 #
coedge $-1 $768 $765 $857 $858 reversed $700 $-1 #
coedge $-1 $765 $768 $859 $860 reversed $700 $-1 #
coedge $-1 $855 $854 $765 $817 forward $763 $-1 #
edge $-1 $861 -15.523148592387752 $862 15.523148592387752 $816 $863 forward 7 unknown #
coedge $-1 $767 $766 $864 $865 reversed $616 $-1 #
coedge $-1 $857 $776 $766 $820 forward $512 $-1 #
edge $-1 $866 -20.977202876255191 $823 -6.5974812513221082 $819 $867 forward 7 unknown #
coedge $-1 $868 $859 $767 $822 forward $828 $-1 #
edge $-1 $824 6.5974812513221082 $869 20.977202876255191 $821 $870 forward 7 unknown #
vertex $-1 $820 $871 #
vertex $-1 $822 $872 #
straight-curve $-1 -42.408987593228289 -20.384823315110758 0 0 0 -1 I I #
coedge $-1 $873 $770 $781 $842 forward $828 $-1 #
coedge $-1 $770 $868 $772 $830 forward $828 $-1 #
loop $-1 $-1 $821 $810 #
straight-curve $-1 0 34.764544940043841 -15.523148592387752 1 0 0 I I #
edge $-1 $874 -34.764544940043841 $773 34.764544940043841 $772 $875 forward 7 unknown #
point $-1 -64.937284463026828 34.764544940043841 -15.523148592387752 #
coedge $-1 $845 $864 $776 $833 reversed $876 $-1 #
edge $-1 $834 -64.937284463026828 $866 -42.408987593228289 $832 $877 forward 7 unknown #
vertex $-1 $777 $878 #
straight-curve $-1 -64.937284463026828 0 15.523148592387752 0 -1 0 I I #
coedge $-1 $778 $857 $854 $879 forward $512 $-1 #
coedge $-1 $853 $880 $778 $838 reversed $811 $-1 #
edge $-1 $881 -33.890987278251316 $840 64.937284463026828 $837 $877 forward 7 unknown #
coedge $-1 $781 $779 $880 $882 forward $782 $-1 #
vertex $-1 $780 $883 #
straight-curve $-1 64.937284463026828 0 15.523148592387752 0 1 0 I I #
edge $-1 $783 -34.764544940043841 $884 34.764544940043841 $781 $885 forward 7 unknown #
face $-1 $-1 $782 $19 $-1 $886 reversed single #
point $-1 64.937284463026828 34.764544940043841 -15.523148592387752 #
coedge $-1 $887 $832 $786 $846 forward $876 $-1 #
edge $-1 $834 -15.523148592387752 $874 15.523148592387752 $786 $888 forward 7 unknown #
plane-surface $-1 -64.937284463026828 0 0 1 0 0 0 0 -1 forward_v I I I I #
straight-curve $-1 -33.890987278251316 -13.78734206378865 -15.523148592387752 0 1 0 I I #
point $-1 -33.890987278251316 -34.764544940043841 -15.523148592387752 #
straight-curve $-1 0 -34.764544940043841 -15.523148592387752 -1 0 0 I I #
face $-1 $787 $876 $19 $-1 $812 reversed single #
plane-surface $-1 0 0 -15.523148592387752 0 0 1 1 0 0 forward_v I I I I #
coedge $-1 $889 $837 $813 $856 forward $811 $-1 #
coedge $-1 $816 $813 $836 $879 reversed $763 $-1 #
coedge $-1 $813 $816 $890 $891 reversed $763 $-1 #
edge $-1 $881 -15.523148592387752 $892 15.523148592387752 $853 $893 forward 7 unknown #
coedge $-1 $836 $819 $814 $858 forward $512 $-1 #
edge $-1 $823 -23.333993875358388 $861 -14.815993560381415 $857 $894 forward 7 unknown #
coedge $-1 $821 $890 $815 $860 forward $828 $-1 #
edge $-1 $862 14.815993560381415 $824 23.333993875358388 $859 $895 forward 7 unknown #
vertex $-1 $858 $896 #
vertex $-1 $860 $897 #
straight-curve $-1 -33.890987278251316 -20.384823315110758 0 0 0 -1 I I #
coedge $-1 $832 $887 $818 $865 forward $876 $-1 #
edge $-1 $869 -15.523148592387752 $866 15.523148592387752 $864 $898 forward 7 unknown #
vertex $-1 $865 $899 #
straight-curve $-1 -42.408987593228289 -13.78734206378865 15.523148592387752 0 1 0 I I #
coedge $-1 $827 $821 $887 $900 forward $828 $-1 #
vertex $-1 $900 $901 #
straight-curve $-1 -42.408987593228289 -13.78734206378865 -15.523148592387752 0 -1 0 I I #
point $-1 -42.408987593228289 -20.384823315110758 15.523148592387752 #
point $-1 -42.408987593228289 -20.384823315110758 -15.523148592387752 #
coedge $-1 $890 $826 $889 $902 forward $828 $-1 #
vertex $-1 $830 $903 #
straight-curve $-1 -64.937284463026828 0 -15.523148592387752 0 1 0 I I #
loop $-1 $-1 $864 $851 #
straight-curve $-1 0 -34.764544940043841 15.523148592387752 1 0 0 I I #
point $-1 -64.937284463026828 -34.764544940043841 15.523148592387752 #
edge $-1 $861 6.5974812513221082 $881 20.977202876255191 $836 $904 forward 7 unknown #
coedge $-1 $837 $889 $839 $882 reversed $811 $-1 #
vertex $-1 $838 $905 #
edge $-1 $840 -15.523148592387752 $884 15.523148592387752 $839 $906 forward 7 unknown #
point $-1 64.937284463026828 -34.764544940043841 15.523148592387752 #
vertex $-1 $882 $907 #
straight-curve $-1 64.937284463026828 0 -15.523148592387752 0 -1 0 I I #
plane-surface $-1 64.937284463026828 0 0 -1 0 0 0 0 1 forward_v I I I I #
coedge $-1 $864 $845 $868 $900 reversed $876 $-1 #
straight-curve $-1 -64.937284463026828 -34.764544940043841 0 0 0 -1 I I #
coedge $-1 $880 $853 $873 $902 reversed $811 $-1 #
coedge $-1 $859 $873 $855 $891 forward $828 $-1 #
edge $-1 $892 -20.977202876255191 $862 -6.5974812513221082 $890 $908 forward 7 unknown #
vertex $-1 $856 $909 #
straight-curve $-1 -33.890987278251316 -34.764544940043841 0 0 0 -1 I I #
straight-curve $-1 -19.074993717869901 -20.384823315110758 15.523148592387752 1 0 0 I I #
straight-curve $-1 -19.074993717869901 -20.384823315110758 -15.523148592387752 -1 0 0 I I #
point $-1 -33.890987278251316 -20.384823315110758 15.523148592387752 #
point $-1 -33.890987278251316 -20.384823315110758 -15.523148592387752 #
straight-curve $-1 -42.408987593228289 -34.764544940043841 0 0 0 1 I I #
point $-1 -42.408987593228289 -34.764544940043841 15.523148592387752 #
edge $-1 $869 42.408987593228289 $874 64.937284463026828 $887 $910 forward 7 unknown #
point $-1 -42.408987593228289 -34.764544940043841 -15.523148592387752 #
edge $-1 $884 -64.937284463026828 $892 33.890987278251316 $889 $910 forward 7 unknown #
point $-1 -64.937284463026828 -34.764544940043841 -15.523148592387752 #
straight-curve $-1 -33.890987278251316 -13.78734206378865 15.523148592387752 0 -1 0 I I #
point $-1 -33.890987278251316 -34.764544940043841 15.523148592387752 #
straight-curve $-1 64.937284463026828 -34.764544940043841 0 0 0 -1 I I #
point $-1 64.937284463026828 -34.764544940043841 -15.523148592387752 #
straight-curve $-1 -33.890987278251316 -13.78734206378865 -15.523148592387752 0 1 0 I I #
point $-1 -33.890987278251316 -34.764544940043841 -15.523148592387752 #
straight-curve $-1 0 -34.764544940043841 -15.523148592387752 -1 0 0 I I #
End-of-ACIS-data 