500 0 9 0           
7 Unknown 11 ACIS 5.0 NT 24 Fri Mar 26 18:32:41 1999 
-1 9.9999999999999995e-007 1e-010 
body $-1 $9 $-1 $10 #
body $-1 $11 $-1 $12 #
body $-1 $13 $-1 $14 #
body $-1 $15 $-1 $16 #
body $-1 $17 $-1 $18 #
body $-1 $19 $-1 $20 #
body $-1 $21 $-1 $22 #
body $-1 $23 $-1 $24 #
body $-1 $25 $-1 $26 #
lump $-1 $-1 $27 $0 #
transform $-1 1 0 0 0 1 0 0 0 1 63.93627735221412 37.93522537219782 11.647886668589811 1 rotate no_reflect no_shear #
lump $-1 $-1 $28 $1 #
transform $-1 1 0 0 0 1 0 0 0 1 63.93627735221412 37.93522537219782 11.647886668589811 1 rotate no_reflect no_shear #
lump $-1 $-1 $29 $2 #
transform $-1 1 0 0 0 1 0 0 0 1 63.93627735221412 37.93522537219782 11.647886668589811 1 rotate no_reflect no_shear #
lump $-1 $-1 $30 $3 #
transform $-1 1 0 0 0 1 0 0 0 1 63.93627735221412 37.93522537219782 11.647886668589811 1 rotate no_reflect no_shear #
lump $-1 $-1 $31 $4 #
transform $-1 1 0 0 0 1 0 0 0 1 63.93627735221412 37.93522537219782 11.647886668589811 1 rotate no_reflect no_shear #
lump $-1 $-1 $32 $5 #
transform $-1 1 0 0 0 1 0 0 0 1 63.93627735221412 37.93522537219782 11.647886668589811 1 rotate no_reflect no_shear #
lump $-1 $-1 $33 $6 #
transform $-1 1 0 0 0 1 0 0 0 1 63.93627735221412 37.93522537219782 11.647886668589811 1 rotate no_reflect no_shear #
lump $-1 $-1 $34 $7 #
transform $-1 1 0 0 0 1 0 0 0 1 63.93627735221412 37.93522537219782 11.647886668589811 1 rotate no_reflect no_shear #
lump $-1 $-1 $35 $8 #
transform $-1 1 0 0 0 1 0 0 0 1 63.93627735221412 37.93522537219782 11.647886668589811 1 rotate no_reflect no_shear #
shell $-1 $-1 $-1 $36 $-1 $9 #
shell $-1 $-1 $-1 $37 $-1 $11 #
shell $-1 $-1 $-1 $38 $-1 $13 #
shell $-1 $-1 $-1 $39 $-1 $15 #
shell $-1 $-1 $-1 $40 $-1 $17 #
shell $-1 $-1 $-1 $41 $-1 $19 #
shell $-1 $-1 $-1 $42 $-1 $21 #
shell $-1 $-1 $-1 $43 $-1 $23 #
shell $-1 $-1 $-1 $44 $-1 $25 #
face $-1 $45 $46 $27 $-1 $47 forward single #
face $-1 $48 $49 $28 $-1 $50 forward single #
face $-1 $51 $52 $29 $-1 $53 reversed single #
face $-1 $54 $55 $30 $-1 $56 reversed single #
face $-1 $57 $58 $31 $-1 $59 forward single #
face $-1 $60 $61 $32 $-1 $62 forward single #
face $-1 $63 $64 $33 $-1 $65 reversed single #
face $-1 $66 $67 $34 $-1 $68 forward single #
face $-1 $69 $70 $35 $-1 $71 forward single #
face $-1 $72 $73 $27 $-1 $74 reversed single #
loop $-1 $-1 $75 $36 #
plane-surface $-1 0 0 11.647886668589811 0 0 1 1 0 0 forward_v I I I I #
face $-1 $76 $77 $28 $-1 $78 reversed single #
loop $-1 $-1 $79 $37 #
plane-surface $-1 -59.876864253823612 0 10.884850778590783 0 0 1 1 0 0 forward_v I I I I #
face $-1 $80 $81 $29 $-1 $82 reversed single #
loop $-1 $-1 $83 $38 #
plane-surface $-1 52.701070043690827 -34.47320770033091 0 1 0 0 0 0 -1 forward_v I I I I #
face $-1 $84 $85 $30 $-1 $86 reversed single #
loop $-1 $-1 $87 $39 #
plane-surface $-1 28.17933517279409 -113.09682816066037 111.67905814847215 1 0 0 0 0.5877852598018023 -0.80901698891910034 forward_v I I I I #
face $-1 $88 $89 $31 $-1 $90 forward single #
loop $-1 $91 $92 $40 #
cone-surface $-1 35.185545135907432 -35.220593127077443 9.4409406154476141 0 0.5877852598018023 -0.80901698891910034 0.5 0 0 1 I I 0 1 0.5 forward I I I I #
face $-1 $93 $94 $32 $-1 $95 forward single #
loop $-1 $96 $97 $41 #
cone-surface $-1 45.694860080577456 -35.220593127077443 9.4409406154476141 0 0.5877852598018023 -0.80901698891910034 0.5 0 0 1 I I 0 1 0.5 forward I I I I #
face $-1 $98 $99 $33 $-1 $100 reversed single #
loop $-1 $-1 $101 $42 #
plane-surface $-1 28.17933517279409 51.716344551494487 156.27459075054657 1 0 0 0 -0.5877852598018023 -0.80901698891910034 forward_v I I I I #
face $-1 $102 $103 $34 $-1 $104 forward single #
loop $-1 $105 $106 $43 #
cone-surface $-1 35.185545135907432 35.220593127077443 9.4409406154476141 0 -0.5877852598018023 -0.80901698891910034 0.5 0 0 1 I I 0 1 0.5 forward I I I I #
face $-1 $107 $108 $35 $-1 $109 forward single #
loop $-1 $110 $111 $44 #
cone-surface $-1 45.694860080577456 35.220593127077443 9.4409406154476141 0 -0.5877852598018023 -0.80901698891910034 0.5 0 0 1 I I 0 1 0.5 forward I I I I #
face $-1 $112 $113 $27 $-1 $114 reversed single #
loop $-1 $-1 $115 $45 #
plane-surface $-1 0 0 -11.647886668589811 0 0 1 1 0 0 forward_v I I I I #
coedge $-1 $116 $117 $118 $119 forward $46 $-1 #
face $-1 $120 $121 $28 $-1 $122 reversed single #
loop $-1 $-1 $123 $48 #
plane-surface $-1 -59.876864253823612 0 6.095662939263315 0 0 1 1 0 0 forward_v I I I I #
coedge $-1 $124 $125 $126 $127 forward $49 $-1 #
face $-1 $128 $129 $29 $-1 $130 forward single #
loop $-1 $-1 $131 $51 #
plane-surface $-1 58.318673697952477 -31.011190028464 0 0 -1 0 0 0 -1 forward_v I I I I #
coedge $-1 $132 $133 $134 $135 reversed $52 $-1 #
face $-1 $136 $137 $30 $-1 $138 reversed single #
loop $-1 $-1 $139 $54 #
plane-surface $-1 40.440202608242458 -37.935225372197834 8.2279889761026794 0 -0.5877852598018023 0.80901698891910034 1 0 0 forward_v I I I I #
coedge $-1 $140 $141 $142 $143 reversed $55 $-1 #
face $-1 $-1 $144 $31 $-1 $145 forward single #
loop $-1 $146 $147 $57 #
cone-surface $-1 35.185545135907432 -34.712557197967001 8.7416891613192202 0 0.5877852598018023 -0.80901698891910034 0.25 0 0 1 I I -0.70710678118654746 0.70710678118654746 0.25 forward I I I I #
loop $-1 $-1 $148 $40 #
coedge $-1 $92 $92 $149 $150 reversed $58 $-1 #
face $-1 $-1 $151 $32 $-1 $152 forward single #
loop $-1 $153 $154 $60 #
cone-surface $-1 45.694860080577456 -34.712557197967001 8.7416891613192202 0 0.5877852598018023 -0.80901698891910034 0.25 0 0 1 I I -0.70710678118654746 0.70710678118654746 0.25 forward I I I I #
loop $-1 $-1 $155 $41 #
coedge $-1 $97 $97 $156 $157 reversed $61 $-1 #
face $-1 $158 $159 $33 $-1 $160 reversed single #
loop $-1 $-1 $161 $63 #
plane-surface $-1 40.440202608242458 -23.445258236968044 52.823521578177093 0 0.5877852598018023 0.80901698891910034 1 0 0 forward_v I I I I #
coedge $-1 $162 $163 $164 $165 reversed $64 $-1 #
face $-1 $-1 $166 $34 $-1 $167 forward single #
loop $-1 $168 $169 $66 #
cone-surface $-1 35.185545135907432 34.712557197967001 8.7416891613192202 0 -0.5877852598018023 -0.80901698891910034 0.25 0 0 1 I I -0.70710678118654746 0.70710678118654746 0.25 forward I I I I #
loop $-1 $-1 $170 $43 #
coedge $-1 $106 $106 $171 $172 reversed $67 $-1 #
face $-1 $-1 $173 $35 $-1 $174 forward single #
loop $-1 $175 $176 $69 #
cone-surface $-1 45.694860080577456 34.712557197967001 8.7416891613192202 0 -0.5877852598018023 -0.80901698891910034 0.25 0 0 1 I I -0.70710678118654746 0.70710678118654746 0.25 forward I I I I #
loop $-1 $-1 $177 $44 #
coedge $-1 $111 $111 $178 $179 reversed $70 $-1 #
face $-1 $180 $181 $27 $-1 $182 reversed single #
loop $-1 $-1 $183 $72 #
plane-surface $-1 0 -37.93522537219782 0 0 1 0 0 0 1 forward_v I I I I #
coedge $-1 $184 $185 $186 $187 forward $73 $-1 #
coedge $-1 $188 $75 $189 $190 forward $46 $-1 #
coedge $-1 $75 $188 $191 $192 forward $46 $-1 #
coedge $-1 $193 $194 $75 $119 reversed $195 $-1 #
edge $-1 $196 -37.93522537219782 $197 37.93522537219782 $118 $198 forward 7 unknown #
face $-1 $199 $200 $28 $-1 $201 reversed single #
loop $-1 $-1 $202 $76 #
plane-surface $-1 -55.817451155433105 0 8.4902568589270491 -1 0 0 0 0 1 forward_v I I I I #
coedge $-1 $203 $204 $205 $206 forward $77 $-1 #
coedge $-1 $207 $79 $208 $209 reversed $49 $-1 #
coedge $-1 $79 $207 $210 $211 reversed $49 $-1 #
coedge $-1 $202 $212 $79 $127 reversed $121 $-1 #
edge $-1 $213 -37.93522537219782 $214 37.93522537219782 $126 $215 forward 7 unknown #
face $-1 $216 $217 $29 $-1 $218 reversed single #
loop $-1 $-1 $219 $80 #
plane-surface $-1 0 0 11.647886668589811 0 0 1 1 0 0 forward_v I I I I #
coedge $-1 $220 $221 $222 $223 reversed $81 $-1 #
coedge $-1 $224 $83 $225 $226 forward $52 $-1 #
coedge $-1 $83 $224 $227 $228 reversed $52 $-1 #
coedge $-1 $229 $219 $83 $135 forward $129 $-1 #
edge $-1 $230 13.774586178298545 $231 20.698621522032365 $134 $232 forward 7 unknown #
face $-1 $233 $234 $30 $-1 $235 forward single #
loop $-1 $-1 $142 $84 #
plane-surface $-1 0 -37.93522537219782 0 0 1 0 0 0 1 forward_v I I I I #
coedge $-1 $236 $237 $238 $239 reversed $85 $-1 #
coedge $-1 $141 $87 $240 $241 reversed $55 $-1 #
coedge $-1 $87 $140 $236 $242 reversed $55 $-1 #
coedge $-1 $238 $243 $87 $143 forward $137 $-1 #
edge $-1 $244 44.191642405646263 $245 47.611540098133389 $142 $246 forward 7 unknown #
loop $-1 $-1 $149 $88 #
plane-surface $-1 40.440202608242458 -37.935225372197834 8.2279889761026794 0 -0.5877852598018023 0.80901698891910034 1 0 0 forward_v I I I I #
loop $-1 $-1 $247 $57 #
coedge $-1 $147 $147 $148 $248 reversed $89 $-1 #
coedge $-1 $148 $148 $147 $248 forward $91 $-1 #
coedge $-1 $149 $149 $92 $150 forward $144 $-1 #
edge $-1 $249 7.3434431499413753e-015 $249 6.2831853071796075 $149 $250 forward 7 unknown #
loop $-1 $-1 $156 $93 #
plane-surface $-1 40.440202608242458 -37.935225372197834 8.2279889761026794 0 -0.5877852598018023 0.80901698891910034 1 0 0 forward_v I I I I #
loop $-1 $-1 $251 $60 #
coedge $-1 $154 $154 $155 $252 reversed $94 $-1 #
coedge $-1 $155 $155 $154 $252 forward $96 $-1 #
coedge $-1 $156 $156 $97 $157 forward $151 $-1 #
edge $-1 $253 7.3434431499413753e-015 $253 6.2831853071796075 $156 $254 forward 7 unknown #
face $-1 $255 $256 $33 $-1 $257 forward single #
loop $-1 $-1 $258 $98 #
plane-surface $-1 52.701070043690827 51.716344551494487 156.27459075054657 -1 0 0 0 0.5877852598018023 0.80901698891910034 forward_v I I I I #
coedge $-1 $259 $260 $261 $262 reversed $99 $-1 #
coedge $-1 $163 $101 $263 $264 reversed $64 $-1 #
coedge $-1 $101 $162 $259 $265 reversed $64 $-1 #
coedge $-1 $261 $266 $101 $165 forward $256 $-1 #
edge $-1 $267 -12.077053096450577 $268 -7.3699678345298096 $164 $269 forward 7 unknown #
loop $-1 $-1 $171 $102 #
plane-surface $-1 40.440202608242458 -23.445258236968044 52.823521578177093 0 0.5877852598018023 0.80901698891910034 1 0 0 forward_v I I I I #
loop $-1 $-1 $270 $66 #
coedge $-1 $169 $169 $170 $271 reversed $103 $-1 #
coedge $-1 $170 $170 $169 $271 forward $105 $-1 #
coedge $-1 $171 $171 $106 $172 forward $166 $-1 #
edge $-1 $272 -1.0556592281836782e-015 $272 6.2831853071795996 $171 $273 forward 7 unknown #
loop $-1 $-1 $178 $107 #
plane-surface $-1 40.440202608242458 -23.445258236968044 52.823521578177093 0 0.5877852598018023 0.80901698891910034 1 0 0 forward_v I I I I #
loop $-1 $-1 $274 $69 #
coedge $-1 $176 $176 $177 $275 reversed $108 $-1 #
coedge $-1 $177 $177 $176 $275 forward $110 $-1 #
coedge $-1 $178 $178 $111 $179 forward $173 $-1 #
edge $-1 $276 -1.0556592281836782e-015 $276 6.2831853071795996 $178 $277 forward 7 unknown #
face $-1 $278 $279 $27 $-1 $280 reversed single #
loop $-1 $-1 $281 $112 #
plane-surface $-1 -63.93627735221412 0 0 1 0 0 0 0 -1 forward_v I I I I #
coedge $-1 $282 $191 $283 $284 forward $113 $-1 #
coedge $-1 $285 $115 $282 $286 forward $73 $-1 #
coedge $-1 $115 $285 $287 $288 forward $73 $-1 #
coedge $-1 $194 $193 $115 $187 reversed $195 $-1 #
edge $-1 $289 -37.93522537219782 $290 37.93522537219782 $186 $291 forward 7 unknown #
coedge $-1 $117 $116 $292 $293 forward $46 $-1 #
coedge $-1 $294 $295 $116 $190 reversed $279 $-1 #
edge $-1 $197 -63.93627735221412 $296 63.93627735221412 $189 $297 forward 7 unknown #
coedge $-1 $183 $298 $117 $192 reversed $113 $-1 #
edge $-1 $299 -63.93627735221412 $196 63.93627735221412 $191 $300 forward 7 unknown #
coedge $-1 $186 $118 $298 $301 forward $195 $-1 #
coedge $-1 $118 $186 $294 $302 reversed $195 $-1 #
loop $-1 $-1 $193 $278 #
vertex $-1 $119 $303 #
vertex $-1 $119 $304 #
straight-curve $-1 63.93627735221412 0 11.647886668589811 0 1 0 I I #
face $-1 $305 $306 $28 $-1 $307 reversed single #
loop $-1 $-1 $308 $120 #
plane-surface $-1 0 -37.93522537219782 0 0 1 0 0 0 1 forward_v I I I I #
coedge $-1 $205 $126 $309 $310 reversed $121 $-1 #
coedge $-1 $311 $123 $308 $312 reversed $77 $-1 #
coedge $-1 $123 $311 $313 $314 reversed $77 $-1 #
coedge $-1 $212 $202 $123 $206 reversed $121 $-1 #
edge $-1 $315 -37.93522537219782 $316 37.93522537219782 $205 $317 forward 7 unknown #
coedge $-1 $125 $124 $318 $319 reversed $49 $-1 #
coedge $-1 $320 $321 $124 $209 forward $322 $-1 #
edge $-1 $323 -33.997845225302314 $214 -25.879019028521299 $208 $324 forward 7 unknown #
coedge $-1 $325 $309 $125 $211 forward $200 $-1 #
edge $-1 $213 25.879019028521299 $326 33.997845225302314 $210 $327 forward 7 unknown #
coedge $-1 $126 $205 $320 $328 reversed $121 $-1 #
vertex $-1 $211 $329 #
vertex $-1 $209 $330 #
straight-curve $-1 -55.817451155433105 0 10.884850778590783 0 1 0 I I #
face $-1 $331 $332 $29 $-1 $333 reversed single #
loop $-1 $-1 $227 $128 #
plane-surface $-1 0 -37.93522537219782 0 0 1 0 0 0 1 forward_v I I I I #
coedge $-1 $134 $334 $221 $335 forward $129 $-1 #
coedge $-1 $225 $131 $336 $337 reversed $81 $-1 #
coedge $-1 $131 $225 $219 $335 reversed $81 $-1 #
coedge $-1 $338 $339 $131 $223 forward $340 $-1 #
edge $-1 $341 -11.647886668589811 $342 11.647886668589811 $222 $343 forward 7 unknown #
coedge $-1 $133 $132 $344 $345 reversed $52 $-1 #
coedge $-1 $221 $220 $132 $226 reversed $81 $-1 #
edge $-1 $230 -11.647886668589811 $346 11.647886668589811 $225 $347 forward 7 unknown #
coedge $-1 $348 $349 $133 $228 forward $217 $-1 #
edge $-1 $231 -11.647886668589811 $350 11.647886668589811 $227 $351 forward 7 unknown #
coedge $-1 $334 $134 $349 $352 forward $129 $-1 #
vertex $-1 $135 $353 #
vertex $-1 $352 $354 #
straight-curve $-1 52.701070043690827 -17.236603850165455 11.647886668589811 0 -1 0 I I #
face $-1 $-1 $355 $30 $-1 $356 forward single #
loop $-1 $-1 $357 $136 #
plane-surface $-1 52.701070043690827 -34.47320770033091 0 1 0 0 0 0 -1 forward_v I I I I #
coedge $-1 $358 $139 $141 $242 forward $85 $-1 #
coedge $-1 $139 $358 $357 $359 reversed $85 $-1 #
coedge $-1 $360 $142 $139 $239 forward $137 $-1 #
edge $-1 $245 7.959233868672861 $361 32.480968739569597 $238 $362 forward 7 unknown #
coedge $-1 $363 $364 $140 $241 forward $355 $-1 #
edge $-1 $365 -23.320273970053094 $244 -18.613188708132363 $240 $366 forward 7 unknown #
edge $-1 $245 1.7761521089745031e-014 $365 5.8182773988587293 $141 $367 forward 7 unknown #
coedge $-1 $142 $360 $363 $368 reversed $137 $-1 #
vertex $-1 $368 $369 #
vertex $-1 $143 $370 #
straight-curve $-1 28.17933517279409 -37.93522537219782 55.839529074236076 0 0 -1 I I #
coedge $-1 $247 $247 $-1 $371 reversed $146 $-1 #
edge $-1 $372 0 $372 6.2831853071796004 $147 $373 forward 7 unknown #
vertex $-1 $150 $374 #
ellipse-curve $-1 35.185545135907432 -35.581682741237451 9.9379378223462549 0 -0.5877852598018023 0.80901698891910034 0.5 0 0 1 I I #
coedge $-1 $251 $251 $-1 $375 reversed $153 $-1 #
edge $-1 $376 0 $376 6.2831853071796004 $154 $377 forward 7 unknown #
vertex $-1 $157 $378 #
ellipse-curve $-1 45.694860080577456 -35.581682741237451 9.9379378223462549 0 -0.5877852598018023 0.80901698891910034 0.5 0 0 1 I I #
face $-1 $-1 $379 $33 $-1 $380 reversed single #
loop $-1 $-1 $164 $158 #
plane-surface $-1 0 0 11.647886668589811 0 0 1 1 0 0 forward_v I I I I #
coedge $-1 $381 $382 $383 $384 reversed $159 $-1 #
coedge $-1 $385 $161 $163 $265 forward $99 $-1 #
coedge $-1 $161 $385 $381 $386 forward $99 $-1 #
coedge $-1 $383 $164 $161 $262 forward $256 $-1 #
edge $-1 $268 7.959233868672861 $387 32.480968739569597 $261 $388 forward 7 unknown #
coedge $-1 $389 $390 $162 $264 forward $379 $-1 #
edge $-1 $391 -69.909306399170617 $267 -66.489408706683477 $263 $392 forward 7 unknown #
edge $-1 $268 70.052173345536872 $391 75.870450744395626 $163 $393 forward 7 unknown #
coedge $-1 $164 $383 $389 $394 forward $256 $-1 #
vertex $-1 $264 $395 #
vertex $-1 $165 $396 #
straight-curve $-1 28.17933517279409 25.858172275747243 11.647886668589805 0 -1 0 I I #
coedge $-1 $270 $270 $-1 $397 reversed $168 $-1 #
edge $-1 $398 0 $398 6.2831853071796004 $169 $399 forward 7 unknown #
vertex $-1 $172 $400 #
ellipse-curve $-1 35.185545135907432 35.581682741237437 9.9379378223462407 0 0.5877852598018023 0.80901698891910034 0.5 0 0 1 I I #
coedge $-1 $274 $274 $-1 $401 reversed $175 $-1 #
edge $-1 $402 0 $402 6.2831853071796004 $176 $403 forward 7 unknown #
vertex $-1 $179 $404 #
ellipse-curve $-1 45.694860080577456 35.581682741237437 9.9379378223462407 0 0.5877852598018023 0.80901698891910034 0.5 0 0 1 I I #
face $-1 $-1 $195 $27 $-1 $405 reversed single #
loop $-1 $-1 $294 $180 #
plane-surface $-1 0 37.93522537219782 0 0 -1 0 0 0 -1 forward_v I I I I #
coedge $-1 $406 $292 $295 $407 forward $181 $-1 #
coedge $-1 $298 $183 $184 $286 reversed $113 $-1 #
coedge $-1 $292 $406 $183 $284 reversed $181 $-1 #
edge $-1 $299 -11.647886668589811 $408 11.647886668589811 $283 $409 forward 7 unknown #
coedge $-1 $185 $184 $406 $410 forward $73 $-1 #
edge $-1 $290 -63.93627735221412 $408 63.93627735221412 $282 $411 forward 7 unknown #
coedge $-1 $295 $294 $185 $288 reversed $279 $-1 #
edge $-1 $412 -63.93627735221412 $289 63.93627735221412 $287 $413 forward 7 unknown #
vertex $-1 $187 $414 #
vertex $-1 $301 $415 #
straight-curve $-1 63.93627735221412 0 -11.647886668589811 0 -1 0 I I #
coedge $-1 $281 $283 $188 $293 reversed $181 $-1 #
edge $-1 $296 -37.93522537219782 $299 37.93522537219782 $292 $416 forward 7 unknown #
coedge $-1 $287 $189 $194 $302 forward $279 $-1 #
coedge $-1 $189 $287 $281 $407 reversed $279 $-1 #
vertex $-1 $190 $417 #
straight-curve $-1 0 37.93522537219782 11.647886668589811 -1 0 0 I I #
coedge $-1 $191 $282 $193 $301 reversed $113 $-1 #
vertex $-1 $293 $418 #
straight-curve $-1 0 -37.93522537219782 11.647886668589811 1 0 0 I I #
edge $-1 $196 -11.647886668589811 $290 11.647886668589811 $193 $419 forward 7 unknown #
edge $-1 $197 -11.647886668589811 $289 11.647886668589811 $194 $420 forward 7 unknown #
point $-1 63.93627735221412 -37.93522537219782 11.647886668589811 #
point $-1 63.93627735221412 37.93522537219782 11.647886668589811 #
face $-1 $-1 $322 $28 $-1 $421 reversed single #
loop $-1 $-1 $422 $199 #
plane-surface $-1 -63.93627735221412 0 0 1 0 0 0 0 -1 forward_v I I I I #
coedge $-1 $309 $325 $203 $312 forward $200 $-1 #
coedge $-1 $210 $308 $202 $310 forward $200 $-1 #
edge $-1 $316 1.8505345097997905 $213 6.6397223491272586 $309 $423 forward 7 unknown #
coedge $-1 $204 $203 $422 $424 reversed $77 $-1 #
edge $-1 $425 -33.997845225302314 $316 -25.879019028521299 $308 $426 forward 7 unknown #
coedge $-1 $321 $320 $204 $314 forward $322 $-1 #
edge $-1 $315 25.879019028521299 $427 33.997845225302314 $313 $428 forward 7 unknown #
vertex $-1 $314 $429 #
vertex $-1 $312 $430 #
straight-curve $-1 -55.817451155433105 0 6.095662939263315 0 -1 0 I I #
coedge $-1 $431 $432 $207 $319 forward $306 $-1 #
edge $-1 $326 -37.93522537219782 $323 37.93522537219782 $318 $433 forward 7 unknown #
coedge $-1 $313 $208 $212 $328 forward $322 $-1 #
coedge $-1 $208 $313 $431 $434 reversed $322 $-1 #
loop $-1 $-1 $313 $305 #
vertex $-1 $434 $435 #
straight-curve $-1 -29.938432126911806 37.93522537219782 10.884850778590783 1 0 0 I I #
coedge $-1 $308 $210 $432 $436 forward $200 $-1 #
vertex $-1 $436 $437 #
straight-curve $-1 -29.938432126911806 -37.93522537219782 10.884850778590783 -1 0 0 I I #
edge $-1 $214 -6.6397223491272586 $315 -1.8505345097997905 $320 $438 forward 7 unknown #
point $-1 -55.817451155433105 -37.93522537219782 10.884850778590783 #
point $-1 -55.817451155433105 37.93522537219782 10.884850778590783 #
face $-1 $-1 $340 $29 $-1 $439 reversed single #
loop $-1 $-1 $336 $216 #
plane-surface $-1 0 0 -11.647886668589811 0 0 1 1 0 0 forward_v I I I I #
coedge $-1 $219 $229 $338 $440 forward $129 $-1 #
edge $-1 $342 -34.776940503237888 $230 -23.541733194714588 $219 $441 forward 7 unknown #
coedge $-1 $442 $344 $220 $337 forward $332 $-1 #
edge $-1 $346 23.541733194714588 $341 34.776940503237888 $336 $443 forward 7 unknown #
coedge $-1 $444 $222 $334 $440 reversed $340 $-1 #
coedge $-1 $222 $444 $442 $445 reversed $340 $-1 #
loop $-1 $-1 $222 $331 #
vertex $-1 $445 $446 #
vertex $-1 $223 $447 #
straight-curve $-1 63.93627735221412 -31.011190028464 0 0 0 1 I I #
coedge $-1 $336 $448 $224 $345 forward $332 $-1 #
edge $-1 $350 -20.698621522032365 $346 -13.774586178298545 $344 $449 forward 7 unknown #
vertex $-1 $345 $450 #
straight-curve $-1 52.701070043690827 -31.011190028464 0 0 0 -1 I I #
coedge $-1 $451 $227 $448 $452 reversed $217 $-1 #
coedge $-1 $227 $451 $229 $352 reversed $217 $-1 #
vertex $-1 $345 $453 #
straight-curve $-1 52.701070043690827 -37.93522537219782 0 0 0 -1 I I #
edge $-1 $231 52.701070043690827 $454 63.93627735221412 $349 $455 forward 7 unknown #
point $-1 52.701070043690827 -31.011190028464 11.647886668589811 #
point $-1 52.701070043690827 -37.93522537219782 11.647886668589811 #
loop $-1 $-1 $240 $233 #
plane-surface $-1 0 0 11.647886668589811 0 0 1 1 0 0 forward_v I I I I #
coedge $-1 $456 $457 $237 $359 forward $234 $-1 #
coedge $-1 $237 $236 $364 $458 reversed $85 $-1 #
edge $-1 $361 1.0177297627432076 $459 6.8360071616019145 $357 $460 forward 7 unknown #
coedge $-1 $243 $238 $457 $461 forward $137 $-1 #
vertex $-1 $461 $462 #
straight-curve $-1 20.220101304121229 -37.93522537219782 8.2279889761026919 1 0 0 I I #
coedge $-1 $463 $240 $243 $368 forward $355 $-1 #
coedge $-1 $240 $463 $358 $458 forward $355 $-1 #
vertex $-1 $241 $464 #
straight-curve $-1 28.17933517279409 -56.548414080330183 11.647886668589813 0 -1 0 I I #
straight-curve $-1 28.17933517279409 -37.935225372197834 8.2279889761026794 0 0.80901698891910034 0.5877852598018023 I I #
edge $-1 $244 28.17933517279409 $465 52.701070043690827 $243 $466 forward 7 unknown #
point $-1 28.17933517279409 -37.93522537219782 11.647886668589811 #
point $-1 28.17933517279409 -37.93522537219782 8.2279889761026901 #
edge $-1 $467 1 $467 0 $247 $-1 forward 7 unknown #
vertex $-1 $248 $468 #
ellipse-curve $-1 35.185545135907432 -34.859503512917449 8.9439434085489946 0 -0.5877852598018023 0.80901698891910034 0.5 0 0 1 I I #
point $-1 35.685545135907432 -35.581682741237429 9.9379378223462318 #
edge $-1 $469 1 $469 0 $251 $-1 forward 7 unknown #
vertex $-1 $252 $470 #
ellipse-curve $-1 45.694860080577456 -34.859503512917449 8.9439434085489946 0 -0.5877852598018023 0.80901698891910034 0.5 0 0 1 I I #
point $-1 46.194860080577456 -35.581682741237429 9.9379378223462318 #
loop $-1 $-1 $263 $255 #
plane-surface $-1 0 37.93522537219782 0 0 -1 0 0 0 -1 forward_v I I I I #
coedge $-1 $382 $258 $260 $386 reversed $159 $-1 #
coedge $-1 $258 $381 $471 $472 reversed $159 $-1 #
coedge $-1 $266 $261 $258 $384 forward $256 $-1 #
edge $-1 $387 7.3699678345298096 $473 12.077053096450577 $383 $474 forward 7 unknown #
coedge $-1 $260 $259 $390 $475 reversed $99 $-1 #
edge $-1 $476 -75.870450744395626 $387 -70.052173345536872 $381 $477 forward 7 unknown #
vertex $-1 $262 $478 #
straight-curve $-1 20.220101304121229 33.228140110277053 11.647886668589809 1 0 0 I I #
coedge $-1 $471 $263 $266 $394 reversed $379 $-1 #
coedge $-1 $263 $471 $385 $475 forward $379 $-1 #
vertex $-1 $264 $479 #
straight-curve $-1 28.17933517279409 37.93522537219782 78.137295375273283 0 0 1 I I #
straight-curve $-1 28.17933517279409 -23.445258236968044 52.823521578177093 0 0.80901698891910034 -0.5877852598018023 I I #
edge $-1 $473 -52.701070043690827 $267 -28.17933517279409 $389 $480 forward 7 unknown #
point $-1 28.17933517279409 37.93522537219782 11.647886668589811 #
point $-1 28.17933517279409 33.228140110277053 11.647886668589813 #
edge $-1 $481 1 $481 0 $270 $-1 forward 7 unknown #
vertex $-1 $271 $482 #
ellipse-curve $-1 35.185545135907432 34.859503512917449 8.9439434085489946 0 0.5877852598018023 0.80901698891910034 0.5 0 0 1 I I #
point $-1 35.685545135907432 35.581682741237429 9.9379378223462318 #
edge $-1 $483 1 $483 0 $274 $-1 forward 7 unknown #
vertex $-1 $275 $484 #
ellipse-curve $-1 45.694860080577456 34.859503512917449 8.9439434085489946 0 0.5877852598018023 0.80901698891910034 0.5 0 0 1 I I #
point $-1 46.194860080577456 35.581682741237429 9.9379378223462318 #
plane-surface $-1 63.93627735221412 0 0 -1 0 0 0 0 1 forward_v I I I I #
coedge $-1 $283 $281 $285 $410 reversed $181 $-1 #
edge $-1 $296 -11.647886668589811 $412 11.647886668589811 $295 $485 forward 7 unknown #
vertex $-1 $410 $486 #
straight-curve $-1 -63.93627735221412 -37.93522537219782 0 0 0 -1 I I #
edge $-1 $408 -37.93522537219782 $412 37.93522537219782 $406 $487 forward 7 unknown #
straight-curve $-1 0 -37.93522537219782 -11.647886668589811 -1 0 0 I I #
vertex $-1 $288 $488 #
straight-curve $-1 0 37.93522537219782 -11.647886668589811 1 0 0 I I #
point $-1 63.93627735221412 37.93522537219782 -11.647886668589811 #
point $-1 63.93627735221412 -37.93522537219782 -11.647886668589811 #
straight-curve $-1 -63.93627735221412 0 11.647886668589811 0 -1 0 I I #
point $-1 -63.93627735221412 37.93522537219782 11.647886668589811 #
point $-1 -63.93627735221412 -37.93522537219782 11.647886668589811 #
straight-curve $-1 63.93627735221412 -37.93522537219782 0 0 0 -1 I I #
straight-curve $-1 63.93627735221412 37.93522537219782 0 0 0 -1 I I #
plane-surface $-1 0 37.93522537219782 0 0 -1 0 0 0 -1 forward_v I I I I #
coedge $-1 $432 $431 $311 $424 forward $306 $-1 #
straight-curve $-1 -55.817451155433105 -37.93522537219782 4.2451284294635245 0 0 1 I I #
edge $-1 $427 -37.93522537219782 $425 37.93522537219782 $422 $489 forward 7 unknown #
vertex $-1 $312 $490 #
straight-curve $-1 -29.938432126911806 -37.93522537219782 6.095662939263315 1 0 0 I I #
vertex $-1 $314 $491 #
straight-curve $-1 -29.938432126911806 37.93522537219782 6.095662939263315 -1 0 0 I I #
point $-1 -55.817451155433105 37.93522537219782 6.095662939263315 #
point $-1 -55.817451155433105 -37.93522537219782 6.095662939263315 #
coedge $-1 $422 $318 $321 $434 forward $306 $-1 #
coedge $-1 $318 $422 $325 $436 reversed $306 $-1 #
straight-curve $-1 -63.93627735221412 0 10.884850778590783 0 1 0 I I #
edge $-1 $323 -10.884850778590783 $427 -6.095662939263315 $321 $492 forward 7 unknown #
point $-1 -63.93627735221412 37.93522537219782 10.884850778590783 #
edge $-1 $326 -10.884850778590783 $425 -6.095662939263315 $432 $493 forward 7 unknown #
point $-1 -63.93627735221412 -37.93522537219782 10.884850778590783 #
straight-curve $-1 -55.817451155433105 37.93522537219782 4.2451284294635245 0 0 -1 I I #
plane-surface $-1 63.93627735221412 0 0 -1 0 0 0 0 1 forward_v I I I I #
edge $-1 $454 -37.93522537219782 $342 -31.011190028464 $338 $494 forward 7 unknown #
straight-curve $-1 29.159336848976238 -31.011190028464 11.647886668589811 -1 0 0 I I #
coedge $-1 $448 $336 $339 $445 forward $332 $-1 #
straight-curve $-1 29.159336848976238 -31.011190028464 -11.647886668589811 1 0 0 I I #
coedge $-1 $339 $338 $451 $495 forward $340 $-1 #
edge $-1 $341 31.011190028464 $496 37.93522537219782 $339 $497 forward 7 unknown #
point $-1 63.936277352214127 -31.011190028464 -11.647886668589811 #
point $-1 63.936277352214127 -31.011190028464 11.647886668589811 #
coedge $-1 $344 $442 $348 $452 forward $332 $-1 #
straight-curve $-1 52.701070043690827 -17.236603850165455 -11.647886668589811 0 1 0 I I #
point $-1 52.701070043690827 -31.011190028464 -11.647886668589811 #
coedge $-1 $349 $348 $444 $495 reversed $217 $-1 #
edge $-1 $496 -63.93627735221412 $350 -52.701070043690827 $348 $498 forward 7 unknown #
point $-1 52.701070043690827 -37.93522537219782 -11.647886668589811 #
vertex $-1 $440 $499 #
straight-curve $-1 0 -37.93522537219782 11.647886668589811 1 0 0 I I #
coedge $-1 $457 $357 $463 $500 reversed $234 $-1 #
coedge $-1 $357 $456 $360 $461 reversed $234 $-1 #
edge $-1 $459 -32.480968739569597 $365 -7.959233868672861 $364 $501 forward 7 unknown #
vertex $-1 $359 $502 #
straight-curve $-1 52.701070043690827 -38.75858604038568 7.6297824231006448 0 0.80901698891910034 0.5877852598018023 I I #
edge $-1 $361 8.2279889761026883 $465 11.647886668589811 $360 $503 forward 7 unknown #
point $-1 52.701070043690827 -37.93522537219782 8.2279889761026883 #
coedge $-1 $364 $363 $456 $500 forward $355 $-1 #
point $-1 28.17933517279409 -33.228140110277089 11.647886668589811 #
vertex $-1 $461 $504 #
straight-curve $-1 0 -37.93522537219782 11.647886668589811 1 0 0 I I #
vertex $-1 $371 $505 #
point $-1 35.685545135907432 -34.859503512917449 8.9439434085489946 #
vertex $-1 $375 $506 #
point $-1 46.194860080577456 -34.859503512917449 8.9439434085489946 #
coedge $-1 $390 $389 $382 $472 forward $379 $-1 #
edge $-1 $473 66.489408706683477 $476 69.909306399170617 $471 $507 forward 7 unknown #
vertex $-1 $394 $508 #
straight-curve $-1 52.701070043690827 25.858172275747243 11.647886668589805 0 1 0 I I #
edge $-1 $476 -32.480968739569597 $391 -7.959233868672861 $390 $509 forward 7 unknown #
vertex $-1 $475 $510 #
straight-curve $-1 52.701070043690827 -23.445258236968044 52.823521578177093 0 -0.80901698891910034 0.5877852598018023 I I #
point $-1 52.701070043690827 33.228140110277053 11.647886668589813 #
point $-1 28.17933517279409 37.93522537219782 8.2279889761026652 #
straight-curve $-1 0 37.93522537219782 11.647886668589811 -1 0 0 I I #
vertex $-1 $397 $511 #
point $-1 35.685545135907432 34.859503512917449 8.9439434085489946 #
vertex $-1 $401 $512 #
point $-1 46.194860080577456 34.859503512917449 8.9439434085489946 #
straight-curve $-1 -63.93627735221412 37.93522537219782 0 0 0 -1 I I #
point $-1 -63.93627735221412 -37.93522537219782 -11.647886668589811 #
straight-curve $-1 -63.93627735221412 0 -11.647886668589811 0 1 0 I I #
point $-1 -63.93627735221412 37.93522537219782 -11.647886668589811 #
straight-curve $-1 -63.93627735221412 0 6.095662939263315 0 -1 0 I I #
point $-1 -63.93627735221412 -37.93522537219782 6.095662939263315 #
point $-1 -63.93627735221412 37.93522537219782 6.095662939263315 #
straight-curve $-1 -63.93627735221412 37.93522537219782 0 0 0 -1 I I #
straight-curve $-1 -63.93627735221412 -37.93522537219782 0 0 0 -1 I I #
straight-curve $-1 63.93627735221412 0 11.647886668589811 0 1 0 I I #
edge $-1 $454 -11.647886668589811 $496 11.647886668589811 $444 $513 forward 7 unknown #
vertex $-1 $495 $514 #
straight-curve $-1 63.93627735221412 0 -11.647886668589811 0 -1 0 I I #
straight-curve $-1 0 -37.93522537219782 -11.647886668589811 -1 0 0 I I #
point $-1 63.93627735221412 -37.93522537219782 11.647886668589811 #
edge $-1 $465 -20.698621522032365 $459 -15.991536260111641 $463 $515 forward 7 unknown #
straight-curve $-1 20.220101304121229 -33.228140110277089 11.647886668589809 -1 0 0 I I #
point $-1 52.701070043690827 -33.228140110277096 11.647886668589811 #
straight-curve $-1 52.701070043690827 -37.93522537219782 0 0 0 1 I I #
point $-1 52.701070043690827 -37.93522537219782 11.647886668589811 #
point $-1 35.185545135907432 -34.565610883016554 8.5394349140894459 #
point $-1 45.694860080577456 -34.565610883016554 8.5394349140894459 #
straight-curve $-1 52.701070043690827 37.93522537219782 78.137295375273283 0 0 -1 I I #
point $-1 52.701070043690827 37.93522537219782 11.647886668589811 #
straight-curve $-1 20.220101304121229 37.93522537219782 8.2279889761026688 -1 0 0 I I #
point $-1 52.701070043690827 37.93522537219782 8.2279889761026652 #
point $-1 35.185545135907432 34.565610883016554 8.5394349140894459 #
point $-1 45.694860080577456 34.565610883016554 8.5394349140894459 #
straight-curve $-1 63.93627735221412 -37.93522537219782 0 0 0 -1 I I #
point $-1 63.93627735221412 -37.93522537219782 -11.647886668589811 #
straight-curve $-1 52.701070043690827 -17.236603850165455 11.647886668589811 0 1 0 I I #
End-of-ACIS-data 