500 0 19 0           
7 Unknown 11 ACIS 5.0 NT 24 Thu Mar 25 20:21:13 1999 
-1 9.9999999999999995e-007 1e-010 
body $-1 $19 $-1 $20 #
body $-1 $21 $-1 $22 #
body $-1 $23 $-1 $24 #
body $-1 $25 $-1 $26 #
body $-1 $27 $-1 $28 #
body $-1 $29 $-1 $30 #
body $-1 $31 $-1 $32 #
body $-1 $33 $-1 $34 #
body $-1 $35 $-1 $36 #
body $-1 $37 $-1 $38 #
body $-1 $39 $-1 $40 #
body $-1 $41 $-1 $42 #
body $-1 $43 $-1 $44 #
body $-1 $45 $-1 $46 #
body $-1 $47 $-1 $48 #
body $-1 $49 $-1 $50 #
body $-1 $51 $-1 $52 #
body $-1 $53 $-1 $54 #
body $-1 $55 $-1 $56 #
lump $-1 $-1 $57 $0 #
transform $-1 1 0 0 0 1 0 0 0 1 69.932554094058048 47.622944594988624 16.57276146495547 1 rotate no_reflect no_shear #
lump $-1 $-1 $58 $1 #
transform $-1 1 0 0 0 1 0 0 0 1 69.932554094058048 47.622944594988624 16.57276146495547 1 rotate no_reflect no_shear #
lump $-1 $-1 $59 $2 #
transform $-1 1 0 0 0 1 0 0 0 1 69.932554094058048 47.622944594988624 16.57276146495547 1 rotate no_reflect no_shear #
lump $-1 $-1 $60 $3 #
transform $-1 1 0 0 0 1 0 0 0 1 69.932554094058048 47.622944594988624 16.57276146495547 1 rotate no_reflect no_shear #
lump $-1 $-1 $61 $4 #
transform $-1 1 0 0 0 1 0 0 0 1 69.932554094058048 47.622944594988624 16.57276146495547 1 rotate no_reflect no_shear #
lump $-1 $-1 $62 $5 #
transform $-1 1 0 0 0 1 0 0 0 1 69.932554094058048 47.622944594988624 16.57276146495547 1 rotate no_reflect no_shear #
lump $-1 $-1 $63 $6 #
transform $-1 1 0 0 0 1 0 0 0 1 69.932554094058048 47.622944594988624 16.57276146495547 1 rotate no_reflect no_shear #
lump $-1 $-1 $64 $7 #
transform $-1 1 0 0 0 1 0 0 0 1 69.932554094058048 47.622944594988624 16.57276146495547 1 rotate no_reflect no_shear #
lump $-1 $-1 $65 $8 #
transform $-1 1 0 0 0 1 0 0 0 1 69.932554094058048 47.622944594988624 16.57276146495547 1 rotate no_reflect no_shear #
lump $-1 $-1 $66 $9 #
transform $-1 1 0 0 0 1 0 0 0 1 69.932554094058048 47.622944594988624 16.57276146495547 1 rotate no_reflect no_shear #
lump $-1 $-1 $67 $10 #
transform $-1 1 0 0 0 1 0 0 0 1 69.932554094058048 47.622944594988624 16.57276146495547 1 rotate no_reflect no_shear #
lump $-1 $-1 $68 $11 #
transform $-1 1 0 0 0 1 0 0 0 1 69.932554094058048 47.622944594988624 16.57276146495547 1 rotate no_reflect no_shear #
lump $-1 $-1 $69 $12 #
transform $-1 1 0 0 0 1 0 0 0 1 69.932554094058048 47.622944594988624 16.57276146495547 1 rotate no_reflect no_shear #
lump $-1 $-1 $70 $13 #
transform $-1 1 0 0 0 1 0 0 0 1 69.932554094058048 47.622944594988624 16.57276146495547 1 rotate no_reflect no_shear #
lump $-1 $-1 $71 $14 #
transform $-1 1 0 0 0 1 0 0 0 1 69.932554094058048 47.622944594988624 16.57276146495547 1 rotate no_reflect no_shear #
lump $-1 $-1 $72 $15 #
transform $-1 1 0 0 0 1 0 0 0 1 69.932554094058048 47.622944594988624 16.57276146495547 1 rotate no_reflect no_shear #
lump $-1 $-1 $73 $16 #
transform $-1 1 0 0 0 1 0 0 0 1 69.932554094058048 47.622944594988624 16.57276146495547 1 rotate no_reflect no_shear #
lump $-1 $-1 $74 $17 #
transform $-1 1 0 0 0 1 0 0 0 1 69.932554094058048 47.622944594988624 16.57276146495547 1 rotate no_reflect no_shear #
lump $-1 $-1 $75 $18 #
transform $-1 1 0 0 0 1 0 0 0 1 69.932554094058048 47.622944594988624 16.57276146495547 1 rotate no_reflect no_shear #
shell $-1 $-1 $-1 $76 $-1 $19 #
shell $-1 $-1 $-1 $77 $-1 $21 #
shell $-1 $-1 $-1 $78 $-1 $23 #
shell $-1 $-1 $-1 $79 $-1 $25 #
shell $-1 $-1 $-1 $80 $-1 $27 #
shell $-1 $-1 $-1 $81 $-1 $29 #
shell $-1 $-1 $-1 $82 $-1 $31 #
shell $-1 $-1 $-1 $83 $-1 $33 #
shell $-1 $-1 $-1 $84 $-1 $35 #
shell $-1 $-1 $-1 $85 $-1 $37 #
shell $-1 $-1 $-1 $86 $-1 $39 #
shell $-1 $-1 $-1 $87 $-1 $41 #
shell $-1 $-1 $-1 $88 $-1 $43 #
shell $-1 $-1 $-1 $89 $-1 $45 #
shell $-1 $-1 $-1 $90 $-1 $47 #
shell $-1 $-1 $-1 $91 $-1 $49 #
shell $-1 $-1 $-1 $92 $-1 $51 #
shell $-1 $-1 $-1 $93 $-1 $53 #
shell $-1 $-1 $-1 $94 $-1 $55 #
face $-1 $95 $96 $57 $-1 $97 forward single #
face $-1 $98 $99 $58 $-1 $100 forward single #
face $-1 $101 $102 $59 $-1 $103 reversed single #
face $-1 $104 $105 $60 $-1 $106 reversed single #
face $-1 $107 $108 $61 $-1 $109 forward single #
face $-1 $110 $111 $62 $-1 $112 forward single #
face $-1 $113 $114 $63 $-1 $115 forward single #
face $-1 $116 $117 $64 $-1 $118 reversed single #
face $-1 $119 $120 $65 $-1 $121 forward single #
face $-1 $122 $123 $66 $-1 $124 forward single #
face $-1 $125 $126 $67 $-1 $127 forward single #
face $-1 $128 $129 $68 $-1 $130 reversed single #
face $-1 $131 $132 $69 $-1 $133 forward single #
face $-1 $134 $135 $70 $-1 $136 forward single #
face $-1 $137 $138 $71 $-1 $139 forward single #
face $-1 $140 $141 $72 $-1 $142 reversed single #
face $-1 $143 $144 $73 $-1 $145 forward single #
face $-1 $146 $147 $74 $-1 $148 forward single #
face $-1 $149 $150 $75 $-1 $151 forward single #
face $-1 $152 $153 $57 $-1 $154 reversed single #
loop $-1 $-1 $155 $76 #
plane-surface $-1 0 0 16.57276146495547 0 0 1 1 0 0 forward_v I I I I #
face $-1 $156 $157 $58 $-1 $158 reversed single #
loop $-1 $-1 $159 $77 #
plane-surface $-1 -69.932554094058048 0 0 1 0 0 0 0 -1 forward_v I I I I #
face $-1 $160 $161 $59 $-1 $162 reversed single #
loop $-1 $-1 $163 $78 #
plane-surface $-1 62.696174407036921 -34.000379733866204 0 0 1 0 0 0 1 forward_v I I I I #
face $-1 $164 $165 $60 $-1 $166 reversed single #
loop $-1 $-1 $167 $79 #
plane-surface $-1 -33.247135273222199 -166.2352844210115 84.475210006456365 -1 0 0 0 -0.84804810408105047 0.52991925155115449 forward_v I I I I #
face $-1 $168 $169 $61 $-1 $170 forward single #
loop $-1 $171 $172 $80 #
cone-surface $-1 -44.517065098655721 -44.992978802616172 13.03530782192256 0 0.84804810408105047 -0.52991925155115449 0.5 0 0 1 I I 0 1 0.5 forward I I I I #
face $-1 $173 $174 $62 $-1 $175 forward single #
loop $-1 $176 $177 $81 #
cone-surface $-1 -40.290841414118148 -44.992978802616172 13.03530782192256 0 0.84804810408105047 -0.52991925155115449 0.5 0 0 1 I I 0 1 0.5 forward I I I I #
face $-1 $178 $179 $63 $-1 $180 forward single #
loop $-1 $181 $182 $82 #
cone-surface $-1 -36.064617729580576 -44.992978802616172 13.03530782192256 0 0.84804810408105047 -0.52991925155115449 0.5 0 0 1 I I 0 1 0.5 forward I I I I #
face $-1 $183 $184 $64 $-1 $185 reversed single #
loop $-1 $-1 $186 $83 #
plane-surface $-1 -5.1061482562087406 -166.2352844210115 84.475210006456365 -1 0 0 0 -0.84804810408105047 0.52991925155115449 forward_v I I I I #
face $-1 $187 $188 $65 $-1 $189 forward single #
loop $-1 $190 $191 $84 #
cone-surface $-1 -16.376078081642255 -44.992978802616172 13.03530782192256 0 0.84804810408105047 -0.52991925155115449 0.5 0 0 1 I I 0 1 0.5 forward I I I I #
face $-1 $192 $193 $66 $-1 $194 forward single #
loop $-1 $195 $196 $85 #
cone-surface $-1 -12.14985439710469 -44.992978802616172 13.03530782192256 0 0.84804810408105047 -0.52991925155115449 0.5 0 0 1 I I 0 1 0.5 forward I I I I #
face $-1 $197 $198 $67 $-1 $199 forward single #
loop $-1 $200 $201 $86 #
cone-surface $-1 -7.9236307125671175 -44.992978802616172 13.03530782192256 0 0.84804810408105047 -0.52991925155115449 0.5 0 0 1 I I 0 1 0.5 forward I I I I #
face $-1 $202 $203 $68 $-1 $204 reversed single #
loop $-1 $-1 $205 $87 #
plane-surface $-1 23.034838760804718 -166.2352844210115 84.475210006456365 -1 0 0 0 -0.84804810408105047 0.52991925155115449 forward_v I I I I #
face $-1 $206 $207 $69 $-1 $208 forward single #
loop $-1 $209 $210 $88 #
cone-surface $-1 11.76490893537121 -44.992978802616172 13.03530782192256 0 0.84804810408105047 -0.52991925155115449 0.5 0 0 1 I I 0 1 0.5 forward I I I I #
face $-1 $211 $212 $70 $-1 $213 forward single #
loop $-1 $214 $215 $89 #
cone-surface $-1 15.991132619908768 -44.992978802616172 13.03530782192256 0 0.84804810408105047 -0.52991925155115449 0.5 0 0 1 I I 0 1 0.5 forward I I I I #
face $-1 $216 $217 $71 $-1 $218 forward single #
loop $-1 $219 $220 $90 #
cone-surface $-1 20.217356304446341 -44.992978802616172 13.03530782192256 0 0.84804810408105047 -0.52991925155115449 0.5 0 0 1 I I 0 1 0.5 forward I I I I #
face $-1 $221 $222 $72 $-1 $223 reversed single #
loop $-1 $-1 $224 $91 #
plane-surface $-1 51.175825777818176 -166.2352844210115 84.475210006456365 -1 0 0 0 -0.84804810408105047 0.52991925155115449 forward_v I I I I #
face $-1 $225 $226 $73 $-1 $227 forward single #
loop $-1 $228 $229 $92 #
cone-surface $-1 39.905895952384668 -44.992978802616172 13.03530782192256 0 0.84804810408105047 -0.52991925155115449 0.5 0 0 1 I I 0 1 0.5 forward I I I I #
face $-1 $230 $231 $74 $-1 $232 forward single #
loop $-1 $233 $234 $93 #
cone-surface $-1 44.132119636922226 -44.992978802616172 13.03530782192256 0 0.84804810408105047 -0.52991925155115449 0.5 0 0 1 I I 0 1 0.5 forward I I I I #
face $-1 $235 $236 $75 $-1 $237 forward single #
loop $-1 $238 $239 $94 #
cone-surface $-1 48.358343321459799 -44.992978802616172 13.03530782192256 0 0.84804810408105047 -0.52991925155115449 0.5 0 0 1 I I 0 1 0.5 forward I I I I #
face $-1 $240 $241 $57 $-1 $242 reversed single #
loop $-1 $-1 $243 $95 #
plane-surface $-1 0 0 -16.57276146495547 0 0 1 1 0 0 forward_v I I I I #
coedge $-1 $244 $245 $246 $247 forward $96 $-1 #
face $-1 $248 $249 $58 $-1 $250 forward single #
loop $-1 $-1 $251 $98 #
plane-surface $-1 0 47.622944594988624 0 0 -1 0 0 0 -1 forward_v I I I I #
coedge $-1 $252 $253 $254 $255 forward $99 $-1 #
face $-1 $256 $257 $59 $-1 $258 reversed single #
loop $-1 $-1 $259 $101 #
plane-surface $-1 55.4597947200158 -31.132579362076171 0 1 0 0 0 0 -1 forward_v I I I I #
coedge $-1 $260 $261 $262 $263 forward $102 $-1 #
face $-1 $264 $265 $60 $-1 $266 reversed single #
loop $-1 $-1 $267 $104 #
plane-surface $-1 -40.290841414118148 -47.622944594988638 10.357996557288629 0 -0.84804810408105047 0.52991925155115449 1 0 0 forward_v I I I I #
coedge $-1 $268 $269 $270 $271 reversed $105 $-1 #
face $-1 $-1 $272 $61 $-1 $273 forward single #
loop $-1 $274 $275 $107 #
cone-surface $-1 -44.517065098655721 -44.092708979671336 12.472756819835276 0 0.84804810408105047 -0.52991925155115449 0.25 0 0 1 I I -0.70710678118654746 0.70710678118654746 0.25 forward I I I I #
loop $-1 $-1 $276 $80 #
coedge $-1 $172 $172 $277 $278 reversed $108 $-1 #
face $-1 $-1 $279 $62 $-1 $280 forward single #
loop $-1 $281 $282 $110 #
cone-surface $-1 -40.290841414118148 -44.092708979671336 12.472756819835276 0 0.84804810408105047 -0.52991925155115449 0.25 0 0 1 I I -0.70710678118654746 0.70710678118654746 0.25 forward I I I I #
loop $-1 $-1 $283 $81 #
coedge $-1 $177 $177 $284 $285 reversed $111 $-1 #
face $-1 $-1 $286 $63 $-1 $287 forward single #
loop $-1 $288 $289 $113 #
cone-surface $-1 -36.064617729580576 -44.092708979671336 12.472756819835276 0 0.84804810408105047 -0.52991925155115449 0.25 0 0 1 I I -0.70710678118654746 0.70710678118654746 0.25 forward I I I I #
loop $-1 $-1 $290 $82 #
coedge $-1 $182 $182 $291 $292 reversed $114 $-1 #
face $-1 $293 $294 $64 $-1 $295 reversed single #
loop $-1 $-1 $296 $116 #
plane-surface $-1 -12.14985439710469 -47.622944594988638 10.357996557288629 0 -0.84804810408105047 0.52991925155115449 1 0 0 forward_v I I I I #
coedge $-1 $297 $298 $299 $300 reversed $117 $-1 #
face $-1 $-1 $301 $65 $-1 $302 forward single #
loop $-1 $303 $304 $119 #
cone-surface $-1 -16.376078081642255 -44.092708979671336 12.472756819835276 0 0.84804810408105047 -0.52991925155115449 0.25 0 0 1 I I -0.70710678118654746 0.70710678118654746 0.25 forward I I I I #
loop $-1 $-1 $305 $84 #
coedge $-1 $191 $191 $306 $307 reversed $120 $-1 #
face $-1 $-1 $308 $66 $-1 $309 forward single #
loop $-1 $310 $311 $122 #
cone-surface $-1 -12.14985439710469 -44.092708979671336 12.472756819835276 0 0.84804810408105047 -0.52991925155115449 0.25 0 0 1 I I -0.70710678118654746 0.70710678118654746 0.25 forward I I I I #
loop $-1 $-1 $312 $85 #
coedge $-1 $196 $196 $313 $314 reversed $123 $-1 #
face $-1 $-1 $315 $67 $-1 $316 forward single #
loop $-1 $317 $318 $125 #
cone-surface $-1 -7.9236307125671175 -44.092708979671336 12.472756819835276 0 0.84804810408105047 -0.52991925155115449 0.25 0 0 1 I I -0.70710678118654746 0.70710678118654746 0.25 forward I I I I #
loop $-1 $-1 $319 $86 #
coedge $-1 $201 $201 $320 $321 reversed $126 $-1 #
face $-1 $322 $323 $68 $-1 $324 reversed single #
loop $-1 $-1 $325 $128 #
plane-surface $-1 15.991132619908768 -47.622944594988638 10.357996557288629 0 -0.84804810408105047 0.52991925155115449 1 0 0 forward_v I I I I #
coedge $-1 $326 $327 $328 $329 reversed $129 $-1 #
face $-1 $-1 $330 $69 $-1 $331 forward single #
loop $-1 $332 $333 $131 #
cone-surface $-1 11.76490893537121 -44.092708979671336 12.472756819835276 0 0.84804810408105047 -0.52991925155115449 0.25 0 0 1 I I -0.70710678118654746 0.70710678118654746 0.25 forward I I I I #
loop $-1 $-1 $334 $88 #
coedge $-1 $210 $210 $335 $336 reversed $132 $-1 #
face $-1 $-1 $337 $70 $-1 $338 forward single #
loop $-1 $339 $340 $134 #
cone-surface $-1 15.991132619908768 -44.092708979671336 12.472756819835276 0 0.84804810408105047 -0.52991925155115449 0.25 0 0 1 I I -0.70710678118654746 0.70710678118654746 0.25 forward I I I I #
loop $-1 $-1 $341 $89 #
coedge $-1 $215 $215 $342 $343 reversed $135 $-1 #
face $-1 $-1 $344 $71 $-1 $345 forward single #
loop $-1 $346 $347 $137 #
cone-surface $-1 20.217356304446341 -44.092708979671336 12.472756819835276 0 0.84804810408105047 -0.52991925155115449 0.25 0 0 1 I I -0.70710678118654746 0.70710678118654746 0.25 forward I I I I #
loop $-1 $-1 $348 $90 #
coedge $-1 $220 $220 $349 $350 reversed $138 $-1 #
face $-1 $351 $352 $72 $-1 $353 reversed single #
loop $-1 $-1 $354 $140 #
plane-surface $-1 44.132119636922226 -47.622944594988638 10.357996557288629 0 -0.84804810408105047 0.52991925155115449 1 0 0 forward_v I I I I #
coedge $-1 $355 $356 $357 $358 reversed $141 $-1 #
face $-1 $-1 $359 $73 $-1 $360 forward single #
loop $-1 $361 $362 $143 #
cone-surface $-1 39.905895952384668 -44.092708979671336 12.472756819835276 0 0.84804810408105047 -0.52991925155115449 0.25 0 0 1 I I -0.70710678118654746 0.70710678118654746 0.25 forward I I I I #
loop $-1 $-1 $363 $92 #
coedge $-1 $229 $229 $364 $365 reversed $144 $-1 #
face $-1 $-1 $366 $74 $-1 $367 forward single #
loop $-1 $368 $369 $146 #
cone-surface $-1 44.132119636922226 -44.092708979671336 12.472756819835276 0 0.84804810408105047 -0.52991925155115449 0.25 0 0 1 I I -0.70710678118654746 0.70710678118654746 0.25 forward I I I I #
loop $-1 $-1 $370 $93 #
coedge $-1 $234 $234 $371 $372 reversed $147 $-1 #
face $-1 $-1 $373 $75 $-1 $374 forward single #
loop $-1 $375 $376 $149 #
cone-surface $-1 48.358343321459799 -44.092708979671336 12.472756819835276 0 0.84804810408105047 -0.52991925155115449 0.25 0 0 1 I I -0.70710678118654746 0.70710678118654746 0.25 forward I I I I #
loop $-1 $-1 $377 $94 #
coedge $-1 $239 $239 $378 $379 reversed $150 $-1 #
face $-1 $380 $381 $57 $-1 $382 reversed single #
loop $-1 $-1 $383 $152 #
plane-surface $-1 0 -47.622944594988624 0 0 1 0 0 0 1 forward_v I I I I #
coedge $-1 $384 $385 $386 $387 forward $153 $-1 #
coedge $-1 $388 $155 $389 $390 forward $96 $-1 #
coedge $-1 $155 $388 $391 $392 forward $96 $-1 #
coedge $-1 $393 $394 $155 $247 reversed $395 $-1 #
edge $-1 $396 -47.622944594988624 $397 47.622944594988624 $246 $398 forward 7 unknown #
face $-1 $399 $400 $58 $-1 $401 reversed single #
loop $-1 $-1 $254 $156 #
plane-surface $-1 -76.346754467068052 0 11.373250639495968 0 0 1 1 0 0 forward_v I I I I #
coedge $-1 $402 $403 $253 $404 forward $157 $-1 #
coedge $-1 $405 $159 $406 $407 reversed $99 $-1 #
coedge $-1 $159 $405 $251 $404 reversed $99 $-1 #
coedge $-1 $408 $409 $159 $255 reversed $249 $-1 #
edge $-1 $410 -47.622944594988624 $411 47.622944594988624 $254 $412 forward 7 unknown #
face $-1 $413 $414 $59 $-1 $415 forward single #
loop $-1 $-1 $416 $160 #
plane-surface $-1 62.696174407036921 -28.264778990286139 0 0 -1 0 0 0 -1 forward_v I I I I #
coedge $-1 $417 $418 $419 $420 forward $161 $-1 #
coedge $-1 $421 $163 $422 $423 reversed $102 $-1 #
coedge $-1 $163 $421 $424 $425 reversed $102 $-1 #
coedge $-1 $418 $417 $163 $263 reversed $161 $-1 #
edge $-1 $426 -16.57276146495547 $427 16.57276146495547 $262 $428 forward 7 unknown #
face $-1 $429 $430 $60 $-1 $431 reversed single #
loop $-1 $-1 $432 $164 #
plane-surface $-1 -47.334547555014097 -166.2352844210115 84.475210006456365 1 0 0 0 0.84804810408105047 -0.52991925155115449 forward_v I I I I #
coedge $-1 $433 $434 $435 $436 reversed $165 $-1 #
coedge $-1 $269 $167 $437 $438 reversed $105 $-1 #
coedge $-1 $167 $268 $433 $439 reversed $105 $-1 #
coedge $-1 $435 $440 $167 $271 forward $441 $-1 #
edge $-1 $442 35.494697615517126 $443 39.378113606412882 $270 $444 forward 7 unknown #
loop $-1 $-1 $277 $168 #
plane-surface $-1 -40.290841414118148 -47.622944594988638 10.357996557288629 0 -0.84804810408105047 0.52991925155115449 1 0 0 forward_v I I I I #
loop $-1 $-1 $445 $107 #
coedge $-1 $275 $275 $276 $446 reversed $169 $-1 #
coedge $-1 $276 $276 $275 $446 forward $171 $-1 #
coedge $-1 $277 $277 $172 $278 forward $272 $-1 #
edge $-1 $447 1.5048612952828829e-015 $447 6.2831853071796022 $277 $448 forward 7 unknown #
loop $-1 $-1 $284 $173 #
plane-surface $-1 -40.290841414118148 -47.622944594988638 10.357996557288629 0 -0.84804810408105047 0.52991925155115449 1 0 0 forward_v I I I I #
loop $-1 $-1 $449 $110 #
coedge $-1 $282 $282 $283 $450 reversed $174 $-1 #
coedge $-1 $283 $283 $282 $450 forward $176 $-1 #
coedge $-1 $284 $284 $177 $285 forward $279 $-1 #
edge $-1 $451 1.5048612952828829e-015 $451 6.2831853071796022 $284 $452 forward 7 unknown #
loop $-1 $-1 $291 $178 #
plane-surface $-1 -40.290841414118148 -47.622944594988638 10.357996557288629 0 -0.84804810408105047 0.52991925155115449 1 0 0 forward_v I I I I #
loop $-1 $-1 $453 $113 #
coedge $-1 $289 $289 $290 $454 reversed $179 $-1 #
coedge $-1 $290 $290 $289 $454 forward $181 $-1 #
coedge $-1 $291 $291 $182 $292 forward $286 $-1 #
edge $-1 $455 1.5048612952828829e-015 $455 6.2831853071796022 $291 $456 forward 7 unknown #
face $-1 $457 $458 $64 $-1 $459 reversed single #
loop $-1 $-1 $460 $183 #
plane-surface $-1 -19.193560538000639 -166.2352844210115 84.475210006456365 1 0 0 0 0.84804810408105047 -0.52991925155115449 forward_v I I I I #
coedge $-1 $461 $462 $463 $464 reversed $184 $-1 #
coedge $-1 $298 $186 $465 $466 reversed $117 $-1 #
coedge $-1 $186 $297 $461 $467 reversed $117 $-1 #
coedge $-1 $463 $468 $186 $300 forward $469 $-1 #
edge $-1 $470 35.494697615517126 $471 39.378113606412882 $299 $472 forward 7 unknown #
loop $-1 $-1 $306 $187 #
plane-surface $-1 -12.14985439710469 -47.622944594988638 10.357996557288629 0 -0.84804810408105047 0.52991925155115449 1 0 0 forward_v I I I I #
loop $-1 $-1 $473 $119 #
coedge $-1 $304 $304 $305 $474 reversed $188 $-1 #
coedge $-1 $305 $305 $304 $474 forward $190 $-1 #
coedge $-1 $306 $306 $191 $307 forward $301 $-1 #
edge $-1 $475 1.5048612952828829e-015 $475 6.2831853071796022 $306 $476 forward 7 unknown #
loop $-1 $-1 $313 $192 #
plane-surface $-1 -12.14985439710469 -47.622944594988638 10.357996557288629 0 -0.84804810408105047 0.52991925155115449 1 0 0 forward_v I I I I #
loop $-1 $-1 $477 $122 #
coedge $-1 $311 $311 $312 $478 reversed $193 $-1 #
coedge $-1 $312 $312 $311 $478 forward $195 $-1 #
coedge $-1 $313 $313 $196 $314 forward $308 $-1 #
edge $-1 $479 1.5048612952828829e-015 $479 6.2831853071796022 $313 $480 forward 7 unknown #
loop $-1 $-1 $320 $197 #
plane-surface $-1 -12.14985439710469 -47.622944594988638 10.357996557288629 0 -0.84804810408105047 0.52991925155115449 1 0 0 forward_v I I I I #
loop $-1 $-1 $481 $125 #
coedge $-1 $318 $318 $319 $482 reversed $198 $-1 #
coedge $-1 $319 $319 $318 $482 forward $200 $-1 #
coedge $-1 $320 $320 $201 $321 forward $315 $-1 #
edge $-1 $483 1.5048612952828829e-015 $483 6.2831853071796022 $320 $484 forward 7 unknown #
face $-1 $485 $486 $68 $-1 $487 reversed single #
loop $-1 $-1 $488 $202 #
plane-surface $-1 8.9474264790128188 -166.2352844210115 84.475210006456365 1 0 0 0 0.84804810408105047 -0.52991925155115449 forward_v I I I I #
coedge $-1 $489 $490 $491 $492 reversed $203 $-1 #
coedge $-1 $327 $205 $493 $494 reversed $129 $-1 #
coedge $-1 $205 $326 $489 $495 reversed $129 $-1 #
coedge $-1 $491 $496 $205 $329 forward $497 $-1 #
edge $-1 $498 35.494697615517126 $499 39.378113606412882 $328 $500 forward 7 unknown #
loop $-1 $-1 $335 $206 #
plane-surface $-1 15.991132619908768 -47.622944594988638 10.357996557288629 0 -0.84804810408105047 0.52991925155115449 1 0 0 forward_v I I I I #
loop $-1 $-1 $501 $131 #
coedge $-1 $333 $333 $334 $502 reversed $207 $-1 #
coedge $-1 $334 $334 $333 $502 forward $209 $-1 #
coedge $-1 $335 $335 $210 $336 forward $330 $-1 #
edge $-1 $503 1.5048612952828829e-015 $503 6.2831853071796022 $335 $504 forward 7 unknown #
loop $-1 $-1 $342 $211 #
plane-surface $-1 15.991132619908768 -47.622944594988638 10.357996557288629 0 -0.84804810408105047 0.52991925155115449 1 0 0 forward_v I I I I #
loop $-1 $-1 $505 $134 #
coedge $-1 $340 $340 $341 $506 reversed $212 $-1 #
coedge $-1 $341 $341 $340 $506 forward $214 $-1 #
coedge $-1 $342 $342 $215 $343 forward $337 $-1 #
edge $-1 $507 1.5048612952828829e-015 $507 6.2831853071796022 $342 $508 forward 7 unknown #
loop $-1 $-1 $349 $216 #
plane-surface $-1 15.991132619908768 -47.622944594988638 10.357996557288629 0 -0.84804810408105047 0.52991925155115449 1 0 0 forward_v I I I I #
loop $-1 $-1 $509 $137 #
coedge $-1 $347 $347 $348 $510 reversed $217 $-1 #
coedge $-1 $348 $348 $347 $510 forward $219 $-1 #
coedge $-1 $349 $349 $220 $350 forward $344 $-1 #
edge $-1 $511 1.5048612952828829e-015 $511 6.2831853071796022 $349 $512 forward 7 unknown #
face $-1 $513 $514 $72 $-1 $515 reversed single #
loop $-1 $-1 $516 $221 #
plane-surface $-1 37.088413496026277 -166.2352844210115 84.475210006456365 1 0 0 0 0.84804810408105047 -0.52991925155115449 forward_v I I I I #
coedge $-1 $517 $518 $519 $520 reversed $222 $-1 #
coedge $-1 $356 $224 $521 $522 reversed $141 $-1 #
coedge $-1 $224 $355 $517 $523 reversed $141 $-1 #
coedge $-1 $519 $524 $224 $358 forward $525 $-1 #
edge $-1 $526 35.494697615517126 $527 39.378113606412882 $357 $528 forward 7 unknown #
loop $-1 $-1 $364 $225 #
plane-surface $-1 44.132119636922226 -47.622944594988638 10.357996557288629 0 -0.84804810408105047 0.52991925155115449 1 0 0 forward_v I I I I #
loop $-1 $-1 $529 $143 #
coedge $-1 $362 $362 $363 $530 reversed $226 $-1 #
coedge $-1 $363 $363 $362 $530 forward $228 $-1 #
coedge $-1 $364 $364 $229 $365 forward $359 $-1 #
edge $-1 $531 1.5048612952828829e-015 $531 6.2831853071796022 $364 $532 forward 7 unknown #
loop $-1 $-1 $371 $230 #
plane-surface $-1 44.132119636922226 -47.622944594988638 10.357996557288629 0 -0.84804810408105047 0.52991925155115449 1 0 0 forward_v I I I I #
loop $-1 $-1 $533 $146 #
coedge $-1 $369 $369 $370 $534 reversed $231 $-1 #
coedge $-1 $370 $370 $369 $534 forward $233 $-1 #
coedge $-1 $371 $371 $234 $372 forward $366 $-1 #
edge $-1 $535 1.5048612952828829e-015 $535 6.2831853071796022 $371 $536 forward 7 unknown #
loop $-1 $-1 $378 $235 #
plane-surface $-1 44.132119636922226 -47.622944594988638 10.357996557288629 0 -0.84804810408105047 0.52991925155115449 1 0 0 forward_v I I I I #
loop $-1 $-1 $537 $149 #
coedge $-1 $376 $376 $377 $538 reversed $236 $-1 #
coedge $-1 $377 $377 $376 $538 forward $238 $-1 #
coedge $-1 $378 $378 $239 $379 forward $373 $-1 #
edge $-1 $539 1.5048612952828829e-015 $539 6.2831853071796022 $378 $540 forward 7 unknown #
face $-1 $541 $542 $57 $-1 $543 reversed single #
loop $-1 $-1 $544 $240 #
plane-surface $-1 -69.932554094058048 0 0 1 0 0 0 0 -1 forward_v I I I I #
coedge $-1 $545 $391 $546 $547 forward $241 $-1 #
coedge $-1 $548 $243 $545 $549 forward $153 $-1 #
coedge $-1 $243 $548 $550 $551 forward $153 $-1 #
coedge $-1 $394 $393 $243 $387 reversed $395 $-1 #
edge $-1 $552 -47.622944594988624 $553 47.622944594988624 $386 $554 forward 7 unknown #
coedge $-1 $245 $244 $555 $556 forward $96 $-1 #
coedge $-1 $557 $558 $244 $390 reversed $542 $-1 #
edge $-1 $397 -69.932554094058048 $559 69.932554094058048 $389 $560 forward 7 unknown #
coedge $-1 $383 $561 $245 $392 reversed $241 $-1 #
edge $-1 $562 -69.932554094058048 $396 69.932554094058048 $391 $563 forward 7 unknown #
coedge $-1 $386 $246 $561 $564 forward $395 $-1 #
coedge $-1 $246 $386 $557 $565 reversed $395 $-1 #
loop $-1 $-1 $393 $541 #
vertex $-1 $247 $566 #
vertex $-1 $247 $567 #
straight-curve $-1 69.932554094058048 0 16.57276146495547 0 1 0 I I #
face $-1 $568 $569 $58 $-1 $570 reversed single #
loop $-1 $-1 $571 $248 #
plane-surface $-1 -76.346754467068052 0 4.108385649404493 0 0 1 1 0 0 forward_v I I I I #
coedge $-1 $572 $251 $573 $574 reversed $157 $-1 #
coedge $-1 $251 $572 $408 $575 reversed $157 $-1 #
edge $-1 $410 -11.373250639495968 $576 -4.108385649404493 $251 $577 forward 7 unknown #
coedge $-1 $253 $252 $571 $578 forward $99 $-1 #
coedge $-1 $579 $580 $252 $407 forward $581 $-1 #
edge $-1 $582 4.108385649404493 $411 11.373250639495968 $406 $583 forward 7 unknown #
coedge $-1 $584 $254 $403 $575 forward $249 $-1 #
coedge $-1 $254 $584 $579 $585 forward $249 $-1 #
vertex $-1 $404 $586 #
vertex $-1 $585 $587 #
straight-curve $-1 -69.932554094058048 0 11.373250639495968 0 -1 0 I I #
face $-1 $588 $589 $59 $-1 $590 reversed single #
loop $-1 $-1 $591 $256 #
plane-surface $-1 0 0 16.57276146495547 0 0 1 1 0 0 forward_v I I I I #
coedge $-1 $592 $593 $594 $595 reversed $257 $-1 #
coedge $-1 $262 $259 $596 $597 reversed $161 $-1 #
coedge $-1 $259 $262 $598 $599 reversed $161 $-1 #
coedge $-1 $593 $592 $259 $420 reversed $257 $-1 #
edge $-1 $600 -16.57276146495547 $601 16.57276146495547 $419 $602 forward 7 unknown #
coedge $-1 $261 $260 $603 $604 reversed $102 $-1 #
coedge $-1 $596 $605 $260 $423 forward $589 $-1 #
edge $-1 $606 -38.584466890539588 $427 -24.11170751649734 $422 $607 forward 7 unknown #
coedge $-1 $608 $598 $261 $425 forward $414 $-1 #
edge $-1 $426 24.11170751649734 $609 38.584466890539588 $424 $610 forward 7 unknown #
vertex $-1 $425 $611 #
vertex $-1 $423 $612 #
straight-curve $-1 55.4597947200158 -34.000379733866204 0 0 0 -1 I I #
face $-1 $-1 $441 $60 $-1 $613 forward single #
loop $-1 $-1 $614 $264 #
plane-surface $-1 0 -47.622944594988624 0 0 1 0 0 0 1 forward_v I I I I #
coedge $-1 $615 $616 $617 $618 reversed $265 $-1 #
coedge $-1 $619 $267 $269 $439 forward $165 $-1 #
coedge $-1 $267 $619 $615 $620 forward $165 $-1 #
coedge $-1 $617 $270 $267 $436 forward $441 $-1 #
edge $-1 $443 13.101714566163125 $621 27.189126847955023 $435 $622 forward 7 unknown #
coedge $-1 $623 $624 $268 $438 forward $430 $-1 #
edge $-1 $625 -31.879608445939532 $442 -25.664843538272713 $437 $626 forward 7 unknown #
edge $-1 $443 -7.3283164926135802 $625 -2.7114274142304302e-014 $269 $627 forward 7 unknown #
coedge $-1 $270 $617 $623 $628 forward $441 $-1 #
loop $-1 $-1 $617 $429 #
vertex $-1 $438 $629 #
vertex $-1 $271 $630 #
straight-curve $-1 -33.247135273222199 -83.11764221050575 16.57276146495547 0 1 0 I I #
coedge $-1 $445 $445 $-1 $631 reversed $274 $-1 #
edge $-1 $632 0 $632 6.2831853071796004 $275 $633 forward 7 unknown #
vertex $-1 $278 $634 #
ellipse-curve $-1 -44.517065098655721 -45.681236599540746 13.465379011122058 0 -0.84804810408105047 0.52991925155115449 0.5 0 0 1 I I #
coedge $-1 $449 $449 $-1 $635 reversed $281 $-1 #
edge $-1 $636 0 $636 6.2831853071796004 $282 $637 forward 7 unknown #
vertex $-1 $285 $638 #
ellipse-curve $-1 -40.290841414118148 -45.681236599540746 13.465379011122058 0 -0.84804810408105047 0.52991925155115449 0.5 0 0 1 I I #
coedge $-1 $453 $453 $-1 $639 reversed $288 $-1 #
edge $-1 $640 0 $640 6.2831853071796004 $289 $641 forward 7 unknown #
vertex $-1 $292 $642 #
ellipse-curve $-1 -36.064617729580576 -45.681236599540746 13.465379011122058 0 -0.84804810408105047 0.52991925155115449 0.5 0 0 1 I I #
face $-1 $-1 $469 $64 $-1 $643 forward single #
loop $-1 $-1 $644 $293 #
plane-surface $-1 0 -47.622944594988624 0 0 1 0 0 0 1 forward_v I I I I #
coedge $-1 $645 $646 $647 $648 reversed $294 $-1 #
coedge $-1 $649 $296 $298 $467 forward $184 $-1 #
coedge $-1 $296 $649 $645 $650 forward $184 $-1 #
coedge $-1 $647 $299 $296 $464 forward $469 $-1 #
edge $-1 $471 -0.9687789423436044 $651 13.118633339448294 $463 $652 forward 7 unknown #
coedge $-1 $653 $654 $297 $466 forward $458 $-1 #
edge $-1 $655 -31.879608445939532 $470 -25.664843538272713 $465 $656 forward 7 unknown #
edge $-1 $471 -7.3283164926135802 $655 -2.7114274142304302e-014 $298 $657 forward 7 unknown #
coedge $-1 $299 $647 $653 $658 forward $469 $-1 #
loop $-1 $-1 $647 $457 #
vertex $-1 $466 $659 #
vertex $-1 $300 $660 #
straight-curve $-1 -5.1061482562087406 -83.11764221050575 16.57276146495547 0 1 0 I I #
coedge $-1 $473 $473 $-1 $661 reversed $303 $-1 #
edge $-1 $662 0 $662 6.2831853071796004 $304 $663 forward 7 unknown #
vertex $-1 $307 $664 #
ellipse-curve $-1 -16.376078081642255 -45.681236599540746 13.465379011122058 0 -0.84804810408105047 0.52991925155115449 0.5 0 0 1 I I #
coedge $-1 $477 $477 $-1 $665 reversed $310 $-1 #
edge $-1 $666 0 $666 6.2831853071796004 $311 $667 forward 7 unknown #
vertex $-1 $314 $668 #
ellipse-curve $-1 -12.14985439710469 -45.681236599540746 13.465379011122058 0 -0.84804810408105047 0.52991925155115449 0.5 0 0 1 I I #
coedge $-1 $481 $481 $-1 $669 reversed $317 $-1 #
edge $-1 $670 0 $670 6.2831853071796004 $318 $671 forward 7 unknown #
vertex $-1 $321 $672 #
ellipse-curve $-1 -7.9236307125671175 -45.681236599540746 13.465379011122058 0 -0.84804810408105047 0.52991925155115449 0.5 0 0 1 I I #
face $-1 $-1 $497 $68 $-1 $673 forward single #
loop $-1 $-1 $674 $322 #
plane-surface $-1 0 -47.622944594988624 0 0 1 0 0 0 1 forward_v I I I I #
coedge $-1 $675 $676 $677 $678 reversed $323 $-1 #
coedge $-1 $679 $325 $327 $495 forward $203 $-1 #
coedge $-1 $325 $679 $675 $680 forward $203 $-1 #
coedge $-1 $677 $328 $325 $492 forward $497 $-1 #
edge $-1 $499 -15.039272450850333 $681 -0.95186016905843474 $491 $682 forward 7 unknown #
coedge $-1 $683 $684 $326 $494 forward $486 $-1 #
edge $-1 $685 -31.879608445939532 $498 -25.664843538272713 $493 $686 forward 7 unknown #
edge $-1 $499 -7.3283164926135802 $685 -2.7114274142304302e-014 $327 $687 forward 7 unknown #
coedge $-1 $328 $677 $683 $688 forward $497 $-1 #
loop $-1 $-1 $677 $485 #
vertex $-1 $494 $689 #
vertex $-1 $329 $690 #
straight-curve $-1 23.034838760804718 -83.11764221050575 16.57276146495547 0 1 0 I I #
coedge $-1 $501 $501 $-1 $691 reversed $332 $-1 #
edge $-1 $692 0 $692 6.2831853071796004 $333 $693 forward 7 unknown #
vertex $-1 $336 $694 #
ellipse-curve $-1 11.76490893537121 -45.681236599540746 13.465379011122058 0 -0.84804810408105047 0.52991925155115449 0.5 0 0 1 I I #
coedge $-1 $505 $505 $-1 $695 reversed $339 $-1 #
edge $-1 $696 0 $696 6.2831853071796004 $340 $697 forward 7 unknown #
vertex $-1 $343 $698 #
ellipse-curve $-1 15.991132619908768 -45.681236599540746 13.465379011122058 0 -0.84804810408105047 0.52991925155115449 0.5 0 0 1 I I #
coedge $-1 $509 $509 $-1 $699 reversed $346 $-1 #
edge $-1 $700 0 $700 6.2831853071796004 $347 $701 forward 7 unknown #
vertex $-1 $350 $702 #
ellipse-curve $-1 20.217356304446341 -45.681236599540746 13.465379011122058 0 -0.84804810408105047 0.52991925155115449 0.5 0 0 1 I I #
face $-1 $-1 $525 $72 $-1 $703 forward single #
loop $-1 $-1 $704 $351 #
plane-surface $-1 0 -47.622944594988624 0 0 1 0 0 0 1 forward_v I I I I #
coedge $-1 $705 $706 $707 $708 reversed $352 $-1 #
coedge $-1 $709 $354 $356 $523 forward $222 $-1 #
coedge $-1 $354 $709 $705 $710 forward $222 $-1 #
coedge $-1 $707 $357 $354 $520 forward $525 $-1 #
edge $-1 $527 -29.109765959357063 $711 -15.022353677565164 $519 $712 forward 7 unknown #
coedge $-1 $713 $714 $355 $522 forward $514 $-1 #
edge $-1 $715 -31.879608445939532 $526 -25.664843538272713 $521 $716 forward 7 unknown #
edge $-1 $527 -7.3283164926135802 $715 -2.7114274142304302e-014 $356 $717 forward 7 unknown #
coedge $-1 $357 $707 $713 $718 forward $525 $-1 #
loop $-1 $-1 $707 $513 #
vertex $-1 $522 $719 #
vertex $-1 $358 $720 #
straight-curve $-1 51.175825777818176 -83.11764221050575 16.57276146495547 0 1 0 I I #
coedge $-1 $529 $529 $-1 $721 reversed $361 $-1 #
edge $-1 $722 0 $722 6.2831853071796004 $362 $723 forward 7 unknown #
vertex $-1 $365 $724 #
ellipse-curve $-1 39.905895952384668 -45.681236599540746 13.465379011122058 0 -0.84804810408105047 0.52991925155115449 0.5 0 0 1 I I #
coedge $-1 $533 $533 $-1 $725 reversed $368 $-1 #
edge $-1 $726 0 $726 6.2831853071796004 $369 $727 forward 7 unknown #
vertex $-1 $372 $728 #
ellipse-curve $-1 44.132119636922226 -45.681236599540746 13.465379011122058 0 -0.84804810408105047 0.52991925155115449 0.5 0 0 1 I I #
coedge $-1 $537 $537 $-1 $729 reversed $375 $-1 #
edge $-1 $730 0 $730 6.2831853071796004 $376 $731 forward 7 unknown #
vertex $-1 $379 $732 #
ellipse-curve $-1 48.358343321459799 -45.681236599540746 13.465379011122058 0 -0.84804810408105047 0.52991925155115449 0.5 0 0 1 I I #
face $-1 $-1 $395 $57 $-1 $733 reversed single #
loop $-1 $-1 $557 $380 #
plane-surface $-1 0 47.622944594988624 0 0 -1 0 0 0 -1 forward_v I I I I #
coedge $-1 $734 $555 $558 $735 forward $381 $-1 #
coedge $-1 $561 $383 $384 $549 reversed $241 $-1 #
coedge $-1 $555 $734 $383 $547 reversed $381 $-1 #
edge $-1 $562 -16.57276146495547 $736 16.57276146495547 $546 $737 forward 7 unknown #
coedge $-1 $385 $384 $734 $738 forward $153 $-1 #
edge $-1 $553 -69.932554094058048 $736 69.932554094058048 $545 $739 forward 7 unknown #
coedge $-1 $558 $557 $385 $551 reversed $542 $-1 #
edge $-1 $740 -69.932554094058048 $552 69.932554094058048 $550 $741 forward 7 unknown #
vertex $-1 $387 $742 #
vertex $-1 $564 $743 #
straight-curve $-1 69.932554094058048 0 -16.57276146495547 0 -1 0 I I #
coedge $-1 $544 $546 $388 $556 reversed $381 $-1 #
edge $-1 $559 -47.622944594988624 $562 47.622944594988624 $555 $744 forward 7 unknown #
coedge $-1 $550 $389 $394 $565 forward $542 $-1 #
coedge $-1 $389 $550 $544 $735 reversed $542 $-1 #
vertex $-1 $390 $745 #
straight-curve $-1 0 47.622944594988624 16.57276146495547 -1 0 0 I I #
coedge $-1 $391 $545 $393 $564 reversed $241 $-1 #
vertex $-1 $556 $746 #
straight-curve $-1 0 -47.622944594988624 16.57276146495547 1 0 0 I I #
edge $-1 $396 -16.57276146495547 $553 16.57276146495547 $393 $747 forward 7 unknown #
edge $-1 $397 -16.57276146495547 $552 16.57276146495547 $394 $748 forward 7 unknown #
point $-1 69.932554094058048 -47.622944594988624 16.57276146495547 #
point $-1 69.932554094058048 47.622944594988624 16.57276146495547 #
face $-1 $-1 $581 $58 $-1 $749 reversed single #
loop $-1 $-1 $750 $399 #
plane-surface $-1 -82.760954840078057 0 7.7408181444502304 1 0 0 0 0 -1 forward_v I I I I #
coedge $-1 $751 $573 $405 $578 reversed $400 $-1 #
coedge $-1 $403 $402 $750 $752 reversed $157 $-1 #
coedge $-1 $571 $753 $402 $574 forward $400 $-1 #
edge $-1 $754 -6.4142003730100043 $576 6.4142003730100043 $402 $755 forward 7 unknown #
edge $-1 $410 -6.4142003730100043 $756 6.4142003730100043 $403 $757 forward 7 unknown #
vertex $-1 $404 $758 #
straight-curve $-1 -69.932554094058048 47.622944594988624 0 0 0 -1 I I #
edge $-1 $582 -47.622944594988624 $576 47.622944594988624 $571 $759 forward 7 unknown #
coedge $-1 $760 $406 $409 $585 reversed $581 $-1 #
coedge $-1 $406 $760 $751 $761 reversed $581 $-1 #
loop $-1 $-1 $406 $568 #
vertex $-1 $407 $762 #
straight-curve $-1 -69.932554094058048 -47.622944594988624 0 0 0 1 I I #
coedge $-1 $409 $408 $763 $764 forward $249 $-1 #
edge $-1 $765 -6.4142003730100043 $411 6.4142003730100043 $579 $766 forward 7 unknown #
point $-1 -69.932554094058048 47.622944594988624 11.373250639495968 #
point $-1 -69.932554094058048 -47.622944594988624 11.373250639495968 #
face $-1 $-1 $767 $59 $-1 $768 reversed single #
loop $-1 $-1 $769 $413 #
plane-surface $-1 0 0 -16.57276146495547 0 0 1 1 0 0 forward_v I I I I #
coedge $-1 $598 $608 $593 $770 forward $414 $-1 #
coedge $-1 $419 $416 $769 $771 reversed $257 $-1 #
coedge $-1 $416 $419 $591 $770 reversed $257 $-1 #
coedge $-1 $772 $773 $416 $595 forward $767 $-1 #
edge $-1 $774 -16.57276146495547 $775 16.57276146495547 $594 $776 forward 7 unknown #
coedge $-1 $769 $422 $417 $597 forward $589 $-1 #
edge $-1 $427 -18.434090052828118 $601 -12.698489309248053 $596 $777 forward 7 unknown #
coedge $-1 $424 $591 $418 $599 forward $414 $-1 #
edge $-1 $600 12.698489309248053 $426 18.434090052828118 $598 $778 forward 7 unknown #
vertex $-1 $599 $779 #
vertex $-1 $597 $780 #
straight-curve $-1 55.4597947200158 -28.264778990286139 0 0 0 -1 I I #
coedge $-1 $773 $772 $421 $604 forward $767 $-1 #
edge $-1 $609 -16.57276146495547 $606 16.57276146495547 $603 $781 forward 7 unknown #
coedge $-1 $422 $769 $773 $782 forward $589 $-1 #
vertex $-1 $604 $783 #
straight-curve $-1 31.34808720351846 -34.000379733866204 -16.57276146495547 -1 0 0 I I #
coedge $-1 $591 $424 $772 $784 forward $414 $-1 #
vertex $-1 $784 $785 #
straight-curve $-1 31.34808720351846 -34.000379733866204 16.57276146495547 1 0 0 I I #
point $-1 55.4597947200158 -34.000379733866204 16.57276146495547 #
point $-1 55.4597947200158 -34.000379733866204 -16.57276146495547 #
plane-surface $-1 0 0 16.57276146495547 0 0 1 1 0 0 forward_v I I I I #
coedge $-1 $624 $623 $616 $786 forward $430 $-1 #
coedge $-1 $616 $432 $434 $620 reversed $265 $-1 #
coedge $-1 $432 $615 $614 $786 reversed $265 $-1 #
coedge $-1 $440 $435 $432 $618 forward $441 $-1 #
edge $-1 $621 -39.378113606412882 $787 -35.494697615517126 $617 $788 forward 7 unknown #
coedge $-1 $434 $433 $624 $789 reversed $165 $-1 #
edge $-1 $790 2.7114274142304302e-014 $621 7.3283164926135802 $615 $791 forward 7 unknown #
vertex $-1 $436 $792 #
straight-curve $-1 -20.145420707059074 -43.739528604092868 16.57276146495547 -1 0 0 I I #
coedge $-1 $614 $437 $440 $628 reversed $430 $-1 #
coedge $-1 $437 $614 $619 $789 forward $430 $-1 #
vertex $-1 $438 $793 #
straight-curve $-1 -33.247135273222199 -47.622944594988624 42.237605003228182 0 0 1 I I #
straight-curve $-1 -33.247135273222199 -47.622944594988638 10.357996557288629 0 -0.52991925155115449 -0.84804810408105047 I I #
edge $-1 $787 -47.334547555014097 $442 -33.247135273222199 $623 $794 forward 7 unknown #
point $-1 -33.247135273222199 -47.622944594988624 16.57276146495547 #
point $-1 -33.247135273222199 -43.739528604092868 16.57276146495547 #
edge $-1 $795 1 $795 0 $445 $-1 forward 7 unknown #
vertex $-1 $446 $796 #
ellipse-curve $-1 -44.517065098655721 -44.304721005691597 12.605236632723065 0 -0.84804810408105047 0.52991925155115449 0.5 0 0 1 I I #
point $-1 -44.017065098655721 -45.681236599540739 13.465379011122055 #
edge $-1 $797 1 $797 0 $449 $-1 forward 7 unknown #
vertex $-1 $450 $798 #
ellipse-curve $-1 -40.290841414118148 -44.304721005691597 12.605236632723065 0 -0.84804810408105047 0.52991925155115449 0.5 0 0 1 I I #
point $-1 -39.790841414118148 -45.681236599540739 13.465379011122055 #
edge $-1 $799 1 $799 0 $453 $-1 forward 7 unknown #
vertex $-1 $454 $800 #
ellipse-curve $-1 -36.064617729580576 -44.304721005691597 12.605236632723065 0 -0.84804810408105047 0.52991925155115449 0.5 0 0 1 I I #
point $-1 -35.564617729580576 -45.681236599540739 13.465379011122055 #
plane-surface $-1 0 0 16.57276146495547 0 0 1 1 0 0 forward_v I I I I #
coedge $-1 $654 $653 $646 $801 forward $458 $-1 #
coedge $-1 $646 $460 $462 $650 reversed $294 $-1 #
coedge $-1 $460 $645 $644 $801 reversed $294 $-1 #
coedge $-1 $468 $463 $460 $648 forward $469 $-1 #
edge $-1 $651 -39.378113606412882 $802 -35.494697615517126 $647 $803 forward 7 unknown #
coedge $-1 $462 $461 $654 $804 reversed $184 $-1 #
edge $-1 $805 2.7114274142304302e-014 $651 7.3283164926135802 $645 $806 forward 7 unknown #
vertex $-1 $464 $807 #
straight-curve $-1 -6.074927198552345 -43.739528604092868 16.57276146495547 -1 0 0 I I #
coedge $-1 $644 $465 $468 $658 reversed $458 $-1 #
coedge $-1 $465 $644 $649 $804 forward $458 $-1 #
vertex $-1 $466 $808 #
straight-curve $-1 -5.1061482562087406 -47.622944594988624 42.237605003228182 0 0 1 I I #
straight-curve $-1 -5.1061482562087406 -47.622944594988638 10.357996557288629 0 -0.52991925155115449 -0.84804810408105047 I I #
edge $-1 $802 -19.193560538000639 $470 -5.1061482562087406 $653 $809 forward 7 unknown #
point $-1 -5.1061482562087406 -47.622944594988624 16.57276146495547 #
point $-1 -5.1061482562087406 -43.739528604092868 16.57276146495547 #
edge $-1 $810 1 $810 0 $473 $-1 forward 7 unknown #
vertex $-1 $474 $811 #
ellipse-curve $-1 -16.376078081642255 -44.304721005691597 12.605236632723065 0 -0.84804810408105047 0.52991925155115449 0.5 0 0 1 I I #
point $-1 -15.876078081642255 -45.681236599540739 13.465379011122055 #
edge $-1 $812 1 $812 0 $477 $-1 forward 7 unknown #
vertex $-1 $478 $813 #
ellipse-curve $-1 -12.14985439710469 -44.304721005691597 12.605236632723065 0 -0.84804810408105047 0.52991925155115449 0.5 0 0 1 I I #
point $-1 -11.64985439710469 -45.681236599540739 13.465379011122055 #
edge $-1 $814 1 $814 0 $481 $-1 forward 7 unknown #
vertex $-1 $482 $815 #
ellipse-curve $-1 -7.9236307125671175 -44.304721005691597 12.605236632723065 0 -0.84804810408105047 0.52991925155115449 0.5 0 0 1 I I #
point $-1 -7.4236307125671175 -45.681236599540739 13.465379011122055 #
plane-surface $-1 0 0 16.57276146495547 0 0 1 1 0 0 forward_v I I I I #
coedge $-1 $684 $683 $676 $816 forward $486 $-1 #
coedge $-1 $676 $488 $490 $680 reversed $323 $-1 #
coedge $-1 $488 $675 $674 $816 reversed $323 $-1 #
coedge $-1 $496 $491 $488 $678 forward $497 $-1 #
edge $-1 $681 -39.378113606412882 $817 -35.494697615517126 $677 $818 forward 7 unknown #
coedge $-1 $490 $489 $684 $819 reversed $203 $-1 #
edge $-1 $820 2.7114274142304302e-014 $681 7.3283164926135802 $675 $821 forward 7 unknown #
vertex $-1 $492 $822 #
straight-curve $-1 7.9955663099543841 -43.739528604092868 16.57276146495547 -1 0 0 I I #
coedge $-1 $674 $493 $496 $688 reversed $486 $-1 #
coedge $-1 $493 $674 $679 $819 forward $486 $-1 #
vertex $-1 $494 $823 #
straight-curve $-1 23.034838760804718 -47.622944594988624 42.237605003228182 0 0 1 I I #
straight-curve $-1 23.034838760804718 -47.622944594988638 10.357996557288629 0 -0.52991925155115449 -0.84804810408105047 I I #
edge $-1 $817 8.9474264790128188 $498 23.034838760804718 $683 $824 forward 7 unknown #
point $-1 23.034838760804718 -47.622944594988624 16.57276146495547 #
point $-1 23.034838760804718 -43.739528604092868 16.57276146495547 #
edge $-1 $825 1 $825 0 $501 $-1 forward 7 unknown #
vertex $-1 $502 $826 #
ellipse-curve $-1 11.76490893537121 -44.304721005691597 12.605236632723065 0 -0.84804810408105047 0.52991925155115449 0.5 0 0 1 I I #
point $-1 12.26490893537121 -45.681236599540739 13.465379011122055 #
edge $-1 $827 1 $827 0 $505 $-1 forward 7 unknown #
vertex $-1 $506 $828 #
ellipse-curve $-1 15.991132619908768 -44.304721005691597 12.605236632723065 0 -0.84804810408105047 0.52991925155115449 0.5 0 0 1 I I #
point $-1 16.491132619908768 -45.681236599540739 13.465379011122055 #
edge $-1 $829 1 $829 0 $509 $-1 forward 7 unknown #
vertex $-1 $510 $830 #
ellipse-curve $-1 20.217356304446341 -44.304721005691597 12.605236632723065 0 -0.84804810408105047 0.52991925155115449 0.5 0 0 1 I I #
point $-1 20.717356304446341 -45.681236599540739 13.465379011122055 #
plane-surface $-1 0 0 16.57276146495547 0 0 1 1 0 0 forward_v I I I I #
coedge $-1 $714 $713 $706 $831 forward $514 $-1 #
coedge $-1 $706 $516 $518 $710 reversed $352 $-1 #
coedge $-1 $516 $705 $704 $831 reversed $352 $-1 #
coedge $-1 $524 $519 $516 $708 forward $525 $-1 #
edge $-1 $711 -39.378113606412882 $832 -35.494697615517126 $707 $833 forward 7 unknown #
coedge $-1 $518 $517 $714 $834 reversed $222 $-1 #
edge $-1 $835 2.7114274142304302e-014 $711 7.3283164926135802 $705 $836 forward 7 unknown #
vertex $-1 $520 $837 #
straight-curve $-1 22.066059818461113 -43.739528604092868 16.57276146495547 -1 0 0 I I #
coedge $-1 $704 $521 $524 $718 reversed $514 $-1 #
coedge $-1 $521 $704 $709 $834 forward $514 $-1 #
vertex $-1 $522 $838 #
straight-curve $-1 51.175825777818176 -47.622944594988624 42.237605003228182 0 0 1 I I #
straight-curve $-1 51.175825777818176 -47.622944594988638 10.357996557288629 0 -0.52991925155115449 -0.84804810408105047 I I #
edge $-1 $832 37.088413496026277 $526 51.175825777818176 $713 $839 forward 7 unknown #
point $-1 51.175825777818176 -47.622944594988624 16.57276146495547 #
point $-1 51.175825777818176 -43.739528604092868 16.57276146495547 #
edge $-1 $840 1 $840 0 $529 $-1 forward 7 unknown #
vertex $-1 $530 $841 #
ellipse-curve $-1 39.905895952384668 -44.304721005691597 12.605236632723065 0 -0.84804810408105047 0.52991925155115449 0.5 0 0 1 I I #
point $-1 40.405895952384668 -45.681236599540739 13.465379011122055 #
edge $-1 $842 1 $842 0 $533 $-1 forward 7 unknown #
vertex $-1 $534 $843 #
ellipse-curve $-1 44.132119636922226 -44.304721005691597 12.605236632723065 0 -0.84804810408105047 0.52991925155115449 0.5 0 0 1 I I #
point $-1 44.632119636922226 -45.681236599540739 13.465379011122055 #
edge $-1 $844 1 $844 0 $537 $-1 forward 7 unknown #
vertex $-1 $538 $845 #
ellipse-curve $-1 48.358343321459799 -44.304721005691597 12.605236632723065 0 -0.84804810408105047 0.52991925155115449 0.5 0 0 1 I I #
point $-1 48.858343321459799 -45.681236599540739 13.465379011122055 #
plane-surface $-1 69.932554094058048 0 0 -1 0 0 0 0 1 forward_v I I I I #
coedge $-1 $546 $544 $548 $738 reversed $381 $-1 #
edge $-1 $559 -16.57276146495547 $740 16.57276146495547 $558 $846 forward 7 unknown #
vertex $-1 $738 $847 #
straight-curve $-1 -69.932554094058048 -47.622944594988624 0 0 0 -1 I I #
edge $-1 $736 -47.622944594988624 $740 47.622944594988624 $734 $848 forward 7 unknown #
straight-curve $-1 0 -47.622944594988624 -16.57276146495547 -1 0 0 I I #
vertex $-1 $551 $849 #
straight-curve $-1 0 47.622944594988624 -16.57276146495547 1 0 0 I I #
point $-1 69.932554094058048 47.622944594988624 -16.57276146495547 #
point $-1 69.932554094058048 -47.622944594988624 -16.57276146495547 #
straight-curve $-1 -69.932554094058048 0 16.57276146495547 0 -1 0 I I #
point $-1 -69.932554094058048 47.622944594988624 16.57276146495547 #
point $-1 -69.932554094058048 -47.622944594988624 16.57276146495547 #
straight-curve $-1 69.932554094058048 -47.622944594988624 0 0 0 -1 I I #
straight-curve $-1 69.932554094058048 47.622944594988624 0 0 0 -1 I I #
plane-surface $-1 0 -47.622944594988624 0 0 1 0 0 0 1 forward_v I I I I #
coedge $-1 $850 $763 $572 $752 forward $569 $-1 #
coedge $-1 $753 $571 $580 $761 forward $400 $-1 #
edge $-1 $756 -3.6324324950457374 $754 3.6324324950457374 $572 $851 forward 7 unknown #
coedge $-1 $573 $751 $850 $852 forward $400 $-1 #
vertex $-1 $574 $853 #
straight-curve $-1 -76.346754467068052 47.622944594988624 4.108385649404493 1 0 0 I I #
vertex $-1 $575 $854 #
straight-curve $-1 -76.346754467068052 47.622944594988624 11.373250639495968 -1 0 0 I I #
point $-1 -69.932554094058048 47.622944594988624 4.108385649404493 #
straight-curve $-1 -69.932554094058048 0 4.108385649404493 0 1 0 I I #
coedge $-1 $580 $579 $855 $856 forward $581 $-1 #
edge $-1 $582 -6.4142003730100043 $857 6.4142003730100043 $580 $858 forward 7 unknown #
point $-1 -69.932554094058048 -47.622944594988624 4.108385649404493 #
coedge $-1 $750 $855 $584 $764 reversed $569 $-1 #
edge $-1 $756 -47.622944594988624 $765 47.622944594988624 $763 $859 forward 7 unknown #
vertex $-1 $764 $860 #
straight-curve $-1 -76.346754467068052 -47.622944594988624 11.373250639495968 1 0 0 I I #
loop $-1 $-1 $594 $588 #
plane-surface $-1 69.932554094058048 0 0 -1 0 0 0 0 1 forward_v I I I I #
coedge $-1 $605 $596 $592 $771 forward $589 $-1 #
edge $-1 $775 -38.584466890539588 $600 -24.11170751649734 $591 $861 forward 7 unknown #
edge $-1 $601 24.11170751649734 $774 38.584466890539588 $769 $862 forward 7 unknown #
coedge $-1 $603 $594 $608 $784 reversed $767 $-1 #
coedge $-1 $594 $603 $605 $782 reversed $767 $-1 #
vertex $-1 $782 $863 #
vertex $-1 $595 $864 #
straight-curve $-1 69.932554094058048 -28.264778990286139 0 0 0 1 I I #
straight-curve $-1 55.4597947200158 -15.566289681038086 -16.57276146495547 0 1 0 I I #
straight-curve $-1 55.4597947200158 -15.566289681038086 16.57276146495547 0 -1 0 I I #
point $-1 55.4597947200158 -28.264778990286139 16.57276146495547 #
point $-1 55.4597947200158 -28.264778990286139 -16.57276146495547 #
straight-curve $-1 69.932554094058048 -34.000379733866204 0 0 0 -1 I I #
edge $-1 $774 28.264778990286139 $606 34.000379733866204 $773 $865 forward 7 unknown #
point $-1 69.932554094058048 -34.000379733866204 -16.57276146495547 #
edge $-1 $609 -34.000379733866204 $775 -28.264778990286139 $772 $866 forward 7 unknown #
point $-1 69.932554094058048 -34.000379733866204 16.57276146495547 #
edge $-1 $787 25.664843538272713 $790 31.879608445939532 $614 $867 forward 7 unknown #
vertex $-1 $628 $868 #
straight-curve $-1 -47.334547555014097 -83.11764221050575 16.57276146495547 0 -1 0 I I #
edge $-1 $790 -27.189126847955023 $625 -13.101714566163125 $624 $869 forward 7 unknown #
vertex $-1 $789 $870 #
straight-curve $-1 -47.334547555014097 -47.622944594988638 10.357996557288629 0 0.52991925155115449 0.84804810408105047 I I #
point $-1 -47.334547555014097 -43.739528604092868 16.57276146495547 #
point $-1 -33.247135273222199 -47.622944594988624 10.357996557288653 #
straight-curve $-1 0 -47.622944594988624 16.57276146495547 1 0 0 I I #
vertex $-1 $631 $871 #
point $-1 -44.017065098655721 -44.304721005691597 12.605236632723065 #
vertex $-1 $635 $872 #
point $-1 -39.790841414118148 -44.304721005691597 12.605236632723065 #
vertex $-1 $639 $873 #
point $-1 -35.564617729580576 -44.304721005691597 12.605236632723065 #
edge $-1 $802 25.664843538272713 $805 31.879608445939532 $644 $874 forward 7 unknown #
vertex $-1 $658 $875 #
straight-curve $-1 -19.193560538000639 -83.11764221050575 16.57276146495547 0 -1 0 I I #
edge $-1 $805 -13.118633339448294 $655 0.9687789423436044 $654 $876 forward 7 unknown #
vertex $-1 $804 $877 #
straight-curve $-1 -19.193560538000639 -47.622944594988638 10.357996557288629 0 0.52991925155115449 0.84804810408105047 I I #
point $-1 -19.193560538000639 -43.739528604092868 16.57276146495547 #
point $-1 -5.1061482562087406 -47.622944594988624 10.357996557288653 #
straight-curve $-1 0 -47.622944594988624 16.57276146495547 1 0 0 I I #
vertex $-1 $661 $878 #
point $-1 -15.876078081642255 -44.304721005691597 12.605236632723065 #
vertex $-1 $665 $879 #
point $-1 -11.64985439710469 -44.304721005691597 12.605236632723065 #
vertex $-1 $669 $880 #
point $-1 -7.4236307125671175 -44.304721005691597 12.605236632723065 #
edge $-1 $817 25.664843538272713 $820 31.879608445939532 $674 $881 forward 7 unknown #
vertex $-1 $688 $882 #
straight-curve $-1 8.9474264790128188 -83.11764221050575 16.57276146495547 0 -1 0 I I #
edge $-1 $820 0.95186016905843474 $685 15.039272450850333 $684 $883 forward 7 unknown #
vertex $-1 $819 $884 #
straight-curve $-1 8.9474264790128188 -47.622944594988638 10.357996557288629 0 0.52991925155115449 0.84804810408105047 I I #
point $-1 8.9474264790128188 -43.739528604092868 16.57276146495547 #
point $-1 23.034838760804718 -47.622944594988624 10.357996557288653 #
straight-curve $-1 0 -47.622944594988624 16.57276146495547 1 0 0 I I #
vertex $-1 $691 $885 #
point $-1 12.26490893537121 -44.304721005691597 12.605236632723065 #
vertex $-1 $695 $886 #
point $-1 16.491132619908768 -44.304721005691597 12.605236632723065 #
vertex $-1 $699 $887 #
point $-1 20.717356304446341 -44.304721005691597 12.605236632723065 #
edge $-1 $832 25.664843538272713 $835 31.879608445939532 $704 $888 forward 7 unknown #
vertex $-1 $718 $889 #
straight-curve $-1 37.088413496026277 -83.11764221050575 16.57276146495547 0 -1 0 I I #
edge $-1 $835 15.022353677565164 $715 29.109765959357063 $714 $890 forward 7 unknown #
vertex $-1 $834 $891 #
straight-curve $-1 37.088413496026277 -47.622944594988638 10.357996557288629 0 0.52991925155115449 0.84804810408105047 I I #
point $-1 37.088413496026277 -43.739528604092868 16.57276146495547 #
point $-1 51.175825777818176 -47.622944594988624 10.357996557288653 #
straight-curve $-1 0 -47.622944594988624 16.57276146495547 1 0 0 I I #
vertex $-1 $721 $892 #
point $-1 40.405895952384668 -44.304721005691597 12.605236632723065 #
vertex $-1 $725 $893 #
point $-1 44.632119636922226 -44.304721005691597 12.605236632723065 #
vertex $-1 $729 $894 #
point $-1 48.858343321459799 -44.304721005691597 12.605236632723065 #
straight-curve $-1 -69.932554094058048 47.622944594988624 0 0 0 -1 I I #
point $-1 -69.932554094058048 -47.622944594988624 -16.57276146495547 #
straight-curve $-1 -69.932554094058048 0 -16.57276146495547 0 1 0 I I #
point $-1 -69.932554094058048 47.622944594988624 -16.57276146495547 #
coedge $-1 $855 $750 $753 $852 reversed $569 $-1 #
straight-curve $-1 -82.760954840078057 47.622944594988624 7.7408181444502304 0 0 -1 I I #
edge $-1 $857 -47.622944594988624 $754 47.622944594988624 $850 $895 forward 7 unknown #
point $-1 -82.760954840078057 47.622944594988624 4.108385649404493 #
point $-1 -82.760954840078057 47.622944594988624 11.373250639495968 #
coedge $-1 $763 $850 $760 $856 reversed $569 $-1 #
edge $-1 $765 -3.6324324950457374 $857 3.6324324950457374 $855 $896 forward 7 unknown #
vertex $-1 $852 $897 #
straight-curve $-1 -76.346754467068052 -47.622944594988624 4.108385649404493 -1 0 0 I I #
straight-curve $-1 -82.760954840078057 0 11.373250639495968 0 -1 0 I I #
point $-1 -82.760954840078057 -47.622944594988624 11.373250639495968 #
straight-curve $-1 31.34808720351846 -28.264778990286139 16.57276146495547 -1 0 0 I I #
straight-curve $-1 31.34808720351846 -28.264778990286139 -16.57276146495547 1 0 0 I I #
point $-1 69.932554094058048 -28.264778990286139 -16.57276146495547 #
point $-1 69.932554094058048 -28.264778990286139 16.57276146495547 #
straight-curve $-1 69.932554094058048 0 -16.57276146495547 0 -1 0 I I #
straight-curve $-1 69.932554094058048 0 16.57276146495547 0 1 0 I I #
straight-curve $-1 -47.334547555014097 -47.622944594988624 42.237605003228182 0 0 -1 I I #
point $-1 -47.334547555014097 -47.622944594988624 16.57276146495547 #
straight-curve $-1 -20.145420707059074 -47.622944594988624 10.357996557288656 1 0 0 I I #
point $-1 -47.334547555014097 -47.622944594988624 10.357996557288653 #
point $-1 -44.517065098655721 -43.880696953651075 12.340277006947487 #
point $-1 -40.290841414118148 -43.880696953651075 12.340277006947487 #
point $-1 -36.064617729580576 -43.880696953651075 12.340277006947487 #
straight-curve $-1 -19.193560538000639 -47.622944594988624 42.237605003228182 0 0 -1 I I #
point $-1 -19.193560538000639 -47.622944594988624 16.57276146495547 #
straight-curve $-1 -6.074927198552345 -47.622944594988624 10.357996557288656 1 0 0 I I #
point $-1 -19.193560538000639 -47.622944594988624 10.357996557288653 #
point $-1 -16.376078081642255 -43.880696953651075 12.340277006947487 #
point $-1 -12.14985439710469 -43.880696953651075 12.340277006947487 #
point $-1 -7.9236307125671175 -43.880696953651075 12.340277006947487 #
straight-curve $-1 8.9474264790128188 -47.622944594988624 42.237605003228182 0 0 -1 I I #
point $-1 8.9474264790128188 -47.622944594988624 16.57276146495547 #
straight-curve $-1 7.9955663099543841 -47.622944594988624 10.357996557288656 1 0 0 I I #
point $-1 8.9474264790128188 -47.622944594988624 10.357996557288653 #
point $-1 11.76490893537121 -43.880696953651075 12.340277006947487 #
point $-1 15.991132619908768 -43.880696953651075 12.340277006947487 #
point $-1 20.217356304446341 -43.880696953651075 12.340277006947487 #
straight-curve $-1 37.088413496026277 -47.622944594988624 42.237605003228182 0 0 -1 I I #
point $-1 37.088413496026277 -47.622944594988624 16.57276146495547 #
straight-curve $-1 22.066059818461113 -47.622944594988624 10.357996557288656 1 0 0 I I #
point $-1 37.088413496026277 -47.622944594988624 10.357996557288653 #
point $-1 39.905895952384668 -43.880696953651075 12.340277006947487 #
point $-1 44.132119636922226 -43.880696953651075 12.340277006947487 #
point $-1 48.358343321459799 -43.880696953651075 12.340277006947487 #
straight-curve $-1 -82.760954840078057 0 4.108385649404493 0 1 0 I I #
straight-curve $-1 -82.760954840078057 -47.622944594988624 7.7408181444502304 0 0 -1 I I #
point $-1 -82.760954840078057 -47.622944594988624 4.108385649404493 #
End-of-ACIS-data 