500 0 11 0           
7 Unknown 11 ACIS 5.0 NT 24 Fri Mar 26 20:23:38 1999 
-1 9.9999999999999995e-007 1e-010 
body $-1 $11 $-1 $12 #
body $-1 $13 $-1 $14 #
body $-1 $15 $-1 $16 #
body $-1 $17 $-1 $18 #
body $-1 $19 $-1 $20 #
body $-1 $21 $-1 $22 #
body $-1 $23 $-1 $24 #
body $-1 $25 $-1 $26 #
body $-1 $27 $-1 $28 #
body $-1 $29 $-1 $30 #
body $-1 $31 $-1 $32 #
lump $-1 $-1 $33 $0 #
transform $-1 1 0 0 0 1 0 0 0 1 69.904477065340132 44.723760988261894 11.702537746429597 1 rotate no_reflect no_shear #
lump $-1 $-1 $34 $1 #
transform $-1 1 0 0 0 1 0 0 0 1 69.904477065340132 44.723760988261894 11.702537746429597 1 rotate no_reflect no_shear #
lump $-1 $-1 $35 $2 #
transform $-1 1 0 0 0 1 0 0 0 1 69.904477065340132 44.723760988261894 11.702537746429597 1 rotate no_reflect no_shear #
lump $-1 $-1 $36 $3 #
transform $-1 1 0 0 0 1 0 0 0 1 69.904477065340132 44.723760988261894 11.702537746429597 1 rotate no_reflect no_shear #
lump $-1 $-1 $37 $4 #
transform $-1 1 0 0 0 1 0 0 0 1 69.904477065340132 44.723760988261894 11.702537746429597 1 rotate no_reflect no_shear #
lump $-1 $-1 $38 $5 #
transform $-1 1 0 0 0 1 0 0 0 1 69.904477065340132 44.723760988261894 11.702537746429597 1 rotate no_reflect no_shear #
lump $-1 $-1 $39 $6 #
transform $-1 1 0 0 0 1 0 0 0 1 69.904477065340132 44.723760988261894 11.702537746429597 1 rotate no_reflect no_shear #
lump $-1 $-1 $40 $7 #
transform $-1 1 0 0 0 1 0 0 0 1 69.904477065340132 44.723760988261894 11.702537746429597 1 rotate no_reflect no_shear #
lump $-1 $-1 $41 $8 #
transform $-1 1 0 0 0 1 0 0 0 1 69.904477065340132 44.723760988261894 11.702537746429597 1 rotate no_reflect no_shear #
lump $-1 $-1 $42 $9 #
transform $-1 1 0 0 0 1 0 0 0 1 69.904477065340132 44.723760988261894 11.702537746429597 1 rotate no_reflect no_shear #
lump $-1 $-1 $43 $10 #
transform $-1 1 0 0 0 1 0 0 0 1 69.904477065340132 44.723760988261894 11.702537746429597 1 rotate no_reflect no_shear #
shell $-1 $-1 $-1 $44 $-1 $11 #
shell $-1 $-1 $-1 $45 $-1 $13 #
shell $-1 $-1 $-1 $46 $-1 $15 #
shell $-1 $-1 $-1 $47 $-1 $17 #
shell $-1 $-1 $-1 $48 $-1 $19 #
shell $-1 $-1 $-1 $49 $-1 $21 #
shell $-1 $-1 $-1 $50 $-1 $23 #
shell $-1 $-1 $-1 $51 $-1 $25 #
shell $-1 $-1 $-1 $52 $-1 $27 #
shell $-1 $-1 $-1 $53 $-1 $29 #
shell $-1 $-1 $-1 $54 $-1 $31 #
face $-1 $55 $56 $33 $-1 $57 forward single #
face $-1 $58 $59 $34 $-1 $60 forward single #
face $-1 $61 $62 $35 $-1 $63 forward single #
face $-1 $64 $65 $36 $-1 $66 reversed single #
face $-1 $67 $68 $37 $-1 $69 forward single #
face $-1 $70 $71 $38 $-1 $72 reversed single #
face $-1 $73 $74 $39 $-1 $75 forward single #
face $-1 $76 $77 $40 $-1 $78 forward single #
face $-1 $79 $80 $41 $-1 $81 reversed single #
face $-1 $82 $83 $42 $-1 $84 forward single #
face $-1 $85 $86 $43 $-1 $87 forward single #
face $-1 $88 $89 $33 $-1 $90 reversed single #
loop $-1 $-1 $91 $44 #
plane-surface $-1 0 0 11.702537746429597 0 0 1 1 0 0 forward_v I I I I #
face $-1 $92 $93 $34 $-1 $94 reversed single #
loop $-1 $-1 $95 $45 #
plane-surface $-1 0 -40.443175752701528 10.747396133394879 0 0 1 1 0 0 forward_v I I I I #
face $-1 $96 $97 $35 $-1 $98 reversed single #
loop $-1 $-1 $99 $46 #
plane-surface $-1 0 40.443175752701528 10.747396133394879 0 0 1 1 0 0 forward_v I I I I #
face $-1 $100 $101 $36 $-1 $102 reversed single #
loop $-1 $-1 $103 $47 #
plane-surface $-1 -168.76433774876975 23.910170698102895 103.04659519881014 0 -1 0 0.70710678939079041 0 -0.70710677298230451 forward_v I I I I #
face $-1 $104 $105 $37 $-1 $106 forward single #
loop $-1 $107 $108 $48 #
cone-surface $-1 -64.791815578933921 14.225942189882367 6.589876204258287 0.70710678939079041 0 -0.70710677298230451 1.414213545964609 0 1.4142135787815808 1 I I 0 1 2 forward I I I I #
face $-1 $109 $110 $38 $-1 $111 reversed single #
loop $-1 $-1 $112 $49 #
plane-surface $-1 83.696709949422342 -10.608296535198953 201.63463530942408 0 1 0 0.75470958851134928 0 0.65605901945558964 forward_v I I I I #
face $-1 $113 $114 $39 $-1 $115 forward single #
loop $-1 $116 $117 $50 #
cone-surface $-1 65.741904670001205 -7.5773546679992521 7.1914943323327662 -0.75470958851134928 0 -0.65605901945558964 0.65605901945558964 0 -0.75470958851134928 1 I I 0 1 1 forward I I I I #
face $-1 $118 $119 $40 $-1 $120 forward single #
loop $-1 $121 $122 $51 #
cone-surface $-1 65.741904670001205 -3.0309418671996937 7.1914943323327662 -0.75470958851134928 0 -0.65605901945558964 0.65605901945558964 0 -0.75470958851134928 1 I I 0 1 1 forward I I I I #
face $-1 $123 $124 $41 $-1 $125 reversed single #
loop $-1 $-1 $126 $52 #
plane-surface $-1 83.696709949422342 10.608296535198967 201.63463530942408 0 -1 0 -0.75470958851134928 0 -0.65605901945558964 forward_v I I I I #
face $-1 $127 $128 $42 $-1 $129 forward single #
loop $-1 $130 $131 $53 #
cone-surface $-1 65.741904670001205 3.0309418671997079 7.1914943323327662 -0.75470958851134928 0 -0.65605901945558964 0.65605901945558964 0 -0.75470958851134928 1 I I 0 1 1 forward I I I I #
face $-1 $132 $133 $43 $-1 $134 forward single #
loop $-1 $135 $136 $54 #
cone-surface $-1 65.741904670001205 7.5773546679992663 7.1914943323327662 -0.75470958851134928 0 -0.65605901945558964 0.65605901945558964 0 -0.75470958851134928 1 I I 0 1 1 forward I I I I #
face $-1 $137 $138 $33 $-1 $139 reversed single #
loop $-1 $-1 $140 $55 #
plane-surface $-1 0 0 -11.702537746429597 0 0 1 1 0 0 forward_v I I I I #
coedge $-1 $141 $142 $143 $144 forward $56 $-1 #
face $-1 $145 $146 $34 $-1 $147 reversed single #
loop $-1 $-1 $148 $58 #
plane-surface $-1 0 -40.443175752701528 4.8463056709095689 0 0 1 1 0 0 forward_v I I I I #
coedge $-1 $149 $150 $151 $152 reversed $59 $-1 #
face $-1 $153 $154 $35 $-1 $155 reversed single #
loop $-1 $-1 $156 $61 #
plane-surface $-1 0 40.443175752701528 4.8463056709095689 0 0 1 1 0 0 forward_v I I I I #
coedge $-1 $157 $158 $159 $160 reversed $62 $-1 #
face $-1 $161 $162 $36 $-1 $163 reversed single #
loop $-1 $-1 $164 $64 #
plane-surface $-1 -69.904477065340146 14.225942189882367 4.186736809433782 -0.70710678939079041 0 0.70710677298230451 0.70710677298230451 0 0.70710678939079041 forward_v I I I I #
coedge $-1 $165 $166 $167 $168 reversed $65 $-1 #
face $-1 $-1 $169 $37 $-1 $170 forward single #
loop $-1 $171 $172 $67 #
cone-surface $-1 -62.729947684432361 14.225942189882367 4.5280083576025891 0.70710678939079041 0 -0.70710677298230451 0.70710677298230451 0 0.70710678939079041 1 I I -0.70710678118654746 0.70710678118654746 1 forward I I I I #
loop $-1 $-1 $173 $48 #
coedge $-1 $108 $108 $174 $175 reversed $68 $-1 #
face $-1 $176 $177 $38 $-1 $178 reversed single #
loop $-1 $-1 $179 $70 #
plane-surface $-1 -21.818448292745472 -5.3041482675994729 109.91170995133848 0.75470958851134928 0 0.65605901945558964 0.65605901945558964 0 -0.75470958851134928 forward_v I I I I #
coedge $-1 $180 $181 $182 $183 reversed $71 $-1 #
face $-1 $-1 $184 $39 $-1 $185 forward single #
loop $-1 $186 $187 $73 #
cone-surface $-1 64.377475783810098 -7.5773546679992521 6.0054144271376106 -0.75470958851134928 0 -0.65605901945558964 0.32802950972779482 0 -0.37735479425567464 1 I I -0.70710678118654746 0.70710678118654746 0.5 forward I I I I #
loop $-1 $-1 $188 $50 #
coedge $-1 $117 $117 $189 $190 reversed $74 $-1 #
face $-1 $-1 $191 $40 $-1 $192 forward single #
loop $-1 $193 $194 $76 #
cone-surface $-1 64.377475783810098 -3.0309418671996937 6.0054144271376106 -0.75470958851134928 0 -0.65605901945558964 0.32802950972779482 0 -0.37735479425567464 1 I I -0.70710678118654746 0.70710678118654746 0.5 forward I I I I #
loop $-1 $-1 $195 $51 #
coedge $-1 $122 $122 $196 $197 reversed $77 $-1 #
face $-1 $198 $199 $41 $-1 $200 forward single #
loop $-1 $-1 $201 $79 #
plane-surface $-1 -21.818448292745472 -5.3041482675994729 109.91170995133848 0.75470958851134928 0 0.65605901945558964 0.65605901945558964 0 -0.75470958851134928 forward_v I I I I #
coedge $-1 $202 $203 $204 $205 reversed $80 $-1 #
face $-1 $-1 $206 $42 $-1 $207 forward single #
loop $-1 $208 $209 $82 #
cone-surface $-1 64.377475783810098 3.0309418671997079 6.0054144271376106 -0.75470958851134928 0 -0.65605901945558964 0.32802950972779482 0 -0.37735479425567464 1 I I -0.70710678118654746 0.70710678118654746 0.5 forward I I I I #
loop $-1 $-1 $210 $53 #
coedge $-1 $131 $131 $211 $212 reversed $83 $-1 #
face $-1 $-1 $213 $43 $-1 $214 forward single #
loop $-1 $215 $216 $85 #
cone-surface $-1 64.377475783810098 7.5773546679992663 6.0054144271376106 -0.75470958851134928 0 -0.65605901945558964 0.32802950972779482 0 -0.37735479425567464 1 I I -0.70710678118654746 0.70710678118654746 0.5 forward I I I I #
loop $-1 $-1 $217 $54 #
coedge $-1 $136 $136 $218 $219 reversed $86 $-1 #
face $-1 $220 $221 $33 $-1 $222 reversed single #
loop $-1 $-1 $223 $88 #
plane-surface $-1 0 -44.723760988261894 0 0 1 0 0 0 1 forward_v I I I I #
coedge $-1 $224 $225 $226 $227 forward $89 $-1 #
coedge $-1 $228 $91 $229 $230 forward $56 $-1 #
coedge $-1 $91 $228 $231 $232 forward $56 $-1 #
coedge $-1 $233 $234 $91 $144 reversed $235 $-1 #
edge $-1 $236 -44.723760988261894 $237 44.723760988261894 $143 $238 forward 7 unknown #
face $-1 $239 $240 $34 $-1 $241 reversed single #
loop $-1 $-1 $242 $92 #
plane-surface $-1 0 -36.162590517141162 7.7968509021522241 0 -1 0 0 0 -1 forward_v I I I I #
coedge $-1 $243 $244 $245 $246 reversed $93 $-1 #
coedge $-1 $247 $95 $248 $249 forward $59 $-1 #
coedge $-1 $95 $247 $250 $251 reversed $59 $-1 #
coedge $-1 $252 $253 $95 $152 forward $254 $-1 #
edge $-1 $255 15.941002640790398 $256 24.50217311191113 $151 $257 forward 7 unknown #
face $-1 $258 $259 $35 $-1 $260 reversed single #
loop $-1 $-1 $261 $96 #
plane-surface $-1 0 36.162590517141162 7.7968509021522241 0 1 0 0 0 1 forward_v I I I I #
coedge $-1 $262 $263 $264 $265 reversed $97 $-1 #
coedge $-1 $266 $99 $267 $268 reversed $62 $-1 #
coedge $-1 $99 $266 $269 $270 forward $62 $-1 #
coedge $-1 $271 $272 $99 $160 forward $259 $-1 #
edge $-1 $273 -24.50217311191113 $274 -15.941002640790398 $159 $275 forward 7 unknown #
face $-1 $276 $277 $36 $-1 $278 reversed single #
loop $-1 $-1 $279 $100 #
plane-surface $-1 -168.76433774876975 4.5417136816618395 103.04659519881014 0 1 0 -0.70710678939079041 0 0.70710677298230451 forward_v I I I I #
coedge $-1 $280 $281 $282 $283 reversed $101 $-1 #
coedge $-1 $166 $103 $284 $285 reversed $65 $-1 #
coedge $-1 $103 $165 $280 $286 reversed $65 $-1 #
coedge $-1 $282 $287 $103 $168 forward $277 $-1 #
edge $-1 $288 39.82075985297547 $289 47.336560789971273 $167 $290 forward 7 unknown #
loop $-1 $-1 $174 $104 #
plane-surface $-1 -69.904477065340146 14.225942189882367 4.186736809433782 -0.70710678939079041 0 0.70710677298230451 0.70710677298230451 0 0.70710678939079041 forward_v I I I I #
loop $-1 $-1 $291 $67 #
coedge $-1 $172 $172 $173 $292 reversed $105 $-1 #
coedge $-1 $173 $173 $172 $292 forward $107 $-1 #
coedge $-1 $174 $174 $108 $175 forward $169 $-1 #
edge $-1 $293 0 $293 6.2831853071796004 $174 $294 forward 7 unknown #
face $-1 $295 $296 $38 $-1 $297 forward single #
loop $-1 $-1 $298 $109 #
plane-surface $-1 83.696709949422342 7.1054273576010019e-015 201.63463530942408 0 -1 0 -0.75470958851134928 0 -0.65605901945558964 forward_v I I I I #
coedge $-1 $299 $300 $301 $302 reversed $110 $-1 #
coedge $-1 $181 $112 $303 $304 reversed $71 $-1 #
coedge $-1 $112 $180 $299 $305 reversed $71 $-1 #
coedge $-1 $301 $306 $112 $183 forward $307 $-1 #
edge $-1 $308 89.114779908282443 $309 96.420765945541362 $182 $310 forward 7 unknown #
loop $-1 $-1 $189 $113 #
plane-surface $-1 -21.818448292745472 -5.3041482675994729 109.91170995133848 0.75470958851134928 0 0.65605901945558964 0.65605901945558964 0 -0.75470958851134928 forward_v I I I I #
loop $-1 $-1 $311 $73 #
coedge $-1 $187 $187 $188 $312 reversed $114 $-1 #
coedge $-1 $188 $188 $187 $312 forward $116 $-1 #
coedge $-1 $189 $189 $117 $190 forward $184 $-1 #
edge $-1 $313 0 $313 6.2831853071796004 $189 $314 forward 7 unknown #
loop $-1 $-1 $196 $118 #
plane-surface $-1 -21.818448292745472 -5.3041482675994729 109.91170995133848 0.75470958851134928 0 0.65605901945558964 0.65605901945558964 0 -0.75470958851134928 forward_v I I I I #
loop $-1 $-1 $315 $76 #
coedge $-1 $194 $194 $195 $316 reversed $119 $-1 #
coedge $-1 $195 $195 $194 $316 forward $121 $-1 #
coedge $-1 $196 $196 $122 $197 forward $191 $-1 #
edge $-1 $317 0 $317 6.2831853071796004 $196 $318 forward 7 unknown #
face $-1 $319 $320 $41 $-1 $321 forward single #
loop $-1 $-1 $322 $123 #
plane-surface $-1 0 0 11.702537746429597 0 0 1 1 0 0 forward_v I I I I #
coedge $-1 $323 $324 $325 $326 reversed $124 $-1 #
coedge $-1 $203 $126 $327 $328 reversed $80 $-1 #
coedge $-1 $126 $202 $322 $329 reversed $80 $-1 #
coedge $-1 $330 $331 $126 $205 forward $332 $-1 #
edge $-1 $333 -96.420765945541362 $334 -89.114779908282443 $204 $335 forward 7 unknown #
loop $-1 $-1 $211 $127 #
plane-surface $-1 -21.818448292745472 -5.3041482675994729 109.91170995133848 0.75470958851134928 0 0.65605901945558964 0.65605901945558964 0 -0.75470958851134928 forward_v I I I I #
loop $-1 $-1 $336 $82 #
coedge $-1 $209 $209 $210 $337 reversed $128 $-1 #
coedge $-1 $210 $210 $209 $337 forward $130 $-1 #
coedge $-1 $211 $211 $131 $212 forward $206 $-1 #
edge $-1 $338 0 $338 6.2831853071796004 $211 $339 forward 7 unknown #
loop $-1 $-1 $218 $132 #
plane-surface $-1 -21.818448292745472 -5.3041482675994729 109.91170995133848 0.75470958851134928 0 0.65605901945558964 0.65605901945558964 0 -0.75470958851134928 forward_v I I I I #
loop $-1 $-1 $340 $85 #
coedge $-1 $216 $216 $217 $341 reversed $133 $-1 #
coedge $-1 $217 $217 $216 $341 forward $135 $-1 #
coedge $-1 $218 $218 $136 $219 forward $213 $-1 #
edge $-1 $342 0 $342 6.2831853071796004 $218 $343 forward 7 unknown #
face $-1 $344 $345 $33 $-1 $346 reversed single #
loop $-1 $-1 $347 $137 #
plane-surface $-1 -69.904477065340132 0 0 1 0 0 0 0 -1 forward_v I I I I #
coedge $-1 $348 $231 $349 $350 forward $138 $-1 #
coedge $-1 $351 $140 $348 $352 forward $89 $-1 #
coedge $-1 $140 $351 $353 $354 forward $89 $-1 #
coedge $-1 $234 $233 $140 $227 reversed $235 $-1 #
edge $-1 $355 -44.723760988261894 $356 44.723760988261894 $226 $357 forward 7 unknown #
coedge $-1 $142 $141 $358 $359 forward $56 $-1 #
coedge $-1 $360 $361 $141 $230 reversed $345 $-1 #
edge $-1 $237 -69.904477065340132 $362 69.904477065340132 $229 $363 forward 7 unknown #
coedge $-1 $223 $364 $142 $232 reversed $138 $-1 #
edge $-1 $365 -69.904477065340132 $236 69.904477065340132 $231 $366 forward 7 unknown #
coedge $-1 $226 $143 $364 $367 forward $235 $-1 #
coedge $-1 $143 $226 $360 $368 reversed $235 $-1 #
loop $-1 $-1 $233 $344 #
vertex $-1 $144 $369 #
vertex $-1 $144 $370 #
straight-curve $-1 69.904477065340132 0 11.702537746429597 0 1 0 I I #
face $-1 $371 $372 $34 $-1 $373 reversed single #
loop $-1 $-1 $374 $145 #
plane-surface $-1 -69.904477065340132 0 0 1 0 0 0 0 -1 forward_v I I I I #
coedge $-1 $375 $248 $253 $376 reversed $146 $-1 #
coedge $-1 $377 $148 $378 $379 reversed $93 $-1 #
coedge $-1 $148 $377 $375 $380 forward $93 $-1 #
coedge $-1 $253 $252 $148 $246 forward $254 $-1 #
edge $-1 $381 -24.50217311191113 $382 -15.941002640790398 $245 $383 forward 7 unknown #
coedge $-1 $150 $149 $374 $384 reversed $59 $-1 #
coedge $-1 $242 $385 $149 $249 reversed $146 $-1 #
edge $-1 $255 -69.904477065340132 $386 69.904477065340132 $248 $387 forward 7 unknown #
coedge $-1 $388 $389 $150 $251 forward $372 $-1 #
edge $-1 $256 -69.904477065340132 $390 69.904477065340132 $250 $391 forward 7 unknown #
coedge $-1 $245 $151 $389 $392 forward $254 $-1 #
coedge $-1 $151 $245 $242 $376 forward $254 $-1 #
loop $-1 $-1 $151 $371 #
vertex $-1 $152 $393 #
vertex $-1 $392 $394 #
straight-curve $-1 69.904477065340132 -20.221587876350764 10.747396133394879 0 -1 0 I I #
face $-1 $395 $396 $35 $-1 $397 reversed single #
loop $-1 $-1 $159 $153 #
plane-surface $-1 69.904477065340132 0 0 -1 0 0 0 0 1 forward_v I I I I #
coedge $-1 $398 $269 $399 $400 reversed $154 $-1 #
coedge $-1 $401 $156 $398 $402 forward $97 $-1 #
coedge $-1 $156 $401 $403 $404 reversed $97 $-1 #
coedge $-1 $272 $271 $156 $265 forward $259 $-1 #
edge $-1 $405 15.941002640790398 $406 24.50217311191113 $264 $407 forward 7 unknown #
coedge $-1 $158 $157 $408 $409 reversed $62 $-1 #
coedge $-1 $410 $411 $157 $268 forward $412 $-1 #
edge $-1 $413 -69.904477065340132 $273 69.904477065340132 $267 $414 forward 7 unknown #
coedge $-1 $261 $415 $158 $270 reversed $154 $-1 #
edge $-1 $416 -69.904477065340132 $274 69.904477065340132 $269 $417 forward 7 unknown #
coedge $-1 $264 $159 $415 $418 forward $259 $-1 #
coedge $-1 $159 $264 $410 $419 reversed $259 $-1 #
vertex $-1 $419 $420 #
vertex $-1 $160 $421 #
straight-curve $-1 69.904477065340132 20.221587876350764 10.747396133394879 0 -1 0 I I #
face $-1 $-1 $422 $36 $-1 $423 forward single #
loop $-1 $-1 $167 $161 #
plane-surface $-1 -69.904477065340132 0 0 1 0 0 0 0 -1 forward_v I I I I #
coedge $-1 $424 $425 $426 $427 reversed $162 $-1 #
coedge $-1 $428 $164 $166 $286 forward $101 $-1 #
coedge $-1 $164 $428 $424 $429 forward $101 $-1 #
coedge $-1 $426 $167 $164 $283 forward $277 $-1 #
edge $-1 $289 -16.797199603161712 $430 2.5712574132793442 $282 $431 forward 7 unknown #
coedge $-1 $432 $433 $165 $285 forward $422 $-1 #
edge $-1 $434 -21.993492571635606 $288 -14.477691809044742 $284 $435 forward 7 unknown #
edge $-1 $289 2.0097183471152325e-014 $434 10.628947493872987 $166 $436 forward 7 unknown #
coedge $-1 $167 $426 $432 $437 reversed $277 $-1 #
vertex $-1 $437 $438 #
vertex $-1 $168 $439 #
straight-curve $-1 -69.904477065340132 23.910170698102895 51.523297599405069 0 0 -1 I I #
coedge $-1 $291 $291 $-1 $440 reversed $171 $-1 #
edge $-1 $441 0 $441 6.2831853071796004 $172 $442 forward 7 unknown #
vertex $-1 $175 $443 #
ellipse-curve $-1 -66.146576684044703 14.225942189882367 7.9446372779316956 -0.70710678939079041 0 0.70710677298230451 1.414213545964609 0 1.4142135787815808 1 I I #
face $-1 $-1 $307 $38 $-1 $444 reversed single #
loop $-1 $-1 $445 $176 #
plane-surface $-1 0 0 11.702537746429597 0 0 1 1 0 0 forward_v I I I I #
coedge $-1 $446 $447 $448 $449 reversed $177 $-1 #
coedge $-1 $450 $179 $181 $305 forward $110 $-1 #
coedge $-1 $179 $450 $446 $451 forward $110 $-1 #
coedge $-1 $448 $182 $179 $302 forward $307 $-1 #
edge $-1 $309 -7.9562224013992164 $452 2.6520741337997435 $301 $453 forward 7 unknown #
coedge $-1 $454 $455 $180 $304 forward $296 $-1 #
edge $-1 $456 21.705125483821931 $308 28.056122090628961 $303 $457 forward 7 unknown #
edge $-1 $309 -139.80895413068029 $456 -130.12842780840336 $181 $458 forward 7 unknown #
coedge $-1 $182 $448 $454 $459 reversed $307 $-1 #
loop $-1 $-1 $448 $295 #
vertex $-1 $459 $460 #
vertex $-1 $183 $461 #
straight-curve $-1 69.904477065340132 -10.608296535198953 100.81731765471204 0 0 -1 I I #
coedge $-1 $311 $311 $-1 $462 reversed $186 $-1 #
edge $-1 $463 0 $463 6.2831853071796004 $187 $464 forward 7 unknown #
vertex $-1 $190 $465 #
ellipse-curve $-1 66.728978761936631 -7.5773546679992521 8.0495447278001215 0.75470958851134928 0 0.65605901945558964 0.65605901945558964 0 -0.75470958851134928 1 I I #
coedge $-1 $315 $315 $-1 $466 reversed $193 $-1 #
edge $-1 $467 0 $467 6.2831853071796004 $194 $468 forward 7 unknown #
vertex $-1 $197 $469 #
ellipse-curve $-1 66.728978761936631 -3.0309418671996937 8.0495447278001215 0.75470958851134928 0 0.65605901945558964 0.65605901945558964 0 -0.75470958851134928 1 I I #
face $-1 $-1 $332 $41 $-1 $470 reversed single #
loop $-1 $-1 $471 $198 #
plane-surface $-1 83.696709949422342 7.1054273576010019e-015 201.63463530942408 0 -1 0 -0.75470958851134928 0 -0.65605901945558964 forward_v I I I I #
coedge $-1 $472 $473 $203 $329 forward $199 $-1 #
coedge $-1 $327 $201 $472 $474 reversed $124 $-1 #
coedge $-1 $201 $327 $331 $475 reversed $124 $-1 #
coedge $-1 $471 $476 $201 $326 forward $320 $-1 #
edge $-1 $477 130.12842780840336 $478 139.80895413068029 $325 $479 forward 7 unknown #
coedge $-1 $324 $323 $202 $328 forward $124 $-1 #
edge $-1 $480 130.12842780840336 $333 139.80895413068029 $202 $481 forward 7 unknown #
edge $-1 $334 -28.056122090628961 $480 -21.705125483821931 $322 $482 forward 7 unknown #
coedge $-1 $483 $204 $473 $484 reversed $332 $-1 #
coedge $-1 $204 $483 $324 $475 forward $332 $-1 #
loop $-1 $-1 $204 $319 #
vertex $-1 $205 $485 #
vertex $-1 $329 $486 #
straight-curve $-1 69.904477065340132 10.608296535198967 100.81731765471204 0 0 1 I I #
coedge $-1 $336 $336 $-1 $487 reversed $208 $-1 #
edge $-1 $488 0 $488 6.2831853071796004 $209 $489 forward 7 unknown #
vertex $-1 $212 $490 #
ellipse-curve $-1 66.728978761936631 3.0309418671997079 8.0495447278001215 0.75470958851134928 0 0.65605901945558964 0.65605901945558964 0 -0.75470958851134928 1 I I #
coedge $-1 $340 $340 $-1 $491 reversed $215 $-1 #
edge $-1 $492 0 $492 6.2831853071796004 $216 $493 forward 7 unknown #
vertex $-1 $219 $494 #
ellipse-curve $-1 66.728978761936631 7.5773546679992663 8.0495447278001215 0.75470958851134928 0 0.65605901945558964 0.65605901945558964 0 -0.75470958851134928 1 I I #
face $-1 $-1 $235 $33 $-1 $495 reversed single #
loop $-1 $-1 $360 $220 #
plane-surface $-1 0 44.723760988261894 0 0 -1 0 0 0 -1 forward_v I I I I #
coedge $-1 $496 $358 $361 $497 forward $221 $-1 #
coedge $-1 $364 $223 $224 $352 reversed $138 $-1 #
coedge $-1 $358 $496 $223 $350 reversed $221 $-1 #
edge $-1 $365 -11.702537746429597 $498 11.702537746429597 $349 $499 forward 7 unknown #
coedge $-1 $225 $224 $496 $500 forward $89 $-1 #
edge $-1 $356 -69.904477065340132 $498 69.904477065340132 $348 $501 forward 7 unknown #
coedge $-1 $361 $360 $225 $354 reversed $345 $-1 #
edge $-1 $502 -69.904477065340132 $355 69.904477065340132 $353 $503 forward 7 unknown #
vertex $-1 $227 $504 #
vertex $-1 $367 $505 #
straight-curve $-1 69.904477065340132 0 -11.702537746429597 0 -1 0 I I #
coedge $-1 $347 $349 $228 $359 reversed $221 $-1 #
edge $-1 $362 -44.723760988261894 $365 44.723760988261894 $358 $506 forward 7 unknown #
coedge $-1 $353 $229 $234 $368 forward $345 $-1 #
coedge $-1 $229 $353 $347 $497 reversed $345 $-1 #
vertex $-1 $230 $507 #
straight-curve $-1 0 44.723760988261894 11.702537746429597 -1 0 0 I I #
coedge $-1 $231 $348 $233 $367 reversed $138 $-1 #
vertex $-1 $359 $508 #
straight-curve $-1 0 -44.723760988261894 11.702537746429597 1 0 0 I I #
edge $-1 $236 -11.702537746429597 $356 11.702537746429597 $233 $509 forward 7 unknown #
edge $-1 $237 -11.702537746429597 $355 11.702537746429597 $234 $510 forward 7 unknown #
point $-1 69.904477065340132 -44.723760988261894 11.702537746429597 #
point $-1 69.904477065340132 44.723760988261894 11.702537746429597 #
face $-1 $-1 $254 $34 $-1 $511 reversed single #
loop $-1 $-1 $250 $239 #
plane-surface $-1 0 -44.723760988261894 0 0 1 0 0 0 1 forward_v I I I I #
coedge $-1 $512 $513 $247 $384 forward $240 $-1 #
coedge $-1 $385 $242 $244 $380 reversed $146 $-1 #
edge $-1 $382 0.94788021983345683 $255 6.8489706823187673 $253 $514 forward 7 unknown #
coedge $-1 $244 $243 $515 $516 reversed $93 $-1 #
coedge $-1 $389 $388 $243 $379 forward $372 $-1 #
edge $-1 $517 -69.904477065340132 $381 69.904477065340132 $378 $518 forward 7 unknown #
edge $-1 $519 -69.904477065340132 $382 69.904477065340132 $375 $520 forward 7 unknown #
vertex $-1 $379 $521 #
vertex $-1 $246 $522 #
straight-curve $-1 69.904477065340132 -20.221587876350764 4.8463056709095689 0 1 0 I I #
edge $-1 $390 -24.50217311191113 $386 -15.941002640790398 $374 $523 forward 7 unknown #
coedge $-1 $248 $375 $512 $524 reversed $146 $-1 #
vertex $-1 $384 $525 #
straight-curve $-1 0 -36.162590517141162 10.747396133394879 -1 0 0 I I #
coedge $-1 $378 $250 $513 $526 forward $372 $-1 #
coedge $-1 $250 $378 $252 $392 reversed $372 $-1 #
vertex $-1 $526 $527 #
straight-curve $-1 0 -44.723760988261894 10.747396133394879 -1 0 0 I I #
edge $-1 $256 -10.747396133394879 $381 -4.8463056709095689 $252 $528 forward 7 unknown #
point $-1 69.904477065340132 -36.162590517141162 10.747396133394879 #
point $-1 69.904477065340132 -44.723760988261894 10.747396133394879 #
face $-1 $-1 $412 $35 $-1 $529 reversed single #
loop $-1 $-1 $408 $258 #
plane-surface $-1 -69.904477065340132 0 0 1 0 0 0 0 -1 forward_v I I I I #
coedge $-1 $415 $261 $262 $402 reversed $154 $-1 #
coedge $-1 $408 $530 $261 $400 forward $396 $-1 #
edge $-1 $531 0.94788021983345683 $416 6.8489706823187673 $399 $532 forward 7 unknown #
coedge $-1 $263 $262 $530 $533 reversed $97 $-1 #
edge $-1 $405 -69.904477065340132 $531 69.904477065340132 $398 $534 forward 7 unknown #
coedge $-1 $411 $410 $263 $404 forward $412 $-1 #
edge $-1 $406 -69.904477065340132 $535 69.904477065340132 $403 $536 forward 7 unknown #
vertex $-1 $265 $537 #
vertex $-1 $404 $538 #
straight-curve $-1 69.904477065340132 20.221587876350764 4.8463056709095689 0 1 0 I I #
coedge $-1 $539 $399 $266 $409 forward $396 $-1 #
edge $-1 $416 15.941002640790398 $413 24.50217311191113 $408 $540 forward 7 unknown #
coedge $-1 $403 $267 $272 $419 forward $412 $-1 #
coedge $-1 $267 $403 $539 $541 reversed $412 $-1 #
loop $-1 $-1 $267 $395 #
vertex $-1 $541 $542 #
straight-curve $-1 0 44.723760988261894 10.747396133394879 1 0 0 I I #
coedge $-1 $269 $398 $271 $418 reversed $154 $-1 #
vertex $-1 $409 $543 #
straight-curve $-1 0 36.162590517141162 10.747396133394879 1 0 0 I I #
edge $-1 $274 -6.8489706823187673 $405 -0.94788021983345683 $271 $544 forward 7 unknown #
edge $-1 $273 -10.747396133394879 $406 -4.8463056709095689 $272 $545 forward 7 unknown #
point $-1 69.904477065340132 44.723760988261894 10.747396133394879 #
point $-1 69.904477065340132 36.162590517141162 10.747396133394879 #
loop $-1 $-1 $284 $276 #
plane-surface $-1 0 0 11.702537746429597 0 0 1 1 0 0 forward_v I I I I #
coedge $-1 $425 $279 $281 $429 reversed $162 $-1 #
coedge $-1 $279 $424 $546 $547 reversed $162 $-1 #
coedge $-1 $287 $282 $279 $427 forward $277 $-1 #
edge $-1 $430 -47.336560789971273 $548 -39.82075985297547 $426 $549 forward 7 unknown #
coedge $-1 $281 $280 $433 $550 reversed $101 $-1 #
edge $-1 $551 -10.628947493872987 $430 -2.0097183471152325e-014 $424 $552 forward 7 unknown #
vertex $-1 $283 $553 #
straight-curve $-1 -69.904477065340132 7.1129710949411837 4.1867368094337891 0 -1 0 I I #
coedge $-1 $546 $284 $287 $437 forward $422 $-1 #
coedge $-1 $284 $546 $428 $550 forward $422 $-1 #
vertex $-1 $285 $554 #
straight-curve $-1 -84.382168874384874 23.910170698102895 11.702537746429599 -1 0 0 I I #
straight-curve $-1 -69.904477065340146 23.910170698102895 4.186736809433782 0.70710677298230451 0 0.70710678939079041 I I #
edge $-1 $288 -23.910170698102895 $548 -4.5417136816618395 $287 $555 forward 7 unknown #
point $-1 -69.904477065340132 23.910170698102895 11.702537746429597 #
point $-1 -69.904477065340132 23.910170698102895 4.1867368094337962 #
edge $-1 $556 1 $556 0 $291 $-1 forward 7 unknown #
vertex $-1 $292 $557 #
ellipse-curve $-1 -63.437054473823153 14.225942189882367 5.2351151305848935 -0.70710678939079041 0 0.70710677298230451 1.414213545964609 0 1.4142135787815808 1 I I #
point $-1 -64.732363138080075 14.225942189882367 9.3588508567132607 #
plane-surface $-1 69.904477065340132 0 0 -1 0 0 0 0 1 forward_v I I I I #
coedge $-1 $455 $454 $447 $558 forward $296 $-1 #
coedge $-1 $447 $298 $300 $451 reversed $177 $-1 #
coedge $-1 $298 $446 $445 $558 reversed $177 $-1 #
coedge $-1 $306 $301 $298 $449 forward $307 $-1 #
edge $-1 $452 -96.420765945541362 $559 -89.114779908282443 $448 $560 forward 7 unknown #
coedge $-1 $300 $299 $455 $561 reversed $110 $-1 #
edge $-1 $562 130.12842780840336 $452 139.80895413068029 $446 $563 forward 7 unknown #
vertex $-1 $302 $564 #
straight-curve $-1 69.904477065340132 -2.6520741337997364 4.396551709170673 0 1 0 I I #
coedge $-1 $445 $303 $306 $459 forward $296 $-1 #
coedge $-1 $303 $445 $450 $561 forward $296 $-1 #
vertex $-1 $304 $565 #
straight-curve $-1 41.848354974711171 -10.608296535198953 11.702537746429599 1 0 0 I I #
straight-curve $-1 -21.818448292745472 -10.608296535198953 109.91170995133848 -0.65605901945558964 0 0.75470958851134928 I I #
edge $-1 $308 -10.608296535198953 $559 7.1054273576010019e-015 $306 $566 forward 7 unknown #
point $-1 69.904477065340132 -10.608296535198953 11.702537746429597 #
point $-1 69.904477065340132 -10.608296535198953 4.3965517091706801 #
edge $-1 $567 1 $567 0 $311 $-1 forward 7 unknown #
vertex $-1 $312 $568 #
ellipse-curve $-1 64.754830578065778 -7.5773546679992521 6.3334439368654056 0.75470958851134928 0 0.65605901945558964 0.65605901945558964 0 -0.75470958851134928 1 I I #
point $-1 67.385037781392214 -7.5773546679992521 7.2948351392887787 #
edge $-1 $569 1 $569 0 $315 $-1 forward 7 unknown #
vertex $-1 $316 $570 #
ellipse-curve $-1 64.754830578065778 -3.0309418671996937 6.3334439368654056 0.75470958851134928 0 0.65605901945558964 0.65605901945558964 0 -0.75470958851134928 1 I I #
point $-1 67.385037781392214 -3.0309418671996937 7.2948351392887787 #
plane-surface $-1 69.904477065340132 0 0 -1 0 0 0 0 1 forward_v I I I I #
coedge $-1 $476 $325 $483 $571 reversed $320 $-1 #
coedge $-1 $572 $322 $323 $474 forward $199 $-1 #
coedge $-1 $322 $572 $330 $484 forward $199 $-1 #
edge $-1 $480 -13.260370668998704 $477 -2.6520741337997435 $472 $573 forward 7 unknown #
edge $-1 $478 2.6520741337997435 $333 13.260370668998704 $331 $574 forward 7 unknown #
coedge $-1 $325 $471 $572 $575 reversed $320 $-1 #
vertex $-1 $474 $576 #
vertex $-1 $475 $577 #
straight-curve $-1 -21.818448292745472 7.1054273576010019e-015 109.91170995133848 0.65605901945558964 0 -0.75470958851134928 I I #
vertex $-1 $329 $578 #
straight-curve $-1 -21.818448292745472 10.608296535198967 109.91170995133848 0.65605901945558964 0 -0.75470958851134928 I I #
straight-curve $-1 41.848354974711171 10.608296535198967 11.702537746429599 -1 0 0 I I #
coedge $-1 $331 $330 $471 $571 forward $332 $-1 #
edge $-1 $579 7.1054273576010019e-015 $334 10.608296535198967 $330 $580 forward 7 unknown #
point $-1 69.904477065340132 10.608296535198967 4.3965517091706801 #
point $-1 69.904477065340132 10.608296535198967 11.702537746429597 #
edge $-1 $581 1 $581 0 $336 $-1 forward 7 unknown #
vertex $-1 $337 $582 #
ellipse-curve $-1 64.754830578065778 3.0309418671997079 6.3334439368654056 0.75470958851134928 0 0.65605901945558964 0.65605901945558964 0 -0.75470958851134928 1 I I #
point $-1 67.385037781392214 3.0309418671997079 7.2948351392887787 #
edge $-1 $583 1 $583 0 $340 $-1 forward 7 unknown #
vertex $-1 $341 $584 #
ellipse-curve $-1 64.754830578065778 7.5773546679992663 6.3334439368654056 0.75470958851134928 0 0.65605901945558964 0.65605901945558964 0 -0.75470958851134928 1 I I #
point $-1 67.385037781392214 7.5773546679992663 7.2948351392887787 #
plane-surface $-1 69.904477065340132 0 0 -1 0 0 0 0 1 forward_v I I I I #
coedge $-1 $349 $347 $351 $500 reversed $221 $-1 #
edge $-1 $362 -11.702537746429597 $502 11.702537746429597 $361 $585 forward 7 unknown #
vertex $-1 $500 $586 #
straight-curve $-1 -69.904477065340132 -44.723760988261894 0 0 0 -1 I I #
edge $-1 $498 -44.723760988261894 $502 44.723760988261894 $496 $587 forward 7 unknown #
straight-curve $-1 0 -44.723760988261894 -11.702537746429597 -1 0 0 I I #
vertex $-1 $354 $588 #
straight-curve $-1 0 44.723760988261894 -11.702537746429597 1 0 0 I I #
point $-1 69.904477065340132 44.723760988261894 -11.702537746429597 #
point $-1 69.904477065340132 -44.723760988261894 -11.702537746429597 #
straight-curve $-1 -69.904477065340132 0 11.702537746429597 0 -1 0 I I #
point $-1 -69.904477065340132 44.723760988261894 11.702537746429597 #
point $-1 -69.904477065340132 -44.723760988261894 11.702537746429597 #
straight-curve $-1 69.904477065340132 -44.723760988261894 0 0 0 -1 I I #
straight-curve $-1 69.904477065340132 44.723760988261894 0 0 0 -1 I I #
plane-surface $-1 69.904477065340132 0 0 -1 0 0 0 0 1 forward_v I I I I #
coedge $-1 $515 $374 $385 $524 forward $240 $-1 #
coedge $-1 $374 $515 $388 $526 reversed $240 $-1 #
straight-curve $-1 69.904477065340132 -36.162590517141162 3.898425451076112 0 0 1 I I #
coedge $-1 $513 $512 $377 $516 forward $240 $-1 #
edge $-1 $519 15.941002640790398 $517 24.50217311191113 $515 $589 forward 7 unknown #
vertex $-1 $379 $590 #
straight-curve $-1 0 -44.723760988261894 4.8463056709095689 1 0 0 I I #
vertex $-1 $516 $591 #
straight-curve $-1 0 -36.162590517141162 4.8463056709095689 1 0 0 I I #
point $-1 69.904477065340132 -44.723760988261894 4.8463056709095689 #
point $-1 69.904477065340132 -36.162590517141162 4.8463056709095689 #
straight-curve $-1 -69.904477065340132 -20.221587876350764 10.747396133394879 0 1 0 I I #
edge $-1 $386 -6.8489706823187673 $519 -0.94788021983345683 $512 $592 forward 7 unknown #
point $-1 -69.904477065340132 -36.162590517141162 10.747396133394879 #
edge $-1 $390 -10.747396133394879 $517 -4.8463056709095689 $513 $593 forward 7 unknown #
point $-1 -69.904477065340132 -44.723760988261894 10.747396133394879 #
straight-curve $-1 69.904477065340132 -44.723760988261894 0 0 0 -1 I I #
plane-surface $-1 0 44.723760988261894 0 0 -1 0 0 0 -1 forward_v I I I I #
coedge $-1 $399 $539 $401 $533 forward $396 $-1 #
vertex $-1 $533 $594 #
straight-curve $-1 -69.904477065340132 36.162590517141162 3.898425451076112 0 0 1 I I #
edge $-1 $535 -24.50217311191113 $531 -15.941002640790398 $530 $595 forward 7 unknown #
straight-curve $-1 0 36.162590517141162 4.8463056709095689 -1 0 0 I I #
vertex $-1 $404 $596 #
straight-curve $-1 0 44.723760988261894 4.8463056709095689 -1 0 0 I I #
point $-1 69.904477065340132 36.162590517141162 4.8463056709095689 #
point $-1 69.904477065340132 44.723760988261894 4.8463056709095689 #
coedge $-1 $530 $408 $411 $541 forward $396 $-1 #
straight-curve $-1 -69.904477065340132 20.221587876350764 10.747396133394879 0 1 0 I I #
edge $-1 $413 -10.747396133394879 $535 -4.8463056709095689 $411 $597 forward 7 unknown #
point $-1 -69.904477065340132 44.723760988261894 10.747396133394879 #
point $-1 -69.904477065340132 36.162590517141162 10.747396133394879 #
straight-curve $-1 69.904477065340132 36.162590517141162 3.898425451076112 0 0 -1 I I #
straight-curve $-1 69.904477065340132 44.723760988261894 0 0 0 -1 I I #
coedge $-1 $433 $432 $425 $547 forward $422 $-1 #
edge $-1 $548 14.477691809044742 $551 21.993492571635606 $546 $598 forward 7 unknown #
vertex $-1 $547 $599 #
straight-curve $-1 -69.904477065340132 4.5417136816618395 51.523297599405069 0 0 1 I I #
edge $-1 $551 -2.5712574132793442 $434 16.797199603161712 $433 $600 forward 7 unknown #
vertex $-1 $550 $601 #
straight-curve $-1 -69.904477065340146 4.5417136816618395 4.186736809433782 -0.70710677298230451 0 -0.70710678939079041 I I #
point $-1 -69.904477065340132 4.5417136816618395 4.1867368094337962 #
point $-1 -62.388676302749268 23.910170698102895 11.702537746429597 #
straight-curve $-1 -69.904477065340132 0 11.702537746429597 0 -1 0 I I #
vertex $-1 $440 $602 #
point $-1 -62.022840927858539 14.225942189882367 6.6493287093664746 #
edge $-1 $559 -28.056122090628961 $562 -21.705125483821931 $445 $603 forward 7 unknown #
vertex $-1 $449 $604 #
straight-curve $-1 69.904477065340132 7.1054273576010019e-015 100.81731765471204 0 0 1 I I #
edge $-1 $562 -2.6520741337997435 $456 7.9562224013992164 $455 $605 forward 7 unknown #
vertex $-1 $561 $606 #
straight-curve $-1 -21.818448292745472 7.1054273576010019e-015 109.91170995133848 0.65605901945558964 0 -0.75470958851134928 I I #
point $-1 69.904477065340132 7.1054273576010019e-015 4.3965517091706801 #
point $-1 63.553480458533102 -10.608296535198953 11.702537746429584 #
straight-curve $-1 69.904477065340132 0 11.702537746429597 0 1 0 I I #
vertex $-1 $462 $607 #
point $-1 65.410889597521361 -7.5773546679992521 5.5787343483540566 #
vertex $-1 $466 $608 #
point $-1 65.410889597521361 -3.0309418671996937 5.5787343483540566 #
edge $-1 $579 89.114779908282443 $478 96.420765945541362 $483 $609 forward 7 unknown #
coedge $-1 $473 $472 $476 $575 forward $199 $-1 #
straight-curve $-1 63.553480458533087 -2.6520741337997364 11.702537746429584 0 -1 0 I I #
straight-curve $-1 69.904477065340132 -2.6520741337997364 4.396551709170673 0 1 0 I I #
edge $-1 $477 21.705125483821931 $579 28.056122090628961 $572 $610 forward 7 unknown #
point $-1 63.553480458533102 7.1054273576010019e-015 11.702537746429584 #
point $-1 69.904477065340132 7.1054273576010019e-015 4.3965517091706801 #
point $-1 63.553480458533102 10.608296535198967 11.702537746429584 #
vertex $-1 $484 $611 #
straight-curve $-1 69.904477065340132 0 11.702537746429597 0 1 0 I I #
vertex $-1 $487 $612 #
point $-1 65.410889597521361 3.0309418671997079 5.5787343483540566 #
vertex $-1 $491 $613 #
point $-1 65.410889597521361 7.5773546679992663 5.5787343483540566 #
straight-curve $-1 -69.904477065340132 44.723760988261894 0 0 0 -1 I I #
point $-1 -69.904477065340132 -44.723760988261894 -11.702537746429597 #
straight-curve $-1 -69.904477065340132 0 -11.702537746429597 0 1 0 I I #
point $-1 -69.904477065340132 44.723760988261894 -11.702537746429597 #
straight-curve $-1 -69.904477065340132 -20.221587876350764 4.8463056709095689 0 -1 0 I I #
point $-1 -69.904477065340132 -44.723760988261894 4.8463056709095689 #
point $-1 -69.904477065340132 -36.162590517141162 4.8463056709095689 #
straight-curve $-1 -69.904477065340132 -36.162590517141162 3.898425451076112 0 0 -1 I I #
straight-curve $-1 -69.904477065340132 -44.723760988261894 0 0 0 -1 I I #
point $-1 -69.904477065340132 36.162590517141162 4.8463056709095689 #
straight-curve $-1 -69.904477065340132 20.221587876350764 4.8463056709095689 0 -1 0 I I #
point $-1 -69.904477065340132 44.723760988261894 4.8463056709095689 #
straight-curve $-1 -69.904477065340132 44.723760988261894 0 0 0 -1 I I #
straight-curve $-1 -84.382168874384874 4.5417136816618395 11.702537746429599 1 0 0 I I #
point $-1 -69.904477065340132 4.5417136816618395 11.702537746429597 #
straight-curve $-1 -62.388676302749268 7.1129710949411837 11.702537746429597 0 1 0 I I #
point $-1 -62.388676302749268 4.5417136816618395 11.702537746429597 #
point $-1 -62.022840895041568 14.225942189882367 3.8209015846202847 #
straight-curve $-1 41.848354974711171 7.1054273576010019e-015 11.702537746429599 -1 0 0 I I #
point $-1 69.904477065340132 7.1054273576010019e-015 11.702537746429597 #
straight-curve $-1 63.553480458533087 -2.6520741337997364 11.702537746429584 0 -1 0 I I #
point $-1 63.553480458533102 7.1054273576010019e-015 11.702537746429584 #
point $-1 64.000120989554418 -7.5773546679992521 5.6773849174098157 #
point $-1 64.000120989554418 -3.0309418671996937 5.6773849174098157 #
straight-curve $-1 69.904477065340132 7.1054273576010019e-015 100.81731765471204 0 0 -1 I I #
straight-curve $-1 41.848354974711171 7.1054273576010019e-015 11.702537746429599 1 0 0 I I #
point $-1 69.904477065340132 7.1054273576010019e-015 11.702537746429597 #
point $-1 64.000120989554418 3.0309418671997079 5.6773849174098157 #
point $-1 64.000120989554418 7.5773546679992663 5.6773849174098157 #
End-of-ACIS-data 