500 0 9 0           
7 Unknown 11 ACIS 5.0 NT 24 Fri Mar 26 19:03:13 1999 
-1 9.9999999999999995e-007 1e-010 
body $-1 $9 $-1 $10 #
body $-1 $11 $-1 $12 #
body $-1 $13 $-1 $14 #
body $-1 $15 $-1 $16 #
body $-1 $17 $-1 $18 #
body $-1 $19 $-1 $20 #
body $-1 $21 $-1 $22 #
body $-1 $23 $-1 $24 #
body $-1 $25 $-1 $26 #
lump $-1 $-1 $27 $0 #
transform $-1 1 0 0 0 1 0 0 0 1 70.074159978026671 30.117325204338194 12.355024426914701 1 rotate no_reflect no_shear #
lump $-1 $-1 $28 $1 #
transform $-1 1 0 0 0 1 0 0 0 1 70.074159978026671 30.117325204338194 12.355024426914701 1 rotate no_reflect no_shear #
lump $-1 $-1 $29 $2 #
transform $-1 1 0 0 0 1 0 0 0 1 70.074159978026671 30.117325204338194 12.355024426914701 1 rotate no_reflect no_shear #
lump $-1 $-1 $30 $3 #
transform $-1 1 0 0 0 1 0 0 0 1 70.074159978026671 30.117325204338194 12.355024426914701 1 rotate no_reflect no_shear #
lump $-1 $-1 $31 $4 #
transform $-1 1 0 0 0 1 0 0 0 1 70.074159978026671 30.117325204338194 12.355024426914701 1 rotate no_reflect no_shear #
lump $-1 $-1 $32 $5 #
transform $-1 1 0 0 0 1 0 0 0 1 70.074159978026671 30.117325204338194 12.355024426914701 1 rotate no_reflect no_shear #
lump $-1 $-1 $33 $6 #
transform $-1 1 0 0 0 1 0 0 0 1 70.074159978026671 30.117325204338194 12.355024426914701 1 rotate no_reflect no_shear #
lump $-1 $-1 $34 $7 #
transform $-1 1 0 0 0 1 0 0 0 1 70.074159978026671 30.117325204338194 12.355024426914701 1 rotate no_reflect no_shear #
lump $-1 $-1 $35 $8 #
transform $-1 1 0 0 0 1 0 0 0 1 70.074159978026671 30.117325204338194 12.355024426914701 1 rotate no_reflect no_shear #
shell $-1 $-1 $-1 $36 $-1 $9 #
shell $-1 $-1 $-1 $37 $-1 $11 #
shell $-1 $-1 $-1 $38 $-1 $13 #
shell $-1 $-1 $-1 $39 $-1 $15 #
shell $-1 $-1 $-1 $40 $-1 $17 #
shell $-1 $-1 $-1 $41 $-1 $19 #
shell $-1 $-1 $-1 $42 $-1 $21 #
shell $-1 $-1 $-1 $43 $-1 $23 #
shell $-1 $-1 $-1 $44 $-1 $25 #
face $-1 $45 $46 $27 $-1 $47 forward single #
face $-1 $48 $49 $28 $-1 $50 forward single #
face $-1 $51 $52 $29 $-1 $53 forward single #
face $-1 $54 $55 $30 $-1 $56 reversed single #
face $-1 $57 $58 $31 $-1 $59 forward single #
face $-1 $60 $61 $32 $-1 $62 reversed single #
face $-1 $63 $64 $33 $-1 $65 forward single #
face $-1 $66 $67 $34 $-1 $68 forward single #
face $-1 $69 $70 $35 $-1 $71 forward single #
face $-1 $72 $73 $27 $-1 $74 reversed single #
loop $-1 $-1 $75 $36 #
plane-surface $-1 0 0 12.355024426914701 0 0 1 1 0 0 forward_v I I I I #
face $-1 $76 $77 $28 $-1 $78 forward single #
loop $-1 $-1 $79 $37 #
plane-surface $-1 0 -30.117325204338194 0 0 1 0 0 0 1 forward_v I I I I #
face $-1 $80 $81 $29 $-1 $82 reversed single #
loop $-1 $-1 $83 $38 #
plane-surface $-1 0 30.117325204338194 0 0 -1 0 0 0 -1 forward_v I I I I #
face $-1 $84 $85 $30 $-1 $86 reversed single #
loop $-1 $-1 $87 $39 #
plane-surface $-1 -165.65508548995263 -3.6862266588376897 109.21583949601469 0 1 0 -0.68199836817093118 0 0.7313536940579346 forward_v I I I I #
face $-1 $88 $89 $31 $-1 $90 forward single #
loop $-1 $91 $92 $40 #
cone-surface $-1 -65.899921959982194 0.37685999548877192 8.3014189265457432 0.68199836817093118 0 -0.7313536940579346 1.0970305410869019 0 1.0229975522563968 1 I I 0 1 1.5 forward I I I I #
face $-1 $93 $94 $32 $-1 $95 reversed single #
loop $-1 $-1 $96 $41 #
plane-surface $-1 39.068904821264667 -6.177260332954722 197.83394165324992 0 -1 0 -0.5877852598018023 0 -0.80901698891910034 forward_v I I I I #
face $-1 $97 $98 $33 $-1 $99 forward single #
loop $-1 $100 $101 $42 #
cone-surface $-1 62.579886848651341 -12.471737277411204 6.6376534350134158 -0.5877852598018023 0 -0.80901698891910034 0.40450849445955017 0 -0.29389262990090115 1 I I 0 1 0.5 forward I I I I #
face $-1 $102 $103 $34 $-1 $104 forward single #
loop $-1 $105 $106 $43 #
cone-surface $-1 62.579886848651341 -10.111308423240022 6.6376534350134158 -0.5877852598018023 0 -0.80901698891910034 0.40450849445955017 0 -0.29389262990090115 1 I I 0 1 0.5 forward I I I I #
face $-1 $107 $108 $35 $-1 $109 forward single #
loop $-1 $110 $111 $44 #
cone-surface $-1 62.579886848651341 -7.7508795690688395 6.6376534350134158 -0.5877852598018023 0 -0.80901698891910034 0.40450849445955017 0 -0.29389262990090115 1 I I 0 1 0.5 forward I I I I #
face $-1 $112 $113 $27 $-1 $114 reversed single #
loop $-1 $-1 $115 $45 #
plane-surface $-1 0 0 -12.355024426914701 0 0 1 1 0 0 forward_v I I I I #
coedge $-1 $116 $117 $118 $119 forward $46 $-1 #
face $-1 $120 $121 $28 $-1 $122 reversed single #
loop $-1 $-1 $123 $48 #
plane-surface $-1 0 0 12.355024426914701 0 0 1 1 0 0 forward_v I I I I #
coedge $-1 $124 $125 $126 $127 forward $49 $-1 #
face $-1 $128 $129 $29 $-1 $130 reversed single #
loop $-1 $-1 $131 $51 #
plane-surface $-1 70.074159978026671 0 0 -1 0 0 0 0 1 forward_v I I I I #
coedge $-1 $132 $133 $134 $135 forward $52 $-1 #
face $-1 $136 $137 $30 $-1 $138 reversed single #
loop $-1 $-1 $139 $54 #
plane-surface $-1 -70.074159978026699 0.37685999548877192 6.7178479801417268 -0.68199836817093118 0 0.7313536940579346 0.7313536940579346 0 0.68199836817093118 forward_v I I I I #
coedge $-1 $140 $141 $142 $143 reversed $55 $-1 #
face $-1 $-1 $144 $31 $-1 $145 forward single #
loop $-1 $146 $147 $57 #
cone-surface $-1 -64.236750915827926 0.37685999548877192 6.5178863790198331 0.68199836817093118 0 -0.7313536940579346 0.54851527054345095 0 0.51149877612819838 1 I I -0.70710678118654757 0.70710678118654757 0.75 forward I I I I #
loop $-1 $-1 $148 $40 #
coedge $-1 $92 $92 $149 $150 reversed $58 $-1 #
face $-1 $151 $152 $32 $-1 $153 reversed single #
loop $-1 $-1 $154 $60 #
plane-surface $-1 -43.308211834890258 -10.111308423240025 84.451569840332994 0.5877852598018023 0 0.80901698891910034 0.80901698891910034 0 -0.5877852598018023 forward_v I I I I #
coedge $-1 $155 $156 $157 $158 reversed $61 $-1 #
face $-1 $-1 $159 $33 $-1 $160 forward single #
loop $-1 $161 $162 $63 #
cone-surface $-1 62.013663461534918 -12.471737277411204 5.8583138172506839 -0.5877852598018023 0 -0.80901698891910034 0.20225424722977509 0 -0.14694631495045057 1 I I -0.70710678118654746 0.70710678118654746 0.25 forward I I I I #
loop $-1 $-1 $163 $42 #
coedge $-1 $101 $101 $164 $165 reversed $64 $-1 #
face $-1 $-1 $166 $34 $-1 $167 forward single #
loop $-1 $168 $169 $66 #
cone-surface $-1 62.013663461534918 -10.111308423240022 5.8583138172506839 -0.5877852598018023 0 -0.80901698891910034 0.20225424722977509 0 -0.14694631495045057 1 I I -0.70710678118654746 0.70710678118654746 0.25 forward I I I I #
loop $-1 $-1 $170 $43 #
coedge $-1 $106 $106 $171 $172 reversed $67 $-1 #
face $-1 $-1 $173 $35 $-1 $174 forward single #
loop $-1 $175 $176 $69 #
cone-surface $-1 62.013663461534918 -7.7508795690688395 5.8583138172506839 -0.5877852598018023 0 -0.80901698891910034 0.20225424722977509 0 -0.14694631495045057 1 I I -0.70710678118654746 0.70710678118654746 0.25 forward I I I I #
loop $-1 $-1 $177 $44 #
coedge $-1 $111 $111 $178 $179 reversed $70 $-1 #
face $-1 $180 $181 $27 $-1 $182 reversed single #
loop $-1 $-1 $183 $72 #
plane-surface $-1 0 -30.117325204338194 0 0 1 0 0 0 1 forward_v I I I I #
coedge $-1 $184 $185 $186 $187 forward $73 $-1 #
coedge $-1 $188 $75 $189 $190 forward $46 $-1 #
coedge $-1 $75 $188 $191 $192 forward $46 $-1 #
coedge $-1 $193 $194 $75 $119 reversed $195 $-1 #
edge $-1 $196 -30.117325204338194 $197 30.117325204338194 $118 $198 forward 7 unknown #
face $-1 $199 $200 $28 $-1 $201 reversed single #
loop $-1 $-1 $202 $76 #
plane-surface $-1 -70.074159978026671 0 0 1 0 0 0 0 -1 forward_v I I I I #
coedge $-1 $203 $204 $205 $206 forward $77 $-1 #
coedge $-1 $205 $79 $202 $207 reversed $49 $-1 #
coedge $-1 $79 $205 $208 $209 reversed $49 $-1 #
coedge $-1 $210 $211 $79 $127 reversed $200 $-1 #
edge $-1 $212 -70.074159978026671 $213 70.074159978026671 $126 $214 forward 7 unknown #
face $-1 $215 $216 $29 $-1 $217 reversed single #
loop $-1 $-1 $218 $80 #
plane-surface $-1 0 38.153309549744627 8.5115323161535006 0 0 1 1 0 0 forward_v I I I I #
coedge $-1 $219 $220 $132 $221 forward $81 $-1 #
coedge $-1 $222 $83 $131 $221 reversed $52 $-1 #
coedge $-1 $83 $222 $223 $224 reversed $52 $-1 #
coedge $-1 $225 $218 $83 $135 reversed $129 $-1 #
edge $-1 $226 -70.074159978026671 $227 70.074159978026671 $134 $228 forward 7 unknown #
face $-1 $229 $230 $30 $-1 $231 reversed single #
loop $-1 $-1 $232 $84 #
plane-surface $-1 -165.65508548995263 4.4399466498152336 109.21583949601469 0 -1 0 0.68199836817093118 0 -0.7313536940579346 forward_v I I I I #
coedge $-1 $233 $234 $235 $236 reversed $85 $-1 #
coedge $-1 $141 $87 $237 $238 reversed $55 $-1 #
coedge $-1 $87 $140 $233 $239 reversed $55 $-1 #
coedge $-1 $235 $240 $87 $143 forward $241 $-1 #
edge $-1 $242 12.753382766949642 $243 18.798514266986416 $142 $244 forward 7 unknown #
loop $-1 $-1 $149 $88 #
plane-surface $-1 -70.074159978026699 0.37685999548877192 6.7178479801417268 -0.68199836817093118 0 0.7313536940579346 0.7313536940579346 0 0.68199836817093118 forward_v I I I I #
loop $-1 $-1 $245 $57 #
coedge $-1 $147 $147 $148 $246 reversed $89 $-1 #
coedge $-1 $148 $148 $147 $246 forward $91 $-1 #
coedge $-1 $149 $149 $92 $150 forward $144 $-1 #
edge $-1 $247 0 $247 6.2831853071796004 $149 $248 forward 7 unknown #
face $-1 $249 $250 $32 $-1 $251 forward single #
loop $-1 $-1 $252 $93 #
plane-surface $-1 39.068904821264667 -14.045356513525329 197.83394165324992 0 1 0 0.5877852598018023 0 0.80901698891910034 forward_v I I I I #
coedge $-1 $253 $254 $255 $256 reversed $94 $-1 #
coedge $-1 $156 $96 $257 $258 reversed $61 $-1 #
coedge $-1 $96 $155 $253 $259 reversed $61 $-1 #
coedge $-1 $255 $260 $96 $158 forward $250 $-1 #
edge $-1 $261 -50.539707567394338 $262 -36.389715452975587 $157 $263 forward 7 unknown #
loop $-1 $-1 $164 $97 #
plane-surface $-1 -43.308211834890258 -10.111308423240025 84.451569840332994 0.5877852598018023 0 0.80901698891910034 0.80901698891910034 0 -0.5877852598018023 forward_v I I I I #
loop $-1 $-1 $264 $63 #
coedge $-1 $162 $162 $163 $265 reversed $98 $-1 #
coedge $-1 $163 $163 $162 $265 forward $100 $-1 #
coedge $-1 $164 $164 $101 $165 forward $159 $-1 #
edge $-1 $266 0 $266 6.2831853071796004 $164 $267 forward 7 unknown #
loop $-1 $-1 $171 $102 #
plane-surface $-1 -43.308211834890258 -10.111308423240025 84.451569840332994 0.5877852598018023 0 0.80901698891910034 0.80901698891910034 0 -0.5877852598018023 forward_v I I I I #
loop $-1 $-1 $268 $66 #
coedge $-1 $169 $169 $170 $269 reversed $103 $-1 #
coedge $-1 $170 $170 $169 $269 forward $105 $-1 #
coedge $-1 $171 $171 $106 $172 forward $166 $-1 #
edge $-1 $270 0 $270 6.2831853071796004 $171 $271 forward 7 unknown #
loop $-1 $-1 $178 $107 #
plane-surface $-1 -43.308211834890258 -10.111308423240025 84.451569840332994 0.5877852598018023 0 0.80901698891910034 0.80901698891910034 0 -0.5877852598018023 forward_v I I I I #
loop $-1 $-1 $272 $69 #
coedge $-1 $176 $176 $177 $273 reversed $108 $-1 #
coedge $-1 $177 $177 $176 $273 forward $110 $-1 #
coedge $-1 $178 $178 $111 $179 forward $173 $-1 #
edge $-1 $274 0 $274 6.2831853071796004 $178 $275 forward 7 unknown #
face $-1 $276 $277 $27 $-1 $278 reversed single #
loop $-1 $-1 $279 $112 #
plane-surface $-1 -70.074159978026671 0 0 1 0 0 0 0 -1 forward_v I I I I #
coedge $-1 $280 $191 $281 $282 forward $113 $-1 #
coedge $-1 $283 $115 $280 $284 forward $73 $-1 #
coedge $-1 $115 $283 $285 $286 forward $73 $-1 #
coedge $-1 $194 $193 $115 $187 reversed $195 $-1 #
edge $-1 $287 -30.117325204338194 $288 30.117325204338194 $186 $289 forward 7 unknown #
coedge $-1 $117 $116 $290 $291 forward $46 $-1 #
coedge $-1 $292 $293 $116 $190 reversed $277 $-1 #
edge $-1 $197 -70.074159978026671 $294 70.074159978026671 $189 $295 forward 7 unknown #
coedge $-1 $183 $296 $117 $192 reversed $113 $-1 #
edge $-1 $297 -70.074159978026671 $196 70.074159978026671 $191 $298 forward 7 unknown #
coedge $-1 $186 $118 $296 $299 forward $195 $-1 #
coedge $-1 $118 $186 $292 $300 reversed $195 $-1 #
loop $-1 $-1 $193 $276 #
vertex $-1 $119 $301 #
vertex $-1 $119 $302 #
straight-curve $-1 70.074159978026671 0 12.355024426914701 0 1 0 I I #
face $-1 $303 $304 $28 $-1 $305 reversed single #
loop $-1 $-1 $210 $120 #
plane-surface $-1 0 -38.153309549744627 8.5115323161535006 0 0 1 1 0 0 forward_v I I I I #
coedge $-1 $306 $307 $124 $207 forward $121 $-1 #
coedge $-1 $308 $123 $307 $309 forward $77 $-1 #
coedge $-1 $123 $308 $310 $311 forward $77 $-1 #
coedge $-1 $125 $124 $123 $206 reversed $49 $-1 #
edge $-1 $312 -70.074159978026671 $313 70.074159978026671 $123 $314 forward 7 unknown #
edge $-1 $313 -12.355024426914701 $213 -8.5115323161535006 $202 $315 forward 7 unknown #
coedge $-1 $310 $316 $125 $209 forward $317 $-1 #
edge $-1 $212 8.5115323161535006 $312 12.355024426914701 $208 $318 forward 7 unknown #
coedge $-1 $319 $126 $316 $320 forward $200 $-1 #
coedge $-1 $126 $319 $306 $321 forward $200 $-1 #
vertex $-1 $209 $322 #
vertex $-1 $207 $323 #
straight-curve $-1 0 -30.117325204338194 8.5115323161535006 -1 0 0 I I #
face $-1 $324 $325 $29 $-1 $326 forward single #
loop $-1 $-1 $327 $128 #
plane-surface $-1 0 46.18929389515106 10.433278371534103 0 -1 0 0 0 -1 forward_v I I I I #
coedge $-1 $134 $328 $219 $329 forward $129 $-1 #
coedge $-1 $330 $131 $218 $329 reversed $81 $-1 #
coedge $-1 $131 $330 $331 $332 reversed $81 $-1 #
edge $-1 $333 -12.355024426914701 $227 -8.5115323161535006 $131 $334 forward 7 unknown #
coedge $-1 $133 $132 $335 $336 reversed $52 $-1 #
coedge $-1 $337 $338 $133 $224 forward $339 $-1 #
edge $-1 $226 8.5115323161535006 $340 12.355024426914701 $223 $341 forward 7 unknown #
coedge $-1 $328 $134 $338 $342 forward $129 $-1 #
vertex $-1 $224 $343 #
vertex $-1 $221 $344 #
straight-curve $-1 0 30.117325204338194 8.5115323161535006 1 0 0 I I #
face $-1 $-1 $241 $30 $-1 $345 forward single #
loop $-1 $-1 $346 $136 #
plane-surface $-1 -70.074159978026671 0 0 1 0 0 0 0 -1 forward_v I I I I #
coedge $-1 $347 $348 $349 $350 reversed $137 $-1 #
coedge $-1 $351 $139 $141 $239 forward $85 $-1 #
coedge $-1 $139 $351 $347 $352 forward $85 $-1 #
coedge $-1 $349 $142 $139 $236 forward $241 $-1 #
edge $-1 $243 -3.8746566565820757 $353 4.2515166520708476 $235 $354 forward 7 unknown #
coedge $-1 $355 $356 $140 $238 forward $230 $-1 #
edge $-1 $357 -47.890071767865592 $242 -42.252895321092645 $237 $358 forward 7 unknown #
edge $-1 $243 -8.265674391408675 $357 -3.8958409169770864e-014 $141 $359 forward 7 unknown #
coedge $-1 $142 $349 $355 $360 forward $241 $-1 #
loop $-1 $-1 $349 $229 #
vertex $-1 $238 $361 #
vertex $-1 $143 $362 #
straight-curve $-1 -82.827542744976313 -3.6862266588376897 12.355024426914703 1 0 0 I I #
coedge $-1 $245 $245 $-1 $363 reversed $146 $-1 #
edge $-1 $364 0 $364 6.2831853071796004 $147 $365 forward 7 unknown #
vertex $-1 $150 $366 #
ellipse-curve $-1 -67.051594228008284 0.37685999548877192 9.5364362035282255 -0.68199836817093118 0 0.7313536940579346 1.0970305410869019 0 1.0229975522563968 1 I I #
face $-1 $-1 $367 $32 $-1 $368 reversed single #
loop $-1 $-1 $157 $151 #
plane-surface $-1 0 0 12.355024426914701 0 0 1 1 0 0 forward_v I I I I #
coedge $-1 $369 $370 $371 $372 reversed $152 $-1 #
coedge $-1 $373 $154 $156 $259 forward $94 $-1 #
coedge $-1 $154 $373 $369 $374 forward $94 $-1 #
coedge $-1 $371 $157 $154 $256 forward $250 $-1 #
edge $-1 $262 1.1216061213347093 $375 8.9897023019053162 $255 $376 forward 7 unknown #
coedge $-1 $377 $378 $155 $258 forward $367 $-1 #
edge $-1 $379 -96.842517642446893 $261 -86.561946399710266 $257 $380 forward 7 unknown #
edge $-1 $262 122.65796770359438 $379 140.14831995605334 $156 $381 forward 7 unknown #
coedge $-1 $157 $371 $377 $382 forward $250 $-1 #
vertex $-1 $258 $383 #
vertex $-1 $158 $384 #
straight-curve $-1 19.534452410632333 -6.177260332954722 12.355024426914696 -1 0 0 I I #
coedge $-1 $264 $264 $-1 $385 reversed $161 $-1 #
edge $-1 $386 0 $386 6.2831853071796004 $162 $387 forward 7 unknown #
vertex $-1 $165 $388 #
ellipse-curve $-1 62.999163920817317 -12.471737277411204 7.2147388055463724 0.5877852598018023 0 0.80901698891910034 0.40450849445955017 0 -0.29389262990090115 1 I I #
coedge $-1 $268 $268 $-1 $389 reversed $168 $-1 #
edge $-1 $390 0 $390 6.2831853071796004 $169 $391 forward 7 unknown #
vertex $-1 $172 $392 #
ellipse-curve $-1 62.999163920817317 -10.111308423240022 7.2147388055463724 0.5877852598018023 0 0.80901698891910034 0.40450849445955017 0 -0.29389262990090115 1 I I #
coedge $-1 $272 $272 $-1 $393 reversed $175 $-1 #
edge $-1 $394 0 $394 6.2831853071796004 $176 $395 forward 7 unknown #
vertex $-1 $179 $396 #
ellipse-curve $-1 62.999163920817317 -7.7508795690688395 7.2147388055463724 0.5877852598018023 0 0.80901698891910034 0.40450849445955017 0 -0.29389262990090115 1 I I #
face $-1 $-1 $195 $27 $-1 $397 reversed single #
loop $-1 $-1 $292 $180 #
plane-surface $-1 0 30.117325204338194 0 0 -1 0 0 0 -1 forward_v I I I I #
coedge $-1 $398 $290 $293 $399 forward $181 $-1 #
coedge $-1 $296 $183 $184 $284 reversed $113 $-1 #
coedge $-1 $290 $398 $183 $282 reversed $181 $-1 #
edge $-1 $297 -12.355024426914701 $400 12.355024426914701 $281 $401 forward 7 unknown #
coedge $-1 $185 $184 $398 $402 forward $73 $-1 #
edge $-1 $288 -70.074159978026671 $400 70.074159978026671 $280 $403 forward 7 unknown #
coedge $-1 $293 $292 $185 $286 reversed $277 $-1 #
edge $-1 $404 -70.074159978026671 $287 70.074159978026671 $285 $405 forward 7 unknown #
vertex $-1 $187 $406 #
vertex $-1 $299 $407 #
straight-curve $-1 70.074159978026671 0 -12.355024426914701 0 -1 0 I I #
coedge $-1 $279 $281 $188 $291 reversed $181 $-1 #
edge $-1 $294 -30.117325204338194 $297 30.117325204338194 $290 $408 forward 7 unknown #
coedge $-1 $285 $189 $194 $300 forward $277 $-1 #
coedge $-1 $189 $285 $279 $399 reversed $277 $-1 #
vertex $-1 $190 $409 #
straight-curve $-1 0 30.117325204338194 12.355024426914701 -1 0 0 I I #
coedge $-1 $191 $280 $193 $299 reversed $113 $-1 #
vertex $-1 $291 $410 #
straight-curve $-1 0 -30.117325204338194 12.355024426914701 1 0 0 I I #
edge $-1 $196 -12.355024426914701 $288 12.355024426914701 $193 $411 forward 7 unknown #
edge $-1 $197 -12.355024426914701 $287 12.355024426914701 $194 $412 forward 7 unknown #
point $-1 70.074159978026671 -30.117325204338194 12.355024426914701 #
point $-1 70.074159978026671 30.117325204338194 12.355024426914701 #
face $-1 $-1 $317 $28 $-1 $413 reversed single #
loop $-1 $-1 $414 $199 #
plane-surface $-1 0 -46.18929389515106 10.433278371534103 0 1 0 0 0 1 forward_v I I I I #
coedge $-1 $415 $202 $211 $321 reversed $121 $-1 #
coedge $-1 $202 $415 $203 $309 reversed $121 $-1 #
coedge $-1 $204 $203 $416 $417 forward $77 $-1 #
edge $-1 $313 30.117325204338194 $418 46.18929389515106 $307 $419 forward 7 unknown #
coedge $-1 $420 $208 $204 $311 reversed $317 $-1 #
edge $-1 $421 -46.18929389515106 $312 -30.117325204338194 $310 $422 forward 7 unknown #
vertex $-1 $209 $423 #
vertex $-1 $309 $424 #
straight-curve $-1 0 -30.117325204338194 12.355024426914701 -1 0 0 I I #
straight-curve $-1 -70.074159978026671 -30.117325204338194 0 0 0 -1 I I #
coedge $-1 $208 $420 $210 $320 reversed $317 $-1 #
loop $-1 $-1 $208 $303 #
straight-curve $-1 70.074159978026671 -30.117325204338194 0 0 0 1 I I #
coedge $-1 $211 $210 $425 $426 forward $200 $-1 #
edge $-1 $212 -8.0359843454064332 $427 8.0359843454064332 $316 $428 forward 7 unknown #
edge $-1 $429 -8.0359843454064332 $213 8.0359843454064332 $306 $430 forward 7 unknown #
point $-1 70.074159978026671 -30.117325204338194 8.5115323161535006 #
point $-1 -70.074159978026671 -30.117325204338194 8.5115323161535006 #
face $-1 $-1 $339 $29 $-1 $431 reversed single #
loop $-1 $-1 $335 $215 #
plane-surface $-1 0 0 12.355024426914701 0 0 1 1 0 0 forward_v I I I I #
coedge $-1 $432 $433 $330 $434 forward $216 $-1 #
coedge $-1 $218 $225 $432 $435 forward $129 $-1 #
edge $-1 $436 -8.0359843454064332 $227 8.0359843454064332 $219 $437 forward 7 unknown #
coedge $-1 $220 $219 $327 $434 reversed $81 $-1 #
coedge $-1 $438 $335 $220 $332 forward $325 $-1 #
edge $-1 $333 30.117325204338194 $439 46.18929389515106 $220 $440 forward 7 unknown #
vertex $-1 $332 $441 #
straight-curve $-1 70.074159978026671 30.117325204338194 0 0 0 -1 I I #
coedge $-1 $331 $442 $222 $336 forward $325 $-1 #
edge $-1 $340 -70.074159978026671 $333 70.074159978026671 $335 $443 forward 7 unknown #
coedge $-1 $444 $223 $442 $445 reversed $339 $-1 #
coedge $-1 $223 $444 $225 $342 reversed $339 $-1 #
loop $-1 $-1 $223 $324 #
vertex $-1 $224 $446 #
straight-curve $-1 -70.074159978026671 30.117325204338194 0 0 0 1 I I #
edge $-1 $226 -8.0359843454064332 $447 8.0359843454064332 $338 $448 forward 7 unknown #
point $-1 -70.074159978026671 30.117325204338194 8.5115323161535006 #
point $-1 70.074159978026671 30.117325204338194 8.5115323161535006 #
plane-surface $-1 0 0 12.355024426914701 0 0 1 1 0 0 forward_v I I I I #
coedge $-1 $356 $355 $348 $449 forward $230 $-1 #
coedge $-1 $348 $232 $234 $352 reversed $137 $-1 #
coedge $-1 $232 $347 $346 $449 reversed $137 $-1 #
coedge $-1 $240 $235 $232 $350 forward $241 $-1 #
edge $-1 $353 -18.798514266986416 $450 -12.753382766949642 $349 $451 forward 7 unknown #
coedge $-1 $234 $233 $356 $452 reversed $85 $-1 #
edge $-1 $453 3.8958409169770864e-014 $353 8.265674391408675 $347 $454 forward 7 unknown #
vertex $-1 $236 $455 #
straight-curve $-1 -64.029028477989897 0.18842999774438596 12.355024426914703 0 1 0 I I #
coedge $-1 $346 $237 $240 $360 reversed $230 $-1 #
coedge $-1 $237 $346 $351 $452 forward $230 $-1 #
vertex $-1 $238 $456 #
straight-curve $-1 -70.074159978026671 -3.6862266588376897 54.607919748007347 0 0 1 I I #
straight-curve $-1 -70.074159978026699 -3.6862266588376897 6.7178479801417268 -0.7313536940579346 0 -0.68199836817093118 I I #
edge $-1 $450 -4.4399466498152336 $242 3.6862266588376897 $355 $457 forward 7 unknown #
point $-1 -70.074159978026671 -3.6862266588376897 12.355024426914701 #
point $-1 -64.029028477989897 -3.6862266588376897 12.355024426914701 #
edge $-1 $458 1 $458 0 $245 $-1 forward 7 unknown #
vertex $-1 $246 $459 #
ellipse-curve $-1 -64.748249691956119 0.37685999548877192 7.066401649563284 -0.68199836817093118 0 0.7313536940579346 1.0970305410869019 0 1.0229975522563968 1 I I #
point $-1 -65.954563686921361 0.37685999548877192 10.559433755784596 #
loop $-1 $-1 $257 $249 #
plane-surface $-1 70.074159978026671 0 0 -1 0 0 0 0 1 forward_v I I I I #
coedge $-1 $370 $252 $254 $374 reversed $152 $-1 #
coedge $-1 $252 $369 $460 $461 reversed $152 $-1 #
coedge $-1 $260 $255 $252 $372 forward $250 $-1 #
edge $-1 $375 36.389715452975587 $462 50.539707567394338 $371 $463 forward 7 unknown #
coedge $-1 $254 $253 $378 $464 reversed $94 $-1 #
edge $-1 $465 -140.14831995605334 $375 -122.65796770359438 $369 $466 forward 7 unknown #
vertex $-1 $256 $467 #
straight-curve $-1 55.92416786360792 -5.0556542116200127 12.355024426914696 0 -1 0 I I #
coedge $-1 $460 $257 $260 $382 reversed $367 $-1 #
coedge $-1 $257 $460 $373 $464 forward $367 $-1 #
vertex $-1 $258 $468 #
straight-curve $-1 70.074159978026671 -6.177260332954722 98.916970826624961 0 0 1 I I #
straight-curve $-1 -43.308211834890258 -6.177260332954722 84.451569840332994 0.80901698891910034 0 -0.5877852598018023 I I #
edge $-1 $462 -14.045356513525329 $261 -6.177260332954722 $377 $469 forward 7 unknown #
point $-1 70.074159978026671 -6.177260332954722 12.355024426914701 #
point $-1 55.92416786360792 -6.177260332954722 12.355024426914696 #
edge $-1 $470 1 $470 0 $264 $-1 forward 7 unknown #
vertex $-1 $265 $471 #
ellipse-curve $-1 62.160609776485366 -12.471737277411204 6.0605680644804591 0.5877852598018023 0 0.80901698891910034 0.40450849445955017 0 -0.29389262990090115 1 I I #
point $-1 63.403672415276866 -12.471737277411204 6.9208461756454707 #
edge $-1 $472 1 $472 0 $268 $-1 forward 7 unknown #
vertex $-1 $269 $473 #
ellipse-curve $-1 62.160609776485366 -10.111308423240022 6.0605680644804591 0.5877852598018023 0 0.80901698891910034 0.40450849445955017 0 -0.29389262990090115 1 I I #
point $-1 63.403672415276866 -10.111308423240022 6.9208461756454707 #
edge $-1 $474 1 $474 0 $272 $-1 forward 7 unknown #
vertex $-1 $273 $475 #
ellipse-curve $-1 62.160609776485366 -7.7508795690688395 6.0605680644804591 0.5877852598018023 0 0.80901698891910034 0.40450849445955017 0 -0.29389262990090115 1 I I #
point $-1 63.403672415276866 -7.7508795690688395 6.9208461756454707 #
plane-surface $-1 70.074159978026671 0 0 -1 0 0 0 0 1 forward_v I I I I #
coedge $-1 $281 $279 $283 $402 reversed $181 $-1 #
edge $-1 $294 -12.355024426914701 $404 12.355024426914701 $293 $476 forward 7 unknown #
vertex $-1 $402 $477 #
straight-curve $-1 -70.074159978026671 -30.117325204338194 0 0 0 -1 I I #
edge $-1 $400 -30.117325204338194 $404 30.117325204338194 $398 $478 forward 7 unknown #
straight-curve $-1 0 -30.117325204338194 -12.355024426914701 -1 0 0 I I #
vertex $-1 $286 $479 #
straight-curve $-1 0 30.117325204338194 -12.355024426914701 1 0 0 I I #
point $-1 70.074159978026671 30.117325204338194 -12.355024426914701 #
point $-1 70.074159978026671 -30.117325204338194 -12.355024426914701 #
straight-curve $-1 -70.074159978026671 0 12.355024426914701 0 -1 0 I I #
point $-1 -70.074159978026671 30.117325204338194 12.355024426914701 #
point $-1 -70.074159978026671 -30.117325204338194 12.355024426914701 #
straight-curve $-1 70.074159978026671 -30.117325204338194 0 0 0 -1 I I #
straight-curve $-1 70.074159978026671 30.117325204338194 0 0 0 -1 I I #
plane-surface $-1 70.074159978026671 0 0 -1 0 0 0 0 1 forward_v I I I I #
coedge $-1 $425 $416 $415 $480 forward $304 $-1 #
coedge $-1 $307 $306 $414 $480 reversed $121 $-1 #
coedge $-1 $414 $481 $308 $417 reversed $304 $-1 #
edge $-1 $418 -70.074159978026671 $421 70.074159978026671 $416 $482 forward 7 unknown #
vertex $-1 $309 $483 #
straight-curve $-1 -70.074159978026671 0 12.355024426914701 0 -1 0 I I #
coedge $-1 $316 $310 $481 $484 forward $317 $-1 #
vertex $-1 $311 $485 #
straight-curve $-1 70.074159978026671 0 12.355024426914701 0 1 0 I I #
point $-1 70.074159978026671 -30.117325204338194 12.355024426914701 #
point $-1 -70.074159978026671 -30.117325204338194 12.355024426914701 #
coedge $-1 $481 $414 $319 $426 reversed $304 $-1 #
edge $-1 $427 -70.074159978026671 $429 70.074159978026671 $425 $486 forward 7 unknown #
vertex $-1 $484 $487 #
straight-curve $-1 70.074159978026671 -38.153309549744627 8.5115323161535006 0 -1 0 I I #
vertex $-1 $321 $488 #
straight-curve $-1 -70.074159978026671 -38.153309549744627 8.5115323161535006 0 1 0 I I #
plane-surface $-1 -70.074159978026671 0 0 1 0 0 0 0 -1 forward_v I I I I #
coedge $-1 $489 $327 $328 $435 reversed $216 $-1 #
coedge $-1 $327 $489 $438 $490 reversed $216 $-1 #
edge $-1 $439 -1.9217460553806021 $436 1.9217460553806021 $330 $491 forward 7 unknown #
edge $-1 $447 -70.074159978026671 $436 70.074159978026671 $432 $492 forward 7 unknown #
vertex $-1 $329 $493 #
straight-curve $-1 70.074159978026671 38.153309549744627 8.5115323161535006 0 -1 0 I I #
coedge $-1 $442 $331 $433 $490 forward $325 $-1 #
vertex $-1 $332 $494 #
straight-curve $-1 70.074159978026671 0 12.355024426914701 0 1 0 I I #
point $-1 70.074159978026671 30.117325204338194 12.355024426914701 #
coedge $-1 $335 $438 $337 $445 forward $325 $-1 #
straight-curve $-1 0 30.117325204338194 12.355024426914701 1 0 0 I I #
coedge $-1 $338 $337 $489 $495 forward $339 $-1 #
edge $-1 $496 -46.18929389515106 $340 -30.117325204338194 $337 $497 forward 7 unknown #
point $-1 -70.074159978026671 30.117325204338194 12.355024426914701 #
vertex $-1 $435 $498 #
straight-curve $-1 -70.074159978026671 38.153309549744627 8.5115323161535006 0 1 0 I I #
edge $-1 $450 42.252895321092645 $453 47.890071767865592 $346 $499 forward 7 unknown #
vertex $-1 $360 $500 #
straight-curve $-1 -82.827542744976313 4.4399466498152336 12.355024426914703 -1 0 0 I I #
edge $-1 $453 -4.2515166520708476 $357 3.8746566565820757 $356 $501 forward 7 unknown #
vertex $-1 $452 $502 #
straight-curve $-1 -70.074159978026699 4.4399466498152336 6.7178479801417268 0.7313536940579346 0 0.68199836817093118 I I #
point $-1 -64.029028477989897 4.4399466498152336 12.355024426914701 #
point $-1 -70.074159978026671 -3.6862266588376897 6.7178479801417534 #
straight-curve $-1 -70.074159978026671 0 12.355024426914701 0 -1 0 I I #
vertex $-1 $363 $503 #
point $-1 -63.651219150869224 0.37685999548877192 8.0893992018196812 #
coedge $-1 $378 $377 $370 $461 forward $367 $-1 #
edge $-1 $462 86.561946399710266 $465 96.842517642446893 $460 $504 forward 7 unknown #
vertex $-1 $382 $505 #
straight-curve $-1 19.534452410632333 -14.045356513525329 12.355024426914696 1 0 0 I I #
edge $-1 $465 -8.9897023019053162 $379 -1.1216061213347093 $378 $506 forward 7 unknown #
vertex $-1 $464 $507 #
straight-curve $-1 -43.308211834890258 -14.045356513525329 84.451569840332994 -0.80901698891910034 0 0.5877852598018023 I I #
point $-1 55.92416786360792 -14.045356513525329 12.355024426914696 #
point $-1 70.074159978026671 -6.177260332954722 2.0744531841780685 #
straight-curve $-1 70.074159978026671 0 12.355024426914701 0 1 0 I I #
vertex $-1 $385 $508 #
point $-1 62.565118270944922 -12.471737277411204 5.7666754345795574 #
vertex $-1 $389 $509 #
point $-1 62.565118270944922 -10.111308423240022 5.7666754345795574 #
vertex $-1 $393 $510 #
point $-1 62.565118270944922 -7.7508795690688395 5.7666754345795574 #
straight-curve $-1 -70.074159978026671 30.117325204338194 0 0 0 -1 I I #
point $-1 -70.074159978026671 -30.117325204338194 -12.355024426914701 #
straight-curve $-1 -70.074159978026671 0 -12.355024426914701 0 1 0 I I #
point $-1 -70.074159978026671 30.117325204338194 -12.355024426914701 #
edge $-1 $418 -1.9217460553806021 $429 1.9217460553806021 $415 $511 forward 7 unknown #
coedge $-1 $416 $425 $420 $484 reversed $304 $-1 #
straight-curve $-1 0 -46.18929389515106 12.355024426914705 1 0 0 I I #
point $-1 -70.074159978026671 -46.18929389515106 12.355024426914705 #
edge $-1 $421 -1.9217460553806021 $427 1.9217460553806021 $420 $512 forward 7 unknown #
point $-1 70.074159978026671 -46.18929389515106 12.355024426914705 #
straight-curve $-1 0 -46.18929389515106 8.5115323161535006 -1 0 0 I I #
point $-1 70.074159978026671 -46.18929389515106 8.5115323161535006 #
point $-1 -70.074159978026671 -46.18929389515106 8.5115323161535006 #
coedge $-1 $433 $432 $444 $495 reversed $216 $-1 #
edge $-1 $439 -70.074159978026671 $496 70.074159978026671 $433 $513 forward 7 unknown #
straight-curve $-1 70.074159978026671 46.18929389515106 10.433278371534103 0 0 -1 I I #
straight-curve $-1 0 46.18929389515106 8.5115323161535006 1 0 0 I I #
point $-1 70.074159978026671 46.18929389515106 8.5115323161535006 #
point $-1 70.074159978026671 46.18929389515106 12.355024426914705 #
edge $-1 $496 -1.9217460553806021 $447 1.9217460553806021 $489 $514 forward 7 unknown #
vertex $-1 $490 $515 #
straight-curve $-1 -70.074159978026671 0 12.355024426914701 0 -1 0 I I #
point $-1 -70.074159978026671 46.18929389515106 8.5115323161535006 #
straight-curve $-1 -70.074159978026671 4.4399466498152336 54.607919748007347 0 0 -1 I I #
point $-1 -70.074159978026671 4.4399466498152336 12.355024426914701 #
straight-curve $-1 -70.074159978026671 0.18842999774438596 6.7178479801417508 0 -1 0 I I #
point $-1 -70.074159978026671 4.4399466498152336 6.7178479801417534 #
point $-1 -63.725252139699727 0.37685999548877192 5.9693711084763823 #
straight-curve $-1 70.074159978026671 -14.045356513525329 98.916970826624961 0 0 -1 I I #
point $-1 70.074159978026671 -14.045356513525329 12.355024426914701 #
straight-curve $-1 70.074159978026671 -5.0556542116200127 2.0744531841780685 0 1 0 I I #
point $-1 70.074159978026671 -14.045356513525329 2.0744531841780685 #
point $-1 61.86671714658447 -12.471737277411204 5.6560595700209086 #
point $-1 61.86671714658447 -10.111308423240022 5.6560595700209086 #
point $-1 61.86671714658447 -7.7508795690688395 5.6560595700209086 #
straight-curve $-1 -70.074159978026671 -46.18929389515106 10.433278371534103 0 0 -1 I I #
straight-curve $-1 70.074159978026671 -46.18929389515106 10.433278371534103 0 0 -1 I I #
straight-curve $-1 0 46.18929389515106 12.355024426914705 -1 0 0 I I #
straight-curve $-1 -70.074159978026671 46.18929389515106 10.433278371534103 0 0 -1 I I #
point $-1 -70.074159978026671 46.18929389515106 12.355024426914705 #
End-of-ACIS-data 