500 0 15 0           
7 Unknown 11 ACIS 5.0 NT 24 Fri Mar 26 16:30:19 1999 
-1 9.9999999999999995e-007 1e-010 
body $-1 $15 $-1 $16 #
body $-1 $17 $-1 $18 #
body $-1 $19 $-1 $20 #
body $-1 $21 $-1 $22 #
body $-1 $23 $-1 $24 #
body $-1 $25 $-1 $26 #
body $-1 $27 $-1 $28 #
body $-1 $29 $-1 $30 #
body $-1 $31 $-1 $32 #
body $-1 $33 $-1 $34 #
body $-1 $35 $-1 $36 #
body $-1 $37 $-1 $38 #
body $-1 $39 $-1 $40 #
body $-1 $41 $-1 $42 #
body $-1 $43 $-1 $44 #
lump $-1 $-1 $45 $0 #
transform $-1 1 0 0 0 1 0 0 0 1 40.152592547379989 20.687156815847317 6.6835672536272606 1 rotate no_reflect no_shear #
lump $-1 $-1 $46 $1 #
transform $-1 1 0 0 0 1 0 0 0 1 40.152592547379989 4.0834847875247036 1.5 1 rotate no_reflect no_shear #
lump $-1 $-1 $47 $2 #
transform $-1 1 0 0 0 1 0 0 0 1 40.152592547379989 37.29082884416993 1.5 1 rotate no_reflect no_shear #
lump $-1 $-1 $48 $3 #
transform $-1 0.61566146476048833 0 0.78801076186113728 0 1 0 -0.78801076186113728 0 0.61566146476048833 -63.281350087921453 11.288157945954312 57.816363135047666 1 rotate no_reflect no_shear #
lump $-1 $-1 $49 $4 #
transform $-1 0.61566146476048833 0 0.78801076186113728 0 -1 0 0.78801076186113728 0 -0.61566146476048833 2.9349379613880311 9.9505057869950679 10.101768048549452 1 rotate no_reflect no_shear #
lump $-1 $-1 $50 $5 #
transform $-1 0.61566146476048833 0 0.78801076186113728 0 -1 0 0.78801076186113728 0 -0.61566146476048833 2.9349379613880311 12.625810104913558 10.101768048549452 1 rotate no_reflect no_shear #
lump $-1 $-1 $51 $6 #
transform $-1 0.61566146476048833 0 0.78801076186113728 0 1 0 -0.78801076186113728 0 0.61566146476048833 -63.281350087921453 30.086155685740323 57.816363135047666 1 rotate no_reflect no_shear #
lump $-1 $-1 $52 $7 #
transform $-1 0.61566146476048833 0 0.78801076186113728 0 -1 0 0.78801076186113728 0 -0.61566146476048833 2.9349379613880311 28.748503526781079 10.101768048549452 1 rotate no_reflect no_shear #
lump $-1 $-1 $53 $8 #
transform $-1 0.61566146476048833 0 0.78801076186113728 0 -1 0 0.78801076186113728 0 -0.61566146476048833 2.9349379613880311 31.423807844699567 10.101768048549452 1 rotate no_reflect no_shear #
lump $-1 $-1 $54 $9 #
transform $-1 0.70710677298230451 0 -0.70710678939079041 0 1 0 0.70710678939079041 0 0.70710677298230451 80.305186412446488 12.996048427236213 121.67297496374441 1 rotate no_reflect no_shear #
lump $-1 $-1 $55 $10 #
transform $-1 0.70710677298230451 0 -0.70710678939079041 0 -1 0 -0.70710678939079041 0 -0.70710677298230451 75.266457171739688 12.996048427236213 8.3284065790336612 1 rotate no_reflect no_shear #
lump $-1 $-1 $56 $11 #
transform $-1 0.70710677298230451 0 -0.70710678939079041 0 1 0 0.70710678939079041 0 0.70710677298230451 80.305186412446488 20.687156815847317 121.67297496374441 1 rotate no_reflect no_shear #
lump $-1 $-1 $57 $12 #
transform $-1 0.70710677298230451 0 -0.70710678939079041 0 -1 0 -0.70710678939079041 0 -0.70710677298230451 75.266457171739688 20.687156815847317 8.3284065790336612 1 rotate no_reflect no_shear #
lump $-1 $-1 $58 $13 #
transform $-1 0.70710677298230451 0 -0.70710678939079041 0 1 0 0.70710678939079041 0 0.70710677298230451 80.305186412446488 28.378265204458422 121.67297496374441 1 rotate no_reflect no_shear #
lump $-1 $-1 $59 $14 #
transform $-1 0.70710677298230451 0 -0.70710678939079041 0 -1 0 -0.70710678939079041 0 -0.70710677298230451 75.266457171739688 28.378265204458422 8.3284065790336612 1 rotate no_reflect no_shear #
shell $-1 $-1 $-1 $60 $-1 $15 #
shell $-1 $-1 $-1 $61 $-1 $17 #
shell $-1 $-1 $-1 $62 $-1 $19 #
shell $-1 $-1 $-1 $63 $-1 $21 #
shell $-1 $-1 $-1 $64 $-1 $23 #
shell $-1 $-1 $-1 $65 $-1 $25 #
shell $-1 $-1 $-1 $66 $-1 $27 #
shell $-1 $-1 $-1 $67 $-1 $29 #
shell $-1 $-1 $-1 $68 $-1 $31 #
shell $-1 $-1 $-1 $69 $-1 $33 #
shell $-1 $-1 $-1 $70 $-1 $35 #
shell $-1 $-1 $-1 $71 $-1 $37 #
shell $-1 $-1 $-1 $72 $-1 $39 #
shell $-1 $-1 $-1 $73 $-1 $41 #
shell $-1 $-1 $-1 $74 $-1 $43 #
face $-1 $75 $76 $45 $-1 $77 forward single #
face $-1 $78 $79 $46 $-1 $80 forward single #
face $-1 $81 $82 $47 $-1 $83 forward single #
face $-1 $84 $85 $48 $-1 $86 forward single #
face $-1 $87 $88 $49 $-1 $89 forward single #
face $-1 $90 $91 $50 $-1 $92 forward single #
face $-1 $93 $94 $51 $-1 $95 forward single #
face $-1 $96 $97 $52 $-1 $98 forward single #
face $-1 $99 $100 $53 $-1 $101 forward single #
face $-1 $102 $103 $54 $-1 $104 forward single #
face $-1 $105 $106 $55 $-1 $107 forward single #
face $-1 $108 $109 $56 $-1 $110 forward single #
face $-1 $111 $112 $57 $-1 $113 forward single #
face $-1 $114 $115 $58 $-1 $116 forward single #
face $-1 $117 $118 $59 $-1 $119 forward single #
face $-1 $120 $121 $45 $-1 $122 reversed single #
loop $-1 $-1 $123 $60 #
plane-surface $-1 0 0 6.6835672536272606 0 0 1 1 0 0 forward_v I I I I #
face $-1 $124 $125 $46 $-1 $126 reversed single #
loop $-1 $-1 $127 $61 #
plane-surface $-1 0 0 1.5 0 0 1 1 0 0 forward_v I I I I #
face $-1 $128 $129 $47 $-1 $130 reversed single #
loop $-1 $-1 $131 $62 #
plane-surface $-1 0 0 1.5 0 0 1 1 0 0 forward_v I I I I #
face $-1 $132 $133 $48 $-1 $134 reversed single #
loop $-1 $-1 $135 $63 #
plane-surface $-1 0 0 80.305185094759977 0 0 1 1 0 0 forward_v I I I I #
face $-1 $136 $137 $49 $-1 $138 forward single #
loop $-1 $139 $140 $64 #
cone-surface $-1 0 0 -0.75 0 0 1 0.5 0 0 1 I I 0 1 0.5 forward I I I I #
face $-1 $141 $142 $50 $-1 $143 forward single #
loop $-1 $144 $145 $65 #
cone-surface $-1 0 0 -0.75 0 0 1 0.5 0 0 1 I I 0 1 0.5 forward I I I I #
face $-1 $146 $147 $51 $-1 $148 reversed single #
loop $-1 $-1 $149 $66 #
plane-surface $-1 0 0 80.305185094759977 0 0 1 1 0 0 forward_v I I I I #
face $-1 $150 $151 $52 $-1 $152 forward single #
loop $-1 $153 $154 $67 #
cone-surface $-1 0 0 -0.75 0 0 1 0.5 0 0 1 I I 0 1 0.5 forward I I I I #
face $-1 $155 $156 $53 $-1 $157 forward single #
loop $-1 $158 $159 $68 #
cone-surface $-1 0 0 -0.75 0 0 1 0.5 0 0 1 I I 0 1 0.5 forward I I I I #
face $-1 $160 $161 $54 $-1 $162 reversed single #
loop $-1 $-1 $163 $69 #
plane-surface $-1 0 0 80.305185094759977 0 0 1 1 0 0 forward_v I I I I #
face $-1 $164 $165 $55 $-1 $166 forward single #
loop $-1 $167 $168 $70 #
cone-surface $-1 0 0 -1.9522232734153269 0 0 1 1 0 0 1 I I 0 1 1 forward I I I I #
face $-1 $169 $170 $56 $-1 $171 reversed single #
loop $-1 $-1 $172 $71 #
plane-surface $-1 0 0 80.305185094759977 0 0 1 1 0 0 forward_v I I I I #
face $-1 $173 $174 $57 $-1 $175 forward single #
loop $-1 $176 $177 $72 #
cone-surface $-1 0 0 -1.9522232734153269 0 0 1 1 0 0 1 I I 0 1 1 forward I I I I #
face $-1 $178 $179 $58 $-1 $180 reversed single #
loop $-1 $-1 $181 $73 #
plane-surface $-1 0 0 80.305185094759977 0 0 1 1 0 0 forward_v I I I I #
face $-1 $182 $183 $59 $-1 $184 forward single #
loop $-1 $185 $186 $74 #
cone-surface $-1 0 0 -1.9522232734153269 0 0 1 1 0 0 1 I I 0 1 1 forward I I I I #
face $-1 $187 $188 $45 $-1 $189 reversed single #
loop $-1 $-1 $190 $75 #
plane-surface $-1 0 0 -6.6835672536272606 0 0 1 1 0 0 forward_v I I I I #
coedge $-1 $191 $192 $193 $194 forward $76 $-1 #
face $-1 $195 $196 $46 $-1 $197 reversed single #
loop $-1 $-1 $198 $78 #
plane-surface $-1 0 0 -1.5 0 0 1 1 0 0 forward_v I I I I #
coedge $-1 $199 $200 $201 $202 forward $79 $-1 #
face $-1 $203 $204 $47 $-1 $205 reversed single #
loop $-1 $-1 $206 $81 #
plane-surface $-1 0 0 -1.5 0 0 1 1 0 0 forward_v I I I I #
coedge $-1 $207 $208 $209 $210 forward $82 $-1 #
face $-1 $211 $212 $48 $-1 $213 reversed single #
loop $-1 $-1 $214 $84 #
plane-surface $-1 0 0 -80.305185094759977 0 0 1 1 0 0 forward_v I I I I #
coedge $-1 $215 $216 $217 $218 forward $85 $-1 #
face $-1 $-1 $219 $49 $-1 $220 forward single #
loop $-1 $-1 $221 $87 #
plane-surface $-1 0 0 -1.25 0 0 -1 -1 0 0 forward_v I I I I #
loop $-1 $-1 $222 $64 #
coedge $-1 $140 $140 $221 $223 reversed $88 $-1 #
face $-1 $-1 $224 $50 $-1 $225 forward single #
loop $-1 $-1 $226 $90 #
plane-surface $-1 0 0 -1.25 0 0 -1 -1 0 0 forward_v I I I I #
loop $-1 $-1 $227 $65 #
coedge $-1 $145 $145 $226 $228 reversed $91 $-1 #
face $-1 $229 $230 $51 $-1 $231 reversed single #
loop $-1 $-1 $232 $93 #
plane-surface $-1 0 0 -80.305185094759977 0 0 1 1 0 0 forward_v I I I I #
coedge $-1 $233 $234 $235 $236 forward $94 $-1 #
face $-1 $-1 $237 $52 $-1 $238 forward single #
loop $-1 $-1 $239 $96 #
plane-surface $-1 0 0 -1.25 0 0 -1 -1 0 0 forward_v I I I I #
loop $-1 $-1 $240 $67 #
coedge $-1 $154 $154 $239 $241 reversed $97 $-1 #
face $-1 $-1 $242 $53 $-1 $243 forward single #
loop $-1 $-1 $244 $99 #
plane-surface $-1 0 0 -1.25 0 0 -1 -1 0 0 forward_v I I I I #
loop $-1 $-1 $245 $68 #
coedge $-1 $159 $159 $244 $246 reversed $100 $-1 #
face $-1 $247 $248 $54 $-1 $249 reversed single #
loop $-1 $-1 $250 $102 #
plane-surface $-1 0 0 -80.305185094759977 0 0 1 1 0 0 forward_v I I I I #
coedge $-1 $251 $252 $253 $254 forward $103 $-1 #
face $-1 $-1 $255 $55 $-1 $256 forward single #
loop $-1 $-1 $257 $105 #
plane-surface $-1 0 0 -3.4044465468306533 0 0 -1 -1 0 0 forward_v I I I I #
loop $-1 $-1 $258 $70 #
coedge $-1 $168 $168 $257 $259 reversed $106 $-1 #
face $-1 $260 $261 $56 $-1 $262 reversed single #
loop $-1 $-1 $263 $108 #
plane-surface $-1 0 0 -80.305185094759977 0 0 1 1 0 0 forward_v I I I I #
coedge $-1 $264 $265 $266 $267 forward $109 $-1 #
face $-1 $-1 $268 $57 $-1 $269 forward single #
loop $-1 $-1 $270 $111 #
plane-surface $-1 0 0 -3.4044465468306533 0 0 -1 -1 0 0 forward_v I I I I #
loop $-1 $-1 $271 $72 #
coedge $-1 $177 $177 $270 $272 reversed $112 $-1 #
face $-1 $273 $274 $58 $-1 $275 reversed single #
loop $-1 $-1 $276 $114 #
plane-surface $-1 0 0 -80.305185094759977 0 0 1 1 0 0 forward_v I I I I #
coedge $-1 $277 $278 $279 $280 forward $115 $-1 #
face $-1 $-1 $281 $59 $-1 $282 forward single #
loop $-1 $-1 $283 $117 #
plane-surface $-1 0 0 -3.4044465468306533 0 0 -1 -1 0 0 forward_v I I I I #
loop $-1 $-1 $284 $74 #
coedge $-1 $186 $186 $283 $285 reversed $118 $-1 #
face $-1 $286 $287 $45 $-1 $288 reversed single #
loop $-1 $-1 $289 $120 #
plane-surface $-1 0 -20.687156815847317 0 0 1 0 0 0 1 forward_v I I I I #
coedge $-1 $290 $291 $292 $293 forward $121 $-1 #
coedge $-1 $294 $123 $295 $296 forward $76 $-1 #
coedge $-1 $123 $294 $297 $298 forward $76 $-1 #
coedge $-1 $299 $300 $123 $194 reversed $301 $-1 #
edge $-1 $302 -20.687156815847317 $303 20.687156815847317 $193 $304 forward 7 unknown #
face $-1 $305 $306 $46 $-1 $307 reversed single #
loop $-1 $-1 $308 $124 #
plane-surface $-1 0 -4.0834847875247036 0 0 1 0 0 0 1 forward_v I I I I #
coedge $-1 $309 $310 $311 $312 forward $125 $-1 #
coedge $-1 $313 $127 $314 $315 forward $79 $-1 #
coedge $-1 $127 $313 $316 $317 forward $79 $-1 #
coedge $-1 $318 $319 $127 $202 reversed $320 $-1 #
edge $-1 $321 -4.0834847875247036 $322 4.0834847875247036 $201 $323 forward 7 unknown #
face $-1 $324 $325 $47 $-1 $326 reversed single #
loop $-1 $-1 $327 $128 #
plane-surface $-1 0 -4.0834847875247036 0 0 1 0 0 0 1 forward_v I I I I #
coedge $-1 $328 $329 $330 $331 forward $129 $-1 #
coedge $-1 $332 $131 $333 $334 forward $82 $-1 #
coedge $-1 $131 $332 $335 $336 forward $82 $-1 #
coedge $-1 $337 $338 $131 $210 reversed $339 $-1 #
edge $-1 $340 -4.0834847875247036 $341 4.0834847875247036 $209 $342 forward 7 unknown #
face $-1 $343 $344 $48 $-1 $345 reversed single #
loop $-1 $-1 $346 $132 #
plane-surface $-1 0 -3.1211883709049051 0 0 1 0 0 0 1 forward_v I I I I #
coedge $-1 $347 $348 $349 $350 forward $133 $-1 #
coedge $-1 $351 $135 $352 $353 forward $85 $-1 #
coedge $-1 $135 $351 $354 $355 forward $85 $-1 #
coedge $-1 $356 $357 $135 $218 reversed $358 $-1 #
edge $-1 $359 -3.1211883709049051 $360 3.1211883709049051 $217 $361 forward 7 unknown #
loop $-1 $362 $363 $136 #
cone-surface $-1 0 0 0 0 0 1 0.25 0 0 1 I I -0.70710678118654746 0.70710678118654746 0.25 forward I I I I #
coedge $-1 $221 $221 $140 $223 forward $137 $-1 #
coedge $-1 $222 $222 $363 $364 forward $139 $-1 #
edge $-1 $365 0 $365 6.2831853071796004 $221 $366 forward 7 unknown #
loop $-1 $367 $368 $141 #
cone-surface $-1 0 0 0 0 0 1 0.25 0 0 1 I I -0.70710678118654746 0.70710678118654746 0.25 forward I I I I #
coedge $-1 $226 $226 $145 $228 forward $142 $-1 #
coedge $-1 $227 $227 $368 $369 forward $144 $-1 #
edge $-1 $370 0 $370 6.2831853071796004 $226 $371 forward 7 unknown #
face $-1 $372 $373 $51 $-1 $374 reversed single #
loop $-1 $-1 $375 $146 #
plane-surface $-1 0 -3.1211883709049051 0 0 1 0 0 0 1 forward_v I I I I #
coedge $-1 $376 $377 $378 $379 forward $147 $-1 #
coedge $-1 $380 $149 $381 $382 forward $94 $-1 #
coedge $-1 $149 $380 $383 $384 forward $94 $-1 #
coedge $-1 $385 $386 $149 $236 reversed $387 $-1 #
edge $-1 $388 -3.1211883709049051 $389 3.1211883709049051 $235 $390 forward 7 unknown #
loop $-1 $391 $392 $150 #
cone-surface $-1 0 0 0 0 0 1 0.25 0 0 1 I I -0.70710678118654746 0.70710678118654746 0.25 forward I I I I #
coedge $-1 $239 $239 $154 $241 forward $151 $-1 #
coedge $-1 $240 $240 $392 $393 forward $153 $-1 #
edge $-1 $394 0 $394 6.2831853071796004 $239 $395 forward 7 unknown #
loop $-1 $396 $397 $155 #
cone-surface $-1 0 0 0 0 0 1 0.25 0 0 1 I I -0.70710678118654746 0.70710678118654746 0.25 forward I I I I #
coedge $-1 $244 $244 $159 $246 forward $156 $-1 #
coedge $-1 $245 $245 $397 $398 forward $158 $-1 #
edge $-1 $399 0 $399 6.2831853071796004 $244 $400 forward 7 unknown #
face $-1 $401 $402 $54 $-1 $403 reversed single #
loop $-1 $-1 $404 $160 #
plane-surface $-1 0 -2.8352190014027521 0 0 1 0 0 0 1 forward_v I I I I #
coedge $-1 $405 $406 $407 $408 forward $161 $-1 #
coedge $-1 $409 $163 $410 $411 forward $103 $-1 #
coedge $-1 $163 $409 $412 $413 forward $103 $-1 #
coedge $-1 $414 $415 $163 $254 reversed $416 $-1 #
edge $-1 $417 -2.8352190014027521 $418 2.8352190014027521 $253 $419 forward 7 unknown #
loop $-1 $420 $421 $164 #
cone-surface $-1 0 0 0 0 0 1 0.5 0 0 1 I I -0.70710678118654746 0.70710678118654746 0.5 forward I I I I #
coedge $-1 $257 $257 $168 $259 forward $165 $-1 #
coedge $-1 $258 $258 $421 $422 forward $167 $-1 #
edge $-1 $423 0 $423 6.2831853071796004 $257 $424 forward 7 unknown #
face $-1 $425 $426 $56 $-1 $427 reversed single #
loop $-1 $-1 $428 $169 #
plane-surface $-1 0 -2.8352190014027521 0 0 1 0 0 0 1 forward_v I I I I #
coedge $-1 $429 $430 $431 $432 forward $170 $-1 #
coedge $-1 $433 $172 $434 $435 forward $109 $-1 #
coedge $-1 $172 $433 $436 $437 forward $109 $-1 #
coedge $-1 $438 $439 $172 $267 reversed $440 $-1 #
edge $-1 $441 -2.8352190014027521 $442 2.8352190014027521 $266 $443 forward 7 unknown #
loop $-1 $444 $445 $173 #
cone-surface $-1 0 0 0 0 0 1 0.5 0 0 1 I I -0.70710678118654746 0.70710678118654746 0.5 forward I I I I #
coedge $-1 $270 $270 $177 $272 forward $174 $-1 #
coedge $-1 $271 $271 $445 $446 forward $176 $-1 #
edge $-1 $447 0 $447 6.2831853071796004 $270 $448 forward 7 unknown #
face $-1 $449 $450 $58 $-1 $451 reversed single #
loop $-1 $-1 $452 $178 #
plane-surface $-1 0 -2.8352190014027521 0 0 1 0 0 0 1 forward_v I I I I #
coedge $-1 $453 $454 $455 $456 forward $179 $-1 #
coedge $-1 $457 $181 $458 $459 forward $115 $-1 #
coedge $-1 $181 $457 $460 $461 forward $115 $-1 #
coedge $-1 $462 $463 $181 $280 reversed $464 $-1 #
edge $-1 $465 -2.8352190014027521 $466 2.8352190014027521 $279 $467 forward 7 unknown #
loop $-1 $468 $469 $182 #
cone-surface $-1 0 0 0 0 0 1 0.5 0 0 1 I I -0.70710678118654746 0.70710678118654746 0.5 forward I I I I #
coedge $-1 $283 $283 $186 $285 forward $183 $-1 #
coedge $-1 $284 $284 $469 $470 forward $185 $-1 #
edge $-1 $471 0 $471 6.2831853071796004 $283 $472 forward 7 unknown #
face $-1 $473 $474 $45 $-1 $475 reversed single #
loop $-1 $-1 $476 $187 #
plane-surface $-1 -40.152592547379989 0 0 1 0 0 0 0 -1 forward_v I I I I #
coedge $-1 $477 $297 $478 $479 forward $188 $-1 #
coedge $-1 $480 $190 $477 $481 forward $121 $-1 #
coedge $-1 $190 $480 $482 $483 forward $121 $-1 #
coedge $-1 $300 $299 $190 $293 reversed $301 $-1 #
edge $-1 $484 -20.687156815847317 $485 20.687156815847317 $292 $486 forward 7 unknown #
coedge $-1 $192 $191 $487 $488 forward $76 $-1 #
coedge $-1 $489 $490 $191 $296 reversed $474 $-1 #
edge $-1 $303 -40.152592547379989 $491 40.152592547379989 $295 $492 forward 7 unknown #
coedge $-1 $289 $493 $192 $298 reversed $188 $-1 #
edge $-1 $494 -40.152592547379989 $302 40.152592547379989 $297 $495 forward 7 unknown #
coedge $-1 $292 $193 $493 $496 forward $301 $-1 #
coedge $-1 $193 $292 $489 $497 reversed $301 $-1 #
loop $-1 $-1 $299 $473 #
vertex $-1 $194 $498 #
vertex $-1 $194 $499 #
straight-curve $-1 40.152592547379989 0 6.6835672536272606 0 1 0 I I #
face $-1 $500 $501 $46 $-1 $502 reversed single #
loop $-1 $-1 $503 $195 #
plane-surface $-1 -40.152592547379989 0 0 1 0 0 0 0 -1 forward_v I I I I #
coedge $-1 $504 $316 $505 $506 forward $196 $-1 #
coedge $-1 $507 $198 $504 $508 forward $125 $-1 #
coedge $-1 $198 $507 $509 $510 forward $125 $-1 #
coedge $-1 $319 $318 $198 $312 reversed $320 $-1 #
edge $-1 $511 -4.0834847875247036 $512 4.0834847875247036 $311 $513 forward 7 unknown #
coedge $-1 $200 $199 $514 $515 forward $79 $-1 #
coedge $-1 $516 $517 $199 $315 reversed $501 $-1 #
edge $-1 $322 -40.152592547379989 $518 40.152592547379989 $314 $519 forward 7 unknown #
coedge $-1 $308 $520 $200 $317 reversed $196 $-1 #
edge $-1 $521 -40.152592547379989 $321 40.152592547379989 $316 $522 forward 7 unknown #
coedge $-1 $311 $201 $520 $523 forward $320 $-1 #
coedge $-1 $201 $311 $516 $524 reversed $320 $-1 #
loop $-1 $-1 $318 $500 #
vertex $-1 $202 $525 #
vertex $-1 $202 $526 #
straight-curve $-1 40.152592547379989 0 1.5 0 1 0 I I #
face $-1 $527 $528 $47 $-1 $529 reversed single #
loop $-1 $-1 $530 $203 #
plane-surface $-1 -40.152592547379989 0 0 1 0 0 0 0 -1 forward_v I I I I #
coedge $-1 $531 $335 $532 $533 forward $204 $-1 #
coedge $-1 $534 $206 $531 $535 forward $129 $-1 #
coedge $-1 $206 $534 $536 $537 forward $129 $-1 #
coedge $-1 $338 $337 $206 $331 reversed $339 $-1 #
edge $-1 $538 -4.0834847875247036 $539 4.0834847875247036 $330 $540 forward 7 unknown #
coedge $-1 $208 $207 $541 $542 forward $82 $-1 #
coedge $-1 $543 $544 $207 $334 reversed $528 $-1 #
edge $-1 $341 -40.152592547379989 $545 40.152592547379989 $333 $546 forward 7 unknown #
coedge $-1 $327 $547 $208 $336 reversed $204 $-1 #
edge $-1 $548 -40.152592547379989 $340 40.152592547379989 $335 $549 forward 7 unknown #
coedge $-1 $330 $209 $547 $550 forward $339 $-1 #
coedge $-1 $209 $330 $543 $551 reversed $339 $-1 #
loop $-1 $-1 $337 $527 #
vertex $-1 $210 $552 #
vertex $-1 $210 $553 #
straight-curve $-1 40.152592547379989 0 1.5 0 1 0 I I #
face $-1 $554 $555 $48 $-1 $556 reversed single #
loop $-1 $-1 $557 $211 #
plane-surface $-1 -160.61037018951995 0 0 1 0 0 0 0 -1 forward_v I I I I #
coedge $-1 $558 $354 $559 $560 forward $212 $-1 #
coedge $-1 $561 $214 $558 $562 forward $133 $-1 #
coedge $-1 $214 $561 $563 $564 forward $133 $-1 #
coedge $-1 $357 $356 $214 $350 reversed $358 $-1 #
edge $-1 $565 -3.1211883709049051 $566 3.1211883709049051 $349 $567 forward 7 unknown #
coedge $-1 $216 $215 $568 $569 forward $85 $-1 #
coedge $-1 $570 $571 $215 $353 reversed $555 $-1 #
edge $-1 $360 -160.61037018951995 $572 160.61037018951995 $352 $573 forward 7 unknown #
coedge $-1 $346 $574 $216 $355 reversed $212 $-1 #
edge $-1 $575 -160.61037018951995 $359 160.61037018951995 $354 $576 forward 7 unknown #
coedge $-1 $349 $217 $574 $577 forward $358 $-1 #
coedge $-1 $217 $349 $570 $578 reversed $358 $-1 #
loop $-1 $-1 $356 $554 #
vertex $-1 $218 $579 #
vertex $-1 $218 $580 #
straight-curve $-1 160.61037018951995 0 80.305185094759977 0 1 0 I I #
loop $-1 $-1 $581 $136 #
coedge $-1 $363 $363 $222 $364 reversed $219 $-1 #
edge $-1 $582 0 $582 6.2831853071796004 $363 $583 forward 7 unknown #
vertex $-1 $223 $584 #
ellipse-curve $-1 0 0 -1.25 0 0 -1 0.5 0 0 1 I I #
loop $-1 $-1 $585 $141 #
coedge $-1 $368 $368 $227 $369 reversed $224 $-1 #
edge $-1 $586 0 $586 6.2831853071796004 $368 $587 forward 7 unknown #
vertex $-1 $228 $588 #
ellipse-curve $-1 0 0 -1.25 0 0 -1 0.5 0 0 1 I I #
face $-1 $589 $590 $51 $-1 $591 reversed single #
loop $-1 $-1 $592 $229 #
plane-surface $-1 -160.61037018951995 0 0 1 0 0 0 0 -1 forward_v I I I I #
coedge $-1 $593 $383 $594 $595 forward $230 $-1 #
coedge $-1 $596 $232 $593 $597 forward $147 $-1 #
coedge $-1 $232 $596 $598 $599 forward $147 $-1 #
coedge $-1 $386 $385 $232 $379 reversed $387 $-1 #
edge $-1 $600 -3.1211883709049051 $601 3.1211883709049051 $378 $602 forward 7 unknown #
coedge $-1 $234 $233 $603 $604 forward $94 $-1 #
coedge $-1 $605 $606 $233 $382 reversed $590 $-1 #
edge $-1 $389 -160.61037018951995 $607 160.61037018951995 $381 $608 forward 7 unknown #
coedge $-1 $375 $609 $234 $384 reversed $230 $-1 #
edge $-1 $610 -160.61037018951995 $388 160.61037018951995 $383 $611 forward 7 unknown #
coedge $-1 $378 $235 $609 $612 forward $387 $-1 #
coedge $-1 $235 $378 $605 $613 reversed $387 $-1 #
loop $-1 $-1 $385 $589 #
vertex $-1 $236 $614 #
vertex $-1 $236 $615 #
straight-curve $-1 160.61037018951995 0 80.305185094759977 0 1 0 I I #
loop $-1 $-1 $616 $150 #
coedge $-1 $392 $392 $240 $393 reversed $237 $-1 #
edge $-1 $617 0 $617 6.2831853071796004 $392 $618 forward 7 unknown #
vertex $-1 $241 $619 #
ellipse-curve $-1 0 0 -1.25 0 0 -1 0.5 0 0 1 I I #
loop $-1 $-1 $620 $155 #
coedge $-1 $397 $397 $245 $398 reversed $242 $-1 #
edge $-1 $621 0 $621 6.2831853071796004 $397 $622 forward 7 unknown #
vertex $-1 $246 $623 #
ellipse-curve $-1 0 0 -1.25 0 0 -1 0.5 0 0 1 I I #
face $-1 $624 $625 $54 $-1 $626 reversed single #
loop $-1 $-1 $627 $247 #
plane-surface $-1 -160.61037018951995 0 0 1 0 0 0 0 -1 forward_v I I I I #
coedge $-1 $628 $412 $629 $630 forward $248 $-1 #
coedge $-1 $631 $250 $628 $632 forward $161 $-1 #
coedge $-1 $250 $631 $633 $634 forward $161 $-1 #
coedge $-1 $415 $414 $250 $408 reversed $416 $-1 #
edge $-1 $635 -2.8352190014027521 $636 2.8352190014027521 $407 $637 forward 7 unknown #
coedge $-1 $252 $251 $638 $639 forward $103 $-1 #
coedge $-1 $640 $641 $251 $411 reversed $625 $-1 #
edge $-1 $418 -160.61037018951995 $642 160.61037018951995 $410 $643 forward 7 unknown #
coedge $-1 $404 $644 $252 $413 reversed $248 $-1 #
edge $-1 $645 -160.61037018951995 $417 160.61037018951995 $412 $646 forward 7 unknown #
coedge $-1 $407 $253 $644 $647 forward $416 $-1 #
coedge $-1 $253 $407 $640 $648 reversed $416 $-1 #
loop $-1 $-1 $414 $624 #
vertex $-1 $254 $649 #
vertex $-1 $254 $650 #
straight-curve $-1 160.61037018951995 0 80.305185094759977 0 1 0 I I #
loop $-1 $-1 $651 $164 #
coedge $-1 $421 $421 $258 $422 reversed $255 $-1 #
edge $-1 $652 0 $652 6.2831853071796004 $421 $653 forward 7 unknown #
vertex $-1 $259 $654 #
ellipse-curve $-1 0 0 -3.4044465468306533 0 0 -1 1 0 0 1 I I #
face $-1 $655 $656 $56 $-1 $657 reversed single #
loop $-1 $-1 $658 $260 #
plane-surface $-1 -160.61037018951995 0 0 1 0 0 0 0 -1 forward_v I I I I #
coedge $-1 $659 $436 $660 $661 forward $261 $-1 #
coedge $-1 $662 $263 $659 $663 forward $170 $-1 #
coedge $-1 $263 $662 $664 $665 forward $170 $-1 #
coedge $-1 $439 $438 $263 $432 reversed $440 $-1 #
edge $-1 $666 -2.8352190014027521 $667 2.8352190014027521 $431 $668 forward 7 unknown #
coedge $-1 $265 $264 $669 $670 forward $109 $-1 #
coedge $-1 $671 $672 $264 $435 reversed $656 $-1 #
edge $-1 $442 -160.61037018951995 $673 160.61037018951995 $434 $674 forward 7 unknown #
coedge $-1 $428 $675 $265 $437 reversed $261 $-1 #
edge $-1 $676 -160.61037018951995 $441 160.61037018951995 $436 $677 forward 7 unknown #
coedge $-1 $431 $266 $675 $678 forward $440 $-1 #
coedge $-1 $266 $431 $671 $679 reversed $440 $-1 #
loop $-1 $-1 $438 $655 #
vertex $-1 $267 $680 #
vertex $-1 $267 $681 #
straight-curve $-1 160.61037018951995 0 80.305185094759977 0 1 0 I I #
loop $-1 $-1 $682 $173 #
coedge $-1 $445 $445 $271 $446 reversed $268 $-1 #
edge $-1 $683 0 $683 6.2831853071796004 $445 $684 forward 7 unknown #
vertex $-1 $272 $685 #
ellipse-curve $-1 0 0 -3.4044465468306533 0 0 -1 1 0 0 1 I I #
face $-1 $686 $687 $58 $-1 $688 reversed single #
loop $-1 $-1 $689 $273 #
plane-surface $-1 -160.61037018951995 0 0 1 0 0 0 0 -1 forward_v I I I I #
coedge $-1 $690 $460 $691 $692 forward $274 $-1 #
coedge $-1 $693 $276 $690 $694 forward $179 $-1 #
coedge $-1 $276 $693 $695 $696 forward $179 $-1 #
coedge $-1 $463 $462 $276 $456 reversed $464 $-1 #
edge $-1 $697 -2.8352190014027521 $698 2.8352190014027521 $455 $699 forward 7 unknown #
coedge $-1 $278 $277 $700 $701 forward $115 $-1 #
coedge $-1 $702 $703 $277 $459 reversed $687 $-1 #
edge $-1 $466 -160.61037018951995 $704 160.61037018951995 $458 $705 forward 7 unknown #
coedge $-1 $452 $706 $278 $461 reversed $274 $-1 #
edge $-1 $707 -160.61037018951995 $465 160.61037018951995 $460 $708 forward 7 unknown #
coedge $-1 $455 $279 $706 $709 forward $464 $-1 #
coedge $-1 $279 $455 $702 $710 reversed $464 $-1 #
loop $-1 $-1 $462 $686 #
vertex $-1 $280 $711 #
vertex $-1 $280 $712 #
straight-curve $-1 160.61037018951995 0 80.305185094759977 0 1 0 I I #
loop $-1 $-1 $713 $182 #
coedge $-1 $469 $469 $284 $470 reversed $281 $-1 #
edge $-1 $714 0 $714 6.2831853071796004 $469 $715 forward 7 unknown #
vertex $-1 $285 $716 #
ellipse-curve $-1 0 0 -3.4044465468306533 0 0 -1 1 0 0 1 I I #
face $-1 $-1 $301 $45 $-1 $717 reversed single #
loop $-1 $-1 $489 $286 #
plane-surface $-1 0 20.687156815847317 0 0 -1 0 0 0 -1 forward_v I I I I #
coedge $-1 $718 $487 $490 $719 forward $287 $-1 #
coedge $-1 $493 $289 $290 $481 reversed $188 $-1 #
coedge $-1 $487 $718 $289 $479 reversed $287 $-1 #
edge $-1 $494 -6.6835672536272606 $720 6.6835672536272606 $478 $721 forward 7 unknown #
coedge $-1 $291 $290 $718 $722 forward $121 $-1 #
edge $-1 $485 -40.152592547379989 $720 40.152592547379989 $477 $723 forward 7 unknown #
coedge $-1 $490 $489 $291 $483 reversed $474 $-1 #
edge $-1 $724 -40.152592547379989 $484 40.152592547379989 $482 $725 forward 7 unknown #
vertex $-1 $293 $726 #
vertex $-1 $496 $727 #
straight-curve $-1 40.152592547379989 0 -6.6835672536272606 0 -1 0 I I #
coedge $-1 $476 $478 $294 $488 reversed $287 $-1 #
edge $-1 $491 -20.687156815847317 $494 20.687156815847317 $487 $728 forward 7 unknown #
coedge $-1 $482 $295 $300 $497 forward $474 $-1 #
coedge $-1 $295 $482 $476 $719 reversed $474 $-1 #
vertex $-1 $296 $729 #
straight-curve $-1 0 20.687156815847317 6.6835672536272606 -1 0 0 I I #
coedge $-1 $297 $477 $299 $496 reversed $188 $-1 #
vertex $-1 $488 $730 #
straight-curve $-1 0 -20.687156815847317 6.6835672536272606 1 0 0 I I #
edge $-1 $302 -6.6835672536272606 $485 6.6835672536272606 $299 $731 forward 7 unknown #
edge $-1 $303 -6.6835672536272606 $484 6.6835672536272606 $300 $732 forward 7 unknown #
point $-1 40.152592547379989 -20.687156815847317 6.6835672536272606 #
point $-1 40.152592547379989 20.687156815847317 6.6835672536272606 #
face $-1 $-1 $320 $46 $-1 $733 reversed single #
loop $-1 $-1 $516 $305 #
plane-surface $-1 0 4.0834847875247036 0 0 -1 0 0 0 -1 forward_v I I I I #
coedge $-1 $734 $514 $517 $735 forward $306 $-1 #
coedge $-1 $520 $308 $309 $508 reversed $196 $-1 #
coedge $-1 $514 $734 $308 $506 reversed $306 $-1 #
edge $-1 $521 -1.5 $736 1.5 $505 $737 forward 7 unknown #
coedge $-1 $310 $309 $734 $738 forward $125 $-1 #
edge $-1 $512 -40.152592547379989 $736 40.152592547379989 $504 $739 forward 7 unknown #
coedge $-1 $517 $516 $310 $510 reversed $501 $-1 #
edge $-1 $740 -40.152592547379989 $511 40.152592547379989 $509 $741 forward 7 unknown #
vertex $-1 $312 $742 #
vertex $-1 $523 $743 #
straight-curve $-1 40.152592547379989 0 -1.5 0 -1 0 I I #
coedge $-1 $503 $505 $313 $515 reversed $306 $-1 #
edge $-1 $518 -4.0834847875247036 $521 4.0834847875247036 $514 $744 forward 7 unknown #
coedge $-1 $509 $314 $319 $524 forward $501 $-1 #
coedge $-1 $314 $509 $503 $735 reversed $501 $-1 #
vertex $-1 $315 $745 #
straight-curve $-1 0 4.0834847875247036 1.5 -1 0 0 I I #
coedge $-1 $316 $504 $318 $523 reversed $196 $-1 #
vertex $-1 $515 $746 #
straight-curve $-1 0 -4.0834847875247036 1.5 1 0 0 I I #
edge $-1 $321 -1.5 $512 1.5 $318 $747 forward 7 unknown #
edge $-1 $322 -1.5 $511 1.5 $319 $748 forward 7 unknown #
point $-1 40.152592547379989 -4.0834847875247036 1.5 #
point $-1 40.152592547379989 4.0834847875247036 1.5 #
face $-1 $-1 $339 $47 $-1 $749 reversed single #
loop $-1 $-1 $543 $324 #
plane-surface $-1 0 4.0834847875247036 0 0 -1 0 0 0 -1 forward_v I I I I #
coedge $-1 $750 $541 $544 $751 forward $325 $-1 #
coedge $-1 $547 $327 $328 $535 reversed $204 $-1 #
coedge $-1 $541 $750 $327 $533 reversed $325 $-1 #
edge $-1 $548 -1.5 $752 1.5 $532 $753 forward 7 unknown #
coedge $-1 $329 $328 $750 $754 forward $129 $-1 #
edge $-1 $539 -40.152592547379989 $752 40.152592547379989 $531 $755 forward 7 unknown #
coedge $-1 $544 $543 $329 $537 reversed $528 $-1 #
edge $-1 $756 -40.152592547379989 $538 40.152592547379989 $536 $757 forward 7 unknown #
vertex $-1 $331 $758 #
vertex $-1 $550 $759 #
straight-curve $-1 40.152592547379989 0 -1.5 0 -1 0 I I #
coedge $-1 $530 $532 $332 $542 reversed $325 $-1 #
edge $-1 $545 -4.0834847875247036 $548 4.0834847875247036 $541 $760 forward 7 unknown #
coedge $-1 $536 $333 $338 $551 forward $528 $-1 #
coedge $-1 $333 $536 $530 $751 reversed $528 $-1 #
vertex $-1 $334 $761 #
straight-curve $-1 0 4.0834847875247036 1.5 -1 0 0 I I #
coedge $-1 $335 $531 $337 $550 reversed $204 $-1 #
vertex $-1 $542 $762 #
straight-curve $-1 0 -4.0834847875247036 1.5 1 0 0 I I #
edge $-1 $340 -1.5 $539 1.5 $337 $763 forward 7 unknown #
edge $-1 $341 -1.5 $538 1.5 $338 $764 forward 7 unknown #
point $-1 40.152592547379989 -4.0834847875247036 1.5 #
point $-1 40.152592547379989 4.0834847875247036 1.5 #
face $-1 $-1 $358 $48 $-1 $765 reversed single #
loop $-1 $-1 $570 $343 #
plane-surface $-1 0 3.1211883709049051 0 0 -1 0 0 0 -1 forward_v I I I I #
coedge $-1 $766 $568 $571 $767 forward $344 $-1 #
coedge $-1 $574 $346 $347 $562 reversed $212 $-1 #
coedge $-1 $568 $766 $346 $560 reversed $344 $-1 #
edge $-1 $575 -80.305185094759977 $768 80.305185094759977 $559 $769 forward 7 unknown #
coedge $-1 $348 $347 $766 $770 forward $133 $-1 #
edge $-1 $566 -160.61037018951995 $768 160.61037018951995 $558 $771 forward 7 unknown #
coedge $-1 $571 $570 $348 $564 reversed $555 $-1 #
edge $-1 $772 -160.61037018951995 $565 160.61037018951995 $563 $773 forward 7 unknown #
vertex $-1 $350 $774 #
vertex $-1 $577 $775 #
straight-curve $-1 160.61037018951995 0 -80.305185094759977 0 -1 0 I I #
coedge $-1 $557 $559 $351 $569 reversed $344 $-1 #
edge $-1 $572 -3.1211883709049051 $575 3.1211883709049051 $568 $776 forward 7 unknown #
coedge $-1 $563 $352 $357 $578 forward $555 $-1 #
coedge $-1 $352 $563 $557 $767 reversed $555 $-1 #
vertex $-1 $353 $777 #
straight-curve $-1 0 3.1211883709049051 80.305185094759977 -1 0 0 I I #
coedge $-1 $354 $558 $356 $577 reversed $212 $-1 #
vertex $-1 $569 $778 #
straight-curve $-1 0 -3.1211883709049051 80.305185094759977 1 0 0 I I #
edge $-1 $359 -80.305185094759977 $566 80.305185094759977 $356 $779 forward 7 unknown #
edge $-1 $360 -80.305185094759977 $565 80.305185094759977 $357 $780 forward 7 unknown #
point $-1 160.61037018951995 -3.1211883709049051 80.305185094759977 #
point $-1 160.61037018951995 3.1211883709049051 80.305185094759977 #
coedge $-1 $581 $581 $-1 $781 reversed $362 $-1 #
vertex $-1 $364 $782 #
ellipse-curve $-1 0 0 -0.25 0 0 -1 0.5 0 0 1 I I #
point $-1 0.5 0 -1.25 #
coedge $-1 $585 $585 $-1 $783 reversed $367 $-1 #
vertex $-1 $369 $784 #
ellipse-curve $-1 0 0 -0.25 0 0 -1 0.5 0 0 1 I I #
point $-1 0.5 0 -1.25 #
face $-1 $-1 $387 $51 $-1 $785 reversed single #
loop $-1 $-1 $605 $372 #
plane-surface $-1 0 3.1211883709049051 0 0 -1 0 0 0 -1 forward_v I I I I #
coedge $-1 $786 $603 $606 $787 forward $373 $-1 #
coedge $-1 $609 $375 $376 $597 reversed $230 $-1 #
coedge $-1 $603 $786 $375 $595 reversed $373 $-1 #
edge $-1 $610 -80.305185094759977 $788 80.305185094759977 $594 $789 forward 7 unknown #
coedge $-1 $377 $376 $786 $790 forward $147 $-1 #
edge $-1 $601 -160.61037018951995 $788 160.61037018951995 $593 $791 forward 7 unknown #
coedge $-1 $606 $605 $377 $599 reversed $590 $-1 #
edge $-1 $792 -160.61037018951995 $600 160.61037018951995 $598 $793 forward 7 unknown #
vertex $-1 $379 $794 #
vertex $-1 $612 $795 #
straight-curve $-1 160.61037018951995 0 -80.305185094759977 0 -1 0 I I #
coedge $-1 $592 $594 $380 $604 reversed $373 $-1 #
edge $-1 $607 -3.1211883709049051 $610 3.1211883709049051 $603 $796 forward 7 unknown #
coedge $-1 $598 $381 $386 $613 forward $590 $-1 #
coedge $-1 $381 $598 $592 $787 reversed $590 $-1 #
vertex $-1 $382 $797 #
straight-curve $-1 0 3.1211883709049051 80.305185094759977 -1 0 0 I I #
coedge $-1 $383 $593 $385 $612 reversed $230 $-1 #
vertex $-1 $604 $798 #
straight-curve $-1 0 -3.1211883709049051 80.305185094759977 1 0 0 I I #
edge $-1 $388 -80.305185094759977 $601 80.305185094759977 $385 $799 forward 7 unknown #
edge $-1 $389 -80.305185094759977 $600 80.305185094759977 $386 $800 forward 7 unknown #
point $-1 160.61037018951995 -3.1211883709049051 80.305185094759977 #
point $-1 160.61037018951995 3.1211883709049051 80.305185094759977 #
coedge $-1 $616 $616 $-1 $801 reversed $391 $-1 #
vertex $-1 $393 $802 #
ellipse-curve $-1 0 0 -0.25 0 0 -1 0.5 0 0 1 I I #
point $-1 0.5 0 -1.25 #
coedge $-1 $620 $620 $-1 $803 reversed $396 $-1 #
vertex $-1 $398 $804 #
ellipse-curve $-1 0 0 -0.25 0 0 -1 0.5 0 0 1 I I #
point $-1 0.5 0 -1.25 #
face $-1 $-1 $416 $54 $-1 $805 reversed single #
loop $-1 $-1 $640 $401 #
plane-surface $-1 0 2.8352190014027521 0 0 -1 0 0 0 -1 forward_v I I I I #
coedge $-1 $806 $638 $641 $807 forward $402 $-1 #
coedge $-1 $644 $404 $405 $632 reversed $248 $-1 #
coedge $-1 $638 $806 $404 $630 reversed $402 $-1 #
edge $-1 $645 -80.305185094759977 $808 80.305185094759977 $629 $809 forward 7 unknown #
coedge $-1 $406 $405 $806 $810 forward $161 $-1 #
edge $-1 $636 -160.61037018951995 $808 160.61037018951995 $628 $811 forward 7 unknown #
coedge $-1 $641 $640 $406 $634 reversed $625 $-1 #
edge $-1 $812 -160.61037018951995 $635 160.61037018951995 $633 $813 forward 7 unknown #
vertex $-1 $408 $814 #
vertex $-1 $647 $815 #
straight-curve $-1 160.61037018951995 0 -80.305185094759977 0 -1 0 I I #
coedge $-1 $627 $629 $409 $639 reversed $402 $-1 #
edge $-1 $642 -2.8352190014027521 $645 2.8352190014027521 $638 $816 forward 7 unknown #
coedge $-1 $633 $410 $415 $648 forward $625 $-1 #
coedge $-1 $410 $633 $627 $807 reversed $625 $-1 #
vertex $-1 $411 $817 #
straight-curve $-1 0 2.8352190014027521 80.305185094759977 -1 0 0 I I #
coedge $-1 $412 $628 $414 $647 reversed $248 $-1 #
vertex $-1 $639 $818 #
straight-curve $-1 0 -2.8352190014027521 80.305185094759977 1 0 0 I I #
edge $-1 $417 -80.305185094759977 $636 80.305185094759977 $414 $819 forward 7 unknown #
edge $-1 $418 -80.305185094759977 $635 80.305185094759977 $415 $820 forward 7 unknown #
point $-1 160.61037018951995 -2.8352190014027521 80.305185094759977 #
point $-1 160.61037018951995 2.8352190014027521 80.305185094759977 #
coedge $-1 $651 $651 $-1 $821 reversed $420 $-1 #
vertex $-1 $422 $822 #
ellipse-curve $-1 0 0 -0.5 0 0 -1 1 0 0 1 I I #
point $-1 1 0 -3.4044465468306533 #
face $-1 $-1 $440 $56 $-1 $823 reversed single #
loop $-1 $-1 $671 $425 #
plane-surface $-1 0 2.8352190014027521 0 0 -1 0 0 0 -1 forward_v I I I I #
coedge $-1 $824 $669 $672 $825 forward $426 $-1 #
coedge $-1 $675 $428 $429 $663 reversed $261 $-1 #
coedge $-1 $669 $824 $428 $661 reversed $426 $-1 #
edge $-1 $676 -80.305185094759977 $826 80.305185094759977 $660 $827 forward 7 unknown #
coedge $-1 $430 $429 $824 $828 forward $170 $-1 #
edge $-1 $667 -160.61037018951995 $826 160.61037018951995 $659 $829 forward 7 unknown #
coedge $-1 $672 $671 $430 $665 reversed $656 $-1 #
edge $-1 $830 -160.61037018951995 $666 160.61037018951995 $664 $831 forward 7 unknown #
vertex $-1 $432 $832 #
vertex $-1 $678 $833 #
straight-curve $-1 160.61037018951995 0 -80.305185094759977 0 -1 0 I I #
coedge $-1 $658 $660 $433 $670 reversed $426 $-1 #
edge $-1 $673 -2.8352190014027521 $676 2.8352190014027521 $669 $834 forward 7 unknown #
coedge $-1 $664 $434 $439 $679 forward $656 $-1 #
coedge $-1 $434 $664 $658 $825 reversed $656 $-1 #
vertex $-1 $435 $835 #
straight-curve $-1 0 2.8352190014027521 80.305185094759977 -1 0 0 I I #
coedge $-1 $436 $659 $438 $678 reversed $261 $-1 #
vertex $-1 $670 $836 #
straight-curve $-1 0 -2.8352190014027521 80.305185094759977 1 0 0 I I #
edge $-1 $441 -80.305185094759977 $667 80.305185094759977 $438 $837 forward 7 unknown #
edge $-1 $442 -80.305185094759977 $666 80.305185094759977 $439 $838 forward 7 unknown #
point $-1 160.61037018951995 -2.8352190014027521 80.305185094759977 #
point $-1 160.61037018951995 2.8352190014027521 80.305185094759977 #
coedge $-1 $682 $682 $-1 $839 reversed $444 $-1 #
vertex $-1 $446 $840 #
ellipse-curve $-1 0 0 -0.5 0 0 -1 1 0 0 1 I I #
point $-1 1 0 -3.4044465468306533 #
face $-1 $-1 $464 $58 $-1 $841 reversed single #
loop $-1 $-1 $702 $449 #
plane-surface $-1 0 2.8352190014027521 0 0 -1 0 0 0 -1 forward_v I I I I #
coedge $-1 $842 $700 $703 $843 forward $450 $-1 #
coedge $-1 $706 $452 $453 $694 reversed $274 $-1 #
coedge $-1 $700 $842 $452 $692 reversed $450 $-1 #
edge $-1 $707 -80.305185094759977 $844 80.305185094759977 $691 $845 forward 7 unknown #
coedge $-1 $454 $453 $842 $846 forward $179 $-1 #
edge $-1 $698 -160.61037018951995 $844 160.61037018951995 $690 $847 forward 7 unknown #
coedge $-1 $703 $702 $454 $696 reversed $687 $-1 #
edge $-1 $848 -160.61037018951995 $697 160.61037018951995 $695 $849 forward 7 unknown #
vertex $-1 $456 $850 #
vertex $-1 $709 $851 #
straight-curve $-1 160.61037018951995 0 -80.305185094759977 0 -1 0 I I #
coedge $-1 $689 $691 $457 $701 reversed $450 $-1 #
edge $-1 $704 -2.8352190014027521 $707 2.8352190014027521 $700 $852 forward 7 unknown #
coedge $-1 $695 $458 $463 $710 forward $687 $-1 #
coedge $-1 $458 $695 $689 $843 reversed $687 $-1 #
vertex $-1 $459 $853 #
straight-curve $-1 0 2.8352190014027521 80.305185094759977 -1 0 0 I I #
coedge $-1 $460 $690 $462 $709 reversed $274 $-1 #
vertex $-1 $701 $854 #
straight-curve $-1 0 -2.8352190014027521 80.305185094759977 1 0 0 I I #
edge $-1 $465 -80.305185094759977 $698 80.305185094759977 $462 $855 forward 7 unknown #
edge $-1 $466 -80.305185094759977 $697 80.305185094759977 $463 $856 forward 7 unknown #
point $-1 160.61037018951995 -2.8352190014027521 80.305185094759977 #
point $-1 160.61037018951995 2.8352190014027521 80.305185094759977 #
coedge $-1 $713 $713 $-1 $857 reversed $468 $-1 #
vertex $-1 $470 $858 #
ellipse-curve $-1 0 0 -0.5 0 0 -1 1 0 0 1 I I #
point $-1 1 0 -3.4044465468306533 #
plane-surface $-1 40.152592547379989 0 0 -1 0 0 0 0 1 forward_v I I I I #
coedge $-1 $478 $476 $480 $722 reversed $287 $-1 #
edge $-1 $491 -6.6835672536272606 $724 6.6835672536272606 $490 $859 forward 7 unknown #
vertex $-1 $722 $860 #
straight-curve $-1 -40.152592547379989 -20.687156815847317 0 0 0 -1 I I #
edge $-1 $720 -20.687156815847317 $724 20.687156815847317 $718 $861 forward 7 unknown #
straight-curve $-1 0 -20.687156815847317 -6.6835672536272606 -1 0 0 I I #
vertex $-1 $483 $862 #
straight-curve $-1 0 20.687156815847317 -6.6835672536272606 1 0 0 I I #
point $-1 40.152592547379989 20.687156815847317 -6.6835672536272606 #
point $-1 40.152592547379989 -20.687156815847317 -6.6835672536272606 #
straight-curve $-1 -40.152592547379989 0 6.6835672536272606 0 -1 0 I I #
point $-1 -40.152592547379989 20.687156815847317 6.6835672536272606 #
point $-1 -40.152592547379989 -20.687156815847317 6.6835672536272606 #
straight-curve $-1 40.152592547379989 -20.687156815847317 0 0 0 -1 I I #
straight-curve $-1 40.152592547379989 20.687156815847317 0 0 0 -1 I I #
plane-surface $-1 40.152592547379989 0 0 -1 0 0 0 0 1 forward_v I I I I #
coedge $-1 $505 $503 $507 $738 reversed $306 $-1 #
edge $-1 $518 -1.5 $740 1.5 $517 $863 forward 7 unknown #
vertex $-1 $738 $864 #
straight-curve $-1 -40.152592547379989 -4.0834847875247036 0 0 0 -1 I I #
edge $-1 $736 -4.0834847875247036 $740 4.0834847875247036 $734 $865 forward 7 unknown #
straight-curve $-1 0 -4.0834847875247036 -1.5 -1 0 0 I I #
vertex $-1 $510 $866 #
straight-curve $-1 0 4.0834847875247036 -1.5 1 0 0 I I #
point $-1 40.152592547379989 4.0834847875247036 -1.5 #
point $-1 40.152592547379989 -4.0834847875247036 -1.5 #
straight-curve $-1 -40.152592547379989 0 1.5 0 -1 0 I I #
point $-1 -40.152592547379989 4.0834847875247036 1.5 #
point $-1 -40.152592547379989 -4.0834847875247036 1.5 #
straight-curve $-1 40.152592547379989 -4.0834847875247036 0 0 0 -1 I I #
straight-curve $-1 40.152592547379989 4.0834847875247036 0 0 0 -1 I I #
plane-surface $-1 40.152592547379989 0 0 -1 0 0 0 0 1 forward_v I I I I #
coedge $-1 $532 $530 $534 $754 reversed $325 $-1 #
edge $-1 $545 -1.5 $756 1.5 $544 $867 forward 7 unknown #
vertex $-1 $754 $868 #
straight-curve $-1 -40.152592547379989 -4.0834847875247036 0 0 0 -1 I I #
edge $-1 $752 -4.0834847875247036 $756 4.0834847875247036 $750 $869 forward 7 unknown #
straight-curve $-1 0 -4.0834847875247036 -1.5 -1 0 0 I I #
vertex $-1 $537 $870 #
straight-curve $-1 0 4.0834847875247036 -1.5 1 0 0 I I #
point $-1 40.152592547379989 4.0834847875247036 -1.5 #
point $-1 40.152592547379989 -4.0834847875247036 -1.5 #
straight-curve $-1 -40.152592547379989 0 1.5 0 -1 0 I I #
point $-1 -40.152592547379989 4.0834847875247036 1.5 #
point $-1 -40.152592547379989 -4.0834847875247036 1.5 #
straight-curve $-1 40.152592547379989 -4.0834847875247036 0 0 0 -1 I I #
straight-curve $-1 40.152592547379989 4.0834847875247036 0 0 0 -1 I I #
plane-surface $-1 160.61037018951995 0 0 -1 0 0 0 0 1 forward_v I I I I #
coedge $-1 $559 $557 $561 $770 reversed $344 $-1 #
edge $-1 $572 -80.305185094759977 $772 80.305185094759977 $571 $871 forward 7 unknown #
vertex $-1 $770 $872 #
straight-curve $-1 -160.61037018951995 -3.1211883709049051 0 0 0 -1 I I #
edge $-1 $768 -3.1211883709049051 $772 3.1211883709049051 $766 $873 forward 7 unknown #
straight-curve $-1 0 -3.1211883709049051 -80.305185094759977 -1 0 0 I I #
vertex $-1 $564 $874 #
straight-curve $-1 0 3.1211883709049051 -80.305185094759977 1 0 0 I I #
point $-1 160.61037018951995 3.1211883709049051 -80.305185094759977 #
point $-1 160.61037018951995 -3.1211883709049051 -80.305185094759977 #
straight-curve $-1 -160.61037018951995 0 80.305185094759977 0 -1 0 I I #
point $-1 -160.61037018951995 3.1211883709049051 80.305185094759977 #
point $-1 -160.61037018951995 -3.1211883709049051 80.305185094759977 #
straight-curve $-1 160.61037018951995 -3.1211883709049051 0 0 0 -1 I I #
straight-curve $-1 160.61037018951995 3.1211883709049051 0 0 0 -1 I I #
edge $-1 $875 1 $875 0 $581 $-1 forward 7 unknown #
point $-1 0.5 0 -0.25 #
edge $-1 $876 1 $876 0 $585 $-1 forward 7 unknown #
point $-1 0.5 0 -0.25 #
plane-surface $-1 160.61037018951995 0 0 -1 0 0 0 0 1 forward_v I I I I #
coedge $-1 $594 $592 $596 $790 reversed $373 $-1 #
edge $-1 $607 -80.305185094759977 $792 80.305185094759977 $606 $877 forward 7 unknown #
vertex $-1 $790 $878 #
straight-curve $-1 -160.61037018951995 -3.1211883709049051 0 0 0 -1 I I #
edge $-1 $788 -3.1211883709049051 $792 3.1211883709049051 $786 $879 forward 7 unknown #
straight-curve $-1 0 -3.1211883709049051 -80.305185094759977 -1 0 0 I I #
vertex $-1 $599 $880 #
straight-curve $-1 0 3.1211883709049051 -80.305185094759977 1 0 0 I I #
point $-1 160.61037018951995 3.1211883709049051 -80.305185094759977 #
point $-1 160.61037018951995 -3.1211883709049051 -80.305185094759977 #
straight-curve $-1 -160.61037018951995 0 80.305185094759977 0 -1 0 I I #
point $-1 -160.61037018951995 3.1211883709049051 80.305185094759977 #
point $-1 -160.61037018951995 -3.1211883709049051 80.305185094759977 #
straight-curve $-1 160.61037018951995 -3.1211883709049051 0 0 0 -1 I I #
straight-curve $-1 160.61037018951995 3.1211883709049051 0 0 0 -1 I I #
edge $-1 $881 1 $881 0 $616 $-1 forward 7 unknown #
point $-1 0.5 0 -0.25 #
edge $-1 $882 1 $882 0 $620 $-1 forward 7 unknown #
point $-1 0.5 0 -0.25 #
plane-surface $-1 160.61037018951995 0 0 -1 0 0 0 0 1 forward_v I I I I #
coedge $-1 $629 $627 $631 $810 reversed $402 $-1 #
edge $-1 $642 -80.305185094759977 $812 80.305185094759977 $641 $883 forward 7 unknown #
vertex $-1 $810 $884 #
straight-curve $-1 -160.61037018951995 -2.8352190014027521 0 0 0 -1 I I #
edge $-1 $808 -2.8352190014027521 $812 2.8352190014027521 $806 $885 forward 7 unknown #
straight-curve $-1 0 -2.8352190014027521 -80.305185094759977 -1 0 0 I I #
vertex $-1 $634 $886 #
straight-curve $-1 0 2.8352190014027521 -80.305185094759977 1 0 0 I I #
point $-1 160.61037018951995 2.8352190014027521 -80.305185094759977 #
point $-1 160.61037018951995 -2.8352190014027521 -80.305185094759977 #
straight-curve $-1 -160.61037018951995 0 80.305185094759977 0 -1 0 I I #
point $-1 -160.61037018951995 2.8352190014027521 80.305185094759977 #
point $-1 -160.61037018951995 -2.8352190014027521 80.305185094759977 #
straight-curve $-1 160.61037018951995 -2.8352190014027521 0 0 0 -1 I I #
straight-curve $-1 160.61037018951995 2.8352190014027521 0 0 0 -1 I I #
edge $-1 $887 1 $887 0 $651 $-1 forward 7 unknown #
point $-1 1 0 -0.5 #
plane-surface $-1 160.61037018951995 0 0 -1 0 0 0 0 1 forward_v I I I I #
coedge $-1 $660 $658 $662 $828 reversed $426 $-1 #
edge $-1 $673 -80.305185094759977 $830 80.305185094759977 $672 $888 forward 7 unknown #
vertex $-1 $828 $889 #
straight-curve $-1 -160.61037018951995 -2.8352190014027521 0 0 0 -1 I I #
edge $-1 $826 -2.8352190014027521 $830 2.8352190014027521 $824 $890 forward 7 unknown #
straight-curve $-1 0 -2.8352190014027521 -80.305185094759977 -1 0 0 I I #
vertex $-1 $665 $891 #
straight-curve $-1 0 2.8352190014027521 -80.305185094759977 1 0 0 I I #
point $-1 160.61037018951995 2.8352190014027521 -80.305185094759977 #
point $-1 160.61037018951995 -2.8352190014027521 -80.305185094759977 #
straight-curve $-1 -160.61037018951995 0 80.305185094759977 0 -1 0 I I #
point $-1 -160.61037018951995 2.8352190014027521 80.305185094759977 #
point $-1 -160.61037018951995 -2.8352190014027521 80.305185094759977 #
straight-curve $-1 160.61037018951995 -2.8352190014027521 0 0 0 -1 I I #
straight-curve $-1 160.61037018951995 2.8352190014027521 0 0 0 -1 I I #
edge $-1 $892 1 $892 0 $682 $-1 forward 7 unknown #
point $-1 1 0 -0.5 #
plane-surface $-1 160.61037018951995 0 0 -1 0 0 0 0 1 forward_v I I I I #
coedge $-1 $691 $689 $693 $846 reversed $450 $-1 #
edge $-1 $704 -80.305185094759977 $848 80.305185094759977 $703 $893 forward 7 unknown #
vertex $-1 $846 $894 #
straight-curve $-1 -160.61037018951995 -2.8352190014027521 0 0 0 -1 I I #
edge $-1 $844 -2.8352190014027521 $848 2.8352190014027521 $842 $895 forward 7 unknown #
straight-curve $-1 0 -2.8352190014027521 -80.305185094759977 -1 0 0 I I #
vertex $-1 $696 $896 #
straight-curve $-1 0 2.8352190014027521 -80.305185094759977 1 0 0 I I #
point $-1 160.61037018951995 2.8352190014027521 -80.305185094759977 #
point $-1 160.61037018951995 -2.8352190014027521 -80.305185094759977 #
straight-curve $-1 -160.61037018951995 0 80.305185094759977 0 -1 0 I I #
point $-1 -160.61037018951995 2.8352190014027521 80.305185094759977 #
point $-1 -160.61037018951995 -2.8352190014027521 80.305185094759977 #
straight-curve $-1 160.61037018951995 -2.8352190014027521 0 0 0 -1 I I #
straight-curve $-1 160.61037018951995 2.8352190014027521 0 0 0 -1 I I #
edge $-1 $897 1 $897 0 $713 $-1 forward 7 unknown #
point $-1 1 0 -0.5 #
straight-curve $-1 -40.152592547379989 20.687156815847317 0 0 0 -1 I I #
point $-1 -40.152592547379989 -20.687156815847317 -6.6835672536272606 #
straight-curve $-1 -40.152592547379989 0 -6.6835672536272606 0 1 0 I I #
point $-1 -40.152592547379989 20.687156815847317 -6.6835672536272606 #
straight-curve $-1 -40.152592547379989 4.0834847875247036 0 0 0 -1 I I #
point $-1 -40.152592547379989 -4.0834847875247036 -1.5 #
straight-curve $-1 -40.152592547379989 0 -1.5 0 1 0 I I #
point $-1 -40.152592547379989 4.0834847875247036 -1.5 #
straight-curve $-1 -40.152592547379989 4.0834847875247036 0 0 0 -1 I I #
point $-1 -40.152592547379989 -4.0834847875247036 -1.5 #
straight-curve $-1 -40.152592547379989 0 -1.5 0 1 0 I I #
point $-1 -40.152592547379989 4.0834847875247036 -1.5 #
straight-curve $-1 -160.61037018951995 3.1211883709049051 0 0 0 -1 I I #
point $-1 -160.61037018951995 -3.1211883709049051 -80.305185094759977 #
straight-curve $-1 -160.61037018951995 0 -80.305185094759977 0 1 0 I I #
point $-1 -160.61037018951995 3.1211883709049051 -80.305185094759977 #
vertex $-1 $781 $898 #
vertex $-1 $783 $899 #
straight-curve $-1 -160.61037018951995 3.1211883709049051 0 0 0 -1 I I #
point $-1 -160.61037018951995 -3.1211883709049051 -80.305185094759977 #
straight-curve $-1 -160.61037018951995 0 -80.305185094759977 0 1 0 I I #
point $-1 -160.61037018951995 3.1211883709049051 -80.305185094759977 #
vertex $-1 $801 $900 #
vertex $-1 $803 $901 #
straight-curve $-1 -160.61037018951995 2.8352190014027521 0 0 0 -1 I I #
point $-1 -160.61037018951995 -2.8352190014027521 -80.305185094759977 #
straight-curve $-1 -160.61037018951995 0 -80.305185094759977 0 1 0 I I #
point $-1 -160.61037018951995 2.8352190014027521 -80.305185094759977 #
vertex $-1 $821 $902 #
straight-curve $-1 -160.61037018951995 2.8352190014027521 0 0 0 -1 I I #
point $-1 -160.61037018951995 -2.8352190014027521 -80.305185094759977 #
straight-curve $-1 -160.61037018951995 0 -80.305185094759977 0 1 0 I I #
point $-1 -160.61037018951995 2.8352190014027521 -80.305185094759977 #
vertex $-1 $839 $903 #
straight-curve $-1 -160.61037018951995 2.8352190014027521 0 0 0 -1 I I #
point $-1 -160.61037018951995 -2.8352190014027521 -80.305185094759977 #
straight-curve $-1 -160.61037018951995 0 -80.305185094759977 0 1 0 I I #
point $-1 -160.61037018951995 2.8352190014027521 -80.305185094759977 #
vertex $-1 $857 $904 #
point $-1 0 0 0.25 #
point $-1 0 0 0.25 #
point $-1 0 0 0.25 #
point $-1 0 0 0.25 #
point $-1 0 0 0.5 #
point $-1 0 0 0.5 #
point $-1 0 0 0.5 #
End-of-ACIS-data 