500 0 10 0           
7 Unknown 11 ACIS 5.0 NT 24 Fri Mar 26 15:52:17 1999 
-1 9.9999999999999995e-007 1e-010 
body $-1 $10 $-1 $11 #
body $-1 $12 $-1 $13 #
body $-1 $14 $-1 $15 #
body $-1 $16 $-1 $17 #
body $-1 $18 $-1 $19 #
body $-1 $20 $-1 $21 #
body $-1 $22 $-1 $23 #
body $-1 $24 $-1 $25 #
body $-1 $26 $-1 $27 #
body $-1 $28 $-1 $29 #
lump $-1 $-1 $30 $0 #
transform $-1 1 0 0 0 1 0 0 0 1 76.107058931241795 41.247438481897966 10.275165299000225 1 rotate no_reflect no_shear #
lump $-1 $-1 $31 $1 #
transform $-1 1 0 0 0 1 0 0 0 1 76.107058931241795 41.247438481897966 10.275165299000225 1 rotate no_reflect no_shear #
lump $-1 $-1 $32 $2 #
transform $-1 1 0 0 0 1 0 0 0 1 76.107058931241795 41.247438481897966 10.275165299000225 1 rotate no_reflect no_shear #
lump $-1 $-1 $33 $3 #
transform $-1 1 0 0 0 1 0 0 0 1 76.107058931241795 41.247438481897966 10.275165299000225 1 rotate no_reflect no_shear #
lump $-1 $-1 $34 $4 #
transform $-1 1 0 0 0 1 0 0 0 1 76.107058931241795 41.247438481897966 10.275165299000225 1 rotate no_reflect no_shear #
lump $-1 $-1 $35 $5 #
transform $-1 1 0 0 0 1 0 0 0 1 76.107058931241795 41.247438481897966 10.275165299000225 1 rotate no_reflect no_shear #
lump $-1 $-1 $36 $6 #
transform $-1 1 0 0 0 1 0 0 0 1 76.107058931241795 41.247438481897966 10.275165299000225 1 rotate no_reflect no_shear #
lump $-1 $-1 $37 $7 #
transform $-1 1 0 0 0 1 0 0 0 1 76.107058931241795 41.247438481897966 10.275165299000225 1 rotate no_reflect no_shear #
lump $-1 $-1 $38 $8 #
transform $-1 1 0 0 0 1 0 0 0 1 76.107058931241795 41.247438481897966 10.275165299000225 1 rotate no_reflect no_shear #
lump $-1 $-1 $39 $9 #
transform $-1 1 0 0 0 1 0 0 0 1 76.107058931241795 41.247438481897966 10.275165299000225 1 rotate no_reflect no_shear #
shell $-1 $-1 $-1 $40 $-1 $10 #
shell $-1 $-1 $-1 $41 $-1 $12 #
shell $-1 $-1 $-1 $42 $-1 $14 #
shell $-1 $-1 $-1 $43 $-1 $16 #
shell $-1 $-1 $-1 $44 $-1 $18 #
shell $-1 $-1 $-1 $45 $-1 $20 #
shell $-1 $-1 $-1 $46 $-1 $22 #
shell $-1 $-1 $-1 $47 $-1 $24 #
shell $-1 $-1 $-1 $48 $-1 $26 #
shell $-1 $-1 $-1 $49 $-1 $28 #
face $-1 $50 $51 $30 $-1 $52 forward single #
face $-1 $53 $54 $31 $-1 $55 forward single #
face $-1 $56 $57 $32 $-1 $58 reversed single #
face $-1 $59 $60 $33 $-1 $61 forward single #
face $-1 $62 $63 $34 $-1 $64 forward single #
face $-1 $65 $66 $35 $-1 $67 forward single #
face $-1 $68 $69 $36 $-1 $70 reversed single #
face $-1 $71 $72 $37 $-1 $73 forward single #
face $-1 $74 $75 $38 $-1 $76 forward single #
face $-1 $77 $78 $39 $-1 $79 forward single #
face $-1 $80 $81 $30 $-1 $82 reversed single #
loop $-1 $-1 $83 $40 #
plane-surface $-1 0 0 10.275165299000225 0 0 1 1 0 0 forward_v I I I I #
face $-1 $84 $85 $31 $-1 $86 reversed single #
loop $-1 $-1 $87 $41 #
plane-surface $-1 0 -41.247438481897966 0 0 1 0 0 0 1 forward_v I I I I #
face $-1 $88 $89 $32 $-1 $90 reversed single #
loop $-1 $-1 $91 $42 #
plane-surface $-1 24.030162301792018 26.372077160469559 213.72876256925625 0 1 0 0.51503808176128008 0 0.85716729658548041 forward_v I I I I #
face $-1 $92 $93 $33 $-1 $94 forward single #
loop $-1 $95 $96 $43 #
cone-surface $-1 70.787944121706957 29.347149424755251 6.2148599522332892 -0.51503808176128008 0 -0.85716729658548041 0.85716729658548041 0 -0.51503808176128008 1 I I 0 1 1 forward I I I I #
face $-1 $97 $98 $34 $-1 $99 forward single #
loop $-1 $100 $101 $44 #
cone-surface $-1 70.787944121706957 33.809757821183773 6.2148599522332892 -0.51503808176128008 0 -0.85716729658548041 0.85716729658548041 0 -0.51503808176128008 1 I I 0 1 1 forward I I I I #
face $-1 $102 $103 $35 $-1 $104 forward single #
loop $-1 $105 $106 $45 #
cone-surface $-1 70.787944121706957 38.272366217612294 6.2148599522332892 -0.51503808176128008 0 -0.85716729658548041 0.85716729658548041 0 -0.51503808176128008 1 I I 0 1 1 forward I I I I #
face $-1 $107 $108 $36 $-1 $109 reversed single #
loop $-1 $-1 $110 $46 #
plane-surface $-1 -154.50312621212078 26.372077160469559 135.33269528837729 0 1 0 -0.51503808176128008 0 0.85716729658548041 forward_v I I I I #
face $-1 $111 $112 $37 $-1 $113 forward single #
loop $-1 $114 $115 $47 #
cone-surface $-1 -70.787944121706971 29.347149424755251 6.2148599522332875 0.51503808176128008 0 -0.85716729658548041 0.85716729658548041 0 0.51503808176128008 1 I I 0 1 1 forward I I I I #
face $-1 $116 $117 $38 $-1 $118 forward single #
loop $-1 $119 $120 $48 #
cone-surface $-1 -70.787944121706971 33.809757821183773 6.2148599522332875 0.51503808176128008 0 -0.85716729658548041 0.85716729658548041 0 0.51503808176128008 1 I I 0 1 1 forward I I I I #
face $-1 $121 $122 $39 $-1 $123 forward single #
loop $-1 $124 $125 $49 #
cone-surface $-1 -70.787944121706971 38.272366217612294 6.2148599522332875 0.51503808176128008 0 -0.85716729658548041 0.85716729658548041 0 0.51503808176128008 1 I I 0 1 1 forward I I I I #
face $-1 $126 $127 $30 $-1 $128 reversed single #
loop $-1 $-1 $129 $50 #
plane-surface $-1 0 0 -10.275165299000225 0 0 1 1 0 0 forward_v I I I I #
coedge $-1 $130 $131 $132 $133 forward $51 $-1 #
face $-1 $134 $135 $31 $-1 $136 forward single #
loop $-1 $-1 $137 $53 #
plane-surface $-1 -76.107058931241795 0 0 1 0 0 0 0 -1 forward_v I I I I #
coedge $-1 $138 $139 $140 $141 forward $54 $-1 #
face $-1 $142 $143 $32 $-1 $144 forward single #
loop $-1 $-1 $145 $56 #
plane-surface $-1 -54.36590497908692 33.809757821183759 83.255798658927517 0.51503808176128008 0 0.85716729658548041 0.85716729658548041 0 -0.51503808176128008 forward_v I I I I #
coedge $-1 $146 $147 $148 $149 reversed $57 $-1 #
face $-1 $-1 $150 $33 $-1 $151 forward single #
loop $-1 $152 $153 $59 #
cone-surface $-1 69.717707971035736 29.347149424755251 4.433687917649447 -0.51503808176128008 0 -0.85716729658548041 0.4285836482927402 0 -0.25751904088064004 1 I I -0.70710678118654746 0.70710678118654746 0.5 forward I I I I #
loop $-1 $-1 $154 $43 #
coedge $-1 $96 $96 $155 $156 reversed $60 $-1 #
face $-1 $-1 $157 $34 $-1 $158 forward single #
loop $-1 $159 $160 $62 #
cone-surface $-1 69.717707971035736 33.809757821183773 4.433687917649447 -0.51503808176128008 0 -0.85716729658548041 0.4285836482927402 0 -0.25751904088064004 1 I I -0.70710678118654746 0.70710678118654746 0.5 forward I I I I #
loop $-1 $-1 $161 $44 #
coedge $-1 $101 $101 $162 $163 reversed $63 $-1 #
face $-1 $-1 $164 $35 $-1 $165 forward single #
loop $-1 $166 $167 $65 #
cone-surface $-1 69.717707971035736 38.272366217612294 4.433687917649447 -0.51503808176128008 0 -0.85716729658548041 0.4285836482927402 0 -0.25751904088064004 1 I I -0.70710678118654746 0.70710678118654746 0.5 forward I I I I #
loop $-1 $-1 $168 $45 #
coedge $-1 $106 $106 $169 $170 reversed $66 $-1 #
face $-1 $171 $172 $36 $-1 $173 reversed single #
loop $-1 $-1 $174 $68 #
plane-surface $-1 -76.107058931241838 33.809757821183759 4.8597313780485649 -0.51503808176128008 0 0.85716729658548041 0.85716729658548041 0 0.51503808176128008 forward_v I I I I #
coedge $-1 $175 $176 $177 $178 reversed $69 $-1 #
face $-1 $-1 $179 $37 $-1 $180 forward single #
loop $-1 $181 $182 $71 #
cone-surface $-1 -69.71770797103575 29.347149424755251 4.4336879176494453 0.51503808176128008 0 -0.85716729658548041 0.4285836482927402 0 0.25751904088064004 1 I I -0.70710678118654746 0.70710678118654746 0.5 forward I I I I #
loop $-1 $-1 $183 $47 #
coedge $-1 $115 $115 $184 $185 reversed $72 $-1 #
face $-1 $-1 $186 $38 $-1 $187 forward single #
loop $-1 $188 $189 $74 #
cone-surface $-1 -69.71770797103575 33.809757821183773 4.4336879176494453 0.51503808176128008 0 -0.85716729658548041 0.4285836482927402 0 0.25751904088064004 1 I I -0.70710678118654746 0.70710678118654746 0.5 forward I I I I #
loop $-1 $-1 $190 $48 #
coedge $-1 $120 $120 $191 $192 reversed $75 $-1 #
face $-1 $-1 $193 $39 $-1 $194 forward single #
loop $-1 $195 $196 $77 #
cone-surface $-1 -69.71770797103575 38.272366217612294 4.4336879176494453 0.51503808176128008 0 -0.85716729658548041 0.4285836482927402 0 0.25751904088064004 1 I I -0.70710678118654746 0.70710678118654746 0.5 forward I I I I #
loop $-1 $-1 $197 $49 #
coedge $-1 $125 $125 $198 $199 reversed $78 $-1 #
face $-1 $200 $201 $30 $-1 $202 reversed single #
loop $-1 $-1 $203 $80 #
plane-surface $-1 0 -41.247438481897966 0 0 1 0 0 0 1 forward_v I I I I #
coedge $-1 $204 $205 $206 $207 forward $81 $-1 #
coedge $-1 $208 $83 $209 $210 forward $51 $-1 #
coedge $-1 $83 $208 $211 $212 forward $51 $-1 #
coedge $-1 $213 $214 $83 $133 reversed $215 $-1 #
edge $-1 $216 -41.247438481897966 $217 41.247438481897966 $132 $218 forward 7 unknown #
face $-1 $219 $220 $31 $-1 $221 reversed single #
loop $-1 $-1 $222 $84 #
plane-surface $-1 0 -47.227163230727591 -2.2651336761686984 0 0 1 1 0 0 forward_v I I I I #
coedge $-1 $223 $224 $139 $225 forward $85 $-1 #
coedge $-1 $226 $87 $227 $228 reversed $54 $-1 #
coedge $-1 $87 $226 $137 $225 reversed $54 $-1 #
coedge $-1 $229 $222 $87 $141 reversed $135 $-1 #
edge $-1 $230 -76.107058931241795 $231 76.107058931241795 $140 $232 forward 7 unknown #
face $-1 $233 $234 $32 $-1 $235 reversed single #
loop $-1 $-1 $236 $88 #
plane-surface $-1 0 0 10.275165299000225 0 0 1 1 0 0 forward_v I I I I #
coedge $-1 $237 $238 $239 $240 reversed $89 $-1 #
coedge $-1 $147 $91 $241 $242 reversed $57 $-1 #
coedge $-1 $91 $146 $237 $243 reversed $57 $-1 #
coedge $-1 $239 $244 $91 $149 forward $234 $-1 #
edge $-1 $245 96.589215985627902 $246 102.00464990657952 $148 $247 forward 7 unknown #
loop $-1 $-1 $155 $92 #
plane-surface $-1 -54.36590497908692 33.809757821183759 83.255798658927517 0.51503808176128008 0 0.85716729658548041 0.85716729658548041 0 -0.51503808176128008 forward_v I I I I #
loop $-1 $-1 $248 $59 #
coedge $-1 $153 $153 $154 $249 reversed $93 $-1 #
coedge $-1 $154 $154 $153 $249 forward $95 $-1 #
coedge $-1 $155 $155 $96 $156 forward $150 $-1 #
edge $-1 $250 0 $250 6.2831853071796004 $155 $251 forward 7 unknown #
loop $-1 $-1 $162 $97 #
plane-surface $-1 -54.36590497908692 33.809757821183759 83.255798658927517 0.51503808176128008 0 0.85716729658548041 0.85716729658548041 0 -0.51503808176128008 forward_v I I I I #
loop $-1 $-1 $252 $62 #
coedge $-1 $160 $160 $161 $253 reversed $98 $-1 #
coedge $-1 $161 $161 $160 $253 forward $100 $-1 #
coedge $-1 $162 $162 $101 $163 forward $157 $-1 #
edge $-1 $254 0 $254 6.2831853071796004 $162 $255 forward 7 unknown #
loop $-1 $-1 $169 $102 #
plane-surface $-1 -54.36590497908692 33.809757821183759 83.255798658927517 0.51503808176128008 0 0.85716729658548041 0.85716729658548041 0 -0.51503808176128008 forward_v I I I I #
loop $-1 $-1 $256 $65 #
coedge $-1 $167 $167 $168 $257 reversed $103 $-1 #
coedge $-1 $168 $168 $167 $257 forward $105 $-1 #
coedge $-1 $169 $169 $106 $170 forward $164 $-1 #
edge $-1 $258 0 $258 6.2831853071796004 $169 $259 forward 7 unknown #
face $-1 $260 $261 $36 $-1 $262 forward single #
loop $-1 $-1 $263 $107 #
plane-surface $-1 0 41.247438481897966 0 0 -1 0 0 0 -1 forward_v I I I I #
coedge $-1 $264 $265 $266 $267 reversed $108 $-1 #
coedge $-1 $176 $110 $268 $269 reversed $69 $-1 #
coedge $-1 $110 $175 $264 $270 reversed $69 $-1 #
coedge $-1 $266 $271 $110 $178 forward $261 $-1 #
edge $-1 $272 1.1445041748185929 $273 10.157299574307046 $177 $274 forward 7 unknown #
loop $-1 $-1 $184 $111 #
plane-surface $-1 -76.107058931241838 33.809757821183759 4.8597313780485649 -0.51503808176128008 0 0.85716729658548041 0.85716729658548041 0 0.51503808176128008 forward_v I I I I #
loop $-1 $-1 $275 $71 #
coedge $-1 $182 $182 $183 $276 reversed $112 $-1 #
coedge $-1 $183 $183 $182 $276 forward $114 $-1 #
coedge $-1 $184 $184 $115 $185 forward $179 $-1 #
edge $-1 $277 0 $277 6.2831853071796004 $184 $278 forward 7 unknown #
loop $-1 $-1 $191 $116 #
plane-surface $-1 -76.107058931241838 33.809757821183759 4.8597313780485649 -0.51503808176128008 0 0.85716729658548041 0.85716729658548041 0 0.51503808176128008 forward_v I I I I #
loop $-1 $-1 $279 $74 #
coedge $-1 $189 $189 $190 $280 reversed $117 $-1 #
coedge $-1 $190 $190 $189 $280 forward $119 $-1 #
coedge $-1 $191 $191 $120 $192 forward $186 $-1 #
edge $-1 $281 0 $281 6.2831853071796004 $191 $282 forward 7 unknown #
loop $-1 $-1 $198 $121 #
plane-surface $-1 -76.107058931241838 33.809757821183759 4.8597313780485649 -0.51503808176128008 0 0.85716729658548041 0.85716729658548041 0 0.51503808176128008 forward_v I I I I #
loop $-1 $-1 $283 $77 #
coedge $-1 $196 $196 $197 $284 reversed $122 $-1 #
coedge $-1 $197 $197 $196 $284 forward $124 $-1 #
coedge $-1 $198 $198 $125 $199 forward $193 $-1 #
edge $-1 $285 0 $285 6.2831853071796004 $198 $286 forward 7 unknown #
face $-1 $287 $288 $30 $-1 $289 reversed single #
loop $-1 $-1 $290 $126 #
plane-surface $-1 -76.107058931241795 0 0 1 0 0 0 0 -1 forward_v I I I I #
coedge $-1 $291 $211 $292 $293 forward $127 $-1 #
coedge $-1 $294 $129 $291 $295 forward $81 $-1 #
coedge $-1 $129 $294 $296 $297 forward $81 $-1 #
coedge $-1 $214 $213 $129 $207 reversed $215 $-1 #
edge $-1 $298 -41.247438481897966 $299 41.247438481897966 $206 $300 forward 7 unknown #
coedge $-1 $131 $130 $301 $302 forward $51 $-1 #
coedge $-1 $303 $304 $130 $210 reversed $288 $-1 #
edge $-1 $217 -76.107058931241795 $305 76.107058931241795 $209 $306 forward 7 unknown #
coedge $-1 $203 $307 $131 $212 reversed $127 $-1 #
edge $-1 $308 -76.107058931241795 $216 76.107058931241795 $211 $309 forward 7 unknown #
coedge $-1 $206 $132 $307 $310 forward $215 $-1 #
coedge $-1 $132 $206 $303 $311 reversed $215 $-1 #
loop $-1 $-1 $213 $287 #
vertex $-1 $133 $312 #
vertex $-1 $133 $313 #
straight-curve $-1 76.107058931241795 0 10.275165299000225 0 1 0 I I #
face $-1 $314 $315 $31 $-1 $316 reversed single #
loop $-1 $-1 $317 $134 #
plane-surface $-1 0 -47.227163230727591 -7.3921485876831454 0 0 1 1 0 0 forward_v I I I I #
coedge $-1 $140 $318 $319 $320 forward $135 $-1 #
coedge $-1 $321 $137 $322 $323 reversed $85 $-1 #
coedge $-1 $137 $321 $229 $324 reversed $85 $-1 #
edge $-1 $230 2.2651336761686984 $325 7.3921485876831454 $137 $326 forward 7 unknown #
coedge $-1 $139 $138 $327 $328 forward $54 $-1 #
coedge $-1 $319 $329 $138 $228 forward $330 $-1 #
edge $-1 $331 -7.3921485876831454 $231 -2.2651336761686984 $227 $332 forward 7 unknown #
coedge $-1 $318 $140 $224 $324 forward $135 $-1 #
vertex $-1 $225 $333 #
vertex $-1 $320 $334 #
straight-curve $-1 0 -41.247438481897966 -2.2651336761686984 1 0 0 I I #
face $-1 $-1 $335 $32 $-1 $336 reversed single #
loop $-1 $-1 $148 $142 #
plane-surface $-1 76.107058931241795 0 0 -1 0 0 0 0 1 forward_v I I I I #
coedge $-1 $241 $337 $338 $339 forward $143 $-1 #
coedge $-1 $338 $145 $147 $243 forward $89 $-1 #
coedge $-1 $145 $338 $340 $341 reversed $89 $-1 #
coedge $-1 $342 $148 $145 $240 forward $234 $-1 #
edge $-1 $246 9.4671982498776792 $343 24.342559571306086 $239 $344 forward 7 unknown #
coedge $-1 $345 $236 $146 $242 forward $143 $-1 #
edge $-1 $346 55.079182380857347 $245 64.091977780345786 $241 $347 forward 7 unknown #
edge $-1 $246 -152.21411786248353 $346 -141.69948969667411 $147 $348 forward 7 unknown #
coedge $-1 $148 $342 $345 $349 reversed $234 $-1 #
vertex $-1 $349 $350 #
vertex $-1 $149 $351 #
straight-curve $-1 76.107058931241795 26.372077160469559 106.86438128462812 0 0 -1 I I #
coedge $-1 $248 $248 $-1 $352 reversed $152 $-1 #
edge $-1 $353 0 $353 6.2831853071796004 $153 $354 forward 7 unknown #
vertex $-1 $156 $355 #
ellipse-curve $-1 71.600661231497554 29.347149424755251 7.5674483385244269 0.51503808176128008 0 0.85716729658548041 0.85716729658548041 0 -0.51503808176128008 1 I I #
coedge $-1 $252 $252 $-1 $356 reversed $159 $-1 #
edge $-1 $357 0 $357 6.2831853071796004 $160 $358 forward 7 unknown #
vertex $-1 $163 $359 #
ellipse-curve $-1 71.600661231497554 33.809757821183773 7.5674483385244269 0.51503808176128008 0 0.85716729658548041 0.85716729658548041 0 -0.51503808176128008 1 I I #
coedge $-1 $256 $256 $-1 $360 reversed $166 $-1 #
edge $-1 $361 0 $361 6.2831853071796004 $167 $362 forward 7 unknown #
vertex $-1 $170 $363 #
ellipse-curve $-1 71.600661231497554 38.272366217612294 7.5674483385244269 0.51503808176128008 0 0.85716729658548041 0.85716729658548041 0 -0.51503808176128008 1 I I #
face $-1 $-1 $364 $36 $-1 $365 reversed single #
loop $-1 $-1 $266 $171 #
plane-surface $-1 0 0 10.275165299000225 0 0 1 1 0 0 forward_v I I I I #
coedge $-1 $366 $367 $265 $368 forward $172 $-1 #
coedge $-1 $369 $174 $176 $270 forward $108 $-1 #
coedge $-1 $174 $369 $263 $368 reversed $108 $-1 #
coedge $-1 $370 $177 $174 $267 forward $261 $-1 #
edge $-1 $273 9.4671982498776792 $371 24.342559571306079 $266 $372 forward 7 unknown #
coedge $-1 $373 $374 $175 $269 forward $364 $-1 #
edge $-1 $375 -62.806616266140054 $272 -57.391182345188426 $268 $376 forward 7 unknown #
edge $-1 $273 -10.514628165809519 $375 -4.98091653319756e-014 $176 $377 forward 7 unknown #
coedge $-1 $177 $370 $373 $378 forward $261 $-1 #
vertex $-1 $269 $379 #
vertex $-1 $178 $380 #
straight-curve $-1 -77.251563106060388 26.372077160469559 10.275165299000221 1 0 0 I I #
coedge $-1 $275 $275 $-1 $381 reversed $181 $-1 #
edge $-1 $382 0 $382 6.2831853071796004 $182 $383 forward 7 unknown #
vertex $-1 $185 $384 #
ellipse-curve $-1 -71.600661231497568 29.347149424755251 7.5674483385244127 -0.51503808176128008 0 0.85716729658548041 0.85716729658548041 0 0.51503808176128008 1 I I #
coedge $-1 $279 $279 $-1 $385 reversed $188 $-1 #
edge $-1 $386 0 $386 6.2831853071796004 $189 $387 forward 7 unknown #
vertex $-1 $192 $388 #
ellipse-curve $-1 -71.600661231497568 33.809757821183773 7.5674483385244127 -0.51503808176128008 0 0.85716729658548041 0.85716729658548041 0 0.51503808176128008 1 I I #
coedge $-1 $283 $283 $-1 $389 reversed $195 $-1 #
edge $-1 $390 0 $390 6.2831853071796004 $196 $391 forward 7 unknown #
vertex $-1 $199 $392 #
ellipse-curve $-1 -71.600661231497568 38.272366217612294 7.5674483385244127 -0.51503808176128008 0 0.85716729658548041 0.85716729658548041 0 0.51503808176128008 1 I I #
face $-1 $-1 $215 $30 $-1 $393 reversed single #
loop $-1 $-1 $303 $200 #
plane-surface $-1 0 41.247438481897966 0 0 -1 0 0 0 -1 forward_v I I I I #
coedge $-1 $394 $301 $304 $395 forward $201 $-1 #
coedge $-1 $307 $203 $204 $295 reversed $127 $-1 #
coedge $-1 $301 $394 $203 $293 reversed $201 $-1 #
edge $-1 $308 -10.275165299000225 $396 10.275165299000225 $292 $397 forward 7 unknown #
coedge $-1 $205 $204 $394 $398 forward $81 $-1 #
edge $-1 $299 -76.107058931241795 $396 76.107058931241795 $291 $399 forward 7 unknown #
coedge $-1 $304 $303 $205 $297 reversed $288 $-1 #
edge $-1 $400 -76.107058931241795 $298 76.107058931241795 $296 $401 forward 7 unknown #
vertex $-1 $207 $402 #
vertex $-1 $310 $403 #
straight-curve $-1 76.107058931241795 0 -10.275165299000225 0 -1 0 I I #
coedge $-1 $290 $292 $208 $302 reversed $201 $-1 #
edge $-1 $305 -41.247438481897966 $308 41.247438481897966 $301 $404 forward 7 unknown #
coedge $-1 $296 $209 $214 $311 forward $288 $-1 #
coedge $-1 $209 $296 $290 $395 reversed $288 $-1 #
vertex $-1 $210 $405 #
straight-curve $-1 0 41.247438481897966 10.275165299000225 -1 0 0 I I #
coedge $-1 $211 $291 $213 $310 reversed $127 $-1 #
vertex $-1 $302 $406 #
straight-curve $-1 0 -41.247438481897966 10.275165299000225 1 0 0 I I #
edge $-1 $216 -10.275165299000225 $299 10.275165299000225 $213 $407 forward 7 unknown #
edge $-1 $217 -10.275165299000225 $298 10.275165299000225 $214 $408 forward 7 unknown #
point $-1 76.107058931241795 -41.247438481897966 10.275165299000225 #
point $-1 76.107058931241795 41.247438481897966 10.275165299000225 #
face $-1 $-1 $330 $31 $-1 $409 reversed single #
loop $-1 $-1 $410 $219 #
plane-surface $-1 0 -53.206887979557216 -4.8286411319259219 0 1 0 0 0 1 forward_v I I I I #
coedge $-1 $411 $327 $329 $412 forward $220 $-1 #
coedge $-1 $222 $229 $413 $414 forward $135 $-1 #
coedge $-1 $415 $227 $222 $320 reversed $330 $-1 #
edge $-1 $416 -5.979724748829625 $231 5.979724748829625 $319 $417 forward 7 unknown #
coedge $-1 $224 $223 $410 $418 reversed $85 $-1 #
coedge $-1 $327 $411 $223 $323 forward $220 $-1 #
edge $-1 $419 -5.979724748829625 $325 5.979724748829625 $223 $420 forward 7 unknown #
edge $-1 $230 -5.979724748829625 $421 5.979724748829625 $224 $422 forward 7 unknown #
vertex $-1 $225 $423 #
straight-curve $-1 -76.107058931241795 -41.247438481897966 0 0 0 -1 I I #
coedge $-1 $317 $322 $226 $328 reversed $220 $-1 #
edge $-1 $331 -76.107058931241795 $325 76.107058931241795 $327 $424 forward 7 unknown #
coedge $-1 $227 $415 $317 $412 reversed $330 $-1 #
loop $-1 $-1 $227 $314 #
vertex $-1 $228 $425 #
straight-curve $-1 76.107058931241795 -41.247438481897966 0 0 0 1 I I #
point $-1 -76.107058931241795 -41.247438481897966 -2.2651336761686984 #
point $-1 76.107058931241795 -41.247438481897966 -2.2651336761686984 #
loop $-1 $-1 $340 $233 #
plane-surface $-1 0 41.247438481897966 0 0 -1 0 0 0 -1 forward_v I I I I #
coedge $-1 $236 $345 $426 $427 forward $143 $-1 #
coedge $-1 $238 $237 $236 $339 reversed $89 $-1 #
edge $-1 $428 -24.342559571306079 $346 -9.4671982498776792 $236 $429 forward 7 unknown #
coedge $-1 $426 $430 $238 $341 forward $335 $-1 #
edge $-1 $343 -107.47382654541133 $428 -96.959198379601872 $340 $431 forward 7 unknown #
coedge $-1 $244 $239 $430 $432 reversed $234 $-1 #
vertex $-1 $240 $433 #
straight-curve $-1 76.107058931241795 16.904878910591879 4.8597313780486004 0 1 0 I I #
coedge $-1 $337 $241 $244 $349 forward $143 $-1 #
vertex $-1 $242 $434 #
straight-curve $-1 12.015081150896009 26.372077160469559 10.275165299000221 1 0 0 I I #
straight-curve $-1 -54.36590497908692 26.372077160469559 83.255798658927517 -0.85716729658548041 0 0.51503808176128008 I I #
edge $-1 $245 26.372077160469559 $435 41.247438481897966 $244 $436 forward 7 unknown #
point $-1 76.107058931241795 26.372077160469559 10.275165299000225 #
point $-1 76.107058931241781 26.372077160469559 4.8597313780486076 #
edge $-1 $437 1 $437 0 $248 $-1 forward 7 unknown #
vertex $-1 $249 $438 #
ellipse-curve $-1 69.975227011916374 29.347149424755251 4.8622715659421871 0.51503808176128008 0 0.85716729658548041 0.85716729658548041 0 -0.51503808176128008 1 I I #
point $-1 72.457828528083013 29.347149424755251 7.0524102567631122 #
edge $-1 $439 1 $439 0 $252 $-1 forward 7 unknown #
vertex $-1 $253 $440 #
ellipse-curve $-1 69.975227011916374 33.809757821183773 4.8622715659421871 0.51503808176128008 0 0.85716729658548041 0.85716729658548041 0 -0.51503808176128008 1 I I #
point $-1 72.457828528083013 33.809757821183773 7.0524102567631122 #
edge $-1 $441 1 $441 0 $256 $-1 forward 7 unknown #
vertex $-1 $257 $442 #
ellipse-curve $-1 69.975227011916374 38.272366217612294 4.8622715659421871 0.51503808176128008 0 0.85716729658548041 0.85716729658548041 0 -0.51503808176128008 1 I I #
point $-1 72.457828528083013 38.272366217612294 7.0524102567631122 #
loop $-1 $-1 $268 $260 #
plane-surface $-1 -76.107058931241795 0 0 1 0 0 0 0 -1 forward_v I I I I #
coedge $-1 $367 $263 $443 $444 reversed $172 $-1 #
coedge $-1 $263 $366 $370 $445 reversed $172 $-1 #
edge $-1 $371 20.852139448360067 $446 31.366767614169532 $263 $447 forward 7 unknown #
coedge $-1 $265 $264 $374 $448 reversed $108 $-1 #
coedge $-1 $271 $266 $367 $445 forward $261 $-1 #
vertex $-1 $445 $449 #
straight-curve $-1 -67.094263531753356 16.904878910591879 10.275165299000223 0 1 0 I I #
coedge $-1 $443 $268 $271 $378 reversed $364 $-1 #
coedge $-1 $268 $443 $369 $448 forward $364 $-1 #
vertex $-1 $269 $450 #
straight-curve $-1 -76.107058931241795 26.372077160469559 67.666347644188647 0 0 1 I I #
straight-curve $-1 -76.107058931241838 26.372077160469559 4.8597313780485649 -0.85716729658548041 0 -0.51503808176128008 I I #
edge $-1 $451 -41.247438481897966 $272 -26.372077160469559 $373 $452 forward 7 unknown #
point $-1 -76.107058931241795 26.372077160469559 10.275165299000225 #
point $-1 -67.094263531753342 26.372077160469559 10.275165299000225 #
edge $-1 $453 1 $453 0 $275 $-1 forward 7 unknown #
vertex $-1 $276 $454 #
ellipse-curve $-1 -69.975227011916388 29.347149424755251 4.8622715659421853 -0.51503808176128008 0 0.85716729658548041 0.85716729658548041 0 0.51503808176128008 1 I I #
point $-1 -70.743493934912067 29.347149424755251 8.0824864202856705 #
edge $-1 $455 1 $455 0 $279 $-1 forward 7 unknown #
vertex $-1 $280 $456 #
ellipse-curve $-1 -69.975227011916388 33.809757821183773 4.8622715659421853 -0.51503808176128008 0 0.85716729658548041 0.85716729658548041 0 0.51503808176128008 1 I I #
point $-1 -70.743493934912067 33.809757821183773 8.0824864202856705 #
edge $-1 $457 1 $457 0 $283 $-1 forward 7 unknown #
vertex $-1 $284 $458 #
ellipse-curve $-1 -69.975227011916388 38.272366217612294 4.8622715659421853 -0.51503808176128008 0 0.85716729658548041 0.85716729658548041 0 0.51503808176128008 1 I I #
point $-1 -70.743493934912067 38.272366217612294 8.0824864202856705 #
plane-surface $-1 76.107058931241795 0 0 -1 0 0 0 0 1 forward_v I I I I #
coedge $-1 $292 $290 $294 $398 reversed $201 $-1 #
edge $-1 $305 -10.275165299000225 $400 10.275165299000225 $304 $459 forward 7 unknown #
vertex $-1 $398 $460 #
straight-curve $-1 -76.107058931241795 -41.247438481897966 0 0 0 -1 I I #
edge $-1 $396 -41.247438481897966 $400 41.247438481897966 $394 $461 forward 7 unknown #
straight-curve $-1 0 -41.247438481897966 -10.275165299000225 -1 0 0 I I #
vertex $-1 $297 $462 #
straight-curve $-1 0 41.247438481897966 -10.275165299000225 1 0 0 I I #
point $-1 76.107058931241795 41.247438481897966 -10.275165299000225 #
point $-1 76.107058931241795 -41.247438481897966 -10.275165299000225 #
straight-curve $-1 -76.107058931241795 0 10.275165299000225 0 -1 0 I I #
point $-1 -76.107058931241795 41.247438481897966 10.275165299000225 #
point $-1 -76.107058931241795 -41.247438481897966 10.275165299000225 #
straight-curve $-1 76.107058931241795 -41.247438481897966 0 0 0 -1 I I #
straight-curve $-1 76.107058931241795 41.247438481897966 0 0 0 -1 I I #
plane-surface $-1 76.107058931241795 0 0 -1 0 0 0 0 1 forward_v I I I I #
coedge $-1 $463 $413 $321 $418 forward $315 $-1 #
coedge $-1 $322 $317 $463 $464 forward $220 $-1 #
edge $-1 $331 -5.979724748829625 $465 5.979724748829625 $329 $466 forward 7 unknown #
coedge $-1 $410 $467 $318 $414 reversed $315 $-1 #
edge $-1 $421 -76.107058931241795 $416 76.107058931241795 $413 $468 forward 7 unknown #
coedge $-1 $329 $319 $467 $469 forward $330 $-1 #
vertex $-1 $320 $470 #
straight-curve $-1 76.107058931241795 -47.227163230727591 -2.2651336761686984 0 1 0 I I #
edge $-1 $421 -2.5635074557572235 $419 2.5635074557572235 $321 $471 forward 7 unknown #
vertex $-1 $323 $472 #
straight-curve $-1 -76.107058931241795 -47.227163230727591 -7.3921485876831454 0 1 0 I I #
vertex $-1 $324 $473 #
straight-curve $-1 -76.107058931241795 -47.227163230727591 -2.2651336761686984 0 -1 0 I I #
point $-1 -76.107058931241795 -41.247438481897966 -7.3921485876831454 #
straight-curve $-1 0 -41.247438481897966 -7.3921485876831454 -1 0 0 I I #
point $-1 76.107058931241795 -41.247438481897966 -7.3921485876831454 #
coedge $-1 $430 $340 $337 $427 reversed $335 $-1 #
edge $-1 $435 -76.107058931241795 $428 -67.094263531753356 $426 $474 forward 7 unknown #
vertex $-1 $341 $475 #
straight-curve $-1 67.094263531753342 16.904878910591879 10.275165299000221 0 -1 0 I I #
coedge $-1 $340 $426 $342 $432 forward $335 $-1 #
straight-curve $-1 -16.015990422385286 41.247438481897966 60.212844841541788 -0.85716729658548041 0 0.51503808176128008 I I #
edge $-1 $435 -10.275165299000225 $343 -4.8597313780486031 $342 $476 forward 7 unknown #
point $-1 76.107058931241795 41.247438481897966 4.8597313780486031 #
point $-1 67.094263531753356 26.372077160469559 10.275165299000221 #
vertex $-1 $349 $477 #
straight-curve $-1 76.107058931241795 0 10.275165299000225 0 1 0 I I #
vertex $-1 $352 $478 #
point $-1 70.832394308501861 29.347149424755251 4.347233484180907 #
vertex $-1 $356 $479 #
point $-1 70.832394308501861 33.809757821183773 4.347233484180907 #
vertex $-1 $360 $480 #
point $-1 70.832394308501861 38.272366217612294 4.347233484180907 #
coedge $-1 $374 $373 $366 $444 forward $364 $-1 #
edge $-1 $451 -10.275165299000225 $446 -4.8597313780485907 $366 $481 forward 7 unknown #
edge $-1 $371 67.094263531753342 $451 76.107058931241795 $367 $482 forward 7 unknown #
vertex $-1 $368 $483 #
straight-curve $-1 -49.220491532779093 41.247438481897966 21.014811201102312 -0.85716729658548041 0 -0.51503808176128008 I I #
edge $-1 $446 -24.342559571306079 $375 -9.4671982498776792 $374 $484 forward 7 unknown #
point $-1 -67.094263531753342 41.247438481897959 10.275165299000225 #
point $-1 -76.107058931241795 26.372077160469559 4.8597313780485907 #
vertex $-1 $445 $485 #
straight-curve $-1 -76.107058931241795 0 10.275165299000225 0 -1 0 I I #
vertex $-1 $381 $486 #
point $-1 -69.118059715330915 29.347149424755251 5.3773096477034654 #
vertex $-1 $385 $487 #
point $-1 -69.118059715330915 33.809757821183773 5.3773096477034654 #
vertex $-1 $389 $488 #
point $-1 -69.118059715330915 38.272366217612294 5.3773096477034654 #
straight-curve $-1 -76.107058931241795 41.247438481897966 0 0 0 -1 I I #
point $-1 -76.107058931241795 -41.247438481897966 -10.275165299000225 #
straight-curve $-1 -76.107058931241795 0 -10.275165299000225 0 1 0 I I #
point $-1 -76.107058931241795 41.247438481897966 -10.275165299000225 #
coedge $-1 $467 $410 $411 $464 reversed $315 $-1 #
edge $-1 $465 -76.107058931241795 $419 76.107058931241795 $463 $489 forward 7 unknown #
vertex $-1 $469 $490 #
straight-curve $-1 76.107058931241795 -47.227163230727591 -7.3921485876831454 0 -1 0 I I #
coedge $-1 $413 $463 $415 $469 reversed $315 $-1 #
straight-curve $-1 0 -53.206887979557216 -2.2651336761686984 1 0 0 I I #
edge $-1 $416 -2.5635074557572235 $465 2.5635074557572235 $415 $491 forward 7 unknown #
point $-1 76.107058931241795 -53.206887979557216 -2.2651336761686984 #
straight-curve $-1 -76.107058931241795 -53.206887979557216 -4.8286411319259219 0 0 -1 I I #
point $-1 -76.107058931241795 -53.206887979557216 -7.3921485876831454 #
point $-1 -76.107058931241795 -53.206887979557216 -2.2651336761686984 #
straight-curve $-1 0 41.247438481897966 10.275165299000225 -1 0 0 I I #
point $-1 67.094263531753356 41.247438481897959 10.275165299000221 #
straight-curve $-1 76.107058931241795 41.247438481897966 0 0 0 -1 I I #
point $-1 76.107058931241795 41.247438481897966 10.275165299000225 #
point $-1 69.460188930155098 29.347149424755251 4.0051042693567069 #
point $-1 69.460188930155098 33.809757821183773 4.0051042693567069 #
point $-1 69.460188930155098 38.272366217612294 4.0051042693567069 #
straight-curve $-1 -76.107058931241795 41.247438481897966 0 0 0 -1 I I #
straight-curve $-1 0 41.247438481897966 10.275165299000225 -1 0 0 I I #
point $-1 -76.107058931241795 41.247438481897959 4.8597313780485907 #
straight-curve $-1 -76.107058931241795 16.904878910591879 4.8597313780485942 0 -1 0 I I #
point $-1 -76.107058931241795 41.247438481897966 10.275165299000225 #
point $-1 -69.460188930155113 29.347149424755251 4.0051042693567052 #
point $-1 -69.460188930155113 33.809757821183773 4.0051042693567052 #
point $-1 -69.460188930155113 38.272366217612294 4.0051042693567052 #
straight-curve $-1 0 -53.206887979557216 -7.3921485876831454 -1 0 0 I I #
point $-1 76.107058931241795 -53.206887979557216 -7.3921485876831454 #
straight-curve $-1 76.107058931241795 -53.206887979557216 -4.8286411319259219 0 0 -1 I I #
End-of-ACIS-data 