500 0 7 0           
7 Unknown 11 ACIS 5.0 NT 24 Thu Mar 25 15:07:03 1999 
-1 9.9999999999999995e-007 1e-010 
body $-1 $7 $-1 $8 #
body $-1 $9 $-1 $10 #
body $-1 $11 $-1 $12 #
body $-1 $13 $-1 $14 #
body $-1 $15 $-1 $16 #
body $-1 $17 $-1 $18 #
body $-1 $19 $-1 $20 #
lump $-1 $-1 $21 $0 #
transform $-1 1 0 0 0 1 0 0 0 1 43.098239082003232 28.126773394732197 11.347106240495144 1 rotate no_reflect no_shear #
lump $-1 $-1 $22 $1 #
transform $-1 1 0 0 0 1 0 0 0 1 43.098239082003232 28.126773394732197 11.347106240495144 1 rotate no_reflect no_shear #
lump $-1 $-1 $23 $2 #
transform $-1 1 0 0 0 1 0 0 0 1 43.098239082003232 28.126773394732197 11.347106240495144 1 rotate no_reflect no_shear #
lump $-1 $-1 $24 $3 #
transform $-1 1 0 0 0 1 0 0 0 1 43.098239082003232 28.126773394732197 11.347106240495144 1 rotate no_reflect no_shear #
lump $-1 $-1 $25 $4 #
transform $-1 1 0 0 0 1 0 0 0 1 43.098239082003232 28.126773394732197 11.347106240495144 1 rotate no_reflect no_shear #
lump $-1 $-1 $26 $5 #
transform $-1 1 0 0 0 1 0 0 0 1 43.098239082003232 28.126773394732197 11.347106240495144 1 rotate no_reflect no_shear #
lump $-1 $-1 $27 $6 #
transform $-1 1 0 0 0 1 0 0 0 1 43.098239082003232 28.126773394732197 11.347106240495144 1 rotate no_reflect no_shear #
shell $-1 $-1 $-1 $28 $-1 $7 #
shell $-1 $-1 $-1 $29 $-1 $9 #
shell $-1 $-1 $-1 $30 $-1 $11 #
shell $-1 $-1 $-1 $31 $-1 $13 #
shell $-1 $-1 $-1 $32 $-1 $15 #
shell $-1 $-1 $-1 $33 $-1 $17 #
shell $-1 $-1 $-1 $34 $-1 $19 #
face $-1 $35 $36 $21 $-1 $37 forward single #
face $-1 $38 $39 $22 $-1 $40 forward single #
face $-1 $41 $42 $23 $-1 $43 forward single #
face $-1 $44 $45 $24 $-1 $46 reversed single #
face $-1 $47 $48 $25 $-1 $49 forward single #
face $-1 $50 $51 $26 $-1 $52 forward single #
face $-1 $53 $54 $27 $-1 $55 forward single #
face $-1 $56 $57 $21 $-1 $58 reversed single #
loop $-1 $-1 $59 $28 #
plane-surface $-1 0 0 11.347106240495144 0 0 1 1 0 0 forward_v I I I I #
face $-1 $60 $61 $22 $-1 $62 forward single #
loop $-1 $-1 $63 $29 #
plane-surface $-1 0 -28.126773394732197 0 0 1 0 0 0 1 forward_v I I I I #
face $-1 $64 $65 $23 $-1 $66 reversed single #
loop $-1 $-1 $67 $30 #
plane-surface $-1 0 23.398409602617569 -6.519950689415996 0 0 1 1 0 0 forward_v I I I I #
face $-1 $68 $69 $24 $-1 $70 reversed single #
loop $-1 $-1 $71 $31 #
plane-surface $-1 -114.55835879783825 1.2851521812974838 51.656787018190244 0 -1 0 0.82903758062907751 0 -0.55919289150049634 forward_v I I I I #
face $-1 $72 $73 $25 $-1 $74 forward single #
loop $-1 $75 $76 $32 #
cone-surface $-1 -38.852174248011082 -7.4078670013425914 6.3327116155471828 0.82903758062907751 0 -0.55919289150049634 0.55919289150049634 0 0.82903758062907751 1 I I 0 1 1 forward I I I I #
face $-1 $77 $78 $26 $-1 $79 forward single #
loop $-1 $80 $81 $33 #
cone-surface $-1 -38.852174248011082 -4.1479848078525627 6.3327116155471828 0.82903758062907751 0 -0.55919289150049634 0.55919289150049634 0 0.82903758062907751 1 I I 0 1 1 forward I I I I #
face $-1 $82 $83 $27 $-1 $84 forward single #
loop $-1 $85 $86 $34 #
cone-surface $-1 -38.852174248011082 -0.88810261436253413 6.3327116155471828 0.82903758062907751 0 -0.55919289150049634 0.55919289150049634 0 0.82903758062907751 1 I I 0 1 1 forward I I I I #
face $-1 $87 $88 $21 $-1 $89 reversed single #
loop $-1 $-1 $90 $35 #
plane-surface $-1 0 0 -11.347106240495144 0 0 1 1 0 0 forward_v I I I I #
coedge $-1 $91 $92 $93 $94 forward $36 $-1 #
face $-1 $95 $96 $22 $-1 $97 reversed single #
loop $-1 $-1 $98 $38 #
plane-surface $-1 0 0 11.347106240495144 0 0 1 1 0 0 forward_v I I I I #
coedge $-1 $99 $100 $101 $102 forward $39 $-1 #
face $-1 $103 $104 $23 $-1 $105 reversed single #
loop $-1 $-1 $106 $41 #
plane-surface $-1 0 23.398409602617569 -9.519950689415996 0 0 1 1 0 0 forward_v I I I I #
coedge $-1 $107 $108 $109 $110 reversed $42 $-1 #
face $-1 $111 $112 $24 $-1 $113 reversed single #
loop $-1 $-1 $114 $44 #
plane-surface $-1 -43.098239082003218 -4.1479848078525627 3.4563291565000753 -0.82903758062907751 0 0.55919289150049634 0.55919289150049634 0 0.82903758062907751 forward_v I I I I #
coedge $-1 $115 $116 $117 $118 reversed $45 $-1 #
face $-1 $-1 $119 $25 $-1 $120 forward single #
loop $-1 $121 $122 $47 #
cone-surface $-1 -36.852788714650316 -7.4078670013425914 4.9841090868465017 0.82903758062907751 0 -0.55919289150049634 0.27959644575024817 0 0.41451879031453875 1 I I -0.70710678118654746 0.70710678118654746 0.5 forward I I I I #
loop $-1 $-1 $123 $32 #
coedge $-1 $76 $76 $124 $125 reversed $48 $-1 #
face $-1 $-1 $126 $26 $-1 $127 forward single #
loop $-1 $128 $129 $50 #
cone-surface $-1 -36.852788714650316 -4.1479848078525627 4.9841090868465017 0.82903758062907751 0 -0.55919289150049634 0.27959644575024817 0 0.41451879031453875 1 I I -0.70710678118654746 0.70710678118654746 0.5 forward I I I I #
loop $-1 $-1 $130 $33 #
coedge $-1 $81 $81 $131 $132 reversed $51 $-1 #
face $-1 $-1 $133 $27 $-1 $134 forward single #
loop $-1 $135 $136 $53 #
cone-surface $-1 -36.852788714650316 -0.88810261436253413 4.9841090868465017 0.82903758062907751 0 -0.55919289150049634 0.27959644575024817 0 0.41451879031453875 1 I I -0.70710678118654746 0.70710678118654746 0.5 forward I I I I #
loop $-1 $-1 $137 $34 #
coedge $-1 $86 $86 $138 $139 reversed $54 $-1 #
face $-1 $140 $141 $21 $-1 $142 reversed single #
loop $-1 $-1 $143 $56 #
plane-surface $-1 0 -28.126773394732197 0 0 1 0 0 0 1 forward_v I I I I #
coedge $-1 $144 $145 $146 $147 forward $57 $-1 #
coedge $-1 $148 $59 $149 $150 forward $36 $-1 #
coedge $-1 $59 $148 $151 $152 forward $36 $-1 #
coedge $-1 $153 $154 $59 $94 reversed $155 $-1 #
edge $-1 $156 -28.126773394732197 $157 28.126773394732197 $93 $158 forward 7 unknown #
face $-1 $159 $160 $22 $-1 $161 reversed single #
loop $-1 $-1 $162 $60 #
plane-surface $-1 -43.098239082003232 0 0 1 0 0 0 0 -1 forward_v I I I I #
coedge $-1 $163 $164 $100 $165 forward $61 $-1 #
coedge $-1 $166 $63 $167 $168 reversed $39 $-1 #
coedge $-1 $63 $166 $98 $165 reversed $39 $-1 #
coedge $-1 $169 $170 $63 $102 reversed $171 $-1 #
edge $-1 $172 -11.347106240495144 $173 11.347106240495144 $101 $174 forward 7 unknown #
face $-1 $175 $176 $23 $-1 $177 reversed single #
loop $-1 $-1 $178 $64 #
plane-surface $-1 0 18.670045810502941 -8.019950689415996 0 1 0 0 0 1 forward_v I I I I #
coedge $-1 $179 $180 $181 $182 reversed $65 $-1 #
coedge $-1 $183 $67 $184 $185 reversed $42 $-1 #
coedge $-1 $67 $183 $186 $187 forward $42 $-1 #
coedge $-1 $188 $189 $67 $110 forward $190 $-1 #
edge $-1 $191 -16.427568593423413 $192 -6.9708410091941566 $109 $193 forward 7 unknown #
face $-1 $194 $195 $24 $-1 $196 reversed single #
loop $-1 $-1 $197 $68 #
plane-surface $-1 -114.55835879783825 -9.5811217970026092 51.656787018190244 0 1 0 -0.82903758062907751 0 0.55919289150049634 forward_v I I I I #
coedge $-1 $198 $199 $200 $201 reversed $69 $-1 #
coedge $-1 $116 $71 $202 $203 reversed $45 $-1 #
coedge $-1 $71 $115 $198 $204 reversed $45 $-1 #
coedge $-1 $200 $205 $71 $118 forward $195 $-1 #
edge $-1 $206 14.481287268599978 $207 22.372064352595068 $117 $208 forward 7 unknown #
loop $-1 $-1 $124 $72 #
plane-surface $-1 -43.098239082003218 -4.1479848078525627 3.4563291565000753 -0.82903758062907751 0 0.55919289150049634 0.55919289150049634 0 0.82903758062907751 forward_v I I I I #
loop $-1 $-1 $209 $47 #
coedge $-1 $122 $122 $123 $210 reversed $73 $-1 #
coedge $-1 $123 $123 $122 $210 forward $75 $-1 #
coedge $-1 $124 $124 $76 $125 forward $119 $-1 #
edge $-1 $211 0 $211 6.2831853071796004 $124 $212 forward 7 unknown #
loop $-1 $-1 $131 $77 #
plane-surface $-1 -43.098239082003218 -4.1479848078525627 3.4563291565000753 -0.82903758062907751 0 0.55919289150049634 0.55919289150049634 0 0.82903758062907751 forward_v I I I I #
loop $-1 $-1 $213 $50 #
coedge $-1 $129 $129 $130 $214 reversed $78 $-1 #
coedge $-1 $130 $130 $129 $214 forward $80 $-1 #
coedge $-1 $131 $131 $81 $132 forward $126 $-1 #
edge $-1 $215 0 $215 6.2831853071796004 $131 $216 forward 7 unknown #
loop $-1 $-1 $138 $82 #
plane-surface $-1 -43.098239082003218 -4.1479848078525627 3.4563291565000753 -0.82903758062907751 0 0.55919289150049634 0.55919289150049634 0 0.82903758062907751 forward_v I I I I #
loop $-1 $-1 $217 $53 #
coedge $-1 $136 $136 $137 $218 reversed $83 $-1 #
coedge $-1 $137 $137 $136 $218 forward $85 $-1 #
coedge $-1 $138 $138 $86 $139 forward $133 $-1 #
edge $-1 $219 0 $219 6.2831853071796004 $138 $220 forward 7 unknown #
face $-1 $221 $222 $21 $-1 $223 reversed single #
loop $-1 $-1 $224 $87 #
plane-surface $-1 -43.098239082003232 0 0 1 0 0 0 0 -1 forward_v I I I I #
coedge $-1 $225 $151 $226 $227 forward $88 $-1 #
coedge $-1 $228 $90 $225 $229 forward $57 $-1 #
coedge $-1 $90 $228 $230 $231 forward $57 $-1 #
coedge $-1 $154 $153 $90 $147 reversed $155 $-1 #
edge $-1 $232 -28.126773394732197 $233 28.126773394732197 $146 $234 forward 7 unknown #
coedge $-1 $92 $91 $235 $236 forward $36 $-1 #
coedge $-1 $237 $238 $91 $150 reversed $222 $-1 #
edge $-1 $157 -43.098239082003232 $239 43.098239082003232 $149 $240 forward 7 unknown #
coedge $-1 $143 $241 $92 $152 reversed $88 $-1 #
edge $-1 $242 -43.098239082003232 $156 43.098239082003232 $151 $243 forward 7 unknown #
coedge $-1 $146 $93 $241 $244 forward $155 $-1 #
coedge $-1 $93 $146 $237 $245 reversed $155 $-1 #
loop $-1 $-1 $153 $221 #
vertex $-1 $94 $246 #
vertex $-1 $94 $247 #
straight-curve $-1 43.098239082003232 0 11.347106240495144 0 1 0 I I #
face $-1 $248 $171 $22 $-1 $249 reversed single #
loop $-1 $-1 $250 $95 #
plane-surface $-1 -41.598239082003232 -36.025435628475876 0 0 1 0 0 0 1 forward_v I I I I #
coedge $-1 $251 $252 $166 $253 forward $96 $-1 #
coedge $-1 $254 $98 $252 $255 forward $61 $-1 #
coedge $-1 $98 $254 $169 $256 forward $61 $-1 #
edge $-1 $172 40.098239082003232 $257 43.098239082003232 $98 $258 forward 7 unknown #
coedge $-1 $100 $99 $162 $253 reversed $39 $-1 #
coedge $-1 $259 $260 $99 $168 forward $261 $-1 #
edge $-1 $262 -43.098239082003232 $173 -40.098239082003232 $167 $263 forward 7 unknown #
coedge $-1 $264 $101 $164 $256 reversed $171 $-1 #
coedge $-1 $101 $264 $259 $265 reversed $171 $-1 #
loop $-1 $-1 $264 $159 #
vertex $-1 $165 $266 #
vertex $-1 $265 $267 #
straight-curve $-1 -40.098239082003232 -28.126773394732197 0 0 0 -1 I I #
face $-1 $268 $190 $23 $-1 $269 reversed single #
loop $-1 $-1 $270 $103 #
plane-surface $-1 -43.098239082003232 0 0 1 0 0 0 0 -1 forward_v I I I I #
coedge $-1 $271 $186 $272 $273 reversed $104 $-1 #
coedge $-1 $274 $106 $271 $275 forward $65 $-1 #
coedge $-1 $106 $274 $276 $277 reversed $65 $-1 #
coedge $-1 $189 $188 $106 $182 forward $190 $-1 #
edge $-1 $278 6.9708410091941566 $279 16.427568593423413 $181 $280 forward 7 unknown #
coedge $-1 $108 $107 $281 $282 reversed $42 $-1 #
coedge $-1 $283 $284 $107 $185 forward $285 $-1 #
edge $-1 $286 -43.098239082003232 $191 43.098239082003232 $184 $287 forward 7 unknown #
coedge $-1 $178 $288 $108 $187 reversed $104 $-1 #
edge $-1 $289 -43.098239082003232 $192 43.098239082003232 $186 $290 forward 7 unknown #
coedge $-1 $181 $109 $288 $291 forward $190 $-1 #
coedge $-1 $109 $181 $283 $292 reversed $190 $-1 #
loop $-1 $-1 $109 $175 #
vertex $-1 $292 $293 #
vertex $-1 $110 $294 #
straight-curve $-1 43.098239082003232 11.699204801308785 -6.519950689415996 0 -1 0 I I #
face $-1 $-1 $295 $24 $-1 $296 forward single #
loop $-1 $-1 $117 $111 #
plane-surface $-1 -43.098239082003232 0 0 1 0 0 0 0 -1 forward_v I I I I #
coedge $-1 $297 $298 $299 $300 reversed $112 $-1 #
coedge $-1 $301 $114 $116 $204 forward $69 $-1 #
coedge $-1 $114 $301 $297 $302 forward $69 $-1 #
coedge $-1 $299 $117 $114 $201 forward $195 $-1 #
edge $-1 $207 -3.3591445852237651 $303 7.5071293930763279 $200 $304 forward 7 unknown #
coedge $-1 $305 $306 $115 $203 forward $295 $-1 #
edge $-1 $307 -19.503336498807755 $206 -14.180940316915894 $202 $308 forward 7 unknown #
edge $-1 $207 -2.5250441212413278e-014 $307 9.517996853661943 $116 $309 forward 7 unknown #
coedge $-1 $117 $299 $305 $310 reversed $195 $-1 #
vertex $-1 $310 $311 #
vertex $-1 $118 $312 #
straight-curve $-1 -43.098239082003232 1.2851521812974838 25.828393509095122 0 0 -1 I I #
coedge $-1 $209 $209 $-1 $313 reversed $121 $-1 #
edge $-1 $314 0 $314 6.2831853071796004 $122 $315 forward 7 unknown #
vertex $-1 $125 $316 #
ellipse-curve $-1 -40.437040991057295 -7.4078670013425914 7.401717698497607 -0.82903758062907751 0 0.55919289150049634 0.55919289150049634 0 0.82903758062907751 1 I I #
coedge $-1 $213 $213 $-1 $317 reversed $128 $-1 #
edge $-1 $318 0 $318 6.2831853071796004 $129 $319 forward 7 unknown #
vertex $-1 $132 $320 #
ellipse-curve $-1 -40.437040991057295 -4.1479848078525627 7.401717698497607 -0.82903758062907751 0 0.55919289150049634 0.55919289150049634 0 0.82903758062907751 1 I I #
coedge $-1 $217 $217 $-1 $321 reversed $135 $-1 #
edge $-1 $322 0 $322 6.2831853071796004 $136 $323 forward 7 unknown #
vertex $-1 $139 $324 #
ellipse-curve $-1 -40.437040991057295 -0.88810261436253413 7.401717698497607 -0.82903758062907751 0 0.55919289150049634 0.55919289150049634 0 0.82903758062907751 1 I I #
face $-1 $-1 $155 $21 $-1 $325 reversed single #
loop $-1 $-1 $237 $140 #
plane-surface $-1 0 28.126773394732197 0 0 -1 0 0 0 -1 forward_v I I I I #
coedge $-1 $326 $235 $238 $327 forward $141 $-1 #
coedge $-1 $241 $143 $144 $229 reversed $88 $-1 #
coedge $-1 $235 $326 $143 $227 reversed $141 $-1 #
edge $-1 $242 -11.347106240495144 $328 11.347106240495144 $226 $329 forward 7 unknown #
coedge $-1 $145 $144 $326 $330 forward $57 $-1 #
edge $-1 $233 -43.098239082003232 $328 43.098239082003232 $225 $331 forward 7 unknown #
coedge $-1 $238 $237 $145 $231 reversed $222 $-1 #
edge $-1 $332 -43.098239082003232 $232 43.098239082003232 $230 $333 forward 7 unknown #
vertex $-1 $147 $334 #
vertex $-1 $244 $335 #
straight-curve $-1 43.098239082003232 0 -11.347106240495144 0 -1 0 I I #
coedge $-1 $224 $226 $148 $236 reversed $141 $-1 #
edge $-1 $239 -28.126773394732197 $242 28.126773394732197 $235 $336 forward 7 unknown #
coedge $-1 $230 $149 $154 $245 forward $222 $-1 #
coedge $-1 $149 $230 $224 $327 reversed $222 $-1 #
vertex $-1 $150 $337 #
straight-curve $-1 0 28.126773394732197 11.347106240495144 -1 0 0 I I #
coedge $-1 $151 $225 $153 $244 reversed $88 $-1 #
vertex $-1 $236 $338 #
straight-curve $-1 0 -28.126773394732197 11.347106240495144 1 0 0 I I #
edge $-1 $156 -11.347106240495144 $233 11.347106240495144 $153 $339 forward 7 unknown #
edge $-1 $157 -11.347106240495144 $232 11.347106240495144 $154 $340 forward 7 unknown #
point $-1 43.098239082003232 -28.126773394732197 11.347106240495144 #
point $-1 43.098239082003232 28.126773394732197 11.347106240495144 #
face $-1 $-1 $261 $22 $-1 $341 reversed single #
plane-surface $-1 -40.098239082003232 -32.076104511604036 0 -1 0 0 0 0 1 forward_v I I I I #
coedge $-1 $342 $343 $344 $345 forward $160 $-1 #
coedge $-1 $344 $162 $260 $346 reversed $96 $-1 #
coedge $-1 $162 $344 $163 $255 reversed $96 $-1 #
edge $-1 $257 -11.347106240495144 $262 11.347106240495144 $162 $347 forward 7 unknown #
coedge $-1 $164 $163 $343 $348 forward $61 $-1 #
edge $-1 $257 28.126773394732197 $349 36.025435628475876 $252 $350 forward 7 unknown #
edge $-1 $351 -3.9493311168718392 $172 3.9493311168718428 $169 $352 forward 7 unknown #
vertex $-1 $255 $353 #
straight-curve $-1 0 -28.126773394732197 11.347106240495144 -1 0 0 I I #
coedge $-1 $354 $167 $170 $265 forward $261 $-1 #
coedge $-1 $167 $354 $251 $346 forward $261 $-1 #
loop $-1 $-1 $167 $248 #
vertex $-1 $253 $355 #
straight-curve $-1 0 -28.126773394732197 -11.347106240495144 1 0 0 I I #
coedge $-1 $170 $169 $356 $357 forward $171 $-1 #
edge $-1 $173 -3.9493311168718428 $358 3.9493311168718392 $170 $359 forward 7 unknown #
point $-1 -40.098239082003232 -28.126773394732194 11.347106240495144 #
point $-1 -40.098239082003232 -28.126773394732194 -11.347106240495144 #
face $-1 $-1 $285 $23 $-1 $360 reversed single #
plane-surface $-1 43.098239082003232 0 0 -1 0 0 0 0 1 forward_v I I I I #
coedge $-1 $272 $361 $274 $362 forward $176 $-1 #
coedge $-1 $288 $178 $179 $275 reversed $104 $-1 #
coedge $-1 $281 $270 $178 $273 forward $176 $-1 #
edge $-1 $363 -5.509975344707998 $289 -2.509975344707998 $272 $364 forward 7 unknown #
coedge $-1 $180 $179 $270 $362 reversed $65 $-1 #
edge $-1 $278 -43.098239082003232 $363 43.098239082003232 $271 $365 forward 7 unknown #
coedge $-1 $284 $283 $180 $277 forward $285 $-1 #
edge $-1 $279 -43.098239082003232 $366 43.098239082003232 $276 $367 forward 7 unknown #
vertex $-1 $182 $368 #
vertex $-1 $182 $369 #
straight-curve $-1 43.098239082003232 11.699204801308785 -9.519950689415996 0 1 0 I I #
coedge $-1 $361 $272 $183 $282 forward $176 $-1 #
edge $-1 $289 6.9708410091941566 $286 16.427568593423413 $281 $370 forward 7 unknown #
coedge $-1 $276 $184 $189 $292 forward $285 $-1 #
coedge $-1 $184 $276 $361 $371 reversed $285 $-1 #
loop $-1 $-1 $276 $268 #
vertex $-1 $371 $372 #
straight-curve $-1 0 28.126773394732197 -6.519950689415996 1 0 0 I I #
coedge $-1 $186 $271 $188 $291 reversed $104 $-1 #
vertex $-1 $282 $373 #
straight-curve $-1 0 18.670045810502941 -6.519950689415996 1 0 0 I I #
edge $-1 $192 2.509975344707998 $278 5.509975344707998 $188 $374 forward 7 unknown #
edge $-1 $191 6.519950689415996 $279 9.519950689415996 $189 $375 forward 7 unknown #
point $-1 43.098239082003232 28.126773394732197 -6.519950689415996 #
point $-1 43.098239082003232 18.670045810502941 -6.519950689415996 #
loop $-1 $-1 $202 $194 #
plane-surface $-1 0 0 11.347106240495144 0 0 1 1 0 0 forward_v I I I I #
coedge $-1 $298 $197 $199 $302 reversed $112 $-1 #
coedge $-1 $197 $297 $376 $377 reversed $112 $-1 #
coedge $-1 $205 $200 $197 $300 forward $195 $-1 #
edge $-1 $303 -22.372064352595068 $378 -14.481287268599978 $299 $379 forward 7 unknown #
coedge $-1 $199 $198 $306 $380 reversed $69 $-1 #
edge $-1 $381 -9.517996853661943 $303 2.5250441212413278e-014 $297 $382 forward 7 unknown #
vertex $-1 $201 $383 #
straight-curve $-1 -43.098239082003232 -2.0739924039262814 3.4563291565000527 0 -1 0 I I #
coedge $-1 $376 $202 $205 $310 forward $295 $-1 #
coedge $-1 $202 $376 $301 $380 forward $295 $-1 #
vertex $-1 $203 $384 #
straight-curve $-1 -57.279179398919126 1.2851521812974838 11.347106240495144 -1 0 0 I I #
straight-curve $-1 -43.098239082003218 1.2851521812974838 3.4563291565000753 0.55919289150049634 0 0.82903758062907751 I I #
edge $-1 $206 -1.2851521812974838 $378 9.5811217970026092 $205 $385 forward 7 unknown #
point $-1 -43.098239082003232 1.2851521812974838 11.347106240495144 #
point $-1 -43.098239082003232 1.2851521812974838 3.4563291565000545 #
edge $-1 $386 1 $386 0 $209 $-1 forward 7 unknown #
vertex $-1 $210 $387 #
ellipse-curve $-1 -37.267307504964855 -7.4078670013425914 5.2637055325967497 -0.82903758062907751 0 0.55919289150049634 0.55919289150049634 0 0.82903758062907751 1 I I #
point $-1 -39.877848099556815 -7.4078670013425914 8.2307552791266936 #
edge $-1 $388 1 $388 0 $213 $-1 forward 7 unknown #
vertex $-1 $214 $389 #
ellipse-curve $-1 -37.267307504964855 -4.1479848078525627 5.2637055325967497 -0.82903758062907751 0 0.55919289150049634 0.55919289150049634 0 0.82903758062907751 1 I I #
point $-1 -39.877848099556815 -4.1479848078525627 8.2307552791266936 #
edge $-1 $390 1 $390 0 $217 $-1 forward 7 unknown #
vertex $-1 $218 $391 #
ellipse-curve $-1 -37.267307504964855 -0.88810261436253413 5.2637055325967497 -0.82903758062907751 0 0.55919289150049634 0.55919289150049634 0 0.82903758062907751 1 I I #
point $-1 -39.877848099556815 -0.88810261436253413 8.2307552791266936 #
plane-surface $-1 43.098239082003232 0 0 -1 0 0 0 0 1 forward_v I I I I #
coedge $-1 $226 $224 $228 $330 reversed $141 $-1 #
edge $-1 $239 -11.347106240495144 $332 11.347106240495144 $238 $392 forward 7 unknown #
vertex $-1 $330 $393 #
straight-curve $-1 -43.098239082003232 -28.126773394732197 0 0 0 -1 I I #
edge $-1 $328 -28.126773394732197 $332 28.126773394732197 $326 $394 forward 7 unknown #
straight-curve $-1 0 -28.126773394732197 -11.347106240495144 -1 0 0 I I #
vertex $-1 $231 $395 #
straight-curve $-1 0 28.126773394732197 -11.347106240495144 1 0 0 I I #
point $-1 43.098239082003232 28.126773394732197 -11.347106240495144 #
point $-1 43.098239082003232 -28.126773394732197 -11.347106240495144 #
straight-curve $-1 -43.098239082003232 0 11.347106240495144 0 -1 0 I I #
point $-1 -43.098239082003232 28.126773394732197 11.347106240495144 #
point $-1 -43.098239082003232 -28.126773394732197 11.347106240495144 #
straight-curve $-1 43.098239082003232 -28.126773394732197 0 0 0 -1 I I #
straight-curve $-1 43.098239082003232 28.126773394732197 0 0 0 -1 I I #
plane-surface $-1 0 0 -11.347106240495144 0 0 1 1 0 0 forward_v I I I I #
coedge $-1 $356 $250 $354 $396 reversed $160 $-1 #
coedge $-1 $250 $356 $254 $348 reversed $160 $-1 #
coedge $-1 $252 $251 $250 $345 reversed $96 $-1 #
edge $-1 $349 -11.347106240495144 $397 11.347106240495144 $344 $398 forward 7 unknown #
edge $-1 $397 -36.025435628475876 $262 -28.126773394732197 $251 $399 forward 7 unknown #
straight-curve $-1 -43.098239082003232 -28.126773394732197 0 0 0 -1 I I #
edge $-1 $349 -1.5 $351 1.5 $343 $400 forward 7 unknown #
vertex $-1 $255 $401 #
straight-curve $-1 -43.098239082003232 0 11.347106240495144 0 -1 0 I I #
vertex $-1 $256 $402 #
straight-curve $-1 -40.098239082003232 -32.076104511604036 11.347106240495144 0 1 0 I I #
point $-1 -43.098239082003232 -28.126773394732197 11.347106240495144 #
coedge $-1 $260 $259 $342 $396 forward $261 $-1 #
point $-1 -43.098239082003232 -28.126773394732197 -11.347106240495144 #
coedge $-1 $343 $342 $264 $357 reversed $160 $-1 #
edge $-1 $351 -11.347106240495144 $358 11.347106240495144 $264 $403 forward 7 unknown #
vertex $-1 $357 $404 #
straight-curve $-1 -40.098239082003232 -32.076104511604036 -11.347106240495144 0 -1 0 I I #
plane-surface $-1 0 28.126773394732197 0 0 -1 0 0 0 -1 forward_v I I I I #
coedge $-1 $270 $281 $284 $371 forward $176 $-1 #
edge $-1 $366 -16.427568593423413 $363 -6.9708410091941566 $270 $405 forward 7 unknown #
vertex $-1 $362 $406 #
straight-curve $-1 -43.098239082003232 18.670045810502941 -4.009975344707998 0 0 1 I I #
straight-curve $-1 0 18.670045810502941 -9.519950689415996 -1 0 0 I I #
vertex $-1 $277 $407 #
straight-curve $-1 0 28.126773394732197 -9.519950689415996 -1 0 0 I I #
point $-1 43.098239082003232 18.670045810502941 -9.519950689415996 #
point $-1 43.098239082003232 28.126773394732197 -9.519950689415996 #
straight-curve $-1 -43.098239082003232 11.699204801308785 -6.519950689415996 0 1 0 I I #
edge $-1 $286 6.519950689415996 $366 9.519950689415996 $284 $408 forward 7 unknown #
point $-1 -43.098239082003232 28.126773394732197 -6.519950689415996 #
point $-1 -43.098239082003232 18.670045810502941 -6.519950689415996 #
straight-curve $-1 43.098239082003232 18.670045810502941 -4.009975344707998 0 0 -1 I I #
straight-curve $-1 43.098239082003232 28.126773394732197 0 0 0 -1 I I #
coedge $-1 $306 $305 $298 $377 forward $295 $-1 #
edge $-1 $378 14.180940316915894 $381 19.503336498807755 $376 $409 forward 7 unknown #
vertex $-1 $377 $410 #
straight-curve $-1 -43.098239082003232 -9.5811217970026092 25.828393509095122 0 0 1 I I #
edge $-1 $381 -7.5071293930763279 $307 3.3591445852237651 $306 $411 forward 7 unknown #
vertex $-1 $380 $412 #
straight-curve $-1 -43.098239082003218 -9.5811217970026092 3.4563291565000753 -0.55919289150049634 0 -0.82903758062907751 I I #
point $-1 -43.098239082003232 -9.5811217970026092 3.4563291565000545 #
point $-1 -37.775842900111371 1.2851521812974838 11.347106240495144 #
straight-curve $-1 -43.098239082003232 0 11.347106240495144 0 -1 0 I I #
vertex $-1 $313 $413 #
point $-1 -36.70811461346436 -7.4078670013425914 6.0927431132258274 #
vertex $-1 $317 $414 #
point $-1 -36.70811461346436 -4.1479848078525627 6.0927431132258274 #
vertex $-1 $321 $415 #
point $-1 -36.70811461346436 -0.88810261436253413 6.0927431132258274 #
straight-curve $-1 -43.098239082003232 28.126773394732197 0 0 0 -1 I I #
point $-1 -43.098239082003232 -28.126773394732197 -11.347106240495144 #
straight-curve $-1 -43.098239082003232 0 -11.347106240495144 0 1 0 I I #
point $-1 -43.098239082003232 28.126773394732197 -11.347106240495144 #
edge $-1 $358 -1.5 $397 1.5 $342 $416 forward 7 unknown #
vertex $-1 $346 $417 #
straight-curve $-1 -43.098239082003232 -36.025435628475876 0 0 0 -1 I I #
straight-curve $-1 -43.098239082003232 0 -11.347106240495144 0 1 0 I I #
straight-curve $-1 -41.598239082003232 -36.025435628475876 11.347106240495144 1 0 0 I I #
point $-1 -43.098239082003232 -36.025435628475876 11.347106240495144 #
point $-1 -40.098239082003232 -36.025435628475876 11.347106240495144 #
straight-curve $-1 -40.098239082003232 -36.025435628475876 0 0 0 -1 I I #
point $-1 -40.098239082003232 -36.025435628475876 -11.347106240495144 #
straight-curve $-1 -43.098239082003232 11.699204801308785 -9.519950689415996 0 -1 0 I I #
point $-1 -43.098239082003232 18.670045810502941 -9.519950689415996 #
point $-1 -43.098239082003232 28.126773394732197 -9.519950689415996 #
straight-curve $-1 -43.098239082003232 28.126773394732197 0 0 0 -1 I I #
straight-curve $-1 -57.279179398919126 -9.5811217970026092 11.347106240495144 1 0 0 I I #
point $-1 -43.098239082003232 -9.5811217970026092 11.347106240495144 #
straight-curve $-1 -37.775842900111371 -2.0739924039262814 11.347106240495144 0 1 0 I I #
point $-1 -37.775842900111371 -9.5811217970026092 11.347106240495144 #
point $-1 -36.438269924335778 -7.4078670013425914 4.7045126410962537 #
point $-1 -36.438269924335778 -4.1479848078525627 4.7045126410962537 #
point $-1 -36.438269924335778 -0.88810261436253413 4.7045126410962537 #
straight-curve $-1 -41.598239082003232 -36.025435628475876 -11.347106240495144 -1 0 0 I I #
point $-1 -43.098239082003232 -36.025435628475876 -11.347106240495144 #
End-of-ACIS-data 