500 0 7 0           
7 Unknown 11 ACIS 5.0 NT 24 Fri Mar 26 01:44:19 1999 
-1 9.9999999999999995e-007 1e-010 
body $-1 $7 $-1 $8 #
body $-1 $9 $-1 $10 #
body $-1 $11 $-1 $12 #
body $-1 $13 $-1 $14 #
body $-1 $15 $-1 $16 #
body $-1 $17 $-1 $18 #
body $-1 $19 $-1 $20 #
lump $-1 $-1 $21 $0 #
transform $-1 1 0 0 0 1 0 0 0 1 75.308694723349703 43.979523873046986 18.151234139516536 1 rotate no_reflect no_shear #
lump $-1 $-1 $22 $1 #
transform $-1 1 0 0 0 1 0 0 0 1 75.308694723349703 43.979523873046986 18.151234139516536 1 rotate no_reflect no_shear #
lump $-1 $-1 $23 $2 #
transform $-1 1 0 0 0 1 0 0 0 1 75.308694723349703 43.979523873046986 18.151234139516536 1 rotate no_reflect no_shear #
lump $-1 $-1 $24 $3 #
transform $-1 1 0 0 0 1 0 0 0 1 75.308694723349703 43.979523873046986 18.151234139516536 1 rotate no_reflect no_shear #
lump $-1 $-1 $25 $4 #
transform $-1 1 0 0 0 1 0 0 0 1 75.308694723349703 43.979523873046986 18.151234139516536 1 rotate no_reflect no_shear #
lump $-1 $-1 $26 $5 #
transform $-1 1 0 0 0 1 0 0 0 1 75.308694723349703 43.979523873046986 18.151234139516536 1 rotate no_reflect no_shear #
lump $-1 $-1 $27 $6 #
transform $-1 1 0 0 0 1 0 0 0 1 75.308694723349703 43.979523873046986 18.151234139516536 1 rotate no_reflect no_shear #
shell $-1 $-1 $-1 $28 $-1 $7 #
shell $-1 $-1 $-1 $29 $-1 $9 #
shell $-1 $-1 $-1 $30 $-1 $11 #
shell $-1 $-1 $-1 $31 $-1 $13 #
shell $-1 $-1 $-1 $32 $-1 $15 #
shell $-1 $-1 $-1 $33 $-1 $17 #
shell $-1 $-1 $-1 $34 $-1 $19 #
face $-1 $35 $36 $21 $-1 $37 forward single #
face $-1 $38 $39 $22 $-1 $40 forward single #
face $-1 $41 $42 $23 $-1 $43 reversed single #
face $-1 $44 $45 $24 $-1 $46 forward single #
face $-1 $47 $48 $25 $-1 $49 forward single #
face $-1 $50 $51 $26 $-1 $52 reversed single #
face $-1 $53 $54 $27 $-1 $55 forward single #
face $-1 $56 $57 $21 $-1 $58 reversed single #
loop $-1 $-1 $59 $28 #
plane-surface $-1 0 0 18.151234139516536 0 0 1 1 0 0 forward_v I I I I #
face $-1 $60 $61 $22 $-1 $62 reversed single #
loop $-1 $-1 $63 $29 #
plane-surface $-1 0 -37.682507497019408 2.1070223346031991 0 0 1 1 0 0 forward_v I I I I #
face $-1 $64 $65 $23 $-1 $66 reversed single #
loop $-1 $-1 $67 $30 #
plane-surface $-1 -201.62706747866042 30.810713992729312 90.491126842466656 0 1 0 -0.83867057594974714 0 0.54463902268945019 forward_v I I I I #
face $-1 $68 $69 $24 $-1 $70 forward single #
loop $-1 $71 $72 $31 #
cone-surface $-1 -69.948327835015391 34.573231101391499 11.867813628029962 0.83867057594974714 0 -0.54463902268945019 0.81695853403417529 0 1.2580058639246208 1 I I 0 1 1.5 forward I I I I #
face $-1 $73 $74 $25 $-1 $75 forward single #
loop $-1 $76 $77 $32 #
cone-surface $-1 -69.948327835015391 40.217006764384791 11.867813628029962 0.83867057594974714 0 -0.54463902268945019 0.81695853403417529 0 1.2580058639246208 1 I I 0 1 1.5 forward I I I I #
face $-1 $78 $79 $26 $-1 $80 reversed single #
loop $-1 $-1 $81 $33 #
plane-surface $-1 53.043595345307381 11.121867998949757 213.70820820936103 0 -1 0 -0.62932039886446345 0 -0.77714595512881146 forward_v I I I I #
face $-1 $82 $83 $27 $-1 $84 forward single #
loop $-1 $85 $86 $34 #
cone-surface $-1 64.55885554555374 6.1051620919626117 9.1498974696860245 -0.62932039886446345 0 -0.77714595512881146 1.5542919102576229 0 -1.2586407977289269 1 I I 0 1 2 forward I I I I #
face $-1 $87 $88 $21 $-1 $89 reversed single #
loop $-1 $-1 $90 $35 #
plane-surface $-1 0 0 -18.151234139516536 0 0 1 1 0 0 forward_v I I I I #
coedge $-1 $91 $92 $93 $94 forward $36 $-1 #
face $-1 $95 $96 $22 $-1 $97 reversed single #
loop $-1 $-1 $98 $38 #
plane-surface $-1 0 -37.682507497019408 -1.8414125755089881 0 0 1 1 0 0 forward_v I I I I #
coedge $-1 $99 $100 $101 $102 reversed $39 $-1 #
face $-1 $103 $104 $23 $-1 $105 forward single #
loop $-1 $-1 $106 $41 #
plane-surface $-1 -75.30869472334966 37.395118932888153 8.4590190541799757 -0.83867057594974714 0 0.54463902268945019 0.54463902268945019 0 0.83867057594974714 forward_v I I I I #
coedge $-1 $107 $108 $109 $110 reversed $42 $-1 #
face $-1 $-1 $111 $24 $-1 $112 forward single #
loop $-1 $113 $114 $44 #
cone-surface $-1 -67.106056949122035 34.573231101391499 10.022021392194578 0.83867057594974714 0 -0.54463902268945019 0.40847926701708764 0 0.62900293196231039 1 I I -0.70710678118654757 0.70710678118654757 0.75 forward I I I I #
loop $-1 $-1 $115 $31 #
coedge $-1 $72 $72 $116 $117 reversed $45 $-1 #
face $-1 $-1 $118 $25 $-1 $119 forward single #
loop $-1 $120 $121 $47 #
cone-surface $-1 -67.106056949122035 40.217006764384791 10.022021392194578 0.83867057594974714 0 -0.54463902268945019 0.40847926701708764 0 0.62900293196231039 1 I I -0.70710678118654757 0.70710678118654757 0.75 forward I I I I #
loop $-1 $-1 $122 $32 #
coedge $-1 $77 $77 $123 $124 reversed $48 $-1 #
face $-1 $125 $126 $26 $-1 $127 reversed single #
loop $-1 $-1 $128 $50 #
plane-surface $-1 -41.743000257213723 6.1051620919626117 96.65651322879765 0.62932039886446345 0 0.77714595512881146 0.77714595512881146 0 -0.62932039886446345 forward_v I I I I #
coedge $-1 $129 $130 $131 $132 reversed $51 $-1 #
face $-1 $-1 $133 $27 $-1 $134 forward single #
loop $-1 $135 $136 $53 #
cone-surface $-1 63.232571495625933 6.1051620919626117 7.512073101346683 -0.62932039886446345 0 -0.77714595512881146 0.77714595512881146 0 -0.62932039886446345 1 I I -0.70710678118654746 0.70710678118654746 1 forward I I I I #
loop $-1 $-1 $137 $34 #
coedge $-1 $86 $86 $138 $139 reversed $54 $-1 #
face $-1 $140 $141 $21 $-1 $142 reversed single #
loop $-1 $-1 $143 $56 #
plane-surface $-1 0 -43.979523873046986 0 0 1 0 0 0 1 forward_v I I I I #
coedge $-1 $144 $145 $146 $147 forward $57 $-1 #
coedge $-1 $148 $59 $149 $150 forward $36 $-1 #
coedge $-1 $59 $148 $151 $152 forward $36 $-1 #
coedge $-1 $153 $154 $59 $94 reversed $155 $-1 #
edge $-1 $156 -43.979523873046986 $157 43.979523873046986 $93 $158 forward 7 unknown #
face $-1 $159 $160 $22 $-1 $161 reversed single #
loop $-1 $-1 $162 $60 #
plane-surface $-1 0 -31.38549112099183 0.13280487954710551 0 -1 0 0 0 -1 forward_v I I I I #
coedge $-1 $163 $164 $165 $166 reversed $61 $-1 #
coedge $-1 $167 $63 $168 $169 forward $39 $-1 #
coedge $-1 $63 $167 $170 $171 reversed $39 $-1 #
coedge $-1 $172 $173 $63 $102 forward $174 $-1 #
edge $-1 $175 12.544237372482126 $176 25.138270124537282 $101 $177 forward 7 unknown #
face $-1 $178 $179 $23 $-1 $180 reversed single #
loop $-1 $-1 $109 $64 #
plane-surface $-1 0 0 18.151234139516536 0 0 1 1 0 0 forward_v I I I I #
coedge $-1 $181 $182 $183 $184 reversed $65 $-1 #
coedge $-1 $108 $67 $185 $186 reversed $42 $-1 #
coedge $-1 $67 $107 $181 $187 reversed $42 $-1 #
coedge $-1 $183 $188 $67 $110 forward $104 $-1 #
edge $-1 $189 25.504839015980508 $190 31.799036884787085 $109 $191 forward 7 unknown #
loop $-1 $-1 $116 $68 #
plane-surface $-1 -75.30869472334966 37.395118932888153 8.4590190541799757 -0.83867057594974714 0 0.54463902268945019 0.54463902268945019 0 0.83867057594974714 forward_v I I I I #
loop $-1 $-1 $192 $44 #
coedge $-1 $114 $114 $115 $193 reversed $69 $-1 #
coedge $-1 $115 $115 $114 $193 forward $71 $-1 #
coedge $-1 $116 $116 $72 $117 forward $111 $-1 #
edge $-1 $194 0 $194 6.2831853071796004 $116 $195 forward 7 unknown #
loop $-1 $-1 $123 $73 #
plane-surface $-1 -75.30869472334966 37.395118932888153 8.4590190541799757 -0.83867057594974714 0 0.54463902268945019 0.54463902268945019 0 0.83867057594974714 forward_v I I I I #
loop $-1 $-1 $196 $47 #
coedge $-1 $121 $121 $122 $197 reversed $74 $-1 #
coedge $-1 $122 $122 $121 $197 forward $76 $-1 #
coedge $-1 $123 $123 $77 $124 forward $118 $-1 #
edge $-1 $198 0 $198 6.2831853071796004 $123 $199 forward 7 unknown #
face $-1 $200 $201 $26 $-1 $202 reversed single #
loop $-1 $-1 $203 $78 #
plane-surface $-1 53.043595345307381 1.0884561849754668 213.70820820936103 0 1 0 0.62932039886446345 0 0.77714595512881146 forward_v I I I I #
coedge $-1 $204 $205 $206 $207 reversed $79 $-1 #
coedge $-1 $130 $81 $208 $209 reversed $51 $-1 #
coedge $-1 $81 $129 $204 $210 reversed $51 $-1 #
coedge $-1 $206 $211 $81 $132 forward $212 $-1 #
edge $-1 $213 -48.786897050696012 $214 -28.681145997230686 $131 $215 forward 7 unknown #
loop $-1 $-1 $138 $82 #
plane-surface $-1 -41.743000257213723 6.1051620919626117 96.65651322879765 0.62932039886446345 0 0.77714595512881146 0.77714595512881146 0 -0.62932039886446345 forward_v I I I I #
loop $-1 $-1 $216 $53 #
coedge $-1 $136 $136 $137 $217 reversed $83 $-1 #
coedge $-1 $137 $137 $136 $217 forward $85 $-1 #
coedge $-1 $138 $138 $86 $139 forward $133 $-1 #
edge $-1 $218 0 $218 6.2831853071796004 $138 $219 forward 7 unknown #
face $-1 $220 $221 $21 $-1 $222 reversed single #
loop $-1 $-1 $223 $87 #
plane-surface $-1 -75.308694723349703 0 0 1 0 0 0 0 -1 forward_v I I I I #
coedge $-1 $224 $151 $225 $226 forward $88 $-1 #
coedge $-1 $227 $90 $224 $228 forward $57 $-1 #
coedge $-1 $90 $227 $229 $230 forward $57 $-1 #
coedge $-1 $154 $153 $90 $147 reversed $155 $-1 #
edge $-1 $231 -43.979523873046986 $232 43.979523873046986 $146 $233 forward 7 unknown #
coedge $-1 $92 $91 $234 $235 forward $36 $-1 #
coedge $-1 $236 $237 $91 $150 reversed $221 $-1 #
edge $-1 $157 -75.308694723349703 $238 75.308694723349703 $149 $239 forward 7 unknown #
coedge $-1 $143 $240 $92 $152 reversed $88 $-1 #
edge $-1 $241 -75.308694723349703 $156 75.308694723349703 $151 $242 forward 7 unknown #
coedge $-1 $146 $93 $240 $243 forward $155 $-1 #
coedge $-1 $93 $146 $236 $244 reversed $155 $-1 #
loop $-1 $-1 $153 $220 #
vertex $-1 $94 $245 #
vertex $-1 $94 $246 #
straight-curve $-1 75.308694723349703 0 18.151234139516536 0 1 0 I I #
face $-1 $247 $248 $22 $-1 $249 reversed single #
loop $-1 $-1 $250 $95 #
plane-surface $-1 -75.308694723349703 0 0 1 0 0 0 0 -1 forward_v I I I I #
coedge $-1 $251 $168 $173 $252 reversed $96 $-1 #
coedge $-1 $253 $98 $254 $255 reversed $61 $-1 #
coedge $-1 $98 $253 $251 $256 forward $61 $-1 #
coedge $-1 $173 $172 $98 $166 forward $174 $-1 #
edge $-1 $257 -25.138270124537282 $258 -12.544237372482126 $165 $259 forward 7 unknown #
coedge $-1 $100 $99 $250 $260 reversed $39 $-1 #
coedge $-1 $162 $261 $99 $169 reversed $96 $-1 #
edge $-1 $175 -75.308694723349703 $262 75.308694723349703 $168 $263 forward 7 unknown #
coedge $-1 $264 $265 $100 $171 forward $248 $-1 #
edge $-1 $176 -75.308694723349703 $266 75.308694723349703 $170 $267 forward 7 unknown #
coedge $-1 $165 $101 $265 $268 forward $174 $-1 #
coedge $-1 $101 $165 $162 $252 forward $174 $-1 #
loop $-1 $-1 $101 $247 #
vertex $-1 $102 $269 #
vertex $-1 $268 $270 #
straight-curve $-1 75.308694723349703 -18.841253748509704 2.1070223346031991 0 -1 0 I I #
face $-1 $-1 $271 $23 $-1 $272 reversed single #
loop $-1 $-1 $273 $103 #
plane-surface $-1 0 43.979523873046986 0 0 -1 0 0 0 -1 forward_v I I I I #
coedge $-1 $274 $106 $108 $187 forward $65 $-1 #
coedge $-1 $106 $274 $273 $275 reversed $65 $-1 #
coedge $-1 $276 $109 $106 $184 forward $104 $-1 #
edge $-1 $190 12.113154526285236 $277 25.281964406602917 $183 $278 forward 7 unknown #
coedge $-1 $279 $280 $107 $186 forward $271 $-1 #
edge $-1 $281 -36.786544367053416 $189 -27.094329281716792 $185 $282 forward 7 unknown #
edge $-1 $190 -11.556641383728852 $281 7.8341151973915139e-014 $108 $283 forward 7 unknown #
coedge $-1 $109 $276 $279 $284 forward $104 $-1 #
vertex $-1 $186 $285 #
vertex $-1 $110 $286 #
straight-curve $-1 -100.81353373933021 30.810713992729312 18.151234139516532 1 0 0 I I #
coedge $-1 $192 $192 $-1 $287 reversed $113 $-1 #
edge $-1 $288 0 $288 6.2831853071796004 $114 $289 forward 7 unknown #
vertex $-1 $117 $290 #
ellipse-curve $-1 -72.1615957889464 34.573231101391499 13.305126596848238 -0.83867057594974714 0 0.54463902268945019 0.81695853403417529 0 1.2580058639246208 1 I I #
coedge $-1 $196 $196 $-1 $291 reversed $120 $-1 #
edge $-1 $292 0 $292 6.2831853071796004 $121 $293 forward 7 unknown #
vertex $-1 $124 $294 #
ellipse-curve $-1 -72.1615957889464 40.217006764384791 13.305126596848238 -0.83867057594974714 0 0.54463902268945019 0.81695853403417529 0 1.2580058639246208 1 I I #
face $-1 $-1 $212 $26 $-1 $295 forward single #
loop $-1 $-1 $296 $125 #
plane-surface $-1 75.308694723349703 0 0 -1 0 0 0 0 1 forward_v I I I I #
coedge $-1 $297 $298 $299 $300 reversed $126 $-1 #
coedge $-1 $301 $128 $130 $210 forward $79 $-1 #
coedge $-1 $128 $301 $297 $302 forward $79 $-1 #
coedge $-1 $299 $131 $128 $207 forward $212 $-1 #
edge $-1 $214 -8.0692869529684508 $303 1.9641248610058391 $206 $304 forward 7 unknown #
coedge $-1 $305 $306 $129 $209 forward $201 $-1 #
edge $-1 $307 -104.984186478404 $213 -88.702869965163984 $208 $308 forward 7 unknown #
edge $-1 $214 124.74612173852127 $307 150.61738944669946 $130 $309 forward 7 unknown #
coedge $-1 $131 $299 $305 $310 forward $212 $-1 #
loop $-1 $-1 $299 $200 #
vertex $-1 $209 $311 #
vertex $-1 $132 $312 #
straight-curve $-1 26.52179767265369 11.121867998949757 18.151234139516532 -1 0 0 I I #
coedge $-1 $216 $216 $-1 $313 reversed $135 $-1 #
edge $-1 $314 0 $314 6.2831853071796004 $136 $315 forward 7 unknown #
vertex $-1 $139 $316 #
ellipse-curve $-1 65.255819196617054 6.1051620919626117 10.01057588289652 0.62932039886446345 0 0.77714595512881146 1.5542919102576229 0 -1.2586407977289269 1 I I #
face $-1 $-1 $155 $21 $-1 $317 reversed single #
loop $-1 $-1 $236 $140 #
plane-surface $-1 0 43.979523873046986 0 0 -1 0 0 0 -1 forward_v I I I I #
coedge $-1 $318 $234 $237 $319 forward $141 $-1 #
coedge $-1 $240 $143 $144 $228 reversed $88 $-1 #
coedge $-1 $234 $318 $143 $226 reversed $141 $-1 #
edge $-1 $241 -18.151234139516536 $320 18.151234139516536 $225 $321 forward 7 unknown #
coedge $-1 $145 $144 $318 $322 forward $57 $-1 #
edge $-1 $232 -75.308694723349703 $320 75.308694723349703 $224 $323 forward 7 unknown #
coedge $-1 $237 $236 $145 $230 reversed $221 $-1 #
edge $-1 $324 -75.308694723349703 $231 75.308694723349703 $229 $325 forward 7 unknown #
vertex $-1 $147 $326 #
vertex $-1 $243 $327 #
straight-curve $-1 75.308694723349703 0 -18.151234139516536 0 -1 0 I I #
coedge $-1 $223 $225 $148 $235 reversed $141 $-1 #
edge $-1 $238 -43.979523873046986 $241 43.979523873046986 $234 $328 forward 7 unknown #
coedge $-1 $229 $149 $154 $244 forward $221 $-1 #
coedge $-1 $149 $229 $223 $319 reversed $221 $-1 #
vertex $-1 $150 $329 #
straight-curve $-1 0 43.979523873046986 18.151234139516536 -1 0 0 I I #
coedge $-1 $151 $224 $153 $243 reversed $88 $-1 #
vertex $-1 $235 $330 #
straight-curve $-1 0 -43.979523873046986 18.151234139516536 1 0 0 I I #
edge $-1 $156 -18.151234139516536 $232 18.151234139516536 $153 $331 forward 7 unknown #
edge $-1 $157 -18.151234139516536 $231 18.151234139516536 $154 $332 forward 7 unknown #
point $-1 75.308694723349703 -43.979523873046986 18.151234139516536 #
point $-1 75.308694723349703 43.979523873046986 18.151234139516536 #
face $-1 $-1 $174 $22 $-1 $333 reversed single #
loop $-1 $-1 $170 $159 #
plane-surface $-1 0 -43.979523873046986 0 0 1 0 0 0 1 forward_v I I I I #
coedge $-1 $334 $335 $167 $260 forward $160 $-1 #
coedge $-1 $261 $162 $164 $256 reversed $96 $-1 #
edge $-1 $258 -1.9078150152825408 $175 2.0406198948296463 $173 $336 forward 7 unknown #
coedge $-1 $164 $163 $337 $338 reversed $61 $-1 #
coedge $-1 $265 $264 $163 $255 forward $248 $-1 #
edge $-1 $339 -75.308694723349703 $257 75.308694723349703 $254 $340 forward 7 unknown #
edge $-1 $341 -75.308694723349703 $258 75.308694723349703 $251 $342 forward 7 unknown #
vertex $-1 $255 $343 #
vertex $-1 $166 $344 #
straight-curve $-1 75.308694723349703 -18.841253748509704 -1.8414125755089881 0 1 0 I I #
edge $-1 $266 -25.138270124537282 $262 -12.544237372482126 $250 $345 forward 7 unknown #
coedge $-1 $168 $251 $334 $346 reversed $96 $-1 #
vertex $-1 $260 $347 #
straight-curve $-1 0 -31.38549112099183 2.1070223346031991 -1 0 0 I I #
coedge $-1 $254 $170 $335 $348 forward $248 $-1 #
coedge $-1 $170 $254 $172 $268 reversed $248 $-1 #
vertex $-1 $348 $349 #
straight-curve $-1 0 -43.979523873046986 2.1070223346031991 -1 0 0 I I #
edge $-1 $176 -2.1070223346031991 $257 1.8414125755089881 $172 $350 forward 7 unknown #
point $-1 75.308694723349703 -31.38549112099183 2.1070223346031991 #
point $-1 75.308694723349703 -43.979523873046986 2.1070223346031991 #
loop $-1 $-1 $185 $178 #
plane-surface $-1 -75.308694723349703 0 0 1 0 0 0 0 -1 forward_v I I I I #
coedge $-1 $351 $352 $182 $275 forward $179 $-1 #
coedge $-1 $182 $181 $280 $353 reversed $65 $-1 #
edge $-1 $277 5.4042203722732989 $354 16.960861756002227 $273 $355 forward 7 unknown #
coedge $-1 $188 $183 $352 $356 forward $104 $-1 #
vertex $-1 $356 $357 #
straight-curve $-1 -69.014496854543125 18.697559466444076 18.151234139516539 0 1 0 I I #
coedge $-1 $358 $185 $188 $284 reversed $271 $-1 #
coedge $-1 $185 $358 $274 $353 forward $271 $-1 #
vertex $-1 $186 $359 #
straight-curve $-1 -75.308694723349703 30.810713992729312 45.245563421233328 0 0 1 I I #
straight-curve $-1 -75.30869472334966 30.810713992729312 8.4590190541799757 -0.54463902268945019 0 -0.83867057594974714 I I #
edge $-1 $360 -43.979523873046986 $189 -30.810713992729312 $279 $361 forward 7 unknown #
point $-1 -75.308694723349703 30.810713992729312 18.151234139516536 #
point $-1 -69.014496854543125 30.810713992729312 18.151234139516536 #
edge $-1 $362 1 $362 0 $192 $-1 forward 7 unknown #
vertex $-1 $193 $363 #
ellipse-curve $-1 -67.735059881084339 34.573231101391499 10.430500659211665 -0.83867057594974714 0 0.54463902268945019 0.81695853403417529 0 1.2580058639246208 1 I I #
point $-1 -71.344637254912257 34.573231101391499 14.563132460772881 #
edge $-1 $364 1 $364 0 $196 $-1 forward 7 unknown #
vertex $-1 $197 $365 #
ellipse-curve $-1 -67.735059881084339 40.217006764384791 10.430500659211665 -0.83867057594974714 0 0.54463902268945019 0.81695853403417529 0 1.2580058639246208 1 I I #
point $-1 -71.344637254912257 40.217006764384791 14.563132460772881 #
plane-surface $-1 0 0 18.151234139516536 0 0 1 1 0 0 forward_v I I I I #
coedge $-1 $306 $305 $298 $366 forward $201 $-1 #
coedge $-1 $298 $203 $205 $302 reversed $126 $-1 #
coedge $-1 $203 $297 $296 $366 reversed $126 $-1 #
coedge $-1 $211 $206 $203 $300 forward $212 $-1 #
edge $-1 $303 28.681145997230686 $367 48.786897050696012 $299 $368 forward 7 unknown #
coedge $-1 $205 $204 $306 $369 reversed $79 $-1 #
edge $-1 $370 -150.61738944669946 $303 -124.74612173852127 $297 $371 forward 7 unknown #
vertex $-1 $207 $372 #
straight-curve $-1 55.202943669884384 3.0525810459813059 18.151234139516525 0 -1 0 I I #
coedge $-1 $296 $208 $211 $310 reversed $201 $-1 #
coedge $-1 $208 $296 $301 $369 forward $201 $-1 #
vertex $-1 $209 $373 #
straight-curve $-1 75.308694723349703 11.121867998949757 106.85410410468052 0 0 1 I I #
straight-curve $-1 -41.743000257213723 11.121867998949757 96.65651322879765 0.77714595512881146 0 -0.62932039886446345 I I #
edge $-1 $367 1.0884561849754668 $213 11.121867998949757 $305 $374 forward 7 unknown #
point $-1 75.308694723349703 11.121867998949757 18.151234139516536 #
point $-1 55.202943669884377 11.121867998949757 18.151234139516532 #
edge $-1 $375 1 $375 0 $216 $-1 forward 7 unknown #
vertex $-1 $217 $376 #
ellipse-curve $-1 63.861891894490398 6.1051620919626117 8.2892190564754937 0.62932039886446345 0 0.77714595512881146 1.5542919102576229 0 -1.2586407977289269 1 I I #
point $-1 66.8101111068747 6.1051620919626117 8.751935085167629 #
plane-surface $-1 75.308694723349703 0 0 -1 0 0 0 0 1 forward_v I I I I #
coedge $-1 $225 $223 $227 $322 reversed $141 $-1 #
edge $-1 $238 -18.151234139516536 $324 18.151234139516536 $237 $377 forward 7 unknown #
vertex $-1 $322 $378 #
straight-curve $-1 -75.308694723349703 -43.979523873046986 0 0 0 -1 I I #
edge $-1 $320 -43.979523873046986 $324 43.979523873046986 $318 $379 forward 7 unknown #
straight-curve $-1 0 -43.979523873046986 -18.151234139516536 -1 0 0 I I #
vertex $-1 $230 $380 #
straight-curve $-1 0 43.979523873046986 -18.151234139516536 1 0 0 I I #
point $-1 75.308694723349703 43.979523873046986 -18.151234139516536 #
point $-1 75.308694723349703 -43.979523873046986 -18.151234139516536 #
straight-curve $-1 -75.308694723349703 0 18.151234139516536 0 -1 0 I I #
point $-1 -75.308694723349703 43.979523873046986 18.151234139516536 #
point $-1 -75.308694723349703 -43.979523873046986 18.151234139516536 #
straight-curve $-1 75.308694723349703 -43.979523873046986 0 0 0 -1 I I #
straight-curve $-1 75.308694723349703 43.979523873046986 0 0 0 -1 I I #
plane-surface $-1 75.308694723349703 0 0 -1 0 0 0 0 1 forward_v I I I I #
coedge $-1 $337 $250 $261 $346 forward $160 $-1 #
coedge $-1 $250 $337 $264 $348 reversed $160 $-1 #
straight-curve $-1 75.308694723349703 -31.38549112099183 0.066402439773552757 0 0 1 I I #
coedge $-1 $335 $334 $253 $338 forward $160 $-1 #
edge $-1 $341 12.544237372482126 $339 25.138270124537282 $337 $381 forward 7 unknown #
vertex $-1 $255 $382 #
straight-curve $-1 0 -43.979523873046986 -1.8414125755089881 1 0 0 I I #
vertex $-1 $338 $383 #
straight-curve $-1 0 -31.38549112099183 -1.8414125755089881 1 0 0 I I #
point $-1 75.308694723349703 -43.979523873046986 -1.8414125755089881 #
point $-1 75.308694723349703 -31.38549112099183 -1.8414125755089881 #
straight-curve $-1 -75.308694723349703 -18.841253748509704 2.1070223346031991 0 1 0 I I #
edge $-1 $262 -2.0406198948296463 $341 1.9078150152825408 $334 $384 forward 7 unknown #
point $-1 -75.308694723349703 -31.38549112099183 2.1070223346031991 #
edge $-1 $266 -2.1070223346031991 $339 1.8414125755089881 $335 $385 forward 7 unknown #
point $-1 -75.308694723349703 -43.979523873046986 2.1070223346031991 #
straight-curve $-1 75.308694723349703 -43.979523873046986 0 0 0 -1 I I #
coedge $-1 $352 $273 $358 $386 reversed $179 $-1 #
coedge $-1 $273 $351 $276 $356 reversed $179 $-1 #
edge $-1 $354 -25.281964406602917 $281 -12.113154526285236 $280 $387 forward 7 unknown #
vertex $-1 $275 $388 #
straight-curve $-1 -66.071147552589778 43.979523873046986 22.68359475169034 -0.54463902268945019 0 -0.83867057594974714 I I #
edge $-1 $277 69.014496854543125 $360 75.308694723349703 $352 $389 forward 7 unknown #
point $-1 -69.014496854543125 43.979523873046993 18.151234139516536 #
coedge $-1 $280 $279 $351 $386 forward $271 $-1 #
point $-1 -75.308694723349703 30.810713992729312 8.45901905417991 #
vertex $-1 $356 $390 #
straight-curve $-1 -75.308694723349703 0 18.151234139516536 0 -1 0 I I #
vertex $-1 $287 $391 #
point $-1 -66.918101347050168 34.573231101391499 11.688506523136287 #
vertex $-1 $291 $392 #
point $-1 -66.918101347050168 40.217006764384791 11.688506523136287 #
edge $-1 $367 88.702869965163984 $370 104.984186478404 $296 $393 forward 7 unknown #
vertex $-1 $310 $394 #
straight-curve $-1 26.52179767265369 1.0884561849754668 18.151234139516532 1 0 0 I I #
edge $-1 $370 -1.9641248610058391 $307 8.0692869529684508 $306 $395 forward 7 unknown #
vertex $-1 $369 $396 #
straight-curve $-1 -41.743000257213723 1.0884561849754668 96.65651322879765 -0.77714595512881146 0 0.62932039886446345 I I #
point $-1 55.202943669884377 1.0884561849754668 18.151234139516532 #
point $-1 75.308694723349703 11.121867998949757 1.8699176262765178 #
straight-curve $-1 75.308694723349703 0 18.151234139516536 0 1 0 I I #
vertex $-1 $313 $397 #
point $-1 65.416183804748016 6.1051620919626117 7.0305782587465675 #
straight-curve $-1 -75.308694723349703 43.979523873046986 0 0 0 -1 I I #
point $-1 -75.308694723349703 -43.979523873046986 -18.151234139516536 #
straight-curve $-1 -75.308694723349703 0 -18.151234139516536 0 1 0 I I #
point $-1 -75.308694723349703 43.979523873046986 -18.151234139516536 #
straight-curve $-1 -75.308694723349703 -18.841253748509704 -1.8414125755089881 0 -1 0 I I #
point $-1 -75.308694723349703 -43.979523873046986 -1.8414125755089881 #
point $-1 -75.308694723349703 -31.38549112099183 -1.8414125755089881 #
straight-curve $-1 -75.308694723349703 -31.38549112099183 0.066402439773552757 0 0 -1 I I #
straight-curve $-1 -75.308694723349703 -43.979523873046986 0 0 0 -1 I I #
edge $-1 $360 -18.151234139516536 $354 -8.45901905417991 $351 $398 forward 7 unknown #
straight-curve $-1 -75.308694723349703 18.697559466444076 8.4590190541799064 0 -1 0 I I #
point $-1 -75.308694723349703 43.979523873046993 8.45901905417991 #
straight-curve $-1 0 43.979523873046986 18.151234139516536 -1 0 0 I I #
point $-1 -75.308694723349703 43.979523873046986 18.151234139516536 #
point $-1 -66.47705401715973 34.573231101391499 9.6135421251774904 #
point $-1 -66.47705401715973 40.217006764384791 9.6135421251774904 #
straight-curve $-1 75.308694723349703 1.0884561849754668 106.85410410468052 0 0 -1 I I #
point $-1 75.308694723349703 1.0884561849754668 18.151234139516536 #
straight-curve $-1 75.308694723349703 3.0525810459813059 1.8699176262765178 0 1 0 I I #
point $-1 75.308694723349703 1.0884561849754668 1.8699176262765178 #
point $-1 62.603251096761468 6.1051620919626117 6.7349271462178715 #
straight-curve $-1 -75.308694723349703 43.979523873046986 0 0 0 -1 I I #
End-of-ACIS-data 