500 0 9 0           
7 Unknown 11 ACIS 5.0 NT 24 Thu Mar 25 17:06:35 1999 
-1 9.9999999999999995e-007 1e-010 
body $-1 $9 $-1 $10 #
body $-1 $11 $-1 $12 #
body $-1 $13 $-1 $14 #
body $-1 $15 $-1 $16 #
body $-1 $17 $-1 $18 #
body $-1 $19 $-1 $20 #
body $-1 $21 $-1 $22 #
body $-1 $23 $-1 $24 #
body $-1 $25 $-1 $26 #
lump $-1 $-1 $27 $0 #
transform $-1 1 0 0 0 1 0 0 0 1 61.653492843409531 25.644707033294655 10.434289471397779 1 rotate no_reflect no_shear #
lump $-1 $-1 $28 $1 #
transform $-1 1 0 0 0 1 0 0 0 1 61.653492843409531 25.644707033294655 10.434289471397779 1 rotate no_reflect no_shear #
lump $-1 $-1 $29 $2 #
transform $-1 1 0 0 0 1 0 0 0 1 61.653492843409531 25.644707033294655 10.434289471397779 1 rotate no_reflect no_shear #
lump $-1 $-1 $30 $3 #
transform $-1 1 0 0 0 1 0 0 0 1 61.653492843409531 25.644707033294655 10.434289471397779 1 rotate no_reflect no_shear #
lump $-1 $-1 $31 $4 #
transform $-1 1 0 0 0 1 0 0 0 1 61.653492843409531 25.644707033294655 10.434289471397779 1 rotate no_reflect no_shear #
lump $-1 $-1 $32 $5 #
transform $-1 1 0 0 0 1 0 0 0 1 61.653492843409531 25.644707033294655 10.434289471397779 1 rotate no_reflect no_shear #
lump $-1 $-1 $33 $6 #
transform $-1 1 0 0 0 1 0 0 0 1 61.653492843409531 25.644707033294655 10.434289471397779 1 rotate no_reflect no_shear #
lump $-1 $-1 $34 $7 #
transform $-1 1 0 0 0 1 0 0 0 1 61.653492843409531 25.644707033294655 10.434289471397779 1 rotate no_reflect no_shear #
lump $-1 $-1 $35 $8 #
transform $-1 1 0 0 0 1 0 0 0 1 61.653492843409531 25.644707033294655 10.434289471397779 1 rotate no_reflect no_shear #
shell $-1 $-1 $-1 $36 $-1 $9 #
shell $-1 $-1 $-1 $37 $-1 $11 #
shell $-1 $-1 $-1 $38 $-1 $13 #
shell $-1 $-1 $-1 $39 $-1 $15 #
shell $-1 $-1 $-1 $40 $-1 $17 #
shell $-1 $-1 $-1 $41 $-1 $19 #
shell $-1 $-1 $-1 $42 $-1 $21 #
shell $-1 $-1 $-1 $43 $-1 $23 #
shell $-1 $-1 $-1 $44 $-1 $25 #
face $-1 $45 $46 $27 $-1 $47 forward single #
face $-1 $48 $49 $28 $-1 $50 forward single #
face $-1 $51 $52 $29 $-1 $53 forward single #
face $-1 $54 $55 $30 $-1 $56 reversed single #
face $-1 $57 $58 $31 $-1 $59 forward single #
face $-1 $60 $61 $32 $-1 $62 forward single #
face $-1 $63 $64 $33 $-1 $65 reversed single #
face $-1 $66 $67 $34 $-1 $68 forward single #
face $-1 $69 $70 $35 $-1 $71 forward single #
face $-1 $72 $73 $27 $-1 $74 reversed single #
loop $-1 $-1 $75 $36 #
plane-surface $-1 0 0 10.434289471397779 0 0 1 1 0 0 forward_v I I I I #
face $-1 $76 $77 $28 $-1 $78 reversed single #
loop $-1 $-1 $79 $37 #
plane-surface $-1 0 -25.644707033294655 0 0 1 0 0 0 1 forward_v I I I I #
face $-1 $80 $81 $29 $-1 $82 reversed single #
loop $-1 $-1 $83 $38 #
plane-surface $-1 0 25.644707033294655 0 0 -1 0 0 0 -1 forward_v I I I I #
face $-1 $84 $85 $30 $-1 $86 reversed single #
loop $-1 $-1 $87 $39 #
plane-surface $-1 -140.91369640487994 6.4832228329734072 99.529248225016445 0 1 0 -0.64278761758704617 0 0.76604443648966558 forward_v I I I I #
face $-1 $88 $89 $31 $-1 $90 forward single #
loop $-1 $91 $92 $40 #
cone-surface $-1 -58.136011644962032 8.8073084313029888 7.3694314471129987 0.64278761758704617 0 -0.76604443648966558 0.38302221824483279 0 0.32139380879352308 1 I I 0 1 0.5 forward I I I I #
face $-1 $93 $94 $32 $-1 $95 forward single #
loop $-1 $96 $97 $41 #
cone-surface $-1 -58.136011644962032 12.293436828797365 7.3694314471129987 0.64278761758704617 0 -0.76604443648966558 0.38302221824483279 0 0.32139380879352308 1 I I 0 1 0.5 forward I I I I #
face $-1 $98 $99 $33 $-1 $100 reversed single #
loop $-1 $-1 $101 $42 #
plane-surface $-1 46.455066039181396 -12.459038830112917 177.19627631518478 0 -1 0 -0.64278761758704617 0 -0.76604443648966558 forward_v I I I I #
face $-1 $102 $103 $34 $-1 $104 forward single #
loop $-1 $105 $106 $43 #
cone-surface $-1 57.186675369067231 -16.745779426992495 6.5728437114619398 -0.64278761758704617 0 -0.76604443648966558 0.1915111091224164 0 -0.16069690439676154 1 I I 0 1 0.25 forward I I I I #
face $-1 $107 $108 $35 $-1 $109 forward single #
loop $-1 $110 $111 $44 #
cone-surface $-1 57.186675369067231 -14.173735068864749 6.5728437114619398 -0.64278761758704617 0 -0.76604443648966558 0.1915111091224164 0 -0.16069690439676154 1 I I 0 1 0.25 forward I I I I #
face $-1 $112 $113 $27 $-1 $114 reversed single #
loop $-1 $-1 $115 $45 #
plane-surface $-1 0 0 -10.434289471397779 0 0 1 1 0 0 forward_v I I I I #
coedge $-1 $116 $117 $118 $119 forward $46 $-1 #
face $-1 $120 $121 $28 $-1 $122 reversed single #
loop $-1 $-1 $123 $48 #
plane-surface $-1 0 0 -10.434289471397779 0 0 1 1 0 0 forward_v I I I I #
coedge $-1 $124 $125 $126 $127 forward $49 $-1 #
face $-1 $128 $129 $29 $-1 $130 forward single #
loop $-1 $-1 $131 $51 #
plane-surface $-1 -61.653492843409531 0 0 1 0 0 0 0 -1 forward_v I I I I #
coedge $-1 $132 $133 $134 $135 forward $52 $-1 #
face $-1 $136 $137 $30 $-1 $138 reversed single #
loop $-1 $-1 $139 $54 #
plane-surface $-1 -61.653492843409524 10.55037263005018 5.0706178593178777 -0.64278761758704617 0 0.76604443648966558 0.76604443648966558 0 0.64278761758704617 forward_v I I I I #
coedge $-1 $140 $141 $142 $143 reversed $55 $-1 #
face $-1 $-1 $144 $31 $-1 $145 forward single #
loop $-1 $146 $147 $57 #
cone-surface $-1 -57.653920931771751 8.8073084313029888 6.7948981197457492 0.64278761758704617 0 -0.76604443648966558 0.1915111091224164 0 0.16069690439676154 1 I I -0.70710678118654746 0.70710678118654746 0.25 forward I I I I #
loop $-1 $-1 $148 $40 #
coedge $-1 $92 $92 $149 $150 reversed $58 $-1 #
face $-1 $-1 $151 $32 $-1 $152 forward single #
loop $-1 $153 $154 $60 #
cone-surface $-1 -57.653920931771751 12.293436828797365 6.7948981197457492 0.64278761758704617 0 -0.76604443648966558 0.1915111091224164 0 0.16069690439676154 1 I I -0.70710678118654746 0.70710678118654746 0.25 forward I I I I #
loop $-1 $-1 $155 $41 #
coedge $-1 $97 $97 $156 $157 reversed $61 $-1 #
face $-1 $158 $159 $33 $-1 $160 reversed single #
loop $-1 $-1 $161 $63 #
plane-surface $-1 -32.805137522289037 -15.459757247928621 82.737645949486193 0.64278761758704617 0 0.76604443648966558 0.76604443648966558 0 -0.64278761758704617 forward_v I I I I #
coedge $-1 $162 $163 $164 $165 reversed $64 $-1 #
face $-1 $-1 $166 $34 $-1 $167 forward single #
loop $-1 $168 $169 $66 #
cone-surface $-1 56.784933108075329 -16.745779426992495 6.0940659386558984 -0.64278761758704617 0 -0.76604443648966558 0.095755554561208198 0 -0.080348452198380771 1 I I -0.70710678118654746 0.70710678118654746 0.125 forward I I I I #
loop $-1 $-1 $170 $43 #
coedge $-1 $106 $106 $171 $172 reversed $67 $-1 #
face $-1 $-1 $173 $35 $-1 $174 forward single #
loop $-1 $175 $176 $69 #
cone-surface $-1 56.784933108075329 -14.173735068864749 6.0940659386558984 -0.64278761758704617 0 -0.76604443648966558 0.095755554561208198 0 -0.080348452198380771 1 I I -0.70710678118654746 0.70710678118654746 0.125 forward I I I I #
loop $-1 $-1 $177 $44 #
coedge $-1 $111 $111 $178 $179 reversed $70 $-1 #
face $-1 $180 $181 $27 $-1 $182 reversed single #
loop $-1 $-1 $183 $72 #
plane-surface $-1 0 -25.644707033294655 0 0 1 0 0 0 1 forward_v I I I I #
coedge $-1 $184 $185 $186 $187 forward $73 $-1 #
coedge $-1 $188 $75 $189 $190 forward $46 $-1 #
coedge $-1 $75 $188 $191 $192 forward $46 $-1 #
coedge $-1 $193 $194 $75 $119 reversed $195 $-1 #
edge $-1 $196 -25.644707033294655 $197 25.644707033294655 $118 $198 forward 7 unknown #
face $-1 $199 $200 $28 $-1 $201 reversed single #
loop $-1 $-1 $202 $76 #
plane-surface $-1 -42.370962839186035 -32.828938400844983 0 0 1 0 0 0 1 forward_v I I I I #
coedge $-1 $203 $204 $125 $205 forward $77 $-1 #
coedge $-1 $206 $79 $207 $208 reversed $49 $-1 #
coedge $-1 $79 $206 $123 $205 reversed $49 $-1 #
coedge $-1 $209 $210 $79 $127 reversed $200 $-1 #
edge $-1 $211 -10.434289471397779 $212 10.434289471397779 $126 $213 forward 7 unknown #
face $-1 $214 $215 $29 $-1 $216 reversed single #
loop $-1 $-1 $217 $80 #
plane-surface $-1 0 0 10.434289471397779 0 0 1 1 0 0 forward_v I I I I #
coedge $-1 $218 $219 $133 $220 forward $81 $-1 #
coedge $-1 $221 $83 $222 $223 reversed $52 $-1 #
coedge $-1 $83 $221 $131 $220 reversed $52 $-1 #
coedge $-1 $224 $225 $83 $135 reversed $215 $-1 #
edge $-1 $226 -61.653492843409531 $227 61.653492843409531 $134 $228 forward 7 unknown #
face $-1 $229 $230 $30 $-1 $231 forward single #
loop $-1 $-1 $232 $84 #
plane-surface $-1 -140.91369640487994 14.617522427126953 99.529248225016445 0 -1 0 0.64278761758704617 0 -0.76604443648966558 forward_v I I I I #
coedge $-1 $233 $234 $235 $236 reversed $85 $-1 #
coedge $-1 $141 $87 $237 $238 reversed $55 $-1 #
coedge $-1 $87 $140 $233 $239 reversed $55 $-1 #
coedge $-1 $235 $240 $87 $143 forward $230 $-1 #
edge $-1 $241 8.8033553590304408 $242 15.195530138338405 $142 $243 forward 7 unknown #
loop $-1 $-1 $149 $88 #
plane-surface $-1 -61.653492843409524 10.55037263005018 5.0706178593178777 -0.64278761758704617 0 0.76604443648966558 0.76604443648966558 0 0.64278761758704617 forward_v I I I I #
loop $-1 $-1 $244 $57 #
coedge $-1 $147 $147 $148 $245 reversed $89 $-1 #
coedge $-1 $148 $148 $147 $245 forward $91 $-1 #
coedge $-1 $149 $149 $92 $150 forward $144 $-1 #
edge $-1 $246 0 $246 6.2831853071796004 $149 $247 forward 7 unknown #
loop $-1 $-1 $156 $93 #
plane-surface $-1 -61.653492843409524 10.55037263005018 5.0706178593178777 -0.64278761758704617 0 0.76604443648966558 0.76604443648966558 0 0.64278761758704617 forward_v I I I I #
loop $-1 $-1 $248 $60 #
coedge $-1 $154 $154 $155 $249 reversed $94 $-1 #
coedge $-1 $155 $155 $154 $249 forward $96 $-1 #
coedge $-1 $156 $156 $97 $157 forward $151 $-1 #
edge $-1 $250 0 $250 6.2831853071796004 $156 $251 forward 7 unknown #
face $-1 $252 $253 $33 $-1 $254 reversed single #
loop $-1 $-1 $255 $98 #
plane-surface $-1 46.455066039181396 -18.460475665744326 177.19627631518478 0 1 0 0.64278761758704617 0 0.76604443648966558 forward_v I I I I #
coedge $-1 $256 $257 $258 $259 reversed $99 $-1 #
coedge $-1 $163 $101 $260 $261 reversed $64 $-1 #
coedge $-1 $101 $162 $256 $262 reversed $64 $-1 #
coedge $-1 $258 $263 $101 $165 forward $264 $-1 #
edge $-1 $265 -38.425959823818829 $266 -30.135112492721237 $164 $267 forward 7 unknown #
loop $-1 $-1 $171 $102 #
plane-surface $-1 -32.805137522289037 -15.459757247928621 82.737645949486193 0.64278761758704617 0 0.76604443648966558 0.76604443648966558 0 -0.64278761758704617 forward_v I I I I #
loop $-1 $-1 $268 $66 #
coedge $-1 $169 $169 $170 $269 reversed $103 $-1 #
coedge $-1 $170 $170 $169 $269 forward $105 $-1 #
coedge $-1 $171 $171 $106 $172 forward $166 $-1 #
edge $-1 $270 0 $270 6.2831853071796004 $171 $271 forward 7 unknown #
loop $-1 $-1 $178 $107 #
plane-surface $-1 -32.805137522289037 -15.459757247928621 82.737645949486193 0.64278761758704617 0 0.76604443648966558 0.76604443648966558 0 -0.64278761758704617 forward_v I I I I #
loop $-1 $-1 $272 $69 #
coedge $-1 $176 $176 $177 $273 reversed $108 $-1 #
coedge $-1 $177 $177 $176 $273 forward $110 $-1 #
coedge $-1 $178 $178 $111 $179 forward $173 $-1 #
edge $-1 $274 0 $274 6.2831853071796004 $178 $275 forward 7 unknown #
face $-1 $276 $277 $27 $-1 $278 reversed single #
loop $-1 $-1 $279 $112 #
plane-surface $-1 -61.653492843409531 0 0 1 0 0 0 0 -1 forward_v I I I I #
coedge $-1 $280 $191 $281 $282 forward $113 $-1 #
coedge $-1 $283 $115 $280 $284 forward $73 $-1 #
coedge $-1 $115 $283 $285 $286 forward $73 $-1 #
coedge $-1 $194 $193 $115 $187 reversed $195 $-1 #
edge $-1 $287 -25.644707033294655 $288 25.644707033294655 $186 $289 forward 7 unknown #
coedge $-1 $117 $116 $290 $291 forward $46 $-1 #
coedge $-1 $292 $293 $116 $190 reversed $277 $-1 #
edge $-1 $197 -61.653492843409531 $294 61.653492843409531 $189 $295 forward 7 unknown #
coedge $-1 $183 $296 $117 $192 reversed $113 $-1 #
edge $-1 $297 -61.653492843409531 $196 61.653492843409531 $191 $298 forward 7 unknown #
coedge $-1 $186 $118 $296 $299 forward $195 $-1 #
coedge $-1 $118 $186 $292 $300 reversed $195 $-1 #
loop $-1 $-1 $193 $276 #
vertex $-1 $119 $301 #
vertex $-1 $119 $302 #
straight-curve $-1 61.653492843409531 0 10.434289471397779 0 1 0 I I #
face $-1 $303 $304 $28 $-1 $305 reversed single #
loop $-1 $-1 $126 $120 #
plane-surface $-1 -43.957011777758098 -29.23682271706982 0 1 0 0 0 0 -1 forward_v I I I I #
coedge $-1 $306 $307 $308 $309 forward $121 $-1 #
coedge $-1 $310 $123 $311 $312 forward $77 $-1 #
coedge $-1 $123 $310 $209 $313 forward $77 $-1 #
edge $-1 $211 -43.957011777758098 $314 -40.784913900613972 $123 $315 forward 7 unknown #
coedge $-1 $125 $124 $316 $317 forward $49 $-1 #
coedge $-1 $318 $319 $124 $208 forward $320 $-1 #
edge $-1 $321 40.784913900613972 $212 43.957011777758098 $207 $322 forward 7 unknown #
coedge $-1 $308 $126 $204 $313 reversed $200 $-1 #
coedge $-1 $126 $308 $318 $323 reversed $200 $-1 #
vertex $-1 $205 $324 #
vertex $-1 $323 $325 #
straight-curve $-1 -43.957011777758098 -25.644707033294655 0 0 0 1 I I #
face $-1 $326 $327 $29 $-1 $328 reversed single #
loop $-1 $-1 $225 $128 #
plane-surface $-1 0 31.158299336378501 4.3365017859887978 0 0 1 1 0 0 forward_v I I I I #
coedge $-1 $329 $330 $221 $331 forward $129 $-1 #
coedge $-1 $332 $131 $330 $333 reversed $81 $-1 #
coedge $-1 $131 $332 $224 $334 reversed $81 $-1 #
edge $-1 $226 4.3365017859887978 $335 10.434289471397779 $131 $336 forward 7 unknown #
coedge $-1 $133 $132 $217 $331 reversed $52 $-1 #
coedge $-1 $337 $338 $132 $223 forward $339 $-1 #
edge $-1 $340 -10.434289471397779 $227 -4.3365017859887978 $222 $341 forward 7 unknown #
coedge $-1 $342 $134 $219 $334 forward $215 $-1 #
coedge $-1 $134 $342 $337 $343 forward $215 $-1 #
vertex $-1 $220 $344 #
vertex $-1 $223 $345 #
straight-curve $-1 0 25.644707033294655 4.3365017859887978 1 0 0 I I #
face $-1 $-1 $346 $30 $-1 $347 reversed single #
loop $-1 $-1 $142 $136 #
plane-surface $-1 0 0 10.434289471397779 0 0 1 1 0 0 forward_v I I I I #
coedge $-1 $348 $349 $350 $351 reversed $137 $-1 #
coedge $-1 $352 $139 $141 $239 forward $85 $-1 #
coedge $-1 $139 $352 $348 $353 forward $85 $-1 #
coedge $-1 $350 $142 $139 $236 forward $230 $-1 #
edge $-1 $242 1.208036517948317 $354 9.3423361121018633 $235 $355 forward 7 unknown #
coedge $-1 $356 $357 $140 $238 forward $346 $-1 #
edge $-1 $358 -44.694006253190352 $241 -39.33033464111044 $237 $359 forward 7 unknown #
edge $-1 $242 -8.3443916238065281 $358 9.439443728910611e-015 $141 $360 forward 7 unknown #
coedge $-1 $142 $350 $356 $361 forward $230 $-1 #
vertex $-1 $143 $362 #
vertex $-1 $143 $363 #
straight-curve $-1 -70.456848202439971 6.4832228329734072 10.434289471397776 1 0 0 I I #
coedge $-1 $244 $244 $-1 $364 reversed $146 $-1 #
edge $-1 $365 0 $365 6.2831853071796004 $147 $366 forward 7 unknown #
vertex $-1 $150 $367 #
ellipse-curve $-1 -58.457405453755548 8.8073084313029888 7.7524536653578249 -0.64278761758704617 0 0.76604443648966558 0.38302221824483279 0 0.32139380879352308 1 I I #
coedge $-1 $248 $248 $-1 $368 reversed $153 $-1 #
edge $-1 $369 0 $369 6.2831853071796004 $154 $370 forward 7 unknown #
vertex $-1 $157 $371 #
ellipse-curve $-1 -58.457405453755548 12.293436828797365 7.7524536653578249 -0.64278761758704617 0 0.76604443648966558 0.38302221824483279 0 0.32139380879352308 1 I I #
face $-1 $-1 $264 $33 $-1 $372 forward single #
loop $-1 $-1 $373 $158 #
plane-surface $-1 61.653492843409531 0 0 -1 0 0 0 0 1 forward_v I I I I #
coedge $-1 $374 $375 $376 $377 reversed $159 $-1 #
coedge $-1 $378 $161 $163 $262 forward $99 $-1 #
coedge $-1 $161 $378 $374 $379 forward $99 $-1 #
coedge $-1 $376 $164 $161 $259 forward $264 $-1 #
edge $-1 $266 4.729160206148606 $380 10.730597041780015 $258 $381 forward 7 unknown #
coedge $-1 $382 $383 $162 $261 forward $253 $-1 #
edge $-1 $384 -85.120695769576614 $265 -78.163848686194612 $260 $385 forward 7 unknown #
edge $-1 $266 112.48405305240203 $384 123.30698568681905 $163 $386 forward 7 unknown #
coedge $-1 $164 $376 $382 $387 forward $264 $-1 #
loop $-1 $-1 $376 $252 #
vertex $-1 $261 $388 #
vertex $-1 $165 $389 #
straight-curve $-1 23.227533019590698 -12.459038830112917 10.434289471397776 -1 0 0 I I #
coedge $-1 $268 $268 $-1 $390 reversed $168 $-1 #
edge $-1 $391 0 $391 6.2831853071796004 $169 $392 forward 7 unknown #
vertex $-1 $172 $393 #
ellipse-curve $-1 57.508069177860747 -16.745779426992495 6.9558659297067615 0.64278761758704617 0 0.76604443648966558 0.1915111091224164 0 -0.16069690439676154 1 I I #
coedge $-1 $272 $272 $-1 $394 reversed $175 $-1 #
edge $-1 $395 0 $395 6.2831853071796004 $176 $396 forward 7 unknown #
vertex $-1 $179 $397 #
ellipse-curve $-1 57.508069177860747 -14.173735068864749 6.9558659297067615 0.64278761758704617 0 0.76604443648966558 0.1915111091224164 0 -0.16069690439676154 1 I I #
face $-1 $-1 $195 $27 $-1 $398 reversed single #
loop $-1 $-1 $292 $180 #
plane-surface $-1 0 25.644707033294655 0 0 -1 0 0 0 -1 forward_v I I I I #
coedge $-1 $399 $290 $293 $400 forward $181 $-1 #
coedge $-1 $296 $183 $184 $284 reversed $113 $-1 #
coedge $-1 $290 $399 $183 $282 reversed $181 $-1 #
edge $-1 $297 -10.434289471397779 $401 10.434289471397779 $281 $402 forward 7 unknown #
coedge $-1 $185 $184 $399 $403 forward $73 $-1 #
edge $-1 $288 -61.653492843409531 $401 61.653492843409531 $280 $404 forward 7 unknown #
coedge $-1 $293 $292 $185 $286 reversed $277 $-1 #
edge $-1 $405 -61.653492843409531 $287 61.653492843409531 $285 $406 forward 7 unknown #
vertex $-1 $187 $407 #
vertex $-1 $299 $408 #
straight-curve $-1 61.653492843409531 0 -10.434289471397779 0 -1 0 I I #
coedge $-1 $279 $281 $188 $291 reversed $181 $-1 #
edge $-1 $294 -25.644707033294655 $297 25.644707033294655 $290 $409 forward 7 unknown #
coedge $-1 $285 $189 $194 $300 forward $277 $-1 #
coedge $-1 $189 $285 $279 $400 reversed $277 $-1 #
vertex $-1 $190 $410 #
straight-curve $-1 0 25.644707033294655 10.434289471397779 -1 0 0 I I #
coedge $-1 $191 $280 $193 $299 reversed $113 $-1 #
vertex $-1 $291 $411 #
straight-curve $-1 0 -25.644707033294655 10.434289471397779 1 0 0 I I #
edge $-1 $196 -10.434289471397779 $288 10.434289471397779 $193 $412 forward 7 unknown #
edge $-1 $197 -10.434289471397779 $287 10.434289471397779 $194 $413 forward 7 unknown #
point $-1 61.653492843409531 -25.644707033294655 10.434289471397779 #
point $-1 61.653492843409531 25.644707033294655 10.434289471397779 #
face $-1 $-1 $320 $28 $-1 $414 forward single #
loop $-1 $-1 $415 $199 #
plane-surface $-1 -40.784913900613972 -29.23682271706982 0 -1 0 0 0 0 1 forward_v I I I I #
coedge $-1 $416 $202 $310 $417 reversed $121 $-1 #
coedge $-1 $202 $416 $418 $419 reversed $121 $-1 #
coedge $-1 $210 $209 $202 $309 reversed $200 $-1 #
edge $-1 $420 -10.434289471397779 $421 10.434289471397779 $308 $422 forward 7 unknown #
coedge $-1 $204 $203 $306 $417 forward $77 $-1 #
coedge $-1 $316 $415 $203 $312 reversed $304 $-1 #
edge $-1 $314 -3.5921156837751624 $423 3.5921156837751624 $311 $424 forward 7 unknown #
edge $-1 $421 -3.5921156837751624 $211 3.5921156837751624 $209 $425 forward 7 unknown #
vertex $-1 $312 $426 #
straight-curve $-1 0 -25.644707033294655 -10.434289471397779 1 0 0 I I #
coedge $-1 $427 $311 $206 $317 reversed $304 $-1 #
edge $-1 $321 -10.434289471397779 $314 10.434289471397779 $316 $428 forward 7 unknown #
coedge $-1 $418 $207 $210 $323 forward $320 $-1 #
coedge $-1 $207 $418 $427 $429 forward $320 $-1 #
loop $-1 $-1 $207 $303 #
vertex $-1 $208 $430 #
straight-curve $-1 0 -25.644707033294655 10.434289471397779 -1 0 0 I I #
edge $-1 $212 -3.5921156837751624 $420 3.5921156837751624 $210 $431 forward 7 unknown #
point $-1 -43.957011777758098 -25.644707033294658 -10.434289471397779 #
point $-1 -43.957011777758098 -25.644707033294658 10.434289471397779 #
face $-1 $-1 $339 $29 $-1 $432 reversed single #
loop $-1 $-1 $433 $214 #
plane-surface $-1 0 36.671891639462352 7.3853956286932885 0 -1 0 0 0 -1 forward_v I I I I #
coedge $-1 $434 $217 $338 $435 forward $129 $-1 #
coedge $-1 $217 $434 $218 $333 forward $129 $-1 #
edge $-1 $335 -61.653492843409531 $340 61.653492843409531 $217 $436 forward 7 unknown #
coedge $-1 $219 $218 $437 $438 forward $81 $-1 #
edge $-1 $439 -36.671891639462352 $335 -25.644707033294655 $218 $440 forward 7 unknown #
edge $-1 $226 -5.5135923030838505 $441 5.5135923030838505 $219 $442 forward 7 unknown #
vertex $-1 $331 $443 #
straight-curve $-1 -61.653492843409531 25.644707033294655 0 0 0 1 I I #
coedge $-1 $444 $222 $225 $343 reversed $339 $-1 #
coedge $-1 $222 $444 $329 $435 reversed $339 $-1 #
loop $-1 $-1 $222 $326 #
vertex $-1 $435 $445 #
straight-curve $-1 61.653492843409531 25.644707033294655 0 0 0 -1 I I #
coedge $-1 $225 $224 $446 $447 forward $215 $-1 #
edge $-1 $448 -5.5135923030838505 $227 5.5135923030838505 $337 $449 forward 7 unknown #
point $-1 -61.653492843409531 25.644707033294651 4.3365017859887978 #
point $-1 61.653492843409531 25.644707033294651 4.3365017859887978 #
loop $-1 $-1 $237 $229 #
plane-surface $-1 -61.653492843409531 0 0 1 0 0 0 0 -1 forward_v I I I I #
coedge $-1 $349 $232 $234 $353 reversed $137 $-1 #
coedge $-1 $232 $348 $450 $451 reversed $137 $-1 #
coedge $-1 $240 $235 $232 $351 forward $230 $-1 #
edge $-1 $354 -15.195530138338405 $452 -8.8033553590304408 $350 $453 forward 7 unknown #
coedge $-1 $234 $233 $357 $454 reversed $85 $-1 #
edge $-1 $455 -9.439443728910611e-015 $354 8.3443916238065281 $348 $456 forward 7 unknown #
vertex $-1 $236 $457 #
straight-curve $-1 -55.261318064101559 5.2751863150250902 10.434289471397779 0 1 0 I I #
coedge $-1 $450 $237 $240 $361 reversed $346 $-1 #
coedge $-1 $237 $450 $352 $454 forward $346 $-1 #
vertex $-1 $238 $458 #
straight-curve $-1 -61.653492843409531 6.4832228329734072 49.764624112508223 0 0 1 I I #
straight-curve $-1 -61.653492843409524 6.4832228329734072 5.0706178593178777 -0.76604443648966558 0 -0.64278761758704617 I I #
edge $-1 $452 -14.617522427126953 $241 -6.4832228329734072 $356 $459 forward 7 unknown #
point $-1 -61.653492843409531 6.4832228329734072 10.434289471397779 #
point $-1 -55.261318064101566 6.4832228329734072 10.434289471397779 #
edge $-1 $460 1 $460 0 $244 $-1 forward 7 unknown #
vertex $-1 $245 $461 #
ellipse-curve $-1 -57.814617836168509 8.8073084313029888 6.9864092288681654 -0.64278761758704617 0 0.76604443648966558 0.38302221824483279 0 0.32139380879352308 1 I I #
point $-1 -58.074383235510723 8.8073084313029888 8.0738474741513535 #
edge $-1 $462 1 $462 0 $248 $-1 forward 7 unknown #
vertex $-1 $249 $463 #
ellipse-curve $-1 -57.814617836168509 12.293436828797365 6.9864092288681654 -0.64278761758704617 0 0.76604443648966558 0.38302221824483279 0 0.32139380879352308 1 I I #
point $-1 -58.074383235510723 12.293436828797365 8.0738474741513535 #
plane-surface $-1 0 0 10.434289471397779 0 0 1 1 0 0 forward_v I I I I #
coedge $-1 $383 $382 $375 $464 forward $253 $-1 #
coedge $-1 $375 $255 $257 $379 reversed $159 $-1 #
coedge $-1 $255 $374 $373 $464 reversed $159 $-1 #
coedge $-1 $263 $258 $255 $377 forward $264 $-1 #
edge $-1 $380 30.135112492721237 $465 38.425959823818829 $376 $466 forward 7 unknown #
coedge $-1 $257 $256 $383 $467 reversed $99 $-1 #
edge $-1 $468 -123.30698568681905 $380 -112.48405305240203 $374 $469 forward 7 unknown #
vertex $-1 $259 $470 #
straight-curve $-1 53.362645512311921 -7.7298786239643107 10.43428947139779 0 -1 0 I I #
coedge $-1 $373 $260 $263 $387 reversed $253 $-1 #
coedge $-1 $260 $373 $378 $467 forward $253 $-1 #
vertex $-1 $261 $471 #
straight-curve $-1 61.653492843409531 -12.459038830112917 88.598138157592388 0 0 1 I I #
straight-curve $-1 -32.805137522289037 -12.459038830112917 82.737645949486193 0.76604443648966558 0 -0.64278761758704617 I I #
edge $-1 $465 -18.460475665744326 $265 -12.459038830112917 $382 $472 forward 7 unknown #
point $-1 61.653492843409531 -12.459038830112917 10.434289471397779 #
point $-1 53.362645512311936 -12.459038830112917 10.434289471397776 #
edge $-1 $473 1 $473 0 $268 $-1 forward 7 unknown #
vertex $-1 $269 $474 #
ellipse-curve $-1 56.865281560273708 -16.745779426992495 6.1898214932171065 0.64278761758704617 0 0.76604443648966558 0.1915111091224164 0 -0.16069690439676154 1 I I #
point $-1 57.699580286983171 -16.745779426992495 6.7951690253100105 #
edge $-1 $475 1 $475 0 $272 $-1 forward 7 unknown #
vertex $-1 $273 $476 #
ellipse-curve $-1 56.865281560273708 -14.173735068864749 6.1898214932171065 0.64278761758704617 0 0.76604443648966558 0.1915111091224164 0 -0.16069690439676154 1 I I #
point $-1 57.699580286983171 -14.173735068864749 6.7951690253100105 #
plane-surface $-1 61.653492843409531 0 0 -1 0 0 0 0 1 forward_v I I I I #
coedge $-1 $281 $279 $283 $403 reversed $181 $-1 #
edge $-1 $294 -10.434289471397779 $405 10.434289471397779 $293 $477 forward 7 unknown #
vertex $-1 $403 $478 #
straight-curve $-1 -61.653492843409531 -25.644707033294655 0 0 0 -1 I I #
edge $-1 $401 -25.644707033294655 $405 25.644707033294655 $399 $479 forward 7 unknown #
straight-curve $-1 0 -25.644707033294655 -10.434289471397779 -1 0 0 I I #
vertex $-1 $286 $480 #
straight-curve $-1 0 25.644707033294655 -10.434289471397779 1 0 0 I I #
point $-1 61.653492843409531 25.644707033294655 -10.434289471397779 #
point $-1 61.653492843409531 -25.644707033294655 -10.434289471397779 #
straight-curve $-1 -61.653492843409531 0 10.434289471397779 0 -1 0 I I #
point $-1 -61.653492843409531 25.644707033294655 10.434289471397779 #
point $-1 -61.653492843409531 -25.644707033294655 10.434289471397779 #
straight-curve $-1 61.653492843409531 -25.644707033294655 0 0 0 -1 I I #
straight-curve $-1 61.653492843409531 25.644707033294655 0 0 0 -1 I I #
plane-surface $-1 0 0 10.434289471397779 0 0 1 1 0 0 forward_v I I I I #
coedge $-1 $311 $427 $416 $481 forward $304 $-1 #
coedge $-1 $307 $306 $415 $481 reversed $121 $-1 #
edge $-1 $423 -1.5860489385720626 $421 1.5860489385720626 $306 $482 forward 7 unknown #
coedge $-1 $319 $318 $307 $419 forward $320 $-1 #
edge $-1 $420 -1.5860489385720626 $483 1.5860489385720626 $307 $484 forward 7 unknown #
vertex $-1 $323 $485 #
vertex $-1 $313 $486 #
straight-curve $-1 -43.957011777758098 -32.828938400844983 0 0 0 -1 I I #
vertex $-1 $481 $487 #
straight-curve $-1 -40.784913900613972 -29.23682271706982 -10.434289471397779 0 -1 0 I I #
straight-curve $-1 -43.957011777758098 -29.23682271706982 -10.434289471397779 0 1 0 I I #
point $-1 -40.784913900613972 -25.644707033294658 -10.434289471397779 #
coedge $-1 $415 $316 $319 $429 reversed $304 $-1 #
straight-curve $-1 -40.784913900613972 -25.644707033294655 0 0 0 -1 I I #
edge $-1 $483 -3.5921156837751624 $321 3.5921156837751624 $427 $488 forward 7 unknown #
point $-1 -40.784913900613972 -25.644707033294658 10.434289471397779 #
straight-curve $-1 -43.957011777758098 -29.23682271706982 10.434289471397779 0 -1 0 I I #
plane-surface $-1 61.653492843409531 0 0 -1 0 0 0 0 1 forward_v I I I I #
coedge $-1 $446 $489 $444 $490 forward $327 $-1 #
coedge $-1 $330 $329 $489 $491 forward $129 $-1 #
edge $-1 $340 25.644707033294655 $492 36.671891639462352 $338 $493 forward 7 unknown #
straight-curve $-1 0 25.644707033294655 10.434289471397779 1 0 0 I I #
coedge $-1 $489 $446 $332 $438 reversed $327 $-1 #
edge $-1 $439 -3.0488938427044907 $441 3.0488938427044907 $437 $494 forward 7 unknown #
vertex $-1 $491 $495 #
straight-curve $-1 -61.653492843409531 0 10.434289471397779 0 -1 0 I I #
vertex $-1 $447 $496 #
straight-curve $-1 -61.653492843409531 31.158299336378501 4.3365017859887978 0 1 0 I I #
point $-1 -61.653492843409531 25.644707033294655 10.434289471397779 #
coedge $-1 $338 $337 $433 $490 reversed $339 $-1 #
point $-1 61.653492843409531 25.644707033294655 10.434289471397779 #
coedge $-1 $437 $433 $342 $447 reversed $327 $-1 #
edge $-1 $441 -61.653492843409531 $448 61.653492843409531 $446 $497 forward 7 unknown #
vertex $-1 $343 $498 #
straight-curve $-1 61.653492843409531 31.158299336378501 4.3365017859887978 0 -1 0 I I #
coedge $-1 $357 $356 $349 $451 forward $346 $-1 #
edge $-1 $452 39.33033464111044 $455 44.694006253190352 $450 $499 forward 7 unknown #
vertex $-1 $361 $500 #
straight-curve $-1 -70.456848202439971 14.617522427126953 10.434289471397776 -1 0 0 I I #
edge $-1 $455 -9.3423361121018633 $358 -1.208036517948317 $357 $501 forward 7 unknown #
vertex $-1 $454 $502 #
straight-curve $-1 -61.653492843409524 14.617522427126953 5.0706178593178777 0.76604443648966558 0 0.64278761758704617 I I #
point $-1 -55.261318064101566 14.617522427126953 10.434289471397779 #
point $-1 -61.653492843409531 6.4832228329734072 5.0706178593178715 #
straight-curve $-1 -61.653492843409531 0 10.434289471397779 0 -1 0 I I #
vertex $-1 $364 $503 #
point $-1 -57.431595617923676 8.8073084313029888 7.3078030376616887 #
vertex $-1 $368 $504 #
point $-1 -57.431595617923676 12.293436828797365 7.3078030376616887 #
edge $-1 $465 78.163848686194612 $468 85.120695769576614 $373 $505 forward 7 unknown #
vertex $-1 $387 $506 #
straight-curve $-1 23.227533019590698 -18.460475665744326 10.434289471397776 1 0 0 I I #
edge $-1 $468 -10.730597041780015 $384 -4.729160206148606 $383 $507 forward 7 unknown #
vertex $-1 $467 $508 #
straight-curve $-1 -32.805137522289037 -18.460475665744326 82.737645949486193 -0.76604443648966558 0 0.64278761758704617 I I #
point $-1 53.362645512311936 -18.460475665744326 10.434289471397776 #
point $-1 61.653492843409531 -12.459038830112917 3.4774423880157741 #
straight-curve $-1 61.653492843409531 0 10.434289471397779 0 1 0 I I #
vertex $-1 $390 $509 #
point $-1 57.056792669396124 -16.745779426992495 6.0291245888203449 #
vertex $-1 $394 $510 #
point $-1 57.056792669396124 -14.173735068864749 6.0291245888203449 #
straight-curve $-1 -61.653492843409531 25.644707033294655 0 0 0 -1 I I #
point $-1 -61.653492843409531 -25.644707033294655 -10.434289471397779 #
straight-curve $-1 -61.653492843409531 0 -10.434289471397779 0 1 0 I I #
point $-1 -61.653492843409531 25.644707033294655 -10.434289471397779 #
edge $-1 $483 -10.434289471397779 $423 10.434289471397779 $415 $511 forward 7 unknown #
straight-curve $-1 -42.370962839186035 -32.828938400844983 -10.434289471397779 -1 0 0 I I #
vertex $-1 $429 $512 #
straight-curve $-1 -42.370962839186035 -32.828938400844983 10.434289471397779 1 0 0 I I #
point $-1 -43.957011777758098 -32.828938400844983 10.434289471397779 #
point $-1 -43.957011777758098 -32.828938400844983 -10.434289471397779 #
point $-1 -40.784913900613972 -32.828938400844983 -10.434289471397779 #
straight-curve $-1 -40.784913900613972 -29.23682271706982 10.434289471397779 0 1 0 I I #
coedge $-1 $433 $437 $434 $491 reversed $327 $-1 #
edge $-1 $492 -3.0488938427044907 $448 3.0488938427044907 $444 $513 forward 7 unknown #
edge $-1 $492 -61.653492843409531 $439 61.653492843409531 $489 $514 forward 7 unknown #
vertex $-1 $435 $515 #
straight-curve $-1 61.653492843409531 0 10.434289471397779 0 1 0 I I #
straight-curve $-1 -61.653492843409531 36.671891639462352 7.3853956286932885 0 0 -1 I I #
point $-1 -61.653492843409531 36.671891639462352 10.434289471397779 #
point $-1 -61.653492843409531 36.671891639462352 4.3365017859887978 #
straight-curve $-1 0 36.671891639462352 4.3365017859887978 1 0 0 I I #
point $-1 61.653492843409531 36.671891639462352 4.3365017859887978 #
straight-curve $-1 -61.653492843409531 14.617522427126953 49.764624112508223 0 0 -1 I I #
point $-1 -61.653492843409531 14.617522427126953 10.434289471397779 #
straight-curve $-1 -61.653492843409531 5.2751863150250902 5.0706178593178697 0 -1 0 I I #
point $-1 -61.653492843409531 14.617522427126953 5.0706178593178715 #
point $-1 -57.493224027374993 8.8073084313029888 6.603387010623333 #
point $-1 -57.493224027374993 12.293436828797365 6.603387010623333 #
straight-curve $-1 61.653492843409531 -18.460475665744326 88.598138157592388 0 0 -1 I I #
point $-1 61.653492843409531 -18.460475665744326 10.434289471397779 #
straight-curve $-1 61.653492843409524 -7.7298786239643107 3.4774423880157812 0 1 0 I I #
point $-1 61.653492843409531 -18.460475665744326 3.4774423880157741 #
point $-1 56.70458465587695 -16.745779426992495 5.9983103840946903 #
point $-1 56.70458465587695 -14.173735068864749 5.9983103840946903 #
straight-curve $-1 -40.784913900613972 -32.828938400844983 0 0 0 -1 I I #
point $-1 -40.784913900613972 -32.828938400844983 10.434289471397779 #
straight-curve $-1 61.653492843409531 36.671891639462352 7.3853956286932885 0 0 -1 I I #
straight-curve $-1 0 36.671891639462352 10.434289471397779 -1 0 0 I I #
point $-1 61.653492843409531 36.671891639462352 10.434289471397779 #
End-of-ACIS-data 