500 0 8 0           
7 Unknown 11 ACIS 5.0 NT 24 Fri Mar 26 17:33:13 1999 
-1 9.9999999999999995e-007 1e-010 
body $-1 $8 $-1 $9 #
body $-1 $10 $-1 $11 #
body $-1 $12 $-1 $13 #
body $-1 $14 $-1 $15 #
body $-1 $16 $-1 $17 #
body $-1 $18 $-1 $19 #
body $-1 $20 $-1 $21 #
body $-1 $22 $-1 $23 #
lump $-1 $-1 $24 $0 #
transform $-1 1 0 0 0 1 0 0 0 1 64.67116306039614 37.895205518504291 8.02105738682633 1 rotate no_reflect no_shear #
lump $-1 $-1 $25 $1 #
transform $-1 1 0 0 0 1 0 0 0 1 64.67116306039614 37.895205518504291 8.02105738682633 1 rotate no_reflect no_shear #
lump $-1 $-1 $26 $2 #
transform $-1 1 0 0 0 1 0 0 0 1 64.67116306039614 37.895205518504291 8.02105738682633 1 rotate no_reflect no_shear #
lump $-1 $-1 $27 $3 #
transform $-1 1 0 0 0 1 0 0 0 1 64.67116306039614 37.895205518504291 8.02105738682633 1 rotate no_reflect no_shear #
lump $-1 $-1 $28 $4 #
transform $-1 1 0 0 0 1 0 0 0 1 64.67116306039614 37.895205518504291 8.02105738682633 1 rotate no_reflect no_shear #
lump $-1 $-1 $29 $5 #
transform $-1 1 0 0 0 1 0 0 0 1 64.67116306039614 37.895205518504291 8.02105738682633 1 rotate no_reflect no_shear #
lump $-1 $-1 $30 $6 #
transform $-1 1 0 0 0 1 0 0 0 1 64.67116306039614 37.895205518504291 8.02105738682633 1 rotate no_reflect no_shear #
lump $-1 $-1 $31 $7 #
transform $-1 1 0 0 0 1 0 0 0 1 64.67116306039614 37.895205518504291 8.02105738682633 1 rotate no_reflect no_shear #
shell $-1 $-1 $-1 $32 $-1 $8 #
shell $-1 $-1 $-1 $33 $-1 $10 #
shell $-1 $-1 $-1 $34 $-1 $12 #
shell $-1 $-1 $-1 $35 $-1 $14 #
shell $-1 $-1 $-1 $36 $-1 $16 #
shell $-1 $-1 $-1 $37 $-1 $18 #
shell $-1 $-1 $-1 $38 $-1 $20 #
shell $-1 $-1 $-1 $39 $-1 $22 #
face $-1 $40 $41 $24 $-1 $42 forward single #
face $-1 $43 $44 $25 $-1 $45 reversed single #
face $-1 $46 $47 $26 $-1 $48 reversed single #
face $-1 $49 $50 $27 $-1 $51 forward single #
face $-1 $52 $53 $28 $-1 $54 forward single #
face $-1 $55 $56 $29 $-1 $57 reversed single #
face $-1 $58 $59 $30 $-1 $60 forward single #
face $-1 $61 $62 $31 $-1 $63 forward single #
face $-1 $64 $65 $24 $-1 $66 reversed single #
loop $-1 $-1 $67 $32 #
plane-surface $-1 0 0 8.02105738682633 0 0 1 1 0 0 forward_v I I I I #
face $-1 $68 $69 $25 $-1 $70 reversed single #
loop $-1 $-1 $71 $33 #
plane-surface $-1 -55.053061668365146 -36.333905853630576 0 -1 0 0 0 0 1 forward_v I I I I #
face $-1 $72 $73 $26 $-1 $74 reversed single #
loop $-1 $-1 $75 $34 #
plane-surface $-1 -38.246838020376401 -37.895205518504298 1.916972194866716 0 -0.80901700255871778 0.5877852410284794 1 0 0 forward_v I I I I #
face $-1 $76 $77 $27 $-1 $78 forward single #
loop $-1 $79 $80 $35 #
cone-surface $-1 -45.449505298085867 -34.09358281553201 3.8180377584630136 0 0.80901700255871778 -0.5877852410284794 1 0 0 1 I I 0 1 1 forward I I I I #
face $-1 $81 $82 $28 $-1 $83 forward single #
loop $-1 $84 $85 $36 #
cone-surface $-1 -31.04417074266695 -34.09358281553201 3.8180377584630136 0 0.80901700255871778 -0.5877852410284794 1 0 0 1 I I 0 1 1 forward I I I I #
face $-1 $86 $87 $29 $-1 $88 reversed single #
loop $-1 $-1 $89 $37 #
plane-surface $-1 7.4179889254758393 44.776899408494124 153.28685562555756 1 0 0 0 -0.54463904215088732 -0.83867056331134215 forward_v I I I I #
face $-1 $90 $91 $30 $-1 $92 forward single #
loop $-1 $93 $94 $38 #
cone-surface $-1 11.661100343409828 33.713382640238464 4.6587028355552018 0 -0.54463904215088732 -0.83867056331134215 2 0 0 1 I I 0 1 2 forward I I I I #
face $-1 $95 $96 $31 $-1 $97 forward single #
loop $-1 $98 $99 $39 #
cone-surface $-1 18.025767470310811 33.713382640238464 4.6587028355552018 0 -0.54463904215088732 -0.83867056331134215 2 0 0 1 I I 0 1 2 forward I I I I #
face $-1 $100 $101 $24 $-1 $102 reversed single #
loop $-1 $-1 $103 $40 #
plane-surface $-1 0 0 -8.02105738682633 0 0 1 1 0 0 forward_v I I I I #
coedge $-1 $104 $105 $106 $107 forward $41 $-1 #
face $-1 $108 $109 $25 $-1 $110 forward single #
loop $-1 $-1 $111 $43 #
plane-surface $-1 -59.862112364380643 -34.77260618875686 0 0 -1 0 0 0 -1 forward_v I I I I #
coedge $-1 $112 $113 $114 $115 reversed $44 $-1 #
face $-1 $116 $117 $26 $-1 $118 forward single #
loop $-1 $-1 $119 $46 #
plane-surface $-1 -21.440614372387667 -142.53534650071981 77.942482528960795 -1 0 0 0 -0.80901700255871778 0.5877852410284794 forward_v I I I I #
coedge $-1 $120 $121 $122 $123 reversed $47 $-1 #
face $-1 $-1 $124 $27 $-1 $125 forward single #
loop $-1 $126 $127 $49 #
cone-surface $-1 -45.449505298085867 -32.104890289618872 2.3731681055652682 0 0.80901700255871778 -0.5877852410284794 0.5 0 0 1 I I -0.70710678118654746 0.70710678118654746 0.5 forward I I I I #
loop $-1 $-1 $128 $35 #
coedge $-1 $80 $80 $129 $130 reversed $50 $-1 #
face $-1 $-1 $131 $28 $-1 $132 forward single #
loop $-1 $133 $134 $52 #
cone-surface $-1 -31.04417074266695 -32.104890289618872 2.3731681055652682 0 0.80901700255871778 -0.5877852410284794 0.5 0 0 1 I I -0.70710678118654746 0.70710678118654746 0.5 forward I I I I #
loop $-1 $-1 $135 $36 #
coedge $-1 $85 $85 $136 $137 reversed $53 $-1 #
face $-1 $138 $139 $29 $-1 $140 reversed single #
loop $-1 $-1 $141 $55 #
plane-surface $-1 14.843433906860312 -25.667981199501874 44.811254117833386 0 0.54463904215088732 0.83867056331134215 1 0 0 forward_v I I I I #
coedge $-1 $142 $143 $144 $145 reversed $56 $-1 #
face $-1 $-1 $146 $30 $-1 $147 forward single #
loop $-1 $148 $149 $58 #
cone-surface $-1 11.661100343409828 32.442547127505215 2.701787791178381 0 -0.54463904215088732 -0.83867056331134215 1 0 0 1 I I -0.70710678118654746 0.70710678118654746 1 forward I I I I #
loop $-1 $-1 $150 $38 #
coedge $-1 $94 $94 $151 $152 reversed $59 $-1 #
face $-1 $-1 $153 $31 $-1 $154 forward single #
loop $-1 $155 $156 $61 #
cone-surface $-1 18.025767470310811 32.442547127505215 2.701787791178381 0 -0.54463904215088732 -0.83867056331134215 1 0 0 1 I I -0.70710678118654746 0.70710678118654746 1 forward I I I I #
loop $-1 $-1 $157 $39 #
coedge $-1 $99 $99 $158 $159 reversed $62 $-1 #
face $-1 $160 $161 $24 $-1 $162 reversed single #
loop $-1 $-1 $163 $64 #
plane-surface $-1 0 -37.895205518504291 0 0 1 0 0 0 1 forward_v I I I I #
coedge $-1 $164 $165 $166 $167 forward $65 $-1 #
coedge $-1 $168 $67 $169 $170 forward $41 $-1 #
coedge $-1 $67 $168 $171 $172 forward $41 $-1 #
coedge $-1 $173 $174 $67 $107 reversed $175 $-1 #
edge $-1 $176 -37.895205518504291 $177 37.895205518504291 $106 $178 forward 7 unknown #
face $-1 $179 $180 $25 $-1 $181 reversed single #
loop $-1 $-1 $182 $68 #
plane-surface $-1 0 0 8.02105738682633 0 0 1 1 0 0 forward_v I I I I #
coedge $-1 $183 $184 $185 $186 forward $69 $-1 #
coedge $-1 $185 $71 $187 $188 reversed $44 $-1 #
coedge $-1 $71 $185 $182 $189 reversed $44 $-1 #
coedge $-1 $190 $191 $71 $115 forward $192 $-1 #
edge $-1 $193 -8.02105738682633 $194 8.02105738682633 $114 $195 forward 7 unknown #
face $-1 $196 $197 $26 $-1 $198 forward single #
loop $-1 $-1 $199 $72 #
plane-surface $-1 0 0 8.02105738682633 0 0 1 1 0 0 forward_v I I I I #
coedge $-1 $200 $201 $202 $203 reversed $73 $-1 #
coedge $-1 $204 $75 $205 $206 reversed $47 $-1 #
coedge $-1 $75 $204 $200 $207 forward $47 $-1 #
coedge $-1 $202 $208 $75 $123 forward $209 $-1 #
edge $-1 $210 -35.929642658176945 $211 -2.3171953621994668 $122 $212 forward 7 unknown #
loop $-1 $-1 $129 $76 #
plane-surface $-1 -38.246838020376401 -37.895205518504298 1.916972194866716 0 -0.80901700255871778 0.5877852410284794 1 0 0 forward_v I I I I #
loop $-1 $-1 $213 $49 #
coedge $-1 $127 $127 $128 $214 reversed $77 $-1 #
coedge $-1 $128 $128 $127 $214 forward $79 $-1 #
coedge $-1 $129 $129 $80 $130 forward $124 $-1 #
edge $-1 $215 -8.5339476790408293e-016 $215 6.2831853071795996 $129 $216 forward 7 unknown #
loop $-1 $-1 $136 $81 #
plane-surface $-1 -38.246838020376401 -37.895205518504298 1.916972194866716 0 -0.80901700255871778 0.5877852410284794 1 0 0 forward_v I I I I #
loop $-1 $-1 $217 $52 #
coedge $-1 $134 $134 $135 $218 reversed $82 $-1 #
coedge $-1 $135 $135 $134 $218 forward $84 $-1 #
coedge $-1 $136 $136 $85 $137 forward $131 $-1 #
edge $-1 $219 -8.5339476790408293e-016 $219 6.2831853071795996 $136 $220 forward 7 unknown #
face $-1 $221 $222 $29 $-1 $223 reversed single #
loop $-1 $-1 $224 $86 #
plane-surface $-1 22.268878888244785 44.776899408494124 153.28685562555756 -1 0 0 0 0.54463904215088732 0.83867056331134215 forward_v I I I I #
coedge $-1 $225 $226 $227 $228 reversed $87 $-1 #
coedge $-1 $143 $89 $229 $230 reversed $56 $-1 #
coedge $-1 $89 $142 $225 $231 reversed $56 $-1 #
coedge $-1 $227 $232 $89 $145 forward $233 $-1 #
edge $-1 $234 -15.506755814257229 $235 -8.5955029988902503 $144 $236 forward 7 unknown #
loop $-1 $-1 $151 $90 #
plane-surface $-1 14.843433906860312 -25.667981199501874 44.811254117833386 0 0.54463904215088732 0.83867056331134215 1 0 0 forward_v I I I I #
loop $-1 $-1 $237 $58 #
coedge $-1 $149 $149 $150 $238 reversed $91 $-1 #
coedge $-1 $150 $150 $149 $238 forward $93 $-1 #
coedge $-1 $151 $151 $94 $152 forward $146 $-1 #
edge $-1 $239 4.7327788097069271e-016 $239 6.2831853071796013 $151 $240 forward 7 unknown #
loop $-1 $-1 $158 $95 #
plane-surface $-1 14.843433906860312 -25.667981199501874 44.811254117833386 0 0.54463904215088732 0.83867056331134215 1 0 0 forward_v I I I I #
loop $-1 $-1 $241 $61 #
coedge $-1 $156 $156 $157 $242 reversed $96 $-1 #
coedge $-1 $157 $157 $156 $242 forward $98 $-1 #
coedge $-1 $158 $158 $99 $159 forward $153 $-1 #
edge $-1 $243 4.7327788097069271e-016 $243 6.2831853071796013 $158 $244 forward 7 unknown #
face $-1 $245 $246 $24 $-1 $247 reversed single #
loop $-1 $-1 $248 $100 #
plane-surface $-1 -64.67116306039614 0 0 1 0 0 0 0 -1 forward_v I I I I #
coedge $-1 $249 $171 $250 $251 forward $101 $-1 #
coedge $-1 $252 $103 $249 $253 forward $65 $-1 #
coedge $-1 $103 $252 $254 $255 forward $65 $-1 #
coedge $-1 $174 $173 $103 $167 reversed $175 $-1 #
edge $-1 $256 -37.895205518504291 $257 37.895205518504291 $166 $258 forward 7 unknown #
coedge $-1 $105 $104 $259 $260 forward $41 $-1 #
coedge $-1 $261 $262 $104 $170 reversed $246 $-1 #
edge $-1 $177 -64.67116306039614 $263 64.67116306039614 $169 $264 forward 7 unknown #
coedge $-1 $163 $265 $105 $172 reversed $101 $-1 #
edge $-1 $266 -64.67116306039614 $176 64.67116306039614 $171 $267 forward 7 unknown #
coedge $-1 $166 $106 $265 $268 forward $175 $-1 #
coedge $-1 $106 $166 $261 $269 reversed $175 $-1 #
loop $-1 $-1 $173 $245 #
vertex $-1 $107 $270 #
vertex $-1 $107 $271 #
straight-curve $-1 64.67116306039614 0 8.02105738682633 0 1 0 I I #
face $-1 $272 $273 $25 $-1 $274 reversed single #
loop $-1 $-1 $275 $108 #
plane-surface $-1 -64.67116306039614 0 0 1 0 0 0 0 -1 forward_v I I I I #
coedge $-1 $276 $277 $113 $189 forward $109 $-1 #
coedge $-1 $278 $111 $279 $280 reversed $69 $-1 #
coedge $-1 $111 $278 $276 $281 reversed $69 $-1 #
coedge $-1 $113 $112 $111 $186 reversed $44 $-1 #
edge $-1 $282 -8.02105738682633 $283 8.02105738682633 $185 $284 forward 7 unknown #
coedge $-1 $285 $279 $112 $188 forward $273 $-1 #
edge $-1 $283 16.605653261941573 $193 19.728252591689003 $187 $286 forward 7 unknown #
edge $-1 $194 -19.728252591689003 $282 -16.605653261941573 $182 $287 forward 7 unknown #
coedge $-1 $288 $114 $277 $289 reversed $192 $-1 #
coedge $-1 $114 $288 $285 $290 reversed $192 $-1 #
loop $-1 $-1 $114 $272 #
vertex $-1 $290 $291 #
vertex $-1 $115 $292 #
straight-curve $-1 -55.053061668365146 -37.895205518504291 0 0 0 1 I I #
face $-1 $-1 $209 $26 $-1 $293 reversed single #
loop $-1 $-1 $205 $116 #
plane-surface $-1 -55.053061668365146 -36.333905853630576 0 -1 0 0 0 0 1 forward_v I I I I #
coedge $-1 $294 $295 $201 $296 forward $117 $-1 #
coedge $-1 $201 $119 $121 $207 reversed $73 $-1 #
coedge $-1 $119 $200 $199 $296 reversed $73 $-1 #
coedge $-1 $297 $122 $119 $203 forward $209 $-1 #
edge $-1 $211 -37.054269069613675 $298 -30.950183877654069 $202 $299 forward 7 unknown #
coedge $-1 $121 $120 $294 $300 reversed $47 $-1 #
coedge $-1 $301 $302 $120 $206 forward $197 $-1 #
edge $-1 $303 -7.8616412610103517 $210 -0.31657709962200531 $205 $304 forward 7 unknown #
edge $-1 $305 -7.5450641613883578 $211 -1.2080531203272332e-014 $200 $306 forward 7 unknown #
coedge $-1 $122 $297 $301 $307 forward $209 $-1 #
loop $-1 $-1 $202 $196 #
vertex $-1 $206 $308 #
vertex $-1 $123 $309 #
straight-curve $-1 -19.123419010188201 -37.895205518504291 1.9169721948667271 1 0 0 I I #
coedge $-1 $213 $213 $-1 $310 reversed $126 $-1 #
edge $-1 $311 0 $311 6.2831853071796004 $127 $312 forward 7 unknown #
vertex $-1 $130 $313 #
ellipse-curve $-1 -45.449505298085867 -35.677766840165795 4.9690147908465256 0 -0.80901700255871778 0.5877852410284794 1 0 0 1 I I #
coedge $-1 $217 $217 $-1 $314 reversed $133 $-1 #
edge $-1 $315 0 $315 6.2831853071796004 $134 $316 forward 7 unknown #
vertex $-1 $137 $317 #
ellipse-curve $-1 -31.04417074266695 -35.677766840165795 4.9690147908465256 0 -0.80901700255871778 0.5877852410284794 1 0 0 1 I I #
face $-1 $-1 $233 $29 $-1 $318 forward single #
loop $-1 $-1 $319 $138 #
plane-surface $-1 0 37.895205518504291 0 0 -1 0 0 0 -1 forward_v I I I I #
coedge $-1 $320 $321 $322 $323 reversed $139 $-1 #
coedge $-1 $324 $141 $143 $231 forward $87 $-1 #
coedge $-1 $141 $324 $320 $325 forward $87 $-1 #
coedge $-1 $322 $144 $141 $228 forward $233 $-1 #
edge $-1 $235 -0.0037280279543168149 $326 14.847161934814629 $227 $327 forward 7 unknown #
coedge $-1 $328 $329 $142 $230 forward $222 $-1 #
edge $-1 $330 -73.110590566363797 $234 -68.622370425952454 $229 $331 forward 7 unknown #
edge $-1 $235 67.549686826921715 $330 75.790411037008596 $143 $332 forward 7 unknown #
coedge $-1 $144 $322 $328 $333 forward $233 $-1 #
loop $-1 $-1 $322 $221 #
vertex $-1 $230 $334 #
vertex $-1 $145 $335 #
straight-curve $-1 7.4179889254758393 22.388449704247062 8.0210573868263282 0 -1 0 I I #
coedge $-1 $237 $237 $-1 $336 reversed $148 $-1 #
edge $-1 $337 0 $337 6.2831853071796004 $149 $338 forward 7 unknown #
vertex $-1 $152 $339 #
ellipse-curve $-1 11.661100343409828 34.439579110820809 5.7769473166206486 0 0.54463904215088732 0.83867056331134215 2 0 0 1 I I #
coedge $-1 $241 $241 $-1 $340 reversed $155 $-1 #
edge $-1 $341 0 $341 6.2831853071796004 $156 $342 forward 7 unknown #
vertex $-1 $159 $343 #
ellipse-curve $-1 18.025767470310811 34.439579110820809 5.7769473166206486 0 0.54463904215088732 0.83867056331134215 2 0 0 1 I I #
face $-1 $-1 $175 $24 $-1 $344 reversed single #
loop $-1 $-1 $261 $160 #
plane-surface $-1 0 37.895205518504291 0 0 -1 0 0 0 -1 forward_v I I I I #
coedge $-1 $345 $259 $262 $346 forward $161 $-1 #
coedge $-1 $265 $163 $164 $253 reversed $101 $-1 #
coedge $-1 $259 $345 $163 $251 reversed $161 $-1 #
edge $-1 $266 -8.02105738682633 $347 8.02105738682633 $250 $348 forward 7 unknown #
coedge $-1 $165 $164 $345 $349 forward $65 $-1 #
edge $-1 $257 -64.67116306039614 $347 64.67116306039614 $249 $350 forward 7 unknown #
coedge $-1 $262 $261 $165 $255 reversed $246 $-1 #
edge $-1 $351 -64.67116306039614 $256 64.67116306039614 $254 $352 forward 7 unknown #
vertex $-1 $167 $353 #
vertex $-1 $268 $354 #
straight-curve $-1 64.67116306039614 0 -8.02105738682633 0 -1 0 I I #
coedge $-1 $248 $250 $168 $260 reversed $161 $-1 #
edge $-1 $263 -37.895205518504291 $266 37.895205518504291 $259 $355 forward 7 unknown #
coedge $-1 $254 $169 $174 $269 forward $246 $-1 #
coedge $-1 $169 $254 $248 $346 reversed $246 $-1 #
vertex $-1 $170 $356 #
straight-curve $-1 0 37.895205518504291 8.02105738682633 -1 0 0 I I #
coedge $-1 $171 $249 $173 $268 reversed $101 $-1 #
vertex $-1 $260 $357 #
straight-curve $-1 0 -37.895205518504291 8.02105738682633 1 0 0 I I #
edge $-1 $176 -8.02105738682633 $257 8.02105738682633 $173 $358 forward 7 unknown #
edge $-1 $177 -8.02105738682633 $256 8.02105738682633 $174 $359 forward 7 unknown #
point $-1 64.67116306039614 -37.895205518504291 8.02105738682633 #
point $-1 64.67116306039614 37.895205518504291 8.02105738682633 #
face $-1 $-1 $192 $25 $-1 $360 reversed single #
loop $-1 $-1 $187 $179 #
plane-surface $-1 0 0 -8.02105738682633 0 0 1 1 0 0 forward_v I I I I #
coedge $-1 $361 $362 $278 $363 forward $180 $-1 #
coedge $-1 $364 $182 $184 $281 forward $109 $-1 #
coedge $-1 $182 $364 $190 $289 forward $109 $-1 #
coedge $-1 $184 $183 $275 $363 reversed $69 $-1 #
coedge $-1 $187 $365 $183 $280 forward $273 $-1 #
edge $-1 $366 -34.740106878205822 $283 -25.122005486174825 $279 $367 forward 7 unknown #
edge $-1 $282 25.122005486174825 $368 34.740106878205822 $276 $369 forward 7 unknown #
vertex $-1 $281 $370 #
vertex $-1 $280 $371 #
straight-curve $-1 -55.053061668365146 -34.77260618875686 0 0 0 -1 I I #
coedge $-1 $365 $187 $191 $290 forward $273 $-1 #
straight-curve $-1 -55.053061668365146 -18.166952926815288 -8.02105738682633 0 -1 0 I I #
straight-curve $-1 -55.053061668365146 -18.166952926815288 8.02105738682633 0 1 0 I I #
coedge $-1 $191 $190 $372 $373 forward $192 $-1 #
edge $-1 $374 -64.67116306039614 $194 -55.053061668365146 $190 $375 forward 7 unknown #
edge $-1 $193 55.053061668365146 $376 64.67116306039614 $191 $377 forward 7 unknown #
point $-1 -55.053061668365146 -37.895205518504291 -8.02105738682633 #
point $-1 -55.053061668365146 -37.895205518504291 8.02105738682633 #
plane-surface $-1 0 -37.895205518504291 0 0 1 0 0 0 1 forward_v I I I I #
coedge $-1 $378 $199 $204 $300 forward $117 $-1 #
coedge $-1 $199 $378 $297 $379 forward $117 $-1 #
edge $-1 $298 33.372467731855615 $305 37.807345088532607 $199 $380 forward 7 unknown #
coedge $-1 $208 $202 $295 $379 reversed $209 $-1 #
vertex $-1 $296 $381 #
straight-curve $-1 -21.440614372387667 -37.895205518504291 38.971241264480398 0 0 1 I I #
edge $-1 $305 2.3171953621994668 $303 35.929642658176931 $294 $382 forward 7 unknown #
coedge $-1 $302 $205 $208 $307 reversed $197 $-1 #
coedge $-1 $205 $301 $378 $383 reversed $197 $-1 #
vertex $-1 $383 $384 #
straight-curve $-1 -55.053061668365146 -38.081284865309705 1.6608559386517963 0 -0.5877852410284794 -0.80901700255871778 I I #
vertex $-1 $300 $385 #
straight-curve $-1 -21.440614372387667 -37.895205518504298 1.916972194866716 0 -0.5877852410284794 -0.80901700255871778 I I #
edge $-1 $386 -8.02105738682633 $210 -1.916972194866726 $208 $387 forward 7 unknown #
point $-1 -55.053061668365146 -37.895205518504291 1.916972194866726 #
point $-1 -21.440614372387667 -37.895205518504291 1.9169721948667258 #
edge $-1 $388 1 $388 0 $213 $-1 forward 7 unknown #
vertex $-1 $214 $389 #
ellipse-curve $-1 -45.449505298085867 -32.509398790898231 2.6670607260795078 0 -0.80901700255871778 0.5877852410284794 1 0 0 1 I I #
point $-1 -44.449505298085867 -35.677766840165788 4.9690147908465194 #
edge $-1 $390 1 $390 0 $217 $-1 forward 7 unknown #
vertex $-1 $218 $391 #
ellipse-curve $-1 -31.04417074266695 -32.509398790898231 2.6670607260795078 0 -0.80901700255871778 0.5877852410284794 1 0 0 1 I I #
point $-1 -30.04417074266695 -35.677766840165788 4.9690147908465194 #
plane-surface $-1 0 0 8.02105738682633 0 0 1 1 0 0 forward_v I I I I #
coedge $-1 $329 $328 $321 $392 forward $222 $-1 #
coedge $-1 $321 $224 $226 $325 reversed $139 $-1 #
coedge $-1 $224 $320 $319 $392 reversed $139 $-1 #
coedge $-1 $232 $227 $224 $323 forward $233 $-1 #
edge $-1 $326 8.5955029988902503 $393 15.506755814257229 $322 $394 forward 7 unknown #
coedge $-1 $226 $225 $329 $395 reversed $87 $-1 #
edge $-1 $396 -75.790411037008596 $326 -67.549686826921715 $320 $397 forward 7 unknown #
vertex $-1 $228 $398 #
straight-curve $-1 7.4217169534301561 30.983952703137323 8.0210573868263282 1 0 0 I I #
coedge $-1 $319 $229 $232 $333 reversed $222 $-1 #
coedge $-1 $229 $319 $324 $395 forward $222 $-1 #
vertex $-1 $230 $399 #
straight-curve $-1 7.4179889254758393 37.895205518504291 76.643427812778782 0 0 1 I I #
straight-curve $-1 7.4179889254758393 -25.667981199501874 44.811254117833386 0 0.83867056331134215 -0.54463904215088732 I I #
edge $-1 $393 -22.268878888244785 $234 -7.4179889254758393 $328 $400 forward 7 unknown #
point $-1 7.4179889254758393 37.895205518504291 8.02105738682633 #
point $-1 7.4179889254758393 30.983952703137312 8.0210573868263353 #
edge $-1 $401 1 $401 0 $237 $-1 forward 7 unknown #
vertex $-1 $238 $402 #
ellipse-curve $-1 11.661100343409828 32.987186169656098 3.540458354489723 0 0.54463904215088732 0.83867056331134215 2 0 0 1 I I #
point $-1 13.661100343409828 34.43957911082083 5.7769473166206797 #
edge $-1 $403 1 $403 0 $241 $-1 forward 7 unknown #
vertex $-1 $242 $404 #
ellipse-curve $-1 18.025767470310811 32.987186169656098 3.540458354489723 0 0.54463904215088732 0.83867056331134215 2 0 0 1 I I #
point $-1 20.025767470310811 34.43957911082083 5.7769473166206797 #
plane-surface $-1 64.67116306039614 0 0 -1 0 0 0 0 1 forward_v I I I I #
coedge $-1 $250 $248 $252 $349 reversed $161 $-1 #
edge $-1 $263 -8.02105738682633 $351 8.02105738682633 $262 $405 forward 7 unknown #
vertex $-1 $349 $406 #
straight-curve $-1 -64.67116306039614 -37.895205518504291 0 0 0 -1 I I #
edge $-1 $347 -37.895205518504291 $351 37.895205518504291 $345 $407 forward 7 unknown #
straight-curve $-1 0 -37.895205518504291 -8.02105738682633 -1 0 0 I I #
vertex $-1 $255 $408 #
straight-curve $-1 0 37.895205518504291 -8.02105738682633 1 0 0 I I #
point $-1 64.67116306039614 37.895205518504291 -8.02105738682633 #
point $-1 64.67116306039614 -37.895205518504291 -8.02105738682633 #
straight-curve $-1 -64.67116306039614 0 8.02105738682633 0 -1 0 I I #
point $-1 -64.67116306039614 37.895205518504291 8.02105738682633 #
point $-1 -64.67116306039614 -37.895205518504291 8.02105738682633 #
straight-curve $-1 64.67116306039614 -37.895205518504291 0 0 0 -1 I I #
straight-curve $-1 64.67116306039614 37.895205518504291 0 0 0 -1 I I #
plane-surface $-1 0 -37.895205518504291 0 0 1 0 0 0 1 forward_v I I I I #
coedge $-1 $372 $275 $365 $409 reversed $180 $-1 #
coedge $-1 $275 $372 $364 $410 reversed $180 $-1 #
edge $-1 $368 -8.02105738682633 $366 8.02105738682633 $275 $411 forward 7 unknown #
coedge $-1 $277 $276 $362 $410 forward $109 $-1 #
coedge $-1 $279 $285 $361 $409 forward $273 $-1 #
vertex $-1 $280 $412 #
straight-curve $-1 -29.931056182190321 -34.77260618875686 -8.02105738682633 1 0 0 I I #
vertex $-1 $410 $413 #
straight-curve $-1 -29.931056182190321 -34.77260618875686 8.02105738682633 -1 0 0 I I #
point $-1 -55.053061668365146 -34.77260618875686 8.02105738682633 #
point $-1 -55.053061668365146 -34.77260618875686 -8.02105738682633 #
coedge $-1 $362 $361 $288 $373 reversed $180 $-1 #
edge $-1 $374 -8.02105738682633 $376 8.02105738682633 $372 $414 forward 7 unknown #
vertex $-1 $410 $415 #
straight-curve $-1 0 -37.895205518504291 8.02105738682633 1 0 0 I I #
vertex $-1 $409 $416 #
straight-curve $-1 0 -37.895205518504291 -8.02105738682633 -1 0 0 I I #
coedge $-1 $295 $294 $302 $383 forward $117 $-1 #
edge $-1 $386 -55.053061668365146 $298 -21.440614372387667 $297 $417 forward 7 unknown #
straight-curve $-1 -21.440614372387667 -71.267673250359906 8.0210573868263282 0 1 0 I I #
point $-1 -21.440614372387667 -37.895205518504291 8.02105738682633 #
straight-curve $-1 -19.123419010188201 -33.460328161827299 8.0210573868263317 -1 0 0 I I #
edge $-1 $303 -37.807345088532607 $386 -33.372467731855615 $378 $418 forward 7 unknown #
point $-1 -55.053061668365132 -33.460328161827299 8.02105738682633 #
point $-1 -21.440614372387667 -33.460328161827299 8.02105738682633 #
vertex $-1 $379 $419 #
straight-curve $-1 -55.053061668365146 -37.895205518504291 0 0 0 -1 I I #
vertex $-1 $310 $420 #
point $-1 -44.449505298085867 -32.509398790898231 2.6670607260795078 #
vertex $-1 $314 $421 #
point $-1 -30.04417074266695 -32.509398790898231 2.6670607260795078 #
edge $-1 $393 68.622370425952454 $396 73.110590566363797 $319 $422 forward 7 unknown #
vertex $-1 $333 $423 #
straight-curve $-1 22.268878888244785 22.388449704247062 8.0210573868263282 0 1 0 I I #
edge $-1 $396 -14.847161934814629 $330 0.0037280279543168149 $329 $424 forward 7 unknown #
vertex $-1 $395 $425 #
straight-curve $-1 22.268878888244785 -25.667981199501874 44.811254117833386 0 -0.83867056331134215 0.54463904215088732 I I #
point $-1 22.268878888244785 30.983952703137312 8.0210573868263353 #
point $-1 7.4179889254758393 37.895205518504291 3.5328372464149851 #
straight-curve $-1 0 37.895205518504291 8.02105738682633 -1 0 0 I I #
vertex $-1 $336 $426 #
point $-1 13.661100343409828 32.987186169656098 3.540458354489723 #
vertex $-1 $340 $427 #
point $-1 20.025767470310811 32.987186169656098 3.540458354489723 #
straight-curve $-1 -64.67116306039614 37.895205518504291 0 0 0 -1 I I #
point $-1 -64.67116306039614 -37.895205518504291 -8.02105738682633 #
straight-curve $-1 -64.67116306039614 0 -8.02105738682633 0 1 0 I I #
point $-1 -64.67116306039614 37.895205518504291 -8.02105738682633 #
edge $-1 $376 -37.895205518504291 $366 -34.77260618875686 $361 $428 forward 7 unknown #
edge $-1 $368 34.77260618875686 $374 37.895205518504291 $362 $429 forward 7 unknown #
straight-curve $-1 -64.67116306039614 -34.77260618875686 0 0 0 -1 I I #
point $-1 -64.67116306039614 -34.77260618875686 -8.02105738682633 #
point $-1 -64.67116306039614 -34.77260618875686 8.02105738682633 #
straight-curve $-1 -64.67116306039614 -37.895205518504291 0 0 0 -1 I I #
point $-1 -64.67116306039614 -37.895205518504291 8.02105738682633 #
point $-1 -64.67116306039614 -37.895205518504291 -8.02105738682633 #
straight-curve $-1 0 -37.895205518504291 8.02105738682633 1 0 0 I I #
straight-curve $-1 -55.053061668365132 -71.267673250359906 8.0210573868263282 0 -1 0 I I #
point $-1 -55.053061668365146 -37.895205518504291 8.02105738682633 #
point $-1 -45.449505298085867 -31.700381788339513 2.0792754850510287 #
point $-1 -31.04417074266695 -31.700381788339513 2.0792754850510287 #
straight-curve $-1 22.268878888244785 37.895205518504291 76.643427812778782 0 0 -1 I I #
point $-1 22.268878888244785 37.895205518504291 8.02105738682633 #
straight-curve $-1 7.4217169534301561 37.895205518504284 3.5328372464149851 -1 0 0 I I #
point $-1 22.268878888244785 37.895205518504291 3.5328372464149851 #
point $-1 11.661100343409828 31.897908085354327 1.8631172278670389 #
point $-1 18.025767470310811 31.897908085354327 1.8631172278670389 #
straight-curve $-1 -64.67116306039614 0 -8.02105738682633 0 1 0 I I #
straight-curve $-1 -64.67116306039614 0 8.02105738682633 0 -1 0 I I #
End-of-ACIS-data 