500 0 7 0           
7 Unknown 11 ACIS 5.0 NT 24 Thu Mar 25 17:20:02 1999 
-1 9.9999999999999995e-007 1e-010 
body $-1 $7 $-1 $8 #
body $-1 $9 $-1 $10 #
body $-1 $11 $-1 $12 #
body $-1 $13 $-1 $14 #
body $-1 $15 $-1 $16 #
body $-1 $17 $-1 $18 #
body $-1 $19 $-1 $20 #
lump $-1 $-1 $21 $0 #
transform $-1 1 0 0 0 1 0 0 0 1 51.713003936887723 21.473514373194845 9.7169831543049181 1 rotate no_reflect no_shear #
lump $-1 $-1 $22 $1 #
transform $-1 1 0 0 0 1 0 0 0 1 51.713003936887723 21.473514373194845 9.7169831543049181 1 rotate no_reflect no_shear #
lump $-1 $-1 $23 $2 #
transform $-1 1 0 0 0 1 0 0 0 1 51.713003936887723 21.473514373194845 9.7169831543049181 1 rotate no_reflect no_shear #
lump $-1 $-1 $24 $3 #
transform $-1 1 0 0 0 1 0 0 0 1 51.713003936887723 21.473514373194845 9.7169831543049181 1 rotate no_reflect no_shear #
lump $-1 $-1 $25 $4 #
transform $-1 1 0 0 0 1 0 0 0 1 51.713003936887723 21.473514373194845 9.7169831543049181 1 rotate no_reflect no_shear #
lump $-1 $-1 $26 $5 #
transform $-1 1 0 0 0 1 0 0 0 1 51.713003936887723 21.473514373194845 9.7169831543049181 1 rotate no_reflect no_shear #
lump $-1 $-1 $27 $6 #
transform $-1 1 0 0 0 1 0 0 0 1 51.713003936887723 21.473514373194845 9.7169831543049181 1 rotate no_reflect no_shear #
shell $-1 $-1 $-1 $28 $-1 $7 #
shell $-1 $-1 $-1 $29 $-1 $9 #
shell $-1 $-1 $-1 $30 $-1 $11 #
shell $-1 $-1 $-1 $31 $-1 $13 #
shell $-1 $-1 $-1 $32 $-1 $15 #
shell $-1 $-1 $-1 $33 $-1 $17 #
shell $-1 $-1 $-1 $34 $-1 $19 #
face $-1 $35 $36 $21 $-1 $37 forward single #
face $-1 $38 $39 $22 $-1 $40 reversed single #
face $-1 $41 $42 $23 $-1 $43 reversed single #
face $-1 $44 $45 $24 $-1 $46 reversed single #
face $-1 $47 $48 $25 $-1 $49 forward single #
face $-1 $50 $51 $26 $-1 $52 reversed single #
face $-1 $53 $54 $27 $-1 $55 forward single #
face $-1 $56 $57 $21 $-1 $58 reversed single #
loop $-1 $-1 $59 $28 #
plane-surface $-1 0 0 9.7169831543049181 0 0 1 1 0 0 forward_v I I I I #
face $-1 $60 $61 $22 $-1 $62 reversed single #
loop $-1 $-1 $63 $29 #
plane-surface $-1 -47.213952068639649 0 5.911266072715005 0 0 1 1 0 0 forward_v I I I I #
face $-1 $64 $65 $23 $-1 $66 reversed single #
loop $-1 $-1 $67 $30 #
plane-surface $-1 47.213952068639649 0 5.911266072715005 0 0 1 1 0 0 forward_v I I I I #
face $-1 $68 $69 $24 $-1 $70 reversed single #
loop $-1 $-1 $71 $31 #
plane-surface $-1 -38.437348463200038 -1.9171133906545634 39.306281059029025 0 0.83867057594974714 0.54463902268945019 1 0 0 forward_v I I I I #
face $-1 $72 $73 $25 $-1 $74 forward single #
loop $-1 $75 $76 $32 #
cone-surface $-1 -38.437348463200038 17.502615234911623 5.2793706786540264 0 -0.83867057594974714 -0.54463902268945019 1.5 0 0 1 I I 0 1 1.5 forward I I I I #
face $-1 $77 $78 $26 $-1 $79 reversed single #
loop $-1 $-1 $80 $33 #
plane-surface $-1 6.2172489379008766e-015 84.823236201027768 95.636120908073465 1 0 0 0 -0.83867057594974714 -0.54463902268945019 forward_v I I I I #
face $-1 $81 $82 $27 $-1 $83 forward single #
loop $-1 $84 $85 $34 #
cone-surface $-1 4.277551737191537 17.502615234911623 5.2793706786540264 0 -0.83867057594974714 -0.54463902268945019 1.5 0 0 1 I I 0 1 1.5 forward I I I I #
face $-1 $86 $87 $21 $-1 $88 reversed single #
loop $-1 $-1 $89 $35 #
plane-surface $-1 0 0 -9.7169831543049181 0 0 1 1 0 0 forward_v I I I I #
coedge $-1 $90 $91 $92 $93 forward $36 $-1 #
face $-1 $94 $95 $22 $-1 $96 reversed single #
loop $-1 $-1 $97 $38 #
plane-surface $-1 -42.714900200391575 0 7.8141246135099625 -1 0 0 0 0 1 forward_v I I I I #
coedge $-1 $98 $99 $100 $101 forward $39 $-1 #
face $-1 $102 $103 $23 $-1 $104 forward single #
loop $-1 $-1 $105 $41 #
plane-surface $-1 42.714900200391575 0 7.8141246135099625 1 0 0 0 0 -1 forward_v I I I I #
coedge $-1 $106 $107 $108 $109 reversed $42 $-1 #
face $-1 $110 $111 $24 $-1 $112 reversed single #
loop $-1 $-1 $113 $44 #
plane-surface $-1 -34.159796726008508 84.823236201027768 95.636120908073465 -1 0 0 0 0.83867057594974714 0.54463902268945019 forward_v I I I I #
coedge $-1 $114 $115 $116 $117 reversed $45 $-1 #
face $-1 $-1 $118 $25 $-1 $119 forward single #
loop $-1 $120 $121 $47 #
cone-surface $-1 -38.437348463200038 14.990269987362829 3.6478346506564865 0 -0.83867057594974714 -0.54463902268945019 0.75 0 0 1 I I -0.70710678118654757 0.70710678118654757 0.75 forward I I I I #
loop $-1 $-1 $122 $32 #
coedge $-1 $76 $76 $123 $124 reversed $48 $-1 #
face $-1 $125 $126 $26 $-1 $127 reversed single #
loop $-1 $-1 $128 $50 #
plane-surface $-1 4.277551737191537 -1.9171133906545634 39.306281059029025 0 0.83867057594974714 0.54463902268945019 1 0 0 forward_v I I I I #
coedge $-1 $129 $130 $131 $132 reversed $51 $-1 #
face $-1 $-1 $133 $27 $-1 $134 forward single #
loop $-1 $135 $136 $53 #
cone-surface $-1 4.277551737191537 14.990269987362829 3.6478346506564865 0 -0.83867057594974714 -0.54463902268945019 0.75 0 0 1 I I -0.70710678118654757 0.70710678118654757 0.75 forward I I I I #
loop $-1 $-1 $137 $34 #
coedge $-1 $85 $85 $138 $139 reversed $54 $-1 #
face $-1 $140 $141 $21 $-1 $142 reversed single #
loop $-1 $-1 $143 $56 #
plane-surface $-1 0 -21.473514373194845 0 0 1 0 0 0 1 forward_v I I I I #
coedge $-1 $144 $145 $146 $147 forward $57 $-1 #
coedge $-1 $148 $59 $149 $150 forward $36 $-1 #
coedge $-1 $59 $148 $151 $152 forward $36 $-1 #
coedge $-1 $153 $154 $59 $93 reversed $155 $-1 #
edge $-1 $156 -21.473514373194845 $157 21.473514373194845 $92 $158 forward 7 unknown #
face $-1 $159 $160 $22 $-1 $161 reversed single #
loop $-1 $-1 $162 $60 #
plane-surface $-1 0 21.473514373194845 0 0 -1 0 0 0 -1 forward_v I I I I #
coedge $-1 $100 $163 $164 $165 reversed $61 $-1 #
coedge $-1 $166 $63 $167 $168 reversed $39 $-1 #
coedge $-1 $63 $166 $169 $170 reversed $39 $-1 #
coedge $-1 $171 $97 $63 $101 reversed $61 $-1 #
edge $-1 $172 -21.473514373194845 $173 21.473514373194845 $100 $174 forward 7 unknown #
face $-1 $175 $176 $23 $-1 $177 reversed single #
loop $-1 $-1 $178 $64 #
plane-surface $-1 0 0 9.7169831543049181 0 0 1 1 0 0 forward_v I I I I #
coedge $-1 $179 $180 $181 $182 reversed $65 $-1 #
coedge $-1 $183 $67 $184 $185 reversed $42 $-1 #
coedge $-1 $67 $183 $186 $187 reversed $42 $-1 #
coedge $-1 $188 $189 $67 $109 forward $190 $-1 #
edge $-1 $191 -21.473514373194845 $192 21.473514373194845 $108 $193 forward 7 unknown #
face $-1 $194 $195 $24 $-1 $196 forward single #
loop $-1 $-1 $197 $68 #
plane-surface $-1 0 21.473514373194845 0 0 -1 0 0 0 -1 forward_v I I I I #
coedge $-1 $198 $199 $200 $201 reversed $69 $-1 #
coedge $-1 $202 $71 $203 $204 reversed $45 $-1 #
coedge $-1 $71 $202 $198 $205 forward $45 $-1 #
coedge $-1 $200 $206 $71 $117 forward $195 $-1 #
edge $-1 $207 -23.496225968791549 $208 -14.941122494408489 $116 $209 forward 7 unknown #
loop $-1 $-1 $123 $72 #
plane-surface $-1 -38.437348463200038 -1.9171133906545634 39.306281059029025 0 0.83867057594974714 0.54463902268945019 1 0 0 forward_v I I I I #
loop $-1 $-1 $210 $47 #
coedge $-1 $121 $121 $122 $211 reversed $73 $-1 #
coedge $-1 $122 $122 $121 $211 forward $75 $-1 #
coedge $-1 $123 $123 $76 $124 forward $118 $-1 #
edge $-1 $212 0 $212 6.2831853071796004 $123 $213 forward 7 unknown #
face $-1 $214 $215 $26 $-1 $216 forward single #
loop $-1 $-1 $217 $77 #
plane-surface $-1 8.555103474383067 84.823236201027768 95.636120908073465 -1 0 0 0 0.83867057594974714 0.54463902268945019 forward_v I I I I #
coedge $-1 $218 $219 $220 $221 reversed $78 $-1 #
coedge $-1 $130 $80 $222 $223 reversed $51 $-1 #
coedge $-1 $80 $129 $218 $224 reversed $51 $-1 #
coedge $-1 $220 $225 $80 $132 forward $215 $-1 #
edge $-1 $226 20.938103727319039 $227 25.113217372712516 $131 $228 forward 7 unknown #
loop $-1 $-1 $138 $81 #
plane-surface $-1 4.277551737191537 -1.9171133906545634 39.306281059029025 0 0.83867057594974714 0.54463902268945019 1 0 0 forward_v I I I I #
loop $-1 $-1 $229 $53 #
coedge $-1 $136 $136 $137 $230 reversed $82 $-1 #
coedge $-1 $137 $137 $136 $230 forward $84 $-1 #
coedge $-1 $138 $138 $85 $139 forward $133 $-1 #
edge $-1 $231 0 $231 6.2831853071796004 $138 $232 forward 7 unknown #
face $-1 $233 $234 $21 $-1 $235 reversed single #
loop $-1 $-1 $236 $86 #
plane-surface $-1 -51.713003936887723 0 0 1 0 0 0 0 -1 forward_v I I I I #
coedge $-1 $237 $151 $238 $239 forward $87 $-1 #
coedge $-1 $240 $89 $237 $241 forward $57 $-1 #
coedge $-1 $89 $240 $242 $243 forward $57 $-1 #
coedge $-1 $154 $153 $89 $147 reversed $155 $-1 #
edge $-1 $244 -21.473514373194845 $245 21.473514373194845 $146 $246 forward 7 unknown #
coedge $-1 $91 $90 $247 $248 forward $36 $-1 #
coedge $-1 $249 $250 $90 $150 reversed $234 $-1 #
edge $-1 $157 -51.713003936887723 $251 51.713003936887723 $149 $252 forward 7 unknown #
coedge $-1 $143 $253 $91 $152 reversed $87 $-1 #
edge $-1 $254 -51.713003936887723 $156 51.713003936887723 $151 $255 forward 7 unknown #
coedge $-1 $146 $92 $253 $256 forward $155 $-1 #
coedge $-1 $92 $146 $249 $257 reversed $155 $-1 #
loop $-1 $-1 $153 $233 #
vertex $-1 $93 $258 #
vertex $-1 $93 $259 #
straight-curve $-1 51.713003936887723 0 9.7169831543049181 0 1 0 I I #
face $-1 $260 $261 $22 $-1 $262 forward single #
loop $-1 $-1 $263 $94 #
plane-surface $-1 -51.713003936887723 0 0 1 0 0 0 0 -1 forward_v I I I I #
coedge $-1 $169 $264 $171 $265 forward $95 $-1 #
coedge $-1 $97 $171 $266 $267 reversed $61 $-1 #
coedge $-1 $268 $167 $97 $165 forward $269 $-1 #
edge $-1 $173 2.0042037659600238 $270 5.8099208475499386 $164 $271 forward 7 unknown #
coedge $-1 $99 $98 $263 $272 reversed $39 $-1 #
coedge $-1 $164 $273 $98 $168 forward $269 $-1 #
edge $-1 $274 -28.106027902567899 $173 -19.107924166071751 $167 $275 forward 7 unknown #
coedge $-1 $276 $162 $99 $170 forward $95 $-1 #
edge $-1 $172 19.107924166071751 $277 28.106027902567899 $169 $278 forward 7 unknown #
coedge $-1 $163 $100 $162 $265 reversed $61 $-1 #
vertex $-1 $170 $279 #
vertex $-1 $168 $280 #
straight-curve $-1 -42.714900200391575 0 5.911266072715005 0 -1 0 I I #
face $-1 $281 $282 $23 $-1 $283 reversed single #
loop $-1 $-1 $284 $102 #
plane-surface $-1 0 -21.473514373194845 0 0 1 0 0 0 1 forward_v I I I I #
coedge $-1 $285 $286 $180 $287 forward $103 $-1 #
coedge $-1 $288 $105 $183 $289 reversed $65 $-1 #
coedge $-1 $105 $288 $178 $287 reversed $65 $-1 #
coedge $-1 $290 $186 $105 $182 forward $282 $-1 #
edge $-1 $291 2.0042037659600238 $292 5.8099208475499386 $181 $293 forward 7 unknown #
coedge $-1 $107 $106 $179 $289 forward $42 $-1 #
coedge $-1 $294 $284 $106 $185 forward $176 $-1 #
edge $-1 $295 19.107924166071751 $191 28.106027902567899 $184 $296 forward 7 unknown #
coedge $-1 $181 $297 $107 $187 forward $282 $-1 #
edge $-1 $192 -28.106027902567899 $291 -19.107924166071751 $186 $298 forward 7 unknown #
coedge $-1 $299 $108 $297 $300 reversed $190 $-1 #
coedge $-1 $108 $299 $294 $301 forward $190 $-1 #
loop $-1 $-1 $108 $281 #
vertex $-1 $185 $302 #
vertex $-1 $109 $303 #
straight-curve $-1 51.713003936887723 0 5.911266072715005 0 1 0 I I #
face $-1 $-1 $304 $24 $-1 $305 forward single #
loop $-1 $-1 $200 $110 #
plane-surface $-1 0 0 9.7169831543049181 0 0 1 1 0 0 forward_v I I I I #
coedge $-1 $306 $307 $199 $308 forward $111 $-1 #
coedge $-1 $199 $113 $115 $205 reversed $69 $-1 #
coedge $-1 $113 $198 $197 $308 reversed $69 $-1 #
coedge $-1 $309 $116 $113 $201 forward $195 $-1 #
edge $-1 $208 -25.113217372712516 $310 -20.938103727319039 $200 $311 forward 7 unknown #
coedge $-1 $115 $114 $306 $312 reversed $45 $-1 #
coedge $-1 $313 $314 $114 $204 forward $304 $-1 #
edge $-1 $315 -29.219188872622716 $207 -21.553352471887791 $203 $316 forward 7 unknown #
edge $-1 $317 -42.947028746389705 $208 -35.28119234565478 $198 $318 forward 7 unknown #
coedge $-1 $116 $309 $313 $319 forward $195 $-1 #
vertex $-1 $204 $320 #
vertex $-1 $117 $321 #
straight-curve $-1 -19.218674231600019 17.298400727801369 9.7169831543049199 1 0 0 I I #
coedge $-1 $210 $210 $-1 $322 reversed $120 $-1 #
edge $-1 $323 0 $323 6.2831853071796004 $121 $324 forward 7 unknown #
vertex $-1 $124 $325 #
ellipse-curve $-1 -38.437348463200038 19.385957550498105 6.5024274396344781 0 0.83867057594974714 0.54463902268945019 1.5 0 0 1 I I #
face $-1 $-1 $326 $26 $-1 $327 reversed single #
loop $-1 $-1 $131 $125 #
plane-surface $-1 0 0 9.7169831543049181 0 0 1 1 0 0 forward_v I I I I #
coedge $-1 $328 $329 $330 $331 reversed $126 $-1 #
coedge $-1 $332 $128 $130 $224 forward $78 $-1 #
coedge $-1 $128 $332 $328 $333 forward $78 $-1 #
coedge $-1 $330 $131 $128 $221 forward $215 $-1 #
edge $-1 $227 -2.1387758685957623 $334 6.4163276057872984 $220 $335 forward 7 unknown #
coedge $-1 $336 $337 $129 $223 forward $326 $-1 #
edge $-1 $338 -44.530188729072705 $226 -38.101077299731813 $222 $339 forward 7 unknown #
edge $-1 $227 35.28119234565478 $338 42.947028746389705 $130 $340 forward 7 unknown #
coedge $-1 $131 $330 $336 $341 forward $215 $-1 #
vertex $-1 $223 $342 #
vertex $-1 $132 $343 #
straight-curve $-1 6.2172489379008766e-015 42.411618100513884 9.7169831543049199 0 -1 0 I I #
coedge $-1 $229 $229 $-1 $344 reversed $135 $-1 #
edge $-1 $345 0 $345 6.2831853071796004 $136 $346 forward 7 unknown #
vertex $-1 $139 $347 #
ellipse-curve $-1 4.277551737191537 19.385957550498105 6.5024274396344781 0 0.83867057594974714 0.54463902268945019 1.5 0 0 1 I I #
face $-1 $-1 $155 $21 $-1 $348 reversed single #
loop $-1 $-1 $249 $140 #
plane-surface $-1 0 21.473514373194845 0 0 -1 0 0 0 -1 forward_v I I I I #
coedge $-1 $349 $247 $250 $350 forward $141 $-1 #
coedge $-1 $253 $143 $144 $241 reversed $87 $-1 #
coedge $-1 $247 $349 $143 $239 reversed $141 $-1 #
edge $-1 $254 -9.7169831543049181 $351 9.7169831543049181 $238 $352 forward 7 unknown #
coedge $-1 $145 $144 $349 $353 forward $57 $-1 #
edge $-1 $245 -51.713003936887723 $351 51.713003936887723 $237 $354 forward 7 unknown #
coedge $-1 $250 $249 $145 $243 reversed $234 $-1 #
edge $-1 $355 -51.713003936887723 $244 51.713003936887723 $242 $356 forward 7 unknown #
vertex $-1 $147 $357 #
vertex $-1 $256 $358 #
straight-curve $-1 51.713003936887723 0 -9.7169831543049181 0 -1 0 I I #
coedge $-1 $236 $238 $148 $248 reversed $141 $-1 #
edge $-1 $251 -21.473514373194845 $254 21.473514373194845 $247 $359 forward 7 unknown #
coedge $-1 $242 $149 $154 $257 forward $234 $-1 #
coedge $-1 $149 $242 $236 $350 reversed $234 $-1 #
vertex $-1 $150 $360 #
straight-curve $-1 0 21.473514373194845 9.7169831543049181 -1 0 0 I I #
coedge $-1 $151 $237 $153 $256 reversed $87 $-1 #
vertex $-1 $248 $361 #
straight-curve $-1 0 -21.473514373194845 9.7169831543049181 1 0 0 I I #
edge $-1 $156 -9.7169831543049181 $245 9.7169831543049181 $153 $362 forward 7 unknown #
edge $-1 $157 -9.7169831543049181 $244 9.7169831543049181 $154 $363 forward 7 unknown #
point $-1 51.713003936887723 -21.473514373194845 9.7169831543049181 #
point $-1 51.713003936887723 21.473514373194845 9.7169831543049181 #
face $-1 $-1 $269 $22 $-1 $364 reversed single #
loop $-1 $-1 $266 $159 #
plane-surface $-1 0 0 9.7169831543049181 0 0 1 1 0 0 forward_v I I I I #
coedge $-1 $365 $366 $166 $272 forward $160 $-1 #
coedge $-1 $162 $276 $367 $368 reversed $95 $-1 #
edge $-1 $369 -5.8099208475499386 $172 -2.0042037659600238 $162 $370 forward 7 unknown #
coedge $-1 $367 $371 $163 $267 forward $261 $-1 #
edge $-1 $270 -21.473514373194845 $369 21.473514373194845 $266 $372 forward 7 unknown #
coedge $-1 $273 $164 $371 $373 reversed $269 $-1 #
loop $-1 $-1 $164 $260 #
vertex $-1 $165 $374 #
straight-curve $-1 -42.714900200391575 -21.473514373194845 3.9070623067549812 0 0 1 I I #
edge $-1 $277 -21.473514373194845 $274 21.473514373194845 $263 $375 forward 7 unknown #
coedge $-1 $167 $268 $365 $376 forward $269 $-1 #
vertex $-1 $272 $377 #
straight-curve $-1 -23.606976034319825 -21.473514373194845 5.911266072715005 1 0 0 I I #
coedge $-1 $264 $169 $366 $378 reversed $95 $-1 #
vertex $-1 $272 $379 #
straight-curve $-1 -23.606976034319825 21.473514373194845 5.911266072715005 -1 0 0 I I #
point $-1 -42.714900200391575 21.473514373194845 5.911266072715005 #
point $-1 -42.714900200391575 -21.473514373194845 5.911266072715005 #
face $-1 $-1 $190 $23 $-1 $380 reversed single #
loop $-1 $-1 $181 $175 #
plane-surface $-1 0 21.473514373194845 0 0 -1 0 0 0 -1 forward_v I I I I #
coedge $-1 $184 $381 $288 $382 forward $176 $-1 #
coedge $-1 $383 $178 $381 $384 forward $103 $-1 #
coedge $-1 $178 $383 $290 $385 forward $103 $-1 #
edge $-1 $292 -21.473514373194845 $386 21.473514373194845 $178 $387 forward 7 unknown #
coedge $-1 $180 $179 $284 $382 reversed $65 $-1 #
edge $-1 $295 -21.473514373194845 $291 21.473514373194845 $179 $388 forward 7 unknown #
coedge $-1 $297 $181 $286 $385 reversed $282 $-1 #
vertex $-1 $187 $389 #
vertex $-1 $182 $390 #
straight-curve $-1 42.714900200391575 21.473514373194845 3.9070623067549812 0 0 1 I I #
coedge $-1 $381 $184 $189 $301 reversed $176 $-1 #
vertex $-1 $185 $391 #
straight-curve $-1 23.606976034319825 -21.473514373194845 5.911266072715005 1 0 0 I I #
coedge $-1 $186 $290 $188 $300 forward $282 $-1 #
straight-curve $-1 23.606976034319825 21.473514373194845 5.911266072715005 -1 0 0 I I #
coedge $-1 $189 $188 $383 $392 reversed $190 $-1 #
edge $-1 $393 -9.7169831543049181 $192 -5.911266072715005 $188 $394 forward 7 unknown #
edge $-1 $395 -9.7169831543049181 $191 -5.911266072715005 $189 $396 forward 7 unknown #
point $-1 51.713003936887723 -21.473514373194845 5.911266072715005 #
point $-1 51.713003936887723 21.473514373194845 5.911266072715005 #
loop $-1 $-1 $203 $194 #
plane-surface $-1 -42.714900200391575 0 7.8141246135099625 -1 0 0 0 0 1 forward_v I I I I #
coedge $-1 $397 $197 $202 $312 forward $111 $-1 #
coedge $-1 $197 $397 $309 $398 reversed $111 $-1 #
edge $-1 $310 38.101077299731813 $317 44.530188729072705 $197 $399 forward 7 unknown #
coedge $-1 $206 $200 $307 $398 forward $195 $-1 #
vertex $-1 $398 $400 #
straight-curve $-1 -34.159796726008508 42.411618100513884 9.7169831543049199 0 1 0 I I #
edge $-1 $317 14.941122494408489 $315 23.496225968791549 $306 $401 forward 7 unknown #
coedge $-1 $314 $203 $206 $319 reversed $304 $-1 #
coedge $-1 $203 $313 $397 $402 reversed $304 $-1 #
vertex $-1 $402 $403 #
straight-curve $-1 -42.714900200391575 5.5596039018311547 27.793145685550961 0 -0.54463902268945019 0.83867057594974714 I I #
vertex $-1 $312 $404 #
straight-curve $-1 -34.159796726008508 -1.9171133906545634 39.306281059029025 0 -0.54463902268945019 0.83867057594974714 I I #
edge $-1 $405 -21.473514373194845 $207 -17.298400727801369 $206 $406 forward 7 unknown #
point $-1 -42.714900200391568 17.298400727801369 9.7169831543049199 #
point $-1 -34.159796726008508 17.298400727801369 9.7169831543049199 #
edge $-1 $407 1 $407 0 $210 $-1 forward 7 unknown #
vertex $-1 $211 $408 #
ellipse-curve $-1 -38.437348463200038 15.619272919325139 4.0563139176735739 0 0.83867057594974714 0.54463902268945019 1.5 0 0 1 I I #
point $-1 -36.937348463200038 19.385957550498105 6.5024274396344781 #
loop $-1 $-1 $222 $214 #
plane-surface $-1 0 21.473514373194845 0 0 -1 0 0 0 -1 forward_v I I I I #
coedge $-1 $329 $217 $219 $333 reversed $126 $-1 #
coedge $-1 $217 $328 $409 $410 reversed $126 $-1 #
coedge $-1 $225 $220 $217 $331 forward $215 $-1 #
edge $-1 $334 -25.113217372712516 $411 -20.938103727319039 $330 $412 forward 7 unknown #
coedge $-1 $219 $218 $337 $413 reversed $78 $-1 #
edge $-1 $414 -42.947028746389705 $334 -35.28119234565478 $328 $415 forward 7 unknown #
vertex $-1 $221 $416 #
straight-curve $-1 2.1387758685957685 17.298400727801369 9.7169831543049199 1 0 0 I I #
coedge $-1 $409 $222 $225 $341 reversed $326 $-1 #
coedge $-1 $222 $409 $332 $413 forward $326 $-1 #
vertex $-1 $223 $417 #
straight-curve $-1 6.2172489379008766e-015 21.473514373194845 47.818060454036733 0 0 1 I I #
straight-curve $-1 6.2172489379008766e-015 -1.9171133906545634 39.306281059029025 0 0.54463902268945019 -0.83867057594974714 I I #
edge $-1 $411 -8.555103474383067 $226 -6.2172489379008766e-015 $336 $418 forward 7 unknown #
point $-1 6.2172489379008766e-015 21.473514373194845 9.7169831543049181 #
point $-1 6.2172489379008766e-015 17.298400727801369 9.7169831543049199 #
edge $-1 $419 1 $419 0 $229 $-1 forward 7 unknown #
vertex $-1 $230 $420 #
ellipse-curve $-1 4.277551737191537 15.619272919325139 4.0563139176735739 0 0.83867057594974714 0.54463902268945019 1.5 0 0 1 I I #
point $-1 5.777551737191537 19.385957550498105 6.5024274396344781 #
plane-surface $-1 51.713003936887723 0 0 -1 0 0 0 0 1 forward_v I I I I #
coedge $-1 $238 $236 $240 $353 reversed $141 $-1 #
edge $-1 $251 -9.7169831543049181 $355 9.7169831543049181 $250 $421 forward 7 unknown #
vertex $-1 $353 $422 #
straight-curve $-1 -51.713003936887723 -21.473514373194845 0 0 0 -1 I I #
edge $-1 $351 -21.473514373194845 $355 21.473514373194845 $349 $423 forward 7 unknown #
straight-curve $-1 0 -21.473514373194845 -9.7169831543049181 -1 0 0 I I #
vertex $-1 $243 $424 #
straight-curve $-1 0 21.473514373194845 -9.7169831543049181 1 0 0 I I #
point $-1 51.713003936887723 21.473514373194845 -9.7169831543049181 #
point $-1 51.713003936887723 -21.473514373194845 -9.7169831543049181 #
straight-curve $-1 -51.713003936887723 0 9.7169831543049181 0 -1 0 I I #
point $-1 -51.713003936887723 21.473514373194845 9.7169831543049181 #
point $-1 -51.713003936887723 -21.473514373194845 9.7169831543049181 #
straight-curve $-1 51.713003936887723 -21.473514373194845 0 0 0 -1 I I #
straight-curve $-1 51.713003936887723 21.473514373194845 0 0 0 -1 I I #
plane-surface $-1 0 -21.473514373194845 0 0 1 0 0 0 1 forward_v I I I I #
coedge $-1 $425 $263 $273 $376 reversed $160 $-1 #
coedge $-1 $263 $425 $276 $378 forward $160 $-1 #
coedge $-1 $426 $266 $264 $368 forward $261 $-1 #
edge $-1 $369 42.714900200391575 $427 51.713003936887723 $264 $428 forward 7 unknown #
vertex $-1 $368 $429 #
straight-curve $-1 -42.714900200391575 21.473514373194845 3.9070623067549812 0 0 -1 I I #
coedge $-1 $266 $426 $268 $373 forward $261 $-1 #
straight-curve $-1 -42.714900200391575 0 9.7169831543049181 0 1 0 I I #
edge $-1 $430 -51.713003936887723 $270 -42.714900200391575 $268 $431 forward 7 unknown #
point $-1 -42.714900200391575 -21.473514373194845 9.7169831543049199 #
straight-curve $-1 -51.713003936887723 0 5.911266072715005 0 -1 0 I I #
edge $-1 $430 -9.7169831543049181 $274 -5.911266072715005 $365 $432 forward 7 unknown #
point $-1 -51.713003936887723 -21.473514373194845 5.911266072715005 #
edge $-1 $427 -9.7169831543049181 $277 -5.911266072715005 $276 $433 forward 7 unknown #
point $-1 -51.713003936887723 21.473514373194845 5.911266072715005 #
plane-surface $-1 51.713003936887723 0 0 -1 0 0 0 0 1 forward_v I I I I #
coedge $-1 $284 $294 $285 $384 reversed $176 $-1 #
edge $-1 $386 -5.8099208475499386 $295 -2.0042037659600238 $284 $434 forward 7 unknown #
coedge $-1 $286 $285 $299 $392 forward $103 $-1 #
edge $-1 $386 42.714900200391575 $395 51.713003936887723 $381 $435 forward 7 unknown #
edge $-1 $393 -51.713003936887723 $292 -42.714900200391575 $290 $436 forward 7 unknown #
vertex $-1 $384 $437 #
straight-curve $-1 42.714900200391575 0 9.7169831543049181 0 -1 0 I I #
straight-curve $-1 42.714900200391575 0 5.911266072715005 0 1 0 I I #
point $-1 42.714900200391575 21.473514373194845 5.911266072715005 #
point $-1 42.714900200391575 21.473514373194845 9.7169831543049199 #
point $-1 42.714900200391575 -21.473514373194845 5.911266072715005 #
edge $-1 $395 -21.473514373194845 $393 21.473514373194845 $299 $438 forward 7 unknown #
vertex $-1 $392 $439 #
straight-curve $-1 51.713003936887723 21.473514373194845 0 0 0 -1 I I #
vertex $-1 $392 $440 #
straight-curve $-1 51.713003936887723 -21.473514373194845 0 0 0 -1 I I #
coedge $-1 $307 $306 $314 $402 forward $111 $-1 #
edge $-1 $310 34.159796726008508 $405 42.714900200391575 $307 $441 forward 7 unknown #
straight-curve $-1 -34.159796726008508 21.473514373194845 47.818060454036733 0 0 -1 I I #
point $-1 -34.159796726008508 21.473514373194845 9.7169831543049181 #
straight-curve $-1 -19.218674231600019 21.473514373194845 3.2878717249640275 -1 0 0 I I #
edge $-1 $315 -44.530188729072705 $405 -38.101077299731813 $397 $442 forward 7 unknown #
point $-1 -42.714900200391568 21.473514373194845 3.2878717249640275 #
point $-1 -34.159796726008508 21.473514373194845 3.2878717249640275 #
vertex $-1 $319 $443 #
straight-curve $-1 -42.714900200391575 0 9.7169831543049181 0 -1 0 I I #
vertex $-1 $322 $444 #
point $-1 -36.937348463200038 15.619272919325139 4.0563139176735739 #
coedge $-1 $337 $336 $329 $410 forward $326 $-1 #
edge $-1 $411 38.101077299731813 $414 44.530188729072705 $409 $445 forward 7 unknown #
vertex $-1 $341 $446 #
straight-curve $-1 8.555103474383067 42.411618100513884 9.7169831543049199 0 1 0 I I #
edge $-1 $414 -6.4163276057872984 $338 2.1387758685957623 $337 $447 forward 7 unknown #
vertex $-1 $413 $448 #
straight-curve $-1 8.555103474383067 -1.9171133906545634 39.306281059029025 0 -0.54463902268945019 0.83867057594974714 I I #
point $-1 8.555103474383067 17.298400727801369 9.7169831543049199 #
point $-1 6.2172489379008766e-015 21.473514373194845 3.2878717249640275 #
straight-curve $-1 0 21.473514373194845 9.7169831543049181 -1 0 0 I I #
vertex $-1 $344 $449 #
point $-1 5.777551737191537 15.619272919325139 4.0563139176735739 #
straight-curve $-1 -51.713003936887723 21.473514373194845 0 0 0 -1 I I #
point $-1 -51.713003936887723 -21.473514373194845 -9.7169831543049181 #
straight-curve $-1 -51.713003936887723 0 -9.7169831543049181 0 1 0 I I #
point $-1 -51.713003936887723 21.473514373194845 -9.7169831543049181 #
coedge $-1 $366 $365 $426 $450 reversed $160 $-1 #
coedge $-1 $371 $367 $425 $450 forward $261 $-1 #
vertex $-1 $368 $451 #
straight-curve $-1 0 21.473514373194845 9.7169831543049181 -1 0 0 I I #
point $-1 -42.714900200391575 21.473514373194845 9.7169831543049199 #
vertex $-1 $450 $452 #
straight-curve $-1 0 -21.473514373194845 9.7169831543049181 1 0 0 I I #
straight-curve $-1 -51.713003936887723 -21.473514373194845 0 0 0 -1 I I #
straight-curve $-1 -51.713003936887723 21.473514373194845 0 0 0 -1 I I #
straight-curve $-1 42.714900200391575 -21.473514373194845 3.9070623067549812 0 0 -1 I I #
straight-curve $-1 0 -21.473514373194845 9.7169831543049181 1 0 0 I I #
straight-curve $-1 0 21.473514373194845 9.7169831543049181 -1 0 0 I I #
point $-1 42.714900200391575 -21.473514373194845 9.7169831543049199 #
straight-curve $-1 51.713003936887723 0 9.7169831543049181 0 1 0 I I #
point $-1 51.713003936887723 21.473514373194845 9.7169831543049181 #
point $-1 51.713003936887723 -21.473514373194845 9.7169831543049181 #
straight-curve $-1 0 21.473514373194845 9.7169831543049181 -1 0 0 I I #
straight-curve $-1 -42.714900200391568 21.473514373194845 47.818060454036733 0 0 1 I I #
point $-1 -42.714900200391575 21.473514373194845 9.7169831543049199 #
point $-1 -38.437348463200038 14.36126705540052 3.2393553836393987 #
straight-curve $-1 8.555103474383067 21.473514373194845 47.818060454036733 0 0 -1 I I #
point $-1 8.555103474383067 21.473514373194845 9.7169831543049181 #
straight-curve $-1 2.1387758685957685 21.473514373194845 3.2878717249640275 -1 0 0 I I #
point $-1 8.555103474383067 21.473514373194845 3.2878717249640275 #
point $-1 4.277551737191537 14.36126705540052 3.2393553836393987 #
edge $-1 $427 -21.473514373194845 $430 21.473514373194845 $425 $453 forward 7 unknown #
point $-1 -51.713003936887723 21.473514373194845 9.7169831543049181 #
point $-1 -51.713003936887723 -21.473514373194845 9.7169831543049181 #
straight-curve $-1 -51.713003936887723 0 9.7169831543049181 0 -1 0 I I #
End-of-ACIS-data 