500 0 13 0           
7 Unknown 11 ACIS 5.0 NT 24 Fri Mar 26 02:09:34 1999 
-1 9.9999999999999995e-007 1e-010 
body $-1 $13 $-1 $14 #
body $-1 $15 $-1 $16 #
body $-1 $17 $-1 $18 #
body $-1 $19 $-1 $20 #
body $-1 $21 $-1 $22 #
body $-1 $23 $-1 $24 #
body $-1 $25 $-1 $26 #
body $-1 $27 $-1 $28 #
body $-1 $29 $-1 $30 #
body $-1 $31 $-1 $32 #
body $-1 $33 $-1 $34 #
body $-1 $35 $-1 $36 #
body $-1 $37 $-1 $38 #
lump $-1 $-1 $39 $0 #
transform $-1 1 0 0 0 1 0 0 0 1 59.033783989989928 23.924293580073652 11.585835839654736 1 rotate no_reflect no_shear #
lump $-1 $-1 $40 $1 #
transform $-1 1 0 0 0 1 0 0 0 1 59.033783989989928 23.924293580073652 11.585835839654736 1 rotate no_reflect no_shear #
lump $-1 $-1 $41 $2 #
transform $-1 1 0 0 0 1 0 0 0 1 59.033783989989928 23.924293580073652 11.585835839654736 1 rotate no_reflect no_shear #
lump $-1 $-1 $42 $3 #
transform $-1 1 0 0 0 1 0 0 0 1 59.033783989989928 23.924293580073652 11.585835839654736 1 rotate no_reflect no_shear #
lump $-1 $-1 $43 $4 #
transform $-1 1 0 0 0 1 0 0 0 1 59.033783989989928 23.924293580073652 11.585835839654736 1 rotate no_reflect no_shear #
lump $-1 $-1 $44 $5 #
transform $-1 1 0 0 0 1 0 0 0 1 59.033783989989928 23.924293580073652 11.585835839654736 1 rotate no_reflect no_shear #
lump $-1 $-1 $45 $6 #
transform $-1 1 0 0 0 1 0 0 0 1 59.033783989989928 23.924293580073652 11.585835839654736 1 rotate no_reflect no_shear #
lump $-1 $-1 $46 $7 #
transform $-1 1 0 0 0 1 0 0 0 1 59.033783989989928 23.924293580073652 11.585835839654736 1 rotate no_reflect no_shear #
lump $-1 $-1 $47 $8 #
transform $-1 1 0 0 0 1 0 0 0 1 59.033783989989928 23.924293580073652 11.585835839654736 1 rotate no_reflect no_shear #
lump $-1 $-1 $48 $9 #
transform $-1 1 0 0 0 1 0 0 0 1 59.033783989989928 23.924293580073652 11.585835839654736 1 rotate no_reflect no_shear #
lump $-1 $-1 $49 $10 #
transform $-1 1 0 0 0 1 0 0 0 1 59.033783989989928 23.924293580073652 11.585835839654736 1 rotate no_reflect no_shear #
lump $-1 $-1 $50 $11 #
transform $-1 1 0 0 0 1 0 0 0 1 59.033783989989928 23.924293580073652 11.585835839654736 1 rotate no_reflect no_shear #
lump $-1 $-1 $51 $12 #
transform $-1 1 0 0 0 1 0 0 0 1 59.033783989989928 23.924293580073652 11.585835839654736 1 rotate no_reflect no_shear #
shell $-1 $-1 $-1 $52 $-1 $13 #
shell $-1 $-1 $-1 $53 $-1 $15 #
shell $-1 $-1 $-1 $54 $-1 $17 #
shell $-1 $-1 $-1 $55 $-1 $19 #
shell $-1 $-1 $-1 $56 $-1 $21 #
shell $-1 $-1 $-1 $57 $-1 $23 #
shell $-1 $-1 $-1 $58 $-1 $25 #
shell $-1 $-1 $-1 $59 $-1 $27 #
shell $-1 $-1 $-1 $60 $-1 $29 #
shell $-1 $-1 $-1 $61 $-1 $31 #
shell $-1 $-1 $-1 $62 $-1 $33 #
shell $-1 $-1 $-1 $63 $-1 $35 #
shell $-1 $-1 $-1 $64 $-1 $37 #
face $-1 $65 $66 $39 $-1 $67 forward single #
face $-1 $68 $69 $40 $-1 $70 reversed single #
face $-1 $71 $72 $41 $-1 $73 forward single #
face $-1 $74 $75 $42 $-1 $76 forward single #
face $-1 $77 $78 $43 $-1 $79 reversed single #
face $-1 $80 $81 $44 $-1 $82 forward single #
face $-1 $83 $84 $45 $-1 $85 forward single #
face $-1 $86 $87 $46 $-1 $88 reversed single #
face $-1 $89 $90 $47 $-1 $91 forward single #
face $-1 $92 $93 $48 $-1 $94 forward single #
face $-1 $95 $96 $49 $-1 $97 reversed single #
face $-1 $98 $99 $50 $-1 $100 forward single #
face $-1 $101 $102 $51 $-1 $103 forward single #
face $-1 $104 $105 $39 $-1 $106 reversed single #
loop $-1 $-1 $107 $52 #
plane-surface $-1 0 0 11.585835839654736 0 0 1 1 0 0 forward_v I I I I #
face $-1 $108 $109 $40 $-1 $110 reversed single #
loop $-1 $-1 $111 $53 #
plane-surface $-1 -34.965000237608862 63.162520328299834 125.30168005223992 -1 0 0 0 0.64278761758704617 0.76604443648966558 forward_v I I I I #
face $-1 $112 $113 $41 $-1 $114 forward single #
loop $-1 $115 $116 $54 #
cone-surface $-1 -52.156988632166765 17.763076570690313 5.8162027541353201 0 -0.64278761758704617 -0.76604443648966558 1.5 0 0 1 I I 0 1 1.5 forward I I I I #
face $-1 $117 $118 $42 $-1 $119 forward single #
loop $-1 $120 $121 $55 #
cone-surface $-1 -41.841795595432025 17.763076570690313 5.8162027541353201 0 -0.64278761758704617 -0.76604443648966558 1.5 0 0 1 I I 0 1 1.5 forward I I I I #
face $-1 $122 $123 $43 $-1 $124 reversed single #
loop $-1 $-1 $125 $56 #
plane-surface $-1 46.999392113799388 -12.729850407848033 34.856676471310962 0 0.64278761758704617 0.76604443648966558 1 0 0 forward_v I I I I #
face $-1 $126 $127 $44 $-1 $128 forward single #
loop $-1 $129 $130 $57 #
cone-surface $-1 41.841795595432018 17.763076570690313 5.8162027541353201 0 -0.64278761758704617 -0.76604443648966558 1.5 0 0 1 I I 0 1 1.5 forward I I I I #
face $-1 $131 $132 $45 $-1 $133 forward single #
loop $-1 $134 $135 $58 #
cone-surface $-1 52.156988632166758 17.763076570690313 5.8162027541353201 0 -0.64278761758704617 -0.76604443648966558 1.5 0 0 1 I I 0 1 1.5 forward I I I I #
face $-1 $136 $137 $46 $-1 $138 reversed single #
loop $-1 $-1 $139 $59 #
plane-surface $-1 -34.965000237608862 -99.816664316221519 94.545200706662698 -1 0 0 0 -0.64278761758704617 0.76604443648966558 forward_v I I I I #
face $-1 $140 $141 $47 $-1 $142 forward single #
loop $-1 $143 $144 $60 #
cone-surface $-1 -52.156988632166765 -17.763076570690306 5.8162027541353254 0 0.64278761758704617 -0.76604443648966558 1.5 0 0 1 I I 0 1 1.5 forward I I I I #
face $-1 $145 $146 $48 $-1 $147 forward single #
loop $-1 $148 $149 $61 #
cone-surface $-1 -41.841795595432025 -17.763076570690306 5.8162027541353254 0 0.64278761758704617 -0.76604443648966558 1.5 0 0 1 I I 0 1 1.5 forward I I I I #
face $-1 $150 $151 $49 $-1 $152 reversed single #
loop $-1 $-1 $153 $62 #
plane-surface $-1 46.999392113799388 -23.924293580073652 4.1001971257337431 0 -0.64278761758704617 0.76604443648966558 1 0 0 forward_v I I I I #
face $-1 $154 $155 $50 $-1 $156 forward single #
loop $-1 $157 $158 $63 #
cone-surface $-1 41.841795595432018 -17.763076570690306 5.8162027541353254 0 0.64278761758704617 -0.76604443648966558 1.5 0 0 1 I I 0 1 1.5 forward I I I I #
face $-1 $159 $160 $51 $-1 $161 forward single #
loop $-1 $162 $163 $64 #
cone-surface $-1 52.156988632166758 -17.763076570690306 5.8162027541353254 0 0.64278761758704617 -0.76604443648966558 1.5 0 0 1 I I 0 1 1.5 forward I I I I #
face $-1 $164 $165 $39 $-1 $166 reversed single #
loop $-1 $-1 $167 $65 #
plane-surface $-1 0 0 -11.585835839654736 0 0 1 1 0 0 forward_v I I I I #
coedge $-1 $168 $169 $170 $171 forward $66 $-1 #
face $-1 $172 $173 $40 $-1 $174 reversed single #
loop $-1 $-1 $175 $68 #
plane-surface $-1 -46.999392113799395 -12.729850407848033 34.856676471310962 0 0.64278761758704617 0.76604443648966558 1 0 0 forward_v I I I I #
coedge $-1 $176 $177 $178 $179 reversed $69 $-1 #
face $-1 $-1 $180 $41 $-1 $181 forward single #
loop $-1 $182 $183 $71 #
cone-surface $-1 -52.156988632166765 15.580287169780135 3.2148556982091616 0 -0.64278761758704617 -0.76604443648966558 0.75 0 0 1 I I -0.70710678118654757 0.70710678118654757 0.75 forward I I I I #
loop $-1 $-1 $184 $54 #
coedge $-1 $116 $116 $185 $186 reversed $72 $-1 #
face $-1 $-1 $187 $42 $-1 $188 forward single #
loop $-1 $189 $190 $74 #
cone-surface $-1 -41.841795595432025 15.580287169780135 3.2148556982091616 0 -0.64278761758704617 -0.76604443648966558 0.75 0 0 1 I I -0.70710678118654757 0.70710678118654757 0.75 forward I I I I #
loop $-1 $-1 $191 $55 #
coedge $-1 $121 $121 $192 $193 reversed $75 $-1 #
face $-1 $194 $195 $43 $-1 $196 forward single #
loop $-1 $-1 $197 $77 #
plane-surface $-1 34.965000237608855 63.162520328299834 125.30168005223992 1 0 0 0 -0.64278761758704617 -0.76604443648966558 forward_v I I I I #
coedge $-1 $198 $199 $200 $201 reversed $78 $-1 #
face $-1 $-1 $202 $44 $-1 $203 forward single #
loop $-1 $204 $205 $80 #
cone-surface $-1 41.841795595432018 15.580287169780135 3.2148556982091616 0 -0.64278761758704617 -0.76604443648966558 0.75 0 0 1 I I -0.70710678118654757 0.70710678118654757 0.75 forward I I I I #
loop $-1 $-1 $206 $57 #
coedge $-1 $130 $130 $207 $208 reversed $81 $-1 #
face $-1 $-1 $209 $45 $-1 $210 forward single #
loop $-1 $211 $212 $83 #
cone-surface $-1 52.156988632166758 15.580287169780135 3.2148556982091616 0 -0.64278761758704617 -0.76604443648966558 0.75 0 0 1 I I -0.70710678118654757 0.70710678118654757 0.75 forward I I I I #
loop $-1 $-1 $213 $58 #
coedge $-1 $135 $135 $214 $215 reversed $84 $-1 #
face $-1 $216 $217 $46 $-1 $218 reversed single #
loop $-1 $-1 $219 $86 #
plane-surface $-1 -46.999392113799395 -23.924293580073652 4.1001971257337431 0 -0.64278761758704617 0.76604443648966558 1 0 0 forward_v I I I I #
coedge $-1 $220 $221 $222 $223 reversed $87 $-1 #
face $-1 $-1 $224 $47 $-1 $225 forward single #
loop $-1 $226 $227 $89 #
cone-surface $-1 -52.156988632166765 -15.580287169780128 3.2148556982091669 0 0.64278761758704617 -0.76604443648966558 0.75 0 0 1 I I -0.70710678118654757 0.70710678118654757 0.75 forward I I I I #
loop $-1 $-1 $228 $60 #
coedge $-1 $144 $144 $229 $230 reversed $90 $-1 #
face $-1 $-1 $231 $48 $-1 $232 forward single #
loop $-1 $233 $234 $92 #
cone-surface $-1 -41.841795595432025 -15.580287169780128 3.2148556982091669 0 0.64278761758704617 -0.76604443648966558 0.75 0 0 1 I I -0.70710678118654757 0.70710678118654757 0.75 forward I I I I #
loop $-1 $-1 $235 $61 #
coedge $-1 $149 $149 $236 $237 reversed $93 $-1 #
face $-1 $238 $239 $49 $-1 $240 reversed single #
loop $-1 $-1 $241 $95 #
plane-surface $-1 34.965000237608855 -99.816664316221519 94.545200706662698 1 0 0 0 0.64278761758704617 -0.76604443648966558 forward_v I I I I #
coedge $-1 $242 $243 $244 $245 reversed $96 $-1 #
face $-1 $-1 $246 $50 $-1 $247 forward single #
loop $-1 $248 $249 $98 #
cone-surface $-1 41.841795595432018 -15.580287169780128 3.2148556982091669 0 0.64278761758704617 -0.76604443648966558 0.75 0 0 1 I I -0.70710678118654757 0.70710678118654757 0.75 forward I I I I #
loop $-1 $-1 $250 $63 #
coedge $-1 $158 $158 $251 $252 reversed $99 $-1 #
face $-1 $-1 $253 $51 $-1 $254 forward single #
loop $-1 $255 $256 $101 #
cone-surface $-1 52.156988632166758 -15.580287169780128 3.2148556982091669 0 0.64278761758704617 -0.76604443648966558 0.75 0 0 1 I I -0.70710678118654757 0.70710678118654757 0.75 forward I I I I #
loop $-1 $-1 $257 $64 #
coedge $-1 $163 $163 $258 $259 reversed $102 $-1 #
face $-1 $260 $261 $39 $-1 $262 reversed single #
loop $-1 $-1 $263 $104 #
plane-surface $-1 0 -23.924293580073652 0 0 1 0 0 0 1 forward_v I I I I #
coedge $-1 $264 $265 $266 $267 forward $105 $-1 #
coedge $-1 $268 $107 $269 $270 forward $66 $-1 #
coedge $-1 $107 $268 $271 $272 forward $66 $-1 #
coedge $-1 $273 $274 $107 $171 reversed $275 $-1 #
edge $-1 $276 -23.924293580073652 $277 23.924293580073652 $170 $278 forward 7 unknown #
face $-1 $279 $280 $40 $-1 $281 forward single #
loop $-1 $-1 $178 $108 #
plane-surface $-1 0 23.924293580073652 0 0 -1 0 0 0 -1 forward_v I I I I #
coedge $-1 $282 $283 $284 $285 reversed $109 $-1 #
coedge $-1 $177 $111 $286 $287 reversed $69 $-1 #
coedge $-1 $111 $176 $282 $288 reversed $69 $-1 #
coedge $-1 $284 $289 $111 $179 forward $173 $-1 #
edge $-1 $290 51.065004186465224 $291 58.550642900386208 $178 $292 forward 7 unknown #
loop $-1 $-1 $185 $112 #
plane-surface $-1 -46.999392113799395 -12.729850407848033 34.856676471310962 0 0.64278761758704617 0.76604443648966558 1 0 0 forward_v I I I I #
loop $-1 $-1 $293 $71 #
coedge $-1 $183 $183 $184 $294 reversed $113 $-1 #
coedge $-1 $184 $184 $183 $294 forward $115 $-1 #
coedge $-1 $185 $185 $116 $186 forward $180 $-1 #
edge $-1 $295 5.5795859875484593e-016 $295 6.2831853071796013 $185 $296 forward 7 unknown #
loop $-1 $-1 $192 $117 #
plane-surface $-1 -46.999392113799395 -12.729850407848033 34.856676471310962 0 0.64278761758704617 0.76604443648966558 1 0 0 forward_v I I I I #
loop $-1 $-1 $297 $74 #
coedge $-1 $190 $190 $191 $298 reversed $118 $-1 #
coedge $-1 $191 $191 $190 $298 forward $120 $-1 #
coedge $-1 $192 $192 $121 $193 forward $187 $-1 #
edge $-1 $299 5.5795859875484593e-016 $299 6.2831853071796013 $192 $300 forward 7 unknown #
face $-1 $301 $302 $43 $-1 $303 reversed single #
loop $-1 $-1 $304 $122 #
plane-surface $-1 0 0 11.585835839654736 0 0 1 1 0 0 forward_v I I I I #
coedge $-1 $305 $306 $307 $308 reversed $123 $-1 #
coedge $-1 $309 $125 $310 $311 reversed $78 $-1 #
coedge $-1 $125 $309 $305 $312 forward $78 $-1 #
coedge $-1 $307 $313 $125 $201 forward $314 $-1 #
edge $-1 $315 -35.534087933090227 $316 -11.465304180709161 $200 $317 forward 7 unknown #
loop $-1 $-1 $207 $126 #
plane-surface $-1 46.999392113799388 -12.729850407848033 34.856676471310962 0 0.64278761758704617 0.76604443648966558 1 0 0 forward_v I I I I #
loop $-1 $-1 $318 $80 #
coedge $-1 $205 $205 $206 $319 reversed $127 $-1 #
coedge $-1 $206 $206 $205 $319 forward $129 $-1 #
coedge $-1 $207 $207 $130 $208 forward $202 $-1 #
edge $-1 $320 5.5795859875484593e-016 $320 6.2831853071796013 $207 $321 forward 7 unknown #
loop $-1 $-1 $214 $131 #
plane-surface $-1 46.999392113799388 -12.729850407848033 34.856676471310962 0 0.64278761758704617 0.76604443648966558 1 0 0 forward_v I I I I #
loop $-1 $-1 $322 $83 #
coedge $-1 $212 $212 $213 $323 reversed $132 $-1 #
coedge $-1 $213 $213 $212 $323 forward $134 $-1 #
coedge $-1 $214 $214 $135 $215 forward $209 $-1 #
edge $-1 $324 5.5795859875484593e-016 $324 6.2831853071796013 $214 $325 forward 7 unknown #
face $-1 $326 $327 $46 $-1 $328 reversed single #
loop $-1 $-1 $329 $136 #
plane-surface $-1 -59.033783989989928 0 0 1 0 0 0 0 -1 forward_v I I I I #
coedge $-1 $330 $331 $332 $333 reversed $137 $-1 #
coedge $-1 $221 $139 $334 $335 reversed $87 $-1 #
coedge $-1 $139 $220 $330 $336 reversed $87 $-1 #
coedge $-1 $332 $337 $139 $223 forward $338 $-1 #
edge $-1 $339 25.984038578037108 $340 34.905075221364001 $222 $341 forward 7 unknown #
loop $-1 $-1 $229 $140 #
plane-surface $-1 -46.999392113799395 -23.924293580073652 4.1001971257337431 0 -0.64278761758704617 0.76604443648966558 1 0 0 forward_v I I I I #
loop $-1 $-1 $342 $89 #
coedge $-1 $227 $227 $228 $343 reversed $141 $-1 #
coedge $-1 $228 $228 $227 $343 forward $143 $-1 #
coedge $-1 $229 $229 $144 $230 forward $224 $-1 #
edge $-1 $344 -8.8675935913666279e-017 $344 6.2831853071796004 $229 $345 forward 7 unknown #
loop $-1 $-1 $236 $145 #
plane-surface $-1 -46.999392113799395 -23.924293580073652 4.1001971257337431 0 -0.64278761758704617 0.76604443648966558 1 0 0 forward_v I I I I #
loop $-1 $-1 $346 $92 #
coedge $-1 $234 $234 $235 $347 reversed $146 $-1 #
coedge $-1 $235 $235 $234 $347 forward $148 $-1 #
coedge $-1 $236 $236 $149 $237 forward $231 $-1 #
edge $-1 $348 -8.8675935913666279e-017 $348 6.2831853071796004 $236 $349 forward 7 unknown #
face $-1 $350 $351 $49 $-1 $352 reversed single #
loop $-1 $-1 $353 $150 #
plane-surface $-1 0 -23.924293580073652 0 0 1 0 0 0 1 forward_v I I I I #
coedge $-1 $354 $355 $356 $357 reversed $151 $-1 #
coedge $-1 $358 $153 $359 $360 reversed $96 $-1 #
coedge $-1 $153 $358 $354 $361 forward $96 $-1 #
coedge $-1 $356 $362 $153 $245 forward $363 $-1 #
edge $-1 $364 -35.534087933090227 $365 -11.465304180709161 $244 $366 forward 7 unknown #
loop $-1 $-1 $251 $154 #
plane-surface $-1 46.999392113799388 -23.924293580073652 4.1001971257337431 0 -0.64278761758704617 0.76604443648966558 1 0 0 forward_v I I I I #
loop $-1 $-1 $367 $98 #
coedge $-1 $249 $249 $250 $368 reversed $155 $-1 #
coedge $-1 $250 $250 $249 $368 forward $157 $-1 #
coedge $-1 $251 $251 $158 $252 forward $246 $-1 #
edge $-1 $369 -8.8675935913666279e-017 $369 6.2831853071796004 $251 $370 forward 7 unknown #
loop $-1 $-1 $258 $159 #
plane-surface $-1 46.999392113799388 -23.924293580073652 4.1001971257337431 0 -0.64278761758704617 0.76604443648966558 1 0 0 forward_v I I I I #
loop $-1 $-1 $371 $101 #
coedge $-1 $256 $256 $257 $372 reversed $160 $-1 #
coedge $-1 $257 $257 $256 $372 forward $162 $-1 #
coedge $-1 $258 $258 $163 $259 forward $253 $-1 #
edge $-1 $373 -8.8675935913666279e-017 $373 6.2831853071796004 $258 $374 forward 7 unknown #
face $-1 $375 $376 $39 $-1 $377 reversed single #
loop $-1 $-1 $378 $164 #
plane-surface $-1 -59.033783989989928 0 0 1 0 0 0 0 -1 forward_v I I I I #
coedge $-1 $379 $271 $380 $381 forward $165 $-1 #
coedge $-1 $382 $167 $379 $383 forward $105 $-1 #
coedge $-1 $167 $382 $384 $385 forward $105 $-1 #
coedge $-1 $274 $273 $167 $267 reversed $275 $-1 #
edge $-1 $386 -23.924293580073652 $387 23.924293580073652 $266 $388 forward 7 unknown #
coedge $-1 $169 $168 $389 $390 forward $66 $-1 #
coedge $-1 $391 $392 $168 $270 reversed $376 $-1 #
edge $-1 $277 -59.033783989989928 $393 59.033783989989928 $269 $394 forward 7 unknown #
coedge $-1 $263 $395 $169 $272 reversed $165 $-1 #
edge $-1 $396 -59.033783989989928 $276 59.033783989989928 $271 $397 forward 7 unknown #
coedge $-1 $266 $170 $395 $398 forward $275 $-1 #
coedge $-1 $170 $266 $391 $399 reversed $275 $-1 #
loop $-1 $-1 $273 $375 #
vertex $-1 $171 $400 #
vertex $-1 $171 $401 #
straight-curve $-1 59.033783989989928 0 11.585835839654736 0 1 0 I I #
face $-1 $-1 $402 $40 $-1 $403 reversed single #
loop $-1 $-1 $286 $172 #
plane-surface $-1 0 0 11.585835839654736 0 0 1 1 0 0 forward_v I I I I #
coedge $-1 $404 $175 $177 $288 forward $109 $-1 #
coedge $-1 $175 $404 $405 $406 reversed $109 $-1 #
coedge $-1 $407 $178 $175 $285 forward $173 $-1 #
edge $-1 $291 11.465304180709165 $408 35.534087933090234 $284 $409 forward 7 unknown #
coedge $-1 $410 $411 $176 $287 forward $280 $-1 #
edge $-1 $412 -16.578003227403144 $290 -7.6569665840762653 $286 $413 forward 7 unknown #
edge $-1 $291 -47.848587160147297 $412 -36.203000796767675 $177 $414 forward 7 unknown #
coedge $-1 $178 $407 $410 $415 reversed $173 $-1 #
vertex $-1 $415 $416 #
vertex $-1 $179 $417 #
straight-curve $-1 -34.965000237608862 23.924293580073652 62.650840026119958 0 0 -1 I I #
coedge $-1 $293 $293 $-1 $418 reversed $182 $-1 #
edge $-1 $419 0 $419 6.2831853071796004 $183 $420 forward 7 unknown #
vertex $-1 $186 $421 #
ellipse-curve $-1 -52.156988632166765 19.463775258410216 7.8430164826942406 0 0.64278761758704617 0.76604443648966558 1.5 0 0 1 I I #
coedge $-1 $297 $297 $-1 $422 reversed $189 $-1 #
edge $-1 $423 0 $423 6.2831853071796004 $190 $424 forward 7 unknown #
vertex $-1 $193 $425 #
ellipse-curve $-1 -41.841795595432025 19.463775258410216 7.8430164826942406 0 0.64278761758704617 0.76604443648966558 1.5 0 0 1 I I #
face $-1 $-1 $314 $43 $-1 $426 reversed single #
loop $-1 $-1 $310 $194 #
plane-surface $-1 59.033783989989928 0 0 -1 0 0 0 0 1 forward_v I I I I #
coedge $-1 $427 $428 $306 $429 forward $195 $-1 #
coedge $-1 $306 $197 $199 $312 reversed $123 $-1 #
coedge $-1 $197 $305 $304 $429 reversed $123 $-1 #
coedge $-1 $430 $200 $197 $308 forward $314 $-1 #
edge $-1 $316 -58.550642900386208 $431 -51.065004186465224 $307 $432 forward 7 unknown #
coedge $-1 $199 $198 $427 $433 reversed $78 $-1 #
coedge $-1 $434 $435 $198 $311 forward $302 $-1 #
edge $-1 $436 20.12446524263062 $315 31.770051606010249 $310 $437 forward 7 unknown #
edge $-1 $438 36.203000796767675 $316 47.848587160147297 $305 $439 forward 7 unknown #
coedge $-1 $200 $430 $434 $440 forward $314 $-1 #
loop $-1 $-1 $307 $301 #
vertex $-1 $311 $441 #
vertex $-1 $201 $442 #
straight-curve $-1 23.499696056899694 23.924293580073648 4.1001971257337519 -1 0 0 I I #
coedge $-1 $318 $318 $-1 $443 reversed $204 $-1 #
edge $-1 $444 0 $444 6.2831853071796004 $205 $445 forward 7 unknown #
vertex $-1 $208 $446 #
ellipse-curve $-1 41.841795595432018 19.463775258410216 7.8430164826942406 0 0.64278761758704617 0.76604443648966558 1.5 0 0 1 I I #
coedge $-1 $322 $322 $-1 $447 reversed $211 $-1 #
edge $-1 $448 0 $448 6.2831853071796004 $212 $449 forward 7 unknown #
vertex $-1 $215 $450 #
ellipse-curve $-1 52.156988632166758 19.463775258410216 7.8430164826942406 0 0.64278761758704617 0.76604443648966558 1.5 0 0 1 I I #
face $-1 $-1 $338 $46 $-1 $451 forward single #
loop $-1 $-1 $452 $216 #
plane-surface $-1 0 -23.924293580073652 0 0 1 0 0 0 1 forward_v I I I I #
coedge $-1 $453 $454 $331 $455 forward $217 $-1 #
coedge $-1 $456 $219 $221 $336 forward $137 $-1 #
coedge $-1 $219 $456 $329 $455 reversed $137 $-1 #
coedge $-1 $457 $222 $219 $333 forward $338 $-1 #
edge $-1 $340 11.465304180709165 $458 35.534087933090234 $332 $459 forward 7 unknown #
coedge $-1 $460 $452 $220 $335 forward $327 $-1 #
edge $-1 $461 -43.172403227597606 $339 -35.686764513676614 $334 $462 forward 7 unknown #
edge $-1 $340 -11.645586363379643 $461 0 $221 $463 forward 7 unknown #
coedge $-1 $222 $457 $460 $464 forward $338 $-1 #
loop $-1 $-1 $332 $326 #
vertex $-1 $335 $465 #
vertex $-1 $223 $466 #
straight-curve $-1 -34.965000237608862 -49.90833215811076 11.585835839654735 0 1 0 I I #
coedge $-1 $342 $342 $-1 $467 reversed $226 $-1 #
edge $-1 $468 0 $468 6.2831853071796004 $227 $469 forward 7 unknown #
vertex $-1 $230 $470 #
ellipse-curve $-1 -52.156988632166765 -19.463775258410205 7.8430164826942406 0 -0.64278761758704617 0.76604443648966558 1.5 0 0 1 I I #
coedge $-1 $346 $346 $-1 $471 reversed $233 $-1 #
edge $-1 $472 0 $472 6.2831853071796004 $234 $473 forward 7 unknown #
vertex $-1 $237 $474 #
ellipse-curve $-1 -41.841795595432025 -19.463775258410205 7.8430164826942406 0 -0.64278761758704617 0.76604443648966558 1.5 0 0 1 I I #
face $-1 $-1 $363 $49 $-1 $475 forward single #
loop $-1 $-1 $359 $238 #
plane-surface $-1 59.033783989989928 0 0 -1 0 0 0 0 1 forward_v I I I I #
coedge $-1 $476 $477 $355 $478 forward $239 $-1 #
coedge $-1 $355 $241 $243 $361 reversed $151 $-1 #
coedge $-1 $241 $354 $353 $478 reversed $151 $-1 #
coedge $-1 $479 $244 $241 $357 forward $363 $-1 #
edge $-1 $365 -34.905075221364001 $480 -25.984038578037108 $356 $481 forward 7 unknown #
coedge $-1 $243 $242 $476 $482 reversed $96 $-1 #
coedge $-1 $483 $484 $242 $360 forward $351 $-1 #
edge $-1 $485 -7.8457580259366004 $364 3.799828337443043 $359 $486 forward 7 unknown #
edge $-1 $487 0 $365 11.645586363379643 $354 $488 forward 7 unknown #
coedge $-1 $244 $479 $483 $489 forward $363 $-1 #
loop $-1 $-1 $356 $350 #
vertex $-1 $360 $490 #
vertex $-1 $245 $491 #
straight-curve $-1 23.499696056899694 -15.003256936746761 11.585835839654736 -1 0 0 I I #
coedge $-1 $367 $367 $-1 $492 reversed $248 $-1 #
edge $-1 $493 0 $493 6.2831853071796004 $249 $494 forward 7 unknown #
vertex $-1 $252 $495 #
ellipse-curve $-1 41.841795595432018 -19.463775258410205 7.8430164826942406 0 -0.64278761758704617 0.76604443648966558 1.5 0 0 1 I I #
coedge $-1 $371 $371 $-1 $496 reversed $255 $-1 #
edge $-1 $497 0 $497 6.2831853071796004 $256 $498 forward 7 unknown #
vertex $-1 $259 $499 #
ellipse-curve $-1 52.156988632166758 -19.463775258410205 7.8430164826942406 0 -0.64278761758704617 0.76604443648966558 1.5 0 0 1 I I #
face $-1 $-1 $275 $39 $-1 $500 reversed single #
loop $-1 $-1 $391 $260 #
plane-surface $-1 0 23.924293580073652 0 0 -1 0 0 0 -1 forward_v I I I I #
coedge $-1 $501 $389 $392 $502 forward $261 $-1 #
coedge $-1 $395 $263 $264 $383 reversed $165 $-1 #
coedge $-1 $389 $501 $263 $381 reversed $261 $-1 #
edge $-1 $396 -11.585835839654736 $503 11.585835839654736 $380 $504 forward 7 unknown #
coedge $-1 $265 $264 $501 $505 forward $105 $-1 #
edge $-1 $387 -59.033783989989928 $503 59.033783989989928 $379 $506 forward 7 unknown #
coedge $-1 $392 $391 $265 $385 reversed $376 $-1 #
edge $-1 $507 -59.033783989989928 $386 59.033783989989928 $384 $508 forward 7 unknown #
vertex $-1 $267 $509 #
vertex $-1 $398 $510 #
straight-curve $-1 59.033783989989928 0 -11.585835839654736 0 -1 0 I I #
coedge $-1 $378 $380 $268 $390 reversed $261 $-1 #
edge $-1 $393 -23.924293580073652 $396 23.924293580073652 $389 $511 forward 7 unknown #
coedge $-1 $384 $269 $274 $399 forward $376 $-1 #
coedge $-1 $269 $384 $378 $502 reversed $376 $-1 #
vertex $-1 $270 $512 #
straight-curve $-1 0 23.924293580073652 11.585835839654736 -1 0 0 I I #
coedge $-1 $271 $379 $273 $398 reversed $165 $-1 #
vertex $-1 $390 $513 #
straight-curve $-1 0 -23.924293580073652 11.585835839654736 1 0 0 I I #
edge $-1 $276 -11.585835839654736 $387 11.585835839654736 $273 $514 forward 7 unknown #
edge $-1 $277 -11.585835839654736 $386 11.585835839654736 $274 $515 forward 7 unknown #
point $-1 59.033783989989928 -23.924293580073652 11.585835839654736 #
point $-1 59.033783989989928 23.924293580073652 11.585835839654736 #
loop $-1 $-1 $405 $279 #
plane-surface $-1 -59.033783989989928 0 0 1 0 0 0 0 -1 forward_v I I I I #
coedge $-1 $283 $282 $411 $516 reversed $109 $-1 #
coedge $-1 $517 $518 $283 $406 forward $402 $-1 #
edge $-1 $408 -31.770051606010249 $519 -20.12446524263062 $405 $520 forward 7 unknown #
coedge $-1 $289 $284 $518 $521 reversed $173 $-1 #
vertex $-1 $285 $522 #
straight-curve $-1 -23.499696056899698 23.924293580073648 4.1001971257337519 -1 0 0 I I #
coedge $-1 $523 $286 $289 $415 forward $280 $-1 #
coedge $-1 $286 $523 $404 $516 forward $280 $-1 #
vertex $-1 $287 $524 #
straight-curve $-1 -34.965000237608862 31.581260164149917 11.585835839654735 0 1 0 I I #
straight-curve $-1 -34.965000237608862 -12.729850407848033 34.856676471310962 0 -0.76604443648966558 0.64278761758704617 I I #
edge $-1 $290 34.965000237608862 $525 59.033783989989928 $289 $526 forward 7 unknown #
point $-1 -34.965000237608862 23.924293580073652 11.585835839654736 #
point $-1 -34.965000237608862 23.924293580073652 4.1001971257337537 #
edge $-1 $527 1 $527 0 $293 $-1 forward 7 unknown #
vertex $-1 $294 $528 #
ellipse-curve $-1 -52.156988632166765 16.06237788297042 3.7893890255764107 0 0.64278761758704617 0.76604443648966558 1.5 0 0 1 I I #
point $-1 -50.656988632166765 19.463775258410209 7.8430164826942308 #
edge $-1 $529 1 $529 0 $297 $-1 forward 7 unknown #
vertex $-1 $298 $530 #
ellipse-curve $-1 -41.841795595432025 16.06237788297042 3.7893890255764107 0 0.64278761758704617 0.76604443648966558 1.5 0 0 1 I I #
point $-1 -40.341795595432025 19.463775258410209 7.8430164826942308 #
plane-surface $-1 0 23.924293580073652 0 0 -1 0 0 0 -1 forward_v I I I I #
coedge $-1 $531 $304 $309 $433 forward $195 $-1 #
coedge $-1 $304 $531 $430 $532 forward $195 $-1 #
edge $-1 $431 7.6569665840762653 $438 16.578003227403144 $304 $533 forward 7 unknown #
coedge $-1 $313 $307 $428 $532 reversed $314 $-1 #
vertex $-1 $308 $534 #
straight-curve $-1 34.965000237608855 23.924293580073652 62.650840026119958 0 0 1 I I #
edge $-1 $438 11.465304180709161 $436 35.534087933090227 $427 $535 forward 7 unknown #
coedge $-1 $435 $310 $313 $440 reversed $302 $-1 #
coedge $-1 $310 $434 $531 $536 reversed $302 $-1 #
vertex $-1 $536 $537 #
straight-curve $-1 59.033783989989928 -0.41297769970006115 24.52159290817859 0 0.76604443648966558 -0.64278761758704617 I I #
vertex $-1 $433 $538 #
straight-curve $-1 34.965000237608855 -12.729850407848033 34.856676471310962 0 0.76604443648966558 -0.64278761758704617 I I #
edge $-1 $539 -11.585835839654736 $315 -4.1001971257337537 $434 $540 forward 7 unknown #
point $-1 59.033783989989921 23.924293580073652 4.1001971257337537 #
point $-1 34.965000237608855 23.924293580073652 4.1001971257337537 #
edge $-1 $541 1 $541 0 $318 $-1 forward 7 unknown #
vertex $-1 $319 $542 #
ellipse-curve $-1 41.841795595432018 16.06237788297042 3.7893890255764107 0 0.64278761758704617 0.76604443648966558 1.5 0 0 1 I I #
point $-1 43.341795595432018 19.463775258410209 7.8430164826942308 #
edge $-1 $543 1 $543 0 $322 $-1 forward 7 unknown #
vertex $-1 $323 $544 #
ellipse-curve $-1 52.156988632166758 16.06237788297042 3.7893890255764107 0 0.64278761758704617 0.76604443648966558 1.5 0 0 1 I I #
point $-1 53.656988632166758 19.463775258410209 7.8430164826942308 #
plane-surface $-1 0 0 11.585835839654736 0 0 1 1 0 0 forward_v I I I I #
coedge $-1 $334 $545 $456 $546 forward $327 $-1 #
coedge $-1 $454 $329 $545 $547 reversed $217 $-1 #
coedge $-1 $329 $453 $457 $548 reversed $217 $-1 #
edge $-1 $458 -3.799828337443043 $549 7.8457580259366004 $329 $550 forward 7 unknown #
coedge $-1 $331 $330 $452 $546 reversed $137 $-1 #
coedge $-1 $337 $332 $454 $548 forward $338 $-1 #
vertex $-1 $548 $551 #
straight-curve $-1 -23.499696056899698 -15.003256936746761 11.585835839654736 -1 0 0 I I #
coedge $-1 $545 $334 $337 $464 reversed $327 $-1 #
vertex $-1 $335 $552 #
straight-curve $-1 -34.965000237608862 -23.924293580073652 47.272600353331349 0 0 1 I I #
straight-curve $-1 -34.965000237608862 -23.924293580073652 4.1001971257337431 0 -0.76604443648966558 -0.64278761758704617 I I #
edge $-1 $553 -59.033783989989928 $339 -34.965000237608862 $460 $554 forward 7 unknown #
point $-1 -34.965000237608862 -23.924293580073652 11.585835839654736 #
point $-1 -34.965000237608862 -15.003256936746759 11.585835839654736 #
edge $-1 $555 1 $555 0 $342 $-1 forward 7 unknown #
vertex $-1 $343 $556 #
ellipse-curve $-1 -52.156988632166765 -16.062377882970413 3.789389025576416 0 -0.64278761758704617 0.76604443648966558 1.5 0 0 1 I I #
point $-1 -50.656988632166765 -19.463775258410202 7.8430164826942361 #
edge $-1 $557 1 $557 0 $346 $-1 forward 7 unknown #
vertex $-1 $347 $558 #
ellipse-curve $-1 -41.841795595432025 -16.062377882970413 3.789389025576416 0 -0.64278761758704617 0.76604443648966558 1.5 0 0 1 I I #
point $-1 -40.341795595432025 -19.463775258410202 7.8430164826942361 #
plane-surface $-1 0 0 11.585835839654736 0 0 1 1 0 0 forward_v I I I I #
coedge $-1 $559 $353 $358 $482 forward $239 $-1 #
coedge $-1 $353 $559 $479 $560 reversed $239 $-1 #
edge $-1 $480 35.686764513676614 $487 43.172403227597606 $353 $561 forward 7 unknown #
coedge $-1 $362 $356 $477 $560 forward $363 $-1 #
vertex $-1 $560 $562 #
straight-curve $-1 34.965000237608855 -49.90833215811076 11.585835839654735 0 -1 0 I I #
edge $-1 $487 11.465304180709161 $485 35.534087933090227 $476 $563 forward 7 unknown #
coedge $-1 $484 $359 $362 $489 reversed $351 $-1 #
coedge $-1 $359 $483 $559 $564 forward $351 $-1 #
vertex $-1 $360 $565 #
straight-curve $-1 59.033783989989928 -17.914094294260778 9.1433532353899771 0 0.76604443648966558 0.64278761758704617 I I #
vertex $-1 $482 $566 #
straight-curve $-1 34.965000237608855 -23.924293580073652 4.1001971257337431 0 0.76604443648966558 0.64278761758704617 I I #
edge $-1 $567 -23.924293580073652 $364 -15.003256936746759 $483 $568 forward 7 unknown #
point $-1 59.033783989989921 -15.003256936746759 11.585835839654736 #
point $-1 34.965000237608855 -15.003256936746759 11.585835839654736 #
edge $-1 $569 1 $569 0 $367 $-1 forward 7 unknown #
vertex $-1 $368 $570 #
ellipse-curve $-1 41.841795595432018 -16.062377882970413 3.789389025576416 0 -0.64278761758704617 0.76604443648966558 1.5 0 0 1 I I #
point $-1 43.341795595432018 -19.463775258410202 7.8430164826942361 #
edge $-1 $571 1 $571 0 $371 $-1 forward 7 unknown #
vertex $-1 $372 $572 #
ellipse-curve $-1 52.156988632166758 -16.062377882970413 3.789389025576416 0 -0.64278761758704617 0.76604443648966558 1.5 0 0 1 I I #
point $-1 53.656988632166758 -19.463775258410202 7.8430164826942361 #
plane-surface $-1 59.033783989989928 0 0 -1 0 0 0 0 1 forward_v I I I I #
coedge $-1 $380 $378 $382 $505 reversed $261 $-1 #
edge $-1 $393 -11.585835839654736 $507 11.585835839654736 $392 $573 forward 7 unknown #
vertex $-1 $505 $574 #
straight-curve $-1 -59.033783989989928 -23.924293580073652 0 0 0 -1 I I #
edge $-1 $503 -23.924293580073652 $507 23.924293580073652 $501 $575 forward 7 unknown #
straight-curve $-1 0 -23.924293580073652 -11.585835839654736 -1 0 0 I I #
vertex $-1 $385 $576 #
straight-curve $-1 0 23.924293580073652 -11.585835839654736 1 0 0 I I #
point $-1 59.033783989989928 23.924293580073652 -11.585835839654736 #
point $-1 59.033783989989928 -23.924293580073652 -11.585835839654736 #
straight-curve $-1 -59.033783989989928 0 11.585835839654736 0 -1 0 I I #
point $-1 -59.033783989989928 23.924293580073652 11.585835839654736 #
point $-1 -59.033783989989928 -23.924293580073652 11.585835839654736 #
straight-curve $-1 59.033783989989928 -23.924293580073652 0 0 0 -1 I I #
straight-curve $-1 59.033783989989928 23.924293580073652 0 0 0 -1 I I #
edge $-1 $519 -35.534087933090234 $412 -11.465304180709165 $411 $577 forward 7 unknown #
coedge $-1 $518 $405 $523 $578 reversed $402 $-1 #
coedge $-1 $405 $517 $407 $521 forward $402 $-1 #
vertex $-1 $406 $579 #
straight-curve $-1 -59.033783989989928 -0.41297769970006115 24.52159290817859 0 -0.76604443648966558 0.64278761758704617 I I #
edge $-1 $525 -11.585835839654736 $408 -4.1001971257337493 $407 $580 forward 7 unknown #
point $-1 -59.033783989989928 23.924293580073652 4.1001971257337493 #
coedge $-1 $411 $410 $517 $578 forward $280 $-1 #
point $-1 -34.965000237608862 15.003256936746773 11.585835839654735 #
vertex $-1 $415 $581 #
straight-curve $-1 0 23.924293580073652 11.585835839654736 -1 0 0 I I #
vertex $-1 $418 $582 #
point $-1 -50.656988632166765 16.06237788297042 3.7893890255764107 #
vertex $-1 $422 $583 #
point $-1 -40.341795595432025 16.06237788297042 3.7893890255764107 #
coedge $-1 $428 $427 $435 $536 forward $195 $-1 #
edge $-1 $539 -59.033783989989928 $431 -34.965000237608855 $430 $584 forward 7 unknown #
straight-curve $-1 34.965000237608855 31.581260164149917 11.585835839654735 0 -1 0 I I #
point $-1 34.965000237608855 23.924293580073652 11.585835839654736 #
straight-curve $-1 23.499696056899694 15.003256936746773 11.585835839654738 1 0 0 I I #
edge $-1 $436 15.003256936746773 $539 23.924293580073652 $435 $585 forward 7 unknown #
point $-1 59.033783989989921 15.003256936746773 11.585835839654735 #
point $-1 34.965000237608855 15.003256936746773 11.585835839654735 #
vertex $-1 $536 $586 #
straight-curve $-1 59.033783989989928 23.924293580073652 0 0 0 -1 I I #
vertex $-1 $443 $587 #
point $-1 43.341795595432018 16.06237788297042 3.7893890255764107 #
vertex $-1 $447 $588 #
point $-1 53.656988632166758 16.06237788297042 3.7893890255764107 #
coedge $-1 $452 $460 $453 $547 forward $327 $-1 #
edge $-1 $549 -35.534087933090234 $461 -11.465304180709165 $452 $589 forward 7 unknown #
edge $-1 $553 -11.585835839654736 $549 -4.1001971257337431 $453 $590 forward 7 unknown #
edge $-1 $458 15.003256936746759 $553 23.924293580073652 $454 $591 forward 7 unknown #
vertex $-1 $546 $592 #
straight-curve $-1 -59.033783989989928 -17.914094294260778 9.1433532353899771 0 -0.76604443648966558 -0.64278761758704617 I I #
point $-1 -59.033783989989928 -15.003256936746759 11.585835839654736 #
point $-1 -34.965000237608862 -23.924293580073652 4.1001971257337431 #
vertex $-1 $548 $593 #
straight-curve $-1 0 -23.924293580073652 11.585835839654736 1 0 0 I I #
vertex $-1 $467 $594 #
point $-1 -50.656988632166765 -16.062377882970413 3.789389025576416 #
vertex $-1 $471 $595 #
point $-1 -40.341795595432025 -16.062377882970413 3.789389025576416 #
coedge $-1 $477 $476 $484 $564 reversed $239 $-1 #
edge $-1 $480 34.965000237608855 $567 59.033783989989928 $477 $596 forward 7 unknown #
straight-curve $-1 34.965000237608855 -23.924293580073652 47.272600353331349 0 0 -1 I I #
point $-1 34.965000237608855 -23.924293580073652 11.585835839654736 #
straight-curve $-1 23.499696056899694 -23.924293580073652 4.1001971257337431 1 0 0 I I #
edge $-1 $567 -11.585835839654736 $485 -4.1001971257337431 $484 $597 forward 7 unknown #
point $-1 59.033783989989921 -23.924293580073652 4.1001971257337431 #
point $-1 34.965000237608855 -23.924293580073652 4.1001971257337431 #
vertex $-1 $489 $598 #
straight-curve $-1 59.033783989989928 0 11.585835839654736 0 1 0 I I #
vertex $-1 $492 $599 #
point $-1 43.341795595432018 -16.062377882970413 3.789389025576416 #
vertex $-1 $496 $600 #
point $-1 53.656988632166758 -16.062377882970413 3.789389025576416 #
straight-curve $-1 -59.033783989989928 23.924293580073652 0 0 0 -1 I I #
point $-1 -59.033783989989928 -23.924293580073652 -11.585835839654736 #
straight-curve $-1 -59.033783989989928 0 -11.585835839654736 0 1 0 I I #
point $-1 -59.033783989989928 23.924293580073652 -11.585835839654736 #
straight-curve $-1 -23.499696056899698 15.003256936746773 11.585835839654738 1 0 0 I I #
edge $-1 $525 -23.924293580073652 $519 -15.003256936746773 $517 $601 forward 7 unknown #
point $-1 -59.033783989989928 15.003256936746773 11.585835839654735 #
straight-curve $-1 -59.033783989989928 23.924293580073652 0 0 0 -1 I I #
point $-1 -59.033783989989928 23.924293580073652 11.585835839654736 #
point $-1 -52.156988632166765 15.09819645658985 2.6403223708419126 #
point $-1 -41.841795595432025 15.09819645658985 2.6403223708419126 #
straight-curve $-1 0 23.924293580073652 11.585835839654736 -1 0 0 I I #
straight-curve $-1 59.033783989989928 0 11.585835839654736 0 1 0 I I #
point $-1 59.033783989989928 23.924293580073652 11.585835839654736 #
point $-1 41.841795595432018 15.09819645658985 2.6403223708419126 #
point $-1 52.156988632166758 15.09819645658985 2.6403223708419126 #
straight-curve $-1 -23.499696056899698 -23.924293580073652 4.1001971257337431 1 0 0 I I #
straight-curve $-1 -59.033783989989928 -23.924293580073652 0 0 0 -1 I I #
straight-curve $-1 -59.033783989989928 0 11.585835839654736 0 -1 0 I I #
point $-1 -59.033783989989928 -23.924293580073652 4.1001971257337431 #
point $-1 -59.033783989989928 -23.924293580073652 11.585835839654736 #
point $-1 -52.156988632166765 -15.098196456589843 2.6403223708419179 #
point $-1 -41.841795595432025 -15.098196456589843 2.6403223708419179 #
straight-curve $-1 0 -23.924293580073652 11.585835839654736 1 0 0 I I #
straight-curve $-1 59.033783989989928 -23.924293580073652 0 0 0 -1 I I #
point $-1 59.033783989989928 -23.924293580073652 11.585835839654736 #
point $-1 41.841795595432018 -15.098196456589843 2.6403223708419179 #
point $-1 52.156988632166758 -15.098196456589843 2.6403223708419179 #
straight-curve $-1 -59.033783989989928 0 11.585835839654736 0 -1 0 I I #
End-of-ACIS-data 