500 0 14 0           
7 Unknown 11 ACIS 5.0 NT 24 Thu Mar 25 23:19:08 1999 
-1 9.9999999999999995e-007 1e-010 
body $-1 $14 $-1 $15 #
body $-1 $16 $-1 $17 #
body $-1 $18 $-1 $19 #
body $-1 $20 $-1 $21 #
body $-1 $22 $-1 $23 #
body $-1 $24 $-1 $25 #
body $-1 $26 $-1 $27 #
body $-1 $28 $-1 $29 #
body $-1 $30 $-1 $31 #
body $-1 $32 $-1 $33 #
body $-1 $34 $-1 $35 #
body $-1 $36 $-1 $37 #
body $-1 $38 $-1 $39 #
body $-1 $40 $-1 $41 #
lump $-1 $-1 $42 $0 #
transform $-1 1 0 0 0 1 0 0 0 1 79.908444471572011 35.472160097222748 16.979372388222608 1 rotate no_reflect no_shear #
lump $-1 $-1 $43 $1 #
transform $-1 1 0 0 0 1 0 0 0 1 79.908444471572011 35.472160097222748 16.979372388222608 1 rotate no_reflect no_shear #
lump $-1 $-1 $44 $2 #
transform $-1 1 0 0 0 1 0 0 0 1 79.908444471572011 35.472160097222748 16.979372388222608 1 rotate no_reflect no_shear #
lump $-1 $-1 $45 $3 #
transform $-1 1 0 0 0 1 0 0 0 1 79.908444471572011 35.472160097222748 16.979372388222608 1 rotate no_reflect no_shear #
lump $-1 $-1 $46 $4 #
transform $-1 1 0 0 0 1 0 0 0 1 79.908444471572011 35.472160097222748 16.979372388222608 1 rotate no_reflect no_shear #
lump $-1 $-1 $47 $5 #
transform $-1 1 0 0 0 1 0 0 0 1 79.908444471572011 35.472160097222748 16.979372388222608 1 rotate no_reflect no_shear #
lump $-1 $-1 $48 $6 #
transform $-1 1 0 0 0 1 0 0 0 1 79.908444471572011 35.472160097222748 16.979372388222608 1 rotate no_reflect no_shear #
lump $-1 $-1 $49 $7 #
transform $-1 1 0 0 0 1 0 0 0 1 79.908444471572011 35.472160097222748 16.979372388222608 1 rotate no_reflect no_shear #
lump $-1 $-1 $50 $8 #
transform $-1 1 0 0 0 1 0 0 0 1 79.908444471572011 35.472160097222748 16.979372388222608 1 rotate no_reflect no_shear #
lump $-1 $-1 $51 $9 #
transform $-1 1 0 0 0 1 0 0 0 1 79.908444471572011 35.472160097222748 16.979372388222608 1 rotate no_reflect no_shear #
lump $-1 $-1 $52 $10 #
transform $-1 1 0 0 0 1 0 0 0 1 79.908444471572011 35.472160097222748 16.979372388222608 1 rotate no_reflect no_shear #
lump $-1 $-1 $53 $11 #
transform $-1 1 0 0 0 1 0 0 0 1 79.908444471572011 35.472160097222748 16.979372388222608 1 rotate no_reflect no_shear #
lump $-1 $-1 $54 $12 #
transform $-1 1 0 0 0 1 0 0 0 1 79.908444471572011 35.472160097222748 16.979372388222608 1 rotate no_reflect no_shear #
lump $-1 $-1 $55 $13 #
transform $-1 1 0 0 0 1 0 0 0 1 79.908444471572011 35.472160097222748 16.979372388222608 1 rotate no_reflect no_shear #
shell $-1 $-1 $-1 $56 $-1 $14 #
shell $-1 $-1 $-1 $57 $-1 $16 #
shell $-1 $-1 $-1 $58 $-1 $18 #
shell $-1 $-1 $-1 $59 $-1 $20 #
shell $-1 $-1 $-1 $60 $-1 $22 #
shell $-1 $-1 $-1 $61 $-1 $24 #
shell $-1 $-1 $-1 $62 $-1 $26 #
shell $-1 $-1 $-1 $63 $-1 $28 #
shell $-1 $-1 $-1 $64 $-1 $30 #
shell $-1 $-1 $-1 $65 $-1 $32 #
shell $-1 $-1 $-1 $66 $-1 $34 #
shell $-1 $-1 $-1 $67 $-1 $36 #
shell $-1 $-1 $-1 $68 $-1 $38 #
shell $-1 $-1 $-1 $69 $-1 $40 #
face $-1 $70 $71 $42 $-1 $72 forward single #
face $-1 $73 $74 $43 $-1 $75 reversed single #
face $-1 $76 $77 $44 $-1 $78 reversed single #
face $-1 $79 $80 $45 $-1 $81 forward single #
face $-1 $82 $83 $46 $-1 $84 forward single #
face $-1 $85 $86 $47 $-1 $87 forward single #
face $-1 $88 $89 $48 $-1 $90 reversed single #
face $-1 $91 $92 $49 $-1 $93 forward single #
face $-1 $94 $95 $50 $-1 $96 forward single #
face $-1 $97 $98 $51 $-1 $99 forward single #
face $-1 $100 $101 $52 $-1 $102 reversed single #
face $-1 $103 $104 $53 $-1 $105 forward single #
face $-1 $106 $107 $54 $-1 $108 forward single #
face $-1 $109 $110 $55 $-1 $111 forward single #
face $-1 $112 $113 $42 $-1 $114 reversed single #
loop $-1 $-1 $115 $56 #
plane-surface $-1 0 0 16.979372388222608 0 0 1 1 0 0 forward_v I I I I #
face $-1 $116 $117 $43 $-1 $118 reversed single #
loop $-1 $-1 $119 $57 #
plane-surface $-1 -75.938369043477664 -19.409343215846675 0 0 -1 0 0 0 -1 forward_v I I I I #
face $-1 $120 $121 $44 $-1 $122 reversed single #
loop $-1 $-1 $123 $58 #
plane-surface $-1 -212.40265142466211 21.067095060436262 96.34812863703732 0 1 0 -0.82903758062907751 0 0.55919289150049634 forward_v I I I I #
face $-1 $124 $125 $45 $-1 $126 forward single #
loop $-1 $127 $128 $59 #
cone-surface $-1 -76.121480334708707 23.238586497659902 11.699919947514502 0.82903758062907751 0 -0.55919289150049634 0.27959644575024817 0 0.41451879031453875 1 I I 0 1 0.5 forward I I I I #
face $-1 $129 $130 $46 $-1 $131 forward single #
loop $-1 $132 $133 $60 #
cone-surface $-1 -76.121480334708707 26.495823653495371 11.699919947514502 0.82903758062907751 0 -0.55919289150049634 0.27959644575024817 0 0.41451879031453875 1 I I 0 1 0.5 forward I I I I #
face $-1 $134 $135 $47 $-1 $136 forward single #
loop $-1 $137 $138 $61 #
cone-surface $-1 -76.121480334708707 29.75306080933084 11.699919947514502 0.82903758062907751 0 -0.55919289150049634 0.27959644575024817 0 0.41451879031453875 1 I I 0 1 0.5 forward I I I I #
face $-1 $139 $140 $48 $-1 $141 reversed single #
loop $-1 $-1 $142 $62 #
plane-surface $-1 119.15557728894146 -10.652901318626137 227.07735517830758 0 -1 0 -0.81915205242281985 0 -0.57357642473473569 forward_v I I I I #
face $-1 $143 $144 $49 $-1 $145 forward single #
loop $-1 $146 $147 $63 #
cone-surface $-1 75.128330820392279 -15.668158600547123 10.450809389976142 -0.81915205242281985 0 -0.57357642473473569 0.28678821236736785 0 -0.40957602621140993 1 I I 0 1 0.5 forward I I I I #
face $-1 $148 $149 $50 $-1 $150 forward single #
loop $-1 $151 $152 $64 #
cone-surface $-1 75.128330820392279 -13.787437119826752 10.450809389976142 -0.81915205242281985 0 -0.57357642473473569 0.28678821236736785 0 -0.40957602621140993 1 I I 0 1 0.5 forward I I I I #
face $-1 $153 $154 $51 $-1 $155 forward single #
loop $-1 $156 $157 $65 #
cone-surface $-1 75.128330820392279 -11.90671563910638 10.450809389976142 -0.81915205242281985 0 -0.57357642473473569 0.28678821236736785 0 -0.40957602621140993 1 I I 0 1 0.5 forward I I I I #
face $-1 $158 $159 $52 $-1 $160 reversed single #
loop $-1 $-1 $161 $66 #
plane-surface $-1 119.15557728894146 16.78785033790858 227.07735517830758 0 -1 0 -0.81915205242281985 0 -0.57357642473473569 forward_v I I I I #
face $-1 $162 $163 $53 $-1 $164 forward single #
loop $-1 $165 $166 $67 #
cone-surface $-1 75.128330820392279 11.772593055987592 10.450809389976142 -0.81915205242281985 0 -0.57357642473473569 0.28678821236736785 0 -0.40957602621140993 1 I I 0 1 0.5 forward I I I I #
face $-1 $167 $168 $54 $-1 $169 forward single #
loop $-1 $170 $171 $68 #
cone-surface $-1 75.128330820392279 13.65331453670796 10.450809389976142 -0.81915205242281985 0 -0.57357642473473569 0.28678821236736785 0 -0.40957602621140993 1 I I 0 1 0.5 forward I I I I #
face $-1 $172 $173 $55 $-1 $174 forward single #
loop $-1 $175 $176 $69 #
cone-surface $-1 75.128330820392279 15.534036017428328 10.450809389976142 -0.81915205242281985 0 -0.57357642473473569 0.28678821236736785 0 -0.40957602621140993 1 I I 0 1 0.5 forward I I I I #
face $-1 $177 $178 $42 $-1 $179 reversed single #
loop $-1 $-1 $180 $70 #
plane-surface $-1 0 0 -16.979372388222608 0 0 1 1 0 0 forward_v I I I I #
coedge $-1 $181 $182 $183 $184 forward $71 $-1 #
face $-1 $185 $186 $43 $-1 $187 forward single #
loop $-1 $-1 $188 $73 #
plane-surface $-1 -71.968293615383317 -27.440751656534712 0 -1 0 0 0 0 1 forward_v I I I I #
coedge $-1 $189 $190 $191 $192 forward $74 $-1 #
face $-1 $193 $194 $44 $-1 $195 reversed single #
loop $-1 $-1 $196 $76 #
plane-surface $-1 -79.908444471572011 26.495823653495371 6.979660398306919 -0.82903758062907751 0 0.55919289150049634 0.55919289150049634 0 0.82903758062907751 forward_v I I I I #
coedge $-1 $197 $198 $199 $200 reversed $77 $-1 #
face $-1 $-1 $201 $45 $-1 $202 forward single #
loop $-1 $203 $204 $79 #
cone-surface $-1 -75.499702149236896 23.238586497659902 11.280525278889129 0.82903758062907751 0 -0.55919289150049634 0.13979822287512408 0 0.20725939515726938 1 I I -0.70710678118654746 0.70710678118654746 0.25 forward I I I I #
loop $-1 $-1 $205 $59 #
coedge $-1 $128 $128 $206 $207 reversed $80 $-1 #
face $-1 $-1 $208 $46 $-1 $209 forward single #
loop $-1 $210 $211 $82 #
cone-surface $-1 -75.499702149236896 26.495823653495371 11.280525278889129 0.82903758062907751 0 -0.55919289150049634 0.13979822287512408 0 0.20725939515726938 1 I I -0.70710678118654746 0.70710678118654746 0.25 forward I I I I #
loop $-1 $-1 $212 $60 #
coedge $-1 $133 $133 $213 $214 reversed $83 $-1 #
face $-1 $-1 $215 $47 $-1 $216 forward single #
loop $-1 $217 $218 $85 #
cone-surface $-1 -75.499702149236896 29.75306080933084 11.280525278889129 0.82903758062907751 0 -0.55919289150049634 0.13979822287512408 0 0.20725939515726938 1 I I -0.70710678118654746 0.70710678118654746 0.25 forward I I I I #
loop $-1 $-1 $219 $61 #
coedge $-1 $138 $138 $220 $221 reversed $86 $-1 #
face $-1 $222 $223 $48 $-1 $224 reversed single #
loop $-1 $-1 $225 $88 #
plane-surface $-1 -11.758755300664831 -13.787437119826755 135.41015540607071 0.81915205242281985 0 0.57357642473473569 0.57357642473473569 0 -0.81915205242281985 forward_v I I I I #
coedge $-1 $226 $227 $228 $229 reversed $89 $-1 #
face $-1 $-1 $230 $49 $-1 $231 forward single #
loop $-1 $232 $233 $91 #
cone-surface $-1 74.513966781075169 -15.668158600547123 10.020627071425089 -0.81915205242281985 0 -0.57357642473473569 0.14339410618368392 0 -0.20478801310570496 1 I I -0.70710678118654746 0.70710678118654746 0.25 forward I I I I #
loop $-1 $-1 $234 $63 #
coedge $-1 $147 $147 $235 $236 reversed $92 $-1 #
face $-1 $-1 $237 $50 $-1 $238 forward single #
loop $-1 $239 $240 $94 #
cone-surface $-1 74.513966781075169 -13.787437119826752 10.020627071425089 -0.81915205242281985 0 -0.57357642473473569 0.14339410618368392 0 -0.20478801310570496 1 I I -0.70710678118654746 0.70710678118654746 0.25 forward I I I I #
loop $-1 $-1 $241 $64 #
coedge $-1 $152 $152 $242 $243 reversed $95 $-1 #
face $-1 $-1 $244 $51 $-1 $245 forward single #
loop $-1 $246 $247 $97 #
cone-surface $-1 74.513966781075169 -11.90671563910638 10.020627071425089 -0.81915205242281985 0 -0.57357642473473569 0.14339410618368392 0 -0.20478801310570496 1 I I -0.70710678118654746 0.70710678118654746 0.25 forward I I I I #
loop $-1 $-1 $248 $65 #
coedge $-1 $157 $157 $249 $250 reversed $98 $-1 #
face $-1 $251 $252 $52 $-1 $253 reversed single #
loop $-1 $-1 $254 $100 #
plane-surface $-1 -11.758755300664831 13.65331453670796 135.41015540607071 0.81915205242281985 0 0.57357642473473569 0.57357642473473569 0 -0.81915205242281985 forward_v I I I I #
coedge $-1 $255 $256 $257 $258 reversed $101 $-1 #
face $-1 $-1 $259 $53 $-1 $260 forward single #
loop $-1 $261 $262 $103 #
cone-surface $-1 74.513966781075169 11.772593055987592 10.020627071425089 -0.81915205242281985 0 -0.57357642473473569 0.14339410618368392 0 -0.20478801310570496 1 I I -0.70710678118654746 0.70710678118654746 0.25 forward I I I I #
loop $-1 $-1 $263 $67 #
coedge $-1 $166 $166 $264 $265 reversed $104 $-1 #
face $-1 $-1 $266 $54 $-1 $267 forward single #
loop $-1 $268 $269 $106 #
cone-surface $-1 74.513966781075169 13.65331453670796 10.020627071425089 -0.81915205242281985 0 -0.57357642473473569 0.14339410618368392 0 -0.20478801310570496 1 I I -0.70710678118654746 0.70710678118654746 0.25 forward I I I I #
loop $-1 $-1 $270 $68 #
coedge $-1 $171 $171 $271 $272 reversed $107 $-1 #
face $-1 $-1 $273 $55 $-1 $274 forward single #
loop $-1 $275 $276 $109 #
cone-surface $-1 74.513966781075169 15.534036017428328 10.020627071425089 -0.81915205242281985 0 -0.57357642473473569 0.14339410618368392 0 -0.20478801310570496 1 I I -0.70710678118654746 0.70710678118654746 0.25 forward I I I I #
loop $-1 $-1 $277 $69 #
coedge $-1 $176 $176 $278 $279 reversed $110 $-1 #
face $-1 $280 $281 $42 $-1 $282 reversed single #
loop $-1 $-1 $283 $112 #
plane-surface $-1 0 -35.472160097222748 0 0 1 0 0 0 1 forward_v I I I I #
coedge $-1 $284 $285 $286 $287 forward $113 $-1 #
coedge $-1 $288 $115 $289 $290 forward $71 $-1 #
coedge $-1 $115 $288 $291 $292 forward $71 $-1 #
coedge $-1 $293 $294 $115 $184 reversed $295 $-1 #
edge $-1 $296 -35.472160097222748 $297 35.472160097222748 $183 $298 forward 7 unknown #
face $-1 $299 $300 $43 $-1 $301 reversed single #
loop $-1 $-1 $302 $116 #
plane-surface $-1 0 0 16.979372388222608 0 0 1 1 0 0 forward_v I I I I #
coedge $-1 $303 $304 $305 $306 reversed $117 $-1 #
coedge $-1 $307 $119 $308 $309 reversed $74 $-1 #
coedge $-1 $119 $307 $310 $311 reversed $74 $-1 #
coedge $-1 $304 $303 $119 $192 reversed $117 $-1 #
edge $-1 $312 -16.979372388222608 $313 16.979372388222608 $191 $314 forward 7 unknown #
face $-1 $315 $316 $44 $-1 $317 reversed single #
loop $-1 $-1 $318 $120 #
plane-surface $-1 -212.40265142466211 31.92455224655448 96.34812863703732 0 -1 0 0.82903758062907751 0 -0.55919289150049634 forward_v I I I I #
coedge $-1 $319 $320 $321 $322 reversed $121 $-1 #
coedge $-1 $198 $123 $323 $324 reversed $77 $-1 #
coedge $-1 $123 $197 $319 $325 reversed $77 $-1 #
coedge $-1 $321 $326 $123 $200 forward $327 $-1 #
edge $-1 $328 26.292881240759044 $329 33.037771933856547 $199 $330 forward 7 unknown #
loop $-1 $-1 $206 $124 #
plane-surface $-1 -79.908444471572011 26.495823653495371 6.979660398306919 -0.82903758062907751 0 0.55919289150049634 0.55919289150049634 0 0.82903758062907751 forward_v I I I I #
loop $-1 $-1 $331 $79 #
coedge $-1 $204 $204 $205 $332 reversed $125 $-1 #
coedge $-1 $205 $205 $204 $332 forward $127 $-1 #
coedge $-1 $206 $206 $128 $207 forward $201 $-1 #
edge $-1 $333 0 $333 6.2831853071796004 $206 $334 forward 7 unknown #
loop $-1 $-1 $213 $129 #
plane-surface $-1 -79.908444471572011 26.495823653495371 6.979660398306919 -0.82903758062907751 0 0.55919289150049634 0.55919289150049634 0 0.82903758062907751 forward_v I I I I #
loop $-1 $-1 $335 $82 #
coedge $-1 $211 $211 $212 $336 reversed $130 $-1 #
coedge $-1 $212 $212 $211 $336 forward $132 $-1 #
coedge $-1 $213 $213 $133 $214 forward $208 $-1 #
edge $-1 $337 0 $337 6.2831853071796004 $213 $338 forward 7 unknown #
loop $-1 $-1 $220 $134 #
plane-surface $-1 -79.908444471572011 26.495823653495371 6.979660398306919 -0.82903758062907751 0 0.55919289150049634 0.55919289150049634 0 0.82903758062907751 forward_v I I I I #
loop $-1 $-1 $339 $85 #
coedge $-1 $218 $218 $219 $340 reversed $135 $-1 #
coedge $-1 $219 $219 $218 $340 forward $137 $-1 #
coedge $-1 $220 $220 $138 $221 forward $215 $-1 #
edge $-1 $341 0 $341 6.2831853071796004 $220 $342 forward 7 unknown #
face $-1 $343 $344 $48 $-1 $345 forward single #
loop $-1 $-1 $346 $139 #
plane-surface $-1 119.15557728894146 -16.921972921027375 227.07735517830758 0 1 0 0.81915205242281985 0 0.57357642473473569 forward_v I I I I #
coedge $-1 $347 $348 $349 $350 reversed $140 $-1 #
coedge $-1 $227 $142 $351 $352 reversed $89 $-1 #
coedge $-1 $142 $226 $347 $353 reversed $89 $-1 #
coedge $-1 $349 $354 $142 $229 forward $344 $-1 #
edge $-1 $355 -20.330655827101282 $356 -11.589580577164682 $228 $357 forward 7 unknown #
loop $-1 $-1 $235 $143 #
plane-surface $-1 -11.758755300664831 -13.787437119826755 135.41015540607071 0.81915205242281985 0 0.57357642473473569 0.57357642473473569 0 -0.81915205242281985 forward_v I I I I #
loop $-1 $-1 $358 $91 #
coedge $-1 $233 $233 $234 $359 reversed $144 $-1 #
coedge $-1 $234 $234 $233 $359 forward $146 $-1 #
coedge $-1 $235 $235 $147 $236 forward $230 $-1 #
edge $-1 $360 0 $360 6.2831853071796004 $235 $361 forward 7 unknown #
loop $-1 $-1 $242 $148 #
plane-surface $-1 -11.758755300664831 -13.787437119826755 135.41015540607071 0.81915205242281985 0 0.57357642473473569 0.57357642473473569 0 -0.81915205242281985 forward_v I I I I #
loop $-1 $-1 $362 $94 #
coedge $-1 $240 $240 $241 $363 reversed $149 $-1 #
coedge $-1 $241 $241 $240 $363 forward $151 $-1 #
coedge $-1 $242 $242 $152 $243 forward $237 $-1 #
edge $-1 $364 0 $364 6.2831853071796004 $242 $365 forward 7 unknown #
loop $-1 $-1 $249 $153 #
plane-surface $-1 -11.758755300664831 -13.787437119826755 135.41015540607071 0.81915205242281985 0 0.57357642473473569 0.57357642473473569 0 -0.81915205242281985 forward_v I I I I #
loop $-1 $-1 $366 $97 #
coedge $-1 $247 $247 $248 $367 reversed $154 $-1 #
coedge $-1 $248 $248 $247 $367 forward $156 $-1 #
coedge $-1 $249 $249 $157 $250 forward $244 $-1 #
edge $-1 $368 0 $368 6.2831853071796004 $249 $369 forward 7 unknown #
face $-1 $370 $371 $52 $-1 $372 reversed single #
loop $-1 $-1 $373 $158 #
plane-surface $-1 119.15557728894146 10.518778735507341 227.07735517830758 0 1 0 0.81915205242281985 0 0.57357642473473569 forward_v I I I I #
coedge $-1 $374 $375 $376 $377 reversed $159 $-1 #
coedge $-1 $256 $161 $378 $379 reversed $101 $-1 #
coedge $-1 $161 $255 $374 $380 reversed $101 $-1 #
coedge $-1 $376 $381 $161 $258 forward $382 $-1 #
edge $-1 $383 -20.330655827101282 $384 -11.589580577164682 $257 $385 forward 7 unknown #
loop $-1 $-1 $264 $162 #
plane-surface $-1 -11.758755300664831 13.65331453670796 135.41015540607071 0.81915205242281985 0 0.57357642473473569 0.57357642473473569 0 -0.81915205242281985 forward_v I I I I #
loop $-1 $-1 $386 $103 #
coedge $-1 $262 $262 $263 $387 reversed $163 $-1 #
coedge $-1 $263 $263 $262 $387 forward $165 $-1 #
coedge $-1 $264 $264 $166 $265 forward $259 $-1 #
edge $-1 $388 0 $388 6.2831853071796004 $264 $389 forward 7 unknown #
loop $-1 $-1 $271 $167 #
plane-surface $-1 -11.758755300664831 13.65331453670796 135.41015540607071 0.81915205242281985 0 0.57357642473473569 0.57357642473473569 0 -0.81915205242281985 forward_v I I I I #
loop $-1 $-1 $390 $106 #
coedge $-1 $269 $269 $270 $391 reversed $168 $-1 #
coedge $-1 $270 $270 $269 $391 forward $170 $-1 #
coedge $-1 $271 $271 $171 $272 forward $266 $-1 #
edge $-1 $392 0 $392 6.2831853071796004 $271 $393 forward 7 unknown #
loop $-1 $-1 $278 $172 #
plane-surface $-1 -11.758755300664831 13.65331453670796 135.41015540607071 0.81915205242281985 0 0.57357642473473569 0.57357642473473569 0 -0.81915205242281985 forward_v I I I I #
loop $-1 $-1 $394 $109 #
coedge $-1 $276 $276 $277 $395 reversed $173 $-1 #
coedge $-1 $277 $277 $276 $395 forward $175 $-1 #
coedge $-1 $278 $278 $176 $279 forward $273 $-1 #
edge $-1 $396 0 $396 6.2831853071796004 $278 $397 forward 7 unknown #
face $-1 $398 $399 $42 $-1 $400 reversed single #
loop $-1 $-1 $401 $177 #
plane-surface $-1 -79.908444471572011 0 0 1 0 0 0 0 -1 forward_v I I I I #
coedge $-1 $402 $291 $403 $404 forward $178 $-1 #
coedge $-1 $405 $180 $402 $406 forward $113 $-1 #
coedge $-1 $180 $405 $407 $408 forward $113 $-1 #
coedge $-1 $294 $293 $180 $287 reversed $295 $-1 #
edge $-1 $409 -35.472160097222748 $410 35.472160097222748 $286 $411 forward 7 unknown #
coedge $-1 $182 $181 $412 $413 forward $71 $-1 #
coedge $-1 $414 $415 $181 $290 reversed $399 $-1 #
edge $-1 $297 -79.908444471572011 $416 79.908444471572011 $289 $417 forward 7 unknown #
coedge $-1 $283 $418 $182 $292 reversed $178 $-1 #
edge $-1 $419 -79.908444471572011 $296 79.908444471572011 $291 $420 forward 7 unknown #
coedge $-1 $286 $183 $418 $421 forward $295 $-1 #
coedge $-1 $183 $286 $414 $422 reversed $295 $-1 #
loop $-1 $-1 $293 $398 #
vertex $-1 $184 $423 #
vertex $-1 $184 $424 #
straight-curve $-1 79.908444471572011 0 16.979372388222608 0 1 0 I I #
face $-1 $425 $426 $43 $-1 $427 reversed single #
loop $-1 $-1 $428 $185 #
plane-surface $-1 -79.908444471572011 0 0 1 0 0 0 0 -1 forward_v I I I I #
coedge $-1 $310 $429 $304 $430 forward $186 $-1 #
coedge $-1 $191 $188 $431 $432 reversed $117 $-1 #
coedge $-1 $188 $191 $302 $430 reversed $117 $-1 #
coedge $-1 $433 $434 $188 $306 forward $435 $-1 #
edge $-1 $436 -16.979372388222608 $437 16.979372388222608 $305 $438 forward 7 unknown #
coedge $-1 $190 $189 $428 $439 reversed $74 $-1 #
coedge $-1 $431 $440 $189 $309 forward $426 $-1 #
edge $-1 $441 -41.939259949833179 $313 -33.999109093644485 $308 $442 forward 7 unknown #
coedge $-1 $443 $302 $190 $311 forward $186 $-1 #
edge $-1 $312 33.999109093644485 $444 41.939259949833179 $310 $445 forward 7 unknown #
vertex $-1 $311 $446 #
vertex $-1 $309 $447 #
straight-curve $-1 -71.968293615383317 -19.409343215846675 0 0 0 -1 I I #
face $-1 $-1 $327 $44 $-1 $448 forward single #
loop $-1 $-1 $449 $193 #
plane-surface $-1 -79.908444471572011 0 0 1 0 0 0 0 -1 forward_v I I I I #
coedge $-1 $450 $451 $452 $453 reversed $194 $-1 #
coedge $-1 $454 $196 $198 $325 forward $121 $-1 #
coedge $-1 $196 $454 $450 $455 forward $121 $-1 #
coedge $-1 $452 $199 $196 $322 forward $327 $-1 #
edge $-1 $329 7.8191832336885767 $456 18.676640419806795 $321 $457 forward 7 unknown #
coedge $-1 $458 $459 $197 $324 forward $316 $-1 #
edge $-1 $460 -41.194403920211741 $328 -31.194691930296052 $323 $461 forward 7 unknown #
edge $-1 $329 -12.06183196463526 $460 0 $198 $462 forward 7 unknown #
coedge $-1 $199 $452 $458 $463 forward $327 $-1 #
loop $-1 $-1 $452 $315 #
vertex $-1 $324 $464 #
vertex $-1 $200 $465 #
straight-curve $-1 -106.20132571233106 21.067095060436262 16.979372388222608 1 0 0 I I #
coedge $-1 $331 $331 $-1 $466 reversed $203 $-1 #
edge $-1 $467 0 $467 6.2831853071796004 $204 $468 forward 7 unknown #
vertex $-1 $207 $469 #
ellipse-curve $-1 -76.535999125023267 23.238586497659902 11.97951639326476 -0.82903758062907751 0 0.55919289150049634 0.27959644575024817 0 0.41451879031453875 1 I I #
coedge $-1 $335 $335 $-1 $470 reversed $210 $-1 #
edge $-1 $471 0 $471 6.2831853071796004 $211 $472 forward 7 unknown #
vertex $-1 $214 $473 #
ellipse-curve $-1 -76.535999125023267 26.495823653495371 11.97951639326476 -0.82903758062907751 0 0.55919289150049634 0.27959644575024817 0 0.41451879031453875 1 I I #
coedge $-1 $339 $339 $-1 $474 reversed $217 $-1 #
edge $-1 $475 0 $475 6.2831853071796004 $218 $476 forward 7 unknown #
vertex $-1 $221 $477 #
ellipse-curve $-1 -76.535999125023267 29.75306080933084 11.97951639326476 -0.82903758062907751 0 0.55919289150049634 0.27959644575024817 0 0.41451879031453875 1 I I #
face $-1 $-1 $478 $48 $-1 $479 reversed single #
loop $-1 $-1 $228 $222 #
plane-surface $-1 0 0 16.979372388222608 0 0 1 1 0 0 forward_v I I I I #
coedge $-1 $480 $481 $482 $483 reversed $223 $-1 #
coedge $-1 $484 $225 $227 $353 forward $140 $-1 #
coedge $-1 $225 $484 $480 $485 forward $140 $-1 #
coedge $-1 $482 $228 $225 $350 forward $344 $-1 #
edge $-1 $356 3.7591827587127593 $486 10.028254361113998 $349 $487 forward 7 unknown #
coedge $-1 $488 $489 $226 $352 forward $478 $-1 #
edge $-1 $490 -109.04285477268934 $355 -96.559305200931192 $351 $491 forward 7 unknown #
edge $-1 $356 144.57728899972039 $490 159.81688894314402 $227 $492 forward 7 unknown #
coedge $-1 $228 $482 $488 $493 forward $344 $-1 #
vertex $-1 $229 $494 #
vertex $-1 $229 $495 #
straight-curve $-1 59.577788644470729 -10.652901318626137 16.9793723882226 -1 0 0 I I #
coedge $-1 $358 $358 $-1 $496 reversed $232 $-1 #
edge $-1 $497 0 $497 6.2831853071796004 $233 $498 forward 7 unknown #
vertex $-1 $236 $499 #
ellipse-curve $-1 75.537906846603718 -15.668158600547123 10.737597602343525 0.81915205242281985 0 0.57357642473473569 0.28678821236736785 0 -0.40957602621140993 1 I I #
coedge $-1 $362 $362 $-1 $500 reversed $239 $-1 #
edge $-1 $501 0 $501 6.2831853071796004 $240 $502 forward 7 unknown #
vertex $-1 $243 $503 #
ellipse-curve $-1 75.537906846603718 -13.787437119826752 10.737597602343525 0.81915205242281985 0 0.57357642473473569 0.28678821236736785 0 -0.40957602621140993 1 I I #
coedge $-1 $366 $366 $-1 $504 reversed $246 $-1 #
edge $-1 $505 0 $505 6.2831853071796004 $247 $506 forward 7 unknown #
vertex $-1 $250 $507 #
ellipse-curve $-1 75.537906846603718 -11.90671563910638 10.737597602343525 0.81915205242281985 0 0.57357642473473569 0.28678821236736785 0 -0.40957602621140993 1 I I #
face $-1 $-1 $382 $52 $-1 $508 forward single #
loop $-1 $-1 $509 $251 #
plane-surface $-1 79.908444471572011 0 0 -1 0 0 0 0 1 forward_v I I I I #
coedge $-1 $510 $511 $512 $513 reversed $252 $-1 #
coedge $-1 $514 $254 $256 $380 forward $159 $-1 #
coedge $-1 $254 $514 $510 $515 forward $159 $-1 #
coedge $-1 $512 $257 $254 $377 forward $382 $-1 #
edge $-1 $384 -9.9611930695546 $516 -3.6921214671533615 $376 $517 forward 7 unknown #
coedge $-1 $518 $519 $255 $379 forward $371 $-1 #
edge $-1 $520 -109.04285477268934 $383 -96.559305200931192 $378 $521 forward 7 unknown #
edge $-1 $384 144.57728899972039 $520 159.81688894314402 $256 $522 forward 7 unknown #
coedge $-1 $257 $512 $518 $523 forward $382 $-1 #
loop $-1 $-1 $512 $370 #
vertex $-1 $379 $524 #
vertex $-1 $258 $525 #
straight-curve $-1 59.577788644470729 16.78785033790858 16.9793723882226 -1 0 0 I I #
coedge $-1 $386 $386 $-1 $526 reversed $261 $-1 #
edge $-1 $527 0 $527 6.2831853071796004 $262 $528 forward 7 unknown #
vertex $-1 $265 $529 #
ellipse-curve $-1 75.537906846603718 11.772593055987592 10.737597602343525 0.81915205242281985 0 0.57357642473473569 0.28678821236736785 0 -0.40957602621140993 1 I I #
coedge $-1 $390 $390 $-1 $530 reversed $268 $-1 #
edge $-1 $531 0 $531 6.2831853071796004 $269 $532 forward 7 unknown #
vertex $-1 $272 $533 #
ellipse-curve $-1 75.537906846603718 13.65331453670796 10.737597602343525 0.81915205242281985 0 0.57357642473473569 0.28678821236736785 0 -0.40957602621140993 1 I I #
coedge $-1 $394 $394 $-1 $534 reversed $275 $-1 #
edge $-1 $535 0 $535 6.2831853071796004 $276 $536 forward 7 unknown #
vertex $-1 $279 $537 #
ellipse-curve $-1 75.537906846603718 15.534036017428328 10.737597602343525 0.81915205242281985 0 0.57357642473473569 0.28678821236736785 0 -0.40957602621140993 1 I I #
face $-1 $-1 $295 $42 $-1 $538 reversed single #
loop $-1 $-1 $414 $280 #
plane-surface $-1 0 35.472160097222748 0 0 -1 0 0 0 -1 forward_v I I I I #
coedge $-1 $539 $412 $415 $540 forward $281 $-1 #
coedge $-1 $418 $283 $284 $406 reversed $178 $-1 #
coedge $-1 $412 $539 $283 $404 reversed $281 $-1 #
edge $-1 $419 -16.979372388222608 $541 16.979372388222608 $403 $542 forward 7 unknown #
coedge $-1 $285 $284 $539 $543 forward $113 $-1 #
edge $-1 $410 -79.908444471572011 $541 79.908444471572011 $402 $544 forward 7 unknown #
coedge $-1 $415 $414 $285 $408 reversed $399 $-1 #
edge $-1 $545 -79.908444471572011 $409 79.908444471572011 $407 $546 forward 7 unknown #
vertex $-1 $287 $547 #
vertex $-1 $421 $548 #
straight-curve $-1 79.908444471572011 0 -16.979372388222608 0 -1 0 I I #
coedge $-1 $401 $403 $288 $413 reversed $281 $-1 #
edge $-1 $416 -35.472160097222748 $419 35.472160097222748 $412 $549 forward 7 unknown #
coedge $-1 $407 $289 $294 $422 forward $399 $-1 #
coedge $-1 $289 $407 $401 $540 reversed $399 $-1 #
vertex $-1 $290 $550 #
straight-curve $-1 0 35.472160097222748 16.979372388222608 -1 0 0 I I #
coedge $-1 $291 $402 $293 $421 reversed $178 $-1 #
vertex $-1 $413 $551 #
straight-curve $-1 0 -35.472160097222748 16.979372388222608 1 0 0 I I #
edge $-1 $296 -16.979372388222608 $410 16.979372388222608 $293 $552 forward 7 unknown #
edge $-1 $297 -16.979372388222608 $409 16.979372388222608 $294 $553 forward 7 unknown #
point $-1 79.908444471572011 -35.472160097222748 16.979372388222608 #
point $-1 79.908444471572011 35.472160097222748 16.979372388222608 #
face $-1 $-1 $435 $43 $-1 $554 reversed single #
loop $-1 $-1 $431 $299 #
plane-surface $-1 0 0 -16.979372388222608 0 0 1 1 0 0 forward_v I I I I #
coedge $-1 $555 $556 $307 $439 forward $300 $-1 #
coedge $-1 $302 $443 $433 $557 forward $186 $-1 #
edge $-1 $437 -21.75178426895539 $312 -5.6889673875793196 $302 $558 forward 7 unknown #
coedge $-1 $559 $308 $303 $432 forward $426 $-1 #
edge $-1 $313 5.6889673875793196 $436 21.75178426895539 $431 $560 forward 7 unknown #
coedge $-1 $561 $305 $429 $557 reversed $435 $-1 #
coedge $-1 $305 $561 $559 $562 reversed $435 $-1 #
loop $-1 $-1 $305 $425 #
vertex $-1 $562 $563 #
vertex $-1 $306 $564 #
straight-curve $-1 -71.968293615383317 -35.472160097222748 0 0 0 1 I I #
edge $-1 $444 -16.979372388222608 $441 16.979372388222608 $428 $565 forward 7 unknown #
coedge $-1 $308 $559 $555 $566 forward $426 $-1 #
vertex $-1 $309 $567 #
straight-curve $-1 -37.969184521738832 -19.409343215846675 -16.979372388222608 1 0 0 I I #
coedge $-1 $429 $310 $556 $568 forward $186 $-1 #
vertex $-1 $568 $569 #
straight-curve $-1 -37.969184521738832 -19.409343215846675 16.979372388222608 -1 0 0 I I #
point $-1 -71.968293615383317 -19.409343215846675 16.979372388222608 #
point $-1 -71.968293615383317 -19.409343215846675 -16.979372388222608 #
plane-surface $-1 0 0 16.979372388222608 0 0 1 1 0 0 forward_v I I I I #
coedge $-1 $459 $458 $451 $570 forward $316 $-1 #
coedge $-1 $451 $318 $320 $455 reversed $194 $-1 #
coedge $-1 $318 $450 $449 $570 reversed $194 $-1 #
coedge $-1 $326 $321 $318 $453 forward $327 $-1 #
edge $-1 $456 -33.037771933856547 $571 -26.292881240759044 $452 $572 forward 7 unknown #
coedge $-1 $320 $319 $459 $573 reversed $121 $-1 #
edge $-1 $574 0 $456 12.06183196463526 $450 $575 forward 7 unknown #
vertex $-1 $322 $576 #
straight-curve $-1 -73.163553778474508 13.247911826747686 16.979372388222608 0 1 0 I I #
coedge $-1 $449 $323 $326 $463 reversed $316 $-1 #
coedge $-1 $323 $449 $454 $573 forward $316 $-1 #
vertex $-1 $324 $577 #
straight-curve $-1 -79.908444471572011 21.067095060436262 48.17406431851866 0 0 1 I I #
straight-curve $-1 -79.908444471572011 21.067095060436262 6.979660398306919 -0.55919289150049634 0 -0.82903758062907751 I I #
edge $-1 $571 -31.92455224655448 $328 -21.067095060436262 $458 $578 forward 7 unknown #
point $-1 -79.908444471572011 21.067095060436262 16.979372388222608 #
point $-1 -73.163553778474508 21.067095060436262 16.979372388222608 #
edge $-1 $579 1 $579 0 $331 $-1 forward 7 unknown #
vertex $-1 $332 $580 #
ellipse-curve $-1 -75.706961544394161 23.238586497659902 11.420323501764253 -0.82903758062907751 0 0.55919289150049634 0.27959644575024817 0 0.41451879031453875 1 I I #
point $-1 -76.256402679272995 23.238586497659902 12.394035183579289 #
edge $-1 $581 1 $581 0 $335 $-1 forward 7 unknown #
vertex $-1 $336 $582 #
ellipse-curve $-1 -75.706961544394161 26.495823653495371 11.420323501764253 -0.82903758062907751 0 0.55919289150049634 0.27959644575024817 0 0.41451879031453875 1 I I #
point $-1 -76.256402679272995 26.495823653495371 12.394035183579289 #
edge $-1 $583 1 $583 0 $339 $-1 forward 7 unknown #
vertex $-1 $340 $584 #
ellipse-curve $-1 -75.706961544394161 29.75306080933084 11.420323501764253 -0.82903758062907751 0 0.55919289150049634 0.27959644575024817 0 0.41451879031453875 1 I I #
point $-1 -76.256402679272995 29.75306080933084 12.394035183579289 #
loop $-1 $-1 $351 $343 #
plane-surface $-1 79.908444471572011 0 0 -1 0 0 0 0 1 forward_v I I I I #
coedge $-1 $481 $346 $348 $485 reversed $223 $-1 #
coedge $-1 $346 $480 $585 $586 reversed $223 $-1 #
coedge $-1 $354 $349 $346 $483 forward $344 $-1 #
edge $-1 $486 11.589580577164682 $587 20.330655827101282 $482 $588 forward 7 unknown #
coedge $-1 $348 $347 $489 $589 reversed $140 $-1 #
edge $-1 $590 -159.81688894314402 $486 -144.57728899972039 $480 $591 forward 7 unknown #
vertex $-1 $350 $592 #
straight-curve $-1 71.167369221635397 -6.8937185599133777 16.979372388222615 0 -1 0 I I #
coedge $-1 $585 $351 $354 $493 reversed $478 $-1 #
coedge $-1 $351 $585 $484 $589 forward $478 $-1 #
vertex $-1 $352 $593 #
straight-curve $-1 79.908444471572011 -10.652901318626137 113.53867758915379 0 0 1 I I #
straight-curve $-1 -11.758755300664831 -10.652901318626137 135.41015540607071 0.57357642473473569 0 -0.81915205242281985 I I #
edge $-1 $587 -16.921972921027375 $355 -10.652901318626137 $488 $594 forward 7 unknown #
point $-1 79.908444471572011 -10.652901318626137 16.979372388222608 #
point $-1 71.167369221635411 -10.652901318626137 16.9793723882226 #
edge $-1 $595 1 $595 0 $358 $-1 forward 7 unknown #
vertex $-1 $359 $596 #
ellipse-curve $-1 74.718754794180867 -15.668158600547123 10.164021177608774 0.81915205242281985 0 0.57357642473473569 0.28678821236736785 0 -0.40957602621140993 1 I I #
point $-1 75.824695058971059 -15.668158600547123 10.328021576132098 #
edge $-1 $597 1 $597 0 $362 $-1 forward 7 unknown #
vertex $-1 $363 $598 #
ellipse-curve $-1 74.718754794180867 -13.787437119826752 10.164021177608774 0.81915205242281985 0 0.57357642473473569 0.28678821236736785 0 -0.40957602621140993 1 I I #
point $-1 75.824695058971059 -13.787437119826752 10.328021576132098 #
edge $-1 $599 1 $599 0 $366 $-1 forward 7 unknown #
vertex $-1 $367 $600 #
ellipse-curve $-1 74.718754794180867 -11.90671563910638 10.164021177608774 0.81915205242281985 0 0.57357642473473569 0.28678821236736785 0 -0.40957602621140993 1 I I #
point $-1 75.824695058971059 -11.90671563910638 10.328021576132098 #
plane-surface $-1 0 0 16.979372388222608 0 0 1 1 0 0 forward_v I I I I #
coedge $-1 $519 $518 $511 $601 forward $371 $-1 #
coedge $-1 $511 $373 $375 $515 reversed $252 $-1 #
coedge $-1 $373 $510 $509 $601 reversed $252 $-1 #
coedge $-1 $381 $376 $373 $513 forward $382 $-1 #
edge $-1 $516 11.589580577164682 $602 20.330655827101282 $512 $603 forward 7 unknown #
coedge $-1 $375 $374 $519 $604 reversed $159 $-1 #
edge $-1 $605 -159.81688894314402 $516 -144.57728899972039 $510 $606 forward 7 unknown #
vertex $-1 $377 $607 #
straight-curve $-1 71.167369221635397 6.8266572683539799 16.979372388222615 0 -1 0 I I #
coedge $-1 $509 $378 $381 $523 reversed $371 $-1 #
coedge $-1 $378 $509 $514 $604 forward $371 $-1 #
vertex $-1 $379 $608 #
straight-curve $-1 79.908444471572011 16.78785033790858 113.53867758915379 0 0 1 I I #
straight-curve $-1 -11.758755300664831 16.78785033790858 135.41015540607071 0.57357642473473569 0 -0.81915205242281985 I I #
edge $-1 $602 10.518778735507341 $383 16.78785033790858 $518 $609 forward 7 unknown #
point $-1 79.908444471572011 16.78785033790858 16.979372388222608 #
point $-1 71.167369221635411 16.78785033790858 16.9793723882226 #
edge $-1 $610 1 $610 0 $386 $-1 forward 7 unknown #
vertex $-1 $387 $611 #
ellipse-curve $-1 74.718754794180867 11.772593055987592 10.164021177608774 0.81915205242281985 0 0.57357642473473569 0.28678821236736785 0 -0.40957602621140993 1 I I #
point $-1 75.824695058971059 11.772593055987592 10.328021576132098 #
edge $-1 $612 1 $612 0 $390 $-1 forward 7 unknown #
vertex $-1 $391 $613 #
ellipse-curve $-1 74.718754794180867 13.65331453670796 10.164021177608774 0.81915205242281985 0 0.57357642473473569 0.28678821236736785 0 -0.40957602621140993 1 I I #
point $-1 75.824695058971059 13.65331453670796 10.328021576132098 #
edge $-1 $614 1 $614 0 $394 $-1 forward 7 unknown #
vertex $-1 $395 $615 #
ellipse-curve $-1 74.718754794180867 15.534036017428328 10.164021177608774 0.81915205242281985 0 0.57357642473473569 0.28678821236736785 0 -0.40957602621140993 1 I I #
point $-1 75.824695058971059 15.534036017428328 10.328021576132098 #
plane-surface $-1 79.908444471572011 0 0 -1 0 0 0 0 1 forward_v I I I I #
coedge $-1 $403 $401 $405 $543 reversed $281 $-1 #
edge $-1 $416 -16.979372388222608 $545 16.979372388222608 $415 $616 forward 7 unknown #
vertex $-1 $543 $617 #
straight-curve $-1 -79.908444471572011 -35.472160097222748 0 0 0 -1 I I #
edge $-1 $541 -35.472160097222748 $545 35.472160097222748 $539 $618 forward 7 unknown #
straight-curve $-1 0 -35.472160097222748 -16.979372388222608 -1 0 0 I I #
vertex $-1 $408 $619 #
straight-curve $-1 0 35.472160097222748 -16.979372388222608 1 0 0 I I #
point $-1 79.908444471572011 35.472160097222748 -16.979372388222608 #
point $-1 79.908444471572011 -35.472160097222748 -16.979372388222608 #
straight-curve $-1 -79.908444471572011 0 16.979372388222608 0 -1 0 I I #
point $-1 -79.908444471572011 35.472160097222748 16.979372388222608 #
point $-1 -79.908444471572011 -35.472160097222748 16.979372388222608 #
straight-curve $-1 79.908444471572011 -35.472160097222748 0 0 0 -1 I I #
straight-curve $-1 79.908444471572011 35.472160097222748 0 0 0 -1 I I #
plane-surface $-1 0 -35.472160097222748 0 0 1 0 0 0 1 forward_v I I I I #
coedge $-1 $620 $428 $440 $566 reversed $300 $-1 #
coedge $-1 $428 $620 $443 $568 reversed $300 $-1 #
edge $-1 $621 -79.908444471572011 $437 -71.968293615383317 $433 $622 forward 7 unknown #
straight-curve $-1 -71.968293615383317 -13.720375828267356 16.979372388222608 0 1 0 I I #
coedge $-1 $440 $431 $434 $562 forward $426 $-1 #
straight-curve $-1 -71.968293615383317 -13.720375828267356 -16.979372388222608 0 -1 0 I I #
coedge $-1 $434 $433 $620 $623 forward $435 $-1 #
edge $-1 $436 71.968293615383317 $624 79.908444471572011 $434 $625 forward 7 unknown #
point $-1 -71.968293615383317 -35.472160097222748 -16.979372388222608 #
point $-1 -71.968293615383317 -35.472160097222748 16.979372388222608 #
straight-curve $-1 -79.908444471572011 -19.409343215846675 0 0 0 -1 I I #
edge $-1 $624 -35.472160097222748 $441 -19.409343215846675 $555 $626 forward 7 unknown #
point $-1 -79.908444471572011 -19.409343215846675 -16.979372388222608 #
edge $-1 $444 19.409343215846675 $621 35.472160097222748 $556 $627 forward 7 unknown #
point $-1 -79.908444471572011 -19.409343215846675 16.979372388222608 #
edge $-1 $571 31.194691930296052 $574 41.194403920211741 $449 $628 forward 7 unknown #
vertex $-1 $463 $629 #
straight-curve $-1 -106.20132571233106 31.92455224655448 16.979372388222608 -1 0 0 I I #
edge $-1 $574 -18.676640419806795 $460 -7.8191832336885767 $459 $630 forward 7 unknown #
vertex $-1 $573 $631 #
straight-curve $-1 -79.908444471572011 31.92455224655448 6.979660398306919 0.55919289150049634 0 0.82903758062907751 I I #
point $-1 -73.163553778474508 31.92455224655448 16.979372388222608 #
point $-1 -79.908444471572011 21.067095060436262 6.979660398306919 #
straight-curve $-1 -79.908444471572011 0 16.979372388222608 0 -1 0 I I #
vertex $-1 $466 $632 #
point $-1 -75.427365098643918 23.238586497659902 11.834842292078793 #
vertex $-1 $470 $633 #
point $-1 -75.427365098643918 26.495823653495371 11.834842292078793 #
vertex $-1 $474 $634 #
point $-1 -75.427365098643918 29.75306080933084 11.834842292078793 #
coedge $-1 $489 $488 $481 $586 forward $478 $-1 #
edge $-1 $587 96.559305200931192 $590 109.04285477268934 $585 $635 forward 7 unknown #
vertex $-1 $493 $636 #
straight-curve $-1 59.577788644470729 -16.921972921027375 16.9793723882226 1 0 0 I I #
edge $-1 $590 -10.028254361113998 $490 -3.7591827587127593 $489 $637 forward 7 unknown #
vertex $-1 $589 $638 #
straight-curve $-1 -11.758755300664831 -16.921972921027375 135.41015540607071 -0.57357642473473569 0 0.81915205242281985 I I #
point $-1 71.167369221635411 -16.921972921027375 16.9793723882226 #
point $-1 79.908444471572011 -10.652901318626137 4.4958228164644538 #
straight-curve $-1 79.908444471572011 0 16.979372388222608 0 1 0 I I #
vertex $-1 $496 $639 #
point $-1 75.005543006548237 -15.668158600547123 9.7544451513973627 #
vertex $-1 $500 $640 #
point $-1 75.005543006548237 -13.787437119826752 9.7544451513973627 #
vertex $-1 $504 $641 #
point $-1 75.005543006548237 -11.90671563910638 9.7544451513973627 #
edge $-1 $602 96.559305200931192 $605 109.04285477268934 $509 $642 forward 7 unknown #
vertex $-1 $523 $643 #
straight-curve $-1 59.577788644470729 10.518778735507341 16.9793723882226 1 0 0 I I #
edge $-1 $605 3.6921214671533615 $520 9.9611930695546 $519 $644 forward 7 unknown #
vertex $-1 $604 $645 #
straight-curve $-1 -11.758755300664831 10.518778735507341 135.41015540607071 -0.57357642473473569 0 0.81915205242281985 I I #
point $-1 71.167369221635411 10.518778735507341 16.9793723882226 #
point $-1 79.908444471572011 16.78785033790858 4.4958228164644538 #
straight-curve $-1 79.908444471572011 0 16.979372388222608 0 1 0 I I #
vertex $-1 $526 $646 #
point $-1 75.005543006548237 11.772593055987592 9.7544451513973627 #
vertex $-1 $530 $647 #
point $-1 75.005543006548237 13.65331453670796 9.7544451513973627 #
vertex $-1 $534 $648 #
point $-1 75.005543006548237 15.534036017428328 9.7544451513973627 #
straight-curve $-1 -79.908444471572011 35.472160097222748 0 0 0 -1 I I #
point $-1 -79.908444471572011 -35.472160097222748 -16.979372388222608 #
straight-curve $-1 -79.908444471572011 0 -16.979372388222608 0 1 0 I I #
point $-1 -79.908444471572011 35.472160097222748 -16.979372388222608 #
coedge $-1 $556 $555 $561 $623 reversed $300 $-1 #
vertex $-1 $568 $649 #
straight-curve $-1 0 -35.472160097222748 16.979372388222608 1 0 0 I I #
edge $-1 $621 -16.979372388222608 $624 16.979372388222608 $620 $650 forward 7 unknown #
vertex $-1 $566 $651 #
straight-curve $-1 0 -35.472160097222748 -16.979372388222608 -1 0 0 I I #
straight-curve $-1 -79.908444471572011 0 -16.979372388222608 0 1 0 I I #
straight-curve $-1 -79.908444471572011 0 16.979372388222608 0 -1 0 I I #
straight-curve $-1 -79.908444471572011 31.92455224655448 48.17406431851866 0 0 -1 I I #
point $-1 -79.908444471572011 31.92455224655448 16.979372388222608 #
straight-curve $-1 -79.908444471572011 13.247911826747686 6.9796603983069172 0 -1 0 I I #
point $-1 -79.908444471572011 31.92455224655448 6.979660398306919 #
point $-1 -75.29244275407963 23.238586497659902 11.140727056014006 #
point $-1 -75.29244275407963 26.495823653495371 11.140727056014006 #
point $-1 -75.29244275407963 29.75306080933084 11.140727056014006 #
straight-curve $-1 79.908444471572011 -16.921972921027375 113.53867758915379 0 0 -1 I I #
point $-1 79.908444471572011 -16.921972921027375 16.979372388222608 #
straight-curve $-1 79.908444471572011 -6.8937185599133777 4.4958228164644325 0 1 0 I I #
point $-1 79.908444471572011 -16.921972921027375 4.4958228164644538 #
point $-1 74.30917876796947 -15.668158600547123 9.8772329652414044 #
point $-1 74.30917876796947 -13.787437119826752 9.8772329652414044 #
point $-1 74.30917876796947 -11.90671563910638 9.8772329652414044 #
straight-curve $-1 79.908444471572011 10.518778735507341 113.53867758915379 0 0 -1 I I #
point $-1 79.908444471572011 10.518778735507341 16.979372388222608 #
straight-curve $-1 79.908444471572011 6.8266572683539799 4.4958228164644325 0 1 0 I I #
point $-1 79.908444471572011 10.518778735507341 4.4958228164644538 #
point $-1 74.30917876796947 11.772593055987592 9.8772329652414044 #
point $-1 74.30917876796947 13.65331453670796 9.8772329652414044 #
point $-1 74.30917876796947 15.534036017428328 9.8772329652414044 #
point $-1 -79.908444471572011 -35.472160097222748 16.979372388222608 #
straight-curve $-1 -79.908444471572011 -35.472160097222748 0 0 0 -1 I I #
point $-1 -79.908444471572011 -35.472160097222748 -16.979372388222608 #
End-of-ACIS-data 