500 0 7 0           
7 Unknown 11 ACIS 5.0 NT 24 Thu Mar 25 21:30:51 1999 
-1 9.9999999999999995e-007 1e-010 
body $-1 $7 $-1 $8 #
body $-1 $9 $-1 $10 #
body $-1 $11 $-1 $12 #
body $-1 $13 $-1 $14 #
body $-1 $15 $-1 $16 #
body $-1 $17 $-1 $18 #
body $-1 $19 $-1 $20 #
lump $-1 $-1 $21 $0 #
transform $-1 1 0 0 0 1 0 0 0 1 61.018707846308786 28.634863389443819 10.416371781685097 1 rotate no_reflect no_shear #
lump $-1 $-1 $22 $1 #
transform $-1 1 0 0 0 1 0 0 0 1 61.018707846308786 28.634863389443819 10.416371781685097 1 rotate no_reflect no_shear #
lump $-1 $-1 $23 $2 #
transform $-1 1 0 0 0 1 0 0 0 1 61.018707846308786 28.634863389443819 10.416371781685097 1 rotate no_reflect no_shear #
lump $-1 $-1 $24 $3 #
transform $-1 1 0 0 0 1 0 0 0 1 61.018707846308786 28.634863389443819 10.416371781685097 1 rotate no_reflect no_shear #
lump $-1 $-1 $25 $4 #
transform $-1 1 0 0 0 1 0 0 0 1 61.018707846308786 28.634863389443819 10.416371781685097 1 rotate no_reflect no_shear #
lump $-1 $-1 $26 $5 #
transform $-1 1 0 0 0 1 0 0 0 1 61.018707846308786 28.634863389443819 10.416371781685097 1 rotate no_reflect no_shear #
lump $-1 $-1 $27 $6 #
transform $-1 1 0 0 0 1 0 0 0 1 61.018707846308786 28.634863389443819 10.416371781685097 1 rotate no_reflect no_shear #
shell $-1 $-1 $-1 $28 $-1 $7 #
shell $-1 $-1 $-1 $29 $-1 $9 #
shell $-1 $-1 $-1 $30 $-1 $11 #
shell $-1 $-1 $-1 $31 $-1 $13 #
shell $-1 $-1 $-1 $32 $-1 $15 #
shell $-1 $-1 $-1 $33 $-1 $17 #
shell $-1 $-1 $-1 $34 $-1 $19 #
face $-1 $35 $36 $21 $-1 $37 reversed single #
face $-1 $38 $39 $22 $-1 $40 forward single #
face $-1 $41 $42 $23 $-1 $43 reversed single #
face $-1 $44 $45 $24 $-1 $46 forward single #
face $-1 $47 $48 $25 $-1 $49 forward single #
face $-1 $50 $51 $26 $-1 $52 reversed single #
face $-1 $53 $54 $27 $-1 $55 forward single #
face $-1 $56 $57 $21 $-1 $58 forward single #
loop $-1 $-1 $59 $28 #
plane-surface $-1 0 -28.634863389443819 0 0 1 0 0 0 1 forward_v I I I I #
face $-1 $60 $61 $22 $-1 $62 reversed single #
loop $-1 $-1 $63 $29 #
plane-surface $-1 0 -28.634863389443819 0 0 1 0 0 0 1 forward_v I I I I #
face $-1 $64 $65 $23 $-1 $66 reversed single #
loop $-1 $-1 $67 $30 #
plane-surface $-1 -164.51230685138415 -15.722179992718022 71.665361667509941 0 1 0 -0.84804810408105047 0 0.52991925155115449 forward_v I I I I #
face $-1 $68 $69 $24 $-1 $70 forward single #
loop $-1 $71 $72 $31 #
cone-surface $-1 -59.169044947892168 -12.081665008924613 8.2179631053811146 0.84804810408105047 0 -0.52991925155115449 0.26495962577557725 0 0.42402405204052523 1 I I 0 1 0.5 forward I I I I #
face $-1 $73 $74 $25 $-1 $75 forward single #
loop $-1 $76 $77 $32 #
cone-surface $-1 -59.169044947892168 -6.6208925332344997 8.2179631053811146 0.84804810408105047 0 -0.52991925155115449 0.26495962577557725 0 0.42402405204052523 1 I I 0 1 0.5 forward I I I I #
face $-1 $78 $79 $26 $-1 $80 reversed single #
loop $-1 $-1 $81 $33 #
plane-surface $-1 85.038173757855162 -2.3889954876164445 171.88717474426346 0 -1 0 -0.79863551827123203 0 -0.60181501223851219 forward_v I I I I #
face $-1 $82 $83 $27 $-1 $84 forward single #
loop $-1 $85 $86 $34 #
cone-surface $-1 54.750282122950857 -8.0058147774627351 3.6537396485241942 -0.79863551827123203 0 -0.60181501223851219 1.5045375305962805 0 -1.9965887956780801 1 I I 0 1 2.5 forward I I I I #
face $-1 $87 $88 $21 $-1 $89 reversed single #
loop $-1 $-1 $90 $35 #
plane-surface $-1 0 0 10.416371781685097 0 0 1 1 0 0 forward_v I I I I #
coedge $-1 $91 $92 $93 $94 reversed $36 $-1 #
face $-1 $95 $96 $22 $-1 $97 reversed single #
loop $-1 $-1 $98 $38 #
plane-surface $-1 0 0 -10.416371781685097 0 0 1 1 0 0 forward_v I I I I #
coedge $-1 $99 $100 $101 $102 forward $39 $-1 #
face $-1 $103 $104 $23 $-1 $105 reversed single #
loop $-1 $-1 $106 $41 #
plane-surface $-1 -61.018707846308772 -9.35127877107956 6.9953856824409115 -0.84804810408105047 0 0.52991925155115449 0.52991925155115449 0 0.84804810408105047 forward_v I I I I #
coedge $-1 $107 $108 $109 $110 reversed $42 $-1 #
face $-1 $-1 $111 $24 $-1 $112 forward single #
loop $-1 $113 $114 $44 #
cone-surface $-1 -58.176204671250872 -12.081665008924613 7.5975676658114359 0.84804810408105047 0 -0.52991925155115449 0.13247981288778862 0 0.21201202602026262 1 I I -0.70710678118654746 0.70710678118654746 0.25 forward I I I I #
loop $-1 $-1 $115 $31 #
coedge $-1 $72 $72 $116 $117 reversed $45 $-1 #
face $-1 $-1 $118 $25 $-1 $119 forward single #
loop $-1 $120 $121 $47 #
cone-surface $-1 -58.176204671250872 -6.6208925332344997 7.5975676658114359 0.84804810408105047 0 -0.52991925155115449 0.13247981288778862 0 0.21201202602026262 1 I I -0.70710678118654746 0.70710678118654746 0.25 forward I I I I #
loop $-1 $-1 $122 $32 #
coedge $-1 $77 $77 $123 $124 reversed $48 $-1 #
face $-1 $125 $126 $26 $-1 $127 reversed single #
loop $-1 $-1 $128 $50 #
plane-surface $-1 -12.425240972300259 -8.0058147774627351 98.443225925654417 0.79863551827123203 0 0.60181501223851219 0.60181501223851219 0 -0.79863551827123203 forward_v I I I I #
coedge $-1 $129 $130 $131 $132 reversed $51 $-1 #
face $-1 $-1 $133 $27 $-1 $134 forward single #
loop $-1 $135 $136 $53 #
cone-surface $-1 51.0390411250455 -8.0058147774627351 0.85711904315819609 -0.79863551827123203 0 -0.60181501223851219 0.75226876529814024 0 -0.99829439783904006 1 I I -0.70710678118654746 0.70710678118654746 1.25 forward I I I I #
loop $-1 $-1 $137 $34 #
coedge $-1 $86 $86 $138 $139 reversed $54 $-1 #
face $-1 $140 $141 $21 $-1 $142 reversed single #
loop $-1 $-1 $143 $56 #
plane-surface $-1 0 0 -10.416371781685097 0 0 1 1 0 0 forward_v I I I I #
coedge $-1 $144 $145 $146 $147 forward $57 $-1 #
coedge $-1 $148 $59 $149 $150 reversed $36 $-1 #
coedge $-1 $59 $148 $151 $152 forward $36 $-1 #
coedge $-1 $153 $143 $59 $94 forward $88 $-1 #
edge $-1 $154 -61.018707846308786 $155 61.018707846308786 $59 $156 forward 7 unknown #
face $-1 $157 $158 $22 $-1 $159 reversed single #
loop $-1 $-1 $160 $60 #
plane-surface $-1 -43.305725964761137 -41.547546786169612 0 0 1 0 0 0 1 forward_v I I I I #
coedge $-1 $161 $162 $100 $163 forward $61 $-1 #
coedge $-1 $164 $63 $165 $166 reversed $39 $-1 #
coedge $-1 $63 $164 $98 $163 reversed $39 $-1 #
coedge $-1 $167 $168 $63 $102 reversed $158 $-1 #
edge $-1 $169 -10.416371781685097 $170 10.416371781685097 $101 $171 forward 7 unknown #
face $-1 $172 $173 $23 $-1 $174 reversed single #
loop $-1 $-1 $175 $64 #
plane-surface $-1 -164.51230685138415 -2.9803775494410978 71.665361667509941 0 -1 0 0.84804810408105047 0 -0.52991925155115449 forward_v I I I I #
coedge $-1 $176 $177 $178 $179 reversed $65 $-1 #
coedge $-1 $108 $67 $180 $181 reversed $42 $-1 #
coedge $-1 $67 $107 $176 $182 reversed $42 $-1 #
coedge $-1 $178 $183 $67 $110 forward $184 $-1 #
edge $-1 $185 21.237445579383291 $186 23.375114874974493 $109 $187 forward 7 unknown #
loop $-1 $-1 $116 $68 #
plane-surface $-1 -61.018707846308772 -9.35127877107956 6.9953856824409115 -0.84804810408105047 0 0.52991925155115449 0.52991925155115449 0 0.84804810408105047 forward_v I I I I #
loop $-1 $-1 $188 $44 #
coedge $-1 $114 $114 $115 $189 reversed $69 $-1 #
coedge $-1 $115 $115 $114 $189 forward $71 $-1 #
coedge $-1 $116 $116 $72 $117 forward $111 $-1 #
edge $-1 $190 0 $190 6.2831853071796004 $116 $191 forward 7 unknown #
loop $-1 $-1 $123 $73 #
plane-surface $-1 -61.018707846308772 -9.35127877107956 6.9953856824409115 -0.84804810408105047 0 0.52991925155115449 0.52991925155115449 0 0.84804810408105047 forward_v I I I I #
loop $-1 $-1 $192 $47 #
coedge $-1 $121 $121 $122 $193 reversed $74 $-1 #
coedge $-1 $122 $122 $121 $193 forward $76 $-1 #
coedge $-1 $123 $123 $77 $124 forward $118 $-1 #
edge $-1 $194 0 $194 6.2831853071796004 $123 $195 forward 7 unknown #
face $-1 $196 $197 $26 $-1 $198 forward single #
loop $-1 $-1 $199 $78 #
plane-surface $-1 85.038173757855162 -13.622634067309026 171.88717474426346 0 1 0 0.79863551827123203 0 0.60181501223851219 forward_v I I I I #
coedge $-1 $200 $201 $202 $203 reversed $79 $-1 #
coedge $-1 $130 $81 $204 $205 reversed $51 $-1 #
coedge $-1 $81 $129 $200 $206 reversed $51 $-1 #
coedge $-1 $202 $207 $81 $132 forward $197 $-1 #
edge $-1 $208 -18.499620967381205 $209 -11.388662720798024 $131 $210 forward 7 unknown #
loop $-1 $-1 $138 $82 #
plane-surface $-1 -12.425240972300259 -8.0058147774627351 98.443225925654417 0.79863551827123203 0 0.60181501223851219 0.60181501223851219 0 -0.79863551827123203 forward_v I I I I #
loop $-1 $-1 $211 $53 #
coedge $-1 $136 $136 $137 $212 reversed $83 $-1 #
coedge $-1 $137 $137 $136 $212 forward $85 $-1 #
coedge $-1 $138 $138 $86 $139 forward $133 $-1 #
edge $-1 $213 0 $213 6.2831853071796004 $138 $214 forward 7 unknown #
face $-1 $215 $216 $21 $-1 $217 reversed single #
loop $-1 $-1 $218 $87 #
plane-surface $-1 -61.018707846308786 0 0 1 0 0 0 0 -1 forward_v I I I I #
coedge $-1 $93 $219 $220 $221 forward $88 $-1 #
coedge $-1 $222 $90 $223 $224 forward $57 $-1 #
coedge $-1 $90 $222 $148 $225 forward $57 $-1 #
coedge $-1 $149 $226 $90 $147 reversed $227 $-1 #
edge $-1 $228 -28.634863389443819 $229 28.634863389443819 $146 $230 forward 7 unknown #
coedge $-1 $92 $91 $145 $225 reversed $36 $-1 #
coedge $-1 $220 $146 $91 $150 forward $227 $-1 #
edge $-1 $228 -10.416371781685097 $154 10.416371781685097 $149 $231 forward 7 unknown #
coedge $-1 $232 $233 $92 $152 reversed $141 $-1 #
edge $-1 $234 -10.416371781685097 $155 10.416371781685097 $151 $235 forward 7 unknown #
coedge $-1 $219 $93 $233 $236 forward $88 $-1 #
vertex $-1 $150 $237 #
vertex $-1 $236 $238 #
straight-curve $-1 0 -28.634863389443819 -10.416371781685097 -1 0 0 I I #
face $-1 $239 $240 $22 $-1 $241 reversed single #
loop $-1 $-1 $101 $95 #
plane-surface $-1 -46.425487646583683 -35.091205087806713 0 1 0 0 0 0 -1 forward_v I I I I #
coedge $-1 $242 $243 $244 $245 forward $96 $-1 #
coedge $-1 $246 $98 $247 $248 forward $61 $-1 #
coedge $-1 $98 $246 $167 $249 forward $61 $-1 #
edge $-1 $169 -46.425487646583683 $250 -40.185964282938592 $98 $251 forward 7 unknown #
coedge $-1 $100 $99 $252 $253 forward $39 $-1 #
coedge $-1 $254 $255 $99 $166 forward $256 $-1 #
edge $-1 $257 40.185964282938592 $170 46.425487646583683 $165 $258 forward 7 unknown #
coedge $-1 $244 $101 $162 $249 reversed $158 $-1 #
coedge $-1 $101 $244 $254 $259 reversed $158 $-1 #
vertex $-1 $163 $260 #
vertex $-1 $259 $261 #
straight-curve $-1 -46.425487646583683 -28.634863389443819 0 0 0 1 I I #
face $-1 $-1 $184 $23 $-1 $262 forward single #
loop $-1 $-1 $263 $103 #
plane-surface $-1 -61.018707846308786 0 0 1 0 0 0 0 -1 forward_v I I I I #
coedge $-1 $264 $265 $266 $267 reversed $104 $-1 #
coedge $-1 $268 $106 $108 $182 forward $65 $-1 #
coedge $-1 $106 $268 $264 $269 forward $65 $-1 #
coedge $-1 $266 $109 $106 $179 forward $184 $-1 #
edge $-1 $186 -11.046540607178242 $270 1.6952618360986822 $178 $271 forward 7 unknown #
coedge $-1 $272 $273 $107 $181 forward $173 $-1 #
edge $-1 $274 -28.83729515131408 $185 -25.416309052069874 $180 $275 forward 7 unknown #
edge $-1 $186 -4.0339528887352252 $274 2.7114274142304302e-014 $108 $276 forward 7 unknown #
coedge $-1 $109 $266 $272 $277 forward $184 $-1 #
loop $-1 $-1 $266 $172 #
vertex $-1 $181 $278 #
vertex $-1 $110 $279 #
straight-curve $-1 -82.256153425692077 -15.722179992718022 10.416371781685097 1 0 0 I I #
coedge $-1 $188 $188 $-1 $280 reversed $113 $-1 #
edge $-1 $281 0 $281 6.2831853071796004 $114 $282 forward 7 unknown #
vertex $-1 $117 $283 #
ellipse-curve $-1 -59.949873198513181 -12.081665008924613 8.7058787320629936 -0.84804810408105047 0 0.52991925155115449 0.26495962577557725 0 0.42402405204052523 1 I I #
coedge $-1 $192 $192 $-1 $284 reversed $120 $-1 #
edge $-1 $285 0 $285 6.2831853071796004 $121 $286 forward 7 unknown #
vertex $-1 $124 $287 #
ellipse-curve $-1 -59.949873198513181 -6.6208925332344997 8.7058787320629936 -0.84804810408105047 0 0.52991925155115449 0.26495962577557725 0 0.42402405204052523 1 I I #
face $-1 $-1 $288 $26 $-1 $289 reversed single #
loop $-1 $-1 $131 $125 #
plane-surface $-1 0 0 10.416371781685097 0 0 1 1 0 0 forward_v I I I I #
coedge $-1 $290 $291 $292 $293 reversed $126 $-1 #
coedge $-1 $294 $128 $130 $206 forward $79 $-1 #
coedge $-1 $128 $294 $290 $295 forward $79 $-1 #
coedge $-1 $292 $131 $128 $203 forward $197 $-1 #
edge $-1 $209 -1.613911901114923 $296 9.6197266785776581 $202 $297 forward 7 unknown #
coedge $-1 $298 $299 $129 $205 forward $288 $-1 #
edge $-1 $300 -84.963776176632734 $208 -75.52721559044663 $204 $301 forward 7 unknown #
edge $-1 $209 110.22156181397594 $300 122.03741569261757 $130 $302 forward 7 unknown #
coedge $-1 $131 $292 $298 $303 forward $197 $-1 #
vertex $-1 $132 $304 #
vertex $-1 $132 $305 #
straight-curve $-1 42.519086878927581 -2.3889954876164445 10.4163717816851 -1 0 0 I I #
coedge $-1 $211 $211 $-1 $306 reversed $135 $-1 #
edge $-1 $307 0 $307 6.2831853071796004 $136 $308 forward 7 unknown #
vertex $-1 $139 $309 #
ellipse-curve $-1 57.463228723017181 -8.0058147774627351 5.6980914885920582 0.79863551827123203 0 0.60181501223851219 1.5045375305962805 0 -1.9965887956780801 1 I I #
face $-1 $-1 $227 $21 $-1 $310 reversed single #
loop $-1 $-1 $311 $140 #
plane-surface $-1 0 28.634863389443819 0 0 -1 0 0 0 -1 forward_v I I I I #
coedge $-1 $233 $232 $312 $313 forward $141 $-1 #
coedge $-1 $143 $153 $314 $315 forward $88 $-1 #
coedge $-1 $226 $149 $143 $221 reversed $227 $-1 #
edge $-1 $316 -28.634863389443819 $154 28.634863389443819 $220 $317 forward 7 unknown #
coedge $-1 $145 $144 $232 $318 forward $57 $-1 #
coedge $-1 $311 $312 $144 $224 reversed $216 $-1 #
edge $-1 $229 -61.018707846308786 $319 61.018707846308786 $223 $320 forward 7 unknown #
edge $-1 $234 -61.018707846308786 $228 61.018707846308786 $148 $321 forward 7 unknown #
coedge $-1 $146 $220 $311 $322 reversed $227 $-1 #
loop $-1 $-1 $149 $215 #
vertex $-1 $147 $323 #
vertex $-1 $147 $324 #
straight-curve $-1 61.018707846308786 0 10.416371781685097 0 1 0 I I #
straight-curve $-1 61.018707846308786 -28.634863389443819 0 0 0 -1 I I #
coedge $-1 $218 $151 $222 $318 reversed $141 $-1 #
coedge $-1 $151 $218 $153 $236 reversed $141 $-1 #
vertex $-1 $318 $325 #
straight-curve $-1 -61.018707846308786 -28.634863389443819 0 0 0 -1 I I #
edge $-1 $155 -28.634863389443819 $326 28.634863389443819 $233 $327 forward 7 unknown #
point $-1 61.018707846308786 -28.634863389443819 -10.416371781685097 #
point $-1 -61.018707846308786 -28.634863389443819 -10.416371781685097 #
face $-1 $-1 $256 $22 $-1 $328 forward single #
loop $-1 $-1 $329 $157 #
plane-surface $-1 -40.185964282938592 -35.091205087806713 0 -1 0 0 0 0 1 forward_v I I I I #
coedge $-1 $330 $160 $246 $331 reversed $96 $-1 #
coedge $-1 $160 $330 $332 $333 reversed $96 $-1 #
coedge $-1 $168 $167 $160 $245 reversed $158 $-1 #
edge $-1 $334 -10.416371781685097 $335 10.416371781685097 $244 $336 forward 7 unknown #
coedge $-1 $162 $161 $242 $331 forward $61 $-1 #
coedge $-1 $252 $329 $161 $248 reversed $240 $-1 #
edge $-1 $250 -6.4563416983628983 $337 6.4563416983628983 $247 $338 forward 7 unknown #
edge $-1 $335 -6.4563416983628983 $169 6.4563416983628983 $167 $339 forward 7 unknown #
vertex $-1 $248 $340 #
straight-curve $-1 0 -28.634863389443819 -10.416371781685097 1 0 0 I I #
coedge $-1 $341 $247 $164 $253 reversed $240 $-1 #
edge $-1 $257 -10.416371781685097 $250 10.416371781685097 $252 $342 forward 7 unknown #
coedge $-1 $332 $165 $168 $259 forward $256 $-1 #
coedge $-1 $165 $332 $341 $343 forward $256 $-1 #
loop $-1 $-1 $165 $239 #
vertex $-1 $166 $344 #
straight-curve $-1 0 -28.634863389443819 10.416371781685097 -1 0 0 I I #
edge $-1 $170 -6.4563416983628983 $334 6.4563416983628983 $168 $345 forward 7 unknown #
point $-1 -46.425487646583683 -28.634863389443815 -10.416371781685097 #
point $-1 -46.425487646583683 -28.634863389443815 10.416371781685097 #
plane-surface $-1 0 0 10.416371781685097 0 0 1 1 0 0 forward_v I I I I #
coedge $-1 $273 $272 $265 $346 forward $173 $-1 #
coedge $-1 $265 $175 $177 $269 reversed $104 $-1 #
coedge $-1 $175 $264 $263 $346 reversed $104 $-1 #
coedge $-1 $183 $178 $175 $267 forward $184 $-1 #
edge $-1 $270 -23.375114874974493 $347 -21.237445579383291 $266 $348 forward 7 unknown #
coedge $-1 $177 $176 $273 $349 reversed $65 $-1 #
edge $-1 $350 -2.7114274142304302e-014 $270 4.0339528887352252 $264 $351 forward 7 unknown #
vertex $-1 $179 $352 #
straight-curve $-1 -58.881038550717577 -4.67563938553978 10.416371781685097 0 1 0 I I #
coedge $-1 $263 $180 $183 $277 reversed $173 $-1 #
coedge $-1 $180 $263 $268 $349 forward $173 $-1 #
vertex $-1 $181 $353 #
straight-curve $-1 -61.018707846308786 -15.722179992718022 35.832680833754971 0 0 1 I I #
straight-curve $-1 -61.018707846308772 -15.722179992718022 6.9953856824409115 -0.52991925155115449 0 -0.84804810408105047 I I #
edge $-1 $347 2.9803775494410978 $185 15.722179992718022 $272 $354 forward 7 unknown #
point $-1 -61.018707846308786 -15.722179992718022 10.416371781685097 #
point $-1 -58.881038550717584 -15.722179992718022 10.416371781685097 #
edge $-1 $355 1 $355 0 $188 $-1 forward 7 unknown #
vertex $-1 $189 $356 #
ellipse-curve $-1 -58.388216697271133 -12.081665008924613 7.7300474786992242 -0.84804810408105047 0 0.52991925155115449 0.26495962577557725 0 0.42402405204052523 1 I I #
point $-1 -59.684913572737621 -12.081665008924613 9.1299027841035283 #
edge $-1 $357 1 $357 0 $192 $-1 forward 7 unknown #
vertex $-1 $193 $358 #
ellipse-curve $-1 -58.388216697271133 -6.6208925332344997 7.7300474786992242 -0.84804810408105047 0 0.52991925155115449 0.26495962577557725 0 0.42402405204052523 1 I I #
point $-1 -59.684913572737621 -6.6208925332344997 9.1299027841035283 #
loop $-1 $-1 $204 $196 #
plane-surface $-1 61.018707846308786 0 0 -1 0 0 0 0 1 forward_v I I I I #
coedge $-1 $291 $199 $201 $295 reversed $126 $-1 #
coedge $-1 $199 $290 $359 $360 reversed $126 $-1 #
coedge $-1 $207 $202 $199 $293 forward $197 $-1 #
edge $-1 $296 11.388662720798024 $361 18.499620967381205 $292 $362 forward 7 unknown #
coedge $-1 $201 $200 $299 $363 reversed $79 $-1 #
edge $-1 $364 -122.03741569261757 $296 -110.22156181397594 $290 $365 forward 7 unknown #
vertex $-1 $203 $366 #
straight-curve $-1 53.907749599725605 -4.0029073887313675 10.4163717816851 0 -1 0 I I #
coedge $-1 $359 $204 $207 $303 reversed $288 $-1 #
coedge $-1 $204 $359 $294 $363 forward $288 $-1 #
vertex $-1 $205 $367 #
straight-curve $-1 61.018707846308786 -2.3889954876164445 85.943587372131731 0 0 1 I I #
straight-curve $-1 -12.425240972300259 -2.3889954876164445 98.443225925654417 0.60181501223851219 0 -0.79863551827123203 I I #
edge $-1 $361 -13.622634067309026 $208 -2.3889954876164445 $298 $368 forward 7 unknown #
point $-1 61.018707846308786 -2.3889954876164445 10.416371781685097 #
point $-1 53.907749599725605 -2.3889954876164445 10.4163717816851 #
edge $-1 $369 1 $369 0 $211 $-1 forward 7 unknown #
vertex $-1 $212 $370 #
ellipse-curve $-1 52.03733552288454 -8.0058147774627351 1.6093878084563364 0.79863551827123203 0 0.60181501223851219 1.5045375305962805 0 -1.9965887956780801 1 I I #
point $-1 58.967766253613455 -8.0058147774627351 3.701502692913972 #
plane-surface $-1 61.018707846308786 0 0 -1 0 0 0 0 1 forward_v I I I I #
coedge $-1 $314 $223 $226 $322 forward $216 $-1 #
coedge $-1 $223 $314 $218 $313 reversed $216 $-1 #
edge $-1 $319 -10.416371781685097 $326 10.416371781685097 $312 $371 forward 7 unknown #
coedge $-1 $312 $311 $219 $315 reversed $216 $-1 #
edge $-1 $326 -61.018707846308786 $316 61.018707846308786 $314 $372 forward 7 unknown #
vertex $-1 $221 $373 #
straight-curve $-1 61.018707846308786 0 -10.416371781685097 0 -1 0 I I #
edge $-1 $319 -28.634863389443819 $234 28.634863389443819 $232 $374 forward 7 unknown #
vertex $-1 $224 $375 #
straight-curve $-1 0 28.634863389443819 10.416371781685097 -1 0 0 I I #
straight-curve $-1 0 -28.634863389443819 10.416371781685097 1 0 0 I I #
edge $-1 $229 -10.416371781685097 $316 10.416371781685097 $226 $376 forward 7 unknown #
point $-1 61.018707846308786 -28.634863389443819 10.416371781685097 #
point $-1 61.018707846308786 28.634863389443819 10.416371781685097 #
point $-1 -61.018707846308786 -28.634863389443819 10.416371781685097 #
vertex $-1 $315 $377 #
straight-curve $-1 -61.018707846308786 0 -10.416371781685097 0 1 0 I I #
plane-surface $-1 0 0 10.416371781685097 0 0 1 1 0 0 forward_v I I I I #
coedge $-1 $247 $341 $330 $378 forward $240 $-1 #
coedge $-1 $243 $242 $329 $378 reversed $96 $-1 #
edge $-1 $337 -3.1197616818225455 $335 3.1197616818225455 $242 $379 forward 7 unknown #
coedge $-1 $255 $254 $243 $333 forward $256 $-1 #
edge $-1 $334 -3.1197616818225455 $380 3.1197616818225455 $243 $381 forward 7 unknown #
vertex $-1 $259 $382 #
vertex $-1 $249 $383 #
straight-curve $-1 -46.425487646583683 -41.547546786169612 0 0 0 -1 I I #
vertex $-1 $378 $384 #
straight-curve $-1 -40.185964282938592 -35.091205087806713 -10.416371781685097 0 -1 0 I I #
straight-curve $-1 -46.425487646583683 -35.091205087806713 -10.416371781685097 0 1 0 I I #
point $-1 -40.185964282938592 -28.634863389443815 -10.416371781685097 #
coedge $-1 $329 $252 $255 $343 reversed $240 $-1 #
straight-curve $-1 -40.185964282938592 -28.634863389443819 0 0 0 -1 I I #
edge $-1 $380 -6.4563416983628983 $257 6.4563416983628983 $341 $385 forward 7 unknown #
point $-1 -40.185964282938592 -28.634863389443815 10.416371781685097 #
straight-curve $-1 -46.425487646583683 -35.091205087806713 10.416371781685097 0 -1 0 I I #
edge $-1 $347 25.416309052069874 $350 28.83729515131408 $263 $386 forward 7 unknown #
vertex $-1 $277 $387 #
straight-curve $-1 -82.256153425692077 -2.9803775494410978 10.416371781685097 -1 0 0 I I #
edge $-1 $350 -1.6952618360986822 $274 11.046540607178242 $273 $388 forward 7 unknown #
vertex $-1 $349 $389 #
straight-curve $-1 -61.018707846308772 -2.9803775494410978 6.9953856824409115 0.52991925155115449 0 0.84804810408105047 I I #
point $-1 -58.881038550717584 -2.9803775494410978 10.416371781685097 #
point $-1 -61.018707846308786 -15.722179992718022 6.9953856824408884 #
straight-curve $-1 -61.018707846308786 0 10.416371781685097 0 -1 0 I I #
vertex $-1 $280 $390 #
point $-1 -58.123257071495559 -12.081665008924613 8.1540715307397491 #
vertex $-1 $284 $391 #
point $-1 -58.123257071495559 -6.6208925332344997 8.1540715307397491 #
coedge $-1 $299 $298 $291 $360 forward $288 $-1 #
edge $-1 $361 75.52721559044663 $364 84.963776176632734 $359 $392 forward 7 unknown #
vertex $-1 $303 $393 #
straight-curve $-1 42.519086878927581 -13.622634067309026 10.4163717816851 1 0 0 I I #
edge $-1 $364 -9.6197266785776581 $300 1.613911901114923 $299 $394 forward 7 unknown #
vertex $-1 $363 $395 #
straight-curve $-1 -12.425240972300259 -13.622634067309026 98.443225925654417 -0.60181501223851219 0 0.79863551827123203 I I #
point $-1 53.907749599725605 -13.622634067309026 10.4163717816851 #
point $-1 61.018707846308786 -2.3889954876164445 0.97981119549899631 #
straight-curve $-1 61.018707846308786 0 10.416371781685097 0 1 0 I I #
vertex $-1 $306 $396 #
point $-1 53.54187305348082 -8.0058147774627351 -0.3872009872217439 #
straight-curve $-1 -61.018707846308786 28.634863389443819 0 0 0 -1 I I #
straight-curve $-1 0 28.634863389443819 -10.416371781685097 1 0 0 I I #
point $-1 61.018707846308786 28.634863389443819 -10.416371781685097 #
straight-curve $-1 -61.018707846308786 0 10.416371781685097 0 -1 0 I I #
point $-1 -61.018707846308786 28.634863389443819 10.416371781685097 #
straight-curve $-1 61.018707846308786 28.634863389443819 0 0 0 -1 I I #
point $-1 -61.018707846308786 28.634863389443819 -10.416371781685097 #
edge $-1 $380 -10.416371781685097 $337 10.416371781685097 $329 $397 forward 7 unknown #
straight-curve $-1 -43.305725964761137 -41.547546786169612 -10.416371781685097 -1 0 0 I I #
vertex $-1 $343 $398 #
straight-curve $-1 -43.305725964761137 -41.547546786169612 10.416371781685097 1 0 0 I I #
point $-1 -46.425487646583683 -41.547546786169612 10.416371781685097 #
point $-1 -46.425487646583683 -41.547546786169612 -10.416371781685097 #
point $-1 -40.185964282938592 -41.547546786169612 -10.416371781685097 #
straight-curve $-1 -40.185964282938592 -35.091205087806713 10.416371781685097 0 1 0 I I #
straight-curve $-1 -61.018707846308786 -2.9803775494410978 35.832680833754971 0 0 -1 I I #
point $-1 -61.018707846308786 -2.9803775494410978 10.416371781685097 #
straight-curve $-1 -61.018707846308786 -4.67563938553978 6.9953856824408867 0 -1 0 I I #
point $-1 -61.018707846308786 -2.9803775494410978 6.9953856824408884 #
point $-1 -57.964192645230611 -12.081665008924613 7.4650878529236477 #
point $-1 -57.964192645230611 -6.6208925332344997 7.4650878529236477 #
straight-curve $-1 61.018707846308786 -13.622634067309026 85.943587372131731 0 0 -1 I I #
point $-1 61.018707846308786 -13.622634067309026 10.416371781685097 #
straight-curve $-1 61.018707846308786 -4.0029073887313675 0.97981119549900342 0 1 0 I I #
point $-1 61.018707846308786 -13.622634067309026 0.97981119549899631 #
point $-1 50.040746727206461 -8.0058147774627351 0.10485027786005585 #
straight-curve $-1 -40.185964282938592 -41.547546786169612 0 0 0 -1 I I #
point $-1 -40.185964282938592 -41.547546786169612 10.416371781685097 #
End-of-ACIS-data 