500 0 5 0           
7 Unknown 11 ACIS 5.0 NT 24 Fri Mar 26 17:43:16 1999 
-1 9.9999999999999995e-007 1e-010 
body $-1 $5 $-1 $6 #
body $-1 $7 $-1 $8 #
body $-1 $9 $-1 $10 #
body $-1 $11 $-1 $12 #
body $-1 $13 $-1 $14 #
lump $-1 $-1 $15 $0 #
transform $-1 1 0 0 0 1 0 0 0 1 57.898495437482836 37.07380236279019 15.30857145082015 1 rotate no_reflect no_shear #
lump $-1 $-1 $16 $1 #
transform $-1 1 0 0 0 1 0 0 0 1 57.898495437482836 37.07380236279019 15.30857145082015 1 rotate no_reflect no_shear #
lump $-1 $-1 $17 $2 #
transform $-1 1 0 0 0 1 0 0 0 1 57.898495437482836 37.07380236279019 15.30857145082015 1 rotate no_reflect no_shear #
lump $-1 $-1 $18 $3 #
transform $-1 1 0 0 0 1 0 0 0 1 57.898495437482836 37.07380236279019 15.30857145082015 1 rotate no_reflect no_shear #
lump $-1 $-1 $19 $4 #
transform $-1 1 0 0 0 1 0 0 0 1 57.898495437482836 37.07380236279019 15.30857145082015 1 rotate no_reflect no_shear #
shell $-1 $-1 $-1 $20 $-1 $5 #
shell $-1 $-1 $-1 $21 $-1 $7 #
shell $-1 $-1 $-1 $22 $-1 $9 #
shell $-1 $-1 $-1 $23 $-1 $11 #
shell $-1 $-1 $-1 $24 $-1 $13 #
face $-1 $25 $26 $15 $-1 $27 forward single #
face $-1 $28 $29 $16 $-1 $30 forward single #
face $-1 $31 $32 $17 $-1 $33 forward single #
face $-1 $34 $35 $18 $-1 $36 reversed single #
face $-1 $37 $38 $19 $-1 $39 reversed single #
face $-1 $40 $41 $15 $-1 $42 reversed single #
loop $-1 $-1 $43 $20 #
plane-surface $-1 0 0 15.30857145082015 0 0 1 1 0 0 forward_v I I I I #
face $-1 $44 $45 $16 $-1 $46 forward single #
loop $-1 $-1 $47 $21 #
plane-surface $-1 0 -31.975258977678784 10.099629938512823 0 0 1 1 0 0 forward_v I I I I #
face $-1 $48 $49 $17 $-1 $50 forward single #
loop $-1 $-1 $51 $22 #
plane-surface $-1 9.4334720135873056 71.19381706431443 135.37643392898406 1 0 0 0 -0.73135370988377701 -0.68199835119979291 forward_v I I I I #
face $-1 $52 $53 $18 $-1 $54 reversed single #
loop $-1 $55 $56 $23 #
cone-surface $-1 17.488963147084547 27.687552602961549 5.6993373127844018 0 -0.73135370988377701 -0.68199835119979291 3 0 0 1 I I 0 1 3 forward I I I I #
face $-1 $57 $58 $19 $-1 $59 reversed single #
loop $-1 $60 $61 $24 #
cone-surface $-1 29.57219984733041 27.687552602961549 5.6993373127844018 0 -0.73135370988377701 -0.68199835119979291 3 0 0 1 I I 0 1 3 forward I I I I #
face $-1 $62 $63 $15 $-1 $64 reversed single #
loop $-1 $-1 $65 $25 #
plane-surface $-1 0 0 -15.30857145082015 0 0 1 1 0 0 forward_v I I I I #
coedge $-1 $66 $67 $68 $69 forward $26 $-1 #
face $-1 $70 $71 $16 $-1 $72 forward single #
loop $-1 $-1 $73 $28 #
plane-surface $-1 0 -26.876715592567379 12.704100694666487 0 -1 0 0 0 -1 forward_v I I I I #
coedge $-1 $74 $75 $76 $77 reversed $29 $-1 #
face $-1 $78 $79 $17 $-1 $80 forward single #
loop $-1 $-1 $81 $31 #
plane-surface $-1 23.530581497207464 -13.494741805469587 56.403077078359999 0 0.73135370988377701 0.68199835119979291 1 0 0 forward_v I I I I #
coedge $-1 $82 $83 $84 $85 reversed $32 $-1 #
face $-1 $86 $87 $18 $-1 $88 forward single #
loop $-1 $89 $90 $34 #
cone-surface $-1 17.488963147084547 23.327921600431452 1.6339157317035848 0 -0.73135370988377701 -0.68199835119979291 1.5 0 0 1 I I -0.70710678118654757 0.70710678118654757 1.5 forward I I I I #
loop $-1 $-1 $91 $23 #
coedge $-1 $56 $56 $92 $93 reversed $35 $-1 #
face $-1 $94 $95 $19 $-1 $96 reversed single #
loop $-1 $97 $98 $37 #
cone-surface $-1 29.57219984733041 23.327921600431452 1.6339157317035848 0 -0.73135370988377701 -0.68199835119979291 1.5 0 0 1 I I -0.70710678118654757 0.70710678118654757 1.5 forward I I I I #
loop $-1 $-1 $99 $24 #
coedge $-1 $61 $61 $100 $101 reversed $38 $-1 #
face $-1 $102 $103 $15 $-1 $104 reversed single #
loop $-1 $-1 $105 $40 #
plane-surface $-1 0 -37.07380236279019 0 0 1 0 0 0 1 forward_v I I I I #
coedge $-1 $106 $107 $108 $109 forward $41 $-1 #
coedge $-1 $110 $43 $111 $112 forward $26 $-1 #
coedge $-1 $43 $110 $113 $114 forward $26 $-1 #
coedge $-1 $115 $116 $43 $69 reversed $117 $-1 #
edge $-1 $118 -37.07380236279019 $119 37.07380236279019 $68 $120 forward 7 unknown #
face $-1 $121 $122 $16 $-1 $123 reversed single #
loop $-1 $-1 $124 $44 #
plane-surface $-1 0 0 15.30857145082015 0 0 1 1 0 0 forward_v I I I I #
coedge $-1 $125 $126 $127 $128 reversed $45 $-1 #
coedge $-1 $129 $47 $126 $130 reversed $29 $-1 #
coedge $-1 $47 $129 $131 $132 reversed $29 $-1 #
coedge $-1 $133 $127 $47 $77 forward $122 $-1 #
edge $-1 $134 10.889086103727987 $135 21.086172873950797 $76 $136 forward 7 unknown #
face $-1 $137 $138 $17 $-1 $139 forward single #
loop $-1 $-1 $140 $48 #
plane-surface $-1 37.627690980827623 71.19381706431443 135.37643392898406 -1 0 0 0 0.73135370988377701 0.68199835119979291 forward_v I I I I #
coedge $-1 $141 $142 $143 $144 reversed $49 $-1 #
coedge $-1 $83 $51 $142 $145 forward $32 $-1 #
coedge $-1 $51 $82 $146 $147 reversed $32 $-1 #
coedge $-1 $148 $143 $51 $85 forward $138 $-1 #
edge $-1 $149 -10.77040481361545 $150 1.4768938306329744 $84 $151 forward 7 unknown #
face $-1 $152 $153 $18 $-1 $154 forward single #
loop $-1 $-1 $155 $52 #
plane-surface $-1 9.4334720135873056 71.19381706431443 135.37643392898406 1 0 0 0 -0.73135370988377701 -0.68199835119979291 forward_v I I I I #
loop $-1 $-1 $156 $34 #
coedge $-1 $90 $90 $91 $157 forward $53 $-1 #
coedge $-1 $91 $91 $90 $157 reversed $55 $-1 #
coedge $-1 $92 $92 $56 $93 forward $153 $-1 #
edge $-1 $158 -5.4994536013672827e-016 $158 6.2831853071795996 $92 $159 forward 7 unknown #
face $-1 $160 $161 $19 $-1 $162 reversed single #
loop $-1 $163 $164 $57 #
cone-surface $-1 17.488963147084547 27.687552602961549 5.6993373127844018 0 -0.73135370988377701 -0.68199835119979291 3 0 0 1 I I 0 1 3 forward I I I I #
loop $-1 $-1 $165 $37 #
coedge $-1 $98 $98 $99 $166 forward $58 $-1 #
coedge $-1 $99 $99 $98 $166 reversed $60 $-1 #
coedge $-1 $100 $100 $61 $101 forward $167 $-1 #
edge $-1 $168 -5.4994536013672827e-016 $168 6.2831853071795996 $100 $169 forward 7 unknown #
face $-1 $170 $171 $15 $-1 $172 reversed single #
loop $-1 $-1 $173 $62 #
plane-surface $-1 -57.898495437482836 0 0 1 0 0 0 0 -1 forward_v I I I I #
coedge $-1 $174 $113 $175 $176 forward $63 $-1 #
coedge $-1 $177 $65 $174 $178 forward $41 $-1 #
coedge $-1 $65 $177 $179 $180 forward $41 $-1 #
coedge $-1 $116 $115 $65 $109 reversed $117 $-1 #
edge $-1 $181 -37.07380236279019 $182 37.07380236279019 $108 $183 forward 7 unknown #
coedge $-1 $67 $66 $184 $185 forward $26 $-1 #
coedge $-1 $186 $187 $66 $112 reversed $171 $-1 #
edge $-1 $119 -57.898495437482836 $188 57.898495437482836 $111 $189 forward 7 unknown #
coedge $-1 $105 $190 $67 $114 reversed $63 $-1 #
edge $-1 $191 -57.898495437482836 $118 57.898495437482836 $113 $192 forward 7 unknown #
coedge $-1 $108 $68 $190 $193 forward $117 $-1 #
coedge $-1 $68 $108 $186 $194 reversed $117 $-1 #
loop $-1 $-1 $115 $170 #
vertex $-1 $69 $195 #
vertex $-1 $69 $196 #
straight-curve $-1 57.898495437482836 0 15.30857145082015 0 1 0 I I #
face $-1 $197 $198 $16 $-1 $199 reversed single #
loop $-1 $-1 $127 $70 #
plane-surface $-1 57.898495437482836 0 0 -1 0 0 0 0 1 forward_v I I I I #
coedge $-1 $200 $201 $125 $202 forward $71 $-1 #
coedge $-1 $203 $73 $124 $202 reversed $45 $-1 #
coedge $-1 $73 $203 $74 $130 forward $45 $-1 #
coedge $-1 $76 $204 $73 $128 forward $122 $-1 #
edge $-1 $205 -8.9565211034869066 $134 -3.7475795911795799 $127 $206 forward 7 unknown #
coedge $-1 $75 $74 $207 $208 reversed $29 $-1 #
edge $-1 $209 -57.898495437482836 $134 57.898495437482836 $126 $210 forward 7 unknown #
coedge $-1 $211 $212 $75 $132 forward $213 $-1 #
edge $-1 $135 -57.898495437482836 $214 57.898495437482836 $131 $215 forward 7 unknown #
coedge $-1 $216 $76 $212 $217 forward $122 $-1 #
vertex $-1 $77 $218 #
vertex $-1 $217 $219 #
straight-curve $-1 57.898495437482836 -15.987629488839392 10.099629938512823 0 -1 0 I I #
face $-1 $220 $221 $17 $-1 $222 forward single #
loop $-1 $-1 $223 $78 #
plane-surface $-1 0 0 15.30857145082015 0 0 1 1 0 0 forward_v I I I I #
coedge $-1 $224 $225 $223 $226 reversed $79 $-1 #
coedge $-1 $227 $81 $225 $228 reversed $49 $-1 #
coedge $-1 $81 $227 $82 $145 reversed $49 $-1 #
coedge $-1 $84 $223 $81 $144 forward $138 $-1 #
edge $-1 $229 -25.862400232223891 $149 2.3318187350164266 $143 $230 forward 7 unknown #
edge $-1 $149 56.189645409839201 $231 74.147604725580351 $82 $232 forward 7 unknown #
coedge $-1 $233 $234 $83 $147 forward $235 $-1 #
edge $-1 $150 52.379645513671875 $231 65.513265681181096 $146 $236 forward 7 unknown #
coedge $-1 $237 $84 $234 $238 forward $138 $-1 #
vertex $-1 $144 $239 #
vertex $-1 $238 $240 #
straight-curve $-1 9.4334720135873056 35.596908532157215 15.308571450820153 0 1 0 I I #
face $-1 $241 $242 $18 $-1 $243 forward single #
loop $-1 $244 $92 $86 #
plane-surface $-1 23.530581497207464 -13.494741805469587 56.403077078359999 0 0.73135370988377701 0.68199835119979291 1 0 0 forward_v I I I I #
coedge $-1 $245 $246 $247 $248 reversed $87 $-1 #
coedge $-1 $156 $156 $-1 $249 forward $89 $-1 #
edge $-1 $250 0 $250 6.2831853071796004 $90 $251 forward 7 unknown #
vertex $-1 $93 $252 #
ellipse-curve $-1 17.488963147084547 30.950153040665988 8.7417613670655374 0 -0.73135370988377701 -0.68199835119979291 3 0 0 1 I I #
face $-1 $253 $254 $19 $-1 $255 forward single #
loop $-1 $256 $257 $94 #
cone-surface $-1 17.488963147084547 23.327921600431452 1.6339157317035848 0 -0.73135370988377701 -0.68199835119979291 1.5 0 0 1 I I -0.70710678118654757 0.70710678118654757 1.5 forward I I I I #
loop $-1 $-1 $258 $57 #
coedge $-1 $164 $164 $259 $260 reversed $95 $-1 #
coedge $-1 $165 $165 $-1 $261 forward $97 $-1 #
edge $-1 $262 0 $262 6.2831853071796004 $98 $263 forward 7 unknown #
loop $-1 $264 $100 $253 #
vertex $-1 $101 $265 #
ellipse-curve $-1 29.57219984733041 30.950153040665988 8.7417613670655374 0 -0.73135370988377701 -0.68199835119979291 3 0 0 1 I I #
face $-1 $-1 $117 $15 $-1 $266 reversed single #
loop $-1 $-1 $186 $102 #
plane-surface $-1 0 37.07380236279019 0 0 -1 0 0 0 -1 forward_v I I I I #
coedge $-1 $267 $184 $187 $268 forward $103 $-1 #
coedge $-1 $190 $105 $106 $178 reversed $63 $-1 #
coedge $-1 $184 $267 $105 $176 reversed $103 $-1 #
edge $-1 $191 -15.30857145082015 $269 15.30857145082015 $175 $270 forward 7 unknown #
coedge $-1 $107 $106 $267 $271 forward $41 $-1 #
edge $-1 $182 -57.898495437482836 $269 57.898495437482836 $174 $272 forward 7 unknown #
coedge $-1 $187 $186 $107 $180 reversed $171 $-1 #
edge $-1 $273 -57.898495437482836 $181 57.898495437482836 $179 $274 forward 7 unknown #
vertex $-1 $109 $275 #
vertex $-1 $193 $276 #
straight-curve $-1 57.898495437482836 0 -15.30857145082015 0 -1 0 I I #
coedge $-1 $173 $175 $110 $185 reversed $103 $-1 #
edge $-1 $188 -37.07380236279019 $191 37.07380236279019 $184 $277 forward 7 unknown #
coedge $-1 $179 $111 $116 $194 forward $171 $-1 #
coedge $-1 $111 $179 $173 $268 reversed $171 $-1 #
vertex $-1 $112 $278 #
straight-curve $-1 0 37.07380236279019 15.30857145082015 -1 0 0 I I #
coedge $-1 $113 $174 $115 $193 reversed $63 $-1 #
vertex $-1 $185 $279 #
straight-curve $-1 0 -37.07380236279019 15.30857145082015 1 0 0 I I #
edge $-1 $118 -15.30857145082015 $182 15.30857145082015 $115 $280 forward 7 unknown #
edge $-1 $119 -15.30857145082015 $181 15.30857145082015 $116 $281 forward 7 unknown #
point $-1 57.898495437482836 -37.07380236279019 15.30857145082015 #
point $-1 57.898495437482836 37.07380236279019 15.30857145082015 #
face $-1 $282 $213 $16 $-1 $283 reversed single #
loop $-1 $-1 $284 $121 #
plane-surface $-1 0 0 -15.30857145082015 0 0 1 1 0 0 forward_v I I I I #
coedge $-1 $285 $124 $204 $286 forward $71 $-1 #
coedge $-1 $124 $285 $287 $288 forward $71 $-1 #
edge $-1 $289 -57.898495437482836 $205 57.898495437482836 $124 $290 forward 7 unknown #
coedge $-1 $126 $125 $291 $292 reversed $45 $-1 #
coedge $-1 $127 $293 $200 $286 reversed $122 $-1 #
vertex $-1 $286 $294 #
straight-curve $-1 57.898495437482836 -26.876715592567379 6.3520503473332433 0 0 -1 I I #
coedge $-1 $291 $295 $129 $208 forward $296 $-1 #
edge $-1 $214 -21.086172873950797 $209 -10.889086103727987 $207 $297 forward 7 unknown #
vertex $-1 $208 $298 #
straight-curve $-1 0 -26.876715592567379 10.099629938512823 1 0 0 I I #
coedge $-1 $299 $131 $295 $300 forward $213 $-1 #
coedge $-1 $131 $299 $133 $217 reversed $213 $-1 #
loop $-1 $-1 $131 $197 #
vertex $-1 $300 $301 #
straight-curve $-1 0 -37.07380236279019 10.099629938512823 -1 0 0 I I #
coedge $-1 $293 $133 $284 $302 reversed $122 $-1 #
edge $-1 $135 -10.099629938512823 $303 15.30857145082015 $133 $304 forward 7 unknown #
point $-1 57.898495437482836 -26.876715592567379 10.099629938512823 #
point $-1 57.898495437482836 -37.07380236279019 10.099629938512823 #
face $-1 $305 $306 $17 $-1 $307 forward single #
loop $-1 $-1 $308 $137 #
plane-surface $-1 0 -31.975258977678784 10.099629938512823 0 0 1 1 0 0 forward_v I I I I #
coedge $-1 $143 $309 $140 $226 forward $138 $-1 #
coedge $-1 $225 $140 $310 $311 reversed $79 $-1 #
coedge $-1 $140 $224 $141 $228 forward $79 $-1 #
edge $-1 $312 -1.4768938306329744 $229 10.77040481361545 $223 $313 forward 7 unknown #
coedge $-1 $142 $141 $233 $314 reversed $49 $-1 #
edge $-1 $315 -74.147604725580351 $229 -56.189645409839201 $225 $316 forward 7 unknown #
vertex $-1 $144 $317 #
straight-curve $-1 11.765290748603732 24.826503718541762 15.308571450820146 -1 0 0 I I #
vertex $-1 $314 $318 #
straight-curve $-1 9.4334720135873056 -13.494741805469587 56.403077078359999 0 0.68199835119979291 -0.73135370988377701 I I #
coedge $-1 $310 $146 $227 $314 forward $235 $-1 #
coedge $-1 $146 $319 $148 $238 reversed $235 $-1 #
loop $-1 $-1 $310 $320 #
straight-curve $-1 9.4334720135873056 37.07380236279019 67.688216964492028 0 0 -1 I I #
coedge $-1 $321 $148 $322 $323 forward $138 $-1 #
edge $-1 $150 -9.4334720135873056 $324 57.898495437482836 $234 $325 forward 7 unknown #
point $-1 9.4334720135873056 24.826503718541765 15.308571450820153 #
point $-1 9.4334720135873056 37.07380236279019 15.30857145082015 #
face $-1 $326 $327 $18 $-1 $328 forward single #
loop $-1 $-1 $329 $152 #
plane-surface $-1 37.627690980827623 71.19381706431443 135.37643392898406 -1 0 0 0 0.73135370988377701 0.68199835119979291 forward_v I I I I #
loop $-1 $-1 $330 $86 #
coedge $-1 $246 $155 $331 $332 forward $87 $-1 #
coedge $-1 $155 $245 $333 $334 reversed $87 $-1 #
coedge $-1 $335 $336 $155 $248 forward $327 $-1 #
edge $-1 $337 -10.77040481361545 $338 1.4768938306329744 $247 $339 forward 7 unknown #
edge $-1 $340 1 $340 0 $156 $-1 forward 7 unknown #
vertex $-1 $157 $341 #
ellipse-curve $-1 17.488963147084547 24.424952165257118 2.6569132585032742 0 0.73135370988377701 0.68199835119979291 3 0 0 1 I I #
point $-1 20.488963147084547 30.950153040665981 8.7417613670655285 #
face $-1 $342 $167 $19 $-1 $343 forward single #
loop $-1 $-1 $344 $160 #
plane-surface $-1 9.4334720135873056 71.19381706431443 135.37643392898406 1 0 0 0 -0.73135370988377701 -0.68199835119979291 forward_v I I I I #
loop $-1 $-1 $345 $94 #
coedge $-1 $257 $257 $258 $346 forward $161 $-1 #
coedge $-1 $258 $258 $257 $346 reversed $163 $-1 #
coedge $-1 $259 $259 $164 $260 forward $264 $-1 #
edge $-1 $347 -5.4994536013672827e-016 $347 6.2831853071795996 $259 $348 forward 7 unknown #
edge $-1 $349 1 $349 0 $165 $-1 forward 7 unknown #
vertex $-1 $166 $350 #
ellipse-curve $-1 29.57219984733041 24.424952165257118 2.6569132585032742 0 0.73135370988377701 0.68199835119979291 3 0 0 1 I I #
loop $-1 $351 $259 $253 #
point $-1 32.57219984733041 30.950153040665981 8.7417613670655285 #
plane-surface $-1 57.898495437482836 0 0 -1 0 0 0 0 1 forward_v I I I I #
coedge $-1 $175 $173 $177 $271 reversed $103 $-1 #
edge $-1 $188 -15.30857145082015 $273 15.30857145082015 $187 $352 forward 7 unknown #
vertex $-1 $271 $353 #
straight-curve $-1 -57.898495437482836 -37.07380236279019 0 0 0 -1 I I #
edge $-1 $269 -37.07380236279019 $273 37.07380236279019 $267 $354 forward 7 unknown #
straight-curve $-1 0 -37.07380236279019 -15.30857145082015 -1 0 0 I I #
vertex $-1 $180 $355 #
straight-curve $-1 0 37.07380236279019 -15.30857145082015 1 0 0 I I #
point $-1 57.898495437482836 37.07380236279019 -15.30857145082015 #
point $-1 57.898495437482836 -37.07380236279019 -15.30857145082015 #
straight-curve $-1 -57.898495437482836 0 15.30857145082015 0 -1 0 I I #
point $-1 -57.898495437482836 37.07380236279019 15.30857145082015 #
point $-1 -57.898495437482836 -37.07380236279019 15.30857145082015 #
straight-curve $-1 57.898495437482836 -37.07380236279019 0 0 0 -1 I I #
straight-curve $-1 57.898495437482836 37.07380236279019 0 0 0 -1 I I #
face $-1 $356 $296 $16 $-1 $357 reversed single #
plane-surface $-1 0 -37.07380236279019 0 0 1 0 0 0 1 forward_v I I I I #
coedge $-1 $358 $359 $216 $302 forward $198 $-1 #
coedge $-1 $201 $200 $360 $361 forward $71 $-1 #
edge $-1 $205 -26.876715592567379 $362 37.07380236279019 $204 $363 forward 7 unknown #
coedge $-1 $364 $291 $201 $288 reversed $296 $-1 #
edge $-1 $365 -37.07380236279019 $289 26.876715592567379 $287 $366 forward 7 unknown #
vertex $-1 $292 $367 #
straight-curve $-1 0 -26.876715592567379 15.30857145082015 1 0 0 I I #
coedge $-1 $287 $207 $203 $292 forward $296 $-1 #
edge $-1 $209 3.7475795911795799 $289 8.9565211034869066 $291 $368 forward 7 unknown #
coedge $-1 $204 $216 $369 $370 reversed $122 $-1 #
point $-1 57.898495437482836 -26.876715592567379 15.30857145082015 #
coedge $-1 $207 $371 $211 $300 reversed $296 $-1 #
loop $-1 $-1 $291 $282 #
straight-curve $-1 -57.898495437482836 -15.987629488839392 10.099629938512823 0 1 0 I I #
point $-1 -57.898495437482836 -26.876715592567379 10.099629938512823 #
coedge $-1 $212 $211 $358 $372 reversed $213 $-1 #
edge $-1 $214 -10.099629938512823 $373 15.30857145082015 $295 $374 forward 7 unknown #
point $-1 -57.898495437482836 -37.07380236279019 10.099629938512823 #
edge $-1 $375 -37.07380236279019 $303 37.07380236279019 $216 $376 forward 7 unknown #
vertex $-1 $217 $377 #
straight-curve $-1 57.898495437482836 -37.07380236279019 0 0 0 -1 I I #
face $-1 $378 $379 $17 $-1 $380 reversed single #
loop $-1 $-1 $381 $220 #
plane-surface $-1 0 -26.876715592567379 12.704100694666487 0 -1 0 0 0 -1 forward_v I I I I #
coedge $-1 $382 $383 $384 $385 reversed $221 $-1 #
coedge $-1 $223 $386 $387 $388 forward $138 $-1 #
coedge $-1 $387 $233 $224 $311 forward $235 $-1 #
edge $-1 $315 -65.513265681181096 $312 -52.379645513671875 $310 $389 forward 7 unknown #
vertex $-1 $311 $390 #
straight-curve $-1 37.627690980827623 35.596908532157215 15.308571450820153 0 -1 0 I I #
edge $-1 $231 -2.3318187350164266 $315 25.862400232223891 $233 $391 forward 7 unknown #
vertex $-1 $314 $392 #
straight-curve $-1 37.627690980827623 -13.494741805469587 56.403077078359999 0 -0.68199835119979291 0.73135370988377701 I I #
point $-1 37.627690980827623 24.826503718541765 15.308571450820153 #
point $-1 9.4334720135873056 37.073802362790182 2.1749512833109321 #
coedge $-1 $234 $393 $394 $395 reversed $235 $-1 #
face $-1 $-1 $235 $17 $-1 $396 reversed single #
coedge $-1 $386 $237 $397 $398 forward $138 $-1 #
coedge $-1 $394 $399 $237 $323 reversed $400 $-1 #
edge $-1 $324 -37.07380236279019 $401 26.876715592567379 $322 $402 forward 7 unknown #
vertex $-1 $238 $403 #
straight-curve $-1 0 37.07380236279019 15.30857145082015 -1 0 0 I I #
face $-1 $404 $405 $18 $-1 $406 forward single #
loop $-1 $-1 $407 $241 #
plane-surface $-1 0 0 15.30857145082015 0 0 1 1 0 0 forward_v I I I I #
coedge $-1 $408 $409 $407 $410 reversed $242 $-1 #
coedge $-1 $411 $331 $336 $412 reversed $244 $-1 #
coedge $-1 $330 $413 $245 $332 reversed $244 $-1 #
edge $-1 $337 56.189645409839201 $414 74.147604725580351 $245 $415 forward 7 unknown #
coedge $-1 $416 $417 $246 $334 forward $418 $-1 #
edge $-1 $338 52.379645513671875 $414 65.513265681181096 $333 $419 forward 7 unknown #
coedge $-1 $420 $247 $417 $421 forward $327 $-1 #
coedge $-1 $247 $407 $330 $412 forward $327 $-1 #
vertex $-1 $412 $422 #
vertex $-1 $421 $423 #
straight-curve $-1 9.4334720135873056 35.596908532157215 15.308571450820153 0 1 0 I I #
vertex $-1 $249 $424 #
point $-1 20.488963147084547 24.424952165257118 2.6569132585032742 #
face $-1 $425 $426 $19 $-1 $427 forward single #
plane-surface $-1 23.530581497207464 -13.494741805469587 56.403077078359999 0 0.73135370988377701 0.68199835119979291 1 0 0 forward_v I I I I #
coedge $-1 $428 $429 $430 $431 reversed $254 $-1 #
coedge $-1 $345 $345 $-1 $432 forward $256 $-1 #
edge $-1 $433 0 $433 6.2831853071796004 $257 $434 forward 7 unknown #
vertex $-1 $260 $435 #
ellipse-curve $-1 17.488963147084547 30.950153040665988 8.7417613670655374 0 -0.73135370988377701 -0.68199835119979291 3 0 0 1 I I #
vertex $-1 $261 $436 #
point $-1 32.57219984733041 24.424952165257118 2.6569132585032742 #
loop $-1 $-1 $437 $253 #
straight-curve $-1 -57.898495437482836 37.07380236279019 0 0 0 -1 I I #
point $-1 -57.898495437482836 -37.07380236279019 -15.30857145082015 #
straight-curve $-1 -57.898495437482836 0 -15.30857145082015 0 1 0 I I #
point $-1 -57.898495437482836 37.07380236279019 -15.30857145082015 #
face $-1 $-1 $438 $16 $-1 $439 reversed single #
plane-surface $-1 -57.898495437482836 0 0 1 0 0 0 0 -1 forward_v I I I I #
coedge $-1 $440 $284 $299 $372 forward $198 $-1 #
coedge $-1 $284 $440 $441 $442 forward $198 $-1 #
coedge $-1 $369 $443 $285 $361 reversed $438 $-1 #
edge $-1 $362 -57.898495437482836 $365 57.898495437482836 $360 $444 forward 7 unknown #
vertex $-1 $286 $445 #
straight-curve $-1 57.898495437482836 0 15.30857145082015 0 1 0 I I #
coedge $-1 $371 $287 $443 $446 forward $296 $-1 #
vertex $-1 $361 $447 #
straight-curve $-1 -57.898495437482836 0 15.30857145082015 0 -1 0 I I #
point $-1 -57.898495437482836 -26.876715592567379 15.30857145082015 #
straight-curve $-1 -57.898495437482836 -26.876715592567379 6.3520503473332433 0 0 1 I I #
coedge $-1 $441 $360 $293 $370 forward $438 $-1 #
edge $-1 $362 -15.30857145082015 $375 15.30857145082015 $293 $448 forward 7 unknown #
coedge $-1 $295 $364 $440 $449 reversed $296 $-1 #
edge $-1 $303 -57.898495437482836 $373 57.898495437482836 $299 $450 forward 7 unknown #
vertex $-1 $449 $451 #
straight-curve $-1 -57.898495437482836 -37.07380236279019 0 0 0 -1 I I #
vertex $-1 $302 $452 #
straight-curve $-1 57.898495437482836 0 -15.30857145082015 0 -1 0 I I #
point $-1 57.898495437482836 -37.07380236279019 -15.30857145082015 #
face $-1 $453 $454 $17 $-1 $455 reversed single #
loop $-1 $-1 $456 $305 #
plane-surface $-1 57.898495437482836 0 0 -1 0 0 0 0 1 forward_v I I I I #
coedge $-1 $397 $457 $456 $458 reversed $306 $-1 #
coedge $-1 $459 $308 $457 $460 reversed $221 $-1 #
coedge $-1 $308 $459 $461 $462 reversed $221 $-1 #
coedge $-1 $463 $456 $308 $385 forward $379 $-1 #
edge $-1 $464 10.889086103727987 $465 21.086172873950797 $384 $466 forward 7 unknown #
coedge $-1 $309 $321 $467 $468 forward $138 $-1 #
coedge $-1 $469 $310 $309 $388 reversed $235 $-1 #
edge $-1 $470 -57.898495437482836 $312 -37.627690980827623 $387 $325 forward 7 unknown #
straight-curve $-1 37.627690980827623 37.07380236279019 67.688216964492028 0 0 1 I I #
point $-1 37.627690980827623 37.07380236279019 15.30857145082015 #
straight-curve $-1 11.765290748603732 37.07380236279019 2.1749512833109286 1 0 0 I I #
point $-1 37.627690980827623 37.073802362790182 2.1749512833109321 #
coedge $-1 $319 $469 $471 $472 reversed $235 $-1 #
coedge $-1 $473 $322 $319 $395 forward $400 $-1 #
edge $-1 $324 -15.30857145082015 $474 15.30857145082015 $319 $475 forward 7 unknown #
plane-surface $-1 0 37.07380236279019 0 0 -1 0 0 0 -1 forward_v I I I I #
coedge $-1 $476 $381 $321 $398 reversed $306 $-1 #
edge $-1 $401 -57.898495437482836 $477 57.898495437482836 $321 $478 forward 7 unknown #
coedge $-1 $322 $479 $476 $480 forward $400 $-1 #
loop $-1 $-1 $399 $481 #
vertex $-1 $480 $482 #
straight-curve $-1 -57.898495437482836 0 15.30857145082015 0 -1 0 I I #
point $-1 -57.898495437482836 37.07380236279019 15.30857145082015 #
face $-1 $483 $484 $18 $-1 $485 forward single #
loop $-1 $-1 $486 $326 #
plane-surface $-1 0 -31.975258977678784 10.099629938512823 0 0 1 1 0 0 forward_v I I I I #
coedge $-1 $336 $487 $329 $410 forward $327 $-1 #
coedge $-1 $409 $329 $488 $489 reversed $242 $-1 #
coedge $-1 $329 $408 $411 $490 forward $242 $-1 #
edge $-1 $491 -1.4768938306329744 $492 10.77040481361545 $407 $493 forward 7 unknown #
coedge $-1 $413 $330 $409 $490 reversed $244 $-1 #
edge $-1 $492 -25.862400232223891 $337 2.3318187350164266 $336 $494 forward 7 unknown #
coedge $-1 $331 $411 $416 $495 reversed $244 $-1 #
vertex $-1 $495 $496 #
straight-curve $-1 9.4334720135873056 -13.494741805469587 56.403077078359999 0 0.68199835119979291 -0.73135370988377701 I I #
coedge $-1 $488 $333 $413 $495 forward $418 $-1 #
coedge $-1 $333 $497 $335 $421 reversed $418 $-1 #
loop $-1 $-1 $488 $498 #
straight-curve $-1 9.4334720135873056 37.07380236279019 67.688216964492028 0 0 -1 I I #
coedge $-1 $499 $335 $500 $501 forward $327 $-1 #
edge $-1 $338 -9.4334720135873056 $502 57.898495437482836 $417 $503 forward 7 unknown #
point $-1 9.4334720135873056 24.826503718541765 15.308571450820153 #
point $-1 9.4334720135873056 37.07380236279019 15.30857145082015 #
point $-1 17.488963147084547 22.230891035605786 0.61091820490389548 #
face $-1 $504 $505 $19 $-1 $506 forward single #
loop $-1 $-1 $507 $342 #
plane-surface $-1 37.627690980827623 71.19381706431443 135.37643392898406 -1 0 0 0 0.73135370988377701 0.68199835119979291 forward_v I I I I #
coedge $-1 $429 $344 $508 $509 forward $254 $-1 #
coedge $-1 $344 $428 $510 $511 reversed $254 $-1 #
coedge $-1 $512 $513 $344 $431 forward $505 $-1 #
edge $-1 $514 -10.77040481361545 $515 1.4768938306329744 $430 $516 forward 7 unknown #
edge $-1 $517 1 $517 0 $345 $-1 forward 7 unknown #
vertex $-1 $346 $518 #
ellipse-curve $-1 17.488963147084547 24.424952165257118 2.6569132585032742 0 0.73135370988377701 0.68199835119979291 3 0 0 1 I I #
point $-1 20.488963147084547 30.950153040665981 8.7417613670655285 #
point $-1 29.57219984733041 22.230891035605786 0.61091820490389548 #
coedge $-1 $519 $508 $513 $520 reversed $351 $-1 #
loop $-1 $-1 $369 $356 #
plane-surface $-1 0 37.07380236279019 0 0 -1 0 0 0 -1 forward_v I I I I #
coedge $-1 $359 $358 $371 $449 forward $198 $-1 #
coedge $-1 $443 $369 $359 $442 reversed $438 $-1 #
edge $-1 $521 -57.898495437482836 $375 57.898495437482836 $441 $522 forward 7 unknown #
coedge $-1 $360 $441 $364 $446 reversed $438 $-1 #
straight-curve $-1 0 37.07380236279019 15.30857145082015 -1 0 0 I I #
point $-1 57.898495437482836 37.07380236279019 15.30857145082015 #
edge $-1 $365 -15.30857145082015 $521 15.30857145082015 $443 $523 forward 7 unknown #
point $-1 -57.898495437482836 37.07380236279019 15.30857145082015 #
straight-curve $-1 57.898495437482836 37.07380236279019 0 0 0 -1 I I #
edge $-1 $373 -37.07380236279019 $521 37.07380236279019 $371 $524 forward 7 unknown #
straight-curve $-1 0 -37.07380236279019 -15.30857145082015 -1 0 0 I I #
point $-1 -57.898495437482836 -37.07380236279019 -15.30857145082015 #
point $-1 57.898495437482836 37.07380236279019 -15.30857145082015 #
face $-1 $481 $525 $17 $-1 $526 reversed single #
loop $-1 $-1 $527 $378 #
plane-surface $-1 0 0 -15.30857145082015 0 0 1 1 0 0 forward_v I I I I #
coedge $-1 $384 $467 $381 $458 forward $379 $-1 #
coedge $-1 $381 $476 $382 $460 forward $306 $-1 #
edge $-1 $477 -8.9565211034869066 $464 -3.7475795911795799 $456 $528 forward 7 unknown #
coedge $-1 $383 $382 $479 $529 reversed $221 $-1 #
edge $-1 $530 -57.898495437482836 $464 57.898495437482836 $457 $531 forward 7 unknown #
coedge $-1 $532 $533 $383 $462 forward $525 $-1 #
edge $-1 $465 -57.898495437482836 $534 57.898495437482836 $461 $535 forward 7 unknown #
coedge $-1 $536 $384 $533 $537 forward $379 $-1 #
vertex $-1 $385 $538 #
vertex $-1 $537 $539 #
straight-curve $-1 57.898495437482836 -15.987629488839392 10.099629938512823 0 -1 0 I I #
coedge $-1 $456 $540 $386 $468 reversed $379 $-1 #
edge $-1 $477 -26.876715592567379 $470 37.07380236279019 $467 $541 forward 7 unknown #
coedge $-1 $393 $387 $540 $542 forward $235 $-1 #
vertex $-1 $468 $543 #
coedge $-1 $527 $544 $393 $472 forward $454 $-1 #
edge $-1 $474 -57.898495437482836 $545 57.898495437482836 $393 $546 forward 7 unknown #
coedge $-1 $547 $394 $544 $548 reversed $400 $-1 #
vertex $-1 $472 $549 #
straight-curve $-1 -57.898495437482836 37.07380236279019 0 0 0 -1 I I #
coedge $-1 $457 $397 $399 $480 reversed $306 $-1 #
vertex $-1 $468 $550 #
straight-curve $-1 0 -26.876715592567379 15.30857145082015 1 0 0 I I #
coedge $-1 $399 $547 $459 $529 forward $400 $-1 #
edge $-1 $530 3.7475795911795799 $401 8.9565211034869066 $399 $551 forward 7 unknown #
face $-1 $320 $400 $17 $-1 $552 reversed single #
point $-1 -57.898495437482836 -26.876715592567379 15.30857145082015 #
face $-1 $553 $554 $18 $-1 $555 reversed single #
loop $-1 $-1 $556 $404 #
plane-surface $-1 0 -26.876715592567379 12.704100694666487 0 -1 0 0 0 -1 forward_v I I I I #
coedge $-1 $557 $558 $559 $560 reversed $405 $-1 #
coedge $-1 $407 $561 $562 $563 forward $327 $-1 #
coedge $-1 $562 $416 $408 $489 forward $418 $-1 #
edge $-1 $564 -65.513265681181096 $491 -52.379645513671875 $488 $565 forward 7 unknown #
edge $-1 $564 -74.147604725580351 $492 -56.189645409839201 $409 $566 forward 7 unknown #
vertex $-1 $489 $567 #
vertex $-1 $412 $568 #
straight-curve $-1 37.627690980827623 35.596908532157215 15.308571450820153 0 -1 0 I I #
straight-curve $-1 11.765290748603732 24.826503718541762 15.308571450820146 -1 0 0 I I #
edge $-1 $414 -2.3318187350164266 $564 25.862400232223891 $416 $569 forward 7 unknown #
point $-1 9.4334720135873056 37.073802362790182 2.1749512833109321 #
coedge $-1 $417 $570 $571 $572 reversed $418 $-1 #
face $-1 $-1 $418 $18 $-1 $573 reversed single #
coedge $-1 $561 $420 $574 $575 forward $327 $-1 #
coedge $-1 $571 $576 $420 $501 reversed $577 $-1 #
edge $-1 $502 -37.07380236279019 $578 26.876715592567379 $500 $579 forward 7 unknown #
vertex $-1 $421 $580 #
straight-curve $-1 0 37.07380236279019 15.30857145082015 -1 0 0 I I #
face $-1 $581 $582 $19 $-1 $583 forward single #
loop $-1 $-1 $584 $425 #
plane-surface $-1 0 0 15.30857145082015 0 0 1 1 0 0 forward_v I I I I #
coedge $-1 $585 $586 $584 $587 reversed $426 $-1 #
coedge $-1 $437 $588 $428 $509 reversed $351 $-1 #
edge $-1 $514 56.189645409839201 $589 74.147604725580351 $428 $590 forward 7 unknown #
coedge $-1 $591 $592 $429 $511 forward $593 $-1 #
edge $-1 $515 52.379645513671875 $589 65.513265681181096 $510 $594 forward 7 unknown #
coedge $-1 $595 $430 $592 $596 forward $505 $-1 #
coedge $-1 $430 $584 $437 $520 forward $505 $-1 #
vertex $-1 $520 $597 #
vertex $-1 $596 $598 #
straight-curve $-1 9.4334720135873056 35.596908532157215 15.308571450820153 0 1 0 I I #
vertex $-1 $432 $599 #
point $-1 20.488963147084547 24.424952165257118 2.6569132585032742 #
coedge $-1 $588 $437 $586 $600 reversed $351 $-1 #
edge $-1 $601 -25.862400232223891 $514 2.3318187350164266 $513 $602 forward 7 unknown #
vertex $-1 $442 $603 #
straight-curve $-1 0 37.07380236279019 -15.30857145082015 1 0 0 I I #
straight-curve $-1 -57.898495437482836 37.07380236279019 0 0 0 -1 I I #
straight-curve $-1 -57.898495437482836 0 -15.30857145082015 0 1 0 I I #
loop $-1 $-1 $461 $453 #
plane-surface $-1 0 -37.07380236279019 0 0 1 0 0 0 1 forward_v I I I I #
coedge $-1 $604 $471 $536 $605 forward $454 $-1 #
straight-curve $-1 57.898495437482836 -26.876715592567379 6.3520503473332433 0 0 -1 I I #
edge $-1 $534 -21.086172873950797 $530 -10.889086103727987 $479 $606 forward 7 unknown #
vertex $-1 $529 $607 #
straight-curve $-1 0 -26.876715592567379 10.099629938512823 1 0 0 I I #
coedge $-1 $608 $461 $547 $609 forward $525 $-1 #
coedge $-1 $461 $608 $463 $537 reversed $525 $-1 #
vertex $-1 $609 $610 #
straight-curve $-1 0 -37.07380236279019 10.099629938512823 -1 0 0 I I #
coedge $-1 $540 $463 $527 $605 reversed $379 $-1 #
edge $-1 $465 -10.099629938512823 $611 15.30857145082015 $463 $612 forward 7 unknown #
point $-1 57.898495437482836 -26.876715592567379 10.099629938512823 #
point $-1 57.898495437482836 -37.07380236279019 10.099629938512823 #
coedge $-1 $467 $536 $469 $542 reversed $379 $-1 #
straight-curve $-1 57.898495437482836 0 15.30857145082015 0 1 0 I I #
edge $-1 $470 -15.30857145082015 $545 15.30857145082015 $540 $613 forward 7 unknown #
point $-1 57.898495437482836 37.07380236279019 15.30857145082015 #
coedge $-1 $471 $604 $473 $548 forward $454 $-1 #
vertex $-1 $605 $614 #
straight-curve $-1 0 37.07380236279019 -15.30857145082015 1 0 0 I I #
coedge $-1 $479 $473 $532 $609 reversed $400 $-1 #
edge $-1 $615 -37.07380236279019 $474 37.07380236279019 $473 $616 forward 7 unknown #
point $-1 -57.898495437482836 37.07380236279019 -15.30857145082015 #
point $-1 57.898495437482836 -26.876715592567379 15.30857145082015 #
straight-curve $-1 -57.898495437482836 -26.876715592567379 6.3520503473332433 0 0 1 I I #
plane-surface $-1 -57.898495437482836 0 0 1 0 0 0 0 -1 forward_v I I I I #
face $-1 $617 $618 $18 $-1 $619 reversed single #
loop $-1 $-1 $620 $483 #
plane-surface $-1 57.898495437482836 0 0 -1 0 0 0 0 1 forward_v I I I I #
coedge $-1 $574 $621 $620 $622 reversed $484 $-1 #
coedge $-1 $623 $486 $621 $624 reversed $405 $-1 #
coedge $-1 $486 $623 $625 $626 reversed $405 $-1 #
coedge $-1 $627 $620 $486 $560 forward $554 $-1 #
edge $-1 $628 10.889086103727987 $629 21.086172873950797 $559 $630 forward 7 unknown #
coedge $-1 $487 $499 $631 $632 forward $327 $-1 #
coedge $-1 $633 $488 $487 $563 reversed $418 $-1 #
edge $-1 $634 -57.898495437482836 $491 -37.627690980827623 $562 $503 forward 7 unknown #
vertex $-1 $495 $635 #
straight-curve $-1 37.627690980827623 37.07380236279019 67.688216964492028 0 0 1 I I #
straight-curve $-1 37.627690980827623 -13.494741805469587 56.403077078359999 0 -0.68199835119979291 0.73135370988377701 I I #
point $-1 37.627690980827623 37.07380236279019 15.30857145082015 #
point $-1 37.627690980827623 24.826503718541765 15.308571450820153 #
straight-curve $-1 11.765290748603732 37.07380236279019 2.1749512833109286 1 0 0 I I #
coedge $-1 $497 $633 $636 $637 reversed $418 $-1 #
coedge $-1 $638 $500 $497 $572 forward $577 $-1 #
edge $-1 $502 -15.30857145082015 $639 15.30857145082015 $497 $640 forward 7 unknown #
plane-surface $-1 0 37.07380236279019 0 0 -1 0 0 0 -1 forward_v I I I I #
coedge $-1 $641 $556 $499 $575 reversed $484 $-1 #
edge $-1 $578 -57.898495437482836 $642 57.898495437482836 $499 $643 forward 7 unknown #
coedge $-1 $500 $644 $641 $645 forward $577 $-1 #
loop $-1 $-1 $576 $646 #
vertex $-1 $645 $647 #
straight-curve $-1 -57.898495437482836 0 15.30857145082015 0 -1 0 I I #
point $-1 -57.898495437482836 37.07380236279019 15.30857145082015 #
face $-1 $648 $649 $19 $-1 $650 forward single #
loop $-1 $-1 $651 $504 #
plane-surface $-1 0 -31.975258977678784 10.099629938512823 0 0 1 1 0 0 forward_v I I I I #
coedge $-1 $513 $652 $507 $587 forward $505 $-1 #
coedge $-1 $586 $507 $653 $654 reversed $426 $-1 #
coedge $-1 $507 $585 $519 $600 forward $426 $-1 #
edge $-1 $655 -1.4768938306329744 $601 10.77040481361545 $584 $656 forward 7 unknown #
coedge $-1 $508 $519 $591 $657 reversed $351 $-1 #
vertex $-1 $657 $658 #
straight-curve $-1 9.4334720135873056 -13.494741805469587 56.403077078359999 0 0.68199835119979291 -0.73135370988377701 I I #
coedge $-1 $653 $510 $588 $657 forward $593 $-1 #
coedge $-1 $510 $659 $512 $596 reversed $593 $-1 #
loop $-1 $-1 $653 $660 #
straight-curve $-1 9.4334720135873056 37.07380236279019 67.688216964492028 0 0 -1 I I #
coedge $-1 $661 $512 $662 $663 forward $505 $-1 #
edge $-1 $515 -9.4334720135873056 $664 57.898495437482836 $592 $665 forward 7 unknown #
point $-1 9.4334720135873056 24.826503718541765 15.308571450820153 #
point $-1 9.4334720135873056 37.07380236279019 15.30857145082015 #
point $-1 17.488963147084547 22.230891035605786 0.61091820490389548 #
edge $-1 $666 -74.147604725580351 $601 -56.189645409839201 $586 $667 forward 7 unknown #
vertex $-1 $520 $668 #
straight-curve $-1 11.765290748603732 24.826503718541762 15.308571450820146 -1 0 0 I I #
point $-1 -57.898495437482836 37.07380236279019 -15.30857145082015 #
coedge $-1 $544 $527 $608 $669 forward $454 $-1 #
edge $-1 $545 -37.07380236279019 $611 37.07380236279019 $536 $670 forward 7 unknown #
straight-curve $-1 -57.898495437482836 -15.987629488839392 10.099629938512823 0 1 0 I I #
point $-1 -57.898495437482836 -26.876715592567379 10.099629938512823 #
coedge $-1 $533 $532 $604 $669 reversed $525 $-1 #
edge $-1 $534 -10.099629938512823 $615 15.30857145082015 $547 $671 forward 7 unknown #
point $-1 -57.898495437482836 -37.07380236279019 10.099629938512823 #
vertex $-1 $537 $672 #
straight-curve $-1 57.898495437482836 -37.07380236279019 0 0 0 -1 I I #
straight-curve $-1 57.898495437482836 37.07380236279019 0 0 0 -1 I I #
point $-1 57.898495437482836 37.07380236279019 -15.30857145082015 #
vertex $-1 $548 $673 #
straight-curve $-1 -57.898495437482836 0 -15.30857145082015 0 1 0 I I #
face $-1 $646 $674 $18 $-1 $675 reversed single #
loop $-1 $-1 $676 $553 #
plane-surface $-1 0 0 -15.30857145082015 0 0 1 1 0 0 forward_v I I I I #
coedge $-1 $559 $631 $556 $622 forward $554 $-1 #
coedge $-1 $556 $641 $557 $624 forward $484 $-1 #
edge $-1 $642 -8.9565211034869066 $628 -3.7475795911795799 $620 $677 forward 7 unknown #
coedge $-1 $558 $557 $644 $678 reversed $405 $-1 #
edge $-1 $679 -57.898495437482836 $628 57.898495437482836 $621 $680 forward 7 unknown #
coedge $-1 $681 $682 $558 $626 forward $674 $-1 #
edge $-1 $629 -57.898495437482836 $683 57.898495437482836 $625 $684 forward 7 unknown #
coedge $-1 $685 $559 $682 $686 forward $554 $-1 #
vertex $-1 $560 $687 #
vertex $-1 $686 $688 #
straight-curve $-1 57.898495437482836 -15.987629488839392 10.099629938512823 0 -1 0 I I #
coedge $-1 $620 $689 $561 $632 reversed $554 $-1 #
edge $-1 $642 -26.876715592567379 $634 37.07380236279019 $631 $690 forward 7 unknown #
coedge $-1 $570 $562 $689 $691 forward $418 $-1 #
vertex $-1 $632 $692 #
point $-1 37.627690980827623 37.073802362790182 2.1749512833109321 #
coedge $-1 $676 $693 $570 $637 forward $618 $-1 #
edge $-1 $639 -57.898495437482836 $694 57.898495437482836 $570 $695 forward 7 unknown #
coedge $-1 $696 $571 $693 $697 reversed $577 $-1 #
vertex $-1 $637 $698 #
straight-curve $-1 -57.898495437482836 37.07380236279019 0 0 0 -1 I I #
coedge $-1 $621 $574 $576 $645 reversed $484 $-1 #
vertex $-1 $632 $699 #
straight-curve $-1 0 -26.876715592567379 15.30857145082015 1 0 0 I I #
coedge $-1 $576 $696 $623 $678 forward $577 $-1 #
edge $-1 $679 3.7475795911795799 $578 8.9565211034869066 $576 $700 forward 7 unknown #
face $-1 $498 $577 $18 $-1 $701 reversed single #
point $-1 -57.898495437482836 -26.876715592567379 15.30857145082015 #
face $-1 $702 $703 $19 $-1 $704 reversed single #
loop $-1 $-1 $705 $581 #
plane-surface $-1 0 -26.876715592567379 12.704100694666487 0 -1 0 0 0 -1 forward_v I I I I #
coedge $-1 $706 $707 $708 $709 reversed $582 $-1 #
coedge $-1 $584 $710 $711 $712 forward $505 $-1 #
coedge $-1 $711 $591 $585 $654 forward $593 $-1 #
edge $-1 $666 -65.513265681181096 $655 -52.379645513671875 $653 $713 forward 7 unknown #
vertex $-1 $654 $714 #
straight-curve $-1 37.627690980827623 35.596908532157215 15.308571450820153 0 -1 0 I I #
edge $-1 $589 -2.3318187350164266 $666 25.862400232223891 $591 $715 forward 7 unknown #
point $-1 9.4334720135873056 37.073802362790182 2.1749512833109321 #
coedge $-1 $592 $716 $717 $718 reversed $593 $-1 #
face $-1 $-1 $593 $19 $-1 $719 reversed single #
coedge $-1 $710 $595 $720 $721 forward $505 $-1 #
coedge $-1 $717 $722 $595 $663 reversed $723 $-1 #
edge $-1 $664 -37.07380236279019 $724 26.876715592567379 $662 $725 forward 7 unknown #
vertex $-1 $596 $726 #
straight-curve $-1 0 37.07380236279019 15.30857145082015 -1 0 0 I I #
vertex $-1 $657 $727 #
straight-curve $-1 37.627690980827623 -13.494741805469587 56.403077078359999 0 -0.68199835119979291 0.73135370988377701 I I #
point $-1 37.627690980827623 24.826503718541765 15.308571450820153 #
edge $-1 $611 -57.898495437482836 $615 57.898495437482836 $608 $728 forward 7 unknown #
straight-curve $-1 57.898495437482836 0 -15.30857145082015 0 -1 0 I I #
straight-curve $-1 -57.898495437482836 -37.07380236279019 0 0 0 -1 I I #
point $-1 57.898495437482836 -37.07380236279019 -15.30857145082015 #
point $-1 -57.898495437482836 -37.07380236279019 -15.30857145082015 #
loop $-1 $-1 $625 $617 #
plane-surface $-1 0 -37.07380236279019 0 0 1 0 0 0 1 forward_v I I I I #
coedge $-1 $729 $636 $685 $730 forward $618 $-1 #
straight-curve $-1 57.898495437482836 -26.876715592567379 6.3520503473332433 0 0 -1 I I #
edge $-1 $683 -21.086172873950797 $679 -10.889086103727987 $644 $731 forward 7 unknown #
vertex $-1 $678 $732 #
straight-curve $-1 0 -26.876715592567379 10.099629938512823 1 0 0 I I #
coedge $-1 $733 $625 $696 $734 forward $674 $-1 #
coedge $-1 $625 $733 $627 $686 reversed $674 $-1 #
vertex $-1 $734 $735 #
straight-curve $-1 0 -37.07380236279019 10.099629938512823 -1 0 0 I I #
coedge $-1 $689 $627 $676 $730 reversed $554 $-1 #
edge $-1 $629 -10.099629938512823 $736 15.30857145082015 $627 $737 forward 7 unknown #
point $-1 57.898495437482836 -26.876715592567379 10.099629938512823 #
point $-1 57.898495437482836 -37.07380236279019 10.099629938512823 #
coedge $-1 $631 $685 $633 $691 reversed $554 $-1 #
straight-curve $-1 57.898495437482836 0 15.30857145082015 0 1 0 I I #
edge $-1 $634 -15.30857145082015 $694 15.30857145082015 $689 $738 forward 7 unknown #
point $-1 57.898495437482836 37.07380236279019 15.30857145082015 #
coedge $-1 $636 $729 $638 $697 forward $618 $-1 #
vertex $-1 $730 $739 #
straight-curve $-1 0 37.07380236279019 -15.30857145082015 1 0 0 I I #
coedge $-1 $644 $638 $681 $734 reversed $577 $-1 #
edge $-1 $740 -37.07380236279019 $639 37.07380236279019 $638 $741 forward 7 unknown #
point $-1 -57.898495437482836 37.07380236279019 -15.30857145082015 #
point $-1 57.898495437482836 -26.876715592567379 15.30857145082015 #
straight-curve $-1 -57.898495437482836 -26.876715592567379 6.3520503473332433 0 0 1 I I #
plane-surface $-1 -57.898495437482836 0 0 1 0 0 0 0 -1 forward_v I I I I #
face $-1 $742 $743 $19 $-1 $744 reversed single #
loop $-1 $-1 $745 $648 #
plane-surface $-1 57.898495437482836 0 0 -1 0 0 0 0 1 forward_v I I I I #
coedge $-1 $720 $746 $745 $747 reversed $649 $-1 #
coedge $-1 $748 $651 $746 $749 reversed $582 $-1 #
coedge $-1 $651 $748 $750 $751 reversed $582 $-1 #
coedge $-1 $752 $745 $651 $709 forward $703 $-1 #
edge $-1 $753 10.889086103727987 $754 21.086172873950797 $708 $755 forward 7 unknown #
coedge $-1 $652 $661 $756 $757 forward $505 $-1 #
coedge $-1 $758 $653 $652 $712 reversed $593 $-1 #
edge $-1 $759 -57.898495437482836 $655 -37.627690980827623 $711 $665 forward 7 unknown #
straight-curve $-1 37.627690980827623 37.07380236279019 67.688216964492028 0 0 1 I I #
point $-1 37.627690980827623 37.07380236279019 15.30857145082015 #
straight-curve $-1 11.765290748603732 37.07380236279019 2.1749512833109286 1 0 0 I I #
coedge $-1 $659 $758 $760 $761 reversed $593 $-1 #
coedge $-1 $762 $662 $659 $718 forward $723 $-1 #
edge $-1 $664 -15.30857145082015 $763 15.30857145082015 $659 $764 forward 7 unknown #
plane-surface $-1 0 37.07380236279019 0 0 -1 0 0 0 -1 forward_v I I I I #
coedge $-1 $765 $705 $661 $721 reversed $649 $-1 #
edge $-1 $724 -57.898495437482836 $766 57.898495437482836 $661 $767 forward 7 unknown #
coedge $-1 $662 $768 $765 $769 forward $723 $-1 #
loop $-1 $-1 $722 $770 #
vertex $-1 $769 $771 #
straight-curve $-1 -57.898495437482836 0 15.30857145082015 0 -1 0 I I #
point $-1 -57.898495437482836 37.07380236279019 15.30857145082015 #
point $-1 37.627690980827623 37.073802362790182 2.1749512833109321 #
straight-curve $-1 0 -37.07380236279019 -15.30857145082015 -1 0 0 I I #
coedge $-1 $693 $676 $733 $772 forward $618 $-1 #
edge $-1 $694 -37.07380236279019 $736 37.07380236279019 $685 $773 forward 7 unknown #
straight-curve $-1 -57.898495437482836 -15.987629488839392 10.099629938512823 0 1 0 I I #
point $-1 -57.898495437482836 -26.876715592567379 10.099629938512823 #
coedge $-1 $682 $681 $729 $772 reversed $674 $-1 #
edge $-1 $683 -10.099629938512823 $740 15.30857145082015 $696 $774 forward 7 unknown #
point $-1 -57.898495437482836 -37.07380236279019 10.099629938512823 #
vertex $-1 $686 $775 #
straight-curve $-1 57.898495437482836 -37.07380236279019 0 0 0 -1 I I #
straight-curve $-1 57.898495437482836 37.07380236279019 0 0 0 -1 I I #
point $-1 57.898495437482836 37.07380236279019 -15.30857145082015 #
vertex $-1 $697 $776 #
straight-curve $-1 -57.898495437482836 0 -15.30857145082015 0 1 0 I I #
face $-1 $770 $777 $19 $-1 $778 reversed single #
loop $-1 $-1 $779 $702 #
plane-surface $-1 0 0 -15.30857145082015 0 0 1 1 0 0 forward_v I I I I #
coedge $-1 $708 $756 $705 $747 forward $703 $-1 #
coedge $-1 $705 $765 $706 $749 forward $649 $-1 #
edge $-1 $766 -8.9565211034869066 $753 -3.7475795911795799 $745 $780 forward 7 unknown #
coedge $-1 $707 $706 $768 $781 reversed $582 $-1 #
edge $-1 $782 -57.898495437482836 $753 57.898495437482836 $746 $783 forward 7 unknown #
coedge $-1 $784 $785 $707 $751 forward $777 $-1 #
edge $-1 $754 -57.898495437482836 $786 57.898495437482836 $750 $787 forward 7 unknown #
coedge $-1 $788 $708 $785 $789 forward $703 $-1 #
vertex $-1 $709 $790 #
vertex $-1 $789 $791 #
straight-curve $-1 57.898495437482836 -15.987629488839392 10.099629938512823 0 -1 0 I I #
coedge $-1 $745 $792 $710 $757 reversed $703 $-1 #
edge $-1 $766 -26.876715592567379 $759 37.07380236279019 $756 $793 forward 7 unknown #
coedge $-1 $716 $711 $792 $794 forward $593 $-1 #
vertex $-1 $757 $795 #
coedge $-1 $779 $796 $716 $761 forward $743 $-1 #
edge $-1 $763 -57.898495437482836 $797 57.898495437482836 $716 $798 forward 7 unknown #
coedge $-1 $799 $717 $796 $800 reversed $723 $-1 #
vertex $-1 $761 $801 #
straight-curve $-1 -57.898495437482836 37.07380236279019 0 0 0 -1 I I #
coedge $-1 $746 $720 $722 $769 reversed $649 $-1 #
vertex $-1 $757 $802 #
straight-curve $-1 0 -26.876715592567379 15.30857145082015 1 0 0 I I #
coedge $-1 $722 $799 $748 $781 forward $723 $-1 #
edge $-1 $782 3.7475795911795799 $724 8.9565211034869066 $722 $803 forward 7 unknown #
face $-1 $660 $723 $19 $-1 $804 reversed single #
point $-1 -57.898495437482836 -26.876715592567379 15.30857145082015 #
edge $-1 $736 -57.898495437482836 $740 57.898495437482836 $733 $805 forward 7 unknown #
straight-curve $-1 57.898495437482836 0 -15.30857145082015 0 -1 0 I I #
straight-curve $-1 -57.898495437482836 -37.07380236279019 0 0 0 -1 I I #
point $-1 57.898495437482836 -37.07380236279019 -15.30857145082015 #
point $-1 -57.898495437482836 -37.07380236279019 -15.30857145082015 #
loop $-1 $-1 $750 $742 #
plane-surface $-1 0 -37.07380236279019 0 0 1 0 0 0 1 forward_v I I I I #
coedge $-1 $806 $760 $788 $807 forward $743 $-1 #
straight-curve $-1 57.898495437482836 -26.876715592567379 6.3520503473332433 0 0 -1 I I #
edge $-1 $786 -21.086172873950797 $782 -10.889086103727987 $768 $808 forward 7 unknown #
vertex $-1 $781 $809 #
straight-curve $-1 0 -26.876715592567379 10.099629938512823 1 0 0 I I #
coedge $-1 $810 $750 $799 $811 forward $777 $-1 #
coedge $-1 $750 $810 $752 $789 reversed $777 $-1 #
vertex $-1 $811 $812 #
straight-curve $-1 0 -37.07380236279019 10.099629938512823 -1 0 0 I I #
coedge $-1 $792 $752 $779 $807 reversed $703 $-1 #
edge $-1 $754 -10.099629938512823 $813 15.30857145082015 $752 $814 forward 7 unknown #
point $-1 57.898495437482836 -26.876715592567379 10.099629938512823 #
point $-1 57.898495437482836 -37.07380236279019 10.099629938512823 #
coedge $-1 $756 $788 $758 $794 reversed $703 $-1 #
straight-curve $-1 57.898495437482836 0 15.30857145082015 0 1 0 I I #
edge $-1 $759 -15.30857145082015 $797 15.30857145082015 $792 $815 forward 7 unknown #
point $-1 57.898495437482836 37.07380236279019 15.30857145082015 #
coedge $-1 $760 $806 $762 $800 forward $743 $-1 #
vertex $-1 $807 $816 #
straight-curve $-1 0 37.07380236279019 -15.30857145082015 1 0 0 I I #
coedge $-1 $768 $762 $784 $811 reversed $723 $-1 #
edge $-1 $817 -37.07380236279019 $763 37.07380236279019 $762 $818 forward 7 unknown #
point $-1 -57.898495437482836 37.07380236279019 -15.30857145082015 #
point $-1 57.898495437482836 -26.876715592567379 15.30857145082015 #
straight-curve $-1 -57.898495437482836 -26.876715592567379 6.3520503473332433 0 0 1 I I #
plane-surface $-1 -57.898495437482836 0 0 1 0 0 0 0 -1 forward_v I I I I #
straight-curve $-1 0 -37.07380236279019 -15.30857145082015 -1 0 0 I I #
coedge $-1 $796 $779 $810 $819 forward $743 $-1 #
edge $-1 $797 -37.07380236279019 $813 37.07380236279019 $788 $820 forward 7 unknown #
straight-curve $-1 -57.898495437482836 -15.987629488839392 10.099629938512823 0 1 0 I I #
point $-1 -57.898495437482836 -26.876715592567379 10.099629938512823 #
coedge $-1 $785 $784 $806 $819 reversed $777 $-1 #
edge $-1 $786 -10.099629938512823 $817 15.30857145082015 $799 $821 forward 7 unknown #
point $-1 -57.898495437482836 -37.07380236279019 10.099629938512823 #
vertex $-1 $789 $822 #
straight-curve $-1 57.898495437482836 -37.07380236279019 0 0 0 -1 I I #
straight-curve $-1 57.898495437482836 37.07380236279019 0 0 0 -1 I I #
point $-1 57.898495437482836 37.07380236279019 -15.30857145082015 #
vertex $-1 $800 $823 #
straight-curve $-1 -57.898495437482836 0 -15.30857145082015 0 1 0 I I #
edge $-1 $813 -57.898495437482836 $817 57.898495437482836 $810 $824 forward 7 unknown #
straight-curve $-1 57.898495437482836 0 -15.30857145082015 0 -1 0 I I #
straight-curve $-1 -57.898495437482836 -37.07380236279019 0 0 0 -1 I I #
point $-1 57.898495437482836 -37.07380236279019 -15.30857145082015 #
point $-1 -57.898495437482836 -37.07380236279019 -15.30857145082015 #
straight-curve $-1 0 -37.07380236279019 -15.30857145082015 -1 0 0 I I #
End-of-ACIS-data 