500 0 4 0           
7 Unknown 11 ACIS 5.0 NT 24 Fri Mar 26 17:07:02 1999 
-1 9.9999999999999995e-007 1e-010 
body $-1 $4 $-1 $5 #
body $-1 $6 $-1 $7 #
body $-1 $8 $-1 $9 #
body $-1 $10 $-1 $11 #
lump $-1 $-1 $12 $0 #
transform $-1 1 0 0 0 1 0 0 0 1 56.230964079714347 30.811966730504935 12.814325248673452 1 rotate no_reflect no_shear #
lump $-1 $-1 $13 $1 #
transform $-1 1 0 0 0 1 0 0 0 1 56.230964079714347 30.811966730504935 12.814325248673452 1 rotate no_reflect no_shear #
lump $-1 $-1 $14 $2 #
transform $-1 1 0 0 0 1 0 0 0 1 56.230964079714347 30.811966730504935 12.814325248673452 1 rotate no_reflect no_shear #
lump $-1 $-1 $15 $3 #
transform $-1 1 0 0 0 1 0 0 0 1 56.230964079714347 30.811966730504935 12.814325248673452 1 rotate no_reflect no_shear #
shell $-1 $-1 $-1 $16 $-1 $4 #
shell $-1 $-1 $-1 $17 $-1 $6 #
shell $-1 $-1 $-1 $18 $-1 $8 #
shell $-1 $-1 $-1 $19 $-1 $10 #
face $-1 $20 $21 $12 $-1 $22 reversed single #
face $-1 $23 $24 $13 $-1 $25 forward single #
face $-1 $26 $27 $14 $-1 $28 reversed single #
face $-1 $29 $30 $15 $-1 $31 forward single #
face $-1 $32 $33 $12 $-1 $34 forward single #
loop $-1 $-1 $35 $16 #
plane-surface $-1 0 -30.811966730504935 0 0 1 0 0 0 1 forward_v I I I I #
face $-1 $36 $37 $13 $-1 $38 reversed single #
loop $-1 $-1 $39 $17 #
plane-surface $-1 0 -30.811966730504935 0 0 1 0 0 0 1 forward_v I I I I #
face $-1 $40 $41 $14 $-1 $42 reversed single #
loop $-1 $-1 $43 $18 #
plane-surface $-1 23.462316992640609 42.61132377950581 135.66951224003492 1 0 0 0 -0.55919291073839883 -0.82903756765294845 forward_v I I I I #
face $-1 $44 $45 $15 $-1 $46 forward single #
loop $-1 $47 $48 $19 #
cone-surface $-1 39.846640536177482 26.135725302780706 8.7804269831289705 0 -0.55919291073839883 -0.82903756765294845 1.5 0 0 1 I I 0 1 1.5 forward I I I I #
face $-1 $49 $50 $12 $-1 $51 reversed single #
loop $-1 $-1 $52 $20 #
plane-surface $-1 0 0 12.814325248673452 0 0 1 1 0 0 forward_v I I I I #
coedge $-1 $53 $54 $55 $56 reversed $21 $-1 #
face $-1 $57 $58 $13 $-1 $59 reversed single #
loop $-1 $-1 $60 $23 #
plane-surface $-1 0 0 -12.814325248673452 0 0 1 1 0 0 forward_v I I I I #
coedge $-1 $61 $62 $63 $64 forward $24 $-1 #
face $-1 $65 $66 $14 $-1 $67 forward single #
loop $-1 $-1 $68 $26 #
plane-surface $-1 39.846640536177482 -20.276589175217822 42.434348865181519 0 0.55919291073839883 0.82903756765294845 1 0 0 forward_v I I I I #
coedge $-1 $69 $70 $71 $72 reversed $27 $-1 #
face $-1 $-1 $73 $15 $-1 $74 forward single #
loop $-1 $75 $76 $29 #
cone-surface $-1 39.846640536177482 24.627622109928751 6.5445720951965107 0 -0.55919291073839883 -0.82903756765294845 0.75 0 0 1 I I -0.70710678118654757 0.70710678118654757 0.75 forward I I I I #
loop $-1 $-1 $77 $19 #
coedge $-1 $48 $48 $78 $79 reversed $30 $-1 #
face $-1 $80 $81 $12 $-1 $82 reversed single #
loop $-1 $-1 $83 $32 #
plane-surface $-1 0 0 -12.814325248673452 0 0 1 1 0 0 forward_v I I I I #
coedge $-1 $84 $85 $86 $87 forward $33 $-1 #
coedge $-1 $88 $35 $89 $90 reversed $21 $-1 #
coedge $-1 $35 $88 $91 $92 forward $21 $-1 #
coedge $-1 $93 $83 $35 $56 forward $50 $-1 #
edge $-1 $94 -56.230964079714347 $95 56.230964079714347 $35 $96 forward 7 unknown #
face $-1 $97 $98 $13 $-1 $99 reversed single #
loop $-1 $-1 $100 $36 #
plane-surface $-1 -33.390476424874151 -46.21977813145439 0 0 1 0 0 0 1 forward_v I I I I #
coedge $-1 $101 $102 $62 $103 forward $37 $-1 #
coedge $-1 $104 $39 $105 $106 reversed $24 $-1 #
coedge $-1 $39 $104 $60 $103 reversed $24 $-1 #
coedge $-1 $107 $108 $39 $64 reversed $98 $-1 #
edge $-1 $109 -12.814325248673452 $110 12.814325248673452 $63 $111 forward 7 unknown #
face $-1 $112 $113 $14 $-1 $114 reversed single #
loop $-1 $-1 $71 $40 #
plane-surface $-1 0 0 12.814325248673452 0 0 1 1 0 0 forward_v I I I I #
coedge $-1 $115 $116 $117 $118 reversed $41 $-1 #
coedge $-1 $70 $43 $119 $120 reversed $27 $-1 #
coedge $-1 $43 $69 $115 $121 reversed $27 $-1 #
coedge $-1 $117 $122 $43 $72 forward $66 $-1 #
edge $-1 $123 -9.5063048407520299 $124 -2.3312390048999134 $71 $125 forward 7 unknown #
loop $-1 $-1 $78 $44 #
plane-surface $-1 39.846640536177482 -20.276589175217822 42.434348865181519 0 0.55919291073839883 0.82903756765294845 1 0 0 forward_v I I I I #
loop $-1 $-1 $126 $29 #
coedge $-1 $76 $76 $77 $127 reversed $45 $-1 #
coedge $-1 $77 $77 $76 $127 forward $47 $-1 #
coedge $-1 $78 $78 $48 $79 forward $73 $-1 #
edge $-1 $128 -5.9292673883071215e-016 $128 6.2831853071795996 $78 $129 forward 7 unknown #
face $-1 $130 $131 $12 $-1 $132 reversed single #
loop $-1 $-1 $133 $49 #
plane-surface $-1 -56.230964079714347 0 0 1 0 0 0 0 -1 forward_v I I I I #
coedge $-1 $55 $134 $135 $136 forward $50 $-1 #
coedge $-1 $137 $52 $138 $139 forward $33 $-1 #
coedge $-1 $52 $137 $88 $140 forward $33 $-1 #
coedge $-1 $89 $141 $52 $87 reversed $142 $-1 #
edge $-1 $143 -30.811966730504935 $144 30.811966730504935 $86 $145 forward 7 unknown #
coedge $-1 $54 $53 $85 $140 reversed $21 $-1 #
coedge $-1 $135 $86 $53 $90 forward $142 $-1 #
edge $-1 $143 -12.814325248673452 $94 12.814325248673452 $89 $146 forward 7 unknown #
coedge $-1 $147 $148 $54 $92 reversed $81 $-1 #
edge $-1 $149 -12.814325248673452 $95 12.814325248673452 $91 $150 forward 7 unknown #
coedge $-1 $134 $55 $148 $151 forward $50 $-1 #
vertex $-1 $90 $152 #
vertex $-1 $151 $153 #
straight-curve $-1 0 -30.811966730504935 -12.814325248673452 -1 0 0 I I #
face $-1 $154 $155 $13 $-1 $156 reversed single #
loop $-1 $-1 $63 $57 #
plane-surface $-1 -36.178639267380859 -38.515872430979663 0 1 0 0 0 0 -1 forward_v I I I I #
coedge $-1 $157 $158 $159 $160 forward $58 $-1 #
coedge $-1 $161 $60 $162 $163 forward $37 $-1 #
coedge $-1 $60 $161 $107 $164 forward $37 $-1 #
edge $-1 $109 -36.178639267380859 $165 -30.60231358236744 $60 $166 forward 7 unknown #
coedge $-1 $62 $61 $167 $168 forward $24 $-1 #
coedge $-1 $169 $170 $61 $106 forward $171 $-1 #
edge $-1 $172 30.60231358236744 $110 36.178639267380859 $105 $173 forward 7 unknown #
coedge $-1 $159 $63 $102 $164 reversed $98 $-1 #
coedge $-1 $63 $159 $169 $174 reversed $98 $-1 #
vertex $-1 $103 $175 #
vertex $-1 $174 $176 #
straight-curve $-1 -36.178639267380859 -30.811966730504935 0 0 0 1 I I #
face $-1 $-1 $177 $14 $-1 $178 reversed single #
loop $-1 $-1 $179 $65 #
plane-surface $-1 56.230964079714347 0 0 -1 0 0 0 0 1 forward_v I I I I #
coedge $-1 $180 $68 $70 $121 forward $41 $-1 #
coedge $-1 $68 $180 $179 $181 reversed $41 $-1 #
coedge $-1 $182 $71 $68 $118 forward $66 $-1 #
edge $-1 $124 3.5389967245518683 $183 36.30764381162561 $117 $184 forward 7 unknown #
coedge $-1 $185 $186 $69 $120 forward $177 $-1 #
edge $-1 $187 -59.86007397804746 $123 -55.020430871344004 $119 $188 forward 7 unknown #
edge $-1 $124 52.969240216932725 $187 61.623933461009862 $70 $189 forward 7 unknown #
coedge $-1 $71 $182 $185 $190 forward $66 $-1 #
vertex $-1 $120 $191 #
vertex $-1 $72 $192 #
straight-curve $-1 23.462316992640609 21.305661889752905 12.814325248673455 0 -1 0 I I #
coedge $-1 $126 $126 $-1 $193 reversed $75 $-1 #
edge $-1 $194 0 $194 6.2831853071796004 $76 $195 forward 7 unknown #
vertex $-1 $79 $196 #
ellipse-curve $-1 39.846640536177482 27.224433812578869 10.394503695321735 0 0.55919291073839883 0.82903756765294845 1.5 0 0 1 I I #
face $-1 $-1 $142 $12 $-1 $197 reversed single #
loop $-1 $-1 $198 $80 #
plane-surface $-1 0 30.811966730504935 0 0 -1 0 0 0 -1 forward_v I I I I #
coedge $-1 $148 $147 $199 $200 forward $81 $-1 #
coedge $-1 $83 $93 $201 $202 forward $50 $-1 #
coedge $-1 $141 $89 $83 $136 reversed $142 $-1 #
edge $-1 $203 -30.811966730504935 $94 30.811966730504935 $135 $204 forward 7 unknown #
coedge $-1 $85 $84 $147 $205 forward $33 $-1 #
coedge $-1 $198 $199 $84 $139 reversed $131 $-1 #
edge $-1 $144 -56.230964079714347 $206 56.230964079714347 $138 $207 forward 7 unknown #
edge $-1 $149 -56.230964079714347 $143 56.230964079714347 $88 $208 forward 7 unknown #
coedge $-1 $86 $135 $198 $209 reversed $142 $-1 #
loop $-1 $-1 $89 $130 #
vertex $-1 $87 $210 #
vertex $-1 $87 $211 #
straight-curve $-1 56.230964079714347 0 12.814325248673452 0 1 0 I I #
straight-curve $-1 56.230964079714347 -30.811966730504935 0 0 0 -1 I I #
coedge $-1 $133 $91 $137 $205 reversed $81 $-1 #
coedge $-1 $91 $133 $93 $151 reversed $81 $-1 #
vertex $-1 $205 $212 #
straight-curve $-1 -56.230964079714347 -30.811966730504935 0 0 0 -1 I I #
edge $-1 $95 -30.811966730504935 $213 30.811966730504935 $148 $214 forward 7 unknown #
point $-1 56.230964079714347 -30.811966730504935 -12.814325248673452 #
point $-1 -56.230964079714347 -30.811966730504935 -12.814325248673452 #
face $-1 $-1 $171 $13 $-1 $215 forward single #
loop $-1 $-1 $216 $97 #
plane-surface $-1 -30.60231358236744 -38.515872430979663 0 -1 0 0 0 0 1 forward_v I I I I #
coedge $-1 $217 $100 $161 $218 reversed $58 $-1 #
coedge $-1 $100 $217 $219 $220 reversed $58 $-1 #
coedge $-1 $108 $107 $100 $160 reversed $98 $-1 #
edge $-1 $221 -12.814325248673452 $222 12.814325248673452 $159 $223 forward 7 unknown #
coedge $-1 $102 $101 $157 $218 forward $37 $-1 #
coedge $-1 $167 $216 $101 $163 reversed $155 $-1 #
edge $-1 $165 -7.7039057004747278 $224 7.7039057004747278 $162 $225 forward 7 unknown #
edge $-1 $222 -7.7039057004747278 $109 7.7039057004747278 $107 $226 forward 7 unknown #
vertex $-1 $163 $227 #
straight-curve $-1 0 -30.811966730504935 -12.814325248673452 1 0 0 I I #
coedge $-1 $228 $162 $104 $168 reversed $155 $-1 #
edge $-1 $172 -12.814325248673452 $165 12.814325248673452 $167 $229 forward 7 unknown #
coedge $-1 $219 $105 $108 $174 forward $171 $-1 #
coedge $-1 $105 $219 $228 $230 forward $171 $-1 #
loop $-1 $-1 $105 $154 #
vertex $-1 $106 $231 #
straight-curve $-1 0 -30.811966730504935 12.814325248673452 -1 0 0 I I #
edge $-1 $110 -7.7039057004747278 $221 7.7039057004747278 $108 $232 forward 7 unknown #
point $-1 -36.178639267380859 -30.811966730504935 -12.814325248673452 #
point $-1 -36.178639267380859 -30.811966730504935 12.814325248673452 #
loop $-1 $-1 $119 $112 #
plane-surface $-1 0 30.811966730504935 0 0 -1 0 0 0 -1 forward_v I I I I #
coedge $-1 $233 $234 $116 $181 forward $113 $-1 #
coedge $-1 $116 $115 $186 $235 reversed $41 $-1 #
edge $-1 $183 32.699719603267617 $236 41.354412847344747 $179 $237 forward 7 unknown #
coedge $-1 $122 $117 $234 $238 forward $66 $-1 #
vertex $-1 $238 $239 #
straight-curve $-1 19.923320268088741 23.636900894652822 12.814325248673452 1 0 0 I I #
coedge $-1 $240 $119 $122 $190 reversed $177 $-1 #
coedge $-1 $119 $240 $180 $235 forward $177 $-1 #
vertex $-1 $120 $241 #
straight-curve $-1 23.462316992640609 30.811966730504935 67.83475612001746 0 0 1 I I #
straight-curve $-1 23.462316992640609 -20.276589175217822 42.434348865181519 0 0.82903756765294845 -0.55919291073839883 I I #
edge $-1 $242 -56.230964079714347 $123 -23.462316992640609 $185 $243 forward 7 unknown #
point $-1 23.462316992640609 30.811966730504935 12.814325248673452 #
point $-1 23.462316992640609 23.636900894652818 12.814325248673452 #
edge $-1 $244 1 $244 0 $126 $-1 forward 7 unknown #
vertex $-1 $127 $245 #
ellipse-curve $-1 39.846640536177482 25.04701679298255 7.1663502709362223 0 0.55919291073839883 0.82903756765294845 1.5 0 0 1 I I #
point $-1 41.346640536177482 27.224433812578859 10.39450369532172 #
plane-surface $-1 56.230964079714347 0 0 -1 0 0 0 0 1 forward_v I I I I #
coedge $-1 $201 $138 $141 $209 forward $131 $-1 #
coedge $-1 $138 $201 $133 $200 reversed $131 $-1 #
edge $-1 $206 -12.814325248673452 $213 12.814325248673452 $199 $246 forward 7 unknown #
coedge $-1 $199 $198 $134 $202 reversed $131 $-1 #
edge $-1 $213 -56.230964079714347 $203 56.230964079714347 $201 $247 forward 7 unknown #
vertex $-1 $136 $248 #
straight-curve $-1 56.230964079714347 0 -12.814325248673452 0 -1 0 I I #
edge $-1 $206 -30.811966730504935 $149 30.811966730504935 $147 $249 forward 7 unknown #
vertex $-1 $139 $250 #
straight-curve $-1 0 30.811966730504935 12.814325248673452 -1 0 0 I I #
straight-curve $-1 0 -30.811966730504935 12.814325248673452 1 0 0 I I #
edge $-1 $144 -12.814325248673452 $203 12.814325248673452 $141 $251 forward 7 unknown #
point $-1 56.230964079714347 -30.811966730504935 12.814325248673452 #
point $-1 56.230964079714347 30.811966730504935 12.814325248673452 #
point $-1 -56.230964079714347 -30.811966730504935 12.814325248673452 #
vertex $-1 $202 $252 #
straight-curve $-1 -56.230964079714347 0 -12.814325248673452 0 1 0 I I #
plane-surface $-1 0 0 12.814325248673452 0 0 1 1 0 0 forward_v I I I I #
coedge $-1 $162 $228 $217 $253 forward $155 $-1 #
coedge $-1 $158 $157 $216 $253 reversed $58 $-1 #
edge $-1 $224 -2.7881628425067113 $222 2.7881628425067078 $157 $254 forward 7 unknown #
coedge $-1 $170 $169 $158 $220 forward $171 $-1 #
edge $-1 $221 -2.7881628425067078 $255 2.7881628425067113 $158 $256 forward 7 unknown #
vertex $-1 $174 $257 #
vertex $-1 $164 $258 #
straight-curve $-1 -36.178639267380859 -46.21977813145439 0 0 0 -1 I I #
vertex $-1 $253 $259 #
straight-curve $-1 -30.60231358236744 -38.515872430979663 -12.814325248673452 0 -1 0 I I #
straight-curve $-1 -36.178639267380859 -38.515872430979663 -12.814325248673452 0 1 0 I I #
point $-1 -30.60231358236744 -30.811966730504935 -12.814325248673452 #
coedge $-1 $216 $167 $170 $230 reversed $155 $-1 #
straight-curve $-1 -30.60231358236744 -30.811966730504935 0 0 0 -1 I I #
edge $-1 $255 -7.7039057004747278 $172 7.7039057004747278 $228 $260 forward 7 unknown #
point $-1 -30.60231358236744 -30.811966730504935 12.814325248673452 #
straight-curve $-1 -36.178639267380859 -38.515872430979663 12.814325248673452 0 -1 0 I I #
coedge $-1 $234 $179 $240 $261 reversed $113 $-1 #
coedge $-1 $179 $233 $182 $238 reversed $113 $-1 #
edge $-1 $236 -36.30764381162561 $187 -3.5389967245518683 $186 $262 forward 7 unknown #
vertex $-1 $181 $263 #
straight-curve $-1 56.230964079714347 -3.4723951081736031 31.09977663395415 0 0.82903756765294845 -0.55919291073839883 I I #
edge $-1 $183 23.636900894652818 $242 30.811966730504935 $234 $264 forward 7 unknown #
point $-1 56.230964079714354 23.636900894652818 12.814325248673452 #
coedge $-1 $186 $185 $233 $261 forward $177 $-1 #
point $-1 23.462316992640609 30.811966730504935 7.9746821419699998 #
vertex $-1 $238 $265 #
straight-curve $-1 0 30.811966730504935 12.814325248673452 -1 0 0 I I #
vertex $-1 $193 $266 #
point $-1 41.346640536177482 25.04701679298255 7.1663502709362223 #
straight-curve $-1 -56.230964079714347 30.811966730504935 0 0 0 -1 I I #
straight-curve $-1 0 30.811966730504935 -12.814325248673452 1 0 0 I I #
point $-1 56.230964079714347 30.811966730504935 -12.814325248673452 #
straight-curve $-1 -56.230964079714347 0 12.814325248673452 0 -1 0 I I #
point $-1 -56.230964079714347 30.811966730504935 12.814325248673452 #
straight-curve $-1 56.230964079714347 30.811966730504935 0 0 0 -1 I I #
point $-1 -56.230964079714347 30.811966730504935 -12.814325248673452 #
edge $-1 $255 -12.814325248673452 $224 12.814325248673452 $216 $267 forward 7 unknown #
straight-curve $-1 -33.390476424874151 -46.21977813145439 -12.814325248673452 -1 0 0 I I #
vertex $-1 $230 $268 #
straight-curve $-1 -33.390476424874151 -46.21977813145439 12.814325248673452 1 0 0 I I #
point $-1 -36.178639267380859 -46.21977813145439 12.814325248673452 #
point $-1 -36.178639267380859 -46.21977813145439 -12.814325248673452 #
point $-1 -30.60231358236744 -46.21977813145439 -12.814325248673452 #
straight-curve $-1 -30.60231358236744 -38.515872430979663 12.814325248673452 0 1 0 I I #
edge $-1 $242 -12.814325248673452 $236 -7.9746821419699998 $233 $269 forward 7 unknown #
straight-curve $-1 19.923320268088741 30.811966730504935 7.9746821419700034 -1 0 0 I I #
point $-1 56.230964079714354 30.811966730504935 7.9746821419699998 #
straight-curve $-1 56.230964079714347 0 12.814325248673452 0 1 0 I I #
point $-1 56.230964079714347 30.811966730504935 12.814325248673452 #
point $-1 39.846640536177482 24.208227426874952 5.9227939194567991 #
straight-curve $-1 -30.60231358236744 -46.21977813145439 0 0 0 -1 I I #
point $-1 -30.60231358236744 -46.21977813145439 12.814325248673452 #
straight-curve $-1 56.230964079714347 30.811966730504935 0 0 0 -1 I I #
End-of-ACIS-data 