500 0 8 0           
7 Unknown 11 ACIS 5.0 NT 24 Fri Mar 26 14:54:30 1999 
-1 9.9999999999999995e-007 1e-010 
body $-1 $8 $-1 $9 #
body $-1 $10 $-1 $11 #
body $-1 $12 $-1 $13 #
body $-1 $14 $-1 $15 #
body $-1 $16 $-1 $17 #
body $-1 $18 $-1 $19 #
body $-1 $20 $-1 $21 #
body $-1 $22 $-1 $23 #
lump $-1 $-1 $24 $0 #
transform $-1 1 0 0 0 1 0 0 0 1 77.61589403973511 52.17156252949534 18.462335682569755 1 rotate no_reflect no_shear #
lump $-1 $-1 $25 $1 #
transform $-1 1 0 0 0 1 0 0 0 1 77.61589403973511 52.17156252949534 18.462335682569755 1 rotate no_reflect no_shear #
lump $-1 $-1 $26 $2 #
transform $-1 1 0 0 0 1 0 0 0 1 77.61589403973511 52.17156252949534 18.462335682569755 1 rotate no_reflect no_shear #
lump $-1 $-1 $27 $3 #
transform $-1 1 0 0 0 1 0 0 0 1 77.61589403973511 52.17156252949534 18.462335682569755 1 rotate no_reflect no_shear #
lump $-1 $-1 $28 $4 #
transform $-1 1 0 0 0 1 0 0 0 1 77.61589403973511 52.17156252949534 18.462335682569755 1 rotate no_reflect no_shear #
lump $-1 $-1 $29 $5 #
transform $-1 1 0 0 0 1 0 0 0 1 77.61589403973511 52.17156252949534 18.462335682569755 1 rotate no_reflect no_shear #
lump $-1 $-1 $30 $6 #
transform $-1 1 0 0 0 1 0 0 0 1 77.61589403973511 52.17156252949534 18.462335682569755 1 rotate no_reflect no_shear #
lump $-1 $-1 $31 $7 #
transform $-1 1 0 0 0 1 0 0 0 1 77.61589403973511 52.17156252949534 18.462335682569755 1 rotate no_reflect no_shear #
shell $-1 $-1 $-1 $32 $-1 $8 #
shell $-1 $-1 $-1 $33 $-1 $10 #
shell $-1 $-1 $-1 $34 $-1 $12 #
shell $-1 $-1 $-1 $35 $-1 $14 #
shell $-1 $-1 $-1 $36 $-1 $16 #
shell $-1 $-1 $-1 $37 $-1 $18 #
shell $-1 $-1 $-1 $38 $-1 $20 #
shell $-1 $-1 $-1 $39 $-1 $22 #
face $-1 $40 $41 $24 $-1 $42 forward single #
face $-1 $43 $44 $25 $-1 $45 reversed single #
face $-1 $46 $47 $26 $-1 $48 reversed single #
face $-1 $49 $50 $27 $-1 $51 forward single #
face $-1 $52 $53 $28 $-1 $54 forward single #
face $-1 $55 $56 $29 $-1 $57 reversed single #
face $-1 $58 $59 $30 $-1 $60 forward single #
face $-1 $61 $62 $31 $-1 $63 forward single #
face $-1 $64 $65 $24 $-1 $66 reversed single #
loop $-1 $-1 $67 $32 #
plane-surface $-1 0 0 18.462335682569755 0 0 1 1 0 0 forward_v I I I I #
face $-1 $68 $69 $25 $-1 $70 reversed single #
loop $-1 $-1 $71 $33 #
plane-surface $-1 -75.16012787034272 -31.385385213704247 0 0 -1 0 0 0 -1 forward_v I I I I #
face $-1 $72 $73 $26 $-1 $74 reversed single #
loop $-1 $-1 $75 $34 #
plane-surface $-1 100.56312452882261 -15.106098841891173 230.4633438283787 0 -1 0 -0.77714596973225614 0 -0.62932038083071107 forward_v I I I I #
face $-1 $76 $77 $27 $-1 $78 forward single #
loop $-1 $79 $80 $35 #
cone-surface $-1 74.058239460857664 -26.734160536043373 14.492321563841671 -0.77714596973225614 0 -0.62932038083071107 0.9439805712460666 0 -1.1657189545983841 1 I I 0 1 1.5 forward I I I I #
face $-1 $81 $82 $28 $-1 $83 forward single #
loop $-1 $84 $85 $36 #
cone-surface $-1 74.058239460857664 -19.757323519552052 14.492321563841671 -0.77714596973225614 0 -0.62932038083071107 0.9439805712460666 0 -1.1657189545983841 1 I I 0 1 1.5 forward I I I I #
face $-1 $86 $87 $29 $-1 $88 reversed single #
loop $-1 $-1 $89 $37 #
plane-surface $-1 100.56312452882261 26.672375029708611 230.4633438283787 0 -1 0 -0.77714596973225614 0 -0.62932038083071107 forward_v I I I I #
face $-1 $90 $91 $30 $-1 $92 forward single #
loop $-1 $93 $94 $38 #
cone-surface $-1 74.058239460857664 15.044313335556417 14.492321563841671 -0.77714596973225614 0 -0.62932038083071107 0.9439805712460666 0 -1.1657189545983841 1 I I 0 1 1.5 forward I I I I #
face $-1 $95 $96 $31 $-1 $97 forward single #
loop $-1 $98 $99 $39 #
cone-surface $-1 74.058239460857664 22.021150352047748 14.492321563841671 -0.77714596973225614 0 -0.62932038083071107 0.9439805712460666 0 -1.1657189545983841 1 I I 0 1 1.5 forward I I I I #
face $-1 $100 $101 $24 $-1 $102 reversed single #
loop $-1 $-1 $103 $40 #
plane-surface $-1 0 0 -18.462335682569755 0 0 1 1 0 0 forward_v I I I I #
coedge $-1 $104 $105 $106 $107 forward $41 $-1 #
face $-1 $108 $109 $25 $-1 $110 forward single #
loop $-1 $-1 $111 $43 #
plane-surface $-1 -72.704361700950329 -41.778473871599793 0 -1 0 0 0 0 1 forward_v I I I I #
coedge $-1 $112 $113 $114 $115 forward $44 $-1 #
face $-1 $116 $117 $26 $-1 $118 reversed single #
loop $-1 $-1 $119 $46 #
plane-surface $-1 -20.074633951469352 -23.245742027797711 132.77281583717428 0.77714596973225614 0 0.62932038083071107 0.62932038083071107 0 -0.77714596973225614 forward_v I I I I #
coedge $-1 $120 $121 $122 $123 reversed $47 $-1 #
face $-1 $-1 $124 $27 $-1 $125 forward single #
loop $-1 $126 $127 $49 #
cone-surface $-1 72.479589816662326 -26.734160536043373 13.213956322334273 -0.77714596973225614 0 -0.62932038083071107 0.4719902856230333 0 -0.58285947729919207 1 I I -0.70710678118654757 0.70710678118654757 0.75 forward I I I I #
loop $-1 $-1 $128 $35 #
coedge $-1 $80 $80 $129 $130 reversed $50 $-1 #
face $-1 $-1 $131 $28 $-1 $132 forward single #
loop $-1 $133 $134 $52 #
cone-surface $-1 72.479589816662326 -19.757323519552052 13.213956322334273 -0.77714596973225614 0 -0.62932038083071107 0.4719902856230333 0 -0.58285947729919207 1 I I -0.70710678118654757 0.70710678118654757 0.75 forward I I I I #
loop $-1 $-1 $135 $36 #
coedge $-1 $85 $85 $136 $137 reversed $53 $-1 #
face $-1 $138 $139 $29 $-1 $140 reversed single #
loop $-1 $-1 $141 $55 #
plane-surface $-1 -20.074633951469352 18.532731843802075 132.77281583717428 0.77714596973225614 0 0.62932038083071107 0.62932038083071107 0 -0.77714596973225614 forward_v I I I I #
coedge $-1 $142 $143 $144 $145 reversed $56 $-1 #
face $-1 $-1 $146 $30 $-1 $147 forward single #
loop $-1 $148 $149 $58 #
cone-surface $-1 72.479589816662326 15.044313335556417 13.213956322334273 -0.77714596973225614 0 -0.62932038083071107 0.4719902856230333 0 -0.58285947729919207 1 I I -0.70710678118654757 0.70710678118654757 0.75 forward I I I I #
loop $-1 $-1 $150 $38 #
coedge $-1 $94 $94 $151 $152 reversed $59 $-1 #
face $-1 $-1 $153 $31 $-1 $154 forward single #
loop $-1 $155 $156 $61 #
cone-surface $-1 72.479589816662326 22.021150352047748 13.213956322334273 -0.77714596973225614 0 -0.62932038083071107 0.4719902856230333 0 -0.58285947729919207 1 I I -0.70710678118654757 0.70710678118654757 0.75 forward I I I I #
loop $-1 $-1 $157 $39 #
coedge $-1 $99 $99 $158 $159 reversed $62 $-1 #
face $-1 $160 $161 $24 $-1 $162 reversed single #
loop $-1 $-1 $163 $64 #
plane-surface $-1 0 -52.17156252949534 0 0 1 0 0 0 1 forward_v I I I I #
coedge $-1 $164 $165 $166 $167 forward $65 $-1 #
coedge $-1 $168 $67 $169 $170 forward $41 $-1 #
coedge $-1 $67 $168 $171 $172 forward $41 $-1 #
coedge $-1 $173 $174 $67 $107 reversed $175 $-1 #
edge $-1 $176 -52.17156252949534 $177 52.17156252949534 $106 $178 forward 7 unknown #
face $-1 $179 $180 $25 $-1 $181 reversed single #
loop $-1 $-1 $182 $68 #
plane-surface $-1 0 0 18.462335682569755 0 0 1 1 0 0 forward_v I I I I #
coedge $-1 $183 $184 $185 $186 reversed $69 $-1 #
coedge $-1 $187 $71 $188 $189 reversed $44 $-1 #
coedge $-1 $71 $187 $190 $191 reversed $44 $-1 #
coedge $-1 $184 $183 $71 $115 reversed $69 $-1 #
edge $-1 $192 -18.462335682569755 $193 18.462335682569755 $114 $194 forward 7 unknown #
face $-1 $195 $196 $26 $-1 $197 reversed single #
loop $-1 $-1 $198 $72 #
plane-surface $-1 100.56312452882261 -31.385385213704247 230.4633438283787 0 1 0 0.77714596973225614 0 0.62932038083071107 forward_v I I I I #
coedge $-1 $199 $200 $201 $202 reversed $73 $-1 #
coedge $-1 $121 $75 $203 $204 reversed $47 $-1 #
coedge $-1 $75 $120 $199 $205 reversed $47 $-1 #
coedge $-1 $201 $206 $75 $123 forward $207 $-1 #
edge $-1 $208 -27.334331775323804 $209 -22.210602951361182 $122 $210 forward 7 unknown #
loop $-1 $-1 $129 $76 #
plane-surface $-1 -20.074633951469352 -23.245742027797711 132.77281583717428 0.77714596973225614 0 0.62932038083071107 0.62932038083071107 0 -0.77714596973225614 forward_v I I I I #
loop $-1 $-1 $211 $49 #
coedge $-1 $127 $127 $128 $212 reversed $77 $-1 #
coedge $-1 $128 $128 $127 $212 forward $79 $-1 #
coedge $-1 $129 $129 $80 $130 forward $124 $-1 #
edge $-1 $213 0 $213 6.2831853071796004 $129 $214 forward 7 unknown #
loop $-1 $-1 $136 $81 #
plane-surface $-1 -20.074633951469352 -23.245742027797711 132.77281583717428 0.77714596973225614 0 0.62932038083071107 0.62932038083071107 0 -0.77714596973225614 forward_v I I I I #
loop $-1 $-1 $215 $52 #
coedge $-1 $134 $134 $135 $216 reversed $82 $-1 #
coedge $-1 $135 $135 $134 $216 forward $84 $-1 #
coedge $-1 $136 $136 $85 $137 forward $131 $-1 #
edge $-1 $217 0 $217 6.2831853071796004 $136 $218 forward 7 unknown #
face $-1 $219 $220 $29 $-1 $221 reversed single #
loop $-1 $-1 $222 $86 #
plane-surface $-1 100.56312452882261 10.393088657895538 230.4633438283787 0 1 0 0.77714596973225614 0 0.62932038083071107 forward_v I I I I #
coedge $-1 $223 $224 $225 $226 reversed $87 $-1 #
coedge $-1 $143 $89 $227 $228 reversed $56 $-1 #
coedge $-1 $89 $142 $223 $229 reversed $56 $-1 #
coedge $-1 $225 $230 $89 $145 forward $231 $-1 #
edge $-1 $232 -27.334331775323804 $233 -22.210602951361182 $144 $234 forward 7 unknown #
loop $-1 $-1 $151 $90 #
plane-surface $-1 -20.074633951469352 18.532731843802075 132.77281583717428 0.77714596973225614 0 0.62932038083071107 0.62932038083071107 0 -0.77714596973225614 forward_v I I I I #
loop $-1 $-1 $235 $58 #
coedge $-1 $149 $149 $150 $236 reversed $91 $-1 #
coedge $-1 $150 $150 $149 $236 forward $93 $-1 #
coedge $-1 $151 $151 $94 $152 forward $146 $-1 #
edge $-1 $237 0 $237 6.2831853071796004 $151 $238 forward 7 unknown #
loop $-1 $-1 $158 $95 #
plane-surface $-1 -20.074633951469352 18.532731843802075 132.77281583717428 0.77714596973225614 0 0.62932038083071107 0.62932038083071107 0 -0.77714596973225614 forward_v I I I I #
loop $-1 $-1 $239 $61 #
coedge $-1 $156 $156 $157 $240 reversed $96 $-1 #
coedge $-1 $157 $157 $156 $240 forward $98 $-1 #
coedge $-1 $158 $158 $99 $159 forward $153 $-1 #
edge $-1 $241 0 $241 6.2831853071796004 $158 $242 forward 7 unknown #
face $-1 $243 $244 $24 $-1 $245 reversed single #
loop $-1 $-1 $246 $100 #
plane-surface $-1 -77.61589403973511 0 0 1 0 0 0 0 -1 forward_v I I I I #
coedge $-1 $247 $171 $248 $249 forward $101 $-1 #
coedge $-1 $250 $103 $247 $251 forward $65 $-1 #
coedge $-1 $103 $250 $252 $253 forward $65 $-1 #
coedge $-1 $174 $173 $103 $167 reversed $175 $-1 #
edge $-1 $254 -52.17156252949534 $255 52.17156252949534 $166 $256 forward 7 unknown #
coedge $-1 $105 $104 $257 $258 forward $41 $-1 #
coedge $-1 $259 $260 $104 $170 reversed $244 $-1 #
edge $-1 $177 -77.61589403973511 $261 77.61589403973511 $169 $262 forward 7 unknown #
coedge $-1 $163 $263 $105 $172 reversed $101 $-1 #
edge $-1 $264 -77.61589403973511 $176 77.61589403973511 $171 $265 forward 7 unknown #
coedge $-1 $166 $106 $263 $266 forward $175 $-1 #
coedge $-1 $106 $166 $259 $267 reversed $175 $-1 #
loop $-1 $-1 $173 $243 #
vertex $-1 $107 $268 #
vertex $-1 $107 $269 #
straight-curve $-1 77.61589403973511 0 18.462335682569755 0 1 0 I I #
face $-1 $270 $271 $25 $-1 $272 reversed single #
loop $-1 $-1 $273 $108 #
plane-surface $-1 -77.61589403973511 0 0 1 0 0 0 0 -1 forward_v I I I I #
coedge $-1 $190 $274 $184 $275 forward $109 $-1 #
coedge $-1 $114 $111 $276 $277 reversed $69 $-1 #
coedge $-1 $111 $114 $182 $275 reversed $69 $-1 #
coedge $-1 $278 $279 $111 $186 forward $280 $-1 #
edge $-1 $281 -18.462335682569755 $282 18.462335682569755 $185 $283 forward 7 unknown #
coedge $-1 $113 $112 $273 $284 reversed $44 $-1 #
coedge $-1 $276 $285 $112 $189 forward $271 $-1 #
edge $-1 $286 -40.03583010456375 $193 -35.124297765778969 $188 $287 forward 7 unknown #
coedge $-1 $288 $182 $113 $191 forward $109 $-1 #
edge $-1 $192 35.124297765778969 $289 40.03583010456375 $190 $290 forward 7 unknown #
vertex $-1 $191 $291 #
vertex $-1 $189 $292 #
straight-curve $-1 -72.704361700950329 -31.385385213704247 0 0 0 -1 I I #
face $-1 $-1 $207 $26 $-1 $293 forward single #
loop $-1 $-1 $294 $116 #
plane-surface $-1 77.61589403973511 0 0 -1 0 0 0 0 1 forward_v I I I I #
coedge $-1 $295 $296 $297 $298 reversed $117 $-1 #
coedge $-1 $299 $119 $121 $205 forward $73 $-1 #
coedge $-1 $119 $299 $295 $300 forward $73 $-1 #
coedge $-1 $297 $122 $119 $202 forward $207 $-1 #
edge $-1 $209 3.4832278279923177 $301 19.762514199805391 $201 $302 forward 7 unknown #
coedge $-1 $303 $304 $120 $204 forward $196 $-1 #
edge $-1 $305 -103.09661455730708 $208 -96.76933623161959 $203 $306 forward 7 unknown #
edge $-1 $209 147.09010225451854 $305 155.23178807947028 $121 $307 forward 7 unknown #
coedge $-1 $122 $297 $303 $308 forward $207 $-1 #
loop $-1 $-1 $297 $195 #
vertex $-1 $204 $309 #
vertex $-1 $123 $310 #
straight-curve $-1 50.281562264411306 -15.106098841891173 18.462335682569758 -1 0 0 I I #
coedge $-1 $211 $211 $-1 $311 reversed $126 $-1 #
edge $-1 $312 0 $312 6.2831853071796004 $127 $313 forward 7 unknown #
vertex $-1 $130 $314 #
ellipse-curve $-1 75.054029627753792 -26.734160536043373 15.298696519726018 0.77714596973225614 0 0.62932038083071107 0.9439805712460666 0 -1.1657189545983841 1 I I #
coedge $-1 $215 $215 $-1 $315 reversed $133 $-1 #
edge $-1 $316 0 $316 6.2831853071796004 $134 $317 forward 7 unknown #
vertex $-1 $137 $318 #
ellipse-curve $-1 75.054029627753792 -19.757323519552052 15.298696519726018 0.77714596973225614 0 0.62932038083071107 0.9439805712460666 0 -1.1657189545983841 1 I I #
face $-1 $-1 $231 $29 $-1 $319 forward single #
loop $-1 $-1 $320 $138 #
plane-surface $-1 77.61589403973511 0 0 -1 0 0 0 0 1 forward_v I I I I #
coedge $-1 $321 $322 $323 $324 reversed $139 $-1 #
coedge $-1 $325 $141 $143 $229 forward $87 $-1 #
coedge $-1 $141 $325 $321 $326 forward $87 $-1 #
coedge $-1 $323 $144 $141 $226 forward $231 $-1 #
edge $-1 $233 -17.406009107807574 $327 -1.1267227359945 $225 $328 forward 7 unknown #
coedge $-1 $329 $330 $142 $228 forward $220 $-1 #
edge $-1 $331 -103.09661455730708 $232 -96.76933623161959 $227 $332 forward 7 unknown #
edge $-1 $233 147.09010225451854 $331 155.23178807947028 $143 $333 forward 7 unknown #
coedge $-1 $144 $323 $329 $334 forward $231 $-1 #
loop $-1 $-1 $323 $219 #
vertex $-1 $228 $335 #
vertex $-1 $145 $336 #
straight-curve $-1 50.281562264411306 26.672375029708611 18.462335682569758 -1 0 0 I I #
coedge $-1 $235 $235 $-1 $337 reversed $148 $-1 #
edge $-1 $338 0 $338 6.2831853071796004 $149 $339 forward 7 unknown #
vertex $-1 $152 $340 #
ellipse-curve $-1 75.054029627753792 15.044313335556417 15.298696519726018 0.77714596973225614 0 0.62932038083071107 0.9439805712460666 0 -1.1657189545983841 1 I I #
coedge $-1 $239 $239 $-1 $341 reversed $155 $-1 #
edge $-1 $342 0 $342 6.2831853071796004 $156 $343 forward 7 unknown #
vertex $-1 $159 $344 #
ellipse-curve $-1 75.054029627753792 22.021150352047748 15.298696519726018 0.77714596973225614 0 0.62932038083071107 0.9439805712460666 0 -1.1657189545983841 1 I I #
face $-1 $-1 $175 $24 $-1 $345 reversed single #
loop $-1 $-1 $259 $160 #
plane-surface $-1 0 52.17156252949534 0 0 -1 0 0 0 -1 forward_v I I I I #
coedge $-1 $346 $257 $260 $347 forward $161 $-1 #
coedge $-1 $263 $163 $164 $251 reversed $101 $-1 #
coedge $-1 $257 $346 $163 $249 reversed $161 $-1 #
edge $-1 $264 -18.462335682569755 $348 18.462335682569755 $248 $349 forward 7 unknown #
coedge $-1 $165 $164 $346 $350 forward $65 $-1 #
edge $-1 $255 -77.61589403973511 $348 77.61589403973511 $247 $351 forward 7 unknown #
coedge $-1 $260 $259 $165 $253 reversed $244 $-1 #
edge $-1 $352 -77.61589403973511 $254 77.61589403973511 $252 $353 forward 7 unknown #
vertex $-1 $167 $354 #
vertex $-1 $266 $355 #
straight-curve $-1 77.61589403973511 0 -18.462335682569755 0 -1 0 I I #
coedge $-1 $246 $248 $168 $258 reversed $161 $-1 #
edge $-1 $261 -52.17156252949534 $264 52.17156252949534 $257 $356 forward 7 unknown #
coedge $-1 $252 $169 $174 $267 forward $244 $-1 #
coedge $-1 $169 $252 $246 $347 reversed $244 $-1 #
vertex $-1 $170 $357 #
straight-curve $-1 0 52.17156252949534 18.462335682569755 -1 0 0 I I #
coedge $-1 $171 $247 $173 $266 reversed $101 $-1 #
vertex $-1 $258 $358 #
straight-curve $-1 0 -52.17156252949534 18.462335682569755 1 0 0 I I #
edge $-1 $176 -18.462335682569755 $255 18.462335682569755 $173 $359 forward 7 unknown #
edge $-1 $177 -18.462335682569755 $254 18.462335682569755 $174 $360 forward 7 unknown #
point $-1 77.61589403973511 -52.17156252949534 18.462335682569755 #
point $-1 77.61589403973511 52.17156252949534 18.462335682569755 #
face $-1 $-1 $280 $25 $-1 $361 reversed single #
loop $-1 $-1 $276 $179 #
plane-surface $-1 0 0 -18.462335682569755 0 0 1 1 0 0 forward_v I I I I #
coedge $-1 $362 $363 $187 $284 forward $180 $-1 #
coedge $-1 $182 $288 $278 $364 forward $109 $-1 #
edge $-1 $282 -31.282325593695443 $192 -10.49614827790435 $182 $365 forward 7 unknown #
coedge $-1 $366 $188 $183 $277 forward $271 $-1 #
edge $-1 $193 10.49614827790435 $281 31.282325593695443 $276 $367 forward 7 unknown #
coedge $-1 $368 $185 $274 $364 reversed $280 $-1 #
coedge $-1 $185 $368 $366 $369 reversed $280 $-1 #
loop $-1 $-1 $185 $270 #
vertex $-1 $369 $370 #
vertex $-1 $186 $371 #
straight-curve $-1 -72.704361700950329 -52.17156252949534 0 0 0 1 I I #
edge $-1 $289 -18.462335682569755 $286 18.462335682569755 $273 $372 forward 7 unknown #
coedge $-1 $188 $366 $362 $373 forward $271 $-1 #
vertex $-1 $189 $374 #
straight-curve $-1 -37.58006393517136 -31.385385213704247 -18.462335682569755 1 0 0 I I #
coedge $-1 $274 $190 $363 $375 forward $109 $-1 #
vertex $-1 $375 $376 #
straight-curve $-1 -37.58006393517136 -31.385385213704247 18.462335682569755 -1 0 0 I I #
point $-1 -72.704361700950329 -31.385385213704247 18.462335682569755 #
point $-1 -72.704361700950329 -31.385385213704247 -18.462335682569755 #
plane-surface $-1 0 0 18.462335682569755 0 0 1 1 0 0 forward_v I I I I #
coedge $-1 $304 $303 $296 $377 forward $196 $-1 #
coedge $-1 $296 $198 $200 $300 reversed $117 $-1 #
coedge $-1 $198 $295 $294 $377 reversed $117 $-1 #
coedge $-1 $206 $201 $198 $298 forward $207 $-1 #
edge $-1 $301 22.210602951361182 $378 27.334331775323804 $297 $379 forward 7 unknown #
coedge $-1 $200 $199 $304 $380 reversed $73 $-1 #
edge $-1 $381 -155.23178807947028 $301 -147.09010225451854 $295 $382 forward 7 unknown #
vertex $-1 $202 $383 #
straight-curve $-1 72.492165215772474 -11.622871013898855 18.462335682569773 0 -1 0 I I #
coedge $-1 $294 $203 $206 $308 reversed $196 $-1 #
coedge $-1 $203 $294 $299 $380 forward $196 $-1 #
vertex $-1 $204 $384 #
straight-curve $-1 77.61589403973511 -15.106098841891173 115.23167191418935 0 0 1 I I #
straight-curve $-1 -20.074633951469352 -15.106098841891173 132.77281583717428 0.62932038083071107 0 -0.77714596973225614 I I #
edge $-1 $378 -31.385385213704247 $208 -15.106098841891173 $303 $385 forward 7 unknown #
point $-1 77.61589403973511 -15.106098841891173 18.462335682569755 #
point $-1 72.492165215772488 -15.106098841891173 18.462335682569758 #
edge $-1 $386 1 $386 0 $211 $-1 forward 7 unknown #
vertex $-1 $212 $387 #
ellipse-curve $-1 73.062449293961521 -26.734160536043373 13.685946607957305 0.77714596973225614 0 0.62932038083071107 0.9439805712460666 0 -1.1657189545983841 1 I I #
point $-1 75.998010198999879 -26.734160536043373 14.132977565127653 #
edge $-1 $388 1 $388 0 $215 $-1 forward 7 unknown #
vertex $-1 $216 $389 #
ellipse-curve $-1 73.062449293961521 -19.757323519552052 13.685946607957305 0.77714596973225614 0 0.62932038083071107 0.9439805712460666 0 -1.1657189545983841 1 I I #
point $-1 75.998010198999879 -19.757323519552052 14.132977565127653 #
plane-surface $-1 0 0 18.462335682569755 0 0 1 1 0 0 forward_v I I I I #
coedge $-1 $330 $329 $322 $390 forward $220 $-1 #
coedge $-1 $322 $222 $224 $326 reversed $139 $-1 #
coedge $-1 $222 $321 $320 $390 reversed $139 $-1 #
coedge $-1 $230 $225 $222 $324 forward $231 $-1 #
edge $-1 $327 22.210602951361182 $391 27.334331775323804 $323 $392 forward 7 unknown #
coedge $-1 $224 $223 $330 $393 reversed $87 $-1 #
edge $-1 $394 -155.23178807947028 $327 -147.09010225451854 $321 $395 forward 7 unknown #
vertex $-1 $226 $396 #
straight-curve $-1 72.492165215772474 9.2663659219010377 18.462335682569773 0 -1 0 I I #
coedge $-1 $320 $227 $230 $334 reversed $220 $-1 #
coedge $-1 $227 $320 $325 $393 forward $220 $-1 #
vertex $-1 $228 $397 #
straight-curve $-1 77.61589403973511 26.672375029708611 115.23167191418935 0 0 1 I I #
straight-curve $-1 -20.074633951469352 26.672375029708611 132.77281583717428 0.62932038083071107 0 -0.77714596973225614 I I #
edge $-1 $391 10.393088657895538 $232 26.672375029708611 $329 $398 forward 7 unknown #
point $-1 77.61589403973511 26.672375029708611 18.462335682569755 #
point $-1 72.492165215772488 26.672375029708611 18.462335682569758 #
edge $-1 $399 1 $399 0 $235 $-1 forward 7 unknown #
vertex $-1 $236 $400 #
ellipse-curve $-1 73.062449293961521 15.044313335556417 13.685946607957305 0.77714596973225614 0 0.62932038083071107 0.9439805712460666 0 -1.1657189545983841 1 I I #
point $-1 75.998010198999879 15.044313335556417 14.132977565127653 #
edge $-1 $401 1 $401 0 $239 $-1 forward 7 unknown #
vertex $-1 $240 $402 #
ellipse-curve $-1 73.062449293961521 22.021150352047748 13.685946607957305 0.77714596973225614 0 0.62932038083071107 0.9439805712460666 0 -1.1657189545983841 1 I I #
point $-1 75.998010198999879 22.021150352047748 14.132977565127653 #
plane-surface $-1 77.61589403973511 0 0 -1 0 0 0 0 1 forward_v I I I I #
coedge $-1 $248 $246 $250 $350 reversed $161 $-1 #
edge $-1 $261 -18.462335682569755 $352 18.462335682569755 $260 $403 forward 7 unknown #
vertex $-1 $350 $404 #
straight-curve $-1 -77.61589403973511 -52.17156252949534 0 0 0 -1 I I #
edge $-1 $348 -52.17156252949534 $352 52.17156252949534 $346 $405 forward 7 unknown #
straight-curve $-1 0 -52.17156252949534 -18.462335682569755 -1 0 0 I I #
vertex $-1 $253 $406 #
straight-curve $-1 0 52.17156252949534 -18.462335682569755 1 0 0 I I #
point $-1 77.61589403973511 52.17156252949534 -18.462335682569755 #
point $-1 77.61589403973511 -52.17156252949534 -18.462335682569755 #
straight-curve $-1 -77.61589403973511 0 18.462335682569755 0 -1 0 I I #
point $-1 -77.61589403973511 52.17156252949534 18.462335682569755 #
point $-1 -77.61589403973511 -52.17156252949534 18.462335682569755 #
straight-curve $-1 77.61589403973511 -52.17156252949534 0 0 0 -1 I I #
straight-curve $-1 77.61589403973511 52.17156252949534 0 0 0 -1 I I #
plane-surface $-1 0 -52.17156252949534 0 0 1 0 0 0 1 forward_v I I I I #
coedge $-1 $407 $273 $285 $373 reversed $180 $-1 #
coedge $-1 $273 $407 $288 $375 reversed $180 $-1 #
edge $-1 $408 -77.61589403973511 $282 -72.704361700950329 $278 $409 forward 7 unknown #
straight-curve $-1 -72.704361700950329 -20.889236935799897 18.462335682569755 0 1 0 I I #
coedge $-1 $285 $276 $279 $369 forward $271 $-1 #
straight-curve $-1 -72.704361700950329 -20.889236935799897 -18.462335682569755 0 -1 0 I I #
coedge $-1 $279 $278 $407 $410 forward $280 $-1 #
edge $-1 $281 72.704361700950329 $411 77.61589403973511 $279 $412 forward 7 unknown #
point $-1 -72.704361700950329 -52.17156252949534 -18.462335682569755 #
point $-1 -72.704361700950329 -52.17156252949534 18.462335682569755 #
straight-curve $-1 -77.61589403973511 -31.385385213704247 0 0 0 -1 I I #
edge $-1 $411 -52.17156252949534 $286 -31.385385213704247 $362 $413 forward 7 unknown #
point $-1 -77.61589403973511 -31.385385213704247 -18.462335682569755 #
edge $-1 $289 31.385385213704247 $408 52.17156252949534 $363 $414 forward 7 unknown #
point $-1 -77.61589403973511 -31.385385213704247 18.462335682569755 #
edge $-1 $378 96.76933623161959 $381 103.09661455730708 $294 $415 forward 7 unknown #
vertex $-1 $308 $416 #
straight-curve $-1 50.281562264411306 -31.385385213704247 18.462335682569758 1 0 0 I I #
edge $-1 $381 -19.762514199805391 $305 -3.4832278279923177 $304 $417 forward 7 unknown #
vertex $-1 $380 $418 #
straight-curve $-1 -20.074633951469352 -31.385385213704247 132.77281583717428 -0.62932038083071107 0 0.77714596973225614 I I #
point $-1 72.492165215772488 -31.385385213704247 18.462335682569758 #
point $-1 77.615894039735124 -15.106098841891173 12.135057356882271 #
straight-curve $-1 77.61589403973511 0 18.462335682569755 0 1 0 I I #
vertex $-1 $311 $419 #
point $-1 74.006429865207579 -26.734160536043373 12.520227653358923 #
vertex $-1 $315 $420 #
point $-1 74.006429865207579 -19.757323519552052 12.520227653358923 #
edge $-1 $391 96.76933623161959 $394 103.09661455730708 $320 $421 forward 7 unknown #
vertex $-1 $334 $422 #
straight-curve $-1 50.281562264411306 10.393088657895538 18.462335682569758 1 0 0 I I #
edge $-1 $394 1.1267227359945 $331 17.406009107807574 $330 $423 forward 7 unknown #
vertex $-1 $393 $424 #
straight-curve $-1 -20.074633951469352 10.393088657895538 132.77281583717428 -0.62932038083071107 0 0.77714596973225614 I I #
point $-1 72.492165215772488 10.393088657895538 18.462335682569758 #
point $-1 77.615894039735124 26.672375029708611 12.135057356882271 #
straight-curve $-1 77.61589403973511 0 18.462335682569755 0 1 0 I I #
vertex $-1 $337 $425 #
point $-1 74.006429865207579 15.044313335556417 12.520227653358923 #
vertex $-1 $341 $426 #
point $-1 74.006429865207579 22.021150352047748 12.520227653358923 #
straight-curve $-1 -77.61589403973511 52.17156252949534 0 0 0 -1 I I #
point $-1 -77.61589403973511 -52.17156252949534 -18.462335682569755 #
straight-curve $-1 -77.61589403973511 0 -18.462335682569755 0 1 0 I I #
point $-1 -77.61589403973511 52.17156252949534 -18.462335682569755 #
coedge $-1 $363 $362 $368 $410 reversed $180 $-1 #
vertex $-1 $375 $427 #
straight-curve $-1 0 -52.17156252949534 18.462335682569755 1 0 0 I I #
edge $-1 $408 -18.462335682569755 $411 18.462335682569755 $407 $428 forward 7 unknown #
vertex $-1 $373 $429 #
straight-curve $-1 0 -52.17156252949534 -18.462335682569755 -1 0 0 I I #
straight-curve $-1 -77.61589403973511 0 -18.462335682569755 0 1 0 I I #
straight-curve $-1 -77.61589403973511 0 18.462335682569755 0 -1 0 I I #
straight-curve $-1 77.61589403973511 -31.385385213704247 115.23167191418935 0 0 -1 I I #
point $-1 77.61589403973511 -31.385385213704247 18.462335682569755 #
straight-curve $-1 77.615894039735096 -11.622871013898855 12.135057356882285 0 1 0 I I #
point $-1 77.615894039735124 -31.385385213704247 12.135057356882271 #
point $-1 71.896730339363131 -26.734160536043373 12.74196603671124 #
point $-1 71.896730339363131 -19.757323519552052 12.74196603671124 #
straight-curve $-1 77.61589403973511 10.393088657895538 115.23167191418935 0 0 -1 I I #
point $-1 77.61589403973511 10.393088657895538 18.462335682569755 #
straight-curve $-1 77.615894039735096 9.2663659219010377 12.135057356882285 0 1 0 I I #
point $-1 77.615894039735124 10.393088657895538 12.135057356882271 #
point $-1 71.896730339363131 15.044313335556417 12.74196603671124 #
point $-1 71.896730339363131 22.021150352047748 12.74196603671124 #
point $-1 -77.61589403973511 -52.17156252949534 18.462335682569755 #
straight-curve $-1 -77.61589403973511 -52.17156252949534 0 0 0 -1 I I #
point $-1 -77.61589403973511 -52.17156252949534 -18.462335682569755 #
End-of-ACIS-data 