500 0 9 0           
7 Unknown 11 ACIS 5.0 NT 24 Thu Mar 25 23:28:00 1999 
-1 9.9999999999999995e-007 1e-010 
body $-1 $9 $-1 $10 #
body $-1 $11 $-1 $12 #
body $-1 $13 $-1 $14 #
body $-1 $15 $-1 $16 #
body $-1 $17 $-1 $18 #
body $-1 $19 $-1 $20 #
body $-1 $21 $-1 $22 #
body $-1 $23 $-1 $24 #
body $-1 $25 $-1 $26 #
lump $-1 $-1 $27 $0 #
transform $-1 1 0 0 0 1 0 0 0 1 46.894741660817289 24.727541319486104 8.7285572044344644 1 rotate no_reflect no_shear #
lump $-1 $-1 $28 $1 #
transform $-1 1 0 0 0 1 0 0 0 1 46.894741660817289 24.727541319486104 8.7285572044344644 1 rotate no_reflect no_shear #
lump $-1 $-1 $29 $2 #
transform $-1 1 0 0 0 1 0 0 0 1 46.894741660817289 24.727541319486104 8.7285572044344644 1 rotate no_reflect no_shear #
lump $-1 $-1 $30 $3 #
transform $-1 1 0 0 0 1 0 0 0 1 46.894741660817289 24.727541319486104 8.7285572044344644 1 rotate no_reflect no_shear #
lump $-1 $-1 $31 $4 #
transform $-1 1 0 0 0 1 0 0 0 1 46.894741660817289 24.727541319486104 8.7285572044344644 1 rotate no_reflect no_shear #
lump $-1 $-1 $32 $5 #
transform $-1 1 0 0 0 1 0 0 0 1 46.894741660817289 24.727541319486104 8.7285572044344644 1 rotate no_reflect no_shear #
lump $-1 $-1 $33 $6 #
transform $-1 1 0 0 0 1 0 0 0 1 46.894741660817289 24.727541319486104 8.7285572044344644 1 rotate no_reflect no_shear #
lump $-1 $-1 $34 $7 #
transform $-1 1 0 0 0 1 0 0 0 1 46.894741660817289 24.727541319486104 8.7285572044344644 1 rotate no_reflect no_shear #
lump $-1 $-1 $35 $8 #
transform $-1 1 0 0 0 1 0 0 0 1 46.894741660817289 24.727541319486104 8.7285572044344644 1 rotate no_reflect no_shear #
shell $-1 $-1 $-1 $36 $-1 $9 #
shell $-1 $-1 $-1 $37 $-1 $11 #
shell $-1 $-1 $-1 $38 $-1 $13 #
shell $-1 $-1 $-1 $39 $-1 $15 #
shell $-1 $-1 $-1 $40 $-1 $17 #
shell $-1 $-1 $-1 $41 $-1 $19 #
shell $-1 $-1 $-1 $42 $-1 $21 #
shell $-1 $-1 $-1 $43 $-1 $23 #
shell $-1 $-1 $-1 $44 $-1 $25 #
face $-1 $45 $46 $27 $-1 $47 forward single #
face $-1 $48 $49 $28 $-1 $50 forward single #
face $-1 $51 $52 $29 $-1 $53 reversed single #
face $-1 $54 $55 $30 $-1 $56 reversed single #
face $-1 $57 $58 $31 $-1 $59 forward single #
face $-1 $60 $61 $32 $-1 $62 forward single #
face $-1 $63 $64 $33 $-1 $65 reversed single #
face $-1 $66 $67 $34 $-1 $68 forward single #
face $-1 $69 $70 $35 $-1 $71 forward single #
face $-1 $72 $73 $27 $-1 $74 reversed single #
loop $-1 $-1 $75 $36 #
plane-surface $-1 0 0 8.7285572044344644 0 0 1 1 0 0 forward_v I I I I #
face $-1 $76 $77 $28 $-1 $78 reversed single #
loop $-1 $-1 $79 $37 #
plane-surface $-1 0 -19.457122496483798 -4.8397448259848961 0 0 1 1 0 0 forward_v I I I I #
face $-1 $80 $81 $29 $-1 $82 reversed single #
loop $-1 $-1 $83 $38 #
plane-surface $-1 0 20.533534446907669 5.7285572044344644 0 0 1 1 0 0 forward_v I I I I #
face $-1 $84 $85 $30 $-1 $86 reversed single #
loop $-1 $-1 $87 $39 #
plane-surface $-1 -120.80186386766098 -11.220840968284197 60.255709198757216 0 1 0 -0.78801076186113728 0 0.61566146476048833 forward_v I I I I #
face $-1 $88 $89 $31 $-1 $90 forward single #
loop $-1 $91 $92 $40 #
cone-surface $-1 -43.105023459159149 -8.7133740900458037 4.5569637311113009 0.78801076186113728 0 -0.61566146476048833 0.61566146476048833 0 0.78801076186113728 1 I I 0 1 1 forward I I I I #
face $-1 $93 $94 $32 $-1 $95 forward single #
loop $-1 $96 $97 $41 #
cone-surface $-1 -43.105023459159149 -4.9521737726882193 4.5569637311113009 0.78801076186113728 0 -0.61566146476048833 0.61566146476048833 0 0.78801076186113728 1 I I 0 1 1 forward I I I I #
face $-1 $98 $99 $33 $-1 $100 reversed single #
loop $-1 $-1 $101 $42 #
plane-surface $-1 35.334548300072328 0.43441542728107763 132.93608649424439 0 -1 0 -0.64278761758704617 0 -0.76604443648966558 forward_v I I I I #
face $-1 $102 $103 $34 $-1 $104 forward single #
loop $-1 $105 $106 $43 #
cone-surface $-1 41.04455415991864 -6.0421431030313713 3.4221526651172383 -0.64278761758704617 0 -0.76604443648966558 0.76604443648966558 0 -0.64278761758704617 1 I I 0 1 1 forward I I I I #
face $-1 $107 $108 $35 $-1 $109 forward single #
loop $-1 $110 $111 $44 #
cone-surface $-1 41.04455415991864 -2.1562079848438991 3.4221526651172383 -0.64278761758704617 0 -0.76604443648966558 0.76604443648966558 0 -0.64278761758704617 1 I I 0 1 1 forward I I I I #
face $-1 $112 $113 $27 $-1 $114 reversed single #
loop $-1 $-1 $115 $45 #
plane-surface $-1 0 0 -8.7285572044344644 0 0 1 1 0 0 forward_v I I I I #
coedge $-1 $116 $117 $118 $119 forward $46 $-1 #
face $-1 $120 $121 $28 $-1 $122 reversed single #
loop $-1 $-1 $123 $48 #
plane-surface $-1 0 -14.186703673481492 -6.7841510152096802 0 -1 0 0 0 -1 forward_v I I I I #
coedge $-1 $124 $125 $126 $127 reversed $49 $-1 #
face $-1 $128 $129 $29 $-1 $130 reversed single #
loop $-1 $-1 $131 $51 #
plane-surface $-1 0 16.339527574329235 7.2285572044344644 0 1 0 0 0 1 forward_v I I I I #
coedge $-1 $132 $133 $134 $135 reversed $52 $-1 #
face $-1 $136 $137 $30 $-1 $138 reversed single #
loop $-1 $-1 $139 $54 #
plane-surface $-1 -46.894741660817289 -6.8327739313670115 2.513138517830285 -0.78801076186113728 0 0.61566146476048833 0.61566146476048833 0 0.78801076186113728 forward_v I I I I #
coedge $-1 $140 $141 $142 $143 reversed $55 $-1 #
face $-1 $-1 $144 $31 $-1 $145 forward single #
loop $-1 $146 $147 $57 #
cone-surface $-1 -41.349308450753306 -8.7133740900458037 3.1852488687099765 0.78801076186113728 0 -0.61566146476048833 0.30783073238024417 0 0.39400538093056864 1 I I -0.70710678118654746 0.70710678118654746 0.5 forward I I I I #
loop $-1 $-1 $148 $40 #
coedge $-1 $92 $92 $149 $150 reversed $58 $-1 #
face $-1 $-1 $151 $32 $-1 $152 forward single #
loop $-1 $153 $154 $60 #
cone-surface $-1 -41.349308450753306 -4.9521737726882193 3.1852488687099765 0.78801076186113728 0 -0.61566146476048833 0.30783073238024417 0 0.39400538093056864 1 I I -0.70710678118654746 0.70710678118654746 0.5 forward I I I I #
loop $-1 $-1 $155 $41 #
coedge $-1 $97 $97 $156 $157 reversed $61 $-1 #
face $-1 $158 $159 $33 $-1 $160 reversed single #
loop $-1 $-1 $161 $63 #
plane-surface $-1 -24.952170238961166 -4.0991755439376369 61.089174594465945 0.64278761758704617 0 0.76604443648966558 0.76604443648966558 0 -0.64278761758704617 forward_v I I I I #
coedge $-1 $162 $163 $164 $165 reversed $64 $-1 #
face $-1 $-1 $166 $34 $-1 $167 forward single #
loop $-1 $168 $169 $66 #
cone-surface $-1 39.595952511097977 -6.0421431030313713 1.695776482056198 -0.64278761758704617 0 -0.76604443648966558 0.38302221824483279 0 -0.32139380879352308 1 I I -0.70710678118654746 0.70710678118654746 0.5 forward I I I I #
loop $-1 $-1 $170 $43 #
coedge $-1 $106 $106 $171 $172 reversed $67 $-1 #
face $-1 $-1 $173 $35 $-1 $174 forward single #
loop $-1 $175 $176 $69 #
cone-surface $-1 39.595952511097977 -2.1562079848438991 1.695776482056198 -0.64278761758704617 0 -0.76604443648966558 0.38302221824483279 0 -0.32139380879352308 1 I I -0.70710678118654746 0.70710678118654746 0.5 forward I I I I #
loop $-1 $-1 $177 $44 #
coedge $-1 $111 $111 $178 $179 reversed $70 $-1 #
face $-1 $180 $181 $27 $-1 $182 reversed single #
loop $-1 $-1 $183 $72 #
plane-surface $-1 0 -24.727541319486104 0 0 1 0 0 0 1 forward_v I I I I #
coedge $-1 $184 $185 $186 $187 forward $73 $-1 #
coedge $-1 $188 $75 $189 $190 forward $46 $-1 #
coedge $-1 $75 $188 $191 $192 forward $46 $-1 #
coedge $-1 $193 $194 $75 $119 reversed $195 $-1 #
edge $-1 $196 -24.727541319486104 $197 24.727541319486104 $118 $198 forward 7 unknown #
face $-1 $199 $200 $28 $-1 $201 reversed single #
loop $-1 $-1 $202 $76 #
plane-surface $-1 0 0 -8.7285572044344644 0 0 1 1 0 0 forward_v I I I I #
coedge $-1 $203 $204 $205 $206 reversed $77 $-1 #
coedge $-1 $207 $79 $204 $208 forward $49 $-1 #
coedge $-1 $79 $207 $209 $210 reversed $49 $-1 #
coedge $-1 $211 $205 $79 $127 forward $200 $-1 #
edge $-1 $212 4.4581424252395934 $213 14.998980071244205 $126 $214 forward 7 unknown #
face $-1 $215 $216 $29 $-1 $217 reversed single #
loop $-1 $-1 $218 $80 #
plane-surface $-1 0 24.727541319486104 0 0 -1 0 0 0 -1 forward_v I I I I #
coedge $-1 $219 $220 $221 $222 reversed $81 $-1 #
coedge $-1 $223 $83 $219 $224 forward $52 $-1 #
coedge $-1 $83 $223 $218 $225 reversed $52 $-1 #
coedge $-1 $226 $227 $83 $135 forward $228 $-1 #
edge $-1 $229 6.0727603508754004 $230 14.460774096032269 $134 $231 forward 7 unknown #
face $-1 $232 $233 $30 $-1 $234 reversed single #
loop $-1 $-1 $235 $84 #
plane-surface $-1 -120.80186386766098 -2.4447068944498271 60.255709198757216 0 -1 0 0.78801076186113728 0 -0.61566146476048833 forward_v I I I I #
coedge $-1 $236 $237 $238 $239 reversed $85 $-1 #
coedge $-1 $141 $87 $240 $241 reversed $55 $-1 #
coedge $-1 $87 $140 $236 $242 reversed $55 $-1 #
coedge $-1 $238 $243 $87 $143 forward $244 $-1 #
edge $-1 $245 13.506190273013203 $246 18.362207421378947 $142 $247 forward 7 unknown #
loop $-1 $-1 $149 $88 #
plane-surface $-1 -46.894741660817289 -6.8327739313670115 2.513138517830285 -0.78801076186113728 0 0.61566146476048833 0.61566146476048833 0 0.78801076186113728 forward_v I I I I #
loop $-1 $-1 $248 $57 #
coedge $-1 $147 $147 $148 $249 reversed $89 $-1 #
coedge $-1 $148 $148 $147 $249 forward $91 $-1 #
coedge $-1 $149 $149 $92 $150 forward $144 $-1 #
edge $-1 $250 0 $250 6.2831853071796004 $149 $251 forward 7 unknown #
loop $-1 $-1 $156 $93 #
plane-surface $-1 -46.894741660817289 -6.8327739313670115 2.513138517830285 -0.78801076186113728 0 0.61566146476048833 0.61566146476048833 0 0.78801076186113728 forward_v I I I I #
loop $-1 $-1 $252 $60 #
coedge $-1 $154 $154 $155 $253 reversed $94 $-1 #
coedge $-1 $155 $155 $154 $253 forward $96 $-1 #
coedge $-1 $156 $156 $97 $157 forward $151 $-1 #
edge $-1 $254 0 $254 6.2831853071796004 $156 $255 forward 7 unknown #
face $-1 $256 $257 $33 $-1 $258 forward single #
loop $-1 $-1 $259 $98 #
plane-surface $-1 35.334548300072328 -8.6327665151563515 132.93608649424439 0 1 0 0.64278761758704617 0 0.76604443648966558 forward_v I I I I #
coedge $-1 $260 $261 $262 $263 reversed $99 $-1 #
coedge $-1 $163 $101 $264 $265 reversed $64 $-1 #
coedge $-1 $101 $162 $260 $266 reversed $64 $-1 #
coedge $-1 $262 $267 $101 $165 forward $257 $-1 #
edge $-1 $268 -29.227467510781125 $269 -19.781508189038114 $164 $270 forward 7 unknown #
loop $-1 $-1 $171 $102 #
plane-surface $-1 -24.952170238961166 -4.0991755439376369 61.089174594465945 0.64278761758704617 0 0.76604443648966558 0.76604443648966558 0 -0.64278761758704617 forward_v I I I I #
loop $-1 $-1 $271 $66 #
coedge $-1 $169 $169 $170 $272 reversed $103 $-1 #
coedge $-1 $170 $170 $169 $272 forward $105 $-1 #
coedge $-1 $171 $171 $106 $172 forward $166 $-1 #
edge $-1 $273 0 $273 6.2831853071796004 $171 $274 forward 7 unknown #
loop $-1 $-1 $178 $107 #
plane-surface $-1 -24.952170238961166 -4.0991755439376369 61.089174594465945 0.64278761758704617 0 0.76604443648966558 0.76604443648966558 0 -0.64278761758704617 forward_v I I I I #
loop $-1 $-1 $275 $69 #
coedge $-1 $176 $176 $177 $276 reversed $108 $-1 #
coedge $-1 $177 $177 $176 $276 forward $110 $-1 #
coedge $-1 $178 $178 $111 $179 forward $173 $-1 #
edge $-1 $277 0 $277 6.2831853071796004 $178 $278 forward 7 unknown #
face $-1 $279 $280 $27 $-1 $281 reversed single #
loop $-1 $-1 $282 $112 #
plane-surface $-1 -46.894741660817289 0 0 1 0 0 0 0 -1 forward_v I I I I #
coedge $-1 $283 $191 $284 $285 forward $113 $-1 #
coedge $-1 $286 $115 $283 $287 forward $73 $-1 #
coedge $-1 $115 $286 $288 $289 forward $73 $-1 #
coedge $-1 $194 $193 $115 $187 reversed $195 $-1 #
edge $-1 $290 -24.727541319486104 $291 24.727541319486104 $186 $292 forward 7 unknown #
coedge $-1 $117 $116 $293 $294 forward $46 $-1 #
coedge $-1 $295 $296 $116 $190 reversed $280 $-1 #
edge $-1 $197 -46.894741660817289 $297 46.894741660817289 $189 $298 forward 7 unknown #
coedge $-1 $183 $299 $117 $192 reversed $113 $-1 #
edge $-1 $300 -46.894741660817289 $196 46.894741660817289 $191 $301 forward 7 unknown #
coedge $-1 $186 $118 $299 $302 forward $195 $-1 #
coedge $-1 $118 $186 $295 $303 reversed $195 $-1 #
loop $-1 $-1 $193 $279 #
vertex $-1 $119 $304 #
vertex $-1 $119 $305 #
straight-curve $-1 46.894741660817289 0 8.7285572044344644 0 1 0 I I #
face $-1 $306 $307 $28 $-1 $308 reversed single #
loop $-1 $-1 $205 $120 #
plane-surface $-1 46.894741660817289 0 0 -1 0 0 0 0 1 forward_v I I I I #
coedge $-1 $309 $310 $203 $311 forward $121 $-1 #
coedge $-1 $312 $123 $202 $311 reversed $77 $-1 #
coedge $-1 $123 $312 $124 $208 reversed $77 $-1 #
coedge $-1 $126 $313 $123 $206 forward $200 $-1 #
edge $-1 $314 -5.3364816968296243 $212 -1.447669318380056 $205 $315 forward 7 unknown #
coedge $-1 $125 $124 $316 $317 reversed $49 $-1 #
edge $-1 $212 -46.894741660817289 $318 46.894741660817289 $204 $319 forward 7 unknown #
coedge $-1 $320 $321 $125 $210 forward $307 $-1 #
edge $-1 $213 -46.894741660817289 $322 46.894741660817289 $209 $323 forward 7 unknown #
coedge $-1 $313 $126 $321 $324 forward $200 $-1 #
vertex $-1 $127 $325 #
vertex $-1 $324 $326 #
straight-curve $-1 46.894741660817289 -9.7285612482418991 -4.8397448259848961 0 -1 0 I I #
face $-1 $327 $328 $29 $-1 $329 forward single #
loop $-1 $-1 $330 $128 #
plane-surface $-1 -46.894741660817289 0 0 1 0 0 0 0 -1 forward_v I I I I #
coedge $-1 $331 $332 $133 $225 forward $129 $-1 #
coedge $-1 $333 $131 $132 $224 reversed $81 $-1 #
coedge $-1 $131 $333 $334 $335 reversed $81 $-1 #
coedge $-1 $336 $330 $131 $222 forward $216 $-1 #
edge $-1 $337 2.1142786022172322 $338 5.1142786022172322 $221 $339 forward 7 unknown #
coedge $-1 $133 $132 $330 $340 reversed $52 $-1 #
edge $-1 $229 -46.894741660817289 $337 46.894741660817289 $219 $341 forward 7 unknown #
edge $-1 $230 -46.894741660817289 $342 46.894741660817289 $218 $343 forward 7 unknown #
coedge $-1 $344 $134 $332 $345 reversed $228 $-1 #
coedge $-1 $134 $344 $333 $346 forward $228 $-1 #
loop $-1 $-1 $134 $327 #
vertex $-1 $135 $347 #
vertex $-1 $225 $348 #
straight-curve $-1 46.894741660817289 10.266767223453835 5.7285572044344644 0 1 0 I I #
face $-1 $-1 $244 $30 $-1 $349 forward single #
loop $-1 $-1 $350 $136 #
plane-surface $-1 -46.894741660817289 0 0 1 0 0 0 0 -1 forward_v I I I I #
coedge $-1 $351 $352 $353 $354 reversed $137 $-1 #
coedge $-1 $355 $139 $141 $242 forward $85 $-1 #
coedge $-1 $139 $355 $351 $356 forward $85 $-1 #
coedge $-1 $353 $142 $139 $239 forward $244 $-1 #
edge $-1 $246 -7.804454002600691 $357 0.97168007123367861 $238 $358 forward 7 unknown #
coedge $-1 $359 $360 $140 $241 forward $233 $-1 #
edge $-1 $361 -27.614716081548323 $245 -21.399297394944142 $240 $362 forward 7 unknown #
edge $-1 $246 -7.8874794449818122 $361 0 $141 $363 forward 7 unknown #
coedge $-1 $142 $353 $359 $364 forward $244 $-1 #
loop $-1 $-1 $353 $232 #
vertex $-1 $241 $365 #
vertex $-1 $143 $366 #
straight-curve $-1 -60.400931933830492 -11.220840968284197 8.7285572044344661 1 0 0 I I #
coedge $-1 $248 $248 $-1 $367 reversed $146 $-1 #
edge $-1 $368 0 $368 6.2831853071796004 $147 $369 forward 7 unknown #
vertex $-1 $150 $370 #
ellipse-curve $-1 -44.466733086634413 -8.7133740900458037 5.6208478611323756 -0.78801076186113728 0 0.61566146476048833 0.61566146476048833 0 0.78801076186113728 1 I I #
coedge $-1 $252 $252 $-1 $371 reversed $153 $-1 #
edge $-1 $372 0 $372 6.2831853071796004 $154 $373 forward 7 unknown #
vertex $-1 $157 $374 #
ellipse-curve $-1 -44.466733086634413 -4.9521737726882193 5.6208478611323756 -0.78801076186113728 0 0.61566146476048833 0.61566146476048833 0 0.78801076186113728 1 I I #
face $-1 $-1 $375 $33 $-1 $376 reversed single #
loop $-1 $-1 $164 $158 #
plane-surface $-1 0 0 8.7285572044344644 0 0 1 1 0 0 forward_v I I I I #
coedge $-1 $377 $378 $379 $380 reversed $159 $-1 #
coedge $-1 $381 $161 $163 $266 forward $99 $-1 #
coedge $-1 $161 $381 $377 $382 forward $99 $-1 #
coedge $-1 $379 $164 $161 $263 forward $257 $-1 #
edge $-1 $269 -2.4840031992498961 $383 6.583178743187533 $262 $384 forward 7 unknown #
coedge $-1 $385 $386 $162 $265 forward $375 $-1 #
edge $-1 $387 -65.665587191689752 $268 -57.73948604268773 $264 $388 forward 7 unknown #
edge $-1 $269 81.458659061584711 $387 93.789483321634606 $163 $389 forward 7 unknown #
coedge $-1 $164 $379 $385 $390 forward $257 $-1 #
vertex $-1 $165 $391 #
vertex $-1 $165 $392 #
straight-curve $-1 17.667274150036164 0.43441542728107763 8.7285572044344661 -1 0 0 I I #
coedge $-1 $271 $271 $-1 $393 reversed $168 $-1 #
edge $-1 $394 0 $394 6.2831853071796004 $169 $395 forward 7 unknown #
vertex $-1 $172 $396 #
ellipse-curve $-1 42.171761999945787 -6.0421431030313713 4.7655066299334514 0.64278761758704617 0 0.76604443648966558 0.76604443648966558 0 -0.64278761758704617 1 I I #
coedge $-1 $275 $275 $-1 $397 reversed $175 $-1 #
edge $-1 $398 0 $398 6.2831853071796004 $176 $399 forward 7 unknown #
vertex $-1 $179 $400 #
ellipse-curve $-1 42.171761999945787 -2.1562079848438991 4.7655066299334514 0.64278761758704617 0 0.76604443648966558 0.76604443648966558 0 -0.64278761758704617 1 I I #
face $-1 $-1 $195 $27 $-1 $401 reversed single #
loop $-1 $-1 $295 $180 #
plane-surface $-1 0 24.727541319486104 0 0 -1 0 0 0 -1 forward_v I I I I #
coedge $-1 $402 $293 $296 $403 forward $181 $-1 #
coedge $-1 $299 $183 $184 $287 reversed $113 $-1 #
coedge $-1 $293 $402 $183 $285 reversed $181 $-1 #
edge $-1 $300 -8.7285572044344644 $404 8.7285572044344644 $284 $405 forward 7 unknown #
coedge $-1 $185 $184 $402 $406 forward $73 $-1 #
edge $-1 $291 -46.894741660817289 $404 46.894741660817289 $283 $407 forward 7 unknown #
coedge $-1 $296 $295 $185 $289 reversed $280 $-1 #
edge $-1 $408 -46.894741660817289 $290 46.894741660817289 $288 $409 forward 7 unknown #
vertex $-1 $187 $410 #
vertex $-1 $302 $411 #
straight-curve $-1 46.894741660817289 0 -8.7285572044344644 0 -1 0 I I #
coedge $-1 $282 $284 $188 $294 reversed $181 $-1 #
edge $-1 $297 -24.727541319486104 $300 24.727541319486104 $293 $412 forward 7 unknown #
coedge $-1 $288 $189 $194 $303 forward $280 $-1 #
coedge $-1 $189 $288 $282 $403 reversed $280 $-1 #
vertex $-1 $190 $413 #
straight-curve $-1 0 24.727541319486104 8.7285572044344644 -1 0 0 I I #
coedge $-1 $191 $283 $193 $302 reversed $113 $-1 #
vertex $-1 $294 $414 #
straight-curve $-1 0 -24.727541319486104 8.7285572044344644 1 0 0 I I #
edge $-1 $196 -8.7285572044344644 $291 8.7285572044344644 $193 $415 forward 7 unknown #
edge $-1 $197 -8.7285572044344644 $290 8.7285572044344644 $194 $416 forward 7 unknown #
point $-1 46.894741660817289 -24.727541319486104 8.7285572044344644 #
point $-1 46.894741660817289 24.727541319486104 8.7285572044344644 #
face $-1 $-1 $417 $28 $-1 $418 reversed single #
loop $-1 $-1 $209 $199 #
plane-surface $-1 0 -24.727541319486104 0 0 1 0 0 0 1 forward_v I I I I #
coedge $-1 $419 $202 $313 $420 forward $121 $-1 #
coedge $-1 $202 $419 $421 $422 forward $121 $-1 #
edge $-1 $423 -46.894741660817289 $314 46.894741660817289 $202 $424 forward 7 unknown #
coedge $-1 $204 $203 $425 $426 reversed $77 $-1 #
coedge $-1 $205 $211 $309 $420 reversed $200 $-1 #
vertex $-1 $420 $427 #
straight-curve $-1 46.894741660817289 -14.186703673481492 -3.3920755076048401 0 0 1 I I #
coedge $-1 $425 $428 $207 $317 forward $417 $-1 #
edge $-1 $322 -14.998980071244205 $318 -4.4581424252395934 $316 $429 forward 7 unknown #
vertex $-1 $317 $430 #
straight-curve $-1 0 -14.186703673481492 -4.8397448259848961 -1 0 0 I I #
coedge $-1 $431 $209 $428 $432 forward $307 $-1 #
coedge $-1 $209 $431 $211 $324 reversed $307 $-1 #
vertex $-1 $432 $433 #
straight-curve $-1 0 -24.727541319486104 -4.8397448259848961 -1 0 0 I I #
edge $-1 $213 4.8397448259848961 $434 8.7285572044344644 $211 $435 forward 7 unknown #
point $-1 46.894741660817289 -14.186703673481492 -4.8397448259848961 #
point $-1 46.894741660817289 -24.727541319486104 -4.8397448259848961 #
face $-1 $-1 $228 $29 $-1 $436 reversed single #
loop $-1 $-1 $334 $215 #
plane-surface $-1 0 0 8.7285572044344644 0 0 1 1 0 0 forward_v I I I I #
coedge $-1 $221 $437 $223 $340 forward $216 $-1 #
coedge $-1 $438 $218 $437 $439 reversed $129 $-1 #
coedge $-1 $218 $438 $226 $345 forward $129 $-1 #
coedge $-1 $220 $219 $227 $346 reversed $81 $-1 #
coedge $-1 $440 $441 $220 $335 forward $328 $-1 #
edge $-1 $338 -46.894741660817289 $442 46.894741660817289 $334 $443 forward 7 unknown #
coedge $-1 $437 $221 $441 $444 reversed $216 $-1 #
vertex $-1 $340 $445 #
vertex $-1 $222 $446 #
straight-curve $-1 -46.894741660817289 16.339527574329235 3.6142786022172322 0 0 1 I I #
edge $-1 $342 -14.460774096032269 $337 -6.0727603508754004 $330 $447 forward 7 unknown #
straight-curve $-1 0 16.339527574329235 5.7285572044344644 -1 0 0 I I #
vertex $-1 $225 $448 #
straight-curve $-1 0 24.727541319486104 5.7285572044344644 -1 0 0 I I #
coedge $-1 $227 $226 $440 $449 reversed $228 $-1 #
edge $-1 $450 -8.7285572044344644 $230 -5.7285572044344644 $226 $451 forward 7 unknown #
edge $-1 $442 -5.1142786022172322 $229 -2.1142786022172322 $227 $452 forward 7 unknown #
point $-1 46.894741660817289 16.339527574329235 5.7285572044344644 #
point $-1 46.894741660817289 24.727541319486104 5.7285572044344644 #
plane-surface $-1 0 0 8.7285572044344644 0 0 1 1 0 0 forward_v I I I I #
coedge $-1 $360 $359 $352 $453 forward $233 $-1 #
coedge $-1 $352 $235 $237 $356 reversed $137 $-1 #
coedge $-1 $235 $351 $350 $453 reversed $137 $-1 #
coedge $-1 $243 $238 $235 $354 forward $244 $-1 #
edge $-1 $357 -18.362207421378947 $454 -13.506190273013203 $353 $455 forward 7 unknown #
coedge $-1 $237 $236 $360 $456 reversed $85 $-1 #
edge $-1 $457 0 $357 7.8874794449818122 $351 $458 forward 7 unknown #
vertex $-1 $239 $459 #
straight-curve $-1 -42.038724512451545 -3.4163869656835057 8.7285572044344626 0 1 0 I I #
coedge $-1 $350 $240 $243 $364 reversed $233 $-1 #
coedge $-1 $240 $350 $355 $456 forward $233 $-1 #
vertex $-1 $241 $460 #
straight-curve $-1 -46.894741660817289 -11.220840968284197 30.127854599378608 0 0 1 I I #
straight-curve $-1 -46.894741660817289 -11.220840968284197 2.513138517830285 -0.61566146476048833 0 -0.78801076186113728 I I #
edge $-1 $454 2.4447068944498271 $245 11.220840968284197 $359 $461 forward 7 unknown #
point $-1 -46.894741660817289 -11.220840968284197 8.7285572044344644 #
point $-1 -42.038724512451545 -11.220840968284197 8.7285572044344644 #
edge $-1 $462 1 $462 0 $248 $-1 forward 7 unknown #
vertex $-1 $249 $463 #
ellipse-curve $-1 -41.743313831683871 -8.7133740900458037 3.4930796010902205 -0.78801076186113728 0 0.61566146476048833 0.61566146476048833 0 0.78801076186113728 1 I I #
point $-1 -43.851071621873928 -8.7133740900458037 6.4088586229935185 #
edge $-1 $464 1 $464 0 $252 $-1 forward 7 unknown #
vertex $-1 $253 $465 #
ellipse-curve $-1 -41.743313831683871 -4.9521737726882193 3.4930796010902205 -0.78801076186113728 0 0.61566146476048833 0.61566146476048833 0 0.78801076186113728 1 I I #
point $-1 -43.851071621873928 -4.9521737726882193 6.4088586229935185 #
loop $-1 $-1 $264 $256 #
plane-surface $-1 46.894741660817289 0 0 -1 0 0 0 0 1 forward_v I I I I #
coedge $-1 $378 $259 $261 $382 reversed $159 $-1 #
coedge $-1 $259 $377 $466 $467 reversed $159 $-1 #
coedge $-1 $267 $262 $259 $380 forward $257 $-1 #
edge $-1 $383 19.781508189038114 $468 29.227467510781125 $379 $469 forward 7 unknown #
coedge $-1 $261 $260 $386 $470 reversed $99 $-1 #
edge $-1 $471 -93.789483321634606 $383 -81.458659061584711 $377 $472 forward 7 unknown #
vertex $-1 $263 $473 #
straight-curve $-1 37.44878233907427 -2.0495877719688185 8.7285572044344732 0 -1 0 I I #
coedge $-1 $466 $264 $267 $390 reversed $375 $-1 #
coedge $-1 $264 $466 $381 $470 forward $375 $-1 #
vertex $-1 $265 $474 #
straight-curve $-1 46.894741660817289 0.43441542728107763 66.468043247122196 0 0 1 I I #
straight-curve $-1 -24.952170238961166 0.43441542728107763 61.089174594465945 0.76604443648966558 0 -0.64278761758704617 I I #
edge $-1 $468 -8.6327665151563515 $268 0.43441542728107763 $385 $475 forward 7 unknown #
point $-1 46.894741660817289 0.43441542728107763 8.7285572044344644 #
point $-1 37.448782339074278 0.43441542728107763 8.7285572044344661 #
edge $-1 $476 1 $476 0 $271 $-1 forward 7 unknown #
vertex $-1 $272 $477 #
ellipse-curve $-1 39.9173463198915 -6.0421431030313713 2.0787987003010309 0.64278761758704617 0 0.76604443648966558 0.76604443648966558 0 -0.64278761758704617 1 I I #
point $-1 42.937806436435444 -6.0421431030313713 4.1227190123463995 #
edge $-1 $478 1 $478 0 $275 $-1 forward 7 unknown #
vertex $-1 $276 $479 #
ellipse-curve $-1 39.9173463198915 -2.1562079848438991 2.0787987003010309 0.64278761758704617 0 0.76604443648966558 0.76604443648966558 0 -0.64278761758704617 1 I I #
point $-1 42.937806436435444 -2.1562079848438991 4.1227190123463995 #
plane-surface $-1 46.894741660817289 0 0 -1 0 0 0 0 1 forward_v I I I I #
coedge $-1 $284 $282 $286 $406 reversed $181 $-1 #
edge $-1 $297 -8.7285572044344644 $408 8.7285572044344644 $296 $480 forward 7 unknown #
vertex $-1 $406 $481 #
straight-curve $-1 -46.894741660817289 -24.727541319486104 0 0 0 -1 I I #
edge $-1 $404 -24.727541319486104 $408 24.727541319486104 $402 $482 forward 7 unknown #
straight-curve $-1 0 -24.727541319486104 -8.7285572044344644 -1 0 0 I I #
vertex $-1 $289 $483 #
straight-curve $-1 0 24.727541319486104 -8.7285572044344644 1 0 0 I I #
point $-1 46.894741660817289 24.727541319486104 -8.7285572044344644 #
point $-1 46.894741660817289 -24.727541319486104 -8.7285572044344644 #
straight-curve $-1 -46.894741660817289 0 8.7285572044344644 0 -1 0 I I #
point $-1 -46.894741660817289 24.727541319486104 8.7285572044344644 #
point $-1 -46.894741660817289 -24.727541319486104 8.7285572044344644 #
straight-curve $-1 46.894741660817289 -24.727541319486104 0 0 0 -1 I I #
straight-curve $-1 46.894741660817289 24.727541319486104 0 0 0 -1 I I #
loop $-1 $-1 $425 $306 #
plane-surface $-1 -46.894741660817289 0 0 1 0 0 0 0 -1 forward_v I I I I #
coedge $-1 $310 $309 $431 $484 forward $121 $-1 #
edge $-1 $314 14.186703673481492 $434 24.727541319486104 $313 $485 forward 7 unknown #
coedge $-1 $428 $425 $310 $422 reversed $417 $-1 #
edge $-1 $486 -24.727541319486104 $423 -14.186703673481492 $421 $487 forward 7 unknown #
vertex $-1 $426 $488 #
straight-curve $-1 0 -14.186703673481492 -8.7285572044344644 1 0 0 I I #
coedge $-1 $421 $316 $312 $426 forward $417 $-1 #
edge $-1 $318 1.447669318380056 $423 5.3364816968296243 $425 $489 forward 7 unknown #
point $-1 46.894741660817289 -14.186703673481492 -8.7285572044344644 #
coedge $-1 $316 $421 $320 $432 reversed $417 $-1 #
straight-curve $-1 -46.894741660817289 -9.7285612482418991 -4.8397448259848961 0 1 0 I I #
point $-1 -46.894741660817289 -14.186703673481492 -4.8397448259848961 #
coedge $-1 $321 $320 $419 $484 reversed $307 $-1 #
edge $-1 $322 4.8397448259848961 $486 8.7285572044344644 $428 $490 forward 7 unknown #
point $-1 -46.894741660817289 -24.727541319486104 -4.8397448259848961 #
vertex $-1 $324 $491 #
straight-curve $-1 46.894741660817289 -24.727541319486104 0 0 0 -1 I I #
plane-surface $-1 46.894741660817289 0 0 -1 0 0 0 0 1 forward_v I I I I #
coedge $-1 $330 $336 $331 $439 forward $216 $-1 #
coedge $-1 $332 $331 $492 $493 reversed $129 $-1 #
edge $-1 $494 -8.7285572044344644 $342 -5.7285572044344644 $331 $495 forward 7 unknown #
coedge $-1 $492 $334 $344 $449 forward $328 $-1 #
coedge $-1 $334 $492 $336 $444 forward $328 $-1 #
vertex $-1 $449 $496 #
straight-curve $-1 0 16.339527574329235 8.7285572044344644 1 0 0 I I #
edge $-1 $494 -24.727541319486104 $338 -16.339527574329235 $336 $497 forward 7 unknown #
point $-1 -46.894741660817289 16.339527574329235 5.7285572044344644 #
point $-1 -46.894741660817289 16.339527574329235 8.7285572044344644 #
straight-curve $-1 -46.894741660817289 10.266767223453835 5.7285572044344644 0 -1 0 I I #
point $-1 -46.894741660817289 24.727541319486104 5.7285572044344644 #
edge $-1 $442 16.339527574329235 $450 24.727541319486104 $344 $498 forward 7 unknown #
vertex $-1 $449 $499 #
straight-curve $-1 46.894741660817289 24.727541319486104 0 0 0 -1 I I #
straight-curve $-1 46.894741660817289 16.339527574329235 3.6142786022172322 0 0 -1 I I #
edge $-1 $454 21.399297394944142 $457 27.614716081548323 $350 $500 forward 7 unknown #
vertex $-1 $364 $501 #
straight-curve $-1 -60.400931933830492 -2.4447068944498271 8.7285572044344661 -1 0 0 I I #
edge $-1 $457 -0.97168007123367861 $361 7.804454002600691 $360 $502 forward 7 unknown #
vertex $-1 $456 $503 #
straight-curve $-1 -46.894741660817289 -2.4447068944498271 2.513138517830285 0.61566146476048833 0 0.78801076186113728 I I #
point $-1 -42.038724512451545 -2.4447068944498271 8.7285572044344644 #
point $-1 -46.894741660817289 -11.220840968284197 2.513138517830285 #
straight-curve $-1 -46.894741660817289 0 8.7285572044344644 0 -1 0 I I #
vertex $-1 $367 $504 #
point $-1 -41.127652366923385 -8.7133740900458037 4.2810903629513577 #
vertex $-1 $371 $505 #
point $-1 -41.127652366923385 -4.9521737726882193 4.2810903629513577 #
coedge $-1 $386 $385 $378 $467 forward $375 $-1 #
edge $-1 $468 57.73948604268773 $471 65.665587191689752 $466 $506 forward 7 unknown #
vertex $-1 $390 $507 #
straight-curve $-1 17.667274150036164 -8.6327665151563515 8.7285572044344661 1 0 0 I I #
edge $-1 $471 -6.583178743187533 $387 2.4840031992498961 $386 $508 forward 7 unknown #
vertex $-1 $470 $509 #
straight-curve $-1 -24.952170238961166 -8.6327665151563515 61.089174594465945 -0.76604443648966558 0 0.64278761758704617 I I #
point $-1 37.448782339074278 -8.6327665151563515 8.7285572044344661 #
point $-1 46.894741660817296 0.43441542728107763 0.8024560554324438 #
straight-curve $-1 46.894741660817289 0 8.7285572044344644 0 1 0 I I #
vertex $-1 $393 $510 #
point $-1 40.683390756381165 -6.0421431030313713 1.4360110827139847 #
vertex $-1 $397 $511 #
point $-1 40.683390756381165 -2.1562079848438991 1.4360110827139847 #
straight-curve $-1 -46.894741660817289 24.727541319486104 0 0 0 -1 I I #
point $-1 -46.894741660817289 -24.727541319486104 -8.7285572044344644 #
straight-curve $-1 -46.894741660817289 0 -8.7285572044344644 0 1 0 I I #
point $-1 -46.894741660817289 24.727541319486104 -8.7285572044344644 #
edge $-1 $434 -46.894741660817289 $486 46.894741660817289 $431 $512 forward 7 unknown #
straight-curve $-1 46.894741660817289 0 -8.7285572044344644 0 -1 0 I I #
vertex $-1 $422 $513 #
straight-curve $-1 -46.894741660817289 0 -8.7285572044344644 0 1 0 I I #
point $-1 -46.894741660817289 -14.186703673481492 -8.7285572044344644 #
straight-curve $-1 -46.894741660817289 -14.186703673481492 -3.3920755076048401 0 0 -1 I I #
straight-curve $-1 -46.894741660817289 -24.727541319486104 0 0 0 -1 I I #
point $-1 46.894741660817289 -24.727541319486104 -8.7285572044344644 #
coedge $-1 $441 $440 $438 $493 forward $328 $-1 #
edge $-1 $450 -46.894741660817289 $494 46.894741660817289 $438 $514 forward 7 unknown #
vertex $-1 $493 $515 #
straight-curve $-1 -46.894741660817289 24.727541319486104 0 0 0 -1 I I #
point $-1 46.894741660817289 16.339527574329235 8.7285572044344644 #
straight-curve $-1 -46.894741660817289 0 8.7285572044344644 0 -1 0 I I #
straight-curve $-1 46.894741660817289 0 8.7285572044344644 0 1 0 I I #
point $-1 46.894741660817289 24.727541319486104 8.7285572044344644 #
straight-curve $-1 -46.894741660817289 -2.4447068944498271 30.127854599378608 0 0 -1 I I #
point $-1 -46.894741660817289 -2.4447068944498271 8.7285572044344644 #
straight-curve $-1 -46.894741660817289 -3.4163869656835057 2.5131385178302894 0 -1 0 I I #
point $-1 -46.894741660817289 -2.4447068944498271 2.513138517830285 #
point $-1 -40.95530306982274 -8.7133740900458037 2.8774181363297324 #
point $-1 -40.95530306982274 -4.9521737726882193 2.8774181363297324 #
straight-curve $-1 46.894741660817289 -8.6327665151563515 66.468043247122196 0 0 -1 I I #
point $-1 46.894741660817289 -8.6327665151563515 8.7285572044344644 #
straight-curve $-1 46.894741660817282 -2.0495877719688185 0.80245605543245091 0 1 0 I I #
point $-1 46.894741660817296 -8.6327665151563515 0.8024560554324438 #
point $-1 39.274558702304454 -6.0421431030313713 1.3127542638113652 #
point $-1 39.274558702304454 -2.1562079848438991 1.3127542638113652 #
straight-curve $-1 0 -24.727541319486104 -8.7285572044344644 -1 0 0 I I #
point $-1 -46.894741660817289 -24.727541319486104 -8.7285572044344644 #
straight-curve $-1 0 24.727541319486104 8.7285572044344644 -1 0 0 I I #
point $-1 -46.894741660817289 24.727541319486104 8.7285572044344644 #
End-of-ACIS-data 