500 0 14 0           
7 Unknown 11 ACIS 5.0 NT 24 Fri Mar 26 01:15:13 1999 
-1 9.9999999999999995e-007 1e-010 
body $-1 $14 $-1 $15 #
body $-1 $16 $-1 $17 #
body $-1 $18 $-1 $19 #
body $-1 $20 $-1 $21 #
body $-1 $22 $-1 $23 #
body $-1 $24 $-1 $25 #
body $-1 $26 $-1 $27 #
body $-1 $28 $-1 $29 #
body $-1 $30 $-1 $31 #
body $-1 $32 $-1 $33 #
body $-1 $34 $-1 $35 #
body $-1 $36 $-1 $37 #
body $-1 $38 $-1 $39 #
body $-1 $40 $-1 $41 #
lump $-1 $-1 $42 $0 #
transform $-1 1 0 0 0 1 0 0 0 1 76.87978759117405 41.246016600819246 10.411513184261489 1 rotate no_reflect no_shear #
lump $-1 $-1 $43 $1 #
transform $-1 1 0 0 0 1 0 0 0 1 76.87978759117405 41.246016600819246 10.411513184261489 1 rotate no_reflect no_shear #
lump $-1 $-1 $44 $2 #
transform $-1 1 0 0 0 1 0 0 0 1 76.87978759117405 41.246016600819246 10.411513184261489 1 rotate no_reflect no_shear #
lump $-1 $-1 $45 $3 #
transform $-1 1 0 0 0 1 0 0 0 1 76.87978759117405 41.246016600819246 10.411513184261489 1 rotate no_reflect no_shear #
lump $-1 $-1 $46 $4 #
transform $-1 1 0 0 0 1 0 0 0 1 76.87978759117405 41.246016600819246 10.411513184261489 1 rotate no_reflect no_shear #
lump $-1 $-1 $47 $5 #
transform $-1 1 0 0 0 1 0 0 0 1 76.87978759117405 41.246016600819246 10.411513184261489 1 rotate no_reflect no_shear #
lump $-1 $-1 $48 $6 #
transform $-1 1 0 0 0 1 0 0 0 1 76.87978759117405 41.246016600819246 10.411513184261489 1 rotate no_reflect no_shear #
lump $-1 $-1 $49 $7 #
transform $-1 1 0 0 0 1 0 0 0 1 76.87978759117405 41.246016600819246 10.411513184261489 1 rotate no_reflect no_shear #
lump $-1 $-1 $50 $8 #
transform $-1 1 0 0 0 1 0 0 0 1 76.87978759117405 41.246016600819246 10.411513184261489 1 rotate no_reflect no_shear #
lump $-1 $-1 $51 $9 #
transform $-1 1 0 0 0 1 0 0 0 1 76.87978759117405 41.246016600819246 10.411513184261489 1 rotate no_reflect no_shear #
lump $-1 $-1 $52 $10 #
transform $-1 1 0 0 0 1 0 0 0 1 76.87978759117405 41.246016600819246 10.411513184261489 1 rotate no_reflect no_shear #
lump $-1 $-1 $53 $11 #
transform $-1 1 0 0 0 1 0 0 0 1 76.87978759117405 41.246016600819246 10.411513184261489 1 rotate no_reflect no_shear #
lump $-1 $-1 $54 $12 #
transform $-1 1 0 0 0 1 0 0 0 1 76.87978759117405 41.246016600819246 10.411513184261489 1 rotate no_reflect no_shear #
lump $-1 $-1 $55 $13 #
transform $-1 1 0 0 0 1 0 0 0 1 76.87978759117405 41.246016600819246 10.411513184261489 1 rotate no_reflect no_shear #
shell $-1 $-1 $-1 $56 $-1 $14 #
shell $-1 $-1 $-1 $57 $-1 $16 #
shell $-1 $-1 $-1 $58 $-1 $18 #
shell $-1 $-1 $-1 $59 $-1 $20 #
shell $-1 $-1 $-1 $60 $-1 $22 #
shell $-1 $-1 $-1 $61 $-1 $24 #
shell $-1 $-1 $-1 $62 $-1 $26 #
shell $-1 $-1 $-1 $63 $-1 $28 #
shell $-1 $-1 $-1 $64 $-1 $30 #
shell $-1 $-1 $-1 $65 $-1 $32 #
shell $-1 $-1 $-1 $66 $-1 $34 #
shell $-1 $-1 $-1 $67 $-1 $36 #
shell $-1 $-1 $-1 $68 $-1 $38 #
shell $-1 $-1 $-1 $69 $-1 $40 #
face $-1 $70 $71 $42 $-1 $72 forward single #
face $-1 $73 $74 $43 $-1 $75 forward single #
face $-1 $76 $77 $44 $-1 $78 reversed single #
face $-1 $79 $80 $45 $-1 $81 forward single #
face $-1 $82 $83 $46 $-1 $84 forward single #
face $-1 $85 $86 $47 $-1 $87 reversed single #
face $-1 $88 $89 $48 $-1 $90 forward single #
face $-1 $91 $92 $49 $-1 $93 forward single #
face $-1 $94 $95 $50 $-1 $96 reversed single #
face $-1 $97 $98 $51 $-1 $99 forward single #
face $-1 $100 $101 $52 $-1 $102 forward single #
face $-1 $103 $104 $53 $-1 $105 reversed single #
face $-1 $106 $107 $54 $-1 $108 forward single #
face $-1 $109 $110 $55 $-1 $111 forward single #
face $-1 $112 $113 $42 $-1 $114 reversed single #
loop $-1 $-1 $115 $56 #
plane-surface $-1 0 0 10.411513184261489 0 0 1 1 0 0 forward_v I I I I #
face $-1 $116 $117 $43 $-1 $118 reversed single #
loop $-1 $-1 $119 $57 #
plane-surface $-1 -76.87978759117405 0 0 1 0 0 0 0 -1 forward_v I I I I #
face $-1 $120 $121 $44 $-1 $122 reversed single #
loop $-1 $-1 $123 $58 #
plane-surface $-1 -26.425948426895427 49.728580165876977 177.79805371353515 1 0 0 0 -0.51503808176128008 -0.85716729658548041 forward_v I I I I #
face $-1 $124 $125 $45 $-1 $126 forward single #
loop $-1 $127 $128 $59 #
cone-surface $-1 -17.244755388929299 34.773957057924981 5.7440421977443386 0 -0.51503808176128008 -0.85716729658548041 1.5 0 0 1 I I 0 1 1.5 forward I I I I #
face $-1 $129 $130 $46 $-1 $131 forward single #
loop $-1 $132 $133 $60 #
cone-surface $-1 -3.4729658319801189 34.773957057924981 5.7440421977443386 0 -0.51503808176128008 -0.85716729658548041 1.5 0 0 1 I I 0 1 1.5 forward I I I I #
face $-1 $134 $135 $47 $-1 $136 reversed single #
loop $-1 $-1 $137 $61 #
plane-surface $-1 44.745611958292599 49.728580165876977 177.79805371353515 1 0 0 0 -0.51503808176128008 -0.85716729658548041 forward_v I I I I #
face $-1 $138 $139 $48 $-1 $140 forward single #
loop $-1 $141 $142 $62 #
cone-surface $-1 53.926804996258738 34.773957057924981 5.7440421977443386 0 -0.51503808176128008 -0.85716729658548041 1.5 0 0 1 I I 0 1 1.5 forward I I I I #
face $-1 $143 $144 $49 $-1 $145 forward single #
loop $-1 $146 $147 $63 #
cone-surface $-1 67.698594553207926 34.773957057924981 5.7440421977443386 0 -0.51503808176128008 -0.85716729658548041 1.5 0 0 1 I I 0 1 1.5 forward I I I I #
face $-1 $148 $149 $50 $-1 $150 reversed single #
loop $-1 $-1 $151 $64 #
plane-surface $-1 -44.113385498603648 -167.19848819110058 95.061980957926338 -1 0 0 0 -0.81915205242281985 0.57357642473473569 forward_v I I I I #
face $-1 $152 $153 $51 $-1 $154 forward single #
loop $-1 $155 $156 $65 #
cone-surface $-1 -59.363348127602485 -39.351327511288147 8.1820403882324069 0 0.81915205242281985 -0.57357642473473569 1 0 0 1 I I 0 1 1 forward I I I I #
face $-1 $157 $158 $52 $-1 $159 forward single #
loop $-1 $160 $161 $66 #
cone-surface $-1 -50.21337055020318 -39.351327511288147 8.1820403882324069 0 0.81915205242281985 -0.57357642473473569 1 0 0 1 I I 0 1 1 forward I I I I #
face $-1 $162 $163 $53 $-1 $164 reversed single #
loop $-1 $-1 $165 $67 #
plane-surface $-1 66.204813750874877 -41.24601660081926 6.869113556103315 0 -0.81915205242281985 0.57357642473473569 1 0 0 forward_v I I I I #
face $-1 $166 $167 $54 $-1 $168 forward single #
loop $-1 $169 $170 $68 #
cone-surface $-1 61.629824962175206 -39.351327511288147 8.1820403882324069 0 0.81915205242281985 -0.57357642473473569 1 0 0 1 I I 0 1 1 forward I I I I #
face $-1 $171 $172 $55 $-1 $173 forward single #
loop $-1 $174 $175 $69 #
cone-surface $-1 70.779802539574519 -39.351327511288147 8.1820403882324069 0 0.81915205242281985 -0.57357642473473569 1 0 0 1 I I 0 1 1 forward I I I I #
face $-1 $176 $177 $42 $-1 $178 reversed single #
loop $-1 $-1 $179 $70 #
plane-surface $-1 0 0 -10.411513184261489 0 0 1 1 0 0 forward_v I I I I #
coedge $-1 $180 $181 $182 $183 forward $71 $-1 #
face $-1 $184 $185 $43 $-1 $186 forward single #
loop $-1 $-1 $187 $73 #
plane-surface $-1 0 41.246016600819246 0 0 -1 0 0 0 -1 forward_v I I I I #
coedge $-1 $188 $189 $190 $191 forward $74 $-1 #
face $-1 $192 $193 $44 $-1 $194 reversed single #
loop $-1 $-1 $195 $76 #
plane-surface $-1 -10.358860610454713 -29.463456488468921 46.000374330349899 0 0.51503808176128008 0.85716729658548041 1 0 0 forward_v I I I I #
coedge $-1 $196 $197 $198 $199 reversed $77 $-1 #
face $-1 $-1 $200 $45 $-1 $201 forward single #
loop $-1 $202 $203 $79 #
cone-surface $-1 -17.244755388929299 33.655450331702482 3.8825344361237217 0 -0.51503808176128008 -0.85716729658548041 0.75 0 0 1 I I -0.70710678118654757 0.70710678118654757 0.75 forward I I I I #
loop $-1 $-1 $204 $59 #
coedge $-1 $128 $128 $205 $206 reversed $80 $-1 #
face $-1 $-1 $207 $46 $-1 $208 forward single #
loop $-1 $209 $210 $82 #
cone-surface $-1 -3.4729658319801189 33.655450331702482 3.8825344361237217 0 -0.51503808176128008 -0.85716729658548041 0.75 0 0 1 I I -0.70710678118654757 0.70710678118654757 0.75 forward I I I I #
loop $-1 $-1 $211 $60 #
coedge $-1 $133 $133 $212 $213 reversed $83 $-1 #
face $-1 $214 $215 $47 $-1 $216 forward single #
loop $-1 $-1 $217 $85 #
plane-surface $-1 60.812699774733318 -29.463456488468921 46.000374330349899 0 0.51503808176128008 0.85716729658548041 1 0 0 forward_v I I I I #
coedge $-1 $218 $219 $220 $221 reversed $86 $-1 #
face $-1 $-1 $222 $48 $-1 $223 forward single #
loop $-1 $224 $225 $88 #
cone-surface $-1 53.926804996258738 33.655450331702482 3.8825344361237217 0 -0.51503808176128008 -0.85716729658548041 0.75 0 0 1 I I -0.70710678118654757 0.70710678118654757 0.75 forward I I I I #
loop $-1 $-1 $226 $62 #
coedge $-1 $142 $142 $227 $228 reversed $89 $-1 #
face $-1 $-1 $229 $49 $-1 $230 forward single #
loop $-1 $231 $232 $91 #
cone-surface $-1 67.698594553207926 33.655450331702482 3.8825344361237217 0 -0.51503808176128008 -0.85716729658548041 0.75 0 0 1 I I -0.70710678118654757 0.70710678118654757 0.75 forward I I I I #
loop $-1 $-1 $233 $63 #
coedge $-1 $147 $147 $234 $235 reversed $92 $-1 #
face $-1 $236 $237 $50 $-1 $238 reversed single #
loop $-1 $-1 $239 $94 #
plane-surface $-1 -54.788359338902836 -41.24601660081926 6.869113556103315 0 -0.81915205242281985 0.57357642473473569 1 0 0 forward_v I I I I #
coedge $-1 $240 $241 $242 $243 reversed $95 $-1 #
face $-1 $-1 $244 $51 $-1 $245 forward single #
loop $-1 $246 $247 $97 #
cone-surface $-1 -59.363348127602485 -38.287269819607538 7.4369791939150485 0 0.81915205242281985 -0.57357642473473569 0.5 0 0 1 I I -0.70710678118654746 0.70710678118654746 0.5 forward I I I I #
loop $-1 $-1 $248 $65 #
coedge $-1 $156 $156 $249 $250 reversed $98 $-1 #
face $-1 $-1 $251 $52 $-1 $252 forward single #
loop $-1 $253 $254 $100 #
cone-surface $-1 -50.21337055020318 -38.287269819607538 7.4369791939150485 0 0.81915205242281985 -0.57357642473473569 0.5 0 0 1 I I -0.70710678118654746 0.70710678118654746 0.5 forward I I I I #
loop $-1 $-1 $255 $66 #
coedge $-1 $161 $161 $256 $257 reversed $101 $-1 #
face $-1 $258 $259 $53 $-1 $260 reversed single #
loop $-1 $-1 $261 $103 #
plane-surface $-1 55.529839910575689 -167.19848819110058 95.061980957926338 1 0 0 0 0.81915205242281985 -0.57357642473473569 forward_v I I I I #
coedge $-1 $262 $263 $264 $265 reversed $104 $-1 #
face $-1 $-1 $266 $54 $-1 $267 forward single #
loop $-1 $268 $269 $106 #
cone-surface $-1 61.629824962175206 -38.287269819607538 7.4369791939150485 0 0.81915205242281985 -0.57357642473473569 0.5 0 0 1 I I -0.70710678118654746 0.70710678118654746 0.5 forward I I I I #
loop $-1 $-1 $270 $68 #
coedge $-1 $170 $170 $271 $272 reversed $107 $-1 #
face $-1 $-1 $273 $55 $-1 $274 forward single #
loop $-1 $275 $276 $109 #
cone-surface $-1 70.779802539574519 -38.287269819607538 7.4369791939150485 0 0.81915205242281985 -0.57357642473473569 0.5 0 0 1 I I -0.70710678118654746 0.70710678118654746 0.5 forward I I I I #
loop $-1 $-1 $277 $69 #
coedge $-1 $175 $175 $278 $279 reversed $110 $-1 #
face $-1 $280 $281 $42 $-1 $282 reversed single #
loop $-1 $-1 $283 $112 #
plane-surface $-1 0 -41.246016600819246 0 0 1 0 0 0 1 forward_v I I I I #
coedge $-1 $284 $285 $286 $287 forward $113 $-1 #
coedge $-1 $288 $115 $289 $290 forward $71 $-1 #
coedge $-1 $115 $288 $291 $292 forward $71 $-1 #
coedge $-1 $293 $294 $115 $183 reversed $295 $-1 #
edge $-1 $296 -41.246016600819246 $297 41.246016600819246 $182 $298 forward 7 unknown #
face $-1 $299 $300 $43 $-1 $301 reversed single #
loop $-1 $-1 $190 $116 #
plane-surface $-1 -82.588014797160071 0 -4.8961787456563659 0 0 1 1 0 0 forward_v I I I I #
coedge $-1 $302 $303 $189 $304 forward $117 $-1 #
coedge $-1 $305 $119 $306 $307 reversed $74 $-1 #
coedge $-1 $119 $305 $187 $304 reversed $74 $-1 #
coedge $-1 $308 $309 $119 $191 reversed $185 $-1 #
edge $-1 $310 -41.246016600819246 $311 41.246016600819246 $190 $312 forward 7 unknown #
face $-1 $313 $314 $44 $-1 $315 forward single #
loop $-1 $-1 $316 $120 #
plane-surface $-1 5.7082272059860024 49.728580165876977 177.79805371353515 -1 0 0 0 0.51503808176128008 0.85716729658548041 forward_v I I I I #
coedge $-1 $317 $318 $319 $320 reversed $121 $-1 #
coedge $-1 $197 $123 $321 $322 reversed $77 $-1 #
coedge $-1 $123 $196 $317 $323 reversed $77 $-1 #
coedge $-1 $319 $324 $123 $199 forward $314 $-1 #
edge $-1 $325 -16.381726517880757 $326 -4.9020637618952421 $198 $327 forward 7 unknown #
loop $-1 $-1 $205 $124 #
plane-surface $-1 -10.358860610454713 -29.463456488468921 46.000374330349899 0 0.51503808176128008 0.85716729658548041 1 0 0 forward_v I I I I #
loop $-1 $-1 $328 $79 #
coedge $-1 $203 $203 $204 $329 reversed $125 $-1 #
coedge $-1 $204 $204 $203 $329 forward $127 $-1 #
coedge $-1 $205 $205 $128 $206 forward $200 $-1 #
edge $-1 $330 2.6313714310697413e-015 $330 6.2831853071796031 $205 $331 forward 7 unknown #
loop $-1 $-1 $212 $129 #
plane-surface $-1 -10.358860610454713 -29.463456488468921 46.000374330349899 0 0.51503808176128008 0.85716729658548041 1 0 0 forward_v I I I I #
loop $-1 $-1 $332 $82 #
coedge $-1 $210 $210 $211 $333 reversed $130 $-1 #
coedge $-1 $211 $211 $210 $333 forward $132 $-1 #
coedge $-1 $212 $212 $133 $213 forward $207 $-1 #
edge $-1 $334 2.6313714310697413e-015 $334 6.2831853071796031 $212 $335 forward 7 unknown #
face $-1 $336 $337 $47 $-1 $338 reversed single #
loop $-1 $-1 $220 $134 #
plane-surface $-1 0 0 10.411513184261489 0 0 1 1 0 0 forward_v I I I I #
coedge $-1 $339 $340 $341 $342 reversed $135 $-1 #
coedge $-1 $219 $137 $343 $344 reversed $86 $-1 #
coedge $-1 $137 $218 $339 $345 reversed $86 $-1 #
coedge $-1 $341 $346 $137 $221 forward $215 $-1 #
edge $-1 $347 -16.381726517880757 $348 -4.9020637618952421 $220 $349 forward 7 unknown #
loop $-1 $-1 $227 $138 #
plane-surface $-1 60.812699774733318 -29.463456488468921 46.000374330349899 0 0.51503808176128008 0.85716729658548041 1 0 0 forward_v I I I I #
loop $-1 $-1 $350 $88 #
coedge $-1 $225 $225 $226 $351 reversed $139 $-1 #
coedge $-1 $226 $226 $225 $351 forward $141 $-1 #
coedge $-1 $227 $227 $142 $228 forward $222 $-1 #
edge $-1 $352 2.6313714310697413e-015 $352 6.2831853071796031 $227 $353 forward 7 unknown #
loop $-1 $-1 $234 $143 #
plane-surface $-1 60.812699774733318 -29.463456488468921 46.000374330349899 0 0.51503808176128008 0.85716729658548041 1 0 0 forward_v I I I I #
loop $-1 $-1 $354 $91 #
coedge $-1 $232 $232 $233 $355 reversed $144 $-1 #
coedge $-1 $233 $233 $232 $355 forward $146 $-1 #
coedge $-1 $234 $234 $147 $235 forward $229 $-1 #
edge $-1 $356 2.6313714310697413e-015 $356 6.2831853071796031 $234 $357 forward 7 unknown #
face $-1 $358 $359 $50 $-1 $360 forward single #
loop $-1 $-1 $361 $148 #
plane-surface $-1 -65.463333179202024 -167.19848819110058 95.061980957926338 1 0 0 0 0.81915205242281985 -0.57357642473473569 forward_v I I I I #
coedge $-1 $362 $363 $364 $365 reversed $149 $-1 #
coedge $-1 $241 $151 $366 $367 reversed $95 $-1 #
coedge $-1 $151 $240 $362 $368 reversed $95 $-1 #
coedge $-1 $364 $369 $151 $243 forward $359 $-1 #
edge $-1 $370 42.353227494731044 $371 44.833642342854802 $242 $372 forward 7 unknown #
loop $-1 $-1 $249 $152 #
plane-surface $-1 -54.788359338902836 -41.24601660081926 6.869113556103315 0 -0.81915205242281985 0.57357642473473569 1 0 0 forward_v I I I I #
loop $-1 $-1 $373 $97 #
coedge $-1 $247 $247 $248 $374 reversed $153 $-1 #
coedge $-1 $248 $248 $247 $374 forward $155 $-1 #
coedge $-1 $249 $249 $156 $250 forward $244 $-1 #
edge $-1 $375 -2.0347332158398754e-015 $375 6.2831853071795987 $249 $376 forward 7 unknown #
loop $-1 $-1 $256 $157 #
plane-surface $-1 -54.788359338902836 -41.24601660081926 6.869113556103315 0 -0.81915205242281985 0.57357642473473569 1 0 0 forward_v I I I I #
loop $-1 $-1 $377 $100 #
coedge $-1 $254 $254 $255 $378 reversed $158 $-1 #
coedge $-1 $255 $255 $254 $378 forward $160 $-1 #
coedge $-1 $256 $256 $161 $257 forward $251 $-1 #
edge $-1 $379 -2.0347332158398754e-015 $379 6.2831853071795987 $256 $380 forward 7 unknown #
face $-1 $381 $382 $53 $-1 $383 forward single #
loop $-1 $-1 $384 $162 #
plane-surface $-1 0 -41.246016600819246 0 0 1 0 0 0 1 forward_v I I I I #
coedge $-1 $385 $386 $387 $388 reversed $163 $-1 #
coedge $-1 $389 $165 $390 $391 reversed $104 $-1 #
coedge $-1 $165 $389 $385 $392 forward $104 $-1 #
coedge $-1 $387 $393 $165 $265 forward $382 $-1 #
edge $-1 $394 -43.777380715736626 $395 -22.42743303513825 $264 $396 forward 7 unknown #
loop $-1 $-1 $271 $166 #
plane-surface $-1 66.204813750874877 -41.24601660081926 6.869113556103315 0 -0.81915205242281985 0.57357642473473569 1 0 0 forward_v I I I I #
loop $-1 $-1 $397 $106 #
coedge $-1 $269 $269 $270 $398 reversed $167 $-1 #
coedge $-1 $270 $270 $269 $398 forward $169 $-1 #
coedge $-1 $271 $271 $170 $272 forward $266 $-1 #
edge $-1 $399 -2.0347332158398754e-015 $399 6.2831853071795987 $271 $400 forward 7 unknown #
loop $-1 $-1 $278 $171 #
plane-surface $-1 66.204813750874877 -41.24601660081926 6.869113556103315 0 -0.81915205242281985 0.57357642473473569 1 0 0 forward_v I I I I #
loop $-1 $-1 $401 $109 #
coedge $-1 $276 $276 $277 $402 reversed $172 $-1 #
coedge $-1 $277 $277 $276 $402 forward $174 $-1 #
coedge $-1 $278 $278 $175 $279 forward $273 $-1 #
edge $-1 $403 -2.0347332158398754e-015 $403 6.2831853071795987 $278 $404 forward 7 unknown #
face $-1 $405 $406 $42 $-1 $407 reversed single #
loop $-1 $-1 $408 $176 #
plane-surface $-1 -76.87978759117405 0 0 1 0 0 0 0 -1 forward_v I I I I #
coedge $-1 $409 $291 $408 $410 forward $177 $-1 #
coedge $-1 $411 $179 $409 $412 forward $113 $-1 #
coedge $-1 $179 $411 $413 $414 forward $113 $-1 #
coedge $-1 $294 $293 $179 $287 reversed $295 $-1 #
edge $-1 $415 -41.246016600819246 $416 41.246016600819246 $286 $417 forward 7 unknown #
coedge $-1 $181 $180 $418 $419 forward $71 $-1 #
coedge $-1 $420 $421 $180 $290 reversed $406 $-1 #
edge $-1 $297 -76.87978759117405 $422 76.87978759117405 $289 $423 forward 7 unknown #
coedge $-1 $283 $424 $181 $292 reversed $177 $-1 #
edge $-1 $425 -76.87978759117405 $296 76.87978759117405 $291 $426 forward 7 unknown #
coedge $-1 $286 $182 $424 $427 forward $295 $-1 #
coedge $-1 $182 $286 $420 $428 reversed $295 $-1 #
loop $-1 $-1 $293 $405 #
vertex $-1 $183 $429 #
vertex $-1 $183 $430 #
straight-curve $-1 76.87978759117405 0 10.411513184261489 0 1 0 I I #
face $-1 $431 $432 $43 $-1 $433 reversed single #
loop $-1 $-1 $434 $184 #
plane-surface $-1 -88.296242003146091 0 -7.6538459649589274 1 0 0 0 0 -1 forward_v I I I I #
coedge $-1 $435 $187 $436 $437 reversed $117 $-1 #
coedge $-1 $187 $435 $308 $438 reversed $117 $-1 #
edge $-1 $310 4.8961787456563659 $439 10.411513184261489 $187 $440 forward 7 unknown #
coedge $-1 $189 $188 $441 $442 reversed $74 $-1 #
coedge $-1 $443 $444 $188 $307 forward $445 $-1 #
edge $-1 $446 -10.411513184261489 $311 -4.8961787456563659 $306 $447 forward 7 unknown #
coedge $-1 $448 $190 $303 $438 forward $185 $-1 #
coedge $-1 $190 $448 $443 $449 forward $185 $-1 #
vertex $-1 $304 $450 #
vertex $-1 $449 $451 #
straight-curve $-1 -76.87978759117405 0 -4.8961787456563659 0 -1 0 I I #
face $-1 $-1 $452 $44 $-1 $453 reversed single #
loop $-1 $-1 $198 $192 #
plane-surface $-1 0 0 10.411513184261489 0 0 1 1 0 0 forward_v I I I I #
coedge $-1 $454 $455 $456 $457 reversed $193 $-1 #
coedge $-1 $458 $195 $197 $323 forward $121 $-1 #
coedge $-1 $195 $458 $454 $459 forward $121 $-1 #
coedge $-1 $456 $198 $195 $320 forward $314 $-1 #
edge $-1 $326 -21.246518121668071 $460 10.887657511213359 $319 $461 forward 7 unknown #
coedge $-1 $462 $463 $196 $322 forward $452 $-1 #
edge $-1 $464 -85.385191067177402 $325 -78.487513672506083 $321 $465 forward 7 unknown #
edge $-1 $326 69.099475177417716 $464 82.492033201638506 $197 $466 forward 7 unknown #
coedge $-1 $198 $456 $462 $467 forward $314 $-1 #
vertex $-1 $322 $468 #
vertex $-1 $199 $469 #
straight-curve $-1 -26.425948426895427 24.864290082938489 10.411513184261494 0 -1 0 I I #
coedge $-1 $328 $328 $-1 $470 reversed $202 $-1 #
edge $-1 $471 0 $471 6.2831853071796004 $203 $472 forward 7 unknown #
vertex $-1 $206 $473 #
ellipse-curve $-1 -17.244755388929299 35.50618522282651 6.9626744869258292 0 0.51503808176128008 0.85716729658548041 1.5 0 0 1 I I #
coedge $-1 $332 $332 $-1 $474 reversed $209 $-1 #
edge $-1 $475 0 $475 6.2831853071796004 $210 $476 forward 7 unknown #
vertex $-1 $213 $477 #
ellipse-curve $-1 -3.4729658319801189 35.50618522282651 6.9626744869258292 0 0.51503808176128008 0.85716729658548041 1.5 0 0 1 I I #
face $-1 $-1 $478 $47 $-1 $479 reversed single #
loop $-1 $-1 $480 $214 #
plane-surface $-1 76.87978759117405 0 0 -1 0 0 0 0 1 forward_v I I I I #
coedge $-1 $481 $217 $219 $345 forward $135 $-1 #
coedge $-1 $217 $481 $480 $482 reversed $135 $-1 #
coedge $-1 $483 $220 $217 $342 forward $215 $-1 #
edge $-1 $348 14.33926207092594 $484 46.473437703807377 $341 $485 forward 7 unknown #
coedge $-1 $486 $487 $218 $344 forward $478 $-1 #
edge $-1 $488 -85.385191067177402 $347 -78.487513672506083 $343 $489 forward 7 unknown #
edge $-1 $348 69.099475177417716 $488 82.492033201638506 $219 $490 forward 7 unknown #
coedge $-1 $220 $483 $486 $491 forward $215 $-1 #
vertex $-1 $344 $492 #
vertex $-1 $221 $493 #
straight-curve $-1 44.745611958292599 24.864290082938489 10.411513184261494 0 -1 0 I I #
coedge $-1 $350 $350 $-1 $494 reversed $224 $-1 #
edge $-1 $495 0 $495 6.2831853071796004 $225 $496 forward 7 unknown #
vertex $-1 $228 $497 #
ellipse-curve $-1 53.926804996258738 35.50618522282651 6.9626744869258292 0 0.51503808176128008 0.85716729658548041 1.5 0 0 1 I I #
coedge $-1 $354 $354 $-1 $498 reversed $231 $-1 #
edge $-1 $499 0 $499 6.2831853071796004 $232 $500 forward 7 unknown #
vertex $-1 $235 $501 #
ellipse-curve $-1 67.698594553207926 35.50618522282651 6.9626744869258292 0 0.51503808176128008 0.85716729658548041 1.5 0 0 1 I I #
face $-1 $-1 $502 $50 $-1 $503 reversed single #
loop $-1 $-1 $242 $236 #
plane-surface $-1 0 0 10.411513184261489 0 0 1 1 0 0 forward_v I I I I #
coedge $-1 $504 $505 $506 $507 reversed $237 $-1 #
coedge $-1 $508 $239 $241 $368 forward $149 $-1 #
coedge $-1 $239 $508 $504 $509 forward $149 $-1 #
coedge $-1 $506 $242 $239 $365 forward $359 $-1 #
edge $-1 $371 16.71920582915223 $510 38.069153509750606 $364 $511 forward 7 unknown #
coedge $-1 $512 $513 $240 $367 forward $502 $-1 #
edge $-1 $514 -40.661876922859832 $370 -37.119477294701682 $366 $515 forward 7 unknown #
edge $-1 $371 -4.3244714063533873 $514 -2.4884734274515653e-014 $241 $516 forward 7 unknown #
coedge $-1 $242 $506 $512 $517 forward $359 $-1 #
vertex $-1 $367 $518 #
vertex $-1 $243 $519 #
straight-curve $-1 -44.113385498603648 -83.59924409555029 10.411513184261487 0 1 0 I I #
coedge $-1 $373 $373 $-1 $520 reversed $246 $-1 #
edge $-1 $521 0 $521 6.2831853071796004 $247 $522 forward 7 unknown #
vertex $-1 $250 $523 #
ellipse-curve $-1 -59.363348127602485 -40.005809176757367 8.6403133701824117 0 -0.81915205242281985 0.57357642473473569 1 0 0 1 I I #
coedge $-1 $377 $377 $-1 $524 reversed $253 $-1 #
edge $-1 $525 0 $525 6.2831853071796004 $254 $526 forward 7 unknown #
vertex $-1 $257 $527 #
ellipse-curve $-1 -50.21337055020318 -40.005809176757367 8.6403133701824117 0 -0.81915205242281985 0.57357642473473569 1 0 0 1 I I #
face $-1 $-1 $528 $53 $-1 $529 reversed single #
loop $-1 $-1 $387 $258 #
plane-surface $-1 0 0 10.411513184261489 0 0 1 1 0 0 forward_v I I I I #
coedge $-1 $530 $531 $386 $532 forward $259 $-1 #
coedge $-1 $386 $261 $263 $392 reversed $163 $-1 #
coedge $-1 $261 $385 $384 $532 reversed $163 $-1 #
coedge $-1 $533 $264 $261 $388 forward $382 $-1 #
edge $-1 $395 -44.833642342854802 $534 -42.353227494731044 $387 $535 forward 7 unknown #
coedge $-1 $263 $262 $530 $536 reversed $104 $-1 #
coedge $-1 $537 $538 $262 $391 forward $528 $-1 #
edge $-1 $539 -9.0154471343199862 $394 -4.6909757279666238 $390 $540 forward 7 unknown #
edge $-1 $541 2.4884734274515653e-014 $395 4.3244714063533873 $385 $542 forward 7 unknown #
coedge $-1 $264 $533 $537 $543 forward $382 $-1 #
vertex $-1 $391 $544 #
vertex $-1 $265 $545 #
straight-curve $-1 33.102406875437438 -38.765601752695495 10.411513184261489 -1 0 0 I I #
coedge $-1 $397 $397 $-1 $546 reversed $268 $-1 #
edge $-1 $547 0 $547 6.2831853071796004 $269 $548 forward 7 unknown #
vertex $-1 $272 $549 #
ellipse-curve $-1 61.629824962175206 -40.005809176757367 8.6403133701824117 0 -0.81915205242281985 0.57357642473473569 1 0 0 1 I I #
coedge $-1 $401 $401 $-1 $550 reversed $275 $-1 #
edge $-1 $551 0 $551 6.2831853071796004 $276 $552 forward 7 unknown #
vertex $-1 $279 $553 #
ellipse-curve $-1 70.779802539574519 -40.005809176757367 8.6403133701824117 0 -0.81915205242281985 0.57357642473473569 1 0 0 1 I I #
face $-1 $-1 $295 $42 $-1 $554 reversed single #
loop $-1 $-1 $420 $280 #
plane-surface $-1 0 41.246016600819246 0 0 -1 0 0 0 -1 forward_v I I I I #
coedge $-1 $418 $555 $283 $410 reversed $281 $-1 #
coedge $-1 $424 $283 $284 $412 reversed $177 $-1 #
edge $-1 $425 -10.411513184261489 $556 10.411513184261489 $408 $557 forward 7 unknown #
coedge $-1 $285 $284 $555 $558 forward $113 $-1 #
edge $-1 $416 -76.87978759117405 $556 76.87978759117405 $409 $559 forward 7 unknown #
coedge $-1 $421 $420 $285 $414 reversed $406 $-1 #
edge $-1 $560 -76.87978759117405 $415 76.87978759117405 $413 $561 forward 7 unknown #
vertex $-1 $287 $562 #
vertex $-1 $427 $563 #
straight-curve $-1 76.87978759117405 0 -10.411513184261489 0 -1 0 I I #
coedge $-1 $564 $408 $288 $419 reversed $281 $-1 #
edge $-1 $422 -41.246016600819246 $425 41.246016600819246 $418 $565 forward 7 unknown #
coedge $-1 $413 $289 $294 $428 forward $406 $-1 #
coedge $-1 $289 $413 $564 $566 reversed $406 $-1 #
vertex $-1 $290 $567 #
straight-curve $-1 0 41.246016600819246 10.411513184261489 -1 0 0 I I #
coedge $-1 $291 $409 $293 $427 reversed $177 $-1 #
vertex $-1 $419 $568 #
straight-curve $-1 0 -41.246016600819246 10.411513184261489 1 0 0 I I #
edge $-1 $296 -10.411513184261489 $416 10.411513184261489 $293 $569 forward 7 unknown #
edge $-1 $297 -10.411513184261489 $415 10.411513184261489 $294 $570 forward 7 unknown #
point $-1 76.87978759117405 -41.246016600819246 10.411513184261489 #
point $-1 76.87978759117405 41.246016600819246 10.411513184261489 #
face $-1 $-1 $445 $43 $-1 $571 reversed single #
loop $-1 $-1 $441 $299 #
plane-surface $-1 0 0 -10.411513184261489 0 0 1 1 0 0 forward_v I I I I #
coedge $-1 $572 $573 $435 $574 forward $300 $-1 #
coedge $-1 $303 $302 $434 $574 reversed $117 $-1 #
coedge $-1 $441 $575 $302 $437 forward $432 $-1 #
edge $-1 $576 -88.296242003146091 $439 -76.87978759117405 $302 $577 forward 7 unknown #
edge $-1 $310 -5.7082272059860202 $578 5.7082272059860202 $303 $579 forward 7 unknown #
vertex $-1 $304 $580 #
straight-curve $-1 -76.87978759117405 41.246016600819246 0 0 0 -1 I I #
coedge $-1 $581 $436 $305 $442 forward $432 $-1 #
edge $-1 $439 -41.246016600819246 $446 41.246016600819246 $441 $582 forward 7 unknown #
coedge $-1 $583 $306 $309 $449 reversed $445 $-1 #
coedge $-1 $306 $583 $581 $584 reversed $445 $-1 #
loop $-1 $-1 $306 $431 #
vertex $-1 $584 $585 #
straight-curve $-1 -76.87978759117405 -41.246016600819246 0 0 0 1 I I #
coedge $-1 $309 $308 $573 $586 forward $185 $-1 #
edge $-1 $587 -5.7082272059860202 $311 5.7082272059860202 $443 $588 forward 7 unknown #
point $-1 -76.87978759117405 41.246016600819246 -4.8961787456563659 #
point $-1 -76.87978759117405 -41.246016600819246 -4.8961787456563659 #
loop $-1 $-1 $321 $313 #
plane-surface $-1 0 41.246016600819246 0 0 -1 0 0 0 -1 forward_v I I I I #
coedge $-1 $455 $316 $318 $459 reversed $193 $-1 #
coedge $-1 $316 $454 $589 $590 reversed $193 $-1 #
coedge $-1 $324 $319 $316 $457 forward $314 $-1 #
edge $-1 $460 4.9020637618952421 $591 16.381726517880757 $456 $592 forward 7 unknown #
coedge $-1 $318 $317 $463 $593 reversed $121 $-1 #
edge $-1 $594 -82.492033201638506 $460 -69.099475177417716 $454 $595 forward 7 unknown #
vertex $-1 $320 $596 #
straight-curve $-1 -5.1794303052273563 29.766353844833738 10.411513184261487 1 0 0 I I #
coedge $-1 $589 $321 $324 $467 reversed $452 $-1 #
coedge $-1 $321 $589 $458 $593 forward $452 $-1 #
vertex $-1 $322 $597 #
straight-curve $-1 -26.425948426895427 41.246016600819246 88.899026856767577 0 0 1 I I #
straight-curve $-1 -26.425948426895427 -29.463456488468921 46.000374330349899 0 0.85716729658548041 -0.51503808176128008 I I #
edge $-1 $591 -5.7082272059860024 $325 26.425948426895427 $462 $598 forward 7 unknown #
point $-1 -26.425948426895427 41.246016600819246 10.411513184261489 #
point $-1 -26.425948426895427 29.766353844833731 10.411513184261487 #
edge $-1 $599 1 $599 0 $328 $-1 forward 7 unknown #
vertex $-1 $329 $600 #
ellipse-curve $-1 -17.244755388929299 34.041728893023439 4.5254099085628319 0 0.51503808176128008 0.85716729658548041 1.5 0 0 1 I I #
point $-1 -15.744755388929299 35.506185222826524 6.9626744869258452 #
edge $-1 $601 1 $601 0 $332 $-1 forward 7 unknown #
vertex $-1 $333 $602 #
ellipse-curve $-1 -3.4729658319801189 34.041728893023439 4.5254099085628319 0 0.51503808176128008 0.85716729658548041 1.5 0 0 1 I I #
point $-1 -1.9729658319801189 35.506185222826524 6.9626744869258452 #
loop $-1 $-1 $343 $336 #
plane-surface $-1 0 41.246016600819246 0 0 -1 0 0 0 -1 forward_v I I I I #
coedge $-1 $603 $604 $340 $482 forward $337 $-1 #
coedge $-1 $340 $339 $487 $605 reversed $135 $-1 #
edge $-1 $484 44.625947226573182 $606 58.018505250793964 $480 $607 forward 7 unknown #
coedge $-1 $346 $341 $604 $608 forward $215 $-1 #
vertex $-1 $608 $609 #
straight-curve $-1 30.406349887366659 29.766353844833738 10.411513184261487 1 0 0 I I #
coedge $-1 $610 $343 $346 $491 reversed $478 $-1 #
coedge $-1 $343 $610 $481 $605 forward $478 $-1 #
vertex $-1 $344 $611 #
straight-curve $-1 44.745611958292599 41.246016600819246 88.899026856767577 0 0 1 I I #
straight-curve $-1 44.745611958292599 -29.463456488468921 46.000374330349899 0 0.85716729658548041 -0.51503808176128008 I I #
edge $-1 $612 -76.87978759117405 $347 -44.745611958292599 $486 $613 forward 7 unknown #
point $-1 44.745611958292599 41.246016600819246 10.411513184261489 #
point $-1 44.745611958292599 29.766353844833731 10.411513184261487 #
edge $-1 $614 1 $614 0 $350 $-1 forward 7 unknown #
vertex $-1 $351 $615 #
ellipse-curve $-1 53.926804996258738 34.041728893023439 4.5254099085628319 0 0.51503808176128008 0.85716729658548041 1.5 0 0 1 I I #
point $-1 55.426804996258738 35.506185222826524 6.9626744869258452 #
edge $-1 $616 1 $616 0 $354 $-1 forward 7 unknown #
vertex $-1 $355 $617 #
ellipse-curve $-1 67.698594553207926 34.041728893023439 4.5254099085628319 0 0.51503808176128008 0.85716729658548041 1.5 0 0 1 I I #
point $-1 69.198594553207926 35.506185222826524 6.9626744869258452 #
loop $-1 $-1 $366 $358 #
plane-surface $-1 0 -41.246016600819246 0 0 1 0 0 0 1 forward_v I I I I #
coedge $-1 $505 $361 $363 $509 reversed $237 $-1 #
coedge $-1 $361 $504 $618 $619 reversed $237 $-1 #
coedge $-1 $369 $364 $361 $507 forward $359 $-1 #
edge $-1 $510 -44.833642342854802 $620 -42.353227494731044 $506 $621 forward 7 unknown #
coedge $-1 $363 $362 $513 $622 reversed $149 $-1 #
edge $-1 $623 2.4884734274515653e-014 $510 4.3244714063533873 $504 $624 forward 7 unknown #
vertex $-1 $365 $625 #
straight-curve $-1 -27.394179669451418 -38.765601752695495 10.411513184261489 -1 0 0 I I #
coedge $-1 $618 $366 $369 $517 reversed $502 $-1 #
coedge $-1 $366 $618 $508 $622 forward $502 $-1 #
vertex $-1 $367 $626 #
straight-curve $-1 -44.113385498603648 -41.246016600819246 47.530990478963169 0 0 1 I I #
straight-curve $-1 -44.113385498603648 -41.24601660081926 6.869113556103315 0 -0.57357642473473569 -0.81915205242281985 I I #
edge $-1 $620 -65.463333179202024 $370 -44.113385498603648 $512 $627 forward 7 unknown #
point $-1 -44.113385498603648 -41.246016600819246 10.411513184261489 #
point $-1 -44.113385498603648 -38.765601752695488 10.411513184261489 #
edge $-1 $628 1 $628 0 $373 $-1 forward 7 unknown #
vertex $-1 $374 $629 #
ellipse-curve $-1 -59.363348127602485 -38.696845845818949 7.7237674062824162 0 -0.81915205242281985 0.57357642473473569 1 0 0 1 I I #
point $-1 -58.363348127602485 -40.005809176757353 8.6403133701823993 #
edge $-1 $630 1 $630 0 $377 $-1 forward 7 unknown #
vertex $-1 $378 $631 #
ellipse-curve $-1 -50.21337055020318 -38.696845845818949 7.7237674062824162 0 -0.81915205242281985 0.57357642473473569 1 0 0 1 I I #
point $-1 -49.21337055020318 -40.005809176757353 8.6403133701823993 #
loop $-1 $-1 $390 $381 #
plane-surface $-1 76.87978759117405 0 0 -1 0 0 0 0 1 forward_v I I I I #
coedge $-1 $632 $384 $389 $536 forward $259 $-1 #
coedge $-1 $384 $632 $533 $633 reversed $259 $-1 #
edge $-1 $534 37.119477294701682 $541 40.661876922859832 $384 $634 forward 7 unknown #
coedge $-1 $393 $387 $531 $633 forward $382 $-1 #
vertex $-1 $633 $635 #
straight-curve $-1 55.529839910575689 -83.59924409555029 10.411513184261487 0 -1 0 I I #
edge $-1 $541 22.42743303513825 $539 43.777380715736626 $530 $636 forward 7 unknown #
coedge $-1 $538 $390 $393 $543 reversed $528 $-1 #
coedge $-1 $390 $537 $632 $637 forward $528 $-1 #
vertex $-1 $536 $638 #
straight-curve $-1 76.87978759117405 -36.074968666130971 14.254135579690981 0 0.57357642473473569 0.81915205242281985 I I #
vertex $-1 $536 $639 #
straight-curve $-1 55.529839910575689 -41.24601660081926 6.869113556103315 0 0.57357642473473569 0.81915205242281985 I I #
edge $-1 $640 -41.246016600819246 $394 -38.765601752695488 $537 $641 forward 7 unknown #
point $-1 76.879787591174065 -38.765601752695488 10.411513184261489 #
point $-1 55.529839910575689 -38.765601752695488 10.411513184261489 #
edge $-1 $642 1 $642 0 $397 $-1 forward 7 unknown #
vertex $-1 $398 $643 #
ellipse-curve $-1 61.629824962175206 -38.696845845818949 7.7237674062824162 0 -0.81915205242281985 0.57357642473473569 1 0 0 1 I I #
point $-1 62.629824962175206 -40.005809176757353 8.6403133701823993 #
edge $-1 $644 1 $644 0 $401 $-1 forward 7 unknown #
vertex $-1 $402 $645 #
ellipse-curve $-1 70.779802539574519 -38.696845845818949 7.7237674062824162 0 -0.81915205242281985 0.57357642473473569 1 0 0 1 I I #
point $-1 71.779802539574519 -40.005809176757353 8.6403133701823993 #
plane-surface $-1 76.87978759117405 0 0 -1 0 0 0 0 1 forward_v I I I I #
coedge $-1 $408 $564 $411 $558 reversed $281 $-1 #
vertex $-1 $558 $646 #
straight-curve $-1 -76.87978759117405 -41.246016600819246 0 0 0 -1 I I #
edge $-1 $556 -41.246016600819246 $560 41.246016600819246 $555 $647 forward 7 unknown #
straight-curve $-1 0 -41.246016600819246 -10.411513184261489 -1 0 0 I I #
vertex $-1 $414 $648 #
straight-curve $-1 0 41.246016600819246 -10.411513184261489 1 0 0 I I #
point $-1 76.87978759117405 41.246016600819246 -10.411513184261489 #
point $-1 76.87978759117405 -41.246016600819246 -10.411513184261489 #
coedge $-1 $555 $418 $421 $566 forward $281 $-1 #
straight-curve $-1 -76.87978759117405 0 10.411513184261489 0 -1 0 I I #
edge $-1 $422 -10.411513184261489 $560 10.411513184261489 $421 $649 forward 7 unknown #
point $-1 -76.87978759117405 41.246016600819246 10.411513184261489 #
point $-1 -76.87978759117405 -41.246016600819246 10.411513184261489 #
straight-curve $-1 76.87978759117405 -41.246016600819246 0 0 0 -1 I I #
straight-curve $-1 76.87978759117405 41.246016600819246 0 0 0 -1 I I #
plane-surface $-1 0 -41.246016600819246 0 0 1 0 0 0 1 forward_v I I I I #
coedge $-1 $650 $434 $575 $651 reversed $300 $-1 #
coedge $-1 $434 $650 $448 $586 reversed $300 $-1 #
edge $-1 $578 -2.7576672193025615 $576 2.7576672193025615 $435 $652 forward 7 unknown #
coedge $-1 $436 $581 $572 $651 forward $432 $-1 #
vertex $-1 $437 $653 #
straight-curve $-1 0 41.246016600819246 -10.411513184261489 1 0 0 I I #
vertex $-1 $438 $654 #
straight-curve $-1 -82.588014797160071 41.246016600819246 -4.8961787456563659 -1 0 0 I I #
point $-1 -76.87978759117405 41.246016600819246 -10.411513184261489 #
coedge $-1 $575 $441 $444 $584 forward $432 $-1 #
straight-curve $-1 -76.87978759117405 0 -10.411513184261489 0 -1 0 I I #
coedge $-1 $444 $443 $650 $655 forward $445 $-1 #
edge $-1 $446 -5.7082272059860202 $656 5.7082272059860202 $444 $657 forward 7 unknown #
point $-1 -76.87978759117405 -41.246016600819246 -10.411513184261489 #
edge $-1 $578 -41.246016600819246 $587 41.246016600819246 $573 $658 forward 7 unknown #
vertex $-1 $586 $659 #
straight-curve $-1 -82.588014797160071 -41.246016600819246 -4.8961787456563659 1 0 0 I I #
coedge $-1 $463 $462 $455 $590 forward $452 $-1 #
edge $-1 $591 78.487513672506083 $594 85.385191067177402 $589 $660 forward 7 unknown #
vertex $-1 $467 $661 #
straight-curve $-1 5.7082272059860024 24.864290082938489 10.411513184261494 0 1 0 I I #
edge $-1 $594 -10.887657511213359 $464 21.246518121668071 $463 $662 forward 7 unknown #
vertex $-1 $593 $663 #
straight-curve $-1 5.7082272059860024 -29.463456488468921 46.000374330349899 0 -0.85716729658548041 0.51503808176128008 I I #
point $-1 5.7082272059860024 29.766353844833731 10.411513184261487 #
point $-1 -26.425948426895427 41.246016600819246 3.5138357895901748 #
straight-curve $-1 0 41.246016600819246 10.411513184261489 -1 0 0 I I #
vertex $-1 $470 $664 #
point $-1 -15.744755388929299 34.041728893023439 4.5254099085628319 #
vertex $-1 $474 $665 #
point $-1 -1.9729658319801189 34.041728893023439 4.5254099085628319 #
coedge $-1 $604 $480 $610 $666 reversed $337 $-1 #
coedge $-1 $480 $603 $483 $608 reversed $337 $-1 #
edge $-1 $606 -46.473437703807377 $488 -14.33926207092594 $487 $667 forward 7 unknown #
vertex $-1 $482 $668 #
straight-curve $-1 76.87978759117405 -8.4855486969343161 33.395575440615858 0 0.85716729658548041 -0.51503808176128008 I I #
edge $-1 $484 29.766353844833731 $612 41.246016600819246 $604 $669 forward 7 unknown #
point $-1 76.879787591174036 29.766353844833731 10.411513184261487 #
coedge $-1 $487 $486 $603 $666 forward $478 $-1 #
point $-1 44.745611958292599 41.246016600819246 3.5138357895901748 #
vertex $-1 $608 $670 #
straight-curve $-1 0 41.246016600819246 10.411513184261489 -1 0 0 I I #
vertex $-1 $494 $671 #
point $-1 55.426804996258738 34.041728893023439 4.5254099085628319 #
vertex $-1 $498 $672 #
point $-1 69.198594553207926 34.041728893023439 4.5254099085628319 #
coedge $-1 $513 $512 $505 $619 forward $502 $-1 #
edge $-1 $620 37.119477294701682 $623 40.661876922859832 $618 $673 forward 7 unknown #
vertex $-1 $517 $674 #
straight-curve $-1 -65.463333179202024 -83.59924409555029 10.411513184261487 0 -1 0 I I #
edge $-1 $623 -38.069153509750606 $514 -16.71920582915223 $513 $675 forward 7 unknown #
vertex $-1 $622 $676 #
straight-curve $-1 -65.463333179202024 -41.24601660081926 6.869113556103315 0 0.57357642473473569 0.81915205242281985 I I #
point $-1 -65.463333179202024 -38.765601752695488 10.411513184261489 #
point $-1 -44.113385498603648 -41.246016600819246 6.8691135561033354 #
straight-curve $-1 0 -41.246016600819246 10.411513184261489 1 0 0 I I #
vertex $-1 $520 $677 #
point $-1 -58.363348127602485 -38.696845845818949 7.7237674062824162 #
vertex $-1 $524 $678 #
point $-1 -49.21337055020318 -38.696845845818949 7.7237674062824162 #
coedge $-1 $531 $530 $538 $637 reversed $259 $-1 #
edge $-1 $534 55.529839910575689 $640 76.87978759117405 $531 $679 forward 7 unknown #
straight-curve $-1 55.529839910575689 -41.246016600819246 47.530990478963169 0 0 -1 I I #
point $-1 55.529839910575689 -41.246016600819246 10.411513184261489 #
straight-curve $-1 33.102406875437438 -41.246016600819246 6.8691135561033398 1 0 0 I I #
edge $-1 $640 -10.411513184261489 $539 -6.8691135561033354 $538 $680 forward 7 unknown #
point $-1 76.879787591174065 -41.246016600819246 6.8691135561033354 #
point $-1 55.529839910575689 -41.246016600819246 6.8691135561033354 #
vertex $-1 $543 $681 #
straight-curve $-1 76.87978759117405 0 10.411513184261489 0 1 0 I I #
vertex $-1 $546 $682 #
point $-1 62.629824962175206 -38.696845845818949 7.7237674062824162 #
vertex $-1 $550 $683 #
point $-1 71.779802539574519 -38.696845845818949 7.7237674062824162 #
point $-1 -76.87978759117405 -41.246016600819246 -10.411513184261489 #
straight-curve $-1 -76.87978759117405 0 -10.411513184261489 0 1 0 I I #
point $-1 -76.87978759117405 41.246016600819246 -10.411513184261489 #
straight-curve $-1 -76.87978759117405 41.246016600819246 0 0 0 -1 I I #
coedge $-1 $573 $572 $583 $655 reversed $300 $-1 #
edge $-1 $656 -41.246016600819246 $576 41.246016600819246 $572 $684 forward 7 unknown #
straight-curve $-1 -88.296242003146091 41.246016600819246 -7.6538459649589274 0 0 -1 I I #
point $-1 -88.296242003146091 41.246016600819246 -10.411513184261489 #
point $-1 -88.296242003146091 41.246016600819246 -4.8961787456563659 #
edge $-1 $587 -2.7576672193025615 $656 2.7576672193025615 $650 $685 forward 7 unknown #
vertex $-1 $651 $686 #
straight-curve $-1 -82.588014797160071 -41.246016600819246 -10.411513184261489 -1 0 0 I I #
straight-curve $-1 -88.296242003146091 0 -4.8961787456563659 0 -1 0 I I #
point $-1 -88.296242003146091 -41.246016600819246 -4.8961787456563659 #
straight-curve $-1 5.7082272059860024 41.246016600819246 88.899026856767577 0 0 -1 I I #
point $-1 5.7082272059860024 41.246016600819246 10.411513184261489 #
straight-curve $-1 -5.1794303052273563 41.246016600819246 3.5138357895901748 -1 0 0 I I #
point $-1 5.7082272059860024 41.246016600819246 3.5138357895901748 #
point $-1 -17.244755388929299 33.269171770381526 3.2396589636846116 #
point $-1 -3.4729658319801189 33.269171770381526 3.2396589636846116 #
edge $-1 $612 -10.411513184261489 $606 -3.5138357895901748 $603 $687 forward 7 unknown #
straight-curve $-1 30.406349887366659 41.246016600819246 3.5138357895901748 -1 0 0 I I #
point $-1 76.879787591174036 41.246016600819246 3.5138357895901748 #
straight-curve $-1 76.87978759117405 0 10.411513184261489 0 1 0 I I #
point $-1 76.87978759117405 41.246016600819246 10.411513184261489 #
point $-1 53.926804996258738 33.269171770381526 3.2396589636846116 #
point $-1 67.698594553207926 33.269171770381526 3.2396589636846116 #
straight-curve $-1 -65.463333179202024 -41.246016600819246 47.530990478963169 0 0 -1 I I #
point $-1 -65.463333179202024 -41.246016600819246 10.411513184261489 #
straight-curve $-1 -27.394179669451418 -41.246016600819246 6.8691135561033398 1 0 0 I I #
point $-1 -65.463333179202024 -41.246016600819246 6.8691135561033354 #
point $-1 -59.363348127602485 -37.877693793396126 7.1501909815476807 #
point $-1 -50.21337055020318 -37.877693793396126 7.1501909815476807 #
straight-curve $-1 0 -41.246016600819246 10.411513184261489 1 0 0 I I #
straight-curve $-1 76.87978759117405 -41.246016600819246 0 0 0 -1 I I #
point $-1 76.87978759117405 -41.246016600819246 10.411513184261489 #
point $-1 61.629824962175206 -37.877693793396126 7.1501909815476807 #
point $-1 70.779802539574519 -37.877693793396126 7.1501909815476807 #
straight-curve $-1 -88.296242003146091 0 -10.411513184261489 0 1 0 I I #
straight-curve $-1 -88.296242003146091 -41.246016600819246 -7.6538459649589274 0 0 -1 I I #
point $-1 -88.296242003146091 -41.246016600819246 -10.411513184261489 #
straight-curve $-1 76.87978759117405 41.246016600819246 0 0 0 -1 I I #
End-of-ACIS-data 