500 0 17 0           
7 Unknown 11 ACIS 5.0 NT 24 Fri Mar 26 03:30:43 1999 
-1 9.9999999999999995e-007 1e-010 
body $-1 $17 $-1 $18 #
body $-1 $19 $-1 $20 #
body $-1 $21 $-1 $22 #
body $-1 $23 $-1 $24 #
body $-1 $25 $-1 $26 #
body $-1 $27 $-1 $28 #
body $-1 $29 $-1 $30 #
body $-1 $31 $-1 $32 #
body $-1 $33 $-1 $34 #
body $-1 $35 $-1 $36 #
body $-1 $37 $-1 $38 #
body $-1 $39 $-1 $40 #
body $-1 $41 $-1 $42 #
body $-1 $43 $-1 $44 #
body $-1 $45 $-1 $46 #
body $-1 $47 $-1 $48 #
body $-1 $49 $-1 $50 #
lump $-1 $-1 $51 $0 #
transform $-1 1 0 0 0 1 0 0 0 1 74.272286141544839 31.638765356026223 11.0044814870478 1 rotate no_reflect no_shear #
lump $-1 $-1 $52 $1 #
transform $-1 1 0 0 0 1 0 0 0 1 74.272286141544839 31.638765356026223 11.0044814870478 1 rotate no_reflect no_shear #
lump $-1 $-1 $53 $2 #
transform $-1 1 0 0 0 1 0 0 0 1 74.272286141544839 31.638765356026223 11.0044814870478 1 rotate no_reflect no_shear #
lump $-1 $-1 $54 $3 #
transform $-1 1 0 0 0 1 0 0 0 1 74.272286141544839 31.638765356026223 11.0044814870478 1 rotate no_reflect no_shear #
lump $-1 $-1 $55 $4 #
transform $-1 1 0 0 0 1 0 0 0 1 74.272286141544839 31.638765356026223 11.0044814870478 1 rotate no_reflect no_shear #
lump $-1 $-1 $56 $5 #
transform $-1 1 0 0 0 1 0 0 0 1 74.272286141544839 31.638765356026223 11.0044814870478 1 rotate no_reflect no_shear #
lump $-1 $-1 $57 $6 #
transform $-1 1 0 0 0 1 0 0 0 1 74.272286141544839 31.638765356026223 11.0044814870478 1 rotate no_reflect no_shear #
lump $-1 $-1 $58 $7 #
transform $-1 1 0 0 0 1 0 0 0 1 74.272286141544839 31.638765356026223 11.0044814870478 1 rotate no_reflect no_shear #
lump $-1 $-1 $59 $8 #
transform $-1 1 0 0 0 1 0 0 0 1 74.272286141544839 31.638765356026223 11.0044814870478 1 rotate no_reflect no_shear #
lump $-1 $-1 $60 $9 #
transform $-1 1 0 0 0 1 0 0 0 1 74.272286141544839 31.638765356026223 11.0044814870478 1 rotate no_reflect no_shear #
lump $-1 $-1 $61 $10 #
transform $-1 1 0 0 0 1 0 0 0 1 74.272286141544839 31.638765356026223 11.0044814870478 1 rotate no_reflect no_shear #
lump $-1 $-1 $62 $11 #
transform $-1 1 0 0 0 1 0 0 0 1 74.272286141544839 31.638765356026223 11.0044814870478 1 rotate no_reflect no_shear #
lump $-1 $-1 $63 $12 #
transform $-1 1 0 0 0 1 0 0 0 1 74.272286141544839 31.638765356026223 11.0044814870478 1 rotate no_reflect no_shear #
lump $-1 $-1 $64 $13 #
transform $-1 1 0 0 0 1 0 0 0 1 74.272286141544839 31.638765356026223 11.0044814870478 1 rotate no_reflect no_shear #
lump $-1 $-1 $65 $14 #
transform $-1 1 0 0 0 1 0 0 0 1 74.272286141544839 31.638765356026223 11.0044814870478 1 rotate no_reflect no_shear #
lump $-1 $-1 $66 $15 #
transform $-1 1 0 0 0 1 0 0 0 1 74.272286141544839 31.638765356026223 11.0044814870478 1 rotate no_reflect no_shear #
lump $-1 $-1 $67 $16 #
transform $-1 1 0 0 0 1 0 0 0 1 74.272286141544839 31.638765356026223 11.0044814870478 1 rotate no_reflect no_shear #
shell $-1 $-1 $-1 $68 $-1 $17 #
shell $-1 $-1 $-1 $69 $-1 $19 #
shell $-1 $-1 $-1 $70 $-1 $21 #
shell $-1 $-1 $-1 $71 $-1 $23 #
shell $-1 $-1 $-1 $72 $-1 $25 #
shell $-1 $-1 $-1 $73 $-1 $27 #
shell $-1 $-1 $-1 $74 $-1 $29 #
shell $-1 $-1 $-1 $75 $-1 $31 #
shell $-1 $-1 $-1 $76 $-1 $33 #
shell $-1 $-1 $-1 $77 $-1 $35 #
shell $-1 $-1 $-1 $78 $-1 $37 #
shell $-1 $-1 $-1 $79 $-1 $39 #
shell $-1 $-1 $-1 $80 $-1 $41 #
shell $-1 $-1 $-1 $81 $-1 $43 #
shell $-1 $-1 $-1 $82 $-1 $45 #
shell $-1 $-1 $-1 $83 $-1 $47 #
shell $-1 $-1 $-1 $84 $-1 $49 #
face $-1 $85 $86 $51 $-1 $87 forward single #
face $-1 $88 $89 $52 $-1 $90 forward single #
face $-1 $91 $92 $53 $-1 $93 reversed single #
face $-1 $94 $95 $54 $-1 $96 forward single #
face $-1 $97 $98 $55 $-1 $99 forward single #
face $-1 $100 $101 $56 $-1 $102 reversed single #
face $-1 $103 $104 $57 $-1 $105 forward single #
face $-1 $106 $107 $58 $-1 $108 forward single #
face $-1 $109 $110 $59 $-1 $111 reversed single #
face $-1 $112 $113 $60 $-1 $114 forward single #
face $-1 $115 $116 $61 $-1 $117 forward single #
face $-1 $118 $119 $62 $-1 $120 reversed single #
face $-1 $121 $122 $63 $-1 $123 forward single #
face $-1 $124 $125 $64 $-1 $126 forward single #
face $-1 $127 $128 $65 $-1 $129 reversed single #
face $-1 $130 $131 $66 $-1 $132 forward single #
face $-1 $133 $134 $67 $-1 $135 forward single #
face $-1 $136 $137 $51 $-1 $138 reversed single #
loop $-1 $-1 $139 $68 #
plane-surface $-1 0 0 11.0044814870478 0 0 1 1 0 0 forward_v I I I I #
face $-1 $140 $141 $52 $-1 $142 reversed single #
loop $-1 $-1 $143 $69 #
plane-surface $-1 -69.521672943786115 0 -7.2338672883820552 0 0 1 1 0 0 forward_v I I I I #
face $-1 $144 $145 $53 $-1 $146 reversed single #
loop $-1 $-1 $147 $70 #
plane-surface $-1 -52.29898755422056 119.40345281129595 143.10125858639361 1 0 0 0 -0.82903758062907751 -0.55919289150049634 forward_v I I I I #
face $-1 $148 $149 $54 $-1 $150 forward single #
loop $-1 $151 $152 $71 #
cone-surface $-1 -47.648438070731544 30.068225758445301 9.0110136602767028 0 -0.82903758062907751 -0.55919289150049634 0.25 0 0 1 I I 0 1 0.25 forward I I I I #
face $-1 $153 $154 $55 $-1 $155 forward single #
loop $-1 $156 $157 $72 #
cone-surface $-1 -40.672613845498006 30.068225758445301 9.0110136602767028 0 -0.82903758062907751 -0.55919289150049634 0.25 0 0 1 I I 0 1 0.25 forward I I I I #
face $-1 $158 $159 $56 $-1 $160 reversed single #
loop $-1 $-1 $161 $73 #
plane-surface $-1 -19.691561450304881 119.40345281129595 143.10125858639361 1 0 0 0 -0.82903758062907751 -0.55919289150049634 forward_v I I I I #
face $-1 $162 $163 $57 $-1 $164 forward single #
loop $-1 $165 $166 $74 #
cone-surface $-1 -15.041011966815859 30.068225758445301 9.0110136602767028 0 -0.82903758062907751 -0.55919289150049634 0.25 0 0 1 I I 0 1 0.25 forward I I I I #
face $-1 $167 $168 $58 $-1 $169 forward single #
loop $-1 $170 $171 $75 #
cone-surface $-1 -8.0651877415823208 30.068225758445301 9.0110136602767028 0 -0.82903758062907751 -0.55919289150049634 0.25 0 0 1 I I 0 1 0.25 forward I I I I #
face $-1 $172 $173 $59 $-1 $174 reversed single #
loop $-1 $-1 $175 $76 #
plane-surface $-1 12.915864653610795 119.40345281129595 143.10125858639361 1 0 0 0 -0.82903758062907751 -0.55919289150049634 forward_v I I I I #
face $-1 $176 $177 $60 $-1 $178 forward single #
loop $-1 $179 $180 $77 #
cone-surface $-1 17.566414137099827 30.068225758445301 9.0110136602767028 0 -0.82903758062907751 -0.55919289150049634 0.25 0 0 1 I I 0 1 0.25 forward I I I I #
face $-1 $181 $182 $61 $-1 $183 forward single #
loop $-1 $184 $185 $78 #
cone-surface $-1 24.542238362333364 30.068225758445301 9.0110136602767028 0 -0.82903758062907751 -0.55919289150049634 0.25 0 0 1 I I 0 1 0.25 forward I I I I #
face $-1 $186 $187 $62 $-1 $188 reversed single #
loop $-1 $-1 $189 $79 #
plane-surface $-1 45.523290757526482 119.40345281129595 143.10125858639361 1 0 0 0 -0.82903758062907751 -0.55919289150049634 forward_v I I I I #
face $-1 $190 $191 $63 $-1 $192 forward single #
loop $-1 $193 $194 $80 #
cone-surface $-1 50.173840241015512 30.068225758445301 9.0110136602767028 0 -0.82903758062907751 -0.55919289150049634 0.25 0 0 1 I I 0 1 0.25 forward I I I I #
face $-1 $195 $196 $64 $-1 $197 forward single #
loop $-1 $198 $199 $81 #
cone-surface $-1 57.14966446624905 30.068225758445301 9.0110136602767028 0 -0.82903758062907751 -0.55919289150049634 0.25 0 0 1 I I 0 1 0.25 forward I I I I #
face $-1 $200 $201 $65 $-1 $202 reversed single #
loop $-1 $-1 $203 $82 #
plane-surface $-1 40.787145039448319 -114.70383710539761 128.82889780408956 -1 0 0 0 -0.55919291073839883 0.82903756765294845 forward_v I I I I #
face $-1 $204 $205 $66 $-1 $206 forward single #
loop $-1 $207 $208 $83 #
cone-surface $-1 16.158173476624981 -27.22742086353453 7.6538038150638208 0 0.55919291073839883 -0.82903756765294845 0.5 0 0 1 I I 0 1 0.5 forward I I I I #
face $-1 $209 $210 $67 $-1 $211 forward single #
loop $-1 $212 $213 $84 #
cone-surface $-1 30.935556414318995 -27.22742086353453 7.6538038150638208 0 0.55919291073839883 -0.82903756765294845 0.5 0 0 1 I I 0 1 0.5 forward I I I I #
face $-1 $214 $215 $51 $-1 $216 reversed single #
loop $-1 $-1 $217 $85 #
plane-surface $-1 0 0 -11.0044814870478 0 0 1 1 0 0 forward_v I I I I #
coedge $-1 $218 $219 $220 $221 forward $86 $-1 #
face $-1 $222 $223 $52 $-1 $224 reversed single #
loop $-1 $-1 $225 $88 #
plane-surface $-1 -64.77105974602739 0 -9.1191743877149278 -1 0 0 0 0 1 forward_v I I I I #
coedge $-1 $226 $227 $228 $229 forward $89 $-1 #
face $-1 $230 $231 $53 $-1 $232 reversed single #
loop $-1 $-1 $233 $91 #
plane-surface $-1 -44.160525958114775 -3.7455800098578464 60.036189694708213 0 0.82903758062907751 0.55919289150049634 1 0 0 forward_v I I I I #
coedge $-1 $234 $235 $236 $237 reversed $92 $-1 #
face $-1 $-1 $238 $54 $-1 $239 forward single #
loop $-1 $240 $241 $94 #
cone-surface $-1 -47.648438070731544 29.550077270552126 8.661518103088893 0 -0.82903758062907751 -0.55919289150049634 0.125 0 0 1 I I -0.70710678118654746 0.70710678118654746 0.125 forward I I I I #
loop $-1 $-1 $242 $71 #
coedge $-1 $152 $152 $243 $244 reversed $95 $-1 #
face $-1 $-1 $245 $55 $-1 $246 forward single #
loop $-1 $247 $248 $97 #
cone-surface $-1 -40.672613845498006 29.550077270552126 8.661518103088893 0 -0.82903758062907751 -0.55919289150049634 0.125 0 0 1 I I -0.70710678118654746 0.70710678118654746 0.125 forward I I I I #
loop $-1 $-1 $249 $72 #
coedge $-1 $157 $157 $250 $251 reversed $98 $-1 #
face $-1 $252 $253 $56 $-1 $254 reversed single #
loop $-1 $-1 $255 $100 #
plane-surface $-1 -11.553099854199097 -3.7455800098578464 60.036189694708213 0 0.82903758062907751 0.55919289150049634 1 0 0 forward_v I I I I #
coedge $-1 $256 $257 $258 $259 reversed $101 $-1 #
face $-1 $-1 $260 $57 $-1 $261 forward single #
loop $-1 $262 $263 $103 #
cone-surface $-1 -15.041011966815859 29.550077270552126 8.661518103088893 0 -0.82903758062907751 -0.55919289150049634 0.125 0 0 1 I I -0.70710678118654746 0.70710678118654746 0.125 forward I I I I #
loop $-1 $-1 $264 $74 #
coedge $-1 $166 $166 $265 $266 reversed $104 $-1 #
face $-1 $-1 $267 $58 $-1 $268 forward single #
loop $-1 $269 $270 $106 #
cone-surface $-1 -8.0651877415823208 29.550077270552126 8.661518103088893 0 -0.82903758062907751 -0.55919289150049634 0.125 0 0 1 I I -0.70710678118654746 0.70710678118654746 0.125 forward I I I I #
loop $-1 $-1 $271 $75 #
coedge $-1 $171 $171 $272 $273 reversed $107 $-1 #
face $-1 $274 $275 $59 $-1 $276 reversed single #
loop $-1 $-1 $277 $109 #
plane-surface $-1 21.054326249716581 -3.7455800098578464 60.036189694708213 0 0.82903758062907751 0.55919289150049634 1 0 0 forward_v I I I I #
coedge $-1 $278 $279 $280 $281 reversed $110 $-1 #
face $-1 $-1 $282 $60 $-1 $283 forward single #
loop $-1 $284 $285 $112 #
cone-surface $-1 17.566414137099827 29.550077270552126 8.661518103088893 0 -0.82903758062907751 -0.55919289150049634 0.125 0 0 1 I I -0.70710678118654746 0.70710678118654746 0.125 forward I I I I #
loop $-1 $-1 $286 $77 #
coedge $-1 $180 $180 $287 $288 reversed $113 $-1 #
face $-1 $-1 $289 $61 $-1 $290 forward single #
loop $-1 $291 $292 $115 #
cone-surface $-1 24.542238362333364 29.550077270552126 8.661518103088893 0 -0.82903758062907751 -0.55919289150049634 0.125 0 0 1 I I -0.70710678118654746 0.70710678118654746 0.125 forward I I I I #
loop $-1 $-1 $293 $78 #
coedge $-1 $185 $185 $294 $295 reversed $116 $-1 #
face $-1 $296 $297 $62 $-1 $298 reversed single #
loop $-1 $-1 $299 $118 #
plane-surface $-1 53.661752353632266 -3.7455800098578464 60.036189694708213 0 0.82903758062907751 0.55919289150049634 1 0 0 forward_v I I I I #
coedge $-1 $300 $301 $302 $303 reversed $119 $-1 #
face $-1 $-1 $304 $63 $-1 $305 forward single #
loop $-1 $306 $307 $121 #
cone-surface $-1 50.173840241015512 29.550077270552126 8.661518103088893 0 -0.82903758062907751 -0.55919289150049634 0.125 0 0 1 I I -0.70710678118654746 0.70710678118654746 0.125 forward I I I I #
loop $-1 $-1 $308 $80 #
coedge $-1 $194 $194 $309 $310 reversed $122 $-1 #
face $-1 $-1 $311 $64 $-1 $312 forward single #
loop $-1 $313 $314 $124 #
cone-surface $-1 57.14966446624905 29.550077270552126 8.661518103088893 0 -0.82903758062907751 -0.55919289150049634 0.125 0 0 1 I I -0.70710678118654746 0.70710678118654746 0.125 forward I I I I #
loop $-1 $-1 $315 $81 #
coedge $-1 $199 $199 $316 $317 reversed $125 $-1 #
face $-1 $318 $319 $65 $-1 $320 reversed single #
loop $-1 $-1 $321 $127 #
plane-surface $-1 23.546864945471981 -31.638765356026212 5.6798669104693147 0 -0.55919291073839883 0.82903756765294845 1 0 0 forward_v I I I I #
coedge $-1 $322 $323 $324 $325 reversed $128 $-1 #
face $-1 $-1 $326 $66 $-1 $327 forward single #
loop $-1 $328 $329 $130 #
cone-surface $-1 16.158173476624981 -26.623310940525755 6.7581740394558398 0 0.55919291073839883 -0.82903756765294845 0.25 0 0 1 I I -0.70710678118654746 0.70710678118654746 0.25 forward I I I I #
loop $-1 $-1 $330 $83 #
coedge $-1 $208 $208 $331 $332 reversed $131 $-1 #
face $-1 $-1 $333 $67 $-1 $334 forward single #
loop $-1 $335 $336 $133 #
cone-surface $-1 30.935556414318995 -26.623310940525755 6.7581740394558398 0 0.55919291073839883 -0.82903756765294845 0.25 0 0 1 I I -0.70710678118654746 0.70710678118654746 0.25 forward I I I I #
loop $-1 $-1 $337 $84 #
coedge $-1 $213 $213 $338 $339 reversed $134 $-1 #
face $-1 $340 $341 $51 $-1 $342 reversed single #
loop $-1 $-1 $343 $136 #
plane-surface $-1 0 -31.638765356026223 0 0 1 0 0 0 1 forward_v I I I I #
coedge $-1 $344 $345 $346 $347 forward $137 $-1 #
coedge $-1 $348 $139 $349 $350 forward $86 $-1 #
coedge $-1 $139 $348 $351 $352 forward $86 $-1 #
coedge $-1 $353 $354 $139 $221 reversed $355 $-1 #
edge $-1 $356 -31.638765356026223 $357 31.638765356026223 $220 $358 forward 7 unknown #
face $-1 $359 $360 $52 $-1 $361 reversed single #
loop $-1 $-1 $362 $140 #
plane-surface $-1 0 0 -11.0044814870478 0 0 1 1 0 0 forward_v I I I I #
coedge $-1 $363 $228 $364 $365 reversed $141 $-1 #
coedge $-1 $366 $143 $367 $368 reversed $89 $-1 #
coedge $-1 $143 $366 $369 $370 reversed $89 $-1 #
coedge $-1 $225 $371 $143 $229 reversed $141 $-1 #
edge $-1 $372 -31.638765356026223 $373 31.638765356026223 $228 $374 forward 7 unknown #
face $-1 $375 $376 $53 $-1 $377 reversed single #
loop $-1 $-1 $378 $144 #
plane-surface $-1 -36.02206436200899 119.40345281129595 143.10125858639361 -1 0 0 0 0.82903758062907751 0.55919289150049634 forward_v I I I I #
coedge $-1 $379 $380 $381 $382 reversed $145 $-1 #
coedge $-1 $235 $147 $383 $384 reversed $92 $-1 #
coedge $-1 $147 $234 $379 $385 reversed $92 $-1 #
coedge $-1 $381 $386 $147 $237 forward $387 $-1 #
edge $-1 $388 28.062961049621752 $389 30.375002664154522 $236 $390 forward 7 unknown #
loop $-1 $-1 $243 $148 #
plane-surface $-1 -44.160525958114775 -3.7455800098578464 60.036189694708213 0 0.82903758062907751 0.55919289150049634 1 0 0 forward_v I I I I #
loop $-1 $-1 $391 $94 #
coedge $-1 $241 $241 $242 $392 reversed $149 $-1 #
coedge $-1 $242 $242 $241 $392 forward $151 $-1 #
coedge $-1 $243 $243 $152 $244 forward $238 $-1 #
edge $-1 $393 -3.834723672875115e-015 $393 6.2831853071795969 $243 $394 forward 7 unknown #
loop $-1 $-1 $250 $153 #
plane-surface $-1 -44.160525958114775 -3.7455800098578464 60.036189694708213 0 0.82903758062907751 0.55919289150049634 1 0 0 forward_v I I I I #
loop $-1 $-1 $395 $97 #
coedge $-1 $248 $248 $249 $396 reversed $154 $-1 #
coedge $-1 $249 $249 $248 $396 forward $156 $-1 #
coedge $-1 $250 $250 $157 $251 forward $245 $-1 #
edge $-1 $397 -3.834723672875115e-015 $397 6.2831853071795969 $250 $398 forward 7 unknown #
face $-1 $399 $400 $56 $-1 $401 forward single #
loop $-1 $-1 $402 $158 #
plane-surface $-1 -3.4146382580933103 119.40345281129595 143.10125858639361 -1 0 0 0 0.82903758062907751 0.55919289150049634 forward_v I I I I #
coedge $-1 $403 $404 $405 $406 reversed $159 $-1 #
coedge $-1 $257 $161 $407 $408 reversed $101 $-1 #
coedge $-1 $161 $256 $403 $409 reversed $101 $-1 #
coedge $-1 $405 $410 $161 $259 forward $400 $-1 #
edge $-1 $411 28.062961049621752 $412 30.375002664154522 $258 $413 forward 7 unknown #
loop $-1 $-1 $265 $162 #
plane-surface $-1 -11.553099854199097 -3.7455800098578464 60.036189694708213 0 0.82903758062907751 0.55919289150049634 1 0 0 forward_v I I I I #
loop $-1 $-1 $414 $103 #
coedge $-1 $263 $263 $264 $415 reversed $163 $-1 #
coedge $-1 $264 $264 $263 $415 forward $165 $-1 #
coedge $-1 $265 $265 $166 $266 forward $260 $-1 #
edge $-1 $416 -3.834723672875115e-015 $416 6.2831853071795969 $265 $417 forward 7 unknown #
loop $-1 $-1 $272 $167 #
plane-surface $-1 -11.553099854199097 -3.7455800098578464 60.036189694708213 0 0.82903758062907751 0.55919289150049634 1 0 0 forward_v I I I I #
loop $-1 $-1 $418 $106 #
coedge $-1 $270 $270 $271 $419 reversed $168 $-1 #
coedge $-1 $271 $271 $270 $419 forward $170 $-1 #
coedge $-1 $272 $272 $171 $273 forward $267 $-1 #
edge $-1 $420 -3.834723672875115e-015 $420 6.2831853071795969 $272 $421 forward 7 unknown #
face $-1 $422 $423 $59 $-1 $424 forward single #
loop $-1 $-1 $425 $172 #
plane-surface $-1 29.192787845822366 119.40345281129595 143.10125858639361 -1 0 0 0 0.82903758062907751 0.55919289150049634 forward_v I I I I #
coedge $-1 $426 $427 $428 $429 reversed $173 $-1 #
coedge $-1 $279 $175 $430 $431 reversed $110 $-1 #
coedge $-1 $175 $278 $426 $432 reversed $110 $-1 #
coedge $-1 $428 $433 $175 $281 forward $423 $-1 #
edge $-1 $434 28.062961049621752 $435 30.375002664154522 $280 $436 forward 7 unknown #
loop $-1 $-1 $287 $176 #
plane-surface $-1 21.054326249716581 -3.7455800098578464 60.036189694708213 0 0.82903758062907751 0.55919289150049634 1 0 0 forward_v I I I I #
loop $-1 $-1 $437 $112 #
coedge $-1 $285 $285 $286 $438 reversed $177 $-1 #
coedge $-1 $286 $286 $285 $438 forward $179 $-1 #
coedge $-1 $287 $287 $180 $288 forward $282 $-1 #
edge $-1 $439 -3.834723672875115e-015 $439 6.2831853071795969 $287 $440 forward 7 unknown #
loop $-1 $-1 $294 $181 #
plane-surface $-1 21.054326249716581 -3.7455800098578464 60.036189694708213 0 0.82903758062907751 0.55919289150049634 1 0 0 forward_v I I I I #
loop $-1 $-1 $441 $115 #
coedge $-1 $292 $292 $293 $442 reversed $182 $-1 #
coedge $-1 $293 $293 $292 $442 forward $184 $-1 #
coedge $-1 $294 $294 $185 $295 forward $289 $-1 #
edge $-1 $443 -3.834723672875115e-015 $443 6.2831853071795969 $294 $444 forward 7 unknown #
face $-1 $445 $446 $62 $-1 $447 forward single #
loop $-1 $-1 $448 $186 #
plane-surface $-1 61.800213949738051 119.40345281129595 143.10125858639361 -1 0 0 0 0.82903758062907751 0.55919289150049634 forward_v I I I I #
coedge $-1 $449 $450 $451 $452 reversed $187 $-1 #
coedge $-1 $301 $189 $453 $454 reversed $119 $-1 #
coedge $-1 $189 $300 $449 $455 reversed $119 $-1 #
coedge $-1 $451 $456 $189 $303 forward $446 $-1 #
edge $-1 $457 28.062961049621752 $458 30.375002664154522 $302 $459 forward 7 unknown #
loop $-1 $-1 $309 $190 #
plane-surface $-1 53.661752353632266 -3.7455800098578464 60.036189694708213 0 0.82903758062907751 0.55919289150049634 1 0 0 forward_v I I I I #
loop $-1 $-1 $460 $121 #
coedge $-1 $307 $307 $308 $461 reversed $191 $-1 #
coedge $-1 $308 $308 $307 $461 forward $193 $-1 #
coedge $-1 $309 $309 $194 $310 forward $304 $-1 #
edge $-1 $462 -3.834723672875115e-015 $462 6.2831853071795969 $309 $463 forward 7 unknown #
loop $-1 $-1 $316 $195 #
plane-surface $-1 53.661752353632266 -3.7455800098578464 60.036189694708213 0 0.82903758062907751 0.55919289150049634 1 0 0 forward_v I I I I #
loop $-1 $-1 $464 $124 #
coedge $-1 $314 $314 $315 $465 reversed $196 $-1 #
coedge $-1 $315 $315 $314 $465 forward $198 $-1 #
coedge $-1 $316 $316 $199 $317 forward $311 $-1 #
edge $-1 $466 -3.834723672875115e-015 $466 6.2831853071795969 $316 $467 forward 7 unknown #
face $-1 $468 $469 $65 $-1 $470 forward single #
loop $-1 $-1 $471 $200 #
plane-surface $-1 6.3065848514956429 -114.70383710539761 128.82889780408956 1 0 0 0 0.55919291073839883 -0.82903756765294845 forward_v I I I I #
coedge $-1 $472 $473 $474 $475 reversed $201 $-1 #
coedge $-1 $323 $203 $476 $477 reversed $128 $-1 #
coedge $-1 $203 $322 $472 $478 reversed $128 $-1 #
coedge $-1 $474 $479 $203 $325 forward $469 $-1 #
edge $-1 $480 25.713153196672582 $481 33.607218791007639 $324 $482 forward 7 unknown #
loop $-1 $-1 $331 $204 #
plane-surface $-1 23.546864945471981 -31.638765356026212 5.6798669104693147 0 -0.55919291073839883 0.82903756765294845 1 0 0 forward_v I I I I #
loop $-1 $-1 $483 $130 #
coedge $-1 $329 $329 $330 $484 reversed $205 $-1 #
coedge $-1 $330 $330 $329 $484 forward $207 $-1 #
coedge $-1 $331 $331 $208 $332 forward $326 $-1 #
edge $-1 $485 -3.7654325195607146e-015 $485 6.2831853071795969 $331 $486 forward 7 unknown #
loop $-1 $-1 $338 $209 #
plane-surface $-1 23.546864945471981 -31.638765356026212 5.6798669104693147 0 -0.55919291073839883 0.82903756765294845 1 0 0 forward_v I I I I #
loop $-1 $-1 $487 $133 #
coedge $-1 $336 $336 $337 $488 reversed $210 $-1 #
coedge $-1 $337 $337 $336 $488 forward $212 $-1 #
coedge $-1 $338 $338 $213 $339 forward $333 $-1 #
edge $-1 $489 -3.7654325195607146e-015 $489 6.2831853071795969 $338 $490 forward 7 unknown #
face $-1 $491 $492 $51 $-1 $493 reversed single #
loop $-1 $-1 $494 $214 #
plane-surface $-1 -74.272286141544839 0 0 1 0 0 0 0 -1 forward_v I I I I #
coedge $-1 $495 $351 $496 $497 forward $215 $-1 #
coedge $-1 $498 $217 $495 $499 forward $137 $-1 #
coedge $-1 $217 $498 $500 $501 forward $137 $-1 #
coedge $-1 $354 $353 $217 $347 reversed $355 $-1 #
edge $-1 $502 -31.638765356026223 $503 31.638765356026223 $346 $504 forward 7 unknown #
coedge $-1 $219 $218 $505 $506 forward $86 $-1 #
coedge $-1 $507 $508 $218 $350 reversed $492 $-1 #
edge $-1 $357 -74.272286141544839 $509 74.272286141544839 $349 $510 forward 7 unknown #
coedge $-1 $343 $511 $219 $352 reversed $215 $-1 #
edge $-1 $512 -74.272286141544839 $356 74.272286141544839 $351 $513 forward 7 unknown #
coedge $-1 $346 $220 $511 $514 forward $355 $-1 #
coedge $-1 $220 $346 $507 $515 reversed $355 $-1 #
loop $-1 $-1 $353 $491 #
vertex $-1 $221 $516 #
vertex $-1 $221 $517 #
straight-curve $-1 74.272286141544839 0 11.0044814870478 0 1 0 I I #
face $-1 $518 $519 $52 $-1 $520 reversed single #
loop $-1 $-1 $364 $222 #
plane-surface $-1 0 -31.638765356026223 0 0 1 0 0 0 1 forward_v I I I I #
coedge $-1 $521 $522 $363 $523 forward $223 $-1 #
coedge $-1 $371 $225 $362 $523 reversed $141 $-1 #
coedge $-1 $369 $524 $225 $365 forward $360 $-1 #
edge $-1 $525 -6.4448942931903357 $372 -2.6742800945245913 $364 $526 forward 7 unknown #
coedge $-1 $227 $226 $527 $528 reversed $89 $-1 #
coedge $-1 $529 $530 $226 $368 forward $531 $-1 #
edge $-1 $532 -39.511449669651782 $373 -30.010223274134333 $367 $533 forward 7 unknown #
coedge $-1 $534 $364 $227 $370 forward $360 $-1 #
edge $-1 $372 30.010223274134333 $535 39.511449669651782 $369 $536 forward 7 unknown #
coedge $-1 $228 $363 $529 $537 reversed $141 $-1 #
vertex $-1 $370 $538 #
vertex $-1 $368 $539 #
straight-curve $-1 -64.77105974602739 0 -7.2338672883820552 0 1 0 I I #
face $-1 $-1 $387 $53 $-1 $540 forward single #
loop $-1 $-1 $541 $230 #
plane-surface $-1 0 31.638765356026223 0 0 -1 0 0 0 -1 forward_v I I I I #
coedge $-1 $542 $543 $544 $545 reversed $231 $-1 #
coedge $-1 $546 $233 $235 $385 forward $145 $-1 #
coedge $-1 $233 $546 $542 $547 forward $145 $-1 #
coedge $-1 $544 $236 $233 $382 forward $387 $-1 #
edge $-1 $389 -30.218724575163172 $548 -13.941801382951603 $381 $549 forward 7 unknown #
coedge $-1 $550 $551 $234 $384 forward $376 $-1 #
edge $-1 $552 -63.973890568190704 $388 -60.546147806149008 $383 $553 forward 7 unknown #
edge $-1 $389 59.142925909890522 $552 63.277530712052453 $235 $554 forward 7 unknown #
coedge $-1 $236 $544 $550 $555 forward $387 $-1 #
loop $-1 $-1 $544 $375 #
vertex $-1 $384 $556 #
vertex $-1 $237 $557 #
straight-curve $-1 -52.29898755422056 59.701726405647975 11.004481487047798 0 -1 0 I I #
coedge $-1 $391 $391 $-1 $558 reversed $240 $-1 #
edge $-1 $559 0 $559 6.2831853071796004 $241 $560 forward 7 unknown #
vertex $-1 $244 $561 #
ellipse-curve $-1 -47.648438070731544 30.482744548759836 9.2906101060269481 0 0.82903758062907751 0.55919289150049634 0.25 0 0 1 I I #
coedge $-1 $395 $395 $-1 $562 reversed $247 $-1 #
edge $-1 $563 0 $563 6.2831853071796004 $248 $564 forward 7 unknown #
vertex $-1 $251 $565 #
ellipse-curve $-1 -40.672613845498006 30.482744548759836 9.2906101060269481 0 0.82903758062907751 0.55919289150049634 0.25 0 0 1 I I #
face $-1 $-1 $566 $56 $-1 $567 reversed single #
loop $-1 $-1 $258 $252 #
plane-surface $-1 0 0 11.0044814870478 0 0 1 1 0 0 forward_v I I I I #
coedge $-1 $568 $569 $570 $571 reversed $253 $-1 #
coedge $-1 $572 $255 $257 $409 forward $159 $-1 #
coedge $-1 $255 $572 $568 $573 forward $159 $-1 #
coedge $-1 $570 $258 $255 $406 forward $400 $-1 #
edge $-1 $412 -13.915011523205333 $574 2.3619116690062381 $405 $575 forward 7 unknown #
coedge $-1 $576 $577 $256 $408 forward $566 $-1 #
edge $-1 $578 -63.973890568190704 $411 -60.546147806149008 $407 $579 forward 7 unknown #
edge $-1 $412 59.142925909890522 $578 63.277530712052453 $257 $580 forward 7 unknown #
coedge $-1 $258 $570 $576 $581 forward $400 $-1 #
vertex $-1 $259 $582 #
vertex $-1 $259 $583 #
straight-curve $-1 -19.691561450304881 59.701726405647975 11.004481487047798 0 -1 0 I I #
coedge $-1 $414 $414 $-1 $584 reversed $262 $-1 #
edge $-1 $585 0 $585 6.2831853071796004 $263 $586 forward 7 unknown #
vertex $-1 $266 $587 #
ellipse-curve $-1 -15.041011966815859 30.482744548759836 9.2906101060269481 0 0.82903758062907751 0.55919289150049634 0.25 0 0 1 I I #
coedge $-1 $418 $418 $-1 $588 reversed $269 $-1 #
edge $-1 $589 0 $589 6.2831853071796004 $270 $590 forward 7 unknown #
vertex $-1 $273 $591 #
ellipse-curve $-1 -8.0651877415823208 30.482744548759836 9.2906101060269481 0 0.82903758062907751 0.55919289150049634 0.25 0 0 1 I I #
face $-1 $-1 $592 $59 $-1 $593 reversed single #
loop $-1 $-1 $280 $274 #
plane-surface $-1 0 0 11.0044814870478 0 0 1 1 0 0 forward_v I I I I #
coedge $-1 $594 $595 $596 $597 reversed $275 $-1 #
coedge $-1 $598 $277 $279 $432 forward $173 $-1 #
coedge $-1 $277 $598 $594 $599 forward $173 $-1 #
coedge $-1 $596 $280 $277 $429 forward $423 $-1 #
edge $-1 $435 2.3887015287525042 $600 18.665624720964075 $428 $601 forward 7 unknown #
coedge $-1 $602 $603 $278 $431 forward $592 $-1 #
edge $-1 $604 -63.973890568190704 $434 -60.546147806149008 $430 $605 forward 7 unknown #
edge $-1 $435 59.142925909890522 $604 63.277530712052453 $279 $606 forward 7 unknown #
coedge $-1 $280 $596 $602 $607 forward $423 $-1 #
vertex $-1 $281 $608 #
vertex $-1 $281 $609 #
straight-curve $-1 12.915864653610795 59.701726405647975 11.004481487047798 0 -1 0 I I #
coedge $-1 $437 $437 $-1 $610 reversed $284 $-1 #
edge $-1 $611 0 $611 6.2831853071796004 $285 $612 forward 7 unknown #
vertex $-1 $288 $613 #
ellipse-curve $-1 17.566414137099827 30.482744548759836 9.2906101060269481 0 0.82903758062907751 0.55919289150049634 0.25 0 0 1 I I #
coedge $-1 $441 $441 $-1 $614 reversed $291 $-1 #
edge $-1 $615 0 $615 6.2831853071796004 $292 $616 forward 7 unknown #
vertex $-1 $295 $617 #
ellipse-curve $-1 24.542238362333364 30.482744548759836 9.2906101060269481 0 0.82903758062907751 0.55919289150049634 0.25 0 0 1 I I #
face $-1 $-1 $618 $62 $-1 $619 reversed single #
loop $-1 $-1 $302 $296 #
plane-surface $-1 0 0 11.0044814870478 0 0 1 1 0 0 forward_v I I I I #
coedge $-1 $620 $621 $622 $623 reversed $297 $-1 #
coedge $-1 $624 $299 $301 $455 forward $187 $-1 #
coedge $-1 $299 $624 $620 $625 forward $187 $-1 #
coedge $-1 $622 $302 $299 $452 forward $446 $-1 #
edge $-1 $458 18.692414580710349 $626 34.969337772921918 $451 $627 forward 7 unknown #
coedge $-1 $628 $629 $300 $454 forward $618 $-1 #
edge $-1 $630 -63.973890568190704 $457 -60.546147806149008 $453 $631 forward 7 unknown #
edge $-1 $458 59.142925909890522 $630 63.277530712052453 $301 $632 forward 7 unknown #
coedge $-1 $302 $622 $628 $633 forward $446 $-1 #
vertex $-1 $303 $634 #
vertex $-1 $303 $635 #
straight-curve $-1 45.523290757526482 59.701726405647975 11.004481487047798 0 -1 0 I I #
coedge $-1 $460 $460 $-1 $636 reversed $306 $-1 #
edge $-1 $637 0 $637 6.2831853071796004 $307 $638 forward 7 unknown #
vertex $-1 $310 $639 #
ellipse-curve $-1 50.173840241015512 30.482744548759836 9.2906101060269481 0 0.82903758062907751 0.55919289150049634 0.25 0 0 1 I I #
coedge $-1 $464 $464 $-1 $640 reversed $313 $-1 #
edge $-1 $641 0 $641 6.2831853071796004 $314 $642 forward 7 unknown #
vertex $-1 $317 $643 #
ellipse-curve $-1 57.14966446624905 30.482744548759836 9.2906101060269481 0 0.82903758062907751 0.55919289150049634 0.25 0 0 1 I I #
face $-1 $-1 $644 $65 $-1 $645 reversed single #
loop $-1 $-1 $324 $318 #
plane-surface $-1 0 0 11.0044814870478 0 0 1 1 0 0 forward_v I I I I #
coedge $-1 $646 $647 $648 $649 reversed $319 $-1 #
coedge $-1 $650 $321 $323 $478 forward $201 $-1 #
coedge $-1 $321 $650 $646 $651 forward $201 $-1 #
coedge $-1 $648 $324 $321 $475 forward $469 $-1 #
edge $-1 $481 -29.013712566712329 $652 5.4668476212403476 $474 $653 forward 7 unknown #
coedge $-1 $654 $655 $322 $477 forward $644 $-1 #
edge $-1 $656 -58.734581991575475 $480 -53.409967414996984 $476 $657 forward 7 unknown #
edge $-1 $481 -9.5219636628573809 $656 1.2809303926657532e-014 $323 $658 forward 7 unknown #
coedge $-1 $324 $648 $654 $659 forward $469 $-1 #
vertex $-1 $325 $660 #
vertex $-1 $325 $661 #
straight-curve $-1 40.787145039448319 -57.351918552698805 11.004481487047798 0 1 0 I I #
coedge $-1 $483 $483 $-1 $662 reversed $328 $-1 #
edge $-1 $663 0 $663 6.2831853071796004 $329 $664 forward 7 unknown #
vertex $-1 $332 $665 #
ellipse-curve $-1 16.158173476624981 -27.691732558858696 8.3421741987585527 0 -0.55919291073839883 0.82903756765294845 0.5 0 0 1 I I #
coedge $-1 $487 $487 $-1 $666 reversed $335 $-1 #
edge $-1 $667 0 $667 6.2831853071796004 $336 $668 forward 7 unknown #
vertex $-1 $339 $669 #
ellipse-curve $-1 30.935556414318995 -27.691732558858696 8.3421741987585527 0 -0.55919291073839883 0.82903756765294845 0.5 0 0 1 I I #
face $-1 $-1 $355 $51 $-1 $670 reversed single #
loop $-1 $-1 $507 $340 #
plane-surface $-1 0 31.638765356026223 0 0 -1 0 0 0 -1 forward_v I I I I #
coedge $-1 $671 $505 $508 $672 forward $341 $-1 #
coedge $-1 $511 $343 $344 $499 reversed $215 $-1 #
coedge $-1 $505 $671 $343 $497 reversed $341 $-1 #
edge $-1 $512 -11.0044814870478 $673 11.0044814870478 $496 $674 forward 7 unknown #
coedge $-1 $345 $344 $671 $675 forward $137 $-1 #
edge $-1 $503 -74.272286141544839 $673 74.272286141544839 $495 $676 forward 7 unknown #
coedge $-1 $508 $507 $345 $501 reversed $492 $-1 #
edge $-1 $677 -74.272286141544839 $502 74.272286141544839 $500 $678 forward 7 unknown #
vertex $-1 $347 $679 #
vertex $-1 $514 $680 #
straight-curve $-1 74.272286141544839 0 -11.0044814870478 0 -1 0 I I #
coedge $-1 $494 $496 $348 $506 reversed $341 $-1 #
edge $-1 $509 -31.638765356026223 $512 31.638765356026223 $505 $681 forward 7 unknown #
coedge $-1 $500 $349 $354 $515 forward $492 $-1 #
coedge $-1 $349 $500 $494 $672 reversed $492 $-1 #
vertex $-1 $350 $682 #
straight-curve $-1 0 31.638765356026223 11.0044814870478 -1 0 0 I I #
coedge $-1 $351 $495 $353 $514 reversed $215 $-1 #
vertex $-1 $506 $683 #
straight-curve $-1 0 -31.638765356026223 11.0044814870478 1 0 0 I I #
edge $-1 $356 -11.0044814870478 $503 11.0044814870478 $353 $684 forward 7 unknown #
edge $-1 $357 -11.0044814870478 $502 11.0044814870478 $354 $685 forward 7 unknown #
point $-1 74.272286141544839 -31.638765356026223 11.0044814870478 #
point $-1 74.272286141544839 31.638765356026223 11.0044814870478 #
face $-1 $-1 $531 $52 $-1 $686 reversed single #
loop $-1 $-1 $527 $359 #
plane-surface $-1 -74.272286141544839 0 0 1 0 0 0 0 -1 forward_v I I I I #
coedge $-1 $687 $362 $524 $688 forward $223 $-1 #
coedge $-1 $362 $687 $689 $690 forward $223 $-1 #
edge $-1 $691 -31.638765356026223 $525 31.638765356026223 $362 $692 forward 7 unknown #
coedge $-1 $364 $534 $521 $688 reversed $360 $-1 #
vertex $-1 $688 $693 #
straight-curve $-1 -64.77105974602739 -31.638765356026223 -4.5595871938574639 0 0 1 I I #
coedge $-1 $694 $695 $366 $528 forward $519 $-1 #
edge $-1 $535 -31.638765356026223 $532 31.638765356026223 $527 $696 forward 7 unknown #
coedge $-1 $689 $367 $371 $537 forward $531 $-1 #
coedge $-1 $367 $689 $694 $697 reversed $531 $-1 #
loop $-1 $-1 $529 $518 #
vertex $-1 $697 $698 #
straight-curve $-1 -34.760836471893057 31.638765356026223 -7.2338672883820552 1 0 0 I I #
coedge $-1 $524 $369 $695 $699 forward $360 $-1 #
vertex $-1 $699 $700 #
straight-curve $-1 -34.760836471893057 -31.638765356026223 -7.2338672883820552 -1 0 0 I I #
edge $-1 $373 2.6742800945245913 $691 6.4448942931903357 $529 $701 forward 7 unknown #
point $-1 -64.77105974602739 -31.638765356026223 -7.2338672883820552 #
point $-1 -64.77105974602739 31.638765356026223 -7.2338672883820552 #
plane-surface $-1 0 0 11.0044814870478 0 0 1 1 0 0 forward_v I I I I #
coedge $-1 $551 $550 $543 $702 forward $376 $-1 #
coedge $-1 $543 $378 $380 $547 reversed $231 $-1 #
coedge $-1 $378 $542 $541 $702 reversed $231 $-1 #
coedge $-1 $386 $381 $378 $545 forward $387 $-1 #
edge $-1 $548 -30.375002664154522 $703 -28.062961049621752 $544 $704 forward 7 unknown #
coedge $-1 $380 $379 $551 $705 reversed $145 $-1 #
edge $-1 $706 -63.277530712052453 $548 -59.142925909890522 $542 $707 forward 7 unknown #
vertex $-1 $382 $708 #
straight-curve $-1 -22.080262979057387 29.326723741493453 11.004481487047801 1 0 0 I I #
coedge $-1 $541 $383 $386 $555 reversed $376 $-1 #
coedge $-1 $383 $541 $546 $705 forward $376 $-1 #
vertex $-1 $384 $709 #
straight-curve $-1 -52.29898755422056 31.638765356026227 71.550629293196806 0 0 1 I I #
straight-curve $-1 -52.29898755422056 -3.7455800098578464 60.036189694708213 0 0.55919289150049634 -0.82903758062907751 I I #
edge $-1 $703 36.02206436200899 $388 52.29898755422056 $550 $710 forward 7 unknown #
point $-1 -52.29898755422056 31.638765356026223 11.0044814870478 #
point $-1 -52.29898755422056 29.326723741493453 11.004481487047798 #
edge $-1 $711 1 $711 0 $391 $-1 forward 7 unknown #
vertex $-1 $392 $712 #
ellipse-curve $-1 -47.648438070731544 29.653706968130763 8.7314172145264557 0 0.82903758062907751 0.55919289150049634 0.25 0 0 1 I I #
point $-1 -47.398438070731544 30.48274454875984 9.2906101060269517 #
edge $-1 $713 1 $713 0 $395 $-1 forward 7 unknown #
vertex $-1 $396 $714 #
ellipse-curve $-1 -40.672613845498006 29.653706968130763 8.7314172145264557 0 0.82903758062907751 0.55919289150049634 0.25 0 0 1 I I #
point $-1 -40.422613845498006 30.48274454875984 9.2906101060269517 #
loop $-1 $-1 $407 $399 #
plane-surface $-1 0 31.638765356026223 0 0 -1 0 0 0 -1 forward_v I I I I #
coedge $-1 $569 $402 $404 $573 reversed $253 $-1 #
coedge $-1 $402 $568 $715 $716 reversed $253 $-1 #
coedge $-1 $410 $405 $402 $571 forward $400 $-1 #
edge $-1 $574 -30.375002664154522 $717 -28.062961049621752 $570 $718 forward 7 unknown #
coedge $-1 $404 $403 $577 $719 reversed $159 $-1 #
edge $-1 $720 -63.277530712052453 $574 -59.142925909890522 $568 $721 forward 7 unknown #
vertex $-1 $406 $722 #
straight-curve $-1 -5.7765499270995484 29.326723741493453 11.004481487047801 1 0 0 I I #
coedge $-1 $715 $407 $410 $581 reversed $566 $-1 #
coedge $-1 $407 $715 $572 $719 forward $566 $-1 #
vertex $-1 $408 $723 #
straight-curve $-1 -19.691561450304881 31.638765356026227 71.550629293196806 0 0 1 I I #
straight-curve $-1 -19.691561450304881 -3.7455800098578464 60.036189694708213 0 0.55919289150049634 -0.82903758062907751 I I #
edge $-1 $717 3.4146382580933103 $411 19.691561450304881 $576 $724 forward 7 unknown #
point $-1 -19.691561450304881 31.638765356026223 11.0044814870478 #
point $-1 -19.691561450304881 29.326723741493453 11.004481487047798 #
edge $-1 $725 1 $725 0 $414 $-1 forward 7 unknown #
vertex $-1 $415 $726 #
ellipse-curve $-1 -15.041011966815859 29.653706968130763 8.7314172145264557 0 0.82903758062907751 0.55919289150049634 0.25 0 0 1 I I #
point $-1 -14.791011966815859 30.48274454875984 9.2906101060269517 #
edge $-1 $727 1 $727 0 $418 $-1 forward 7 unknown #
vertex $-1 $419 $728 #
ellipse-curve $-1 -8.0651877415823208 29.653706968130763 8.7314172145264557 0 0.82903758062907751 0.55919289150049634 0.25 0 0 1 I I #
point $-1 -7.8151877415823208 30.48274454875984 9.2906101060269517 #
loop $-1 $-1 $430 $422 #
plane-surface $-1 0 31.638765356026223 0 0 -1 0 0 0 -1 forward_v I I I I #
coedge $-1 $595 $425 $427 $599 reversed $275 $-1 #
coedge $-1 $425 $594 $729 $730 reversed $275 $-1 #
coedge $-1 $433 $428 $425 $597 forward $423 $-1 #
edge $-1 $600 -30.375002664154522 $731 -28.062961049621752 $596 $732 forward 7 unknown #
coedge $-1 $427 $426 $603 $733 reversed $173 $-1 #
edge $-1 $734 -63.277530712052453 $600 -59.142925909890522 $594 $735 forward 7 unknown #
vertex $-1 $429 $736 #
straight-curve $-1 10.527163124858291 29.326723741493453 11.004481487047801 1 0 0 I I #
coedge $-1 $729 $430 $433 $607 reversed $592 $-1 #
coedge $-1 $430 $729 $598 $733 forward $592 $-1 #
vertex $-1 $431 $737 #
straight-curve $-1 12.915864653610795 31.638765356026227 71.550629293196806 0 0 1 I I #
straight-curve $-1 12.915864653610795 -3.7455800098578464 60.036189694708213 0 0.55919289150049634 -0.82903758062907751 I I #
edge $-1 $731 -29.192787845822366 $434 -12.915864653610795 $602 $738 forward 7 unknown #
point $-1 12.915864653610795 31.638765356026223 11.0044814870478 #
point $-1 12.915864653610795 29.326723741493453 11.004481487047798 #
edge $-1 $739 1 $739 0 $437 $-1 forward 7 unknown #
vertex $-1 $438 $740 #
ellipse-curve $-1 17.566414137099827 29.653706968130763 8.7314172145264557 0 0.82903758062907751 0.55919289150049634 0.25 0 0 1 I I #
point $-1 17.816414137099827 30.48274454875984 9.2906101060269517 #
edge $-1 $741 1 $741 0 $441 $-1 forward 7 unknown #
vertex $-1 $442 $742 #
ellipse-curve $-1 24.542238362333364 29.653706968130763 8.7314172145264557 0 0.82903758062907751 0.55919289150049634 0.25 0 0 1 I I #
point $-1 24.792238362333364 30.48274454875984 9.2906101060269517 #
loop $-1 $-1 $453 $445 #
plane-surface $-1 0 31.638765356026223 0 0 -1 0 0 0 -1 forward_v I I I I #
coedge $-1 $621 $448 $450 $625 reversed $297 $-1 #
coedge $-1 $448 $620 $743 $744 reversed $297 $-1 #
coedge $-1 $456 $451 $448 $623 forward $446 $-1 #
edge $-1 $626 -30.375002664154522 $745 -28.062961049621752 $622 $746 forward 7 unknown #
coedge $-1 $450 $449 $629 $747 reversed $187 $-1 #
edge $-1 $748 -63.277530712052453 $626 -59.142925909890522 $620 $749 forward 7 unknown #
vertex $-1 $452 $750 #
straight-curve $-1 26.830876176816133 29.326723741493453 11.004481487047801 1 0 0 I I #
coedge $-1 $743 $453 $456 $633 reversed $618 $-1 #
coedge $-1 $453 $743 $624 $747 forward $618 $-1 #
vertex $-1 $454 $751 #
straight-curve $-1 45.523290757526482 31.638765356026227 71.550629293196806 0 0 1 I I #
straight-curve $-1 45.523290757526482 -3.7455800098578464 60.036189694708213 0 0.55919289150049634 -0.82903758062907751 I I #
edge $-1 $745 -61.800213949738051 $457 -45.523290757526482 $628 $752 forward 7 unknown #
point $-1 45.523290757526482 31.638765356026223 11.0044814870478 #
point $-1 45.523290757526482 29.326723741493453 11.004481487047798 #
edge $-1 $753 1 $753 0 $460 $-1 forward 7 unknown #
vertex $-1 $461 $754 #
ellipse-curve $-1 50.173840241015512 29.653706968130763 8.7314172145264557 0 0.82903758062907751 0.55919289150049634 0.25 0 0 1 I I #
point $-1 50.423840241015512 30.48274454875984 9.2906101060269517 #
edge $-1 $755 1 $755 0 $464 $-1 forward 7 unknown #
vertex $-1 $465 $756 #
ellipse-curve $-1 57.14966446624905 29.653706968130763 8.7314172145264557 0 0.82903758062907751 0.55919289150049634 0.25 0 0 1 I I #
point $-1 57.39966446624905 30.48274454875984 9.2906101060269517 #
loop $-1 $-1 $476 $468 #
plane-surface $-1 0 -31.638765356026223 0 0 1 0 0 0 1 forward_v I I I I #
coedge $-1 $647 $471 $473 $651 reversed $319 $-1 #
coedge $-1 $471 $646 $757 $758 reversed $319 $-1 #
coedge $-1 $479 $474 $471 $649 forward $469 $-1 #
edge $-1 $652 -33.607218791007639 $759 -25.713153196672582 $648 $760 forward 7 unknown #
coedge $-1 $473 $472 $655 $761 reversed $201 $-1 #
edge $-1 $762 -1.2809303926657532e-014 $652 9.5219636628573809 $646 $763 forward 7 unknown #
vertex $-1 $475 $764 #
straight-curve $-1 11.77343247273599 -23.744699761691166 11.0044814870478 -1 0 0 I I #
coedge $-1 $757 $476 $479 $659 reversed $644 $-1 #
coedge $-1 $476 $757 $650 $761 forward $644 $-1 #
vertex $-1 $477 $765 #
straight-curve $-1 40.787145039448319 -31.638765356026227 64.414448902044782 0 0 1 I I #
straight-curve $-1 40.787145039448319 -31.638765356026212 5.6798669104693147 0 -0.82903756765294845 -0.55919291073839883 I I #
edge $-1 $759 6.3065848514956429 $480 40.787145039448319 $654 $766 forward 7 unknown #
point $-1 40.787145039448319 -31.638765356026223 11.0044814870478 #
point $-1 40.787145039448319 -23.744699761691169 11.0044814870478 #
edge $-1 $767 1 $767 0 $483 $-1 forward 7 unknown #
vertex $-1 $484 $768 #
ellipse-curve $-1 16.158173476624981 -26.763109168210356 6.9654334313690773 0 -0.55919291073839883 0.82903756765294845 0.5 0 0 1 I I #
point $-1 16.658173476624981 -27.691732558858707 8.3421741987585651 #
edge $-1 $769 1 $769 0 $487 $-1 forward 7 unknown #
vertex $-1 $488 $770 #
ellipse-curve $-1 30.935556414318995 -26.763109168210356 6.9654334313690773 0 -0.55919291073839883 0.82903756765294845 0.5 0 0 1 I I #
point $-1 31.435556414318995 -27.691732558858707 8.3421741987585651 #
plane-surface $-1 74.272286141544839 0 0 -1 0 0 0 0 1 forward_v I I I I #
coedge $-1 $496 $494 $498 $675 reversed $341 $-1 #
edge $-1 $509 -11.0044814870478 $677 11.0044814870478 $508 $771 forward 7 unknown #
vertex $-1 $675 $772 #
straight-curve $-1 -74.272286141544839 -31.638765356026223 0 0 0 -1 I I #
edge $-1 $673 -31.638765356026223 $677 31.638765356026223 $671 $773 forward 7 unknown #
straight-curve $-1 0 -31.638765356026223 -11.0044814870478 -1 0 0 I I #
vertex $-1 $501 $774 #
straight-curve $-1 0 31.638765356026223 -11.0044814870478 1 0 0 I I #
point $-1 74.272286141544839 31.638765356026223 -11.0044814870478 #
point $-1 74.272286141544839 -31.638765356026223 -11.0044814870478 #
straight-curve $-1 -74.272286141544839 0 11.0044814870478 0 -1 0 I I #
point $-1 -74.272286141544839 31.638765356026223 11.0044814870478 #
point $-1 -74.272286141544839 -31.638765356026223 11.0044814870478 #
straight-curve $-1 74.272286141544839 -31.638765356026223 0 0 0 -1 I I #
straight-curve $-1 74.272286141544839 31.638765356026223 0 0 0 -1 I I #
plane-surface $-1 0 31.638765356026223 0 0 -1 0 0 0 -1 forward_v I I I I #
coedge $-1 $522 $521 $775 $776 forward $223 $-1 #
edge $-1 $525 64.77105974602739 $777 74.272286141544839 $524 $778 forward 7 unknown #
coedge $-1 $530 $529 $522 $690 reversed $531 $-1 #
edge $-1 $779 -74.272286141544839 $691 -64.77105974602739 $689 $780 forward 7 unknown #
vertex $-1 $537 $781 #
straight-curve $-1 -64.77105974602739 0 -11.0044814870478 0 -1 0 I I #
point $-1 -64.77105974602739 -31.638765356026223 -11.0044814870478 #
coedge $-1 $775 $527 $530 $697 forward $519 $-1 #
coedge $-1 $527 $775 $534 $699 reversed $519 $-1 #
straight-curve $-1 -74.272286141544839 0 -7.2338672883820552 0 1 0 I I #
edge $-1 $532 7.2338672883820552 $779 11.0044814870478 $530 $782 forward 7 unknown #
point $-1 -74.272286141544839 31.638765356026223 -7.2338672883820552 #
edge $-1 $535 7.2338672883820552 $777 11.0044814870478 $695 $783 forward 7 unknown #
point $-1 -74.272286141544839 -31.638765356026223 -7.2338672883820552 #
straight-curve $-1 -64.77105974602739 31.638765356026223 -4.5595871938574639 0 0 -1 I I #
edge $-1 $703 60.546147806149008 $706 63.973890568190704 $541 $784 forward 7 unknown #
vertex $-1 $555 $785 #
straight-curve $-1 -36.02206436200899 59.701726405647975 11.004481487047798 0 1 0 I I #
edge $-1 $706 13.941801382951603 $552 30.218724575163172 $551 $786 forward 7 unknown #
vertex $-1 $705 $787 #
straight-curve $-1 -36.02206436200899 -3.7455800098578464 60.036189694708213 0 -0.55919289150049634 0.82903758062907751 I I #
point $-1 -36.02206436200899 29.326723741493453 11.004481487047798 #
point $-1 -52.29898755422056 31.638765356026227 7.576738725006102 #
straight-curve $-1 0 31.638765356026223 11.0044814870478 -1 0 0 I I #
vertex $-1 $558 $788 #
point $-1 -47.398438070731544 29.653706968130763 8.7314172145264557 #
vertex $-1 $562 $789 #
point $-1 -40.422613845498006 29.653706968130763 8.7314172145264557 #
coedge $-1 $577 $576 $569 $716 forward $566 $-1 #
edge $-1 $717 60.546147806149008 $720 63.973890568190704 $715 $790 forward 7 unknown #
vertex $-1 $581 $791 #
straight-curve $-1 -3.4146382580933103 59.701726405647975 11.004481487047798 0 1 0 I I #
edge $-1 $720 -2.3619116690062381 $578 13.915011523205333 $577 $792 forward 7 unknown #
vertex $-1 $719 $793 #
straight-curve $-1 -3.4146382580933103 -3.7455800098578464 60.036189694708213 0 -0.55919289150049634 0.82903758062907751 I I #
point $-1 -3.4146382580933103 29.326723741493453 11.004481487047798 #
point $-1 -19.691561450304881 31.638765356026227 7.576738725006102 #
straight-curve $-1 0 31.638765356026223 11.0044814870478 -1 0 0 I I #
vertex $-1 $584 $794 #
point $-1 -14.791011966815859 29.653706968130763 8.7314172145264557 #
vertex $-1 $588 $795 #
point $-1 -7.8151877415823208 29.653706968130763 8.7314172145264557 #
coedge $-1 $603 $602 $595 $730 forward $592 $-1 #
edge $-1 $731 60.546147806149008 $734 63.973890568190704 $729 $796 forward 7 unknown #
vertex $-1 $607 $797 #
straight-curve $-1 29.192787845822366 59.701726405647975 11.004481487047798 0 1 0 I I #
edge $-1 $734 -18.665624720964075 $604 -2.3887015287525042 $603 $798 forward 7 unknown #
vertex $-1 $733 $799 #
straight-curve $-1 29.192787845822366 -3.7455800098578464 60.036189694708213 0 -0.55919289150049634 0.82903758062907751 I I #
point $-1 29.192787845822366 29.326723741493453 11.004481487047798 #
point $-1 12.915864653610795 31.638765356026227 7.576738725006102 #
straight-curve $-1 0 31.638765356026223 11.0044814870478 -1 0 0 I I #
vertex $-1 $610 $800 #
point $-1 17.816414137099827 29.653706968130763 8.7314172145264557 #
vertex $-1 $614 $801 #
point $-1 24.792238362333364 29.653706968130763 8.7314172145264557 #
coedge $-1 $629 $628 $621 $744 forward $618 $-1 #
edge $-1 $745 60.546147806149008 $748 63.973890568190704 $743 $802 forward 7 unknown #
vertex $-1 $633 $803 #
straight-curve $-1 61.800213949738051 59.701726405647975 11.004481487047798 0 1 0 I I #
edge $-1 $748 -34.969337772921918 $630 -18.692414580710349 $629 $804 forward 7 unknown #
vertex $-1 $747 $805 #
straight-curve $-1 61.800213949738051 -3.7455800098578464 60.036189694708213 0 -0.55919289150049634 0.82903758062907751 I I #
point $-1 61.800213949738051 29.326723741493453 11.004481487047798 #
point $-1 45.523290757526482 31.638765356026227 7.576738725006102 #
straight-curve $-1 0 31.638765356026223 11.0044814870478 -1 0 0 I I #
vertex $-1 $636 $806 #
point $-1 50.423840241015512 29.653706968130763 8.7314172145264557 #
vertex $-1 $640 $807 #
point $-1 57.39966446624905 29.653706968130763 8.7314172145264557 #
coedge $-1 $655 $654 $647 $758 forward $644 $-1 #
edge $-1 $759 53.409967414996984 $762 58.734581991575475 $757 $808 forward 7 unknown #
vertex $-1 $659 $809 #
straight-curve $-1 6.3065848514956429 -57.351918552698805 11.004481487047798 0 -1 0 I I #
edge $-1 $762 -5.4668476212403476 $656 29.013712566712329 $655 $810 forward 7 unknown #
vertex $-1 $761 $811 #
straight-curve $-1 6.3065848514956429 -31.638765356026212 5.6798669104693147 0 0.82903756765294845 0.55919291073839883 I I #
point $-1 6.3065848514956429 -23.744699761691169 11.0044814870478 #
point $-1 40.787145039448319 -31.638765356026223 5.6798669104693076 #
straight-curve $-1 0 -31.638765356026223 11.0044814870478 1 0 0 I I #
vertex $-1 $662 $812 #
point $-1 16.658173476624981 -26.763109168210356 6.9654334313690773 #
vertex $-1 $666 $813 #
point $-1 31.435556414318995 -26.763109168210356 6.9654334313690773 #
straight-curve $-1 -74.272286141544839 31.638765356026223 0 0 0 -1 I I #
point $-1 -74.272286141544839 -31.638765356026223 -11.0044814870478 #
straight-curve $-1 -74.272286141544839 0 -11.0044814870478 0 1 0 I I #
point $-1 -74.272286141544839 31.638765356026223 -11.0044814870478 #
coedge $-1 $695 $694 $687 $776 reversed $519 $-1 #
edge $-1 $777 -31.638765356026223 $779 31.638765356026223 $775 $814 forward 7 unknown #
vertex $-1 $776 $815 #
straight-curve $-1 0 -31.638765356026223 -11.0044814870478 -1 0 0 I I #
vertex $-1 $690 $816 #
straight-curve $-1 0 31.638765356026223 -11.0044814870478 1 0 0 I I #
point $-1 -64.77105974602739 31.638765356026223 -11.0044814870478 #
straight-curve $-1 -74.272286141544839 31.638765356026223 0 0 0 -1 I I #
straight-curve $-1 -74.272286141544839 -31.638765356026223 0 0 0 -1 I I #
straight-curve $-1 -36.02206436200899 31.638765356026227 71.550629293196806 0 0 -1 I I #
point $-1 -36.02206436200899 31.638765356026223 11.0044814870478 #
straight-curve $-1 -22.080262979057387 31.638765356026223 7.576738725006102 -1 0 0 I I #
point $-1 -36.02206436200899 31.638765356026227 7.576738725006102 #
point $-1 -47.648438070731544 29.44644757297349 8.5916189916513304 #
point $-1 -40.672613845498006 29.44644757297349 8.5916189916513304 #
straight-curve $-1 -3.4146382580933103 31.638765356026227 71.550629293196806 0 0 -1 I I #
point $-1 -3.4146382580933103 31.638765356026223 11.0044814870478 #
straight-curve $-1 -5.7765499270995484 31.638765356026223 7.576738725006102 -1 0 0 I I #
point $-1 -3.4146382580933103 31.638765356026227 7.576738725006102 #
point $-1 -15.041011966815859 29.44644757297349 8.5916189916513304 #
point $-1 -8.0651877415823208 29.44644757297349 8.5916189916513304 #
straight-curve $-1 29.192787845822366 31.638765356026227 71.550629293196806 0 0 -1 I I #
point $-1 29.192787845822366 31.638765356026223 11.0044814870478 #
straight-curve $-1 10.527163124858291 31.638765356026223 7.576738725006102 -1 0 0 I I #
point $-1 29.192787845822366 31.638765356026227 7.576738725006102 #
point $-1 17.566414137099827 29.44644757297349 8.5916189916513304 #
point $-1 24.542238362333364 29.44644757297349 8.5916189916513304 #
straight-curve $-1 61.800213949738051 31.638765356026227 71.550629293196806 0 0 -1 I I #
point $-1 61.800213949738051 31.638765356026223 11.0044814870478 #
straight-curve $-1 26.830876176816133 31.638765356026223 7.576738725006102 -1 0 0 I I #
point $-1 61.800213949738051 31.638765356026227 7.576738725006102 #
point $-1 50.173840241015512 29.44644757297349 8.5916189916513304 #
point $-1 57.14966446624905 29.44644757297349 8.5916189916513304 #
straight-curve $-1 6.3065848514956429 -31.638765356026227 64.414448902044782 0 0 -1 I I #
point $-1 6.3065848514956429 -31.638765356026223 11.0044814870478 #
straight-curve $-1 11.77343247273599 -31.638765356026223 5.6798669104693085 1 0 0 I I #
point $-1 6.3065848514956429 -31.638765356026223 5.6798669104693076 #
point $-1 16.158173476624981 -26.483512712841154 6.5509146475426023 #
point $-1 30.935556414318995 -26.483512712841154 6.5509146475426023 #
straight-curve $-1 -74.272286141544839 0 -11.0044814870478 0 1 0 I I #
point $-1 -74.272286141544839 -31.638765356026223 -11.0044814870478 #
point $-1 -74.272286141544839 31.638765356026223 -11.0044814870478 #
End-of-ACIS-data 