500 0 7 0           
7 Unknown 11 ACIS 5.0 NT 24 Fri Mar 26 02:55:50 1999 
-1 9.9999999999999995e-007 1e-010 
body $-1 $7 $-1 $8 #
body $-1 $9 $-1 $10 #
body $-1 $11 $-1 $12 #
body $-1 $13 $-1 $14 #
body $-1 $15 $-1 $16 #
body $-1 $17 $-1 $18 #
body $-1 $19 $-1 $20 #
lump $-1 $-1 $21 $0 #
transform $-1 1 0 0 0 1 0 0 0 1 65.705130161442924 44.599760857716028 18.969088022018301 1 rotate no_reflect no_shear #
lump $-1 $-1 $22 $1 #
transform $-1 1 0 0 0 1 0 0 0 1 65.705130161442924 44.599760857716028 18.969088022018301 1 rotate no_reflect no_shear #
lump $-1 $-1 $23 $2 #
transform $-1 1 0 0 0 1 0 0 0 1 65.705130161442924 44.599760857716028 18.969088022018301 1 rotate no_reflect no_shear #
lump $-1 $-1 $24 $3 #
transform $-1 1 0 0 0 1 0 0 0 1 65.705130161442924 44.599760857716028 18.969088022018301 1 rotate no_reflect no_shear #
lump $-1 $-1 $25 $4 #
transform $-1 1 0 0 0 1 0 0 0 1 65.705130161442924 44.599760857716028 18.969088022018301 1 rotate no_reflect no_shear #
lump $-1 $-1 $26 $5 #
transform $-1 1 0 0 0 1 0 0 0 1 65.705130161442924 44.599760857716028 18.969088022018301 1 rotate no_reflect no_shear #
lump $-1 $-1 $27 $6 #
transform $-1 1 0 0 0 1 0 0 0 1 65.705130161442924 44.599760857716028 18.969088022018301 1 rotate no_reflect no_shear #
shell $-1 $-1 $-1 $28 $-1 $7 #
shell $-1 $-1 $-1 $29 $-1 $9 #
shell $-1 $-1 $-1 $30 $-1 $11 #
shell $-1 $-1 $-1 $31 $-1 $13 #
shell $-1 $-1 $-1 $32 $-1 $15 #
shell $-1 $-1 $-1 $33 $-1 $17 #
shell $-1 $-1 $-1 $34 $-1 $19 #
face $-1 $35 $36 $21 $-1 $37 forward single #
face $-1 $38 $39 $22 $-1 $40 forward single #
face $-1 $41 $42 $23 $-1 $43 forward single #
face $-1 $44 $45 $24 $-1 $46 reversed single #
face $-1 $47 $48 $25 $-1 $49 forward single #
face $-1 $50 $51 $26 $-1 $52 reversed single #
face $-1 $53 $54 $27 $-1 $55 forward single #
face $-1 $56 $57 $21 $-1 $58 reversed single #
loop $-1 $-1 $59 $28 #
plane-surface $-1 0 0 18.969088022018301 0 0 1 1 0 0 forward_v I I I I #
face $-1 $60 $61 $22 $-1 $62 reversed single #
loop $-1 $-1 $63 $29 #
plane-surface $-1 0 -34.485544085982092 -14.105216329663389 0 0 1 1 0 0 forward_v I I I I #
face $-1 $64 $65 $23 $-1 $66 reversed single #
loop $-1 $-1 $67 $30 #
plane-surface $-1 0 44.599760857716028 0 0 -1 0 0 0 -1 forward_v I I I I #
face $-1 $68 $69 $24 $-1 $70 reversed single #
loop $-1 $-1 $71 $31 #
plane-surface $-1 104.34389311852101 23.612517480704021 186.26130842490636 0 -1 0 -0.83867057594974714 0 -0.54463902268945019 forward_v I I I I #
face $-1 $72 $73 $25 $-1 $74 forward single #
loop $-1 $75 $76 $32 #
cone-surface $-1 59.658215878607578 17.797436807912462 10.852942691030469 -0.83867057594974714 0 -0.54463902268945019 0.54463902268945019 0 -0.83867057594974714 1 I I 0 1 1 forward I I I I #
face $-1 $77 $78 $26 $-1 $79 reversed single #
loop $-1 $-1 $80 $33 #
plane-surface $-1 -175.91504887214381 11.982356135120902 76.051389714205513 0 1 0 -0.83867057594974714 0 0.54463902268945019 forward_v I I I I #
face $-1 $81 $82 $27 $-1 $83 forward single #
loop $-1 $84 $85 $34 #
cone-surface $-1 -59.658215878607585 17.797436807912462 10.852942691030476 0.83867057594974714 0 -0.54463902268945019 0.54463902268945019 0 0.83867057594974714 1 I I 0 1 1 forward I I I I #
face $-1 $86 $87 $21 $-1 $88 reversed single #
loop $-1 $-1 $89 $35 #
plane-surface $-1 0 0 -18.969088022018301 0 0 1 1 0 0 forward_v I I I I #
coedge $-1 $90 $91 $92 $93 forward $36 $-1 #
face $-1 $94 $95 $22 $-1 $96 reversed single #
loop $-1 $-1 $97 $38 #
plane-surface $-1 0 -24.371327314248155 -16.537152175840845 0 -1 0 0 0 -1 forward_v I I I I #
coedge $-1 $98 $99 $100 $101 reversed $39 $-1 #
face $-1 $102 $103 $23 $-1 $104 forward single #
loop $-1 $-1 $105 $41 #
plane-surface $-1 -65.705130161442924 0 0 1 0 0 0 0 -1 forward_v I I I I #
coedge $-1 $106 $107 $108 $109 forward $42 $-1 #
face $-1 $110 $111 $24 $-1 $112 reversed single #
loop $-1 $-1 $113 $44 #
plane-surface $-1 -5.8660255921798665 17.797436807912462 114.69015267128358 0.83867057594974714 0 0.54463902268945019 0.54463902268945019 0 -0.83867057594974714 forward_v I I I I #
coedge $-1 $114 $115 $116 $117 reversed $45 $-1 #
face $-1 $-1 $118 $25 $-1 $119 forward single #
loop $-1 $120 $121 $47 #
cone-surface $-1 57.896552078541745 17.797436807912462 9.7089048794157087 -0.83867057594974714 0 -0.54463902268945019 0.2723195113447251 0 -0.41933528797487357 1 I I -0.70710678118654746 0.70710678118654746 0.5 forward I I I I #
loop $-1 $-1 $122 $32 #
coedge $-1 $76 $76 $123 $124 reversed $48 $-1 #
face $-1 $125 $126 $26 $-1 $127 reversed single #
loop $-1 $-1 $128 $50 #
plane-surface $-1 -65.705130161442938 17.797436807912462 4.480233960582737 -0.83867057594974714 0 0.54463902268945019 0.54463902268945019 0 0.83867057594974714 forward_v I I I I #
coedge $-1 $129 $130 $131 $132 reversed $51 $-1 #
face $-1 $-1 $133 $27 $-1 $134 forward single #
loop $-1 $135 $136 $53 #
cone-surface $-1 -57.896552078541752 17.797436807912462 9.7089048794157158 0.83867057594974714 0 -0.54463902268945019 0.2723195113447251 0 0.41933528797487357 1 I I -0.70710678118654746 0.70710678118654746 0.5 forward I I I I #
loop $-1 $-1 $137 $34 #
coedge $-1 $85 $85 $138 $139 reversed $54 $-1 #
face $-1 $140 $141 $21 $-1 $142 reversed single #
loop $-1 $-1 $143 $56 #
plane-surface $-1 0 -44.599760857716028 0 0 1 0 0 0 1 forward_v I I I I #
coedge $-1 $144 $145 $146 $147 forward $57 $-1 #
coedge $-1 $148 $59 $149 $150 forward $36 $-1 #
coedge $-1 $59 $148 $151 $152 forward $36 $-1 #
coedge $-1 $153 $154 $59 $93 reversed $155 $-1 #
edge $-1 $156 -44.599760857716028 $157 44.599760857716028 $92 $158 forward 7 unknown #
face $-1 $159 $160 $22 $-1 $161 reversed single #
loop $-1 $-1 $162 $60 #
plane-surface $-1 0 0 -18.969088022018301 0 0 1 1 0 0 forward_v I I I I #
coedge $-1 $163 $164 $165 $166 reversed $61 $-1 #
coedge $-1 $167 $63 $164 $168 forward $39 $-1 #
coedge $-1 $63 $167 $169 $170 reversed $39 $-1 #
coedge $-1 $171 $165 $63 $101 forward $160 $-1 #
edge $-1 $172 7.1285552712571096 $173 27.356988814724982 $100 $174 forward 7 unknown #
face $-1 $175 $176 $23 $-1 $177 reversed single #
loop $-1 $-1 $178 $64 #
plane-surface $-1 0 55.093382546222024 12.88009309303812 0 0 1 1 0 0 forward_v I I I I #
coedge $-1 $179 $180 $107 $181 forward $65 $-1 #
coedge $-1 $182 $67 $183 $184 reversed $42 $-1 #
coedge $-1 $67 $182 $105 $181 reversed $42 $-1 #
coedge $-1 $185 $186 $67 $109 reversed $176 $-1 #
edge $-1 $187 -65.705130161442924 $188 65.705130161442924 $108 $189 forward 7 unknown #
face $-1 $190 $191 $24 $-1 $192 forward single #
loop $-1 $-1 $193 $68 #
plane-surface $-1 104.34389311852101 11.982356135120902 186.26130842490636 0 1 0 0.83867057594974714 0 0.54463902268945019 forward_v I I I I #
coedge $-1 $194 $195 $196 $197 reversed $69 $-1 #
coedge $-1 $115 $71 $198 $199 reversed $45 $-1 #
coedge $-1 $71 $114 $194 $200 reversed $45 $-1 #
coedge $-1 $196 $201 $71 $117 forward $191 $-1 #
edge $-1 $202 -13.533183602182419 $203 -4.1240120606936443 $116 $204 forward 7 unknown #
loop $-1 $-1 $123 $72 #
plane-surface $-1 -5.8660255921798665 17.797436807912462 114.69015267128358 0.83867057594974714 0 0.54463902268945019 0.54463902268945019 0 -0.83867057594974714 forward_v I I I I #
loop $-1 $-1 $205 $47 #
coedge $-1 $121 $121 $122 $206 reversed $73 $-1 #
coedge $-1 $122 $122 $121 $206 forward $75 $-1 #
coedge $-1 $123 $123 $76 $124 forward $118 $-1 #
edge $-1 $207 0 $207 6.2831853071796004 $123 $208 forward 7 unknown #
face $-1 $209 $210 $26 $-1 $211 reversed single #
loop $-1 $-1 $212 $77 #
plane-surface $-1 -175.91504887214381 23.612517480704021 76.051389714205513 0 -1 0 0.83867057594974714 0 -0.54463902268945019 forward_v I I I I #
coedge $-1 $213 $214 $215 $216 reversed $78 $-1 #
coedge $-1 $130 $80 $217 $218 reversed $51 $-1 #
coedge $-1 $80 $129 $213 $219 reversed $51 $-1 #
coedge $-1 $215 $220 $80 $132 forward $221 $-1 #
edge $-1 $222 22.252394274628983 $223 31.661565816117715 $131 $224 forward 7 unknown #
loop $-1 $-1 $138 $81 #
plane-surface $-1 -65.705130161442938 17.797436807912462 4.480233960582737 -0.83867057594974714 0 0.54463902268945019 0.54463902268945019 0 0.83867057594974714 forward_v I I I I #
loop $-1 $-1 $225 $53 #
coedge $-1 $136 $136 $137 $226 reversed $82 $-1 #
coedge $-1 $137 $137 $136 $226 forward $84 $-1 #
coedge $-1 $138 $138 $85 $139 forward $133 $-1 #
edge $-1 $227 0 $227 6.2831853071796004 $138 $228 forward 7 unknown #
face $-1 $229 $230 $21 $-1 $231 reversed single #
loop $-1 $-1 $232 $86 #
plane-surface $-1 -65.705130161442924 0 0 1 0 0 0 0 -1 forward_v I I I I #
coedge $-1 $233 $151 $234 $235 forward $87 $-1 #
coedge $-1 $236 $89 $233 $237 forward $57 $-1 #
coedge $-1 $89 $236 $238 $239 forward $57 $-1 #
coedge $-1 $154 $153 $89 $147 reversed $155 $-1 #
edge $-1 $240 -44.599760857716028 $241 44.599760857716028 $146 $242 forward 7 unknown #
coedge $-1 $91 $90 $243 $244 forward $36 $-1 #
coedge $-1 $245 $246 $90 $150 reversed $230 $-1 #
edge $-1 $157 -65.705130161442924 $247 65.705130161442924 $149 $248 forward 7 unknown #
coedge $-1 $143 $249 $91 $152 reversed $87 $-1 #
edge $-1 $250 -65.705130161442924 $156 65.705130161442924 $151 $251 forward 7 unknown #
coedge $-1 $146 $92 $249 $252 forward $155 $-1 #
coedge $-1 $92 $146 $245 $253 reversed $155 $-1 #
loop $-1 $-1 $153 $229 #
vertex $-1 $93 $254 #
vertex $-1 $93 $255 #
straight-curve $-1 65.705130161442924 0 18.969088022018301 0 1 0 I I #
face $-1 $256 $257 $22 $-1 $258 reversed single #
loop $-1 $-1 $165 $94 #
plane-surface $-1 65.705130161442924 0 0 -1 0 0 0 0 1 forward_v I I I I #
coedge $-1 $259 $260 $163 $261 forward $95 $-1 #
coedge $-1 $262 $97 $162 $261 reversed $61 $-1 #
coedge $-1 $97 $262 $98 $168 reversed $61 $-1 #
coedge $-1 $100 $263 $97 $166 forward $160 $-1 #
edge $-1 $264 -10.700511934097879 $172 -5.8366402417429661 $165 $265 forward 7 unknown #
coedge $-1 $99 $98 $266 $267 reversed $39 $-1 #
edge $-1 $172 -65.705130161442924 $268 65.705130161442924 $164 $269 forward 7 unknown #
coedge $-1 $270 $271 $99 $170 forward $257 $-1 #
edge $-1 $173 -65.705130161442924 $272 65.705130161442924 $169 $273 forward 7 unknown #
coedge $-1 $263 $100 $271 $274 forward $160 $-1 #
vertex $-1 $101 $275 #
vertex $-1 $274 $276 #
straight-curve $-1 65.705130161442924 -17.242772042991046 -14.105216329663389 0 -1 0 I I #
face $-1 $277 $278 $23 $-1 $279 reversed single #
loop $-1 $-1 $186 $102 #
plane-surface $-1 0 55.093382546222024 1.7408555094304745 0 0 1 1 0 0 forward_v I I I I #
coedge $-1 $280 $281 $282 $283 forward $103 $-1 #
coedge $-1 $284 $105 $285 $286 reversed $65 $-1 #
coedge $-1 $105 $284 $185 $287 reversed $65 $-1 #
edge $-1 $187 1.7408555094304745 $288 12.88009309303812 $105 $289 forward 7 unknown #
coedge $-1 $107 $106 $281 $290 forward $42 $-1 #
coedge $-1 $291 $282 $106 $184 forward $292 $-1 #
edge $-1 $293 -12.88009309303812 $188 -1.7408555094304745 $183 $294 forward 7 unknown #
coedge $-1 $295 $108 $180 $287 forward $176 $-1 #
coedge $-1 $108 $295 $291 $296 forward $176 $-1 #
vertex $-1 $181 $297 #
vertex $-1 $184 $298 #
straight-curve $-1 0 44.599760857716028 1.7408555094304745 1 0 0 I I #
face $-1 $-1 $299 $24 $-1 $300 reversed single #
loop $-1 $-1 $116 $110 #
plane-surface $-1 0 0 18.969088022018301 0 0 1 1 0 0 forward_v I I I I #
coedge $-1 $301 $302 $303 $304 reversed $111 $-1 #
coedge $-1 $305 $113 $115 $200 forward $69 $-1 #
coedge $-1 $113 $305 $301 $306 forward $69 $-1 #
coedge $-1 $303 $116 $113 $197 forward $191 $-1 #
edge $-1 $203 -14.71379907674779 $307 -3.0836377311646714 $196 $308 forward 7 unknown #
coedge $-1 $309 $310 $114 $199 forward $299 $-1 #
edge $-1 $311 -88.6504202518705 $202 -74.161566190434883 $198 $312 forward 7 unknown #
edge $-1 $203 114.13428274965601 $311 131.41026032288588 $115 $313 forward 7 unknown #
coedge $-1 $116 $303 $309 $314 forward $191 $-1 #
vertex $-1 $117 $315 #
vertex $-1 $117 $316 #
straight-curve $-1 52.171946559260505 23.612517480704021 18.969088022018298 -1 0 0 I I #
coedge $-1 $205 $205 $-1 $317 reversed $120 $-1 #
edge $-1 $318 0 $318 6.2831853071796004 $121 $319 forward 7 unknown #
vertex $-1 $124 $320 #
ellipse-curve $-1 61.000544390698536 17.797436807912462 11.724660991300501 0.83867057594974714 0 0.54463902268945019 0.54463902268945019 0 -0.83867057594974714 1 I I #
face $-1 $-1 $221 $26 $-1 $321 forward single #
loop $-1 $-1 $322 $125 #
plane-surface $-1 -65.705130161442924 0 0 1 0 0 0 0 -1 forward_v I I I I #
coedge $-1 $323 $324 $325 $326 reversed $126 $-1 #
coedge $-1 $327 $128 $130 $219 forward $78 $-1 #
coedge $-1 $128 $327 $323 $328 forward $78 $-1 #
coedge $-1 $325 $131 $128 $216 forward $221 $-1 #
edge $-1 $223 3.0836377311646714 $329 14.71379907674779 $215 $330 forward 7 unknown #
coedge $-1 $331 $332 $129 $218 forward $210 $-1 #
edge $-1 $333 -33.545460896519998 $222 -19.056606835084455 $217 $334 forward 7 unknown #
edge $-1 $223 -17.27597757322982 $333 -2.636201369357039e-014 $130 $335 forward 7 unknown #
coedge $-1 $131 $325 $331 $336 forward $221 $-1 #
loop $-1 $-1 $325 $209 #
vertex $-1 $218 $337 #
vertex $-1 $132 $338 #
straight-curve $-1 -87.957524436071907 11.982356135120902 18.969088022018301 1 0 0 I I #
coedge $-1 $225 $225 $-1 $339 reversed $135 $-1 #
edge $-1 $340 0 $340 6.2831853071796004 $136 $341 forward 7 unknown #
vertex $-1 $139 $342 #
ellipse-curve $-1 -61.000544390698565 17.797436807912462 11.724660991300523 -0.83867057594974714 0 0.54463902268945019 0.54463902268945019 0 0.83867057594974714 1 I I #
face $-1 $-1 $155 $21 $-1 $343 reversed single #
loop $-1 $-1 $245 $140 #
plane-surface $-1 0 44.599760857716028 0 0 -1 0 0 0 -1 forward_v I I I I #
coedge $-1 $344 $243 $246 $345 forward $141 $-1 #
coedge $-1 $249 $143 $144 $237 reversed $87 $-1 #
coedge $-1 $243 $344 $143 $235 reversed $141 $-1 #
edge $-1 $250 -18.969088022018301 $346 18.969088022018301 $234 $347 forward 7 unknown #
coedge $-1 $145 $144 $344 $348 forward $57 $-1 #
edge $-1 $241 -65.705130161442924 $346 65.705130161442924 $233 $349 forward 7 unknown #
coedge $-1 $246 $245 $145 $239 reversed $230 $-1 #
edge $-1 $350 -65.705130161442924 $240 65.705130161442924 $238 $351 forward 7 unknown #
vertex $-1 $147 $352 #
vertex $-1 $252 $353 #
straight-curve $-1 65.705130161442924 0 -18.969088022018301 0 -1 0 I I #
coedge $-1 $232 $234 $148 $244 reversed $141 $-1 #
edge $-1 $247 -44.599760857716028 $250 44.599760857716028 $243 $354 forward 7 unknown #
coedge $-1 $238 $149 $154 $253 forward $230 $-1 #
coedge $-1 $149 $238 $232 $345 reversed $230 $-1 #
vertex $-1 $150 $355 #
straight-curve $-1 0 44.599760857716028 18.969088022018301 -1 0 0 I I #
coedge $-1 $151 $233 $153 $252 reversed $87 $-1 #
vertex $-1 $244 $356 #
straight-curve $-1 0 -44.599760857716028 18.969088022018301 1 0 0 I I #
edge $-1 $156 -18.969088022018301 $241 18.969088022018301 $153 $357 forward 7 unknown #
edge $-1 $157 -18.969088022018301 $240 18.969088022018301 $154 $358 forward 7 unknown #
point $-1 65.705130161442924 -44.599760857716028 18.969088022018301 #
point $-1 65.705130161442924 44.599760857716028 18.969088022018301 #
face $-1 $-1 $359 $22 $-1 $360 reversed single #
loop $-1 $-1 $169 $159 #
plane-surface $-1 0 -44.599760857716028 0 0 1 0 0 0 1 forward_v I I I I #
coedge $-1 $361 $162 $263 $362 forward $95 $-1 #
coedge $-1 $162 $361 $363 $364 forward $95 $-1 #
edge $-1 $365 -65.705130161442924 $264 65.705130161442924 $162 $366 forward 7 unknown #
coedge $-1 $164 $163 $367 $368 reversed $61 $-1 #
coedge $-1 $165 $171 $259 $362 reversed $160 $-1 #
vertex $-1 $362 $369 #
straight-curve $-1 65.705130161442924 -24.371327314248155 -8.2685760879204224 0 0 1 I I #
coedge $-1 $367 $370 $167 $267 forward $359 $-1 #
edge $-1 $272 -27.356988814724982 $268 -7.1285552712571096 $266 $371 forward 7 unknown #
vertex $-1 $267 $372 #
straight-curve $-1 0 -24.371327314248155 -14.105216329663389 -1 0 0 I I #
coedge $-1 $373 $169 $370 $374 forward $257 $-1 #
coedge $-1 $169 $373 $171 $274 reversed $257 $-1 #
vertex $-1 $374 $375 #
straight-curve $-1 0 -44.599760857716028 -14.105216329663389 -1 0 0 I I #
edge $-1 $173 14.105216329663389 $376 18.969088022018301 $171 $377 forward 7 unknown #
point $-1 65.705130161442924 -24.371327314248155 -14.105216329663389 #
point $-1 65.705130161442924 -44.599760857716028 -14.105216329663389 #
face $-1 $-1 $292 $23 $-1 $378 reversed single #
loop $-1 $-1 $379 $175 #
plane-surface $-1 0 65.587004234728028 7.3104743012342972 0 -1 0 0 0 -1 forward_v I I I I #
coedge $-1 $285 $178 $380 $381 forward $103 $-1 #
coedge $-1 $178 $285 $182 $290 reversed $103 $-1 #
coedge $-1 $183 $382 $178 $283 reversed $292 $-1 #
edge $-1 $293 -10.493621688506003 $383 10.493621688506003 $282 $384 forward 7 unknown #
coedge $-1 $180 $179 $385 $386 forward $65 $-1 #
coedge $-1 $281 $280 $179 $286 forward $103 $-1 #
edge $-1 $387 -10.493621688506003 $288 10.493621688506003 $179 $388 forward 7 unknown #
edge $-1 $187 -10.493621688506003 $389 10.493621688506003 $180 $390 forward 7 unknown #
vertex $-1 $286 $391 #
straight-curve $-1 -65.705130161442924 44.599760857716028 0 0 0 1 I I #
edge $-1 $293 -65.705130161442924 $288 65.705130161442924 $281 $392 forward 7 unknown #
coedge $-1 $382 $183 $186 $296 reversed $292 $-1 #
loop $-1 $-1 $183 $277 #
vertex $-1 $184 $393 #
straight-curve $-1 65.705130161442924 44.599760857716028 0 0 0 -1 I I #
coedge $-1 $186 $185 $394 $395 forward $176 $-1 #
edge $-1 $396 -10.493621688506003 $188 10.493621688506003 $291 $397 forward 7 unknown #
point $-1 -65.705130161442924 44.599760857716021 1.7408555094304745 #
point $-1 65.705130161442924 44.599760857716021 1.7408555094304745 #
loop $-1 $-1 $198 $190 #
plane-surface $-1 65.705130161442924 0 0 -1 0 0 0 0 1 forward_v I I I I #
coedge $-1 $302 $193 $195 $306 reversed $111 $-1 #
coedge $-1 $193 $301 $398 $399 reversed $111 $-1 #
coedge $-1 $201 $196 $193 $304 forward $191 $-1 #
edge $-1 $307 4.1240120606936443 $400 13.533183602182419 $303 $401 forward 7 unknown #
coedge $-1 $195 $194 $310 $402 reversed $69 $-1 #
edge $-1 $403 -131.41026032288588 $307 -114.13428274965601 $301 $404 forward 7 unknown #
vertex $-1 $197 $405 #
straight-curve $-1 56.295958619954163 8.8987184039562308 18.969088022018298 0 -1 0 I I #
coedge $-1 $398 $198 $201 $314 reversed $299 $-1 #
coedge $-1 $198 $398 $305 $402 forward $299 $-1 #
vertex $-1 $199 $406 #
straight-curve $-1 65.705130161442924 23.612517480704021 93.13065421245318 0 0 1 I I #
straight-curve $-1 -5.8660255921798665 23.612517480704021 114.69015267128358 0.54463902268945019 0 -0.83867057594974714 I I #
edge $-1 $400 11.982356135120902 $202 23.612517480704021 $309 $407 forward 7 unknown #
point $-1 65.705130161442924 23.612517480704021 18.969088022018301 #
point $-1 56.295958619954149 23.612517480704021 18.969088022018298 #
edge $-1 $408 1 $408 0 $205 $-1 forward 7 unknown #
vertex $-1 $206 $409 #
ellipse-curve $-1 58.31588736651662 17.797436807912462 9.981224390760433 0.83867057594974714 0 0.54463902268945019 0.54463902268945019 0 -0.83867057594974714 1 I I #
point $-1 61.545183413387988 17.797436807912462 10.885990415350756 #
plane-surface $-1 0 0 18.969088022018301 0 0 1 1 0 0 forward_v I I I I #
coedge $-1 $332 $331 $324 $410 forward $210 $-1 #
coedge $-1 $324 $212 $214 $328 reversed $126 $-1 #
coedge $-1 $212 $323 $322 $410 reversed $126 $-1 #
coedge $-1 $220 $215 $212 $326 forward $221 $-1 #
edge $-1 $329 -31.661565816117715 $411 -22.252394274628983 $325 $412 forward 7 unknown #
coedge $-1 $214 $213 $332 $413 reversed $78 $-1 #
edge $-1 $414 2.636201369357039e-014 $329 17.27597757322982 $323 $415 forward 7 unknown #
vertex $-1 $216 $416 #
straight-curve $-1 -56.295958619954192 8.8987184039562308 18.969088022018301 0 1 0 I I #
coedge $-1 $322 $217 $220 $336 reversed $210 $-1 #
coedge $-1 $217 $322 $327 $413 forward $210 $-1 #
vertex $-1 $218 $417 #
straight-curve $-1 -65.705130161442924 11.982356135120902 38.025694857102756 0 0 1 I I #
straight-curve $-1 -65.705130161442938 11.982356135120902 4.480233960582737 -0.54463902268945019 0 -0.83867057594974714 I I #
edge $-1 $411 -23.612517480704021 $222 -11.982356135120902 $331 $418 forward 7 unknown #
point $-1 -65.705130161442924 11.982356135120902 18.969088022018301 #
point $-1 -56.295958619954192 11.982356135120902 18.969088022018305 #
edge $-1 $419 1 $419 0 $225 $-1 forward 7 unknown #
vertex $-1 $226 $420 #
ellipse-curve $-1 -58.315887366516627 17.797436807912462 9.9812243907604401 -0.83867057594974714 0 0.54463902268945019 0.54463902268945019 0 0.83867057594974714 1 I I #
point $-1 -60.455905368009098 17.797436807912462 12.563331567250257 #
plane-surface $-1 65.705130161442924 0 0 -1 0 0 0 0 1 forward_v I I I I #
coedge $-1 $234 $232 $236 $348 reversed $141 $-1 #
edge $-1 $247 -18.969088022018301 $350 18.969088022018301 $246 $421 forward 7 unknown #
vertex $-1 $348 $422 #
straight-curve $-1 -65.705130161442924 -44.599760857716028 0 0 0 -1 I I #
edge $-1 $346 -44.599760857716028 $350 44.599760857716028 $344 $423 forward 7 unknown #
straight-curve $-1 0 -44.599760857716028 -18.969088022018301 -1 0 0 I I #
vertex $-1 $239 $424 #
straight-curve $-1 0 44.599760857716028 -18.969088022018301 1 0 0 I I #
point $-1 65.705130161442924 44.599760857716028 -18.969088022018301 #
point $-1 65.705130161442924 -44.599760857716028 -18.969088022018301 #
straight-curve $-1 -65.705130161442924 0 18.969088022018301 0 -1 0 I I #
point $-1 -65.705130161442924 44.599760857716028 18.969088022018301 #
point $-1 -65.705130161442924 -44.599760857716028 18.969088022018301 #
straight-curve $-1 65.705130161442924 -44.599760857716028 0 0 0 -1 I I #
straight-curve $-1 65.705130161442924 44.599760857716028 0 0 0 -1 I I #
loop $-1 $-1 $367 $256 #
plane-surface $-1 -65.705130161442924 0 0 1 0 0 0 0 -1 forward_v I I I I #
coedge $-1 $260 $259 $373 $425 forward $95 $-1 #
edge $-1 $264 24.371327314248155 $376 44.599760857716028 $263 $426 forward 7 unknown #
coedge $-1 $370 $367 $260 $364 reversed $359 $-1 #
edge $-1 $427 -44.599760857716028 $365 -24.371327314248155 $363 $428 forward 7 unknown #
vertex $-1 $368 $429 #
straight-curve $-1 0 -24.371327314248155 -18.969088022018301 1 0 0 I I #
coedge $-1 $363 $266 $262 $368 forward $359 $-1 #
edge $-1 $268 5.8366402417429661 $365 10.700511934097879 $367 $430 forward 7 unknown #
point $-1 65.705130161442924 -24.371327314248155 -18.969088022018301 #
coedge $-1 $266 $363 $270 $374 reversed $359 $-1 #
straight-curve $-1 -65.705130161442924 -17.242772042991046 -14.105216329663389 0 1 0 I I #
point $-1 -65.705130161442924 -24.371327314248155 -14.105216329663389 #
coedge $-1 $271 $270 $361 $425 reversed $257 $-1 #
edge $-1 $272 14.105216329663389 $427 18.969088022018301 $370 $431 forward 7 unknown #
point $-1 -65.705130161442924 -44.599760857716028 -14.105216329663389 #
vertex $-1 $274 $432 #
straight-curve $-1 65.705130161442924 -44.599760857716028 0 0 0 -1 I I #
plane-surface $-1 65.705130161442924 0 0 -1 0 0 0 0 1 forward_v I I I I #
coedge $-1 $394 $380 $382 $433 forward $278 $-1 #
coedge $-1 $379 $385 $280 $381 reversed $278 $-1 #
edge $-1 $383 -65.705130161442924 $387 65.705130161442924 $380 $434 forward 7 unknown #
coedge $-1 $282 $291 $379 $433 reversed $292 $-1 #
vertex $-1 $283 $435 #
straight-curve $-1 65.705130161442924 55.093382546222024 12.88009309303812 0 1 0 I I #
coedge $-1 $380 $394 $284 $386 reversed $278 $-1 #
edge $-1 $387 -5.5696187918038227 $389 5.5696187918038227 $385 $436 forward 7 unknown #
vertex $-1 $381 $437 #
straight-curve $-1 -65.705130161442924 55.093382546222024 12.88009309303812 0 -1 0 I I #
vertex $-1 $395 $438 #
straight-curve $-1 -65.705130161442924 55.093382546222024 1.7408555094304745 0 1 0 I I #
point $-1 -65.705130161442924 44.599760857716021 12.88009309303812 #
straight-curve $-1 0 44.599760857716028 12.88009309303812 -1 0 0 I I #
point $-1 65.705130161442924 44.599760857716021 12.88009309303812 #
coedge $-1 $385 $379 $295 $395 reversed $278 $-1 #
edge $-1 $389 -65.705130161442924 $396 65.705130161442924 $394 $439 forward 7 unknown #
vertex $-1 $296 $440 #
straight-curve $-1 65.705130161442924 55.093382546222024 1.7408555094304745 0 -1 0 I I #
coedge $-1 $310 $309 $302 $399 forward $299 $-1 #
edge $-1 $400 74.161566190434883 $403 88.6504202518705 $398 $441 forward 7 unknown #
vertex $-1 $314 $442 #
straight-curve $-1 52.171946559260505 11.982356135120902 18.969088022018298 1 0 0 I I #
edge $-1 $403 3.0836377311646714 $311 14.71379907674779 $310 $443 forward 7 unknown #
vertex $-1 $402 $444 #
straight-curve $-1 -5.8660255921798665 11.982356135120902 114.69015267128358 -0.54463902268945019 0 0.83867057594974714 I I #
point $-1 56.295958619954149 11.982356135120902 18.969088022018298 #
point $-1 65.705130161442924 23.612517480704021 4.4802339605826802 #
straight-curve $-1 65.705130161442924 0 18.969088022018301 0 1 0 I I #
vertex $-1 $317 $445 #
point $-1 58.860526389206072 17.797436807912462 9.142553814810686 #
edge $-1 $411 19.056606835084455 $414 33.545460896519998 $322 $446 forward 7 unknown #
vertex $-1 $336 $447 #
straight-curve $-1 -87.957524436071907 23.612517480704021 18.969088022018301 -1 0 0 I I #
edge $-1 $414 -14.71379907674779 $333 -3.0836377311646714 $332 $448 forward 7 unknown #
vertex $-1 $413 $449 #
straight-curve $-1 -65.705130161442938 23.612517480704021 4.480233960582737 0.54463902268945019 0 0.83867057594974714 I I #
point $-1 -56.295958619954192 23.612517480704021 18.969088022018305 #
point $-1 -65.705130161442924 11.982356135120902 4.4802339605827592 #
straight-curve $-1 -65.705130161442924 0 18.969088022018301 0 -1 0 I I #
vertex $-1 $339 $450 #
point $-1 -57.771248343827175 17.797436807912462 10.819894966710187 #
straight-curve $-1 -65.705130161442924 44.599760857716028 0 0 0 -1 I I #
point $-1 -65.705130161442924 -44.599760857716028 -18.969088022018301 #
straight-curve $-1 -65.705130161442924 0 -18.969088022018301 0 1 0 I I #
point $-1 -65.705130161442924 44.599760857716028 -18.969088022018301 #
edge $-1 $376 -65.705130161442924 $427 65.705130161442924 $373 $451 forward 7 unknown #
straight-curve $-1 65.705130161442924 0 -18.969088022018301 0 -1 0 I I #
vertex $-1 $364 $452 #
straight-curve $-1 -65.705130161442924 0 -18.969088022018301 0 1 0 I I #
point $-1 -65.705130161442924 -24.371327314248155 -18.969088022018301 #
straight-curve $-1 -65.705130161442924 -24.371327314248155 -8.2685760879204224 0 0 -1 I I #
straight-curve $-1 -65.705130161442924 -44.599760857716028 0 0 0 -1 I I #
point $-1 65.705130161442924 -44.599760857716028 -18.969088022018301 #
edge $-1 $383 -5.5696187918038227 $396 5.5696187918038227 $382 $453 forward 7 unknown #
straight-curve $-1 0 65.587004234728028 12.88009309303812 -1 0 0 I I #
point $-1 65.705130161442924 65.587004234728028 12.88009309303812 #
straight-curve $-1 -65.705130161442924 65.587004234728028 7.3104743012342972 0 0 -1 I I #
point $-1 -65.705130161442924 65.587004234728028 12.88009309303812 #
point $-1 -65.705130161442924 65.587004234728028 1.7408555094304745 #
straight-curve $-1 0 65.587004234728028 1.7408555094304745 1 0 0 I I #
point $-1 65.705130161442924 65.587004234728028 1.7408555094304745 #
straight-curve $-1 65.705130161442924 11.982356135120902 93.13065421245318 0 0 -1 I I #
point $-1 65.705130161442924 11.982356135120902 18.969088022018301 #
straight-curve $-1 65.705130161442924 8.8987184039562308 4.4802339605826944 0 1 0 I I #
point $-1 65.705130161442924 11.982356135120902 4.4802339605826802 #
point $-1 57.477216790566871 17.797436807912462 9.4365853680709844 #
straight-curve $-1 -65.705130161442924 23.612517480704021 38.025694857102756 0 0 -1 I I #
point $-1 -65.705130161442924 23.612517480704021 18.969088022018301 #
straight-curve $-1 -65.705130161442924 8.8987184039562308 4.4802339605827557 0 -1 0 I I #
point $-1 -65.705130161442924 23.612517480704021 4.4802339605827592 #
point $-1 -57.477216790566878 17.797436807912462 9.4365853680709915 #
straight-curve $-1 0 -44.599760857716028 -18.969088022018301 -1 0 0 I I #
point $-1 -65.705130161442924 -44.599760857716028 -18.969088022018301 #
straight-curve $-1 65.705130161442924 65.587004234728028 7.3104743012342972 0 0 -1 I I #
End-of-ACIS-data 