500 0 11 0           
7 Unknown 11 ACIS 5.0 NT 24 Fri Mar 26 16:36:04 1999 
-1 9.9999999999999995e-007 1e-010 
body $-1 $11 $-1 $12 #
body $-1 $13 $-1 $14 #
body $-1 $15 $-1 $16 #
body $-1 $17 $-1 $18 #
body $-1 $19 $-1 $20 #
body $-1 $21 $-1 $22 #
body $-1 $23 $-1 $24 #
body $-1 $25 $-1 $26 #
body $-1 $27 $-1 $28 #
body $-1 $29 $-1 $30 #
body $-1 $31 $-1 $32 #
lump $-1 $-1 $33 $0 #
transform $-1 1 0 0 0 1 0 0 0 1 56.530045472579118 27.275268193987284 11.922056602935358 1 rotate no_reflect no_shear #
lump $-1 $-1 $34 $1 #
transform $-1 1 0 0 0 1 0 0 0 1 56.530045472579118 27.275268193987284 11.922056602935358 1 rotate no_reflect no_shear #
lump $-1 $-1 $35 $2 #
transform $-1 1 0 0 0 1 0 0 0 1 56.530045472579118 27.275268193987284 11.922056602935358 1 rotate no_reflect no_shear #
lump $-1 $-1 $36 $3 #
transform $-1 1 0 0 0 1 0 0 0 1 56.530045472579118 27.275268193987284 11.922056602935358 1 rotate no_reflect no_shear #
lump $-1 $-1 $37 $4 #
transform $-1 1 0 0 0 1 0 0 0 1 56.530045472579118 27.275268193987284 11.922056602935358 1 rotate no_reflect no_shear #
lump $-1 $-1 $38 $5 #
transform $-1 1 0 0 0 1 0 0 0 1 56.530045472579118 27.275268193987284 11.922056602935358 1 rotate no_reflect no_shear #
lump $-1 $-1 $39 $6 #
transform $-1 1 0 0 0 1 0 0 0 1 56.530045472579118 27.275268193987284 11.922056602935358 1 rotate no_reflect no_shear #
lump $-1 $-1 $40 $7 #
transform $-1 1 0 0 0 1 0 0 0 1 56.530045472579118 27.275268193987284 11.922056602935358 1 rotate no_reflect no_shear #
lump $-1 $-1 $41 $8 #
transform $-1 1 0 0 0 1 0 0 0 1 56.530045472579118 27.275268193987284 11.922056602935358 1 rotate no_reflect no_shear #
lump $-1 $-1 $42 $9 #
transform $-1 1 0 0 0 1 0 0 0 1 56.530045472579118 27.275268193987284 11.922056602935358 1 rotate no_reflect no_shear #
lump $-1 $-1 $43 $10 #
transform $-1 1 0 0 0 1 0 0 0 1 56.530045472579118 27.275268193987284 11.922056602935358 1 rotate no_reflect no_shear #
shell $-1 $-1 $-1 $44 $-1 $11 #
shell $-1 $-1 $-1 $45 $-1 $13 #
shell $-1 $-1 $-1 $46 $-1 $15 #
shell $-1 $-1 $-1 $47 $-1 $17 #
shell $-1 $-1 $-1 $48 $-1 $19 #
shell $-1 $-1 $-1 $49 $-1 $21 #
shell $-1 $-1 $-1 $50 $-1 $23 #
shell $-1 $-1 $-1 $51 $-1 $25 #
shell $-1 $-1 $-1 $52 $-1 $27 #
shell $-1 $-1 $-1 $53 $-1 $29 #
shell $-1 $-1 $-1 $54 $-1 $31 #
face $-1 $55 $56 $33 $-1 $57 forward single #
face $-1 $58 $59 $34 $-1 $60 forward single #
face $-1 $61 $62 $35 $-1 $63 forward single #
face $-1 $64 $65 $36 $-1 $66 reversed single #
face $-1 $67 $68 $37 $-1 $69 forward single #
face $-1 $70 $71 $38 $-1 $72 forward single #
face $-1 $73 $74 $39 $-1 $75 forward single #
face $-1 $76 $77 $40 $-1 $78 reversed single #
face $-1 $79 $80 $41 $-1 $81 forward single #
face $-1 $82 $83 $42 $-1 $84 reversed single #
face $-1 $85 $86 $43 $-1 $87 forward single #
face $-1 $88 $89 $33 $-1 $90 reversed single #
loop $-1 $-1 $91 $44 #
plane-surface $-1 0 0 11.922056602935358 0 0 1 1 0 0 forward_v I I I I #
face $-1 $92 $93 $34 $-1 $94 reversed single #
loop $-1 $-1 $95 $45 #
plane-surface $-1 0 -27.275268193987284 0 0 1 0 0 0 1 forward_v I I I I #
face $-1 $96 $97 $35 $-1 $98 reversed single #
loop $-1 $-1 $99 $46 #
plane-surface $-1 0 27.275268193987284 0 0 -1 0 0 0 -1 forward_v I I I I #
face $-1 $100 $101 $36 $-1 $102 reversed single #
loop $-1 $-1 $103 $47 #
plane-surface $-1 23.28681494943487 2.2808420759327426 160.3523633837041 0 -1 0 -0.54463904215088732 0 -0.83867056331134215 forward_v I I I I #
face $-1 $104 $105 $37 $-1 $106 forward single #
loop $-1 $107 $108 $48 #
cone-surface $-1 49.961619881669733 -2.7308858248880092 7.269544844739662 -0.54463904215088732 0 -0.83867056331134215 0.41933528165567108 0 -0.27231952107544366 1 I I 0 1 0.5 forward I I I I #
face $-1 $109 $110 $38 $-1 $111 forward single #
loop $-1 $112 $113 $49 #
cone-surface $-1 49.961619881669733 -0.85148786208022642 7.269544844739662 -0.54463904215088732 0 -0.83867056331134215 0.41933528165567108 0 -0.27231952107544366 1 I I 0 1 0.5 forward I I I I #
face $-1 $114 $115 $39 $-1 $116 forward single #
loop $-1 $117 $118 $50 #
cone-surface $-1 49.961619881669733 1.0279101007275564 7.269544844739662 -0.54463904215088732 0 -0.83867056331134215 0.41933528165567108 0 -0.27231952107544366 1 I I 0 1 0.5 forward I I I I #
face $-1 $119 $120 $40 $-1 $121 reversed single #
loop $-1 $-1 $122 $51 #
plane-surface $-1 -126.13678873723148 -7.312976345481335 93.436375160422855 0 1 0 -0.61566148304635926 0 0.78801074757464917 forward_v I I I I #
face $-1 $123 $124 $41 $-1 $125 forward single #
loop $-1 $126 $127 $52 #
cone-surface $-1 -51.196435055322574 -4.091926306002641 7.5137571378238679 0.61566148304635926 0 -0.78801074757464917 0.78801074757464917 0 0.61566148304635926 1 I I 0 1 1 forward I I I I #
face $-1 $128 $129 $42 $-1 $130 reversed single #
loop $-1 $-1 $131 $53 #
plane-surface $-1 -126.13678873723148 3.2806474719105054 93.436375160422855 0 1 0 -0.61566148304635926 0 0.78801074757464917 forward_v I I I I #
face $-1 $132 $133 $43 $-1 $134 forward single #
loop $-1 $135 $136 $54 #
cone-surface $-1 -51.196435055322574 6.5016975113891995 7.5137571378238679 0.61566148304635926 0 -0.78801074757464917 0.78801074757464917 0 0.61566148304635926 1 I I 0 1 1 forward I I I I #
face $-1 $137 $138 $33 $-1 $139 reversed single #
loop $-1 $-1 $140 $55 #
plane-surface $-1 0 0 -11.922056602935358 0 0 1 1 0 0 forward_v I I I I #
coedge $-1 $141 $142 $143 $144 forward $56 $-1 #
face $-1 $145 $146 $34 $-1 $147 reversed single #
loop $-1 $-1 $148 $58 #
plane-surface $-1 0 0 -11.922056602935358 0 0 1 1 0 0 forward_v I I I I #
coedge $-1 $149 $150 $151 $152 forward $59 $-1 #
face $-1 $153 $154 $35 $-1 $155 forward single #
loop $-1 $-1 $156 $61 #
plane-surface $-1 56.530045472579118 0 0 -1 0 0 0 0 1 forward_v I I I I #
coedge $-1 $157 $158 $159 $160 forward $62 $-1 #
face $-1 $161 $162 $36 $-1 $163 reversed single #
loop $-1 $-1 $164 $64 #
plane-surface $-1 -38.290124688428321 -0.85148786208022642 65.532193222696662 0.54463904215088732 0 0.83867056331134215 0.83867056331134215 0 -0.54463904215088732 forward_v I I I I #
coedge $-1 $165 $166 $167 $168 reversed $65 $-1 #
face $-1 $-1 $169 $37 $-1 $170 forward single #
loop $-1 $171 $172 $67 #
cone-surface $-1 49.390934836557008 -2.7308858248880092 6.3907669547670789 -0.54463904215088732 0 -0.83867056331134215 0.20966764082783554 0 -0.13615976053772183 1 I I -0.70710678118654746 0.70710678118654746 0.25 forward I I I I #
loop $-1 $-1 $173 $48 #
coedge $-1 $108 $108 $174 $175 reversed $68 $-1 #
face $-1 $-1 $176 $38 $-1 $177 forward single #
loop $-1 $178 $179 $70 #
cone-surface $-1 49.390934836557008 -0.85148786208022642 6.3907669547670789 -0.54463904215088732 0 -0.83867056331134215 0.20966764082783554 0 -0.13615976053772183 1 I I -0.70710678118654746 0.70710678118654746 0.25 forward I I I I #
loop $-1 $-1 $180 $49 #
coedge $-1 $113 $113 $181 $182 reversed $71 $-1 #
face $-1 $-1 $183 $39 $-1 $184 forward single #
loop $-1 $185 $186 $73 #
cone-surface $-1 49.390934836557008 1.0279101007275564 6.3907669547670789 -0.54463904215088732 0 -0.83867056331134215 0.20966764082783554 0 -0.13615976053772183 1 I I -0.70710678118654746 0.70710678118654746 0.25 forward I I I I #
loop $-1 $-1 $187 $50 #
coedge $-1 $118 $118 $188 $189 reversed $74 $-1 #
face $-1 $190 $191 $40 $-1 $192 reversed single #
loop $-1 $-1 $193 $76 #
plane-surface $-1 -56.530045472579104 -4.091926306002641 4.3438083738708855 -0.61566148304635926 0 0.78801074757464917 0.78801074757464917 0 0.61566148304635926 forward_v I I I I #
coedge $-1 $194 $195 $196 $197 reversed $77 $-1 #
face $-1 $-1 $198 $41 $-1 $199 forward single #
loop $-1 $200 $201 $79 #
cone-surface $-1 -50.404851502335021 -4.091926306002641 6.5005764134572797 0.61566148304635926 0 -0.78801074757464917 0.39400537378732459 0 0.30783074152317963 1 I I -0.70710678118654746 0.70710678118654746 0.5 forward I I I I #
loop $-1 $-1 $202 $52 #
coedge $-1 $127 $127 $203 $204 reversed $80 $-1 #
face $-1 $205 $206 $42 $-1 $207 reversed single #
loop $-1 $-1 $208 $82 #
plane-surface $-1 -56.530045472579104 6.5016975113891995 4.3438083738708855 -0.61566148304635926 0 0.78801074757464917 0.78801074757464917 0 0.61566148304635926 forward_v I I I I #
coedge $-1 $209 $210 $211 $212 reversed $83 $-1 #
face $-1 $-1 $213 $43 $-1 $214 forward single #
loop $-1 $215 $216 $85 #
cone-surface $-1 -50.404851502335021 6.5016975113891995 6.5005764134572797 0.61566148304635926 0 -0.78801074757464917 0.39400537378732459 0 0.30783074152317963 1 I I -0.70710678118654746 0.70710678118654746 0.5 forward I I I I #
loop $-1 $-1 $217 $54 #
coedge $-1 $136 $136 $218 $219 reversed $86 $-1 #
face $-1 $220 $221 $33 $-1 $222 reversed single #
loop $-1 $-1 $223 $88 #
plane-surface $-1 0 -27.275268193987284 0 0 1 0 0 0 1 forward_v I I I I #
coedge $-1 $224 $225 $226 $227 forward $89 $-1 #
coedge $-1 $228 $91 $229 $230 forward $56 $-1 #
coedge $-1 $91 $228 $231 $232 forward $56 $-1 #
coedge $-1 $233 $234 $91 $144 reversed $235 $-1 #
edge $-1 $236 -27.275268193987284 $237 27.275268193987284 $143 $238 forward 7 unknown #
face $-1 $239 $240 $34 $-1 $241 reversed single #
loop $-1 $-1 $242 $92 #
plane-surface $-1 -34.185932266708406 -42.724699212397773 0 0 1 0 0 0 1 forward_v I I I I #
coedge $-1 $243 $244 $150 $245 forward $93 $-1 #
coedge $-1 $246 $95 $247 $248 reversed $59 $-1 #
coedge $-1 $95 $246 $148 $245 reversed $59 $-1 #
coedge $-1 $249 $250 $95 $152 reversed $240 $-1 #
edge $-1 $251 -11.922056602935358 $252 11.922056602935358 $151 $253 forward 7 unknown #
face $-1 $254 $255 $35 $-1 $256 reversed single #
loop $-1 $-1 $257 $96 #
plane-surface $-1 0 33.795098100499246 6.5446045615265565 0 0 1 1 0 0 forward_v I I I I #
coedge $-1 $258 $259 $158 $260 forward $97 $-1 #
coedge $-1 $261 $99 $262 $263 reversed $62 $-1 #
coedge $-1 $99 $261 $156 $260 reversed $62 $-1 #
coedge $-1 $257 $264 $99 $160 reversed $154 $-1 #
edge $-1 $265 -56.530045472579118 $266 56.530045472579118 $159 $267 forward 7 unknown #
face $-1 $268 $269 $36 $-1 $270 forward single #
loop $-1 $-1 $271 $100 #
plane-surface $-1 23.28681494943487 -3.9838178000931954 160.3523633837041 0 1 0 0.54463904215088732 0 0.83867056331134215 forward_v I I I I #
coedge $-1 $272 $273 $274 $275 reversed $101 $-1 #
coedge $-1 $166 $103 $276 $277 reversed $65 $-1 #
coedge $-1 $103 $165 $272 $278 reversed $65 $-1 #
coedge $-1 $274 $279 $103 $168 forward $269 $-1 #
edge $-1 $280 -44.886637997861683 $281 -32.618837385192862 $167 $282 forward 7 unknown #
loop $-1 $-1 $174 $104 #
plane-surface $-1 -38.290124688428321 -0.85148786208022642 65.532193222696662 0.54463904215088732 0 0.83867056331134215 0.83867056331134215 0 -0.54463904215088732 forward_v I I I I #
loop $-1 $-1 $283 $67 #
coedge $-1 $172 $172 $173 $284 reversed $105 $-1 #
coedge $-1 $173 $173 $172 $284 forward $107 $-1 #
coedge $-1 $174 $174 $108 $175 forward $169 $-1 #
edge $-1 $285 0 $285 6.2831853071796004 $174 $286 forward 7 unknown #
loop $-1 $-1 $181 $109 #
plane-surface $-1 -38.290124688428321 -0.85148786208022642 65.532193222696662 0.54463904215088732 0 0.83867056331134215 0.83867056331134215 0 -0.54463904215088732 forward_v I I I I #
loop $-1 $-1 $287 $70 #
coedge $-1 $179 $179 $180 $288 reversed $110 $-1 #
coedge $-1 $180 $180 $179 $288 forward $112 $-1 #
coedge $-1 $181 $181 $113 $182 forward $176 $-1 #
edge $-1 $289 0 $289 6.2831853071796004 $181 $290 forward 7 unknown #
loop $-1 $-1 $188 $114 #
plane-surface $-1 -38.290124688428321 -0.85148786208022642 65.532193222696662 0.54463904215088732 0 0.83867056331134215 0.83867056331134215 0 -0.54463904215088732 forward_v I I I I #
loop $-1 $-1 $291 $73 #
coedge $-1 $186 $186 $187 $292 reversed $115 $-1 #
coedge $-1 $187 $187 $186 $292 forward $117 $-1 #
coedge $-1 $188 $188 $118 $189 forward $183 $-1 #
edge $-1 $293 0 $293 6.2831853071796004 $188 $294 forward 7 unknown #
face $-1 $295 $296 $40 $-1 $297 reversed single #
loop $-1 $-1 $298 $119 #
plane-surface $-1 -126.13678873723148 -0.8708762665239469 93.436375160422855 0 -1 0 0.61566148304635926 0 -0.78801074757464917 forward_v I I I I #
coedge $-1 $299 $300 $301 $302 reversed $120 $-1 #
coedge $-1 $195 $122 $303 $304 reversed $77 $-1 #
coedge $-1 $122 $194 $299 $305 reversed $77 $-1 #
coedge $-1 $301 $306 $122 $197 forward $307 $-1 #
edge $-1 $308 6.5383488960366236 $309 16.238064107621 $196 $310 forward 7 unknown #
loop $-1 $-1 $203 $123 #
plane-surface $-1 -56.530045472579104 -4.091926306002641 4.3438083738708855 -0.61566148304635926 0 0.78801074757464917 0.78801074757464917 0 0.61566148304635926 forward_v I I I I #
loop $-1 $-1 $311 $79 #
coedge $-1 $201 $201 $202 $312 reversed $124 $-1 #
coedge $-1 $202 $202 $201 $312 forward $126 $-1 #
coedge $-1 $203 $203 $127 $204 forward $198 $-1 #
edge $-1 $313 0 $313 6.2831853071796004 $203 $314 forward 7 unknown #
face $-1 $315 $316 $42 $-1 $317 forward single #
loop $-1 $-1 $318 $128 #
plane-surface $-1 -126.13678873723148 9.7227475508678936 93.436375160422855 0 -1 0 0.61566148304635926 0 -0.78801074757464917 forward_v I I I I #
coedge $-1 $319 $320 $321 $322 reversed $129 $-1 #
coedge $-1 $210 $131 $323 $324 reversed $83 $-1 #
coedge $-1 $131 $209 $319 $325 reversed $83 $-1 #
coedge $-1 $321 $326 $131 $212 forward $316 $-1 #
edge $-1 $327 6.5383488960366236 $328 16.238064107621 $211 $329 forward 7 unknown #
loop $-1 $-1 $218 $132 #
plane-surface $-1 -56.530045472579104 6.5016975113891995 4.3438083738708855 -0.61566148304635926 0 0.78801074757464917 0.78801074757464917 0 0.61566148304635926 forward_v I I I I #
loop $-1 $-1 $330 $85 #
coedge $-1 $216 $216 $217 $331 reversed $133 $-1 #
coedge $-1 $217 $217 $216 $331 forward $135 $-1 #
coedge $-1 $218 $218 $136 $219 forward $213 $-1 #
edge $-1 $332 0 $332 6.2831853071796004 $218 $333 forward 7 unknown #
face $-1 $334 $335 $33 $-1 $336 reversed single #
loop $-1 $-1 $337 $137 #
plane-surface $-1 -56.530045472579118 0 0 1 0 0 0 0 -1 forward_v I I I I #
coedge $-1 $338 $231 $339 $340 forward $138 $-1 #
coedge $-1 $341 $140 $338 $342 forward $89 $-1 #
coedge $-1 $140 $341 $343 $344 forward $89 $-1 #
coedge $-1 $234 $233 $140 $227 reversed $235 $-1 #
edge $-1 $345 -27.275268193987284 $346 27.275268193987284 $226 $347 forward 7 unknown #
coedge $-1 $142 $141 $348 $349 forward $56 $-1 #
coedge $-1 $350 $351 $141 $230 reversed $335 $-1 #
edge $-1 $237 -56.530045472579118 $352 56.530045472579118 $229 $353 forward 7 unknown #
coedge $-1 $223 $354 $142 $232 reversed $138 $-1 #
edge $-1 $355 -56.530045472579118 $236 56.530045472579118 $231 $356 forward 7 unknown #
coedge $-1 $226 $143 $354 $357 forward $235 $-1 #
coedge $-1 $143 $226 $350 $358 reversed $235 $-1 #
loop $-1 $-1 $233 $334 #
vertex $-1 $144 $359 #
vertex $-1 $144 $360 #
straight-curve $-1 56.530045472579118 0 11.922056602935358 0 1 0 I I #
face $-1 $361 $362 $34 $-1 $363 reversed single #
loop $-1 $-1 $151 $145 #
plane-surface $-1 -35.685932266708406 -34.999983703192527 0 1 0 0 0 0 -1 forward_v I I I I #
coedge $-1 $364 $365 $366 $367 forward $146 $-1 #
coedge $-1 $368 $148 $369 $370 forward $93 $-1 #
coedge $-1 $148 $368 $249 $371 forward $93 $-1 #
edge $-1 $251 -35.685932266708406 $372 -32.685932266708406 $148 $373 forward 7 unknown #
coedge $-1 $150 $149 $374 $375 forward $59 $-1 #
coedge $-1 $376 $377 $149 $248 forward $378 $-1 #
edge $-1 $379 32.685932266708406 $252 35.685932266708406 $247 $380 forward 7 unknown #
coedge $-1 $366 $151 $244 $371 reversed $240 $-1 #
coedge $-1 $151 $366 $376 $381 reversed $240 $-1 #
vertex $-1 $245 $382 #
vertex $-1 $381 $383 #
straight-curve $-1 -35.685932266708406 -27.275268193987284 0 0 0 1 I I #
face $-1 $384 $385 $35 $-1 $386 reversed single #
loop $-1 $-1 $387 $153 #
plane-surface $-1 0 33.795098100499246 2.7099134588629941 0 0 1 1 0 0 forward_v I I I I #
coedge $-1 $388 $159 $259 $389 forward $154 $-1 #
coedge $-1 $390 $156 $387 $391 reversed $97 $-1 #
coedge $-1 $156 $390 $257 $389 reversed $97 $-1 #
edge $-1 $265 -6.5446045615265565 $392 -2.7099134588629941 $156 $393 forward 7 unknown #
coedge $-1 $158 $157 $394 $395 forward $62 $-1 #
coedge $-1 $396 $397 $157 $263 forward $398 $-1 #
edge $-1 $399 2.7099134588629941 $266 6.5446045615265565 $262 $400 forward 7 unknown #
coedge $-1 $159 $388 $396 $401 forward $154 $-1 #
vertex $-1 $260 $402 #
vertex $-1 $401 $403 #
straight-curve $-1 0 27.275268193987284 6.5446045615265565 -1 0 0 I I #
face $-1 $-1 $404 $36 $-1 $405 reversed single #
loop $-1 $-1 $167 $161 #
plane-surface $-1 0 0 11.922056602935358 0 0 1 1 0 0 forward_v I I I I #
coedge $-1 $406 $407 $408 $409 reversed $162 $-1 #
coedge $-1 $410 $164 $166 $278 forward $101 $-1 #
coedge $-1 $164 $410 $406 $411 forward $101 $-1 #
coedge $-1 $408 $167 $164 $275 forward $269 $-1 #
edge $-1 $281 -2.7065860069728558 $412 3.5580738690530822 $274 $413 forward 7 unknown #
coedge $-1 $414 $415 $165 $277 forward $404 $-1 #
edge $-1 $416 -76.22092810701858 $280 -68.254125088916695 $276 $417 forward 7 unknown #
edge $-1 $281 98.432415729956233 $416 113.06009094515824 $166 $418 forward 7 unknown #
coedge $-1 $167 $408 $414 $419 forward $269 $-1 #
vertex $-1 $277 $420 #
vertex $-1 $168 $421 #
straight-curve $-1 11.643407474717435 2.2808420759327426 11.922056602935356 -1 0 0 I I #
coedge $-1 $283 $283 $-1 $422 reversed $171 $-1 #
edge $-1 $423 0 $423 6.2831853071796004 $172 $424 forward 7 unknown #
vertex $-1 $175 $425 #
ellipse-curve $-1 50.396145166244729 -2.7308858248880092 7.9386550938844023 0.54463904215088732 0 0.83867056331134215 0.41933528165567108 0 -0.27231952107544366 1 I I #
coedge $-1 $287 $287 $-1 $426 reversed $178 $-1 #
edge $-1 $427 0 $427 6.2831853071796004 $179 $428 forward 7 unknown #
vertex $-1 $182 $429 #
ellipse-curve $-1 50.396145166244729 -0.85148786208022642 7.9386550938844023 0.54463904215088732 0 0.83867056331134215 0.41933528165567108 0 -0.27231952107544366 1 I I #
coedge $-1 $291 $291 $-1 $430 reversed $185 $-1 #
edge $-1 $431 0 $431 6.2831853071796004 $186 $432 forward 7 unknown #
vertex $-1 $189 $433 #
ellipse-curve $-1 50.396145166244729 1.0279101007275564 7.9386550938844023 0.54463904215088732 0 0.83867056331134215 0.41933528165567108 0 -0.27231952107544366 1 I I #
face $-1 $-1 $307 $40 $-1 $434 forward single #
loop $-1 $-1 $435 $190 #
plane-surface $-1 -56.530045472579118 0 0 1 0 0 0 0 -1 forward_v I I I I #
coedge $-1 $436 $437 $438 $439 reversed $191 $-1 #
coedge $-1 $440 $193 $195 $305 forward $120 $-1 #
coedge $-1 $193 $440 $436 $441 forward $120 $-1 #
coedge $-1 $438 $196 $193 $302 forward $307 $-1 #
edge $-1 $309 -5.2670131924800145 $442 1.1750868864773736 $301 $443 forward 7 unknown #
coedge $-1 $444 $445 $194 $304 forward $296 $-1 #
edge $-1 $446 -42.374379206340556 $308 -34.796130977276071 $303 $447 forward 7 unknown #
edge $-1 $309 -12.309115378741069 $446 1.830693040787162e-014 $195 $448 forward 7 unknown #
coedge $-1 $196 $438 $444 $449 forward $307 $-1 #
loop $-1 $-1 $438 $295 #
vertex $-1 $304 $450 #
vertex $-1 $197 $451 #
straight-curve $-1 -63.068394368615742 -7.312976345481335 11.922056602935356 1 0 0 I I #
coedge $-1 $311 $311 $-1 $452 reversed $200 $-1 #
edge $-1 $453 0 $453 6.2831853071796004 $201 $454 forward 7 unknown #
vertex $-1 $204 $455 #
ellipse-curve $-1 -51.680187866786937 -4.091926306002641 8.1329324884031156 -0.61566148304635926 0 0.78801074757464917 0.78801074757464917 0 0.61566148304635926 1 I I #
face $-1 $-1 $456 $42 $-1 $457 reversed single #
loop $-1 $-1 $211 $205 #
plane-surface $-1 0 0 11.922056602935358 0 0 1 1 0 0 forward_v I I I I #
coedge $-1 $458 $459 $460 $461 reversed $206 $-1 #
coedge $-1 $462 $208 $210 $325 forward $129 $-1 #
coedge $-1 $208 $462 $458 $463 forward $129 $-1 #
coedge $-1 $460 $211 $208 $322 forward $316 $-1 #
edge $-1 $328 0.029798716215905685 $464 6.4718987951732938 $321 $465 forward 7 unknown #
coedge $-1 $466 $467 $209 $324 forward $456 $-1 #
edge $-1 $468 -42.374379206340556 $327 -34.796130977276071 $323 $469 forward 7 unknown #
edge $-1 $328 -12.309115378741069 $468 1.830693040787162e-014 $210 $470 forward 7 unknown #
coedge $-1 $211 $460 $466 $471 forward $316 $-1 #
vertex $-1 $324 $472 #
vertex $-1 $212 $473 #
straight-curve $-1 -63.068394368615742 3.2806474719105054 11.922056602935356 1 0 0 I I #
coedge $-1 $330 $330 $-1 $474 reversed $215 $-1 #
edge $-1 $475 0 $475 6.2831853071796004 $216 $476 forward 7 unknown #
vertex $-1 $219 $477 #
ellipse-curve $-1 -51.680187866786937 6.5016975113891995 8.1329324884031156 -0.61566148304635926 0 0.78801074757464917 0.78801074757464917 0 0.61566148304635926 1 I I #
face $-1 $-1 $235 $33 $-1 $478 reversed single #
loop $-1 $-1 $350 $220 #
plane-surface $-1 0 27.275268193987284 0 0 -1 0 0 0 -1 forward_v I I I I #
coedge $-1 $479 $348 $351 $480 forward $221 $-1 #
coedge $-1 $354 $223 $224 $342 reversed $138 $-1 #
coedge $-1 $348 $479 $223 $340 reversed $221 $-1 #
edge $-1 $355 -11.922056602935358 $481 11.922056602935358 $339 $482 forward 7 unknown #
coedge $-1 $225 $224 $479 $483 forward $89 $-1 #
edge $-1 $346 -56.530045472579118 $481 56.530045472579118 $338 $484 forward 7 unknown #
coedge $-1 $351 $350 $225 $344 reversed $335 $-1 #
edge $-1 $485 -56.530045472579118 $345 56.530045472579118 $343 $486 forward 7 unknown #
vertex $-1 $227 $487 #
vertex $-1 $357 $488 #
straight-curve $-1 56.530045472579118 0 -11.922056602935358 0 -1 0 I I #
coedge $-1 $337 $339 $228 $349 reversed $221 $-1 #
edge $-1 $352 -27.275268193987284 $355 27.275268193987284 $348 $489 forward 7 unknown #
coedge $-1 $343 $229 $234 $358 forward $335 $-1 #
coedge $-1 $229 $343 $337 $480 reversed $335 $-1 #
vertex $-1 $230 $490 #
straight-curve $-1 0 27.275268193987284 11.922056602935358 -1 0 0 I I #
coedge $-1 $231 $338 $233 $357 reversed $138 $-1 #
vertex $-1 $349 $491 #
straight-curve $-1 0 -27.275268193987284 11.922056602935358 1 0 0 I I #
edge $-1 $236 -11.922056602935358 $346 11.922056602935358 $233 $492 forward 7 unknown #
edge $-1 $237 -11.922056602935358 $345 11.922056602935358 $234 $493 forward 7 unknown #
point $-1 56.530045472579118 -27.275268193987284 11.922056602935358 #
point $-1 56.530045472579118 27.275268193987284 11.922056602935358 #
face $-1 $-1 $378 $34 $-1 $494 forward single #
loop $-1 $-1 $495 $239 #
plane-surface $-1 -32.685932266708406 -34.999983703192527 0 -1 0 0 0 0 1 forward_v I I I I #
coedge $-1 $496 $242 $368 $497 reversed $146 $-1 #
coedge $-1 $242 $496 $498 $499 reversed $146 $-1 #
coedge $-1 $250 $249 $242 $367 reversed $240 $-1 #
edge $-1 $500 -11.922056602935358 $501 11.922056602935358 $366 $502 forward 7 unknown #
coedge $-1 $244 $243 $364 $497 forward $93 $-1 #
coedge $-1 $374 $495 $243 $370 reversed $362 $-1 #
edge $-1 $372 -7.7247155092052466 $503 7.7247155092052466 $369 $504 forward 7 unknown #
edge $-1 $501 -7.7247155092052466 $251 7.7247155092052466 $249 $505 forward 7 unknown #
vertex $-1 $370 $506 #
straight-curve $-1 0 -27.275268193987284 -11.922056602935358 1 0 0 I I #
coedge $-1 $507 $369 $246 $375 reversed $362 $-1 #
edge $-1 $379 -11.922056602935358 $372 11.922056602935358 $374 $508 forward 7 unknown #
coedge $-1 $498 $247 $250 $381 forward $378 $-1 #
coedge $-1 $247 $498 $507 $509 forward $378 $-1 #
loop $-1 $-1 $247 $361 #
vertex $-1 $248 $510 #
straight-curve $-1 0 -27.275268193987284 11.922056602935358 -1 0 0 I I #
edge $-1 $252 -7.7247155092052466 $500 7.7247155092052466 $250 $511 forward 7 unknown #
point $-1 -35.685932266708406 -27.27526819398728 -11.922056602935358 #
point $-1 -35.685932266708406 -27.27526819398728 11.922056602935358 #
face $-1 $-1 $398 $35 $-1 $512 reversed single #
loop $-1 $-1 $513 $254 #
plane-surface $-1 0 40.314928007011218 4.6272590101947753 0 -1 0 0 0 -1 forward_v I I I I #
coedge $-1 $394 $514 $258 $391 forward $255 $-1 #
coedge $-1 $264 $257 $515 $516 forward $154 $-1 #
edge $-1 $265 -6.5198299065119691 $517 6.5198299065119727 $259 $518 forward 7 unknown #
coedge $-1 $259 $258 $513 $519 reversed $97 $-1 #
edge $-1 $520 -6.5198299065119727 $392 6.5198299065119691 $258 $521 forward 7 unknown #
vertex $-1 $260 $522 #
straight-curve $-1 56.530045472579118 27.275268193987284 0 0 0 -1 I I #
coedge $-1 $523 $387 $261 $395 reversed $255 $-1 #
edge $-1 $399 -56.530045472579118 $392 56.530045472579118 $394 $524 forward 7 unknown #
coedge $-1 $525 $262 $264 $401 reversed $398 $-1 #
coedge $-1 $262 $525 $523 $526 reversed $398 $-1 #
loop $-1 $-1 $262 $384 #
vertex $-1 $263 $527 #
straight-curve $-1 -56.530045472579118 27.275268193987284 0 0 0 1 I I #
edge $-1 $528 -6.5198299065119727 $266 6.5198299065119691 $396 $529 forward 7 unknown #
point $-1 56.530045472579118 27.275268193987277 6.5446045615265565 #
point $-1 -56.530045472579118 27.275268193987277 6.5446045615265565 #
loop $-1 $-1 $276 $268 #
plane-surface $-1 56.530045472579118 0 0 -1 0 0 0 0 1 forward_v I I I I #
coedge $-1 $407 $271 $273 $411 reversed $162 $-1 #
coedge $-1 $271 $406 $530 $531 reversed $162 $-1 #
coedge $-1 $279 $274 $271 $409 forward $269 $-1 #
edge $-1 $412 32.618837385192862 $532 44.886637997861683 $408 $533 forward 7 unknown #
coedge $-1 $273 $272 $415 $534 reversed $101 $-1 #
edge $-1 $535 -113.06009094515824 $412 -98.432415729956233 $406 $536 forward 7 unknown #
vertex $-1 $275 $537 #
straight-curve $-1 44.262244859910311 -0.42574393104011321 11.922056602935356 0 -1 0 I I #
coedge $-1 $530 $276 $279 $419 reversed $404 $-1 #
coedge $-1 $276 $530 $410 $534 forward $404 $-1 #
vertex $-1 $277 $538 #
straight-curve $-1 56.530045472579118 2.2808420759327426 80.176181691852051 0 0 1 I I #
straight-curve $-1 -38.290124688428321 2.2808420759327426 65.532193222696662 0.83867056331134215 0 -0.54463904215088732 I I #
edge $-1 $532 -3.9838178000931954 $280 2.2808420759327426 $414 $539 forward 7 unknown #
point $-1 56.530045472579118 2.2808420759327426 11.922056602935358 #
point $-1 44.262244859910297 2.2808420759327426 11.922056602935356 #
edge $-1 $540 1 $540 0 $283 $-1 forward 7 unknown #
vertex $-1 $284 $541 #
ellipse-curve $-1 49.527094597094731 -2.7308858248880092 6.6004345955949146 0.54463904215088732 0 0.83867056331134215 0.41933528165567108 0 -0.27231952107544366 1 I I #
point $-1 50.815480447900399 -2.7308858248880092 7.6663355728089666 #
edge $-1 $542 1 $542 0 $287 $-1 forward 7 unknown #
vertex $-1 $288 $543 #
ellipse-curve $-1 49.527094597094731 -0.85148786208022642 6.6004345955949146 0.54463904215088732 0 0.83867056331134215 0.41933528165567108 0 -0.27231952107544366 1 I I #
point $-1 50.815480447900399 -0.85148786208022642 7.6663355728089666 #
edge $-1 $544 1 $544 0 $291 $-1 forward 7 unknown #
vertex $-1 $292 $545 #
ellipse-curve $-1 49.527094597094731 1.0279101007275564 6.6004345955949146 0.54463904215088732 0 0.83867056331134215 0.41933528165567108 0 -0.27231952107544366 1 I I #
point $-1 50.815480447900399 1.0279101007275564 7.6663355728089666 #
plane-surface $-1 0 0 11.922056602935358 0 0 1 1 0 0 forward_v I I I I #
coedge $-1 $445 $444 $437 $546 forward $296 $-1 #
coedge $-1 $437 $298 $300 $441 reversed $191 $-1 #
coedge $-1 $298 $436 $435 $546 reversed $191 $-1 #
coedge $-1 $306 $301 $298 $439 forward $307 $-1 #
edge $-1 $442 -16.238064107621 $547 -6.5383488960366236 $438 $548 forward 7 unknown #
coedge $-1 $300 $299 $445 $549 reversed $120 $-1 #
edge $-1 $550 -1.830693040787162e-014 $442 12.309115378741069 $436 $551 forward 7 unknown #
vertex $-1 $302 $552 #
straight-curve $-1 -46.830330260994742 -2.0459631530013205 11.922056602935358 0 1 0 I I #
coedge $-1 $435 $303 $306 $449 reversed $296 $-1 #
coedge $-1 $303 $435 $440 $549 forward $296 $-1 #
vertex $-1 $304 $553 #
straight-curve $-1 -56.530045472579118 -7.312976345481335 46.718187580211428 0 0 1 I I #
straight-curve $-1 -56.530045472579104 -7.312976345481335 4.3438083738708855 -0.78801074757464917 0 -0.61566148304635926 I I #
edge $-1 $547 0.8708762665239469 $308 7.312976345481335 $444 $554 forward 7 unknown #
point $-1 -56.530045472579118 -7.312976345481335 11.922056602935358 #
point $-1 -46.830330260994742 -7.312976345481335 11.922056602935358 #
edge $-1 $555 1 $555 0 $311 $-1 forward 7 unknown #
vertex $-1 $312 $556 #
ellipse-curve $-1 -50.712682243858197 -4.091926306002641 6.8945817872446042 -0.61566148304635926 0 0.78801074757464917 0.78801074757464917 0 0.61566148304635926 1 I I #
point $-1 -50.892177119212299 -4.091926306002641 8.7485939714494894 #
loop $-1 $-1 $323 $315 #
plane-surface $-1 -56.530045472579118 0 0 1 0 0 0 0 -1 forward_v I I I I #
coedge $-1 $459 $318 $320 $463 reversed $206 $-1 #
coedge $-1 $318 $458 $557 $558 reversed $206 $-1 #
coedge $-1 $326 $321 $318 $461 forward $316 $-1 #
edge $-1 $464 -16.238064107621 $559 -6.5383488960366236 $460 $560 forward 7 unknown #
coedge $-1 $320 $319 $467 $561 reversed $129 $-1 #
edge $-1 $562 -1.830693040787162e-014 $464 12.309115378741069 $458 $563 forward 7 unknown #
vertex $-1 $322 $564 #
straight-curve $-1 -46.830330260994742 3.2508487556945997 11.922056602935358 0 1 0 I I #
coedge $-1 $557 $323 $326 $471 reversed $456 $-1 #
coedge $-1 $323 $557 $462 $561 forward $456 $-1 #
vertex $-1 $324 $565 #
straight-curve $-1 -56.530045472579118 3.2806474719105054 46.718187580211428 0 0 1 I I #
straight-curve $-1 -56.530045472579104 3.2806474719105054 4.3438083738708855 -0.78801074757464917 0 -0.61566148304635926 I I #
edge $-1 $559 -9.7227475508678936 $327 -3.2806474719105054 $466 $566 forward 7 unknown #
point $-1 -56.530045472579118 3.2806474719105054 11.922056602935358 #
point $-1 -46.830330260994742 3.2806474719105054 11.922056602935358 #
edge $-1 $567 1 $567 0 $330 $-1 forward 7 unknown #
vertex $-1 $331 $568 #
ellipse-curve $-1 -50.712682243858197 6.5016975113891995 6.8945817872446042 -0.61566148304635926 0 0.78801074757464917 0.78801074757464917 0 0.61566148304635926 1 I I #
point $-1 -50.892177119212299 6.5016975113891995 8.7485939714494894 #
plane-surface $-1 56.530045472579118 0 0 -1 0 0 0 0 1 forward_v I I I I #
coedge $-1 $339 $337 $341 $483 reversed $221 $-1 #
edge $-1 $352 -11.922056602935358 $485 11.922056602935358 $351 $569 forward 7 unknown #
vertex $-1 $483 $570 #
straight-curve $-1 -56.530045472579118 -27.275268193987284 0 0 0 -1 I I #
edge $-1 $481 -27.275268193987284 $485 27.275268193987284 $479 $571 forward 7 unknown #
straight-curve $-1 0 -27.275268193987284 -11.922056602935358 -1 0 0 I I #
vertex $-1 $344 $572 #
straight-curve $-1 0 27.275268193987284 -11.922056602935358 1 0 0 I I #
point $-1 56.530045472579118 27.275268193987284 -11.922056602935358 #
point $-1 56.530045472579118 -27.275268193987284 -11.922056602935358 #
straight-curve $-1 -56.530045472579118 0 11.922056602935358 0 -1 0 I I #
point $-1 -56.530045472579118 27.275268193987284 11.922056602935358 #
point $-1 -56.530045472579118 -27.275268193987284 11.922056602935358 #
straight-curve $-1 56.530045472579118 -27.275268193987284 0 0 0 -1 I I #
straight-curve $-1 56.530045472579118 27.275268193987284 0 0 0 -1 I I #
plane-surface $-1 0 0 11.922056602935358 0 0 1 1 0 0 forward_v I I I I #
coedge $-1 $369 $507 $496 $573 forward $362 $-1 #
coedge $-1 $365 $364 $495 $573 reversed $146 $-1 #
edge $-1 $503 -1.5 $501 1.5 $364 $574 forward 7 unknown #
coedge $-1 $377 $376 $365 $499 forward $378 $-1 #
edge $-1 $500 -1.5 $575 1.5 $365 $576 forward 7 unknown #
vertex $-1 $381 $577 #
vertex $-1 $371 $578 #
straight-curve $-1 -35.685932266708406 -42.724699212397773 0 0 0 -1 I I #
vertex $-1 $573 $579 #
straight-curve $-1 -32.685932266708406 -34.999983703192527 -11.922056602935358 0 -1 0 I I #
straight-curve $-1 -35.685932266708406 -34.999983703192527 -11.922056602935358 0 1 0 I I #
point $-1 -32.685932266708406 -27.27526819398728 -11.922056602935358 #
coedge $-1 $495 $374 $377 $509 reversed $362 $-1 #
straight-curve $-1 -32.685932266708406 -27.275268193987284 0 0 0 -1 I I #
edge $-1 $575 -7.7247155092052466 $379 7.7247155092052466 $507 $580 forward 7 unknown #
point $-1 -32.685932266708406 -27.27526819398728 11.922056602935358 #
straight-curve $-1 -35.685932266708406 -34.999983703192527 11.922056602935358 0 -1 0 I I #
plane-surface $-1 -56.530045472579118 0 0 1 0 0 0 0 -1 forward_v I I I I #
coedge $-1 $581 $515 $390 $519 forward $385 $-1 #
coedge $-1 $387 $523 $581 $582 forward $255 $-1 #
coedge $-1 $513 $583 $388 $516 reversed $385 $-1 #
edge $-1 $517 -56.530045472579118 $528 56.530045472579118 $515 $584 forward 7 unknown #
vertex $-1 $389 $585 #
straight-curve $-1 56.530045472579118 33.795098100499246 6.5446045615265565 0 1 0 I I #
edge $-1 $517 -1.9173455513317812 $520 1.9173455513317812 $390 $586 forward 7 unknown #
vertex $-1 $391 $587 #
straight-curve $-1 56.530045472579118 33.795098100499246 2.7099134588629941 0 -1 0 I I #
point $-1 56.530045472579118 27.275268193987277 2.7099134588629941 #
coedge $-1 $514 $394 $397 $526 forward $255 $-1 #
straight-curve $-1 0 27.275268193987284 2.7099134588629941 1 0 0 I I #
coedge $-1 $397 $396 $583 $588 forward $398 $-1 #
edge $-1 $399 -6.5198299065119691 $589 6.5198299065119727 $397 $590 forward 7 unknown #
point $-1 -56.530045472579118 27.275268193987277 2.7099134588629941 #
vertex $-1 $516 $591 #
straight-curve $-1 -56.530045472579118 33.795098100499246 6.5446045615265565 0 -1 0 I I #
coedge $-1 $415 $414 $407 $531 forward $404 $-1 #
edge $-1 $532 68.254125088916695 $535 76.22092810701858 $530 $592 forward 7 unknown #
vertex $-1 $419 $593 #
straight-curve $-1 11.643407474717435 -3.9838178000931954 11.922056602935356 1 0 0 I I #
edge $-1 $535 -3.5580738690530822 $416 2.7065860069728558 $415 $594 forward 7 unknown #
vertex $-1 $534 $595 #
straight-curve $-1 -38.290124688428321 -3.9838178000931954 65.532193222696662 -0.83867056331134215 0 0.54463904215088732 I I #
point $-1 44.262244859910297 -3.9838178000931954 11.922056602935356 #
point $-1 56.530045472579118 2.2808420759327426 3.9552535848334642 #
straight-curve $-1 56.530045472579118 0 11.922056602935358 0 1 0 I I #
vertex $-1 $422 $596 #
point $-1 49.946429878750401 -2.7308858248880092 6.328115074519471 #
vertex $-1 $426 $597 #
point $-1 49.946429878750401 -0.85148786208022642 6.328115074519471 #
vertex $-1 $430 $598 #
point $-1 49.946429878750401 1.0279101007275564 6.328115074519471 #
edge $-1 $547 34.796130977276071 $550 42.374379206340556 $435 $599 forward 7 unknown #
vertex $-1 $449 $600 #
straight-curve $-1 -63.068394368615742 -0.8708762665239469 11.922056602935356 -1 0 0 I I #
edge $-1 $550 -1.1750868864773736 $446 5.2670131924800145 $445 $601 forward 7 unknown #
vertex $-1 $549 $602 #
straight-curve $-1 -56.530045472579104 -0.8708762665239469 4.3438083738708855 0.78801074757464917 0 0.61566148304635926 I I #
point $-1 -46.830330260994742 -0.8708762665239469 11.922056602935358 #
point $-1 -56.530045472579118 -7.312976345481335 4.3438083738708739 #
straight-curve $-1 -56.530045472579118 0 11.922056602935358 0 -1 0 I I #
vertex $-1 $452 $603 #
point $-1 -49.924671496283551 -4.091926306002641 7.5102432702909638 #
coedge $-1 $467 $466 $459 $558 forward $456 $-1 #
edge $-1 $559 34.796130977276071 $562 42.374379206340556 $557 $604 forward 7 unknown #
vertex $-1 $471 $605 #
straight-curve $-1 -63.068394368615742 9.7227475508678936 11.922056602935356 -1 0 0 I I #
edge $-1 $562 -6.4718987951732938 $468 -0.029798716215905685 $467 $606 forward 7 unknown #
vertex $-1 $561 $607 #
straight-curve $-1 -56.530045472579104 9.7227475508678936 4.3438083738708855 0.78801074757464917 0 0.61566148304635926 I I #
point $-1 -46.830330260994742 9.7227475508678936 11.922056602935358 #
point $-1 -56.530045472579118 3.2806474719105054 4.3438083738708739 #
straight-curve $-1 -56.530045472579118 0 11.922056602935358 0 -1 0 I I #
vertex $-1 $474 $608 #
point $-1 -49.924671496283551 6.5016975113891995 7.5102432702909638 #
straight-curve $-1 -56.530045472579118 27.275268193987284 0 0 0 -1 I I #
point $-1 -56.530045472579118 -27.275268193987284 -11.922056602935358 #
straight-curve $-1 -56.530045472579118 0 -11.922056602935358 0 1 0 I I #
point $-1 -56.530045472579118 27.275268193987284 -11.922056602935358 #
edge $-1 $575 -11.922056602935358 $503 11.922056602935358 $495 $609 forward 7 unknown #
straight-curve $-1 -34.185932266708406 -42.724699212397773 -11.922056602935358 -1 0 0 I I #
vertex $-1 $509 $610 #
straight-curve $-1 -34.185932266708406 -42.724699212397773 11.922056602935358 1 0 0 I I #
point $-1 -35.685932266708406 -42.724699212397773 11.922056602935358 #
point $-1 -35.685932266708406 -42.724699212397773 -11.922056602935358 #
point $-1 -32.685932266708406 -42.724699212397773 -11.922056602935358 #
straight-curve $-1 -32.685932266708406 -34.999983703192527 11.922056602935358 0 1 0 I I #
coedge $-1 $583 $513 $514 $582 reversed $385 $-1 #
edge $-1 $589 -56.530045472579118 $520 56.530045472579118 $581 $611 forward 7 unknown #
coedge $-1 $515 $581 $525 $588 reversed $385 $-1 #
straight-curve $-1 0 40.314928007011218 6.5446045615265565 -1 0 0 I I #
point $-1 56.530045472579118 40.314928007011218 6.5446045615265565 #
straight-curve $-1 56.530045472579118 40.314928007011218 4.6272590101947753 0 0 -1 I I #
point $-1 56.530045472579118 40.314928007011218 2.7099134588629941 #
edge $-1 $528 -1.9173455513317812 $589 1.9173455513317812 $583 $612 forward 7 unknown #
vertex $-1 $582 $613 #
straight-curve $-1 -56.530045472579118 33.795098100499246 2.7099134588629941 0 1 0 I I #
point $-1 -56.530045472579118 40.314928007011218 6.5446045615265565 #
straight-curve $-1 56.530045472579118 -3.9838178000931954 80.176181691852051 0 0 -1 I I #
point $-1 56.530045472579118 -3.9838178000931954 11.922056602935358 #
straight-curve $-1 56.530045472579118 -0.42574393104011321 3.9552535848334678 0 1 0 I I #
point $-1 56.530045472579118 -3.9838178000931954 3.9552535848334642 #
point $-1 49.254775076019286 -2.7308858248880092 6.1810993139392432 #
point $-1 49.254775076019286 -0.85148786208022642 6.1810993139392432 #
point $-1 49.254775076019286 1.0279101007275564 6.1810993139392432 #
straight-curve $-1 -56.530045472579118 -0.8708762665239469 46.718187580211428 0 0 -1 I I #
point $-1 -56.530045472579118 -0.8708762665239469 11.922056602935358 #
straight-curve $-1 -56.530045472579118 -2.0459631530013205 4.3438083738708722 0 -1 0 I I #
point $-1 -56.530045472579118 -0.8708762665239469 4.3438083738708739 #
point $-1 -50.097020760811844 -4.091926306002641 6.1065710396699551 #
straight-curve $-1 -56.530045472579118 9.7227475508678936 46.718187580211428 0 0 -1 I I #
point $-1 -56.530045472579118 9.7227475508678936 11.922056602935358 #
straight-curve $-1 -56.530045472579118 3.2508487556945997 4.3438083738708722 0 -1 0 I I #
point $-1 -56.530045472579118 9.7227475508678936 4.3438083738708739 #
point $-1 -50.097020760811844 6.5016975113891995 6.1065710396699551 #
straight-curve $-1 -32.685932266708406 -42.724699212397773 0 0 0 -1 I I #
point $-1 -32.685932266708406 -42.724699212397773 11.922056602935358 #
straight-curve $-1 0 40.314928007011218 2.7099134588629941 1 0 0 I I #
straight-curve $-1 -56.530045472579118 40.314928007011218 4.6272590101947753 0 0 -1 I I #
point $-1 -56.530045472579118 40.314928007011218 2.7099134588629941 #
End-of-ACIS-data 