500 0 9 0           
7 Unknown 11 ACIS 5.0 NT 24 Thu Mar 25 21:24:34 1999 
-1 9.9999999999999995e-007 1e-010 
body $-1 $9 $-1 $10 #
body $-1 $11 $-1 $12 #
body $-1 $13 $-1 $14 #
body $-1 $15 $-1 $16 #
body $-1 $17 $-1 $18 #
body $-1 $19 $-1 $20 #
body $-1 $21 $-1 $22 #
body $-1 $23 $-1 $24 #
body $-1 $25 $-1 $26 #
lump $-1 $-1 $27 $0 #
transform $-1 1 0 0 0 1 0 0 0 1 73.547166356395152 34.780198417886453 17.088862589448119 1 rotate no_reflect no_shear #
lump $-1 $-1 $28 $1 #
transform $-1 1 0 0 0 1 0 0 0 1 73.547166356395152 34.780198417886453 17.088862589448119 1 rotate no_reflect no_shear #
lump $-1 $-1 $29 $2 #
transform $-1 1 0 0 0 1 0 0 0 1 73.547166356395152 34.780198417886453 17.088862589448119 1 rotate no_reflect no_shear #
lump $-1 $-1 $30 $3 #
transform $-1 1 0 0 0 1 0 0 0 1 73.547166356395152 34.780198417886453 17.088862589448119 1 rotate no_reflect no_shear #
lump $-1 $-1 $31 $4 #
transform $-1 1 0 0 0 1 0 0 0 1 73.547166356395152 34.780198417886453 17.088862589448119 1 rotate no_reflect no_shear #
lump $-1 $-1 $32 $5 #
transform $-1 1 0 0 0 1 0 0 0 1 73.547166356395152 34.780198417886453 17.088862589448119 1 rotate no_reflect no_shear #
lump $-1 $-1 $33 $6 #
transform $-1 1 0 0 0 1 0 0 0 1 73.547166356395152 34.780198417886453 17.088862589448119 1 rotate no_reflect no_shear #
lump $-1 $-1 $34 $7 #
transform $-1 1 0 0 0 1 0 0 0 1 73.547166356395152 34.780198417886453 17.088862589448119 1 rotate no_reflect no_shear #
lump $-1 $-1 $35 $8 #
transform $-1 1 0 0 0 1 0 0 0 1 73.547166356395152 34.780198417886453 17.088862589448119 1 rotate no_reflect no_shear #
shell $-1 $-1 $-1 $36 $-1 $9 #
shell $-1 $-1 $-1 $37 $-1 $11 #
shell $-1 $-1 $-1 $38 $-1 $13 #
shell $-1 $-1 $-1 $39 $-1 $15 #
shell $-1 $-1 $-1 $40 $-1 $17 #
shell $-1 $-1 $-1 $41 $-1 $19 #
shell $-1 $-1 $-1 $42 $-1 $21 #
shell $-1 $-1 $-1 $43 $-1 $23 #
shell $-1 $-1 $-1 $44 $-1 $25 #
face $-1 $45 $46 $27 $-1 $47 forward single #
face $-1 $48 $49 $28 $-1 $50 forward single #
face $-1 $51 $52 $29 $-1 $53 reversed single #
face $-1 $54 $55 $30 $-1 $56 forward single #
face $-1 $57 $58 $31 $-1 $59 forward single #
face $-1 $60 $61 $32 $-1 $62 forward single #
face $-1 $63 $64 $33 $-1 $65 reversed single #
face $-1 $66 $67 $34 $-1 $68 forward single #
face $-1 $69 $70 $35 $-1 $71 forward single #
face $-1 $72 $73 $27 $-1 $74 reversed single #
loop $-1 $-1 $75 $36 #
plane-surface $-1 0 0 17.088862589448119 0 0 1 1 0 0 forward_v I I I I #
face $-1 $76 $77 $28 $-1 $78 reversed single #
loop $-1 $-1 $79 $37 #
plane-surface $-1 -73.547166356395152 0 0 1 0 0 0 0 -1 forward_v I I I I #
face $-1 $80 $81 $29 $-1 $82 reversed single #
loop $-1 $-1 $83 $38 #
plane-surface $-1 -55.179218021848953 97.547601975041431 155.86576177129194 1 0 0 0 -0.74314483375859142 -0.66913059716165679 forward_v I I I I #
face $-1 $84 $85 $30 $-1 $86 forward single #
loop $-1 $87 $88 $39 #
cone-surface $-1 -50.641678775516993 27.752236063475031 9.6875045129923585 0 -0.74314483375859142 -0.66913059716165679 1.5 0 0 1 I I 0 1 1.5 forward I I I I #
face $-1 $89 $90 $31 $-1 $91 forward single #
loop $-1 $92 $93 $40 #
cone-surface $-1 -43.835369906019039 27.752236063475031 9.6875045129923585 0 -0.74314483375859142 -0.66913059716165679 1.5 0 0 1 I I 0 1 1.5 forward I I I I #
face $-1 $94 $95 $32 $-1 $96 forward single #
loop $-1 $97 $98 $41 #
cone-surface $-1 -37.029061036521092 27.752236063475031 9.6875045129923585 0 -0.74314483375859142 -0.66913059716165679 1.5 0 0 1 I I 0 1 1.5 forward I I I I #
face $-1 $99 $100 $33 $-1 $101 reversed single #
loop $-1 $-1 $102 $42 #
plane-surface $-1 57.856784481719771 -34.780198417886467 8.4141041905853626 0 -0.81915205242281985 0.57357642473473569 1 0 0 forward_v I I I I #
face $-1 $103 $104 $34 $-1 $105 forward single #
loop $-1 $106 $107 $43 #
cone-surface $-1 51.132335106858903 -30.508742478024857 11.887153938918768 0 0.81915205242281985 -0.57357642473473569 1.5 0 0 1 I I 0 1 1.5 forward I I I I #
face $-1 $108 $109 $35 $-1 $110 forward single #
loop $-1 $111 $112 $44 #
cone-surface $-1 64.581233856580653 -30.508742478024857 11.887153938918768 0 0.81915205242281985 -0.57357642473473569 1.5 0 0 1 I I 0 1 1.5 forward I I I I #
face $-1 $113 $114 $27 $-1 $115 reversed single #
loop $-1 $-1 $116 $45 #
plane-surface $-1 0 0 -17.088862589448119 0 0 1 1 0 0 forward_v I I I I #
coedge $-1 $117 $118 $119 $120 forward $46 $-1 #
face $-1 $121 $122 $28 $-1 $123 reversed single #
loop $-1 $-1 $124 $48 #
plane-surface $-1 0 34.780198417886453 0 0 -1 0 0 0 -1 forward_v I I I I #
coedge $-1 $125 $126 $127 $128 forward $49 $-1 #
face $-1 $129 $130 $29 $-1 $131 reversed single #
loop $-1 $-1 $132 $51 #
plane-surface $-1 -43.835369906019039 -11.764791455636058 57.440443084087136 0 0.74314483375859142 0.66913059716165679 1 0 0 forward_v I I I I #
coedge $-1 $133 $134 $135 $136 reversed $52 $-1 #
face $-1 $-1 $137 $30 $-1 $138 forward single #
loop $-1 $139 $140 $54 #
cone-surface $-1 -50.641678775516993 25.273047337047181 7.455233012696894 0 -0.74314483375859142 -0.66913059716165679 0.75 0 0 1 I I -0.70710678118654757 0.70710678118654757 0.75 forward I I I I #
loop $-1 $-1 $141 $39 #
coedge $-1 $88 $88 $142 $143 reversed $55 $-1 #
face $-1 $-1 $144 $31 $-1 $145 forward single #
loop $-1 $146 $147 $57 #
cone-surface $-1 -43.835369906019039 25.273047337047181 7.455233012696894 0 -0.74314483375859142 -0.66913059716165679 0.75 0 0 1 I I -0.70710678118654757 0.70710678118654757 0.75 forward I I I I #
loop $-1 $-1 $148 $40 #
coedge $-1 $93 $93 $149 $150 reversed $58 $-1 #
face $-1 $-1 $151 $32 $-1 $152 forward single #
loop $-1 $153 $154 $60 #
cone-surface $-1 -37.029061036521092 25.273047337047181 7.455233012696894 0 -0.74314483375859142 -0.66913059716165679 0.75 0 0 1 I I -0.70710678118654757 0.70710678118654757 0.75 forward I I I I #
loop $-1 $-1 $155 $41 #
coedge $-1 $98 $98 $156 $157 reversed $61 $-1 #
face $-1 $158 $159 $33 $-1 $160 reversed single #
loop $-1 $-1 $161 $63 #
plane-surface $-1 42.166402607044397 -155.27282295933378 92.783945646729308 1 0 0 0 0.81915205242281985 -0.57357642473473569 forward_v I I I I #
coedge $-1 $162 $163 $164 $165 reversed $64 $-1 #
face $-1 $-1 $166 $34 $-1 $167 forward single #
loop $-1 $168 $169 $66 #
cone-surface $-1 51.132335106858903 -28.659988018697319 10.592642169269752 0 0.81915205242281985 -0.57357642473473569 0.75 0 0 1 I I -0.70710678118654757 0.70710678118654757 0.75 forward I I I I #
loop $-1 $-1 $170 $43 #
coedge $-1 $107 $107 $171 $172 reversed $67 $-1 #
face $-1 $-1 $173 $35 $-1 $174 forward single #
loop $-1 $175 $176 $69 #
cone-surface $-1 64.581233856580653 -28.659988018697319 10.592642169269752 0 0.81915205242281985 -0.57357642473473569 0.75 0 0 1 I I -0.70710678118654757 0.70710678118654757 0.75 forward I I I I #
loop $-1 $-1 $177 $44 #
coedge $-1 $112 $112 $178 $179 reversed $70 $-1 #
face $-1 $180 $181 $27 $-1 $182 reversed single #
loop $-1 $-1 $183 $72 #
plane-surface $-1 0 -34.780198417886453 0 0 1 0 0 0 1 forward_v I I I I #
coedge $-1 $184 $185 $186 $187 forward $73 $-1 #
coedge $-1 $188 $75 $189 $190 forward $46 $-1 #
coedge $-1 $75 $188 $191 $192 forward $46 $-1 #
coedge $-1 $193 $194 $75 $120 reversed $195 $-1 #
edge $-1 $196 -34.780198417886453 $197 34.780198417886453 $119 $198 forward 7 unknown #
face $-1 $199 $200 $28 $-1 $201 reversed single #
loop $-1 $-1 $127 $76 #
plane-surface $-1 -82.731140523668245 0 13.134126268888258 0 0 1 1 0 0 forward_v I I I I #
coedge $-1 $202 $203 $125 $204 forward $77 $-1 #
coedge $-1 $205 $79 $124 $204 reversed $49 $-1 #
coedge $-1 $79 $205 $206 $207 reversed $49 $-1 #
coedge $-1 $208 $209 $79 $128 reversed $122 $-1 #
edge $-1 $210 -34.780198417886453 $211 34.780198417886453 $127 $212 forward 7 unknown #
face $-1 $213 $214 $29 $-1 $215 forward single #
loop $-1 $-1 $216 $80 #
plane-surface $-1 -32.491521790189125 97.547601975041431 155.86576177129194 -1 0 0 0 0.74314483375859142 0.66913059716165679 forward_v I I I I #
coedge $-1 $217 $218 $219 $220 reversed $81 $-1 #
coedge $-1 $134 $83 $221 $222 reversed $52 $-1 #
coedge $-1 $83 $133 $217 $223 reversed $52 $-1 #
coedge $-1 $219 $224 $83 $136 forward $214 $-1 #
edge $-1 $225 13.993602569634263 $226 24.205867076239272 $135 $227 forward 7 unknown #
loop $-1 $-1 $142 $84 #
plane-surface $-1 -43.835369906019039 -11.764791455636058 57.440443084087136 0 0.74314483375859142 0.66913059716165679 1 0 0 forward_v I I I I #
loop $-1 $-1 $228 $54 #
coedge $-1 $140 $140 $141 $229 reversed $85 $-1 #
coedge $-1 $141 $141 $140 $229 forward $87 $-1 #
coedge $-1 $142 $142 $88 $143 forward $137 $-1 #
edge $-1 $230 -3.5415749050687792e-016 $230 6.2831853071796004 $142 $231 forward 7 unknown #
loop $-1 $-1 $149 $89 #
plane-surface $-1 -43.835369906019039 -11.764791455636058 57.440443084087136 0 0.74314483375859142 0.66913059716165679 1 0 0 forward_v I I I I #
loop $-1 $-1 $232 $57 #
coedge $-1 $147 $147 $148 $233 reversed $90 $-1 #
coedge $-1 $148 $148 $147 $233 forward $92 $-1 #
coedge $-1 $149 $149 $93 $150 forward $144 $-1 #
edge $-1 $234 -3.5415749050687792e-016 $234 6.2831853071796004 $149 $235 forward 7 unknown #
loop $-1 $-1 $156 $94 #
plane-surface $-1 -43.835369906019039 -11.764791455636058 57.440443084087136 0 0.74314483375859142 0.66913059716165679 1 0 0 forward_v I I I I #
loop $-1 $-1 $236 $60 #
coedge $-1 $154 $154 $155 $237 reversed $95 $-1 #
coedge $-1 $155 $155 $154 $237 forward $97 $-1 #
coedge $-1 $156 $156 $98 $157 forward $151 $-1 #
edge $-1 $238 -3.5415749050687792e-016 $238 6.2831853071796004 $156 $239 forward 7 unknown #
face $-1 $240 $241 $33 $-1 $242 forward single #
loop $-1 $-1 $243 $99 #
plane-surface $-1 73.547166356395152 0 0 -1 0 0 0 0 1 forward_v I I I I #
coedge $-1 $244 $245 $246 $247 reversed $100 $-1 #
coedge $-1 $248 $102 $243 $249 reversed $64 $-1 #
coedge $-1 $102 $248 $244 $250 forward $64 $-1 #
coedge $-1 $246 $251 $102 $165 forward $241 $-1 #
edge $-1 $252 -44.618774115535253 $253 -13.238010366184511 $164 $254 forward 7 unknown #
loop $-1 $-1 $171 $103 #
plane-surface $-1 57.856784481719771 -34.780198417886467 8.4141041905853626 0 -0.81915205242281985 0.57357642473473569 1 0 0 forward_v I I I I #
loop $-1 $-1 $255 $66 #
coedge $-1 $169 $169 $170 $256 reversed $104 $-1 #
coedge $-1 $170 $170 $169 $256 forward $106 $-1 #
coedge $-1 $171 $171 $107 $172 forward $166 $-1 #
edge $-1 $257 -1.3564888105599168e-015 $257 6.2831853071795987 $171 $258 forward 7 unknown #
loop $-1 $-1 $178 $108 #
plane-surface $-1 57.856784481719771 -34.780198417886467 8.4141041905853626 0 -0.81915205242281985 0.57357642473473569 1 0 0 forward_v I I I I #
loop $-1 $-1 $259 $69 #
coedge $-1 $176 $176 $177 $260 reversed $109 $-1 #
coedge $-1 $177 $177 $176 $260 forward $111 $-1 #
coedge $-1 $178 $178 $112 $179 forward $173 $-1 #
edge $-1 $261 -1.3564888105599168e-015 $261 6.2831853071795987 $178 $262 forward 7 unknown #
face $-1 $263 $264 $27 $-1 $265 reversed single #
loop $-1 $-1 $266 $113 #
plane-surface $-1 -73.547166356395152 0 0 1 0 0 0 0 -1 forward_v I I I I #
coedge $-1 $267 $191 $268 $269 forward $114 $-1 #
coedge $-1 $270 $116 $267 $271 forward $73 $-1 #
coedge $-1 $116 $270 $272 $273 forward $73 $-1 #
coedge $-1 $194 $193 $116 $187 reversed $195 $-1 #
edge $-1 $274 -34.780198417886453 $275 34.780198417886453 $186 $276 forward 7 unknown #
coedge $-1 $118 $117 $277 $278 forward $46 $-1 #
coedge $-1 $279 $280 $117 $190 reversed $264 $-1 #
edge $-1 $197 -73.547166356395152 $281 73.547166356395152 $189 $282 forward 7 unknown #
coedge $-1 $183 $283 $118 $192 reversed $114 $-1 #
edge $-1 $284 -73.547166356395152 $196 73.547166356395152 $191 $285 forward 7 unknown #
coedge $-1 $186 $119 $283 $286 forward $195 $-1 #
coedge $-1 $119 $186 $279 $287 reversed $195 $-1 #
loop $-1 $-1 $193 $263 #
vertex $-1 $120 $288 #
vertex $-1 $120 $289 #
straight-curve $-1 73.547166356395152 0 17.088862589448119 0 1 0 I I #
face $-1 $290 $291 $28 $-1 $292 forward single #
loop $-1 $-1 $293 $121 #
plane-surface $-1 -91.915114690941337 0 15.111494429168189 1 0 0 0 0 -1 forward_v I I I I #
coedge $-1 $294 $124 $209 $295 reversed $77 $-1 #
coedge $-1 $124 $294 $296 $297 reversed $77 $-1 #
edge $-1 $298 -17.088862589448119 $211 -13.134126268888258 $124 $299 forward 7 unknown #
coedge $-1 $126 $125 $300 $301 reversed $49 $-1 #
coedge $-1 $302 $303 $126 $207 forward $304 $-1 #
edge $-1 $210 13.134126268888258 $305 17.088862589448119 $206 $306 forward 7 unknown #
coedge $-1 $307 $127 $303 $308 forward $122 $-1 #
coedge $-1 $127 $307 $202 $295 forward $122 $-1 #
vertex $-1 $207 $309 #
vertex $-1 $204 $310 #
straight-curve $-1 -73.547166356395152 0 13.134126268888258 0 1 0 I I #
face $-1 $-1 $311 $29 $-1 $312 reversed single #
loop $-1 $-1 $135 $129 #
plane-surface $-1 0 0 17.088862589448119 0 0 1 1 0 0 forward_v I I I I #
coedge $-1 $313 $314 $315 $316 reversed $130 $-1 #
coedge $-1 $317 $132 $134 $223 forward $81 $-1 #
coedge $-1 $132 $317 $313 $318 forward $81 $-1 #
coedge $-1 $315 $135 $132 $220 forward $214 $-1 #
edge $-1 $226 -33.261533068839434 $319 -10.573836837179606 $219 $320 forward 7 unknown #
coedge $-1 $321 $322 $133 $222 forward $311 $-1 #
edge $-1 $323 -72.185887344260891 $225 -60.844018296197852 $221 $324 forward 7 unknown #
edge $-1 $226 54.298406799860913 $323 69.560396835772849 $134 $325 forward 7 unknown #
coedge $-1 $135 $315 $321 $326 forward $214 $-1 #
vertex $-1 $222 $327 #
vertex $-1 $136 $328 #
straight-curve $-1 -55.179218021848953 48.773800987520715 17.088862589448127 0 -1 0 I I #
coedge $-1 $228 $228 $-1 $329 reversed $139 $-1 #
edge $-1 $330 0 $330 6.2831853071796004 $140 $331 forward 7 unknown #
vertex $-1 $143 $332 #
ellipse-curve $-1 -50.641678775516993 29.674066164583948 11.417928065416591 0 0.74314483375859142 0.66913059716165679 1.5 0 0 1 I I #
coedge $-1 $232 $232 $-1 $333 reversed $146 $-1 #
edge $-1 $334 0 $334 6.2831853071796004 $147 $335 forward 7 unknown #
vertex $-1 $150 $336 #
ellipse-curve $-1 -43.835369906019039 29.674066164583948 11.417928065416591 0 0.74314483375859142 0.66913059716165679 1.5 0 0 1 I I #
coedge $-1 $236 $236 $-1 $337 reversed $153 $-1 #
edge $-1 $338 0 $338 6.2831853071796004 $154 $339 forward 7 unknown #
vertex $-1 $157 $340 #
ellipse-curve $-1 -37.029061036521092 29.674066164583948 11.417928065416591 0 0.74314483375859142 0.66913059716165679 1.5 0 0 1 I I #
face $-1 $-1 $341 $33 $-1 $342 reversed single #
loop $-1 $-1 $164 $158 #
plane-surface $-1 0 0 17.088862589448119 0 0 1 1 0 0 forward_v I I I I #
coedge $-1 $343 $344 $162 $249 forward $159 $-1 #
coedge $-1 $245 $161 $163 $250 reversed $100 $-1 #
coedge $-1 $161 $244 $345 $346 reversed $100 $-1 #
coedge $-1 $347 $164 $161 $247 forward $241 $-1 #
edge $-1 $253 -48.930344101482753 $348 -42.856213061780437 $246 $349 forward 7 unknown #
coedge $-1 $163 $162 $350 $351 reversed $64 $-1 #
edge $-1 $352 -6.5283355715392677 $252 4.0615889402839755 $243 $353 forward 7 unknown #
edge $-1 $354 2.4157181099100639e-014 $253 10.589924511823266 $244 $355 forward 7 unknown #
coedge $-1 $164 $347 $343 $356 forward $241 $-1 #
vertex $-1 $165 $357 #
vertex $-1 $165 $358 #
straight-curve $-1 28.928392240859885 -28.706067378184137 17.088862589448119 -1 0 0 I I #
coedge $-1 $255 $255 $-1 $359 reversed $168 $-1 #
edge $-1 $360 0 $360 6.2831853071796004 $169 $361 forward 7 unknown #
vertex $-1 $172 $362 #
ellipse-curve $-1 51.132335106858903 -31.743132898035299 12.751483390016746 0 -0.81915205242281985 0.57357642473473569 1.5 0 0 1 I I #
coedge $-1 $259 $259 $-1 $363 reversed $175 $-1 #
edge $-1 $364 0 $364 6.2831853071796004 $176 $365 forward 7 unknown #
vertex $-1 $179 $366 #
ellipse-curve $-1 64.581233856580653 -31.743132898035299 12.751483390016746 0 -0.81915205242281985 0.57357642473473569 1.5 0 0 1 I I #
face $-1 $-1 $195 $27 $-1 $367 reversed single #
loop $-1 $-1 $279 $180 #
plane-surface $-1 0 34.780198417886453 0 0 -1 0 0 0 -1 forward_v I I I I #
coedge $-1 $368 $277 $280 $369 forward $181 $-1 #
coedge $-1 $283 $183 $184 $271 reversed $114 $-1 #
coedge $-1 $277 $368 $183 $269 reversed $181 $-1 #
edge $-1 $284 -17.088862589448119 $370 17.088862589448119 $268 $371 forward 7 unknown #
coedge $-1 $185 $184 $368 $372 forward $73 $-1 #
edge $-1 $275 -73.547166356395152 $370 73.547166356395152 $267 $373 forward 7 unknown #
coedge $-1 $280 $279 $185 $273 reversed $264 $-1 #
edge $-1 $374 -73.547166356395152 $274 73.547166356395152 $272 $375 forward 7 unknown #
vertex $-1 $187 $376 #
vertex $-1 $286 $377 #
straight-curve $-1 73.547166356395152 0 -17.088862589448119 0 -1 0 I I #
coedge $-1 $266 $268 $188 $278 reversed $181 $-1 #
edge $-1 $281 -34.780198417886453 $284 34.780198417886453 $277 $378 forward 7 unknown #
coedge $-1 $272 $189 $194 $287 forward $264 $-1 #
coedge $-1 $189 $272 $266 $369 reversed $264 $-1 #
vertex $-1 $190 $379 #
straight-curve $-1 0 34.780198417886453 17.088862589448119 -1 0 0 I I #
coedge $-1 $191 $267 $193 $286 reversed $114 $-1 #
vertex $-1 $278 $380 #
straight-curve $-1 0 -34.780198417886453 17.088862589448119 1 0 0 I I #
edge $-1 $196 -17.088862589448119 $275 17.088862589448119 $193 $381 forward 7 unknown #
edge $-1 $197 -17.088862589448119 $274 17.088862589448119 $194 $382 forward 7 unknown #
point $-1 73.547166356395152 -34.780198417886453 17.088862589448119 #
point $-1 73.547166356395152 34.780198417886453 17.088862589448119 #
face $-1 $-1 $304 $28 $-1 $383 reversed single #
loop $-1 $-1 $300 $199 #
plane-surface $-1 0 0 17.088862589448119 0 0 1 1 0 0 forward_v I I I I #
coedge $-1 $384 $385 $294 $386 forward $200 $-1 #
coedge $-1 $203 $202 $293 $386 reversed $77 $-1 #
edge $-1 $387 -9.1839741672730923 $211 9.1839741672730923 $202 $388 forward 7 unknown #
coedge $-1 $389 $300 $203 $297 forward $291 $-1 #
edge $-1 $298 73.547166356395152 $390 91.915114690941337 $203 $391 forward 7 unknown #
vertex $-1 $297 $392 #
straight-curve $-1 -73.547166356395152 34.780198417886453 0 0 0 -1 I I #
coedge $-1 $296 $393 $205 $301 forward $291 $-1 #
edge $-1 $305 -34.780198417886453 $298 34.780198417886453 $300 $394 forward 7 unknown #
coedge $-1 $395 $206 $393 $396 reversed $304 $-1 #
coedge $-1 $206 $395 $208 $308 reversed $304 $-1 #
loop $-1 $-1 $206 $290 #
vertex $-1 $207 $397 #
straight-curve $-1 -73.547166356395152 -34.780198417886453 0 0 0 1 I I #
coedge $-1 $209 $208 $384 $398 forward $122 $-1 #
edge $-1 $210 -9.1839741672730923 $399 9.1839741672730923 $303 $400 forward 7 unknown #
point $-1 -73.547166356395152 -34.780198417886453 13.134126268888258 #
point $-1 -73.547166356395152 34.780198417886453 13.134126268888258 #
loop $-1 $-1 $221 $213 #
plane-surface $-1 0 34.780198417886453 0 0 -1 0 0 0 -1 forward_v I I I I #
coedge $-1 $314 $216 $218 $318 reversed $130 $-1 #
coedge $-1 $216 $313 $401 $402 reversed $130 $-1 #
coedge $-1 $224 $219 $216 $316 forward $214 $-1 #
edge $-1 $319 -24.205867076239272 $403 -13.993602569634263 $315 $404 forward 7 unknown #
coedge $-1 $218 $217 $322 $405 reversed $81 $-1 #
edge $-1 $406 -69.560396835772849 $319 -54.298406799860913 $313 $407 forward 7 unknown #
vertex $-1 $220 $408 #
straight-curve $-1 -21.91768495300952 24.567933911281443 17.088862589448123 1 0 0 I I #
coedge $-1 $401 $221 $224 $326 reversed $311 $-1 #
coedge $-1 $221 $401 $317 $405 forward $311 $-1 #
vertex $-1 $222 $409 #
straight-curve $-1 -55.179218021848953 34.780198417886453 77.932880885645972 0 0 1 I I #
straight-curve $-1 -55.179218021848953 -11.764791455636058 57.440443084087136 0 0.66913059716165679 -0.74314483375859142 I I #
edge $-1 $403 32.491521790189125 $225 55.179218021848953 $321 $410 forward 7 unknown #
point $-1 -55.179218021848953 34.780198417886453 17.088862589448119 #
point $-1 -55.179218021848953 24.567933911281443 17.088862589448119 #
edge $-1 $411 1 $411 0 $228 $-1 forward 7 unknown #
vertex $-1 $229 $412 #
ellipse-curve $-1 -50.641678775516993 25.830405962366125 7.9570809605681365 0 0.74314483375859142 0.66913059716165679 1.5 0 0 1 I I #
point $-1 -49.141678775516993 29.674066164583937 11.417928065416582 #
edge $-1 $413 1 $413 0 $232 $-1 forward 7 unknown #
vertex $-1 $233 $414 #
ellipse-curve $-1 -43.835369906019039 25.830405962366125 7.9570809605681365 0 0.74314483375859142 0.66913059716165679 1.5 0 0 1 I I #
point $-1 -42.335369906019039 29.674066164583937 11.417928065416582 #
edge $-1 $415 1 $415 0 $236 $-1 forward 7 unknown #
vertex $-1 $237 $416 #
ellipse-curve $-1 -37.029061036521092 25.830405962366125 7.9570809605681365 0 0.74314483375859142 0.66913059716165679 1.5 0 0 1 I I #
point $-1 -35.529061036521092 29.674066164583937 11.417928065416582 #
loop $-1 $-1 $350 $240 #
plane-surface $-1 0 -34.780198417886453 0 0 1 0 0 0 1 forward_v I I I I #
coedge $-1 $344 $243 $251 $356 reversed $159 $-1 #
coedge $-1 $243 $343 $417 $418 forward $159 $-1 #
coedge $-1 $350 $419 $245 $346 forward $341 $-1 #
edge $-1 $348 29.303110233916534 $354 37.97786863277927 $345 $420 forward 7 unknown #
coedge $-1 $251 $246 $419 $421 forward $241 $-1 #
vertex $-1 $421 $422 #
straight-curve $-1 42.166402607044397 -77.63641147966689 17.088862589448119 0 -1 0 I I #
coedge $-1 $417 $345 $248 $351 forward $341 $-1 #
edge $-1 $354 13.238010366184511 $352 44.618774115535253 $350 $423 forward 7 unknown #
vertex $-1 $351 $424 #
straight-curve $-1 73.547166356395152 -31.035699041294365 13.761803672916676 0 0.57357642473473569 0.81915205242281985 I I #
vertex $-1 $351 $425 #
straight-curve $-1 42.166402607044397 -34.780198417886467 8.4141041905853626 0 0.57357642473473569 0.81915205242281985 I I #
edge $-1 $426 -34.780198417886453 $252 -28.706067378184137 $343 $427 forward 7 unknown #
point $-1 73.547166356395138 -28.706067378184137 17.088862589448119 #
point $-1 42.166402607044397 -28.706067378184137 17.088862589448119 #
edge $-1 $428 1 $428 0 $255 $-1 forward 7 unknown #
vertex $-1 $256 $429 #
ellipse-curve $-1 51.132335106858903 -29.274352058014433 11.022824487820804 0 -0.81915205242281985 0.57357642473473569 1.5 0 0 1 I I #
point $-1 52.632335106858903 -31.743132898035284 12.751483390016734 #
edge $-1 $430 1 $430 0 $259 $-1 forward 7 unknown #
vertex $-1 $260 $431 #
ellipse-curve $-1 64.581233856580653 -29.274352058014433 11.022824487820804 0 -0.81915205242281985 0.57357642473473569 1.5 0 0 1 I I #
point $-1 66.081233856580653 -31.743132898035284 12.751483390016734 #
plane-surface $-1 73.547166356395152 0 0 -1 0 0 0 0 1 forward_v I I I I #
coedge $-1 $268 $266 $270 $372 reversed $181 $-1 #
edge $-1 $281 -17.088862589448119 $374 17.088862589448119 $280 $432 forward 7 unknown #
vertex $-1 $372 $433 #
straight-curve $-1 -73.547166356395152 -34.780198417886453 0 0 0 -1 I I #
edge $-1 $370 -34.780198417886453 $374 34.780198417886453 $368 $434 forward 7 unknown #
straight-curve $-1 0 -34.780198417886453 -17.088862589448119 -1 0 0 I I #
vertex $-1 $273 $435 #
straight-curve $-1 0 34.780198417886453 -17.088862589448119 1 0 0 I I #
point $-1 73.547166356395152 34.780198417886453 -17.088862589448119 #
point $-1 73.547166356395152 -34.780198417886453 -17.088862589448119 #
straight-curve $-1 -73.547166356395152 0 17.088862589448119 0 -1 0 I I #
point $-1 -73.547166356395152 34.780198417886453 17.088862589448119 #
point $-1 -73.547166356395152 -34.780198417886453 17.088862589448119 #
straight-curve $-1 73.547166356395152 -34.780198417886453 0 0 0 -1 I I #
straight-curve $-1 73.547166356395152 34.780198417886453 0 0 0 -1 I I #
plane-surface $-1 0 -34.780198417886453 0 0 1 0 0 0 1 forward_v I I I I #
coedge $-1 $436 $293 $307 $398 reversed $200 $-1 #
coedge $-1 $293 $436 $389 $437 reversed $200 $-1 #
edge $-1 $390 -1.97736816027993 $387 1.9773681602799318 $294 $438 forward 7 unknown #
vertex $-1 $295 $439 #
straight-curve $-1 -82.731140523668245 34.780198417886453 13.134126268888258 1 0 0 I I #
coedge $-1 $393 $296 $385 $437 forward $291 $-1 #
vertex $-1 $297 $440 #
straight-curve $-1 0 34.780198417886453 17.088862589448119 -1 0 0 I I #
point $-1 -73.547166356395152 34.780198417886453 17.088862589448119 #
coedge $-1 $300 $389 $302 $396 forward $291 $-1 #
straight-curve $-1 -73.547166356395152 0 17.088862589448119 0 1 0 I I #
coedge $-1 $303 $302 $436 $441 forward $304 $-1 #
edge $-1 $442 -91.915114690941337 $305 -73.547166356395152 $302 $443 forward 7 unknown #
point $-1 -73.547166356395152 -34.780198417886453 17.088862589448119 #
edge $-1 $399 -34.780198417886453 $387 34.780198417886453 $384 $444 forward 7 unknown #
vertex $-1 $398 $445 #
straight-curve $-1 -82.731140523668245 -34.780198417886453 13.134126268888258 -1 0 0 I I #
coedge $-1 $322 $321 $314 $402 forward $311 $-1 #
edge $-1 $403 60.844018296197852 $406 72.185887344260891 $401 $446 forward 7 unknown #
vertex $-1 $326 $447 #
straight-curve $-1 -32.491521790189125 48.773800987520715 17.088862589448127 0 1 0 I I #
edge $-1 $406 10.573836837179606 $323 33.261533068839434 $322 $448 forward 7 unknown #
vertex $-1 $405 $449 #
straight-curve $-1 -32.491521790189125 -11.764791455636058 57.440443084087136 0 -0.66913059716165679 0.74314483375859142 I I #
point $-1 -32.491521790189125 24.567933911281443 17.088862589448119 #
point $-1 -55.179218021848953 34.780198417886453 5.7469935413850735 #
straight-curve $-1 0 34.780198417886453 17.088862589448119 -1 0 0 I I #
vertex $-1 $329 $450 #
point $-1 -49.141678775516993 25.830405962366125 7.9570809605681365 #
vertex $-1 $333 $451 #
point $-1 -42.335369906019039 25.830405962366125 7.9570809605681365 #
vertex $-1 $337 $452 #
point $-1 -35.529061036521092 25.830405962366125 7.9570809605681365 #
coedge $-1 $419 $350 $344 $418 reversed $341 $-1 #
edge $-1 $426 -17.088862589448119 $352 -8.4141041905853822 $344 $453 forward 7 unknown #
coedge $-1 $345 $417 $347 $421 reversed $341 $-1 #
straight-curve $-1 42.166402607044397 -34.780198417886453 46.391972823364654 0 0 -1 I I #
edge $-1 $348 42.166402607044397 $426 73.547166356395152 $419 $454 forward 7 unknown #
point $-1 42.166402607044397 -34.780198417886453 17.088862589448119 #
straight-curve $-1 28.928392240859885 -34.780198417886453 8.4141041905853804 1 0 0 I I #
point $-1 73.547166356395138 -34.780198417886453 8.4141041905853822 #
point $-1 42.166402607044397 -34.780198417886453 8.4141041905853822 #
vertex $-1 $356 $455 #
straight-curve $-1 73.547166356395152 0 17.088862589448119 0 1 0 I I #
vertex $-1 $359 $456 #
point $-1 52.632335106858903 -29.274352058014433 11.022824487820804 #
vertex $-1 $363 $457 #
point $-1 66.081233856580653 -29.274352058014433 11.022824487820804 #
straight-curve $-1 -73.547166356395152 34.780198417886453 0 0 0 -1 I I #
point $-1 -73.547166356395152 -34.780198417886453 -17.088862589448119 #
straight-curve $-1 -73.547166356395152 0 -17.088862589448119 0 1 0 I I #
point $-1 -73.547166356395152 34.780198417886453 -17.088862589448119 #
coedge $-1 $385 $384 $395 $441 reversed $200 $-1 #
edge $-1 $390 -34.780198417886453 $442 34.780198417886453 $385 $458 forward 7 unknown #
straight-curve $-1 -91.915114690941337 34.780198417886453 15.111494429168189 0 0 -1 I I #
point $-1 -91.915114690941337 34.780198417886453 13.134126268888258 #
point $-1 -91.915114690941337 34.780198417886453 17.088862589448119 #
edge $-1 $442 -1.97736816027993 $399 1.9773681602799318 $436 $459 forward 7 unknown #
vertex $-1 $437 $460 #
straight-curve $-1 0 -34.780198417886453 17.088862589448119 1 0 0 I I #
straight-curve $-1 -91.915114690941337 0 13.134126268888258 0 1 0 I I #
point $-1 -91.915114690941337 -34.780198417886453 13.134126268888258 #
straight-curve $-1 -32.491521790189125 34.780198417886453 77.932880885645972 0 0 -1 I I #
point $-1 -32.491521790189125 34.780198417886453 17.088862589448119 #
straight-curve $-1 -21.91768495300952 34.78019841788646 5.7469935413850699 -1 0 0 I I #
point $-1 -32.491521790189125 34.780198417886453 5.7469935413850735 #
point $-1 -50.641678775516993 24.715688711728237 6.9533850648256514 #
point $-1 -43.835369906019039 24.715688711728237 6.9533850648256514 #
point $-1 -37.029061036521092 24.715688711728237 6.9533850648256514 #
straight-curve $-1 73.547166356395152 -34.780198417886453 0 0 0 -1 I I #
straight-curve $-1 0 -34.780198417886453 17.088862589448119 1 0 0 I I #
point $-1 73.547166356395152 -34.780198417886453 17.088862589448119 #
point $-1 51.132335106858903 -28.045623979380206 10.162459850718699 #
point $-1 64.581233856580653 -28.045623979380206 10.162459850718699 #
straight-curve $-1 -91.915114690941337 0 17.088862589448119 0 -1 0 I I #
straight-curve $-1 -91.915114690941337 -34.780198417886453 15.111494429168189 0 0 -1 I I #
point $-1 -91.915114690941337 -34.780198417886453 17.088862589448119 #
End-of-ACIS-data 