500 0 18 0           
7 Unknown 11 ACIS 5.0 NT 24 Fri Mar 26 17:28:54 1999 
-1 9.9999999999999995e-007 1e-010 
body $-1 $18 $-1 $19 #
body $-1 $20 $-1 $21 #
body $-1 $22 $-1 $23 #
body $-1 $24 $-1 $25 #
body $-1 $26 $-1 $27 #
body $-1 $28 $-1 $29 #
body $-1 $30 $-1 $31 #
body $-1 $32 $-1 $33 #
body $-1 $34 $-1 $35 #
body $-1 $36 $-1 $37 #
body $-1 $38 $-1 $39 #
body $-1 $40 $-1 $41 #
body $-1 $42 $-1 $43 #
body $-1 $44 $-1 $45 #
body $-1 $46 $-1 $47 #
body $-1 $48 $-1 $49 #
body $-1 $50 $-1 $51 #
body $-1 $52 $-1 $53 #
lump $-1 $-1 $54 $0 #
transform $-1 1 0 0 0 1 0 0 0 1 47.279274880214849 19.279214798791184 6.9786909612861185 1 rotate no_reflect no_shear #
lump $-1 $-1 $55 $1 #
transform $-1 1 0 0 0 1 0 0 0 1 47.279274880214849 19.279214798791184 6.9786909612861185 1 rotate no_reflect no_shear #
lump $-1 $-1 $56 $2 #
transform $-1 1 0 0 0 1 0 0 0 1 47.279274880214849 19.279214798791184 6.9786909612861185 1 rotate no_reflect no_shear #
lump $-1 $-1 $57 $3 #
transform $-1 1 0 0 0 1 0 0 0 1 47.279274880214849 19.279214798791184 6.9786909612861185 1 rotate no_reflect no_shear #
lump $-1 $-1 $58 $4 #
transform $-1 1 0 0 0 1 0 0 0 1 47.279274880214849 19.279214798791184 6.9786909612861185 1 rotate no_reflect no_shear #
lump $-1 $-1 $59 $5 #
transform $-1 1 0 0 0 1 0 0 0 1 47.279274880214849 19.279214798791184 6.9786909612861185 1 rotate no_reflect no_shear #
lump $-1 $-1 $60 $6 #
transform $-1 1 0 0 0 1 0 0 0 1 47.279274880214849 19.279214798791184 6.9786909612861185 1 rotate no_reflect no_shear #
lump $-1 $-1 $61 $7 #
transform $-1 1 0 0 0 1 0 0 0 1 47.279274880214849 19.279214798791184 6.9786909612861185 1 rotate no_reflect no_shear #
lump $-1 $-1 $62 $8 #
transform $-1 1 0 0 0 1 0 0 0 1 47.279274880214849 19.279214798791184 6.9786909612861185 1 rotate no_reflect no_shear #
lump $-1 $-1 $63 $9 #
transform $-1 1 0 0 0 1 0 0 0 1 47.279274880214849 19.279214798791184 6.9786909612861185 1 rotate no_reflect no_shear #
lump $-1 $-1 $64 $10 #
transform $-1 1 0 0 0 1 0 0 0 1 47.279274880214849 19.279214798791184 6.9786909612861185 1 rotate no_reflect no_shear #
lump $-1 $-1 $65 $11 #
transform $-1 1 0 0 0 1 0 0 0 1 47.279274880214849 19.279214798791184 6.9786909612861185 1 rotate no_reflect no_shear #
lump $-1 $-1 $66 $12 #
transform $-1 1 0 0 0 1 0 0 0 1 47.279274880214849 19.279214798791184 6.9786909612861185 1 rotate no_reflect no_shear #
lump $-1 $-1 $67 $13 #
transform $-1 1 0 0 0 1 0 0 0 1 47.279274880214849 19.279214798791184 6.9786909612861185 1 rotate no_reflect no_shear #
lump $-1 $-1 $68 $14 #
transform $-1 1 0 0 0 1 0 0 0 1 47.279274880214849 19.279214798791184 6.9786909612861185 1 rotate no_reflect no_shear #
lump $-1 $-1 $69 $15 #
transform $-1 1 0 0 0 1 0 0 0 1 47.279274880214849 19.279214798791184 6.9786909612861185 1 rotate no_reflect no_shear #
lump $-1 $-1 $70 $16 #
transform $-1 1 0 0 0 1 0 0 0 1 47.279274880214849 19.279214798791184 6.9786909612861185 1 rotate no_reflect no_shear #
lump $-1 $-1 $71 $17 #
transform $-1 1 0 0 0 1 0 0 0 1 47.279274880214849 19.279214798791184 6.9786909612861185 1 rotate no_reflect no_shear #
shell $-1 $-1 $-1 $72 $-1 $18 #
shell $-1 $-1 $-1 $73 $-1 $20 #
shell $-1 $-1 $-1 $74 $-1 $22 #
shell $-1 $-1 $-1 $75 $-1 $24 #
shell $-1 $-1 $-1 $76 $-1 $26 #
shell $-1 $-1 $-1 $77 $-1 $28 #
shell $-1 $-1 $-1 $78 $-1 $30 #
shell $-1 $-1 $-1 $79 $-1 $32 #
shell $-1 $-1 $-1 $80 $-1 $34 #
shell $-1 $-1 $-1 $81 $-1 $36 #
shell $-1 $-1 $-1 $82 $-1 $38 #
shell $-1 $-1 $-1 $83 $-1 $40 #
shell $-1 $-1 $-1 $84 $-1 $42 #
shell $-1 $-1 $-1 $85 $-1 $44 #
shell $-1 $-1 $-1 $86 $-1 $46 #
shell $-1 $-1 $-1 $87 $-1 $48 #
shell $-1 $-1 $-1 $88 $-1 $50 #
shell $-1 $-1 $-1 $89 $-1 $52 #
face $-1 $90 $91 $54 $-1 $92 forward single #
face $-1 $93 $94 $55 $-1 $95 forward single #
face $-1 $96 $97 $56 $-1 $98 reversed single #
face $-1 $99 $100 $57 $-1 $101 forward single #
face $-1 $102 $103 $58 $-1 $104 forward single #
face $-1 $105 $106 $59 $-1 $107 forward single #
face $-1 $108 $109 $60 $-1 $110 reversed single #
face $-1 $111 $112 $61 $-1 $113 forward single #
face $-1 $114 $115 $62 $-1 $116 forward single #
face $-1 $117 $118 $63 $-1 $119 forward single #
face $-1 $120 $121 $64 $-1 $122 reversed single #
face $-1 $123 $124 $65 $-1 $125 forward single #
face $-1 $126 $127 $66 $-1 $128 forward single #
face $-1 $129 $130 $67 $-1 $131 forward single #
face $-1 $132 $133 $68 $-1 $134 reversed single #
face $-1 $135 $136 $69 $-1 $137 forward single #
face $-1 $138 $139 $70 $-1 $140 forward single #
face $-1 $141 $142 $71 $-1 $143 forward single #
face $-1 $144 $145 $54 $-1 $146 reversed single #
loop $-1 $-1 $147 $72 #
plane-surface $-1 0 0 6.9786909612861185 0 0 1 1 0 0 forward_v I I I I #
face $-1 $148 $149 $55 $-1 $150 reversed single #
loop $-1 $-1 $151 $73 #
plane-surface $-1 0 -16.269971394589373 -2.5250412766210131 0 0 1 1 0 0 forward_v I I I I #
face $-1 $152 $153 $56 $-1 $154 reversed single #
loop $-1 $-1 $155 $74 #
plane-surface $-1 -120.76507073025979 -10.034351162222965 63.478056694508794 0 1 0 -0.77714596973225614 0 0.62932038083071107 forward_v I I I I #
face $-1 $156 $157 $57 $-1 $158 forward single #
loop $-1 $159 $160 $75 #
cone-surface $-1 -45.672682760715091 -8.7377500148854281 5.1599023644654256 0.77714596973225614 0 -0.62932038083071107 0.31466019041535553 0 0.38857298486612807 1 I I 0 1 0.5 forward I I I I #
face $-1 $161 $162 $58 $-1 $163 forward single #
loop $-1 $164 $165 $76 #
cone-surface $-1 -45.672682760715091 -6.7928482938791213 5.1599023644654256 0.77714596973225614 0 -0.62932038083071107 0.31466019041535553 0 0.38857298486612807 1 I I 0 1 0.5 forward I I I I #
face $-1 $166 $167 $59 $-1 $168 forward single #
loop $-1 $169 $170 $77 #
cone-surface $-1 -45.672682760715091 -4.8479465728728144 5.1599023644654256 0.77714596973225614 0 -0.62932038083071107 0.31466019041535553 0 0.38857298486612807 1 I I 0 1 0.5 forward I I I I #
face $-1 $171 $172 $60 $-1 $173 reversed single #
loop $-1 $-1 $174 $78 #
plane-surface $-1 -120.76507073025979 6.2356202323664069 63.478056694508794 0 1 0 -0.77714596973225614 0 0.62932038083071107 forward_v I I I I #
face $-1 $175 $176 $61 $-1 $177 forward single #
loop $-1 $178 $179 $79 #
cone-surface $-1 -45.672682760715091 7.5322213797039446 5.1599023644654256 0.77714596973225614 0 -0.62932038083071107 0.31466019041535553 0 0.38857298486612807 1 I I 0 1 0.5 forward I I I I #
face $-1 $180 $181 $62 $-1 $182 forward single #
loop $-1 $183 $184 $80 #
cone-surface $-1 -45.672682760715091 9.4771231007102514 5.1599023644654256 0.77714596973225614 0 -0.62932038083071107 0.31466019041535553 0 0.38857298486612807 1 I I 0 1 0.5 forward I I I I #
face $-1 $185 $186 $63 $-1 $187 forward single #
loop $-1 $188 $189 $81 #
cone-surface $-1 -45.672682760715091 11.422024821716558 5.1599023644654256 0.77714596973225614 0 -0.62932038083071107 0.31466019041535553 0 0.38857298486612807 1 I I 0 1 0.5 forward I I I I #
face $-1 $190 $191 $64 $-1 $192 reversed single #
loop $-1 $-1 $193 $82 #
plane-surface $-1 61.257448184226426 -3.5513454255352768 136.96385254455376 0 -1 0 -0.77714596973225614 0 -0.62932038083071107 forward_v I I I I #
face $-1 $194 $195 $65 $-1 $196 forward single #
loop $-1 $197 $198 $83 #
cone-surface $-1 45.672682760715098 -8.7377500148854281 5.1599023644654221 -0.77714596973225614 0 -0.62932038083071107 0.31466019041535553 0 -0.38857298486612807 1 I I 0 1 0.5 forward I I I I #
face $-1 $199 $200 $66 $-1 $201 forward single #
loop $-1 $202 $203 $84 #
cone-surface $-1 45.672682760715098 -6.7928482938791213 5.1599023644654221 -0.77714596973225614 0 -0.62932038083071107 0.31466019041535553 0 -0.38857298486612807 1 I I 0 1 0.5 forward I I I I #
face $-1 $204 $205 $67 $-1 $206 forward single #
loop $-1 $207 $208 $85 #
cone-surface $-1 45.672682760715098 -4.8479465728728144 5.1599023644654221 -0.77714596973225614 0 -0.62932038083071107 0.31466019041535553 0 -0.38857298486612807 1 I I 0 1 0.5 forward I I I I #
face $-1 $209 $210 $68 $-1 $211 reversed single #
loop $-1 $-1 $212 $86 #
plane-surface $-1 61.257448184226426 12.718625969054095 136.96385254455376 0 -1 0 -0.77714596973225614 0 -0.62932038083071107 forward_v I I I I #
face $-1 $213 $214 $69 $-1 $215 forward single #
loop $-1 $216 $217 $87 #
cone-surface $-1 45.672682760715098 7.5322213797039446 5.1599023644654221 -0.77714596973225614 0 -0.62932038083071107 0.31466019041535553 0 -0.38857298486612807 1 I I 0 1 0.5 forward I I I I #
face $-1 $218 $219 $70 $-1 $220 forward single #
loop $-1 $221 $222 $88 #
cone-surface $-1 45.672682760715098 9.4771231007102514 5.1599023644654221 -0.77714596973225614 0 -0.62932038083071107 0.31466019041535553 0 -0.38857298486612807 1 I I 0 1 0.5 forward I I I I #
face $-1 $223 $224 $71 $-1 $225 forward single #
loop $-1 $226 $227 $89 #
cone-surface $-1 45.672682760715098 11.422024821716558 5.1599023644654221 -0.77714596973225614 0 -0.62932038083071107 0.31466019041535553 0 -0.38857298486612807 1 I I 0 1 0.5 forward I I I I #
face $-1 $228 $229 $54 $-1 $230 reversed single #
loop $-1 $-1 $231 $90 #
plane-surface $-1 0 0 -6.9786909612861185 0 0 1 1 0 0 forward_v I I I I #
coedge $-1 $232 $233 $234 $235 forward $91 $-1 #
face $-1 $236 $237 $55 $-1 $238 reversed single #
loop $-1 $-1 $239 $93 #
plane-surface $-1 0 -16.269971394589373 -5.5250412766210131 0 0 1 1 0 0 forward_v I I I I #
coedge $-1 $240 $241 $242 $243 reversed $94 $-1 #
face $-1 $244 $245 $56 $-1 $246 reversed single #
loop $-1 $-1 $247 $96 #
plane-surface $-1 -47.279274880214857 -6.7928482938791213 3.9704341484754337 -0.77714596973225614 0 0.62932038083071107 0.62932038083071107 0 0.77714596973225614 forward_v I I I I #
coedge $-1 $248 $249 $250 $251 reversed $97 $-1 #
face $-1 $-1 $252 $57 $-1 $253 forward single #
loop $-1 $254 $255 $99 #
cone-surface $-1 -45.089823283415896 -8.7377500148854281 4.687912078842392 0.77714596973225614 0 -0.62932038083071107 0.15733009520767777 0 0.19428649243306403 1 I I -0.70710678118654746 0.70710678118654746 0.25 forward I I I I #
loop $-1 $-1 $256 $75 #
coedge $-1 $160 $160 $257 $258 reversed $100 $-1 #
face $-1 $-1 $259 $58 $-1 $260 forward single #
loop $-1 $261 $262 $102 #
cone-surface $-1 -45.089823283415896 -6.7928482938791213 4.687912078842392 0.77714596973225614 0 -0.62932038083071107 0.15733009520767777 0 0.19428649243306403 1 I I -0.70710678118654746 0.70710678118654746 0.25 forward I I I I #
loop $-1 $-1 $263 $76 #
coedge $-1 $165 $165 $264 $265 reversed $103 $-1 #
face $-1 $-1 $266 $59 $-1 $267 forward single #
loop $-1 $268 $269 $105 #
cone-surface $-1 -45.089823283415896 -4.8479465728728144 4.687912078842392 0.77714596973225614 0 -0.62932038083071107 0.15733009520767777 0 0.19428649243306403 1 I I -0.70710678118654746 0.70710678118654746 0.25 forward I I I I #
loop $-1 $-1 $270 $77 #
coedge $-1 $170 $170 $271 $272 reversed $106 $-1 #
face $-1 $273 $274 $60 $-1 $275 reversed single #
loop $-1 $-1 $276 $108 #
plane-surface $-1 -47.279274880214857 9.4771231007102514 3.9704341484754337 -0.77714596973225614 0 0.62932038083071107 0.62932038083071107 0 0.77714596973225614 forward_v I I I I #
coedge $-1 $277 $278 $279 $280 reversed $109 $-1 #
face $-1 $-1 $281 $61 $-1 $282 forward single #
loop $-1 $283 $284 $111 #
cone-surface $-1 -45.089823283415896 7.5322213797039446 4.687912078842392 0.77714596973225614 0 -0.62932038083071107 0.15733009520767777 0 0.19428649243306403 1 I I -0.70710678118654746 0.70710678118654746 0.25 forward I I I I #
loop $-1 $-1 $285 $79 #
coedge $-1 $179 $179 $286 $287 reversed $112 $-1 #
face $-1 $-1 $288 $62 $-1 $289 forward single #
loop $-1 $290 $291 $114 #
cone-surface $-1 -45.089823283415896 9.4771231007102514 4.687912078842392 0.77714596973225614 0 -0.62932038083071107 0.15733009520767777 0 0.19428649243306403 1 I I -0.70710678118654746 0.70710678118654746 0.25 forward I I I I #
loop $-1 $-1 $292 $80 #
coedge $-1 $184 $184 $293 $294 reversed $115 $-1 #
face $-1 $-1 $295 $63 $-1 $296 forward single #
loop $-1 $297 $298 $117 #
cone-surface $-1 -45.089823283415896 11.422024821716558 4.687912078842392 0.77714596973225614 0 -0.62932038083071107 0.15733009520767777 0 0.19428649243306403 1 I I -0.70710678118654746 0.70710678118654746 0.25 forward I I I I #
loop $-1 $-1 $299 $81 #
coedge $-1 $189 $189 $300 $301 reversed $118 $-1 #
face $-1 $302 $303 $64 $-1 $304 reversed single #
loop $-1 $-1 $305 $120 #
plane-surface $-1 -12.228347665818511 -6.7928482938791213 77.456229998520399 0.77714596973225614 0 0.62932038083071107 0.62932038083071107 0 -0.77714596973225614 forward_v I I I I #
coedge $-1 $306 $307 $308 $309 reversed $121 $-1 #
face $-1 $-1 $310 $65 $-1 $311 forward single #
loop $-1 $312 $313 $123 #
cone-surface $-1 45.089823283415903 -8.7377500148854281 4.6879120788423885 -0.77714596973225614 0 -0.62932038083071107 0.15733009520767777 0 -0.19428649243306403 1 I I -0.70710678118654746 0.70710678118654746 0.25 forward I I I I #
loop $-1 $-1 $314 $83 #
coedge $-1 $198 $198 $315 $316 reversed $124 $-1 #
face $-1 $-1 $317 $66 $-1 $318 forward single #
loop $-1 $319 $320 $126 #
cone-surface $-1 45.089823283415903 -6.7928482938791213 4.6879120788423885 -0.77714596973225614 0 -0.62932038083071107 0.15733009520767777 0 -0.19428649243306403 1 I I -0.70710678118654746 0.70710678118654746 0.25 forward I I I I #
loop $-1 $-1 $321 $84 #
coedge $-1 $203 $203 $322 $323 reversed $127 $-1 #
face $-1 $-1 $324 $67 $-1 $325 forward single #
loop $-1 $326 $327 $129 #
cone-surface $-1 45.089823283415903 -4.8479465728728144 4.6879120788423885 -0.77714596973225614 0 -0.62932038083071107 0.15733009520767777 0 -0.19428649243306403 1 I I -0.70710678118654746 0.70710678118654746 0.25 forward I I I I #
loop $-1 $-1 $328 $85 #
coedge $-1 $208 $208 $329 $330 reversed $130 $-1 #
face $-1 $331 $332 $68 $-1 $333 reversed single #
loop $-1 $-1 $334 $132 #
plane-surface $-1 -12.228347665818511 9.4771231007102514 77.456229998520399 0.77714596973225614 0 0.62932038083071107 0.62932038083071107 0 -0.77714596973225614 forward_v I I I I #
coedge $-1 $335 $336 $337 $338 reversed $133 $-1 #
face $-1 $-1 $339 $69 $-1 $340 forward single #
loop $-1 $341 $342 $135 #
cone-surface $-1 45.089823283415903 7.5322213797039446 4.6879120788423885 -0.77714596973225614 0 -0.62932038083071107 0.15733009520767777 0 -0.19428649243306403 1 I I -0.70710678118654746 0.70710678118654746 0.25 forward I I I I #
loop $-1 $-1 $343 $87 #
coedge $-1 $217 $217 $344 $345 reversed $136 $-1 #
face $-1 $-1 $346 $70 $-1 $347 forward single #
loop $-1 $348 $349 $138 #
cone-surface $-1 45.089823283415903 9.4771231007102514 4.6879120788423885 -0.77714596973225614 0 -0.62932038083071107 0.15733009520767777 0 -0.19428649243306403 1 I I -0.70710678118654746 0.70710678118654746 0.25 forward I I I I #
loop $-1 $-1 $350 $88 #
coedge $-1 $222 $222 $351 $352 reversed $139 $-1 #
face $-1 $-1 $353 $71 $-1 $354 forward single #
loop $-1 $355 $356 $141 #
cone-surface $-1 45.089823283415903 11.422024821716558 4.6879120788423885 -0.77714596973225614 0 -0.62932038083071107 0.15733009520767777 0 -0.19428649243306403 1 I I -0.70710678118654746 0.70710678118654746 0.25 forward I I I I #
loop $-1 $-1 $357 $89 #
coedge $-1 $227 $227 $358 $359 reversed $142 $-1 #
face $-1 $360 $361 $54 $-1 $362 reversed single #
loop $-1 $-1 $363 $144 #
plane-surface $-1 0 -19.279214798791184 0 0 1 0 0 0 1 forward_v I I I I #
coedge $-1 $364 $365 $366 $367 forward $145 $-1 #
coedge $-1 $368 $147 $369 $370 forward $91 $-1 #
coedge $-1 $147 $368 $371 $372 forward $91 $-1 #
coedge $-1 $373 $374 $147 $235 reversed $375 $-1 #
edge $-1 $376 -19.279214798791184 $377 19.279214798791184 $234 $378 forward 7 unknown #
face $-1 $379 $380 $55 $-1 $381 reversed single #
loop $-1 $-1 $382 $148 #
plane-surface $-1 0 -13.260727990387561 -4.0250412766210131 0 -1 0 0 0 -1 forward_v I I I I #
coedge $-1 $383 $384 $385 $386 reversed $149 $-1 #
coedge $-1 $387 $151 $388 $389 forward $94 $-1 #
coedge $-1 $151 $387 $390 $391 reversed $94 $-1 #
coedge $-1 $392 $393 $151 $243 forward $394 $-1 #
edge $-1 $395 5.1257422930928751 $396 11.144229101496498 $242 $397 forward 7 unknown #
face $-1 $398 $399 $56 $-1 $400 reversed single #
loop $-1 $-1 $401 $152 #
plane-surface $-1 -120.76507073025979 -3.5513454255352768 63.478056694508794 0 -1 0 0.77714596973225614 0 -0.62932038083071107 forward_v I I I I #
coedge $-1 $402 $403 $404 $405 reversed $153 $-1 #
coedge $-1 $249 $155 $406 $407 reversed $97 $-1 #
coedge $-1 $155 $248 $402 $408 reversed $97 $-1 #
coedge $-1 $404 $409 $155 $251 forward $410 $-1 #
edge $-1 $411 13.103260484915047 $412 15.539298754182312 $250 $413 forward 7 unknown #
loop $-1 $-1 $257 $156 #
plane-surface $-1 -47.279274880214857 -6.7928482938791213 3.9704341484754337 -0.77714596973225614 0 0.62932038083071107 0.62932038083071107 0 0.77714596973225614 forward_v I I I I #
loop $-1 $-1 $414 $99 #
coedge $-1 $255 $255 $256 $415 reversed $157 $-1 #
coedge $-1 $256 $256 $255 $415 forward $159 $-1 #
coedge $-1 $257 $257 $160 $258 forward $252 $-1 #
edge $-1 $416 0 $416 6.2831853071796004 $257 $417 forward 7 unknown #
loop $-1 $-1 $264 $161 #
plane-surface $-1 -47.279274880214857 -6.7928482938791213 3.9704341484754337 -0.77714596973225614 0 0.62932038083071107 0.62932038083071107 0 0.77714596973225614 forward_v I I I I #
loop $-1 $-1 $418 $102 #
coedge $-1 $262 $262 $263 $419 reversed $162 $-1 #
coedge $-1 $263 $263 $262 $419 forward $164 $-1 #
coedge $-1 $264 $264 $165 $265 forward $259 $-1 #
edge $-1 $420 0 $420 6.2831853071796004 $264 $421 forward 7 unknown #
loop $-1 $-1 $271 $166 #
plane-surface $-1 -47.279274880214857 -6.7928482938791213 3.9704341484754337 -0.77714596973225614 0 0.62932038083071107 0.62932038083071107 0 0.77714596973225614 forward_v I I I I #
loop $-1 $-1 $422 $105 #
coedge $-1 $269 $269 $270 $423 reversed $167 $-1 #
coedge $-1 $270 $270 $269 $423 forward $169 $-1 #
coedge $-1 $271 $271 $170 $272 forward $266 $-1 #
edge $-1 $424 0 $424 6.2831853071796004 $271 $425 forward 7 unknown #
face $-1 $426 $427 $60 $-1 $428 forward single #
loop $-1 $-1 $429 $171 #
plane-surface $-1 -120.76507073025979 12.718625969054095 63.478056694508794 0 -1 0 0.77714596973225614 0 -0.62932038083071107 forward_v I I I I #
coedge $-1 $430 $431 $432 $433 reversed $172 $-1 #
coedge $-1 $278 $174 $434 $435 reversed $109 $-1 #
coedge $-1 $174 $277 $430 $436 reversed $109 $-1 #
coedge $-1 $432 $437 $174 $280 forward $427 $-1 #
edge $-1 $438 13.103260484915047 $439 15.539298754182312 $279 $440 forward 7 unknown #
loop $-1 $-1 $286 $175 #
plane-surface $-1 -47.279274880214857 9.4771231007102514 3.9704341484754337 -0.77714596973225614 0 0.62932038083071107 0.62932038083071107 0 0.77714596973225614 forward_v I I I I #
loop $-1 $-1 $441 $111 #
coedge $-1 $284 $284 $285 $442 reversed $176 $-1 #
coedge $-1 $285 $285 $284 $442 forward $178 $-1 #
coedge $-1 $286 $286 $179 $287 forward $281 $-1 #
edge $-1 $443 0 $443 6.2831853071796004 $286 $444 forward 7 unknown #
loop $-1 $-1 $293 $180 #
plane-surface $-1 -47.279274880214857 9.4771231007102514 3.9704341484754337 -0.77714596973225614 0 0.62932038083071107 0.62932038083071107 0 0.77714596973225614 forward_v I I I I #
loop $-1 $-1 $445 $114 #
coedge $-1 $291 $291 $292 $446 reversed $181 $-1 #
coedge $-1 $292 $292 $291 $446 forward $183 $-1 #
coedge $-1 $293 $293 $184 $294 forward $288 $-1 #
edge $-1 $447 0 $447 6.2831853071796004 $293 $448 forward 7 unknown #
loop $-1 $-1 $300 $185 #
plane-surface $-1 -47.279274880214857 9.4771231007102514 3.9704341484754337 -0.77714596973225614 0 0.62932038083071107 0.62932038083071107 0 0.77714596973225614 forward_v I I I I #
loop $-1 $-1 $449 $117 #
coedge $-1 $298 $298 $299 $450 reversed $186 $-1 #
coedge $-1 $299 $299 $298 $450 forward $188 $-1 #
coedge $-1 $300 $300 $189 $301 forward $295 $-1 #
edge $-1 $451 0 $451 6.2831853071796004 $300 $452 forward 7 unknown #
face $-1 $453 $454 $64 $-1 $455 forward single #
loop $-1 $-1 $456 $190 #
plane-surface $-1 61.257448184226426 -10.034351162222965 136.96385254455376 0 1 0 0.77714596973225614 0 0.62932038083071107 forward_v I I I I #
coedge $-1 $457 $458 $459 $460 reversed $191 $-1 #
coedge $-1 $307 $193 $461 $462 reversed $121 $-1 #
coedge $-1 $193 $306 $457 $463 reversed $121 $-1 #
coedge $-1 $459 $464 $193 $309 forward $454 $-1 #
edge $-1 $465 -16.650550788101636 $466 -14.214512518834386 $308 $467 forward 7 unknown #
loop $-1 $-1 $315 $194 #
plane-surface $-1 -12.228347665818511 -6.7928482938791213 77.456229998520399 0.77714596973225614 0 0.62932038083071107 0.62932038083071107 0 -0.77714596973225614 forward_v I I I I #
loop $-1 $-1 $468 $123 #
coedge $-1 $313 $313 $314 $469 reversed $195 $-1 #
coedge $-1 $314 $314 $313 $469 forward $197 $-1 #
coedge $-1 $315 $315 $198 $316 forward $310 $-1 #
edge $-1 $470 0 $470 6.2831853071796004 $315 $471 forward 7 unknown #
loop $-1 $-1 $322 $199 #
plane-surface $-1 -12.228347665818511 -6.7928482938791213 77.456229998520399 0.77714596973225614 0 0.62932038083071107 0.62932038083071107 0 -0.77714596973225614 forward_v I I I I #
loop $-1 $-1 $472 $126 #
coedge $-1 $320 $320 $321 $473 reversed $200 $-1 #
coedge $-1 $321 $321 $320 $473 forward $202 $-1 #
coedge $-1 $322 $322 $203 $323 forward $317 $-1 #
edge $-1 $474 0 $474 6.2831853071796004 $322 $475 forward 7 unknown #
loop $-1 $-1 $329 $204 #
plane-surface $-1 -12.228347665818511 -6.7928482938791213 77.456229998520399 0.77714596973225614 0 0.62932038083071107 0.62932038083071107 0 -0.77714596973225614 forward_v I I I I #
loop $-1 $-1 $476 $129 #
coedge $-1 $327 $327 $328 $477 reversed $205 $-1 #
coedge $-1 $328 $328 $327 $477 forward $207 $-1 #
coedge $-1 $329 $329 $208 $330 forward $324 $-1 #
edge $-1 $478 0 $478 6.2831853071796004 $329 $479 forward 7 unknown #
face $-1 $480 $481 $68 $-1 $482 reversed single #
loop $-1 $-1 $483 $209 #
plane-surface $-1 61.257448184226426 6.2356202323664069 136.96385254455376 0 1 0 0.77714596973225614 0 0.62932038083071107 forward_v I I I I #
coedge $-1 $484 $485 $486 $487 reversed $210 $-1 #
coedge $-1 $336 $212 $488 $489 reversed $133 $-1 #
coedge $-1 $212 $335 $484 $490 reversed $133 $-1 #
coedge $-1 $486 $491 $212 $338 forward $492 $-1 #
edge $-1 $493 -16.650550788101636 $494 -14.214512518834386 $337 $495 forward 7 unknown #
loop $-1 $-1 $344 $213 #
plane-surface $-1 -12.228347665818511 9.4771231007102514 77.456229998520399 0.77714596973225614 0 0.62932038083071107 0.62932038083071107 0 -0.77714596973225614 forward_v I I I I #
loop $-1 $-1 $496 $135 #
coedge $-1 $342 $342 $343 $497 reversed $214 $-1 #
coedge $-1 $343 $343 $342 $497 forward $216 $-1 #
coedge $-1 $344 $344 $217 $345 forward $339 $-1 #
edge $-1 $498 0 $498 6.2831853071796004 $344 $499 forward 7 unknown #
loop $-1 $-1 $351 $218 #
plane-surface $-1 -12.228347665818511 9.4771231007102514 77.456229998520399 0.77714596973225614 0 0.62932038083071107 0.62932038083071107 0 -0.77714596973225614 forward_v I I I I #
loop $-1 $-1 $500 $138 #
coedge $-1 $349 $349 $350 $501 reversed $219 $-1 #
coedge $-1 $350 $350 $349 $501 forward $221 $-1 #
coedge $-1 $351 $351 $222 $352 forward $346 $-1 #
edge $-1 $502 0 $502 6.2831853071796004 $351 $503 forward 7 unknown #
loop $-1 $-1 $358 $223 #
plane-surface $-1 -12.228347665818511 9.4771231007102514 77.456229998520399 0.77714596973225614 0 0.62932038083071107 0.62932038083071107 0 -0.77714596973225614 forward_v I I I I #
loop $-1 $-1 $504 $141 #
coedge $-1 $356 $356 $357 $505 reversed $224 $-1 #
coedge $-1 $357 $357 $356 $505 forward $226 $-1 #
coedge $-1 $358 $358 $227 $359 forward $353 $-1 #
edge $-1 $506 0 $506 6.2831853071796004 $358 $507 forward 7 unknown #
face $-1 $508 $509 $54 $-1 $510 reversed single #
loop $-1 $-1 $511 $228 #
plane-surface $-1 -47.279274880214849 0 0 1 0 0 0 0 -1 forward_v I I I I #
coedge $-1 $512 $371 $513 $514 forward $229 $-1 #
coedge $-1 $515 $231 $512 $516 forward $145 $-1 #
coedge $-1 $231 $515 $517 $518 forward $145 $-1 #
coedge $-1 $374 $373 $231 $367 reversed $375 $-1 #
edge $-1 $519 -19.279214798791184 $520 19.279214798791184 $366 $521 forward 7 unknown #
coedge $-1 $233 $232 $522 $523 forward $91 $-1 #
coedge $-1 $524 $525 $232 $370 reversed $509 $-1 #
edge $-1 $377 -47.279274880214849 $526 47.279274880214849 $369 $527 forward 7 unknown #
coedge $-1 $363 $528 $233 $372 reversed $229 $-1 #
edge $-1 $529 -47.279274880214849 $376 47.279274880214849 $371 $530 forward 7 unknown #
coedge $-1 $366 $234 $528 $531 forward $375 $-1 #
coedge $-1 $234 $366 $524 $532 reversed $375 $-1 #
loop $-1 $-1 $373 $508 #
vertex $-1 $235 $533 #
vertex $-1 $235 $534 #
straight-curve $-1 47.279274880214849 0 6.9786909612861185 0 1 0 I I #
face $-1 $535 $536 $55 $-1 $537 reversed single #
loop $-1 $-1 $538 $236 #
plane-surface $-1 -47.279274880214849 0 0 1 0 0 0 0 -1 forward_v I I I I #
coedge $-1 $539 $388 $393 $540 reversed $237 $-1 #
coedge $-1 $541 $239 $542 $543 reversed $149 $-1 #
coedge $-1 $239 $541 $539 $544 forward $149 $-1 #
coedge $-1 $393 $392 $239 $386 forward $394 $-1 #
edge $-1 $545 -11.144229101496498 $546 -5.1257422930928751 $385 $547 forward 7 unknown #
coedge $-1 $241 $240 $538 $548 reversed $94 $-1 #
coedge $-1 $382 $549 $240 $389 reversed $237 $-1 #
edge $-1 $395 -47.279274880214849 $550 47.279274880214849 $388 $551 forward 7 unknown #
coedge $-1 $552 $553 $241 $391 forward $536 $-1 #
edge $-1 $396 -47.279274880214849 $554 47.279274880214849 $390 $555 forward 7 unknown #
coedge $-1 $385 $242 $553 $556 forward $394 $-1 #
coedge $-1 $242 $385 $382 $540 forward $394 $-1 #
loop $-1 $-1 $242 $535 #
vertex $-1 $243 $557 #
vertex $-1 $556 $558 #
straight-curve $-1 47.279274880214849 -8.1349856972946863 -2.5250412766210131 0 -1 0 I I #
face $-1 $-1 $410 $56 $-1 $559 forward single #
loop $-1 $-1 $560 $244 #
plane-surface $-1 -47.279274880214849 0 0 1 0 0 0 0 -1 forward_v I I I I #
coedge $-1 $561 $562 $563 $564 reversed $245 $-1 #
coedge $-1 $565 $247 $249 $408 forward $153 $-1 #
coedge $-1 $247 $565 $561 $566 forward $153 $-1 #
coedge $-1 $563 $250 $247 $405 forward $410 $-1 #
edge $-1 $412 -6.6379270152834042 $567 -0.15492127859571614 $404 $568 forward 7 unknown #
coedge $-1 $569 $570 $248 $407 forward $399 $-1 #
edge $-1 $571 -27.768594198778956 $411 -24.760337385968278 $406 $572 forward 7 unknown #
edge $-1 $412 -3.8709031893288914 $571 -1.1374033043381581e-014 $249 $573 forward 7 unknown #
coedge $-1 $250 $563 $569 $574 forward $410 $-1 #
loop $-1 $-1 $563 $398 #
vertex $-1 $407 $575 #
vertex $-1 $251 $576 #
straight-curve $-1 -60.382535365129897 -10.034351162222965 6.9786909612861194 1 0 0 I I #
coedge $-1 $414 $414 $-1 $577 reversed $254 $-1 #
edge $-1 $578 0 $578 6.2831853071796004 $255 $579 forward 7 unknown #
vertex $-1 $258 $580 #
ellipse-curve $-1 -46.061255745581221 -8.7377500148854281 5.4745625548807801 -0.77714596973225614 0 0.62932038083071107 0.31466019041535553 0 0.38857298486612807 1 I I #
coedge $-1 $418 $418 $-1 $581 reversed $261 $-1 #
edge $-1 $582 0 $582 6.2831853071796004 $262 $583 forward 7 unknown #
vertex $-1 $265 $584 #
ellipse-curve $-1 -46.061255745581221 -6.7928482938791213 5.4745625548807801 -0.77714596973225614 0 0.62932038083071107 0.31466019041535553 0 0.38857298486612807 1 I I #
coedge $-1 $422 $422 $-1 $585 reversed $268 $-1 #
edge $-1 $586 0 $586 6.2831853071796004 $269 $587 forward 7 unknown #
vertex $-1 $272 $588 #
ellipse-curve $-1 -46.061255745581221 -4.8479465728728144 5.4745625548807801 -0.77714596973225614 0 0.62932038083071107 0.31466019041535553 0 0.38857298486612807 1 I I #
face $-1 $-1 $589 $60 $-1 $590 reversed single #
loop $-1 $-1 $279 $273 #
plane-surface $-1 0 0 6.9786909612861185 0 0 1 1 0 0 forward_v I I I I #
coedge $-1 $591 $592 $593 $594 reversed $274 $-1 #
coedge $-1 $595 $276 $278 $436 forward $172 $-1 #
coedge $-1 $276 $595 $591 $596 forward $172 $-1 #
coedge $-1 $593 $279 $276 $433 forward $427 $-1 #
edge $-1 $439 1.4970586820112812 $597 7.9800644186989693 $432 $598 forward 7 unknown #
coedge $-1 $599 $600 $277 $435 forward $589 $-1 #
edge $-1 $601 -27.768594198778956 $438 -24.760337385968278 $434 $602 forward 7 unknown #
edge $-1 $439 -3.8709031893288914 $601 -1.1374033043381581e-014 $278 $603 forward 7 unknown #
coedge $-1 $279 $593 $599 $604 forward $427 $-1 #
vertex $-1 $280 $605 #
vertex $-1 $280 $606 #
straight-curve $-1 -60.382535365129897 6.2356202323664069 6.9786909612861194 1 0 0 I I #
coedge $-1 $441 $441 $-1 $607 reversed $283 $-1 #
edge $-1 $608 0 $608 6.2831853071796004 $284 $609 forward 7 unknown #
vertex $-1 $287 $610 #
ellipse-curve $-1 -46.061255745581221 7.5322213797039446 5.4745625548807801 -0.77714596973225614 0 0.62932038083071107 0.31466019041535553 0 0.38857298486612807 1 I I #
coedge $-1 $445 $445 $-1 $611 reversed $290 $-1 #
edge $-1 $612 0 $612 6.2831853071796004 $291 $613 forward 7 unknown #
vertex $-1 $294 $614 #
ellipse-curve $-1 -46.061255745581221 9.4771231007102514 5.4745625548807801 -0.77714596973225614 0 0.62932038083071107 0.31466019041535553 0 0.38857298486612807 1 I I #
coedge $-1 $449 $449 $-1 $615 reversed $297 $-1 #
edge $-1 $616 0 $616 6.2831853071796004 $298 $617 forward 7 unknown #
vertex $-1 $301 $618 #
ellipse-curve $-1 -46.061255745581221 11.422024821716558 5.4745625548807801 -0.77714596973225614 0 0.62932038083071107 0.31466019041535553 0 0.38857298486612807 1 I I #
face $-1 $-1 $619 $64 $-1 $620 reversed single #
loop $-1 $-1 $308 $302 #
plane-surface $-1 0 0 6.9786909612861185 0 0 1 1 0 0 forward_v I I I I #
coedge $-1 $621 $622 $623 $624 reversed $303 $-1 #
coedge $-1 $625 $305 $307 $463 forward $191 $-1 #
coedge $-1 $305 $625 $621 $626 forward $191 $-1 #
coedge $-1 $623 $308 $305 $460 forward $454 $-1 #
edge $-1 $466 0.15492127859571614 $627 6.6379270152834042 $459 $628 forward 7 unknown #
coedge $-1 $629 $630 $306 $462 forward $619 $-1 #
edge $-1 $631 -64.511492123801418 $465 -61.50323531099076 $461 $632 forward 7 unknown #
edge $-1 $466 90.687646571100842 $631 94.558549760429699 $307 $633 forward 7 unknown #
coedge $-1 $308 $623 $629 $634 forward $454 $-1 #
vertex $-1 $462 $635 #
vertex $-1 $309 $636 #
straight-curve $-1 30.628724092113213 -3.5513454255352768 6.9786909612861194 -1 0 0 I I #
coedge $-1 $468 $468 $-1 $637 reversed $312 $-1 #
edge $-1 $638 0 $638 6.2831853071796004 $313 $639 forward 7 unknown #
vertex $-1 $316 $640 #
ellipse-curve $-1 46.061255745581235 -8.7377500148854281 5.4745625548807819 0.77714596973225614 0 0.62932038083071107 0.31466019041535553 0 -0.38857298486612807 1 I I #
coedge $-1 $472 $472 $-1 $641 reversed $319 $-1 #
edge $-1 $642 0 $642 6.2831853071796004 $320 $643 forward 7 unknown #
vertex $-1 $323 $644 #
ellipse-curve $-1 46.061255745581235 -6.7928482938791213 5.4745625548807819 0.77714596973225614 0 0.62932038083071107 0.31466019041535553 0 -0.38857298486612807 1 I I #
coedge $-1 $476 $476 $-1 $645 reversed $326 $-1 #
edge $-1 $646 0 $646 6.2831853071796004 $327 $647 forward 7 unknown #
vertex $-1 $330 $648 #
ellipse-curve $-1 46.061255745581235 -4.8479465728728144 5.4745625548807819 0.77714596973225614 0 0.62932038083071107 0.31466019041535553 0 -0.38857298486612807 1 I I #
face $-1 $-1 $492 $68 $-1 $649 forward single #
loop $-1 $-1 $650 $331 #
plane-surface $-1 47.279274880214849 0 0 -1 0 0 0 0 1 forward_v I I I I #
coedge $-1 $651 $652 $653 $654 reversed $332 $-1 #
coedge $-1 $655 $334 $336 $490 forward $210 $-1 #
coedge $-1 $334 $655 $651 $656 forward $210 $-1 #
coedge $-1 $653 $337 $334 $487 forward $492 $-1 #
edge $-1 $494 -7.9800644186989693 $657 -1.4970586820112812 $486 $658 forward 7 unknown #
coedge $-1 $659 $660 $335 $489 forward $481 $-1 #
edge $-1 $661 -64.511492123801418 $493 -61.50323531099076 $488 $662 forward 7 unknown #
edge $-1 $494 90.687646571100842 $661 94.558549760429699 $336 $663 forward 7 unknown #
coedge $-1 $337 $653 $659 $664 forward $492 $-1 #
loop $-1 $-1 $653 $480 #
vertex $-1 $489 $665 #
vertex $-1 $338 $666 #
straight-curve $-1 30.628724092113213 12.718625969054095 6.9786909612861194 -1 0 0 I I #
coedge $-1 $496 $496 $-1 $667 reversed $341 $-1 #
edge $-1 $668 0 $668 6.2831853071796004 $342 $669 forward 7 unknown #
vertex $-1 $345 $670 #
ellipse-curve $-1 46.061255745581235 7.5322213797039446 5.4745625548807819 0.77714596973225614 0 0.62932038083071107 0.31466019041535553 0 -0.38857298486612807 1 I I #
coedge $-1 $500 $500 $-1 $671 reversed $348 $-1 #
edge $-1 $672 0 $672 6.2831853071796004 $349 $673 forward 7 unknown #
vertex $-1 $352 $674 #
ellipse-curve $-1 46.061255745581235 9.4771231007102514 5.4745625548807819 0.77714596973225614 0 0.62932038083071107 0.31466019041535553 0 -0.38857298486612807 1 I I #
coedge $-1 $504 $504 $-1 $675 reversed $355 $-1 #
edge $-1 $676 0 $676 6.2831853071796004 $356 $677 forward 7 unknown #
vertex $-1 $359 $678 #
ellipse-curve $-1 46.061255745581235 11.422024821716558 5.4745625548807819 0.77714596973225614 0 0.62932038083071107 0.31466019041535553 0 -0.38857298486612807 1 I I #
face $-1 $-1 $375 $54 $-1 $679 reversed single #
loop $-1 $-1 $524 $360 #
plane-surface $-1 0 19.279214798791184 0 0 -1 0 0 0 -1 forward_v I I I I #
coedge $-1 $680 $522 $525 $681 forward $361 $-1 #
coedge $-1 $528 $363 $364 $516 reversed $229 $-1 #
coedge $-1 $522 $680 $363 $514 reversed $361 $-1 #
edge $-1 $529 -6.9786909612861185 $682 6.9786909612861185 $513 $683 forward 7 unknown #
coedge $-1 $365 $364 $680 $684 forward $145 $-1 #
edge $-1 $520 -47.279274880214849 $682 47.279274880214849 $512 $685 forward 7 unknown #
coedge $-1 $525 $524 $365 $518 reversed $509 $-1 #
edge $-1 $686 -47.279274880214849 $519 47.279274880214849 $517 $687 forward 7 unknown #
vertex $-1 $367 $688 #
vertex $-1 $531 $689 #
straight-curve $-1 47.279274880214849 0 -6.9786909612861185 0 -1 0 I I #
coedge $-1 $511 $513 $368 $523 reversed $361 $-1 #
edge $-1 $526 -19.279214798791184 $529 19.279214798791184 $522 $690 forward 7 unknown #
coedge $-1 $517 $369 $374 $532 forward $509 $-1 #
coedge $-1 $369 $517 $511 $681 reversed $509 $-1 #
vertex $-1 $370 $691 #
straight-curve $-1 0 19.279214798791184 6.9786909612861185 -1 0 0 I I #
coedge $-1 $371 $512 $373 $531 reversed $229 $-1 #
vertex $-1 $523 $692 #
straight-curve $-1 0 -19.279214798791184 6.9786909612861185 1 0 0 I I #
edge $-1 $376 -6.9786909612861185 $520 6.9786909612861185 $373 $693 forward 7 unknown #
edge $-1 $377 -6.9786909612861185 $519 6.9786909612861185 $374 $694 forward 7 unknown #
point $-1 47.279274880214849 -19.279214798791184 6.9786909612861185 #
point $-1 47.279274880214849 19.279214798791184 6.9786909612861185 #
face $-1 $-1 $394 $55 $-1 $695 reversed single #
loop $-1 $-1 $390 $379 #
plane-surface $-1 0 -19.279214798791184 0 0 1 0 0 0 1 forward_v I I I I #
coedge $-1 $696 $697 $387 $548 forward $380 $-1 #
coedge $-1 $549 $382 $384 $544 reversed $237 $-1 #
edge $-1 $546 -3.5125206383105065 $395 -0.51252063831050654 $393 $698 forward 7 unknown #
coedge $-1 $384 $383 $699 $700 reversed $149 $-1 #
coedge $-1 $553 $552 $383 $543 forward $536 $-1 #
edge $-1 $701 -47.279274880214849 $545 47.279274880214849 $542 $702 forward 7 unknown #
edge $-1 $703 -47.279274880214849 $546 47.279274880214849 $539 $704 forward 7 unknown #
vertex $-1 $543 $705 #
vertex $-1 $386 $706 #
straight-curve $-1 47.279274880214849 -8.1349856972946863 -5.5250412766210131 0 1 0 I I #
edge $-1 $554 -11.144229101496498 $550 -5.1257422930928751 $538 $707 forward 7 unknown #
coedge $-1 $388 $539 $696 $708 reversed $237 $-1 #
vertex $-1 $548 $709 #
straight-curve $-1 0 -13.260727990387561 -2.5250412766210131 -1 0 0 I I #
coedge $-1 $542 $390 $697 $710 forward $536 $-1 #
coedge $-1 $390 $542 $392 $556 reversed $536 $-1 #
vertex $-1 $710 $711 #
straight-curve $-1 0 -19.279214798791184 -2.5250412766210131 -1 0 0 I I #
edge $-1 $396 2.5250412766210131 $545 5.5250412766210131 $392 $712 forward 7 unknown #
point $-1 47.279274880214849 -13.260727990387561 -2.5250412766210131 #
point $-1 47.279274880214849 -19.279214798791184 -2.5250412766210131 #
plane-surface $-1 0 0 6.9786909612861185 0 0 1 1 0 0 forward_v I I I I #
coedge $-1 $570 $569 $562 $713 forward $399 $-1 #
coedge $-1 $562 $401 $403 $566 reversed $245 $-1 #
coedge $-1 $401 $561 $560 $713 reversed $245 $-1 #
coedge $-1 $409 $404 $401 $564 forward $410 $-1 #
edge $-1 $567 -15.539298754182312 $714 -13.103260484915047 $563 $715 forward 7 unknown #
coedge $-1 $403 $402 $570 $716 reversed $153 $-1 #
edge $-1 $717 1.1374033043381581e-014 $567 3.8709031893288914 $561 $718 forward 7 unknown #
vertex $-1 $405 $719 #
straight-curve $-1 -44.843236610947585 -3.3964241469395606 6.9786909612861194 0 1 0 I I #
coedge $-1 $560 $406 $409 $574 reversed $399 $-1 #
coedge $-1 $406 $560 $565 $716 forward $399 $-1 #
vertex $-1 $407 $720 #
straight-curve $-1 -47.279274880214849 -10.034351162222965 31.739028347254397 0 0 1 I I #
straight-curve $-1 -47.279274880214857 -10.034351162222965 3.9704341484754337 -0.62932038083071107 0 -0.77714596973225614 I I #
edge $-1 $714 3.5513454255352768 $411 10.034351162222965 $569 $721 forward 7 unknown #
point $-1 -47.279274880214849 -10.034351162222965 6.9786909612861185 #
point $-1 -44.843236610947585 -10.034351162222965 6.9786909612861185 #
edge $-1 $722 1 $722 0 $414 $-1 forward 7 unknown #
vertex $-1 $415 $723 #
ellipse-curve $-1 -45.284109775848961 -8.7377500148854281 4.8452421740500702 -0.77714596973225614 0 0.62932038083071107 0.31466019041535553 0 0.38857298486612807 1 I I #
point $-1 -45.746595555165861 -8.7377500148854281 5.8631355397469092 #
edge $-1 $724 1 $724 0 $418 $-1 forward 7 unknown #
vertex $-1 $419 $725 #
ellipse-curve $-1 -45.284109775848961 -6.7928482938791213 4.8452421740500702 -0.77714596973225614 0 0.62932038083071107 0.31466019041535553 0 0.38857298486612807 1 I I #
point $-1 -45.746595555165861 -6.7928482938791213 5.8631355397469092 #
edge $-1 $726 1 $726 0 $422 $-1 forward 7 unknown #
vertex $-1 $423 $727 #
ellipse-curve $-1 -45.284109775848961 -4.8479465728728144 4.8452421740500702 -0.77714596973225614 0 0.62932038083071107 0.31466019041535553 0 0.38857298486612807 1 I I #
point $-1 -45.746595555165861 -4.8479465728728144 5.8631355397469092 #
loop $-1 $-1 $434 $426 #
plane-surface $-1 -47.279274880214849 0 0 1 0 0 0 0 -1 forward_v I I I I #
coedge $-1 $592 $429 $431 $596 reversed $274 $-1 #
coedge $-1 $429 $591 $728 $729 reversed $274 $-1 #
coedge $-1 $437 $432 $429 $594 forward $427 $-1 #
edge $-1 $597 -15.539298754182312 $730 -13.103260484915047 $593 $731 forward 7 unknown #
coedge $-1 $431 $430 $600 $732 reversed $172 $-1 #
edge $-1 $733 1.1374033043381581e-014 $597 3.8709031893288914 $591 $734 forward 7 unknown #
vertex $-1 $433 $735 #
straight-curve $-1 -44.843236610947585 4.7385615503551257 6.9786909612861194 0 1 0 I I #
coedge $-1 $728 $434 $437 $604 reversed $589 $-1 #
coedge $-1 $434 $728 $595 $732 forward $589 $-1 #
vertex $-1 $435 $736 #
straight-curve $-1 -47.279274880214849 6.2356202323664069 31.739028347254397 0 0 1 I I #
straight-curve $-1 -47.279274880214857 6.2356202323664069 3.9704341484754337 -0.62932038083071107 0 -0.77714596973225614 I I #
edge $-1 $730 -12.718625969054095 $438 -6.2356202323664069 $599 $737 forward 7 unknown #
point $-1 -47.279274880214849 6.2356202323664069 6.9786909612861185 #
point $-1 -44.843236610947585 6.2356202323664069 6.9786909612861185 #
edge $-1 $738 1 $738 0 $441 $-1 forward 7 unknown #
vertex $-1 $442 $739 #
ellipse-curve $-1 -45.284109775848961 7.5322213797039446 4.8452421740500702 -0.77714596973225614 0 0.62932038083071107 0.31466019041535553 0 0.38857298486612807 1 I I #
point $-1 -45.746595555165861 7.5322213797039446 5.8631355397469092 #
edge $-1 $740 1 $740 0 $445 $-1 forward 7 unknown #
vertex $-1 $446 $741 #
ellipse-curve $-1 -45.284109775848961 9.4771231007102514 4.8452421740500702 -0.77714596973225614 0 0.62932038083071107 0.31466019041535553 0 0.38857298486612807 1 I I #
point $-1 -45.746595555165861 9.4771231007102514 5.8631355397469092 #
edge $-1 $742 1 $742 0 $449 $-1 forward 7 unknown #
vertex $-1 $450 $743 #
ellipse-curve $-1 -45.284109775848961 11.422024821716558 4.8452421740500702 -0.77714596973225614 0 0.62932038083071107 0.31466019041535553 0 0.38857298486612807 1 I I #
point $-1 -45.746595555165861 11.422024821716558 5.8631355397469092 #
loop $-1 $-1 $461 $453 #
plane-surface $-1 47.279274880214849 0 0 -1 0 0 0 0 1 forward_v I I I I #
coedge $-1 $622 $456 $458 $626 reversed $303 $-1 #
coedge $-1 $456 $621 $744 $745 reversed $303 $-1 #
coedge $-1 $464 $459 $456 $624 forward $454 $-1 #
edge $-1 $627 14.214512518834386 $746 16.650550788101636 $623 $747 forward 7 unknown #
coedge $-1 $458 $457 $630 $748 reversed $191 $-1 #
edge $-1 $749 -94.558549760429699 $627 -90.687646571100842 $621 $750 forward 7 unknown #
vertex $-1 $460 $751 #
straight-curve $-1 44.843236610947599 -3.3964241469395606 6.9786909612861194 0 -1 0 I I #
coedge $-1 $744 $461 $464 $634 reversed $619 $-1 #
coedge $-1 $461 $744 $625 $748 forward $619 $-1 #
vertex $-1 $462 $752 #
straight-curve $-1 47.279274880214849 -3.5513454255352768 68.48192627227688 0 0 1 I I #
straight-curve $-1 -12.228347665818511 -3.5513454255352768 77.456229998520399 0.62932038083071107 0 -0.77714596973225614 I I #
edge $-1 $746 -10.034351162222965 $465 -3.5513454255352768 $629 $753 forward 7 unknown #
point $-1 47.279274880214849 -3.5513454255352768 6.9786909612861185 #
point $-1 44.843236610947599 -3.5513454255352768 6.9786909612861194 #
edge $-1 $754 1 $754 0 $468 $-1 forward 7 unknown #
vertex $-1 $469 $755 #
ellipse-curve $-1 45.284109775848968 -8.7377500148854281 4.8452421740500666 0.77714596973225614 0 0.62932038083071107 0.31466019041535553 0 -0.38857298486612807 1 I I #
point $-1 46.375915935996581 -8.7377500148854281 5.0859895700146494 #
edge $-1 $756 1 $756 0 $472 $-1 forward 7 unknown #
vertex $-1 $473 $757 #
ellipse-curve $-1 45.284109775848968 -6.7928482938791213 4.8452421740500666 0.77714596973225614 0 0.62932038083071107 0.31466019041535553 0 -0.38857298486612807 1 I I #
point $-1 46.375915935996581 -6.7928482938791213 5.0859895700146494 #
edge $-1 $758 1 $758 0 $476 $-1 forward 7 unknown #
vertex $-1 $477 $759 #
ellipse-curve $-1 45.284109775848968 -4.8479465728728144 4.8452421740500666 0.77714596973225614 0 0.62932038083071107 0.31466019041535553 0 -0.38857298486612807 1 I I #
point $-1 46.375915935996581 -4.8479465728728144 5.0859895700146494 #
plane-surface $-1 0 0 6.9786909612861185 0 0 1 1 0 0 forward_v I I I I #
coedge $-1 $660 $659 $652 $760 forward $481 $-1 #
coedge $-1 $652 $483 $485 $656 reversed $332 $-1 #
coedge $-1 $483 $651 $650 $760 reversed $332 $-1 #
coedge $-1 $491 $486 $483 $654 forward $492 $-1 #
edge $-1 $657 14.214512518834386 $761 16.650550788101636 $653 $762 forward 7 unknown #
coedge $-1 $485 $484 $660 $763 reversed $210 $-1 #
edge $-1 $764 -94.558549760429699 $657 -90.687646571100842 $651 $765 forward 7 unknown #
vertex $-1 $487 $766 #
straight-curve $-1 44.843236610947599 4.7385615503551257 6.9786909612861194 0 -1 0 I I #
coedge $-1 $650 $488 $491 $664 reversed $481 $-1 #
coedge $-1 $488 $650 $655 $763 forward $481 $-1 #
vertex $-1 $489 $767 #
straight-curve $-1 47.279274880214849 12.718625969054095 68.48192627227688 0 0 1 I I #
straight-curve $-1 -12.228347665818511 12.718625969054095 77.456229998520399 0.62932038083071107 0 -0.77714596973225614 I I #
edge $-1 $761 6.2356202323664069 $493 12.718625969054095 $659 $768 forward 7 unknown #
point $-1 47.279274880214849 12.718625969054095 6.9786909612861185 #
point $-1 44.843236610947599 12.718625969054095 6.9786909612861194 #
edge $-1 $769 1 $769 0 $496 $-1 forward 7 unknown #
vertex $-1 $497 $770 #
ellipse-curve $-1 45.284109775848968 7.5322213797039446 4.8452421740500666 0.77714596973225614 0 0.62932038083071107 0.31466019041535553 0 -0.38857298486612807 1 I I #
point $-1 46.375915935996581 7.5322213797039446 5.0859895700146494 #
edge $-1 $771 1 $771 0 $500 $-1 forward 7 unknown #
vertex $-1 $501 $772 #
ellipse-curve $-1 45.284109775848968 9.4771231007102514 4.8452421740500666 0.77714596973225614 0 0.62932038083071107 0.31466019041535553 0 -0.38857298486612807 1 I I #
point $-1 46.375915935996581 9.4771231007102514 5.0859895700146494 #
edge $-1 $773 1 $773 0 $504 $-1 forward 7 unknown #
vertex $-1 $505 $774 #
ellipse-curve $-1 45.284109775848968 11.422024821716558 4.8452421740500666 0.77714596973225614 0 0.62932038083071107 0.31466019041535553 0 -0.38857298486612807 1 I I #
point $-1 46.375915935996581 11.422024821716558 5.0859895700146494 #
plane-surface $-1 47.279274880214849 0 0 -1 0 0 0 0 1 forward_v I I I I #
coedge $-1 $513 $511 $515 $684 reversed $361 $-1 #
edge $-1 $526 -6.9786909612861185 $686 6.9786909612861185 $525 $775 forward 7 unknown #
vertex $-1 $684 $776 #
straight-curve $-1 -47.279274880214849 -19.279214798791184 0 0 0 -1 I I #
edge $-1 $682 -19.279214798791184 $686 19.279214798791184 $680 $777 forward 7 unknown #
straight-curve $-1 0 -19.279214798791184 -6.9786909612861185 -1 0 0 I I #
vertex $-1 $518 $778 #
straight-curve $-1 0 19.279214798791184 -6.9786909612861185 1 0 0 I I #
point $-1 47.279274880214849 19.279214798791184 -6.9786909612861185 #
point $-1 47.279274880214849 -19.279214798791184 -6.9786909612861185 #
straight-curve $-1 -47.279274880214849 0 6.9786909612861185 0 -1 0 I I #
point $-1 -47.279274880214849 19.279214798791184 6.9786909612861185 #
point $-1 -47.279274880214849 -19.279214798791184 6.9786909612861185 #
straight-curve $-1 47.279274880214849 -19.279214798791184 0 0 0 -1 I I #
straight-curve $-1 47.279274880214849 19.279214798791184 0 0 0 -1 I I #
plane-surface $-1 47.279274880214849 0 0 -1 0 0 0 0 1 forward_v I I I I #
coedge $-1 $699 $538 $549 $708 forward $380 $-1 #
coedge $-1 $538 $699 $552 $710 reversed $380 $-1 #
straight-curve $-1 47.279274880214849 -13.260727990387561 -2.0125206383105065 0 0 1 I I #
coedge $-1 $697 $696 $541 $700 forward $380 $-1 #
edge $-1 $703 5.1257422930928751 $701 11.144229101496498 $699 $779 forward 7 unknown #
vertex $-1 $543 $780 #
straight-curve $-1 0 -19.279214798791184 -5.5250412766210131 1 0 0 I I #
vertex $-1 $700 $781 #
straight-curve $-1 0 -13.260727990387561 -5.5250412766210131 1 0 0 I I #
point $-1 47.279274880214849 -19.279214798791184 -5.5250412766210131 #
point $-1 47.279274880214849 -13.260727990387561 -5.5250412766210131 #
straight-curve $-1 -47.279274880214849 -8.1349856972946863 -2.5250412766210131 0 1 0 I I #
edge $-1 $550 0.51252063831050654 $703 3.5125206383105065 $696 $782 forward 7 unknown #
point $-1 -47.279274880214849 -13.260727990387561 -2.5250412766210131 #
edge $-1 $554 2.5250412766210131 $701 5.5250412766210131 $697 $783 forward 7 unknown #
point $-1 -47.279274880214849 -19.279214798791184 -2.5250412766210131 #
straight-curve $-1 47.279274880214849 -19.279214798791184 0 0 0 -1 I I #
edge $-1 $714 24.760337385968278 $717 27.768594198778956 $560 $784 forward 7 unknown #
vertex $-1 $574 $785 #
straight-curve $-1 -60.382535365129897 -3.5513454255352768 6.9786909612861194 -1 0 0 I I #
edge $-1 $717 0.15492127859571614 $571 6.6379270152834042 $570 $786 forward 7 unknown #
vertex $-1 $716 $787 #
straight-curve $-1 -47.279274880214857 -3.5513454255352768 3.9704341484754337 0.62932038083071107 0 0.77714596973225614 I I #
point $-1 -44.843236610947585 -3.5513454255352768 6.9786909612861185 #
point $-1 -47.279274880214849 -10.034351162222965 3.9704341484754426 #
straight-curve $-1 -47.279274880214849 0 6.9786909612861185 0 -1 0 I I #
vertex $-1 $577 $788 #
point $-1 -44.969449585433601 -8.7377500148854281 5.2338151589161974 #
vertex $-1 $581 $789 #
point $-1 -44.969449585433601 -6.7928482938791213 5.2338151589161974 #
vertex $-1 $585 $790 #
point $-1 -44.969449585433601 -4.8479465728728144 5.2338151589161974 #
coedge $-1 $600 $599 $592 $729 forward $589 $-1 #
edge $-1 $730 24.760337385968278 $733 27.768594198778956 $728 $791 forward 7 unknown #
vertex $-1 $604 $792 #
straight-curve $-1 -60.382535365129897 12.718625969054095 6.9786909612861194 -1 0 0 I I #
edge $-1 $733 -7.9800644186989693 $601 -1.4970586820112812 $600 $793 forward 7 unknown #
vertex $-1 $732 $794 #
straight-curve $-1 -47.279274880214857 12.718625969054095 3.9704341484754337 0.62932038083071107 0 0.77714596973225614 I I #
point $-1 -44.843236610947585 12.718625969054095 6.9786909612861185 #
point $-1 -47.279274880214849 6.2356202323664069 3.9704341484754426 #
straight-curve $-1 -47.279274880214849 0 6.9786909612861185 0 -1 0 I I #
vertex $-1 $607 $795 #
point $-1 -44.969449585433601 7.5322213797039446 5.2338151589161974 #
vertex $-1 $611 $796 #
point $-1 -44.969449585433601 9.4771231007102514 5.2338151589161974 #
vertex $-1 $615 $797 #
point $-1 -44.969449585433601 11.422024821716558 5.2338151589161974 #
coedge $-1 $630 $629 $622 $745 forward $619 $-1 #
edge $-1 $746 61.50323531099076 $749 64.511492123801418 $744 $798 forward 7 unknown #
vertex $-1 $634 $799 #
straight-curve $-1 30.628724092113213 -10.034351162222965 6.9786909612861194 1 0 0 I I #
edge $-1 $749 -6.6379270152834042 $631 -0.15492127859571614 $630 $800 forward 7 unknown #
vertex $-1 $748 $801 #
straight-curve $-1 -12.228347665818511 -10.034351162222965 77.456229998520399 -0.62932038083071107 0 0.77714596973225614 I I #
point $-1 44.843236610947599 -10.034351162222965 6.9786909612861194 #
point $-1 47.279274880214849 -3.5513454255352768 3.9704341484754622 #
straight-curve $-1 47.279274880214849 0 6.9786909612861185 0 1 0 I I #
vertex $-1 $637 $802 #
point $-1 45.598769966264321 -8.7377500148854281 4.4566691891839385 #
vertex $-1 $641 $803 #
point $-1 45.598769966264321 -6.7928482938791213 4.4566691891839385 #
vertex $-1 $645 $804 #
point $-1 45.598769966264321 -4.8479465728728144 4.4566691891839385 #
edge $-1 $761 61.50323531099076 $764 64.511492123801418 $650 $805 forward 7 unknown #
vertex $-1 $664 $806 #
straight-curve $-1 30.628724092113213 6.2356202323664069 6.9786909612861194 1 0 0 I I #
edge $-1 $764 1.4970586820112812 $661 7.9800644186989693 $660 $807 forward 7 unknown #
vertex $-1 $763 $808 #
straight-curve $-1 -12.228347665818511 6.2356202323664069 77.456229998520399 -0.62932038083071107 0 0.77714596973225614 I I #
point $-1 44.843236610947599 6.2356202323664069 6.9786909612861194 #
point $-1 47.279274880214849 12.718625969054095 3.9704341484754622 #
straight-curve $-1 47.279274880214849 0 6.9786909612861185 0 1 0 I I #
vertex $-1 $667 $809 #
point $-1 45.598769966264321 7.5322213797039446 4.4566691891839385 #
vertex $-1 $671 $810 #
point $-1 45.598769966264321 9.4771231007102514 4.4566691891839385 #
vertex $-1 $675 $811 #
point $-1 45.598769966264321 11.422024821716558 4.4566691891839385 #
straight-curve $-1 -47.279274880214849 19.279214798791184 0 0 0 -1 I I #
point $-1 -47.279274880214849 -19.279214798791184 -6.9786909612861185 #
straight-curve $-1 -47.279274880214849 0 -6.9786909612861185 0 1 0 I I #
point $-1 -47.279274880214849 19.279214798791184 -6.9786909612861185 #
straight-curve $-1 -47.279274880214849 -8.1349856972946863 -5.5250412766210131 0 -1 0 I I #
point $-1 -47.279274880214849 -19.279214798791184 -5.5250412766210131 #
point $-1 -47.279274880214849 -13.260727990387561 -5.5250412766210131 #
straight-curve $-1 -47.279274880214849 -13.260727990387561 -2.0125206383105065 0 0 -1 I I #
straight-curve $-1 -47.279274880214849 -19.279214798791184 0 0 0 -1 I I #
straight-curve $-1 -47.279274880214849 -3.5513454255352768 31.739028347254397 0 0 -1 I I #
point $-1 -47.279274880214849 -3.5513454255352768 6.9786909612861185 #
straight-curve $-1 -47.279274880214849 -3.3964241469395606 3.9704341484754431 0 -1 0 I I #
point $-1 -47.279274880214849 -3.5513454255352768 3.9704341484754426 #
point $-1 -44.895536790982831 -8.7377500148854281 4.5305819836347139 #
point $-1 -44.895536790982831 -6.7928482938791213 4.5305819836347139 #
point $-1 -44.895536790982831 -4.8479465728728144 4.5305819836347139 #
straight-curve $-1 -47.279274880214849 12.718625969054095 31.739028347254397 0 0 -1 I I #
point $-1 -47.279274880214849 12.718625969054095 6.9786909612861185 #
straight-curve $-1 -47.279274880214849 4.7385615503551257 3.9704341484754431 0 -1 0 I I #
point $-1 -47.279274880214849 12.718625969054095 3.9704341484754426 #
point $-1 -44.895536790982831 7.5322213797039446 4.5305819836347139 #
point $-1 -44.895536790982831 9.4771231007102514 4.5305819836347139 #
point $-1 -44.895536790982831 11.422024821716558 4.5305819836347139 #
straight-curve $-1 47.279274880214849 -10.034351162222965 68.48192627227688 0 0 -1 I I #
point $-1 47.279274880214849 -10.034351162222965 6.9786909612861185 #
straight-curve $-1 47.279274880214842 -3.3964241469395606 3.9704341484754693 0 1 0 I I #
point $-1 47.279274880214849 -10.034351162222965 3.9704341484754622 #
point $-1 44.895536790982838 -8.7377500148854281 4.5305819836347103 #
point $-1 44.895536790982838 -6.7928482938791213 4.5305819836347103 #
point $-1 44.895536790982838 -4.8479465728728144 4.5305819836347103 #
straight-curve $-1 47.279274880214849 6.2356202323664069 68.48192627227688 0 0 -1 I I #
point $-1 47.279274880214849 6.2356202323664069 6.9786909612861185 #
straight-curve $-1 47.279274880214842 4.7385615503551257 3.9704341484754693 0 1 0 I I #
point $-1 47.279274880214849 6.2356202323664069 3.9704341484754622 #
point $-1 44.895536790982838 7.5322213797039446 4.5305819836347103 #
point $-1 44.895536790982838 9.4771231007102514 4.5305819836347103 #
point $-1 44.895536790982838 11.422024821716558 4.5305819836347103 #
End-of-ACIS-data 