500 0 12 0           
7 Unknown 11 ACIS 5.0 NT 24 Thu Mar 25 22:36:38 1999 
-1 9.9999999999999995e-007 1e-010 
body $-1 $12 $-1 $13 #
body $-1 $14 $-1 $15 #
body $-1 $16 $-1 $17 #
body $-1 $18 $-1 $19 #
body $-1 $20 $-1 $21 #
body $-1 $22 $-1 $23 #
body $-1 $24 $-1 $25 #
body $-1 $26 $-1 $27 #
body $-1 $28 $-1 $29 #
body $-1 $30 $-1 $31 #
body $-1 $32 $-1 $33 #
body $-1 $34 $-1 $35 #
lump $-1 $-1 $36 $0 #
transform $-1 1 0 0 0 1 0 0 0 1 76.920072023682366 31.508191128546013 12.57365969410894 1 rotate no_reflect no_shear #
lump $-1 $-1 $37 $1 #
transform $-1 1 0 0 0 1 0 0 0 1 76.920072023682366 31.508191128546013 12.57365969410894 1 rotate no_reflect no_shear #
lump $-1 $-1 $38 $2 #
transform $-1 1 0 0 0 1 0 0 0 1 76.920072023682366 31.508191128546013 12.57365969410894 1 rotate no_reflect no_shear #
lump $-1 $-1 $39 $3 #
transform $-1 1 0 0 0 1 0 0 0 1 76.920072023682366 31.508191128546013 12.57365969410894 1 rotate no_reflect no_shear #
lump $-1 $-1 $40 $4 #
transform $-1 1 0 0 0 1 0 0 0 1 76.920072023682366 31.508191128546013 12.57365969410894 1 rotate no_reflect no_shear #
lump $-1 $-1 $41 $5 #
transform $-1 1 0 0 0 1 0 0 0 1 76.920072023682366 31.508191128546013 12.57365969410894 1 rotate no_reflect no_shear #
lump $-1 $-1 $42 $6 #
transform $-1 1 0 0 0 1 0 0 0 1 76.920072023682366 31.508191128546013 12.57365969410894 1 rotate no_reflect no_shear #
lump $-1 $-1 $43 $7 #
transform $-1 1 0 0 0 1 0 0 0 1 76.920072023682366 31.508191128546013 12.57365969410894 1 rotate no_reflect no_shear #
lump $-1 $-1 $44 $8 #
transform $-1 1 0 0 0 1 0 0 0 1 76.920072023682366 31.508191128546013 12.57365969410894 1 rotate no_reflect no_shear #
lump $-1 $-1 $45 $9 #
transform $-1 1 0 0 0 1 0 0 0 1 76.920072023682366 31.508191128546013 12.57365969410894 1 rotate no_reflect no_shear #
lump $-1 $-1 $46 $10 #
transform $-1 1 0 0 0 1 0 0 0 1 76.920072023682366 31.508191128546013 12.57365969410894 1 rotate no_reflect no_shear #
lump $-1 $-1 $47 $11 #
transform $-1 1 0 0 0 1 0 0 0 1 76.920072023682366 31.508191128546013 12.57365969410894 1 rotate no_reflect no_shear #
shell $-1 $-1 $-1 $48 $-1 $12 #
shell $-1 $-1 $-1 $49 $-1 $14 #
shell $-1 $-1 $-1 $50 $-1 $16 #
shell $-1 $-1 $-1 $51 $-1 $18 #
shell $-1 $-1 $-1 $52 $-1 $20 #
shell $-1 $-1 $-1 $53 $-1 $22 #
shell $-1 $-1 $-1 $54 $-1 $24 #
shell $-1 $-1 $-1 $55 $-1 $26 #
shell $-1 $-1 $-1 $56 $-1 $28 #
shell $-1 $-1 $-1 $57 $-1 $30 #
shell $-1 $-1 $-1 $58 $-1 $32 #
shell $-1 $-1 $-1 $59 $-1 $34 #
face $-1 $60 $61 $36 $-1 $62 forward single #
face $-1 $63 $64 $37 $-1 $65 forward single #
face $-1 $66 $67 $38 $-1 $68 reversed single #
face $-1 $69 $70 $39 $-1 $71 forward single #
face $-1 $72 $73 $40 $-1 $74 forward single #
face $-1 $75 $76 $41 $-1 $77 forward single #
face $-1 $78 $79 $42 $-1 $80 reversed single #
face $-1 $81 $82 $43 $-1 $83 forward single #
face $-1 $84 $85 $44 $-1 $86 forward single #
face $-1 $87 $88 $45 $-1 $89 reversed single #
face $-1 $90 $91 $46 $-1 $92 forward single #
face $-1 $93 $94 $47 $-1 $95 forward single #
face $-1 $96 $97 $36 $-1 $98 reversed single #
loop $-1 $-1 $99 $48 #
plane-surface $-1 0 0 12.57365969410894 0 0 1 1 0 0 forward_v I I I I #
face $-1 $100 $101 $37 $-1 $102 reversed single #
loop $-1 $-1 $103 $49 #
plane-surface $-1 0 -26.47386156271245 3.5733329942734571 0 0 1 1 0 0 forward_v I I I I #
face $-1 $104 $105 $38 $-1 $106 reversed single #
loop $-1 $-1 $107 $50 #
plane-surface $-1 -4.6027819684189524 -17.030804920896333 131.89374118604252 0.84804810408105047 0 0.52991925155115449 0.52991925155115449 0 -0.84804810408105047 forward_v I I I I #
face $-1 $108 $109 $39 $-1 $110 forward single #
loop $-1 $111 $112 $51 #
cone-surface $-1 73.014350730865232 -19.676041166485867 6.7368195688384667 -0.84804810408105047 0 -0.52991925155115449 0.26495962577557725 0 -0.42402405204052523 1 I I 0 1 0.5 forward I I I I #
face $-1 $113 $114 $40 $-1 $115 forward single #
loop $-1 $116 $117 $52 #
cone-surface $-1 73.014350730865232 -17.030804920896333 6.7368195688384667 -0.84804810408105047 0 -0.52991925155115449 0.26495962577557725 0 -0.42402405204052523 1 I I 0 1 0.5 forward I I I I #
face $-1 $118 $119 $41 $-1 $120 forward single #
loop $-1 $121 $122 $53 #
cone-surface $-1 73.014350730865232 -14.385568675306803 6.7368195688384667 -0.84804810408105047 0 -0.52991925155115449 0.26495962577557725 0 -0.42402405204052523 1 I I 0 1 0.5 forward I I I I #
face $-1 $123 $124 $42 $-1 $125 reversed single #
loop $-1 $-1 $126 $54 #
plane-surface $-1 -171.63352325994845 -21.439531996878888 129.13946190041423 0 1 0 -0.61566148304635926 0 0.78801074757464917 forward_v I I I I #
face $-1 $127 $128 $43 $-1 $129 forward single #
loop $-1 $130 $131 $55 #
cone-surface $-1 -73.070087553244321 -18.681523415739917 9.1336295471106332 0.61566148304635926 0 -0.78801074757464917 0.78801074757464917 0 0.61566148304635926 1 I I 0 1 1 forward I I I I #
face $-1 $132 $133 $44 $-1 $134 forward single #
loop $-1 $135 $136 $56 #
cone-surface $-1 -73.070087553244321 -14.544510544031464 9.1336295471106332 0.61566148304635926 0 -0.78801074757464917 0.78801074757464917 0 0.61566148304635926 1 I I 0 1 1 forward I I I I #
face $-1 $137 $138 $45 $-1 $139 reversed single #
loop $-1 $-1 $140 $57 #
plane-surface $-1 -171.63352325994845 21.855161094559627 129.13946190041423 0 1 0 -0.61566148304635926 0 0.78801074757464917 forward_v I I I I #
face $-1 $141 $142 $46 $-1 $143 forward single #
loop $-1 $144 $145 $58 #
cone-surface $-1 -73.070087553244321 24.613169675698604 9.1336295471106332 0.61566148304635926 0 -0.78801074757464917 0.78801074757464917 0 0.61566148304635926 1 I I 0 1 1 forward I I I I #
face $-1 $146 $147 $47 $-1 $148 forward single #
loop $-1 $149 $150 $59 #
cone-surface $-1 -73.070087553244321 28.750182547407054 9.1336295471106332 0.61566148304635926 0 -0.78801074757464917 0.78801074757464917 0 0.61566148304635926 1 I I 0 1 1 forward I I I I #
face $-1 $151 $152 $36 $-1 $153 reversed single #
loop $-1 $-1 $154 $60 #
plane-surface $-1 0 0 -12.57365969410894 0 0 1 1 0 0 forward_v I I I I #
coedge $-1 $155 $156 $157 $158 forward $61 $-1 #
face $-1 $159 $160 $37 $-1 $161 reversed single #
loop $-1 $-1 $162 $63 #
plane-surface $-1 0 -26.47386156271245 0.57333299427345707 0 0 1 1 0 0 forward_v I I I I #
coedge $-1 $163 $164 $165 $166 reversed $64 $-1 #
face $-1 $167 $168 $38 $-1 $169 reversed single #
loop $-1 $-1 $170 $66 #
plane-surface $-1 125.8610605225044 -12.622077844913782 213.41659517814384 0 -1 0 -0.84804810408105047 0 -0.52991925155115449 forward_v I I I I #
coedge $-1 $171 $172 $173 $174 reversed $67 $-1 #
face $-1 $-1 $175 $39 $-1 $176 forward single #
loop $-1 $177 $178 $69 #
cone-surface $-1 72.378314652804448 -19.676041166485867 6.3393801301751012 -0.84804810408105047 0 -0.52991925155115449 0.13247981288778862 0 -0.21201202602026262 1 I I -0.70710678118654746 0.70710678118654746 0.25 forward I I I I #
loop $-1 $-1 $179 $51 #
coedge $-1 $112 $112 $180 $181 reversed $70 $-1 #
face $-1 $-1 $182 $40 $-1 $183 forward single #
loop $-1 $184 $185 $72 #
cone-surface $-1 72.378314652804448 -17.030804920896333 6.3393801301751012 -0.84804810408105047 0 -0.52991925155115449 0.13247981288778862 0 -0.21201202602026262 1 I I -0.70710678118654746 0.70710678118654746 0.25 forward I I I I #
loop $-1 $-1 $186 $52 #
coedge $-1 $117 $117 $187 $188 reversed $73 $-1 #
face $-1 $-1 $189 $41 $-1 $190 forward single #
loop $-1 $191 $192 $75 #
cone-surface $-1 72.378314652804448 -14.385568675306803 6.3393801301751012 -0.84804810408105047 0 -0.52991925155115449 0.13247981288778862 0 -0.21201202602026262 1 I I -0.70710678118654746 0.70710678118654746 0.25 forward I I I I #
loop $-1 $-1 $193 $53 #
coedge $-1 $122 $122 $194 $195 reversed $76 $-1 #
face $-1 $196 $197 $42 $-1 $198 reversed single #
loop $-1 $-1 $199 $78 #
plane-surface $-1 -76.920072023682337 -16.613016979885693 7.9117749826586419 -0.61566148304635926 0 0.78801074757464917 0.78801074757464917 0 0.61566148304635926 forward_v I I I I #
coedge $-1 $200 $201 $202 $203 reversed $79 $-1 #
face $-1 $-1 $204 $43 $-1 $205 forward single #
loop $-1 $206 $207 $81 #
cone-surface $-1 -71.895742444365808 -18.681523415739917 7.6305363820501491 0.61566148304635926 0 -0.78801074757464917 0.39400537378732459 0 0.30783074152317963 1 I I -0.70710678118654746 0.70710678118654746 0.5 forward I I I I #
loop $-1 $-1 $208 $55 #
coedge $-1 $131 $131 $209 $210 reversed $82 $-1 #
face $-1 $-1 $211 $44 $-1 $212 forward single #
loop $-1 $213 $214 $84 #
cone-surface $-1 -71.895742444365808 -14.544510544031464 7.6305363820501491 0.61566148304635926 0 -0.78801074757464917 0.39400537378732459 0 0.30783074152317963 1 I I -0.70710678118654746 0.70710678118654746 0.5 forward I I I I #
loop $-1 $-1 $215 $56 #
coedge $-1 $136 $136 $216 $217 reversed $85 $-1 #
face $-1 $218 $219 $45 $-1 $220 forward single #
loop $-1 $-1 $221 $87 #
plane-surface $-1 -76.920072023682337 26.681676111552822 7.9117749826586419 -0.61566148304635926 0 0.78801074757464917 0.78801074757464917 0 0.61566148304635926 forward_v I I I I #
coedge $-1 $222 $223 $224 $225 reversed $88 $-1 #
face $-1 $-1 $226 $46 $-1 $227 forward single #
loop $-1 $228 $229 $90 #
cone-surface $-1 -71.895742444365808 24.613169675698604 7.6305363820501491 0.61566148304635926 0 -0.78801074757464917 0.39400537378732459 0 0.30783074152317963 1 I I -0.70710678118654746 0.70710678118654746 0.5 forward I I I I #
loop $-1 $-1 $230 $58 #
coedge $-1 $145 $145 $231 $232 reversed $91 $-1 #
face $-1 $-1 $233 $47 $-1 $234 forward single #
loop $-1 $235 $236 $93 #
cone-surface $-1 -71.895742444365808 28.750182547407054 7.6305363820501491 0.61566148304635926 0 -0.78801074757464917 0.39400537378732459 0 0.30783074152317963 1 I I -0.70710678118654746 0.70710678118654746 0.5 forward I I I I #
loop $-1 $-1 $237 $59 #
coedge $-1 $150 $150 $238 $239 reversed $94 $-1 #
face $-1 $240 $241 $36 $-1 $242 reversed single #
loop $-1 $-1 $243 $96 #
plane-surface $-1 0 -31.508191128546013 0 0 1 0 0 0 1 forward_v I I I I #
coedge $-1 $244 $245 $246 $247 forward $97 $-1 #
coedge $-1 $248 $99 $249 $250 forward $61 $-1 #
coedge $-1 $99 $248 $251 $252 forward $61 $-1 #
coedge $-1 $253 $254 $99 $158 reversed $255 $-1 #
edge $-1 $256 -31.508191128546013 $257 31.508191128546013 $157 $258 forward 7 unknown #
face $-1 $259 $260 $37 $-1 $261 reversed single #
loop $-1 $-1 $262 $100 #
plane-surface $-1 0 -21.439531996878888 2.0733329942734571 0 -1 0 0 0 -1 forward_v I I I I #
coedge $-1 $263 $264 $265 $266 reversed $101 $-1 #
coedge $-1 $267 $103 $268 $269 forward $64 $-1 #
coedge $-1 $103 $267 $270 $271 reversed $64 $-1 #
coedge $-1 $272 $273 $103 $166 forward $274 $-1 #
edge $-1 $275 8.2026012155226624 $276 18.271260347189788 $165 $277 forward 7 unknown #
face $-1 $278 $279 $38 $-1 $280 forward single #
loop $-1 $-1 $281 $104 #
plane-surface $-1 76.920072023682366 0 0 -1 0 0 0 0 1 forward_v I I I I #
coedge $-1 $282 $283 $284 $285 reversed $105 $-1 #
coedge $-1 $286 $107 $287 $288 reversed $67 $-1 #
coedge $-1 $107 $286 $282 $289 forward $67 $-1 #
coedge $-1 $284 $281 $107 $174 forward $168 $-1 #
edge $-1 $290 -12.924129536430721 $291 -4.1066753844656159 $173 $292 forward 7 unknown #
loop $-1 $-1 $180 $108 #
plane-surface $-1 -4.6027819684189524 -17.030804920896333 131.89374118604252 0.84804810408105047 0 0.52991925155115449 0.52991925155115449 0 -0.84804810408105047 forward_v I I I I #
loop $-1 $-1 $293 $69 #
coedge $-1 $178 $178 $179 $294 reversed $109 $-1 #
coedge $-1 $179 $179 $178 $294 forward $111 $-1 #
coedge $-1 $180 $180 $112 $181 forward $175 $-1 #
edge $-1 $295 0 $295 6.2831853071796004 $180 $296 forward 7 unknown #
loop $-1 $-1 $187 $113 #
plane-surface $-1 -4.6027819684189524 -17.030804920896333 131.89374118604252 0.84804810408105047 0 0.52991925155115449 0.52991925155115449 0 -0.84804810408105047 forward_v I I I I #
loop $-1 $-1 $297 $72 #
coedge $-1 $185 $185 $186 $298 reversed $114 $-1 #
coedge $-1 $186 $186 $185 $298 forward $116 $-1 #
coedge $-1 $187 $187 $117 $188 forward $182 $-1 #
edge $-1 $299 0 $299 6.2831853071796004 $187 $300 forward 7 unknown #
loop $-1 $-1 $194 $118 #
plane-surface $-1 -4.6027819684189524 -17.030804920896333 131.89374118604252 0.84804810408105047 0 0.52991925155115449 0.52991925155115449 0 -0.84804810408105047 forward_v I I I I #
loop $-1 $-1 $301 $75 #
coedge $-1 $192 $192 $193 $302 reversed $119 $-1 #
coedge $-1 $193 $193 $192 $302 forward $121 $-1 #
coedge $-1 $194 $194 $122 $195 forward $189 $-1 #
edge $-1 $303 0 $303 6.2831853071796004 $194 $304 forward 7 unknown #
face $-1 $305 $306 $42 $-1 $307 reversed single #
loop $-1 $-1 $308 $123 #
plane-surface $-1 -171.63352325994845 -11.786501962892498 129.13946190041423 0 -1 0 0.61566148304635926 0 -0.78801074757464917 forward_v I I I I #
coedge $-1 $309 $310 $311 $312 reversed $124 $-1 #
coedge $-1 $201 $126 $313 $314 reversed $79 $-1 #
coedge $-1 $126 $200 $309 $315 reversed $79 $-1 #
coedge $-1 $311 $316 $126 $203 forward $317 $-1 #
edge $-1 $318 8.8966896062918579 $319 14.863629812457347 $202 $320 forward 7 unknown #
loop $-1 $-1 $209 $127 #
plane-surface $-1 -76.920072023682337 -16.613016979885693 7.9117749826586419 -0.61566148304635926 0 0.78801074757464917 0.78801074757464917 0 0.61566148304635926 forward_v I I I I #
loop $-1 $-1 $321 $81 #
coedge $-1 $207 $207 $208 $322 reversed $128 $-1 #
coedge $-1 $208 $208 $207 $322 forward $130 $-1 #
coedge $-1 $209 $209 $131 $210 forward $204 $-1 #
edge $-1 $323 0 $323 6.2831853071796004 $209 $324 forward 7 unknown #
loop $-1 $-1 $216 $132 #
plane-surface $-1 -76.920072023682337 -16.613016979885693 7.9117749826586419 -0.61566148304635926 0 0.78801074757464917 0.78801074757464917 0 0.61566148304635926 forward_v I I I I #
loop $-1 $-1 $325 $84 #
coedge $-1 $214 $214 $215 $326 reversed $133 $-1 #
coedge $-1 $215 $215 $214 $326 forward $135 $-1 #
coedge $-1 $216 $216 $136 $217 forward $211 $-1 #
edge $-1 $327 0 $327 6.2831853071796004 $216 $328 forward 7 unknown #
face $-1 $329 $330 $45 $-1 $331 reversed single #
loop $-1 $-1 $224 $137 #
plane-surface $-1 0 0 12.57365969410894 0 0 1 1 0 0 forward_v I I I I #
coedge $-1 $332 $333 $334 $335 reversed $138 $-1 #
coedge $-1 $223 $140 $336 $337 reversed $88 $-1 #
coedge $-1 $140 $222 $332 $338 reversed $88 $-1 #
coedge $-1 $334 $339 $140 $225 forward $219 $-1 #
edge $-1 $340 8.8966896062918579 $341 14.863629812457347 $224 $342 forward 7 unknown #
loop $-1 $-1 $231 $141 #
plane-surface $-1 -76.920072023682337 26.681676111552822 7.9117749826586419 -0.61566148304635926 0 0.78801074757464917 0.78801074757464917 0 0.61566148304635926 forward_v I I I I #
loop $-1 $-1 $343 $90 #
coedge $-1 $229 $229 $230 $344 reversed $142 $-1 #
coedge $-1 $230 $230 $229 $344 forward $144 $-1 #
coedge $-1 $231 $231 $145 $232 forward $226 $-1 #
edge $-1 $345 0 $345 6.2831853071796004 $231 $346 forward 7 unknown #
loop $-1 $-1 $238 $146 #
plane-surface $-1 -76.920072023682337 26.681676111552822 7.9117749826586419 -0.61566148304635926 0 0.78801074757464917 0.78801074757464917 0 0.61566148304635926 forward_v I I I I #
loop $-1 $-1 $347 $93 #
coedge $-1 $236 $236 $237 $348 reversed $147 $-1 #
coedge $-1 $237 $237 $236 $348 forward $149 $-1 #
coedge $-1 $238 $238 $150 $239 forward $233 $-1 #
edge $-1 $349 0 $349 6.2831853071796004 $238 $350 forward 7 unknown #
face $-1 $351 $352 $36 $-1 $353 reversed single #
loop $-1 $-1 $354 $151 #
plane-surface $-1 -76.920072023682366 0 0 1 0 0 0 0 -1 forward_v I I I I #
coedge $-1 $355 $251 $356 $357 forward $152 $-1 #
coedge $-1 $358 $154 $355 $359 forward $97 $-1 #
coedge $-1 $154 $358 $360 $361 forward $97 $-1 #
coedge $-1 $254 $253 $154 $247 reversed $255 $-1 #
edge $-1 $362 -31.508191128546013 $363 31.508191128546013 $246 $364 forward 7 unknown #
coedge $-1 $156 $155 $365 $366 forward $61 $-1 #
coedge $-1 $367 $368 $155 $250 reversed $352 $-1 #
edge $-1 $257 -76.920072023682366 $369 76.920072023682366 $249 $370 forward 7 unknown #
coedge $-1 $243 $371 $156 $252 reversed $152 $-1 #
edge $-1 $372 -76.920072023682366 $256 76.920072023682366 $251 $373 forward 7 unknown #
coedge $-1 $246 $157 $371 $374 forward $255 $-1 #
coedge $-1 $157 $246 $367 $375 reversed $255 $-1 #
loop $-1 $-1 $253 $351 #
vertex $-1 $158 $376 #
vertex $-1 $158 $377 #
straight-curve $-1 76.920072023682366 0 12.57365969410894 0 1 0 I I #
face $-1 $378 $379 $37 $-1 $380 reversed single #
loop $-1 $-1 $381 $159 #
plane-surface $-1 -76.920072023682366 0 0 1 0 0 0 0 -1 forward_v I I I I #
coedge $-1 $382 $268 $273 $383 reversed $160 $-1 #
coedge $-1 $384 $162 $385 $386 reversed $101 $-1 #
coedge $-1 $162 $384 $382 $387 forward $101 $-1 #
coedge $-1 $273 $272 $162 $266 forward $274 $-1 #
edge $-1 $388 -18.271260347189788 $389 -8.2026012155226624 $265 $390 forward 7 unknown #
coedge $-1 $164 $163 $381 $391 reversed $64 $-1 #
coedge $-1 $262 $392 $163 $269 reversed $160 $-1 #
edge $-1 $275 -76.920072023682366 $393 76.920072023682366 $268 $394 forward 7 unknown #
coedge $-1 $395 $396 $164 $271 forward $379 $-1 #
edge $-1 $276 -76.920072023682366 $397 76.920072023682366 $270 $398 forward 7 unknown #
coedge $-1 $265 $165 $396 $399 forward $274 $-1 #
coedge $-1 $165 $265 $262 $383 forward $274 $-1 #
loop $-1 $-1 $165 $378 #
vertex $-1 $166 $400 #
vertex $-1 $399 $401 #
straight-curve $-1 76.920072023682366 -13.236930781356225 3.5733329942734571 0 -1 0 I I #
face $-1 $-1 $402 $38 $-1 $403 forward single #
loop $-1 $-1 $287 $167 #
plane-surface $-1 0 -21.439531996878888 2.0733329942734571 0 -1 0 0 0 -1 forward_v I I I I #
coedge $-1 $173 $404 $405 $406 forward $168 $-1 #
coedge $-1 $283 $170 $172 $289 reversed $105 $-1 #
coedge $-1 $170 $282 $407 $408 reversed $105 $-1 #
coedge $-1 $404 $173 $170 $285 forward $168 $-1 #
edge $-1 $291 -105.27839889395275 $409 -94.134637894962978 $284 $410 forward 7 unknown #
coedge $-1 $172 $171 $411 $412 reversed $67 $-1 #
coedge $-1 $405 $413 $171 $288 forward $279 $-1 #
edge $-1 $414 84.43313496101122 $290 97.57361714045696 $287 $415 forward 7 unknown #
edge $-1 $416 140.69966186791899 $291 153.84014404736473 $282 $417 forward 7 unknown #
vertex $-1 $288 $418 #
vertex $-1 $174 $419 #
straight-curve $-1 76.920072023682366 -8.5154024604481666 1.4298986951191353 0 1 0 I I #
coedge $-1 $293 $293 $-1 $420 reversed $177 $-1 #
edge $-1 $421 0 $421 6.2831853071796004 $178 $422 forward 7 unknown #
vertex $-1 $181 $423 #
ellipse-curve $-1 73.438374782905768 -19.676041166485867 7.0017791946140511 0.84804810408105047 0 0.52991925155115449 0.26495962577557725 0 -0.42402405204052523 1 I I #
coedge $-1 $297 $297 $-1 $424 reversed $184 $-1 #
edge $-1 $425 0 $425 6.2831853071796004 $185 $426 forward 7 unknown #
vertex $-1 $188 $427 #
ellipse-curve $-1 73.438374782905768 -17.030804920896333 7.0017791946140511 0.84804810408105047 0 0.52991925155115449 0.26495962577557725 0 -0.42402405204052523 1 I I #
coedge $-1 $301 $301 $-1 $428 reversed $191 $-1 #
edge $-1 $429 0 $429 6.2831853071796004 $192 $430 forward 7 unknown #
vertex $-1 $195 $431 #
ellipse-curve $-1 73.438374782905768 -14.385568675306803 7.0017791946140511 0.84804810408105047 0 0.52991925155115449 0.26495962577557725 0 -0.42402405204052523 1 I I #
face $-1 $-1 $317 $42 $-1 $432 forward single #
loop $-1 $-1 $433 $196 #
plane-surface $-1 -76.920072023682366 0 0 1 0 0 0 0 -1 forward_v I I I I #
coedge $-1 $434 $435 $436 $437 reversed $197 $-1 #
coedge $-1 $438 $199 $201 $315 forward $124 $-1 #
coedge $-1 $199 $438 $434 $439 forward $124 $-1 #
coedge $-1 $436 $202 $199 $312 forward $317 $-1 #
edge $-1 $319 -13.133023506936041 $440 -3.4799934729496513 $311 $441 forward 7 unknown #
coedge $-1 $442 $443 $200 $314 forward $306 $-1 #
edge $-1 $444 -56.657955967548496 $318 -51.996071256098176 $313 $445 forward 7 unknown #
edge $-1 $319 -7.5721558678363152 $444 3.606704357266089e-014 $201 $446 forward 7 unknown #
coedge $-1 $202 $436 $442 $447 forward $317 $-1 #
loop $-1 $-1 $436 $305 #
vertex $-1 $314 $448 #
vertex $-1 $203 $449 #
straight-curve $-1 -85.816761629974224 -21.439531996878888 12.57365969410894 1 0 0 I I #
coedge $-1 $321 $321 $-1 $450 reversed $206 $-1 #
edge $-1 $451 0 $451 6.2831853071796004 $207 $452 forward 7 unknown #
vertex $-1 $210 $453 #
ellipse-curve $-1 -73.936601920599628 -18.681523415739917 10.242717338383772 -0.61566148304635926 0 0.78801074757464917 0.78801074757464917 0 0.61566148304635926 1 I I #
coedge $-1 $325 $325 $-1 $454 reversed $213 $-1 #
edge $-1 $455 0 $455 6.2831853071796004 $214 $456 forward 7 unknown #
vertex $-1 $217 $457 #
ellipse-curve $-1 -73.936601920599628 -14.544510544031464 10.242717338383772 -0.61566148304635926 0 0.78801074757464917 0.78801074757464917 0 0.61566148304635926 1 I I #
face $-1 $-1 $458 $45 $-1 $459 reversed single #
loop $-1 $-1 $460 $218 #
plane-surface $-1 0 31.508191128546013 0 0 -1 0 0 0 -1 forward_v I I I I #
coedge $-1 $461 $221 $223 $338 forward $138 $-1 #
coedge $-1 $221 $461 $460 $462 reversed $138 $-1 #
coedge $-1 $463 $224 $221 $335 forward $219 $-1 #
edge $-1 $341 8.5143230387832158 $464 18.167353072769608 $334 $465 forward 7 unknown #
coedge $-1 $466 $467 $222 $337 forward $458 $-1 #
edge $-1 $468 -56.657955967548496 $340 -51.996071256098176 $336 $469 forward 7 unknown #
edge $-1 $341 -7.5721558678363152 $468 3.606704357266089e-014 $223 $470 forward 7 unknown #
coedge $-1 $224 $463 $466 $471 forward $219 $-1 #
vertex $-1 $337 $472 #
vertex $-1 $225 $473 #
straight-curve $-1 -85.816761629974224 21.855161094559627 12.57365969410894 1 0 0 I I #
coedge $-1 $343 $343 $-1 $474 reversed $228 $-1 #
edge $-1 $475 0 $475 6.2831853071796004 $229 $476 forward 7 unknown #
vertex $-1 $232 $477 #
ellipse-curve $-1 -73.936601920599628 24.613169675698604 10.242717338383772 -0.61566148304635926 0 0.78801074757464917 0.78801074757464917 0 0.61566148304635926 1 I I #
coedge $-1 $347 $347 $-1 $478 reversed $235 $-1 #
edge $-1 $479 0 $479 6.2831853071796004 $236 $480 forward 7 unknown #
vertex $-1 $239 $481 #
ellipse-curve $-1 -73.936601920599628 28.750182547407054 10.242717338383772 -0.61566148304635926 0 0.78801074757464917 0.78801074757464917 0 0.61566148304635926 1 I I #
face $-1 $-1 $255 $36 $-1 $482 reversed single #
loop $-1 $-1 $367 $240 #
plane-surface $-1 0 31.508191128546013 0 0 -1 0 0 0 -1 forward_v I I I I #
coedge $-1 $483 $365 $368 $484 forward $241 $-1 #
coedge $-1 $371 $243 $244 $359 reversed $152 $-1 #
coedge $-1 $365 $483 $243 $357 reversed $241 $-1 #
edge $-1 $372 -12.57365969410894 $485 12.57365969410894 $356 $486 forward 7 unknown #
coedge $-1 $245 $244 $483 $487 forward $97 $-1 #
edge $-1 $363 -76.920072023682366 $485 76.920072023682366 $355 $488 forward 7 unknown #
coedge $-1 $368 $367 $245 $361 reversed $352 $-1 #
edge $-1 $489 -76.920072023682366 $362 76.920072023682366 $360 $490 forward 7 unknown #
vertex $-1 $247 $491 #
vertex $-1 $374 $492 #
straight-curve $-1 76.920072023682366 0 -12.57365969410894 0 -1 0 I I #
coedge $-1 $354 $356 $248 $366 reversed $241 $-1 #
edge $-1 $369 -31.508191128546013 $372 31.508191128546013 $365 $493 forward 7 unknown #
coedge $-1 $360 $249 $254 $375 forward $352 $-1 #
coedge $-1 $249 $360 $354 $484 reversed $352 $-1 #
vertex $-1 $250 $494 #
straight-curve $-1 0 31.508191128546013 12.57365969410894 -1 0 0 I I #
coedge $-1 $251 $355 $253 $374 reversed $152 $-1 #
vertex $-1 $366 $495 #
straight-curve $-1 0 -31.508191128546013 12.57365969410894 1 0 0 I I #
edge $-1 $256 -12.57365969410894 $363 12.57365969410894 $253 $496 forward 7 unknown #
edge $-1 $257 -12.57365969410894 $362 12.57365969410894 $254 $497 forward 7 unknown #
point $-1 76.920072023682366 -31.508191128546013 12.57365969410894 #
point $-1 76.920072023682366 31.508191128546013 12.57365969410894 #
face $-1 $-1 $274 $37 $-1 $498 reversed single #
loop $-1 $-1 $270 $259 #
plane-surface $-1 0 -31.508191128546013 0 0 1 0 0 0 1 forward_v I I I I #
coedge $-1 $499 $500 $267 $391 forward $260 $-1 #
coedge $-1 $392 $262 $264 $387 reversed $160 $-1 #
edge $-1 $389 -0.46333350286327146 $275 2.5366664971367285 $273 $501 forward 7 unknown #
coedge $-1 $264 $263 $502 $503 reversed $101 $-1 #
coedge $-1 $396 $395 $263 $386 forward $379 $-1 #
edge $-1 $504 -76.920072023682366 $388 76.920072023682366 $385 $505 forward 7 unknown #
edge $-1 $506 -76.920072023682366 $389 76.920072023682366 $382 $507 forward 7 unknown #
vertex $-1 $386 $508 #
vertex $-1 $266 $509 #
straight-curve $-1 76.920072023682366 -13.236930781356225 0.57333299427345707 0 1 0 I I #
edge $-1 $397 -18.271260347189788 $393 -8.2026012155226624 $381 $510 forward 7 unknown #
coedge $-1 $268 $382 $499 $511 reversed $160 $-1 #
vertex $-1 $391 $512 #
straight-curve $-1 0 -21.439531996878888 3.5733329942734571 -1 0 0 I I #
coedge $-1 $385 $270 $500 $513 forward $379 $-1 #
coedge $-1 $270 $385 $272 $399 reversed $379 $-1 #
vertex $-1 $513 $514 #
straight-curve $-1 0 -31.508191128546013 3.5733329942734571 -1 0 0 I I #
edge $-1 $276 -3.5733329942734571 $388 -0.57333299427345707 $272 $515 forward 7 unknown #
point $-1 76.920072023682366 -21.439531996878888 3.5733329942734571 #
point $-1 76.920072023682366 -31.508191128546013 3.5733329942734571 #
loop $-1 $-1 $516 $278 #
plane-surface $-1 0 0 12.57365969410894 0 0 1 1 0 0 forward_v I I I I #
coedge $-1 $281 $284 $517 $518 reversed $168 $-1 #
coedge $-1 $413 $287 $281 $406 reversed $279 $-1 #
edge $-1 $519 94.134637894962978 $290 105.27839889395277 $281 $520 forward 7 unknown #
coedge $-1 $411 $517 $283 $408 forward $402 $-1 #
edge $-1 $409 -13.989541762430164 $416 -7.0261472808769838 $407 $521 forward 7 unknown #
vertex $-1 $285 $522 #
straight-curve $-1 76.920072023682366 -12.622077844913782 106.70829758907192 0 0 1 I I #
coedge $-1 $516 $407 $286 $412 forward $402 $-1 #
edge $-1 $416 4.1066753844656159 $414 12.924129536430717 $411 $523 forward 7 unknown #
coedge $-1 $287 $405 $516 $524 reversed $279 $-1 #
vertex $-1 $524 $525 #
straight-curve $-1 25.213933857472512 -21.439531996878888 84.177019719413977 0.52991925155115449 0 -0.84804810408105047 I I #
vertex $-1 $412 $526 #
straight-curve $-1 -4.6027819684189524 -12.622077844913782 131.89374118604252 0.52991925155115449 0 -0.84804810408105047 I I #
point $-1 76.920072023682366 -21.439531996878888 1.4298986951191448 #
point $-1 76.920072023682366 -12.622077844913782 1.4298986951191637 #
edge $-1 $527 1 $527 0 $293 $-1 forward 7 unknown #
vertex $-1 $294 $528 #
ellipse-curve $-1 72.590326678824709 -19.676041166485867 6.4718599430628894 0.84804810408105047 0 0.52991925155115449 0.26495962577557725 0 -0.42402405204052523 1 I I #
point $-1 73.703334408681343 -19.676041166485867 6.577755142573519 #
edge $-1 $529 1 $529 0 $297 $-1 forward 7 unknown #
vertex $-1 $298 $530 #
ellipse-curve $-1 72.590326678824709 -17.030804920896333 6.4718599430628894 0.84804810408105047 0 0.52991925155115449 0.26495962577557725 0 -0.42402405204052523 1 I I #
point $-1 73.703334408681343 -17.030804920896333 6.577755142573519 #
edge $-1 $531 1 $531 0 $301 $-1 forward 7 unknown #
vertex $-1 $302 $532 #
ellipse-curve $-1 72.590326678824709 -14.385568675306803 6.4718599430628894 0.84804810408105047 0 0.52991925155115449 0.26495962577557725 0 -0.42402405204052523 1 I I #
point $-1 73.703334408681343 -14.385568675306803 6.577755142573519 #
plane-surface $-1 0 0 12.57365969410894 0 0 1 1 0 0 forward_v I I I I #
coedge $-1 $443 $442 $435 $533 forward $306 $-1 #
coedge $-1 $435 $308 $310 $439 reversed $197 $-1 #
coedge $-1 $308 $434 $433 $533 reversed $197 $-1 #
coedge $-1 $316 $311 $308 $437 forward $317 $-1 #
edge $-1 $440 -14.863629812457347 $534 -8.8966896062918579 $436 $535 forward 7 unknown #
coedge $-1 $310 $309 $443 $536 reversed $124 $-1 #
edge $-1 $537 -3.606704357266089e-014 $440 7.5721558678363152 $434 $538 forward 7 unknown #
vertex $-1 $312 $539 #
straight-curve $-1 -70.953131817516876 -8.3065084899428463 12.573659694108937 0 1 0 I I #
coedge $-1 $433 $313 $316 $447 reversed $306 $-1 #
coedge $-1 $313 $433 $438 $536 forward $306 $-1 #
vertex $-1 $314 $540 #
straight-curve $-1 -76.920072023682366 -21.439531996878888 64.569730950207116 0 0 1 I I #
straight-curve $-1 -76.920072023682337 -21.439531996878888 7.9117749826586419 -0.78801074757464917 0 -0.61566148304635926 I I #
edge $-1 $534 11.786501962892498 $318 21.439531996878888 $442 $541 forward 7 unknown #
point $-1 -76.920072023682366 -21.439531996878888 12.57365969410894 #
point $-1 -70.953131817516876 -21.439531996878888 12.57365969410894 #
edge $-1 $542 1 $542 0 $321 $-1 forward 7 unknown #
vertex $-1 $322 $543 #
ellipse-curve $-1 -72.203573185888985 -18.681523415739917 8.0245417558374736 -0.61566148304635926 0 0.78801074757464917 0.78801074757464917 0 0.61566148304635926 1 I I #
point $-1 -73.148591173024997 -18.681523415739917 10.858378821430154 #
edge $-1 $544 1 $544 0 $325 $-1 forward 7 unknown #
vertex $-1 $326 $545 #
ellipse-curve $-1 -72.203573185888985 -14.544510544031464 8.0245417558374736 -0.61566148304635926 0 0.78801074757464917 0.78801074757464917 0 0.61566148304635926 1 I I #
point $-1 -73.148591173024997 -14.544510544031464 10.858378821430154 #
loop $-1 $-1 $336 $329 #
plane-surface $-1 -76.920072023682366 0 0 1 0 0 0 0 -1 forward_v I I I I #
coedge $-1 $546 $547 $333 $462 forward $330 $-1 #
coedge $-1 $333 $332 $467 $548 reversed $138 $-1 #
edge $-1 $464 20.299278301926222 $549 27.871434169762573 $460 $550 forward 7 unknown #
coedge $-1 $339 $334 $547 $551 forward $219 $-1 #
vertex $-1 $551 $552 #
straight-curve $-1 -70.953131817516876 13.340838055776411 12.573659694108937 0 1 0 I I #
coedge $-1 $553 $336 $339 $471 reversed $458 $-1 #
coedge $-1 $336 $553 $461 $548 forward $458 $-1 #
vertex $-1 $337 $554 #
straight-curve $-1 -76.920072023682366 21.855161094559627 64.569730950207116 0 0 1 I I #
straight-curve $-1 -76.920072023682337 21.855161094559627 7.9117749826586419 -0.78801074757464917 0 -0.61566148304635926 I I #
edge $-1 $555 -31.508191128546013 $340 -21.855161094559627 $466 $556 forward 7 unknown #
point $-1 -76.920072023682366 21.855161094559627 12.57365969410894 #
point $-1 -70.953131817516876 21.855161094559627 12.57365969410894 #
edge $-1 $557 1 $557 0 $343 $-1 forward 7 unknown #
vertex $-1 $344 $558 #
ellipse-curve $-1 -72.203573185888985 24.613169675698604 8.0245417558374736 -0.61566148304635926 0 0.78801074757464917 0.78801074757464917 0 0.61566148304635926 1 I I #
point $-1 -73.148591173024997 24.613169675698604 10.858378821430154 #
edge $-1 $559 1 $559 0 $347 $-1 forward 7 unknown #
vertex $-1 $348 $560 #
ellipse-curve $-1 -72.203573185888985 28.750182547407054 8.0245417558374736 -0.61566148304635926 0 0.78801074757464917 0.78801074757464917 0 0.61566148304635926 1 I I #
point $-1 -73.148591173024997 28.750182547407054 10.858378821430154 #
plane-surface $-1 76.920072023682366 0 0 -1 0 0 0 0 1 forward_v I I I I #
coedge $-1 $356 $354 $358 $487 reversed $241 $-1 #
edge $-1 $369 -12.57365969410894 $489 12.57365969410894 $368 $561 forward 7 unknown #
vertex $-1 $487 $562 #
straight-curve $-1 -76.920072023682366 -31.508191128546013 0 0 0 -1 I I #
edge $-1 $485 -31.508191128546013 $489 31.508191128546013 $483 $563 forward 7 unknown #
straight-curve $-1 0 -31.508191128546013 -12.57365969410894 -1 0 0 I I #
vertex $-1 $361 $564 #
straight-curve $-1 0 31.508191128546013 -12.57365969410894 1 0 0 I I #
point $-1 76.920072023682366 31.508191128546013 -12.57365969410894 #
point $-1 76.920072023682366 -31.508191128546013 -12.57365969410894 #
straight-curve $-1 -76.920072023682366 0 12.57365969410894 0 -1 0 I I #
point $-1 -76.920072023682366 31.508191128546013 12.57365969410894 #
point $-1 -76.920072023682366 -31.508191128546013 12.57365969410894 #
straight-curve $-1 76.920072023682366 -31.508191128546013 0 0 0 -1 I I #
straight-curve $-1 76.920072023682366 31.508191128546013 0 0 0 -1 I I #
plane-surface $-1 76.920072023682366 0 0 -1 0 0 0 0 1 forward_v I I I I #
coedge $-1 $502 $381 $392 $511 forward $260 $-1 #
coedge $-1 $381 $502 $395 $513 reversed $260 $-1 #
straight-curve $-1 76.920072023682366 -21.439531996878888 1.0366664971367285 0 0 1 I I #
coedge $-1 $500 $499 $384 $503 forward $260 $-1 #
edge $-1 $506 8.2026012155226624 $504 18.271260347189788 $502 $565 forward 7 unknown #
vertex $-1 $386 $566 #
straight-curve $-1 0 -31.508191128546013 0.57333299427345707 1 0 0 I I #
vertex $-1 $503 $567 #
straight-curve $-1 0 -21.439531996878888 0.57333299427345707 1 0 0 I I #
point $-1 76.920072023682366 -31.508191128546013 0.57333299427345707 #
point $-1 76.920072023682366 -21.439531996878888 0.57333299427345707 #
straight-curve $-1 -76.920072023682366 -13.236930781356225 3.5733329942734571 0 1 0 I I #
edge $-1 $393 -2.5366664971367285 $506 0.46333350286327146 $499 $568 forward 7 unknown #
point $-1 -76.920072023682366 -21.439531996878888 3.5733329942734571 #
edge $-1 $397 -3.5733329942734571 $504 -0.57333299427345707 $500 $569 forward 7 unknown #
point $-1 -76.920072023682366 -31.508191128546013 3.5733329942734571 #
straight-curve $-1 76.920072023682366 -31.508191128546013 0 0 0 -1 I I #
coedge $-1 $517 $411 $413 $524 forward $402 $-1 #
coedge $-1 $407 $516 $404 $518 forward $402 $-1 #
edge $-1 $519 -21.439531996878884 $409 -12.622077844913782 $404 $570 forward 7 unknown #
vertex $-1 $518 $571 #
straight-curve $-1 76.920072023682366 -21.439531996878884 106.70829758907192 0 0 -1 I I #
straight-curve $-1 62.930530261252201 -12.622077844913782 12.57365969410894 -1 0 0 I I #
point $-1 76.920072023682366 -12.622077844913782 12.57365969410894 #
straight-curve $-1 69.956677542129185 -8.5154024604481666 12.57365969410894 0 -1 0 I I #
edge $-1 $414 7.0261472808769838 $519 13.989541762430164 $516 $572 forward 7 unknown #
point $-1 69.956677542129185 -21.439531996878884 12.57365969410894 #
point $-1 69.956677542129185 -12.622077844913782 12.57365969410894 #
vertex $-1 $420 $573 #
point $-1 72.855286304600284 -19.676041166485867 6.0478358910223644 #
vertex $-1 $424 $574 #
point $-1 72.855286304600284 -17.030804920896333 6.0478358910223644 #
vertex $-1 $428 $575 #
point $-1 72.855286304600284 -14.385568675306803 6.0478358910223644 #
edge $-1 $534 51.996071256098176 $537 56.657955967548496 $433 $576 forward 7 unknown #
vertex $-1 $447 $577 #
straight-curve $-1 -85.816761629974224 -11.786501962892498 12.57365969410894 -1 0 0 I I #
edge $-1 $537 3.4799934729496513 $444 13.133023506936041 $443 $578 forward 7 unknown #
vertex $-1 $536 $579 #
straight-curve $-1 -76.920072023682337 -11.786501962892498 7.9117749826586419 0.78801074757464917 0 0.61566148304635926 I I #
point $-1 -70.953131817516876 -11.786501962892498 12.57365969410894 #
point $-1 -76.920072023682366 -21.439531996878888 7.9117749826586197 #
straight-curve $-1 -76.920072023682366 0 12.57365969410894 0 -1 0 I I #
vertex $-1 $450 $580 #
point $-1 -71.415562438314339 -18.681523415739917 8.6402032388838332 #
vertex $-1 $454 $581 #
point $-1 -71.415562438314339 -14.544510544031464 8.6402032388838332 #
coedge $-1 $547 $460 $553 $582 reversed $330 $-1 #
coedge $-1 $460 $546 $463 $551 reversed $330 $-1 #
edge $-1 $549 -18.167353072769608 $468 -8.5143230387832158 $467 $583 forward 7 unknown #
vertex $-1 $462 $584 #
straight-curve $-1 -54.957082347590138 31.508191128546013 25.071143478243616 -0.78801074757464917 0 -0.61566148304635926 I I #
edge $-1 $464 70.953131817516876 $555 76.920072023682366 $547 $585 forward 7 unknown #
point $-1 -70.953131817516876 31.508191128546017 12.57365969410894 #
coedge $-1 $467 $466 $546 $582 forward $458 $-1 #
point $-1 -76.920072023682366 21.855161094559627 7.9117749826586197 #
vertex $-1 $551 $586 #
straight-curve $-1 -76.920072023682366 0 12.57365969410894 0 -1 0 I I #
vertex $-1 $474 $587 #
point $-1 -71.415562438314339 24.613169675698604 8.6402032388838332 #
vertex $-1 $478 $588 #
point $-1 -71.415562438314339 28.750182547407054 8.6402032388838332 #
straight-curve $-1 -76.920072023682366 31.508191128546013 0 0 0 -1 I I #
point $-1 -76.920072023682366 -31.508191128546013 -12.57365969410894 #
straight-curve $-1 -76.920072023682366 0 -12.57365969410894 0 1 0 I I #
point $-1 -76.920072023682366 31.508191128546013 -12.57365969410894 #
straight-curve $-1 -76.920072023682366 -13.236930781356225 0.57333299427345707 0 -1 0 I I #
point $-1 -76.920072023682366 -31.508191128546013 0.57333299427345707 #
point $-1 -76.920072023682366 -21.439531996878888 0.57333299427345707 #
straight-curve $-1 -76.920072023682366 -21.439531996878888 1.0366664971367285 0 0 -1 I I #
straight-curve $-1 -76.920072023682366 -31.508191128546013 0 0 0 -1 I I #
straight-curve $-1 76.920072023682366 0 12.57365969410894 0 1 0 I I #
point $-1 76.920072023682366 -21.439531996878884 12.57365969410894 #
straight-curve $-1 62.930530261252201 -21.439531996878884 12.57365969410894 1 0 0 I I #
point $-1 72.166302626784187 -19.676041166485867 6.206900317287313 #
point $-1 72.166302626784187 -17.030804920896333 6.206900317287313 #
point $-1 72.166302626784187 -14.385568675306803 6.206900317287313 #
straight-curve $-1 -76.920072023682366 -11.786501962892498 64.569730950207116 0 0 -1 I I #
point $-1 -76.920072023682366 -11.786501962892498 12.57365969410894 #
straight-curve $-1 -76.920072023682366 -8.3065084899428463 7.9117749826586135 0 -1 0 I I #
point $-1 -76.920072023682366 -11.786501962892498 7.9117749826586197 #
point $-1 -71.587911702842632 -18.681523415739917 7.2365310082628245 #
point $-1 -71.587911702842632 -14.544510544031464 7.2365310082628245 #
edge $-1 $555 -12.57365969410894 $549 -7.9117749826586197 $546 $589 forward 7 unknown #
straight-curve $-1 -76.920072023682366 13.340838055776411 7.9117749826586135 0 -1 0 I I #
point $-1 -76.920072023682366 31.508191128546017 7.9117749826586197 #
straight-curve $-1 0 31.508191128546013 12.57365969410894 -1 0 0 I I #
point $-1 -76.920072023682366 31.508191128546013 12.57365969410894 #
point $-1 -71.587911702842632 24.613169675698604 7.2365310082628245 #
point $-1 -71.587911702842632 28.750182547407054 7.2365310082628245 #
straight-curve $-1 -76.920072023682366 31.508191128546013 0 0 0 -1 I I #
End-of-ACIS-data 