500 0 15 0           
7 Unknown 11 ACIS 5.0 NT 24 Fri Mar 26 17:12:31 1999 
-1 9.9999999999999995e-007 1e-010 
body $-1 $15 $-1 $16 #
body $-1 $17 $-1 $18 #
body $-1 $19 $-1 $20 #
body $-1 $21 $-1 $22 #
body $-1 $23 $-1 $24 #
body $-1 $25 $-1 $26 #
body $-1 $27 $-1 $28 #
body $-1 $29 $-1 $30 #
body $-1 $31 $-1 $32 #
body $-1 $33 $-1 $34 #
body $-1 $35 $-1 $36 #
body $-1 $37 $-1 $38 #
body $-1 $39 $-1 $40 #
body $-1 $41 $-1 $42 #
body $-1 $43 $-1 $44 #
lump $-1 $-1 $45 $0 #
transform $-1 1 0 0 0 1 0 0 0 1 45.007477034821619 21.583040502443286 8.2392583615501049 1 rotate no_reflect no_shear #
lump $-1 $-1 $46 $1 #
transform $-1 1 0 0 0 1 0 0 0 1 45.007477034821619 21.583040502443286 8.2392583615501049 1 rotate no_reflect no_shear #
lump $-1 $-1 $47 $2 #
transform $-1 1 0 0 0 1 0 0 0 1 45.007477034821619 21.583040502443286 8.2392583615501049 1 rotate no_reflect no_shear #
lump $-1 $-1 $48 $3 #
transform $-1 1 0 0 0 1 0 0 0 1 45.007477034821619 21.583040502443286 8.2392583615501049 1 rotate no_reflect no_shear #
lump $-1 $-1 $49 $4 #
transform $-1 1 0 0 0 1 0 0 0 1 45.007477034821619 21.583040502443286 8.2392583615501049 1 rotate no_reflect no_shear #
lump $-1 $-1 $50 $5 #
transform $-1 1 0 0 0 1 0 0 0 1 45.007477034821619 21.583040502443286 8.2392583615501049 1 rotate no_reflect no_shear #
lump $-1 $-1 $51 $6 #
transform $-1 1 0 0 0 1 0 0 0 1 45.007477034821619 21.583040502443286 8.2392583615501049 1 rotate no_reflect no_shear #
lump $-1 $-1 $52 $7 #
transform $-1 1 0 0 0 1 0 0 0 1 45.007477034821619 21.583040502443286 8.2392583615501049 1 rotate no_reflect no_shear #
lump $-1 $-1 $53 $8 #
transform $-1 1 0 0 0 1 0 0 0 1 45.007477034821619 21.583040502443286 8.2392583615501049 1 rotate no_reflect no_shear #
lump $-1 $-1 $54 $9 #
transform $-1 1 0 0 0 1 0 0 0 1 45.007477034821619 21.583040502443286 8.2392583615501049 1 rotate no_reflect no_shear #
lump $-1 $-1 $55 $10 #
transform $-1 1 0 0 0 1 0 0 0 1 45.007477034821619 21.583040502443286 8.2392583615501049 1 rotate no_reflect no_shear #
lump $-1 $-1 $56 $11 #
transform $-1 1 0 0 0 1 0 0 0 1 45.007477034821619 21.583040502443286 8.2392583615501049 1 rotate no_reflect no_shear #
lump $-1 $-1 $57 $12 #
transform $-1 1 0 0 0 1 0 0 0 1 45.007477034821619 21.583040502443286 8.2392583615501049 1 rotate no_reflect no_shear #
lump $-1 $-1 $58 $13 #
transform $-1 1 0 0 0 1 0 0 0 1 45.007477034821619 21.583040502443286 8.2392583615501049 1 rotate no_reflect no_shear #
lump $-1 $-1 $59 $14 #
transform $-1 1 0 0 0 1 0 0 0 1 45.007477034821619 21.583040502443286 8.2392583615501049 1 rotate no_reflect no_shear #
shell $-1 $-1 $-1 $60 $-1 $15 #
shell $-1 $-1 $-1 $61 $-1 $17 #
shell $-1 $-1 $-1 $62 $-1 $19 #
shell $-1 $-1 $-1 $63 $-1 $21 #
shell $-1 $-1 $-1 $64 $-1 $23 #
shell $-1 $-1 $-1 $65 $-1 $25 #
shell $-1 $-1 $-1 $66 $-1 $27 #
shell $-1 $-1 $-1 $67 $-1 $29 #
shell $-1 $-1 $-1 $68 $-1 $31 #
shell $-1 $-1 $-1 $69 $-1 $33 #
shell $-1 $-1 $-1 $70 $-1 $35 #
shell $-1 $-1 $-1 $71 $-1 $37 #
shell $-1 $-1 $-1 $72 $-1 $39 #
shell $-1 $-1 $-1 $73 $-1 $41 #
shell $-1 $-1 $-1 $74 $-1 $43 #
face $-1 $75 $76 $45 $-1 $77 forward single #
face $-1 $78 $79 $46 $-1 $80 forward single #
face $-1 $81 $82 $47 $-1 $83 forward single #
face $-1 $84 $85 $48 $-1 $86 reversed single #
face $-1 $87 $88 $49 $-1 $89 forward single #
face $-1 $90 $91 $50 $-1 $92 forward single #
face $-1 $93 $94 $51 $-1 $95 reversed single #
face $-1 $96 $97 $52 $-1 $98 forward single #
face $-1 $99 $100 $53 $-1 $101 forward single #
face $-1 $102 $103 $54 $-1 $104 reversed single #
face $-1 $105 $106 $55 $-1 $107 forward single #
face $-1 $108 $109 $56 $-1 $110 forward single #
face $-1 $111 $112 $57 $-1 $113 reversed single #
face $-1 $114 $115 $58 $-1 $116 forward single #
face $-1 $117 $118 $59 $-1 $119 forward single #
face $-1 $120 $121 $45 $-1 $122 reversed single #
loop $-1 $-1 $123 $60 #
plane-surface $-1 0 0 8.2392583615501049 0 0 1 1 0 0 forward_v I I I I #
face $-1 $124 $125 $46 $-1 $126 reversed single #
loop $-1 $-1 $127 $61 #
plane-surface $-1 0 -21.583040502443286 0 0 1 0 0 0 1 forward_v I I I I #
face $-1 $128 $129 $47 $-1 $130 reversed single #
loop $-1 $-1 $131 $62 #
plane-surface $-1 0 21.583040502443286 0 0 -1 0 0 0 -1 forward_v I I I I #
face $-1 $132 $133 $48 $-1 $134 reversed single #
loop $-1 $-1 $135 $63 #
plane-surface $-1 64.921643887712278 4.8234641007409014 126.84147747635043 0 -1 0 -0.80901700255871778 0 -0.5877852410284794 forward_v I I I I #
face $-1 $136 $137 $49 $-1 $138 forward single #
loop $-1 $139 $140 $64 #
cone-surface $-1 41.129465910075552 -0.26600742978056857 3.738348106954386 -0.80901700255871778 0 -0.5877852410284794 0.5877852410284794 0 -0.80901700255871778 1 I I 0 1 1 forward I I I I #
face $-1 $141 $142 $50 $-1 $143 forward single #
loop $-1 $144 $145 $65 #
cone-surface $-1 41.129465910075552 2.7876754885323116 3.738348106954386 -0.80901700255871778 0 -0.5877852410284794 0.5877852410284794 0 -0.80901700255871778 1 I I 0 1 1 forward I I I I #
face $-1 $146 $147 $51 $-1 $148 reversed single #
loop $-1 $-1 $149 $66 #
plane-surface $-1 -119.63325677715619 -11.92152627585314 52.679933597132184 0 1 0 -0.82903758062907751 0 0.55919289150049634 forward_v I I I I #
face $-1 $150 $151 $52 $-1 $152 forward single #
loop $-1 $153 $154 $67 #
cone-surface $-1 -42.224560958234605 -10.251173571943898 4.7556446024009285 0.82903758062907751 0 -0.55919289150049634 0.27959644575024817 0 0.41451879031453875 1 I I 0 1 0.5 forward I I I I #
face $-1 $155 $156 $53 $-1 $157 forward single #
loop $-1 $158 $159 $68 #
cone-surface $-1 -42.224560958234605 -7.7456445160800325 4.7556446024009285 0.82903758062907751 0 -0.55919289150049634 0.27959644575024817 0 0.41451879031453875 1 I I 0 1 0.5 forward I I I I #
face $-1 $160 $161 $54 $-1 $162 reversed single #
loop $-1 $-1 $163 $69 #
plane-surface $-1 -119.63325677715619 -2.9231172318411724 52.679933597132184 0 1 0 -0.82903758062907751 0 0.55919289150049634 forward_v I I I I #
face $-1 $164 $165 $55 $-1 $166 forward single #
loop $-1 $167 $168 $70 #
cone-surface $-1 -42.224560958234605 -1.2527645279319302 4.7556446024009285 0.82903758062907751 0 -0.55919289150049634 0.27959644575024817 0 0.41451879031453875 1 I I 0 1 0.5 forward I I I I #
face $-1 $169 $170 $56 $-1 $171 forward single #
loop $-1 $172 $173 $71 #
cone-surface $-1 -42.224560958234605 1.2527645279319337 4.7556446024009285 0.82903758062907751 0 -0.55919289150049634 0.27959644575024817 0 0.41451879031453875 1 I I 0 1 0.5 forward I I I I #
face $-1 $174 $175 $57 $-1 $176 reversed single #
loop $-1 $-1 $177 $72 #
plane-surface $-1 -119.63325677715619 6.0752918121707955 52.679933597132184 0 1 0 -0.82903758062907751 0 0.55919289150049634 forward_v I I I I #
face $-1 $178 $179 $58 $-1 $180 forward single #
loop $-1 $181 $182 $73 #
cone-surface $-1 -42.224560958234605 7.7456445160800378 4.7556446024009285 0.82903758062907751 0 -0.55919289150049634 0.27959644575024817 0 0.41451879031453875 1 I I 0 1 0.5 forward I I I I #
face $-1 $183 $184 $59 $-1 $185 forward single #
loop $-1 $186 $187 $74 #
cone-surface $-1 -42.224560958234605 10.251173571943902 4.7556446024009285 0.82903758062907751 0 -0.55919289150049634 0.27959644575024817 0 0.41451879031453875 1 I I 0 1 0.5 forward I I I I #
face $-1 $188 $189 $45 $-1 $190 reversed single #
loop $-1 $-1 $191 $75 #
plane-surface $-1 0 0 -8.2392583615501049 0 0 1 1 0 0 forward_v I I I I #
coedge $-1 $192 $193 $194 $195 forward $76 $-1 #
face $-1 $196 $197 $46 $-1 $198 reversed single #
loop $-1 $-1 $199 $78 #
plane-surface $-1 0 0 -8.2392583615501049 0 0 1 1 0 0 forward_v I I I I #
coedge $-1 $200 $201 $202 $203 forward $79 $-1 #
face $-1 $204 $205 $47 $-1 $206 forward single #
loop $-1 $-1 $207 $81 #
plane-surface $-1 -45.007477034821619 0 0 1 0 0 0 0 -1 forward_v I I I I #
coedge $-1 $208 $209 $210 $211 forward $82 $-1 #
face $-1 $212 $213 $48 $-1 $214 reversed single #
loop $-1 $-1 $215 $84 #
plane-surface $-1 -7.9019844391711445 1.2608340293758751 73.93201600235767 0.80901700255871778 0 0.5877852410284794 0.5877852410284794 0 -0.80901700255871778 forward_v I I I I #
coedge $-1 $216 $217 $218 $219 reversed $85 $-1 #
face $-1 $-1 $220 $49 $-1 $221 forward single #
loop $-1 $222 $223 $87 #
cone-surface $-1 39.437386615774685 -0.26600742978056857 2.5089805748823384 -0.80901700255871778 0 -0.5877852410284794 0.2938926205142397 0 -0.40450850127935889 1 I I -0.70710678118654746 0.70710678118654746 0.5 forward I I I I #
loop $-1 $-1 $224 $64 #
coedge $-1 $140 $140 $225 $226 reversed $88 $-1 #
face $-1 $-1 $227 $50 $-1 $228 forward single #
loop $-1 $229 $230 $90 #
cone-surface $-1 39.437386615774685 2.7876754885323116 2.5089805748823384 -0.80901700255871778 0 -0.5877852410284794 0.2938926205142397 0 -0.40450850127935889 1 I I -0.70710678118654746 0.70710678118654746 0.5 forward I I I I #
loop $-1 $-1 $231 $65 #
coedge $-1 $145 $145 $232 $233 reversed $91 $-1 #
face $-1 $234 $235 $51 $-1 $236 reversed single #
loop $-1 $-1 $237 $93 #
plane-surface $-1 -45.007477034821633 -8.9984090440119644 2.3442111526440144 -0.82903758062907751 0 0.55919289150049634 0.55919289150049634 0 0.82903758062907751 forward_v I I I I #
coedge $-1 $238 $239 $240 $241 reversed $94 $-1 #
face $-1 $-1 $242 $52 $-1 $243 forward single #
loop $-1 $244 $245 $96 #
cone-surface $-1 -41.22251519936701 -10.251173571943898 4.0797562248296781 0.82903758062907751 0 -0.55919289150049634 0.13979822287512408 0 0.20725939515726938 1 I I -0.70710678118654746 0.70710678118654746 0.25 forward I I I I #
loop $-1 $-1 $246 $67 #
coedge $-1 $154 $154 $247 $248 reversed $97 $-1 #
face $-1 $-1 $249 $53 $-1 $250 forward single #
loop $-1 $251 $252 $99 #
cone-surface $-1 -41.22251519936701 -7.7456445160800325 4.0797562248296781 0.82903758062907751 0 -0.55919289150049634 0.13979822287512408 0 0.20725939515726938 1 I I -0.70710678118654746 0.70710678118654746 0.25 forward I I I I #
loop $-1 $-1 $253 $68 #
coedge $-1 $159 $159 $254 $255 reversed $100 $-1 #
face $-1 $256 $257 $54 $-1 $258 reversed single #
loop $-1 $-1 $259 $102 #
plane-surface $-1 -45.007477034821633 3.5527136788005009e-015 2.3442111526440144 -0.82903758062907751 0 0.55919289150049634 0.55919289150049634 0 0.82903758062907751 forward_v I I I I #
coedge $-1 $260 $261 $262 $263 reversed $103 $-1 #
face $-1 $-1 $264 $55 $-1 $265 forward single #
loop $-1 $266 $267 $105 #
cone-surface $-1 -41.22251519936701 -1.2527645279319302 4.0797562248296781 0.82903758062907751 0 -0.55919289150049634 0.13979822287512408 0 0.20725939515726938 1 I I -0.70710678118654746 0.70710678118654746 0.25 forward I I I I #
loop $-1 $-1 $268 $70 #
coedge $-1 $168 $168 $269 $270 reversed $106 $-1 #
face $-1 $-1 $271 $56 $-1 $272 forward single #
loop $-1 $273 $274 $108 #
cone-surface $-1 -41.22251519936701 1.2527645279319337 4.0797562248296781 0.82903758062907751 0 -0.55919289150049634 0.13979822287512408 0 0.20725939515726938 1 I I -0.70710678118654746 0.70710678118654746 0.25 forward I I I I #
loop $-1 $-1 $275 $71 #
coedge $-1 $173 $173 $276 $277 reversed $109 $-1 #
face $-1 $278 $279 $57 $-1 $280 reversed single #
loop $-1 $-1 $281 $111 #
plane-surface $-1 -45.007477034821633 8.9984090440119715 2.3442111526440144 -0.82903758062907751 0 0.55919289150049634 0.55919289150049634 0 0.82903758062907751 forward_v I I I I #
coedge $-1 $282 $283 $284 $285 reversed $112 $-1 #
face $-1 $-1 $286 $58 $-1 $287 forward single #
loop $-1 $288 $289 $114 #
cone-surface $-1 -41.22251519936701 7.7456445160800378 4.0797562248296781 0.82903758062907751 0 -0.55919289150049634 0.13979822287512408 0 0.20725939515726938 1 I I -0.70710678118654746 0.70710678118654746 0.25 forward I I I I #
loop $-1 $-1 $290 $73 #
coedge $-1 $182 $182 $291 $292 reversed $115 $-1 #
face $-1 $-1 $293 $59 $-1 $294 forward single #
loop $-1 $295 $296 $117 #
cone-surface $-1 -41.22251519936701 10.251173571943902 4.0797562248296781 0.82903758062907751 0 -0.55919289150049634 0.13979822287512408 0 0.20725939515726938 1 I I -0.70710678118654746 0.70710678118654746 0.25 forward I I I I #
loop $-1 $-1 $297 $74 #
coedge $-1 $187 $187 $298 $299 reversed $118 $-1 #
face $-1 $300 $301 $45 $-1 $302 reversed single #
loop $-1 $-1 $303 $120 #
plane-surface $-1 0 -21.583040502443286 0 0 1 0 0 0 1 forward_v I I I I #
coedge $-1 $304 $305 $306 $307 forward $121 $-1 #
coedge $-1 $308 $123 $309 $310 forward $76 $-1 #
coedge $-1 $123 $308 $311 $312 forward $76 $-1 #
coedge $-1 $313 $314 $123 $195 reversed $315 $-1 #
edge $-1 $316 -21.583040502443286 $317 21.583040502443286 $194 $318 forward 7 unknown #
face $-1 $319 $320 $46 $-1 $321 forward single #
loop $-1 $-1 $322 $124 #
plane-surface $-1 45.007477034821619 0 0 -1 0 0 0 0 1 forward_v I I I I #
coedge $-1 $323 $324 $325 $326 forward $125 $-1 #
coedge $-1 $325 $127 $322 $327 reversed $79 $-1 #
coedge $-1 $127 $325 $328 $329 reversed $79 $-1 #
coedge $-1 $330 $331 $127 $203 reversed $320 $-1 #
edge $-1 $332 -45.007477034821619 $333 45.007477034821619 $202 $334 forward 7 unknown #
face $-1 $335 $336 $47 $-1 $337 reversed single #
loop $-1 $-1 $338 $128 #
plane-surface $-1 0 26.413797615738357 -5.2392583615501049 0 0 1 1 0 0 forward_v I I I I #
coedge $-1 $339 $340 $208 $341 forward $129 $-1 #
coedge $-1 $342 $131 $207 $341 reversed $82 $-1 #
coedge $-1 $131 $342 $343 $344 reversed $82 $-1 #
coedge $-1 $338 $345 $131 $211 reversed $205 $-1 #
edge $-1 $346 -45.007477034821619 $347 45.007477034821619 $210 $348 forward 7 unknown #
face $-1 $349 $350 $48 $-1 $351 forward single #
loop $-1 $-1 $352 $132 #
plane-surface $-1 64.921643887712278 -2.3017960419891512 126.84147747635043 0 1 0 0.80901700255871778 0 0.5877852410284794 forward_v I I I I #
coedge $-1 $353 $354 $355 $356 reversed $133 $-1 #
coedge $-1 $217 $135 $357 $358 reversed $85 $-1 #
coedge $-1 $135 $216 $353 $359 reversed $85 $-1 #
coedge $-1 $355 $360 $135 $219 forward $350 $-1 #
edge $-1 $361 -12.54665509096548 $362 -7.3657744275163637 $218 $363 forward 7 unknown #
loop $-1 $-1 $225 $136 #
plane-surface $-1 -7.9019844391711445 1.2608340293758751 73.93201600235767 0.80901700255871778 0 0.5877852410284794 0.5877852410284794 0 -0.80901700255871778 forward_v I I I I #
loop $-1 $-1 $364 $87 #
coedge $-1 $223 $223 $224 $365 reversed $137 $-1 #
coedge $-1 $224 $224 $223 $365 forward $139 $-1 #
coedge $-1 $225 $225 $140 $226 forward $220 $-1 #
edge $-1 $366 0 $366 6.2831853071796004 $225 $367 forward 7 unknown #
loop $-1 $-1 $232 $141 #
plane-surface $-1 -7.9019844391711445 1.2608340293758751 73.93201600235767 0.80901700255871778 0 0.5877852410284794 0.5877852410284794 0 -0.80901700255871778 forward_v I I I I #
loop $-1 $-1 $368 $90 #
coedge $-1 $230 $230 $231 $369 reversed $142 $-1 #
coedge $-1 $231 $231 $230 $369 forward $144 $-1 #
coedge $-1 $232 $232 $145 $233 forward $227 $-1 #
edge $-1 $370 0 $370 6.2831853071796004 $232 $371 forward 7 unknown #
face $-1 $372 $373 $51 $-1 $374 reversed single #
loop $-1 $-1 $375 $146 #
plane-surface $-1 -119.63325677715619 -6.0752918121707884 52.679933597132184 0 -1 0 0.82903758062907751 0 -0.55919289150049634 forward_v I I I I #
coedge $-1 $376 $377 $378 $379 reversed $147 $-1 #
coedge $-1 $239 $149 $380 $381 reversed $94 $-1 #
coedge $-1 $149 $238 $376 $382 reversed $94 $-1 #
coedge $-1 $378 $383 $149 $241 forward $384 $-1 #
edge $-1 $385 14.809151353756477 $386 18.785410779509817 $240 $387 forward 7 unknown #
loop $-1 $-1 $247 $150 #
plane-surface $-1 -45.007477034821633 -8.9984090440119644 2.3442111526440144 -0.82903758062907751 0 0.55919289150049634 0.55919289150049634 0 0.82903758062907751 forward_v I I I I #
loop $-1 $-1 $388 $96 #
coedge $-1 $245 $245 $246 $389 reversed $151 $-1 #
coedge $-1 $246 $246 $245 $389 forward $153 $-1 #
coedge $-1 $247 $247 $154 $248 forward $242 $-1 #
edge $-1 $390 0 $390 6.2831853071796004 $247 $391 forward 7 unknown #
loop $-1 $-1 $254 $155 #
plane-surface $-1 -45.007477034821633 -8.9984090440119644 2.3442111526440144 -0.82903758062907751 0 0.55919289150049634 0.55919289150049634 0 0.82903758062907751 forward_v I I I I #
loop $-1 $-1 $392 $99 #
coedge $-1 $252 $252 $253 $393 reversed $156 $-1 #
coedge $-1 $253 $253 $252 $393 forward $158 $-1 #
coedge $-1 $254 $254 $159 $255 forward $249 $-1 #
edge $-1 $394 0 $394 6.2831853071796004 $254 $395 forward 7 unknown #
face $-1 $396 $397 $54 $-1 $398 forward single #
loop $-1 $-1 $399 $160 #
plane-surface $-1 -119.63325677715619 2.9231172318411796 52.679933597132184 0 -1 0 0.82903758062907751 0 -0.55919289150049634 forward_v I I I I #
coedge $-1 $400 $401 $402 $403 reversed $161 $-1 #
coedge $-1 $261 $163 $404 $405 reversed $103 $-1 #
coedge $-1 $163 $260 $400 $406 reversed $103 $-1 #
coedge $-1 $402 $407 $163 $263 forward $397 $-1 #
edge $-1 $408 14.809151353756477 $409 18.785410779509817 $262 $410 forward 7 unknown #
loop $-1 $-1 $269 $164 #
plane-surface $-1 -45.007477034821633 3.5527136788005009e-015 2.3442111526440144 -0.82903758062907751 0 0.55919289150049634 0.55919289150049634 0 0.82903758062907751 forward_v I I I I #
loop $-1 $-1 $411 $105 #
coedge $-1 $267 $267 $268 $412 reversed $165 $-1 #
coedge $-1 $268 $268 $267 $412 forward $167 $-1 #
coedge $-1 $269 $269 $168 $270 forward $264 $-1 #
edge $-1 $413 0 $413 6.2831853071796004 $269 $414 forward 7 unknown #
loop $-1 $-1 $276 $169 #
plane-surface $-1 -45.007477034821633 3.5527136788005009e-015 2.3442111526440144 -0.82903758062907751 0 0.55919289150049634 0.55919289150049634 0 0.82903758062907751 forward_v I I I I #
loop $-1 $-1 $415 $108 #
coedge $-1 $274 $274 $275 $416 reversed $170 $-1 #
coedge $-1 $275 $275 $274 $416 forward $172 $-1 #
coedge $-1 $276 $276 $173 $277 forward $271 $-1 #
edge $-1 $417 0 $417 6.2831853071796004 $276 $418 forward 7 unknown #
face $-1 $419 $420 $57 $-1 $421 forward single #
loop $-1 $-1 $422 $174 #
plane-surface $-1 -119.63325677715619 11.921526275853147 52.679933597132184 0 -1 0 0.82903758062907751 0 -0.55919289150049634 forward_v I I I I #
coedge $-1 $423 $424 $425 $426 reversed $175 $-1 #
coedge $-1 $283 $177 $427 $428 reversed $112 $-1 #
coedge $-1 $177 $282 $423 $429 reversed $112 $-1 #
coedge $-1 $425 $430 $177 $285 forward $420 $-1 #
edge $-1 $431 14.809151353756477 $432 18.785410779509817 $284 $433 forward 7 unknown #
loop $-1 $-1 $291 $178 #
plane-surface $-1 -45.007477034821633 8.9984090440119715 2.3442111526440144 -0.82903758062907751 0 0.55919289150049634 0.55919289150049634 0 0.82903758062907751 forward_v I I I I #
loop $-1 $-1 $434 $114 #
coedge $-1 $289 $289 $290 $435 reversed $179 $-1 #
coedge $-1 $290 $290 $289 $435 forward $181 $-1 #
coedge $-1 $291 $291 $182 $292 forward $286 $-1 #
edge $-1 $436 0 $436 6.2831853071796004 $291 $437 forward 7 unknown #
loop $-1 $-1 $298 $183 #
plane-surface $-1 -45.007477034821633 8.9984090440119715 2.3442111526440144 -0.82903758062907751 0 0.55919289150049634 0.55919289150049634 0 0.82903758062907751 forward_v I I I I #
loop $-1 $-1 $438 $117 #
coedge $-1 $296 $296 $297 $439 reversed $184 $-1 #
coedge $-1 $297 $297 $296 $439 forward $186 $-1 #
coedge $-1 $298 $298 $187 $299 forward $293 $-1 #
edge $-1 $440 0 $440 6.2831853071796004 $298 $441 forward 7 unknown #
face $-1 $442 $443 $45 $-1 $444 reversed single #
loop $-1 $-1 $445 $188 #
plane-surface $-1 -45.007477034821619 0 0 1 0 0 0 0 -1 forward_v I I I I #
coedge $-1 $311 $446 $313 $447 reversed $189 $-1 #
coedge $-1 $448 $191 $446 $449 forward $121 $-1 #
coedge $-1 $191 $448 $450 $451 forward $121 $-1 #
coedge $-1 $314 $313 $191 $307 reversed $315 $-1 #
edge $-1 $452 -21.583040502443286 $453 21.583040502443286 $306 $454 forward 7 unknown #
coedge $-1 $193 $192 $455 $456 forward $76 $-1 #
coedge $-1 $457 $458 $192 $310 reversed $443 $-1 #
edge $-1 $317 -45.007477034821619 $459 45.007477034821619 $309 $460 forward 7 unknown #
coedge $-1 $461 $303 $193 $312 reversed $189 $-1 #
edge $-1 $462 -45.007477034821619 $316 45.007477034821619 $311 $463 forward 7 unknown #
coedge $-1 $306 $194 $303 $447 forward $315 $-1 #
coedge $-1 $194 $306 $457 $464 reversed $315 $-1 #
loop $-1 $-1 $313 $442 #
vertex $-1 $195 $465 #
vertex $-1 $195 $466 #
straight-curve $-1 45.007477034821619 0 8.2392583615501049 0 1 0 I I #
face $-1 $467 $468 $46 $-1 $469 reversed single #
loop $-1 $-1 $331 $196 #
plane-surface $-1 0 -26.413797615738357 -5.2392583615501049 0 0 1 1 0 0 forward_v I I I I #
coedge $-1 $470 $471 $200 $327 forward $197 $-1 #
coedge $-1 $472 $199 $471 $473 forward $125 $-1 #
coedge $-1 $199 $472 $474 $475 forward $125 $-1 #
coedge $-1 $201 $200 $199 $326 reversed $79 $-1 #
edge $-1 $476 -45.007477034821619 $477 45.007477034821619 $199 $478 forward 7 unknown #
edge $-1 $477 -8.2392583615501049 $333 -5.2392583615501049 $322 $479 forward 7 unknown #
coedge $-1 $474 $480 $201 $329 forward $481 $-1 #
edge $-1 $332 5.2392583615501049 $476 8.2392583615501049 $328 $482 forward 7 unknown #
coedge $-1 $483 $202 $480 $484 forward $320 $-1 #
coedge $-1 $202 $483 $470 $485 forward $320 $-1 #
vertex $-1 $329 $486 #
vertex $-1 $485 $487 #
straight-curve $-1 0 -21.583040502443286 -5.2392583615501049 1 0 0 I I #
face $-1 $488 $489 $47 $-1 $490 reversed single #
loop $-1 $-1 $491 $204 #
plane-surface $-1 0 31.244554729033428 -6.7392583615501049 0 -1 0 0 0 -1 forward_v I I I I #
coedge $-1 $492 $210 $493 $494 forward $205 $-1 #
coedge $-1 $495 $207 $345 $496 reversed $129 $-1 #
coedge $-1 $207 $495 $497 $498 reversed $129 $-1 #
edge $-1 $499 -8.2392583615501049 $347 -5.2392583615501049 $207 $500 forward 7 unknown #
coedge $-1 $209 $208 $501 $502 reversed $82 $-1 #
coedge $-1 $503 $493 $209 $344 forward $504 $-1 #
edge $-1 $346 5.2392583615501049 $505 8.2392583615501049 $343 $506 forward 7 unknown #
coedge $-1 $210 $492 $339 $496 forward $205 $-1 #
vertex $-1 $344 $507 #
vertex $-1 $496 $508 #
straight-curve $-1 0 21.583040502443286 -5.2392583615501049 -1 0 0 I I #
face $-1 $-1 $509 $48 $-1 $510 reversed single #
loop $-1 $-1 $218 $212 #
plane-surface $-1 0 0 8.2392583615501049 0 0 1 1 0 0 forward_v I I I I #
coedge $-1 $511 $512 $513 $514 reversed $213 $-1 #
coedge $-1 $515 $215 $217 $359 forward $133 $-1 #
coedge $-1 $215 $515 $511 $516 forward $133 $-1 #
coedge $-1 $513 $218 $215 $356 forward $350 $-1 #
edge $-1 $362 -4.1930470860529638 $517 2.9322130566770888 $355 $518 forward 7 unknown #
coedge $-1 $519 $520 $216 $358 forward $509 $-1 #
edge $-1 $521 -62.312351062700984 $361 -55.18148037662511 $357 $522 forward 7 unknown #
edge $-1 $362 81.200713252055095 $521 90.014954069643252 $217 $523 forward 7 unknown #
coedge $-1 $218 $513 $519 $524 forward $350 $-1 #
vertex $-1 $358 $525 #
vertex $-1 $219 $526 #
straight-curve $-1 32.460821943856139 4.8234641007409014 8.2392583615501067 -1 0 0 I I #
coedge $-1 $364 $364 $-1 $527 reversed $222 $-1 #
edge $-1 $528 0 $528 6.2831853071796004 $223 $529 forward 7 unknown #
vertex $-1 $226 $530 #
ellipse-curve $-1 42.417036703097047 -0.26600742978056857 4.6738230185121798 0.80901700255871778 0 0.5877852410284794 0.5877852410284794 0 -0.80901700255871778 1 I I #
coedge $-1 $368 $368 $-1 $531 reversed $229 $-1 #
edge $-1 $532 0 $532 6.2831853071796004 $230 $533 forward 7 unknown #
vertex $-1 $233 $534 #
ellipse-curve $-1 42.417036703097047 2.7876754885323116 4.6738230185121798 0.80901700255871778 0 0.5877852410284794 0.5877852410284794 0 -0.80901700255871778 1 I I #
face $-1 $-1 $384 $51 $-1 $535 forward single #
loop $-1 $-1 $536 $234 #
plane-surface $-1 -45.007477034821619 0 0 1 0 0 0 0 -1 forward_v I I I I #
coedge $-1 $537 $538 $539 $540 reversed $235 $-1 #
coedge $-1 $541 $237 $239 $382 forward $147 $-1 #
coedge $-1 $237 $541 $537 $542 forward $147 $-1 #
coedge $-1 $539 $240 $237 $379 forward $384 $-1 #
edge $-1 $386 -7.4223217538471573 $543 -1.5760872901648062 $378 $544 forward 7 unknown #
coedge $-1 $545 $546 $238 $381 forward $373 $-1 #
edge $-1 $547 -23.995755645922056 $385 -18.100708437015989 $380 $548 forward 7 unknown #
edge $-1 $386 -7.1107116814088229 $547 -2.5250441212413278e-014 $239 $549 forward 7 unknown #
coedge $-1 $240 $539 $545 $550 forward $384 $-1 #
loop $-1 $-1 $539 $372 #
vertex $-1 $381 $551 #
vertex $-1 $241 $552 #
straight-curve $-1 -59.816628388578096 -11.92152627585314 8.2392583615501067 1 0 0 I I #
coedge $-1 $388 $388 $-1 $553 reversed $244 $-1 #
edge $-1 $554 0 $554 6.2831853071796004 $245 $555 forward 7 unknown #
vertex $-1 $248 $556 #
ellipse-curve $-1 -43.019347321944949 -10.251173571943898 5.2917347570970659 -0.82903758062907751 0 0.55919289150049634 0.27959644575024817 0 0.41451879031453875 1 I I #
coedge $-1 $392 $392 $-1 $557 reversed $251 $-1 #
edge $-1 $558 0 $558 6.2831853071796004 $252 $559 forward 7 unknown #
vertex $-1 $255 $560 #
ellipse-curve $-1 -43.019347321944949 -7.7456445160800325 5.2917347570970659 -0.82903758062907751 0 0.55919289150049634 0.27959644575024817 0 0.41451879031453875 1 I I #
face $-1 $-1 $561 $54 $-1 $562 reversed single #
loop $-1 $-1 $262 $256 #
plane-surface $-1 0 0 8.2392583615501049 0 0 1 1 0 0 forward_v I I I I #
coedge $-1 $563 $564 $565 $566 reversed $257 $-1 #
coedge $-1 $567 $259 $261 $406 forward $161 $-1 #
coedge $-1 $259 $567 $563 $568 forward $161 $-1 #
coedge $-1 $565 $262 $259 $403 forward $397 $-1 #
edge $-1 $409 -2.9231172318411742 $569 2.9231172318411778 $402 $570 forward 7 unknown #
coedge $-1 $571 $572 $260 $405 forward $561 $-1 #
edge $-1 $573 -23.995755645922056 $408 -18.100708437015989 $404 $574 forward 7 unknown #
edge $-1 $409 -7.1107116814088229 $573 -2.5250441212413278e-014 $261 $575 forward 7 unknown #
coedge $-1 $262 $565 $571 $576 forward $397 $-1 #
vertex $-1 $263 $577 #
vertex $-1 $263 $578 #
straight-curve $-1 -59.816628388578096 -2.9231172318411724 8.2392583615501067 1 0 0 I I #
coedge $-1 $411 $411 $-1 $579 reversed $266 $-1 #
edge $-1 $580 0 $580 6.2831853071796004 $267 $581 forward 7 unknown #
vertex $-1 $270 $582 #
ellipse-curve $-1 -43.019347321944949 -1.2527645279319302 5.2917347570970659 -0.82903758062907751 0 0.55919289150049634 0.27959644575024817 0 0.41451879031453875 1 I I #
coedge $-1 $415 $415 $-1 $583 reversed $273 $-1 #
edge $-1 $584 0 $584 6.2831853071796004 $274 $585 forward 7 unknown #
vertex $-1 $277 $586 #
ellipse-curve $-1 -43.019347321944949 1.2527645279319337 5.2917347570970659 -0.82903758062907751 0 0.55919289150049634 0.27959644575024817 0 0.41451879031453875 1 I I #
face $-1 $-1 $587 $57 $-1 $588 reversed single #
loop $-1 $-1 $284 $278 #
plane-surface $-1 0 0 8.2392583615501049 0 0 1 1 0 0 forward_v I I I I #
coedge $-1 $589 $590 $591 $592 reversed $279 $-1 #
coedge $-1 $593 $281 $283 $429 forward $175 $-1 #
coedge $-1 $281 $593 $589 $594 forward $175 $-1 #
coedge $-1 $591 $284 $281 $426 forward $420 $-1 #
edge $-1 $432 1.5760872901648098 $595 7.4223217538471609 $425 $596 forward 7 unknown #
coedge $-1 $597 $598 $282 $428 forward $587 $-1 #
edge $-1 $599 -23.995755645922056 $431 -18.100708437015989 $427 $600 forward 7 unknown #
edge $-1 $432 -7.1107116814088229 $599 -2.5250441212413278e-014 $283 $601 forward 7 unknown #
coedge $-1 $284 $591 $597 $602 forward $420 $-1 #
vertex $-1 $285 $603 #
vertex $-1 $285 $604 #
straight-curve $-1 -59.816628388578096 6.0752918121707955 8.2392583615501067 1 0 0 I I #
coedge $-1 $434 $434 $-1 $605 reversed $288 $-1 #
edge $-1 $606 0 $606 6.2831853071796004 $289 $607 forward 7 unknown #
vertex $-1 $292 $608 #
ellipse-curve $-1 -43.019347321944949 7.7456445160800378 5.2917347570970659 -0.82903758062907751 0 0.55919289150049634 0.27959644575024817 0 0.41451879031453875 1 I I #
coedge $-1 $438 $438 $-1 $609 reversed $295 $-1 #
edge $-1 $610 0 $610 6.2831853071796004 $296 $611 forward 7 unknown #
vertex $-1 $299 $612 #
ellipse-curve $-1 -43.019347321944949 10.251173571943902 5.2917347570970659 -0.82903758062907751 0 0.55919289150049634 0.27959644575024817 0 0.41451879031453875 1 I I #
face $-1 $-1 $315 $45 $-1 $613 reversed single #
loop $-1 $-1 $458 $300 #
plane-surface $-1 0 21.583040502443286 0 0 -1 0 0 0 -1 forward_v I I I I #
coedge $-1 $614 $455 $458 $615 forward $301 $-1 #
coedge $-1 $303 $461 $304 $449 reversed $189 $-1 #
edge $-1 $316 -8.2392583615501049 $453 8.2392583615501049 $313 $616 forward 7 unknown #
coedge $-1 $305 $304 $614 $617 forward $121 $-1 #
edge $-1 $453 -45.007477034821619 $618 45.007477034821619 $446 $619 forward 7 unknown #
coedge $-1 $458 $457 $305 $451 reversed $443 $-1 #
edge $-1 $620 -45.007477034821619 $452 45.007477034821619 $450 $621 forward 7 unknown #
vertex $-1 $307 $622 #
vertex $-1 $447 $623 #
straight-curve $-1 45.007477034821619 0 -8.2392583615501049 0 -1 0 I I #
coedge $-1 $445 $624 $308 $456 reversed $301 $-1 #
edge $-1 $459 -21.583040502443286 $462 21.583040502443286 $455 $625 forward 7 unknown #
coedge $-1 $450 $309 $314 $464 forward $443 $-1 #
coedge $-1 $309 $450 $445 $615 reversed $443 $-1 #
vertex $-1 $310 $626 #
straight-curve $-1 0 21.583040502443286 8.2392583615501049 -1 0 0 I I #
coedge $-1 $446 $311 $624 $627 forward $189 $-1 #
vertex $-1 $456 $628 #
straight-curve $-1 0 -21.583040502443286 8.2392583615501049 1 0 0 I I #
edge $-1 $317 -8.2392583615501049 $452 8.2392583615501049 $314 $629 forward 7 unknown #
point $-1 45.007477034821619 -21.583040502443286 8.2392583615501049 #
point $-1 45.007477034821619 21.583040502443286 8.2392583615501049 #
face $-1 $-1 $481 $46 $-1 $630 reversed single #
loop $-1 $-1 $631 $319 #
plane-surface $-1 0 -31.244554729033428 -6.7392583615501049 0 1 0 0 0 1 forward_v I I I I #
coedge $-1 $632 $322 $331 $485 reversed $197 $-1 #
coedge $-1 $322 $632 $323 $473 reversed $197 $-1 #
coedge $-1 $324 $323 $633 $634 forward $125 $-1 #
edge $-1 $477 21.583040502443286 $635 31.244554729033428 $471 $636 forward 7 unknown #
coedge $-1 $637 $328 $324 $475 reversed $481 $-1 #
edge $-1 $638 -31.244554729033428 $476 -21.583040502443286 $474 $639 forward 7 unknown #
vertex $-1 $329 $640 #
vertex $-1 $473 $641 #
straight-curve $-1 0 -21.583040502443286 -8.2392583615501049 1 0 0 I I #
straight-curve $-1 45.007477034821619 -21.583040502443286 0 0 0 1 I I #
coedge $-1 $328 $637 $330 $484 reversed $481 $-1 #
loop $-1 $-1 $328 $467 #
straight-curve $-1 -45.007477034821619 -21.583040502443286 0 0 0 -1 I I #
coedge $-1 $331 $330 $642 $643 forward $320 $-1 #
edge $-1 $332 -4.8307571132950713 $644 4.8307571132950713 $480 $645 forward 7 unknown #
edge $-1 $646 -4.8307571132950713 $333 4.8307571132950713 $470 $647 forward 7 unknown #
point $-1 -45.007477034821619 -21.583040502443286 -5.2392583615501049 #
point $-1 45.007477034821619 -21.583040502443286 -5.2392583615501049 #
face $-1 $-1 $504 $47 $-1 $648 reversed single #
loop $-1 $-1 $501 $335 #
plane-surface $-1 0 0 -8.2392583615501049 0 0 1 1 0 0 forward_v I I I I #
coedge $-1 $649 $650 $651 $652 forward $336 $-1 #
coedge $-1 $345 $338 $650 $653 forward $205 $-1 #
coedge $-1 $343 $651 $338 $494 reversed $504 $-1 #
edge $-1 $346 -4.8307571132950713 $654 4.8307571132950713 $493 $655 forward 7 unknown #
coedge $-1 $340 $339 $656 $657 forward $129 $-1 #
edge $-1 $658 -4.8307571132950713 $347 4.8307571132950713 $339 $659 forward 7 unknown #
coedge $-1 $660 $501 $340 $498 forward $489 $-1 #
edge $-1 $499 -4.8307571132950713 $661 4.8307571132950713 $340 $662 forward 7 unknown #
vertex $-1 $498 $663 #
straight-curve $-1 -45.007477034821619 21.583040502443286 0 0 0 1 I I #
coedge $-1 $497 $664 $342 $502 forward $489 $-1 #
edge $-1 $505 -45.007477034821619 $499 45.007477034821619 $501 $665 forward 7 unknown #
coedge $-1 $651 $343 $664 $666 reversed $504 $-1 #
loop $-1 $-1 $343 $488 #
vertex $-1 $344 $667 #
straight-curve $-1 45.007477034821619 21.583040502443286 0 0 0 -1 I I #
point $-1 45.007477034821619 21.583040502443286 -5.2392583615501049 #
point $-1 -45.007477034821619 21.583040502443286 -5.2392583615501049 #
loop $-1 $-1 $357 $349 #
plane-surface $-1 45.007477034821619 0 0 -1 0 0 0 0 1 forward_v I I I I #
coedge $-1 $512 $352 $354 $516 reversed $213 $-1 #
coedge $-1 $352 $511 $668 $669 reversed $213 $-1 #
coedge $-1 $360 $355 $352 $514 forward $350 $-1 #
edge $-1 $517 7.3657744275163637 $670 12.54665509096548 $513 $671 forward 7 unknown #
coedge $-1 $354 $353 $520 $672 reversed $133 $-1 #
edge $-1 $673 -90.014954069643252 $517 -81.200713252055095 $511 $674 forward 7 unknown #
vertex $-1 $356 $675 #
straight-curve $-1 39.826596371372496 0.63041701468793754 8.2392583615501138 0 -1 0 I I #
coedge $-1 $668 $357 $360 $524 reversed $509 $-1 #
coedge $-1 $357 $668 $515 $672 forward $509 $-1 #
vertex $-1 $358 $676 #
straight-curve $-1 45.007477034821619 4.8234641007409014 63.420738738175217 0 0 1 I I #
straight-curve $-1 -7.9019844391711445 4.8234641007409014 73.93201600235767 0.5877852410284794 0 -0.80901700255871778 I I #
edge $-1 $670 -2.3017960419891512 $361 4.8234641007409014 $519 $677 forward 7 unknown #
point $-1 45.007477034821619 4.8234641007409014 8.2392583615501049 #
point $-1 39.826596371372503 4.8234641007409014 8.2392583615500996 #
edge $-1 $678 1 $678 0 $364 $-1 forward 7 unknown #
vertex $-1 $365 $679 #
ellipse-curve $-1 39.841895117054044 -0.26600742978056857 2.802873195396578 0.80901700255871778 0 0.5877852410284794 0.5877852410284794 0 -0.80901700255871778 1 I I #
point $-1 43.004821944125545 -0.26600742978056857 3.8648060159534756 #
edge $-1 $680 1 $680 0 $368 $-1 forward 7 unknown #
vertex $-1 $369 $681 #
ellipse-curve $-1 39.841895117054044 2.7876754885323116 2.802873195396578 0.80901700255871778 0 0.5877852410284794 0.5877852410284794 0 -0.80901700255871778 1 I I #
point $-1 43.004821944125545 2.7876754885323116 3.8648060159534756 #
plane-surface $-1 0 0 8.2392583615501049 0 0 1 1 0 0 forward_v I I I I #
coedge $-1 $546 $545 $538 $682 forward $373 $-1 #
coedge $-1 $538 $375 $377 $542 reversed $235 $-1 #
coedge $-1 $375 $537 $536 $682 reversed $235 $-1 #
coedge $-1 $383 $378 $375 $540 forward $384 $-1 #
edge $-1 $543 -18.785410779509817 $683 -14.809151353756477 $539 $684 forward 7 unknown #
coedge $-1 $377 $376 $546 $685 reversed $147 $-1 #
edge $-1 $686 2.5250441212413278e-014 $543 7.1107116814088229 $537 $687 forward 7 unknown #
vertex $-1 $379 $688 #
straight-curve $-1 -41.031217609068278 -4.4992045220059822 8.2392583615501049 0 1 0 I I #
coedge $-1 $536 $380 $383 $550 reversed $373 $-1 #
coedge $-1 $380 $536 $541 $685 forward $373 $-1 #
vertex $-1 $381 $689 #
straight-curve $-1 -45.007477034821619 -11.92152627585314 26.339966798566092 0 0 1 I I #
straight-curve $-1 -45.007477034821633 -11.92152627585314 2.3442111526440144 -0.55919289150049634 0 -0.82903758062907751 I I #
edge $-1 $683 6.0752918121707884 $385 11.92152627585314 $545 $690 forward 7 unknown #
point $-1 -45.007477034821619 -11.92152627585314 8.2392583615501049 #
point $-1 -41.031217609068278 -11.92152627585314 8.2392583615501049 #
edge $-1 $691 1 $691 0 $388 $-1 forward 7 unknown #
vertex $-1 $389 $692 #
ellipse-curve $-1 -41.429774594524282 -10.251173571943898 4.2195544477048026 -0.82903758062907751 0 0.55919289150049634 0.27959644575024817 0 0.41451879031453875 1 I I #
point $-1 -42.739750876194691 -10.251173571943898 5.7062535474115936 #
edge $-1 $693 1 $693 0 $392 $-1 forward 7 unknown #
vertex $-1 $393 $694 #
ellipse-curve $-1 -41.429774594524282 -7.7456445160800325 4.2195544477048026 -0.82903758062907751 0 0.55919289150049634 0.27959644575024817 0 0.41451879031453875 1 I I #
point $-1 -42.739750876194691 -7.7456445160800325 5.7062535474115936 #
loop $-1 $-1 $404 $396 #
plane-surface $-1 -45.007477034821619 0 0 1 0 0 0 0 -1 forward_v I I I I #
coedge $-1 $564 $399 $401 $568 reversed $257 $-1 #
coedge $-1 $399 $563 $695 $696 reversed $257 $-1 #
coedge $-1 $407 $402 $399 $566 forward $397 $-1 #
edge $-1 $569 -18.785410779509817 $697 -14.809151353756477 $565 $698 forward 7 unknown #
coedge $-1 $401 $400 $572 $699 reversed $161 $-1 #
edge $-1 $700 2.5250441212413278e-014 $569 7.1107116814088229 $563 $701 forward 7 unknown #
vertex $-1 $403 $702 #
straight-curve $-1 -41.031217609068278 1.7763568394002505e-015 8.2392583615501049 0 1 0 I I #
coedge $-1 $695 $404 $407 $576 reversed $561 $-1 #
coedge $-1 $404 $695 $567 $699 forward $561 $-1 #
vertex $-1 $405 $703 #
straight-curve $-1 -45.007477034821619 -2.9231172318411724 26.339966798566092 0 0 1 I I #
straight-curve $-1 -45.007477034821633 -2.9231172318411724 2.3442111526440144 -0.55919289150049634 0 -0.82903758062907751 I I #
edge $-1 $697 -2.9231172318411796 $408 2.9231172318411724 $571 $704 forward 7 unknown #
point $-1 -45.007477034821619 -2.9231172318411724 8.2392583615501049 #
point $-1 -41.031217609068278 -2.9231172318411724 8.2392583615501049 #
edge $-1 $705 1 $705 0 $411 $-1 forward 7 unknown #
vertex $-1 $412 $706 #
ellipse-curve $-1 -41.429774594524282 -1.2527645279319302 4.2195544477048026 -0.82903758062907751 0 0.55919289150049634 0.27959644575024817 0 0.41451879031453875 1 I I #
point $-1 -42.739750876194691 -1.2527645279319302 5.7062535474115936 #
edge $-1 $707 1 $707 0 $415 $-1 forward 7 unknown #
vertex $-1 $416 $708 #
ellipse-curve $-1 -41.429774594524282 1.2527645279319337 4.2195544477048026 -0.82903758062907751 0 0.55919289150049634 0.27959644575024817 0 0.41451879031453875 1 I I #
point $-1 -42.739750876194691 1.2527645279319337 5.7062535474115936 #
loop $-1 $-1 $427 $419 #
plane-surface $-1 -45.007477034821619 0 0 1 0 0 0 0 -1 forward_v I I I I #
coedge $-1 $590 $422 $424 $594 reversed $279 $-1 #
coedge $-1 $422 $589 $709 $710 reversed $279 $-1 #
coedge $-1 $430 $425 $422 $592 forward $420 $-1 #
edge $-1 $595 -18.785410779509817 $711 -14.809151353756477 $591 $712 forward 7 unknown #
coedge $-1 $424 $423 $598 $713 reversed $175 $-1 #
edge $-1 $714 2.5250441212413278e-014 $595 7.1107116814088229 $589 $715 forward 7 unknown #
vertex $-1 $426 $716 #
straight-curve $-1 -41.031217609068278 4.4992045220059858 8.2392583615501049 0 1 0 I I #
coedge $-1 $709 $427 $430 $602 reversed $587 $-1 #
coedge $-1 $427 $709 $593 $713 forward $587 $-1 #
vertex $-1 $428 $717 #
straight-curve $-1 -45.007477034821619 6.0752918121707955 26.339966798566092 0 0 1 I I #
straight-curve $-1 -45.007477034821633 6.0752918121707955 2.3442111526440144 -0.55919289150049634 0 -0.82903758062907751 I I #
edge $-1 $711 -11.921526275853147 $431 -6.0752918121707955 $597 $718 forward 7 unknown #
point $-1 -45.007477034821619 6.0752918121707955 8.2392583615501049 #
point $-1 -41.031217609068278 6.0752918121707955 8.2392583615501049 #
edge $-1 $719 1 $719 0 $434 $-1 forward 7 unknown #
vertex $-1 $435 $720 #
ellipse-curve $-1 -41.429774594524282 7.7456445160800378 4.2195544477048026 -0.82903758062907751 0 0.55919289150049634 0.27959644575024817 0 0.41451879031453875 1 I I #
point $-1 -42.739750876194691 7.7456445160800378 5.7062535474115936 #
edge $-1 $721 1 $721 0 $438 $-1 forward 7 unknown #
vertex $-1 $439 $722 #
ellipse-curve $-1 -41.429774594524282 10.251173571943902 4.2195544477048026 -0.82903758062907751 0 0.55919289150049634 0.27959644575024817 0 0.41451879031453875 1 I I #
point $-1 -42.739750876194691 10.251173571943902 5.7062535474115936 #
plane-surface $-1 45.007477034821619 0 0 -1 0 0 0 0 1 forward_v I I I I #
coedge $-1 $624 $445 $448 $617 reversed $301 $-1 #
edge $-1 $459 -8.2392583615501049 $620 8.2392583615501049 $458 $723 forward 7 unknown #
straight-curve $-1 45.007477034821619 -21.583040502443286 0 0 0 -1 I I #
edge $-1 $618 -21.583040502443286 $620 21.583040502443286 $614 $724 forward 7 unknown #
vertex $-1 $617 $725 #
straight-curve $-1 0 -21.583040502443286 -8.2392583615501049 -1 0 0 I I #
vertex $-1 $451 $726 #
straight-curve $-1 0 21.583040502443286 -8.2392583615501049 1 0 0 I I #
point $-1 45.007477034821619 21.583040502443286 -8.2392583615501049 #
point $-1 45.007477034821619 -21.583040502443286 -8.2392583615501049 #
coedge $-1 $455 $614 $461 $627 reversed $301 $-1 #
straight-curve $-1 -45.007477034821619 0 8.2392583615501049 0 -1 0 I I #
point $-1 -45.007477034821619 21.583040502443286 8.2392583615501049 #
edge $-1 $462 -8.2392583615501049 $618 8.2392583615501049 $624 $727 forward 7 unknown #
point $-1 -45.007477034821619 -21.583040502443286 8.2392583615501049 #
straight-curve $-1 45.007477034821619 21.583040502443286 0 0 0 -1 I I #
plane-surface $-1 -45.007477034821619 0 0 1 0 0 0 0 -1 forward_v I I I I #
coedge $-1 $633 $642 $637 $728 forward $468 $-1 #
coedge $-1 $471 $470 $729 $730 forward $197 $-1 #
coedge $-1 $729 $631 $472 $634 reversed $468 $-1 #
edge $-1 $635 -45.007477034821619 $638 45.007477034821619 $633 $731 forward 7 unknown #
vertex $-1 $730 $732 #
straight-curve $-1 45.007477034821619 0 -8.2392583615501049 0 -1 0 I I #
coedge $-1 $480 $474 $631 $728 reversed $481 $-1 #
vertex $-1 $475 $733 #
straight-curve $-1 -45.007477034821619 0 -8.2392583615501049 0 1 0 I I #
point $-1 -45.007477034821619 -21.583040502443286 -8.2392583615501049 #
point $-1 45.007477034821619 -21.583040502443286 -8.2392583615501049 #
coedge $-1 $631 $729 $483 $643 reversed $468 $-1 #
edge $-1 $644 -45.007477034821619 $646 45.007477034821619 $642 $734 forward 7 unknown #
vertex $-1 $484 $735 #
straight-curve $-1 -45.007477034821619 -26.413797615738357 -5.2392583615501049 0 -1 0 I I #
vertex $-1 $485 $736 #
straight-curve $-1 45.007477034821619 -26.413797615738357 -5.2392583615501049 0 1 0 I I #
plane-surface $-1 45.007477034821619 0 0 -1 0 0 0 0 1 forward_v I I I I #
coedge $-1 $656 $491 $660 $737 reversed $336 $-1 #
coedge $-1 $491 $656 $492 $653 reversed $336 $-1 #
coedge $-1 $493 $503 $491 $652 reversed $504 $-1 #
edge $-1 $654 -1.5 $738 1.5 $651 $739 forward 7 unknown #
edge $-1 $654 -45.007477034821619 $658 45.007477034821619 $650 $740 forward 7 unknown #
vertex $-1 $494 $741 #
straight-curve $-1 45.007477034821619 26.413797615738357 -5.2392583615501049 0 1 0 I I #
coedge $-1 $650 $649 $495 $657 reversed $336 $-1 #
edge $-1 $658 -1.5 $661 1.5 $656 $742 forward 7 unknown #
vertex $-1 $653 $743 #
straight-curve $-1 -45.007477034821619 26.413797615738357 -5.2392583615501049 0 -1 0 I I #
coedge $-1 $664 $497 $649 $737 forward $489 $-1 #
vertex $-1 $737 $744 #
straight-curve $-1 -45.007477034821619 26.413797615738357 -8.2392583615501049 0 1 0 I I #
point $-1 -45.007477034821619 21.583040502443286 -8.2392583615501049 #
coedge $-1 $501 $660 $503 $666 forward $489 $-1 #
straight-curve $-1 0 21.583040502443286 -8.2392583615501049 -1 0 0 I I #
edge $-1 $738 -31.244554729033428 $505 -21.583040502443286 $503 $745 forward 7 unknown #
point $-1 45.007477034821619 21.583040502443286 -8.2392583615501049 #
coedge $-1 $520 $519 $512 $669 forward $509 $-1 #
edge $-1 $670 55.18148037662511 $673 62.312351062700984 $668 $746 forward 7 unknown #
vertex $-1 $524 $747 #
straight-curve $-1 32.460821943856139 -2.3017960419891512 8.2392583615501067 1 0 0 I I #
edge $-1 $673 -2.9322130566770888 $521 4.1930470860529638 $520 $748 forward 7 unknown #
vertex $-1 $672 $749 #
straight-curve $-1 -7.9019844391711445 -2.3017960419891512 73.93201600235767 -0.5877852410284794 0 0.80901700255871778 I I #
point $-1 39.826596371372503 -2.3017960419891512 8.2392583615500996 #
point $-1 45.007477034821619 4.8234641007409014 1.1083876754742334 #
straight-curve $-1 45.007477034821619 0 8.2392583615501049 0 1 0 I I #
vertex $-1 $527 $750 #
point $-1 40.429680358082521 -0.26600742978056857 1.9938561928378604 #
vertex $-1 $531 $751 #
point $-1 40.429680358082521 2.7876754885323116 1.9938561928378604 #
edge $-1 $683 18.100708437015989 $686 23.995755645922056 $536 $752 forward 7 unknown #
vertex $-1 $550 $753 #
straight-curve $-1 -59.816628388578096 -6.0752918121707884 8.2392583615501067 -1 0 0 I I #
edge $-1 $686 1.5760872901648062 $547 7.4223217538471573 $546 $754 forward 7 unknown #
vertex $-1 $685 $755 #
straight-curve $-1 -45.007477034821633 -6.0752918121707884 2.3442111526440144 0.55919289150049634 0 0.82903758062907751 I I #
point $-1 -41.031217609068278 -6.0752918121707884 8.2392583615501049 #
point $-1 -45.007477034821619 -11.92152627585314 2.3442111526440352 #
straight-curve $-1 -45.007477034821619 0 8.2392583615501049 0 -1 0 I I #
vertex $-1 $553 $756 #
point $-1 -41.150178148774032 -10.251173571943898 4.634073238019341 #
vertex $-1 $557 $757 #
point $-1 -41.150178148774032 -7.7456445160800325 4.634073238019341 #
coedge $-1 $572 $571 $564 $696 forward $561 $-1 #
edge $-1 $697 18.100708437015989 $700 23.995755645922056 $695 $758 forward 7 unknown #
vertex $-1 $576 $759 #
straight-curve $-1 -59.816628388578096 2.9231172318411796 8.2392583615501067 -1 0 0 I I #
edge $-1 $700 -2.9231172318411778 $573 2.9231172318411742 $572 $760 forward 7 unknown #
vertex $-1 $699 $761 #
straight-curve $-1 -45.007477034821633 2.9231172318411796 2.3442111526440144 0.55919289150049634 0 0.82903758062907751 I I #
point $-1 -41.031217609068278 2.9231172318411796 8.2392583615501049 #
point $-1 -45.007477034821619 -2.9231172318411724 2.3442111526440352 #
straight-curve $-1 -45.007477034821619 0 8.2392583615501049 0 -1 0 I I #
vertex $-1 $579 $762 #
point $-1 -41.150178148774032 -1.2527645279319302 4.634073238019341 #
vertex $-1 $583 $763 #
point $-1 -41.150178148774032 1.2527645279319337 4.634073238019341 #
coedge $-1 $598 $597 $590 $710 forward $587 $-1 #
edge $-1 $711 18.100708437015989 $714 23.995755645922056 $709 $764 forward 7 unknown #
vertex $-1 $602 $765 #
straight-curve $-1 -59.816628388578096 11.921526275853147 8.2392583615501067 -1 0 0 I I #
edge $-1 $714 -7.4223217538471609 $599 -1.5760872901648098 $598 $766 forward 7 unknown #
vertex $-1 $713 $767 #
straight-curve $-1 -45.007477034821633 11.921526275853147 2.3442111526440144 0.55919289150049634 0 0.82903758062907751 I I #
point $-1 -41.031217609068278 11.921526275853147 8.2392583615501049 #
point $-1 -45.007477034821619 6.0752918121707955 2.3442111526440352 #
straight-curve $-1 -45.007477034821619 0 8.2392583615501049 0 -1 0 I I #
vertex $-1 $605 $768 #
point $-1 -41.150178148774032 7.7456445160800378 4.634073238019341 #
vertex $-1 $609 $769 #
point $-1 -41.150178148774032 10.251173571943902 4.634073238019341 #
straight-curve $-1 -45.007477034821619 21.583040502443286 0 0 0 -1 I I #
straight-curve $-1 -45.007477034821619 0 -8.2392583615501049 0 1 0 I I #
point $-1 -45.007477034821619 -21.583040502443286 -8.2392583615501049 #
point $-1 -45.007477034821619 21.583040502443286 -8.2392583615501049 #
straight-curve $-1 -45.007477034821619 -21.583040502443286 0 0 0 -1 I I #
edge $-1 $644 -1.5 $638 1.5 $637 $770 forward 7 unknown #
coedge $-1 $642 $633 $632 $730 reversed $468 $-1 #
edge $-1 $646 -1.5 $635 1.5 $632 $771 forward 7 unknown #
straight-curve $-1 0 -31.244554729033428 -8.2392583615501049 -1 0 0 I I #
point $-1 45.007477034821619 -31.244554729033428 -8.2392583615501049 #
point $-1 -45.007477034821619 -31.244554729033428 -8.2392583615501049 #
straight-curve $-1 0 -31.244554729033428 -5.2392583615501049 1 0 0 I I #
point $-1 -45.007477034821619 -31.244554729033428 -5.2392583615501049 #
point $-1 45.007477034821619 -31.244554729033428 -5.2392583615501049 #
edge $-1 $661 -45.007477034821619 $738 45.007477034821619 $649 $772 forward 7 unknown #
vertex $-1 $666 $773 #
straight-curve $-1 45.007477034821619 31.244554729033428 -6.7392583615501049 0 0 -1 I I #
straight-curve $-1 0 31.244554729033428 -5.2392583615501049 -1 0 0 I I #
point $-1 45.007477034821619 31.244554729033428 -5.2392583615501049 #
straight-curve $-1 -45.007477034821619 31.244554729033428 -6.7392583615501049 0 0 -1 I I #
point $-1 -45.007477034821619 31.244554729033428 -5.2392583615501049 #
point $-1 -45.007477034821619 31.244554729033428 -8.2392583615501049 #
straight-curve $-1 45.007477034821619 0 -8.2392583615501049 0 -1 0 I I #
straight-curve $-1 45.007477034821619 -2.3017960419891512 63.420738738175217 0 0 -1 I I #
point $-1 45.007477034821619 -2.3017960419891512 8.2392583615501049 #
straight-curve $-1 45.007477034821619 0.63041701468793754 1.1083876754742263 0 1 0 I I #
point $-1 45.007477034821619 -2.3017960419891512 1.1083876754742334 #
point $-1 39.032878114495325 -0.26600742978056857 2.2150879543680988 #
point $-1 39.032878114495325 2.7876754885323116 2.2150879543680988 #
straight-curve $-1 -45.007477034821619 -6.0752918121707884 26.339966798566092 0 0 -1 I I #
point $-1 -45.007477034821619 -6.0752918121707884 8.2392583615501049 #
straight-curve $-1 -45.007477034821619 -4.4992045220059822 2.3442111526440321 0 -1 0 I I #
point $-1 -45.007477034821619 -6.0752918121707884 2.3442111526440352 #
point $-1 -41.015255804209737 -10.251173571943898 3.9399580019545541 #
point $-1 -41.015255804209737 -7.7456445160800325 3.9399580019545541 #
straight-curve $-1 -45.007477034821619 2.9231172318411796 26.339966798566092 0 0 -1 I I #
point $-1 -45.007477034821619 2.9231172318411796 8.2392583615501049 #
straight-curve $-1 -45.007477034821619 1.7763568394002505e-015 2.3442111526440321 0 -1 0 I I #
point $-1 -45.007477034821619 2.9231172318411796 2.3442111526440352 #
point $-1 -41.015255804209737 -1.2527645279319302 3.9399580019545541 #
point $-1 -41.015255804209737 1.2527645279319337 3.9399580019545541 #
straight-curve $-1 -45.007477034821619 11.921526275853147 26.339966798566092 0 0 -1 I I #
point $-1 -45.007477034821619 11.921526275853147 8.2392583615501049 #
straight-curve $-1 -45.007477034821619 4.4992045220059858 2.3442111526440321 0 -1 0 I I #
point $-1 -45.007477034821619 11.921526275853147 2.3442111526440352 #
point $-1 -41.015255804209737 7.7456445160800378 3.9399580019545541 #
point $-1 -41.015255804209737 10.251173571943902 3.9399580019545541 #
straight-curve $-1 -45.007477034821619 -31.244554729033428 -6.7392583615501049 0 0 -1 I I #
straight-curve $-1 45.007477034821619 -31.244554729033428 -6.7392583615501049 0 0 -1 I I #
straight-curve $-1 0 31.244554729033428 -8.2392583615501049 1 0 0 I I #
point $-1 45.007477034821619 31.244554729033428 -8.2392583615501049 #
End-of-ACIS-data 