500 0 11 0           
7 Unknown 11 ACIS 5.0 NT 24 Thu Mar 25 18:42:49 1999 
-1 9.9999999999999995e-007 1e-010 
body $-1 $11 $-1 $12 #
body $-1 $13 $-1 $14 #
body $-1 $15 $-1 $16 #
body $-1 $17 $-1 $18 #
body $-1 $19 $-1 $20 #
body $-1 $21 $-1 $22 #
body $-1 $23 $-1 $24 #
body $-1 $25 $-1 $26 #
body $-1 $27 $-1 $28 #
body $-1 $29 $-1 $30 #
body $-1 $31 $-1 $32 #
lump $-1 $-1 $33 $0 #
transform $-1 1 0 0 0 1 0 0 0 1 69.849543748283338 34.714799033808227 15.879793077118586 1 rotate no_reflect no_shear #
lump $-1 $-1 $34 $1 #
transform $-1 1 0 0 0 1 0 0 0 1 69.849543748283338 34.714799033808227 15.879793077118586 1 rotate no_reflect no_shear #
lump $-1 $-1 $35 $2 #
transform $-1 1 0 0 0 1 0 0 0 1 69.849543748283338 34.714799033808227 15.879793077118586 1 rotate no_reflect no_shear #
lump $-1 $-1 $36 $3 #
transform $-1 1 0 0 0 1 0 0 0 1 69.849543748283338 34.714799033808227 15.879793077118586 1 rotate no_reflect no_shear #
lump $-1 $-1 $37 $4 #
transform $-1 1 0 0 0 1 0 0 0 1 69.849543748283338 34.714799033808227 15.879793077118586 1 rotate no_reflect no_shear #
lump $-1 $-1 $38 $5 #
transform $-1 1 0 0 0 1 0 0 0 1 69.849543748283338 34.714799033808227 15.879793077118586 1 rotate no_reflect no_shear #
lump $-1 $-1 $39 $6 #
transform $-1 1 0 0 0 1 0 0 0 1 69.849543748283338 34.714799033808227 15.879793077118586 1 rotate no_reflect no_shear #
lump $-1 $-1 $40 $7 #
transform $-1 1 0 0 0 1 0 0 0 1 69.849543748283338 34.714799033808227 15.879793077118586 1 rotate no_reflect no_shear #
lump $-1 $-1 $41 $8 #
transform $-1 1 0 0 0 1 0 0 0 1 69.849543748283338 34.714799033808227 15.879793077118586 1 rotate no_reflect no_shear #
lump $-1 $-1 $42 $9 #
transform $-1 1 0 0 0 1 0 0 0 1 69.849543748283338 34.714799033808227 15.879793077118586 1 rotate no_reflect no_shear #
lump $-1 $-1 $43 $10 #
transform $-1 1 0 0 0 1 0 0 0 1 69.849543748283338 34.714799033808227 15.879793077118586 1 rotate no_reflect no_shear #
shell $-1 $-1 $-1 $44 $-1 $11 #
shell $-1 $-1 $-1 $45 $-1 $13 #
shell $-1 $-1 $-1 $46 $-1 $15 #
shell $-1 $-1 $-1 $47 $-1 $17 #
shell $-1 $-1 $-1 $48 $-1 $19 #
shell $-1 $-1 $-1 $49 $-1 $21 #
shell $-1 $-1 $-1 $50 $-1 $23 #
shell $-1 $-1 $-1 $51 $-1 $25 #
shell $-1 $-1 $-1 $52 $-1 $27 #
shell $-1 $-1 $-1 $53 $-1 $29 #
shell $-1 $-1 $-1 $54 $-1 $31 #
face $-1 $55 $56 $33 $-1 $57 forward single #
face $-1 $58 $59 $34 $-1 $60 forward single #
face $-1 $61 $62 $35 $-1 $63 forward single #
face $-1 $64 $65 $36 $-1 $66 reversed single #
face $-1 $67 $68 $37 $-1 $69 forward single #
face $-1 $70 $71 $38 $-1 $72 forward single #
face $-1 $73 $74 $39 $-1 $75 forward single #
face $-1 $76 $77 $40 $-1 $78 reversed single #
face $-1 $79 $80 $41 $-1 $81 forward single #
face $-1 $82 $83 $42 $-1 $84 forward single #
face $-1 $85 $86 $43 $-1 $87 forward single #
face $-1 $88 $89 $33 $-1 $90 reversed single #
loop $-1 $-1 $91 $44 #
plane-surface $-1 0 0 15.879793077118586 0 0 1 1 0 0 forward_v I I I I #
face $-1 $92 $93 $34 $-1 $94 reversed single #
loop $-1 $-1 $95 $45 #
plane-surface $-1 -60.203220066507612 0 14.536114547422718 0 0 1 1 0 0 forward_v I I I I #
face $-1 $96 $97 $35 $-1 $98 reversed single #
loop $-1 $-1 $99 $46 #
plane-surface $-1 60.203220066507612 0 14.536114547422718 0 0 1 1 0 0 forward_v I I I I #
face $-1 $100 $101 $36 $-1 $102 reversed single #
loop $-1 $-1 $103 $47 #
plane-surface $-1 -4.9284974226114784 -104.56434371789891 127.02958603268598 1 0 0 0 0.50000000669873634 -0.8660253999169214 forward_v I I I I #
face $-1 $104 $105 $37 $-1 $106 forward single #
loop $-1 $107 $108 $48 #
cone-surface $-1 -0.16500618610795925 -24.70431566804999 8.3742922237454742 0 0.50000000669873634 -0.8660253999169214 1.5 0 0 1 I I 0 1 1.5 forward I I I I #
face $-1 $109 $110 $38 $-1 $111 forward single #
loop $-1 $112 $113 $49 #
cone-surface $-1 6.9802306686472946 -24.70431566804999 8.3742922237454742 0 0.50000000669873634 -0.8660253999169214 1.5 0 0 1 I I 0 1 1.5 forward I I I I #
face $-1 $114 $115 $39 $-1 $116 forward single #
loop $-1 $117 $118 $50 #
cone-surface $-1 14.125467523402563 -24.70431566804999 8.3742922237454742 0 0.50000000669873634 -0.8660253999169214 1.5 0 0 1 I I 0 1 1.5 forward I I I I #
face $-1 $119 $120 $40 $-1 $121 reversed single #
loop $-1 $-1 $122 $51 #
plane-surface $-1 43.965074477798382 9.3018114455389878e-007 65.730252695189549 0 0.86602541151947299 0.49999998660252726 1 0 0 forward_v I I I I #
face $-1 $123 $124 $41 $-1 $125 forward single #
loop $-1 $126 $127 $52 #
cone-surface $-1 40.009981333638279 30.370201887261892 9.9456598389070905 0 -0.86602541151947299 -0.49999998660252726 1 0 0 1 I I 0 1 1 forward I I I I #
face $-1 $128 $129 $42 $-1 $130 forward single #
loop $-1 $131 $132 $53 #
cone-surface $-1 43.965074477798382 30.370201887261892 9.9456598389070905 0 -0.86602541151947299 -0.49999998660252726 1 0 0 1 I I 0 1 1 forward I I I I #
face $-1 $133 $134 $43 $-1 $135 forward single #
loop $-1 $136 $137 $54 #
cone-surface $-1 47.920167621958484 30.370201887261892 9.9456598389070905 0 -0.86602541151947299 -0.49999998660252726 1 0 0 1 I I 0 1 1 forward I I I I #
face $-1 $138 $139 $33 $-1 $140 reversed single #
loop $-1 $-1 $141 $55 #
plane-surface $-1 0 0 -15.879793077118586 0 0 1 1 0 0 forward_v I I I I #
coedge $-1 $142 $143 $144 $145 forward $56 $-1 #
face $-1 $146 $147 $34 $-1 $148 reversed single #
loop $-1 $-1 $149 $58 #
plane-surface $-1 -60.203220066507612 0 11.036036982751986 0 0 1 1 0 0 forward_v I I I I #
coedge $-1 $150 $151 $152 $153 forward $59 $-1 #
face $-1 $154 $155 $35 $-1 $156 reversed single #
loop $-1 $-1 $157 $61 #
plane-surface $-1 60.203220066507612 0 11.036036982751986 0 0 1 1 0 0 forward_v I I I I #
coedge $-1 $158 $159 $160 $161 reversed $62 $-1 #
face $-1 $162 $163 $36 $-1 $164 reversed single #
loop $-1 $-1 $165 $64 #
plane-surface $-1 6.9802306686472946 -34.71479903380822 6.0466279154428406 0 -0.50000000669873634 0.8660253999169214 1 0 0 forward_v I I I I #
coedge $-1 $166 $167 $168 $169 reversed $65 $-1 #
face $-1 $-1 $170 $37 $-1 $171 forward single #
loop $-1 $172 $173 $67 #
cone-surface $-1 -0.16500618610795925 -22.834602974767282 5.1358549012725465 0 0.50000000669873634 -0.8660253999169214 0.75 0 0 1 I I -0.70710678118654757 0.70710678118654757 0.75 forward I I I I #
loop $-1 $-1 $174 $48 #
coedge $-1 $108 $108 $175 $176 reversed $68 $-1 #
face $-1 $-1 $177 $38 $-1 $178 forward single #
loop $-1 $179 $180 $70 #
cone-surface $-1 6.9802306686472946 -22.834602974767282 5.1358549012725465 0 0.50000000669873634 -0.8660253999169214 0.75 0 0 1 I I -0.70710678118654757 0.70710678118654757 0.75 forward I I I I #
loop $-1 $-1 $181 $49 #
coedge $-1 $113 $113 $182 $183 reversed $71 $-1 #
face $-1 $-1 $184 $39 $-1 $185 forward single #
loop $-1 $186 $187 $73 #
cone-surface $-1 14.125467523402563 -22.834602974767282 5.1358549012725465 0 0.50000000669873634 -0.8660253999169214 0.75 0 0 1 I I -0.70710678118654757 0.70710678118654757 0.75 forward I I I I #
loop $-1 $-1 $188 $50 #
coedge $-1 $118 $118 $189 $190 reversed $74 $-1 #
face $-1 $191 $192 $40 $-1 $193 forward single #
loop $-1 $-1 $194 $76 #
plane-surface $-1 37.373252570864878 120.98296066829016 135.57979457185817 1 0 0 0 -0.86602541151947299 -0.49999998660252726 forward_v I I I I #
coedge $-1 $195 $196 $197 $198 reversed $77 $-1 #
face $-1 $-1 $199 $41 $-1 $200 forward single #
loop $-1 $201 $202 $79 #
cone-surface $-1 40.009981333638279 28.559403461036133 8.900194917428399 0 -0.86602541151947299 -0.49999998660252726 0.5 0 0 1 I I -0.70710678118654746 0.70710678118654746 0.5 forward I I I I #
loop $-1 $-1 $203 $52 #
coedge $-1 $127 $127 $204 $205 reversed $80 $-1 #
face $-1 $-1 $206 $42 $-1 $207 forward single #
loop $-1 $208 $209 $82 #
cone-surface $-1 43.965074477798382 28.559403461036133 8.900194917428399 0 -0.86602541151947299 -0.49999998660252726 0.5 0 0 1 I I -0.70710678118654746 0.70710678118654746 0.5 forward I I I I #
loop $-1 $-1 $210 $53 #
coedge $-1 $132 $132 $211 $212 reversed $83 $-1 #
face $-1 $-1 $213 $43 $-1 $214 forward single #
loop $-1 $215 $216 $85 #
cone-surface $-1 47.920167621958484 28.559403461036133 8.900194917428399 0 -0.86602541151947299 -0.49999998660252726 0.5 0 0 1 I I -0.70710678118654746 0.70710678118654746 0.5 forward I I I I #
loop $-1 $-1 $217 $54 #
coedge $-1 $137 $137 $218 $219 reversed $86 $-1 #
face $-1 $220 $221 $33 $-1 $222 reversed single #
loop $-1 $-1 $223 $88 #
plane-surface $-1 0 -34.714799033808227 0 0 1 0 0 0 1 forward_v I I I I #
coedge $-1 $224 $225 $226 $227 forward $89 $-1 #
coedge $-1 $228 $91 $229 $230 forward $56 $-1 #
coedge $-1 $91 $228 $231 $232 forward $56 $-1 #
coedge $-1 $233 $234 $91 $145 reversed $235 $-1 #
edge $-1 $236 -34.714799033808227 $237 34.714799033808227 $144 $238 forward 7 unknown #
face $-1 $239 $240 $34 $-1 $241 reversed single #
loop $-1 $-1 $242 $92 #
plane-surface $-1 -50.556896384731886 0 12.786075765087352 -1 0 0 0 0 1 forward_v I I I I #
coedge $-1 $243 $244 $245 $246 forward $93 $-1 #
coedge $-1 $247 $95 $248 $249 reversed $59 $-1 #
coedge $-1 $95 $247 $250 $251 reversed $59 $-1 #
coedge $-1 $242 $252 $95 $153 reversed $147 $-1 #
edge $-1 $253 -34.714799033808227 $254 34.714799033808227 $152 $255 forward 7 unknown #
face $-1 $256 $257 $35 $-1 $258 reversed single #
loop $-1 $-1 $259 $96 #
plane-surface $-1 50.556896384731886 0 12.786075765087352 1 0 0 0 0 -1 forward_v I I I I #
coedge $-1 $260 $261 $262 $263 reversed $97 $-1 #
coedge $-1 $264 $99 $265 $266 reversed $62 $-1 #
coedge $-1 $99 $264 $267 $268 reversed $62 $-1 #
coedge $-1 $269 $270 $99 $161 forward $271 $-1 #
edge $-1 $272 -34.714799033808227 $273 34.714799033808227 $160 $274 forward 7 unknown #
face $-1 $275 $276 $36 $-1 $277 forward single #
loop $-1 $-1 $278 $100 #
plane-surface $-1 18.888958759906068 -104.56434371789891 127.02958603268598 -1 0 0 0 -0.50000000669873634 0.8660253999169214 forward_v I I I I #
coedge $-1 $279 $280 $281 $282 reversed $101 $-1 #
coedge $-1 $167 $103 $283 $284 reversed $65 $-1 #
coedge $-1 $103 $166 $279 $285 reversed $65 $-1 #
coedge $-1 $281 $286 $103 $169 forward $287 $-1 #
edge $-1 $288 47.634999939224407 $289 57.468165100900158 $168 $290 forward 7 unknown #
loop $-1 $-1 $175 $104 #
plane-surface $-1 6.9802306686472946 -34.71479903380822 6.0466279154428406 0 -0.50000000669873634 0.8660253999169214 1 0 0 forward_v I I I I #
loop $-1 $-1 $291 $67 #
coedge $-1 $173 $173 $174 $292 reversed $105 $-1 #
coedge $-1 $174 $174 $173 $292 forward $107 $-1 #
coedge $-1 $175 $175 $108 $176 forward $170 $-1 #
edge $-1 $293 2.7480332645007109e-016 $293 6.2831853071796004 $175 $294 forward 7 unknown #
loop $-1 $-1 $182 $109 #
plane-surface $-1 6.9802306686472946 -34.71479903380822 6.0466279154428406 0 -0.50000000669873634 0.8660253999169214 1 0 0 forward_v I I I I #
loop $-1 $-1 $295 $70 #
coedge $-1 $180 $180 $181 $296 reversed $110 $-1 #
coedge $-1 $181 $181 $180 $296 forward $112 $-1 #
coedge $-1 $182 $182 $113 $183 forward $177 $-1 #
edge $-1 $297 2.7480332645007109e-016 $297 6.2831853071796004 $182 $298 forward 7 unknown #
loop $-1 $-1 $189 $114 #
plane-surface $-1 6.9802306686472946 -34.71479903380822 6.0466279154428406 0 -0.50000000669873634 0.8660253999169214 1 0 0 forward_v I I I I #
loop $-1 $-1 $299 $73 #
coedge $-1 $187 $187 $188 $300 reversed $115 $-1 #
coedge $-1 $188 $188 $187 $300 forward $117 $-1 #
coedge $-1 $189 $189 $118 $190 forward $184 $-1 #
edge $-1 $301 2.7480332645007109e-016 $301 6.2831853071796004 $189 $302 forward 7 unknown #
face $-1 $303 $304 $40 $-1 $305 reversed single #
loop $-1 $-1 $306 $119 #
plane-surface $-1 50.556896384731886 0 12.786075765087352 1 0 0 0 0 -1 forward_v I I I I #
coedge $-1 $307 $308 $309 $310 reversed $120 $-1 #
coedge $-1 $311 $122 $306 $312 forward $77 $-1 #
coedge $-1 $122 $311 $307 $313 forward $77 $-1 #
coedge $-1 $309 $314 $122 $198 forward $304 $-1 #
edge $-1 $315 -28.574359145832695 $316 -15.390715331965687 $197 $317 forward 7 unknown #
loop $-1 $-1 $204 $123 #
plane-surface $-1 43.965074477798382 9.3018114455389878e-007 65.730252695189549 0 0.86602541151947299 0.49999998660252726 1 0 0 forward_v I I I I #
loop $-1 $-1 $318 $79 #
coedge $-1 $202 $202 $203 $319 reversed $124 $-1 #
coedge $-1 $203 $203 $202 $319 forward $126 $-1 #
coedge $-1 $204 $204 $127 $205 forward $199 $-1 #
edge $-1 $320 -5.8642364702369861e-016 $320 6.2831853071795996 $204 $321 forward 7 unknown #
loop $-1 $-1 $211 $128 #
plane-surface $-1 43.965074477798382 9.3018114455389878e-007 65.730252695189549 0 0.86602541151947299 0.49999998660252726 1 0 0 forward_v I I I I #
loop $-1 $-1 $322 $82 #
coedge $-1 $209 $209 $210 $323 reversed $129 $-1 #
coedge $-1 $210 $210 $209 $323 forward $131 $-1 #
coedge $-1 $211 $211 $132 $212 forward $206 $-1 #
edge $-1 $324 -5.8642364702369861e-016 $324 6.2831853071795996 $211 $325 forward 7 unknown #
loop $-1 $-1 $218 $133 #
plane-surface $-1 43.965074477798382 9.3018114455389878e-007 65.730252695189549 0 0.86602541151947299 0.49999998660252726 1 0 0 forward_v I I I I #
loop $-1 $-1 $326 $85 #
coedge $-1 $216 $216 $217 $327 reversed $134 $-1 #
coedge $-1 $217 $217 $216 $327 forward $136 $-1 #
coedge $-1 $218 $218 $137 $219 forward $213 $-1 #
edge $-1 $328 -5.8642364702369861e-016 $328 6.2831853071795996 $218 $329 forward 7 unknown #
face $-1 $330 $331 $33 $-1 $332 reversed single #
loop $-1 $-1 $333 $138 #
plane-surface $-1 -69.849543748283338 0 0 1 0 0 0 0 -1 forward_v I I I I #
coedge $-1 $334 $231 $335 $336 forward $139 $-1 #
coedge $-1 $337 $141 $334 $338 forward $89 $-1 #
coedge $-1 $141 $337 $339 $340 forward $89 $-1 #
coedge $-1 $234 $233 $141 $227 reversed $235 $-1 #
edge $-1 $341 -34.714799033808227 $342 34.714799033808227 $226 $343 forward 7 unknown #
coedge $-1 $143 $142 $344 $345 forward $56 $-1 #
coedge $-1 $346 $347 $142 $230 reversed $331 $-1 #
edge $-1 $237 -69.849543748283338 $348 69.849543748283338 $229 $349 forward 7 unknown #
coedge $-1 $223 $350 $143 $232 reversed $139 $-1 #
edge $-1 $351 -69.849543748283338 $236 69.849543748283338 $231 $352 forward 7 unknown #
coedge $-1 $226 $144 $350 $353 forward $235 $-1 #
coedge $-1 $144 $226 $346 $354 reversed $235 $-1 #
loop $-1 $-1 $233 $330 #
vertex $-1 $145 $355 #
vertex $-1 $145 $356 #
straight-curve $-1 69.849543748283338 0 15.879793077118586 0 1 0 I I #
face $-1 $357 $358 $34 $-1 $359 reversed single #
loop $-1 $-1 $360 $146 #
plane-surface $-1 0 -34.714799033808227 0 0 1 0 0 0 1 forward_v I I I I #
coedge $-1 $245 $152 $361 $362 reversed $147 $-1 #
coedge $-1 $363 $149 $360 $364 reversed $93 $-1 #
coedge $-1 $149 $363 $365 $366 reversed $93 $-1 #
coedge $-1 $252 $242 $149 $246 reversed $147 $-1 #
edge $-1 $367 -34.714799033808227 $368 34.714799033808227 $245 $369 forward 7 unknown #
coedge $-1 $151 $150 $370 $371 reversed $59 $-1 #
coedge $-1 $372 $373 $150 $249 forward $374 $-1 #
edge $-1 $375 -39.747933715029532 $254 -20.45528635147808 $248 $376 forward 7 unknown #
coedge $-1 $377 $361 $151 $251 forward $240 $-1 #
edge $-1 $253 20.45528635147808 $378 39.747933715029532 $250 $379 forward 7 unknown #
coedge $-1 $152 $245 $372 $380 reversed $147 $-1 #
vertex $-1 $251 $381 #
vertex $-1 $249 $382 #
straight-curve $-1 -50.556896384731886 0 14.536114547422718 0 1 0 I I #
face $-1 $383 $384 $35 $-1 $385 reversed single #
loop $-1 $-1 $267 $154 #
plane-surface $-1 0 -34.714799033808227 0 0 1 0 0 0 1 forward_v I I I I #
coedge $-1 $386 $387 $388 $389 reversed $155 $-1 #
coedge $-1 $388 $157 $390 $391 reversed $97 $-1 #
coedge $-1 $157 $388 $392 $393 reversed $97 $-1 #
coedge $-1 $270 $269 $157 $263 forward $271 $-1 #
edge $-1 $394 -34.714799033808227 $395 34.714799033808227 $262 $396 forward 7 unknown #
coedge $-1 $159 $158 $397 $398 forward $62 $-1 #
coedge $-1 $399 $400 $158 $266 forward $384 $-1 #
edge $-1 $401 20.45528635147808 $272 39.747933715029532 $265 $402 forward 7 unknown #
coedge $-1 $403 $404 $159 $268 forward $257 $-1 #
edge $-1 $273 -39.747933715029532 $405 -20.45528635147808 $267 $406 forward 7 unknown #
coedge $-1 $262 $160 $404 $407 forward $271 $-1 #
coedge $-1 $160 $262 $399 $408 reversed $271 $-1 #
loop $-1 $-1 $160 $383 #
vertex $-1 $408 $409 #
vertex $-1 $407 $410 #
straight-curve $-1 69.849543748283338 0 14.536114547422718 0 -1 0 I I #
face $-1 $-1 $287 $36 $-1 $411 reversed single #
loop $-1 $-1 $412 $162 #
plane-surface $-1 0 0 15.879793077118586 0 0 1 1 0 0 forward_v I I I I #
coedge $-1 $413 $414 $415 $416 reversed $163 $-1 #
coedge $-1 $417 $165 $167 $285 forward $101 $-1 #
coedge $-1 $165 $417 $413 $418 forward $101 $-1 #
coedge $-1 $415 $168 $165 $282 forward $287 $-1 #
edge $-1 $289 -8.4186127569351257 $419 15.39884342558242 $281 $420 forward 7 unknown #
coedge $-1 $421 $422 $166 $284 forward $276 $-1 #
edge $-1 $423 -34.598914180140383 $288 -17.567372825141227 $283 $424 forward 7 unknown #
edge $-1 $289 -8.3739266479457192e-015 $423 19.666330059872372 $167 $425 forward 7 unknown #
coedge $-1 $168 $415 $421 $426 reversed $287 $-1 #
loop $-1 $-1 $415 $275 #
vertex $-1 $426 $427 #
vertex $-1 $169 $428 #
straight-curve $-1 -4.9284974226114784 -34.714799033808227 63.514793016342992 0 0 -1 I I #
coedge $-1 $291 $291 $-1 $429 reversed $172 $-1 #
edge $-1 $430 0 $430 6.2831853071796004 $173 $431 forward 7 unknown #
vertex $-1 $176 $432 #
ellipse-curve $-1 -0.16500618610795925 -26.199028356308649 10.963210496280714 0 -0.50000000669873634 0.8660253999169214 1.5 0 0 1 I I #
coedge $-1 $295 $295 $-1 $433 reversed $179 $-1 #
edge $-1 $434 0 $434 6.2831853071796004 $180 $435 forward 7 unknown #
vertex $-1 $183 $436 #
ellipse-curve $-1 6.9802306686472946 -26.199028356308649 10.963210496280714 0 -0.50000000669873634 0.8660253999169214 1.5 0 0 1 I I #
coedge $-1 $299 $299 $-1 $437 reversed $186 $-1 #
edge $-1 $438 0 $438 6.2831853071796004 $187 $439 forward 7 unknown #
vertex $-1 $190 $440 #
ellipse-curve $-1 14.125467523402563 -26.199028356308649 10.963210496280714 0 -0.50000000669873634 0.8660253999169214 1.5 0 0 1 I I #
face $-1 $-1 $441 $40 $-1 $442 forward single #
loop $-1 $-1 $314 $191 #
plane-surface $-1 0 34.714799033808227 0 0 -1 0 0 0 -1 forward_v I I I I #
coedge $-1 $443 $444 $195 $312 reversed $192 $-1 #
coedge $-1 $308 $194 $196 $313 reversed $120 $-1 #
coedge $-1 $194 $307 $445 $446 reversed $120 $-1 #
coedge $-1 $447 $197 $194 $310 forward $304 $-1 #
edge $-1 $316 -62.187440828878685 $448 -51.910104208810502 $309 $449 forward 7 unknown #
coedge $-1 $196 $195 $450 $451 reversed $77 $-1 #
edge $-1 $315 -69.429598067616453 $452 -57.562352045312991 $306 $453 forward 7 unknown #
edge $-1 $454 57.562352045312991 $316 69.429598067616453 $307 $455 forward 7 unknown #
coedge $-1 $197 $447 $443 $456 forward $304 $-1 #
vertex $-1 $198 $457 #
vertex $-1 $198 $458 #
straight-curve $-1 21.982537238899191 34.714799033808227 5.6024564570504012 -1 0 0 I I #
coedge $-1 $318 $318 $-1 $459 reversed $201 $-1 #
edge $-1 $460 0 $460 6.2831853071796004 $202 $461 forward 7 unknown #
vertex $-1 $205 $462 #
ellipse-curve $-1 40.009981333638279 31.7479876077279 10.741124767084509 0 0.86602541151947299 0.49999998660252726 1 0 0 1 I I #
coedge $-1 $322 $322 $-1 $463 reversed $208 $-1 #
edge $-1 $464 0 $464 6.2831853071796004 $209 $465 forward 7 unknown #
vertex $-1 $212 $466 #
ellipse-curve $-1 43.965074477798382 31.7479876077279 10.741124767084509 0 0.86602541151947299 0.49999998660252726 1 0 0 1 I I #
coedge $-1 $326 $326 $-1 $467 reversed $215 $-1 #
edge $-1 $468 0 $468 6.2831853071796004 $216 $469 forward 7 unknown #
vertex $-1 $219 $470 #
ellipse-curve $-1 47.920167621958484 31.7479876077279 10.741124767084509 0 0.86602541151947299 0.49999998660252726 1 0 0 1 I I #
face $-1 $-1 $235 $33 $-1 $471 reversed single #
loop $-1 $-1 $346 $220 #
plane-surface $-1 0 34.714799033808227 0 0 -1 0 0 0 -1 forward_v I I I I #
coedge $-1 $472 $344 $347 $473 forward $221 $-1 #
coedge $-1 $350 $223 $224 $338 reversed $139 $-1 #
coedge $-1 $344 $472 $223 $336 reversed $221 $-1 #
edge $-1 $351 -15.879793077118586 $474 15.879793077118586 $335 $475 forward 7 unknown #
coedge $-1 $225 $224 $472 $476 forward $89 $-1 #
edge $-1 $342 -69.849543748283338 $474 69.849543748283338 $334 $477 forward 7 unknown #
coedge $-1 $347 $346 $225 $340 reversed $331 $-1 #
edge $-1 $478 -69.849543748283338 $341 69.849543748283338 $339 $479 forward 7 unknown #
vertex $-1 $227 $480 #
vertex $-1 $353 $481 #
straight-curve $-1 69.849543748283338 0 -15.879793077118586 0 -1 0 I I #
coedge $-1 $333 $335 $228 $345 reversed $221 $-1 #
edge $-1 $348 -34.714799033808227 $351 34.714799033808227 $344 $482 forward 7 unknown #
coedge $-1 $339 $229 $234 $354 forward $331 $-1 #
coedge $-1 $229 $339 $333 $473 reversed $331 $-1 #
vertex $-1 $230 $483 #
straight-curve $-1 0 34.714799033808227 15.879793077118586 -1 0 0 I I #
coedge $-1 $231 $334 $233 $353 reversed $139 $-1 #
vertex $-1 $345 $484 #
straight-curve $-1 0 -34.714799033808227 15.879793077118586 1 0 0 I I #
edge $-1 $236 -15.879793077118586 $342 15.879793077118586 $233 $485 forward 7 unknown #
edge $-1 $237 -15.879793077118586 $341 15.879793077118586 $234 $486 forward 7 unknown #
point $-1 69.849543748283338 -34.714799033808227 15.879793077118586 #
point $-1 69.849543748283338 34.714799033808227 15.879793077118586 #
face $-1 $-1 $374 $34 $-1 $487 reversed single #
loop $-1 $-1 $488 $239 #
plane-surface $-1 -69.849543748283338 0 0 1 0 0 0 0 -1 forward_v I I I I #
coedge $-1 $361 $377 $243 $364 forward $240 $-1 #
coedge $-1 $250 $360 $242 $362 forward $240 $-1 #
edge $-1 $368 4.6429991002083097 $253 8.1430766648790431 $361 $489 forward 7 unknown #
coedge $-1 $244 $243 $488 $490 reversed $93 $-1 #
edge $-1 $491 -39.747933715029532 $368 -20.45528635147808 $360 $492 forward 7 unknown #
coedge $-1 $373 $372 $244 $366 forward $374 $-1 #
edge $-1 $367 20.45528635147808 $493 39.747933715029532 $365 $494 forward 7 unknown #
vertex $-1 $366 $495 #
vertex $-1 $364 $496 #
straight-curve $-1 -50.556896384731886 0 11.036036982751986 0 -1 0 I I #
coedge $-1 $497 $498 $247 $371 forward $358 $-1 #
edge $-1 $378 -34.714799033808227 $375 34.714799033808227 $370 $499 forward 7 unknown #
coedge $-1 $365 $248 $252 $380 forward $374 $-1 #
coedge $-1 $248 $365 $497 $500 reversed $374 $-1 #
loop $-1 $-1 $365 $357 #
vertex $-1 $500 $501 #
straight-curve $-1 -30.101610033253806 34.714799033808227 14.536114547422718 1 0 0 I I #
coedge $-1 $360 $250 $498 $502 forward $240 $-1 #
vertex $-1 $502 $503 #
straight-curve $-1 -30.101610033253806 -34.714799033808227 14.536114547422718 -1 0 0 I I #
edge $-1 $254 -8.1430766648790431 $367 -4.6429991002083097 $372 $504 forward 7 unknown #
point $-1 -50.556896384731886 -34.714799033808227 14.536114547422718 #
point $-1 -50.556896384731886 34.714799033808227 14.536114547422718 #
face $-1 $-1 $271 $35 $-1 $505 reversed single #
loop $-1 $-1 $265 $256 #
plane-surface $-1 0 34.714799033808227 0 0 -1 0 0 0 -1 forward_v I I I I #
coedge $-1 $397 $259 $403 $506 reversed $155 $-1 #
coedge $-1 $259 $397 $400 $507 reversed $155 $-1 #
coedge $-1 $261 $260 $259 $389 forward $97 $-1 #
edge $-1 $508 -34.714799033808227 $509 34.714799033808227 $259 $510 forward 7 unknown #
coedge $-1 $404 $403 $260 $391 forward $257 $-1 #
edge $-1 $508 20.45528635147808 $394 39.747933715029532 $390 $511 forward 7 unknown #
coedge $-1 $400 $399 $261 $393 forward $384 $-1 #
edge $-1 $395 -39.747933715029532 $509 -20.45528635147808 $392 $512 forward 7 unknown #
vertex $-1 $263 $513 #
vertex $-1 $263 $514 #
straight-curve $-1 69.849543748283338 0 11.036036982751986 0 1 0 I I #
coedge $-1 $387 $386 $264 $398 reversed $155 $-1 #
edge $-1 $401 -34.714799033808227 $405 34.714799033808227 $397 $515 forward 7 unknown #
coedge $-1 $392 $265 $270 $408 forward $384 $-1 #
coedge $-1 $265 $392 $387 $507 forward $384 $-1 #
vertex $-1 $266 $516 #
straight-curve $-1 30.101610033253806 34.714799033808227 14.536114547422718 1 0 0 I I #
coedge $-1 $390 $267 $386 $506 forward $257 $-1 #
coedge $-1 $267 $390 $269 $407 reversed $257 $-1 #
vertex $-1 $268 $517 #
straight-curve $-1 30.101610033253806 -34.714799033808227 14.536114547422718 -1 0 0 I I #
edge $-1 $273 -14.536114547422718 $394 -11.036036982751986 $269 $518 forward 7 unknown #
edge $-1 $272 -14.536114547422718 $395 -11.036036982751986 $270 $519 forward 7 unknown #
point $-1 69.849543748283338 34.714799033808227 14.536114547422718 #
point $-1 69.849543748283338 -34.714799033808227 14.536114547422718 #
plane-surface $-1 0 -34.714799033808227 0 0 1 0 0 0 1 forward_v I I I I #
coedge $-1 $422 $421 $414 $520 forward $276 $-1 #
coedge $-1 $414 $278 $280 $418 reversed $163 $-1 #
coedge $-1 $278 $413 $412 $520 reversed $163 $-1 #
coedge $-1 $286 $281 $278 $416 forward $287 $-1 #
edge $-1 $419 -57.468165100900158 $521 -47.634999939224407 $415 $522 forward 7 unknown #
coedge $-1 $280 $279 $422 $523 reversed $101 $-1 #
edge $-1 $524 -19.666330059872372 $419 8.3739266479457192e-015 $413 $525 forward 7 unknown #
vertex $-1 $282 $526 #
straight-curve $-1 3.4901153343236473 -34.714799033808227 6.0466279154428335 1 0 0 I I #
coedge $-1 $412 $283 $286 $426 forward $276 $-1 #
coedge $-1 $283 $412 $417 $523 forward $276 $-1 #
vertex $-1 $284 $527 #
straight-curve $-1 -4.9284974226114784 -52.282171858949454 15.879793077118585 0 -1 0 I I #
straight-curve $-1 -4.9284974226114784 -34.71479903380822 6.0466279154428406 0 0.8660253999169214 0.50000000669873634 I I #
edge $-1 $288 -4.9284974226114784 $521 18.888958759906068 $286 $528 forward 7 unknown #
point $-1 -4.9284974226114784 -34.714799033808227 15.879793077118586 #
point $-1 -4.9284974226114784 -34.714799033808227 6.0466279154428362 #
edge $-1 $529 1 $529 0 $291 $-1 forward 7 unknown #
vertex $-1 $292 $530 #
ellipse-curve $-1 -0.16500618610795925 -23.209602979791335 5.7853739512102376 0 -0.50000000669873634 0.8660253999169214 1.5 0 0 1 I I #
point $-1 1.3349938138920407 -26.199028356308645 10.963210496280709 #
edge $-1 $531 1 $531 0 $295 $-1 forward 7 unknown #
vertex $-1 $296 $532 #
ellipse-curve $-1 6.9802306686472946 -23.209602979791335 5.7853739512102376 0 -0.50000000669873634 0.8660253999169214 1.5 0 0 1 I I #
point $-1 8.4802306686472946 -26.199028356308645 10.963210496280709 #
edge $-1 $533 1 $533 0 $299 $-1 forward 7 unknown #
vertex $-1 $300 $534 #
ellipse-curve $-1 14.125467523402563 -23.209602979791335 5.7853739512102376 0 -0.50000000669873634 0.8660253999169214 1.5 0 0 1 I I #
point $-1 15.625467523402563 -26.199028356308645 10.963210496280709 #
loop $-1 $-1 $535 $303 #
plane-surface $-1 0 0 15.879793077118586 0 0 1 1 0 0 forward_v I I I I #
coedge $-1 $444 $306 $314 $456 reversed $192 $-1 #
coedge $-1 $306 $443 $535 $536 reversed $192 $-1 #
coedge $-1 $450 $537 $308 $446 forward $441 $-1 #
edge $-1 $448 25.776681300336854 $454 31.710304152497478 $445 $538 forward 7 unknown #
coedge $-1 $314 $309 $537 $539 reversed $304 $-1 #
vertex $-1 $446 $540 #
straight-curve $-1 37.373252570864878 34.714799033808227 67.789897285929086 0 0 1 I I #
coedge $-1 $535 $445 $311 $451 forward $441 $-1 #
edge $-1 $454 15.390715331965687 $452 28.574359145832695 $450 $541 forward 7 unknown #
vertex $-1 $536 $542 #
straight-curve $-1 50.556896384731886 9.3018114455389878e-007 65.730252695189549 0 -0.49999998660252726 0.86602541151947299 I I #
vertex $-1 $451 $543 #
straight-curve $-1 37.373252570864878 9.3018114455389878e-007 65.730252695189549 0 0.49999998660252726 -0.86602541151947299 I I #
edge $-1 $544 51.910104208810502 $315 62.187440828878685 $314 $545 forward 7 unknown #
point $-1 50.556896384731886 34.714799033808227 5.6024564570504012 #
point $-1 37.373252570864878 34.714799033808227 5.6024564570504012 #
edge $-1 $546 1 $546 0 $318 $-1 forward 7 unknown #
vertex $-1 $319 $547 #
ellipse-curve $-1 40.009981333638279 28.99241616679587 9.1501949107296632 0 0.86602541151947299 0.49999998660252726 1 0 0 1 I I #
point $-1 41.009981333638279 31.747987607727914 10.741124767084518 #
edge $-1 $548 1 $548 0 $322 $-1 forward 7 unknown #
vertex $-1 $323 $549 #
ellipse-curve $-1 43.965074477798382 28.99241616679587 9.1501949107296632 0 0.86602541151947299 0.49999998660252726 1 0 0 1 I I #
point $-1 44.965074477798382 31.747987607727914 10.741124767084518 #
edge $-1 $550 1 $550 0 $326 $-1 forward 7 unknown #
vertex $-1 $327 $551 #
ellipse-curve $-1 47.920167621958484 28.99241616679587 9.1501949107296632 0 0.86602541151947299 0.49999998660252726 1 0 0 1 I I #
point $-1 48.920167621958484 31.747987607727914 10.741124767084518 #
plane-surface $-1 69.849543748283338 0 0 -1 0 0 0 0 1 forward_v I I I I #
coedge $-1 $335 $333 $337 $476 reversed $221 $-1 #
edge $-1 $348 -15.879793077118586 $478 15.879793077118586 $347 $552 forward 7 unknown #
vertex $-1 $476 $553 #
straight-curve $-1 -69.849543748283338 -34.714799033808227 0 0 0 -1 I I #
edge $-1 $474 -34.714799033808227 $478 34.714799033808227 $472 $554 forward 7 unknown #
straight-curve $-1 0 -34.714799033808227 -15.879793077118586 -1 0 0 I I #
vertex $-1 $340 $555 #
straight-curve $-1 0 34.714799033808227 -15.879793077118586 1 0 0 I I #
point $-1 69.849543748283338 34.714799033808227 -15.879793077118586 #
point $-1 69.849543748283338 -34.714799033808227 -15.879793077118586 #
straight-curve $-1 -69.849543748283338 0 15.879793077118586 0 -1 0 I I #
point $-1 -69.849543748283338 34.714799033808227 15.879793077118586 #
point $-1 -69.849543748283338 -34.714799033808227 15.879793077118586 #
straight-curve $-1 69.849543748283338 -34.714799033808227 0 0 0 -1 I I #
straight-curve $-1 69.849543748283338 34.714799033808227 0 0 0 -1 I I #
plane-surface $-1 0 34.714799033808227 0 0 -1 0 0 0 -1 forward_v I I I I #
coedge $-1 $498 $497 $363 $490 forward $358 $-1 #
straight-curve $-1 -50.556896384731886 -34.714799033808227 6.393037882543676 0 0 1 I I #
edge $-1 $493 -34.714799033808227 $491 34.714799033808227 $488 $556 forward 7 unknown #
vertex $-1 $364 $557 #
straight-curve $-1 -30.101610033253806 -34.714799033808227 11.036036982751986 1 0 0 I I #
vertex $-1 $366 $558 #
straight-curve $-1 -30.101610033253806 34.714799033808227 11.036036982751986 -1 0 0 I I #
point $-1 -50.556896384731886 34.714799033808227 11.036036982751986 #
point $-1 -50.556896384731886 -34.714799033808227 11.036036982751986 #
coedge $-1 $488 $370 $373 $500 forward $358 $-1 #
coedge $-1 $370 $488 $377 $502 reversed $358 $-1 #
straight-curve $-1 -69.849543748283338 0 14.536114547422718 0 1 0 I I #
edge $-1 $375 -14.536114547422718 $493 -11.036036982751986 $373 $559 forward 7 unknown #
point $-1 -69.849543748283338 34.714799033808227 14.536114547422718 #
edge $-1 $378 -14.536114547422718 $491 -11.036036982751986 $498 $560 forward 7 unknown #
point $-1 -69.849543748283338 -34.714799033808227 14.536114547422718 #
straight-curve $-1 -50.556896384731886 34.714799033808227 6.393037882543676 0 0 -1 I I #
plane-surface $-1 69.849543748283338 0 0 -1 0 0 0 0 1 forward_v I I I I #
edge $-1 $405 -8.1430766648790431 $508 -4.6429991002083097 $403 $561 forward 7 unknown #
edge $-1 $509 4.6429991002083097 $401 8.1430766648790431 $400 $562 forward 7 unknown #
vertex $-1 $391 $563 #
vertex $-1 $393 $564 #
straight-curve $-1 50.556896384731886 0 11.036036982751986 0 1 0 I I #
straight-curve $-1 30.101610033253806 -34.714799033808227 11.036036982751986 1 0 0 I I #
straight-curve $-1 30.101610033253806 34.714799033808227 11.036036982751986 -1 0 0 I I #
point $-1 69.849543748283338 -34.714799033808227 11.036036982751986 #
point $-1 69.849543748283338 34.714799033808227 11.036036982751986 #
straight-curve $-1 50.556896384731886 0 14.536114547422718 0 -1 0 I I #
point $-1 50.556896384731886 34.714799033808227 14.536114547422718 #
point $-1 50.556896384731886 -34.714799033808227 14.536114547422718 #
straight-curve $-1 69.849543748283338 -34.714799033808227 0 0 0 -1 I I #
straight-curve $-1 69.849543748283338 34.714799033808227 0 0 0 -1 I I #
edge $-1 $521 17.567372825141227 $524 34.598914180140383 $412 $565 forward 7 unknown #
vertex $-1 $520 $566 #
straight-curve $-1 18.888958759906068 -34.714799033808227 63.514793016342992 0 0 1 I I #
edge $-1 $524 -15.39884342558242 $423 8.4186127569351257 $422 $567 forward 7 unknown #
vertex $-1 $523 $568 #
straight-curve $-1 18.888958759906068 -34.71479903380822 6.0466279154428406 0 -0.8660253999169214 -0.50000000669873634 I I #
point $-1 18.888958759906068 -34.714799033808227 6.0466279154428362 #
point $-1 -4.9284974226114784 -17.683257678809074 15.879793077118586 #
straight-curve $-1 0 -34.714799033808227 15.879793077118586 1 0 0 I I #
vertex $-1 $429 $569 #
point $-1 1.3349938138920407 -23.209602979791335 5.7853739512102376 #
vertex $-1 $433 $570 #
point $-1 8.4802306686472946 -23.209602979791335 5.7853739512102376 #
vertex $-1 $437 $571 #
point $-1 15.625467523402563 -23.209602979791335 5.7853739512102376 #
coedge $-1 $537 $450 $444 $536 forward $441 $-1 #
edge $-1 $452 -31.710304152497478 $544 -25.776681300336854 $535 $572 forward 7 unknown #
coedge $-1 $445 $535 $447 $539 forward $441 $-1 #
straight-curve $-1 37.373252570864878 60.491480334145081 15.879793077118585 0 -1 0 I I #
edge $-1 $544 -50.556896384731886 $448 -37.373252570864878 $447 $573 forward 7 unknown #
point $-1 37.373252570864878 34.714799033808227 15.879793077118586 #
straight-curve $-1 21.982537238899191 28.781176181647602 15.879793077118581 1 0 0 I I #
point $-1 50.556896384731886 28.781176181647602 15.879793077118585 #
point $-1 37.373252570864878 28.781176181647602 15.879793077118585 #
vertex $-1 $539 $574 #
straight-curve $-1 50.556896384731886 34.714799033808227 67.789897285929086 0 0 -1 I I #
vertex $-1 $459 $575 #
point $-1 41.009981333638279 28.99241616679587 9.1501949107296632 #
vertex $-1 $463 $576 #
point $-1 44.965074477798382 28.99241616679587 9.1501949107296632 #
vertex $-1 $467 $577 #
point $-1 48.920167621958484 28.99241616679587 9.1501949107296632 #
straight-curve $-1 -69.849543748283338 34.714799033808227 0 0 0 -1 I I #
point $-1 -69.849543748283338 -34.714799033808227 -15.879793077118586 #
straight-curve $-1 -69.849543748283338 0 -15.879793077118586 0 1 0 I I #
point $-1 -69.849543748283338 34.714799033808227 -15.879793077118586 #
straight-curve $-1 -69.849543748283338 0 11.036036982751986 0 -1 0 I I #
point $-1 -69.849543748283338 -34.714799033808227 11.036036982751986 #
point $-1 -69.849543748283338 34.714799033808227 11.036036982751986 #
straight-curve $-1 -69.849543748283338 34.714799033808227 0 0 0 -1 I I #
straight-curve $-1 -69.849543748283338 -34.714799033808227 0 0 0 -1 I I #
straight-curve $-1 50.556896384731886 -34.714799033808227 6.393037882543676 0 0 -1 I I #
straight-curve $-1 50.556896384731886 34.714799033808227 6.393037882543676 0 0 1 I I #
point $-1 50.556896384731886 -34.714799033808227 11.036036982751986 #
point $-1 50.556896384731886 34.714799033808227 11.036036982751986 #
straight-curve $-1 18.888958759906068 -52.282171858949454 15.879793077118585 0 1 0 I I #
point $-1 18.888958759906068 -34.714799033808227 15.879793077118586 #
straight-curve $-1 3.4901153343236473 -17.683257678809074 15.879793077118586 -1 0 0 I I #
point $-1 18.888958759906068 -17.683257678809074 15.879793077118586 #
point $-1 -0.16500618610795925 -22.45960296974323 4.4863358513348555 #
point $-1 6.9802306686472946 -22.45960296974323 4.4863358513348555 #
point $-1 14.125467523402563 -22.45960296974323 4.4863358513348555 #
straight-curve $-1 50.556896384731886 60.491480334145081 15.879793077118585 0 1 0 I I #
straight-curve $-1 0 34.714799033808227 15.879793077118586 -1 0 0 I I #
point $-1 50.556896384731886 34.714799033808227 15.879793077118586 #
point $-1 40.009981333638279 28.126390755276397 8.6501949241271348 #
point $-1 43.965074477798382 28.126390755276397 8.6501949241271348 #
point $-1 47.920167621958484 28.126390755276397 8.6501949241271348 #
End-of-ACIS-data 