500 0 11 0           
7 Unknown 11 ACIS 5.0 NT 24 Fri Mar 26 02:14:01 1999 
-1 9.9999999999999995e-007 1e-010 
body $-1 $11 $-1 $12 #
body $-1 $13 $-1 $14 #
body $-1 $15 $-1 $16 #
body $-1 $17 $-1 $18 #
body $-1 $19 $-1 $20 #
body $-1 $21 $-1 $22 #
body $-1 $23 $-1 $24 #
body $-1 $25 $-1 $26 #
body $-1 $27 $-1 $28 #
body $-1 $29 $-1 $30 #
body $-1 $31 $-1 $32 #
lump $-1 $-1 $33 $0 #
transform $-1 1 0 0 0 1 0 0 0 1 47.561265907773063 26.061808694743373 7.1467751709529876 1 rotate no_reflect no_shear #
lump $-1 $-1 $34 $1 #
transform $-1 1 0 0 0 1 0 0 0 1 47.561265907773063 26.061808694743373 7.1467751709529876 1 rotate no_reflect no_shear #
lump $-1 $-1 $35 $2 #
transform $-1 1 0 0 0 1 0 0 0 1 47.561265907773063 26.061808694743373 7.1467751709529876 1 rotate no_reflect no_shear #
lump $-1 $-1 $36 $3 #
transform $-1 1 0 0 0 1 0 0 0 1 47.561265907773063 26.061808694743373 7.1467751709529876 1 rotate no_reflect no_shear #
lump $-1 $-1 $37 $4 #
transform $-1 1 0 0 0 1 0 0 0 1 47.561265907773063 26.061808694743373 7.1467751709529876 1 rotate no_reflect no_shear #
lump $-1 $-1 $38 $5 #
transform $-1 1 0 0 0 1 0 0 0 1 47.561265907773063 26.061808694743373 7.1467751709529876 1 rotate no_reflect no_shear #
lump $-1 $-1 $39 $6 #
transform $-1 1 0 0 0 1 0 0 0 1 47.561265907773063 26.061808694743373 7.1467751709529876 1 rotate no_reflect no_shear #
lump $-1 $-1 $40 $7 #
transform $-1 1 0 0 0 1 0 0 0 1 47.561265907773063 26.061808694743373 7.1467751709529876 1 rotate no_reflect no_shear #
lump $-1 $-1 $41 $8 #
transform $-1 1 0 0 0 1 0 0 0 1 47.561265907773063 26.061808694743373 7.1467751709529876 1 rotate no_reflect no_shear #
lump $-1 $-1 $42 $9 #
transform $-1 1 0 0 0 1 0 0 0 1 47.561265907773063 26.061808694743373 7.1467751709529876 1 rotate no_reflect no_shear #
lump $-1 $-1 $43 $10 #
transform $-1 1 0 0 0 1 0 0 0 1 47.561265907773063 26.061808694743373 7.1467751709529876 1 rotate no_reflect no_shear #
shell $-1 $-1 $-1 $44 $-1 $11 #
shell $-1 $-1 $-1 $45 $-1 $13 #
shell $-1 $-1 $-1 $46 $-1 $15 #
shell $-1 $-1 $-1 $47 $-1 $17 #
shell $-1 $-1 $-1 $48 $-1 $19 #
shell $-1 $-1 $-1 $49 $-1 $21 #
shell $-1 $-1 $-1 $50 $-1 $23 #
shell $-1 $-1 $-1 $51 $-1 $25 #
shell $-1 $-1 $-1 $52 $-1 $27 #
shell $-1 $-1 $-1 $53 $-1 $29 #
shell $-1 $-1 $-1 $54 $-1 $31 #
face $-1 $55 $56 $33 $-1 $57 forward single #
face $-1 $58 $59 $34 $-1 $60 forward single #
face $-1 $61 $62 $35 $-1 $63 reversed single #
face $-1 $64 $65 $36 $-1 $66 forward single #
face $-1 $67 $68 $37 $-1 $69 forward single #
face $-1 $70 $71 $38 $-1 $72 reversed single #
face $-1 $73 $74 $39 $-1 $75 forward single #
face $-1 $76 $77 $40 $-1 $78 forward single #
face $-1 $79 $80 $41 $-1 $81 reversed single #
face $-1 $82 $83 $42 $-1 $84 forward single #
face $-1 $85 $86 $43 $-1 $87 forward single #
face $-1 $88 $89 $33 $-1 $90 reversed single #
loop $-1 $-1 $91 $44 #
plane-surface $-1 0 0 7.1467751709529876 0 0 1 1 0 0 forward_v I I I I #
face $-1 $92 $93 $34 $-1 $94 reversed single #
loop $-1 $-1 $95 $45 #
plane-surface $-1 -44.822077349628707 0 -4.1467751709529876 0 0 1 1 0 0 forward_v I I I I #
face $-1 $96 $97 $35 $-1 $98 reversed single #
loop $-1 $-1 $99 $46 #
plane-surface $-1 -19.516729917339948 30.37487480729629 110.08611906433939 1 0 0 0 -0.51503808176128008 -0.85716729658548041 forward_v I I I I #
face $-1 $100 $101 $36 $-1 $102 forward single #
loop $-1 $103 $104 $47 #
cone-surface $-1 -13.15789606720157 20.996283666501878 3.5322240405944645 0 -0.51503808176128008 -0.85716729658548041 1.5 0 0 1 I I 0 1 1.5 forward I I I I #
face $-1 $105 $106 $37 $-1 $107 forward single #
loop $-1 $108 $109 $48 #
cone-surface $-1 -3.6196452919940114 20.996283666501878 3.5322240405944645 0 -0.51503808176128008 -0.85716729658548041 1.5 0 0 1 I I 0 1 1.5 forward I I I I #
face $-1 $110 $111 $38 $-1 $112 reversed single #
loop $-1 $-1 $113 $49 #
plane-surface $-1 -8.3887706795977977 -18.616851511258918 28.550195623641358 0 0.51503808176128008 0.85716729658548041 1 0 0 forward_v I I I I #
face $-1 $114 $115 $39 $-1 $116 forward single #
loop $-1 $117 $118 $50 #
cone-surface $-1 9.0980224082827235 20.996283666501878 3.5322240405944645 0 -0.51503808176128008 -0.85716729658548041 1.5 0 0 1 I I 0 1 1.5 forward I I I I #
face $-1 $119 $120 $40 $-1 $121 forward single #
loop $-1 $122 $123 $51 #
cone-surface $-1 18.636273183490275 20.996283666501878 3.5322240405944645 0 -0.51503808176128008 -0.85716729658548041 1.5 0 0 1 I I 0 1 1.5 forward I I I I #
face $-1 $124 $125 $41 $-1 $126 reversed single #
loop $-1 $-1 $127 $52 #
plane-surface $-1 -7.6557069083929861 -107.59773327229946 52.740109502602252 -1 0 0 0 -0.85716730853699208 0.51503806187062418 forward_v I I I I #
face $-1 $128 $129 $42 $-1 $130 forward single #
loop $-1 $131 $132 $53 #
cone-surface $-1 -15.585831384347816 -24.535696542536364 5.1440657274797887 0 0.85716730853699208 -0.51503806187062418 0.5 0 0 1 I I 0 1 0.5 forward I I I I #
face $-1 $133 $134 $43 $-1 $135 forward single #
loop $-1 $136 $137 $54 #
cone-surface $-1 -10.82775669877492 -24.535696542536364 5.1440657274797887 0 0.85716730853699208 -0.51503806187062418 0.5 0 0 1 I I 0 1 0.5 forward I I I I #
face $-1 $138 $139 $33 $-1 $140 reversed single #
loop $-1 $-1 $141 $55 #
plane-surface $-1 0 0 -7.1467751709529876 0 0 1 1 0 0 forward_v I I I I #
coedge $-1 $142 $143 $144 $145 forward $56 $-1 #
face $-1 $146 $147 $34 $-1 $148 reversed single #
loop $-1 $-1 $149 $58 #
plane-surface $-1 -42.082888791484351 0 -5.6467751709529876 -1 0 0 0 0 1 forward_v I I I I #
coedge $-1 $150 $151 $152 $153 forward $59 $-1 #
face $-1 $154 $155 $35 $-1 $156 reversed single #
loop $-1 $-1 $157 $61 #
plane-surface $-1 -8.3887706795977977 -18.616851511258918 28.550195623641358 0 0.51503808176128008 0.85716729658548041 1 0 0 forward_v I I I I #
coedge $-1 $158 $159 $160 $161 reversed $62 $-1 #
face $-1 $-1 $162 $36 $-1 $163 forward single #
loop $-1 $164 $165 $64 #
cone-surface $-1 -13.15789606720157 20.073173746636225 1.9959111688227269 0 -0.51503808176128008 -0.85716729658548041 0.75 0 0 1 I I -0.70710678118654757 0.70710678118654757 0.75 forward I I I I #
loop $-1 $-1 $166 $47 #
coedge $-1 $104 $104 $167 $168 reversed $65 $-1 #
face $-1 $-1 $169 $37 $-1 $170 forward single #
loop $-1 $171 $172 $67 #
cone-surface $-1 -3.6196452919940114 20.073173746636225 1.9959111688227269 0 -0.51503808176128008 -0.85716729658548041 0.75 0 0 1 I I -0.70710678118654757 0.70710678118654757 0.75 forward I I I I #
loop $-1 $-1 $173 $48 #
coedge $-1 $109 $109 $174 $175 reversed $68 $-1 #
face $-1 $176 $177 $38 $-1 $178 forward single #
loop $-1 $-1 $179 $70 #
plane-surface $-1 24.995107033628646 30.37487480729629 110.08611906433939 -1 0 0 0 0.51503808176128008 0.85716729658548041 forward_v I I I I #
coedge $-1 $180 $181 $182 $183 reversed $71 $-1 #
face $-1 $-1 $184 $39 $-1 $185 forward single #
loop $-1 $186 $187 $73 #
cone-surface $-1 9.0980224082827235 20.073173746636225 1.9959111688227269 0 -0.51503808176128008 -0.85716729658548041 0.75 0 0 1 I I -0.70710678118654757 0.70710678118654757 0.75 forward I I I I #
loop $-1 $-1 $188 $50 #
coedge $-1 $118 $118 $189 $190 reversed $74 $-1 #
face $-1 $-1 $191 $40 $-1 $192 forward single #
loop $-1 $193 $194 $76 #
cone-surface $-1 18.636273183490275 20.073173746636225 1.9959111688227269 0 -0.51503808176128008 -0.85716729658548041 0.75 0 0 1 I I -0.70710678118654757 0.70710678118654757 0.75 forward I I I I #
loop $-1 $-1 $195 $51 #
coedge $-1 $123 $123 $196 $197 reversed $77 $-1 #
face $-1 $198 $199 $41 $-1 $200 reversed single #
loop $-1 $-1 $201 $79 #
plane-surface $-1 -13.206794041561366 -26.061808694743391 3.7483850760965893 0 -0.85716730853699208 0.51503806187062418 1 0 0 forward_v I I I I #
coedge $-1 $202 $203 $204 $205 reversed $80 $-1 #
face $-1 $-1 $206 $42 $-1 $207 forward single #
loop $-1 $208 $209 $82 #
cone-surface $-1 -15.585831384347816 -23.816271916060639 4.7117918159671399 0 0.85716730853699208 -0.51503806187062418 0.25 0 0 1 I I -0.70710678118654746 0.70710678118654746 0.25 forward I I I I #
loop $-1 $-1 $210 $53 #
coedge $-1 $132 $132 $211 $212 reversed $83 $-1 #
face $-1 $-1 $213 $43 $-1 $214 forward single #
loop $-1 $215 $216 $85 #
cone-surface $-1 -10.82775669877492 -23.816271916060639 4.7117918159671399 0 0.85716730853699208 -0.51503806187062418 0.25 0 0 1 I I -0.70710678118654746 0.70710678118654746 0.25 forward I I I I #
loop $-1 $-1 $217 $54 #
coedge $-1 $137 $137 $218 $219 reversed $86 $-1 #
face $-1 $220 $221 $33 $-1 $222 reversed single #
loop $-1 $-1 $223 $88 #
plane-surface $-1 0 -26.061808694743373 0 0 1 0 0 0 1 forward_v I I I I #
coedge $-1 $224 $225 $226 $227 forward $89 $-1 #
coedge $-1 $228 $91 $229 $230 forward $56 $-1 #
coedge $-1 $91 $228 $231 $232 forward $56 $-1 #
coedge $-1 $233 $234 $91 $145 reversed $235 $-1 #
edge $-1 $236 -26.061808694743373 $237 26.061808694743373 $144 $238 forward 7 unknown #
face $-1 $239 $240 $34 $-1 $241 reversed single #
loop $-1 $-1 $242 $92 #
plane-surface $-1 0 0 -7.1467751709529876 0 0 1 1 0 0 forward_v I I I I #
coedge $-1 $243 $152 $244 $245 reversed $93 $-1 #
coedge $-1 $246 $95 $247 $248 reversed $59 $-1 #
coedge $-1 $95 $246 $249 $250 reversed $59 $-1 #
coedge $-1 $149 $251 $95 $153 reversed $93 $-1 #
edge $-1 $252 -26.061808694743373 $253 26.061808694743373 $152 $254 forward 7 unknown #
face $-1 $255 $256 $35 $-1 $257 reversed single #
loop $-1 $-1 $258 $96 #
plane-surface $-1 2.7391885581443525 30.37487480729629 110.08611906433939 -1 0 0 0 0.51503808176128008 0.85716729658548041 forward_v I I I I #
coedge $-1 $259 $260 $261 $262 reversed $97 $-1 #
coedge $-1 $159 $99 $263 $264 reversed $62 $-1 #
coedge $-1 $99 $158 $259 $265 reversed $62 $-1 #
coedge $-1 $261 $266 $99 $161 forward $267 $-1 #
edge $-1 $268 -10.874371291095228 $269 -1.816983951701614 $160 $270 forward 7 unknown #
loop $-1 $-1 $167 $100 #
plane-surface $-1 -8.3887706795977977 -18.616851511258918 28.550195623641358 0 0.51503808176128008 0.85716729658548041 1 0 0 forward_v I I I I #
loop $-1 $-1 $271 $64 #
coedge $-1 $165 $165 $166 $272 reversed $101 $-1 #
coedge $-1 $166 $166 $165 $272 forward $103 $-1 #
coedge $-1 $167 $167 $104 $168 forward $162 $-1 #
edge $-1 $273 -1.4202523736742981e-015 $273 6.2831853071795987 $167 $274 forward 7 unknown #
loop $-1 $-1 $174 $105 #
plane-surface $-1 -8.3887706795977977 -18.616851511258918 28.550195623641358 0 0.51503808176128008 0.85716729658548041 1 0 0 forward_v I I I I #
loop $-1 $-1 $275 $67 #
coedge $-1 $172 $172 $173 $276 reversed $106 $-1 #
coedge $-1 $173 $173 $172 $276 forward $108 $-1 #
coedge $-1 $174 $174 $109 $175 forward $169 $-1 #
edge $-1 $277 -1.4202523736742981e-015 $277 6.2831853071795987 $174 $278 forward 7 unknown #
face $-1 $279 $280 $38 $-1 $281 forward single #
loop $-1 $-1 $282 $110 #
plane-surface $-1 0 0 7.1467751709529876 0 0 1 1 0 0 forward_v I I I I #
coedge $-1 $283 $284 $285 $286 reversed $111 $-1 #
coedge $-1 $287 $113 $288 $289 reversed $71 $-1 #
coedge $-1 $113 $287 $282 $290 reversed $71 $-1 #
coedge $-1 $291 $292 $113 $183 forward $280 $-1 #
edge $-1 $293 -52.123617389486746 $294 -41.556966777087453 $182 $295 forward 7 unknown #
loop $-1 $-1 $189 $114 #
plane-surface $-1 -8.3887706795977977 -18.616851511258918 28.550195623641358 0 0.51503808176128008 0.85716729658548041 1 0 0 forward_v I I I I #
loop $-1 $-1 $296 $73 #
coedge $-1 $187 $187 $188 $297 reversed $115 $-1 #
coedge $-1 $188 $188 $187 $297 forward $117 $-1 #
coedge $-1 $189 $189 $118 $190 forward $184 $-1 #
edge $-1 $298 -1.4202523736742981e-015 $298 6.2831853071795987 $189 $299 forward 7 unknown #
loop $-1 $-1 $196 $119 #
plane-surface $-1 -8.3887706795977977 -18.616851511258918 28.550195623641358 0 0.51503808176128008 0.85716729658548041 1 0 0 forward_v I I I I #
loop $-1 $-1 $300 $76 #
coedge $-1 $194 $194 $195 $301 reversed $120 $-1 #
coedge $-1 $195 $195 $194 $301 forward $122 $-1 #
coedge $-1 $196 $196 $123 $197 forward $191 $-1 #
edge $-1 $302 -1.4202523736742981e-015 $302 6.2831853071795987 $196 $303 forward 7 unknown #
face $-1 $304 $305 $41 $-1 $306 forward single #
loop $-1 $-1 $307 $124 #
plane-surface $-1 -18.757881174729746 -107.59773327229946 52.740109502602252 1 0 0 0 0.85716730853699208 -0.51503806187062418 forward_v I I I I #
coedge $-1 $308 $309 $310 $311 reversed $125 $-1 #
coedge $-1 $203 $127 $312 $313 reversed $80 $-1 #
coedge $-1 $127 $202 $308 $314 reversed $80 $-1 #
coedge $-1 $310 $315 $127 $205 forward $305 $-1 #
edge $-1 $316 27.737057941406359 $317 29.779016647137393 $204 $318 forward 7 unknown #
loop $-1 $-1 $211 $128 #
plane-surface $-1 -13.206794041561366 -26.061808694743391 3.7483850760965893 0 -0.85716730853699208 0.51503806187062418 1 0 0 forward_v I I I I #
loop $-1 $-1 $319 $82 #
coedge $-1 $209 $209 $210 $320 reversed $129 $-1 #
coedge $-1 $210 $210 $209 $320 forward $131 $-1 #
coedge $-1 $211 $211 $132 $212 forward $206 $-1 #
edge $-1 $321 -3.0190624793132143e-015 $321 6.2831853071795978 $211 $322 forward 7 unknown #
loop $-1 $-1 $218 $133 #
plane-surface $-1 -13.206794041561366 -26.061808694743391 3.7483850760965893 0 -0.85716730853699208 0.51503806187062418 1 0 0 forward_v I I I I #
loop $-1 $-1 $323 $85 #
coedge $-1 $216 $216 $217 $324 reversed $134 $-1 #
coedge $-1 $217 $217 $216 $324 forward $136 $-1 #
coedge $-1 $218 $218 $137 $219 forward $213 $-1 #
edge $-1 $325 -3.0190624793132143e-015 $325 6.2831853071795978 $218 $326 forward 7 unknown #
face $-1 $327 $328 $33 $-1 $329 reversed single #
loop $-1 $-1 $330 $138 #
plane-surface $-1 -47.561265907773063 0 0 1 0 0 0 0 -1 forward_v I I I I #
coedge $-1 $331 $231 $332 $333 forward $139 $-1 #
coedge $-1 $334 $141 $331 $335 forward $89 $-1 #
coedge $-1 $141 $334 $336 $337 forward $89 $-1 #
coedge $-1 $234 $233 $141 $227 reversed $235 $-1 #
edge $-1 $338 -26.061808694743373 $339 26.061808694743373 $226 $340 forward 7 unknown #
coedge $-1 $143 $142 $341 $342 forward $56 $-1 #
coedge $-1 $343 $344 $142 $230 reversed $328 $-1 #
edge $-1 $237 -47.561265907773063 $345 47.561265907773063 $229 $346 forward 7 unknown #
coedge $-1 $223 $347 $143 $232 reversed $139 $-1 #
edge $-1 $348 -47.561265907773063 $236 47.561265907773063 $231 $349 forward 7 unknown #
coedge $-1 $226 $144 $347 $350 forward $235 $-1 #
coedge $-1 $144 $226 $343 $351 reversed $235 $-1 #
loop $-1 $-1 $233 $327 #
vertex $-1 $145 $352 #
vertex $-1 $145 $353 #
straight-curve $-1 47.561265907773063 0 7.1467751709529876 0 1 0 I I #
face $-1 $354 $355 $34 $-1 $356 reversed single #
loop $-1 $-1 $244 $146 #
plane-surface $-1 0 -26.061808694743373 0 0 1 0 0 0 1 forward_v I I I I #
coedge $-1 $357 $358 $243 $359 forward $147 $-1 #
coedge $-1 $251 $149 $242 $359 reversed $93 $-1 #
coedge $-1 $249 $360 $149 $245 forward $240 $-1 #
edge $-1 $361 -4.3233875854764943 $252 -1.3233875854764938 $244 $362 forward 7 unknown #
coedge $-1 $151 $150 $363 $364 reversed $59 $-1 #
coedge $-1 $365 $366 $150 $248 forward $367 $-1 #
edge $-1 $368 -25.150227232958709 $253 -19.671850116669997 $247 $369 forward 7 unknown #
coedge $-1 $370 $244 $151 $250 forward $240 $-1 #
edge $-1 $252 19.671850116669997 $371 25.150227232958709 $249 $372 forward 7 unknown #
coedge $-1 $152 $243 $365 $373 reversed $93 $-1 #
vertex $-1 $250 $374 #
vertex $-1 $248 $375 #
straight-curve $-1 -42.082888791484351 0 -4.1467751709529876 0 1 0 I I #
face $-1 $-1 $267 $35 $-1 $376 forward single #
loop $-1 $-1 $377 $154 #
plane-surface $-1 0 26.061808694743373 0 0 -1 0 0 0 -1 forward_v I I I I #
coedge $-1 $378 $379 $380 $381 reversed $155 $-1 #
coedge $-1 $382 $157 $159 $265 forward $97 $-1 #
coedge $-1 $157 $382 $378 $383 forward $97 $-1 #
coedge $-1 $380 $160 $157 $262 forward $267 $-1 #
edge $-1 $269 -15.322344577541049 $384 6.9335738979432513 $261 $385 forward 7 unknown #
coedge $-1 $386 $387 $158 $264 forward $256 $-1 #
edge $-1 $388 -53.33851182326849 $268 -47.896284361216708 $263 $389 forward 7 unknown #
edge $-1 $269 41.556966777087453 $388 52.123617389486746 $159 $390 forward 7 unknown #
coedge $-1 $160 $380 $386 $391 forward $267 $-1 #
loop $-1 $-1 $380 $255 #
vertex $-1 $264 $392 #
vertex $-1 $161 $393 #
straight-curve $-1 -19.516729917339948 15.187437403648145 7.146775170952985 0 -1 0 I I #
coedge $-1 $271 $271 $-1 $394 reversed $164 $-1 #
edge $-1 $395 0 $395 6.2831853071796004 $165 $396 forward 7 unknown #
vertex $-1 $168 $397 #
ellipse-curve $-1 -13.15789606720157 21.53311502504657 4.4256614399270937 0 0.51503808176128008 0.85716729658548041 1.5 0 0 1 I I #
coedge $-1 $275 $275 $-1 $398 reversed $171 $-1 #
edge $-1 $399 0 $399 6.2831853071796004 $172 $400 forward 7 unknown #
vertex $-1 $175 $401 #
ellipse-curve $-1 -3.6196452919940114 21.53311502504657 4.4256614399270937 0 0.51503808176128008 0.85716729658548041 1.5 0 0 1 I I #
face $-1 $-1 $402 $38 $-1 $403 reversed single #
loop $-1 $-1 $291 $176 #
plane-surface $-1 2.7391885581443525 30.37487480729629 110.08611906433939 -1 0 0 0 0.51503808176128008 0.85716729658548041 forward_v I I I I #
coedge $-1 $285 $404 $181 $290 forward $177 $-1 #
coedge $-1 $284 $179 $287 $405 reversed $111 $-1 #
coedge $-1 $179 $283 $406 $407 reversed $111 $-1 #
coedge $-1 $408 $282 $179 $286 forward $177 $-1 #
edge $-1 $409 1.816983951701614 $410 10.874371291095228 $285 $411 forward 7 unknown #
coedge $-1 $181 $180 $283 $405 forward $71 $-1 #
coedge $-1 $412 $406 $180 $289 forward $402 $-1 #
edge $-1 $413 -29.189492373427544 $293 -6.9335738979432513 $288 $414 forward 7 unknown #
edge $-1 $294 6.9335738979432513 $409 29.189492373427544 $282 $415 forward 7 unknown #
coedge $-1 $292 $182 $404 $416 reversed $280 $-1 #
coedge $-1 $182 $291 $412 $417 reversed $280 $-1 #
vertex $-1 $289 $418 #
vertex $-1 $290 $419 #
straight-curve $-1 2.7391885581443525 -18.616851511258918 28.550195623641358 0 -0.85716729658548041 0.51503808176128008 I I #
coedge $-1 $296 $296 $-1 $420 reversed $186 $-1 #
edge $-1 $421 0 $421 6.2831853071796004 $187 $422 forward 7 unknown #
vertex $-1 $190 $423 #
ellipse-curve $-1 9.0980224082827235 21.53311502504657 4.4256614399270937 0 0.51503808176128008 0.85716729658548041 1.5 0 0 1 I I #
coedge $-1 $300 $300 $-1 $424 reversed $193 $-1 #
edge $-1 $425 0 $425 6.2831853071796004 $194 $426 forward 7 unknown #
vertex $-1 $197 $427 #
ellipse-curve $-1 18.636273183490275 21.53311502504657 4.4256614399270937 0 0.51503808176128008 0.85716729658548041 1.5 0 0 1 I I #
face $-1 $-1 $428 $41 $-1 $429 reversed single #
loop $-1 $-1 $204 $198 #
plane-surface $-1 0 0 7.1467751709529876 0 0 1 1 0 0 forward_v I I I I #
coedge $-1 $430 $431 $432 $433 reversed $199 $-1 #
coedge $-1 $434 $201 $203 $314 forward $125 $-1 #
coedge $-1 $201 $434 $430 $435 forward $125 $-1 #
coedge $-1 $432 $204 $201 $311 forward $305 $-1 #
edge $-1 $317 1.0523098876123029 $436 12.154484153949063 $310 $437 forward 7 unknown #
coedge $-1 $438 $439 $202 $313 forward $428 $-1 #
edge $-1 $440 -22.621669675204508 $316 -19.223279580348137 $312 $441 forward 7 unknown #
edge $-1 $317 -3.9646753451864023 $440 -3.465305027230568e-014 $203 $442 forward 7 unknown #
coedge $-1 $204 $432 $438 $443 forward $305 $-1 #
vertex $-1 $205 $444 #
vertex $-1 $205 $445 #
straight-curve $-1 -7.6557069083929861 -53.798866636149732 7.1467751709529885 0 1 0 I I #
coedge $-1 $319 $319 $-1 $446 reversed $208 $-1 #
edge $-1 $447 0 $447 6.2831853071796004 $209 $448 forward 7 unknown #
vertex $-1 $212 $449 #
ellipse-curve $-1 -15.585831384347816 -25.04082934187786 5.4475801235247943 0 -0.85716730853699208 0.51503806187062418 0.5 0 0 1 I I #
coedge $-1 $323 $323 $-1 $450 reversed $215 $-1 #
edge $-1 $451 0 $451 6.2831853071796004 $216 $452 forward 7 unknown #
vertex $-1 $219 $453 #
ellipse-curve $-1 -10.82775669877492 -25.04082934187786 5.4475801235247943 0 -0.85716730853699208 0.51503806187062418 0.5 0 0 1 I I #
face $-1 $-1 $235 $33 $-1 $454 reversed single #
loop $-1 $-1 $343 $220 #
plane-surface $-1 0 26.061808694743373 0 0 -1 0 0 0 -1 forward_v I I I I #
coedge $-1 $455 $341 $344 $456 forward $221 $-1 #
coedge $-1 $347 $223 $224 $335 reversed $139 $-1 #
coedge $-1 $341 $455 $223 $333 reversed $221 $-1 #
edge $-1 $348 -7.1467751709529876 $457 7.1467751709529876 $332 $458 forward 7 unknown #
coedge $-1 $225 $224 $455 $459 forward $89 $-1 #
edge $-1 $339 -47.561265907773063 $457 47.561265907773063 $331 $460 forward 7 unknown #
coedge $-1 $344 $343 $225 $337 reversed $328 $-1 #
edge $-1 $461 -47.561265907773063 $338 47.561265907773063 $336 $462 forward 7 unknown #
vertex $-1 $227 $463 #
vertex $-1 $350 $464 #
straight-curve $-1 47.561265907773063 0 -7.1467751709529876 0 -1 0 I I #
coedge $-1 $330 $332 $228 $342 reversed $221 $-1 #
edge $-1 $345 -26.061808694743373 $348 26.061808694743373 $341 $465 forward 7 unknown #
coedge $-1 $336 $229 $234 $351 forward $328 $-1 #
coedge $-1 $229 $336 $330 $456 reversed $328 $-1 #
vertex $-1 $230 $466 #
straight-curve $-1 0 26.061808694743373 7.1467751709529876 -1 0 0 I I #
coedge $-1 $231 $331 $233 $350 reversed $139 $-1 #
vertex $-1 $342 $467 #
straight-curve $-1 0 -26.061808694743373 7.1467751709529876 1 0 0 I I #
edge $-1 $236 -7.1467751709529876 $339 7.1467751709529876 $233 $468 forward 7 unknown #
edge $-1 $237 -7.1467751709529876 $338 7.1467751709529876 $234 $469 forward 7 unknown #
point $-1 47.561265907773063 -26.061808694743373 7.1467751709529876 #
point $-1 47.561265907773063 26.061808694743373 7.1467751709529876 #
face $-1 $-1 $367 $34 $-1 $470 reversed single #
loop $-1 $-1 $363 $239 #
plane-surface $-1 -47.561265907773063 0 0 1 0 0 0 0 -1 forward_v I I I I #
coedge $-1 $471 $242 $360 $472 forward $147 $-1 #
coedge $-1 $242 $471 $473 $474 forward $147 $-1 #
edge $-1 $475 -26.061808694743373 $361 26.061808694743373 $242 $476 forward 7 unknown #
coedge $-1 $244 $370 $357 $472 reversed $240 $-1 #
vertex $-1 $472 $477 #
straight-curve $-1 -42.082888791484351 -26.061808694743373 -2.8233875854764938 0 0 1 I I #
coedge $-1 $478 $479 $246 $364 forward $355 $-1 #
edge $-1 $371 -26.061808694743373 $368 26.061808694743373 $363 $480 forward 7 unknown #
coedge $-1 $473 $247 $251 $373 forward $367 $-1 #
coedge $-1 $247 $473 $478 $481 reversed $367 $-1 #
loop $-1 $-1 $365 $354 #
vertex $-1 $481 $482 #
straight-curve $-1 -22.411038674814353 26.061808694743373 -4.1467751709529876 1 0 0 I I #
coedge $-1 $360 $249 $479 $483 forward $240 $-1 #
vertex $-1 $483 $484 #
straight-curve $-1 -22.411038674814353 -26.061808694743373 -4.1467751709529876 -1 0 0 I I #
edge $-1 $253 1.3233875854764938 $475 4.3233875854764943 $365 $485 forward 7 unknown #
point $-1 -42.082888791484351 -26.061808694743373 -4.1467751709529876 #
point $-1 -42.082888791484351 26.061808694743373 -4.1467751709529876 #
plane-surface $-1 0 0 7.1467751709529876 0 0 1 1 0 0 forward_v I I I I #
coedge $-1 $387 $386 $379 $486 forward $256 $-1 #
coedge $-1 $379 $258 $260 $383 reversed $155 $-1 #
coedge $-1 $258 $378 $377 $486 reversed $155 $-1 #
coedge $-1 $266 $261 $258 $381 forward $267 $-1 #
edge $-1 $384 1.816983951701614 $487 10.874371291095228 $380 $488 forward 7 unknown #
coedge $-1 $260 $259 $387 $489 reversed $97 $-1 #
edge $-1 $490 -52.123617389486746 $384 -41.556966777087453 $378 $491 forward 7 unknown #
vertex $-1 $262 $492 #
straight-curve $-1 -4.1943853397988988 17.004421355349759 7.1467751709529885 1 0 0 I I #
coedge $-1 $377 $263 $266 $391 reversed $256 $-1 #
coedge $-1 $263 $377 $382 $489 forward $256 $-1 #
vertex $-1 $264 $493 #
straight-curve $-1 -19.516729917339948 26.061808694743373 55.043059532169693 0 0 1 I I #
straight-curve $-1 -19.516729917339948 -18.616851511258918 28.550195623641358 0 0.85716729658548041 -0.51503808176128008 I I #
edge $-1 $487 -2.7391885581443525 $268 19.516729917339948 $386 $494 forward 7 unknown #
point $-1 -19.516729917339948 26.061808694743373 7.1467751709529876 #
point $-1 -19.516729917339948 17.004421355349759 7.1467751709529885 #
edge $-1 $495 1 $495 0 $271 $-1 forward 7 unknown #
vertex $-1 $272 $496 #
ellipse-curve $-1 -13.15789606720157 20.459452307957186 2.638786641261837 0 0.51503808176128008 0.85716729658548041 1.5 0 0 1 I I #
point $-1 -11.65789606720157 21.533115025046566 4.4256614399270919 #
edge $-1 $497 1 $497 0 $275 $-1 forward 7 unknown #
vertex $-1 $276 $498 #
ellipse-curve $-1 -3.6196452919940114 20.459452307957186 2.638786641261837 0 0.51503808176128008 0.85716729658548041 1.5 0 0 1 I I #
point $-1 -2.1196452919940114 21.533115025046566 4.4256614399270919 #
loop $-1 $-1 $288 $279 #
plane-surface $-1 0 26.061808694743373 0 0 -1 0 0 0 -1 forward_v I I I I #
coedge $-1 $282 $408 $291 $416 forward $177 $-1 #
edge $-1 $413 -52.123617389486746 $409 -41.556966777087453 $283 $499 forward 7 unknown #
coedge $-1 $288 $500 $284 $407 forward $402 $-1 #
edge $-1 $410 47.896284361216708 $413 53.33851182326849 $406 $501 forward 7 unknown #
coedge $-1 $404 $285 $500 $502 forward $177 $-1 #
vertex $-1 $286 $503 #
vertex $-1 $502 $504 #
straight-curve $-1 24.995107033628646 15.187437403648145 7.146775170952985 0 1 0 I I #
coedge $-1 $500 $288 $292 $417 forward $402 $-1 #
vertex $-1 $407 $505 #
straight-curve $-1 -4.1943853397988988 26.061808694743373 1.7045477089012024 -1 0 0 I I #
straight-curve $-1 -4.1943853397988988 17.004421355349759 7.1467751709529885 1 0 0 I I #
edge $-1 $506 -10.874371291095228 $294 -1.816983951701614 $404 $507 forward 7 unknown #
edge $-1 $293 -53.33851182326849 $506 -47.896284361216708 $412 $508 forward 7 unknown #
point $-1 2.7391885581443525 26.061808694743373 1.7045477089012024 #
point $-1 2.7391885581443525 17.004421355349759 7.1467751709529885 #
edge $-1 $509 1 $509 0 $296 $-1 forward 7 unknown #
vertex $-1 $297 $510 #
ellipse-curve $-1 9.0980224082827235 20.459452307957186 2.638786641261837 0 0.51503808176128008 0.85716729658548041 1.5 0 0 1 I I #
point $-1 10.598022408282723 21.533115025046566 4.4256614399270919 #
edge $-1 $511 1 $511 0 $300 $-1 forward 7 unknown #
vertex $-1 $301 $512 #
ellipse-curve $-1 18.636273183490275 20.459452307957186 2.638786641261837 0 0.51503808176128008 0.85716729658548041 1.5 0 0 1 I I #
point $-1 20.136273183490275 21.533115025046566 4.4256614399270919 #
loop $-1 $-1 $312 $304 #
plane-surface $-1 0 -26.061808694743373 0 0 1 0 0 0 1 forward_v I I I I #
coedge $-1 $431 $307 $309 $435 reversed $199 $-1 #
coedge $-1 $307 $430 $513 $514 reversed $199 $-1 #
coedge $-1 $315 $310 $307 $433 forward $305 $-1 #
edge $-1 $436 -29.779016647137393 $515 -27.737057941406359 $432 $516 forward 7 unknown #
coedge $-1 $309 $308 $439 $517 reversed $125 $-1 #
edge $-1 $518 3.465305027230568e-014 $436 3.9646753451864023 $430 $519 forward 7 unknown #
vertex $-1 $311 $520 #
straight-curve $-1 -6.6033970207806831 -24.019849989012336 7.1467751709529876 -1 0 0 I I #
coedge $-1 $513 $312 $315 $443 reversed $428 $-1 #
coedge $-1 $312 $513 $434 $517 forward $428 $-1 #
vertex $-1 $313 $521 #
straight-curve $-1 -7.6557069083929861 -26.061808694743377 26.370054751301126 0 0 1 I I #
straight-curve $-1 -7.6557069083929861 -26.061808694743391 3.7483850760965893 0 -0.51503806187062418 -0.85716730853699208 I I #
edge $-1 $515 -18.757881174729746 $316 -7.6557069083929861 $438 $522 forward 7 unknown #
point $-1 -7.6557069083929861 -26.061808694743373 7.1467751709529876 #
point $-1 -7.6557069083929861 -24.019849989012339 7.1467751709529876 #
edge $-1 $523 1 $523 0 $319 $-1 forward 7 unknown #
vertex $-1 $320 $524 #
ellipse-curve $-1 -15.585831384347816 -24.030563743194886 4.8405513314347957 0 -0.85716730853699208 0.51503806187062418 0.5 0 0 1 I I #
point $-1 -15.085831384347816 -25.040829341877842 5.4475801235247818 #
edge $-1 $525 1 $525 0 $323 $-1 forward 7 unknown #
vertex $-1 $324 $526 #
ellipse-curve $-1 -10.82775669877492 -24.030563743194886 4.8405513314347957 0 -0.85716730853699208 0.51503806187062418 0.5 0 0 1 I I #
point $-1 -10.32775669877492 -25.040829341877842 5.4475801235247818 #
plane-surface $-1 47.561265907773063 0 0 -1 0 0 0 0 1 forward_v I I I I #
coedge $-1 $332 $330 $334 $459 reversed $221 $-1 #
edge $-1 $345 -7.1467751709529876 $461 7.1467751709529876 $344 $527 forward 7 unknown #
vertex $-1 $459 $528 #
straight-curve $-1 -47.561265907773063 -26.061808694743373 0 0 0 -1 I I #
edge $-1 $457 -26.061808694743373 $461 26.061808694743373 $455 $529 forward 7 unknown #
straight-curve $-1 0 -26.061808694743373 -7.1467751709529876 -1 0 0 I I #
vertex $-1 $337 $530 #
straight-curve $-1 0 26.061808694743373 -7.1467751709529876 1 0 0 I I #
point $-1 47.561265907773063 26.061808694743373 -7.1467751709529876 #
point $-1 47.561265907773063 -26.061808694743373 -7.1467751709529876 #
straight-curve $-1 -47.561265907773063 0 7.1467751709529876 0 -1 0 I I #
point $-1 -47.561265907773063 26.061808694743373 7.1467751709529876 #
point $-1 -47.561265907773063 -26.061808694743373 7.1467751709529876 #
straight-curve $-1 47.561265907773063 -26.061808694743373 0 0 0 -1 I I #
straight-curve $-1 47.561265907773063 26.061808694743373 0 0 0 -1 I I #
plane-surface $-1 0 26.061808694743373 0 0 -1 0 0 0 -1 forward_v I I I I #
coedge $-1 $358 $357 $531 $532 forward $147 $-1 #
edge $-1 $361 42.082888791484351 $533 47.561265907773063 $360 $534 forward 7 unknown #
coedge $-1 $366 $365 $358 $474 reversed $367 $-1 #
edge $-1 $535 -47.561265907773063 $475 -42.082888791484351 $473 $536 forward 7 unknown #
vertex $-1 $373 $537 #
straight-curve $-1 -42.082888791484351 0 -7.1467751709529876 0 -1 0 I I #
point $-1 -42.082888791484351 -26.061808694743373 -7.1467751709529876 #
coedge $-1 $531 $363 $366 $481 forward $355 $-1 #
coedge $-1 $363 $531 $370 $483 reversed $355 $-1 #
straight-curve $-1 -47.561265907773063 0 -4.1467751709529876 0 1 0 I I #
edge $-1 $368 4.1467751709529876 $535 7.1467751709529876 $366 $538 forward 7 unknown #
point $-1 -47.561265907773063 26.061808694743373 -4.1467751709529876 #
edge $-1 $371 4.1467751709529876 $533 7.1467751709529876 $479 $539 forward 7 unknown #
point $-1 -47.561265907773063 -26.061808694743373 -4.1467751709529876 #
straight-curve $-1 -42.082888791484351 26.061808694743373 -2.8233875854764938 0 0 -1 I I #
edge $-1 $487 47.896284361216708 $490 53.33851182326849 $377 $540 forward 7 unknown #
vertex $-1 $391 $541 #
straight-curve $-1 2.7391885581443525 15.187437403648145 7.146775170952985 0 1 0 I I #
edge $-1 $490 -6.9335738979432513 $388 15.322344577541049 $387 $542 forward 7 unknown #
vertex $-1 $489 $543 #
straight-curve $-1 2.7391885581443525 -18.616851511258918 28.550195623641358 0 -0.85716729658548041 0.51503808176128008 I I #
point $-1 2.7391885581443525 17.004421355349759 7.1467751709529885 #
point $-1 -19.516729917339948 26.061808694743373 1.7045477089012024 #
straight-curve $-1 0 26.061808694743373 7.1467751709529876 -1 0 0 I I #
vertex $-1 $394 $544 #
point $-1 -11.65789606720157 20.459452307957186 2.638786641261837 #
vertex $-1 $398 $545 #
point $-1 -2.1196452919940114 20.459452307957186 2.638786641261837 #
straight-curve $-1 24.995107033628646 -18.616851511258918 28.550195623641358 0 -0.85716729658548041 0.51503808176128008 I I #
coedge $-1 $406 $412 $408 $502 reversed $402 $-1 #
straight-curve $-1 24.995107033628646 26.061808694743373 55.043059532169693 0 0 -1 I I #
edge $-1 $410 -24.995107033628646 $506 -2.7391885581443525 $500 $546 forward 7 unknown #
point $-1 24.995107033628646 17.004421355349759 7.1467751709529885 #
point $-1 24.995107033628646 26.061808694743373 7.1467751709529876 #
point $-1 24.995107033628646 26.061808694743373 1.7045477089012024 #
vertex $-1 $417 $547 #
straight-curve $-1 2.7391885581443525 15.187437403648145 7.146775170952985 0 -1 0 I I #
straight-curve $-1 2.7391885581443525 26.061808694743373 55.043059532169693 0 0 1 I I #
vertex $-1 $420 $548 #
point $-1 10.598022408282723 20.459452307957186 2.638786641261837 #
vertex $-1 $424 $549 #
point $-1 20.136273183490275 20.459452307957186 2.638786641261837 #
coedge $-1 $439 $438 $431 $514 forward $428 $-1 #
edge $-1 $515 19.223279580348137 $518 22.621669675204508 $513 $550 forward 7 unknown #
vertex $-1 $443 $551 #
straight-curve $-1 -18.757881174729746 -53.798866636149732 7.1467751709529885 0 -1 0 I I #
edge $-1 $518 -12.154484153949063 $440 -1.0523098876123029 $439 $552 forward 7 unknown #
vertex $-1 $517 $553 #
straight-curve $-1 -18.757881174729746 -26.061808694743391 3.7483850760965893 0 0.51503806187062418 0.85716730853699208 I I #
point $-1 -18.757881174729746 -24.019849989012339 7.1467751709529876 #
point $-1 -7.6557069083929861 -26.061808694743373 3.7483850760966191 #
straight-curve $-1 0 -26.061808694743373 7.1467751709529876 1 0 0 I I #
vertex $-1 $446 $554 #
point $-1 -15.085831384347816 -24.030563743194886 4.8405513314347957 #
vertex $-1 $450 $555 #
point $-1 -10.32775669877492 -24.030563743194886 4.8405513314347957 #
straight-curve $-1 -47.561265907773063 26.061808694743373 0 0 0 -1 I I #
point $-1 -47.561265907773063 -26.061808694743373 -7.1467751709529876 #
straight-curve $-1 -47.561265907773063 0 -7.1467751709529876 0 1 0 I I #
point $-1 -47.561265907773063 26.061808694743373 -7.1467751709529876 #
coedge $-1 $479 $478 $471 $532 reversed $355 $-1 #
edge $-1 $533 -26.061808694743373 $535 26.061808694743373 $531 $556 forward 7 unknown #
vertex $-1 $532 $557 #
straight-curve $-1 0 -26.061808694743373 -7.1467751709529876 -1 0 0 I I #
vertex $-1 $474 $558 #
straight-curve $-1 0 26.061808694743373 -7.1467751709529876 1 0 0 I I #
point $-1 -42.082888791484351 26.061808694743373 -7.1467751709529876 #
straight-curve $-1 -47.561265907773063 26.061808694743373 0 0 0 -1 I I #
straight-curve $-1 -47.561265907773063 -26.061808694743373 0 0 0 -1 I I #
straight-curve $-1 2.7391885581443525 26.061808694743373 55.043059532169693 0 0 -1 I I #
point $-1 2.7391885581443525 26.061808694743373 7.1467751709529876 #
straight-curve $-1 -4.1943853397988988 26.061808694743373 1.7045477089012024 -1 0 0 I I #
point $-1 2.7391885581443525 26.061808694743373 1.7045477089012024 #
point $-1 -13.15789606720157 19.686895185315265 1.3530356963836165 #
point $-1 -3.6196452919940114 19.686895185315265 1.3530356963836165 #
straight-curve $-1 0 26.061808694743373 7.1467751709529876 -1 0 0 I I #
point $-1 2.7391885581443525 26.061808694743373 7.1467751709529876 #
point $-1 9.0980224082827235 19.686895185315265 1.3530356963836165 #
point $-1 18.636273183490275 19.686895185315265 1.3530356963836165 #
straight-curve $-1 -18.757881174729746 -26.061808694743377 26.370054751301126 0 0 -1 I I #
point $-1 -18.757881174729746 -26.061808694743373 7.1467751709529876 #
straight-curve $-1 -6.6033970207806831 -26.061808694743373 3.7483850760966231 1 0 0 I I #
point $-1 -18.757881174729746 -26.061808694743373 3.7483850760966191 #
point $-1 -15.585831384347816 -23.601980088926393 4.5830323004994842 #
point $-1 -10.82775669877492 -23.601980088926393 4.5830323004994842 #
straight-curve $-1 -47.561265907773063 0 -7.1467751709529876 0 1 0 I I #
point $-1 -47.561265907773063 -26.061808694743373 -7.1467751709529876 #
point $-1 -47.561265907773063 26.061808694743373 -7.1467751709529876 #
End-of-ACIS-data 