500 0 15 0           
7 Unknown 11 ACIS 5.0 NT 24 Fri Mar 26 20:26:43 1999 
-1 9.9999999999999995e-007 1e-010 
body $-1 $15 $-1 $16 #
body $-1 $17 $-1 $18 #
body $-1 $19 $-1 $20 #
body $-1 $21 $-1 $22 #
body $-1 $23 $-1 $24 #
body $-1 $25 $-1 $26 #
body $-1 $27 $-1 $28 #
body $-1 $29 $-1 $30 #
body $-1 $31 $-1 $32 #
body $-1 $33 $-1 $34 #
body $-1 $35 $-1 $36 #
body $-1 $37 $-1 $38 #
body $-1 $39 $-1 $40 #
body $-1 $41 $-1 $42 #
body $-1 $43 $-1 $44 #
lump $-1 $-1 $45 $0 #
transform $-1 1 0 0 0 1 0 0 0 1 68.106326487014371 43.904438765155589 17.554674046500626 1 rotate no_reflect no_shear #
lump $-1 $-1 $46 $1 #
transform $-1 1 0 0 0 1 0 0 0 1 68.106326487014371 43.904438765155589 17.554674046500626 1 rotate no_reflect no_shear #
lump $-1 $-1 $47 $2 #
transform $-1 1 0 0 0 1 0 0 0 1 68.106326487014371 43.904438765155589 17.554674046500626 1 rotate no_reflect no_shear #
lump $-1 $-1 $48 $3 #
transform $-1 1 0 0 0 1 0 0 0 1 68.106326487014371 43.904438765155589 17.554674046500626 1 rotate no_reflect no_shear #
lump $-1 $-1 $49 $4 #
transform $-1 1 0 0 0 1 0 0 0 1 68.106326487014371 43.904438765155589 17.554674046500626 1 rotate no_reflect no_shear #
lump $-1 $-1 $50 $5 #
transform $-1 1 0 0 0 1 0 0 0 1 68.106326487014371 43.904438765155589 17.554674046500626 1 rotate no_reflect no_shear #
lump $-1 $-1 $51 $6 #
transform $-1 1 0 0 0 1 0 0 0 1 68.106326487014371 43.904438765155589 17.554674046500626 1 rotate no_reflect no_shear #
lump $-1 $-1 $52 $7 #
transform $-1 1 0 0 0 1 0 0 0 1 68.106326487014371 43.904438765155589 17.554674046500626 1 rotate no_reflect no_shear #
lump $-1 $-1 $53 $8 #
transform $-1 1 0 0 0 1 0 0 0 1 68.106326487014371 43.904438765155589 17.554674046500626 1 rotate no_reflect no_shear #
lump $-1 $-1 $54 $9 #
transform $-1 1 0 0 0 1 0 0 0 1 68.106326487014371 43.904438765155589 17.554674046500626 1 rotate no_reflect no_shear #
lump $-1 $-1 $55 $10 #
transform $-1 1 0 0 0 1 0 0 0 1 68.106326487014371 43.904438765155589 17.554674046500626 1 rotate no_reflect no_shear #
lump $-1 $-1 $56 $11 #
transform $-1 1 0 0 0 1 0 0 0 1 68.106326487014371 43.904438765155589 17.554674046500626 1 rotate no_reflect no_shear #
lump $-1 $-1 $57 $12 #
transform $-1 1 0 0 0 1 0 0 0 1 68.106326487014371 43.904438765155589 17.554674046500626 1 rotate no_reflect no_shear #
lump $-1 $-1 $58 $13 #
transform $-1 1 0 0 0 1 0 0 0 1 68.106326487014371 43.904438765155589 17.554674046500626 1 rotate no_reflect no_shear #
lump $-1 $-1 $59 $14 #
transform $-1 1 0 0 0 1 0 0 0 1 68.106326487014371 43.904438765155589 17.554674046500626 1 rotate no_reflect no_shear #
shell $-1 $-1 $-1 $60 $-1 $15 #
shell $-1 $-1 $-1 $61 $-1 $17 #
shell $-1 $-1 $-1 $62 $-1 $19 #
shell $-1 $-1 $-1 $63 $-1 $21 #
shell $-1 $-1 $-1 $64 $-1 $23 #
shell $-1 $-1 $-1 $65 $-1 $25 #
shell $-1 $-1 $-1 $66 $-1 $27 #
shell $-1 $-1 $-1 $67 $-1 $29 #
shell $-1 $-1 $-1 $68 $-1 $31 #
shell $-1 $-1 $-1 $69 $-1 $33 #
shell $-1 $-1 $-1 $70 $-1 $35 #
shell $-1 $-1 $-1 $71 $-1 $37 #
shell $-1 $-1 $-1 $72 $-1 $39 #
shell $-1 $-1 $-1 $73 $-1 $41 #
shell $-1 $-1 $-1 $74 $-1 $43 #
face $-1 $75 $76 $45 $-1 $77 forward single #
face $-1 $78 $79 $46 $-1 $80 forward single #
face $-1 $81 $82 $47 $-1 $83 forward single #
face $-1 $84 $85 $48 $-1 $86 reversed single #
face $-1 $87 $88 $49 $-1 $89 forward single #
face $-1 $90 $91 $50 $-1 $92 forward single #
face $-1 $93 $94 $51 $-1 $95 reversed single #
face $-1 $96 $97 $52 $-1 $98 forward single #
face $-1 $99 $100 $53 $-1 $101 forward single #
face $-1 $102 $103 $54 $-1 $104 reversed single #
face $-1 $105 $106 $55 $-1 $107 forward single #
face $-1 $108 $109 $56 $-1 $110 forward single #
face $-1 $111 $112 $57 $-1 $113 reversed single #
face $-1 $114 $115 $58 $-1 $116 forward single #
face $-1 $117 $118 $59 $-1 $119 forward single #
face $-1 $120 $121 $45 $-1 $122 reversed single #
loop $-1 $-1 $123 $60 #
plane-surface $-1 0 0 17.554674046500626 0 0 1 1 0 0 forward_v I I I I #
face $-1 $124 $125 $46 $-1 $126 reversed single #
loop $-1 $-1 $127 $61 #
plane-surface $-1 -68.106326487014371 0 0 1 0 0 0 0 -1 forward_v I I I I #
face $-1 $128 $129 $47 $-1 $130 reversed single #
loop $-1 $-1 $131 $62 #
plane-surface $-1 68.106326487014371 0 0 -1 0 0 0 0 1 forward_v I I I I #
face $-1 $132 $133 $48 $-1 $134 reversed single #
loop $-1 $-1 $135 $63 #
plane-surface $-1 -37.524570521156015 61.38552586807559 174.82064196268732 1 0 0 0 -0.62932039886446345 -0.77714595512881146 forward_v I I I I #
face $-1 $136 $137 $49 $-1 $138 forward single #
loop $-1 $139 $140 $64 #
cone-surface $-1 -33.017153194683345 39.842957313227203 13.550010097985208 0 -0.62932039886446345 -0.77714595512881146 1.5 0 0 1 I I 0 1 1.5 forward I I I I #
face $-1 $141 $142 $50 $-1 $143 forward single #
loop $-1 $144 $145 $65 #
cone-surface $-1 -26.256027204974345 39.842957313227203 13.550010097985208 0 -0.62932039886446345 -0.77714595512881146 1.5 0 0 1 I I 0 1 1.5 forward I I I I #
face $-1 $146 $147 $51 $-1 $148 reversed single #
loop $-1 $-1 $149 $66 #
plane-surface $-1 21.748609878501675 61.38552586807559 174.82064196268732 1 0 0 0 -0.62932039886446345 -0.77714595512881146 forward_v I I I I #
face $-1 $150 $151 $52 $-1 $152 forward single #
loop $-1 $153 $154 $67 #
cone-surface $-1 26.256027204974345 39.842957313227203 13.550010097985208 0 -0.62932039886446345 -0.77714595512881146 1.5 0 0 1 I I 0 1 1.5 forward I I I I #
face $-1 $155 $156 $53 $-1 $157 forward single #
loop $-1 $158 $159 $68 #
cone-surface $-1 33.017153194683345 39.842957313227203 13.550010097985208 0 -0.62932039886446345 -0.77714595512881146 1.5 0 0 1 I I 0 1 1.5 forward I I I I #
face $-1 $160 $161 $54 $-1 $162 reversed single #
loop $-1 $-1 $163 $69 #
plane-surface $-1 -21.748609878501675 -129.6258398651581 119.56072413147106 -1 0 0 0 -0.62932039886446345 0.77714595512881146 forward_v I I I I #
face $-1 $164 $165 $55 $-1 $166 forward single #
loop $-1 $167 $168 $70 #
cone-surface $-1 -33.017153194683345 -39.842957313227203 13.550010097985215 0 0.62932039886446345 -0.77714595512881146 1.5 0 0 1 I I 0 1 1.5 forward I I I I #
face $-1 $169 $170 $56 $-1 $171 forward single #
loop $-1 $172 $173 $71 #
cone-surface $-1 -26.256027204974345 -39.842957313227203 13.550010097985215 0 0.62932039886446345 -0.77714595512881146 1.5 0 0 1 I I 0 1 1.5 forward I I I I #
face $-1 $174 $175 $57 $-1 $176 reversed single #
loop $-1 $-1 $177 $72 #
plane-surface $-1 37.524570521156015 -129.6258398651581 119.56072413147106 -1 0 0 0 -0.62932039886446345 0.77714595512881146 forward_v I I I I #
face $-1 $178 $179 $58 $-1 $180 forward single #
loop $-1 $181 $182 $73 #
cone-surface $-1 26.256027204974345 -39.842957313227203 13.550010097985215 0 0.62932039886446345 -0.77714595512881146 1.5 0 0 1 I I 0 1 1.5 forward I I I I #
face $-1 $183 $184 $59 $-1 $185 forward single #
loop $-1 $186 $187 $74 #
cone-surface $-1 33.017153194683345 -39.842957313227203 13.550010097985215 0 0.62932039886446345 -0.77714595512881146 1.5 0 0 1 I I 0 1 1.5 forward I I I I #
face $-1 $188 $189 $45 $-1 $190 reversed single #
loop $-1 $-1 $191 $75 #
plane-surface $-1 0 0 -17.554674046500626 0 0 1 1 0 0 forward_v I I I I #
coedge $-1 $192 $193 $194 $195 forward $76 $-1 #
face $-1 $196 $197 $46 $-1 $198 reversed single #
loop $-1 $-1 $199 $78 #
plane-surface $-1 0 0 -17.554674046500626 0 0 1 1 0 0 forward_v I I I I #
coedge $-1 $200 $201 $202 $203 forward $79 $-1 #
face $-1 $204 $205 $47 $-1 $206 reversed single #
loop $-1 $-1 $207 $81 #
plane-surface $-1 0 0 -17.554674046500626 0 0 1 1 0 0 forward_v I I I I #
coedge $-1 $208 $209 $210 $211 forward $82 $-1 #
face $-1 $212 $213 $48 $-1 $214 reversed single #
loop $-1 $-1 $215 $84 #
plane-surface $-1 -29.636590199828845 -24.33587523192692 68.963529666556411 0 0.62932039886446345 0.77714595512881146 1 0 0 forward_v I I I I #
coedge $-1 $216 $217 $218 $219 reversed $85 $-1 #
face $-1 $-1 $220 $49 $-1 $221 forward single #
loop $-1 $222 $223 $87 #
cone-surface $-1 -33.017153194683345 37.687318400362145 10.888017788703419 0 -0.62932039886446345 -0.77714595512881146 0.75 0 0 1 I I -0.70710678118654757 0.70710678118654757 0.75 forward I I I I #
loop $-1 $-1 $224 $64 #
coedge $-1 $140 $140 $225 $226 reversed $88 $-1 #
face $-1 $-1 $227 $50 $-1 $228 forward single #
loop $-1 $229 $230 $90 #
cone-surface $-1 -26.256027204974345 37.687318400362145 10.888017788703419 0 -0.62932039886446345 -0.77714595512881146 0.75 0 0 1 I I -0.70710678118654757 0.70710678118654757 0.75 forward I I I I #
loop $-1 $-1 $231 $65 #
coedge $-1 $145 $145 $232 $233 reversed $91 $-1 #
face $-1 $234 $235 $51 $-1 $236 reversed single #
loop $-1 $-1 $237 $93 #
plane-surface $-1 29.636590199828845 -24.33587523192692 68.963529666556411 0 0.62932039886446345 0.77714595512881146 1 0 0 forward_v I I I I #
coedge $-1 $238 $239 $240 $241 reversed $94 $-1 #
face $-1 $-1 $242 $52 $-1 $243 forward single #
loop $-1 $244 $245 $96 #
cone-surface $-1 26.256027204974345 37.687318400362145 10.888017788703419 0 -0.62932039886446345 -0.77714595512881146 0.75 0 0 1 I I -0.70710678118654757 0.70710678118654757 0.75 forward I I I I #
loop $-1 $-1 $246 $67 #
coedge $-1 $154 $154 $247 $248 reversed $97 $-1 #
face $-1 $-1 $249 $53 $-1 $250 forward single #
loop $-1 $251 $252 $99 #
cone-surface $-1 33.017153194683345 37.687318400362145 10.888017788703419 0 -0.62932039886446345 -0.77714595512881146 0.75 0 0 1 I I -0.70710678118654757 0.70710678118654757 0.75 forward I I I I #
loop $-1 $-1 $253 $68 #
coedge $-1 $159 $159 $254 $255 reversed $100 $-1 #
face $-1 $256 $257 $54 $-1 $258 reversed single #
loop $-1 $-1 $259 $102 #
plane-surface $-1 -29.636590199828845 -43.904438765155589 13.703611835340155 0 -0.62932039886446345 0.77714595512881146 1 0 0 forward_v I I I I #
coedge $-1 $260 $261 $262 $263 reversed $103 $-1 #
face $-1 $-1 $264 $55 $-1 $265 forward single #
loop $-1 $266 $267 $105 #
cone-surface $-1 -33.017153194683345 -37.687318400362145 10.888017788703426 0 0.62932039886446345 -0.77714595512881146 0.75 0 0 1 I I -0.70710678118654757 0.70710678118654757 0.75 forward I I I I #
loop $-1 $-1 $268 $70 #
coedge $-1 $168 $168 $269 $270 reversed $106 $-1 #
face $-1 $-1 $271 $56 $-1 $272 forward single #
loop $-1 $273 $274 $108 #
cone-surface $-1 -26.256027204974345 -37.687318400362145 10.888017788703426 0 0.62932039886446345 -0.77714595512881146 0.75 0 0 1 I I -0.70710678118654757 0.70710678118654757 0.75 forward I I I I #
loop $-1 $-1 $275 $71 #
coedge $-1 $173 $173 $276 $277 reversed $109 $-1 #
face $-1 $278 $279 $57 $-1 $280 reversed single #
loop $-1 $-1 $281 $111 #
plane-surface $-1 29.636590199828845 -43.904438765155589 13.703611835340155 0 -0.62932039886446345 0.77714595512881146 1 0 0 forward_v I I I I #
coedge $-1 $282 $283 $284 $285 reversed $112 $-1 #
face $-1 $-1 $286 $58 $-1 $287 forward single #
loop $-1 $288 $289 $114 #
cone-surface $-1 26.256027204974345 -37.687318400362145 10.888017788703426 0 0.62932039886446345 -0.77714595512881146 0.75 0 0 1 I I -0.70710678118654757 0.70710678118654757 0.75 forward I I I I #
loop $-1 $-1 $290 $73 #
coedge $-1 $182 $182 $291 $292 reversed $115 $-1 #
face $-1 $-1 $293 $59 $-1 $294 forward single #
loop $-1 $295 $296 $117 #
cone-surface $-1 33.017153194683345 -37.687318400362145 10.888017788703426 0 0.62932039886446345 -0.77714595512881146 0.75 0 0 1 I I -0.70710678118654757 0.70710678118654757 0.75 forward I I I I #
loop $-1 $-1 $297 $74 #
coedge $-1 $187 $187 $298 $299 reversed $118 $-1 #
face $-1 $300 $301 $45 $-1 $302 reversed single #
loop $-1 $-1 $303 $120 #
plane-surface $-1 0 -43.904438765155589 0 0 1 0 0 0 1 forward_v I I I I #
coedge $-1 $304 $305 $306 $307 forward $121 $-1 #
coedge $-1 $308 $123 $309 $310 forward $76 $-1 #
coedge $-1 $123 $308 $311 $312 forward $76 $-1 #
coedge $-1 $313 $314 $123 $195 reversed $315 $-1 #
edge $-1 $316 -43.904438765155589 $317 43.904438765155589 $194 $318 forward 7 unknown #
face $-1 $319 $320 $46 $-1 $321 reversed single #
loop $-1 $-1 $322 $124 #
plane-surface $-1 -77.445346647684417 -33.243312241391912 0 0 1 0 0 0 1 forward_v I I I I #
coedge $-1 $323 $324 $201 $325 forward $125 $-1 #
coedge $-1 $326 $127 $327 $328 reversed $79 $-1 #
coedge $-1 $127 $326 $199 $325 reversed $79 $-1 #
coedge $-1 $329 $330 $127 $203 reversed $331 $-1 #
edge $-1 $332 -17.554674046500626 $333 17.554674046500626 $202 $334 forward 7 unknown #
face $-1 $335 $336 $47 $-1 $337 reversed single #
loop $-1 $-1 $210 $128 #
plane-surface $-1 77.445346647684403 -33.243312241391912 0 0 1 0 0 0 1 forward_v I I I I #
coedge $-1 $338 $339 $209 $340 forward $129 $-1 #
coedge $-1 $341 $131 $342 $343 reversed $82 $-1 #
coedge $-1 $131 $341 $207 $340 reversed $82 $-1 #
coedge $-1 $344 $345 $131 $211 reversed $205 $-1 #
edge $-1 $346 -17.554674046500626 $347 17.554674046500626 $210 $348 forward 7 unknown #
face $-1 $349 $350 $48 $-1 $351 reversed single #
loop $-1 $-1 $352 $132 #
plane-surface $-1 -21.748609878501675 61.38552586807559 174.82064196268732 -1 0 0 0 0.62932039886446345 0.77714595512881146 forward_v I I I I #
coedge $-1 $353 $354 $355 $356 reversed $133 $-1 #
coedge $-1 $217 $135 $357 $358 reversed $85 $-1 #
coedge $-1 $135 $216 $353 $359 reversed $85 $-1 #
coedge $-1 $355 $360 $135 $219 forward $361 $-1 #
edge $-1 $362 -13.211675831117795 $363 -8.4560101546944608 $218 $364 forward 7 unknown #
loop $-1 $-1 $225 $136 #
plane-surface $-1 -29.636590199828845 -24.33587523192692 68.963529666556411 0 0.62932039886446345 0.77714595512881146 1 0 0 forward_v I I I I #
loop $-1 $-1 $365 $87 #
coedge $-1 $223 $223 $224 $366 reversed $137 $-1 #
coedge $-1 $224 $224 $223 $366 forward $139 $-1 #
coedge $-1 $225 $225 $140 $226 forward $220 $-1 #
edge $-1 $367 -7.0024250108885599e-016 $367 6.2831853071795996 $225 $368 forward 7 unknown #
loop $-1 $-1 $232 $141 #
plane-surface $-1 -29.636590199828845 -24.33587523192692 68.963529666556411 0 0.62932039886446345 0.77714595512881146 1 0 0 forward_v I I I I #
loop $-1 $-1 $369 $90 #
coedge $-1 $230 $230 $231 $370 reversed $142 $-1 #
coedge $-1 $231 $231 $230 $370 forward $144 $-1 #
coedge $-1 $232 $232 $145 $233 forward $227 $-1 #
edge $-1 $371 -7.0024250108885599e-016 $371 6.2831853071795996 $232 $372 forward 7 unknown #
face $-1 $373 $374 $51 $-1 $375 forward single #
loop $-1 $-1 $376 $146 #
plane-surface $-1 37.524570521156015 61.38552586807559 174.82064196268732 -1 0 0 0 0.62932039886446345 0.77714595512881146 forward_v I I I I #
coedge $-1 $377 $378 $379 $380 reversed $147 $-1 #
coedge $-1 $239 $149 $381 $382 reversed $94 $-1 #
coedge $-1 $149 $238 $377 $383 reversed $94 $-1 #
coedge $-1 $379 $384 $149 $241 forward $374 $-1 #
edge $-1 $385 -13.211675831117795 $386 -8.4560101546944608 $240 $387 forward 7 unknown #
loop $-1 $-1 $247 $150 #
plane-surface $-1 29.636590199828845 -24.33587523192692 68.963529666556411 0 0.62932039886446345 0.77714595512881146 1 0 0 forward_v I I I I #
loop $-1 $-1 $388 $96 #
coedge $-1 $245 $245 $246 $389 reversed $151 $-1 #
coedge $-1 $246 $246 $245 $389 forward $153 $-1 #
coedge $-1 $247 $247 $154 $248 forward $242 $-1 #
edge $-1 $390 -7.0024250108885599e-016 $390 6.2831853071795996 $247 $391 forward 7 unknown #
loop $-1 $-1 $254 $155 #
plane-surface $-1 29.636590199828845 -24.33587523192692 68.963529666556411 0 0.62932039886446345 0.77714595512881146 1 0 0 forward_v I I I I #
loop $-1 $-1 $392 $99 #
coedge $-1 $252 $252 $253 $393 reversed $156 $-1 #
coedge $-1 $253 $253 $252 $393 forward $158 $-1 #
coedge $-1 $254 $254 $159 $255 forward $249 $-1 #
edge $-1 $394 -7.0024250108885599e-016 $394 6.2831853071795996 $254 $395 forward 7 unknown #
face $-1 $396 $397 $54 $-1 $398 forward single #
loop $-1 $-1 $399 $160 #
plane-surface $-1 -37.524570521156015 -129.6258398651581 119.56072413147106 1 0 0 0 0.62932039886446345 -0.77714595512881146 forward_v I I I I #
coedge $-1 $400 $401 $402 $403 reversed $161 $-1 #
coedge $-1 $261 $163 $404 $405 reversed $103 $-1 #
coedge $-1 $163 $260 $400 $406 reversed $103 $-1 #
coedge $-1 $402 $407 $163 $263 forward $397 $-1 #
edge $-1 $408 20.90848116742346 $409 25.664146843846801 $262 $410 forward 7 unknown #
loop $-1 $-1 $269 $164 #
plane-surface $-1 -29.636590199828845 -43.904438765155589 13.703611835340155 0 -0.62932039886446345 0.77714595512881146 1 0 0 forward_v I I I I #
loop $-1 $-1 $411 $105 #
coedge $-1 $267 $267 $268 $412 reversed $165 $-1 #
coedge $-1 $268 $268 $267 $412 forward $167 $-1 #
coedge $-1 $269 $269 $168 $270 forward $264 $-1 #
edge $-1 $413 0 $413 6.2831853071796004 $269 $414 forward 7 unknown #
loop $-1 $-1 $276 $169 #
plane-surface $-1 -29.636590199828845 -43.904438765155589 13.703611835340155 0 -0.62932039886446345 0.77714595512881146 1 0 0 forward_v I I I I #
loop $-1 $-1 $415 $108 #
coedge $-1 $274 $274 $275 $416 reversed $170 $-1 #
coedge $-1 $275 $275 $274 $416 forward $172 $-1 #
coedge $-1 $276 $276 $173 $277 forward $271 $-1 #
edge $-1 $417 0 $417 6.2831853071796004 $276 $418 forward 7 unknown #
face $-1 $419 $420 $57 $-1 $421 reversed single #
loop $-1 $-1 $422 $174 #
plane-surface $-1 21.748609878501675 -129.6258398651581 119.56072413147106 1 0 0 0 0.62932039886446345 -0.77714595512881146 forward_v I I I I #
coedge $-1 $423 $424 $425 $426 reversed $175 $-1 #
coedge $-1 $283 $177 $427 $428 reversed $112 $-1 #
coedge $-1 $177 $282 $423 $429 reversed $112 $-1 #
coedge $-1 $425 $430 $177 $285 forward $431 $-1 #
edge $-1 $432 20.90848116742346 $433 25.664146843846801 $284 $434 forward 7 unknown #
loop $-1 $-1 $291 $178 #
plane-surface $-1 29.636590199828845 -43.904438765155589 13.703611835340155 0 -0.62932039886446345 0.77714595512881146 1 0 0 forward_v I I I I #
loop $-1 $-1 $435 $114 #
coedge $-1 $289 $289 $290 $436 reversed $179 $-1 #
coedge $-1 $290 $290 $289 $436 forward $181 $-1 #
coedge $-1 $291 $291 $182 $292 forward $286 $-1 #
edge $-1 $437 0 $437 6.2831853071796004 $291 $438 forward 7 unknown #
loop $-1 $-1 $298 $183 #
plane-surface $-1 29.636590199828845 -43.904438765155589 13.703611835340155 0 -0.62932039886446345 0.77714595512881146 1 0 0 forward_v I I I I #
loop $-1 $-1 $439 $117 #
coedge $-1 $296 $296 $297 $440 reversed $184 $-1 #
coedge $-1 $297 $297 $296 $440 forward $186 $-1 #
coedge $-1 $298 $298 $187 $299 forward $293 $-1 #
edge $-1 $441 0 $441 6.2831853071796004 $298 $442 forward 7 unknown #
face $-1 $443 $444 $45 $-1 $445 reversed single #
loop $-1 $-1 $446 $188 #
plane-surface $-1 -68.106326487014371 0 0 1 0 0 0 0 -1 forward_v I I I I #
coedge $-1 $447 $311 $448 $449 forward $189 $-1 #
coedge $-1 $450 $191 $447 $451 forward $121 $-1 #
coedge $-1 $191 $450 $452 $453 forward $121 $-1 #
coedge $-1 $314 $313 $191 $307 reversed $315 $-1 #
edge $-1 $454 -43.904438765155589 $455 43.904438765155589 $306 $456 forward 7 unknown #
coedge $-1 $193 $192 $457 $458 forward $76 $-1 #
coedge $-1 $459 $460 $192 $310 reversed $444 $-1 #
edge $-1 $317 -68.106326487014371 $461 68.106326487014371 $309 $462 forward 7 unknown #
coedge $-1 $303 $463 $193 $312 reversed $189 $-1 #
edge $-1 $464 -68.106326487014371 $316 68.106326487014371 $311 $465 forward 7 unknown #
coedge $-1 $306 $194 $463 $466 forward $315 $-1 #
coedge $-1 $194 $306 $459 $467 reversed $315 $-1 #
loop $-1 $-1 $313 $443 #
vertex $-1 $195 $468 #
vertex $-1 $195 $469 #
straight-curve $-1 68.106326487014371 0 17.554674046500626 0 1 0 I I #
face $-1 $470 $331 $46 $-1 $471 reversed single #
loop $-1 $-1 $472 $196 #
plane-surface $-1 -86.784366808354463 -31.106289038044451 0 1 0 0 0 0 -1 forward_v I I I I #
coedge $-1 $473 $474 $475 $476 forward $197 $-1 #
coedge $-1 $477 $199 $473 $478 forward $125 $-1 #
coedge $-1 $199 $477 $329 $479 forward $125 $-1 #
edge $-1 $332 28.969265834696987 $480 33.243312241391912 $199 $481 forward 7 unknown #
coedge $-1 $201 $200 $482 $483 forward $79 $-1 #
coedge $-1 $484 $485 $200 $328 forward $486 $-1 #
edge $-1 $487 -33.243312241391912 $333 -28.969265834696987 $327 $488 forward 7 unknown #
coedge $-1 $489 $202 $324 $479 reversed $331 $-1 #
coedge $-1 $202 $489 $484 $490 reversed $331 $-1 #
loop $-1 $-1 $202 $319 #
vertex $-1 $325 $491 #
vertex $-1 $490 $492 #
straight-curve $-1 -68.106326487014371 -28.969265834696987 0 0 0 1 I I #
face $-1 $493 $494 $47 $-1 $495 reversed single #
loop $-1 $-1 $496 $204 #
plane-surface $-1 77.445346647684403 -28.969265834696987 0 0 -1 0 0 0 -1 forward_v I I I I #
coedge $-1 $497 $207 $498 $499 forward $129 $-1 #
coedge $-1 $207 $497 $344 $500 forward $129 $-1 #
edge $-1 $346 -33.243312241391912 $501 -28.969265834696987 $207 $502 forward 7 unknown #
coedge $-1 $209 $208 $503 $504 forward $82 $-1 #
coedge $-1 $505 $506 $208 $343 forward $507 $-1 #
edge $-1 $508 28.969265834696987 $347 33.243312241391912 $342 $509 forward 7 unknown #
coedge $-1 $510 $210 $339 $500 reversed $205 $-1 #
coedge $-1 $210 $510 $505 $511 reversed $205 $-1 #
vertex $-1 $340 $512 #
vertex $-1 $511 $513 #
straight-curve $-1 68.106326487014371 -33.243312241391912 0 0 0 1 I I #
face $-1 $-1 $361 $48 $-1 $514 forward single #
loop $-1 $-1 $515 $212 #
plane-surface $-1 0 43.904438765155589 0 0 -1 0 0 0 -1 forward_v I I I I #
coedge $-1 $516 $517 $518 $519 reversed $213 $-1 #
coedge $-1 $520 $215 $217 $359 forward $133 $-1 #
coedge $-1 $215 $520 $516 $521 forward $133 $-1 #
coedge $-1 $518 $218 $215 $356 forward $361 $-1 #
edge $-1 $363 -22.706275421241592 $522 -6.9303147785872525 $355 $523 forward 7 unknown #
coedge $-1 $524 $525 $216 $358 forward $350 $-1 #
edge $-1 $526 -73.706709146003504 $362 -69.855646934843037 $357 $527 forward 7 unknown #
edge $-1 $363 81.689479179154489 $526 87.808877530311179 $217 $528 forward 7 unknown #
coedge $-1 $218 $518 $524 $529 forward $361 $-1 #
loop $-1 $-1 $518 $349 #
vertex $-1 $358 $530 #
vertex $-1 $219 $531 #
straight-curve $-1 -37.524570521156015 30.692762934037795 17.554674046500622 0 -1 0 I I #
coedge $-1 $365 $365 $-1 $532 reversed $222 $-1 #
edge $-1 $533 0 $533 6.2831853071796004 $223 $534 forward 7 unknown #
vertex $-1 $226 $535 #
ellipse-curve $-1 -33.017153194683345 41.526605926943922 15.629142940920394 0 0.62932039886446345 0.77714595512881146 1.5 0 0 1 I I #
coedge $-1 $369 $369 $-1 $536 reversed $229 $-1 #
edge $-1 $537 0 $537 6.2831853071796004 $230 $538 forward 7 unknown #
vertex $-1 $233 $539 #
ellipse-curve $-1 -26.256027204974345 41.526605926943922 15.629142940920394 0 0.62932039886446345 0.77714595512881146 1.5 0 0 1 I I #
face $-1 $-1 $540 $51 $-1 $541 reversed single #
loop $-1 $-1 $240 $234 #
plane-surface $-1 0 0 17.554674046500626 0 0 1 1 0 0 forward_v I I I I #
coedge $-1 $542 $543 $544 $545 reversed $235 $-1 #
coedge $-1 $546 $237 $239 $383 forward $147 $-1 #
coedge $-1 $237 $546 $542 $547 forward $147 $-1 #
coedge $-1 $544 $240 $237 $380 forward $374 $-1 #
edge $-1 $386 6.9303147785872525 $548 22.706275421241592 $379 $549 forward 7 unknown #
coedge $-1 $550 $551 $238 $382 forward $540 $-1 #
edge $-1 $552 -73.706709146003504 $385 -69.855646934843037 $381 $553 forward 7 unknown #
edge $-1 $386 81.689479179154489 $552 87.808877530311179 $239 $554 forward 7 unknown #
coedge $-1 $240 $544 $550 $555 forward $374 $-1 #
vertex $-1 $382 $556 #
vertex $-1 $241 $557 #
straight-curve $-1 21.748609878501675 30.692762934037795 17.554674046500622 0 -1 0 I I #
coedge $-1 $388 $388 $-1 $558 reversed $244 $-1 #
edge $-1 $559 0 $559 6.2831853071796004 $245 $560 forward 7 unknown #
vertex $-1 $248 $561 #
ellipse-curve $-1 26.256027204974345 41.526605926943922 15.629142940920394 0 0.62932039886446345 0.77714595512881146 1.5 0 0 1 I I #
coedge $-1 $392 $392 $-1 $562 reversed $251 $-1 #
edge $-1 $563 0 $563 6.2831853071796004 $252 $564 forward 7 unknown #
vertex $-1 $255 $565 #
ellipse-curve $-1 33.017153194683345 41.526605926943922 15.629142940920394 0 0.62932039886446345 0.77714595512881146 1.5 0 0 1 I I #
face $-1 $-1 $566 $54 $-1 $567 reversed single #
loop $-1 $-1 $262 $256 #
plane-surface $-1 0 0 17.554674046500626 0 0 1 1 0 0 forward_v I I I I #
coedge $-1 $568 $569 $570 $571 reversed $257 $-1 #
coedge $-1 $572 $259 $261 $406 forward $161 $-1 #
coedge $-1 $259 $572 $568 $573 forward $161 $-1 #
coedge $-1 $570 $262 $259 $403 forward $397 $-1 #
edge $-1 $409 6.9303147785872525 $574 22.706275421241592 $402 $575 forward 7 unknown #
coedge $-1 $576 $577 $260 $405 forward $566 $-1 #
edge $-1 $578 -46.076750230395376 $408 -42.225688019234909 $404 $579 forward 7 unknown #
edge $-1 $409 -6.1193983511566934 $578 0 $261 $580 forward 7 unknown #
coedge $-1 $262 $570 $576 $581 forward $397 $-1 #
vertex $-1 $263 $582 #
vertex $-1 $263 $583 #
straight-curve $-1 -21.748609878501675 -64.812919932579049 17.554674046500622 0 1 0 I I #
coedge $-1 $411 $411 $-1 $584 reversed $266 $-1 #
edge $-1 $585 0 $585 6.2831853071796004 $267 $586 forward 7 unknown #
vertex $-1 $270 $587 #
ellipse-curve $-1 -33.017153194683345 -41.526605926943915 15.629142940920394 0 -0.62932039886446345 0.77714595512881146 1.5 0 0 1 I I #
coedge $-1 $415 $415 $-1 $588 reversed $273 $-1 #
edge $-1 $589 0 $589 6.2831853071796004 $274 $590 forward 7 unknown #
vertex $-1 $277 $591 #
ellipse-curve $-1 -26.256027204974345 -41.526605926943915 15.629142940920394 0 -0.62932039886446345 0.77714595512881146 1.5 0 0 1 I I #
face $-1 $-1 $431 $57 $-1 $592 forward single #
loop $-1 $-1 $593 $278 #
plane-surface $-1 0 -43.904438765155589 0 0 1 0 0 0 1 forward_v I I I I #
coedge $-1 $594 $595 $596 $597 reversed $279 $-1 #
coedge $-1 $598 $281 $283 $429 forward $175 $-1 #
coedge $-1 $281 $598 $594 $599 forward $175 $-1 #
coedge $-1 $596 $284 $281 $426 forward $431 $-1 #
edge $-1 $433 -22.706275421241592 $600 -6.9303147785872525 $425 $601 forward 7 unknown #
coedge $-1 $602 $603 $282 $428 forward $420 $-1 #
edge $-1 $604 -46.076750230395376 $432 -42.225688019234909 $427 $605 forward 7 unknown #
edge $-1 $433 -6.1193983511566934 $604 0 $283 $606 forward 7 unknown #
coedge $-1 $284 $596 $602 $607 forward $431 $-1 #
loop $-1 $-1 $596 $419 #
vertex $-1 $428 $608 #
vertex $-1 $285 $609 #
straight-curve $-1 37.524570521156015 -64.812919932579049 17.554674046500622 0 1 0 I I #
coedge $-1 $435 $435 $-1 $610 reversed $288 $-1 #
edge $-1 $611 0 $611 6.2831853071796004 $289 $612 forward 7 unknown #
vertex $-1 $292 $613 #
ellipse-curve $-1 26.256027204974345 -41.526605926943915 15.629142940920394 0 -0.62932039886446345 0.77714595512881146 1.5 0 0 1 I I #
coedge $-1 $439 $439 $-1 $614 reversed $295 $-1 #
edge $-1 $615 0 $615 6.2831853071796004 $296 $616 forward 7 unknown #
vertex $-1 $299 $617 #
ellipse-curve $-1 33.017153194683345 -41.526605926943915 15.629142940920394 0 -0.62932039886446345 0.77714595512881146 1.5 0 0 1 I I #
face $-1 $-1 $315 $45 $-1 $618 reversed single #
loop $-1 $-1 $459 $300 #
plane-surface $-1 0 43.904438765155589 0 0 -1 0 0 0 -1 forward_v I I I I #
coedge $-1 $619 $457 $460 $620 forward $301 $-1 #
coedge $-1 $463 $303 $304 $451 reversed $189 $-1 #
coedge $-1 $457 $619 $303 $449 reversed $301 $-1 #
edge $-1 $464 -17.554674046500626 $621 17.554674046500626 $448 $622 forward 7 unknown #
coedge $-1 $305 $304 $619 $623 forward $121 $-1 #
edge $-1 $455 -68.106326487014371 $621 68.106326487014371 $447 $624 forward 7 unknown #
coedge $-1 $460 $459 $305 $453 reversed $444 $-1 #
edge $-1 $625 -68.106326487014371 $454 68.106326487014371 $452 $626 forward 7 unknown #
vertex $-1 $307 $627 #
vertex $-1 $466 $628 #
straight-curve $-1 68.106326487014371 0 -17.554674046500626 0 -1 0 I I #
coedge $-1 $446 $448 $308 $458 reversed $301 $-1 #
edge $-1 $461 -43.904438765155589 $464 43.904438765155589 $457 $629 forward 7 unknown #
coedge $-1 $452 $309 $314 $467 forward $444 $-1 #
coedge $-1 $309 $452 $446 $620 reversed $444 $-1 #
vertex $-1 $310 $630 #
straight-curve $-1 0 43.904438765155589 17.554674046500626 -1 0 0 I I #
coedge $-1 $311 $447 $313 $466 reversed $189 $-1 #
vertex $-1 $458 $631 #
straight-curve $-1 0 -43.904438765155589 17.554674046500626 1 0 0 I I #
edge $-1 $316 -17.554674046500626 $455 17.554674046500626 $313 $632 forward 7 unknown #
edge $-1 $317 -17.554674046500626 $454 17.554674046500626 $314 $633 forward 7 unknown #
point $-1 68.106326487014371 -43.904438765155589 17.554674046500626 #
point $-1 68.106326487014371 43.904438765155589 17.554674046500626 #
face $-1 $-1 $486 $46 $-1 $634 forward single #
plane-surface $-1 -77.445346647684417 -28.969265834696987 0 0 -1 0 0 0 -1 forward_v I I I I #
coedge $-1 $635 $636 $489 $637 forward $320 $-1 #
coedge $-1 $482 $322 $323 $478 reversed $197 $-1 #
coedge $-1 $322 $482 $485 $638 reversed $197 $-1 #
coedge $-1 $636 $635 $322 $476 reversed $320 $-1 #
edge $-1 $639 -17.554674046500626 $640 17.554674046500626 $475 $641 forward 7 unknown #
coedge $-1 $324 $323 $635 $642 forward $125 $-1 #
edge $-1 $480 -9.3390201606700458 $640 9.3390201606700458 $473 $643 forward 7 unknown #
edge $-1 $644 -9.3390201606700458 $332 9.3390201606700458 $329 $645 forward 7 unknown #
vertex $-1 $478 $646 #
straight-curve $-1 -68.106326487014371 0 -17.554674046500626 0 -1 0 I I #
coedge $-1 $474 $473 $326 $483 reversed $197 $-1 #
edge $-1 $487 -17.554674046500626 $480 17.554674046500626 $482 $647 forward 7 unknown #
coedge $-1 $648 $327 $330 $490 forward $486 $-1 #
coedge $-1 $327 $648 $474 $638 forward $486 $-1 #
loop $-1 $-1 $327 $470 #
vertex $-1 $328 $649 #
straight-curve $-1 -68.106326487014371 0 17.554674046500626 0 1 0 I I #
coedge $-1 $330 $329 $472 $637 reversed $331 $-1 #
edge $-1 $333 -9.3390201606700458 $650 9.3390201606700458 $330 $651 forward 7 unknown #
point $-1 -68.106326487014371 -28.969265834696987 -17.554674046500626 #
point $-1 -68.106326487014371 -28.969265834696987 17.554674046500626 #
face $-1 $-1 $507 $47 $-1 $652 forward single #
loop $-1 $-1 $653 $335 #
plane-surface $-1 86.784366808354449 -31.106289038044451 0 -1 0 0 0 0 1 forward_v I I I I #
coedge $-1 $498 $654 $655 $656 forward $336 $-1 #
coedge $-1 $339 $338 $657 $658 forward $129 $-1 #
coedge $-1 $503 $496 $338 $499 reversed $336 $-1 #
edge $-1 $501 -9.3390201606700458 $659 9.3390201606700458 $498 $660 forward 7 unknown #
edge $-1 $661 -9.3390201606700458 $346 9.3390201606700458 $344 $662 forward 7 unknown #
vertex $-1 $499 $663 #
straight-curve $-1 68.106326487014371 0 -17.554674046500626 0 1 0 I I #
coedge $-1 $654 $498 $341 $504 reversed $336 $-1 #
edge $-1 $508 -17.554674046500626 $501 17.554674046500626 $503 $664 forward 7 unknown #
coedge $-1 $665 $342 $345 $511 forward $507 $-1 #
coedge $-1 $342 $665 $654 $666 forward $507 $-1 #
loop $-1 $-1 $342 $493 #
vertex $-1 $343 $667 #
straight-curve $-1 68.106326487014371 0 17.554674046500626 0 -1 0 I I #
coedge $-1 $345 $344 $653 $668 reversed $205 $-1 #
edge $-1 $347 -9.3390201606700458 $669 9.3390201606700458 $345 $670 forward 7 unknown #
point $-1 68.106326487014357 -33.243312241391912 -17.554674046500626 #
point $-1 68.106326487014357 -33.243312241391912 17.554674046500626 #
plane-surface $-1 0 0 17.554674046500626 0 0 1 1 0 0 forward_v I I I I #
coedge $-1 $525 $524 $517 $671 forward $350 $-1 #
coedge $-1 $517 $352 $354 $521 reversed $213 $-1 #
coedge $-1 $352 $516 $515 $671 reversed $213 $-1 #
coedge $-1 $360 $355 $352 $519 forward $361 $-1 #
edge $-1 $522 8.4560101546944608 $672 13.211675831117795 $518 $673 forward 7 unknown #
coedge $-1 $354 $353 $525 $674 reversed $133 $-1 #
edge $-1 $675 -87.808877530311179 $522 -81.689479179154489 $516 $676 forward 7 unknown #
vertex $-1 $356 $677 #
straight-curve $-1 -14.818295099914423 39.148773088732248 17.554674046500622 1 0 0 I I #
coedge $-1 $515 $357 $360 $529 reversed $350 $-1 #
coedge $-1 $357 $515 $520 $674 forward $350 $-1 #
vertex $-1 $358 $678 #
straight-curve $-1 -37.524570521156015 43.904438765155589 87.410320981343659 0 0 1 I I #
straight-curve $-1 -37.524570521156015 -24.33587523192692 68.963529666556411 0 0.77714595512881146 -0.62932039886446345 I I #
edge $-1 $672 21.748609878501675 $362 37.524570521156015 $524 $679 forward 7 unknown #
point $-1 -37.524570521156015 43.904438765155589 17.554674046500626 #
point $-1 -37.524570521156015 39.148773088732256 17.554674046500629 #
edge $-1 $680 1 $680 0 $365 $-1 forward 7 unknown #
vertex $-1 $366 $681 #
ellipse-curve $-1 -33.017153194683345 38.15930869951049 11.470877255050027 0 0.62932039886446345 0.77714595512881146 1.5 0 0 1 I I #
point $-1 -31.517153194683345 41.526605926943915 15.629142940920387 #
edge $-1 $682 1 $682 0 $369 $-1 forward 7 unknown #
vertex $-1 $370 $683 #
ellipse-curve $-1 -26.256027204974345 38.15930869951049 11.470877255050027 0 0.62932039886446345 0.77714595512881146 1.5 0 0 1 I I #
point $-1 -24.756027204974345 41.526605926943915 15.629142940920387 #
loop $-1 $-1 $381 $373 #
plane-surface $-1 0 43.904438765155589 0 0 -1 0 0 0 -1 forward_v I I I I #
coedge $-1 $543 $376 $378 $547 reversed $235 $-1 #
coedge $-1 $376 $542 $684 $685 reversed $235 $-1 #
coedge $-1 $384 $379 $376 $545 forward $374 $-1 #
edge $-1 $548 8.4560101546944608 $686 13.211675831117795 $544 $687 forward 7 unknown #
coedge $-1 $378 $377 $551 $688 reversed $147 $-1 #
edge $-1 $689 -87.808877530311179 $548 -81.689479179154489 $542 $690 forward 7 unknown #
vertex $-1 $380 $691 #
straight-curve $-1 14.818295099914423 39.148773088732248 17.554674046500622 1 0 0 I I #
coedge $-1 $684 $381 $384 $555 reversed $540 $-1 #
coedge $-1 $381 $684 $546 $688 forward $540 $-1 #
vertex $-1 $382 $692 #
straight-curve $-1 21.748609878501675 43.904438765155589 87.410320981343659 0 0 1 I I #
straight-curve $-1 21.748609878501675 -24.33587523192692 68.963529666556411 0 0.77714595512881146 -0.62932039886446345 I I #
edge $-1 $686 -37.524570521156015 $385 -21.748609878501675 $550 $693 forward 7 unknown #
point $-1 21.748609878501675 43.904438765155589 17.554674046500626 #
point $-1 21.748609878501675 39.148773088732256 17.554674046500629 #
edge $-1 $694 1 $694 0 $388 $-1 forward 7 unknown #
vertex $-1 $389 $695 #
ellipse-curve $-1 26.256027204974345 38.15930869951049 11.470877255050027 0 0.62932039886446345 0.77714595512881146 1.5 0 0 1 I I #
point $-1 27.756027204974345 41.526605926943915 15.629142940920387 #
edge $-1 $696 1 $696 0 $392 $-1 forward 7 unknown #
vertex $-1 $393 $697 #
ellipse-curve $-1 33.017153194683345 38.15930869951049 11.470877255050027 0 0.62932039886446345 0.77714595512881146 1.5 0 0 1 I I #
point $-1 34.517153194683345 41.526605926943915 15.629142940920387 #
loop $-1 $-1 $404 $396 #
plane-surface $-1 0 -43.904438765155589 0 0 1 0 0 0 1 forward_v I I I I #
coedge $-1 $569 $399 $401 $573 reversed $257 $-1 #
coedge $-1 $399 $568 $698 $699 reversed $257 $-1 #
coedge $-1 $407 $402 $399 $571 forward $397 $-1 #
edge $-1 $574 -25.664146843846801 $700 -20.90848116742346 $570 $701 forward 7 unknown #
coedge $-1 $401 $400 $577 $702 reversed $161 $-1 #
edge $-1 $703 0 $574 6.1193983511566934 $568 $704 forward 7 unknown #
vertex $-1 $403 $705 #
straight-curve $-1 -14.818295099914423 -39.148773088732248 17.554674046500626 -1 0 0 I I #
coedge $-1 $698 $404 $407 $581 reversed $566 $-1 #
coedge $-1 $404 $698 $572 $702 forward $566 $-1 #
vertex $-1 $405 $706 #
straight-curve $-1 -21.748609878501675 -43.904438765155589 59.780362065735531 0 0 1 I I #
straight-curve $-1 -21.748609878501675 -43.904438765155589 13.703611835340155 0 -0.77714595512881146 -0.62932039886446345 I I #
edge $-1 $700 -37.524570521156015 $408 -21.748609878501675 $576 $707 forward 7 unknown #
point $-1 -21.748609878501675 -43.904438765155589 17.554674046500626 #
point $-1 -21.748609878501675 -39.148773088732248 17.554674046500626 #
edge $-1 $708 1 $708 0 $411 $-1 forward 7 unknown #
vertex $-1 $412 $709 #
ellipse-curve $-1 -33.017153194683345 -38.15930869951049 11.470877255050034 0 -0.62932039886446345 0.77714595512881146 1.5 0 0 1 I I #
point $-1 -31.517153194683345 -41.526605926943915 15.629142940920394 #
edge $-1 $710 1 $710 0 $415 $-1 forward 7 unknown #
vertex $-1 $416 $711 #
ellipse-curve $-1 -26.256027204974345 -38.15930869951049 11.470877255050034 0 -0.62932039886446345 0.77714595512881146 1.5 0 0 1 I I #
point $-1 -24.756027204974345 -41.526605926943915 15.629142940920394 #
plane-surface $-1 0 0 17.554674046500626 0 0 1 1 0 0 forward_v I I I I #
coedge $-1 $603 $602 $595 $712 forward $420 $-1 #
coedge $-1 $595 $422 $424 $599 reversed $279 $-1 #
coedge $-1 $422 $594 $593 $712 reversed $279 $-1 #
coedge $-1 $430 $425 $422 $597 forward $431 $-1 #
edge $-1 $600 -25.664146843846801 $713 -20.90848116742346 $596 $714 forward 7 unknown #
coedge $-1 $424 $423 $603 $715 reversed $175 $-1 #
edge $-1 $716 0 $600 6.1193983511566934 $594 $717 forward 7 unknown #
vertex $-1 $426 $718 #
straight-curve $-1 14.818295099914423 -39.148773088732248 17.554674046500626 -1 0 0 I I #
coedge $-1 $593 $427 $430 $607 reversed $420 $-1 #
coedge $-1 $427 $593 $598 $715 forward $420 $-1 #
vertex $-1 $428 $719 #
straight-curve $-1 37.524570521156015 -43.904438765155589 59.780362065735531 0 0 1 I I #
straight-curve $-1 37.524570521156015 -43.904438765155589 13.703611835340155 0 -0.77714595512881146 -0.62932039886446345 I I #
edge $-1 $713 21.748609878501675 $432 37.524570521156015 $602 $720 forward 7 unknown #
point $-1 37.524570521156015 -43.904438765155589 17.554674046500626 #
point $-1 37.524570521156015 -39.148773088732248 17.554674046500626 #
edge $-1 $721 1 $721 0 $435 $-1 forward 7 unknown #
vertex $-1 $436 $722 #
ellipse-curve $-1 26.256027204974345 -38.15930869951049 11.470877255050034 0 -0.62932039886446345 0.77714595512881146 1.5 0 0 1 I I #
point $-1 27.756027204974345 -41.526605926943915 15.629142940920394 #
edge $-1 $723 1 $723 0 $439 $-1 forward 7 unknown #
vertex $-1 $440 $724 #
ellipse-curve $-1 33.017153194683345 -38.15930869951049 11.470877255050034 0 -0.62932039886446345 0.77714595512881146 1.5 0 0 1 I I #
point $-1 34.517153194683345 -41.526605926943915 15.629142940920394 #
plane-surface $-1 68.106326487014371 0 0 -1 0 0 0 0 1 forward_v I I I I #
coedge $-1 $448 $446 $450 $623 reversed $301 $-1 #
edge $-1 $461 -17.554674046500626 $625 17.554674046500626 $460 $725 forward 7 unknown #
vertex $-1 $623 $726 #
straight-curve $-1 -68.106326487014371 -43.904438765155589 0 0 0 -1 I I #
edge $-1 $621 -43.904438765155589 $625 43.904438765155589 $619 $727 forward 7 unknown #
straight-curve $-1 0 -43.904438765155589 -17.554674046500626 -1 0 0 I I #
vertex $-1 $453 $728 #
straight-curve $-1 0 43.904438765155589 -17.554674046500626 1 0 0 I I #
point $-1 68.106326487014371 43.904438765155589 -17.554674046500626 #
point $-1 68.106326487014371 -43.904438765155589 -17.554674046500626 #
straight-curve $-1 -68.106326487014371 0 17.554674046500626 0 -1 0 I I #
point $-1 -68.106326487014371 43.904438765155589 17.554674046500626 #
point $-1 -68.106326487014371 -43.904438765155589 17.554674046500626 #
straight-curve $-1 68.106326487014371 -43.904438765155589 0 0 0 -1 I I #
straight-curve $-1 68.106326487014371 43.904438765155589 0 0 0 -1 I I #
plane-surface $-1 0 0 17.554674046500626 0 0 1 1 0 0 forward_v I I I I #
coedge $-1 $475 $472 $477 $642 reversed $320 $-1 #
coedge $-1 $472 $475 $648 $729 reversed $320 $-1 #
edge $-1 $650 -17.554674046500626 $644 17.554674046500626 $489 $730 forward 7 unknown #
edge $-1 $639 -9.3390201606700458 $487 9.3390201606700458 $474 $731 forward 7 unknown #
vertex $-1 $729 $732 #
vertex $-1 $642 $733 #
straight-curve $-1 -86.784366808354463 -33.243312241391912 0 0 0 -1 I I #
edge $-1 $640 -2.1370232033474608 $644 2.1370232033474643 $635 $734 forward 7 unknown #
straight-curve $-1 -77.445346647684417 -33.243312241391912 -17.554674046500626 -1 0 0 I I #
vertex $-1 $479 $735 #
straight-curve $-1 -77.445346647684417 -28.969265834696987 -17.554674046500626 1 0 0 I I #
point $-1 -68.106326487014371 -33.243312241391912 -17.554674046500626 #
straight-curve $-1 -68.106326487014371 -33.243312241391912 0 0 0 -1 I I #
coedge $-1 $485 $484 $636 $729 forward $486 $-1 #
point $-1 -68.106326487014371 -33.243312241391912 17.554674046500626 #
vertex $-1 $490 $736 #
straight-curve $-1 -77.445346647684417 -28.969265834696987 17.554674046500626 -1 0 0 I I #
plane-surface $-1 0 0 17.554674046500626 0 0 1 1 0 0 forward_v I I I I #
coedge $-1 $657 $737 $510 $668 forward $494 $-1 #
coedge $-1 $496 $503 $506 $666 reversed $336 $-1 #
coedge $-1 $737 $657 $496 $656 reversed $494 $-1 #
edge $-1 $738 -17.554674046500626 $659 17.554674046500626 $655 $739 forward 7 unknown #
coedge $-1 $655 $653 $497 $658 reversed $494 $-1 #
edge $-1 $659 -2.1370232033474643 $661 2.1370232033474608 $657 $740 forward 7 unknown #
vertex $-1 $658 $741 #
straight-curve $-1 77.445346647684403 -28.969265834696987 -17.554674046500626 1 0 0 I I #
vertex $-1 $668 $742 #
straight-curve $-1 77.445346647684403 -33.243312241391912 -17.554674046500626 -1 0 0 I I #
point $-1 68.106326487014357 -28.969265834696987 -17.554674046500626 #
straight-curve $-1 68.106326487014371 -28.969265834696987 0 0 0 -1 I I #
coedge $-1 $506 $505 $737 $743 forward $507 $-1 #
edge $-1 $738 -9.3390201606700458 $508 9.3390201606700458 $654 $744 forward 7 unknown #
point $-1 68.106326487014357 -28.969265834696987 17.554674046500626 #
edge $-1 $669 -17.554674046500626 $661 17.554674046500626 $653 $745 forward 7 unknown #
vertex $-1 $743 $746 #
straight-curve $-1 77.445346647684403 -33.243312241391912 17.554674046500626 1 0 0 I I #
edge $-1 $672 69.855646934843037 $675 73.706709146003504 $515 $747 forward 7 unknown #
vertex $-1 $529 $748 #
straight-curve $-1 -21.748609878501675 30.692762934037795 17.554674046500622 0 1 0 I I #
edge $-1 $675 6.9303147785872525 $526 22.706275421241592 $525 $749 forward 7 unknown #
vertex $-1 $674 $750 #
straight-curve $-1 -21.748609878501675 -24.33587523192692 68.963529666556411 0 -0.77714595512881146 0.62932039886446345 I I #
point $-1 -21.748609878501675 39.148773088732256 17.554674046500629 #
point $-1 -37.524570521156015 43.904438765155589 13.703611835340155 #
straight-curve $-1 0 43.904438765155589 17.554674046500626 -1 0 0 I I #
vertex $-1 $532 $751 #
point $-1 -31.517153194683345 38.15930869951049 11.470877255050027 #
vertex $-1 $536 $752 #
point $-1 -24.756027204974345 38.15930869951049 11.470877255050027 #
coedge $-1 $551 $550 $543 $685 forward $540 $-1 #
edge $-1 $686 69.855646934843037 $689 73.706709146003504 $684 $753 forward 7 unknown #
vertex $-1 $555 $754 #
straight-curve $-1 37.524570521156015 30.692762934037795 17.554674046500622 0 1 0 I I #
edge $-1 $689 -22.706275421241592 $552 -6.9303147785872525 $551 $755 forward 7 unknown #
vertex $-1 $688 $756 #
straight-curve $-1 37.524570521156015 -24.33587523192692 68.963529666556411 0 -0.77714595512881146 0.62932039886446345 I I #
point $-1 37.524570521156015 39.148773088732256 17.554674046500629 #
point $-1 21.748609878501675 43.904438765155589 13.703611835340155 #
straight-curve $-1 0 43.904438765155589 17.554674046500626 -1 0 0 I I #
vertex $-1 $558 $757 #
point $-1 27.756027204974345 38.15930869951049 11.470877255050027 #
vertex $-1 $562 $758 #
point $-1 34.517153194683345 38.15930869951049 11.470877255050027 #
coedge $-1 $577 $576 $569 $699 forward $566 $-1 #
edge $-1 $700 42.225688019234909 $703 46.076750230395376 $698 $759 forward 7 unknown #
vertex $-1 $581 $760 #
straight-curve $-1 -37.524570521156015 -64.812919932579049 17.554674046500622 0 -1 0 I I #
edge $-1 $703 -22.706275421241592 $578 -6.9303147785872525 $577 $761 forward 7 unknown #
vertex $-1 $702 $762 #
straight-curve $-1 -37.524570521156015 -43.904438765155589 13.703611835340155 0 0.77714595512881146 0.62932039886446345 I I #
point $-1 -37.524570521156015 -39.148773088732248 17.554674046500626 #
point $-1 -21.748609878501675 -43.904438765155589 13.703611835340155 #
straight-curve $-1 0 -43.904438765155589 17.554674046500626 1 0 0 I I #
vertex $-1 $584 $763 #
point $-1 -31.517153194683345 -38.15930869951049 11.470877255050034 #
vertex $-1 $588 $764 #
point $-1 -24.756027204974345 -38.15930869951049 11.470877255050034 #
edge $-1 $713 42.225688019234909 $716 46.076750230395376 $593 $765 forward 7 unknown #
vertex $-1 $607 $766 #
straight-curve $-1 21.748609878501675 -64.812919932579049 17.554674046500622 0 -1 0 I I #
edge $-1 $716 6.9303147785872525 $604 22.706275421241592 $603 $767 forward 7 unknown #
vertex $-1 $715 $768 #
straight-curve $-1 21.748609878501675 -43.904438765155589 13.703611835340155 0 0.77714595512881146 0.62932039886446345 I I #
point $-1 21.748609878501675 -39.148773088732248 17.554674046500626 #
point $-1 37.524570521156015 -43.904438765155589 13.703611835340155 #
straight-curve $-1 0 -43.904438765155589 17.554674046500626 1 0 0 I I #
vertex $-1 $610 $769 #
point $-1 27.756027204974345 -38.15930869951049 11.470877255050034 #
vertex $-1 $614 $770 #
point $-1 34.517153194683345 -38.15930869951049 11.470877255050034 #
straight-curve $-1 -68.106326487014371 43.904438765155589 0 0 0 -1 I I #
point $-1 -68.106326487014371 -43.904438765155589 -17.554674046500626 #
straight-curve $-1 -68.106326487014371 0 -17.554674046500626 0 1 0 I I #
point $-1 -68.106326487014371 43.904438765155589 -17.554674046500626 #
edge $-1 $650 -2.1370232033474643 $639 2.1370232033474608 $636 $771 forward 7 unknown #
straight-curve $-1 -86.784366808354463 -28.969265834696987 0 0 0 -1 I I #
straight-curve $-1 -77.445346647684417 -33.243312241391912 17.554674046500626 1 0 0 I I #
point $-1 -86.784366808354463 -33.243312241391912 17.554674046500626 #
point $-1 -86.784366808354463 -33.243312241391912 -17.554674046500626 #
straight-curve $-1 -86.784366808354463 -31.106289038044451 -17.554674046500626 0 1 0 I I #
point $-1 -86.784366808354463 -28.969265834696987 -17.554674046500626 #
point $-1 -86.784366808354463 -28.969265834696987 17.554674046500626 #
coedge $-1 $653 $655 $665 $743 reversed $494 $-1 #
vertex $-1 $743 $772 #
straight-curve $-1 86.784366808354449 -28.969265834696987 0 0 0 -1 I I #
straight-curve $-1 86.784366808354449 -31.106289038044451 -17.554674046500626 0 -1 0 I I #
point $-1 86.784366808354449 -28.969265834696987 -17.554674046500626 #
point $-1 86.784366808354449 -33.243312241391912 -17.554674046500626 #
edge $-1 $669 -2.1370232033474608 $738 2.1370232033474643 $737 $773 forward 7 unknown #
straight-curve $-1 77.445346647684403 -28.969265834696987 17.554674046500626 -1 0 0 I I #
straight-curve $-1 86.784366808354449 -33.243312241391912 0 0 0 -1 I I #
point $-1 86.784366808354449 -33.243312241391912 17.554674046500626 #
straight-curve $-1 -21.748609878501675 43.904438765155589 87.410320981343659 0 0 -1 I I #
point $-1 -21.748609878501675 43.904438765155589 17.554674046500626 #
straight-curve $-1 -14.818295099914423 43.904438765155589 13.703611835340165 -1 0 0 I I #
point $-1 -21.748609878501675 43.904438765155589 13.703611835340155 #
point $-1 -33.017153194683345 37.2153281012138 10.30515832235681 #
point $-1 -26.256027204974345 37.2153281012138 10.30515832235681 #
straight-curve $-1 37.524570521156015 43.904438765155589 87.410320981343659 0 0 -1 I I #
point $-1 37.524570521156015 43.904438765155589 17.554674046500626 #
straight-curve $-1 14.818295099914423 43.904438765155589 13.703611835340165 -1 0 0 I I #
point $-1 37.524570521156015 43.904438765155589 13.703611835340155 #
point $-1 26.256027204974345 37.2153281012138 10.30515832235681 #
point $-1 33.017153194683345 37.2153281012138 10.30515832235681 #
straight-curve $-1 -37.524570521156015 -43.904438765155589 59.780362065735531 0 0 -1 I I #
point $-1 -37.524570521156015 -43.904438765155589 17.554674046500626 #
straight-curve $-1 -14.818295099914423 -43.904438765155589 13.703611835340158 1 0 0 I I #
point $-1 -37.524570521156015 -43.904438765155589 13.703611835340155 #
point $-1 -33.017153194683345 -37.2153281012138 10.305158322356817 #
point $-1 -26.256027204974345 -37.2153281012138 10.305158322356817 #
straight-curve $-1 21.748609878501675 -43.904438765155589 59.780362065735531 0 0 -1 I I #
point $-1 21.748609878501675 -43.904438765155589 17.554674046500626 #
straight-curve $-1 14.818295099914423 -43.904438765155589 13.703611835340158 1 0 0 I I #
point $-1 21.748609878501675 -43.904438765155589 13.703611835340155 #
point $-1 26.256027204974345 -37.2153281012138 10.305158322356817 #
point $-1 33.017153194683345 -37.2153281012138 10.305158322356817 #
straight-curve $-1 -86.784366808354463 -31.106289038044451 17.554674046500626 0 -1 0 I I #
point $-1 86.784366808354449 -28.969265834696987 17.554674046500626 #
straight-curve $-1 86.784366808354449 -31.106289038044451 17.554674046500626 0 1 0 I I #
End-of-ACIS-data 