500 0 10 0           
7 Unknown 11 ACIS 5.0 NT 24 Fri Mar 26 19:12:50 1999 
-1 9.9999999999999995e-007 1e-010 
body $-1 $10 $-1 $11 #
body $-1 $12 $-1 $13 #
body $-1 $14 $-1 $15 #
body $-1 $16 $-1 $17 #
body $-1 $18 $-1 $19 #
body $-1 $20 $-1 $21 #
body $-1 $22 $-1 $23 #
body $-1 $24 $-1 $25 #
body $-1 $26 $-1 $27 #
body $-1 $28 $-1 $29 #
lump $-1 $-1 $30 $0 #
transform $-1 1 0 0 0 1 0 0 0 1 59.251075777459029 35.654981752139633 8.4148890769317131 1 rotate no_reflect no_shear #
lump $-1 $-1 $31 $1 #
transform $-1 1 0 0 0 1 0 0 0 1 59.251075777459029 35.654981752139633 8.4148890769317131 1 rotate no_reflect no_shear #
lump $-1 $-1 $32 $2 #
transform $-1 1 0 0 0 1 0 0 0 1 59.251075777459029 35.654981752139633 8.4148890769317131 1 rotate no_reflect no_shear #
lump $-1 $-1 $33 $3 #
transform $-1 1 0 0 0 1 0 0 0 1 59.251075777459029 35.654981752139633 8.4148890769317131 1 rotate no_reflect no_shear #
lump $-1 $-1 $34 $4 #
transform $-1 1 0 0 0 1 0 0 0 1 59.251075777459029 35.654981752139633 8.4148890769317131 1 rotate no_reflect no_shear #
lump $-1 $-1 $35 $5 #
transform $-1 1 0 0 0 1 0 0 0 1 59.251075777459029 35.654981752139633 8.4148890769317131 1 rotate no_reflect no_shear #
lump $-1 $-1 $36 $6 #
transform $-1 1 0 0 0 1 0 0 0 1 59.251075777459029 35.654981752139633 8.4148890769317131 1 rotate no_reflect no_shear #
lump $-1 $-1 $37 $7 #
transform $-1 1 0 0 0 1 0 0 0 1 59.251075777459029 35.654981752139633 8.4148890769317131 1 rotate no_reflect no_shear #
lump $-1 $-1 $38 $8 #
transform $-1 1 0 0 0 1 0 0 0 1 59.251075777459029 35.654981752139633 8.4148890769317131 1 rotate no_reflect no_shear #
lump $-1 $-1 $39 $9 #
transform $-1 1 0 0 0 1 0 0 0 1 59.251075777459029 35.654981752139633 8.4148890769317131 1 rotate no_reflect no_shear #
shell $-1 $-1 $-1 $40 $-1 $10 #
shell $-1 $-1 $-1 $41 $-1 $12 #
shell $-1 $-1 $-1 $42 $-1 $14 #
shell $-1 $-1 $-1 $43 $-1 $16 #
shell $-1 $-1 $-1 $44 $-1 $18 #
shell $-1 $-1 $-1 $45 $-1 $20 #
shell $-1 $-1 $-1 $46 $-1 $22 #
shell $-1 $-1 $-1 $47 $-1 $24 #
shell $-1 $-1 $-1 $48 $-1 $26 #
shell $-1 $-1 $-1 $49 $-1 $28 #
face $-1 $50 $51 $30 $-1 $52 forward single #
face $-1 $53 $54 $31 $-1 $55 forward single #
face $-1 $56 $57 $32 $-1 $58 reversed single #
face $-1 $59 $60 $33 $-1 $61 forward single #
face $-1 $62 $63 $34 $-1 $64 forward single #
face $-1 $65 $66 $35 $-1 $67 forward single #
face $-1 $68 $69 $36 $-1 $70 reversed single #
face $-1 $71 $72 $37 $-1 $73 forward single #
face $-1 $74 $75 $38 $-1 $76 forward single #
face $-1 $77 $78 $39 $-1 $79 forward single #
face $-1 $80 $81 $30 $-1 $82 reversed single #
loop $-1 $-1 $83 $40 #
plane-surface $-1 0 0 8.4148890769317131 0 0 1 1 0 0 forward_v I I I I #
face $-1 $84 $85 $31 $-1 $86 reversed single #
loop $-1 $-1 $87 $41 #
plane-surface $-1 -59.251075777459029 0 0 1 0 0 0 0 -1 forward_v I I I I #
face $-1 $88 $89 $32 $-1 $90 reversed single #
loop $-1 $-1 $91 $42 #
plane-surface $-1 -49.767518643835601 52.41917447209687 138.56828893586967 1 0 0 0 -0.61566148304635926 -0.78801074757464917 forward_v I I I I #
face $-1 $92 $93 $33 $-1 $94 forward single #
loop $-1 $95 $96 $43 #
cone-surface $-1 -44.669027037552439 28.705355132364499 1.7952530454405133 0 -0.61566148304635926 -0.78801074757464917 2.5 0 0 1 I I 0 1 2.5 forward I I I I #
face $-1 $97 $98 $34 $-1 $99 forward single #
loop $-1 $100 $101 $44 #
cone-surface $-1 -37.021289628127704 28.705355132364499 1.7952530454405133 0 -0.61566148304635926 -0.78801074757464917 2.5 0 0 1 I I 0 1 2.5 forward I I I I #
face $-1 $102 $103 $35 $-1 $104 forward single #
loop $-1 $105 $106 $45 #
cone-surface $-1 -29.373552218702962 28.705355132364499 1.7952530454405133 0 -0.61566148304635926 -0.78801074757464917 2.5 0 0 1 I I 0 1 2.5 forward I I I I #
face $-1 $107 $108 $36 $-1 $109 reversed single #
loop $-1 $-1 $110 $46 #
plane-surface $-1 -7.0441616628100761 -126.4328974304123 76.591294348829109 -1 0 0 0 -0.7660444514056185 0.64278759981090561 forward_v I I I I #
face $-1 $111 $112 $37 $-1 $113 forward single #
loop $-1 $114 $115 $47 #
cone-surface $-1 -31.853302975507486 -30.62800457756012 3.0138012759606845 0 0.7660444514056185 -0.64278759981090561 2 0 0 1 I I 0 1 2 forward I I I I #
face $-1 $116 $117 $38 $-1 $118 forward single #
loop $-1 $119 $120 $48 #
cone-surface $-1 -22.549874983245957 -30.62800457756012 3.0138012759606845 0 0.7660444514056185 -0.64278759981090561 2 0 0 1 I I 0 1 2 forward I I I I #
face $-1 $121 $122 $39 $-1 $123 forward single #
loop $-1 $124 $125 $49 #
cone-surface $-1 -13.246446990984431 -30.62800457756012 3.0138012759606845 0 0.7660444514056185 -0.64278759981090561 2 0 0 1 I I 0 1 2 forward I I I I #
face $-1 $126 $127 $30 $-1 $128 reversed single #
loop $-1 $-1 $129 $50 #
plane-surface $-1 0 0 -8.4148890769317131 0 0 1 1 0 0 forward_v I I I I #
coedge $-1 $130 $131 $132 $133 forward $51 $-1 #
face $-1 $134 $135 $31 $-1 $136 reversed single #
loop $-1 $-1 $137 $53 #
plane-surface $-1 0 0 -8.4148890769317131 0 0 1 1 0 0 forward_v I I I I #
coedge $-1 $138 $139 $140 $141 forward $54 $-1 #
face $-1 $142 $143 $32 $-1 $144 reversed single #
loop $-1 $-1 $145 $56 #
plane-surface $-1 -37.021289628127704 -20.538035898388415 45.187319899874325 0 0.61566148304635926 0.78801074757464917 1 0 0 forward_v I I I I #
coedge $-1 $146 $147 $148 $149 reversed $57 $-1 #
face $-1 $-1 $150 $33 $-1 $151 forward single #
loop $-1 $152 $153 $59 #
cone-surface $-1 -44.669027037552439 25.549378395695193 -2.2442128884771275 0 -0.61566148304635926 -0.78801074757464917 1.25 0 0 1 I I -0.70710678118654746 0.70710678118654746 1.25 forward I I I I #
loop $-1 $-1 $154 $43 #
coedge $-1 $96 $96 $155 $156 reversed $60 $-1 #
face $-1 $-1 $157 $34 $-1 $158 forward single #
loop $-1 $159 $160 $62 #
cone-surface $-1 -37.021289628127704 25.549378395695193 -2.2442128884771275 0 -0.61566148304635926 -0.78801074757464917 1.25 0 0 1 I I -0.70710678118654746 0.70710678118654746 1.25 forward I I I I #
loop $-1 $-1 $161 $44 #
coedge $-1 $101 $101 $162 $163 reversed $63 $-1 #
face $-1 $-1 $164 $35 $-1 $165 forward single #
loop $-1 $166 $167 $65 #
cone-surface $-1 -29.373552218702962 25.549378395695193 -2.2442128884771275 0 -0.61566148304635926 -0.78801074757464917 1.25 0 0 1 I I -0.70710678118654746 0.70710678118654746 1.25 forward I I I I #
loop $-1 $-1 $168 $45 #
coedge $-1 $106 $106 $169 $170 reversed $66 $-1 #
face $-1 $171 $172 $36 $-1 $173 reversed single #
loop $-1 $-1 $174 $68 #
plane-surface $-1 -22.549874983245957 -35.654981752139633 0.41958077841515262 0 -0.7660444514056185 0.64278759981090561 1 0 0 forward_v I I I I #
coedge $-1 $175 $176 $177 $178 reversed $69 $-1 #
face $-1 $-1 $179 $37 $-1 $180 forward single #
loop $-1 $181 $182 $71 #
cone-surface $-1 -31.853302975507486 -28.189412985968925 0.96758002443702473 0 0.7660444514056185 -0.64278759981090561 1 0 0 1 I I -0.70710678118654746 0.70710678118654746 1 forward I I I I #
loop $-1 $-1 $183 $47 #
coedge $-1 $115 $115 $184 $185 reversed $72 $-1 #
face $-1 $-1 $186 $38 $-1 $187 forward single #
loop $-1 $188 $189 $74 #
cone-surface $-1 -22.549874983245957 -28.189412985968925 0.96758002443702473 0 0.7660444514056185 -0.64278759981090561 1 0 0 1 I I -0.70710678118654746 0.70710678118654746 1 forward I I I I #
loop $-1 $-1 $190 $48 #
coedge $-1 $120 $120 $191 $192 reversed $75 $-1 #
face $-1 $-1 $193 $39 $-1 $194 forward single #
loop $-1 $195 $196 $77 #
cone-surface $-1 -13.246446990984431 -28.189412985968925 0.96758002443702473 0 0.7660444514056185 -0.64278759981090561 1 0 0 1 I I -0.70710678118654746 0.70710678118654746 1 forward I I I I #
loop $-1 $-1 $197 $49 #
coedge $-1 $125 $125 $198 $199 reversed $78 $-1 #
face $-1 $200 $201 $30 $-1 $202 reversed single #
loop $-1 $-1 $203 $80 #
plane-surface $-1 0 -35.654981752139633 0 0 1 0 0 0 1 forward_v I I I I #
coedge $-1 $204 $205 $206 $207 forward $81 $-1 #
coedge $-1 $208 $83 $209 $210 forward $51 $-1 #
coedge $-1 $83 $208 $211 $212 forward $51 $-1 #
coedge $-1 $213 $214 $83 $133 reversed $215 $-1 #
edge $-1 $216 -35.654981752139633 $217 35.654981752139633 $132 $218 forward 7 unknown #
face $-1 $219 $220 $31 $-1 $221 reversed single #
loop $-1 $-1 $222 $84 #
plane-surface $-1 -63.992854344270746 -25.692474121274657 0 0 1 0 0 0 1 forward_v I I I I #
coedge $-1 $223 $224 $139 $225 forward $85 $-1 #
coedge $-1 $226 $87 $227 $228 reversed $54 $-1 #
coedge $-1 $87 $226 $137 $225 reversed $54 $-1 #
coedge $-1 $229 $230 $87 $141 reversed $231 $-1 #
edge $-1 $232 -8.4148890769317131 $233 8.4148890769317131 $140 $234 forward 7 unknown #
face $-1 $235 $236 $32 $-1 $237 forward single #
loop $-1 $-1 $238 $88 #
plane-surface $-1 -24.275060612419804 52.41917447209687 138.56828893586967 -1 0 0 0 0.61566148304635926 0.78801074757464917 forward_v I I I I #
coedge $-1 $239 $240 $241 $242 reversed $89 $-1 #
coedge $-1 $147 $91 $243 $244 reversed $57 $-1 #
coedge $-1 $91 $146 $239 $245 reversed $57 $-1 #
coedge $-1 $241 $246 $91 $149 forward $236 $-1 #
edge $-1 $247 -9.4453945160911985 $248 -0.31894104226365982 $148 $249 forward 7 unknown #
loop $-1 $-1 $155 $92 #
plane-surface $-1 -37.021289628127704 -20.538035898388415 45.187319899874325 0 0.61566148304635926 0.78801074757464917 1 0 0 forward_v I I I I #
loop $-1 $-1 $250 $59 #
coedge $-1 $153 $153 $154 $251 reversed $93 $-1 #
coedge $-1 $154 $154 $153 $251 forward $95 $-1 #
coedge $-1 $155 $155 $96 $156 forward $150 $-1 #
edge $-1 $252 1.4013848138672729e-016 $252 6.2831853071796004 $155 $253 forward 7 unknown #
loop $-1 $-1 $162 $97 #
plane-surface $-1 -37.021289628127704 -20.538035898388415 45.187319899874325 0 0.61566148304635926 0.78801074757464917 1 0 0 forward_v I I I I #
loop $-1 $-1 $254 $62 #
coedge $-1 $160 $160 $161 $255 reversed $98 $-1 #
coedge $-1 $161 $161 $160 $255 forward $100 $-1 #
coedge $-1 $162 $162 $101 $163 forward $157 $-1 #
edge $-1 $256 1.4013848138672729e-016 $256 6.2831853071796004 $162 $257 forward 7 unknown #
loop $-1 $-1 $169 $102 #
plane-surface $-1 -37.021289628127704 -20.538035898388415 45.187319899874325 0 0.61566148304635926 0.78801074757464917 1 0 0 forward_v I I I I #
loop $-1 $-1 $258 $65 #
coedge $-1 $167 $167 $168 $259 reversed $103 $-1 #
coedge $-1 $168 $168 $167 $259 forward $105 $-1 #
coedge $-1 $169 $169 $106 $170 forward $164 $-1 #
edge $-1 $260 1.4013848138672729e-016 $260 6.2831853071796004 $169 $261 forward 7 unknown #
face $-1 $262 $263 $36 $-1 $264 forward single #
loop $-1 $-1 $265 $107 #
plane-surface $-1 -38.055588303681837 -126.4328974304123 76.591294348829109 1 0 0 0 0.7660444514056185 -0.64278759981090561 forward_v I I I I #
coedge $-1 $266 $267 $268 $269 reversed $108 $-1 #
coedge $-1 $176 $110 $270 $271 reversed $69 $-1 #
coedge $-1 $110 $175 $266 $272 reversed $69 $-1 #
coedge $-1 $268 $273 $110 $178 forward $263 $-1 #
edge $-1 $274 27.561466963066515 $275 34.2703270318544 $177 $276 forward 7 unknown #
loop $-1 $-1 $184 $111 #
plane-surface $-1 -22.549874983245957 -35.654981752139633 0.41958077841515262 0 -0.7660444514056185 0.64278759981090561 1 0 0 forward_v I I I I #
loop $-1 $-1 $277 $71 #
coedge $-1 $182 $182 $183 $278 reversed $112 $-1 #
coedge $-1 $183 $183 $182 $278 forward $114 $-1 #
coedge $-1 $184 $184 $115 $185 forward $179 $-1 #
edge $-1 $279 -2.4248784760307189e-016 $279 6.2831853071796004 $184 $280 forward 7 unknown #
loop $-1 $-1 $191 $116 #
plane-surface $-1 -22.549874983245957 -35.654981752139633 0.41958077841515262 0 -0.7660444514056185 0.64278759981090561 1 0 0 forward_v I I I I #
loop $-1 $-1 $281 $74 #
coedge $-1 $189 $189 $190 $282 reversed $117 $-1 #
coedge $-1 $190 $190 $189 $282 forward $119 $-1 #
coedge $-1 $191 $191 $120 $192 forward $186 $-1 #
edge $-1 $283 -2.4248784760307189e-016 $283 6.2831853071796004 $191 $284 forward 7 unknown #
loop $-1 $-1 $198 $121 #
plane-surface $-1 -22.549874983245957 -35.654981752139633 0.41958077841515262 0 -0.7660444514056185 0.64278759981090561 1 0 0 forward_v I I I I #
loop $-1 $-1 $285 $77 #
coedge $-1 $196 $196 $197 $286 reversed $122 $-1 #
coedge $-1 $197 $197 $196 $286 forward $124 $-1 #
coedge $-1 $198 $198 $125 $199 forward $193 $-1 #
edge $-1 $287 -2.4248784760307189e-016 $287 6.2831853071796004 $198 $288 forward 7 unknown #
face $-1 $289 $290 $30 $-1 $291 reversed single #
loop $-1 $-1 $292 $126 #
plane-surface $-1 -59.251075777459029 0 0 1 0 0 0 0 -1 forward_v I I I I #
coedge $-1 $293 $211 $294 $295 forward $127 $-1 #
coedge $-1 $296 $129 $293 $297 forward $81 $-1 #
coedge $-1 $129 $296 $298 $299 forward $81 $-1 #
coedge $-1 $214 $213 $129 $207 reversed $215 $-1 #
edge $-1 $300 -35.654981752139633 $301 35.654981752139633 $206 $302 forward 7 unknown #
coedge $-1 $131 $130 $303 $304 forward $51 $-1 #
coedge $-1 $305 $306 $130 $210 reversed $290 $-1 #
edge $-1 $217 -59.251075777459029 $307 59.251075777459029 $209 $308 forward 7 unknown #
coedge $-1 $203 $309 $131 $212 reversed $127 $-1 #
edge $-1 $310 -59.251075777459029 $216 59.251075777459029 $211 $311 forward 7 unknown #
coedge $-1 $206 $132 $309 $312 forward $215 $-1 #
coedge $-1 $132 $206 $305 $313 reversed $215 $-1 #
loop $-1 $-1 $213 $289 #
vertex $-1 $133 $314 #
vertex $-1 $133 $315 #
straight-curve $-1 59.251075777459029 0 8.4148890769317131 0 1 0 I I #
face $-1 $316 $231 $31 $-1 $317 reversed single #
loop $-1 $-1 $318 $134 #
plane-surface $-1 -68.734632911082457 -23.942648696197914 0 1 0 0 0 0 -1 forward_v I I I I #
coedge $-1 $319 $320 $321 $322 forward $135 $-1 #
coedge $-1 $323 $137 $319 $324 forward $85 $-1 #
coedge $-1 $137 $323 $229 $325 forward $85 $-1 #
edge $-1 $232 22.192823271121171 $326 25.692474121274657 $137 $327 forward 7 unknown #
coedge $-1 $139 $138 $328 $329 forward $54 $-1 #
coedge $-1 $330 $331 $138 $228 forward $332 $-1 #
edge $-1 $333 -25.692474121274657 $233 -22.192823271121171 $227 $334 forward 7 unknown #
coedge $-1 $335 $140 $224 $325 reversed $231 $-1 #
coedge $-1 $140 $335 $330 $336 reversed $231 $-1 #
loop $-1 $-1 $140 $219 #
vertex $-1 $225 $337 #
vertex $-1 $336 $338 #
straight-curve $-1 -59.251075777459029 -22.192823271121171 0 0 0 1 I I #
face $-1 $-1 $339 $32 $-1 $340 reversed single #
loop $-1 $-1 $148 $142 #
plane-surface $-1 0 0 8.4148890769317131 0 0 1 1 0 0 forward_v I I I I #
coedge $-1 $341 $342 $343 $344 reversed $143 $-1 #
coedge $-1 $345 $145 $147 $245 forward $89 $-1 #
coedge $-1 $145 $345 $341 $346 forward $89 $-1 #
coedge $-1 $343 $148 $145 $242 forward $236 $-1 #
edge $-1 $248 -31.256873829771749 $347 -5.7644157983559516 $241 $348 forward 7 unknown #
coedge $-1 $349 $350 $146 $244 forward $339 $-1 #
edge $-1 $351 -67.999622455086836 $247 -60.869255391003122 $243 $352 forward 7 unknown #
edge $-1 $248 59.728327718324472 $351 71.309963504279239 $147 $353 forward 7 unknown #
coedge $-1 $148 $343 $349 $354 forward $236 $-1 #
vertex $-1 $244 $355 #
vertex $-1 $149 $356 #
straight-curve $-1 -49.767518643835601 26.209587236048435 8.4148890769317148 0 -1 0 I I #
coedge $-1 $250 $250 $-1 $357 reversed $152 $-1 #
edge $-1 $358 0 $358 6.2831853071796004 $153 $359 forward 7 unknown #
vertex $-1 $156 $360 #
ellipse-curve $-1 -44.669027037552439 31.091755015225868 4.8497055448898578 0 0.61566148304635926 0.78801074757464917 2.5 0 0 1 I I #
coedge $-1 $254 $254 $-1 $361 reversed $159 $-1 #
edge $-1 $362 0 $362 6.2831853071796004 $160 $363 forward 7 unknown #
vertex $-1 $163 $364 #
ellipse-curve $-1 -37.021289628127704 31.091755015225868 4.8497055448898578 0 0.61566148304635926 0.78801074757464917 2.5 0 0 1 I I #
coedge $-1 $258 $258 $-1 $365 reversed $166 $-1 #
edge $-1 $366 0 $366 6.2831853071796004 $167 $367 forward 7 unknown #
vertex $-1 $170 $368 #
ellipse-curve $-1 -29.373552218702962 31.091755015225868 4.8497055448898578 0 0.61566148304635926 0.78801074757464917 2.5 0 0 1 I I #
face $-1 $-1 $369 $36 $-1 $370 reversed single #
loop $-1 $-1 $177 $171 #
plane-surface $-1 0 0 8.4148890769317131 0 0 1 1 0 0 forward_v I I I I #
coedge $-1 $371 $372 $373 $374 reversed $172 $-1 #
coedge $-1 $375 $174 $176 $272 forward $108 $-1 #
coedge $-1 $174 $375 $371 $376 forward $108 $-1 #
coedge $-1 $373 $177 $174 $269 forward $263 $-1 #
edge $-1 $275 -4.2307758288129023 $377 26.780650812058859 $268 $378 forward 7 unknown #
coedge $-1 $379 $380 $175 $271 forward $369 $-1 #
edge $-1 $381 -37.876066395999402 $274 -29.88075809748284 $270 $382 forward 7 unknown #
edge $-1 $275 -10.437133620439303 $381 0 $176 $383 forward 7 unknown #
coedge $-1 $177 $373 $379 $384 forward $263 $-1 #
vertex $-1 $178 $385 #
vertex $-1 $178 $386 #
straight-curve $-1 -7.0441616628100761 -63.216448715206148 8.4148890769317148 0 1 0 I I #
coedge $-1 $277 $277 $-1 $387 reversed $181 $-1 #
edge $-1 $388 0 $388 6.2831853071796004 $182 $389 forward 7 unknown #
vertex $-1 $185 $390 #
ellipse-curve $-1 -31.853302975507486 -32.300551717745691 4.4172349276734337 0 -0.7660444514056185 0.64278759981090561 2 0 0 1 I I #
coedge $-1 $281 $281 $-1 $391 reversed $188 $-1 #
edge $-1 $392 0 $392 6.2831853071796004 $189 $393 forward 7 unknown #
vertex $-1 $192 $394 #
ellipse-curve $-1 -22.549874983245957 -32.300551717745691 4.4172349276734337 0 -0.7660444514056185 0.64278759981090561 2 0 0 1 I I #
coedge $-1 $285 $285 $-1 $395 reversed $195 $-1 #
edge $-1 $396 0 $396 6.2831853071796004 $196 $397 forward 7 unknown #
vertex $-1 $199 $398 #
ellipse-curve $-1 -13.246446990984431 -32.300551717745691 4.4172349276734337 0 -0.7660444514056185 0.64278759981090561 2 0 0 1 I I #
face $-1 $-1 $215 $30 $-1 $399 reversed single #
loop $-1 $-1 $305 $200 #
plane-surface $-1 0 35.654981752139633 0 0 -1 0 0 0 -1 forward_v I I I I #
coedge $-1 $400 $303 $306 $401 forward $201 $-1 #
coedge $-1 $309 $203 $204 $297 reversed $127 $-1 #
coedge $-1 $303 $400 $203 $295 reversed $201 $-1 #
edge $-1 $310 -8.4148890769317131 $402 8.4148890769317131 $294 $403 forward 7 unknown #
coedge $-1 $205 $204 $400 $404 forward $81 $-1 #
edge $-1 $301 -59.251075777459029 $402 59.251075777459029 $293 $405 forward 7 unknown #
coedge $-1 $306 $305 $205 $299 reversed $290 $-1 #
edge $-1 $406 -59.251075777459029 $300 59.251075777459029 $298 $407 forward 7 unknown #
vertex $-1 $207 $408 #
vertex $-1 $312 $409 #
straight-curve $-1 59.251075777459029 0 -8.4148890769317131 0 -1 0 I I #
coedge $-1 $292 $294 $208 $304 reversed $201 $-1 #
edge $-1 $307 -35.654981752139633 $310 35.654981752139633 $303 $410 forward 7 unknown #
coedge $-1 $298 $209 $214 $313 forward $290 $-1 #
coedge $-1 $209 $298 $292 $401 reversed $290 $-1 #
vertex $-1 $210 $411 #
straight-curve $-1 0 35.654981752139633 8.4148890769317131 -1 0 0 I I #
coedge $-1 $211 $293 $213 $312 reversed $127 $-1 #
vertex $-1 $304 $412 #
straight-curve $-1 0 -35.654981752139633 8.4148890769317131 1 0 0 I I #
edge $-1 $216 -8.4148890769317131 $301 8.4148890769317131 $213 $413 forward 7 unknown #
edge $-1 $217 -8.4148890769317131 $300 8.4148890769317131 $214 $414 forward 7 unknown #
point $-1 59.251075777459029 -35.654981752139633 8.4148890769317131 #
point $-1 59.251075777459029 35.654981752139633 8.4148890769317131 #
face $-1 $-1 $332 $31 $-1 $415 forward single #
plane-surface $-1 -63.992854344270746 -22.192823271121171 0 0 -1 0 0 0 -1 forward_v I I I I #
coedge $-1 $416 $417 $335 $418 forward $220 $-1 #
coedge $-1 $328 $222 $223 $324 reversed $135 $-1 #
coedge $-1 $222 $328 $331 $419 reversed $135 $-1 #
coedge $-1 $417 $416 $222 $322 reversed $220 $-1 #
edge $-1 $420 -8.4148890769317131 $421 8.4148890769317131 $321 $422 forward 7 unknown #
coedge $-1 $224 $223 $416 $423 forward $85 $-1 #
edge $-1 $326 -4.7417785668117176 $421 4.7417785668117105 $319 $424 forward 7 unknown #
edge $-1 $425 -4.7417785668117105 $232 4.7417785668117176 $229 $426 forward 7 unknown #
vertex $-1 $324 $427 #
straight-curve $-1 -59.251075777459029 0 -8.4148890769317131 0 -1 0 I I #
coedge $-1 $320 $319 $226 $329 reversed $135 $-1 #
edge $-1 $333 -8.4148890769317131 $326 8.4148890769317131 $328 $428 forward 7 unknown #
coedge $-1 $429 $227 $230 $336 forward $332 $-1 #
coedge $-1 $227 $429 $320 $419 forward $332 $-1 #
loop $-1 $-1 $227 $316 #
vertex $-1 $228 $430 #
straight-curve $-1 -59.251075777459029 0 8.4148890769317131 0 1 0 I I #
coedge $-1 $230 $229 $318 $418 reversed $231 $-1 #
edge $-1 $233 -4.7417785668117176 $431 4.7417785668117105 $230 $432 forward 7 unknown #
point $-1 -59.251075777459029 -22.192823271121171 -8.4148890769317131 #
point $-1 -59.251075777459029 -22.192823271121171 8.4148890769317131 #
loop $-1 $-1 $243 $235 #
plane-surface $-1 0 35.654981752139633 0 0 -1 0 0 0 -1 forward_v I I I I #
coedge $-1 $342 $238 $240 $346 reversed $143 $-1 #
coedge $-1 $238 $341 $433 $434 reversed $143 $-1 #
coedge $-1 $246 $241 $238 $344 forward $236 $-1 #
edge $-1 $347 0.31894104226365982 $435 9.4453945160911985 $343 $436 forward 7 unknown #
coedge $-1 $240 $239 $350 $437 reversed $89 $-1 #
edge $-1 $438 -71.309963504279239 $347 -59.728327718324472 $341 $439 forward 7 unknown #
vertex $-1 $242 $440 #
straight-curve $-1 -18.510644814063852 26.528528278312091 8.4148890769317113 1 0 0 I I #
coedge $-1 $433 $243 $246 $354 reversed $339 $-1 #
coedge $-1 $243 $433 $345 $437 forward $339 $-1 #
vertex $-1 $244 $441 #
straight-curve $-1 -49.767518643835601 35.654981752139633 69.284144467934837 0 0 1 I I #
straight-curve $-1 -49.767518643835601 -20.538035898388415 45.187319899874325 0 0.78801074757464917 -0.61566148304635926 I I #
edge $-1 $435 24.275060612419804 $247 49.767518643835601 $349 $442 forward 7 unknown #
point $-1 -49.767518643835601 35.654981752139633 8.4148890769317131 #
point $-1 -49.767518643835601 26.528528278312095 8.4148890769317148 #
edge $-1 $443 1 $443 0 $250 $-1 forward 7 unknown #
vertex $-1 $251 $444 #
ellipse-curve $-1 -44.669027037552439 26.318955249503141 -1.2591994540088161 0 0.61566148304635926 0.78801074757464917 2.5 0 0 1 I I #
point $-1 -42.169027037552439 31.091755015225857 4.8497055448898436 #
edge $-1 $445 1 $445 0 $254 $-1 forward 7 unknown #
vertex $-1 $255 $446 #
ellipse-curve $-1 -37.021289628127704 26.318955249503141 -1.2591994540088161 0 0.61566148304635926 0.78801074757464917 2.5 0 0 1 I I #
point $-1 -34.521289628127704 31.091755015225857 4.8497055448898436 #
edge $-1 $447 1 $447 0 $258 $-1 forward 7 unknown #
vertex $-1 $259 $448 #
ellipse-curve $-1 -29.373552218702962 26.318955249503141 -1.2591994540088161 0 0.61566148304635926 0.78801074757464917 2.5 0 0 1 I I #
point $-1 -26.873552218702962 31.091755015225857 4.8497055448898436 #
loop $-1 $-1 $270 $262 #
plane-surface $-1 0 -35.654981752139633 0 0 1 0 0 0 1 forward_v I I I I #
coedge $-1 $372 $265 $267 $376 reversed $172 $-1 #
coedge $-1 $265 $371 $449 $450 reversed $172 $-1 #
coedge $-1 $273 $268 $265 $374 forward $263 $-1 #
edge $-1 $377 -34.2703270318544 $451 -27.561466963066515 $373 $452 forward 7 unknown #
coedge $-1 $267 $266 $380 $453 reversed $108 $-1 #
edge $-1 $454 0 $377 10.437133620439303 $371 $455 forward 7 unknown #
vertex $-1 $269 $456 #
straight-curve $-1 -11.274937491622978 -28.946121683351748 8.4148890769317131 -1 0 0 I I #
coedge $-1 $449 $270 $273 $384 reversed $369 $-1 #
coedge $-1 $270 $449 $375 $453 forward $369 $-1 #
vertex $-1 $271 $457 #
straight-curve $-1 -7.0441616628100761 -35.654981752139633 38.295647174414555 0 0 1 I I #
straight-curve $-1 -7.0441616628100761 -35.654981752139633 0.41958077841515262 0 -0.64278759981090561 -0.7660444514056185 I I #
edge $-1 $451 -38.055588303681837 $274 -7.0441616628100761 $379 $458 forward 7 unknown #
point $-1 -7.0441616628100761 -35.654981752139633 8.4148890769317131 #
point $-1 -7.0441616628100761 -28.946121683351748 8.4148890769317148 #
edge $-1 $459 1 $459 0 $277 $-1 forward 7 unknown #
vertex $-1 $278 $460 #
ellipse-curve $-1 -31.853302975507486 -28.955457437374545 1.6103676242479303 0 -0.7660444514056185 0.64278759981090561 2 0 0 1 I I #
point $-1 -29.853302975507486 -32.300551717745698 4.4172349276734391 #
edge $-1 $461 1 $461 0 $281 $-1 forward 7 unknown #
vertex $-1 $282 $462 #
ellipse-curve $-1 -22.549874983245957 -28.955457437374545 1.6103676242479303 0 -0.7660444514056185 0.64278759981090561 2 0 0 1 I I #
point $-1 -20.549874983245957 -32.300551717745698 4.4172349276734391 #
edge $-1 $463 1 $463 0 $285 $-1 forward 7 unknown #
vertex $-1 $286 $464 #
ellipse-curve $-1 -13.246446990984431 -28.955457437374545 1.6103676242479303 0 -0.7660444514056185 0.64278759981090561 2 0 0 1 I I #
point $-1 -11.246446990984431 -32.300551717745698 4.4172349276734391 #
plane-surface $-1 59.251075777459029 0 0 -1 0 0 0 0 1 forward_v I I I I #
coedge $-1 $294 $292 $296 $404 reversed $201 $-1 #
edge $-1 $307 -8.4148890769317131 $406 8.4148890769317131 $306 $465 forward 7 unknown #
vertex $-1 $404 $466 #
straight-curve $-1 -59.251075777459029 -35.654981752139633 0 0 0 -1 I I #
edge $-1 $402 -35.654981752139633 $406 35.654981752139633 $400 $467 forward 7 unknown #
straight-curve $-1 0 -35.654981752139633 -8.4148890769317131 -1 0 0 I I #
vertex $-1 $299 $468 #
straight-curve $-1 0 35.654981752139633 -8.4148890769317131 1 0 0 I I #
point $-1 59.251075777459029 35.654981752139633 -8.4148890769317131 #
point $-1 59.251075777459029 -35.654981752139633 -8.4148890769317131 #
straight-curve $-1 -59.251075777459029 0 8.4148890769317131 0 -1 0 I I #
point $-1 -59.251075777459029 35.654981752139633 8.4148890769317131 #
point $-1 -59.251075777459029 -35.654981752139633 8.4148890769317131 #
straight-curve $-1 59.251075777459029 -35.654981752139633 0 0 0 -1 I I #
straight-curve $-1 59.251075777459029 35.654981752139633 0 0 0 -1 I I #
plane-surface $-1 0 0 8.4148890769317131 0 0 1 1 0 0 forward_v I I I I #
coedge $-1 $321 $318 $323 $423 reversed $220 $-1 #
coedge $-1 $318 $321 $429 $469 reversed $220 $-1 #
edge $-1 $431 -8.4148890769317131 $425 8.4148890769317131 $335 $470 forward 7 unknown #
edge $-1 $420 -4.7417785668117105 $333 4.7417785668117176 $320 $471 forward 7 unknown #
vertex $-1 $469 $472 #
vertex $-1 $423 $473 #
straight-curve $-1 -68.734632911082457 -25.692474121274657 0 0 0 -1 I I #
edge $-1 $421 -1.7498254250767431 $425 1.7498254250767431 $416 $474 forward 7 unknown #
straight-curve $-1 -63.992854344270746 -25.692474121274657 -8.4148890769317131 -1 0 0 I I #
vertex $-1 $325 $475 #
straight-curve $-1 -63.992854344270746 -22.192823271121171 -8.4148890769317131 1 0 0 I I #
point $-1 -59.251075777459029 -25.692474121274657 -8.4148890769317131 #
straight-curve $-1 -59.251075777459029 -25.692474121274657 0 0 0 -1 I I #
coedge $-1 $331 $330 $417 $469 forward $332 $-1 #
point $-1 -59.251075777459029 -25.692474121274657 8.4148890769317131 #
vertex $-1 $336 $476 #
straight-curve $-1 -63.992854344270746 -22.192823271121171 8.4148890769317131 -1 0 0 I I #
coedge $-1 $350 $349 $342 $434 forward $339 $-1 #
edge $-1 $435 60.869255391003122 $438 67.999622455086836 $433 $477 forward 7 unknown #
vertex $-1 $354 $478 #
straight-curve $-1 -24.275060612419804 26.209587236048435 8.4148890769317148 0 1 0 I I #
edge $-1 $438 5.7644157983559516 $351 31.256873829771749 $350 $479 forward 7 unknown #
vertex $-1 $437 $480 #
straight-curve $-1 -24.275060612419804 -20.538035898388415 45.187319899874325 0 -0.78801074757464917 0.61566148304635926 I I #
point $-1 -24.275060612419804 26.528528278312095 8.4148890769317148 #
point $-1 -49.767518643835601 35.654981752139626 1.2845220128480079 #
straight-curve $-1 0 35.654981752139633 8.4148890769317131 -1 0 0 I I #
vertex $-1 $357 $481 #
point $-1 -42.169027037552439 26.318955249503141 -1.2591994540088161 #
vertex $-1 $361 $482 #
point $-1 -34.521289628127704 26.318955249503141 -1.2591994540088161 #
vertex $-1 $365 $483 #
point $-1 -26.873552218702962 26.318955249503141 -1.2591994540088161 #
coedge $-1 $380 $379 $372 $450 forward $369 $-1 #
edge $-1 $451 29.88075809748284 $454 37.876066395999402 $449 $484 forward 7 unknown #
vertex $-1 $384 $485 #
straight-curve $-1 -38.055588303681837 -63.216448715206148 8.4148890769317148 0 -1 0 I I #
edge $-1 $454 -26.780650812058859 $381 4.2307758288129023 $380 $486 forward 7 unknown #
vertex $-1 $453 $487 #
straight-curve $-1 -38.055588303681837 -35.654981752139633 0.41958077841515262 0 0.64278759981090561 0.7660444514056185 I I #
point $-1 -38.055588303681837 -28.946121683351748 8.4148890769317148 #
point $-1 -7.0441616628100761 -35.654981752139633 0.41958077841515262 #
straight-curve $-1 0 -35.654981752139633 8.4148890769317131 1 0 0 I I #
vertex $-1 $387 $488 #
point $-1 -29.853302975507486 -28.955457437374545 1.6103676242479303 #
vertex $-1 $391 $489 #
point $-1 -20.549874983245957 -28.955457437374545 1.6103676242479303 #
vertex $-1 $395 $490 #
point $-1 -11.246446990984431 -28.955457437374545 1.6103676242479303 #
straight-curve $-1 -59.251075777459029 35.654981752139633 0 0 0 -1 I I #
point $-1 -59.251075777459029 -35.654981752139633 -8.4148890769317131 #
straight-curve $-1 -59.251075777459029 0 -8.4148890769317131 0 1 0 I I #
point $-1 -59.251075777459029 35.654981752139633 -8.4148890769317131 #
edge $-1 $431 -1.7498254250767431 $420 1.7498254250767431 $417 $491 forward 7 unknown #
straight-curve $-1 -68.734632911082457 -22.192823271121171 0 0 0 -1 I I #
straight-curve $-1 -63.992854344270746 -25.692474121274657 8.4148890769317131 1 0 0 I I #
point $-1 -68.734632911082457 -25.692474121274657 8.4148890769317131 #
point $-1 -68.734632911082457 -25.692474121274657 -8.4148890769317131 #
straight-curve $-1 -68.734632911082457 -23.942648696197914 -8.4148890769317131 0 1 0 I I #
point $-1 -68.734632911082457 -22.192823271121171 -8.4148890769317131 #
point $-1 -68.734632911082457 -22.192823271121171 8.4148890769317131 #
straight-curve $-1 -24.275060612419804 35.654981752139633 69.284144467934837 0 0 -1 I I #
point $-1 -24.275060612419804 35.654981752139633 8.4148890769317131 #
straight-curve $-1 -18.510644814063852 35.654981752139633 1.2845220128480008 -1 0 0 I I #
point $-1 -24.275060612419804 35.654981752139626 1.2845220128480079 #
point $-1 -44.669027037552439 24.779801541887245 -3.229226322945439 #
point $-1 -37.021289628127704 24.779801541887245 -3.229226322945439 #
point $-1 -29.373552218702962 24.779801541887245 -3.229226322945439 #
straight-curve $-1 -38.055588303681837 -35.654981752139633 38.295647174414555 0 0 -1 I I #
point $-1 -38.055588303681837 -35.654981752139633 8.4148890769317131 #
straight-curve $-1 -11.274937491622978 -35.654981752139633 0.41958077841515418 1 0 0 I I #
point $-1 -38.055588303681837 -35.654981752139633 0.41958077841515262 #
point $-1 -31.853302975507486 -27.423368534563306 0.32479242462611913 #
point $-1 -22.549874983245957 -27.423368534563306 0.32479242462611913 #
point $-1 -13.246446990984431 -27.423368534563306 0.32479242462611913 #
straight-curve $-1 -68.734632911082457 -23.942648696197914 8.4148890769317131 0 -1 0 I I #
End-of-ACIS-data 