500 0 10 0           
7 Unknown 11 ACIS 5.0 NT 24 Fri Mar 26 02:37:25 1999 
-1 9.9999999999999995e-007 1e-010 
body $-1 $10 $-1 $11 #
body $-1 $12 $-1 $13 #
body $-1 $14 $-1 $15 #
body $-1 $16 $-1 $17 #
body $-1 $18 $-1 $19 #
body $-1 $20 $-1 $21 #
body $-1 $22 $-1 $23 #
body $-1 $24 $-1 $25 #
body $-1 $26 $-1 $27 #
body $-1 $28 $-1 $29 #
lump $-1 $-1 $30 $0 #
transform $-1 1 0 0 0 1 0 0 0 1 59.258400219733268 38.090526356030949 15.353852110674055 1 rotate no_reflect no_shear #
lump $-1 $-1 $31 $1 #
transform $-1 1 0 0 0 1 0 0 0 1 59.258400219733268 38.090526356030949 15.353852110674055 1 rotate no_reflect no_shear #
lump $-1 $-1 $32 $2 #
transform $-1 1 0 0 0 1 0 0 0 1 59.258400219733268 38.090526356030949 15.353852110674055 1 rotate no_reflect no_shear #
lump $-1 $-1 $33 $3 #
transform $-1 1 0 0 0 1 0 0 0 1 59.258400219733268 38.090526356030949 15.353852110674055 1 rotate no_reflect no_shear #
lump $-1 $-1 $34 $4 #
transform $-1 1 0 0 0 1 0 0 0 1 59.258400219733268 38.090526356030949 15.353852110674055 1 rotate no_reflect no_shear #
lump $-1 $-1 $35 $5 #
transform $-1 1 0 0 0 1 0 0 0 1 59.258400219733268 38.090526356030949 15.353852110674055 1 rotate no_reflect no_shear #
lump $-1 $-1 $36 $6 #
transform $-1 1 0 0 0 1 0 0 0 1 59.258400219733268 38.090526356030949 15.353852110674055 1 rotate no_reflect no_shear #
lump $-1 $-1 $37 $7 #
transform $-1 1 0 0 0 1 0 0 0 1 59.258400219733268 38.090526356030949 15.353852110674055 1 rotate no_reflect no_shear #
lump $-1 $-1 $38 $8 #
transform $-1 1 0 0 0 1 0 0 0 1 59.258400219733268 38.090526356030949 15.353852110674055 1 rotate no_reflect no_shear #
lump $-1 $-1 $39 $9 #
transform $-1 1 0 0 0 1 0 0 0 1 59.258400219733268 38.090526356030949 15.353852110674055 1 rotate no_reflect no_shear #
shell $-1 $-1 $-1 $40 $-1 $10 #
shell $-1 $-1 $-1 $41 $-1 $12 #
shell $-1 $-1 $-1 $42 $-1 $14 #
shell $-1 $-1 $-1 $43 $-1 $16 #
shell $-1 $-1 $-1 $44 $-1 $18 #
shell $-1 $-1 $-1 $45 $-1 $20 #
shell $-1 $-1 $-1 $46 $-1 $22 #
shell $-1 $-1 $-1 $47 $-1 $24 #
shell $-1 $-1 $-1 $48 $-1 $26 #
shell $-1 $-1 $-1 $49 $-1 $28 #
face $-1 $50 $51 $30 $-1 $52 forward single #
face $-1 $53 $54 $31 $-1 $55 forward single #
face $-1 $56 $57 $32 $-1 $58 reversed single #
face $-1 $59 $60 $33 $-1 $61 forward single #
face $-1 $62 $63 $34 $-1 $64 reversed single #
face $-1 $65 $66 $35 $-1 $67 forward single #
face $-1 $68 $69 $36 $-1 $70 forward single #
face $-1 $71 $72 $37 $-1 $73 reversed single #
face $-1 $74 $75 $38 $-1 $76 forward single #
face $-1 $77 $78 $39 $-1 $79 forward single #
face $-1 $80 $81 $30 $-1 $82 reversed single #
loop $-1 $-1 $83 $40 #
plane-surface $-1 0 0 15.353852110674055 0 0 1 1 0 0 forward_v I I I I #
face $-1 $84 $85 $31 $-1 $86 reversed single #
loop $-1 $-1 $87 $41 #
plane-surface $-1 0 -31.770012648402705 -10.65505886761191 0 0 1 1 0 0 forward_v I I I I #
face $-1 $88 $89 $32 $-1 $90 reversed single #
loop $-1 $-1 $91 $42 #
plane-surface $-1 50.486473595327176 -9.2178701146106494 171.26206050950105 0 -1 0 -0.66913061440640931 0 -0.74314481823134659 forward_v I I I I #
face $-1 $92 $93 $33 $-1 $94 forward single #
loop $-1 $95 $96 $43 #
cone-surface $-1 52.01144001563766 -17.333684527692554 8.6441996392965752 -0.66913061440640931 0 -0.74314481823134659 1.1147172273470198 0 -1.003695921609614 1 I I 0 1 1.5 forward I I I I #
face $-1 $97 $98 $34 $-1 $99 reversed single #
loop $-1 $-1 $100 $44 #
plane-surface $-1 -153.91012656255481 -9.1961699768814213 81.211815394321533 0 1 0 -0.79863551827123203 0 0.60181501223851219 forward_v I I I I #
face $-1 $101 $102 $35 $-1 $103 forward single #
loop $-1 $104 $105 $45 #
cone-surface $-1 -56.654453727753477 -5.4085452155770142 12.210289499303007 0.79863551827123203 0 -0.60181501223851219 0.60181501223851219 0 0.79863551827123203 1 I I 0 1 1 forward I I I I #
face $-1 $106 $107 $36 $-1 $108 forward single #
loop $-1 $109 $110 $46 #
cone-surface $-1 -56.654453727753477 0.27289192637960014 12.210289499303007 0.79863551827123203 0 -0.60181501223851219 0.60181501223851219 0 0.79863551827123203 1 I I 0 1 1 forward I I I I #
face $-1 $111 $112 $37 $-1 $113 reversed single #
loop $-1 $-1 $114 $47 #
plane-surface $-1 -153.91012656255481 8.5805107275724737 81.211815394321533 0 1 0 -0.79863551827123203 0 0.60181501223851219 forward_v I I I I #
face $-1 $115 $116 $38 $-1 $117 forward single #
loop $-1 $118 $119 $48 #
cone-surface $-1 -56.654453727753477 12.368135488876881 12.210289499303007 0.79863551827123203 0 -0.60181501223851219 0.60181501223851219 0 0.79863551827123203 1 I I 0 1 1 forward I I I I #
face $-1 $120 $121 $39 $-1 $122 forward single #
loop $-1 $123 $124 $49 #
cone-surface $-1 -56.654453727753477 18.049572630833495 12.210289499303007 0.79863551827123203 0 -0.60181501223851219 0.60181501223851219 0 0.79863551827123203 1 I I 0 1 1 forward I I I I #
face $-1 $125 $126 $30 $-1 $127 reversed single #
loop $-1 $-1 $128 $50 #
plane-surface $-1 0 0 -15.353852110674055 0 0 1 1 0 0 forward_v I I I I #
coedge $-1 $129 $130 $131 $132 forward $51 $-1 #
face $-1 $133 $134 $31 $-1 $135 reversed single #
loop $-1 $-1 $136 $53 #
plane-surface $-1 0 -25.449498940774461 -13.004455489142982 0 -1 0 0 0 -1 forward_v I I I I #
coedge $-1 $137 $138 $139 $140 reversed $54 $-1 #
face $-1 $141 $142 $32 $-1 $143 reversed single #
loop $-1 $-1 $144 $56 #
plane-surface $-1 -28.816745900214862 -17.333684527692554 83.186914389552911 0.66913061440640931 0 0.74314481823134659 0.74314481823134659 0 -0.66913061440640931 forward_v I I I I #
coedge $-1 $145 $146 $147 $148 reversed $57 $-1 #
face $-1 $-1 $149 $33 $-1 $150 forward single #
loop $-1 $151 $152 $59 #
cone-surface $-1 50.632081787969504 -17.333684527692554 7.1122671625772043 -0.66913061440640931 0 -0.74314481823134659 0.55735861367350992 0 -0.50184796080480698 1 I I -0.70710678118654757 0.70710678118654757 0.75 forward I I I I #
loop $-1 $-1 $153 $43 #
coedge $-1 $96 $96 $154 $155 reversed $60 $-1 #
face $-1 $156 $157 $34 $-1 $158 reversed single #
loop $-1 $-1 $159 $62 #
plane-surface $-1 -59.258400219733275 -2.5678266445987035 9.886625687374675 -0.79863551827123203 0 0.60181501223851219 0.60181501223851219 0 0.79863551827123203 forward_v I I I I #
coedge $-1 $160 $161 $162 $163 reversed $63 $-1 #
face $-1 $-1 $164 $35 $-1 $165 forward single #
loop $-1 $166 $167 $65 #
cone-surface $-1 -55.711114725123707 -5.4085452155770142 11.499432593462394 0.79863551827123203 0 -0.60181501223851219 0.3009075061192561 0 0.39931775913561601 1 I I -0.70710678118654746 0.70710678118654746 0.5 forward I I I I #
loop $-1 $-1 $168 $45 #
coedge $-1 $105 $105 $169 $170 reversed $66 $-1 #
face $-1 $-1 $171 $36 $-1 $172 forward single #
loop $-1 $173 $174 $68 #
cone-surface $-1 -55.711114725123707 0.27289192637960014 11.499432593462394 0.79863551827123203 0 -0.60181501223851219 0.3009075061192561 0 0.39931775913561601 1 I I -0.70710678118654746 0.70710678118654746 0.5 forward I I I I #
loop $-1 $-1 $175 $46 #
coedge $-1 $110 $110 $176 $177 reversed $69 $-1 #
face $-1 $178 $179 $37 $-1 $180 reversed single #
loop $-1 $-1 $181 $71 #
plane-surface $-1 -59.258400219733275 15.208854059855192 9.886625687374675 -0.79863551827123203 0 0.60181501223851219 0.60181501223851219 0 0.79863551827123203 forward_v I I I I #
coedge $-1 $182 $183 $184 $185 reversed $72 $-1 #
face $-1 $-1 $186 $38 $-1 $187 forward single #
loop $-1 $188 $189 $74 #
cone-surface $-1 -55.711114725123707 12.368135488876881 11.499432593462394 0.79863551827123203 0 -0.60181501223851219 0.3009075061192561 0 0.39931775913561601 1 I I -0.70710678118654746 0.70710678118654746 0.5 forward I I I I #
loop $-1 $-1 $190 $48 #
coedge $-1 $119 $119 $191 $192 reversed $75 $-1 #
face $-1 $-1 $193 $39 $-1 $194 forward single #
loop $-1 $195 $196 $77 #
cone-surface $-1 -55.711114725123707 18.049572630833495 11.499432593462394 0.79863551827123203 0 -0.60181501223851219 0.3009075061192561 0 0.39931775913561601 1 I I -0.70710678118654746 0.70710678118654746 0.5 forward I I I I #
loop $-1 $-1 $197 $49 #
coedge $-1 $124 $124 $198 $199 reversed $78 $-1 #
face $-1 $200 $201 $30 $-1 $202 reversed single #
loop $-1 $-1 $203 $80 #
plane-surface $-1 0 -38.090526356030949 0 0 1 0 0 0 1 forward_v I I I I #
coedge $-1 $204 $205 $206 $207 forward $81 $-1 #
coedge $-1 $208 $83 $209 $210 forward $51 $-1 #
coedge $-1 $83 $208 $211 $212 forward $51 $-1 #
coedge $-1 $213 $214 $83 $132 reversed $215 $-1 #
edge $-1 $216 -38.090526356030949 $217 38.090526356030949 $131 $218 forward 7 unknown #
face $-1 $219 $220 $31 $-1 $221 reversed single #
loop $-1 $-1 $222 $84 #
plane-surface $-1 0 0 -15.353852110674055 0 0 1 1 0 0 forward_v I I I I #
coedge $-1 $223 $224 $225 $226 reversed $85 $-1 #
coedge $-1 $227 $87 $224 $228 forward $54 $-1 #
coedge $-1 $87 $227 $229 $230 reversed $54 $-1 #
coedge $-1 $231 $225 $87 $140 forward $220 $-1 #
edge $-1 $232 9.5644926165731086 $233 22.205520031829597 $139 $234 forward 7 unknown #
face $-1 $235 $236 $32 $-1 $237 reversed single #
loop $-1 $-1 $238 $88 #
plane-surface $-1 50.486473595327176 -25.449498940774461 171.26206050950105 0 1 0 0.66913061440640931 0 0.74314481823134659 forward_v I I I I #
coedge $-1 $239 $240 $241 $242 reversed $89 $-1 #
coedge $-1 $146 $91 $243 $244 reversed $57 $-1 #
coedge $-1 $91 $145 $239 $245 reversed $57 $-1 #
coedge $-1 $241 $246 $91 $148 forward $247 $-1 #
edge $-1 $248 -34.015163422069676 $249 -21.276263547605229 $147 $250 forward 7 unknown #
loop $-1 $-1 $154 $92 #
plane-surface $-1 -28.816745900214862 -17.333684527692554 83.186914389552911 0.66913061440640931 0 0.74314481823134659 0.74314481823134659 0 -0.66913061440640931 forward_v I I I I #
loop $-1 $-1 $251 $59 #
coedge $-1 $152 $152 $153 $252 reversed $93 $-1 #
coedge $-1 $153 $153 $152 $252 forward $95 $-1 #
coedge $-1 $154 $154 $96 $155 forward $149 $-1 #
edge $-1 $253 0 $253 6.2831853071796004 $154 $254 forward 7 unknown #
face $-1 $255 $256 $34 $-1 $257 forward single #
loop $-1 $-1 $258 $97 #
plane-surface $-1 -153.91012656255481 4.0605166876840144 81.211815394321533 0 -1 0 0.79863551827123203 0 -0.60181501223851219 forward_v I I I I #
coedge $-1 $259 $260 $261 $262 reversed $98 $-1 #
coedge $-1 $161 $100 $263 $264 reversed $63 $-1 #
coedge $-1 $100 $160 $259 $265 reversed $63 $-1 #
coedge $-1 $261 $266 $100 $163 forward $256 $-1 #
edge $-1 $267 17.696663061544136 $268 21.816513558515389 $162 $269 forward 7 unknown #
loop $-1 $-1 $169 $101 #
plane-surface $-1 -59.258400219733275 -2.5678266445987035 9.886625687374675 -0.79863551827123203 0 0.60181501223851219 0.60181501223851219 0 0.79863551827123203 forward_v I I I I #
loop $-1 $-1 $270 $65 #
coedge $-1 $167 $167 $168 $271 reversed $102 $-1 #
coedge $-1 $168 $168 $167 $271 forward $104 $-1 #
coedge $-1 $169 $169 $105 $170 forward $164 $-1 #
edge $-1 $272 0 $272 6.2831853071796004 $169 $273 forward 7 unknown #
loop $-1 $-1 $176 $106 #
plane-surface $-1 -59.258400219733275 -2.5678266445987035 9.886625687374675 -0.79863551827123203 0 0.60181501223851219 0.60181501223851219 0 0.79863551827123203 forward_v I I I I #
loop $-1 $-1 $274 $68 #
coedge $-1 $174 $174 $175 $275 reversed $107 $-1 #
coedge $-1 $175 $175 $174 $275 forward $109 $-1 #
coedge $-1 $176 $176 $110 $177 forward $171 $-1 #
edge $-1 $276 0 $276 6.2831853071796004 $176 $277 forward 7 unknown #
face $-1 $278 $279 $37 $-1 $280 forward single #
loop $-1 $-1 $281 $111 #
plane-surface $-1 -153.91012656255481 21.837197392137909 81.211815394321533 0 -1 0 0.79863551827123203 0 -0.60181501223851219 forward_v I I I I #
coedge $-1 $282 $283 $284 $285 reversed $112 $-1 #
coedge $-1 $183 $114 $286 $287 reversed $72 $-1 #
coedge $-1 $114 $182 $282 $288 reversed $72 $-1 #
coedge $-1 $284 $289 $114 $185 forward $279 $-1 #
edge $-1 $290 17.696663061544136 $291 21.816513558515389 $184 $292 forward 7 unknown #
loop $-1 $-1 $191 $115 #
plane-surface $-1 -59.258400219733275 15.208854059855192 9.886625687374675 -0.79863551827123203 0 0.60181501223851219 0.60181501223851219 0 0.79863551827123203 forward_v I I I I #
loop $-1 $-1 $293 $74 #
coedge $-1 $189 $189 $190 $294 reversed $116 $-1 #
coedge $-1 $190 $190 $189 $294 forward $118 $-1 #
coedge $-1 $191 $191 $119 $192 forward $186 $-1 #
edge $-1 $295 0 $295 6.2831853071796004 $191 $296 forward 7 unknown #
loop $-1 $-1 $198 $120 #
plane-surface $-1 -59.258400219733275 15.208854059855192 9.886625687374675 -0.79863551827123203 0 0.60181501223851219 0.60181501223851219 0 0.79863551827123203 forward_v I I I I #
loop $-1 $-1 $297 $77 #
coedge $-1 $196 $196 $197 $298 reversed $121 $-1 #
coedge $-1 $197 $197 $196 $298 forward $123 $-1 #
coedge $-1 $198 $198 $124 $199 forward $193 $-1 #
edge $-1 $299 0 $299 6.2831853071796004 $198 $300 forward 7 unknown #
face $-1 $301 $302 $30 $-1 $303 reversed single #
loop $-1 $-1 $304 $125 #
plane-surface $-1 -59.258400219733268 0 0 1 0 0 0 0 -1 forward_v I I I I #
coedge $-1 $305 $211 $306 $307 forward $126 $-1 #
coedge $-1 $308 $128 $305 $309 forward $81 $-1 #
coedge $-1 $128 $308 $310 $311 forward $81 $-1 #
coedge $-1 $214 $213 $128 $207 reversed $215 $-1 #
edge $-1 $312 -38.090526356030949 $313 38.090526356030949 $206 $314 forward 7 unknown #
coedge $-1 $130 $129 $315 $316 forward $51 $-1 #
coedge $-1 $317 $318 $129 $210 reversed $302 $-1 #
edge $-1 $217 -59.258400219733268 $319 59.258400219733268 $209 $320 forward 7 unknown #
coedge $-1 $203 $321 $130 $212 reversed $126 $-1 #
edge $-1 $322 -59.258400219733268 $216 59.258400219733268 $211 $323 forward 7 unknown #
coedge $-1 $206 $131 $321 $324 forward $215 $-1 #
coedge $-1 $131 $206 $317 $325 reversed $215 $-1 #
loop $-1 $-1 $213 $301 #
vertex $-1 $132 $326 #
vertex $-1 $132 $327 #
straight-curve $-1 59.258400219733268 0 15.353852110674055 0 1 0 I I #
face $-1 $328 $329 $31 $-1 $330 reversed single #
loop $-1 $-1 $225 $133 #
plane-surface $-1 59.258400219733268 0 0 -1 0 0 0 0 1 forward_v I I I I #
coedge $-1 $331 $332 $223 $333 forward $134 $-1 #
coedge $-1 $334 $136 $222 $333 reversed $85 $-1 #
coedge $-1 $136 $334 $137 $228 reversed $85 $-1 #
coedge $-1 $139 $335 $136 $226 forward $220 $-1 #
edge $-1 $336 -8.8516243661025626 $232 -4.1528311230404187 $225 $337 forward 7 unknown #
coedge $-1 $138 $137 $338 $339 reversed $54 $-1 #
edge $-1 $232 -59.258400219733268 $340 59.258400219733268 $224 $341 forward 7 unknown #
coedge $-1 $342 $343 $138 $230 forward $329 $-1 #
edge $-1 $233 -59.258400219733268 $344 59.258400219733268 $229 $345 forward 7 unknown #
coedge $-1 $335 $139 $343 $346 forward $220 $-1 #
vertex $-1 $140 $347 #
vertex $-1 $346 $348 #
straight-curve $-1 59.258400219733268 -15.885006324201353 -10.65505886761191 0 -1 0 I I #
face $-1 $-1 $247 $32 $-1 $349 forward single #
loop $-1 $-1 $350 $141 #
plane-surface $-1 59.258400219733268 0 0 -1 0 0 0 0 1 forward_v I I I I #
coedge $-1 $351 $352 $353 $354 reversed $142 $-1 #
coedge $-1 $355 $144 $146 $245 forward $89 $-1 #
coedge $-1 $144 $355 $351 $356 forward $89 $-1 #
coedge $-1 $353 $147 $144 $242 forward $247 $-1 #
edge $-1 $249 0.55102785076437222 $357 16.782656676928184 $241 $358 forward 7 unknown #
coedge $-1 $359 $360 $145 $244 forward $236 $-1 #
edge $-1 $361 -81.747335360739655 $248 -70.277178144076473 $243 $362 forward 7 unknown #
edge $-1 $249 101.37491966206638 $361 118.51680043946652 $146 $363 forward 7 unknown #
coedge $-1 $147 $353 $359 $364 forward $247 $-1 #
loop $-1 $-1 $353 $235 #
vertex $-1 $244 $365 #
vertex $-1 $148 $366 #
straight-curve $-1 25.243236797663588 -9.2178701146106494 15.353852110674055 -1 0 0 I I #
coedge $-1 $251 $251 $-1 $367 reversed $151 $-1 #
edge $-1 $368 0 $368 6.2831853071796004 $152 $369 forward 7 unknown #
vertex $-1 $155 $370 #
ellipse-curve $-1 52.888950282501042 -17.333684527692554 9.6187735023424725 0.66913061440640931 0 0.74314481823134659 1.1147172273470198 0 -1.003695921609614 1 I I #
face $-1 $-1 $371 $34 $-1 $372 reversed single #
loop $-1 $-1 $162 $156 #
plane-surface $-1 0 0 15.353852110674055 0 0 1 1 0 0 forward_v I I I I #
coedge $-1 $373 $374 $375 $376 reversed $157 $-1 #
coedge $-1 $377 $159 $161 $265 forward $98 $-1 #
coedge $-1 $159 $377 $373 $378 forward $98 $-1 #
coedge $-1 $375 $162 $159 $262 forward $256 $-1 #
edge $-1 $268 -7.9122566545820696 $379 5.3444300099833661 $261 $380 forward 7 unknown #
coedge $-1 $381 $382 $160 $264 forward $371 $-1 #
edge $-1 $383 -30.719282009786085 $267 -25.252055586486712 $263 $384 forward 7 unknown #
edge $-1 $268 -6.845709085333473 $383 -1.1369461177519839e-014 $161 $385 forward 7 unknown #
coedge $-1 $162 $375 $381 $386 forward $256 $-1 #
vertex $-1 $264 $387 #
vertex $-1 $163 $388 #
straight-curve $-1 -76.955063281277404 -9.1961699768814213 15.353852110674055 1 0 0 I I #
coedge $-1 $270 $270 $-1 $389 reversed $166 $-1 #
edge $-1 $390 0 $390 6.2831853071796004 $167 $391 forward 7 unknown #
vertex $-1 $170 $392 #
ellipse-curve $-1 -57.198474971247641 -5.4085452155770142 12.62023889902437 -0.79863551827123203 0 0.60181501223851219 0.60181501223851219 0 0.79863551827123203 1 I I #
coedge $-1 $274 $274 $-1 $393 reversed $173 $-1 #
edge $-1 $394 0 $394 6.2831853071796004 $174 $395 forward 7 unknown #
vertex $-1 $177 $396 #
ellipse-curve $-1 -57.198474971247641 0.27289192637960014 12.62023889902437 -0.79863551827123203 0 0.60181501223851219 0.60181501223851219 0 0.79863551827123203 1 I I #
face $-1 $-1 $397 $37 $-1 $398 reversed single #
loop $-1 $-1 $184 $178 #
plane-surface $-1 0 0 15.353852110674055 0 0 1 1 0 0 forward_v I I I I #
coedge $-1 $399 $400 $401 $402 reversed $179 $-1 #
coedge $-1 $403 $181 $183 $288 forward $112 $-1 #
coedge $-1 $181 $403 $399 $404 forward $112 $-1 #
coedge $-1 $401 $184 $181 $285 forward $279 $-1 #
edge $-1 $291 0.9760836976448779 $405 14.232770362210314 $284 $406 forward 7 unknown #
coedge $-1 $407 $408 $182 $287 forward $397 $-1 #
edge $-1 $409 -30.719282009786085 $290 -25.252055586486712 $286 $410 forward 7 unknown #
edge $-1 $291 -6.845709085333473 $409 -1.1369461177519839e-014 $183 $411 forward 7 unknown #
coedge $-1 $184 $401 $407 $412 forward $279 $-1 #
vertex $-1 $185 $413 #
vertex $-1 $185 $414 #
straight-curve $-1 -76.955063281277404 8.5805107275724737 15.353852110674055 1 0 0 I I #
coedge $-1 $293 $293 $-1 $415 reversed $188 $-1 #
edge $-1 $416 0 $416 6.2831853071796004 $189 $417 forward 7 unknown #
vertex $-1 $192 $418 #
ellipse-curve $-1 -57.198474971247641 12.368135488876881 12.62023889902437 -0.79863551827123203 0 0.60181501223851219 0.60181501223851219 0 0.79863551827123203 1 I I #
coedge $-1 $297 $297 $-1 $419 reversed $195 $-1 #
edge $-1 $420 0 $420 6.2831853071796004 $196 $421 forward 7 unknown #
vertex $-1 $199 $422 #
ellipse-curve $-1 -57.198474971247641 18.049572630833495 12.62023889902437 -0.79863551827123203 0 0.60181501223851219 0.60181501223851219 0 0.79863551827123203 1 I I #
face $-1 $-1 $215 $30 $-1 $423 reversed single #
loop $-1 $-1 $317 $200 #
plane-surface $-1 0 38.090526356030949 0 0 -1 0 0 0 -1 forward_v I I I I #
coedge $-1 $424 $315 $318 $425 forward $201 $-1 #
coedge $-1 $321 $203 $204 $309 reversed $126 $-1 #
coedge $-1 $315 $424 $203 $307 reversed $201 $-1 #
edge $-1 $322 -15.353852110674055 $426 15.353852110674055 $306 $427 forward 7 unknown #
coedge $-1 $205 $204 $424 $428 forward $81 $-1 #
edge $-1 $313 -59.258400219733268 $426 59.258400219733268 $305 $429 forward 7 unknown #
coedge $-1 $318 $317 $205 $311 reversed $302 $-1 #
edge $-1 $430 -59.258400219733268 $312 59.258400219733268 $310 $431 forward 7 unknown #
vertex $-1 $207 $432 #
vertex $-1 $324 $433 #
straight-curve $-1 59.258400219733268 0 -15.353852110674055 0 -1 0 I I #
coedge $-1 $304 $306 $208 $316 reversed $201 $-1 #
edge $-1 $319 -38.090526356030949 $322 38.090526356030949 $315 $434 forward 7 unknown #
coedge $-1 $310 $209 $214 $325 forward $302 $-1 #
coedge $-1 $209 $310 $304 $425 reversed $302 $-1 #
vertex $-1 $210 $435 #
straight-curve $-1 0 38.090526356030949 15.353852110674055 -1 0 0 I I #
coedge $-1 $211 $305 $213 $324 reversed $126 $-1 #
vertex $-1 $316 $436 #
straight-curve $-1 0 -38.090526356030949 15.353852110674055 1 0 0 I I #
edge $-1 $216 -15.353852110674055 $313 15.353852110674055 $213 $437 forward 7 unknown #
edge $-1 $217 -15.353852110674055 $312 15.353852110674055 $214 $438 forward 7 unknown #
point $-1 59.258400219733268 -38.090526356030949 15.353852110674055 #
point $-1 59.258400219733268 38.090526356030949 15.353852110674055 #
face $-1 $-1 $439 $31 $-1 $440 reversed single #
loop $-1 $-1 $229 $219 #
plane-surface $-1 0 -38.090526356030949 0 0 1 0 0 0 1 forward_v I I I I #
coedge $-1 $441 $222 $335 $442 forward $134 $-1 #
coedge $-1 $222 $441 $443 $444 forward $134 $-1 #
edge $-1 $445 -59.258400219733268 $336 59.258400219733268 $222 $446 forward 7 unknown #
coedge $-1 $224 $223 $447 $448 reversed $85 $-1 #
coedge $-1 $225 $231 $331 $442 reversed $220 $-1 #
vertex $-1 $442 $449 #
straight-curve $-1 59.258400219733268 -25.449498940774461 -6.5022277445714911 0 0 1 I I #
coedge $-1 $447 $450 $227 $339 forward $439 $-1 #
edge $-1 $344 -22.205520031829597 $340 -9.5644926165731086 $338 $451 forward 7 unknown #
vertex $-1 $339 $452 #
straight-curve $-1 0 -25.449498940774461 -10.65505886761191 -1 0 0 I I #
coedge $-1 $453 $229 $450 $454 forward $329 $-1 #
coedge $-1 $229 $453 $231 $346 reversed $329 $-1 #
vertex $-1 $454 $455 #
straight-curve $-1 0 -38.090526356030949 -10.65505886761191 -1 0 0 I I #
edge $-1 $233 10.65505886761191 $456 15.353852110674055 $231 $457 forward 7 unknown #
point $-1 59.258400219733268 -25.449498940774461 -10.65505886761191 #
point $-1 59.258400219733268 -38.090526356030949 -10.65505886761191 #
plane-surface $-1 0 0 15.353852110674055 0 0 1 1 0 0 forward_v I I I I #
coedge $-1 $360 $359 $352 $458 forward $236 $-1 #
coedge $-1 $352 $238 $240 $356 reversed $142 $-1 #
coedge $-1 $238 $351 $350 $458 reversed $142 $-1 #
coedge $-1 $246 $241 $238 $354 forward $247 $-1 #
edge $-1 $357 21.276263547605229 $459 34.015163422069676 $353 $460 forward 7 unknown #
coedge $-1 $240 $239 $360 $461 reversed $89 $-1 #
edge $-1 $462 -118.51680043946652 $357 -101.37491966206638 $351 $463 forward 7 unknown #
vertex $-1 $242 $464 #
straight-curve $-1 46.519500345268817 -8.6668422638462772 15.353852110674048 0 -1 0 I I #
coedge $-1 $350 $243 $246 $364 reversed $236 $-1 #
coedge $-1 $243 $350 $355 $461 forward $236 $-1 #
vertex $-1 $244 $465 #
straight-curve $-1 59.258400219733268 -9.2178701146106494 85.631030254750527 0 0 1 I I #
straight-curve $-1 -28.816745900214862 -9.2178701146106494 83.186914389552911 0.74314481823134659 0 -0.66913061440640931 I I #
edge $-1 $459 -25.449498940774461 $248 -9.2178701146106494 $359 $466 forward 7 unknown #
point $-1 59.258400219733268 -9.2178701146106494 15.353852110674055 #
point $-1 46.519500345268817 -9.2178701146106494 15.353852110674055 #
edge $-1 $467 1 $467 0 $251 $-1 forward 7 unknown #
vertex $-1 $252 $468 #
ellipse-curve $-1 51.133929748774314 -17.333684527692554 7.6696257762507143 0.66913061440640931 0 0.74314481823134659 1.1147172273470198 0 -1.003695921609614 1 I I #
point $-1 54.003667509848029 -17.333684527692554 8.615077580732823 #
loop $-1 $-1 $263 $255 #
plane-surface $-1 -59.258400219733268 0 0 1 0 0 0 0 -1 forward_v I I I I #
coedge $-1 $374 $258 $260 $378 reversed $157 $-1 #
coedge $-1 $258 $373 $469 $470 reversed $157 $-1 #
coedge $-1 $266 $261 $258 $376 forward $256 $-1 #
edge $-1 $379 -21.816513558515389 $471 -17.696663061544136 $375 $472 forward 7 unknown #
coedge $-1 $260 $259 $382 $473 reversed $98 $-1 #
edge $-1 $474 1.1369461177519839e-014 $379 6.845709085333473 $373 $475 forward 7 unknown #
vertex $-1 $262 $476 #
straight-curve $-1 -55.138549722762022 -1.2839133222993517 15.353852110674056 0 1 0 I I #
coedge $-1 $469 $263 $266 $386 reversed $371 $-1 #
coedge $-1 $263 $469 $377 $473 forward $371 $-1 #
vertex $-1 $264 $477 #
straight-curve $-1 -59.258400219733268 -9.1961699768814213 40.605907697160767 0 0 1 I I #
straight-curve $-1 -59.258400219733275 -9.1961699768814213 9.886625687374675 -0.60181501223851219 0 -0.79863551827123203 I I #
edge $-1 $471 -4.0605166876840144 $267 9.1961699768814213 $381 $478 forward 7 unknown #
point $-1 -59.258400219733268 -9.1961699768814213 15.353852110674055 #
point $-1 -55.138549722762015 -9.1961699768814213 15.353852110674055 #
edge $-1 $479 1 $479 0 $270 $-1 forward 7 unknown #
vertex $-1 $271 $480 #
ellipse-curve $-1 -56.11043248425932 -5.4085452155770142 11.80034009958165 -0.79863551827123203 0 0.60181501223851219 0.60181501223851219 0 0.79863551827123203 1 I I #
point $-1 -56.596659959009123 -5.4085452155770142 13.418874417295596 #
edge $-1 $481 1 $481 0 $274 $-1 forward 7 unknown #
vertex $-1 $275 $482 #
ellipse-curve $-1 -56.11043248425932 0.27289192637960014 11.80034009958165 -0.79863551827123203 0 0.60181501223851219 0.60181501223851219 0 0.79863551827123203 1 I I #
point $-1 -56.596659959009123 0.27289192637960014 13.418874417295596 #
loop $-1 $-1 $286 $278 #
plane-surface $-1 -59.258400219733268 0 0 1 0 0 0 0 -1 forward_v I I I I #
coedge $-1 $400 $281 $283 $404 reversed $179 $-1 #
coedge $-1 $281 $399 $483 $484 reversed $179 $-1 #
coedge $-1 $289 $284 $281 $402 forward $279 $-1 #
edge $-1 $405 -21.816513558515389 $485 -17.696663061544136 $401 $486 forward 7 unknown #
coedge $-1 $283 $282 $408 $487 reversed $112 $-1 #
edge $-1 $488 1.1369461177519839e-014 $405 6.845709085333473 $399 $489 forward 7 unknown #
vertex $-1 $285 $490 #
straight-curve $-1 -55.138549722762022 7.6044270299275958 15.353852110674056 0 1 0 I I #
coedge $-1 $483 $286 $289 $412 reversed $397 $-1 #
coedge $-1 $286 $483 $403 $487 forward $397 $-1 #
vertex $-1 $287 $491 #
straight-curve $-1 -59.258400219733268 8.5805107275724737 40.605907697160767 0 0 1 I I #
straight-curve $-1 -59.258400219733275 8.5805107275724737 9.886625687374675 -0.60181501223851219 0 -0.79863551827123203 I I #
edge $-1 $485 -21.837197392137909 $290 -8.5805107275724737 $407 $492 forward 7 unknown #
point $-1 -59.258400219733268 8.5805107275724737 15.353852110674055 #
point $-1 -55.138549722762015 8.5805107275724737 15.353852110674055 #
edge $-1 $493 1 $493 0 $293 $-1 forward 7 unknown #
vertex $-1 $294 $494 #
ellipse-curve $-1 -56.11043248425932 12.368135488876881 11.80034009958165 -0.79863551827123203 0 0.60181501223851219 0.60181501223851219 0 0.79863551827123203 1 I I #
point $-1 -56.596659959009123 12.368135488876881 13.418874417295596 #
edge $-1 $495 1 $495 0 $297 $-1 forward 7 unknown #
vertex $-1 $298 $496 #
ellipse-curve $-1 -56.11043248425932 18.049572630833495 11.80034009958165 -0.79863551827123203 0 0.60181501223851219 0.60181501223851219 0 0.79863551827123203 1 I I #
point $-1 -56.596659959009123 18.049572630833495 13.418874417295596 #
plane-surface $-1 59.258400219733268 0 0 -1 0 0 0 0 1 forward_v I I I I #
coedge $-1 $306 $304 $308 $428 reversed $201 $-1 #
edge $-1 $319 -15.353852110674055 $430 15.353852110674055 $318 $497 forward 7 unknown #
vertex $-1 $428 $498 #
straight-curve $-1 -59.258400219733268 -38.090526356030949 0 0 0 -1 I I #
edge $-1 $426 -38.090526356030949 $430 38.090526356030949 $424 $499 forward 7 unknown #
straight-curve $-1 0 -38.090526356030949 -15.353852110674055 -1 0 0 I I #
vertex $-1 $311 $500 #
straight-curve $-1 0 38.090526356030949 -15.353852110674055 1 0 0 I I #
point $-1 59.258400219733268 38.090526356030949 -15.353852110674055 #
point $-1 59.258400219733268 -38.090526356030949 -15.353852110674055 #
straight-curve $-1 -59.258400219733268 0 15.353852110674055 0 -1 0 I I #
point $-1 -59.258400219733268 38.090526356030949 15.353852110674055 #
point $-1 -59.258400219733268 -38.090526356030949 15.353852110674055 #
straight-curve $-1 59.258400219733268 -38.090526356030949 0 0 0 -1 I I #
straight-curve $-1 59.258400219733268 38.090526356030949 0 0 0 -1 I I #
loop $-1 $-1 $447 $328 #
plane-surface $-1 -59.258400219733268 0 0 1 0 0 0 0 -1 forward_v I I I I #
coedge $-1 $332 $331 $453 $501 forward $134 $-1 #
edge $-1 $336 25.449498940774461 $456 38.090526356030949 $335 $502 forward 7 unknown #
coedge $-1 $450 $447 $332 $444 reversed $439 $-1 #
edge $-1 $503 -38.090526356030949 $445 -25.449498940774461 $443 $504 forward 7 unknown #
vertex $-1 $448 $505 #
straight-curve $-1 0 -25.449498940774461 -15.353852110674055 1 0 0 I I #
coedge $-1 $443 $338 $334 $448 forward $439 $-1 #
edge $-1 $340 4.1528311230404187 $445 8.8516243661025626 $447 $506 forward 7 unknown #
point $-1 59.258400219733268 -25.449498940774461 -15.353852110674055 #
coedge $-1 $338 $443 $342 $454 reversed $439 $-1 #
straight-curve $-1 -59.258400219733268 -15.885006324201353 -10.65505886761191 0 1 0 I I #
point $-1 -59.258400219733268 -25.449498940774461 -10.65505886761191 #
coedge $-1 $343 $342 $441 $501 reversed $329 $-1 #
edge $-1 $344 10.65505886761191 $503 15.353852110674055 $450 $507 forward 7 unknown #
point $-1 -59.258400219733268 -38.090526356030949 -10.65505886761191 #
vertex $-1 $346 $508 #
straight-curve $-1 59.258400219733268 -38.090526356030949 0 0 0 -1 I I #
edge $-1 $459 70.277178144076473 $462 81.747335360739655 $350 $509 forward 7 unknown #
vertex $-1 $364 $510 #
straight-curve $-1 25.243236797663588 -25.449498940774461 15.353852110674055 1 0 0 I I #
edge $-1 $462 -16.782656676928184 $361 -0.55102785076437222 $360 $511 forward 7 unknown #
vertex $-1 $461 $512 #
straight-curve $-1 -28.816745900214862 -25.449498940774461 83.186914389552911 -0.74314481823134659 0 0.66913061440640931 I I #
point $-1 46.519500345268817 -25.449498940774461 15.353852110674055 #
point $-1 59.258400219733268 -9.2178701146106494 3.8836948940108726 #
straight-curve $-1 59.258400219733268 0 15.353852110674055 0 1 0 I I #
vertex $-1 $367 $513 #
point $-1 52.248646976121329 -17.333684527692554 6.6659298546411003 #
coedge $-1 $382 $381 $374 $470 forward $371 $-1 #
edge $-1 $471 25.252055586486712 $474 30.719282009786085 $469 $514 forward 7 unknown #
vertex $-1 $386 $515 #
straight-curve $-1 -76.955063281277404 4.0605166876840144 15.353852110674055 -1 0 0 I I #
edge $-1 $474 -5.3444300099833661 $383 7.9122566545820696 $382 $516 forward 7 unknown #
vertex $-1 $473 $517 #
straight-curve $-1 -59.258400219733275 4.0605166876840144 9.886625687374675 0.60181501223851219 0 0.79863551827123203 I I #
point $-1 -55.138549722762015 4.0605166876840144 15.353852110674055 #
point $-1 -59.258400219733268 -9.1961699768814213 9.8866256873746838 #
straight-curve $-1 -59.258400219733268 0 15.353852110674055 0 -1 0 I I #
vertex $-1 $389 $518 #
point $-1 -55.508617472020809 -5.4085452155770142 12.598975617852883 #
vertex $-1 $393 $519 #
point $-1 -55.508617472020809 0.27289192637960014 12.598975617852883 #
coedge $-1 $408 $407 $400 $484 forward $397 $-1 #
edge $-1 $485 25.252055586486712 $488 30.719282009786085 $483 $520 forward 7 unknown #
vertex $-1 $412 $521 #
straight-curve $-1 -76.955063281277404 21.837197392137909 15.353852110674055 -1 0 0 I I #
edge $-1 $488 -14.232770362210314 $409 -0.9760836976448779 $408 $522 forward 7 unknown #
vertex $-1 $487 $523 #
straight-curve $-1 -59.258400219733275 21.837197392137909 9.886625687374675 0.60181501223851219 0 0.79863551827123203 I I #
point $-1 -55.138549722762015 21.837197392137909 15.353852110674055 #
point $-1 -59.258400219733268 8.5805107275724737 9.8866256873746838 #
straight-curve $-1 -59.258400219733268 0 15.353852110674055 0 -1 0 I I #
vertex $-1 $415 $524 #
point $-1 -55.508617472020809 12.368135488876881 12.598975617852883 #
vertex $-1 $419 $525 #
point $-1 -55.508617472020809 18.049572630833495 12.598975617852883 #
straight-curve $-1 -59.258400219733268 38.090526356030949 0 0 0 -1 I I #
point $-1 -59.258400219733268 -38.090526356030949 -15.353852110674055 #
straight-curve $-1 -59.258400219733268 0 -15.353852110674055 0 1 0 I I #
point $-1 -59.258400219733268 38.090526356030949 -15.353852110674055 #
edge $-1 $456 -59.258400219733268 $503 59.258400219733268 $453 $526 forward 7 unknown #
straight-curve $-1 59.258400219733268 0 -15.353852110674055 0 -1 0 I I #
vertex $-1 $444 $527 #
straight-curve $-1 -59.258400219733268 0 -15.353852110674055 0 1 0 I I #
point $-1 -59.258400219733268 -25.449498940774461 -15.353852110674055 #
straight-curve $-1 -59.258400219733268 -25.449498940774461 -6.5022277445714911 0 0 -1 I I #
straight-curve $-1 -59.258400219733268 -38.090526356030949 0 0 0 -1 I I #
point $-1 59.258400219733268 -38.090526356030949 -15.353852110674055 #
straight-curve $-1 59.258400219733268 -25.449498940774461 85.631030254750527 0 0 -1 I I #
point $-1 59.258400219733268 -25.449498940774461 15.353852110674055 #
straight-curve $-1 59.258400219733261 -8.6668422638462772 3.8836948940108726 0 1 0 I I #
point $-1 59.258400219733268 -25.449498940774461 3.8836948940108726 #
point $-1 50.130233827164695 -17.333684527692554 6.5549085489036942 #
straight-curve $-1 -59.258400219733268 4.0605166876840144 40.605907697160767 0 0 -1 I I #
point $-1 -59.258400219733268 4.0605166876840144 15.353852110674055 #
straight-curve $-1 -59.258400219733268 -1.2839133222993517 9.8866256873746927 0 -1 0 I I #
point $-1 -59.258400219733268 4.0605166876840144 9.8866256873746838 #
point $-1 -55.311796965988094 -5.4085452155770142 11.198525087343139 #
point $-1 -55.311796965988094 0.27289192637960014 11.198525087343139 #
straight-curve $-1 -59.258400219733268 21.837197392137909 40.605907697160767 0 0 -1 I I #
point $-1 -59.258400219733268 21.837197392137909 15.353852110674055 #
straight-curve $-1 -59.258400219733268 7.6044270299275958 9.8866256873746927 0 -1 0 I I #
point $-1 -59.258400219733268 21.837197392137909 9.8866256873746838 #
point $-1 -55.311796965988094 12.368135488876881 11.198525087343139 #
point $-1 -55.311796965988094 18.049572630833495 11.198525087343139 #
straight-curve $-1 0 -38.090526356030949 -15.353852110674055 -1 0 0 I I #
point $-1 -59.258400219733268 -38.090526356030949 -15.353852110674055 #
End-of-ACIS-data 