500 0 7 0           
7 Unknown 11 ACIS 5.0 NT 24 Fri Mar 26 17:22:53 1999 
-1 9.9999999999999995e-007 1e-010 
body $-1 $7 $-1 $8 #
body $-1 $9 $-1 $10 #
body $-1 $11 $-1 $12 #
body $-1 $13 $-1 $14 #
body $-1 $15 $-1 $16 #
body $-1 $17 $-1 $18 #
body $-1 $19 $-1 $20 #
lump $-1 $-1 $21 $0 #
transform $-1 1 0 0 0 1 0 0 0 1 67.21884823145237 34.936692245422208 15.834796936358634 1 rotate no_reflect no_shear #
lump $-1 $-1 $22 $1 #
transform $-1 1 0 0 0 1 0 0 0 1 67.21884823145237 34.936692245422208 15.834796936358634 1 rotate no_reflect no_shear #
lump $-1 $-1 $23 $2 #
transform $-1 1 0 0 0 1 0 0 0 1 67.21884823145237 34.936692245422208 15.834796936358634 1 rotate no_reflect no_shear #
lump $-1 $-1 $24 $3 #
transform $-1 1 0 0 0 1 0 0 0 1 67.21884823145237 34.936692245422208 15.834796936358634 1 rotate no_reflect no_shear #
lump $-1 $-1 $25 $4 #
transform $-1 1 0 0 0 1 0 0 0 1 67.21884823145237 34.936692245422208 15.834796936358634 1 rotate no_reflect no_shear #
lump $-1 $-1 $26 $5 #
transform $-1 1 0 0 0 1 0 0 0 1 67.21884823145237 34.936692245422208 15.834796936358634 1 rotate no_reflect no_shear #
lump $-1 $-1 $27 $6 #
transform $-1 1 0 0 0 1 0 0 0 1 67.21884823145237 34.936692245422208 15.834796936358634 1 rotate no_reflect no_shear #
shell $-1 $-1 $-1 $28 $-1 $7 #
shell $-1 $-1 $-1 $29 $-1 $9 #
shell $-1 $-1 $-1 $30 $-1 $11 #
shell $-1 $-1 $-1 $31 $-1 $13 #
shell $-1 $-1 $-1 $32 $-1 $15 #
shell $-1 $-1 $-1 $33 $-1 $17 #
shell $-1 $-1 $-1 $34 $-1 $19 #
face $-1 $35 $36 $21 $-1 $37 forward single #
face $-1 $38 $39 $22 $-1 $40 forward single #
face $-1 $41 $42 $23 $-1 $43 reversed single #
face $-1 $44 $45 $24 $-1 $46 forward single #
face $-1 $47 $48 $25 $-1 $49 reversed single #
face $-1 $50 $51 $26 $-1 $52 forward single #
face $-1 $53 $54 $27 $-1 $55 forward single #
face $-1 $56 $57 $21 $-1 $58 reversed single #
loop $-1 $-1 $59 $28 #
plane-surface $-1 0 0 15.834796936358634 0 0 1 1 0 0 forward_v I I I I #
face $-1 $60 $61 $22 $-1 $62 forward single #
loop $-1 $-1 $63 $29 #
plane-surface $-1 0 -34.936692245422208 0 0 1 0 0 0 1 forward_v I I I I #
face $-1 $64 $65 $23 $-1 $66 reversed single #
loop $-1 $-1 $67 $30 #
plane-surface $-1 -138.45997436694145 -7.7480770806604298 122.62779052932103 0 1 0 -0.52991927123019833 0 0.84804809178421925 forward_v I I I I #
face $-1 $68 $69 $24 $-1 $70 forward single #
loop $-1 $71 $72 $31 #
cone-surface $-1 -60.398901582992501 -3.4884562653946531 10.553441691534342 0.52991927123019833 0 -0.84804809178421925 0.84804809178421925 0 0.52991927123019833 1 I I 0 1 1 forward I I I I #
face $-1 $73 $74 $25 $-1 $75 reversed single #
loop $-1 $-1 $76 $32 #
plane-surface $-1 116.42646320414244 21.352778396685537 187.00725925107432 0 1 0 0.86602541151947299 0 0.49999998660252726 forward_v I I I I #
face $-1 $77 $78 $26 $-1 $79 forward single #
loop $-1 $80 $81 $33 #
cone-surface $-1 62.423832265955433 25.233896639181729 8.908777955402476 -0.86602541151947299 0 -0.49999998660252726 0.74999997990379086 0 -1.2990381172792094 1 I I 0 1 1.5 forward I I I I #
face $-1 $82 $83 $27 $-1 $84 forward single #
loop $-1 $85 $86 $34 #
cone-surface $-1 62.423832265955433 31.055574002926008 8.908777955402476 -0.86602541151947299 0 -0.49999998660252726 0.74999997990379086 0 -1.2990381172792094 1 I I 0 1 1.5 forward I I I I #
face $-1 $87 $88 $21 $-1 $89 reversed single #
loop $-1 $-1 $90 $35 #
plane-surface $-1 0 0 -15.834796936358634 0 0 1 1 0 0 forward_v I I I I #
coedge $-1 $91 $92 $93 $94 forward $36 $-1 #
face $-1 $95 $96 $22 $-1 $97 reversed single #
loop $-1 $-1 $98 $38 #
plane-surface $-1 0 0 15.834796936358634 0 0 1 1 0 0 forward_v I I I I #
coedge $-1 $99 $100 $101 $102 forward $39 $-1 #
face $-1 $103 $104 $23 $-1 $105 reversed single #
loop $-1 $-1 $106 $41 #
plane-surface $-1 -67.218848231452355 -3.4884562653946567 8.6181585800885898 -0.52991927123019833 0 0.84804809178421925 0.84804809178421925 0 0.52991927123019833 forward_v I I I I #
coedge $-1 $107 $108 $109 $110 reversed $42 $-1 #
face $-1 $-1 $111 $24 $-1 $112 forward single #
loop $-1 $113 $114 $44 #
cone-surface $-1 -59.088512965470798 -3.4884562653946531 8.4563815789529624 0.52991927123019833 0 -0.84804809178421925 0.42402404589210962 0 0.26495963561509916 1 I I -0.70710678118654746 0.70710678118654746 0.5 forward I I I I #
loop $-1 $-1 $115 $31 #
coedge $-1 $72 $72 $116 $117 reversed $45 $-1 #
face $-1 $118 $119 $25 $-1 $120 reversed single #
loop $-1 $-1 $121 $47 #
plane-surface $-1 1.8011253644090175e-006 28.144735321053872 119.78841282074733 0.86602541151947299 0 0.49999998660252726 0.49999998660252726 0 -0.86602541151947299 forward_v I I I I #
coedge $-1 $122 $123 $124 $125 reversed $48 $-1 #
face $-1 $-1 $126 $26 $-1 $127 forward single #
loop $-1 $128 $129 $50 #
cone-surface $-1 60.579897472052053 25.233896639181729 7.8441817438086421 -0.86602541151947299 0 -0.49999998660252726 0.37499998995189543 0 -0.64951905863960469 1 I I -0.70710678118654757 0.70710678118654757 0.75 forward I I I I #
loop $-1 $-1 $130 $33 #
coedge $-1 $81 $81 $131 $132 reversed $51 $-1 #
face $-1 $-1 $133 $27 $-1 $134 forward single #
loop $-1 $135 $136 $53 #
cone-surface $-1 60.579897472052053 31.055574002926008 7.8441817438086421 -0.86602541151947299 0 -0.49999998660252726 0.37499998995189543 0 -0.64951905863960469 1 I I -0.70710678118654757 0.70710678118654757 0.75 forward I I I I #
loop $-1 $-1 $137 $34 #
coedge $-1 $86 $86 $138 $139 reversed $54 $-1 #
face $-1 $140 $141 $21 $-1 $142 reversed single #
loop $-1 $-1 $143 $56 #
plane-surface $-1 0 -34.936692245422208 0 0 1 0 0 0 1 forward_v I I I I #
coedge $-1 $144 $145 $146 $147 forward $57 $-1 #
coedge $-1 $148 $59 $149 $150 forward $36 $-1 #
coedge $-1 $59 $148 $151 $152 forward $36 $-1 #
coedge $-1 $153 $154 $59 $94 reversed $155 $-1 #
edge $-1 $156 -34.936692245422208 $157 34.936692245422208 $93 $158 forward 7 unknown #
face $-1 $159 $160 $22 $-1 $161 reversed single #
loop $-1 $-1 $162 $60 #
plane-surface $-1 -67.21884823145237 0 0 1 0 0 0 0 -1 forward_v I I I I #
coedge $-1 $163 $164 $165 $166 forward $61 $-1 #
coedge $-1 $165 $63 $162 $167 reversed $39 $-1 #
coedge $-1 $63 $165 $168 $169 reversed $39 $-1 #
coedge $-1 $170 $171 $63 $102 reversed $160 $-1 #
edge $-1 $172 -67.21884823145237 $173 67.21884823145237 $101 $174 forward 7 unknown #
face $-1 $175 $176 $23 $-1 $177 forward single #
loop $-1 $-1 $178 $64 #
plane-surface $-1 -138.45997436694145 0.77116454987111638 122.62779052932103 0 -1 0 0.52991927123019833 0 -0.84804809178421925 forward_v I I I I #
coedge $-1 $179 $180 $181 $182 reversed $65 $-1 #
coedge $-1 $108 $67 $183 $184 reversed $42 $-1 #
coedge $-1 $67 $107 $179 $185 reversed $42 $-1 #
coedge $-1 $181 $186 $67 $110 forward $176 $-1 #
edge $-1 $187 2.0111389520183565 $188 13.560174285124887 $109 $189 forward 7 unknown #
loop $-1 $-1 $116 $68 #
plane-surface $-1 -67.218848231452355 -3.4884562653946567 8.6181585800885898 -0.52991927123019833 0 0.84804809178421925 0.84804809178421925 0 0.52991927123019833 forward_v I I I I #
loop $-1 $-1 $190 $44 #
coedge $-1 $114 $114 $115 $191 reversed $69 $-1 #
coedge $-1 $115 $115 $114 $191 forward $71 $-1 #
coedge $-1 $116 $116 $72 $117 forward $111 $-1 #
edge $-1 $192 0 $192 6.2831853071796004 $116 $193 forward 7 unknown #
face $-1 $194 $195 $25 $-1 $196 forward single #
loop $-1 $-1 $197 $73 #
plane-surface $-1 0 34.936692245422208 0 0 -1 0 0 0 -1 forward_v I I I I #
coedge $-1 $198 $199 $200 $201 reversed $74 $-1 #
coedge $-1 $123 $76 $202 $203 reversed $48 $-1 #
coedge $-1 $76 $122 $198 $204 reversed $48 $-1 #
coedge $-1 $200 $205 $76 $125 forward $206 $-1 #
edge $-1 $207 77.668832689178529 $208 90.141678207806933 $124 $209 forward 7 unknown #
loop $-1 $-1 $131 $77 #
plane-surface $-1 1.8011253644090175e-006 28.144735321053872 119.78841282074733 0.86602541151947299 0 0.49999998660252726 0.49999998660252726 0 -0.86602541151947299 forward_v I I I I #
loop $-1 $-1 $210 $50 #
coedge $-1 $129 $129 $130 $211 reversed $78 $-1 #
coedge $-1 $130 $130 $129 $211 forward $80 $-1 #
coedge $-1 $131 $131 $81 $132 forward $126 $-1 #
edge $-1 $212 0 $212 6.2831853071796004 $131 $213 forward 7 unknown #
loop $-1 $-1 $138 $82 #
plane-surface $-1 1.8011253644090175e-006 28.144735321053872 119.78841282074733 0.86602541151947299 0 0.49999998660252726 0.49999998660252726 0 -0.86602541151947299 forward_v I I I I #
loop $-1 $-1 $214 $53 #
coedge $-1 $136 $136 $137 $215 reversed $83 $-1 #
coedge $-1 $137 $137 $136 $215 forward $85 $-1 #
coedge $-1 $138 $138 $86 $139 forward $133 $-1 #
edge $-1 $216 0 $216 6.2831853071796004 $138 $217 forward 7 unknown #
face $-1 $218 $219 $21 $-1 $220 reversed single #
loop $-1 $-1 $221 $87 #
plane-surface $-1 -67.21884823145237 0 0 1 0 0 0 0 -1 forward_v I I I I #
coedge $-1 $222 $151 $223 $224 forward $88 $-1 #
coedge $-1 $225 $90 $222 $226 forward $57 $-1 #
coedge $-1 $90 $225 $227 $228 forward $57 $-1 #
coedge $-1 $154 $153 $90 $147 reversed $155 $-1 #
edge $-1 $229 -34.936692245422208 $230 34.936692245422208 $146 $231 forward 7 unknown #
coedge $-1 $92 $91 $232 $233 forward $36 $-1 #
coedge $-1 $234 $235 $91 $150 reversed $219 $-1 #
edge $-1 $157 -67.21884823145237 $236 67.21884823145237 $149 $237 forward 7 unknown #
coedge $-1 $143 $238 $92 $152 reversed $88 $-1 #
edge $-1 $239 -67.21884823145237 $156 67.21884823145237 $151 $240 forward 7 unknown #
coedge $-1 $146 $93 $238 $241 forward $155 $-1 #
coedge $-1 $93 $146 $234 $242 reversed $155 $-1 #
loop $-1 $-1 $153 $218 #
vertex $-1 $94 $243 #
vertex $-1 $94 $244 #
straight-curve $-1 67.21884823145237 0 15.834796936358634 0 1 0 I I #
face $-1 $245 $246 $22 $-1 $247 reversed single #
loop $-1 $-1 $170 $95 #
plane-surface $-1 0 -41.299065039058434 11.672526786120377 0 0 1 1 0 0 forward_v I I I I #
coedge $-1 $248 $249 $99 $167 forward $96 $-1 #
coedge $-1 $250 $98 $249 $251 forward $61 $-1 #
coedge $-1 $98 $250 $252 $253 forward $61 $-1 #
coedge $-1 $100 $99 $98 $166 reversed $39 $-1 #
edge $-1 $254 -67.21884823145237 $255 67.21884823145237 $98 $256 forward 7 unknown #
edge $-1 $255 -15.834796936358634 $173 -11.672526786120377 $162 $257 forward 7 unknown #
coedge $-1 $252 $258 $100 $169 forward $259 $-1 #
edge $-1 $172 11.672526786120377 $254 15.834796936358634 $168 $260 forward 7 unknown #
coedge $-1 $261 $101 $258 $262 forward $160 $-1 #
coedge $-1 $101 $261 $248 $263 forward $160 $-1 #
vertex $-1 $169 $264 #
vertex $-1 $167 $265 #
straight-curve $-1 0 -34.936692245422208 11.672526786120377 -1 0 0 I I #
face $-1 $-1 $266 $23 $-1 $267 reversed single #
loop $-1 $-1 $109 $103 #
plane-surface $-1 0 0 15.834796936358634 0 0 1 1 0 0 forward_v I I I I #
coedge $-1 $268 $269 $270 $271 reversed $104 $-1 #
coedge $-1 $272 $106 $108 $185 forward $65 $-1 #
coedge $-1 $106 $272 $268 $273 forward $65 $-1 #
coedge $-1 $270 $109 $106 $182 forward $176 $-1 #
edge $-1 $188 -6.0038489479631014 $274 2.5153926825684447 $181 $275 forward 7 unknown #
coedge $-1 $276 $277 $107 $184 forward $266 $-1 #
edge $-1 $278 -52.695736684571933 $187 -45.47909832830188 $183 $279 forward 7 unknown #
edge $-1 $188 -13.618373114676023 $278 1.675811683274863e-014 $108 $280 forward 7 unknown #
coedge $-1 $109 $270 $276 $281 forward $176 $-1 #
vertex $-1 $184 $282 #
vertex $-1 $110 $283 #
straight-curve $-1 -69.229987183470726 -7.7480770806604298 15.834796936358636 1 0 0 I I #
coedge $-1 $190 $190 $-1 $284 reversed $113 $-1 #
edge $-1 $285 0 $285 6.2831853071796004 $114 $286 forward 7 unknown #
vertex $-1 $117 $287 #
ellipse-curve $-1 -61.444330564899104 -3.4884562653946531 12.226477758223609 -0.52991927123019833 0 0.84804809178421925 0.84804809178421925 0 0.52991927123019833 1 I I #
face $-1 $-1 $206 $25 $-1 $288 reversed single #
loop $-1 $-1 $289 $118 #
plane-surface $-1 0 0 15.834796936358634 0 0 1 1 0 0 forward_v I I I I #
coedge $-1 $290 $291 $199 $292 forward $119 $-1 #
coedge $-1 $293 $121 $123 $204 forward $74 $-1 #
coedge $-1 $121 $293 $197 $292 reversed $74 $-1 #
coedge $-1 $294 $124 $121 $201 forward $206 $-1 #
edge $-1 $208 7.2804107361586006 $295 20.864324584895272 $200 $296 forward 7 unknown #
coedge $-1 $297 $289 $122 $203 forward $195 $-1 #
edge $-1 $298 1.8044161689147984 $207 9.0056166293811515 $202 $299 forward 7 unknown #
edge $-1 $208 -134.43769646290477 $298 -120.0352951560605 $123 $300 forward 7 unknown #
coedge $-1 $124 $294 $297 $301 reversed $206 $-1 #
loop $-1 $-1 $200 $194 #
vertex $-1 $301 $302 #
vertex $-1 $125 $303 #
straight-curve $-1 67.21884823145237 21.352778396685537 93.503629625537158 0 0 -1 I I #
coedge $-1 $210 $210 $-1 $304 reversed $128 $-1 #
edge $-1 $305 0 $305 6.2831853071796004 $129 $306 forward 7 unknown #
vertex $-1 $132 $307 #
ellipse-curve $-1 63.618248001219207 25.233896639181729 9.5983741770444162 0.86602541151947299 0 0.49999998660252726 0.74999997990379086 0 -1.2990381172792094 1 I I #
coedge $-1 $214 $214 $-1 $308 reversed $135 $-1 #
edge $-1 $309 0 $309 6.2831853071796004 $136 $310 forward 7 unknown #
vertex $-1 $139 $311 #
ellipse-curve $-1 63.618248001219207 31.055574002926008 9.5983741770444162 0.86602541151947299 0 0.49999998660252726 0.74999997990379086 0 -1.2990381172792094 1 I I #
face $-1 $-1 $155 $21 $-1 $312 reversed single #
loop $-1 $-1 $234 $140 #
plane-surface $-1 0 34.936692245422208 0 0 -1 0 0 0 -1 forward_v I I I I #
coedge $-1 $313 $232 $235 $314 forward $141 $-1 #
coedge $-1 $238 $143 $144 $226 reversed $88 $-1 #
coedge $-1 $232 $313 $143 $224 reversed $141 $-1 #
edge $-1 $239 -15.834796936358634 $315 15.834796936358634 $223 $316 forward 7 unknown #
coedge $-1 $145 $144 $313 $317 forward $57 $-1 #
edge $-1 $230 -67.21884823145237 $315 67.21884823145237 $222 $318 forward 7 unknown #
coedge $-1 $235 $234 $145 $228 reversed $219 $-1 #
edge $-1 $319 -67.21884823145237 $229 67.21884823145237 $227 $320 forward 7 unknown #
vertex $-1 $147 $321 #
vertex $-1 $241 $322 #
straight-curve $-1 67.21884823145237 0 -15.834796936358634 0 -1 0 I I #
coedge $-1 $221 $223 $148 $233 reversed $141 $-1 #
edge $-1 $236 -34.936692245422208 $239 34.936692245422208 $232 $323 forward 7 unknown #
coedge $-1 $227 $149 $154 $242 forward $219 $-1 #
coedge $-1 $149 $227 $221 $314 reversed $219 $-1 #
vertex $-1 $150 $324 #
straight-curve $-1 0 34.936692245422208 15.834796936358634 -1 0 0 I I #
coedge $-1 $151 $222 $153 $241 reversed $88 $-1 #
vertex $-1 $233 $325 #
straight-curve $-1 0 -34.936692245422208 15.834796936358634 1 0 0 I I #
edge $-1 $156 -15.834796936358634 $230 15.834796936358634 $153 $326 forward 7 unknown #
edge $-1 $157 -15.834796936358634 $229 15.834796936358634 $154 $327 forward 7 unknown #
point $-1 67.21884823145237 -34.936692245422208 15.834796936358634 #
point $-1 67.21884823145237 34.936692245422208 15.834796936358634 #
face $-1 $-1 $259 $22 $-1 $328 reversed single #
loop $-1 $-1 $329 $159 #
plane-surface $-1 0 -47.661437832694659 13.753661861239506 0 1 0 0 0 1 forward_v I I I I #
coedge $-1 $330 $162 $171 $263 reversed $96 $-1 #
coedge $-1 $162 $330 $163 $251 reversed $96 $-1 #
coedge $-1 $164 $163 $331 $332 forward $61 $-1 #
edge $-1 $255 34.936692245422208 $333 47.661437832694659 $249 $334 forward 7 unknown #
coedge $-1 $335 $168 $164 $253 reversed $259 $-1 #
edge $-1 $336 -47.661437832694659 $254 -34.936692245422208 $252 $337 forward 7 unknown #
vertex $-1 $169 $338 #
vertex $-1 $251 $339 #
straight-curve $-1 0 -34.936692245422208 15.834796936358634 -1 0 0 I I #
straight-curve $-1 -67.21884823145237 -34.936692245422208 0 0 0 -1 I I #
coedge $-1 $168 $335 $170 $262 reversed $259 $-1 #
loop $-1 $-1 $168 $245 #
straight-curve $-1 67.21884823145237 -34.936692245422208 0 0 0 1 I I #
coedge $-1 $171 $170 $340 $341 forward $160 $-1 #
edge $-1 $172 -6.3623727936362258 $342 6.3623727936362258 $258 $343 forward 7 unknown #
edge $-1 $344 -6.3623727936362258 $173 6.3623727936362258 $248 $345 forward 7 unknown #
point $-1 67.21884823145237 -34.936692245422208 11.672526786120377 #
point $-1 -67.21884823145237 -34.936692245422208 11.672526786120377 #
loop $-1 $-1 $183 $175 #
plane-surface $-1 -67.21884823145237 0 0 1 0 0 0 0 -1 forward_v I I I I #
coedge $-1 $269 $178 $180 $273 reversed $104 $-1 #
coedge $-1 $178 $268 $346 $347 reversed $104 $-1 #
coedge $-1 $186 $181 $178 $271 forward $176 $-1 #
edge $-1 $274 -13.560174285124887 $348 -2.0111389520183565 $270 $349 forward 7 unknown #
coedge $-1 $180 $179 $277 $350 reversed $65 $-1 #
edge $-1 $351 -1.675811683274863e-014 $274 13.618373114676023 $268 $352 forward 7 unknown #
vertex $-1 $182 $353 #
straight-curve $-1 -55.669812898345853 -1.7442281326973283 15.834796936358634 0 1 0 I I #
coedge $-1 $346 $183 $186 $281 reversed $266 $-1 #
coedge $-1 $183 $346 $272 $350 forward $266 $-1 #
vertex $-1 $184 $354 #
straight-curve $-1 -67.21884823145237 -7.7480770806604298 61.313895264660516 0 0 1 I I #
straight-curve $-1 -67.218848231452355 -7.7480770806604298 8.6181585800885898 -0.84804809178421925 0 -0.52991927123019833 I I #
edge $-1 $348 -0.77116454987111638 $187 7.7480770806604298 $276 $355 forward 7 unknown #
point $-1 -67.21884823145237 -7.7480770806604298 15.834796936358634 #
point $-1 -55.669812898345839 -7.7480770806604298 15.834796936358634 #
edge $-1 $356 1 $356 0 $190 $-1 forward 7 unknown #
vertex $-1 $191 $357 #
ellipse-curve $-1 -59.353472601085898 -3.4884562653946531 8.8804056248450713 -0.52991927123019833 0 0.84804809178421925 0.84804809178421925 0 0.52991927123019833 1 I I #
point $-1 -60.59628247311489 -3.4884562653946531 12.75639702945381 #
plane-surface $-1 67.21884823145237 0 0 -1 0 0 0 0 1 forward_v I I I I #
coedge $-1 $202 $358 $293 $359 forward $195 $-1 #
coedge $-1 $291 $197 $358 $360 reversed $119 $-1 #
coedge $-1 $197 $290 $294 $361 forward $119 $-1 #
edge $-1 $295 -82.567792159009969 $362 -68.1653908521657 $197 $363 forward 7 unknown #
coedge $-1 $199 $198 $289 $359 reversed $74 $-1 #
coedge $-1 $205 $200 $291 $361 reversed $206 $-1 #
vertex $-1 $292 $364 #
straight-curve $-1 67.21884823145237 14.072367660526936 3.3619514177302321 0 1 0 I I #
coedge $-1 $358 $202 $205 $301 forward $195 $-1 #
vertex $-1 $203 $365 #
straight-curve $-1 58.213231602071218 21.352778396685537 15.834796936358629 1 0 0 I I #
straight-curve $-1 1.8011253644090175e-006 21.352778396685537 119.78841282074733 -0.49999998660252726 0 0.86602541151947299 I I #
edge $-1 $207 21.352778396685537 $366 34.936692245422208 $205 $367 forward 7 unknown #
point $-1 67.21884823145237 21.352778396685537 15.834796936358634 #
point $-1 67.21884823145237 21.352778396685537 3.361951417730225 #
edge $-1 $368 1 $368 0 $210 $-1 forward 7 unknown #
vertex $-1 $211 $369 #
ellipse-curve $-1 61.229416530691658 25.233896639181729 8.2191817337605375 0.86602541151947299 0 0.49999998660252726 0.74999997990379086 0 -1.2990381172792094 1 I I #
point $-1 64.368247981122991 25.233896639181729 8.2993360597652064 #
edge $-1 $370 1 $370 0 $214 $-1 forward 7 unknown #
vertex $-1 $215 $371 #
ellipse-curve $-1 61.229416530691658 31.055574002926008 8.2191817337605375 0.86602541151947299 0 0.49999998660252726 0.74999997990379086 0 -1.2990381172792094 1 I I #
point $-1 64.368247981122991 31.055574002926008 8.2993360597652064 #
plane-surface $-1 67.21884823145237 0 0 -1 0 0 0 0 1 forward_v I I I I #
coedge $-1 $223 $221 $225 $317 reversed $141 $-1 #
edge $-1 $236 -15.834796936358634 $319 15.834796936358634 $235 $372 forward 7 unknown #
vertex $-1 $317 $373 #
straight-curve $-1 -67.21884823145237 -34.936692245422208 0 0 0 -1 I I #
edge $-1 $315 -34.936692245422208 $319 34.936692245422208 $313 $374 forward 7 unknown #
straight-curve $-1 0 -34.936692245422208 -15.834796936358634 -1 0 0 I I #
vertex $-1 $228 $375 #
straight-curve $-1 0 34.936692245422208 -15.834796936358634 1 0 0 I I #
point $-1 67.21884823145237 34.936692245422208 -15.834796936358634 #
point $-1 67.21884823145237 -34.936692245422208 -15.834796936358634 #
straight-curve $-1 -67.21884823145237 0 15.834796936358634 0 -1 0 I I #
point $-1 -67.21884823145237 34.936692245422208 15.834796936358634 #
point $-1 -67.21884823145237 -34.936692245422208 15.834796936358634 #
straight-curve $-1 67.21884823145237 -34.936692245422208 0 0 0 -1 I I #
straight-curve $-1 67.21884823145237 34.936692245422208 0 0 0 -1 I I #
plane-surface $-1 67.21884823145237 0 0 -1 0 0 0 0 1 forward_v I I I I #
coedge $-1 $340 $331 $330 $376 forward $246 $-1 #
coedge $-1 $249 $248 $329 $376 reversed $96 $-1 #
coedge $-1 $329 $377 $250 $332 reversed $246 $-1 #
edge $-1 $333 -67.21884823145237 $336 67.21884823145237 $331 $378 forward 7 unknown #
vertex $-1 $251 $379 #
straight-curve $-1 -67.21884823145237 0 15.834796936358634 0 -1 0 I I #
coedge $-1 $258 $252 $377 $380 forward $259 $-1 #
vertex $-1 $253 $381 #
straight-curve $-1 67.21884823145237 0 15.834796936358634 0 1 0 I I #
point $-1 67.21884823145237 -34.936692245422208 15.834796936358634 #
point $-1 -67.21884823145237 -34.936692245422208 15.834796936358634 #
coedge $-1 $377 $329 $261 $341 reversed $246 $-1 #
edge $-1 $342 -67.21884823145237 $344 67.21884823145237 $340 $382 forward 7 unknown #
vertex $-1 $380 $383 #
straight-curve $-1 67.21884823145237 -41.299065039058434 11.672526786120377 0 -1 0 I I #
vertex $-1 $263 $384 #
straight-curve $-1 -67.21884823145237 -41.299065039058434 11.672526786120377 0 1 0 I I #
coedge $-1 $277 $276 $269 $347 forward $266 $-1 #
edge $-1 $348 45.47909832830188 $351 52.695736684571933 $346 $385 forward 7 unknown #
vertex $-1 $281 $386 #
straight-curve $-1 -69.229987183470726 0.77116454987111638 15.834796936358636 -1 0 0 I I #
edge $-1 $351 -2.5153926825684447 $278 6.0038489479631014 $277 $387 forward 7 unknown #
vertex $-1 $350 $388 #
straight-curve $-1 -67.218848231452355 0.77116454987111638 8.6181585800885898 0.84804809178421925 0 0.52991927123019833 I I #
point $-1 -55.669812898345839 0.77116454987111638 15.834796936358634 #
point $-1 -67.21884823145237 -7.7480770806604298 8.6181585800885809 #
straight-curve $-1 -67.21884823145237 0 15.834796936358634 0 -1 0 I I #
vertex $-1 $284 $389 #
point $-1 -58.505424509301676 -3.4884562653946531 9.4103248960752701 #
coedge $-1 $289 $297 $290 $360 forward $195 $-1 #
edge $-1 $362 -20.864324584895272 $298 -7.2804107361586006 $289 $390 forward 7 unknown #
edge $-1 $366 -67.21884823145237 $362 -60.017647770986017 $290 $391 forward 7 unknown #
edge $-1 $366 -15.834796936358634 $295 -3.3619514177302396 $294 $392 forward 7 unknown #
vertex $-1 $292 $393 #
straight-curve $-1 25.934953258147125 34.936692245422208 74.86775760049116 -0.49999998660252726 0 0.86602541151947299 I I #
point $-1 67.21884823145237 34.936692245422208 3.3619514177302396 #
point $-1 60.017647770986017 21.352778396685537 15.834796936358629 #
vertex $-1 $301 $394 #
straight-curve $-1 67.21884823145237 0 15.834796936358634 0 1 0 I I #
vertex $-1 $304 $395 #
point $-1 61.979416510595449 25.233896639181729 6.9201436164813277 #
vertex $-1 $308 $396 #
point $-1 61.979416510595449 31.055574002926008 6.9201436164813277 #
straight-curve $-1 -67.21884823145237 34.936692245422208 0 0 0 -1 I I #
point $-1 -67.21884823145237 -34.936692245422208 -15.834796936358634 #
straight-curve $-1 -67.21884823145237 0 -15.834796936358634 0 1 0 I I #
point $-1 -67.21884823145237 34.936692245422208 -15.834796936358634 #
edge $-1 $333 -2.0811350751191284 $344 2.0811350751191284 $330 $397 forward 7 unknown #
coedge $-1 $331 $340 $335 $380 reversed $246 $-1 #
straight-curve $-1 0 -47.661437832694659 15.834796936358634 1 0 0 I I #
point $-1 -67.21884823145237 -47.661437832694659 15.834796936358634 #
edge $-1 $336 -2.0811350751191284 $342 2.0811350751191284 $335 $398 forward 7 unknown #
point $-1 67.21884823145237 -47.661437832694659 15.834796936358634 #
straight-curve $-1 0 -47.661437832694659 11.672526786120377 -1 0 0 I I #
point $-1 67.21884823145237 -47.661437832694659 11.672526786120377 #
point $-1 -67.21884823145237 -47.661437832694659 11.672526786120377 #
straight-curve $-1 -67.21884823145237 0.77116454987111638 61.313895264660516 0 0 -1 I I #
point $-1 -67.21884823145237 0.77116454987111638 15.834796936358634 #
straight-curve $-1 -67.21884823145237 -1.7442281326973283 8.6181585800885863 0 -1 0 I I #
point $-1 -67.21884823145237 0.77116454987111638 8.6181585800885809 #
point $-1 -58.823553329855699 -3.4884562653946531 8.0323575330608534 #
straight-curve $-1 60.017647770986017 14.072367660526936 15.834796936358629 0 -1 0 I I #
straight-curve $-1 0 34.936692245422208 15.834796936358634 -1 0 0 I I #
straight-curve $-1 67.21884823145237 34.936692245422208 0 0 0 -1 I I #
point $-1 60.017647770986017 34.936692245422208 15.834796936358629 #
point $-1 67.21884823145237 34.936692245422208 15.834796936358634 #
point $-1 59.930378413412448 25.233896639181729 7.4691817538567467 #
point $-1 59.930378413412448 31.055574002926008 7.4691817538567467 #
straight-curve $-1 -67.21884823145237 -47.661437832694659 13.753661861239506 0 0 -1 I I #
straight-curve $-1 67.21884823145237 -47.661437832694659 13.753661861239506 0 0 -1 I I #
End-of-ACIS-data 