500 0 5 0           
7 Unknown 11 ACIS 5.0 NT 24 Fri Mar 26 03:10:56 1999 
-1 9.9999999999999995e-007 1e-010 
body $-1 $5 $-1 $6 #
body $-1 $7 $-1 $8 #
body $-1 $9 $-1 $10 #
body $-1 $11 $-1 $12 #
body $-1 $13 $-1 $14 #
lump $-1 $-1 $15 $0 #
transform $-1 1 0 0 0 1 0 0 0 1 75.948362681966614 52.487974408457852 18.698290245444735 1 rotate no_reflect no_shear #
lump $-1 $-1 $16 $1 #
transform $-1 1 0 0 0 1 0 0 0 1 75.948362681966614 52.487974408457852 18.698290245444735 1 rotate no_reflect no_shear #
lump $-1 $-1 $17 $2 #
transform $-1 1 0 0 0 1 0 0 0 1 75.948362681966614 52.487974408457852 18.698290245444735 1 rotate no_reflect no_shear #
lump $-1 $-1 $18 $3 #
transform $-1 1 0 0 0 1 0 0 0 1 75.948362681966614 52.487974408457852 18.698290245444735 1 rotate no_reflect no_shear #
lump $-1 $-1 $19 $4 #
transform $-1 1 0 0 0 1 0 0 0 1 75.948362681966614 52.487974408457852 18.698290245444735 1 rotate no_reflect no_shear #
shell $-1 $-1 $-1 $20 $-1 $5 #
shell $-1 $-1 $-1 $21 $-1 $7 #
shell $-1 $-1 $-1 $22 $-1 $9 #
shell $-1 $-1 $-1 $23 $-1 $11 #
shell $-1 $-1 $-1 $24 $-1 $13 #
face $-1 $25 $26 $15 $-1 $27 forward single #
face $-1 $28 $29 $16 $-1 $30 reversed single #
face $-1 $31 $32 $17 $-1 $33 reversed single #
face $-1 $34 $35 $18 $-1 $36 forward single #
face $-1 $37 $38 $19 $-1 $39 forward single #
face $-1 $40 $41 $15 $-1 $42 reversed single #
loop $-1 $-1 $43 $20 #
plane-surface $-1 0 0 18.698290245444735 0 0 1 1 0 0 forward_v I I I I #
face $-1 $44 $45 $16 $-1 $46 reversed single #
loop $-1 $-1 $47 $21 #
plane-surface $-1 0 -41.044788547566398 14.655962646315082 0 0 1 1 0 0 forward_v I I I I #
face $-1 $48 $49 $17 $-1 $50 reversed single #
loop $-1 $-1 $51 $22 #
plane-surface $-1 32.334290090014555 50.39854112711064 191.53068770271872 1 0 0 0 -0.55919291073839883 -0.82903756765294845 forward_v I I I I #
face $-1 $52 $53 $18 $-1 $54 forward single #
loop $-1 $55 $56 $23 #
cone-surface $-1 39.142752582620787 41.315628869324435 9.2012330000407303 0 -0.55919291073839883 -0.82903756765294845 2.5 0 0 1 I I 0 1 2.5 forward I I I I #
face $-1 $57 $58 $19 $-1 $59 forward single #
loop $-1 $60 $61 $24 #
cone-surface $-1 49.355446321530124 41.315628869324435 9.2012330000407303 0 -0.55919291073839883 -0.82903756765294845 2.5 0 0 1 I I 0 1 2.5 forward I I I I #
face $-1 $62 $63 $15 $-1 $64 reversed single #
loop $-1 $-1 $65 $25 #
plane-surface $-1 0 0 -18.698290245444735 0 0 1 1 0 0 forward_v I I I I #
coedge $-1 $66 $67 $68 $69 forward $26 $-1 #
face $-1 $70 $71 $16 $-1 $72 reversed single #
loop $-1 $-1 $73 $28 #
plane-surface $-1 0 -29.601602686674944 16.67712644587991 0 -1 0 0 0 -1 forward_v I I I I #
coedge $-1 $74 $75 $76 $77 reversed $29 $-1 #
face $-1 $78 $79 $17 $-1 $80 reversed single #
loop $-1 $-1 $81 $31 #
plane-surface $-1 44.249099452075455 -34.541030860778356 65.602595972555605 0 0.55919291073839883 0.82903756765294845 1 0 0 forward_v I I I I #
coedge $-1 $82 $83 $84 $85 reversed $32 $-1 #
face $-1 $-1 $86 $18 $-1 $87 forward single #
loop $-1 $88 $89 $34 #
cone-surface $-1 39.142752582620787 38.189549020759678 4.5666291197432507 0 -0.55919291073839883 -0.82903756765294845 1.25 0 0 1 I I -0.70710678118654779 0.70710678118654724 1.25 forward I I I I #
loop $-1 $-1 $90 $23 #
coedge $-1 $56 $56 $91 $92 reversed $35 $-1 #
face $-1 $-1 $93 $19 $-1 $94 forward single #
loop $-1 $95 $96 $37 #
cone-surface $-1 49.355446321530124 38.189549020759678 4.5666291197432507 0 -0.55919291073839883 -0.82903756765294845 1.25 0 0 1 I I -0.70710678118654779 0.70710678118654724 1.25 forward I I I I #
loop $-1 $-1 $97 $24 #
coedge $-1 $61 $61 $98 $99 reversed $38 $-1 #
face $-1 $100 $101 $15 $-1 $102 reversed single #
loop $-1 $-1 $103 $40 #
plane-surface $-1 0 -52.487974408457852 0 0 1 0 0 0 1 forward_v I I I I #
coedge $-1 $104 $105 $106 $107 forward $41 $-1 #
coedge $-1 $108 $43 $109 $110 forward $26 $-1 #
coedge $-1 $43 $108 $111 $112 forward $26 $-1 #
coedge $-1 $113 $114 $43 $69 reversed $115 $-1 #
edge $-1 $116 -52.487974408457852 $117 52.487974408457852 $68 $118 forward 7 unknown #
face $-1 $119 $120 $16 $-1 $121 reversed single #
loop $-1 $-1 $122 $44 #
plane-surface $-1 -75.948362681966614 0 0 1 0 0 0 0 -1 forward_v I I I I #
coedge $-1 $123 $124 $125 $126 reversed $45 $-1 #
coedge $-1 $127 $47 $128 $129 reversed $29 $-1 #
coedge $-1 $47 $127 $123 $130 forward $29 $-1 #
coedge $-1 $125 $131 $47 $77 forward $132 $-1 #
edge $-1 $133 -31.965580134674653 $134 -9.0792084128917452 $76 $135 forward 7 unknown #
face $-1 $136 $137 $17 $-1 $138 forward single #
loop $-1 $-1 $139 $48 #
plane-surface $-1 56.163908814136356 50.39854112711064 191.53068770271872 -1 0 0 0 0.55919291073839883 0.82903756765294845 forward_v I I I I #
coedge $-1 $140 $141 $142 $143 reversed $49 $-1 #
coedge $-1 $83 $51 $144 $145 reversed $32 $-1 #
coedge $-1 $51 $82 $140 $146 reversed $32 $-1 #
coedge $-1 $142 $147 $51 $85 forward $137 $-1 #
edge $-1 $148 -27.288703844902532 $149 -9.7981901869192605 $84 $150 forward 7 unknown #
loop $-1 $-1 $91 $52 #
plane-surface $-1 44.249099452075455 -34.541030860778356 65.602595972555605 0 0.55919291073839883 0.82903756765294845 1 0 0 forward_v I I I I #
loop $-1 $-1 $151 $34 #
coedge $-1 $89 $89 $90 $152 reversed $53 $-1 #
coedge $-1 $90 $90 $89 $152 forward $55 $-1 #
coedge $-1 $91 $91 $56 $92 forward $86 $-1 #
edge $-1 $153 8.2237719943762311e-016 $153 6.2831853071796013 $91 $154 forward 7 unknown #
loop $-1 $-1 $98 $57 #
plane-surface $-1 44.249099452075455 -34.541030860778356 65.602595972555605 0 0.55919291073839883 0.82903756765294845 1 0 0 forward_v I I I I #
loop $-1 $-1 $155 $37 #
coedge $-1 $96 $96 $97 $156 reversed $58 $-1 #
coedge $-1 $97 $97 $96 $156 forward $60 $-1 #
coedge $-1 $98 $98 $61 $99 forward $93 $-1 #
edge $-1 $157 8.2237719943762311e-016 $157 6.2831853071796013 $98 $158 forward 7 unknown #
face $-1 $159 $160 $15 $-1 $161 reversed single #
loop $-1 $-1 $162 $62 #
plane-surface $-1 -75.948362681966614 0 0 1 0 0 0 0 -1 forward_v I I I I #
coedge $-1 $163 $111 $164 $165 forward $63 $-1 #
coedge $-1 $166 $65 $163 $167 forward $41 $-1 #
coedge $-1 $65 $166 $168 $169 forward $41 $-1 #
coedge $-1 $114 $113 $65 $107 reversed $115 $-1 #
edge $-1 $170 -52.487974408457852 $171 52.487974408457852 $106 $172 forward 7 unknown #
coedge $-1 $67 $66 $173 $174 forward $26 $-1 #
coedge $-1 $175 $176 $66 $110 reversed $160 $-1 #
edge $-1 $117 -75.948362681966614 $177 75.948362681966614 $109 $178 forward 7 unknown #
coedge $-1 $103 $179 $67 $112 reversed $63 $-1 #
edge $-1 $180 -75.948362681966614 $116 75.948362681966614 $111 $181 forward 7 unknown #
coedge $-1 $106 $68 $179 $182 forward $115 $-1 #
coedge $-1 $68 $106 $175 $183 reversed $115 $-1 #
loop $-1 $-1 $113 $159 #
vertex $-1 $69 $184 #
vertex $-1 $69 $185 #
straight-curve $-1 75.948362681966614 0 18.698290245444735 0 1 0 I I #
face $-1 $186 $187 $16 $-1 $188 forward single #
loop $-1 $-1 $128 $70 #
plane-surface $-1 0 -52.487974408457852 0 0 1 0 0 0 1 forward_v I I I I #
coedge $-1 $189 $190 $191 $192 forward $71 $-1 #
coedge $-1 $191 $73 $75 $130 reversed $45 $-1 #
coedge $-1 $73 $191 $193 $194 reversed $45 $-1 #
coedge $-1 $195 $76 $73 $126 forward $132 $-1 #
edge $-1 $134 6.3173994233751269 $196 10.359727022504783 $125 $197 forward 7 unknown #
coedge $-1 $75 $74 $189 $198 reversed $29 $-1 #
coedge $-1 $199 $200 $74 $129 forward $120 $-1 #
edge $-1 $201 -75.948362681966614 $133 75.948362681966614 $128 $202 forward 7 unknown #
edge $-1 $203 -75.948362681966614 $134 75.948362681966614 $123 $204 forward 7 unknown #
coedge $-1 $76 $195 $199 $205 forward $132 $-1 #
loop $-1 $-1 $125 $186 #
vertex $-1 $129 $206 #
vertex $-1 $77 $207 #
straight-curve $-1 75.948362681966614 -20.522394273783199 14.655962646315082 0 1 0 I I #
face $-1 $-1 $208 $17 $-1 $209 reversed single #
loop $-1 $-1 $84 $78 #
plane-surface $-1 0 0 18.698290245444735 0 0 1 1 0 0 forward_v I I I I #
coedge $-1 $210 $211 $212 $213 reversed $79 $-1 #
coedge $-1 $214 $81 $83 $146 forward $49 $-1 #
coedge $-1 $81 $214 $210 $215 forward $49 $-1 #
coedge $-1 $212 $84 $81 $143 forward $137 $-1 #
edge $-1 $149 10.209740363976827 $216 34.039359088098628 $142 $217 forward 7 unknown #
coedge $-1 $218 $219 $82 $145 forward $208 $-1 #
edge $-1 $220 -88.864554255260032 $148 -77.067053605914623 $144 $221 forward 7 unknown #
edge $-1 $149 83.878577189354971 $220 104.9759488169157 $83 $222 forward 7 unknown #
coedge $-1 $84 $212 $218 $223 forward $137 $-1 #
vertex $-1 $145 $224 #
vertex $-1 $85 $225 #
straight-curve $-1 32.334290090014555 25.19927056355532 18.698290245444738 0 -1 0 I I #
coedge $-1 $151 $151 $-1 $226 reversed $88 $-1 #
edge $-1 $227 0 $227 6.2831853071796004 $89 $228 forward 7 unknown #
vertex $-1 $92 $229 #
ellipse-curve $-1 39.142752582620787 43.742717579466209 12.799539920772041 0 0.55919291073839883 0.82903756765294845 2.5 0 0 1 I I #
coedge $-1 $155 $155 $-1 $230 reversed $95 $-1 #
edge $-1 $231 0 $231 6.2831853071796004 $96 $232 forward 7 unknown #
vertex $-1 $99 $233 #
ellipse-curve $-1 49.355446321530124 43.742717579466209 12.799539920772041 0 0.55919291073839883 0.82903756765294845 2.5 0 0 1 I I #
face $-1 $-1 $115 $15 $-1 $234 reversed single #
loop $-1 $-1 $175 $100 #
plane-surface $-1 0 52.487974408457852 0 0 -1 0 0 0 -1 forward_v I I I I #
coedge $-1 $235 $173 $176 $236 forward $101 $-1 #
coedge $-1 $179 $103 $104 $167 reversed $63 $-1 #
coedge $-1 $173 $235 $103 $165 reversed $101 $-1 #
edge $-1 $180 -18.698290245444735 $237 18.698290245444735 $164 $238 forward 7 unknown #
coedge $-1 $105 $104 $235 $239 forward $41 $-1 #
edge $-1 $171 -75.948362681966614 $237 75.948362681966614 $163 $240 forward 7 unknown #
coedge $-1 $176 $175 $105 $169 reversed $160 $-1 #
edge $-1 $241 -75.948362681966614 $170 75.948362681966614 $168 $242 forward 7 unknown #
vertex $-1 $107 $243 #
vertex $-1 $182 $244 #
straight-curve $-1 75.948362681966614 0 -18.698290245444735 0 -1 0 I I #
coedge $-1 $162 $164 $108 $174 reversed $101 $-1 #
edge $-1 $177 -52.487974408457852 $180 52.487974408457852 $173 $245 forward 7 unknown #
coedge $-1 $168 $109 $114 $183 forward $160 $-1 #
coedge $-1 $109 $168 $162 $236 reversed $160 $-1 #
vertex $-1 $110 $246 #
straight-curve $-1 0 52.487974408457852 18.698290245444735 -1 0 0 I I #
coedge $-1 $111 $163 $113 $182 reversed $63 $-1 #
vertex $-1 $174 $247 #
straight-curve $-1 0 -52.487974408457852 18.698290245444735 1 0 0 I I #
edge $-1 $116 -18.698290245444735 $171 18.698290245444735 $113 $248 forward 7 unknown #
edge $-1 $117 -18.698290245444735 $170 18.698290245444735 $114 $249 forward 7 unknown #
point $-1 75.948362681966614 -52.487974408457852 18.698290245444735 #
point $-1 75.948362681966614 52.487974408457852 18.698290245444735 #
face $-1 $-1 $132 $16 $-1 $250 reversed single #
loop $-1 $-1 $193 $119 #
plane-surface $-1 0 0 18.698290245444735 0 0 1 1 0 0 forward_v I I I I #
coedge $-1 $251 $122 $127 $198 forward $71 $-1 #
coedge $-1 $122 $251 $252 $253 reversed $71 $-1 #
coedge $-1 $124 $123 $122 $192 reversed $45 $-1 #
edge $-1 $254 -10.359727022504783 $203 -6.3173994233751269 $122 $255 forward 7 unknown #
coedge $-1 $252 $256 $124 $194 forward $187 $-1 #
edge $-1 $196 -75.948362681966614 $254 75.948362681966614 $193 $257 forward 7 unknown #
coedge $-1 $131 $125 $256 $258 reversed $132 $-1 #
vertex $-1 $126 $259 #
straight-curve $-1 75.948362681966614 -29.601602686674944 8.3385632229399551 0 0 1 I I #
edge $-1 $203 9.0792084128917452 $201 31.965580134674653 $189 $260 forward 7 unknown #
coedge $-1 $261 $128 $131 $205 reversed $120 $-1 #
coedge $-1 $128 $261 $251 $262 forward $120 $-1 #
vertex $-1 $129 $263 #
straight-curve $-1 0 -52.487974408457852 14.655962646315082 1 0 0 I I #
vertex $-1 $198 $264 #
straight-curve $-1 0 -29.601602686674944 14.655962646315082 1 0 0 I I #
edge $-1 $265 -18.698290245444735 $133 -14.655962646315082 $131 $266 forward 7 unknown #
point $-1 75.948362681966614 -52.487974408457852 14.655962646315082 #
point $-1 75.948362681966614 -29.601602686674944 14.655962646315082 #
loop $-1 $-1 $144 $136 #
plane-surface $-1 0 52.487974408457852 0 0 -1 0 0 0 -1 forward_v I I I I #
coedge $-1 $211 $139 $141 $215 reversed $79 $-1 #
coedge $-1 $139 $210 $267 $268 reversed $79 $-1 #
coedge $-1 $147 $142 $139 $213 forward $137 $-1 #
edge $-1 $216 9.7981901869192605 $269 27.288703844902532 $212 $270 forward 7 unknown #
coedge $-1 $141 $140 $219 $271 reversed $49 $-1 #
edge $-1 $272 -104.9759488169157 $216 -83.878577189354971 $210 $273 forward 7 unknown #
vertex $-1 $143 $274 #
straight-curve $-1 22.124549726037728 34.99746075047458 18.698290245444731 1 0 0 I I #
coedge $-1 $267 $144 $147 $223 reversed $208 $-1 #
coedge $-1 $144 $267 $214 $271 forward $208 $-1 #
vertex $-1 $145 $275 #
straight-curve $-1 32.334290090014555 52.487974408457852 95.765343851359361 0 0 1 I I #
straight-curve $-1 32.334290090014555 -34.541030860778356 65.602595972555605 0 0.82903756765294845 -0.55919291073839883 I I #
edge $-1 $269 -56.163908814136356 $148 -32.334290090014555 $218 $276 forward 7 unknown #
point $-1 32.334290090014555 52.487974408457852 18.698290245444735 #
point $-1 32.334290090014555 34.99746075047458 18.698290245444731 #
edge $-1 $277 1 $277 0 $151 $-1 forward 7 unknown #
vertex $-1 $152 $278 #
ellipse-curve $-1 39.142752582620787 38.888540159182675 5.6029260793094355 0 0.55919291073839883 0.82903756765294845 2.5 0 0 1 I I #
point $-1 41.642752582620787 43.742717579466202 12.799539920772027 #
edge $-1 $279 1 $279 0 $155 $-1 forward 7 unknown #
vertex $-1 $156 $280 #
ellipse-curve $-1 49.355446321530124 38.888540159182675 5.6029260793094355 0 0.55919291073839883 0.82903756765294845 2.5 0 0 1 I I #
point $-1 51.855446321530124 43.742717579466202 12.799539920772027 #
plane-surface $-1 75.948362681966614 0 0 -1 0 0 0 0 1 forward_v I I I I #
coedge $-1 $164 $162 $166 $239 reversed $101 $-1 #
edge $-1 $177 -18.698290245444735 $241 18.698290245444735 $176 $281 forward 7 unknown #
vertex $-1 $239 $282 #
straight-curve $-1 -75.948362681966614 -52.487974408457852 0 0 0 -1 I I #
edge $-1 $237 -52.487974408457852 $241 52.487974408457852 $235 $283 forward 7 unknown #
straight-curve $-1 0 -52.487974408457852 -18.698290245444735 -1 0 0 I I #
vertex $-1 $169 $284 #
straight-curve $-1 0 52.487974408457852 -18.698290245444735 1 0 0 I I #
point $-1 75.948362681966614 52.487974408457852 -18.698290245444735 #
point $-1 75.948362681966614 -52.487974408457852 -18.698290245444735 #
straight-curve $-1 -75.948362681966614 0 18.698290245444735 0 -1 0 I I #
point $-1 -75.948362681966614 52.487974408457852 18.698290245444735 #
point $-1 -75.948362681966614 -52.487974408457852 18.698290245444735 #
straight-curve $-1 75.948362681966614 -52.487974408457852 0 0 0 -1 I I #
straight-curve $-1 75.948362681966614 52.487974408457852 0 0 0 -1 I I #
plane-surface $-1 75.948362681966614 0 0 -1 0 0 0 0 1 forward_v I I I I #
coedge $-1 $190 $189 $200 $262 reversed $71 $-1 #
coedge $-1 $285 $193 $190 $253 forward $187 $-1 #
edge $-1 $254 29.601602686674944 $286 52.487974408457852 $190 $287 forward 7 unknown #
vertex $-1 $253 $288 #
straight-curve $-1 -75.948362681966614 -29.601602686674944 8.3385632229399551 0 0 -1 I I #
coedge $-1 $193 $285 $195 $258 forward $187 $-1 #
straight-curve $-1 0 -29.601602686674944 18.698290245444735 -1 0 0 I I #
edge $-1 $265 -52.487974408457852 $196 -29.601602686674944 $195 $289 forward 7 unknown #
point $-1 75.948362681966614 -29.601602686674944 18.698290245444738 #
straight-curve $-1 -75.948362681966614 -20.522394273783199 14.655962646315082 0 -1 0 I I #
coedge $-1 $200 $199 $285 $290 reversed $120 $-1 #
edge $-1 $286 -18.698290245444735 $201 -14.655962646315082 $251 $291 forward 7 unknown #
point $-1 -75.948362681966614 -52.487974408457852 14.655962646315082 #
point $-1 -75.948362681966614 -29.601602686674944 14.655962646315082 #
vertex $-1 $258 $292 #
straight-curve $-1 75.948362681966614 -52.487974408457852 0 0 0 -1 I I #
coedge $-1 $219 $218 $211 $268 forward $208 $-1 #
edge $-1 $269 77.067053605914623 $272 88.864554255260032 $267 $293 forward 7 unknown #
vertex $-1 $223 $294 #
straight-curve $-1 56.163908814136356 25.19927056355532 18.698290245444738 0 1 0 I I #
edge $-1 $272 -34.039359088098628 $220 -10.209740363976827 $219 $295 forward 7 unknown #
vertex $-1 $271 $296 #
straight-curve $-1 56.163908814136356 -34.541030860778356 65.602595972555605 0 -0.82903756765294845 0.55919291073839883 I I #
point $-1 56.163908814136356 34.99746075047458 18.698290245444731 #
point $-1 32.334290090014555 52.487974408457852 6.9007895960993366 #
straight-curve $-1 0 52.487974408457852 18.698290245444735 -1 0 0 I I #
vertex $-1 $226 $297 #
point $-1 41.642752582620787 38.888540159182675 5.6029260793094355 #
vertex $-1 $230 $298 #
point $-1 51.855446321530124 38.888540159182675 5.6029260793094355 #
straight-curve $-1 -75.948362681966614 52.487974408457852 0 0 0 -1 I I #
point $-1 -75.948362681966614 -52.487974408457852 -18.698290245444735 #
straight-curve $-1 -75.948362681966614 0 -18.698290245444735 0 1 0 I I #
point $-1 -75.948362681966614 52.487974408457852 -18.698290245444735 #
coedge $-1 $256 $252 $261 $290 forward $187 $-1 #
vertex $-1 $253 $299 #
straight-curve $-1 -75.948362681966614 0 18.698290245444735 0 -1 0 I I #
point $-1 -75.948362681966614 -29.601602686674944 18.698290245444738 #
straight-curve $-1 75.948362681966614 0 18.698290245444735 0 1 0 I I #
edge $-1 $286 -75.948362681966614 $265 75.948362681966614 $261 $300 forward 7 unknown #
straight-curve $-1 -75.948362681966614 -52.487974408457852 0 0 0 -1 I I #
point $-1 75.948362681966614 -52.487974408457852 18.698290245444735 #
straight-curve $-1 56.163908814136356 52.487974408457852 95.765343851359361 0 0 -1 I I #
point $-1 56.163908814136356 52.487974408457852 18.698290245444735 #
straight-curve $-1 22.124549726037728 52.487974408457859 6.9007895960993331 -1 0 0 I I #
point $-1 56.163908814136356 52.487974408457852 6.9007895960993366 #
point $-1 39.142752582620787 37.490557882336681 3.5303321601770659 #
point $-1 49.355446321530124 37.490557882336681 3.5303321601770659 #
point $-1 -75.948362681966614 -52.487974408457852 18.698290245444735 #
straight-curve $-1 0 -52.487974408457852 18.698290245444735 1 0 0 I I #
End-of-ACIS-data 