500 0 10 0           
7 Unknown 11 ACIS 5.0 NT 24 Thu Mar 25 21:44:00 1999 
-1 9.9999999999999995e-007 1e-010 
body $-1 $10 $-1 $11 #
body $-1 $12 $-1 $13 #
body $-1 $14 $-1 $15 #
body $-1 $16 $-1 $17 #
body $-1 $18 $-1 $19 #
body $-1 $20 $-1 $21 #
body $-1 $22 $-1 $23 #
body $-1 $24 $-1 $25 #
body $-1 $26 $-1 $27 #
body $-1 $28 $-1 $29 #
lump $-1 $-1 $30 $0 #
transform $-1 1 0 0 0 1 0 0 0 1 63.390606402783291 26.382927787650903 10.064353845860163 1 rotate no_reflect no_shear #
lump $-1 $-1 $31 $1 #
transform $-1 1 0 0 0 1 0 0 0 1 63.390606402783291 26.382927787650903 10.064353845860163 1 rotate no_reflect no_shear #
lump $-1 $-1 $32 $2 #
transform $-1 1 0 0 0 1 0 0 0 1 63.390606402783291 26.382927787650903 10.064353845860163 1 rotate no_reflect no_shear #
lump $-1 $-1 $33 $3 #
transform $-1 1 0 0 0 1 0 0 0 1 63.390606402783291 26.382927787650903 10.064353845860163 1 rotate no_reflect no_shear #
lump $-1 $-1 $34 $4 #
transform $-1 1 0 0 0 1 0 0 0 1 63.390606402783291 26.382927787650903 10.064353845860163 1 rotate no_reflect no_shear #
lump $-1 $-1 $35 $5 #
transform $-1 1 0 0 0 1 0 0 0 1 63.390606402783291 26.382927787650903 10.064353845860163 1 rotate no_reflect no_shear #
lump $-1 $-1 $36 $6 #
transform $-1 1 0 0 0 1 0 0 0 1 63.390606402783291 26.382927787650903 10.064353845860163 1 rotate no_reflect no_shear #
lump $-1 $-1 $37 $7 #
transform $-1 1 0 0 0 1 0 0 0 1 63.390606402783291 26.382927787650903 10.064353845860163 1 rotate no_reflect no_shear #
lump $-1 $-1 $38 $8 #
transform $-1 1 0 0 0 1 0 0 0 1 63.390606402783291 26.382927787650903 10.064353845860163 1 rotate no_reflect no_shear #
lump $-1 $-1 $39 $9 #
transform $-1 1 0 0 0 1 0 0 0 1 63.390606402783291 26.382927787650903 10.064353845860163 1 rotate no_reflect no_shear #
shell $-1 $-1 $-1 $40 $-1 $10 #
shell $-1 $-1 $-1 $41 $-1 $12 #
shell $-1 $-1 $-1 $42 $-1 $14 #
shell $-1 $-1 $-1 $43 $-1 $16 #
shell $-1 $-1 $-1 $44 $-1 $18 #
shell $-1 $-1 $-1 $45 $-1 $20 #
shell $-1 $-1 $-1 $46 $-1 $22 #
shell $-1 $-1 $-1 $47 $-1 $24 #
shell $-1 $-1 $-1 $48 $-1 $26 #
shell $-1 $-1 $-1 $49 $-1 $28 #
face $-1 $50 $51 $30 $-1 $52 forward single #
face $-1 $53 $54 $31 $-1 $55 forward single #
face $-1 $56 $57 $32 $-1 $58 reversed single #
face $-1 $59 $60 $33 $-1 $61 forward single #
face $-1 $62 $63 $34 $-1 $64 reversed single #
face $-1 $65 $66 $35 $-1 $67 forward single #
face $-1 $68 $69 $36 $-1 $70 reversed single #
face $-1 $71 $72 $37 $-1 $73 forward single #
face $-1 $74 $75 $38 $-1 $76 forward single #
face $-1 $77 $78 $39 $-1 $79 forward single #
face $-1 $80 $81 $30 $-1 $82 reversed single #
loop $-1 $-1 $83 $40 #
plane-surface $-1 0 0 10.064353845860163 0 0 1 1 0 0 forward_v I I I I #
face $-1 $84 $85 $31 $-1 $86 reversed single #
loop $-1 $-1 $87 $41 #
plane-surface $-1 0 -21.964477723864686 -6.4115527182843532 0 0 1 1 0 0 forward_v I I I I #
face $-1 $88 $89 $32 $-1 $90 reversed single #
loop $-1 $-1 $91 $42 #
plane-surface $-1 -136.10932357725551 -13.932685175042179 107.53930750514148 0 1 0 -0.57357644374324357 0 0.81915203911291934 forward_v I I I I #
face $-1 $92 $93 $33 $-1 $94 forward single #
loop $-1 $95 $96 $43 #
cone-surface $-1 -57.940583622589216 -10.147496372801555 5.5962907803840034 0.57357644374324357 0 -0.81915203911291934 1.228728058669379 0 0.86036466561486535 1 I I 0 1 1.5 forward I I I I #
face $-1 $97 $98 $34 $-1 $99 reversed single #
loop $-1 $-1 $100 $44 #
plane-surface $-1 -136.10932357725551 15.199207698133359 107.53930750514148 0 1 0 -0.57357644374324357 0 0.81915203911291934 forward_v I I I I #
face $-1 $101 $102 $35 $-1 $103 forward single #
loop $-1 $104 $105 $45 #
cone-surface $-1 -57.940583622589216 18.984396500373986 5.5962907803840034 0.57357644374324357 0 -0.81915203911291934 1.228728058669379 0 0.86036466561486535 1 I I 0 1 1.5 forward I I I I #
face $-1 $106 $107 $36 $-1 $108 reversed single #
loop $-1 $-1 $109 $46 #
plane-surface $-1 72.774221083420812 1.2595212424258175 182.27613382658112 0 -1 0 -0.74314483375859142 0 -0.66913059716165679 forward_v I I I I #
face $-1 $110 $111 $37 $-1 $112 forward single #
loop $-1 $113 $114 $47 #
cone-surface $-1 59.889598041245065 -7.2485868693276672 6.2648887663088733 -0.74314483375859142 0 -0.66913059716165679 0.66913059716165679 0 -0.74314483375859142 1 I I 0 1 1 forward I I I I #
face $-1 $115 $116 $38 $-1 $117 forward single #
loop $-1 $118 $119 $48 #
cone-surface $-1 59.889598041245065 -4.0580463274201115 6.2648887663088733 -0.74314483375859142 0 -0.66913059716165679 0.66913059716165679 0 -0.74314483375859142 1 I I 0 1 1 forward I I I I #
face $-1 $120 $121 $39 $-1 $122 forward single #
loop $-1 $123 $124 $49 #
cone-surface $-1 59.889598041245065 -0.86750578551255231 6.2648887663088733 -0.74314483375859142 0 -0.66913059716165679 0.66913059716165679 0 -0.74314483375859142 1 I I 0 1 1 forward I I I I #
face $-1 $125 $126 $30 $-1 $127 reversed single #
loop $-1 $-1 $128 $50 #
plane-surface $-1 0 0 -10.064353845860163 0 0 1 1 0 0 forward_v I I I I #
coedge $-1 $129 $130 $131 $132 forward $51 $-1 #
face $-1 $133 $134 $31 $-1 $135 reversed single #
loop $-1 $-1 $136 $53 #
plane-surface $-1 0 -17.546027660078469 -8.2379532820722581 0 -1 0 0 0 -1 forward_v I I I I #
coedge $-1 $137 $138 $139 $140 reversed $54 $-1 #
face $-1 $141 $142 $32 $-1 $143 reversed single #
loop $-1 $-1 $144 $56 #
plane-surface $-1 -63.390606402783263 -10.147496372801552 3.6862185142526585 -0.57357644374324357 0 0.81915203911291934 0.81915203911291934 0 0.57357644374324357 forward_v I I I I #
coedge $-1 $145 $146 $147 $148 reversed $57 $-1 #
face $-1 $-1 $149 $33 $-1 $150 forward single #
loop $-1 $151 $152 $59 #
cone-surface $-1 -56.614839052394807 -10.147496372801555 3.702931351376904 0.57357644374324357 0 -0.81915203911291934 0.61436402933468948 0 0.43018233280743268 1 I I -0.70710678118654757 0.70710678118654757 0.75 forward I I I I #
loop $-1 $-1 $153 $43 #
coedge $-1 $96 $96 $154 $155 reversed $60 $-1 #
face $-1 $156 $157 $34 $-1 $158 reversed single #
loop $-1 $-1 $159 $62 #
plane-surface $-1 -63.390606402783263 18.984396500373986 3.6862185142526585 -0.57357644374324357 0 0.81915203911291934 0.81915203911291934 0 0.57357644374324357 forward_v I I I I #
coedge $-1 $160 $161 $162 $163 reversed $63 $-1 #
face $-1 $-1 $164 $35 $-1 $165 forward single #
loop $-1 $166 $167 $65 #
cone-surface $-1 -56.614839052394807 18.984396500373986 3.702931351376904 0.57357644374324357 0 -0.81915203911291934 0.61436402933468948 0 0.43018233280743268 1 I I -0.70710678118654757 0.70710678118654757 0.75 forward I I I I #
loop $-1 $-1 $168 $45 #
coedge $-1 $105 $105 $169 $170 reversed $66 $-1 #
face $-1 $171 $172 $36 $-1 $173 reversed single #
loop $-1 $-1 $174 $68 #
plane-surface $-1 -21.442582230684565 -4.0580463274201115 97.44294519311326 0.74314483375859142 0 0.66913059716165679 0.66913059716165679 0 -0.74314483375859142 forward_v I I I I #
coedge $-1 $175 $176 $177 $178 reversed $69 $-1 #
face $-1 $-1 $179 $37 $-1 $180 forward single #
loop $-1 $181 $182 $71 #
cone-surface $-1 59.095594041566386 -7.2485868693276672 5.5499643716028881 -0.74314483375859142 0 -0.66913059716165679 0.3345652985808284 0 -0.37157241687929571 1 I I -0.70710678118654746 0.70710678118654746 0.5 forward I I I I #
loop $-1 $-1 $183 $47 #
coedge $-1 $114 $114 $184 $185 reversed $72 $-1 #
face $-1 $-1 $186 $38 $-1 $187 forward single #
loop $-1 $188 $189 $74 #
cone-surface $-1 59.095594041566386 -4.0580463274201115 5.5499643716028881 -0.74314483375859142 0 -0.66913059716165679 0.3345652985808284 0 -0.37157241687929571 1 I I -0.70710678118654746 0.70710678118654746 0.5 forward I I I I #
loop $-1 $-1 $190 $48 #
coedge $-1 $119 $119 $191 $192 reversed $75 $-1 #
face $-1 $-1 $193 $39 $-1 $194 forward single #
loop $-1 $195 $196 $77 #
cone-surface $-1 59.095594041566386 -0.86750578551255231 5.5499643716028881 -0.74314483375859142 0 -0.66913059716165679 0.3345652985808284 0 -0.37157241687929571 1 I I -0.70710678118654746 0.70710678118654746 0.5 forward I I I I #
loop $-1 $-1 $197 $49 #
coedge $-1 $124 $124 $198 $199 reversed $78 $-1 #
face $-1 $200 $201 $30 $-1 $202 reversed single #
loop $-1 $-1 $203 $80 #
plane-surface $-1 0 -26.382927787650903 0 0 1 0 0 0 1 forward_v I I I I #
coedge $-1 $204 $205 $206 $207 forward $81 $-1 #
coedge $-1 $208 $83 $209 $210 forward $51 $-1 #
coedge $-1 $83 $208 $211 $212 forward $51 $-1 #
coedge $-1 $213 $214 $83 $132 reversed $215 $-1 #
edge $-1 $216 -26.382927787650903 $217 26.382927787650903 $131 $218 forward 7 unknown #
face $-1 $219 $220 $31 $-1 $221 reversed single #
loop $-1 $-1 $222 $84 #
plane-surface $-1 0 0 -10.064353845860163 0 0 1 1 0 0 forward_v I I I I #
coedge $-1 $223 $224 $225 $226 reversed $85 $-1 #
coedge $-1 $227 $87 $224 $228 forward $54 $-1 #
coedge $-1 $87 $227 $229 $230 reversed $54 $-1 #
coedge $-1 $231 $225 $87 $140 forward $220 $-1 #
edge $-1 $232 6.5637887981461258 $233 15.40068892571856 $139 $234 forward 7 unknown #
face $-1 $235 $236 $32 $-1 $237 forward single #
loop $-1 $-1 $238 $88 #
plane-surface $-1 -136.10932357725551 -6.3623075705609242 107.53930750514148 0 -1 0 0.57357644374324357 0 -0.81915203911291934 forward_v I I I I #
coedge $-1 $239 $240 $241 $242 reversed $89 $-1 #
coedge $-1 $146 $91 $243 $244 reversed $57 $-1 #
coedge $-1 $91 $145 $239 $245 reversed $57 $-1 #
coedge $-1 $241 $246 $91 $148 forward $236 $-1 #
edge $-1 $247 4.6640553858444633 $248 13.772976471458698 $147 $249 forward 7 unknown #
loop $-1 $-1 $154 $92 #
plane-surface $-1 -63.390606402783263 -10.147496372801552 3.6862185142526585 -0.57357644374324357 0 0.81915203911291934 0.81915203911291934 0 0.57357644374324357 forward_v I I I I #
loop $-1 $-1 $250 $59 #
coedge $-1 $152 $152 $153 $251 reversed $93 $-1 #
coedge $-1 $153 $153 $152 $251 forward $95 $-1 #
coedge $-1 $154 $154 $96 $155 forward $149 $-1 #
edge $-1 $252 0 $252 6.2831853071796004 $154 $253 forward 7 unknown #
face $-1 $254 $255 $34 $-1 $256 forward single #
loop $-1 $-1 $257 $97 #
plane-surface $-1 -136.10932357725551 22.769585302614615 107.53930750514148 0 -1 0 0.57357644374324357 0 -0.81915203911291934 forward_v I I I I #
coedge $-1 $258 $259 $260 $261 reversed $98 $-1 #
coedge $-1 $161 $100 $262 $263 reversed $63 $-1 #
coedge $-1 $100 $160 $258 $264 reversed $63 $-1 #
coedge $-1 $260 $265 $100 $163 forward $255 $-1 #
edge $-1 $266 4.6640553858444633 $267 13.772976471458698 $162 $268 forward 7 unknown #
loop $-1 $-1 $169 $101 #
plane-surface $-1 -63.390606402783263 18.984396500373986 3.6862185142526585 -0.57357644374324357 0 0.81915203911291934 0.81915203911291934 0 0.57357644374324357 forward_v I I I I #
loop $-1 $-1 $269 $65 #
coedge $-1 $167 $167 $168 $270 reversed $102 $-1 #
coedge $-1 $168 $168 $167 $270 forward $104 $-1 #
coedge $-1 $169 $169 $105 $170 forward $164 $-1 #
edge $-1 $271 0 $271 6.2831853071796004 $169 $272 forward 7 unknown #
face $-1 $273 $274 $36 $-1 $275 reversed single #
loop $-1 $-1 $276 $106 #
plane-surface $-1 72.774221083420812 -9.3756138972660406 182.27613382658112 0 1 0 0.74314483375859142 0 0.66913059716165679 forward_v I I I I #
coedge $-1 $277 $278 $279 $280 reversed $107 $-1 #
coedge $-1 $176 $109 $281 $282 reversed $69 $-1 #
coedge $-1 $109 $175 $277 $283 reversed $69 $-1 #
coedge $-1 $279 $284 $109 $178 forward $285 $-1 #
edge $-1 $286 -27.003495861072885 $287 -20.846342303595215 $177 $288 forward 7 unknown #
loop $-1 $-1 $184 $110 #
plane-surface $-1 -21.442582230684565 -4.0580463274201115 97.44294519311326 0.74314483375859142 0 0.66913059716165679 0.66913059716165679 0 -0.74314483375859142 forward_v I I I I #
loop $-1 $-1 $289 $71 #
coedge $-1 $182 $182 $183 $290 reversed $111 $-1 #
coedge $-1 $183 $183 $182 $290 forward $113 $-1 #
coedge $-1 $184 $184 $114 $185 forward $179 $-1 #
edge $-1 $291 0 $291 6.2831853071796004 $184 $292 forward 7 unknown #
loop $-1 $-1 $191 $115 #
plane-surface $-1 -21.442582230684565 -4.0580463274201115 97.44294519311326 0.74314483375859142 0 0.66913059716165679 0.66913059716165679 0 -0.74314483375859142 forward_v I I I I #
loop $-1 $-1 $293 $74 #
coedge $-1 $189 $189 $190 $294 reversed $116 $-1 #
coedge $-1 $190 $190 $189 $294 forward $118 $-1 #
coedge $-1 $191 $191 $119 $192 forward $186 $-1 #
edge $-1 $295 0 $295 6.2831853071796004 $191 $296 forward 7 unknown #
loop $-1 $-1 $198 $120 #
plane-surface $-1 -21.442582230684565 -4.0580463274201115 97.44294519311326 0.74314483375859142 0 0.66913059716165679 0.66913059716165679 0 -0.74314483375859142 forward_v I I I I #
loop $-1 $-1 $297 $77 #
coedge $-1 $196 $196 $197 $298 reversed $121 $-1 #
coedge $-1 $197 $197 $196 $298 forward $123 $-1 #
coedge $-1 $198 $198 $124 $199 forward $193 $-1 #
edge $-1 $299 0 $299 6.2831853071796004 $198 $300 forward 7 unknown #
face $-1 $301 $302 $30 $-1 $303 reversed single #
loop $-1 $-1 $304 $125 #
plane-surface $-1 -63.390606402783291 0 0 1 0 0 0 0 -1 forward_v I I I I #
coedge $-1 $305 $211 $306 $307 forward $126 $-1 #
coedge $-1 $308 $128 $305 $309 forward $81 $-1 #
coedge $-1 $128 $308 $310 $311 forward $81 $-1 #
coedge $-1 $214 $213 $128 $207 reversed $215 $-1 #
edge $-1 $312 -26.382927787650903 $313 26.382927787650903 $206 $314 forward 7 unknown #
coedge $-1 $130 $129 $315 $316 forward $51 $-1 #
coedge $-1 $317 $318 $129 $210 reversed $302 $-1 #
edge $-1 $217 -63.390606402783291 $319 63.390606402783291 $209 $320 forward 7 unknown #
coedge $-1 $203 $321 $130 $212 reversed $126 $-1 #
edge $-1 $322 -63.390606402783291 $216 63.390606402783291 $211 $323 forward 7 unknown #
coedge $-1 $206 $131 $321 $324 forward $215 $-1 #
coedge $-1 $131 $206 $317 $325 reversed $215 $-1 #
loop $-1 $-1 $213 $301 #
vertex $-1 $132 $326 #
vertex $-1 $132 $327 #
straight-curve $-1 63.390606402783291 0 10.064353845860163 0 1 0 I I #
face $-1 $328 $329 $31 $-1 $330 reversed single #
loop $-1 $-1 $225 $133 #
plane-surface $-1 63.390606402783291 0 0 -1 0 0 0 0 1 forward_v I I I I #
coedge $-1 $331 $332 $223 $333 forward $134 $-1 #
coedge $-1 $334 $136 $222 $333 reversed $85 $-1 #
coedge $-1 $136 $334 $137 $228 reversed $85 $-1 #
coedge $-1 $139 $335 $136 $226 forward $220 $-1 #
edge $-1 $336 -5.9453772048240339 $232 -2.2925760772482242 $225 $337 forward 7 unknown #
coedge $-1 $138 $137 $338 $339 reversed $54 $-1 #
edge $-1 $232 -63.390606402783291 $340 63.390606402783291 $224 $341 forward 7 unknown #
coedge $-1 $342 $343 $138 $230 forward $329 $-1 #
edge $-1 $233 -63.390606402783291 $344 63.390606402783291 $229 $345 forward 7 unknown #
coedge $-1 $335 $139 $343 $346 forward $220 $-1 #
vertex $-1 $140 $347 #
vertex $-1 $346 $348 #
straight-curve $-1 63.390606402783291 -10.982238861932343 -6.4115527182843532 0 -1 0 I I #
face $-1 $-1 $349 $32 $-1 $350 reversed single #
loop $-1 $-1 $147 $141 #
plane-surface $-1 0 0 10.064353845860163 0 0 1 1 0 0 forward_v I I I I #
coedge $-1 $351 $352 $353 $354 reversed $142 $-1 #
coedge $-1 $355 $144 $146 $245 forward $89 $-1 #
coedge $-1 $144 $355 $351 $356 forward $89 $-1 #
coedge $-1 $353 $147 $144 $242 forward $236 $-1 #
edge $-1 $248 -8.8589369886414033 $357 -1.2885593841601484 $241 $358 forward 7 unknown #
coedge $-1 $359 $360 $145 $244 forward $349 $-1 #
edge $-1 $361 -50.083435238318103 $247 -43.705299906710579 $243 $362 forward 7 unknown #
edge $-1 $248 -11.119939462616109 $361 3.4744061171064897e-014 $146 $363 forward 7 unknown #
coedge $-1 $147 $353 $359 $364 forward $236 $-1 #
vertex $-1 $244 $365 #
vertex $-1 $148 $366 #
straight-curve $-1 -68.054661788627755 -13.932685175042179 10.064353845860161 1 0 0 I I #
coedge $-1 $250 $250 $-1 $367 reversed $151 $-1 #
edge $-1 $368 0 $368 6.2831853071796004 $152 $369 forward 7 unknown #
vertex $-1 $155 $370 #
ellipse-curve $-1 -58.836145859976178 -10.147496372801555 6.8752861800563956 -0.57357644374324357 0 0.81915203911291934 1.228728058669379 0 0.86036466561486535 1 I I #
face $-1 $-1 $371 $34 $-1 $372 reversed single #
loop $-1 $-1 $162 $156 #
plane-surface $-1 0 0 10.064353845860163 0 0 1 1 0 0 forward_v I I I I #
coedge $-1 $373 $374 $375 $376 reversed $157 $-1 #
coedge $-1 $377 $159 $161 $264 forward $98 $-1 #
coedge $-1 $159 $377 $373 $378 forward $98 $-1 #
coedge $-1 $375 $162 $159 $261 forward $255 $-1 #
edge $-1 $267 5.7070094479463656 $379 13.277387052427622 $260 $380 forward 7 unknown #
coedge $-1 $381 $382 $160 $263 forward $371 $-1 #
edge $-1 $383 -50.083435238318103 $266 -43.705299906710579 $262 $384 forward 7 unknown #
edge $-1 $267 -11.119939462616109 $383 3.4744061171064897e-014 $161 $385 forward 7 unknown #
coedge $-1 $162 $375 $381 $386 forward $255 $-1 #
vertex $-1 $163 $387 #
vertex $-1 $163 $388 #
straight-curve $-1 -68.054661788627755 15.199207698133359 10.064353845860161 1 0 0 I I #
coedge $-1 $269 $269 $-1 $389 reversed $166 $-1 #
edge $-1 $390 0 $390 6.2831853071796004 $167 $391 forward 7 unknown #
vertex $-1 $170 $392 #
ellipse-curve $-1 -58.836145859976178 18.984396500373986 6.8752861800563956 -0.57357644374324357 0 0.81915203911291934 1.228728058669379 0 0.86036466561486535 1 I I #
face $-1 $-1 $285 $36 $-1 $393 forward single #
loop $-1 $-1 $394 $171 #
plane-surface $-1 63.390606402783291 0 0 -1 0 0 0 0 1 forward_v I I I I #
coedge $-1 $395 $396 $397 $398 reversed $172 $-1 #
coedge $-1 $399 $174 $176 $283 forward $107 $-1 #
coedge $-1 $174 $399 $395 $400 forward $107 $-1 #
coedge $-1 $397 $177 $174 $280 forward $285 $-1 #
edge $-1 $287 -3.2885444061358733 $401 7.3465907335559848 $279 $402 forward 7 unknown #
coedge $-1 $403 $404 $175 $282 forward $274 $-1 #
edge $-1 $405 -87.911925034282675 $286 -81.07371306743039 $281 $406 forward 7 unknown #
edge $-1 $287 117.57949107352306 $405 126.78121280556658 $176 $407 forward 7 unknown #
coedge $-1 $177 $397 $403 $408 forward $285 $-1 #
loop $-1 $-1 $397 $273 #
vertex $-1 $282 $409 #
vertex $-1 $178 $410 #
straight-curve $-1 36.387110541710406 1.2595212424258175 10.064353845860168 -1 0 0 I I #
coedge $-1 $289 $289 $-1 $411 reversed $181 $-1 #
edge $-1 $412 0 $412 6.2831853071796004 $182 $413 forward 7 unknown #
vertex $-1 $185 $414 #
ellipse-curve $-1 60.312029624044456 -7.2485868693276672 6.6452478624340339 0.74314483375859142 0 0.66913059716165679 0.66913059716165679 0 -0.74314483375859142 1 I I #
coedge $-1 $293 $293 $-1 $415 reversed $188 $-1 #
edge $-1 $416 0 $416 6.2831853071796004 $189 $417 forward 7 unknown #
vertex $-1 $192 $418 #
ellipse-curve $-1 60.312029624044456 -4.0580463274201115 6.6452478624340339 0.74314483375859142 0 0.66913059716165679 0.66913059716165679 0 -0.74314483375859142 1 I I #
coedge $-1 $297 $297 $-1 $419 reversed $195 $-1 #
edge $-1 $420 0 $420 6.2831853071796004 $196 $421 forward 7 unknown #
vertex $-1 $199 $422 #
ellipse-curve $-1 60.312029624044456 -0.86750578551255231 6.6452478624340339 0.74314483375859142 0 0.66913059716165679 0.66913059716165679 0 -0.74314483375859142 1 I I #
face $-1 $-1 $215 $30 $-1 $423 reversed single #
loop $-1 $-1 $317 $200 #
plane-surface $-1 0 26.382927787650903 0 0 -1 0 0 0 -1 forward_v I I I I #
coedge $-1 $424 $315 $318 $425 forward $201 $-1 #
coedge $-1 $321 $203 $204 $309 reversed $126 $-1 #
coedge $-1 $315 $424 $203 $307 reversed $201 $-1 #
edge $-1 $322 -10.064353845860163 $426 10.064353845860163 $306 $427 forward 7 unknown #
coedge $-1 $205 $204 $424 $428 forward $81 $-1 #
edge $-1 $313 -63.390606402783291 $426 63.390606402783291 $305 $429 forward 7 unknown #
coedge $-1 $318 $317 $205 $311 reversed $302 $-1 #
edge $-1 $430 -63.390606402783291 $312 63.390606402783291 $310 $431 forward 7 unknown #
vertex $-1 $207 $432 #
vertex $-1 $324 $433 #
straight-curve $-1 63.390606402783291 0 -10.064353845860163 0 -1 0 I I #
coedge $-1 $304 $306 $208 $316 reversed $201 $-1 #
edge $-1 $319 -26.382927787650903 $322 26.382927787650903 $315 $434 forward 7 unknown #
coedge $-1 $310 $209 $214 $325 forward $302 $-1 #
coedge $-1 $209 $310 $304 $425 reversed $302 $-1 #
vertex $-1 $210 $435 #
straight-curve $-1 0 26.382927787650903 10.064353845860163 -1 0 0 I I #
coedge $-1 $211 $305 $213 $324 reversed $126 $-1 #
vertex $-1 $316 $436 #
straight-curve $-1 0 -26.382927787650903 10.064353845860163 1 0 0 I I #
edge $-1 $216 -10.064353845860163 $313 10.064353845860163 $213 $437 forward 7 unknown #
edge $-1 $217 -10.064353845860163 $312 10.064353845860163 $214 $438 forward 7 unknown #
point $-1 63.390606402783291 -26.382927787650903 10.064353845860163 #
point $-1 63.390606402783291 26.382927787650903 10.064353845860163 #
face $-1 $-1 $439 $31 $-1 $440 reversed single #
loop $-1 $-1 $229 $219 #
plane-surface $-1 0 -26.382927787650903 0 0 1 0 0 0 1 forward_v I I I I #
coedge $-1 $441 $222 $335 $442 forward $134 $-1 #
coedge $-1 $222 $441 $443 $444 forward $134 $-1 #
edge $-1 $445 -63.390606402783291 $336 63.390606402783291 $222 $446 forward 7 unknown #
coedge $-1 $224 $223 $447 $448 reversed $85 $-1 #
coedge $-1 $225 $231 $331 $442 reversed $220 $-1 #
vertex $-1 $442 $449 #
straight-curve $-1 63.390606402783291 -17.546027660078469 -4.118976641036129 0 0 1 I I #
coedge $-1 $447 $450 $227 $339 forward $439 $-1 #
edge $-1 $344 -15.40068892571856 $340 -6.5637887981461258 $338 $451 forward 7 unknown #
vertex $-1 $339 $452 #
straight-curve $-1 0 -17.546027660078469 -6.4115527182843532 -1 0 0 I I #
coedge $-1 $453 $229 $450 $454 forward $329 $-1 #
coedge $-1 $229 $453 $231 $346 reversed $329 $-1 #
vertex $-1 $454 $455 #
straight-curve $-1 0 -26.382927787650903 -6.4115527182843532 -1 0 0 I I #
edge $-1 $233 6.4115527182843532 $456 10.064353845860163 $231 $457 forward 7 unknown #
point $-1 63.390606402783291 -17.546027660078469 -6.4115527182843532 #
point $-1 63.390606402783291 -26.382927787650903 -6.4115527182843532 #
loop $-1 $-1 $243 $235 #
plane-surface $-1 -63.390606402783291 0 0 1 0 0 0 0 -1 forward_v I I I I #
coedge $-1 $352 $238 $240 $356 reversed $142 $-1 #
coedge $-1 $238 $351 $458 $459 reversed $142 $-1 #
coedge $-1 $246 $241 $238 $354 forward $236 $-1 #
edge $-1 $357 -13.772976471458698 $460 -4.6640553858444633 $353 $461 forward 7 unknown #
coedge $-1 $240 $239 $360 $462 reversed $89 $-1 #
edge $-1 $463 -3.4744061171064897e-014 $357 11.119939462616109 $351 $464 forward 7 unknown #
vertex $-1 $242 $465 #
straight-curve $-1 -54.28168531716905 -5.0737481864007759 10.064353845860163 0 1 0 I I #
coedge $-1 $458 $243 $246 $364 reversed $349 $-1 #
coedge $-1 $243 $458 $355 $462 forward $349 $-1 #
vertex $-1 $244 $466 #
straight-curve $-1 -63.390606402783291 -13.932685175042179 53.76965375257074 0 0 1 I I #
straight-curve $-1 -63.390606402783263 -13.932685175042179 3.6862185142526585 -0.81915203911291934 0 -0.57357644374324357 I I #
edge $-1 $460 6.3623075705609242 $247 13.932685175042179 $359 $467 forward 7 unknown #
point $-1 -63.390606402783291 -13.932685175042179 10.064353845860163 #
point $-1 -54.281685317169057 -13.932685175042179 10.064353845860163 #
edge $-1 $468 1 $468 0 $250 $-1 forward 7 unknown #
vertex $-1 $251 $469 #
ellipse-curve $-1 -57.04502138520224 -10.147496372801555 4.3172953807115935 -0.57357644374324357 0 0.81915203911291934 1.228728058669379 0 0.86036466561486535 1 I I #
point $-1 -57.607417801306809 -10.147496372801555 7.7356508456712785 #
loop $-1 $-1 $262 $254 #
plane-surface $-1 -63.390606402783291 0 0 1 0 0 0 0 -1 forward_v I I I I #
coedge $-1 $374 $257 $259 $378 reversed $157 $-1 #
coedge $-1 $257 $373 $470 $471 reversed $157 $-1 #
coedge $-1 $265 $260 $257 $376 forward $255 $-1 #
edge $-1 $379 -13.772976471458698 $472 -4.6640553858444633 $375 $473 forward 7 unknown #
coedge $-1 $259 $258 $382 $474 reversed $98 $-1 #
edge $-1 $475 -3.4744061171064897e-014 $379 11.119939462616109 $373 $476 forward 7 unknown #
vertex $-1 $261 $477 #
straight-curve $-1 -54.28168531716905 9.492198250186993 10.064353845860163 0 1 0 I I #
coedge $-1 $470 $262 $265 $386 reversed $371 $-1 #
coedge $-1 $262 $470 $377 $474 forward $371 $-1 #
vertex $-1 $263 $478 #
straight-curve $-1 -63.390606402783291 15.199207698133359 53.76965375257074 0 0 1 I I #
straight-curve $-1 -63.390606402783263 15.199207698133359 3.6862185142526585 -0.81915203911291934 0 -0.57357644374324357 I I #
edge $-1 $472 -22.769585302614615 $266 -15.199207698133359 $381 $479 forward 7 unknown #
point $-1 -63.390606402783291 15.199207698133359 10.064353845860163 #
point $-1 -54.281685317169057 15.199207698133359 10.064353845860163 #
edge $-1 $480 1 $480 0 $269 $-1 forward 7 unknown #
vertex $-1 $270 $481 #
ellipse-curve $-1 -57.04502138520224 18.984396500373986 4.3172953807115935 -0.57357644374324357 0 0.81915203911291934 1.228728058669379 0 0.86036466561486535 1 I I #
point $-1 -57.607417801306809 18.984396500373986 7.7356508456712785 #
plane-surface $-1 0 0 10.064353845860163 0 0 1 1 0 0 forward_v I I I I #
coedge $-1 $404 $403 $396 $482 forward $274 $-1 #
coedge $-1 $396 $276 $278 $400 reversed $172 $-1 #
coedge $-1 $276 $395 $394 $482 reversed $172 $-1 #
coedge $-1 $284 $279 $276 $398 forward $285 $-1 #
edge $-1 $401 20.846342303595215 $483 27.003495861072885 $397 $484 forward 7 unknown #
coedge $-1 $278 $277 $404 $485 reversed $107 $-1 #
edge $-1 $486 -126.78121280556658 $401 -117.57949107352306 $395 $487 forward 7 unknown #
vertex $-1 $280 $488 #
straight-curve $-1 57.233452845305621 -2.0290231637100558 10.064353845860168 0 -1 0 I I #
coedge $-1 $394 $281 $284 $408 reversed $274 $-1 #
coedge $-1 $281 $394 $399 $485 forward $274 $-1 #
vertex $-1 $282 $489 #
straight-curve $-1 63.390606402783291 1.2595212424258175 91.138066913290558 0 0 1 I I #
straight-curve $-1 -21.442582230684565 1.2595212424258175 97.44294519311326 0.66913059716165679 0 -0.74314483375859142 I I #
edge $-1 $483 -9.3756138972660406 $286 1.2595212424258175 $403 $490 forward 7 unknown #
point $-1 63.390606402783291 1.2595212424258175 10.064353845860163 #
point $-1 57.233452845305621 1.2595212424258175 10.064353845860168 #
edge $-1 $491 1 $491 0 $289 $-1 forward 7 unknown #
vertex $-1 $290 $492 #
ellipse-curve $-1 59.467166458445682 -7.2485868693276672 5.8845296701837162 0.74314483375859142 0 0.66913059716165679 0.66913059716165679 0 -0.74314483375859142 1 I I #
point $-1 60.98116022120611 -7.2485868693276672 5.9021030286754392 #
edge $-1 $493 1 $493 0 $293 $-1 forward 7 unknown #
vertex $-1 $294 $494 #
ellipse-curve $-1 59.467166458445682 -4.0580463274201115 5.8845296701837162 0.74314483375859142 0 0.66913059716165679 0.66913059716165679 0 -0.74314483375859142 1 I I #
point $-1 60.98116022120611 -4.0580463274201115 5.9021030286754392 #
edge $-1 $495 1 $495 0 $297 $-1 forward 7 unknown #
vertex $-1 $298 $496 #
ellipse-curve $-1 59.467166458445682 -0.86750578551255231 5.8845296701837162 0.74314483375859142 0 0.66913059716165679 0.66913059716165679 0 -0.74314483375859142 1 I I #
point $-1 60.98116022120611 -0.86750578551255231 5.9021030286754392 #
plane-surface $-1 63.390606402783291 0 0 -1 0 0 0 0 1 forward_v I I I I #
coedge $-1 $306 $304 $308 $428 reversed $201 $-1 #
edge $-1 $319 -10.064353845860163 $430 10.064353845860163 $318 $497 forward 7 unknown #
vertex $-1 $428 $498 #
straight-curve $-1 -63.390606402783291 -26.382927787650903 0 0 0 -1 I I #
edge $-1 $426 -26.382927787650903 $430 26.382927787650903 $424 $499 forward 7 unknown #
straight-curve $-1 0 -26.382927787650903 -10.064353845860163 -1 0 0 I I #
vertex $-1 $311 $500 #
straight-curve $-1 0 26.382927787650903 -10.064353845860163 1 0 0 I I #
point $-1 63.390606402783291 26.382927787650903 -10.064353845860163 #
point $-1 63.390606402783291 -26.382927787650903 -10.064353845860163 #
straight-curve $-1 -63.390606402783291 0 10.064353845860163 0 -1 0 I I #
point $-1 -63.390606402783291 26.382927787650903 10.064353845860163 #
point $-1 -63.390606402783291 -26.382927787650903 10.064353845860163 #
straight-curve $-1 63.390606402783291 -26.382927787650903 0 0 0 -1 I I #
straight-curve $-1 63.390606402783291 26.382927787650903 0 0 0 -1 I I #
loop $-1 $-1 $447 $328 #
plane-surface $-1 -63.390606402783291 0 0 1 0 0 0 0 -1 forward_v I I I I #
coedge $-1 $332 $331 $453 $501 forward $134 $-1 #
edge $-1 $336 17.546027660078469 $456 26.382927787650903 $335 $502 forward 7 unknown #
coedge $-1 $450 $447 $332 $444 reversed $439 $-1 #
edge $-1 $503 -26.382927787650903 $445 -17.546027660078469 $443 $504 forward 7 unknown #
vertex $-1 $448 $505 #
straight-curve $-1 0 -17.546027660078469 -10.064353845860163 1 0 0 I I #
coedge $-1 $443 $338 $334 $448 forward $439 $-1 #
edge $-1 $340 2.2925760772482242 $445 5.9453772048240339 $447 $506 forward 7 unknown #
point $-1 63.390606402783291 -17.546027660078469 -10.064353845860163 #
coedge $-1 $338 $443 $342 $454 reversed $439 $-1 #
straight-curve $-1 -63.390606402783291 -10.982238861932343 -6.4115527182843532 0 1 0 I I #
point $-1 -63.390606402783291 -17.546027660078469 -6.4115527182843532 #
coedge $-1 $343 $342 $441 $501 reversed $329 $-1 #
edge $-1 $344 6.4115527182843532 $503 10.064353845860163 $450 $507 forward 7 unknown #
point $-1 -63.390606402783291 -26.382927787650903 -6.4115527182843532 #
vertex $-1 $346 $508 #
straight-curve $-1 63.390606402783291 -26.382927787650903 0 0 0 -1 I I #
coedge $-1 $360 $359 $352 $459 forward $349 $-1 #
edge $-1 $460 43.705299906710579 $463 50.083435238318103 $458 $509 forward 7 unknown #
vertex $-1 $364 $510 #
straight-curve $-1 -68.054661788627755 -6.3623075705609242 10.064353845860161 -1 0 0 I I #
edge $-1 $463 1.2885593841601484 $361 8.8589369886414033 $360 $511 forward 7 unknown #
vertex $-1 $462 $512 #
straight-curve $-1 -63.390606402783263 -6.3623075705609242 3.6862185142526585 0.81915203911291934 0 0.57357644374324357 I I #
point $-1 -54.281685317169057 -6.3623075705609242 10.064353845860163 #
point $-1 -63.390606402783291 -13.932685175042179 3.6862185142526385 #
straight-curve $-1 -63.390606402783291 0 10.064353845860163 0 -1 0 I I #
vertex $-1 $367 $513 #
point $-1 -55.816293326532858 -10.147496372801555 5.1776600463264586 #
coedge $-1 $382 $381 $374 $471 forward $371 $-1 #
edge $-1 $472 43.705299906710579 $475 50.083435238318103 $470 $514 forward 7 unknown #
vertex $-1 $386 $515 #
straight-curve $-1 -68.054661788627755 22.769585302614615 10.064353845860161 -1 0 0 I I #
edge $-1 $475 -13.277387052427622 $383 -5.7070094479463656 $382 $516 forward 7 unknown #
vertex $-1 $474 $517 #
straight-curve $-1 -63.390606402783263 22.769585302614615 3.6862185142526585 0.81915203911291934 0 0.57357644374324357 I I #
point $-1 -54.281685317169057 22.769585302614615 10.064353845860163 #
point $-1 -63.390606402783291 15.199207698133359 3.6862185142526385 #
straight-curve $-1 -63.390606402783291 0 10.064353845860163 0 -1 0 I I #
vertex $-1 $389 $518 #
point $-1 -55.816293326532858 18.984396500373986 5.1776600463264586 #
edge $-1 $483 81.07371306743039 $486 87.911925034282675 $394 $519 forward 7 unknown #
vertex $-1 $408 $520 #
straight-curve $-1 36.387110541710406 -9.3756138972660406 10.064353845860168 1 0 0 I I #
edge $-1 $486 -7.3465907335559848 $405 3.2885444061358733 $404 $521 forward 7 unknown #
vertex $-1 $485 $522 #
straight-curve $-1 -21.442582230684565 -9.3756138972660406 97.44294519311326 -0.66913059716165679 0 0.74314483375859142 I I #
point $-1 57.233452845305621 -9.3756138972660406 10.064353845860168 #
point $-1 63.390606402783291 1.2595212424258175 3.2261418790078835 #
straight-curve $-1 63.390606402783291 0 10.064353845860163 0 1 0 I I #
vertex $-1 $411 $523 #
point $-1 60.136297055607336 -7.2485868693276672 5.1413848364251251 #
vertex $-1 $415 $524 #
point $-1 60.136297055607336 -4.0580463274201115 5.1413848364251251 #
vertex $-1 $419 $525 #
point $-1 60.136297055607336 -0.86750578551255231 5.1413848364251251 #
straight-curve $-1 -63.390606402783291 26.382927787650903 0 0 0 -1 I I #
point $-1 -63.390606402783291 -26.382927787650903 -10.064353845860163 #
straight-curve $-1 -63.390606402783291 0 -10.064353845860163 0 1 0 I I #
point $-1 -63.390606402783291 26.382927787650903 -10.064353845860163 #
edge $-1 $456 -63.390606402783291 $503 63.390606402783291 $453 $526 forward 7 unknown #
straight-curve $-1 63.390606402783291 0 -10.064353845860163 0 -1 0 I I #
vertex $-1 $444 $527 #
straight-curve $-1 -63.390606402783291 0 -10.064353845860163 0 1 0 I I #
point $-1 -63.390606402783291 -17.546027660078469 -10.064353845860163 #
straight-curve $-1 -63.390606402783291 -17.546027660078469 -4.118976641036129 0 0 -1 I I #
straight-curve $-1 -63.390606402783291 -26.382927787650903 0 0 0 -1 I I #
point $-1 63.390606402783291 -26.382927787650903 -10.064353845860163 #
straight-curve $-1 -63.390606402783291 -6.3623075705609242 53.76965375257074 0 0 -1 I I #
point $-1 -63.390606402783291 -6.3623075705609242 10.064353845860163 #
straight-curve $-1 -63.390606402783291 -5.0737481864007759 3.6862185142526345 0 -1 0 I I #
point $-1 -63.390606402783291 -6.3623075705609242 3.6862185142526385 #
point $-1 -56.184656719587373 -10.147496372801555 3.0885673220422145 #
straight-curve $-1 -63.390606402783291 22.769585302614615 53.76965375257074 0 0 -1 I I #
point $-1 -63.390606402783291 22.769585302614615 10.064353845860163 #
straight-curve $-1 -63.390606402783291 9.492198250186993 3.6862185142526345 0 -1 0 I I #
point $-1 -63.390606402783291 22.769585302614615 3.6862185142526385 #
point $-1 -56.184656719587373 18.984396500373986 3.0885673220422145 #
straight-curve $-1 63.390606402783291 -9.3756138972660406 91.138066913290558 0 0 -1 I I #
point $-1 63.390606402783291 -9.3756138972660406 10.064353845860163 #
straight-curve $-1 63.390606402783291 -2.0290231637100558 3.2261418790078693 0 1 0 I I #
point $-1 63.390606402783291 -9.3756138972660406 3.2261418790078835 #
point $-1 58.72402162468709 -7.2485868693276672 5.2153990730220601 #
point $-1 58.72402162468709 -4.0580463274201115 5.2153990730220601 #
point $-1 58.72402162468709 -0.86750578551255231 5.2153990730220601 #
straight-curve $-1 0 -26.382927787650903 -10.064353845860163 -1 0 0 I I #
point $-1 -63.390606402783291 -26.382927787650903 -10.064353845860163 #
End-of-ACIS-data 