500 0 5 0           
7 Unknown 11 ACIS 5.0 NT 24 Fri Mar 26 16:20:16 1999 
-1 9.9999999999999995e-007 1e-010 
body $-1 $5 $-1 $6 #
body $-1 $7 $-1 $8 #
body $-1 $9 $-1 $10 #
body $-1 $11 $-1 $12 #
body $-1 $13 $-1 $14 #
lump $-1 $-1 $15 $0 #
transform $-1 1 0 0 0 1 0 0 0 1 51.254005554368725 27.379527812223113 10.583402853994468 1 rotate no_reflect no_shear #
lump $-1 $-1 $16 $1 #
transform $-1 1 0 0 0 1 0 0 0 1 51.254005554368725 27.379527812223113 10.583402853994468 1 rotate no_reflect no_shear #
lump $-1 $-1 $17 $2 #
transform $-1 1 0 0 0 1 0 0 0 1 51.254005554368725 27.379527812223113 10.583402853994468 1 rotate no_reflect no_shear #
lump $-1 $-1 $18 $3 #
transform $-1 1 0 0 0 1 0 0 0 1 51.254005554368725 27.379527812223113 10.583402853994468 1 rotate no_reflect no_shear #
lump $-1 $-1 $19 $4 #
transform $-1 1 0 0 0 1 0 0 0 1 51.254005554368725 27.379527812223113 10.583402853994468 1 rotate no_reflect no_shear #
shell $-1 $-1 $-1 $20 $-1 $5 #
shell $-1 $-1 $-1 $21 $-1 $7 #
shell $-1 $-1 $-1 $22 $-1 $9 #
shell $-1 $-1 $-1 $23 $-1 $11 #
shell $-1 $-1 $-1 $24 $-1 $13 #
face $-1 $25 $26 $15 $-1 $27 forward single #
face $-1 $28 $29 $16 $-1 $30 forward single #
face $-1 $31 $32 $17 $-1 $33 reversed single #
face $-1 $34 $35 $18 $-1 $36 forward single #
face $-1 $37 $38 $19 $-1 $39 forward single #
face $-1 $40 $41 $15 $-1 $42 reversed single #
loop $-1 $-1 $43 $20 #
plane-surface $-1 0 0 10.583402853994468 0 0 1 1 0 0 forward_v I I I I #
face $-1 $44 $45 $16 $-1 $46 reversed single #
loop $-1 $-1 $47 $21 #
plane-surface $-1 -44.490979547065493 0 8.6251778788482234 0 0 1 1 0 0 forward_v I I I I #
face $-1 $48 $49 $17 $-1 $50 reversed single #
loop $-1 $-1 $51 $22 #
plane-surface $-1 -32.21457696818522 -97.289824112829749 76.68500252849276 1 0 0 0 0.68199836817093118 -0.7313536940579346 forward_v I I I I #
face $-1 $52 $53 $18 $-1 $54 forward single #
loop $-1 $55 $56 $23 #
cone-surface $-1 -26.14676997512468 -18.744509287220207 1.9884677244776627 0 0.68199836817093118 -0.7313536940579346 3 0 0 1 I I 0 1 3 forward I I I I #
face $-1 $57 $58 $19 $-1 $59 forward single #
loop $-1 $60 $61 $24 #
cone-surface $-1 -17.045059485533876 -18.744509287220207 1.9884677244776627 0 0.68199836817093118 -0.7313536940579346 3 0 0 1 I I 0 1 3 forward I I I I #
face $-1 $62 $63 $15 $-1 $64 reversed single #
loop $-1 $-1 $65 $25 #
plane-surface $-1 0 0 -10.583402853994468 0 0 1 1 0 0 forward_v I I I I #
coedge $-1 $66 $67 $68 $69 forward $26 $-1 #
face $-1 $70 $71 $16 $-1 $72 reversed single #
loop $-1 $-1 $73 $28 #
plane-surface $-1 -44.490979547065493 0 5.6251778788482234 0 0 1 1 0 0 forward_v I I I I #
coedge $-1 $74 $75 $76 $77 forward $29 $-1 #
face $-1 $78 $79 $17 $-1 $80 reversed single #
loop $-1 $-1 $81 $31 #
plane-surface $-1 -21.595914730329277 -27.379527812223117 1.7153899335858256 0 -0.68199836817093118 0.7313536940579346 1 0 0 forward_v I I I I #
coedge $-1 $82 $83 $84 $85 reversed $32 $-1 #
face $-1 $-1 $86 $18 $-1 $87 forward single #
loop $-1 $88 $89 $34 #
cone-surface $-1 -26.14676997512468 -13.841382892240048 -3.269491485921729 0 0.68199836817093118 -0.7313536940579346 1.5 0 0 1 I I -0.70710678118654757 0.70710678118654757 1.5 forward I I I I #
loop $-1 $-1 $90 $23 #
coedge $-1 $56 $56 $91 $92 reversed $35 $-1 #
face $-1 $-1 $93 $19 $-1 $94 forward single #
loop $-1 $95 $96 $37 #
cone-surface $-1 -17.045059485533876 -13.841382892240048 -3.269491485921729 0 0.68199836817093118 -0.7313536940579346 1.5 0 0 1 I I -0.70710678118654757 0.70710678118654757 1.5 forward I I I I #
loop $-1 $-1 $97 $24 #
coedge $-1 $61 $61 $98 $99 reversed $38 $-1 #
face $-1 $100 $101 $15 $-1 $102 reversed single #
loop $-1 $-1 $103 $40 #
plane-surface $-1 0 -27.379527812223113 0 0 1 0 0 0 1 forward_v I I I I #
coedge $-1 $104 $105 $106 $107 forward $41 $-1 #
coedge $-1 $108 $43 $109 $110 forward $26 $-1 #
coedge $-1 $43 $108 $111 $112 forward $26 $-1 #
coedge $-1 $113 $114 $43 $69 reversed $115 $-1 #
edge $-1 $116 -27.379527812223113 $117 27.379527812223113 $68 $118 forward 7 unknown #
face $-1 $119 $120 $16 $-1 $121 reversed single #
loop $-1 $-1 $122 $44 #
plane-surface $-1 -37.727953539762261 0 7.1251778788482234 -1 0 0 0 0 1 forward_v I I I I #
coedge $-1 $123 $124 $125 $126 forward $45 $-1 #
coedge $-1 $127 $47 $128 $129 reversed $29 $-1 #
coedge $-1 $47 $127 $130 $131 reversed $29 $-1 #
coedge $-1 $122 $132 $47 $77 reversed $71 $-1 #
edge $-1 $133 -27.379527812223113 $134 27.379527812223113 $76 $135 forward 7 unknown #
face $-1 $136 $137 $17 $-1 $138 forward single #
loop $-1 $-1 $139 $48 #
plane-surface $-1 -10.977252492473333 -97.289824112829749 76.68500252849276 -1 0 0 0 -0.68199836817093118 0.7313536940579346 forward_v I I I I #
coedge $-1 $140 $141 $142 $143 reversed $49 $-1 #
coedge $-1 $83 $51 $144 $145 reversed $32 $-1 #
coedge $-1 $51 $82 $140 $146 reversed $32 $-1 #
coedge $-1 $142 $147 $51 $85 forward $148 $-1 #
edge $-1 $149 27.759098410251912 $150 36.627111330660554 $84 $151 forward 7 unknown #
loop $-1 $-1 $91 $52 #
plane-surface $-1 -21.595914730329277 -27.379527812223117 1.7153899335858256 0 -0.68199836817093118 0.7313536940579346 1 0 0 forward_v I I I I #
loop $-1 $-1 $152 $34 #
coedge $-1 $89 $89 $90 $153 reversed $53 $-1 #
coedge $-1 $90 $90 $89 $153 forward $55 $-1 #
coedge $-1 $91 $91 $56 $92 forward $86 $-1 #
edge $-1 $154 4.0382415525341458e-016 $154 6.2831853071796004 $91 $155 forward 7 unknown #
loop $-1 $-1 $98 $57 #
plane-surface $-1 -21.595914730329277 -27.379527812223117 1.7153899335858256 0 -0.68199836817093118 0.7313536940579346 1 0 0 forward_v I I I I #
loop $-1 $-1 $156 $37 #
coedge $-1 $96 $96 $97 $157 reversed $58 $-1 #
coedge $-1 $97 $97 $96 $157 forward $60 $-1 #
coedge $-1 $98 $98 $61 $99 forward $93 $-1 #
edge $-1 $158 4.0382415525341458e-016 $158 6.2831853071796004 $98 $159 forward 7 unknown #
face $-1 $160 $161 $15 $-1 $162 reversed single #
loop $-1 $-1 $163 $62 #
plane-surface $-1 -51.254005554368725 0 0 1 0 0 0 0 -1 forward_v I I I I #
coedge $-1 $164 $111 $165 $166 forward $63 $-1 #
coedge $-1 $167 $65 $164 $168 forward $41 $-1 #
coedge $-1 $65 $167 $169 $170 forward $41 $-1 #
coedge $-1 $114 $113 $65 $107 reversed $115 $-1 #
edge $-1 $171 -27.379527812223113 $172 27.379527812223113 $106 $173 forward 7 unknown #
coedge $-1 $67 $66 $174 $175 forward $26 $-1 #
coedge $-1 $176 $177 $66 $110 reversed $161 $-1 #
edge $-1 $117 -51.254005554368725 $178 51.254005554368725 $109 $179 forward 7 unknown #
coedge $-1 $103 $180 $67 $112 reversed $63 $-1 #
edge $-1 $181 -51.254005554368725 $116 51.254005554368725 $111 $182 forward 7 unknown #
coedge $-1 $106 $68 $180 $183 forward $115 $-1 #
coedge $-1 $68 $106 $176 $184 reversed $115 $-1 #
loop $-1 $-1 $113 $160 #
vertex $-1 $69 $185 #
vertex $-1 $69 $186 #
straight-curve $-1 51.254005554368725 0 10.583402853994468 0 1 0 I I #
face $-1 $187 $188 $16 $-1 $189 reversed single #
loop $-1 $-1 $190 $70 #
plane-surface $-1 0 -27.379527812223113 0 0 1 0 0 0 1 forward_v I I I I #
coedge $-1 $125 $76 $191 $192 reversed $71 $-1 #
coedge $-1 $193 $73 $190 $194 reversed $45 $-1 #
coedge $-1 $73 $193 $195 $196 reversed $45 $-1 #
coedge $-1 $132 $122 $73 $126 reversed $71 $-1 #
edge $-1 $197 -27.379527812223113 $198 27.379527812223113 $125 $199 forward 7 unknown #
coedge $-1 $75 $74 $200 $201 reversed $29 $-1 #
coedge $-1 $202 $203 $74 $129 forward $204 $-1 #
edge $-1 $205 -29.008515780835978 $134 -15.482463766229515 $128 $206 forward 7 unknown #
coedge $-1 $207 $191 $75 $131 forward $120 $-1 #
edge $-1 $133 15.482463766229515 $208 29.008515780835978 $130 $209 forward 7 unknown #
coedge $-1 $76 $125 $202 $210 reversed $71 $-1 #
vertex $-1 $131 $211 #
vertex $-1 $129 $212 #
straight-curve $-1 -37.727953539762261 0 8.6251778788482234 0 1 0 I I #
face $-1 $-1 $148 $17 $-1 $213 reversed single #
loop $-1 $-1 $214 $78 #
plane-surface $-1 0 0 10.583402853994468 0 0 1 1 0 0 forward_v I I I I #
coedge $-1 $215 $216 $217 $218 reversed $79 $-1 #
coedge $-1 $219 $81 $83 $146 forward $49 $-1 #
coedge $-1 $81 $219 $215 $220 forward $49 $-1 #
coedge $-1 $217 $84 $81 $143 forward $148 $-1 #
edge $-1 $150 -21.416619603020582 $221 -0.1792951273086949 $142 $222 forward 7 unknown #
coedge $-1 $223 $224 $82 $145 forward $137 $-1 #
edge $-1 $225 -30.775163608750056 $149 -21.265384244191761 $144 $226 forward 7 unknown #
edge $-1 $150 4.869801146221358e-015 $225 13.002982608583057 $83 $227 forward 7 unknown #
coedge $-1 $84 $217 $223 $228 reversed $148 $-1 #
loop $-1 $-1 $217 $136 #
vertex $-1 $228 $229 #
vertex $-1 $85 $230 #
straight-curve $-1 -32.21457696818522 -27.379527812223117 38.34250126424638 0 0 -1 I I #
coedge $-1 $152 $152 $-1 $231 reversed $88 $-1 #
edge $-1 $232 0 $232 6.2831853071796004 $89 $233 forward 7 unknown #
vertex $-1 $92 $234 #
ellipse-curve $-1 -26.14676997512468 -22.624638129943968 6.1493963937901492 0 -0.68199836817093118 0.7313536940579346 3 0 0 1 I I #
coedge $-1 $156 $156 $-1 $235 reversed $95 $-1 #
edge $-1 $236 0 $236 6.2831853071796004 $96 $237 forward 7 unknown #
vertex $-1 $99 $238 #
ellipse-curve $-1 -17.045059485533876 -22.624638129943968 6.1493963937901492 0 -0.68199836817093118 0.7313536940579346 3 0 0 1 I I #
face $-1 $-1 $115 $15 $-1 $239 reversed single #
loop $-1 $-1 $176 $100 #
plane-surface $-1 0 27.379527812223113 0 0 -1 0 0 0 -1 forward_v I I I I #
coedge $-1 $240 $174 $177 $241 forward $101 $-1 #
coedge $-1 $180 $103 $104 $168 reversed $63 $-1 #
coedge $-1 $174 $240 $103 $166 reversed $101 $-1 #
edge $-1 $181 -10.583402853994468 $242 10.583402853994468 $165 $243 forward 7 unknown #
coedge $-1 $105 $104 $240 $244 forward $41 $-1 #
edge $-1 $172 -51.254005554368725 $242 51.254005554368725 $164 $245 forward 7 unknown #
coedge $-1 $177 $176 $105 $170 reversed $161 $-1 #
edge $-1 $246 -51.254005554368725 $171 51.254005554368725 $169 $247 forward 7 unknown #
vertex $-1 $107 $248 #
vertex $-1 $183 $249 #
straight-curve $-1 51.254005554368725 0 -10.583402853994468 0 -1 0 I I #
coedge $-1 $163 $165 $108 $175 reversed $101 $-1 #
edge $-1 $178 -27.379527812223113 $181 27.379527812223113 $174 $250 forward 7 unknown #
coedge $-1 $169 $109 $114 $184 forward $161 $-1 #
coedge $-1 $109 $169 $163 $241 reversed $161 $-1 #
vertex $-1 $110 $251 #
straight-curve $-1 0 27.379527812223113 10.583402853994468 -1 0 0 I I #
coedge $-1 $111 $164 $113 $183 reversed $63 $-1 #
vertex $-1 $175 $252 #
straight-curve $-1 0 -27.379527812223113 10.583402853994468 1 0 0 I I #
edge $-1 $116 -10.583402853994468 $172 10.583402853994468 $113 $253 forward 7 unknown #
edge $-1 $117 -10.583402853994468 $171 10.583402853994468 $114 $254 forward 7 unknown #
point $-1 51.254005554368725 -27.379527812223113 10.583402853994468 #
point $-1 51.254005554368725 27.379527812223113 10.583402853994468 #
face $-1 $-1 $204 $16 $-1 $255 reversed single #
loop $-1 $-1 $256 $119 #
plane-surface $-1 -51.254005554368725 0 0 1 0 0 0 0 -1 forward_v I I I I #
coedge $-1 $191 $207 $123 $194 forward $120 $-1 #
coedge $-1 $130 $190 $122 $192 forward $120 $-1 #
edge $-1 $198 2.0625889394241117 $133 5.0625889394241117 $191 $257 forward 7 unknown #
coedge $-1 $124 $123 $256 $258 reversed $45 $-1 #
edge $-1 $259 -29.008515780835978 $198 -15.482463766229515 $190 $260 forward 7 unknown #
coedge $-1 $203 $202 $124 $196 forward $204 $-1 #
edge $-1 $197 15.482463766229515 $261 29.008515780835978 $195 $262 forward 7 unknown #
vertex $-1 $196 $263 #
vertex $-1 $194 $264 #
straight-curve $-1 -37.727953539762261 0 5.6251778788482234 0 -1 0 I I #
coedge $-1 $265 $266 $127 $201 forward $188 $-1 #
edge $-1 $208 -27.379527812223113 $205 27.379527812223113 $200 $267 forward 7 unknown #
coedge $-1 $195 $128 $132 $210 forward $204 $-1 #
coedge $-1 $128 $195 $265 $268 reversed $204 $-1 #
loop $-1 $-1 $195 $187 #
vertex $-1 $268 $269 #
straight-curve $-1 -22.245489773532746 27.379527812223113 8.6251778788482234 1 0 0 I I #
coedge $-1 $190 $130 $266 $270 forward $120 $-1 #
vertex $-1 $270 $271 #
straight-curve $-1 -22.245489773532746 -27.379527812223113 8.6251778788482234 -1 0 0 I I #
edge $-1 $134 -5.0625889394241117 $197 -2.0625889394241117 $202 $272 forward 7 unknown #
point $-1 -37.727953539762261 -27.379527812223113 8.6251778788482234 #
point $-1 -37.727953539762261 27.379527812223113 8.6251778788482234 #
plane-surface $-1 0 -27.379527812223113 0 0 1 0 0 0 1 forward_v I I I I #
coedge $-1 $224 $223 $216 $273 forward $137 $-1 #
coedge $-1 $216 $139 $141 $220 reversed $79 $-1 #
coedge $-1 $139 $215 $214 $273 reversed $79 $-1 #
coedge $-1 $147 $142 $139 $218 forward $148 $-1 #
edge $-1 $221 -36.627111330660554 $274 -27.759098410251912 $217 $275 forward 7 unknown #
coedge $-1 $141 $140 $224 $276 reversed $49 $-1 #
edge $-1 $277 -13.002982608583057 $221 -4.869801146221358e-015 $215 $278 forward 7 unknown #
vertex $-1 $143 $279 #
straight-curve $-1 -10.797957365164638 -27.379527812223113 1.7153899335858305 1 0 0 I I #
coedge $-1 $214 $144 $147 $228 forward $137 $-1 #
coedge $-1 $144 $214 $219 $276 forward $137 $-1 #
vertex $-1 $145 $280 #
straight-curve $-1 -32.21457696818522 -48.644912056414874 10.583402853994471 0 -1 0 I I #
straight-curve $-1 -32.21457696818522 -27.379527812223117 1.7153899335858256 0 0.7313536940579346 0.68199836817093118 I I #
edge $-1 $149 -32.21457696818522 $274 -10.977252492473333 $147 $281 forward 7 unknown #
point $-1 -32.21457696818522 -27.379527812223113 10.583402853994468 #
point $-1 -32.21457696818522 -27.379527812223113 1.7153899335858289 #
edge $-1 $282 1 $282 0 $152 $-1 forward 7 unknown #
vertex $-1 $153 $283 #
ellipse-curve $-1 -26.14676997512468 -14.864380444496446 -2.1724609448348273 0 -0.68199836817093118 0.7313536940579346 3 0 0 1 I I #
point $-1 -23.14676997512468 -22.624638129943968 6.149396393790151 #
edge $-1 $284 1 $284 0 $156 $-1 forward 7 unknown #
vertex $-1 $157 $285 #
ellipse-curve $-1 -17.045059485533876 -14.864380444496446 -2.1724609448348273 0 -0.68199836817093118 0.7313536940579346 3 0 0 1 I I #
point $-1 -14.045059485533876 -22.624638129943968 6.149396393790151 #
plane-surface $-1 51.254005554368725 0 0 -1 0 0 0 0 1 forward_v I I I I #
coedge $-1 $165 $163 $167 $244 reversed $101 $-1 #
edge $-1 $178 -10.583402853994468 $246 10.583402853994468 $177 $286 forward 7 unknown #
vertex $-1 $244 $287 #
straight-curve $-1 -51.254005554368725 -27.379527812223113 0 0 0 -1 I I #
edge $-1 $242 -27.379527812223113 $246 27.379527812223113 $240 $288 forward 7 unknown #
straight-curve $-1 0 -27.379527812223113 -10.583402853994468 -1 0 0 I I #
vertex $-1 $170 $289 #
straight-curve $-1 0 27.379527812223113 -10.583402853994468 1 0 0 I I #
point $-1 51.254005554368725 27.379527812223113 -10.583402853994468 #
point $-1 51.254005554368725 -27.379527812223113 -10.583402853994468 #
straight-curve $-1 -51.254005554368725 0 10.583402853994468 0 -1 0 I I #
point $-1 -51.254005554368725 27.379527812223113 10.583402853994468 #
point $-1 -51.254005554368725 -27.379527812223113 10.583402853994468 #
straight-curve $-1 51.254005554368725 -27.379527812223113 0 0 0 -1 I I #
straight-curve $-1 51.254005554368725 27.379527812223113 0 0 0 -1 I I #
plane-surface $-1 0 27.379527812223113 0 0 -1 0 0 0 -1 forward_v I I I I #
coedge $-1 $266 $265 $193 $258 forward $188 $-1 #
straight-curve $-1 -37.727953539762261 -27.379527812223113 3.5625889394241117 0 0 1 I I #
edge $-1 $261 -27.379527812223113 $259 27.379527812223113 $256 $290 forward 7 unknown #
vertex $-1 $194 $291 #
straight-curve $-1 -22.245489773532746 -27.379527812223113 5.6251778788482234 1 0 0 I I #
vertex $-1 $196 $292 #
straight-curve $-1 -22.245489773532746 27.379527812223113 5.6251778788482234 -1 0 0 I I #
point $-1 -37.727953539762261 27.379527812223113 5.6251778788482234 #
point $-1 -37.727953539762261 -27.379527812223113 5.6251778788482234 #
coedge $-1 $256 $200 $203 $268 forward $188 $-1 #
coedge $-1 $200 $256 $207 $270 reversed $188 $-1 #
straight-curve $-1 -51.254005554368725 0 8.6251778788482234 0 1 0 I I #
edge $-1 $205 -8.6251778788482234 $261 -5.6251778788482234 $203 $293 forward 7 unknown #
point $-1 -51.254005554368725 27.379527812223113 8.6251778788482234 #
edge $-1 $208 -8.6251778788482234 $259 -5.6251778788482234 $266 $294 forward 7 unknown #
point $-1 -51.254005554368725 -27.379527812223113 8.6251778788482234 #
straight-curve $-1 -37.727953539762261 27.379527812223113 3.5625889394241117 0 0 -1 I I #
edge $-1 $274 21.265384244191761 $277 30.775163608750056 $214 $295 forward 7 unknown #
vertex $-1 $273 $296 #
straight-curve $-1 -10.977252492473333 -27.379527812223117 38.34250126424638 0 0 1 I I #
edge $-1 $277 0.1792951273086949 $225 21.416619603020582 $224 $297 forward 7 unknown #
vertex $-1 $276 $298 #
straight-curve $-1 -10.977252492473333 -27.379527812223117 1.7153899335858256 0 -0.7313536940579346 -0.68199836817093118 I I #
point $-1 -10.977252492473333 -27.379527812223113 1.7153899335858289 #
point $-1 -32.21457696818522 -17.869748447664819 10.583402853994468 #
straight-curve $-1 0 -27.379527812223113 10.583402853994468 1 0 0 I I #
vertex $-1 $231 $299 #
point $-1 -23.14676997512468 -14.864380444496446 -2.1724609448348273 #
vertex $-1 $235 $300 #
point $-1 -14.045059485533876 -14.864380444496446 -2.1724609448348273 #
straight-curve $-1 -51.254005554368725 27.379527812223113 0 0 0 -1 I I #
point $-1 -51.254005554368725 -27.379527812223113 -10.583402853994468 #
straight-curve $-1 -51.254005554368725 0 -10.583402853994468 0 1 0 I I #
point $-1 -51.254005554368725 27.379527812223113 -10.583402853994468 #
straight-curve $-1 -51.254005554368725 0 5.6251778788482234 0 -1 0 I I #
point $-1 -51.254005554368725 -27.379527812223113 5.6251778788482234 #
point $-1 -51.254005554368725 27.379527812223113 5.6251778788482234 #
straight-curve $-1 -51.254005554368725 27.379527812223113 0 0 0 -1 I I #
straight-curve $-1 -51.254005554368725 -27.379527812223113 0 0 0 -1 I I #
straight-curve $-1 -10.977252492473333 -48.644912056414874 10.583402853994471 0 1 0 I I #
point $-1 -10.977252492473333 -27.379527812223113 10.583402853994468 #
straight-curve $-1 -10.797957365164638 -17.869748447664822 10.583402853994468 -1 0 0 I I #
point $-1 -10.977252492473333 -17.869748447664819 10.583402853994468 #
point $-1 -26.14676997512468 -12.818385339983651 -4.3665220270086307 #
point $-1 -17.045059485533876 -12.818385339983651 -4.3665220270086307 #
End-of-ACIS-data 