500 0 10 0           
7 Unknown 11 ACIS 5.0 NT 24 Fri Mar 26 20:24:38 1999 
-1 9.9999999999999995e-007 1e-010 
body $-1 $10 $-1 $11 #
body $-1 $12 $-1 $13 #
body $-1 $14 $-1 $15 #
body $-1 $16 $-1 $17 #
body $-1 $18 $-1 $19 #
body $-1 $20 $-1 $21 #
body $-1 $22 $-1 $23 #
body $-1 $24 $-1 $25 #
body $-1 $26 $-1 $27 #
body $-1 $28 $-1 $29 #
lump $-1 $-1 $30 $0 #
transform $-1 1 0 0 0 1 0 0 0 1 65.915097506637778 41.629486795903347 13.604318599786756 1 rotate no_reflect no_shear #
lump $-1 $-1 $31 $1 #
transform $-1 1 0 0 0 1 0 0 0 1 65.915097506637778 41.629486795903347 13.604318599786756 1 rotate no_reflect no_shear #
lump $-1 $-1 $32 $2 #
transform $-1 1 0 0 0 1 0 0 0 1 65.915097506637778 41.629486795903347 13.604318599786756 1 rotate no_reflect no_shear #
lump $-1 $-1 $33 $3 #
transform $-1 1 0 0 0 1 0 0 0 1 65.915097506637778 41.629486795903347 13.604318599786756 1 rotate no_reflect no_shear #
lump $-1 $-1 $34 $4 #
transform $-1 1 0 0 0 1 0 0 0 1 65.915097506637778 41.629486795903347 13.604318599786756 1 rotate no_reflect no_shear #
lump $-1 $-1 $35 $5 #
transform $-1 1 0 0 0 1 0 0 0 1 65.915097506637778 41.629486795903347 13.604318599786756 1 rotate no_reflect no_shear #
lump $-1 $-1 $36 $6 #
transform $-1 1 0 0 0 1 0 0 0 1 65.915097506637778 41.629486795903347 13.604318599786756 1 rotate no_reflect no_shear #
lump $-1 $-1 $37 $7 #
transform $-1 1 0 0 0 1 0 0 0 1 65.915097506637778 41.629486795903347 13.604318599786756 1 rotate no_reflect no_shear #
lump $-1 $-1 $38 $8 #
transform $-1 1 0 0 0 1 0 0 0 1 65.915097506637778 41.629486795903347 13.604318599786756 1 rotate no_reflect no_shear #
lump $-1 $-1 $39 $9 #
transform $-1 1 0 0 0 1 0 0 0 1 65.915097506637778 41.629486795903347 13.604318599786756 1 rotate no_reflect no_shear #
shell $-1 $-1 $-1 $40 $-1 $10 #
shell $-1 $-1 $-1 $41 $-1 $12 #
shell $-1 $-1 $-1 $42 $-1 $14 #
shell $-1 $-1 $-1 $43 $-1 $16 #
shell $-1 $-1 $-1 $44 $-1 $18 #
shell $-1 $-1 $-1 $45 $-1 $20 #
shell $-1 $-1 $-1 $46 $-1 $22 #
shell $-1 $-1 $-1 $47 $-1 $24 #
shell $-1 $-1 $-1 $48 $-1 $26 #
shell $-1 $-1 $-1 $49 $-1 $28 #
face $-1 $50 $51 $30 $-1 $52 forward single #
face $-1 $53 $54 $31 $-1 $55 forward single #
face $-1 $56 $57 $32 $-1 $58 reversed single #
face $-1 $59 $60 $33 $-1 $61 forward single #
face $-1 $62 $63 $34 $-1 $64 forward single #
face $-1 $65 $66 $35 $-1 $67 forward single #
face $-1 $68 $69 $36 $-1 $70 reversed single #
face $-1 $71 $72 $37 $-1 $73 forward single #
face $-1 $74 $75 $38 $-1 $76 forward single #
face $-1 $77 $78 $39 $-1 $79 forward single #
face $-1 $80 $81 $30 $-1 $82 reversed single #
loop $-1 $-1 $83 $40 #
plane-surface $-1 0 0 13.604318599786756 0 0 1 1 0 0 forward_v I I I I #
face $-1 $84 $85 $31 $-1 $86 reversed single #
loop $-1 $-1 $87 $41 #
plane-surface $-1 0 -35.183687820133905 8.7774118838991448 0 0 1 1 0 0 forward_v I I I I #
face $-1 $88 $89 $32 $-1 $90 reversed single #
loop $-1 $-1 $91 $42 #
plane-surface $-1 -52.971883298729971 57.183294145689771 157.86337063222081 1 0 0 0 -0.61566148304635926 -0.78801074757464917 forward_v I I I I #
face $-1 $92 $93 $33 $-1 $94 forward single #
loop $-1 $95 $96 $43 #
cone-surface $-1 -48.102248814699749 33.138204799018688 6.2093014014035681 0 -0.61566148304635926 -0.78801074757464917 1.5 0 0 1 I I 0 1 1.5 forward I I I I #
face $-1 $97 $98 $34 $-1 $99 forward single #
loop $-1 $100 $101 $44 #
cone-surface $-1 -40.797797088654406 33.138204799018688 6.2093014014035681 0 -0.61566148304635926 -0.78801074757464917 1.5 0 0 1 I I 0 1 1.5 forward I I I I #
face $-1 $102 $103 $35 $-1 $104 forward single #
loop $-1 $105 $106 $45 #
cone-surface $-1 -33.493345362609077 33.138204799018688 6.2093014014035681 0 -0.61566148304635926 -0.78801074757464917 1.5 0 0 1 I I 0 1 1.5 forward I I I I #
face $-1 $107 $108 $36 $-1 $109 reversed single #
loop $-1 $-1 $110 $46 #
plane-surface $-1 28.623710878578862 57.183294145689771 157.86337063222081 1 0 0 0 -0.61566148304635926 -0.78801074757464917 forward_v I I I I #
face $-1 $111 $112 $37 $-1 $113 forward single #
loop $-1 $114 $115 $47 #
cone-surface $-1 33.493345362609077 33.138204799018688 6.2093014014035681 0 -0.61566148304635926 -0.78801074757464917 1.5 0 0 1 I I 0 1 1.5 forward I I I I #
face $-1 $116 $117 $38 $-1 $118 forward single #
loop $-1 $119 $120 $48 #
cone-surface $-1 40.79779708865442 33.138204799018688 6.2093014014035681 0 -0.61566148304635926 -0.78801074757464917 1.5 0 0 1 I I 0 1 1.5 forward I I I I #
face $-1 $121 $122 $39 $-1 $123 forward single #
loop $-1 $124 $125 $49 #
cone-surface $-1 48.102248814699749 33.138204799018688 6.2093014014035681 0 -0.61566148304635926 -0.78801074757464917 1.5 0 0 1 I I 0 1 1.5 forward I I I I #
face $-1 $126 $127 $30 $-1 $128 reversed single #
loop $-1 $-1 $129 $50 #
plane-surface $-1 0 0 -13.604318599786756 0 0 1 1 0 0 forward_v I I I I #
coedge $-1 $130 $131 $132 $133 forward $51 $-1 #
face $-1 $134 $135 $31 $-1 $136 reversed single #
loop $-1 $-1 $137 $53 #
plane-surface $-1 0 -35.183687820133905 4.3523028259979881 0 0 1 1 0 0 forward_v I I I I #
coedge $-1 $138 $139 $140 $141 reversed $54 $-1 #
face $-1 $142 $143 $32 $-1 $144 reversed single #
loop $-1 $-1 $145 $56 #
plane-surface $-1 -40.797797088654413 -23.979479226474211 53.979760106897743 0 0.61566148304635926 0.78801074757464917 1 0 0 forward_v I I I I #
coedge $-1 $146 $147 $148 $149 reversed $57 $-1 #
face $-1 $-1 $150 $33 $-1 $151 forward single #
loop $-1 $152 $153 $59 #
cone-surface $-1 -48.102248814699749 31.150555971302794 3.6652269680085912 0 -0.61566148304635926 -0.78801074757464917 0.75 0 0 1 I I -0.70710678118654757 0.70710678118654757 0.75 forward I I I I #
loop $-1 $-1 $154 $43 #
coedge $-1 $96 $96 $155 $156 reversed $60 $-1 #
face $-1 $-1 $157 $34 $-1 $158 forward single #
loop $-1 $159 $160 $62 #
cone-surface $-1 -40.797797088654406 31.150555971302794 3.6652269680085912 0 -0.61566148304635926 -0.78801074757464917 0.75 0 0 1 I I -0.70710678118654757 0.70710678118654757 0.75 forward I I I I #
loop $-1 $-1 $161 $44 #
coedge $-1 $101 $101 $162 $163 reversed $63 $-1 #
face $-1 $-1 $164 $35 $-1 $165 forward single #
loop $-1 $166 $167 $65 #
cone-surface $-1 -33.493345362609077 31.150555971302794 3.6652269680085912 0 -0.61566148304635926 -0.78801074757464917 0.75 0 0 1 I I -0.70710678118654757 0.70710678118654757 0.75 forward I I I I #
loop $-1 $-1 $168 $45 #
coedge $-1 $106 $106 $169 $170 reversed $66 $-1 #
face $-1 $171 $172 $36 $-1 $173 reversed single #
loop $-1 $-1 $174 $68 #
plane-surface $-1 40.79779708865442 -23.979479226474211 53.979760106897743 0 0.61566148304635926 0.78801074757464917 1 0 0 forward_v I I I I #
coedge $-1 $175 $176 $177 $178 reversed $69 $-1 #
face $-1 $-1 $179 $37 $-1 $180 forward single #
loop $-1 $181 $182 $71 #
cone-surface $-1 33.493345362609077 31.150555971302794 3.6652269680085912 0 -0.61566148304635926 -0.78801074757464917 0.75 0 0 1 I I -0.70710678118654757 0.70710678118654757 0.75 forward I I I I #
loop $-1 $-1 $183 $47 #
coedge $-1 $115 $115 $184 $185 reversed $72 $-1 #
face $-1 $-1 $186 $38 $-1 $187 forward single #
loop $-1 $188 $189 $74 #
cone-surface $-1 40.79779708865442 31.150555971302794 3.6652269680085912 0 -0.61566148304635926 -0.78801074757464917 0.75 0 0 1 I I -0.70710678118654757 0.70710678118654757 0.75 forward I I I I #
loop $-1 $-1 $190 $48 #
coedge $-1 $120 $120 $191 $192 reversed $75 $-1 #
face $-1 $-1 $193 $39 $-1 $194 forward single #
loop $-1 $195 $196 $77 #
cone-surface $-1 48.102248814699749 31.150555971302794 3.6652269680085912 0 -0.61566148304635926 -0.78801074757464917 0.75 0 0 1 I I -0.70710678118654757 0.70710678118654757 0.75 forward I I I I #
loop $-1 $-1 $197 $49 #
coedge $-1 $125 $125 $198 $199 reversed $78 $-1 #
face $-1 $200 $201 $30 $-1 $202 reversed single #
loop $-1 $-1 $203 $80 #
plane-surface $-1 0 -41.629486795903347 0 0 1 0 0 0 1 forward_v I I I I #
coedge $-1 $204 $205 $206 $207 forward $81 $-1 #
coedge $-1 $208 $83 $209 $210 forward $51 $-1 #
coedge $-1 $83 $208 $211 $212 forward $51 $-1 #
coedge $-1 $213 $214 $83 $133 reversed $215 $-1 #
edge $-1 $216 -41.629486795903347 $217 41.629486795903347 $132 $218 forward 7 unknown #
face $-1 $219 $220 $31 $-1 $221 reversed single #
loop $-1 $-1 $222 $84 #
plane-surface $-1 0 -28.737888844364463 6.5648573549485665 0 -1 0 0 0 -1 forward_v I I I I #
coedge $-1 $223 $224 $225 $226 reversed $85 $-1 #
coedge $-1 $227 $87 $228 $229 forward $54 $-1 #
coedge $-1 $87 $227 $230 $231 reversed $54 $-1 #
coedge $-1 $232 $233 $87 $141 forward $234 $-1 #
edge $-1 $235 11.14604493429751 $236 24.037642885836394 $140 $237 forward 7 unknown #
face $-1 $238 $239 $32 $-1 $240 reversed single #
loop $-1 $-1 $241 $88 #
plane-surface $-1 -28.623710878578855 57.183294145689771 157.86337063222081 -1 0 0 0 0.61566148304635926 0.78801074757464917 forward_v I I I I #
coedge $-1 $242 $243 $244 $245 reversed $89 $-1 #
coedge $-1 $147 $91 $246 $247 reversed $57 $-1 #
coedge $-1 $91 $146 $242 $248 reversed $57 $-1 #
coedge $-1 $244 $249 $91 $149 forward $250 $-1 #
edge $-1 $251 -13.037839723058461 $252 0.89291883984856923 $148 $253 forward 7 unknown #
loop $-1 $-1 $155 $92 #
plane-surface $-1 -40.797797088654413 -23.979479226474211 53.979760106897743 0 0.61566148304635926 0.78801074757464917 1 0 0 forward_v I I I I #
loop $-1 $-1 $254 $59 #
coedge $-1 $153 $153 $154 $255 reversed $93 $-1 #
coedge $-1 $154 $154 $153 $255 forward $95 $-1 #
coedge $-1 $155 $155 $96 $156 forward $150 $-1 #
edge $-1 $256 2.8290381677211893e-015 $256 6.2831853071796031 $155 $257 forward 7 unknown #
loop $-1 $-1 $162 $97 #
plane-surface $-1 -40.797797088654413 -23.979479226474211 53.979760106897743 0 0.61566148304635926 0.78801074757464917 1 0 0 forward_v I I I I #
loop $-1 $-1 $258 $62 #
coedge $-1 $160 $160 $161 $259 reversed $98 $-1 #
coedge $-1 $161 $161 $160 $259 forward $100 $-1 #
coedge $-1 $162 $162 $101 $163 forward $157 $-1 #
edge $-1 $260 2.8290381677211893e-015 $260 6.2831853071796031 $162 $261 forward 7 unknown #
loop $-1 $-1 $169 $102 #
plane-surface $-1 -40.797797088654413 -23.979479226474211 53.979760106897743 0 0.61566148304635926 0.78801074757464917 1 0 0 forward_v I I I I #
loop $-1 $-1 $262 $65 #
coedge $-1 $167 $167 $168 $263 reversed $103 $-1 #
coedge $-1 $168 $168 $167 $263 forward $105 $-1 #
coedge $-1 $169 $169 $106 $170 forward $164 $-1 #
edge $-1 $264 2.8290381677211893e-015 $264 6.2831853071796031 $169 $265 forward 7 unknown #
face $-1 $266 $267 $36 $-1 $268 forward single #
loop $-1 $-1 $269 $107 #
plane-surface $-1 52.971883298729978 57.183294145689771 157.86337063222081 -1 0 0 0 0.61566148304635926 0.78801074757464917 forward_v I I I I #
coedge $-1 $270 $271 $272 $273 reversed $108 $-1 #
coedge $-1 $176 $110 $274 $275 reversed $69 $-1 #
coedge $-1 $110 $175 $270 $276 reversed $69 $-1 #
coedge $-1 $272 $277 $110 $178 forward $267 $-1 #
edge $-1 $278 -13.037839723058461 $279 0.89291883984856923 $177 $280 forward 7 unknown #
loop $-1 $-1 $184 $111 #
plane-surface $-1 40.79779708865442 -23.979479226474211 53.979760106897743 0 0.61566148304635926 0.78801074757464917 1 0 0 forward_v I I I I #
loop $-1 $-1 $281 $71 #
coedge $-1 $182 $182 $183 $282 reversed $112 $-1 #
coedge $-1 $183 $183 $182 $282 forward $114 $-1 #
coedge $-1 $184 $184 $115 $185 forward $179 $-1 #
edge $-1 $283 2.8290381677211893e-015 $283 6.2831853071796031 $184 $284 forward 7 unknown #
loop $-1 $-1 $191 $116 #
plane-surface $-1 40.79779708865442 -23.979479226474211 53.979760106897743 0 0.61566148304635926 0.78801074757464917 1 0 0 forward_v I I I I #
loop $-1 $-1 $285 $74 #
coedge $-1 $189 $189 $190 $286 reversed $117 $-1 #
coedge $-1 $190 $190 $189 $286 forward $119 $-1 #
coedge $-1 $191 $191 $120 $192 forward $186 $-1 #
edge $-1 $287 2.8290381677211893e-015 $287 6.2831853071796031 $191 $288 forward 7 unknown #
loop $-1 $-1 $198 $121 #
plane-surface $-1 40.79779708865442 -23.979479226474211 53.979760106897743 0 0.61566148304635926 0.78801074757464917 1 0 0 forward_v I I I I #
loop $-1 $-1 $289 $77 #
coedge $-1 $196 $196 $197 $290 reversed $122 $-1 #
coedge $-1 $197 $197 $196 $290 forward $124 $-1 #
coedge $-1 $198 $198 $125 $199 forward $193 $-1 #
edge $-1 $291 2.8290381677211893e-015 $291 6.2831853071796031 $198 $292 forward 7 unknown #
face $-1 $293 $294 $30 $-1 $295 reversed single #
loop $-1 $-1 $296 $126 #
plane-surface $-1 -65.915097506637778 0 0 1 0 0 0 0 -1 forward_v I I I I #
coedge $-1 $297 $211 $298 $299 forward $127 $-1 #
coedge $-1 $300 $129 $297 $301 forward $81 $-1 #
coedge $-1 $129 $300 $302 $303 forward $81 $-1 #
coedge $-1 $214 $213 $129 $207 reversed $215 $-1 #
edge $-1 $304 -41.629486795903347 $305 41.629486795903347 $206 $306 forward 7 unknown #
coedge $-1 $131 $130 $307 $308 forward $51 $-1 #
coedge $-1 $309 $310 $130 $210 reversed $294 $-1 #
edge $-1 $217 -65.915097506637778 $311 65.915097506637778 $209 $312 forward 7 unknown #
coedge $-1 $203 $313 $131 $212 reversed $127 $-1 #
edge $-1 $314 -65.915097506637778 $216 65.915097506637778 $211 $315 forward 7 unknown #
coedge $-1 $206 $132 $313 $316 forward $215 $-1 #
coedge $-1 $132 $206 $309 $317 reversed $215 $-1 #
loop $-1 $-1 $213 $293 #
vertex $-1 $133 $318 #
vertex $-1 $133 $319 #
straight-curve $-1 65.915097506637778 0 13.604318599786756 0 1 0 I I #
face $-1 $320 $321 $31 $-1 $322 reversed single #
loop $-1 $-1 $323 $134 #
plane-surface $-1 -65.915097506637778 0 0 1 0 0 0 0 -1 forward_v I I I I #
coedge $-1 $324 $228 $233 $325 reversed $135 $-1 #
coedge $-1 $326 $137 $327 $328 reversed $85 $-1 #
coedge $-1 $137 $326 $324 $329 forward $85 $-1 #
coedge $-1 $233 $232 $137 $226 forward $234 $-1 #
edge $-1 $330 -24.037642885836394 $331 -11.14604493429751 $225 $332 forward 7 unknown #
coedge $-1 $139 $138 $323 $333 reversed $54 $-1 #
coedge $-1 $222 $334 $138 $229 reversed $135 $-1 #
edge $-1 $235 -65.915097506637778 $335 65.915097506637778 $228 $336 forward 7 unknown #
coedge $-1 $337 $338 $139 $231 forward $321 $-1 #
edge $-1 $236 -65.915097506637778 $339 65.915097506637778 $230 $340 forward 7 unknown #
coedge $-1 $225 $140 $338 $341 forward $234 $-1 #
coedge $-1 $140 $225 $222 $325 forward $234 $-1 #
loop $-1 $-1 $140 $320 #
vertex $-1 $141 $342 #
vertex $-1 $341 $343 #
straight-curve $-1 65.915097506637778 -17.591843910066952 8.7774118838991448 0 -1 0 I I #
face $-1 $-1 $250 $32 $-1 $344 forward single #
loop $-1 $-1 $345 $142 #
plane-surface $-1 0 41.629486795903347 0 0 -1 0 0 0 -1 forward_v I I I I #
coedge $-1 $346 $347 $348 $349 reversed $143 $-1 #
coedge $-1 $350 $145 $147 $248 forward $89 $-1 #
coedge $-1 $145 $350 $346 $351 forward $89 $-1 #
coedge $-1 $348 $148 $145 $245 forward $250 $-1 #
edge $-1 $252 -32.572984754402768 $352 -8.2248123342516486 $244 $353 forward 7 unknown #
coedge $-1 $354 $355 $146 $247 forward $239 $-1 #
edge $-1 $356 -76.211268367662029 $251 -65.327366716323652 $246 $357 forward 7 unknown #
edge $-1 $252 65.580587090374664 $356 83.258973591806679 $147 $358 forward 7 unknown #
coedge $-1 $148 $348 $354 $359 forward $250 $-1 #
loop $-1 $-1 $348 $238 #
vertex $-1 $247 $360 #
vertex $-1 $149 $361 #
straight-curve $-1 -52.971883298729971 28.591647072844886 13.604318599786751 0 -1 0 I I #
coedge $-1 $254 $254 $-1 $362 reversed $152 $-1 #
edge $-1 $363 0 $363 6.2831853071796004 $153 $364 forward 7 unknown #
vertex $-1 $156 $365 #
ellipse-curve $-1 -48.102248814699749 34.664107514449825 8.1623677741175751 0 0.61566148304635926 0.78801074757464917 1.5 0 0 1 I I #
coedge $-1 $258 $258 $-1 $366 reversed $159 $-1 #
edge $-1 $367 0 $367 6.2831853071796004 $160 $368 forward 7 unknown #
vertex $-1 $163 $369 #
ellipse-curve $-1 -40.797797088654406 34.664107514449825 8.1623677741175751 0 0.61566148304635926 0.78801074757464917 1.5 0 0 1 I I #
coedge $-1 $262 $262 $-1 $370 reversed $166 $-1 #
edge $-1 $371 0 $371 6.2831853071796004 $167 $372 forward 7 unknown #
vertex $-1 $170 $373 #
ellipse-curve $-1 -33.493345362609077 34.664107514449825 8.1623677741175751 0 0.61566148304635926 0.78801074757464917 1.5 0 0 1 I I #
face $-1 $-1 $374 $36 $-1 $375 reversed single #
loop $-1 $-1 $177 $171 #
plane-surface $-1 0 0 13.604318599786756 0 0 1 1 0 0 forward_v I I I I #
coedge $-1 $376 $377 $378 $379 reversed $172 $-1 #
coedge $-1 $380 $174 $176 $276 forward $108 $-1 #
coedge $-1 $174 $380 $376 $381 forward $108 $-1 #
coedge $-1 $378 $177 $174 $273 forward $267 $-1 #
edge $-1 $279 8.2248123342516521 $382 32.572984754402768 $272 $383 forward 7 unknown #
coedge $-1 $384 $385 $175 $275 forward $374 $-1 #
edge $-1 $386 -76.211268367662029 $278 -65.327366716323652 $274 $387 forward 7 unknown #
edge $-1 $279 65.580587090374664 $386 83.258973591806679 $176 $388 forward 7 unknown #
coedge $-1 $177 $378 $384 $389 forward $267 $-1 #
vertex $-1 $178 $390 #
vertex $-1 $178 $391 #
straight-curve $-1 28.623710878578862 28.591647072844886 13.604318599786751 0 -1 0 I I #
coedge $-1 $281 $281 $-1 $392 reversed $181 $-1 #
edge $-1 $393 0 $393 6.2831853071796004 $182 $394 forward 7 unknown #
vertex $-1 $185 $395 #
ellipse-curve $-1 33.493345362609077 34.664107514449825 8.1623677741175751 0 0.61566148304635926 0.78801074757464917 1.5 0 0 1 I I #
coedge $-1 $285 $285 $-1 $396 reversed $188 $-1 #
edge $-1 $397 0 $397 6.2831853071796004 $189 $398 forward 7 unknown #
vertex $-1 $192 $399 #
ellipse-curve $-1 40.79779708865442 34.664107514449825 8.1623677741175751 0 0.61566148304635926 0.78801074757464917 1.5 0 0 1 I I #
coedge $-1 $289 $289 $-1 $400 reversed $195 $-1 #
edge $-1 $401 0 $401 6.2831853071796004 $196 $402 forward 7 unknown #
vertex $-1 $199 $403 #
ellipse-curve $-1 48.102248814699749 34.664107514449825 8.1623677741175751 0 0.61566148304635926 0.78801074757464917 1.5 0 0 1 I I #
face $-1 $-1 $215 $30 $-1 $404 reversed single #
loop $-1 $-1 $309 $200 #
plane-surface $-1 0 41.629486795903347 0 0 -1 0 0 0 -1 forward_v I I I I #
coedge $-1 $405 $307 $310 $406 forward $201 $-1 #
coedge $-1 $313 $203 $204 $301 reversed $127 $-1 #
coedge $-1 $307 $405 $203 $299 reversed $201 $-1 #
edge $-1 $314 -13.604318599786756 $407 13.604318599786756 $298 $408 forward 7 unknown #
coedge $-1 $205 $204 $405 $409 forward $81 $-1 #
edge $-1 $305 -65.915097506637778 $407 65.915097506637778 $297 $410 forward 7 unknown #
coedge $-1 $310 $309 $205 $303 reversed $294 $-1 #
edge $-1 $411 -65.915097506637778 $304 65.915097506637778 $302 $412 forward 7 unknown #
vertex $-1 $207 $413 #
vertex $-1 $316 $414 #
straight-curve $-1 65.915097506637778 0 -13.604318599786756 0 -1 0 I I #
coedge $-1 $296 $298 $208 $308 reversed $201 $-1 #
edge $-1 $311 -41.629486795903347 $314 41.629486795903347 $307 $415 forward 7 unknown #
coedge $-1 $302 $209 $214 $317 forward $294 $-1 #
coedge $-1 $209 $302 $296 $406 reversed $294 $-1 #
vertex $-1 $210 $416 #
straight-curve $-1 0 41.629486795903347 13.604318599786756 -1 0 0 I I #
coedge $-1 $211 $297 $213 $316 reversed $127 $-1 #
vertex $-1 $308 $417 #
straight-curve $-1 0 -41.629486795903347 13.604318599786756 1 0 0 I I #
edge $-1 $216 -13.604318599786756 $305 13.604318599786756 $213 $418 forward 7 unknown #
edge $-1 $217 -13.604318599786756 $304 13.604318599786756 $214 $419 forward 7 unknown #
point $-1 65.915097506637778 -41.629486795903347 13.604318599786756 #
point $-1 65.915097506637778 41.629486795903347 13.604318599786756 #
face $-1 $-1 $234 $31 $-1 $420 reversed single #
loop $-1 $-1 $230 $219 #
plane-surface $-1 0 -41.629486795903347 0 0 1 0 0 0 1 forward_v I I I I #
coedge $-1 $421 $422 $227 $333 forward $220 $-1 #
coedge $-1 $334 $222 $224 $329 reversed $135 $-1 #
edge $-1 $331 1.0698741485237049 $235 5.4949832064248616 $233 $423 forward 7 unknown #
coedge $-1 $224 $223 $424 $425 reversed $85 $-1 #
coedge $-1 $338 $337 $223 $328 forward $321 $-1 #
edge $-1 $426 -65.915097506637778 $330 65.915097506637778 $327 $427 forward 7 unknown #
edge $-1 $428 -65.915097506637778 $331 65.915097506637778 $324 $429 forward 7 unknown #
vertex $-1 $328 $430 #
vertex $-1 $226 $431 #
straight-curve $-1 65.915097506637778 -17.591843910066952 4.3523028259979881 0 1 0 I I #
edge $-1 $339 -24.037642885836394 $335 -11.14604493429751 $323 $432 forward 7 unknown #
coedge $-1 $228 $324 $421 $433 reversed $135 $-1 #
vertex $-1 $333 $434 #
straight-curve $-1 0 -28.737888844364463 8.7774118838991448 -1 0 0 I I #
coedge $-1 $327 $230 $422 $435 forward $321 $-1 #
coedge $-1 $230 $327 $232 $341 reversed $321 $-1 #
vertex $-1 $435 $436 #
straight-curve $-1 0 -41.629486795903347 8.7774118838991448 -1 0 0 I I #
edge $-1 $236 -8.7774118838991448 $330 -4.3523028259979881 $232 $437 forward 7 unknown #
point $-1 65.915097506637778 -28.737888844364463 8.7774118838991448 #
point $-1 65.915097506637778 -41.629486795903347 8.7774118838991448 #
plane-surface $-1 0 0 13.604318599786756 0 0 1 1 0 0 forward_v I I I I #
coedge $-1 $355 $354 $347 $438 forward $239 $-1 #
coedge $-1 $347 $241 $243 $351 reversed $143 $-1 #
coedge $-1 $241 $346 $345 $438 reversed $143 $-1 #
coedge $-1 $249 $244 $241 $349 forward $250 $-1 #
edge $-1 $352 -0.89291883984856923 $439 13.037839723058461 $348 $440 forward 7 unknown #
coedge $-1 $243 $242 $355 $441 reversed $89 $-1 #
edge $-1 $442 -83.258973591806679 $352 -65.580587090374664 $346 $443 forward 7 unknown #
vertex $-1 $245 $444 #
straight-curve $-1 -20.398898544327206 27.698728232996302 13.604318599786755 1 0 0 I I #
coedge $-1 $345 $246 $249 $359 reversed $239 $-1 #
coedge $-1 $246 $345 $350 $441 forward $239 $-1 #
vertex $-1 $247 $445 #
straight-curve $-1 -52.971883298729971 41.629486795903347 78.931685316110404 0 0 1 I I #
straight-curve $-1 -52.971883298729971 -23.979479226474211 53.979760106897743 0 0.78801074757464917 -0.61566148304635926 I I #
edge $-1 $439 28.623710878578855 $251 52.971883298729971 $354 $446 forward 7 unknown #
point $-1 -52.971883298729971 41.629486795903347 13.604318599786756 #
point $-1 -52.971883298729971 27.698728232996316 13.604318599786758 #
edge $-1 $447 1 $447 0 $254 $-1 forward 7 unknown #
vertex $-1 $255 $448 #
ellipse-curve $-1 -48.102248814699749 31.612302083587561 4.256235028689578 0 0.61566148304635926 0.78801074757464917 1.5 0 0 1 I I #
point $-1 -46.602248814699749 34.664107514449817 8.1623677741175591 #
edge $-1 $449 1 $449 0 $258 $-1 forward 7 unknown #
vertex $-1 $259 $450 #
ellipse-curve $-1 -40.797797088654406 31.612302083587561 4.256235028689578 0 0.61566148304635926 0.78801074757464917 1.5 0 0 1 I I #
point $-1 -39.297797088654406 34.664107514449817 8.1623677741175591 #
edge $-1 $451 1 $451 0 $262 $-1 forward 7 unknown #
vertex $-1 $263 $452 #
ellipse-curve $-1 -33.493345362609077 31.612302083587561 4.256235028689578 0 0.61566148304635926 0.78801074757464917 1.5 0 0 1 I I #
point $-1 -31.993345362609077 34.664107514449817 8.1623677741175591 #
loop $-1 $-1 $274 $266 #
plane-surface $-1 0 41.629486795903347 0 0 -1 0 0 0 -1 forward_v I I I I #
coedge $-1 $377 $269 $271 $381 reversed $172 $-1 #
coedge $-1 $269 $376 $453 $454 reversed $172 $-1 #
coedge $-1 $277 $272 $269 $379 forward $267 $-1 #
edge $-1 $382 -0.89291883984856923 $455 13.037839723058461 $378 $456 forward 7 unknown #
coedge $-1 $271 $270 $385 $457 reversed $108 $-1 #
edge $-1 $458 -83.258973591806679 $382 -65.580587090374664 $376 $459 forward 7 unknown #
vertex $-1 $273 $460 #
straight-curve $-1 20.39889854432721 27.698728232996302 13.604318599786755 1 0 0 I I #
coedge $-1 $453 $274 $277 $389 reversed $374 $-1 #
coedge $-1 $274 $453 $380 $457 forward $374 $-1 #
vertex $-1 $275 $461 #
straight-curve $-1 28.623710878578862 41.629486795903347 78.931685316110404 0 0 1 I I #
straight-curve $-1 28.623710878578862 -23.979479226474211 53.979760106897743 0 0.78801074757464917 -0.61566148304635926 I I #
edge $-1 $455 -52.971883298729978 $278 -28.623710878578862 $384 $462 forward 7 unknown #
point $-1 28.623710878578862 41.629486795903347 13.604318599786756 #
point $-1 28.623710878578862 27.698728232996316 13.604318599786758 #
edge $-1 $463 1 $463 0 $281 $-1 forward 7 unknown #
vertex $-1 $282 $464 #
ellipse-curve $-1 33.493345362609077 31.612302083587561 4.256235028689578 0 0.61566148304635926 0.78801074757464917 1.5 0 0 1 I I #
point $-1 34.993345362609077 34.664107514449817 8.1623677741175591 #
edge $-1 $465 1 $465 0 $285 $-1 forward 7 unknown #
vertex $-1 $286 $466 #
ellipse-curve $-1 40.79779708865442 31.612302083587561 4.256235028689578 0 0.61566148304635926 0.78801074757464917 1.5 0 0 1 I I #
point $-1 42.29779708865442 34.664107514449817 8.1623677741175591 #
edge $-1 $467 1 $467 0 $289 $-1 forward 7 unknown #
vertex $-1 $290 $468 #
ellipse-curve $-1 48.102248814699749 31.612302083587561 4.256235028689578 0 0.61566148304635926 0.78801074757464917 1.5 0 0 1 I I #
point $-1 49.602248814699749 34.664107514449817 8.1623677741175591 #
plane-surface $-1 65.915097506637778 0 0 -1 0 0 0 0 1 forward_v I I I I #
coedge $-1 $298 $296 $300 $409 reversed $201 $-1 #
edge $-1 $311 -13.604318599786756 $411 13.604318599786756 $310 $469 forward 7 unknown #
vertex $-1 $409 $470 #
straight-curve $-1 -65.915097506637778 -41.629486795903347 0 0 0 -1 I I #
edge $-1 $407 -41.629486795903347 $411 41.629486795903347 $405 $471 forward 7 unknown #
straight-curve $-1 0 -41.629486795903347 -13.604318599786756 -1 0 0 I I #
vertex $-1 $303 $472 #
straight-curve $-1 0 41.629486795903347 -13.604318599786756 1 0 0 I I #
point $-1 65.915097506637778 41.629486795903347 -13.604318599786756 #
point $-1 65.915097506637778 -41.629486795903347 -13.604318599786756 #
straight-curve $-1 -65.915097506637778 0 13.604318599786756 0 -1 0 I I #
point $-1 -65.915097506637778 41.629486795903347 13.604318599786756 #
point $-1 -65.915097506637778 -41.629486795903347 13.604318599786756 #
straight-curve $-1 65.915097506637778 -41.629486795903347 0 0 0 -1 I I #
straight-curve $-1 65.915097506637778 41.629486795903347 0 0 0 -1 I I #
plane-surface $-1 65.915097506637778 0 0 -1 0 0 0 0 1 forward_v I I I I #
coedge $-1 $424 $323 $334 $433 forward $220 $-1 #
coedge $-1 $323 $424 $337 $435 reversed $220 $-1 #
straight-curve $-1 65.915097506637778 -28.737888844364463 3.2824286774742832 0 0 1 I I #
coedge $-1 $422 $421 $326 $425 forward $220 $-1 #
edge $-1 $428 11.14604493429751 $426 24.037642885836394 $424 $473 forward 7 unknown #
vertex $-1 $328 $474 #
straight-curve $-1 0 -41.629486795903347 4.3523028259979881 1 0 0 I I #
vertex $-1 $425 $475 #
straight-curve $-1 0 -28.737888844364463 4.3523028259979881 1 0 0 I I #
point $-1 65.915097506637778 -41.629486795903347 4.3523028259979881 #
point $-1 65.915097506637778 -28.737888844364463 4.3523028259979881 #
straight-curve $-1 -65.915097506637778 -17.591843910066952 8.7774118838991448 0 1 0 I I #
edge $-1 $335 -5.4949832064248616 $428 -1.0698741485237049 $421 $476 forward 7 unknown #
point $-1 -65.915097506637778 -28.737888844364463 8.7774118838991448 #
edge $-1 $339 -8.7774118838991448 $426 -4.3523028259979881 $422 $477 forward 7 unknown #
point $-1 -65.915097506637778 -41.629486795903347 8.7774118838991448 #
straight-curve $-1 65.915097506637778 -41.629486795903347 0 0 0 -1 I I #
edge $-1 $439 65.327366716323652 $442 76.211268367662029 $345 $478 forward 7 unknown #
vertex $-1 $359 $479 #
straight-curve $-1 -28.623710878578855 28.591647072844886 13.604318599786751 0 1 0 I I #
edge $-1 $442 8.2248123342516486 $356 32.572984754402768 $355 $480 forward 7 unknown #
vertex $-1 $441 $481 #
straight-curve $-1 -28.623710878578855 -23.979479226474211 53.979760106897743 0 -0.78801074757464917 0.61566148304635926 I I #
point $-1 -28.623710878578855 27.698728232996316 13.604318599786758 #
point $-1 -52.971883298729971 41.629486795903347 2.7204169484483813 #
straight-curve $-1 0 41.629486795903347 13.604318599786756 -1 0 0 I I #
vertex $-1 $362 $482 #
point $-1 -46.602248814699749 31.612302083587561 4.256235028689578 #
vertex $-1 $366 $483 #
point $-1 -39.297797088654406 31.612302083587561 4.256235028689578 #
vertex $-1 $370 $484 #
point $-1 -31.993345362609077 31.612302083587561 4.256235028689578 #
coedge $-1 $385 $384 $377 $454 forward $374 $-1 #
edge $-1 $455 65.327366716323652 $458 76.211268367662029 $453 $485 forward 7 unknown #
vertex $-1 $389 $486 #
straight-curve $-1 52.971883298729978 28.591647072844886 13.604318599786751 0 1 0 I I #
edge $-1 $458 -32.572984754402768 $386 -8.2248123342516521 $385 $487 forward 7 unknown #
vertex $-1 $457 $488 #
straight-curve $-1 52.971883298729978 -23.979479226474211 53.979760106897743 0 -0.78801074757464917 0.61566148304635926 I I #
point $-1 52.971883298729978 27.698728232996316 13.604318599786758 #
point $-1 28.623710878578862 41.629486795903347 2.7204169484483813 #
straight-curve $-1 0 41.629486795903347 13.604318599786756 -1 0 0 I I #
vertex $-1 $392 $489 #
point $-1 34.993345362609077 31.612302083587561 4.256235028689578 #
vertex $-1 $396 $490 #
point $-1 42.29779708865442 31.612302083587561 4.256235028689578 #
vertex $-1 $400 $491 #
point $-1 49.602248814699749 31.612302083587561 4.256235028689578 #
straight-curve $-1 -65.915097506637778 41.629486795903347 0 0 0 -1 I I #
point $-1 -65.915097506637778 -41.629486795903347 -13.604318599786756 #
straight-curve $-1 -65.915097506637778 0 -13.604318599786756 0 1 0 I I #
point $-1 -65.915097506637778 41.629486795903347 -13.604318599786756 #
straight-curve $-1 -65.915097506637778 -17.591843910066952 4.3523028259979881 0 -1 0 I I #
point $-1 -65.915097506637778 -41.629486795903347 4.3523028259979881 #
point $-1 -65.915097506637778 -28.737888844364463 4.3523028259979881 #
straight-curve $-1 -65.915097506637778 -28.737888844364463 3.2824286774742832 0 0 -1 I I #
straight-curve $-1 -65.915097506637778 -41.629486795903347 0 0 0 -1 I I #
straight-curve $-1 -28.623710878578855 41.629486795903347 78.931685316110404 0 0 -1 I I #
point $-1 -28.623710878578855 41.629486795903347 13.604318599786756 #
straight-curve $-1 -20.398898544327206 41.629486795903347 2.7204169484483849 -1 0 0 I I #
point $-1 -28.623710878578855 41.629486795903347 2.7204169484483813 #
point $-1 -48.102248814699749 30.688809859018026 3.0742189073276043 #
point $-1 -40.797797088654406 30.688809859018026 3.0742189073276043 #
point $-1 -33.493345362609077 30.688809859018026 3.0742189073276043 #
straight-curve $-1 52.971883298729978 41.629486795903347 78.931685316110404 0 0 -1 I I #
point $-1 52.971883298729978 41.629486795903347 13.604318599786756 #
straight-curve $-1 20.39889854432721 41.629486795903347 2.7204169484483849 -1 0 0 I I #
point $-1 52.971883298729978 41.629486795903347 2.7204169484483813 #
point $-1 33.493345362609077 30.688809859018026 3.0742189073276043 #
point $-1 40.79779708865442 30.688809859018026 3.0742189073276043 #
point $-1 48.102248814699749 30.688809859018026 3.0742189073276043 #
End-of-ACIS-data 