500 0 3 0           
7 Unknown 11 ACIS 5.0 NT 24 Fri Mar 26 02:09:15 1999 
-1 9.9999999999999995e-007 1e-010 
body $-1 $3 $-1 $4 #
body $-1 $5 $-1 $6 #
body $-1 $7 $-1 $8 #
lump $-1 $-1 $9 $0 #
transform $-1 1 0 0 0 1 0 0 0 1 72.770775475325792 37.092730246555718 8.8245084799951314 1 rotate no_reflect no_shear #
lump $-1 $-1 $10 $1 #
transform $-1 1 0 0 0 1 0 0 0 1 72.770775475325792 37.092730246555718 8.8245084799951314 1 rotate no_reflect no_shear #
lump $-1 $-1 $11 $2 #
transform $-1 1 0 0 0 1 0 0 0 1 72.770775475325792 37.092730246555718 8.8245084799951314 1 rotate no_reflect no_shear #
shell $-1 $-1 $-1 $12 $-1 $3 #
shell $-1 $-1 $-1 $13 $-1 $5 #
shell $-1 $-1 $-1 $14 $-1 $7 #
face $-1 $15 $16 $9 $-1 $17 reversed single #
face $-1 $18 $19 $10 $-1 $20 forward single #
face $-1 $21 $22 $11 $-1 $23 forward single #
face $-1 $24 $25 $9 $-1 $26 forward single #
loop $-1 $-1 $27 $12 #
plane-surface $-1 0 37.092730246555718 0 0 -1 0 0 0 -1 forward_v I I I I #
face $-1 $28 $29 $10 $-1 $30 reversed single #
loop $-1 $-1 $31 $13 #
plane-surface $-1 0 -31.686344643968681 7.2964788978984325 0 0 1 1 0 0 forward_v I I I I #
face $-1 $32 $33 $11 $-1 $34 reversed single #
loop $-1 $-1 $35 $14 #
plane-surface $-1 0 37.092730246555718 0 0 -1 0 0 0 -1 forward_v I I I I #
face $-1 $36 $37 $9 $-1 $38 reversed single #
loop $-1 $-1 $39 $15 #
plane-surface $-1 0 0 8.8245084799951314 0 0 1 1 0 0 forward_v I I I I #
coedge $-1 $40 $41 $42 $43 reversed $16 $-1 #
face $-1 $44 $45 $10 $-1 $46 reversed single #
loop $-1 $-1 $47 $18 #
plane-surface $-1 0 -31.686344643968681 2.2561109725499753 0 0 1 1 0 0 forward_v I I I I #
coedge $-1 $48 $49 $50 $51 reversed $19 $-1 #
face $-1 $52 $53 $11 $-1 $54 reversed single #
loop $-1 $-1 $55 $21 #
plane-surface $-1 0 0 -8.8245084799951314 0 0 1 1 0 0 forward_v I I I I #
coedge $-1 $56 $57 $58 $59 forward $22 $-1 #
face $-1 $60 $61 $9 $-1 $62 reversed single #
loop $-1 $-1 $63 $24 #
plane-surface $-1 0 0 -8.8245084799951314 0 0 1 1 0 0 forward_v I I I I #
coedge $-1 $64 $65 $66 $67 forward $25 $-1 #
coedge $-1 $68 $27 $69 $70 reversed $16 $-1 #
coedge $-1 $27 $68 $71 $72 forward $16 $-1 #
coedge $-1 $63 $73 $27 $43 forward $37 $-1 #
edge $-1 $74 -72.770775475325792 $75 72.770775475325792 $27 $76 forward 7 unknown #
face $-1 $77 $78 $10 $-1 $79 reversed single #
loop $-1 $-1 $80 $28 #
plane-surface $-1 0 -26.279959041381645 4.7762949352242039 0 -1 0 0 0 -1 forward_v I I I I #
coedge $-1 $81 $82 $83 $84 reversed $29 $-1 #
coedge $-1 $85 $31 $86 $87 forward $19 $-1 #
coedge $-1 $31 $85 $88 $89 reversed $19 $-1 #
coedge $-1 $90 $91 $31 $51 forward $92 $-1 #
edge $-1 $93 10.436786719397304 $94 21.249557924571377 $50 $95 forward 7 unknown #
face $-1 $96 $97 $11 $-1 $98 reversed single #
loop $-1 $-1 $99 $32 #
plane-surface $-1 -58.650753974796572 41.702995285830497 0 1 0 0 0 0 -1 forward_v I I I I #
coedge $-1 $100 $101 $57 $102 forward $33 $-1 #
coedge $-1 $103 $35 $104 $105 reversed $22 $-1 #
coedge $-1 $35 $103 $55 $102 reversed $22 $-1 #
coedge $-1 $106 $107 $35 $59 reversed $108 $-1 #
edge $-1 $109 -8.8245084799951314 $110 8.8245084799951314 $58 $111 forward 7 unknown #
face $-1 $112 $113 $9 $-1 $114 reversed single #
loop $-1 $-1 $115 $36 #
plane-surface $-1 0 -37.092730246555718 0 0 1 0 0 0 1 forward_v I I I I #
coedge $-1 $116 $42 $117 $118 forward $37 $-1 #
coedge $-1 $119 $39 $68 $120 forward $25 $-1 #
coedge $-1 $39 $119 $121 $122 forward $25 $-1 #
coedge $-1 $123 $71 $39 $67 reversed $124 $-1 #
edge $-1 $125 -37.092730246555718 $126 37.092730246555718 $66 $127 forward 7 unknown #
coedge $-1 $41 $40 $64 $120 reversed $16 $-1 #
coedge $-1 $128 $129 $40 $70 forward $113 $-1 #
edge $-1 $130 -8.8245084799951314 $74 8.8245084799951314 $40 $131 forward 7 unknown #
coedge $-1 $66 $117 $41 $72 reversed $124 $-1 #
edge $-1 $126 -8.8245084799951314 $75 8.8245084799951314 $71 $132 forward 7 unknown #
coedge $-1 $42 $116 $128 $133 forward $37 $-1 #
vertex $-1 $43 $134 #
vertex $-1 $118 $135 #
straight-curve $-1 0 37.092730246555718 -8.8245084799951314 1 0 0 I I #
face $-1 $136 $137 $10 $-1 $138 reversed single #
loop $-1 $-1 $139 $44 #
plane-surface $-1 -72.770775475325792 0 0 1 0 0 0 0 -1 forward_v I I I I #
coedge $-1 $140 $86 $91 $141 reversed $45 $-1 #
coedge $-1 $142 $47 $143 $144 reversed $29 $-1 #
coedge $-1 $47 $142 $140 $145 forward $29 $-1 #
coedge $-1 $91 $90 $47 $84 forward $92 $-1 #
edge $-1 $146 -21.249557924571377 $147 -10.436786719397304 $83 $148 forward 7 unknown #
coedge $-1 $49 $48 $139 $149 reversed $19 $-1 #
coedge $-1 $80 $150 $48 $87 reversed $45 $-1 #
edge $-1 $93 -72.770775475325792 $151 72.770775475325792 $86 $152 forward 7 unknown #
coedge $-1 $153 $154 $49 $89 forward $137 $-1 #
edge $-1 $94 -72.770775475325792 $155 72.770775475325792 $88 $156 forward 7 unknown #
coedge $-1 $83 $50 $154 $157 forward $92 $-1 #
coedge $-1 $50 $83 $80 $141 forward $92 $-1 #
loop $-1 $-1 $50 $136 #
vertex $-1 $51 $158 #
vertex $-1 $157 $159 #
straight-curve $-1 72.770775475325792 -15.843172321984341 7.2964788978984325 0 -1 0 I I #
face $-1 $160 $108 $11 $-1 $161 reversed single #
loop $-1 $-1 $162 $52 #
plane-surface $-1 -56.88625624506605 46.313260325105276 0 0 -1 0 0 0 -1 forward_v I I I I #
coedge $-1 $163 $164 $165 $166 forward $53 $-1 #
coedge $-1 $167 $55 $163 $168 forward $33 $-1 #
coedge $-1 $55 $167 $106 $169 forward $33 $-1 #
edge $-1 $109 55.121758515335529 $170 58.650753974796572 $55 $171 forward 7 unknown #
coedge $-1 $57 $56 $172 $173 forward $22 $-1 #
coedge $-1 $174 $175 $56 $105 forward $176 $-1 #
edge $-1 $177 -58.650753974796572 $110 -55.121758515335529 $104 $178 forward 7 unknown #
coedge $-1 $179 $58 $101 $169 reversed $108 $-1 #
coedge $-1 $58 $179 $174 $180 reversed $108 $-1 #
loop $-1 $-1 $58 $96 #
vertex $-1 $102 $181 #
vertex $-1 $180 $182 #
straight-curve $-1 -55.121758515335529 37.092730246555718 0 0 0 1 I I #
face $-1 $-1 $124 $9 $-1 $183 reversed single #
loop $-1 $-1 $69 $60 #
plane-surface $-1 -72.770775475325792 0 0 1 0 0 0 0 -1 forward_v I I I I #
coedge $-1 $184 $121 $185 $186 forward $61 $-1 #
coedge $-1 $73 $63 $184 $187 forward $37 $-1 #
coedge $-1 $71 $123 $63 $118 reversed $124 $-1 #
edge $-1 $75 -37.092730246555718 $188 37.092730246555718 $117 $189 forward 7 unknown #
coedge $-1 $65 $64 $129 $190 forward $25 $-1 #
edge $-1 $126 -72.770775475325792 $130 72.770775475325792 $68 $191 forward 7 unknown #
coedge $-1 $115 $192 $65 $122 reversed $61 $-1 #
edge $-1 $193 -72.770775475325792 $125 72.770775475325792 $121 $194 forward 7 unknown #
coedge $-1 $117 $66 $192 $195 forward $124 $-1 #
loop $-1 $-1 $123 $112 #
vertex $-1 $67 $196 #
vertex $-1 $67 $197 #
straight-curve $-1 72.770775475325792 0 8.8245084799951314 0 1 0 I I #
coedge $-1 $185 $69 $73 $133 reversed $113 $-1 #
coedge $-1 $69 $185 $119 $190 reversed $113 $-1 #
vertex $-1 $120 $198 #
straight-curve $-1 -72.770775475325792 37.092730246555718 0 0 0 -1 I I #
straight-curve $-1 72.770775475325792 37.092730246555718 0 0 0 -1 I I #
edge $-1 $199 -37.092730246555718 $74 37.092730246555718 $128 $200 forward 7 unknown #
point $-1 -72.770775475325792 37.092730246555718 -8.8245084799951314 #
point $-1 72.770775475325792 37.092730246555718 -8.8245084799951314 #
face $-1 $-1 $92 $10 $-1 $201 reversed single #
loop $-1 $-1 $88 $77 #
plane-surface $-1 0 -37.092730246555718 0 0 1 0 0 0 1 forward_v I I I I #
coedge $-1 $202 $203 $85 $149 forward $78 $-1 #
coedge $-1 $150 $80 $82 $145 reversed $45 $-1 #
edge $-1 $147 -0.13203649506212667 $93 4.9083314302863306 $91 $204 forward 7 unknown #
coedge $-1 $82 $81 $205 $206 reversed $29 $-1 #
coedge $-1 $154 $153 $81 $144 forward $137 $-1 #
edge $-1 $207 -72.770775475325792 $146 72.770775475325792 $143 $208 forward 7 unknown #
edge $-1 $209 -72.770775475325792 $147 72.770775475325792 $140 $210 forward 7 unknown #
vertex $-1 $144 $211 #
vertex $-1 $84 $212 #
straight-curve $-1 72.770775475325792 -15.843172321984341 2.2561109725499753 0 1 0 I I #
edge $-1 $155 -21.249557924571377 $151 -10.436786719397304 $139 $213 forward 7 unknown #
coedge $-1 $86 $140 $202 $214 reversed $45 $-1 #
vertex $-1 $149 $215 #
straight-curve $-1 0 -26.279959041381645 7.2964788978984325 -1 0 0 I I #
coedge $-1 $143 $88 $203 $216 forward $137 $-1 #
coedge $-1 $88 $143 $90 $157 reversed $137 $-1 #
vertex $-1 $216 $217 #
straight-curve $-1 0 -37.092730246555718 7.2964788978984325 -1 0 0 I I #
edge $-1 $94 -7.2964788978984325 $146 -2.2561109725499753 $90 $218 forward 7 unknown #
point $-1 72.770775475325792 -26.279959041381645 7.2964788978984325 #
point $-1 72.770775475325792 -37.092730246555718 7.2964788978984325 #
face $-1 $-1 $176 $11 $-1 $219 forward single #
plane-surface $-1 -55.121758515335529 41.702995285830497 0 -1 0 0 0 0 1 forward_v I I I I #
coedge $-1 $220 $221 $179 $222 forward $97 $-1 #
coedge $-1 $172 $99 $100 $168 reversed $53 $-1 #
coedge $-1 $99 $172 $175 $223 reversed $53 $-1 #
coedge $-1 $221 $220 $99 $166 reversed $97 $-1 #
edge $-1 $224 -8.8245084799951314 $225 8.8245084799951314 $165 $226 forward 7 unknown #
coedge $-1 $101 $100 $220 $227 forward $33 $-1 #
edge $-1 $170 -4.610265039274779 $225 4.610265039274779 $163 $228 forward 7 unknown #
edge $-1 $229 -4.610265039274779 $109 4.610265039274779 $106 $230 forward 7 unknown #
vertex $-1 $168 $231 #
straight-curve $-1 0 37.092730246555718 -8.8245084799951314 -1 0 0 I I #
coedge $-1 $164 $163 $103 $173 reversed $53 $-1 #
edge $-1 $177 -8.8245084799951314 $170 8.8245084799951314 $172 $232 forward 7 unknown #
coedge $-1 $233 $104 $107 $180 forward $176 $-1 #
coedge $-1 $104 $233 $164 $223 forward $176 $-1 #
loop $-1 $-1 $104 $160 #
vertex $-1 $105 $234 #
straight-curve $-1 0 37.092730246555718 8.8245084799951314 1 0 0 I I #
coedge $-1 $107 $106 $162 $222 reversed $108 $-1 #
edge $-1 $110 -4.610265039274779 $235 4.610265039274779 $107 $236 forward 7 unknown #
point $-1 -55.121758515335529 37.092730246555718 -8.8245084799951314 #
point $-1 -55.121758515335529 37.092730246555718 8.8245084799951314 #
plane-surface $-1 72.770775475325792 0 0 -1 0 0 0 0 1 forward_v I I I I #
coedge $-1 $192 $115 $116 $187 reversed $61 $-1 #
coedge $-1 $129 $128 $115 $186 reversed $113 $-1 #
edge $-1 $193 -8.8245084799951314 $199 8.8245084799951314 $185 $237 forward 7 unknown #
edge $-1 $188 -72.770775475325792 $199 72.770775475325792 $184 $238 forward 7 unknown #
vertex $-1 $195 $239 #
straight-curve $-1 72.770775475325792 0 -8.8245084799951314 0 -1 0 I I #
edge $-1 $130 -37.092730246555718 $193 37.092730246555718 $129 $240 forward 7 unknown #
straight-curve $-1 0 37.092730246555718 8.8245084799951314 -1 0 0 I I #
coedge $-1 $121 $184 $123 $195 reversed $61 $-1 #
vertex $-1 $190 $241 #
straight-curve $-1 0 -37.092730246555718 8.8245084799951314 1 0 0 I I #
edge $-1 $125 -8.8245084799951314 $188 8.8245084799951314 $123 $242 forward 7 unknown #
point $-1 72.770775475325792 -37.092730246555718 8.8245084799951314 #
point $-1 72.770775475325792 37.092730246555718 8.8245084799951314 #
point $-1 -72.770775475325792 37.092730246555718 8.8245084799951314 #
vertex $-1 $133 $243 #
straight-curve $-1 -72.770775475325792 0 -8.8245084799951314 0 1 0 I I #
plane-surface $-1 72.770775475325792 0 0 -1 0 0 0 0 1 forward_v I I I I #
coedge $-1 $205 $139 $150 $214 forward $78 $-1 #
coedge $-1 $139 $205 $153 $216 reversed $78 $-1 #
straight-curve $-1 72.770775475325792 -26.279959041381645 2.3881474676121019 0 0 1 I I #
coedge $-1 $203 $202 $142 $206 forward $78 $-1 #
edge $-1 $209 10.436786719397304 $207 21.249557924571377 $205 $244 forward 7 unknown #
vertex $-1 $144 $245 #
straight-curve $-1 0 -37.092730246555718 2.2561109725499753 1 0 0 I I #
vertex $-1 $206 $246 #
straight-curve $-1 0 -26.279959041381645 2.2561109725499753 1 0 0 I I #
point $-1 72.770775475325792 -37.092730246555718 2.2561109725499753 #
point $-1 72.770775475325792 -26.279959041381645 2.2561109725499753 #
straight-curve $-1 -72.770775475325792 -15.843172321984341 7.2964788978984325 0 1 0 I I #
edge $-1 $151 -4.9083314302863306 $209 0.13203649506212667 $202 $247 forward 7 unknown #
point $-1 -72.770775475325792 -26.279959041381645 7.2964788978984325 #
edge $-1 $155 -7.2964788978984325 $207 -2.2561109725499753 $203 $248 forward 7 unknown #
point $-1 -72.770775475325792 -37.092730246555718 7.2964788978984325 #
straight-curve $-1 72.770775475325792 -37.092730246555718 0 0 0 -1 I I #
plane-surface $-1 0 0 8.8245084799951314 0 0 1 1 0 0 forward_v I I I I #
coedge $-1 $165 $162 $167 $227 reversed $97 $-1 #
coedge $-1 $162 $165 $233 $249 reversed $97 $-1 #
edge $-1 $235 -8.8245084799951314 $229 8.8245084799951314 $179 $250 forward 7 unknown #
edge $-1 $224 -4.610265039274779 $177 4.610265039274779 $164 $251 forward 7 unknown #
vertex $-1 $249 $252 #
vertex $-1 $227 $253 #
straight-curve $-1 -58.650753974796572 46.313260325105276 0 0 0 -1 I I #
edge $-1 $225 -1.7644977297305218 $229 1.7644977297305218 $220 $254 forward 7 unknown #
straight-curve $-1 -58.650753974796572 41.702995285830497 -8.8245084799951314 0 1 0 I I #
vertex $-1 $169 $255 #
straight-curve $-1 -55.121758515335529 41.702995285830497 -8.8245084799951314 0 -1 0 I I #
point $-1 -58.650753974796572 37.092730246555718 -8.8245084799951314 #
straight-curve $-1 -58.650753974796572 37.092730246555718 0 0 0 -1 I I #
coedge $-1 $175 $174 $221 $249 forward $176 $-1 #
point $-1 -58.650753974796572 37.092730246555718 8.8245084799951314 #
vertex $-1 $180 $256 #
straight-curve $-1 -55.121758515335529 41.702995285830497 8.8245084799951314 0 1 0 I I #
straight-curve $-1 -72.770775475325792 -37.092730246555718 0 0 0 -1 I I #
straight-curve $-1 0 -37.092730246555718 -8.8245084799951314 -1 0 0 I I #
point $-1 72.770775475325792 -37.092730246555718 -8.8245084799951314 #
straight-curve $-1 -72.770775475325792 0 8.8245084799951314 0 -1 0 I I #
point $-1 -72.770775475325792 -37.092730246555718 8.8245084799951314 #
straight-curve $-1 72.770775475325792 -37.092730246555718 0 0 0 -1 I I #
point $-1 -72.770775475325792 -37.092730246555718 -8.8245084799951314 #
straight-curve $-1 -72.770775475325792 -15.843172321984341 2.2561109725499753 0 -1 0 I I #
point $-1 -72.770775475325792 -37.092730246555718 2.2561109725499753 #
point $-1 -72.770775475325792 -26.279959041381645 2.2561109725499753 #
straight-curve $-1 -72.770775475325792 -26.279959041381645 2.3881474676121019 0 0 -1 I I #
straight-curve $-1 -72.770775475325792 -37.092730246555718 0 0 0 -1 I I #
edge $-1 $235 -1.7644977297305218 $224 1.7644977297305218 $221 $257 forward 7 unknown #
straight-curve $-1 -55.121758515335529 46.313260325105276 0 0 0 -1 I I #
straight-curve $-1 -58.650753974796572 41.702995285830497 8.8245084799951314 0 -1 0 I I #
point $-1 -58.650753974796572 46.313260325105276 8.8245084799951314 #
point $-1 -58.650753974796572 46.313260325105276 -8.8245084799951314 #
straight-curve $-1 -56.88625624506605 46.313260325105276 -8.8245084799951314 1 0 0 I I #
point $-1 -55.121758515335529 46.313260325105276 -8.8245084799951314 #
point $-1 -55.121758515335529 46.313260325105276 8.8245084799951314 #
straight-curve $-1 -56.88625624506605 46.313260325105276 8.8245084799951314 -1 0 0 I I #
End-of-ACIS-data 