500 0 5 0           
7 Unknown 11 ACIS 5.0 NT 24 Fri Mar 26 03:35:38 1999 
-1 9.9999999999999995e-007 1e-010 
body $-1 $5 $-1 $6 #
body $-1 $7 $-1 $8 #
body $-1 $9 $-1 $10 #
body $-1 $11 $-1 $12 #
body $-1 $13 $-1 $14 #
lump $-1 $-1 $15 $0 #
transform $-1 1 0 0 0 1 0 0 0 1 71.915036469618826 43.260514659647107 19.597209857537699 1 rotate no_reflect no_shear #
lump $-1 $-1 $16 $1 #
transform $-1 1 0 0 0 1 0 0 0 1 71.915036469618826 43.260514659647107 19.597209857537699 1 rotate no_reflect no_shear #
lump $-1 $-1 $17 $2 #
transform $-1 1 0 0 0 1 0 0 0 1 71.915036469618826 43.260514659647107 19.597209857537699 1 rotate no_reflect no_shear #
lump $-1 $-1 $18 $3 #
transform $-1 1 0 0 0 1 0 0 0 1 71.915036469618826 43.260514659647107 19.597209857537699 1 rotate no_reflect no_shear #
lump $-1 $-1 $19 $4 #
transform $-1 1 0 0 0 1 0 0 0 1 71.915036469618826 43.260514659647107 19.597209857537699 1 rotate no_reflect no_shear #
shell $-1 $-1 $-1 $20 $-1 $5 #
shell $-1 $-1 $-1 $21 $-1 $7 #
shell $-1 $-1 $-1 $22 $-1 $9 #
shell $-1 $-1 $-1 $23 $-1 $11 #
shell $-1 $-1 $-1 $24 $-1 $13 #
face $-1 $25 $26 $15 $-1 $27 forward single #
face $-1 $28 $29 $16 $-1 $30 forward single #
face $-1 $31 $32 $17 $-1 $33 reversed single #
face $-1 $34 $35 $18 $-1 $36 forward single #
face $-1 $37 $38 $19 $-1 $39 forward single #
face $-1 $40 $41 $15 $-1 $42 reversed single #
loop $-1 $-1 $43 $20 #
plane-surface $-1 0 0 19.597209857537699 0 0 1 1 0 0 forward_v I I I I #
face $-1 $44 $45 $16 $-1 $46 reversed single #
loop $-1 $-1 $47 $21 #
plane-surface $-1 -71.915036469618826 0 0 1 0 0 0 0 -1 forward_v I I I I #
face $-1 $48 $49 $17 $-1 $50 reversed single #
loop $-1 $-1 $51 $22 #
plane-surface $-1 47.43613461604879 -117.33847952585705 124.18196587297908 -1 0 0 0 -0.51503808176128008 0.85716729658548041 forward_v I I I I #
face $-1 $52 $53 $18 $-1 $54 forward single #
loop $-1 $55 $56 $23 #
cone-surface $-1 32.92027096611136 -26.756694979312559 8.6796014380516411 0 0.51503808176128008 -0.85716729658548041 2 0 0 1 I I 0 1 2 forward I I I I #
face $-1 $57 $58 $19 $-1 $59 forward single #
loop $-1 $60 $61 $24 #
cone-surface $-1 41.629789156073812 -26.756694979312559 8.6796014380516411 0 0.51503808176128008 -0.85716729658548041 2 0 0 1 I I 0 1 2 forward I I I I #
face $-1 $62 $63 $15 $-1 $64 reversed single #
loop $-1 $-1 $65 $25 #
plane-surface $-1 0 0 -19.597209857537699 0 0 1 1 0 0 forward_v I I I I #
coedge $-1 $66 $67 $68 $69 forward $26 $-1 #
face $-1 $70 $71 $16 $-1 $72 forward single #
loop $-1 $-1 $73 $28 #
plane-surface $-1 0 43.260514659647107 0 0 -1 0 0 0 -1 forward_v I I I I #
coedge $-1 $74 $75 $76 $77 forward $29 $-1 #
face $-1 $78 $79 $17 $-1 $80 reversed single #
loop $-1 $-1 $81 $31 #
plane-surface $-1 37.275030061092593 -43.2605146596471 0.89553108396027881 0 -0.51503808176128008 0.85716729658548041 1 0 0 forward_v I I I I #
coedge $-1 $82 $83 $84 $85 reversed $32 $-1 #
face $-1 $-1 $86 $18 $-1 $87 forward single #
loop $-1 $88 $89 $34 #
cone-surface $-1 32.92027096611136 -25.300247069647341 6.255665108768806 0 0.51503808176128008 -0.85716729658548041 1 0 0 1 I I -0.70710678118654746 0.70710678118654746 1 forward I I I I #
loop $-1 $-1 $90 $23 #
coedge $-1 $56 $56 $91 $92 reversed $35 $-1 #
face $-1 $-1 $93 $19 $-1 $94 forward single #
loop $-1 $95 $96 $37 #
cone-surface $-1 41.629789156073812 -25.300247069647341 6.255665108768806 0 0.51503808176128008 -0.85716729658548041 1 0 0 1 I I -0.70710678118654746 0.70710678118654746 1 forward I I I I #
loop $-1 $-1 $97 $24 #
coedge $-1 $61 $61 $98 $99 reversed $38 $-1 #
face $-1 $100 $101 $15 $-1 $102 reversed single #
loop $-1 $-1 $103 $40 #
plane-surface $-1 0 -43.260514659647107 0 0 1 0 0 0 1 forward_v I I I I #
coedge $-1 $104 $105 $106 $107 forward $41 $-1 #
coedge $-1 $108 $43 $109 $110 forward $26 $-1 #
coedge $-1 $43 $108 $111 $112 forward $26 $-1 #
coedge $-1 $113 $114 $43 $69 reversed $115 $-1 #
edge $-1 $116 -43.260514659647107 $117 43.260514659647107 $68 $118 forward 7 unknown #
face $-1 $119 $120 $16 $-1 $121 reversed single #
loop $-1 $-1 $76 $44 #
plane-surface $-1 -78.929015854141909 0 -14.68711209184621 0 0 1 1 0 0 forward_v I I I I #
coedge $-1 $122 $123 $75 $124 forward $45 $-1 #
coedge $-1 $125 $47 $126 $127 reversed $29 $-1 #
coedge $-1 $47 $125 $73 $124 reversed $29 $-1 #
coedge $-1 $128 $129 $47 $77 reversed $71 $-1 #
edge $-1 $130 -43.260514659647107 $131 43.260514659647107 $76 $132 forward 7 unknown #
face $-1 $133 $134 $17 $-1 $135 reversed single #
loop $-1 $-1 $136 $48 #
plane-surface $-1 27.113925506136397 -117.33847952585705 124.18196587297908 1 0 0 0 0.51503808176128008 -0.85716729658548041 forward_v I I I I #
coedge $-1 $137 $138 $139 $140 reversed $49 $-1 #
coedge $-1 $83 $51 $141 $142 reversed $32 $-1 #
coedge $-1 $51 $82 $137 $143 reversed $32 $-1 #
coedge $-1 $139 $144 $51 $85 forward $145 $-1 #
edge $-1 $146 15.408725103281419 $147 46.533544808142665 $84 $148 forward 7 unknown #
loop $-1 $-1 $91 $52 #
plane-surface $-1 37.275030061092593 -43.2605146596471 0.89553108396027881 0 -0.51503808176128008 0.85716729658548041 1 0 0 forward_v I I I I #
loop $-1 $-1 $149 $34 #
coedge $-1 $89 $89 $90 $150 reversed $53 $-1 #
coedge $-1 $90 $90 $89 $150 forward $55 $-1 #
coedge $-1 $91 $91 $56 $92 forward $86 $-1 #
edge $-1 $151 -7.5804143187909412e-016 $151 6.2831853071795996 $91 $152 forward 7 unknown #
loop $-1 $-1 $98 $57 #
plane-surface $-1 37.275030061092593 -43.2605146596471 0.89553108396027881 0 -0.51503808176128008 0.85716729658548041 1 0 0 forward_v I I I I #
loop $-1 $-1 $153 $37 #
coedge $-1 $96 $96 $97 $154 reversed $58 $-1 #
coedge $-1 $97 $97 $96 $154 forward $60 $-1 #
coedge $-1 $98 $98 $61 $99 forward $93 $-1 #
edge $-1 $155 -7.5804143187909412e-016 $155 6.2831853071795996 $98 $156 forward 7 unknown #
face $-1 $157 $158 $15 $-1 $159 reversed single #
loop $-1 $-1 $160 $62 #
plane-surface $-1 -71.915036469618826 0 0 1 0 0 0 0 -1 forward_v I I I I #
coedge $-1 $161 $111 $160 $162 forward $63 $-1 #
coedge $-1 $163 $65 $161 $164 forward $41 $-1 #
coedge $-1 $65 $163 $165 $166 forward $41 $-1 #
coedge $-1 $114 $113 $65 $107 reversed $115 $-1 #
edge $-1 $167 -43.260514659647107 $168 43.260514659647107 $106 $169 forward 7 unknown #
coedge $-1 $67 $66 $170 $171 forward $26 $-1 #
coedge $-1 $172 $173 $66 $110 reversed $158 $-1 #
edge $-1 $117 -71.915036469618826 $174 71.915036469618826 $109 $175 forward 7 unknown #
coedge $-1 $103 $176 $67 $112 reversed $63 $-1 #
edge $-1 $177 -71.915036469618826 $116 71.915036469618826 $111 $178 forward 7 unknown #
coedge $-1 $106 $68 $176 $179 forward $115 $-1 #
coedge $-1 $68 $106 $172 $180 reversed $115 $-1 #
loop $-1 $-1 $113 $157 #
vertex $-1 $69 $181 #
vertex $-1 $69 $182 #
straight-curve $-1 71.915036469618826 0 19.597209857537699 0 1 0 I I #
face $-1 $183 $184 $16 $-1 $185 reversed single #
loop $-1 $-1 $186 $70 #
plane-surface $-1 -85.942995238664992 0 -17.142160974691954 1 0 0 0 0 -1 forward_v I I I I #
coedge $-1 $187 $73 $188 $189 reversed $45 $-1 #
coedge $-1 $73 $187 $128 $190 reversed $45 $-1 #
edge $-1 $130 14.68711209184621 $191 19.597209857537699 $73 $192 forward 7 unknown #
coedge $-1 $75 $74 $193 $194 reversed $29 $-1 #
coedge $-1 $195 $196 $74 $127 forward $197 $-1 #
edge $-1 $198 -19.597209857537699 $131 -14.68711209184621 $126 $199 forward 7 unknown #
coedge $-1 $200 $76 $123 $190 forward $71 $-1 #
coedge $-1 $76 $200 $195 $201 forward $71 $-1 #
vertex $-1 $124 $202 #
vertex $-1 $201 $203 #
straight-curve $-1 -71.915036469618826 0 -14.68711209184621 0 -1 0 I I #
face $-1 $-1 $145 $17 $-1 $204 forward single #
loop $-1 $-1 $205 $78 #
plane-surface $-1 0 -43.260514659647107 0 0 1 0 0 0 1 forward_v I I I I #
coedge $-1 $206 $207 $208 $209 reversed $79 $-1 #
coedge $-1 $210 $81 $83 $143 forward $49 $-1 #
coedge $-1 $81 $210 $206 $211 forward $49 $-1 #
coedge $-1 $208 $84 $81 $140 forward $145 $-1 #
edge $-1 $147 -28.798619585502493 $212 -8.4764104755901002 $139 $213 forward 7 unknown #
coedge $-1 $214 $215 $82 $142 forward $134 $-1 #
edge $-1 $216 -61.195451852529267 $146 -42.49377307895184 $141 $217 forward 7 unknown #
edge $-1 $147 -36.311254324385359 $216 8.2634070795339233e-015 $83 $218 forward 7 unknown #
coedge $-1 $84 $208 $214 $219 forward $145 $-1 #
loop $-1 $-1 $208 $133 #
vertex $-1 $142 $220 #
vertex $-1 $85 $221 #
straight-curve $-1 47.43613461604879 -58.669239762928527 19.597209857537699 0 1 0 I I #
coedge $-1 $149 $149 $-1 $222 reversed $88 $-1 #
edge $-1 $223 0 $223 6.2831853071796004 $89 $224 forward 7 unknown #
vertex $-1 $92 $225 #
ellipse-curve $-1 32.92027096611136 -27.698104807216492 10.246370470748985 0 -0.51503808176128008 0.85716729658548041 2 0 0 1 I I #
coedge $-1 $153 $153 $-1 $226 reversed $95 $-1 #
edge $-1 $227 0 $227 6.2831853071796004 $96 $228 forward 7 unknown #
vertex $-1 $99 $229 #
ellipse-curve $-1 41.629789156073812 -27.698104807216492 10.246370470748985 0 -0.51503808176128008 0.85716729658548041 2 0 0 1 I I #
face $-1 $-1 $115 $15 $-1 $230 reversed single #
loop $-1 $-1 $172 $100 #
plane-surface $-1 0 43.260514659647107 0 0 -1 0 0 0 -1 forward_v I I I I #
coedge $-1 $170 $231 $103 $162 reversed $101 $-1 #
coedge $-1 $176 $103 $104 $164 reversed $63 $-1 #
edge $-1 $177 -19.597209857537699 $232 19.597209857537699 $160 $233 forward 7 unknown #
coedge $-1 $105 $104 $231 $234 forward $41 $-1 #
edge $-1 $168 -71.915036469618826 $232 71.915036469618826 $161 $235 forward 7 unknown #
coedge $-1 $173 $172 $105 $166 reversed $158 $-1 #
edge $-1 $236 -71.915036469618826 $167 71.915036469618826 $165 $237 forward 7 unknown #
vertex $-1 $107 $238 #
vertex $-1 $179 $239 #
straight-curve $-1 71.915036469618826 0 -19.597209857537699 0 -1 0 I I #
coedge $-1 $240 $160 $108 $171 reversed $101 $-1 #
edge $-1 $174 -43.260514659647107 $177 43.260514659647107 $170 $241 forward 7 unknown #
coedge $-1 $165 $109 $114 $180 forward $158 $-1 #
coedge $-1 $109 $165 $240 $242 reversed $158 $-1 #
vertex $-1 $110 $243 #
straight-curve $-1 0 43.260514659647107 19.597209857537699 -1 0 0 I I #
coedge $-1 $111 $161 $113 $179 reversed $63 $-1 #
vertex $-1 $171 $244 #
straight-curve $-1 0 -43.260514659647107 19.597209857537699 1 0 0 I I #
edge $-1 $116 -19.597209857537699 $168 19.597209857537699 $113 $245 forward 7 unknown #
edge $-1 $117 -19.597209857537699 $167 19.597209857537699 $114 $246 forward 7 unknown #
point $-1 71.915036469618826 -43.260514659647107 19.597209857537699 #
point $-1 71.915036469618826 43.260514659647107 19.597209857537699 #
face $-1 $-1 $197 $16 $-1 $247 reversed single #
loop $-1 $-1 $193 $119 #
plane-surface $-1 0 0 -19.597209857537699 0 0 1 1 0 0 forward_v I I I I #
coedge $-1 $248 $249 $187 $250 forward $120 $-1 #
coedge $-1 $123 $122 $186 $250 reversed $45 $-1 #
coedge $-1 $193 $251 $122 $189 forward $184 $-1 #
edge $-1 $252 -85.942995238664992 $191 -71.915036469618826 $122 $253 forward 7 unknown #
edge $-1 $130 -7.0139793845230827 $254 7.0139793845230827 $123 $255 forward 7 unknown #
vertex $-1 $124 $256 #
straight-curve $-1 -71.915036469618826 43.260514659647107 0 0 0 -1 I I #
coedge $-1 $257 $188 $125 $194 forward $184 $-1 #
edge $-1 $191 -43.260514659647107 $198 43.260514659647107 $193 $258 forward 7 unknown #
coedge $-1 $259 $126 $129 $201 reversed $197 $-1 #
coedge $-1 $126 $259 $257 $260 reversed $197 $-1 #
loop $-1 $-1 $126 $183 #
vertex $-1 $260 $261 #
straight-curve $-1 -71.915036469618826 -43.260514659647107 0 0 0 1 I I #
coedge $-1 $129 $128 $249 $262 forward $71 $-1 #
edge $-1 $263 -7.0139793845230827 $131 7.0139793845230827 $195 $264 forward 7 unknown #
point $-1 -71.915036469618826 43.260514659647107 -14.68711209184621 #
point $-1 -71.915036469618826 -43.260514659647107 -14.68711209184621 #
plane-surface $-1 0 0 19.597209857537699 0 0 1 1 0 0 forward_v I I I I #
coedge $-1 $215 $214 $207 $265 forward $134 $-1 #
coedge $-1 $207 $136 $138 $211 reversed $79 $-1 #
coedge $-1 $136 $206 $205 $265 reversed $79 $-1 #
coedge $-1 $144 $139 $136 $209 forward $145 $-1 #
edge $-1 $212 -46.533544808142665 $266 -15.408725103281419 $208 $267 forward 7 unknown #
coedge $-1 $138 $137 $215 $268 reversed $49 $-1 #
edge $-1 $269 -8.2634070795339233e-015 $212 36.311254324385359 $206 $270 forward 7 unknown #
vertex $-1 $140 $271 #
straight-curve $-1 18.637515030546297 -12.135694954785867 19.597209857537699 -1 0 0 I I #
coedge $-1 $205 $141 $144 $219 reversed $134 $-1 #
coedge $-1 $141 $205 $210 $268 forward $134 $-1 #
vertex $-1 $142 $272 #
straight-curve $-1 47.43613461604879 -43.260514659647107 62.090982936489539 0 0 1 I I #
straight-curve $-1 47.43613461604879 -43.2605146596471 0.89553108396027881 0 -0.85716729658548041 -0.51503808176128008 I I #
edge $-1 $266 27.113925506136397 $146 47.43613461604879 $214 $273 forward 7 unknown #
point $-1 47.43613461604879 -43.260514659647107 19.597209857537699 #
point $-1 47.43613461604879 -12.135694954785865 19.597209857537699 #
edge $-1 $274 1 $274 0 $149 $-1 forward 7 unknown #
vertex $-1 $150 $275 #
ellipse-curve $-1 32.92027096611136 -25.81528515140862 7.1128324053542862 0 -0.51503808176128008 0.85716729658548041 2 0 0 1 I I #
point $-1 34.92027096611136 -27.698104807216499 10.246370470748994 #
edge $-1 $276 1 $276 0 $153 $-1 forward 7 unknown #
vertex $-1 $154 $277 #
ellipse-curve $-1 41.629789156073812 -25.81528515140862 7.1128324053542862 0 -0.51503808176128008 0.85716729658548041 2 0 0 1 I I #
point $-1 43.629789156073812 -27.698104807216499 10.246370470748994 #
plane-surface $-1 71.915036469618826 0 0 -1 0 0 0 0 1 forward_v I I I I #
coedge $-1 $160 $240 $163 $234 reversed $101 $-1 #
vertex $-1 $234 $278 #
straight-curve $-1 -71.915036469618826 -43.260514659647107 0 0 0 -1 I I #
edge $-1 $232 -43.260514659647107 $236 43.260514659647107 $231 $279 forward 7 unknown #
straight-curve $-1 0 -43.260514659647107 -19.597209857537699 -1 0 0 I I #
vertex $-1 $166 $280 #
straight-curve $-1 0 43.260514659647107 -19.597209857537699 1 0 0 I I #
point $-1 71.915036469618826 43.260514659647107 -19.597209857537699 #
point $-1 71.915036469618826 -43.260514659647107 -19.597209857537699 #
coedge $-1 $231 $170 $173 $242 forward $101 $-1 #
straight-curve $-1 -71.915036469618826 0 19.597209857537699 0 -1 0 I I #
edge $-1 $174 -19.597209857537699 $236 19.597209857537699 $173 $281 forward 7 unknown #
point $-1 -71.915036469618826 43.260514659647107 19.597209857537699 #
point $-1 -71.915036469618826 -43.260514659647107 19.597209857537699 #
straight-curve $-1 71.915036469618826 -43.260514659647107 0 0 0 -1 I I #
straight-curve $-1 71.915036469618826 43.260514659647107 0 0 0 -1 I I #
plane-surface $-1 0 -43.260514659647107 0 0 1 0 0 0 1 forward_v I I I I #
coedge $-1 $282 $186 $251 $283 reversed $120 $-1 #
coedge $-1 $186 $282 $200 $262 reversed $120 $-1 #
edge $-1 $254 -2.4550488828457446 $252 2.4550488828457446 $187 $284 forward 7 unknown #
coedge $-1 $188 $257 $248 $283 forward $184 $-1 #
vertex $-1 $189 $285 #
straight-curve $-1 0 43.260514659647107 -19.597209857537699 1 0 0 I I #
vertex $-1 $190 $286 #
straight-curve $-1 -78.929015854141909 43.260514659647107 -14.68711209184621 -1 0 0 I I #
point $-1 -71.915036469618826 43.260514659647107 -19.597209857537699 #
coedge $-1 $251 $193 $196 $260 forward $184 $-1 #
straight-curve $-1 -71.915036469618826 0 -19.597209857537699 0 -1 0 I I #
coedge $-1 $196 $195 $282 $287 forward $197 $-1 #
edge $-1 $198 -7.0139793845230827 $288 7.0139793845230827 $196 $289 forward 7 unknown #
point $-1 -71.915036469618826 -43.260514659647107 -19.597209857537699 #
edge $-1 $254 -43.260514659647107 $263 43.260514659647107 $249 $290 forward 7 unknown #
vertex $-1 $262 $291 #
straight-curve $-1 -78.929015854141909 -43.260514659647107 -14.68711209184621 1 0 0 I I #
edge $-1 $266 42.49377307895184 $269 61.195451852529267 $205 $292 forward 7 unknown #
vertex $-1 $219 $293 #
straight-curve $-1 27.113925506136397 -58.669239762928527 19.597209857537699 0 -1 0 I I #
edge $-1 $269 8.4764104755901002 $216 28.798619585502493 $215 $294 forward 7 unknown #
vertex $-1 $268 $295 #
straight-curve $-1 27.113925506136397 -43.2605146596471 0.89553108396027881 0 0.85716729658548041 0.51503808176128008 I I #
point $-1 27.113925506136397 -12.135694954785865 19.597209857537699 #
point $-1 47.43613461604879 -43.260514659647107 0.89553108396027459 #
straight-curve $-1 0 -43.260514659647107 19.597209857537699 1 0 0 I I #
vertex $-1 $222 $296 #
point $-1 34.92027096611136 -25.81528515140862 7.1128324053542862 #
vertex $-1 $226 $297 #
point $-1 43.629789156073812 -25.81528515140862 7.1128324053542862 #
point $-1 -71.915036469618826 -43.260514659647107 -19.597209857537699 #
straight-curve $-1 -71.915036469618826 0 -19.597209857537699 0 1 0 I I #
point $-1 -71.915036469618826 43.260514659647107 -19.597209857537699 #
straight-curve $-1 -71.915036469618826 43.260514659647107 0 0 0 -1 I I #
coedge $-1 $249 $248 $259 $287 reversed $120 $-1 #
edge $-1 $288 -43.260514659647107 $252 43.260514659647107 $248 $298 forward 7 unknown #
straight-curve $-1 -85.942995238664992 43.260514659647107 -17.142160974691954 0 0 -1 I I #
point $-1 -85.942995238664992 43.260514659647107 -19.597209857537699 #
point $-1 -85.942995238664992 43.260514659647107 -14.68711209184621 #
edge $-1 $263 -2.4550488828457446 $288 2.4550488828457446 $282 $299 forward 7 unknown #
vertex $-1 $283 $300 #
straight-curve $-1 -78.929015854141909 -43.260514659647107 -19.597209857537699 -1 0 0 I I #
straight-curve $-1 -85.942995238664992 0 -14.68711209184621 0 -1 0 I I #
point $-1 -85.942995238664992 -43.260514659647107 -14.68711209184621 #
straight-curve $-1 27.113925506136397 -43.260514659647107 62.090982936489539 0 0 -1 I I #
point $-1 27.113925506136397 -43.260514659647107 19.597209857537699 #
straight-curve $-1 18.637515030546297 -43.260514659647107 0.89553108396027181 1 0 0 I I #
point $-1 27.113925506136397 -43.260514659647107 0.89553108396027459 #
point $-1 32.92027096611136 -24.785208987886062 5.3984978121833258 #
point $-1 41.629789156073812 -24.785208987886062 5.3984978121833258 #
straight-curve $-1 -85.942995238664992 0 -19.597209857537699 0 1 0 I I #
straight-curve $-1 -85.942995238664992 -43.260514659647107 -17.142160974691954 0 0 -1 I I #
point $-1 -85.942995238664992 -43.260514659647107 -19.597209857537699 #
End-of-ACIS-data 