500 0 5 0           
7 Unknown 11 ACIS 5.0 NT 24 Fri Mar 26 02:02:07 1999 
-1 9.9999999999999995e-007 1e-010 
body $-1 $5 $-1 $6 #
body $-1 $7 $-1 $8 #
body $-1 $9 $-1 $10 #
body $-1 $11 $-1 $12 #
body $-1 $13 $-1 $14 #
lump $-1 $-1 $15 $0 #
transform $-1 1 0 0 0 1 0 0 0 1 72.763451033051552 37.555329565445959 11.011355121526705 1 rotate no_reflect no_shear #
lump $-1 $-1 $16 $1 #
transform $-1 1 0 0 0 1 0 0 0 1 72.763451033051552 37.555329565445959 11.011355121526705 1 rotate no_reflect no_shear #
lump $-1 $-1 $17 $2 #
transform $-1 1 0 0 0 1 0 0 0 1 72.763451033051552 37.555329565445959 11.011355121526705 1 rotate no_reflect no_shear #
lump $-1 $-1 $18 $3 #
transform $-1 1 0 0 0 1 0 0 0 1 72.763451033051552 37.555329565445959 11.011355121526705 1 rotate no_reflect no_shear #
lump $-1 $-1 $19 $4 #
transform $-1 1 0 0 0 1 0 0 0 1 72.763451033051552 37.555329565445959 11.011355121526705 1 rotate no_reflect no_shear #
shell $-1 $-1 $-1 $20 $-1 $5 #
shell $-1 $-1 $-1 $21 $-1 $7 #
shell $-1 $-1 $-1 $22 $-1 $9 #
shell $-1 $-1 $-1 $23 $-1 $11 #
shell $-1 $-1 $-1 $24 $-1 $13 #
face $-1 $25 $26 $15 $-1 $27 forward single #
face $-1 $28 $29 $16 $-1 $30 reversed single #
face $-1 $31 $32 $17 $-1 $33 forward single #
face $-1 $34 $35 $18 $-1 $36 reversed single #
face $-1 $37 $38 $19 $-1 $39 forward single #
face $-1 $40 $41 $15 $-1 $42 reversed single #
loop $-1 $-1 $43 $20 #
plane-surface $-1 0 0 11.011355121526705 0 0 1 1 0 0 forward_v I I I I #
face $-1 $44 $45 $16 $-1 $46 reversed single #
loop $-1 $-1 $47 $21 #
plane-surface $-1 54.82626801963066 -1.6432583555628923 205.64006877500083 0 -1 0 -0.64278761758704617 0 -0.76604443648966558 forward_v I I I I #
face $-1 $48 $49 $17 $-1 $50 forward single #
loop $-1 $51 $52 $22 #
cone-surface $-1 65.035008998150957 -10.326015708660488 3.9851867508070256 -0.64278761758704617 0 -0.76604443648966558 3.0641777459586623 0 -2.5711504703481847 1 I I 0 1 4 forward I I I I #
face $-1 $53 $54 $18 $-1 $55 reversed single #
loop $-1 $-1 $56 $23 #
plane-surface $-1 -166.30634170694537 -19.008773061758085 112.09717810110705 0 1 0 -0.64278761758704617 0 0.76604443648966558 forward_v I I I I #
face $-1 $57 $58 $19 $-1 $59 forward single #
loop $-1 $60 $61 $24 #
cone-surface $-1 -65.035008998150957 -10.326015708660488 3.9851867508070309 0.64278761758704617 0 -0.76604443648966558 3.0641777459586623 0 2.5711504703481847 1 I I 0 1 4 forward I I I I #
face $-1 $62 $63 $15 $-1 $64 reversed single #
loop $-1 $-1 $65 $25 #
plane-surface $-1 0 0 -11.011355121526705 0 0 1 1 0 0 forward_v I I I I #
coedge $-1 $66 $67 $68 $69 forward $26 $-1 #
face $-1 $70 $71 $16 $-1 $72 reversed single #
loop $-1 $-1 $73 $28 #
plane-surface $-1 -38.716622654263148 -10.326015708660488 94.159995087686127 0.64278761758704617 0 0.76604443648966558 0.76604443648966558 0 -0.64278761758704617 forward_v I I I I #
coedge $-1 $74 $75 $76 $77 reversed $29 $-1 #
face $-1 $-1 $78 $17 $-1 $79 forward single #
loop $-1 $80 $81 $31 #
cone-surface $-1 62.214684409983306 -10.326015708660488 0.62405486097520679 -0.64278761758704617 0 -0.76604443648966558 1.5320888729793312 0 -1.2855752351740923 1 I I -0.70710678118654757 0.70710678118654746 2 forward I I I I #
loop $-1 $-1 $82 $22 #
coedge $-1 $52 $52 $83 $84 reversed $32 $-1 #
face $-1 $85 $86 $18 $-1 $87 reversed single #
loop $-1 $-1 $88 $34 #
plane-surface $-1 -72.763451033051567 -10.326015708660488 0.61710441379234737 -0.64278761758704617 0 0.76604443648966558 0.76604443648966558 0 0.64278761758704617 forward_v I I I I #
coedge $-1 $89 $90 $91 $92 reversed $35 $-1 #
face $-1 $-1 $93 $19 $-1 $94 forward single #
loop $-1 $95 $96 $37 #
cone-surface $-1 -62.214684409983299 -10.326015708660488 0.62405486097521212 0.64278761758704617 0 -0.76604443648966558 1.5320888729793312 0 1.2855752351740923 1 I I -0.70710678118654757 0.70710678118654746 2 forward I I I I #
loop $-1 $-1 $97 $24 #
coedge $-1 $61 $61 $98 $99 reversed $38 $-1 #
face $-1 $100 $101 $15 $-1 $102 reversed single #
loop $-1 $-1 $103 $40 #
plane-surface $-1 0 -37.555329565445959 0 0 1 0 0 0 1 forward_v I I I I #
coedge $-1 $104 $105 $106 $107 forward $41 $-1 #
coedge $-1 $108 $43 $109 $110 forward $26 $-1 #
coedge $-1 $43 $108 $111 $112 forward $26 $-1 #
coedge $-1 $113 $114 $43 $69 reversed $115 $-1 #
edge $-1 $116 -37.555329565445959 $117 37.555329565445959 $68 $118 forward 7 unknown #
face $-1 $119 $120 $16 $-1 $121 forward single #
loop $-1 $-1 $122 $44 #
plane-surface $-1 54.82626801963066 -19.008773061758085 205.64006877500083 0 1 0 0.64278761758704617 0 0.76604443648966558 forward_v I I I I #
coedge $-1 $123 $124 $125 $126 reversed $45 $-1 #
coedge $-1 $75 $47 $127 $128 reversed $29 $-1 #
coedge $-1 $47 $74 $123 $129 reversed $29 $-1 #
coedge $-1 $125 $130 $47 $77 forward $120 $-1 #
edge $-1 $131 -45.350317023236222 $132 -32.962931659422146 $76 $133 forward 7 unknown #
loop $-1 $-1 $83 $48 #
plane-surface $-1 -38.716622654263148 -10.326015708660488 94.159995087686127 0.64278761758704617 0 0.76604443648966558 0.76604443648966558 0 -0.64278761758704617 forward_v I I I I #
loop $-1 $-1 $134 $31 #
coedge $-1 $81 $81 $82 $135 reversed $49 $-1 #
coedge $-1 $82 $82 $81 $135 forward $51 $-1 #
coedge $-1 $83 $83 $52 $84 forward $78 $-1 #
edge $-1 $136 0 $136 6.2831853071796004 $83 $137 forward 7 unknown #
face $-1 $138 $139 $18 $-1 $140 reversed single #
loop $-1 $-1 $141 $53 #
plane-surface $-1 -166.30634170694537 -1.6432583555628923 112.09717810110705 0 -1 0 0.64278761758704617 0 -0.76604443648966558 forward_v I I I I #
coedge $-1 $142 $143 $144 $145 reversed $54 $-1 #
coedge $-1 $90 $56 $146 $147 reversed $35 $-1 #
coedge $-1 $56 $89 $142 $148 reversed $35 $-1 #
coedge $-1 $144 $149 $56 $92 forward $150 $-1 #
edge $-1 $151 10.389719820421135 $152 22.777105184235168 $91 $153 forward 7 unknown #
loop $-1 $-1 $98 $57 #
plane-surface $-1 -72.763451033051567 -10.326015708660488 0.61710441379234737 -0.64278761758704617 0 0.76604443648966558 0.76604443648966558 0 0.64278761758704617 forward_v I I I I #
loop $-1 $-1 $154 $37 #
coedge $-1 $96 $96 $97 $155 reversed $58 $-1 #
coedge $-1 $97 $97 $96 $155 forward $60 $-1 #
coedge $-1 $98 $98 $61 $99 forward $93 $-1 #
edge $-1 $156 0 $156 6.2831853071796004 $98 $157 forward 7 unknown #
face $-1 $158 $159 $15 $-1 $160 reversed single #
loop $-1 $-1 $161 $62 #
plane-surface $-1 -72.763451033051552 0 0 1 0 0 0 0 -1 forward_v I I I I #
coedge $-1 $162 $111 $163 $164 forward $63 $-1 #
coedge $-1 $165 $65 $162 $166 forward $41 $-1 #
coedge $-1 $65 $165 $167 $168 forward $41 $-1 #
coedge $-1 $114 $113 $65 $107 reversed $115 $-1 #
edge $-1 $169 -37.555329565445959 $170 37.555329565445959 $106 $171 forward 7 unknown #
coedge $-1 $67 $66 $172 $173 forward $26 $-1 #
coedge $-1 $174 $175 $66 $110 reversed $159 $-1 #
edge $-1 $117 -72.763451033051552 $176 72.763451033051552 $109 $177 forward 7 unknown #
coedge $-1 $103 $178 $67 $112 reversed $63 $-1 #
edge $-1 $179 -72.763451033051552 $116 72.763451033051552 $111 $180 forward 7 unknown #
coedge $-1 $106 $68 $178 $181 forward $115 $-1 #
coedge $-1 $68 $106 $174 $182 reversed $115 $-1 #
loop $-1 $-1 $113 $158 #
vertex $-1 $69 $183 #
vertex $-1 $69 $184 #
straight-curve $-1 72.763451033051552 0 11.011355121526705 0 1 0 I I #
face $-1 $-1 $185 $16 $-1 $186 reversed single #
loop $-1 $-1 $76 $70 #
plane-surface $-1 0 0 11.011355121526705 0 0 1 1 0 0 forward_v I I I I #
coedge $-1 $187 $188 $189 $190 reversed $71 $-1 #
coedge $-1 $191 $73 $75 $129 forward $45 $-1 #
coedge $-1 $73 $191 $187 $192 forward $45 $-1 #
coedge $-1 $189 $76 $73 $126 forward $120 $-1 #
edge $-1 $132 -3.5197494987673519 $193 13.84576520742784 $125 $194 forward 7 unknown #
coedge $-1 $195 $196 $74 $128 forward $185 $-1 #
edge $-1 $197 -102.20292997370809 $131 -91.808679265973709 $127 $198 forward 7 unknown #
edge $-1 $132 129.35631877647276 $197 145.5269020661031 $75 $199 forward 7 unknown #
coedge $-1 $76 $189 $195 $200 forward $120 $-1 #
vertex $-1 $128 $201 #
vertex $-1 $77 $202 #
straight-curve $-1 27.41313400981533 -1.6432583555628923 11.011355121526705 -1 0 0 I I #
coedge $-1 $134 $134 $-1 $203 reversed $80 $-1 #
edge $-1 $204 0 $204 6.2831853071796004 $81 $205 forward 7 unknown #
vertex $-1 $84 $206 #
ellipse-curve $-1 66.569758351144529 -10.326015708660488 5.8142297676595156 0.64278761758704617 0 0.76604443648966558 3.0641777459586623 0 -2.5711504703481847 1 I I #
face $-1 $-1 $150 $18 $-1 $207 forward single #
loop $-1 $-1 $208 $85 #
plane-surface $-1 -72.763451033051552 0 0 1 0 0 0 0 -1 forward_v I I I I #
coedge $-1 $209 $210 $211 $212 reversed $86 $-1 #
coedge $-1 $213 $88 $90 $148 forward $54 $-1 #
coedge $-1 $88 $213 $209 $214 forward $54 $-1 #
coedge $-1 $211 $91 $88 $145 forward $150 $-1 #
edge $-1 $152 -13.84576520742784 $215 3.5197494987673519 $144 $216 forward 7 unknown #
coedge $-1 $217 $218 $89 $147 forward $139 $-1 #
edge $-1 $219 -55.431484636761162 $151 -45.037233929026819 $146 $220 forward 7 unknown #
edge $-1 $152 -16.170583289630301 $219 -1.8522068651326679e-014 $90 $221 forward 7 unknown #
coedge $-1 $91 $211 $217 $222 forward $150 $-1 #
loop $-1 $-1 $211 $138 #
vertex $-1 $147 $223 #
vertex $-1 $92 $224 #
straight-curve $-1 -83.153170853472687 -19.008773061758085 11.011355121526705 1 0 0 I I #
coedge $-1 $154 $154 $-1 $225 reversed $95 $-1 #
edge $-1 $226 0 $226 6.2831853071796004 $96 $227 forward 7 unknown #
vertex $-1 $99 $228 #
ellipse-curve $-1 -66.569758351144529 -10.326015708660488 5.8142297676595351 -0.64278761758704617 0 0.76604443648966558 3.0641777459586623 0 2.5711504703481847 1 I I #
face $-1 $-1 $115 $15 $-1 $229 reversed single #
loop $-1 $-1 $174 $100 #
plane-surface $-1 0 37.555329565445959 0 0 -1 0 0 0 -1 forward_v I I I I #
coedge $-1 $230 $172 $175 $231 forward $101 $-1 #
coedge $-1 $178 $103 $104 $166 reversed $63 $-1 #
coedge $-1 $172 $230 $103 $164 reversed $101 $-1 #
edge $-1 $179 -11.011355121526705 $232 11.011355121526705 $163 $233 forward 7 unknown #
coedge $-1 $105 $104 $230 $234 forward $41 $-1 #
edge $-1 $170 -72.763451033051552 $232 72.763451033051552 $162 $235 forward 7 unknown #
coedge $-1 $175 $174 $105 $168 reversed $159 $-1 #
edge $-1 $236 -72.763451033051552 $169 72.763451033051552 $167 $237 forward 7 unknown #
vertex $-1 $107 $238 #
vertex $-1 $181 $239 #
straight-curve $-1 72.763451033051552 0 -11.011355121526705 0 -1 0 I I #
coedge $-1 $161 $163 $108 $173 reversed $101 $-1 #
edge $-1 $176 -37.555329565445959 $179 37.555329565445959 $172 $240 forward 7 unknown #
coedge $-1 $167 $109 $114 $182 forward $159 $-1 #
coedge $-1 $109 $167 $161 $231 reversed $159 $-1 #
vertex $-1 $110 $241 #
straight-curve $-1 0 37.555329565445959 11.011355121526705 -1 0 0 I I #
coedge $-1 $111 $162 $113 $181 reversed $63 $-1 #
vertex $-1 $173 $242 #
straight-curve $-1 0 -37.555329565445959 11.011355121526705 1 0 0 I I #
edge $-1 $116 -11.011355121526705 $170 11.011355121526705 $113 $243 forward 7 unknown #
edge $-1 $117 -11.011355121526705 $169 11.011355121526705 $114 $244 forward 7 unknown #
point $-1 72.763451033051552 -37.555329565445959 11.011355121526705 #
point $-1 72.763451033051552 37.555329565445959 11.011355121526705 #
loop $-1 $-1 $127 $119 #
plane-surface $-1 72.763451033051552 0 0 -1 0 0 0 0 1 forward_v I I I I #
coedge $-1 $188 $122 $124 $192 reversed $71 $-1 #
coedge $-1 $122 $187 $245 $246 reversed $71 $-1 #
coedge $-1 $130 $125 $122 $190 forward $120 $-1 #
edge $-1 $193 32.962931659422146 $247 45.350317023236222 $189 $248 forward 7 unknown #
coedge $-1 $124 $123 $196 $249 reversed $45 $-1 #
edge $-1 $250 -145.5269020661031 $193 -129.35631877647276 $187 $251 forward 7 unknown #
vertex $-1 $126 $252 #
straight-curve $-1 60.376065669237491 -5.1630078543302442 11.011355121526705 0 -1 0 I I #
coedge $-1 $245 $127 $130 $200 reversed $185 $-1 #
coedge $-1 $127 $245 $191 $249 forward $185 $-1 #
vertex $-1 $128 $253 #
straight-curve $-1 72.763451033051552 -1.6432583555628923 102.82003438750041 0 0 1 I I #
straight-curve $-1 -38.716622654263148 -1.6432583555628923 94.159995087686127 0.76604443648966558 0 -0.64278761758704617 I I #
edge $-1 $247 -19.008773061758085 $131 -1.6432583555628923 $195 $254 forward 7 unknown #
point $-1 72.763451033051552 -1.6432583555628923 11.011355121526705 #
point $-1 60.376065669237477 -1.6432583555628923 11.011355121526719 #
edge $-1 $255 1 $255 0 $134 $-1 forward 7 unknown #
vertex $-1 $135 $256 #
ellipse-curve $-1 63.500259645157399 -10.326015708660488 2.1561437339545373 0.64278761758704617 0 0.76604443648966558 3.0641777459586623 0 -2.5711504703481847 1 I I #
point $-1 69.633936097103188 -10.326015708660488 3.2430792973113292 #
plane-surface $-1 0 0 11.011355121526705 0 0 1 1 0 0 forward_v I I I I #
coedge $-1 $218 $217 $210 $257 forward $139 $-1 #
coedge $-1 $210 $141 $143 $214 reversed $86 $-1 #
coedge $-1 $141 $209 $208 $257 reversed $86 $-1 #
coedge $-1 $149 $144 $141 $212 forward $150 $-1 #
edge $-1 $215 -22.777105184235168 $258 -10.389719820421135 $211 $259 forward 7 unknown #
coedge $-1 $143 $142 $218 $260 reversed $54 $-1 #
edge $-1 $261 1.8522068651326679e-014 $215 16.170583289630301 $209 $262 forward 7 unknown #
vertex $-1 $145 $263 #
straight-curve $-1 -60.376065669237526 -5.1630078543302442 11.011355121526705 0 1 0 I I #
coedge $-1 $208 $146 $149 $222 reversed $139 $-1 #
coedge $-1 $146 $208 $213 $260 forward $139 $-1 #
vertex $-1 $147 $264 #
straight-curve $-1 -72.763451033051552 -19.008773061758085 56.048589050553524 0 0 1 I I #
straight-curve $-1 -72.763451033051567 -19.008773061758085 0.61710441379234737 -0.76604443648966558 0 -0.64278761758704617 I I #
edge $-1 $258 1.6432583555628923 $151 19.008773061758085 $217 $265 forward 7 unknown #
point $-1 -72.763451033051552 -19.008773061758085 11.011355121526705 #
point $-1 -60.376065669237519 -19.008773061758085 11.011355121526705 #
edge $-1 $266 1 $266 0 $154 $-1 forward 7 unknown #
vertex $-1 $155 $267 #
ellipse-curve $-1 -63.500259645157392 -10.326015708660488 2.1561437339545426 -0.64278761758704617 0 0.76604443648966558 3.0641777459586623 0 2.5711504703481847 1 I I #
point $-1 -63.505580605185855 -10.326015708660488 8.3853802380077038 #
plane-surface $-1 72.763451033051552 0 0 -1 0 0 0 0 1 forward_v I I I I #
coedge $-1 $163 $161 $165 $234 reversed $101 $-1 #
edge $-1 $176 -11.011355121526705 $236 11.011355121526705 $175 $268 forward 7 unknown #
vertex $-1 $234 $269 #
straight-curve $-1 -72.763451033051552 -37.555329565445959 0 0 0 -1 I I #
edge $-1 $232 -37.555329565445959 $236 37.555329565445959 $230 $270 forward 7 unknown #
straight-curve $-1 0 -37.555329565445959 -11.011355121526705 -1 0 0 I I #
vertex $-1 $168 $271 #
straight-curve $-1 0 37.555329565445959 -11.011355121526705 1 0 0 I I #
point $-1 72.763451033051552 37.555329565445959 -11.011355121526705 #
point $-1 72.763451033051552 -37.555329565445959 -11.011355121526705 #
straight-curve $-1 -72.763451033051552 0 11.011355121526705 0 -1 0 I I #
point $-1 -72.763451033051552 37.555329565445959 11.011355121526705 #
point $-1 -72.763451033051552 -37.555329565445959 11.011355121526705 #
straight-curve $-1 72.763451033051552 -37.555329565445959 0 0 0 -1 I I #
straight-curve $-1 72.763451033051552 37.555329565445959 0 0 0 -1 I I #
coedge $-1 $196 $195 $188 $246 forward $185 $-1 #
edge $-1 $247 91.808679265973709 $250 102.20292997370809 $245 $272 forward 7 unknown #
vertex $-1 $200 $273 #
straight-curve $-1 27.41313400981533 -19.008773061758085 11.011355121526705 1 0 0 I I #
edge $-1 $250 -13.84576520742784 $197 3.5197494987673519 $196 $274 forward 7 unknown #
vertex $-1 $249 $275 #
straight-curve $-1 -38.716622654263148 -19.008773061758085 94.159995087686127 -0.76604443648966558 0 0.64278761758704617 I I #
point $-1 60.376065669237477 -19.008773061758085 11.011355121526719 #
point $-1 72.763451033051552 -1.6432583555628923 0.61710441379231895 #
straight-curve $-1 72.763451033051552 0 11.011355121526705 0 1 0 I I #
vertex $-1 $203 $276 #
point $-1 66.564437391116059 -10.326015708660488 -0.41500673639364716 #
edge $-1 $258 45.037233929026819 $261 55.431484636761162 $208 $277 forward 7 unknown #
vertex $-1 $222 $278 #
straight-curve $-1 -83.153170853472687 -1.6432583555628923 11.011355121526705 -1 0 0 I I #
edge $-1 $261 -3.5197494987673519 $219 13.84576520742784 $218 $279 forward 7 unknown #
vertex $-1 $260 $280 #
straight-curve $-1 -72.763451033051567 -1.6432583555628923 0.61710441379234737 0.76604443648966558 0 0.64278761758704617 I I #
point $-1 -60.376065669237519 -1.6432583555628923 11.011355121526705 #
point $-1 -72.763451033051552 -19.008773061758085 0.61710441379235925 #
straight-curve $-1 -72.763451033051552 0 11.011355121526705 0 -1 0 I I #
vertex $-1 $225 $281 #
point $-1 -60.436081899198726 -10.326015708660488 4.7272942043027273 #
straight-curve $-1 -72.763451033051552 37.555329565445959 0 0 0 -1 I I #
point $-1 -72.763451033051552 -37.555329565445959 -11.011355121526705 #
straight-curve $-1 -72.763451033051552 0 -11.011355121526705 0 1 0 I I #
point $-1 -72.763451033051552 37.555329565445959 -11.011355121526705 #
straight-curve $-1 72.763451033051552 -19.008773061758085 102.82003438750041 0 0 -1 I I #
point $-1 72.763451033051552 -19.008773061758085 11.011355121526705 #
straight-curve $-1 72.763451033051538 -5.1630078543302442 0.61710441379233316 0 1 0 I I #
point $-1 72.763451033051552 -19.008773061758085 0.61710441379231895 #
point $-1 60.929109174809213 -10.326015708660488 -0.90803401200412392 #
straight-curve $-1 -72.763451033051552 -1.6432583555628923 56.048589050553524 0 0 -1 I I #
point $-1 -72.763451033051552 -1.6432583555628923 11.011355121526705 #
straight-curve $-1 -72.763451033051552 -5.1630078543302442 0.61710441379235903 0 -1 0 I I #
point $-1 -72.763451033051552 -1.6432583555628923 0.61710441379235925 #
point $-1 -60.929109174809206 -10.326015708660488 -0.9080340120041186 #
End-of-ACIS-data 