500 0 6 0           
7 Unknown 11 ACIS 5.0 NT 24 Fri Mar 26 15:43:49 1999 
-1 9.9999999999999995e-007 1e-010 
body $-1 $6 $-1 $7 #
body $-1 $8 $-1 $9 #
body $-1 $10 $-1 $11 #
body $-1 $12 $-1 $13 #
body $-1 $14 $-1 $15 #
body $-1 $16 $-1 $17 #
lump $-1 $-1 $18 $0 #
transform $-1 1 0 0 0 1 0 0 0 1 64.483169042023988 27.264492238405015 9.5599209776515011 1 rotate no_reflect no_shear #
lump $-1 $-1 $19 $1 #
transform $-1 1 0 0 0 1 0 0 0 1 64.483169042023988 27.264492238405015 9.5599209776515011 1 rotate no_reflect no_shear #
lump $-1 $-1 $20 $2 #
transform $-1 1 0 0 0 1 0 0 0 1 64.483169042023988 27.264492238405015 9.5599209776515011 1 rotate no_reflect no_shear #
lump $-1 $-1 $21 $3 #
transform $-1 1 0 0 0 1 0 0 0 1 64.483169042023988 27.264492238405015 9.5599209776515011 1 rotate no_reflect no_shear #
lump $-1 $-1 $22 $4 #
transform $-1 1 0 0 0 1 0 0 0 1 64.483169042023988 27.264492238405015 9.5599209776515011 1 rotate no_reflect no_shear #
lump $-1 $-1 $23 $5 #
transform $-1 1 0 0 0 1 0 0 0 1 64.483169042023988 27.264492238405015 9.5599209776515011 1 rotate no_reflect no_shear #
shell $-1 $-1 $-1 $24 $-1 $6 #
shell $-1 $-1 $-1 $25 $-1 $8 #
shell $-1 $-1 $-1 $26 $-1 $10 #
shell $-1 $-1 $-1 $27 $-1 $12 #
shell $-1 $-1 $-1 $28 $-1 $14 #
shell $-1 $-1 $-1 $29 $-1 $16 #
face $-1 $30 $31 $18 $-1 $32 forward single #
face $-1 $33 $34 $19 $-1 $35 reversed single #
face $-1 $36 $37 $20 $-1 $38 reversed single #
face $-1 $39 $40 $21 $-1 $41 forward single #
face $-1 $42 $43 $22 $-1 $44 reversed single #
face $-1 $45 $46 $23 $-1 $47 forward single #
face $-1 $48 $49 $18 $-1 $50 reversed single #
loop $-1 $-1 $51 $24 #
plane-surface $-1 0 0 9.5599209776515011 0 0 1 1 0 0 forward_v I I I I #
face $-1 $52 $53 $19 $-1 $54 reversed single #
loop $-1 $-1 $55 $25 #
plane-surface $-1 0 -21.003950403061825 6.4261854748299205 0 0 1 1 0 0 forward_v I I I I #
face $-1 $56 $57 $20 $-1 $58 reversed single #
loop $-1 $-1 $59 $26 #
plane-surface $-1 -42.597211353047641 79.899651253104082 129.94898330850648 1 0 0 0 -0.70710678939079041 -0.70710677298230451 forward_v I I I I #
face $-1 $60 $61 $21 $-1 $62 forward single #
loop $-1 $63 $64 $27 #
cone-surface $-1 -29.275111034224267 21.091384069190831 3.3868127344451637 0 -0.70710678939079041 -0.70710677298230451 1.5 0 0 1 I I 0 1 1.5 forward I I I I #
face $-1 $65 $66 $22 $-1 $67 reversed single #
loop $-1 $-1 $68 $28 #
plane-surface $-1 15.953010715400904 79.899651253104082 129.94898330850648 1 0 0 0 -0.70710678939079041 -0.70710677298230451 forward_v I I I I #
face $-1 $69 $70 $23 $-1 $71 forward single #
loop $-1 $72 $73 $29 #
cone-surface $-1 29.275111034224281 21.091384069190831 3.3868127344451637 0 -0.70710678939079041 -0.70710677298230451 1.5 0 0 1 I I 0 1 1.5 forward I I I I #
face $-1 $74 $75 $18 $-1 $76 reversed single #
loop $-1 $-1 $77 $30 #
plane-surface $-1 0 0 -9.5599209776515011 0 0 1 1 0 0 forward_v I I I I #
coedge $-1 $78 $79 $80 $81 forward $31 $-1 #
face $-1 $82 $83 $19 $-1 $84 reversed single #
loop $-1 $-1 $85 $33 #
plane-surface $-1 0 -14.743408567718635 7.9930532262407112 0 -1 0 0 0 -1 forward_v I I I I #
coedge $-1 $86 $87 $88 $89 reversed $34 $-1 #
face $-1 $90 $91 $20 $-1 $92 reversed single #
loop $-1 $-1 $93 $36 #
plane-surface $-1 -29.275111034224267 -11.293322008994309 38.756012162550434 0 0.70710678939079041 0.70710677298230451 1 0 0 forward_v I I I I #
coedge $-1 $94 $95 $96 $97 reversed $37 $-1 #
face $-1 $-1 $98 $21 $-1 $99 forward single #
loop $-1 $100 $101 $39 #
cone-surface $-1 -29.275111034224267 19.068807677932885 1.3642363901213095 0 -0.70710678939079041 -0.70710677298230451 0.75 0 0 1 I I -0.70710678118654757 0.70710678118654757 0.75 forward I I I I #
loop $-1 $-1 $102 $27 #
coedge $-1 $64 $64 $103 $104 reversed $40 $-1 #
face $-1 $105 $106 $22 $-1 $107 reversed single #
loop $-1 $-1 $108 $42 #
plane-surface $-1 29.275111034224281 -11.293322008994309 38.756012162550434 0 0.70710678939079041 0.70710677298230451 1 0 0 forward_v I I I I #
coedge $-1 $109 $110 $111 $112 reversed $43 $-1 #
face $-1 $-1 $113 $23 $-1 $114 forward single #
loop $-1 $115 $116 $45 #
cone-surface $-1 29.275111034224281 19.068807677932885 1.3642363901213095 0 -0.70710678939079041 -0.70710677298230451 0.75 0 0 1 I I -0.70710678118654757 0.70710678118654757 0.75 forward I I I I #
loop $-1 $-1 $117 $29 #
coedge $-1 $73 $73 $118 $119 reversed $46 $-1 #
face $-1 $120 $121 $18 $-1 $122 reversed single #
loop $-1 $-1 $123 $48 #
plane-surface $-1 0 -27.264492238405015 0 0 1 0 0 0 1 forward_v I I I I #
coedge $-1 $124 $125 $126 $127 forward $49 $-1 #
coedge $-1 $128 $51 $129 $130 forward $31 $-1 #
coedge $-1 $51 $128 $131 $132 forward $31 $-1 #
coedge $-1 $133 $134 $51 $81 reversed $135 $-1 #
edge $-1 $136 -27.264492238405015 $137 27.264492238405015 $80 $138 forward 7 unknown #
face $-1 $139 $140 $19 $-1 $141 reversed single #
loop $-1 $-1 $142 $52 #
plane-surface $-1 -64.483169042023988 0 0 1 0 0 0 0 -1 forward_v I I I I #
coedge $-1 $143 $144 $145 $146 reversed $53 $-1 #
coedge $-1 $147 $55 $148 $149 reversed $34 $-1 #
coedge $-1 $55 $147 $143 $150 forward $34 $-1 #
coedge $-1 $145 $151 $55 $89 forward $152 $-1 #
edge $-1 $153 -16.762517036874101 $154 -4.2414333661877226 $88 $155 forward 7 unknown #
face $-1 $156 $157 $20 $-1 $158 forward single #
loop $-1 $-1 $159 $56 #
plane-surface $-1 -15.95301071540089 79.899651253104082 129.94898330850648 -1 0 0 0 0.70710678939079041 0.70710677298230451 forward_v I I I I #
coedge $-1 $160 $161 $162 $163 reversed $57 $-1 #
coedge $-1 $95 $59 $164 $165 reversed $37 $-1 #
coedge $-1 $59 $94 $160 $166 reversed $37 $-1 #
coedge $-1 $162 $167 $59 $97 forward $157 $-1 #
edge $-1 $168 12.685333388147026 $169 22.047057128145724 $96 $170 forward 7 unknown #
loop $-1 $-1 $103 $60 #
plane-surface $-1 -29.275111034224267 -11.293322008994309 38.756012162550434 0 0.70710678939079041 0.70710677298230451 1 0 0 forward_v I I I I #
loop $-1 $-1 $171 $39 #
coedge $-1 $101 $101 $102 $172 reversed $61 $-1 #
coedge $-1 $102 $102 $101 $172 forward $63 $-1 #
coedge $-1 $103 $103 $64 $104 forward $98 $-1 #
edge $-1 $173 1.2560737483420739e-015 $173 6.2831853071796013 $103 $174 forward 7 unknown #
face $-1 $175 $176 $22 $-1 $177 forward single #
loop $-1 $-1 $178 $65 #
plane-surface $-1 42.597211353047655 79.899651253104082 129.94898330850648 -1 0 0 0 0.70710678939079041 0.70710677298230451 forward_v I I I I #
coedge $-1 $179 $180 $181 $182 reversed $66 $-1 #
coedge $-1 $110 $68 $183 $184 reversed $43 $-1 #
coedge $-1 $68 $109 $179 $185 reversed $43 $-1 #
coedge $-1 $181 $186 $68 $112 forward $176 $-1 #
edge $-1 $187 12.685333388147026 $188 22.047057128145724 $111 $189 forward 7 unknown #
loop $-1 $-1 $118 $69 #
plane-surface $-1 29.275111034224281 -11.293322008994309 38.756012162550434 0 0.70710678939079041 0.70710677298230451 1 0 0 forward_v I I I I #
loop $-1 $-1 $190 $45 #
coedge $-1 $116 $116 $117 $191 reversed $70 $-1 #
coedge $-1 $117 $117 $116 $191 forward $72 $-1 #
coedge $-1 $118 $118 $73 $119 forward $113 $-1 #
edge $-1 $192 1.2560737483420739e-015 $192 6.2831853071796013 $118 $193 forward 7 unknown #
face $-1 $194 $195 $18 $-1 $196 reversed single #
loop $-1 $-1 $197 $74 #
plane-surface $-1 -64.483169042023988 0 0 1 0 0 0 0 -1 forward_v I I I I #
coedge $-1 $198 $131 $199 $200 forward $75 $-1 #
coedge $-1 $201 $77 $198 $202 forward $49 $-1 #
coedge $-1 $77 $201 $203 $204 forward $49 $-1 #
coedge $-1 $134 $133 $77 $127 reversed $135 $-1 #
edge $-1 $205 -27.264492238405015 $206 27.264492238405015 $126 $207 forward 7 unknown #
coedge $-1 $79 $78 $208 $209 forward $31 $-1 #
coedge $-1 $210 $211 $78 $130 reversed $195 $-1 #
edge $-1 $137 -64.483169042023988 $212 64.483169042023988 $129 $213 forward 7 unknown #
coedge $-1 $123 $214 $79 $132 reversed $75 $-1 #
edge $-1 $215 -64.483169042023988 $136 64.483169042023988 $131 $216 forward 7 unknown #
coedge $-1 $126 $80 $214 $217 forward $135 $-1 #
coedge $-1 $80 $126 $210 $218 reversed $135 $-1 #
loop $-1 $-1 $133 $194 #
vertex $-1 $81 $219 #
vertex $-1 $81 $220 #
straight-curve $-1 64.483169042023988 0 9.5599209776515011 0 1 0 I I #
face $-1 $221 $222 $19 $-1 $223 forward single #
loop $-1 $-1 $148 $82 #
plane-surface $-1 0 -27.264492238405015 0 0 1 0 0 0 1 forward_v I I I I #
coedge $-1 $224 $225 $226 $227 forward $83 $-1 #
coedge $-1 $226 $85 $87 $150 reversed $53 $-1 #
coedge $-1 $85 $226 $228 $229 reversed $53 $-1 #
coedge $-1 $230 $88 $85 $146 forward $152 $-1 #
edge $-1 $154 2.4296588617095649 $231 5.5633943645311454 $145 $232 forward 7 unknown #
coedge $-1 $87 $86 $224 $233 reversed $34 $-1 #
coedge $-1 $234 $235 $86 $149 forward $140 $-1 #
edge $-1 $236 -64.483169042023988 $153 64.483169042023988 $148 $237 forward 7 unknown #
edge $-1 $238 -64.483169042023988 $154 64.483169042023988 $143 $239 forward 7 unknown #
coedge $-1 $88 $230 $234 $240 forward $152 $-1 #
loop $-1 $-1 $145 $221 #
vertex $-1 $149 $241 #
vertex $-1 $89 $242 #
straight-curve $-1 64.483169042023988 -10.501975201530913 6.4261854748299205 0 1 0 I I #
face $-1 $-1 $243 $20 $-1 $244 reversed single #
loop $-1 $-1 $96 $90 #
plane-surface $-1 0 0 9.5599209776515011 0 0 1 1 0 0 forward_v I I I I #
coedge $-1 $245 $246 $247 $248 reversed $91 $-1 #
coedge $-1 $249 $93 $95 $166 forward $57 $-1 #
coedge $-1 $93 $249 $245 $250 forward $57 $-1 #
coedge $-1 $247 $96 $93 $163 forward $157 $-1 #
edge $-1 $169 -27.959655835935507 $251 -1.3154551982887561 $162 $252 forward 7 unknown #
coedge $-1 $253 $254 $94 $165 forward $243 $-1 #
edge $-1 $255 -64.776294633840195 $168 -55.414570676601741 $164 $256 forward 7 unknown #
edge $-1 $169 41.289507642902002 $255 54.528984476810045 $95 $257 forward 7 unknown #
coedge $-1 $96 $247 $253 $258 forward $157 $-1 #
vertex $-1 $165 $259 #
vertex $-1 $97 $260 #
straight-curve $-1 -42.597211353047641 39.949825626552041 9.5599209776515011 0 -1 0 I I #
coedge $-1 $171 $171 $-1 $261 reversed $100 $-1 #
edge $-1 $262 0 $262 6.2831853071796004 $101 $263 forward 7 unknown #
vertex $-1 $104 $264 #
ellipse-curve $-1 -29.275111034224267 22.583630368405665 4.8790589990322699 0 0.70710678939079041 0.70710677298230451 1.5 0 0 1 I I #
face $-1 $-1 $265 $22 $-1 $266 reversed single #
loop $-1 $-1 $111 $105 #
plane-surface $-1 0 0 9.5599209776515011 0 0 1 1 0 0 forward_v I I I I #
coedge $-1 $267 $268 $269 $270 reversed $106 $-1 #
coedge $-1 $271 $108 $110 $185 forward $66 $-1 #
coedge $-1 $108 $271 $267 $272 forward $66 $-1 #
coedge $-1 $269 $111 $108 $182 forward $176 $-1 #
edge $-1 $188 1.3154551982887632 $273 27.959655835935514 $181 $274 forward 7 unknown #
coedge $-1 $275 $276 $109 $184 forward $265 $-1 #
edge $-1 $277 -64.776294633840195 $187 -55.414570676601741 $183 $278 forward 7 unknown #
edge $-1 $188 41.289507642902002 $277 54.528984476810045 $110 $279 forward 7 unknown #
coedge $-1 $111 $269 $275 $280 forward $176 $-1 #
vertex $-1 $112 $281 #
vertex $-1 $112 $282 #
straight-curve $-1 15.953010715400904 39.949825626552041 9.5599209776515011 0 -1 0 I I #
coedge $-1 $190 $190 $-1 $283 reversed $115 $-1 #
edge $-1 $284 0 $284 6.2831853071796004 $116 $285 forward 7 unknown #
vertex $-1 $119 $286 #
ellipse-curve $-1 29.275111034224281 22.583630368405665 4.8790589990322699 0 0.70710678939079041 0.70710677298230451 1.5 0 0 1 I I #
face $-1 $-1 $135 $18 $-1 $287 reversed single #
loop $-1 $-1 $210 $120 #
plane-surface $-1 0 27.264492238405015 0 0 -1 0 0 0 -1 forward_v I I I I #
coedge $-1 $288 $208 $211 $289 forward $121 $-1 #
coedge $-1 $214 $123 $124 $202 reversed $75 $-1 #
coedge $-1 $208 $288 $123 $200 reversed $121 $-1 #
edge $-1 $215 -9.5599209776515011 $290 9.5599209776515011 $199 $291 forward 7 unknown #
coedge $-1 $125 $124 $288 $292 forward $49 $-1 #
edge $-1 $206 -64.483169042023988 $290 64.483169042023988 $198 $293 forward 7 unknown #
coedge $-1 $211 $210 $125 $204 reversed $195 $-1 #
edge $-1 $294 -64.483169042023988 $205 64.483169042023988 $203 $295 forward 7 unknown #
vertex $-1 $127 $296 #
vertex $-1 $217 $297 #
straight-curve $-1 64.483169042023988 0 -9.5599209776515011 0 -1 0 I I #
coedge $-1 $197 $199 $128 $209 reversed $121 $-1 #
edge $-1 $212 -27.264492238405015 $215 27.264492238405015 $208 $298 forward 7 unknown #
coedge $-1 $203 $129 $134 $218 forward $195 $-1 #
coedge $-1 $129 $203 $197 $289 reversed $195 $-1 #
vertex $-1 $130 $299 #
straight-curve $-1 0 27.264492238405015 9.5599209776515011 -1 0 0 I I #
coedge $-1 $131 $198 $133 $217 reversed $75 $-1 #
vertex $-1 $209 $300 #
straight-curve $-1 0 -27.264492238405015 9.5599209776515011 1 0 0 I I #
edge $-1 $136 -9.5599209776515011 $206 9.5599209776515011 $133 $301 forward 7 unknown #
edge $-1 $137 -9.5599209776515011 $205 9.5599209776515011 $134 $302 forward 7 unknown #
point $-1 64.483169042023988 -27.264492238405015 9.5599209776515011 #
point $-1 64.483169042023988 27.264492238405015 9.5599209776515011 #
face $-1 $-1 $152 $19 $-1 $303 reversed single #
loop $-1 $-1 $228 $139 #
plane-surface $-1 0 0 9.5599209776515011 0 0 1 1 0 0 forward_v I I I I #
coedge $-1 $304 $142 $147 $233 forward $83 $-1 #
coedge $-1 $142 $304 $305 $306 reversed $83 $-1 #
coedge $-1 $144 $143 $142 $227 reversed $53 $-1 #
edge $-1 $307 -5.5633943645311454 $238 -2.4296588617095649 $142 $308 forward 7 unknown #
coedge $-1 $305 $309 $144 $229 forward $222 $-1 #
edge $-1 $231 -64.483169042023988 $307 64.483169042023988 $228 $310 forward 7 unknown #
coedge $-1 $151 $145 $309 $311 reversed $152 $-1 #
vertex $-1 $146 $312 #
straight-curve $-1 64.483169042023988 -14.743408567718635 3.9965266131203556 0 0 1 I I #
edge $-1 $238 4.2414333661877226 $236 16.762517036874101 $224 $313 forward 7 unknown #
coedge $-1 $314 $148 $151 $240 reversed $140 $-1 #
coedge $-1 $148 $314 $304 $315 forward $140 $-1 #
vertex $-1 $149 $316 #
straight-curve $-1 0 -27.264492238405015 6.4261854748299205 1 0 0 I I #
vertex $-1 $233 $317 #
straight-curve $-1 0 -14.743408567718635 6.4261854748299205 1 0 0 I I #
edge $-1 $318 -9.5599209776515011 $153 -6.4261854748299205 $151 $319 forward 7 unknown #
point $-1 64.483169042023988 -27.264492238405015 6.4261854748299205 #
point $-1 64.483169042023988 -14.743408567718635 6.4261854748299205 #
loop $-1 $-1 $164 $156 #
plane-surface $-1 0 27.264492238405015 0 0 -1 0 0 0 -1 forward_v I I I I #
coedge $-1 $246 $159 $161 $250 reversed $91 $-1 #
coedge $-1 $159 $245 $320 $321 reversed $91 $-1 #
coedge $-1 $167 $162 $159 $248 forward $157 $-1 #
edge $-1 $251 -22.047057128145724 $322 -12.685333388147026 $247 $323 forward 7 unknown #
coedge $-1 $161 $160 $254 $324 reversed $57 $-1 #
edge $-1 $325 -54.528984476810045 $251 -41.289507642902002 $245 $326 forward 7 unknown #
vertex $-1 $163 $327 #
straight-curve $-1 -14.637555517112133 17.902768498406321 9.5599209776515011 1 0 0 I I #
coedge $-1 $320 $164 $167 $258 reversed $243 $-1 #
coedge $-1 $164 $320 $249 $324 forward $243 $-1 #
vertex $-1 $165 $328 #
straight-curve $-1 -42.597211353047641 27.264492238405015 64.974491654253242 0 0 1 I I #
straight-curve $-1 -42.597211353047641 -11.293322008994309 38.756012162550434 0 0.70710677298230451 -0.70710678939079041 I I #
edge $-1 $322 15.95301071540089 $168 42.597211353047641 $253 $329 forward 7 unknown #
point $-1 -42.597211353047641 27.264492238405015 9.5599209776515011 #
point $-1 -42.597211353047641 17.902768498406317 9.5599209776515011 #
edge $-1 $330 1 $330 0 $171 $-1 forward 7 unknown #
vertex $-1 $172 $331 #
ellipse-curve $-1 -29.275111034224267 19.599137769975979 1.894566469858038 0 0.70710678939079041 0.70710677298230451 1.5 0 0 1 I I #
point $-1 -27.775111034224267 22.583630368405686 4.8790589990322886 #
loop $-1 $-1 $183 $175 #
plane-surface $-1 0 27.264492238405015 0 0 -1 0 0 0 -1 forward_v I I I I #
coedge $-1 $268 $178 $180 $272 reversed $106 $-1 #
coedge $-1 $178 $267 $332 $333 reversed $106 $-1 #
coedge $-1 $186 $181 $178 $270 forward $176 $-1 #
edge $-1 $273 -22.047057128145724 $334 -12.685333388147026 $269 $335 forward 7 unknown #
coedge $-1 $180 $179 $276 $336 reversed $66 $-1 #
edge $-1 $337 -54.528984476810045 $273 -41.289507642902002 $267 $338 forward 7 unknown #
vertex $-1 $182 $339 #
straight-curve $-1 14.637555517112141 17.902768498406321 9.5599209776515011 1 0 0 I I #
coedge $-1 $332 $183 $186 $280 reversed $265 $-1 #
coedge $-1 $183 $332 $271 $336 forward $265 $-1 #
vertex $-1 $184 $340 #
straight-curve $-1 15.953010715400904 27.264492238405015 64.974491654253242 0 0 1 I I #
straight-curve $-1 15.953010715400904 -11.293322008994309 38.756012162550434 0 0.70710677298230451 -0.70710678939079041 I I #
edge $-1 $334 -42.597211353047655 $187 -15.953010715400904 $275 $341 forward 7 unknown #
point $-1 15.953010715400904 27.264492238405015 9.5599209776515011 #
point $-1 15.953010715400904 17.902768498406317 9.5599209776515011 #
edge $-1 $342 1 $342 0 $190 $-1 forward 7 unknown #
vertex $-1 $191 $343 #
ellipse-curve $-1 29.275111034224281 19.599137769975979 1.894566469858038 0 0.70710678939079041 0.70710677298230451 1.5 0 0 1 I I #
point $-1 30.775111034224281 22.583630368405686 4.8790589990322886 #
plane-surface $-1 64.483169042023988 0 0 -1 0 0 0 0 1 forward_v I I I I #
coedge $-1 $199 $197 $201 $292 reversed $121 $-1 #
edge $-1 $212 -9.5599209776515011 $294 9.5599209776515011 $211 $344 forward 7 unknown #
vertex $-1 $292 $345 #
straight-curve $-1 -64.483169042023988 -27.264492238405015 0 0 0 -1 I I #
edge $-1 $290 -27.264492238405015 $294 27.264492238405015 $288 $346 forward 7 unknown #
straight-curve $-1 0 -27.264492238405015 -9.5599209776515011 -1 0 0 I I #
vertex $-1 $204 $347 #
straight-curve $-1 0 27.264492238405015 -9.5599209776515011 1 0 0 I I #
point $-1 64.483169042023988 27.264492238405015 -9.5599209776515011 #
point $-1 64.483169042023988 -27.264492238405015 -9.5599209776515011 #
straight-curve $-1 -64.483169042023988 0 9.5599209776515011 0 -1 0 I I #
point $-1 -64.483169042023988 27.264492238405015 9.5599209776515011 #
point $-1 -64.483169042023988 -27.264492238405015 9.5599209776515011 #
straight-curve $-1 64.483169042023988 -27.264492238405015 0 0 0 -1 I I #
straight-curve $-1 64.483169042023988 27.264492238405015 0 0 0 -1 I I #
plane-surface $-1 64.483169042023988 0 0 -1 0 0 0 0 1 forward_v I I I I #
coedge $-1 $225 $224 $235 $315 reversed $83 $-1 #
coedge $-1 $348 $228 $225 $306 forward $222 $-1 #
edge $-1 $307 14.743408567718635 $349 27.264492238405015 $225 $350 forward 7 unknown #
vertex $-1 $306 $351 #
straight-curve $-1 -64.483169042023988 -14.743408567718635 3.9965266131203556 0 0 -1 I I #
coedge $-1 $228 $348 $230 $311 forward $222 $-1 #
straight-curve $-1 0 -14.743408567718635 9.5599209776515011 -1 0 0 I I #
edge $-1 $318 -27.264492238405015 $231 -14.743408567718635 $230 $352 forward 7 unknown #
point $-1 64.483169042023988 -14.743408567718635 9.5599209776515011 #
straight-curve $-1 -64.483169042023988 -10.501975201530913 6.4261854748299205 0 -1 0 I I #
coedge $-1 $235 $234 $348 $353 reversed $140 $-1 #
edge $-1 $349 -9.5599209776515011 $236 -6.4261854748299205 $304 $354 forward 7 unknown #
point $-1 -64.483169042023988 -27.264492238405015 6.4261854748299205 #
point $-1 -64.483169042023988 -14.743408567718635 6.4261854748299205 #
vertex $-1 $311 $355 #
straight-curve $-1 64.483169042023988 -27.264492238405015 0 0 0 -1 I I #
coedge $-1 $254 $253 $246 $321 forward $243 $-1 #
edge $-1 $322 55.414570676601741 $325 64.776294633840195 $320 $356 forward 7 unknown #
vertex $-1 $258 $357 #
straight-curve $-1 -15.95301071540089 39.949825626552041 9.5599209776515011 0 1 0 I I #
edge $-1 $325 1.3154551982887561 $255 27.959655835935507 $254 $358 forward 7 unknown #
vertex $-1 $324 $359 #
straight-curve $-1 -15.95301071540089 -11.293322008994309 38.756012162550434 0 -0.70710677298230451 0.70710678939079041 I I #
point $-1 -15.95301071540089 17.902768498406317 9.5599209776515011 #
point $-1 -42.597211353047641 27.264492238405012 0.19819702041304055 #
straight-curve $-1 0 27.264492238405015 9.5599209776515011 -1 0 0 I I #
vertex $-1 $261 $360 #
point $-1 -27.775111034224267 19.599137769975979 1.894566469858038 #
coedge $-1 $276 $275 $268 $333 forward $265 $-1 #
edge $-1 $334 55.414570676601741 $337 64.776294633840195 $332 $361 forward 7 unknown #
vertex $-1 $280 $362 #
straight-curve $-1 42.597211353047655 39.949825626552041 9.5599209776515011 0 1 0 I I #
edge $-1 $337 -27.959655835935514 $277 -1.3154551982887632 $276 $363 forward 7 unknown #
vertex $-1 $336 $364 #
straight-curve $-1 42.597211353047655 -11.293322008994309 38.756012162550434 0 -0.70710677298230451 0.70710678939079041 I I #
point $-1 42.597211353047655 17.902768498406317 9.5599209776515011 #
point $-1 15.953010715400904 27.264492238405012 0.19819702041304055 #
straight-curve $-1 0 27.264492238405015 9.5599209776515011 -1 0 0 I I #
vertex $-1 $283 $365 #
point $-1 30.775111034224281 19.599137769975979 1.894566469858038 #
straight-curve $-1 -64.483169042023988 27.264492238405015 0 0 0 -1 I I #
point $-1 -64.483169042023988 -27.264492238405015 -9.5599209776515011 #
straight-curve $-1 -64.483169042023988 0 -9.5599209776515011 0 1 0 I I #
point $-1 -64.483169042023988 27.264492238405015 -9.5599209776515011 #
coedge $-1 $309 $305 $314 $353 forward $222 $-1 #
vertex $-1 $306 $366 #
straight-curve $-1 -64.483169042023988 0 9.5599209776515011 0 -1 0 I I #
point $-1 -64.483169042023988 -14.743408567718635 9.5599209776515011 #
straight-curve $-1 64.483169042023988 0 9.5599209776515011 0 1 0 I I #
edge $-1 $349 -64.483169042023988 $318 64.483169042023988 $314 $367 forward 7 unknown #
straight-curve $-1 -64.483169042023988 -27.264492238405015 0 0 0 -1 I I #
point $-1 64.483169042023988 -27.264492238405015 9.5599209776515011 #
straight-curve $-1 -15.95301071540089 27.264492238405015 64.974491654253242 0 0 -1 I I #
point $-1 -15.95301071540089 27.264492238405015 9.5599209776515011 #
straight-curve $-1 -14.637555517112133 27.264492238405015 0.19819702041304055 -1 0 0 I I #
point $-1 -15.95301071540089 27.264492238405012 0.19819702041304055 #
point $-1 -29.275111034224267 18.53847758588979 0.83390631038458107 #
straight-curve $-1 42.597211353047655 27.264492238405015 64.974491654253242 0 0 -1 I I #
point $-1 42.597211353047655 27.264492238405015 9.5599209776515011 #
straight-curve $-1 14.637555517112141 27.264492238405015 0.19819702041304055 -1 0 0 I I #
point $-1 42.597211353047655 27.264492238405012 0.19819702041304055 #
point $-1 29.275111034224281 18.53847758588979 0.83390631038458107 #
point $-1 -64.483169042023988 -27.264492238405015 9.5599209776515011 #
straight-curve $-1 0 -27.264492238405015 9.5599209776515011 1 0 0 I I #
End-of-ACIS-data 