500 0 6 0           
7 Unknown 11 ACIS 5.0 NT 24 Fri Mar 26 16:35:56 1999 
-1 9.9999999999999995e-007 1e-010 
body $-1 $6 $-1 $7 #
body $-1 $8 $-1 $9 #
body $-1 $10 $-1 $11 #
body $-1 $12 $-1 $13 #
body $-1 $14 $-1 $15 #
body $-1 $16 $-1 $17 #
lump $-1 $-1 $18 $0 #
transform $-1 1 0 0 0 1 0 0 0 1 79.592272713400675 33.837950201767008 13.613044439519427 1 rotate no_reflect no_shear #
lump $-1 $-1 $19 $1 #
transform $-1 1 0 0 0 1 0 0 0 1 79.592272713400675 33.837950201767008 13.613044439519427 1 rotate no_reflect no_shear #
lump $-1 $-1 $20 $2 #
transform $-1 1 0 0 0 1 0 0 0 1 79.592272713400675 33.837950201767008 13.613044439519427 1 rotate no_reflect no_shear #
lump $-1 $-1 $21 $3 #
transform $-1 1 0 0 0 1 0 0 0 1 79.592272713400675 33.837950201767008 13.613044439519427 1 rotate no_reflect no_shear #
lump $-1 $-1 $22 $4 #
transform $-1 1 0 0 0 1 0 0 0 1 79.592272713400675 33.837950201767008 13.613044439519427 1 rotate no_reflect no_shear #
lump $-1 $-1 $23 $5 #
transform $-1 1 0 0 0 1 0 0 0 1 79.592272713400675 33.837950201767008 13.613044439519427 1 rotate no_reflect no_shear #
shell $-1 $-1 $-1 $24 $-1 $6 #
shell $-1 $-1 $-1 $25 $-1 $8 #
shell $-1 $-1 $-1 $26 $-1 $10 #
shell $-1 $-1 $-1 $27 $-1 $12 #
shell $-1 $-1 $-1 $28 $-1 $14 #
shell $-1 $-1 $-1 $29 $-1 $16 #
face $-1 $30 $31 $18 $-1 $32 forward single #
face $-1 $33 $34 $19 $-1 $35 forward single #
face $-1 $36 $37 $20 $-1 $38 forward single #
face $-1 $39 $40 $21 $-1 $41 reversed single #
face $-1 $42 $43 $22 $-1 $44 forward single #
face $-1 $45 $46 $23 $-1 $47 forward single #
face $-1 $48 $49 $18 $-1 $50 reversed single #
loop $-1 $-1 $51 $24 #
plane-surface $-1 0 0 13.613044439519427 0 0 1 1 0 0 forward_v I I I I #
face $-1 $52 $53 $19 $-1 $54 reversed single #
loop $-1 $-1 $55 $25 #
plane-surface $-1 0 -33.837950201767008 0 0 1 0 0 0 1 forward_v I I I I #
face $-1 $56 $57 $20 $-1 $58 reversed single #
loop $-1 $-1 $59 $26 #
plane-surface $-1 0 33.837950201767008 0 0 -1 0 0 0 -1 forward_v I I I I #
face $-1 $60 $61 $21 $-1 $62 reversed single #
loop $-1 $-1 $63 $27 #
plane-surface $-1 122.5473768881704 -0.20241844271297538 229.01093734059108 0 -1 0 -0.82903758062907751 0 -0.55919289150049634 forward_v I I I I #
face $-1 $64 $65 $22 $-1 $66 forward single #
loop $-1 $67 $68 $28 #
cone-surface $-1 75.45126703204383 -8.6726667912910429 9.2973517942105488 -0.82903758062907751 0 -0.55919289150049634 0.83878933725074445 0 -1.2435563709436162 1 I I 0 1 1.5 forward I I I I #
face $-1 $69 $70 $23 $-1 $71 forward single #
loop $-1 $72 $73 $29 #
cone-surface $-1 75.45126703204383 -3.5905177821442003 9.2973517942105488 -0.82903758062907751 0 -0.55919289150049634 0.83878933725074445 0 -1.2435563709436162 1 I I 0 1 1.5 forward I I I I #
face $-1 $74 $75 $18 $-1 $76 reversed single #
loop $-1 $-1 $77 $30 #
plane-surface $-1 0 0 -13.613044439519427 0 0 1 1 0 0 forward_v I I I I #
coedge $-1 $78 $79 $80 $81 forward $31 $-1 #
face $-1 $82 $83 $19 $-1 $84 reversed single #
loop $-1 $-1 $85 $33 #
plane-surface $-1 0 0 -13.613044439519427 0 0 1 1 0 0 forward_v I I I I #
coedge $-1 $86 $87 $88 $89 forward $34 $-1 #
face $-1 $90 $91 $20 $-1 $92 forward single #
loop $-1 $-1 $93 $36 #
plane-surface $-1 -79.592272713400675 0 0 1 0 0 0 0 -1 forward_v I I I I #
coedge $-1 $94 $95 $96 $97 forward $37 $-1 #
face $-1 $98 $99 $21 $-1 $100 reversed single #
loop $-1 $-1 $101 $39 #
plane-surface $-1 -9.4225935260044622 -6.1315922867176234 139.99607110118592 0.82903758062907751 0 0.55919289150049634 0.55919289150049634 0 -0.82903758062907751 forward_v I I I I #
coedge $-1 $102 $103 $104 $105 reversed $40 $-1 #
face $-1 $-1 $106 $22 $-1 $107 forward single #
loop $-1 $108 $109 $42 #
cone-surface $-1 72.572703678623711 -8.6726667912910429 7.3557363565304712 -0.82903758062907751 0 -0.55919289150049634 0.41939466862537222 0 -0.62177818547180808 1 I I -0.70710678118654791 0.70710678118654702 0.75 forward I I I I #
loop $-1 $-1 $110 $28 #
coedge $-1 $68 $68 $111 $112 reversed $43 $-1 #
face $-1 $-1 $113 $23 $-1 $114 forward single #
loop $-1 $115 $116 $45 #
cone-surface $-1 72.572703678623711 -3.5905177821442003 7.3557363565304712 -0.82903758062907751 0 -0.55919289150049634 0.41939466862537222 0 -0.62177818547180808 1 I I -0.70710678118654791 0.70710678118654702 0.75 forward I I I I #
loop $-1 $-1 $117 $29 #
coedge $-1 $73 $73 $118 $119 reversed $46 $-1 #
face $-1 $120 $121 $18 $-1 $122 reversed single #
loop $-1 $-1 $123 $48 #
plane-surface $-1 0 -33.837950201767008 0 0 1 0 0 0 1 forward_v I I I I #
coedge $-1 $124 $125 $126 $127 forward $49 $-1 #
coedge $-1 $128 $51 $129 $130 forward $31 $-1 #
coedge $-1 $51 $128 $131 $132 forward $31 $-1 #
coedge $-1 $133 $134 $51 $81 reversed $135 $-1 #
edge $-1 $136 -33.837950201767008 $137 33.837950201767008 $80 $138 forward 7 unknown #
face $-1 $139 $140 $19 $-1 $141 forward single #
loop $-1 $-1 $142 $52 #
plane-surface $-1 79.592272713400675 0 0 -1 0 0 0 0 1 forward_v I I I I #
coedge $-1 $143 $144 $145 $146 forward $53 $-1 #
coedge $-1 $145 $55 $142 $147 reversed $34 $-1 #
coedge $-1 $55 $145 $148 $149 reversed $34 $-1 #
coedge $-1 $150 $151 $55 $89 reversed $140 $-1 #
edge $-1 $152 -79.592272713400675 $153 79.592272713400675 $88 $154 forward 7 unknown #
face $-1 $155 $156 $20 $-1 $157 reversed single #
loop $-1 $-1 $158 $56 #
plane-surface $-1 0 40.460353367762075 -9.9363965718214686 0 0 1 1 0 0 forward_v I I I I #
coedge $-1 $159 $160 $94 $161 forward $57 $-1 #
coedge $-1 $162 $59 $93 $161 reversed $37 $-1 #
coedge $-1 $59 $162 $163 $164 reversed $37 $-1 #
coedge $-1 $158 $165 $59 $97 reversed $91 $-1 #
edge $-1 $166 -79.592272713400675 $167 79.592272713400675 $96 $168 forward 7 unknown #
face $-1 $169 $170 $21 $-1 $171 forward single #
loop $-1 $-1 $172 $60 #
plane-surface $-1 122.5473768881704 -12.060766130722271 229.01093734059108 0 1 0 0.82903758062907751 0 0.55919289150049634 forward_v I I I I #
coedge $-1 $173 $174 $175 $176 reversed $61 $-1 #
coedge $-1 $103 $63 $177 $178 reversed $40 $-1 #
coedge $-1 $63 $102 $173 $179 reversed $40 $-1 #
coedge $-1 $175 $180 $63 $105 forward $170 $-1 #
edge $-1 $181 -18.318584269315473 $182 -14.5501432424984 $104 $183 forward 7 unknown #
loop $-1 $-1 $111 $64 #
plane-surface $-1 -9.4225935260044622 -6.1315922867176234 139.99607110118592 0.82903758062907751 0 0.55919289150049634 0.55919289150049634 0 -0.82903758062907751 forward_v I I I I #
loop $-1 $-1 $184 $42 #
coedge $-1 $109 $109 $110 $185 reversed $65 $-1 #
coedge $-1 $110 $110 $109 $185 forward $67 $-1 #
coedge $-1 $111 $111 $68 $112 forward $106 $-1 #
edge $-1 $186 0 $186 6.2831853071796004 $111 $187 forward 7 unknown #
loop $-1 $-1 $118 $69 #
plane-surface $-1 -9.4225935260044622 -6.1315922867176234 139.99607110118592 0.82903758062907751 0 0.55919289150049634 0.55919289150049634 0 -0.82903758062907751 forward_v I I I I #
loop $-1 $-1 $188 $45 #
coedge $-1 $116 $116 $117 $189 reversed $70 $-1 #
coedge $-1 $117 $117 $116 $189 forward $72 $-1 #
coedge $-1 $118 $118 $73 $119 forward $113 $-1 #
edge $-1 $190 0 $190 6.2831853071796004 $118 $191 forward 7 unknown #
face $-1 $192 $193 $18 $-1 $194 reversed single #
loop $-1 $-1 $195 $74 #
plane-surface $-1 -79.592272713400675 0 0 1 0 0 0 0 -1 forward_v I I I I #
coedge $-1 $196 $131 $197 $198 forward $75 $-1 #
coedge $-1 $199 $77 $196 $200 forward $49 $-1 #
coedge $-1 $77 $199 $201 $202 forward $49 $-1 #
coedge $-1 $134 $133 $77 $127 reversed $135 $-1 #
edge $-1 $203 -33.837950201767008 $204 33.837950201767008 $126 $205 forward 7 unknown #
coedge $-1 $79 $78 $206 $207 forward $31 $-1 #
coedge $-1 $208 $209 $78 $130 reversed $193 $-1 #
edge $-1 $137 -79.592272713400675 $210 79.592272713400675 $129 $211 forward 7 unknown #
coedge $-1 $123 $212 $79 $132 reversed $75 $-1 #
edge $-1 $213 -79.592272713400675 $136 79.592272713400675 $131 $214 forward 7 unknown #
coedge $-1 $126 $80 $212 $215 forward $135 $-1 #
coedge $-1 $80 $126 $208 $216 reversed $135 $-1 #
loop $-1 $-1 $133 $192 #
vertex $-1 $81 $217 #
vertex $-1 $81 $218 #
straight-curve $-1 79.592272713400675 0 13.613044439519427 0 1 0 I I #
face $-1 $219 $220 $19 $-1 $221 reversed single #
loop $-1 $-1 $151 $82 #
plane-surface $-1 0 -40.460353367762075 -9.9363965718214686 0 0 1 1 0 0 forward_v I I I I #
coedge $-1 $222 $223 $86 $147 forward $83 $-1 #
coedge $-1 $224 $85 $223 $225 forward $53 $-1 #
coedge $-1 $85 $224 $226 $227 forward $53 $-1 #
coedge $-1 $87 $86 $85 $146 reversed $34 $-1 #
edge $-1 $228 -79.592272713400675 $229 79.592272713400675 $85 $230 forward 7 unknown #
edge $-1 $229 -13.613044439519427 $153 -9.9363965718214686 $142 $231 forward 7 unknown #
coedge $-1 $226 $232 $87 $149 forward $233 $-1 #
edge $-1 $152 9.9363965718214686 $228 13.613044439519427 $148 $234 forward 7 unknown #
coedge $-1 $235 $88 $232 $236 forward $140 $-1 #
coedge $-1 $88 $235 $222 $237 forward $140 $-1 #
vertex $-1 $149 $238 #
vertex $-1 $237 $239 #
straight-curve $-1 0 -33.837950201767008 -9.9363965718214686 1 0 0 I I #
face $-1 $240 $241 $20 $-1 $242 reversed single #
loop $-1 $-1 $243 $90 #
plane-surface $-1 0 47.082756533757141 -11.774720505670448 0 -1 0 0 0 -1 forward_v I I I I #
coedge $-1 $244 $96 $245 $246 forward $91 $-1 #
coedge $-1 $247 $93 $165 $248 reversed $57 $-1 #
coedge $-1 $93 $247 $249 $250 reversed $57 $-1 #
edge $-1 $251 -13.613044439519427 $167 -9.9363965718214686 $93 $252 forward 7 unknown #
coedge $-1 $95 $94 $253 $254 reversed $37 $-1 #
coedge $-1 $255 $245 $95 $164 forward $256 $-1 #
edge $-1 $166 9.9363965718214686 $257 13.613044439519427 $163 $258 forward 7 unknown #
coedge $-1 $96 $244 $159 $248 forward $91 $-1 #
vertex $-1 $164 $259 #
vertex $-1 $248 $260 #
straight-curve $-1 0 33.837950201767008 -9.9363965718214686 -1 0 0 I I #
face $-1 $-1 $261 $21 $-1 $262 reversed single #
loop $-1 $-1 $104 $98 #
plane-surface $-1 0 0 13.613044439519427 0 0 1 1 0 0 forward_v I I I I #
coedge $-1 $263 $264 $265 $266 reversed $99 $-1 #
coedge $-1 $267 $101 $103 $179 forward $61 $-1 #
coedge $-1 $101 $267 $263 $268 forward $61 $-1 #
coedge $-1 $265 $104 $101 $176 forward $170 $-1 #
edge $-1 $182 -2.8633777006458363 $269 8.9949699873634597 $175 $270 forward 7 unknown #
coedge $-1 $271 $272 $102 $178 forward $261 $-1 #
edge $-1 $273 -106.47936798328446 $181 -100.89242423077611 $177 $274 forward 7 unknown #
edge $-1 $182 152.44547366087613 $273 159.18454542680132 $103 $275 forward 7 unknown #
coedge $-1 $104 $265 $271 $276 forward $170 $-1 #
vertex $-1 $178 $277 #
vertex $-1 $105 $278 #
straight-curve $-1 61.273688444085202 -0.20241844271297538 13.613044439519427 -1 0 0 I I #
coedge $-1 $184 $184 $-1 $279 reversed $108 $-1 #
edge $-1 $280 0 $280 6.2831853071796004 $109 $281 forward 7 unknown #
vertex $-1 $112 $282 #
ellipse-curve $-1 77.708052199992139 -8.6726667912910429 10.819572563265258 0.82903758062907751 0 0.55919289150049634 0.83878933725074445 0 -1.2435563709436162 1 I I #
coedge $-1 $188 $188 $-1 $283 reversed $115 $-1 #
edge $-1 $284 0 $284 6.2831853071796004 $116 $285 forward 7 unknown #
vertex $-1 $119 $286 #
ellipse-curve $-1 77.708052199992139 -3.5905177821442003 10.819572563265258 0.82903758062907751 0 0.55919289150049634 0.83878933725074445 0 -1.2435563709436162 1 I I #
face $-1 $-1 $135 $18 $-1 $287 reversed single #
loop $-1 $-1 $208 $120 #
plane-surface $-1 0 33.837950201767008 0 0 -1 0 0 0 -1 forward_v I I I I #
coedge $-1 $288 $206 $209 $289 forward $121 $-1 #
coedge $-1 $212 $123 $124 $200 reversed $75 $-1 #
coedge $-1 $206 $288 $123 $198 reversed $121 $-1 #
edge $-1 $213 -13.613044439519427 $290 13.613044439519427 $197 $291 forward 7 unknown #
coedge $-1 $125 $124 $288 $292 forward $49 $-1 #
edge $-1 $204 -79.592272713400675 $290 79.592272713400675 $196 $293 forward 7 unknown #
coedge $-1 $209 $208 $125 $202 reversed $193 $-1 #
edge $-1 $294 -79.592272713400675 $203 79.592272713400675 $201 $295 forward 7 unknown #
vertex $-1 $127 $296 #
vertex $-1 $215 $297 #
straight-curve $-1 79.592272713400675 0 -13.613044439519427 0 -1 0 I I #
coedge $-1 $195 $197 $128 $207 reversed $121 $-1 #
edge $-1 $210 -33.837950201767008 $213 33.837950201767008 $206 $298 forward 7 unknown #
coedge $-1 $201 $129 $134 $216 forward $193 $-1 #
coedge $-1 $129 $201 $195 $289 reversed $193 $-1 #
vertex $-1 $130 $299 #
straight-curve $-1 0 33.837950201767008 13.613044439519427 -1 0 0 I I #
coedge $-1 $131 $196 $133 $215 reversed $75 $-1 #
vertex $-1 $207 $300 #
straight-curve $-1 0 -33.837950201767008 13.613044439519427 1 0 0 I I #
edge $-1 $136 -13.613044439519427 $204 13.613044439519427 $133 $301 forward 7 unknown #
edge $-1 $137 -13.613044439519427 $203 13.613044439519427 $134 $302 forward 7 unknown #
point $-1 79.592272713400675 -33.837950201767008 13.613044439519427 #
point $-1 79.592272713400675 33.837950201767008 13.613044439519427 #
face $-1 $-1 $233 $19 $-1 $303 reversed single #
loop $-1 $-1 $304 $139 #
plane-surface $-1 0 -47.082756533757141 -11.774720505670448 0 1 0 0 0 1 forward_v I I I I #
coedge $-1 $305 $142 $151 $237 reversed $83 $-1 #
coedge $-1 $142 $305 $143 $225 reversed $83 $-1 #
coedge $-1 $144 $143 $306 $307 forward $53 $-1 #
edge $-1 $229 33.837950201767008 $308 47.082756533757141 $223 $309 forward 7 unknown #
coedge $-1 $310 $148 $144 $227 reversed $233 $-1 #
edge $-1 $311 -47.082756533757141 $228 -33.837950201767008 $226 $312 forward 7 unknown #
vertex $-1 $149 $313 #
vertex $-1 $225 $314 #
straight-curve $-1 0 -33.837950201767008 -13.613044439519427 1 0 0 I I #
straight-curve $-1 79.592272713400675 -33.837950201767008 0 0 0 1 I I #
coedge $-1 $148 $310 $150 $236 reversed $233 $-1 #
loop $-1 $-1 $148 $219 #
straight-curve $-1 -79.592272713400675 -33.837950201767008 0 0 0 -1 I I #
coedge $-1 $151 $150 $315 $316 forward $140 $-1 #
edge $-1 $152 -6.6224031659950668 $317 6.6224031659950668 $232 $318 forward 7 unknown #
edge $-1 $319 -6.6224031659950668 $153 6.6224031659950668 $222 $320 forward 7 unknown #
point $-1 -79.592272713400675 -33.837950201767008 -9.9363965718214686 #
point $-1 79.592272713400675 -33.837950201767008 -9.9363965718214686 #
face $-1 $-1 $256 $20 $-1 $321 reversed single #
loop $-1 $-1 $253 $155 #
plane-surface $-1 0 0 -13.613044439519427 0 0 1 1 0 0 forward_v I I I I #
coedge $-1 $322 $323 $324 $325 forward $156 $-1 #
coedge $-1 $165 $158 $323 $326 forward $91 $-1 #
coedge $-1 $163 $324 $158 $246 reversed $256 $-1 #
edge $-1 $166 -6.6224031659950668 $327 6.6224031659950668 $245 $328 forward 7 unknown #
coedge $-1 $160 $159 $329 $330 forward $57 $-1 #
edge $-1 $331 -6.6224031659950668 $167 6.6224031659950668 $159 $332 forward 7 unknown #
coedge $-1 $333 $253 $160 $250 forward $241 $-1 #
edge $-1 $251 -6.6224031659950668 $334 6.6224031659950668 $160 $335 forward 7 unknown #
vertex $-1 $250 $336 #
straight-curve $-1 -79.592272713400675 33.837950201767008 0 0 0 1 I I #
coedge $-1 $249 $337 $162 $254 forward $241 $-1 #
edge $-1 $257 -79.592272713400675 $251 79.592272713400675 $253 $338 forward 7 unknown #
coedge $-1 $324 $163 $337 $339 reversed $256 $-1 #
loop $-1 $-1 $163 $240 #
vertex $-1 $164 $340 #
straight-curve $-1 79.592272713400675 33.837950201767008 0 0 0 -1 I I #
point $-1 79.592272713400675 33.837950201767008 -9.9363965718214686 #
point $-1 -79.592272713400675 33.837950201767008 -9.9363965718214686 #
loop $-1 $-1 $177 $169 #
plane-surface $-1 79.592272713400675 0 0 -1 0 0 0 0 1 forward_v I I I I #
coedge $-1 $264 $172 $174 $268 reversed $99 $-1 #
coedge $-1 $172 $263 $341 $342 reversed $99 $-1 #
coedge $-1 $180 $175 $172 $266 forward $170 $-1 #
edge $-1 $269 14.5501432424984 $343 18.318584269315473 $265 $344 forward 7 unknown #
coedge $-1 $174 $173 $272 $345 reversed $61 $-1 #
edge $-1 $346 -159.18454542680132 $269 -152.44547366087613 $263 $347 forward 7 unknown #
vertex $-1 $176 $348 #
straight-curve $-1 75.823831686583603 -3.0657961433588117 13.613044439519442 0 -1 0 I I #
coedge $-1 $341 $177 $180 $276 reversed $261 $-1 #
coedge $-1 $177 $341 $267 $345 forward $261 $-1 #
vertex $-1 $178 $349 #
straight-curve $-1 79.592272713400675 -0.20241844271297538 114.50546867029554 0 0 1 I I #
straight-curve $-1 -9.4225935260044622 -0.20241844271297538 139.99607110118592 0.55919289150049634 0 -0.82903758062907751 I I #
edge $-1 $343 -12.060766130722271 $181 -0.20241844271297538 $271 $350 forward 7 unknown #
point $-1 79.592272713400675 -0.20241844271297538 13.613044439519427 #
point $-1 75.823831686583603 -0.20241844271297538 13.613044439519427 #
edge $-1 $351 1 $351 0 $184 $-1 forward 7 unknown #
vertex $-1 $185 $352 #
ellipse-curve $-1 73.194481864095522 -8.6726667912910429 7.7751310251558428 0.82903758062907751 0 0.55919289150049634 0.83878933725074445 0 -1.2435563709436162 1 I I #
point $-1 78.546841537242869 -8.6726667912910429 9.5760161923216387 #
edge $-1 $353 1 $353 0 $188 $-1 forward 7 unknown #
vertex $-1 $189 $354 #
ellipse-curve $-1 73.194481864095522 -3.5905177821442003 7.7751310251558428 0.82903758062907751 0 0.55919289150049634 0.83878933725074445 0 -1.2435563709436162 1 I I #
point $-1 78.546841537242869 -3.5905177821442003 9.5760161923216387 #
plane-surface $-1 79.592272713400675 0 0 -1 0 0 0 0 1 forward_v I I I I #
coedge $-1 $197 $195 $199 $292 reversed $121 $-1 #
edge $-1 $210 -13.613044439519427 $294 13.613044439519427 $209 $355 forward 7 unknown #
vertex $-1 $292 $356 #
straight-curve $-1 -79.592272713400675 -33.837950201767008 0 0 0 -1 I I #
edge $-1 $290 -33.837950201767008 $294 33.837950201767008 $288 $357 forward 7 unknown #
straight-curve $-1 0 -33.837950201767008 -13.613044439519427 -1 0 0 I I #
vertex $-1 $202 $358 #
straight-curve $-1 0 33.837950201767008 -13.613044439519427 1 0 0 I I #
point $-1 79.592272713400675 33.837950201767008 -13.613044439519427 #
point $-1 79.592272713400675 -33.837950201767008 -13.613044439519427 #
straight-curve $-1 -79.592272713400675 0 13.613044439519427 0 -1 0 I I #
point $-1 -79.592272713400675 33.837950201767008 13.613044439519427 #
point $-1 -79.592272713400675 -33.837950201767008 13.613044439519427 #
straight-curve $-1 79.592272713400675 -33.837950201767008 0 0 0 -1 I I #
straight-curve $-1 79.592272713400675 33.837950201767008 0 0 0 -1 I I #
plane-surface $-1 -79.592272713400675 0 0 1 0 0 0 0 -1 forward_v I I I I #
coedge $-1 $306 $315 $310 $359 forward $220 $-1 #
coedge $-1 $223 $222 $360 $361 forward $83 $-1 #
coedge $-1 $360 $304 $224 $307 reversed $220 $-1 #
edge $-1 $308 -79.592272713400675 $311 79.592272713400675 $306 $362 forward 7 unknown #
vertex $-1 $361 $363 #
straight-curve $-1 79.592272713400675 0 -13.613044439519427 0 -1 0 I I #
coedge $-1 $232 $226 $304 $359 reversed $233 $-1 #
vertex $-1 $227 $364 #
straight-curve $-1 -79.592272713400675 0 -13.613044439519427 0 1 0 I I #
point $-1 -79.592272713400675 -33.837950201767008 -13.613044439519427 #
point $-1 79.592272713400675 -33.837950201767008 -13.613044439519427 #
coedge $-1 $304 $360 $235 $316 reversed $220 $-1 #
edge $-1 $317 -79.592272713400675 $319 79.592272713400675 $315 $365 forward 7 unknown #
vertex $-1 $236 $366 #
straight-curve $-1 -79.592272713400675 -40.460353367762075 -9.9363965718214686 0 -1 0 I I #
vertex $-1 $237 $367 #
straight-curve $-1 79.592272713400675 -40.460353367762075 -9.9363965718214686 0 1 0 I I #
plane-surface $-1 79.592272713400675 0 0 -1 0 0 0 0 1 forward_v I I I I #
coedge $-1 $329 $243 $333 $368 reversed $156 $-1 #
coedge $-1 $243 $329 $244 $326 reversed $156 $-1 #
coedge $-1 $245 $255 $243 $325 reversed $256 $-1 #
edge $-1 $327 -1.8383239338489794 $369 1.8383239338489794 $324 $370 forward 7 unknown #
edge $-1 $327 -79.592272713400675 $331 79.592272713400675 $323 $371 forward 7 unknown #
vertex $-1 $246 $372 #
straight-curve $-1 79.592272713400675 40.460353367762075 -9.9363965718214686 0 1 0 I I #
coedge $-1 $323 $322 $247 $330 reversed $156 $-1 #
edge $-1 $331 -1.8383239338489794 $334 1.8383239338489794 $329 $373 forward 7 unknown #
vertex $-1 $326 $374 #
straight-curve $-1 -79.592272713400675 40.460353367762075 -9.9363965718214686 0 -1 0 I I #
coedge $-1 $337 $249 $322 $368 forward $241 $-1 #
vertex $-1 $368 $375 #
straight-curve $-1 -79.592272713400675 40.460353367762075 -13.613044439519427 0 1 0 I I #
point $-1 -79.592272713400675 33.837950201767008 -13.613044439519427 #
coedge $-1 $253 $333 $255 $339 forward $241 $-1 #
straight-curve $-1 0 33.837950201767008 -13.613044439519427 -1 0 0 I I #
edge $-1 $369 -47.082756533757141 $257 -33.837950201767008 $255 $376 forward 7 unknown #
point $-1 79.592272713400675 33.837950201767008 -13.613044439519427 #
coedge $-1 $272 $271 $264 $342 forward $261 $-1 #
edge $-1 $343 100.89242423077611 $346 106.47936798328446 $341 $377 forward 7 unknown #
vertex $-1 $276 $378 #
straight-curve $-1 61.273688444085202 -12.060766130722271 13.613044439519427 1 0 0 I I #
edge $-1 $346 -8.9949699873634597 $273 2.8633777006458363 $272 $379 forward 7 unknown #
vertex $-1 $345 $380 #
straight-curve $-1 -9.4225935260044622 -12.060766130722271 139.99607110118592 -0.55919289150049634 0 0.82903758062907751 I I #
point $-1 75.823831686583603 -12.060766130722271 13.613044439519427 #
point $-1 79.592272713400675 -0.20241844271297538 8.0261006870110805 #
straight-curve $-1 79.592272713400675 0 13.613044439519427 0 1 0 I I #
vertex $-1 $279 $381 #
point $-1 74.033271201346267 -8.6726667912910429 6.5315746542122266 #
vertex $-1 $283 $382 #
point $-1 74.033271201346267 -3.5905177821442003 6.5315746542122266 #
straight-curve $-1 -79.592272713400675 33.837950201767008 0 0 0 -1 I I #
point $-1 -79.592272713400675 -33.837950201767008 -13.613044439519427 #
straight-curve $-1 -79.592272713400675 0 -13.613044439519427 0 1 0 I I #
point $-1 -79.592272713400675 33.837950201767008 -13.613044439519427 #
edge $-1 $317 -1.8383239338489794 $311 1.8383239338489794 $310 $383 forward 7 unknown #
coedge $-1 $315 $306 $305 $361 reversed $220 $-1 #
edge $-1 $319 -1.8383239338489794 $308 1.8383239338489794 $305 $384 forward 7 unknown #
straight-curve $-1 0 -47.082756533757141 -13.613044439519427 -1 0 0 I I #
point $-1 79.592272713400675 -47.082756533757141 -13.613044439519427 #
point $-1 -79.592272713400675 -47.082756533757141 -13.613044439519427 #
straight-curve $-1 0 -47.082756533757141 -9.9363965718214686 1 0 0 I I #
point $-1 -79.592272713400675 -47.082756533757141 -9.9363965718214686 #
point $-1 79.592272713400675 -47.082756533757141 -9.9363965718214686 #
edge $-1 $334 -79.592272713400675 $369 79.592272713400675 $322 $385 forward 7 unknown #
vertex $-1 $339 $386 #
straight-curve $-1 79.592272713400675 47.082756533757141 -11.774720505670448 0 0 -1 I I #
straight-curve $-1 0 47.082756533757141 -9.9363965718214686 -1 0 0 I I #
point $-1 79.592272713400675 47.082756533757141 -9.9363965718214686 #
straight-curve $-1 -79.592272713400675 47.082756533757141 -11.774720505670448 0 0 -1 I I #
point $-1 -79.592272713400675 47.082756533757141 -9.9363965718214686 #
point $-1 -79.592272713400675 47.082756533757141 -13.613044439519427 #
straight-curve $-1 79.592272713400675 0 -13.613044439519427 0 -1 0 I I #
straight-curve $-1 79.592272713400675 -12.060766130722271 114.50546867029554 0 0 -1 I I #
point $-1 79.592272713400675 -12.060766130722271 13.613044439519427 #
straight-curve $-1 79.592272713400675 -3.0657961433588117 8.0261006870110805 0 1 0 I I #
point $-1 79.592272713400675 -12.060766130722271 8.0261006870110805 #
point $-1 71.9509254931519 -8.6726667912910429 6.9363416879050996 #
point $-1 71.9509254931519 -3.5905177821442003 6.9363416879050996 #
straight-curve $-1 -79.592272713400675 -47.082756533757141 -11.774720505670448 0 0 -1 I I #
straight-curve $-1 79.592272713400675 -47.082756533757141 -11.774720505670448 0 0 -1 I I #
straight-curve $-1 0 47.082756533757141 -13.613044439519427 1 0 0 I I #
point $-1 79.592272713400675 47.082756533757141 -13.613044439519427 #
End-of-ACIS-data 