500 0 8 0           
7 Unknown 11 ACIS 5.0 NT 24 Thu Mar 25 17:02:48 1999 
-1 9.9999999999999995e-007 1e-010 
body $-1 $8 $-1 $9 #
body $-1 $10 $-1 $11 #
body $-1 $12 $-1 $13 #
body $-1 $14 $-1 $15 #
body $-1 $16 $-1 $17 #
body $-1 $18 $-1 $19 #
body $-1 $20 $-1 $21 #
body $-1 $22 $-1 $23 #
lump $-1 $-1 $24 $0 #
transform $-1 1 0 0 0 1 0 0 0 1 61.309244056520278 29.461068551174833 9.0146356244938239 1 rotate no_reflect no_shear #
lump $-1 $-1 $25 $1 #
transform $-1 1 0 0 0 1 0 0 0 1 61.309244056520278 29.461068551174833 9.0146356244938239 1 rotate no_reflect no_shear #
lump $-1 $-1 $26 $2 #
transform $-1 1 0 0 0 1 0 0 0 1 61.309244056520278 29.461068551174833 9.0146356244938239 1 rotate no_reflect no_shear #
lump $-1 $-1 $27 $3 #
transform $-1 1 0 0 0 1 0 0 0 1 61.309244056520278 29.461068551174833 9.0146356244938239 1 rotate no_reflect no_shear #
lump $-1 $-1 $28 $4 #
transform $-1 1 0 0 0 1 0 0 0 1 61.309244056520278 29.461068551174833 9.0146356244938239 1 rotate no_reflect no_shear #
lump $-1 $-1 $29 $5 #
transform $-1 1 0 0 0 1 0 0 0 1 61.309244056520278 29.461068551174833 9.0146356244938239 1 rotate no_reflect no_shear #
lump $-1 $-1 $30 $6 #
transform $-1 1 0 0 0 1 0 0 0 1 61.309244056520278 29.461068551174833 9.0146356244938239 1 rotate no_reflect no_shear #
lump $-1 $-1 $31 $7 #
transform $-1 1 0 0 0 1 0 0 0 1 61.309244056520278 29.461068551174833 9.0146356244938239 1 rotate no_reflect no_shear #
shell $-1 $-1 $-1 $32 $-1 $8 #
shell $-1 $-1 $-1 $33 $-1 $10 #
shell $-1 $-1 $-1 $34 $-1 $12 #
shell $-1 $-1 $-1 $35 $-1 $14 #
shell $-1 $-1 $-1 $36 $-1 $16 #
shell $-1 $-1 $-1 $37 $-1 $18 #
shell $-1 $-1 $-1 $38 $-1 $20 #
shell $-1 $-1 $-1 $39 $-1 $22 #
face $-1 $40 $41 $24 $-1 $42 forward single #
face $-1 $43 $44 $25 $-1 $45 reversed single #
face $-1 $46 $47 $26 $-1 $48 reversed single #
face $-1 $49 $50 $27 $-1 $51 reversed single #
face $-1 $52 $53 $28 $-1 $54 forward single #
face $-1 $55 $56 $29 $-1 $57 forward single #
face $-1 $58 $59 $30 $-1 $60 reversed single #
face $-1 $61 $62 $31 $-1 $63 forward single #
face $-1 $64 $65 $24 $-1 $66 reversed single #
loop $-1 $-1 $67 $32 #
plane-surface $-1 0 0 9.0146356244938239 0 0 1 1 0 0 forward_v I I I I #
face $-1 $68 $69 $25 $-1 $70 reversed single #
loop $-1 $-1 $71 $33 #
plane-surface $-1 -56.398464420414335 -14.431797302187185 0 0 1 0 0 0 1 forward_v I I I I #
face $-1 $72 $73 $26 $-1 $74 reversed single #
loop $-1 $-1 $75 $34 #
plane-surface $-1 56.398464420414335 -14.431797302187185 0 0 1 0 0 0 1 forward_v I I I I #
face $-1 $76 $77 $27 $-1 $78 reversed single #
loop $-1 $-1 $79 $35 #
plane-surface $-1 9.6172723001605469 -117.66542831848018 88.590479561178824 -1 0 0 0 -0.71933980857756763 0.69465836192734942 forward_v I I I I #
face $-1 $80 $81 $28 $-1 $82 forward single #
loop $-1 $83 $84 $36 #
cone-surface $-1 -12.037639494621857 -25.642094203632247 5.137777101846142 0 0.71933980857756763 -0.69465836192734942 1 0 0 1 I I 0 1 1 forward I I I I #
face $-1 $85 $86 $29 $-1 $87 forward single #
loop $-1 $88 $89 $37 #
cone-surface $-1 0.95530758224759182 -25.642094203632247 5.137777101846142 0 0.71933980857756763 -0.69465836192734942 1 0 0 1 I I 0 1 1 forward I I I I #
face $-1 $90 $91 $30 $-1 $92 reversed single #
loop $-1 $-1 $93 $38 #
plane-surface $-1 33.204662001040418 46.827622551915482 136.06954179400671 1 0 0 0 -0.54463904215088732 -0.83867056331134215 forward_v I I I I #
face $-1 $94 $95 $31 $-1 $96 forward single #
loop $-1 $97 $98 $39 #
cone-surface $-1 42.346173392674395 21.594592121644311 2.2989262904246659 0 -0.54463904215088732 -0.83867056331134215 2 0 0 1 I I 0 1 2 forward I I I I #
face $-1 $99 $100 $24 $-1 $101 reversed single #
loop $-1 $-1 $102 $40 #
plane-surface $-1 0 0 -9.0146356244938239 0 0 1 1 0 0 forward_v I I I I #
coedge $-1 $103 $104 $105 $106 forward $41 $-1 #
face $-1 $107 $108 $25 $-1 $109 reversed single #
loop $-1 $-1 $110 $43 #
plane-surface $-1 -56.398464420414335 -11.431797302187185 0 0 -1 0 0 0 -1 forward_v I I I I #
coedge $-1 $111 $112 $113 $114 reversed $44 $-1 #
face $-1 $115 $116 $26 $-1 $117 reversed single #
loop $-1 $-1 $118 $46 #
plane-surface $-1 51.487684784308392 -12.931797302187185 0 1 0 0 0 0 -1 forward_v I I I I #
coedge $-1 $119 $120 $121 $122 forward $47 $-1 #
face $-1 $123 $124 $27 $-1 $125 reversed single #
loop $-1 $-1 $126 $49 #
plane-surface $-1 -5.541165956187136 -29.461068551174833 3.4125214665658916 0 -0.71933980857756763 0.69465836192734942 1 0 0 forward_v I I I I #
coedge $-1 $127 $128 $129 $130 reversed $50 $-1 #
face $-1 $-1 $131 $28 $-1 $132 forward single #
loop $-1 $133 $134 $52 #
cone-surface $-1 -12.037639494621857 -24.168399266347677 3.7146464771987517 0 0.71933980857756763 -0.69465836192734942 0.5 0 0 1 I I -0.70710678118654746 0.70710678118654746 0.5 forward I I I I #
loop $-1 $-1 $135 $36 #
coedge $-1 $84 $84 $136 $137 reversed $53 $-1 #
face $-1 $-1 $138 $29 $-1 $139 forward single #
loop $-1 $140 $141 $55 #
cone-surface $-1 0.95530758224759182 -24.168399266347677 3.7146464771987517 0 0.71933980857756763 -0.69465836192734942 0.5 0 0 1 I I -0.70710678118654746 0.70710678118654746 0.5 forward I I I I #
loop $-1 $-1 $142 $37 #
coedge $-1 $89 $89 $143 $144 reversed $56 $-1 #
face $-1 $145 $146 $30 $-1 $147 reversed single #
loop $-1 $-1 $148 $58 #
plane-surface $-1 42.346173392674409 -19.955193363960888 33.233025295857871 0 0.54463904215088732 0.83867056331134215 1 0 0 forward_v I I I I #
coedge $-1 $149 $150 $151 $152 reversed $59 $-1 #
face $-1 $-1 $153 $31 $-1 $154 forward single #
loop $-1 $155 $156 $61 #
cone-surface $-1 42.346173392674395 19.24508308739783 -1.3190002861843659 0 -0.54463904215088732 -0.83867056331134215 1 0 0 1 I I -0.70710678118654746 0.70710678118654746 1 forward I I I I #
loop $-1 $-1 $157 $39 #
coedge $-1 $98 $98 $158 $159 reversed $62 $-1 #
face $-1 $160 $161 $24 $-1 $162 reversed single #
loop $-1 $-1 $163 $64 #
plane-surface $-1 0 -29.461068551174833 0 0 1 0 0 0 1 forward_v I I I I #
coedge $-1 $164 $165 $166 $167 forward $65 $-1 #
coedge $-1 $168 $67 $169 $170 forward $41 $-1 #
coedge $-1 $67 $168 $171 $172 forward $41 $-1 #
coedge $-1 $173 $174 $67 $106 reversed $175 $-1 #
edge $-1 $176 -29.461068551174833 $177 29.461068551174833 $105 $178 forward 7 unknown #
face $-1 $179 $180 $25 $-1 $181 reversed single #
loop $-1 $-1 $182 $68 #
plane-surface $-1 -51.487684784308392 -12.931797302187185 0 -1 0 0 0 0 1 forward_v I I I I #
coedge $-1 $183 $184 $185 $186 forward $69 $-1 #
coedge $-1 $187 $71 $188 $189 reversed $44 $-1 #
coedge $-1 $71 $187 $190 $191 reversed $44 $-1 #
coedge $-1 $192 $193 $71 $114 forward $194 $-1 #
edge $-1 $195 -9.0146356244938239 $196 9.0146356244938239 $113 $197 forward 7 unknown #
face $-1 $198 $199 $26 $-1 $200 reversed single #
loop $-1 $-1 $201 $72 #
plane-surface $-1 56.398464420414335 -11.431797302187185 0 0 -1 0 0 0 -1 forward_v I I I I #
coedge $-1 $202 $203 $204 $205 forward $73 $-1 #
coedge $-1 $206 $75 $207 $208 reversed $47 $-1 #
coedge $-1 $75 $206 $209 $210 reversed $47 $-1 #
coedge $-1 $203 $202 $75 $122 reversed $73 $-1 #
edge $-1 $211 -9.0146356244938239 $212 9.0146356244938239 $121 $213 forward 7 unknown #
face $-1 $214 $215 $27 $-1 $216 forward single #
loop $-1 $-1 $217 $76 #
plane-surface $-1 -20.699604212534819 -117.66542831848018 88.590479561178824 1 0 0 0 0.71933980857756763 -0.69465836192734942 forward_v I I I I #
coedge $-1 $218 $219 $220 $221 reversed $77 $-1 #
coedge $-1 $128 $79 $222 $223 reversed $50 $-1 #
coedge $-1 $79 $127 $218 $224 reversed $50 $-1 #
coedge $-1 $220 $225 $79 $130 forward $215 $-1 #
edge $-1 $226 29.371645608065258 $227 34.781544237158855 $129 $228 forward 7 unknown #
loop $-1 $-1 $136 $80 #
plane-surface $-1 -5.541165956187136 -29.461068551174833 3.4125214665658916 0 -0.71933980857756763 0.69465836192734942 1 0 0 forward_v I I I I #
loop $-1 $-1 $229 $52 #
coedge $-1 $134 $134 $135 $230 reversed $81 $-1 #
coedge $-1 $135 $135 $134 $230 forward $83 $-1 #
coedge $-1 $136 $136 $84 $137 forward $131 $-1 #
edge $-1 $231 -1.2778041888196294e-015 $231 6.2831853071795996 $136 $232 forward 7 unknown #
loop $-1 $-1 $143 $85 #
plane-surface $-1 -5.541165956187136 -29.461068551174833 3.4125214665658916 0 -0.71933980857756763 0.69465836192734942 1 0 0 forward_v I I I I #
loop $-1 $-1 $233 $55 #
coedge $-1 $141 $141 $142 $234 reversed $86 $-1 #
coedge $-1 $142 $142 $141 $234 forward $88 $-1 #
coedge $-1 $143 $143 $89 $144 forward $138 $-1 #
edge $-1 $235 -1.2778041888196294e-015 $235 6.2831853071795996 $143 $236 forward 7 unknown #
face $-1 $237 $238 $30 $-1 $239 reversed single #
loop $-1 $-1 $240 $90 #
plane-surface $-1 51.487684784308399 46.827622551915482 136.06954179400671 -1 0 0 0 0.54463904215088732 0.83867056331134215 forward_v I I I I #
coedge $-1 $241 $242 $243 $244 reversed $91 $-1 #
coedge $-1 $150 $93 $245 $246 reversed $59 $-1 #
coedge $-1 $93 $149 $241 $247 reversed $59 $-1 #
coedge $-1 $243 $248 $93 $152 forward $249 $-1 #
edge $-1 $250 -6.0472572752170919 $251 6.0759555996527439 $151 $252 forward 7 unknown #
loop $-1 $-1 $158 $94 #
plane-surface $-1 42.346173392674409 -19.955193363960888 33.233025295857871 0 0.54463904215088732 0.83867056331134215 1 0 0 forward_v I I I I #
loop $-1 $-1 $253 $61 #
coedge $-1 $156 $156 $157 $254 reversed $95 $-1 #
coedge $-1 $157 $157 $156 $254 forward $97 $-1 #
coedge $-1 $158 $158 $98 $159 forward $153 $-1 #
edge $-1 $255 -2.8043658173035087e-016 $255 6.2831853071796004 $158 $256 forward 7 unknown #
face $-1 $257 $258 $24 $-1 $259 reversed single #
loop $-1 $-1 $260 $99 #
plane-surface $-1 -61.309244056520278 0 0 1 0 0 0 0 -1 forward_v I I I I #
coedge $-1 $261 $171 $262 $263 forward $100 $-1 #
coedge $-1 $264 $102 $261 $265 forward $65 $-1 #
coedge $-1 $102 $264 $266 $267 forward $65 $-1 #
coedge $-1 $174 $173 $102 $167 reversed $175 $-1 #
edge $-1 $268 -29.461068551174833 $269 29.461068551174833 $166 $270 forward 7 unknown #
coedge $-1 $104 $103 $271 $272 forward $41 $-1 #
coedge $-1 $273 $274 $103 $170 reversed $258 $-1 #
edge $-1 $177 -61.309244056520278 $275 61.309244056520278 $169 $276 forward 7 unknown #
coedge $-1 $163 $277 $104 $172 reversed $100 $-1 #
edge $-1 $278 -61.309244056520278 $176 61.309244056520278 $171 $279 forward 7 unknown #
coedge $-1 $166 $105 $277 $280 forward $175 $-1 #
coedge $-1 $105 $166 $273 $281 reversed $175 $-1 #
loop $-1 $-1 $173 $257 #
vertex $-1 $106 $282 #
vertex $-1 $106 $283 #
straight-curve $-1 61.309244056520278 0 9.0146356244938239 0 1 0 I I #
face $-1 $284 $285 $25 $-1 $286 forward single #
loop $-1 $-1 $287 $107 #
plane-surface $-1 0 0 -9.0146356244938239 0 0 1 1 0 0 forward_v I I I I #
coedge $-1 $288 $289 $187 $290 forward $108 $-1 #
coedge $-1 $291 $110 $287 $292 reversed $69 $-1 #
coedge $-1 $110 $291 $293 $294 reversed $69 $-1 #
coedge $-1 $289 $288 $110 $186 reversed $108 $-1 #
edge $-1 $295 -9.0146356244938239 $296 9.0146356244938239 $185 $297 forward 7 unknown #
coedge $-1 $112 $111 $182 $290 reversed $44 $-1 #
coedge $-1 $298 $299 $111 $189 forward $180 $-1 #
edge $-1 $300 23.288452574101225 $195 33.110011846313114 $188 $301 forward 7 unknown #
coedge $-1 $302 $303 $112 $191 forward $285 $-1 #
edge $-1 $196 -33.110011846313114 $304 -23.288452574101225 $190 $305 forward 7 unknown #
coedge $-1 $306 $113 $303 $307 reversed $194 $-1 #
coedge $-1 $113 $306 $298 $308 reversed $194 $-1 #
loop $-1 $-1 $306 $284 #
vertex $-1 $308 $309 #
vertex $-1 $114 $310 #
straight-curve $-1 -61.309244056520278 -14.431797302187185 0 0 0 1 I I #
face $-1 $311 $312 $26 $-1 $313 forward single #
loop $-1 $-1 $207 $115 #
plane-surface $-1 0 0 -9.0146356244938239 0 0 1 1 0 0 forward_v I I I I #
coedge $-1 $314 $315 $316 $317 reversed $116 $-1 #
coedge $-1 $121 $118 $318 $319 reversed $73 $-1 #
coedge $-1 $118 $121 $320 $321 reversed $73 $-1 #
coedge $-1 $315 $314 $118 $205 reversed $116 $-1 #
edge $-1 $322 -9.0146356244938239 $323 9.0146356244938239 $204 $324 forward 7 unknown #
coedge $-1 $120 $119 $325 $326 reversed $47 $-1 #
coedge $-1 $318 $327 $119 $208 forward $199 $-1 #
edge $-1 $328 -33.110011846313114 $212 -23.288452574101225 $207 $329 forward 7 unknown #
coedge $-1 $330 $320 $120 $210 forward $312 $-1 #
edge $-1 $211 23.288452574101225 $331 33.110011846313114 $209 $332 forward 7 unknown #
vertex $-1 $210 $333 #
vertex $-1 $208 $334 #
straight-curve $-1 51.487684784308392 -14.431797302187185 0 0 0 -1 I I #
face $-1 $-1 $335 $27 $-1 $336 reversed single #
loop $-1 $-1 $129 $123 #
plane-surface $-1 0 0 9.0146356244938239 0 0 1 1 0 0 forward_v I I I I #
coedge $-1 $337 $338 $339 $340 reversed $124 $-1 #
coedge $-1 $341 $126 $128 $224 forward $77 $-1 #
coedge $-1 $126 $341 $337 $342 forward $77 $-1 #
coedge $-1 $339 $129 $126 $221 forward $215 $-1 #
edge $-1 $227 -12.387855278254115 $343 17.929021234441251 $220 $344 forward 7 unknown #
coedge $-1 $345 $346 $127 $223 forward $335 $-1 #
edge $-1 $347 -40.882718314023521 $226 -35.280604156095592 $222 $348 forward 7 unknown #
edge $-1 $227 -7.78785504587273 $347 0 $128 $349 forward 7 unknown #
coedge $-1 $129 $339 $345 $350 forward $215 $-1 #
vertex $-1 $130 $351 #
vertex $-1 $130 $352 #
straight-curve $-1 9.6172723001605469 -58.832714159240091 9.0146356244938204 0 1 0 I I #
coedge $-1 $229 $229 $-1 $353 reversed $133 $-1 #
edge $-1 $354 0 $354 6.2831853071796004 $134 $355 forward 7 unknown #
vertex $-1 $137 $356 #
ellipse-curve $-1 -12.037639494621857 -26.756119236628034 6.2135785455298596 0 -0.71933980857756763 0.69465836192734942 1 0 0 1 I I #
coedge $-1 $233 $233 $-1 $357 reversed $140 $-1 #
edge $-1 $358 0 $358 6.2831853071796004 $141 $359 forward 7 unknown #
vertex $-1 $144 $360 #
ellipse-curve $-1 0.95530758224759182 -26.756119236628034 6.2135785455298596 0 -0.71933980857756763 0.69465836192734942 1 0 0 1 I I #
face $-1 $-1 $249 $30 $-1 $361 forward single #
loop $-1 $-1 $362 $145 #
plane-surface $-1 0 29.461068551174833 0 0 -1 0 0 0 -1 forward_v I I I I #
coedge $-1 $363 $364 $365 $366 reversed $146 $-1 #
coedge $-1 $367 $148 $150 $247 forward $91 $-1 #
coedge $-1 $148 $367 $363 $368 forward $91 $-1 #
coedge $-1 $365 $151 $148 $244 forward $249 $-1 #
edge $-1 $251 12.031575304703214 $369 30.314598087971195 $243 $370 forward 7 unknown #
coedge $-1 $371 $372 $149 $246 forward $238 $-1 #
edge $-1 $373 -66.893041914052461 $250 -59.020135272509535 $245 $374 forward 7 unknown #
edge $-1 $251 44.466862999245961 $373 58.922137102349652 $150 $375 forward 7 unknown #
coedge $-1 $151 $365 $371 $376 forward $249 $-1 #
loop $-1 $-1 $365 $237 #
vertex $-1 $246 $377 #
vertex $-1 $152 $378 #
straight-curve $-1 33.204662001040418 23.413811275957741 9.0146356244938204 0 -1 0 I I #
coedge $-1 $253 $253 $-1 $379 reversed $155 $-1 #
edge $-1 $380 0 $380 6.2831853071796004 $156 $381 forward 7 unknown #
vertex $-1 $159 $382 #
ellipse-curve $-1 42.346173392674395 23.399462113739904 5.0781823037223601 0 0.54463904215088732 0.83867056331134215 2 0 0 1 I I #
face $-1 $-1 $175 $24 $-1 $383 reversed single #
loop $-1 $-1 $273 $160 #
plane-surface $-1 0 29.461068551174833 0 0 -1 0 0 0 -1 forward_v I I I I #
coedge $-1 $384 $271 $274 $385 forward $161 $-1 #
coedge $-1 $277 $163 $164 $265 reversed $100 $-1 #
coedge $-1 $271 $384 $163 $263 reversed $161 $-1 #
edge $-1 $278 -9.0146356244938239 $386 9.0146356244938239 $262 $387 forward 7 unknown #
coedge $-1 $165 $164 $384 $388 forward $65 $-1 #
edge $-1 $269 -61.309244056520278 $386 61.309244056520278 $261 $389 forward 7 unknown #
coedge $-1 $274 $273 $165 $267 reversed $258 $-1 #
edge $-1 $390 -61.309244056520278 $268 61.309244056520278 $266 $391 forward 7 unknown #
vertex $-1 $167 $392 #
vertex $-1 $280 $393 #
straight-curve $-1 61.309244056520278 0 -9.0146356244938239 0 -1 0 I I #
coedge $-1 $260 $262 $168 $272 reversed $161 $-1 #
edge $-1 $275 -29.461068551174833 $278 29.461068551174833 $271 $394 forward 7 unknown #
coedge $-1 $266 $169 $174 $281 forward $258 $-1 #
coedge $-1 $169 $266 $260 $385 reversed $258 $-1 #
vertex $-1 $170 $395 #
straight-curve $-1 0 29.461068551174833 9.0146356244938239 -1 0 0 I I #
coedge $-1 $171 $261 $173 $280 reversed $100 $-1 #
vertex $-1 $272 $396 #
straight-curve $-1 0 -29.461068551174833 9.0146356244938239 1 0 0 I I #
edge $-1 $176 -9.0146356244938239 $269 9.0146356244938239 $173 $397 forward 7 unknown #
edge $-1 $177 -9.0146356244938239 $268 9.0146356244938239 $174 $398 forward 7 unknown #
point $-1 61.309244056520278 -29.461068551174833 9.0146356244938239 #
point $-1 61.309244056520278 29.461068551174833 9.0146356244938239 #
face $-1 $-1 $194 $25 $-1 $399 reversed single #
loop $-1 $-1 $293 $179 #
plane-surface $-1 0 0 9.0146356244938239 0 0 1 1 0 0 forward_v I I I I #
coedge $-1 $299 $298 $183 $292 forward $180 $-1 #
coedge $-1 $185 $182 $299 $400 reversed $108 $-1 #
coedge $-1 $182 $185 $302 $401 reversed $108 $-1 #
edge $-1 $304 -9.0146356244938239 $300 9.0146356244938239 $182 $402 forward 7 unknown #
coedge $-1 $184 $183 $306 $403 reversed $69 $-1 #
edge $-1 $404 -33.110011846313114 $296 -23.288452574101225 $287 $405 forward 7 unknown #
coedge $-1 $303 $302 $184 $294 forward $285 $-1 #
edge $-1 $295 23.288452574101225 $406 33.110011846313114 $293 $407 forward 7 unknown #
vertex $-1 $294 $408 #
vertex $-1 $292 $409 #
straight-curve $-1 -51.487684784308392 -11.431797302187185 0 0 0 -1 I I #
coedge $-1 $287 $188 $193 $308 forward $180 $-1 #
coedge $-1 $188 $287 $288 $400 forward $180 $-1 #
vertex $-1 $189 $410 #
straight-curve $-1 -28.199232210207168 -14.431797302187185 -9.0146356244938239 -1 0 0 I I #
coedge $-1 $293 $190 $289 $401 forward $285 $-1 #
coedge $-1 $190 $293 $192 $307 forward $285 $-1 #
vertex $-1 $191 $411 #
straight-curve $-1 -28.199232210207168 -14.431797302187185 9.0146356244938239 1 0 0 I I #
coedge $-1 $193 $192 $291 $403 forward $194 $-1 #
edge $-1 $406 11.431797302187185 $196 14.431797302187185 $192 $412 forward 7 unknown #
edge $-1 $195 -14.431797302187185 $404 -11.431797302187185 $193 $413 forward 7 unknown #
point $-1 -61.309244056520278 -14.431797302187185 -9.0146356244938239 #
point $-1 -61.309244056520278 -14.431797302187185 9.0146356244938239 #
face $-1 $-1 $414 $26 $-1 $415 reversed single #
loop $-1 $-1 $209 $198 #
plane-surface $-1 0 0 9.0146356244938239 0 0 1 1 0 0 forward_v I I I I #
coedge $-1 $204 $201 $416 $417 reversed $116 $-1 #
coedge $-1 $201 $204 $418 $419 reversed $116 $-1 #
coedge $-1 $420 $421 $201 $317 forward $414 $-1 #
edge $-1 $422 -9.0146356244938239 $423 9.0146356244938239 $316 $424 forward 7 unknown #
coedge $-1 $416 $207 $202 $319 forward $199 $-1 #
edge $-1 $212 -7.9658986510935925 $323 -4.9658986510935925 $318 $425 forward 7 unknown #
coedge $-1 $209 $418 $203 $321 forward $312 $-1 #
edge $-1 $322 4.9658986510935925 $211 7.9658986510935925 $320 $426 forward 7 unknown #
vertex $-1 $321 $427 #
vertex $-1 $319 $428 #
straight-curve $-1 51.487684784308392 -11.431797302187185 0 0 0 -1 I I #
coedge $-1 $421 $420 $206 $326 forward $414 $-1 #
edge $-1 $331 -9.0146356244938239 $328 9.0146356244938239 $325 $429 forward 7 unknown #
coedge $-1 $207 $416 $421 $430 forward $199 $-1 #
vertex $-1 $326 $431 #
straight-curve $-1 28.199232210207168 -14.431797302187185 -9.0146356244938239 -1 0 0 I I #
coedge $-1 $418 $209 $420 $432 forward $312 $-1 #
vertex $-1 $432 $433 #
straight-curve $-1 28.199232210207168 -14.431797302187185 9.0146356244938239 1 0 0 I I #
point $-1 51.487684784308392 -14.431797302187185 9.0146356244938239 #
point $-1 51.487684784308392 -14.431797302187185 -9.0146356244938239 #
loop $-1 $-1 $222 $214 #
plane-surface $-1 0 -29.461068551174833 0 0 1 0 0 0 1 forward_v I I I I #
coedge $-1 $338 $217 $219 $342 reversed $124 $-1 #
coedge $-1 $217 $337 $434 $435 reversed $124 $-1 #
coedge $-1 $225 $220 $217 $340 forward $215 $-1 #
edge $-1 $343 -34.781544237158855 $436 -29.371645608065258 $339 $437 forward 7 unknown #
coedge $-1 $219 $218 $346 $438 reversed $77 $-1 #
edge $-1 $439 0 $343 7.78785504587273 $337 $440 forward 7 unknown #
vertex $-1 $221 $441 #
straight-curve $-1 -2.770582978093568 -24.05116992208124 9.0146356244938239 -1 0 0 I I #
coedge $-1 $434 $222 $225 $350 reversed $335 $-1 #
coedge $-1 $222 $434 $341 $438 forward $335 $-1 #
vertex $-1 $223 $442 #
straight-curve $-1 9.6172723001605469 -29.461068551174833 44.295239780589412 0 0 1 I I #
straight-curve $-1 9.6172723001605469 -29.461068551174833 3.4125214665658916 0 -0.69465836192734942 -0.71933980857756763 I I #
edge $-1 $436 -20.699604212534819 $226 9.6172723001605469 $345 $443 forward 7 unknown #
point $-1 9.6172723001605469 -29.461068551174833 9.0146356244938239 #
point $-1 9.6172723001605469 -24.05116992208124 9.0146356244938239 #
edge $-1 $444 1 $444 0 $229 $-1 forward 7 unknown #
vertex $-1 $230 $445 #
ellipse-curve $-1 -12.037639494621857 -24.52806917063646 4.0619756581624262 0 -0.71933980857756763 0.69465836192734942 1 0 0 1 I I #
point $-1 -11.037639494621857 -26.756119236628034 6.2135785455298578 #
edge $-1 $446 1 $446 0 $233 $-1 forward 7 unknown #
vertex $-1 $234 $447 #
ellipse-curve $-1 0.95530758224759182 -24.52806917063646 4.0619756581624262 0 -0.71933980857756763 0.69465836192734942 1 0 0 1 I I #
point $-1 1.9553075822475918 -26.756119236628034 6.2135785455298578 #
plane-surface $-1 0 0 9.0146356244938239 0 0 1 1 0 0 forward_v I I I I #
coedge $-1 $372 $371 $364 $448 forward $238 $-1 #
coedge $-1 $364 $240 $242 $368 reversed $146 $-1 #
coedge $-1 $240 $363 $362 $448 reversed $146 $-1 #
coedge $-1 $248 $243 $240 $366 forward $249 $-1 #
edge $-1 $369 -6.0759555996527439 $449 6.0472572752170919 $365 $450 forward 7 unknown #
coedge $-1 $242 $241 $372 $451 reversed $91 $-1 #
edge $-1 $452 -58.922137102349652 $369 -44.466862999245961 $363 $453 forward 7 unknown #
vertex $-1 $244 $454 #
straight-curve $-1 21.173086696337204 17.33785567630499 9.0146356244938204 1 0 0 I I #
coedge $-1 $362 $245 $248 $376 reversed $238 $-1 #
coedge $-1 $245 $362 $367 $451 forward $238 $-1 #
vertex $-1 $246 $455 #
straight-curve $-1 33.204662001040418 29.461068551174833 68.034770897003355 0 0 1 I I #
straight-curve $-1 33.204662001040418 -19.955193363960888 33.233025295857871 0 0.83867056331134215 -0.54463904215088732 I I #
edge $-1 $449 -51.487684784308399 $250 -33.204662001040418 $371 $456 forward 7 unknown #
point $-1 33.204662001040418 29.461068551174833 9.0146356244938239 #
point $-1 33.204662001040418 17.337855676304997 9.0146356244938204 #
edge $-1 $457 1 $457 0 $253 $-1 forward 7 unknown #
vertex $-1 $254 $458 #
ellipse-curve $-1 42.346173392674395 19.789722129548718 -0.48032972287302378 0 0.54463904215088732 0.83867056331134215 2 0 0 1 I I #
point $-1 44.346173392674395 23.399462113739901 5.0781823037223557 #
plane-surface $-1 61.309244056520278 0 0 -1 0 0 0 0 1 forward_v I I I I #
coedge $-1 $262 $260 $264 $388 reversed $161 $-1 #
edge $-1 $275 -9.0146356244938239 $390 9.0146356244938239 $274 $459 forward 7 unknown #
vertex $-1 $388 $460 #
straight-curve $-1 -61.309244056520278 -29.461068551174833 0 0 0 -1 I I #
edge $-1 $386 -29.461068551174833 $390 29.461068551174833 $384 $461 forward 7 unknown #
straight-curve $-1 0 -29.461068551174833 -9.0146356244938239 -1 0 0 I I #
vertex $-1 $267 $462 #
straight-curve $-1 0 29.461068551174833 -9.0146356244938239 1 0 0 I I #
point $-1 61.309244056520278 29.461068551174833 -9.0146356244938239 #
point $-1 61.309244056520278 -29.461068551174833 -9.0146356244938239 #
straight-curve $-1 -61.309244056520278 0 9.0146356244938239 0 -1 0 I I #
point $-1 -61.309244056520278 29.461068551174833 9.0146356244938239 #
point $-1 -61.309244056520278 -29.461068551174833 9.0146356244938239 #
straight-curve $-1 61.309244056520278 -29.461068551174833 0 0 0 -1 I I #
straight-curve $-1 61.309244056520278 29.461068551174833 0 0 0 -1 I I #
plane-surface $-1 -61.309244056520278 0 0 1 0 0 0 0 -1 forward_v I I I I #
edge $-1 $296 4.9658986510935925 $300 7.9658986510935925 $299 $463 forward 7 unknown #
edge $-1 $304 -7.9658986510935925 $295 -4.9658986510935925 $302 $464 forward 7 unknown #
straight-curve $-1 -51.487684784308392 -14.431797302187185 0 0 0 -1 I I #
edge $-1 $406 -9.0146356244938239 $404 9.0146356244938239 $306 $465 forward 7 unknown #
vertex $-1 $403 $466 #
straight-curve $-1 -28.199232210207168 -11.431797302187185 -9.0146356244938239 1 0 0 I I #
vertex $-1 $307 $467 #
straight-curve $-1 -28.199232210207168 -11.431797302187185 9.0146356244938239 -1 0 0 I I #
point $-1 -51.487684784308392 -11.431797302187185 9.0146356244938239 #
point $-1 -51.487684784308392 -11.431797302187185 -9.0146356244938239 #
point $-1 -51.487684784308392 -14.431797302187185 -9.0146356244938239 #
point $-1 -51.487684784308392 -14.431797302187185 9.0146356244938239 #
straight-curve $-1 -61.309244056520278 0 9.0146356244938239 0 -1 0 I I #
straight-curve $-1 -61.309244056520278 0 -9.0146356244938239 0 1 0 I I #
loop $-1 $-1 $325 $311 #
plane-surface $-1 61.309244056520278 0 0 -1 0 0 0 0 1 forward_v I I I I #
coedge $-1 $327 $318 $314 $417 forward $199 $-1 #
edge $-1 $323 23.288452574101225 $422 33.110011846313114 $416 $468 forward 7 unknown #
coedge $-1 $320 $330 $315 $419 forward $312 $-1 #
edge $-1 $423 -33.110011846313114 $322 -23.288452574101225 $418 $469 forward 7 unknown #
coedge $-1 $325 $316 $330 $432 reversed $414 $-1 #
coedge $-1 $316 $325 $327 $430 reversed $414 $-1 #
vertex $-1 $430 $470 #
vertex $-1 $317 $471 #
straight-curve $-1 61.309244056520278 -11.431797302187185 0 0 0 1 I I #
straight-curve $-1 51.487684784308392 -6.4658986510935925 -9.0146356244938239 0 1 0 I I #
straight-curve $-1 51.487684784308392 -6.4658986510935925 9.0146356244938239 0 -1 0 I I #
point $-1 51.487684784308392 -11.431797302187185 9.0146356244938239 #
point $-1 51.487684784308392 -11.431797302187185 -9.0146356244938239 #
straight-curve $-1 61.309244056520278 -14.431797302187185 0 0 0 -1 I I #
edge $-1 $422 11.431797302187185 $328 14.431797302187185 $421 $472 forward 7 unknown #
point $-1 61.309244056520278 -14.431797302187185 -9.0146356244938239 #
edge $-1 $331 -14.431797302187185 $423 -11.431797302187185 $420 $473 forward 7 unknown #
point $-1 61.309244056520278 -14.431797302187185 9.0146356244938239 #
coedge $-1 $346 $345 $338 $435 forward $335 $-1 #
edge $-1 $436 35.280604156095592 $439 40.882718314023521 $434 $474 forward 7 unknown #
vertex $-1 $350 $475 #
straight-curve $-1 -20.699604212534819 -58.832714159240091 9.0146356244938204 0 -1 0 I I #
edge $-1 $439 -17.929021234441251 $347 12.387855278254115 $346 $476 forward 7 unknown #
vertex $-1 $438 $477 #
straight-curve $-1 -20.699604212534819 -29.461068551174833 3.4125214665658916 0 0.69465836192734942 0.71933980857756763 I I #
point $-1 -20.699604212534819 -24.05116992208124 9.0146356244938239 #
point $-1 9.6172723001605469 -29.461068551174833 3.4125214665658916 #
straight-curve $-1 0 -29.461068551174833 9.0146356244938239 1 0 0 I I #
vertex $-1 $353 $478 #
point $-1 -11.037639494621857 -24.52806917063646 4.0619756581624262 #
vertex $-1 $357 $479 #
point $-1 1.9553075822475918 -24.52806917063646 4.0619756581624262 #
edge $-1 $449 59.020135272509535 $452 66.893041914052461 $362 $480 forward 7 unknown #
vertex $-1 $376 $481 #
straight-curve $-1 51.487684784308399 23.413811275957741 9.0146356244938204 0 1 0 I I #
edge $-1 $452 -30.314598087971195 $373 -12.031575304703214 $372 $482 forward 7 unknown #
vertex $-1 $451 $483 #
straight-curve $-1 51.487684784308399 -19.955193363960888 33.233025295857871 0 -0.83867056331134215 0.54463904215088732 I I #
point $-1 51.487684784308399 17.337855676304997 9.0146356244938204 #
point $-1 33.204662001040418 29.461068551174833 1.1417289829508945 #
straight-curve $-1 0 29.461068551174833 9.0146356244938239 -1 0 0 I I #
vertex $-1 $379 $484 #
point $-1 44.346173392674395 19.789722129548718 -0.48032972287302378 #
straight-curve $-1 -61.309244056520278 29.461068551174833 0 0 0 -1 I I #
point $-1 -61.309244056520278 -29.461068551174833 -9.0146356244938239 #
straight-curve $-1 -61.309244056520278 0 -9.0146356244938239 0 1 0 I I #
point $-1 -61.309244056520278 29.461068551174833 -9.0146356244938239 #
straight-curve $-1 -51.487684784308392 -6.4658986510935925 -9.0146356244938239 0 -1 0 I I #
straight-curve $-1 -51.487684784308392 -6.4658986510935925 9.0146356244938239 0 1 0 I I #
straight-curve $-1 -61.309244056520278 -11.431797302187185 0 0 0 -1 I I #
point $-1 -61.309244056520278 -11.431797302187185 -9.0146356244938239 #
point $-1 -61.309244056520278 -11.431797302187185 9.0146356244938239 #
straight-curve $-1 28.199232210207168 -11.431797302187185 -9.0146356244938239 1 0 0 I I #
straight-curve $-1 28.199232210207168 -11.431797302187185 9.0146356244938239 -1 0 0 I I #
point $-1 61.309244056520278 -11.431797302187185 -9.0146356244938239 #
point $-1 61.309244056520278 -11.431797302187185 9.0146356244938239 #
straight-curve $-1 61.309244056520278 0 -9.0146356244938239 0 -1 0 I I #
straight-curve $-1 61.309244056520278 0 9.0146356244938239 0 1 0 I I #
straight-curve $-1 -20.699604212534819 -29.461068551174833 44.295239780589412 0 0 -1 I I #
point $-1 -20.699604212534819 -29.461068551174833 9.0146356244938239 #
straight-curve $-1 -2.770582978093568 -29.461068551174833 3.4125214665658925 1 0 0 I I #
point $-1 -20.699604212534819 -29.461068551174833 3.4125214665658916 #
point $-1 -12.037639494621857 -23.808729362058894 3.3673172962350773 #
point $-1 0.95530758224759182 -23.808729362058894 3.3673172962350773 #
straight-curve $-1 51.487684784308399 29.461068551174833 68.034770897003355 0 0 -1 I I #
point $-1 51.487684784308399 29.461068551174833 9.0146356244938239 #
straight-curve $-1 21.173086696337204 29.461068551174833 1.1417289829508981 -1 0 0 I I #
point $-1 51.487684784308399 29.461068551174833 1.1417289829508945 #
point $-1 42.346173392674395 18.700444045246943 -2.157670849495708 #
End-of-ACIS-data 