500 0 8 0           
7 Unknown 11 ACIS 5.0 NT 24 Fri Mar 26 16:42:56 1999 
-1 9.9999999999999995e-007 1e-010 
body $-1 $8 $-1 $9 #
body $-1 $10 $-1 $11 #
body $-1 $12 $-1 $13 #
body $-1 $14 $-1 $15 #
body $-1 $16 $-1 $17 #
body $-1 $18 $-1 $19 #
body $-1 $20 $-1 $21 #
body $-1 $22 $-1 $23 #
lump $-1 $-1 $24 $0 #
transform $-1 1 0 0 0 1 0 0 0 1 50.816980498672443 22.247375366971525 5.4275801472081779 1 rotate no_reflect no_shear #
lump $-1 $-1 $25 $1 #
transform $-1 1 0 0 0 1 0 0 0 1 50.816980498672443 22.247375366971525 5.4275801472081779 1 rotate no_reflect no_shear #
lump $-1 $-1 $26 $2 #
transform $-1 1 0 0 0 1 0 0 0 1 50.816980498672443 22.247375366971525 5.4275801472081779 1 rotate no_reflect no_shear #
lump $-1 $-1 $27 $3 #
transform $-1 1 0 0 0 1 0 0 0 1 50.816980498672443 22.247375366971525 5.4275801472081779 1 rotate no_reflect no_shear #
lump $-1 $-1 $28 $4 #
transform $-1 1 0 0 0 1 0 0 0 1 50.816980498672443 22.247375366971525 5.4275801472081779 1 rotate no_reflect no_shear #
lump $-1 $-1 $29 $5 #
transform $-1 1 0 0 0 1 0 0 0 1 50.816980498672443 22.247375366971525 5.4275801472081779 1 rotate no_reflect no_shear #
lump $-1 $-1 $30 $6 #
transform $-1 1 0 0 0 1 0 0 0 1 50.816980498672443 22.247375366971525 5.4275801472081779 1 rotate no_reflect no_shear #
lump $-1 $-1 $31 $7 #
transform $-1 1 0 0 0 1 0 0 0 1 50.816980498672443 22.247375366971525 5.4275801472081779 1 rotate no_reflect no_shear #
shell $-1 $-1 $-1 $32 $-1 $8 #
shell $-1 $-1 $-1 $33 $-1 $10 #
shell $-1 $-1 $-1 $34 $-1 $12 #
shell $-1 $-1 $-1 $35 $-1 $14 #
shell $-1 $-1 $-1 $36 $-1 $16 #
shell $-1 $-1 $-1 $37 $-1 $18 #
shell $-1 $-1 $-1 $38 $-1 $20 #
shell $-1 $-1 $-1 $39 $-1 $22 #
face $-1 $40 $41 $24 $-1 $42 forward single #
face $-1 $43 $44 $25 $-1 $45 reversed single #
face $-1 $46 $47 $26 $-1 $48 reversed single #
face $-1 $49 $50 $27 $-1 $51 forward single #
face $-1 $52 $53 $28 $-1 $54 forward single #
face $-1 $55 $56 $29 $-1 $57 forward single #
face $-1 $58 $59 $30 $-1 $60 reversed single #
face $-1 $61 $62 $31 $-1 $63 forward single #
face $-1 $64 $65 $24 $-1 $66 reversed single #
loop $-1 $-1 $67 $32 #
plane-surface $-1 0 0 5.4275801472081779 0 0 1 1 0 0 forward_v I I I I #
face $-1 $68 $69 $25 $-1 $70 reversed single #
loop $-1 $-1 $71 $33 #
plane-surface $-1 -48.22568574262759 0 2.4275801472081779 0 0 1 1 0 0 forward_v I I I I #
face $-1 $72 $73 $26 $-1 $74 reversed single #
loop $-1 $-1 $75 $34 #
plane-surface $-1 36.704858979185474 -74.592735680844783 88.549540610573388 -1 0 0 0 -0.51503808176128008 0.85716729658548041 forward_v I I I I #
face $-1 $76 $77 $27 $-1 $78 forward single #
loop $-1 $79 $80 $35 #
cone-surface $-1 15.214809330763835 -18.3957947738051 2.5530085086835355 0 0.51503808176128008 -0.85716729658548041 1.5 0 0 1 I I 0 1 1.5 forward I I I I #
face $-1 $81 $82 $28 $-1 $83 forward single #
loop $-1 $84 $85 $36 #
cone-surface $-1 23.273577948921947 -18.3957947738051 2.5530085086835355 0 0.51503808176128008 -0.85716729658548041 1.5 0 0 1 I I 0 1 1.5 forward I I I I #
face $-1 $86 $87 $29 $-1 $88 forward single #
loop $-1 $89 $90 $37 #
cone-surface $-1 31.332346567080059 -18.3957947738051 2.5530085086835355 0 0.51503808176128008 -0.85716729658548041 1.5 0 0 1 I I 0 1 1.5 forward I I I I #
face $-1 $91 $92 $30 $-1 $93 reversed single #
loop $-1 $-1 $94 $38 #
plane-surface $-1 -38.673037460350415 -13.749633894509017 27.067062833215815 0 0.5877852598018023 0.80901698891910034 1 0 0 forward_v I I I I #
face $-1 $95 $96 $31 $-1 $97 forward single #
loop $-1 $98 $99 $39 #
cone-surface $-1 -38.673037460350415 17.440211322016719 0.82975311529552354 0 -0.5877852598018023 -0.80901698891910034 1.5 0 0 1 I I 0 1 1.5 forward I I I I #
face $-1 $100 $101 $24 $-1 $102 reversed single #
loop $-1 $-1 $103 $40 #
plane-surface $-1 0 0 -5.4275801472081779 0 0 1 1 0 0 forward_v I I I I #
coedge $-1 $104 $105 $106 $107 forward $41 $-1 #
face $-1 $108 $109 $25 $-1 $110 reversed single #
loop $-1 $-1 $111 $43 #
plane-surface $-1 -45.634390986582737 0 3.9275801472081779 -1 0 0 0 0 1 forward_v I I I I #
coedge $-1 $112 $113 $114 $115 forward $44 $-1 #
face $-1 $116 $117 $26 $-1 $118 reversed single #
loop $-1 $-1 $119 $46 #
plane-surface $-1 23.273577948921947 -22.247375366971518 1.4322330212051213 0 -0.51503808176128008 0.85716729658548041 1 0 0 forward_v I I I I #
coedge $-1 $120 $121 $122 $123 reversed $47 $-1 #
face $-1 $-1 $124 $27 $-1 $125 forward single #
loop $-1 $126 $127 $49 #
cone-surface $-1 15.214809330763835 -17.482622682461852 1.0332349607213072 0 0.51503808176128008 -0.85716729658548041 0.75 0 0 1 I I -0.70710678118654746 0.70710678118654768 0.75 forward I I I I #
loop $-1 $-1 $128 $35 #
coedge $-1 $80 $80 $129 $130 reversed $50 $-1 #
face $-1 $-1 $131 $28 $-1 $132 forward single #
loop $-1 $133 $134 $52 #
cone-surface $-1 23.273577948921947 -17.482622682461852 1.0332349607213072 0 0.51503808176128008 -0.85716729658548041 0.75 0 0 1 I I -0.70710678118654746 0.70710678118654768 0.75 forward I I I I #
loop $-1 $-1 $135 $36 #
coedge $-1 $85 $85 $136 $137 reversed $53 $-1 #
face $-1 $-1 $138 $29 $-1 $139 forward single #
loop $-1 $140 $141 $55 #
cone-surface $-1 31.332346567080059 -17.482622682461852 1.0332349607213072 0 0.51503808176128008 -0.85716729658548041 0.75 0 0 1 I I -0.70710678118654746 0.70710678118654768 0.75 forward I I I I #
loop $-1 $-1 $142 $37 #
coedge $-1 $90 $90 $143 $144 reversed $56 $-1 #
face $-1 $145 $146 $30 $-1 $147 forward single #
loop $-1 $-1 $148 $58 #
plane-surface $-1 -31.711683934118099 45.989310275001586 109.29066393120905 -1 0 0 0 0.5877852598018023 0.80901698891910034 forward_v I I I I #
coedge $-1 $149 $150 $151 $152 reversed $59 $-1 #
face $-1 $-1 $153 $31 $-1 $154 forward single #
loop $-1 $155 $156 $61 #
cone-surface $-1 -38.673037460350415 15.298616884951137 -2.1178986913266931 0 -0.5877852598018023 -0.80901698891910034 0.75 0 0 1 I I -0.70710678118654757 0.70710678118654757 0.75 forward I I I I #
loop $-1 $-1 $157 $39 #
coedge $-1 $99 $99 $158 $159 reversed $62 $-1 #
face $-1 $160 $161 $24 $-1 $162 reversed single #
loop $-1 $-1 $163 $64 #
plane-surface $-1 0 -22.247375366971525 0 0 1 0 0 0 1 forward_v I I I I #
coedge $-1 $164 $165 $166 $167 forward $65 $-1 #
coedge $-1 $168 $67 $169 $170 forward $41 $-1 #
coedge $-1 $67 $168 $171 $172 forward $41 $-1 #
coedge $-1 $173 $174 $67 $107 reversed $175 $-1 #
edge $-1 $176 -22.247375366971525 $177 22.247375366971525 $106 $178 forward 7 unknown #
face $-1 $179 $180 $25 $-1 $181 reversed single #
loop $-1 $-1 $182 $68 #
plane-surface $-1 0 22.247375366971525 0 0 -1 0 0 0 -1 forward_v I I I I #
coedge $-1 $183 $184 $185 $186 reversed $69 $-1 #
coedge $-1 $187 $71 $188 $189 reversed $44 $-1 #
coedge $-1 $71 $187 $190 $191 reversed $44 $-1 #
coedge $-1 $184 $183 $71 $115 reversed $69 $-1 #
edge $-1 $192 -22.247375366971525 $193 22.247375366971525 $114 $194 forward 7 unknown #
face $-1 $195 $196 $26 $-1 $197 reversed single #
loop $-1 $-1 $198 $72 #
plane-surface $-1 9.8422969186584162 -74.592735680844783 88.549540610573388 1 0 0 0 0.51503808176128008 -0.85716729658548041 forward_v I I I I #
coedge $-1 $199 $200 $201 $202 reversed $73 $-1 #
coedge $-1 $121 $75 $203 $204 reversed $47 $-1 #
coedge $-1 $75 $120 $199 $205 reversed $47 $-1 #
coedge $-1 $201 $206 $75 $123 forward $207 $-1 #
edge $-1 $208 15.048992473450866 $209 21.698366599739163 $122 $210 forward 7 unknown #
loop $-1 $-1 $129 $76 #
plane-surface $-1 23.273577948921947 -22.247375366971518 1.4322330212051213 0 -0.51503808176128008 0.85716729658548041 1 0 0 forward_v I I I I #
loop $-1 $-1 $211 $49 #
coedge $-1 $127 $127 $128 $212 reversed $77 $-1 #
coedge $-1 $128 $128 $127 $212 forward $79 $-1 #
coedge $-1 $129 $129 $80 $130 forward $124 $-1 #
edge $-1 $213 1.6293856899531527e-015 $213 6.2831853071796022 $129 $214 forward 7 unknown #
loop $-1 $-1 $136 $81 #
plane-surface $-1 23.273577948921947 -22.247375366971518 1.4322330212051213 0 -0.51503808176128008 0.85716729658548041 1 0 0 forward_v I I I I #
loop $-1 $-1 $215 $52 #
coedge $-1 $134 $134 $135 $216 reversed $82 $-1 #
coedge $-1 $135 $135 $134 $216 forward $84 $-1 #
coedge $-1 $136 $136 $85 $137 forward $131 $-1 #
edge $-1 $217 1.6293856899531527e-015 $217 6.2831853071796022 $136 $218 forward 7 unknown #
loop $-1 $-1 $143 $86 #
plane-surface $-1 23.273577948921947 -22.247375366971518 1.4322330212051213 0 -0.51503808176128008 0.85716729658548041 1 0 0 forward_v I I I I #
loop $-1 $-1 $219 $55 #
coedge $-1 $141 $141 $142 $220 reversed $87 $-1 #
coedge $-1 $142 $142 $141 $220 forward $89 $-1 #
coedge $-1 $143 $143 $90 $144 forward $138 $-1 #
edge $-1 $221 1.6293856899531527e-015 $221 6.2831853071796022 $143 $222 forward 7 unknown #
face $-1 $223 $224 $30 $-1 $225 reversed single #
loop $-1 $-1 $151 $91 #
plane-surface $-1 0 0 5.4275801472081779 0 0 1 1 0 0 forward_v I I I I #
coedge $-1 $226 $227 $228 $229 reversed $92 $-1 #
coedge $-1 $230 $94 $231 $232 reversed $59 $-1 #
coedge $-1 $94 $230 $226 $233 forward $59 $-1 #
coedge $-1 $228 $234 $94 $152 forward $146 $-1 #
edge $-1 $235 -26.297872256407523 $236 -12.375165203942892 $151 $237 forward 7 unknown #
loop $-1 $-1 $158 $95 #
plane-surface $-1 -38.673037460350415 -13.749633894509017 27.067062833215815 0 0.5877852598018023 0.80901698891910034 1 0 0 forward_v I I I I #
loop $-1 $-1 $238 $61 #
coedge $-1 $156 $156 $157 $239 reversed $96 $-1 #
coedge $-1 $157 $157 $156 $239 forward $98 $-1 #
coedge $-1 $158 $158 $99 $159 forward $153 $-1 #
edge $-1 $240 -1.0460401766536003e-015 $240 6.2831853071795996 $158 $241 forward 7 unknown #
face $-1 $242 $243 $24 $-1 $244 reversed single #
loop $-1 $-1 $245 $100 #
plane-surface $-1 -50.816980498672443 0 0 1 0 0 0 0 -1 forward_v I I I I #
coedge $-1 $246 $171 $247 $248 forward $101 $-1 #
coedge $-1 $249 $103 $246 $250 forward $65 $-1 #
coedge $-1 $103 $249 $251 $252 forward $65 $-1 #
coedge $-1 $174 $173 $103 $167 reversed $175 $-1 #
edge $-1 $253 -22.247375366971525 $254 22.247375366971525 $166 $255 forward 7 unknown #
coedge $-1 $105 $104 $256 $257 forward $41 $-1 #
coedge $-1 $258 $259 $104 $170 reversed $243 $-1 #
edge $-1 $177 -50.816980498672443 $260 50.816980498672443 $169 $261 forward 7 unknown #
coedge $-1 $163 $262 $105 $172 reversed $101 $-1 #
edge $-1 $263 -50.816980498672443 $176 50.816980498672443 $171 $264 forward 7 unknown #
coedge $-1 $166 $106 $262 $265 forward $175 $-1 #
coedge $-1 $106 $166 $258 $266 reversed $175 $-1 #
loop $-1 $-1 $173 $242 #
vertex $-1 $107 $267 #
vertex $-1 $107 $268 #
straight-curve $-1 50.816980498672443 0 5.4275801472081779 0 1 0 I I #
face $-1 $269 $270 $25 $-1 $271 forward single #
loop $-1 $-1 $272 $108 #
plane-surface $-1 -50.816980498672443 0 0 1 0 0 0 0 -1 forward_v I I I I #
coedge $-1 $190 $273 $184 $274 forward $109 $-1 #
coedge $-1 $114 $111 $275 $276 reversed $69 $-1 #
coedge $-1 $111 $114 $182 $274 reversed $69 $-1 #
coedge $-1 $277 $278 $111 $186 forward $270 $-1 #
edge $-1 $279 -22.247375366971525 $280 22.247375366971525 $185 $281 forward 7 unknown #
coedge $-1 $113 $112 $272 $282 reversed $44 $-1 #
coedge $-1 $275 $283 $112 $189 forward $284 $-1 #
edge $-1 $285 -26.704137627358648 $193 -21.521548115268942 $188 $286 forward 7 unknown #
coedge $-1 $287 $182 $113 $191 forward $109 $-1 #
edge $-1 $192 21.521548115268942 $288 26.704137627358648 $190 $289 forward 7 unknown #
vertex $-1 $191 $290 #
vertex $-1 $189 $291 #
straight-curve $-1 -45.634390986582737 0 2.4275801472081779 0 -1 0 I I #
face $-1 $-1 $207 $26 $-1 $292 forward single #
loop $-1 $-1 $293 $116 #
plane-surface $-1 0 -22.247375366971525 0 0 1 0 0 0 1 forward_v I I I I #
coedge $-1 $294 $295 $296 $297 reversed $117 $-1 #
coedge $-1 $298 $119 $121 $205 forward $73 $-1 #
coedge $-1 $119 $298 $294 $299 forward $73 $-1 #
coedge $-1 $296 $122 $119 $202 forward $207 $-1 #
edge $-1 $209 -25.0680700047245 $300 1.7944920558025572 $201 $301 forward 7 unknown #
coedge $-1 $302 $303 $120 $204 forward $196 $-1 #
edge $-1 $304 -42.84253728408158 $208 -38.847190158078519 $203 $305 forward 7 unknown #
edge $-1 $209 -7.7573819635630326 $304 8.2634070795339233e-015 $121 $306 forward 7 unknown #
coedge $-1 $122 $296 $302 $307 forward $207 $-1 #
loop $-1 $-1 $296 $195 #
vertex $-1 $204 $308 #
vertex $-1 $123 $309 #
straight-curve $-1 36.704858979185474 -37.296367840422391 5.4275801472081753 0 1 0 I I #
coedge $-1 $211 $211 $-1 $310 reversed $126 $-1 #
edge $-1 $311 0 $311 6.2831853071796004 $127 $312 forward 7 unknown #
vertex $-1 $130 $313 #
ellipse-curve $-1 15.214809330763835 -18.922688303827382 3.4299065842066438 0 -0.51503808176128008 0.85716729658548041 1.5 0 0 1 I I #
coedge $-1 $215 $215 $-1 $314 reversed $133 $-1 #
edge $-1 $315 0 $315 6.2831853071796004 $134 $316 forward 7 unknown #
vertex $-1 $137 $317 #
ellipse-curve $-1 23.273577948921947 -18.922688303827382 3.4299065842066438 0 -0.51503808176128008 0.85716729658548041 1.5 0 0 1 I I #
coedge $-1 $219 $219 $-1 $318 reversed $140 $-1 #
edge $-1 $319 0 $319 6.2831853071796004 $141 $320 forward 7 unknown #
vertex $-1 $144 $321 #
ellipse-curve $-1 31.332346567080059 -18.922688303827382 3.4299065842066438 0 -0.51503808176128008 0.85716729658548041 1.5 0 0 1 I I #
face $-1 $-1 $322 $30 $-1 $323 forward single #
loop $-1 $-1 $324 $145 #
plane-surface $-1 0 22.247375366971525 0 0 -1 0 0 0 -1 forward_v I I I I #
coedge $-1 $227 $148 $150 $233 reversed $92 $-1 #
coedge $-1 $148 $226 $324 $325 reversed $92 $-1 #
coedge $-1 $326 $151 $148 $229 forward $146 $-1 #
edge $-1 $236 -6.9600968760104216 $327 -0.74727977052926775 $228 $328 forward 7 unknown #
coedge $-1 $150 $149 $329 $330 reversed $59 $-1 #
coedge $-1 $331 $332 $149 $232 forward $322 $-1 #
edge $-1 $333 -32.132383606768059 $235 -24.452919280831118 $231 $334 forward 7 unknown #
edge $-1 $335 -44.494750733943057 $236 -36.815286408006116 $226 $336 forward 7 unknown #
coedge $-1 $151 $326 $331 $337 forward $146 $-1 #
vertex $-1 $232 $338 #
vertex $-1 $152 $339 #
straight-curve $-1 -19.336518730175207 16.034558261490371 5.4275801472081788 1 0 0 I I #
coedge $-1 $238 $238 $-1 $340 reversed $155 $-1 #
edge $-1 $341 0 $341 6.2831853071796004 $156 $342 forward 7 unknown #
vertex $-1 $159 $343 #
ellipse-curve $-1 -38.673037460350415 19.14096681423095 3.1706421802284175 0 0.5877852598018023 0.80901698891910034 1.5 0 0 1 I I #
face $-1 $-1 $175 $24 $-1 $344 reversed single #
loop $-1 $-1 $258 $160 #
plane-surface $-1 0 22.247375366971525 0 0 -1 0 0 0 -1 forward_v I I I I #
coedge $-1 $345 $256 $259 $346 forward $161 $-1 #
coedge $-1 $262 $163 $164 $250 reversed $101 $-1 #
coedge $-1 $256 $345 $163 $248 reversed $161 $-1 #
edge $-1 $263 -5.4275801472081779 $347 5.4275801472081779 $247 $348 forward 7 unknown #
coedge $-1 $165 $164 $345 $349 forward $65 $-1 #
edge $-1 $254 -50.816980498672443 $347 50.816980498672443 $246 $350 forward 7 unknown #
coedge $-1 $259 $258 $165 $252 reversed $243 $-1 #
edge $-1 $351 -50.816980498672443 $253 50.816980498672443 $251 $352 forward 7 unknown #
vertex $-1 $167 $353 #
vertex $-1 $265 $354 #
straight-curve $-1 50.816980498672443 0 -5.4275801472081779 0 -1 0 I I #
coedge $-1 $245 $247 $168 $257 reversed $161 $-1 #
edge $-1 $260 -22.247375366971525 $263 22.247375366971525 $256 $355 forward 7 unknown #
coedge $-1 $251 $169 $174 $266 forward $243 $-1 #
coedge $-1 $169 $251 $245 $346 reversed $243 $-1 #
vertex $-1 $170 $356 #
straight-curve $-1 0 22.247375366971525 5.4275801472081779 -1 0 0 I I #
coedge $-1 $171 $246 $173 $265 reversed $101 $-1 #
vertex $-1 $257 $357 #
straight-curve $-1 0 -22.247375366971525 5.4275801472081779 1 0 0 I I #
edge $-1 $176 -5.4275801472081779 $254 5.4275801472081779 $173 $358 forward 7 unknown #
edge $-1 $177 -5.4275801472081779 $253 5.4275801472081779 $174 $359 forward 7 unknown #
point $-1 50.816980498672443 -22.247375366971525 5.4275801472081779 #
point $-1 50.816980498672443 22.247375366971525 5.4275801472081779 #
face $-1 $-1 $284 $25 $-1 $360 reversed single #
loop $-1 $-1 $185 $179 #
plane-surface $-1 0 0 5.4275801472081779 0 0 1 1 0 0 forward_v I I I I #
coedge $-1 $361 $362 $187 $282 forward $180 $-1 #
coedge $-1 $182 $287 $277 $363 reversed $109 $-1 #
edge $-1 $280 -3.463790073604089 $192 -0.46379007360408897 $182 $364 forward 7 unknown #
coedge $-1 $365 $188 $183 $276 forward $284 $-1 #
edge $-1 $193 0.46379007360408897 $279 3.463790073604089 $275 $366 forward 7 unknown #
coedge $-1 $367 $185 $273 $363 forward $270 $-1 #
coedge $-1 $185 $367 $365 $368 forward $270 $-1 #
vertex $-1 $276 $369 #
vertex $-1 $363 $370 #
straight-curve $-1 -45.634390986582737 0 5.4275801472081779 0 1 0 I I #
edge $-1 $288 -22.247375366971525 $285 22.247375366971525 $272 $371 forward 7 unknown #
coedge $-1 $188 $365 $361 $372 forward $284 $-1 #
loop $-1 $-1 $275 $269 #
vertex $-1 $282 $373 #
straight-curve $-1 -24.112842871313795 -22.247375366971525 2.4275801472081779 1 0 0 I I #
coedge $-1 $273 $190 $362 $374 reversed $109 $-1 #
vertex $-1 $282 $375 #
straight-curve $-1 -24.112842871313795 22.247375366971525 2.4275801472081779 -1 0 0 I I #
point $-1 -45.634390986582737 22.247375366971525 2.4275801472081779 #
point $-1 -45.634390986582737 -22.247375366971525 2.4275801472081779 #
plane-surface $-1 0 0 5.4275801472081779 0 0 1 1 0 0 forward_v I I I I #
coedge $-1 $303 $302 $295 $376 forward $196 $-1 #
coedge $-1 $295 $198 $200 $299 reversed $117 $-1 #
coedge $-1 $198 $294 $293 $376 reversed $117 $-1 #
coedge $-1 $206 $201 $198 $297 forward $207 $-1 #
edge $-1 $300 -21.698366599739163 $377 -15.048992473450866 $296 $378 forward 7 unknown #
coedge $-1 $200 $199 $303 $379 reversed $73 $-1 #
edge $-1 $380 -8.2634070795339233e-015 $300 7.7573819635630326 $294 $381 forward 7 unknown #
vertex $-1 $202 $382 #
straight-curve $-1 11.636788974460973 -15.59800124068323 5.4275801472081779 -1 0 0 I I #
coedge $-1 $293 $203 $206 $307 reversed $196 $-1 #
coedge $-1 $203 $293 $298 $379 forward $196 $-1 #
vertex $-1 $204 $383 #
straight-curve $-1 36.704858979185474 -22.247375366971525 44.274770305286694 0 0 1 I I #
straight-curve $-1 36.704858979185474 -22.247375366971518 1.4322330212051213 0 -0.85716729658548041 -0.51503808176128008 I I #
edge $-1 $377 9.8422969186584162 $208 36.704858979185474 $302 $384 forward 7 unknown #
point $-1 36.704858979185474 -22.247375366971525 5.4275801472081779 #
point $-1 36.704858979185474 -15.598001240683228 5.4275801472081779 #
edge $-1 $385 1 $385 0 $211 $-1 forward 7 unknown #
vertex $-1 $212 $386 #
ellipse-curve $-1 15.214809330763835 -17.868901243782812 1.6761104331604177 0 -0.51503808176128008 0.85716729658548041 1.5 0 0 1 I I #
point $-1 16.714809330763835 -18.922688303827385 3.4299065842066545 #
edge $-1 $387 1 $387 0 $215 $-1 forward 7 unknown #
vertex $-1 $216 $388 #
ellipse-curve $-1 23.273577948921947 -17.868901243782812 1.6761104331604177 0 -0.51503808176128008 0.85716729658548041 1.5 0 0 1 I I #
point $-1 24.773577948921947 -18.922688303827385 3.4299065842066545 #
edge $-1 $389 1 $389 0 $219 $-1 forward 7 unknown #
vertex $-1 $220 $390 #
ellipse-curve $-1 31.332346567080059 -17.868901243782812 1.6761104331604177 0 -0.51503808176128008 0.85716729658548041 1.5 0 0 1 I I #
point $-1 32.832346567080059 -18.922688303827385 3.4299065842066545 #
loop $-1 $-1 $231 $223 #
plane-surface $-1 -45.634390986582737 0 3.9275801472081779 -1 0 0 0 0 1 forward_v I I I I #
coedge $-1 $329 $391 $227 $325 forward $224 $-1 #
edge $-1 $327 49.217751818396351 $335 53.731627752355863 $324 $392 forward 7 unknown #
coedge $-1 $234 $228 $391 $393 forward $146 $-1 #
vertex $-1 $393 $394 #
straight-curve $-1 -31.711683934118099 22.994655137500793 5.4275801472081753 0 1 0 I I #
coedge $-1 $395 $324 $230 $330 forward $224 $-1 #
edge $-1 $335 12.375165203942892 $333 26.297872256407523 $329 $396 forward 7 unknown #
coedge $-1 $332 $231 $234 $337 reversed $322 $-1 #
coedge $-1 $231 $331 $395 $397 reversed $322 $-1 #
vertex $-1 $397 $398 #
straight-curve $-1 -45.634390986582737 -3.7482688653694329 19.800645659603997 0 -0.80901698891910034 0.5877852598018023 I I #
vertex $-1 $330 $399 #
straight-curve $-1 -31.711683934118099 -13.749633894509017 27.067062833215815 0 -0.80901698891910034 0.5877852598018023 I I #
edge $-1 $400 -22.247375366971525 $235 -16.034558261490371 $234 $401 forward 7 unknown #
point $-1 -45.63439098658273 16.034558261490371 5.4275801472081788 #
point $-1 -31.711683934118099 16.034558261490371 5.4275801472081788 #
edge $-1 $402 1 $402 0 $238 $-1 forward 7 unknown #
vertex $-1 $239 $403 #
ellipse-curve $-1 -38.673037460350415 15.739455829802489 -1.5111359496373677 0 0.5877852598018023 0.80901698891910034 1.5 0 0 1 I I #
point $-1 -37.173037460350415 19.140966814230946 3.1706421802284153 #
plane-surface $-1 50.816980498672443 0 0 -1 0 0 0 0 1 forward_v I I I I #
coedge $-1 $247 $245 $249 $349 reversed $161 $-1 #
edge $-1 $260 -5.4275801472081779 $351 5.4275801472081779 $259 $404 forward 7 unknown #
vertex $-1 $349 $405 #
straight-curve $-1 -50.816980498672443 -22.247375366971525 0 0 0 -1 I I #
edge $-1 $347 -22.247375366971525 $351 22.247375366971525 $345 $406 forward 7 unknown #
straight-curve $-1 0 -22.247375366971525 -5.4275801472081779 -1 0 0 I I #
vertex $-1 $252 $407 #
straight-curve $-1 0 22.247375366971525 -5.4275801472081779 1 0 0 I I #
point $-1 50.816980498672443 22.247375366971525 -5.4275801472081779 #
point $-1 50.816980498672443 -22.247375366971525 -5.4275801472081779 #
straight-curve $-1 -50.816980498672443 0 5.4275801472081779 0 -1 0 I I #
point $-1 -50.816980498672443 22.247375366971525 5.4275801472081779 #
point $-1 -50.816980498672443 -22.247375366971525 5.4275801472081779 #
straight-curve $-1 50.816980498672443 -22.247375366971525 0 0 0 -1 I I #
straight-curve $-1 50.816980498672443 22.247375366971525 0 0 0 -1 I I #
plane-surface $-1 0 -22.247375366971525 0 0 1 0 0 0 1 forward_v I I I I #
coedge $-1 $408 $272 $283 $372 reversed $180 $-1 #
coedge $-1 $272 $408 $287 $374 forward $180 $-1 #
edge $-1 $280 45.634390986582737 $409 50.816980498672443 $273 $410 forward 7 unknown #
straight-curve $-1 -45.634390986582737 22.247375366971525 1.963790073604089 0 0 -1 I I #
coedge $-1 $283 $275 $278 $368 reversed $284 $-1 #
straight-curve $-1 -45.634390986582737 -22.247375366971525 1.963790073604089 0 0 1 I I #
coedge $-1 $278 $277 $408 $411 forward $270 $-1 #
edge $-1 $412 -50.816980498672443 $279 -45.634390986582737 $365 $413 forward 7 unknown #
point $-1 -45.634390986582737 -22.247375366971525 5.4275801472081779 #
point $-1 -45.634390986582737 22.247375366971525 5.4275801472081779 #
straight-curve $-1 -50.816980498672443 0 2.4275801472081779 0 -1 0 I I #
edge $-1 $412 -5.4275801472081779 $285 -2.4275801472081779 $361 $414 forward 7 unknown #
point $-1 -50.816980498672443 -22.247375366971525 2.4275801472081779 #
edge $-1 $409 -5.4275801472081779 $288 -2.4275801472081779 $287 $415 forward 7 unknown #
point $-1 -50.816980498672443 22.247375366971525 2.4275801472081779 #
edge $-1 $377 38.847190158078519 $380 42.84253728408158 $293 $416 forward 7 unknown #
vertex $-1 $307 $417 #
straight-curve $-1 9.8422969186584162 -37.296367840422391 5.4275801472081753 0 -1 0 I I #
edge $-1 $380 -1.7944920558025572 $304 25.0680700047245 $303 $418 forward 7 unknown #
vertex $-1 $379 $419 #
straight-curve $-1 9.8422969186584162 -22.247375366971518 1.4322330212051213 0 0.85716729658548041 0.51503808176128008 I I #
point $-1 9.8422969186584162 -15.598001240683228 5.4275801472081779 #
point $-1 36.704858979185474 -22.247375366971525 1.4322330212051171 #
straight-curve $-1 0 -22.247375366971525 5.4275801472081779 1 0 0 I I #
vertex $-1 $310 $420 #
point $-1 16.714809330763835 -17.868901243782812 1.6761104331604177 #
vertex $-1 $314 $421 #
point $-1 24.773577948921947 -17.868901243782812 1.6761104331604177 #
vertex $-1 $318 $422 #
point $-1 32.832346567080059 -17.868901243782812 1.6761104331604177 #
coedge $-1 $324 $395 $326 $393 reversed $224 $-1 #
straight-curve $-1 -31.711683934118099 22.247375366971525 54.645331965604527 0 0 -1 I I #
edge $-1 $327 31.711683934118099 $400 45.634390986582737 $391 $423 forward 7 unknown #
point $-1 -31.711683934118099 22.247375366971525 5.4275801472081779 #
coedge $-1 $391 $329 $332 $397 forward $224 $-1 #
straight-curve $-1 -19.336518730175207 22.247375366971525 0.9137042132486588 -1 0 0 I I #
edge $-1 $333 -53.731627752355863 $400 -49.217751818396351 $395 $424 forward 7 unknown #
point $-1 -45.63439098658273 22.247375366971525 0.91370421324866058 #
point $-1 -31.711683934118099 22.247375366971525 0.91370421324866058 #
vertex $-1 $337 $425 #
straight-curve $-1 -45.634390986582737 0 5.4275801472081779 0 -1 0 I I #
vertex $-1 $340 $426 #
point $-1 -37.173037460350415 15.739455829802489 -1.5111359496373677 #
straight-curve $-1 -50.816980498672443 22.247375366971525 0 0 0 -1 I I #
point $-1 -50.816980498672443 -22.247375366971525 -5.4275801472081779 #
straight-curve $-1 -50.816980498672443 0 -5.4275801472081779 0 1 0 I I #
point $-1 -50.816980498672443 22.247375366971525 -5.4275801472081779 #
coedge $-1 $362 $361 $367 $411 reversed $180 $-1 #
vertex $-1 $363 $427 #
straight-curve $-1 0 22.247375366971525 5.4275801472081779 -1 0 0 I I #
edge $-1 $409 -22.247375366971525 $412 22.247375366971525 $408 $428 forward 7 unknown #
vertex $-1 $411 $429 #
straight-curve $-1 0 -22.247375366971525 5.4275801472081779 1 0 0 I I #
straight-curve $-1 -50.816980498672443 -22.247375366971525 0 0 0 -1 I I #
straight-curve $-1 -50.816980498672443 22.247375366971525 0 0 0 -1 I I #
straight-curve $-1 9.8422969186584162 -22.247375366971525 44.274770305286694 0 0 -1 I I #
point $-1 9.8422969186584162 -22.247375366971525 5.4275801472081779 #
straight-curve $-1 11.636788974460973 -22.247375366971525 1.4322330212051171 1 0 0 I I #
point $-1 9.8422969186584162 -22.247375366971525 1.4322330212051171 #
point $-1 15.214809330763835 -17.096344121140891 0.39035948828219669 #
point $-1 23.273577948921947 -17.096344121140891 0.39035948828219669 #
point $-1 31.332346567080059 -17.096344121140891 0.39035948828219669 #
straight-curve $-1 0 22.247375366971525 5.4275801472081779 -1 0 0 I I #
straight-curve $-1 -45.63439098658273 22.247375366971525 54.645331965604527 0 0 1 I I #
point $-1 -45.634390986582737 22.247375366971525 5.4275801472081779 #
point $-1 -38.673037460350415 14.857777940099785 -2.7246614330160184 #
point $-1 -50.816980498672443 22.247375366971525 5.4275801472081779 #
straight-curve $-1 -50.816980498672443 0 5.4275801472081779 0 -1 0 I I #
point $-1 -50.816980498672443 -22.247375366971525 5.4275801472081779 #
End-of-ACIS-data 