500 0 16 0           
7 Unknown 11 ACIS 5.0 NT 24 Fri Mar 26 17:28:03 1999 
-1 9.9999999999999995e-007 1e-010 
body $-1 $16 $-1 $17 #
body $-1 $18 $-1 $19 #
body $-1 $20 $-1 $21 #
body $-1 $22 $-1 $23 #
body $-1 $24 $-1 $25 #
body $-1 $26 $-1 $27 #
body $-1 $28 $-1 $29 #
body $-1 $30 $-1 $31 #
body $-1 $32 $-1 $33 #
body $-1 $34 $-1 $35 #
body $-1 $36 $-1 $37 #
body $-1 $38 $-1 $39 #
body $-1 $40 $-1 $41 #
body $-1 $42 $-1 $43 #
body $-1 $44 $-1 $45 #
body $-1 $46 $-1 $47 #
lump $-1 $-1 $48 $0 #
transform $-1 1 0 0 0 1 0 0 0 1 76.290169988097773 48.622032408503706 20.47728461666037 1 rotate no_reflect no_shear #
lump $-1 $-1 $49 $1 #
transform $-1 1 0 0 0 1 0 0 0 1 76.290169988097773 48.622032408503706 20.47728461666037 1 rotate no_reflect no_shear #
lump $-1 $-1 $50 $2 #
transform $-1 1 0 0 0 1 0 0 0 1 76.290169988097773 48.622032408503706 20.47728461666037 1 rotate no_reflect no_shear #
lump $-1 $-1 $51 $3 #
transform $-1 1 0 0 0 1 0 0 0 1 76.290169988097773 48.622032408503706 20.47728461666037 1 rotate no_reflect no_shear #
lump $-1 $-1 $52 $4 #
transform $-1 1 0 0 0 1 0 0 0 1 76.290169988097773 48.622032408503706 20.47728461666037 1 rotate no_reflect no_shear #
lump $-1 $-1 $53 $5 #
transform $-1 1 0 0 0 1 0 0 0 1 76.290169988097773 48.622032408503706 20.47728461666037 1 rotate no_reflect no_shear #
lump $-1 $-1 $54 $6 #
transform $-1 1 0 0 0 1 0 0 0 1 76.290169988097773 48.622032408503706 20.47728461666037 1 rotate no_reflect no_shear #
lump $-1 $-1 $55 $7 #
transform $-1 1 0 0 0 1 0 0 0 1 76.290169988097773 48.622032408503706 20.47728461666037 1 rotate no_reflect no_shear #
lump $-1 $-1 $56 $8 #
transform $-1 1 0 0 0 1 0 0 0 1 76.290169988097773 48.622032408503706 20.47728461666037 1 rotate no_reflect no_shear #
lump $-1 $-1 $57 $9 #
transform $-1 1 0 0 0 1 0 0 0 1 76.290169988097773 48.622032408503706 20.47728461666037 1 rotate no_reflect no_shear #
lump $-1 $-1 $58 $10 #
transform $-1 1 0 0 0 1 0 0 0 1 76.290169988097773 48.622032408503706 20.47728461666037 1 rotate no_reflect no_shear #
lump $-1 $-1 $59 $11 #
transform $-1 1 0 0 0 1 0 0 0 1 76.290169988097773 48.622032408503706 20.47728461666037 1 rotate no_reflect no_shear #
lump $-1 $-1 $60 $12 #
transform $-1 1 0 0 0 1 0 0 0 1 76.290169988097773 48.622032408503706 20.47728461666037 1 rotate no_reflect no_shear #
lump $-1 $-1 $61 $13 #
transform $-1 1 0 0 0 1 0 0 0 1 76.290169988097773 48.622032408503706 20.47728461666037 1 rotate no_reflect no_shear #
lump $-1 $-1 $62 $14 #
transform $-1 1 0 0 0 1 0 0 0 1 76.290169988097773 48.622032408503706 20.47728461666037 1 rotate no_reflect no_shear #
lump $-1 $-1 $63 $15 #
transform $-1 1 0 0 0 1 0 0 0 1 76.290169988097773 48.622032408503706 20.47728461666037 1 rotate no_reflect no_shear #
shell $-1 $-1 $-1 $64 $-1 $16 #
shell $-1 $-1 $-1 $65 $-1 $18 #
shell $-1 $-1 $-1 $66 $-1 $20 #
shell $-1 $-1 $-1 $67 $-1 $22 #
shell $-1 $-1 $-1 $68 $-1 $24 #
shell $-1 $-1 $-1 $69 $-1 $26 #
shell $-1 $-1 $-1 $70 $-1 $28 #
shell $-1 $-1 $-1 $71 $-1 $30 #
shell $-1 $-1 $-1 $72 $-1 $32 #
shell $-1 $-1 $-1 $73 $-1 $34 #
shell $-1 $-1 $-1 $74 $-1 $36 #
shell $-1 $-1 $-1 $75 $-1 $38 #
shell $-1 $-1 $-1 $76 $-1 $40 #
shell $-1 $-1 $-1 $77 $-1 $42 #
shell $-1 $-1 $-1 $78 $-1 $44 #
shell $-1 $-1 $-1 $79 $-1 $46 #
face $-1 $80 $81 $48 $-1 $82 forward single #
face $-1 $83 $84 $49 $-1 $85 reversed single #
face $-1 $86 $87 $50 $-1 $88 reversed single #
face $-1 $89 $90 $51 $-1 $91 forward single #
face $-1 $92 $93 $52 $-1 $94 reversed single #
face $-1 $95 $96 $53 $-1 $97 forward single #
face $-1 $98 $99 $54 $-1 $100 forward single #
face $-1 $101 $102 $55 $-1 $103 reversed single #
face $-1 $104 $105 $56 $-1 $106 forward single #
face $-1 $107 $108 $57 $-1 $109 forward single #
face $-1 $110 $111 $58 $-1 $112 reversed single #
face $-1 $113 $114 $59 $-1 $115 forward single #
face $-1 $116 $117 $60 $-1 $118 forward single #
face $-1 $119 $120 $61 $-1 $121 reversed single #
face $-1 $122 $123 $62 $-1 $124 forward single #
face $-1 $125 $126 $63 $-1 $127 forward single #
face $-1 $128 $129 $48 $-1 $130 reversed single #
loop $-1 $-1 $131 $64 #
plane-surface $-1 0 0 20.47728461666037 0 0 1 1 0 0 forward_v I I I I #
face $-1 $132 $133 $49 $-1 $134 reversed single #
loop $-1 $-1 $135 $65 #
plane-surface $-1 0 -35.950294727930881 14.001070728222263 0 0 1 1 0 0 forward_v I I I I #
face $-1 $136 $137 $50 $-1 $138 reversed single #
loop $-1 $-1 $139 $66 #
plane-surface $-1 -198.14624888298749 22.974294839606536 97.553647632392284 0 1 0 -0.79863551827123203 0 0.60181501223851219 forward_v I I I I #
face $-1 $140 $141 $51 $-1 $142 forward single #
loop $-1 $143 $144 $67 #
cone-surface $-1 -69.963258400916672 32.647312615686211 12.522726444118323 0.79863551827123203 0 -0.60181501223851219 0.90272251835776829 0 1.197953277406848 1 I I 0 1 1.5 forward I I I I #
face $-1 $145 $146 $52 $-1 $147 reversed single #
loop $-1 $-1 $148 $68 #
plane-surface $-1 42.534557545858846 -7.9138723496326904 230.47810228913448 0 -1 0 -0.5877852598018023 0 -0.80901698891910034 forward_v I I I I #
face $-1 $149 $150 $53 $-1 $151 forward single #
loop $-1 $152 $153 $69 #
cone-surface $-1 73.415190746344621 -14.333058445965555 17.91719605568343 -0.5877852598018023 0 -0.80901698891910034 0.80901698891910034 0 -0.5877852598018023 1 I I 0 1 1 forward I I I I #
face $-1 $154 $155 $54 $-1 $156 forward single #
loop $-1 $157 $158 $70 #
cone-surface $-1 73.415190746344621 -10.481546788165836 17.91719605568343 -0.5877852598018023 0 -0.80901698891910034 0.80901698891910034 0 -0.5877852598018023 1 I I 0 1 1 forward I I I I #
face $-1 $159 $160 $55 $-1 $161 reversed single #
loop $-1 $-1 $162 $71 #
plane-surface $-1 42.534557545858846 10.06127501433275 230.47810228913448 0 -1 0 -0.5877852598018023 0 -0.80901698891910034 forward_v I I I I #
face $-1 $163 $164 $56 $-1 $165 forward single #
loop $-1 $166 $167 $72 #
cone-surface $-1 73.415190746344621 3.6420889179998852 17.91719605568343 -0.5877852598018023 0 -0.80901698891910034 0.80901698891910034 0 -0.5877852598018023 1 I I 0 1 1 forward I I I I #
face $-1 $168 $169 $57 $-1 $170 forward single #
loop $-1 $171 $172 $73 #
cone-surface $-1 73.415190746344621 7.4936005757996043 17.91719605568343 -0.5877852598018023 0 -0.80901698891910034 0.80901698891910034 0 -0.5877852598018023 1 I I 0 1 1 forward I I I I #
face $-1 $173 $174 $58 $-1 $175 reversed single #
loop $-1 $-1 $176 $74 #
plane-surface $-1 42.534557545858846 28.036422378298198 230.47810228913448 0 -1 0 -0.5877852598018023 0 -0.80901698891910034 forward_v I I I I #
face $-1 $177 $178 $59 $-1 $179 forward single #
loop $-1 $180 $181 $75 #
cone-surface $-1 73.415190746344621 21.617236281965326 17.91719605568343 -0.5877852598018023 0 -0.80901698891910034 0.80901698891910034 0 -0.5877852598018023 1 I I 0 1 1 forward I I I I #
face $-1 $182 $183 $60 $-1 $184 forward single #
loop $-1 $185 $186 $76 #
cone-surface $-1 73.415190746344621 25.468747939765045 17.91719605568343 -0.5877852598018023 0 -0.80901698891910034 0.80901698891910034 0 -0.5877852598018023 1 I I 0 1 1 forward I I I I #
face $-1 $187 $188 $61 $-1 $189 reversed single #
loop $-1 $-1 $190 $77 #
plane-surface $-1 42.534557545858846 46.011569742263646 230.47810228913448 0 -1 0 -0.5877852598018023 0 -0.80901698891910034 forward_v I I I I #
face $-1 $191 $192 $62 $-1 $193 forward single #
loop $-1 $194 $195 $78 #
cone-surface $-1 73.415190746344621 39.592383645930774 17.91719605568343 -0.5877852598018023 0 -0.80901698891910034 0.80901698891910034 0 -0.5877852598018023 1 I I 0 1 1 forward I I I I #
face $-1 $196 $197 $63 $-1 $198 forward single #
loop $-1 $199 $200 $79 #
cone-surface $-1 73.415190746344621 43.443895303730478 17.91719605568343 -0.5877852598018023 0 -0.80901698891910034 0.80901698891910034 0 -0.5877852598018023 1 I I 0 1 1 forward I I I I #
face $-1 $201 $202 $48 $-1 $203 reversed single #
loop $-1 $-1 $204 $80 #
plane-surface $-1 0 0 -20.47728461666037 0 0 1 1 0 0 forward_v I I I I #
coedge $-1 $205 $206 $207 $208 forward $81 $-1 #
face $-1 $209 $210 $49 $-1 $211 reversed single #
loop $-1 $-1 $212 $83 #
plane-surface $-1 0 -23.278557047358053 17.239177672441315 0 -1 0 0 0 -1 forward_v I I I I #
coedge $-1 $213 $214 $215 $216 reversed $84 $-1 #
face $-1 $217 $218 $50 $-1 $219 reversed single #
loop $-1 $-1 $220 $86 #
plane-surface $-1 -76.290169988097787 32.647312615686211 5.7285084622618143 -0.79863551827123203 0 0.60181501223851219 0.60181501223851219 0 0.79863551827123203 forward_v I I I I #
coedge $-1 $221 $222 $223 $224 reversed $87 $-1 #
face $-1 $-1 $225 $51 $-1 $226 forward single #
loop $-1 $227 $228 $89 #
cone-surface $-1 -68.594370019639598 32.647312615686211 11.49119508959668 0.79863551827123203 0 -0.60181501223851219 0.45136125917888414 0 0.59897663870342399 1 I I -0.70710678118654757 0.70710678118654757 0.75 forward I I I I #
loop $-1 $-1 $229 $67 #
coedge $-1 $144 $144 $230 $231 reversed $90 $-1 #
face $-1 $232 $233 $52 $-1 $234 reversed single #
loop $-1 $-1 $235 $92 #
plane-surface $-1 -47.149917227696577 -12.407302617065696 107.03801507334013 0.5877852598018023 0 0.80901698891910034 0.80901698891910034 0 -0.5877852598018023 forward_v I I I I #
coedge $-1 $236 $237 $238 $239 reversed $93 $-1 #
face $-1 $-1 $240 $53 $-1 $241 forward single #
loop $-1 $242 $243 $95 #
cone-surface $-1 72.396051433690133 -14.333058445965555 16.514471158684763 -0.5877852598018023 0 -0.80901698891910034 0.40450849445955017 0 -0.29389262990090115 1 I I -0.70710678118654746 0.70710678118654746 0.5 forward I I I I #
loop $-1 $-1 $244 $69 #
coedge $-1 $153 $153 $245 $246 reversed $96 $-1 #
face $-1 $-1 $247 $54 $-1 $248 forward single #
loop $-1 $249 $250 $98 #
cone-surface $-1 72.396051433690133 -10.481546788165836 16.514471158684763 -0.5877852598018023 0 -0.80901698891910034 0.40450849445955017 0 -0.29389262990090115 1 I I -0.70710678118654746 0.70710678118654746 0.5 forward I I I I #
loop $-1 $-1 $251 $70 #
coedge $-1 $158 $158 $252 $253 reversed $99 $-1 #
face $-1 $254 $255 $55 $-1 $256 reversed single #
loop $-1 $-1 $257 $101 #
plane-surface $-1 -47.149917227696577 5.5678447468997447 107.03801507334013 0.5877852598018023 0 0.80901698891910034 0.80901698891910034 0 -0.5877852598018023 forward_v I I I I #
coedge $-1 $258 $259 $260 $261 reversed $102 $-1 #
face $-1 $-1 $262 $56 $-1 $263 forward single #
loop $-1 $264 $265 $104 #
cone-surface $-1 72.396051433690133 3.6420889179998852 16.514471158684763 -0.5877852598018023 0 -0.80901698891910034 0.40450849445955017 0 -0.29389262990090115 1 I I -0.70710678118654746 0.70710678118654746 0.5 forward I I I I #
loop $-1 $-1 $266 $72 #
coedge $-1 $167 $167 $267 $268 reversed $105 $-1 #
face $-1 $-1 $269 $57 $-1 $270 forward single #
loop $-1 $271 $272 $107 #
cone-surface $-1 72.396051433690133 7.4936005757996043 16.514471158684763 -0.5877852598018023 0 -0.80901698891910034 0.40450849445955017 0 -0.29389262990090115 1 I I -0.70710678118654746 0.70710678118654746 0.5 forward I I I I #
loop $-1 $-1 $273 $73 #
coedge $-1 $172 $172 $274 $275 reversed $108 $-1 #
face $-1 $276 $277 $58 $-1 $278 reversed single #
loop $-1 $-1 $279 $110 #
plane-surface $-1 -47.149917227696577 23.542992110865193 107.03801507334013 0.5877852598018023 0 0.80901698891910034 0.80901698891910034 0 -0.5877852598018023 forward_v I I I I #
coedge $-1 $280 $281 $282 $283 reversed $111 $-1 #
face $-1 $-1 $284 $59 $-1 $285 forward single #
loop $-1 $286 $287 $113 #
cone-surface $-1 72.396051433690133 21.617236281965326 16.514471158684763 -0.5877852598018023 0 -0.80901698891910034 0.40450849445955017 0 -0.29389262990090115 1 I I -0.70710678118654746 0.70710678118654746 0.5 forward I I I I #
loop $-1 $-1 $288 $75 #
coedge $-1 $181 $181 $289 $290 reversed $114 $-1 #
face $-1 $-1 $291 $60 $-1 $292 forward single #
loop $-1 $293 $294 $116 #
cone-surface $-1 72.396051433690133 25.468747939765045 16.514471158684763 -0.5877852598018023 0 -0.80901698891910034 0.40450849445955017 0 -0.29389262990090115 1 I I -0.70710678118654746 0.70710678118654746 0.5 forward I I I I #
loop $-1 $-1 $295 $76 #
coedge $-1 $186 $186 $296 $297 reversed $117 $-1 #
face $-1 $298 $299 $61 $-1 $300 reversed single #
loop $-1 $-1 $301 $119 #
plane-surface $-1 -47.149917227696577 41.51813947483064 107.03801507334013 0.5877852598018023 0 0.80901698891910034 0.80901698891910034 0 -0.5877852598018023 forward_v I I I I #
coedge $-1 $302 $303 $304 $305 reversed $120 $-1 #
face $-1 $-1 $306 $62 $-1 $307 forward single #
loop $-1 $308 $309 $122 #
cone-surface $-1 72.396051433690133 39.592383645930774 16.514471158684763 -0.5877852598018023 0 -0.80901698891910034 0.40450849445955017 0 -0.29389262990090115 1 I I -0.70710678118654746 0.70710678118654746 0.5 forward I I I I #
loop $-1 $-1 $310 $78 #
coedge $-1 $195 $195 $311 $312 reversed $123 $-1 #
face $-1 $-1 $313 $63 $-1 $314 forward single #
loop $-1 $315 $316 $125 #
cone-surface $-1 72.396051433690133 43.443895303730478 16.514471158684763 -0.5877852598018023 0 -0.80901698891910034 0.40450849445955017 0 -0.29389262990090115 1 I I -0.70710678118654746 0.70710678118654746 0.5 forward I I I I #
loop $-1 $-1 $317 $79 #
coedge $-1 $200 $200 $318 $319 reversed $126 $-1 #
face $-1 $320 $321 $48 $-1 $322 reversed single #
loop $-1 $-1 $323 $128 #
plane-surface $-1 0 -48.622032408503706 0 0 1 0 0 0 1 forward_v I I I I #
coedge $-1 $324 $325 $326 $327 forward $129 $-1 #
coedge $-1 $328 $131 $329 $330 forward $81 $-1 #
coedge $-1 $131 $328 $331 $332 forward $81 $-1 #
coedge $-1 $333 $334 $131 $208 reversed $335 $-1 #
edge $-1 $336 -48.622032408503706 $337 48.622032408503706 $207 $338 forward 7 unknown #
face $-1 $339 $340 $49 $-1 $341 reversed single #
loop $-1 $-1 $342 $132 #
plane-surface $-1 -76.290169988097773 0 0 1 0 0 0 0 -1 forward_v I I I I #
coedge $-1 $343 $344 $345 $346 reversed $133 $-1 #
coedge $-1 $347 $135 $348 $349 reversed $84 $-1 #
coedge $-1 $135 $347 $343 $350 forward $84 $-1 #
coedge $-1 $345 $351 $135 $216 forward $352 $-1 #
edge $-1 $353 -30.646885044538273 $354 -5.3034096833926121 $215 $355 forward 7 unknown #
face $-1 $356 $357 $50 $-1 $358 forward single #
loop $-1 $-1 $359 $136 #
plane-surface $-1 -198.14624888298749 42.320330391765886 97.553647632392284 0 -1 0 0.79863551827123203 0 -0.60181501223851219 forward_v I I I I #
coedge $-1 $360 $361 $362 $363 reversed $137 $-1 #
coedge $-1 $222 $139 $364 $365 reversed $87 $-1 #
coedge $-1 $139 $221 $360 $366 reversed $87 $-1 #
coedge $-1 $362 $367 $139 $224 forward $357 $-1 #
edge $-1 $368 22.782954453395973 $369 33.896954142610852 $223 $370 forward 7 unknown #
loop $-1 $-1 $230 $140 #
plane-surface $-1 -76.290169988097787 32.647312615686211 5.7285084622618143 -0.79863551827123203 0 0.60181501223851219 0.60181501223851219 0 0.79863551827123203 forward_v I I I I #
loop $-1 $-1 $371 $89 #
coedge $-1 $228 $228 $229 $372 reversed $141 $-1 #
coedge $-1 $229 $229 $228 $372 forward $143 $-1 #
coedge $-1 $230 $230 $144 $231 forward $225 $-1 #
edge $-1 $373 0 $373 6.2831853071796004 $230 $374 forward 7 unknown #
face $-1 $375 $376 $52 $-1 $377 reversed single #
loop $-1 $-1 $378 $145 #
plane-surface $-1 42.534557545858846 -16.900732884498701 230.47810228913448 0 1 0 0.5877852598018023 0 0.80901698891910034 forward_v I I I I #
coedge $-1 $379 $380 $381 $382 reversed $146 $-1 #
coedge $-1 $237 $148 $383 $384 reversed $93 $-1 #
coedge $-1 $148 $236 $379 $385 reversed $93 $-1 #
coedge $-1 $381 $386 $148 $239 forward $387 $-1 #
edge $-1 $388 -55.02289121516835 $389 -50.723426097169245 $238 $390 forward 7 unknown #
loop $-1 $-1 $245 $149 #
plane-surface $-1 -47.149917227696577 -12.407302617065696 107.03801507334013 0.5877852598018023 0 0.80901698891910034 0.80901698891910034 0 -0.5877852598018023 forward_v I I I I #
loop $-1 $-1 $391 $95 #
coedge $-1 $243 $243 $244 $392 reversed $150 $-1 #
coedge $-1 $244 $244 $243 $392 forward $152 $-1 #
coedge $-1 $245 $245 $153 $246 forward $240 $-1 #
edge $-1 $393 0 $393 6.2831853071796004 $245 $394 forward 7 unknown #
loop $-1 $-1 $252 $154 #
plane-surface $-1 -47.149917227696577 -12.407302617065696 107.03801507334013 0.5877852598018023 0 0.80901698891910034 0.80901698891910034 0 -0.5877852598018023 forward_v I I I I #
loop $-1 $-1 $395 $98 #
coedge $-1 $250 $250 $251 $396 reversed $155 $-1 #
coedge $-1 $251 $251 $250 $396 forward $157 $-1 #
coedge $-1 $252 $252 $158 $253 forward $247 $-1 #
edge $-1 $397 0 $397 6.2831853071796004 $252 $398 forward 7 unknown #
face $-1 $399 $400 $55 $-1 $401 reversed single #
loop $-1 $-1 $402 $159 #
plane-surface $-1 42.534557545858846 1.0744144794667392 230.47810228913448 0 1 0 0.5877852598018023 0 0.80901698891910034 forward_v I I I I #
coedge $-1 $403 $404 $405 $406 reversed $160 $-1 #
coedge $-1 $259 $162 $407 $408 reversed $102 $-1 #
coedge $-1 $162 $258 $403 $409 reversed $102 $-1 #
coedge $-1 $405 $410 $162 $261 forward $411 $-1 #
edge $-1 $412 -55.02289121516835 $413 -50.723426097169245 $260 $414 forward 7 unknown #
loop $-1 $-1 $267 $163 #
plane-surface $-1 -47.149917227696577 5.5678447468997447 107.03801507334013 0.5877852598018023 0 0.80901698891910034 0.80901698891910034 0 -0.5877852598018023 forward_v I I I I #
loop $-1 $-1 $415 $104 #
coedge $-1 $265 $265 $266 $416 reversed $164 $-1 #
coedge $-1 $266 $266 $265 $416 forward $166 $-1 #
coedge $-1 $267 $267 $167 $268 forward $262 $-1 #
edge $-1 $417 0 $417 6.2831853071796004 $267 $418 forward 7 unknown #
loop $-1 $-1 $274 $168 #
plane-surface $-1 -47.149917227696577 5.5678447468997447 107.03801507334013 0.5877852598018023 0 0.80901698891910034 0.80901698891910034 0 -0.5877852598018023 forward_v I I I I #
loop $-1 $-1 $419 $107 #
coedge $-1 $272 $272 $273 $420 reversed $169 $-1 #
coedge $-1 $273 $273 $272 $420 forward $171 $-1 #
coedge $-1 $274 $274 $172 $275 forward $269 $-1 #
edge $-1 $421 0 $421 6.2831853071796004 $274 $422 forward 7 unknown #
face $-1 $423 $424 $58 $-1 $425 reversed single #
loop $-1 $-1 $426 $173 #
plane-surface $-1 42.534557545858846 19.049561843432187 230.47810228913448 0 1 0 0.5877852598018023 0 0.80901698891910034 forward_v I I I I #
coedge $-1 $427 $428 $429 $430 reversed $174 $-1 #
coedge $-1 $281 $176 $431 $432 reversed $111 $-1 #
coedge $-1 $176 $280 $427 $433 reversed $111 $-1 #
coedge $-1 $429 $434 $176 $283 forward $435 $-1 #
edge $-1 $436 -55.02289121516835 $437 -50.723426097169245 $282 $438 forward 7 unknown #
loop $-1 $-1 $289 $177 #
plane-surface $-1 -47.149917227696577 23.542992110865193 107.03801507334013 0.5877852598018023 0 0.80901698891910034 0.80901698891910034 0 -0.5877852598018023 forward_v I I I I #
loop $-1 $-1 $439 $113 #
coedge $-1 $287 $287 $288 $440 reversed $178 $-1 #
coedge $-1 $288 $288 $287 $440 forward $180 $-1 #
coedge $-1 $289 $289 $181 $290 forward $284 $-1 #
edge $-1 $441 0 $441 6.2831853071796004 $289 $442 forward 7 unknown #
loop $-1 $-1 $296 $182 #
plane-surface $-1 -47.149917227696577 23.542992110865193 107.03801507334013 0.5877852598018023 0 0.80901698891910034 0.80901698891910034 0 -0.5877852598018023 forward_v I I I I #
loop $-1 $-1 $443 $116 #
coedge $-1 $294 $294 $295 $444 reversed $183 $-1 #
coedge $-1 $295 $295 $294 $444 forward $185 $-1 #
coedge $-1 $296 $296 $186 $297 forward $291 $-1 #
edge $-1 $445 0 $445 6.2831853071796004 $296 $446 forward 7 unknown #
face $-1 $447 $448 $61 $-1 $449 reversed single #
loop $-1 $-1 $450 $187 #
plane-surface $-1 42.534557545858846 37.024709207397635 230.47810228913448 0 1 0 0.5877852598018023 0 0.80901698891910034 forward_v I I I I #
coedge $-1 $451 $452 $453 $454 reversed $188 $-1 #
coedge $-1 $303 $190 $455 $456 reversed $120 $-1 #
coedge $-1 $190 $302 $451 $457 reversed $120 $-1 #
coedge $-1 $453 $458 $190 $305 forward $459 $-1 #
edge $-1 $460 -55.02289121516835 $461 -50.723426097169245 $304 $462 forward 7 unknown #
loop $-1 $-1 $311 $191 #
plane-surface $-1 -47.149917227696577 41.51813947483064 107.03801507334013 0.5877852598018023 0 0.80901698891910034 0.80901698891910034 0 -0.5877852598018023 forward_v I I I I #
loop $-1 $-1 $463 $122 #
coedge $-1 $309 $309 $310 $464 reversed $192 $-1 #
coedge $-1 $310 $310 $309 $464 forward $194 $-1 #
coedge $-1 $311 $311 $195 $312 forward $306 $-1 #
edge $-1 $465 0 $465 6.2831853071796004 $311 $466 forward 7 unknown #
loop $-1 $-1 $318 $196 #
plane-surface $-1 -47.149917227696577 41.51813947483064 107.03801507334013 0.5877852598018023 0 0.80901698891910034 0.80901698891910034 0 -0.5877852598018023 forward_v I I I I #
loop $-1 $-1 $467 $125 #
coedge $-1 $316 $316 $317 $468 reversed $197 $-1 #
coedge $-1 $317 $317 $316 $468 forward $199 $-1 #
coedge $-1 $318 $318 $200 $319 forward $313 $-1 #
edge $-1 $469 0 $469 6.2831853071796004 $318 $470 forward 7 unknown #
face $-1 $471 $472 $48 $-1 $473 reversed single #
loop $-1 $-1 $474 $201 #
plane-surface $-1 -76.290169988097773 0 0 1 0 0 0 0 -1 forward_v I I I I #
coedge $-1 $475 $331 $476 $477 forward $202 $-1 #
coedge $-1 $478 $204 $475 $479 forward $129 $-1 #
coedge $-1 $204 $478 $480 $481 forward $129 $-1 #
coedge $-1 $334 $333 $204 $327 reversed $335 $-1 #
edge $-1 $482 -48.622032408503706 $483 48.622032408503706 $326 $484 forward 7 unknown #
coedge $-1 $206 $205 $485 $486 forward $81 $-1 #
coedge $-1 $487 $488 $205 $330 reversed $472 $-1 #
edge $-1 $337 -76.290169988097773 $489 76.290169988097773 $329 $490 forward 7 unknown #
coedge $-1 $323 $491 $206 $332 reversed $202 $-1 #
edge $-1 $492 -76.290169988097773 $336 76.290169988097773 $331 $493 forward 7 unknown #
coedge $-1 $326 $207 $491 $494 forward $335 $-1 #
coedge $-1 $207 $326 $487 $495 reversed $335 $-1 #
loop $-1 $-1 $333 $471 #
vertex $-1 $208 $496 #
vertex $-1 $208 $497 #
straight-curve $-1 76.290169988097773 0 20.47728461666037 0 1 0 I I #
face $-1 $498 $499 $49 $-1 $500 forward single #
loop $-1 $-1 $348 $209 #
plane-surface $-1 0 -48.622032408503706 0 0 1 0 0 0 1 forward_v I I I I #
coedge $-1 $501 $502 $503 $504 forward $210 $-1 #
coedge $-1 $503 $212 $214 $350 reversed $133 $-1 #
coedge $-1 $212 $503 $505 $506 reversed $133 $-1 #
coedge $-1 $507 $215 $212 $346 forward $352 $-1 #
edge $-1 $354 5.3814818920016059 $508 11.857695780439709 $345 $509 forward 7 unknown #
coedge $-1 $214 $213 $501 $510 reversed $84 $-1 #
coedge $-1 $511 $512 $213 $349 forward $340 $-1 #
edge $-1 $513 -76.290169988097773 $353 76.290169988097773 $348 $514 forward 7 unknown #
edge $-1 $515 -76.290169988097773 $354 76.290169988097773 $343 $516 forward 7 unknown #
coedge $-1 $215 $507 $511 $517 forward $352 $-1 #
loop $-1 $-1 $345 $498 #
vertex $-1 $349 $518 #
vertex $-1 $216 $519 #
straight-curve $-1 76.290169988097773 -17.975147363965441 14.001070728222263 0 1 0 I I #
face $-1 $-1 $520 $50 $-1 $521 reversed single #
loop $-1 $-1 $223 $217 #
plane-surface $-1 0 0 20.47728461666037 0 0 1 1 0 0 forward_v I I I I #
coedge $-1 $522 $523 $524 $525 reversed $218 $-1 #
coedge $-1 $526 $220 $222 $366 forward $137 $-1 #
coedge $-1 $220 $526 $522 $527 forward $137 $-1 #
coedge $-1 $524 $223 $220 $363 forward $357 $-1 #
edge $-1 $369 6.6506385317634304 $528 25.99667408392278 $362 $529 forward 7 unknown #
coedge $-1 $530 $531 $221 $365 forward $520 $-1 #
edge $-1 $532 -43.048315353934306 $368 -28.299539199535772 $364 $533 forward 7 unknown #
edge $-1 $369 -18.46746834691816 $532 -2.3448253187574213e-014 $222 $534 forward 7 unknown #
coedge $-1 $223 $524 $530 $535 forward $357 $-1 #
vertex $-1 $365 $536 #
vertex $-1 $224 $537 #
straight-curve $-1 -99.073124441493746 22.974294839606536 20.47728461666037 1 0 0 I I #
coedge $-1 $371 $371 $-1 $538 reversed $227 $-1 #
edge $-1 $539 0 $539 6.2831853071796004 $228 $540 forward 7 unknown #
vertex $-1 $231 $541 #
ellipse-curve $-1 -70.733170143490341 32.647312615686211 13.102896539461097 -0.79863551827123203 0 0.60181501223851219 0.90272251835776829 0 1.197953277406848 1 I I #
face $-1 $-1 $387 $52 $-1 $542 forward single #
loop $-1 $-1 $543 $232 #
plane-surface $-1 76.290169988097773 0 0 -1 0 0 0 0 1 forward_v I I I I #
coedge $-1 $544 $545 $546 $547 reversed $233 $-1 #
coedge $-1 $548 $235 $237 $385 forward $146 $-1 #
coedge $-1 $235 $548 $544 $549 forward $146 $-1 #
coedge $-1 $546 $238 $235 $382 forward $387 $-1 #
edge $-1 $389 1.7102210410998424 $550 10.697081575965854 $381 $551 forward 7 unknown #
coedge $-1 $552 $553 $236 $384 forward $376 $-1 #
edge $-1 $554 -97.88551084478253 $388 -94.761766527906872 $383 $555 forward 7 unknown #
edge $-1 $389 147.26590878762005 $554 152.58033997619555 $237 $556 forward 7 unknown #
coedge $-1 $238 $546 $552 $557 forward $387 $-1 #
loop $-1 $-1 $546 $375 #
vertex $-1 $384 $558 #
vertex $-1 $239 $559 #
straight-curve $-1 21.267278772929423 -7.9138723496326904 20.47728461666037 -1 0 0 I I #
coedge $-1 $391 $391 $-1 $560 reversed $242 $-1 #
edge $-1 $561 0 $561 6.2831853071796004 $243 $562 forward 7 unknown #
vertex $-1 $246 $563 #
ellipse-curve $-1 74.140437429098213 -14.333058445965555 18.915412458222541 0.5877852598018023 0 0.80901698891910034 0.80901698891910034 0 -0.5877852598018023 1 I I #
coedge $-1 $395 $395 $-1 $564 reversed $249 $-1 #
edge $-1 $565 0 $565 6.2831853071796004 $250 $566 forward 7 unknown #
vertex $-1 $253 $567 #
ellipse-curve $-1 74.140437429098213 -10.481546788165836 18.915412458222541 0.5877852598018023 0 0.80901698891910034 0.80901698891910034 0 -0.5877852598018023 1 I I #
face $-1 $-1 $411 $55 $-1 $568 forward single #
loop $-1 $-1 $569 $254 #
plane-surface $-1 76.290169988097773 0 0 -1 0 0 0 0 1 forward_v I I I I #
coedge $-1 $570 $571 $572 $573 reversed $255 $-1 #
coedge $-1 $574 $257 $259 $409 forward $160 $-1 #
coedge $-1 $257 $574 $570 $575 forward $160 $-1 #
coedge $-1 $572 $260 $257 $406 forward $411 $-1 #
edge $-1 $413 -7.2773526408828779 $576 1.7095078939831332 $405 $577 forward 7 unknown #
coedge $-1 $578 $579 $258 $408 forward $400 $-1 #
edge $-1 $580 -97.88551084478253 $412 -94.761766527906872 $407 $581 forward 7 unknown #
edge $-1 $413 147.26590878762005 $580 152.58033997619555 $259 $582 forward 7 unknown #
coedge $-1 $260 $572 $578 $583 forward $411 $-1 #
loop $-1 $-1 $572 $399 #
vertex $-1 $408 $584 #
vertex $-1 $261 $585 #
straight-curve $-1 21.267278772929423 10.06127501433275 20.47728461666037 -1 0 0 I I #
coedge $-1 $415 $415 $-1 $586 reversed $264 $-1 #
edge $-1 $587 0 $587 6.2831853071796004 $265 $588 forward 7 unknown #
vertex $-1 $268 $589 #
ellipse-curve $-1 74.140437429098213 3.6420889179998852 18.915412458222541 0.5877852598018023 0 0.80901698891910034 0.80901698891910034 0 -0.5877852598018023 1 I I #
coedge $-1 $419 $419 $-1 $590 reversed $271 $-1 #
edge $-1 $591 0 $591 6.2831853071796004 $272 $592 forward 7 unknown #
vertex $-1 $275 $593 #
ellipse-curve $-1 74.140437429098213 7.4936005757996043 18.915412458222541 0.5877852598018023 0 0.80901698891910034 0.80901698891910034 0 -0.5877852598018023 1 I I #
face $-1 $-1 $435 $58 $-1 $594 forward single #
loop $-1 $-1 $595 $276 #
plane-surface $-1 76.290169988097773 0 0 -1 0 0 0 0 1 forward_v I I I I #
coedge $-1 $596 $597 $598 $599 reversed $277 $-1 #
coedge $-1 $600 $279 $281 $433 forward $174 $-1 #
coedge $-1 $279 $600 $596 $601 forward $174 $-1 #
coedge $-1 $598 $282 $279 $430 forward $435 $-1 #
edge $-1 $437 -16.264926322865602 $602 -7.2780657879995907 $429 $603 forward 7 unknown #
coedge $-1 $604 $605 $280 $432 forward $424 $-1 #
edge $-1 $606 -97.88551084478253 $436 -94.761766527906872 $431 $607 forward 7 unknown #
edge $-1 $437 147.26590878762005 $606 152.58033997619555 $281 $608 forward 7 unknown #
coedge $-1 $282 $598 $604 $609 forward $435 $-1 #
loop $-1 $-1 $598 $423 #
vertex $-1 $432 $610 #
vertex $-1 $283 $611 #
straight-curve $-1 21.267278772929423 28.036422378298198 20.47728461666037 -1 0 0 I I #
coedge $-1 $439 $439 $-1 $612 reversed $286 $-1 #
edge $-1 $613 0 $613 6.2831853071796004 $287 $614 forward 7 unknown #
vertex $-1 $290 $615 #
ellipse-curve $-1 74.140437429098213 21.617236281965326 18.915412458222541 0.5877852598018023 0 0.80901698891910034 0.80901698891910034 0 -0.5877852598018023 1 I I #
coedge $-1 $443 $443 $-1 $616 reversed $293 $-1 #
edge $-1 $617 0 $617 6.2831853071796004 $294 $618 forward 7 unknown #
vertex $-1 $297 $619 #
ellipse-curve $-1 74.140437429098213 25.468747939765045 18.915412458222541 0.5877852598018023 0 0.80901698891910034 0.80901698891910034 0 -0.5877852598018023 1 I I #
face $-1 $-1 $459 $61 $-1 $620 forward single #
loop $-1 $-1 $621 $298 #
plane-surface $-1 76.290169988097773 0 0 -1 0 0 0 0 1 forward_v I I I I #
coedge $-1 $622 $623 $624 $625 reversed $299 $-1 #
coedge $-1 $626 $301 $303 $457 forward $188 $-1 #
coedge $-1 $301 $626 $622 $627 forward $188 $-1 #
coedge $-1 $624 $304 $301 $454 forward $459 $-1 #
edge $-1 $461 -25.252500004848326 $628 -16.265639469982315 $453 $629 forward 7 unknown #
coedge $-1 $630 $631 $302 $456 forward $448 $-1 #
edge $-1 $632 -97.88551084478253 $460 -94.761766527906872 $455 $633 forward 7 unknown #
edge $-1 $461 147.26590878762005 $632 152.58033997619555 $303 $634 forward 7 unknown #
coedge $-1 $304 $624 $630 $635 forward $459 $-1 #
loop $-1 $-1 $624 $447 #
vertex $-1 $456 $636 #
vertex $-1 $305 $637 #
straight-curve $-1 21.267278772929423 46.011569742263646 20.47728461666037 -1 0 0 I I #
coedge $-1 $463 $463 $-1 $638 reversed $308 $-1 #
edge $-1 $639 0 $639 6.2831853071796004 $309 $640 forward 7 unknown #
vertex $-1 $312 $641 #
ellipse-curve $-1 74.140437429098213 39.592383645930774 18.915412458222541 0.5877852598018023 0 0.80901698891910034 0.80901698891910034 0 -0.5877852598018023 1 I I #
coedge $-1 $467 $467 $-1 $642 reversed $315 $-1 #
edge $-1 $643 0 $643 6.2831853071796004 $316 $644 forward 7 unknown #
vertex $-1 $319 $645 #
ellipse-curve $-1 74.140437429098213 43.443895303730478 18.915412458222541 0.5877852598018023 0 0.80901698891910034 0.80901698891910034 0 -0.5877852598018023 1 I I #
face $-1 $-1 $335 $48 $-1 $646 reversed single #
loop $-1 $-1 $487 $320 #
plane-surface $-1 0 48.622032408503706 0 0 -1 0 0 0 -1 forward_v I I I I #
coedge $-1 $647 $485 $488 $648 forward $321 $-1 #
coedge $-1 $491 $323 $324 $479 reversed $202 $-1 #
coedge $-1 $485 $647 $323 $477 reversed $321 $-1 #
edge $-1 $492 -20.47728461666037 $649 20.47728461666037 $476 $650 forward 7 unknown #
coedge $-1 $325 $324 $647 $651 forward $129 $-1 #
edge $-1 $483 -76.290169988097773 $649 76.290169988097773 $475 $652 forward 7 unknown #
coedge $-1 $488 $487 $325 $481 reversed $472 $-1 #
edge $-1 $653 -76.290169988097773 $482 76.290169988097773 $480 $654 forward 7 unknown #
vertex $-1 $327 $655 #
vertex $-1 $494 $656 #
straight-curve $-1 76.290169988097773 0 -20.47728461666037 0 -1 0 I I #
coedge $-1 $474 $476 $328 $486 reversed $321 $-1 #
edge $-1 $489 -48.622032408503706 $492 48.622032408503706 $485 $657 forward 7 unknown #
coedge $-1 $480 $329 $334 $495 forward $472 $-1 #
coedge $-1 $329 $480 $474 $648 reversed $472 $-1 #
vertex $-1 $330 $658 #
straight-curve $-1 0 48.622032408503706 20.47728461666037 -1 0 0 I I #
coedge $-1 $331 $475 $333 $494 reversed $202 $-1 #
vertex $-1 $486 $659 #
straight-curve $-1 0 -48.622032408503706 20.47728461666037 1 0 0 I I #
edge $-1 $336 -20.47728461666037 $483 20.47728461666037 $333 $660 forward 7 unknown #
edge $-1 $337 -20.47728461666037 $482 20.47728461666037 $334 $661 forward 7 unknown #
point $-1 76.290169988097773 -48.622032408503706 20.47728461666037 #
point $-1 76.290169988097773 48.622032408503706 20.47728461666037 #
face $-1 $-1 $352 $49 $-1 $662 reversed single #
loop $-1 $-1 $505 $339 #
plane-surface $-1 0 0 20.47728461666037 0 0 1 1 0 0 forward_v I I I I #
coedge $-1 $663 $342 $347 $510 forward $210 $-1 #
coedge $-1 $342 $663 $664 $665 reversed $210 $-1 #
coedge $-1 $344 $343 $342 $504 reversed $133 $-1 #
edge $-1 $666 -11.857695780439709 $515 -5.3814818920016059 $342 $667 forward 7 unknown #
coedge $-1 $664 $668 $344 $506 forward $499 $-1 #
edge $-1 $508 -76.290169988097773 $666 76.290169988097773 $505 $669 forward 7 unknown #
coedge $-1 $351 $345 $668 $670 reversed $352 $-1 #
vertex $-1 $346 $671 #
straight-curve $-1 76.290169988097773 -23.278557047358053 8.6195888362206574 0 0 1 I I #
edge $-1 $515 5.3034096833926121 $513 30.646885044538273 $501 $672 forward 7 unknown #
coedge $-1 $673 $348 $351 $517 reversed $340 $-1 #
coedge $-1 $348 $673 $663 $674 forward $340 $-1 #
vertex $-1 $349 $675 #
straight-curve $-1 0 -48.622032408503706 14.001070728222263 1 0 0 I I #
vertex $-1 $510 $676 #
straight-curve $-1 0 -23.278557047358053 14.001070728222263 1 0 0 I I #
edge $-1 $677 -20.47728461666037 $353 -14.001070728222263 $351 $678 forward 7 unknown #
point $-1 76.290169988097773 -48.622032408503713 14.001070728222263 #
point $-1 76.290169988097773 -23.278557047358053 14.001070728222263 #
loop $-1 $-1 $364 $356 #
plane-surface $-1 -76.290169988097773 0 0 1 0 0 0 0 -1 forward_v I I I I #
coedge $-1 $523 $359 $361 $527 reversed $218 $-1 #
coedge $-1 $359 $522 $679 $680 reversed $218 $-1 #
coedge $-1 $367 $362 $359 $525 forward $357 $-1 #
edge $-1 $528 -33.896954142610852 $681 -22.782954453395973 $524 $682 forward 7 unknown #
coedge $-1 $361 $360 $531 $683 reversed $137 $-1 #
edge $-1 $684 2.3448253187574213e-014 $528 18.46746834691816 $522 $685 forward 7 unknown #
vertex $-1 $363 $686 #
straight-curve $-1 -65.176170298882894 16.323656307843105 20.47728461666037 0 1 0 I I #
coedge $-1 $679 $364 $367 $535 reversed $520 $-1 #
coedge $-1 $364 $679 $526 $683 forward $520 $-1 #
vertex $-1 $365 $687 #
straight-curve $-1 -76.290169988097773 22.974294839606536 48.776823816196142 0 0 1 I I #
straight-curve $-1 -76.290169988097787 22.974294839606536 5.7285084622618143 -0.60181501223851219 0 -0.79863551827123203 I I #
edge $-1 $681 -42.320330391765886 $368 -22.974294839606536 $530 $688 forward 7 unknown #
point $-1 -76.290169988097773 22.974294839606536 20.47728461666037 #
point $-1 -65.176170298882894 22.974294839606536 20.47728461666037 #
edge $-1 $689 1 $689 0 $371 $-1 forward 7 unknown #
vertex $-1 $372 $690 #
ellipse-curve $-1 -69.193346658343017 32.647312615686211 11.942556348775565 -0.79863551827123203 0 0.60181501223851219 0.90272251835776829 0 1.197953277406848 1 I I #
point $-1 -69.83044762513255 32.647312615686211 14.300849816867931 #
plane-surface $-1 0 0 20.47728461666037 0 0 1 1 0 0 forward_v I I I I #
coedge $-1 $553 $552 $545 $691 forward $376 $-1 #
coedge $-1 $545 $378 $380 $549 reversed $233 $-1 #
coedge $-1 $378 $544 $543 $691 reversed $233 $-1 #
coedge $-1 $386 $381 $378 $547 forward $387 $-1 #
edge $-1 $550 50.723426097169245 $692 55.02289121516835 $546 $693 forward 7 unknown #
coedge $-1 $380 $379 $553 $694 reversed $146 $-1 #
edge $-1 $695 -152.58033997619555 $550 -147.26590878762005 $544 $696 forward 7 unknown #
vertex $-1 $382 $697 #
straight-curve $-1 71.990704870098654 -6.203651308532848 20.477284616660363 0 -1 0 I I #
coedge $-1 $543 $383 $386 $557 reversed $376 $-1 #
coedge $-1 $383 $543 $548 $694 forward $376 $-1 #
vertex $-1 $384 $698 #
straight-curve $-1 76.290169988097773 -7.9138723496326904 115.23905114456724 0 0 1 I I #
straight-curve $-1 -47.149917227696577 -7.9138723496326904 107.03801507334013 0.80901698891910034 0 -0.5877852598018023 I I #
edge $-1 $692 -16.900732884498701 $388 -7.9138723496326904 $552 $699 forward 7 unknown #
point $-1 76.290169988097773 -7.9138723496326904 20.47728461666037 #
point $-1 71.990704870098668 -7.9138723496326904 20.47728461666037 #
edge $-1 $700 1 $700 0 $391 $-1 forward 7 unknown #
vertex $-1 $392 $701 #
ellipse-curve $-1 72.689944063591028 -14.333058445965555 16.918979653144312 0.5877852598018023 0 0.80901698891910034 0.80901698891910034 0 -0.5877852598018023 1 I I #
point $-1 74.949454418017311 -14.333058445965555 18.327627198420746 #
edge $-1 $702 1 $702 0 $395 $-1 forward 7 unknown #
vertex $-1 $396 $703 #
ellipse-curve $-1 72.689944063591028 -10.481546788165836 16.918979653144312 0.5877852598018023 0 0.80901698891910034 0.80901698891910034 0 -0.5877852598018023 1 I I #
point $-1 74.949454418017311 -10.481546788165836 18.327627198420746 #
plane-surface $-1 0 0 20.47728461666037 0 0 1 1 0 0 forward_v I I I I #
coedge $-1 $579 $578 $571 $704 forward $400 $-1 #
coedge $-1 $571 $402 $404 $575 reversed $255 $-1 #
coedge $-1 $402 $570 $569 $704 reversed $255 $-1 #
coedge $-1 $410 $405 $402 $573 forward $411 $-1 #
edge $-1 $576 50.723426097169245 $705 55.02289121516835 $572 $706 forward 7 unknown #
coedge $-1 $404 $403 $579 $707 reversed $160 $-1 #
edge $-1 $708 -152.58033997619555 $576 -147.26590878762005 $570 $709 forward 7 unknown #
vertex $-1 $406 $710 #
straight-curve $-1 71.990704870098654 2.7839223734498724 20.477284616660363 0 -1 0 I I #
coedge $-1 $569 $407 $410 $583 reversed $400 $-1 #
coedge $-1 $407 $569 $574 $707 forward $400 $-1 #
vertex $-1 $408 $711 #
straight-curve $-1 76.290169988097773 10.06127501433275 115.23905114456724 0 0 1 I I #
straight-curve $-1 -47.149917227696577 10.06127501433275 107.03801507334013 0.80901698891910034 0 -0.5877852598018023 I I #
edge $-1 $705 1.0744144794667392 $412 10.06127501433275 $578 $712 forward 7 unknown #
point $-1 76.290169988097773 10.06127501433275 20.47728461666037 #
point $-1 71.990704870098668 10.06127501433275 20.47728461666037 #
edge $-1 $713 1 $713 0 $415 $-1 forward 7 unknown #
vertex $-1 $416 $714 #
ellipse-curve $-1 72.689944063591028 3.6420889179998852 16.918979653144312 0.5877852598018023 0 0.80901698891910034 0.80901698891910034 0 -0.5877852598018023 1 I I #
point $-1 74.949454418017311 3.6420889179998852 18.327627198420746 #
edge $-1 $715 1 $715 0 $419 $-1 forward 7 unknown #
vertex $-1 $420 $716 #
ellipse-curve $-1 72.689944063591028 7.4936005757996043 16.918979653144312 0.5877852598018023 0 0.80901698891910034 0.80901698891910034 0 -0.5877852598018023 1 I I #
point $-1 74.949454418017311 7.4936005757996043 18.327627198420746 #
plane-surface $-1 0 0 20.47728461666037 0 0 1 1 0 0 forward_v I I I I #
coedge $-1 $605 $604 $597 $717 forward $424 $-1 #
coedge $-1 $597 $426 $428 $601 reversed $277 $-1 #
coedge $-1 $426 $596 $595 $717 reversed $277 $-1 #
coedge $-1 $434 $429 $426 $599 forward $435 $-1 #
edge $-1 $602 50.723426097169245 $718 55.02289121516835 $598 $719 forward 7 unknown #
coedge $-1 $428 $427 $605 $720 reversed $174 $-1 #
edge $-1 $721 -152.58033997619555 $602 -147.26590878762005 $596 $722 forward 7 unknown #
vertex $-1 $430 $723 #
straight-curve $-1 71.990704870098654 11.771496055432596 20.477284616660363 0 -1 0 I I #
coedge $-1 $595 $431 $434 $609 reversed $424 $-1 #
coedge $-1 $431 $595 $600 $720 forward $424 $-1 #
vertex $-1 $432 $724 #
straight-curve $-1 76.290169988097773 28.036422378298198 115.23905114456724 0 0 1 I I #
straight-curve $-1 -47.149917227696577 28.036422378298198 107.03801507334013 0.80901698891910034 0 -0.5877852598018023 I I #
edge $-1 $718 19.049561843432187 $436 28.036422378298198 $604 $725 forward 7 unknown #
point $-1 76.290169988097773 28.036422378298198 20.47728461666037 #
point $-1 71.990704870098668 28.036422378298198 20.47728461666037 #
edge $-1 $726 1 $726 0 $439 $-1 forward 7 unknown #
vertex $-1 $440 $727 #
ellipse-curve $-1 72.689944063591028 21.617236281965326 16.918979653144312 0.5877852598018023 0 0.80901698891910034 0.80901698891910034 0 -0.5877852598018023 1 I I #
point $-1 74.949454418017311 21.617236281965326 18.327627198420746 #
edge $-1 $728 1 $728 0 $443 $-1 forward 7 unknown #
vertex $-1 $444 $729 #
ellipse-curve $-1 72.689944063591028 25.468747939765045 16.918979653144312 0.5877852598018023 0 0.80901698891910034 0.80901698891910034 0 -0.5877852598018023 1 I I #
point $-1 74.949454418017311 25.468747939765045 18.327627198420746 #
plane-surface $-1 0 0 20.47728461666037 0 0 1 1 0 0 forward_v I I I I #
coedge $-1 $631 $630 $623 $730 forward $448 $-1 #
coedge $-1 $623 $450 $452 $627 reversed $299 $-1 #
coedge $-1 $450 $622 $621 $730 reversed $299 $-1 #
coedge $-1 $458 $453 $450 $625 forward $459 $-1 #
edge $-1 $628 50.723426097169245 $731 55.02289121516835 $624 $732 forward 7 unknown #
coedge $-1 $452 $451 $631 $733 reversed $188 $-1 #
edge $-1 $734 -152.58033997619555 $628 -147.26590878762005 $622 $735 forward 7 unknown #
vertex $-1 $454 $736 #
straight-curve $-1 71.990704870098654 20.75906973741532 20.477284616660363 0 -1 0 I I #
coedge $-1 $621 $455 $458 $635 reversed $448 $-1 #
coedge $-1 $455 $621 $626 $733 forward $448 $-1 #
vertex $-1 $456 $737 #
straight-curve $-1 76.290169988097773 46.011569742263646 115.23905114456724 0 0 1 I I #
straight-curve $-1 -47.149917227696577 46.011569742263646 107.03801507334013 0.80901698891910034 0 -0.5877852598018023 I I #
edge $-1 $731 37.024709207397635 $460 46.011569742263646 $630 $738 forward 7 unknown #
point $-1 76.290169988097773 46.011569742263646 20.47728461666037 #
point $-1 71.990704870098668 46.011569742263646 20.47728461666037 #
edge $-1 $739 1 $739 0 $463 $-1 forward 7 unknown #
vertex $-1 $464 $740 #
ellipse-curve $-1 72.689944063591028 39.592383645930774 16.918979653144312 0.5877852598018023 0 0.80901698891910034 0.80901698891910034 0 -0.5877852598018023 1 I I #
point $-1 74.949454418017311 39.592383645930774 18.327627198420746 #
edge $-1 $741 1 $741 0 $467 $-1 forward 7 unknown #
vertex $-1 $468 $742 #
ellipse-curve $-1 72.689944063591028 43.443895303730478 16.918979653144312 0.5877852598018023 0 0.80901698891910034 0.80901698891910034 0 -0.5877852598018023 1 I I #
point $-1 74.949454418017311 43.443895303730478 18.327627198420746 #
plane-surface $-1 76.290169988097773 0 0 -1 0 0 0 0 1 forward_v I I I I #
coedge $-1 $476 $474 $478 $651 reversed $321 $-1 #
edge $-1 $489 -20.47728461666037 $653 20.47728461666037 $488 $743 forward 7 unknown #
vertex $-1 $651 $744 #
straight-curve $-1 -76.290169988097773 -48.622032408503706 0 0 0 -1 I I #
edge $-1 $649 -48.622032408503706 $653 48.622032408503706 $647 $745 forward 7 unknown #
straight-curve $-1 0 -48.622032408503706 -20.47728461666037 -1 0 0 I I #
vertex $-1 $481 $746 #
straight-curve $-1 0 48.622032408503706 -20.47728461666037 1 0 0 I I #
point $-1 76.290169988097773 48.622032408503706 -20.47728461666037 #
point $-1 76.290169988097773 -48.622032408503706 -20.47728461666037 #
straight-curve $-1 -76.290169988097773 0 20.47728461666037 0 -1 0 I I #
point $-1 -76.290169988097773 48.622032408503706 20.47728461666037 #
point $-1 -76.290169988097773 -48.622032408503706 20.47728461666037 #
straight-curve $-1 76.290169988097773 -48.622032408503706 0 0 0 -1 I I #
straight-curve $-1 76.290169988097773 48.622032408503706 0 0 0 -1 I I #
plane-surface $-1 76.290169988097773 0 0 -1 0 0 0 0 1 forward_v I I I I #
coedge $-1 $502 $501 $512 $674 reversed $210 $-1 #
coedge $-1 $747 $505 $502 $665 forward $499 $-1 #
edge $-1 $666 23.278557047358053 $748 48.622032408503706 $502 $749 forward 7 unknown #
vertex $-1 $665 $750 #
straight-curve $-1 -76.290169988097773 -23.278557047358053 8.6195888362206574 0 0 -1 I I #
coedge $-1 $505 $747 $507 $670 forward $499 $-1 #
straight-curve $-1 0 -23.278557047358053 20.47728461666037 -1 0 0 I I #
edge $-1 $677 -48.622032408503706 $508 -23.278557047358053 $507 $751 forward 7 unknown #
point $-1 76.290169988097773 -23.278557047358053 20.477284616660366 #
straight-curve $-1 -76.290169988097773 -17.975147363965441 14.001070728222263 0 -1 0 I I #
coedge $-1 $512 $511 $747 $752 reversed $340 $-1 #
edge $-1 $748 -20.47728461666037 $513 -14.001070728222263 $663 $753 forward 7 unknown #
point $-1 -76.290169988097773 -48.622032408503713 14.001070728222263 #
point $-1 -76.290169988097773 -23.278557047358053 14.001070728222263 #
vertex $-1 $670 $754 #
straight-curve $-1 76.290169988097773 -48.622032408503706 0 0 0 -1 I I #
coedge $-1 $531 $530 $523 $680 forward $520 $-1 #
edge $-1 $681 28.299539199535772 $684 43.048315353934306 $679 $755 forward 7 unknown #
vertex $-1 $535 $756 #
straight-curve $-1 -99.073124441493746 42.320330391765886 20.47728461666037 -1 0 0 I I #
edge $-1 $684 -25.99667408392278 $532 -6.6506385317634304 $531 $757 forward 7 unknown #
vertex $-1 $683 $758 #
straight-curve $-1 -76.290169988097787 42.320330391765886 5.7285084622618143 0.60181501223851219 0 0.79863551827123203 I I #
point $-1 -65.176170298882894 42.320330391765886 20.47728461666037 #
point $-1 -76.290169988097773 22.974294839606536 5.728508462261833 #
straight-curve $-1 -76.290169988097773 0 20.47728461666037 0 -1 0 I I #
vertex $-1 $538 $759 #
point $-1 -68.290624139985255 32.647312615686211 13.140509626182412 #
edge $-1 $692 94.761766527906872 $695 97.88551084478253 $543 $760 forward 7 unknown #
vertex $-1 $557 $761 #
straight-curve $-1 21.267278772929423 -16.900732884498701 20.47728461666037 1 0 0 I I #
edge $-1 $695 -10.697081575965854 $554 -1.7102210410998424 $553 $762 forward 7 unknown #
vertex $-1 $694 $763 #
straight-curve $-1 -47.149917227696577 -16.900732884498701 107.03801507334013 -0.80901698891910034 0 0.5877852598018023 I I #
point $-1 71.990704870098668 -16.900732884498701 20.47728461666037 #
point $-1 76.290169988097773 -7.9138723496326904 17.353540299784711 #
straight-curve $-1 76.290169988097773 0 20.47728461666037 0 1 0 I I #
vertex $-1 $560 $764 #
point $-1 73.49896105251014 -14.333058445965555 16.331194393342511 #
vertex $-1 $564 $765 #
point $-1 73.49896105251014 -10.481546788165836 16.331194393342511 #
edge $-1 $705 94.761766527906872 $708 97.88551084478253 $569 $766 forward 7 unknown #
vertex $-1 $583 $767 #
straight-curve $-1 21.267278772929423 1.0744144794667392 20.47728461666037 1 0 0 I I #
edge $-1 $708 -1.7095078939831332 $580 7.2773526408828779 $579 $768 forward 7 unknown #
vertex $-1 $707 $769 #
straight-curve $-1 -47.149917227696577 1.0744144794667392 107.03801507334013 -0.80901698891910034 0 0.5877852598018023 I I #
point $-1 71.990704870098668 1.0744144794667392 20.47728461666037 #
point $-1 76.290169988097773 10.06127501433275 17.353540299784711 #
straight-curve $-1 76.290169988097773 0 20.47728461666037 0 1 0 I I #
vertex $-1 $586 $770 #
point $-1 73.49896105251014 3.6420889179998852 16.331194393342511 #
vertex $-1 $590 $771 #
point $-1 73.49896105251014 7.4936005757996043 16.331194393342511 #
edge $-1 $718 94.761766527906872 $721 97.88551084478253 $595 $772 forward 7 unknown #
vertex $-1 $609 $773 #
straight-curve $-1 21.267278772929423 19.049561843432187 20.47728461666037 1 0 0 I I #
edge $-1 $721 7.2780657879995907 $606 16.264926322865602 $605 $774 forward 7 unknown #
vertex $-1 $720 $775 #
straight-curve $-1 -47.149917227696577 19.049561843432187 107.03801507334013 -0.80901698891910034 0 0.5877852598018023 I I #
point $-1 71.990704870098668 19.049561843432187 20.47728461666037 #
point $-1 76.290169988097773 28.036422378298198 17.353540299784711 #
straight-curve $-1 76.290169988097773 0 20.47728461666037 0 1 0 I I #
vertex $-1 $612 $776 #
point $-1 73.49896105251014 21.617236281965326 16.331194393342511 #
vertex $-1 $616 $777 #
point $-1 73.49896105251014 25.468747939765045 16.331194393342511 #
edge $-1 $731 94.761766527906872 $734 97.88551084478253 $621 $778 forward 7 unknown #
vertex $-1 $635 $779 #
straight-curve $-1 21.267278772929423 37.024709207397635 20.47728461666037 1 0 0 I I #
edge $-1 $734 16.265639469982315 $632 25.252500004848326 $631 $780 forward 7 unknown #
vertex $-1 $733 $781 #
straight-curve $-1 -47.149917227696577 37.024709207397635 107.03801507334013 -0.80901698891910034 0 0.5877852598018023 I I #
point $-1 71.990704870098668 37.024709207397635 20.47728461666037 #
point $-1 76.290169988097773 46.011569742263646 17.353540299784711 #
straight-curve $-1 76.290169988097773 0 20.47728461666037 0 1 0 I I #
vertex $-1 $638 $782 #
point $-1 73.49896105251014 39.592383645930774 16.331194393342511 #
vertex $-1 $642 $783 #
point $-1 73.49896105251014 43.443895303730478 16.331194393342511 #
straight-curve $-1 -76.290169988097773 48.622032408503706 0 0 0 -1 I I #
point $-1 -76.290169988097773 -48.622032408503706 -20.47728461666037 #
straight-curve $-1 -76.290169988097773 0 -20.47728461666037 0 1 0 I I #
point $-1 -76.290169988097773 48.622032408503706 -20.47728461666037 #
coedge $-1 $668 $664 $673 $752 forward $499 $-1 #
vertex $-1 $665 $784 #
straight-curve $-1 -76.290169988097773 0 20.47728461666037 0 -1 0 I I #
point $-1 -76.290169988097773 -23.278557047358053 20.477284616660366 #
straight-curve $-1 76.290169988097773 0 20.47728461666037 0 1 0 I I #
edge $-1 $748 -76.290169988097773 $677 76.290169988097773 $673 $785 forward 7 unknown #
straight-curve $-1 -76.290169988097773 -48.622032408503706 0 0 0 -1 I I #
point $-1 76.290169988097773 -48.622032408503706 20.47728461666037 #
straight-curve $-1 -76.290169988097773 42.320330391765886 48.776823816196142 0 0 -1 I I #
point $-1 -76.290169988097773 42.320330391765886 20.47728461666037 #
straight-curve $-1 -76.290169988097773 16.323656307843105 5.7285084622618259 0 -1 0 I I #
point $-1 -76.290169988097773 42.320330391765886 5.728508462261833 #
point $-1 -67.995393380936179 32.647312615686211 11.039833830417795 #
straight-curve $-1 76.290169988097773 -16.900732884498701 115.23905114456724 0 0 -1 I I #
point $-1 76.290169988097773 -16.900732884498701 20.47728461666037 #
straight-curve $-1 76.290169988097773 -6.203651308532848 17.353540299784726 0 1 0 I I #
point $-1 76.290169988097773 -16.900732884498701 17.353540299784711 #
point $-1 72.102158803789237 -14.333058445965555 16.109962664225215 #
point $-1 72.102158803789237 -10.481546788165836 16.109962664225215 #
straight-curve $-1 76.290169988097773 1.0744144794667392 115.23905114456724 0 0 -1 I I #
point $-1 76.290169988097773 1.0744144794667392 20.47728461666037 #
straight-curve $-1 76.290169988097773 2.7839223734498724 17.353540299784726 0 1 0 I I #
point $-1 76.290169988097773 1.0744144794667392 17.353540299784711 #
point $-1 72.102158803789237 3.6420889179998852 16.109962664225215 #
point $-1 72.102158803789237 7.4936005757996043 16.109962664225215 #
straight-curve $-1 76.290169988097773 19.049561843432187 115.23905114456724 0 0 -1 I I #
point $-1 76.290169988097773 19.049561843432187 20.47728461666037 #
straight-curve $-1 76.290169988097773 11.771496055432596 17.353540299784726 0 1 0 I I #
point $-1 76.290169988097773 19.049561843432187 17.353540299784711 #
point $-1 72.102158803789237 21.617236281965326 16.109962664225215 #
point $-1 72.102158803789237 25.468747939765045 16.109962664225215 #
straight-curve $-1 76.290169988097773 37.024709207397635 115.23905114456724 0 0 -1 I I #
point $-1 76.290169988097773 37.024709207397635 20.47728461666037 #
straight-curve $-1 76.290169988097773 20.75906973741532 17.353540299784726 0 1 0 I I #
point $-1 76.290169988097773 37.024709207397635 17.353540299784711 #
point $-1 72.102158803789237 39.592383645930774 16.109962664225215 #
point $-1 72.102158803789237 43.443895303730478 16.109962664225215 #
point $-1 -76.290169988097773 -48.622032408503706 20.47728461666037 #
straight-curve $-1 0 -48.622032408503706 20.47728461666037 1 0 0 I I #
End-of-ACIS-data 