500 0 2 0           
7 Unknown 11 ACIS 5.0 NT 24 Thu Mar 25 17:38:19 1999 
-1 9.9999999999999995e-007 1e-010 
body $-1 $2 $-1 $3 #
body $-1 $4 $-1 $5 #
lump $-1 $-1 $6 $0 #
transform $-1 1 0 0 0 1 0 0 0 1 77.173986022522655 51.718370362559057 15.775783922048944 1 rotate no_reflect no_shear #
lump $-1 $-1 $7 $1 #
transform $-1 1 0 0 0 1 0 0 0 1 77.173986022522655 51.718370362559057 15.775783922048944 1 rotate no_reflect no_shear #
shell $-1 $-1 $-1 $8 $-1 $2 #
shell $-1 $-1 $-1 $9 $-1 $4 #
face $-1 $10 $11 $6 $-1 $12 forward single #
face $-1 $13 $14 $7 $-1 $15 forward single #
face $-1 $16 $17 $6 $-1 $18 reversed single #
loop $-1 $-1 $19 $8 #
plane-surface $-1 0 0 15.775783922048944 0 0 1 1 0 0 forward_v I I I I #
face $-1 $20 $21 $7 $-1 $22 forward single #
loop $-1 $-1 $23 $9 #
plane-surface $-1 0 -45.446597139299342 12.457510721952943 0 0 1 1 0 0 forward_v I I I I #
face $-1 $24 $25 $6 $-1 $26 reversed single #
loop $-1 $-1 $27 $10 #
plane-surface $-1 0 0 -15.775783922048944 0 0 1 1 0 0 forward_v I I I I #
coedge $-1 $28 $29 $30 $31 forward $11 $-1 #
face $-1 $32 $33 $7 $-1 $34 forward single #
loop $-1 $-1 $35 $13 #
plane-surface $-1 0 -39.174823916039628 14.116647322000944 0 -1 0 0 0 -1 forward_v I I I I #
coedge $-1 $36 $37 $38 $39 reversed $14 $-1 #
face $-1 $40 $41 $6 $-1 $42 reversed single #
loop $-1 $-1 $43 $16 #
plane-surface $-1 0 -51.718370362559057 0 0 1 0 0 0 1 forward_v I I I I #
coedge $-1 $44 $45 $46 $47 forward $17 $-1 #
coedge $-1 $48 $19 $49 $50 forward $11 $-1 #
coedge $-1 $19 $48 $51 $52 forward $11 $-1 #
coedge $-1 $53 $54 $19 $31 reversed $55 $-1 #
edge $-1 $56 -51.718370362559057 $57 51.718370362559057 $30 $58 forward 7 unknown #
face $-1 $59 $60 $7 $-1 $61 reversed single #
loop $-1 $-1 $62 $20 #
plane-surface $-1 0 0 15.775783922048944 0 0 1 1 0 0 forward_v I I I I #
coedge $-1 $63 $64 $65 $66 reversed $21 $-1 #
coedge $-1 $67 $23 $64 $68 reversed $14 $-1 #
coedge $-1 $23 $67 $69 $70 reversed $14 $-1 #
coedge $-1 $71 $65 $23 $39 forward $60 $-1 #
edge $-1 $72 16.451525346389957 $73 28.995071792909386 $38 $74 forward 7 unknown #
face $-1 $75 $76 $6 $-1 $77 reversed single #
loop $-1 $-1 $78 $24 #
plane-surface $-1 -77.173986022522655 0 0 1 0 0 0 0 -1 forward_v I I I I #
coedge $-1 $79 $51 $80 $81 forward $25 $-1 #
coedge $-1 $82 $27 $79 $83 forward $17 $-1 #
coedge $-1 $27 $82 $84 $85 forward $17 $-1 #
coedge $-1 $54 $53 $27 $47 reversed $55 $-1 #
edge $-1 $86 -51.718370362559057 $87 51.718370362559057 $46 $88 forward 7 unknown #
coedge $-1 $29 $28 $89 $90 forward $11 $-1 #
coedge $-1 $91 $92 $28 $50 reversed $76 $-1 #
edge $-1 $57 -77.173986022522655 $93 77.173986022522655 $49 $94 forward 7 unknown #
coedge $-1 $43 $95 $29 $52 reversed $25 $-1 #
edge $-1 $96 -77.173986022522655 $56 77.173986022522655 $51 $97 forward 7 unknown #
coedge $-1 $46 $30 $95 $98 forward $55 $-1 #
coedge $-1 $30 $46 $91 $99 reversed $55 $-1 #
loop $-1 $-1 $53 $75 #
vertex $-1 $31 $100 #
vertex $-1 $31 $101 #
straight-curve $-1 77.173986022522655 0 15.775783922048944 0 1 0 I I #
face $-1 $102 $103 $7 $-1 $104 reversed single #
loop $-1 $-1 $65 $32 #
plane-surface $-1 77.173986022522655 0 0 -1 0 0 0 0 1 forward_v I I I I #
coedge $-1 $105 $106 $63 $107 forward $33 $-1 #
coedge $-1 $108 $35 $62 $107 reversed $21 $-1 #
coedge $-1 $35 $108 $36 $68 forward $21 $-1 #
coedge $-1 $38 $109 $35 $66 forward $60 $-1 #
edge $-1 $110 -8.7174602610484726 $72 -5.399187060952471 $65 $111 forward 7 unknown #
coedge $-1 $37 $36 $112 $113 reversed $14 $-1 #
edge $-1 $114 -77.173986022522655 $72 77.173986022522655 $64 $115 forward 7 unknown #
coedge $-1 $116 $117 $37 $70 forward $118 $-1 #
edge $-1 $73 -77.173986022522655 $119 77.173986022522655 $69 $120 forward 7 unknown #
coedge $-1 $121 $38 $117 $122 forward $60 $-1 #
vertex $-1 $39 $123 #
vertex $-1 $122 $124 #
straight-curve $-1 77.173986022522655 -22.723298569649671 12.457510721952943 0 -1 0 I I #
face $-1 $-1 $55 $6 $-1 $125 reversed single #
loop $-1 $-1 $91 $40 #
plane-surface $-1 0 51.718370362559057 0 0 -1 0 0 0 -1 forward_v I I I I #
coedge $-1 $126 $89 $92 $127 forward $41 $-1 #
coedge $-1 $95 $43 $44 $83 reversed $25 $-1 #
coedge $-1 $89 $126 $43 $81 reversed $41 $-1 #
edge $-1 $96 -15.775783922048944 $128 15.775783922048944 $80 $129 forward 7 unknown #
coedge $-1 $45 $44 $126 $130 forward $17 $-1 #
edge $-1 $87 -77.173986022522655 $128 77.173986022522655 $79 $131 forward 7 unknown #
coedge $-1 $92 $91 $45 $85 reversed $76 $-1 #
edge $-1 $132 -77.173986022522655 $86 77.173986022522655 $84 $133 forward 7 unknown #
vertex $-1 $47 $134 #
vertex $-1 $98 $135 #
straight-curve $-1 77.173986022522655 0 -15.775783922048944 0 -1 0 I I #
coedge $-1 $78 $80 $48 $90 reversed $41 $-1 #
edge $-1 $93 -51.718370362559057 $96 51.718370362559057 $89 $136 forward 7 unknown #
coedge $-1 $84 $49 $54 $99 forward $76 $-1 #
coedge $-1 $49 $84 $78 $127 reversed $76 $-1 #
vertex $-1 $50 $137 #
straight-curve $-1 0 51.718370362559057 15.775783922048944 -1 0 0 I I #
coedge $-1 $51 $79 $53 $98 reversed $25 $-1 #
vertex $-1 $90 $138 #
straight-curve $-1 0 -51.718370362559057 15.775783922048944 1 0 0 I I #
edge $-1 $56 -15.775783922048944 $87 15.775783922048944 $53 $139 forward 7 unknown #
edge $-1 $57 -15.775783922048944 $86 15.775783922048944 $54 $140 forward 7 unknown #
point $-1 77.173986022522655 -51.718370362559057 15.775783922048944 #
point $-1 77.173986022522655 51.718370362559057 15.775783922048944 #
face $-1 $141 $118 $7 $-1 $142 reversed single #
loop $-1 $-1 $143 $59 #
plane-surface $-1 0 0 -15.775783922048944 0 0 1 1 0 0 forward_v I I I I #
coedge $-1 $144 $62 $109 $145 forward $33 $-1 #
coedge $-1 $62 $144 $146 $147 forward $33 $-1 #
edge $-1 $148 -77.173986022522655 $110 77.173986022522655 $62 $149 forward 7 unknown #
coedge $-1 $64 $63 $150 $151 reversed $21 $-1 #
coedge $-1 $65 $152 $105 $145 reversed $60 $-1 #
vertex $-1 $145 $153 #
straight-curve $-1 77.173986022522655 -39.174823916039628 7.0583236610004718 0 0 -1 I I #
coedge $-1 $150 $154 $67 $113 forward $155 $-1 #
edge $-1 $119 -28.995071792909386 $114 -16.451525346389957 $112 $156 forward 7 unknown #
vertex $-1 $113 $157 #
straight-curve $-1 0 -39.174823916039628 12.457510721952943 1 0 0 I I #
coedge $-1 $158 $69 $154 $159 forward $118 $-1 #
coedge $-1 $69 $158 $71 $122 reversed $118 $-1 #
loop $-1 $-1 $69 $102 #
vertex $-1 $159 $160 #
straight-curve $-1 0 -51.718370362559057 12.457510721952943 -1 0 0 I I #
coedge $-1 $152 $71 $143 $161 reversed $60 $-1 #
edge $-1 $73 -12.457510721952943 $162 15.775783922048944 $71 $163 forward 7 unknown #
point $-1 77.173986022522655 -39.174823916039628 12.457510721952943 #
point $-1 77.173986022522655 -51.718370362559057 12.457510721952943 #
plane-surface $-1 77.173986022522655 0 0 -1 0 0 0 0 1 forward_v I I I I #
coedge $-1 $80 $78 $82 $130 reversed $41 $-1 #
edge $-1 $93 -15.775783922048944 $132 15.775783922048944 $92 $164 forward 7 unknown #
vertex $-1 $130 $165 #
straight-curve $-1 -77.173986022522655 -51.718370362559057 0 0 0 -1 I I #
edge $-1 $128 -51.718370362559057 $132 51.718370362559057 $126 $166 forward 7 unknown #
straight-curve $-1 0 -51.718370362559057 -15.775783922048944 -1 0 0 I I #
vertex $-1 $85 $167 #
straight-curve $-1 0 51.718370362559057 -15.775783922048944 1 0 0 I I #
point $-1 77.173986022522655 51.718370362559057 -15.775783922048944 #
point $-1 77.173986022522655 -51.718370362559057 -15.775783922048944 #
straight-curve $-1 -77.173986022522655 0 15.775783922048944 0 -1 0 I I #
point $-1 -77.173986022522655 51.718370362559057 15.775783922048944 #
point $-1 -77.173986022522655 -51.718370362559057 15.775783922048944 #
straight-curve $-1 77.173986022522655 -51.718370362559057 0 0 0 -1 I I #
straight-curve $-1 77.173986022522655 51.718370362559057 0 0 0 -1 I I #
face $-1 $168 $155 $7 $-1 $169 reversed single #
plane-surface $-1 0 -51.718370362559057 0 0 1 0 0 0 1 forward_v I I I I #
coedge $-1 $170 $171 $121 $161 forward $103 $-1 #
coedge $-1 $106 $105 $172 $173 forward $33 $-1 #
edge $-1 $110 -39.174823916039628 $174 51.718370362559057 $109 $175 forward 7 unknown #
coedge $-1 $176 $150 $106 $147 reversed $155 $-1 #
edge $-1 $177 -51.718370362559057 $148 39.174823916039628 $146 $178 forward 7 unknown #
vertex $-1 $151 $179 #
straight-curve $-1 0 -39.174823916039628 15.775783922048944 1 0 0 I I #
coedge $-1 $146 $112 $108 $151 forward $155 $-1 #
edge $-1 $114 5.399187060952471 $148 8.7174602610484726 $150 $180 forward 7 unknown #
coedge $-1 $109 $121 $181 $182 reversed $60 $-1 #
point $-1 77.173986022522655 -39.174823916039628 15.775783922048944 #
coedge $-1 $112 $183 $116 $159 reversed $155 $-1 #
loop $-1 $-1 $150 $141 #
straight-curve $-1 -77.173986022522655 -22.723298569649671 12.457510721952943 0 1 0 I I #
point $-1 -77.173986022522655 -39.174823916039628 12.457510721952943 #
coedge $-1 $117 $116 $170 $184 reversed $118 $-1 #
edge $-1 $119 -12.457510721952943 $185 15.775783922048944 $154 $186 forward 7 unknown #
point $-1 -77.173986022522655 -51.718370362559057 12.457510721952943 #
edge $-1 $187 -51.718370362559057 $162 51.718370362559057 $121 $188 forward 7 unknown #
vertex $-1 $122 $189 #
straight-curve $-1 77.173986022522655 -51.718370362559057 0 0 0 -1 I I #
straight-curve $-1 -77.173986022522655 51.718370362559057 0 0 0 -1 I I #
point $-1 -77.173986022522655 -51.718370362559057 -15.775783922048944 #
straight-curve $-1 -77.173986022522655 0 -15.775783922048944 0 1 0 I I #
point $-1 -77.173986022522655 51.718370362559057 -15.775783922048944 #
face $-1 $-1 $190 $7 $-1 $191 reversed single #
plane-surface $-1 -77.173986022522655 0 0 1 0 0 0 0 -1 forward_v I I I I #
coedge $-1 $192 $143 $158 $184 forward $103 $-1 #
coedge $-1 $143 $192 $193 $194 forward $103 $-1 #
coedge $-1 $181 $195 $144 $173 reversed $190 $-1 #
edge $-1 $174 -77.173986022522655 $177 77.173986022522655 $172 $196 forward 7 unknown #
vertex $-1 $145 $197 #
straight-curve $-1 77.173986022522655 0 15.775783922048944 0 1 0 I I #
coedge $-1 $183 $146 $195 $198 forward $155 $-1 #
vertex $-1 $173 $199 #
straight-curve $-1 -77.173986022522655 0 15.775783922048944 0 -1 0 I I #
point $-1 -77.173986022522655 -39.174823916039628 15.775783922048944 #
straight-curve $-1 -77.173986022522655 -39.174823916039628 7.0583236610004718 0 0 1 I I #
coedge $-1 $193 $172 $152 $182 forward $190 $-1 #
edge $-1 $174 -15.775783922048944 $187 15.775783922048944 $152 $200 forward 7 unknown #
coedge $-1 $154 $176 $192 $201 reversed $155 $-1 #
edge $-1 $162 -77.173986022522655 $185 77.173986022522655 $158 $202 forward 7 unknown #
vertex $-1 $201 $203 #
straight-curve $-1 -77.173986022522655 -51.718370362559057 0 0 0 -1 I I #
vertex $-1 $161 $204 #
straight-curve $-1 77.173986022522655 0 -15.775783922048944 0 -1 0 I I #
point $-1 77.173986022522655 -51.718370362559057 -15.775783922048944 #
loop $-1 $-1 $181 $168 #
plane-surface $-1 0 51.718370362559057 0 0 -1 0 0 0 -1 forward_v I I I I #
coedge $-1 $171 $170 $183 $201 forward $103 $-1 #
coedge $-1 $195 $181 $171 $194 reversed $190 $-1 #
edge $-1 $205 -77.173986022522655 $187 77.173986022522655 $193 $206 forward 7 unknown #
coedge $-1 $172 $193 $176 $198 reversed $190 $-1 #
straight-curve $-1 0 51.718370362559057 15.775783922048944 -1 0 0 I I #
point $-1 77.173986022522655 51.718370362559057 15.775783922048944 #
edge $-1 $177 -15.775783922048944 $205 15.775783922048944 $195 $207 forward 7 unknown #
point $-1 -77.173986022522655 51.718370362559057 15.775783922048944 #
straight-curve $-1 77.173986022522655 51.718370362559057 0 0 0 -1 I I #
edge $-1 $185 -51.718370362559057 $205 51.718370362559057 $183 $208 forward 7 unknown #
straight-curve $-1 0 -51.718370362559057 -15.775783922048944 -1 0 0 I I #
point $-1 -77.173986022522655 -51.718370362559057 -15.775783922048944 #
point $-1 77.173986022522655 51.718370362559057 -15.775783922048944 #
vertex $-1 $194 $209 #
straight-curve $-1 0 51.718370362559057 -15.775783922048944 1 0 0 I I #
straight-curve $-1 -77.173986022522655 51.718370362559057 0 0 0 -1 I I #
straight-curve $-1 -77.173986022522655 0 -15.775783922048944 0 1 0 I I #
point $-1 -77.173986022522655 51.718370362559057 -15.775783922048944 #
End-of-ACIS-data 