500 0 4 0           
7 Unknown 11 ACIS 5.0 NT 24 Fri Mar 26 18:29:08 1999 
-1 9.9999999999999995e-007 1e-010 
body $-1 $4 $-1 $5 #
body $-1 $6 $-1 $7 #
body $-1 $8 $-1 $9 #
body $-1 $10 $-1 $11 #
lump $-1 $-1 $12 $0 #
transform $-1 1 0 0 0 1 0 0 0 1 50.703451643421737 22.778874201253782 9.6551088021165619 1 rotate no_reflect no_shear #
lump $-1 $-1 $13 $1 #
transform $-1 1 0 0 0 0.64278759981090561 -0.7660444514056185 0 0.7660444514056185 0.64278759981090561 49.316448903773008 93.955988251183214 113.29646056264212 1 rotate no_reflect no_shear #
lump $-1 $-1 $14 $2 #
transform $-1 1 0 0 0 -0.64278759981090561 0.7660444514056185 0 -0.7660444514056185 -0.64278759981090561 45.975205748659825 40.934612454069679 14.528989361680384 1 rotate no_reflect no_shear #
lump $-1 $-1 $15 $3 #
transform $-1 1 0 0 0 -0.64278759981090561 0.7660444514056185 0 -0.7660444514056185 -0.64278759981090561 52.657692058886184 40.934612454069679 14.528989361680384 1 rotate no_reflect no_shear #
shell $-1 $-1 $-1 $16 $-1 $4 #
shell $-1 $-1 $-1 $17 $-1 $6 #
shell $-1 $-1 $-1 $18 $-1 $8 #
shell $-1 $-1 $-1 $19 $-1 $10 #
face $-1 $20 $21 $12 $-1 $22 forward single #
face $-1 $23 $24 $13 $-1 $25 forward single #
face $-1 $26 $27 $14 $-1 $28 forward single #
face $-1 $29 $30 $15 $-1 $31 forward single #
face $-1 $32 $33 $12 $-1 $34 reversed single #
loop $-1 $-1 $35 $16 #
plane-surface $-1 0 0 9.6551088021165619 0 0 1 1 0 0 forward_v I I I I #
face $-1 $36 $37 $13 $-1 $38 reversed single #
loop $-1 $-1 $39 $17 #
plane-surface $-1 0 0 101.40690328684347 0 0 1 1 0 0 forward_v I I I I #
face $-1 $40 $41 $14 $-1 $42 forward single #
loop $-1 $43 $44 $18 #
cone-surface $-1 0 0 -1.7231666005432285 0 0 1 1.5 0 0 1 I I 0 1 1.5 forward I I I I #
face $-1 $45 $46 $15 $-1 $47 forward single #
loop $-1 $48 $49 $19 #
cone-surface $-1 0 0 -1.7231666005432285 0 0 1 1.5 0 0 1 I I 0 1 1.5 forward I I I I #
face $-1 $50 $51 $12 $-1 $52 reversed single #
loop $-1 $-1 $53 $20 #
plane-surface $-1 0 0 -9.6551088021165619 0 0 1 1 0 0 forward_v I I I I #
coedge $-1 $54 $55 $56 $57 forward $21 $-1 #
face $-1 $58 $59 $13 $-1 $60 reversed single #
loop $-1 $-1 $61 $23 #
plane-surface $-1 0 0 -101.40690328684347 0 0 1 1 0 0 forward_v I I I I #
coedge $-1 $62 $63 $64 $65 forward $24 $-1 #
face $-1 $-1 $66 $14 $-1 $67 forward single #
loop $-1 $-1 $68 $26 #
plane-surface $-1 0 0 -2.6963332010864578 0 0 -1 -1 0 0 forward_v I I I I #
loop $-1 $-1 $69 $18 #
coedge $-1 $44 $44 $68 $70 reversed $27 $-1 #
face $-1 $-1 $71 $15 $-1 $72 forward single #
loop $-1 $-1 $73 $29 #
plane-surface $-1 0 0 -2.6963332010864578 0 0 -1 -1 0 0 forward_v I I I I #
loop $-1 $-1 $74 $19 #
coedge $-1 $49 $49 $73 $75 reversed $30 $-1 #
face $-1 $76 $77 $12 $-1 $78 reversed single #
loop $-1 $-1 $79 $32 #
plane-surface $-1 0 -22.778874201253782 0 0 1 0 0 0 1 forward_v I I I I #
coedge $-1 $80 $81 $82 $83 forward $33 $-1 #
coedge $-1 $84 $35 $85 $86 forward $21 $-1 #
coedge $-1 $35 $84 $87 $88 forward $21 $-1 #
coedge $-1 $89 $90 $35 $57 reversed $91 $-1 #
edge $-1 $92 -22.778874201253782 $93 22.778874201253782 $56 $94 forward 7 unknown #
face $-1 $95 $96 $13 $-1 $97 reversed single #
loop $-1 $-1 $98 $36 #
plane-surface $-1 0 -202.81380657368695 0 0 1 0 0 0 1 forward_v I I I I #
coedge $-1 $99 $100 $101 $102 forward $37 $-1 #
coedge $-1 $103 $39 $104 $105 forward $24 $-1 #
coedge $-1 $39 $103 $106 $107 forward $24 $-1 #
coedge $-1 $108 $109 $39 $65 reversed $110 $-1 #
edge $-1 $111 -202.81380657368695 $112 202.81380657368695 $64 $113 forward 7 unknown #
loop $-1 $114 $115 $40 #
cone-surface $-1 0 0 0 0 0 1 0.75 0 0 1 I I -0.70710678118654757 0.70710678118654757 0.75 forward I I I I #
coedge $-1 $68 $68 $44 $70 forward $41 $-1 #
coedge $-1 $69 $69 $115 $116 forward $43 $-1 #
edge $-1 $117 0 $117 6.2831853071796004 $68 $118 forward 7 unknown #
loop $-1 $119 $120 $45 #
cone-surface $-1 0 0 0 0 0 1 0.75 0 0 1 I I -0.70710678118654757 0.70710678118654757 0.75 forward I I I I #
coedge $-1 $73 $73 $49 $75 forward $46 $-1 #
coedge $-1 $74 $74 $120 $121 forward $48 $-1 #
edge $-1 $122 0 $122 6.2831853071796004 $73 $123 forward 7 unknown #
face $-1 $124 $125 $12 $-1 $126 reversed single #
loop $-1 $-1 $127 $50 #
plane-surface $-1 -50.703451643421737 0 0 1 0 0 0 0 -1 forward_v I I I I #
coedge $-1 $128 $87 $129 $130 forward $51 $-1 #
coedge $-1 $131 $53 $128 $132 forward $33 $-1 #
coedge $-1 $53 $131 $133 $134 forward $33 $-1 #
coedge $-1 $90 $89 $53 $83 reversed $91 $-1 #
edge $-1 $135 -22.778874201253782 $136 22.778874201253782 $82 $137 forward 7 unknown #
coedge $-1 $55 $54 $138 $139 forward $21 $-1 #
coedge $-1 $140 $141 $54 $86 reversed $125 $-1 #
edge $-1 $93 -50.703451643421737 $142 50.703451643421737 $85 $143 forward 7 unknown #
coedge $-1 $79 $144 $55 $88 reversed $51 $-1 #
edge $-1 $145 -50.703451643421737 $92 50.703451643421737 $87 $146 forward 7 unknown #
coedge $-1 $82 $56 $144 $147 forward $91 $-1 #
coedge $-1 $56 $82 $140 $148 reversed $91 $-1 #
loop $-1 $-1 $89 $124 #
vertex $-1 $57 $149 #
vertex $-1 $57 $150 #
straight-curve $-1 50.703451643421737 0 9.6551088021165619 0 1 0 I I #
face $-1 $151 $152 $13 $-1 $153 reversed single #
loop $-1 $-1 $154 $58 #
plane-surface $-1 -7.7962340285974214 0 0 1 0 0 0 0 -1 forward_v I I I I #
coedge $-1 $155 $106 $156 $157 forward $59 $-1 #
coedge $-1 $158 $61 $155 $159 forward $37 $-1 #
coedge $-1 $61 $158 $160 $161 forward $37 $-1 #
coedge $-1 $109 $108 $61 $102 reversed $110 $-1 #
edge $-1 $162 -202.81380657368695 $163 202.81380657368695 $101 $164 forward 7 unknown #
coedge $-1 $63 $62 $165 $166 forward $24 $-1 #
coedge $-1 $167 $168 $62 $105 reversed $152 $-1 #
edge $-1 $112 -7.7962340285974214 $169 7.7962340285974214 $104 $170 forward 7 unknown #
coedge $-1 $98 $171 $63 $107 reversed $59 $-1 #
edge $-1 $172 -7.7962340285974214 $111 7.7962340285974214 $106 $173 forward 7 unknown #
coedge $-1 $101 $64 $171 $174 forward $110 $-1 #
coedge $-1 $64 $101 $167 $175 reversed $110 $-1 #
loop $-1 $-1 $108 $151 #
vertex $-1 $65 $176 #
vertex $-1 $65 $177 #
straight-curve $-1 7.7962340285974214 0 101.40690328684347 0 1 0 I I #
loop $-1 $-1 $178 $40 #
coedge $-1 $115 $115 $69 $116 reversed $66 $-1 #
edge $-1 $179 0 $179 6.2831853071796004 $115 $180 forward 7 unknown #
vertex $-1 $70 $181 #
ellipse-curve $-1 0 0 -2.6963332010864578 0 0 -1 1.5 0 0 1 I I #
loop $-1 $-1 $182 $45 #
coedge $-1 $120 $120 $74 $121 reversed $71 $-1 #
edge $-1 $183 0 $183 6.2831853071796004 $120 $184 forward 7 unknown #
vertex $-1 $75 $185 #
ellipse-curve $-1 0 0 -2.6963332010864578 0 0 -1 1.5 0 0 1 I I #
face $-1 $-1 $91 $12 $-1 $186 reversed single #
loop $-1 $-1 $140 $76 #
plane-surface $-1 0 22.778874201253782 0 0 -1 0 0 0 -1 forward_v I I I I #
coedge $-1 $187 $138 $141 $188 forward $77 $-1 #
coedge $-1 $144 $79 $80 $132 reversed $51 $-1 #
coedge $-1 $138 $187 $79 $130 reversed $77 $-1 #
edge $-1 $145 -9.6551088021165619 $189 9.6551088021165619 $129 $190 forward 7 unknown #
coedge $-1 $81 $80 $187 $191 forward $33 $-1 #
edge $-1 $136 -50.703451643421737 $189 50.703451643421737 $128 $192 forward 7 unknown #
coedge $-1 $141 $140 $81 $134 reversed $125 $-1 #
edge $-1 $193 -50.703451643421737 $135 50.703451643421737 $133 $194 forward 7 unknown #
vertex $-1 $83 $195 #
vertex $-1 $147 $196 #
straight-curve $-1 50.703451643421737 0 -9.6551088021165619 0 -1 0 I I #
coedge $-1 $127 $129 $84 $139 reversed $77 $-1 #
edge $-1 $142 -22.778874201253782 $145 22.778874201253782 $138 $197 forward 7 unknown #
coedge $-1 $133 $85 $90 $148 forward $125 $-1 #
coedge $-1 $85 $133 $127 $188 reversed $125 $-1 #
vertex $-1 $86 $198 #
straight-curve $-1 0 22.778874201253782 9.6551088021165619 -1 0 0 I I #
coedge $-1 $87 $128 $89 $147 reversed $51 $-1 #
vertex $-1 $139 $199 #
straight-curve $-1 0 -22.778874201253782 9.6551088021165619 1 0 0 I I #
edge $-1 $92 -9.6551088021165619 $136 9.6551088021165619 $89 $200 forward 7 unknown #
edge $-1 $93 -9.6551088021165619 $135 9.6551088021165619 $90 $201 forward 7 unknown #
point $-1 50.703451643421737 -22.778874201253782 9.6551088021165619 #
point $-1 50.703451643421737 22.778874201253782 9.6551088021165619 #
face $-1 $-1 $110 $13 $-1 $202 reversed single #
loop $-1 $-1 $167 $95 #
plane-surface $-1 0 202.81380657368695 0 0 -1 0 0 0 -1 forward_v I I I I #
coedge $-1 $203 $165 $168 $204 forward $96 $-1 #
coedge $-1 $171 $98 $99 $159 reversed $59 $-1 #
coedge $-1 $165 $203 $98 $157 reversed $96 $-1 #
edge $-1 $172 -101.40690328684347 $205 101.40690328684347 $156 $206 forward 7 unknown #
coedge $-1 $100 $99 $203 $207 forward $37 $-1 #
edge $-1 $163 -7.7962340285974214 $205 7.7962340285974214 $155 $208 forward 7 unknown #
coedge $-1 $168 $167 $100 $161 reversed $152 $-1 #
edge $-1 $209 -7.7962340285974214 $162 7.7962340285974214 $160 $210 forward 7 unknown #
vertex $-1 $102 $211 #
vertex $-1 $174 $212 #
straight-curve $-1 7.7962340285974214 0 -101.40690328684347 0 -1 0 I I #
coedge $-1 $154 $156 $103 $166 reversed $96 $-1 #
edge $-1 $169 -202.81380657368695 $172 202.81380657368695 $165 $213 forward 7 unknown #
coedge $-1 $160 $104 $109 $175 forward $152 $-1 #
coedge $-1 $104 $160 $154 $204 reversed $152 $-1 #
vertex $-1 $105 $214 #
straight-curve $-1 0 202.81380657368695 101.40690328684347 -1 0 0 I I #
coedge $-1 $106 $155 $108 $174 reversed $59 $-1 #
vertex $-1 $166 $215 #
straight-curve $-1 0 -202.81380657368695 101.40690328684347 1 0 0 I I #
edge $-1 $111 -101.40690328684347 $163 101.40690328684347 $108 $216 forward 7 unknown #
edge $-1 $112 -101.40690328684347 $162 101.40690328684347 $109 $217 forward 7 unknown #
point $-1 7.7962340285974214 -202.81380657368695 101.40690328684347 #
point $-1 7.7962340285974214 202.81380657368695 101.40690328684347 #
coedge $-1 $178 $178 $-1 $218 reversed $114 $-1 #
vertex $-1 $116 $219 #
ellipse-curve $-1 0 0 -0.75 0 0 -1 1.5 0 0 1 I I #
point $-1 1.5 0 -2.6963332010864578 #
coedge $-1 $182 $182 $-1 $220 reversed $119 $-1 #
vertex $-1 $121 $221 #
ellipse-curve $-1 0 0 -0.75 0 0 -1 1.5 0 0 1 I I #
point $-1 1.5 0 -2.6963332010864578 #
plane-surface $-1 50.703451643421737 0 0 -1 0 0 0 0 1 forward_v I I I I #
coedge $-1 $129 $127 $131 $191 reversed $77 $-1 #
edge $-1 $142 -9.6551088021165619 $193 9.6551088021165619 $141 $222 forward 7 unknown #
vertex $-1 $191 $223 #
straight-curve $-1 -50.703451643421737 -22.778874201253782 0 0 0 -1 I I #
edge $-1 $189 -22.778874201253782 $193 22.778874201253782 $187 $224 forward 7 unknown #
straight-curve $-1 0 -22.778874201253782 -9.6551088021165619 -1 0 0 I I #
vertex $-1 $134 $225 #
straight-curve $-1 0 22.778874201253782 -9.6551088021165619 1 0 0 I I #
point $-1 50.703451643421737 22.778874201253782 -9.6551088021165619 #
point $-1 50.703451643421737 -22.778874201253782 -9.6551088021165619 #
straight-curve $-1 -50.703451643421737 0 9.6551088021165619 0 -1 0 I I #
point $-1 -50.703451643421737 22.778874201253782 9.6551088021165619 #
point $-1 -50.703451643421737 -22.778874201253782 9.6551088021165619 #
straight-curve $-1 50.703451643421737 -22.778874201253782 0 0 0 -1 I I #
straight-curve $-1 50.703451643421737 22.778874201253782 0 0 0 -1 I I #
plane-surface $-1 7.7962340285974214 0 0 -1 0 0 0 0 1 forward_v I I I I #
coedge $-1 $156 $154 $158 $207 reversed $96 $-1 #
edge $-1 $169 -101.40690328684347 $209 101.40690328684347 $168 $226 forward 7 unknown #
vertex $-1 $207 $227 #
straight-curve $-1 -7.7962340285974214 -202.81380657368695 0 0 0 -1 I I #
edge $-1 $205 -202.81380657368695 $209 202.81380657368695 $203 $228 forward 7 unknown #
straight-curve $-1 0 -202.81380657368695 -101.40690328684347 -1 0 0 I I #
vertex $-1 $161 $229 #
straight-curve $-1 0 202.81380657368695 -101.40690328684347 1 0 0 I I #
point $-1 7.7962340285974214 202.81380657368695 -101.40690328684347 #
point $-1 7.7962340285974214 -202.81380657368695 -101.40690328684347 #
straight-curve $-1 -7.7962340285974214 0 101.40690328684347 0 -1 0 I I #
point $-1 -7.7962340285974214 202.81380657368695 101.40690328684347 #
point $-1 -7.7962340285974214 -202.81380657368695 101.40690328684347 #
straight-curve $-1 7.7962340285974214 -202.81380657368695 0 0 0 -1 I I #
straight-curve $-1 7.7962340285974214 202.81380657368695 0 0 0 -1 I I #
edge $-1 $230 1 $230 0 $178 $-1 forward 7 unknown #
point $-1 1.5 0 -0.75 #
edge $-1 $231 1 $231 0 $182 $-1 forward 7 unknown #
point $-1 1.5 0 -0.75 #
straight-curve $-1 -50.703451643421737 22.778874201253782 0 0 0 -1 I I #
point $-1 -50.703451643421737 -22.778874201253782 -9.6551088021165619 #
straight-curve $-1 -50.703451643421737 0 -9.6551088021165619 0 1 0 I I #
point $-1 -50.703451643421737 22.778874201253782 -9.6551088021165619 #
straight-curve $-1 -7.7962340285974214 202.81380657368695 0 0 0 -1 I I #
point $-1 -7.7962340285974214 -202.81380657368695 -101.40690328684347 #
straight-curve $-1 -7.7962340285974214 0 -101.40690328684347 0 1 0 I I #
point $-1 -7.7962340285974214 202.81380657368695 -101.40690328684347 #
vertex $-1 $218 $232 #
vertex $-1 $220 $233 #
point $-1 0 0 0.75 #
point $-1 0 0 0.75 #
End-of-ACIS-data 