500 0 8 0           
7 Unknown 11 ACIS 5.0 NT 24 Fri Mar 26 20:30:22 1999 
-1 9.9999999999999995e-007 1e-010 
body $-1 $8 $-1 $9 #
body $-1 $10 $-1 $11 #
body $-1 $12 $-1 $13 #
body $-1 $14 $-1 $15 #
body $-1 $16 $-1 $17 #
body $-1 $18 $-1 $19 #
body $-1 $20 $-1 $21 #
body $-1 $22 $-1 $23 #
lump $-1 $-1 $24 $0 #
transform $-1 1 0 0 0 1 0 0 0 1 60.857570116275518 24.735843259364369 12.26646292628979 1 rotate no_reflect no_shear #
lump $-1 $-1 $25 $1 #
transform $-1 1 0 0 0 1 0 0 0 1 60.857570116275518 24.735843259364369 12.26646292628979 1 rotate no_reflect no_shear #
lump $-1 $-1 $26 $2 #
transform $-1 1 0 0 0 1 0 0 0 1 60.857570116275518 24.735843259364369 12.26646292628979 1 rotate no_reflect no_shear #
lump $-1 $-1 $27 $3 #
transform $-1 1 0 0 0 1 0 0 0 1 60.857570116275518 24.735843259364369 12.26646292628979 1 rotate no_reflect no_shear #
lump $-1 $-1 $28 $4 #
transform $-1 1 0 0 0 1 0 0 0 1 60.857570116275518 24.735843259364369 12.26646292628979 1 rotate no_reflect no_shear #
lump $-1 $-1 $29 $5 #
transform $-1 1 0 0 0 1 0 0 0 1 60.857570116275518 24.735843259364369 12.26646292628979 1 rotate no_reflect no_shear #
lump $-1 $-1 $30 $6 #
transform $-1 1 0 0 0 1 0 0 0 1 60.857570116275518 24.735843259364369 12.26646292628979 1 rotate no_reflect no_shear #
lump $-1 $-1 $31 $7 #
transform $-1 1 0 0 0 1 0 0 0 1 60.857570116275518 24.735843259364369 12.26646292628979 1 rotate no_reflect no_shear #
shell $-1 $-1 $-1 $32 $-1 $8 #
shell $-1 $-1 $-1 $33 $-1 $10 #
shell $-1 $-1 $-1 $34 $-1 $12 #
shell $-1 $-1 $-1 $35 $-1 $14 #
shell $-1 $-1 $-1 $36 $-1 $16 #
shell $-1 $-1 $-1 $37 $-1 $18 #
shell $-1 $-1 $-1 $38 $-1 $20 #
shell $-1 $-1 $-1 $39 $-1 $22 #
face $-1 $40 $41 $24 $-1 $42 forward single #
face $-1 $43 $44 $25 $-1 $45 forward single #
face $-1 $46 $47 $26 $-1 $48 reversed single #
face $-1 $49 $50 $27 $-1 $51 forward single #
face $-1 $52 $53 $28 $-1 $54 forward single #
face $-1 $55 $56 $29 $-1 $57 reversed single #
face $-1 $58 $59 $30 $-1 $60 forward single #
face $-1 $61 $62 $31 $-1 $63 forward single #
face $-1 $64 $65 $24 $-1 $66 reversed single #
loop $-1 $-1 $67 $32 #
plane-surface $-1 0 0 12.26646292628979 0 0 1 1 0 0 forward_v I I I I #
face $-1 $68 $69 $25 $-1 $70 reversed single #
loop $-1 $-1 $71 $33 #
plane-surface $-1 -56.058286080088727 0 -1.470635454413241 0 0 1 1 0 0 forward_v I I I I #
face $-1 $72 $73 $26 $-1 $74 reversed single #
loop $-1 $-1 $75 $34 #
plane-surface $-1 10.446084350123854 96.063257112779837 118.93767505907337 1 0 0 0 -0.81915205242281985 -0.57357642473473569 forward_v I I I I #
face $-1 $76 $77 $27 $-1 $78 forward single #
loop $-1 $79 $80 $35 #
cone-surface $-1 19.181116406839472 23.042592061338951 10.146396520659914 0 -0.81915205242281985 -0.57357642473473569 0.25 0 0 1 I I 0 1 0.25 forward I I I I #
face $-1 $81 $82 $28 $-1 $83 forward single #
loop $-1 $84 $85 $36 #
cone-surface $-1 32.283664491912894 23.042592061338951 10.146396520659914 0 -0.81915205242281985 -0.57357642473473569 0.25 0 0 1 I I 0 1 0.25 forward I I I I #
face $-1 $86 $87 $29 $-1 $88 reversed single #
loop $-1 $-1 $89 $37 #
plane-surface $-1 -19.29720779342329 -101.33366385835748 102.70052821079346 -1 0 0 0 -0.62932039886446345 0.77714595512881146 forward_v I I I I #
face $-1 $90 $91 $30 $-1 $92 forward single #
loop $-1 $93 $94 $38 #
cone-surface $-1 -42.127060829479461 -21.592796721510972 9.4761088010897438 0 0.62932039886446345 -0.77714595512881146 1 0 0 1 I I 0 1 1 forward I I I I #
face $-1 $95 $96 $31 $-1 $97 forward single #
loop $-1 $98 $99 $39 #
cone-surface $-1 -28.429149007845758 -21.592796721510972 9.4761088010897438 0 0.62932039886446345 -0.77714595512881146 1 0 0 1 I I 0 1 1 forward I I I I #
face $-1 $100 $101 $24 $-1 $102 reversed single #
loop $-1 $-1 $103 $40 #
plane-surface $-1 0 0 -12.26646292628979 0 0 1 1 0 0 forward_v I I I I #
coedge $-1 $104 $105 $106 $107 forward $41 $-1 #
face $-1 $108 $109 $25 $-1 $110 reversed single #
loop $-1 $-1 $111 $43 #
plane-surface $-1 -56.058286080088727 0 -8.0496104218866744 0 0 1 1 0 0 forward_v I I I I #
coedge $-1 $112 $113 $114 $115 forward $44 $-1 #
face $-1 $116 $117 $26 $-1 $118 reversed single #
loop $-1 $-1 $119 $46 #
plane-surface $-1 25.732390449376176 -3.639949819645679 49.124740088399761 0 0.81915205242281985 0.57357642473473569 1 0 0 forward_v I I I I #
coedge $-1 $120 $121 $122 $123 reversed $47 $-1 #
face $-1 $-1 $124 $27 $-1 $125 forward single #
loop $-1 $126 $127 $49 #
cone-surface $-1 19.181116406839472 22.530622028574687 9.7879112552007044 0 -0.81915205242281985 -0.57357642473473569 0.125 0 0 1 I I -0.70710678118654746 0.70710678118654746 0.125 forward I I I I #
loop $-1 $-1 $128 $35 #
coedge $-1 $80 $80 $129 $130 reversed $50 $-1 #
face $-1 $-1 $131 $28 $-1 $132 forward single #
loop $-1 $133 $134 $52 #
cone-surface $-1 32.283664491912894 22.530622028574687 9.7879112552007044 0 -0.81915205242281985 -0.57357642473473569 0.125 0 0 1 I I -0.70710678118654746 0.70710678118654746 0.125 forward I I I I #
loop $-1 $-1 $135 $36 #
coedge $-1 $85 $85 $136 $137 reversed $53 $-1 #
face $-1 $138 $139 $29 $-1 $140 reversed single #
loop $-1 $-1 $141 $55 #
plane-surface $-1 -35.278104918662613 -24.735843259364373 8.1100993011303757 0 -0.62932039886446345 0.77714595512881146 1 0 0 forward_v I I I I #
coedge $-1 $142 $143 $144 $145 reversed $56 $-1 #
face $-1 $-1 $146 $30 $-1 $147 forward single #
loop $-1 $148 $149 $58 #
cone-surface $-1 -42.127060829479461 -20.701430742577941 8.3753635109050073 0 0.62932039886446345 -0.77714595512881146 0.5 0 0 1 I I -0.70710678118654746 0.70710678118654746 0.5 forward I I I I #
loop $-1 $-1 $150 $38 #
coedge $-1 $94 $94 $151 $152 reversed $59 $-1 #
face $-1 $-1 $153 $31 $-1 $154 forward single #
loop $-1 $155 $156 $61 #
cone-surface $-1 -28.429149007845758 -20.701430742577941 8.3753635109050073 0 0.62932039886446345 -0.77714595512881146 0.5 0 0 1 I I -0.70710678118654746 0.70710678118654746 0.5 forward I I I I #
loop $-1 $-1 $157 $39 #
coedge $-1 $99 $99 $158 $159 reversed $62 $-1 #
face $-1 $160 $161 $24 $-1 $162 reversed single #
loop $-1 $-1 $163 $64 #
plane-surface $-1 0 -24.735843259364369 0 0 1 0 0 0 1 forward_v I I I I #
coedge $-1 $164 $165 $166 $167 forward $65 $-1 #
coedge $-1 $168 $67 $169 $170 forward $41 $-1 #
coedge $-1 $67 $168 $171 $172 forward $41 $-1 #
coedge $-1 $173 $174 $67 $107 reversed $175 $-1 #
edge $-1 $176 -24.735843259364369 $177 24.735843259364369 $106 $178 forward 7 unknown #
face $-1 $179 $180 $25 $-1 $181 reversed single #
loop $-1 $-1 $182 $68 #
plane-surface $-1 -51.259002043901937 0 -4.7601229381499577 -1 0 0 0 0 1 forward_v I I I I #
coedge $-1 $183 $184 $185 $186 forward $69 $-1 #
coedge $-1 $187 $71 $188 $189 reversed $44 $-1 #
coedge $-1 $71 $187 $190 $191 reversed $44 $-1 #
coedge $-1 $182 $192 $71 $115 reversed $109 $-1 #
edge $-1 $193 -24.735843259364369 $194 24.735843259364369 $114 $195 forward 7 unknown #
face $-1 $196 $197 $26 $-1 $198 forward single #
loop $-1 $-1 $199 $72 #
plane-surface $-1 41.018696548628498 96.063257112779837 118.93767505907337 -1 0 0 0 0.81915205242281985 0.57357642473473569 forward_v I I I I #
coedge $-1 $200 $201 $202 $203 reversed $73 $-1 #
coedge $-1 $121 $75 $204 $205 reversed $47 $-1 #
coedge $-1 $75 $120 $200 $206 reversed $47 $-1 #
coedge $-1 $202 $207 $75 $123 forward $197 $-1 #
edge $-1 $208 23.295785297025549 $209 25.863135640653578 $122 $210 forward 7 unknown #
loop $-1 $-1 $129 $76 #
plane-surface $-1 25.732390449376176 -3.639949819645679 49.124740088399761 0 0.81915205242281985 0.57357642473473569 1 0 0 forward_v I I I I #
loop $-1 $-1 $211 $49 #
coedge $-1 $127 $127 $128 $212 reversed $77 $-1 #
coedge $-1 $128 $128 $127 $212 forward $79 $-1 #
coedge $-1 $129 $129 $80 $130 forward $124 $-1 #
edge $-1 $213 -8.1510112399703259e-015 $213 6.2831853071795924 $129 $214 forward 7 unknown #
loop $-1 $-1 $136 $81 #
plane-surface $-1 25.732390449376176 -3.639949819645679 49.124740088399761 0 0.81915205242281985 0.57357642473473569 1 0 0 forward_v I I I I #
loop $-1 $-1 $215 $52 #
coedge $-1 $134 $134 $135 $216 reversed $82 $-1 #
coedge $-1 $135 $135 $134 $216 forward $84 $-1 #
coedge $-1 $136 $136 $85 $137 forward $131 $-1 #
edge $-1 $217 -8.1510112399703259e-015 $217 6.2831853071795924 $136 $218 forward 7 unknown #
face $-1 $219 $220 $29 $-1 $221 reversed single #
loop $-1 $-1 $222 $86 #
plane-surface $-1 -51.259002043901937 -101.33366385835748 102.70052821079346 1 0 0 0 0.62932039886446345 -0.77714595512881146 forward_v I I I I #
coedge $-1 $223 $224 $225 $226 reversed $87 $-1 #
coedge $-1 $143 $89 $227 $228 reversed $56 $-1 #
coedge $-1 $89 $142 $223 $229 reversed $56 $-1 #
coedge $-1 $225 $230 $89 $145 forward $231 $-1 #
edge $-1 $232 25.930988669814372 $233 31.063670186519548 $144 $234 forward 7 unknown #
loop $-1 $-1 $151 $90 #
plane-surface $-1 -35.278104918662613 -24.735843259364373 8.1100993011303757 0 -0.62932039886446345 0.77714595512881146 1 0 0 forward_v I I I I #
loop $-1 $-1 $235 $58 #
coedge $-1 $149 $149 $150 $236 reversed $91 $-1 #
coedge $-1 $150 $150 $149 $236 forward $93 $-1 #
coedge $-1 $151 $151 $94 $152 forward $146 $-1 #
edge $-1 $237 4.5764803275294441e-016 $237 6.2831853071796013 $151 $238 forward 7 unknown #
loop $-1 $-1 $158 $95 #
plane-surface $-1 -35.278104918662613 -24.735843259364373 8.1100993011303757 0 -0.62932039886446345 0.77714595512881146 1 0 0 forward_v I I I I #
loop $-1 $-1 $239 $61 #
coedge $-1 $156 $156 $157 $240 reversed $96 $-1 #
coedge $-1 $157 $157 $156 $240 forward $98 $-1 #
coedge $-1 $158 $158 $99 $159 forward $153 $-1 #
edge $-1 $241 4.5764803275294441e-016 $241 6.2831853071796013 $158 $242 forward 7 unknown #
face $-1 $243 $244 $24 $-1 $245 reversed single #
loop $-1 $-1 $246 $100 #
plane-surface $-1 -60.857570116275518 0 0 1 0 0 0 0 -1 forward_v I I I I #
coedge $-1 $247 $171 $248 $249 forward $101 $-1 #
coedge $-1 $250 $103 $247 $251 forward $65 $-1 #
coedge $-1 $103 $250 $252 $253 forward $65 $-1 #
coedge $-1 $174 $173 $103 $167 reversed $175 $-1 #
edge $-1 $254 -24.735843259364369 $255 24.735843259364369 $166 $256 forward 7 unknown #
coedge $-1 $105 $104 $257 $258 forward $41 $-1 #
coedge $-1 $259 $260 $104 $170 reversed $244 $-1 #
edge $-1 $177 -60.857570116275518 $261 60.857570116275518 $169 $262 forward 7 unknown #
coedge $-1 $163 $263 $105 $172 reversed $101 $-1 #
edge $-1 $264 -60.857570116275518 $176 60.857570116275518 $171 $265 forward 7 unknown #
coedge $-1 $166 $106 $263 $266 forward $175 $-1 #
coedge $-1 $106 $166 $259 $267 reversed $175 $-1 #
loop $-1 $-1 $173 $243 #
vertex $-1 $107 $268 #
vertex $-1 $107 $269 #
straight-curve $-1 60.857570116275518 0 12.26646292628979 0 1 0 I I #
face $-1 $270 $271 $25 $-1 $272 reversed single #
loop $-1 $-1 $273 $108 #
plane-surface $-1 0 -24.735843259364369 0 0 1 0 0 0 1 forward_v I I I I #
coedge $-1 $185 $114 $274 $275 reversed $109 $-1 #
coedge $-1 $276 $111 $273 $277 reversed $69 $-1 #
coedge $-1 $111 $276 $278 $279 reversed $69 $-1 #
coedge $-1 $192 $182 $111 $186 reversed $109 $-1 #
edge $-1 $280 -24.735843259364369 $281 24.735843259364369 $185 $282 forward 7 unknown #
coedge $-1 $113 $112 $283 $284 reversed $44 $-1 #
coedge $-1 $285 $286 $112 $189 forward $287 $-1 #
edge $-1 $288 -32.828427076231151 $194 -23.229859003857573 $188 $289 forward 7 unknown #
coedge $-1 $290 $274 $113 $191 forward $180 $-1 #
edge $-1 $193 23.229859003857573 $291 32.828427076231151 $190 $292 forward 7 unknown #
coedge $-1 $114 $185 $285 $293 reversed $109 $-1 #
vertex $-1 $191 $294 #
vertex $-1 $189 $295 #
straight-curve $-1 -51.259002043901937 0 -1.470635454413241 0 1 0 I I #
face $-1 $-1 $296 $26 $-1 $297 reversed single #
loop $-1 $-1 $122 $116 #
plane-surface $-1 0 0 12.26646292628979 0 0 1 1 0 0 forward_v I I I I #
coedge $-1 $298 $299 $300 $301 reversed $117 $-1 #
coedge $-1 $302 $119 $121 $206 forward $73 $-1 #
coedge $-1 $119 $302 $298 $303 forward $73 $-1 #
coedge $-1 $300 $122 $119 $203 forward $197 $-1 #
edge $-1 $209 -2.4201108745642337 $304 28.15250132394041 $202 $305 forward 7 unknown #
coedge $-1 $306 $307 $120 $205 forward $296 $-1 #
edge $-1 $308 -50.868930989771911 $208 -47.202374603246895 $204 $309 forward 7 unknown #
edge $-1 $209 44.995647698243111 $308 49.471686518728738 $121 $310 forward 7 unknown #
coedge $-1 $122 $300 $306 $311 forward $197 $-1 #
vertex $-1 $205 $312 #
vertex $-1 $123 $313 #
straight-curve $-1 10.446084350123854 48.031628556389919 12.26646292628979 0 -1 0 I I #
coedge $-1 $211 $211 $-1 $314 reversed $126 $-1 #
edge $-1 $315 0 $315 6.2831853071796004 $127 $316 forward 7 unknown #
vertex $-1 $130 $317 #
ellipse-curve $-1 19.181116406839472 23.452168087550362 10.433184733027282 0 0.81915205242281985 0.57357642473473569 0.25 0 0 1 I I #
coedge $-1 $215 $215 $-1 $318 reversed $133 $-1 #
edge $-1 $319 0 $319 6.2831853071796004 $134 $320 forward 7 unknown #
vertex $-1 $137 $321 #
ellipse-curve $-1 32.283664491912894 23.452168087550362 10.433184733027282 0 0.81915205242281985 0.57357642473473569 0.25 0 0 1 I I #
face $-1 $-1 $231 $29 $-1 $322 forward single #
loop $-1 $-1 $323 $138 #
plane-surface $-1 0 -24.735843259364369 0 0 1 0 0 0 1 forward_v I I I I #
coedge $-1 $324 $325 $326 $327 reversed $139 $-1 #
coedge $-1 $328 $141 $143 $229 forward $87 $-1 #
coedge $-1 $141 $328 $324 $329 forward $87 $-1 #
coedge $-1 $326 $144 $141 $226 forward $231 $-1 #
edge $-1 $233 1.6581553340919832 $330 33.619949584570634 $225 $331 forward 7 unknown #
coedge $-1 $332 $333 $142 $228 forward $220 $-1 #
edge $-1 $334 -43.240164804266357 $232 -39.083801179106942 $227 $335 forward 7 unknown #
edge $-1 $233 -6.6045270940829139 $334 -4.9967722546045753e-015 $143 $336 forward 7 unknown #
coedge $-1 $144 $326 $332 $337 forward $231 $-1 #
loop $-1 $-1 $326 $219 #
vertex $-1 $228 $338 #
vertex $-1 $145 $339 #
straight-curve $-1 -19.29720779342329 -50.666831929178741 12.26646292628979 0 1 0 I I #
coedge $-1 $235 $235 $-1 $340 reversed $148 $-1 #
edge $-1 $341 0 $341 6.2831853071796004 $149 $342 forward 7 unknown #
vertex $-1 $152 $343 #
ellipse-curve $-1 -42.127060829479461 -22.169502501011781 10.188281113710087 0 -0.62932039886446345 0.77714595512881146 1 0 0 1 I I #
coedge $-1 $239 $239 $-1 $344 reversed $155 $-1 #
edge $-1 $345 0 $345 6.2831853071796004 $156 $346 forward 7 unknown #
vertex $-1 $159 $347 #
ellipse-curve $-1 -28.429149007845758 -22.169502501011781 10.188281113710087 0 -0.62932039886446345 0.77714595512881146 1 0 0 1 I I #
face $-1 $-1 $175 $24 $-1 $348 reversed single #
loop $-1 $-1 $259 $160 #
plane-surface $-1 0 24.735843259364369 0 0 -1 0 0 0 -1 forward_v I I I I #
coedge $-1 $349 $257 $260 $350 forward $161 $-1 #
coedge $-1 $263 $163 $164 $251 reversed $101 $-1 #
coedge $-1 $257 $349 $163 $249 reversed $161 $-1 #
edge $-1 $264 -12.26646292628979 $351 12.26646292628979 $248 $352 forward 7 unknown #
coedge $-1 $165 $164 $349 $353 forward $65 $-1 #
edge $-1 $255 -60.857570116275518 $351 60.857570116275518 $247 $354 forward 7 unknown #
coedge $-1 $260 $259 $165 $253 reversed $244 $-1 #
edge $-1 $355 -60.857570116275518 $254 60.857570116275518 $252 $356 forward 7 unknown #
vertex $-1 $167 $357 #
vertex $-1 $266 $358 #
straight-curve $-1 60.857570116275518 0 -12.26646292628979 0 -1 0 I I #
coedge $-1 $246 $248 $168 $258 reversed $161 $-1 #
edge $-1 $261 -24.735843259364369 $264 24.735843259364369 $257 $359 forward 7 unknown #
coedge $-1 $252 $169 $174 $267 forward $244 $-1 #
coedge $-1 $169 $252 $246 $350 reversed $244 $-1 #
vertex $-1 $170 $360 #
straight-curve $-1 0 24.735843259364369 12.26646292628979 -1 0 0 I I #
coedge $-1 $171 $247 $173 $266 reversed $101 $-1 #
vertex $-1 $258 $361 #
straight-curve $-1 0 -24.735843259364369 12.26646292628979 1 0 0 I I #
edge $-1 $176 -12.26646292628979 $255 12.26646292628979 $173 $362 forward 7 unknown #
edge $-1 $177 -12.26646292628979 $254 12.26646292628979 $174 $363 forward 7 unknown #
point $-1 60.857570116275518 -24.735843259364369 12.26646292628979 #
point $-1 60.857570116275518 24.735843259364369 12.26646292628979 #
face $-1 $-1 $287 $25 $-1 $364 reversed single #
loop $-1 $-1 $365 $179 #
plane-surface $-1 -60.857570116275518 0 0 1 0 0 0 0 -1 forward_v I I I I #
coedge $-1 $274 $290 $183 $277 forward $180 $-1 #
coedge $-1 $190 $273 $182 $275 forward $180 $-1 #
edge $-1 $281 -5.6695489528116951 $193 0.90942601466173789 $274 $366 forward 7 unknown #
coedge $-1 $184 $183 $365 $367 reversed $69 $-1 #
edge $-1 $368 -32.828427076231151 $281 -23.229859003857573 $273 $369 forward 7 unknown #
coedge $-1 $286 $285 $184 $279 forward $287 $-1 #
edge $-1 $280 23.229859003857573 $370 32.828427076231151 $278 $371 forward 7 unknown #
vertex $-1 $279 $372 #
vertex $-1 $277 $373 #
straight-curve $-1 -51.259002043901937 0 -8.0496104218866744 0 -1 0 I I #
coedge $-1 $374 $375 $187 $284 forward $271 $-1 #
edge $-1 $291 -24.735843259364369 $288 24.735843259364369 $283 $376 forward 7 unknown #
coedge $-1 $278 $188 $192 $293 forward $287 $-1 #
coedge $-1 $188 $278 $374 $377 reversed $287 $-1 #
loop $-1 $-1 $278 $270 #
vertex $-1 $377 $378 #
straight-curve $-1 -28.029143040044364 24.735843259364369 -1.470635454413241 1 0 0 I I #
coedge $-1 $273 $190 $375 $379 forward $180 $-1 #
vertex $-1 $379 $380 #
straight-curve $-1 -28.029143040044364 -24.735843259364369 -1.470635454413241 -1 0 0 I I #
edge $-1 $194 -0.90942601466173789 $280 5.6695489528116951 $285 $381 forward 7 unknown #
point $-1 -51.259002043901937 -24.735843259364369 -1.470635454413241 #
point $-1 -51.259002043901937 24.735843259364369 -1.470635454413241 #
loop $-1 $-1 $204 $196 #
plane-surface $-1 0 24.735843259364369 0 0 -1 0 0 0 -1 forward_v I I I I #
coedge $-1 $299 $199 $201 $303 reversed $117 $-1 #
coedge $-1 $199 $298 $382 $383 reversed $117 $-1 #
coedge $-1 $207 $202 $199 $301 forward $197 $-1 #
edge $-1 $304 -25.863135640653578 $384 -23.295785297025549 $300 $385 forward 7 unknown #
coedge $-1 $201 $200 $307 $386 reversed $73 $-1 #
edge $-1 $387 -49.471686518728738 $304 -44.995647698243111 $298 $388 forward 7 unknown #
vertex $-1 $203 $389 #
straight-curve $-1 12.866195224688088 22.168492915736344 12.26646292628979 1 0 0 I I #
coedge $-1 $382 $204 $207 $311 reversed $296 $-1 #
coedge $-1 $204 $382 $302 $386 forward $296 $-1 #
vertex $-1 $205 $390 #
straight-curve $-1 10.446084350123854 24.735843259364373 59.468837529536685 0 0 1 I I #
straight-curve $-1 10.446084350123854 -3.639949819645679 49.124740088399761 0 0.57357642473473569 -0.81915205242281985 I I #
edge $-1 $384 -41.018696548628498 $208 -10.446084350123854 $306 $391 forward 7 unknown #
point $-1 10.446084350123854 24.735843259364369 12.26646292628979 #
point $-1 10.446084350123854 22.168492915736341 12.26646292628979 #
edge $-1 $392 1 $392 0 $211 $-1 forward 7 unknown #
vertex $-1 $212 $393 #
ellipse-curve $-1 19.181116406839472 22.63301603512754 9.8596083082925468 0 0.81915205242281985 0.57357642473473569 0.25 0 0 1 I I #
point $-1 19.431116406839472 23.452168087550358 10.433184733027282 #
edge $-1 $394 1 $394 0 $215 $-1 forward 7 unknown #
vertex $-1 $216 $395 #
ellipse-curve $-1 32.283664491912894 22.63301603512754 9.8596083082925468 0 0.81915205242281985 0.57357642473473569 0.25 0 0 1 I I #
point $-1 32.533664491912894 23.452168087550358 10.433184733027282 #
plane-surface $-1 0 0 12.26646292628979 0 0 1 1 0 0 forward_v I I I I #
coedge $-1 $333 $332 $325 $396 forward $220 $-1 #
coedge $-1 $325 $222 $224 $329 reversed $139 $-1 #
coedge $-1 $222 $324 $323 $396 reversed $139 $-1 #
coedge $-1 $230 $225 $222 $327 forward $231 $-1 #
edge $-1 $330 -31.063670186519548 $397 -25.930988669814372 $326 $398 forward 7 unknown #
coedge $-1 $224 $223 $333 $399 reversed $87 $-1 #
edge $-1 $400 4.9967722546045753e-015 $330 6.6045270940829139 $324 $401 forward 7 unknown #
vertex $-1 $226 $402 #
straight-curve $-1 -17.639052459331307 -19.603161742659193 12.26646292628979 -1 0 0 I I #
coedge $-1 $323 $227 $230 $337 reversed $220 $-1 #
coedge $-1 $227 $323 $328 $399 forward $220 $-1 #
vertex $-1 $228 $403 #
straight-curve $-1 -19.29720779342329 -24.735843259364373 51.350264105396732 0 0 1 I I #
straight-curve $-1 -19.29720779342329 -24.735843259364373 8.1100993011303757 0 -0.77714595512881146 -0.62932039886446345 I I #
edge $-1 $397 -51.259002043901937 $232 -19.29720779342329 $332 $404 forward 7 unknown #
point $-1 -19.29720779342329 -24.735843259364369 12.26646292628979 #
point $-1 -19.29720779342329 -19.603161742659193 12.26646292628979 #
edge $-1 $405 1 $405 0 $235 $-1 forward 7 unknown #
vertex $-1 $236 $406 #
ellipse-curve $-1 -42.127060829479461 -21.016090942010173 8.7639364884694135 0 -0.62932039886446345 0.77714595512881146 1 0 0 1 I I #
point $-1 -41.127060829479461 -22.16950250101177 10.188281113710074 #
edge $-1 $407 1 $407 0 $239 $-1 forward 7 unknown #
vertex $-1 $240 $408 #
ellipse-curve $-1 -28.429149007845758 -21.016090942010173 8.7639364884694135 0 -0.62932039886446345 0.77714595512881146 1 0 0 1 I I #
point $-1 -27.429149007845758 -22.16950250101177 10.188281113710074 #
plane-surface $-1 60.857570116275518 0 0 -1 0 0 0 0 1 forward_v I I I I #
coedge $-1 $248 $246 $250 $353 reversed $161 $-1 #
edge $-1 $261 -12.26646292628979 $355 12.26646292628979 $260 $409 forward 7 unknown #
vertex $-1 $353 $410 #
straight-curve $-1 -60.857570116275518 -24.735843259364369 0 0 0 -1 I I #
edge $-1 $351 -24.735843259364369 $355 24.735843259364369 $349 $411 forward 7 unknown #
straight-curve $-1 0 -24.735843259364369 -12.26646292628979 -1 0 0 I I #
vertex $-1 $253 $412 #
straight-curve $-1 0 24.735843259364369 -12.26646292628979 1 0 0 I I #
point $-1 60.857570116275518 24.735843259364369 -12.26646292628979 #
point $-1 60.857570116275518 -24.735843259364369 -12.26646292628979 #
straight-curve $-1 -60.857570116275518 0 12.26646292628979 0 -1 0 I I #
point $-1 -60.857570116275518 24.735843259364369 12.26646292628979 #
point $-1 -60.857570116275518 -24.735843259364369 12.26646292628979 #
straight-curve $-1 60.857570116275518 -24.735843259364369 0 0 0 -1 I I #
straight-curve $-1 60.857570116275518 24.735843259364369 0 0 0 -1 I I #
plane-surface $-1 0 24.735843259364369 0 0 -1 0 0 0 -1 forward_v I I I I #
coedge $-1 $375 $374 $276 $367 forward $271 $-1 #
straight-curve $-1 -51.259002043901937 -24.735843259364369 -2.3800614690749788 0 0 1 I I #
edge $-1 $370 -24.735843259364369 $368 24.735843259364369 $365 $413 forward 7 unknown #
vertex $-1 $277 $414 #
straight-curve $-1 -28.029143040044364 -24.735843259364369 -8.0496104218866744 1 0 0 I I #
vertex $-1 $279 $415 #
straight-curve $-1 -28.029143040044364 24.735843259364369 -8.0496104218866744 -1 0 0 I I #
point $-1 -51.259002043901937 24.735843259364369 -8.0496104218866744 #
point $-1 -51.259002043901937 -24.735843259364369 -8.0496104218866744 #
coedge $-1 $365 $283 $286 $377 forward $271 $-1 #
coedge $-1 $283 $365 $290 $379 reversed $271 $-1 #
straight-curve $-1 -60.857570116275518 0 -1.470635454413241 0 1 0 I I #
edge $-1 $288 1.470635454413241 $370 8.0496104218866744 $286 $416 forward 7 unknown #
point $-1 -60.857570116275518 24.735843259364369 -1.470635454413241 #
edge $-1 $291 1.470635454413241 $368 8.0496104218866744 $375 $417 forward 7 unknown #
point $-1 -60.857570116275518 -24.735843259364369 -1.470635454413241 #
straight-curve $-1 -51.259002043901937 24.735843259364369 -2.3800614690749788 0 0 -1 I I #
coedge $-1 $307 $306 $299 $383 forward $296 $-1 #
edge $-1 $384 47.202374603246895 $387 50.868930989771911 $382 $418 forward 7 unknown #
vertex $-1 $311 $419 #
straight-curve $-1 41.018696548628498 48.031628556389919 12.26646292628979 0 1 0 I I #
edge $-1 $387 -28.15250132394041 $308 2.4201108745642337 $307 $420 forward 7 unknown #
vertex $-1 $386 $421 #
straight-curve $-1 41.018696548628498 -3.639949819645679 49.124740088399761 0 -0.57357642473473569 0.81915205242281985 I I #
point $-1 41.018696548628498 22.168492915736341 12.26646292628979 #
point $-1 10.446084350123854 24.735843259364369 8.599906539764774 #
straight-curve $-1 0 24.735843259364369 12.26646292628979 -1 0 0 I I #
vertex $-1 $314 $422 #
point $-1 19.431116406839472 22.63301603512754 9.8596083082925468 #
vertex $-1 $318 $423 #
point $-1 32.533664491912894 22.63301603512754 9.8596083082925468 #
edge $-1 $397 39.083801179106942 $400 43.240164804266357 $323 $424 forward 7 unknown #
vertex $-1 $337 $425 #
straight-curve $-1 -51.259002043901937 -50.666831929178741 12.26646292628979 0 -1 0 I I #
edge $-1 $400 -33.619949584570634 $334 -1.6581553340919832 $333 $426 forward 7 unknown #
vertex $-1 $399 $427 #
straight-curve $-1 -51.259002043901937 -24.735843259364373 8.1100993011303757 0 0.77714595512881146 0.62932039886446345 I I #
point $-1 -51.259002043901937 -19.603161742659193 12.26646292628979 #
point $-1 -19.29720779342329 -24.735843259364369 8.1100993011303792 #
straight-curve $-1 0 -24.735843259364369 12.26646292628979 1 0 0 I I #
vertex $-1 $340 $428 #
point $-1 -41.127060829479461 -21.016090942010173 8.7639364884694135 #
vertex $-1 $344 $429 #
point $-1 -27.429149007845758 -21.016090942010173 8.7639364884694135 #
straight-curve $-1 -60.857570116275518 24.735843259364369 0 0 0 -1 I I #
point $-1 -60.857570116275518 -24.735843259364369 -12.26646292628979 #
straight-curve $-1 -60.857570116275518 0 -12.26646292628979 0 1 0 I I #
point $-1 -60.857570116275518 24.735843259364369 -12.26646292628979 #
straight-curve $-1 -60.857570116275518 0 -8.0496104218866744 0 -1 0 I I #
point $-1 -60.857570116275518 -24.735843259364369 -8.0496104218866744 #
point $-1 -60.857570116275518 24.735843259364369 -8.0496104218866744 #
straight-curve $-1 -60.857570116275518 24.735843259364369 0 0 0 -1 I I #
straight-curve $-1 -60.857570116275518 -24.735843259364369 0 0 0 -1 I I #
straight-curve $-1 41.018696548628498 24.735843259364373 59.468837529536685 0 0 -1 I I #
point $-1 41.018696548628498 24.735843259364369 12.26646292628979 #
straight-curve $-1 12.866195224688088 24.735843259364373 8.599906539764774 -1 0 0 I I #
point $-1 41.018696548628498 24.735843259364369 8.599906539764774 #
point $-1 19.181116406839472 22.428228022021834 9.716214202108862 #
point $-1 32.283664491912894 22.428228022021834 9.716214202108862 #
straight-curve $-1 -51.259002043901937 -24.735843259364373 51.350264105396732 0 0 -1 I I #
point $-1 -51.259002043901937 -24.735843259364369 12.26646292628979 #
straight-curve $-1 -17.639052459331307 -24.735843259364369 8.1100993011303792 1 0 0 I I #
point $-1 -51.259002043901937 -24.735843259364369 8.1100993011303792 #
point $-1 -42.127060829479461 -20.386770543145708 7.986790533340602 #
point $-1 -28.429149007845758 -20.386770543145708 7.986790533340602 #
End-of-ACIS-data 