500 0 11 0           
7 Unknown 11 ACIS 5.0 NT 24 Fri Mar 26 18:59:34 1999 
-1 9.9999999999999995e-007 1e-010 
body $-1 $11 $-1 $12 #
body $-1 $13 $-1 $14 #
body $-1 $15 $-1 $16 #
body $-1 $17 $-1 $18 #
body $-1 $19 $-1 $20 #
body $-1 $21 $-1 $22 #
body $-1 $23 $-1 $24 #
body $-1 $25 $-1 $26 #
body $-1 $27 $-1 $28 #
body $-1 $29 $-1 $30 #
body $-1 $31 $-1 $32 #
lump $-1 $-1 $33 $0 #
transform $-1 1 0 0 0 1 0 0 0 1 77.714774010437338 33.512910191500005 12.0990943627249 1 rotate no_reflect no_shear #
lump $-1 $-1 $34 $1 #
transform $-1 1 0 0 0 1 0 0 0 1 77.714774010437338 33.512910191500005 12.0990943627249 1 rotate no_reflect no_shear #
lump $-1 $-1 $35 $2 #
transform $-1 1 0 0 0 1 0 0 0 1 77.714774010437338 33.512910191500005 12.0990943627249 1 rotate no_reflect no_shear #
lump $-1 $-1 $36 $3 #
transform $-1 1 0 0 0 1 0 0 0 1 77.714774010437338 33.512910191500005 12.0990943627249 1 rotate no_reflect no_shear #
lump $-1 $-1 $37 $4 #
transform $-1 1 0 0 0 1 0 0 0 1 77.714774010437338 33.512910191500005 12.0990943627249 1 rotate no_reflect no_shear #
lump $-1 $-1 $38 $5 #
transform $-1 1 0 0 0 1 0 0 0 1 77.714774010437338 33.512910191500005 12.0990943627249 1 rotate no_reflect no_shear #
lump $-1 $-1 $39 $6 #
transform $-1 1 0 0 0 1 0 0 0 1 77.714774010437338 33.512910191500005 12.0990943627249 1 rotate no_reflect no_shear #
lump $-1 $-1 $40 $7 #
transform $-1 1 0 0 0 1 0 0 0 1 77.714774010437338 33.512910191500005 12.0990943627249 1 rotate no_reflect no_shear #
lump $-1 $-1 $41 $8 #
transform $-1 1 0 0 0 1 0 0 0 1 77.714774010437338 33.512910191500005 12.0990943627249 1 rotate no_reflect no_shear #
lump $-1 $-1 $42 $9 #
transform $-1 1 0 0 0 1 0 0 0 1 77.714774010437338 33.512910191500005 12.0990943627249 1 rotate no_reflect no_shear #
lump $-1 $-1 $43 $10 #
transform $-1 1 0 0 0 1 0 0 0 1 77.714774010437338 33.512910191500005 12.0990943627249 1 rotate no_reflect no_shear #
shell $-1 $-1 $-1 $44 $-1 $11 #
shell $-1 $-1 $-1 $45 $-1 $13 #
shell $-1 $-1 $-1 $46 $-1 $15 #
shell $-1 $-1 $-1 $47 $-1 $17 #
shell $-1 $-1 $-1 $48 $-1 $19 #
shell $-1 $-1 $-1 $49 $-1 $21 #
shell $-1 $-1 $-1 $50 $-1 $23 #
shell $-1 $-1 $-1 $51 $-1 $25 #
shell $-1 $-1 $-1 $52 $-1 $27 #
shell $-1 $-1 $-1 $53 $-1 $29 #
shell $-1 $-1 $-1 $54 $-1 $31 #
face $-1 $55 $56 $33 $-1 $57 reversed single #
face $-1 $58 $59 $34 $-1 $60 forward single #
face $-1 $61 $62 $35 $-1 $63 forward single #
face $-1 $64 $65 $36 $-1 $66 reversed single #
face $-1 $67 $68 $37 $-1 $69 forward single #
face $-1 $70 $71 $38 $-1 $72 reversed single #
face $-1 $73 $74 $39 $-1 $75 forward single #
face $-1 $76 $77 $40 $-1 $78 forward single #
face $-1 $79 $80 $41 $-1 $81 reversed single #
face $-1 $82 $83 $42 $-1 $84 forward single #
face $-1 $85 $86 $43 $-1 $87 forward single #
face $-1 $88 $89 $33 $-1 $90 reversed single #
loop $-1 $-1 $91 $44 #
plane-surface $-1 77.714774010437338 0 0 -1 0 0 0 0 1 forward_v I I I I #
face $-1 $92 $93 $34 $-1 $94 reversed single #
loop $-1 $-1 $95 $45 #
plane-surface $-1 -77.714774010437338 0 0 1 0 0 0 0 -1 forward_v I I I I #
face $-1 $96 $97 $35 $-1 $98 reversed single #
loop $-1 $-1 $99 $46 #
plane-surface $-1 77.714774010437338 0 0 -1 0 0 0 0 1 forward_v I I I I #
face $-1 $100 $101 $36 $-1 $102 reversed single #
loop $-1 $-1 $103 $47 #
plane-surface $-1 -17.8326178885556 -139.51560830728192 118.39082999769722 -1 0 0 0 -0.68199836817093118 0.7313536940579346 forward_v I I I I #
face $-1 $104 $105 $37 $-1 $106 forward single #
loop $-1 $107 $108 $48 #
cone-surface $-1 -28.704915552985298 -27.559662451327565 6.2685920330440794 0 0.68199836817093118 -0.7313536940579346 2.5 0 0 1 I I 0 1 2.5 forward I I I I #
face $-1 $109 $110 $38 $-1 $111 reversed single #
loop $-1 $-1 $112 $49 #
plane-surface $-1 -40.016900346711118 101.47538777310592 161.22811181631724 1 0 0 0 -0.73135370988377701 -0.68199835119979291 forward_v I I I I #
face $-1 $113 $114 $39 $-1 $115 forward single #
loop $-1 $116 $117 $50 #
cone-surface $-1 -35.788867328312989 29.27934701545837 7.7669462159527445 0 -0.73135370988377701 -0.68199835119979291 2 0 0 1 I I 0 1 2 forward I I I I #
face $-1 $118 $119 $40 $-1 $120 forward single #
loop $-1 $121 $122 $51 #
cone-surface $-1 -29.446817800715792 29.27934701545837 7.7669462159527445 0 -0.73135370988377701 -0.68199835119979291 2 0 0 1 I I 0 1 2 forward I I I I #
face $-1 $123 $124 $41 $-1 $125 reversed single #
loop $-1 $-1 $126 $52 #
plane-surface $-1 26.964237444547642 101.47538777310592 161.22811181631724 1 0 0 0 -0.73135370988377701 -0.68199835119979291 forward_v I I I I #
face $-1 $127 $128 $42 $-1 $129 forward single #
loop $-1 $130 $131 $53 #
cone-surface $-1 31.192270462945771 29.27934701545837 7.7669462159527445 0 -0.73135370988377701 -0.68199835119979291 2 0 0 1 I I 0 1 2 forward I I I I #
face $-1 $132 $133 $43 $-1 $134 forward single #
loop $-1 $135 $136 $54 #
cone-surface $-1 37.534319990542969 29.27934701545837 7.7669462159527445 0 -0.73135370988377701 -0.68199835119979291 2 0 0 1 I I 0 1 2 forward I I I I #
face $-1 $137 $138 $33 $-1 $139 forward single #
loop $-1 $-1 $140 $55 #
plane-surface $-1 -77.714774010437338 0 0 1 0 0 0 0 -1 forward_v I I I I #
coedge $-1 $141 $142 $143 $144 reversed $56 $-1 #
face $-1 $145 $146 $34 $-1 $147 reversed single #
loop $-1 $-1 $148 $58 #
plane-surface $-1 0 0 -12.0990943627249 0 0 1 1 0 0 forward_v I I I I #
coedge $-1 $149 $150 $151 $152 forward $59 $-1 #
face $-1 $153 $154 $35 $-1 $155 reversed single #
loop $-1 $-1 $156 $61 #
plane-surface $-1 0 0 -12.0990943627249 0 0 1 1 0 0 forward_v I I I I #
coedge $-1 $157 $158 $159 $160 forward $62 $-1 #
face $-1 $161 $162 $36 $-1 $163 reversed single #
loop $-1 $-1 $164 $64 #
plane-surface $-1 -28.704915552985298 -33.512910191500012 4.7168558868753934 0 -0.68199836817093118 0.7313536940579346 1 0 0 forward_v I I I I #
coedge $-1 $165 $166 $167 $168 reversed $65 $-1 #
face $-1 $-1 $169 $37 $-1 $170 forward single #
loop $-1 $171 $172 $67 #
cone-surface $-1 -28.704915552985298 -24.712157438678709 3.215016823715608 0 0.68199836817093118 -0.7313536940579346 1.25 0 0 1 I I -0.70710678118654746 0.70710678118654746 1.25 forward I I I I #
loop $-1 $-1 $173 $48 #
coedge $-1 $108 $108 $174 $175 reversed $68 $-1 #
face $-1 $176 $177 $38 $-1 $178 reversed single #
loop $-1 $-1 $179 $70 #
plane-surface $-1 -32.61784256451439 -12.198588797519449 55.225416338351678 0 0.73135370988377701 0.68199835119979291 1 0 0 forward_v I I I I #
coedge $-1 $180 $181 $182 $183 reversed $71 $-1 #
face $-1 $-1 $184 $39 $-1 $185 forward single #
loop $-1 $186 $187 $73 #
cone-surface $-1 -35.788867328312989 27.062207186627383 5.6994299277227736 0 -0.73135370988377701 -0.68199835119979291 1 0 0 1 I I -0.70710678118654746 0.70710678118654746 1 forward I I I I #
loop $-1 $-1 $188 $50 #
coedge $-1 $117 $117 $189 $190 reversed $74 $-1 #
face $-1 $-1 $191 $40 $-1 $192 forward single #
loop $-1 $193 $194 $76 #
cone-surface $-1 -29.446817800715792 27.062207186627383 5.6994299277227736 0 -0.73135370988377701 -0.68199835119979291 1 0 0 1 I I -0.70710678118654746 0.70710678118654746 1 forward I I I I #
loop $-1 $-1 $195 $51 #
coedge $-1 $122 $122 $196 $197 reversed $77 $-1 #
face $-1 $198 $199 $41 $-1 $200 reversed single #
loop $-1 $-1 $201 $79 #
plane-surface $-1 34.36329522674437 -12.198588797519449 55.225416338351678 0 0.73135370988377701 0.68199835119979291 1 0 0 forward_v I I I I #
coedge $-1 $202 $203 $204 $205 reversed $80 $-1 #
face $-1 $-1 $206 $42 $-1 $207 forward single #
loop $-1 $208 $209 $82 #
cone-surface $-1 31.192270462945771 27.062207186627383 5.6994299277227736 0 -0.73135370988377701 -0.68199835119979291 1 0 0 1 I I -0.70710678118654746 0.70710678118654746 1 forward I I I I #
loop $-1 $-1 $210 $53 #
coedge $-1 $131 $131 $211 $212 reversed $83 $-1 #
face $-1 $-1 $213 $43 $-1 $214 forward single #
loop $-1 $215 $216 $85 #
cone-surface $-1 37.534319990542969 27.062207186627383 5.6994299277227736 0 -0.73135370988377701 -0.68199835119979291 1 0 0 1 I I -0.70710678118654746 0.70710678118654746 1 forward I I I I #
loop $-1 $-1 $217 $54 #
coedge $-1 $136 $136 $218 $219 reversed $86 $-1 #
face $-1 $220 $221 $33 $-1 $222 reversed single #
loop $-1 $-1 $223 $88 #
plane-surface $-1 0 0 12.0990943627249 0 0 1 1 0 0 forward_v I I I I #
coedge $-1 $224 $225 $226 $227 reversed $89 $-1 #
coedge $-1 $228 $91 $229 $230 reversed $56 $-1 #
coedge $-1 $91 $228 $231 $232 forward $56 $-1 #
coedge $-1 $233 $234 $91 $144 forward $221 $-1 #
edge $-1 $235 -33.512910191500005 $236 33.512910191500005 $91 $237 forward 7 unknown #
face $-1 $238 $239 $34 $-1 $240 reversed single #
loop $-1 $-1 $241 $92 #
plane-surface $-1 -83.081592120026627 -29.599956728932593 0 0 1 0 0 0 1 forward_v I I I I #
coedge $-1 $242 $243 $150 $244 forward $93 $-1 #
coedge $-1 $245 $95 $246 $247 reversed $59 $-1 #
coedge $-1 $95 $245 $148 $244 reversed $59 $-1 #
coedge $-1 $248 $249 $95 $152 reversed $250 $-1 #
edge $-1 $251 -12.0990943627249 $252 12.0990943627249 $151 $253 forward 7 unknown #
face $-1 $254 $255 $35 $-1 $256 reversed single #
loop $-1 $-1 $159 $96 #
plane-surface $-1 83.081592120026642 -29.599956728932593 0 0 1 0 0 0 1 forward_v I I I I #
coedge $-1 $257 $258 $158 $259 forward $97 $-1 #
coedge $-1 $260 $99 $261 $262 reversed $62 $-1 #
coedge $-1 $99 $260 $156 $259 reversed $62 $-1 #
coedge $-1 $263 $264 $99 $160 reversed $154 $-1 #
edge $-1 $265 -12.0990943627249 $266 12.0990943627249 $159 $267 forward 7 unknown #
face $-1 $268 $269 $36 $-1 $270 forward single #
loop $-1 $-1 $271 $100 #
plane-surface $-1 -39.577213217414993 -139.51560830728192 118.39082999769722 1 0 0 0 0.68199836817093118 -0.7313536940579346 forward_v I I I I #
coedge $-1 $272 $273 $274 $275 reversed $101 $-1 #
coedge $-1 $166 $103 $276 $277 reversed $65 $-1 #
coedge $-1 $103 $165 $272 $278 reversed $65 $-1 #
coedge $-1 $274 $279 $103 $168 forward $269 $-1 #
edge $-1 $280 36.244893962140956 $281 44.161375337615411 $167 $282 forward 7 unknown #
loop $-1 $-1 $174 $104 #
plane-surface $-1 -28.704915552985298 -33.512910191500012 4.7168558868753934 0 -0.68199836817093118 0.7313536940579346 1 0 0 forward_v I I I I #
loop $-1 $-1 $283 $67 #
coedge $-1 $172 $172 $173 $284 reversed $105 $-1 #
coedge $-1 $173 $173 $172 $284 forward $107 $-1 #
coedge $-1 $174 $174 $108 $175 forward $169 $-1 #
edge $-1 $285 -6.8862542636753361e-016 $285 6.2831853071795996 $174 $286 forward 7 unknown #
face $-1 $287 $288 $38 $-1 $289 reversed single #
loop $-1 $-1 $290 $109 #
plane-surface $-1 -25.218784782317663 101.47538777310592 161.22811181631724 -1 0 0 0 0.73135370988377701 0.68199835119979291 forward_v I I I I #
coedge $-1 $291 $292 $293 $294 reversed $110 $-1 #
coedge $-1 $181 $112 $295 $296 reversed $71 $-1 #
coedge $-1 $112 $180 $291 $297 reversed $71 $-1 #
coedge $-1 $293 $298 $112 $183 forward $299 $-1 #
edge $-1 $300 17.224783695052956 $301 22.720337809241762 $182 $302 forward 7 unknown #
loop $-1 $-1 $189 $113 #
plane-surface $-1 -32.61784256451439 -12.198588797519449 55.225416338351678 0 0.73135370988377701 0.68199835119979291 1 0 0 forward_v I I I I #
loop $-1 $-1 $303 $73 #
coedge $-1 $187 $187 $188 $304 reversed $114 $-1 #
coedge $-1 $188 $188 $187 $304 forward $116 $-1 #
coedge $-1 $189 $189 $117 $190 forward $184 $-1 #
edge $-1 $305 1.6498360804101847e-015 $305 6.2831853071796022 $189 $306 forward 7 unknown #
loop $-1 $-1 $196 $118 #
plane-surface $-1 -32.61784256451439 -12.198588797519449 55.225416338351678 0 0.73135370988377701 0.68199835119979291 1 0 0 forward_v I I I I #
loop $-1 $-1 $307 $76 #
coedge $-1 $194 $194 $195 $308 reversed $119 $-1 #
coedge $-1 $195 $195 $194 $308 forward $121 $-1 #
coedge $-1 $196 $196 $122 $197 forward $191 $-1 #
edge $-1 $309 1.6498360804101847e-015 $309 6.2831853071796022 $196 $310 forward 7 unknown #
face $-1 $311 $312 $41 $-1 $313 forward single #
loop $-1 $-1 $314 $123 #
plane-surface $-1 41.762353008941098 101.47538777310592 161.22811181631724 -1 0 0 0 0.73135370988377701 0.68199835119979291 forward_v I I I I #
coedge $-1 $315 $316 $317 $318 reversed $124 $-1 #
coedge $-1 $203 $126 $319 $320 reversed $80 $-1 #
coedge $-1 $126 $202 $315 $321 reversed $80 $-1 #
coedge $-1 $317 $322 $126 $205 forward $312 $-1 #
edge $-1 $323 17.224783695052956 $324 22.720337809241762 $204 $325 forward 7 unknown #
loop $-1 $-1 $211 $127 #
plane-surface $-1 34.36329522674437 -12.198588797519449 55.225416338351678 0 0.73135370988377701 0.68199835119979291 1 0 0 forward_v I I I I #
loop $-1 $-1 $326 $82 #
coedge $-1 $209 $209 $210 $327 reversed $128 $-1 #
coedge $-1 $210 $210 $209 $327 forward $130 $-1 #
coedge $-1 $211 $211 $131 $212 forward $206 $-1 #
edge $-1 $328 1.6498360804101847e-015 $328 6.2831853071796022 $211 $329 forward 7 unknown #
loop $-1 $-1 $218 $132 #
plane-surface $-1 34.36329522674437 -12.198588797519449 55.225416338351678 0 0.73135370988377701 0.68199835119979291 1 0 0 forward_v I I I I #
loop $-1 $-1 $330 $85 #
coedge $-1 $216 $216 $217 $331 reversed $133 $-1 #
coedge $-1 $217 $217 $216 $331 forward $135 $-1 #
coedge $-1 $218 $218 $136 $219 forward $213 $-1 #
edge $-1 $332 1.6498360804101847e-015 $332 6.2831853071796022 $218 $333 forward 7 unknown #
face $-1 $334 $335 $33 $-1 $336 reversed single #
loop $-1 $-1 $143 $137 #
plane-surface $-1 0 0 -12.0990943627249 0 0 1 1 0 0 forward_v I I I I #
coedge $-1 $337 $338 $228 $339 forward $138 $-1 #
coedge $-1 $340 $140 $341 $342 reversed $89 $-1 #
coedge $-1 $140 $340 $343 $344 forward $89 $-1 #
coedge $-1 $234 $233 $140 $227 forward $221 $-1 #
edge $-1 $345 -33.512910191500005 $346 33.512910191500005 $140 $347 forward 7 unknown #
coedge $-1 $142 $141 $223 $339 reversed $56 $-1 #
coedge $-1 $348 $349 $141 $230 forward $350 $-1 #
edge $-1 $351 -12.0990943627249 $235 12.0990943627249 $141 $352 forward 7 unknown #
coedge $-1 $353 $354 $142 $232 reversed $335 $-1 #
edge $-1 $355 -12.0990943627249 $236 12.0990943627249 $142 $356 forward 7 unknown #
coedge $-1 $226 $143 $354 $357 forward $221 $-1 #
coedge $-1 $143 $226 $348 $358 forward $221 $-1 #
vertex $-1 $144 $359 #
vertex $-1 $232 $360 #
straight-curve $-1 77.714774010437338 0 -12.0990943627249 0 -1 0 I I #
face $-1 $361 $250 $34 $-1 $362 reversed single #
loop $-1 $-1 $363 $145 #
plane-surface $-1 -88.448410229615916 -26.569736754943463 0 1 0 0 0 0 -1 forward_v I I I I #
coedge $-1 $364 $365 $366 $367 forward $146 $-1 #
coedge $-1 $368 $148 $364 $369 forward $93 $-1 #
coedge $-1 $148 $368 $248 $370 forward $93 $-1 #
edge $-1 $251 23.539516780954333 $371 29.599956728932593 $148 $372 forward 7 unknown #
coedge $-1 $150 $149 $373 $374 forward $59 $-1 #
coedge $-1 $375 $376 $149 $247 forward $377 $-1 #
edge $-1 $378 -29.599956728932593 $252 -23.539516780954333 $246 $379 forward 7 unknown #
coedge $-1 $380 $151 $243 $370 reversed $250 $-1 #
coedge $-1 $151 $380 $375 $381 reversed $250 $-1 #
loop $-1 $-1 $151 $238 #
vertex $-1 $244 $382 #
vertex $-1 $381 $383 #
straight-curve $-1 -77.714774010437338 -23.539516780954333 0 0 0 1 I I #
face $-1 $384 $385 $35 $-1 $386 reversed single #
loop $-1 $-1 $387 $153 #
plane-surface $-1 83.081592120026642 -23.539516780954333 0 0 -1 0 0 0 -1 forward_v I I I I #
coedge $-1 $388 $156 $389 $390 forward $97 $-1 #
coedge $-1 $156 $388 $263 $391 forward $97 $-1 #
edge $-1 $265 -29.599956728932593 $392 -23.539516780954333 $156 $393 forward 7 unknown #
coedge $-1 $158 $157 $394 $395 forward $62 $-1 #
coedge $-1 $396 $397 $157 $262 forward $398 $-1 #
edge $-1 $399 23.539516780954333 $266 29.599956728932593 $261 $400 forward 7 unknown #
coedge $-1 $401 $159 $258 $391 reversed $154 $-1 #
coedge $-1 $159 $401 $396 $402 reversed $154 $-1 #
vertex $-1 $259 $403 #
vertex $-1 $402 $404 #
straight-curve $-1 77.714774010437338 -29.599956728932593 0 0 0 1 I I #
face $-1 $-1 $405 $36 $-1 $406 reversed single #
loop $-1 $-1 $167 $161 #
plane-surface $-1 0 0 12.0990943627249 0 0 1 1 0 0 forward_v I I I I #
coedge $-1 $407 $408 $409 $410 reversed $162 $-1 #
coedge $-1 $411 $164 $166 $278 forward $101 $-1 #
coedge $-1 $164 $411 $407 $412 forward $101 $-1 #
coedge $-1 $409 $167 $164 $275 forward $269 $-1 #
edge $-1 $281 3.4801601120629506 $413 25.224755440922344 $274 $414 forward 7 unknown #
coedge $-1 $415 $416 $165 $277 forward $405 $-1 #
edge $-1 $417 -54.478559111973212 $280 -47.096320636123714 $276 $418 forward 7 unknown #
edge $-1 $281 -10.824422491872115 $417 -9.4367341760026555e-015 $166 $419 forward 7 unknown #
coedge $-1 $167 $409 $415 $420 forward $269 $-1 #
vertex $-1 $168 $421 #
vertex $-1 $168 $422 #
straight-curve $-1 -17.8326178885556 -69.757804153640961 12.099094362724898 0 1 0 I I #
coedge $-1 $283 $283 $-1 $423 reversed $171 $-1 #
edge $-1 $424 0 $424 6.2831853071796004 $172 $425 forward 7 unknown #
vertex $-1 $175 $426 #
ellipse-curve $-1 -28.704915552985298 -29.554669503762774 8.4079751248001511 0 -0.68199836817093118 0.7313536940579346 2.5 0 0 1 I I #
face $-1 $-1 $299 $38 $-1 $427 forward single #
loop $-1 $-1 $428 $176 #
plane-surface $-1 0 33.512910191500005 0 0 -1 0 0 0 -1 forward_v I I I I #
coedge $-1 $429 $430 $431 $432 reversed $177 $-1 #
coedge $-1 $433 $179 $181 $297 forward $110 $-1 #
coedge $-1 $179 $433 $429 $434 forward $110 $-1 #
coedge $-1 $431 $182 $179 $294 forward $299 $-1 #
edge $-1 $301 -23.707979064453923 $435 -8.9098635000604673 $293 $436 forward 7 unknown #
coedge $-1 $437 $438 $180 $296 forward $288 $-1 #
edge $-1 $439 -74.408221964917644 $300 -68.514961545433721 $295 $440 forward 7 unknown #
edge $-1 $301 58.967803667093165 $439 67.025820382999953 $181 $441 forward 7 unknown #
coedge $-1 $182 $431 $437 $442 forward $299 $-1 #
loop $-1 $-1 $431 $287 #
vertex $-1 $296 $443 #
vertex $-1 $183 $444 #
straight-curve $-1 -40.016900346711118 50.737693886552961 12.099094362724898 0 -1 0 I I #
coedge $-1 $303 $303 $-1 $445 reversed $186 $-1 #
edge $-1 $446 0 $446 6.2831853071796004 $187 $447 forward 7 unknown #
vertex $-1 $190 $448 #
ellipse-curve $-1 -35.788867328312989 30.765133134405598 9.1524641529829385 0 0.73135370988377701 0.68199835119979291 2 0 0 1 I I #
coedge $-1 $307 $307 $-1 $449 reversed $193 $-1 #
edge $-1 $450 0 $450 6.2831853071796004 $194 $451 forward 7 unknown #
vertex $-1 $197 $452 #
ellipse-curve $-1 -29.446817800715792 30.765133134405598 9.1524641529829385 0 0.73135370988377701 0.68199835119979291 2 0 0 1 I I #
face $-1 $-1 $453 $41 $-1 $454 reversed single #
loop $-1 $-1 $204 $198 #
plane-surface $-1 0 0 12.0990943627249 0 0 1 1 0 0 forward_v I I I I #
coedge $-1 $455 $456 $457 $458 reversed $199 $-1 #
coedge $-1 $459 $201 $203 $321 forward $124 $-1 #
coedge $-1 $201 $459 $455 $460 forward $124 $-1 #
coedge $-1 $457 $204 $201 $318 forward $312 $-1 #
edge $-1 $324 9.7825898311754571 $461 24.580705395568913 $317 $462 forward 7 unknown #
coedge $-1 $463 $464 $202 $320 forward $453 $-1 #
edge $-1 $465 -74.408221964917644 $323 -68.514961545433721 $319 $466 forward 7 unknown #
edge $-1 $324 58.967803667093165 $465 67.025820382999953 $203 $467 forward 7 unknown #
coedge $-1 $204 $457 $463 $468 forward $312 $-1 #
vertex $-1 $320 $469 #
vertex $-1 $205 $470 #
straight-curve $-1 26.964237444547642 50.737693886552961 12.099094362724898 0 -1 0 I I #
coedge $-1 $326 $326 $-1 $471 reversed $208 $-1 #
edge $-1 $472 0 $472 6.2831853071796004 $209 $473 forward 7 unknown #
vertex $-1 $212 $474 #
ellipse-curve $-1 31.192270462945771 30.765133134405598 9.1524641529829385 0 0.73135370988377701 0.68199835119979291 2 0 0 1 I I #
coedge $-1 $330 $330 $-1 $475 reversed $215 $-1 #
edge $-1 $476 0 $476 6.2831853071796004 $216 $477 forward 7 unknown #
vertex $-1 $219 $478 #
ellipse-curve $-1 37.534319990542969 30.765133134405598 9.1524641529829385 0 0.73135370988377701 0.68199835119979291 2 0 0 1 I I #
face $-1 $-1 $350 $33 $-1 $479 reversed single #
loop $-1 $-1 $341 $220 #
plane-surface $-1 0 -33.512910191500005 0 0 1 0 0 0 1 forward_v I I I I #
coedge $-1 $480 $223 $349 $481 forward $138 $-1 #
coedge $-1 $223 $480 $353 $482 forward $138 $-1 #
edge $-1 $355 -33.512910191500005 $351 33.512910191500005 $228 $483 forward 7 unknown #
coedge $-1 $225 $224 $480 $484 reversed $89 $-1 #
coedge $-1 $354 $353 $224 $342 forward $335 $-1 #
edge $-1 $485 -12.0990943627249 $345 12.0990943627249 $224 $486 forward 7 unknown #
coedge $-1 $349 $348 $225 $344 reversed $350 $-1 #
edge $-1 $487 -12.0990943627249 $346 12.0990943627249 $343 $488 forward 7 unknown #
vertex $-1 $227 $489 #
vertex $-1 $358 $490 #
straight-curve $-1 -77.714774010437338 0 -12.0990943627249 0 1 0 I I #
coedge $-1 $343 $229 $234 $358 reversed $350 $-1 #
coedge $-1 $229 $343 $337 $481 reversed $350 $-1 #
loop $-1 $-1 $229 $334 #
vertex $-1 $339 $491 #
straight-curve $-1 77.714774010437338 33.512910191500005 0 0 0 -1 I I #
coedge $-1 $341 $231 $338 $482 reversed $335 $-1 #
coedge $-1 $231 $341 $233 $357 reversed $335 $-1 #
vertex $-1 $339 $492 #
straight-curve $-1 77.714774010437338 -33.512910191500005 0 0 0 -1 I I #
edge $-1 $236 -77.714774010437338 $345 77.714774010437338 $354 $493 forward 7 unknown #
edge $-1 $346 -77.714774010437338 $235 77.714774010437338 $348 $494 forward 7 unknown #
point $-1 77.714774010437338 33.512910191500005 -12.0990943627249 #
point $-1 77.714774010437338 -33.512910191500005 -12.0990943627249 #
face $-1 $-1 $377 $34 $-1 $495 forward single #
plane-surface $-1 -83.081592120026627 -23.539516780954333 0 0 -1 0 0 0 -1 forward_v I I I I #
coedge $-1 $496 $497 $380 $498 forward $239 $-1 #
coedge $-1 $373 $241 $242 $369 reversed $146 $-1 #
coedge $-1 $241 $373 $376 $499 reversed $146 $-1 #
coedge $-1 $497 $496 $241 $367 reversed $239 $-1 #
edge $-1 $500 -12.0990943627249 $501 12.0990943627249 $366 $502 forward 7 unknown #
coedge $-1 $243 $242 $496 $503 forward $93 $-1 #
edge $-1 $371 -5.3668181095892891 $501 5.3668181095892891 $364 $504 forward 7 unknown #
edge $-1 $505 -5.3668181095892891 $251 5.3668181095892891 $248 $506 forward 7 unknown #
vertex $-1 $369 $507 #
straight-curve $-1 -77.714774010437338 0 -12.0990943627249 0 -1 0 I I #
coedge $-1 $365 $364 $245 $374 reversed $146 $-1 #
edge $-1 $378 -12.0990943627249 $371 12.0990943627249 $373 $508 forward 7 unknown #
coedge $-1 $509 $246 $249 $381 forward $377 $-1 #
coedge $-1 $246 $509 $365 $499 forward $377 $-1 #
loop $-1 $-1 $246 $361 #
vertex $-1 $247 $510 #
straight-curve $-1 -77.714774010437338 0 12.0990943627249 0 1 0 I I #
coedge $-1 $249 $248 $363 $498 reversed $250 $-1 #
edge $-1 $252 -5.3668181095892891 $511 5.3668181095892891 $249 $512 forward 7 unknown #
point $-1 -77.714774010437338 -23.539516780954333 -12.0990943627249 #
point $-1 -77.714774010437338 -23.539516780954333 12.0990943627249 #
face $-1 $-1 $398 $35 $-1 $513 forward single #
loop $-1 $-1 $514 $254 #
plane-surface $-1 88.448410229615931 -26.569736754943463 0 -1 0 0 0 0 1 forward_v I I I I #
coedge $-1 $389 $515 $516 $517 forward $255 $-1 #
coedge $-1 $258 $257 $518 $519 forward $97 $-1 #
coedge $-1 $394 $387 $257 $390 reversed $255 $-1 #
edge $-1 $392 -5.3668181095892891 $520 5.3668181095892891 $389 $521 forward 7 unknown #
edge $-1 $522 -5.3668181095892891 $265 5.3668181095892891 $263 $523 forward 7 unknown #
vertex $-1 $390 $524 #
straight-curve $-1 77.714774010437338 0 -12.0990943627249 0 1 0 I I #
coedge $-1 $515 $389 $260 $395 reversed $255 $-1 #
edge $-1 $399 -12.0990943627249 $392 12.0990943627249 $394 $525 forward 7 unknown #
coedge $-1 $526 $261 $264 $402 forward $398 $-1 #
coedge $-1 $261 $526 $515 $527 forward $398 $-1 #
loop $-1 $-1 $261 $384 #
vertex $-1 $262 $528 #
straight-curve $-1 77.714774010437338 0 12.0990943627249 0 -1 0 I I #
coedge $-1 $264 $263 $514 $529 reversed $154 $-1 #
edge $-1 $266 -5.3668181095892891 $530 5.3668181095892891 $264 $531 forward 7 unknown #
point $-1 77.714774010437353 -29.599956728932593 -12.0990943627249 #
point $-1 77.714774010437353 -29.599956728932593 12.0990943627249 #
loop $-1 $-1 $276 $268 #
plane-surface $-1 0 -33.512910191500005 0 0 1 0 0 0 1 forward_v I I I I #
coedge $-1 $408 $271 $273 $412 reversed $162 $-1 #
coedge $-1 $271 $407 $532 $533 reversed $162 $-1 #
coedge $-1 $279 $274 $271 $410 forward $269 $-1 #
edge $-1 $413 -44.161375337615411 $534 -36.244893962140956 $409 $535 forward 7 unknown #
coedge $-1 $273 $272 $416 $536 reversed $101 $-1 #
edge $-1 $537 9.4367341760026555e-015 $413 10.824422491872115 $407 $538 forward 7 unknown #
vertex $-1 $275 $539 #
straight-curve $-1 -14.352457776492649 -25.596428816025551 12.0990943627249 -1 0 0 I I #
coedge $-1 $532 $276 $279 $420 reversed $405 $-1 #
coedge $-1 $276 $532 $411 $536 forward $405 $-1 #
vertex $-1 $277 $540 #
straight-curve $-1 -17.8326178885556 -33.512910191500005 59.195414998848612 0 0 1 I I #
straight-curve $-1 -17.8326178885556 -33.512910191500012 4.7168558868753934 0 -0.7313536940579346 -0.68199836817093118 I I #
edge $-1 $534 -39.577213217414993 $280 -17.8326178885556 $415 $541 forward 7 unknown #
point $-1 -17.8326178885556 -33.512910191500005 12.0990943627249 #
point $-1 -17.8326178885556 -25.596428816025547 12.0990943627249 #
edge $-1 $542 1 $542 0 $283 $-1 forward 7 unknown #
vertex $-1 $284 $543 #
ellipse-curve $-1 -28.704915552985298 -25.564655398892373 4.1292089412880264 0 -0.68199836817093118 0.7313536940579346 2.5 0 0 1 I I #
point $-1 -26.204915552985298 -29.55466950376276 8.4079751248001333 #
plane-surface $-1 0 0 12.0990943627249 0 0 1 1 0 0 forward_v I I I I #
coedge $-1 $438 $437 $430 $544 forward $288 $-1 #
coedge $-1 $430 $290 $292 $434 reversed $177 $-1 #
coedge $-1 $290 $429 $428 $544 reversed $177 $-1 #
coedge $-1 $298 $293 $290 $432 forward $299 $-1 #
edge $-1 $435 -22.720337809241762 $545 -17.224783695052956 $431 $546 forward 7 unknown #
coedge $-1 $292 $291 $438 $547 reversed $110 $-1 #
edge $-1 $548 -67.025820382999953 $435 -58.967803667093165 $429 $549 forward 7 unknown #
vertex $-1 $294 $550 #
straight-curve $-1 -16.308921282257195 28.017356077311192 12.099094362724898 1 0 0 I I #
coedge $-1 $428 $295 $298 $442 reversed $288 $-1 #
coedge $-1 $295 $428 $433 $547 forward $288 $-1 #
vertex $-1 $296 $551 #
straight-curve $-1 -40.016900346711118 33.512910191500005 80.614055908158619 0 0 1 I I #
straight-curve $-1 -40.016900346711118 -12.198588797519449 55.225416338351678 0 0.68199835119979291 -0.73135370988377701 I I #
edge $-1 $545 25.218784782317663 $300 40.016900346711118 $437 $552 forward 7 unknown #
point $-1 -40.016900346711118 33.512910191500005 12.0990943627249 #
point $-1 -40.016900346711118 28.017356077311199 12.099094362724898 #
edge $-1 $553 1 $553 0 $303 $-1 forward 7 unknown #
vertex $-1 $304 $554 #
ellipse-curve $-1 -35.788867328312989 27.79356089651116 6.3814282789225665 0 0.73135370988377701 0.68199835119979291 2 0 0 1 I I #
point $-1 -33.788867328312989 30.765133134405584 9.1524641529829207 #
edge $-1 $555 1 $555 0 $307 $-1 forward 7 unknown #
vertex $-1 $308 $556 #
ellipse-curve $-1 -29.446817800715792 27.79356089651116 6.3814282789225665 0 0.73135370988377701 0.68199835119979291 2 0 0 1 I I #
point $-1 -27.446817800715792 30.765133134405584 9.1524641529829207 #
loop $-1 $-1 $319 $311 #
plane-surface $-1 0 33.512910191500005 0 0 -1 0 0 0 -1 forward_v I I I I #
coedge $-1 $456 $314 $316 $460 reversed $199 $-1 #
coedge $-1 $314 $455 $557 $558 reversed $199 $-1 #
coedge $-1 $322 $317 $314 $458 forward $312 $-1 #
edge $-1 $461 -22.720337809241762 $559 -17.224783695052956 $457 $560 forward 7 unknown #
coedge $-1 $316 $315 $464 $561 reversed $124 $-1 #
edge $-1 $562 -67.025820382999953 $461 -58.967803667093165 $455 $563 forward 7 unknown #
vertex $-1 $318 $564 #
straight-curve $-1 17.181647613372185 28.017356077311192 12.099094362724898 1 0 0 I I #
coedge $-1 $557 $319 $322 $468 reversed $453 $-1 #
coedge $-1 $319 $557 $459 $561 forward $453 $-1 #
vertex $-1 $320 $565 #
straight-curve $-1 26.964237444547642 33.512910191500005 80.614055908158619 0 0 1 I I #
straight-curve $-1 26.964237444547642 -12.198588797519449 55.225416338351678 0 0.68199835119979291 -0.73135370988377701 I I #
edge $-1 $559 -41.762353008941098 $323 -26.964237444547642 $463 $566 forward 7 unknown #
point $-1 26.964237444547642 33.512910191500005 12.0990943627249 #
point $-1 26.964237444547642 28.017356077311199 12.099094362724898 #
edge $-1 $567 1 $567 0 $326 $-1 forward 7 unknown #
vertex $-1 $327 $568 #
ellipse-curve $-1 31.192270462945771 27.79356089651116 6.3814282789225665 0 0.73135370988377701 0.68199835119979291 2 0 0 1 I I #
point $-1 33.192270462945771 30.765133134405584 9.1524641529829207 #
edge $-1 $569 1 $569 0 $330 $-1 forward 7 unknown #
vertex $-1 $331 $570 #
ellipse-curve $-1 37.534319990542969 27.79356089651116 6.3814282789225665 0 0.73135370988377701 0.68199835119979291 2 0 0 1 I I #
point $-1 39.534319990542969 30.765133134405584 9.1524641529829207 #
plane-surface $-1 0 33.512910191500005 0 0 -1 0 0 0 -1 forward_v I I I I #
coedge $-1 $338 $337 $340 $484 forward $138 $-1 #
edge $-1 $351 -77.714774010437338 $487 77.714774010437338 $349 $571 forward 7 unknown #
edge $-1 $485 -77.714774010437338 $355 77.714774010437338 $353 $572 forward 7 unknown #
straight-curve $-1 77.714774010437338 0 12.0990943627249 0 1 0 I I #
edge $-1 $487 -33.512910191500005 $485 33.512910191500005 $340 $573 forward 7 unknown #
vertex $-1 $484 $574 #
straight-curve $-1 -77.714774010437338 -33.512910191500005 0 0 0 -1 I I #
vertex $-1 $481 $575 #
straight-curve $-1 -77.714774010437338 33.512910191500005 0 0 0 -1 I I #
point $-1 -77.714774010437338 -33.512910191500005 -12.0990943627249 #
point $-1 -77.714774010437338 33.512910191500005 -12.0990943627249 #
point $-1 77.714774010437338 33.512910191500005 12.0990943627249 #
point $-1 77.714774010437338 -33.512910191500005 12.0990943627249 #
straight-curve $-1 0 -33.512910191500005 -12.0990943627249 -1 0 0 I I #
straight-curve $-1 0 33.512910191500005 -12.0990943627249 1 0 0 I I #
plane-surface $-1 0 0 12.0990943627249 0 0 1 1 0 0 forward_v I I I I #
coedge $-1 $366 $363 $368 $503 reversed $239 $-1 #
coedge $-1 $363 $366 $509 $576 reversed $239 $-1 #
edge $-1 $511 -12.0990943627249 $505 12.0990943627249 $380 $577 forward 7 unknown #
edge $-1 $500 -5.3668181095892891 $378 5.3668181095892891 $365 $578 forward 7 unknown #
vertex $-1 $576 $579 #
vertex $-1 $503 $580 #
straight-curve $-1 -88.448410229615916 -29.599956728932593 0 0 0 -1 I I #
edge $-1 $501 -3.03021997398913 $505 3.03021997398913 $496 $581 forward 7 unknown #
straight-curve $-1 -83.081592120026627 -29.599956728932593 -12.0990943627249 -1 0 0 I I #
vertex $-1 $370 $582 #
straight-curve $-1 -83.081592120026627 -23.539516780954333 -12.0990943627249 1 0 0 I I #
point $-1 -77.714774010437338 -29.599956728932593 -12.0990943627249 #
straight-curve $-1 -77.714774010437338 -29.599956728932593 0 0 0 -1 I I #
coedge $-1 $376 $375 $497 $576 forward $377 $-1 #
point $-1 -77.714774010437338 -29.599956728932593 12.0990943627249 #
vertex $-1 $381 $583 #
straight-curve $-1 -83.081592120026627 -23.539516780954333 12.0990943627249 -1 0 0 I I #
plane-surface $-1 0 0 12.0990943627249 0 0 1 1 0 0 forward_v I I I I #
coedge $-1 $518 $584 $401 $529 forward $385 $-1 #
coedge $-1 $387 $394 $397 $527 reversed $255 $-1 #
coedge $-1 $584 $518 $387 $517 reversed $385 $-1 #
edge $-1 $585 -12.0990943627249 $520 12.0990943627249 $516 $586 forward 7 unknown #
coedge $-1 $516 $514 $388 $519 reversed $385 $-1 #
edge $-1 $520 -3.03021997398913 $522 3.03021997398913 $518 $587 forward 7 unknown #
vertex $-1 $519 $588 #
straight-curve $-1 83.081592120026642 -23.539516780954333 -12.0990943627249 1 0 0 I I #
vertex $-1 $529 $589 #
straight-curve $-1 83.081592120026642 -29.599956728932593 -12.0990943627249 -1 0 0 I I #
point $-1 77.714774010437353 -23.539516780954333 -12.0990943627249 #
straight-curve $-1 77.714774010437338 -23.539516780954333 0 0 0 -1 I I #
coedge $-1 $397 $396 $584 $590 forward $398 $-1 #
edge $-1 $585 -5.3668181095892891 $399 5.3668181095892891 $515 $591 forward 7 unknown #
point $-1 77.714774010437353 -23.539516780954333 12.0990943627249 #
edge $-1 $530 -12.0990943627249 $522 12.0990943627249 $514 $592 forward 7 unknown #
vertex $-1 $590 $593 #
straight-curve $-1 83.081592120026642 -29.599956728932593 12.0990943627249 1 0 0 I I #
coedge $-1 $416 $415 $408 $533 forward $405 $-1 #
edge $-1 $534 47.096320636123714 $537 54.478559111973212 $532 $594 forward 7 unknown #
vertex $-1 $420 $595 #
straight-curve $-1 -39.577213217414993 -69.757804153640961 12.099094362724898 0 -1 0 I I #
edge $-1 $537 -25.224755440922344 $417 -3.4801601120629506 $416 $596 forward 7 unknown #
vertex $-1 $536 $597 #
straight-curve $-1 -39.577213217414993 -33.512910191500012 4.7168558868753934 0 0.7313536940579346 0.68199836817093118 I I #
point $-1 -39.577213217414993 -25.596428816025547 12.0990943627249 #
point $-1 -17.8326178885556 -33.512910191500005 4.7168558868753996 #
straight-curve $-1 0 -33.512910191500005 12.0990943627249 1 0 0 I I #
vertex $-1 $423 $598 #
point $-1 -26.204915552985298 -25.564655398892373 4.1292089412880264 #
edge $-1 $545 68.514961545433721 $548 74.408221964917644 $428 $599 forward 7 unknown #
vertex $-1 $442 $600 #
straight-curve $-1 -25.218784782317663 50.737693886552961 12.099094362724898 0 1 0 I I #
edge $-1 $548 8.9098635000604673 $439 23.707979064453923 $438 $601 forward 7 unknown #
vertex $-1 $547 $602 #
straight-curve $-1 -25.218784782317663 -12.198588797519449 55.225416338351678 0 -0.68199835119979291 0.73135370988377701 I I #
point $-1 -25.218784782317663 28.017356077311199 12.099094362724898 #
point $-1 -40.016900346711118 33.512910191499998 6.2058339432409753 #
straight-curve $-1 0 33.512910191500005 12.0990943627249 -1 0 0 I I #
vertex $-1 $445 $603 #
point $-1 -33.788867328312989 27.79356089651116 6.3814282789225665 #
vertex $-1 $449 $604 #
point $-1 -27.446817800715792 27.79356089651116 6.3814282789225665 #
coedge $-1 $464 $463 $456 $558 forward $453 $-1 #
edge $-1 $559 68.514961545433721 $562 74.408221964917644 $557 $605 forward 7 unknown #
vertex $-1 $468 $606 #
straight-curve $-1 41.762353008941098 50.737693886552961 12.099094362724898 0 1 0 I I #
edge $-1 $562 -24.580705395568913 $465 -9.7825898311754571 $464 $607 forward 7 unknown #
vertex $-1 $561 $608 #
straight-curve $-1 41.762353008941098 -12.198588797519449 55.225416338351678 0 -0.68199835119979291 0.73135370988377701 I I #
point $-1 41.762353008941098 28.017356077311199 12.099094362724898 #
point $-1 26.964237444547642 33.512910191499998 6.2058339432409753 #
straight-curve $-1 0 33.512910191500005 12.0990943627249 -1 0 0 I I #
vertex $-1 $471 $609 #
point $-1 33.192270462945771 27.79356089651116 6.3814282789225665 #
vertex $-1 $475 $610 #
point $-1 39.534319990542969 27.79356089651116 6.3814282789225665 #
straight-curve $-1 0 33.512910191500005 12.0990943627249 -1 0 0 I I #
straight-curve $-1 0 -33.512910191500005 12.0990943627249 1 0 0 I I #
straight-curve $-1 -77.714774010437338 0 12.0990943627249 0 -1 0 I I #
point $-1 -77.714774010437338 -33.512910191500005 12.0990943627249 #
point $-1 -77.714774010437338 33.512910191500005 12.0990943627249 #
edge $-1 $511 -3.03021997398913 $500 3.03021997398913 $497 $611 forward 7 unknown #
straight-curve $-1 -88.448410229615916 -23.539516780954333 0 0 0 -1 I I #
straight-curve $-1 -83.081592120026627 -29.599956728932593 12.0990943627249 1 0 0 I I #
point $-1 -88.448410229615916 -29.599956728932593 12.0990943627249 #
point $-1 -88.448410229615916 -29.599956728932593 -12.0990943627249 #
straight-curve $-1 -88.448410229615916 -26.569736754943463 -12.0990943627249 0 1 0 I I #
point $-1 -88.448410229615916 -23.539516780954333 -12.0990943627249 #
point $-1 -88.448410229615916 -23.539516780954333 12.0990943627249 #
coedge $-1 $514 $516 $526 $590 reversed $385 $-1 #
vertex $-1 $590 $612 #
straight-curve $-1 88.448410229615931 -23.539516780954333 0 0 0 -1 I I #
straight-curve $-1 88.448410229615931 -26.569736754943463 -12.0990943627249 0 -1 0 I I #
point $-1 88.448410229615931 -23.539516780954333 -12.0990943627249 #
point $-1 88.448410229615931 -29.599956728932593 -12.0990943627249 #
edge $-1 $530 -3.03021997398913 $585 3.03021997398913 $584 $613 forward 7 unknown #
straight-curve $-1 83.081592120026642 -23.539516780954333 12.0990943627249 -1 0 0 I I #
straight-curve $-1 88.448410229615931 -29.599956728932593 0 0 0 -1 I I #
point $-1 88.448410229615931 -29.599956728932593 12.0990943627249 #
straight-curve $-1 -39.577213217414993 -33.512910191500005 59.195414998848612 0 0 -1 I I #
point $-1 -39.577213217414993 -33.512910191500005 12.0990943627249 #
straight-curve $-1 -14.352457776492649 -33.512910191500005 4.7168558868754022 1 0 0 I I #
point $-1 -39.577213217414993 -33.512910191500005 4.7168558868753996 #
point $-1 -28.704915552985298 -23.859659478465044 2.3008247061431897 #
straight-curve $-1 -25.218784782317663 33.512910191500005 80.614055908158619 0 0 -1 I I #
point $-1 -25.218784782317663 33.512910191500005 12.0990943627249 #
straight-curve $-1 -16.308921282257195 33.512910191500005 6.2058339432409682 -1 0 0 I I #
point $-1 -25.218784782317663 33.512910191499998 6.2058339432409753 #
point $-1 -35.788867328312989 26.330853476743606 5.0174315765229807 #
point $-1 -29.446817800715792 26.330853476743606 5.0174315765229807 #
straight-curve $-1 41.762353008941098 33.512910191500005 80.614055908158619 0 0 -1 I I #
point $-1 41.762353008941098 33.512910191500005 12.0990943627249 #
straight-curve $-1 17.181647613372185 33.512910191500005 6.2058339432409682 -1 0 0 I I #
point $-1 41.762353008941098 33.512910191499998 6.2058339432409753 #
point $-1 31.192270462945771 26.330853476743606 5.0174315765229807 #
point $-1 37.534319990542969 26.330853476743606 5.0174315765229807 #
straight-curve $-1 -88.448410229615916 -26.569736754943463 12.0990943627249 0 -1 0 I I #
point $-1 88.448410229615931 -23.539516780954333 12.0990943627249 #
straight-curve $-1 88.448410229615931 -26.569736754943463 12.0990943627249 0 1 0 I I #
End-of-ACIS-data 