500 0 7 0           
7 Unknown 11 ACIS 5.0 NT 24 Thu Mar 25 16:49:45 1999 
-1 9.9999999999999995e-007 1e-010 
body $-1 $7 $-1 $8 #
body $-1 $9 $-1 $10 #
body $-1 $11 $-1 $12 #
body $-1 $13 $-1 $14 #
body $-1 $15 $-1 $16 #
body $-1 $17 $-1 $18 #
body $-1 $19 $-1 $20 #
lump $-1 $-1 $21 $0 #
transform $-1 1 0 0 0 1 0 0 0 1 56.704611346781824 38.354308975523999 18.231845490031564 1 rotate no_reflect no_shear #
lump $-1 $-1 $22 $1 #
transform $-1 1 0 0 0 1 0 0 0 1 56.704611346781824 38.354308975523999 18.231845490031564 1 rotate no_reflect no_shear #
lump $-1 $-1 $23 $2 #
transform $-1 1 0 0 0 1 0 0 0 1 56.704611346781824 38.354308975523999 18.231845490031564 1 rotate no_reflect no_shear #
lump $-1 $-1 $24 $3 #
transform $-1 1 0 0 0 1 0 0 0 1 56.704611346781824 38.354308975523999 18.231845490031564 1 rotate no_reflect no_shear #
lump $-1 $-1 $25 $4 #
transform $-1 1 0 0 0 1 0 0 0 1 56.704611346781824 38.354308975523999 18.231845490031564 1 rotate no_reflect no_shear #
lump $-1 $-1 $26 $5 #
transform $-1 1 0 0 0 1 0 0 0 1 56.704611346781824 38.354308975523999 18.231845490031564 1 rotate no_reflect no_shear #
lump $-1 $-1 $27 $6 #
transform $-1 1 0 0 0 1 0 0 0 1 56.704611346781824 38.354308975523999 18.231845490031564 1 rotate no_reflect no_shear #
shell $-1 $-1 $-1 $28 $-1 $7 #
shell $-1 $-1 $-1 $29 $-1 $9 #
shell $-1 $-1 $-1 $30 $-1 $11 #
shell $-1 $-1 $-1 $31 $-1 $13 #
shell $-1 $-1 $-1 $32 $-1 $15 #
shell $-1 $-1 $-1 $33 $-1 $17 #
shell $-1 $-1 $-1 $34 $-1 $19 #
face $-1 $35 $36 $21 $-1 $37 reversed single #
face $-1 $38 $39 $22 $-1 $40 forward single #
face $-1 $41 $42 $23 $-1 $43 reversed single #
face $-1 $44 $45 $24 $-1 $46 forward single #
face $-1 $47 $48 $25 $-1 $49 reversed single #
face $-1 $50 $51 $26 $-1 $52 forward single #
face $-1 $53 $54 $27 $-1 $55 forward single #
face $-1 $56 $57 $21 $-1 $58 forward single #
loop $-1 $-1 $59 $28 #
plane-surface $-1 0 -38.354308975523999 0 0 1 0 0 0 1 forward_v I I I I #
face $-1 $60 $61 $22 $-1 $62 reversed single #
loop $-1 $-1 $63 $29 #
plane-surface $-1 0 -38.354308975523999 0 0 1 0 0 0 1 forward_v I I I I #
face $-1 $64 $65 $23 $-1 $66 reversed single #
loop $-1 $-1 $67 $30 #
plane-surface $-1 79.025871946106435 17.564030568814225 164.65140606340788 0 -1 0 -0.79863551827123203 0 -0.60181501223851219 forward_v I I I I #
face $-1 $68 $69 $24 $-1 $70 forward single #
loop $-1 $71 $72 $31 #
cone-surface $-1 50.542042206233347 11.73822429853913 10.907686888633332 -0.79863551827123203 0 -0.60181501223851219 0.90272251835776829 0 -1.197953277406848 1 I I 0 1 1.5 forward I I I I #
face $-1 $73 $74 $25 $-1 $75 reversed single #
loop $-1 $-1 $76 $32 #
plane-surface $-1 -139.64686709875502 -15.785835949389455 83.929548762255436 0 1 0 -0.73135370988377701 0 0.68199835119979291 forward_v I I I I #
face $-1 $77 $78 $26 $-1 $79 forward single #
loop $-1 $80 $81 $33 #
cone-surface $-1 -50.638381662468994 -13.381838009157498 11.815506339440212 0.73135370988377701 0 -0.68199835119979291 0.34099917559989645 0 0.36567685494188851 1 I I 0 1 0.5 forward I I I I #
face $-1 $82 $83 $27 $-1 $84 forward single #
loop $-1 $85 $86 $34 #
cone-surface $-1 -50.638381662468994 -9.7758410988095612 11.815506339440212 0.73135370988377701 0 -0.68199835119979291 0.34099917559989645 0 0.36567685494188851 1 I I 0 1 0.5 forward I I I I #
face $-1 $87 $88 $21 $-1 $89 reversed single #
loop $-1 $-1 $90 $35 #
plane-surface $-1 0 0 18.231845490031564 0 0 1 1 0 0 forward_v I I I I #
coedge $-1 $91 $92 $93 $94 reversed $36 $-1 #
face $-1 $95 $96 $22 $-1 $97 reversed single #
loop $-1 $-1 $98 $38 #
plane-surface $-1 0 0 -18.231845490031564 0 0 1 1 0 0 forward_v I I I I #
coedge $-1 $99 $100 $101 $102 forward $39 $-1 #
face $-1 $103 $104 $23 $-1 $105 reversed single #
loop $-1 $-1 $106 $41 #
plane-surface $-1 -11.546761396505332 11.73822429853913 96.400033320120713 0.79863551827123203 0 0.60181501223851219 0.60181501223851219 0 -0.79863551827123203 forward_v I I I I #
coedge $-1 $107 $108 $109 $110 reversed $42 $-1 #
face $-1 $-1 $111 $24 $-1 $112 forward single #
loop $-1 $113 $114 $44 #
cone-surface $-1 48.454206371719614 11.73822429853913 9.3343897843175192 -0.79863551827123203 0 -0.60181501223851219 0.45136125917888414 0 -0.59897663870342399 1 I I -0.70710678118654757 0.70710678118654757 0.75 forward I I I I #
loop $-1 $-1 $115 $31 #
coedge $-1 $72 $72 $116 $117 reversed $45 $-1 #
face $-1 $118 $119 $25 $-1 $120 reversed single #
loop $-1 $-1 $121 $47 #
plane-surface $-1 -56.704611346781817 -11.578839553983528 6.5846458743948943 -0.73135370988377701 0 0.68199835119979291 0.68199835119979291 0 0.73135370988377701 forward_v I I I I #
coedge $-1 $122 $123 $124 $125 reversed $48 $-1 #
face $-1 $-1 $126 $26 $-1 $127 forward single #
loop $-1 $128 $129 $50 #
cone-surface $-1 -49.819908095164521 -13.381838009157498 11.052267408867252 0.73135370988377701 0 -0.68199835119979291 0.17049958779994823 0 0.18283842747094425 1 I I -0.70710678118654746 0.70710678118654746 0.25 forward I I I I #
loop $-1 $-1 $130 $33 #
coedge $-1 $81 $81 $131 $132 reversed $51 $-1 #
face $-1 $-1 $133 $27 $-1 $134 forward single #
loop $-1 $135 $136 $53 #
cone-surface $-1 -49.819908095164521 -9.7758410988095612 11.052267408867252 0.73135370988377701 0 -0.68199835119979291 0.17049958779994823 0 0.18283842747094425 1 I I -0.70710678118654746 0.70710678118654746 0.25 forward I I I I #
loop $-1 $-1 $137 $34 #
coedge $-1 $86 $86 $138 $139 reversed $54 $-1 #
face $-1 $140 $141 $21 $-1 $142 reversed single #
loop $-1 $-1 $143 $56 #
plane-surface $-1 0 0 -18.231845490031564 0 0 1 1 0 0 forward_v I I I I #
coedge $-1 $144 $145 $146 $147 forward $57 $-1 #
coedge $-1 $148 $59 $149 $150 reversed $36 $-1 #
coedge $-1 $59 $148 $151 $152 forward $36 $-1 #
coedge $-1 $153 $143 $59 $94 forward $88 $-1 #
edge $-1 $154 -56.704611346781824 $155 56.704611346781824 $59 $156 forward 7 unknown #
face $-1 $157 $158 $22 $-1 $159 reversed single #
loop $-1 $-1 $160 $60 #
plane-surface $-1 -23.957675171518098 -60.92278200165854 0 0 1 0 0 0 1 forward_v I I I I #
coedge $-1 $161 $162 $100 $163 forward $61 $-1 #
coedge $-1 $164 $63 $165 $166 reversed $39 $-1 #
coedge $-1 $63 $164 $98 $163 reversed $39 $-1 #
coedge $-1 $167 $168 $63 $102 reversed $158 $-1 #
edge $-1 $169 -18.231845490031564 $170 18.231845490031564 $101 $171 forward 7 unknown #
face $-1 $172 $173 $23 $-1 $174 forward single #
loop $-1 $-1 $175 $64 #
plane-surface $-1 79.025871946106435 5.9124180282640353 164.65140606340788 0 1 0 0.79863551827123203 0 0.60181501223851219 forward_v I I I I #
coedge $-1 $176 $177 $178 $179 reversed $65 $-1 #
coedge $-1 $108 $67 $180 $181 reversed $42 $-1 #
coedge $-1 $67 $107 $176 $182 reversed $42 $-1 #
coedge $-1 $178 $183 $67 $110 forward $173 $-1 #
edge $-1 $184 -17.191675373728607 $185 -7.8442554842522725 $109 $186 forward 7 unknown #
loop $-1 $-1 $116 $68 #
plane-surface $-1 -11.546761396505332 11.73822429853913 96.400033320120713 0.79863551827123203 0 0.60181501223851219 0.60181501223851219 0 -0.79863551827123203 forward_v I I I I #
loop $-1 $-1 $187 $44 #
coedge $-1 $114 $114 $115 $188 reversed $69 $-1 #
coedge $-1 $115 $115 $114 $188 forward $71 $-1 #
coedge $-1 $116 $116 $72 $117 forward $111 $-1 #
edge $-1 $189 0 $189 6.2831853071796004 $116 $190 forward 7 unknown #
face $-1 $191 $192 $25 $-1 $193 reversed single #
loop $-1 $-1 $194 $73 #
plane-surface $-1 -139.64686709875502 -7.371843158577601 83.929548762255436 0 -1 0 0.73135370988377701 0 -0.68199835119979291 forward_v I I I I #
coedge $-1 $195 $196 $197 $198 reversed $74 $-1 #
coedge $-1 $123 $76 $199 $200 reversed $48 $-1 #
coedge $-1 $76 $122 $195 $201 reversed $48 $-1 #
coedge $-1 $197 $202 $76 $125 forward $203 $-1 #
edge $-1 $204 13.118822202595688 $205 23.980011291554291 $124 $206 forward 7 unknown #
loop $-1 $-1 $131 $77 #
plane-surface $-1 -56.704611346781817 -11.578839553983528 6.5846458743948943 -0.73135370988377701 0 0.68199835119979291 0.68199835119979291 0 0.73135370988377701 forward_v I I I I #
loop $-1 $-1 $207 $50 #
coedge $-1 $129 $129 $130 $208 reversed $78 $-1 #
coedge $-1 $130 $130 $129 $208 forward $80 $-1 #
coedge $-1 $131 $131 $81 $132 forward $126 $-1 #
edge $-1 $209 0 $209 6.2831853071796004 $131 $210 forward 7 unknown #
loop $-1 $-1 $138 $82 #
plane-surface $-1 -56.704611346781817 -11.578839553983528 6.5846458743948943 -0.73135370988377701 0 0.68199835119979291 0.68199835119979291 0 0.73135370988377701 forward_v I I I I #
loop $-1 $-1 $211 $53 #
coedge $-1 $136 $136 $137 $212 reversed $83 $-1 #
coedge $-1 $137 $137 $136 $212 forward $85 $-1 #
coedge $-1 $138 $138 $86 $139 forward $133 $-1 #
edge $-1 $213 0 $213 6.2831853071796004 $138 $214 forward 7 unknown #
face $-1 $215 $216 $21 $-1 $217 reversed single #
loop $-1 $-1 $218 $87 #
plane-surface $-1 -56.704611346781824 0 0 1 0 0 0 0 -1 forward_v I I I I #
coedge $-1 $93 $219 $220 $221 forward $88 $-1 #
coedge $-1 $222 $90 $223 $224 forward $57 $-1 #
coedge $-1 $90 $222 $148 $225 forward $57 $-1 #
coedge $-1 $149 $226 $90 $147 reversed $227 $-1 #
edge $-1 $228 -38.354308975523999 $229 38.354308975523999 $146 $230 forward 7 unknown #
coedge $-1 $92 $91 $145 $225 reversed $36 $-1 #
coedge $-1 $220 $146 $91 $150 forward $227 $-1 #
edge $-1 $228 -18.231845490031564 $154 18.231845490031564 $149 $231 forward 7 unknown #
coedge $-1 $232 $233 $92 $152 reversed $141 $-1 #
edge $-1 $234 -18.231845490031564 $155 18.231845490031564 $151 $235 forward 7 unknown #
coedge $-1 $219 $93 $233 $236 forward $88 $-1 #
vertex $-1 $150 $237 #
vertex $-1 $236 $238 #
straight-curve $-1 0 -38.354308975523999 -18.231845490031564 -1 0 0 I I #
face $-1 $239 $240 $22 $-1 $241 reversed single #
loop $-1 $-1 $101 $95 #
plane-surface $-1 -27.674429976317494 -49.638545488591269 0 1 0 0 0 0 -1 forward_v I I I I #
coedge $-1 $242 $243 $244 $245 forward $96 $-1 #
coedge $-1 $246 $98 $247 $248 forward $61 $-1 #
coedge $-1 $98 $246 $167 $249 forward $61 $-1 #
edge $-1 $169 -27.674429976317494 $250 -20.240920366718701 $98 $251 forward 7 unknown #
coedge $-1 $100 $99 $252 $253 forward $39 $-1 #
coedge $-1 $254 $255 $99 $166 forward $256 $-1 #
edge $-1 $257 20.240920366718701 $170 27.674429976317494 $165 $258 forward 7 unknown #
coedge $-1 $244 $101 $162 $249 reversed $158 $-1 #
coedge $-1 $101 $244 $254 $259 reversed $158 $-1 #
vertex $-1 $163 $260 #
vertex $-1 $259 $261 #
straight-curve $-1 -27.674429976317494 -38.354308975523999 0 0 0 1 I I #
face $-1 $-1 $262 $23 $-1 $263 reversed single #
loop $-1 $-1 $109 $103 #
plane-surface $-1 0 0 18.231845490031564 0 0 1 1 0 0 forward_v I I I I #
coedge $-1 $264 $265 $266 $267 reversed $104 $-1 #
coedge $-1 $268 $106 $108 $182 forward $65 $-1 #
coedge $-1 $106 $268 $264 $269 forward $65 $-1 #
coedge $-1 $266 $109 $106 $179 forward $173 $-1 #
edge $-1 $185 -11.69491841954466 $270 -0.043305878994470248 $178 $271 forward 7 unknown #
coedge $-1 $272 $273 $107 $181 forward $262 $-1 #
edge $-1 $274 -76.498303054194992 $184 -64.093857541672378 $180 $275 forward 7 unknown #
edge $-1 $185 97.877174307619171 $274 113.40922269356363 $108 $276 forward 7 unknown #
coedge $-1 $109 $266 $272 $277 forward $173 $-1 #
vertex $-1 $110 $278 #
vertex $-1 $110 $279 #
straight-curve $-1 39.512935973053217 17.564030568814225 18.23184549003156 -1 0 0 I I #
coedge $-1 $187 $187 $-1 $280 reversed $113 $-1 #
edge $-1 $281 0 $281 6.2831853071796004 $114 $282 forward 7 unknown #
vertex $-1 $117 $283 #
ellipse-curve $-1 52.030901402043654 11.73822429853913 12.02962273377026 0.79863551827123203 0 0.60181501223851219 0.90272251835776829 0 -1.197953277406848 1 I I #
face $-1 $-1 $203 $25 $-1 $284 forward single #
loop $-1 $-1 $285 $118 #
plane-surface $-1 -56.704611346781824 0 0 1 0 0 0 0 -1 forward_v I I I I #
coedge $-1 $286 $287 $288 $289 reversed $119 $-1 #
coedge $-1 $290 $121 $123 $201 forward $74 $-1 #
coedge $-1 $121 $290 $286 $291 forward $74 $-1 #
coedge $-1 $288 $124 $121 $198 forward $203 $-1 #
edge $-1 $205 -9.9964161723976908 $292 -1.5824233815858371 $197 $293 forward 7 unknown #
coedge $-1 $294 $295 $122 $200 forward $192 $-1 #
edge $-1 $296 -35.380128506732831 $204 -23.732928891096154 $199 $297 forward 7 unknown #
edge $-1 $205 -15.925535699391723 $296 1.0692042983031357e-014 $123 $298 forward 7 unknown #
coedge $-1 $124 $288 $294 $299 forward $203 $-1 #
loop $-1 $-1 $288 $191 #
vertex $-1 $200 $300 #
vertex $-1 $125 $301 #
straight-curve $-1 -69.823433549377512 -15.785835949389455 18.231845490031567 1 0 0 I I #
coedge $-1 $207 $207 $-1 $302 reversed $128 $-1 #
edge $-1 $303 0 $303 6.2831853071796004 $129 $304 forward 7 unknown #
vertex $-1 $132 $305 #
ellipse-curve $-1 -51.274016802302519 -13.381838009157498 12.408245682213225 -0.73135370988377701 0 0.68199835119979291 0.34099917559989645 0 0.36567685494188851 1 I I #
coedge $-1 $211 $211 $-1 $306 reversed $135 $-1 #
edge $-1 $307 0 $307 6.2831853071796004 $136 $308 forward 7 unknown #
vertex $-1 $139 $309 #
ellipse-curve $-1 -51.274016802302519 -9.7758410988095612 12.408245682213225 -0.73135370988377701 0 0.68199835119979291 0.34099917559989645 0 0.36567685494188851 1 I I #
face $-1 $-1 $227 $21 $-1 $310 reversed single #
loop $-1 $-1 $311 $140 #
plane-surface $-1 0 38.354308975523999 0 0 -1 0 0 0 -1 forward_v I I I I #
coedge $-1 $233 $232 $312 $313 forward $141 $-1 #
coedge $-1 $143 $153 $314 $315 forward $88 $-1 #
coedge $-1 $226 $149 $143 $221 reversed $227 $-1 #
edge $-1 $316 -38.354308975523999 $154 38.354308975523999 $220 $317 forward 7 unknown #
coedge $-1 $145 $144 $232 $318 forward $57 $-1 #
coedge $-1 $311 $312 $144 $224 reversed $216 $-1 #
edge $-1 $229 -56.704611346781824 $319 56.704611346781824 $223 $320 forward 7 unknown #
edge $-1 $234 -56.704611346781824 $228 56.704611346781824 $148 $321 forward 7 unknown #
coedge $-1 $146 $220 $311 $322 reversed $227 $-1 #
loop $-1 $-1 $149 $215 #
vertex $-1 $147 $323 #
vertex $-1 $147 $324 #
straight-curve $-1 56.704611346781824 0 18.231845490031564 0 1 0 I I #
straight-curve $-1 56.704611346781824 -38.354308975523999 0 0 0 -1 I I #
coedge $-1 $218 $151 $222 $318 reversed $141 $-1 #
coedge $-1 $151 $218 $153 $236 reversed $141 $-1 #
vertex $-1 $318 $325 #
straight-curve $-1 -56.704611346781824 -38.354308975523999 0 0 0 -1 I I #
edge $-1 $155 -38.354308975523999 $326 38.354308975523999 $233 $327 forward 7 unknown #
point $-1 56.704611346781824 -38.354308975523999 -18.231845490031564 #
point $-1 -56.704611346781824 -38.354308975523999 -18.231845490031564 #
face $-1 $-1 $256 $22 $-1 $328 forward single #
loop $-1 $-1 $329 $157 #
plane-surface $-1 -20.240920366718701 -49.638545488591269 0 -1 0 0 0 0 1 forward_v I I I I #
coedge $-1 $330 $160 $246 $331 reversed $96 $-1 #
coedge $-1 $160 $330 $332 $333 reversed $96 $-1 #
coedge $-1 $168 $167 $160 $245 reversed $158 $-1 #
edge $-1 $334 -18.231845490031564 $335 18.231845490031564 $244 $336 forward 7 unknown #
coedge $-1 $162 $161 $242 $331 forward $61 $-1 #
coedge $-1 $252 $329 $161 $248 reversed $240 $-1 #
edge $-1 $250 -11.28423651306727 $337 11.28423651306727 $247 $338 forward 7 unknown #
edge $-1 $335 -11.28423651306727 $169 11.28423651306727 $167 $339 forward 7 unknown #
vertex $-1 $248 $340 #
straight-curve $-1 0 -38.354308975523999 -18.231845490031564 1 0 0 I I #
coedge $-1 $341 $247 $164 $253 reversed $240 $-1 #
edge $-1 $257 -18.231845490031564 $250 18.231845490031564 $252 $342 forward 7 unknown #
coedge $-1 $332 $165 $168 $259 forward $256 $-1 #
coedge $-1 $165 $332 $341 $343 forward $256 $-1 #
loop $-1 $-1 $165 $239 #
vertex $-1 $166 $344 #
straight-curve $-1 0 -38.354308975523999 18.231845490031564 -1 0 0 I I #
edge $-1 $170 -11.28423651306727 $334 11.28423651306727 $168 $345 forward 7 unknown #
point $-1 -27.674429976317494 -38.354308975523999 -18.231845490031564 #
point $-1 -27.674429976317494 -38.354308975523999 18.231845490031564 #
loop $-1 $-1 $180 $172 #
plane-surface $-1 56.704611346781824 0 0 -1 0 0 0 0 1 forward_v I I I I #
coedge $-1 $265 $175 $177 $269 reversed $104 $-1 #
coedge $-1 $175 $264 $346 $347 reversed $104 $-1 #
coedge $-1 $183 $178 $175 $267 forward $173 $-1 #
edge $-1 $270 7.8442554842522725 $348 17.191675373728607 $266 $349 forward 7 unknown #
coedge $-1 $177 $176 $273 $350 reversed $65 $-1 #
edge $-1 $351 -113.40922269356363 $270 -97.877174307619171 $264 $352 forward 7 unknown #
vertex $-1 $179 $353 #
straight-curve $-1 47.35719145730549 5.869112149269565 18.231845490031567 0 -1 0 I I #
coedge $-1 $346 $180 $183 $277 reversed $262 $-1 #
coedge $-1 $180 $346 $268 $350 forward $262 $-1 #
vertex $-1 $181 $354 #
straight-curve $-1 56.704611346781824 17.564030568814225 82.325703031703938 0 0 1 I I #
straight-curve $-1 -11.546761396505332 17.564030568814225 96.400033320120713 0.60181501223851219 0 -0.79863551827123203 I I #
edge $-1 $348 5.9124180282640353 $184 17.564030568814225 $272 $355 forward 7 unknown #
point $-1 56.704611346781824 17.564030568814225 18.231845490031564 #
point $-1 47.35719145730549 17.564030568814225 18.23184549003156 #
edge $-1 $356 1 $356 0 $187 $-1 forward 7 unknown #
vertex $-1 $188 $357 #
ellipse-curve $-1 49.053183010423041 11.73822429853913 9.7857510434964041 0.79863551827123203 0 0.60181501223851219 0.90272251835776829 0 -1.197953277406848 1 I I #
point $-1 52.93362392040143 11.73822429853913 10.831669456363414 #
plane-surface $-1 0 0 18.231845490031564 0 0 1 1 0 0 forward_v I I I I #
coedge $-1 $295 $294 $287 $358 forward $192 $-1 #
coedge $-1 $287 $194 $196 $291 reversed $119 $-1 #
coedge $-1 $194 $286 $285 $358 reversed $119 $-1 #
coedge $-1 $202 $197 $194 $289 forward $203 $-1 #
edge $-1 $292 -23.980011291554291 $359 -13.118822202595688 $288 $360 forward 7 unknown #
coedge $-1 $196 $195 $295 $361 reversed $74 $-1 #
edge $-1 $362 -1.0692042983031357e-014 $292 15.925535699391723 $286 $363 forward 7 unknown #
vertex $-1 $198 $364 #
straight-curve $-1 -45.843422257823214 -5.7894197769917639 18.231845490031564 0 1 0 I I #
coedge $-1 $285 $199 $202 $299 reversed $192 $-1 #
coedge $-1 $199 $285 $290 $361 forward $192 $-1 #
vertex $-1 $200 $365 #
straight-curve $-1 -56.704611346781824 -15.785835949389455 41.964774381127718 0 0 1 I I #
straight-curve $-1 -56.704611346781817 -15.785835949389455 6.5846458743948943 -0.68199835119979291 0 -0.73135370988377701 I I #
edge $-1 $359 7.371843158577601 $204 15.785835949389455 $294 $366 forward 7 unknown #
point $-1 -56.704611346781824 -15.785835949389455 18.231845490031564 #
point $-1 -45.843422257823221 -15.785835949389455 18.231845490031564 #
edge $-1 $367 1 $367 0 $207 $-1 forward 7 unknown #
vertex $-1 $208 $368 #
ellipse-curve $-1 -50.002746522635462 -13.381838009157498 11.2227669966672 -0.73135370988377701 0 0.68199835119979291 0.34099917559989645 0 0.36567685494188851 1 I I #
point $-1 -50.933017626702622 -13.381838009157498 12.773922537155114 #
edge $-1 $369 1 $369 0 $211 $-1 forward 7 unknown #
vertex $-1 $212 $370 #
ellipse-curve $-1 -50.002746522635462 -9.7758410988095612 11.2227669966672 -0.73135370988377701 0 0.68199835119979291 0.34099917559989645 0 0.36567685494188851 1 I I #
point $-1 -50.933017626702622 -9.7758410988095612 12.773922537155114 #
plane-surface $-1 56.704611346781824 0 0 -1 0 0 0 0 1 forward_v I I I I #
coedge $-1 $314 $223 $226 $322 forward $216 $-1 #
coedge $-1 $223 $314 $218 $313 reversed $216 $-1 #
edge $-1 $319 -18.231845490031564 $326 18.231845490031564 $312 $371 forward 7 unknown #
coedge $-1 $312 $311 $219 $315 reversed $216 $-1 #
edge $-1 $326 -56.704611346781824 $316 56.704611346781824 $314 $372 forward 7 unknown #
vertex $-1 $221 $373 #
straight-curve $-1 56.704611346781824 0 -18.231845490031564 0 -1 0 I I #
edge $-1 $319 -38.354308975523999 $234 38.354308975523999 $232 $374 forward 7 unknown #
vertex $-1 $224 $375 #
straight-curve $-1 0 38.354308975523999 18.231845490031564 -1 0 0 I I #
straight-curve $-1 0 -38.354308975523999 18.231845490031564 1 0 0 I I #
edge $-1 $229 -18.231845490031564 $316 18.231845490031564 $226 $376 forward 7 unknown #
point $-1 56.704611346781824 -38.354308975523999 18.231845490031564 #
point $-1 56.704611346781824 38.354308975523999 18.231845490031564 #
point $-1 -56.704611346781824 -38.354308975523999 18.231845490031564 #
vertex $-1 $315 $377 #
straight-curve $-1 -56.704611346781824 0 -18.231845490031564 0 1 0 I I #
plane-surface $-1 0 0 18.231845490031564 0 0 1 1 0 0 forward_v I I I I #
coedge $-1 $247 $341 $330 $378 forward $240 $-1 #
coedge $-1 $243 $242 $329 $378 reversed $96 $-1 #
edge $-1 $337 -3.7167548047993968 $335 3.7167548047993968 $242 $379 forward 7 unknown #
coedge $-1 $255 $254 $243 $333 forward $256 $-1 #
edge $-1 $334 -3.7167548047993968 $380 3.7167548047993968 $243 $381 forward 7 unknown #
vertex $-1 $259 $382 #
vertex $-1 $249 $383 #
straight-curve $-1 -27.674429976317494 -60.92278200165854 0 0 0 -1 I I #
vertex $-1 $378 $384 #
straight-curve $-1 -20.240920366718701 -49.638545488591269 -18.231845490031564 0 -1 0 I I #
straight-curve $-1 -27.674429976317494 -49.638545488591269 -18.231845490031564 0 1 0 I I #
point $-1 -20.240920366718701 -38.354308975523999 -18.231845490031564 #
coedge $-1 $329 $252 $255 $343 reversed $240 $-1 #
straight-curve $-1 -20.240920366718701 -38.354308975523999 0 0 0 -1 I I #
edge $-1 $380 -11.28423651306727 $257 11.28423651306727 $341 $385 forward 7 unknown #
point $-1 -20.240920366718701 -38.354308975523999 18.231845490031564 #
straight-curve $-1 -27.674429976317494 -49.638545488591269 18.231845490031564 0 -1 0 I I #
coedge $-1 $273 $272 $265 $347 forward $262 $-1 #
edge $-1 $348 64.093857541672378 $351 76.498303054194992 $346 $386 forward 7 unknown #
vertex $-1 $277 $387 #
straight-curve $-1 39.512935973053217 5.9124180282640353 18.23184549003156 1 0 0 I I #
edge $-1 $351 0.043305878994470248 $274 11.69491841954466 $273 $388 forward 7 unknown #
vertex $-1 $350 $389 #
straight-curve $-1 -11.546761396505332 5.9124180282640353 96.400033320120713 -0.60181501223851219 0 0.79863551827123203 I I #
point $-1 47.35719145730549 5.9124180282640353 18.23184549003156 #
point $-1 56.704611346781832 17.564030568814225 5.8273999775089464 #
straight-curve $-1 56.704611346781824 0 18.231845490031564 0 1 0 I I #
vertex $-1 $280 $390 #
point $-1 49.955905528780804 11.73822429853913 8.5877977660895546 #
edge $-1 $359 23.732928891096154 $362 35.380128506732831 $285 $391 forward 7 unknown #
vertex $-1 $299 $392 #
straight-curve $-1 -69.823433549377512 -7.371843158577601 18.231845490031567 -1 0 0 I I #
edge $-1 $362 1.5824233815858371 $296 9.9964161723976908 $295 $393 forward 7 unknown #
vertex $-1 $361 $394 #
straight-curve $-1 -56.704611346781817 -7.371843158577601 6.5846458743948943 0.68199835119979291 0 0.73135370988377701 I I #
point $-1 -45.843422257823221 -7.371843158577601 18.231845490031564 #
point $-1 -56.704611346781824 -15.785835949389455 6.5846458743948864 #
straight-curve $-1 -56.704611346781824 0 18.231845490031564 0 -1 0 I I #
vertex $-1 $302 $395 #
point $-1 -49.661747347035572 -13.381838009157498 11.588443851609089 #
vertex $-1 $306 $396 #
point $-1 -49.661747347035572 -9.7758410988095612 11.588443851609089 #
straight-curve $-1 -56.704611346781824 38.354308975523999 0 0 0 -1 I I #
straight-curve $-1 0 38.354308975523999 -18.231845490031564 1 0 0 I I #
point $-1 56.704611346781824 38.354308975523999 -18.231845490031564 #
straight-curve $-1 -56.704611346781824 0 18.231845490031564 0 -1 0 I I #
point $-1 -56.704611346781824 38.354308975523999 18.231845490031564 #
straight-curve $-1 56.704611346781824 38.354308975523999 0 0 0 -1 I I #
point $-1 -56.704611346781824 38.354308975523999 -18.231845490031564 #
edge $-1 $380 -18.231845490031564 $337 18.231845490031564 $329 $397 forward 7 unknown #
straight-curve $-1 -23.957675171518098 -60.92278200165854 -18.231845490031564 -1 0 0 I I #
vertex $-1 $343 $398 #
straight-curve $-1 -23.957675171518098 -60.92278200165854 18.231845490031564 1 0 0 I I #
point $-1 -27.674429976317494 -60.92278200165854 18.231845490031564 #
point $-1 -27.674429976317494 -60.92278200165854 -18.231845490031564 #
point $-1 -20.240920366718701 -60.92278200165854 -18.231845490031564 #
straight-curve $-1 -20.240920366718701 -49.638545488591269 18.231845490031564 0 1 0 I I #
straight-curve $-1 56.704611346781824 5.9124180282640353 82.325703031703938 0 0 -1 I I #
point $-1 56.704611346781824 5.9124180282640353 18.231845490031564 #
straight-curve $-1 56.704611346781817 5.869112149269565 5.8273999775089536 0 1 0 I I #
point $-1 56.704611346781832 5.9124180282640353 5.8273999775089464 #
point $-1 47.855229733016188 11.73822429853913 8.8830285251386343 #
straight-curve $-1 -56.704611346781824 -7.371843158577601 41.964774381127718 0 0 -1 I I #
point $-1 -56.704611346781824 -7.371843158577601 18.231845490031564 #
straight-curve $-1 -56.704611346781824 -5.7894197769917639 6.5846458743948793 0 -1 0 I I #
point $-1 -56.704611346781824 -7.371843158577601 6.5846458743948864 #
point $-1 -49.637069667693581 -13.381838009157498 10.881767821067303 #
point $-1 -49.637069667693581 -9.7758410988095612 10.881767821067303 #
straight-curve $-1 -20.240920366718701 -60.92278200165854 0 0 0 -1 I I #
point $-1 -20.240920366718701 -60.92278200165854 18.231845490031564 #
End-of-ACIS-data 