500 0 4 0           
7 Unknown 11 ACIS 5.0 NT 24 Thu Mar 25 15:36:39 1999 
-1 9.9999999999999995e-007 1e-010 
body $-1 $4 $-1 $5 #
body $-1 $6 $-1 $7 #
body $-1 $8 $-1 $9 #
body $-1 $10 $-1 $11 #
lump $-1 $-1 $12 $0 #
transform $-1 1 0 0 0 1 0 0 0 1 71.036103396710104 41.349745723964666 16.914439887256471 1 rotate no_reflect no_shear #
lump $-1 $-1 $13 $1 #
transform $-1 1 0 0 0 1 0 0 0 1 71.036103396710104 41.349745723964666 16.914439887256471 1 rotate no_reflect no_shear #
lump $-1 $-1 $14 $2 #
transform $-1 1 0 0 0 1 0 0 0 1 71.036103396710104 41.349745723964666 16.914439887256471 1 rotate no_reflect no_shear #
lump $-1 $-1 $15 $3 #
transform $-1 1 0 0 0 1 0 0 0 1 71.036103396710104 41.349745723964666 16.914439887256471 1 rotate no_reflect no_shear #
shell $-1 $-1 $-1 $16 $-1 $4 #
shell $-1 $-1 $-1 $17 $-1 $6 #
shell $-1 $-1 $-1 $18 $-1 $8 #
shell $-1 $-1 $-1 $19 $-1 $10 #
face $-1 $20 $21 $12 $-1 $22 forward single #
face $-1 $23 $24 $13 $-1 $25 forward single #
face $-1 $26 $27 $14 $-1 $28 reversed single #
face $-1 $29 $30 $15 $-1 $31 forward single #
face $-1 $32 $33 $12 $-1 $34 reversed single #
loop $-1 $-1 $35 $16 #
plane-surface $-1 0 0 16.914439887256471 0 0 1 1 0 0 forward_v I I I I #
face $-1 $36 $37 $13 $-1 $38 reversed single #
loop $-1 $-1 $39 $17 #
plane-surface $-1 0 -34.434843741686073 -12.278003345023123 0 0 1 1 0 0 forward_v I I I I #
face $-1 $40 $41 $14 $-1 $42 reversed single #
loop $-1 $-1 $43 $18 #
plane-surface $-1 -41.597104938954274 105.04386077051115 151.91143674193185 -1 0 0 0 0.79863551827123203 0.60181501223851219 forward_v I I I I #
face $-1 $44 $45 $15 $-1 $46 forward single #
loop $-1 $47 $48 $19 #
cone-surface $-1 -56.316604167832189 32.902250599533573 6.9724989285076431 0 -0.79863551827123203 -0.60181501223851219 1.5 0 0 1 I I 0 1 1.5 forward I I I I #
face $-1 $49 $50 $12 $-1 $51 reversed single #
loop $-1 $-1 $52 $20 #
plane-surface $-1 0 0 -16.914439887256471 0 0 1 1 0 0 forward_v I I I I #
coedge $-1 $53 $54 $55 $56 forward $21 $-1 #
face $-1 $57 $58 $13 $-1 $59 reversed single #
loop $-1 $-1 $60 $23 #
plane-surface $-1 0 -27.51994175940748 -14.596221616139797 0 -1 0 0 0 -1 forward_v I I I I #
coedge $-1 $61 $62 $63 $64 reversed $24 $-1 #
face $-1 $65 $66 $14 $-1 $67 reversed single #
loop $-1 $-1 $68 $26 #
plane-surface $-1 -56.316604167832189 -8.4200497338896554 66.410249871797234 0 0.79863551827123203 0.60181501223851219 1 0 0 forward_v I I I I #
coedge $-1 $69 $70 $71 $72 reversed $27 $-1 #
face $-1 $-1 $73 $15 $-1 $74 forward single #
loop $-1 $75 $76 $29 #
cone-surface $-1 -56.316604167832189 30.091793057064116 4.8546673249517269 0 -0.79863551827123203 -0.60181501223851219 0.75 0 0 1 I I -0.70710678118654757 0.70710678118654757 0.75 forward I I I I #
loop $-1 $-1 $77 $19 #
coedge $-1 $48 $48 $78 $79 reversed $30 $-1 #
face $-1 $80 $81 $12 $-1 $82 reversed single #
loop $-1 $-1 $83 $32 #
plane-surface $-1 0 -41.349745723964666 0 0 1 0 0 0 1 forward_v I I I I #
coedge $-1 $84 $85 $86 $87 forward $33 $-1 #
coedge $-1 $88 $35 $89 $90 forward $21 $-1 #
coedge $-1 $35 $88 $91 $92 forward $21 $-1 #
coedge $-1 $93 $94 $35 $56 reversed $95 $-1 #
edge $-1 $96 -41.349745723964666 $97 41.349745723964666 $55 $98 forward 7 unknown #
face $-1 $99 $100 $13 $-1 $101 reversed single #
loop $-1 $-1 $102 $36 #
plane-surface $-1 0 0 -16.914439887256471 0 0 1 1 0 0 forward_v I I I I #
coedge $-1 $103 $104 $105 $106 reversed $37 $-1 #
coedge $-1 $107 $39 $104 $108 forward $24 $-1 #
coedge $-1 $39 $107 $109 $110 reversed $24 $-1 #
coedge $-1 $111 $105 $39 $64 forward $100 $-1 #
edge $-1 $112 10.302519888564444 $113 24.13232385312163 $63 $114 forward 7 unknown #
face $-1 $115 $116 $14 $-1 $117 forward single #
loop $-1 $-1 $71 $40 #
plane-surface $-1 0 41.349745723964666 0 0 -1 0 0 0 -1 forward_v I I I I #
coedge $-1 $118 $119 $120 $121 reversed $41 $-1 #
coedge $-1 $70 $43 $122 $123 reversed $27 $-1 #
coedge $-1 $43 $69 $118 $124 reversed $27 $-1 #
coedge $-1 $120 $125 $43 $72 forward $66 $-1 #
edge $-1 $126 59.041278483709455 $127 75.592219712453058 $71 $128 forward 7 unknown #
loop $-1 $-1 $78 $44 #
plane-surface $-1 -56.316604167832189 -8.4200497338896554 66.410249871797234 0 0.79863551827123203 0.60181501223851219 1 0 0 forward_v I I I I #
loop $-1 $-1 $129 $29 #
coedge $-1 $76 $76 $77 $130 reversed $45 $-1 #
coedge $-1 $77 $77 $76 $130 forward $47 $-1 #
coedge $-1 $78 $78 $48 $79 forward $73 $-1 #
edge $-1 $131 -9.5921968135758198e-016 $131 6.2831853071795996 $78 $132 forward 7 unknown #
face $-1 $133 $134 $12 $-1 $135 reversed single #
loop $-1 $-1 $136 $49 #
plane-surface $-1 -71.036103396710104 0 0 1 0 0 0 0 -1 forward_v I I I I #
coedge $-1 $137 $91 $138 $139 forward $50 $-1 #
coedge $-1 $140 $52 $137 $141 forward $33 $-1 #
coedge $-1 $52 $140 $142 $143 forward $33 $-1 #
coedge $-1 $94 $93 $52 $87 reversed $95 $-1 #
edge $-1 $144 -41.349745723964666 $145 41.349745723964666 $86 $146 forward 7 unknown #
coedge $-1 $54 $53 $147 $148 forward $21 $-1 #
coedge $-1 $149 $150 $53 $90 reversed $134 $-1 #
edge $-1 $97 -71.036103396710104 $151 71.036103396710104 $89 $152 forward 7 unknown #
coedge $-1 $83 $153 $54 $92 reversed $50 $-1 #
edge $-1 $154 -71.036103396710104 $96 71.036103396710104 $91 $155 forward 7 unknown #
coedge $-1 $86 $55 $153 $156 forward $95 $-1 #
coedge $-1 $55 $86 $149 $157 reversed $95 $-1 #
loop $-1 $-1 $93 $133 #
vertex $-1 $56 $158 #
vertex $-1 $56 $159 #
straight-curve $-1 71.036103396710104 0 16.914439887256471 0 1 0 I I #
face $-1 $160 $161 $13 $-1 $162 reversed single #
loop $-1 $-1 $105 $57 #
plane-surface $-1 71.036103396710104 0 0 -1 0 0 0 0 1 forward_v I I I I #
coedge $-1 $163 $164 $103 $165 forward $58 $-1 #
coedge $-1 $166 $60 $102 $165 reversed $37 $-1 #
coedge $-1 $60 $166 $61 $108 reversed $37 $-1 #
coedge $-1 $63 $167 $60 $106 forward $100 $-1 #
edge $-1 $168 -9.6163290791865723 $112 -4.9798925369532245 $105 $169 forward 7 unknown #
coedge $-1 $62 $61 $170 $171 reversed $24 $-1 #
edge $-1 $112 -71.036103396710104 $172 71.036103396710104 $104 $173 forward 7 unknown #
coedge $-1 $174 $175 $62 $110 forward $161 $-1 #
edge $-1 $113 -71.036103396710104 $176 71.036103396710104 $109 $177 forward 7 unknown #
coedge $-1 $167 $63 $175 $178 forward $100 $-1 #
vertex $-1 $64 $179 #
vertex $-1 $178 $180 #
straight-curve $-1 71.036103396710104 -17.217421870843037 -12.278003345023123 0 -1 0 I I #
face $-1 $-1 $181 $14 $-1 $182 reversed single #
loop $-1 $-1 $122 $65 #
plane-surface $-1 0 0 16.914439887256471 0 0 1 1 0 0 forward_v I I I I #
coedge $-1 $183 $68 $70 $124 forward $41 $-1 #
coedge $-1 $68 $183 $184 $185 reversed $41 $-1 #
coedge $-1 $186 $71 $68 $121 forward $66 $-1 #
edge $-1 $127 13.43880285503818 $187 42.877801312794006 $120 $188 forward 7 unknown #
coedge $-1 $189 $190 $69 $123 forward $116 $-1 #
edge $-1 $191 -23.644213102621023 $126 -11.172184661290906 $122 $192 forward 7 unknown #
edge $-1 $127 -82.699491447929333 $191 -61.975467972776819 $70 $193 forward 7 unknown #
coedge $-1 $71 $186 $189 $194 reversed $66 $-1 #
vertex $-1 $194 $195 #
vertex $-1 $72 $196 #
straight-curve $-1 -41.597104938954274 41.349745723964666 75.955718370965926 0 0 -1 I I #
coedge $-1 $129 $129 $-1 $197 reversed $75 $-1 #
edge $-1 $198 0 $198 6.2831853071796004 $76 $199 forward 7 unknown #
vertex $-1 $79 $200 #
ellipse-curve $-1 -56.316604167832189 35.113731503299611 8.6389692728846796 0 0.79863551827123203 0.60181501223851219 1.5 0 0 1 I I #
face $-1 $-1 $95 $12 $-1 $201 reversed single #
loop $-1 $-1 $149 $80 #
plane-surface $-1 0 41.349745723964666 0 0 -1 0 0 0 -1 forward_v I I I I #
coedge $-1 $202 $147 $150 $203 forward $81 $-1 #
coedge $-1 $153 $83 $84 $141 reversed $50 $-1 #
coedge $-1 $147 $202 $83 $139 reversed $81 $-1 #
edge $-1 $154 -16.914439887256471 $204 16.914439887256471 $138 $205 forward 7 unknown #
coedge $-1 $85 $84 $202 $206 forward $33 $-1 #
edge $-1 $145 -71.036103396710104 $204 71.036103396710104 $137 $207 forward 7 unknown #
coedge $-1 $150 $149 $85 $143 reversed $134 $-1 #
edge $-1 $208 -71.036103396710104 $144 71.036103396710104 $142 $209 forward 7 unknown #
vertex $-1 $87 $210 #
vertex $-1 $156 $211 #
straight-curve $-1 71.036103396710104 0 -16.914439887256471 0 -1 0 I I #
coedge $-1 $136 $138 $88 $148 reversed $81 $-1 #
edge $-1 $151 -41.349745723964666 $154 41.349745723964666 $147 $212 forward 7 unknown #
coedge $-1 $142 $89 $94 $157 forward $134 $-1 #
coedge $-1 $89 $142 $136 $203 reversed $134 $-1 #
vertex $-1 $90 $213 #
straight-curve $-1 0 41.349745723964666 16.914439887256471 -1 0 0 I I #
coedge $-1 $91 $137 $93 $156 reversed $50 $-1 #
vertex $-1 $148 $214 #
straight-curve $-1 0 -41.349745723964666 16.914439887256471 1 0 0 I I #
edge $-1 $96 -16.914439887256471 $145 16.914439887256471 $93 $215 forward 7 unknown #
edge $-1 $97 -16.914439887256471 $144 16.914439887256471 $94 $216 forward 7 unknown #
point $-1 71.036103396710104 -41.349745723964666 16.914439887256471 #
point $-1 71.036103396710104 41.349745723964666 16.914439887256471 #
face $-1 $-1 $217 $13 $-1 $218 reversed single #
loop $-1 $-1 $109 $99 #
plane-surface $-1 0 -41.349745723964666 0 0 1 0 0 0 1 forward_v I I I I #
coedge $-1 $219 $102 $167 $220 forward $58 $-1 #
coedge $-1 $102 $219 $221 $222 forward $58 $-1 #
edge $-1 $223 -71.036103396710104 $168 71.036103396710104 $102 $224 forward 7 unknown #
coedge $-1 $104 $103 $225 $226 reversed $37 $-1 #
coedge $-1 $105 $111 $163 $220 reversed $100 $-1 #
vertex $-1 $220 $227 #
straight-curve $-1 71.036103396710104 -27.51994175940748 -7.2981108080698984 0 0 1 I I #
coedge $-1 $225 $228 $107 $171 forward $217 $-1 #
edge $-1 $176 -24.13232385312163 $172 -10.302519888564444 $170 $229 forward 7 unknown #
vertex $-1 $171 $230 #
straight-curve $-1 0 -27.51994175940748 -12.278003345023123 -1 0 0 I I #
coedge $-1 $231 $109 $228 $232 forward $161 $-1 #
coedge $-1 $109 $231 $111 $178 reversed $161 $-1 #
vertex $-1 $232 $233 #
straight-curve $-1 0 -41.349745723964666 -12.278003345023123 -1 0 0 I I #
edge $-1 $113 12.278003345023123 $234 16.914439887256471 $111 $235 forward 7 unknown #
point $-1 71.036103396710104 -27.51994175940748 -12.278003345023123 #
point $-1 71.036103396710104 -41.349745723964666 -12.278003345023123 #
loop $-1 $-1 $184 $115 #
plane-surface $-1 -71.036103396710104 0 0 1 0 0 0 0 -1 forward_v I I I I #
coedge $-1 $119 $118 $190 $236 reversed $41 $-1 #
coedge $-1 $237 $238 $119 $185 forward $181 $-1 #
edge $-1 $187 -53.647043118662083 $239 -32.923019643509576 $184 $240 forward 7 unknown #
coedge $-1 $125 $120 $238 $241 reversed $66 $-1 #
vertex $-1 $121 $242 #
straight-curve $-1 -28.158302083916094 41.349745723964666 0.36349865851288143 -1 0 0 I I #
coedge $-1 $243 $122 $125 $194 forward $116 $-1 #
coedge $-1 $122 $243 $183 $236 forward $116 $-1 #
vertex $-1 $123 $244 #
straight-curve $-1 -41.597104938954274 52.521930385255573 16.914439887256464 0 1 0 I I #
straight-curve $-1 -41.597104938954274 -8.4200497338896554 66.410249871797234 0 -0.60181501223851219 0.79863551827123203 I I #
edge $-1 $126 41.597104938954274 $245 71.036103396710104 $125 $246 forward 7 unknown #
point $-1 -41.597104938954274 41.349745723964666 16.914439887256471 #
point $-1 -41.597104938954274 41.349745723964674 0.36349865851286722 #
edge $-1 $247 1 $247 0 $129 $-1 forward 7 unknown #
vertex $-1 $130 $248 #
ellipse-curve $-1 -56.316604167832189 30.690769695767539 5.306028584130611 0 0.79863551827123203 0.60181501223851219 1.5 0 0 1 I I #
point $-1 -54.816604167832189 35.113731503299604 8.6389692728846761 #
plane-surface $-1 71.036103396710104 0 0 -1 0 0 0 0 1 forward_v I I I I #
coedge $-1 $138 $136 $140 $206 reversed $81 $-1 #
edge $-1 $151 -16.914439887256471 $208 16.914439887256471 $150 $249 forward 7 unknown #
vertex $-1 $206 $250 #
straight-curve $-1 -71.036103396710104 -41.349745723964666 0 0 0 -1 I I #
edge $-1 $204 -41.349745723964666 $208 41.349745723964666 $202 $251 forward 7 unknown #
straight-curve $-1 0 -41.349745723964666 -16.914439887256471 -1 0 0 I I #
vertex $-1 $143 $252 #
straight-curve $-1 0 41.349745723964666 -16.914439887256471 1 0 0 I I #
point $-1 71.036103396710104 41.349745723964666 -16.914439887256471 #
point $-1 71.036103396710104 -41.349745723964666 -16.914439887256471 #
straight-curve $-1 -71.036103396710104 0 16.914439887256471 0 -1 0 I I #
point $-1 -71.036103396710104 41.349745723964666 16.914439887256471 #
point $-1 -71.036103396710104 -41.349745723964666 16.914439887256471 #
straight-curve $-1 71.036103396710104 -41.349745723964666 0 0 0 -1 I I #
straight-curve $-1 71.036103396710104 41.349745723964666 0 0 0 -1 I I #
loop $-1 $-1 $225 $160 #
plane-surface $-1 -71.036103396710104 0 0 1 0 0 0 0 -1 forward_v I I I I #
coedge $-1 $164 $163 $231 $253 forward $58 $-1 #
edge $-1 $168 27.51994175940748 $234 41.349745723964666 $167 $254 forward 7 unknown #
coedge $-1 $228 $225 $164 $222 reversed $217 $-1 #
edge $-1 $255 -41.349745723964666 $223 -27.51994175940748 $221 $256 forward 7 unknown #
vertex $-1 $226 $257 #
straight-curve $-1 0 -27.51994175940748 -16.914439887256471 1 0 0 I I #
coedge $-1 $221 $170 $166 $226 forward $217 $-1 #
edge $-1 $172 4.9798925369532245 $223 9.6163290791865723 $225 $258 forward 7 unknown #
point $-1 71.036103396710104 -27.51994175940748 -16.914439887256471 #
coedge $-1 $170 $221 $174 $232 reversed $217 $-1 #
straight-curve $-1 -71.036103396710104 -17.217421870843037 -12.278003345023123 0 1 0 I I #
point $-1 -71.036103396710104 -27.51994175940748 -12.278003345023123 #
coedge $-1 $175 $174 $219 $253 reversed $161 $-1 #
edge $-1 $176 12.278003345023123 $255 16.914439887256471 $228 $259 forward 7 unknown #
point $-1 -71.036103396710104 -41.349745723964666 -12.278003345023123 #
vertex $-1 $178 $260 #
straight-curve $-1 71.036103396710104 -41.349745723964666 0 0 0 -1 I I #
edge $-1 $239 -42.877801312794006 $191 -13.43880285503818 $190 $261 forward 7 unknown #
coedge $-1 $238 $184 $243 $262 reversed $181 $-1 #
coedge $-1 $184 $237 $186 $241 forward $181 $-1 #
vertex $-1 $185 $263 #
straight-curve $-1 -71.036103396710104 9.0641498129470559 43.207932743304696 0 -0.60181501223851219 0.79863551827123203 I I #
edge $-1 $245 -16.914439887256471 $187 -0.36349865851287583 $186 $264 forward 7 unknown #
point $-1 -71.036103396710104 41.349745723964666 0.36349865851287583 #
coedge $-1 $190 $189 $237 $262 forward $116 $-1 #
point $-1 -41.597104938954274 28.877717282634549 16.914439887256471 #
vertex $-1 $194 $265 #
straight-curve $-1 0 41.349745723964666 16.914439887256471 -1 0 0 I I #
vertex $-1 $197 $266 #
point $-1 -54.816604167832189 30.690769695767539 5.306028584130611 #
straight-curve $-1 -71.036103396710104 41.349745723964666 0 0 0 -1 I I #
point $-1 -71.036103396710104 -41.349745723964666 -16.914439887256471 #
straight-curve $-1 -71.036103396710104 0 -16.914439887256471 0 1 0 I I #
point $-1 -71.036103396710104 41.349745723964666 -16.914439887256471 #
edge $-1 $234 -71.036103396710104 $255 71.036103396710104 $231 $267 forward 7 unknown #
straight-curve $-1 71.036103396710104 0 -16.914439887256471 0 -1 0 I I #
vertex $-1 $222 $268 #
straight-curve $-1 -71.036103396710104 0 -16.914439887256471 0 1 0 I I #
point $-1 -71.036103396710104 -27.51994175940748 -16.914439887256471 #
straight-curve $-1 -71.036103396710104 -27.51994175940748 -7.2981108080698984 0 0 -1 I I #
straight-curve $-1 -71.036103396710104 -41.349745723964666 0 0 0 -1 I I #
point $-1 71.036103396710104 -41.349745723964666 -16.914439887256471 #
straight-curve $-1 -28.158302083916094 28.877717282634553 16.914439887256471 1 0 0 I I #
edge $-1 $245 -41.349745723964666 $239 -28.877717282634549 $237 $269 forward 7 unknown #
point $-1 -71.036103396710104 28.877717282634549 16.914439887256471 #
straight-curve $-1 -71.036103396710104 41.349745723964666 0 0 0 -1 I I #
point $-1 -71.036103396710104 41.349745723964666 16.914439887256471 #
point $-1 -56.316604167832189 29.492816418360693 4.4033060657728429 #
straight-curve $-1 0 -41.349745723964666 -16.914439887256471 -1 0 0 I I #
point $-1 -71.036103396710104 -41.349745723964666 -16.914439887256471 #
straight-curve $-1 -71.036103396710104 0 16.914439887256471 0 -1 0 I I #
End-of-ACIS-data 