500 0 18 0           
7 Unknown 11 ACIS 5.0 NT 24 Fri Mar 26 03:38:02 1999 
-1 9.9999999999999995e-007 1e-010 
body $-1 $18 $-1 $19 #
body $-1 $20 $-1 $21 #
body $-1 $22 $-1 $23 #
body $-1 $24 $-1 $25 #
body $-1 $26 $-1 $27 #
body $-1 $28 $-1 $29 #
body $-1 $30 $-1 $31 #
body $-1 $32 $-1 $33 #
body $-1 $34 $-1 $35 #
body $-1 $36 $-1 $37 #
body $-1 $38 $-1 $39 #
body $-1 $40 $-1 $41 #
body $-1 $42 $-1 $43 #
body $-1 $44 $-1 $45 #
body $-1 $46 $-1 $47 #
body $-1 $48 $-1 $49 #
body $-1 $50 $-1 $51 #
body $-1 $52 $-1 $53 #
lump $-1 $-1 $54 $0 #
transform $-1 1 0 0 0 1 0 0 0 1 42.27301858577227 18.300590549783482 7.3921718888123493 1 rotate no_reflect no_shear #
lump $-1 $-1 $55 $1 #
transform $-1 1 0 0 0 1 0 0 0 1 42.27301858577227 18.300590549783482 7.3921718888123493 1 rotate no_reflect no_shear #
lump $-1 $-1 $56 $2 #
transform $-1 1 0 0 0 1 0 0 0 1 42.27301858577227 18.300590549783482 7.3921718888123493 1 rotate no_reflect no_shear #
lump $-1 $-1 $57 $3 #
transform $-1 1 0 0 0 1 0 0 0 1 42.27301858577227 18.300590549783482 7.3921718888123493 1 rotate no_reflect no_shear #
lump $-1 $-1 $58 $4 #
transform $-1 1 0 0 0 1 0 0 0 1 42.27301858577227 18.300590549783482 7.3921718888123493 1 rotate no_reflect no_shear #
lump $-1 $-1 $59 $5 #
transform $-1 1 0 0 0 1 0 0 0 1 42.27301858577227 18.300590549783482 7.3921718888123493 1 rotate no_reflect no_shear #
lump $-1 $-1 $60 $6 #
transform $-1 1 0 0 0 1 0 0 0 1 42.27301858577227 18.300590549783482 7.3921718888123493 1 rotate no_reflect no_shear #
lump $-1 $-1 $61 $7 #
transform $-1 1 0 0 0 1 0 0 0 1 42.27301858577227 18.300590549783482 7.3921718888123493 1 rotate no_reflect no_shear #
lump $-1 $-1 $62 $8 #
transform $-1 1 0 0 0 1 0 0 0 1 42.27301858577227 18.300590549783482 7.3921718888123493 1 rotate no_reflect no_shear #
lump $-1 $-1 $63 $9 #
transform $-1 1 0 0 0 1 0 0 0 1 42.27301858577227 18.300590549783482 7.3921718888123493 1 rotate no_reflect no_shear #
lump $-1 $-1 $64 $10 #
transform $-1 1 0 0 0 1 0 0 0 1 42.27301858577227 18.300590549783482 7.3921718888123493 1 rotate no_reflect no_shear #
lump $-1 $-1 $65 $11 #
transform $-1 1 0 0 0 1 0 0 0 1 42.27301858577227 18.300590549783482 7.3921718888123493 1 rotate no_reflect no_shear #
lump $-1 $-1 $66 $12 #
transform $-1 1 0 0 0 1 0 0 0 1 42.27301858577227 18.300590549783482 7.3921718888123493 1 rotate no_reflect no_shear #
lump $-1 $-1 $67 $13 #
transform $-1 1 0 0 0 1 0 0 0 1 42.27301858577227 18.300590549783482 7.3921718888123493 1 rotate no_reflect no_shear #
lump $-1 $-1 $68 $14 #
transform $-1 1 0 0 0 1 0 0 0 1 42.27301858577227 18.300590549783482 7.3921718888123493 1 rotate no_reflect no_shear #
lump $-1 $-1 $69 $15 #
transform $-1 1 0 0 0 1 0 0 0 1 42.27301858577227 18.300590549783482 7.3921718888123493 1 rotate no_reflect no_shear #
lump $-1 $-1 $70 $16 #
transform $-1 1 0 0 0 1 0 0 0 1 42.27301858577227 18.300590549783482 7.3921718888123493 1 rotate no_reflect no_shear #
lump $-1 $-1 $71 $17 #
transform $-1 1 0 0 0 1 0 0 0 1 42.27301858577227 18.300590549783482 7.3921718888123493 1 rotate no_reflect no_shear #
shell $-1 $-1 $-1 $72 $-1 $18 #
shell $-1 $-1 $-1 $73 $-1 $20 #
shell $-1 $-1 $-1 $74 $-1 $22 #
shell $-1 $-1 $-1 $75 $-1 $24 #
shell $-1 $-1 $-1 $76 $-1 $26 #
shell $-1 $-1 $-1 $77 $-1 $28 #
shell $-1 $-1 $-1 $78 $-1 $30 #
shell $-1 $-1 $-1 $79 $-1 $32 #
shell $-1 $-1 $-1 $80 $-1 $34 #
shell $-1 $-1 $-1 $81 $-1 $36 #
shell $-1 $-1 $-1 $82 $-1 $38 #
shell $-1 $-1 $-1 $83 $-1 $40 #
shell $-1 $-1 $-1 $84 $-1 $42 #
shell $-1 $-1 $-1 $85 $-1 $44 #
shell $-1 $-1 $-1 $86 $-1 $46 #
shell $-1 $-1 $-1 $87 $-1 $48 #
shell $-1 $-1 $-1 $88 $-1 $50 #
shell $-1 $-1 $-1 $89 $-1 $52 #
face $-1 $90 $91 $54 $-1 $92 forward single #
face $-1 $93 $94 $55 $-1 $95 forward single #
face $-1 $96 $97 $56 $-1 $98 reversed single #
face $-1 $99 $100 $57 $-1 $101 forward single #
face $-1 $102 $103 $58 $-1 $104 forward single #
face $-1 $105 $106 $59 $-1 $107 forward single #
face $-1 $108 $109 $60 $-1 $110 reversed single #
face $-1 $111 $112 $61 $-1 $113 forward single #
face $-1 $114 $115 $62 $-1 $116 forward single #
face $-1 $117 $118 $63 $-1 $119 forward single #
face $-1 $120 $121 $64 $-1 $122 reversed single #
face $-1 $123 $124 $65 $-1 $125 forward single #
face $-1 $126 $127 $66 $-1 $128 forward single #
face $-1 $129 $130 $67 $-1 $131 forward single #
face $-1 $132 $133 $68 $-1 $134 reversed single #
face $-1 $135 $136 $69 $-1 $137 forward single #
face $-1 $138 $139 $70 $-1 $140 forward single #
face $-1 $141 $142 $71 $-1 $143 forward single #
face $-1 $144 $145 $54 $-1 $146 reversed single #
loop $-1 $-1 $147 $72 #
plane-surface $-1 0 0 7.3921718888123493 0 0 1 1 0 0 forward_v I I I I #
face $-1 $148 $149 $55 $-1 $150 reversed single #
loop $-1 $-1 $151 $73 #
plane-surface $-1 0 -15.292098188395421 -3.8921718888123493 0 0 1 1 0 0 forward_v I I I I #
face $-1 $152 $153 $56 $-1 $154 reversed single #
loop $-1 $-1 $155 $74 #
plane-surface $-1 -39.588482575455124 44.607605209432478 89.038486049104705 1 0 0 0 -0.64278761758704617 -0.76604443648966558 forward_v I I I I #
face $-1 $156 $157 $57 $-1 $158 forward single #
loop $-1 $159 $160 $75 #
cone-surface $-1 -37.461104880891916 13.674575905169362 3.2757851099197457 0 -0.64278761758704617 -0.76604443648966558 1 0 0 1 I I 0 1 1 forward I I I I #
face $-1 $161 $162 $58 $-1 $163 forward single #
loop $-1 $164 $165 $76 #
cone-surface $-1 -34.270038339047105 13.674575905169362 3.2757851099197457 0 -0.64278761758704617 -0.76604443648966558 1 0 0 1 I I 0 1 1 forward I I I I #
face $-1 $166 $167 $59 $-1 $168 forward single #
loop $-1 $169 $170 $77 #
cone-surface $-1 -31.078971797202296 13.674575905169362 3.2757851099197457 0 -0.64278761758704617 -0.76604443648966558 1 0 0 1 I I 0 1 1 forward I I I I #
face $-1 $171 $172 $60 $-1 $173 reversed single #
loop $-1 $-1 $174 $78 #
plane-surface $-1 -18.451973282568993 44.607605209432478 89.038486049104705 1 0 0 0 -0.64278761758704617 -0.76604443648966558 forward_v I I I I #
face $-1 $175 $176 $61 $-1 $177 forward single #
loop $-1 $178 $179 $79 #
cone-surface $-1 -16.324595588005781 13.674575905169362 3.2757851099197457 0 -0.64278761758704617 -0.76604443648966558 1 0 0 1 I I 0 1 1 forward I I I I #
face $-1 $180 $181 $62 $-1 $182 forward single #
loop $-1 $183 $184 $80 #
cone-surface $-1 -13.133529046160973 13.674575905169362 3.2757851099197457 0 -0.64278761758704617 -0.76604443648966558 1 0 0 1 I I 0 1 1 forward I I I I #
face $-1 $185 $186 $63 $-1 $187 forward single #
loop $-1 $188 $189 $81 #
cone-surface $-1 -9.9424625043161612 13.674575905169362 3.2757851099197457 0 -0.64278761758704617 -0.76604443648966558 1 0 0 1 I I 0 1 1 forward I I I I #
face $-1 $190 $191 $64 $-1 $192 reversed single #
loop $-1 $-1 $193 $82 #
plane-surface $-1 2.6845360103171476 44.607605209432478 89.038486049104705 1 0 0 0 -0.64278761758704617 -0.76604443648966558 forward_v I I I I #
face $-1 $194 $195 $65 $-1 $196 forward single #
loop $-1 $197 $198 $83 #
cone-surface $-1 4.8119137048803537 13.674575905169362 3.2757851099197457 0 -0.64278761758704617 -0.76604443648966558 1 0 0 1 I I 0 1 1 forward I I I I #
face $-1 $199 $200 $66 $-1 $201 forward single #
loop $-1 $202 $203 $84 #
cone-surface $-1 8.0029802467251656 13.674575905169362 3.2757851099197457 0 -0.64278761758704617 -0.76604443648966558 1 0 0 1 I I 0 1 1 forward I I I I #
face $-1 $204 $205 $67 $-1 $206 forward single #
loop $-1 $207 $208 $85 #
cone-surface $-1 11.19404678856997 13.674575905169362 3.2757851099197457 0 -0.64278761758704617 -0.76604443648966558 1 0 0 1 I I 0 1 1 forward I I I I #
face $-1 $209 $210 $68 $-1 $211 reversed single #
loop $-1 $-1 $212 $86 #
plane-surface $-1 23.821045303203277 44.607605209432478 89.038486049104705 1 0 0 0 -0.64278761758704617 -0.76604443648966558 forward_v I I I I #
face $-1 $213 $214 $69 $-1 $215 forward single #
loop $-1 $216 $217 $87 #
cone-surface $-1 25.948422997766492 13.674575905169362 3.2757851099197457 0 -0.64278761758704617 -0.76604443648966558 1 0 0 1 I I 0 1 1 forward I I I I #
face $-1 $218 $219 $70 $-1 $220 forward single #
loop $-1 $221 $222 $88 #
cone-surface $-1 29.139489539611297 13.674575905169362 3.2757851099197457 0 -0.64278761758704617 -0.76604443648966558 1 0 0 1 I I 0 1 1 forward I I I I #
face $-1 $223 $224 $71 $-1 $225 forward single #
loop $-1 $226 $227 $89 #
cone-surface $-1 32.330556081456102 13.674575905169362 3.2757851099197457 0 -0.64278761758704617 -0.76604443648966558 1 0 0 1 I I 0 1 1 forward I I I I #
face $-1 $228 $229 $54 $-1 $230 reversed single #
loop $-1 $-1 $231 $90 #
plane-surface $-1 0 0 -7.3921718888123493 0 0 1 1 0 0 forward_v I I I I #
coedge $-1 $232 $233 $234 $235 forward $91 $-1 #
face $-1 $236 $237 $55 $-1 $238 reversed single #
loop $-1 $-1 $239 $93 #
plane-surface $-1 0 -15.292098188395421 -6.8921718888123493 0 0 1 1 0 0 forward_v I I I I #
coedge $-1 $240 $241 $242 $243 reversed $94 $-1 #
face $-1 $244 $245 $56 $-1 $246 reversed single #
loop $-1 $-1 $247 $96 #
plane-surface $-1 -34.270038339047105 -9.7375406004904903 24.272464646594543 0 0.64278761758704617 0.76604443648966558 1 0 0 forward_v I I I I #
coedge $-1 $248 $249 $250 $251 reversed $97 $-1 #
face $-1 $-1 $252 $57 $-1 $253 forward single #
loop $-1 $254 $255 $99 #
cone-surface $-1 -37.461104880891916 12.687658468510666 2.0996227338225495 0 -0.64278761758704617 -0.76604443648966558 0.5 0 0 1 I I -0.70710678118654746 0.70710678118654746 0.5 forward I I I I #
loop $-1 $-1 $256 $75 #
coedge $-1 $160 $160 $257 $258 reversed $100 $-1 #
face $-1 $-1 $259 $58 $-1 $260 forward single #
loop $-1 $261 $262 $102 #
cone-surface $-1 -34.270038339047105 12.687658468510666 2.0996227338225495 0 -0.64278761758704617 -0.76604443648966558 0.5 0 0 1 I I -0.70710678118654746 0.70710678118654746 0.5 forward I I I I #
loop $-1 $-1 $263 $76 #
coedge $-1 $165 $165 $264 $265 reversed $103 $-1 #
face $-1 $-1 $266 $59 $-1 $267 forward single #
loop $-1 $268 $269 $105 #
cone-surface $-1 -31.078971797202296 12.687658468510666 2.0996227338225495 0 -0.64278761758704617 -0.76604443648966558 0.5 0 0 1 I I -0.70710678118654746 0.70710678118654746 0.5 forward I I I I #
loop $-1 $-1 $270 $77 #
coedge $-1 $170 $170 $271 $272 reversed $106 $-1 #
face $-1 $273 $274 $60 $-1 $275 reversed single #
loop $-1 $-1 $276 $108 #
plane-surface $-1 -13.133529046160973 -9.7375406004904903 24.272464646594543 0 0.64278761758704617 0.76604443648966558 1 0 0 forward_v I I I I #
coedge $-1 $277 $278 $279 $280 reversed $109 $-1 #
face $-1 $-1 $281 $61 $-1 $282 forward single #
loop $-1 $283 $284 $111 #
cone-surface $-1 -16.324595588005781 12.687658468510666 2.0996227338225495 0 -0.64278761758704617 -0.76604443648966558 0.5 0 0 1 I I -0.70710678118654746 0.70710678118654746 0.5 forward I I I I #
loop $-1 $-1 $285 $79 #
coedge $-1 $179 $179 $286 $287 reversed $112 $-1 #
face $-1 $-1 $288 $62 $-1 $289 forward single #
loop $-1 $290 $291 $114 #
cone-surface $-1 -13.133529046160973 12.687658468510666 2.0996227338225495 0 -0.64278761758704617 -0.76604443648966558 0.5 0 0 1 I I -0.70710678118654746 0.70710678118654746 0.5 forward I I I I #
loop $-1 $-1 $292 $80 #
coedge $-1 $184 $184 $293 $294 reversed $115 $-1 #
face $-1 $-1 $295 $63 $-1 $296 forward single #
loop $-1 $297 $298 $117 #
cone-surface $-1 -9.9424625043161612 12.687658468510666 2.0996227338225495 0 -0.64278761758704617 -0.76604443648966558 0.5 0 0 1 I I -0.70710678118654746 0.70710678118654746 0.5 forward I I I I #
loop $-1 $-1 $299 $81 #
coedge $-1 $189 $189 $300 $301 reversed $118 $-1 #
face $-1 $302 $303 $64 $-1 $304 reversed single #
loop $-1 $-1 $305 $120 #
plane-surface $-1 8.0029802467251656 -9.7375406004904903 24.272464646594543 0 0.64278761758704617 0.76604443648966558 1 0 0 forward_v I I I I #
coedge $-1 $306 $307 $308 $309 reversed $121 $-1 #
face $-1 $-1 $310 $65 $-1 $311 forward single #
loop $-1 $312 $313 $123 #
cone-surface $-1 4.8119137048803537 12.687658468510666 2.0996227338225495 0 -0.64278761758704617 -0.76604443648966558 0.5 0 0 1 I I -0.70710678118654746 0.70710678118654746 0.5 forward I I I I #
loop $-1 $-1 $314 $83 #
coedge $-1 $198 $198 $315 $316 reversed $124 $-1 #
face $-1 $-1 $317 $66 $-1 $318 forward single #
loop $-1 $319 $320 $126 #
cone-surface $-1 8.0029802467251656 12.687658468510666 2.0996227338225495 0 -0.64278761758704617 -0.76604443648966558 0.5 0 0 1 I I -0.70710678118654746 0.70710678118654746 0.5 forward I I I I #
loop $-1 $-1 $321 $84 #
coedge $-1 $203 $203 $322 $323 reversed $127 $-1 #
face $-1 $-1 $324 $67 $-1 $325 forward single #
loop $-1 $326 $327 $129 #
cone-surface $-1 11.19404678856997 12.687658468510666 2.0996227338225495 0 -0.64278761758704617 -0.76604443648966558 0.5 0 0 1 I I -0.70710678118654746 0.70710678118654746 0.5 forward I I I I #
loop $-1 $-1 $328 $85 #
coedge $-1 $208 $208 $329 $330 reversed $130 $-1 #
face $-1 $331 $332 $68 $-1 $333 reversed single #
loop $-1 $-1 $334 $132 #
plane-surface $-1 29.139489539611297 -9.7375406004904903 24.272464646594543 0 0.64278761758704617 0.76604443648966558 1 0 0 forward_v I I I I #
coedge $-1 $335 $336 $337 $338 reversed $133 $-1 #
face $-1 $-1 $339 $69 $-1 $340 forward single #
loop $-1 $341 $342 $135 #
cone-surface $-1 25.948422997766492 12.687658468510666 2.0996227338225495 0 -0.64278761758704617 -0.76604443648966558 0.5 0 0 1 I I -0.70710678118654746 0.70710678118654746 0.5 forward I I I I #
loop $-1 $-1 $343 $87 #
coedge $-1 $217 $217 $344 $345 reversed $136 $-1 #
face $-1 $-1 $346 $70 $-1 $347 forward single #
loop $-1 $348 $349 $138 #
cone-surface $-1 29.139489539611297 12.687658468510666 2.0996227338225495 0 -0.64278761758704617 -0.76604443648966558 0.5 0 0 1 I I -0.70710678118654746 0.70710678118654746 0.5 forward I I I I #
loop $-1 $-1 $350 $88 #
coedge $-1 $222 $222 $351 $352 reversed $139 $-1 #
face $-1 $-1 $353 $71 $-1 $354 forward single #
loop $-1 $355 $356 $141 #
cone-surface $-1 32.330556081456102 12.687658468510666 2.0996227338225495 0 -0.64278761758704617 -0.76604443648966558 0.5 0 0 1 I I -0.70710678118654746 0.70710678118654746 0.5 forward I I I I #
loop $-1 $-1 $357 $89 #
coedge $-1 $227 $227 $358 $359 reversed $142 $-1 #
face $-1 $360 $361 $54 $-1 $362 reversed single #
loop $-1 $-1 $363 $144 #
plane-surface $-1 0 -18.300590549783482 0 0 1 0 0 0 1 forward_v I I I I #
coedge $-1 $364 $365 $366 $367 forward $145 $-1 #
coedge $-1 $368 $147 $369 $370 forward $91 $-1 #
coedge $-1 $147 $368 $371 $372 forward $91 $-1 #
coedge $-1 $373 $374 $147 $235 reversed $375 $-1 #
edge $-1 $376 -18.300590549783482 $377 18.300590549783482 $234 $378 forward 7 unknown #
face $-1 $379 $380 $55 $-1 $381 reversed single #
loop $-1 $-1 $382 $148 #
plane-surface $-1 0 -12.28360582700736 -5.3921718888123493 0 -1 0 0 0 -1 forward_v I I I I #
coedge $-1 $383 $384 $385 $386 reversed $149 $-1 #
coedge $-1 $387 $151 $388 $389 forward $94 $-1 #
coedge $-1 $151 $387 $390 $391 reversed $94 $-1 #
coedge $-1 $392 $393 $151 $243 forward $394 $-1 #
edge $-1 $395 4.6375567328096494 $396 10.654541455585772 $242 $397 forward 7 unknown #
face $-1 $398 $399 $56 $-1 $400 reversed single #
loop $-1 $-1 $401 $152 #
plane-surface $-1 -28.951594102639085 44.607605209432478 89.038486049104705 -1 0 0 0 0.64278761758704617 0.76604443648966558 forward_v I I I I #
coedge $-1 $402 $403 $404 $405 reversed $153 $-1 #
coedge $-1 $249 $155 $406 $407 reversed $97 $-1 #
coedge $-1 $155 $248 $402 $408 reversed $97 $-1 #
coedge $-1 $404 $409 $155 $251 forward $410 $-1 #
edge $-1 $411 4.0032120549327566 $412 11.924194088430653 $250 $413 forward 7 unknown #
loop $-1 $-1 $257 $156 #
plane-surface $-1 -34.270038339047105 -9.7375406004904903 24.272464646594543 0 0.64278761758704617 0.76604443648966558 1 0 0 forward_v I I I I #
loop $-1 $-1 $414 $99 #
coedge $-1 $255 $255 $256 $415 reversed $157 $-1 #
coedge $-1 $256 $256 $255 $415 forward $159 $-1 #
coedge $-1 $257 $257 $160 $258 forward $252 $-1 #
edge $-1 $416 -7.8985818365165736e-016 $416 6.2831853071795996 $257 $417 forward 7 unknown #
loop $-1 $-1 $264 $161 #
plane-surface $-1 -34.270038339047105 -9.7375406004904903 24.272464646594543 0 0.64278761758704617 0.76604443648966558 1 0 0 forward_v I I I I #
loop $-1 $-1 $418 $102 #
coedge $-1 $262 $262 $263 $419 reversed $162 $-1 #
coedge $-1 $263 $263 $262 $419 forward $164 $-1 #
coedge $-1 $264 $264 $165 $265 forward $259 $-1 #
edge $-1 $420 -7.8985818365165736e-016 $420 6.2831853071795996 $264 $421 forward 7 unknown #
loop $-1 $-1 $271 $166 #
plane-surface $-1 -34.270038339047105 -9.7375406004904903 24.272464646594543 0 0.64278761758704617 0.76604443648966558 1 0 0 forward_v I I I I #
loop $-1 $-1 $422 $105 #
coedge $-1 $269 $269 $270 $423 reversed $167 $-1 #
coedge $-1 $270 $270 $269 $423 forward $169 $-1 #
coedge $-1 $271 $271 $170 $272 forward $266 $-1 #
edge $-1 $424 -7.8985818365165736e-016 $424 6.2831853071795996 $271 $425 forward 7 unknown #
face $-1 $426 $427 $60 $-1 $428 forward single #
loop $-1 $-1 $429 $171 #
plane-surface $-1 -7.8150848097529551 44.607605209432478 89.038486049104705 -1 0 0 0 0.64278761758704617 0.76604443648966558 forward_v I I I I #
coedge $-1 $430 $431 $432 $433 reversed $172 $-1 #
coedge $-1 $278 $174 $434 $435 reversed $109 $-1 #
coedge $-1 $174 $277 $430 $436 reversed $109 $-1 #
coedge $-1 $432 $437 $174 $280 forward $427 $-1 #
edge $-1 $438 4.0032120549327566 $439 11.924194088430653 $279 $440 forward 7 unknown #
loop $-1 $-1 $286 $175 #
plane-surface $-1 -13.133529046160973 -9.7375406004904903 24.272464646594543 0 0.64278761758704617 0.76604443648966558 1 0 0 forward_v I I I I #
loop $-1 $-1 $441 $111 #
coedge $-1 $284 $284 $285 $442 reversed $176 $-1 #
coedge $-1 $285 $285 $284 $442 forward $178 $-1 #
coedge $-1 $286 $286 $179 $287 forward $281 $-1 #
edge $-1 $443 -7.8985818365165736e-016 $443 6.2831853071795996 $286 $444 forward 7 unknown #
loop $-1 $-1 $293 $180 #
plane-surface $-1 -13.133529046160973 -9.7375406004904903 24.272464646594543 0 0.64278761758704617 0.76604443648966558 1 0 0 forward_v I I I I #
loop $-1 $-1 $445 $114 #
coedge $-1 $291 $291 $292 $446 reversed $181 $-1 #
coedge $-1 $292 $292 $291 $446 forward $183 $-1 #
coedge $-1 $293 $293 $184 $294 forward $288 $-1 #
edge $-1 $447 -7.8985818365165736e-016 $447 6.2831853071795996 $293 $448 forward 7 unknown #
loop $-1 $-1 $300 $185 #
plane-surface $-1 -13.133529046160973 -9.7375406004904903 24.272464646594543 0 0.64278761758704617 0.76604443648966558 1 0 0 forward_v I I I I #
loop $-1 $-1 $449 $117 #
coedge $-1 $298 $298 $299 $450 reversed $186 $-1 #
coedge $-1 $299 $299 $298 $450 forward $188 $-1 #
coedge $-1 $300 $300 $189 $301 forward $295 $-1 #
edge $-1 $451 -7.8985818365165736e-016 $451 6.2831853071795996 $300 $452 forward 7 unknown #
face $-1 $453 $454 $64 $-1 $455 forward single #
loop $-1 $-1 $456 $190 #
plane-surface $-1 13.321424483133184 44.607605209432478 89.038486049104705 -1 0 0 0 0.64278761758704617 0.76604443648966558 forward_v I I I I #
coedge $-1 $457 $458 $459 $460 reversed $191 $-1 #
coedge $-1 $307 $193 $461 $462 reversed $121 $-1 #
coedge $-1 $193 $306 $457 $463 reversed $121 $-1 #
coedge $-1 $459 $464 $193 $309 forward $454 $-1 #
edge $-1 $465 4.0032120549327566 $466 11.924194088430653 $308 $467 forward 7 unknown #
loop $-1 $-1 $315 $194 #
plane-surface $-1 8.0029802467251656 -9.7375406004904903 24.272464646594543 0 0.64278761758704617 0.76604443648966558 1 0 0 forward_v I I I I #
loop $-1 $-1 $468 $123 #
coedge $-1 $313 $313 $314 $469 reversed $195 $-1 #
coedge $-1 $314 $314 $313 $469 forward $197 $-1 #
coedge $-1 $315 $315 $198 $316 forward $310 $-1 #
edge $-1 $470 -7.8985818365165736e-016 $470 6.2831853071795996 $315 $471 forward 7 unknown #
loop $-1 $-1 $322 $199 #
plane-surface $-1 8.0029802467251656 -9.7375406004904903 24.272464646594543 0 0.64278761758704617 0.76604443648966558 1 0 0 forward_v I I I I #
loop $-1 $-1 $472 $126 #
coedge $-1 $320 $320 $321 $473 reversed $200 $-1 #
coedge $-1 $321 $321 $320 $473 forward $202 $-1 #
coedge $-1 $322 $322 $203 $323 forward $317 $-1 #
edge $-1 $474 -7.8985818365165736e-016 $474 6.2831853071795996 $322 $475 forward 7 unknown #
loop $-1 $-1 $329 $204 #
plane-surface $-1 8.0029802467251656 -9.7375406004904903 24.272464646594543 0 0.64278761758704617 0.76604443648966558 1 0 0 forward_v I I I I #
loop $-1 $-1 $476 $129 #
coedge $-1 $327 $327 $328 $477 reversed $205 $-1 #
coedge $-1 $328 $328 $327 $477 forward $207 $-1 #
coedge $-1 $329 $329 $208 $330 forward $324 $-1 #
edge $-1 $478 -7.8985818365165736e-016 $478 6.2831853071795996 $329 $479 forward 7 unknown #
face $-1 $480 $481 $68 $-1 $482 forward single #
loop $-1 $-1 $483 $209 #
plane-surface $-1 34.457933776019317 44.607605209432478 89.038486049104705 -1 0 0 0 0.64278761758704617 0.76604443648966558 forward_v I I I I #
coedge $-1 $484 $485 $486 $487 reversed $210 $-1 #
coedge $-1 $336 $212 $488 $489 reversed $133 $-1 #
coedge $-1 $212 $335 $484 $490 reversed $133 $-1 #
coedge $-1 $486 $491 $212 $338 forward $481 $-1 #
edge $-1 $492 4.0032120549327566 $493 11.924194088430653 $337 $494 forward 7 unknown #
loop $-1 $-1 $344 $213 #
plane-surface $-1 29.139489539611297 -9.7375406004904903 24.272464646594543 0 0.64278761758704617 0.76604443648966558 1 0 0 forward_v I I I I #
loop $-1 $-1 $495 $135 #
coedge $-1 $342 $342 $343 $496 reversed $214 $-1 #
coedge $-1 $343 $343 $342 $496 forward $216 $-1 #
coedge $-1 $344 $344 $217 $345 forward $339 $-1 #
edge $-1 $497 -7.8985818365165736e-016 $497 6.2831853071795996 $344 $498 forward 7 unknown #
loop $-1 $-1 $351 $218 #
plane-surface $-1 29.139489539611297 -9.7375406004904903 24.272464646594543 0 0.64278761758704617 0.76604443648966558 1 0 0 forward_v I I I I #
loop $-1 $-1 $499 $138 #
coedge $-1 $349 $349 $350 $500 reversed $219 $-1 #
coedge $-1 $350 $350 $349 $500 forward $221 $-1 #
coedge $-1 $351 $351 $222 $352 forward $346 $-1 #
edge $-1 $501 -7.8985818365165736e-016 $501 6.2831853071795996 $351 $502 forward 7 unknown #
loop $-1 $-1 $358 $223 #
plane-surface $-1 29.139489539611297 -9.7375406004904903 24.272464646594543 0 0.64278761758704617 0.76604443648966558 1 0 0 forward_v I I I I #
loop $-1 $-1 $503 $141 #
coedge $-1 $356 $356 $357 $504 reversed $224 $-1 #
coedge $-1 $357 $357 $356 $504 forward $226 $-1 #
coedge $-1 $358 $358 $227 $359 forward $353 $-1 #
edge $-1 $505 -7.8985818365165736e-016 $505 6.2831853071795996 $358 $506 forward 7 unknown #
face $-1 $507 $508 $54 $-1 $509 reversed single #
loop $-1 $-1 $510 $228 #
plane-surface $-1 -42.27301858577227 0 0 1 0 0 0 0 -1 forward_v I I I I #
coedge $-1 $511 $371 $512 $513 forward $229 $-1 #
coedge $-1 $514 $231 $511 $515 forward $145 $-1 #
coedge $-1 $231 $514 $516 $517 forward $145 $-1 #
coedge $-1 $374 $373 $231 $367 reversed $375 $-1 #
edge $-1 $518 -18.300590549783482 $519 18.300590549783482 $366 $520 forward 7 unknown #
coedge $-1 $233 $232 $521 $522 forward $91 $-1 #
coedge $-1 $523 $524 $232 $370 reversed $508 $-1 #
edge $-1 $377 -42.27301858577227 $525 42.27301858577227 $369 $526 forward 7 unknown #
coedge $-1 $363 $527 $233 $372 reversed $229 $-1 #
edge $-1 $528 -42.27301858577227 $376 42.27301858577227 $371 $529 forward 7 unknown #
coedge $-1 $366 $234 $527 $530 forward $375 $-1 #
coedge $-1 $234 $366 $523 $531 reversed $375 $-1 #
loop $-1 $-1 $373 $507 #
vertex $-1 $235 $532 #
vertex $-1 $235 $533 #
straight-curve $-1 42.27301858577227 0 7.3921718888123493 0 1 0 I I #
face $-1 $534 $535 $55 $-1 $536 reversed single #
loop $-1 $-1 $537 $236 #
plane-surface $-1 -42.27301858577227 0 0 1 0 0 0 0 -1 forward_v I I I I #
coedge $-1 $538 $388 $393 $539 reversed $237 $-1 #
coedge $-1 $540 $239 $541 $542 reversed $149 $-1 #
coedge $-1 $239 $540 $538 $543 forward $149 $-1 #
coedge $-1 $393 $392 $239 $386 forward $394 $-1 #
edge $-1 $544 -10.654541455585772 $545 -4.6375567328096494 $385 $546 forward 7 unknown #
coedge $-1 $241 $240 $537 $547 reversed $94 $-1 #
coedge $-1 $382 $548 $240 $389 reversed $237 $-1 #
edge $-1 $395 -42.27301858577227 $549 42.27301858577227 $388 $550 forward 7 unknown #
coedge $-1 $551 $552 $241 $391 forward $535 $-1 #
edge $-1 $396 -42.27301858577227 $553 42.27301858577227 $390 $554 forward 7 unknown #
coedge $-1 $385 $242 $552 $555 forward $394 $-1 #
coedge $-1 $242 $385 $382 $539 forward $394 $-1 #
loop $-1 $-1 $242 $534 #
vertex $-1 $243 $556 #
vertex $-1 $555 $557 #
straight-curve $-1 42.27301858577227 -7.6460490941977106 -3.8921718888123493 0 -1 0 I I #
face $-1 $-1 $410 $56 $-1 $558 forward single #
loop $-1 $-1 $559 $244 #
plane-surface $-1 0 18.300590549783482 0 0 -1 0 0 0 -1 forward_v I I I I #
coedge $-1 $560 $561 $562 $563 reversed $245 $-1 #
coedge $-1 $564 $247 $249 $408 forward $153 $-1 #
coedge $-1 $247 $564 $560 $565 forward $153 $-1 #
coedge $-1 $562 $250 $247 $405 forward $410 $-1 #
edge $-1 $412 -22.453463405931572 $566 -11.816574933115533 $404 $567 forward 7 unknown #
coedge $-1 $568 $569 $248 $407 forward $399 $-1 #
edge $-1 $570 -43.773564377820477 $411 -37.127071135740003 $406 $571 forward 7 unknown #
edge $-1 $412 26.261073324885992 $570 36.601181099566965 $249 $572 forward 7 unknown #
coedge $-1 $250 $562 $568 $573 forward $410 $-1 #
loop $-1 $-1 $562 $398 #
vertex $-1 $407 $574 #
vertex $-1 $251 $575 #
straight-curve $-1 -39.588482575455124 22.303802604716239 7.3921718888123493 0 -1 0 I I #
coedge $-1 $414 $414 $-1 $576 reversed $254 $-1 #
edge $-1 $577 0 $577 6.2831853071796004 $255 $578 forward 7 unknown #
vertex $-1 $258 $579 #
ellipse-curve $-1 -37.461104880891916 14.340099533034536 4.0689252677721095 0 0.64278761758704617 0.76604443648966558 1 0 0 1 I I #
coedge $-1 $418 $418 $-1 $580 reversed $261 $-1 #
edge $-1 $581 0 $581 6.2831853071796004 $262 $582 forward 7 unknown #
vertex $-1 $265 $583 #
ellipse-curve $-1 -34.270038339047105 14.340099533034536 4.0689252677721095 0 0.64278761758704617 0.76604443648966558 1 0 0 1 I I #
coedge $-1 $422 $422 $-1 $584 reversed $268 $-1 #
edge $-1 $585 0 $585 6.2831853071796004 $269 $586 forward 7 unknown #
vertex $-1 $272 $587 #
ellipse-curve $-1 -31.078971797202296 14.340099533034536 4.0689252677721095 0 0.64278761758704617 0.76604443648966558 1 0 0 1 I I #
face $-1 $-1 $588 $60 $-1 $589 reversed single #
loop $-1 $-1 $279 $273 #
plane-surface $-1 0 0 7.3921718888123493 0 0 1 1 0 0 forward_v I I I I #
coedge $-1 $590 $591 $592 $593 reversed $274 $-1 #
coedge $-1 $594 $276 $278 $436 forward $172 $-1 #
coedge $-1 $276 $594 $590 $595 forward $172 $-1 #
coedge $-1 $592 $279 $276 $433 forward $427 $-1 #
edge $-1 $439 -11.885208759488506 $596 -1.2483202866724685 $432 $597 forward 7 unknown #
coedge $-1 $598 $599 $277 $435 forward $588 $-1 #
edge $-1 $600 -43.773564377820477 $438 -37.127071135740003 $434 $601 forward 7 unknown #
edge $-1 $439 26.261073324885992 $600 36.601181099566965 $278 $602 forward 7 unknown #
coedge $-1 $279 $592 $598 $603 forward $427 $-1 #
vertex $-1 $280 $604 #
vertex $-1 $280 $605 #
straight-curve $-1 -18.451973282568993 22.303802604716239 7.3921718888123493 0 -1 0 I I #
coedge $-1 $441 $441 $-1 $606 reversed $283 $-1 #
edge $-1 $607 0 $607 6.2831853071796004 $284 $608 forward 7 unknown #
vertex $-1 $287 $609 #
ellipse-curve $-1 -16.324595588005781 14.340099533034536 4.0689252677721095 0 0.64278761758704617 0.76604443648966558 1 0 0 1 I I #
coedge $-1 $445 $445 $-1 $610 reversed $290 $-1 #
edge $-1 $611 0 $611 6.2831853071796004 $291 $612 forward 7 unknown #
vertex $-1 $294 $613 #
ellipse-curve $-1 -13.133529046160973 14.340099533034536 4.0689252677721095 0 0.64278761758704617 0.76604443648966558 1 0 0 1 I I #
coedge $-1 $449 $449 $-1 $614 reversed $297 $-1 #
edge $-1 $615 0 $615 6.2831853071796004 $298 $616 forward 7 unknown #
vertex $-1 $301 $617 #
ellipse-curve $-1 -9.9424625043161612 14.340099533034536 4.0689252677721095 0 0.64278761758704617 0.76604443648966558 1 0 0 1 I I #
face $-1 $-1 $618 $64 $-1 $619 reversed single #
loop $-1 $-1 $308 $302 #
plane-surface $-1 0 0 7.3921718888123493 0 0 1 1 0 0 forward_v I I I I #
coedge $-1 $620 $621 $622 $623 reversed $303 $-1 #
coedge $-1 $624 $305 $307 $463 forward $191 $-1 #
coedge $-1 $305 $624 $620 $625 forward $191 $-1 #
coedge $-1 $622 $308 $305 $460 forward $454 $-1 #
edge $-1 $466 -1.3169541130454352 $626 9.3199343597706008 $459 $627 forward 7 unknown #
coedge $-1 $628 $629 $306 $462 forward $618 $-1 #
edge $-1 $630 -43.773564377820477 $465 -37.127071135740003 $461 $631 forward 7 unknown #
edge $-1 $466 26.261073324885992 $630 36.601181099566965 $307 $632 forward 7 unknown #
coedge $-1 $308 $622 $628 $633 forward $454 $-1 #
vertex $-1 $309 $634 #
vertex $-1 $309 $635 #
straight-curve $-1 2.6845360103171476 22.303802604716239 7.3921718888123493 0 -1 0 I I #
coedge $-1 $468 $468 $-1 $636 reversed $312 $-1 #
edge $-1 $637 0 $637 6.2831853071796004 $313 $638 forward 7 unknown #
vertex $-1 $316 $639 #
ellipse-curve $-1 4.8119137048803537 14.340099533034536 4.0689252677721095 0 0.64278761758704617 0.76604443648966558 1 0 0 1 I I #
coedge $-1 $472 $472 $-1 $640 reversed $319 $-1 #
edge $-1 $641 0 $641 6.2831853071796004 $320 $642 forward 7 unknown #
vertex $-1 $323 $643 #
ellipse-curve $-1 8.0029802467251656 14.340099533034536 4.0689252677721095 0 0.64278761758704617 0.76604443648966558 1 0 0 1 I I #
coedge $-1 $476 $476 $-1 $644 reversed $326 $-1 #
edge $-1 $645 0 $645 6.2831853071796004 $327 $646 forward 7 unknown #
vertex $-1 $330 $647 #
ellipse-curve $-1 11.19404678856997 14.340099533034536 4.0689252677721095 0 0.64278761758704617 0.76604443648966558 1 0 0 1 I I #
face $-1 $-1 $648 $68 $-1 $649 reversed single #
loop $-1 $-1 $337 $331 #
plane-surface $-1 0 0 7.3921718888123493 0 0 1 1 0 0 forward_v I I I I #
coedge $-1 $650 $651 $652 $653 reversed $332 $-1 #
coedge $-1 $654 $334 $336 $490 forward $210 $-1 #
coedge $-1 $334 $654 $650 $655 forward $210 $-1 #
coedge $-1 $652 $337 $334 $487 forward $481 $-1 #
edge $-1 $493 9.2513005333976288 $656 19.888189006213668 $486 $657 forward 7 unknown #
coedge $-1 $658 $659 $335 $489 forward $648 $-1 #
edge $-1 $660 -43.773564377820477 $492 -37.127071135740003 $488 $661 forward 7 unknown #
edge $-1 $493 26.261073324885992 $660 36.601181099566965 $336 $662 forward 7 unknown #
coedge $-1 $337 $652 $658 $663 forward $481 $-1 #
vertex $-1 $338 $664 #
vertex $-1 $338 $665 #
straight-curve $-1 23.821045303203277 22.303802604716239 7.3921718888123493 0 -1 0 I I #
coedge $-1 $495 $495 $-1 $666 reversed $341 $-1 #
edge $-1 $667 0 $667 6.2831853071796004 $342 $668 forward 7 unknown #
vertex $-1 $345 $669 #
ellipse-curve $-1 25.948422997766492 14.340099533034536 4.0689252677721095 0 0.64278761758704617 0.76604443648966558 1 0 0 1 I I #
coedge $-1 $499 $499 $-1 $670 reversed $348 $-1 #
edge $-1 $671 0 $671 6.2831853071796004 $349 $672 forward 7 unknown #
vertex $-1 $352 $673 #
ellipse-curve $-1 29.139489539611297 14.340099533034536 4.0689252677721095 0 0.64278761758704617 0.76604443648966558 1 0 0 1 I I #
coedge $-1 $503 $503 $-1 $674 reversed $355 $-1 #
edge $-1 $675 0 $675 6.2831853071796004 $356 $676 forward 7 unknown #
vertex $-1 $359 $677 #
ellipse-curve $-1 32.330556081456102 14.340099533034536 4.0689252677721095 0 0.64278761758704617 0.76604443648966558 1 0 0 1 I I #
face $-1 $-1 $375 $54 $-1 $678 reversed single #
loop $-1 $-1 $523 $360 #
plane-surface $-1 0 18.300590549783482 0 0 -1 0 0 0 -1 forward_v I I I I #
coedge $-1 $679 $521 $524 $680 forward $361 $-1 #
coedge $-1 $527 $363 $364 $515 reversed $229 $-1 #
coedge $-1 $521 $679 $363 $513 reversed $361 $-1 #
edge $-1 $528 -7.3921718888123493 $681 7.3921718888123493 $512 $682 forward 7 unknown #
coedge $-1 $365 $364 $679 $683 forward $145 $-1 #
edge $-1 $519 -42.27301858577227 $681 42.27301858577227 $511 $684 forward 7 unknown #
coedge $-1 $524 $523 $365 $517 reversed $508 $-1 #
edge $-1 $685 -42.27301858577227 $518 42.27301858577227 $516 $686 forward 7 unknown #
vertex $-1 $367 $687 #
vertex $-1 $530 $688 #
straight-curve $-1 42.27301858577227 0 -7.3921718888123493 0 -1 0 I I #
coedge $-1 $510 $512 $368 $522 reversed $361 $-1 #
edge $-1 $525 -18.300590549783482 $528 18.300590549783482 $521 $689 forward 7 unknown #
coedge $-1 $516 $369 $374 $531 forward $508 $-1 #
coedge $-1 $369 $516 $510 $680 reversed $508 $-1 #
vertex $-1 $370 $690 #
straight-curve $-1 0 18.300590549783482 7.3921718888123493 -1 0 0 I I #
coedge $-1 $371 $511 $373 $530 reversed $229 $-1 #
vertex $-1 $522 $691 #
straight-curve $-1 0 -18.300590549783482 7.3921718888123493 1 0 0 I I #
edge $-1 $376 -7.3921718888123493 $519 7.3921718888123493 $373 $692 forward 7 unknown #
edge $-1 $377 -7.3921718888123493 $518 7.3921718888123493 $374 $693 forward 7 unknown #
point $-1 42.27301858577227 -18.300590549783482 7.3921718888123493 #
point $-1 42.27301858577227 18.300590549783482 7.3921718888123493 #
face $-1 $-1 $394 $55 $-1 $694 reversed single #
loop $-1 $-1 $390 $379 #
plane-surface $-1 0 -18.300590549783482 0 0 1 0 0 0 1 forward_v I I I I #
coedge $-1 $695 $696 $387 $547 forward $380 $-1 #
coedge $-1 $548 $382 $384 $543 reversed $237 $-1 #
edge $-1 $545 -4.1960859444061747 $395 -1.1960859444061747 $393 $697 forward 7 unknown #
coedge $-1 $384 $383 $698 $699 reversed $149 $-1 #
coedge $-1 $552 $551 $383 $542 forward $535 $-1 #
edge $-1 $700 -42.27301858577227 $544 42.27301858577227 $541 $701 forward 7 unknown #
edge $-1 $702 -42.27301858577227 $545 42.27301858577227 $538 $703 forward 7 unknown #
vertex $-1 $542 $704 #
vertex $-1 $386 $705 #
straight-curve $-1 42.27301858577227 -7.6460490941977106 -6.8921718888123493 0 1 0 I I #
edge $-1 $553 -10.654541455585772 $549 -4.6375567328096494 $537 $706 forward 7 unknown #
coedge $-1 $388 $538 $695 $707 reversed $237 $-1 #
vertex $-1 $547 $708 #
straight-curve $-1 0 -12.28360582700736 -3.8921718888123493 -1 0 0 I I #
coedge $-1 $541 $390 $696 $709 forward $535 $-1 #
coedge $-1 $390 $541 $392 $555 reversed $535 $-1 #
vertex $-1 $709 $710 #
straight-curve $-1 0 -18.300590549783482 -3.8921718888123493 -1 0 0 I I #
edge $-1 $396 3.8921718888123493 $544 6.8921718888123493 $392 $711 forward 7 unknown #
point $-1 42.27301858577227 -12.28360582700736 -3.8921718888123493 #
point $-1 42.27301858577227 -18.300590549783482 -3.8921718888123493 #
plane-surface $-1 0 0 7.3921718888123493 0 0 1 1 0 0 forward_v I I I I #
coedge $-1 $569 $568 $561 $712 forward $399 $-1 #
coedge $-1 $561 $401 $403 $565 reversed $245 $-1 #
coedge $-1 $401 $560 $559 $712 reversed $245 $-1 #
coedge $-1 $409 $404 $401 $563 forward $410 $-1 #
edge $-1 $566 -11.924194088430653 $713 -4.0032120549327566 $562 $714 forward 7 unknown #
coedge $-1 $403 $402 $569 $715 reversed $153 $-1 #
edge $-1 $716 -36.601181099566965 $566 -26.261073324885992 $560 $717 forward 7 unknown #
vertex $-1 $405 $718 #
straight-curve $-1 -17.135019169523552 10.379608516285582 7.3921718888123493 1 0 0 I I #
coedge $-1 $559 $406 $409 $573 reversed $399 $-1 #
coedge $-1 $406 $559 $564 $715 forward $399 $-1 #
vertex $-1 $407 $719 #
straight-curve $-1 -39.588482575455124 18.300590549783482 44.519243024552352 0 0 1 I I #
straight-curve $-1 -39.588482575455124 -9.7375406004904903 24.272464646594543 0 0.76604443648966558 -0.64278761758704617 I I #
edge $-1 $713 28.951594102639085 $411 39.588482575455124 $568 $720 forward 7 unknown #
point $-1 -39.588482575455124 18.300590549783482 7.3921718888123493 #
point $-1 -39.588482575455124 10.379608516285586 7.3921718888123493 #
edge $-1 $721 1 $721 0 $414 $-1 forward 7 unknown #
vertex $-1 $415 $722 #
ellipse-curve $-1 -37.461104880891916 13.009052277304189 2.4826449520673823 0 0.64278761758704617 0.76604443648966558 1 0 0 1 I I #
point $-1 -36.461104880891916 14.340099533034534 4.0689252677721086 #
edge $-1 $723 1 $723 0 $418 $-1 forward 7 unknown #
vertex $-1 $419 $724 #
ellipse-curve $-1 -34.270038339047105 13.009052277304189 2.4826449520673823 0 0.64278761758704617 0.76604443648966558 1 0 0 1 I I #
point $-1 -33.270038339047105 14.340099533034534 4.0689252677721086 #
edge $-1 $725 1 $725 0 $422 $-1 forward 7 unknown #
vertex $-1 $423 $726 #
ellipse-curve $-1 -31.078971797202296 13.009052277304189 2.4826449520673823 0 0.64278761758704617 0.76604443648966558 1 0 0 1 I I #
point $-1 -30.078971797202296 14.340099533034534 4.0689252677721086 #
loop $-1 $-1 $434 $426 #
plane-surface $-1 0 18.300590549783482 0 0 -1 0 0 0 -1 forward_v I I I I #
coedge $-1 $591 $429 $431 $595 reversed $274 $-1 #
coedge $-1 $429 $590 $727 $728 reversed $274 $-1 #
coedge $-1 $437 $432 $429 $593 forward $427 $-1 #
edge $-1 $596 -11.924194088430653 $729 -4.0032120549327566 $592 $730 forward 7 unknown #
coedge $-1 $431 $430 $599 $731 reversed $172 $-1 #
edge $-1 $732 -36.601181099566965 $596 -26.261073324885992 $590 $733 forward 7 unknown #
vertex $-1 $433 $734 #
straight-curve $-1 -6.5667645230804865 10.379608516285582 7.3921718888123493 1 0 0 I I #
coedge $-1 $727 $434 $437 $603 reversed $588 $-1 #
coedge $-1 $434 $727 $594 $731 forward $588 $-1 #
vertex $-1 $435 $735 #
straight-curve $-1 -18.451973282568993 18.300590549783482 44.519243024552352 0 0 1 I I #
straight-curve $-1 -18.451973282568993 -9.7375406004904903 24.272464646594543 0 0.76604443648966558 -0.64278761758704617 I I #
edge $-1 $729 7.8150848097529551 $438 18.451973282568993 $598 $736 forward 7 unknown #
point $-1 -18.451973282568993 18.300590549783482 7.3921718888123493 #
point $-1 -18.451973282568993 10.379608516285586 7.3921718888123493 #
edge $-1 $737 1 $737 0 $441 $-1 forward 7 unknown #
vertex $-1 $442 $738 #
ellipse-curve $-1 -16.324595588005781 13.009052277304189 2.4826449520673823 0 0.64278761758704617 0.76604443648966558 1 0 0 1 I I #
point $-1 -15.324595588005781 14.340099533034534 4.0689252677721086 #
edge $-1 $739 1 $739 0 $445 $-1 forward 7 unknown #
vertex $-1 $446 $740 #
ellipse-curve $-1 -13.133529046160973 13.009052277304189 2.4826449520673823 0 0.64278761758704617 0.76604443648966558 1 0 0 1 I I #
point $-1 -12.133529046160973 14.340099533034534 4.0689252677721086 #
edge $-1 $741 1 $741 0 $449 $-1 forward 7 unknown #
vertex $-1 $450 $742 #
ellipse-curve $-1 -9.9424625043161612 13.009052277304189 2.4826449520673823 0 0.64278761758704617 0.76604443648966558 1 0 0 1 I I #
point $-1 -8.9424625043161612 14.340099533034534 4.0689252677721086 #
loop $-1 $-1 $461 $453 #
plane-surface $-1 0 18.300590549783482 0 0 -1 0 0 0 -1 forward_v I I I I #
coedge $-1 $621 $456 $458 $625 reversed $303 $-1 #
coedge $-1 $456 $620 $743 $744 reversed $303 $-1 #
coedge $-1 $464 $459 $456 $623 forward $454 $-1 #
edge $-1 $626 -11.924194088430653 $745 -4.0032120549327566 $622 $746 forward 7 unknown #
coedge $-1 $458 $457 $629 $747 reversed $191 $-1 #
edge $-1 $748 -36.601181099566965 $626 -26.261073324885992 $620 $749 forward 7 unknown #
vertex $-1 $460 $750 #
straight-curve $-1 4.0014901233625828 10.379608516285582 7.3921718888123493 1 0 0 I I #
coedge $-1 $743 $461 $464 $633 reversed $618 $-1 #
coedge $-1 $461 $743 $624 $747 forward $618 $-1 #
vertex $-1 $462 $751 #
straight-curve $-1 2.6845360103171476 18.300590549783482 44.519243024552352 0 0 1 I I #
straight-curve $-1 2.6845360103171476 -9.7375406004904903 24.272464646594543 0 0.76604443648966558 -0.64278761758704617 I I #
edge $-1 $745 -13.321424483133184 $465 -2.6845360103171476 $628 $752 forward 7 unknown #
point $-1 2.6845360103171476 18.300590549783482 7.3921718888123493 #
point $-1 2.6845360103171476 10.379608516285586 7.3921718888123493 #
edge $-1 $753 1 $753 0 $468 $-1 forward 7 unknown #
vertex $-1 $469 $754 #
ellipse-curve $-1 4.8119137048803537 13.009052277304189 2.4826449520673823 0 0.64278761758704617 0.76604443648966558 1 0 0 1 I I #
point $-1 5.8119137048803537 14.340099533034534 4.0689252677721086 #
edge $-1 $755 1 $755 0 $472 $-1 forward 7 unknown #
vertex $-1 $473 $756 #
ellipse-curve $-1 8.0029802467251656 13.009052277304189 2.4826449520673823 0 0.64278761758704617 0.76604443648966558 1 0 0 1 I I #
point $-1 9.0029802467251656 14.340099533034534 4.0689252677721086 #
edge $-1 $757 1 $757 0 $476 $-1 forward 7 unknown #
vertex $-1 $477 $758 #
ellipse-curve $-1 11.19404678856997 13.009052277304189 2.4826449520673823 0 0.64278761758704617 0.76604443648966558 1 0 0 1 I I #
point $-1 12.19404678856997 14.340099533034534 4.0689252677721086 #
loop $-1 $-1 $488 $480 #
plane-surface $-1 0 18.300590549783482 0 0 -1 0 0 0 -1 forward_v I I I I #
coedge $-1 $651 $483 $485 $655 reversed $332 $-1 #
coedge $-1 $483 $650 $759 $760 reversed $332 $-1 #
coedge $-1 $491 $486 $483 $653 forward $481 $-1 #
edge $-1 $656 -11.924194088430653 $761 -4.0032120549327566 $652 $762 forward 7 unknown #
coedge $-1 $485 $484 $659 $763 reversed $210 $-1 #
edge $-1 $764 -36.601181099566965 $656 -26.261073324885992 $650 $765 forward 7 unknown #
vertex $-1 $487 $766 #
straight-curve $-1 14.569744769805649 10.379608516285582 7.3921718888123493 1 0 0 I I #
coedge $-1 $759 $488 $491 $663 reversed $648 $-1 #
coedge $-1 $488 $759 $654 $763 forward $648 $-1 #
vertex $-1 $489 $767 #
straight-curve $-1 23.821045303203277 18.300590549783482 44.519243024552352 0 0 1 I I #
straight-curve $-1 23.821045303203277 -9.7375406004904903 24.272464646594543 0 0.76604443648966558 -0.64278761758704617 I I #
edge $-1 $761 -34.457933776019317 $492 -23.821045303203277 $658 $768 forward 7 unknown #
point $-1 23.821045303203277 18.300590549783482 7.3921718888123493 #
point $-1 23.821045303203277 10.379608516285586 7.3921718888123493 #
edge $-1 $769 1 $769 0 $495 $-1 forward 7 unknown #
vertex $-1 $496 $770 #
ellipse-curve $-1 25.948422997766492 13.009052277304189 2.4826449520673823 0 0.64278761758704617 0.76604443648966558 1 0 0 1 I I #
point $-1 26.948422997766492 14.340099533034534 4.0689252677721086 #
edge $-1 $771 1 $771 0 $499 $-1 forward 7 unknown #
vertex $-1 $500 $772 #
ellipse-curve $-1 29.139489539611297 13.009052277304189 2.4826449520673823 0 0.64278761758704617 0.76604443648966558 1 0 0 1 I I #
point $-1 30.139489539611297 14.340099533034534 4.0689252677721086 #
edge $-1 $773 1 $773 0 $503 $-1 forward 7 unknown #
vertex $-1 $504 $774 #
ellipse-curve $-1 32.330556081456102 13.009052277304189 2.4826449520673823 0 0.64278761758704617 0.76604443648966558 1 0 0 1 I I #
point $-1 33.330556081456102 14.340099533034534 4.0689252677721086 #
plane-surface $-1 42.27301858577227 0 0 -1 0 0 0 0 1 forward_v I I I I #
coedge $-1 $512 $510 $514 $683 reversed $361 $-1 #
edge $-1 $525 -7.3921718888123493 $685 7.3921718888123493 $524 $775 forward 7 unknown #
vertex $-1 $683 $776 #
straight-curve $-1 -42.27301858577227 -18.300590549783482 0 0 0 -1 I I #
edge $-1 $681 -18.300590549783482 $685 18.300590549783482 $679 $777 forward 7 unknown #
straight-curve $-1 0 -18.300590549783482 -7.3921718888123493 -1 0 0 I I #
vertex $-1 $517 $778 #
straight-curve $-1 0 18.300590549783482 -7.3921718888123493 1 0 0 I I #
point $-1 42.27301858577227 18.300590549783482 -7.3921718888123493 #
point $-1 42.27301858577227 -18.300590549783482 -7.3921718888123493 #
straight-curve $-1 -42.27301858577227 0 7.3921718888123493 0 -1 0 I I #
point $-1 -42.27301858577227 18.300590549783482 7.3921718888123493 #
point $-1 -42.27301858577227 -18.300590549783482 7.3921718888123493 #
straight-curve $-1 42.27301858577227 -18.300590549783482 0 0 0 -1 I I #
straight-curve $-1 42.27301858577227 18.300590549783482 0 0 0 -1 I I #
plane-surface $-1 42.27301858577227 0 0 -1 0 0 0 0 1 forward_v I I I I #
coedge $-1 $698 $537 $548 $707 forward $380 $-1 #
coedge $-1 $537 $698 $551 $709 reversed $380 $-1 #
straight-curve $-1 42.27301858577227 -12.28360582700736 -2.6960859444061747 0 0 1 I I #
coedge $-1 $696 $695 $540 $699 forward $380 $-1 #
edge $-1 $702 4.6375567328096494 $700 10.654541455585772 $698 $779 forward 7 unknown #
vertex $-1 $542 $780 #
straight-curve $-1 0 -18.300590549783482 -6.8921718888123493 1 0 0 I I #
vertex $-1 $699 $781 #
straight-curve $-1 0 -12.28360582700736 -6.8921718888123493 1 0 0 I I #
point $-1 42.27301858577227 -18.300590549783482 -6.8921718888123493 #
point $-1 42.27301858577227 -12.28360582700736 -6.8921718888123493 #
straight-curve $-1 -42.27301858577227 -7.6460490941977106 -3.8921718888123493 0 1 0 I I #
edge $-1 $549 1.1960859444061747 $702 4.1960859444061747 $695 $782 forward 7 unknown #
point $-1 -42.27301858577227 -12.28360582700736 -3.8921718888123493 #
edge $-1 $553 3.8921718888123493 $700 6.8921718888123493 $696 $783 forward 7 unknown #
point $-1 -42.27301858577227 -18.300590549783482 -3.8921718888123493 #
straight-curve $-1 42.27301858577227 -18.300590549783482 0 0 0 -1 I I #
edge $-1 $713 37.127071135740003 $716 43.773564377820477 $559 $784 forward 7 unknown #
vertex $-1 $573 $785 #
straight-curve $-1 -28.951594102639085 22.303802604716239 7.3921718888123493 0 1 0 I I #
edge $-1 $716 11.816574933115533 $570 22.453463405931572 $569 $786 forward 7 unknown #
vertex $-1 $715 $787 #
straight-curve $-1 -28.951594102639085 -9.7375406004904903 24.272464646594543 0 -0.76604443648966558 0.64278761758704617 I I #
point $-1 -28.951594102639085 10.379608516285586 7.3921718888123493 #
point $-1 -39.588482575455124 18.300590549783482 0.74567864673187145 #
straight-curve $-1 0 18.300590549783482 7.3921718888123493 -1 0 0 I I #
vertex $-1 $576 $788 #
point $-1 -36.461104880891916 13.009052277304189 2.4826449520673823 #
vertex $-1 $580 $789 #
point $-1 -33.270038339047105 13.009052277304189 2.4826449520673823 #
vertex $-1 $584 $790 #
point $-1 -30.078971797202296 13.009052277304189 2.4826449520673823 #
coedge $-1 $599 $598 $591 $728 forward $588 $-1 #
edge $-1 $729 37.127071135740003 $732 43.773564377820477 $727 $791 forward 7 unknown #
vertex $-1 $603 $792 #
straight-curve $-1 -7.8150848097529551 22.303802604716239 7.3921718888123493 0 1 0 I I #
edge $-1 $732 1.2483202866724685 $600 11.885208759488506 $599 $793 forward 7 unknown #
vertex $-1 $731 $794 #
straight-curve $-1 -7.8150848097529551 -9.7375406004904903 24.272464646594543 0 -0.76604443648966558 0.64278761758704617 I I #
point $-1 -7.8150848097529551 10.379608516285586 7.3921718888123493 #
point $-1 -18.451973282568993 18.300590549783482 0.74567864673187145 #
straight-curve $-1 0 18.300590549783482 7.3921718888123493 -1 0 0 I I #
vertex $-1 $606 $795 #
point $-1 -15.324595588005781 13.009052277304189 2.4826449520673823 #
vertex $-1 $610 $796 #
point $-1 -12.133529046160973 13.009052277304189 2.4826449520673823 #
vertex $-1 $614 $797 #
point $-1 -8.9424625043161612 13.009052277304189 2.4826449520673823 #
coedge $-1 $629 $628 $621 $744 forward $618 $-1 #
edge $-1 $745 37.127071135740003 $748 43.773564377820477 $743 $798 forward 7 unknown #
vertex $-1 $633 $799 #
straight-curve $-1 13.321424483133184 22.303802604716239 7.3921718888123493 0 1 0 I I #
edge $-1 $748 -9.3199343597706008 $630 1.3169541130454352 $629 $800 forward 7 unknown #
vertex $-1 $747 $801 #
straight-curve $-1 13.321424483133184 -9.7375406004904903 24.272464646594543 0 -0.76604443648966558 0.64278761758704617 I I #
point $-1 13.321424483133184 10.379608516285586 7.3921718888123493 #
point $-1 2.6845360103171476 18.300590549783482 0.74567864673187145 #
straight-curve $-1 0 18.300590549783482 7.3921718888123493 -1 0 0 I I #
vertex $-1 $636 $802 #
point $-1 5.8119137048803537 13.009052277304189 2.4826449520673823 #
vertex $-1 $640 $803 #
point $-1 9.0029802467251656 13.009052277304189 2.4826449520673823 #
vertex $-1 $644 $804 #
point $-1 12.19404678856997 13.009052277304189 2.4826449520673823 #
coedge $-1 $659 $658 $651 $760 forward $648 $-1 #
edge $-1 $761 37.127071135740003 $764 43.773564377820477 $759 $805 forward 7 unknown #
vertex $-1 $663 $806 #
straight-curve $-1 34.457933776019317 22.303802604716239 7.3921718888123493 0 1 0 I I #
edge $-1 $764 -19.888189006213668 $660 -9.2513005333976288 $659 $807 forward 7 unknown #
vertex $-1 $763 $808 #
straight-curve $-1 34.457933776019317 -9.7375406004904903 24.272464646594543 0 -0.76604443648966558 0.64278761758704617 I I #
point $-1 34.457933776019317 10.379608516285586 7.3921718888123493 #
point $-1 23.821045303203277 18.300590549783482 0.74567864673187145 #
straight-curve $-1 0 18.300590549783482 7.3921718888123493 -1 0 0 I I #
vertex $-1 $666 $809 #
point $-1 26.948422997766492 13.009052277304189 2.4826449520673823 #
vertex $-1 $670 $810 #
point $-1 30.139489539611297 13.009052277304189 2.4826449520673823 #
vertex $-1 $674 $811 #
point $-1 33.330556081456102 13.009052277304189 2.4826449520673823 #
straight-curve $-1 -42.27301858577227 18.300590549783482 0 0 0 -1 I I #
point $-1 -42.27301858577227 -18.300590549783482 -7.3921718888123493 #
straight-curve $-1 -42.27301858577227 0 -7.3921718888123493 0 1 0 I I #
point $-1 -42.27301858577227 18.300590549783482 -7.3921718888123493 #
straight-curve $-1 -42.27301858577227 -7.6460490941977106 -6.8921718888123493 0 -1 0 I I #
point $-1 -42.27301858577227 -18.300590549783482 -6.8921718888123493 #
point $-1 -42.27301858577227 -12.28360582700736 -6.8921718888123493 #
straight-curve $-1 -42.27301858577227 -12.28360582700736 -2.6960859444061747 0 0 -1 I I #
straight-curve $-1 -42.27301858577227 -18.300590549783482 0 0 0 -1 I I #
straight-curve $-1 -28.951594102639085 18.300590549783482 44.519243024552352 0 0 -1 I I #
point $-1 -28.951594102639085 18.300590549783482 7.3921718888123493 #
straight-curve $-1 -17.135019169523552 18.300590549783479 0.74567864673187323 -1 0 0 I I #
point $-1 -28.951594102639085 18.300590549783482 0.74567864673187145 #
point $-1 -37.461104880891916 12.366264659717142 1.7166005155777166 #
point $-1 -34.270038339047105 12.366264659717142 1.7166005155777166 #
point $-1 -31.078971797202296 12.366264659717142 1.7166005155777166 #
straight-curve $-1 -7.8150848097529551 18.300590549783482 44.519243024552352 0 0 -1 I I #
point $-1 -7.8150848097529551 18.300590549783482 7.3921718888123493 #
straight-curve $-1 -6.5667645230804865 18.300590549783479 0.74567864673187323 -1 0 0 I I #
point $-1 -7.8150848097529551 18.300590549783482 0.74567864673187145 #
point $-1 -16.324595588005781 12.366264659717142 1.7166005155777166 #
point $-1 -13.133529046160973 12.366264659717142 1.7166005155777166 #
point $-1 -9.9424625043161612 12.366264659717142 1.7166005155777166 #
straight-curve $-1 13.321424483133184 18.300590549783482 44.519243024552352 0 0 -1 I I #
point $-1 13.321424483133184 18.300590549783482 7.3921718888123493 #
straight-curve $-1 4.0014901233625828 18.300590549783479 0.74567864673187323 -1 0 0 I I #
point $-1 13.321424483133184 18.300590549783482 0.74567864673187145 #
point $-1 4.8119137048803537 12.366264659717142 1.7166005155777166 #
point $-1 8.0029802467251656 12.366264659717142 1.7166005155777166 #
point $-1 11.19404678856997 12.366264659717142 1.7166005155777166 #
straight-curve $-1 34.457933776019317 18.300590549783482 44.519243024552352 0 0 -1 I I #
point $-1 34.457933776019317 18.300590549783482 7.3921718888123493 #
straight-curve $-1 14.569744769805649 18.300590549783479 0.74567864673187323 -1 0 0 I I #
point $-1 34.457933776019317 18.300590549783482 0.74567864673187145 #
point $-1 25.948422997766492 12.366264659717142 1.7166005155777166 #
point $-1 29.139489539611297 12.366264659717142 1.7166005155777166 #
point $-1 32.330556081456102 12.366264659717142 1.7166005155777166 #
End-of-ACIS-data 