500 0 4 0           
7 Unknown 11 ACIS 5.0 NT 24 Thu Mar 25 18:31:09 1999 
-1 9.9999999999999995e-007 1e-010 
body $-1 $4 $-1 $5 #
body $-1 $6 $-1 $7 #
body $-1 $8 $-1 $9 #
body $-1 $10 $-1 $11 #
lump $-1 $-1 $12 $0 #
transform $-1 1 0 0 0 1 0 0 0 1 66.370433668019658 43.406429712074981 18.056979381856564 1 rotate no_reflect no_shear #
lump $-1 $-1 $13 $1 #
transform $-1 1 0 0 0 1 0 0 0 1 66.370433668019658 43.406429712074981 18.056979381856564 1 rotate no_reflect no_shear #
lump $-1 $-1 $14 $2 #
transform $-1 1 0 0 0 1 0 0 0 1 66.370433668019658 43.406429712074981 18.056979381856564 1 rotate no_reflect no_shear #
lump $-1 $-1 $15 $3 #
transform $-1 1 0 0 0 1 0 0 0 1 66.370433668019658 43.406429712074981 18.056979381856564 1 rotate no_reflect no_shear #
shell $-1 $-1 $-1 $16 $-1 $4 #
shell $-1 $-1 $-1 $17 $-1 $6 #
shell $-1 $-1 $-1 $18 $-1 $8 #
shell $-1 $-1 $-1 $19 $-1 $10 #
face $-1 $20 $21 $12 $-1 $22 reversed single #
face $-1 $23 $24 $13 $-1 $25 forward single #
face $-1 $26 $27 $14 $-1 $28 reversed single #
face $-1 $29 $30 $15 $-1 $31 forward single #
face $-1 $32 $33 $12 $-1 $34 forward single #
loop $-1 $-1 $35 $16 #
plane-surface $-1 0 -43.406429712074981 0 0 1 0 0 0 1 forward_v I I I I #
face $-1 $36 $37 $13 $-1 $38 reversed single #
loop $-1 $-1 $39 $17 #
plane-surface $-1 0 -43.406429712074981 0 0 1 0 0 0 1 forward_v I I I I #
face $-1 $40 $41 $14 $-1 $42 reversed single #
loop $-1 $-1 $43 $18 #
plane-surface $-1 -172.38200504871025 13.793149685261611 86.998303655611153 0 1 0 -0.79863551827123203 0 0.60181501223851219 forward_v I I I I #
face $-1 $44 $45 $15 $-1 $46 forward single #
loop $-1 $47 $48 $19 #
cone-surface $-1 -58.746270862126863 24.456612635547941 9.9469749153335023 0.79863551827123203 0 -0.60181501223851219 1.8054450367155366 0 2.395906554813696 1 I I 0 1 3 forward I I I I #
face $-1 $49 $50 $12 $-1 $51 reversed single #
loop $-1 $-1 $52 $20 #
plane-surface $-1 0 0 18.056979381856564 0 0 1 1 0 0 forward_v I I I I #
coedge $-1 $53 $54 $55 $56 reversed $21 $-1 #
face $-1 $57 $58 $13 $-1 $59 reversed single #
loop $-1 $-1 $60 $23 #
plane-surface $-1 0 0 -18.056979381856564 0 0 1 1 0 0 forward_v I I I I #
coedge $-1 $61 $62 $63 $64 forward $24 $-1 #
face $-1 $65 $66 $14 $-1 $67 reversed single #
loop $-1 $-1 $68 $26 #
plane-surface $-1 -66.370433668019643 24.456612635547941 7.112856955221929 -0.79863551827123203 0 0.60181501223851219 0.60181501223851219 0 0.79863551827123203 forward_v I I I I #
coedge $-1 $69 $70 $71 $72 reversed $27 $-1 #
face $-1 $-1 $73 $15 $-1 $74 forward single #
loop $-1 $75 $76 $29 #
cone-surface $-1 -54.047648551294294 24.456612635547941 6.4063091437699775 0.79863551827123203 0 -0.60181501223851219 0.90272251835776829 0 1.197953277406848 1 I I -0.70710678118654757 0.70710678118654757 1.5 forward I I I I #
loop $-1 $-1 $77 $19 #
coedge $-1 $48 $48 $78 $79 reversed $30 $-1 #
face $-1 $80 $81 $12 $-1 $82 reversed single #
loop $-1 $-1 $83 $32 #
plane-surface $-1 0 0 -18.056979381856564 0 0 1 1 0 0 forward_v I I I I #
coedge $-1 $84 $85 $86 $87 forward $33 $-1 #
coedge $-1 $88 $35 $89 $90 reversed $21 $-1 #
coedge $-1 $35 $88 $91 $92 forward $21 $-1 #
coedge $-1 $93 $83 $35 $56 forward $50 $-1 #
edge $-1 $94 -66.370433668019658 $95 66.370433668019658 $35 $96 forward 7 unknown #
face $-1 $97 $98 $13 $-1 $99 reversed single #
loop $-1 $-1 $100 $36 #
plane-surface $-1 -36.41253319812634 -55.448060390110044 0 0 1 0 0 0 1 forward_v I I I I #
coedge $-1 $101 $102 $62 $103 forward $37 $-1 #
coedge $-1 $104 $39 $105 $106 reversed $24 $-1 #
coedge $-1 $39 $104 $60 $103 reversed $24 $-1 #
coedge $-1 $107 $108 $39 $64 reversed $98 $-1 #
edge $-1 $109 -18.056979381856564 $110 18.056979381856564 $63 $111 forward 7 unknown #
face $-1 $112 $113 $14 $-1 $114 reversed single #
loop $-1 $-1 $115 $40 #
plane-surface $-1 -172.38200504871025 35.120075585834272 86.998303655611153 0 -1 0 0.79863551827123203 0 -0.60181501223851219 forward_v I I I I #
coedge $-1 $116 $117 $118 $119 reversed $41 $-1 #
coedge $-1 $70 $43 $120 $121 reversed $27 $-1 #
coedge $-1 $43 $69 $116 $122 reversed $27 $-1 #
coedge $-1 $118 $123 $43 $72 forward $124 $-1 #
edge $-1 $125 19.82056885633547 $126 28.067556401269655 $71 $127 forward 7 unknown #
loop $-1 $-1 $78 $44 #
plane-surface $-1 -66.370433668019643 24.456612635547941 7.112856955221929 -0.79863551827123203 0 0.60181501223851219 0.60181501223851219 0 0.79863551827123203 forward_v I I I I #
loop $-1 $-1 $128 $29 #
coedge $-1 $76 $76 $77 $129 reversed $45 $-1 #
coedge $-1 $77 $77 $76 $129 forward $47 $-1 #
coedge $-1 $78 $78 $48 $79 forward $73 $-1 #
edge $-1 $130 0 $130 6.2831853071796004 $78 $131 forward 7 unknown #
face $-1 $132 $133 $12 $-1 $134 reversed single #
loop $-1 $-1 $135 $49 #
plane-surface $-1 -66.370433668019658 0 0 1 0 0 0 0 -1 forward_v I I I I #
coedge $-1 $55 $136 $137 $138 forward $50 $-1 #
coedge $-1 $139 $52 $140 $141 forward $33 $-1 #
coedge $-1 $52 $139 $88 $142 forward $33 $-1 #
coedge $-1 $89 $143 $52 $87 reversed $144 $-1 #
edge $-1 $145 -43.406429712074981 $146 43.406429712074981 $86 $147 forward 7 unknown #
coedge $-1 $54 $53 $85 $142 reversed $21 $-1 #
coedge $-1 $137 $86 $53 $90 forward $144 $-1 #
edge $-1 $145 -18.056979381856564 $94 18.056979381856564 $89 $148 forward 7 unknown #
coedge $-1 $149 $150 $54 $92 reversed $81 $-1 #
edge $-1 $151 -18.056979381856564 $95 18.056979381856564 $91 $152 forward 7 unknown #
coedge $-1 $136 $55 $150 $153 forward $50 $-1 #
vertex $-1 $90 $154 #
vertex $-1 $153 $155 #
straight-curve $-1 0 -43.406429712074981 -18.056979381856564 -1 0 0 I I #
face $-1 $156 $157 $13 $-1 $158 reversed single #
loop $-1 $-1 $63 $57 #
plane-surface $-1 -41.287702713110029 -49.427245051092513 0 1 0 0 0 0 -1 forward_v I I I I #
coedge $-1 $159 $160 $161 $162 forward $58 $-1 #
coedge $-1 $163 $60 $164 $165 forward $37 $-1 #
coedge $-1 $60 $163 $107 $166 forward $37 $-1 #
edge $-1 $109 -41.287702713110029 $167 -31.537363683142651 $60 $168 forward 7 unknown #
coedge $-1 $62 $61 $169 $170 forward $24 $-1 #
coedge $-1 $171 $172 $61 $106 forward $173 $-1 #
edge $-1 $174 31.537363683142651 $110 41.287702713110029 $105 $175 forward 7 unknown #
coedge $-1 $161 $63 $102 $166 reversed $98 $-1 #
coedge $-1 $63 $161 $171 $176 reversed $98 $-1 #
vertex $-1 $103 $177 #
vertex $-1 $176 $178 #
straight-curve $-1 -41.287702713110029 -43.406429712074981 0 0 0 1 I I #
face $-1 $-1 $124 $14 $-1 $179 forward single #
loop $-1 $-1 $180 $65 #
plane-surface $-1 -66.370433668019658 0 0 1 0 0 0 0 -1 forward_v I I I I #
coedge $-1 $181 $182 $183 $184 reversed $66 $-1 #
coedge $-1 $185 $68 $70 $122 forward $41 $-1 #
coedge $-1 $68 $185 $181 $186 forward $41 $-1 #
coedge $-1 $183 $71 $68 $119 forward $124 $-1 #
edge $-1 $126 1.5648433674876401 $187 22.891769268060301 $118 $188 forward 7 unknown #
coedge $-1 $189 $190 $69 $121 forward $113 $-1 #
edge $-1 $191 -36.386294872583669 $125 -25.442172445949012 $120 $192 forward 7 unknown #
edge $-1 $126 -13.703525796504582 $191 2.3448253187574213e-014 $70 $193 forward 7 unknown #
coedge $-1 $71 $183 $189 $194 forward $124 $-1 #
loop $-1 $-1 $183 $112 #
vertex $-1 $121 $195 #
vertex $-1 $72 $196 #
straight-curve $-1 -86.191002524355127 13.793149685261611 18.056979381856564 1 0 0 I I #
coedge $-1 $128 $128 $-1 $197 reversed $75 $-1 #
edge $-1 $198 0 $198 6.2831853071796004 $76 $199 forward 7 unknown #
vertex $-1 $79 $200 #
ellipse-curve $-1 -62.246939895552558 24.456612635547941 12.584918168539243 -0.79863551827123203 0 0.60181501223851219 1.8054450367155366 0 2.395906554813696 1 I I #
face $-1 $-1 $144 $12 $-1 $201 reversed single #
loop $-1 $-1 $202 $80 #
plane-surface $-1 0 43.406429712074981 0 0 -1 0 0 0 -1 forward_v I I I I #
coedge $-1 $150 $149 $203 $204 forward $81 $-1 #
coedge $-1 $83 $93 $205 $206 forward $50 $-1 #
coedge $-1 $143 $89 $83 $138 reversed $144 $-1 #
edge $-1 $207 -43.406429712074981 $94 43.406429712074981 $137 $208 forward 7 unknown #
coedge $-1 $85 $84 $149 $209 forward $33 $-1 #
coedge $-1 $202 $203 $84 $141 reversed $133 $-1 #
edge $-1 $146 -66.370433668019658 $210 66.370433668019658 $140 $211 forward 7 unknown #
edge $-1 $151 -66.370433668019658 $145 66.370433668019658 $88 $212 forward 7 unknown #
coedge $-1 $86 $137 $202 $213 reversed $144 $-1 #
loop $-1 $-1 $89 $132 #
vertex $-1 $87 $214 #
vertex $-1 $87 $215 #
straight-curve $-1 66.370433668019658 0 18.056979381856564 0 1 0 I I #
straight-curve $-1 66.370433668019658 -43.406429712074981 0 0 0 -1 I I #
coedge $-1 $135 $91 $139 $209 reversed $81 $-1 #
coedge $-1 $91 $135 $93 $153 reversed $81 $-1 #
vertex $-1 $209 $216 #
straight-curve $-1 -66.370433668019658 -43.406429712074981 0 0 0 -1 I I #
edge $-1 $95 -43.406429712074981 $217 43.406429712074981 $150 $218 forward 7 unknown #
point $-1 66.370433668019658 -43.406429712074981 -18.056979381856564 #
point $-1 -66.370433668019658 -43.406429712074981 -18.056979381856564 #
face $-1 $-1 $173 $13 $-1 $219 forward single #
loop $-1 $-1 $220 $97 #
plane-surface $-1 -31.537363683142651 -49.427245051092513 0 -1 0 0 0 0 1 forward_v I I I I #
coedge $-1 $221 $100 $163 $222 reversed $58 $-1 #
coedge $-1 $100 $221 $223 $224 reversed $58 $-1 #
coedge $-1 $108 $107 $100 $162 reversed $98 $-1 #
edge $-1 $225 -18.056979381856564 $226 18.056979381856564 $161 $227 forward 7 unknown #
coedge $-1 $102 $101 $159 $222 forward $37 $-1 #
coedge $-1 $169 $220 $101 $165 reversed $157 $-1 #
edge $-1 $167 -6.0208153390175312 $228 6.0208153390175312 $164 $229 forward 7 unknown #
edge $-1 $226 -6.0208153390175312 $109 6.0208153390175312 $107 $230 forward 7 unknown #
vertex $-1 $165 $231 #
straight-curve $-1 0 -43.406429712074981 -18.056979381856564 1 0 0 I I #
coedge $-1 $232 $164 $104 $170 reversed $157 $-1 #
edge $-1 $174 -18.056979381856564 $167 18.056979381856564 $169 $233 forward 7 unknown #
coedge $-1 $223 $105 $108 $176 forward $173 $-1 #
coedge $-1 $105 $223 $232 $234 forward $173 $-1 #
loop $-1 $-1 $105 $156 #
vertex $-1 $106 $235 #
straight-curve $-1 0 -43.406429712074981 18.056979381856564 -1 0 0 I I #
edge $-1 $110 -6.0208153390175312 $225 6.0208153390175312 $108 $236 forward 7 unknown #
point $-1 -41.287702713110029 -43.406429712074981 -18.056979381856564 #
point $-1 -41.287702713110029 -43.406429712074981 18.056979381856564 #
plane-surface $-1 0 0 18.056979381856564 0 0 1 1 0 0 forward_v I I I I #
coedge $-1 $190 $189 $182 $237 forward $113 $-1 #
coedge $-1 $182 $115 $117 $186 reversed $66 $-1 #
coedge $-1 $115 $181 $180 $237 reversed $66 $-1 #
coedge $-1 $123 $118 $115 $184 forward $124 $-1 #
edge $-1 $187 -28.067556401269655 $238 -19.82056885633547 $183 $239 forward 7 unknown #
coedge $-1 $117 $116 $190 $240 reversed $41 $-1 #
edge $-1 $241 -2.3448253187574213e-014 $187 13.703525796504582 $181 $242 forward 7 unknown #
vertex $-1 $119 $243 #
straight-curve $-1 -58.123446123085472 12.228306317773971 18.056979381856564 0 1 0 I I #
coedge $-1 $180 $120 $123 $194 reversed $113 $-1 #
coedge $-1 $120 $180 $185 $240 forward $113 $-1 #
vertex $-1 $121 $244 #
straight-curve $-1 -66.370433668019658 13.793149685261611 43.499151827805576 0 0 1 I I #
straight-curve $-1 -66.370433668019643 13.793149685261611 7.112856955221929 -0.60181501223851219 0 -0.79863551827123203 I I #
edge $-1 $238 -35.120075585834272 $125 -13.793149685261611 $189 $245 forward 7 unknown #
point $-1 -66.370433668019658 13.793149685261611 18.056979381856564 #
point $-1 -58.123446123085472 13.793149685261611 18.056979381856564 #
edge $-1 $246 1 $246 0 $128 $-1 forward 7 unknown #
vertex $-1 $129 $247 #
ellipse-curve $-1 -55.24560182870114 24.456612635547941 7.3090316621277456 -0.79863551827123203 0 0.60181501223851219 1.8054450367155366 0 2.395906554813696 1 I I #
point $-1 -60.441494858837046 24.456612635547941 14.980824723352955 #
plane-surface $-1 66.370433668019658 0 0 -1 0 0 0 0 1 forward_v I I I I #
coedge $-1 $205 $140 $143 $213 forward $133 $-1 #
coedge $-1 $140 $205 $135 $204 reversed $133 $-1 #
edge $-1 $210 -18.056979381856564 $217 18.056979381856564 $203 $248 forward 7 unknown #
coedge $-1 $203 $202 $136 $206 reversed $133 $-1 #
edge $-1 $217 -66.370433668019658 $207 66.370433668019658 $205 $249 forward 7 unknown #
vertex $-1 $138 $250 #
straight-curve $-1 66.370433668019658 0 -18.056979381856564 0 -1 0 I I #
edge $-1 $210 -43.406429712074981 $151 43.406429712074981 $149 $251 forward 7 unknown #
vertex $-1 $141 $252 #
straight-curve $-1 0 43.406429712074981 18.056979381856564 -1 0 0 I I #
straight-curve $-1 0 -43.406429712074981 18.056979381856564 1 0 0 I I #
edge $-1 $146 -18.056979381856564 $207 18.056979381856564 $143 $253 forward 7 unknown #
point $-1 66.370433668019658 -43.406429712074981 18.056979381856564 #
point $-1 66.370433668019658 43.406429712074981 18.056979381856564 #
point $-1 -66.370433668019658 -43.406429712074981 18.056979381856564 #
vertex $-1 $206 $254 #
straight-curve $-1 -66.370433668019658 0 -18.056979381856564 0 1 0 I I #
plane-surface $-1 0 0 18.056979381856564 0 0 1 1 0 0 forward_v I I I I #
coedge $-1 $164 $232 $221 $255 forward $157 $-1 #
coedge $-1 $160 $159 $220 $255 reversed $58 $-1 #
edge $-1 $228 -4.8751695149836891 $226 4.8751695149836891 $159 $256 forward 7 unknown #
coedge $-1 $172 $171 $160 $224 forward $173 $-1 #
edge $-1 $225 -4.8751695149836891 $257 4.8751695149836891 $160 $258 forward 7 unknown #
vertex $-1 $176 $259 #
vertex $-1 $166 $260 #
straight-curve $-1 -41.287702713110029 -55.448060390110044 0 0 0 -1 I I #
vertex $-1 $255 $261 #
straight-curve $-1 -31.537363683142651 -49.427245051092513 -18.056979381856564 0 -1 0 I I #
straight-curve $-1 -41.287702713110029 -49.427245051092513 -18.056979381856564 0 1 0 I I #
point $-1 -31.537363683142651 -43.406429712074981 -18.056979381856564 #
coedge $-1 $220 $169 $172 $234 reversed $157 $-1 #
straight-curve $-1 -31.537363683142651 -43.406429712074981 0 0 0 -1 I I #
edge $-1 $257 -6.0208153390175312 $174 6.0208153390175312 $232 $262 forward 7 unknown #
point $-1 -31.537363683142651 -43.406429712074981 18.056979381856564 #
straight-curve $-1 -41.287702713110029 -49.427245051092513 18.056979381856564 0 -1 0 I I #
edge $-1 $238 25.442172445949012 $241 36.386294872583669 $180 $263 forward 7 unknown #
vertex $-1 $194 $264 #
straight-curve $-1 -86.191002524355127 35.120075585834272 18.056979381856564 -1 0 0 I I #
edge $-1 $241 -22.891769268060301 $191 -1.5648433674876401 $190 $265 forward 7 unknown #
vertex $-1 $240 $266 #
straight-curve $-1 -66.370433668019643 35.120075585834272 7.112856955221929 0.60181501223851219 0 0.79863551827123203 I I #
point $-1 -58.123446123085472 35.120075585834272 18.056979381856564 #
point $-1 -66.370433668019658 13.793149685261611 7.1128569552219103 #
straight-curve $-1 -66.370433668019658 0 18.056979381856564 0 -1 0 I I #
vertex $-1 $197 $267 #
point $-1 -53.440156791985608 24.456612635547941 9.7049382169414429 #
straight-curve $-1 -66.370433668019658 43.406429712074981 0 0 0 -1 I I #
straight-curve $-1 0 43.406429712074981 -18.056979381856564 1 0 0 I I #
point $-1 66.370433668019658 43.406429712074981 -18.056979381856564 #
straight-curve $-1 -66.370433668019658 0 18.056979381856564 0 -1 0 I I #
point $-1 -66.370433668019658 43.406429712074981 18.056979381856564 #
straight-curve $-1 66.370433668019658 43.406429712074981 0 0 0 -1 I I #
point $-1 -66.370433668019658 43.406429712074981 -18.056979381856564 #
edge $-1 $257 -18.056979381856564 $228 18.056979381856564 $220 $268 forward 7 unknown #
straight-curve $-1 -36.41253319812634 -55.448060390110044 -18.056979381856564 -1 0 0 I I #
vertex $-1 $234 $269 #
straight-curve $-1 -36.41253319812634 -55.448060390110044 18.056979381856564 1 0 0 I I #
point $-1 -41.287702713110029 -55.448060390110044 18.056979381856564 #
point $-1 -41.287702713110029 -55.448060390110044 -18.056979381856564 #
point $-1 -31.537363683142651 -55.448060390110044 -18.056979381856564 #
straight-curve $-1 -31.537363683142651 -49.427245051092513 18.056979381856564 0 1 0 I I #
straight-curve $-1 -66.370433668019658 35.120075585834272 43.499151827805576 0 0 -1 I I #
point $-1 -66.370433668019658 35.120075585834272 18.056979381856564 #
straight-curve $-1 -66.370433668019658 12.228306317773971 7.1128569552218934 0 -1 0 I I #
point $-1 -66.370433668019658 35.120075585834272 7.1128569552219103 #
point $-1 -52.849695273887448 24.456612635547941 5.5035866254122094 #
straight-curve $-1 -31.537363683142651 -55.448060390110044 0 0 0 -1 I I #
point $-1 -31.537363683142651 -55.448060390110044 18.056979381856564 #
End-of-ACIS-data 