500 0 7 0           
7 Unknown 11 ACIS 5.0 NT 24 Fri Mar 26 14:59:20 1999 
-1 9.9999999999999995e-007 1e-010 
body $-1 $7 $-1 $8 #
body $-1 $9 $-1 $10 #
body $-1 $11 $-1 $12 #
body $-1 $13 $-1 $14 #
body $-1 $15 $-1 $16 #
body $-1 $17 $-1 $18 #
body $-1 $19 $-1 $20 #
lump $-1 $-1 $21 $0 #
transform $-1 1 0 0 0 1 0 0 0 1 56.508072145756401 27.70908075813901 10.188691656680131 1 rotate no_reflect no_shear #
lump $-1 $-1 $22 $1 #
transform $-1 1 0 0 0 1 0 0 0 1 56.508072145756401 27.70908075813901 10.188691656680131 1 rotate no_reflect no_shear #
lump $-1 $-1 $23 $2 #
transform $-1 1 0 0 0 1 0 0 0 1 56.508072145756401 27.70908075813901 10.188691656680131 1 rotate no_reflect no_shear #
lump $-1 $-1 $24 $3 #
transform $-1 1 0 0 0 1 0 0 0 1 56.508072145756401 27.70908075813901 10.188691656680131 1 rotate no_reflect no_shear #
lump $-1 $-1 $25 $4 #
transform $-1 1 0 0 0 1 0 0 0 1 56.508072145756401 27.70908075813901 10.188691656680131 1 rotate no_reflect no_shear #
lump $-1 $-1 $26 $5 #
transform $-1 1 0 0 0 1 0 0 0 1 56.508072145756401 27.70908075813901 10.188691656680131 1 rotate no_reflect no_shear #
lump $-1 $-1 $27 $6 #
transform $-1 1 0 0 0 1 0 0 0 1 56.508072145756401 27.70908075813901 10.188691656680131 1 rotate no_reflect no_shear #
shell $-1 $-1 $-1 $28 $-1 $7 #
shell $-1 $-1 $-1 $29 $-1 $9 #
shell $-1 $-1 $-1 $30 $-1 $11 #
shell $-1 $-1 $-1 $31 $-1 $13 #
shell $-1 $-1 $-1 $32 $-1 $15 #
shell $-1 $-1 $-1 $33 $-1 $17 #
shell $-1 $-1 $-1 $34 $-1 $19 #
face $-1 $35 $36 $21 $-1 $37 forward single #
face $-1 $38 $39 $22 $-1 $40 forward single #
face $-1 $41 $42 $23 $-1 $43 reversed single #
face $-1 $44 $45 $24 $-1 $46 forward single #
face $-1 $47 $48 $25 $-1 $49 reversed single #
face $-1 $50 $51 $26 $-1 $52 forward single #
face $-1 $53 $54 $27 $-1 $55 forward single #
face $-1 $56 $57 $21 $-1 $58 reversed single #
loop $-1 $-1 $59 $28 #
plane-surface $-1 0 0 10.188691656680131 0 0 1 1 0 0 forward_v I I I I #
face $-1 $60 $61 $22 $-1 $62 reversed single #
loop $-1 $-1 $63 $29 #
plane-surface $-1 -53.019694469589396 0 5.6136885841336657 0 0 1 1 0 0 forward_v I I I I #
face $-1 $64 $65 $23 $-1 $66 reversed single #
loop $-1 $-1 $67 $30 #
plane-surface $-1 28.216828653847635 -115.53912180896731 75.499498482256158 1 0 0 0 0.77714596973225614 -0.62932038083071107 forward_v I I I I #
face $-1 $68 $69 $24 $-1 $70 forward single #
loop $-1 $71 $72 $31 #
cone-surface $-1 37.944899735137298 -24.811689845777646 6.841945017277955 0 0.77714596973225614 -0.62932038083071107 1 0 0 1 I I 0 1 1 forward I I I I #
face $-1 $73 $74 $25 $-1 $75 reversed single #
loop $-1 $-1 $76 $32 #
plane-surface $-1 -47.158032616831122 88.499936363566405 115.53638803870422 1 0 0 0 -0.81915205242281985 -0.57357642473473569 forward_v I I I I #
face $-1 $77 $78 $26 $-1 $79 forward single #
loop $-1 $80 $81 $33 #
cone-surface $-1 -39.056249571155668 25.096478076634156 7.1177772949135063 0 -0.81915205242281985 -0.57357642473473569 1 0 0 1 I I 0 1 1 forward I I I I #
face $-1 $82 $83 $27 $-1 $84 forward single #
loop $-1 $85 $86 $34 #
cone-surface $-1 -26.903575002642491 25.096478076634156 7.1177772949135063 0 -0.81915205242281985 -0.57357642473473569 1 0 0 1 I I 0 1 1 forward I I I I #
face $-1 $87 $88 $21 $-1 $89 reversed single #
loop $-1 $-1 $90 $35 #
plane-surface $-1 0 0 -10.188691656680131 0 0 1 1 0 0 forward_v I I I I #
coedge $-1 $91 $92 $93 $94 forward $36 $-1 #
face $-1 $95 $96 $22 $-1 $97 reversed single #
loop $-1 $-1 $98 $38 #
plane-surface $-1 -53.019694469589396 0 1.6216070172079924 0 0 1 1 0 0 forward_v I I I I #
coedge $-1 $99 $100 $101 $102 forward $39 $-1 #
face $-1 $103 $104 $23 $-1 $105 reversed single #
loop $-1 $-1 $106 $41 #
plane-surface $-1 37.944899735137298 -27.70908075813901 4.3761355167027318 0 -0.77714596973225614 0.62932038083071107 1 0 0 forward_v I I I I #
coedge $-1 $107 $108 $109 $110 reversed $42 $-1 #
face $-1 $-1 $111 $24 $-1 $112 forward single #
loop $-1 $113 $114 $44 #
cone-surface $-1 37.944899735137298 -23.879183462375199 6.0868162574491187 0 0.77714596973225614 -0.62932038083071107 0.5 0 0 1 I I -0.70710678118654746 0.70710678118654746 0.5 forward I I I I #
loop $-1 $-1 $115 $31 #
coedge $-1 $72 $72 $116 $117 reversed $45 $-1 #
face $-1 $118 $119 $25 $-1 $120 reversed single #
loop $-1 $-1 $121 $47 #
plane-surface $-1 -32.979912286899079 -4.0774701897398558 50.712992058673294 0 0.81915205242281985 0.57357642473473569 1 0 0 forward_v I I I I #
coedge $-1 $122 $123 $124 $125 reversed $48 $-1 #
face $-1 $-1 $126 $26 $-1 $127 forward single #
loop $-1 $128 $129 $50 #
cone-surface $-1 -39.056249571155668 23.779864959995457 6.1958748935621593 0 -0.81915205242281985 -0.57357642473473569 0.5 0 0 1 I I -0.70710678118654746 0.70710678118654746 0.5 forward I I I I #
loop $-1 $-1 $130 $33 #
coedge $-1 $81 $81 $131 $132 reversed $51 $-1 #
face $-1 $-1 $133 $27 $-1 $134 forward single #
loop $-1 $135 $136 $53 #
cone-surface $-1 -26.903575002642491 23.779864959995457 6.1958748935621593 0 -0.81915205242281985 -0.57357642473473569 0.5 0 0 1 I I -0.70710678118654746 0.70710678118654746 0.5 forward I I I I #
loop $-1 $-1 $137 $34 #
coedge $-1 $86 $86 $138 $139 reversed $54 $-1 #
face $-1 $140 $141 $21 $-1 $142 reversed single #
loop $-1 $-1 $143 $56 #
plane-surface $-1 0 -27.70908075813901 0 0 1 0 0 0 1 forward_v I I I I #
coedge $-1 $144 $145 $146 $147 forward $57 $-1 #
coedge $-1 $148 $59 $149 $150 forward $36 $-1 #
coedge $-1 $59 $148 $151 $152 forward $36 $-1 #
coedge $-1 $153 $154 $59 $94 reversed $155 $-1 #
edge $-1 $156 -27.70908075813901 $157 27.70908075813901 $93 $158 forward 7 unknown #
face $-1 $159 $160 $22 $-1 $161 reversed single #
loop $-1 $-1 $162 $60 #
plane-surface $-1 -49.531316793422391 0 3.617647800670829 -1 0 0 0 0 1 forward_v I I I I #
coedge $-1 $163 $164 $165 $166 forward $61 $-1 #
coedge $-1 $167 $63 $168 $169 reversed $39 $-1 #
coedge $-1 $63 $167 $170 $171 reversed $39 $-1 #
coedge $-1 $162 $172 $63 $102 reversed $96 $-1 #
edge $-1 $173 -27.70908075813901 $174 27.70908075813901 $101 $175 forward 7 unknown #
face $-1 $176 $177 $23 $-1 $178 forward single #
loop $-1 $-1 $179 $64 #
plane-surface $-1 47.672970816426961 -115.53912180896731 75.499498482256158 -1 0 0 0 -0.77714596973225614 0.62932038083071107 forward_v I I I I #
coedge $-1 $180 $181 $182 $183 reversed $65 $-1 #
coedge $-1 $108 $67 $184 $185 reversed $42 $-1 #
coedge $-1 $67 $107 $180 $186 reversed $42 $-1 #
coedge $-1 $182 $187 $67 $110 forward $188 $-1 #
edge $-1 $189 27.561057584447948 $190 33.373613724425347 $109 $191 forward 7 unknown #
loop $-1 $-1 $116 $68 #
plane-surface $-1 37.944899735137298 -27.70908075813901 4.3761355167027318 0 -0.77714596973225614 0.62932038083071107 1 0 0 forward_v I I I I #
loop $-1 $-1 $192 $44 #
coedge $-1 $114 $114 $115 $193 reversed $69 $-1 #
coedge $-1 $115 $115 $114 $193 forward $71 $-1 #
coedge $-1 $116 $116 $72 $117 forward $111 $-1 #
edge $-1 $194 5.2518199176725898e-016 $194 6.2831853071796013 $116 $195 forward 7 unknown #
face $-1 $196 $197 $25 $-1 $198 reversed single #
loop $-1 $-1 $199 $73 #
plane-surface $-1 -18.801791956967037 88.499936363566405 115.53638803870422 -1 0 0 0 0.81915205242281985 0.57357642473473569 forward_v I I I I #
coedge $-1 $200 $201 $202 $203 reversed $74 $-1 #
coedge $-1 $123 $76 $204 $205 reversed $48 $-1 #
coedge $-1 $76 $122 $200 $206 reversed $48 $-1 #
coedge $-1 $202 $207 $76 $125 forward $208 $-1 #
edge $-1 $209 16.540887423644193 $210 19.952018605799321 $124 $211 forward 7 unknown #
loop $-1 $-1 $131 $77 #
plane-surface $-1 -32.979912286899079 -4.0774701897398558 50.712992058673294 0 0.81915205242281985 0.57357642473473569 1 0 0 forward_v I I I I #
loop $-1 $-1 $212 $50 #
coedge $-1 $129 $129 $130 $213 reversed $78 $-1 #
coedge $-1 $130 $130 $129 $213 forward $80 $-1 #
coedge $-1 $131 $131 $81 $132 forward $126 $-1 #
edge $-1 $214 -1.4551063508300288e-015 $214 6.2831853071795987 $131 $215 forward 7 unknown #
loop $-1 $-1 $138 $82 #
plane-surface $-1 -32.979912286899079 -4.0774701897398558 50.712992058673294 0 0.81915205242281985 0.57357642473473569 1 0 0 forward_v I I I I #
loop $-1 $-1 $216 $53 #
coedge $-1 $136 $136 $137 $217 reversed $83 $-1 #
coedge $-1 $137 $137 $136 $217 forward $85 $-1 #
coedge $-1 $138 $138 $86 $139 forward $133 $-1 #
edge $-1 $218 -1.4551063508300288e-015 $218 6.2831853071795987 $138 $219 forward 7 unknown #
face $-1 $220 $221 $21 $-1 $222 reversed single #
loop $-1 $-1 $223 $87 #
plane-surface $-1 -56.508072145756401 0 0 1 0 0 0 0 -1 forward_v I I I I #
coedge $-1 $224 $151 $225 $226 forward $88 $-1 #
coedge $-1 $227 $90 $224 $228 forward $57 $-1 #
coedge $-1 $90 $227 $229 $230 forward $57 $-1 #
coedge $-1 $154 $153 $90 $147 reversed $155 $-1 #
edge $-1 $231 -27.70908075813901 $232 27.70908075813901 $146 $233 forward 7 unknown #
coedge $-1 $92 $91 $234 $235 forward $36 $-1 #
coedge $-1 $236 $237 $91 $150 reversed $221 $-1 #
edge $-1 $157 -56.508072145756401 $238 56.508072145756401 $149 $239 forward 7 unknown #
coedge $-1 $143 $240 $92 $152 reversed $88 $-1 #
edge $-1 $241 -56.508072145756401 $156 56.508072145756401 $151 $242 forward 7 unknown #
coedge $-1 $146 $93 $240 $243 forward $155 $-1 #
coedge $-1 $93 $146 $236 $244 reversed $155 $-1 #
loop $-1 $-1 $153 $220 #
vertex $-1 $94 $245 #
vertex $-1 $94 $246 #
straight-curve $-1 56.508072145756401 0 10.188691656680131 0 1 0 I I #
face $-1 $247 $248 $22 $-1 $249 reversed single #
loop $-1 $-1 $250 $95 #
plane-surface $-1 0 -27.70908075813901 0 0 1 0 0 0 1 forward_v I I I I #
coedge $-1 $165 $101 $251 $252 reversed $96 $-1 #
coedge $-1 $253 $98 $250 $254 reversed $61 $-1 #
coedge $-1 $98 $253 $255 $256 reversed $61 $-1 #
coedge $-1 $172 $162 $98 $166 reversed $96 $-1 #
edge $-1 $257 -27.70908075813901 $258 27.70908075813901 $165 $259 forward 7 unknown #
coedge $-1 $100 $99 $260 $261 reversed $39 $-1 #
coedge $-1 $262 $263 $99 $169 forward $264 $-1 #
edge $-1 $265 -29.998224910961703 $174 -23.021469558627693 $168 $266 forward 7 unknown #
coedge $-1 $267 $251 $100 $171 forward $160 $-1 #
edge $-1 $173 23.021469558627693 $268 29.998224910961703 $170 $269 forward 7 unknown #
coedge $-1 $101 $165 $262 $270 reversed $96 $-1 #
vertex $-1 $171 $271 #
vertex $-1 $169 $272 #
straight-curve $-1 -49.531316793422391 0 5.6136885841336657 0 1 0 I I #
face $-1 $-1 $188 $23 $-1 $273 reversed single #
loop $-1 $-1 $274 $103 #
plane-surface $-1 0 0 10.188691656680131 0 0 1 1 0 0 forward_v I I I I #
coedge $-1 $275 $276 $277 $278 reversed $104 $-1 #
coedge $-1 $279 $106 $108 $186 forward $65 $-1 #
coedge $-1 $106 $279 $275 $280 forward $65 $-1 #
coedge $-1 $277 $109 $106 $183 forward $188 $-1 #
edge $-1 $190 9.2443787862789861 $281 28.700520948858312 $182 $282 forward 7 unknown #
coedge $-1 $283 $284 $107 $185 forward $177 $-1 #
edge $-1 $285 -34.767395173994743 $189 -30.060480146344645 $184 $286 forward 7 unknown #
edge $-1 $190 0 $285 7.4793621357644717 $108 $287 forward 7 unknown #
coedge $-1 $109 $277 $283 $288 reversed $188 $-1 #
loop $-1 $-1 $277 $176 #
vertex $-1 $288 $289 #
vertex $-1 $110 $290 #
straight-curve $-1 28.216828653847635 -27.70908075813901 37.749749241128079 0 0 -1 I I #
coedge $-1 $192 $192 $-1 $291 reversed $113 $-1 #
edge $-1 $292 0 $292 6.2831853071796004 $114 $293 forward 7 unknown #
vertex $-1 $117 $294 #
ellipse-curve $-1 37.944899735137298 -25.355623244313961 7.2824135866914315 0 -0.77714596973225614 0.62932038083071107 1 0 0 1 I I #
face $-1 $-1 $208 $25 $-1 $295 forward single #
loop $-1 $-1 $296 $118 #
plane-surface $-1 0 27.70908075813901 0 0 -1 0 0 0 -1 forward_v I I I I #
coedge $-1 $297 $298 $299 $300 reversed $119 $-1 #
coedge $-1 $301 $121 $123 $206 forward $74 $-1 #
coedge $-1 $121 $301 $297 $302 forward $74 $-1 #
coedge $-1 $299 $124 $121 $203 forward $208 $-1 #
edge $-1 $210 -30.668076473381582 $303 -2.3118358135174972 $202 $304 forward 7 unknown #
coedge $-1 $305 $306 $122 $205 forward $197 $-1 #
edge $-1 $307 -52.451102708237286 $209 -47.579502362671974 $204 $308 forward 7 unknown #
edge $-1 $210 49.471035666862775 $307 55.418161516278033 $123 $309 forward 7 unknown #
coedge $-1 $124 $299 $305 $310 forward $208 $-1 #
loop $-1 $-1 $299 $196 #
vertex $-1 $205 $311 #
vertex $-1 $125 $312 #
straight-curve $-1 -47.158032616831122 44.249968181783203 10.188691656680135 0 -1 0 I I #
coedge $-1 $212 $212 $-1 $313 reversed $128 $-1 #
edge $-1 $314 0 $314 6.2831853071796004 $129 $315 forward 7 unknown #
vertex $-1 $132 $316 #
ellipse-curve $-1 -39.056249571155668 26.003515167061444 7.7528914838974838 0 0.81915205242281985 0.57357642473473569 1 0 0 1 I I #
coedge $-1 $216 $216 $-1 $317 reversed $135 $-1 #
edge $-1 $318 0 $318 6.2831853071796004 $136 $319 forward 7 unknown #
vertex $-1 $139 $320 #
ellipse-curve $-1 -26.903575002642491 26.003515167061444 7.7528914838974838 0 0.81915205242281985 0.57357642473473569 1 0 0 1 I I #
face $-1 $-1 $155 $21 $-1 $321 reversed single #
loop $-1 $-1 $236 $140 #
plane-surface $-1 0 27.70908075813901 0 0 -1 0 0 0 -1 forward_v I I I I #
coedge $-1 $322 $234 $237 $323 forward $141 $-1 #
coedge $-1 $240 $143 $144 $228 reversed $88 $-1 #
coedge $-1 $234 $322 $143 $226 reversed $141 $-1 #
edge $-1 $241 -10.188691656680131 $324 10.188691656680131 $225 $325 forward 7 unknown #
coedge $-1 $145 $144 $322 $326 forward $57 $-1 #
edge $-1 $232 -56.508072145756401 $324 56.508072145756401 $224 $327 forward 7 unknown #
coedge $-1 $237 $236 $145 $230 reversed $221 $-1 #
edge $-1 $328 -56.508072145756401 $231 56.508072145756401 $229 $329 forward 7 unknown #
vertex $-1 $147 $330 #
vertex $-1 $243 $331 #
straight-curve $-1 56.508072145756401 0 -10.188691656680131 0 -1 0 I I #
coedge $-1 $223 $225 $148 $235 reversed $141 $-1 #
edge $-1 $238 -27.70908075813901 $241 27.70908075813901 $234 $332 forward 7 unknown #
coedge $-1 $229 $149 $154 $244 forward $221 $-1 #
coedge $-1 $149 $229 $223 $323 reversed $221 $-1 #
vertex $-1 $150 $333 #
straight-curve $-1 0 27.70908075813901 10.188691656680131 -1 0 0 I I #
coedge $-1 $151 $224 $153 $243 reversed $88 $-1 #
vertex $-1 $235 $334 #
straight-curve $-1 0 -27.70908075813901 10.188691656680131 1 0 0 I I #
edge $-1 $156 -10.188691656680131 $232 10.188691656680131 $153 $335 forward 7 unknown #
edge $-1 $157 -10.188691656680131 $231 10.188691656680131 $154 $336 forward 7 unknown #
point $-1 56.508072145756401 -27.70908075813901 10.188691656680131 #
point $-1 56.508072145756401 27.70908075813901 10.188691656680131 #
face $-1 $-1 $264 $22 $-1 $337 reversed single #
loop $-1 $-1 $338 $159 #
plane-surface $-1 -56.508072145756401 0 0 1 0 0 0 0 -1 forward_v I I I I #
coedge $-1 $251 $267 $163 $254 forward $160 $-1 #
coedge $-1 $170 $250 $162 $252 forward $160 $-1 #
edge $-1 $258 -0.18721688312742213 $173 3.8048646837982512 $251 $339 forward 7 unknown #
coedge $-1 $164 $163 $338 $340 reversed $61 $-1 #
edge $-1 $341 -29.998224910961703 $258 -23.021469558627693 $250 $342 forward 7 unknown #
coedge $-1 $263 $262 $164 $256 forward $264 $-1 #
edge $-1 $257 23.021469558627693 $343 29.998224910961703 $255 $344 forward 7 unknown #
vertex $-1 $256 $345 #
vertex $-1 $254 $346 #
straight-curve $-1 -49.531316793422391 0 1.6216070172079924 0 -1 0 I I #
coedge $-1 $347 $348 $167 $261 forward $248 $-1 #
edge $-1 $268 -27.70908075813901 $265 27.70908075813901 $260 $349 forward 7 unknown #
coedge $-1 $255 $168 $172 $270 forward $264 $-1 #
coedge $-1 $168 $255 $347 $350 reversed $264 $-1 #
loop $-1 $-1 $255 $247 #
vertex $-1 $350 $351 #
straight-curve $-1 -26.509847234794698 27.70908075813901 5.6136885841336657 1 0 0 I I #
coedge $-1 $250 $170 $348 $352 forward $160 $-1 #
vertex $-1 $352 $353 #
straight-curve $-1 -26.509847234794698 -27.70908075813901 5.6136885841336657 -1 0 0 I I #
edge $-1 $174 -3.8048646837982512 $257 0.18721688312742213 $262 $354 forward 7 unknown #
point $-1 -49.531316793422391 -27.70908075813901 5.6136885841336657 #
point $-1 -49.531316793422391 27.70908075813901 5.6136885841336657 #
plane-surface $-1 0 -27.70908075813901 0 0 1 0 0 0 1 forward_v I I I I #
coedge $-1 $284 $283 $276 $355 forward $177 $-1 #
coedge $-1 $276 $179 $181 $280 reversed $104 $-1 #
coedge $-1 $179 $275 $274 $355 reversed $104 $-1 #
coedge $-1 $187 $182 $179 $278 forward $188 $-1 #
edge $-1 $281 -33.373613724425347 $356 -27.561057584447948 $277 $357 forward 7 unknown #
coedge $-1 $181 $180 $284 $358 reversed $65 $-1 #
edge $-1 $359 -7.4793621357644717 $281 0 $275 $360 forward 7 unknown #
vertex $-1 $183 $361 #
straight-curve $-1 18.972449867568649 -27.70908075813901 4.37613551670273 1 0 0 I I #
coedge $-1 $274 $184 $187 $288 forward $177 $-1 #
coedge $-1 $184 $274 $279 $358 forward $177 $-1 #
vertex $-1 $185 $362 #
straight-curve $-1 28.216828653847635 -57.769560904483654 10.188691656680128 0 -1 0 I I #
straight-curve $-1 28.216828653847635 -27.70908075813901 4.3761355167027318 0 0.62932038083071107 0.77714596973225614 I I #
edge $-1 $189 28.216828653847635 $356 47.672970816426961 $187 $363 forward 7 unknown #
point $-1 28.216828653847635 -27.70908075813901 10.188691656680131 #
point $-1 28.216828653847635 -27.70908075813901 4.3761355167027318 #
edge $-1 $364 1 $364 0 $192 $-1 forward 7 unknown #
vertex $-1 $193 $365 #
ellipse-curve $-1 37.944899735137298 -24.267756447241325 6.4014764478644741 0 -0.77714596973225614 0.62932038083071107 1 0 0 1 I I #
point $-1 38.944899735137298 -25.355623244313964 7.282413586691435 #
plane-surface $-1 0 0 10.188691656680131 0 0 1 1 0 0 forward_v I I I I #
coedge $-1 $306 $305 $298 $366 forward $197 $-1 #
coedge $-1 $298 $199 $201 $302 reversed $119 $-1 #
coedge $-1 $199 $297 $296 $366 reversed $119 $-1 #
coedge $-1 $207 $202 $199 $300 forward $208 $-1 #
edge $-1 $303 -19.952018605799321 $367 -16.540887423644193 $299 $368 forward 7 unknown #
coedge $-1 $201 $200 $306 $369 reversed $74 $-1 #
edge $-1 $370 -55.418161516278033 $303 -49.471035666862775 $297 $371 forward 7 unknown #
vertex $-1 $203 $372 #
straight-curve $-1 -16.48995614344954 24.297949575983882 10.188691656680131 1 0 0 I I #
coedge $-1 $296 $204 $207 $310 reversed $197 $-1 #
coedge $-1 $204 $296 $301 $369 forward $197 $-1 #
vertex $-1 $205 $373 #
straight-curve $-1 -47.158032616831122 27.70908075813901 57.768194019352109 0 0 1 I I #
straight-curve $-1 -47.158032616831122 -4.0774701897398558 50.712992058673294 0 0.57357642473473569 -0.81915205242281985 I I #
edge $-1 $367 18.801791956967037 $209 47.158032616831122 $305 $374 forward 7 unknown #
point $-1 -47.158032616831122 27.70908075813901 10.188691656680131 #
point $-1 -47.158032616831122 24.297949575983882 10.188691656680135 #
edge $-1 $375 1 $375 0 $212 $-1 forward 7 unknown #
vertex $-1 $213 $376 #
ellipse-curve $-1 -39.056249571155668 24.189440986206868 6.482663105929527 0 0.81915205242281985 0.57357642473473569 1 0 0 1 I I #
point $-1 -38.056249571155668 26.003515167061444 7.7528914838974856 #
edge $-1 $377 1 $377 0 $216 $-1 forward 7 unknown #
vertex $-1 $217 $378 #
ellipse-curve $-1 -26.903575002642491 24.189440986206868 6.482663105929527 0 0.81915205242281985 0.57357642473473569 1 0 0 1 I I #
point $-1 -25.903575002642491 26.003515167061444 7.7528914838974856 #
plane-surface $-1 56.508072145756401 0 0 -1 0 0 0 0 1 forward_v I I I I #
coedge $-1 $225 $223 $227 $326 reversed $141 $-1 #
edge $-1 $238 -10.188691656680131 $328 10.188691656680131 $237 $379 forward 7 unknown #
vertex $-1 $326 $380 #
straight-curve $-1 -56.508072145756401 -27.70908075813901 0 0 0 -1 I I #
edge $-1 $324 -27.70908075813901 $328 27.70908075813901 $322 $381 forward 7 unknown #
straight-curve $-1 0 -27.70908075813901 -10.188691656680131 -1 0 0 I I #
vertex $-1 $230 $382 #
straight-curve $-1 0 27.70908075813901 -10.188691656680131 1 0 0 I I #
point $-1 56.508072145756401 27.70908075813901 -10.188691656680131 #
point $-1 56.508072145756401 -27.70908075813901 -10.188691656680131 #
straight-curve $-1 -56.508072145756401 0 10.188691656680131 0 -1 0 I I #
point $-1 -56.508072145756401 27.70908075813901 10.188691656680131 #
point $-1 -56.508072145756401 -27.70908075813901 10.188691656680131 #
straight-curve $-1 56.508072145756401 -27.70908075813901 0 0 0 -1 I I #
straight-curve $-1 56.508072145756401 27.70908075813901 0 0 0 -1 I I #
plane-surface $-1 0 27.70908075813901 0 0 -1 0 0 0 -1 forward_v I I I I #
coedge $-1 $348 $347 $253 $340 forward $248 $-1 #
straight-curve $-1 -49.531316793422391 -27.70908075813901 1.8088239003354145 0 0 1 I I #
edge $-1 $343 -27.70908075813901 $341 27.70908075813901 $338 $383 forward 7 unknown #
vertex $-1 $254 $384 #
straight-curve $-1 -26.509847234794698 -27.70908075813901 1.6216070172079924 1 0 0 I I #
vertex $-1 $256 $385 #
straight-curve $-1 -26.509847234794698 27.70908075813901 1.6216070172079924 -1 0 0 I I #
point $-1 -49.531316793422391 27.70908075813901 1.6216070172079924 #
point $-1 -49.531316793422391 -27.70908075813901 1.6216070172079924 #
coedge $-1 $338 $260 $263 $350 forward $248 $-1 #
coedge $-1 $260 $338 $267 $352 reversed $248 $-1 #
straight-curve $-1 -56.508072145756401 0 5.6136885841336657 0 1 0 I I #
edge $-1 $265 -5.6136885841336657 $343 -1.6216070172079924 $263 $386 forward 7 unknown #
point $-1 -56.508072145756401 27.70908075813901 5.6136885841336657 #
edge $-1 $268 -5.6136885841336657 $341 -1.6216070172079924 $348 $387 forward 7 unknown #
point $-1 -56.508072145756401 -27.70908075813901 5.6136885841336657 #
straight-curve $-1 -49.531316793422391 27.70908075813901 1.8088239003354145 0 0 -1 I I #
edge $-1 $356 30.060480146344645 $359 34.767395173994743 $274 $388 forward 7 unknown #
vertex $-1 $355 $389 #
straight-curve $-1 47.672970816426961 -27.70908075813901 37.749749241128079 0 0 1 I I #
edge $-1 $359 -28.700520948858312 $285 -9.2443787862789861 $284 $390 forward 7 unknown #
vertex $-1 $358 $391 #
straight-curve $-1 47.672970816426961 -27.70908075813901 4.3761355167027318 0 -0.62932038083071107 -0.77714596973225614 I I #
point $-1 47.672970816426961 -27.70908075813901 4.3761355167027318 #
point $-1 28.216828653847635 -23.002165730488912 10.188691656680131 #
straight-curve $-1 0 -27.70908075813901 10.188691656680131 1 0 0 I I #
vertex $-1 $291 $392 #
point $-1 38.944899735137298 -24.267756447241325 6.4014764478644741 #
edge $-1 $367 47.579502362671974 $370 52.451102708237286 $296 $393 forward 7 unknown #
vertex $-1 $310 $394 #
straight-curve $-1 -18.801791956967037 44.249968181783203 10.188691656680135 0 1 0 I I #
edge $-1 $370 2.3118358135174972 $307 30.668076473381582 $306 $395 forward 7 unknown #
vertex $-1 $369 $396 #
straight-curve $-1 -18.801791956967037 -4.0774701897398558 50.712992058673294 0 -0.57357642473473569 0.81915205242281985 I I #
point $-1 -18.801791956967037 24.297949575983882 10.188691656680135 #
point $-1 -47.158032616831122 27.70908075813901 5.3170913111148224 #
straight-curve $-1 0 27.70908075813901 10.188691656680131 -1 0 0 I I #
vertex $-1 $313 $397 #
point $-1 -38.056249571155668 24.189440986206868 6.482663105929527 #
vertex $-1 $317 $398 #
point $-1 -25.903575002642491 24.189440986206868 6.482663105929527 #
straight-curve $-1 -56.508072145756401 27.70908075813901 0 0 0 -1 I I #
point $-1 -56.508072145756401 -27.70908075813901 -10.188691656680131 #
straight-curve $-1 -56.508072145756401 0 -10.188691656680131 0 1 0 I I #
point $-1 -56.508072145756401 27.70908075813901 -10.188691656680131 #
straight-curve $-1 -56.508072145756401 0 1.6216070172079924 0 -1 0 I I #
point $-1 -56.508072145756401 -27.70908075813901 1.6216070172079924 #
point $-1 -56.508072145756401 27.70908075813901 1.6216070172079924 #
straight-curve $-1 -56.508072145756401 27.70908075813901 0 0 0 -1 I I #
straight-curve $-1 -56.508072145756401 -27.70908075813901 0 0 0 -1 I I #
straight-curve $-1 47.672970816426961 -57.769560904483654 10.188691656680128 0 1 0 I I #
point $-1 47.672970816426961 -27.70908075813901 10.188691656680131 #
straight-curve $-1 18.972449867568649 -23.002165730488912 10.188691656680131 -1 0 0 I I #
point $-1 47.672970816426961 -23.002165730488912 10.188691656680131 #
point $-1 37.944899735137298 -23.490610477509072 5.7721560670337633 #
straight-curve $-1 -18.801791956967037 27.70908075813901 57.768194019352109 0 0 -1 I I #
point $-1 -18.801791956967037 27.70908075813901 10.188691656680131 #
straight-curve $-1 -16.48995614344954 27.70908075813901 5.3170913111148224 -1 0 0 I I #
point $-1 -18.801791956967037 27.70908075813901 5.3170913111148224 #
point $-1 -39.056249571155668 23.370288933784046 5.9090866811947915 #
point $-1 -26.903575002642491 23.370288933784046 5.9090866811947915 #
End-of-ACIS-data 