500 0 6 0           
7 Unknown 11 ACIS 5.0 NT 24 Thu Mar 25 18:14:05 1999 
-1 9.9999999999999995e-007 1e-010 
body $-1 $6 $-1 $7 #
body $-1 $8 $-1 $9 #
body $-1 $10 $-1 $11 #
body $-1 $12 $-1 $13 #
body $-1 $14 $-1 $15 #
body $-1 $16 $-1 $17 #
lump $-1 $-1 $18 $0 #
transform $-1 1 0 0 0 1 0 0 0 1 64.478286080507829 44.870920799481304 15.772401855045189 1 rotate no_reflect no_shear #
lump $-1 $-1 $19 $1 #
transform $-1 1 0 0 0 1 0 0 0 1 64.478286080507829 44.870920799481304 15.772401855045189 1 rotate no_reflect no_shear #
lump $-1 $-1 $20 $2 #
transform $-1 1 0 0 0 1 0 0 0 1 64.478286080507829 44.870920799481304 15.772401855045189 1 rotate no_reflect no_shear #
lump $-1 $-1 $21 $3 #
transform $-1 1 0 0 0 1 0 0 0 1 64.478286080507829 44.870920799481304 15.772401855045189 1 rotate no_reflect no_shear #
lump $-1 $-1 $22 $4 #
transform $-1 1 0 0 0 1 0 0 0 1 64.478286080507829 44.870920799481304 15.772401855045189 1 rotate no_reflect no_shear #
lump $-1 $-1 $23 $5 #
transform $-1 1 0 0 0 1 0 0 0 1 64.478286080507829 44.870920799481304 15.772401855045189 1 rotate no_reflect no_shear #
shell $-1 $-1 $-1 $24 $-1 $6 #
shell $-1 $-1 $-1 $25 $-1 $8 #
shell $-1 $-1 $-1 $26 $-1 $10 #
shell $-1 $-1 $-1 $27 $-1 $12 #
shell $-1 $-1 $-1 $28 $-1 $14 #
shell $-1 $-1 $-1 $29 $-1 $16 #
face $-1 $30 $31 $18 $-1 $32 forward single #
face $-1 $33 $34 $19 $-1 $35 reversed single #
face $-1 $36 $37 $20 $-1 $38 reversed single #
face $-1 $39 $40 $21 $-1 $41 forward single #
face $-1 $42 $43 $22 $-1 $44 reversed single #
face $-1 $45 $46 $23 $-1 $47 forward single #
face $-1 $48 $49 $18 $-1 $50 reversed single #
loop $-1 $-1 $51 $24 #
plane-surface $-1 0 0 15.772401855045189 0 0 1 1 0 0 forward_v I I I I #
face $-1 $52 $53 $19 $-1 $54 reversed single #
loop $-1 $-1 $55 $25 #
plane-surface $-1 0 -38.471827233361012 7.4179915923865583 0 0 1 1 0 0 forward_v I I I I #
face $-1 $56 $57 $20 $-1 $58 reversed single #
loop $-1 $-1 $59 $26 #
plane-surface $-1 54.933668064017212 6.3990935661202926 191.27691629038611 0 -1 0 -0.66913061440640931 0 -0.74314481823134659 forward_v I I I I #
face $-1 $60 $61 $21 $-1 $62 forward single #
loop $-1 $63 $64 $27 #
cone-surface $-1 59.933995527637592 -2.9920265766269765 11.497938640171549 -0.66913061440640931 0 -0.74314481823134659 0.74314481823134659 0 -0.66913061440640931 1 I I 0 1 1 forward I I I I #
face $-1 $65 $66 $22 $-1 $67 reversed single #
loop $-1 $-1 $68 $28 #
plane-surface $-1 -31.355122297827648 35.479800656734035 95.443507912050606 0.66913061440640931 0 0.74314481823134659 0.74314481823134659 0 -0.66913061440640931 forward_v I I I I #
face $-1 $69 $70 $23 $-1 $71 forward single #
loop $-1 $72 $73 $29 #
cone-surface $-1 59.933995527637592 35.479800656734035 11.497938640171549 -0.66913061440640931 0 -0.74314481823134659 0.74314481823134659 0 -0.66913061440640931 1 I I 0 1 1 forward I I I I #
face $-1 $74 $75 $18 $-1 $76 reversed single #
loop $-1 $-1 $77 $30 #
plane-surface $-1 0 0 -15.772401855045189 0 0 1 1 0 0 forward_v I I I I #
coedge $-1 $78 $79 $80 $81 forward $31 $-1 #
face $-1 $82 $83 $19 $-1 $84 reversed single #
loop $-1 $-1 $85 $33 #
plane-surface $-1 0 -32.072733667240726 11.595196723715873 0 -1 0 0 0 -1 forward_v I I I I #
coedge $-1 $86 $87 $88 $89 reversed $34 $-1 #
face $-1 $90 $91 $20 $-1 $92 reversed single #
loop $-1 $-1 $93 $36 #
plane-surface $-1 -31.355122297827648 -2.9920265766269765 95.443507912050606 0.66913061440640931 0 0.74314481823134659 0.74314481823134659 0 -0.66913061440640931 forward_v I I I I #
coedge $-1 $94 $95 $96 $97 reversed $37 $-1 #
face $-1 $-1 $98 $21 $-1 $99 forward single #
loop $-1 $100 $101 $39 #
cone-surface $-1 58.729981091607385 -2.9920265766269765 10.160745168601977 -0.66913061440640931 0 -0.74314481823134659 0.3715724091156733 0 -0.33456530720320465 1 I I -0.70710678118654746 0.70710678118654746 0.5 forward I I I I #
loop $-1 $-1 $102 $27 #
coedge $-1 $64 $64 $103 $104 reversed $40 $-1 #
face $-1 $105 $106 $22 $-1 $107 reversed single #
loop $-1 $-1 $108 $42 #
plane-surface $-1 54.933668064017212 26.088680513986766 191.27691629038611 0 1 0 0.66913061440640931 0 0.74314481823134659 forward_v I I I I #
coedge $-1 $109 $110 $111 $112 reversed $43 $-1 #
face $-1 $-1 $113 $23 $-1 $114 forward single #
loop $-1 $115 $116 $45 #
cone-surface $-1 58.729981091607385 35.479800656734035 10.160745168601977 -0.66913061440640931 0 -0.74314481823134659 0.3715724091156733 0 -0.33456530720320465 1 I I -0.70710678118654746 0.70710678118654746 0.5 forward I I I I #
loop $-1 $-1 $117 $29 #
coedge $-1 $73 $73 $118 $119 reversed $46 $-1 #
face $-1 $120 $121 $18 $-1 $122 reversed single #
loop $-1 $-1 $123 $48 #
plane-surface $-1 0 -44.870920799481304 0 0 1 0 0 0 1 forward_v I I I I #
coedge $-1 $124 $125 $126 $127 forward $49 $-1 #
coedge $-1 $128 $51 $129 $130 forward $31 $-1 #
coedge $-1 $51 $128 $131 $132 forward $31 $-1 #
coedge $-1 $133 $134 $51 $81 reversed $135 $-1 #
edge $-1 $136 -44.870920799481304 $137 44.870920799481304 $80 $138 forward 7 unknown #
face $-1 $139 $140 $19 $-1 $141 reversed single #
loop $-1 $-1 $142 $52 #
plane-surface $-1 -64.478286080507829 0 0 1 0 0 0 0 -1 forward_v I I I I #
coedge $-1 $143 $144 $145 $146 reversed $53 $-1 #
coedge $-1 $147 $55 $148 $149 reversed $34 $-1 #
coedge $-1 $55 $147 $143 $150 forward $34 $-1 #
coedge $-1 $145 $151 $55 $89 forward $152 $-1 #
edge $-1 $153 -25.635007182800791 $154 -12.83682005056022 $88 $155 forward 7 unknown #
face $-1 $156 $157 $20 $-1 $158 reversed single #
loop $-1 $-1 $159 $56 #
plane-surface $-1 54.933668064017212 -12.383146719374245 191.27691629038611 0 1 0 0.66913061440640931 0 0.74314481823134659 forward_v I I I I #
coedge $-1 $160 $161 $162 $163 reversed $57 $-1 #
coedge $-1 $95 $59 $164 $165 reversed $37 $-1 #
coedge $-1 $59 $94 $160 $166 reversed $37 $-1 #
coedge $-1 $162 $167 $59 $97 forward $168 $-1 #
edge $-1 $169 -37.011452048499223 $170 -29.661769200412792 $96 $171 forward 7 unknown #
loop $-1 $-1 $103 $60 #
plane-surface $-1 -31.355122297827648 -2.9920265766269765 95.443507912050606 0.66913061440640931 0 0.74314481823134659 0.74314481823134659 0 -0.66913061440640931 forward_v I I I I #
loop $-1 $-1 $172 $39 #
coedge $-1 $101 $101 $102 $173 reversed $61 $-1 #
coedge $-1 $102 $102 $101 $173 forward $63 $-1 #
coedge $-1 $103 $103 $64 $104 forward $98 $-1 #
edge $-1 $174 0 $174 6.2831853071796004 $103 $175 forward 7 unknown #
face $-1 $176 $177 $22 $-1 $178 reversed single #
loop $-1 $-1 $179 $65 #
plane-surface $-1 64.478286080507829 0 0 -1 0 0 0 0 1 forward_v I I I I #
coedge $-1 $180 $181 $182 $183 reversed $66 $-1 #
coedge $-1 $184 $68 $185 $186 reversed $43 $-1 #
coedge $-1 $68 $184 $180 $187 forward $43 $-1 #
coedge $-1 $182 $188 $68 $112 forward $189 $-1 #
edge $-1 $190 -27.131020471114287 $191 -8.3487801856197486 $111 $192 forward 7 unknown #
loop $-1 $-1 $118 $69 #
plane-surface $-1 -31.355122297827648 35.479800656734035 95.443507912050606 0.66913061440640931 0 0.74314481823134659 0.74314481823134659 0 -0.66913061440640931 forward_v I I I I #
loop $-1 $-1 $193 $45 #
coedge $-1 $116 $116 $117 $194 reversed $70 $-1 #
coedge $-1 $117 $117 $116 $194 forward $72 $-1 #
coedge $-1 $118 $118 $73 $119 forward $113 $-1 #
edge $-1 $195 0 $195 6.2831853071796004 $118 $196 forward 7 unknown #
face $-1 $197 $198 $18 $-1 $199 reversed single #
loop $-1 $-1 $200 $74 #
plane-surface $-1 -64.478286080507829 0 0 1 0 0 0 0 -1 forward_v I I I I #
coedge $-1 $201 $131 $202 $203 forward $75 $-1 #
coedge $-1 $204 $77 $201 $205 forward $49 $-1 #
coedge $-1 $77 $204 $206 $207 forward $49 $-1 #
coedge $-1 $134 $133 $77 $127 reversed $135 $-1 #
edge $-1 $208 -44.870920799481304 $209 44.870920799481304 $126 $210 forward 7 unknown #
coedge $-1 $79 $78 $211 $212 forward $31 $-1 #
coedge $-1 $213 $214 $78 $130 reversed $198 $-1 #
edge $-1 $137 -64.478286080507829 $215 64.478286080507829 $129 $216 forward 7 unknown #
coedge $-1 $123 $217 $79 $132 reversed $75 $-1 #
edge $-1 $218 -64.478286080507829 $136 64.478286080507829 $131 $219 forward 7 unknown #
coedge $-1 $126 $80 $217 $220 forward $135 $-1 #
coedge $-1 $80 $126 $213 $221 reversed $135 $-1 #
loop $-1 $-1 $133 $197 #
vertex $-1 $81 $222 #
vertex $-1 $81 $223 #
straight-curve $-1 64.478286080507829 0 15.772401855045189 0 1 0 I I #
face $-1 $224 $225 $19 $-1 $226 forward single #
loop $-1 $-1 $148 $82 #
plane-surface $-1 0 -44.870920799481304 0 0 1 0 0 0 1 forward_v I I I I #
coedge $-1 $227 $228 $229 $230 forward $83 $-1 #
coedge $-1 $229 $85 $87 $150 reversed $53 $-1 #
coedge $-1 $85 $229 $231 $232 reversed $53 $-1 #
coedge $-1 $233 $88 $85 $146 forward $152 $-1 #
edge $-1 $154 1.6203932305286219 $234 9.9748034931872507 $145 $235 forward 7 unknown #
coedge $-1 $87 $86 $227 $236 reversed $34 $-1 #
coedge $-1 $237 $238 $86 $149 forward $140 $-1 #
edge $-1 $239 -64.478286080507829 $153 64.478286080507829 $148 $240 forward 7 unknown #
edge $-1 $241 -64.478286080507829 $154 64.478286080507829 $143 $242 forward 7 unknown #
coedge $-1 $88 $233 $237 $243 forward $152 $-1 #
loop $-1 $-1 $145 $224 #
vertex $-1 $149 $244 #
vertex $-1 $89 $245 #
straight-curve $-1 64.478286080507829 -19.235913616680506 7.4179915923865583 0 1 0 I I #
face $-1 $-1 $168 $20 $-1 $246 forward single #
loop $-1 $-1 $247 $90 #
plane-surface $-1 64.478286080507829 0 0 -1 0 0 0 0 1 forward_v I I I I #
coedge $-1 $248 $249 $250 $251 reversed $91 $-1 #
coedge $-1 $252 $93 $95 $166 forward $57 $-1 #
coedge $-1 $93 $252 $248 $253 forward $57 $-1 #
coedge $-1 $250 $96 $93 $163 forward $168 $-1 #
edge $-1 $170 -7.8951068544337808 $254 10.887133431060757 $162 $255 forward 7 unknown #
coedge $-1 $256 $257 $94 $165 forward $157 $-1 #
edge $-1 $258 -86.483740594987282 $169 -79.866056290147867 $164 $259 forward 7 unknown #
edge $-1 $170 119.06659827197151 $258 128.9565721610156 $95 $260 forward 7 unknown #
coedge $-1 $96 $250 $256 $261 forward $168 $-1 #
loop $-1 $-1 $250 $156 #
vertex $-1 $165 $262 #
vertex $-1 $97 $263 #
straight-curve $-1 27.466834032008606 6.3990935661202926 15.772401855045189 -1 0 0 I I #
coedge $-1 $172 $172 $-1 $264 reversed $100 $-1 #
edge $-1 $265 0 $265 6.2831853071796004 $101 $266 forward 7 unknown #
vertex $-1 $104 $267 #
ellipse-curve $-1 60.803444656464613 -2.9920265766269765 12.463559702625469 0.66913061440640931 0 0.74314481823134659 0.74314481823134659 0 -0.66913061440640931 1 I I #
face $-1 $-1 $189 $22 $-1 $268 forward single #
loop $-1 $-1 $185 $105 #
plane-surface $-1 0 44.870920799481304 0 0 -1 0 0 0 -1 forward_v I I I I #
coedge $-1 $269 $270 $181 $271 forward $106 $-1 #
coedge $-1 $181 $108 $110 $187 reversed $66 $-1 #
coedge $-1 $108 $180 $179 $271 reversed $66 $-1 #
coedge $-1 $272 $111 $108 $183 forward $189 $-1 #
edge $-1 $191 29.661769200412792 $273 37.011452048499223 $182 $274 forward 7 unknown #
coedge $-1 $110 $109 $269 $275 reversed $43 $-1 #
coedge $-1 $276 $277 $109 $186 forward $177 $-1 #
edge $-1 $278 -85.373787285548502 $190 -75.483813396504431 $185 $279 forward 7 unknown #
edge $-1 $280 -128.9565721610156 $191 -119.06659827197151 $180 $281 forward 7 unknown #
coedge $-1 $111 $272 $276 $282 forward $189 $-1 #
loop $-1 $-1 $182 $176 #
vertex $-1 $186 $283 #
vertex $-1 $112 $284 #
straight-curve $-1 57.128603232421412 17.739900328367018 15.772401855045182 0 -1 0 I I #
coedge $-1 $193 $193 $-1 $285 reversed $115 $-1 #
edge $-1 $286 0 $286 6.2831853071796004 $116 $287 forward 7 unknown #
vertex $-1 $119 $288 #
ellipse-curve $-1 60.803444656464613 35.479800656734035 12.463559702625469 0.66913061440640931 0 0.74314481823134659 0.74314481823134659 0 -0.66913061440640931 1 I I #
face $-1 $-1 $135 $18 $-1 $289 reversed single #
loop $-1 $-1 $213 $120 #
plane-surface $-1 0 44.870920799481304 0 0 -1 0 0 0 -1 forward_v I I I I #
coedge $-1 $290 $211 $214 $291 forward $121 $-1 #
coedge $-1 $217 $123 $124 $205 reversed $75 $-1 #
coedge $-1 $211 $290 $123 $203 reversed $121 $-1 #
edge $-1 $218 -15.772401855045189 $292 15.772401855045189 $202 $293 forward 7 unknown #
coedge $-1 $125 $124 $290 $294 forward $49 $-1 #
edge $-1 $209 -64.478286080507829 $292 64.478286080507829 $201 $295 forward 7 unknown #
coedge $-1 $214 $213 $125 $207 reversed $198 $-1 #
edge $-1 $296 -64.478286080507829 $208 64.478286080507829 $206 $297 forward 7 unknown #
vertex $-1 $127 $298 #
vertex $-1 $220 $299 #
straight-curve $-1 64.478286080507829 0 -15.772401855045189 0 -1 0 I I #
coedge $-1 $200 $202 $128 $212 reversed $121 $-1 #
edge $-1 $215 -44.870920799481304 $218 44.870920799481304 $211 $300 forward 7 unknown #
coedge $-1 $206 $129 $134 $221 forward $198 $-1 #
coedge $-1 $129 $206 $200 $291 reversed $198 $-1 #
vertex $-1 $130 $301 #
straight-curve $-1 0 44.870920799481304 15.772401855045189 -1 0 0 I I #
coedge $-1 $131 $201 $133 $220 reversed $75 $-1 #
vertex $-1 $212 $302 #
straight-curve $-1 0 -44.870920799481304 15.772401855045189 1 0 0 I I #
edge $-1 $136 -15.772401855045189 $209 15.772401855045189 $133 $303 forward 7 unknown #
edge $-1 $137 -15.772401855045189 $208 15.772401855045189 $134 $304 forward 7 unknown #
point $-1 64.478286080507829 -44.870920799481304 15.772401855045189 #
point $-1 64.478286080507829 44.870920799481304 15.772401855045189 #
face $-1 $-1 $152 $19 $-1 $305 reversed single #
loop $-1 $-1 $231 $139 #
plane-surface $-1 0 0 15.772401855045189 0 0 1 1 0 0 forward_v I I I I #
coedge $-1 $306 $142 $147 $236 forward $83 $-1 #
coedge $-1 $142 $306 $307 $308 reversed $83 $-1 #
coedge $-1 $144 $143 $142 $230 reversed $53 $-1 #
edge $-1 $309 -9.9748034931872507 $241 -1.6203932305286219 $142 $310 forward 7 unknown #
coedge $-1 $307 $311 $144 $232 forward $225 $-1 #
edge $-1 $234 -64.478286080507829 $309 64.478286080507829 $231 $312 forward 7 unknown #
coedge $-1 $151 $145 $311 $313 reversed $152 $-1 #
vertex $-1 $146 $314 #
straight-curve $-1 64.478286080507829 -32.072733667240726 5.7975983618579363 0 0 1 I I #
edge $-1 $241 12.83682005056022 $239 25.635007182800791 $227 $315 forward 7 unknown #
coedge $-1 $316 $148 $151 $243 reversed $140 $-1 #
coedge $-1 $148 $316 $306 $317 forward $140 $-1 #
vertex $-1 $149 $318 #
straight-curve $-1 0 -44.870920799481304 7.4179915923865583 1 0 0 I I #
vertex $-1 $236 $319 #
straight-curve $-1 0 -32.072733667240726 7.4179915923865583 1 0 0 I I #
edge $-1 $320 -15.772401855045189 $153 -7.4179915923865583 $151 $321 forward 7 unknown #
point $-1 64.478286080507829 -44.870920799481297 7.4179915923865583 #
point $-1 64.478286080507829 -32.072733667240726 7.4179915923865583 #
plane-surface $-1 0 0 15.772401855045189 0 0 1 1 0 0 forward_v I I I I #
coedge $-1 $257 $256 $249 $322 forward $157 $-1 #
coedge $-1 $249 $159 $161 $253 reversed $91 $-1 #
coedge $-1 $159 $248 $247 $322 reversed $91 $-1 #
coedge $-1 $167 $162 $159 $251 forward $168 $-1 #
edge $-1 $254 29.661769200412792 $323 37.011452048499223 $250 $324 forward 7 unknown #
coedge $-1 $161 $160 $257 $325 reversed $57 $-1 #
edge $-1 $326 -128.9565721610156 $254 -119.06659827197151 $248 $327 forward 7 unknown #
vertex $-1 $163 $328 #
straight-curve $-1 57.128603232421412 -1.4960132883134882 15.772401855045182 0 -1 0 I I #
coedge $-1 $247 $164 $167 $261 reversed $157 $-1 #
coedge $-1 $164 $247 $252 $325 forward $157 $-1 #
vertex $-1 $165 $329 #
straight-curve $-1 64.478286080507829 6.3990935661202926 95.638458145193056 0 0 1 I I #
straight-curve $-1 -31.355122297827648 6.3990935661202926 95.443507912050606 0.74314481823134659 0 -0.66913061440640931 I I #
edge $-1 $323 -12.383146719374245 $169 6.3990935661202926 $256 $330 forward 7 unknown #
point $-1 64.478286080507829 6.3990935661202926 15.772401855045189 #
point $-1 57.128603232421398 6.3990935661202926 15.772401855045189 #
edge $-1 $331 1 $331 0 $172 $-1 forward 7 unknown #
vertex $-1 $173 $332 #
ellipse-curve $-1 59.064546398810592 -2.9920265766269765 10.532317577717651 0.66913061440640931 0 0.74314481823134659 0.74314481823134659 0 -0.66913061440640931 1 I I #
point $-1 61.546589474695949 -2.9920265766269765 11.79442908821904 #
plane-surface $-1 0 0 15.772401855045189 0 0 1 1 0 0 forward_v I I I I #
coedge $-1 $333 $179 $184 $275 forward $106 $-1 #
coedge $-1 $179 $333 $272 $334 reversed $106 $-1 #
edge $-1 $273 79.866056290147867 $280 86.483740594987282 $179 $335 forward 7 unknown #
coedge $-1 $188 $182 $270 $334 forward $189 $-1 #
vertex $-1 $334 $336 #
straight-curve $-1 27.466834032008606 26.088680513986766 15.772401855045189 1 0 0 I I #
edge $-1 $280 8.3487801856197486 $278 27.131020471114287 $269 $337 forward 7 unknown #
coedge $-1 $277 $185 $188 $282 reversed $177 $-1 #
coedge $-1 $185 $276 $333 $338 forward $177 $-1 #
vertex $-1 $186 $339 #
straight-curve $-1 1.0331984464672246 44.870920799481304 66.28093229078695 -0.74314481823134659 0 0.66913061440640931 I I #
vertex $-1 $275 $340 #
straight-curve $-1 -31.355122297827648 26.088680513986766 95.443507912050606 -0.74314481823134659 0 0.66913061440640931 I I #
edge $-1 $341 -64.478286080507829 $190 -57.128603232421398 $276 $342 forward 7 unknown #
point $-1 57.128603232421398 44.870920799481304 15.772401855045189 #
point $-1 57.128603232421398 26.088680513986766 15.772401855045189 #
edge $-1 $343 1 $343 0 $193 $-1 forward 7 unknown #
vertex $-1 $194 $344 #
ellipse-curve $-1 59.064546398810592 35.479800656734035 10.532317577717651 0.66913061440640931 0 0.74314481823134659 0.74314481823134659 0 -0.66913061440640931 1 I I #
point $-1 61.546589474695949 35.479800656734035 11.79442908821904 #
plane-surface $-1 64.478286080507829 0 0 -1 0 0 0 0 1 forward_v I I I I #
coedge $-1 $202 $200 $204 $294 reversed $121 $-1 #
edge $-1 $215 -15.772401855045189 $296 15.772401855045189 $214 $345 forward 7 unknown #
vertex $-1 $294 $346 #
straight-curve $-1 -64.478286080507829 -44.870920799481304 0 0 0 -1 I I #
edge $-1 $292 -44.870920799481304 $296 44.870920799481304 $290 $347 forward 7 unknown #
straight-curve $-1 0 -44.870920799481304 -15.772401855045189 -1 0 0 I I #
vertex $-1 $207 $348 #
straight-curve $-1 0 44.870920799481304 -15.772401855045189 1 0 0 I I #
point $-1 64.478286080507829 44.870920799481304 -15.772401855045189 #
point $-1 64.478286080507829 -44.870920799481304 -15.772401855045189 #
straight-curve $-1 -64.478286080507829 0 15.772401855045189 0 -1 0 I I #
point $-1 -64.478286080507829 44.870920799481304 15.772401855045189 #
point $-1 -64.478286080507829 -44.870920799481304 15.772401855045189 #
straight-curve $-1 64.478286080507829 -44.870920799481304 0 0 0 -1 I I #
straight-curve $-1 64.478286080507829 44.870920799481304 0 0 0 -1 I I #
plane-surface $-1 64.478286080507829 0 0 -1 0 0 0 0 1 forward_v I I I I #
coedge $-1 $228 $227 $238 $317 reversed $83 $-1 #
coedge $-1 $349 $231 $228 $308 forward $225 $-1 #
edge $-1 $309 32.072733667240726 $350 44.870920799481304 $228 $351 forward 7 unknown #
vertex $-1 $308 $352 #
straight-curve $-1 -64.478286080507829 -32.072733667240726 5.7975983618579363 0 0 -1 I I #
coedge $-1 $231 $349 $233 $313 forward $225 $-1 #
straight-curve $-1 0 -32.072733667240726 15.772401855045189 -1 0 0 I I #
edge $-1 $320 -44.870920799481304 $234 -32.072733667240726 $233 $353 forward 7 unknown #
point $-1 64.478286080507829 -32.072733667240726 15.772401855045187 #
straight-curve $-1 -64.478286080507829 -19.235913616680506 7.4179915923865583 0 -1 0 I I #
coedge $-1 $238 $237 $349 $354 reversed $140 $-1 #
edge $-1 $350 -15.772401855045189 $239 -7.4179915923865583 $306 $355 forward 7 unknown #
point $-1 -64.478286080507829 -44.870920799481297 7.4179915923865583 #
point $-1 -64.478286080507829 -32.072733667240726 7.4179915923865583 #
vertex $-1 $313 $356 #
straight-curve $-1 64.478286080507829 -44.870920799481304 0 0 0 -1 I I #
edge $-1 $323 79.866056290147867 $326 86.483740594987282 $247 $357 forward 7 unknown #
vertex $-1 $261 $358 #
straight-curve $-1 27.466834032008606 -12.383146719374245 15.772401855045189 1 0 0 I I #
edge $-1 $326 -10.887133431060757 $258 7.8951068544337808 $257 $359 forward 7 unknown #
vertex $-1 $325 $360 #
straight-curve $-1 -31.355122297827648 -12.383146719374245 95.443507912050606 -0.74314481823134659 0 0.66913061440640931 I I #
point $-1 57.128603232421398 -12.383146719374245 15.772401855045189 #
point $-1 64.478286080507814 6.3990935661202926 9.154717550205774 #
straight-curve $-1 64.478286080507829 0 15.772401855045189 0 1 0 I I #
vertex $-1 $264 $361 #
point $-1 59.807691217041935 -2.9920265766269765 9.8631869633112412 #
coedge $-1 $270 $269 $277 $338 reversed $106 $-1 #
edge $-1 $273 26.088680513986766 $341 44.870920799481304 $270 $362 forward 7 unknown #
straight-curve $-1 64.478286080507829 26.088680513986766 95.638458145193056 0 0 -1 I I #
point $-1 64.478286080507829 26.088680513986766 15.772401855045189 #
straight-curve $-1 64.478286080507829 17.739900328367018 9.154717550205774 0 1 0 I I #
edge $-1 $341 -15.772401855045189 $278 -9.154717550205774 $333 $363 forward 7 unknown #
point $-1 64.478286080507814 44.870920799481304 9.154717550205774 #
point $-1 64.478286080507814 26.088680513986766 9.154717550205774 #
vertex $-1 $334 $364 #
straight-curve $-1 0 44.870920799481304 15.772401855045189 -1 0 0 I I #
vertex $-1 $285 $365 #
point $-1 59.807691217041935 35.479800656734035 9.8631869633112412 #
straight-curve $-1 -64.478286080507829 44.870920799481304 0 0 0 -1 I I #
point $-1 -64.478286080507829 -44.870920799481304 -15.772401855045189 #
straight-curve $-1 -64.478286080507829 0 -15.772401855045189 0 1 0 I I #
point $-1 -64.478286080507829 44.870920799481304 -15.772401855045189 #
coedge $-1 $311 $307 $316 $354 forward $225 $-1 #
vertex $-1 $308 $366 #
straight-curve $-1 -64.478286080507829 0 15.772401855045189 0 -1 0 I I #
point $-1 -64.478286080507829 -32.072733667240726 15.772401855045187 #
straight-curve $-1 64.478286080507829 0 15.772401855045189 0 1 0 I I #
edge $-1 $350 -64.478286080507829 $320 64.478286080507829 $316 $367 forward 7 unknown #
straight-curve $-1 -64.478286080507829 -44.870920799481304 0 0 0 -1 I I #
point $-1 64.478286080507829 -44.870920799481304 15.772401855045189 #
straight-curve $-1 64.478286080507829 -12.383146719374245 95.638458145193056 0 0 -1 I I #
point $-1 64.478286080507829 -12.383146719374245 15.772401855045189 #
straight-curve $-1 64.478286080507829 -1.4960132883134882 9.154717550205774 0 1 0 I I #
point $-1 64.478286080507814 -12.383146719374245 9.154717550205774 #
point $-1 58.395415784404179 -2.9920265766269765 9.7891727594863038 #
straight-curve $-1 64.478286080507829 0 15.772401855045189 0 1 0 I I #
straight-curve $-1 64.478286080507829 44.870920799481304 0 0 0 -1 I I #
point $-1 64.478286080507829 44.870920799481304 15.772401855045189 #
point $-1 58.395415784404179 35.479800656734035 9.7891727594863038 #
point $-1 -64.478286080507829 -44.870920799481304 15.772401855045189 #
straight-curve $-1 0 -44.870920799481304 15.772401855045189 1 0 0 I I #
End-of-ACIS-data 