500 0 9 0           
7 Unknown 11 ACIS 5.0 NT 24 Thu Mar 25 21:53:11 1999 
-1 9.9999999999999995e-007 1e-010 
body $-1 $9 $-1 $10 #
body $-1 $11 $-1 $12 #
body $-1 $13 $-1 $14 #
body $-1 $15 $-1 $16 #
body $-1 $17 $-1 $18 #
body $-1 $19 $-1 $20 #
body $-1 $21 $-1 $22 #
body $-1 $23 $-1 $24 #
body $-1 $25 $-1 $26 #
lump $-1 $-1 $27 $0 #
transform $-1 1 0 0 0 1 0 0 0 1 64.149906918546094 44.454454372327113 9.436277716644307 1 rotate no_reflect no_shear #
lump $-1 $-1 $28 $1 #
transform $-1 1 0 0 0 1 0 0 0 1 64.149906918546094 44.454454372327113 9.436277716644307 1 rotate no_reflect no_shear #
lump $-1 $-1 $29 $2 #
transform $-1 1 0 0 0 1 0 0 0 1 64.149906918546094 44.454454372327113 9.436277716644307 1 rotate no_reflect no_shear #
lump $-1 $-1 $30 $3 #
transform $-1 1 0 0 0 1 0 0 0 1 64.149906918546094 44.454454372327113 9.436277716644307 1 rotate no_reflect no_shear #
lump $-1 $-1 $31 $4 #
transform $-1 1 0 0 0 1 0 0 0 1 64.149906918546094 44.454454372327113 9.436277716644307 1 rotate no_reflect no_shear #
lump $-1 $-1 $32 $5 #
transform $-1 1 0 0 0 1 0 0 0 1 64.149906918546094 44.454454372327113 9.436277716644307 1 rotate no_reflect no_shear #
lump $-1 $-1 $33 $6 #
transform $-1 1 0 0 0 1 0 0 0 1 64.149906918546094 44.454454372327113 9.436277716644307 1 rotate no_reflect no_shear #
lump $-1 $-1 $34 $7 #
transform $-1 1 0 0 0 1 0 0 0 1 64.149906918546094 44.454454372327113 9.436277716644307 1 rotate no_reflect no_shear #
lump $-1 $-1 $35 $8 #
transform $-1 1 0 0 0 1 0 0 0 1 64.149906918546094 44.454454372327113 9.436277716644307 1 rotate no_reflect no_shear #
shell $-1 $-1 $-1 $36 $-1 $9 #
shell $-1 $-1 $-1 $37 $-1 $11 #
shell $-1 $-1 $-1 $38 $-1 $13 #
shell $-1 $-1 $-1 $39 $-1 $15 #
shell $-1 $-1 $-1 $40 $-1 $17 #
shell $-1 $-1 $-1 $41 $-1 $19 #
shell $-1 $-1 $-1 $42 $-1 $21 #
shell $-1 $-1 $-1 $43 $-1 $23 #
shell $-1 $-1 $-1 $44 $-1 $25 #
face $-1 $45 $46 $27 $-1 $47 forward single #
face $-1 $48 $49 $28 $-1 $50 forward single #
face $-1 $51 $52 $29 $-1 $53 reversed single #
face $-1 $54 $55 $30 $-1 $56 reversed single #
face $-1 $57 $58 $31 $-1 $59 forward single #
face $-1 $60 $61 $32 $-1 $62 forward single #
face $-1 $63 $64 $33 $-1 $65 reversed single #
face $-1 $66 $67 $34 $-1 $68 forward single #
face $-1 $69 $70 $35 $-1 $71 forward single #
face $-1 $72 $73 $27 $-1 $74 reversed single #
loop $-1 $-1 $75 $36 #
plane-surface $-1 0 0 9.436277716644307 0 0 1 1 0 0 forward_v I I I I #
face $-1 $76 $77 $28 $-1 $78 reversed single #
loop $-1 $-1 $79 $37 #
plane-surface $-1 -59.668114174364689 0 3.3573112429640108 0 0 1 1 0 0 forward_v I I I I #
face $-1 $80 $81 $29 $-1 $82 reversed single #
loop $-1 $-1 $83 $38 #
plane-surface $-1 60.819163235380913 0 3.8883212295947596 0 0 1 1 0 0 forward_v I I I I #
face $-1 $84 $85 $30 $-1 $86 reversed single #
loop $-1 $-1 $87 $39 #
plane-surface $-1 -40.977585095568529 -23.65372052588264 60.33694388577355 0 0.64278761758704617 0.76604443648966558 1 0 0 forward_v I I I I #
face $-1 $88 $89 $31 $-1 $90 forward single #
loop $-1 $91 $92 $40 #
cone-surface $-1 -47.06704352468914 39.57215994373523 4.9309147145012941 0 -0.64278761758704617 -0.76604443648966558 2 0 0 1 I I 0 1 2 forward I I I I #
face $-1 $93 $94 $32 $-1 $95 forward single #
loop $-1 $96 $97 $41 #
cone-surface $-1 -34.888126666447917 39.57215994373523 4.9309147145012941 0 -0.64278761758704617 -0.76604443648966558 2 0 0 1 I I 0 1 2 forward I I I I #
face $-1 $98 $99 $33 $-1 $100 reversed single #
loop $-1 $-1 $101 $42 #
plane-surface $-1 -40.977585095568529 -44.454454372327106 3.1873982515331392 0 -0.64278761758704617 0.76604443648966558 1 0 0 forward_v I I I I #
face $-1 $102 $103 $34 $-1 $104 forward single #
loop $-1 $105 $106 $43 #
cone-surface $-1 -47.06704352468914 -39.572159943735237 4.9309147145012995 0 0.64278761758704617 -0.76604443648966558 2 0 0 1 I I 0 1 2 forward I I I I #
face $-1 $107 $108 $35 $-1 $109 forward single #
loop $-1 $110 $111 $44 #
cone-surface $-1 -34.888126666447917 -39.572159943735237 4.9309147145012995 0 0.64278761758704617 -0.76604443648966558 2 0 0 1 I I 0 1 2 forward I I I I #
face $-1 $112 $113 $27 $-1 $114 reversed single #
loop $-1 $-1 $115 $45 #
plane-surface $-1 0 0 -9.436277716644307 0 0 1 1 0 0 forward_v I I I I #
coedge $-1 $116 $117 $118 $119 forward $46 $-1 #
face $-1 $120 $121 $28 $-1 $122 reversed single #
loop $-1 $-1 $123 $48 #
plane-surface $-1 -59.668114174364689 0 -0.780113664870969 0 0 1 1 0 0 forward_v I I I I #
coedge $-1 $124 $125 $126 $127 forward $49 $-1 #
face $-1 $128 $129 $29 $-1 $130 reversed single #
loop $-1 $-1 $131 $51 #
plane-surface $-1 57.488419552215731 0 6.6622994731195337 1 0 0 0 0 -1 forward_v I I I I #
coedge $-1 $132 $133 $134 $135 reversed $52 $-1 #
face $-1 $136 $137 $30 $-1 $138 forward single #
loop $-1 $-1 $139 $54 #
plane-surface $-1 -26.76884876095377 58.81581114732338 158.62030247833783 -1 0 0 0 0.64278761758704617 0.76604443648966558 forward_v I I I I #
coedge $-1 $140 $141 $142 $143 reversed $55 $-1 #
face $-1 $-1 $144 $31 $-1 $145 forward single #
loop $-1 $146 $147 $57 #
cone-surface $-1 -47.06704352468914 37.770640095683639 2.7839470084241906 0 -0.64278761758704617 -0.76604443648966558 1 0 0 1 I I -0.70710678118654746 0.70710678118654746 1 forward I I I I #
loop $-1 $-1 $148 $40 #
coedge $-1 $92 $92 $149 $150 reversed $58 $-1 #
face $-1 $-1 $151 $32 $-1 $152 forward single #
loop $-1 $153 $154 $60 #
cone-surface $-1 -34.888126666447917 37.770640095683639 2.7839470084241906 0 -0.64278761758704617 -0.76604443648966558 1 0 0 1 I I -0.70710678118654746 0.70710678118654746 1 forward I I I I #
loop $-1 $-1 $155 $41 #
coedge $-1 $97 $97 $156 $157 reversed $61 $-1 #
face $-1 $158 $159 $33 $-1 $160 forward single #
loop $-1 $-1 $161 $63 #
plane-surface $-1 -26.76884876095377 -126.92398604553313 101.47075684409742 -1 0 0 0 -0.64278761758704617 0.76604443648966558 forward_v I I I I #
coedge $-1 $162 $163 $164 $165 reversed $64 $-1 #
face $-1 $-1 $166 $34 $-1 $167 forward single #
loop $-1 $168 $169 $66 #
cone-surface $-1 -47.06704352468914 -37.770640095683646 2.783947008424196 0 0.64278761758704617 -0.76604443648966558 1 0 0 1 I I -0.70710678118654746 0.70710678118654746 1 forward I I I I #
loop $-1 $-1 $170 $43 #
coedge $-1 $106 $106 $171 $172 reversed $67 $-1 #
face $-1 $-1 $173 $35 $-1 $174 forward single #
loop $-1 $175 $176 $69 #
cone-surface $-1 -34.888126666447917 -37.770640095683646 2.783947008424196 0 0.64278761758704617 -0.76604443648966558 1 0 0 1 I I -0.70710678118654746 0.70710678118654746 1 forward I I I I #
loop $-1 $-1 $177 $44 #
coedge $-1 $111 $111 $178 $179 reversed $70 $-1 #
face $-1 $180 $181 $27 $-1 $182 reversed single #
loop $-1 $-1 $183 $72 #
plane-surface $-1 0 -44.454454372327113 0 0 1 0 0 0 1 forward_v I I I I #
coedge $-1 $184 $185 $186 $187 forward $73 $-1 #
coedge $-1 $188 $75 $189 $190 forward $46 $-1 #
coedge $-1 $75 $188 $191 $192 forward $46 $-1 #
coedge $-1 $193 $194 $75 $119 reversed $195 $-1 #
edge $-1 $196 -44.454454372327113 $197 44.454454372327113 $118 $198 forward 7 unknown #
face $-1 $199 $200 $28 $-1 $201 reversed single #
loop $-1 $-1 $202 $76 #
plane-surface $-1 -55.186321430183284 0 1.2885987890465209 -1 0 0 0 0 1 forward_v I I I I #
coedge $-1 $203 $204 $205 $206 forward $77 $-1 #
coedge $-1 $207 $79 $208 $209 reversed $49 $-1 #
coedge $-1 $79 $207 $210 $211 reversed $49 $-1 #
coedge $-1 $202 $212 $79 $127 reversed $121 $-1 #
edge $-1 $213 -44.454454372327113 $214 44.454454372327113 $126 $215 forward 7 unknown #
face $-1 $216 $217 $29 $-1 $218 reversed single #
loop $-1 $-1 $219 $80 #
plane-surface $-1 0 -44.454454372327113 0 0 1 0 0 0 1 forward_v I I I I #
coedge $-1 $220 $221 $222 $223 reversed $81 $-1 #
coedge $-1 $224 $83 $225 $226 reversed $52 $-1 #
coedge $-1 $83 $224 $227 $228 reversed $52 $-1 #
coedge $-1 $229 $230 $83 $135 forward $217 $-1 #
edge $-1 $231 -44.454454372327113 $232 44.454454372327113 $134 $233 forward 7 unknown #
face $-1 $234 $235 $30 $-1 $236 reversed single #
loop $-1 $-1 $237 $84 #
plane-surface $-1 0 0 9.436277716644307 0 0 1 1 0 0 forward_v I I I I #
coedge $-1 $238 $239 $240 $241 reversed $85 $-1 #
coedge $-1 $242 $87 $243 $244 forward $55 $-1 #
coedge $-1 $87 $242 $238 $245 forward $55 $-1 #
coedge $-1 $240 $237 $87 $143 forward $137 $-1 #
edge $-1 $246 -34.69752888239902 $247 -6.2800562131695052 $142 $248 forward 7 unknown #
loop $-1 $-1 $149 $88 #
plane-surface $-1 -40.977585095568529 -23.65372052588264 60.33694388577355 0 0.64278761758704617 0.76604443648966558 1 0 0 forward_v I I I I #
loop $-1 $-1 $249 $57 #
coedge $-1 $147 $147 $148 $250 reversed $89 $-1 #
coedge $-1 $148 $148 $147 $250 forward $91 $-1 #
coedge $-1 $149 $149 $92 $150 forward $144 $-1 #
edge $-1 $251 -1.2942613221076786e-015 $251 6.2831853071795996 $149 $252 forward 7 unknown #
loop $-1 $-1 $156 $93 #
plane-surface $-1 -40.977585095568529 -23.65372052588264 60.33694388577355 0 0.64278761758704617 0.76604443648966558 1 0 0 forward_v I I I I #
loop $-1 $-1 $253 $60 #
coedge $-1 $154 $154 $155 $254 reversed $94 $-1 #
coedge $-1 $155 $155 $154 $254 forward $96 $-1 #
coedge $-1 $156 $156 $97 $157 forward $151 $-1 #
edge $-1 $255 -1.2942613221076786e-015 $255 6.2831853071795996 $156 $256 forward 7 unknown #
face $-1 $257 $258 $33 $-1 $259 forward single #
loop $-1 $-1 $260 $98 #
plane-surface $-1 -55.186321430183284 0 1.2885987890465209 -1 0 0 0 0 1 forward_v I I I I #
coedge $-1 $261 $262 $263 $264 reversed $99 $-1 #
coedge $-1 $265 $101 $260 $266 reversed $64 $-1 #
coedge $-1 $101 $265 $261 $267 forward $64 $-1 #
coedge $-1 $263 $268 $101 $165 forward $269 $-1 #
edge $-1 $270 -34.69752888239902 $271 -6.2800562131695052 $164 $272 forward 7 unknown #
loop $-1 $-1 $171 $102 #
plane-surface $-1 -40.977585095568529 -44.454454372327106 3.1873982515331392 0 -0.64278761758704617 0.76604443648966558 1 0 0 forward_v I I I I #
loop $-1 $-1 $273 $66 #
coedge $-1 $169 $169 $170 $274 reversed $103 $-1 #
coedge $-1 $170 $170 $169 $274 forward $105 $-1 #
coedge $-1 $171 $171 $106 $172 forward $166 $-1 #
edge $-1 $275 8.3693789813226899e-016 $275 6.2831853071796013 $171 $276 forward 7 unknown #
loop $-1 $-1 $178 $107 #
plane-surface $-1 -40.977585095568529 -44.454454372327106 3.1873982515331392 0 -0.64278761758704617 0.76604443648966558 1 0 0 forward_v I I I I #
loop $-1 $-1 $277 $69 #
coedge $-1 $176 $176 $177 $278 reversed $108 $-1 #
coedge $-1 $177 $177 $176 $278 forward $110 $-1 #
coedge $-1 $178 $178 $111 $179 forward $173 $-1 #
edge $-1 $279 8.3693789813226899e-016 $279 6.2831853071796013 $178 $280 forward 7 unknown #
face $-1 $281 $282 $27 $-1 $283 reversed single #
loop $-1 $-1 $284 $112 #
plane-surface $-1 -64.149906918546094 0 0 1 0 0 0 0 -1 forward_v I I I I #
coedge $-1 $285 $191 $286 $287 forward $113 $-1 #
coedge $-1 $288 $115 $285 $289 forward $73 $-1 #
coedge $-1 $115 $288 $290 $291 forward $73 $-1 #
coedge $-1 $194 $193 $115 $187 reversed $195 $-1 #
edge $-1 $292 -44.454454372327113 $293 44.454454372327113 $186 $294 forward 7 unknown #
coedge $-1 $117 $116 $295 $296 forward $46 $-1 #
coedge $-1 $297 $298 $116 $190 reversed $282 $-1 #
edge $-1 $197 -64.149906918546094 $299 64.149906918546094 $189 $300 forward 7 unknown #
coedge $-1 $183 $301 $117 $192 reversed $113 $-1 #
edge $-1 $302 -64.149906918546094 $196 64.149906918546094 $191 $303 forward 7 unknown #
coedge $-1 $186 $118 $301 $304 forward $195 $-1 #
coedge $-1 $118 $186 $297 $305 reversed $195 $-1 #
loop $-1 $-1 $193 $281 #
vertex $-1 $119 $306 #
vertex $-1 $119 $307 #
straight-curve $-1 64.149906918546094 0 9.436277716644307 0 1 0 I I #
face $-1 $308 $309 $28 $-1 $310 reversed single #
loop $-1 $-1 $311 $120 #
plane-surface $-1 0 -44.454454372327113 0 0 1 0 0 0 1 forward_v I I I I #
coedge $-1 $205 $126 $312 $313 reversed $121 $-1 #
coedge $-1 $314 $123 $311 $315 reversed $77 $-1 #
coedge $-1 $123 $314 $316 $317 reversed $77 $-1 #
coedge $-1 $212 $202 $123 $206 reversed $121 $-1 #
edge $-1 $318 -44.454454372327113 $319 44.454454372327113 $205 $320 forward 7 unknown #
coedge $-1 $125 $124 $321 $322 reversed $49 $-1 #
coedge $-1 $323 $324 $124 $209 forward $325 $-1 #
edge $-1 $326 -34.315849831363749 $214 -25.35226434300094 $208 $327 forward 7 unknown #
coedge $-1 $328 $312 $125 $211 forward $200 $-1 #
edge $-1 $213 25.35226434300094 $329 34.315849831363749 $210 $330 forward 7 unknown #
coedge $-1 $126 $205 $323 $331 reversed $121 $-1 #
vertex $-1 $211 $332 #
vertex $-1 $209 $333 #
straight-curve $-1 -55.186321430183284 0 3.3573112429640108 0 1 0 I I #
face $-1 $334 $335 $29 $-1 $336 forward single #
loop $-1 $-1 $134 $128 #
plane-surface $-1 64.149906918546094 0 0 -1 0 0 0 0 1 forward_v I I I I #
coedge $-1 $225 $337 $338 $339 forward $129 $-1 #
coedge $-1 $338 $131 $224 $340 reversed $81 $-1 #
coedge $-1 $131 $338 $341 $342 reversed $81 $-1 #
coedge $-1 $343 $227 $131 $223 forward $344 $-1 #
edge $-1 $345 0.55717149303499269 $346 6.1051279800845419 $222 $347 forward 7 unknown #
coedge $-1 $133 $132 $220 $340 forward $52 $-1 #
coedge $-1 $348 $219 $132 $226 forward $129 $-1 #
edge $-1 $349 27.078837934525275 $231 33.740325300855638 $225 $350 forward 7 unknown #
coedge $-1 $222 $351 $133 $228 forward $344 $-1 #
edge $-1 $232 -33.740325300855638 $345 -27.078837934525275 $227 $352 forward 7 unknown #
coedge $-1 $353 $134 $351 $354 reversed $217 $-1 #
coedge $-1 $134 $353 $348 $355 forward $217 $-1 #
vertex $-1 $135 $356 #
vertex $-1 $135 $357 #
straight-curve $-1 64.149906918546094 0 3.8883212295947596 0 1 0 I I #
face $-1 $-1 $358 $30 $-1 $359 forward single #
loop $-1 $-1 $360 $136 #
plane-surface $-1 0 44.454454372327113 0 0 -1 0 0 0 -1 forward_v I I I I #
coedge $-1 $142 $361 $362 $363 forward $137 $-1 #
coedge $-1 $239 $139 $141 $245 reversed $85 $-1 #
coedge $-1 $139 $238 $364 $365 reversed $85 $-1 #
coedge $-1 $361 $142 $139 $241 forward $137 $-1 #
edge $-1 $247 7.5994244024107509 $366 15.046548798665423 $240 $367 forward 7 unknown #
coedge $-1 $141 $140 $368 $369 reversed $55 $-1 #
coedge $-1 $362 $370 $140 $244 reversed $358 $-1 #
edge $-1 $246 79.187378189089472 $371 88.908908744654241 $243 $372 forward 7 unknown #
edge $-1 $373 -88.908908744654241 $247 -79.187378189089472 $238 $374 forward 7 unknown #
vertex $-1 $363 $375 #
vertex $-1 $143 $376 #
straight-curve $-1 -20.488792547784264 37.007329976072441 9.4362777166443053 1 0 0 I I #
coedge $-1 $249 $249 $-1 $377 reversed $146 $-1 #
edge $-1 $378 0 $378 6.2831853071796004 $147 $379 forward 7 unknown #
vertex $-1 $150 $380 #
ellipse-curve $-1 -47.06704352468914 40.730892174199774 6.3118379840887364 0 0.64278761758704617 0.76604443648966558 2 0 0 1 I I #
coedge $-1 $253 $253 $-1 $381 reversed $153 $-1 #
edge $-1 $382 0 $382 6.2831853071796004 $154 $383 forward 7 unknown #
vertex $-1 $157 $384 #
ellipse-curve $-1 -34.888126666447917 40.730892174199774 6.3118379840887364 0 0.64278761758704617 0.76604443648966558 2 0 0 1 I I #
face $-1 $-1 $269 $33 $-1 $385 reversed single #
loop $-1 $-1 $386 $158 #
plane-surface $-1 0 0 9.436277716644307 0 0 1 1 0 0 forward_v I I I I #
coedge $-1 $387 $388 $162 $266 forward $159 $-1 #
coedge $-1 $262 $161 $163 $267 reversed $99 $-1 #
coedge $-1 $161 $261 $389 $390 reversed $99 $-1 #
coedge $-1 $391 $164 $161 $264 forward $269 $-1 #
edge $-1 $271 -47.547980170515579 $392 -41.299100705404406 $263 $393 forward 7 unknown #
coedge $-1 $163 $162 $394 $395 reversed $64 $-1 #
edge $-1 $396 6.6952507776039694 $270 16.416781333168775 $260 $397 forward 7 unknown #
edge $-1 $398 -9.7215305555647973 $271 9.1539886837149753e-015 $261 $399 forward 7 unknown #
coedge $-1 $164 $391 $387 $400 forward $269 $-1 #
loop $-1 $-1 $268 $257 #
vertex $-1 $165 $401 #
vertex $-1 $165 $402 #
straight-curve $-1 -20.488792547784264 -44.454454372327113 3.1873982515331307 1 0 0 I I #
coedge $-1 $273 $273 $-1 $403 reversed $168 $-1 #
edge $-1 $404 0 $404 6.2831853071796004 $169 $405 forward 7 unknown #
vertex $-1 $172 $406 #
ellipse-curve $-1 -47.06704352468914 -40.730892174199759 6.3118379840887178 0 -0.64278761758704617 0.76604443648966558 2 0 0 1 I I #
coedge $-1 $277 $277 $-1 $407 reversed $175 $-1 #
edge $-1 $408 0 $408 6.2831853071796004 $176 $409 forward 7 unknown #
vertex $-1 $179 $410 #
ellipse-curve $-1 -34.888126666447917 -40.730892174199759 6.3118379840887178 0 -0.64278761758704617 0.76604443648966558 2 0 0 1 I I #
face $-1 $-1 $195 $27 $-1 $411 reversed single #
loop $-1 $-1 $297 $180 #
plane-surface $-1 0 44.454454372327113 0 0 -1 0 0 0 -1 forward_v I I I I #
coedge $-1 $412 $295 $298 $413 forward $181 $-1 #
coedge $-1 $301 $183 $184 $289 reversed $113 $-1 #
coedge $-1 $295 $412 $183 $287 reversed $181 $-1 #
edge $-1 $302 -9.436277716644307 $414 9.436277716644307 $286 $415 forward 7 unknown #
coedge $-1 $185 $184 $412 $416 forward $73 $-1 #
edge $-1 $293 -64.149906918546094 $414 64.149906918546094 $285 $417 forward 7 unknown #
coedge $-1 $298 $297 $185 $291 reversed $282 $-1 #
edge $-1 $418 -64.149906918546094 $292 64.149906918546094 $290 $419 forward 7 unknown #
vertex $-1 $187 $420 #
vertex $-1 $304 $421 #
straight-curve $-1 64.149906918546094 0 -9.436277716644307 0 -1 0 I I #
coedge $-1 $284 $286 $188 $296 reversed $181 $-1 #
edge $-1 $299 -44.454454372327113 $302 44.454454372327113 $295 $422 forward 7 unknown #
coedge $-1 $290 $189 $194 $305 forward $282 $-1 #
coedge $-1 $189 $290 $284 $413 reversed $282 $-1 #
vertex $-1 $190 $423 #
straight-curve $-1 0 44.454454372327113 9.436277716644307 -1 0 0 I I #
coedge $-1 $191 $285 $193 $304 reversed $113 $-1 #
vertex $-1 $296 $424 #
straight-curve $-1 0 -44.454454372327113 9.436277716644307 1 0 0 I I #
edge $-1 $196 -9.436277716644307 $293 9.436277716644307 $193 $425 forward 7 unknown #
edge $-1 $197 -9.436277716644307 $292 9.436277716644307 $194 $426 forward 7 unknown #
point $-1 64.149906918546094 -44.454454372327113 9.436277716644307 #
point $-1 64.149906918546094 44.454454372327113 9.436277716644307 #
face $-1 $-1 $325 $28 $-1 $427 reversed single #
loop $-1 $-1 $428 $199 #
plane-surface $-1 -64.149906918546094 0 0 1 0 0 0 0 -1 forward_v I I I I #
coedge $-1 $312 $328 $203 $315 forward $200 $-1 #
coedge $-1 $210 $311 $202 $313 forward $200 $-1 #
edge $-1 $319 -1.4244130593942295 $213 2.7130118484407504 $312 $429 forward 7 unknown #
coedge $-1 $204 $203 $428 $430 reversed $77 $-1 #
edge $-1 $431 -34.315849831363749 $319 -25.35226434300094 $311 $432 forward 7 unknown #
coedge $-1 $324 $323 $204 $317 forward $325 $-1 #
edge $-1 $318 25.35226434300094 $433 34.315849831363749 $316 $434 forward 7 unknown #
vertex $-1 $317 $435 #
vertex $-1 $315 $436 #
straight-curve $-1 -55.186321430183284 0 -0.780113664870969 0 -1 0 I I #
coedge $-1 $437 $438 $207 $322 forward $309 $-1 #
edge $-1 $329 -44.454454372327113 $326 44.454454372327113 $321 $439 forward 7 unknown #
coedge $-1 $316 $208 $212 $331 forward $325 $-1 #
coedge $-1 $208 $316 $437 $440 reversed $325 $-1 #
loop $-1 $-1 $316 $308 #
vertex $-1 $440 $441 #
straight-curve $-1 -29.834057087182345 44.454454372327113 3.3573112429640108 1 0 0 I I #
coedge $-1 $311 $210 $438 $442 forward $200 $-1 #
vertex $-1 $442 $443 #
straight-curve $-1 -29.834057087182345 -44.454454372327113 3.3573112429640108 -1 0 0 I I #
edge $-1 $214 -2.7130118484407504 $318 1.4244130593942295 $323 $444 forward 7 unknown #
point $-1 -55.186321430183284 -44.454454372327113 3.3573112429640108 #
point $-1 -55.186321430183284 44.454454372327113 3.3573112429640108 #
face $-1 $-1 $344 $29 $-1 $445 reversed single #
loop $-1 $-1 $341 $216 #
plane-surface $-1 0 0 9.436277716644307 0 0 1 1 0 0 forward_v I I I I #
coedge $-1 $219 $348 $446 $447 reversed $129 $-1 #
coedge $-1 $221 $220 $219 $339 reversed $81 $-1 #
edge $-1 $448 -6.1051279800845419 $349 -0.55717149303499269 $219 $449 forward 7 unknown #
edge $-1 $349 -44.454454372327113 $345 44.454454372327113 $220 $450 forward 7 unknown #
coedge $-1 $446 $451 $221 $342 forward $335 $-1 #
edge $-1 $346 -44.454454372327113 $448 44.454454372327113 $341 $452 forward 7 unknown #
coedge $-1 $351 $222 $451 $453 reversed $344 $-1 #
loop $-1 $-1 $222 $334 #
vertex $-1 $228 $454 #
vertex $-1 $223 $455 #
straight-curve $-1 57.488419552215731 44.454454372327113 3.3311497365597669 0 0 1 I I #
coedge $-1 $337 $225 $230 $355 reversed $129 $-1 #
vertex $-1 $226 $456 #
straight-curve $-1 30.409581617690456 -44.454454372327113 3.8883212295947596 1 0 0 I I #
coedge $-1 $227 $343 $229 $354 forward $344 $-1 #
straight-curve $-1 30.409581617690456 44.454454372327113 3.8883212295947596 -1 0 0 I I #
coedge $-1 $230 $229 $457 $458 reversed $217 $-1 #
edge $-1 $459 -9.436277716644307 $232 -3.8883212295947596 $229 $460 forward 7 unknown #
edge $-1 $461 -9.436277716644307 $231 -3.8883212295947596 $230 $462 forward 7 unknown #
point $-1 64.149906918546094 -44.454454372327113 3.8883212295947596 #
point $-1 64.149906918546094 44.454454372327113 3.8883212295947596 #
loop $-1 $-1 $243 $234 #
plane-surface $-1 -55.186321430183284 0 1.2885987890465209 -1 0 0 0 0 1 forward_v I I I I #
coedge $-1 $463 $368 $370 $464 forward $235 $-1 #
coedge $-1 $237 $240 $463 $465 forward $137 $-1 #
coedge $-1 $370 $243 $237 $363 reversed $358 $-1 #
edge $-1 $466 -15.046548798665423 $246 -7.5994244024107509 $237 $467 forward 7 unknown #
coedge $-1 $368 $463 $239 $365 forward $235 $-1 #
edge $-1 $366 69.873873522524605 $373 76.122752987635764 $364 $468 forward 7 unknown #
vertex $-1 $465 $469 #
straight-curve $-1 -26.76884876095377 29.40790557366169 9.4362777166443124 0 1 0 I I #
coedge $-1 $360 $364 $242 $369 forward $235 $-1 #
edge $-1 $373 6.2800562131695052 $371 34.69752888239902 $368 $470 forward 7 unknown #
coedge $-1 $243 $362 $360 $464 reversed $358 $-1 #
vertex $-1 $464 $471 #
straight-curve $-1 -55.186321430183284 -23.65372052588264 60.33694388577355 0 0.76604443648966558 -0.64278761758704617 I I #
vertex $-1 $369 $472 #
straight-curve $-1 -26.76884876095377 -23.65372052588264 60.33694388577355 0 -0.76604443648966558 0.64278761758704617 I I #
point $-1 -55.186321430183284 37.007329976072441 9.4362777166443053 #
point $-1 -26.76884876095377 37.007329976072441 9.4362777166443053 #
edge $-1 $473 1 $473 0 $249 $-1 forward 7 unknown #
vertex $-1 $250 $474 #
ellipse-curve $-1 -47.06704352468914 38.413427713270686 3.5499914449138563 0 0.64278761758704617 0.76604443648966558 2 0 0 1 I I #
point $-1 -45.06704352468914 40.730892174199766 6.311837984088732 #
edge $-1 $475 1 $475 0 $253 $-1 forward 7 unknown #
vertex $-1 $254 $476 #
ellipse-curve $-1 -34.888126666447917 38.413427713270686 3.5499914449138563 0 0.64278761758704617 0.76604443648966558 2 0 0 1 I I #
point $-1 -32.888126666447917 40.730892174199766 6.311837984088732 #
plane-surface $-1 0 -44.454454372327113 0 0 1 0 0 0 1 forward_v I I I I #
coedge $-1 $477 $394 $388 $478 forward $258 $-1 #
coedge $-1 $388 $260 $268 $400 reversed $159 $-1 #
coedge $-1 $260 $387 $386 $478 reversed $159 $-1 #
coedge $-1 $394 $477 $262 $390 forward $258 $-1 #
edge $-1 $392 19.00753865043945 $398 26.454663046694158 $389 $479 forward 7 unknown #
coedge $-1 $268 $263 $477 $480 reversed $269 $-1 #
vertex $-1 $264 $481 #
straight-curve $-1 -26.76884876095377 -44.454454372327113 50.735378422048711 0 0 1 I I #
coedge $-1 $386 $389 $265 $395 forward $258 $-1 #
edge $-1 $398 6.2800562131695052 $396 34.69752888239902 $394 $482 forward 7 unknown #
vertex $-1 $478 $483 #
straight-curve $-1 -55.186321430183284 -31.878470366985777 13.73990201312818 0 -0.76604443648966558 -0.64278761758704617 I I #
vertex $-1 $395 $484 #
straight-curve $-1 -26.76884876095377 -44.454454372327106 3.1873982515331392 0 -0.76604443648966558 -0.64278761758704617 I I #
edge $-1 $485 41.299100705404406 $270 47.547980170515579 $268 $486 forward 7 unknown #
point $-1 -55.186321430183284 -44.454454372327113 3.1873982515331329 #
point $-1 -26.76884876095377 -44.454454372327113 3.1873982515331334 #
edge $-1 $487 1 $487 0 $273 $-1 forward 7 unknown #
vertex $-1 $274 $488 #
ellipse-curve $-1 -47.06704352468914 -38.413427713270693 3.5499914449138616 0 -0.64278761758704617 0.76604443648966558 2 0 0 1 I I #
point $-1 -45.06704352468914 -40.730892174199774 6.3118379840887373 #
edge $-1 $489 1 $489 0 $277 $-1 forward 7 unknown #
vertex $-1 $278 $490 #
ellipse-curve $-1 -34.888126666447917 -38.413427713270693 3.5499914449138616 0 -0.64278761758704617 0.76604443648966558 2 0 0 1 I I #
point $-1 -32.888126666447917 -40.730892174199774 6.3118379840887373 #
plane-surface $-1 64.149906918546094 0 0 -1 0 0 0 0 1 forward_v I I I I #
coedge $-1 $286 $284 $288 $416 reversed $181 $-1 #
edge $-1 $299 -9.436277716644307 $418 9.436277716644307 $298 $491 forward 7 unknown #
vertex $-1 $416 $492 #
straight-curve $-1 -64.149906918546094 -44.454454372327113 0 0 0 -1 I I #
edge $-1 $414 -44.454454372327113 $418 44.454454372327113 $412 $493 forward 7 unknown #
straight-curve $-1 0 -44.454454372327113 -9.436277716644307 -1 0 0 I I #
vertex $-1 $291 $494 #
straight-curve $-1 0 44.454454372327113 -9.436277716644307 1 0 0 I I #
point $-1 64.149906918546094 44.454454372327113 -9.436277716644307 #
point $-1 64.149906918546094 -44.454454372327113 -9.436277716644307 #
straight-curve $-1 -64.149906918546094 0 9.436277716644307 0 -1 0 I I #
point $-1 -64.149906918546094 44.454454372327113 9.436277716644307 #
point $-1 -64.149906918546094 -44.454454372327113 9.436277716644307 #
straight-curve $-1 64.149906918546094 -44.454454372327113 0 0 0 -1 I I #
straight-curve $-1 64.149906918546094 44.454454372327113 0 0 0 -1 I I #
plane-surface $-1 0 44.454454372327113 0 0 -1 0 0 0 -1 forward_v I I I I #
coedge $-1 $438 $437 $314 $430 forward $309 $-1 #
straight-curve $-1 -55.186321430183284 -44.454454372327113 0.64429939452326046 0 0 1 I I #
edge $-1 $433 -44.454454372327113 $431 44.454454372327113 $428 $495 forward 7 unknown #
vertex $-1 $315 $496 #
straight-curve $-1 -29.834057087182345 -44.454454372327113 -0.780113664870969 1 0 0 I I #
vertex $-1 $317 $497 #
straight-curve $-1 -29.834057087182345 44.454454372327113 -0.780113664870969 -1 0 0 I I #
point $-1 -55.186321430183284 44.454454372327113 -0.780113664870969 #
point $-1 -55.186321430183284 -44.454454372327113 -0.780113664870969 #
coedge $-1 $428 $321 $324 $440 forward $309 $-1 #
coedge $-1 $321 $428 $328 $442 reversed $309 $-1 #
straight-curve $-1 -64.149906918546094 0 3.3573112429640108 0 1 0 I I #
edge $-1 $326 -3.3573112429640108 $433 0.780113664870969 $324 $498 forward 7 unknown #
point $-1 -64.149906918546094 44.454454372327113 3.3573112429640108 #
edge $-1 $329 -3.3573112429640108 $431 0.780113664870969 $438 $499 forward 7 unknown #
point $-1 -64.149906918546094 -44.454454372327113 3.3573112429640108 #
straight-curve $-1 -55.186321430183284 44.454454372327113 0.64429939452326046 0 0 -1 I I #
plane-surface $-1 0 44.454454372327113 0 0 -1 0 0 0 -1 forward_v I I I I #
coedge $-1 $457 $341 $337 $447 forward $335 $-1 #
edge $-1 $448 57.488419552215731 $461 64.149906918546094 $337 $500 forward 7 unknown #
vertex $-1 $447 $501 #
straight-curve $-1 57.488419552215731 -44.454454372327113 3.3311497365597669 0 0 -1 I I #
straight-curve $-1 57.488419552215731 0 3.8883212295947596 0 1 0 I I #
coedge $-1 $341 $457 $343 $453 forward $335 $-1 #
straight-curve $-1 57.488419552215731 0 9.436277716644307 0 -1 0 I I #
edge $-1 $459 -64.149906918546094 $346 -57.488419552215731 $343 $502 forward 7 unknown #
point $-1 57.488419552215731 44.454454372327113 3.8883212295947596 #
point $-1 57.488419552215731 44.454454372327113 9.4362777166443088 #
point $-1 57.488419552215731 -44.454454372327113 3.8883212295947596 #
coedge $-1 $451 $446 $353 $458 forward $335 $-1 #
edge $-1 $461 -44.454454372327113 $459 44.454454372327113 $353 $503 forward 7 unknown #
vertex $-1 $458 $504 #
straight-curve $-1 64.149906918546094 44.454454372327113 0 0 0 -1 I I #
vertex $-1 $458 $505 #
straight-curve $-1 64.149906918546094 -44.454454372327113 0 0 0 -1 I I #
coedge $-1 $364 $360 $361 $465 reversed $235 $-1 #
edge $-1 $371 -76.122752987635764 $466 -69.873873522524605 $360 $506 forward 7 unknown #
edge $-1 $366 26.76884876095377 $466 55.186321430183284 $463 $507 forward 7 unknown #
vertex $-1 $464 $508 #
straight-curve $-1 -55.186321430183284 29.40790557366169 9.4362777166443124 0 -1 0 I I #
straight-curve $-1 -26.76884876095377 44.454454372327113 79.310151239168917 0 0 -1 I I #
point $-1 -26.76884876095377 44.454454372327113 9.436277716644307 #
straight-curve $-1 -20.488792547784264 44.454454372327106 3.1873982515331676 -1 0 0 I I #
point $-1 -55.186321430183284 44.454454372327113 3.1873982515331534 #
point $-1 -26.76884876095377 44.454454372327113 3.1873982515331534 #
vertex $-1 $377 $509 #
point $-1 -45.06704352468914 38.413427713270686 3.5499914449138563 #
vertex $-1 $381 $510 #
point $-1 -32.888126666447917 38.413427713270686 3.5499914449138563 #
coedge $-1 $389 $386 $391 $480 forward $258 $-1 #
edge $-1 $396 -26.454663046694158 $485 -19.00753865043945 $386 $511 forward 7 unknown #
straight-curve $-1 -26.76884876095377 -63.461993022766563 9.4362777166443053 0 1 0 I I #
edge $-1 $485 -55.186321430183284 $392 -26.76884876095377 $391 $512 forward 7 unknown #
point $-1 -26.76884876095377 -44.454454372327113 9.436277716644307 #
straight-curve $-1 -20.488792547784264 -37.007329976072405 9.436277716644307 -1 0 0 I I #
point $-1 -55.186321430183284 -37.007329976072405 9.436277716644307 #
point $-1 -26.76884876095377 -37.007329976072405 9.436277716644307 #
vertex $-1 $480 $513 #
straight-curve $-1 -55.186321430183284 -44.454454372327113 50.735378422048711 0 0 -1 I I #
vertex $-1 $403 $514 #
point $-1 -45.06704352468914 -38.413427713270693 3.5499914449138616 #
vertex $-1 $407 $515 #
point $-1 -32.888126666447917 -38.413427713270693 3.5499914449138616 #
straight-curve $-1 -64.149906918546094 44.454454372327113 0 0 0 -1 I I #
point $-1 -64.149906918546094 -44.454454372327113 -9.436277716644307 #
straight-curve $-1 -64.149906918546094 0 -9.436277716644307 0 1 0 I I #
point $-1 -64.149906918546094 44.454454372327113 -9.436277716644307 #
straight-curve $-1 -64.149906918546094 0 -0.780113664870969 0 -1 0 I I #
point $-1 -64.149906918546094 -44.454454372327113 -0.780113664870969 #
point $-1 -64.149906918546094 44.454454372327113 -0.780113664870969 #
straight-curve $-1 -64.149906918546094 44.454454372327113 0 0 0 -1 I I #
straight-curve $-1 -64.149906918546094 -44.454454372327113 0 0 0 -1 I I #
straight-curve $-1 0 -44.454454372327113 9.436277716644307 1 0 0 I I #
point $-1 57.488419552215731 -44.454454372327113 9.4362777166443088 #
straight-curve $-1 0 44.454454372327113 9.436277716644307 -1 0 0 I I #
straight-curve $-1 64.149906918546094 0 9.436277716644307 0 1 0 I I #
point $-1 64.149906918546094 44.454454372327113 9.436277716644307 #
point $-1 64.149906918546094 -44.454454372327113 9.436277716644307 #
straight-curve $-1 -55.186321430183284 44.454454372327113 79.310151239168917 0 0 1 I I #
straight-curve $-1 0 44.454454372327113 9.436277716644307 -1 0 0 I I #
point $-1 -55.186321430183284 44.454454372327113 9.436277716644307 #
point $-1 -47.06704352468914 37.127852478096592 2.0179025719345249 #
point $-1 -34.888126666447917 37.127852478096592 2.0179025719345249 #
straight-curve $-1 -55.186321430183284 -63.461993022766563 9.4362777166443053 0 -1 0 I I #
straight-curve $-1 0 -44.454454372327113 9.436277716644307 1 0 0 I I #
point $-1 -55.186321430183284 -44.454454372327113 9.436277716644307 #
point $-1 -47.06704352468914 -37.127852478096599 2.0179025719345303 #
point $-1 -34.888126666447917 -37.127852478096599 2.0179025719345303 #
End-of-ACIS-data 