500 0 4 0           
7 Unknown 11 ACIS 5.0 NT 24 Fri Mar 26 15:37:05 1999 
-1 9.9999999999999995e-007 1e-010 
body $-1 $4 $-1 $5 #
body $-1 $6 $-1 $7 #
body $-1 $8 $-1 $9 #
body $-1 $10 $-1 $11 #
lump $-1 $-1 $12 $0 #
transform $-1 1 0 0 0 1 0 0 0 1 57.813043610950039 29.699252311606184 9.2237446561803136 1 rotate no_reflect no_shear #
lump $-1 $-1 $13 $1 #
transform $-1 1 0 0 0 1 0 0 0 1 57.813043610950039 29.699252311606184 9.2237446561803136 1 rotate no_reflect no_shear #
lump $-1 $-1 $14 $2 #
transform $-1 1 0 0 0 1 0 0 0 1 57.813043610950039 29.699252311606184 9.2237446561803136 1 rotate no_reflect no_shear #
lump $-1 $-1 $15 $3 #
transform $-1 1 0 0 0 1 0 0 0 1 57.813043610950039 29.699252311606184 9.2237446561803136 1 rotate no_reflect no_shear #
shell $-1 $-1 $-1 $16 $-1 $4 #
shell $-1 $-1 $-1 $17 $-1 $6 #
shell $-1 $-1 $-1 $18 $-1 $8 #
shell $-1 $-1 $-1 $19 $-1 $10 #
face $-1 $20 $21 $12 $-1 $22 forward single #
face $-1 $23 $24 $13 $-1 $25 forward single #
face $-1 $26 $27 $14 $-1 $28 forward single #
face $-1 $29 $30 $15 $-1 $31 reversed single #
face $-1 $32 $33 $12 $-1 $34 reversed single #
loop $-1 $-1 $35 $16 #
plane-surface $-1 0 0 9.2237446561803136 0 0 1 1 0 0 forward_v I I I I #
face $-1 $36 $37 $13 $-1 $38 forward single #
loop $-1 $-1 $39 $17 #
plane-surface $-1 0 -26.283657469331303 6.2237446561803136 0 0 1 1 0 0 forward_v I I I I #
face $-1 $40 $41 $14 $-1 $42 forward single #
loop $-1 $-1 $43 $18 #
plane-surface $-1 -125.77635332854044 6.8553569687942577 93.835785677157972 0 1 0 -0.5877852598018023 0 0.80901698891910034 forward_v I I I I #
face $-1 $44 $45 $15 $-1 $46 reversed single #
loop $-1 $47 $48 $19 #
cone-surface $-1 -49.317150641013541 13.33606515938062 1.5244070578849227 0.5877852598018023 0 -0.80901698891910034 1.6180339778382007 0 1.1755705196036046 1 I I 0 1 2 forward I I I I #
face $-1 $49 $50 $12 $-1 $51 reversed single #
loop $-1 $-1 $52 $20 #
plane-surface $-1 0 0 -9.2237446561803136 0 0 1 1 0 0 forward_v I I I I #
coedge $-1 $53 $54 $55 $56 forward $21 $-1 #
face $-1 $57 $58 $13 $-1 $59 forward single #
loop $-1 $-1 $60 $23 #
plane-surface $-1 0 -22.868062627056421 7.7237446561803136 0 -1 0 0 0 -1 forward_v I I I I #
coedge $-1 $61 $62 $63 $64 reversed $24 $-1 #
face $-1 $65 $66 $14 $-1 $67 forward single #
loop $-1 $-1 $68 $26 #
plane-surface $-1 -57.813043610950047 13.33606515938062 0.2923167523991026 -0.5877852598018023 0 0.80901698891910034 0.80901698891910034 0 0.5877852598018023 forward_v I I I I #
coedge $-1 $69 $70 $71 $72 reversed $27 $-1 #
face $-1 $73 $74 $15 $-1 $75 forward single #
loop $-1 $76 $77 $29 #
cone-surface $-1 -46.380000236676622 13.33606515938062 -2.5182335774389646 0.5877852598018023 0 -0.80901698891910034 0.80901698891910034 0 0.5877852598018023 1 I I -0.70710678118654746 0.70710678118654746 1 forward I I I I #
loop $-1 $-1 $78 $19 #
coedge $-1 $48 $48 $79 $80 reversed $30 $-1 #
face $-1 $81 $82 $12 $-1 $83 reversed single #
loop $-1 $-1 $84 $32 #
plane-surface $-1 0 -29.699252311606184 0 0 1 0 0 0 1 forward_v I I I I #
coedge $-1 $85 $86 $87 $88 forward $33 $-1 #
coedge $-1 $89 $35 $90 $91 forward $21 $-1 #
coedge $-1 $35 $89 $92 $93 forward $21 $-1 #
coedge $-1 $94 $95 $35 $56 reversed $96 $-1 #
edge $-1 $97 -29.699252311606184 $98 29.699252311606184 $55 $99 forward 7 unknown #
face $-1 $100 $101 $13 $-1 $102 reversed single #
loop $-1 $-1 $103 $36 #
plane-surface $-1 0 0 9.2237446561803136 0 0 1 1 0 0 forward_v I I I I #
coedge $-1 $104 $105 $106 $107 reversed $37 $-1 #
coedge $-1 $108 $39 $105 $109 reversed $24 $-1 #
coedge $-1 $39 $108 $110 $111 reversed $24 $-1 #
coedge $-1 $112 $106 $39 $64 forward $101 $-1 #
edge $-1 $113 9.7262338923907699 $114 16.557423576940533 $63 $115 forward 7 unknown #
face $-1 $116 $117 $14 $-1 $118 forward single #
loop $-1 $-1 $119 $40 #
plane-surface $-1 -125.77635332854044 19.816773349966983 93.835785677157972 0 -1 0 0.5877852598018023 0 -0.80901698891910034 forward_v I I I I #
coedge $-1 $120 $121 $122 $123 reversed $41 $-1 #
coedge $-1 $70 $43 $121 $124 forward $27 $-1 #
coedge $-1 $43 $69 $125 $126 reversed $27 $-1 #
coedge $-1 $127 $122 $43 $72 forward $117 $-1 #
edge $-1 $128 -17.368188704122922 $129 -5.0751330533201795 $71 $130 forward 7 unknown #
face $-1 $131 $132 $15 $-1 $133 forward single #
loop $-1 $-1 $134 $44 #
plane-surface $-1 -125.77635332854044 6.8553569687942577 93.835785677157972 0 1 0 -0.5877852598018023 0 0.80901698891910034 forward_v I I I I #
loop $-1 $-1 $135 $29 #
coedge $-1 $77 $77 $78 $136 forward $45 $-1 #
coedge $-1 $78 $78 $77 $136 reversed $47 $-1 #
coedge $-1 $79 $79 $48 $80 forward $132 $-1 #
edge $-1 $137 0 $137 6.2831853071796004 $79 $138 forward 7 unknown #
face $-1 $139 $140 $12 $-1 $141 reversed single #
loop $-1 $-1 $142 $49 #
plane-surface $-1 -57.813043610950039 0 0 1 0 0 0 0 -1 forward_v I I I I #
coedge $-1 $143 $92 $144 $145 forward $50 $-1 #
coedge $-1 $146 $52 $143 $147 forward $33 $-1 #
coedge $-1 $52 $146 $148 $149 forward $33 $-1 #
coedge $-1 $95 $94 $52 $88 reversed $96 $-1 #
edge $-1 $150 -29.699252311606184 $151 29.699252311606184 $87 $152 forward 7 unknown #
coedge $-1 $54 $53 $153 $154 forward $21 $-1 #
coedge $-1 $155 $156 $53 $91 reversed $140 $-1 #
edge $-1 $98 -57.813043610950039 $157 57.813043610950039 $90 $158 forward 7 unknown #
coedge $-1 $84 $159 $54 $93 reversed $50 $-1 #
edge $-1 $160 -57.813043610950039 $97 57.813043610950039 $92 $161 forward 7 unknown #
coedge $-1 $87 $55 $159 $162 forward $96 $-1 #
coedge $-1 $55 $87 $155 $163 reversed $96 $-1 #
loop $-1 $-1 $94 $139 #
vertex $-1 $56 $164 #
vertex $-1 $56 $165 #
straight-curve $-1 57.813043610950039 0 9.2237446561803136 0 1 0 I I #
face $-1 $166 $167 $13 $-1 $168 reversed single #
loop $-1 $-1 $106 $57 #
plane-surface $-1 57.813043610950039 0 0 -1 0 0 0 0 1 forward_v I I I I #
coedge $-1 $169 $170 $104 $171 forward $58 $-1 #
coedge $-1 $172 $60 $103 $171 reversed $37 $-1 #
coedge $-1 $60 $172 $61 $109 forward $37 $-1 #
coedge $-1 $63 $173 $60 $107 forward $101 $-1 #
edge $-1 $174 -5.3618723280901568 $113 -2.3618723280901568 $106 $175 forward 7 unknown #
coedge $-1 $62 $61 $176 $177 reversed $24 $-1 #
edge $-1 $178 -57.813043610950039 $113 57.813043610950039 $105 $179 forward 7 unknown #
coedge $-1 $180 $181 $62 $111 forward $182 $-1 #
edge $-1 $114 -57.813043610950039 $183 57.813043610950039 $110 $184 forward 7 unknown #
coedge $-1 $185 $63 $181 $186 forward $101 $-1 #
vertex $-1 $64 $187 #
vertex $-1 $186 $188 #
straight-curve $-1 57.813043610950039 -13.141828734665651 6.2237446561803136 0 -1 0 I I #
face $-1 $189 $190 $14 $-1 $191 forward single #
loop $-1 $-1 $192 $65 #
plane-surface $-1 0 0 9.2237446561803136 0 0 1 1 0 0 forward_v I I I I #
coedge $-1 $193 $194 $192 $195 reversed $66 $-1 #
coedge $-1 $196 $68 $194 $197 reversed $41 $-1 #
coedge $-1 $68 $196 $69 $124 reversed $41 $-1 #
coedge $-1 $71 $192 $68 $123 forward $117 $-1 #
edge $-1 $198 -13.148740770276673 $128 -0.18732438910394755 $122 $199 forward 7 unknown #
edge $-1 $128 -15.195052538052478 $200 -8.7828746355274299e-015 $69 $201 forward 7 unknown #
coedge $-1 $202 $203 $70 $126 forward $204 $-1 #
edge $-1 $129 37.694148182398671 $200 46.625576086179876 $125 $205 forward 7 unknown #
coedge $-1 $206 $71 $203 $207 forward $117 $-1 #
vertex $-1 $123 $208 #
vertex $-1 $207 $209 #
straight-curve $-1 -62.888176664270219 6.8553569687942577 9.2237446561803154 -1 0 0 I I #
face $-1 $210 $211 $15 $-1 $212 forward single #
loop $-1 $213 $79 $73 #
plane-surface $-1 -57.813043610950047 13.33606515938062 0.2923167523991026 -0.5877852598018023 0 0.80901698891910034 0.80901698891910034 0 0.5877852598018023 forward_v I I I I #
coedge $-1 $214 $215 $216 $217 reversed $74 $-1 #
coedge $-1 $135 $135 $-1 $218 forward $76 $-1 #
edge $-1 $219 0 $219 6.2831853071796004 $77 $220 forward 7 unknown #
vertex $-1 $80 $221 #
ellipse-curve $-1 -51.666515785548661 13.33606515938062 4.7580307042897143 0.5877852598018023 0 -0.80901698891910034 1.6180339778382007 0 1.1755705196036046 1 I I #
face $-1 $-1 $96 $12 $-1 $222 reversed single #
loop $-1 $-1 $155 $81 #
plane-surface $-1 0 29.699252311606184 0 0 -1 0 0 0 -1 forward_v I I I I #
coedge $-1 $223 $153 $156 $224 forward $82 $-1 #
coedge $-1 $159 $84 $85 $147 reversed $50 $-1 #
coedge $-1 $153 $223 $84 $145 reversed $82 $-1 #
edge $-1 $160 -9.2237446561803136 $225 9.2237446561803136 $144 $226 forward 7 unknown #
coedge $-1 $86 $85 $223 $227 forward $33 $-1 #
edge $-1 $151 -57.813043610950039 $225 57.813043610950039 $143 $228 forward 7 unknown #
coedge $-1 $156 $155 $86 $149 reversed $140 $-1 #
edge $-1 $229 -57.813043610950039 $150 57.813043610950039 $148 $230 forward 7 unknown #
vertex $-1 $88 $231 #
vertex $-1 $162 $232 #
straight-curve $-1 57.813043610950039 0 -9.2237446561803136 0 -1 0 I I #
coedge $-1 $142 $144 $89 $154 reversed $82 $-1 #
edge $-1 $157 -29.699252311606184 $160 29.699252311606184 $153 $233 forward 7 unknown #
coedge $-1 $148 $90 $95 $163 forward $140 $-1 #
coedge $-1 $90 $148 $142 $224 reversed $140 $-1 #
vertex $-1 $91 $234 #
straight-curve $-1 0 29.699252311606184 9.2237446561803136 -1 0 0 I I #
coedge $-1 $92 $143 $94 $162 reversed $50 $-1 #
vertex $-1 $154 $235 #
straight-curve $-1 0 -29.699252311606184 9.2237446561803136 1 0 0 I I #
edge $-1 $97 -9.2237446561803136 $151 9.2237446561803136 $94 $236 forward 7 unknown #
edge $-1 $98 -9.2237446561803136 $150 9.2237446561803136 $95 $237 forward 7 unknown #
point $-1 57.813043610950039 -29.699252311606184 9.2237446561803136 #
point $-1 57.813043610950039 29.699252311606184 9.2237446561803136 #
face $-1 $238 $182 $13 $-1 $239 reversed single #
loop $-1 $-1 $240 $100 #
plane-surface $-1 0 0 -9.2237446561803136 0 0 1 1 0 0 forward_v I I I I #
coedge $-1 $241 $103 $173 $242 forward $58 $-1 #
coedge $-1 $103 $241 $243 $244 forward $58 $-1 #
edge $-1 $245 -57.813043610950039 $174 57.813043610950039 $103 $246 forward 7 unknown #
coedge $-1 $105 $104 $247 $248 reversed $37 $-1 #
coedge $-1 $106 $249 $169 $242 reversed $101 $-1 #
vertex $-1 $242 $250 #
straight-curve $-1 57.813043610950039 -22.868062627056421 3.8618723280901568 0 0 -1 I I #
coedge $-1 $247 $251 $108 $177 forward $252 $-1 #
edge $-1 $183 -16.557423576940533 $178 -9.7262338923907699 $176 $253 forward 7 unknown #
vertex $-1 $177 $254 #
straight-curve $-1 0 -22.868062627056421 6.2237446561803136 1 0 0 I I #
coedge $-1 $255 $110 $251 $256 forward $182 $-1 #
coedge $-1 $110 $255 $112 $186 reversed $182 $-1 #
loop $-1 $-1 $110 $166 #
vertex $-1 $256 $257 #
straight-curve $-1 0 -29.699252311606184 6.2237446561803136 -1 0 0 I I #
coedge $-1 $249 $112 $240 $258 reversed $101 $-1 #
edge $-1 $114 -6.2237446561803136 $259 9.2237446561803136 $112 $260 forward 7 unknown #
point $-1 57.813043610950039 -22.868062627056421 6.2237446561803136 #
point $-1 57.813043610950039 -29.699252311606184 6.2237446561803136 #
face $-1 $261 $262 $14 $-1 $263 forward single #
loop $-1 $-1 $264 $116 #
plane-surface $-1 0 -26.283657469331303 6.2237446561803136 0 0 1 1 0 0 forward_v I I I I #
coedge $-1 $122 $265 $119 $195 forward $117 $-1 #
coedge $-1 $194 $119 $266 $267 reversed $66 $-1 #
coedge $-1 $119 $193 $120 $197 forward $66 $-1 #
edge $-1 $268 5.0751330533201795 $198 17.368188704122922 $192 $269 forward 7 unknown #
coedge $-1 $121 $120 $202 $270 reversed $41 $-1 #
edge $-1 $271 8.7828746355274299e-015 $198 15.195052538052478 $194 $272 forward 7 unknown #
vertex $-1 $123 $273 #
straight-curve $-1 -45.51998796014729 6.6680325796903102 9.2237446561803136 0 -1 0 I I #
vertex $-1 $270 $274 #
straight-curve $-1 -57.813043610950047 6.8553569687942577 0.2923167523991026 -0.80901698891910034 0 -0.5877852598018023 I I #
coedge $-1 $266 $125 $196 $270 forward $204 $-1 #
coedge $-1 $125 $275 $127 $207 reversed $204 $-1 #
loop $-1 $-1 $266 $276 #
straight-curve $-1 -57.813043610950039 6.8553569687942577 46.917892838578986 0 0 -1 I I #
coedge $-1 $277 $127 $278 $279 forward $117 $-1 #
edge $-1 $129 -6.8553569687942577 $280 22.868062627056421 $203 $281 forward 7 unknown #
point $-1 -45.519987960147297 6.8553569687942577 9.2237446561803136 #
point $-1 -57.813043610950039 6.8553569687942577 9.2237446561803136 #
face $-1 $282 $283 $15 $-1 $284 forward single #
loop $-1 $-1 $285 $131 #
plane-surface $-1 -125.77635332854044 19.816773349966983 93.835785677157972 0 -1 0 0.5877852598018023 0 -0.80901698891910034 forward_v I I I I #
loop $-1 $-1 $286 $73 #
coedge $-1 $215 $134 $287 $288 forward $74 $-1 #
coedge $-1 $134 $214 $289 $290 reversed $74 $-1 #
coedge $-1 $291 $292 $134 $217 forward $283 $-1 #
edge $-1 $293 -17.368188704122922 $294 -5.0751330533201795 $216 $295 forward 7 unknown #
edge $-1 $296 1 $296 0 $135 $-1 forward 7 unknown #
vertex $-1 $136 $297 #
ellipse-curve $-1 -46.967785496478427 13.33606515938062 -1.7092165885198642 -0.5877852598018023 0 0.80901698891910034 1.6180339778382007 0 1.1755705196036046 1 I I #
point $-1 -50.048481807710459 13.33606515938062 5.933601223893314 #
plane-surface $-1 57.813043610950039 0 0 -1 0 0 0 0 1 forward_v I I I I #
coedge $-1 $144 $142 $146 $227 reversed $82 $-1 #
edge $-1 $157 -9.2237446561803136 $229 9.2237446561803136 $156 $298 forward 7 unknown #
vertex $-1 $227 $299 #
straight-curve $-1 -57.813043610950039 -29.699252311606184 0 0 0 -1 I I #
edge $-1 $225 -29.699252311606184 $229 29.699252311606184 $223 $300 forward 7 unknown #
straight-curve $-1 0 -29.699252311606184 -9.2237446561803136 -1 0 0 I I #
vertex $-1 $149 $301 #
straight-curve $-1 0 29.699252311606184 -9.2237446561803136 1 0 0 I I #
point $-1 57.813043610950039 29.699252311606184 -9.2237446561803136 #
point $-1 57.813043610950039 -29.699252311606184 -9.2237446561803136 #
straight-curve $-1 -57.813043610950039 0 9.2237446561803136 0 -1 0 I I #
point $-1 -57.813043610950039 29.699252311606184 9.2237446561803136 #
point $-1 -57.813043610950039 -29.699252311606184 9.2237446561803136 #
straight-curve $-1 57.813043610950039 -29.699252311606184 0 0 0 -1 I I #
straight-curve $-1 57.813043610950039 29.699252311606184 0 0 0 -1 I I #
face $-1 $302 $252 $13 $-1 $303 reversed single #
plane-surface $-1 0 -29.699252311606184 0 0 1 0 0 0 1 forward_v I I I I #
coedge $-1 $304 $305 $185 $258 forward $167 $-1 #
coedge $-1 $170 $169 $306 $307 forward $58 $-1 #
edge $-1 $174 -22.868062627056421 $308 29.699252311606184 $173 $309 forward 7 unknown #
coedge $-1 $310 $247 $170 $244 reversed $252 $-1 #
edge $-1 $311 -29.699252311606184 $245 22.868062627056421 $243 $312 forward 7 unknown #
vertex $-1 $248 $313 #
straight-curve $-1 0 -22.868062627056421 9.2237446561803136 1 0 0 I I #
coedge $-1 $243 $176 $172 $248 forward $252 $-1 #
edge $-1 $178 2.3618723280901568 $245 5.3618723280901568 $247 $314 forward 7 unknown #
coedge $-1 $173 $185 $315 $316 reversed $101 $-1 #
point $-1 57.813043610950039 -22.868062627056421 9.2237446561803136 #
coedge $-1 $176 $317 $180 $256 reversed $252 $-1 #
loop $-1 $-1 $247 $238 #
straight-curve $-1 -57.813043610950039 -13.141828734665651 6.2237446561803136 0 1 0 I I #
point $-1 -57.813043610950039 -22.868062627056421 6.2237446561803136 #
coedge $-1 $181 $180 $304 $318 reversed $182 $-1 #
edge $-1 $183 -6.2237446561803136 $319 9.2237446561803136 $251 $320 forward 7 unknown #
point $-1 -57.813043610950039 -29.699252311606184 6.2237446561803136 #
edge $-1 $321 -29.699252311606184 $259 29.699252311606184 $185 $322 forward 7 unknown #
vertex $-1 $186 $323 #
straight-curve $-1 57.813043610950039 -29.699252311606184 0 0 0 -1 I I #
face $-1 $324 $325 $14 $-1 $326 reversed single #
loop $-1 $-1 $327 $189 #
plane-surface $-1 0 -22.868062627056421 7.7237446561803136 0 -1 0 0 0 -1 forward_v I I I I #
coedge $-1 $328 $329 $330 $331 reversed $190 $-1 #
coedge $-1 $192 $332 $333 $334 forward $117 $-1 #
coedge $-1 $333 $202 $193 $267 forward $204 $-1 #
edge $-1 $271 -46.625576086179876 $268 -37.694148182398671 $266 $335 forward 7 unknown #
vertex $-1 $267 $336 #
straight-curve $-1 -62.888176664270219 19.816773349966983 9.2237446561803154 1 0 0 I I #
edge $-1 $200 0.18732438910394755 $271 13.148740770276673 $202 $337 forward 7 unknown #
vertex $-1 $270 $338 #
straight-curve $-1 -57.813043610950047 19.816773349966983 0.2923167523991026 0.80901698891910034 0 0.5877852598018023 I I #
point $-1 -45.519987960147297 19.816773349966983 9.2237446561803136 #
point $-1 -57.813043610950039 6.8553569687942577 0.29231675239910776 #
coedge $-1 $203 $339 $340 $341 forward $204 $-1 #
face $-1 $342 $204 $14 $-1 $343 reversed single #
coedge $-1 $332 $206 $344 $345 forward $117 $-1 #
coedge $-1 $340 $327 $206 $279 reversed $262 $-1 #
edge $-1 $280 -57.813043610950039 $346 57.813043610950039 $206 $347 forward 7 unknown #
vertex $-1 $341 $348 #
straight-curve $-1 -57.813043610950039 0 9.2237446561803136 0 -1 0 I I #
face $-1 $349 $350 $15 $-1 $351 forward single #
loop $-1 $-1 $352 $210 #
plane-surface $-1 0 0 9.2237446561803136 0 0 1 1 0 0 forward_v I I I I #
coedge $-1 $353 $354 $352 $355 reversed $211 $-1 #
coedge $-1 $356 $287 $292 $357 reversed $213 $-1 #
coedge $-1 $286 $358 $214 $288 reversed $213 $-1 #
edge $-1 $293 -15.195052538052478 $359 -8.7828746355274299e-015 $214 $360 forward 7 unknown #
coedge $-1 $361 $362 $215 $290 forward $363 $-1 #
edge $-1 $294 37.694148182398671 $359 46.625576086179876 $289 $364 forward 7 unknown #
coedge $-1 $365 $216 $362 $366 forward $283 $-1 #
coedge $-1 $216 $352 $286 $357 forward $283 $-1 #
vertex $-1 $357 $367 #
vertex $-1 $366 $368 #
straight-curve $-1 -62.888176664270219 6.8553569687942577 9.2237446561803154 -1 0 0 I I #
vertex $-1 $218 $369 #
point $-1 -45.349751518640225 13.33606515938062 -0.53364606891625965 #
straight-curve $-1 -57.813043610950039 29.699252311606184 0 0 0 -1 I I #
point $-1 -57.813043610950039 -29.699252311606184 -9.2237446561803136 #
straight-curve $-1 -57.813043610950039 0 -9.2237446561803136 0 1 0 I I #
point $-1 -57.813043610950039 29.699252311606184 -9.2237446561803136 #
face $-1 $-1 $370 $13 $-1 $371 reversed single #
plane-surface $-1 -57.813043610950039 0 0 1 0 0 0 0 -1 forward_v I I I I #
coedge $-1 $372 $240 $255 $318 forward $167 $-1 #
coedge $-1 $240 $372 $373 $374 forward $167 $-1 #
coedge $-1 $315 $375 $241 $307 reversed $370 $-1 #
edge $-1 $308 -57.813043610950039 $311 57.813043610950039 $306 $376 forward 7 unknown #
vertex $-1 $242 $377 #
straight-curve $-1 57.813043610950039 0 9.2237446561803136 0 1 0 I I #
coedge $-1 $317 $243 $375 $378 forward $252 $-1 #
vertex $-1 $307 $379 #
straight-curve $-1 -57.813043610950039 0 9.2237446561803136 0 -1 0 I I #
point $-1 -57.813043610950039 -22.868062627056421 9.2237446561803136 #
straight-curve $-1 -57.813043610950039 -22.868062627056421 3.8618723280901568 0 0 1 I I #
coedge $-1 $373 $306 $249 $316 forward $370 $-1 #
edge $-1 $308 -9.2237446561803136 $321 9.2237446561803136 $249 $380 forward 7 unknown #
coedge $-1 $251 $310 $372 $381 reversed $252 $-1 #
edge $-1 $259 -57.813043610950039 $319 57.813043610950039 $255 $382 forward 7 unknown #
vertex $-1 $381 $383 #
straight-curve $-1 -57.813043610950039 -29.699252311606184 0 0 0 -1 I I #
vertex $-1 $258 $384 #
straight-curve $-1 57.813043610950039 0 -9.2237446561803136 0 -1 0 I I #
point $-1 57.813043610950039 -29.699252311606184 -9.2237446561803136 #
face $-1 $385 $386 $14 $-1 $387 reversed single #
loop $-1 $-1 $388 $261 #
plane-surface $-1 57.813043610950039 0 0 -1 0 0 0 0 1 forward_v I I I I #
coedge $-1 $278 $389 $388 $390 reversed $262 $-1 #
coedge $-1 $391 $264 $389 $392 reversed $190 $-1 #
coedge $-1 $264 $391 $393 $394 reversed $190 $-1 #
coedge $-1 $395 $388 $264 $331 forward $325 $-1 #
edge $-1 $396 9.7262338923907699 $397 16.557423576940533 $330 $398 forward 7 unknown #
coedge $-1 $265 $277 $399 $400 forward $117 $-1 #
coedge $-1 $401 $266 $265 $334 reversed $204 $-1 #
edge $-1 $402 -29.699252311606184 $268 -19.816773349966983 $333 $281 forward 7 unknown #
straight-curve $-1 -57.813043610950039 19.816773349966983 46.917892838578986 0 0 1 I I #
point $-1 -57.813043610950039 19.816773349966983 9.2237446561803136 #
straight-curve $-1 -57.813043610950039 6.6680325796903102 0.29231675239910782 0 1 0 I I #
point $-1 -57.813043610950039 19.816773349966983 0.29231675239910776 #
coedge $-1 $275 $403 $391 $404 forward $204 $-1 #
coedge $-1 $389 $278 $275 $341 reversed $262 $-1 #
edge $-1 $405 2.3618723280901568 $280 5.3618723280901568 $275 $406 forward 7 unknown #
face $-1 $-1 $407 $14 $-1 $408 reversed single #
plane-surface $-1 -57.813043610950039 0 0 1 0 0 0 0 -1 forward_v I I I I #
coedge $-1 $388 $409 $277 $345 reversed $325 $-1 #
edge $-1 $346 -22.868062627056421 $410 29.699252311606184 $344 $411 forward 7 unknown #
vertex $-1 $345 $412 #
straight-curve $-1 0 -22.868062627056421 9.2237446561803136 1 0 0 I I #
point $-1 -57.813043610950039 -22.868062627056421 9.2237446561803136 #
face $-1 $413 $414 $15 $-1 $415 forward single #
loop $-1 $-1 $416 $282 #
plane-surface $-1 0 -26.283657469331303 6.2237446561803136 0 0 1 1 0 0 forward_v I I I I #
coedge $-1 $292 $417 $285 $355 forward $283 $-1 #
coedge $-1 $354 $285 $418 $419 reversed $211 $-1 #
coedge $-1 $285 $353 $356 $420 forward $211 $-1 #
edge $-1 $421 5.0751330533201795 $422 17.368188704122922 $352 $423 forward 7 unknown #
coedge $-1 $358 $286 $354 $420 reversed $213 $-1 #
edge $-1 $422 -13.148740770276673 $293 -0.18732438910394755 $292 $424 forward 7 unknown #
coedge $-1 $287 $356 $361 $425 reversed $213 $-1 #
vertex $-1 $425 $426 #
straight-curve $-1 -57.813043610950047 6.8553569687942577 0.2923167523991026 -0.80901698891910034 0 -0.5877852598018023 I I #
coedge $-1 $418 $289 $358 $425 forward $363 $-1 #
coedge $-1 $289 $427 $291 $366 reversed $363 $-1 #
loop $-1 $-1 $418 $428 #
straight-curve $-1 -57.813043610950039 6.8553569687942577 46.917892838578986 0 0 -1 I I #
coedge $-1 $429 $291 $430 $431 forward $283 $-1 #
edge $-1 $294 -6.8553569687942577 $432 22.868062627056421 $362 $433 forward 7 unknown #
point $-1 -45.519987960147297 6.8553569687942577 9.2237446561803136 #
point $-1 -57.813043610950039 6.8553569687942577 9.2237446561803136 #
point $-1 -45.792214976874817 13.33606515938062 -3.3272505663580647 #
loop $-1 $-1 $315 $302 #
plane-surface $-1 0 29.699252311606184 0 0 -1 0 0 0 -1 forward_v I I I I #
coedge $-1 $305 $304 $317 $381 forward $167 $-1 #
coedge $-1 $375 $315 $305 $374 reversed $370 $-1 #
edge $-1 $434 -57.813043610950039 $321 57.813043610950039 $373 $435 forward 7 unknown #
coedge $-1 $306 $373 $310 $378 reversed $370 $-1 #
straight-curve $-1 0 29.699252311606184 9.2237446561803136 -1 0 0 I I #
point $-1 57.813043610950039 29.699252311606184 9.2237446561803136 #
edge $-1 $311 -9.2237446561803136 $434 9.2237446561803136 $375 $436 forward 7 unknown #
point $-1 -57.813043610950039 29.699252311606184 9.2237446561803136 #
straight-curve $-1 57.813043610950039 29.699252311606184 0 0 0 -1 I I #
edge $-1 $319 -29.699252311606184 $434 29.699252311606184 $317 $437 forward 7 unknown #
straight-curve $-1 0 -29.699252311606184 -9.2237446561803136 -1 0 0 I I #
point $-1 -57.813043610950039 -29.699252311606184 -9.2237446561803136 #
point $-1 57.813043610950039 29.699252311606184 -9.2237446561803136 #
face $-1 $276 $438 $14 $-1 $439 reversed single #
loop $-1 $-1 $440 $324 #
plane-surface $-1 0 0 -9.2237446561803136 0 0 1 1 0 0 forward_v I I I I #
coedge $-1 $330 $344 $327 $390 forward $325 $-1 #
coedge $-1 $327 $340 $328 $392 forward $262 $-1 #
edge $-1 $346 -5.3618723280901568 $396 -2.3618723280901568 $388 $441 forward 7 unknown #
coedge $-1 $329 $328 $339 $404 reversed $190 $-1 #
edge $-1 $405 -57.813043610950039 $396 57.813043610950039 $389 $442 forward 7 unknown #
coedge $-1 $443 $444 $329 $394 forward $438 $-1 #
edge $-1 $397 -57.813043610950039 $445 57.813043610950039 $393 $446 forward 7 unknown #
coedge $-1 $447 $330 $444 $448 forward $325 $-1 #
vertex $-1 $331 $449 #
vertex $-1 $448 $450 #
straight-curve $-1 57.813043610950039 -13.141828734665651 6.2237446561803136 0 -1 0 I I #
coedge $-1 $451 $452 $332 $400 reversed $407 $-1 #
edge $-1 $410 -57.813043610950039 $402 57.813043610950039 $399 $453 forward 7 unknown #
coedge $-1 $454 $333 $452 $455 forward $204 $-1 #
vertex $-1 $400 $456 #
coedge $-1 $339 $454 $443 $457 reversed $204 $-1 #
edge $-1 $445 -16.557423576940533 $405 -9.7262338923907699 $339 $458 forward 7 unknown #
vertex $-1 $404 $459 #
straight-curve $-1 -57.813043610950039 -22.868062627056421 3.8618723280901568 0 0 1 I I #
loop $-1 $-1 $451 $342 #
plane-surface $-1 0 29.699252311606184 0 0 -1 0 0 0 -1 forward_v I I I I #
coedge $-1 $344 $447 $451 $460 reversed $325 $-1 #
vertex $-1 $345 $461 #
straight-curve $-1 57.813043610950039 0 9.2237446561803136 0 1 0 I I #
point $-1 57.813043610950039 -22.868062627056421 9.2237446561803136 #
face $-1 $462 $463 $15 $-1 $464 reversed single #
loop $-1 $-1 $465 $349 #
plane-surface $-1 0 -22.868062627056421 7.7237446561803136 0 -1 0 0 0 -1 forward_v I I I I #
coedge $-1 $466 $467 $468 $469 reversed $350 $-1 #
coedge $-1 $352 $470 $471 $472 forward $283 $-1 #
coedge $-1 $471 $361 $353 $419 forward $363 $-1 #
edge $-1 $473 -46.625576086179876 $421 -37.694148182398671 $418 $474 forward 7 unknown #
edge $-1 $473 8.7828746355274299e-015 $422 15.195052538052478 $354 $475 forward 7 unknown #
vertex $-1 $419 $476 #
vertex $-1 $357 $477 #
straight-curve $-1 -62.888176664270219 19.816773349966983 9.2237446561803154 1 0 0 I I #
straight-curve $-1 -45.51998796014729 6.6680325796903102 9.2237446561803136 0 -1 0 I I #
edge $-1 $359 0.18732438910394755 $473 13.148740770276673 $361 $478 forward 7 unknown #
point $-1 -57.813043610950039 6.8553569687942577 0.29231675239910776 #
coedge $-1 $362 $479 $480 $481 forward $363 $-1 #
face $-1 $482 $363 $15 $-1 $483 reversed single #
coedge $-1 $470 $365 $484 $485 forward $283 $-1 #
coedge $-1 $480 $465 $365 $431 reversed $414 $-1 #
edge $-1 $432 -57.813043610950039 $486 57.813043610950039 $365 $487 forward 7 unknown #
vertex $-1 $481 $488 #
straight-curve $-1 -57.813043610950039 0 9.2237446561803136 0 -1 0 I I #
vertex $-1 $374 $489 #
straight-curve $-1 0 29.699252311606184 -9.2237446561803136 1 0 0 I I #
straight-curve $-1 -57.813043610950039 29.699252311606184 0 0 0 -1 I I #
straight-curve $-1 -57.813043610950039 0 -9.2237446561803136 0 1 0 I I #
loop $-1 $-1 $393 $385 #
plane-surface $-1 0 -29.699252311606184 0 0 1 0 0 0 1 forward_v I I I I #
coedge $-1 $490 $491 $447 $492 forward $386 $-1 #
straight-curve $-1 57.813043610950039 -22.868062627056421 3.8618723280901568 0 0 -1 I I #
straight-curve $-1 0 -22.868062627056421 6.2237446561803136 1 0 0 I I #
coedge $-1 $493 $393 $403 $457 forward $438 $-1 #
coedge $-1 $393 $493 $395 $448 reversed $438 $-1 #
vertex $-1 $457 $494 #
straight-curve $-1 0 -29.699252311606184 6.2237446561803136 -1 0 0 I I #
coedge $-1 $409 $395 $440 $492 reversed $325 $-1 #
edge $-1 $397 -6.2237446561803136 $495 9.2237446561803136 $395 $496 forward 7 unknown #
point $-1 57.813043610950039 -22.868062627056421 6.2237446561803136 #
point $-1 57.813043610950039 -29.699252311606184 6.2237446561803136 #
coedge $-1 $497 $399 $409 $460 forward $407 $-1 #
coedge $-1 $399 $497 $401 $455 reversed $407 $-1 #
straight-curve $-1 0 29.699252311606184 9.2237446561803136 -1 0 0 I I #
coedge $-1 $403 $401 $498 $499 reversed $204 $-1 #
edge $-1 $402 -9.2237446561803136 $500 9.2237446561803136 $452 $501 forward 7 unknown #
point $-1 -57.813043610950039 29.699252311606184 9.2237446561803136 #
edge $-1 $445 -6.2237446561803136 $502 9.2237446561803136 $403 $503 forward 7 unknown #
straight-curve $-1 -57.813043610950039 -13.141828734665651 6.2237446561803136 0 1 0 I I #
point $-1 -57.813043610950039 -22.868062627056421 6.2237446561803136 #
edge $-1 $410 -9.2237446561803136 $504 9.2237446561803136 $409 $505 forward 7 unknown #
point $-1 57.813043610950039 29.699252311606184 9.2237446561803136 #
face $-1 $506 $507 $15 $-1 $508 reversed single #
loop $-1 $-1 $509 $413 #
plane-surface $-1 57.813043610950039 0 0 -1 0 0 0 0 1 forward_v I I I I #
coedge $-1 $430 $510 $509 $511 reversed $414 $-1 #
coedge $-1 $512 $416 $510 $513 reversed $350 $-1 #
coedge $-1 $416 $512 $514 $515 reversed $350 $-1 #
coedge $-1 $516 $509 $416 $469 forward $463 $-1 #
edge $-1 $517 9.7262338923907699 $518 16.557423576940533 $468 $519 forward 7 unknown #
coedge $-1 $417 $429 $520 $521 forward $283 $-1 #
coedge $-1 $522 $418 $417 $472 reversed $363 $-1 #
edge $-1 $523 -29.699252311606184 $421 -19.816773349966983 $471 $433 forward 7 unknown #
vertex $-1 $425 $524 #
straight-curve $-1 -57.813043610950039 19.816773349966983 46.917892838578986 0 0 1 I I #
straight-curve $-1 -57.813043610950047 19.816773349966983 0.2923167523991026 0.80901698891910034 0 0.5877852598018023 I I #
point $-1 -57.813043610950039 19.816773349966983 9.2237446561803136 #
point $-1 -45.519987960147297 19.816773349966983 9.2237446561803136 #
straight-curve $-1 -57.813043610950039 6.6680325796903102 0.29231675239910782 0 1 0 I I #
coedge $-1 $427 $525 $512 $526 forward $363 $-1 #
coedge $-1 $510 $430 $427 $481 reversed $414 $-1 #
edge $-1 $527 2.3618723280901568 $432 5.3618723280901568 $427 $528 forward 7 unknown #
face $-1 $-1 $529 $15 $-1 $530 reversed single #
plane-surface $-1 -57.813043610950039 0 0 1 0 0 0 0 -1 forward_v I I I I #
coedge $-1 $509 $531 $429 $485 reversed $463 $-1 #
edge $-1 $486 -22.868062627056421 $532 29.699252311606184 $484 $533 forward 7 unknown #
vertex $-1 $485 $534 #
straight-curve $-1 0 -22.868062627056421 9.2237446561803136 1 0 0 I I #
point $-1 -57.813043610950039 -22.868062627056421 9.2237446561803136 #
point $-1 -57.813043610950039 29.699252311606184 -9.2237446561803136 #
coedge $-1 $498 $440 $493 $535 forward $386 $-1 #
coedge $-1 $440 $498 $497 $536 forward $386 $-1 #
edge $-1 $504 -29.699252311606184 $495 29.699252311606184 $447 $537 forward 7 unknown #
coedge $-1 $444 $443 $490 $535 reversed $438 $-1 #
point $-1 -57.813043610950039 -29.699252311606184 6.2237446561803136 #
vertex $-1 $448 $538 #
straight-curve $-1 57.813043610950039 -29.699252311606184 0 0 0 -1 I I #
coedge $-1 $452 $451 $491 $536 reversed $407 $-1 #
coedge $-1 $491 $490 $454 $499 forward $386 $-1 #
edge $-1 $502 -29.699252311606184 $500 29.699252311606184 $454 $539 forward 7 unknown #
vertex $-1 $536 $540 #
straight-curve $-1 -57.813043610950039 29.699252311606184 0 0 0 -1 I I #
vertex $-1 $499 $541 #
straight-curve $-1 -57.813043610950039 -29.699252311606184 0 0 0 -1 I I #
vertex $-1 $492 $542 #
straight-curve $-1 57.813043610950039 29.699252311606184 0 0 0 -1 I I #
face $-1 $428 $543 $15 $-1 $544 reversed single #
loop $-1 $-1 $545 $462 #
plane-surface $-1 0 0 -9.2237446561803136 0 0 1 1 0 0 forward_v I I I I #
coedge $-1 $468 $484 $465 $511 forward $463 $-1 #
coedge $-1 $465 $480 $466 $513 forward $414 $-1 #
edge $-1 $486 -5.3618723280901568 $517 -2.3618723280901568 $509 $546 forward 7 unknown #
coedge $-1 $467 $466 $479 $526 reversed $350 $-1 #
edge $-1 $527 -57.813043610950039 $517 57.813043610950039 $510 $547 forward 7 unknown #
coedge $-1 $548 $549 $467 $515 forward $543 $-1 #
edge $-1 $518 -57.813043610950039 $550 57.813043610950039 $514 $551 forward 7 unknown #
coedge $-1 $552 $468 $549 $553 forward $463 $-1 #
vertex $-1 $469 $554 #
vertex $-1 $553 $555 #
straight-curve $-1 57.813043610950039 -13.141828734665651 6.2237446561803136 0 -1 0 I I #
coedge $-1 $556 $557 $470 $521 reversed $529 $-1 #
edge $-1 $532 -57.813043610950039 $523 57.813043610950039 $520 $558 forward 7 unknown #
coedge $-1 $559 $471 $557 $560 forward $363 $-1 #
vertex $-1 $521 $561 #
point $-1 -57.813043610950039 19.816773349966983 0.29231675239910776 #
coedge $-1 $479 $559 $548 $562 reversed $363 $-1 #
edge $-1 $550 -16.557423576940533 $527 -9.7262338923907699 $479 $563 forward 7 unknown #
vertex $-1 $526 $564 #
straight-curve $-1 -57.813043610950039 -22.868062627056421 3.8618723280901568 0 0 1 I I #
loop $-1 $-1 $556 $482 #
plane-surface $-1 0 29.699252311606184 0 0 -1 0 0 0 -1 forward_v I I I I #
coedge $-1 $484 $552 $556 $565 reversed $463 $-1 #
vertex $-1 $485 $566 #
straight-curve $-1 57.813043610950039 0 9.2237446561803136 0 1 0 I I #
point $-1 57.813043610950039 -22.868062627056421 9.2237446561803136 #
edge $-1 $495 -57.813043610950039 $502 57.813043610950039 $493 $567 forward 7 unknown #
edge $-1 $500 -57.813043610950039 $504 57.813043610950039 $497 $568 forward 7 unknown #
straight-curve $-1 57.813043610950039 0 -9.2237446561803136 0 -1 0 I I #
point $-1 57.813043610950039 -29.699252311606184 -9.2237446561803136 #
straight-curve $-1 -57.813043610950039 0 -9.2237446561803136 0 1 0 I I #
point $-1 -57.813043610950039 29.699252311606184 -9.2237446561803136 #
point $-1 -57.813043610950039 -29.699252311606184 -9.2237446561803136 #
point $-1 57.813043610950039 29.699252311606184 -9.2237446561803136 #
loop $-1 $-1 $514 $506 #
plane-surface $-1 0 -29.699252311606184 0 0 1 0 0 0 1 forward_v I I I I #
coedge $-1 $569 $570 $552 $571 forward $507 $-1 #
straight-curve $-1 57.813043610950039 -22.868062627056421 3.8618723280901568 0 0 -1 I I #
straight-curve $-1 0 -22.868062627056421 6.2237446561803136 1 0 0 I I #
coedge $-1 $572 $514 $525 $562 forward $543 $-1 #
coedge $-1 $514 $572 $516 $553 reversed $543 $-1 #
vertex $-1 $562 $573 #
straight-curve $-1 0 -29.699252311606184 6.2237446561803136 -1 0 0 I I #
coedge $-1 $531 $516 $545 $571 reversed $463 $-1 #
edge $-1 $518 -6.2237446561803136 $574 9.2237446561803136 $516 $575 forward 7 unknown #
point $-1 57.813043610950039 -22.868062627056421 6.2237446561803136 #
point $-1 57.813043610950039 -29.699252311606184 6.2237446561803136 #
coedge $-1 $576 $520 $531 $565 forward $529 $-1 #
coedge $-1 $520 $576 $522 $560 reversed $529 $-1 #
straight-curve $-1 0 29.699252311606184 9.2237446561803136 -1 0 0 I I #
coedge $-1 $525 $522 $577 $578 reversed $363 $-1 #
edge $-1 $523 -9.2237446561803136 $579 9.2237446561803136 $557 $580 forward 7 unknown #
point $-1 -57.813043610950039 29.699252311606184 9.2237446561803136 #
edge $-1 $550 -6.2237446561803136 $581 9.2237446561803136 $525 $582 forward 7 unknown #
straight-curve $-1 -57.813043610950039 -13.141828734665651 6.2237446561803136 0 1 0 I I #
point $-1 -57.813043610950039 -22.868062627056421 6.2237446561803136 #
edge $-1 $532 -9.2237446561803136 $583 9.2237446561803136 $531 $584 forward 7 unknown #
point $-1 57.813043610950039 29.699252311606184 9.2237446561803136 #
straight-curve $-1 0 -29.699252311606184 -9.2237446561803136 -1 0 0 I I #
straight-curve $-1 0 29.699252311606184 -9.2237446561803136 1 0 0 I I #
coedge $-1 $577 $545 $572 $585 forward $507 $-1 #
coedge $-1 $545 $577 $576 $586 forward $507 $-1 #
edge $-1 $583 -29.699252311606184 $574 29.699252311606184 $552 $587 forward 7 unknown #
coedge $-1 $549 $548 $569 $585 reversed $543 $-1 #
point $-1 -57.813043610950039 -29.699252311606184 6.2237446561803136 #
vertex $-1 $553 $588 #
straight-curve $-1 57.813043610950039 -29.699252311606184 0 0 0 -1 I I #
coedge $-1 $557 $556 $570 $586 reversed $529 $-1 #
coedge $-1 $570 $569 $559 $578 forward $507 $-1 #
edge $-1 $581 -29.699252311606184 $579 29.699252311606184 $559 $589 forward 7 unknown #
vertex $-1 $586 $590 #
straight-curve $-1 -57.813043610950039 29.699252311606184 0 0 0 -1 I I #
vertex $-1 $578 $591 #
straight-curve $-1 -57.813043610950039 -29.699252311606184 0 0 0 -1 I I #
vertex $-1 $571 $592 #
straight-curve $-1 57.813043610950039 29.699252311606184 0 0 0 -1 I I #
edge $-1 $574 -57.813043610950039 $581 57.813043610950039 $572 $593 forward 7 unknown #
edge $-1 $579 -57.813043610950039 $583 57.813043610950039 $576 $594 forward 7 unknown #
straight-curve $-1 57.813043610950039 0 -9.2237446561803136 0 -1 0 I I #
point $-1 57.813043610950039 -29.699252311606184 -9.2237446561803136 #
straight-curve $-1 -57.813043610950039 0 -9.2237446561803136 0 1 0 I I #
point $-1 -57.813043610950039 29.699252311606184 -9.2237446561803136 #
point $-1 -57.813043610950039 -29.699252311606184 -9.2237446561803136 #
point $-1 57.813043610950039 29.699252311606184 -9.2237446561803136 #
straight-curve $-1 0 -29.699252311606184 -9.2237446561803136 -1 0 0 I I #
straight-curve $-1 0 29.699252311606184 -9.2237446561803136 1 0 0 I I #
End-of-ACIS-data 