500 0 5 0           
7 Unknown 11 ACIS 5.0 NT 24 Fri Mar 26 19:53:41 1999 
-1 9.9999999999999995e-007 1e-010 
body $-1 $5 $-1 $6 #
body $-1 $7 $-1 $8 #
body $-1 $9 $-1 $10 #
body $-1 $11 $-1 $12 #
body $-1 $13 $-1 $14 #
lump $-1 $-1 $15 $0 #
transform $-1 1 0 0 0 1 0 0 0 1 41.630909146397293 21.558196645618576 10.610340809469612 1 rotate no_reflect no_shear #
lump $-1 $-1 $16 $1 #
transform $-1 1 0 0 0 1 0 0 0 1 41.630909146397293 21.558196645618576 10.610340809469612 1 rotate no_reflect no_shear #
lump $-1 $-1 $17 $2 #
transform $-1 1 0 0 0 1 0 0 0 1 41.630909146397293 21.558196645618576 10.610340809469612 1 rotate no_reflect no_shear #
lump $-1 $-1 $18 $3 #
transform $-1 1 0 0 0 1 0 0 0 1 41.630909146397293 21.558196645618576 10.610340809469612 1 rotate no_reflect no_shear #
lump $-1 $-1 $19 $4 #
transform $-1 1 0 0 0 1 0 0 0 1 41.630909146397293 21.558196645618576 10.610340809469612 1 rotate no_reflect no_shear #
shell $-1 $-1 $-1 $20 $-1 $5 #
shell $-1 $-1 $-1 $21 $-1 $7 #
shell $-1 $-1 $-1 $22 $-1 $9 #
shell $-1 $-1 $-1 $23 $-1 $11 #
shell $-1 $-1 $-1 $24 $-1 $13 #
face $-1 $25 $26 $15 $-1 $27 forward single #
face $-1 $28 $29 $16 $-1 $30 forward single #
face $-1 $31 $32 $17 $-1 $33 reversed single #
face $-1 $34 $35 $18 $-1 $36 forward single #
face $-1 $37 $38 $19 $-1 $39 reversed single #
face $-1 $40 $41 $15 $-1 $42 reversed single #
loop $-1 $-1 $43 $20 #
plane-surface $-1 0 0 10.610340809469612 0 0 1 1 0 0 forward_v I I I I #
face $-1 $44 $45 $16 $-1 $46 forward single #
loop $-1 $-1 $47 $21 #
plane-surface $-1 0 -16.085042400381784 7.270740330195224 0 0 1 1 0 0 forward_v I I I I #
face $-1 $48 $49 $17 $-1 $50 reversed single #
loop $-1 $-1 $51 $22 #
plane-surface $-1 0 28.33929145903706 4.3170587381160548 0 0 1 1 0 0 forward_v I I I I #
face $-1 $52 $53 $18 $-1 $54 forward single #
loop $-1 $-1 $55 $23 #
plane-surface $-1 29.322684541683863 -10.611888155144992 117.23106114927077 0 1 0 0.62932039886446345 0 0.77714595512881146 forward_v I I I I #
face $-1 $56 $57 $19 $-1 $58 reversed single #
loop $-1 $59 $60 $24 #
cone-surface $-1 34.392553661568407 -7.70151443588734 4.4236732061444171 -0.62932039886446345 0 -0.77714595512881146 0.77714595512881146 0 -0.62932039886446345 1 I I 0 1 1 forward I I I I #
face $-1 $61 $62 $15 $-1 $63 reversed single #
loop $-1 $-1 $64 $25 #
plane-surface $-1 0 0 -10.610340809469612 0 0 1 1 0 0 forward_v I I I I #
coedge $-1 $65 $66 $67 $68 forward $26 $-1 #
face $-1 $69 $70 $16 $-1 $71 forward single #
loop $-1 $-1 $72 $28 #
plane-surface $-1 0 -10.611888155144992 8.9405405698324181 0 -1 0 0 0 -1 forward_v I I I I #
coedge $-1 $73 $74 $75 $76 reversed $29 $-1 #
face $-1 $77 $78 $17 $-1 $79 forward single #
loop $-1 $-1 $80 $31 #
plane-surface $-1 0 35.120386272455548 7.4636997737928326 0 -1 0 0 0 -1 forward_v I I I I #
coedge $-1 $81 $82 $83 $84 forward $32 $-1 #
face $-1 $85 $86 $18 $-1 $87 forward single #
loop $-1 $-1 $88 $34 #
plane-surface $-1 29.322684541683863 -4.7911407166296867 117.23106114927077 0 -1 0 -0.62932039886446345 0 -0.77714595512881146 forward_v I I I I #
coedge $-1 $89 $90 $91 $92 forward $35 $-1 #
face $-1 $93 $94 $19 $-1 $95 forward single #
loop $-1 $96 $97 $37 #
cone-surface $-1 33.313008073025891 -7.70151443588734 3.090545455912924 -0.62932039886446345 0 -0.77714595512881146 0.38857297756440573 0 -0.31466019943223172 1 I I -0.70710678118654746 0.70710678118654746 0.5 forward I I I I #
loop $-1 $-1 $98 $24 #
coedge $-1 $60 $60 $99 $100 reversed $38 $-1 #
face $-1 $101 $102 $15 $-1 $103 reversed single #
loop $-1 $-1 $104 $40 #
plane-surface $-1 0 -21.558196645618576 0 0 1 0 0 0 1 forward_v I I I I #
coedge $-1 $105 $106 $107 $108 forward $41 $-1 #
coedge $-1 $109 $43 $110 $111 forward $26 $-1 #
coedge $-1 $43 $109 $112 $113 forward $26 $-1 #
coedge $-1 $114 $115 $43 $68 reversed $116 $-1 #
edge $-1 $117 -21.558196645618576 $118 21.558196645618576 $67 $119 forward 7 unknown #
face $-1 $120 $121 $16 $-1 $122 reversed single #
loop $-1 $-1 $123 $44 #
plane-surface $-1 0 0 10.610340809469612 0 0 1 1 0 0 forward_v I I I I #
coedge $-1 $124 $125 $126 $127 reversed $45 $-1 #
coedge $-1 $128 $47 $125 $129 reversed $29 $-1 #
coedge $-1 $47 $128 $130 $131 reversed $29 $-1 #
coedge $-1 $132 $126 $47 $76 forward $121 $-1 #
edge $-1 $133 2.5693669549541003 $134 13.515675445427684 $75 $135 forward 7 unknown #
face $-1 $136 $137 $17 $-1 $138 forward single #
loop $-1 $-1 $139 $48 #
plane-surface $-1 0 -16.085042400381784 7.270740330195224 0 0 1 1 0 0 forward_v I I I I #
coedge $-1 $140 $141 $142 $143 forward $49 $-1 #
coedge $-1 $144 $51 $145 $146 reversed $32 $-1 #
coedge $-1 $51 $144 $140 $147 forward $32 $-1 #
coedge $-1 $142 $148 $51 $84 reversed $149 $-1 #
edge $-1 $150 -6.7810948134184876 $151 6.7810948134184876 $83 $152 forward 7 unknown #
face $-1 $153 $154 $18 $-1 $155 forward single #
loop $-1 $-1 $156 $52 #
plane-surface $-1 -23.075676156518107 -7.70151443588734 52.524475846355372 0.62932039886446345 0 0.77714595512881146 0.77714595512881146 0 -0.62932039886446345 forward_v I I I I #
coedge $-1 $157 $158 $159 $160 reversed $53 $-1 #
coedge $-1 $90 $55 $161 $162 reversed $35 $-1 #
coedge $-1 $55 $89 $163 $164 forward $35 $-1 #
coedge $-1 $165 $166 $55 $92 reversed $167 $-1 #
edge $-1 $168 32.80803200598686 $169 41.630909146397293 $91 $170 forward 7 unknown #
face $-1 $171 $172 $19 $-1 $173 forward single #
loop $-1 $-1 $174 $56 #
plane-surface $-1 29.322684541683863 -10.611888155144992 117.23106114927077 0 1 0 0.62932039886446345 0 0.77714595512881146 forward_v I I I I #
loop $-1 $-1 $175 $37 #
coedge $-1 $97 $97 $98 $176 forward $57 $-1 #
coedge $-1 $98 $98 $97 $176 reversed $59 $-1 #
coedge $-1 $99 $99 $60 $100 forward $177 $-1 #
edge $-1 $178 0 $178 6.2831853071796004 $99 $179 forward 7 unknown #
face $-1 $180 $181 $15 $-1 $182 reversed single #
loop $-1 $-1 $183 $61 #
plane-surface $-1 -41.630909146397293 0 0 1 0 0 0 0 -1 forward_v I I I I #
coedge $-1 $184 $112 $185 $186 forward $62 $-1 #
coedge $-1 $187 $64 $184 $188 forward $41 $-1 #
coedge $-1 $64 $187 $189 $190 forward $41 $-1 #
coedge $-1 $115 $114 $64 $108 reversed $116 $-1 #
edge $-1 $191 -21.558196645618576 $192 21.558196645618576 $107 $193 forward 7 unknown #
coedge $-1 $66 $65 $194 $195 forward $26 $-1 #
coedge $-1 $196 $197 $65 $111 reversed $181 $-1 #
edge $-1 $118 -41.630909146397293 $198 41.630909146397293 $110 $199 forward 7 unknown #
coedge $-1 $104 $200 $66 $113 reversed $62 $-1 #
edge $-1 $201 -41.630909146397293 $117 41.630909146397293 $112 $202 forward 7 unknown #
coedge $-1 $107 $67 $200 $203 forward $116 $-1 #
coedge $-1 $67 $107 $196 $204 reversed $116 $-1 #
loop $-1 $-1 $114 $180 #
vertex $-1 $68 $205 #
vertex $-1 $68 $206 #
straight-curve $-1 41.630909146397293 0 10.610340809469612 0 1 0 I I #
face $-1 $207 $208 $16 $-1 $209 reversed single #
loop $-1 $-1 $126 $69 #
plane-surface $-1 41.630909146397293 0 0 -1 0 0 0 0 1 forward_v I I I I #
coedge $-1 $210 $211 $124 $212 forward $70 $-1 #
coedge $-1 $213 $72 $123 $212 reversed $45 $-1 #
coedge $-1 $72 $213 $73 $129 forward $45 $-1 #
coedge $-1 $75 $214 $72 $127 forward $121 $-1 #
edge $-1 $215 -6.1400705245534031 $133 -2.800470045279015 $126 $216 forward 7 unknown #
coedge $-1 $74 $73 $217 $218 reversed $29 $-1 #
edge $-1 $219 -41.630909146397293 $133 41.630909146397293 $125 $220 forward 7 unknown #
coedge $-1 $221 $222 $74 $131 forward $223 $-1 #
edge $-1 $134 -41.630909146397293 $224 41.630909146397293 $130 $225 forward 7 unknown #
coedge $-1 $226 $75 $222 $227 forward $121 $-1 #
vertex $-1 $76 $228 #
vertex $-1 $227 $229 #
straight-curve $-1 41.630909146397293 -8.0425212001908921 7.270740330195224 0 -1 0 I I #
face $-1 $230 $231 $17 $-1 $232 forward single #
loop $-1 $-1 $233 $77 #
plane-surface $-1 0 -10.611888155144992 8.9405405698324181 0 -1 0 0 0 -1 forward_v I I I I #
coedge $-1 $234 $235 $236 $237 reversed $78 $-1 #
coedge $-1 $238 $80 $82 $147 reversed $49 $-1 #
coedge $-1 $80 $238 $239 $240 reversed $49 $-1 #
coedge $-1 $241 $83 $80 $143 reversed $149 $-1 #
edge $-1 $242 -3.1466410356767778 $150 3.1466410356767778 $142 $243 forward 7 unknown #
coedge $-1 $82 $81 $244 $245 forward $32 $-1 #
coedge $-1 $246 $247 $81 $146 forward $248 $-1 #
edge $-1 $249 -41.630909146397293 $151 41.630909146397293 $145 $250 forward 7 unknown #
edge $-1 $251 -41.630909146397293 $150 41.630909146397293 $140 $252 forward 7 unknown #
coedge $-1 $83 $253 $246 $254 reversed $149 $-1 #
loop $-1 $-1 $255 $230 #
vertex $-1 $84 $256 #
vertex $-1 $254 $257 #
straight-curve $-1 41.630909146397293 28.33929145903706 4.3170587381160548 0 -1 0 I I #
face $-1 $258 $259 $18 $-1 $260 reversed single #
loop $-1 $-1 $261 $85 #
plane-surface $-1 0 0 10.610340809469612 0 0 1 1 0 0 forward_v I I I I #
coedge $-1 $262 $263 $261 $264 reversed $86 $-1 #
coedge $-1 $158 $88 $263 $265 forward $53 $-1 #
coedge $-1 $88 $157 $266 $267 reversed $53 $-1 #
coedge $-1 $268 $261 $88 $160 forward $154 $-1 #
edge $-1 $269 14.022626684118205 $270 26.969566875555362 $159 $271 forward 7 unknown #
coedge $-1 $272 $273 $89 $162 forward $274 $-1 #
edge $-1 $275 -58.489415426481983 $169 -51.344790244440162 $161 $276 forward 7 unknown #
coedge $-1 $277 $262 $90 $164 reversed $86 $-1 #
edge $-1 $275 -83.261818292794601 $168 -71.908896641226519 $90 $278 forward 7 unknown #
coedge $-1 $279 $91 $280 $281 reversed $167 $-1 #
coedge $-1 $91 $282 $272 $283 reversed $167 $-1 #
loop $-1 $-1 $166 $284 #
vertex $-1 $92 $285 #
vertex $-1 $283 $286 #
straight-curve $-1 0 -10.611888155144992 7.270740330195224 1 0 0 I I #
face $-1 $287 $177 $19 $-1 $288 forward single #
loop $-1 $-1 $289 $93 #
plane-surface $-1 29.322684541683863 -4.7911407166296867 117.23106114927077 0 -1 0 -0.62932039886446345 0 -0.77714595512881146 forward_v I I I I #
coedge $-1 $290 $291 $292 $293 forward $94 $-1 #
coedge $-1 $175 $175 $-1 $294 forward $96 $-1 #
edge $-1 $295 0 $295 6.2831853071796004 $97 $296 forward 7 unknown #
loop $-1 $297 $99 $171 #
vertex $-1 $100 $298 #
ellipse-curve $-1 35.157439050678704 -7.70151443588734 5.3682279788115173 -0.62932039886446345 0 -0.77714595512881146 0.77714595512881146 0 -0.62932039886446345 1 I I #
face $-1 $-1 $116 $15 $-1 $299 reversed single #
loop $-1 $-1 $196 $101 #
plane-surface $-1 0 21.558196645618576 0 0 -1 0 0 0 -1 forward_v I I I I #
coedge $-1 $300 $194 $197 $301 forward $102 $-1 #
coedge $-1 $200 $104 $105 $188 reversed $62 $-1 #
coedge $-1 $194 $300 $104 $186 reversed $102 $-1 #
edge $-1 $201 -10.610340809469612 $302 10.610340809469612 $185 $303 forward 7 unknown #
coedge $-1 $106 $105 $300 $304 forward $41 $-1 #
edge $-1 $192 -41.630909146397293 $302 41.630909146397293 $184 $305 forward 7 unknown #
coedge $-1 $197 $196 $106 $190 reversed $181 $-1 #
edge $-1 $306 -41.630909146397293 $191 41.630909146397293 $189 $307 forward 7 unknown #
vertex $-1 $108 $308 #
vertex $-1 $203 $309 #
straight-curve $-1 41.630909146397293 0 -10.610340809469612 0 -1 0 I I #
coedge $-1 $183 $185 $109 $195 reversed $102 $-1 #
edge $-1 $198 -21.558196645618576 $201 21.558196645618576 $194 $310 forward 7 unknown #
coedge $-1 $189 $110 $115 $204 forward $181 $-1 #
coedge $-1 $110 $189 $183 $301 reversed $181 $-1 #
vertex $-1 $111 $311 #
straight-curve $-1 0 21.558196645618576 10.610340809469612 -1 0 0 I I #
coedge $-1 $112 $184 $114 $203 reversed $62 $-1 #
vertex $-1 $195 $312 #
straight-curve $-1 0 -21.558196645618576 10.610340809469612 1 0 0 I I #
edge $-1 $117 -10.610340809469612 $192 10.610340809469612 $114 $313 forward 7 unknown #
edge $-1 $118 -10.610340809469612 $191 10.610340809469612 $115 $314 forward 7 unknown #
point $-1 41.630909146397293 -21.558196645618576 10.610340809469612 #
point $-1 41.630909146397293 21.558196645618576 10.610340809469612 #
face $-1 $315 $223 $16 $-1 $316 reversed single #
loop $-1 $-1 $317 $120 #
plane-surface $-1 0 0 -10.610340809469612 0 0 1 1 0 0 forward_v I I I I #
coedge $-1 $318 $123 $214 $319 forward $70 $-1 #
coedge $-1 $123 $318 $320 $321 forward $70 $-1 #
edge $-1 $322 -41.630909146397293 $215 41.630909146397293 $123 $323 forward 7 unknown #
coedge $-1 $125 $124 $324 $325 reversed $45 $-1 #
coedge $-1 $126 $326 $210 $319 reversed $121 $-1 #
vertex $-1 $319 $327 #
straight-curve $-1 41.630909146397293 -10.611888155144992 4.470270284916209 0 0 -1 I I #
coedge $-1 $324 $328 $128 $218 forward $329 $-1 #
edge $-1 $224 -13.515675445427684 $219 -2.5693669549541003 $217 $330 forward 7 unknown #
vertex $-1 $218 $331 #
straight-curve $-1 0 -10.611888155144992 7.270740330195224 1 0 0 I I #
coedge $-1 $332 $130 $328 $333 forward $223 $-1 #
coedge $-1 $130 $332 $132 $227 reversed $223 $-1 #
loop $-1 $-1 $130 $207 #
vertex $-1 $333 $334 #
straight-curve $-1 0 -21.558196645618576 7.270740330195224 -1 0 0 I I #
coedge $-1 $326 $132 $317 $335 reversed $121 $-1 #
edge $-1 $134 -7.270740330195224 $336 10.610340809469612 $132 $337 forward 7 unknown #
point $-1 41.630909146397293 -10.611888155144992 7.270740330195224 #
point $-1 41.630909146397293 -21.558196645618576 7.270740330195224 #
face $-1 $338 $149 $17 $-1 $339 reversed single #
loop $-1 $-1 $340 $136 #
plane-surface $-1 0 0 10.610340809469612 0 0 1 1 0 0 forward_v I I I I #
coedge $-1 $341 $342 $255 $343 reversed $137 $-1 #
coedge $-1 $344 $139 $342 $345 reversed $78 $-1 #
coedge $-1 $139 $344 $346 $347 reversed $78 $-1 #
coedge $-1 $348 $255 $139 $237 forward $149 $-1 #
edge $-1 $349 2.5693669549541003 $350 13.515675445427684 $236 $351 forward 7 unknown #
coedge $-1 $141 $140 $352 $353 reversed $49 $-1 #
coedge $-1 $354 $355 $141 $240 forward $231 $-1 #
edge $-1 $242 -41.630909146397293 $356 41.630909146397293 $141 $357 forward 7 unknown #
coedge $-1 $255 $142 $355 $358 reversed $149 $-1 #
vertex $-1 $358 $359 #
straight-curve $-1 41.630909146397293 35.120386272455548 7.4636997737928326 0 0 -1 I I #
coedge $-1 $360 $352 $144 $245 reversed $361 $-1 #
edge $-1 $249 -6.7810948134184876 $251 6.7810948134184876 $244 $362 forward 7 unknown #
coedge $-1 $363 $145 $148 $254 forward $248 $-1 #
coedge $-1 $145 $363 $360 $364 reversed $248 $-1 #
loop $-1 $-1 $145 $365 #
vertex $-1 $364 $366 #
straight-curve $-1 0 21.558196645618576 4.3170587381160548 1 0 0 I I #
vertex $-1 $147 $367 #
straight-curve $-1 0 35.120386272455548 4.3170587381160548 1 0 0 I I #
coedge $-1 $148 $348 $368 $369 reversed $149 $-1 #
edge $-1 $151 -4.3170587381160548 $370 10.610340809469612 $148 $371 forward 7 unknown #
coedge $-1 $236 $241 $233 $343 forward $149 $-1 #
point $-1 41.630909146397293 35.120386272455548 4.3170587381160548 #
point $-1 41.630909146397293 21.558196645618573 4.3170587381160548 #
face $-1 $284 $372 $18 $-1 $373 reversed single #
loop $-1 $-1 $374 $153 #
plane-surface $-1 0 28.33929145903706 4.3170587381160548 0 0 1 1 0 0 forward_v I I I I #
coedge $-1 $159 $375 $156 $264 forward $154 $-1 #
coedge $-1 $163 $156 $376 $377 reversed $86 $-1 #
coedge $-1 $156 $277 $157 $265 reversed $86 $-1 #
edge $-1 $378 -6.7611309372013224 $269 -0.94038349868601667 $261 $379 forward 7 unknown #
edge $-1 $269 66.602219016760003 $380 83.261818292794601 $157 $381 forward 7 unknown #
coedge $-1 $273 $382 $158 $267 forward $274 $-1 #
edge $-1 $270 48.005189765165774 $380 58.489415426481983 $266 $383 forward 7 unknown #
coedge $-1 $384 $159 $382 $385 forward $154 $-1 #
vertex $-1 $264 $386 #
vertex $-1 $385 $387 #
straight-curve $-1 14.661342270841931 -4.7911407166296867 10.610340809469612 1 0 0 I I #
coedge $-1 $388 $161 $166 $283 forward $274 $-1 #
coedge $-1 $161 $266 $277 $389 forward $274 $-1 #
loop $-1 $-1 $161 $390 #
vertex $-1 $389 $391 #
straight-curve $-1 41.630909146397293 -10.611888155144992 58.615530574635386 0 0 1 I I #
coedge $-1 $263 $163 $273 $389 reversed $86 $-1 #
straight-curve $-1 -23.075676156518107 -10.611888155144992 52.524475846355372 -0.77714595512881146 0 0.62932039886446345 I I #
coedge $-1 $282 $165 $392 $393 reversed $167 $-1 #
coedge $-1 $376 $394 $165 $281 forward $395 $-1 #
edge $-1 $396 -41.630909146397293 $168 32.80803200598686 $280 $170 forward 7 unknown #
coedge $-1 $166 $279 $397 $398 reversed $167 $-1 #
edge $-1 $169 2.5693669549541003 $399 13.515675445427684 $272 $400 forward 7 unknown #
face $-1 $401 $167 $18 $-1 $402 forward single #
point $-1 32.80803200598686 -10.611888155144992 7.270740330195224 #
point $-1 41.630909146397293 -10.611888155144992 7.270740330195224 #
face $-1 $403 $404 $19 $-1 $405 forward single #
plane-surface $-1 -23.075676156518107 -7.70151443588734 52.524475846355372 0.62932039886446345 0 0.77714595512881146 0.77714595512881146 0 -0.62932039886446345 forward_v I I I I #
coedge $-1 $406 $407 $408 $409 reversed $172 $-1 #
coedge $-1 $291 $174 $410 $411 reversed $94 $-1 #
coedge $-1 $174 $290 $412 $413 forward $94 $-1 #
coedge $-1 $414 $415 $174 $293 reversed $416 $-1 #
edge $-1 $417 32.80803200598686 $418 41.630909146397293 $292 $419 forward 7 unknown #
edge $-1 $420 1 $420 0 $175 $-1 forward 7 unknown #
vertex $-1 $176 $421 #
ellipse-curve $-1 33.627668272458124 -7.70151443588734 3.4791184334773297 0.62932039886446345 0 0.77714595512881146 0.77714595512881146 0 -0.62932039886446345 1 I I #
loop $-1 $-1 $422 $171 #
point $-1 35.934585005807506 -7.70151443588734 4.7389075799470426 #
plane-surface $-1 41.630909146397293 0 0 -1 0 0 0 0 1 forward_v I I I I #
coedge $-1 $185 $183 $187 $304 reversed $102 $-1 #
edge $-1 $198 -10.610340809469612 $306 10.610340809469612 $197 $423 forward 7 unknown #
vertex $-1 $304 $424 #
straight-curve $-1 -41.630909146397293 -21.558196645618576 0 0 0 -1 I I #
edge $-1 $302 -21.558196645618576 $306 21.558196645618576 $300 $425 forward 7 unknown #
straight-curve $-1 0 -21.558196645618576 -10.610340809469612 -1 0 0 I I #
vertex $-1 $190 $426 #
straight-curve $-1 0 21.558196645618576 -10.610340809469612 1 0 0 I I #
point $-1 41.630909146397293 21.558196645618576 -10.610340809469612 #
point $-1 41.630909146397293 -21.558196645618576 -10.610340809469612 #
straight-curve $-1 -41.630909146397293 0 10.610340809469612 0 -1 0 I I #
point $-1 -41.630909146397293 21.558196645618576 10.610340809469612 #
point $-1 -41.630909146397293 -21.558196645618576 10.610340809469612 #
straight-curve $-1 41.630909146397293 -21.558196645618576 0 0 0 -1 I I #
straight-curve $-1 41.630909146397293 21.558196645618576 0 0 0 -1 I I #
face $-1 $427 $329 $16 $-1 $428 reversed single #
plane-surface $-1 0 -21.558196645618576 0 0 1 0 0 0 1 forward_v I I I I #
coedge $-1 $429 $430 $226 $335 forward $208 $-1 #
coedge $-1 $211 $210 $431 $432 forward $70 $-1 #
edge $-1 $215 -10.611888155144992 $433 21.558196645618576 $214 $434 forward 7 unknown #
coedge $-1 $435 $324 $211 $321 reversed $329 $-1 #
edge $-1 $436 -21.558196645618576 $322 10.611888155144992 $320 $437 forward 7 unknown #
vertex $-1 $325 $438 #
straight-curve $-1 0 -10.611888155144992 10.610340809469612 1 0 0 I I #
coedge $-1 $320 $217 $213 $325 forward $329 $-1 #
edge $-1 $219 2.800470045279015 $322 6.1400705245534031 $324 $439 forward 7 unknown #
coedge $-1 $214 $226 $440 $441 reversed $121 $-1 #
point $-1 41.630909146397293 -10.611888155144992 10.610340809469612 #
coedge $-1 $217 $442 $221 $333 reversed $329 $-1 #
loop $-1 $-1 $324 $315 #
straight-curve $-1 -41.630909146397293 -8.0425212001908921 7.270740330195224 0 1 0 I I #
point $-1 -41.630909146397293 -10.611888155144992 7.270740330195224 #
coedge $-1 $222 $221 $429 $443 reversed $223 $-1 #
edge $-1 $224 -7.270740330195224 $444 10.610340809469612 $328 $445 forward 7 unknown #
point $-1 -41.630909146397293 -21.558196645618576 7.270740330195224 #
edge $-1 $446 -21.558196645618576 $336 21.558196645618576 $226 $447 forward 7 unknown #
vertex $-1 $227 $448 #
straight-curve $-1 41.630909146397293 -21.558196645618576 0 0 0 -1 I I #
face $-1 $449 $450 $17 $-1 $451 reversed single #
plane-surface $-1 41.630909146397293 0 0 -1 0 0 0 0 1 forward_v I I I I #
coedge $-1 $355 $354 $341 $452 forward $231 $-1 #
coedge $-1 $453 $233 $340 $452 reversed $137 $-1 #
coedge $-1 $233 $453 $234 $345 forward $137 $-1 #
edge $-1 $454 -6.1400705245534031 $349 -2.800470045279015 $255 $455 forward 7 unknown #
coedge $-1 $235 $234 $456 $457 reversed $78 $-1 #
edge $-1 $458 -41.630909146397293 $349 41.630909146397293 $342 $459 forward 7 unknown #
coedge $-1 $460 $461 $235 $347 forward $462 $-1 #
edge $-1 $350 -41.630909146397293 $463 41.630909146397293 $346 $464 forward 7 unknown #
coedge $-1 $253 $236 $461 $465 forward $149 $-1 #
vertex $-1 $237 $466 #
vertex $-1 $465 $467 #
straight-curve $-1 41.630909146397293 -8.0425212001908921 7.270740330195224 0 -1 0 I I #
coedge $-1 $244 $468 $238 $353 forward $361 $-1 #
edge $-1 $356 -3.1466410356767778 $251 3.1466410356767778 $238 $469 forward 7 unknown #
coedge $-1 $340 $239 $468 $470 forward $231 $-1 #
coedge $-1 $239 $340 $241 $358 forward $231 $-1 #
vertex $-1 $240 $471 #
straight-curve $-1 0 35.120386272455548 10.61034080946961 -1 0 0 I I #
edge $-1 $454 -10.611888155144992 $242 35.120386272455548 $241 $472 forward 7 unknown #
point $-1 41.630909146397293 35.120386272455548 10.61034080946961 #
coedge $-1 $473 $244 $247 $364 forward $361 $-1 #
loop $-1 $-1 $474 $475 #
straight-curve $-1 -41.630909146397293 28.33929145903706 4.3170587381160548 0 1 0 I I #
coedge $-1 $247 $246 $476 $477 reversed $248 $-1 #
edge $-1 $249 -4.3170587381160548 $478 10.610340809469612 $247 $479 forward 7 unknown #
face $-1 $-1 $248 $17 $-1 $480 reversed single #
point $-1 -41.630909146397293 21.558196645618573 4.3170587381160548 #
point $-1 -41.630909146397293 35.120386272455548 4.3170587381160548 #
coedge $-1 $481 $476 $253 $369 forward $450 $-1 #
edge $-1 $370 -21.558196645618576 $482 21.558196645618576 $253 $483 forward 7 unknown #
vertex $-1 $369 $484 #
straight-curve $-1 41.630909146397293 21.558196645618576 0 0 0 -1 I I #
loop $-1 $-1 $485 $258 #
plane-surface $-1 0 35.120386272455548 7.4636997737928326 0 -1 0 0 0 -1 forward_v I I I I #
coedge $-1 $486 $487 $488 $489 forward $259 $-1 #
coedge $-1 $261 $490 $491 $492 forward $154 $-1 #
coedge $-1 $491 $280 $262 $377 forward $395 $-1 #
edge $-1 $168 -49.228182681624133 $378 -43.921505057157617 $376 $493 forward 7 unknown #
vertex $-1 $264 $494 #
straight-curve $-1 28.683968954960147 -3.85075721794367 10.610340809469609 0 1 0 I I #
vertex $-1 $389 $495 #
straight-curve $-1 -23.075676156518107 -4.7911407166296867 52.524475846355372 0.77714595512881146 0 -0.62932039886446345 I I #
coedge $-1 $266 $496 $268 $385 reversed $274 $-1 #
straight-curve $-1 41.630909146397293 -4.7911407166296867 58.615530574635386 0 0 -1 I I #
coedge $-1 $490 $268 $497 $498 forward $154 $-1 #
edge $-1 $270 -4.7911407166296867 $499 35.120386272455548 $382 $500 forward 7 unknown #
point $-1 28.683968954960136 -4.7911407166296867 10.610340809469612 #
point $-1 41.630909146397293 -4.7911407166296867 10.610340809469612 #
coedge $-1 $501 $272 $502 $503 forward $274 $-1 #
edge $-1 $380 0.94038349868601667 $275 6.7611309372013224 $273 $504 forward 7 unknown #
face $-1 $505 $274 $18 $-1 $506 reversed single #
point $-1 41.630909146397293 -10.611888155144992 0.12611514815340286 #
coedge $-1 $507 $508 $279 $393 forward $509 $-1 #
edge $-1 $510 -13.515675445427684 $396 -2.5693669549541003 $392 $511 forward 7 unknown #
coedge $-1 $280 $491 $507 $512 reversed $395 $-1 #
loop $-1 $-1 $376 $401 #
vertex $-1 $393 $513 #
coedge $-1 $514 $502 $282 $398 forward $515 $-1 #
edge $-1 $399 -41.630909146397293 $510 41.630909146397293 $397 $516 forward 7 unknown #
vertex $-1 $503 $517 #
straight-curve $-1 41.630909146397293 -8.0425212001908921 7.270740330195224 0 -1 0 I I #
face $-1 $390 $395 $18 $-1 $518 forward single #
plane-surface $-1 0 -16.085042400381784 7.270740330195224 0 0 1 1 0 0 forward_v I I I I #
face $-1 $519 $520 $19 $-1 $521 reversed single #
loop $-1 $-1 $522 $287 #
plane-surface $-1 0 0 10.610340809469612 0 0 1 1 0 0 forward_v I I I I #
coedge $-1 $407 $289 $523 $524 forward $172 $-1 #
coedge $-1 $289 $406 $525 $526 reversed $172 $-1 #
coedge $-1 $527 $522 $289 $409 forward $404 $-1 #
edge $-1 $528 14.022626684118205 $529 26.969566875555362 $408 $530 forward 7 unknown #
coedge $-1 $531 $532 $290 $411 forward $533 $-1 #
edge $-1 $534 -58.489415426481983 $418 -51.344790244440162 $410 $535 forward 7 unknown #
coedge $-1 $536 $537 $291 $413 reversed $297 $-1 #
edge $-1 $534 -83.261818292794601 $417 -71.908896641226519 $291 $538 forward 7 unknown #
coedge $-1 $539 $292 $540 $541 reversed $416 $-1 #
coedge $-1 $292 $542 $531 $543 reversed $416 $-1 #
loop $-1 $-1 $415 $544 #
vertex $-1 $293 $545 #
vertex $-1 $543 $546 #
straight-curve $-1 0 -10.611888155144992 7.270740330195224 1 0 0 I I #
vertex $-1 $294 $547 #
point $-1 34.404814227586932 -7.70151443588734 2.8497980346128662 #
coedge $-1 $537 $523 $522 $548 reversed $297 $-1 #
straight-curve $-1 -41.630909146397293 21.558196645618576 0 0 0 -1 I I #
point $-1 -41.630909146397293 -21.558196645618576 -10.610340809469612 #
straight-curve $-1 -41.630909146397293 0 -10.610340809469612 0 1 0 I I #
point $-1 -41.630909146397293 21.558196645618576 -10.610340809469612 #
face $-1 $-1 $549 $16 $-1 $550 reversed single #
plane-surface $-1 -41.630909146397293 0 0 1 0 0 0 0 -1 forward_v I I I I #
coedge $-1 $551 $317 $332 $443 forward $208 $-1 #
coedge $-1 $317 $551 $552 $553 forward $208 $-1 #
coedge $-1 $440 $554 $318 $432 reversed $549 $-1 #
edge $-1 $433 -41.630909146397293 $436 41.630909146397293 $431 $555 forward 7 unknown #
vertex $-1 $319 $556 #
straight-curve $-1 41.630909146397293 0 10.610340809469612 0 1 0 I I #
coedge $-1 $442 $320 $554 $557 forward $329 $-1 #
vertex $-1 $432 $558 #
straight-curve $-1 -41.630909146397293 0 10.610340809469612 0 -1 0 I I #
point $-1 -41.630909146397293 -10.611888155144992 10.610340809469612 #
straight-curve $-1 -41.630909146397293 -10.611888155144992 4.470270284916209 0 0 1 I I #
coedge $-1 $552 $431 $326 $441 forward $549 $-1 #
edge $-1 $433 -10.610340809469612 $446 10.610340809469612 $326 $559 forward 7 unknown #
coedge $-1 $328 $435 $551 $560 reversed $329 $-1 #
edge $-1 $336 -41.630909146397293 $444 41.630909146397293 $332 $561 forward 7 unknown #
vertex $-1 $560 $562 #
straight-curve $-1 -41.630909146397293 -21.558196645618576 0 0 0 -1 I I #
vertex $-1 $335 $563 #
straight-curve $-1 41.630909146397293 0 -10.610340809469612 0 -1 0 I I #
point $-1 41.630909146397293 -21.558196645618576 -10.610340809469612 #
face $-1 $475 $462 $17 $-1 $564 reversed single #
loop $-1 $-1 $368 $338 #
plane-surface $-1 0 0 -10.610340809469612 0 0 1 1 0 0 forward_v I I I I #
edge $-1 $565 -41.630909146397293 $454 41.630909146397293 $340 $566 forward 7 unknown #
coedge $-1 $342 $341 $474 $567 reversed $137 $-1 #
vertex $-1 $358 $568 #
straight-curve $-1 41.630909146397293 -10.611888155144992 4.470270284916209 0 0 -1 I I #
coedge $-1 $474 $569 $344 $457 forward $361 $-1 #
edge $-1 $463 -13.515675445427684 $458 -2.5693669549541003 $456 $570 forward 7 unknown #
vertex $-1 $457 $571 #
straight-curve $-1 0 -10.611888155144992 7.270740330195224 1 0 0 I I #
coedge $-1 $572 $346 $569 $573 forward $462 $-1 #
coedge $-1 $346 $572 $348 $465 reversed $462 $-1 #
loop $-1 $-1 $346 $449 #
vertex $-1 $573 $574 #
straight-curve $-1 0 -21.558196645618576 7.270740330195224 -1 0 0 I I #
edge $-1 $350 -7.270740330195224 $482 10.610340809469612 $348 $575 forward 7 unknown #
point $-1 41.630909146397293 -10.611888155144992 7.270740330195224 #
point $-1 41.630909146397293 -21.558196645618576 7.270740330195224 #
coedge $-1 $352 $474 $354 $470 reversed $361 $-1 #
straight-curve $-1 -41.630909146397293 35.120386272455548 7.4636997737928326 0 0 -1 I I #
edge $-1 $356 -35.120386272455548 $565 10.611888155144992 $468 $576 forward 7 unknown #
point $-1 -41.630909146397293 35.120386272455548 10.61034080946961 #
straight-curve $-1 41.630909146397293 0 10.610340809469612 0 1 0 I I #
coedge $-1 $569 $360 $577 $578 reversed $361 $-1 #
coedge $-1 $468 $456 $453 $567 forward $361 $-1 #
face $-1 $365 $361 $17 $-1 $579 reversed single #
coedge $-1 $368 $577 $363 $477 forward $450 $-1 #
edge $-1 $478 -41.630909146397293 $370 41.630909146397293 $363 $580 forward 7 unknown #
vertex $-1 $477 $581 #
straight-curve $-1 -41.630909146397293 21.558196645618576 0 0 0 -1 I I #
plane-surface $-1 0 21.558196645618576 0 0 -1 0 0 0 -1 forward_v I I I I #
coedge $-1 $577 $368 $572 $582 forward $450 $-1 #
vertex $-1 $465 $583 #
straight-curve $-1 41.630909146397293 0 -10.610340809469612 0 -1 0 I I #
point $-1 41.630909146397293 21.558196645618576 -10.610340809469612 #
coedge $-1 $584 $497 $496 $585 forward $372 $-1 #
coedge $-1 $586 $374 $587 $588 reversed $259 $-1 #
coedge $-1 $374 $586 $584 $589 forward $259 $-1 #
coedge $-1 $496 $590 $374 $489 reversed $274 $-1 #
edge $-1 $591 -6.7810948134184876 $592 6.7810948134184876 $488 $593 forward 7 unknown #
coedge $-1 $375 $384 $594 $595 forward $154 $-1 #
coedge $-1 $394 $376 $375 $492 reversed $395 $-1 #
edge $-1 $596 -41.630909146397293 $378 28.683968954960136 $375 $597 forward 7 unknown #
straight-curve $-1 -5.4494510433795362 -10.611888155144992 38.251039890767593 -0.77714595512881146 0 0.62932039886446345 I I #
point $-1 28.683968954960136 -10.611888155144992 10.610340809469612 #
point $-1 41.630909146397293 -4.7911407166296867 0.12611514815340286 #
coedge $-1 $382 $488 $485 $585 reversed $274 $-1 #
coedge $-1 $485 $598 $384 $498 reversed $372 $-1 #
edge $-1 $499 -41.630909146397293 $599 41.630909146397293 $497 $600 forward 7 unknown #
vertex $-1 $385 $601 #
straight-curve $-1 41.630909146397293 0 10.610340809469612 0 1 0 I I #
coedge $-1 $590 $388 $602 $603 reversed $274 $-1 #
coedge $-1 $397 $604 $388 $503 reversed $515 $-1 #
edge $-1 $399 -7.270740330195224 $605 10.610340809469612 $388 $606 forward 7 unknown #
straight-curve $-1 41.630909146397293 -3.85075721794367 0.12611514815340286 0 -1 0 I I #
face $-1 $607 $608 $18 $-1 $609 reversed single #
plane-surface $-1 41.630909146397293 0 0 -1 0 0 0 0 1 forward_v I I I I #
coedge $-1 $594 $392 $394 $512 forward $509 $-1 #
coedge $-1 $392 $610 $514 $611 reversed $509 $-1 #
loop $-1 $-1 $507 $612 #
vertex $-1 $611 $613 #
straight-curve $-1 -41.630909146397293 -8.0425212001908921 7.270740330195224 0 1 0 I I #
edge $-1 $396 2.800470045279015 $596 6.1400705245534031 $507 $614 forward 7 unknown #
point $-1 -41.630909146397293 -10.611888155144992 7.270740330195224 #
coedge $-1 $604 $397 $508 $611 forward $515 $-1 #
loop $-1 $-1 $397 $607 #
straight-curve $-1 0 -21.558196645618576 7.270740330195224 -1 0 0 I I #
point $-1 41.630909146397293 -21.558196645618576 7.270740330195224 #
plane-surface $-1 0 -10.611888155144992 8.9405405698324181 0 -1 0 0 0 -1 forward_v I I I I #
face $-1 $544 $615 $19 $-1 $616 reversed single #
loop $-1 $-1 $617 $403 #
plane-surface $-1 0 28.33929145903706 4.3170587381160548 0 0 1 1 0 0 forward_v I I I I #
coedge $-1 $408 $618 $422 $548 forward $404 $-1 #
coedge $-1 $422 $536 $406 $524 reversed $297 $-1 #
edge $-1 $528 66.602219016760003 $619 83.261818292794601 $406 $620 forward 7 unknown #
coedge $-1 $532 $621 $407 $526 forward $533 $-1 #
edge $-1 $529 48.005189765165774 $619 58.489415426481983 $525 $622 forward 7 unknown #
coedge $-1 $623 $408 $621 $624 forward $404 $-1 #
vertex $-1 $548 $625 #
vertex $-1 $624 $626 #
straight-curve $-1 14.661342270841931 -4.7911407166296867 10.610340809469612 1 0 0 I I #
coedge $-1 $627 $410 $415 $543 forward $533 $-1 #
coedge $-1 $410 $525 $536 $628 forward $533 $-1 #
loop $-1 $-1 $410 $629 #
vertex $-1 $628 $630 #
straight-curve $-1 41.630909146397293 -10.611888155144992 58.615530574635386 0 0 1 I I #
coedge $-1 $523 $412 $532 $628 reversed $297 $-1 #
coedge $-1 $412 $422 $631 $632 reversed $297 $-1 #
straight-curve $-1 -23.075676156518107 -10.611888155144992 52.524475846355372 -0.77714595512881146 0 0.62932039886446345 I I #
coedge $-1 $542 $414 $633 $634 reversed $416 $-1 #
coedge $-1 $631 $635 $414 $541 forward $636 $-1 #
edge $-1 $637 -41.630909146397293 $417 32.80803200598686 $540 $419 forward 7 unknown #
coedge $-1 $415 $539 $638 $639 reversed $416 $-1 #
edge $-1 $418 2.5693669549541003 $640 13.515675445427684 $531 $641 forward 7 unknown #
face $-1 $642 $416 $19 $-1 $643 forward single #
point $-1 32.80803200598686 -10.611888155144992 7.270740330195224 #
point $-1 41.630909146397293 -10.611888155144992 7.270740330195224 #
point $-1 32.998347873593659 -7.70151443588734 2.7019724783485182 #
edge $-1 $644 -6.7611309372013224 $528 -0.94038349868601667 $522 $645 forward 7 unknown #
loop $-1 $-1 $440 $427 #
plane-surface $-1 0 21.558196645618576 0 0 -1 0 0 0 -1 forward_v I I I I #
coedge $-1 $430 $429 $442 $560 forward $208 $-1 #
coedge $-1 $554 $440 $430 $553 reversed $549 $-1 #
edge $-1 $646 -41.630909146397293 $446 41.630909146397293 $552 $647 forward 7 unknown #
coedge $-1 $431 $552 $435 $557 reversed $549 $-1 #
straight-curve $-1 0 21.558196645618576 10.610340809469612 -1 0 0 I I #
point $-1 41.630909146397293 21.558196645618576 10.610340809469612 #
edge $-1 $436 -10.610340809469612 $646 10.610340809469612 $554 $648 forward 7 unknown #
point $-1 -41.630909146397293 21.558196645618576 10.610340809469612 #
straight-curve $-1 41.630909146397293 21.558196645618576 0 0 0 -1 I I #
edge $-1 $444 -21.558196645618576 $646 21.558196645618576 $442 $649 forward 7 unknown #
straight-curve $-1 0 -21.558196645618576 -10.610340809469612 -1 0 0 I I #
point $-1 -41.630909146397293 -21.558196645618576 -10.610340809469612 #
point $-1 41.630909146397293 21.558196645618576 -10.610340809469612 #
plane-surface $-1 0 -21.558196645618576 0 0 1 0 0 0 1 forward_v I I I I #
vertex $-1 $567 $650 #
straight-curve $-1 0 -10.611888155144992 10.610340809469612 1 0 0 I I #
edge $-1 $458 2.800470045279015 $565 6.1400705245534031 $474 $651 forward 7 unknown #
point $-1 41.630909146397293 -10.611888155144992 10.610340809469612 #
coedge $-1 $456 $473 $460 $573 reversed $361 $-1 #
straight-curve $-1 -41.630909146397293 -8.0425212001908921 7.270740330195224 0 1 0 I I #
point $-1 -41.630909146397293 -10.611888155144992 7.270740330195224 #
coedge $-1 $461 $460 $481 $582 reversed $462 $-1 #
edge $-1 $463 -7.270740330195224 $652 10.610340809469612 $569 $653 forward 7 unknown #
point $-1 -41.630909146397293 -21.558196645618576 7.270740330195224 #
straight-curve $-1 41.630909146397293 -21.558196645618576 0 0 0 -1 I I #
straight-curve $-1 -41.630909146397293 0 10.610340809469612 0 -1 0 I I #
coedge $-1 $476 $481 $473 $578 forward $450 $-1 #
edge $-1 $652 -21.558196645618576 $478 21.558196645618576 $473 $654 forward 7 unknown #
plane-surface $-1 -41.630909146397293 0 0 1 0 0 0 0 -1 forward_v I I I I #
straight-curve $-1 0 21.558196645618576 -10.610340809469612 1 0 0 I I #
point $-1 -41.630909146397293 21.558196645618576 -10.610340809469612 #
edge $-1 $482 -41.630909146397293 $652 41.630909146397293 $572 $655 forward 7 unknown #
point $-1 41.630909146397293 -21.558196645618576 -10.610340809469612 #
coedge $-1 $598 $485 $487 $589 reversed $372 $-1 #
edge $-1 $499 -3.1466410356767778 $591 3.1466410356767778 $496 $656 forward 7 unknown #
coedge $-1 $487 $486 $657 $658 forward $259 $-1 #
coedge $-1 $659 $660 $486 $588 forward $661 $-1 #
edge $-1 $662 -41.630909146397293 $592 41.630909146397293 $587 $663 forward 7 unknown #
edge $-1 $664 -41.630909146397293 $591 41.630909146397293 $584 $665 forward 7 unknown #
coedge $-1 $488 $501 $659 $666 reversed $274 $-1 #
vertex $-1 $489 $667 #
vertex $-1 $666 $668 #
straight-curve $-1 41.630909146397293 28.33929145903706 4.3170587381160548 0 -1 0 I I #
coedge $-1 $669 $507 $490 $595 reversed $509 $-1 #
edge $-1 $599 -35.120386272455548 $596 10.611888155144992 $594 $670 forward 7 unknown #
vertex $-1 $512 $671 #
straight-curve $-1 0 -10.611888155144992 10.610340809469612 1 0 0 I I #
coedge $-1 $497 $584 $669 $672 reversed $372 $-1 #
vertex $-1 $498 $673 #
straight-curve $-1 0 35.120386272455548 10.61034080946961 -1 0 0 I I #
point $-1 41.630909146397293 35.120386272455548 10.61034080946961 #
coedge $-1 $674 $675 $501 $603 forward $608 $-1 #
edge $-1 $676 -21.558196645618576 $605 21.558196645618576 $501 $677 forward 7 unknown #
coedge $-1 $502 $514 $674 $678 reversed $515 $-1 #
vertex $-1 $503 $679 #
straight-curve $-1 41.630909146397293 -21.558196645618576 0 0 0 -1 I I #
face $-1 $612 $515 $18 $-1 $680 reversed single #
loop $-1 $-1 $602 $505 #
plane-surface $-1 0 0 -10.610340809469612 0 0 1 1 0 0 forward_v I I I I #
coedge $-1 $508 $681 $682 $683 reversed $509 $-1 #
edge $-1 $510 -7.270740330195224 $684 10.610340809469612 $508 $685 forward 7 unknown #
face $-1 $686 $509 $18 $-1 $687 reversed single #
point $-1 -41.630909146397293 -21.558196645618576 7.270740330195224 #
straight-curve $-1 -41.630909146397293 -10.611888155144992 4.470270284916209 0 0 1 I I #
loop $-1 $-1 $688 $519 #
plane-surface $-1 0 35.120386272455548 7.4636997737928326 0 -1 0 0 0 -1 forward_v I I I I #
coedge $-1 $689 $690 $691 $692 forward $520 $-1 #
coedge $-1 $522 $693 $694 $695 forward $404 $-1 #
vertex $-1 $628 $696 #
straight-curve $-1 -23.075676156518107 -4.7911407166296867 52.524475846355372 0.77714595512881146 0 -0.62932039886446345 I I #
coedge $-1 $525 $697 $527 $624 reversed $533 $-1 #
straight-curve $-1 41.630909146397293 -4.7911407166296867 58.615530574635386 0 0 -1 I I #
coedge $-1 $693 $527 $698 $699 forward $404 $-1 #
edge $-1 $529 -4.7911407166296867 $700 35.120386272455548 $621 $701 forward 7 unknown #
point $-1 28.683968954960136 -4.7911407166296867 10.610340809469612 #
point $-1 41.630909146397293 -4.7911407166296867 10.610340809469612 #
coedge $-1 $702 $531 $703 $704 forward $533 $-1 #
edge $-1 $619 0.94038349868601667 $534 6.7611309372013224 $532 $705 forward 7 unknown #
face $-1 $706 $533 $19 $-1 $707 reversed single #
point $-1 41.630909146397293 -10.611888155144992 0.12611514815340286 #
coedge $-1 $694 $540 $537 $632 forward $636 $-1 #
edge $-1 $417 -49.228182681624133 $644 -43.921505057157617 $631 $708 forward 7 unknown #
coedge $-1 $709 $710 $539 $634 forward $711 $-1 #
edge $-1 $712 -13.515675445427684 $637 -2.5693669549541003 $633 $713 forward 7 unknown #
coedge $-1 $540 $694 $709 $714 reversed $636 $-1 #
loop $-1 $-1 $631 $642 #
vertex $-1 $634 $715 #
coedge $-1 $716 $703 $542 $639 forward $717 $-1 #
edge $-1 $640 -41.630909146397293 $712 41.630909146397293 $638 $718 forward 7 unknown #
vertex $-1 $704 $719 #
straight-curve $-1 41.630909146397293 -8.0425212001908921 7.270740330195224 0 -1 0 I I #
face $-1 $629 $636 $19 $-1 $720 forward single #
plane-surface $-1 0 -16.085042400381784 7.270740330195224 0 0 1 1 0 0 forward_v I I I I #
vertex $-1 $548 $721 #
straight-curve $-1 28.683968954960147 -3.85075721794367 10.610340809469609 0 1 0 I I #
vertex $-1 $553 $722 #
straight-curve $-1 0 21.558196645618576 -10.610340809469612 1 0 0 I I #
straight-curve $-1 -41.630909146397293 21.558196645618576 0 0 0 -1 I I #
straight-curve $-1 -41.630909146397293 0 -10.610340809469612 0 1 0 I I #
point $-1 -41.630909146397293 -10.611888155144992 10.610340809469612 #
straight-curve $-1 -41.630909146397293 -10.611888155144992 4.470270284916209 0 0 1 I I #
vertex $-1 $578 $723 #
straight-curve $-1 -41.630909146397293 -21.558196645618576 0 0 0 -1 I I #
straight-curve $-1 -41.630909146397293 0 -10.610340809469612 0 1 0 I I #
straight-curve $-1 0 -21.558196645618576 -10.610340809469612 -1 0 0 I I #
straight-curve $-1 41.630909146397293 35.120386272455548 7.4636997737928326 0 0 -1 I I #
coedge $-1 $681 $669 $586 $658 reversed $509 $-1 #
edge $-1 $662 -6.7810948134184876 $664 6.7810948134184876 $657 $724 forward 7 unknown #
coedge $-1 $725 $587 $590 $666 forward $661 $-1 #
coedge $-1 $587 $725 $681 $726 reversed $661 $-1 #
loop $-1 $-1 $587 $686 #
vertex $-1 $726 $727 #
straight-curve $-1 0 21.558196645618576 4.3170587381160548 1 0 0 I I #
vertex $-1 $589 $728 #
straight-curve $-1 0 35.120386272455548 4.3170587381160548 1 0 0 I I #
edge $-1 $592 -4.3170587381160548 $676 10.610340809469612 $590 $729 forward 7 unknown #
point $-1 41.630909146397293 35.120386272455548 4.3170587381160548 #
point $-1 41.630909146397293 21.558196645618573 4.3170587381160548 #
coedge $-1 $657 $594 $598 $672 forward $509 $-1 #
straight-curve $-1 -41.630909146397293 0 10.610340809469612 0 -1 0 I I #
point $-1 -41.630909146397293 -10.611888155144992 10.610340809469612 #
edge $-1 $599 -3.1466410356767778 $664 3.1466410356767778 $598 $730 forward 7 unknown #
point $-1 -41.630909146397293 35.120386272455548 10.61034080946961 #
coedge $-1 $682 $602 $604 $678 forward $608 $-1 #
coedge $-1 $602 $682 $725 $731 forward $608 $-1 #
vertex $-1 $603 $732 #
straight-curve $-1 41.630909146397293 0 -10.610340809469612 0 -1 0 I I #
edge $-1 $605 -41.630909146397293 $684 41.630909146397293 $604 $733 forward 7 unknown #
point $-1 41.630909146397293 -21.558196645618576 -10.610340809469612 #
plane-surface $-1 0 -21.558196645618576 0 0 1 0 0 0 1 forward_v I I I I #
coedge $-1 $610 $657 $660 $726 forward $509 $-1 #
coedge $-1 $675 $674 $610 $683 forward $608 $-1 #
edge $-1 $684 -21.558196645618576 $734 21.558196645618576 $610 $735 forward 7 unknown #
vertex $-1 $683 $736 #
straight-curve $-1 -41.630909146397293 -21.558196645618576 0 0 0 -1 I I #
face $-1 $-1 $661 $18 $-1 $737 reversed single #
plane-surface $-1 -41.630909146397293 0 0 1 0 0 0 0 -1 forward_v I I I I #
coedge $-1 $738 $698 $697 $739 forward $615 $-1 #
coedge $-1 $740 $617 $741 $742 reversed $520 $-1 #
coedge $-1 $617 $740 $738 $743 forward $520 $-1 #
coedge $-1 $697 $744 $617 $692 reversed $533 $-1 #
edge $-1 $745 -6.7810948134184876 $746 6.7810948134184876 $691 $747 forward 7 unknown #
coedge $-1 $618 $623 $748 $749 forward $404 $-1 #
coedge $-1 $635 $631 $618 $695 reversed $636 $-1 #
edge $-1 $750 -41.630909146397293 $644 28.683968954960136 $618 $751 forward 7 unknown #
point $-1 41.630909146397293 -4.7911407166296867 0.12611514815340286 #
coedge $-1 $621 $691 $688 $739 reversed $533 $-1 #
coedge $-1 $688 $752 $623 $699 reversed $615 $-1 #
edge $-1 $700 -41.630909146397293 $753 41.630909146397293 $698 $754 forward 7 unknown #
vertex $-1 $624 $755 #
straight-curve $-1 41.630909146397293 0 10.610340809469612 0 1 0 I I #
coedge $-1 $744 $627 $756 $757 reversed $533 $-1 #
coedge $-1 $638 $758 $627 $704 reversed $717 $-1 #
edge $-1 $640 -7.270740330195224 $759 10.610340809469612 $627 $760 forward 7 unknown #
straight-curve $-1 41.630909146397293 -3.85075721794367 0.12611514815340286 0 -1 0 I I #
face $-1 $761 $762 $19 $-1 $763 reversed single #
plane-surface $-1 41.630909146397293 0 0 -1 0 0 0 0 1 forward_v I I I I #
straight-curve $-1 -5.4494510433795362 -10.611888155144992 38.251039890767593 -0.77714595512881146 0 0.62932039886446345 I I #
coedge $-1 $748 $633 $635 $714 forward $711 $-1 #
coedge $-1 $633 $764 $716 $765 reversed $711 $-1 #
loop $-1 $-1 $709 $766 #
vertex $-1 $765 $767 #
straight-curve $-1 -41.630909146397293 -8.0425212001908921 7.270740330195224 0 1 0 I I #
edge $-1 $637 2.800470045279015 $750 6.1400705245534031 $709 $768 forward 7 unknown #
point $-1 -41.630909146397293 -10.611888155144992 7.270740330195224 #
coedge $-1 $758 $638 $710 $765 forward $717 $-1 #
loop $-1 $-1 $638 $761 #
straight-curve $-1 0 -21.558196645618576 7.270740330195224 -1 0 0 I I #
point $-1 41.630909146397293 -21.558196645618576 7.270740330195224 #
plane-surface $-1 0 -10.611888155144992 8.9405405698324181 0 -1 0 0 0 -1 forward_v I I I I #
point $-1 28.683968954960136 -10.611888155144992 10.610340809469612 #
point $-1 -41.630909146397293 21.558196645618576 -10.610340809469612 #
point $-1 -41.630909146397293 -21.558196645618576 -10.610340809469612 #
straight-curve $-1 -41.630909146397293 28.33929145903706 4.3170587381160548 0 1 0 I I #
coedge $-1 $660 $659 $675 $731 reversed $661 $-1 #
edge $-1 $662 -4.3170587381160548 $734 10.610340809469612 $660 $769 forward 7 unknown #
point $-1 -41.630909146397293 21.558196645618573 4.3170587381160548 #
point $-1 -41.630909146397293 35.120386272455548 4.3170587381160548 #
straight-curve $-1 41.630909146397293 21.558196645618576 0 0 0 -1 I I #
straight-curve $-1 -41.630909146397293 35.120386272455548 7.4636997737928326 0 0 -1 I I #
edge $-1 $734 -41.630909146397293 $676 41.630909146397293 $725 $770 forward 7 unknown #
point $-1 41.630909146397293 21.558196645618576 -10.610340809469612 #
straight-curve $-1 0 -21.558196645618576 -10.610340809469612 -1 0 0 I I #
vertex $-1 $731 $771 #
straight-curve $-1 -41.630909146397293 0 -10.610340809469612 0 1 0 I I #
point $-1 -41.630909146397293 -21.558196645618576 -10.610340809469612 #
plane-surface $-1 0 21.558196645618576 0 0 -1 0 0 0 -1 forward_v I I I I #
coedge $-1 $752 $688 $690 $743 reversed $615 $-1 #
edge $-1 $700 -3.1466410356767778 $745 3.1466410356767778 $697 $772 forward 7 unknown #
coedge $-1 $690 $689 $773 $774 forward $520 $-1 #
coedge $-1 $775 $776 $689 $742 forward $777 $-1 #
edge $-1 $778 -41.630909146397293 $746 41.630909146397293 $741 $779 forward 7 unknown #
edge $-1 $780 -41.630909146397293 $745 41.630909146397293 $738 $781 forward 7 unknown #
coedge $-1 $691 $702 $775 $782 reversed $533 $-1 #
vertex $-1 $692 $783 #
vertex $-1 $782 $784 #
straight-curve $-1 41.630909146397293 28.33929145903706 4.3170587381160548 0 -1 0 I I #
coedge $-1 $785 $709 $693 $749 reversed $711 $-1 #
edge $-1 $753 -35.120386272455548 $750 10.611888155144992 $748 $786 forward 7 unknown #
vertex $-1 $714 $787 #
straight-curve $-1 0 -10.611888155144992 10.610340809469612 1 0 0 I I #
coedge $-1 $698 $738 $785 $788 reversed $615 $-1 #
vertex $-1 $699 $789 #
straight-curve $-1 0 35.120386272455548 10.61034080946961 -1 0 0 I I #
point $-1 41.630909146397293 35.120386272455548 10.61034080946961 #
coedge $-1 $790 $791 $702 $757 forward $762 $-1 #
edge $-1 $792 -21.558196645618576 $759 21.558196645618576 $702 $793 forward 7 unknown #
coedge $-1 $703 $716 $790 $794 reversed $717 $-1 #
vertex $-1 $704 $795 #
straight-curve $-1 41.630909146397293 -21.558196645618576 0 0 0 -1 I I #
face $-1 $766 $717 $19 $-1 $796 reversed single #
loop $-1 $-1 $756 $706 #
plane-surface $-1 0 0 -10.610340809469612 0 0 1 1 0 0 forward_v I I I I #
coedge $-1 $710 $797 $798 $799 reversed $711 $-1 #
edge $-1 $712 -7.270740330195224 $800 10.610340809469612 $710 $801 forward 7 unknown #
face $-1 $802 $711 $19 $-1 $803 reversed single #
point $-1 -41.630909146397293 -21.558196645618576 7.270740330195224 #
straight-curve $-1 -41.630909146397293 -10.611888155144992 4.470270284916209 0 0 1 I I #
straight-curve $-1 -41.630909146397293 21.558196645618576 0 0 0 -1 I I #
straight-curve $-1 0 21.558196645618576 -10.610340809469612 1 0 0 I I #
point $-1 -41.630909146397293 21.558196645618576 -10.610340809469612 #
straight-curve $-1 41.630909146397293 35.120386272455548 7.4636997737928326 0 0 -1 I I #
coedge $-1 $797 $785 $740 $774 reversed $711 $-1 #
edge $-1 $778 -6.7810948134184876 $780 6.7810948134184876 $773 $804 forward 7 unknown #
coedge $-1 $805 $741 $744 $782 forward $777 $-1 #
coedge $-1 $741 $805 $797 $806 reversed $777 $-1 #
loop $-1 $-1 $741 $802 #
vertex $-1 $806 $807 #
straight-curve $-1 0 21.558196645618576 4.3170587381160548 1 0 0 I I #
vertex $-1 $743 $808 #
straight-curve $-1 0 35.120386272455548 4.3170587381160548 1 0 0 I I #
edge $-1 $746 -4.3170587381160548 $792 10.610340809469612 $744 $809 forward 7 unknown #
point $-1 41.630909146397293 35.120386272455548 4.3170587381160548 #
point $-1 41.630909146397293 21.558196645618573 4.3170587381160548 #
coedge $-1 $773 $748 $752 $788 forward $711 $-1 #
straight-curve $-1 -41.630909146397293 0 10.610340809469612 0 -1 0 I I #
point $-1 -41.630909146397293 -10.611888155144992 10.610340809469612 #
edge $-1 $753 -3.1466410356767778 $780 3.1466410356767778 $752 $810 forward 7 unknown #
point $-1 -41.630909146397293 35.120386272455548 10.61034080946961 #
coedge $-1 $798 $756 $758 $794 forward $762 $-1 #
coedge $-1 $756 $798 $805 $811 forward $762 $-1 #
vertex $-1 $757 $812 #
straight-curve $-1 41.630909146397293 0 -10.610340809469612 0 -1 0 I I #
edge $-1 $759 -41.630909146397293 $800 41.630909146397293 $758 $813 forward 7 unknown #
point $-1 41.630909146397293 -21.558196645618576 -10.610340809469612 #
plane-surface $-1 0 -21.558196645618576 0 0 1 0 0 0 1 forward_v I I I I #
coedge $-1 $764 $773 $776 $806 forward $711 $-1 #
coedge $-1 $791 $790 $764 $799 forward $762 $-1 #
edge $-1 $800 -21.558196645618576 $814 21.558196645618576 $764 $815 forward 7 unknown #
vertex $-1 $799 $816 #
straight-curve $-1 -41.630909146397293 -21.558196645618576 0 0 0 -1 I I #
face $-1 $-1 $777 $19 $-1 $817 reversed single #
plane-surface $-1 -41.630909146397293 0 0 1 0 0 0 0 -1 forward_v I I I I #
straight-curve $-1 -41.630909146397293 28.33929145903706 4.3170587381160548 0 1 0 I I #
coedge $-1 $776 $775 $791 $811 reversed $777 $-1 #
edge $-1 $778 -4.3170587381160548 $814 10.610340809469612 $776 $818 forward 7 unknown #
point $-1 -41.630909146397293 21.558196645618573 4.3170587381160548 #
point $-1 -41.630909146397293 35.120386272455548 4.3170587381160548 #
straight-curve $-1 41.630909146397293 21.558196645618576 0 0 0 -1 I I #
straight-curve $-1 -41.630909146397293 35.120386272455548 7.4636997737928326 0 0 -1 I I #
edge $-1 $814 -41.630909146397293 $792 41.630909146397293 $805 $819 forward 7 unknown #
point $-1 41.630909146397293 21.558196645618576 -10.610340809469612 #
straight-curve $-1 0 -21.558196645618576 -10.610340809469612 -1 0 0 I I #
vertex $-1 $811 $820 #
straight-curve $-1 -41.630909146397293 0 -10.610340809469612 0 1 0 I I #
point $-1 -41.630909146397293 -21.558196645618576 -10.610340809469612 #
plane-surface $-1 0 21.558196645618576 0 0 -1 0 0 0 -1 forward_v I I I I #
straight-curve $-1 -41.630909146397293 21.558196645618576 0 0 0 -1 I I #
straight-curve $-1 0 21.558196645618576 -10.610340809469612 1 0 0 I I #
point $-1 -41.630909146397293 21.558196645618576 -10.610340809469612 #
End-of-ACIS-data 