500 0 13 0           
7 Unknown 11 ACIS 5.0 NT 24 Fri Mar 26 17:42:46 1999 
-1 9.9999999999999995e-007 1e-010 
body $-1 $13 $-1 $14 #
body $-1 $15 $-1 $16 #
body $-1 $17 $-1 $18 #
body $-1 $19 $-1 $20 #
body $-1 $21 $-1 $22 #
body $-1 $23 $-1 $24 #
body $-1 $25 $-1 $26 #
body $-1 $27 $-1 $28 #
body $-1 $29 $-1 $30 #
body $-1 $31 $-1 $32 #
body $-1 $33 $-1 $34 #
body $-1 $35 $-1 $36 #
body $-1 $37 $-1 $38 #
lump $-1 $-1 $39 $0 #
transform $-1 1 0 0 0 1 0 0 0 1 63.778801843317972 33.720995285945072 16.636356501785404 1 rotate no_reflect no_shear #
lump $-1 $-1 $40 $1 #
transform $-1 1 0 0 0 1 0 0 0 1 63.778801843317972 33.720995285945072 16.636356501785404 1 rotate no_reflect no_shear #
lump $-1 $-1 $41 $2 #
transform $-1 1 0 0 0 1 0 0 0 1 63.778801843317972 33.720995285945072 16.636356501785404 1 rotate no_reflect no_shear #
lump $-1 $-1 $42 $3 #
transform $-1 1 0 0 0 1 0 0 0 1 63.778801843317972 33.720995285945072 16.636356501785404 1 rotate no_reflect no_shear #
lump $-1 $-1 $43 $4 #
transform $-1 1 0 0 0 1 0 0 0 1 63.778801843317972 33.720995285945072 16.636356501785404 1 rotate no_reflect no_shear #
lump $-1 $-1 $44 $5 #
transform $-1 1 0 0 0 1 0 0 0 1 63.778801843317972 33.720995285945072 16.636356501785404 1 rotate no_reflect no_shear #
lump $-1 $-1 $45 $6 #
transform $-1 1 0 0 0 1 0 0 0 1 63.778801843317972 33.720995285945072 16.636356501785404 1 rotate no_reflect no_shear #
lump $-1 $-1 $46 $7 #
transform $-1 1 0 0 0 1 0 0 0 1 63.778801843317972 33.720995285945072 16.636356501785404 1 rotate no_reflect no_shear #
lump $-1 $-1 $47 $8 #
transform $-1 1 0 0 0 1 0 0 0 1 63.778801843317972 33.720995285945072 16.636356501785404 1 rotate no_reflect no_shear #
lump $-1 $-1 $48 $9 #
transform $-1 1 0 0 0 1 0 0 0 1 63.778801843317972 33.720995285945072 16.636356501785404 1 rotate no_reflect no_shear #
lump $-1 $-1 $49 $10 #
transform $-1 1 0 0 0 1 0 0 0 1 63.778801843317972 33.720995285945072 16.636356501785404 1 rotate no_reflect no_shear #
lump $-1 $-1 $50 $11 #
transform $-1 1 0 0 0 1 0 0 0 1 63.778801843317972 33.720995285945072 16.636356501785404 1 rotate no_reflect no_shear #
lump $-1 $-1 $51 $12 #
transform $-1 1 0 0 0 1 0 0 0 1 63.778801843317972 33.720995285945072 16.636356501785404 1 rotate no_reflect no_shear #
shell $-1 $-1 $-1 $52 $-1 $13 #
shell $-1 $-1 $-1 $53 $-1 $15 #
shell $-1 $-1 $-1 $54 $-1 $17 #
shell $-1 $-1 $-1 $55 $-1 $19 #
shell $-1 $-1 $-1 $56 $-1 $21 #
shell $-1 $-1 $-1 $57 $-1 $23 #
shell $-1 $-1 $-1 $58 $-1 $25 #
shell $-1 $-1 $-1 $59 $-1 $27 #
shell $-1 $-1 $-1 $60 $-1 $29 #
shell $-1 $-1 $-1 $61 $-1 $31 #
shell $-1 $-1 $-1 $62 $-1 $33 #
shell $-1 $-1 $-1 $63 $-1 $35 #
shell $-1 $-1 $-1 $64 $-1 $37 #
face $-1 $65 $66 $39 $-1 $67 forward single #
face $-1 $68 $69 $40 $-1 $70 forward single #
face $-1 $71 $72 $41 $-1 $73 reversed single #
face $-1 $74 $75 $42 $-1 $76 forward single #
face $-1 $77 $78 $43 $-1 $79 forward single #
face $-1 $80 $81 $44 $-1 $82 reversed single #
face $-1 $83 $84 $45 $-1 $85 forward single #
face $-1 $86 $87 $46 $-1 $88 forward single #
face $-1 $89 $90 $47 $-1 $91 forward single #
face $-1 $92 $93 $48 $-1 $94 reversed single #
face $-1 $95 $96 $49 $-1 $97 forward single #
face $-1 $98 $99 $50 $-1 $100 forward single #
face $-1 $101 $102 $51 $-1 $103 forward single #
face $-1 $104 $105 $39 $-1 $106 reversed single #
loop $-1 $-1 $107 $52 #
plane-surface $-1 0 0 16.636356501785404 0 0 1 1 0 0 forward_v I I I I #
face $-1 $108 $109 $40 $-1 $110 reversed single #
loop $-1 $-1 $111 $53 #
plane-surface $-1 0 -33.720995285945072 0 0 1 0 0 0 1 forward_v I I I I #
face $-1 $112 $113 $41 $-1 $114 reversed single #
loop $-1 $-1 $115 $54 #
plane-surface $-1 -162.90967945709147 -5.3356455714278432 89.676931418663415 0 1 0 -0.77714596973225614 0 0.62932038083071107 forward_v I I I I #
face $-1 $116 $117 $42 $-1 $118 forward single #
loop $-1 $119 $120 $55 #
cone-surface $-1 -60.408791011216806 -1.3778163222703483 12.662219615712861 0.77714596973225614 0 -0.62932038083071107 0.62932038083071107 0 0.77714596973225614 1 I I 0 1 1 forward I I I I #
face $-1 $121 $122 $43 $-1 $123 forward single #
loop $-1 $124 $125 $56 #
cone-surface $-1 -60.408791011216806 4.5589275514659064 12.662219615712861 0.77714596973225614 0 -0.62932038083071107 0.62932038083071107 0 0.77714596973225614 1 I I 0 1 1 forward I I I I #
face $-1 $126 $127 $44 $-1 $128 reversed single #
loop $-1 $-1 $129 $57 #
plane-surface $-1 41.794342662935172 -6.8623857916388129 192.59053783054938 0 -1 0 -0.61566148304635926 0 -0.78801074757464917 forward_v I I I I #
face $-1 $130 $131 $45 $-1 $132 forward single #
loop $-1 $133 $134 $58 #
cone-surface $-1 61.295154341831861 -13.643199583800573 14.445088629538999 -0.61566148304635926 0 -0.78801074757464917 0.39400537378732459 0 -0.30783074152317963 1 I I 0 1 0.5 forward I I I I #
face $-1 $135 $136 $46 $-1 $137 forward single #
loop $-1 $138 $139 $59 #
cone-surface $-1 61.295154341831861 -11.100394411739913 14.445088629538999 -0.61566148304635926 0 -0.78801074757464917 0.39400537378732459 0 -0.30783074152317963 1 I I 0 1 0.5 forward I I I I #
face $-1 $140 $141 $47 $-1 $142 forward single #
loop $-1 $143 $144 $60 #
cone-surface $-1 61.295154341831861 -8.5575892396792526 14.445088629538999 -0.61566148304635926 0 -0.78801074757464917 0.39400537378732459 0 -0.30783074152317963 1 I I 0 1 0.5 forward I I I I #
face $-1 $145 $146 $48 $-1 $147 reversed single #
loop $-1 $-1 $148 $61 #
plane-surface $-1 41.794342662935172 19.059820456272881 192.59053783054938 0 -1 0 -0.61566148304635926 0 -0.78801074757464917 forward_v I I I I #
face $-1 $149 $150 $49 $-1 $151 forward single #
loop $-1 $152 $153 $62 #
cone-surface $-1 61.295154341831861 12.279006664111122 14.445088629538999 -0.61566148304635926 0 -0.78801074757464917 0.39400537378732459 0 -0.30783074152317963 1 I I 0 1 0.5 forward I I I I #
face $-1 $154 $155 $50 $-1 $156 forward single #
loop $-1 $157 $158 $63 #
cone-surface $-1 61.295154341831861 14.821811836171783 14.445088629538999 -0.61566148304635926 0 -0.78801074757464917 0.39400537378732459 0 -0.30783074152317963 1 I I 0 1 0.5 forward I I I I #
face $-1 $159 $160 $51 $-1 $161 forward single #
loop $-1 $162 $163 $64 #
cone-surface $-1 61.295154341831861 17.364617008232443 14.445088629538999 -0.61566148304635926 0 -0.78801074757464917 0.39400537378732459 0 -0.30783074152317963 1 I I 0 1 0.5 forward I I I I #
face $-1 $164 $165 $39 $-1 $166 reversed single #
loop $-1 $-1 $167 $65 #
plane-surface $-1 0 0 -16.636356501785404 0 0 1 1 0 0 forward_v I I I I #
coedge $-1 $168 $169 $170 $171 forward $66 $-1 #
face $-1 $172 $173 $40 $-1 $174 forward single #
loop $-1 $-1 $175 $68 #
plane-surface $-1 -63.778801843317972 0 0 1 0 0 0 0 -1 forward_v I I I I #
coedge $-1 $176 $177 $178 $179 forward $69 $-1 #
face $-1 $180 $181 $41 $-1 $182 reversed single #
loop $-1 $-1 $183 $71 #
plane-surface $-1 -63.778801843317979 1.5905556145977826 9.4023316887367798 -0.77714596973225614 0 0.62932038083071107 0.62932038083071107 0 0.77714596973225614 forward_v I I I I #
coedge $-1 $184 $185 $186 $187 reversed $72 $-1 #
face $-1 $-1 $188 $42 $-1 $189 forward single #
loop $-1 $190 $191 $74 #
cone-surface $-1 -59.579206010170182 -1.3778163222703483 11.990434945749282 0.77714596973225614 0 -0.62932038083071107 0.31466019041535553 0 0.38857298486612807 1 I I -0.70710678118654746 0.70710678118654746 0.5 forward I I I I #
loop $-1 $-1 $192 $55 #
coedge $-1 $120 $120 $193 $194 reversed $75 $-1 #
face $-1 $-1 $195 $43 $-1 $196 forward single #
loop $-1 $197 $198 $77 #
cone-surface $-1 -59.579206010170182 4.5589275514659064 11.990434945749282 0.77714596973225614 0 -0.62932038083071107 0.31466019041535553 0 0.38857298486612807 1 I I -0.70710678118654746 0.70710678118654746 0.5 forward I I I I #
loop $-1 $-1 $199 $56 #
coedge $-1 $125 $125 $200 $201 reversed $78 $-1 #
face $-1 $202 $203 $44 $-1 $204 reversed single #
loop $-1 $-1 $205 $80 #
plane-surface $-1 -36.737960796618857 -11.100394411739913 92.073775190612565 0.61566148304635926 0 0.78801074757464917 0.78801074757464917 0 -0.61566148304635926 forward_v I I I I #
coedge $-1 $206 $207 $208 $209 reversed $81 $-1 #
face $-1 $-1 $210 $45 $-1 $211 forward single #
loop $-1 $212 $213 $83 #
cone-surface $-1 60.638227362031436 -13.643199583800573 13.604260455762354 -0.61566148304635926 0 -0.78801074757464917 0.19700268689366229 0 -0.15391537076158981 1 I I -0.70710678118654746 0.70710678118654746 0.25 forward I I I I #
loop $-1 $-1 $214 $58 #
coedge $-1 $134 $134 $215 $216 reversed $84 $-1 #
face $-1 $-1 $217 $46 $-1 $218 forward single #
loop $-1 $219 $220 $86 #
cone-surface $-1 60.638227362031436 -11.100394411739913 13.604260455762354 -0.61566148304635926 0 -0.78801074757464917 0.19700268689366229 0 -0.15391537076158981 1 I I -0.70710678118654746 0.70710678118654746 0.25 forward I I I I #
loop $-1 $-1 $221 $59 #
coedge $-1 $139 $139 $222 $223 reversed $87 $-1 #
face $-1 $-1 $224 $47 $-1 $225 forward single #
loop $-1 $226 $227 $89 #
cone-surface $-1 60.638227362031436 -8.5575892396792526 13.604260455762354 -0.61566148304635926 0 -0.78801074757464917 0.19700268689366229 0 -0.15391537076158981 1 I I -0.70710678118654746 0.70710678118654746 0.25 forward I I I I #
loop $-1 $-1 $228 $60 #
coedge $-1 $144 $144 $229 $230 reversed $90 $-1 #
face $-1 $231 $232 $48 $-1 $233 reversed single #
loop $-1 $-1 $234 $92 #
plane-surface $-1 -36.737960796618857 14.821811836171783 92.073775190612565 0.61566148304635926 0 0.78801074757464917 0.78801074757464917 0 -0.61566148304635926 forward_v I I I I #
coedge $-1 $235 $236 $237 $238 reversed $93 $-1 #
face $-1 $-1 $239 $49 $-1 $240 forward single #
loop $-1 $241 $242 $95 #
cone-surface $-1 60.638227362031436 12.279006664111122 13.604260455762354 -0.61566148304635926 0 -0.78801074757464917 0.19700268689366229 0 -0.15391537076158981 1 I I -0.70710678118654746 0.70710678118654746 0.25 forward I I I I #
loop $-1 $-1 $243 $62 #
coedge $-1 $153 $153 $244 $245 reversed $96 $-1 #
face $-1 $-1 $246 $50 $-1 $247 forward single #
loop $-1 $248 $249 $98 #
cone-surface $-1 60.638227362031436 14.821811836171783 13.604260455762354 -0.61566148304635926 0 -0.78801074757464917 0.19700268689366229 0 -0.15391537076158981 1 I I -0.70710678118654746 0.70710678118654746 0.25 forward I I I I #
loop $-1 $-1 $250 $63 #
coedge $-1 $158 $158 $251 $252 reversed $99 $-1 #
face $-1 $-1 $253 $51 $-1 $254 forward single #
loop $-1 $255 $256 $101 #
cone-surface $-1 60.638227362031436 17.364617008232443 13.604260455762354 -0.61566148304635926 0 -0.78801074757464917 0.19700268689366229 0 -0.15391537076158981 1 I I -0.70710678118654746 0.70710678118654746 0.25 forward I I I I #
loop $-1 $-1 $257 $64 #
coedge $-1 $163 $163 $258 $259 reversed $102 $-1 #
face $-1 $260 $261 $39 $-1 $262 reversed single #
loop $-1 $-1 $263 $104 #
plane-surface $-1 0 -33.720995285945072 0 0 1 0 0 0 1 forward_v I I I I #
coedge $-1 $264 $265 $266 $267 forward $105 $-1 #
coedge $-1 $268 $107 $269 $270 forward $66 $-1 #
coedge $-1 $107 $268 $271 $272 forward $66 $-1 #
coedge $-1 $273 $274 $107 $171 reversed $275 $-1 #
edge $-1 $276 -33.720995285945072 $277 33.720995285945072 $170 $278 forward 7 unknown #
face $-1 $279 $280 $40 $-1 $281 reversed single #
loop $-1 $-1 $282 $108 #
plane-surface $-1 0 -41.519784323978449 5.7379541649883024 0 0 1 1 0 0 forward_v I I I I #
coedge $-1 $283 $284 $177 $285 forward $109 $-1 #
coedge $-1 $286 $111 $287 $288 reversed $69 $-1 #
coedge $-1 $111 $286 $175 $285 reversed $69 $-1 #
coedge $-1 $289 $282 $111 $179 reversed $173 $-1 #
edge $-1 $290 -63.778801843317972 $291 63.778801843317972 $178 $292 forward 7 unknown #
face $-1 $293 $294 $41 $-1 $295 forward single #
loop $-1 $-1 $296 $112 #
plane-surface $-1 -162.90967945709147 8.5167568006234085 89.676931418663415 0 -1 0 0.77714596973225614 0 -0.62932038083071107 forward_v I I I I #
coedge $-1 $297 $298 $299 $300 reversed $113 $-1 #
coedge $-1 $185 $115 $301 $302 reversed $72 $-1 #
coedge $-1 $115 $184 $297 $303 reversed $72 $-1 #
coedge $-1 $299 $304 $115 $187 forward $294 $-1 #
edge $-1 $305 17.676037885227764 $306 23.534035517069064 $186 $307 forward 7 unknown #
loop $-1 $-1 $193 $116 #
plane-surface $-1 -63.778801843317979 1.5905556145977826 9.4023316887367798 -0.77714596973225614 0 0.62932038083071107 0.62932038083071107 0 0.77714596973225614 forward_v I I I I #
loop $-1 $-1 $308 $74 #
coedge $-1 $191 $191 $192 $309 reversed $117 $-1 #
coedge $-1 $192 $192 $191 $309 forward $119 $-1 #
coedge $-1 $193 $193 $120 $194 forward $188 $-1 #
edge $-1 $310 0 $310 6.2831853071796004 $193 $311 forward 7 unknown #
loop $-1 $-1 $200 $121 #
plane-surface $-1 -63.778801843317979 1.5905556145977826 9.4023316887367798 -0.77714596973225614 0 0.62932038083071107 0.62932038083071107 0 0.77714596973225614 forward_v I I I I #
loop $-1 $-1 $312 $77 #
coedge $-1 $198 $198 $199 $313 reversed $122 $-1 #
coedge $-1 $199 $199 $198 $313 forward $124 $-1 #
coedge $-1 $200 $200 $125 $201 forward $195 $-1 #
edge $-1 $314 0 $314 6.2831853071796004 $200 $315 forward 7 unknown #
face $-1 $316 $317 $44 $-1 $318 reversed single #
loop $-1 $-1 $319 $126 #
plane-surface $-1 41.794342662935172 -15.338403031841013 192.59053783054938 0 1 0 0.61566148304635926 0 0.78801074757464917 forward_v I I I I #
coedge $-1 $320 $321 $322 $323 reversed $127 $-1 #
coedge $-1 $207 $129 $324 $325 reversed $81 $-1 #
coedge $-1 $129 $206 $320 $326 reversed $81 $-1 #
coedge $-1 $322 $327 $129 $209 forward $328 $-1 #
edge $-1 $329 -42.881630511850389 $330 -38.92035872695584 $208 $331 forward 7 unknown #
loop $-1 $-1 $215 $130 #
plane-surface $-1 -36.737960796618857 -11.100394411739913 92.073775190612565 0.61566148304635926 0 0.78801074757464917 0.78801074757464917 0 -0.61566148304635926 forward_v I I I I #
loop $-1 $-1 $332 $83 #
coedge $-1 $213 $213 $214 $333 reversed $131 $-1 #
coedge $-1 $214 $214 $213 $333 forward $133 $-1 #
coedge $-1 $215 $215 $134 $216 forward $210 $-1 #
edge $-1 $334 0 $334 6.2831853071796004 $215 $335 forward 7 unknown #
loop $-1 $-1 $222 $135 #
plane-surface $-1 -36.737960796618857 -11.100394411739913 92.073775190612565 0.61566148304635926 0 0.78801074757464917 0.78801074757464917 0 -0.61566148304635926 forward_v I I I I #
loop $-1 $-1 $336 $86 #
coedge $-1 $220 $220 $221 $337 reversed $136 $-1 #
coedge $-1 $221 $221 $220 $337 forward $138 $-1 #
coedge $-1 $222 $222 $139 $223 forward $217 $-1 #
edge $-1 $338 0 $338 6.2831853071796004 $222 $339 forward 7 unknown #
loop $-1 $-1 $229 $140 #
plane-surface $-1 -36.737960796618857 -11.100394411739913 92.073775190612565 0.61566148304635926 0 0.78801074757464917 0.78801074757464917 0 -0.61566148304635926 forward_v I I I I #
loop $-1 $-1 $340 $89 #
coedge $-1 $227 $227 $228 $341 reversed $141 $-1 #
coedge $-1 $228 $228 $227 $341 forward $143 $-1 #
coedge $-1 $229 $229 $144 $230 forward $224 $-1 #
edge $-1 $342 0 $342 6.2831853071796004 $229 $343 forward 7 unknown #
face $-1 $344 $345 $48 $-1 $346 reversed single #
loop $-1 $-1 $347 $145 #
plane-surface $-1 41.794342662935172 10.583803216070683 192.59053783054938 0 1 0 0.61566148304635926 0 0.78801074757464917 forward_v I I I I #
coedge $-1 $348 $349 $350 $351 reversed $146 $-1 #
coedge $-1 $236 $148 $352 $353 reversed $93 $-1 #
coedge $-1 $148 $235 $348 $354 reversed $93 $-1 #
coedge $-1 $350 $355 $148 $238 forward $356 $-1 #
edge $-1 $357 -42.881630511850389 $358 -38.92035872695584 $237 $359 forward 7 unknown #
loop $-1 $-1 $244 $149 #
plane-surface $-1 -36.737960796618857 14.821811836171783 92.073775190612565 0.61566148304635926 0 0.78801074757464917 0.78801074757464917 0 -0.61566148304635926 forward_v I I I I #
loop $-1 $-1 $360 $95 #
coedge $-1 $242 $242 $243 $361 reversed $150 $-1 #
coedge $-1 $243 $243 $242 $361 forward $152 $-1 #
coedge $-1 $244 $244 $153 $245 forward $239 $-1 #
edge $-1 $362 0 $362 6.2831853071796004 $244 $363 forward 7 unknown #
loop $-1 $-1 $251 $154 #
plane-surface $-1 -36.737960796618857 14.821811836171783 92.073775190612565 0.61566148304635926 0 0.78801074757464917 0.78801074757464917 0 -0.61566148304635926 forward_v I I I I #
loop $-1 $-1 $364 $98 #
coedge $-1 $249 $249 $250 $365 reversed $155 $-1 #
coedge $-1 $250 $250 $249 $365 forward $157 $-1 #
coedge $-1 $251 $251 $158 $252 forward $246 $-1 #
edge $-1 $366 0 $366 6.2831853071796004 $251 $367 forward 7 unknown #
loop $-1 $-1 $258 $159 #
plane-surface $-1 -36.737960796618857 14.821811836171783 92.073775190612565 0.61566148304635926 0 0.78801074757464917 0.78801074757464917 0 -0.61566148304635926 forward_v I I I I #
loop $-1 $-1 $368 $101 #
coedge $-1 $256 $256 $257 $369 reversed $160 $-1 #
coedge $-1 $257 $257 $256 $369 forward $162 $-1 #
coedge $-1 $258 $258 $163 $259 forward $253 $-1 #
edge $-1 $370 0 $370 6.2831853071796004 $258 $371 forward 7 unknown #
face $-1 $372 $373 $39 $-1 $374 reversed single #
loop $-1 $-1 $375 $164 #
plane-surface $-1 -63.778801843317972 0 0 1 0 0 0 0 -1 forward_v I I I I #
coedge $-1 $376 $271 $377 $378 forward $165 $-1 #
coedge $-1 $379 $167 $376 $380 forward $105 $-1 #
coedge $-1 $167 $379 $381 $382 forward $105 $-1 #
coedge $-1 $274 $273 $167 $267 reversed $275 $-1 #
edge $-1 $383 -33.720995285945072 $384 33.720995285945072 $266 $385 forward 7 unknown #
coedge $-1 $169 $168 $386 $387 forward $66 $-1 #
coedge $-1 $388 $389 $168 $270 reversed $373 $-1 #
edge $-1 $277 -63.778801843317972 $390 63.778801843317972 $269 $391 forward 7 unknown #
coedge $-1 $263 $392 $169 $272 reversed $165 $-1 #
edge $-1 $393 -63.778801843317972 $276 63.778801843317972 $271 $394 forward 7 unknown #
coedge $-1 $266 $170 $392 $395 forward $275 $-1 #
coedge $-1 $170 $266 $388 $396 reversed $275 $-1 #
loop $-1 $-1 $273 $372 #
vertex $-1 $171 $397 #
vertex $-1 $171 $398 #
straight-curve $-1 63.778801843317972 0 16.636356501785404 0 1 0 I I #
face $-1 $399 $400 $40 $-1 $401 reversed single #
loop $-1 $-1 $402 $172 #
plane-surface $-1 0 -41.519784323978449 0.65723211190542941 0 0 1 1 0 0 forward_v I I I I #
coedge $-1 $178 $403 $404 $405 forward $173 $-1 #
coedge $-1 $406 $175 $407 $408 reversed $109 $-1 #
coedge $-1 $175 $406 $289 $409 reversed $109 $-1 #
edge $-1 $290 -5.7379541649883024 $410 -0.65723211190542941 $175 $411 forward 7 unknown #
coedge $-1 $177 $176 $412 $413 forward $69 $-1 #
coedge $-1 $404 $414 $176 $288 forward $415 $-1 #
edge $-1 $416 0.65723211190542941 $291 5.7379541649883024 $287 $417 forward 7 unknown #
coedge $-1 $403 $178 $284 $409 forward $173 $-1 #
vertex $-1 $285 $418 #
vertex $-1 $405 $419 #
straight-curve $-1 0 -33.720995285945072 5.7379541649883024 1 0 0 I I #
face $-1 $-1 $420 $41 $-1 $421 reversed single #
loop $-1 $-1 $186 $180 #
plane-surface $-1 0 0 16.636356501785404 0 0 1 1 0 0 forward_v I I I I #
coedge $-1 $422 $423 $424 $425 reversed $181 $-1 #
coedge $-1 $426 $183 $185 $303 forward $113 $-1 #
coedge $-1 $183 $426 $422 $427 forward $113 $-1 #
coedge $-1 $424 $186 $183 $300 forward $294 $-1 #
edge $-1 $306 -6.1309233787267345 $428 7.7214789933245171 $299 $429 forward 7 unknown #
coedge $-1 $430 $431 $184 $302 forward $420 $-1 #
edge $-1 $432 -35.43613402059492 $305 -28.202109207546304 $301 $433 forward 7 unknown #
edge $-1 $306 -9.30845052897965 $432 -1.1374033043381581e-014 $185 $434 forward 7 unknown #
coedge $-1 $186 $424 $430 $435 forward $294 $-1 #
vertex $-1 $302 $436 #
vertex $-1 $187 $437 #
straight-curve $-1 -81.454839728545736 -5.3356455714278432 16.636356501785407 1 0 0 I I #
coedge $-1 $308 $308 $-1 $438 reversed $190 $-1 #
edge $-1 $439 0 $439 6.2831853071796004 $191 $440 forward 7 unknown #
vertex $-1 $194 $441 #
ellipse-curve $-1 -60.849803027397321 -1.3778163222703483 13.019344095261097 -0.77714596973225614 0 0.62932038083071107 0.62932038083071107 0 0.77714596973225614 1 I I #
coedge $-1 $312 $312 $-1 $442 reversed $197 $-1 #
edge $-1 $443 0 $443 6.2831853071796004 $198 $444 forward 7 unknown #
vertex $-1 $201 $445 #
ellipse-curve $-1 -60.849803027397321 4.5589275514659064 13.019344095261097 -0.77714596973225614 0 0.62932038083071107 0.62932038083071107 0 0.77714596973225614 1 I I #
face $-1 $-1 $328 $44 $-1 $446 forward single #
loop $-1 $-1 $447 $202 #
plane-surface $-1 63.778801843317972 0 0 -1 0 0 0 0 1 forward_v I I I I #
coedge $-1 $448 $449 $450 $451 reversed $203 $-1 #
coedge $-1 $452 $205 $207 $326 forward $127 $-1 #
coedge $-1 $205 $452 $448 $453 forward $127 $-1 #
coedge $-1 $450 $208 $205 $323 forward $328 $-1 #
edge $-1 $330 1.3121885857688564 $454 9.7882058259710565 $322 $455 forward 7 unknown #
coedge $-1 $456 $457 $206 $325 forward $317 $-1 #
edge $-1 $458 -82.753797184216168 $329 -79.65891241348929 $324 $459 forward 7 unknown #
edge $-1 $330 122.53067759827155 $458 127.55760368663596 $207 $460 forward 7 unknown #
coedge $-1 $208 $450 $456 $461 forward $328 $-1 #
loop $-1 $-1 $450 $316 #
vertex $-1 $325 $462 #
vertex $-1 $209 $463 #
straight-curve $-1 20.897171331467586 -6.8623857916388129 16.6363565017854 -1 0 0 I I #
coedge $-1 $332 $332 $-1 $464 reversed $212 $-1 #
edge $-1 $465 0 $465 6.2831853071796004 $213 $466 forward 7 unknown #
vertex $-1 $216 $467 #
ellipse-curve $-1 61.79816595087069 -13.643199583800573 15.08891411642197 0.61566148304635926 0 0.78801074757464917 0.39400537378732459 0 -0.30783074152317963 1 I I #
coedge $-1 $336 $336 $-1 $468 reversed $219 $-1 #
edge $-1 $469 0 $469 6.2831853071796004 $220 $470 forward 7 unknown #
vertex $-1 $223 $471 #
ellipse-curve $-1 61.79816595087069 -11.100394411739913 15.08891411642197 0.61566148304635926 0 0.78801074757464917 0.39400537378732459 0 -0.30783074152317963 1 I I #
coedge $-1 $340 $340 $-1 $472 reversed $226 $-1 #
edge $-1 $473 0 $473 6.2831853071796004 $227 $474 forward 7 unknown #
vertex $-1 $230 $475 #
ellipse-curve $-1 61.79816595087069 -8.5575892396792526 15.08891411642197 0.61566148304635926 0 0.78801074757464917 0.39400537378732459 0 -0.30783074152317963 1 I I #
face $-1 $-1 $356 $48 $-1 $476 forward single #
loop $-1 $-1 $477 $231 #
plane-surface $-1 63.778801843317972 0 0 -1 0 0 0 0 1 forward_v I I I I #
coedge $-1 $478 $479 $480 $481 reversed $232 $-1 #
coedge $-1 $482 $234 $236 $354 forward $146 $-1 #
coedge $-1 $234 $482 $478 $483 forward $146 $-1 #
coedge $-1 $480 $237 $234 $351 forward $356 $-1 #
edge $-1 $358 -11.64891453818699 $484 -3.1728972979847914 $350 $485 forward 7 unknown #
coedge $-1 $486 $487 $235 $353 forward $345 $-1 #
edge $-1 $488 -82.753797184216168 $357 -79.65891241348929 $352 $489 forward 7 unknown #
edge $-1 $358 122.53067759827155 $488 127.55760368663596 $236 $490 forward 7 unknown #
coedge $-1 $237 $480 $486 $491 forward $356 $-1 #
loop $-1 $-1 $480 $344 #
vertex $-1 $353 $492 #
vertex $-1 $238 $493 #
straight-curve $-1 20.897171331467586 19.059820456272881 16.6363565017854 -1 0 0 I I #
coedge $-1 $360 $360 $-1 $494 reversed $241 $-1 #
edge $-1 $495 0 $495 6.2831853071796004 $242 $496 forward 7 unknown #
vertex $-1 $245 $497 #
ellipse-curve $-1 61.79816595087069 12.279006664111122 15.08891411642197 0.61566148304635926 0 0.78801074757464917 0.39400537378732459 0 -0.30783074152317963 1 I I #
coedge $-1 $364 $364 $-1 $498 reversed $248 $-1 #
edge $-1 $499 0 $499 6.2831853071796004 $249 $500 forward 7 unknown #
vertex $-1 $252 $501 #
ellipse-curve $-1 61.79816595087069 14.821811836171783 15.08891411642197 0.61566148304635926 0 0.78801074757464917 0.39400537378732459 0 -0.30783074152317963 1 I I #
coedge $-1 $368 $368 $-1 $502 reversed $255 $-1 #
edge $-1 $503 0 $503 6.2831853071796004 $256 $504 forward 7 unknown #
vertex $-1 $259 $505 #
ellipse-curve $-1 61.79816595087069 17.364617008232443 15.08891411642197 0.61566148304635926 0 0.78801074757464917 0.39400537378732459 0 -0.30783074152317963 1 I I #
face $-1 $-1 $275 $39 $-1 $506 reversed single #
loop $-1 $-1 $388 $260 #
plane-surface $-1 0 33.720995285945072 0 0 -1 0 0 0 -1 forward_v I I I I #
coedge $-1 $507 $386 $389 $508 forward $261 $-1 #
coedge $-1 $392 $263 $264 $380 reversed $165 $-1 #
coedge $-1 $386 $507 $263 $378 reversed $261 $-1 #
edge $-1 $393 -16.636356501785404 $509 16.636356501785404 $377 $510 forward 7 unknown #
coedge $-1 $265 $264 $507 $511 forward $105 $-1 #
edge $-1 $384 -63.778801843317972 $509 63.778801843317972 $376 $512 forward 7 unknown #
coedge $-1 $389 $388 $265 $382 reversed $373 $-1 #
edge $-1 $513 -63.778801843317972 $383 63.778801843317972 $381 $514 forward 7 unknown #
vertex $-1 $267 $515 #
vertex $-1 $395 $516 #
straight-curve $-1 63.778801843317972 0 -16.636356501785404 0 -1 0 I I #
coedge $-1 $375 $377 $268 $387 reversed $261 $-1 #
edge $-1 $390 -33.720995285945072 $393 33.720995285945072 $386 $517 forward 7 unknown #
coedge $-1 $381 $269 $274 $396 forward $373 $-1 #
coedge $-1 $269 $381 $375 $508 reversed $373 $-1 #
vertex $-1 $270 $518 #
straight-curve $-1 0 33.720995285945072 16.636356501785404 -1 0 0 I I #
coedge $-1 $271 $376 $273 $395 reversed $165 $-1 #
vertex $-1 $387 $519 #
straight-curve $-1 0 -33.720995285945072 16.636356501785404 1 0 0 I I #
edge $-1 $276 -16.636356501785404 $384 16.636356501785404 $273 $520 forward 7 unknown #
edge $-1 $277 -16.636356501785404 $383 16.636356501785404 $274 $521 forward 7 unknown #
point $-1 63.778801843317972 -33.720995285945072 16.636356501785404 #
point $-1 63.778801843317972 33.720995285945072 16.636356501785404 #
face $-1 $-1 $415 $40 $-1 $522 reversed single #
loop $-1 $-1 $523 $279 #
plane-surface $-1 0 -49.318573362011826 3.1975931384468659 0 1 0 0 0 1 forward_v I I I I #
coedge $-1 $524 $412 $414 $525 forward $280 $-1 #
coedge $-1 $282 $289 $526 $527 forward $173 $-1 #
coedge $-1 $528 $287 $282 $405 reversed $415 $-1 #
edge $-1 $529 -7.7987890380333766 $291 7.7987890380333766 $404 $530 forward 7 unknown #
coedge $-1 $284 $283 $523 $531 reversed $109 $-1 #
coedge $-1 $412 $524 $283 $408 forward $280 $-1 #
edge $-1 $532 -7.7987890380333766 $410 7.7987890380333766 $283 $533 forward 7 unknown #
edge $-1 $290 -7.7987890380333766 $534 7.7987890380333766 $284 $535 forward 7 unknown #
vertex $-1 $285 $536 #
straight-curve $-1 -63.778801843317972 -33.720995285945072 0 0 0 -1 I I #
coedge $-1 $402 $407 $286 $413 reversed $280 $-1 #
edge $-1 $416 -63.778801843317972 $410 63.778801843317972 $412 $537 forward 7 unknown #
coedge $-1 $287 $528 $402 $525 reversed $415 $-1 #
loop $-1 $-1 $287 $399 #
vertex $-1 $288 $538 #
straight-curve $-1 63.778801843317972 -33.720995285945072 0 0 0 1 I I #
point $-1 -63.778801843317972 -33.720995285945072 5.7379541649883024 #
point $-1 63.778801843317972 -33.720995285945072 5.7379541649883024 #
loop $-1 $-1 $301 $293 #
plane-surface $-1 -63.778801843317972 0 0 1 0 0 0 0 -1 forward_v I I I I #
coedge $-1 $423 $296 $298 $427 reversed $181 $-1 #
coedge $-1 $296 $422 $539 $540 reversed $181 $-1 #
coedge $-1 $304 $299 $296 $425 forward $294 $-1 #
edge $-1 $428 -23.534035517069064 $541 -17.676037885227764 $424 $542 forward 7 unknown #
coedge $-1 $298 $297 $431 $543 reversed $113 $-1 #
edge $-1 $544 1.1374033043381581e-014 $428 9.30845052897965 $422 $545 forward 7 unknown #
vertex $-1 $300 $546 #
straight-curve $-1 -57.920804211476664 0.7952778072988913 16.636356501785407 0 1 0 I I #
coedge $-1 $539 $301 $304 $435 reversed $420 $-1 #
coedge $-1 $301 $539 $426 $543 forward $420 $-1 #
vertex $-1 $302 $547 #
straight-curve $-1 -63.778801843317972 -5.3356455714278432 44.838465709331707 0 0 1 I I #
straight-curve $-1 -63.778801843317979 -5.3356455714278432 9.4023316887367798 -0.62932038083071107 0 -0.77714596973225614 I I #
edge $-1 $541 -8.5167568006234085 $305 5.3356455714278432 $430 $548 forward 7 unknown #
point $-1 -63.778801843317972 -5.3356455714278432 16.636356501785404 #
point $-1 -57.920804211476671 -5.3356455714278432 16.636356501785404 #
edge $-1 $549 1 $549 0 $308 $-1 forward 7 unknown #
vertex $-1 $309 $550 #
ellipse-curve $-1 -59.967778995036312 -1.3778163222703483 12.305095136164638 -0.77714596973225614 0 0.62932038083071107 0.62932038083071107 0 0.77714596973225614 1 I I #
point $-1 -60.220482646566595 -1.3778163222703483 13.796490064993341 #
edge $-1 $551 1 $551 0 $312 $-1 forward 7 unknown #
vertex $-1 $313 $552 #
ellipse-curve $-1 -59.967778995036312 4.5589275514659064 12.305095136164638 -0.77714596973225614 0 0.62932038083071107 0.62932038083071107 0 0.77714596973225614 1 I I #
point $-1 -60.220482646566595 4.5589275514659064 13.796490064993341 #
plane-surface $-1 0 0 16.636356501785404 0 0 1 1 0 0 forward_v I I I I #
coedge $-1 $457 $456 $449 $553 forward $317 $-1 #
coedge $-1 $449 $319 $321 $453 reversed $203 $-1 #
coedge $-1 $319 $448 $447 $553 reversed $203 $-1 #
coedge $-1 $327 $322 $319 $451 forward $328 $-1 #
edge $-1 $454 38.92035872695584 $554 42.881630511850389 $450 $555 forward 7 unknown #
coedge $-1 $321 $320 $457 $556 reversed $127 $-1 #
edge $-1 $557 -127.55760368663596 $454 -122.53067759827155 $448 $558 forward 7 unknown #
vertex $-1 $323 $559 #
straight-curve $-1 59.817530058423429 -5.5501972058699565 16.636356501785393 0 -1 0 I I #
coedge $-1 $447 $324 $327 $461 reversed $317 $-1 #
coedge $-1 $324 $447 $452 $556 forward $317 $-1 #
vertex $-1 $325 $560 #
straight-curve $-1 63.778801843317972 -6.8623857916388129 96.29526891527469 0 0 1 I I #
straight-curve $-1 -36.737960796618857 -6.8623857916388129 92.073775190612565 0.78801074757464917 0 -0.61566148304635926 I I #
edge $-1 $554 -15.338403031841013 $329 -6.8623857916388129 $456 $561 forward 7 unknown #
point $-1 63.778801843317972 -6.8623857916388129 16.636356501785404 #
point $-1 59.817530058423422 -6.8623857916388129 16.6363565017854 #
edge $-1 $562 1 $562 0 $332 $-1 forward 7 unknown #
vertex $-1 $333 $563 #
ellipse-curve $-1 60.792142732793025 -13.643199583800573 13.801263142656016 0.61566148304635926 0 0.78801074757464917 0.39400537378732459 0 -0.30783074152317963 1 I I #
point $-1 62.192171324658027 -13.643199583800573 14.781083374898802 #
edge $-1 $564 1 $564 0 $336 $-1 forward 7 unknown #
vertex $-1 $337 $565 #
ellipse-curve $-1 60.792142732793025 -11.100394411739913 13.801263142656016 0.61566148304635926 0 0.78801074757464917 0.39400537378732459 0 -0.30783074152317963 1 I I #
point $-1 62.192171324658027 -11.100394411739913 14.781083374898802 #
edge $-1 $566 1 $566 0 $340 $-1 forward 7 unknown #
vertex $-1 $341 $567 #
ellipse-curve $-1 60.792142732793025 -8.5575892396792526 13.801263142656016 0.61566148304635926 0 0.78801074757464917 0.39400537378732459 0 -0.30783074152317963 1 I I #
point $-1 62.192171324658027 -8.5575892396792526 14.781083374898802 #
plane-surface $-1 0 0 16.636356501785404 0 0 1 1 0 0 forward_v I I I I #
coedge $-1 $487 $486 $479 $568 forward $345 $-1 #
coedge $-1 $479 $347 $349 $483 reversed $232 $-1 #
coedge $-1 $347 $478 $477 $568 reversed $232 $-1 #
coedge $-1 $355 $350 $347 $481 forward $356 $-1 #
edge $-1 $484 38.92035872695584 $569 42.881630511850389 $480 $570 forward 7 unknown #
coedge $-1 $349 $348 $487 $571 reversed $146 $-1 #
edge $-1 $572 -127.55760368663596 $484 -122.53067759827155 $478 $573 forward 7 unknown #
vertex $-1 $351 $574 #
straight-curve $-1 59.817530058423429 7.4109059180858914 16.636356501785393 0 -1 0 I I #
coedge $-1 $477 $352 $355 $491 reversed $345 $-1 #
coedge $-1 $352 $477 $482 $571 forward $345 $-1 #
vertex $-1 $353 $575 #
straight-curve $-1 63.778801843317972 19.059820456272881 96.29526891527469 0 0 1 I I #
straight-curve $-1 -36.737960796618857 19.059820456272881 92.073775190612565 0.78801074757464917 0 -0.61566148304635926 I I #
edge $-1 $569 10.583803216070683 $357 19.059820456272881 $486 $576 forward 7 unknown #
point $-1 63.778801843317972 19.059820456272881 16.636356501785404 #
point $-1 59.817530058423422 19.059820456272881 16.6363565017854 #
edge $-1 $577 1 $577 0 $360 $-1 forward 7 unknown #
vertex $-1 $361 $578 #
ellipse-curve $-1 60.792142732793025 12.279006664111122 13.801263142656016 0.61566148304635926 0 0.78801074757464917 0.39400537378732459 0 -0.30783074152317963 1 I I #
point $-1 62.192171324658027 12.279006664111122 14.781083374898802 #
edge $-1 $579 1 $579 0 $364 $-1 forward 7 unknown #
vertex $-1 $365 $580 #
ellipse-curve $-1 60.792142732793025 14.821811836171783 13.801263142656016 0.61566148304635926 0 0.78801074757464917 0.39400537378732459 0 -0.30783074152317963 1 I I #
point $-1 62.192171324658027 14.821811836171783 14.781083374898802 #
edge $-1 $581 1 $581 0 $368 $-1 forward 7 unknown #
vertex $-1 $369 $582 #
ellipse-curve $-1 60.792142732793025 17.364617008232443 13.801263142656016 0.61566148304635926 0 0.78801074757464917 0.39400537378732459 0 -0.30783074152317963 1 I I #
point $-1 62.192171324658027 17.364617008232443 14.781083374898802 #
plane-surface $-1 63.778801843317972 0 0 -1 0 0 0 0 1 forward_v I I I I #
coedge $-1 $377 $375 $379 $511 reversed $261 $-1 #
edge $-1 $390 -16.636356501785404 $513 16.636356501785404 $389 $583 forward 7 unknown #
vertex $-1 $511 $584 #
straight-curve $-1 -63.778801843317972 -33.720995285945072 0 0 0 -1 I I #
edge $-1 $509 -33.720995285945072 $513 33.720995285945072 $507 $585 forward 7 unknown #
straight-curve $-1 0 -33.720995285945072 -16.636356501785404 -1 0 0 I I #
vertex $-1 $382 $586 #
straight-curve $-1 0 33.720995285945072 -16.636356501785404 1 0 0 I I #
point $-1 63.778801843317972 33.720995285945072 -16.636356501785404 #
point $-1 63.778801843317972 -33.720995285945072 -16.636356501785404 #
straight-curve $-1 -63.778801843317972 0 16.636356501785404 0 -1 0 I I #
point $-1 -63.778801843317972 33.720995285945072 16.636356501785404 #
point $-1 -63.778801843317972 -33.720995285945072 16.636356501785404 #
straight-curve $-1 63.778801843317972 -33.720995285945072 0 0 0 -1 I I #
straight-curve $-1 63.778801843317972 33.720995285945072 0 0 0 -1 I I #
plane-surface $-1 63.778801843317972 0 0 -1 0 0 0 0 1 forward_v I I I I #
coedge $-1 $587 $526 $406 $531 forward $400 $-1 #
coedge $-1 $407 $402 $587 $588 forward $280 $-1 #
edge $-1 $416 -7.7987890380333766 $589 7.7987890380333766 $414 $590 forward 7 unknown #
coedge $-1 $523 $591 $403 $527 reversed $400 $-1 #
edge $-1 $534 -63.778801843317972 $529 63.778801843317972 $526 $592 forward 7 unknown #
coedge $-1 $414 $404 $591 $593 forward $415 $-1 #
vertex $-1 $405 $594 #
straight-curve $-1 63.778801843317972 -41.519784323978449 5.7379541649883024 0 1 0 I I #
edge $-1 $534 -2.5403610265414365 $532 2.5403610265414365 $406 $595 forward 7 unknown #
vertex $-1 $408 $596 #
straight-curve $-1 -63.778801843317972 -41.519784323978449 0.65723211190542941 0 1 0 I I #
vertex $-1 $409 $597 #
straight-curve $-1 -63.778801843317972 -41.519784323978449 5.7379541649883024 0 -1 0 I I #
point $-1 -63.778801843317972 -33.720995285945072 0.65723211190542941 #
straight-curve $-1 0 -33.720995285945072 0.65723211190542941 -1 0 0 I I #
point $-1 63.778801843317972 -33.720995285945072 0.65723211190542941 #
coedge $-1 $431 $430 $423 $540 forward $420 $-1 #
edge $-1 $541 28.202109207546304 $544 35.43613402059492 $539 $598 forward 7 unknown #
vertex $-1 $435 $599 #
straight-curve $-1 -81.454839728545736 8.5167568006234085 16.636356501785407 -1 0 0 I I #
edge $-1 $544 -7.7214789933245171 $432 6.1309233787267345 $431 $600 forward 7 unknown #
vertex $-1 $543 $601 #
straight-curve $-1 -63.778801843317979 8.5167568006234085 9.4023316887367798 0.62932038083071107 0 0.77714596973225614 I I #
point $-1 -57.920804211476671 8.5167568006234085 16.636356501785404 #
point $-1 -63.778801843317972 -5.3356455714278432 9.4023316887367887 #
straight-curve $-1 -63.778801843317972 0 16.636356501785404 0 -1 0 I I #
vertex $-1 $438 $602 #
point $-1 -59.338458614205599 -1.3778163222703483 13.082241105896895 #
vertex $-1 $442 $603 #
point $-1 -59.338458614205599 4.5589275514659064 13.082241105896895 #
edge $-1 $554 79.65891241348929 $557 82.753797184216168 $447 $604 forward 7 unknown #
vertex $-1 $461 $605 #
straight-curve $-1 20.897171331467586 -15.338403031841013 16.6363565017854 1 0 0 I I #
edge $-1 $557 -9.7882058259710565 $458 -1.3121885857688564 $457 $606 forward 7 unknown #
vertex $-1 $556 $607 #
straight-curve $-1 -36.737960796618857 -15.338403031841013 92.073775190612565 -0.78801074757464917 0 0.61566148304635926 I I #
point $-1 59.817530058423422 -15.338403031841013 16.6363565017854 #
point $-1 63.778801843317972 -6.8623857916388129 13.541471731058522 #
straight-curve $-1 63.778801843317972 0 16.636356501785404 0 1 0 I I #
vertex $-1 $464 $608 #
point $-1 61.186148106580347 -13.643199583800573 13.493432401132837 #
vertex $-1 $468 $609 #
point $-1 61.186148106580347 -11.100394411739913 13.493432401132837 #
vertex $-1 $472 $610 #
point $-1 61.186148106580347 -8.5575892396792526 13.493432401132837 #
edge $-1 $569 79.65891241348929 $572 82.753797184216168 $477 $611 forward 7 unknown #
vertex $-1 $491 $612 #
straight-curve $-1 20.897171331467586 10.583803216070683 16.6363565017854 1 0 0 I I #
edge $-1 $572 3.1728972979847914 $488 11.64891453818699 $487 $613 forward 7 unknown #
vertex $-1 $571 $614 #
straight-curve $-1 -36.737960796618857 10.583803216070683 92.073775190612565 -0.78801074757464917 0 0.61566148304635926 I I #
point $-1 59.817530058423422 10.583803216070683 16.6363565017854 #
point $-1 63.778801843317972 19.059820456272881 13.541471731058522 #
straight-curve $-1 63.778801843317972 0 16.636356501785404 0 1 0 I I #
vertex $-1 $494 $615 #
point $-1 61.186148106580347 12.279006664111122 13.493432401132837 #
vertex $-1 $498 $616 #
point $-1 61.186148106580347 14.821811836171783 13.493432401132837 #
vertex $-1 $502 $617 #
point $-1 61.186148106580347 17.364617008232443 13.493432401132837 #
straight-curve $-1 -63.778801843317972 33.720995285945072 0 0 0 -1 I I #
point $-1 -63.778801843317972 -33.720995285945072 -16.636356501785404 #
straight-curve $-1 -63.778801843317972 0 -16.636356501785404 0 1 0 I I #
point $-1 -63.778801843317972 33.720995285945072 -16.636356501785404 #
coedge $-1 $591 $523 $524 $588 reversed $400 $-1 #
edge $-1 $589 -63.778801843317972 $532 63.778801843317972 $587 $618 forward 7 unknown #
vertex $-1 $593 $619 #
straight-curve $-1 63.778801843317972 -41.519784323978449 0.65723211190542941 0 -1 0 I I #
coedge $-1 $526 $587 $528 $593 reversed $400 $-1 #
straight-curve $-1 0 -49.318573362011826 5.7379541649883024 1 0 0 I I #
edge $-1 $529 -2.5403610265414365 $589 2.5403610265414365 $528 $620 forward 7 unknown #
point $-1 63.778801843317972 -49.318573362011826 5.7379541649883024 #
straight-curve $-1 -63.778801843317972 -49.318573362011826 3.1975931384468659 0 0 -1 I I #
point $-1 -63.778801843317972 -49.318573362011826 0.65723211190542941 #
point $-1 -63.778801843317972 -49.318573362011826 5.7379541649883024 #
straight-curve $-1 -63.778801843317972 8.5167568006234085 44.838465709331707 0 0 -1 I I #
point $-1 -63.778801843317972 8.5167568006234085 16.636356501785404 #
straight-curve $-1 -63.778801843317972 0.7952778072988913 9.4023316887367905 0 -1 0 I I #
point $-1 -63.778801843317972 8.5167568006234085 9.4023316887367887 #
point $-1 -59.190633025304052 -1.3778163222703483 11.675774755333926 #
point $-1 -59.190633025304052 4.5589275514659064 11.675774755333926 #
straight-curve $-1 63.778801843317972 -15.338403031841013 96.29526891527469 0 0 -1 I I #
point $-1 63.778801843317972 -15.338403031841013 16.636356501785404 #
straight-curve $-1 63.778801843317972 -5.5501972058699565 13.541471731058522 0 1 0 I I #
point $-1 63.778801843317972 -15.338403031841013 13.541471731058522 #
point $-1 60.484311991269848 -13.643199583800573 13.407257768868693 #
point $-1 60.484311991269848 -11.100394411739913 13.407257768868693 #
point $-1 60.484311991269848 -8.5575892396792526 13.407257768868693 #
straight-curve $-1 63.778801843317972 10.583803216070683 96.29526891527469 0 0 -1 I I #
point $-1 63.778801843317972 10.583803216070683 16.636356501785404 #
straight-curve $-1 63.778801843317972 7.4109059180858914 13.541471731058522 0 1 0 I I #
point $-1 63.778801843317972 10.583803216070683 13.541471731058522 #
point $-1 60.484311991269848 12.279006664111122 13.407257768868693 #
point $-1 60.484311991269848 14.821811836171783 13.407257768868693 #
point $-1 60.484311991269848 17.364617008232443 13.407257768868693 #
straight-curve $-1 0 -49.318573362011826 0.65723211190542941 -1 0 0 I I #
point $-1 63.778801843317972 -49.318573362011826 0.65723211190542941 #
straight-curve $-1 63.778801843317972 -49.318573362011826 3.1975931384468659 0 0 -1 I I #
End-of-ACIS-data 