500 0 9 0           
7 Unknown 11 ACIS 5.0 NT 24 Fri Mar 26 02:57:16 1999 
-1 9.9999999999999995e-007 1e-010 
body $-1 $9 $-1 $10 #
body $-1 $11 $-1 $12 #
body $-1 $13 $-1 $14 #
body $-1 $15 $-1 $16 #
body $-1 $17 $-1 $18 #
body $-1 $19 $-1 $20 #
body $-1 $21 $-1 $22 #
body $-1 $23 $-1 $24 #
body $-1 $25 $-1 $26 #
lump $-1 $-1 $27 $0 #
transform $-1 1 0 0 0 1 0 0 0 1 55.129856257820364 32.978142628983768 9.0491371198376065 1 rotate no_reflect no_shear #
lump $-1 $-1 $28 $1 #
transform $-1 1 0 0 0 1 0 0 0 1 55.129856257820364 32.978142628983768 9.0491371198376065 1 rotate no_reflect no_shear #
lump $-1 $-1 $29 $2 #
transform $-1 1 0 0 0 1 0 0 0 1 55.129856257820364 32.978142628983768 9.0491371198376065 1 rotate no_reflect no_shear #
lump $-1 $-1 $30 $3 #
transform $-1 1 0 0 0 1 0 0 0 1 55.129856257820364 32.978142628983768 9.0491371198376065 1 rotate no_reflect no_shear #
lump $-1 $-1 $31 $4 #
transform $-1 1 0 0 0 1 0 0 0 1 55.129856257820364 32.978142628983768 9.0491371198376065 1 rotate no_reflect no_shear #
lump $-1 $-1 $32 $5 #
transform $-1 1 0 0 0 1 0 0 0 1 55.129856257820364 32.978142628983768 9.0491371198376065 1 rotate no_reflect no_shear #
lump $-1 $-1 $33 $6 #
transform $-1 1 0 0 0 1 0 0 0 1 55.129856257820364 32.978142628983768 9.0491371198376065 1 rotate no_reflect no_shear #
lump $-1 $-1 $34 $7 #
transform $-1 1 0 0 0 1 0 0 0 1 55.129856257820364 32.978142628983768 9.0491371198376065 1 rotate no_reflect no_shear #
lump $-1 $-1 $35 $8 #
transform $-1 1 0 0 0 1 0 0 0 1 55.129856257820364 32.978142628983768 9.0491371198376065 1 rotate no_reflect no_shear #
shell $-1 $-1 $-1 $36 $-1 $9 #
shell $-1 $-1 $-1 $37 $-1 $11 #
shell $-1 $-1 $-1 $38 $-1 $13 #
shell $-1 $-1 $-1 $39 $-1 $15 #
shell $-1 $-1 $-1 $40 $-1 $17 #
shell $-1 $-1 $-1 $41 $-1 $19 #
shell $-1 $-1 $-1 $42 $-1 $21 #
shell $-1 $-1 $-1 $43 $-1 $23 #
shell $-1 $-1 $-1 $44 $-1 $25 #
face $-1 $45 $46 $27 $-1 $47 forward single #
face $-1 $48 $49 $28 $-1 $50 forward single #
face $-1 $51 $52 $29 $-1 $53 reversed single #
face $-1 $54 $55 $30 $-1 $56 forward single #
face $-1 $57 $58 $31 $-1 $59 forward single #
face $-1 $60 $61 $32 $-1 $62 forward single #
face $-1 $63 $64 $33 $-1 $65 reversed single #
face $-1 $66 $67 $34 $-1 $68 forward single #
face $-1 $69 $70 $35 $-1 $71 forward single #
face $-1 $72 $73 $27 $-1 $74 reversed single #
loop $-1 $-1 $75 $36 #
plane-surface $-1 0 0 9.0491371198376065 0 0 1 1 0 0 forward_v I I I I #
face $-1 $76 $77 $28 $-1 $78 forward single #
loop $-1 $-1 $79 $37 #
plane-surface $-1 0 -32.978142628983768 0 0 1 0 0 0 1 forward_v I I I I #
face $-1 $80 $81 $29 $-1 $82 reversed single #
loop $-1 $-1 $83 $38 #
plane-surface $-1 -124.51854251684445 25.011470697988834 88.754457077651352 0 1 0 -0.62932039886446345 0 0.77714595512881146 forward_v I I I I #
face $-1 $84 $85 $30 $-1 $86 forward single #
loop $-1 $87 $88 $39 #
cone-surface $-1 -51.022745446375659 26.604805084187824 5.5476153182316272 0.62932039886446345 0 -0.77714595512881146 0.38857297756440573 0 0.31466019943223172 1 I I 0 1 0.5 forward I I I I #
face $-1 $89 $90 $31 $-1 $91 forward single #
loop $-1 $92 $93 $40 #
cone-surface $-1 -51.022745446375659 28.994806663486301 5.5476153182316272 0.62932039886446345 0 -0.77714595512881146 0.38857297756440573 0 0.31466019943223172 1 I I 0 1 0.5 forward I I I I #
face $-1 $94 $95 $32 $-1 $96 forward single #
loop $-1 $97 $98 $41 #
cone-surface $-1 -51.022745446375659 31.384808242784779 5.5476153182316272 0.62932039886446345 0 -0.77714595512881146 0.38857297756440573 0 0.31466019943223172 1 I I 0 1 0.5 forward I I I I #
face $-1 $99 $100 $33 $-1 $101 reversed single #
loop $-1 $-1 $102 $42 #
plane-surface $-1 66.007039641412774 28.195503470951941 156.89601432559374 0 -1 0 -0.75470958851134928 0 -0.65605901945558964 forward_v I I I I #
face $-1 $103 $104 $34 $-1 $105 forward single #
loop $-1 $106 $107 $43 #
cone-surface $-1 49.530727417920609 16.951983115590032 3.2406809748632641 -0.75470958851134928 0 -0.65605901945558964 1.3121180389111793 0 -1.5094191770226986 1 I I 0 1 2 forward I I I I #
face $-1 $108 $109 $35 $-1 $110 forward single #
loop $-1 $111 $112 $44 #
cone-surface $-1 49.530727417920609 23.698095328807177 3.2406809748632641 -0.75470958851134928 0 -0.65605901945558964 1.3121180389111793 0 -1.5094191770226986 1 I I 0 1 2 forward I I I I #
face $-1 $113 $114 $27 $-1 $115 reversed single #
loop $-1 $-1 $116 $45 #
plane-surface $-1 0 0 -9.0491371198376065 0 0 1 1 0 0 forward_v I I I I #
coedge $-1 $117 $118 $119 $120 forward $46 $-1 #
face $-1 $121 $122 $28 $-1 $123 reversed single #
loop $-1 $-1 $124 $48 #
plane-surface $-1 0 0 9.0491371198376065 0 0 1 1 0 0 forward_v I I I I #
coedge $-1 $125 $126 $127 $128 forward $49 $-1 #
face $-1 $129 $130 $29 $-1 $131 reversed single #
loop $-1 $-1 $132 $51 #
plane-surface $-1 -55.12985625782035 28.994806663486301 3.066567482455568 -0.62932039886446345 0 0.77714595512881146 0.77714595512881146 0 0.62932039886446345 forward_v I I I I #
coedge $-1 $133 $134 $135 $136 reversed $52 $-1 #
face $-1 $-1 $137 $30 $-1 $138 forward single #
loop $-1 $139 $140 $54 #
cone-surface $-1 -50.45223357625423 26.604805084187824 4.8430918465344526 0.62932039886446345 0 -0.77714595512881146 0.19428648878220287 0 0.15733009971611586 1 I I -0.70710678118654746 0.70710678118654746 0.25 forward I I I I #
loop $-1 $-1 $141 $39 #
coedge $-1 $88 $88 $142 $143 reversed $55 $-1 #
face $-1 $-1 $144 $31 $-1 $145 forward single #
loop $-1 $146 $147 $57 #
cone-surface $-1 -50.45223357625423 28.994806663486301 4.8430918465344526 0.62932039886446345 0 -0.77714595512881146 0.19428648878220287 0 0.15733009971611586 1 I I -0.70710678118654746 0.70710678118654746 0.25 forward I I I I #
loop $-1 $-1 $148 $40 #
coedge $-1 $93 $93 $149 $150 reversed $58 $-1 #
face $-1 $-1 $151 $32 $-1 $152 forward single #
loop $-1 $153 $154 $60 #
cone-surface $-1 -50.45223357625423 31.384808242784779 4.8430918465344526 0.62932039886446345 0 -0.77714595512881146 0.19428648878220287 0 0.15733009971611586 1 I I -0.70710678118654746 0.70710678118654746 0.25 forward I I I I #
loop $-1 $-1 $155 $41 #
coedge $-1 $98 $98 $156 $157 reversed $61 $-1 #
face $-1 $158 $159 $33 $-1 $160 reversed single #
loop $-1 $-1 $161 $63 #
plane-surface $-1 -17.207022620646114 20.325039222198605 84.559135447127275 0.75470958851134928 0 0.65605901945558964 0.65605901945558964 0 -0.75470958851134928 forward_v I I I I #
coedge $-1 $162 $163 $164 $165 reversed $64 $-1 #
face $-1 $-1 $166 $34 $-1 $167 forward single #
loop $-1 $168 $169 $66 #
cone-surface $-1 46.525409206959907 16.951983115590032 0.62819777781792041 -0.75470958851134928 0 -0.65605901945558964 0.65605901945558964 0 -0.75470958851134928 1 I I -0.70710678118654746 0.70710678118654746 1 forward I I I I #
loop $-1 $-1 $170 $43 #
coedge $-1 $107 $107 $171 $172 reversed $67 $-1 #
face $-1 $-1 $173 $35 $-1 $174 forward single #
loop $-1 $175 $176 $69 #
cone-surface $-1 46.525409206959907 23.698095328807177 0.62819777781792041 -0.75470958851134928 0 -0.65605901945558964 0.65605901945558964 0 -0.75470958851134928 1 I I -0.70710678118654746 0.70710678118654746 1 forward I I I I #
loop $-1 $-1 $177 $44 #
coedge $-1 $112 $112 $178 $179 reversed $70 $-1 #
face $-1 $180 $181 $27 $-1 $182 reversed single #
loop $-1 $-1 $183 $72 #
plane-surface $-1 0 -32.978142628983768 0 0 1 0 0 0 1 forward_v I I I I #
coedge $-1 $184 $185 $186 $187 forward $73 $-1 #
coedge $-1 $188 $75 $189 $190 forward $46 $-1 #
coedge $-1 $75 $188 $191 $192 forward $46 $-1 #
coedge $-1 $193 $194 $75 $120 reversed $195 $-1 #
edge $-1 $196 -32.978142628983768 $197 32.978142628983768 $119 $198 forward 7 unknown #
face $-1 $199 $200 $28 $-1 $201 reversed single #
loop $-1 $-1 $202 $76 #
plane-surface $-1 -55.129856257820364 0 0 1 0 0 0 0 -1 forward_v I I I I #
coedge $-1 $203 $204 $126 $205 forward $77 $-1 #
coedge $-1 $206 $79 $207 $208 reversed $49 $-1 #
coedge $-1 $79 $206 $124 $205 reversed $49 $-1 #
coedge $-1 $209 $210 $79 $128 reversed $211 $-1 #
edge $-1 $212 -9.0491371198376065 $213 9.0491371198376065 $127 $214 forward 7 unknown #
face $-1 $215 $216 $29 $-1 $217 reversed single #
loop $-1 $-1 $218 $80 #
plane-surface $-1 0 32.978142628983768 0 0 -1 0 0 0 -1 forward_v I I I I #
coedge $-1 $219 $220 $221 $222 reversed $81 $-1 #
coedge $-1 $134 $83 $223 $224 reversed $52 $-1 #
coedge $-1 $83 $133 $219 $225 reversed $52 $-1 #
coedge $-1 $221 $226 $83 $136 forward $227 $-1 #
edge $-1 $228 7.1294150006018597 $229 14.517273082680695 $135 $230 forward 7 unknown #
loop $-1 $-1 $142 $84 #
plane-surface $-1 -55.12985625782035 28.994806663486301 3.066567482455568 -0.62932039886446345 0 0.77714595512881146 0.77714595512881146 0 0.62932039886446345 forward_v I I I I #
loop $-1 $-1 $231 $54 #
coedge $-1 $140 $140 $141 $232 reversed $85 $-1 #
coedge $-1 $141 $141 $140 $232 forward $87 $-1 #
coedge $-1 $142 $142 $88 $143 forward $137 $-1 #
edge $-1 $233 0 $233 6.2831853071796004 $142 $234 forward 7 unknown #
loop $-1 $-1 $149 $89 #
plane-surface $-1 -55.12985625782035 28.994806663486301 3.066567482455568 -0.62932039886446345 0 0.77714595512881146 0.77714595512881146 0 0.62932039886446345 forward_v I I I I #
loop $-1 $-1 $235 $57 #
coedge $-1 $147 $147 $148 $236 reversed $90 $-1 #
coedge $-1 $148 $148 $147 $236 forward $92 $-1 #
coedge $-1 $149 $149 $93 $150 forward $144 $-1 #
edge $-1 $237 0 $237 6.2831853071796004 $149 $238 forward 7 unknown #
loop $-1 $-1 $156 $94 #
plane-surface $-1 -55.12985625782035 28.994806663486301 3.066567482455568 -0.62932039886446345 0 0.77714595512881146 0.77714595512881146 0 0.62932039886446345 forward_v I I I I #
loop $-1 $-1 $239 $60 #
coedge $-1 $154 $154 $155 $240 reversed $95 $-1 #
coedge $-1 $155 $155 $154 $240 forward $97 $-1 #
coedge $-1 $156 $156 $98 $157 forward $151 $-1 #
edge $-1 $241 0 $241 6.2831853071796004 $156 $242 forward 7 unknown #
face $-1 $243 $244 $33 $-1 $245 reversed single #
loop $-1 $-1 $246 $99 #
plane-surface $-1 66.007039641412774 12.454574973445268 156.89601432559374 0 1 0 0.75470958851134928 0 0.65605901945558964 forward_v I I I I #
coedge $-1 $247 $248 $249 $250 reversed $100 $-1 #
coedge $-1 $163 $102 $251 $252 reversed $64 $-1 #
coedge $-1 $102 $162 $247 $253 reversed $64 $-1 #
coedge $-1 $249 $254 $102 $165 forward $255 $-1 #
edge $-1 $256 -22.126336437113977 $257 -15.429296002213135 $164 $258 forward 7 unknown #
loop $-1 $-1 $171 $103 #
plane-surface $-1 -17.207022620646114 20.325039222198605 84.559135447127275 0.75470958851134928 0 0.65605901945558964 0.65605901945558964 0 -0.75470958851134928 forward_v I I I I #
loop $-1 $-1 $259 $66 #
coedge $-1 $169 $169 $170 $260 reversed $104 $-1 #
coedge $-1 $170 $170 $169 $260 forward $106 $-1 #
coedge $-1 $171 $171 $107 $172 forward $166 $-1 #
edge $-1 $261 0 $261 6.2831853071796004 $171 $262 forward 7 unknown #
loop $-1 $-1 $178 $108 #
plane-surface $-1 -17.207022620646114 20.325039222198605 84.559135447127275 0.75470958851134928 0 0.65605901945558964 0.65605901945558964 0 -0.75470958851134928 forward_v I I I I #
loop $-1 $-1 $263 $69 #
coedge $-1 $176 $176 $177 $264 reversed $109 $-1 #
coedge $-1 $177 $177 $176 $264 forward $111 $-1 #
coedge $-1 $178 $178 $112 $179 forward $173 $-1 #
edge $-1 $265 0 $265 6.2831853071796004 $178 $266 forward 7 unknown #
face $-1 $267 $268 $27 $-1 $269 reversed single #
loop $-1 $-1 $270 $113 #
plane-surface $-1 -55.129856257820364 0 0 1 0 0 0 0 -1 forward_v I I I I #
coedge $-1 $271 $191 $272 $273 forward $114 $-1 #
coedge $-1 $274 $116 $271 $275 forward $73 $-1 #
coedge $-1 $116 $274 $276 $277 forward $73 $-1 #
coedge $-1 $194 $193 $116 $187 reversed $195 $-1 #
edge $-1 $278 -32.978142628983768 $279 32.978142628983768 $186 $280 forward 7 unknown #
coedge $-1 $118 $117 $281 $282 forward $46 $-1 #
coedge $-1 $283 $284 $117 $190 reversed $268 $-1 #
edge $-1 $197 -55.129856257820364 $285 55.129856257820364 $189 $286 forward 7 unknown #
coedge $-1 $183 $287 $118 $192 reversed $114 $-1 #
edge $-1 $288 -55.129856257820364 $196 55.129856257820364 $191 $289 forward 7 unknown #
coedge $-1 $186 $119 $287 $290 forward $195 $-1 #
coedge $-1 $119 $186 $283 $291 reversed $195 $-1 #
loop $-1 $-1 $193 $267 #
vertex $-1 $120 $292 #
vertex $-1 $120 $293 #
straight-curve $-1 55.129856257820364 0 9.0491371198376065 0 1 0 I I #
face $-1 $294 $211 $28 $-1 $295 reversed single #
loop $-1 $-1 $296 $121 #
plane-surface $-1 -53.629856257820364 -41.123045405632887 0 0 1 0 0 0 1 forward_v I I I I #
coedge $-1 $297 $298 $206 $299 forward $122 $-1 #
coedge $-1 $300 $124 $298 $301 forward $77 $-1 #
coedge $-1 $124 $300 $209 $302 forward $77 $-1 #
edge $-1 $212 52.129856257820364 $303 55.129856257820364 $124 $304 forward 7 unknown #
coedge $-1 $126 $125 $202 $299 reversed $49 $-1 #
coedge $-1 $305 $306 $125 $208 forward $307 $-1 #
edge $-1 $308 -55.129856257820364 $213 -52.129856257820364 $207 $309 forward 7 unknown #
coedge $-1 $310 $127 $204 $302 reversed $211 $-1 #
coedge $-1 $127 $310 $305 $311 reversed $211 $-1 #
loop $-1 $-1 $310 $199 #
vertex $-1 $205 $312 #
vertex $-1 $311 $313 #
straight-curve $-1 -52.129856257820364 -32.978142628983768 0 0 0 -1 I I #
face $-1 $-1 $227 $29 $-1 $314 forward single #
loop $-1 $-1 $315 $129 #
plane-surface $-1 -55.129856257820364 0 0 1 0 0 0 0 -1 forward_v I I I I #
coedge $-1 $316 $317 $220 $318 forward $130 $-1 #
coedge $-1 $319 $132 $134 $225 forward $81 $-1 #
coedge $-1 $132 $319 $218 $318 reversed $81 $-1 #
coedge $-1 $320 $135 $132 $222 forward $227 $-1 #
edge $-1 $229 10.514067366245683 $321 18.480739297240618 $221 $322 forward 7 unknown #
coedge $-1 $323 $315 $133 $224 forward $216 $-1 #
edge $-1 $324 -41.310661056370122 $228 -35.328091418988066 $223 $325 forward 7 unknown #
edge $-1 $229 -9.5063971359849475 $324 1.8310242626372826e-014 $134 $326 forward 7 unknown #
coedge $-1 $135 $320 $323 $327 forward $227 $-1 #
loop $-1 $-1 $221 $215 #
vertex $-1 $224 $328 #
vertex $-1 $136 $329 #
straight-curve $-1 -62.259271258422224 25.011470697988834 9.04913711983761 1 0 0 I I #
coedge $-1 $231 $231 $-1 $330 reversed $139 $-1 #
edge $-1 $331 0 $331 6.2831853071796004 $140 $332 forward 7 unknown #
vertex $-1 $143 $333 #
ellipse-curve $-1 -51.435927216780954 26.604805084187824 6.0578523011465775 -0.62932039886446345 0 0.77714595512881146 0.38857297756440573 0 0.31466019943223172 1 I I #
coedge $-1 $235 $235 $-1 $334 reversed $146 $-1 #
edge $-1 $335 0 $335 6.2831853071796004 $147 $336 forward 7 unknown #
vertex $-1 $150 $337 #
ellipse-curve $-1 -51.435927216780954 28.994806663486301 6.0578523011465775 -0.62932039886446345 0 0.77714595512881146 0.38857297756440573 0 0.31466019943223172 1 I I #
coedge $-1 $239 $239 $-1 $338 reversed $153 $-1 #
edge $-1 $339 0 $339 6.2831853071796004 $154 $340 forward 7 unknown #
vertex $-1 $157 $341 #
ellipse-curve $-1 -51.435927216780954 31.384808242784779 6.0578523011465775 -0.62932039886446345 0 0.77714595512881146 0.38857297756440573 0 0.31466019943223172 1 I I #
face $-1 $-1 $255 $33 $-1 $342 forward single #
loop $-1 $-1 $343 $158 #
plane-surface $-1 55.129856257820364 0 0 -1 0 0 0 0 1 forward_v I I I I #
coedge $-1 $344 $345 $346 $347 reversed $159 $-1 #
coedge $-1 $348 $161 $163 $253 forward $100 $-1 #
coedge $-1 $161 $348 $344 $349 forward $100 $-1 #
coedge $-1 $346 $164 $161 $250 forward $255 $-1 #
edge $-1 $257 -18.032983859852639 $350 -2.2920553623459661 $249 $351 forward 7 unknown #
coedge $-1 $352 $353 $162 $252 forward $244 $-1 #
edge $-1 $354 -77.102933977728497 $256 -69.39887004295926 $251 $355 forward 7 unknown #
edge $-1 $257 100.05172781259047 $354 110.25971251564077 $163 $356 forward 7 unknown #
coedge $-1 $164 $346 $352 $357 forward $255 $-1 #
loop $-1 $-1 $346 $243 #
vertex $-1 $252 $358 #
vertex $-1 $165 $359 #
straight-curve $-1 33.003519820706387 28.195503470951941 9.04913711983761 -1 0 0 I I #
coedge $-1 $259 $259 $-1 $360 reversed $168 $-1 #
edge $-1 $361 0 $361 6.2831853071796004 $169 $362 forward 7 unknown #
vertex $-1 $172 $363 #
ellipse-curve $-1 51.781336040369936 16.951983115590032 5.1971051524529956 0.75470958851134928 0 0.65605901945558964 1.3121180389111793 0 -1.5094191770226986 1 I I #
coedge $-1 $263 $263 $-1 $364 reversed $175 $-1 #
edge $-1 $365 0 $365 6.2831853071796004 $176 $366 forward 7 unknown #
vertex $-1 $179 $367 #
ellipse-curve $-1 51.781336040369936 23.698095328807177 5.1971051524529956 0.75470958851134928 0 0.65605901945558964 1.3121180389111793 0 -1.5094191770226986 1 I I #
face $-1 $-1 $195 $27 $-1 $368 reversed single #
loop $-1 $-1 $283 $180 #
plane-surface $-1 0 32.978142628983768 0 0 -1 0 0 0 -1 forward_v I I I I #
coedge $-1 $369 $281 $284 $370 forward $181 $-1 #
coedge $-1 $287 $183 $184 $275 reversed $114 $-1 #
coedge $-1 $281 $369 $183 $273 reversed $181 $-1 #
edge $-1 $288 -9.0491371198376065 $371 9.0491371198376065 $272 $372 forward 7 unknown #
coedge $-1 $185 $184 $369 $373 forward $73 $-1 #
edge $-1 $279 -55.129856257820364 $371 55.129856257820364 $271 $374 forward 7 unknown #
coedge $-1 $284 $283 $185 $277 reversed $268 $-1 #
edge $-1 $375 -55.129856257820364 $278 55.129856257820364 $276 $376 forward 7 unknown #
vertex $-1 $187 $377 #
vertex $-1 $290 $378 #
straight-curve $-1 55.129856257820364 0 -9.0491371198376065 0 -1 0 I I #
coedge $-1 $270 $272 $188 $282 reversed $181 $-1 #
edge $-1 $285 -32.978142628983768 $288 32.978142628983768 $281 $379 forward 7 unknown #
coedge $-1 $276 $189 $194 $291 forward $268 $-1 #
coedge $-1 $189 $276 $270 $370 reversed $268 $-1 #
vertex $-1 $190 $380 #
straight-curve $-1 0 32.978142628983768 9.0491371198376065 -1 0 0 I I #
coedge $-1 $191 $271 $193 $290 reversed $114 $-1 #
vertex $-1 $282 $381 #
straight-curve $-1 0 -32.978142628983768 9.0491371198376065 1 0 0 I I #
edge $-1 $196 -9.0491371198376065 $279 9.0491371198376065 $193 $382 forward 7 unknown #
edge $-1 $197 -9.0491371198376065 $278 9.0491371198376065 $194 $383 forward 7 unknown #
point $-1 55.129856257820364 -32.978142628983768 9.0491371198376065 #
point $-1 55.129856257820364 32.978142628983768 9.0491371198376065 #
face $-1 $-1 $307 $28 $-1 $384 reversed single #
plane-surface $-1 -52.129856257820364 -37.050594017308327 0 -1 0 0 0 0 1 forward_v I I I I #
coedge $-1 $385 $386 $387 $388 forward $200 $-1 #
coedge $-1 $387 $202 $306 $389 reversed $122 $-1 #
coedge $-1 $202 $387 $203 $301 reversed $122 $-1 #
edge $-1 $303 -9.0491371198376065 $308 9.0491371198376065 $202 $390 forward 7 unknown #
coedge $-1 $204 $203 $386 $391 forward $77 $-1 #
edge $-1 $303 32.978142628983768 $392 41.123045405632887 $298 $393 forward 7 unknown #
edge $-1 $394 -4.0724513883245592 $212 4.0724513883245592 $209 $395 forward 7 unknown #
vertex $-1 $301 $396 #
straight-curve $-1 0 -32.978142628983768 9.0491371198376065 -1 0 0 I I #
coedge $-1 $397 $207 $210 $311 forward $307 $-1 #
coedge $-1 $207 $397 $297 $389 forward $307 $-1 #
loop $-1 $-1 $207 $294 #
vertex $-1 $299 $398 #
straight-curve $-1 0 -32.978142628983768 -9.0491371198376065 1 0 0 I I #
coedge $-1 $210 $209 $399 $400 forward $211 $-1 #
edge $-1 $213 -4.0724513883245592 $401 4.0724513883245592 $210 $402 forward 7 unknown #
point $-1 -52.129856257820364 -32.978142628983768 9.0491371198376065 #
point $-1 -52.129856257820364 -32.978142628983768 -9.0491371198376065 #
plane-surface $-1 0 0 9.0491371198376065 0 0 1 1 0 0 forward_v I I I I #
coedge $-1 $223 $403 $319 $404 forward $216 $-1 #
coedge $-1 $317 $218 $403 $405 reversed $130 $-1 #
coedge $-1 $218 $316 $320 $406 reversed $130 $-1 #
edge $-1 $321 10.950648527212127 $407 20.457045663197096 $218 $408 forward 7 unknown #
coedge $-1 $220 $219 $315 $404 reversed $81 $-1 #
coedge $-1 $226 $221 $317 $406 forward $227 $-1 #
vertex $-1 $406 $409 #
straight-curve $-1 -47.741998175741536 14.497403331743151 9.0491371198376047 0 1 0 I I #
coedge $-1 $403 $223 $226 $327 reversed $216 $-1 #
vertex $-1 $224 $410 #
straight-curve $-1 -55.129856257820364 25.011470697988834 44.377228538825676 0 0 1 I I #
straight-curve $-1 -55.12985625782035 25.011470697988834 3.066567482455568 -0.77714595512881146 0 -0.62932039886446345 I I #
edge $-1 $411 -32.978142628983768 $228 -25.011470697988834 $323 $412 forward 7 unknown #
point $-1 -55.129856257820364 25.011470697988834 9.0491371198376065 #
point $-1 -47.741998175741529 25.011470697988834 9.0491371198376065 #
edge $-1 $413 1 $413 0 $231 $-1 forward 7 unknown #
vertex $-1 $232 $414 #
ellipse-curve $-1 -50.609563675970342 26.604805084187824 5.0373783353166557 -0.62932039886446345 0 0.77714595512881146 0.38857297756440573 0 0.31466019943223172 1 I I #
point $-1 -51.047354239216567 26.604805084187824 6.3725125005788312 #
edge $-1 $415 1 $415 0 $235 $-1 forward 7 unknown #
vertex $-1 $236 $416 #
ellipse-curve $-1 -50.609563675970342 28.994806663486301 5.0373783353166557 -0.62932039886446345 0 0.77714595512881146 0.38857297756440573 0 0.31466019943223172 1 I I #
point $-1 -51.047354239216567 28.994806663486301 6.3725125005788312 #
edge $-1 $417 1 $417 0 $239 $-1 forward 7 unknown #
vertex $-1 $240 $418 #
ellipse-curve $-1 -50.609563675970342 31.384808242784779 5.0373783353166557 -0.62932039886446345 0 0.77714595512881146 0.38857297756440573 0 0.31466019943223172 1 I I #
point $-1 -51.047354239216567 31.384808242784779 6.3725125005788312 #
plane-surface $-1 0 0 9.0491371198376065 0 0 1 1 0 0 forward_v I I I I #
coedge $-1 $353 $352 $345 $419 forward $244 $-1 #
coedge $-1 $345 $246 $248 $349 reversed $159 $-1 #
coedge $-1 $246 $344 $343 $419 reversed $159 $-1 #
coedge $-1 $254 $249 $246 $347 forward $255 $-1 #
edge $-1 $350 15.429296002213135 $420 22.126336437113977 $346 $421 forward 7 unknown #
coedge $-1 $248 $247 $353 $422 reversed $100 $-1 #
edge $-1 $423 -110.25971251564077 $350 -100.05172781259047 $344 $424 forward 7 unknown #
vertex $-1 $250 $425 #
straight-curve $-1 48.432815822919537 10.162519611099302 9.0491371198376029 0 -1 0 I I #
coedge $-1 $343 $251 $254 $357 reversed $244 $-1 #
coedge $-1 $251 $343 $348 $422 forward $244 $-1 #
vertex $-1 $252 $426 #
straight-curve $-1 55.129856257820364 28.195503470951941 78.44800716279687 0 0 1 I I #
straight-curve $-1 -17.207022620646114 28.195503470951941 84.559135447127275 0.65605901945558964 0 -0.75470958851134928 I I #
edge $-1 $420 12.454574973445268 $256 28.195503470951941 $352 $427 forward 7 unknown #
point $-1 55.129856257820364 28.195503470951941 9.0491371198376065 #
point $-1 48.432815822919522 28.195503470951941 9.04913711983761 #
edge $-1 $428 1 $428 0 $259 $-1 forward 7 unknown #
vertex $-1 $260 $429 #
ellipse-curve $-1 47.280118795471253 16.951983115590032 1.2842567972735099 0.75470958851134928 0 0.65605901945558964 1.3121180389111793 0 -1.5094191770226986 1 I I #
point $-1 53.093454079281145 16.951983115590032 3.6876859754303202 #
edge $-1 $430 1 $430 0 $263 $-1 forward 7 unknown #
vertex $-1 $264 $431 #
ellipse-curve $-1 47.280118795471253 23.698095328807177 1.2842567972735099 0.75470958851134928 0 0.65605901945558964 1.3121180389111793 0 -1.5094191770226986 1 I I #
point $-1 53.093454079281145 23.698095328807177 3.6876859754303202 #
plane-surface $-1 55.129856257820364 0 0 -1 0 0 0 0 1 forward_v I I I I #
coedge $-1 $272 $270 $274 $373 reversed $181 $-1 #
edge $-1 $285 -9.0491371198376065 $375 9.0491371198376065 $284 $432 forward 7 unknown #
vertex $-1 $373 $433 #
straight-curve $-1 -55.129856257820364 -32.978142628983768 0 0 0 -1 I I #
edge $-1 $371 -32.978142628983768 $375 32.978142628983768 $369 $434 forward 7 unknown #
straight-curve $-1 0 -32.978142628983768 -9.0491371198376065 -1 0 0 I I #
vertex $-1 $277 $435 #
straight-curve $-1 0 32.978142628983768 -9.0491371198376065 1 0 0 I I #
point $-1 55.129856257820364 32.978142628983768 -9.0491371198376065 #
point $-1 55.129856257820364 -32.978142628983768 -9.0491371198376065 #
straight-curve $-1 -55.129856257820364 0 9.0491371198376065 0 -1 0 I I #
point $-1 -55.129856257820364 32.978142628983768 9.0491371198376065 #
point $-1 -55.129856257820364 -32.978142628983768 9.0491371198376065 #
straight-curve $-1 55.129856257820364 -32.978142628983768 0 0 0 -1 I I #
straight-curve $-1 55.129856257820364 32.978142628983768 0 0 0 -1 I I #
plane-surface $-1 0 0 -9.0491371198376065 0 0 1 1 0 0 forward_v I I I I #
coedge $-1 $399 $296 $397 $436 reversed $200 $-1 #
coedge $-1 $296 $399 $300 $391 reversed $200 $-1 #
coedge $-1 $298 $297 $296 $388 reversed $122 $-1 #
edge $-1 $392 -9.0491371198376065 $437 9.0491371198376065 $387 $438 forward 7 unknown #
edge $-1 $437 -41.123045405632887 $308 -32.978142628983768 $297 $439 forward 7 unknown #
straight-curve $-1 -55.129856257820364 -32.978142628983768 0 0 0 -1 I I #
edge $-1 $392 -1.5 $394 1.5 $386 $440 forward 7 unknown #
vertex $-1 $301 $441 #
straight-curve $-1 -55.129856257820364 0 9.0491371198376065 0 -1 0 I I #
vertex $-1 $302 $442 #
straight-curve $-1 -52.129856257820364 -37.050594017308327 9.0491371198376065 0 1 0 I I #
point $-1 -55.129856257820364 -32.978142628983768 9.0491371198376065 #
coedge $-1 $306 $305 $385 $436 forward $307 $-1 #
point $-1 -55.129856257820364 -32.978142628983768 -9.0491371198376065 #
coedge $-1 $386 $385 $310 $400 reversed $200 $-1 #
edge $-1 $394 -9.0491371198376065 $401 9.0491371198376065 $310 $443 forward 7 unknown #
vertex $-1 $400 $444 #
straight-curve $-1 -52.129856257820364 -37.050594017308327 -9.0491371198376065 0 -1 0 I I #
coedge $-1 $315 $323 $316 $405 forward $216 $-1 #
edge $-1 $407 -18.480739297240618 $324 -10.514067366245683 $315 $445 forward 7 unknown #
edge $-1 $411 -9.0491371198376065 $407 -3.0665674824555564 $316 $446 forward 7 unknown #
edge $-1 $321 47.741998175741529 $411 55.129856257820364 $317 $447 forward 7 unknown #
vertex $-1 $404 $448 #
straight-curve $-1 -39.231745966781347 32.978142628983768 15.940603618807293 -0.77714595512881146 0 -0.62932039886446345 I I #
point $-1 -47.741998175741529 32.978142628983768 9.0491371198376065 #
point $-1 -55.129856257820364 25.011470697988834 3.0665674824555564 #
vertex $-1 $406 $449 #
straight-curve $-1 -55.129856257820364 0 9.0491371198376065 0 -1 0 I I #
vertex $-1 $330 $450 #
point $-1 -50.220990698405942 26.604805084187824 5.3520385347488872 #
vertex $-1 $334 $451 #
point $-1 -50.220990698405942 28.994806663486301 5.3520385347488872 #
vertex $-1 $338 $452 #
point $-1 -50.220990698405942 31.384808242784779 5.3520385347488872 #
edge $-1 $420 69.39887004295926 $423 77.102933977728497 $343 $453 forward 7 unknown #
vertex $-1 $357 $454 #
straight-curve $-1 33.003519820706387 12.454574973445268 9.04913711983761 1 0 0 I I #
edge $-1 $423 2.2920553623459661 $354 18.032983859852639 $353 $455 forward 7 unknown #
vertex $-1 $422 $456 #
straight-curve $-1 -17.207022620646114 12.454574973445268 84.559135447127275 -0.65605901945558964 0 0.75470958851134928 I I #
point $-1 48.432815822919522 12.454574973445268 9.04913711983761 #
point $-1 55.129856257820364 28.195503470951941 1.3450731850683724 #
straight-curve $-1 55.129856257820364 0 9.0491371198376065 0 1 0 I I #
vertex $-1 $360 $457 #
point $-1 48.592236834382433 16.951983115590032 -0.22516237974918851 #
vertex $-1 $364 $458 #
point $-1 48.592236834382433 23.698095328807177 -0.22516237974918851 #
straight-curve $-1 -55.129856257820364 32.978142628983768 0 0 0 -1 I I #
point $-1 -55.129856257820364 -32.978142628983768 -9.0491371198376065 #
straight-curve $-1 -55.129856257820364 0 -9.0491371198376065 0 1 0 I I #
point $-1 -55.129856257820364 32.978142628983768 -9.0491371198376065 #
edge $-1 $401 -1.5 $437 1.5 $385 $459 forward 7 unknown #
vertex $-1 $389 $460 #
straight-curve $-1 -55.129856257820364 -41.123045405632887 0 0 0 -1 I I #
straight-curve $-1 -55.129856257820364 0 -9.0491371198376065 0 1 0 I I #
straight-curve $-1 -53.629856257820364 -41.123045405632887 9.0491371198376065 1 0 0 I I #
point $-1 -55.129856257820364 -41.123045405632887 9.0491371198376065 #
point $-1 -52.129856257820364 -41.123045405632887 9.0491371198376065 #
straight-curve $-1 -52.129856257820364 -41.123045405632887 0 0 0 -1 I I #
point $-1 -52.129856257820364 -41.123045405632887 -9.0491371198376065 #
straight-curve $-1 -55.129856257820364 14.497403331743151 3.0665674824555542 0 -1 0 I I #
straight-curve $-1 -55.129856257820364 32.978142628983768 0 0 0 -1 I I #
straight-curve $-1 0 32.978142628983768 9.0491371198376065 -1 0 0 I I #
point $-1 -55.129856257820364 32.978142628983768 3.0665674824555564 #
point $-1 -55.129856257820364 32.978142628983768 9.0491371198376065 #
point $-1 -50.294903476538117 26.604805084187824 4.6488053577522495 #
point $-1 -50.294903476538117 28.994806663486301 4.6488053577522495 #
point $-1 -50.294903476538117 31.384808242784779 4.6488053577522495 #
straight-curve $-1 55.129856257820364 12.454574973445268 78.44800716279687 0 0 -1 I I #
point $-1 55.129856257820364 12.454574973445268 9.0491371198376065 #
straight-curve $-1 55.129856257820364 10.162519611099302 1.3450731850683724 0 1 0 I I #
point $-1 55.129856257820364 12.454574973445268 1.3450731850683724 #
point $-1 45.77069961844856 16.951983115590032 -0.027861241637669232 #
point $-1 45.77069961844856 23.698095328807177 -0.027861241637669232 #
straight-curve $-1 -53.629856257820364 -41.123045405632887 -9.0491371198376065 -1 0 0 I I #
point $-1 -55.129856257820364 -41.123045405632887 -9.0491371198376065 #
End-of-ACIS-data 