500 0 14 0           
7 Unknown 11 ACIS 5.0 NT 24 Fri Mar 26 03:37:16 1999 
-1 9.9999999999999995e-007 1e-010 
body $-1 $14 $-1 $15 #
body $-1 $16 $-1 $17 #
body $-1 $18 $-1 $19 #
body $-1 $20 $-1 $21 #
body $-1 $22 $-1 $23 #
body $-1 $24 $-1 $25 #
body $-1 $26 $-1 $27 #
body $-1 $28 $-1 $29 #
body $-1 $30 $-1 $31 #
body $-1 $32 $-1 $33 #
body $-1 $34 $-1 $35 #
body $-1 $36 $-1 $37 #
body $-1 $38 $-1 $39 #
body $-1 $40 $-1 $41 #
lump $-1 $-1 $42 $0 #
transform $-1 1 0 0 0 1 0 0 0 1 57.012237922299875 30.84075505368639 10.830265699522483 1 rotate no_reflect no_shear #
lump $-1 $-1 $43 $1 #
transform $-1 1 0 0 0 1 0 0 0 1 57.012237922299875 30.84075505368639 10.830265699522483 1 rotate no_reflect no_shear #
lump $-1 $-1 $44 $2 #
transform $-1 1 0 0 0 1 0 0 0 1 57.012237922299875 30.84075505368639 10.830265699522483 1 rotate no_reflect no_shear #
lump $-1 $-1 $45 $3 #
transform $-1 1 0 0 0 1 0 0 0 1 57.012237922299875 30.84075505368639 10.830265699522483 1 rotate no_reflect no_shear #
lump $-1 $-1 $46 $4 #
transform $-1 1 0 0 0 1 0 0 0 1 57.012237922299875 30.84075505368639 10.830265699522483 1 rotate no_reflect no_shear #
lump $-1 $-1 $47 $5 #
transform $-1 1 0 0 0 1 0 0 0 1 57.012237922299875 30.84075505368639 10.830265699522483 1 rotate no_reflect no_shear #
lump $-1 $-1 $48 $6 #
transform $-1 1 0 0 0 1 0 0 0 1 57.012237922299875 30.84075505368639 10.830265699522483 1 rotate no_reflect no_shear #
lump $-1 $-1 $49 $7 #
transform $-1 1 0 0 0 1 0 0 0 1 57.012237922299875 30.84075505368639 10.830265699522483 1 rotate no_reflect no_shear #
lump $-1 $-1 $50 $8 #
transform $-1 1 0 0 0 1 0 0 0 1 57.012237922299875 30.84075505368639 10.830265699522483 1 rotate no_reflect no_shear #
lump $-1 $-1 $51 $9 #
transform $-1 1 0 0 0 1 0 0 0 1 57.012237922299875 30.84075505368639 10.830265699522483 1 rotate no_reflect no_shear #
lump $-1 $-1 $52 $10 #
transform $-1 1 0 0 0 1 0 0 0 1 57.012237922299875 30.84075505368639 10.830265699522483 1 rotate no_reflect no_shear #
lump $-1 $-1 $53 $11 #
transform $-1 1 0 0 0 1 0 0 0 1 57.012237922299875 30.84075505368639 10.830265699522483 1 rotate no_reflect no_shear #
lump $-1 $-1 $54 $12 #
transform $-1 1 0 0 0 1 0 0 0 1 57.012237922299875 30.84075505368639 10.830265699522483 1 rotate no_reflect no_shear #
lump $-1 $-1 $55 $13 #
transform $-1 1 0 0 0 1 0 0 0 1 57.012237922299875 30.84075505368639 10.830265699522483 1 rotate no_reflect no_shear #
shell $-1 $-1 $-1 $56 $-1 $14 #
shell $-1 $-1 $-1 $57 $-1 $16 #
shell $-1 $-1 $-1 $58 $-1 $18 #
shell $-1 $-1 $-1 $59 $-1 $20 #
shell $-1 $-1 $-1 $60 $-1 $22 #
shell $-1 $-1 $-1 $61 $-1 $24 #
shell $-1 $-1 $-1 $62 $-1 $26 #
shell $-1 $-1 $-1 $63 $-1 $28 #
shell $-1 $-1 $-1 $64 $-1 $30 #
shell $-1 $-1 $-1 $65 $-1 $32 #
shell $-1 $-1 $-1 $66 $-1 $34 #
shell $-1 $-1 $-1 $67 $-1 $36 #
shell $-1 $-1 $-1 $68 $-1 $38 #
shell $-1 $-1 $-1 $69 $-1 $40 #
face $-1 $70 $71 $42 $-1 $72 forward single #
face $-1 $73 $74 $43 $-1 $75 forward single #
face $-1 $76 $77 $44 $-1 $78 reversed single #
face $-1 $79 $80 $45 $-1 $81 forward single #
face $-1 $82 $83 $46 $-1 $84 forward single #
face $-1 $85 $86 $47 $-1 $87 reversed single #
face $-1 $88 $89 $48 $-1 $90 forward single #
face $-1 $91 $92 $49 $-1 $93 forward single #
face $-1 $94 $95 $50 $-1 $96 reversed single #
face $-1 $97 $98 $51 $-1 $99 forward single #
face $-1 $100 $101 $52 $-1 $102 forward single #
face $-1 $103 $104 $53 $-1 $105 reversed single #
face $-1 $106 $107 $54 $-1 $108 forward single #
face $-1 $109 $110 $55 $-1 $111 forward single #
face $-1 $112 $113 $42 $-1 $114 reversed single #
loop $-1 $-1 $115 $56 #
plane-surface $-1 0 0 10.830265699522483 0 0 1 1 0 0 forward_v I I I I #
face $-1 $116 $117 $43 $-1 $118 reversed single #
loop $-1 $-1 $119 $57 #
plane-surface $-1 0 -30.84075505368639 0 0 1 0 0 0 1 forward_v I I I I #
face $-1 $120 $121 $44 $-1 $122 reversed single #
loop $-1 $-1 $123 $58 #
plane-surface $-1 51.384522757894899 -3.672297512118142 163.52585720777134 0 -1 0 -0.68199836817093118 0 -0.7313536940579346 forward_v I I I I #
face $-1 $124 $125 $45 $-1 $126 forward single #
loop $-1 $127 $128 $59 #
cone-surface $-1 52.134509783912414 -8.0368163945542399 6.2340205668526547 -0.68199836817093118 0 -0.7313536940579346 0.3656768470289673 0 -0.34099918408546559 1 I I 0 1 0.5 forward I I I I #
face $-1 $129 $130 $46 $-1 $131 forward single #
loop $-1 $132 $133 $60 #
cone-surface $-1 52.134509783912414 -5.4181050650925826 6.2340205668526547 -0.68199836817093118 0 -0.7313536940579346 0.3656768470289673 0 -0.34099918408546559 1 I I 0 1 0.5 forward I I I I #
face $-1 $134 $135 $47 $-1 $136 reversed single #
loop $-1 $-1 $137 $61 #
plane-surface $-1 51.384522757894899 19.548564100484604 163.52585720777134 0 -1 0 -0.68199836817093118 0 -0.7313536940579346 forward_v I I I I #
face $-1 $138 $139 $48 $-1 $140 forward single #
loop $-1 $141 $142 $62 #
cone-surface $-1 52.134509783912414 15.184045218048507 6.2340205668526547 -0.68199836817093118 0 -0.7313536940579346 0.3656768470289673 0 -0.34099918408546559 1 I I 0 1 0.5 forward I I I I #
face $-1 $143 $144 $49 $-1 $145 forward single #
loop $-1 $146 $147 $63 #
cone-surface $-1 52.134509783912414 17.80275654751016 6.2340205668526547 -0.68199836817093118 0 -0.7313536940579346 0.3656768470289673 0 -0.34099918408546559 1 I I 0 1 0.5 forward I I I I #
face $-1 $148 $149 $50 $-1 $150 reversed single #
loop $-1 $-1 $151 $64 #
plane-surface $-1 -134.77674437986266 -9.7826239475286769 85.76135075020855 0 1 0 -0.68199836817093118 0 0.7313536940579346 forward_v I I I I #
face $-1 $152 $153 $51 $-1 $154 forward single #
loop $-1 $155 $156 $65 #
cone-surface $-1 -52.134509783912414 -8.0368163945542399 6.2340205668526689 0.68199836817093118 0 -0.7313536940579346 0.3656768470289673 0 0.34099918408546559 1 I I 0 1 0.5 forward I I I I #
face $-1 $157 $158 $52 $-1 $159 forward single #
loop $-1 $160 $161 $66 #
cone-surface $-1 -52.134509783912414 -5.4181050650925826 6.2340205668526689 0.68199836817093118 0 -0.7313536940579346 0.3656768470289673 0 0.34099918408546559 1 I I 0 1 0.5 forward I I I I #
face $-1 $162 $163 $53 $-1 $164 reversed single #
loop $-1 $-1 $165 $67 #
plane-surface $-1 -134.77674437986266 13.43823766507407 85.76135075020855 0 1 0 -0.68199836817093118 0 0.7313536940579346 forward_v I I I I #
face $-1 $166 $167 $54 $-1 $168 forward single #
loop $-1 $169 $170 $68 #
cone-surface $-1 -52.134509783912414 15.184045218048507 6.2340205668526689 0.68199836817093118 0 -0.7313536940579346 0.3656768470289673 0 0.34099918408546559 1 I I 0 1 0.5 forward I I I I #
face $-1 $171 $172 $55 $-1 $173 forward single #
loop $-1 $174 $175 $69 #
cone-surface $-1 -52.134509783912414 17.80275654751016 6.2340205668526689 0.68199836817093118 0 -0.7313536940579346 0.3656768470289673 0 0.34099918408546559 1 I I 0 1 0.5 forward I I I I #
face $-1 $176 $177 $42 $-1 $178 reversed single #
loop $-1 $-1 $179 $70 #
plane-surface $-1 0 0 -10.830265699522483 0 0 1 1 0 0 forward_v I I I I #
coedge $-1 $180 $181 $182 $183 forward $71 $-1 #
face $-1 $184 $185 $43 $-1 $186 forward single #
loop $-1 $-1 $187 $73 #
plane-surface $-1 -57.012237922299875 0 0 1 0 0 0 0 -1 forward_v I I I I #
coedge $-1 $188 $189 $190 $191 forward $74 $-1 #
face $-1 $192 $193 $44 $-1 $194 reversed single #
loop $-1 $-1 $195 $76 #
plane-surface $-1 -26.379983699667889 -6.7274607298234095 80.133635585803574 0.68199836817093118 0 0.7313536940579346 0.7313536940579346 0 -0.68199836817093118 forward_v I I I I #
coedge $-1 $196 $197 $198 $199 reversed $77 $-1 #
face $-1 $-1 $200 $45 $-1 $201 forward single #
loop $-1 $202 $203 $79 #
cone-surface $-1 51.623011007784214 -8.0368163945542399 5.6855052963092039 -0.68199836817093118 0 -0.7313536940579346 0.18283842351448365 0 -0.17049959204273279 1 I I -0.70710678118654746 0.70710678118654746 0.25 forward I I I I #
loop $-1 $-1 $204 $59 #
coedge $-1 $128 $128 $205 $206 reversed $80 $-1 #
face $-1 $-1 $207 $46 $-1 $208 forward single #
loop $-1 $209 $210 $82 #
cone-surface $-1 51.623011007784214 -5.4181050650925826 5.6855052963092039 -0.68199836817093118 0 -0.7313536940579346 0.18283842351448365 0 -0.17049959204273279 1 I I -0.70710678118654746 0.70710678118654746 0.25 forward I I I I #
loop $-1 $-1 $211 $60 #
coedge $-1 $133 $133 $212 $213 reversed $83 $-1 #
face $-1 $214 $215 $47 $-1 $216 reversed single #
loop $-1 $-1 $217 $85 #
plane-surface $-1 -26.379983699667889 16.493400882779337 80.133635585803574 0.68199836817093118 0 0.7313536940579346 0.7313536940579346 0 -0.68199836817093118 forward_v I I I I #
coedge $-1 $218 $219 $220 $221 reversed $86 $-1 #
face $-1 $-1 $222 $48 $-1 $223 forward single #
loop $-1 $224 $225 $88 #
cone-surface $-1 51.623011007784214 15.184045218048507 5.6855052963092039 -0.68199836817093118 0 -0.7313536940579346 0.18283842351448365 0 -0.17049959204273279 1 I I -0.70710678118654746 0.70710678118654746 0.25 forward I I I I #
loop $-1 $-1 $226 $62 #
coedge $-1 $142 $142 $227 $228 reversed $89 $-1 #
face $-1 $-1 $229 $49 $-1 $230 forward single #
loop $-1 $231 $232 $91 #
cone-surface $-1 51.623011007784214 17.80275654751016 5.6855052963092039 -0.68199836817093118 0 -0.7313536940579346 0.18283842351448365 0 -0.17049959204273279 1 I I -0.70710678118654746 0.70710678118654746 0.25 forward I I I I #
loop $-1 $-1 $233 $63 #
coedge $-1 $147 $147 $234 $235 reversed $92 $-1 #
face $-1 $236 $237 $50 $-1 $238 reversed single #
loop $-1 $-1 $239 $94 #
plane-surface $-1 -57.012237922299875 -6.7274607298234095 2.369129128240786 -0.68199836817093118 0 0.7313536940579346 0.7313536940579346 0 0.68199836817093118 forward_v I I I I #
coedge $-1 $240 $241 $242 $243 reversed $95 $-1 #
face $-1 $-1 $244 $51 $-1 $245 forward single #
loop $-1 $246 $247 $97 #
cone-surface $-1 -51.623011007784214 -8.0368163945542399 5.6855052963092181 0.68199836817093118 0 -0.7313536940579346 0.18283842351448365 0 0.17049959204273279 1 I I -0.70710678118654746 0.70710678118654746 0.25 forward I I I I #
loop $-1 $-1 $248 $65 #
coedge $-1 $156 $156 $249 $250 reversed $98 $-1 #
face $-1 $-1 $251 $52 $-1 $252 forward single #
loop $-1 $253 $254 $100 #
cone-surface $-1 -51.623011007784214 -5.4181050650925826 5.6855052963092181 0.68199836817093118 0 -0.7313536940579346 0.18283842351448365 0 0.17049959204273279 1 I I -0.70710678118654746 0.70710678118654746 0.25 forward I I I I #
loop $-1 $-1 $255 $66 #
coedge $-1 $161 $161 $256 $257 reversed $101 $-1 #
face $-1 $258 $259 $53 $-1 $260 reversed single #
loop $-1 $-1 $261 $103 #
plane-surface $-1 -57.012237922299875 16.493400882779337 2.369129128240786 -0.68199836817093118 0 0.7313536940579346 0.7313536940579346 0 0.68199836817093118 forward_v I I I I #
coedge $-1 $262 $263 $264 $265 reversed $104 $-1 #
face $-1 $-1 $266 $54 $-1 $267 forward single #
loop $-1 $268 $269 $106 #
cone-surface $-1 -51.623011007784214 15.184045218048507 5.6855052963092181 0.68199836817093118 0 -0.7313536940579346 0.18283842351448365 0 0.17049959204273279 1 I I -0.70710678118654746 0.70710678118654746 0.25 forward I I I I #
loop $-1 $-1 $270 $68 #
coedge $-1 $170 $170 $271 $272 reversed $107 $-1 #
face $-1 $-1 $273 $55 $-1 $274 forward single #
loop $-1 $275 $276 $109 #
cone-surface $-1 -51.623011007784214 17.80275654751016 5.6855052963092181 0.68199836817093118 0 -0.7313536940579346 0.18283842351448365 0 0.17049959204273279 1 I I -0.70710678118654746 0.70710678118654746 0.25 forward I I I I #
loop $-1 $-1 $277 $69 #
coedge $-1 $175 $175 $278 $279 reversed $110 $-1 #
face $-1 $280 $281 $42 $-1 $282 reversed single #
loop $-1 $-1 $283 $112 #
plane-surface $-1 0 -30.84075505368639 0 0 1 0 0 0 1 forward_v I I I I #
coedge $-1 $284 $285 $286 $287 forward $113 $-1 #
coedge $-1 $288 $115 $289 $290 forward $71 $-1 #
coedge $-1 $115 $288 $291 $292 forward $71 $-1 #
coedge $-1 $293 $294 $115 $183 reversed $295 $-1 #
edge $-1 $296 -30.84075505368639 $297 30.84075505368639 $182 $298 forward 7 unknown #
face $-1 $299 $300 $43 $-1 $301 reversed single #
loop $-1 $-1 $302 $116 #
plane-surface $-1 0 -35.723725130164354 3.1088274547600339 0 0 1 1 0 0 forward_v I I I I #
coedge $-1 $303 $304 $189 $305 forward $117 $-1 #
coedge $-1 $306 $119 $307 $308 reversed $74 $-1 #
coedge $-1 $119 $306 $187 $305 reversed $74 $-1 #
coedge $-1 $309 $302 $119 $191 reversed $185 $-1 #
edge $-1 $310 -57.012237922299875 $311 57.012237922299875 $190 $312 forward 7 unknown #
face $-1 $313 $314 $44 $-1 $315 reversed single #
loop $-1 $-1 $316 $120 #
plane-surface $-1 51.384522757894899 -9.7826239475286769 163.52585720777134 0 1 0 0.68199836817093118 0 0.7313536940579346 forward_v I I I I #
coedge $-1 $317 $318 $319 $320 reversed $121 $-1 #
coedge $-1 $197 $123 $321 $322 reversed $77 $-1 #
coedge $-1 $123 $196 $317 $323 reversed $77 $-1 #
coedge $-1 $319 $324 $123 $199 forward $325 $-1 #
edge $-1 $326 -31.319976543352425 $327 -22.246518634748426 $198 $328 forward 7 unknown #
loop $-1 $-1 $205 $124 #
plane-surface $-1 -26.379983699667889 -6.7274607298234095 80.133635585803574 0.68199836817093118 0 0.7313536940579346 0.7313536940579346 0 -0.68199836817093118 forward_v I I I I #
loop $-1 $-1 $329 $79 #
coedge $-1 $203 $203 $204 $330 reversed $125 $-1 #
coedge $-1 $204 $204 $203 $330 forward $127 $-1 #
coedge $-1 $205 $205 $128 $206 forward $200 $-1 #
edge $-1 $331 0 $331 6.2831853071796004 $205 $332 forward 7 unknown #
loop $-1 $-1 $212 $129 #
plane-surface $-1 -26.379983699667889 -6.7274607298234095 80.133635585803574 0.68199836817093118 0 0.7313536940579346 0.7313536940579346 0 -0.68199836817093118 forward_v I I I I #
loop $-1 $-1 $333 $82 #
coedge $-1 $210 $210 $211 $334 reversed $130 $-1 #
coedge $-1 $211 $211 $210 $334 forward $132 $-1 #
coedge $-1 $212 $212 $133 $213 forward $207 $-1 #
edge $-1 $335 0 $335 6.2831853071796004 $212 $336 forward 7 unknown #
face $-1 $337 $338 $47 $-1 $339 reversed single #
loop $-1 $-1 $340 $134 #
plane-surface $-1 51.384522757894899 13.43823766507407 163.52585720777134 0 1 0 0.68199836817093118 0 0.7313536940579346 forward_v I I I I #
coedge $-1 $341 $342 $343 $344 reversed $135 $-1 #
coedge $-1 $219 $137 $345 $346 reversed $86 $-1 #
coedge $-1 $137 $218 $341 $347 reversed $86 $-1 #
coedge $-1 $343 $348 $137 $221 forward $349 $-1 #
edge $-1 $350 -31.319976543352425 $351 -22.246518634748426 $220 $352 forward 7 unknown #
loop $-1 $-1 $227 $138 #
plane-surface $-1 -26.379983699667889 16.493400882779337 80.133635585803574 0.68199836817093118 0 0.7313536940579346 0.7313536940579346 0 -0.68199836817093118 forward_v I I I I #
loop $-1 $-1 $353 $88 #
coedge $-1 $225 $225 $226 $354 reversed $139 $-1 #
coedge $-1 $226 $226 $225 $354 forward $141 $-1 #
coedge $-1 $227 $227 $142 $228 forward $222 $-1 #
edge $-1 $355 0 $355 6.2831853071796004 $227 $356 forward 7 unknown #
loop $-1 $-1 $234 $143 #
plane-surface $-1 -26.379983699667889 16.493400882779337 80.133635585803574 0.68199836817093118 0 0.7313536940579346 0.7313536940579346 0 -0.68199836817093118 forward_v I I I I #
loop $-1 $-1 $357 $91 #
coedge $-1 $232 $232 $233 $358 reversed $144 $-1 #
coedge $-1 $233 $233 $232 $358 forward $146 $-1 #
coedge $-1 $234 $234 $147 $235 forward $229 $-1 #
edge $-1 $359 0 $359 6.2831853071796004 $234 $360 forward 7 unknown #
face $-1 $361 $362 $50 $-1 $363 forward single #
loop $-1 $-1 $364 $148 #
plane-surface $-1 -134.77674437986266 -3.672297512118142 85.76135075020855 0 -1 0 0.68199836817093118 0 -0.7313536940579346 forward_v I I I I #
coedge $-1 $365 $366 $367 $368 reversed $149 $-1 #
coedge $-1 $241 $151 $369 $370 reversed $95 $-1 #
coedge $-1 $151 $240 $365 $371 reversed $95 $-1 #
coedge $-1 $367 $372 $151 $243 forward $362 $-1 #
edge $-1 $373 10.376134267631457 $374 19.449592176235456 $242 $375 forward 7 unknown #
loop $-1 $-1 $249 $152 #
plane-surface $-1 -57.012237922299875 -6.7274607298234095 2.369129128240786 -0.68199836817093118 0 0.7313536940579346 0.7313536940579346 0 0.68199836817093118 forward_v I I I I #
loop $-1 $-1 $376 $97 #
coedge $-1 $247 $247 $248 $377 reversed $153 $-1 #
coedge $-1 $248 $248 $247 $377 forward $155 $-1 #
coedge $-1 $249 $249 $156 $250 forward $244 $-1 #
edge $-1 $378 0 $378 6.2831853071796004 $249 $379 forward 7 unknown #
loop $-1 $-1 $256 $157 #
plane-surface $-1 -57.012237922299875 -6.7274607298234095 2.369129128240786 -0.68199836817093118 0 0.7313536940579346 0.7313536940579346 0 0.68199836817093118 forward_v I I I I #
loop $-1 $-1 $380 $100 #
coedge $-1 $254 $254 $255 $381 reversed $158 $-1 #
coedge $-1 $255 $255 $254 $381 forward $160 $-1 #
coedge $-1 $256 $256 $161 $257 forward $251 $-1 #
edge $-1 $382 0 $382 6.2831853071796004 $256 $383 forward 7 unknown #
face $-1 $384 $385 $53 $-1 $386 forward single #
loop $-1 $-1 $387 $162 #
plane-surface $-1 -134.77674437986266 19.548564100484604 85.76135075020855 0 -1 0 0.68199836817093118 0 -0.7313536940579346 forward_v I I I I #
coedge $-1 $388 $389 $390 $391 reversed $163 $-1 #
coedge $-1 $263 $165 $392 $393 reversed $104 $-1 #
coedge $-1 $165 $262 $388 $394 reversed $104 $-1 #
coedge $-1 $390 $395 $165 $265 forward $385 $-1 #
edge $-1 $396 10.376134267631457 $397 19.449592176235456 $264 $398 forward 7 unknown #
loop $-1 $-1 $271 $166 #
plane-surface $-1 -57.012237922299875 16.493400882779337 2.369129128240786 -0.68199836817093118 0 0.7313536940579346 0.7313536940579346 0 0.68199836817093118 forward_v I I I I #
loop $-1 $-1 $399 $106 #
coedge $-1 $269 $269 $270 $400 reversed $167 $-1 #
coedge $-1 $270 $270 $269 $400 forward $169 $-1 #
coedge $-1 $271 $271 $170 $272 forward $266 $-1 #
edge $-1 $401 0 $401 6.2831853071796004 $271 $402 forward 7 unknown #
loop $-1 $-1 $278 $171 #
plane-surface $-1 -57.012237922299875 16.493400882779337 2.369129128240786 -0.68199836817093118 0 0.7313536940579346 0.7313536940579346 0 0.68199836817093118 forward_v I I I I #
loop $-1 $-1 $403 $109 #
coedge $-1 $276 $276 $277 $404 reversed $172 $-1 #
coedge $-1 $277 $277 $276 $404 forward $174 $-1 #
coedge $-1 $278 $278 $175 $279 forward $273 $-1 #
edge $-1 $405 0 $405 6.2831853071796004 $278 $406 forward 7 unknown #
face $-1 $407 $408 $42 $-1 $409 reversed single #
loop $-1 $-1 $410 $176 #
plane-surface $-1 -57.012237922299875 0 0 1 0 0 0 0 -1 forward_v I I I I #
coedge $-1 $411 $291 $412 $413 forward $177 $-1 #
coedge $-1 $414 $179 $411 $415 forward $113 $-1 #
coedge $-1 $179 $414 $416 $417 forward $113 $-1 #
coedge $-1 $294 $293 $179 $287 reversed $295 $-1 #
edge $-1 $418 -30.84075505368639 $419 30.84075505368639 $286 $420 forward 7 unknown #
coedge $-1 $181 $180 $421 $422 forward $71 $-1 #
coedge $-1 $423 $424 $180 $290 reversed $408 $-1 #
edge $-1 $297 -57.012237922299875 $425 57.012237922299875 $289 $426 forward 7 unknown #
coedge $-1 $283 $427 $181 $292 reversed $177 $-1 #
edge $-1 $428 -57.012237922299875 $296 57.012237922299875 $291 $429 forward 7 unknown #
coedge $-1 $286 $182 $427 $430 forward $295 $-1 #
coedge $-1 $182 $286 $423 $431 reversed $295 $-1 #
loop $-1 $-1 $293 $407 #
vertex $-1 $183 $432 #
vertex $-1 $183 $433 #
straight-curve $-1 57.012237922299875 0 10.830265699522483 0 1 0 I I #
face $-1 $434 $435 $43 $-1 $436 reversed single #
loop $-1 $-1 $437 $184 #
plane-surface $-1 0 -35.723725130164354 -2.1129821610264568 0 0 1 1 0 0 forward_v I I I I #
coedge $-1 $190 $438 $439 $440 forward $185 $-1 #
coedge $-1 $441 $187 $442 $443 reversed $117 $-1 #
coedge $-1 $187 $441 $309 $444 reversed $117 $-1 #
edge $-1 $310 -3.1088274547600339 $445 2.1129821610264568 $187 $446 forward 7 unknown #
coedge $-1 $189 $188 $447 $448 forward $74 $-1 #
coedge $-1 $439 $449 $188 $308 forward $450 $-1 #
edge $-1 $451 -2.1129821610264568 $311 3.1088274547600339 $307 $452 forward 7 unknown #
coedge $-1 $438 $190 $304 $444 forward $185 $-1 #
vertex $-1 $305 $453 #
vertex $-1 $440 $454 #
straight-curve $-1 0 -30.84075505368639 3.1088274547600339 1 0 0 I I #
face $-1 $-1 $325 $44 $-1 $455 forward single #
loop $-1 $-1 $456 $192 #
plane-surface $-1 57.012237922299875 0 0 -1 0 0 0 0 1 forward_v I I I I #
coedge $-1 $457 $458 $459 $460 reversed $193 $-1 #
coedge $-1 $461 $195 $197 $323 forward $121 $-1 #
coedge $-1 $195 $461 $457 $462 forward $121 $-1 #
coedge $-1 $459 $198 $195 $320 forward $325 $-1 #
edge $-1 $327 0.3085671472064373 $463 6.4188935826169722 $319 $464 forward 7 unknown #
coedge $-1 $465 $466 $196 $322 forward $314 $-1 #
edge $-1 $467 -79.393799475644883 $326 -70.932662904363184 $321 $468 forward 7 unknown #
edge $-1 $327 101.61808755077753 $467 114.02447584459975 $197 $469 forward 7 unknown #
coedge $-1 $198 $459 $465 $470 forward $325 $-1 #
loop $-1 $-1 $459 $313 #
vertex $-1 $322 $471 #
vertex $-1 $199 $472 #
straight-curve $-1 25.69226137894745 -3.672297512118142 10.830265699522485 -1 0 0 I I #
coedge $-1 $329 $329 $-1 $473 reversed $202 $-1 #
edge $-1 $474 0 $474 6.2831853071796004 $203 $475 forward 7 unknown #
vertex $-1 $206 $476 #
ellipse-curve $-1 52.475508967997882 -8.0368163945542399 6.5996974138816276 0.68199836817093118 0 0.7313536940579346 0.3656768470289673 0 -0.34099918408546559 1 I I #
coedge $-1 $333 $333 $-1 $477 reversed $209 $-1 #
edge $-1 $478 0 $478 6.2831853071796004 $210 $479 forward 7 unknown #
vertex $-1 $213 $480 #
ellipse-curve $-1 52.475508967997882 -5.4181050650925826 6.5996974138816276 0.68199836817093118 0 0.7313536940579346 0.3656768470289673 0 -0.34099918408546559 1 I I #
face $-1 $-1 $349 $47 $-1 $481 forward single #
loop $-1 $-1 $482 $214 #
plane-surface $-1 57.012237922299875 0 0 -1 0 0 0 0 1 forward_v I I I I #
coedge $-1 $483 $484 $485 $486 reversed $215 $-1 #
coedge $-1 $487 $217 $219 $347 forward $135 $-1 #
coedge $-1 $217 $487 $483 $488 forward $135 $-1 #
coedge $-1 $485 $220 $217 $344 forward $349 $-1 #
edge $-1 $351 -11.301863659094936 $489 -5.1915372236844011 $343 $490 forward 7 unknown #
coedge $-1 $491 $492 $218 $346 forward $338 $-1 #
edge $-1 $493 -79.393799475644883 $350 -70.932662904363184 $345 $494 forward 7 unknown #
edge $-1 $351 101.61808755077753 $493 114.02447584459975 $219 $495 forward 7 unknown #
coedge $-1 $220 $485 $491 $496 forward $349 $-1 #
loop $-1 $-1 $485 $337 #
vertex $-1 $346 $497 #
vertex $-1 $221 $498 #
straight-curve $-1 25.69226137894745 19.548564100484604 10.830265699522485 -1 0 0 I I #
coedge $-1 $353 $353 $-1 $499 reversed $224 $-1 #
edge $-1 $500 0 $500 6.2831853071796004 $225 $501 forward 7 unknown #
vertex $-1 $228 $502 #
ellipse-curve $-1 52.475508967997882 15.184045218048507 6.5996974138816276 0.68199836817093118 0 0.7313536940579346 0.3656768470289673 0 -0.34099918408546559 1 I I #
coedge $-1 $357 $357 $-1 $503 reversed $231 $-1 #
edge $-1 $504 0 $504 6.2831853071796004 $232 $505 forward 7 unknown #
vertex $-1 $235 $506 #
ellipse-curve $-1 52.475508967997882 17.80275654751016 6.5996974138816276 0.68199836817093118 0 0.7313536940579346 0.3656768470289673 0 -0.34099918408546559 1 I I #
face $-1 $-1 $507 $50 $-1 $508 reversed single #
loop $-1 $-1 $242 $236 #
plane-surface $-1 0 0 10.830265699522483 0 0 1 1 0 0 forward_v I I I I #
coedge $-1 $509 $510 $511 $512 reversed $237 $-1 #
coedge $-1 $513 $239 $241 $371 forward $149 $-1 #
coedge $-1 $239 $513 $509 $514 forward $149 $-1 #
coedge $-1 $511 $242 $239 $368 forward $362 $-1 #
edge $-1 $374 -6.4188935826169722 $515 -0.3085671472064373 $367 $516 forward 7 unknown #
coedge $-1 $517 $518 $240 $370 forward $507 $-1 #
edge $-1 $519 -40.511546246863489 $373 -32.05040967558179 $369 $520 forward 7 unknown #
edge $-1 $374 -12.406388293822221 $519 0 $241 $521 forward 7 unknown #
coedge $-1 $242 $511 $517 $522 forward $362 $-1 #
vertex $-1 $243 $523 #
vertex $-1 $243 $524 #
straight-curve $-1 -67.388372189931331 -9.7826239475286769 10.830265699522485 1 0 0 I I #
coedge $-1 $376 $376 $-1 $525 reversed $246 $-1 #
edge $-1 $526 0 $526 6.2831853071796004 $247 $527 forward 7 unknown #
vertex $-1 $250 $528 #
ellipse-curve $-1 -52.475508967997875 -8.0368163945542399 6.5996974138816338 -0.68199836817093118 0 0.7313536940579346 0.3656768470289673 0 0.34099918408546559 1 I I #
coedge $-1 $380 $380 $-1 $529 reversed $253 $-1 #
edge $-1 $530 0 $530 6.2831853071796004 $254 $531 forward 7 unknown #
vertex $-1 $257 $532 #
ellipse-curve $-1 -52.475508967997875 -5.4181050650925826 6.5996974138816338 -0.68199836817093118 0 0.7313536940579346 0.3656768470289673 0 0.34099918408546559 1 I I #
face $-1 $-1 $533 $53 $-1 $534 reversed single #
loop $-1 $-1 $264 $258 #
plane-surface $-1 0 0 10.830265699522483 0 0 1 1 0 0 forward_v I I I I #
coedge $-1 $535 $536 $537 $538 reversed $259 $-1 #
coedge $-1 $539 $261 $263 $394 forward $163 $-1 #
coedge $-1 $261 $539 $535 $540 forward $163 $-1 #
coedge $-1 $537 $264 $261 $391 forward $385 $-1 #
edge $-1 $397 5.1915372236844011 $541 11.301863659094936 $390 $542 forward 7 unknown #
coedge $-1 $543 $544 $262 $393 forward $533 $-1 #
edge $-1 $545 -40.511546246863489 $396 -32.05040967558179 $392 $546 forward 7 unknown #
edge $-1 $397 -12.406388293822221 $545 0 $263 $547 forward 7 unknown #
coedge $-1 $264 $537 $543 $548 forward $385 $-1 #
vertex $-1 $265 $549 #
vertex $-1 $265 $550 #
straight-curve $-1 -67.388372189931331 13.43823766507407 10.830265699522485 1 0 0 I I #
coedge $-1 $399 $399 $-1 $551 reversed $268 $-1 #
edge $-1 $552 0 $552 6.2831853071796004 $269 $553 forward 7 unknown #
vertex $-1 $272 $554 #
ellipse-curve $-1 -52.475508967997875 15.184045218048507 6.5996974138816338 -0.68199836817093118 0 0.7313536940579346 0.3656768470289673 0 0.34099918408546559 1 I I #
coedge $-1 $403 $403 $-1 $555 reversed $275 $-1 #
edge $-1 $556 0 $556 6.2831853071796004 $276 $557 forward 7 unknown #
vertex $-1 $279 $558 #
ellipse-curve $-1 -52.475508967997875 17.80275654751016 6.5996974138816338 -0.68199836817093118 0 0.7313536940579346 0.3656768470289673 0 0.34099918408546559 1 I I #
face $-1 $-1 $295 $42 $-1 $559 reversed single #
loop $-1 $-1 $423 $280 #
plane-surface $-1 0 30.84075505368639 0 0 -1 0 0 0 -1 forward_v I I I I #
coedge $-1 $560 $421 $424 $561 forward $281 $-1 #
coedge $-1 $427 $283 $284 $415 reversed $177 $-1 #
coedge $-1 $421 $560 $283 $413 reversed $281 $-1 #
edge $-1 $428 -10.830265699522483 $562 10.830265699522483 $412 $563 forward 7 unknown #
coedge $-1 $285 $284 $560 $564 forward $113 $-1 #
edge $-1 $419 -57.012237922299875 $562 57.012237922299875 $411 $565 forward 7 unknown #
coedge $-1 $424 $423 $285 $417 reversed $408 $-1 #
edge $-1 $566 -57.012237922299875 $418 57.012237922299875 $416 $567 forward 7 unknown #
vertex $-1 $287 $568 #
vertex $-1 $430 $569 #
straight-curve $-1 57.012237922299875 0 -10.830265699522483 0 -1 0 I I #
coedge $-1 $410 $412 $288 $422 reversed $281 $-1 #
edge $-1 $425 -30.84075505368639 $428 30.84075505368639 $421 $570 forward 7 unknown #
coedge $-1 $416 $289 $294 $431 forward $408 $-1 #
coedge $-1 $289 $416 $410 $561 reversed $408 $-1 #
vertex $-1 $290 $571 #
straight-curve $-1 0 30.84075505368639 10.830265699522483 -1 0 0 I I #
coedge $-1 $291 $411 $293 $430 reversed $177 $-1 #
vertex $-1 $422 $572 #
straight-curve $-1 0 -30.84075505368639 10.830265699522483 1 0 0 I I #
edge $-1 $296 -10.830265699522483 $419 10.830265699522483 $293 $573 forward 7 unknown #
edge $-1 $297 -10.830265699522483 $418 10.830265699522483 $294 $574 forward 7 unknown #
point $-1 57.012237922299875 -30.84075505368639 10.830265699522483 #
point $-1 57.012237922299875 30.84075505368639 10.830265699522483 #
face $-1 $-1 $450 $43 $-1 $575 reversed single #
loop $-1 $-1 $576 $299 #
plane-surface $-1 0 -40.606695206642314 0.49792264686678855 0 1 0 0 0 1 forward_v I I I I #
coedge $-1 $577 $447 $449 $578 forward $300 $-1 #
coedge $-1 $302 $309 $579 $580 forward $185 $-1 #
coedge $-1 $581 $307 $302 $440 reversed $450 $-1 #
edge $-1 $582 -4.8829700764779602 $311 4.8829700764779638 $439 $583 forward 7 unknown #
coedge $-1 $304 $303 $576 $584 reversed $117 $-1 #
coedge $-1 $447 $577 $303 $443 forward $300 $-1 #
edge $-1 $585 -4.8829700764779602 $445 4.8829700764779638 $303 $586 forward 7 unknown #
edge $-1 $310 -4.8829700764779638 $587 4.8829700764779602 $304 $588 forward 7 unknown #
vertex $-1 $305 $589 #
straight-curve $-1 -57.012237922299875 -30.84075505368639 0 0 0 -1 I I #
coedge $-1 $437 $442 $306 $448 reversed $300 $-1 #
edge $-1 $451 -57.012237922299875 $445 57.012237922299875 $447 $590 forward 7 unknown #
coedge $-1 $307 $581 $437 $578 reversed $450 $-1 #
loop $-1 $-1 $307 $434 #
vertex $-1 $308 $591 #
straight-curve $-1 57.012237922299875 -30.84075505368639 0 0 0 1 I I #
point $-1 -57.012237922299875 -30.84075505368639 3.1088274547600339 #
point $-1 57.012237922299875 -30.84075505368639 3.1088274547600339 #
plane-surface $-1 0 0 10.830265699522483 0 0 1 1 0 0 forward_v I I I I #
coedge $-1 $466 $465 $458 $592 forward $314 $-1 #
coedge $-1 $458 $316 $318 $462 reversed $193 $-1 #
coedge $-1 $316 $457 $456 $592 reversed $193 $-1 #
coedge $-1 $324 $319 $316 $460 forward $325 $-1 #
edge $-1 $463 22.246518634748426 $593 31.319976543352425 $459 $594 forward 7 unknown #
coedge $-1 $318 $317 $466 $595 reversed $121 $-1 #
edge $-1 $596 -114.02447584459975 $463 -101.61808755077753 $457 $597 forward 7 unknown #
vertex $-1 $320 $598 #
straight-curve $-1 47.938780013695869 -3.3637303649117047 10.830265699522485 0 -1 0 I I #
coedge $-1 $456 $321 $324 $470 reversed $314 $-1 #
coedge $-1 $321 $456 $461 $595 forward $314 $-1 #
vertex $-1 $322 $599 #
straight-curve $-1 57.012237922299875 -3.672297512118142 81.762928603885669 0 0 1 I I #
straight-curve $-1 -26.379983699667889 -3.672297512118142 80.133635585803574 0.7313536940579346 0 -0.68199836817093118 I I #
edge $-1 $593 -9.7826239475286769 $326 -3.672297512118142 $465 $600 forward 7 unknown #
point $-1 57.012237922299875 -3.672297512118142 10.830265699522483 #
point $-1 47.938780013695876 -3.672297512118142 10.830265699522485 #
edge $-1 $601 1 $601 0 $329 $-1 forward 7 unknown #
vertex $-1 $330 $602 #
ellipse-curve $-1 51.793510599826945 -8.0368163945542399 5.8683437198236872 0.68199836817093118 0 0.7313536940579346 0.3656768470289673 0 -0.34099918408546559 1 I I #
point $-1 52.841185815026847 -8.0368163945542399 6.2586982297961562 #
edge $-1 $603 1 $603 0 $333 $-1 forward 7 unknown #
vertex $-1 $334 $604 #
ellipse-curve $-1 51.793510599826945 -5.4181050650925826 5.8683437198236872 0.68199836817093118 0 0.7313536940579346 0.3656768470289673 0 -0.34099918408546559 1 I I #
point $-1 52.841185815026847 -5.4181050650925826 6.2586982297961562 #
plane-surface $-1 0 0 10.830265699522483 0 0 1 1 0 0 forward_v I I I I #
coedge $-1 $492 $491 $484 $605 forward $338 $-1 #
coedge $-1 $484 $340 $342 $488 reversed $215 $-1 #
coedge $-1 $340 $483 $482 $605 reversed $215 $-1 #
coedge $-1 $348 $343 $340 $486 forward $349 $-1 #
edge $-1 $489 22.246518634748426 $606 31.319976543352425 $485 $607 forward 7 unknown #
coedge $-1 $342 $341 $492 $608 reversed $135 $-1 #
edge $-1 $609 -114.02447584459975 $489 -101.61808755077753 $483 $610 forward 7 unknown #
vertex $-1 $344 $611 #
straight-curve $-1 47.938780013695869 8.2467004413896685 10.830265699522485 0 -1 0 I I #
coedge $-1 $482 $345 $348 $496 reversed $338 $-1 #
coedge $-1 $345 $482 $487 $608 forward $338 $-1 #
vertex $-1 $346 $612 #
straight-curve $-1 57.012237922299875 19.548564100484604 81.762928603885669 0 0 1 I I #
straight-curve $-1 -26.379983699667889 19.548564100484604 80.133635585803574 0.7313536940579346 0 -0.68199836817093118 I I #
edge $-1 $606 13.43823766507407 $350 19.548564100484604 $491 $613 forward 7 unknown #
point $-1 57.012237922299875 19.548564100484604 10.830265699522483 #
point $-1 47.938780013695876 19.548564100484604 10.830265699522485 #
edge $-1 $614 1 $614 0 $353 $-1 forward 7 unknown #
vertex $-1 $354 $615 #
ellipse-curve $-1 51.793510599826945 15.184045218048507 5.8683437198236872 0.68199836817093118 0 0.7313536940579346 0.3656768470289673 0 -0.34099918408546559 1 I I #
point $-1 52.841185815026847 15.184045218048507 6.2586982297961562 #
edge $-1 $616 1 $616 0 $357 $-1 forward 7 unknown #
vertex $-1 $358 $617 #
ellipse-curve $-1 51.793510599826945 17.80275654751016 5.8683437198236872 0.68199836817093118 0 0.7313536940579346 0.3656768470289673 0 -0.34099918408546559 1 I I #
point $-1 52.841185815026847 17.80275654751016 6.2586982297961562 #
loop $-1 $-1 $369 $361 #
plane-surface $-1 -57.012237922299875 0 0 1 0 0 0 0 -1 forward_v I I I I #
coedge $-1 $510 $364 $366 $514 reversed $237 $-1 #
coedge $-1 $364 $509 $618 $619 reversed $237 $-1 #
coedge $-1 $372 $367 $364 $512 forward $362 $-1 #
edge $-1 $515 -19.449592176235456 $620 -10.376134267631457 $511 $621 forward 7 unknown #
coedge $-1 $366 $365 $518 $622 reversed $149 $-1 #
edge $-1 $623 0 $515 12.406388293822221 $509 $624 forward 7 unknown #
vertex $-1 $368 $625 #
straight-curve $-1 -47.938780013695883 -3.3637303649117047 10.830265699522482 0 1 0 I I #
coedge $-1 $618 $369 $372 $522 reversed $507 $-1 #
coedge $-1 $369 $618 $513 $622 forward $507 $-1 #
vertex $-1 $370 $626 #
straight-curve $-1 -57.012237922299875 -9.7826239475286769 42.880675375104275 0 0 1 I I #
straight-curve $-1 -57.012237922299875 -9.7826239475286769 2.369129128240786 -0.7313536940579346 0 -0.68199836817093118 I I #
edge $-1 $620 3.672297512118142 $373 9.7826239475286769 $517 $627 forward 7 unknown #
point $-1 -57.012237922299875 -9.7826239475286769 10.830265699522483 #
point $-1 -47.938780013695876 -9.7826239475286769 10.830265699522483 #
edge $-1 $628 1 $628 0 $376 $-1 forward 7 unknown #
vertex $-1 $377 $629 #
ellipse-curve $-1 -51.793510599826945 -8.0368163945542399 5.8683437198237014 -0.68199836817093118 0 0.7313536940579346 0.3656768470289673 0 0.34099918408546559 1 I I #
point $-1 -52.10983212096891 -8.0368163945542399 6.9406965979671025 #
edge $-1 $630 1 $630 0 $380 $-1 forward 7 unknown #
vertex $-1 $381 $631 #
ellipse-curve $-1 -51.793510599826945 -5.4181050650925826 5.8683437198237014 -0.68199836817093118 0 0.7313536940579346 0.3656768470289673 0 0.34099918408546559 1 I I #
point $-1 -52.10983212096891 -5.4181050650925826 6.9406965979671025 #
loop $-1 $-1 $392 $384 #
plane-surface $-1 -57.012237922299875 0 0 1 0 0 0 0 -1 forward_v I I I I #
coedge $-1 $536 $387 $389 $540 reversed $259 $-1 #
coedge $-1 $387 $535 $632 $633 reversed $259 $-1 #
coedge $-1 $395 $390 $387 $538 forward $385 $-1 #
edge $-1 $541 -19.449592176235456 $634 -10.376134267631457 $537 $635 forward 7 unknown #
coedge $-1 $389 $388 $544 $636 reversed $163 $-1 #
edge $-1 $637 0 $541 12.406388293822221 $535 $638 forward 7 unknown #
vertex $-1 $391 $639 #
straight-curve $-1 -47.938780013695883 8.2467004413896685 10.830265699522482 0 1 0 I I #
coedge $-1 $632 $392 $395 $548 reversed $533 $-1 #
coedge $-1 $392 $632 $539 $636 forward $533 $-1 #
vertex $-1 $393 $640 #
straight-curve $-1 -57.012237922299875 13.43823766507407 42.880675375104275 0 0 1 I I #
straight-curve $-1 -57.012237922299875 13.43823766507407 2.369129128240786 -0.7313536940579346 0 -0.68199836817093118 I I #
edge $-1 $634 -19.548564100484604 $396 -13.43823766507407 $543 $641 forward 7 unknown #
point $-1 -57.012237922299875 13.43823766507407 10.830265699522483 #
point $-1 -47.938780013695876 13.43823766507407 10.830265699522483 #
edge $-1 $642 1 $642 0 $399 $-1 forward 7 unknown #
vertex $-1 $400 $643 #
ellipse-curve $-1 -51.793510599826945 15.184045218048507 5.8683437198237014 -0.68199836817093118 0 0.7313536940579346 0.3656768470289673 0 0.34099918408546559 1 I I #
point $-1 -52.10983212096891 15.184045218048507 6.9406965979671025 #
edge $-1 $644 1 $644 0 $403 $-1 forward 7 unknown #
vertex $-1 $404 $645 #
ellipse-curve $-1 -51.793510599826945 17.80275654751016 5.8683437198237014 -0.68199836817093118 0 0.7313536940579346 0.3656768470289673 0 0.34099918408546559 1 I I #
point $-1 -52.10983212096891 17.80275654751016 6.9406965979671025 #
plane-surface $-1 57.012237922299875 0 0 -1 0 0 0 0 1 forward_v I I I I #
coedge $-1 $412 $410 $414 $564 reversed $281 $-1 #
edge $-1 $425 -10.830265699522483 $566 10.830265699522483 $424 $646 forward 7 unknown #
vertex $-1 $564 $647 #
straight-curve $-1 -57.012237922299875 -30.84075505368639 0 0 0 -1 I I #
edge $-1 $562 -30.84075505368639 $566 30.84075505368639 $560 $648 forward 7 unknown #
straight-curve $-1 0 -30.84075505368639 -10.830265699522483 -1 0 0 I I #
vertex $-1 $417 $649 #
straight-curve $-1 0 30.84075505368639 -10.830265699522483 1 0 0 I I #
point $-1 57.012237922299875 30.84075505368639 -10.830265699522483 #
point $-1 57.012237922299875 -30.84075505368639 -10.830265699522483 #
straight-curve $-1 -57.012237922299875 0 10.830265699522483 0 -1 0 I I #
point $-1 -57.012237922299875 30.84075505368639 10.830265699522483 #
point $-1 -57.012237922299875 -30.84075505368639 10.830265699522483 #
straight-curve $-1 57.012237922299875 -30.84075505368639 0 0 0 -1 I I #
straight-curve $-1 57.012237922299875 30.84075505368639 0 0 0 -1 I I #
plane-surface $-1 57.012237922299875 0 0 -1 0 0 0 0 1 forward_v I I I I #
coedge $-1 $650 $579 $441 $584 forward $435 $-1 #
coedge $-1 $442 $437 $650 $651 forward $300 $-1 #
edge $-1 $451 -4.8829700764779638 $652 4.8829700764779602 $449 $653 forward 7 unknown #
coedge $-1 $576 $654 $438 $580 reversed $435 $-1 #
edge $-1 $587 -57.012237922299875 $582 57.012237922299875 $579 $655 forward 7 unknown #
coedge $-1 $449 $439 $654 $656 forward $450 $-1 #
vertex $-1 $440 $657 #
straight-curve $-1 57.012237922299875 -35.723725130164354 3.1088274547600339 0 1 0 I I #
edge $-1 $587 -2.6109048078932453 $585 2.6109048078932453 $441 $658 forward 7 unknown #
vertex $-1 $443 $659 #
straight-curve $-1 -57.012237922299875 -35.723725130164354 -2.1129821610264568 0 1 0 I I #
vertex $-1 $444 $660 #
straight-curve $-1 -57.012237922299875 -35.723725130164354 3.1088274547600339 0 -1 0 I I #
point $-1 -57.012237922299875 -30.84075505368639 -2.1129821610264568 #
straight-curve $-1 0 -30.84075505368639 -2.1129821610264568 -1 0 0 I I #
point $-1 57.012237922299875 -30.84075505368639 -2.1129821610264568 #
edge $-1 $593 70.932662904363184 $596 79.393799475644883 $456 $661 forward 7 unknown #
vertex $-1 $470 $662 #
straight-curve $-1 25.69226137894745 -9.7826239475286769 10.830265699522485 1 0 0 I I #
edge $-1 $596 -6.4188935826169722 $467 -0.3085671472064373 $466 $663 forward 7 unknown #
vertex $-1 $595 $664 #
straight-curve $-1 -26.379983699667889 -9.7826239475286769 80.133635585803574 -0.7313536940579346 0 0.68199836817093118 I I #
point $-1 47.938780013695876 -9.7826239475286769 10.830265699522485 #
point $-1 57.012237922299875 -3.672297512118142 2.369129128240786 #
straight-curve $-1 57.012237922299875 0 10.830265699522483 0 1 0 I I #
vertex $-1 $473 $665 #
point $-1 52.159187446855917 -8.0368163945542399 5.527344535738222 #
vertex $-1 $477 $666 #
point $-1 52.159187446855917 -5.4181050650925826 5.527344535738222 #
edge $-1 $606 70.932662904363184 $609 79.393799475644883 $482 $667 forward 7 unknown #
vertex $-1 $496 $668 #
straight-curve $-1 25.69226137894745 13.43823766507407 10.830265699522485 1 0 0 I I #
edge $-1 $609 5.1915372236844011 $493 11.301863659094936 $492 $669 forward 7 unknown #
vertex $-1 $608 $670 #
straight-curve $-1 -26.379983699667889 13.43823766507407 80.133635585803574 -0.7313536940579346 0 0.68199836817093118 I I #
point $-1 47.938780013695876 13.43823766507407 10.830265699522485 #
point $-1 57.012237922299875 19.548564100484604 2.369129128240786 #
straight-curve $-1 57.012237922299875 0 10.830265699522483 0 1 0 I I #
vertex $-1 $499 $671 #
point $-1 52.159187446855917 15.184045218048507 5.527344535738222 #
vertex $-1 $503 $672 #
point $-1 52.159187446855917 17.80275654751016 5.527344535738222 #
coedge $-1 $518 $517 $510 $619 forward $507 $-1 #
edge $-1 $620 32.05040967558179 $623 40.511546246863489 $618 $673 forward 7 unknown #
vertex $-1 $522 $674 #
straight-curve $-1 -67.388372189931331 -3.672297512118142 10.830265699522485 -1 0 0 I I #
edge $-1 $623 0.3085671472064373 $519 6.4188935826169722 $518 $675 forward 7 unknown #
vertex $-1 $622 $676 #
straight-curve $-1 -57.012237922299875 -3.672297512118142 2.369129128240786 0.7313536940579346 0 0.68199836817093118 I I #
point $-1 -47.938780013695876 -3.672297512118142 10.830265699522483 #
point $-1 -57.012237922299875 -9.7826239475286769 2.369129128240786 #
straight-curve $-1 -57.012237922299875 0 10.830265699522483 0 -1 0 I I #
vertex $-1 $525 $677 #
point $-1 -51.42783375279798 -8.0368163945542399 6.2093429039091674 #
vertex $-1 $529 $678 #
point $-1 -51.42783375279798 -5.4181050650925826 6.2093429039091674 #
coedge $-1 $544 $543 $536 $633 forward $533 $-1 #
edge $-1 $634 32.05040967558179 $637 40.511546246863489 $632 $679 forward 7 unknown #
vertex $-1 $548 $680 #
straight-curve $-1 -67.388372189931331 19.548564100484604 10.830265699522485 -1 0 0 I I #
edge $-1 $637 -11.301863659094936 $545 -5.1915372236844011 $544 $681 forward 7 unknown #
vertex $-1 $636 $682 #
straight-curve $-1 -57.012237922299875 19.548564100484604 2.369129128240786 0.7313536940579346 0 0.68199836817093118 I I #
point $-1 -47.938780013695876 19.548564100484604 10.830265699522483 #
point $-1 -57.012237922299875 13.43823766507407 2.369129128240786 #
straight-curve $-1 -57.012237922299875 0 10.830265699522483 0 -1 0 I I #
vertex $-1 $551 $683 #
point $-1 -51.42783375279798 15.184045218048507 6.2093429039091674 #
vertex $-1 $555 $684 #
point $-1 -51.42783375279798 17.80275654751016 6.2093429039091674 #
straight-curve $-1 -57.012237922299875 30.84075505368639 0 0 0 -1 I I #
point $-1 -57.012237922299875 -30.84075505368639 -10.830265699522483 #
straight-curve $-1 -57.012237922299875 0 -10.830265699522483 0 1 0 I I #
point $-1 -57.012237922299875 30.84075505368639 -10.830265699522483 #
coedge $-1 $654 $576 $577 $651 reversed $435 $-1 #
edge $-1 $652 -57.012237922299875 $585 57.012237922299875 $650 $685 forward 7 unknown #
vertex $-1 $656 $686 #
straight-curve $-1 57.012237922299875 -35.723725130164354 -2.1129821610264568 0 -1 0 I I #
coedge $-1 $579 $650 $581 $656 reversed $435 $-1 #
straight-curve $-1 0 -40.606695206642314 3.1088274547600339 1 0 0 I I #
edge $-1 $582 -2.6109048078932453 $652 2.6109048078932453 $581 $687 forward 7 unknown #
point $-1 57.012237922299875 -40.606695206642314 3.1088274547600339 #
straight-curve $-1 -57.012237922299875 -40.606695206642314 0.49792264686678855 0 0 -1 I I #
point $-1 -57.012237922299875 -40.606695206642314 -2.1129821610264568 #
point $-1 -57.012237922299875 -40.606695206642314 3.1088274547600339 #
straight-curve $-1 57.012237922299875 -9.7826239475286769 81.762928603885669 0 0 -1 I I #
point $-1 57.012237922299875 -9.7826239475286769 10.830265699522483 #
straight-curve $-1 57.012237922299875 -3.3637303649117047 2.369129128240786 0 1 0 I I #
point $-1 57.012237922299875 -9.7826239475286769 2.369129128240786 #
point $-1 51.452511415741483 -8.0368163945542399 5.5026668727947206 #
point $-1 51.452511415741483 -5.4181050650925826 5.5026668727947206 #
straight-curve $-1 57.012237922299875 13.43823766507407 81.762928603885669 0 0 -1 I I #
point $-1 57.012237922299875 13.43823766507407 10.830265699522483 #
straight-curve $-1 57.012237922299875 8.2467004413896685 2.369129128240786 0 1 0 I I #
point $-1 57.012237922299875 13.43823766507407 2.369129128240786 #
point $-1 51.452511415741483 15.184045218048507 5.5026668727947206 #
point $-1 51.452511415741483 17.80275654751016 5.5026668727947206 #
straight-curve $-1 -57.012237922299875 -3.672297512118142 42.880675375104275 0 0 -1 I I #
point $-1 -57.012237922299875 -3.672297512118142 10.830265699522483 #
straight-curve $-1 -57.012237922299875 -3.3637303649117047 2.3691291282407869 0 -1 0 I I #
point $-1 -57.012237922299875 -3.672297512118142 2.369129128240786 #
point $-1 -51.452511415741483 -8.0368163945542399 5.5026668727947348 #
point $-1 -51.452511415741483 -5.4181050650925826 5.5026668727947348 #
straight-curve $-1 -57.012237922299875 19.548564100484604 42.880675375104275 0 0 -1 I I #
point $-1 -57.012237922299875 19.548564100484604 10.830265699522483 #
straight-curve $-1 -57.012237922299875 8.2467004413896685 2.3691291282407869 0 -1 0 I I #
point $-1 -57.012237922299875 19.548564100484604 2.369129128240786 #
point $-1 -51.452511415741483 15.184045218048507 5.5026668727947348 #
point $-1 -51.452511415741483 17.80275654751016 5.5026668727947348 #
straight-curve $-1 0 -40.606695206642314 -2.1129821610264568 -1 0 0 I I #
point $-1 57.012237922299875 -40.606695206642314 -2.1129821610264568 #
straight-curve $-1 57.012237922299875 -40.606695206642314 0.49792264686678855 0 0 -1 I I #
End-of-ACIS-data 