500 0 21 0           
7 Unknown 11 ACIS 5.0 NT 24 Thu Mar 25 16:32:05 1999 
-1 9.9999999999999995e-007 1e-010 
body $-1 $21 $-1 $22 #
body $-1 $23 $-1 $24 #
body $-1 $25 $-1 $26 #
body $-1 $27 $-1 $28 #
body $-1 $29 $-1 $30 #
body $-1 $31 $-1 $32 #
body $-1 $33 $-1 $34 #
body $-1 $35 $-1 $36 #
body $-1 $37 $-1 $38 #
body $-1 $39 $-1 $40 #
body $-1 $41 $-1 $42 #
body $-1 $43 $-1 $44 #
body $-1 $45 $-1 $46 #
body $-1 $47 $-1 $48 #
body $-1 $49 $-1 $50 #
body $-1 $51 $-1 $52 #
body $-1 $53 $-1 $54 #
body $-1 $55 $-1 $56 #
body $-1 $57 $-1 $58 #
body $-1 $59 $-1 $60 #
body $-1 $61 $-1 $62 #
lump $-1 $-1 $63 $0 #
transform $-1 1 0 0 0 1 0 0 0 1 53.747978148747215 34.001292149239212 16.169473400540788 1 rotate no_reflect no_shear #
lump $-1 $-1 $64 $1 #
transform $-1 1 0 0 0 1 0 0 0 1 53.747978148747215 34.001292149239212 16.169473400540788 1 rotate no_reflect no_shear #
lump $-1 $-1 $65 $2 #
transform $-1 1 0 0 0 1 0 0 0 1 53.747978148747215 34.001292149239212 16.169473400540788 1 rotate no_reflect no_shear #
lump $-1 $-1 $66 $3 #
transform $-1 1 0 0 0 1 0 0 0 1 53.747978148747215 34.001292149239212 16.169473400540788 1 rotate no_reflect no_shear #
lump $-1 $-1 $67 $4 #
transform $-1 1 0 0 0 1 0 0 0 1 53.747978148747215 34.001292149239212 16.169473400540788 1 rotate no_reflect no_shear #
lump $-1 $-1 $68 $5 #
transform $-1 1 0 0 0 1 0 0 0 1 53.747978148747215 34.001292149239212 16.169473400540788 1 rotate no_reflect no_shear #
lump $-1 $-1 $69 $6 #
transform $-1 1 0 0 0 1 0 0 0 1 53.747978148747215 34.001292149239212 16.169473400540788 1 rotate no_reflect no_shear #
lump $-1 $-1 $70 $7 #
transform $-1 1 0 0 0 1 0 0 0 1 53.747978148747215 34.001292149239212 16.169473400540788 1 rotate no_reflect no_shear #
lump $-1 $-1 $71 $8 #
transform $-1 1 0 0 0 1 0 0 0 1 53.747978148747215 34.001292149239212 16.169473400540788 1 rotate no_reflect no_shear #
lump $-1 $-1 $72 $9 #
transform $-1 1 0 0 0 1 0 0 0 1 53.747978148747215 34.001292149239212 16.169473400540788 1 rotate no_reflect no_shear #
lump $-1 $-1 $73 $10 #
transform $-1 1 0 0 0 1 0 0 0 1 53.747978148747215 34.001292149239212 16.169473400540788 1 rotate no_reflect no_shear #
lump $-1 $-1 $74 $11 #
transform $-1 1 0 0 0 1 0 0 0 1 53.747978148747215 34.001292149239212 16.169473400540788 1 rotate no_reflect no_shear #
lump $-1 $-1 $75 $12 #
transform $-1 1 0 0 0 1 0 0 0 1 53.747978148747215 34.001292149239212 16.169473400540788 1 rotate no_reflect no_shear #
lump $-1 $-1 $76 $13 #
transform $-1 1 0 0 0 1 0 0 0 1 53.747978148747215 34.001292149239212 16.169473400540788 1 rotate no_reflect no_shear #
lump $-1 $-1 $77 $14 #
transform $-1 1 0 0 0 1 0 0 0 1 53.747978148747215 34.001292149239212 16.169473400540788 1 rotate no_reflect no_shear #
lump $-1 $-1 $78 $15 #
transform $-1 1 0 0 0 1 0 0 0 1 53.747978148747215 34.001292149239212 16.169473400540788 1 rotate no_reflect no_shear #
lump $-1 $-1 $79 $16 #
transform $-1 1 0 0 0 1 0 0 0 1 53.747978148747215 34.001292149239212 16.169473400540788 1 rotate no_reflect no_shear #
lump $-1 $-1 $80 $17 #
transform $-1 1 0 0 0 1 0 0 0 1 53.747978148747215 34.001292149239212 16.169473400540788 1 rotate no_reflect no_shear #
lump $-1 $-1 $81 $18 #
transform $-1 1 0 0 0 1 0 0 0 1 53.747978148747215 34.001292149239212 16.169473400540788 1 rotate no_reflect no_shear #
lump $-1 $-1 $82 $19 #
transform $-1 1 0 0 0 1 0 0 0 1 53.747978148747215 34.001292149239212 16.169473400540788 1 rotate no_reflect no_shear #
lump $-1 $-1 $83 $20 #
transform $-1 1 0 0 0 1 0 0 0 1 53.747978148747215 34.001292149239212 16.169473400540788 1 rotate no_reflect no_shear #
shell $-1 $-1 $-1 $84 $-1 $21 #
shell $-1 $-1 $-1 $85 $-1 $23 #
shell $-1 $-1 $-1 $86 $-1 $25 #
shell $-1 $-1 $-1 $87 $-1 $27 #
shell $-1 $-1 $-1 $88 $-1 $29 #
shell $-1 $-1 $-1 $89 $-1 $31 #
shell $-1 $-1 $-1 $90 $-1 $33 #
shell $-1 $-1 $-1 $91 $-1 $35 #
shell $-1 $-1 $-1 $92 $-1 $37 #
shell $-1 $-1 $-1 $93 $-1 $39 #
shell $-1 $-1 $-1 $94 $-1 $41 #
shell $-1 $-1 $-1 $95 $-1 $43 #
shell $-1 $-1 $-1 $96 $-1 $45 #
shell $-1 $-1 $-1 $97 $-1 $47 #
shell $-1 $-1 $-1 $98 $-1 $49 #
shell $-1 $-1 $-1 $99 $-1 $51 #
shell $-1 $-1 $-1 $100 $-1 $53 #
shell $-1 $-1 $-1 $101 $-1 $55 #
shell $-1 $-1 $-1 $102 $-1 $57 #
shell $-1 $-1 $-1 $103 $-1 $59 #
shell $-1 $-1 $-1 $104 $-1 $61 #
face $-1 $105 $106 $63 $-1 $107 reversed single #
face $-1 $108 $109 $64 $-1 $110 forward single #
face $-1 $111 $112 $65 $-1 $113 reversed single #
face $-1 $114 $115 $66 $-1 $116 forward single #
face $-1 $117 $118 $67 $-1 $119 forward single #
face $-1 $120 $121 $68 $-1 $122 reversed single #
face $-1 $123 $124 $69 $-1 $125 forward single #
face $-1 $126 $127 $70 $-1 $128 forward single #
face $-1 $129 $130 $71 $-1 $131 forward single #
face $-1 $132 $133 $72 $-1 $134 reversed single #
face $-1 $135 $136 $73 $-1 $137 forward single #
face $-1 $138 $139 $74 $-1 $140 forward single #
face $-1 $141 $142 $75 $-1 $143 forward single #
face $-1 $144 $145 $76 $-1 $146 reversed single #
face $-1 $147 $148 $77 $-1 $149 forward single #
face $-1 $150 $151 $78 $-1 $152 forward single #
face $-1 $153 $154 $79 $-1 $155 forward single #
face $-1 $156 $157 $80 $-1 $158 reversed single #
face $-1 $159 $160 $81 $-1 $161 forward single #
face $-1 $162 $163 $82 $-1 $164 forward single #
face $-1 $165 $166 $83 $-1 $167 forward single #
face $-1 $168 $169 $63 $-1 $170 forward single #
loop $-1 $-1 $171 $84 #
plane-surface $-1 -53.747978148747215 0 0 1 0 0 0 0 -1 forward_v I I I I #
face $-1 $172 $173 $64 $-1 $174 reversed single #
loop $-1 $-1 $175 $85 #
plane-surface $-1 -53.747978148747215 0 0 1 0 0 0 0 -1 forward_v I I I I #
face $-1 $176 $177 $65 $-1 $178 reversed single #
loop $-1 $-1 $179 $86 #
plane-surface $-1 -30.286636366812846 -110.01241267925323 88.385206935846441 -1 0 0 0 -0.70710678939079041 0.70710677298230451 forward_v I I I I #
face $-1 $180 $181 $66 $-1 $182 forward single #
loop $-1 $183 $184 $87 #
cone-surface $-1 -37.436678621089982 -30.917592862608426 13.085774097395259 0 0.70710678939079041 -0.70710677298230451 1 0 0 1 I I 0 1 1 forward I I I I #
face $-1 $185 $186 $67 $-1 $187 forward single #
loop $-1 $188 $189 $88 #
cone-surface $-1 -33.146653268523707 -30.917592862608426 13.085774097395259 0 0.70710678939079041 -0.70710677298230451 1 0 0 1 I I 0 1 1 forward I I I I #
face $-1 $190 $191 $68 $-1 $192 reversed single #
loop $-1 $-1 $193 $89 #
plane-surface $-1 -37.741357482631969 91.119392468090581 119.51197873162542 1 0 0 0 -0.85716730853699208 -0.51503806187062418 forward_v I I I I #
face $-1 $194 $195 $69 $-1 $196 forward single #
loop $-1 $197 $198 $90 #
cone-surface $-1 -34.852024526146863 29.86293578766151 10.388515763708023 0 -0.85716730853699208 -0.51503806187062418 1 0 0 1 I I 0 1 1 forward I I I I #
face $-1 $199 $200 $70 $-1 $201 forward single #
loop $-1 $202 $203 $91 #
cone-surface $-1 -30.518025091419204 29.86293578766151 10.388515763708023 0 -0.85716730853699208 -0.51503806187062418 1 0 0 1 I I 0 1 1 forward I I I I #
face $-1 $204 $205 $71 $-1 $206 forward single #
loop $-1 $207 $208 $92 #
cone-surface $-1 -26.184025656691546 29.86293578766151 10.388515763708023 0 -0.85716730853699208 -0.51503806187062418 1 0 0 1 I I 0 1 1 forward I I I I #
face $-1 $209 $210 $72 $-1 $211 reversed single #
loop $-1 $-1 $212 $93 #
plane-surface $-1 -14.230189064744952 91.119392468090581 119.51197873162542 1 0 0 0 -0.85716730853699208 -0.51503806187062418 forward_v I I I I #
face $-1 $213 $214 $73 $-1 $215 forward single #
loop $-1 $216 $217 $94 #
cone-surface $-1 -11.34085610825985 29.86293578766151 10.388515763708023 0 -0.85716730853699208 -0.51503806187062418 1 0 0 1 I I 0 1 1 forward I I I I #
face $-1 $218 $219 $74 $-1 $220 forward single #
loop $-1 $221 $222 $95 #
cone-surface $-1 -7.0068566735321909 29.86293578766151 10.388515763708023 0 -0.85716730853699208 -0.51503806187062418 1 0 0 1 I I 0 1 1 forward I I I I #
face $-1 $223 $224 $75 $-1 $225 forward single #
loop $-1 $226 $227 $96 #
cone-surface $-1 -2.6728572388045322 29.86293578766151 10.388515763708023 0 -0.85716730853699208 -0.51503806187062418 1 0 0 1 I I 0 1 1 forward I I I I #
face $-1 $228 $229 $76 $-1 $230 reversed single #
loop $-1 $-1 $231 $97 #
plane-surface $-1 9.2809793531420688 91.119392468090581 119.51197873162542 1 0 0 0 -0.85716730853699208 -0.51503806187062418 forward_v I I I I #
face $-1 $232 $233 $77 $-1 $234 forward single #
loop $-1 $235 $236 $98 #
cone-surface $-1 12.170312309627157 29.86293578766151 10.388515763708023 0 -0.85716730853699208 -0.51503806187062418 1 0 0 1 I I 0 1 1 forward I I I I #
face $-1 $237 $238 $78 $-1 $239 forward single #
loop $-1 $240 $241 $99 #
cone-surface $-1 16.50431174435483 29.86293578766151 10.388515763708023 0 -0.85716730853699208 -0.51503806187062418 1 0 0 1 I I 0 1 1 forward I I I I #
face $-1 $242 $243 $79 $-1 $244 forward single #
loop $-1 $245 $246 $100 #
cone-surface $-1 20.838311179082474 29.86293578766151 10.388515763708023 0 -0.85716730853699208 -0.51503806187062418 1 0 0 1 I I 0 1 1 forward I I I I #
face $-1 $247 $248 $80 $-1 $249 reversed single #
loop $-1 $-1 $250 $101 #
plane-surface $-1 32.792147771029079 91.119392468090581 119.51197873162542 1 0 0 0 -0.85716730853699208 -0.51503806187062418 forward_v I I I I #
face $-1 $251 $252 $81 $-1 $253 forward single #
loop $-1 $254 $255 $102 #
cone-surface $-1 35.681480727514163 29.86293578766151 10.388515763708023 0 -0.85716730853699208 -0.51503806187062418 1 0 0 1 I I 0 1 1 forward I I I I #
face $-1 $256 $257 $82 $-1 $258 forward single #
loop $-1 $259 $260 $103 #
cone-surface $-1 40.015480162241836 29.86293578766151 10.388515763708023 0 -0.85716730853699208 -0.51503806187062418 1 0 0 1 I I 0 1 1 forward I I I I #
face $-1 $261 $262 $83 $-1 $263 forward single #
loop $-1 $264 $265 $104 #
cone-surface $-1 44.349479596969481 29.86293578766151 10.388515763708023 0 -0.85716730853699208 -0.51503806187062418 1 0 0 1 I I 0 1 1 forward I I I I #
face $-1 $266 $267 $63 $-1 $268 reversed single #
loop $-1 $-1 $269 $105 #
plane-surface $-1 0 0 16.169473400540788 0 0 1 1 0 0 forward_v I I I I #
coedge $-1 $270 $271 $272 $273 reversed $106 $-1 #
face $-1 $274 $275 $64 $-1 $276 reversed single #
loop $-1 $-1 $277 $108 #
plane-surface $-1 0 0 -16.169473400540788 0 0 1 1 0 0 forward_v I I I I #
coedge $-1 $278 $279 $280 $281 forward $109 $-1 #
face $-1 $282 $283 $65 $-1 $284 reversed single #
loop $-1 $-1 $285 $111 #
plane-surface $-1 -35.291665944806837 -34.001292149239219 12.374088169678316 0 -0.70710678939079041 0.70710677298230451 1 0 0 forward_v I I I I #
coedge $-1 $286 $287 $288 $289 reversed $112 $-1 #
face $-1 $-1 $290 $66 $-1 $291 forward single #
loop $-1 $292 $293 $114 #
cone-surface $-1 -37.436678621089982 -29.378032752677324 11.546214023189808 0 0.70710678939079041 -0.70710677298230451 0.5 0 0 1 I I -0.70710678118654746 0.70710678118654746 0.5 forward I I I I #
loop $-1 $-1 $294 $87 #
coedge $-1 $184 $184 $295 $296 reversed $115 $-1 #
face $-1 $-1 $297 $67 $-1 $298 forward single #
loop $-1 $299 $300 $117 #
cone-surface $-1 -33.146653268523707 -29.378032752677324 11.546214023189808 0 0.70710678939079041 -0.70710677298230451 0.5 0 0 1 I I -0.70710678118654746 0.70710678118654746 0.5 forward I I I I #
loop $-1 $-1 $301 $88 #
coedge $-1 $189 $189 $302 $303 reversed $118 $-1 #
face $-1 $304 $305 $68 $-1 $306 reversed single #
loop $-1 $-1 $307 $120 #
plane-surface $-1 -30.518025091419208 -1.0226270700428302 64.147469741234573 0 0.85716730853699208 0.51503806187062418 1 0 0 forward_v I I I I #
coedge $-1 $308 $309 $310 $311 reversed $121 $-1 #
face $-1 $-1 $312 $69 $-1 $313 forward single #
loop $-1 $314 $315 $123 #
cone-surface $-1 -34.852024526146863 28.393911587647544 9.5058370039363709 0 -0.85716730853699208 -0.51503806187062418 0.5 0 0 1 I I -0.70710678118654746 0.70710678118654746 0.5 forward I I I I #
loop $-1 $-1 $316 $90 #
coedge $-1 $198 $198 $317 $318 reversed $124 $-1 #
face $-1 $-1 $319 $70 $-1 $320 forward single #
loop $-1 $321 $322 $126 #
cone-surface $-1 -30.518025091419204 28.393911587647544 9.5058370039363709 0 -0.85716730853699208 -0.51503806187062418 0.5 0 0 1 I I -0.70710678118654746 0.70710678118654746 0.5 forward I I I I #
loop $-1 $-1 $323 $91 #
coedge $-1 $203 $203 $324 $325 reversed $127 $-1 #
face $-1 $-1 $326 $71 $-1 $327 forward single #
loop $-1 $328 $329 $129 #
cone-surface $-1 -26.184025656691546 28.393911587647544 9.5058370039363709 0 -0.85716730853699208 -0.51503806187062418 0.5 0 0 1 I I -0.70710678118654746 0.70710678118654746 0.5 forward I I I I #
loop $-1 $-1 $330 $92 #
coedge $-1 $208 $208 $331 $332 reversed $130 $-1 #
face $-1 $333 $334 $72 $-1 $335 reversed single #
loop $-1 $-1 $336 $132 #
plane-surface $-1 -7.0068566735321909 -1.0226270700428302 64.147469741234573 0 0.85716730853699208 0.51503806187062418 1 0 0 forward_v I I I I #
coedge $-1 $337 $338 $339 $340 reversed $133 $-1 #
face $-1 $-1 $341 $73 $-1 $342 forward single #
loop $-1 $343 $344 $135 #
cone-surface $-1 -11.34085610825985 28.393911587647544 9.5058370039363709 0 -0.85716730853699208 -0.51503806187062418 0.5 0 0 1 I I -0.70710678118654746 0.70710678118654746 0.5 forward I I I I #
loop $-1 $-1 $345 $94 #
coedge $-1 $217 $217 $346 $347 reversed $136 $-1 #
face $-1 $-1 $348 $74 $-1 $349 forward single #
loop $-1 $350 $351 $138 #
cone-surface $-1 -7.0068566735321909 28.393911587647544 9.5058370039363709 0 -0.85716730853699208 -0.51503806187062418 0.5 0 0 1 I I -0.70710678118654746 0.70710678118654746 0.5 forward I I I I #
loop $-1 $-1 $352 $95 #
coedge $-1 $222 $222 $353 $354 reversed $139 $-1 #
face $-1 $-1 $355 $75 $-1 $356 forward single #
loop $-1 $357 $358 $141 #
cone-surface $-1 -2.6728572388045322 28.393911587647544 9.5058370039363709 0 -0.85716730853699208 -0.51503806187062418 0.5 0 0 1 I I -0.70710678118654746 0.70710678118654746 0.5 forward I I I I #
loop $-1 $-1 $359 $96 #
coedge $-1 $227 $227 $360 $361 reversed $142 $-1 #
face $-1 $362 $363 $76 $-1 $364 reversed single #
loop $-1 $-1 $365 $144 #
plane-surface $-1 16.50431174435483 -1.0226270700428302 64.147469741234573 0 0.85716730853699208 0.51503806187062418 1 0 0 forward_v I I I I #
coedge $-1 $366 $367 $368 $369 reversed $145 $-1 #
face $-1 $-1 $370 $77 $-1 $371 forward single #
loop $-1 $372 $373 $147 #
cone-surface $-1 12.170312309627157 28.393911587647544 9.5058370039363709 0 -0.85716730853699208 -0.51503806187062418 0.5 0 0 1 I I -0.70710678118654746 0.70710678118654746 0.5 forward I I I I #
loop $-1 $-1 $374 $98 #
coedge $-1 $236 $236 $375 $376 reversed $148 $-1 #
face $-1 $-1 $377 $78 $-1 $378 forward single #
loop $-1 $379 $380 $150 #
cone-surface $-1 16.50431174435483 28.393911587647544 9.5058370039363709 0 -0.85716730853699208 -0.51503806187062418 0.5 0 0 1 I I -0.70710678118654746 0.70710678118654746 0.5 forward I I I I #
loop $-1 $-1 $381 $99 #
coedge $-1 $241 $241 $382 $383 reversed $151 $-1 #
face $-1 $-1 $384 $79 $-1 $385 forward single #
loop $-1 $386 $387 $153 #
cone-surface $-1 20.838311179082474 28.393911587647544 9.5058370039363709 0 -0.85716730853699208 -0.51503806187062418 0.5 0 0 1 I I -0.70710678118654746 0.70710678118654746 0.5 forward I I I I #
loop $-1 $-1 $388 $100 #
coedge $-1 $246 $246 $389 $390 reversed $154 $-1 #
face $-1 $391 $392 $80 $-1 $393 reversed single #
loop $-1 $-1 $394 $156 #
plane-surface $-1 40.015480162241836 -1.0226270700428302 64.147469741234573 0 0.85716730853699208 0.51503806187062418 1 0 0 forward_v I I I I #
coedge $-1 $395 $396 $397 $398 reversed $157 $-1 #
face $-1 $-1 $399 $81 $-1 $400 forward single #
loop $-1 $401 $402 $159 #
cone-surface $-1 35.681480727514163 28.393911587647544 9.5058370039363709 0 -0.85716730853699208 -0.51503806187062418 0.5 0 0 1 I I -0.70710678118654746 0.70710678118654746 0.5 forward I I I I #
loop $-1 $-1 $403 $102 #
coedge $-1 $255 $255 $404 $405 reversed $160 $-1 #
face $-1 $-1 $406 $82 $-1 $407 forward single #
loop $-1 $408 $409 $162 #
cone-surface $-1 40.015480162241836 28.393911587647544 9.5058370039363709 0 -0.85716730853699208 -0.51503806187062418 0.5 0 0 1 I I -0.70710678118654746 0.70710678118654746 0.5 forward I I I I #
loop $-1 $-1 $410 $103 #
coedge $-1 $260 $260 $411 $412 reversed $163 $-1 #
face $-1 $-1 $413 $83 $-1 $414 forward single #
loop $-1 $415 $416 $165 #
cone-surface $-1 44.349479596969481 28.393911587647544 9.5058370039363709 0 -0.85716730853699208 -0.51503806187062418 0.5 0 0 1 I I -0.70710678118654746 0.70710678118654746 0.5 forward I I I I #
loop $-1 $-1 $417 $104 #
coedge $-1 $265 $265 $418 $419 reversed $166 $-1 #
face $-1 $420 $421 $63 $-1 $422 reversed single #
loop $-1 $-1 $423 $168 #
plane-surface $-1 0 0 -16.169473400540788 0 0 1 1 0 0 forward_v I I I I #
coedge $-1 $424 $425 $426 $427 forward $169 $-1 #
coedge $-1 $428 $171 $429 $430 reversed $106 $-1 #
coedge $-1 $171 $428 $431 $432 forward $106 $-1 #
coedge $-1 $433 $434 $171 $273 forward $267 $-1 #
edge $-1 $435 -34.001292149239212 $436 34.001292149239212 $171 $437 forward 7 unknown #
face $-1 $438 $439 $64 $-1 $440 reversed single #
loop $-1 $-1 $441 $172 #
plane-surface $-1 -60.473619461720403 -29.495262249340612 0 0 1 0 0 0 1 forward_v I I I I #
coedge $-1 $442 $443 $279 $444 forward $173 $-1 #
coedge $-1 $445 $175 $446 $447 reversed $109 $-1 #
coedge $-1 $175 $445 $277 $444 reversed $109 $-1 #
coedge $-1 $448 $449 $175 $281 reversed $450 $-1 #
edge $-1 $451 -16.169473400540788 $452 16.169473400540788 $280 $453 forward 7 unknown #
face $-1 $454 $455 $65 $-1 $456 forward single #
loop $-1 $-1 $457 $176 #
plane-surface $-1 -40.296695522800832 -110.01241267925323 88.385206935846441 1 0 0 0 0.70710678939079041 -0.70710677298230451 forward_v I I I I #
coedge $-1 $458 $459 $460 $461 reversed $177 $-1 #
coedge $-1 $287 $179 $462 $463 reversed $112 $-1 #
coedge $-1 $179 $286 $458 $464 reversed $112 $-1 #
coedge $-1 $460 $465 $179 $289 forward $455 $-1 #
edge $-1 $466 21.004914190387403 $467 24.800299333177563 $288 $468 forward 7 unknown #
loop $-1 $-1 $295 $180 #
plane-surface $-1 -35.291665944806837 -34.001292149239219 12.374088169678316 0 -0.70710678939079041 0.70710677298230451 1 0 0 forward_v I I I I #
loop $-1 $-1 $469 $114 #
coedge $-1 $293 $293 $294 $470 reversed $181 $-1 #
coedge $-1 $294 $294 $293 $470 forward $183 $-1 #
coedge $-1 $295 $295 $184 $296 forward $290 $-1 #
edge $-1 $471 -2.5121478464520618e-015 $471 6.2831853071795978 $295 $472 forward 7 unknown #
loop $-1 $-1 $302 $185 #
plane-surface $-1 -35.291665944806837 -34.001292149239219 12.374088169678316 0 -0.70710678939079041 0.70710677298230451 1 0 0 forward_v I I I I #
loop $-1 $-1 $473 $117 #
coedge $-1 $300 $300 $301 $474 reversed $186 $-1 #
coedge $-1 $301 $301 $300 $474 forward $188 $-1 #
coedge $-1 $302 $302 $189 $303 forward $297 $-1 #
edge $-1 $475 -2.5121478464520618e-015 $475 6.2831853071795978 $302 $476 forward 7 unknown #
face $-1 $477 $478 $68 $-1 $479 reversed single #
loop $-1 $-1 $480 $190 #
plane-surface $-1 -23.294692700206447 91.119392468090581 119.51197873162542 -1 0 0 0 0.85716730853699208 0.51503806187062418 forward_v I I I I #
coedge $-1 $481 $482 $483 $484 reversed $191 $-1 #
coedge $-1 $309 $193 $485 $486 reversed $121 $-1 #
coedge $-1 $193 $308 $481 $487 reversed $121 $-1 #
coedge $-1 $483 $488 $193 $311 forward $489 $-1 #
edge $-1 $490 11.558404084806078 $491 17.754235716470543 $310 $492 forward 7 unknown #
loop $-1 $-1 $317 $194 #
plane-surface $-1 -30.518025091419208 -1.0226270700428302 64.147469741234573 0 0.85716730853699208 0.51503806187062418 1 0 0 forward_v I I I I #
loop $-1 $-1 $493 $123 #
coedge $-1 $315 $315 $316 $494 reversed $195 $-1 #
coedge $-1 $316 $316 $315 $494 forward $197 $-1 #
coedge $-1 $317 $317 $198 $318 forward $312 $-1 #
edge $-1 $495 1.8297827675106652e-015 $495 6.2831853071796022 $317 $496 forward 7 unknown #
loop $-1 $-1 $324 $199 #
plane-surface $-1 -30.518025091419208 -1.0226270700428302 64.147469741234573 0 0.85716730853699208 0.51503806187062418 1 0 0 forward_v I I I I #
loop $-1 $-1 $497 $126 #
coedge $-1 $322 $322 $323 $498 reversed $200 $-1 #
coedge $-1 $323 $323 $322 $498 forward $202 $-1 #
coedge $-1 $324 $324 $203 $325 forward $319 $-1 #
edge $-1 $499 1.8297827675106652e-015 $499 6.2831853071796022 $324 $500 forward 7 unknown #
loop $-1 $-1 $331 $204 #
plane-surface $-1 -30.518025091419208 -1.0226270700428302 64.147469741234573 0 0.85716730853699208 0.51503806187062418 1 0 0 forward_v I I I I #
loop $-1 $-1 $501 $129 #
coedge $-1 $329 $329 $330 $502 reversed $205 $-1 #
coedge $-1 $330 $330 $329 $502 forward $207 $-1 #
coedge $-1 $331 $331 $208 $332 forward $326 $-1 #
edge $-1 $503 1.8297827675106652e-015 $503 6.2831853071796022 $331 $504 forward 7 unknown #
face $-1 $505 $506 $72 $-1 $507 forward single #
loop $-1 $-1 $508 $209 #
plane-surface $-1 0.21647571768057006 91.119392468090581 119.51197873162542 -1 0 0 0 0.85716730853699208 0.51503806187062418 forward_v I I I I #
coedge $-1 $509 $510 $511 $512 reversed $210 $-1 #
coedge $-1 $338 $212 $513 $514 reversed $133 $-1 #
coedge $-1 $212 $337 $509 $515 reversed $133 $-1 #
coedge $-1 $511 $516 $212 $340 forward $506 $-1 #
edge $-1 $517 11.558404084806078 $518 17.754235716470543 $339 $519 forward 7 unknown #
loop $-1 $-1 $346 $213 #
plane-surface $-1 -7.0068566735321909 -1.0226270700428302 64.147469741234573 0 0.85716730853699208 0.51503806187062418 1 0 0 forward_v I I I I #
loop $-1 $-1 $520 $135 #
coedge $-1 $344 $344 $345 $521 reversed $214 $-1 #
coedge $-1 $345 $345 $344 $521 forward $216 $-1 #
coedge $-1 $346 $346 $217 $347 forward $341 $-1 #
edge $-1 $522 1.8297827675106652e-015 $522 6.2831853071796022 $346 $523 forward 7 unknown #
loop $-1 $-1 $353 $218 #
plane-surface $-1 -7.0068566735321909 -1.0226270700428302 64.147469741234573 0 0.85716730853699208 0.51503806187062418 1 0 0 forward_v I I I I #
loop $-1 $-1 $524 $138 #
coedge $-1 $351 $351 $352 $525 reversed $219 $-1 #
coedge $-1 $352 $352 $351 $525 forward $221 $-1 #
coedge $-1 $353 $353 $222 $354 forward $348 $-1 #
edge $-1 $526 1.8297827675106652e-015 $526 6.2831853071796022 $353 $527 forward 7 unknown #
loop $-1 $-1 $360 $223 #
plane-surface $-1 -7.0068566735321909 -1.0226270700428302 64.147469741234573 0 0.85716730853699208 0.51503806187062418 1 0 0 forward_v I I I I #
loop $-1 $-1 $528 $141 #
coedge $-1 $358 $358 $359 $529 reversed $224 $-1 #
coedge $-1 $359 $359 $358 $529 forward $226 $-1 #
coedge $-1 $360 $360 $227 $361 forward $355 $-1 #
edge $-1 $530 1.8297827675106652e-015 $530 6.2831853071796022 $360 $531 forward 7 unknown #
face $-1 $532 $533 $76 $-1 $534 forward single #
loop $-1 $-1 $535 $228 #
plane-surface $-1 23.727644135567591 91.119392468090581 119.51197873162542 -1 0 0 0 0.85716730853699208 0.51503806187062418 forward_v I I I I #
coedge $-1 $536 $537 $538 $539 reversed $229 $-1 #
coedge $-1 $367 $231 $540 $541 reversed $145 $-1 #
coedge $-1 $231 $366 $536 $542 reversed $145 $-1 #
coedge $-1 $538 $543 $231 $369 forward $533 $-1 #
edge $-1 $544 11.558404084806078 $545 17.754235716470543 $368 $546 forward 7 unknown #
loop $-1 $-1 $375 $232 #
plane-surface $-1 16.50431174435483 -1.0226270700428302 64.147469741234573 0 0.85716730853699208 0.51503806187062418 1 0 0 forward_v I I I I #
loop $-1 $-1 $547 $147 #
coedge $-1 $373 $373 $374 $548 reversed $233 $-1 #
coedge $-1 $374 $374 $373 $548 forward $235 $-1 #
coedge $-1 $375 $375 $236 $376 forward $370 $-1 #
edge $-1 $549 1.8297827675106652e-015 $549 6.2831853071796022 $375 $550 forward 7 unknown #
loop $-1 $-1 $382 $237 #
plane-surface $-1 16.50431174435483 -1.0226270700428302 64.147469741234573 0 0.85716730853699208 0.51503806187062418 1 0 0 forward_v I I I I #
loop $-1 $-1 $551 $150 #
coedge $-1 $380 $380 $381 $552 reversed $238 $-1 #
coedge $-1 $381 $381 $380 $552 forward $240 $-1 #
coedge $-1 $382 $382 $241 $383 forward $377 $-1 #
edge $-1 $553 1.8297827675106652e-015 $553 6.2831853071796022 $382 $554 forward 7 unknown #
loop $-1 $-1 $389 $242 #
plane-surface $-1 16.50431174435483 -1.0226270700428302 64.147469741234573 0 0.85716730853699208 0.51503806187062418 1 0 0 forward_v I I I I #
loop $-1 $-1 $555 $153 #
coedge $-1 $387 $387 $388 $556 reversed $243 $-1 #
coedge $-1 $388 $388 $387 $556 forward $245 $-1 #
coedge $-1 $389 $389 $246 $390 forward $384 $-1 #
edge $-1 $557 1.8297827675106652e-015 $557 6.2831853071796022 $389 $558 forward 7 unknown #
face $-1 $559 $560 $80 $-1 $561 forward single #
loop $-1 $-1 $562 $247 #
plane-surface $-1 47.238812553454594 91.119392468090581 119.51197873162542 -1 0 0 0 0.85716730853699208 0.51503806187062418 forward_v I I I I #
coedge $-1 $563 $564 $565 $566 reversed $248 $-1 #
coedge $-1 $396 $250 $567 $568 reversed $157 $-1 #
coedge $-1 $250 $395 $563 $569 reversed $157 $-1 #
coedge $-1 $565 $570 $250 $398 forward $560 $-1 #
edge $-1 $571 11.558404084806078 $572 17.754235716470543 $397 $573 forward 7 unknown #
loop $-1 $-1 $404 $251 #
plane-surface $-1 40.015480162241836 -1.0226270700428302 64.147469741234573 0 0.85716730853699208 0.51503806187062418 1 0 0 forward_v I I I I #
loop $-1 $-1 $574 $159 #
coedge $-1 $402 $402 $403 $575 reversed $252 $-1 #
coedge $-1 $403 $403 $402 $575 forward $254 $-1 #
coedge $-1 $404 $404 $255 $405 forward $399 $-1 #
edge $-1 $576 1.8297827675106652e-015 $576 6.2831853071796022 $404 $577 forward 7 unknown #
loop $-1 $-1 $411 $256 #
plane-surface $-1 40.015480162241836 -1.0226270700428302 64.147469741234573 0 0.85716730853699208 0.51503806187062418 1 0 0 forward_v I I I I #
loop $-1 $-1 $578 $162 #
coedge $-1 $409 $409 $410 $579 reversed $257 $-1 #
coedge $-1 $410 $410 $409 $579 forward $259 $-1 #
coedge $-1 $411 $411 $260 $412 forward $406 $-1 #
edge $-1 $580 1.8297827675106652e-015 $580 6.2831853071796022 $411 $581 forward 7 unknown #
loop $-1 $-1 $418 $261 #
plane-surface $-1 40.015480162241836 -1.0226270700428302 64.147469741234573 0 0.85716730853699208 0.51503806187062418 1 0 0 forward_v I I I I #
loop $-1 $-1 $582 $165 #
coedge $-1 $416 $416 $417 $583 reversed $262 $-1 #
coedge $-1 $417 $417 $416 $583 forward $264 $-1 #
coedge $-1 $418 $418 $265 $419 forward $413 $-1 #
edge $-1 $584 1.8297827675106652e-015 $584 6.2831853071796022 $418 $585 forward 7 unknown #
face $-1 $586 $587 $63 $-1 $588 reversed single #
loop $-1 $-1 $429 $266 #
plane-surface $-1 0 -34.001292149239212 0 0 1 0 0 0 1 forward_v I I I I #
coedge $-1 $434 $433 $589 $590 forward $267 $-1 #
coedge $-1 $591 $269 $592 $593 forward $169 $-1 #
coedge $-1 $269 $591 $594 $595 forward $169 $-1 #
coedge $-1 $596 $597 $269 $427 reversed $598 $-1 #
edge $-1 $599 -34.001292149239212 $600 34.001292149239212 $426 $601 forward 7 unknown #
coedge $-1 $271 $270 $591 $602 reversed $106 $-1 #
coedge $-1 $603 $594 $270 $430 forward $421 $-1 #
edge $-1 $604 -16.169473400540788 $435 16.169473400540788 $270 $605 forward 7 unknown #
coedge $-1 $592 $606 $271 $432 reversed $587 $-1 #
edge $-1 $607 -16.169473400540788 $436 16.169473400540788 $431 $608 forward 7 unknown #
coedge $-1 $423 $272 $606 $609 forward $267 $-1 #
coedge $-1 $272 $423 $603 $610 forward $267 $-1 #
vertex $-1 $273 $611 #
vertex $-1 $609 $612 #
straight-curve $-1 -53.747978148747215 0 -16.169473400540788 0 1 0 I I #
face $-1 $613 $450 $64 $-1 $614 reversed single #
loop $-1 $-1 $615 $274 #
plane-surface $-1 -67.199260774693599 -26.032250271345216 0 1 0 0 0 0 -1 forward_v I I I I #
coedge $-1 $616 $617 $618 $619 forward $275 $-1 #
coedge $-1 $620 $277 $616 $621 forward $173 $-1 #
coedge $-1 $277 $620 $448 $622 forward $173 $-1 #
edge $-1 $451 22.569238293349819 $623 29.495262249340612 $277 $624 forward 7 unknown #
coedge $-1 $279 $278 $625 $626 forward $109 $-1 #
coedge $-1 $627 $628 $278 $447 forward $629 $-1 #
edge $-1 $630 -29.495262249340612 $452 -22.569238293349819 $446 $631 forward 7 unknown #
coedge $-1 $632 $280 $443 $622 reversed $450 $-1 #
coedge $-1 $280 $632 $627 $633 reversed $450 $-1 #
loop $-1 $-1 $280 $438 #
vertex $-1 $444 $634 #
vertex $-1 $633 $635 #
straight-curve $-1 -53.747978148747215 -22.569238293349819 0 0 0 1 I I #
face $-1 $-1 $636 $65 $-1 $637 reversed single #
loop $-1 $-1 $288 $282 #
plane-surface $-1 0 0 16.169473400540788 0 0 1 1 0 0 forward_v I I I I #
coedge $-1 $638 $639 $640 $641 reversed $283 $-1 #
coedge $-1 $642 $285 $287 $464 forward $177 $-1 #
coedge $-1 $285 $642 $638 $643 forward $177 $-1 #
coedge $-1 $640 $288 $285 $461 forward $455 $-1 #
edge $-1 $467 12.640803394409428 $644 22.650862550397413 $460 $645 forward 7 unknown #
coedge $-1 $646 $647 $286 $463 forward $636 $-1 #
edge $-1 $648 -31.818515298244897 $466 -28.023130067382432 $462 $649 forward 7 unknown #
edge $-1 $467 -5.367485205639726 $648 -1.0048591735576163e-014 $287 $650 forward 7 unknown #
coedge $-1 $288 $640 $646 $651 forward $455 $-1 #
vertex $-1 $289 $652 #
vertex $-1 $289 $653 #
straight-curve $-1 -30.286636366812846 -55.006206339626615 16.169473400540788 0 1 0 I I #
coedge $-1 $469 $469 $-1 $654 reversed $292 $-1 #
edge $-1 $655 0 $655 6.2831853071796004 $293 $656 forward 7 unknown #
vertex $-1 $296 $657 #
ellipse-curve $-1 -37.436678621089982 -32.103599577844129 14.271780785109556 0 -0.70710678939079041 0.70710677298230451 1 0 0 1 I I #
coedge $-1 $473 $473 $-1 $658 reversed $299 $-1 #
edge $-1 $659 0 $659 6.2831853071796004 $300 $660 forward 7 unknown #
vertex $-1 $303 $661 #
ellipse-curve $-1 -33.146653268523707 -32.103599577844129 14.271780785109556 0 -0.70710678939079041 0.70710677298230451 1 0 0 1 I I #
face $-1 $-1 $489 $68 $-1 $662 forward single #
loop $-1 $-1 $663 $304 #
plane-surface $-1 0 34.001292149239212 0 0 -1 0 0 0 -1 forward_v I I I I #
coedge $-1 $664 $665 $666 $667 reversed $305 $-1 #
coedge $-1 $668 $307 $309 $487 forward $191 $-1 #
coedge $-1 $307 $668 $664 $669 forward $191 $-1 #
coedge $-1 $666 $310 $307 $484 forward $489 $-1 #
edge $-1 $491 -22.482344936922367 $670 -8.035680154496843 $483 $671 forward 7 unknown #
coedge $-1 $672 $673 $308 $486 forward $478 $-1 #
edge $-1 $674 -53.898111781264767 $490 -43.586515965271921 $485 $675 forward 7 unknown #
edge $-1 $491 55.972732350913319 $674 68.002584298478396 $309 $676 forward 7 unknown #
coedge $-1 $310 $666 $672 $677 forward $489 $-1 #
loop $-1 $-1 $666 $477 #
vertex $-1 $486 $678 #
vertex $-1 $311 $679 #
straight-curve $-1 -37.741357482631969 45.55969623404529 16.169473400540788 0 -1 0 I I #
coedge $-1 $493 $493 $-1 $680 reversed $314 $-1 #
edge $-1 $681 0 $681 6.2831853071796004 $315 $682 forward 7 unknown #
vertex $-1 $318 $683 #
ellipse-curve $-1 -34.852024526146863 30.903376333406978 11.013675492544364 0 0.85716730853699208 0.51503806187062418 1 0 0 1 I I #
coedge $-1 $497 $497 $-1 $684 reversed $321 $-1 #
edge $-1 $685 0 $685 6.2831853071796004 $322 $686 forward 7 unknown #
vertex $-1 $325 $687 #
ellipse-curve $-1 -30.518025091419204 30.903376333406978 11.013675492544364 0 0.85716730853699208 0.51503806187062418 1 0 0 1 I I #
coedge $-1 $501 $501 $-1 $688 reversed $328 $-1 #
edge $-1 $689 0 $689 6.2831853071796004 $329 $690 forward 7 unknown #
vertex $-1 $332 $691 #
ellipse-curve $-1 -26.184025656691546 30.903376333406978 11.013675492544364 0 0.85716730853699208 0.51503806187062418 1 0 0 1 I I #
face $-1 $-1 $692 $72 $-1 $693 reversed single #
loop $-1 $-1 $339 $333 #
plane-surface $-1 0 0 16.169473400540788 0 0 1 1 0 0 forward_v I I I I #
coedge $-1 $694 $695 $696 $697 reversed $334 $-1 #
coedge $-1 $698 $336 $338 $515 forward $210 $-1 #
coedge $-1 $336 $698 $694 $699 forward $210 $-1 #
coedge $-1 $696 $339 $336 $512 forward $506 $-1 #
edge $-1 $518 -10.726760727978856 $700 3.7199040544466655 $511 $701 forward 7 unknown #
coedge $-1 $702 $703 $337 $514 forward $692 $-1 #
edge $-1 $704 -53.898111781264767 $517 -43.586515965271921 $513 $705 forward 7 unknown #
edge $-1 $518 55.972732350913319 $704 68.002584298478396 $338 $706 forward 7 unknown #
coedge $-1 $339 $696 $702 $707 forward $506 $-1 #
vertex $-1 $340 $708 #
vertex $-1 $340 $709 #
straight-curve $-1 -14.230189064744952 45.55969623404529 16.169473400540788 0 -1 0 I I #
coedge $-1 $520 $520 $-1 $710 reversed $343 $-1 #
edge $-1 $711 0 $711 6.2831853071796004 $344 $712 forward 7 unknown #
vertex $-1 $347 $713 #
ellipse-curve $-1 -11.34085610825985 30.903376333406978 11.013675492544364 0 0.85716730853699208 0.51503806187062418 1 0 0 1 I I #
coedge $-1 $524 $524 $-1 $714 reversed $350 $-1 #
edge $-1 $715 0 $715 6.2831853071796004 $351 $716 forward 7 unknown #
vertex $-1 $354 $717 #
ellipse-curve $-1 -7.0068566735321909 30.903376333406978 11.013675492544364 0 0.85716730853699208 0.51503806187062418 1 0 0 1 I I #
coedge $-1 $528 $528 $-1 $718 reversed $357 $-1 #
edge $-1 $719 0 $719 6.2831853071796004 $358 $720 forward 7 unknown #
vertex $-1 $361 $721 #
ellipse-curve $-1 -2.6728572388045322 30.903376333406978 11.013675492544364 0 0.85716730853699208 0.51503806187062418 1 0 0 1 I I #
face $-1 $-1 $722 $76 $-1 $723 reversed single #
loop $-1 $-1 $368 $362 #
plane-surface $-1 0 0 16.169473400540788 0 0 1 1 0 0 forward_v I I I I #
coedge $-1 $724 $725 $726 $727 reversed $363 $-1 #
coedge $-1 $728 $365 $367 $542 forward $229 $-1 #
coedge $-1 $365 $728 $724 $729 forward $229 $-1 #
coedge $-1 $726 $368 $365 $539 forward $533 $-1 #
edge $-1 $545 1.0288234809646539 $730 15.475488263390176 $538 $731 forward 7 unknown #
coedge $-1 $732 $733 $366 $541 forward $722 $-1 #
edge $-1 $734 -53.898111781264767 $544 -43.586515965271921 $540 $735 forward 7 unknown #
edge $-1 $545 55.972732350913319 $734 68.002584298478396 $367 $736 forward 7 unknown #
coedge $-1 $368 $726 $732 $737 forward $533 $-1 #
vertex $-1 $369 $738 #
vertex $-1 $369 $739 #
straight-curve $-1 9.2809793531420688 45.55969623404529 16.169473400540788 0 -1 0 I I #
coedge $-1 $547 $547 $-1 $740 reversed $372 $-1 #
edge $-1 $741 0 $741 6.2831853071796004 $373 $742 forward 7 unknown #
vertex $-1 $376 $743 #
ellipse-curve $-1 12.170312309627157 30.903376333406978 11.013675492544364 0 0.85716730853699208 0.51503806187062418 1 0 0 1 I I #
coedge $-1 $551 $551 $-1 $744 reversed $379 $-1 #
edge $-1 $745 0 $745 6.2831853071796004 $380 $746 forward 7 unknown #
vertex $-1 $383 $747 #
ellipse-curve $-1 16.50431174435483 30.903376333406978 11.013675492544364 0 0.85716730853699208 0.51503806187062418 1 0 0 1 I I #
coedge $-1 $555 $555 $-1 $748 reversed $386 $-1 #
edge $-1 $749 0 $749 6.2831853071796004 $387 $750 forward 7 unknown #
vertex $-1 $390 $751 #
ellipse-curve $-1 20.838311179082474 30.903376333406978 11.013675492544364 0 0.85716730853699208 0.51503806187062418 1 0 0 1 I I #
face $-1 $-1 $752 $80 $-1 $753 reversed single #
loop $-1 $-1 $397 $391 #
plane-surface $-1 0 0 16.169473400540788 0 0 1 1 0 0 forward_v I I I I #
coedge $-1 $754 $755 $756 $757 reversed $392 $-1 #
coedge $-1 $758 $394 $396 $569 forward $248 $-1 #
coedge $-1 $394 $758 $754 $759 forward $248 $-1 #
coedge $-1 $756 $397 $394 $566 forward $560 $-1 #
edge $-1 $572 12.784407689908161 $760 27.231072472333675 $565 $761 forward 7 unknown #
coedge $-1 $762 $763 $395 $568 forward $752 $-1 #
edge $-1 $764 -53.898111781264767 $571 -43.586515965271921 $567 $765 forward 7 unknown #
edge $-1 $572 55.972732350913319 $764 68.002584298478396 $396 $766 forward 7 unknown #
coedge $-1 $397 $756 $762 $767 forward $560 $-1 #
vertex $-1 $398 $768 #
vertex $-1 $398 $769 #
straight-curve $-1 32.792147771029079 45.55969623404529 16.169473400540788 0 -1 0 I I #
coedge $-1 $574 $574 $-1 $770 reversed $401 $-1 #
edge $-1 $771 0 $771 6.2831853071796004 $402 $772 forward 7 unknown #
vertex $-1 $405 $773 #
ellipse-curve $-1 35.681480727514163 30.903376333406978 11.013675492544364 0 0.85716730853699208 0.51503806187062418 1 0 0 1 I I #
coedge $-1 $578 $578 $-1 $774 reversed $408 $-1 #
edge $-1 $775 0 $775 6.2831853071796004 $409 $776 forward 7 unknown #
vertex $-1 $412 $777 #
ellipse-curve $-1 40.015480162241836 30.903376333406978 11.013675492544364 0 0.85716730853699208 0.51503806187062418 1 0 0 1 I I #
coedge $-1 $582 $582 $-1 $778 reversed $415 $-1 #
edge $-1 $779 0 $779 6.2831853071796004 $416 $780 forward 7 unknown #
vertex $-1 $419 $781 #
ellipse-curve $-1 44.349479596969481 30.903376333406978 11.013675492544364 0 0.85716730853699208 0.51503806187062418 1 0 0 1 I I #
face $-1 $-1 $598 $63 $-1 $782 reversed single #
loop $-1 $-1 $783 $420 #
plane-surface $-1 0 34.001292149239212 0 0 -1 0 0 0 -1 forward_v I I I I #
coedge $-1 $597 $596 $423 $590 reversed $598 $-1 #
edge $-1 $784 -34.001292149239212 $785 34.001292149239212 $589 $786 forward 7 unknown #
coedge $-1 $425 $424 $428 $602 forward $169 $-1 #
coedge $-1 $783 $431 $424 $593 reversed $587 $-1 #
edge $-1 $600 -53.747978148747215 $607 53.747978148747215 $592 $787 forward 7 unknown #
coedge $-1 $429 $788 $425 $595 reversed $421 $-1 #
edge $-1 $604 -53.747978148747215 $599 53.747978148747215 $594 $789 forward 7 unknown #
coedge $-1 $589 $426 $788 $790 forward $598 $-1 #
coedge $-1 $426 $589 $783 $791 reversed $598 $-1 #
loop $-1 $-1 $596 $586 #
vertex $-1 $427 $792 #
vertex $-1 $427 $793 #
straight-curve $-1 53.747978148747215 0 16.169473400540788 0 1 0 I I #
edge $-1 $607 -34.001292149239212 $604 34.001292149239212 $428 $794 forward 7 unknown #
coedge $-1 $788 $429 $434 $610 reversed $421 $-1 #
vertex $-1 $602 $795 #
straight-curve $-1 -53.747978148747215 -34.001292149239212 0 0 0 -1 I I #
coedge $-1 $431 $783 $433 $609 reversed $587 $-1 #
vertex $-1 $593 $796 #
straight-curve $-1 -53.747978148747215 34.001292149239212 0 0 0 -1 I I #
edge $-1 $436 -53.747978148747215 $784 53.747978148747215 $606 $797 forward 7 unknown #
edge $-1 $785 -53.747978148747215 $435 53.747978148747215 $603 $798 forward 7 unknown #
point $-1 -53.747978148747215 -34.001292149239212 -16.169473400540788 #
point $-1 -53.747978148747215 34.001292149239212 -16.169473400540788 #
face $-1 $-1 $629 $64 $-1 $799 forward single #
plane-surface $-1 -60.473619461720403 -22.569238293349819 0 0 -1 0 0 0 -1 forward_v I I I I #
coedge $-1 $800 $801 $632 $802 forward $439 $-1 #
coedge $-1 $625 $441 $442 $621 reversed $275 $-1 #
coedge $-1 $441 $625 $628 $803 reversed $275 $-1 #
coedge $-1 $801 $800 $441 $619 reversed $439 $-1 #
edge $-1 $804 -16.169473400540788 $805 16.169473400540788 $618 $806 forward 7 unknown #
coedge $-1 $443 $442 $800 $807 forward $173 $-1 #
edge $-1 $623 -6.7256413129731953 $805 6.7256413129731953 $616 $808 forward 7 unknown #
edge $-1 $809 -6.7256413129731953 $451 6.7256413129731953 $448 $810 forward 7 unknown #
vertex $-1 $621 $811 #
straight-curve $-1 -53.747978148747215 0 -16.169473400540788 0 -1 0 I I #
coedge $-1 $617 $616 $445 $626 reversed $275 $-1 #
edge $-1 $630 -16.169473400540788 $623 16.169473400540788 $625 $812 forward 7 unknown #
coedge $-1 $813 $446 $449 $633 forward $629 $-1 #
coedge $-1 $446 $813 $617 $803 forward $629 $-1 #
loop $-1 $-1 $446 $613 #
vertex $-1 $447 $814 #
straight-curve $-1 -53.747978148747215 0 16.169473400540788 0 1 0 I I #
coedge $-1 $449 $448 $615 $802 reversed $450 $-1 #
edge $-1 $452 -6.7256413129731953 $815 6.7256413129731953 $449 $816 forward 7 unknown #
point $-1 -53.747978148747208 -22.569238293349819 -16.169473400540788 #
point $-1 -53.747978148747208 -22.569238293349819 16.169473400540788 #
loop $-1 $-1 $462 $454 #
plane-surface $-1 0 -34.001292149239212 0 0 1 0 0 0 1 forward_v I I I I #
coedge $-1 $639 $457 $459 $643 reversed $283 $-1 #
coedge $-1 $457 $638 $817 $818 reversed $283 $-1 #
coedge $-1 $465 $460 $457 $641 forward $455 $-1 #
edge $-1 $644 -24.800299333177563 $819 -21.004914190387403 $640 $820 forward 7 unknown #
coedge $-1 $459 $458 $647 $821 reversed $177 $-1 #
edge $-1 $822 1.0048591735576163e-014 $644 5.367485205639726 $638 $823 forward 7 unknown #
vertex $-1 $461 $824 #
straight-curve $-1 -17.645832972403419 -30.205907006449053 16.169473400540788 -1 0 0 I I #
coedge $-1 $817 $462 $465 $651 reversed $636 $-1 #
coedge $-1 $462 $817 $642 $821 forward $636 $-1 #
vertex $-1 $463 $825 #
straight-curve $-1 -30.286636366812846 -34.001292149239212 44.19260346792322 0 0 1 I I #
straight-curve $-1 -30.286636366812846 -34.001292149239219 12.374088169678316 0 -0.70710677298230451 -0.70710678939079041 I I #
edge $-1 $819 -40.296695522800832 $466 -30.286636366812846 $646 $826 forward 7 unknown #
point $-1 -30.286636366812846 -34.001292149239212 16.169473400540788 #
point $-1 -30.286636366812846 -30.205907006449053 16.169473400540788 #
edge $-1 $827 1 $827 0 $469 $-1 forward 7 unknown #
vertex $-1 $470 $828 #
ellipse-curve $-1 -37.436678621089982 -29.73158614737272 11.89976740968096 0 -0.70710678939079041 0.70710677298230451 1 0 0 1 I I #
point $-1 -36.436678621089982 -32.103599577844136 14.271780785109559 #
edge $-1 $829 1 $829 0 $473 $-1 forward 7 unknown #
vertex $-1 $474 $830 #
ellipse-curve $-1 -33.146653268523707 -29.73158614737272 11.89976740968096 0 -0.70710678939079041 0.70710677298230451 1 0 0 1 I I #
point $-1 -32.146653268523707 -32.103599577844136 14.271780785109559 #
plane-surface $-1 0 0 16.169473400540788 0 0 1 1 0 0 forward_v I I I I #
coedge $-1 $673 $672 $665 $831 forward $478 $-1 #
coedge $-1 $665 $480 $482 $669 reversed $305 $-1 #
coedge $-1 $480 $664 $663 $831 reversed $305 $-1 #
coedge $-1 $488 $483 $480 $667 forward $489 $-1 #
edge $-1 $670 -17.754235716470543 $832 -11.558404084806078 $666 $833 forward 7 unknown #
coedge $-1 $482 $481 $673 $834 reversed $191 $-1 #
edge $-1 $835 -68.002584298478396 $670 -55.972732350913319 $664 $836 forward 7 unknown #
vertex $-1 $484 $837 #
straight-curve $-1 -15.259012545709604 27.805460517574744 16.169473400540788 1 0 0 I I #
coedge $-1 $663 $485 $488 $677 reversed $478 $-1 #
coedge $-1 $485 $663 $668 $834 forward $478 $-1 #
vertex $-1 $486 $838 #
straight-curve $-1 -37.741357482631969 34.001292149239212 59.755989365812709 0 0 1 I I #
straight-curve $-1 -37.741357482631969 -1.0226270700428302 64.147469741234573 0 0.51503806187062418 -0.85716730853699208 I I #
edge $-1 $832 23.294692700206447 $490 37.741357482631969 $672 $839 forward 7 unknown #
point $-1 -37.741357482631969 34.001292149239212 16.169473400540788 #
point $-1 -37.741357482631969 27.805460517574748 16.169473400540788 #
edge $-1 $840 1 $840 0 $493 $-1 forward 7 unknown #
vertex $-1 $494 $841 #
ellipse-curve $-1 -34.852024526146863 28.822495241916041 9.7633560348716824 0 0.85716730853699208 0.51503806187062418 1 0 0 1 I I #
point $-1 -33.852024526146863 30.903376333406982 11.013675492544364 #
edge $-1 $842 1 $842 0 $497 $-1 forward 7 unknown #
vertex $-1 $498 $843 #
ellipse-curve $-1 -30.518025091419204 28.822495241916041 9.7633560348716824 0 0.85716730853699208 0.51503806187062418 1 0 0 1 I I #
point $-1 -29.518025091419204 30.903376333406982 11.013675492544364 #
edge $-1 $844 1 $844 0 $501 $-1 forward 7 unknown #
vertex $-1 $502 $845 #
ellipse-curve $-1 -26.184025656691546 28.822495241916041 9.7633560348716824 0 0.85716730853699208 0.51503806187062418 1 0 0 1 I I #
point $-1 -25.184025656691546 30.903376333406982 11.013675492544364 #
loop $-1 $-1 $513 $505 #
plane-surface $-1 0 34.001292149239212 0 0 -1 0 0 0 -1 forward_v I I I I #
coedge $-1 $695 $508 $510 $699 reversed $334 $-1 #
coedge $-1 $508 $694 $846 $847 reversed $334 $-1 #
coedge $-1 $516 $511 $508 $697 forward $506 $-1 #
edge $-1 $700 -17.754235716470543 $848 -11.558404084806078 $696 $849 forward 7 unknown #
coedge $-1 $510 $509 $703 $850 reversed $210 $-1 #
edge $-1 $851 -68.002584298478396 $700 -55.972732350913319 $694 $852 forward 7 unknown #
vertex $-1 $512 $853 #
straight-curve $-1 -3.5034283367660954 27.805460517574744 16.169473400540788 1 0 0 I I #
coedge $-1 $846 $513 $516 $707 reversed $692 $-1 #
coedge $-1 $513 $846 $698 $850 forward $692 $-1 #
vertex $-1 $514 $854 #
straight-curve $-1 -14.230189064744952 34.001292149239212 59.755989365812709 0 0 1 I I #
straight-curve $-1 -14.230189064744952 -1.0226270700428302 64.147469741234573 0 0.51503806187062418 -0.85716730853699208 I I #
edge $-1 $848 -0.21647571768057006 $517 14.230189064744952 $702 $855 forward 7 unknown #
point $-1 -14.230189064744952 34.001292149239212 16.169473400540788 #
point $-1 -14.230189064744952 27.805460517574748 16.169473400540788 #
edge $-1 $856 1 $856 0 $520 $-1 forward 7 unknown #
vertex $-1 $521 $857 #
ellipse-curve $-1 -11.34085610825985 28.822495241916041 9.7633560348716824 0 0.85716730853699208 0.51503806187062418 1 0 0 1 I I #
point $-1 -10.34085610825985 30.903376333406982 11.013675492544364 #
edge $-1 $858 1 $858 0 $524 $-1 forward 7 unknown #
vertex $-1 $525 $859 #
ellipse-curve $-1 -7.0068566735321909 28.822495241916041 9.7633560348716824 0 0.85716730853699208 0.51503806187062418 1 0 0 1 I I #
point $-1 -6.0068566735321909 30.903376333406982 11.013675492544364 #
edge $-1 $860 1 $860 0 $528 $-1 forward 7 unknown #
vertex $-1 $529 $861 #
ellipse-curve $-1 -2.6728572388045322 28.822495241916041 9.7633560348716824 0 0.85716730853699208 0.51503806187062418 1 0 0 1 I I #
point $-1 -1.6728572388045322 30.903376333406982 11.013675492544364 #
loop $-1 $-1 $540 $532 #
plane-surface $-1 0 34.001292149239212 0 0 -1 0 0 0 -1 forward_v I I I I #
coedge $-1 $725 $535 $537 $729 reversed $363 $-1 #
coedge $-1 $535 $724 $862 $863 reversed $363 $-1 #
coedge $-1 $543 $538 $535 $727 forward $533 $-1 #
edge $-1 $730 -17.754235716470543 $864 -11.558404084806078 $726 $865 forward 7 unknown #
coedge $-1 $537 $536 $733 $866 reversed $229 $-1 #
edge $-1 $867 -68.002584298478396 $730 -55.972732350913319 $724 $868 forward 7 unknown #
vertex $-1 $539 $869 #
straight-curve $-1 8.2521558721774149 27.805460517574744 16.169473400540788 1 0 0 I I #
coedge $-1 $862 $540 $543 $737 reversed $722 $-1 #
coedge $-1 $540 $862 $728 $866 forward $722 $-1 #
vertex $-1 $541 $870 #
straight-curve $-1 9.2809793531420688 34.001292149239212 59.755989365812709 0 0 1 I I #
straight-curve $-1 9.2809793531420688 -1.0226270700428302 64.147469741234573 0 0.51503806187062418 -0.85716730853699208 I I #
edge $-1 $864 -23.727644135567591 $544 -9.2809793531420688 $732 $871 forward 7 unknown #
point $-1 9.2809793531420688 34.001292149239212 16.169473400540788 #
point $-1 9.2809793531420688 27.805460517574748 16.169473400540788 #
edge $-1 $872 1 $872 0 $547 $-1 forward 7 unknown #
vertex $-1 $548 $873 #
ellipse-curve $-1 12.170312309627157 28.822495241916041 9.7633560348716824 0 0.85716730853699208 0.51503806187062418 1 0 0 1 I I #
point $-1 13.170312309627157 30.903376333406982 11.013675492544364 #
edge $-1 $874 1 $874 0 $551 $-1 forward 7 unknown #
vertex $-1 $552 $875 #
ellipse-curve $-1 16.50431174435483 28.822495241916041 9.7633560348716824 0 0.85716730853699208 0.51503806187062418 1 0 0 1 I I #
point $-1 17.50431174435483 30.903376333406982 11.013675492544364 #
edge $-1 $876 1 $876 0 $555 $-1 forward 7 unknown #
vertex $-1 $556 $877 #
ellipse-curve $-1 20.838311179082474 28.822495241916041 9.7633560348716824 0 0.85716730853699208 0.51503806187062418 1 0 0 1 I I #
point $-1 21.838311179082474 30.903376333406982 11.013675492544364 #
loop $-1 $-1 $567 $559 #
plane-surface $-1 0 34.001292149239212 0 0 -1 0 0 0 -1 forward_v I I I I #
coedge $-1 $755 $562 $564 $759 reversed $392 $-1 #
coedge $-1 $562 $754 $878 $879 reversed $392 $-1 #
coedge $-1 $570 $565 $562 $757 forward $560 $-1 #
edge $-1 $760 -17.754235716470543 $880 -11.558404084806078 $756 $881 forward 7 unknown #
coedge $-1 $564 $563 $763 $882 reversed $248 $-1 #
edge $-1 $883 -68.002584298478396 $760 -55.972732350913319 $754 $884 forward 7 unknown #
vertex $-1 $566 $885 #
straight-curve $-1 20.007740081120918 27.805460517574744 16.169473400540788 1 0 0 I I #
coedge $-1 $878 $567 $570 $767 reversed $752 $-1 #
coedge $-1 $567 $878 $758 $882 forward $752 $-1 #
vertex $-1 $568 $886 #
straight-curve $-1 32.792147771029079 34.001292149239212 59.755989365812709 0 0 1 I I #
straight-curve $-1 32.792147771029079 -1.0226270700428302 64.147469741234573 0 0.51503806187062418 -0.85716730853699208 I I #
edge $-1 $880 -47.238812553454594 $571 -32.792147771029079 $762 $887 forward 7 unknown #
point $-1 32.792147771029079 34.001292149239212 16.169473400540788 #
point $-1 32.792147771029079 27.805460517574748 16.169473400540788 #
edge $-1 $888 1 $888 0 $574 $-1 forward 7 unknown #
vertex $-1 $575 $889 #
ellipse-curve $-1 35.681480727514163 28.822495241916041 9.7633560348716824 0 0.85716730853699208 0.51503806187062418 1 0 0 1 I I #
point $-1 36.681480727514163 30.903376333406982 11.013675492544364 #
edge $-1 $890 1 $890 0 $578 $-1 forward 7 unknown #
vertex $-1 $579 $891 #
ellipse-curve $-1 40.015480162241836 28.822495241916041 9.7633560348716824 0 0.85716730853699208 0.51503806187062418 1 0 0 1 I I #
point $-1 41.015480162241836 30.903376333406982 11.013675492544364 #
edge $-1 $892 1 $892 0 $582 $-1 forward 7 unknown #
vertex $-1 $583 $893 #
ellipse-curve $-1 44.349479596969481 28.822495241916041 9.7633560348716824 0 0.85716730853699208 0.51503806187062418 1 0 0 1 I I #
point $-1 45.349479596969481 30.903376333406982 11.013675492544364 #
plane-surface $-1 53.747978148747215 0 0 -1 0 0 0 0 1 forward_v I I I I #
coedge $-1 $606 $592 $597 $791 forward $587 $-1 #
vertex $-1 $590 $894 #
vertex $-1 $790 $895 #
straight-curve $-1 53.747978148747215 0 -16.169473400540788 0 -1 0 I I #
straight-curve $-1 0 34.001292149239212 16.169473400540788 -1 0 0 I I #
coedge $-1 $594 $603 $596 $790 reversed $421 $-1 #
straight-curve $-1 0 -34.001292149239212 16.169473400540788 1 0 0 I I #
edge $-1 $599 -16.169473400540788 $785 16.169473400540788 $596 $896 forward 7 unknown #
edge $-1 $600 -16.169473400540788 $784 16.169473400540788 $597 $897 forward 7 unknown #
point $-1 53.747978148747215 -34.001292149239212 16.169473400540788 #
point $-1 53.747978148747215 34.001292149239212 16.169473400540788 #
straight-curve $-1 -53.747978148747215 0 16.169473400540788 0 -1 0 I I #
point $-1 -53.747978148747215 -34.001292149239212 16.169473400540788 #
point $-1 -53.747978148747215 34.001292149239212 16.169473400540788 #
straight-curve $-1 0 34.001292149239212 -16.169473400540788 1 0 0 I I #
straight-curve $-1 0 -34.001292149239212 -16.169473400540788 -1 0 0 I I #
plane-surface $-1 0 0 16.169473400540788 0 0 1 1 0 0 forward_v I I I I #
coedge $-1 $618 $615 $620 $807 reversed $439 $-1 #
coedge $-1 $615 $618 $813 $898 reversed $439 $-1 #
edge $-1 $815 -16.169473400540788 $809 16.169473400540788 $632 $899 forward 7 unknown #
edge $-1 $804 -6.7256413129731953 $630 6.7256413129731953 $617 $900 forward 7 unknown #
vertex $-1 $898 $901 #
vertex $-1 $807 $902 #
straight-curve $-1 -67.199260774693599 -29.495262249340612 0 0 0 -1 I I #
edge $-1 $805 -3.4630119779953965 $809 3.4630119779953965 $800 $903 forward 7 unknown #
straight-curve $-1 -60.473619461720403 -29.495262249340612 -16.169473400540788 -1 0 0 I I #
vertex $-1 $622 $904 #
straight-curve $-1 -60.473619461720403 -22.569238293349819 -16.169473400540788 1 0 0 I I #
point $-1 -53.747978148747208 -29.495262249340612 -16.169473400540788 #
straight-curve $-1 -53.747978148747215 -29.495262249340612 0 0 0 -1 I I #
coedge $-1 $628 $627 $801 $898 forward $629 $-1 #
point $-1 -53.747978148747208 -29.495262249340612 16.169473400540788 #
vertex $-1 $633 $905 #
straight-curve $-1 -60.473619461720403 -22.569238293349819 16.169473400540788 -1 0 0 I I #
coedge $-1 $647 $646 $639 $818 forward $636 $-1 #
edge $-1 $819 28.023130067382432 $822 31.818515298244897 $817 $906 forward 7 unknown #
vertex $-1 $651 $907 #
straight-curve $-1 -40.296695522800832 -55.006206339626615 16.169473400540788 0 -1 0 I I #
edge $-1 $822 -22.650862550397413 $648 -12.640803394409428 $647 $908 forward 7 unknown #
vertex $-1 $821 $909 #
straight-curve $-1 -40.296695522800832 -34.001292149239219 12.374088169678316 0 0.70710677298230451 0.70710678939079041 I I #
point $-1 -40.296695522800832 -30.205907006449053 16.169473400540788 #
point $-1 -30.286636366812846 -34.001292149239212 12.374088169678323 #
straight-curve $-1 0 -34.001292149239212 16.169473400540788 1 0 0 I I #
vertex $-1 $654 $910 #
point $-1 -36.436678621089982 -29.73158614737272 11.89976740968096 #
vertex $-1 $658 $911 #
point $-1 -32.146653268523707 -29.73158614737272 11.89976740968096 #
edge $-1 $832 43.586515965271921 $835 53.898111781264767 $663 $912 forward 7 unknown #
vertex $-1 $677 $913 #
straight-curve $-1 -23.294692700206447 45.55969623404529 16.169473400540788 0 1 0 I I #
edge $-1 $835 8.035680154496843 $674 22.482344936922367 $673 $914 forward 7 unknown #
vertex $-1 $834 $915 #
straight-curve $-1 -23.294692700206447 -1.0226270700428302 64.147469741234573 0 -0.51503806187062418 0.85716730853699208 I I #
point $-1 -23.294692700206447 27.805460517574748 16.169473400540788 #
point $-1 -37.741357482631969 34.001292149239212 5.8578775845479427 #
straight-curve $-1 0 34.001292149239212 16.169473400540788 -1 0 0 I I #
vertex $-1 $680 $916 #
point $-1 -33.852024526146863 28.822495241916041 9.7633560348716824 #
vertex $-1 $684 $917 #
point $-1 -29.518025091419204 28.822495241916041 9.7633560348716824 #
vertex $-1 $688 $918 #
point $-1 -25.184025656691546 28.822495241916041 9.7633560348716824 #
coedge $-1 $703 $702 $695 $847 forward $692 $-1 #
edge $-1 $848 43.586515965271921 $851 53.898111781264767 $846 $919 forward 7 unknown #
vertex $-1 $707 $920 #
straight-curve $-1 0.21647571768057006 45.55969623404529 16.169473400540788 0 1 0 I I #
edge $-1 $851 -3.7199040544466655 $704 10.726760727978856 $703 $921 forward 7 unknown #
vertex $-1 $850 $922 #
straight-curve $-1 0.21647571768057006 -1.0226270700428302 64.147469741234573 0 -0.51503806187062418 0.85716730853699208 I I #
point $-1 0.21647571768057006 27.805460517574748 16.169473400540788 #
point $-1 -14.230189064744952 34.001292149239212 5.8578775845479427 #
straight-curve $-1 0 34.001292149239212 16.169473400540788 -1 0 0 I I #
vertex $-1 $710 $923 #
point $-1 -10.34085610825985 28.822495241916041 9.7633560348716824 #
vertex $-1 $714 $924 #
point $-1 -6.0068566735321909 28.822495241916041 9.7633560348716824 #
vertex $-1 $718 $925 #
point $-1 -1.6728572388045322 28.822495241916041 9.7633560348716824 #
coedge $-1 $733 $732 $725 $863 forward $722 $-1 #
edge $-1 $864 43.586515965271921 $867 53.898111781264767 $862 $926 forward 7 unknown #
vertex $-1 $737 $927 #
straight-curve $-1 23.727644135567591 45.55969623404529 16.169473400540788 0 1 0 I I #
edge $-1 $867 -15.475488263390176 $734 -1.0288234809646539 $733 $928 forward 7 unknown #
vertex $-1 $866 $929 #
straight-curve $-1 23.727644135567591 -1.0226270700428302 64.147469741234573 0 -0.51503806187062418 0.85716730853699208 I I #
point $-1 23.727644135567591 27.805460517574748 16.169473400540788 #
point $-1 9.2809793531420688 34.001292149239212 5.8578775845479427 #
straight-curve $-1 0 34.001292149239212 16.169473400540788 -1 0 0 I I #
vertex $-1 $740 $930 #
point $-1 13.170312309627157 28.822495241916041 9.7633560348716824 #
vertex $-1 $744 $931 #
point $-1 17.50431174435483 28.822495241916041 9.7633560348716824 #
vertex $-1 $748 $932 #
point $-1 21.838311179082474 28.822495241916041 9.7633560348716824 #
coedge $-1 $763 $762 $755 $879 forward $752 $-1 #
edge $-1 $880 43.586515965271921 $883 53.898111781264767 $878 $933 forward 7 unknown #
vertex $-1 $767 $934 #
straight-curve $-1 47.238812553454594 45.55969623404529 16.169473400540788 0 1 0 I I #
edge $-1 $883 -27.231072472333675 $764 -12.784407689908161 $763 $935 forward 7 unknown #
vertex $-1 $882 $936 #
straight-curve $-1 47.238812553454594 -1.0226270700428302 64.147469741234573 0 -0.51503806187062418 0.85716730853699208 I I #
point $-1 47.238812553454594 27.805460517574748 16.169473400540788 #
point $-1 32.792147771029079 34.001292149239212 5.8578775845479427 #
straight-curve $-1 0 34.001292149239212 16.169473400540788 -1 0 0 I I #
vertex $-1 $770 $937 #
point $-1 36.681480727514163 28.822495241916041 9.7633560348716824 #
vertex $-1 $774 $938 #
point $-1 41.015480162241836 28.822495241916041 9.7633560348716824 #
vertex $-1 $778 $939 #
point $-1 45.349479596969481 28.822495241916041 9.7633560348716824 #
point $-1 53.747978148747215 34.001292149239212 -16.169473400540788 #
point $-1 53.747978148747215 -34.001292149239212 -16.169473400540788 #
straight-curve $-1 53.747978148747215 -34.001292149239212 0 0 0 -1 I I #
straight-curve $-1 53.747978148747215 34.001292149239212 0 0 0 -1 I I #
edge $-1 $815 -3.4630119779953965 $804 3.4630119779953965 $801 $940 forward 7 unknown #
straight-curve $-1 -67.199260774693599 -22.569238293349819 0 0 0 -1 I I #
straight-curve $-1 -60.473619461720403 -29.495262249340612 16.169473400540788 1 0 0 I I #
point $-1 -67.199260774693599 -29.495262249340612 16.169473400540788 #
point $-1 -67.199260774693599 -29.495262249340612 -16.169473400540788 #
straight-curve $-1 -67.199260774693599 -26.032250271345216 -16.169473400540788 0 1 0 I I #
point $-1 -67.199260774693599 -22.569238293349819 -16.169473400540788 #
point $-1 -67.199260774693599 -22.569238293349819 16.169473400540788 #
straight-curve $-1 -40.296695522800832 -34.001292149239212 44.19260346792322 0 0 -1 I I #
point $-1 -40.296695522800832 -34.001292149239212 16.169473400540788 #
straight-curve $-1 -17.645832972403419 -34.001292149239212 12.374088169678327 1 0 0 I I #
point $-1 -40.296695522800832 -34.001292149239212 12.374088169678323 #
point $-1 -37.436678621089982 -29.024479357981928 11.192660636698657 #
point $-1 -33.146653268523707 -29.024479357981928 11.192660636698657 #
straight-curve $-1 -23.294692700206447 34.001292149239212 59.755989365812709 0 0 -1 I I #
point $-1 -23.294692700206447 34.001292149239212 16.169473400540788 #
straight-curve $-1 -15.259012545709604 34.001292149239219 5.8578775845479392 -1 0 0 I I #
point $-1 -23.294692700206447 34.001292149239212 5.8578775845479427 #
point $-1 -34.852024526146863 27.965327933379047 9.2483179730010594 #
point $-1 -30.518025091419204 27.965327933379047 9.2483179730010594 #
point $-1 -26.184025656691546 27.965327933379047 9.2483179730010594 #
straight-curve $-1 0.21647571768057006 34.001292149239212 59.755989365812709 0 0 -1 I I #
point $-1 0.21647571768057006 34.001292149239212 16.169473400540788 #
straight-curve $-1 -3.5034283367660954 34.001292149239219 5.8578775845479392 -1 0 0 I I #
point $-1 0.21647571768057006 34.001292149239212 5.8578775845479427 #
point $-1 -11.34085610825985 27.965327933379047 9.2483179730010594 #
point $-1 -7.0068566735321909 27.965327933379047 9.2483179730010594 #
point $-1 -2.6728572388045322 27.965327933379047 9.2483179730010594 #
straight-curve $-1 23.727644135567591 34.001292149239212 59.755989365812709 0 0 -1 I I #
point $-1 23.727644135567591 34.001292149239212 16.169473400540788 #
straight-curve $-1 8.2521558721774149 34.001292149239219 5.8578775845479392 -1 0 0 I I #
point $-1 23.727644135567591 34.001292149239212 5.8578775845479427 #
point $-1 12.170312309627157 27.965327933379047 9.2483179730010594 #
point $-1 16.50431174435483 27.965327933379047 9.2483179730010594 #
point $-1 20.838311179082474 27.965327933379047 9.2483179730010594 #
straight-curve $-1 47.238812553454594 34.001292149239212 59.755989365812709 0 0 -1 I I #
point $-1 47.238812553454594 34.001292149239212 16.169473400540788 #
straight-curve $-1 20.007740081120918 34.001292149239219 5.8578775845479392 -1 0 0 I I #
point $-1 47.238812553454594 34.001292149239212 5.8578775845479427 #
point $-1 35.681480727514163 27.965327933379047 9.2483179730010594 #
point $-1 40.015480162241836 27.965327933379047 9.2483179730010594 #
point $-1 44.349479596969481 27.965327933379047 9.2483179730010594 #
straight-curve $-1 -67.199260774693599 -26.032250271345216 16.169473400540788 0 -1 0 I I #
End-of-ACIS-data 