500 0 8 0           
7 Unknown 11 ACIS 5.0 NT 24 Fri Mar 26 20:29:59 1999 
-1 9.9999999999999995e-007 1e-010 
body $-1 $8 $-1 $9 #
body $-1 $10 $-1 $11 #
body $-1 $12 $-1 $13 #
body $-1 $14 $-1 $15 #
body $-1 $16 $-1 $17 #
body $-1 $18 $-1 $19 #
body $-1 $20 $-1 $21 #
body $-1 $22 $-1 $23 #
lump $-1 $-1 $24 $0 #
transform $-1 1 0 0 0 1 0 0 0 1 71.380352183599356 40.318233534167206 11.467816295005292 1 rotate no_reflect no_shear #
lump $-1 $-1 $25 $1 #
transform $-1 1 0 0 0 1 0 0 0 1 71.380352183599356 40.318233534167206 11.467816295005292 1 rotate no_reflect no_shear #
lump $-1 $-1 $26 $2 #
transform $-1 1 0 0 0 1 0 0 0 1 71.380352183599356 40.318233534167206 11.467816295005292 1 rotate no_reflect no_shear #
lump $-1 $-1 $27 $3 #
transform $-1 1 0 0 0 1 0 0 0 1 71.380352183599356 40.318233534167206 11.467816295005292 1 rotate no_reflect no_shear #
lump $-1 $-1 $28 $4 #
transform $-1 1 0 0 0 1 0 0 0 1 71.380352183599356 40.318233534167206 11.467816295005292 1 rotate no_reflect no_shear #
lump $-1 $-1 $29 $5 #
transform $-1 1 0 0 0 1 0 0 0 1 71.380352183599356 40.318233534167206 11.467816295005292 1 rotate no_reflect no_shear #
lump $-1 $-1 $30 $6 #
transform $-1 1 0 0 0 1 0 0 0 1 71.380352183599356 40.318233534167206 11.467816295005292 1 rotate no_reflect no_shear #
lump $-1 $-1 $31 $7 #
transform $-1 1 0 0 0 1 0 0 0 1 71.380352183599356 40.318233534167206 11.467816295005292 1 rotate no_reflect no_shear #
shell $-1 $-1 $-1 $32 $-1 $8 #
shell $-1 $-1 $-1 $33 $-1 $10 #
shell $-1 $-1 $-1 $34 $-1 $12 #
shell $-1 $-1 $-1 $35 $-1 $14 #
shell $-1 $-1 $-1 $36 $-1 $16 #
shell $-1 $-1 $-1 $37 $-1 $18 #
shell $-1 $-1 $-1 $38 $-1 $20 #
shell $-1 $-1 $-1 $39 $-1 $22 #
face $-1 $40 $41 $24 $-1 $42 forward single #
face $-1 $43 $44 $25 $-1 $45 forward single #
face $-1 $46 $47 $26 $-1 $48 reversed single #
face $-1 $49 $50 $27 $-1 $51 forward single #
face $-1 $52 $53 $28 $-1 $54 reversed single #
face $-1 $55 $56 $29 $-1 $57 forward single #
face $-1 $58 $59 $30 $-1 $60 reversed single #
face $-1 $61 $62 $31 $-1 $63 forward single #
face $-1 $64 $65 $24 $-1 $66 reversed single #
loop $-1 $-1 $67 $32 #
plane-surface $-1 0 0 11.467816295005292 0 0 1 1 0 0 forward_v I I I I #
face $-1 $68 $69 $25 $-1 $70 reversed single #
loop $-1 $-1 $71 $33 #
plane-surface $-1 -63.843007692961528 0 4.2479754707890267 0 0 1 1 0 0 forward_v I I I I #
face $-1 $72 $73 $26 $-1 $74 reversed single #
loop $-1 $-1 $75 $34 #
plane-surface $-1 -22.666650542666705 56.148884225497696 166.66041482316533 -1 0 0 0 0.57357644374324357 0.81915203911291934 forward_v I I I I #
face $-1 $76 $77 $27 $-1 $78 forward single #
loop $-1 $79 $80 $35 #
cone-surface $-1 -39.486156872495208 33.319622286214219 5.6318669502970673 0 -0.57357644374324357 -0.81915203911291934 2 0 0 1 I I 0 1 2 forward I I I I #
face $-1 $81 $82 $28 $-1 $83 reversed single #
loop $-1 $-1 $84 $36 #
plane-surface $-1 -53.037841276479341 -143.01169128606665 107.23433170751572 1 0 0 0 0.71933980857756763 -0.69465836192734942 forward_v I I I I #
face $-1 $85 $86 $29 $-1 $87 forward single #
loop $-1 $88 $89 $37 #
cone-surface $-1 -39.588471071609348 -38.315250293369843 9.4187862986404003 0 0.71933980857756763 -0.69465836192734942 0.5 0 0 1 I I 0 1 0.5 forward I I I I #
face $-1 $90 $91 $30 $-1 $92 reversed single #
loop $-1 $-1 $93 $38 #
plane-surface $-1 41.213789848015011 -143.01169128606665 107.23433170751572 1 0 0 0 0.71933980857756763 -0.69465836192734942 forward_v I I I I #
face $-1 $94 $95 $31 $-1 $96 forward single #
loop $-1 $97 $98 $39 #
cone-surface $-1 54.663160052885004 -38.315250293369843 9.4187862986404003 0 0.71933980857756763 -0.69465836192734942 0.5 0 0 1 I I 0 1 0.5 forward I I I I #
face $-1 $99 $100 $24 $-1 $101 reversed single #
loop $-1 $-1 $102 $40 #
plane-surface $-1 0 0 -11.467816295005292 0 0 1 1 0 0 forward_v I I I I #
coedge $-1 $103 $104 $105 $106 forward $41 $-1 #
face $-1 $107 $108 $25 $-1 $109 reversed single #
loop $-1 $-1 $110 $43 #
plane-surface $-1 -63.843007692961528 0 -2.1360217531616401 0 0 1 1 0 0 forward_v I I I I #
coedge $-1 $111 $112 $113 $114 forward $44 $-1 #
face $-1 $115 $116 $26 $-1 $117 forward single #
loop $-1 $-1 $118 $46 #
plane-surface $-1 -39.486156872495201 -25.73529289172069 49.717692735577856 0 0.57357644374324357 0.81915203911291934 1 0 0 forward_v I I I I #
coedge $-1 $119 $120 $121 $122 reversed $47 $-1 #
face $-1 $-1 $123 $27 $-1 $124 forward single #
loop $-1 $125 $126 $49 #
cone-surface $-1 -39.486156872495208 31.460955933691821 2.9774163547268628 0 -0.57357644374324357 -0.81915203911291934 1 0 0 1 I I -0.70710678118654746 0.70710678118654746 1 forward I I I I #
loop $-1 $-1 $127 $35 #
coedge $-1 $80 $80 $128 $129 reversed $50 $-1 #
face $-1 $130 $131 $28 $-1 $132 reversed single #
loop $-1 $-1 $133 $52 #
plane-surface $-1 -39.588471071609348 -40.318233534167206 8.0644146642028716 0 -0.71933980857756763 0.69465836192734942 1 0 0 forward_v I I I I #
coedge $-1 $134 $135 $136 $137 reversed $53 $-1 #
face $-1 $-1 $138 $29 $-1 $139 forward single #
loop $-1 $140 $141 $55 #
cone-surface $-1 -39.588471071609348 -37.775745436936667 8.8977925271948877 0 0.71933980857756763 -0.69465836192734942 0.25 0 0 1 I I -0.70710678118654746 0.70710678118654746 0.25 forward I I I I #
loop $-1 $-1 $142 $37 #
coedge $-1 $89 $89 $143 $144 reversed $56 $-1 #
face $-1 $145 $146 $30 $-1 $147 reversed single #
loop $-1 $-1 $148 $58 #
plane-surface $-1 54.663160052885004 -40.318233534167206 8.0644146642028716 0 -0.71933980857756763 0.69465836192734942 1 0 0 forward_v I I I I #
coedge $-1 $149 $150 $151 $152 reversed $59 $-1 #
face $-1 $-1 $153 $31 $-1 $154 forward single #
loop $-1 $155 $156 $61 #
cone-surface $-1 54.663160052885004 -37.775745436936667 8.8977925271948877 0 0.71933980857756763 -0.69465836192734942 0.25 0 0 1 I I -0.70710678118654746 0.70710678118654746 0.25 forward I I I I #
loop $-1 $-1 $157 $39 #
coedge $-1 $98 $98 $158 $159 reversed $62 $-1 #
face $-1 $160 $161 $24 $-1 $162 reversed single #
loop $-1 $-1 $163 $64 #
plane-surface $-1 0 -40.318233534167206 0 0 1 0 0 0 1 forward_v I I I I #
coedge $-1 $164 $165 $166 $167 forward $65 $-1 #
coedge $-1 $168 $67 $169 $170 forward $41 $-1 #
coedge $-1 $67 $168 $171 $172 forward $41 $-1 #
coedge $-1 $173 $174 $67 $106 reversed $175 $-1 #
edge $-1 $176 -40.318233534167206 $177 40.318233534167206 $105 $178 forward 7 unknown #
face $-1 $179 $180 $25 $-1 $181 reversed single #
loop $-1 $-1 $113 $68 #
plane-surface $-1 -56.3056632023237 0 1.0559768588136933 -1 0 0 0 0 1 forward_v I I I I #
coedge $-1 $182 $183 $184 $185 forward $69 $-1 #
coedge $-1 $186 $71 $187 $188 reversed $44 $-1 #
coedge $-1 $71 $186 $189 $190 reversed $44 $-1 #
coedge $-1 $191 $192 $71 $114 reversed $108 $-1 #
edge $-1 $193 -40.318233534167206 $194 40.318233534167206 $113 $195 forward 7 unknown #
face $-1 $196 $197 $26 $-1 $198 forward single #
loop $-1 $-1 $199 $72 #
plane-surface $-1 0 0 11.467816295005292 0 0 1 1 0 0 forward_v I I I I #
coedge $-1 $200 $201 $202 $203 reversed $73 $-1 #
coedge $-1 $120 $75 $204 $205 reversed $47 $-1 #
coedge $-1 $75 $119 $200 $206 reversed $47 $-1 #
coedge $-1 $202 $207 $75 $122 forward $208 $-1 #
edge $-1 $209 71.862391116577371 $210 79.86369269307923 $121 $211 forward 7 unknown #
loop $-1 $-1 $128 $76 #
plane-surface $-1 -39.486156872495201 -25.73529289172069 49.717692735577856 0 0.57357644374324357 0.81915203911291934 1 0 0 forward_v I I I I #
loop $-1 $-1 $212 $49 #
coedge $-1 $126 $126 $127 $213 reversed $77 $-1 #
coedge $-1 $127 $127 $126 $213 forward $79 $-1 #
coedge $-1 $128 $128 $80 $129 forward $123 $-1 #
edge $-1 $214 -2.5090768827704857e-015 $214 6.2831853071795978 $128 $215 forward 7 unknown #
face $-1 $216 $217 $28 $-1 $218 forward single #
loop $-1 $-1 $219 $81 #
plane-surface $-1 -26.139100866739359 -143.01169128606665 107.23433170751572 -1 0 0 0 -0.71933980857756763 0.69465836192734942 forward_v I I I I #
coedge $-1 $220 $221 $222 $223 reversed $82 $-1 #
coedge $-1 $135 $84 $224 $225 reversed $53 $-1 #
coedge $-1 $84 $134 $220 $226 reversed $53 $-1 #
coedge $-1 $222 $227 $84 $137 forward $228 $-1 #
edge $-1 $229 42.149349558752569 $230 45.552751189554989 $136 $231 forward 7 unknown #
loop $-1 $-1 $143 $85 #
plane-surface $-1 -39.588471071609348 -40.318233534167206 8.0644146642028716 0 -0.71933980857756763 0.69465836192734942 1 0 0 forward_v I I I I #
loop $-1 $-1 $232 $55 #
coedge $-1 $141 $141 $142 $233 reversed $86 $-1 #
coedge $-1 $142 $142 $141 $233 forward $88 $-1 #
coedge $-1 $143 $143 $89 $144 forward $138 $-1 #
edge $-1 $234 -3.5074445250725914e-016 $234 6.2831853071796004 $143 $235 forward 7 unknown #
face $-1 $236 $237 $30 $-1 $238 reversed single #
loop $-1 $-1 $239 $90 #
plane-surface $-1 68.112530257754997 -143.01169128606665 107.23433170751572 -1 0 0 0 -0.71933980857756763 0.69465836192734942 forward_v I I I I #
coedge $-1 $240 $241 $242 $243 reversed $91 $-1 #
coedge $-1 $150 $93 $244 $245 reversed $59 $-1 #
coedge $-1 $93 $149 $240 $246 reversed $59 $-1 #
coedge $-1 $242 $247 $93 $152 forward $237 $-1 #
edge $-1 $248 42.149349558752569 $249 45.552751189554989 $151 $250 forward 7 unknown #
loop $-1 $-1 $158 $94 #
plane-surface $-1 54.663160052885004 -40.318233534167206 8.0644146642028716 0 -0.71933980857756763 0.69465836192734942 1 0 0 forward_v I I I I #
loop $-1 $-1 $251 $61 #
coedge $-1 $156 $156 $157 $252 reversed $95 $-1 #
coedge $-1 $157 $157 $156 $252 forward $97 $-1 #
coedge $-1 $158 $158 $98 $159 forward $153 $-1 #
edge $-1 $253 -3.5074445250725914e-016 $253 6.2831853071796004 $158 $254 forward 7 unknown #
face $-1 $255 $256 $24 $-1 $257 reversed single #
loop $-1 $-1 $258 $99 #
plane-surface $-1 -71.380352183599356 0 0 1 0 0 0 0 -1 forward_v I I I I #
coedge $-1 $259 $171 $260 $261 forward $100 $-1 #
coedge $-1 $262 $102 $259 $263 forward $65 $-1 #
coedge $-1 $102 $262 $264 $265 forward $65 $-1 #
coedge $-1 $174 $173 $102 $167 reversed $175 $-1 #
edge $-1 $266 -40.318233534167206 $267 40.318233534167206 $166 $268 forward 7 unknown #
coedge $-1 $104 $103 $269 $270 forward $41 $-1 #
coedge $-1 $271 $272 $103 $170 reversed $256 $-1 #
edge $-1 $177 -71.380352183599356 $273 71.380352183599356 $169 $274 forward 7 unknown #
coedge $-1 $163 $275 $104 $172 reversed $100 $-1 #
edge $-1 $276 -71.380352183599356 $176 71.380352183599356 $171 $277 forward 7 unknown #
coedge $-1 $166 $105 $275 $278 forward $175 $-1 #
coedge $-1 $105 $166 $271 $279 reversed $175 $-1 #
loop $-1 $-1 $173 $255 #
vertex $-1 $106 $280 #
vertex $-1 $106 $281 #
straight-curve $-1 71.380352183599356 0 11.467816295005292 0 1 0 I I #
face $-1 $282 $283 $25 $-1 $284 reversed single #
loop $-1 $-1 $285 $107 #
plane-surface $-1 0 -40.318233534167206 0 0 1 0 0 0 1 forward_v I I I I #
coedge $-1 $286 $110 $285 $287 reversed $69 $-1 #
coedge $-1 $110 $286 $288 $289 reversed $69 $-1 #
coedge $-1 $192 $191 $110 $185 reversed $108 $-1 #
edge $-1 $290 -40.318233534167206 $291 40.318233534167206 $184 $292 forward 7 unknown #
coedge $-1 $112 $111 $293 $294 reversed $44 $-1 #
coedge $-1 $295 $296 $111 $188 forward $297 $-1 #
edge $-1 $298 -39.458848337118596 $194 -24.384159355842936 $187 $299 forward 7 unknown #
coedge $-1 $300 $301 $112 $190 forward $180 $-1 #
edge $-1 $193 24.384159355842936 $302 39.458848337118596 $189 $303 forward 7 unknown #
coedge $-1 $184 $113 $301 $304 reversed $108 $-1 #
coedge $-1 $113 $184 $295 $305 reversed $108 $-1 #
vertex $-1 $190 $306 #
vertex $-1 $188 $307 #
straight-curve $-1 -56.3056632023237 0 4.2479754707890267 0 1 0 I I #
face $-1 $-1 $208 $26 $-1 $308 reversed single #
loop $-1 $-1 $309 $115 #
plane-surface $-1 -56.3056632023237 0 1.0559768588136933 -1 0 0 0 0 1 forward_v I I I I #
coedge $-1 $310 $311 $312 $313 forward $116 $-1 #
coedge $-1 $314 $118 $120 $206 forward $73 $-1 #
coedge $-1 $118 $314 $309 $315 forward $73 $-1 #
coedge $-1 $316 $121 $118 $203 forward $208 $-1 #
edge $-1 $210 2.9235721064191047 $317 36.5625847660761 $202 $318 forward 7 unknown #
coedge $-1 $311 $310 $119 $205 forward $116 $-1 #
edge $-1 $319 0.81674874307071832 $209 12.243791421418358 $204 $320 forward 7 unknown #
edge $-1 $210 -80.636467068334397 $319 -66.686623653768436 $120 $321 forward 7 unknown #
coedge $-1 $121 $316 $311 $322 reversed $208 $-1 #
loop $-1 $-1 $316 $196 #
vertex $-1 $322 $323 #
vertex $-1 $122 $324 #
straight-curve $-1 -22.666650542666705 40.318233534167206 83.330207411582663 0 0 -1 I I #
coedge $-1 $212 $212 $-1 $325 reversed $125 $-1 #
edge $-1 $326 0 $326 6.2831853071796004 $126 $327 forward 7 unknown #
vertex $-1 $129 $328 #
ellipse-curve $-1 -39.486156872495208 34.604712194993382 7.4671655067543643 0 0.57357644374324357 0.81915203911291934 2 0 0 1 I I #
face $-1 $-1 $228 $28 $-1 $329 reversed single #
loop $-1 $-1 $330 $130 #
plane-surface $-1 0 0 11.467816295005292 0 0 1 1 0 0 forward_v I I I I #
coedge $-1 $331 $332 $333 $334 reversed $131 $-1 #
coedge $-1 $335 $133 $135 $226 forward $82 $-1 #
coedge $-1 $133 $335 $331 $336 forward $82 $-1 #
coedge $-1 $333 $136 $133 $223 forward $228 $-1 #
edge $-1 $230 -33.243605740674667 $337 -6.3448653309346845 $222 $338 forward 7 unknown #
coedge $-1 $339 $340 $134 $225 forward $217 $-1 #
edge $-1 $341 -34.474238781883258 $229 -31.187612108866119 $224 $342 forward 7 unknown #
edge $-1 $230 0 $341 4.7312849785588149 $135 $343 forward 7 unknown #
coedge $-1 $136 $333 $339 $344 reversed $228 $-1 #
loop $-1 $-1 $333 $216 #
vertex $-1 $344 $345 #
vertex $-1 $137 $346 #
straight-curve $-1 -53.037841276479341 -40.318233534167206 53.617165853757861 0 0 -1 I I #
coedge $-1 $232 $232 $-1 $347 reversed $140 $-1 #
edge $-1 $348 0 $348 6.2831853071796004 $141 $349 forward 7 unknown #
vertex $-1 $144 $350 #
ellipse-curve $-1 -39.588471071609348 -38.674920197658636 9.7661154796040819 0 -0.71933980857756763 0.69465836192734942 0.5 0 0 1 I I #
face $-1 $-1 $351 $30 $-1 $352 forward single #
loop $-1 $-1 $151 $145 #
plane-surface $-1 0 -40.318233534167206 0 0 1 0 0 0 1 forward_v I I I I #
coedge $-1 $353 $354 $355 $356 reversed $146 $-1 #
coedge $-1 $357 $148 $150 $246 forward $91 $-1 #
coedge $-1 $148 $357 $353 $358 forward $91 $-1 #
coedge $-1 $355 $151 $148 $243 forward $237 $-1 #
edge $-1 $249 13.882209821572509 $359 40.780950231312495 $242 $360 forward 7 unknown #
coedge $-1 $361 $362 $149 $245 forward $351 $-1 #
edge $-1 $363 -34.474238781883258 $248 -31.187612108866119 $244 $364 forward 7 unknown #
edge $-1 $249 0 $363 4.7312849785588149 $150 $365 forward 7 unknown #
coedge $-1 $151 $355 $361 $366 reversed $237 $-1 #
vertex $-1 $366 $367 #
vertex $-1 $152 $368 #
straight-curve $-1 41.213789848015011 -40.318233534167206 53.617165853757861 0 0 -1 I I #
coedge $-1 $251 $251 $-1 $369 reversed $155 $-1 #
edge $-1 $370 0 $370 6.2831853071796004 $156 $371 forward 7 unknown #
vertex $-1 $159 $372 #
ellipse-curve $-1 54.663160052885004 -38.674920197658636 9.7661154796040819 0 -0.71933980857756763 0.69465836192734942 0.5 0 0 1 I I #
face $-1 $-1 $175 $24 $-1 $373 reversed single #
loop $-1 $-1 $271 $160 #
plane-surface $-1 0 40.318233534167206 0 0 -1 0 0 0 -1 forward_v I I I I #
coedge $-1 $374 $269 $272 $375 forward $161 $-1 #
coedge $-1 $275 $163 $164 $263 reversed $100 $-1 #
coedge $-1 $269 $374 $163 $261 reversed $161 $-1 #
edge $-1 $276 -11.467816295005292 $376 11.467816295005292 $260 $377 forward 7 unknown #
coedge $-1 $165 $164 $374 $378 forward $65 $-1 #
edge $-1 $267 -71.380352183599356 $376 71.380352183599356 $259 $379 forward 7 unknown #
coedge $-1 $272 $271 $165 $265 reversed $256 $-1 #
edge $-1 $380 -71.380352183599356 $266 71.380352183599356 $264 $381 forward 7 unknown #
vertex $-1 $167 $382 #
vertex $-1 $278 $383 #
straight-curve $-1 71.380352183599356 0 -11.467816295005292 0 -1 0 I I #
coedge $-1 $258 $260 $168 $270 reversed $161 $-1 #
edge $-1 $273 -40.318233534167206 $276 40.318233534167206 $269 $384 forward 7 unknown #
coedge $-1 $264 $169 $174 $279 forward $256 $-1 #
coedge $-1 $169 $264 $258 $375 reversed $256 $-1 #
vertex $-1 $170 $385 #
straight-curve $-1 0 40.318233534167206 11.467816295005292 -1 0 0 I I #
coedge $-1 $171 $259 $173 $278 reversed $100 $-1 #
vertex $-1 $270 $386 #
straight-curve $-1 0 -40.318233534167206 11.467816295005292 1 0 0 I I #
edge $-1 $176 -11.467816295005292 $267 11.467816295005292 $173 $387 forward 7 unknown #
edge $-1 $177 -11.467816295005292 $266 11.467816295005292 $174 $388 forward 7 unknown #
point $-1 71.380352183599356 -40.318233534167206 11.467816295005292 #
point $-1 71.380352183599356 40.318233534167206 11.467816295005292 #
face $-1 $-1 $297 $25 $-1 $389 reversed single #
loop $-1 $-1 $390 $179 #
plane-surface $-1 -71.380352183599356 0 0 1 0 0 0 0 -1 forward_v I I I I #
coedge $-1 $301 $300 $182 $287 forward $180 $-1 #
coedge $-1 $183 $182 $390 $391 reversed $69 $-1 #
edge $-1 $392 -39.458848337118596 $291 -24.384159355842936 $285 $393 forward 7 unknown #
coedge $-1 $296 $295 $183 $289 forward $297 $-1 #
edge $-1 $290 24.384159355842936 $394 39.458848337118596 $288 $395 forward 7 unknown #
vertex $-1 $289 $396 #
vertex $-1 $287 $397 #
straight-curve $-1 -56.3056632023237 0 -2.1360217531616401 0 -1 0 I I #
coedge $-1 $398 $399 $186 $294 forward $283 $-1 #
edge $-1 $302 -40.318233534167206 $298 40.318233534167206 $293 $400 forward 7 unknown #
coedge $-1 $288 $187 $192 $305 forward $297 $-1 #
coedge $-1 $187 $288 $398 $401 reversed $297 $-1 #
loop $-1 $-1 $288 $282 #
vertex $-1 $401 $402 #
straight-curve $-1 -31.921503846480764 40.318233534167206 4.2479754707890267 1 0 0 I I #
coedge $-1 $285 $189 $399 $403 forward $180 $-1 #
coedge $-1 $189 $285 $191 $304 forward $180 $-1 #
vertex $-1 $403 $404 #
straight-curve $-1 -31.921503846480764 -40.318233534167206 4.2479754707890267 -1 0 0 I I #
edge $-1 $291 -2.6640101825684868 $193 3.7199870413821801 $301 $405 forward 7 unknown #
edge $-1 $194 -3.7199870413821801 $290 2.6640101825684868 $295 $406 forward 7 unknown #
point $-1 -56.3056632023237 -40.318233534167206 4.2479754707890267 #
point $-1 -56.3056632023237 40.318233534167206 4.2479754707890267 #
plane-surface $-1 0 40.318233534167206 0 0 -1 0 0 0 -1 forward_v I I I I #
coedge $-1 $312 $407 $201 $315 reversed $197 $-1 #
coedge $-1 $204 $199 $314 $408 forward $116 $-1 #
coedge $-1 $199 $204 $207 $322 forward $116 $-1 #
coedge $-1 $407 $309 $199 $313 reversed $197 $-1 #
edge $-1 $409 -12.243791421418358 $410 -0.81674874307071832 $199 $411 forward 7 unknown #
coedge $-1 $201 $200 $310 $408 reversed $73 $-1 #
edge $-1 $410 66.686623653768436 $317 80.636467068334397 $309 $412 forward 7 unknown #
coedge $-1 $207 $202 $407 $413 forward $208 $-1 #
vertex $-1 $413 $414 #
straight-curve $-1 -19.7430784362476 40.318233534167213 3.4665147185034328 -1 0 0 I I #
vertex $-1 $205 $415 #
straight-curve $-1 -22.666650542666705 28.074442112748848 11.467816295005292 0 1 0 I I #
straight-curve $-1 -22.666650542666705 -25.73529289172069 49.717692735577856 0 -0.81915203911291934 0.57357644374324357 I I #
edge $-1 $209 22.666650542666705 $409 56.3056632023237 $207 $416 forward 7 unknown #
point $-1 -22.666650542666705 40.318233534167206 11.467816295005292 #
point $-1 -22.666650542666705 40.318233534167206 3.46651471850344 #
edge $-1 $417 1 $417 0 $212 $-1 forward 7 unknown #
vertex $-1 $213 $418 #
ellipse-curve $-1 -39.486156872495208 32.034532377435063 3.7965683938397823 0 0.57357644374324357 0.81915203911291934 2 0 0 1 I I #
point $-1 -37.486156872495208 34.604712194993368 7.4671655067543528 #
plane-surface $-1 0 -40.318233534167206 0 0 1 0 0 0 1 forward_v I I I I #
coedge $-1 $340 $339 $332 $419 forward $217 $-1 #
coedge $-1 $332 $219 $221 $336 reversed $131 $-1 #
coedge $-1 $219 $331 $330 $419 reversed $131 $-1 #
coedge $-1 $227 $222 $219 $334 forward $228 $-1 #
edge $-1 $337 -45.552751189554989 $420 -42.149349558752569 $333 $421 forward 7 unknown #
coedge $-1 $221 $220 $340 $422 reversed $82 $-1 #
edge $-1 $423 -4.7312849785588149 $337 0 $331 $424 forward 7 unknown #
vertex $-1 $223 $425 #
straight-curve $-1 -19.794235535804674 -40.318233534167206 8.0644146642028716 1 0 0 I I #
coedge $-1 $330 $224 $227 $344 forward $217 $-1 #
coedge $-1 $224 $330 $335 $422 forward $217 $-1 #
vertex $-1 $225 $426 #
straight-curve $-1 -53.037841276479341 -71.505845643033325 11.467816295005292 0 -1 0 I I #
straight-curve $-1 -53.037841276479341 -40.318233534167206 8.0644146642028716 0 0.69465836192734942 0.71933980857756763 I I #
edge $-1 $229 -53.037841276479341 $420 -26.139100866739359 $227 $427 forward 7 unknown #
point $-1 -53.037841276479341 -40.318233534167206 11.467816295005292 #
point $-1 -53.037841276479341 -40.318233534167206 8.0644146642028716 #
edge $-1 $428 1 $428 0 $232 $-1 forward 7 unknown #
vertex $-1 $233 $429 #
ellipse-curve $-1 -39.588471071609348 -37.955580389081057 9.0714571176767258 0 -0.71933980857756763 0.69465836192734942 0.5 0 0 1 I I #
point $-1 -39.088471071609348 -38.674920197658629 9.7661154796040748 #
loop $-1 $-1 $244 $236 #
plane-surface $-1 0 0 11.467816295005292 0 0 1 1 0 0 forward_v I I I I #
coedge $-1 $354 $239 $241 $358 reversed $146 $-1 #
coedge $-1 $239 $353 $430 $431 reversed $146 $-1 #
coedge $-1 $247 $242 $239 $356 forward $237 $-1 #
edge $-1 $359 -45.552751189554989 $432 -42.149349558752569 $355 $433 forward 7 unknown #
coedge $-1 $241 $240 $362 $434 reversed $91 $-1 #
edge $-1 $435 -4.7312849785588149 $359 0 $353 $436 forward 7 unknown #
vertex $-1 $243 $437 #
straight-curve $-1 27.331580026442502 -40.318233534167206 8.0644146642028716 1 0 0 I I #
coedge $-1 $430 $244 $247 $366 forward $351 $-1 #
coedge $-1 $244 $430 $357 $434 forward $351 $-1 #
vertex $-1 $245 $438 #
straight-curve $-1 41.213789848015011 -71.505845643033325 11.467816295005292 0 -1 0 I I #
straight-curve $-1 41.213789848015011 -40.318233534167206 8.0644146642028716 0 0.69465836192734942 0.71933980857756763 I I #
edge $-1 $248 41.213789848015011 $432 68.112530257754997 $247 $439 forward 7 unknown #
point $-1 41.213789848015011 -40.318233534167206 11.467816295005292 #
point $-1 41.213789848015011 -40.318233534167206 8.0644146642028716 #
edge $-1 $440 1 $440 0 $251 $-1 forward 7 unknown #
vertex $-1 $252 $441 #
ellipse-curve $-1 54.663160052885004 -37.955580389081057 9.0714571176767258 0 -0.71933980857756763 0.69465836192734942 0.5 0 0 1 I I #
point $-1 55.163160052885004 -38.674920197658629 9.7661154796040748 #
plane-surface $-1 71.380352183599356 0 0 -1 0 0 0 0 1 forward_v I I I I #
coedge $-1 $260 $258 $262 $378 reversed $161 $-1 #
edge $-1 $273 -11.467816295005292 $380 11.467816295005292 $272 $442 forward 7 unknown #
vertex $-1 $378 $443 #
straight-curve $-1 -71.380352183599356 -40.318233534167206 0 0 0 -1 I I #
edge $-1 $376 -40.318233534167206 $380 40.318233534167206 $374 $444 forward 7 unknown #
straight-curve $-1 0 -40.318233534167206 -11.467816295005292 -1 0 0 I I #
vertex $-1 $265 $445 #
straight-curve $-1 0 40.318233534167206 -11.467816295005292 1 0 0 I I #
point $-1 71.380352183599356 40.318233534167206 -11.467816295005292 #
point $-1 71.380352183599356 -40.318233534167206 -11.467816295005292 #
straight-curve $-1 -71.380352183599356 0 11.467816295005292 0 -1 0 I I #
point $-1 -71.380352183599356 40.318233534167206 11.467816295005292 #
point $-1 -71.380352183599356 -40.318233534167206 11.467816295005292 #
straight-curve $-1 71.380352183599356 -40.318233534167206 0 0 0 -1 I I #
straight-curve $-1 71.380352183599356 40.318233534167206 0 0 0 -1 I I #
plane-surface $-1 0 40.318233534167206 0 0 -1 0 0 0 -1 forward_v I I I I #
coedge $-1 $399 $398 $286 $391 forward $283 $-1 #
edge $-1 $394 -40.318233534167206 $392 40.318233534167206 $390 $446 forward 7 unknown #
vertex $-1 $287 $447 #
straight-curve $-1 -31.921503846480764 -40.318233534167206 -2.1360217531616401 1 0 0 I I #
vertex $-1 $289 $448 #
straight-curve $-1 -31.921503846480764 40.318233534167206 -2.1360217531616401 -1 0 0 I I #
point $-1 -56.3056632023237 40.318233534167206 -2.1360217531616401 #
point $-1 -56.3056632023237 -40.318233534167206 -2.1360217531616401 #
coedge $-1 $390 $293 $296 $401 forward $283 $-1 #
coedge $-1 $293 $390 $300 $403 reversed $283 $-1 #
straight-curve $-1 -71.380352183599356 0 4.2479754707890267 0 1 0 I I #
edge $-1 $298 -4.2479754707890267 $394 2.1360217531616401 $296 $449 forward 7 unknown #
point $-1 -71.380352183599356 40.318233534167206 4.2479754707890267 #
edge $-1 $302 -4.2479754707890267 $392 2.1360217531616401 $399 $450 forward 7 unknown #
point $-1 -71.380352183599356 -40.318233534167206 4.2479754707890267 #
straight-curve $-1 -56.3056632023237 -40.318233534167206 0.52798842940684665 0 0 1 I I #
straight-curve $-1 -56.3056632023237 40.318233534167206 0.52798842940684665 0 0 -1 I I #
coedge $-1 $309 $312 $316 $413 reversed $197 $-1 #
edge $-1 $410 -36.5625847660761 $319 -2.9235721064191047 $310 $451 forward 7 unknown #
vertex $-1 $413 $452 #
vertex $-1 $408 $453 #
straight-curve $-1 -56.3056632023237 28.074442112748848 11.467816295005292 0 -1 0 I I #
straight-curve $-1 -56.3056632023237 -25.73529289172069 49.717692735577856 0 0.81915203911291934 -0.57357644374324357 I I #
edge $-1 $317 -79.86369269307923 $409 -71.862391116577371 $316 $454 forward 7 unknown #
point $-1 -56.3056632023237 40.318233534167206 3.4665147185034351 #
point $-1 -22.666650542666705 28.891190855819566 11.467816295005292 #
straight-curve $-1 0 40.318233534167206 11.467816295005292 -1 0 0 I I #
vertex $-1 $325 $455 #
point $-1 -37.486156872495208 32.034532377435063 3.7965683938397823 #
edge $-1 $420 31.187612108866119 $423 34.474238781883258 $330 $456 forward 7 unknown #
vertex $-1 $334 $457 #
straight-curve $-1 -26.139100866739359 -40.318233534167206 53.617165853757861 0 0 1 I I #
edge $-1 $423 6.3448653309346845 $341 33.243605740674667 $340 $458 forward 7 unknown #
vertex $-1 $422 $459 #
straight-curve $-1 -26.139100866739359 -40.318233534167206 8.0644146642028716 0 -0.69465836192734942 -0.71933980857756763 I I #
point $-1 -26.139100866739359 -40.318233534167206 8.0644146642028716 #
point $-1 -53.037841276479341 -37.031606861150067 11.467816295005292 #
straight-curve $-1 0 -40.318233534167206 11.467816295005292 1 0 0 I I #
vertex $-1 $347 $460 #
point $-1 -39.088471071609348 -37.955580389081057 9.0714571176767258 #
coedge $-1 $362 $361 $354 $431 forward $351 $-1 #
edge $-1 $432 31.187612108866119 $435 34.474238781883258 $430 $461 forward 7 unknown #
vertex $-1 $431 $462 #
straight-curve $-1 68.112530257754997 -40.318233534167206 53.617165853757861 0 0 1 I I #
edge $-1 $435 -40.780950231312495 $363 -13.882209821572509 $362 $463 forward 7 unknown #
vertex $-1 $434 $464 #
straight-curve $-1 68.112530257754997 -40.318233534167206 8.0644146642028716 0 -0.69465836192734942 -0.71933980857756763 I I #
point $-1 68.112530257754997 -40.318233534167206 8.0644146642028716 #
point $-1 41.213789848015011 -37.031606861150067 11.467816295005292 #
straight-curve $-1 0 -40.318233534167206 11.467816295005292 1 0 0 I I #
vertex $-1 $369 $465 #
point $-1 55.163160052885004 -37.955580389081057 9.0714571176767258 #
straight-curve $-1 -71.380352183599356 40.318233534167206 0 0 0 -1 I I #
point $-1 -71.380352183599356 -40.318233534167206 -11.467816295005292 #
straight-curve $-1 -71.380352183599356 0 -11.467816295005292 0 1 0 I I #
point $-1 -71.380352183599356 40.318233534167206 -11.467816295005292 #
straight-curve $-1 -71.380352183599356 0 -2.1360217531616401 0 -1 0 I I #
point $-1 -71.380352183599356 -40.318233534167206 -2.1360217531616401 #
point $-1 -71.380352183599356 40.318233534167206 -2.1360217531616401 #
straight-curve $-1 -71.380352183599356 40.318233534167206 0 0 0 -1 I I #
straight-curve $-1 -71.380352183599356 -40.318233534167206 0 0 0 -1 I I #
straight-curve $-1 -19.7430784362476 28.891190855819552 11.467816295005292 1 0 0 I I #
point $-1 -56.3056632023237 40.318233534167206 11.467816295005292 #
point $-1 -56.3056632023237 28.891190855819566 11.467816295005292 #
straight-curve $-1 -56.3056632023237 40.318233534167206 83.330207411582663 0 0 1 I I #
point $-1 -39.486156872495208 30.887379489948579 2.1582643156139434 #
straight-curve $-1 -26.139100866739359 -71.505845643033325 11.467816295005292 0 1 0 I I #
point $-1 -26.139100866739359 -40.318233534167206 11.467816295005292 #
straight-curve $-1 -19.794235535804674 -37.03160686115006 11.467816295005294 -1 0 0 I I #
point $-1 -26.139100866739359 -37.031606861150067 11.467816295005292 #
point $-1 -39.588471071609348 -37.595910484792277 8.7241279367130495 #
straight-curve $-1 68.112530257754997 -71.505845643033325 11.467816295005292 0 1 0 I I #
point $-1 68.112530257754997 -40.318233534167206 11.467816295005292 #
straight-curve $-1 27.331580026442502 -37.03160686115006 11.467816295005294 -1 0 0 I I #
point $-1 68.112530257754997 -37.031606861150067 11.467816295005292 #
point $-1 54.663160052885004 -37.595910484792277 8.7241279367130495 #
End-of-ACIS-data 