500 0 9 0           
7 Unknown 11 ACIS 5.0 NT 24 Thu Mar 25 20:12:21 1999 
-1 9.9999999999999995e-007 1e-010 
body $-1 $9 $-1 $10 #
body $-1 $11 $-1 $12 #
body $-1 $13 $-1 $14 #
body $-1 $15 $-1 $16 #
body $-1 $17 $-1 $18 #
body $-1 $19 $-1 $20 #
body $-1 $21 $-1 $22 #
body $-1 $23 $-1 $24 #
body $-1 $25 $-1 $26 #
lump $-1 $-1 $27 $0 #
transform $-1 1 0 0 0 1 0 0 0 1 50.751060518204291 22.174838509449472 4.5376972922013188 1 rotate no_reflect no_shear #
lump $-1 $-1 $28 $1 #
transform $-1 1 0 0 0 1 0 0 0 1 50.751060518204291 22.174838509449472 4.5376972922013188 1 rotate no_reflect no_shear #
lump $-1 $-1 $29 $2 #
transform $-1 1 0 0 0 1 0 0 0 1 50.751060518204291 22.174838509449472 4.5376972922013188 1 rotate no_reflect no_shear #
lump $-1 $-1 $30 $3 #
transform $-1 1 0 0 0 1 0 0 0 1 50.751060518204291 22.174838509449472 4.5376972922013188 1 rotate no_reflect no_shear #
lump $-1 $-1 $31 $4 #
transform $-1 1 0 0 0 1 0 0 0 1 50.751060518204291 22.174838509449472 4.5376972922013188 1 rotate no_reflect no_shear #
lump $-1 $-1 $32 $5 #
transform $-1 1 0 0 0 1 0 0 0 1 50.751060518204291 22.174838509449472 4.5376972922013188 1 rotate no_reflect no_shear #
lump $-1 $-1 $33 $6 #
transform $-1 1 0 0 0 1 0 0 0 1 50.751060518204291 22.174838509449472 4.5376972922013188 1 rotate no_reflect no_shear #
lump $-1 $-1 $34 $7 #
transform $-1 1 0 0 0 1 0 0 0 1 50.751060518204291 22.174838509449472 4.5376972922013188 1 rotate no_reflect no_shear #
lump $-1 $-1 $35 $8 #
transform $-1 1 0 0 0 1 0 0 0 1 50.751060518204291 22.174838509449472 4.5376972922013188 1 rotate no_reflect no_shear #
shell $-1 $-1 $-1 $36 $-1 $9 #
shell $-1 $-1 $-1 $37 $-1 $11 #
shell $-1 $-1 $-1 $38 $-1 $13 #
shell $-1 $-1 $-1 $39 $-1 $15 #
shell $-1 $-1 $-1 $40 $-1 $17 #
shell $-1 $-1 $-1 $41 $-1 $19 #
shell $-1 $-1 $-1 $42 $-1 $21 #
shell $-1 $-1 $-1 $43 $-1 $23 #
shell $-1 $-1 $-1 $44 $-1 $25 #
face $-1 $45 $46 $27 $-1 $47 forward single #
face $-1 $48 $49 $28 $-1 $50 forward single #
face $-1 $51 $52 $29 $-1 $53 reversed single #
face $-1 $54 $55 $30 $-1 $56 reversed single #
face $-1 $57 $58 $31 $-1 $59 forward single #
face $-1 $60 $61 $32 $-1 $62 forward single #
face $-1 $63 $64 $33 $-1 $65 forward single #
face $-1 $66 $67 $34 $-1 $68 reversed single #
face $-1 $69 $70 $35 $-1 $71 forward single #
face $-1 $72 $73 $27 $-1 $74 reversed single #
loop $-1 $-1 $75 $36 #
plane-surface $-1 0 0 4.5376972922013188 0 0 1 1 0 0 forward_v I I I I #
face $-1 $76 $77 $28 $-1 $78 reversed single #
loop $-1 $-1 $79 $37 #
plane-surface $-1 -48.567394616370912 0 -1.5376972922013188 0 0 1 1 0 0 forward_v I I I I #
face $-1 $80 $81 $29 $-1 $82 reversed single #
loop $-1 $-1 $83 $38 #
plane-surface $-1 48.844105937041469 -16.099443925046835 0 0 1 0 0 0 1 forward_v I I I I #
face $-1 $84 $85 $30 $-1 $86 reversed single #
loop $-1 $-1 $87 $39 #
plane-surface $-1 34.166371048747891 69.683456891675618 101.04682810466717 1 0 0 0 -0.75470958851134928 -0.65605901945558964 forward_v I I I I #
face $-1 $88 $89 $31 $-1 $90 forward single #
loop $-1 $91 $92 $40 #
cone-surface $-1 36.720527110174054 19.462587022770091 1.7458558773859247 0 -0.75470958851134928 -0.65605901945558964 1 0 0 1 I I 0 1 1 forward I I I I #
face $-1 $93 $94 $32 $-1 $95 forward single #
loop $-1 $96 $97 $41 #
cone-surface $-1 40.55176120231328 19.462587022770091 1.7458558773859247 0 -0.75470958851134928 -0.65605901945558964 1 0 0 1 I I 0 1 1 forward I I I I #
face $-1 $98 $99 $33 $-1 $100 forward single #
loop $-1 $101 $102 $42 #
cone-surface $-1 44.382995294452506 19.462587022770091 1.7458558773859247 0 -0.75470958851134928 -0.65605901945558964 1 0 0 1 I I 0 1 1 forward I I I I #
face $-1 $103 $104 $34 $-1 $105 reversed single #
loop $-1 $-1 $106 $43 #
plane-surface $-1 5.5135610131960995 -90.093015122095252 76.066418154694261 -1 0 0 0 -0.66913061440640931 0.74314481823134659 forward_v I I I I #
face $-1 $107 $108 $35 $-1 $109 forward single #
loop $-1 $110 $111 $44 #
cone-surface $-1 -7.5549791746488424 -18.872674474388141 1.3257596853973419 0 0.66913061440640931 -0.74314481823134659 1 0 0 1 I I 0 1 1 forward I I I I #
face $-1 $112 $113 $27 $-1 $114 reversed single #
loop $-1 $-1 $115 $45 #
plane-surface $-1 0 0 -4.5376972922013188 0 0 1 1 0 0 forward_v I I I I #
coedge $-1 $116 $117 $118 $119 forward $46 $-1 #
face $-1 $120 $121 $28 $-1 $122 reversed single #
loop $-1 $-1 $123 $48 #
plane-surface $-1 -46.383728714537533 0 -3.0376972922013188 -1 0 0 0 0 1 forward_v I I I I #
coedge $-1 $124 $125 $126 $127 forward $49 $-1 #
face $-1 $128 $129 $29 $-1 $130 reversed single #
loop $-1 $-1 $131 $51 #
plane-surface $-1 46.937151355878648 -14.599443925046835 0 1 0 0 0 0 -1 forward_v I I I I #
coedge $-1 $132 $133 $134 $135 forward $52 $-1 #
face $-1 $136 $137 $30 $-1 $138 reversed single #
loop $-1 $-1 $139 $54 #
plane-surface $-1 40.551761202313266 -6.9211671087414572 34.455446104858382 0 0.75470958851134928 0.65605901945558964 1 0 0 forward_v I I I I #
coedge $-1 $140 $141 $142 $143 reversed $55 $-1 #
face $-1 $-1 $144 $31 $-1 $145 forward single #
loop $-1 $146 $147 $57 #
cone-surface $-1 36.720527110174054 17.917432748650455 0.40267379328643571 0 -0.75470958851134928 -0.65605901945558964 0.5 0 0 1 I I -0.70710678118654746 0.70710678118654746 0.5 forward I I I I #
loop $-1 $-1 $148 $40 #
coedge $-1 $92 $92 $149 $150 reversed $58 $-1 #
face $-1 $-1 $151 $32 $-1 $152 forward single #
loop $-1 $153 $154 $60 #
cone-surface $-1 40.55176120231328 17.917432748650455 0.40267379328643571 0 -0.75470958851134928 -0.65605901945558964 0.5 0 0 1 I I -0.70710678118654746 0.70710678118654746 0.5 forward I I I I #
loop $-1 $-1 $155 $41 #
coedge $-1 $97 $97 $156 $157 reversed $61 $-1 #
face $-1 $-1 $158 $33 $-1 $159 forward single #
loop $-1 $160 $161 $63 #
cone-surface $-1 44.382995294452506 17.917432748650455 0.40267379328643571 0 -0.75470958851134928 -0.65605901945558964 0.5 0 0 1 I I -0.70710678118654746 0.70710678118654746 0.5 forward I I I I #
loop $-1 $-1 $162 $42 #
coedge $-1 $102 $102 $163 $164 reversed $64 $-1 #
face $-1 $165 $166 $34 $-1 $167 reversed single #
loop $-1 $-1 $168 $66 #
plane-surface $-1 -7.5549791746488424 -22.174838509449458 0.63564286699626393 0 -0.66913061440640931 0.74314481823134659 1 0 0 forward_v I I I I #
coedge $-1 $169 $170 $171 $172 reversed $67 $-1 #
face $-1 $-1 $173 $35 $-1 $174 forward single #
loop $-1 $175 $176 $69 #
cone-surface $-1 -7.5549791746488424 -17.40278032402426 -0.30672311791978579 0 0.66913061440640931 -0.74314481823134659 0.5 0 0 1 I I -0.70710678118654768 0.70710678118654735 0.5 forward I I I I #
loop $-1 $-1 $177 $44 #
coedge $-1 $111 $111 $178 $179 reversed $70 $-1 #
face $-1 $180 $181 $27 $-1 $182 reversed single #
loop $-1 $-1 $183 $72 #
plane-surface $-1 0 -22.174838509449472 0 0 1 0 0 0 1 forward_v I I I I #
coedge $-1 $184 $185 $186 $187 forward $73 $-1 #
coedge $-1 $188 $75 $189 $190 forward $46 $-1 #
coedge $-1 $75 $188 $191 $192 forward $46 $-1 #
coedge $-1 $193 $194 $75 $119 reversed $195 $-1 #
edge $-1 $196 -22.174838509449472 $197 22.174838509449472 $118 $198 forward 7 unknown #
face $-1 $199 $200 $28 $-1 $201 reversed single #
loop $-1 $-1 $202 $76 #
plane-surface $-1 0 0 -4.5376972922013188 0 0 1 1 0 0 forward_v I I I I #
coedge $-1 $203 $126 $204 $205 reversed $77 $-1 #
coedge $-1 $206 $79 $207 $208 reversed $49 $-1 #
coedge $-1 $79 $206 $209 $210 reversed $49 $-1 #
coedge $-1 $123 $211 $79 $127 reversed $77 $-1 #
edge $-1 $212 -22.174838509449472 $213 22.174838509449472 $126 $214 forward 7 unknown #
face $-1 $215 $216 $29 $-1 $217 reversed single #
loop $-1 $-1 $218 $80 #
plane-surface $-1 48.844105937041469 -13.099443925046835 0 0 -1 0 0 0 -1 forward_v I I I I #
coedge $-1 $219 $220 $221 $222 forward $81 $-1 #
coedge $-1 $223 $83 $224 $225 reversed $52 $-1 #
coedge $-1 $83 $223 $226 $227 reversed $52 $-1 #
coedge $-1 $220 $219 $83 $135 reversed $81 $-1 #
edge $-1 $228 -4.5376972922013188 $229 4.5376972922013188 $134 $230 forward 7 unknown #
face $-1 $231 $232 $30 $-1 $233 reversed single #
loop $-1 $-1 $234 $84 #
plane-surface $-1 46.93715135587864 69.683456891675618 101.04682810466717 -1 0 0 0 0.75470958851134928 0.65605901945558964 forward_v I I I I #
coedge $-1 $235 $236 $237 $238 reversed $85 $-1 #
coedge $-1 $141 $87 $239 $240 reversed $55 $-1 #
coedge $-1 $87 $140 $235 $241 reversed $55 $-1 #
coedge $-1 $237 $242 $87 $143 forward $243 $-1 #
edge $-1 $244 12.666889936388337 $245 15.75579395001914 $142 $246 forward 7 unknown #
loop $-1 $-1 $149 $88 #
plane-surface $-1 40.551761202313266 -6.9211671087414572 34.455446104858382 0 0.75470958851134928 0.65605901945558964 1 0 0 forward_v I I I I #
loop $-1 $-1 $247 $57 #
coedge $-1 $147 $147 $148 $248 reversed $89 $-1 #
coedge $-1 $148 $148 $147 $248 forward $91 $-1 #
coedge $-1 $149 $149 $92 $150 forward $144 $-1 #
edge $-1 $249 1.3712712218682428e-015 $249 6.2831853071796022 $149 $250 forward 7 unknown #
loop $-1 $-1 $156 $93 #
plane-surface $-1 40.551761202313266 -6.9211671087414572 34.455446104858382 0 0.75470958851134928 0.65605901945558964 1 0 0 forward_v I I I I #
loop $-1 $-1 $251 $60 #
coedge $-1 $154 $154 $155 $252 reversed $94 $-1 #
coedge $-1 $155 $155 $154 $252 forward $96 $-1 #
coedge $-1 $156 $156 $97 $157 forward $151 $-1 #
edge $-1 $253 1.3712712218682428e-015 $253 6.2831853071796022 $156 $254 forward 7 unknown #
loop $-1 $-1 $163 $98 #
plane-surface $-1 40.551761202313266 -6.9211671087414572 34.455446104858382 0 0.75470958851134928 0.65605901945558964 1 0 0 forward_v I I I I #
loop $-1 $-1 $255 $63 #
coedge $-1 $161 $161 $162 $256 reversed $99 $-1 #
coedge $-1 $162 $162 $161 $256 forward $101 $-1 #
coedge $-1 $163 $163 $102 $164 forward $158 $-1 #
edge $-1 $257 1.3712712218682428e-015 $257 6.2831853071796022 $163 $258 forward 7 unknown #
face $-1 $259 $260 $34 $-1 $261 forward single #
loop $-1 $-1 $262 $103 #
plane-surface $-1 -20.623519362493784 -90.093015122095252 76.066418154694261 1 0 0 0 0.66913061440640931 -0.74314481823134659 forward_v I I I I #
coedge $-1 $263 $264 $265 $266 reversed $104 $-1 #
coedge $-1 $170 $106 $267 $268 reversed $67 $-1 #
coedge $-1 $106 $169 $263 $269 reversed $67 $-1 #
coedge $-1 $265 $270 $106 $172 forward $260 $-1 #
edge $-1 $271 22.871669051598154 $272 27.20533943539948 $171 $273 forward 7 unknown #
loop $-1 $-1 $178 $107 #
plane-surface $-1 -7.5549791746488424 -22.174838509449458 0.63564286699626393 0 -0.66913061440640931 0.74314481823134659 1 0 0 forward_v I I I I #
loop $-1 $-1 $274 $69 #
coedge $-1 $176 $176 $177 $275 reversed $108 $-1 #
coedge $-1 $177 $177 $176 $275 forward $110 $-1 #
coedge $-1 $178 $178 $111 $179 forward $173 $-1 #
edge $-1 $276 -4.9170013722491923e-016 $276 6.2831853071795996 $178 $277 forward 7 unknown #
face $-1 $278 $279 $27 $-1 $280 reversed single #
loop $-1 $-1 $281 $112 #
plane-surface $-1 -50.751060518204291 0 0 1 0 0 0 0 -1 forward_v I I I I #
coedge $-1 $282 $191 $283 $284 forward $113 $-1 #
coedge $-1 $285 $115 $282 $286 forward $73 $-1 #
coedge $-1 $115 $285 $287 $288 forward $73 $-1 #
coedge $-1 $194 $193 $115 $187 reversed $195 $-1 #
edge $-1 $289 -22.174838509449472 $290 22.174838509449472 $186 $291 forward 7 unknown #
coedge $-1 $117 $116 $292 $293 forward $46 $-1 #
coedge $-1 $294 $295 $116 $190 reversed $279 $-1 #
edge $-1 $197 -50.751060518204291 $296 50.751060518204291 $189 $297 forward 7 unknown #
coedge $-1 $183 $298 $117 $192 reversed $113 $-1 #
edge $-1 $299 -50.751060518204291 $196 50.751060518204291 $191 $300 forward 7 unknown #
coedge $-1 $186 $118 $298 $301 forward $195 $-1 #
coedge $-1 $118 $186 $294 $302 reversed $195 $-1 #
loop $-1 $-1 $193 $278 #
vertex $-1 $119 $303 #
vertex $-1 $119 $304 #
straight-curve $-1 50.751060518204291 0 4.5376972922013188 0 1 0 I I #
face $-1 $305 $306 $28 $-1 $307 reversed single #
loop $-1 $-1 $204 $120 #
plane-surface $-1 0 -22.174838509449472 0 0 1 0 0 0 1 forward_v I I I I #
coedge $-1 $308 $309 $203 $310 forward $121 $-1 #
coedge $-1 $211 $123 $202 $310 reversed $77 $-1 #
coedge $-1 $209 $311 $123 $205 forward $200 $-1 #
edge $-1 $312 -3.0188486461006594 $212 -0.018848646100659394 $204 $313 forward 7 unknown #
coedge $-1 $125 $124 $314 $315 reversed $49 $-1 #
coedge $-1 $316 $317 $124 $208 forward $318 $-1 #
edge $-1 $319 -26.467363210018835 $213 -22.100031406352077 $207 $320 forward 7 unknown #
coedge $-1 $321 $204 $125 $210 forward $200 $-1 #
edge $-1 $212 22.100031406352077 $322 26.467363210018835 $209 $323 forward 7 unknown #
coedge $-1 $126 $203 $316 $324 reversed $77 $-1 #
vertex $-1 $210 $325 #
vertex $-1 $208 $326 #
straight-curve $-1 -46.383728714537533 0 -1.5376972922013188 0 1 0 I I #
face $-1 $327 $328 $29 $-1 $329 forward single #
loop $-1 $-1 $224 $128 #
plane-surface $-1 0 0 -4.5376972922013188 0 0 1 1 0 0 forward_v I I I I #
coedge $-1 $330 $331 $332 $333 reversed $129 $-1 #
coedge $-1 $134 $131 $334 $335 reversed $81 $-1 #
coedge $-1 $131 $134 $336 $337 reversed $81 $-1 #
coedge $-1 $331 $330 $131 $222 reversed $129 $-1 #
edge $-1 $338 -4.5376972922013188 $339 4.5376972922013188 $221 $340 forward 7 unknown #
coedge $-1 $133 $132 $341 $342 reversed $52 $-1 #
coedge $-1 $334 $343 $132 $225 forward $216 $-1 #
edge $-1 $344 -26.329007549683556 $229 -22.515098387357913 $224 $345 forward 7 unknown #
coedge $-1 $346 $336 $133 $227 forward $328 $-1 #
edge $-1 $228 22.515098387357913 $347 26.329007549683556 $226 $348 forward 7 unknown #
vertex $-1 $227 $349 #
vertex $-1 $225 $350 #
straight-curve $-1 46.937151355878648 -16.099443925046835 0 0 0 -1 I I #
face $-1 $-1 $243 $30 $-1 $351 forward single #
loop $-1 $-1 $352 $136 #
plane-surface $-1 0 22.174838509449472 0 0 -1 0 0 0 -1 forward_v I I I I #
coedge $-1 $353 $354 $355 $356 reversed $137 $-1 #
coedge $-1 $357 $139 $141 $241 forward $85 $-1 #
coedge $-1 $139 $357 $353 $358 forward $85 $-1 #
coedge $-1 $355 $142 $139 $238 forward $243 $-1 #
edge $-1 $245 13.890490447591258 $359 26.661270754722008 $237 $360 forward 7 unknown #
coedge $-1 $361 $362 $140 $240 forward $232 $-1 #
edge $-1 $363 -49.539094441019657 $244 -45.985716760132263 $239 $364 forward 7 unknown #
edge $-1 $245 39.641405473155942 $363 44.349677018898937 $141 $365 forward 7 unknown #
coedge $-1 $142 $355 $361 $366 forward $243 $-1 #
loop $-1 $-1 $355 $231 #
vertex $-1 $240 $367 #
vertex $-1 $143 $368 #
straight-curve $-1 34.166371048747891 34.841728445837809 4.5376972922013152 0 -1 0 I I #
coedge $-1 $247 $247 $-1 $369 reversed $146 $-1 #
edge $-1 $370 0 $370 6.2831853071796004 $147 $371 forward 7 unknown #
vertex $-1 $150 $372 #
ellipse-curve $-1 36.720527110174054 20.63038650263406 2.7610084517576272 0 0.75470958851134928 0.65605901945558964 1 0 0 1 I I #
coedge $-1 $251 $251 $-1 $373 reversed $153 $-1 #
edge $-1 $374 0 $374 6.2831853071796004 $154 $375 forward 7 unknown #
vertex $-1 $157 $376 #
ellipse-curve $-1 40.55176120231328 20.63038650263406 2.7610084517576272 0 0.75470958851134928 0.65605901945558964 1 0 0 1 I I #
coedge $-1 $255 $255 $-1 $377 reversed $160 $-1 #
edge $-1 $378 0 $378 6.2831853071796004 $161 $379 forward 7 unknown #
vertex $-1 $164 $380 #
ellipse-curve $-1 44.382995294452506 20.63038650263406 2.7610084517576272 0 0.75470958851134928 0.65605901945558964 1 0 0 1 I I #
face $-1 $-1 $381 $34 $-1 $382 reversed single #
loop $-1 $-1 $171 $165 #
plane-surface $-1 0 0 4.5376972922013188 0 0 1 1 0 0 forward_v I I I I #
coedge $-1 $383 $384 $385 $386 reversed $166 $-1 #
coedge $-1 $387 $168 $170 $269 forward $104 $-1 #
coedge $-1 $168 $387 $383 $388 forward $104 $-1 #
coedge $-1 $385 $171 $168 $266 forward $260 $-1 #
edge $-1 $272 -9.2910506005205207 $389 16.846029775169363 $265 $390 forward 7 unknown #
coedge $-1 $391 $392 $169 $268 forward $381 $-1 #
edge $-1 $393 -37.397566210350881 $271 -33.495511785145808 $267 $394 forward 7 unknown #
edge $-1 $272 -5.8315287646293026 $393 1.9103891512089958e-014 $170 $395 forward 7 unknown #
coedge $-1 $171 $385 $391 $396 forward $260 $-1 #
vertex $-1 $172 $397 #
vertex $-1 $172 $398 #
straight-curve $-1 5.5135610131960995 -45.046507561047626 4.5376972922013152 0 1 0 I I #
coedge $-1 $274 $274 $-1 $399 reversed $175 $-1 #
edge $-1 $400 0 $400 6.2831853071796004 $176 $401 forward 7 unknown #
vertex $-1 $179 $402 #
ellipse-curve $-1 -7.5549791746488424 -20.008003317548809 2.5866700795987851 0 -0.66913061440640931 0.74314481823134659 1 0 0 1 I I #
face $-1 $-1 $195 $27 $-1 $403 reversed single #
loop $-1 $-1 $294 $180 #
plane-surface $-1 0 22.174838509449472 0 0 -1 0 0 0 -1 forward_v I I I I #
coedge $-1 $404 $292 $295 $405 forward $181 $-1 #
coedge $-1 $298 $183 $184 $286 reversed $113 $-1 #
coedge $-1 $292 $404 $183 $284 reversed $181 $-1 #
edge $-1 $299 -4.5376972922013188 $406 4.5376972922013188 $283 $407 forward 7 unknown #
coedge $-1 $185 $184 $404 $408 forward $73 $-1 #
edge $-1 $290 -50.751060518204291 $406 50.751060518204291 $282 $409 forward 7 unknown #
coedge $-1 $295 $294 $185 $288 reversed $279 $-1 #
edge $-1 $410 -50.751060518204291 $289 50.751060518204291 $287 $411 forward 7 unknown #
vertex $-1 $187 $412 #
vertex $-1 $301 $413 #
straight-curve $-1 50.751060518204291 0 -4.5376972922013188 0 -1 0 I I #
coedge $-1 $281 $283 $188 $293 reversed $181 $-1 #
edge $-1 $296 -22.174838509449472 $299 22.174838509449472 $292 $414 forward 7 unknown #
coedge $-1 $287 $189 $194 $302 forward $279 $-1 #
coedge $-1 $189 $287 $281 $405 reversed $279 $-1 #
vertex $-1 $190 $415 #
straight-curve $-1 0 22.174838509449472 4.5376972922013188 -1 0 0 I I #
coedge $-1 $191 $282 $193 $301 reversed $113 $-1 #
vertex $-1 $293 $416 #
straight-curve $-1 0 -22.174838509449472 4.5376972922013188 1 0 0 I I #
edge $-1 $196 -4.5376972922013188 $290 4.5376972922013188 $193 $417 forward 7 unknown #
edge $-1 $197 -4.5376972922013188 $289 4.5376972922013188 $194 $418 forward 7 unknown #
point $-1 50.751060518204291 -22.174838509449472 4.5376972922013188 #
point $-1 50.751060518204291 22.174838509449472 4.5376972922013188 #
face $-1 $-1 $318 $28 $-1 $419 reversed single #
loop $-1 $-1 $314 $199 #
plane-surface $-1 -50.751060518204291 0 0 1 0 0 0 0 -1 forward_v I I I I #
coedge $-1 $420 $202 $311 $421 forward $121 $-1 #
coedge $-1 $202 $420 $422 $423 forward $121 $-1 #
edge $-1 $424 -22.174838509449472 $312 22.174838509449472 $202 $425 forward 7 unknown #
coedge $-1 $204 $321 $308 $421 reversed $200 $-1 #
vertex $-1 $421 $426 #
straight-curve $-1 -46.383728714537533 -22.174838509449472 -1.5188486461006594 0 0 1 I I #
coedge $-1 $427 $428 $206 $315 forward $306 $-1 #
edge $-1 $322 -22.174838509449472 $319 22.174838509449472 $314 $429 forward 7 unknown #
coedge $-1 $422 $207 $211 $324 forward $318 $-1 #
coedge $-1 $207 $422 $427 $430 reversed $318 $-1 #
loop $-1 $-1 $316 $305 #
vertex $-1 $430 $431 #
straight-curve $-1 -24.283697308185456 22.174838509449472 -1.5376972922013188 1 0 0 I I #
coedge $-1 $311 $209 $428 $432 forward $200 $-1 #
vertex $-1 $432 $433 #
straight-curve $-1 -24.283697308185456 -22.174838509449472 -1.5376972922013188 -1 0 0 I I #
edge $-1 $213 0.018848646100659394 $424 3.0188486461006594 $316 $434 forward 7 unknown #
point $-1 -46.383728714537533 -22.174838509449472 -1.5376972922013188 #
point $-1 -46.383728714537533 22.174838509449472 -1.5376972922013188 #
face $-1 $-1 $435 $29 $-1 $436 reversed single #
loop $-1 $-1 $437 $215 #
plane-surface $-1 0 0 4.5376972922013188 0 0 1 1 0 0 forward_v I I I I #
coedge $-1 $221 $218 $438 $439 reversed $129 $-1 #
coedge $-1 $218 $221 $437 $440 reversed $129 $-1 #
coedge $-1 $441 $442 $218 $333 forward $435 $-1 #
edge $-1 $443 -4.5376972922013188 $444 4.5376972922013188 $332 $445 forward 7 unknown #
coedge $-1 $438 $224 $219 $335 forward $216 $-1 #
edge $-1 $229 -8.7997219625234173 $339 -5.7997219625234173 $334 $446 forward 7 unknown #
coedge $-1 $226 $437 $220 $337 forward $328 $-1 #
edge $-1 $338 5.7997219625234173 $228 8.7997219625234173 $336 $447 forward 7 unknown #
vertex $-1 $337 $448 #
vertex $-1 $335 $449 #
straight-curve $-1 46.937151355878648 -13.099443925046835 0 0 0 -1 I I #
coedge $-1 $442 $441 $223 $342 forward $435 $-1 #
edge $-1 $347 -4.5376972922013188 $344 4.5376972922013188 $341 $450 forward 7 unknown #
coedge $-1 $224 $438 $442 $451 forward $216 $-1 #
vertex $-1 $342 $452 #
straight-curve $-1 24.422052968520735 -16.099443925046835 -4.5376972922013188 -1 0 0 I I #
coedge $-1 $437 $226 $441 $453 forward $328 $-1 #
vertex $-1 $453 $454 #
straight-curve $-1 24.422052968520735 -16.099443925046835 4.5376972922013188 1 0 0 I I #
point $-1 46.937151355878648 -16.099443925046835 4.5376972922013188 #
point $-1 46.937151355878648 -16.099443925046835 -4.5376972922013188 #
plane-surface $-1 0 0 4.5376972922013188 0 0 1 1 0 0 forward_v I I I I #
coedge $-1 $362 $361 $354 $455 forward $232 $-1 #
coedge $-1 $354 $234 $236 $358 reversed $137 $-1 #
coedge $-1 $234 $353 $352 $455 reversed $137 $-1 #
coedge $-1 $242 $237 $234 $356 forward $243 $-1 #
edge $-1 $359 -15.75579395001914 $456 -12.666889936388337 $355 $457 forward 7 unknown #
coedge $-1 $236 $235 $362 $458 reversed $85 $-1 #
edge $-1 $459 -44.349677018898937 $359 -39.641405473155942 $353 $460 forward 7 unknown #
vertex $-1 $238 $461 #
straight-curve $-1 20.275880601156633 19.08593449581867 4.5376972922013188 1 0 0 I I #
coedge $-1 $352 $239 $242 $366 reversed $232 $-1 #
coedge $-1 $239 $352 $357 $458 forward $232 $-1 #
vertex $-1 $240 $462 #
straight-curve $-1 34.166371048747891 22.174838509449472 50.523414052333585 0 0 1 I I #
straight-curve $-1 34.166371048747891 -6.9211671087414572 34.455446104858382 0 0.65605901945558964 -0.75470958851134928 I I #
edge $-1 $456 -46.93715135587864 $244 -34.166371048747891 $361 $463 forward 7 unknown #
point $-1 34.166371048747891 22.174838509449472 4.5376972922013188 #
point $-1 34.166371048747891 19.08593449581867 4.5376972922013188 #
edge $-1 $464 1 $464 0 $247 $-1 forward 7 unknown #
vertex $-1 $248 $465 #
ellipse-curve $-1 36.720527110174054 18.294787542906128 0.73070330301423048 0 0.75470958851134928 0.65605901945558964 1 0 0 1 I I #
point $-1 37.720527110174054 20.630386502634053 2.7610084517576192 #
edge $-1 $466 1 $466 0 $251 $-1 forward 7 unknown #
vertex $-1 $252 $467 #
ellipse-curve $-1 40.55176120231328 18.294787542906128 0.73070330301423048 0 0.75470958851134928 0.65605901945558964 1 0 0 1 I I #
point $-1 41.55176120231328 20.630386502634053 2.7610084517576192 #
edge $-1 $468 1 $468 0 $255 $-1 forward 7 unknown #
vertex $-1 $256 $469 #
ellipse-curve $-1 44.382995294452506 18.294787542906128 0.73070330301423048 0 0.75470958851134928 0.65605901945558964 1 0 0 1 I I #
point $-1 45.382995294452506 20.630386502634053 2.7610084517576192 #
loop $-1 $-1 $267 $259 #
plane-surface $-1 0 -22.174838509449472 0 0 1 0 0 0 1 forward_v I I I I #
coedge $-1 $384 $262 $264 $388 reversed $166 $-1 #
coedge $-1 $262 $383 $470 $471 reversed $166 $-1 #
coedge $-1 $270 $265 $262 $386 forward $260 $-1 #
edge $-1 $389 -27.20533943539948 $472 -22.871669051598154 $385 $473 forward 7 unknown #
coedge $-1 $264 $263 $392 $474 reversed $104 $-1 #
edge $-1 $475 -1.9103891512089958e-014 $389 5.8315287646293026 $383 $476 forward 7 unknown #
vertex $-1 $266 $477 #
straight-curve $-1 -3.7774895873244212 -17.841168125648146 4.5376972922013188 -1 0 0 I I #
coedge $-1 $470 $267 $270 $396 reversed $381 $-1 #
coedge $-1 $267 $470 $387 $474 forward $381 $-1 #
vertex $-1 $268 $478 #
straight-curve $-1 5.5135610131960995 -22.174838509449472 38.033209077347131 0 0 1 I I #
straight-curve $-1 5.5135610131960995 -22.174838509449458 0.63564286699626393 0 -0.74314481823134659 -0.66913061440640931 I I #
edge $-1 $472 -20.623519362493784 $271 5.5135610131960995 $391 $479 forward 7 unknown #
point $-1 5.5135610131960995 -22.174838509449472 4.5376972922013188 #
point $-1 5.5135610131960995 -17.841168125648146 4.5376972922013188 #
edge $-1 $480 1 $480 0 $274 $-1 forward 7 unknown #
vertex $-1 $275 $481 #
ellipse-curve $-1 -7.5549791746488424 -17.737345631227463 0.064849291195887337 0 -0.66913061440640931 0.74314481823134659 1 0 0 1 I I #
point $-1 -6.5549791746488424 -20.00800331754882 2.5866700795987962 #
plane-surface $-1 50.751060518204291 0 0 -1 0 0 0 0 1 forward_v I I I I #
coedge $-1 $283 $281 $285 $408 reversed $181 $-1 #
edge $-1 $296 -4.5376972922013188 $410 4.5376972922013188 $295 $482 forward 7 unknown #
vertex $-1 $408 $483 #
straight-curve $-1 -50.751060518204291 -22.174838509449472 0 0 0 -1 I I #
edge $-1 $406 -22.174838509449472 $410 22.174838509449472 $404 $484 forward 7 unknown #
straight-curve $-1 0 -22.174838509449472 -4.5376972922013188 -1 0 0 I I #
vertex $-1 $288 $485 #
straight-curve $-1 0 22.174838509449472 -4.5376972922013188 1 0 0 I I #
point $-1 50.751060518204291 22.174838509449472 -4.5376972922013188 #
point $-1 50.751060518204291 -22.174838509449472 -4.5376972922013188 #
straight-curve $-1 -50.751060518204291 0 4.5376972922013188 0 -1 0 I I #
point $-1 -50.751060518204291 22.174838509449472 4.5376972922013188 #
point $-1 -50.751060518204291 -22.174838509449472 4.5376972922013188 #
straight-curve $-1 50.751060518204291 -22.174838509449472 0 0 0 -1 I I #
straight-curve $-1 50.751060518204291 22.174838509449472 0 0 0 -1 I I #
plane-surface $-1 0 22.174838509449472 0 0 -1 0 0 0 -1 forward_v I I I I #
coedge $-1 $309 $308 $486 $487 forward $121 $-1 #
edge $-1 $312 46.383728714537533 $488 50.751060518204291 $311 $489 forward 7 unknown #
coedge $-1 $317 $316 $309 $423 reversed $318 $-1 #
edge $-1 $490 -50.751060518204291 $424 -46.383728714537533 $422 $491 forward 7 unknown #
vertex $-1 $324 $492 #
straight-curve $-1 -46.383728714537533 0 -4.5376972922013188 0 -1 0 I I #
point $-1 -46.383728714537533 -22.174838509449472 -4.5376972922013188 #
coedge $-1 $486 $314 $317 $430 forward $306 $-1 #
coedge $-1 $314 $486 $321 $432 reversed $306 $-1 #
straight-curve $-1 -50.751060518204291 0 -1.5376972922013188 0 1 0 I I #
edge $-1 $319 1.5376972922013188 $490 4.5376972922013188 $317 $493 forward 7 unknown #
point $-1 -50.751060518204291 22.174838509449472 -1.5376972922013188 #
edge $-1 $322 1.5376972922013188 $488 4.5376972922013188 $428 $494 forward 7 unknown #
point $-1 -50.751060518204291 -22.174838509449472 -1.5376972922013188 #
straight-curve $-1 -46.383728714537533 22.174838509449472 -1.5188486461006594 0 0 -1 I I #
loop $-1 $-1 $341 $327 #
plane-surface $-1 50.751060518204291 0 0 -1 0 0 0 0 1 forward_v I I I I #
coedge $-1 $336 $346 $331 $440 forward $328 $-1 #
coedge $-1 $343 $334 $330 $439 forward $216 $-1 #
edge $-1 $339 22.515098387357913 $443 26.329007549683556 $438 $495 forward 7 unknown #
edge $-1 $444 -26.329007549683556 $338 -22.515098387357913 $437 $496 forward 7 unknown #
coedge $-1 $341 $332 $346 $453 reversed $435 $-1 #
coedge $-1 $332 $341 $343 $451 reversed $435 $-1 #
vertex $-1 $451 $497 #
vertex $-1 $333 $498 #
straight-curve $-1 50.751060518204291 -13.099443925046835 0 0 0 1 I I #
straight-curve $-1 46.937151355878648 -7.2997219625234173 -4.5376972922013188 0 1 0 I I #
straight-curve $-1 46.937151355878648 -7.2997219625234173 4.5376972922013188 0 -1 0 I I #
point $-1 46.937151355878648 -13.099443925046835 4.5376972922013188 #
point $-1 46.937151355878648 -13.099443925046835 -4.5376972922013188 #
straight-curve $-1 50.751060518204291 -16.099443925046835 0 0 0 -1 I I #
edge $-1 $443 13.099443925046835 $344 16.099443925046835 $442 $499 forward 7 unknown #
point $-1 50.751060518204291 -16.099443925046835 -4.5376972922013188 #
edge $-1 $347 -16.099443925046835 $444 -13.099443925046835 $441 $500 forward 7 unknown #
point $-1 50.751060518204291 -16.099443925046835 4.5376972922013188 #
edge $-1 $456 45.985716760132263 $459 49.539094441019657 $352 $501 forward 7 unknown #
vertex $-1 $366 $502 #
straight-curve $-1 46.93715135587864 34.841728445837809 4.5376972922013152 0 1 0 I I #
edge $-1 $459 -26.661270754722008 $363 -13.890490447591258 $362 $503 forward 7 unknown #
vertex $-1 $458 $504 #
straight-curve $-1 46.93715135587864 -6.9211671087414572 34.455446104858382 0 -0.65605901945558964 0.75470958851134928 I I #
point $-1 46.93715135587864 19.08593449581867 4.5376972922013188 #
point $-1 34.166371048747891 22.174838509449472 0.98431961131392853 #
straight-curve $-1 0 22.174838509449472 4.5376972922013188 -1 0 0 I I #
vertex $-1 $369 $505 #
point $-1 37.720527110174054 18.294787542906128 0.73070330301423048 #
vertex $-1 $373 $506 #
point $-1 41.55176120231328 18.294787542906128 0.73070330301423048 #
vertex $-1 $377 $507 #
point $-1 45.382995294452506 18.294787542906128 0.73070330301423048 #
coedge $-1 $392 $391 $384 $471 forward $381 $-1 #
edge $-1 $472 33.495511785145808 $475 37.397566210350881 $470 $508 forward 7 unknown #
vertex $-1 $396 $509 #
straight-curve $-1 -20.623519362493784 -45.046507561047626 4.5376972922013152 0 -1 0 I I #
edge $-1 $475 -16.846029775169363 $393 9.2910506005205207 $392 $510 forward 7 unknown #
vertex $-1 $474 $511 #
straight-curve $-1 -20.623519362493784 -22.174838509449458 0.63564286699626393 0 0.74314481823134659 0.66913061440640931 I I #
point $-1 -20.623519362493784 -17.841168125648146 4.5376972922013188 #
point $-1 5.5135610131960995 -22.174838509449472 0.63564286699625117 #
straight-curve $-1 0 -22.174838509449472 4.5376972922013188 1 0 0 I I #
vertex $-1 $399 $512 #
point $-1 -6.5549791746488424 -17.737345631227463 0.064849291195887337 #
straight-curve $-1 -50.751060518204291 22.174838509449472 0 0 0 -1 I I #
point $-1 -50.751060518204291 -22.174838509449472 -4.5376972922013188 #
straight-curve $-1 -50.751060518204291 0 -4.5376972922013188 0 1 0 I I #
point $-1 -50.751060518204291 22.174838509449472 -4.5376972922013188 #
coedge $-1 $428 $427 $420 $487 reversed $306 $-1 #
edge $-1 $488 -22.174838509449472 $490 22.174838509449472 $486 $513 forward 7 unknown #
vertex $-1 $487 $514 #
straight-curve $-1 0 -22.174838509449472 -4.5376972922013188 -1 0 0 I I #
vertex $-1 $423 $515 #
straight-curve $-1 0 22.174838509449472 -4.5376972922013188 1 0 0 I I #
point $-1 -46.383728714537533 22.174838509449472 -4.5376972922013188 #
straight-curve $-1 -50.751060518204291 22.174838509449472 0 0 0 -1 I I #
straight-curve $-1 -50.751060518204291 -22.174838509449472 0 0 0 -1 I I #
straight-curve $-1 24.422052968520735 -13.099443925046835 -4.5376972922013188 1 0 0 I I #
straight-curve $-1 24.422052968520735 -13.099443925046835 4.5376972922013188 -1 0 0 I I #
point $-1 50.751060518204291 -13.099443925046835 -4.5376972922013188 #
point $-1 50.751060518204291 -13.099443925046835 4.5376972922013188 #
straight-curve $-1 50.751060518204291 0 -4.5376972922013188 0 -1 0 I I #
straight-curve $-1 50.751060518204291 0 4.5376972922013188 0 1 0 I I #
straight-curve $-1 46.93715135587864 22.174838509449472 50.523414052333585 0 0 -1 I I #
point $-1 46.93715135587864 22.174838509449472 4.5376972922013188 #
straight-curve $-1 20.275880601156633 22.174838509449472 0.98431961131392853 -1 0 0 I I #
point $-1 46.93715135587864 22.174838509449472 0.98431961131392853 #
point $-1 36.720527110174054 17.540077954394782 0.074644283558640889 #
point $-1 40.55176120231328 17.540077954394782 0.074644283558640889 #
point $-1 44.382995294452506 17.540077954394782 0.074644283558640889 #
straight-curve $-1 -20.623519362493784 -22.174838509449472 38.033209077347131 0 0 -1 I I #
point $-1 -20.623519362493784 -22.174838509449472 4.5376972922013188 #
straight-curve $-1 -3.7774895873244212 -22.174838509449472 0.63564286699624961 1 0 0 I I #
point $-1 -20.623519362493784 -22.174838509449472 0.63564286699625117 #
point $-1 -7.5549791746488424 -17.068215016821057 -0.67829552703545892 #
straight-curve $-1 -50.751060518204291 0 -4.5376972922013188 0 1 0 I I #
point $-1 -50.751060518204291 -22.174838509449472 -4.5376972922013188 #
point $-1 -50.751060518204291 22.174838509449472 -4.5376972922013188 #
End-of-ACIS-data 