500 0 10 0           
7 Unknown 11 ACIS 5.0 NT 24 Fri Mar 26 00:46:50 1999 
-1 9.9999999999999995e-007 1e-010 
body $-1 $10 $-1 $11 #
body $-1 $12 $-1 $13 #
body $-1 $14 $-1 $15 #
body $-1 $16 $-1 $17 #
body $-1 $18 $-1 $19 #
body $-1 $20 $-1 $21 #
body $-1 $22 $-1 $23 #
body $-1 $24 $-1 $25 #
body $-1 $26 $-1 $27 #
body $-1 $28 $-1 $29 #
lump $-1 $-1 $30 $0 #
transform $-1 1 0 0 0 1 0 0 0 1 76.093630787072357 49.975822096225869 16.583059739611336 1 rotate no_reflect no_shear #
lump $-1 $-1 $31 $1 #
transform $-1 1 0 0 0 1 0 0 0 1 76.093630787072357 49.975822096225869 16.583059739611336 1 rotate no_reflect no_shear #
lump $-1 $-1 $32 $2 #
transform $-1 1 0 0 0 1 0 0 0 1 76.093630787072357 49.975822096225869 16.583059739611336 1 rotate no_reflect no_shear #
lump $-1 $-1 $33 $3 #
transform $-1 1 0 0 0 1 0 0 0 1 76.093630787072357 49.975822096225869 16.583059739611336 1 rotate no_reflect no_shear #
lump $-1 $-1 $34 $4 #
transform $-1 1 0 0 0 1 0 0 0 1 76.093630787072357 49.975822096225869 16.583059739611336 1 rotate no_reflect no_shear #
lump $-1 $-1 $35 $5 #
transform $-1 1 0 0 0 1 0 0 0 1 76.093630787072357 49.975822096225869 16.583059739611336 1 rotate no_reflect no_shear #
lump $-1 $-1 $36 $6 #
transform $-1 1 0 0 0 1 0 0 0 1 76.093630787072357 49.975822096225869 16.583059739611336 1 rotate no_reflect no_shear #
lump $-1 $-1 $37 $7 #
transform $-1 1 0 0 0 1 0 0 0 1 76.093630787072357 49.975822096225869 16.583059739611336 1 rotate no_reflect no_shear #
lump $-1 $-1 $38 $8 #
transform $-1 1 0 0 0 1 0 0 0 1 76.093630787072357 49.975822096225869 16.583059739611336 1 rotate no_reflect no_shear #
lump $-1 $-1 $39 $9 #
transform $-1 1 0 0 0 1 0 0 0 1 76.093630787072357 49.975822096225869 16.583059739611336 1 rotate no_reflect no_shear #
shell $-1 $-1 $-1 $40 $-1 $10 #
shell $-1 $-1 $-1 $41 $-1 $12 #
shell $-1 $-1 $-1 $42 $-1 $14 #
shell $-1 $-1 $-1 $43 $-1 $16 #
shell $-1 $-1 $-1 $44 $-1 $18 #
shell $-1 $-1 $-1 $45 $-1 $20 #
shell $-1 $-1 $-1 $46 $-1 $22 #
shell $-1 $-1 $-1 $47 $-1 $24 #
shell $-1 $-1 $-1 $48 $-1 $26 #
shell $-1 $-1 $-1 $49 $-1 $28 #
face $-1 $50 $51 $30 $-1 $52 forward single #
face $-1 $53 $54 $31 $-1 $55 forward single #
face $-1 $56 $57 $32 $-1 $58 forward single #
face $-1 $59 $60 $33 $-1 $61 reversed single #
face $-1 $62 $63 $34 $-1 $64 forward single #
face $-1 $65 $66 $35 $-1 $67 forward single #
face $-1 $68 $69 $36 $-1 $70 reversed single #
face $-1 $71 $72 $37 $-1 $73 forward single #
face $-1 $74 $75 $38 $-1 $76 reversed single #
face $-1 $77 $78 $39 $-1 $79 forward single #
face $-1 $80 $81 $30 $-1 $82 reversed single #
loop $-1 $-1 $83 $40 #
plane-surface $-1 0 0 16.583059739611336 0 0 1 1 0 0 forward_v I I I I #
face $-1 $84 $85 $31 $-1 $86 forward single #
loop $-1 $-1 $87 $41 #
plane-surface $-1 -76.093630787072357 0 0 1 0 0 0 0 -1 forward_v I I I I #
face $-1 $88 $89 $32 $-1 $90 reversed single #
loop $-1 $-1 $91 $42 #
plane-surface $-1 66.796195904953947 0 13.686600523166243 0 0 1 1 0 0 forward_v I I I I #
face $-1 $92 $93 $33 $-1 $94 reversed single #
loop $-1 $-1 $95 $43 #
plane-surface $-1 -52.516097880449252 -147.79990939056694 124.82315561251315 -1 0 0 0 -0.64278761758704617 0.76604443648966558 forward_v I I I I #
face $-1 $96 $97 $34 $-1 $98 forward single #
loop $-1 $99 $100 $44 #
cone-surface $-1 -61.432578386653958 -43.552310185039481 10.680812998180521 0 0.64278761758704617 -0.76604443648966558 1.5 0 0 1 I I 0 1 1.5 forward I I I I #
face $-1 $101 $102 $35 $-1 $103 forward single #
loop $-1 $104 $105 $45 #
cone-surface $-1 -56.08269008293113 -43.552310185039481 10.680812998180521 0 0.64278761758704617 -0.76604443648966558 1.5 0 0 1 I I 0 1 1.5 forward I I I I #
face $-1 $106 $107 $36 $-1 $108 reversed single #
loop $-1 $-1 $109 $46 #
plane-surface $-1 -46.393371380460216 55.391257220010743 193.15907834942598 1 0 0 0 -0.57357644374324357 -0.81915203911291934 forward_v I I I I #
face $-1 $110 $111 $37 $-1 $112 forward single #
loop $-1 $113 $114 $47 #
cone-surface $-1 -32.925496351302307 45.479703413538509 12.978437009505049 0 -0.57357644374324357 -0.81915203911291934 2 0 0 1 I I 0 1 2 forward I I I I #
face $-1 $115 $116 $38 $-1 $117 reversed single #
loop $-1 $-1 $118 $48 #
plane-surface $-1 14.855594425525467 55.391257220010743 193.15907834942598 1 0 0 0 -0.57357644374324357 -0.81915203911291934 forward_v I I I I #
face $-1 $119 $120 $39 $-1 $121 forward single #
loop $-1 $122 $123 $49 #
cone-surface $-1 28.323469454683377 45.479703413538509 12.978437009505049 0 -0.57357644374324357 -0.81915203911291934 2 0 0 1 I I 0 1 2 forward I I I I #
face $-1 $124 $125 $30 $-1 $126 reversed single #
loop $-1 $-1 $127 $50 #
plane-surface $-1 0 0 -16.583059739611336 0 0 1 1 0 0 forward_v I I I I #
coedge $-1 $128 $129 $130 $131 forward $51 $-1 #
face $-1 $132 $133 $31 $-1 $134 reversed single #
loop $-1 $-1 $135 $53 #
plane-surface $-1 0 0 16.583059739611336 0 0 1 1 0 0 forward_v I I I I #
coedge $-1 $136 $137 $138 $139 forward $54 $-1 #
face $-1 $140 $141 $32 $-1 $142 reversed single #
loop $-1 $-1 $143 $56 #
plane-surface $-1 66.796195904953947 0 3.8108562943132025 0 0 1 1 0 0 forward_v I I I I #
coedge $-1 $144 $145 $146 $147 reversed $57 $-1 #
face $-1 $148 $149 $33 $-1 $150 reversed single #
loop $-1 $-1 $151 $59 #
plane-surface $-1 -58.757634234792548 -49.975822096225841 8.2409505790421207 0 -0.64278761758704617 0.76604443648966558 1 0 0 forward_v I I I I #
coedge $-1 $152 $153 $154 $155 reversed $60 $-1 #
face $-1 $-1 $156 $34 $-1 $157 forward single #
loop $-1 $158 $159 $62 #
cone-surface $-1 -61.432578386653958 -41.61757673750887 8.3750875096670576 0 0.64278761758704617 -0.76604443648966558 0.75 0 0 1 I I -0.70710678118654757 0.70710678118654757 0.75 forward I I I I #
loop $-1 $-1 $160 $44 #
coedge $-1 $100 $100 $161 $162 reversed $63 $-1 #
face $-1 $-1 $163 $35 $-1 $164 forward single #
loop $-1 $165 $166 $65 #
cone-surface $-1 -56.08269008293113 -41.61757673750887 8.3750875096670576 0 0.64278761758704617 -0.76604443648966558 0.75 0 0 1 I I -0.70710678118654757 0.70710678118654757 0.75 forward I I I I #
loop $-1 $-1 $167 $45 #
coedge $-1 $105 $105 $168 $169 reversed $66 $-1 #
face $-1 $170 $171 $36 $-1 $172 reversed single #
loop $-1 $-1 $173 $68 #
plane-surface $-1 -32.925496351302307 -31.899771056709966 68.494572703954105 0 0.57357644374324357 0.81915203911291934 1 0 0 forward_v I I I I #
coedge $-1 $174 $175 $176 $177 reversed $69 $-1 #
face $-1 $-1 $178 $37 $-1 $179 forward single #
loop $-1 $180 $181 $71 #
cone-surface $-1 -32.925496351302307 44.279143692046446 11.263860069212697 0 -0.57357644374324357 -0.81915203911291934 1 0 0 1 I I -0.70710678118654746 0.70710678118654746 1 forward I I I I #
loop $-1 $-1 $182 $47 #
coedge $-1 $114 $114 $183 $184 reversed $72 $-1 #
face $-1 $185 $186 $38 $-1 $187 reversed single #
loop $-1 $-1 $188 $74 #
plane-surface $-1 28.323469454683377 -31.899771056709966 68.494572703954105 0 0.57357644374324357 0.81915203911291934 1 0 0 forward_v I I I I #
coedge $-1 $189 $190 $191 $192 reversed $75 $-1 #
face $-1 $-1 $193 $39 $-1 $194 forward single #
loop $-1 $195 $196 $77 #
cone-surface $-1 28.323469454683377 44.279143692046446 11.263860069212697 0 -0.57357644374324357 -0.81915203911291934 1 0 0 1 I I -0.70710678118654746 0.70710678118654746 1 forward I I I I #
loop $-1 $-1 $197 $49 #
coedge $-1 $123 $123 $198 $199 reversed $78 $-1 #
face $-1 $200 $201 $30 $-1 $202 reversed single #
loop $-1 $-1 $203 $80 #
plane-surface $-1 0 -49.975822096225869 0 0 1 0 0 0 1 forward_v I I I I #
coedge $-1 $204 $205 $206 $207 forward $81 $-1 #
coedge $-1 $208 $83 $209 $210 forward $51 $-1 #
coedge $-1 $83 $208 $211 $212 forward $51 $-1 #
coedge $-1 $213 $214 $83 $131 reversed $215 $-1 #
edge $-1 $216 -49.975822096225869 $217 49.975822096225869 $130 $218 forward 7 unknown #
face $-1 $219 $220 $31 $-1 $221 reversed single #
loop $-1 $-1 $222 $84 #
plane-surface $-1 -87.18809098500887 -46.58830690206441 0 1 0 0 0 0 -1 forward_v I I I I #
coedge $-1 $223 $224 $136 $225 forward $85 $-1 #
coedge $-1 $226 $87 $135 $225 reversed $54 $-1 #
coedge $-1 $87 $226 $227 $228 reversed $54 $-1 #
coedge $-1 $229 $230 $87 $139 reversed $220 $-1 #
edge $-1 $231 -16.583059739611336 $232 16.583059739611336 $138 $233 forward 7 unknown #
face $-1 $234 $235 $32 $-1 $236 reversed single #
loop $-1 $-1 $237 $88 #
plane-surface $-1 57.498761022835538 0 8.7487284087397228 1 0 0 0 0 -1 forward_v I I I I #
coedge $-1 $238 $239 $240 $241 reversed $89 $-1 #
coedge $-1 $242 $91 $243 $244 reversed $57 $-1 #
coedge $-1 $91 $242 $245 $246 reversed $57 $-1 #
coedge $-1 $247 $248 $91 $147 forward $235 $-1 #
edge $-1 $249 -49.975822096225869 $250 49.975822096225869 $146 $251 forward 7 unknown #
face $-1 $252 $253 $33 $-1 $254 forward single #
loop $-1 $-1 $255 $92 #
plane-surface $-1 -64.999170589135844 -147.79990939056694 124.82315561251315 1 0 0 0 0.64278761758704617 -0.76604443648966558 forward_v I I I I #
coedge $-1 $256 $257 $258 $259 reversed $93 $-1 #
coedge $-1 $153 $95 $260 $261 reversed $60 $-1 #
coedge $-1 $95 $152 $256 $262 reversed $60 $-1 #
coedge $-1 $258 $263 $95 $155 forward $253 $-1 #
edge $-1 $264 23.9241325990576 $265 33.865870952749752 $154 $266 forward 7 unknown #
loop $-1 $-1 $161 $96 #
plane-surface $-1 -58.757634234792548 -49.975822096225841 8.2409505790421207 0 -0.64278761758704617 0.76604443648966558 1 0 0 forward_v I I I I #
loop $-1 $-1 $267 $62 #
coedge $-1 $159 $159 $160 $268 reversed $97 $-1 #
coedge $-1 $160 $160 $159 $268 forward $99 $-1 #
coedge $-1 $161 $161 $100 $162 forward $156 $-1 #
edge $-1 $269 3.5470374365466512e-016 $269 6.2831853071796004 $161 $270 forward 7 unknown #
loop $-1 $-1 $168 $101 #
plane-surface $-1 -58.757634234792548 -49.975822096225841 8.2409505790421207 0 -0.64278761758704617 0.76604443648966558 1 0 0 forward_v I I I I #
loop $-1 $-1 $271 $65 #
coedge $-1 $166 $166 $167 $272 reversed $102 $-1 #
coedge $-1 $167 $167 $166 $272 forward $104 $-1 #
coedge $-1 $168 $168 $105 $169 forward $163 $-1 #
edge $-1 $273 3.5470374365466512e-016 $273 6.2831853071796004 $168 $274 forward 7 unknown #
face $-1 $275 $276 $36 $-1 $277 reversed single #
loop $-1 $-1 $278 $106 #
plane-surface $-1 -19.457621322144398 55.391257220010743 193.15907834942598 -1 0 0 0 0.57357644374324357 0.81915203911291934 forward_v I I I I #
coedge $-1 $279 $280 $281 $282 reversed $107 $-1 #
coedge $-1 $175 $109 $283 $284 reversed $69 $-1 #
coedge $-1 $109 $174 $279 $285 reversed $69 $-1 #
coedge $-1 $281 $286 $109 $177 forward $287 $-1 #
edge $-1 $288 -22.280193486220497 $289 -14.541922676343376 $176 $290 forward 7 unknown #
loop $-1 $-1 $183 $110 #
plane-surface $-1 -32.925496351302307 -31.899771056709966 68.494572703954105 0 0.57357644374324357 0.81915203911291934 1 0 0 forward_v I I I I #
loop $-1 $-1 $291 $71 #
coedge $-1 $181 $181 $182 $292 reversed $111 $-1 #
coedge $-1 $182 $182 $181 $292 forward $113 $-1 #
coedge $-1 $183 $183 $114 $184 forward $178 $-1 #
edge $-1 $293 -1.8211479819687945e-015 $293 6.2831853071795987 $183 $294 forward 7 unknown #
face $-1 $295 $296 $38 $-1 $297 forward single #
loop $-1 $-1 $298 $115 #
plane-surface $-1 41.791344483841286 55.391257220010743 193.15907834942598 -1 0 0 0 0.57357644374324357 0.81915203911291934 forward_v I I I I #
coedge $-1 $299 $300 $301 $302 reversed $116 $-1 #
coedge $-1 $190 $118 $303 $304 reversed $75 $-1 #
coedge $-1 $118 $189 $299 $305 reversed $75 $-1 #
coedge $-1 $301 $306 $118 $192 forward $296 $-1 #
edge $-1 $307 -22.280193486220497 $308 -14.541922676343376 $191 $309 forward 7 unknown #
loop $-1 $-1 $198 $119 #
plane-surface $-1 28.323469454683377 -31.899771056709966 68.494572703954105 0 0.57357644374324357 0.81915203911291934 1 0 0 forward_v I I I I #
loop $-1 $-1 $310 $77 #
coedge $-1 $196 $196 $197 $311 reversed $120 $-1 #
coedge $-1 $197 $197 $196 $311 forward $122 $-1 #
coedge $-1 $198 $198 $123 $199 forward $193 $-1 #
edge $-1 $312 -1.8211479819687945e-015 $312 6.2831853071795987 $198 $313 forward 7 unknown #
face $-1 $314 $315 $30 $-1 $316 reversed single #
loop $-1 $-1 $317 $124 #
plane-surface $-1 -76.093630787072357 0 0 1 0 0 0 0 -1 forward_v I I I I #
coedge $-1 $318 $211 $319 $320 forward $125 $-1 #
coedge $-1 $321 $127 $318 $322 forward $81 $-1 #
coedge $-1 $127 $321 $323 $324 forward $81 $-1 #
coedge $-1 $214 $213 $127 $207 reversed $215 $-1 #
edge $-1 $325 -49.975822096225869 $326 49.975822096225869 $206 $327 forward 7 unknown #
coedge $-1 $129 $128 $317 $328 forward $51 $-1 #
coedge $-1 $329 $330 $128 $210 reversed $315 $-1 #
edge $-1 $217 -76.093630787072357 $331 76.093630787072357 $209 $332 forward 7 unknown #
coedge $-1 $203 $333 $129 $212 reversed $125 $-1 #
edge $-1 $334 -76.093630787072357 $216 76.093630787072357 $211 $335 forward 7 unknown #
coedge $-1 $206 $130 $333 $336 forward $215 $-1 #
coedge $-1 $130 $206 $329 $337 reversed $215 $-1 #
loop $-1 $-1 $213 $314 #
vertex $-1 $131 $338 #
vertex $-1 $131 $339 #
straight-curve $-1 76.093630787072357 0 16.583059739611336 0 1 0 I I #
face $-1 $340 $341 $31 $-1 $342 reversed single #
loop $-1 $-1 $138 $132 #
plane-surface $-1 -81.640860886040613 -43.200791707902951 0 0 -1 0 0 0 -1 forward_v I I I I #
coedge $-1 $343 $344 $345 $346 forward $133 $-1 #
coedge $-1 $347 $135 $230 $348 forward $85 $-1 #
coedge $-1 $135 $347 $349 $350 forward $85 $-1 #
edge $-1 $351 -49.975822096225869 $232 -43.200791707902951 $135 $352 forward 7 unknown #
coedge $-1 $137 $136 $353 $354 reversed $54 $-1 #
coedge $-1 $355 $356 $137 $228 forward $341 $-1 #
edge $-1 $231 43.200791707902951 $357 49.975822096225869 $227 $358 forward 7 unknown #
coedge $-1 $345 $138 $356 $359 reversed $220 $-1 #
coedge $-1 $138 $345 $223 $348 reversed $220 $-1 #
vertex $-1 $228 $360 #
vertex $-1 $348 $361 #
straight-curve $-1 -76.093630787072357 -43.200791707902951 0 0 0 1 I I #
face $-1 $362 $363 $32 $-1 $364 reversed single #
loop $-1 $-1 $146 $140 #
plane-surface $-1 76.093630787072357 0 0 -1 0 0 0 0 1 forward_v I I I I #
coedge $-1 $365 $366 $367 $368 reversed $141 $-1 #
coedge $-1 $369 $143 $370 $371 reversed $89 $-1 #
coedge $-1 $143 $369 $372 $373 reversed $89 $-1 #
coedge $-1 $248 $247 $143 $241 forward $235 $-1 #
edge $-1 $374 -49.975822096225869 $375 49.975822096225869 $240 $376 forward 7 unknown #
coedge $-1 $145 $144 $366 $377 forward $57 $-1 #
coedge $-1 $378 $367 $144 $244 forward $379 $-1 #
edge $-1 $380 24.100663070358564 $249 42.695532834595383 $243 $381 forward 7 unknown #
coedge $-1 $382 $383 $145 $246 forward $363 $-1 #
edge $-1 $250 -42.695532834595383 $384 -24.100663070358564 $245 $385 forward 7 unknown #
coedge $-1 $240 $146 $383 $386 forward $235 $-1 #
coedge $-1 $146 $240 $378 $387 reversed $235 $-1 #
vertex $-1 $387 $388 #
vertex $-1 $386 $389 #
straight-curve $-1 76.093630787072357 0 13.686600523166243 0 -1 0 I I #
face $-1 $-1 $390 $33 $-1 $391 reversed single #
loop $-1 $-1 $154 $148 #
plane-surface $-1 0 0 16.583059739611336 0 0 1 1 0 0 forward_v I I I I #
coedge $-1 $392 $393 $394 $395 reversed $149 $-1 #
coedge $-1 $396 $151 $153 $262 forward $93 $-1 #
coedge $-1 $151 $396 $392 $397 forward $93 $-1 #
coedge $-1 $394 $154 $151 $259 forward $253 $-1 #
edge $-1 $265 23.137280763052978 $398 35.62035347173957 $258 $399 forward 7 unknown #
coedge $-1 $400 $401 $152 $261 forward $390 $-1 #
edge $-1 $402 -54.170627227214474 $264 -45.828518066645238 $260 $403 forward 7 unknown #
edge $-1 $265 -12.978017827855137 $402 3.6615954734859901e-014 $153 $404 forward 7 unknown #
coedge $-1 $154 $394 $400 $405 forward $253 $-1 #
vertex $-1 $261 $406 #
vertex $-1 $155 $407 #
straight-curve $-1 -52.516097880449252 -73.899954695283469 16.583059739611336 0 1 0 I I #
coedge $-1 $267 $267 $-1 $408 reversed $158 $-1 #
edge $-1 $409 0 $409 6.2831853071796004 $159 $410 forward 7 unknown #
vertex $-1 $162 $411 #
ellipse-curve $-1 -61.432578386653958 -45.004952919379797 12.412005159326716 0 -0.64278761758704617 0.76604443648966558 1.5 0 0 1 I I #
coedge $-1 $271 $271 $-1 $412 reversed $165 $-1 #
edge $-1 $413 0 $413 6.2831853071796004 $166 $414 forward 7 unknown #
vertex $-1 $169 $415 #
ellipse-curve $-1 -56.08269008293113 -45.004952919379797 12.412005159326716 0 -0.64278761758704617 0.76604443648966558 1.5 0 0 1 I I #
face $-1 $-1 $287 $36 $-1 $416 forward single #
loop $-1 $-1 $417 $170 #
plane-surface $-1 0 49.975822096225869 0 0 -1 0 0 0 -1 forward_v I I I I #
coedge $-1 $418 $419 $420 $421 reversed $171 $-1 #
coedge $-1 $422 $173 $175 $285 forward $107 $-1 #
coedge $-1 $173 $422 $418 $423 forward $107 $-1 #
coedge $-1 $420 $176 $173 $282 forward $287 $-1 #
edge $-1 $289 -29.930623204809063 $424 -2.9948731464932443 $281 $425 forward 7 unknown #
coedge $-1 $426 $427 $174 $284 forward $276 $-1 #
edge $-1 $428 -85.414875092955384 $288 -79.996479435101662 $283 $429 forward 7 unknown #
edge $-1 $289 90.504959767107351 $428 99.951644192451738 $175 $430 forward 7 unknown #
coedge $-1 $176 $420 $426 $431 forward $287 $-1 #
loop $-1 $-1 $420 $275 #
vertex $-1 $284 $432 #
vertex $-1 $177 $433 #
straight-curve $-1 -46.393371380460216 27.695628610005372 16.583059739611343 0 -1 0 I I #
coedge $-1 $291 $291 $-1 $434 reversed $180 $-1 #
edge $-1 $435 0 $435 6.2831853071796004 $181 $436 forward 7 unknown #
vertex $-1 $184 $437 #
ellipse-curve $-1 -32.925496351302307 46.106686691287308 13.873861910684457 0 0.57357644374324357 0.81915203911291934 2 0 0 1 I I #
face $-1 $-1 $438 $38 $-1 $439 reversed single #
loop $-1 $-1 $191 $185 #
plane-surface $-1 0 0 16.583059739611336 0 0 1 1 0 0 forward_v I I I I #
coedge $-1 $440 $441 $442 $443 reversed $186 $-1 #
coedge $-1 $444 $188 $190 $305 forward $116 $-1 #
coedge $-1 $188 $444 $440 $445 forward $116 $-1 #
coedge $-1 $442 $191 $188 $302 forward $296 $-1 #
edge $-1 $308 0.69385969818377902 $446 27.629609756499597 $301 $447 forward 7 unknown #
coedge $-1 $448 $449 $189 $304 forward $438 $-1 #
edge $-1 $450 -85.414875092955384 $307 -79.996479435101662 $303 $451 forward 7 unknown #
edge $-1 $308 90.504959767107351 $450 99.951644192451738 $190 $452 forward 7 unknown #
coedge $-1 $191 $442 $448 $453 forward $296 $-1 #
vertex $-1 $192 $454 #
vertex $-1 $192 $455 #
straight-curve $-1 14.855594425525467 27.695628610005372 16.583059739611343 0 -1 0 I I #
coedge $-1 $310 $310 $-1 $456 reversed $195 $-1 #
edge $-1 $457 0 $457 6.2831853071796004 $196 $458 forward 7 unknown #
vertex $-1 $199 $459 #
ellipse-curve $-1 28.323469454683377 46.106686691287308 13.873861910684457 0 0.57357644374324357 0.81915203911291934 2 0 0 1 I I #
face $-1 $-1 $215 $30 $-1 $460 reversed single #
loop $-1 $-1 $329 $200 #
plane-surface $-1 0 49.975822096225869 0 0 -1 0 0 0 -1 forward_v I I I I #
coedge $-1 $461 $319 $208 $328 reversed $201 $-1 #
coedge $-1 $333 $203 $204 $322 reversed $125 $-1 #
coedge $-1 $317 $462 $203 $320 reversed $201 $-1 #
edge $-1 $334 -16.583059739611336 $463 16.583059739611336 $319 $464 forward 7 unknown #
coedge $-1 $205 $204 $462 $465 forward $81 $-1 #
edge $-1 $326 -76.093630787072357 $463 76.093630787072357 $318 $466 forward 7 unknown #
coedge $-1 $330 $329 $205 $324 reversed $315 $-1 #
edge $-1 $467 -76.093630787072357 $325 76.093630787072357 $323 $468 forward 7 unknown #
vertex $-1 $207 $469 #
vertex $-1 $336 $470 #
straight-curve $-1 76.093630787072357 0 -16.583059739611336 0 -1 0 I I #
edge $-1 $331 -49.975822096225869 $334 49.975822096225869 $317 $471 forward 7 unknown #
coedge $-1 $323 $209 $214 $337 forward $315 $-1 #
coedge $-1 $209 $323 $461 $472 reversed $315 $-1 #
vertex $-1 $210 $473 #
straight-curve $-1 0 49.975822096225869 16.583059739611336 -1 0 0 I I #
coedge $-1 $211 $318 $213 $336 reversed $125 $-1 #
vertex $-1 $328 $474 #
straight-curve $-1 0 -49.975822096225869 16.583059739611336 1 0 0 I I #
edge $-1 $216 -16.583059739611336 $326 16.583059739611336 $213 $475 forward 7 unknown #
edge $-1 $217 -16.583059739611336 $325 16.583059739611336 $214 $476 forward 7 unknown #
point $-1 76.093630787072357 -49.975822096225869 16.583059739611336 #
point $-1 76.093630787072357 49.975822096225869 16.583059739611336 #
face $-1 $-1 $477 $31 $-1 $478 reversed single #
loop $-1 $-1 $227 $219 #
plane-surface $-1 0 0 -16.583059739611336 0 0 1 1 0 0 forward_v I I I I #
coedge $-1 $479 $222 $480 $481 reversed $133 $-1 #
coedge $-1 $222 $479 $347 $482 reversed $133 $-1 #
coedge $-1 $230 $229 $222 $346 reversed $220 $-1 #
edge $-1 $483 -16.583059739611336 $484 16.583059739611336 $345 $485 forward 7 unknown #
coedge $-1 $224 $223 $344 $482 forward $85 $-1 #
edge $-1 $232 -5.5472300989682566 $483 5.5472300989682566 $230 $486 forward 7 unknown #
coedge $-1 $487 $353 $224 $350 reversed $477 $-1 #
edge $-1 $488 -87.18809098500887 $351 -76.093630787072357 $349 $489 forward 7 unknown #
vertex $-1 $354 $490 #
straight-curve $-1 -76.093630787072357 0 16.583059739611336 0 1 0 I I #
coedge $-1 $349 $491 $226 $354 forward $477 $-1 #
edge $-1 $357 -16.583059739611336 $351 16.583059739611336 $353 $492 forward 7 unknown #
coedge $-1 $480 $227 $491 $493 forward $341 $-1 #
coedge $-1 $227 $480 $229 $359 forward $341 $-1 #
vertex $-1 $493 $494 #
straight-curve $-1 -76.093630787072357 0 -16.583059739611336 0 -1 0 I I #
edge $-1 $484 -5.5472300989682566 $231 5.5472300989682566 $229 $495 forward 7 unknown #
point $-1 -76.093630787072357 -43.200791707902951 -16.583059739611336 #
point $-1 -76.093630787072357 -43.200791707902951 16.583059739611336 #
face $-1 $-1 $379 $32 $-1 $496 reversed single #
loop $-1 $-1 $245 $234 #
plane-surface $-1 0 -49.975822096225869 0 0 1 0 0 0 1 forward_v I I I I #
coedge $-1 $497 $237 $369 $498 reversed $141 $-1 #
coedge $-1 $237 $497 $242 $377 reversed $141 $-1 #
coedge $-1 $243 $372 $237 $368 forward $379 $-1 #
edge $-1 $499 -0.5635079100566589 $380 9.3122363187963817 $367 $500 forward 7 unknown #
coedge $-1 $239 $238 $365 $498 forward $89 $-1 #
coedge $-1 $383 $382 $238 $371 forward $363 $-1 #
edge $-1 $501 24.100663070358564 $374 42.695532834595383 $370 $502 forward 7 unknown #
coedge $-1 $367 $378 $239 $373 forward $379 $-1 #
edge $-1 $375 -42.695532834595383 $499 -24.100663070358564 $372 $503 forward 7 unknown #
vertex $-1 $371 $504 #
vertex $-1 $241 $505 #
straight-curve $-1 76.093630787072357 0 3.8108562943132025 0 1 0 I I #
edge $-1 $380 -49.975822096225869 $384 49.975822096225869 $366 $506 forward 7 unknown #
coedge $-1 $372 $243 $248 $387 forward $379 $-1 #
loop $-1 $-1 $243 $362 #
vertex $-1 $244 $507 #
straight-curve $-1 33.398097952476974 49.975822096225869 13.686600523166243 1 0 0 I I #
coedge $-1 $370 $245 $497 $508 forward $363 $-1 #
coedge $-1 $245 $370 $247 $386 reversed $363 $-1 #
vertex $-1 $246 $509 #
straight-curve $-1 33.398097952476974 -49.975822096225869 13.686600523166243 -1 0 0 I I #
edge $-1 $250 -13.686600523166243 $374 -3.8108562943132025 $247 $510 forward 7 unknown #
edge $-1 $249 -13.686600523166243 $375 -3.8108562943132025 $248 $511 forward 7 unknown #
point $-1 76.093630787072357 49.975822096225869 13.686600523166243 #
point $-1 76.093630787072357 -49.975822096225869 13.686600523166243 #
loop $-1 $-1 $260 $252 #
plane-surface $-1 0 -49.975822096225869 0 0 1 0 0 0 1 forward_v I I I I #
coedge $-1 $393 $255 $257 $397 reversed $149 $-1 #
coedge $-1 $255 $392 $512 $513 reversed $149 $-1 #
coedge $-1 $263 $258 $255 $395 forward $253 $-1 #
edge $-1 $398 -33.865870952749752 $514 -23.9241325990576 $394 $515 forward 7 unknown #
coedge $-1 $257 $256 $401 $516 reversed $93 $-1 #
edge $-1 $517 -3.6615954734859901e-014 $398 12.978017827855137 $392 $518 forward 7 unknown #
vertex $-1 $259 $519 #
straight-curve $-1 -29.378817117396274 -40.034083742533717 16.583059739611336 -1 0 0 I I #
coedge $-1 $512 $260 $263 $405 reversed $390 $-1 #
coedge $-1 $260 $512 $396 $516 forward $390 $-1 #
vertex $-1 $261 $520 #
straight-curve $-1 -52.516097880449252 -49.975822096225869 62.411577806256574 0 0 1 I I #
straight-curve $-1 -52.516097880449252 -49.975822096225841 8.2409505790421207 0 -0.76604443648966558 -0.64278761758704617 I I #
edge $-1 $514 -64.999170589135844 $264 -52.516097880449252 $400 $521 forward 7 unknown #
point $-1 -52.516097880449252 -49.975822096225869 16.583059739611336 #
point $-1 -52.516097880449252 -40.034083742533717 16.583059739611336 #
edge $-1 $522 1 $522 0 $267 $-1 forward 7 unknown #
vertex $-1 $268 $523 #
ellipse-curve $-1 -61.432578386653958 -42.099667450699151 8.9496208370343062 0 -0.64278761758704617 0.76604443648966558 1.5 0 0 1 I I #
point $-1 -59.932578386653958 -45.004952919379811 12.412005159326734 #
edge $-1 $524 1 $524 0 $271 $-1 forward 7 unknown #
vertex $-1 $272 $525 #
ellipse-curve $-1 -56.08269008293113 -42.099667450699151 8.9496208370343062 0 -0.64278761758704617 0.76604443648966558 1.5 0 0 1 I I #
point $-1 -54.58269008293113 -45.004952919379811 12.412005159326734 #
plane-surface $-1 0 0 16.583059739611336 0 0 1 1 0 0 forward_v I I I I #
coedge $-1 $427 $426 $419 $526 forward $276 $-1 #
coedge $-1 $419 $278 $280 $423 reversed $171 $-1 #
coedge $-1 $278 $418 $417 $526 reversed $171 $-1 #
coedge $-1 $286 $281 $278 $421 forward $287 $-1 #
edge $-1 $424 14.541922676343376 $527 22.280193486220497 $420 $528 forward 7 unknown #
coedge $-1 $280 $279 $427 $529 reversed $107 $-1 #
edge $-1 $530 -99.951644192451738 $424 -90.504959767107351 $418 $531 forward 7 unknown #
vertex $-1 $282 $532 #
straight-curve $-1 -16.462748175651154 42.237551286348733 16.583059739611343 1 0 0 I I #
coedge $-1 $417 $283 $286 $431 reversed $276 $-1 #
coedge $-1 $283 $417 $422 $529 forward $276 $-1 #
vertex $-1 $284 $533 #
straight-curve $-1 -46.393371380460216 49.975822096225869 96.579539174712991 0 0 1 I I #
straight-curve $-1 -46.393371380460216 -31.899771056709966 68.494572703954105 0 0.81915203911291934 -0.57357644374324357 I I #
edge $-1 $527 19.457621322144398 $288 46.393371380460216 $426 $534 forward 7 unknown #
point $-1 -46.393371380460216 49.975822096225869 16.583059739611336 #
point $-1 -46.393371380460216 42.237551286348747 16.583059739611336 #
edge $-1 $535 1 $535 0 $291 $-1 forward 7 unknown #
vertex $-1 $292 $536 #
ellipse-curve $-1 -32.925496351302307 44.852720135789689 12.083012108325617 0 0.57357644374324357 0.81915203911291934 2 0 0 1 I I #
point $-1 -30.925496351302307 46.106686691287322 13.873861910684484 #
loop $-1 $-1 $303 $295 #
plane-surface $-1 0 49.975822096225869 0 0 -1 0 0 0 -1 forward_v I I I I #
coedge $-1 $441 $298 $300 $445 reversed $186 $-1 #
coedge $-1 $298 $440 $537 $538 reversed $186 $-1 #
coedge $-1 $306 $301 $298 $443 forward $296 $-1 #
edge $-1 $446 14.541922676343376 $539 22.280193486220497 $442 $540 forward 7 unknown #
coedge $-1 $300 $299 $449 $541 reversed $116 $-1 #
edge $-1 $542 -99.951644192451738 $446 -90.504959767107351 $440 $543 forward 7 unknown #
vertex $-1 $302 $544 #
straight-curve $-1 14.161734727341688 42.237551286348733 16.583059739611343 1 0 0 I I #
coedge $-1 $537 $303 $306 $453 reversed $438 $-1 #
coedge $-1 $303 $537 $444 $541 forward $438 $-1 #
vertex $-1 $304 $545 #
straight-curve $-1 14.855594425525467 49.975822096225869 96.579539174712991 0 0 1 I I #
straight-curve $-1 14.855594425525467 -31.899771056709966 68.494572703954105 0 0.81915203911291934 -0.57357644374324357 I I #
edge $-1 $539 -41.791344483841286 $307 -14.855594425525467 $448 $546 forward 7 unknown #
point $-1 14.855594425525467 49.975822096225869 16.583059739611336 #
point $-1 14.855594425525467 42.237551286348747 16.583059739611336 #
edge $-1 $547 1 $547 0 $310 $-1 forward 7 unknown #
vertex $-1 $311 $548 #
ellipse-curve $-1 28.323469454683377 44.852720135789689 12.083012108325617 0 0.57357644374324357 0.81915203911291934 2 0 0 1 I I #
point $-1 30.323469454683377 46.106686691287322 13.873861910684484 #
plane-surface $-1 76.093630787072357 0 0 -1 0 0 0 0 1 forward_v I I I I #
coedge $-1 $462 $317 $330 $472 forward $201 $-1 #
coedge $-1 $319 $461 $321 $465 reversed $201 $-1 #
vertex $-1 $465 $549 #
straight-curve $-1 -76.093630787072357 -49.975822096225869 0 0 0 -1 I I #
edge $-1 $463 -49.975822096225869 $467 49.975822096225869 $462 $550 forward 7 unknown #
straight-curve $-1 0 -49.975822096225869 -16.583059739611336 -1 0 0 I I #
vertex $-1 $324 $551 #
straight-curve $-1 0 49.975822096225869 -16.583059739611336 1 0 0 I I #
point $-1 76.093630787072357 49.975822096225869 -16.583059739611336 #
point $-1 76.093630787072357 -49.975822096225869 -16.583059739611336 #
straight-curve $-1 -76.093630787072357 0 16.583059739611336 0 -1 0 I I #
edge $-1 $331 -16.583059739611336 $467 16.583059739611336 $330 $552 forward 7 unknown #
point $-1 -76.093630787072357 49.975822096225869 16.583059739611336 #
point $-1 -76.093630787072357 -49.975822096225869 16.583059739611336 #
straight-curve $-1 76.093630787072357 -49.975822096225869 0 0 0 -1 I I #
straight-curve $-1 76.093630787072357 49.975822096225869 0 0 0 -1 I I #
loop $-1 $-1 $353 $340 #
plane-surface $-1 0 -49.975822096225869 0 0 1 0 0 0 1 forward_v I I I I #
coedge $-1 $344 $343 $487 $553 reversed $133 $-1 #
coedge $-1 $356 $355 $343 $481 forward $341 $-1 #
edge $-1 $554 -3.387515194161459 $484 3.387515194161459 $343 $555 forward 7 unknown #
edge $-1 $483 -3.387515194161459 $488 3.387515194161459 $344 $556 forward 7 unknown #
vertex $-1 $348 $557 #
vertex $-1 $359 $558 #
straight-curve $-1 -87.18809098500887 -43.200791707902951 0 0 0 -1 I I #
straight-curve $-1 -81.640860886040613 -43.200791707902951 16.583059739611336 -1 0 0 I I #
coedge $-1 $491 $349 $479 $553 forward $477 $-1 #
vertex $-1 $482 $559 #
straight-curve $-1 0 -49.975822096225869 16.583059739611336 1 0 0 I I #
point $-1 -76.093630787072357 -49.975822096225869 16.583059739611336 #
coedge $-1 $353 $487 $355 $493 reversed $477 $-1 #
straight-curve $-1 -76.093630787072357 -49.975822096225869 0 0 0 1 I I #
edge $-1 $357 -5.5472300989682566 $554 5.5472300989682566 $491 $560 forward 7 unknown #
point $-1 -76.093630787072357 -49.975822096225869 -16.583059739611336 #
straight-curve $-1 -81.640860886040613 -43.200791707902951 -16.583059739611336 1 0 0 I I #
plane-surface $-1 0 49.975822096225869 0 0 -1 0 0 0 -1 forward_v I I I I #
coedge $-1 $366 $365 $382 $508 reversed $141 $-1 #
edge $-1 $501 -49.975822096225869 $499 49.975822096225869 $365 $561 forward 7 unknown #
vertex $-1 $373 $562 #
straight-curve $-1 57.498761022835538 49.975822096225869 4.3743642043698614 0 0 1 I I #
vertex $-1 $371 $563 #
straight-curve $-1 33.398097952476974 -49.975822096225869 3.8108562943132025 1 0 0 I I #
straight-curve $-1 33.398097952476974 49.975822096225869 3.8108562943132025 -1 0 0 I I #
point $-1 76.093630787072357 -49.975822096225869 3.8108562943132025 #
point $-1 76.093630787072357 49.975822096225869 3.8108562943132025 #
straight-curve $-1 57.498761022835538 0 13.686600523166243 0 -1 0 I I #
point $-1 57.498761022835538 49.975822096225869 13.686600523166243 #
edge $-1 $384 -9.3122363187963817 $501 0.5635079100566589 $382 $564 forward 7 unknown #
point $-1 57.498761022835538 -49.975822096225869 13.686600523166243 #
straight-curve $-1 76.093630787072357 -49.975822096225869 0 0 0 -1 I I #
straight-curve $-1 76.093630787072357 49.975822096225869 0 0 0 -1 I I #
coedge $-1 $401 $400 $393 $513 forward $390 $-1 #
edge $-1 $514 45.828518066645238 $517 54.170627227214474 $512 $565 forward 7 unknown #
vertex $-1 $405 $566 #
straight-curve $-1 -64.999170589135844 -73.899954695283469 16.583059739611336 0 -1 0 I I #
edge $-1 $517 -35.62035347173957 $402 -23.137280763052978 $401 $567 forward 7 unknown #
vertex $-1 $516 $568 #
straight-curve $-1 -64.999170589135844 -49.975822096225841 8.2409505790421207 0 0.76604443648966558 0.64278761758704617 I I #
point $-1 -64.999170589135844 -40.034083742533717 16.583059739611336 #
point $-1 -52.516097880449252 -49.975822096225869 8.2409505790420976 #
straight-curve $-1 0 -49.975822096225869 16.583059739611336 1 0 0 I I #
vertex $-1 $408 $569 #
point $-1 -59.932578386653958 -42.099667450699151 8.9496208370343062 #
vertex $-1 $412 $570 #
point $-1 -54.58269008293113 -42.099667450699151 8.9496208370343062 #
edge $-1 $527 79.996479435101662 $530 85.414875092955384 $417 $571 forward 7 unknown #
vertex $-1 $431 $572 #
straight-curve $-1 -19.457621322144398 27.695628610005372 16.583059739611343 0 1 0 I I #
edge $-1 $530 2.9948731464932443 $428 29.930623204809063 $427 $573 forward 7 unknown #
vertex $-1 $529 $574 #
straight-curve $-1 -19.457621322144398 -31.899771056709966 68.494572703954105 0 -0.81915203911291934 0.57357644374324357 I I #
point $-1 -19.457621322144398 42.237551286348747 16.583059739611336 #
point $-1 -46.393371380460216 49.975822096225869 11.164664081757607 #
straight-curve $-1 0 49.975822096225869 16.583059739611336 -1 0 0 I I #
vertex $-1 $434 $575 #
point $-1 -30.925496351302307 44.852720135789689 12.083012108325617 #
coedge $-1 $449 $448 $441 $538 forward $438 $-1 #
edge $-1 $539 79.996479435101662 $542 85.414875092955384 $537 $576 forward 7 unknown #
vertex $-1 $453 $577 #
straight-curve $-1 41.791344483841286 27.695628610005372 16.583059739611343 0 1 0 I I #
edge $-1 $542 -27.629609756499597 $450 -0.69385969818377902 $449 $578 forward 7 unknown #
vertex $-1 $541 $579 #
straight-curve $-1 41.791344483841286 -31.899771056709966 68.494572703954105 0 -0.81915203911291934 0.57357644374324357 I I #
point $-1 41.791344483841286 42.237551286348747 16.583059739611336 #
point $-1 14.855594425525467 49.975822096225869 11.164664081757607 #
straight-curve $-1 0 49.975822096225869 16.583059739611336 -1 0 0 I I #
vertex $-1 $456 $580 #
point $-1 30.323469454683377 44.852720135789689 12.083012108325617 #
point $-1 -76.093630787072357 -49.975822096225869 -16.583059739611336 #
straight-curve $-1 -76.093630787072357 0 -16.583059739611336 0 1 0 I I #
point $-1 -76.093630787072357 49.975822096225869 -16.583059739611336 #
straight-curve $-1 -76.093630787072357 49.975822096225869 0 0 0 -1 I I #
edge $-1 $488 -16.583059739611336 $554 16.583059739611336 $479 $581 forward 7 unknown #
vertex $-1 $481 $582 #
straight-curve $-1 -87.18809098500887 -46.58830690206441 -16.583059739611336 0 1 0 I I #
straight-curve $-1 -87.18809098500887 -46.58830690206441 16.583059739611336 0 -1 0 I I #
point $-1 -87.18809098500887 -43.200791707902951 16.583059739611336 #
point $-1 -87.18809098500887 -43.200791707902951 -16.583059739611336 #
point $-1 -87.18809098500887 -49.975822096225869 16.583059739611336 #
straight-curve $-1 -81.640860886040613 -49.975822096225869 -16.583059739611336 -1 0 0 I I #
straight-curve $-1 57.498761022835538 0 3.8108562943132025 0 1 0 I I #
point $-1 57.498761022835538 49.975822096225869 3.8108562943132025 #
point $-1 57.498761022835538 -49.975822096225869 3.8108562943132025 #
straight-curve $-1 57.498761022835538 -49.975822096225869 4.3743642043698614 0 0 -1 I I #
straight-curve $-1 -64.999170589135844 -49.975822096225869 62.411577806256574 0 0 -1 I I #
point $-1 -64.999170589135844 -49.975822096225869 16.583059739611336 #
straight-curve $-1 -29.378817117396274 -49.975822096225869 8.2409505790420976 1 0 0 I I #
point $-1 -64.999170589135844 -49.975822096225869 8.2409505790420976 #
point $-1 -61.432578386653958 -41.135486024318588 7.8005541822998081 #
point $-1 -56.08269008293113 -41.135486024318588 7.8005541822998081 #
straight-curve $-1 -19.457621322144398 49.975822096225869 96.579539174712991 0 0 -1 I I #
point $-1 -19.457621322144398 49.975822096225869 16.583059739611336 #
straight-curve $-1 -16.462748175651154 49.975822096225876 11.164664081757603 -1 0 0 I I #
point $-1 -19.457621322144398 49.975822096225869 11.164664081757607 #
point $-1 -32.925496351302307 43.705567248303204 10.444708030099777 #
straight-curve $-1 41.791344483841286 49.975822096225869 96.579539174712991 0 0 -1 I I #
point $-1 41.791344483841286 49.975822096225869 16.583059739611336 #
straight-curve $-1 14.161734727341688 49.975822096225876 11.164664081757603 -1 0 0 I I #
point $-1 41.791344483841286 49.975822096225869 11.164664081757607 #
point $-1 28.323469454683377 43.705567248303204 10.444708030099777 #
straight-curve $-1 -87.18809098500887 -49.975822096225869 0 0 0 -1 I I #
point $-1 -87.18809098500887 -49.975822096225869 -16.583059739611336 #
End-of-ACIS-data 