500 0 17 0           
7 Unknown 11 ACIS 5.0 NT 24 Thu Mar 25 20:37:05 1999 
-1 9.9999999999999995e-007 1e-010 
body $-1 $17 $-1 $18 #
body $-1 $19 $-1 $20 #
body $-1 $21 $-1 $22 #
body $-1 $23 $-1 $24 #
body $-1 $25 $-1 $26 #
body $-1 $27 $-1 $28 #
body $-1 $29 $-1 $30 #
body $-1 $31 $-1 $32 #
body $-1 $33 $-1 $34 #
body $-1 $35 $-1 $36 #
body $-1 $37 $-1 $38 #
body $-1 $39 $-1 $40 #
body $-1 $41 $-1 $42 #
body $-1 $43 $-1 $44 #
body $-1 $45 $-1 $46 #
body $-1 $47 $-1 $48 #
body $-1 $49 $-1 $50 #
lump $-1 $-1 $51 $0 #
transform $-1 1 0 0 0 1 0 0 0 1 74.994964445936461 45.662542669786014 22.459192753001687 1 rotate no_reflect no_shear #
lump $-1 $-1 $52 $1 #
transform $-1 1 0 0 0 1 0 0 0 1 74.994964445936461 45.662542669786014 22.459192753001687 1 rotate no_reflect no_shear #
lump $-1 $-1 $53 $2 #
transform $-1 1 0 0 0 1 0 0 0 1 74.994964445936461 45.662542669786014 22.459192753001687 1 rotate no_reflect no_shear #
lump $-1 $-1 $54 $3 #
transform $-1 1 0 0 0 1 0 0 0 1 74.994964445936461 45.662542669786014 22.459192753001687 1 rotate no_reflect no_shear #
lump $-1 $-1 $55 $4 #
transform $-1 1 0 0 0 1 0 0 0 1 74.994964445936461 45.662542669786014 22.459192753001687 1 rotate no_reflect no_shear #
lump $-1 $-1 $56 $5 #
transform $-1 1 0 0 0 1 0 0 0 1 74.994964445936461 45.662542669786014 22.459192753001687 1 rotate no_reflect no_shear #
lump $-1 $-1 $57 $6 #
transform $-1 1 0 0 0 1 0 0 0 1 74.994964445936461 45.662542669786014 22.459192753001687 1 rotate no_reflect no_shear #
lump $-1 $-1 $58 $7 #
transform $-1 1 0 0 0 1 0 0 0 1 74.994964445936461 45.662542669786014 22.459192753001687 1 rotate no_reflect no_shear #
lump $-1 $-1 $59 $8 #
transform $-1 1 0 0 0 1 0 0 0 1 74.994964445936461 45.662542669786014 22.459192753001687 1 rotate no_reflect no_shear #
lump $-1 $-1 $60 $9 #
transform $-1 1 0 0 0 1 0 0 0 1 74.994964445936461 45.662542669786014 22.459192753001687 1 rotate no_reflect no_shear #
lump $-1 $-1 $61 $10 #
transform $-1 1 0 0 0 1 0 0 0 1 74.994964445936461 45.662542669786014 22.459192753001687 1 rotate no_reflect no_shear #
lump $-1 $-1 $62 $11 #
transform $-1 1 0 0 0 1 0 0 0 1 74.994964445936461 45.662542669786014 22.459192753001687 1 rotate no_reflect no_shear #
lump $-1 $-1 $63 $12 #
transform $-1 1 0 0 0 1 0 0 0 1 74.994964445936461 45.662542669786014 22.459192753001687 1 rotate no_reflect no_shear #
lump $-1 $-1 $64 $13 #
transform $-1 1 0 0 0 1 0 0 0 1 74.994964445936461 45.662542669786014 22.459192753001687 1 rotate no_reflect no_shear #
lump $-1 $-1 $65 $14 #
transform $-1 1 0 0 0 1 0 0 0 1 74.994964445936461 45.662542669786014 22.459192753001687 1 rotate no_reflect no_shear #
lump $-1 $-1 $66 $15 #
transform $-1 1 0 0 0 1 0 0 0 1 74.994964445936461 45.662542669786014 22.459192753001687 1 rotate no_reflect no_shear #
lump $-1 $-1 $67 $16 #
transform $-1 1 0 0 0 1 0 0 0 1 74.994964445936461 45.662542669786014 22.459192753001687 1 rotate no_reflect no_shear #
shell $-1 $-1 $-1 $68 $-1 $17 #
shell $-1 $-1 $-1 $69 $-1 $19 #
shell $-1 $-1 $-1 $70 $-1 $21 #
shell $-1 $-1 $-1 $71 $-1 $23 #
shell $-1 $-1 $-1 $72 $-1 $25 #
shell $-1 $-1 $-1 $73 $-1 $27 #
shell $-1 $-1 $-1 $74 $-1 $29 #
shell $-1 $-1 $-1 $75 $-1 $31 #
shell $-1 $-1 $-1 $76 $-1 $33 #
shell $-1 $-1 $-1 $77 $-1 $35 #
shell $-1 $-1 $-1 $78 $-1 $37 #
shell $-1 $-1 $-1 $79 $-1 $39 #
shell $-1 $-1 $-1 $80 $-1 $41 #
shell $-1 $-1 $-1 $81 $-1 $43 #
shell $-1 $-1 $-1 $82 $-1 $45 #
shell $-1 $-1 $-1 $83 $-1 $47 #
shell $-1 $-1 $-1 $84 $-1 $49 #
face $-1 $85 $86 $51 $-1 $87 forward single #
face $-1 $88 $89 $52 $-1 $90 forward single #
face $-1 $91 $92 $53 $-1 $93 reversed single #
face $-1 $94 $95 $54 $-1 $96 forward single #
face $-1 $97 $98 $55 $-1 $99 forward single #
face $-1 $100 $101 $56 $-1 $102 reversed single #
face $-1 $103 $104 $57 $-1 $105 forward single #
face $-1 $106 $107 $58 $-1 $108 forward single #
face $-1 $109 $110 $59 $-1 $111 reversed single #
face $-1 $112 $113 $60 $-1 $114 forward single #
face $-1 $115 $116 $61 $-1 $117 forward single #
face $-1 $118 $119 $62 $-1 $120 reversed single #
face $-1 $121 $122 $63 $-1 $123 forward single #
face $-1 $124 $125 $64 $-1 $126 forward single #
face $-1 $127 $128 $65 $-1 $129 reversed single #
face $-1 $130 $131 $66 $-1 $132 forward single #
face $-1 $133 $134 $67 $-1 $135 forward single #
face $-1 $136 $137 $51 $-1 $138 reversed single #
loop $-1 $-1 $139 $68 #
plane-surface $-1 0 0 22.459192753001687 0 0 1 1 0 0 forward_v I I I I #
face $-1 $140 $141 $52 $-1 $142 reversed single #
loop $-1 $-1 $143 $69 #
plane-surface $-1 -74.994964445936461 0 0 1 0 0 0 0 -1 forward_v I I I I #
face $-1 $144 $145 $53 $-1 $146 reversed single #
loop $-1 $-1 $147 $70 #
plane-surface $-1 16.371559589077933 -129.5358475882779 143.42224755765596 -1 0 0 0 -0.55919291073839883 0.82903756765294845 forward_v I I I I #
face $-1 $148 $149 $54 $-1 $150 forward single #
loop $-1 $151 $152 $71 #
cone-surface $-1 -6.033240426508101 -42.674382378343772 20.056195304533986 0 0.55919291073839883 -0.82903756765294845 1 0 0 1 I I 0 1 1 forward I I I I #
face $-1 $153 $154 $55 $-1 $155 forward single #
loop $-1 $156 $157 $72 #
cone-surface $-1 7.4096395828435107 -42.674382378343772 20.056195304533986 0 0.55919291073839883 -0.82903756765294845 1 0 0 1 I I 0 1 1 forward I I I I #
face $-1 $158 $159 $56 $-1 $160 reversed single #
loop $-1 $-1 $161 $73 #
plane-surface $-1 -57.086679832800328 75.140874786525814 182.88554053429039 1 0 0 0 -0.6560590369687036 -0.75470957328743171 forward_v I I I I #
face $-1 $162 $163 $57 $-1 $164 forward single #
loop $-1 $165 $166 $74 #
cone-surface $-1 -50.941951444538056 36.400980523539829 13.856160642383724 0 -0.6560590369687036 -0.75470957328743171 1.5 0 0 1 I I 0 1 1.5 forward I I I I #
face $-1 $167 $168 $58 $-1 $169 forward single #
loop $-1 $170 $171 $75 #
cone-surface $-1 -41.724858862144636 36.400980523539829 13.856160642383724 0 -0.6560590369687036 -0.75470957328743171 1.5 0 0 1 I I 0 1 1.5 forward I I I I #
face $-1 $172 $173 $59 $-1 $174 reversed single #
loop $-1 $-1 $175 $76 #
plane-surface $-1 -24.066268763116131 75.140874786525814 182.88554053429039 1 0 0 0 -0.6560590369687036 -0.75470957328743171 forward_v I I I I #
face $-1 $176 $177 $60 $-1 $178 forward single #
loop $-1 $179 $180 $77 #
cone-surface $-1 -17.921540374853855 36.400980523539829 13.856160642383724 0 -0.6560590369687036 -0.75470957328743171 1.5 0 0 1 I I 0 1 1.5 forward I I I I #
face $-1 $181 $182 $61 $-1 $183 forward single #
loop $-1 $184 $185 $78 #
cone-surface $-1 -8.704447792460428 36.400980523539829 13.856160642383724 0 -0.6560590369687036 -0.75470957328743171 1.5 0 0 1 I I 0 1 1.5 forward I I I I #
face $-1 $186 $187 $62 $-1 $188 reversed single #
loop $-1 $-1 $189 $79 #
plane-surface $-1 8.9541423065680696 75.140874786525814 182.88554053429039 1 0 0 0 -0.6560590369687036 -0.75470957328743171 forward_v I I I I #
face $-1 $190 $191 $63 $-1 $192 forward single #
loop $-1 $193 $194 $80 #
cone-surface $-1 15.098870694830339 36.400980523539829 13.856160642383724 0 -0.6560590369687036 -0.75470957328743171 1.5 0 0 1 I I 0 1 1.5 forward I I I I #
face $-1 $195 $196 $64 $-1 $197 forward single #
loop $-1 $198 $199 $81 #
cone-surface $-1 24.315963277223773 36.400980523539829 13.856160642383724 0 -0.6560590369687036 -0.75470957328743171 1.5 0 0 1 I I 0 1 1.5 forward I I I I #
face $-1 $200 $201 $65 $-1 $202 reversed single #
loop $-1 $-1 $203 $82 #
plane-surface $-1 41.974553376252274 75.140874786525814 182.88554053429039 1 0 0 0 -0.6560590369687036 -0.75470957328743171 forward_v I I I I #
face $-1 $204 $205 $66 $-1 $206 forward single #
loop $-1 $207 $208 $83 #
cone-surface $-1 48.11928176451454 36.400980523539829 13.856160642383724 0 -0.6560590369687036 -0.75470957328743171 1.5 0 0 1 I I 0 1 1.5 forward I I I I #
face $-1 $209 $210 $67 $-1 $211 forward single #
loop $-1 $212 $213 $84 #
cone-surface $-1 57.336374346907974 36.400980523539829 13.856160642383724 0 -0.6560590369687036 -0.75470957328743171 1.5 0 0 1 I I 0 1 1.5 forward I I I I #
face $-1 $214 $215 $51 $-1 $216 reversed single #
loop $-1 $-1 $217 $85 #
plane-surface $-1 0 0 -22.459192753001687 0 0 1 1 0 0 forward_v I I I I #
coedge $-1 $218 $219 $220 $221 forward $86 $-1 #
face $-1 $222 $223 $52 $-1 $224 forward single #
loop $-1 $-1 $225 $88 #
plane-surface $-1 0 45.662542669786014 0 0 -1 0 0 0 -1 forward_v I I I I #
coedge $-1 $226 $227 $228 $229 forward $89 $-1 #
face $-1 $230 $231 $53 $-1 $232 reversed single #
loop $-1 $-1 $233 $91 #
plane-surface $-1 0.68819957816771193 -45.662542669786021 19.074961736698938 0 -0.55919291073839883 0.82903756765294845 1 0 0 forward_v I I I I #
coedge $-1 $234 $235 $236 $237 reversed $92 $-1 #
face $-1 $-1 $238 $54 $-1 $239 forward single #
loop $-1 $240 $241 $94 #
cone-surface $-1 -6.033240426508101 -41.915289990694632 18.930794580391193 0 0.55919291073839883 -0.82903756765294845 0.5 0 0 1 I I -0.70710678118654746 0.70710678118654746 0.5 forward I I I I #
loop $-1 $-1 $242 $71 #
coedge $-1 $152 $152 $243 $244 reversed $95 $-1 #
face $-1 $-1 $245 $55 $-1 $246 forward single #
loop $-1 $247 $248 $97 #
cone-surface $-1 7.4096395828435107 -41.915289990694632 18.930794580391193 0 0.55919291073839883 -0.82903756765294845 0.5 0 0 1 I I -0.70710678118654746 0.70710678118654746 0.5 forward I I I I #
loop $-1 $-1 $249 $72 #
coedge $-1 $157 $157 $250 $251 reversed $98 $-1 #
face $-1 $252 $253 $56 $-1 $254 reversed single #
loop $-1 $-1 $255 $100 #
plane-surface $-1 -46.333405153341346 -23.261373517280674 69.686705302892747 0 0.6560590369687036 0.75470957328743171 1 0 0 forward_v I I I I #
coedge $-1 $256 $257 $258 $259 reversed $101 $-1 #
face $-1 $-1 $260 $57 $-1 $261 forward single #
loop $-1 $262 $263 $103 #
cone-surface $-1 -50.941951444538056 33.944813578554339 11.030663846336815 0 -0.6560590369687036 -0.75470957328743171 0.75 0 0 1 I I -0.70710678118654757 0.70710678118654757 0.75 forward I I I I #
loop $-1 $-1 $264 $74 #
coedge $-1 $166 $166 $265 $266 reversed $104 $-1 #
face $-1 $-1 $267 $58 $-1 $268 forward single #
loop $-1 $269 $270 $106 #
cone-surface $-1 -41.724858862144636 33.944813578554339 11.030663846336815 0 -0.6560590369687036 -0.75470957328743171 0.75 0 0 1 I I -0.70710678118654757 0.70710678118654757 0.75 forward I I I I #
loop $-1 $-1 $271 $75 #
coedge $-1 $171 $171 $272 $273 reversed $107 $-1 #
face $-1 $274 $275 $59 $-1 $276 reversed single #
loop $-1 $-1 $277 $109 #
plane-surface $-1 -13.312994083657145 -23.261373517280674 69.686705302892747 0 0.6560590369687036 0.75470957328743171 1 0 0 forward_v I I I I #
coedge $-1 $278 $279 $280 $281 reversed $110 $-1 #
face $-1 $-1 $282 $60 $-1 $283 forward single #
loop $-1 $284 $285 $112 #
cone-surface $-1 -17.921540374853855 33.944813578554339 11.030663846336815 0 -0.6560590369687036 -0.75470957328743171 0.75 0 0 1 I I -0.70710678118654757 0.70710678118654757 0.75 forward I I I I #
loop $-1 $-1 $286 $77 #
coedge $-1 $180 $180 $287 $288 reversed $113 $-1 #
face $-1 $-1 $289 $61 $-1 $290 forward single #
loop $-1 $291 $292 $115 #
cone-surface $-1 -8.704447792460428 33.944813578554339 11.030663846336815 0 -0.6560590369687036 -0.75470957328743171 0.75 0 0 1 I I -0.70710678118654757 0.70710678118654757 0.75 forward I I I I #
loop $-1 $-1 $293 $78 #
coedge $-1 $185 $185 $294 $295 reversed $116 $-1 #
face $-1 $296 $297 $62 $-1 $298 reversed single #
loop $-1 $-1 $299 $118 #
plane-surface $-1 19.707416986027056 -23.261373517280674 69.686705302892747 0 0.6560590369687036 0.75470957328743171 1 0 0 forward_v I I I I #
coedge $-1 $300 $301 $302 $303 reversed $119 $-1 #
face $-1 $-1 $304 $63 $-1 $305 forward single #
loop $-1 $306 $307 $121 #
cone-surface $-1 15.098870694830339 33.944813578554339 11.030663846336815 0 -0.6560590369687036 -0.75470957328743171 0.75 0 0 1 I I -0.70710678118654757 0.70710678118654757 0.75 forward I I I I #
loop $-1 $-1 $308 $80 #
coedge $-1 $194 $194 $309 $310 reversed $122 $-1 #
face $-1 $-1 $311 $64 $-1 $312 forward single #
loop $-1 $313 $314 $124 #
cone-surface $-1 24.315963277223773 33.944813578554339 11.030663846336815 0 -0.6560590369687036 -0.75470957328743171 0.75 0 0 1 I I -0.70710678118654757 0.70710678118654757 0.75 forward I I I I #
loop $-1 $-1 $315 $81 #
coedge $-1 $199 $199 $316 $317 reversed $125 $-1 #
face $-1 $318 $319 $65 $-1 $320 reversed single #
loop $-1 $-1 $321 $127 #
plane-surface $-1 52.727828055711257 -23.261373517280674 69.686705302892747 0 0.6560590369687036 0.75470957328743171 1 0 0 forward_v I I I I #
coedge $-1 $322 $323 $324 $325 reversed $128 $-1 #
face $-1 $-1 $326 $66 $-1 $327 forward single #
loop $-1 $328 $329 $130 #
cone-surface $-1 48.11928176451454 33.944813578554339 11.030663846336815 0 -0.6560590369687036 -0.75470957328743171 0.75 0 0 1 I I -0.70710678118654757 0.70710678118654757 0.75 forward I I I I #
loop $-1 $-1 $330 $83 #
coedge $-1 $208 $208 $331 $332 reversed $131 $-1 #
face $-1 $-1 $333 $67 $-1 $334 forward single #
loop $-1 $335 $336 $133 #
cone-surface $-1 57.336374346907974 33.944813578554339 11.030663846336815 0 -0.6560590369687036 -0.75470957328743171 0.75 0 0 1 I I -0.70710678118654757 0.70710678118654757 0.75 forward I I I I #
loop $-1 $-1 $337 $84 #
coedge $-1 $213 $213 $338 $339 reversed $134 $-1 #
face $-1 $340 $341 $51 $-1 $342 reversed single #
loop $-1 $-1 $343 $136 #
plane-surface $-1 0 -45.662542669786014 0 0 1 0 0 0 1 forward_v I I I I #
coedge $-1 $344 $345 $346 $347 forward $137 $-1 #
coedge $-1 $348 $139 $349 $350 forward $86 $-1 #
coedge $-1 $139 $348 $351 $352 forward $86 $-1 #
coedge $-1 $353 $354 $139 $221 reversed $355 $-1 #
edge $-1 $356 -45.662542669786014 $357 45.662542669786014 $220 $358 forward 7 unknown #
face $-1 $359 $360 $52 $-1 $361 reversed single #
loop $-1 $-1 $228 $140 #
plane-surface $-1 -83.94910675250452 0 -1.3983022171011088 0 0 1 1 0 0 forward_v I I I I #
coedge $-1 $362 $363 $227 $364 forward $141 $-1 #
coedge $-1 $365 $143 $366 $367 reversed $89 $-1 #
coedge $-1 $143 $365 $225 $364 reversed $89 $-1 #
coedge $-1 $368 $369 $143 $229 reversed $223 $-1 #
edge $-1 $370 -45.662542669786014 $371 45.662542669786014 $228 $372 forward 7 unknown #
face $-1 $373 $374 $53 $-1 $375 reversed single #
loop $-1 $-1 $376 $144 #
plane-surface $-1 -14.995160432742509 -129.5358475882779 143.42224755765596 1 0 0 0 0.55919291073839883 -0.82903756765294845 forward_v I I I I #
coedge $-1 $377 $378 $379 $380 reversed $145 $-1 #
coedge $-1 $235 $147 $381 $382 reversed $92 $-1 #
coedge $-1 $147 $234 $377 $383 reversed $92 $-1 #
coedge $-1 $379 $384 $147 $237 forward $385 $-1 #
edge $-1 $386 19.105381124352938 $387 24.122709842677537 $236 $388 forward 7 unknown #
loop $-1 $-1 $243 $148 #
plane-surface $-1 0.68819957816771193 -45.662542669786021 19.074961736698938 0 -0.55919291073839883 0.82903756765294845 1 0 0 forward_v I I I I #
loop $-1 $-1 $389 $94 #
coedge $-1 $241 $241 $242 $390 reversed $149 $-1 #
coedge $-1 $242 $242 $241 $390 forward $151 $-1 #
coedge $-1 $243 $243 $152 $244 forward $238 $-1 #
edge $-1 $391 1.9173616075430972e-015 $391 6.2831853071796022 $243 $392 forward 7 unknown #
loop $-1 $-1 $250 $153 #
plane-surface $-1 0.68819957816771193 -45.662542669786021 19.074961736698938 0 -0.55919291073839883 0.82903756765294845 1 0 0 forward_v I I I I #
loop $-1 $-1 $393 $97 #
coedge $-1 $248 $248 $249 $394 reversed $154 $-1 #
coedge $-1 $249 $249 $248 $394 forward $156 $-1 #
coedge $-1 $250 $250 $157 $251 forward $245 $-1 #
edge $-1 $395 1.9173616075430972e-015 $395 6.2831853071796022 $250 $396 forward 7 unknown #
face $-1 $397 $398 $56 $-1 $399 forward single #
loop $-1 $-1 $400 $158 #
plane-surface $-1 -35.580130473882363 75.140874786525814 182.88554053429039 -1 0 0 0 0.6560590369687036 0.75470957328743171 forward_v I I I I #
coedge $-1 $401 $402 $403 $404 reversed $159 $-1 #
coedge $-1 $257 $161 $405 $406 reversed $101 $-1 #
coedge $-1 $161 $256 $401 $407 reversed $101 $-1 #
coedge $-1 $403 $408 $161 $259 forward $398 $-1 #
edge $-1 $409 -8.0921052765231067 $410 6.5027736814513304 $258 $411 forward 7 unknown #
loop $-1 $-1 $265 $162 #
plane-surface $-1 -46.333405153341346 -23.261373517280674 69.686705302892747 0 0.6560590369687036 0.75470957328743171 1 0 0 forward_v I I I I #
loop $-1 $-1 $412 $103 #
coedge $-1 $263 $263 $264 $413 reversed $163 $-1 #
coedge $-1 $264 $264 $263 $413 forward $165 $-1 #
coedge $-1 $265 $265 $166 $266 forward $260 $-1 #
edge $-1 $414 3.1077198863191959e-015 $414 6.2831853071796031 $265 $415 forward 7 unknown #
loop $-1 $-1 $272 $167 #
plane-surface $-1 -46.333405153341346 -23.261373517280674 69.686705302892747 0 0.6560590369687036 0.75470957328743171 1 0 0 forward_v I I I I #
loop $-1 $-1 $416 $106 #
coedge $-1 $270 $270 $271 $417 reversed $168 $-1 #
coedge $-1 $271 $271 $270 $417 forward $170 $-1 #
coedge $-1 $272 $272 $171 $273 forward $267 $-1 #
edge $-1 $418 3.1077198863191959e-015 $418 6.2831853071796031 $272 $419 forward 7 unknown #
face $-1 $420 $421 $59 $-1 $422 forward single #
loop $-1 $-1 $423 $172 #
plane-surface $-1 -2.5597194041981588 75.140874786525814 182.88554053429039 -1 0 0 0 0.6560590369687036 0.75470957328743171 forward_v I I I I #
coedge $-1 $424 $425 $426 $427 reversed $173 $-1 #
coedge $-1 $279 $175 $428 $429 reversed $110 $-1 #
coedge $-1 $175 $278 $424 $430 reversed $110 $-1 #
coedge $-1 $426 $431 $175 $281 forward $421 $-1 #
edge $-1 $432 -8.0921052765231067 $433 6.5027736814513304 $280 $434 forward 7 unknown #
loop $-1 $-1 $287 $176 #
plane-surface $-1 -13.312994083657145 -23.261373517280674 69.686705302892747 0 0.6560590369687036 0.75470957328743171 1 0 0 forward_v I I I I #
loop $-1 $-1 $435 $112 #
coedge $-1 $285 $285 $286 $436 reversed $177 $-1 #
coedge $-1 $286 $286 $285 $436 forward $179 $-1 #
coedge $-1 $287 $287 $180 $288 forward $282 $-1 #
edge $-1 $437 3.1077198863191959e-015 $437 6.2831853071796031 $287 $438 forward 7 unknown #
loop $-1 $-1 $294 $181 #
plane-surface $-1 -13.312994083657145 -23.261373517280674 69.686705302892747 0 0.6560590369687036 0.75470957328743171 1 0 0 forward_v I I I I #
loop $-1 $-1 $439 $115 #
coedge $-1 $292 $292 $293 $440 reversed $182 $-1 #
coedge $-1 $293 $293 $292 $440 forward $184 $-1 #
coedge $-1 $294 $294 $185 $295 forward $289 $-1 #
edge $-1 $441 3.1077198863191959e-015 $441 6.2831853071796031 $294 $442 forward 7 unknown #
face $-1 $443 $444 $62 $-1 $445 forward single #
loop $-1 $-1 $446 $186 #
plane-surface $-1 30.460691665486042 75.140874786525814 182.88554053429039 -1 0 0 0 0.6560590369687036 0.75470957328743171 forward_v I I I I #
coedge $-1 $447 $448 $449 $450 reversed $187 $-1 #
coedge $-1 $301 $189 $451 $452 reversed $119 $-1 #
coedge $-1 $189 $300 $447 $453 reversed $119 $-1 #
coedge $-1 $449 $454 $189 $303 forward $444 $-1 #
edge $-1 $455 -8.0921052765231067 $456 6.5027736814513304 $302 $457 forward 7 unknown #
loop $-1 $-1 $309 $190 #
plane-surface $-1 19.707416986027056 -23.261373517280674 69.686705302892747 0 0.6560590369687036 0.75470957328743171 1 0 0 forward_v I I I I #
loop $-1 $-1 $458 $121 #
coedge $-1 $307 $307 $308 $459 reversed $191 $-1 #
coedge $-1 $308 $308 $307 $459 forward $193 $-1 #
coedge $-1 $309 $309 $194 $310 forward $304 $-1 #
edge $-1 $460 3.1077198863191959e-015 $460 6.2831853071796031 $309 $461 forward 7 unknown #
loop $-1 $-1 $316 $195 #
plane-surface $-1 19.707416986027056 -23.261373517280674 69.686705302892747 0 0.6560590369687036 0.75470957328743171 1 0 0 forward_v I I I I #
loop $-1 $-1 $462 $124 #
coedge $-1 $314 $314 $315 $463 reversed $196 $-1 #
coedge $-1 $315 $315 $314 $463 forward $198 $-1 #
coedge $-1 $316 $316 $199 $317 forward $311 $-1 #
edge $-1 $464 3.1077198863191959e-015 $464 6.2831853071796031 $316 $465 forward 7 unknown #
face $-1 $466 $467 $65 $-1 $468 forward single #
loop $-1 $-1 $469 $200 #
plane-surface $-1 63.481102735170239 75.140874786525814 182.88554053429039 -1 0 0 0 0.6560590369687036 0.75470957328743171 forward_v I I I I #
coedge $-1 $470 $471 $472 $473 reversed $201 $-1 #
coedge $-1 $323 $203 $474 $475 reversed $128 $-1 #
coedge $-1 $203 $322 $470 $476 reversed $128 $-1 #
coedge $-1 $472 $477 $203 $325 forward $467 $-1 #
edge $-1 $478 -8.0921052765231067 $479 6.5027736814513304 $324 $480 forward 7 unknown #
loop $-1 $-1 $331 $204 #
plane-surface $-1 52.727828055711257 -23.261373517280674 69.686705302892747 0 0.6560590369687036 0.75470957328743171 1 0 0 forward_v I I I I #
loop $-1 $-1 $481 $130 #
coedge $-1 $329 $329 $330 $482 reversed $205 $-1 #
coedge $-1 $330 $330 $329 $482 forward $207 $-1 #
coedge $-1 $331 $331 $208 $332 forward $326 $-1 #
edge $-1 $483 3.1077198863191959e-015 $483 6.2831853071796031 $331 $484 forward 7 unknown #
loop $-1 $-1 $338 $209 #
plane-surface $-1 52.727828055711257 -23.261373517280674 69.686705302892747 0 0.6560590369687036 0.75470957328743171 1 0 0 forward_v I I I I #
loop $-1 $-1 $485 $133 #
coedge $-1 $336 $336 $337 $486 reversed $210 $-1 #
coedge $-1 $337 $337 $336 $486 forward $212 $-1 #
coedge $-1 $338 $338 $213 $339 forward $333 $-1 #
edge $-1 $487 3.1077198863191959e-015 $487 6.2831853071796031 $338 $488 forward 7 unknown #
face $-1 $489 $490 $51 $-1 $491 reversed single #
loop $-1 $-1 $492 $214 #
plane-surface $-1 -74.994964445936461 0 0 1 0 0 0 0 -1 forward_v I I I I #
coedge $-1 $493 $351 $494 $495 forward $215 $-1 #
coedge $-1 $496 $217 $493 $497 forward $137 $-1 #
coedge $-1 $217 $496 $498 $499 forward $137 $-1 #
coedge $-1 $354 $353 $217 $347 reversed $355 $-1 #
edge $-1 $500 -45.662542669786014 $501 45.662542669786014 $346 $502 forward 7 unknown #
coedge $-1 $219 $218 $503 $504 forward $86 $-1 #
coedge $-1 $505 $506 $218 $350 reversed $490 $-1 #
edge $-1 $357 -74.994964445936461 $507 74.994964445936461 $349 $508 forward 7 unknown #
coedge $-1 $343 $509 $219 $352 reversed $215 $-1 #
edge $-1 $510 -74.994964445936461 $356 74.994964445936461 $351 $511 forward 7 unknown #
coedge $-1 $346 $220 $509 $512 forward $355 $-1 #
coedge $-1 $220 $346 $505 $513 reversed $355 $-1 #
loop $-1 $-1 $353 $489 #
vertex $-1 $221 $514 #
vertex $-1 $221 $515 #
straight-curve $-1 74.994964445936461 0 22.459192753001687 0 1 0 I I #
face $-1 $516 $517 $52 $-1 $518 reversed single #
loop $-1 $-1 $519 $222 #
plane-surface $-1 -83.94910675250452 0 -13.590161257438712 0 0 1 1 0 0 forward_v I I I I #
coedge $-1 $520 $225 $521 $522 reversed $141 $-1 #
coedge $-1 $225 $520 $368 $523 reversed $141 $-1 #
edge $-1 $370 1.3983022171011088 $524 13.590161257438712 $225 $525 forward 7 unknown #
coedge $-1 $227 $226 $519 $526 forward $89 $-1 #
coedge $-1 $527 $528 $226 $367 forward $529 $-1 #
edge $-1 $530 -13.590161257438712 $371 -1.3983022171011088 $366 $531 forward 7 unknown #
coedge $-1 $532 $228 $363 $523 forward $223 $-1 #
coedge $-1 $228 $532 $527 $533 forward $223 $-1 #
vertex $-1 $364 $534 #
vertex $-1 $533 $535 #
straight-curve $-1 -74.994964445936461 0 -1.3983022171011088 0 -1 0 I I #
face $-1 $-1 $385 $53 $-1 $536 forward single #
loop $-1 $-1 $537 $230 #
plane-surface $-1 0 -45.662542669786014 0 0 1 0 0 0 1 forward_v I I I I #
coedge $-1 $538 $539 $540 $541 reversed $231 $-1 #
coedge $-1 $542 $233 $235 $383 forward $145 $-1 #
coedge $-1 $233 $542 $538 $543 forward $145 $-1 #
coedge $-1 $540 $236 $233 $380 forward $385 $-1 #
edge $-1 $387 -16.027459799994077 $544 15.339260221826365 $379 $545 forward 7 unknown #
coedge $-1 $546 $547 $234 $382 forward $374 $-1 #
edge $-1 $548 -52.636162042129044 $386 -49.251931025826295 $381 $549 forward 7 unknown #
edge $-1 $387 -6.0519919893726204 $548 -7.8773185167488284e-015 $235 $550 forward 7 unknown #
coedge $-1 $236 $540 $546 $551 forward $385 $-1 #
loop $-1 $-1 $540 $373 #
vertex $-1 $382 $552 #
vertex $-1 $237 $553 #
straight-curve $-1 16.371559589077933 -64.767923794138952 22.459192753001687 0 1 0 I I #
coedge $-1 $389 $389 $-1 $554 reversed $240 $-1 #
edge $-1 $555 0 $555 6.2831853071796004 $241 $556 forward 7 unknown #
vertex $-1 $244 $557 #
ellipse-curve $-1 -6.033240426508101 -43.153878310623718 20.767077244850313 0 -0.55919291073839883 0.82903756765294845 1 0 0 1 I I #
coedge $-1 $393 $393 $-1 $558 reversed $247 $-1 #
edge $-1 $559 0 $559 6.2831853071796004 $248 $560 forward 7 unknown #
vertex $-1 $251 $561 #
ellipse-curve $-1 7.4096395828435107 -43.153878310623718 20.767077244850313 0 -0.55919291073839883 0.82903756765294845 1 0 0 1 I I #
face $-1 $-1 $562 $56 $-1 $563 reversed single #
loop $-1 $-1 $258 $252 #
plane-surface $-1 0 0 22.459192753001687 0 0 1 1 0 0 forward_v I I I I #
coedge $-1 $564 $565 $566 $567 reversed $253 $-1 #
coedge $-1 $568 $255 $257 $407 forward $159 $-1 #
coedge $-1 $255 $568 $564 $569 forward $159 $-1 #
coedge $-1 $566 $258 $255 $404 forward $398 $-1 #
edge $-1 $410 -33.919977256129656 $570 -12.41342789721169 $403 $571 forward 7 unknown #
coedge $-1 $572 $573 $256 $406 forward $562 $-1 #
edge $-1 $574 -81.670712503216734 $409 -68.983577514143505 $405 $575 forward 7 unknown #
edge $-1 $410 71.986680906194096 $574 91.325085339572013 $257 $576 forward 7 unknown #
coedge $-1 $258 $566 $572 $577 forward $398 $-1 #
vertex $-1 $259 $578 #
vertex $-1 $259 $579 #
straight-curve $-1 -57.086679832800328 37.570437393262907 22.459192753001687 0 -1 0 I I #
coedge $-1 $412 $412 $-1 $580 reversed $262 $-1 #
edge $-1 $581 0 $581 6.2831853071796004 $263 $582 forward 7 unknown #
vertex $-1 $266 $583 #
ellipse-curve $-1 -50.941951444538056 38.365103190798791 16.115625258465066 0 0.6560590369687036 0.75470957328743171 1.5 0 0 1 I I #
coedge $-1 $416 $416 $-1 $584 reversed $269 $-1 #
edge $-1 $585 0 $585 6.2831853071796004 $270 $586 forward 7 unknown #
vertex $-1 $273 $587 #
ellipse-curve $-1 -41.724858862144636 38.365103190798791 16.115625258465066 0 0.6560590369687036 0.75470957328743171 1.5 0 0 1 I I #
face $-1 $-1 $588 $59 $-1 $589 reversed single #
loop $-1 $-1 $280 $274 #
plane-surface $-1 0 0 22.459192753001687 0 0 1 1 0 0 forward_v I I I I #
coedge $-1 $590 $591 $592 $593 reversed $275 $-1 #
coedge $-1 $594 $277 $279 $430 forward $173 $-1 #
coedge $-1 $277 $594 $590 $595 forward $173 $-1 #
coedge $-1 $592 $280 $277 $427 forward $421 $-1 #
edge $-1 $433 -17.409771721287559 $596 4.0967776376304137 $426 $597 forward 7 unknown #
coedge $-1 $598 $599 $278 $429 forward $588 $-1 #
edge $-1 $600 -81.670712503216734 $432 -68.983577514143505 $428 $601 forward 7 unknown #
edge $-1 $433 71.986680906194096 $600 91.325085339572013 $279 $602 forward 7 unknown #
coedge $-1 $280 $592 $598 $603 forward $421 $-1 #
vertex $-1 $281 $604 #
vertex $-1 $281 $605 #
straight-curve $-1 -24.066268763116131 37.570437393262907 22.459192753001687 0 -1 0 I I #
coedge $-1 $435 $435 $-1 $606 reversed $284 $-1 #
edge $-1 $607 0 $607 6.2831853071796004 $285 $608 forward 7 unknown #
vertex $-1 $288 $609 #
ellipse-curve $-1 -17.921540374853855 38.365103190798791 16.115625258465066 0 0.6560590369687036 0.75470957328743171 1.5 0 0 1 I I #
coedge $-1 $439 $439 $-1 $610 reversed $291 $-1 #
edge $-1 $611 0 $611 6.2831853071796004 $292 $612 forward 7 unknown #
vertex $-1 $295 $613 #
ellipse-curve $-1 -8.704447792460428 38.365103190798791 16.115625258465066 0 0.6560590369687036 0.75470957328743171 1.5 0 0 1 I I #
face $-1 $-1 $614 $62 $-1 $615 reversed single #
loop $-1 $-1 $302 $296 #
plane-surface $-1 0 0 22.459192753001687 0 0 1 1 0 0 forward_v I I I I #
coedge $-1 $616 $617 $618 $619 reversed $297 $-1 #
coedge $-1 $620 $299 $301 $453 forward $187 $-1 #
coedge $-1 $299 $620 $616 $621 forward $187 $-1 #
coedge $-1 $618 $302 $299 $450 forward $444 $-1 #
edge $-1 $456 -0.89956618644545827 $622 20.606983172472514 $449 $623 forward 7 unknown #
coedge $-1 $624 $625 $300 $452 forward $614 $-1 #
edge $-1 $626 -81.670712503216734 $455 -68.983577514143505 $451 $627 forward 7 unknown #
edge $-1 $456 71.986680906194096 $626 91.325085339572013 $301 $628 forward 7 unknown #
coedge $-1 $302 $618 $624 $629 forward $444 $-1 #
vertex $-1 $303 $630 #
vertex $-1 $303 $631 #
straight-curve $-1 8.9541423065680696 37.570437393262907 22.459192753001687 0 -1 0 I I #
coedge $-1 $458 $458 $-1 $632 reversed $306 $-1 #
edge $-1 $633 0 $633 6.2831853071796004 $307 $634 forward 7 unknown #
vertex $-1 $310 $635 #
ellipse-curve $-1 15.098870694830339 38.365103190798791 16.115625258465066 0 0.6560590369687036 0.75470957328743171 1.5 0 0 1 I I #
coedge $-1 $462 $462 $-1 $636 reversed $313 $-1 #
edge $-1 $637 0 $637 6.2831853071796004 $314 $638 forward 7 unknown #
vertex $-1 $317 $639 #
ellipse-curve $-1 24.315963277223773 38.365103190798791 16.115625258465066 0 0.6560590369687036 0.75470957328743171 1.5 0 0 1 I I #
face $-1 $-1 $640 $65 $-1 $641 reversed single #
loop $-1 $-1 $324 $318 #
plane-surface $-1 0 0 22.459192753001687 0 0 1 1 0 0 forward_v I I I I #
coedge $-1 $642 $643 $644 $645 reversed $319 $-1 #
coedge $-1 $646 $321 $323 $476 forward $201 $-1 #
coedge $-1 $321 $646 $642 $647 forward $201 $-1 #
coedge $-1 $644 $324 $321 $473 forward $467 $-1 #
edge $-1 $479 15.610639348396646 $648 37.117188707314611 $472 $649 forward 7 unknown #
coedge $-1 $650 $651 $322 $475 forward $640 $-1 #
edge $-1 $652 -81.670712503216734 $478 -68.983577514143505 $474 $653 forward 7 unknown #
edge $-1 $479 71.986680906194096 $652 91.325085339572013 $323 $654 forward 7 unknown #
coedge $-1 $324 $644 $650 $655 forward $467 $-1 #
vertex $-1 $325 $656 #
vertex $-1 $325 $657 #
straight-curve $-1 41.974553376252274 37.570437393262907 22.459192753001687 0 -1 0 I I #
coedge $-1 $481 $481 $-1 $658 reversed $328 $-1 #
edge $-1 $659 0 $659 6.2831853071796004 $329 $660 forward 7 unknown #
vertex $-1 $332 $661 #
ellipse-curve $-1 48.11928176451454 38.365103190798791 16.115625258465066 0 0.6560590369687036 0.75470957328743171 1.5 0 0 1 I I #
coedge $-1 $485 $485 $-1 $662 reversed $335 $-1 #
edge $-1 $663 0 $663 6.2831853071796004 $336 $664 forward 7 unknown #
vertex $-1 $339 $665 #
ellipse-curve $-1 57.336374346907974 38.365103190798791 16.115625258465066 0 0.6560590369687036 0.75470957328743171 1.5 0 0 1 I I #
face $-1 $-1 $355 $51 $-1 $666 reversed single #
loop $-1 $-1 $505 $340 #
plane-surface $-1 0 45.662542669786014 0 0 -1 0 0 0 -1 forward_v I I I I #
coedge $-1 $667 $503 $506 $668 forward $341 $-1 #
coedge $-1 $509 $343 $344 $497 reversed $215 $-1 #
coedge $-1 $503 $667 $343 $495 reversed $341 $-1 #
edge $-1 $510 -22.459192753001687 $669 22.459192753001687 $494 $670 forward 7 unknown #
coedge $-1 $345 $344 $667 $671 forward $137 $-1 #
edge $-1 $501 -74.994964445936461 $669 74.994964445936461 $493 $672 forward 7 unknown #
coedge $-1 $506 $505 $345 $499 reversed $490 $-1 #
edge $-1 $673 -74.994964445936461 $500 74.994964445936461 $498 $674 forward 7 unknown #
vertex $-1 $347 $675 #
vertex $-1 $512 $676 #
straight-curve $-1 74.994964445936461 0 -22.459192753001687 0 -1 0 I I #
coedge $-1 $492 $494 $348 $504 reversed $341 $-1 #
edge $-1 $507 -45.662542669786014 $510 45.662542669786014 $503 $677 forward 7 unknown #
coedge $-1 $498 $349 $354 $513 forward $490 $-1 #
coedge $-1 $349 $498 $492 $668 reversed $490 $-1 #
vertex $-1 $350 $678 #
straight-curve $-1 0 45.662542669786014 22.459192753001687 -1 0 0 I I #
coedge $-1 $351 $493 $353 $512 reversed $215 $-1 #
vertex $-1 $504 $679 #
straight-curve $-1 0 -45.662542669786014 22.459192753001687 1 0 0 I I #
edge $-1 $356 -22.459192753001687 $501 22.459192753001687 $353 $680 forward 7 unknown #
edge $-1 $357 -22.459192753001687 $500 22.459192753001687 $354 $681 forward 7 unknown #
point $-1 74.994964445936461 -45.662542669786014 22.459192753001687 #
point $-1 74.994964445936461 45.662542669786014 22.459192753001687 #
face $-1 $-1 $529 $52 $-1 $682 reversed single #
loop $-1 $-1 $683 $359 #
plane-surface $-1 -92.903249059072579 0 -7.4942317372699101 1 0 0 0 0 -1 forward_v I I I I #
coedge $-1 $684 $521 $365 $526 reversed $360 $-1 #
coedge $-1 $363 $362 $683 $685 reversed $141 $-1 #
coedge $-1 $519 $686 $362 $522 forward $360 $-1 #
edge $-1 $687 -8.954142306568059 $524 8.954142306568059 $362 $688 forward 7 unknown #
edge $-1 $370 -8.954142306568059 $689 8.954142306568059 $363 $690 forward 7 unknown #
vertex $-1 $364 $691 #
straight-curve $-1 -74.994964445936461 45.662542669786014 0 0 0 -1 I I #
edge $-1 $530 -45.662542669786014 $524 45.662542669786014 $519 $692 forward 7 unknown #
coedge $-1 $693 $366 $369 $533 reversed $529 $-1 #
coedge $-1 $366 $693 $684 $694 reversed $529 $-1 #
loop $-1 $-1 $366 $516 #
vertex $-1 $367 $695 #
straight-curve $-1 -74.994964445936461 -45.662542669786014 0 0 0 1 I I #
coedge $-1 $369 $368 $696 $697 forward $223 $-1 #
edge $-1 $698 -8.954142306568059 $371 8.954142306568059 $527 $699 forward 7 unknown #
point $-1 -74.994964445936461 45.662542669786014 -1.3983022171011088 #
point $-1 -74.994964445936461 -45.662542669786014 -1.3983022171011088 #
plane-surface $-1 0 0 22.459192753001687 0 0 1 1 0 0 forward_v I I I I #
coedge $-1 $547 $546 $539 $700 forward $374 $-1 #
coedge $-1 $539 $376 $378 $543 reversed $231 $-1 #
coedge $-1 $376 $538 $537 $700 reversed $231 $-1 #
coedge $-1 $384 $379 $376 $541 forward $385 $-1 #
edge $-1 $544 -24.122709842677537 $701 -19.105381124352938 $540 $702 forward 7 unknown #
coedge $-1 $378 $377 $547 $703 reversed $145 $-1 #
edge $-1 $704 7.8773185167488284e-015 $544 6.0519919893726204 $538 $705 forward 7 unknown #
vertex $-1 $380 $706 #
straight-curve $-1 0.34409978908385597 -40.645213951461415 22.459192753001687 -1 0 0 I I #
coedge $-1 $537 $381 $384 $551 reversed $374 $-1 #
coedge $-1 $381 $537 $542 $703 forward $374 $-1 #
vertex $-1 $382 $707 #
straight-curve $-1 16.371559589077933 -45.662542669786014 71.711123778827982 0 0 1 I I #
straight-curve $-1 16.371559589077933 -45.662542669786021 19.074961736698938 0 -0.82903756765294845 -0.55919291073839883 I I #
edge $-1 $701 -14.995160432742509 $386 16.371559589077933 $546 $708 forward 7 unknown #
point $-1 16.371559589077933 -45.662542669786014 22.459192753001687 #
point $-1 16.371559589077933 -40.645213951461415 22.459192753001687 #
edge $-1 $709 1 $709 0 $389 $-1 forward 7 unknown #
vertex $-1 $390 $710 #
ellipse-curve $-1 -6.033240426508101 -42.194886446063833 19.345313364217667 0 -0.55919291073839883 0.82903756765294845 1 0 0 1 I I #
point $-1 -5.033240426508101 -43.15387831062371 20.767077244850306 #
edge $-1 $711 1 $711 0 $393 $-1 forward 7 unknown #
vertex $-1 $394 $712 #
ellipse-curve $-1 7.4096395828435107 -42.194886446063833 19.345313364217667 0 -0.55919291073839883 0.82903756765294845 1 0 0 1 I I #
point $-1 8.4096395828435107 -43.15387831062371 20.767077244850306 #
loop $-1 $-1 $405 $397 #
plane-surface $-1 0 45.662542669786014 0 0 -1 0 0 0 -1 forward_v I I I I #
coedge $-1 $565 $400 $402 $569 reversed $253 $-1 #
coedge $-1 $400 $564 $713 $714 reversed $253 $-1 #
coedge $-1 $408 $403 $400 $567 forward $398 $-1 #
edge $-1 $570 -6.5027736814513304 $715 8.0921052765231067 $566 $716 forward 7 unknown #
coedge $-1 $402 $401 $573 $717 reversed $159 $-1 #
edge $-1 $718 -91.325085339572013 $570 -71.986680906194096 $564 $719 forward 7 unknown #
vertex $-1 $404 $720 #
straight-curve $-1 -23.166702576670673 31.067663711811576 22.459192753001691 1 0 0 I I #
coedge $-1 $713 $405 $408 $577 reversed $562 $-1 #
coedge $-1 $405 $713 $568 $717 forward $562 $-1 #
vertex $-1 $406 $721 #
straight-curve $-1 -57.086679832800328 45.662542669786014 91.442770267145193 0 0 1 I I #
straight-curve $-1 -57.086679832800328 -23.261373517280674 69.686705302892747 0 0.75470957328743171 -0.6560590369687036 I I #
edge $-1 $715 35.580130473882363 $409 57.086679832800328 $572 $722 forward 7 unknown #
point $-1 -57.086679832800328 45.662542669786014 22.459192753001687 #
point $-1 -57.086679832800328 31.067663711811576 22.459192753001687 #
edge $-1 $723 1 $723 0 $412 $-1 forward 7 unknown #
vertex $-1 $413 $724 #
ellipse-curve $-1 -50.941951444538056 34.436857856280866 11.596696026302387 0 0.6560590369687036 0.75470957328743171 1.5 0 0 1 I I #
point $-1 -49.441951444538056 38.365103190798791 16.115625258465059 #
edge $-1 $725 1 $725 0 $416 $-1 forward 7 unknown #
vertex $-1 $417 $726 #
ellipse-curve $-1 -41.724858862144636 34.436857856280866 11.596696026302387 0 0.6560590369687036 0.75470957328743171 1.5 0 0 1 I I #
point $-1 -40.224858862144636 38.365103190798791 16.115625258465059 #
loop $-1 $-1 $428 $420 #
plane-surface $-1 0 45.662542669786014 0 0 -1 0 0 0 -1 forward_v I I I I #
coedge $-1 $591 $423 $425 $595 reversed $275 $-1 #
coedge $-1 $423 $590 $727 $728 reversed $275 $-1 #
coedge $-1 $431 $426 $423 $593 forward $421 $-1 #
edge $-1 $596 -6.5027736814513304 $729 8.0921052765231067 $592 $730 forward 7 unknown #
coedge $-1 $425 $424 $599 $731 reversed $173 $-1 #
edge $-1 $732 -91.325085339572013 $596 -71.986680906194096 $590 $733 forward 7 unknown #
vertex $-1 $427 $734 #
straight-curve $-1 -6.6564970418285725 31.067663711811576 22.459192753001691 1 0 0 I I #
coedge $-1 $727 $428 $431 $603 reversed $588 $-1 #
coedge $-1 $428 $727 $594 $731 forward $588 $-1 #
vertex $-1 $429 $735 #
straight-curve $-1 -24.066268763116131 45.662542669786014 91.442770267145193 0 0 1 I I #
straight-curve $-1 -24.066268763116131 -23.261373517280674 69.686705302892747 0 0.75470957328743171 -0.6560590369687036 I I #
edge $-1 $729 2.5597194041981588 $432 24.066268763116131 $598 $736 forward 7 unknown #
point $-1 -24.066268763116131 45.662542669786014 22.459192753001687 #
point $-1 -24.066268763116131 31.067663711811576 22.459192753001687 #
edge $-1 $737 1 $737 0 $435 $-1 forward 7 unknown #
vertex $-1 $436 $738 #
ellipse-curve $-1 -17.921540374853855 34.436857856280866 11.596696026302387 0 0.6560590369687036 0.75470957328743171 1.5 0 0 1 I I #
point $-1 -16.421540374853855 38.365103190798791 16.115625258465059 #
edge $-1 $739 1 $739 0 $439 $-1 forward 7 unknown #
vertex $-1 $440 $740 #
ellipse-curve $-1 -8.704447792460428 34.436857856280866 11.596696026302387 0 0.6560590369687036 0.75470957328743171 1.5 0 0 1 I I #
point $-1 -7.204447792460428 38.365103190798791 16.115625258465059 #
loop $-1 $-1 $451 $443 #
plane-surface $-1 0 45.662542669786014 0 0 -1 0 0 0 -1 forward_v I I I I #
coedge $-1 $617 $446 $448 $621 reversed $297 $-1 #
coedge $-1 $446 $616 $741 $742 reversed $297 $-1 #
coedge $-1 $454 $449 $446 $619 forward $444 $-1 #
edge $-1 $622 -6.5027736814513304 $743 8.0921052765231067 $618 $744 forward 7 unknown #
coedge $-1 $448 $447 $625 $745 reversed $187 $-1 #
edge $-1 $746 -91.325085339572013 $622 -71.986680906194096 $616 $747 forward 7 unknown #
vertex $-1 $450 $748 #
straight-curve $-1 9.8537084930135279 31.067663711811576 22.459192753001691 1 0 0 I I #
coedge $-1 $741 $451 $454 $629 reversed $614 $-1 #
coedge $-1 $451 $741 $620 $745 forward $614 $-1 #
vertex $-1 $452 $749 #
straight-curve $-1 8.9541423065680696 45.662542669786014 91.442770267145193 0 0 1 I I #
straight-curve $-1 8.9541423065680696 -23.261373517280674 69.686705302892747 0 0.75470957328743171 -0.6560590369687036 I I #
edge $-1 $743 -30.460691665486042 $455 -8.9541423065680696 $624 $750 forward 7 unknown #
point $-1 8.9541423065680696 45.662542669786014 22.459192753001687 #
point $-1 8.9541423065680696 31.067663711811576 22.459192753001687 #
edge $-1 $751 1 $751 0 $458 $-1 forward 7 unknown #
vertex $-1 $459 $752 #
ellipse-curve $-1 15.098870694830339 34.436857856280866 11.596696026302387 0 0.6560590369687036 0.75470957328743171 1.5 0 0 1 I I #
point $-1 16.598870694830339 38.365103190798791 16.115625258465059 #
edge $-1 $753 1 $753 0 $462 $-1 forward 7 unknown #
vertex $-1 $463 $754 #
ellipse-curve $-1 24.315963277223773 34.436857856280866 11.596696026302387 0 0.6560590369687036 0.75470957328743171 1.5 0 0 1 I I #
point $-1 25.815963277223773 38.365103190798791 16.115625258465059 #
loop $-1 $-1 $474 $466 #
plane-surface $-1 0 45.662542669786014 0 0 -1 0 0 0 -1 forward_v I I I I #
coedge $-1 $643 $469 $471 $647 reversed $319 $-1 #
coedge $-1 $469 $642 $755 $756 reversed $319 $-1 #
coedge $-1 $477 $472 $469 $645 forward $467 $-1 #
edge $-1 $648 -6.5027736814513304 $757 8.0921052765231067 $644 $758 forward 7 unknown #
coedge $-1 $471 $470 $651 $759 reversed $201 $-1 #
edge $-1 $760 -91.325085339572013 $648 -71.986680906194096 $642 $761 forward 7 unknown #
vertex $-1 $473 $762 #
straight-curve $-1 26.363914027855628 31.067663711811576 22.459192753001691 1 0 0 I I #
coedge $-1 $755 $474 $477 $655 reversed $640 $-1 #
coedge $-1 $474 $755 $646 $759 forward $640 $-1 #
vertex $-1 $475 $763 #
straight-curve $-1 41.974553376252274 45.662542669786014 91.442770267145193 0 0 1 I I #
straight-curve $-1 41.974553376252274 -23.261373517280674 69.686705302892747 0 0.75470957328743171 -0.6560590369687036 I I #
edge $-1 $757 -63.481102735170239 $478 -41.974553376252274 $650 $764 forward 7 unknown #
point $-1 41.974553376252274 45.662542669786014 22.459192753001687 #
point $-1 41.974553376252274 31.067663711811576 22.459192753001687 #
edge $-1 $765 1 $765 0 $481 $-1 forward 7 unknown #
vertex $-1 $482 $766 #
ellipse-curve $-1 48.11928176451454 34.436857856280866 11.596696026302387 0 0.6560590369687036 0.75470957328743171 1.5 0 0 1 I I #
point $-1 49.61928176451454 38.365103190798791 16.115625258465059 #
edge $-1 $767 1 $767 0 $485 $-1 forward 7 unknown #
vertex $-1 $486 $768 #
ellipse-curve $-1 57.336374346907974 34.436857856280866 11.596696026302387 0 0.6560590369687036 0.75470957328743171 1.5 0 0 1 I I #
point $-1 58.836374346907974 38.365103190798791 16.115625258465059 #
plane-surface $-1 74.994964445936461 0 0 -1 0 0 0 0 1 forward_v I I I I #
coedge $-1 $494 $492 $496 $671 reversed $341 $-1 #
edge $-1 $507 -22.459192753001687 $673 22.459192753001687 $506 $769 forward 7 unknown #
vertex $-1 $671 $770 #
straight-curve $-1 -74.994964445936461 -45.662542669786014 0 0 0 -1 I I #
edge $-1 $669 -45.662542669786014 $673 45.662542669786014 $667 $771 forward 7 unknown #
straight-curve $-1 0 -45.662542669786014 -22.459192753001687 -1 0 0 I I #
vertex $-1 $499 $772 #
straight-curve $-1 0 45.662542669786014 -22.459192753001687 1 0 0 I I #
point $-1 74.994964445936461 45.662542669786014 -22.459192753001687 #
point $-1 74.994964445936461 -45.662542669786014 -22.459192753001687 #
straight-curve $-1 -74.994964445936461 0 22.459192753001687 0 -1 0 I I #
point $-1 -74.994964445936461 45.662542669786014 22.459192753001687 #
point $-1 -74.994964445936461 -45.662542669786014 22.459192753001687 #
straight-curve $-1 74.994964445936461 -45.662542669786014 0 0 0 -1 I I #
straight-curve $-1 74.994964445936461 45.662542669786014 0 0 0 -1 I I #
plane-surface $-1 0 -45.662542669786014 0 0 1 0 0 0 1 forward_v I I I I #
coedge $-1 $773 $696 $520 $685 forward $517 $-1 #
coedge $-1 $686 $519 $528 $694 forward $360 $-1 #
edge $-1 $689 -6.0959295201688013 $687 6.0959295201688022 $520 $774 forward 7 unknown #
coedge $-1 $521 $684 $773 $775 forward $360 $-1 #
vertex $-1 $522 $776 #
straight-curve $-1 -83.94910675250452 45.662542669786014 -13.590161257438712 1 0 0 I I #
vertex $-1 $523 $777 #
straight-curve $-1 -83.94910675250452 45.662542669786014 -1.3983022171011088 -1 0 0 I I #
point $-1 -74.994964445936461 45.662542669786014 -13.590161257438712 #
straight-curve $-1 -74.994964445936461 0 -13.590161257438712 0 1 0 I I #
coedge $-1 $528 $527 $778 $779 forward $529 $-1 #
edge $-1 $530 -8.954142306568059 $780 8.954142306568059 $528 $781 forward 7 unknown #
point $-1 -74.994964445936461 -45.662542669786014 -13.590161257438712 #
coedge $-1 $683 $778 $532 $697 reversed $517 $-1 #
edge $-1 $689 -45.662542669786014 $698 45.662542669786014 $696 $782 forward 7 unknown #
vertex $-1 $697 $783 #
straight-curve $-1 -83.94910675250452 -45.662542669786014 -1.3983022171011088 1 0 0 I I #
edge $-1 $701 49.251931025826295 $704 52.636162042129044 $537 $784 forward 7 unknown #
vertex $-1 $551 $785 #
straight-curve $-1 -14.995160432742509 -64.767923794138952 22.459192753001687 0 -1 0 I I #
edge $-1 $704 -15.339260221826365 $548 16.027459799994077 $547 $786 forward 7 unknown #
vertex $-1 $703 $787 #
straight-curve $-1 -14.995160432742509 -45.662542669786021 19.074961736698938 0 0.82903756765294845 0.55919291073839883 I I #
point $-1 -14.995160432742509 -40.645213951461415 22.459192753001687 #
point $-1 16.371559589077933 -45.662542669786014 19.074961736698942 #
straight-curve $-1 0 -45.662542669786014 22.459192753001687 1 0 0 I I #
vertex $-1 $554 $788 #
point $-1 -5.033240426508101 -42.194886446063833 19.345313364217667 #
vertex $-1 $558 $789 #
point $-1 8.4096395828435107 -42.194886446063833 19.345313364217667 #
coedge $-1 $573 $572 $565 $714 forward $562 $-1 #
edge $-1 $715 68.983577514143505 $718 81.670712503216734 $713 $790 forward 7 unknown #
vertex $-1 $577 $791 #
straight-curve $-1 -35.580130473882363 37.570437393262907 22.459192753001687 0 1 0 I I #
edge $-1 $718 12.41342789721169 $574 33.919977256129656 $573 $792 forward 7 unknown #
vertex $-1 $717 $793 #
straight-curve $-1 -35.580130473882363 -23.261373517280674 69.686705302892747 0 -0.75470957328743171 0.6560590369687036 I I #
point $-1 -35.580130473882363 31.067663711811576 22.459192753001687 #
point $-1 -57.086679832800328 45.662542669786006 9.7720577639284585 #
straight-curve $-1 0 45.662542669786014 22.459192753001687 -1 0 0 I I #
vertex $-1 $580 $794 #
point $-1 -49.441951444538056 34.436857856280866 11.596696026302387 #
vertex $-1 $584 $795 #
point $-1 -40.224858862144636 34.436857856280866 11.596696026302387 #
coedge $-1 $599 $598 $591 $728 forward $588 $-1 #
edge $-1 $729 68.983577514143505 $732 81.670712503216734 $727 $796 forward 7 unknown #
vertex $-1 $603 $797 #
straight-curve $-1 -2.5597194041981588 37.570437393262907 22.459192753001687 0 1 0 I I #
edge $-1 $732 -4.0967776376304137 $600 17.409771721287559 $599 $798 forward 7 unknown #
vertex $-1 $731 $799 #
straight-curve $-1 -2.5597194041981588 -23.261373517280674 69.686705302892747 0 -0.75470957328743171 0.6560590369687036 I I #
point $-1 -2.5597194041981588 31.067663711811576 22.459192753001687 #
point $-1 -24.066268763116131 45.662542669786006 9.7720577639284585 #
straight-curve $-1 0 45.662542669786014 22.459192753001687 -1 0 0 I I #
vertex $-1 $606 $800 #
point $-1 -16.421540374853855 34.436857856280866 11.596696026302387 #
vertex $-1 $610 $801 #
point $-1 -7.204447792460428 34.436857856280866 11.596696026302387 #
coedge $-1 $625 $624 $617 $742 forward $614 $-1 #
edge $-1 $743 68.983577514143505 $746 81.670712503216734 $741 $802 forward 7 unknown #
vertex $-1 $629 $803 #
straight-curve $-1 30.460691665486042 37.570437393262907 22.459192753001687 0 1 0 I I #
edge $-1 $746 -20.606983172472514 $626 0.89956618644545827 $625 $804 forward 7 unknown #
vertex $-1 $745 $805 #
straight-curve $-1 30.460691665486042 -23.261373517280674 69.686705302892747 0 -0.75470957328743171 0.6560590369687036 I I #
point $-1 30.460691665486042 31.067663711811576 22.459192753001687 #
point $-1 8.9541423065680696 45.662542669786006 9.7720577639284585 #
straight-curve $-1 0 45.662542669786014 22.459192753001687 -1 0 0 I I #
vertex $-1 $632 $806 #
point $-1 16.598870694830339 34.436857856280866 11.596696026302387 #
vertex $-1 $636 $807 #
point $-1 25.815963277223773 34.436857856280866 11.596696026302387 #
coedge $-1 $651 $650 $643 $756 forward $640 $-1 #
edge $-1 $757 68.983577514143505 $760 81.670712503216734 $755 $808 forward 7 unknown #
vertex $-1 $655 $809 #
straight-curve $-1 63.481102735170239 37.570437393262907 22.459192753001687 0 1 0 I I #
edge $-1 $760 -37.117188707314611 $652 -15.610639348396646 $651 $810 forward 7 unknown #
vertex $-1 $759 $811 #
straight-curve $-1 63.481102735170239 -23.261373517280674 69.686705302892747 0 -0.75470957328743171 0.6560590369687036 I I #
point $-1 63.481102735170239 31.067663711811576 22.459192753001687 #
point $-1 41.974553376252274 45.662542669786006 9.7720577639284585 #
straight-curve $-1 0 45.662542669786014 22.459192753001687 -1 0 0 I I #
vertex $-1 $658 $812 #
point $-1 49.61928176451454 34.436857856280866 11.596696026302387 #
vertex $-1 $662 $813 #
point $-1 58.836374346907974 34.436857856280866 11.596696026302387 #
straight-curve $-1 -74.994964445936461 45.662542669786014 0 0 0 -1 I I #
point $-1 -74.994964445936461 -45.662542669786014 -22.459192753001687 #
straight-curve $-1 -74.994964445936461 0 -22.459192753001687 0 1 0 I I #
point $-1 -74.994964445936461 45.662542669786014 -22.459192753001687 #
coedge $-1 $778 $683 $686 $775 reversed $517 $-1 #
straight-curve $-1 -92.903249059072579 45.662542669786014 -7.4942317372699101 0 0 -1 I I #
edge $-1 $780 -45.662542669786014 $687 45.662542669786014 $773 $814 forward 7 unknown #
point $-1 -92.903249059072579 45.662542669786014 -13.590161257438712 #
point $-1 -92.903249059072579 45.662542669786014 -1.3983022171011088 #
coedge $-1 $696 $773 $693 $779 reversed $517 $-1 #
edge $-1 $698 -6.0959295201688013 $780 6.0959295201688022 $778 $815 forward 7 unknown #
vertex $-1 $775 $816 #
straight-curve $-1 -83.94910675250452 -45.662542669786014 -13.590161257438712 -1 0 0 I I #
straight-curve $-1 -92.903249059072579 0 -1.3983022171011088 0 -1 0 I I #
point $-1 -92.903249059072579 -45.662542669786014 -1.3983022171011088 #
straight-curve $-1 -14.995160432742509 -45.662542669786014 71.711123778827982 0 0 -1 I I #
point $-1 -14.995160432742509 -45.662542669786014 22.459192753001687 #
straight-curve $-1 0.34409978908385597 -45.662542669786014 19.074961736698945 1 0 0 I I #
point $-1 -14.995160432742509 -45.662542669786014 19.074961736698942 #
point $-1 -6.033240426508101 -41.63569353532543 18.51627579656472 #
point $-1 7.4096395828435107 -41.63569353532543 18.51627579656472 #
straight-curve $-1 -35.580130473882363 45.662542669786014 91.442770267145193 0 0 -1 I I #
point $-1 -35.580130473882363 45.662542669786014 22.459192753001687 #
straight-curve $-1 -23.166702576670673 45.662542669786021 9.772057763928462 -1 0 0 I I #
point $-1 -35.580130473882363 45.662542669786006 9.7720577639284585 #
point $-1 -50.941951444538056 33.452769300827811 10.464631666371242 #
point $-1 -41.724858862144636 33.452769300827811 10.464631666371242 #
straight-curve $-1 -2.5597194041981588 45.662542669786014 91.442770267145193 0 0 -1 I I #
point $-1 -2.5597194041981588 45.662542669786014 22.459192753001687 #
straight-curve $-1 -6.6564970418285725 45.662542669786021 9.772057763928462 -1 0 0 I I #
point $-1 -2.5597194041981588 45.662542669786006 9.7720577639284585 #
point $-1 -17.921540374853855 33.452769300827811 10.464631666371242 #
point $-1 -8.704447792460428 33.452769300827811 10.464631666371242 #
straight-curve $-1 30.460691665486042 45.662542669786014 91.442770267145193 0 0 -1 I I #
point $-1 30.460691665486042 45.662542669786014 22.459192753001687 #
straight-curve $-1 9.8537084930135279 45.662542669786021 9.772057763928462 -1 0 0 I I #
point $-1 30.460691665486042 45.662542669786006 9.7720577639284585 #
point $-1 15.098870694830339 33.452769300827811 10.464631666371242 #
point $-1 24.315963277223773 33.452769300827811 10.464631666371242 #
straight-curve $-1 63.481102735170239 45.662542669786014 91.442770267145193 0 0 -1 I I #
point $-1 63.481102735170239 45.662542669786014 22.459192753001687 #
straight-curve $-1 26.363914027855628 45.662542669786021 9.772057763928462 -1 0 0 I I #
point $-1 63.481102735170239 45.662542669786006 9.7720577639284585 #
point $-1 48.11928176451454 33.452769300827811 10.464631666371242 #
point $-1 57.336374346907974 33.452769300827811 10.464631666371242 #
straight-curve $-1 -92.903249059072579 0 -13.590161257438712 0 1 0 I I #
straight-curve $-1 -92.903249059072579 -45.662542669786014 -7.4942317372699101 0 0 -1 I I #
point $-1 -92.903249059072579 -45.662542669786014 -13.590161257438712 #
End-of-ACIS-data 