500 0 10 0           
7 Unknown 11 ACIS 5.0 NT 24 Thu Mar 25 23:08:09 1999 
-1 9.9999999999999995e-007 1e-010 
body $-1 $10 $-1 $11 #
body $-1 $12 $-1 $13 #
body $-1 $14 $-1 $15 #
body $-1 $16 $-1 $17 #
body $-1 $18 $-1 $19 #
body $-1 $20 $-1 $21 #
body $-1 $22 $-1 $23 #
body $-1 $24 $-1 $25 #
body $-1 $26 $-1 $27 #
body $-1 $28 $-1 $29 #
lump $-1 $-1 $30 $0 #
transform $-1 1 0 0 0 1 0 0 0 1 71.888180181279949 43.560941921853328 17.315630620201411 1 rotate no_reflect no_shear #
lump $-1 $-1 $31 $1 #
transform $-1 1 0 0 0 1 0 0 0 1 71.888180181279949 43.560941921853328 17.315630620201411 1 rotate no_reflect no_shear #
lump $-1 $-1 $32 $2 #
transform $-1 1 0 0 0 1 0 0 0 1 71.888180181279949 43.560941921853328 17.315630620201411 1 rotate no_reflect no_shear #
lump $-1 $-1 $33 $3 #
transform $-1 1 0 0 0 1 0 0 0 1 71.888180181279949 43.560941921853328 17.315630620201411 1 rotate no_reflect no_shear #
lump $-1 $-1 $34 $4 #
transform $-1 1 0 0 0 1 0 0 0 1 71.888180181279949 43.560941921853328 17.315630620201411 1 rotate no_reflect no_shear #
lump $-1 $-1 $35 $5 #
transform $-1 1 0 0 0 1 0 0 0 1 71.888180181279949 43.560941921853328 17.315630620201411 1 rotate no_reflect no_shear #
lump $-1 $-1 $36 $6 #
transform $-1 1 0 0 0 1 0 0 0 1 71.888180181279949 43.560941921853328 17.315630620201411 1 rotate no_reflect no_shear #
lump $-1 $-1 $37 $7 #
transform $-1 1 0 0 0 1 0 0 0 1 71.888180181279949 43.560941921853328 17.315630620201411 1 rotate no_reflect no_shear #
lump $-1 $-1 $38 $8 #
transform $-1 1 0 0 0 1 0 0 0 1 71.888180181279949 43.560941921853328 17.315630620201411 1 rotate no_reflect no_shear #
lump $-1 $-1 $39 $9 #
transform $-1 1 0 0 0 1 0 0 0 1 71.888180181279949 43.560941921853328 17.315630620201411 1 rotate no_reflect no_shear #
shell $-1 $-1 $-1 $40 $-1 $10 #
shell $-1 $-1 $-1 $41 $-1 $12 #
shell $-1 $-1 $-1 $42 $-1 $14 #
shell $-1 $-1 $-1 $43 $-1 $16 #
shell $-1 $-1 $-1 $44 $-1 $18 #
shell $-1 $-1 $-1 $45 $-1 $20 #
shell $-1 $-1 $-1 $46 $-1 $22 #
shell $-1 $-1 $-1 $47 $-1 $24 #
shell $-1 $-1 $-1 $48 $-1 $26 #
shell $-1 $-1 $-1 $49 $-1 $28 #
face $-1 $50 $51 $30 $-1 $52 forward single #
face $-1 $53 $54 $31 $-1 $55 forward single #
face $-1 $56 $57 $32 $-1 $58 reversed single #
face $-1 $59 $60 $33 $-1 $61 forward single #
face $-1 $62 $63 $34 $-1 $64 reversed single #
face $-1 $65 $66 $35 $-1 $67 forward single #
face $-1 $68 $69 $36 $-1 $70 reversed single #
face $-1 $71 $72 $37 $-1 $73 forward single #
face $-1 $74 $75 $38 $-1 $76 reversed single #
face $-1 $77 $78 $39 $-1 $79 forward single #
face $-1 $80 $81 $30 $-1 $82 reversed single #
loop $-1 $-1 $83 $40 #
plane-surface $-1 0 0 17.315630620201411 0 0 1 1 0 0 forward_v I I I I #
face $-1 $84 $85 $31 $-1 $86 reversed single #
loop $-1 $-1 $87 $41 #
plane-surface $-1 -71.888180181279949 0 0 1 0 0 0 0 -1 forward_v I I I I #
face $-1 $88 $89 $32 $-1 $90 reversed single #
loop $-1 $-1 $91 $42 #
plane-surface $-1 -14.363786908982858 -141.61618507067493 113.47459621252094 -1 0 0 0 -0.68199836817093118 0.7313536940579346 forward_v I I I I #
face $-1 $92 $93 $33 $-1 $94 forward single #
loop $-1 $95 $96 $43 #
cone-surface $-1 -29.921749860271575 -37.255419300320881 11.228101904061919 0 0.68199836817093118 -0.7313536940579346 1.5 0 0 1 I I 0 1 1.5 forward I I I I #
face $-1 $97 $98 $34 $-1 $99 reversed single #
loop $-1 $-1 $100 $44 #
plane-surface $-1 60.99951061675749 -141.61618507067493 113.47459621252094 -1 0 0 0 -0.68199836817093118 0.7313536940579346 forward_v I I I I #
face $-1 $101 $102 $35 $-1 $103 forward single #
loop $-1 $104 $105 $45 #
cone-surface $-1 45.441547665468775 -37.255419300320881 11.228101904061919 0 0.68199836817093118 -0.7313536940579346 1.5 0 0 1 I I 0 1 1.5 forward I I I I #
face $-1 $106 $107 $36 $-1 $108 reversed single #
loop $-1 $-1 $109 $46 #
plane-surface $-1 -45.47971281156029 77.899273488293758 172.89157882590629 1 0 0 0 -0.68199836817093118 -0.7313536940579346 forward_v I I I I #
face $-1 $110 $111 $37 $-1 $112 forward single #
loop $-1 $113 $114 $47 #
cone-surface $-1 -29.921749860271575 37.255419300320881 11.228101904061912 0 -0.68199836817093118 -0.7313536940579346 1.5 0 0 1 I I 0 1 1.5 forward I I I I #
face $-1 $115 $116 $38 $-1 $117 reversed single #
loop $-1 $-1 $118 $48 #
plane-surface $-1 29.88358471418006 77.899273488293758 172.89157882590629 1 0 0 0 -0.68199836817093118 -0.7313536940579346 forward_v I I I I #
face $-1 $119 $120 $39 $-1 $121 forward single #
loop $-1 $122 $123 $49 #
cone-surface $-1 45.441547665468775 37.255419300320881 11.228101904061912 0 -0.68199836817093118 -0.7313536940579346 1.5 0 0 1 I I 0 1 1.5 forward I I I I #
face $-1 $124 $125 $30 $-1 $126 reversed single #
loop $-1 $-1 $127 $50 #
plane-surface $-1 0 0 -17.315630620201411 0 0 1 1 0 0 forward_v I I I I #
coedge $-1 $128 $129 $130 $131 forward $51 $-1 #
face $-1 $132 $133 $31 $-1 $134 forward single #
loop $-1 $-1 $135 $53 #
plane-surface $-1 0 43.560941921853328 0 0 -1 0 0 0 -1 forward_v I I I I #
coedge $-1 $136 $137 $138 $139 forward $54 $-1 #
face $-1 $140 $141 $32 $-1 $142 reversed single #
loop $-1 $-1 $143 $56 #
plane-surface $-1 -29.921749860271575 -43.560941921853328 8.3232239431579416 0 -0.68199836817093118 0.7313536940579346 1 0 0 forward_v I I I I #
coedge $-1 $144 $145 $146 $147 reversed $57 $-1 #
face $-1 $-1 $148 $33 $-1 $149 forward single #
loop $-1 $150 $151 $59 #
cone-surface $-1 -29.921749860271575 -35.259985569625627 9.0882612559006972 0 0.68199836817093118 -0.7313536940579346 0.75 0 0 1 I I -0.70710678118654757 0.70710678118654757 0.75 forward I I I I #
loop $-1 $-1 $152 $43 #
coedge $-1 $96 $96 $153 $154 reversed $60 $-1 #
face $-1 $155 $156 $34 $-1 $157 reversed single #
loop $-1 $-1 $158 $62 #
plane-surface $-1 45.441547665468775 -43.560941921853328 8.3232239431579416 0 -0.68199836817093118 0.7313536940579346 1 0 0 forward_v I I I I #
coedge $-1 $159 $160 $161 $162 reversed $63 $-1 #
face $-1 $-1 $163 $35 $-1 $164 forward single #
loop $-1 $165 $166 $65 #
cone-surface $-1 45.441547665468775 -35.259985569625627 9.0882612559006972 0 0.68199836817093118 -0.7313536940579346 0.75 0 0 1 I I -0.70710678118654757 0.70710678118654757 0.75 forward I I I I #
loop $-1 $-1 $167 $45 #
coedge $-1 $105 $105 $168 $169 reversed $66 $-1 #
face $-1 $170 $171 $36 $-1 $172 reversed single #
loop $-1 $-1 $173 $68 #
plane-surface $-1 -29.921749860271575 -20.155969660527845 67.740206556543299 0 0.68199836817093118 0.7313536940579346 1 0 0 forward_v I I I I #
coedge $-1 $174 $175 $176 $177 reversed $69 $-1 #
face $-1 $-1 $178 $37 $-1 $179 forward single #
loop $-1 $180 $181 $71 #
cone-surface $-1 -29.921749860271575 35.259985569625627 9.0882612559006901 0 -0.68199836817093118 -0.7313536940579346 0.75 0 0 1 I I -0.70710678118654757 0.70710678118654757 0.75 forward I I I I #
loop $-1 $-1 $182 $47 #
coedge $-1 $114 $114 $183 $184 reversed $72 $-1 #
face $-1 $185 $186 $38 $-1 $187 reversed single #
loop $-1 $-1 $188 $74 #
plane-surface $-1 45.441547665468775 -20.155969660527845 67.740206556543299 0 0.68199836817093118 0.7313536940579346 1 0 0 forward_v I I I I #
coedge $-1 $189 $190 $191 $192 reversed $75 $-1 #
face $-1 $-1 $193 $39 $-1 $194 forward single #
loop $-1 $195 $196 $77 #
cone-surface $-1 45.441547665468775 35.259985569625627 9.0882612559006901 0 -0.68199836817093118 -0.7313536940579346 0.75 0 0 1 I I -0.70710678118654757 0.70710678118654757 0.75 forward I I I I #
loop $-1 $-1 $197 $49 #
coedge $-1 $123 $123 $198 $199 reversed $78 $-1 #
face $-1 $200 $201 $30 $-1 $202 reversed single #
loop $-1 $-1 $203 $80 #
plane-surface $-1 0 -43.560941921853328 0 0 1 0 0 0 1 forward_v I I I I #
coedge $-1 $204 $205 $206 $207 forward $81 $-1 #
coedge $-1 $208 $83 $209 $210 forward $51 $-1 #
coedge $-1 $83 $208 $211 $212 forward $51 $-1 #
coedge $-1 $213 $214 $83 $131 reversed $215 $-1 #
edge $-1 $216 -43.560941921853328 $217 43.560941921853328 $130 $218 forward 7 unknown #
face $-1 $219 $220 $31 $-1 $221 reversed single #
loop $-1 $-1 $138 $84 #
plane-surface $-1 -79.648079083878557 0 -7.5589282785182164 0 0 1 1 0 0 forward_v I I I I #
coedge $-1 $222 $223 $137 $224 forward $85 $-1 #
coedge $-1 $225 $87 $226 $227 reversed $54 $-1 #
coedge $-1 $87 $225 $135 $224 reversed $54 $-1 #
coedge $-1 $228 $229 $87 $139 reversed $133 $-1 #
edge $-1 $230 -43.560941921853328 $231 43.560941921853328 $138 $232 forward 7 unknown #
face $-1 $233 $234 $32 $-1 $235 reversed single #
loop $-1 $-1 $236 $88 #
plane-surface $-1 -45.47971281156029 -141.61618507067493 113.47459621252094 1 0 0 0 0.68199836817093118 -0.7313536940579346 forward_v I I I I #
coedge $-1 $237 $238 $239 $240 reversed $89 $-1 #
coedge $-1 $145 $91 $241 $242 reversed $57 $-1 #
coedge $-1 $91 $144 $237 $243 reversed $57 $-1 #
coedge $-1 $239 $244 $91 $147 forward $245 $-1 #
edge $-1 $246 27.247150613484138 $247 36.890325947414937 $146 $248 forward 7 unknown #
loop $-1 $-1 $153 $92 #
plane-surface $-1 -29.921749860271575 -43.560941921853328 8.3232239431579416 0 -0.68199836817093118 0.7313536940579346 1 0 0 forward_v I I I I #
loop $-1 $-1 $249 $59 #
coedge $-1 $151 $151 $152 $250 reversed $93 $-1 #
coedge $-1 $152 $152 $151 $250 forward $95 $-1 #
coedge $-1 $153 $153 $96 $154 forward $148 $-1 #
edge $-1 $251 -1.2752358875745986e-015 $251 6.2831853071795996 $153 $252 forward 7 unknown #
face $-1 $253 $254 $34 $-1 $255 reversed single #
loop $-1 $-1 $256 $97 #
plane-surface $-1 29.88358471418006 -141.61618507067493 113.47459621252094 1 0 0 0 0.68199836817093118 -0.7313536940579346 forward_v I I I I #
coedge $-1 $257 $258 $259 $260 reversed $98 $-1 #
coedge $-1 $160 $100 $261 $262 reversed $63 $-1 #
coedge $-1 $100 $159 $257 $263 reversed $63 $-1 #
coedge $-1 $259 $264 $100 $162 forward $265 $-1 #
edge $-1 $266 27.247150613484138 $267 36.890325947414937 $161 $268 forward 7 unknown #
loop $-1 $-1 $168 $101 #
plane-surface $-1 45.441547665468775 -43.560941921853328 8.3232239431579416 0 -0.68199836817093118 0.7313536940579346 1 0 0 forward_v I I I I #
loop $-1 $-1 $269 $65 #
coedge $-1 $166 $166 $167 $270 reversed $102 $-1 #
coedge $-1 $167 $167 $166 $270 forward $104 $-1 #
coedge $-1 $168 $168 $105 $169 forward $163 $-1 #
edge $-1 $271 -1.2752358875745986e-015 $271 6.2831853071795996 $168 $272 forward 7 unknown #
face $-1 $273 $274 $36 $-1 $275 forward single #
loop $-1 $-1 $276 $106 #
plane-surface $-1 -14.363786908982858 77.899273488293758 172.89157882590629 -1 0 0 0 0.68199836817093118 0.7313536940579346 forward_v I I I I #
coedge $-1 $277 $278 $279 $280 reversed $107 $-1 #
coedge $-1 $175 $109 $281 $282 reversed $69 $-1 #
coedge $-1 $109 $174 $277 $283 reversed $69 $-1 #
coedge $-1 $279 $284 $109 $177 forward $274 $-1 #
edge $-1 $285 -4.6113051777064484 $286 5.0318701562243646 $176 $287 forward 7 unknown #
loop $-1 $-1 $183 $110 #
plane-surface $-1 -29.921749860271575 -20.155969660527845 67.740206556543299 0 0.68199836817093118 0.7313536940579346 1 0 0 forward_v I I I I #
loop $-1 $-1 $288 $71 #
coedge $-1 $181 $181 $182 $289 reversed $111 $-1 #
coedge $-1 $182 $182 $181 $289 forward $113 $-1 #
coedge $-1 $183 $183 $114 $184 forward $178 $-1 #
edge $-1 $290 4.6758757706776961e-016 $290 6.2831853071796013 $183 $291 forward 7 unknown #
face $-1 $292 $293 $38 $-1 $294 forward single #
loop $-1 $-1 $295 $115 #
plane-surface $-1 60.99951061675749 77.899273488293758 172.89157882590629 -1 0 0 0 0.68199836817093118 0.7313536940579346 forward_v I I I I #
coedge $-1 $296 $297 $298 $299 reversed $116 $-1 #
coedge $-1 $190 $118 $300 $301 reversed $75 $-1 #
coedge $-1 $118 $189 $296 $302 reversed $75 $-1 #
coedge $-1 $298 $303 $118 $192 forward $293 $-1 #
edge $-1 $304 -4.6113051777064484 $305 5.0318701562243646 $191 $306 forward 7 unknown #
loop $-1 $-1 $198 $119 #
plane-surface $-1 45.441547665468775 -20.155969660527845 67.740206556543299 0 0.68199836817093118 0.7313536940579346 1 0 0 forward_v I I I I #
loop $-1 $-1 $307 $77 #
coedge $-1 $196 $196 $197 $308 reversed $120 $-1 #
coedge $-1 $197 $197 $196 $308 forward $122 $-1 #
coedge $-1 $198 $198 $123 $199 forward $193 $-1 #
edge $-1 $309 4.6758757706776961e-016 $309 6.2831853071796013 $198 $310 forward 7 unknown #
face $-1 $311 $312 $30 $-1 $313 reversed single #
loop $-1 $-1 $314 $124 #
plane-surface $-1 -71.888180181279949 0 0 1 0 0 0 0 -1 forward_v I I I I #
coedge $-1 $315 $211 $314 $316 forward $125 $-1 #
coedge $-1 $317 $127 $315 $318 forward $81 $-1 #
coedge $-1 $127 $317 $319 $320 forward $81 $-1 #
coedge $-1 $214 $213 $127 $207 reversed $215 $-1 #
edge $-1 $321 -43.560941921853328 $322 43.560941921853328 $206 $323 forward 7 unknown #
coedge $-1 $129 $128 $324 $325 forward $51 $-1 #
coedge $-1 $326 $327 $128 $210 reversed $312 $-1 #
edge $-1 $217 -71.888180181279949 $328 71.888180181279949 $209 $329 forward 7 unknown #
coedge $-1 $203 $330 $129 $212 reversed $125 $-1 #
edge $-1 $331 -71.888180181279949 $216 71.888180181279949 $211 $332 forward 7 unknown #
coedge $-1 $206 $130 $330 $333 forward $215 $-1 #
coedge $-1 $130 $206 $326 $334 reversed $215 $-1 #
loop $-1 $-1 $213 $311 #
vertex $-1 $131 $335 #
vertex $-1 $131 $336 #
straight-curve $-1 71.888180181279949 0 17.315630620201411 0 1 0 I I #
face $-1 $337 $338 $31 $-1 $339 reversed single #
loop $-1 $-1 $340 $132 #
plane-surface $-1 -79.648079083878557 0 -13.765963836816557 0 0 1 1 0 0 forward_v I I I I #
coedge $-1 $341 $135 $342 $343 reversed $85 $-1 #
coedge $-1 $135 $341 $228 $344 reversed $85 $-1 #
edge $-1 $230 7.5589282785182164 $345 13.765963836816557 $135 $346 forward 7 unknown #
coedge $-1 $137 $136 $340 $347 forward $54 $-1 #
coedge $-1 $348 $349 $136 $227 forward $350 $-1 #
edge $-1 $351 -13.765963836816557 $231 -7.5589282785182164 $226 $352 forward 7 unknown #
coedge $-1 $353 $138 $223 $344 forward $133 $-1 #
coedge $-1 $138 $353 $348 $354 forward $133 $-1 #
vertex $-1 $224 $355 #
vertex $-1 $354 $356 #
straight-curve $-1 -71.888180181279949 0 -7.5589282785182164 0 -1 0 I I #
face $-1 $-1 $245 $32 $-1 $357 forward single #
loop $-1 $-1 $358 $140 #
plane-surface $-1 0 -43.560941921853328 0 0 1 0 0 0 1 forward_v I I I I #
coedge $-1 $359 $360 $361 $362 reversed $141 $-1 #
coedge $-1 $363 $143 $145 $243 forward $89 $-1 #
coedge $-1 $143 $363 $359 $364 forward $89 $-1 #
coedge $-1 $361 $146 $143 $240 forward $245 $-1 #
edge $-1 $247 -0.59708802115292947 $365 30.518837881424503 $239 $366 forward 7 unknown #
coedge $-1 $367 $368 $144 $242 forward $234 $-1 #
edge $-1 $369 -48.414074163102526 $246 -39.421667486059057 $241 $370 forward 7 unknown #
edge $-1 $247 -13.185378582591678 $369 0 $145 $371 forward 7 unknown #
coedge $-1 $146 $361 $367 $372 forward $245 $-1 #
loop $-1 $-1 $361 $233 #
vertex $-1 $242 $373 #
vertex $-1 $147 $374 #
straight-curve $-1 -14.363786908982858 -70.808092535337465 17.315630620201411 0 1 0 I I #
coedge $-1 $249 $249 $-1 $375 reversed $150 $-1 #
edge $-1 $376 0 $376 6.2831853071796004 $151 $377 forward 7 unknown #
vertex $-1 $154 $378 #
ellipse-curve $-1 -29.921749860271575 -38.739354254887928 12.819427281679678 0 -0.68199836817093118 0.7313536940579346 1.5 0 0 1 I I #
face $-1 $-1 $265 $34 $-1 $379 forward single #
loop $-1 $-1 $380 $155 #
plane-surface $-1 0 -43.560941921853328 0 0 1 0 0 0 1 forward_v I I I I #
coedge $-1 $381 $382 $383 $384 reversed $156 $-1 #
coedge $-1 $385 $158 $160 $263 forward $98 $-1 #
coedge $-1 $158 $385 $381 $386 forward $98 $-1 #
coedge $-1 $383 $161 $158 $260 forward $265 $-1 #
edge $-1 $267 -38.278736784023103 $387 -7.1628108814456724 $259 $388 forward 7 unknown #
coedge $-1 $389 $390 $159 $262 forward $254 $-1 #
edge $-1 $391 -48.414074163102526 $266 -39.421667486059057 $261 $392 forward 7 unknown #
edge $-1 $267 -13.185378582591678 $391 0 $160 $393 forward 7 unknown #
coedge $-1 $161 $383 $389 $394 forward $265 $-1 #
loop $-1 $-1 $383 $253 #
vertex $-1 $262 $395 #
vertex $-1 $162 $396 #
straight-curve $-1 60.99951061675749 -70.808092535337465 17.315630620201411 0 1 0 I I #
coedge $-1 $269 $269 $-1 $397 reversed $165 $-1 #
edge $-1 $398 0 $398 6.2831853071796004 $166 $399 forward 7 unknown #
vertex $-1 $169 $400 #
ellipse-curve $-1 45.441547665468775 -38.739354254887928 12.819427281679678 0 -0.68199836817093118 0.7313536940579346 1.5 0 0 1 I I #
face $-1 $-1 $401 $36 $-1 $402 reversed single #
loop $-1 $-1 $176 $170 #
plane-surface $-1 0 0 17.315630620201411 0 0 1 1 0 0 forward_v I I I I #
coedge $-1 $403 $404 $405 $406 reversed $171 $-1 #
coedge $-1 $407 $173 $175 $283 forward $107 $-1 #
coedge $-1 $173 $407 $403 $408 forward $107 $-1 #
coedge $-1 $405 $176 $173 $280 forward $274 $-1 #
edge $-1 $286 -30.518837881424503 $409 0.59708802115292947 $279 $410 forward 7 unknown #
coedge $-1 $411 $412 $174 $282 forward $401 $-1 #
edge $-1 $413 -78.122565469795219 $285 -69.130158792751729 $281 $414 forward 7 unknown #
edge $-1 $286 73.936505261114974 $413 87.121883843706684 $175 $415 forward 7 unknown #
coedge $-1 $176 $405 $411 $416 forward $274 $-1 #
vertex $-1 $177 $417 #
vertex $-1 $177 $418 #
straight-curve $-1 -45.47971281156029 38.949636744146879 17.315630620201404 0 -1 0 I I #
coedge $-1 $288 $288 $-1 $419 reversed $180 $-1 #
edge $-1 $420 0 $420 6.2831853071796004 $181 $421 forward 7 unknown #
vertex $-1 $184 $422 #
ellipse-curve $-1 -29.921749860271575 38.739354254887928 12.819427281679669 0 0.68199836817093118 0.7313536940579346 1.5 0 0 1 I I #
face $-1 $-1 $423 $38 $-1 $424 reversed single #
loop $-1 $-1 $191 $185 #
plane-surface $-1 0 0 17.315630620201411 0 0 1 1 0 0 forward_v I I I I #
coedge $-1 $425 $426 $427 $428 reversed $186 $-1 #
coedge $-1 $429 $188 $190 $302 forward $116 $-1 #
coedge $-1 $188 $429 $425 $430 forward $116 $-1 #
coedge $-1 $427 $191 $188 $299 forward $293 $-1 #
edge $-1 $305 7.1628108814456724 $431 38.278736784023103 $298 $432 forward 7 unknown #
coedge $-1 $433 $434 $189 $301 forward $423 $-1 #
edge $-1 $435 -78.122565469795219 $304 -69.130158792751729 $300 $436 forward 7 unknown #
edge $-1 $305 73.936505261114974 $435 87.121883843706684 $190 $437 forward 7 unknown #
coedge $-1 $191 $427 $433 $438 forward $293 $-1 #
vertex $-1 $192 $439 #
vertex $-1 $192 $440 #
straight-curve $-1 29.88358471418006 38.949636744146879 17.315630620201404 0 -1 0 I I #
coedge $-1 $307 $307 $-1 $441 reversed $195 $-1 #
edge $-1 $442 0 $442 6.2831853071796004 $196 $443 forward 7 unknown #
vertex $-1 $199 $444 #
ellipse-curve $-1 45.441547665468775 38.739354254887928 12.819427281679669 0 0.68199836817093118 0.7313536940579346 1.5 0 0 1 I I #
face $-1 $-1 $215 $30 $-1 $445 reversed single #
loop $-1 $-1 $326 $200 #
plane-surface $-1 0 43.560941921853328 0 0 -1 0 0 0 -1 forward_v I I I I #
coedge $-1 $324 $446 $203 $316 reversed $201 $-1 #
coedge $-1 $330 $203 $204 $318 reversed $125 $-1 #
edge $-1 $331 -17.315630620201411 $447 17.315630620201411 $314 $448 forward 7 unknown #
coedge $-1 $205 $204 $446 $449 forward $81 $-1 #
edge $-1 $322 -71.888180181279949 $447 71.888180181279949 $315 $450 forward 7 unknown #
coedge $-1 $327 $326 $205 $320 reversed $312 $-1 #
edge $-1 $451 -71.888180181279949 $321 71.888180181279949 $319 $452 forward 7 unknown #
vertex $-1 $207 $453 #
vertex $-1 $333 $454 #
straight-curve $-1 71.888180181279949 0 -17.315630620201411 0 -1 0 I I #
coedge $-1 $455 $314 $208 $325 reversed $201 $-1 #
edge $-1 $328 -43.560941921853328 $331 43.560941921853328 $324 $456 forward 7 unknown #
coedge $-1 $319 $209 $214 $334 forward $312 $-1 #
coedge $-1 $209 $319 $455 $457 reversed $312 $-1 #
vertex $-1 $210 $458 #
straight-curve $-1 0 43.560941921853328 17.315630620201411 -1 0 0 I I #
coedge $-1 $211 $315 $213 $333 reversed $125 $-1 #
vertex $-1 $325 $459 #
straight-curve $-1 0 -43.560941921853328 17.315630620201411 1 0 0 I I #
edge $-1 $216 -17.315630620201411 $322 17.315630620201411 $213 $460 forward 7 unknown #
edge $-1 $217 -17.315630620201411 $321 17.315630620201411 $214 $461 forward 7 unknown #
point $-1 71.888180181279949 -43.560941921853328 17.315630620201411 #
point $-1 71.888180181279949 43.560941921853328 17.315630620201411 #
face $-1 $-1 $350 $31 $-1 $462 reversed single #
loop $-1 $-1 $463 $219 #
plane-surface $-1 -87.407977986477164 0 -10.662446057667387 1 0 0 0 0 -1 forward_v I I I I #
coedge $-1 $464 $342 $225 $347 reversed $220 $-1 #
coedge $-1 $223 $222 $463 $465 reversed $85 $-1 #
coedge $-1 $340 $466 $222 $343 forward $220 $-1 #
edge $-1 $467 -7.7598989025986072 $345 7.7598989025986072 $222 $468 forward 7 unknown #
edge $-1 $230 -7.7598989025986072 $469 7.7598989025986072 $223 $470 forward 7 unknown #
vertex $-1 $224 $471 #
straight-curve $-1 -71.888180181279949 43.560941921853328 0 0 0 -1 I I #
edge $-1 $351 -43.560941921853328 $345 43.560941921853328 $340 $472 forward 7 unknown #
coedge $-1 $473 $226 $229 $354 reversed $350 $-1 #
coedge $-1 $226 $473 $464 $474 reversed $350 $-1 #
loop $-1 $-1 $226 $337 #
vertex $-1 $227 $475 #
straight-curve $-1 -71.888180181279949 -43.560941921853328 0 0 0 1 I I #
coedge $-1 $229 $228 $476 $477 forward $133 $-1 #
edge $-1 $478 -7.7598989025986072 $231 7.7598989025986072 $348 $479 forward 7 unknown #
point $-1 -71.888180181279949 43.560941921853328 -7.5589282785182164 #
point $-1 -71.888180181279949 -43.560941921853328 -7.5589282785182164 #
plane-surface $-1 0 0 17.315630620201411 0 0 1 1 0 0 forward_v I I I I #
coedge $-1 $368 $367 $360 $480 forward $234 $-1 #
coedge $-1 $360 $236 $238 $364 reversed $141 $-1 #
coedge $-1 $236 $359 $358 $480 reversed $141 $-1 #
coedge $-1 $244 $239 $236 $362 forward $245 $-1 #
edge $-1 $365 -36.890325947414937 $481 -27.247150613484138 $361 $482 forward 7 unknown #
coedge $-1 $238 $237 $368 $483 reversed $89 $-1 #
edge $-1 $484 0 $365 13.185378582591678 $359 $485 forward 7 unknown #
vertex $-1 $240 $486 #
straight-curve $-1 -14.960874930135788 -33.917766587922529 17.315630620201411 -1 0 0 I I #
coedge $-1 $358 $241 $244 $372 reversed $234 $-1 #
coedge $-1 $241 $358 $363 $483 forward $234 $-1 #
vertex $-1 $242 $487 #
straight-curve $-1 -14.363786908982858 -43.560941921853328 56.737298106260468 0 0 1 I I #
straight-curve $-1 -14.363786908982858 -43.560941921853328 8.3232239431579416 0 -0.7313536940579346 -0.68199836817093118 I I #
edge $-1 $481 -45.47971281156029 $246 -14.363786908982858 $367 $488 forward 7 unknown #
point $-1 -14.363786908982858 -43.560941921853328 17.315630620201411 #
point $-1 -14.363786908982858 -33.917766587922529 17.315630620201411 #
edge $-1 $489 1 $489 0 $249 $-1 forward 7 unknown #
vertex $-1 $250 $490 #
ellipse-curve $-1 -29.921749860271575 -35.771484345753827 9.6367765264441481 0 -0.68199836817093118 0.7313536940579346 1.5 0 0 1 I I #
point $-1 -28.421749860271575 -38.739354254887942 12.81942728167969 #
plane-surface $-1 0 0 17.315630620201411 0 0 1 1 0 0 forward_v I I I I #
coedge $-1 $390 $389 $382 $491 forward $254 $-1 #
coedge $-1 $382 $256 $258 $386 reversed $156 $-1 #
coedge $-1 $256 $381 $380 $491 reversed $156 $-1 #
coedge $-1 $264 $259 $256 $384 forward $265 $-1 #
edge $-1 $387 -36.890325947414937 $492 -27.247150613484138 $383 $493 forward 7 unknown #
coedge $-1 $258 $257 $390 $494 reversed $98 $-1 #
edge $-1 $495 0 $387 13.185378582591678 $381 $496 forward 7 unknown #
vertex $-1 $260 $497 #
straight-curve $-1 22.720773832734388 -33.917766587922529 17.315630620201411 -1 0 0 I I #
coedge $-1 $380 $261 $264 $394 reversed $254 $-1 #
coedge $-1 $261 $380 $385 $494 forward $254 $-1 #
vertex $-1 $262 $498 #
straight-curve $-1 60.99951061675749 -43.560941921853328 56.737298106260468 0 0 1 I I #
straight-curve $-1 60.99951061675749 -43.560941921853328 8.3232239431579416 0 -0.7313536940579346 -0.68199836817093118 I I #
edge $-1 $492 29.88358471418006 $266 60.99951061675749 $389 $499 forward 7 unknown #
point $-1 60.99951061675749 -43.560941921853328 17.315630620201411 #
point $-1 60.99951061675749 -33.917766587922529 17.315630620201411 #
edge $-1 $500 1 $500 0 $269 $-1 forward 7 unknown #
vertex $-1 $270 $501 #
ellipse-curve $-1 45.441547665468775 -35.771484345753827 9.6367765264441481 0 -0.68199836817093118 0.7313536940579346 1.5 0 0 1 I I #
point $-1 46.941547665468775 -38.739354254887942 12.81942728167969 #
loop $-1 $-1 $281 $273 #
plane-surface $-1 0 43.560941921853328 0 0 -1 0 0 0 -1 forward_v I I I I #
coedge $-1 $404 $276 $278 $408 reversed $171 $-1 #
coedge $-1 $276 $403 $502 $503 reversed $171 $-1 #
coedge $-1 $284 $279 $276 $406 forward $274 $-1 #
edge $-1 $409 -5.0318701562243646 $504 4.6113051777064484 $405 $505 forward 7 unknown #
coedge $-1 $278 $277 $412 $506 reversed $107 $-1 #
edge $-1 $507 -87.121883843706684 $409 -73.936505261114974 $403 $508 forward 7 unknown #
vertex $-1 $280 $509 #
straight-curve $-1 -14.960874930135788 33.917766587922515 17.315630620201418 1 0 0 I I #
coedge $-1 $502 $281 $284 $416 reversed $401 $-1 #
coedge $-1 $281 $502 $407 $506 forward $401 $-1 #
vertex $-1 $282 $510 #
straight-curve $-1 -45.47971281156029 43.560941921853328 86.445789412953147 0 0 1 I I #
straight-curve $-1 -45.47971281156029 -20.155969660527845 67.740206556543299 0 0.7313536940579346 -0.68199836817093118 I I #
edge $-1 $504 14.363786908982858 $285 45.47971281156029 $411 $511 forward 7 unknown #
point $-1 -45.47971281156029 43.560941921853328 17.315630620201411 #
point $-1 -45.47971281156029 33.917766587922515 17.315630620201411 #
edge $-1 $512 1 $512 0 $288 $-1 forward 7 unknown #
vertex $-1 $289 $513 #
ellipse-curve $-1 -29.921749860271575 35.771484345753827 9.636776526444141 0 0.68199836817093118 0.7313536940579346 1.5 0 0 1 I I #
point $-1 -28.421749860271575 38.739354254887942 12.819427281679683 #
loop $-1 $-1 $300 $292 #
plane-surface $-1 0 43.560941921853328 0 0 -1 0 0 0 -1 forward_v I I I I #
coedge $-1 $426 $295 $297 $430 reversed $186 $-1 #
coedge $-1 $295 $425 $514 $515 reversed $186 $-1 #
coedge $-1 $303 $298 $295 $428 forward $293 $-1 #
edge $-1 $431 -5.0318701562243646 $516 4.6113051777064484 $427 $517 forward 7 unknown #
coedge $-1 $297 $296 $434 $518 reversed $116 $-1 #
edge $-1 $519 -87.121883843706684 $431 -73.936505261114974 $425 $520 forward 7 unknown #
vertex $-1 $299 $521 #
straight-curve $-1 22.720773832734388 33.917766587922515 17.315630620201418 1 0 0 I I #
coedge $-1 $514 $300 $303 $438 reversed $423 $-1 #
coedge $-1 $300 $514 $429 $518 forward $423 $-1 #
vertex $-1 $301 $522 #
straight-curve $-1 29.88358471418006 43.560941921853328 86.445789412953147 0 0 1 I I #
straight-curve $-1 29.88358471418006 -20.155969660527845 67.740206556543299 0 0.7313536940579346 -0.68199836817093118 I I #
edge $-1 $516 -60.99951061675749 $304 -29.88358471418006 $433 $523 forward 7 unknown #
point $-1 29.88358471418006 43.560941921853328 17.315630620201411 #
point $-1 29.88358471418006 33.917766587922515 17.315630620201411 #
edge $-1 $524 1 $524 0 $307 $-1 forward 7 unknown #
vertex $-1 $308 $525 #
ellipse-curve $-1 45.441547665468775 35.771484345753827 9.636776526444141 0 0.68199836817093118 0.7313536940579346 1.5 0 0 1 I I #
point $-1 46.941547665468775 38.739354254887942 12.819427281679683 #
plane-surface $-1 71.888180181279949 0 0 -1 0 0 0 0 1 forward_v I I I I #
coedge $-1 $314 $455 $317 $449 reversed $201 $-1 #
vertex $-1 $449 $526 #
straight-curve $-1 -71.888180181279949 -43.560941921853328 0 0 0 -1 I I #
edge $-1 $447 -43.560941921853328 $451 43.560941921853328 $446 $527 forward 7 unknown #
straight-curve $-1 0 -43.560941921853328 -17.315630620201411 -1 0 0 I I #
vertex $-1 $320 $528 #
straight-curve $-1 0 43.560941921853328 -17.315630620201411 1 0 0 I I #
point $-1 71.888180181279949 43.560941921853328 -17.315630620201411 #
point $-1 71.888180181279949 -43.560941921853328 -17.315630620201411 #
coedge $-1 $446 $324 $327 $457 forward $201 $-1 #
straight-curve $-1 -71.888180181279949 0 17.315630620201411 0 -1 0 I I #
edge $-1 $328 -17.315630620201411 $451 17.315630620201411 $327 $529 forward 7 unknown #
point $-1 -71.888180181279949 43.560941921853328 17.315630620201411 #
point $-1 -71.888180181279949 -43.560941921853328 17.315630620201411 #
straight-curve $-1 71.888180181279949 -43.560941921853328 0 0 0 -1 I I #
straight-curve $-1 71.888180181279949 43.560941921853328 0 0 0 -1 I I #
plane-surface $-1 0 -43.560941921853328 0 0 1 0 0 0 1 forward_v I I I I #
coedge $-1 $530 $476 $341 $465 forward $338 $-1 #
coedge $-1 $466 $340 $349 $474 forward $220 $-1 #
edge $-1 $469 -3.1035177791491702 $467 3.1035177791491702 $341 $531 forward 7 unknown #
coedge $-1 $342 $464 $530 $532 forward $220 $-1 #
vertex $-1 $343 $533 #
straight-curve $-1 -79.648079083878557 43.560941921853328 -13.765963836816557 1 0 0 I I #
vertex $-1 $344 $534 #
straight-curve $-1 -79.648079083878557 43.560941921853328 -7.5589282785182164 -1 0 0 I I #
point $-1 -71.888180181279949 43.560941921853328 -13.765963836816557 #
straight-curve $-1 -71.888180181279949 0 -13.765963836816557 0 1 0 I I #
coedge $-1 $349 $348 $535 $536 forward $350 $-1 #
edge $-1 $351 -7.7598989025986072 $537 7.7598989025986072 $349 $538 forward 7 unknown #
point $-1 -71.888180181279949 -43.560941921853328 -13.765963836816557 #
coedge $-1 $463 $535 $353 $477 reversed $338 $-1 #
edge $-1 $469 -43.560941921853328 $478 43.560941921853328 $476 $539 forward 7 unknown #
vertex $-1 $477 $540 #
straight-curve $-1 -79.648079083878557 -43.560941921853328 -7.5589282785182164 1 0 0 I I #
edge $-1 $481 39.421667486059057 $484 48.414074163102526 $358 $541 forward 7 unknown #
vertex $-1 $372 $542 #
straight-curve $-1 -45.47971281156029 -70.808092535337465 17.315630620201411 0 -1 0 I I #
edge $-1 $484 -30.518837881424503 $369 0.59708802115292947 $368 $543 forward 7 unknown #
vertex $-1 $483 $544 #
straight-curve $-1 -45.47971281156029 -43.560941921853328 8.3232239431579416 0 0.7313536940579346 0.68199836817093118 I I #
point $-1 -45.47971281156029 -33.917766587922529 17.315630620201411 #
point $-1 -14.363786908982858 -43.560941921853328 8.3232239431579416 #
straight-curve $-1 0 -43.560941921853328 17.315630620201411 1 0 0 I I #
vertex $-1 $375 $545 #
point $-1 -28.421749860271575 -35.771484345753827 9.6367765264441481 #
edge $-1 $492 39.421667486059057 $495 48.414074163102526 $380 $546 forward 7 unknown #
vertex $-1 $394 $547 #
straight-curve $-1 29.88358471418006 -70.808092535337465 17.315630620201411 0 -1 0 I I #
edge $-1 $495 7.1628108814456724 $391 38.278736784023103 $390 $548 forward 7 unknown #
vertex $-1 $494 $549 #
straight-curve $-1 29.88358471418006 -43.560941921853328 8.3232239431579416 0 0.7313536940579346 0.68199836817093118 I I #
point $-1 29.88358471418006 -33.917766587922529 17.315630620201411 #
point $-1 60.99951061675749 -43.560941921853328 8.3232239431579416 #
straight-curve $-1 0 -43.560941921853328 17.315630620201411 1 0 0 I I #
vertex $-1 $397 $550 #
point $-1 46.941547665468775 -35.771484345753827 9.6367765264441481 #
coedge $-1 $412 $411 $404 $503 forward $401 $-1 #
edge $-1 $504 69.130158792751729 $507 78.122565469795219 $502 $551 forward 7 unknown #
vertex $-1 $416 $552 #
straight-curve $-1 -14.363786908982858 38.949636744146879 17.315630620201404 0 1 0 I I #
edge $-1 $507 -0.59708802115292947 $413 30.518837881424503 $412 $553 forward 7 unknown #
vertex $-1 $506 $554 #
straight-curve $-1 -14.363786908982858 -20.155969660527845 67.740206556543299 0 -0.7313536940579346 0.68199836817093118 I I #
point $-1 -14.363786908982858 33.917766587922515 17.315630620201411 #
point $-1 -45.47971281156029 43.560941921853328 8.3232239431579274 #
straight-curve $-1 0 43.560941921853328 17.315630620201411 -1 0 0 I I #
vertex $-1 $419 $555 #
point $-1 -28.421749860271575 35.771484345753827 9.636776526444141 #
coedge $-1 $434 $433 $426 $515 forward $423 $-1 #
edge $-1 $516 69.130158792751729 $519 78.122565469795219 $514 $556 forward 7 unknown #
vertex $-1 $438 $557 #
straight-curve $-1 60.99951061675749 38.949636744146879 17.315630620201404 0 1 0 I I #
edge $-1 $519 -38.278736784023103 $435 -7.1628108814456724 $434 $558 forward 7 unknown #
vertex $-1 $518 $559 #
straight-curve $-1 60.99951061675749 -20.155969660527845 67.740206556543299 0 -0.7313536940579346 0.68199836817093118 I I #
point $-1 60.99951061675749 33.917766587922515 17.315630620201411 #
point $-1 29.88358471418006 43.560941921853328 8.3232239431579274 #
straight-curve $-1 0 43.560941921853328 17.315630620201411 -1 0 0 I I #
vertex $-1 $441 $560 #
point $-1 46.941547665468775 35.771484345753827 9.636776526444141 #
point $-1 -71.888180181279949 -43.560941921853328 -17.315630620201411 #
straight-curve $-1 -71.888180181279949 0 -17.315630620201411 0 1 0 I I #
point $-1 -71.888180181279949 43.560941921853328 -17.315630620201411 #
straight-curve $-1 -71.888180181279949 43.560941921853328 0 0 0 -1 I I #
coedge $-1 $535 $463 $466 $532 reversed $338 $-1 #
straight-curve $-1 -87.407977986477164 43.560941921853328 -10.662446057667387 0 0 -1 I I #
edge $-1 $537 -43.560941921853328 $467 43.560941921853328 $530 $561 forward 7 unknown #
point $-1 -87.407977986477164 43.560941921853328 -13.765963836816557 #
point $-1 -87.407977986477164 43.560941921853328 -7.5589282785182164 #
coedge $-1 $476 $530 $473 $536 reversed $338 $-1 #
edge $-1 $478 -3.1035177791491702 $537 3.1035177791491702 $535 $562 forward 7 unknown #
vertex $-1 $532 $563 #
straight-curve $-1 -79.648079083878557 -43.560941921853328 -13.765963836816557 -1 0 0 I I #
straight-curve $-1 -87.407977986477164 0 -7.5589282785182164 0 -1 0 I I #
point $-1 -87.407977986477164 -43.560941921853328 -7.5589282785182164 #
straight-curve $-1 -45.47971281156029 -43.560941921853328 56.737298106260468 0 0 -1 I I #
point $-1 -45.47971281156029 -43.560941921853328 17.315630620201411 #
straight-curve $-1 -14.960874930135788 -43.560941921853328 8.3232239431579416 1 0 0 I I #
point $-1 -45.47971281156029 -43.560941921853328 8.3232239431579416 #
point $-1 -29.921749860271575 -34.748486793497428 8.5397459853572464 #
straight-curve $-1 29.88358471418006 -43.560941921853328 56.737298106260468 0 0 -1 I I #
point $-1 29.88358471418006 -43.560941921853328 17.315630620201411 #
straight-curve $-1 22.720773832734388 -43.560941921853328 8.3232239431579416 1 0 0 I I #
point $-1 29.88358471418006 -43.560941921853328 8.3232239431579416 #
point $-1 45.441547665468775 -34.748486793497428 8.5397459853572464 #
straight-curve $-1 -14.363786908982858 43.560941921853328 86.445789412953147 0 0 -1 I I #
point $-1 -14.363786908982858 43.560941921853328 17.315630620201411 #
straight-curve $-1 -14.960874930135788 43.560941921853328 8.3232239431579238 -1 0 0 I I #
point $-1 -14.363786908982858 43.560941921853328 8.3232239431579274 #
point $-1 -29.921749860271575 34.748486793497428 8.5397459853572393 #
straight-curve $-1 60.99951061675749 43.560941921853328 86.445789412953147 0 0 -1 I I #
point $-1 60.99951061675749 43.560941921853328 17.315630620201411 #
straight-curve $-1 22.720773832734388 43.560941921853328 8.3232239431579238 -1 0 0 I I #
point $-1 60.99951061675749 43.560941921853328 8.3232239431579274 #
point $-1 45.441547665468775 34.748486793497428 8.5397459853572393 #
straight-curve $-1 -87.407977986477164 0 -13.765963836816557 0 1 0 I I #
straight-curve $-1 -87.407977986477164 -43.560941921853328 -10.662446057667387 0 0 -1 I I #
point $-1 -87.407977986477164 -43.560941921853328 -13.765963836816557 #
End-of-ACIS-data 