500 0 10 0           
7 Unknown 11 ACIS 5.0 NT 24 Fri Mar 26 03:31:50 1999 
-1 9.9999999999999995e-007 1e-010 
body $-1 $10 $-1 $11 #
body $-1 $12 $-1 $13 #
body $-1 $14 $-1 $15 #
body $-1 $16 $-1 $17 #
body $-1 $18 $-1 $19 #
body $-1 $20 $-1 $21 #
body $-1 $22 $-1 $23 #
body $-1 $24 $-1 $25 #
body $-1 $26 $-1 $27 #
body $-1 $28 $-1 $29 #
lump $-1 $-1 $30 $0 #
transform $-1 1 0 0 0 1 0 0 0 1 67.565538499099702 40.095374601310581 13.780635982009327 1 rotate no_reflect no_shear #
lump $-1 $-1 $31 $1 #
transform $-1 1 0 0 0 1 0 0 0 1 67.565538499099702 40.095374601310581 13.780635982009327 1 rotate no_reflect no_shear #
lump $-1 $-1 $32 $2 #
transform $-1 1 0 0 0 1 0 0 0 1 67.565538499099702 40.095374601310581 13.780635982009327 1 rotate no_reflect no_shear #
lump $-1 $-1 $33 $3 #
transform $-1 1 0 0 0 1 0 0 0 1 67.565538499099702 40.095374601310581 13.780635982009327 1 rotate no_reflect no_shear #
lump $-1 $-1 $34 $4 #
transform $-1 1 0 0 0 1 0 0 0 1 67.565538499099702 40.095374601310581 13.780635982009327 1 rotate no_reflect no_shear #
lump $-1 $-1 $35 $5 #
transform $-1 1 0 0 0 1 0 0 0 1 67.565538499099702 40.095374601310581 13.780635982009327 1 rotate no_reflect no_shear #
lump $-1 $-1 $36 $6 #
transform $-1 1 0 0 0 1 0 0 0 1 67.565538499099702 40.095374601310581 13.780635982009327 1 rotate no_reflect no_shear #
lump $-1 $-1 $37 $7 #
transform $-1 1 0 0 0 1 0 0 0 1 67.565538499099702 40.095374601310581 13.780635982009327 1 rotate no_reflect no_shear #
lump $-1 $-1 $38 $8 #
transform $-1 1 0 0 0 1 0 0 0 1 67.565538499099702 40.095374601310581 13.780635982009327 1 rotate no_reflect no_shear #
lump $-1 $-1 $39 $9 #
transform $-1 1 0 0 0 1 0 0 0 1 67.565538499099702 40.095374601310581 13.780635982009327 1 rotate no_reflect no_shear #
shell $-1 $-1 $-1 $40 $-1 $10 #
shell $-1 $-1 $-1 $41 $-1 $12 #
shell $-1 $-1 $-1 $42 $-1 $14 #
shell $-1 $-1 $-1 $43 $-1 $16 #
shell $-1 $-1 $-1 $44 $-1 $18 #
shell $-1 $-1 $-1 $45 $-1 $20 #
shell $-1 $-1 $-1 $46 $-1 $22 #
shell $-1 $-1 $-1 $47 $-1 $24 #
shell $-1 $-1 $-1 $48 $-1 $26 #
shell $-1 $-1 $-1 $49 $-1 $28 #
face $-1 $50 $51 $30 $-1 $52 forward single #
face $-1 $53 $54 $31 $-1 $55 reversed single #
face $-1 $56 $57 $32 $-1 $58 forward single #
face $-1 $59 $60 $33 $-1 $61 forward single #
face $-1 $62 $63 $34 $-1 $64 reversed single #
face $-1 $65 $66 $35 $-1 $67 forward single #
face $-1 $68 $69 $36 $-1 $70 forward single #
face $-1 $71 $72 $37 $-1 $73 reversed single #
face $-1 $74 $75 $38 $-1 $76 forward single #
face $-1 $77 $78 $39 $-1 $79 forward single #
face $-1 $80 $81 $30 $-1 $82 reversed single #
loop $-1 $-1 $83 $40 #
plane-surface $-1 0 0 13.780635982009327 0 0 1 1 0 0 forward_v I I I I #
face $-1 $84 $85 $31 $-1 $86 reversed single #
loop $-1 $-1 $87 $41 #
plane-surface $-1 -26.304394093948019 -31.462149209159133 106.86651062421952 0.71933980857756763 0 0.69465836192734942 0.69465836192734942 0 -0.71933980857756763 forward_v I I I I #
face $-1 $88 $89 $32 $-1 $90 forward single #
loop $-1 $91 $92 $42 #
cone-surface $-1 64.506268952415951 -35.16210294865261 10.687420605147746 -0.71933980857756763 0 -0.69465836192734942 0.69465836192734942 0 -0.71933980857756763 1 I I 0 1 1 forward I I I I #
face $-1 $93 $94 $33 $-1 $95 forward single #
loop $-1 $96 $97 $43 #
cone-surface $-1 64.506268952415951 -27.762195469665656 10.687420605147746 -0.71933980857756763 0 -0.69465836192734942 0.69465836192734942 0 -0.71933980857756763 1 I I 0 1 1 forward I I I I #
face $-1 $98 $99 $34 $-1 $100 reversed single #
loop $-1 $-1 $101 $44 #
plane-surface $-1 -167.98750025054602 -31.299158886673258 95.604861145078047 0 -1 0 0.74314483375859142 0 -0.66913059716165679 forward_v I I I I #
face $-1 $102 $103 $35 $-1 $104 forward single #
loop $-1 $105 $106 $45 #
cone-surface $-1 -62.393749232117919 -37.5821701114142 8.3104318003393907 0.74314483375859142 0 -0.66913059716165679 0.66913059716165679 0 0.74314483375859142 1 I I 0 1 1 forward I I I I #
face $-1 $107 $108 $36 $-1 $109 forward single #
loop $-1 $110 $111 $46 #
cone-surface $-1 -62.393749232117919 -33.812363376569635 8.3104318003393907 0.74314483375859142 0 -0.66913059716165679 0.66913059716165679 0 0.74314483375859142 1 I I 0 1 1 forward I I I I #
face $-1 $112 $113 $37 $-1 $114 reversed single #
loop $-1 $-1 $115 $47 #
plane-surface $-1 -167.98750025054602 2.6645352591003757e-015 95.604861145078047 0 1 0 -0.74314483375859142 0 0.66913059716165679 forward_v I I I I #
face $-1 $116 $117 $38 $-1 $118 forward single #
loop $-1 $119 $120 $48 #
cone-surface $-1 -62.393749232117919 2.5132044898963812 8.3104318003393907 0.74314483375859142 0 -0.66913059716165679 0.66913059716165679 0 0.74314483375859142 1 I I 0 1 1 forward I I I I #
face $-1 $121 $122 $39 $-1 $123 forward single #
loop $-1 $124 $125 $49 #
cone-surface $-1 -62.393749232117919 6.283011224740946 8.3104318003393907 0.74314483375859142 0 -0.66913059716165679 0.66913059716165679 0 0.74314483375859142 1 I I 0 1 1 forward I I I I #
face $-1 $126 $127 $30 $-1 $128 reversed single #
loop $-1 $-1 $129 $50 #
plane-surface $-1 0 0 -13.780635982009327 0 0 1 1 0 0 forward_v I I I I #
coedge $-1 $130 $131 $132 $133 forward $51 $-1 #
face $-1 $134 $135 $31 $-1 $136 forward single #
loop $-1 $-1 $137 $53 #
plane-surface $-1 70.900768966817296 -22.828923817007684 200.73644321726724 0 -1 0 -0.71933980857756763 0 -0.69465836192734942 forward_v I I I I #
coedge $-1 $138 $139 $140 $141 reversed $54 $-1 #
face $-1 $-1 $142 $32 $-1 $143 forward single #
loop $-1 $144 $145 $56 #
cone-surface $-1 63.076304747230338 -35.16210294865261 9.3065202566000682 -0.71933980857756763 0 -0.69465836192734942 0.34732918096367471 0 -0.35966990428878381 1 I I -0.70710678118654746 0.70710678118654746 0.5 forward I I I I #
loop $-1 $-1 $146 $42 #
coedge $-1 $92 $92 $147 $148 reversed $57 $-1 #
face $-1 $-1 $149 $33 $-1 $150 forward single #
loop $-1 $151 $152 $59 #
cone-surface $-1 63.076304747230338 -27.762195469665656 9.3065202566000682 -0.71933980857756763 0 -0.69465836192734942 0.34732918096367471 0 -0.35966990428878381 1 I I -0.70710678118654746 0.70710678118654746 0.5 forward I I I I #
loop $-1 $-1 $153 $43 #
coedge $-1 $97 $97 $154 $155 reversed $60 $-1 #
face $-1 $156 $157 $34 $-1 $158 reversed single #
loop $-1 $-1 $159 $62 #
plane-surface $-1 -67.565538499099702 -35.697266743991918 5.1845228981750608 -0.74314483375859142 0 0.66913059716165679 0.66913059716165679 0 0.74314483375859142 forward_v I I I I #
coedge $-1 $160 $161 $162 $163 reversed $63 $-1 #
face $-1 $-1 $164 $35 $-1 $165 forward single #
loop $-1 $166 $167 $65 #
cone-surface $-1 -60.720374944901813 -37.5821701114142 6.8037188620057467 0.74314483375859142 0 -0.66913059716165679 0.3345652985808284 0 0.37157241687929571 1 I I -0.70710678118654746 0.70710678118654746 0.5 forward I I I I #
loop $-1 $-1 $168 $45 #
coedge $-1 $106 $106 $169 $170 reversed $66 $-1 #
face $-1 $-1 $171 $36 $-1 $172 forward single #
loop $-1 $173 $174 $68 #
cone-surface $-1 -60.720374944901813 -33.812363376569635 6.8037188620057467 0.74314483375859142 0 -0.66913059716165679 0.3345652985808284 0 0.37157241687929571 1 I I -0.70710678118654746 0.70710678118654746 0.5 forward I I I I #
loop $-1 $-1 $175 $46 #
coedge $-1 $111 $111 $176 $177 reversed $69 $-1 #
face $-1 $178 $179 $37 $-1 $180 reversed single #
loop $-1 $-1 $181 $71 #
plane-surface $-1 -67.565538499099702 4.3981078573186636 5.1845228981750608 -0.74314483375859142 0 0.66913059716165679 0.66913059716165679 0 0.74314483375859142 forward_v I I I I #
coedge $-1 $182 $183 $184 $185 reversed $72 $-1 #
face $-1 $-1 $186 $38 $-1 $187 forward single #
loop $-1 $188 $189 $74 #
cone-surface $-1 -60.720374944901813 2.5132044898963812 6.8037188620057467 0.74314483375859142 0 -0.66913059716165679 0.3345652985808284 0 0.37157241687929571 1 I I -0.70710678118654746 0.70710678118654746 0.5 forward I I I I #
loop $-1 $-1 $190 $48 #
coedge $-1 $120 $120 $191 $192 reversed $75 $-1 #
face $-1 $-1 $193 $39 $-1 $194 forward single #
loop $-1 $195 $196 $77 #
cone-surface $-1 -60.720374944901813 6.283011224740946 6.8037188620057467 0.74314483375859142 0 -0.66913059716165679 0.3345652985808284 0 0.37157241687929571 1 I I -0.70710678118654746 0.70710678118654746 0.5 forward I I I I #
loop $-1 $-1 $197 $49 #
coedge $-1 $125 $125 $198 $199 reversed $78 $-1 #
face $-1 $200 $201 $30 $-1 $202 reversed single #
loop $-1 $-1 $203 $80 #
plane-surface $-1 0 -40.095374601310581 0 0 1 0 0 0 1 forward_v I I I I #
coedge $-1 $204 $205 $206 $207 forward $81 $-1 #
coedge $-1 $208 $83 $209 $210 forward $51 $-1 #
coedge $-1 $83 $208 $211 $212 forward $51 $-1 #
coedge $-1 $213 $214 $83 $133 reversed $215 $-1 #
edge $-1 $216 -40.095374601310581 $217 40.095374601310581 $132 $218 forward 7 unknown #
face $-1 $219 $220 $31 $-1 $221 reversed single #
loop $-1 $-1 $222 $84 #
plane-surface $-1 0 0 13.780635982009327 0 0 1 1 0 0 forward_v I I I I #
coedge $-1 $223 $224 $225 $226 reversed $85 $-1 #
coedge $-1 $227 $87 $228 $229 reversed $54 $-1 #
coedge $-1 $87 $227 $223 $230 forward $54 $-1 #
coedge $-1 $225 $231 $87 $141 forward $232 $-1 #
edge $-1 $233 -24.364299996731013 $234 -7.0978492124281178 $140 $235 forward 7 unknown #
loop $-1 $-1 $147 $88 #
plane-surface $-1 -26.304394093948019 -31.462149209159133 106.86651062421952 0.71933980857756763 0 0.69465836192734942 0.69465836192734942 0 -0.71933980857756763 forward_v I I I I #
loop $-1 $-1 $236 $56 #
coedge $-1 $145 $145 $146 $237 reversed $89 $-1 #
coedge $-1 $146 $146 $145 $237 forward $91 $-1 #
coedge $-1 $147 $147 $92 $148 forward $142 $-1 #
edge $-1 $238 0 $238 6.2831853071796004 $147 $239 forward 7 unknown #
loop $-1 $-1 $154 $93 #
plane-surface $-1 -26.304394093948019 -31.462149209159133 106.86651062421952 0.71933980857756763 0 0.69465836192734942 0.69465836192734942 0 -0.71933980857756763 forward_v I I I I #
loop $-1 $-1 $240 $59 #
coedge $-1 $152 $152 $153 $241 reversed $94 $-1 #
coedge $-1 $153 $153 $152 $241 forward $96 $-1 #
coedge $-1 $154 $154 $97 $155 forward $149 $-1 #
edge $-1 $242 0 $242 6.2831853071796004 $154 $243 forward 7 unknown #
face $-1 $244 $245 $34 $-1 $246 reversed single #
loop $-1 $-1 $162 $98 #
plane-surface $-1 -67.565538499099702 0 0 1 0 0 0 0 -1 forward_v I I I I #
coedge $-1 $247 $248 $249 $250 reversed $99 $-1 #
coedge $-1 $161 $101 $251 $252 reversed $63 $-1 #
coedge $-1 $101 $160 $247 $253 reversed $63 $-1 #
coedge $-1 $249 $254 $101 $163 forward $157 $-1 #
edge $-1 $255 34.021794590529694 $256 42.617907674363963 $162 $257 forward 7 unknown #
loop $-1 $-1 $169 $102 #
plane-surface $-1 -67.565538499099702 -35.697266743991918 5.1845228981750608 -0.74314483375859142 0 0.66913059716165679 0.66913059716165679 0 0.74314483375859142 forward_v I I I I #
loop $-1 $-1 $258 $65 #
coedge $-1 $167 $167 $168 $259 reversed $103 $-1 #
coedge $-1 $168 $168 $167 $259 forward $105 $-1 #
coedge $-1 $169 $169 $106 $170 forward $164 $-1 #
edge $-1 $260 0 $260 6.2831853071796004 $169 $261 forward 7 unknown #
loop $-1 $-1 $176 $107 #
plane-surface $-1 -67.565538499099702 -35.697266743991918 5.1845228981750608 -0.74314483375859142 0 0.66913059716165679 0.66913059716165679 0 0.74314483375859142 forward_v I I I I #
loop $-1 $-1 $262 $68 #
coedge $-1 $174 $174 $175 $263 reversed $108 $-1 #
coedge $-1 $175 $175 $174 $263 forward $110 $-1 #
coedge $-1 $176 $176 $111 $177 forward $171 $-1 #
edge $-1 $264 0 $264 6.2831853071796004 $176 $265 forward 7 unknown #
face $-1 $266 $267 $37 $-1 $268 reversed single #
loop $-1 $-1 $269 $112 #
plane-surface $-1 -167.98750025054602 8.7962157146373237 95.604861145078047 0 -1 0 0.74314483375859142 0 -0.66913059716165679 forward_v I I I I #
coedge $-1 $270 $271 $272 $273 reversed $113 $-1 #
coedge $-1 $183 $115 $274 $275 reversed $72 $-1 #
coedge $-1 $115 $182 $270 $276 reversed $72 $-1 #
coedge $-1 $272 $277 $115 $185 forward $278 $-1 #
edge $-1 $279 16.428211626173308 $280 24.168186419463268 $184 $281 forward 7 unknown #
loop $-1 $-1 $191 $116 #
plane-surface $-1 -67.565538499099702 4.3981078573186636 5.1845228981750608 -0.74314483375859142 0 0.66913059716165679 0.66913059716165679 0 0.74314483375859142 forward_v I I I I #
loop $-1 $-1 $282 $74 #
coedge $-1 $189 $189 $190 $283 reversed $117 $-1 #
coedge $-1 $190 $190 $189 $283 forward $119 $-1 #
coedge $-1 $191 $191 $120 $192 forward $186 $-1 #
edge $-1 $284 0 $284 6.2831853071796004 $191 $285 forward 7 unknown #
loop $-1 $-1 $198 $121 #
plane-surface $-1 -67.565538499099702 4.3981078573186636 5.1845228981750608 -0.74314483375859142 0 0.66913059716165679 0.66913059716165679 0 0.74314483375859142 forward_v I I I I #
loop $-1 $-1 $286 $77 #
coedge $-1 $196 $196 $197 $287 reversed $122 $-1 #
coedge $-1 $197 $197 $196 $287 forward $124 $-1 #
coedge $-1 $198 $198 $125 $199 forward $193 $-1 #
edge $-1 $288 0 $288 6.2831853071796004 $198 $289 forward 7 unknown #
face $-1 $290 $291 $30 $-1 $292 reversed single #
loop $-1 $-1 $293 $126 #
plane-surface $-1 -67.565538499099702 0 0 1 0 0 0 0 -1 forward_v I I I I #
coedge $-1 $294 $211 $295 $296 forward $127 $-1 #
coedge $-1 $297 $129 $294 $298 forward $81 $-1 #
coedge $-1 $129 $297 $299 $300 forward $81 $-1 #
coedge $-1 $214 $213 $129 $207 reversed $215 $-1 #
edge $-1 $301 -40.095374601310581 $302 40.095374601310581 $206 $303 forward 7 unknown #
coedge $-1 $131 $130 $304 $305 forward $51 $-1 #
coedge $-1 $306 $307 $130 $210 reversed $291 $-1 #
edge $-1 $217 -67.565538499099702 $308 67.565538499099702 $209 $309 forward 7 unknown #
coedge $-1 $203 $310 $131 $212 reversed $127 $-1 #
edge $-1 $311 -67.565538499099702 $216 67.565538499099702 $211 $312 forward 7 unknown #
coedge $-1 $206 $132 $310 $313 forward $215 $-1 #
coedge $-1 $132 $206 $306 $314 reversed $215 $-1 #
loop $-1 $-1 $213 $290 #
vertex $-1 $133 $315 #
vertex $-1 $133 $316 #
straight-curve $-1 67.565538499099702 0 13.780635982009327 0 1 0 I I #
face $-1 $-1 $232 $31 $-1 $317 reversed single #
loop $-1 $-1 $228 $134 #
plane-surface $-1 0 -40.095374601310581 0 0 1 0 0 0 1 forward_v I I I I #
coedge $-1 $318 $319 $224 $320 forward $135 $-1 #
coedge $-1 $224 $137 $139 $230 reversed $85 $-1 #
coedge $-1 $137 $223 $222 $320 reversed $85 $-1 #
coedge $-1 $321 $140 $137 $226 forward $232 $-1 #
edge $-1 $234 -90.706874045179418 $322 -86.587585626624289 $225 $323 forward 7 unknown #
coedge $-1 $139 $138 $318 $324 reversed $54 $-1 #
coedge $-1 $325 $326 $138 $229 forward $220 $-1 #
edge $-1 $327 81.831640979129332 $233 87.558125693913382 $228 $328 forward 7 unknown #
edge $-1 $329 129.40459228341535 $234 135.1310769981994 $223 $330 forward 7 unknown #
coedge $-1 $140 $321 $325 $331 forward $232 $-1 #
loop $-1 $-1 $225 $219 #
vertex $-1 $229 $332 #
vertex $-1 $141 $333 #
straight-curve $-1 67.565538499099702 -15.731074604579566 9.6613475634542141 0 1 0 I I #
coedge $-1 $236 $236 $-1 $334 reversed $144 $-1 #
edge $-1 $335 0 $335 6.2831853071796004 $145 $336 forward 7 unknown #
vertex $-1 $148 $337 #
ellipse-curve $-1 65.57656325331277 -35.16210294865261 11.72099177273174 0.71933980857756763 0 0.69465836192734942 0.69465836192734942 0 -0.71933980857756763 1 I I #
coedge $-1 $240 $240 $-1 $338 reversed $151 $-1 #
edge $-1 $339 0 $339 6.2831853071796004 $152 $340 forward 7 unknown #
vertex $-1 $155 $341 #
ellipse-curve $-1 65.57656325331277 -27.762195469665656 11.72099177273174 0.71933980857756763 0 0.69465836192734942 0.69465836192734942 0 -0.71933980857756763 1 I I #
face $-1 $-1 $342 $34 $-1 $343 forward single #
loop $-1 $-1 $344 $156 #
plane-surface $-1 0 -40.095374601310581 0 0 1 0 0 0 1 forward_v I I I I #
coedge $-1 $345 $159 $161 $253 forward $99 $-1 #
coedge $-1 $159 $345 $344 $346 reversed $99 $-1 #
coedge $-1 $347 $162 $159 $250 forward $157 $-1 #
edge $-1 $256 13.450525514677299 $348 22.246741229314623 $249 $349 forward 7 unknown #
coedge $-1 $350 $351 $160 $252 forward $342 $-1 #
edge $-1 $352 -24.168186419463268 $255 -16.428211626173308 $251 $353 forward 7 unknown #
edge $-1 $256 0 $352 11.56721098410635 $161 $354 forward 7 unknown #
coedge $-1 $162 $347 $350 $355 reversed $157 $-1 #
vertex $-1 $355 $356 #
vertex $-1 $163 $357 #
straight-curve $-1 -67.565538499099702 -31.299158886673258 47.802430572539024 0 0 -1 I I #
coedge $-1 $258 $258 $-1 $358 reversed $166 $-1 #
edge $-1 $359 0 $359 6.2831853071796004 $167 $360 forward 7 unknown #
vertex $-1 $170 $361 #
ellipse-curve $-1 -63.695551102454722 -37.5821701114142 9.4825794400921968 -0.74314483375859142 0 0.66913059716165679 0.66913059716165679 0 0.74314483375859142 1 I I #
coedge $-1 $262 $262 $-1 $362 reversed $173 $-1 #
edge $-1 $363 0 $363 6.2831853071796004 $174 $364 forward 7 unknown #
vertex $-1 $177 $365 #
ellipse-curve $-1 -63.695551102454722 -33.812363376569635 9.4825794400921968 -0.74314483375859142 0 0.66913059716165679 0.66913059716165679 0 0.74314483375859142 1 I I #
face $-1 $-1 $278 $37 $-1 $366 forward single #
loop $-1 $-1 $367 $178 #
plane-surface $-1 -67.565538499099702 0 0 1 0 0 0 0 -1 forward_v I I I I #
coedge $-1 $368 $369 $370 $371 reversed $179 $-1 #
coedge $-1 $372 $181 $183 $276 forward $113 $-1 #
coedge $-1 $181 $372 $368 $373 forward $113 $-1 #
coedge $-1 $370 $184 $181 $273 forward $278 $-1 #
edge $-1 $280 -2.1990539286593291 $374 6.5971617859779919 $272 $375 forward 7 unknown #
coedge $-1 $376 $377 $182 $275 forward $267 $-1 #
edge $-1 $378 -42.617907674363963 $279 -34.021794590529694 $274 $379 forward 7 unknown #
edge $-1 $280 -11.56721098410635 $378 0 $183 $380 forward 7 unknown #
coedge $-1 $184 $370 $376 $381 forward $278 $-1 #
loop $-1 $-1 $370 $266 #
vertex $-1 $275 $382 #
vertex $-1 $185 $383 #
straight-curve $-1 -83.99375012527301 2.6645352591003757e-015 13.780635982009329 1 0 0 I I #
coedge $-1 $282 $282 $-1 $384 reversed $188 $-1 #
edge $-1 $385 0 $385 6.2831853071796004 $189 $386 forward 7 unknown #
vertex $-1 $192 $387 #
ellipse-curve $-1 -63.695551102454722 2.5132044898963812 9.4825794400921968 -0.74314483375859142 0 0.66913059716165679 0.66913059716165679 0 0.74314483375859142 1 I I #
coedge $-1 $286 $286 $-1 $388 reversed $195 $-1 #
edge $-1 $389 0 $389 6.2831853071796004 $196 $390 forward 7 unknown #
vertex $-1 $199 $391 #
ellipse-curve $-1 -63.695551102454722 6.283011224740946 9.4825794400921968 -0.74314483375859142 0 0.66913059716165679 0.66913059716165679 0 0.74314483375859142 1 I I #
face $-1 $-1 $215 $30 $-1 $392 reversed single #
loop $-1 $-1 $306 $200 #
plane-surface $-1 0 40.095374601310581 0 0 -1 0 0 0 -1 forward_v I I I I #
coedge $-1 $393 $304 $307 $394 forward $201 $-1 #
coedge $-1 $310 $203 $204 $298 reversed $127 $-1 #
coedge $-1 $304 $393 $203 $296 reversed $201 $-1 #
edge $-1 $311 -13.780635982009327 $395 13.780635982009327 $295 $396 forward 7 unknown #
coedge $-1 $205 $204 $393 $397 forward $81 $-1 #
edge $-1 $302 -67.565538499099702 $395 67.565538499099702 $294 $398 forward 7 unknown #
coedge $-1 $307 $306 $205 $300 reversed $291 $-1 #
edge $-1 $399 -67.565538499099702 $301 67.565538499099702 $299 $400 forward 7 unknown #
vertex $-1 $207 $401 #
vertex $-1 $313 $402 #
straight-curve $-1 67.565538499099702 0 -13.780635982009327 0 -1 0 I I #
coedge $-1 $293 $295 $208 $305 reversed $201 $-1 #
edge $-1 $308 -40.095374601310581 $311 40.095374601310581 $304 $403 forward 7 unknown #
coedge $-1 $299 $209 $214 $314 forward $291 $-1 #
coedge $-1 $209 $299 $293 $394 reversed $291 $-1 #
vertex $-1 $210 $404 #
straight-curve $-1 0 40.095374601310581 13.780635982009327 -1 0 0 I I #
coedge $-1 $211 $294 $213 $313 reversed $127 $-1 #
vertex $-1 $305 $405 #
straight-curve $-1 0 -40.095374601310581 13.780635982009327 1 0 0 I I #
edge $-1 $216 -13.780635982009327 $302 13.780635982009327 $213 $406 forward 7 unknown #
edge $-1 $217 -13.780635982009327 $301 13.780635982009327 $214 $407 forward 7 unknown #
point $-1 67.565538499099702 -40.095374601310581 13.780635982009327 #
point $-1 67.565538499099702 40.095374601310581 13.780635982009327 #
plane-surface $-1 67.565538499099702 0 0 -1 0 0 0 0 1 forward_v I I I I #
coedge $-1 $408 $222 $227 $324 forward $135 $-1 #
coedge $-1 $222 $408 $321 $409 forward $135 $-1 #
edge $-1 $322 -32.115154015691054 $329 -28.137203524117162 $222 $410 forward 7 unknown #
coedge $-1 $231 $225 $319 $409 reversed $232 $-1 #
vertex $-1 $226 $411 #
straight-curve $-1 67.565538499099702 -22.828923817007684 100.36822160863362 0 0 1 I I #
edge $-1 $329 7.0978492124281178 $327 24.364299996731013 $318 $412 forward 7 unknown #
coedge $-1 $326 $228 $231 $331 reversed $220 $-1 #
coedge $-1 $228 $325 $408 $413 reversed $220 $-1 #
vertex $-1 $413 $414 #
straight-curve $-1 6.7425543311368656 -40.095374601310581 72.64539293952447 0.69465836192734942 0 -0.71933980857756763 I I #
vertex $-1 $324 $415 #
straight-curve $-1 -26.304394093948019 -22.828923817007684 106.86651062421952 0.69465836192734942 0 -0.71933980857756763 I I #
edge $-1 $416 -13.780635982009327 $233 -9.6613475634542088 $231 $417 forward 7 unknown #
point $-1 67.565538499099702 -40.095374601310581 9.6613475634542088 #
point $-1 67.565538499099702 -22.828923817007684 9.6613475634541999 #
edge $-1 $418 1 $418 0 $236 $-1 forward 7 unknown #
vertex $-1 $237 $419 #
ellipse-curve $-1 63.435974651519125 -35.16210294865261 9.6538494375637427 0.71933980857756763 0 0.69465836192734942 0.69465836192734942 0 -0.71933980857756763 1 I I #
point $-1 66.271221615240137 -35.16210294865261 11.001651964154181 #
edge $-1 $420 1 $420 0 $240 $-1 forward 7 unknown #
vertex $-1 $241 $421 #
ellipse-curve $-1 63.435974651519125 -27.762195469665656 9.6538494375637427 0.71933980857756763 0 0.69465836192734942 0.69465836192734942 0 -0.71933980857756763 1 I I #
point $-1 66.271221615240137 -27.762195469665656 11.001651964154181 #
loop $-1 $-1 $251 $244 #
plane-surface $-1 0 0 13.780635982009327 0 0 1 1 0 0 forward_v I I I I #
coedge $-1 $422 $423 $248 $346 forward $245 $-1 #
coedge $-1 $248 $247 $351 $424 reversed $99 $-1 #
edge $-1 $348 -20.678658858084795 $425 -9.111447873978447 $344 $426 forward 7 unknown #
coedge $-1 $254 $249 $423 $427 reversed $157 $-1 #
vertex $-1 $346 $428 #
straight-curve $-1 -67.565538499099702 -17.848633371995959 5.1845228981750626 0 -1 0 I I #
coedge $-1 $429 $251 $254 $355 forward $342 $-1 #
coedge $-1 $251 $429 $345 $424 forward $342 $-1 #
vertex $-1 $252 $430 #
straight-curve $-1 -83.99375012527301 -31.299158886673258 13.780635982009329 -1 0 0 I I #
straight-curve $-1 -67.565538499099702 -31.299158886673258 5.1845228981750608 0.66913059716165679 0 0.74314483375859142 I I #
edge $-1 $255 31.299158886673258 $431 40.095374601310581 $254 $432 forward 7 unknown #
point $-1 -67.565538499099702 -31.299158886673258 13.780635982009327 #
point $-1 -67.565538499099702 -31.299158886673258 5.1845228981750608 #
edge $-1 $433 1 $433 0 $258 $-1 forward 7 unknown #
vertex $-1 $259 $434 #
ellipse-curve $-1 -61.091947361781109 -37.5821701114142 7.1382841605865748 -0.74314483375859142 0 0.66913059716165679 0.66913059716165679 0 0.74314483375859142 1 I I #
point $-1 -63.026420505293075 -37.5821701114142 10.225724273850798 #
edge $-1 $435 1 $435 0 $262 $-1 forward 7 unknown #
vertex $-1 $263 $436 #
ellipse-curve $-1 -61.091947361781109 -33.812363376569635 7.1382841605865748 -0.74314483375859142 0 0.66913059716165679 0.66913059716165679 0 0.74314483375859142 1 I I #
point $-1 -63.026420505293075 -33.812363376569635 10.225724273850798 #
plane-surface $-1 0 0 13.780635982009327 0 0 1 1 0 0 forward_v I I I I #
coedge $-1 $377 $376 $369 $437 forward $267 $-1 #
coedge $-1 $369 $269 $271 $373 reversed $179 $-1 #
coedge $-1 $269 $368 $367 $437 reversed $179 $-1 #
coedge $-1 $277 $272 $269 $371 forward $278 $-1 #
edge $-1 $374 -24.168186419463268 $438 -16.428211626173308 $370 $439 forward 7 unknown #
coedge $-1 $271 $270 $377 $440 reversed $113 $-1 #
edge $-1 $441 0 $374 11.56721098410635 $368 $442 forward 7 unknown #
vertex $-1 $273 $443 #
straight-curve $-1 -59.825563705809742 2.1990539286593318 13.780635982009327 0 1 0 I I #
coedge $-1 $367 $274 $277 $381 reversed $267 $-1 #
coedge $-1 $274 $367 $372 $440 forward $267 $-1 #
vertex $-1 $275 $444 #
straight-curve $-1 -67.565538499099702 2.6645352591003757e-015 47.802430572539024 0 0 1 I I #
straight-curve $-1 -67.565538499099702 2.6645352591003757e-015 5.1845228981750608 -0.66913059716165679 0 -0.74314483375859142 I I #
edge $-1 $438 -8.7962157146373237 $279 -2.6645352591003757e-015 $376 $445 forward 7 unknown #
point $-1 -67.565538499099702 2.6645352591003757e-015 13.780635982009327 #
point $-1 -59.825563705809742 2.6645352591003757e-015 13.780635982009327 #
edge $-1 $446 1 $446 0 $282 $-1 forward 7 unknown #
vertex $-1 $283 $447 #
ellipse-curve $-1 -61.091947361781109 2.5132044898963812 7.1382841605865748 -0.74314483375859142 0 0.66913059716165679 0.66913059716165679 0 0.74314483375859142 1 I I #
point $-1 -63.026420505293075 2.5132044898963812 10.225724273850798 #
edge $-1 $448 1 $448 0 $286 $-1 forward 7 unknown #
vertex $-1 $287 $449 #
ellipse-curve $-1 -61.091947361781109 6.283011224740946 7.1382841605865748 -0.74314483375859142 0 0.66913059716165679 0.66913059716165679 0 0.74314483375859142 1 I I #
point $-1 -63.026420505293075 6.283011224740946 10.225724273850798 #
plane-surface $-1 67.565538499099702 0 0 -1 0 0 0 0 1 forward_v I I I I #
coedge $-1 $295 $293 $297 $397 reversed $201 $-1 #
edge $-1 $308 -13.780635982009327 $399 13.780635982009327 $307 $450 forward 7 unknown #
vertex $-1 $397 $451 #
straight-curve $-1 -67.565538499099702 -40.095374601310581 0 0 0 -1 I I #
edge $-1 $395 -40.095374601310581 $399 40.095374601310581 $393 $452 forward 7 unknown #
straight-curve $-1 0 -40.095374601310581 -13.780635982009327 -1 0 0 I I #
vertex $-1 $300 $453 #
straight-curve $-1 0 40.095374601310581 -13.780635982009327 1 0 0 I I #
point $-1 67.565538499099702 40.095374601310581 -13.780635982009327 #
point $-1 67.565538499099702 -40.095374601310581 -13.780635982009327 #
straight-curve $-1 -67.565538499099702 0 13.780635982009327 0 -1 0 I I #
point $-1 -67.565538499099702 40.095374601310581 13.780635982009327 #
point $-1 -67.565538499099702 -40.095374601310581 13.780635982009327 #
straight-curve $-1 67.565538499099702 -40.095374601310581 0 0 0 -1 I I #
straight-curve $-1 67.565538499099702 40.095374601310581 0 0 0 -1 I I #
coedge $-1 $319 $318 $326 $413 forward $135 $-1 #
edge $-1 $416 -40.095374601310581 $322 -22.828923817007684 $321 $454 forward 7 unknown #
straight-curve $-1 35.450384483408648 -22.828923817007684 13.780635982009329 -1 0 0 I I #
point $-1 67.565538499099702 -22.828923817007684 13.780635982009327 #
straight-curve $-1 63.587588007525802 -15.731074604579566 13.780635982009336 0 -1 0 I I #
edge $-1 $327 63.58758800752581 $416 67.565538499099702 $326 $455 forward 7 unknown #
point $-1 63.58758800752581 -40.095374601310581 13.780635982009329 #
point $-1 63.58758800752581 -22.828923817007684 13.780635982009329 #
vertex $-1 $409 $456 #
straight-curve $-1 67.565538499099702 -40.095374601310581 0 0 0 -1 I I #
vertex $-1 $334 $457 #
point $-1 64.13063301344647 -35.16210294865261 8.9345096289861754 #
vertex $-1 $338 $458 #
point $-1 64.13063301344647 -27.762195469665656 8.9345096289861754 #
coedge $-1 $423 $344 $429 $459 reversed $245 $-1 #
coedge $-1 $344 $422 $347 $427 forward $245 $-1 #
edge $-1 $425 -22.246741229314623 $352 -13.450525514677299 $351 $460 forward 7 unknown #
vertex $-1 $424 $461 #
straight-curve $-1 -53.728815148887236 -40.095374601310581 20.551761397617106 0.66913059716165679 0 0.74314483375859142 I I #
edge $-1 $431 -13.780635982009327 $348 -5.1845228981750608 $347 $462 forward 7 unknown #
point $-1 -67.565538499099702 -40.095374601310581 5.1845228981750608 #
coedge $-1 $351 $350 $422 $459 forward $342 $-1 #
point $-1 -59.825563705809742 -31.299158886673258 13.780635982009327 #
vertex $-1 $355 $463 #
straight-curve $-1 -67.565538499099702 0 13.780635982009327 0 -1 0 I I #
vertex $-1 $358 $464 #
point $-1 -60.422816764619455 -37.5821701114142 7.8814289943451667 #
vertex $-1 $362 $465 #
point $-1 -60.422816764619455 -33.812363376569635 7.8814289943451667 #
edge $-1 $438 34.021794590529694 $441 42.617907674363963 $367 $466 forward 7 unknown #
vertex $-1 $381 $467 #
straight-curve $-1 -83.99375012527301 8.7962157146373237 13.780635982009329 -1 0 0 I I #
edge $-1 $441 -6.5971617859779919 $378 2.1990539286593291 $377 $468 forward 7 unknown #
vertex $-1 $440 $469 #
straight-curve $-1 -67.565538499099702 8.7962157146373237 5.1845228981750608 0.66913059716165679 0 0.74314483375859142 I I #
point $-1 -59.825563705809742 8.7962157146373237 13.780635982009327 #
point $-1 -67.565538499099702 2.6645352591003757e-015 5.1845228981750608 #
straight-curve $-1 -67.565538499099702 0 13.780635982009327 0 -1 0 I I #
vertex $-1 $384 $470 #
point $-1 -60.422816764619455 2.5132044898963812 7.8814289943451667 #
vertex $-1 $388 $471 #
point $-1 -60.422816764619455 6.283011224740946 7.8814289943451667 #
straight-curve $-1 -67.565538499099702 40.095374601310581 0 0 0 -1 I I #
point $-1 -67.565538499099702 -40.095374601310581 -13.780635982009327 #
straight-curve $-1 -67.565538499099702 0 -13.780635982009327 0 1 0 I I #
point $-1 -67.565538499099702 40.095374601310581 -13.780635982009327 #
straight-curve $-1 67.565538499099702 0 13.780635982009327 0 1 0 I I #
straight-curve $-1 0 -40.095374601310581 13.780635982009327 1 0 0 I I #
point $-1 67.565538499099702 -40.095374601310581 13.780635982009327 #
point $-1 62.716634842941552 -35.16210294865261 8.9591910756363937 #
point $-1 62.716634842941552 -27.762195469665656 8.9591910756363937 #
edge $-1 $431 -67.565538499099702 $425 -59.825563705809749 $422 $472 forward 7 unknown #
straight-curve $-1 -59.825563705809742 -17.848633371995959 13.780635982009327 0 1 0 I I #
point $-1 -59.825563705809749 -40.095374601310581 13.780635982009327 #
straight-curve $-1 -67.565538499099702 -40.095374601310581 0 0 0 -1 I I #
point $-1 -67.565538499099702 -40.095374601310581 13.780635982009327 #
point $-1 -60.348802528022517 -37.5821701114142 6.4691535634249187 #
point $-1 -60.348802528022517 -33.812363376569635 6.4691535634249187 #
straight-curve $-1 -67.565538499099702 8.7962157146373237 47.802430572539024 0 0 -1 I I #
point $-1 -67.565538499099702 8.7962157146373237 13.780635982009327 #
straight-curve $-1 -67.565538499099702 2.1990539286593318 5.1845228981750626 0 -1 0 I I #
point $-1 -67.565538499099702 8.7962157146373237 5.1845228981750608 #
point $-1 -60.348802528022517 2.5132044898963812 6.4691535634249187 #
point $-1 -60.348802528022517 6.283011224740946 6.4691535634249187 #
straight-curve $-1 0 -40.095374601310581 13.780635982009327 1 0 0 I I #
End-of-ACIS-data 