500 0 7 0           
7 Unknown 11 ACIS 5.0 NT 24 Fri Mar 26 02:31:52 1999 
-1 9.9999999999999995e-007 1e-010 
body $-1 $7 $-1 $8 #
body $-1 $9 $-1 $10 #
body $-1 $11 $-1 $12 #
body $-1 $13 $-1 $14 #
body $-1 $15 $-1 $16 #
body $-1 $17 $-1 $18 #
body $-1 $19 $-1 $20 #
lump $-1 $-1 $21 $0 #
transform $-1 1 0 0 0 1 0 0 0 1 78.093203527939693 40.127422949916706 11.029622327293461 1 rotate no_reflect no_shear #
lump $-1 $-1 $22 $1 #
transform $-1 1 0 0 0 1 0 0 0 1 78.093203527939693 40.127422949916706 11.029622327293461 1 rotate no_reflect no_shear #
lump $-1 $-1 $23 $2 #
transform $-1 1 0 0 0 1 0 0 0 1 78.093203527939693 40.127422949916706 11.029622327293461 1 rotate no_reflect no_shear #
lump $-1 $-1 $24 $3 #
transform $-1 1 0 0 0 1 0 0 0 1 78.093203527939693 40.127422949916706 11.029622327293461 1 rotate no_reflect no_shear #
lump $-1 $-1 $25 $4 #
transform $-1 1 0 0 0 1 0 0 0 1 78.093203527939693 40.127422949916706 11.029622327293461 1 rotate no_reflect no_shear #
lump $-1 $-1 $26 $5 #
transform $-1 1 0 0 0 1 0 0 0 1 78.093203527939693 40.127422949916706 11.029622327293461 1 rotate no_reflect no_shear #
lump $-1 $-1 $27 $6 #
transform $-1 1 0 0 0 1 0 0 0 1 78.093203527939693 40.127422949916706 11.029622327293461 1 rotate no_reflect no_shear #
shell $-1 $-1 $-1 $28 $-1 $7 #
shell $-1 $-1 $-1 $29 $-1 $9 #
shell $-1 $-1 $-1 $30 $-1 $11 #
shell $-1 $-1 $-1 $31 $-1 $13 #
shell $-1 $-1 $-1 $32 $-1 $15 #
shell $-1 $-1 $-1 $33 $-1 $17 #
shell $-1 $-1 $-1 $34 $-1 $19 #
face $-1 $35 $36 $21 $-1 $37 forward single #
face $-1 $38 $39 $22 $-1 $40 reversed single #
face $-1 $41 $42 $23 $-1 $43 reversed single #
face $-1 $44 $45 $24 $-1 $46 reversed single #
face $-1 $47 $48 $25 $-1 $49 forward single #
face $-1 $50 $51 $26 $-1 $52 reversed single #
face $-1 $53 $54 $27 $-1 $55 forward single #
face $-1 $56 $57 $21 $-1 $58 reversed single #
loop $-1 $-1 $59 $28 #
plane-surface $-1 0 0 11.029622327293461 0 0 1 1 0 0 forward_v I I I I #
face $-1 $60 $61 $22 $-1 $62 reversed single #
loop $-1 $-1 $63 $29 #
plane-surface $-1 -72.907520576188503 -34.279892308385143 0 0 1 0 0 0 1 forward_v I I I I #
face $-1 $64 $65 $23 $-1 $66 reversed single #
loop $-1 $-1 $67 $30 #
plane-surface $-1 71.636759438153319 -34.02290399334791 0 0 1 0 0 0 1 forward_v I I I I #
face $-1 $68 $69 $24 $-1 $70 reversed single #
loop $-1 $-1 $71 $31 #
plane-surface $-1 -36.863569548861506 -175.38882039423257 78.277725670564934 -1 0 0 0 -0.86602541151947299 0.49999998660252726 forward_v I I I I #
face $-1 $72 $73 $25 $-1 $74 forward single #
loop $-1 $75 $76 $32 #
cone-surface $-1 -52.292703586649402 -35.763656800540637 4.8951680297398026 0 0.86602541151947299 -0.49999998660252726 2 0 0 1 I I 0 1 2 forward I I I I #
face $-1 $77 $78 $26 $-1 $79 reversed single #
loop $-1 $-1 $80 $33 #
plane-surface $-1 -54.920422821563719 67.003957022717174 180.07639412924655 1 0 0 0 -0.5877852598018023 -0.80901698891910034 forward_v I I I I #
face $-1 $81 $82 $27 $-1 $83 forward single #
loop $-1 $84 $85 $34 #
cone-surface $-1 -41.30674346899653 36.514741058994311 8.0621851075351856 0 -0.5877852598018023 -0.80901698891910034 1 0 0 1 I I 0 1 1 forward I I I I #
face $-1 $86 $87 $21 $-1 $88 reversed single #
loop $-1 $-1 $89 $35 #
plane-surface $-1 0 0 -11.029622327293461 0 0 1 1 0 0 forward_v I I I I #
coedge $-1 $90 $91 $92 $93 forward $36 $-1 #
face $-1 $94 $95 $22 $-1 $96 reversed single #
loop $-1 $-1 $97 $38 #
plane-surface $-1 -72.907520576188503 -29.8056363222146 0 0 -1 0 0 0 -1 forward_v I I I I #
coedge $-1 $98 $99 $100 $101 reversed $39 $-1 #
face $-1 $102 $103 $23 $-1 $104 reversed single #
loop $-1 $-1 $105 $41 #
plane-surface $-1 65.18031534836696 -32.52290399334791 0 1 0 0 0 0 -1 forward_v I I I I #
coedge $-1 $106 $107 $108 $109 forward $42 $-1 #
face $-1 $110 $111 $24 $-1 $112 reversed single #
loop $-1 $-1 $113 $44 #
plane-surface $-1 -52.292703586649402 -40.127422949916706 0.18452423512837868 0 -0.86602541151947299 0.49999998660252726 1 0 0 forward_v I I I I #
coedge $-1 $114 $115 $116 $117 reversed $45 $-1 #
face $-1 $-1 $118 $25 $-1 $119 forward single #
loop $-1 $120 $121 $47 #
cone-surface $-1 -52.292703586649402 -33.664575279245184 3.6832627916661522 0 0.86602541151947299 -0.49999998660252726 1 0 0 1 I I -0.70710678118654735 0.70710678118654768 1 forward I I I I #
loop $-1 $-1 $122 $32 #
coedge $-1 $76 $76 $123 $124 reversed $48 $-1 #
face $-1 $125 $126 $26 $-1 $127 reversed single #
loop $-1 $-1 $128 $50 #
plane-surface $-1 -41.30674346899653 -24.800110826132936 53.718937382806089 0 0.5877852598018023 0.80901698891910034 1 0 0 forward_v I I I I #
coedge $-1 $129 $130 $131 $132 reversed $51 $-1 #
face $-1 $-1 $133 $27 $-1 $134 forward single #
loop $-1 $135 $136 $53 #
cone-surface $-1 -41.30674346899653 35.693533279792774 6.9318895893546379 0 -0.5877852598018023 -0.80901698891910034 0.5 0 0 1 I I -0.70710678118654746 0.70710678118654746 0.5 forward I I I I #
loop $-1 $-1 $137 $34 #
coedge $-1 $85 $85 $138 $139 reversed $54 $-1 #
face $-1 $140 $141 $21 $-1 $142 reversed single #
loop $-1 $-1 $143 $56 #
plane-surface $-1 0 -40.127422949916706 0 0 1 0 0 0 1 forward_v I I I I #
coedge $-1 $144 $145 $146 $147 forward $57 $-1 #
coedge $-1 $148 $59 $149 $150 forward $36 $-1 #
coedge $-1 $59 $148 $151 $152 forward $36 $-1 #
coedge $-1 $153 $154 $59 $93 reversed $155 $-1 #
edge $-1 $156 -40.127422949916706 $157 40.127422949916706 $92 $158 forward 7 unknown #
face $-1 $159 $160 $22 $-1 $161 reversed single #
loop $-1 $-1 $162 $60 #
plane-surface $-1 -67.721837624437313 -32.04276431529987 0 -1 0 0 0 0 1 forward_v I I I I #
coedge $-1 $163 $164 $165 $166 forward $61 $-1 #
coedge $-1 $167 $63 $168 $169 reversed $39 $-1 #
coedge $-1 $63 $167 $170 $171 reversed $39 $-1 #
coedge $-1 $172 $173 $63 $101 forward $174 $-1 #
edge $-1 $175 -11.029622327293461 $176 11.029622327293461 $100 $177 forward 7 unknown #
face $-1 $178 $179 $23 $-1 $180 reversed single #
loop $-1 $-1 $181 $64 #
plane-surface $-1 71.636759438153319 -31.02290399334791 0 0 -1 0 0 0 -1 forward_v I I I I #
coedge $-1 $182 $183 $184 $185 forward $65 $-1 #
coedge $-1 $186 $67 $187 $188 reversed $42 $-1 #
coedge $-1 $67 $186 $189 $190 reversed $42 $-1 #
coedge $-1 $183 $182 $67 $109 reversed $65 $-1 #
edge $-1 $191 -11.029622327293461 $192 11.029622327293461 $108 $193 forward 7 unknown #
face $-1 $194 $195 $24 $-1 $196 forward single #
loop $-1 $-1 $197 $68 #
plane-surface $-1 0 -40.127422949916706 0 0 1 0 0 0 1 forward_v I I I I #
coedge $-1 $198 $199 $200 $201 reversed $69 $-1 #
coedge $-1 $115 $71 $202 $203 reversed $45 $-1 #
coedge $-1 $71 $114 $198 $204 reversed $45 $-1 #
coedge $-1 $200 $205 $71 $117 forward $195 $-1 #
edge $-1 $206 47.566987247199577 $207 53.82840732639977 $116 $208 forward 7 unknown #
loop $-1 $-1 $123 $72 #
plane-surface $-1 -52.292703586649402 -40.127422949916706 0.18452423512837868 0 -0.86602541151947299 0.49999998660252726 1 0 0 forward_v I I I I #
loop $-1 $-1 $209 $47 #
coedge $-1 $121 $121 $122 $210 reversed $73 $-1 #
coedge $-1 $122 $122 $121 $210 forward $75 $-1 #
coedge $-1 $123 $123 $76 $124 forward $118 $-1 #
edge $-1 $211 1.1537776221352743e-015 $211 6.2831853071796013 $123 $212 forward 7 unknown #
face $-1 $213 $214 $26 $-1 $215 reversed single #
loop $-1 $-1 $216 $77 #
plane-surface $-1 -27.693064116429344 67.003957022717174 180.07639412924655 -1 0 0 0 0.5877852598018023 0.80901698891910034 forward_v I I I I #
coedge $-1 $217 $218 $219 $220 reversed $78 $-1 #
coedge $-1 $130 $80 $221 $222 reversed $51 $-1 #
coedge $-1 $80 $129 $217 $223 reversed $51 $-1 #
coedge $-1 $219 $224 $80 $132 forward $225 $-1 #
edge $-1 $226 -6.6254444385581195 $227 -0.4547109553145674 $131 $228 forward 7 unknown #
loop $-1 $-1 $138 $81 #
plane-surface $-1 -41.30674346899653 -24.800110826132936 53.718937382806089 0 0.5877852598018023 0.80901698891910034 1 0 0 forward_v I I I I #
loop $-1 $-1 $229 $53 #
coedge $-1 $136 $136 $137 $230 reversed $82 $-1 #
coedge $-1 $137 $137 $136 $230 forward $84 $-1 #
coedge $-1 $138 $138 $85 $139 forward $133 $-1 #
edge $-1 $231 -5.2205818317379235e-015 $231 6.2831853071795951 $138 $232 forward 7 unknown #
face $-1 $233 $234 $21 $-1 $235 reversed single #
loop $-1 $-1 $236 $86 #
plane-surface $-1 -78.093203527939693 0 0 1 0 0 0 0 -1 forward_v I I I I #
coedge $-1 $237 $151 $238 $239 forward $87 $-1 #
coedge $-1 $240 $89 $237 $241 forward $57 $-1 #
coedge $-1 $89 $240 $242 $243 forward $57 $-1 #
coedge $-1 $154 $153 $89 $147 reversed $155 $-1 #
edge $-1 $244 -40.127422949916706 $245 40.127422949916706 $146 $246 forward 7 unknown #
coedge $-1 $91 $90 $247 $248 forward $36 $-1 #
coedge $-1 $249 $250 $90 $150 reversed $234 $-1 #
edge $-1 $157 -78.093203527939693 $251 78.093203527939693 $149 $252 forward 7 unknown #
coedge $-1 $143 $253 $91 $152 reversed $87 $-1 #
edge $-1 $254 -78.093203527939693 $156 78.093203527939693 $151 $255 forward 7 unknown #
coedge $-1 $146 $92 $253 $256 forward $155 $-1 #
coedge $-1 $92 $146 $249 $257 reversed $155 $-1 #
loop $-1 $-1 $153 $233 #
vertex $-1 $93 $258 #
vertex $-1 $93 $259 #
straight-curve $-1 78.093203527939693 0 11.029622327293461 0 1 0 I I #
face $-1 $260 $261 $22 $-1 $262 forward single #
loop $-1 $-1 $263 $94 #
plane-surface $-1 0 0 -11.029622327293461 0 0 1 1 0 0 forward_v I I I I #
coedge $-1 $264 $265 $167 $266 forward $95 $-1 #
coedge $-1 $267 $97 $263 $268 reversed $61 $-1 #
coedge $-1 $97 $267 $269 $270 reversed $61 $-1 #
coedge $-1 $265 $264 $97 $166 reversed $95 $-1 #
edge $-1 $271 -11.029622327293461 $272 11.029622327293461 $165 $273 forward 7 unknown #
coedge $-1 $99 $98 $162 $266 reversed $39 $-1 #
coedge $-1 $274 $275 $98 $169 forward $160 $-1 #
edge $-1 $276 31.268077336343062 $175 41.639443239845441 $168 $277 forward 7 unknown #
coedge $-1 $278 $279 $99 $171 forward $261 $-1 #
edge $-1 $176 -41.639443239845441 $280 -31.268077336343062 $170 $281 forward 7 unknown #
coedge $-1 $282 $100 $279 $283 reversed $174 $-1 #
coedge $-1 $100 $282 $274 $284 reversed $174 $-1 #
loop $-1 $-1 $282 $260 #
vertex $-1 $284 $285 #
vertex $-1 $101 $286 #
straight-curve $-1 -78.093203527939693 -34.279892308385143 0 0 0 1 I I #
face $-1 $287 $288 $23 $-1 $289 forward single #
loop $-1 $-1 $187 $102 #
plane-surface $-1 0 0 -11.029622327293461 0 0 1 1 0 0 forward_v I I I I #
coedge $-1 $290 $291 $292 $293 reversed $103 $-1 #
coedge $-1 $108 $105 $294 $295 reversed $65 $-1 #
coedge $-1 $105 $108 $296 $297 reversed $65 $-1 #
coedge $-1 $291 $290 $105 $185 reversed $103 $-1 #
edge $-1 $298 -11.029622327293461 $299 11.029622327293461 $184 $300 forward 7 unknown #
coedge $-1 $107 $106 $301 $302 reversed $42 $-1 #
coedge $-1 $294 $303 $106 $188 forward $179 $-1 #
edge $-1 $304 -42.274823808863019 $192 -29.361935629290301 $187 $305 forward 7 unknown #
coedge $-1 $306 $296 $107 $190 forward $288 $-1 #
edge $-1 $191 29.361935629290301 $307 42.274823808863019 $189 $308 forward 7 unknown #
vertex $-1 $190 $309 #
vertex $-1 $188 $310 #
straight-curve $-1 65.18031534836696 -34.02290399334791 0 0 0 -1 I I #
face $-1 $-1 $311 $24 $-1 $312 forward single #
loop $-1 $-1 $313 $110 #
plane-surface $-1 0 0 11.029622327293461 0 0 1 1 0 0 forward_v I I I I #
coedge $-1 $314 $315 $316 $317 forward $111 $-1 #
coedge $-1 $318 $113 $115 $204 forward $69 $-1 #
coedge $-1 $113 $318 $319 $320 reversed $69 $-1 #
coedge $-1 $313 $116 $113 $201 forward $195 $-1 #
edge $-1 $207 10.717217755536804 $321 41.575485831112601 $200 $322 forward 7 unknown #
coedge $-1 $315 $314 $114 $203 forward $111 $-1 #
edge $-1 $323 -38.954338600154088 $206 -28.109240507989007 $202 $324 forward 7 unknown #
edge $-1 $207 -12.522840493949209 $323 0 $115 $325 forward 7 unknown #
coedge $-1 $116 $313 $315 $326 forward $195 $-1 #
vertex $-1 $117 $327 #
vertex $-1 $117 $328 #
straight-curve $-1 -36.863569548861506 -87.694410197116284 11.02962232729346 0 1 0 I I #
coedge $-1 $209 $209 $-1 $329 reversed $120 $-1 #
edge $-1 $330 0 $330 6.2831853071796004 $121 $331 forward 7 unknown #
vertex $-1 $124 $332 #
ellipse-curve $-1 -52.292703586649402 -36.99671291031661 5.6070732812109227 0 -0.86602541151947299 0.49999998660252726 2 0 0 1 I I #
face $-1 $-1 $225 $26 $-1 $333 forward single #
loop $-1 $-1 $334 $125 #
plane-surface $-1 0 40.127422949916706 0 0 -1 0 0 0 -1 forward_v I I I I #
coedge $-1 $335 $336 $337 $338 reversed $126 $-1 #
coedge $-1 $339 $128 $130 $223 forward $78 $-1 #
coedge $-1 $128 $339 $335 $340 forward $78 $-1 #
coedge $-1 $337 $131 $128 $220 forward $225 $-1 #
edge $-1 $227 -34.267051087065454 $341 -7.0396923819310793 $219 $342 forward 7 unknown #
coedge $-1 $343 $344 $129 $222 forward $214 $-1 #
edge $-1 $345 -83.491875129404377 $226 -79.008574737329809 $221 $346 forward 7 unknown #
edge $-1 $227 72.627399792072382 $345 80.254845899833427 $130 $347 forward 7 unknown #
coedge $-1 $131 $337 $343 $348 forward $225 $-1 #
loop $-1 $-1 $337 $213 #
vertex $-1 $222 $349 #
vertex $-1 $132 $350 #
straight-curve $-1 -54.920422821563719 33.501978511358587 11.029622327293467 0 -1 0 I I #
coedge $-1 $229 $229 $-1 $351 reversed $135 $-1 #
edge $-1 $352 0 $352 6.2831853071796004 $136 $353 forward 7 unknown #
vertex $-1 $139 $354 #
ellipse-curve $-1 -41.30674346899653 37.042056208294937 8.787972131256172 0 0.5877852598018023 0.80901698891910034 1 0 0 1 I I #
face $-1 $-1 $155 $21 $-1 $355 reversed single #
loop $-1 $-1 $249 $140 #
plane-surface $-1 0 40.127422949916706 0 0 -1 0 0 0 -1 forward_v I I I I #
coedge $-1 $356 $247 $250 $357 forward $141 $-1 #
coedge $-1 $253 $143 $144 $241 reversed $87 $-1 #
coedge $-1 $247 $356 $143 $239 reversed $141 $-1 #
edge $-1 $254 -11.029622327293461 $358 11.029622327293461 $238 $359 forward 7 unknown #
coedge $-1 $145 $144 $356 $360 forward $57 $-1 #
edge $-1 $245 -78.093203527939693 $358 78.093203527939693 $237 $361 forward 7 unknown #
coedge $-1 $250 $249 $145 $243 reversed $234 $-1 #
edge $-1 $362 -78.093203527939693 $244 78.093203527939693 $242 $363 forward 7 unknown #
vertex $-1 $147 $364 #
vertex $-1 $256 $365 #
straight-curve $-1 78.093203527939693 0 -11.029622327293461 0 -1 0 I I #
coedge $-1 $236 $238 $148 $248 reversed $141 $-1 #
edge $-1 $251 -40.127422949916706 $254 40.127422949916706 $247 $366 forward 7 unknown #
coedge $-1 $242 $149 $154 $257 forward $234 $-1 #
coedge $-1 $149 $242 $236 $357 reversed $234 $-1 #
vertex $-1 $150 $367 #
straight-curve $-1 0 40.127422949916706 11.029622327293461 -1 0 0 I I #
coedge $-1 $151 $237 $153 $256 reversed $87 $-1 #
vertex $-1 $248 $368 #
straight-curve $-1 0 -40.127422949916706 11.029622327293461 1 0 0 I I #
edge $-1 $156 -11.029622327293461 $245 11.029622327293461 $153 $369 forward 7 unknown #
edge $-1 $157 -11.029622327293461 $244 11.029622327293461 $154 $370 forward 7 unknown #
point $-1 78.093203527939693 -40.127422949916706 11.029622327293461 #
point $-1 78.093203527939693 40.127422949916706 11.029622327293461 #
face $-1 $-1 $174 $22 $-1 $371 reversed single #
loop $-1 $-1 $269 $159 #
plane-surface $-1 0 0 11.029622327293461 0 0 1 1 0 0 forward_v I I I I #
coedge $-1 $275 $274 $163 $268 forward $160 $-1 #
coedge $-1 $165 $162 $275 $372 reversed $95 $-1 #
coedge $-1 $162 $165 $278 $373 reversed $95 $-1 #
edge $-1 $280 -11.029622327293461 $276 11.029622327293461 $162 $374 forward 7 unknown #
coedge $-1 $164 $163 $282 $375 reversed $61 $-1 #
edge $-1 $376 -41.639443239845441 $272 -31.268077336343062 $263 $377 forward 7 unknown #
coedge $-1 $279 $278 $164 $270 forward $261 $-1 #
edge $-1 $271 31.268077336343062 $378 41.639443239845441 $269 $379 forward 7 unknown #
vertex $-1 $270 $380 #
vertex $-1 $268 $381 #
straight-curve $-1 -67.721837624437313 -29.8056363222146 0 0 0 -1 I I #
coedge $-1 $263 $168 $173 $284 forward $160 $-1 #
coedge $-1 $168 $263 $264 $372 forward $160 $-1 #
vertex $-1 $169 $382 #
straight-curve $-1 -36.453760288094252 -34.279892308385143 -11.029622327293461 -1 0 0 I I #
coedge $-1 $269 $170 $265 $373 forward $261 $-1 #
coedge $-1 $170 $269 $172 $283 forward $261 $-1 #
vertex $-1 $171 $383 #
straight-curve $-1 -36.453760288094252 -34.279892308385143 11.029622327293461 1 0 0 I I #
coedge $-1 $173 $172 $267 $375 forward $174 $-1 #
edge $-1 $378 29.8056363222146 $176 34.279892308385143 $172 $384 forward 7 unknown #
edge $-1 $175 -34.279892308385143 $376 -29.8056363222146 $173 $385 forward 7 unknown #
point $-1 -78.093203527939693 -34.279892308385143 -11.029622327293461 #
point $-1 -78.093203527939693 -34.279892308385143 11.029622327293461 #
face $-1 $-1 $386 $23 $-1 $387 reversed single #
loop $-1 $-1 $189 $178 #
plane-surface $-1 0 0 11.029622327293461 0 0 1 1 0 0 forward_v I I I I #
coedge $-1 $184 $181 $388 $389 reversed $103 $-1 #
coedge $-1 $181 $184 $390 $391 reversed $103 $-1 #
coedge $-1 $392 $393 $181 $293 forward $386 $-1 #
edge $-1 $394 -11.029622327293461 $395 11.029622327293461 $292 $396 forward 7 unknown #
coedge $-1 $388 $187 $182 $295 forward $179 $-1 #
edge $-1 $192 -17.761451996673955 $299 -14.761451996673955 $294 $397 forward 7 unknown #
coedge $-1 $189 $390 $183 $297 forward $288 $-1 #
edge $-1 $298 14.761451996673955 $191 17.761451996673955 $296 $398 forward 7 unknown #
vertex $-1 $297 $399 #
vertex $-1 $295 $400 #
straight-curve $-1 65.18031534836696 -31.02290399334791 0 0 0 -1 I I #
coedge $-1 $393 $392 $186 $302 forward $386 $-1 #
edge $-1 $307 -11.029622327293461 $304 11.029622327293461 $301 $401 forward 7 unknown #
coedge $-1 $187 $388 $393 $402 forward $179 $-1 #
vertex $-1 $302 $403 #
straight-curve $-1 35.81837971907666 -34.02290399334791 -11.029622327293461 -1 0 0 I I #
coedge $-1 $390 $189 $392 $404 forward $288 $-1 #
vertex $-1 $404 $405 #
straight-curve $-1 35.81837971907666 -34.02290399334791 11.029622327293461 1 0 0 I I #
point $-1 65.18031534836696 -34.02290399334791 11.029622327293461 #
point $-1 65.18031534836696 -34.02290399334791 -11.029622327293461 #
loop $-1 $-1 $319 $194 #
plane-surface $-1 -67.721837624437313 -32.04276431529987 0 -1 0 0 0 0 1 forward_v I I I I #
coedge $-1 $205 $200 $406 $407 forward $195 $-1 #
coedge $-1 $202 $197 $318 $408 forward $111 $-1 #
coedge $-1 $197 $202 $205 $326 reversed $111 $-1 #
coedge $-1 $406 $319 $197 $317 reversed $311 $-1 #
edge $-1 $409 28.109240507989007 $410 38.954338600154088 $197 $411 forward 7 unknown #
coedge $-1 $199 $198 $314 $408 reversed $69 $-1 #
coedge $-1 $316 $406 $199 $320 forward $311 $-1 #
edge $-1 $321 -10.581577227783182 $410 1.9412632661660272 $319 $412 forward 7 unknown #
vertex $-1 $407 $413 #
straight-curve $-1 -26.146351793324701 -33.866002870716514 11.029622327293461 -1 0 0 I I #
vertex $-1 $203 $414 #
straight-curve $-1 -36.863569548861506 -40.127422949916706 39.138862835282467 0 0 1 I I #
straight-curve $-1 -36.863569548861506 -40.127422949916706 0.18452423512837868 0 -0.49999998660252726 -0.86602541151947299 I I #
edge $-1 $409 -67.721837624437299 $206 -36.863569548861506 $315 $415 forward 7 unknown #
point $-1 -36.863569548861506 -40.127422949916706 11.029622327293461 #
point $-1 -36.863569548861506 -33.866002870716514 11.029622327293461 #
edge $-1 $416 1 $416 0 $209 $-1 forward 7 unknown #
vertex $-1 $210 $417 #
ellipse-curve $-1 -52.292703586649402 -34.530600690764658 4.1832627782686798 0 -0.86602541151947299 0.49999998660252726 2 0 0 1 I I #
point $-1 -50.292703586649402 -36.99671291031661 5.6070732812109254 #
plane-surface $-1 0 0 11.029622327293461 0 0 1 1 0 0 forward_v I I I I #
coedge $-1 $344 $343 $336 $418 forward $214 $-1 #
coedge $-1 $336 $216 $218 $340 reversed $126 $-1 #
coedge $-1 $216 $335 $334 $418 reversed $126 $-1 #
coedge $-1 $224 $219 $216 $338 forward $225 $-1 #
edge $-1 $341 0.4547109553145674 $419 6.6254444385581195 $337 $420 forward 7 unknown #
coedge $-1 $218 $217 $344 $421 reversed $78 $-1 #
edge $-1 $422 -80.254845899833427 $341 -72.627399792072382 $335 $423 forward 7 unknown #
vertex $-1 $220 $424 #
straight-curve $-1 -20.653371734498265 33.956689466673168 11.029622327293463 1 0 0 I I #
coedge $-1 $334 $221 $224 $348 reversed $214 $-1 #
coedge $-1 $221 $334 $339 $421 forward $214 $-1 #
vertex $-1 $222 $425 #
straight-curve $-1 -54.920422821563719 40.127422949916706 90.038197064623276 0 0 1 I I #
straight-curve $-1 -54.920422821563719 -24.800110826132936 53.718937382806089 0 0.80901698891910034 -0.5877852598018023 I I #
edge $-1 $419 27.693064116429344 $226 54.920422821563719 $343 $426 forward 7 unknown #
point $-1 -54.920422821563719 40.127422949916706 11.029622327293461 #
point $-1 -54.920422821563719 33.956689466673154 11.02962232729346 #
edge $-1 $427 1 $427 0 $229 $-1 forward 7 unknown #
vertex $-1 $230 $428 #
ellipse-curve $-1 -41.30674346899653 35.987425909693677 7.3363980838141885 0 0.5877852598018023 0.80901698891910034 1 0 0 1 I I #
point $-1 -40.30674346899653 37.042056208294937 8.7879721312561809 #
plane-surface $-1 78.093203527939693 0 0 -1 0 0 0 0 1 forward_v I I I I #
coedge $-1 $238 $236 $240 $360 reversed $141 $-1 #
edge $-1 $251 -11.029622327293461 $362 11.029622327293461 $250 $429 forward 7 unknown #
vertex $-1 $360 $430 #
straight-curve $-1 -78.093203527939693 -40.127422949916706 0 0 0 -1 I I #
edge $-1 $358 -40.127422949916706 $362 40.127422949916706 $356 $431 forward 7 unknown #
straight-curve $-1 0 -40.127422949916706 -11.029622327293461 -1 0 0 I I #
vertex $-1 $243 $432 #
straight-curve $-1 0 40.127422949916706 -11.029622327293461 1 0 0 I I #
point $-1 78.093203527939693 40.127422949916706 -11.029622327293461 #
point $-1 78.093203527939693 -40.127422949916706 -11.029622327293461 #
straight-curve $-1 -78.093203527939693 0 11.029622327293461 0 -1 0 I I #
point $-1 -78.093203527939693 40.127422949916706 11.029622327293461 #
point $-1 -78.093203527939693 -40.127422949916706 11.029622327293461 #
straight-curve $-1 78.093203527939693 -40.127422949916706 0 0 0 -1 I I #
straight-curve $-1 78.093203527939693 40.127422949916706 0 0 0 -1 I I #
plane-surface $-1 -78.093203527939693 0 0 1 0 0 0 0 -1 forward_v I I I I #
edge $-1 $272 13.784254164564665 $276 18.258510150735209 $275 $433 forward 7 unknown #
edge $-1 $280 -18.258510150735209 $271 -13.784254164564665 $278 $434 forward 7 unknown #
straight-curve $-1 -67.721837624437313 -34.279892308385143 0 0 0 -1 I I #
edge $-1 $378 -11.029622327293461 $376 11.029622327293461 $282 $435 forward 7 unknown #
vertex $-1 $375 $436 #
straight-curve $-1 -36.453760288094252 -29.8056363222146 -11.029622327293461 1 0 0 I I #
vertex $-1 $283 $437 #
straight-curve $-1 -36.453760288094252 -29.8056363222146 11.029622327293461 -1 0 0 I I #
point $-1 -67.721837624437313 -29.8056363222146 11.029622327293461 #
point $-1 -67.721837624437313 -29.8056363222146 -11.029622327293461 #
point $-1 -67.721837624437313 -34.279892308385143 -11.029622327293461 #
point $-1 -67.721837624437313 -34.279892308385143 11.029622327293461 #
straight-curve $-1 -78.093203527939693 0 11.029622327293461 0 -1 0 I I #
straight-curve $-1 -78.093203527939693 0 -11.029622327293461 0 1 0 I I #
loop $-1 $-1 $301 $287 #
plane-surface $-1 78.093203527939693 0 0 -1 0 0 0 0 1 forward_v I I I I #
coedge $-1 $303 $294 $290 $389 forward $179 $-1 #
edge $-1 $299 29.361935629290301 $394 42.274823808863019 $388 $438 forward 7 unknown #
coedge $-1 $296 $306 $291 $391 forward $288 $-1 #
edge $-1 $395 -42.274823808863019 $298 -29.361935629290301 $390 $439 forward 7 unknown #
coedge $-1 $301 $292 $306 $404 reversed $386 $-1 #
coedge $-1 $292 $301 $303 $402 reversed $386 $-1 #
vertex $-1 $402 $440 #
vertex $-1 $293 $441 #
straight-curve $-1 78.093203527939693 -31.02290399334791 0 0 0 1 I I #
straight-curve $-1 65.18031534836696 -16.261451996673955 -11.029622327293461 0 1 0 I I #
straight-curve $-1 65.18031534836696 -16.261451996673955 11.029622327293461 0 -1 0 I I #
point $-1 65.18031534836696 -31.02290399334791 11.029622327293461 #
point $-1 65.18031534836696 -31.02290399334791 -11.029622327293461 #
straight-curve $-1 78.093203527939693 -34.02290399334791 0 0 0 -1 I I #
edge $-1 $394 31.02290399334791 $304 34.02290399334791 $393 $442 forward 7 unknown #
point $-1 78.093203527939679 -34.02290399334791 -11.029622327293461 #
edge $-1 $307 -34.02290399334791 $395 -31.02290399334791 $392 $443 forward 7 unknown #
point $-1 78.093203527939679 -34.02290399334791 11.029622327293461 #
coedge $-1 $319 $316 $313 $407 reversed $311 $-1 #
edge $-1 $321 -53.82840732639977 $409 -47.566987247199577 $313 $444 forward 7 unknown #
edge $-1 $410 -41.575485831112601 $323 -10.717217755536804 $314 $445 forward 7 unknown #
vertex $-1 $326 $446 #
vertex $-1 $317 $447 #
straight-curve $-1 -67.721837624437299 -40.127422949916706 39.138862835282467 0 0 -1 I I #
straight-curve $-1 -67.721837624437313 -39.156791342841714 1.8657075540774486 0 -0.49999998660252726 -0.86602541151947299 I I #
point $-1 -67.721837624437299 -33.866002870716514 11.029622327293461 #
point $-1 -36.863569548861506 -40.127422949916706 0.18452423512837868 #
straight-curve $-1 0 -40.127422949916706 11.029622327293461 1 0 0 I I #
vertex $-1 $329 $448 #
point $-1 -50.292703586649402 -34.530600690764658 4.1832627782686798 #
edge $-1 $419 79.008574737329809 $422 83.491875129404377 $334 $449 forward 7 unknown #
vertex $-1 $348 $450 #
straight-curve $-1 -27.693064116429344 33.501978511358587 11.029622327293467 0 1 0 I I #
edge $-1 $422 7.0396923819310793 $345 34.267051087065454 $344 $451 forward 7 unknown #
vertex $-1 $421 $452 #
straight-curve $-1 -27.693064116429344 -24.800110826132936 53.718937382806089 0 -0.80901698891910034 0.5877852598018023 I I #
point $-1 -27.693064116429344 33.956689466673154 11.02962232729346 #
point $-1 -54.920422821563719 40.127422949916706 6.5463219352188915 #
straight-curve $-1 0 40.127422949916706 11.029622327293461 -1 0 0 I I #
vertex $-1 $351 $453 #
point $-1 -40.30674346899653 35.987425909693677 7.3363980838141885 #
straight-curve $-1 -78.093203527939693 40.127422949916706 0 0 0 -1 I I #
point $-1 -78.093203527939693 -40.127422949916706 -11.029622327293461 #
straight-curve $-1 -78.093203527939693 0 -11.029622327293461 0 1 0 I I #
point $-1 -78.093203527939693 40.127422949916706 -11.029622327293461 #
straight-curve $-1 -67.721837624437313 -16.021382157649935 -11.029622327293461 0 -1 0 I I #
straight-curve $-1 -67.721837624437313 -16.021382157649935 11.029622327293461 0 1 0 I I #
straight-curve $-1 -78.093203527939693 -29.8056363222146 0 0 0 -1 I I #
point $-1 -78.093203527939693 -29.8056363222146 -11.029622327293461 #
point $-1 -78.093203527939693 -29.8056363222146 11.029622327293461 #
straight-curve $-1 35.81837971907666 -31.02290399334791 -11.029622327293461 1 0 0 I I #
straight-curve $-1 35.81837971907666 -31.02290399334791 11.029622327293461 -1 0 0 I I #
point $-1 78.093203527939679 -31.02290399334791 -11.029622327293461 #
point $-1 78.093203527939679 -31.02290399334791 11.029622327293461 #
straight-curve $-1 78.093203527939693 0 -11.029622327293461 0 -1 0 I I #
straight-curve $-1 78.093203527939693 0 11.029622327293461 0 1 0 I I #
straight-curve $-1 -67.721837624437299 -87.694410197116284 11.02962232729346 0 -1 0 I I #
straight-curve $-1 -26.146351793324701 -40.127422949916706 0.18452423512837823 1 0 0 I I #
point $-1 -67.721837624437299 -40.127422949916706 11.029622327293461 #
point $-1 -67.721837624437299 -40.127422949916706 0.18452423512837868 #
point $-1 -52.292703586649402 -32.798549867725711 3.1832628050636247 #
straight-curve $-1 -27.693064116429344 40.127422949916706 90.038197064623276 0 0 -1 I I #
point $-1 -27.693064116429344 40.127422949916706 11.029622327293461 #
straight-curve $-1 -20.653371734498265 40.127422949916706 6.546321935218895 -1 0 0 I I #
point $-1 -27.693064116429344 40.127422949916706 6.5463219352188915 #
point $-1 -41.30674346899653 35.399640649891872 6.5273810948950874 #
End-of-ACIS-data 