500 0 9 0           
7 Unknown 11 ACIS 5.0 NT 24 Thu Mar 25 17:34:34 1999 
-1 9.9999999999999995e-007 1e-010 
body $-1 $9 $-1 $10 #
body $-1 $11 $-1 $12 #
body $-1 $13 $-1 $14 #
body $-1 $15 $-1 $16 #
body $-1 $17 $-1 $18 #
body $-1 $19 $-1 $20 #
body $-1 $21 $-1 $22 #
body $-1 $23 $-1 $24 #
body $-1 $25 $-1 $26 #
lump $-1 $-1 $27 $0 #
transform $-1 1 0 0 0 1 0 0 0 1 61.842707602160715 38.743841981221216 14.975150568931141 1 rotate no_reflect no_shear #
lump $-1 $-1 $28 $1 #
transform $-1 1 0 0 0 1 0 0 0 1 61.842707602160715 38.743841981221216 14.975150568931141 1 rotate no_reflect no_shear #
lump $-1 $-1 $29 $2 #
transform $-1 1 0 0 0 1 0 0 0 1 61.842707602160715 38.743841981221216 14.975150568931141 1 rotate no_reflect no_shear #
lump $-1 $-1 $30 $3 #
transform $-1 1 0 0 0 1 0 0 0 1 61.842707602160715 38.743841981221216 14.975150568931141 1 rotate no_reflect no_shear #
lump $-1 $-1 $31 $4 #
transform $-1 1 0 0 0 1 0 0 0 1 61.842707602160715 38.743841981221216 14.975150568931141 1 rotate no_reflect no_shear #
lump $-1 $-1 $32 $5 #
transform $-1 1 0 0 0 1 0 0 0 1 61.842707602160715 38.743841981221216 14.975150568931141 1 rotate no_reflect no_shear #
lump $-1 $-1 $33 $6 #
transform $-1 1 0 0 0 1 0 0 0 1 61.842707602160715 38.743841981221216 14.975150568931141 1 rotate no_reflect no_shear #
lump $-1 $-1 $34 $7 #
transform $-1 1 0 0 0 1 0 0 0 1 61.842707602160715 38.743841981221216 14.975150568931141 1 rotate no_reflect no_shear #
lump $-1 $-1 $35 $8 #
transform $-1 1 0 0 0 1 0 0 0 1 61.842707602160715 38.743841981221216 14.975150568931141 1 rotate no_reflect no_shear #
shell $-1 $-1 $-1 $36 $-1 $9 #
shell $-1 $-1 $-1 $37 $-1 $11 #
shell $-1 $-1 $-1 $38 $-1 $13 #
shell $-1 $-1 $-1 $39 $-1 $15 #
shell $-1 $-1 $-1 $40 $-1 $17 #
shell $-1 $-1 $-1 $41 $-1 $19 #
shell $-1 $-1 $-1 $42 $-1 $21 #
shell $-1 $-1 $-1 $43 $-1 $23 #
shell $-1 $-1 $-1 $44 $-1 $25 #
face $-1 $45 $46 $27 $-1 $47 forward single #
face $-1 $48 $49 $28 $-1 $50 forward single #
face $-1 $51 $52 $29 $-1 $53 reversed single #
face $-1 $54 $55 $30 $-1 $56 forward single #
face $-1 $57 $58 $31 $-1 $59 forward single #
face $-1 $60 $61 $32 $-1 $62 reversed single #
face $-1 $63 $64 $33 $-1 $65 forward single #
face $-1 $66 $67 $34 $-1 $68 reversed single #
face $-1 $69 $70 $35 $-1 $71 forward single #
face $-1 $72 $73 $27 $-1 $74 reversed single #
loop $-1 $-1 $75 $36 #
plane-surface $-1 0 0 14.975150568931141 0 0 1 1 0 0 forward_v I I I I #
face $-1 $76 $77 $28 $-1 $78 reversed single #
loop $-1 $-1 $79 $37 #
plane-surface $-1 0 -38.743841981221216 0 0 1 0 0 0 1 forward_v I I I I #
face $-1 $80 $81 $29 $-1 $82 reversed single #
loop $-1 $-1 $83 $38 #
plane-surface $-1 -163.15986932154925 5.9888949343367237 81.219147857971208 0 1 0 -0.81915205242281985 0 0.57357642473473569 forward_v I I I I #
face $-1 $84 $85 $30 $-1 $86 forward single #
loop $-1 $87 $88 $39 #
cone-surface $-1 -59.52908692841406 8.1556742807074798 12.157563230857015 0.81915205242281985 0 -0.57357642473473569 0.57357642473473569 0 0.81915205242281985 1 I I 0 1 1 forward I I I I #
face $-1 $89 $90 $31 $-1 $91 forward single #
loop $-1 $92 $93 $40 #
cone-surface $-1 -59.52908692841406 11.405843300263619 12.157563230857015 0.81915205242281985 0 -0.57357642473473569 0.57357642473473569 0 0.81915205242281985 1 I I 0 1 1 forward I I I I #
face $-1 $94 $95 $32 $-1 $96 reversed single #
loop $-1 $-1 $97 $41 #
plane-surface $-1 74.044344195964925 3.0833570337995901 181.27450816149701 0 -1 0 -0.75470958851134928 0 -0.65605901945558964 forward_v I I I I #
face $-1 $98 $99 $33 $-1 $100 forward single #
loop $-1 $101 $102 $42 #
cone-surface $-1 55.464421411235229 -1.0103263845503108 8.4297544681454823 -0.75470958851134928 0 -0.65605901945558964 1.3121180389111793 0 -1.5094191770226986 1 I I 0 1 2 forward I I I I #
face $-1 $103 $104 $34 $-1 $105 reversed single #
loop $-1 $-1 $106 $43 #
plane-surface $-1 74.044344195964925 36.585123953320917 181.27450816149701 0 -1 0 -0.75470958851134928 0 -0.65605901945558964 forward_v I I I I #
face $-1 $107 $108 $35 $-1 $109 forward single #
loop $-1 $110 $111 $44 #
cone-surface $-1 55.464421411235229 32.491440534971026 8.4297544681454823 -0.75470958851134928 0 -0.65605901945558964 1.3121180389111793 0 -1.5094191770226986 1 I I 0 1 2 forward I I I I #
face $-1 $112 $113 $27 $-1 $114 reversed single #
loop $-1 $-1 $115 $45 #
plane-surface $-1 0 0 -14.975150568931141 0 0 1 1 0 0 forward_v I I I I #
coedge $-1 $116 $117 $118 $119 forward $46 $-1 #
face $-1 $120 $121 $28 $-1 $122 reversed single #
loop $-1 $-1 $123 $48 #
plane-surface $-1 0 0 -14.975150568931141 0 0 1 1 0 0 forward_v I I I I #
coedge $-1 $124 $125 $126 $127 forward $49 $-1 #
face $-1 $128 $129 $29 $-1 $130 reversed single #
loop $-1 $-1 $131 $51 #
plane-surface $-1 -61.842707602160701 9.7807587904855566 10.276109613245211 -0.81915205242281985 0 0.57357642473473569 0.57357642473473569 0 0.81915205242281985 forward_v I I I I #
coedge $-1 $132 $133 $134 $135 reversed $52 $-1 #
face $-1 $-1 $136 $30 $-1 $137 forward single #
loop $-1 $138 $139 $54 #
cone-surface $-1 -58.45104212856576 8.1556742807074798 11.402708158258484 0.81915205242281985 0 -0.57357642473473569 0.28678821236736785 0 0.40957602621140993 1 I I -0.70710678118654746 0.70710678118654746 0.5 forward I I I I #
loop $-1 $-1 $140 $39 #
coedge $-1 $88 $88 $141 $142 reversed $55 $-1 #
face $-1 $-1 $143 $31 $-1 $144 forward single #
loop $-1 $145 $146 $57 #
cone-surface $-1 -58.45104212856576 11.405843300263619 11.402708158258484 0.81915205242281985 0 -0.57357642473473569 0.28678821236736785 0 0.40957602621140993 1 I I -0.70710678118654746 0.70710678118654746 0.5 forward I I I I #
loop $-1 $-1 $147 $40 #
coedge $-1 $93 $93 $148 $149 reversed $58 $-1 #
face $-1 $150 $151 $32 $-1 $152 reversed single #
loop $-1 $-1 $153 $60 #
plane-surface $-1 -19.302224617743889 -1.0103263845503179 100.12957594159242 0.75470958851134928 0 0.65605901945558964 0.65605901945558964 0 -0.75470958851134928 forward_v I I I I #
coedge $-1 $154 $155 $156 $157 reversed $61 $-1 #
face $-1 $-1 $158 $33 $-1 $159 forward single #
loop $-1 $160 $161 $63 #
cone-surface $-1 51.892086364739612 -1.0103263845503108 5.3243710684280074 -0.75470958851134928 0 -0.65605901945558964 0.65605901945558964 0 -0.75470958851134928 1 I I -0.70710678118654746 0.70710678118654746 1 forward I I I I #
loop $-1 $-1 $162 $42 #
coedge $-1 $102 $102 $163 $164 reversed $64 $-1 #
face $-1 $165 $166 $34 $-1 $167 reversed single #
loop $-1 $-1 $168 $66 #
plane-surface $-1 -19.302224617743889 32.491440534971012 100.12957594159242 0.75470958851134928 0 0.65605901945558964 0.65605901945558964 0 -0.75470958851134928 forward_v I I I I #
coedge $-1 $169 $170 $171 $172 reversed $67 $-1 #
face $-1 $-1 $173 $35 $-1 $174 forward single #
loop $-1 $175 $176 $69 #
cone-surface $-1 51.892086364739612 32.491440534971026 5.3243710684280074 -0.75470958851134928 0 -0.65605901945558964 0.65605901945558964 0 -0.75470958851134928 1 I I -0.70710678118654746 0.70710678118654746 1 forward I I I I #
loop $-1 $-1 $177 $44 #
coedge $-1 $111 $111 $178 $179 reversed $70 $-1 #
face $-1 $180 $181 $27 $-1 $182 reversed single #
loop $-1 $-1 $183 $72 #
plane-surface $-1 0 -38.743841981221216 0 0 1 0 0 0 1 forward_v I I I I #
coedge $-1 $184 $185 $186 $187 forward $73 $-1 #
coedge $-1 $188 $75 $189 $190 forward $46 $-1 #
coedge $-1 $75 $188 $191 $192 forward $46 $-1 #
coedge $-1 $193 $194 $75 $119 reversed $195 $-1 #
edge $-1 $196 -38.743841981221216 $197 38.743841981221216 $118 $198 forward 7 unknown #
face $-1 $199 $200 $28 $-1 $201 forward single #
loop $-1 $-1 $202 $76 #
plane-surface $-1 61.842707602160715 0 0 -1 0 0 0 0 1 forward_v I I I I #
coedge $-1 $203 $204 $205 $206 forward $77 $-1 #
coedge $-1 $205 $79 $202 $207 reversed $49 $-1 #
coedge $-1 $79 $205 $208 $209 reversed $49 $-1 #
coedge $-1 $210 $211 $79 $127 reversed $200 $-1 #
edge $-1 $212 -61.842707602160715 $213 61.842707602160715 $126 $214 forward 7 unknown #
face $-1 $215 $216 $29 $-1 $217 forward single #
loop $-1 $-1 $218 $80 #
plane-surface $-1 -163.15986932154925 13.57262264663439 81.219147857971208 0 -1 0 0.81915205242281985 0 -0.57357642473473569 forward_v I I I I #
coedge $-1 $219 $220 $221 $222 reversed $81 $-1 #
coedge $-1 $133 $83 $223 $224 reversed $52 $-1 #
coedge $-1 $83 $132 $219 $225 reversed $52 $-1 #
coedge $-1 $221 $226 $83 $135 forward $216 $-1 #
edge $-1 $227 19.737227058613911 $228 23.027530858833458 $134 $229 forward 7 unknown #
loop $-1 $-1 $141 $84 #
plane-surface $-1 -61.842707602160701 9.7807587904855566 10.276109613245211 -0.81915205242281985 0 0.57357642473473569 0.57357642473473569 0 0.81915205242281985 forward_v I I I I #
loop $-1 $-1 $230 $54 #
coedge $-1 $139 $139 $140 $231 reversed $85 $-1 #
coedge $-1 $140 $140 $139 $231 forward $87 $-1 #
coedge $-1 $141 $141 $88 $142 forward $136 $-1 #
edge $-1 $232 0 $232 6.2831853071796004 $141 $233 forward 7 unknown #
loop $-1 $-1 $148 $89 #
plane-surface $-1 -61.842707602160701 9.7807587904855566 10.276109613245211 -0.81915205242281985 0 0.57357642473473569 0.57357642473473569 0 0.81915205242281985 forward_v I I I I #
loop $-1 $-1 $234 $57 #
coedge $-1 $146 $146 $147 $235 reversed $90 $-1 #
coedge $-1 $147 $147 $146 $235 forward $92 $-1 #
coedge $-1 $148 $148 $93 $149 forward $143 $-1 #
edge $-1 $236 0 $236 6.2831853071796004 $148 $237 forward 7 unknown #
face $-1 $238 $239 $32 $-1 $240 reversed single #
loop $-1 $-1 $241 $94 #
plane-surface $-1 74.044344195964925 -5.1040098029002259 181.27450816149701 0 1 0 0.75470958851134928 0 0.65605901945558964 forward_v I I I I #
coedge $-1 $242 $243 $244 $245 reversed $95 $-1 #
coedge $-1 $155 $97 $246 $247 reversed $61 $-1 #
coedge $-1 $97 $154 $242 $248 reversed $61 $-1 #
coedge $-1 $244 $249 $97 $157 forward $250 $-1 #
edge $-1 $251 -24.820535504178252 $252 -17.699214038295793 $156 $253 forward 7 unknown #
loop $-1 $-1 $163 $98 #
plane-surface $-1 -19.302224617743889 -1.0103263845503179 100.12957594159242 0.75470958851134928 0 0.65605901945558964 0.65605901945558964 0 -0.75470958851134928 forward_v I I I I #
loop $-1 $-1 $254 $63 #
coedge $-1 $161 $161 $162 $255 reversed $99 $-1 #
coedge $-1 $162 $162 $161 $255 forward $101 $-1 #
coedge $-1 $163 $163 $102 $164 forward $158 $-1 #
edge $-1 $256 0 $256 6.2831853071796004 $163 $257 forward 7 unknown #
face $-1 $258 $259 $34 $-1 $260 reversed single #
loop $-1 $-1 $261 $103 #
plane-surface $-1 74.044344195964925 28.397757116621104 181.27450816149701 0 1 0 0.75470958851134928 0 0.65605901945558964 forward_v I I I I #
coedge $-1 $262 $263 $264 $265 reversed $104 $-1 #
coedge $-1 $170 $106 $266 $267 reversed $67 $-1 #
coedge $-1 $106 $169 $262 $268 reversed $67 $-1 #
coedge $-1 $264 $269 $106 $172 forward $270 $-1 #
edge $-1 $271 -24.820535504178252 $272 -17.699214038295793 $171 $273 forward 7 unknown #
loop $-1 $-1 $178 $107 #
plane-surface $-1 -19.302224617743889 32.491440534971012 100.12957594159242 0.75470958851134928 0 0.65605901945558964 0.65605901945558964 0 -0.75470958851134928 forward_v I I I I #
loop $-1 $-1 $274 $69 #
coedge $-1 $176 $176 $177 $275 reversed $108 $-1 #
coedge $-1 $177 $177 $176 $275 forward $110 $-1 #
coedge $-1 $178 $178 $111 $179 forward $173 $-1 #
edge $-1 $276 0 $276 6.2831853071796004 $178 $277 forward 7 unknown #
face $-1 $278 $279 $27 $-1 $280 reversed single #
loop $-1 $-1 $281 $112 #
plane-surface $-1 -61.842707602160715 0 0 1 0 0 0 0 -1 forward_v I I I I #
coedge $-1 $191 $282 $193 $283 reversed $113 $-1 #
coedge $-1 $284 $115 $282 $285 forward $73 $-1 #
coedge $-1 $115 $284 $286 $287 forward $73 $-1 #
coedge $-1 $194 $193 $115 $187 reversed $195 $-1 #
edge $-1 $288 -38.743841981221216 $289 38.743841981221216 $186 $290 forward 7 unknown #
coedge $-1 $117 $116 $291 $292 forward $46 $-1 #
coedge $-1 $293 $294 $116 $190 reversed $279 $-1 #
edge $-1 $197 -61.842707602160715 $295 61.842707602160715 $189 $296 forward 7 unknown #
coedge $-1 $297 $183 $117 $192 reversed $113 $-1 #
edge $-1 $298 -61.842707602160715 $196 61.842707602160715 $191 $299 forward 7 unknown #
coedge $-1 $186 $118 $183 $283 forward $195 $-1 #
coedge $-1 $118 $186 $293 $300 reversed $195 $-1 #
loop $-1 $-1 $193 $278 #
vertex $-1 $119 $301 #
vertex $-1 $119 $302 #
straight-curve $-1 61.842707602160715 0 14.975150568931141 0 1 0 I I #
face $-1 $303 $304 $28 $-1 $305 reversed single #
loop $-1 $-1 $211 $120 #
plane-surface $-1 0 -43.985917042921095 -9.4802250233979315 0 0 1 1 0 0 forward_v I I I I #
coedge $-1 $306 $307 $124 $207 forward $121 $-1 #
coedge $-1 $308 $123 $307 $309 forward $77 $-1 #
coedge $-1 $123 $308 $310 $311 forward $77 $-1 #
coedge $-1 $125 $124 $123 $206 reversed $49 $-1 #
edge $-1 $312 -61.842707602160715 $313 61.842707602160715 $123 $314 forward 7 unknown #
edge $-1 $313 -14.975150568931141 $213 -9.4802250233979315 $202 $315 forward 7 unknown #
coedge $-1 $310 $316 $125 $209 forward $317 $-1 #
edge $-1 $212 9.4802250233979315 $312 14.975150568931141 $208 $318 forward 7 unknown #
coedge $-1 $319 $126 $316 $320 forward $200 $-1 #
coedge $-1 $126 $319 $306 $321 forward $200 $-1 #
vertex $-1 $209 $322 #
vertex $-1 $321 $323 #
straight-curve $-1 0 -38.743841981221216 -9.4802250233979315 1 0 0 I I #
face $-1 $-1 $324 $29 $-1 $325 reversed single #
loop $-1 $-1 $134 $128 #
plane-surface $-1 0 0 14.975150568931141 0 0 1 1 0 0 forward_v I I I I #
coedge $-1 $326 $327 $328 $329 reversed $129 $-1 #
coedge $-1 $330 $131 $133 $225 forward $81 $-1 #
coedge $-1 $131 $330 $326 $331 forward $81 $-1 #
coedge $-1 $328 $134 $131 $222 forward $216 $-1 #
edge $-1 $228 1.0985155390939454 $332 8.6822432513916112 $221 $333 forward 7 unknown #
coedge $-1 $334 $335 $132 $224 forward $324 $-1 #
edge $-1 $336 -30.333464315740414 $227 -25.634423360054463 $223 $337 forward 7 unknown #
edge $-1 $228 -5.7364697332900523 $336 2.4157181099100639e-014 $133 $338 forward 7 unknown #
coedge $-1 $134 $328 $334 $339 forward $216 $-1 #
vertex $-1 $224 $340 #
vertex $-1 $135 $341 #
straight-curve $-1 -81.579934660774626 5.9888949343367237 14.975150568931141 1 0 0 I I #
coedge $-1 $230 $230 $-1 $342 reversed $138 $-1 #
edge $-1 $343 0 $343 6.2831853071796004 $139 $344 forward 7 unknown #
vertex $-1 $142 $345 #
ellipse-curve $-1 -60.197555702050941 8.1556742807074798 12.625630091088169 -0.81915205242281985 0 0.57357642473473569 0.57357642473473569 0 0.81915205242281985 1 I I #
coedge $-1 $234 $234 $-1 $346 reversed $145 $-1 #
edge $-1 $347 0 $347 6.2831853071796004 $146 $348 forward 7 unknown #
vertex $-1 $149 $349 #
ellipse-curve $-1 -60.197555702050941 11.405843300263619 12.625630091088169 -0.81915205242281985 0 0.57357642473473569 0.57357642473473569 0 0.81915205242281985 1 I I #
face $-1 $-1 $250 $32 $-1 $350 forward single #
loop $-1 $-1 $351 $150 #
plane-surface $-1 61.842707602160715 0 0 -1 0 0 0 0 1 forward_v I I I I #
coedge $-1 $352 $353 $354 $355 reversed $151 $-1 #
coedge $-1 $356 $153 $155 $248 forward $95 $-1 #
coedge $-1 $153 $356 $352 $357 forward $95 $-1 #
coedge $-1 $354 $156 $153 $245 forward $250 $-1 #
edge $-1 $252 -3.5885202260747491 $358 4.5988466106250669 $244 $359 forward 7 unknown #
coedge $-1 $360 $361 $154 $247 forward $239 $-1 #
edge $-1 $362 -83.854246952864898 $251 -75.662103511817364 $246 $363 forward 7 unknown #
edge $-1 $252 112.83071882076764 $362 123.68541520432147 $155 $364 forward 7 unknown #
coedge $-1 $156 $354 $360 $365 forward $250 $-1 #
loop $-1 $-1 $354 $238 #
vertex $-1 $247 $366 #
vertex $-1 $157 $367 #
straight-curve $-1 37.022172097982462 3.0833570337995901 14.975150568931141 -1 0 0 I I #
coedge $-1 $254 $254 $-1 $368 reversed $160 $-1 #
edge $-1 $369 0 $369 6.2831853071796004 $161 $370 forward 7 unknown #
vertex $-1 $164 $371 #
ellipse-curve $-1 58.282046869219492 -1.0103263845503108 10.879078848407367 0.75470958851134928 0 0.65605901945558964 1.3121180389111793 0 -1.5094191770226986 1 I I #
face $-1 $-1 $270 $34 $-1 $372 forward single #
loop $-1 $-1 $373 $165 #
plane-surface $-1 61.842707602160715 0 0 -1 0 0 0 0 1 forward_v I I I I #
coedge $-1 $374 $375 $376 $377 reversed $166 $-1 #
coedge $-1 $378 $168 $170 $268 forward $104 $-1 #
coedge $-1 $168 $378 $374 $379 forward $104 $-1 #
coedge $-1 $376 $171 $168 $265 forward $270 $-1 #
edge $-1 $272 -20.339403685835411 $380 -12.152036849135598 $264 $381 forward 7 unknown #
coedge $-1 $382 $383 $169 $267 forward $259 $-1 #
edge $-1 $384 -83.854246952864898 $271 -75.662103511817364 $266 $385 forward 7 unknown #
edge $-1 $272 112.83071882076764 $384 123.68541520432147 $170 $386 forward 7 unknown #
coedge $-1 $171 $376 $382 $387 forward $270 $-1 #
loop $-1 $-1 $376 $258 #
vertex $-1 $267 $388 #
vertex $-1 $172 $389 #
straight-curve $-1 37.022172097982462 36.585123953320917 14.975150568931141 -1 0 0 I I #
coedge $-1 $274 $274 $-1 $390 reversed $175 $-1 #
edge $-1 $391 0 $391 6.2831853071796004 $176 $392 forward 7 unknown #
vertex $-1 $179 $393 #
ellipse-curve $-1 58.282046869219492 32.491440534971026 10.879078848407367 0.75470958851134928 0 0.65605901945558964 1.3121180389111793 0 -1.5094191770226986 1 I I #
face $-1 $-1 $195 $27 $-1 $394 reversed single #
loop $-1 $-1 $293 $180 #
plane-surface $-1 0 38.743841981221216 0 0 -1 0 0 0 -1 forward_v I I I I #
coedge $-1 $395 $291 $294 $396 forward $181 $-1 #
coedge $-1 $183 $297 $184 $285 reversed $113 $-1 #
edge $-1 $196 -14.975150568931141 $289 14.975150568931141 $193 $397 forward 7 unknown #
coedge $-1 $185 $184 $395 $398 forward $73 $-1 #
edge $-1 $289 -61.842707602160715 $399 61.842707602160715 $282 $400 forward 7 unknown #
coedge $-1 $294 $293 $185 $287 reversed $279 $-1 #
edge $-1 $401 -61.842707602160715 $288 61.842707602160715 $286 $402 forward 7 unknown #
vertex $-1 $187 $403 #
vertex $-1 $283 $404 #
straight-curve $-1 61.842707602160715 0 -14.975150568931141 0 -1 0 I I #
coedge $-1 $281 $405 $188 $292 reversed $181 $-1 #
edge $-1 $295 -38.743841981221216 $298 38.743841981221216 $291 $406 forward 7 unknown #
coedge $-1 $286 $189 $194 $300 forward $279 $-1 #
coedge $-1 $189 $286 $281 $396 reversed $279 $-1 #
vertex $-1 $190 $407 #
straight-curve $-1 0 38.743841981221216 14.975150568931141 -1 0 0 I I #
coedge $-1 $282 $191 $405 $408 forward $113 $-1 #
vertex $-1 $292 $409 #
straight-curve $-1 0 -38.743841981221216 14.975150568931141 1 0 0 I I #
edge $-1 $197 -14.975150568931141 $288 14.975150568931141 $194 $410 forward 7 unknown #
point $-1 61.842707602160715 -38.743841981221216 14.975150568931141 #
point $-1 61.842707602160715 38.743841981221216 14.975150568931141 #
face $-1 $-1 $317 $28 $-1 $411 reversed single #
loop $-1 $-1 $412 $199 #
plane-surface $-1 0 -49.227992104620974 -12.227687796164536 0 1 0 0 0 1 forward_v I I I I #
coedge $-1 $413 $202 $211 $321 reversed $121 $-1 #
coedge $-1 $202 $413 $203 $309 reversed $121 $-1 #
coedge $-1 $204 $203 $414 $415 forward $77 $-1 #
edge $-1 $313 38.743841981221216 $416 49.227992104620974 $307 $417 forward 7 unknown #
coedge $-1 $418 $208 $204 $311 reversed $317 $-1 #
edge $-1 $419 -49.227992104620974 $312 -38.743841981221216 $310 $420 forward 7 unknown #
vertex $-1 $209 $421 #
vertex $-1 $309 $422 #
straight-curve $-1 0 -38.743841981221216 -14.975150568931141 1 0 0 I I #
straight-curve $-1 61.842707602160715 -38.743841981221216 0 0 0 1 I I #
coedge $-1 $208 $418 $210 $320 reversed $317 $-1 #
loop $-1 $-1 $208 $303 #
straight-curve $-1 -61.842707602160715 -38.743841981221216 0 0 0 -1 I I #
coedge $-1 $211 $210 $423 $424 forward $200 $-1 #
edge $-1 $212 -5.2420750616998788 $425 5.2420750616998788 $316 $426 forward 7 unknown #
edge $-1 $427 -5.2420750616998788 $213 5.2420750616998788 $306 $428 forward 7 unknown #
point $-1 -61.842707602160715 -38.743841981221216 -9.4802250233979315 #
point $-1 61.842707602160715 -38.743841981221216 -9.4802250233979315 #
loop $-1 $-1 $223 $215 #
plane-surface $-1 -61.842707602160715 0 0 1 0 0 0 0 -1 forward_v I I I I #
coedge $-1 $327 $218 $220 $331 reversed $129 $-1 #
coedge $-1 $218 $326 $429 $430 reversed $129 $-1 #
coedge $-1 $226 $221 $218 $329 forward $216 $-1 #
edge $-1 $332 -23.027530858833458 $431 -19.737227058613911 $328 $432 forward 7 unknown #
coedge $-1 $220 $219 $335 $433 reversed $81 $-1 #
edge $-1 $434 -2.4157181099100639e-014 $332 5.7364697332900523 $326 $435 forward 7 unknown #
vertex $-1 $222 $436 #
straight-curve $-1 -58.552403801941175 4.8903793952427783 14.975150568931141 0 1 0 I I #
coedge $-1 $429 $223 $226 $339 reversed $324 $-1 #
coedge $-1 $223 $429 $330 $433 forward $324 $-1 #
vertex $-1 $224 $437 #
straight-curve $-1 -61.842707602160715 5.9888949343367237 40.609573928985604 0 0 1 I I #
straight-curve $-1 -61.842707602160701 5.9888949343367237 10.276109613245211 -0.57357642473473569 0 -0.81915205242281985 I I #
edge $-1 $431 -13.57262264663439 $227 -5.9888949343367237 $334 $438 forward 7 unknown #
point $-1 -61.842707602160715 5.9888949343367237 14.975150568931141 #
point $-1 -58.552403801941168 5.9888949343367237 14.975150568931141 #
edge $-1 $439 1 $439 0 $230 $-1 forward 7 unknown #
vertex $-1 $231 $440 #
ellipse-curve $-1 -58.860618154777171 8.1556742807074798 11.689496370625852 -0.81915205242281985 0 0.57357642473473569 0.57357642473473569 0 0.81915205242281985 1 I I #
point $-1 -59.623979277316216 8.1556742807074798 13.444782143510995 #
edge $-1 $441 1 $441 0 $234 $-1 forward 7 unknown #
vertex $-1 $235 $442 #
ellipse-curve $-1 -58.860618154777171 11.405843300263619 11.689496370625852 -0.81915205242281985 0 0.57357642473473569 0.57357642473473569 0 0.81915205242281985 1 I I #
point $-1 -59.623979277316216 11.405843300263619 13.444782143510995 #
plane-surface $-1 0 0 14.975150568931141 0 0 1 1 0 0 forward_v I I I I #
coedge $-1 $361 $360 $353 $443 forward $239 $-1 #
coedge $-1 $353 $241 $243 $357 reversed $151 $-1 #
coedge $-1 $241 $352 $351 $443 reversed $151 $-1 #
coedge $-1 $249 $244 $241 $355 forward $250 $-1 #
edge $-1 $358 17.699214038295793 $444 24.820535504178252 $354 $445 forward 7 unknown #
coedge $-1 $243 $242 $361 $446 reversed $95 $-1 #
edge $-1 $447 -123.68541520432147 $358 -112.83071882076764 $352 $448 forward 7 unknown #
vertex $-1 $245 $449 #
straight-curve $-1 54.721386136278255 -0.50516319227515893 14.975150568931141 0 -1 0 I I #
coedge $-1 $351 $246 $249 $365 reversed $239 $-1 #
coedge $-1 $246 $351 $356 $446 forward $239 $-1 #
vertex $-1 $247 $450 #
straight-curve $-1 61.842707602160715 3.0833570337995901 90.637254080748505 0 0 1 I I #
straight-curve $-1 -19.302224617743889 3.0833570337995901 100.12957594159242 0.65605901945558964 0 -0.75470958851134928 I I #
edge $-1 $444 -5.1040098029002259 $251 3.0833570337995901 $360 $451 forward 7 unknown #
point $-1 61.842707602160715 3.0833570337995901 14.975150568931141 #
point $-1 54.721386136278255 3.0833570337995901 14.975150568931141 #
edge $-1 $452 1 $452 0 $254 $-1 forward 7 unknown #
vertex $-1 $255 $453 #
ellipse-curve $-1 52.646795953250958 -1.0103263845503108 5.9804300878835974 0.75470958851134928 0 0.65605901945558964 1.3121180389111793 0 -1.5094191770226986 1 I I #
point $-1 59.594164908130665 -1.0103263845503108 9.3696596713846692 #
plane-surface $-1 0 0 14.975150568931141 0 0 1 1 0 0 forward_v I I I I #
coedge $-1 $383 $382 $375 $454 forward $259 $-1 #
coedge $-1 $375 $261 $263 $379 reversed $166 $-1 #
coedge $-1 $261 $374 $373 $454 reversed $166 $-1 #
coedge $-1 $269 $264 $261 $377 forward $270 $-1 #
edge $-1 $380 17.699214038295793 $455 24.820535504178252 $376 $456 forward 7 unknown #
coedge $-1 $263 $262 $383 $457 reversed $104 $-1 #
edge $-1 $458 -123.68541520432147 $380 -112.83071882076764 $374 $459 forward 7 unknown #
vertex $-1 $265 $460 #
straight-curve $-1 54.721386136278255 16.245720267485506 14.975150568931141 0 -1 0 I I #
coedge $-1 $373 $266 $269 $387 reversed $259 $-1 #
coedge $-1 $266 $373 $378 $457 forward $259 $-1 #
vertex $-1 $267 $461 #
straight-curve $-1 61.842707602160715 36.585123953320917 90.637254080748505 0 0 1 I I #
straight-curve $-1 -19.302224617743889 36.585123953320917 100.12957594159242 0.65605901945558964 0 -0.75470958851134928 I I #
edge $-1 $455 28.397757116621104 $271 36.585123953320917 $382 $462 forward 7 unknown #
point $-1 61.842707602160715 36.585123953320917 14.975150568931141 #
point $-1 54.721386136278255 36.585123953320917 14.975150568931141 #
edge $-1 $463 1 $463 0 $274 $-1 forward 7 unknown #
vertex $-1 $275 $464 #
ellipse-curve $-1 52.646795953250958 32.491440534971026 5.9804300878835974 0.75470958851134928 0 0.65605901945558964 1.3121180389111793 0 -1.5094191770226986 1 I I #
point $-1 59.594164908130665 32.491440534971026 9.3696596713846692 #
plane-surface $-1 61.842707602160715 0 0 -1 0 0 0 0 1 forward_v I I I I #
coedge $-1 $405 $281 $284 $398 reversed $181 $-1 #
edge $-1 $295 -14.975150568931141 $401 14.975150568931141 $294 $465 forward 7 unknown #
straight-curve $-1 61.842707602160715 -38.743841981221216 0 0 0 -1 I I #
edge $-1 $399 -38.743841981221216 $401 38.743841981221216 $395 $466 forward 7 unknown #
vertex $-1 $398 $467 #
straight-curve $-1 0 -38.743841981221216 -14.975150568931141 -1 0 0 I I #
vertex $-1 $287 $468 #
straight-curve $-1 0 38.743841981221216 -14.975150568931141 1 0 0 I I #
point $-1 61.842707602160715 38.743841981221216 -14.975150568931141 #
point $-1 61.842707602160715 -38.743841981221216 -14.975150568931141 #
coedge $-1 $291 $395 $297 $408 reversed $181 $-1 #
straight-curve $-1 -61.842707602160715 0 14.975150568931141 0 -1 0 I I #
point $-1 -61.842707602160715 38.743841981221216 14.975150568931141 #
edge $-1 $298 -14.975150568931141 $399 14.975150568931141 $405 $469 forward 7 unknown #
point $-1 -61.842707602160715 -38.743841981221216 14.975150568931141 #
straight-curve $-1 61.842707602160715 38.743841981221216 0 0 0 -1 I I #
plane-surface $-1 -61.842707602160715 0 0 1 0 0 0 0 -1 forward_v I I I I #
coedge $-1 $414 $423 $418 $470 forward $304 $-1 #
coedge $-1 $307 $306 $471 $472 forward $121 $-1 #
coedge $-1 $471 $412 $308 $415 reversed $304 $-1 #
edge $-1 $416 -61.842707602160715 $419 61.842707602160715 $414 $473 forward 7 unknown #
vertex $-1 $472 $474 #
straight-curve $-1 61.842707602160715 0 -14.975150568931141 0 -1 0 I I #
coedge $-1 $316 $310 $412 $470 reversed $317 $-1 #
vertex $-1 $311 $475 #
straight-curve $-1 -61.842707602160715 0 -14.975150568931141 0 1 0 I I #
point $-1 -61.842707602160715 -38.743841981221216 -14.975150568931141 #
point $-1 61.842707602160715 -38.743841981221216 -14.975150568931141 #
coedge $-1 $412 $471 $319 $424 reversed $304 $-1 #
edge $-1 $425 -61.842707602160715 $427 61.842707602160715 $423 $476 forward 7 unknown #
vertex $-1 $320 $477 #
straight-curve $-1 -61.842707602160715 -43.985917042921095 -9.4802250233979315 0 -1 0 I I #
vertex $-1 $321 $478 #
straight-curve $-1 61.842707602160715 -43.985917042921095 -9.4802250233979315 0 1 0 I I #
coedge $-1 $335 $334 $327 $430 forward $324 $-1 #
edge $-1 $431 25.634423360054463 $434 30.333464315740414 $429 $479 forward 7 unknown #
vertex $-1 $339 $480 #
straight-curve $-1 -81.579934660774626 13.57262264663439 14.975150568931141 -1 0 0 I I #
edge $-1 $434 -8.6822432513916112 $336 -1.0985155390939454 $335 $481 forward 7 unknown #
vertex $-1 $433 $482 #
straight-curve $-1 -61.842707602160701 13.57262264663439 10.276109613245211 0.57357642473473569 0 0.81915205242281985 I I #
point $-1 -58.552403801941168 13.57262264663439 14.975150568931141 #
point $-1 -61.842707602160715 5.9888949343367237 10.276109613245191 #
straight-curve $-1 -61.842707602160715 0 14.975150568931141 0 -1 0 I I #
vertex $-1 $342 $483 #
point $-1 -58.287041730042432 8.1556742807074798 12.508648423048673 #
vertex $-1 $346 $484 #
point $-1 -58.287041730042432 11.405843300263619 12.508648423048673 #
edge $-1 $444 75.662103511817364 $447 83.854246952864898 $351 $485 forward 7 unknown #
vertex $-1 $365 $486 #
straight-curve $-1 37.022172097982462 -5.1040098029002259 14.975150568931141 1 0 0 I I #
edge $-1 $447 -4.5988466106250669 $362 3.5885202260747491 $361 $487 forward 7 unknown #
vertex $-1 $446 $488 #
straight-curve $-1 -19.302224617743889 -5.1040098029002259 100.12957594159242 -0.65605901945558964 0 0.75470958851134928 I I #
point $-1 54.721386136278255 -5.1040098029002259 14.975150568931141 #
point $-1 61.842707602160715 3.0833570337995901 6.7830071278836073 #
straight-curve $-1 61.842707602160715 0 14.975150568931141 0 1 0 I I #
vertex $-1 $368 $489 #
point $-1 53.958913992162138 -1.0103263845503108 4.4710109108608984 #
edge $-1 $455 75.662103511817364 $458 83.854246952864898 $373 $490 forward 7 unknown #
vertex $-1 $387 $491 #
straight-curve $-1 37.022172097982462 28.397757116621104 14.975150568931141 1 0 0 I I #
edge $-1 $458 12.152036849135598 $384 20.339403685835411 $383 $492 forward 7 unknown #
vertex $-1 $457 $493 #
straight-curve $-1 -19.302224617743889 28.397757116621104 100.12957594159242 -0.65605901945558964 0 0.75470958851134928 I I #
point $-1 54.721386136278255 28.397757116621104 14.975150568931141 #
point $-1 61.842707602160715 36.585123953320917 6.7830071278836073 #
straight-curve $-1 61.842707602160715 0 14.975150568931141 0 1 0 I I #
vertex $-1 $390 $494 #
point $-1 53.958913992162138 32.491440534971026 4.4710109108608984 #
straight-curve $-1 -61.842707602160715 38.743841981221216 0 0 0 -1 I I #
straight-curve $-1 -61.842707602160715 0 -14.975150568931141 0 1 0 I I #
point $-1 -61.842707602160715 -38.743841981221216 -14.975150568931141 #
point $-1 -61.842707602160715 38.743841981221216 -14.975150568931141 #
straight-curve $-1 -61.842707602160715 -38.743841981221216 0 0 0 -1 I I #
edge $-1 $425 -2.747462772766605 $419 2.747462772766605 $418 $495 forward 7 unknown #
coedge $-1 $423 $414 $413 $472 reversed $304 $-1 #
edge $-1 $427 -2.747462772766605 $416 2.747462772766605 $413 $496 forward 7 unknown #
straight-curve $-1 0 -49.227992104620974 -14.975150568931141 -1 0 0 I I #
point $-1 61.842707602160715 -49.227992104620974 -14.975150568931141 #
point $-1 -61.842707602160715 -49.227992104620974 -14.975150568931141 #
straight-curve $-1 0 -49.227992104620974 -9.4802250233979315 1 0 0 I I #
point $-1 -61.842707602160715 -49.227992104620974 -9.4802250233979315 #
point $-1 61.842707602160715 -49.227992104620974 -9.4802250233979315 #
straight-curve $-1 -61.842707602160715 13.57262264663439 40.609573928985604 0 0 -1 I I #
point $-1 -61.842707602160715 13.57262264663439 14.975150568931141 #
straight-curve $-1 -61.842707602160715 4.8903793952427783 10.276109613245195 0 -1 0 I I #
point $-1 -61.842707602160715 13.57262264663439 10.276109613245191 #
point $-1 -58.041466102354349 8.1556742807074798 11.115919945891116 #
point $-1 -58.041466102354349 11.405843300263619 11.115919945891116 #
straight-curve $-1 61.842707602160715 -5.1040098029002259 90.637254080748505 0 0 -1 I I #
point $-1 61.842707602160715 -5.1040098029002259 14.975150568931141 #
straight-curve $-1 61.842707602160715 -0.50516319227515893 6.783007127883586 0 1 0 I I #
point $-1 61.842707602160715 -5.1040098029002259 6.7830071278836073 #
point $-1 51.137376776228265 -1.0103263845503108 4.6683120489724175 #
straight-curve $-1 61.842707602160715 28.397757116621104 90.637254080748505 0 0 -1 I I #
point $-1 61.842707602160715 28.397757116621104 14.975150568931141 #
straight-curve $-1 61.842707602160715 16.245720267485506 6.783007127883586 0 1 0 I I #
point $-1 61.842707602160715 28.397757116621104 6.7830071278836073 #
point $-1 51.137376776228265 32.491440534971026 4.6683120489724175 #
straight-curve $-1 -61.842707602160715 -49.227992104620974 -12.227687796164536 0 0 -1 I I #
straight-curve $-1 61.842707602160715 -49.227992104620974 -12.227687796164536 0 0 -1 I I #
End-of-ACIS-data 