500 0 17 0           
7 Unknown 11 ACIS 5.0 NT 24 Fri Mar 26 18:47:44 1999 
-1 9.9999999999999995e-007 1e-010 
body $-1 $17 $-1 $18 #
body $-1 $19 $-1 $20 #
body $-1 $21 $-1 $22 #
body $-1 $23 $-1 $24 #
body $-1 $25 $-1 $26 #
body $-1 $27 $-1 $28 #
body $-1 $29 $-1 $30 #
body $-1 $31 $-1 $32 #
body $-1 $33 $-1 $34 #
body $-1 $35 $-1 $36 #
body $-1 $37 $-1 $38 #
body $-1 $39 $-1 $40 #
body $-1 $41 $-1 $42 #
body $-1 $43 $-1 $44 #
body $-1 $45 $-1 $46 #
body $-1 $47 $-1 $48 #
body $-1 $49 $-1 $50 #
lump $-1 $-1 $51 $0 #
transform $-1 1 0 0 0 1 0 0 0 1 47.826166570024718 23.179058834557164 5.5585317090421249 1 rotate no_reflect no_shear #
lump $-1 $-1 $52 $1 #
transform $-1 1 0 0 0 1 0 0 0 1 47.826166570024718 23.179058834557164 5.5585317090421249 1 rotate no_reflect no_shear #
lump $-1 $-1 $53 $2 #
transform $-1 1 0 0 0 1 0 0 0 1 47.826166570024718 23.179058834557164 5.5585317090421249 1 rotate no_reflect no_shear #
lump $-1 $-1 $54 $3 #
transform $-1 1 0 0 0 1 0 0 0 1 47.826166570024718 23.179058834557164 5.5585317090421249 1 rotate no_reflect no_shear #
lump $-1 $-1 $55 $4 #
transform $-1 1 0 0 0 1 0 0 0 1 47.826166570024718 23.179058834557164 5.5585317090421249 1 rotate no_reflect no_shear #
lump $-1 $-1 $56 $5 #
transform $-1 1 0 0 0 1 0 0 0 1 47.826166570024718 23.179058834557164 5.5585317090421249 1 rotate no_reflect no_shear #
lump $-1 $-1 $57 $6 #
transform $-1 1 0 0 0 1 0 0 0 1 47.826166570024718 23.179058834557164 5.5585317090421249 1 rotate no_reflect no_shear #
lump $-1 $-1 $58 $7 #
transform $-1 1 0 0 0 1 0 0 0 1 47.826166570024718 23.179058834557164 5.5585317090421249 1 rotate no_reflect no_shear #
lump $-1 $-1 $59 $8 #
transform $-1 1 0 0 0 1 0 0 0 1 47.826166570024718 23.179058834557164 5.5585317090421249 1 rotate no_reflect no_shear #
lump $-1 $-1 $60 $9 #
transform $-1 1 0 0 0 1 0 0 0 1 47.826166570024718 23.179058834557164 5.5585317090421249 1 rotate no_reflect no_shear #
lump $-1 $-1 $61 $10 #
transform $-1 1 0 0 0 1 0 0 0 1 47.826166570024718 23.179058834557164 5.5585317090421249 1 rotate no_reflect no_shear #
lump $-1 $-1 $62 $11 #
transform $-1 1 0 0 0 1 0 0 0 1 47.826166570024718 23.179058834557164 5.5585317090421249 1 rotate no_reflect no_shear #
lump $-1 $-1 $63 $12 #
transform $-1 1 0 0 0 1 0 0 0 1 47.826166570024718 23.179058834557164 5.5585317090421249 1 rotate no_reflect no_shear #
lump $-1 $-1 $64 $13 #
transform $-1 1 0 0 0 1 0 0 0 1 47.826166570024718 23.179058834557164 5.5585317090421249 1 rotate no_reflect no_shear #
lump $-1 $-1 $65 $14 #
transform $-1 1 0 0 0 1 0 0 0 1 47.826166570024718 23.179058834557164 5.5585317090421249 1 rotate no_reflect no_shear #
lump $-1 $-1 $66 $15 #
transform $-1 1 0 0 0 1 0 0 0 1 47.826166570024718 23.179058834557164 5.5585317090421249 1 rotate no_reflect no_shear #
lump $-1 $-1 $67 $16 #
transform $-1 1 0 0 0 1 0 0 0 1 47.826166570024718 23.179058834557164 5.5585317090421249 1 rotate no_reflect no_shear #
shell $-1 $-1 $-1 $68 $-1 $17 #
shell $-1 $-1 $-1 $69 $-1 $19 #
shell $-1 $-1 $-1 $70 $-1 $21 #
shell $-1 $-1 $-1 $71 $-1 $23 #
shell $-1 $-1 $-1 $72 $-1 $25 #
shell $-1 $-1 $-1 $73 $-1 $27 #
shell $-1 $-1 $-1 $74 $-1 $29 #
shell $-1 $-1 $-1 $75 $-1 $31 #
shell $-1 $-1 $-1 $76 $-1 $33 #
shell $-1 $-1 $-1 $77 $-1 $35 #
shell $-1 $-1 $-1 $78 $-1 $37 #
shell $-1 $-1 $-1 $79 $-1 $39 #
shell $-1 $-1 $-1 $80 $-1 $41 #
shell $-1 $-1 $-1 $81 $-1 $43 #
shell $-1 $-1 $-1 $82 $-1 $45 #
shell $-1 $-1 $-1 $83 $-1 $47 #
shell $-1 $-1 $-1 $84 $-1 $49 #
face $-1 $85 $86 $51 $-1 $87 forward single #
face $-1 $88 $89 $52 $-1 $90 forward single #
face $-1 $91 $92 $53 $-1 $93 reversed single #
face $-1 $94 $95 $54 $-1 $96 forward single #
face $-1 $97 $98 $55 $-1 $99 forward single #
face $-1 $100 $101 $56 $-1 $102 reversed single #
face $-1 $103 $104 $57 $-1 $105 forward single #
face $-1 $106 $107 $58 $-1 $108 forward single #
face $-1 $109 $110 $59 $-1 $111 reversed single #
face $-1 $112 $113 $60 $-1 $114 forward single #
face $-1 $115 $116 $61 $-1 $117 forward single #
face $-1 $118 $119 $62 $-1 $120 reversed single #
face $-1 $121 $122 $63 $-1 $123 forward single #
face $-1 $124 $125 $64 $-1 $126 forward single #
face $-1 $127 $128 $65 $-1 $129 reversed single #
face $-1 $130 $131 $66 $-1 $132 forward single #
face $-1 $133 $134 $67 $-1 $135 forward single #
face $-1 $136 $137 $51 $-1 $138 reversed single #
loop $-1 $-1 $139 $68 #
plane-surface $-1 0 0 5.5585317090421249 0 0 1 1 0 0 forward_v I I I I #
face $-1 $140 $141 $52 $-1 $142 reversed single #
loop $-1 $-1 $143 $69 #
plane-surface $-1 -44.625309317310965 0 3.6139243958318406 0 0 1 1 0 0 forward_v I I I I #
face $-1 $144 $145 $53 $-1 $146 reversed single #
loop $-1 $-1 $147 $70 #
plane-surface $-1 -36.013715419991975 56.277514741973818 101.66094915900523 1 0 0 0 -0.69465837861970381 -0.71933979245794832 forward_v I I I I #
face $-1 $148 $149 $54 $-1 $150 forward single #
loop $-1 $151 $152 $71 #
cone-surface $-1 -33.377781441317197 19.988239856892363 2.4317924778716451 0 -0.69465837861970381 -0.71933979245794832 0.5 0 0 1 I I 0 1 0.5 forward I I I I #
face $-1 $153 $154 $55 $-1 $155 forward single #
loop $-1 $156 $157 $72 #
cone-surface $-1 -29.423880473305022 19.988239856892363 2.4317924778716451 0 -0.69465837861970381 -0.71933979245794832 0.5 0 0 1 I I 0 1 0.5 forward I I I I #
face $-1 $158 $159 $56 $-1 $160 reversed single #
loop $-1 $-1 $161 $73 #
plane-surface $-1 -13.701060761336493 56.277514741973818 101.66094915900523 1 0 0 0 -0.69465837861970381 -0.71933979245794832 forward_v I I I I #
face $-1 $162 $163 $57 $-1 $164 forward single #
loop $-1 $165 $166 $74 #
cone-surface $-1 -11.065126782661714 19.988239856892363 2.4317924778716451 0 -0.69465837861970381 -0.71933979245794832 0.5 0 0 1 I I 0 1 0.5 forward I I I I #
face $-1 $167 $168 $58 $-1 $169 forward single #
loop $-1 $170 $171 $75 #
cone-surface $-1 -7.1112258146495364 19.988239856892363 2.4317924778716451 0 -0.69465837861970381 -0.71933979245794832 0.5 0 0 1 I I 0 1 0.5 forward I I I I #
face $-1 $172 $173 $59 $-1 $174 reversed single #
loop $-1 $-1 $175 $76 #
plane-surface $-1 8.6115938973189898 56.277514741973818 101.66094915900523 1 0 0 0 -0.69465837861970381 -0.71933979245794832 forward_v I I I I #
face $-1 $176 $177 $60 $-1 $178 forward single #
loop $-1 $179 $180 $77 #
cone-surface $-1 11.247527875993768 19.988239856892363 2.4317924778716451 0 -0.69465837861970381 -0.71933979245794832 0.5 0 0 1 I I 0 1 0.5 forward I I I I #
face $-1 $181 $182 $61 $-1 $183 forward single #
loop $-1 $184 $185 $78 #
cone-surface $-1 15.201428844005946 19.988239856892363 2.4317924778716451 0 -0.69465837861970381 -0.71933979245794832 0.5 0 0 1 I I 0 1 0.5 forward I I I I #
face $-1 $186 $187 $62 $-1 $188 reversed single #
loop $-1 $-1 $189 $79 #
plane-surface $-1 30.924248555974479 56.277514741973818 101.66094915900523 1 0 0 0 -0.69465837861970381 -0.71933979245794832 forward_v I I I I #
face $-1 $190 $191 $63 $-1 $192 forward single #
loop $-1 $193 $194 $80 #
cone-surface $-1 33.56018253464925 19.988239856892363 2.4317924778716451 0 -0.69465837861970381 -0.71933979245794832 0.5 0 0 1 I I 0 1 0.5 forward I I I I #
face $-1 $195 $196 $64 $-1 $197 forward single #
loop $-1 $198 $199 $81 #
cone-surface $-1 37.514083502661428 19.988239856892363 2.4317924778716451 0 -0.69465837861970381 -0.71933979245794832 0.5 0 0 1 I I 0 1 0.5 forward I I I I #
face $-1 $200 $201 $65 $-1 $202 reversed single #
loop $-1 $-1 $203 $82 #
plane-surface $-1 39.146110143318545 -23.179058834557161 1.6590204541769964 0 -0.64278761758704617 0.76604443648966558 1 0 0 forward_v I I I I #
face $-1 $204 $205 $66 $-1 $206 forward single #
loop $-1 $207 $208 $83 #
cone-surface $-1 35.42608596044446 -20.433784531106671 3.1062778633439669 0 0.64278761758704617 -0.76604443648966558 1 0 0 1 I I 0 1 1 forward I I I I #
face $-1 $209 $210 $67 $-1 $211 forward single #
loop $-1 $212 $213 $84 #
cone-surface $-1 42.866134326192615 -20.433784531106671 3.1062778633439669 0 0.64278761758704617 -0.76604443648966558 1 0 0 1 I I 0 1 1 forward I I I I #
face $-1 $214 $215 $51 $-1 $216 reversed single #
loop $-1 $-1 $217 $85 #
plane-surface $-1 0 0 -5.5585317090421249 0 0 1 1 0 0 forward_v I I I I #
coedge $-1 $218 $219 $220 $221 forward $86 $-1 #
face $-1 $222 $223 $52 $-1 $224 reversed single #
loop $-1 $-1 $225 $88 #
plane-surface $-1 -44.625309317310965 0 0.61392439583184144 0 0 1 1 0 0 forward_v I I I I #
coedge $-1 $226 $227 $228 $229 forward $89 $-1 #
face $-1 $230 $231 $53 $-1 $232 reversed single #
loop $-1 $-1 $233 $91 #
plane-surface $-1 -31.400830957311108 -10.168179908284685 32.854419689923532 0 0.69465837861970381 0.71933979245794832 1 0 0 forward_v I I I I #
coedge $-1 $234 $235 $236 $237 reversed $92 $-1 #
face $-1 $-1 $238 $54 $-1 $239 forward single #
loop $-1 $240 $241 $94 #
cone-surface $-1 -33.377781441317197 19.164516253838418 1.5788017360901705 0 -0.69465837861970381 -0.71933979245794832 0.25 0 0 1 I I -0.70710678118654746 0.70710678118654746 0.25 forward I I I I #
loop $-1 $-1 $242 $71 #
coedge $-1 $152 $152 $243 $244 reversed $95 $-1 #
face $-1 $-1 $245 $55 $-1 $246 forward single #
loop $-1 $247 $248 $97 #
cone-surface $-1 -29.423880473305022 19.164516253838418 1.5788017360901705 0 -0.69465837861970381 -0.71933979245794832 0.25 0 0 1 I I -0.70710678118654746 0.70710678118654746 0.25 forward I I I I #
loop $-1 $-1 $249 $72 #
coedge $-1 $157 $157 $250 $251 reversed $98 $-1 #
face $-1 $252 $253 $56 $-1 $254 reversed single #
loop $-1 $-1 $255 $100 #
plane-surface $-1 -9.0881762986556254 -10.168179908284685 32.854419689923532 0 0.69465837861970381 0.71933979245794832 1 0 0 forward_v I I I I #
coedge $-1 $256 $257 $258 $259 reversed $101 $-1 #
face $-1 $-1 $260 $57 $-1 $261 forward single #
loop $-1 $262 $263 $103 #
cone-surface $-1 -11.065126782661714 19.164516253838418 1.5788017360901705 0 -0.69465837861970381 -0.71933979245794832 0.25 0 0 1 I I -0.70710678118654746 0.70710678118654746 0.25 forward I I I I #
loop $-1 $-1 $264 $74 #
coedge $-1 $166 $166 $265 $266 reversed $104 $-1 #
face $-1 $-1 $267 $58 $-1 $268 forward single #
loop $-1 $269 $270 $106 #
cone-surface $-1 -7.1112258146495364 19.164516253838418 1.5788017360901705 0 -0.69465837861970381 -0.71933979245794832 0.25 0 0 1 I I -0.70710678118654746 0.70710678118654746 0.25 forward I I I I #
loop $-1 $-1 $271 $75 #
coedge $-1 $171 $171 $272 $273 reversed $107 $-1 #
face $-1 $274 $275 $59 $-1 $276 reversed single #
loop $-1 $-1 $277 $109 #
plane-surface $-1 13.224478359999857 -10.168179908284685 32.854419689923532 0 0.69465837861970381 0.71933979245794832 1 0 0 forward_v I I I I #
coedge $-1 $278 $279 $280 $281 reversed $110 $-1 #
face $-1 $-1 $282 $60 $-1 $283 forward single #
loop $-1 $284 $285 $112 #
cone-surface $-1 11.247527875993768 19.164516253838418 1.5788017360901705 0 -0.69465837861970381 -0.71933979245794832 0.25 0 0 1 I I -0.70710678118654746 0.70710678118654746 0.25 forward I I I I #
loop $-1 $-1 $286 $77 #
coedge $-1 $180 $180 $287 $288 reversed $113 $-1 #
face $-1 $-1 $289 $61 $-1 $290 forward single #
loop $-1 $291 $292 $115 #
cone-surface $-1 15.201428844005946 19.164516253838418 1.5788017360901705 0 -0.69465837861970381 -0.71933979245794832 0.25 0 0 1 I I -0.70710678118654746 0.70710678118654746 0.25 forward I I I I #
loop $-1 $-1 $293 $78 #
coedge $-1 $185 $185 $294 $295 reversed $116 $-1 #
face $-1 $296 $297 $62 $-1 $298 reversed single #
loop $-1 $-1 $299 $118 #
plane-surface $-1 35.537133018655346 -10.168179908284685 32.854419689923532 0 0.69465837861970381 0.71933979245794832 1 0 0 forward_v I I I I #
coedge $-1 $300 $301 $302 $303 reversed $119 $-1 #
face $-1 $-1 $304 $63 $-1 $305 forward single #
loop $-1 $306 $307 $121 #
cone-surface $-1 33.56018253464925 19.164516253838418 1.5788017360901705 0 -0.69465837861970381 -0.71933979245794832 0.25 0 0 1 I I -0.70710678118654746 0.70710678118654746 0.25 forward I I I I #
loop $-1 $-1 $308 $80 #
coedge $-1 $194 $194 $309 $310 reversed $122 $-1 #
face $-1 $-1 $311 $64 $-1 $312 forward single #
loop $-1 $313 $314 $124 #
cone-surface $-1 37.514083502661428 19.164516253838418 1.5788017360901705 0 -0.69465837861970381 -0.71933979245794832 0.25 0 0 1 I I -0.70710678118654746 0.70710678118654746 0.25 forward I I I I #
loop $-1 $-1 $315 $81 #
coedge $-1 $199 $199 $316 $317 reversed $125 $-1 #
face $-1 $318 $319 $65 $-1 $320 reversed single #
loop $-1 $-1 $321 $127 #
plane-surface $-1 30.466053716612365 -84.663194170292002 74.93295809336793 1 0 0 0 0.64278761758704617 -0.76604443648966558 forward_v I I I I #
coedge $-1 $322 $323 $324 $325 reversed $128 $-1 #
face $-1 $-1 $326 $66 $-1 $327 forward single #
loop $-1 $328 $329 $130 #
cone-surface $-1 35.42608596044446 -19.690744643867884 2.2207574268335355 0 0.64278761758704617 -0.76604443648966558 0.5 0 0 1 I I -0.70710678118654746 0.70710678118654746 0.5 forward I I I I #
loop $-1 $-1 $330 $83 #
coedge $-1 $208 $208 $331 $332 reversed $131 $-1 #
face $-1 $-1 $333 $67 $-1 $334 forward single #
loop $-1 $335 $336 $133 #
cone-surface $-1 42.866134326192615 -19.690744643867884 2.2207574268335355 0 0.64278761758704617 -0.76604443648966558 0.5 0 0 1 I I -0.70710678118654746 0.70710678118654746 0.5 forward I I I I #
loop $-1 $-1 $337 $84 #
coedge $-1 $213 $213 $338 $339 reversed $134 $-1 #
face $-1 $340 $341 $51 $-1 $342 reversed single #
loop $-1 $-1 $343 $136 #
plane-surface $-1 0 -23.179058834557164 0 0 1 0 0 0 1 forward_v I I I I #
coedge $-1 $344 $345 $346 $347 forward $137 $-1 #
coedge $-1 $348 $139 $349 $350 forward $86 $-1 #
coedge $-1 $139 $348 $351 $352 forward $86 $-1 #
coedge $-1 $353 $354 $139 $221 reversed $355 $-1 #
edge $-1 $356 -23.179058834557164 $357 23.179058834557164 $220 $358 forward 7 unknown #
face $-1 $359 $360 $52 $-1 $361 reversed single #
loop $-1 $-1 $362 $140 #
plane-surface $-1 -41.424452064597212 0 2.113924395831841 -1 0 0 0 0 1 forward_v I I I I #
coedge $-1 $363 $364 $365 $366 forward $141 $-1 #
coedge $-1 $367 $143 $368 $369 reversed $89 $-1 #
coedge $-1 $143 $367 $370 $371 reversed $89 $-1 #
coedge $-1 $362 $372 $143 $229 reversed $223 $-1 #
edge $-1 $373 -23.179058834557164 $374 23.179058834557164 $228 $375 forward 7 unknown #
face $-1 $376 $377 $53 $-1 $378 forward single #
loop $-1 $-1 $379 $144 #
plane-surface $-1 -26.787946494630241 56.277514741973818 101.66094915900523 -1 0 0 0 0.69465837861970381 0.71933979245794832 forward_v I I I I #
coedge $-1 $380 $381 $382 $383 reversed $145 $-1 #
coedge $-1 $235 $147 $384 $385 reversed $92 $-1 #
coedge $-1 $147 $234 $380 $386 reversed $92 $-1 #
coedge $-1 $382 $387 $147 $237 forward $377 $-1 #
edge $-1 $388 4.9596985364297446 $389 10.041218474961337 $236 $390 forward 7 unknown #
loop $-1 $-1 $243 $148 #
plane-surface $-1 -31.400830957311108 -10.168179908284685 32.854419689923532 0 0.69465837861970381 0.71933979245794832 1 0 0 forward_v I I I I #
loop $-1 $-1 $391 $94 #
coedge $-1 $241 $241 $242 $392 reversed $149 $-1 #
coedge $-1 $242 $242 $241 $392 forward $151 $-1 #
coedge $-1 $243 $243 $152 $244 forward $238 $-1 #
edge $-1 $393 -2.1171783375945301e-015 $393 6.2831853071795987 $243 $394 forward 7 unknown #
loop $-1 $-1 $250 $153 #
plane-surface $-1 -31.400830957311108 -10.168179908284685 32.854419689923532 0 0.69465837861970381 0.71933979245794832 1 0 0 forward_v I I I I #
loop $-1 $-1 $395 $97 #
coedge $-1 $248 $248 $249 $396 reversed $154 $-1 #
coedge $-1 $249 $249 $248 $396 forward $156 $-1 #
coedge $-1 $250 $250 $157 $251 forward $245 $-1 #
edge $-1 $397 -2.1171783375945301e-015 $397 6.2831853071795987 $250 $398 forward 7 unknown #
face $-1 $399 $400 $56 $-1 $401 forward single #
loop $-1 $-1 $402 $158 #
plane-surface $-1 -4.4752918359747573 56.277514741973818 101.66094915900523 -1 0 0 0 0.69465837861970381 0.71933979245794832 forward_v I I I I #
coedge $-1 $403 $404 $405 $406 reversed $159 $-1 #
coedge $-1 $257 $161 $407 $408 reversed $101 $-1 #
coedge $-1 $161 $256 $403 $409 reversed $101 $-1 #
coedge $-1 $405 $410 $161 $259 forward $400 $-1 #
edge $-1 $411 4.9596985364297446 $412 10.041218474961337 $258 $413 forward 7 unknown #
loop $-1 $-1 $265 $162 #
plane-surface $-1 -9.0881762986556254 -10.168179908284685 32.854419689923532 0 0.69465837861970381 0.71933979245794832 1 0 0 forward_v I I I I #
loop $-1 $-1 $414 $103 #
coedge $-1 $263 $263 $264 $415 reversed $163 $-1 #
coedge $-1 $264 $264 $263 $415 forward $165 $-1 #
coedge $-1 $265 $265 $166 $266 forward $260 $-1 #
edge $-1 $416 -2.1171783375945301e-015 $416 6.2831853071795987 $265 $417 forward 7 unknown #
loop $-1 $-1 $272 $167 #
plane-surface $-1 -9.0881762986556254 -10.168179908284685 32.854419689923532 0 0.69465837861970381 0.71933979245794832 1 0 0 forward_v I I I I #
loop $-1 $-1 $418 $106 #
coedge $-1 $270 $270 $271 $419 reversed $168 $-1 #
coedge $-1 $271 $271 $270 $419 forward $170 $-1 #
coedge $-1 $272 $272 $171 $273 forward $267 $-1 #
edge $-1 $420 -2.1171783375945301e-015 $420 6.2831853071795987 $272 $421 forward 7 unknown #
face $-1 $422 $423 $59 $-1 $424 forward single #
loop $-1 $-1 $425 $172 #
plane-surface $-1 17.837362822680724 56.277514741973818 101.66094915900523 -1 0 0 0 0.69465837861970381 0.71933979245794832 forward_v I I I I #
coedge $-1 $426 $427 $428 $429 reversed $173 $-1 #
coedge $-1 $279 $175 $430 $431 reversed $110 $-1 #
coedge $-1 $175 $278 $426 $432 reversed $110 $-1 #
coedge $-1 $428 $433 $175 $281 forward $423 $-1 #
edge $-1 $434 4.9596985364297446 $435 10.041218474961337 $280 $436 forward 7 unknown #
loop $-1 $-1 $287 $176 #
plane-surface $-1 13.224478359999857 -10.168179908284685 32.854419689923532 0 0.69465837861970381 0.71933979245794832 1 0 0 forward_v I I I I #
loop $-1 $-1 $437 $112 #
coedge $-1 $285 $285 $286 $438 reversed $177 $-1 #
coedge $-1 $286 $286 $285 $438 forward $179 $-1 #
coedge $-1 $287 $287 $180 $288 forward $282 $-1 #
edge $-1 $439 -2.1171783375945301e-015 $439 6.2831853071795987 $287 $440 forward 7 unknown #
loop $-1 $-1 $294 $181 #
plane-surface $-1 13.224478359999857 -10.168179908284685 32.854419689923532 0 0.69465837861970381 0.71933979245794832 1 0 0 forward_v I I I I #
loop $-1 $-1 $441 $115 #
coedge $-1 $292 $292 $293 $442 reversed $182 $-1 #
coedge $-1 $293 $293 $292 $442 forward $184 $-1 #
coedge $-1 $294 $294 $185 $295 forward $289 $-1 #
edge $-1 $443 -2.1171783375945301e-015 $443 6.2831853071795987 $294 $444 forward 7 unknown #
face $-1 $445 $446 $62 $-1 $447 forward single #
loop $-1 $-1 $448 $186 #
plane-surface $-1 40.150017481336214 56.277514741973818 101.66094915900523 -1 0 0 0 0.69465837861970381 0.71933979245794832 forward_v I I I I #
coedge $-1 $449 $450 $451 $452 reversed $187 $-1 #
coedge $-1 $301 $189 $453 $454 reversed $119 $-1 #
coedge $-1 $189 $300 $449 $455 reversed $119 $-1 #
coedge $-1 $451 $456 $189 $303 forward $446 $-1 #
edge $-1 $457 4.9596985364297446 $458 10.041218474961337 $302 $459 forward 7 unknown #
loop $-1 $-1 $309 $190 #
plane-surface $-1 35.537133018655346 -10.168179908284685 32.854419689923532 0 0.69465837861970381 0.71933979245794832 1 0 0 forward_v I I I I #
loop $-1 $-1 $460 $121 #
coedge $-1 $307 $307 $308 $461 reversed $191 $-1 #
coedge $-1 $308 $308 $307 $461 forward $193 $-1 #
coedge $-1 $309 $309 $194 $310 forward $304 $-1 #
edge $-1 $462 -2.1171783375945301e-015 $462 6.2831853071795987 $309 $463 forward 7 unknown #
loop $-1 $-1 $316 $195 #
plane-surface $-1 35.537133018655346 -10.168179908284685 32.854419689923532 0 0.69465837861970381 0.71933979245794832 1 0 0 forward_v I I I I #
loop $-1 $-1 $464 $124 #
coedge $-1 $314 $314 $315 $465 reversed $196 $-1 #
coedge $-1 $315 $315 $314 $465 forward $198 $-1 #
coedge $-1 $316 $316 $199 $317 forward $311 $-1 #
edge $-1 $466 -2.1171783375945301e-015 $466 6.2831853071795987 $316 $467 forward 7 unknown #
face $-1 $468 $469 $65 $-1 $470 forward single #
loop $-1 $-1 $471 $200 #
plane-surface $-1 0 -23.179058834557164 0 0 1 0 0 0 1 forward_v I I I I #
coedge $-1 $472 $473 $474 $475 reversed $201 $-1 #
coedge $-1 $476 $203 $477 $478 reversed $128 $-1 #
coedge $-1 $203 $476 $472 $479 forward $128 $-1 #
coedge $-1 $474 $480 $203 $325 forward $469 $-1 #
edge $-1 $481 -28.253111498365453 $482 -10.892998644953092 $324 $483 forward 7 unknown #
loop $-1 $-1 $331 $204 #
plane-surface $-1 39.146110143318545 -23.179058834557161 1.6590204541769964 0 -0.64278761758704617 0.76604443648966558 1 0 0 forward_v I I I I #
loop $-1 $-1 $484 $130 #
coedge $-1 $329 $329 $330 $485 reversed $205 $-1 #
coedge $-1 $330 $330 $329 $485 forward $207 $-1 #
coedge $-1 $331 $331 $208 $332 forward $326 $-1 #
edge $-1 $486 2.6602780774099879e-016 $486 6.2831853071796004 $331 $487 forward 7 unknown #
loop $-1 $-1 $338 $209 #
plane-surface $-1 39.146110143318545 -23.179058834557161 1.6590204541769964 0 -0.64278761758704617 0.76604443648966558 1 0 0 forward_v I I I I #
loop $-1 $-1 $488 $133 #
coedge $-1 $336 $336 $337 $489 reversed $210 $-1 #
coedge $-1 $337 $337 $336 $489 forward $212 $-1 #
coedge $-1 $338 $338 $213 $339 forward $333 $-1 #
edge $-1 $490 2.6602780774099879e-016 $490 6.2831853071796004 $338 $491 forward 7 unknown #
face $-1 $492 $493 $51 $-1 $494 reversed single #
loop $-1 $-1 $495 $214 #
plane-surface $-1 -47.826166570024718 0 0 1 0 0 0 0 -1 forward_v I I I I #
coedge $-1 $496 $351 $497 $498 forward $215 $-1 #
coedge $-1 $499 $217 $496 $500 forward $137 $-1 #
coedge $-1 $217 $499 $501 $502 forward $137 $-1 #
coedge $-1 $354 $353 $217 $347 reversed $355 $-1 #
edge $-1 $503 -23.179058834557164 $504 23.179058834557164 $346 $505 forward 7 unknown #
coedge $-1 $219 $218 $506 $507 forward $86 $-1 #
coedge $-1 $508 $509 $218 $350 reversed $493 $-1 #
edge $-1 $357 -47.826166570024718 $510 47.826166570024718 $349 $511 forward 7 unknown #
coedge $-1 $343 $512 $219 $352 reversed $215 $-1 #
edge $-1 $513 -47.826166570024718 $356 47.826166570024718 $351 $514 forward 7 unknown #
coedge $-1 $346 $220 $512 $515 forward $355 $-1 #
coedge $-1 $220 $346 $508 $516 reversed $355 $-1 #
loop $-1 $-1 $353 $492 #
vertex $-1 $221 $517 #
vertex $-1 $221 $518 #
straight-curve $-1 47.826166570024718 0 5.5585317090421249 0 1 0 I I #
face $-1 $519 $520 $52 $-1 $521 reversed single #
loop $-1 $-1 $522 $222 #
plane-surface $-1 0 -23.179058834557164 0 0 1 0 0 0 1 forward_v I I I I #
coedge $-1 $365 $228 $523 $524 reversed $223 $-1 #
coedge $-1 $525 $225 $522 $526 reversed $141 $-1 #
coedge $-1 $225 $525 $527 $528 reversed $141 $-1 #
coedge $-1 $372 $362 $225 $366 reversed $223 $-1 #
edge $-1 $529 -23.179058834557164 $530 23.179058834557164 $365 $531 forward 7 unknown #
coedge $-1 $227 $226 $532 $533 reversed $89 $-1 #
coedge $-1 $534 $535 $226 $369 forward $536 $-1 #
edge $-1 $537 -25.513511911369235 $374 -19.111797405941729 $368 $538 forward 7 unknown #
coedge $-1 $539 $523 $227 $371 forward $360 $-1 #
edge $-1 $373 19.111797405941729 $540 25.513511911369235 $370 $541 forward 7 unknown #
coedge $-1 $228 $365 $534 $542 reversed $223 $-1 #
vertex $-1 $371 $543 #
vertex $-1 $369 $544 #
straight-curve $-1 -41.424452064597212 0 3.6139243958318406 0 1 0 I I #
face $-1 $-1 $545 $53 $-1 $546 reversed single #
loop $-1 $-1 $236 $230 #
plane-surface $-1 0 0 5.5585317090421249 0 0 1 1 0 0 forward_v I I I I #
coedge $-1 $547 $548 $549 $550 reversed $231 $-1 #
coedge $-1 $551 $233 $235 $386 forward $145 $-1 #
coedge $-1 $233 $551 $547 $552 forward $145 $-1 #
coedge $-1 $549 $236 $233 $383 forward $377 $-1 #
edge $-1 $389 -20.313299941336421 $553 -11.087531015974687 $382 $554 forward 7 unknown #
coedge $-1 $555 $556 $234 $385 forward $545 $-1 #
edge $-1 $557 -50.179109745467493 $388 -45.271942870460492 $384 $558 forward 7 unknown #
edge $-1 $389 39.293973586151409 $557 46.358117669114336 $235 $559 forward 7 unknown #
coedge $-1 $236 $549 $555 $560 forward $377 $-1 #
vertex $-1 $385 $561 #
vertex $-1 $237 $562 #
straight-curve $-1 -36.013715419991975 28.138757370986909 5.5585317090421285 0 -1 0 I I #
coedge $-1 $391 $391 $-1 $563 reversed $240 $-1 #
edge $-1 $564 0 $564 6.2831853071796004 $241 $565 forward 7 unknown #
vertex $-1 $244 $566 #
ellipse-curve $-1 -33.377781441317197 20.638298865291372 3.1049482715386238 0 0.69465837861970381 0.71933979245794832 0.5 0 0 1 I I #
coedge $-1 $395 $395 $-1 $567 reversed $247 $-1 #
edge $-1 $568 0 $568 6.2831853071796004 $248 $569 forward 7 unknown #
vertex $-1 $251 $570 #
ellipse-curve $-1 -29.423880473305022 20.638298865291372 3.1049482715386238 0 0.69465837861970381 0.71933979245794832 0.5 0 0 1 I I #
face $-1 $-1 $571 $56 $-1 $572 reversed single #
loop $-1 $-1 $258 $252 #
plane-surface $-1 0 0 5.5585317090421249 0 0 1 1 0 0 forward_v I I I I #
coedge $-1 $573 $574 $575 $576 reversed $253 $-1 #
coedge $-1 $577 $255 $257 $409 forward $159 $-1 #
coedge $-1 $255 $577 $573 $578 forward $159 $-1 #
coedge $-1 $575 $258 $255 $406 forward $400 $-1 #
edge $-1 $412 -9.1569726120086798 $579 0.068796313353055361 $405 $580 forward 7 unknown #
coedge $-1 $581 $582 $256 $408 forward $571 $-1 #
edge $-1 $583 -50.179109745467493 $411 -45.271942870460492 $407 $584 forward 7 unknown #
edge $-1 $412 39.293973586151409 $583 46.358117669114336 $257 $585 forward 7 unknown #
coedge $-1 $258 $575 $581 $586 forward $400 $-1 #
vertex $-1 $259 $587 #
vertex $-1 $259 $588 #
straight-curve $-1 -13.701060761336493 28.138757370986909 5.5585317090421285 0 -1 0 I I #
coedge $-1 $414 $414 $-1 $589 reversed $262 $-1 #
edge $-1 $590 0 $590 6.2831853071796004 $263 $591 forward 7 unknown #
vertex $-1 $266 $592 #
ellipse-curve $-1 -11.065126782661714 20.638298865291372 3.1049482715386238 0 0.69465837861970381 0.71933979245794832 0.5 0 0 1 I I #
coedge $-1 $418 $418 $-1 $593 reversed $269 $-1 #
edge $-1 $594 0 $594 6.2831853071796004 $270 $595 forward 7 unknown #
vertex $-1 $273 $596 #
ellipse-curve $-1 -7.1112258146495364 20.638298865291372 3.1049482715386238 0 0.69465837861970381 0.71933979245794832 0.5 0 0 1 I I #
face $-1 $-1 $597 $59 $-1 $598 reversed single #
loop $-1 $-1 $280 $274 #
plane-surface $-1 0 0 5.5585317090421249 0 0 1 1 0 0 forward_v I I I I #
coedge $-1 $599 $600 $601 $602 reversed $275 $-1 #
coedge $-1 $603 $277 $279 $432 forward $173 $-1 #
coedge $-1 $277 $603 $599 $604 forward $173 $-1 #
coedge $-1 $601 $280 $277 $429 forward $423 $-1 #
edge $-1 $435 1.9993547173190613 $605 11.225123642680796 $428 $606 forward 7 unknown #
coedge $-1 $607 $608 $278 $431 forward $597 $-1 #
edge $-1 $609 -50.179109745467493 $434 -45.271942870460492 $430 $610 forward 7 unknown #
edge $-1 $435 39.293973586151409 $609 46.358117669114336 $279 $611 forward 7 unknown #
coedge $-1 $280 $601 $607 $612 forward $423 $-1 #
vertex $-1 $281 $613 #
vertex $-1 $281 $614 #
straight-curve $-1 8.6115938973189898 28.138757370986909 5.5585317090421285 0 -1 0 I I #
coedge $-1 $437 $437 $-1 $615 reversed $284 $-1 #
edge $-1 $616 0 $616 6.2831853071796004 $285 $617 forward 7 unknown #
vertex $-1 $288 $618 #
ellipse-curve $-1 11.247527875993768 20.638298865291372 3.1049482715386238 0 0.69465837861970381 0.71933979245794832 0.5 0 0 1 I I #
coedge $-1 $441 $441 $-1 $619 reversed $291 $-1 #
edge $-1 $620 0 $620 6.2831853071796004 $292 $621 forward 7 unknown #
vertex $-1 $295 $622 #
ellipse-curve $-1 15.201428844005946 20.638298865291372 3.1049482715386238 0 0.69465837861970381 0.71933979245794832 0.5 0 0 1 I I #
face $-1 $-1 $623 $62 $-1 $624 reversed single #
loop $-1 $-1 $302 $296 #
plane-surface $-1 0 0 5.5585317090421249 0 0 1 1 0 0 forward_v I I I I #
coedge $-1 $625 $626 $627 $628 reversed $297 $-1 #
coedge $-1 $629 $299 $301 $455 forward $187 $-1 #
coedge $-1 $299 $629 $625 $630 forward $187 $-1 #
coedge $-1 $627 $302 $299 $452 forward $446 $-1 #
edge $-1 $458 13.155682046646806 $631 22.38145097200854 $451 $632 forward 7 unknown #
coedge $-1 $633 $634 $300 $454 forward $623 $-1 #
edge $-1 $635 -50.179109745467493 $457 -45.271942870460492 $453 $636 forward 7 unknown #
edge $-1 $458 39.293973586151409 $635 46.358117669114336 $301 $637 forward 7 unknown #
coedge $-1 $302 $627 $633 $638 forward $446 $-1 #
vertex $-1 $303 $639 #
vertex $-1 $303 $640 #
straight-curve $-1 30.924248555974479 28.138757370986909 5.5585317090421285 0 -1 0 I I #
coedge $-1 $460 $460 $-1 $641 reversed $306 $-1 #
edge $-1 $642 0 $642 6.2831853071796004 $307 $643 forward 7 unknown #
vertex $-1 $310 $644 #
ellipse-curve $-1 33.56018253464925 20.638298865291372 3.1049482715386238 0 0.69465837861970381 0.71933979245794832 0.5 0 0 1 I I #
coedge $-1 $464 $464 $-1 $645 reversed $313 $-1 #
edge $-1 $646 0 $646 6.2831853071796004 $314 $647 forward 7 unknown #
vertex $-1 $317 $648 #
ellipse-curve $-1 37.514083502661428 20.638298865291372 3.1049482715386238 0 0.69465837861970381 0.71933979245794832 0.5 0 0 1 I I #
face $-1 $-1 $649 $65 $-1 $650 reversed single #
loop $-1 $-1 $474 $318 #
plane-surface $-1 0 0 5.5585317090421249 0 0 1 1 0 0 forward_v I I I I #
coedge $-1 $651 $652 $473 $653 forward $319 $-1 #
coedge $-1 $473 $321 $323 $479 reversed $201 $-1 #
coedge $-1 $321 $472 $471 $653 reversed $201 $-1 #
coedge $-1 $654 $324 $321 $475 forward $469 $-1 #
edge $-1 $482 -23.799794700599314 $655 -19.152538250588837 $474 $656 forward 7 unknown #
coedge $-1 $323 $322 $651 $657 reversed $128 $-1 #
coedge $-1 $658 $659 $322 $478 forward $649 $-1 #
edge $-1 $660 -8.344895629005272 $481 -2.2783331312654012 $477 $661 forward 7 unknown #
edge $-1 $662 -4.5769943418574876e-015 $482 6.0665624977398664 $472 $663 forward 7 unknown #
coedge $-1 $324 $654 $658 $664 forward $469 $-1 #
vertex $-1 $478 $665 #
vertex $-1 $325 $666 #
straight-curve $-1 19.573055071659272 -18.531802384546687 5.5585317090421249 -1 0 0 I I #
coedge $-1 $484 $484 $-1 $667 reversed $328 $-1 #
edge $-1 $668 0 $668 6.2831853071796004 $329 $669 forward 7 unknown #
vertex $-1 $332 $670 #
ellipse-curve $-1 35.42608596044446 -20.855430609551927 3.6087760816095571 0 -0.64278761758704617 0.76604443648966558 1 0 0 1 I I #
coedge $-1 $488 $488 $-1 $671 reversed $335 $-1 #
edge $-1 $672 0 $672 6.2831853071796004 $336 $673 forward 7 unknown #
vertex $-1 $339 $674 #
ellipse-curve $-1 42.866134326192615 -20.855430609551927 3.6087760816095571 0 -0.64278761758704617 0.76604443648966558 1 0 0 1 I I #
face $-1 $-1 $355 $51 $-1 $675 reversed single #
loop $-1 $-1 $508 $340 #
plane-surface $-1 0 23.179058834557164 0 0 -1 0 0 0 -1 forward_v I I I I #
coedge $-1 $676 $506 $509 $677 forward $341 $-1 #
coedge $-1 $512 $343 $344 $500 reversed $215 $-1 #
coedge $-1 $506 $676 $343 $498 reversed $341 $-1 #
edge $-1 $513 -5.5585317090421249 $678 5.5585317090421249 $497 $679 forward 7 unknown #
coedge $-1 $345 $344 $676 $680 forward $137 $-1 #
edge $-1 $504 -47.826166570024718 $678 47.826166570024718 $496 $681 forward 7 unknown #
coedge $-1 $509 $508 $345 $502 reversed $493 $-1 #
edge $-1 $682 -47.826166570024718 $503 47.826166570024718 $501 $683 forward 7 unknown #
vertex $-1 $347 $684 #
vertex $-1 $515 $685 #
straight-curve $-1 47.826166570024718 0 -5.5585317090421249 0 -1 0 I I #
coedge $-1 $495 $497 $348 $507 reversed $341 $-1 #
edge $-1 $510 -23.179058834557164 $513 23.179058834557164 $506 $686 forward 7 unknown #
coedge $-1 $501 $349 $354 $516 forward $493 $-1 #
coedge $-1 $349 $501 $495 $677 reversed $493 $-1 #
vertex $-1 $350 $687 #
straight-curve $-1 0 23.179058834557164 5.5585317090421249 -1 0 0 I I #
coedge $-1 $351 $496 $353 $515 reversed $215 $-1 #
vertex $-1 $507 $688 #
straight-curve $-1 0 -23.179058834557164 5.5585317090421249 1 0 0 I I #
edge $-1 $356 -5.5585317090421249 $504 5.5585317090421249 $353 $689 forward 7 unknown #
edge $-1 $357 -5.5585317090421249 $503 5.5585317090421249 $354 $690 forward 7 unknown #
point $-1 47.826166570024718 -23.179058834557164 5.5585317090421249 #
point $-1 47.826166570024718 23.179058834557164 5.5585317090421249 #
face $-1 $-1 $536 $52 $-1 $691 reversed single #
loop $-1 $-1 $692 $359 #
plane-surface $-1 -47.826166570024718 0 0 1 0 0 0 0 -1 forward_v I I I I #
coedge $-1 $523 $539 $363 $526 forward $360 $-1 #
coedge $-1 $370 $522 $362 $524 forward $360 $-1 #
edge $-1 $530 -0.44303780208407906 $373 2.5569621979159201 $523 $693 forward 7 unknown #
coedge $-1 $364 $363 $692 $694 reversed $141 $-1 #
edge $-1 $695 -25.513511911369235 $530 -19.111797405941729 $522 $696 forward 7 unknown #
coedge $-1 $535 $534 $364 $528 forward $536 $-1 #
edge $-1 $529 19.111797405941729 $697 25.513511911369235 $527 $698 forward 7 unknown #
vertex $-1 $528 $699 #
vertex $-1 $526 $700 #
straight-curve $-1 -41.424452064597212 0 0.61392439583184144 0 -1 0 I I #
coedge $-1 $701 $702 $367 $533 forward $520 $-1 #
edge $-1 $540 -23.179058834557164 $537 23.179058834557164 $532 $703 forward 7 unknown #
coedge $-1 $527 $368 $372 $542 forward $536 $-1 #
coedge $-1 $368 $527 $701 $704 reversed $536 $-1 #
loop $-1 $-1 $527 $519 #
vertex $-1 $704 $705 #
straight-curve $-1 -22.312654658655482 23.179058834557164 3.6139243958318406 1 0 0 I I #
coedge $-1 $522 $370 $702 $706 forward $360 $-1 #
vertex $-1 $706 $707 #
straight-curve $-1 -22.312654658655482 -23.179058834557164 3.6139243958318406 -1 0 0 I I #
edge $-1 $374 -2.5569621979159201 $529 0.44303780208407906 $534 $708 forward 7 unknown #
point $-1 -41.424452064597212 -23.179058834557164 3.6139243958318406 #
point $-1 -41.424452064597212 23.179058834557164 3.6139243958318406 #
loop $-1 $-1 $384 $376 #
plane-surface $-1 0 23.179058834557164 0 0 -1 0 0 0 -1 forward_v I I I I #
coedge $-1 $548 $379 $381 $552 reversed $231 $-1 #
coedge $-1 $379 $547 $709 $710 reversed $231 $-1 #
coedge $-1 $387 $382 $379 $550 forward $377 $-1 #
edge $-1 $553 -10.041218474961337 $711 -4.9596985364297446 $549 $712 forward 7 unknown #
coedge $-1 $381 $380 $556 $713 reversed $145 $-1 #
edge $-1 $714 -46.358117669114336 $553 -39.293973586151409 $547 $715 forward 7 unknown #
vertex $-1 $383 $716 #
straight-curve $-1 -15.700415478655554 18.097538896025572 5.5585317090421249 1 0 0 I I #
coedge $-1 $709 $384 $387 $560 reversed $545 $-1 #
coedge $-1 $384 $709 $551 $713 forward $545 $-1 #
vertex $-1 $385 $717 #
straight-curve $-1 -36.013715419991975 23.179058834557164 50.830474579502614 0 0 1 I I #
straight-curve $-1 -36.013715419991975 -10.168179908284685 32.854419689923532 0 0.71933979245794832 -0.69465837861970381 I I #
edge $-1 $711 26.787946494630241 $388 36.013715419991975 $555 $718 forward 7 unknown #
point $-1 -36.013715419991975 23.179058834557164 5.5585317090421249 #
point $-1 -36.013715419991975 18.097538896025572 5.5585317090421249 #
edge $-1 $719 1 $719 0 $391 $-1 forward 7 unknown #
vertex $-1 $392 $720 #
ellipse-curve $-1 -33.377781441317197 19.338180848493344 1.7586366842046575 0 0.69465837861970381 0.71933979245794832 0.5 0 0 1 I I #
point $-1 -32.877781441317197 20.638298865291379 3.1049482715386327 #
edge $-1 $721 1 $721 0 $395 $-1 forward 7 unknown #
vertex $-1 $396 $722 #
ellipse-curve $-1 -29.423880473305022 19.338180848493344 1.7586366842046575 0 0.69465837861970381 0.71933979245794832 0.5 0 0 1 I I #
point $-1 -28.923880473305022 20.638298865291379 3.1049482715386327 #
loop $-1 $-1 $407 $399 #
plane-surface $-1 0 23.179058834557164 0 0 -1 0 0 0 -1 forward_v I I I I #
coedge $-1 $574 $402 $404 $578 reversed $253 $-1 #
coedge $-1 $402 $573 $723 $724 reversed $253 $-1 #
coedge $-1 $410 $405 $402 $576 forward $400 $-1 #
edge $-1 $579 -10.041218474961337 $725 -4.9596985364297446 $575 $726 forward 7 unknown #
coedge $-1 $404 $403 $582 $727 reversed $159 $-1 #
edge $-1 $728 -46.358117669114336 $579 -39.293973586151409 $573 $729 forward 7 unknown #
vertex $-1 $406 $730 #
straight-curve $-1 -4.5440881493278127 18.097538896025572 5.5585317090421249 1 0 0 I I #
coedge $-1 $723 $407 $410 $586 reversed $571 $-1 #
coedge $-1 $407 $723 $577 $727 forward $571 $-1 #
vertex $-1 $408 $731 #
straight-curve $-1 -13.701060761336493 23.179058834557164 50.830474579502614 0 0 1 I I #
straight-curve $-1 -13.701060761336493 -10.168179908284685 32.854419689923532 0 0.71933979245794832 -0.69465837861970381 I I #
edge $-1 $725 4.4752918359747573 $411 13.701060761336493 $581 $732 forward 7 unknown #
point $-1 -13.701060761336493 23.179058834557164 5.5585317090421249 #
point $-1 -13.701060761336493 18.097538896025572 5.5585317090421249 #
edge $-1 $733 1 $733 0 $414 $-1 forward 7 unknown #
vertex $-1 $415 $734 #
ellipse-curve $-1 -11.065126782661714 19.338180848493344 1.7586366842046575 0 0.69465837861970381 0.71933979245794832 0.5 0 0 1 I I #
point $-1 -10.565126782661714 20.638298865291379 3.1049482715386327 #
edge $-1 $735 1 $735 0 $418 $-1 forward 7 unknown #
vertex $-1 $419 $736 #
ellipse-curve $-1 -7.1112258146495364 19.338180848493344 1.7586366842046575 0 0.69465837861970381 0.71933979245794832 0.5 0 0 1 I I #
point $-1 -6.6112258146495364 20.638298865291379 3.1049482715386327 #
loop $-1 $-1 $430 $422 #
plane-surface $-1 0 23.179058834557164 0 0 -1 0 0 0 -1 forward_v I I I I #
coedge $-1 $600 $425 $427 $604 reversed $275 $-1 #
coedge $-1 $425 $599 $737 $738 reversed $275 $-1 #
coedge $-1 $433 $428 $425 $602 forward $423 $-1 #
edge $-1 $605 -10.041218474961337 $739 -4.9596985364297446 $601 $740 forward 7 unknown #
coedge $-1 $427 $426 $608 $741 reversed $173 $-1 #
edge $-1 $742 -46.358117669114336 $605 -39.293973586151409 $599 $743 forward 7 unknown #
vertex $-1 $429 $744 #
straight-curve $-1 6.6122391799999285 18.097538896025572 5.5585317090421249 1 0 0 I I #
coedge $-1 $737 $430 $433 $612 reversed $597 $-1 #
coedge $-1 $430 $737 $603 $741 forward $597 $-1 #
vertex $-1 $431 $745 #
straight-curve $-1 8.6115938973189898 23.179058834557164 50.830474579502614 0 0 1 I I #
straight-curve $-1 8.6115938973189898 -10.168179908284685 32.854419689923532 0 0.71933979245794832 -0.69465837861970381 I I #
edge $-1 $739 -17.837362822680724 $434 -8.6115938973189898 $607 $746 forward 7 unknown #
point $-1 8.6115938973189898 23.179058834557164 5.5585317090421249 #
point $-1 8.6115938973189898 18.097538896025572 5.5585317090421249 #
edge $-1 $747 1 $747 0 $437 $-1 forward 7 unknown #
vertex $-1 $438 $748 #
ellipse-curve $-1 11.247527875993768 19.338180848493344 1.7586366842046575 0 0.69465837861970381 0.71933979245794832 0.5 0 0 1 I I #
point $-1 11.747527875993768 20.638298865291379 3.1049482715386327 #
edge $-1 $749 1 $749 0 $441 $-1 forward 7 unknown #
vertex $-1 $442 $750 #
ellipse-curve $-1 15.201428844005946 19.338180848493344 1.7586366842046575 0 0.69465837861970381 0.71933979245794832 0.5 0 0 1 I I #
point $-1 15.701428844005946 20.638298865291379 3.1049482715386327 #
loop $-1 $-1 $453 $445 #
plane-surface $-1 0 23.179058834557164 0 0 -1 0 0 0 -1 forward_v I I I I #
coedge $-1 $626 $448 $450 $630 reversed $297 $-1 #
coedge $-1 $448 $625 $751 $752 reversed $297 $-1 #
coedge $-1 $456 $451 $448 $628 forward $446 $-1 #
edge $-1 $631 -10.041218474961337 $753 -4.9596985364297446 $627 $754 forward 7 unknown #
coedge $-1 $450 $449 $634 $755 reversed $187 $-1 #
edge $-1 $756 -46.358117669114336 $631 -39.293973586151409 $625 $757 forward 7 unknown #
vertex $-1 $452 $758 #
straight-curve $-1 17.768566509327673 18.097538896025572 5.5585317090421249 1 0 0 I I #
coedge $-1 $751 $453 $456 $638 reversed $623 $-1 #
coedge $-1 $453 $751 $629 $755 forward $623 $-1 #
vertex $-1 $454 $759 #
straight-curve $-1 30.924248555974479 23.179058834557164 50.830474579502614 0 0 1 I I #
straight-curve $-1 30.924248555974479 -10.168179908284685 32.854419689923532 0 0.71933979245794832 -0.69465837861970381 I I #
edge $-1 $753 -40.150017481336214 $457 -30.924248555974479 $633 $760 forward 7 unknown #
point $-1 30.924248555974479 23.179058834557164 5.5585317090421249 #
point $-1 30.924248555974479 18.097538896025572 5.5585317090421249 #
edge $-1 $761 1 $761 0 $460 $-1 forward 7 unknown #
vertex $-1 $461 $762 #
ellipse-curve $-1 33.56018253464925 19.338180848493344 1.7586366842046575 0 0.69465837861970381 0.71933979245794832 0.5 0 0 1 I I #
point $-1 34.06018253464925 20.638298865291379 3.1049482715386327 #
edge $-1 $763 1 $763 0 $464 $-1 forward 7 unknown #
vertex $-1 $465 $764 #
ellipse-curve $-1 37.514083502661428 19.338180848493344 1.7586366842046575 0 0.69465837861970381 0.71933979245794832 0.5 0 0 1 I I #
point $-1 38.014083502661428 20.638298865291379 3.1049482715386327 #
loop $-1 $-1 $477 $468 #
plane-surface $-1 47.826166570024718 0 0 -1 0 0 0 0 1 forward_v I I I I #
coedge $-1 $765 $471 $476 $657 forward $319 $-1 #
coedge $-1 $471 $765 $654 $766 reversed $319 $-1 #
edge $-1 $655 31.90794733764184 $662 35.807458592506968 $471 $767 forward 7 unknown #
coedge $-1 $480 $474 $652 $766 forward $469 $-1 #
vertex $-1 $766 $768 #
straight-curve $-1 30.466053716612365 -42.331597085146001 5.5585317090421285 0 -1 0 I I #
edge $-1 $662 10.892998644953092 $660 28.253111498365453 $651 $769 forward 7 unknown #
coedge $-1 $659 $477 $480 $664 reversed $649 $-1 #
coedge $-1 $477 $658 $765 $770 forward $649 $-1 #
vertex $-1 $657 $771 #
straight-curve $-1 47.826166570024718 -16.786497964870748 7.0230160345578474 0 0.76604443648966558 0.64278761758704617 I I #
vertex $-1 $657 $772 #
straight-curve $-1 30.466053716612365 -23.179058834557161 1.6590204541769964 0 0.76604443648966558 0.64278761758704617 I I #
edge $-1 $773 -23.179058834557164 $481 -18.531802384546687 $658 $774 forward 7 unknown #
point $-1 47.826166570024725 -18.531802384546687 5.5585317090421249 #
point $-1 30.466053716612365 -18.531802384546687 5.5585317090421249 #
edge $-1 $775 1 $775 0 $484 $-1 forward 7 unknown #
vertex $-1 $485 $776 #
ellipse-curve $-1 35.42608596044446 -20.012138452661407 2.6037796450783683 0 -0.64278761758704617 0.76604443648966558 1 0 0 1 I I #
point $-1 36.42608596044446 -20.855430609551934 3.608776081609566 #
edge $-1 $777 1 $777 0 $488 $-1 forward 7 unknown #
vertex $-1 $489 $778 #
ellipse-curve $-1 42.866134326192615 -20.012138452661407 2.6037796450783683 0 -0.64278761758704617 0.76604443648966558 1 0 0 1 I I #
point $-1 43.866134326192615 -20.855430609551934 3.608776081609566 #
plane-surface $-1 47.826166570024718 0 0 -1 0 0 0 0 1 forward_v I I I I #
coedge $-1 $497 $495 $499 $680 reversed $341 $-1 #
edge $-1 $510 -5.5585317090421249 $682 5.5585317090421249 $509 $779 forward 7 unknown #
vertex $-1 $680 $780 #
straight-curve $-1 -47.826166570024718 -23.179058834557164 0 0 0 -1 I I #
edge $-1 $678 -23.179058834557164 $682 23.179058834557164 $676 $781 forward 7 unknown #
straight-curve $-1 0 -23.179058834557164 -5.5585317090421249 -1 0 0 I I #
vertex $-1 $502 $782 #
straight-curve $-1 0 23.179058834557164 -5.5585317090421249 1 0 0 I I #
point $-1 47.826166570024718 23.179058834557164 -5.5585317090421249 #
point $-1 47.826166570024718 -23.179058834557164 -5.5585317090421249 #
straight-curve $-1 -47.826166570024718 0 5.5585317090421249 0 -1 0 I I #
point $-1 -47.826166570024718 23.179058834557164 5.5585317090421249 #
point $-1 -47.826166570024718 -23.179058834557164 5.5585317090421249 #
straight-curve $-1 47.826166570024718 -23.179058834557164 0 0 0 -1 I I #
straight-curve $-1 47.826166570024718 23.179058834557164 0 0 0 -1 I I #
plane-surface $-1 0 23.179058834557164 0 0 -1 0 0 0 -1 forward_v I I I I #
coedge $-1 $702 $701 $525 $694 forward $520 $-1 #
straight-curve $-1 -41.424452064597212 -23.179058834557164 1.0569621979159205 0 0 1 I I #
edge $-1 $697 -23.179058834557164 $695 23.179058834557164 $692 $783 forward 7 unknown #
vertex $-1 $526 $784 #
straight-curve $-1 -22.312654658655482 -23.179058834557164 0.61392439583184144 1 0 0 I I #
vertex $-1 $528 $785 #
straight-curve $-1 -22.312654658655482 23.179058834557164 0.61392439583184144 -1 0 0 I I #
point $-1 -41.424452064597212 23.179058834557164 0.61392439583184144 #
point $-1 -41.424452064597212 -23.179058834557164 0.61392439583184144 #
coedge $-1 $692 $532 $535 $704 forward $520 $-1 #
coedge $-1 $532 $692 $539 $706 reversed $520 $-1 #
straight-curve $-1 -47.826166570024718 0 3.6139243958318406 0 1 0 I I #
edge $-1 $537 -3.6139243958318406 $697 -0.61392439583184144 $535 $786 forward 7 unknown #
point $-1 -47.826166570024718 23.179058834557164 3.6139243958318406 #
edge $-1 $540 -3.6139243958318406 $695 -0.61392439583184144 $702 $787 forward 7 unknown #
point $-1 -47.826166570024718 -23.179058834557164 3.6139243958318406 #
straight-curve $-1 -41.424452064597212 23.179058834557164 1.0569621979159205 0 0 -1 I I #
coedge $-1 $556 $555 $548 $710 forward $545 $-1 #
edge $-1 $711 45.271942870460492 $714 50.179109745467493 $709 $788 forward 7 unknown #
vertex $-1 $560 $789 #
straight-curve $-1 -26.787946494630241 28.138757370986909 5.5585317090421285 0 1 0 I I #
edge $-1 $714 11.087531015974687 $557 20.313299941336421 $556 $790 forward 7 unknown #
vertex $-1 $713 $791 #
straight-curve $-1 -26.787946494630241 -10.168179908284685 32.854419689923532 0 -0.71933979245794832 0.69465837861970381 I I #
point $-1 -26.787946494630241 18.097538896025572 5.5585317090421249 #
point $-1 -36.013715419991975 23.179058834557168 0.65136483403512102 #
straight-curve $-1 0 23.179058834557164 5.5585317090421249 -1 0 0 I I #
vertex $-1 $563 $792 #
point $-1 -32.877781441317197 19.338180848493344 1.7586366842046575 #
vertex $-1 $567 $793 #
point $-1 -28.923880473305022 19.338180848493344 1.7586366842046575 #
coedge $-1 $582 $581 $574 $724 forward $571 $-1 #
edge $-1 $725 45.271942870460492 $728 50.179109745467493 $723 $794 forward 7 unknown #
vertex $-1 $586 $795 #
straight-curve $-1 -4.4752918359747573 28.138757370986909 5.5585317090421285 0 1 0 I I #
edge $-1 $728 -0.068796313353055361 $583 9.1569726120086798 $582 $796 forward 7 unknown #
vertex $-1 $727 $797 #
straight-curve $-1 -4.4752918359747573 -10.168179908284685 32.854419689923532 0 -0.71933979245794832 0.69465837861970381 I I #
point $-1 -4.4752918359747573 18.097538896025572 5.5585317090421249 #
point $-1 -13.701060761336493 23.179058834557168 0.65136483403512102 #
straight-curve $-1 0 23.179058834557164 5.5585317090421249 -1 0 0 I I #
vertex $-1 $589 $798 #
point $-1 -10.565126782661714 19.338180848493344 1.7586366842046575 #
vertex $-1 $593 $799 #
point $-1 -6.6112258146495364 19.338180848493344 1.7586366842046575 #
coedge $-1 $608 $607 $600 $738 forward $597 $-1 #
edge $-1 $739 45.271942870460492 $742 50.179109745467493 $737 $800 forward 7 unknown #
vertex $-1 $612 $801 #
straight-curve $-1 17.837362822680724 28.138757370986909 5.5585317090421285 0 1 0 I I #
edge $-1 $742 -11.225123642680796 $609 -1.9993547173190613 $608 $802 forward 7 unknown #
vertex $-1 $741 $803 #
straight-curve $-1 17.837362822680724 -10.168179908284685 32.854419689923532 0 -0.71933979245794832 0.69465837861970381 I I #
point $-1 17.837362822680724 18.097538896025572 5.5585317090421249 #
point $-1 8.6115938973189898 23.179058834557168 0.65136483403512102 #
straight-curve $-1 0 23.179058834557164 5.5585317090421249 -1 0 0 I I #
vertex $-1 $615 $804 #
point $-1 11.747527875993768 19.338180848493344 1.7586366842046575 #
vertex $-1 $619 $805 #
point $-1 15.701428844005946 19.338180848493344 1.7586366842046575 #
coedge $-1 $634 $633 $626 $752 forward $623 $-1 #
edge $-1 $753 45.271942870460492 $756 50.179109745467493 $751 $806 forward 7 unknown #
vertex $-1 $638 $807 #
straight-curve $-1 40.150017481336214 28.138757370986909 5.5585317090421285 0 1 0 I I #
edge $-1 $756 -22.38145097200854 $635 -13.155682046646806 $634 $808 forward 7 unknown #
vertex $-1 $755 $809 #
straight-curve $-1 40.150017481336214 -10.168179908284685 32.854419689923532 0 -0.71933979245794832 0.69465837861970381 I I #
point $-1 40.150017481336214 18.097538896025572 5.5585317090421249 #
point $-1 30.924248555974479 23.179058834557168 0.65136483403512102 #
straight-curve $-1 0 23.179058834557164 5.5585317090421249 -1 0 0 I I #
vertex $-1 $641 $810 #
point $-1 34.06018253464925 19.338180848493344 1.7586366842046575 #
vertex $-1 $645 $811 #
point $-1 38.014083502661428 19.338180848493344 1.7586366842046575 #
coedge $-1 $652 $651 $659 $770 reversed $319 $-1 #
edge $-1 $655 30.466053716612365 $773 47.826166570024718 $652 $812 forward 7 unknown #
straight-curve $-1 30.466053716612365 -23.179058834557164 37.466479046683965 0 0 -1 I I #
point $-1 30.466053716612365 -23.179058834557164 5.5585317090421249 #
straight-curve $-1 19.573055071659272 -23.179058834557164 1.6590204541769931 1 0 0 I I #
edge $-1 $773 -5.5585317090421249 $660 -1.6590204541769935 $659 $813 forward 7 unknown #
point $-1 47.826166570024725 -23.179058834557164 1.6590204541769935 #
point $-1 30.466053716612365 -23.179058834557164 1.6590204541769935 #
vertex $-1 $664 $814 #
straight-curve $-1 47.826166570024718 0 5.5585317090421249 0 1 0 I I #
vertex $-1 $667 $815 #
point $-1 36.42608596044446 -20.012138452661407 2.6037796450783683 #
vertex $-1 $671 $816 #
point $-1 43.866134326192615 -20.012138452661407 2.6037796450783683 #
straight-curve $-1 -47.826166570024718 23.179058834557164 0 0 0 -1 I I #
point $-1 -47.826166570024718 -23.179058834557164 -5.5585317090421249 #
straight-curve $-1 -47.826166570024718 0 -5.5585317090421249 0 1 0 I I #
point $-1 -47.826166570024718 23.179058834557164 -5.5585317090421249 #
straight-curve $-1 -47.826166570024718 0 0.61392439583184144 0 -1 0 I I #
point $-1 -47.826166570024718 -23.179058834557164 0.61392439583184144 #
point $-1 -47.826166570024718 23.179058834557164 0.61392439583184144 #
straight-curve $-1 -47.826166570024718 23.179058834557164 0 0 0 -1 I I #
straight-curve $-1 -47.826166570024718 -23.179058834557164 0 0 0 -1 I I #
straight-curve $-1 -26.787946494630241 23.179058834557164 50.830474579502614 0 0 -1 I I #
point $-1 -26.787946494630241 23.179058834557164 5.5585317090421249 #
straight-curve $-1 -15.700415478655554 23.179058834557161 0.65136483403512813 -1 0 0 I I #
point $-1 -26.787946494630241 23.179058834557168 0.65136483403512102 #
point $-1 -33.377781441317197 18.990851659183491 1.3989667879756835 #
point $-1 -29.423880473305022 18.990851659183491 1.3989667879756835 #
straight-curve $-1 -4.4752918359747573 23.179058834557164 50.830474579502614 0 0 -1 I I #
point $-1 -4.4752918359747573 23.179058834557164 5.5585317090421249 #
straight-curve $-1 -4.5440881493278127 23.179058834557161 0.65136483403512813 -1 0 0 I I #
point $-1 -4.4752918359747573 23.179058834557168 0.65136483403512102 #
point $-1 -11.065126782661714 18.990851659183491 1.3989667879756835 #
point $-1 -7.1112258146495364 18.990851659183491 1.3989667879756835 #
straight-curve $-1 17.837362822680724 23.179058834557164 50.830474579502614 0 0 -1 I I #
point $-1 17.837362822680724 23.179058834557164 5.5585317090421249 #
straight-curve $-1 6.6122391799999285 23.179058834557161 0.65136483403512813 -1 0 0 I I #
point $-1 17.837362822680724 23.179058834557168 0.65136483403512102 #
point $-1 11.247527875993768 18.990851659183491 1.3989667879756835 #
point $-1 15.201428844005946 18.990851659183491 1.3989667879756835 #
straight-curve $-1 40.150017481336214 23.179058834557164 50.830474579502614 0 0 -1 I I #
point $-1 40.150017481336214 23.179058834557164 5.5585317090421249 #
straight-curve $-1 17.768566509327673 23.179058834557161 0.65136483403512813 -1 0 0 I I #
point $-1 40.150017481336214 23.179058834557168 0.65136483403512102 #
point $-1 33.56018253464925 18.990851659183491 1.3989667879756835 #
point $-1 37.514083502661428 18.990851659183491 1.3989667879756835 #
straight-curve $-1 0 -23.179058834557164 5.5585317090421249 1 0 0 I I #
straight-curve $-1 47.826166570024718 -23.179058834557164 0 0 0 -1 I I #
point $-1 47.826166570024718 -23.179058834557164 5.5585317090421249 #
point $-1 35.42608596044446 -19.369350835074361 1.8377352085887027 #
point $-1 42.866134326192615 -19.369350835074361 1.8377352085887027 #
End-of-ACIS-data 