500 0 8 0           
7 Unknown 11 ACIS 5.0 NT 24 Fri Mar 26 00:22:57 1999 
-1 9.9999999999999995e-007 1e-010 
body $-1 $8 $-1 $9 #
body $-1 $10 $-1 $11 #
body $-1 $12 $-1 $13 #
body $-1 $14 $-1 $15 #
body $-1 $16 $-1 $17 #
body $-1 $18 $-1 $19 #
body $-1 $20 $-1 $21 #
body $-1 $22 $-1 $23 #
lump $-1 $-1 $24 $0 #
transform $-1 1 0 0 0 1 0 0 0 1 74.422437208166755 50.893072893407258 24.664665268550571 1 rotate no_reflect no_shear #
lump $-1 $-1 $25 $1 #
transform $-1 1 0 0 0 1 0 0 0 1 74.422437208166755 50.893072893407258 24.664665268550571 1 rotate no_reflect no_shear #
lump $-1 $-1 $26 $2 #
transform $-1 1 0 0 0 1 0 0 0 1 74.422437208166755 50.893072893407258 24.664665268550571 1 rotate no_reflect no_shear #
lump $-1 $-1 $27 $3 #
transform $-1 1 0 0 0 1 0 0 0 1 74.422437208166755 50.893072893407258 24.664665268550571 1 rotate no_reflect no_shear #
lump $-1 $-1 $28 $4 #
transform $-1 1 0 0 0 1 0 0 0 1 74.422437208166755 50.893072893407258 24.664665268550571 1 rotate no_reflect no_shear #
lump $-1 $-1 $29 $5 #
transform $-1 1 0 0 0 1 0 0 0 1 74.422437208166755 50.893072893407258 24.664665268550571 1 rotate no_reflect no_shear #
lump $-1 $-1 $30 $6 #
transform $-1 1 0 0 0 1 0 0 0 1 74.422437208166755 50.893072893407258 24.664665268550571 1 rotate no_reflect no_shear #
lump $-1 $-1 $31 $7 #
transform $-1 1 0 0 0 1 0 0 0 1 74.422437208166755 50.893072893407258 24.664665268550571 1 rotate no_reflect no_shear #
shell $-1 $-1 $-1 $32 $-1 $8 #
shell $-1 $-1 $-1 $33 $-1 $10 #
shell $-1 $-1 $-1 $34 $-1 $12 #
shell $-1 $-1 $-1 $35 $-1 $14 #
shell $-1 $-1 $-1 $36 $-1 $16 #
shell $-1 $-1 $-1 $37 $-1 $18 #
shell $-1 $-1 $-1 $38 $-1 $20 #
shell $-1 $-1 $-1 $39 $-1 $22 #
face $-1 $40 $41 $24 $-1 $42 forward single #
face $-1 $43 $44 $25 $-1 $45 forward single #
face $-1 $46 $47 $26 $-1 $48 reversed single #
face $-1 $49 $50 $27 $-1 $51 forward single #
face $-1 $52 $53 $28 $-1 $54 forward single #
face $-1 $55 $56 $29 $-1 $57 forward single #
face $-1 $58 $59 $30 $-1 $60 reversed single #
face $-1 $61 $62 $31 $-1 $63 forward single #
face $-1 $64 $65 $24 $-1 $66 reversed single #
loop $-1 $-1 $67 $32 #
plane-surface $-1 0 0 24.664665268550571 0 0 1 1 0 0 forward_v I I I I #
face $-1 $68 $69 $25 $-1 $70 reversed single #
loop $-1 $-1 $71 $33 #
plane-surface $-1 -59.964533875364339 0 -5.0532953087325838 0 0 1 1 0 0 forward_v I I I I #
face $-1 $72 $73 $26 $-1 $74 reversed single #
loop $-1 $-1 $75 $34 #
plane-surface $-1 57.257138741900604 52.888657755823523 200.54194300311556 1 0 0 0 -0.57357644374324357 -0.81915203911291934 forward_v I I I I #
face $-1 $76 $77 $27 $-1 $78 forward single #
loop $-1 $79 $80 $35 #
cone-surface $-1 60.690198435153846 46.497333111681328 20.690375722464744 0 -0.57357644374324357 -0.81915203911291934 1.5 0 0 1 I I 0 1 1.5 forward I I I I #
face $-1 $81 $82 $28 $-1 $83 forward single #
loop $-1 $84 $85 $36 #
cone-surface $-1 65.839787975033673 46.497333111681328 20.690375722464744 0 -0.57357644374324357 -0.81915203911291934 1.5 0 0 1 I I 0 1 1.5 forward I I I I #
face $-1 $86 $87 $29 $-1 $88 forward single #
loop $-1 $89 $90 $37 #
cone-surface $-1 70.989377514913528 46.497333111681328 20.690375722464744 0 -0.57357644374324357 -0.81915203911291934 1.5 0 0 1 I I 0 1 1.5 forward I I I I #
face $-1 $91 $92 $30 $-1 $93 reversed single #
loop $-1 $-1 $94 $38 #
plane-surface $-1 -31.429687658682482 -163.22772681618181 115.7870057681553 -1 0 0 0 -0.75470958851134928 0.65605901945558964 forward_v I I I I #
face $-1 $95 $96 $31 $-1 $97 forward single #
loop $-1 $98 $99 $39 #
cone-surface $-1 -38.468159100622202 -46.96965585404115 20.456479915122625 0 0.75470958851134928 -0.65605901945558964 1.5 0 0 1 I I 0 1 1.5 forward I I I I #
face $-1 $100 $101 $24 $-1 $102 reversed single #
loop $-1 $-1 $103 $40 #
plane-surface $-1 0 0 -24.664665268550571 0 0 1 1 0 0 forward_v I I I I #
coedge $-1 $104 $105 $106 $107 forward $41 $-1 #
face $-1 $108 $109 $25 $-1 $110 reversed single #
loop $-1 $-1 $111 $43 #
plane-surface $-1 -59.964533875364339 0 -15.006628505120542 0 0 1 1 0 0 forward_v I I I I #
coedge $-1 $112 $113 $114 $115 forward $44 $-1 #
face $-1 $116 $117 $26 $-1 $118 forward single #
loop $-1 $-1 $119 $46 #
plane-surface $-1 65.839787975033673 -32.485255981306743 78.615360613469562 0 0.57357644374324357 0.81915203911291934 1 0 0 forward_v I I I I #
coedge $-1 $120 $121 $122 $123 reversed $47 $-1 #
face $-1 $-1 $124 $27 $-1 $125 forward single #
loop $-1 $126 $127 $49 #
cone-surface $-1 60.690198435153846 44.835787164841257 18.317442235950921 0 -0.57357644374324357 -0.81915203911291934 0.75 0 0 1 I I -0.70710678118654757 0.70710678118654757 0.75 forward I I I I #
loop $-1 $-1 $128 $35 #
coedge $-1 $80 $80 $129 $130 reversed $50 $-1 #
face $-1 $-1 $131 $28 $-1 $132 forward single #
loop $-1 $133 $134 $52 #
cone-surface $-1 65.839787975033673 44.835787164841257 18.317442235950921 0 -0.57357644374324357 -0.81915203911291934 0.75 0 0 1 I I -0.70710678118654757 0.70710678118654757 0.75 forward I I I I #
loop $-1 $-1 $135 $36 #
coedge $-1 $85 $85 $136 $137 reversed $53 $-1 #
face $-1 $-1 $138 $29 $-1 $139 forward single #
loop $-1 $140 $141 $55 #
cone-surface $-1 70.989377514913528 44.835787164841257 18.317442235950921 0 -0.57357644374324357 -0.81915203911291934 0.75 0 0 1 I I -0.70710678118654757 0.70710678118654757 0.75 forward I I I I #
loop $-1 $-1 $142 $37 #
coedge $-1 $90 $90 $143 $144 reversed $56 $-1 #
face $-1 $145 $146 $30 $-1 $147 reversed single #
loop $-1 $-1 $148 $58 #
plane-surface $-1 -38.468159100622202 -50.893072893407293 18.135983407585158 0 -0.75470958851134928 0.65605901945558964 1 0 0 forward_v I I I I #
coedge $-1 $149 $150 $151 $152 reversed $59 $-1 #
face $-1 $-1 $153 $31 $-1 $154 forward single #
loop $-1 $155 $156 $61 #
cone-surface $-1 -38.468159100622202 -45.317854829465119 19.020591227585705 0 0.75470958851134928 -0.65605901945558964 0.75 0 0 1 I I -0.70710678118654757 0.70710678118654757 0.75 forward I I I I #
loop $-1 $-1 $157 $39 #
coedge $-1 $99 $99 $158 $159 reversed $62 $-1 #
face $-1 $160 $161 $24 $-1 $162 reversed single #
loop $-1 $-1 $163 $64 #
plane-surface $-1 0 -50.893072893407258 0 0 1 0 0 0 1 forward_v I I I I #
coedge $-1 $164 $165 $166 $167 forward $65 $-1 #
coedge $-1 $168 $67 $169 $170 forward $41 $-1 #
coedge $-1 $67 $168 $171 $172 forward $41 $-1 #
coedge $-1 $173 $174 $67 $107 reversed $175 $-1 #
edge $-1 $176 -50.893072893407258 $177 50.893072893407258 $106 $178 forward 7 unknown #
face $-1 $179 $180 $25 $-1 $181 reversed single #
loop $-1 $-1 $182 $68 #
plane-surface $-1 -45.506630542561922 0 -10.029961906926562 -1 0 0 0 0 1 forward_v I I I I #
coedge $-1 $183 $184 $185 $186 forward $69 $-1 #
coedge $-1 $187 $71 $188 $189 reversed $44 $-1 #
coedge $-1 $71 $187 $190 $191 reversed $44 $-1 #
coedge $-1 $182 $192 $71 $115 reversed $109 $-1 #
edge $-1 $193 -50.893072893407258 $194 50.893072893407258 $114 $195 forward 7 unknown #
face $-1 $196 $197 $26 $-1 $198 reversed single #
loop $-1 $-1 $122 $72 #
plane-surface $-1 0 0 24.664665268550571 0 0 1 1 0 0 forward_v I I I I #
coedge $-1 $199 $200 $201 $202 reversed $73 $-1 #
coedge $-1 $121 $75 $203 $204 reversed $47 $-1 #
coedge $-1 $75 $120 $199 $205 reversed $47 $-1 #
coedge $-1 $201 $206 $75 $123 forward $117 $-1 #
edge $-1 $207 -24.448744015495496 $208 -18.119991680108914 $122 $209 forward 7 unknown #
loop $-1 $-1 $129 $76 #
plane-surface $-1 65.839787975033673 -32.485255981306743 78.615360613469562 0 0.57357644374324357 0.81915203911291934 1 0 0 forward_v I I I I #
loop $-1 $-1 $210 $49 #
coedge $-1 $127 $127 $128 $211 reversed $77 $-1 #
coedge $-1 $128 $128 $127 $211 forward $79 $-1 #
coedge $-1 $129 $129 $80 $130 forward $124 $-1 #
edge $-1 $212 2.5217816208154765e-015 $212 6.2831853071796031 $129 $213 forward 7 unknown #
loop $-1 $-1 $136 $81 #
plane-surface $-1 65.839787975033673 -32.485255981306743 78.615360613469562 0 0.57357644374324357 0.81915203911291934 1 0 0 forward_v I I I I #
loop $-1 $-1 $214 $52 #
coedge $-1 $134 $134 $135 $215 reversed $82 $-1 #
coedge $-1 $135 $135 $134 $215 forward $84 $-1 #
coedge $-1 $136 $136 $85 $137 forward $131 $-1 #
edge $-1 $216 2.5217816208154765e-015 $216 6.2831853071796031 $136 $217 forward 7 unknown #
loop $-1 $-1 $143 $86 #
plane-surface $-1 65.839787975033673 -32.485255981306743 78.615360613469562 0 0.57357644374324357 0.81915203911291934 1 0 0 forward_v I I I I #
loop $-1 $-1 $218 $55 #
coedge $-1 $141 $141 $142 $219 reversed $87 $-1 #
coedge $-1 $142 $142 $141 $219 forward $89 $-1 #
coedge $-1 $143 $143 $90 $144 forward $138 $-1 #
edge $-1 $220 2.5217816208154765e-015 $220 6.2831853071796031 $143 $221 forward 7 unknown #
face $-1 $222 $223 $30 $-1 $224 reversed single #
loop $-1 $-1 $225 $91 #
plane-surface $-1 -45.506630542561922 -163.22772681618181 115.7870057681553 1 0 0 0 0.75470958851134928 -0.65605901945558964 forward_v I I I I #
coedge $-1 $226 $227 $228 $229 reversed $92 $-1 #
coedge $-1 $150 $94 $230 $231 reversed $59 $-1 #
coedge $-1 $94 $149 $226 $232 reversed $59 $-1 #
coedge $-1 $228 $233 $94 $152 forward $234 $-1 #
edge $-1 $235 30.72079051468365 $236 36.39608692703078 $151 $237 forward 7 unknown #
loop $-1 $-1 $158 $95 #
plane-surface $-1 -38.468159100622202 -50.893072893407293 18.135983407585158 0 -0.75470958851134928 0.65605901945558964 1 0 0 forward_v I I I I #
loop $-1 $-1 $238 $61 #
coedge $-1 $156 $156 $157 $239 reversed $96 $-1 #
coedge $-1 $157 $157 $156 $239 forward $98 $-1 #
coedge $-1 $158 $158 $99 $159 forward $153 $-1 #
edge $-1 $240 1.2385079307958872e-015 $240 6.2831853071796013 $158 $241 forward 7 unknown #
face $-1 $242 $243 $24 $-1 $244 reversed single #
loop $-1 $-1 $245 $100 #
plane-surface $-1 -74.422437208166755 0 0 1 0 0 0 0 -1 forward_v I I I I #
coedge $-1 $246 $171 $247 $248 forward $101 $-1 #
coedge $-1 $249 $103 $246 $250 forward $65 $-1 #
coedge $-1 $103 $249 $251 $252 forward $65 $-1 #
coedge $-1 $174 $173 $103 $167 reversed $175 $-1 #
edge $-1 $253 -50.893072893407258 $254 50.893072893407258 $166 $255 forward 7 unknown #
coedge $-1 $105 $104 $256 $257 forward $41 $-1 #
coedge $-1 $258 $259 $104 $170 reversed $243 $-1 #
edge $-1 $177 -74.422437208166755 $260 74.422437208166755 $169 $261 forward 7 unknown #
coedge $-1 $163 $262 $105 $172 reversed $101 $-1 #
edge $-1 $263 -74.422437208166755 $176 74.422437208166755 $171 $264 forward 7 unknown #
coedge $-1 $166 $106 $262 $265 forward $175 $-1 #
coedge $-1 $106 $166 $258 $266 reversed $175 $-1 #
loop $-1 $-1 $173 $242 #
vertex $-1 $107 $267 #
vertex $-1 $107 $268 #
straight-curve $-1 74.422437208166755 0 24.664665268550571 0 1 0 I I #
face $-1 $269 $270 $25 $-1 $271 reversed single #
loop $-1 $-1 $272 $108 #
plane-surface $-1 0 -50.893072893407258 0 0 1 0 0 0 1 forward_v I I I I #
coedge $-1 $185 $114 $273 $274 reversed $109 $-1 #
coedge $-1 $275 $111 $272 $276 reversed $69 $-1 #
coedge $-1 $111 $275 $277 $278 reversed $69 $-1 #
coedge $-1 $192 $182 $111 $186 reversed $109 $-1 #
edge $-1 $279 -50.893072893407258 $280 50.893072893407258 $185 $281 forward 7 unknown #
coedge $-1 $113 $112 $282 $283 reversed $44 $-1 #
coedge $-1 $284 $285 $112 $189 forward $286 $-1 #
edge $-1 $287 -44.440170270484586 $194 -15.524363604879753 $188 $288 forward 7 unknown #
coedge $-1 $289 $273 $113 $191 forward $180 $-1 #
edge $-1 $193 15.524363604879753 $290 44.440170270484586 $190 $291 forward 7 unknown #
coedge $-1 $114 $185 $284 $292 reversed $109 $-1 #
vertex $-1 $191 $293 #
vertex $-1 $189 $294 #
straight-curve $-1 -45.506630542561922 0 -5.0532953087325838 0 1 0 I I #
face $-1 $-1 $295 $26 $-1 $296 reversed single #
loop $-1 $-1 $297 $116 #
plane-surface $-1 74.422437208166755 0 0 -1 0 0 0 0 1 forward_v I I I I #
coedge $-1 $298 $119 $121 $205 forward $73 $-1 #
coedge $-1 $119 $298 $297 $299 reversed $73 $-1 #
coedge $-1 $300 $122 $119 $202 forward $117 $-1 #
edge $-1 $208 24.337244754383768 $301 41.502543220649905 $201 $302 forward 7 unknown #
coedge $-1 $303 $304 $120 $204 forward $295 $-1 #
edge $-1 $305 -80.037746410820631 $207 -75.606306233007217 $203 $306 forward 7 unknown #
edge $-1 $208 94.060165708390798 $305 101.78614578681453 $121 $307 forward 7 unknown #
coedge $-1 $122 $300 $303 $308 forward $117 $-1 #
vertex $-1 $204 $309 #
vertex $-1 $123 $310 #
straight-curve $-1 57.257138741900604 26.444328877911762 24.664665268550579 0 -1 0 I I #
coedge $-1 $210 $210 $-1 $311 reversed $126 $-1 #
edge $-1 $312 0 $312 6.2831853071796004 $127 $313 forward 7 unknown #
vertex $-1 $130 $314 #
ellipse-curve $-1 60.690198435153846 47.728696725713966 22.448945179643868 0 0.57357644374324357 0.81915203911291934 1.5 0 0 1 I I #
coedge $-1 $214 $214 $-1 $315 reversed $133 $-1 #
edge $-1 $316 0 $316 6.2831853071796004 $134 $317 forward 7 unknown #
vertex $-1 $137 $318 #
ellipse-curve $-1 65.839787975033673 47.728696725713966 22.448945179643868 0 0.57357644374324357 0.81915203911291934 1.5 0 0 1 I I #
coedge $-1 $218 $218 $-1 $319 reversed $140 $-1 #
edge $-1 $320 0 $320 6.2831853071796004 $141 $321 forward 7 unknown #
vertex $-1 $144 $322 #
ellipse-curve $-1 70.989377514913528 47.728696725713966 22.448945179643868 0 0.57357644374324357 0.81915203911291934 1.5 0 0 1 I I #
face $-1 $-1 $234 $30 $-1 $323 forward single #
loop $-1 $-1 $324 $145 #
plane-surface $-1 0 -50.893072893407258 0 0 1 0 0 0 1 forward_v I I I I #
coedge $-1 $325 $326 $327 $328 reversed $146 $-1 #
coedge $-1 $329 $148 $150 $232 forward $92 $-1 #
coedge $-1 $148 $329 $325 $330 forward $92 $-1 #
coedge $-1 $327 $151 $148 $229 forward $234 $-1 #
edge $-1 $236 12.195608108371381 $331 26.272550992250821 $228 $332 forward 7 unknown #
coedge $-1 $333 $334 $149 $231 forward $223 $-1 #
edge $-1 $335 -39.757519476492448 $235 -33.228837615527077 $230 $336 forward 7 unknown #
edge $-1 $236 -8.6505882002150276 $335 -5.5483103468717204e-014 $150 $337 forward 7 unknown #
coedge $-1 $151 $327 $333 $338 forward $234 $-1 #
loop $-1 $-1 $327 $222 #
vertex $-1 $231 $339 #
vertex $-1 $152 $340 #
straight-curve $-1 -31.429687658682482 -81.613863408090907 24.664665268550571 0 1 0 I I #
coedge $-1 $238 $238 $-1 $341 reversed $155 $-1 #
edge $-1 $342 0 $342 6.2831853071796004 $156 $343 forward 7 unknown #
vertex $-1 $159 $344 #
ellipse-curve $-1 -38.468159100622202 -48.055424687233703 21.400324338067879 0 -0.75470958851134928 0.65605901945558964 1.5 0 0 1 I I #
face $-1 $-1 $175 $24 $-1 $345 reversed single #
loop $-1 $-1 $258 $160 #
plane-surface $-1 0 50.893072893407258 0 0 -1 0 0 0 -1 forward_v I I I I #
coedge $-1 $346 $256 $259 $347 forward $161 $-1 #
coedge $-1 $262 $163 $164 $250 reversed $101 $-1 #
coedge $-1 $256 $346 $163 $248 reversed $161 $-1 #
edge $-1 $263 -24.664665268550571 $348 24.664665268550571 $247 $349 forward 7 unknown #
coedge $-1 $165 $164 $346 $350 forward $65 $-1 #
edge $-1 $254 -74.422437208166755 $348 74.422437208166755 $246 $351 forward 7 unknown #
coedge $-1 $259 $258 $165 $252 reversed $243 $-1 #
edge $-1 $352 -74.422437208166755 $253 74.422437208166755 $251 $353 forward 7 unknown #
vertex $-1 $167 $354 #
vertex $-1 $265 $355 #
straight-curve $-1 74.422437208166755 0 -24.664665268550571 0 -1 0 I I #
coedge $-1 $245 $247 $168 $257 reversed $161 $-1 #
edge $-1 $260 -50.893072893407258 $263 50.893072893407258 $256 $356 forward 7 unknown #
coedge $-1 $251 $169 $174 $266 forward $243 $-1 #
coedge $-1 $169 $251 $245 $347 reversed $243 $-1 #
vertex $-1 $170 $357 #
straight-curve $-1 0 50.893072893407258 24.664665268550571 -1 0 0 I I #
coedge $-1 $171 $246 $173 $265 reversed $101 $-1 #
vertex $-1 $257 $358 #
straight-curve $-1 0 -50.893072893407258 24.664665268550571 1 0 0 I I #
edge $-1 $176 -24.664665268550571 $254 24.664665268550571 $173 $359 forward 7 unknown #
edge $-1 $177 -24.664665268550571 $253 24.664665268550571 $174 $360 forward 7 unknown #
point $-1 74.422437208166755 -50.893072893407258 24.664665268550571 #
point $-1 74.422437208166755 50.893072893407258 24.664665268550571 #
face $-1 $-1 $286 $25 $-1 $361 reversed single #
loop $-1 $-1 $362 $179 #
plane-surface $-1 -74.422437208166755 0 0 1 0 0 0 0 -1 forward_v I I I I #
coedge $-1 $273 $289 $183 $276 forward $180 $-1 #
coedge $-1 $190 $272 $182 $274 forward $180 $-1 #
edge $-1 $280 -9.9916475516572607 $193 -0.038314355269302602 $273 $363 forward 7 unknown #
coedge $-1 $184 $183 $362 $364 reversed $69 $-1 #
edge $-1 $365 -44.440170270484586 $280 -15.524363604879753 $272 $366 forward 7 unknown #
coedge $-1 $285 $284 $184 $278 forward $286 $-1 #
edge $-1 $279 15.524363604879753 $367 44.440170270484586 $277 $368 forward 7 unknown #
vertex $-1 $278 $369 #
vertex $-1 $276 $370 #
straight-curve $-1 -45.506630542561922 0 -15.006628505120542 0 -1 0 I I #
coedge $-1 $371 $372 $187 $283 forward $270 $-1 #
edge $-1 $290 -50.893072893407258 $287 50.893072893407258 $282 $373 forward 7 unknown #
coedge $-1 $277 $188 $192 $292 forward $286 $-1 #
coedge $-1 $188 $277 $371 $374 reversed $286 $-1 #
loop $-1 $-1 $277 $269 #
vertex $-1 $374 $375 #
straight-curve $-1 -29.982266937682169 50.893072893407258 -5.0532953087325838 1 0 0 I I #
coedge $-1 $272 $190 $372 $376 forward $180 $-1 #
vertex $-1 $376 $377 #
straight-curve $-1 -29.982266937682169 -50.893072893407258 -5.0532953087325838 -1 0 0 I I #
edge $-1 $194 0.038314355269302602 $279 9.9916475516572607 $284 $378 forward 7 unknown #
point $-1 -45.506630542561922 -50.893072893407258 -5.0532953087325838 #
point $-1 -45.506630542561922 50.893072893407258 -5.0532953087325838 #
loop $-1 $-1 $203 $196 #
plane-surface $-1 0 50.893072893407258 0 0 -1 0 0 0 -1 forward_v I I I I #
coedge $-1 $379 $380 $200 $299 forward $197 $-1 #
coedge $-1 $200 $199 $304 $381 reversed $73 $-1 #
edge $-1 $301 58.209024387161257 $382 65.935004465584967 $297 $383 forward 7 unknown #
coedge $-1 $206 $201 $380 $384 forward $117 $-1 #
vertex $-1 $384 $385 #
straight-curve $-1 32.919893987516836 44.564320558020682 24.664665268550579 1 0 0 I I #
coedge $-1 $386 $203 $206 $308 reversed $295 $-1 #
coedge $-1 $203 $386 $298 $381 forward $295 $-1 #
vertex $-1 $204 $387 #
straight-curve $-1 57.257138741900604 50.893072893407258 100.27097150155778 0 0 1 I I #
straight-curve $-1 57.257138741900604 -32.485255981306743 78.615360613469562 0 0.81915203911291934 -0.57357644374324357 I I #
edge $-1 $388 -74.422437208166755 $207 -57.257138741900604 $303 $389 forward 7 unknown #
point $-1 57.257138741900604 50.893072893407258 24.664665268550571 #
point $-1 57.257138741900604 44.564320558020675 24.664665268550571 #
edge $-1 $390 1 $390 0 $210 $-1 forward 7 unknown #
vertex $-1 $211 $391 #
ellipse-curve $-1 60.690198435153846 45.26596949764869 18.931806265285609 0 0.57357644374324357 0.81915203911291934 1.5 0 0 1 I I #
point $-1 62.190198435153846 47.728696725713974 22.448945179643871 #
edge $-1 $392 1 $392 0 $214 $-1 forward 7 unknown #
vertex $-1 $215 $393 #
ellipse-curve $-1 65.839787975033673 45.26596949764869 18.931806265285609 0 0.57357644374324357 0.81915203911291934 1.5 0 0 1 I I #
point $-1 67.339787975033673 47.728696725713974 22.448945179643871 #
edge $-1 $394 1 $394 0 $218 $-1 forward 7 unknown #
vertex $-1 $219 $395 #
ellipse-curve $-1 70.989377514913528 45.26596949764869 18.931806265285609 0 0.57357644374324357 0.81915203911291934 1.5 0 0 1 I I #
point $-1 72.489377514913528 47.728696725713974 22.448945179643871 #
plane-surface $-1 0 0 24.664665268550571 0 0 1 1 0 0 forward_v I I I I #
coedge $-1 $334 $333 $326 $396 forward $223 $-1 #
coedge $-1 $326 $225 $227 $330 reversed $146 $-1 #
coedge $-1 $225 $325 $324 $396 reversed $146 $-1 #
coedge $-1 $233 $228 $225 $328 forward $234 $-1 #
edge $-1 $331 -36.39608692703078 $397 -30.72079051468365 $327 $398 forward 7 unknown #
coedge $-1 $227 $226 $334 $399 reversed $92 $-1 #
edge $-1 $400 5.5483103468717204e-014 $331 8.6505882002150276 $325 $401 forward 7 unknown #
vertex $-1 $229 $402 #
straight-curve $-1 -19.234079550311101 -45.217776481060135 24.664665268550571 -1 0 0 I I #
coedge $-1 $324 $230 $233 $338 reversed $223 $-1 #
coedge $-1 $230 $324 $329 $399 forward $223 $-1 #
vertex $-1 $231 $403 #
straight-curve $-1 -31.429687658682482 -50.893072893407258 57.893502884077648 0 0 1 I I #
straight-curve $-1 -31.429687658682482 -50.893072893407293 18.135983407585158 0 -0.65605901945558964 -0.75470958851134928 I I #
edge $-1 $397 -45.506630542561922 $235 -31.429687658682482 $333 $404 forward 7 unknown #
point $-1 -31.429687658682482 -50.893072893407258 24.664665268550571 #
point $-1 -31.429687658682482 -45.217776481060127 24.664665268550571 #
edge $-1 $405 1 $405 0 $238 $-1 forward 7 unknown #
vertex $-1 $239 $406 #
ellipse-curve $-1 -38.468159100622202 -45.883887020848633 19.512635492177395 0 -0.75470958851134928 0.65605901945558964 1.5 0 0 1 I I #
point $-1 -36.968159100622202 -48.055424687233668 21.400324338067851 #
plane-surface $-1 74.422437208166755 0 0 -1 0 0 0 0 1 forward_v I I I I #
coedge $-1 $247 $245 $249 $350 reversed $161 $-1 #
edge $-1 $260 -24.664665268550571 $352 24.664665268550571 $259 $407 forward 7 unknown #
vertex $-1 $350 $408 #
straight-curve $-1 -74.422437208166755 -50.893072893407258 0 0 0 -1 I I #
edge $-1 $348 -50.893072893407258 $352 50.893072893407258 $346 $409 forward 7 unknown #
straight-curve $-1 0 -50.893072893407258 -24.664665268550571 -1 0 0 I I #
vertex $-1 $252 $410 #
straight-curve $-1 0 50.893072893407258 -24.664665268550571 1 0 0 I I #
point $-1 74.422437208166755 50.893072893407258 -24.664665268550571 #
point $-1 74.422437208166755 -50.893072893407258 -24.664665268550571 #
straight-curve $-1 -74.422437208166755 0 24.664665268550571 0 -1 0 I I #
point $-1 -74.422437208166755 50.893072893407258 24.664665268550571 #
point $-1 -74.422437208166755 -50.893072893407258 24.664665268550571 #
straight-curve $-1 74.422437208166755 -50.893072893407258 0 0 0 -1 I I #
straight-curve $-1 74.422437208166755 50.893072893407258 0 0 0 -1 I I #
plane-surface $-1 0 50.893072893407258 0 0 -1 0 0 0 -1 forward_v I I I I #
coedge $-1 $372 $371 $275 $364 forward $270 $-1 #
straight-curve $-1 -45.506630542561922 -50.893072893407258 -5.0149809534632812 0 0 1 I I #
edge $-1 $367 -50.893072893407258 $365 50.893072893407258 $362 $411 forward 7 unknown #
vertex $-1 $276 $412 #
straight-curve $-1 -29.982266937682169 -50.893072893407258 -15.006628505120542 1 0 0 I I #
vertex $-1 $278 $413 #
straight-curve $-1 -29.982266937682169 50.893072893407258 -15.006628505120542 -1 0 0 I I #
point $-1 -45.506630542561922 50.893072893407258 -15.006628505120542 #
point $-1 -45.506630542561922 -50.893072893407258 -15.006628505120542 #
coedge $-1 $362 $282 $285 $374 forward $270 $-1 #
coedge $-1 $282 $362 $289 $376 reversed $270 $-1 #
straight-curve $-1 -74.422437208166755 0 -5.0532953087325838 0 1 0 I I #
edge $-1 $287 5.0532953087325838 $367 15.006628505120542 $285 $414 forward 7 unknown #
point $-1 -74.422437208166755 50.893072893407258 -5.0532953087325838 #
edge $-1 $290 5.0532953087325838 $365 15.006628505120542 $372 $415 forward 7 unknown #
point $-1 -74.422437208166755 -50.893072893407258 -5.0532953087325838 #
straight-curve $-1 -45.506630542561922 50.893072893407258 -5.0149809534632812 0 0 -1 I I #
coedge $-1 $380 $297 $386 $416 reversed $197 $-1 #
coedge $-1 $297 $379 $300 $384 reversed $197 $-1 #
edge $-1 $382 -41.502543220649905 $305 -24.337244754383768 $304 $417 forward 7 unknown #
vertex $-1 $299 $418 #
straight-curve $-1 74.422437208166755 -3.1177204634961111 58.051990470302265 0 0.81915203911291934 -0.57357644374324357 I I #
edge $-1 $301 44.564320558020675 $388 50.893072893407258 $380 $419 forward 7 unknown #
point $-1 74.422437208166741 44.564320558020675 24.664665268550571 #
coedge $-1 $304 $303 $379 $416 forward $295 $-1 #
point $-1 57.257138741900604 50.893072893407258 20.23322509073715 #
vertex $-1 $384 $420 #
straight-curve $-1 0 50.893072893407258 24.664665268550571 -1 0 0 I I #
vertex $-1 $311 $421 #
point $-1 62.190198435153846 45.26596949764869 18.931806265285609 #
vertex $-1 $315 $422 #
point $-1 67.339787975033673 45.26596949764869 18.931806265285609 #
vertex $-1 $319 $423 #
point $-1 72.489377514913528 45.26596949764869 18.931806265285609 #
edge $-1 $397 33.228837615527077 $400 39.757519476492448 $324 $424 forward 7 unknown #
vertex $-1 $338 $425 #
straight-curve $-1 -45.506630542561922 -81.613863408090907 24.664665268550571 0 -1 0 I I #
edge $-1 $400 -26.272550992250821 $335 -12.195608108371381 $334 $426 forward 7 unknown #
vertex $-1 $399 $427 #
straight-curve $-1 -45.506630542561922 -50.893072893407293 18.135983407585158 0 0.65605901945558964 0.75470958851134928 I I #
point $-1 -45.506630542561922 -45.217776481060127 24.664665268550571 #
point $-1 -31.429687658682482 -50.893072893407258 18.135983407585201 #
straight-curve $-1 0 -50.893072893407258 24.664665268550571 1 0 0 I I #
vertex $-1 $341 $428 #
point $-1 -36.968159100622202 -45.883887020848633 19.512635492177395 #
straight-curve $-1 -74.422437208166755 50.893072893407258 0 0 0 -1 I I #
point $-1 -74.422437208166755 -50.893072893407258 -24.664665268550571 #
straight-curve $-1 -74.422437208166755 0 -24.664665268550571 0 1 0 I I #
point $-1 -74.422437208166755 50.893072893407258 -24.664665268550571 #
straight-curve $-1 -74.422437208166755 0 -15.006628505120542 0 -1 0 I I #
point $-1 -74.422437208166755 -50.893072893407258 -15.006628505120542 #
point $-1 -74.422437208166755 50.893072893407258 -15.006628505120542 #
straight-curve $-1 -74.422437208166755 50.893072893407258 0 0 0 -1 I I #
straight-curve $-1 -74.422437208166755 -50.893072893407258 0 0 0 -1 I I #
edge $-1 $388 -24.664665268550571 $382 -20.23322509073715 $379 $429 forward 7 unknown #
straight-curve $-1 32.919893987516836 50.893072893407258 20.233225090737157 -1 0 0 I I #
point $-1 74.422437208166741 50.893072893407258 20.23322509073715 #
straight-curve $-1 74.422437208166755 0 24.664665268550571 0 1 0 I I #
point $-1 74.422437208166755 50.893072893407258 24.664665268550571 #
point $-1 60.690198435153846 44.405604832033823 17.703078206616233 #
point $-1 65.839787975033673 44.405604832033823 17.703078206616233 #
point $-1 70.989377514913528 44.405604832033823 17.703078206616233 #
straight-curve $-1 -45.506630542561922 -50.893072893407258 57.893502884077648 0 0 -1 I I #
point $-1 -45.506630542561922 -50.893072893407258 24.664665268550571 #
straight-curve $-1 -19.234079550311101 -50.893072893407258 18.135983407585201 1 0 0 I I #
point $-1 -45.506630542561922 -50.893072893407258 18.135983407585201 #
point $-1 -38.468159100622202 -44.751822638081606 18.528546962994014 #
straight-curve $-1 74.422437208166755 50.893072893407258 0 0 0 -1 I I #
End-of-ACIS-data 