500 0 9 0           
7 Unknown 11 ACIS 5.0 NT 24 Thu Mar 25 21:50:10 1999 
-1 9.9999999999999995e-007 1e-010 
body $-1 $9 $-1 $10 #
body $-1 $11 $-1 $12 #
body $-1 $13 $-1 $14 #
body $-1 $15 $-1 $16 #
body $-1 $17 $-1 $18 #
body $-1 $19 $-1 $20 #
body $-1 $21 $-1 $22 #
body $-1 $23 $-1 $24 #
body $-1 $25 $-1 $26 #
lump $-1 $-1 $27 $0 #
transform $-1 1 0 0 0 1 0 0 0 1 66.936857203894164 33.31623902518723 8.1362308512665411 1 rotate no_reflect no_shear #
lump $-1 $-1 $28 $1 #
transform $-1 1 0 0 0 1 0 0 0 1 66.936857203894164 33.31623902518723 8.1362308512665411 1 rotate no_reflect no_shear #
lump $-1 $-1 $29 $2 #
transform $-1 1 0 0 0 1 0 0 0 1 66.936857203894164 33.31623902518723 8.1362308512665411 1 rotate no_reflect no_shear #
lump $-1 $-1 $30 $3 #
transform $-1 1 0 0 0 1 0 0 0 1 66.936857203894164 33.31623902518723 8.1362308512665411 1 rotate no_reflect no_shear #
lump $-1 $-1 $31 $4 #
transform $-1 1 0 0 0 1 0 0 0 1 66.936857203894164 33.31623902518723 8.1362308512665411 1 rotate no_reflect no_shear #
lump $-1 $-1 $32 $5 #
transform $-1 1 0 0 0 1 0 0 0 1 66.936857203894164 33.31623902518723 8.1362308512665411 1 rotate no_reflect no_shear #
lump $-1 $-1 $33 $6 #
transform $-1 1 0 0 0 1 0 0 0 1 66.936857203894164 33.31623902518723 8.1362308512665411 1 rotate no_reflect no_shear #
lump $-1 $-1 $34 $7 #
transform $-1 1 0 0 0 1 0 0 0 1 66.936857203894164 33.31623902518723 8.1362308512665411 1 rotate no_reflect no_shear #
lump $-1 $-1 $35 $8 #
transform $-1 1 0 0 0 1 0 0 0 1 66.936857203894164 33.31623902518723 8.1362308512665411 1 rotate no_reflect no_shear #
shell $-1 $-1 $-1 $36 $-1 $9 #
shell $-1 $-1 $-1 $37 $-1 $11 #
shell $-1 $-1 $-1 $38 $-1 $13 #
shell $-1 $-1 $-1 $39 $-1 $15 #
shell $-1 $-1 $-1 $40 $-1 $17 #
shell $-1 $-1 $-1 $41 $-1 $19 #
shell $-1 $-1 $-1 $42 $-1 $21 #
shell $-1 $-1 $-1 $43 $-1 $23 #
shell $-1 $-1 $-1 $44 $-1 $25 #
face $-1 $45 $46 $27 $-1 $47 forward single #
face $-1 $48 $49 $28 $-1 $50 reversed single #
face $-1 $51 $52 $29 $-1 $53 reversed single #
face $-1 $54 $55 $30 $-1 $56 reversed single #
face $-1 $57 $58 $31 $-1 $59 forward single #
face $-1 $60 $61 $32 $-1 $62 reversed single #
face $-1 $63 $64 $33 $-1 $65 forward single #
face $-1 $66 $67 $34 $-1 $68 reversed single #
face $-1 $69 $70 $35 $-1 $71 forward single #
face $-1 $72 $73 $27 $-1 $74 reversed single #
loop $-1 $-1 $75 $36 #
plane-surface $-1 0 0 8.1362308512665411 0 0 1 1 0 0 forward_v I I I I #
face $-1 $76 $77 $28 $-1 $78 reversed single #
loop $-1 $-1 $79 $37 #
plane-surface $-1 0 -28.839645926157417 5.1362308512665411 0 0 1 1 0 0 forward_v I I I I #
face $-1 $80 $81 $29 $-1 $82 reversed single #
loop $-1 $-1 $83 $38 #
plane-surface $-1 0 28.839645926157417 5.1362308512665411 0 0 1 1 0 0 forward_v I I I I #
face $-1 $84 $85 $30 $-1 $86 reversed single #
loop $-1 $-1 $87 $39 #
plane-surface $-1 112.73897026265925 0 183.89973500526327 0 -1 0 -0.85716730853699208 0 -0.51503806187062418 forward_v I I I I #
face $-1 $88 $89 $31 $-1 $90 forward single #
loop $-1 $91 $92 $40 #
cone-surface $-1 63.238238825614232 -3.8584562500357649 3.3775867436817784 -0.85716730853699208 0 -0.51503806187062418 0.51503806187062418 0 -0.85716730853699208 1 I I 0 1 1 forward I I I I #
face $-1 $93 $94 $32 $-1 $95 reversed single #
loop $-1 $-1 $96 $41 #
plane-surface $-1 -2.013201200114608 -3.8584562500357684 114.94967660125451 0.85716730853699208 0 0.51503806187062418 0.51503806187062418 0 -0.85716730853699208 forward_v I I I I #
face $-1 $97 $98 $33 $-1 $99 forward single #
loop $-1 $100 $101 $42 #
cone-surface $-1 63.238238825614232 3.858456250035772 3.3775867436817784 -0.85716730853699208 0 -0.51503806187062418 0.51503806187062418 0 -0.85716730853699208 1 I I 0 1 1 forward I I I I #
face $-1 $102 $103 $34 $-1 $104 reversed single #
loop $-1 $-1 $105 $43 #
plane-surface $-1 -173.85316049285308 -5.3540454178088197 83.322564506653336 0 1 0 -0.79863551827123203 0 0.60181501223851219 forward_v I I I I #
face $-1 $106 $107 $35 $-1 $108 forward single #
loop $-1 $109 $110 $44 #
cone-surface $-1 -62.768015569693965 -0.1947876820859733 3.8320933351609572 0.79863551827123203 0 -0.60181501223851219 0.90272251835776829 0 1.197953277406848 1 I I 0 1 1.5 forward I I I I #
face $-1 $111 $112 $27 $-1 $113 reversed single #
loop $-1 $-1 $114 $45 #
plane-surface $-1 0 0 -8.1362308512665411 0 0 1 1 0 0 forward_v I I I I #
coedge $-1 $115 $116 $117 $118 forward $46 $-1 #
face $-1 $119 $120 $28 $-1 $121 reversed single #
loop $-1 $-1 $122 $48 #
plane-surface $-1 0 -24.363052827127603 6.6362308512665411 0 -1 0 0 0 -1 forward_v I I I I #
coedge $-1 $123 $124 $125 $126 reversed $49 $-1 #
face $-1 $127 $128 $29 $-1 $129 forward single #
loop $-1 $-1 $130 $51 #
plane-surface $-1 0 24.363052827127603 6.6362308512665411 0 1 0 0 0 1 forward_v I I I I #
coedge $-1 $131 $132 $133 $134 reversed $52 $-1 #
face $-1 $135 $136 $30 $-1 $137 reversed single #
loop $-1 $-1 $138 $54 #
plane-surface $-1 -2.013201200114608 -3.8584562500357684 114.94967660125451 0.85716730853699208 0 0.51503806187062418 0.51503806187062418 0 -0.85716730853699208 forward_v I I I I #
coedge $-1 $139 $140 $141 $142 reversed $55 $-1 #
face $-1 $-1 $143 $31 $-1 $144 forward single #
loop $-1 $145 $146 $57 #
cone-surface $-1 61.496070533919948 -3.8584562500357649 2.3307864615546432 -0.85716730853699208 0 -0.51503806187062418 0.25751903093531209 0 -0.42858365426849604 1 I I -0.70710678118654746 0.70710678118654746 0.5 forward I I I I #
loop $-1 $-1 $147 $40 #
coedge $-1 $92 $92 $148 $149 reversed $58 $-1 #
face $-1 $150 $151 $32 $-1 $152 reversed single #
loop $-1 $-1 $153 $60 #
plane-surface $-1 112.73897026265925 7.7169125000715404 183.89973500526327 0 -1 0 -0.85716730853699208 0 -0.51503806187062418 forward_v I I I I #
coedge $-1 $154 $155 $156 $157 reversed $61 $-1 #
face $-1 $-1 $158 $33 $-1 $159 forward single #
loop $-1 $160 $161 $63 #
cone-surface $-1 61.496070533919948 3.858456250035772 2.3307864615546432 -0.85716730853699208 0 -0.51503806187062418 0.25751903093531209 0 -0.42858365426849604 1 I I -0.70710678118654746 0.70710678118654746 0.5 forward I I I I #
loop $-1 $-1 $162 $42 #
coedge $-1 $101 $101 $163 $164 reversed $64 $-1 #
face $-1 $165 $166 $34 $-1 $167 reversed single #
loop $-1 $-1 $168 $66 #
plane-surface $-1 -66.936857203894149 -0.1947876820859733 2.7553534319151112 -0.79863551827123203 0 0.60181501223851219 0.60181501223851219 0 0.79863551827123203 forward_v I I I I #
coedge $-1 $169 $170 $171 $172 reversed $67 $-1 #
face $-1 $-1 $173 $35 $-1 $174 forward single #
loop $-1 $175 $176 $69 #
cone-surface $-1 -60.027588225377308 -0.1947876820859733 1.7670332695521918 0.79863551827123203 0 -0.60181501223851219 0.45136125917888414 0 0.59897663870342399 1 I I -0.70710678118654757 0.70710678118654757 0.75 forward I I I I #
loop $-1 $-1 $177 $44 #
coedge $-1 $110 $110 $178 $179 reversed $70 $-1 #
face $-1 $180 $181 $27 $-1 $182 reversed single #
loop $-1 $-1 $183 $72 #
plane-surface $-1 0 -33.31623902518723 0 0 1 0 0 0 1 forward_v I I I I #
coedge $-1 $184 $185 $186 $187 forward $73 $-1 #
coedge $-1 $188 $75 $189 $190 forward $46 $-1 #
coedge $-1 $75 $188 $191 $192 forward $46 $-1 #
coedge $-1 $193 $194 $75 $118 reversed $195 $-1 #
edge $-1 $196 -33.31623902518723 $197 33.31623902518723 $117 $198 forward 7 unknown #
face $-1 $199 $200 $28 $-1 $201 reversed single #
loop $-1 $-1 $202 $76 #
plane-surface $-1 -66.936857203894164 0 0 1 0 0 0 0 -1 forward_v I I I I #
coedge $-1 $203 $204 $205 $206 reversed $77 $-1 #
coedge $-1 $207 $79 $208 $209 reversed $49 $-1 #
coedge $-1 $79 $207 $203 $210 forward $49 $-1 #
coedge $-1 $205 $211 $79 $126 forward $212 $-1 #
edge $-1 $213 -18.896416062108521 $214 -9.9432298640488952 $125 $215 forward 7 unknown #
face $-1 $216 $217 $29 $-1 $218 reversed single #
loop $-1 $-1 $219 $80 #
plane-surface $-1 0 0 8.1362308512665411 0 0 1 1 0 0 forward_v I I I I #
coedge $-1 $220 $221 $222 $223 reversed $81 $-1 #
coedge $-1 $224 $83 $220 $225 forward $52 $-1 #
coedge $-1 $83 $224 $226 $227 reversed $52 $-1 #
coedge $-1 $228 $229 $83 $134 forward $217 $-1 #
edge $-1 $230 9.9432298640488952 $231 18.896416062108521 $133 $232 forward 7 unknown #
face $-1 $233 $234 $30 $-1 $235 forward single #
loop $-1 $-1 $236 $84 #
plane-surface $-1 112.73897026265925 -7.7169125000715368 183.89973500526327 0 1 0 0.85716730853699208 0 0.51503806187062418 forward_v I I I I #
coedge $-1 $237 $238 $239 $240 reversed $85 $-1 #
coedge $-1 $140 $87 $241 $242 reversed $55 $-1 #
coedge $-1 $87 $139 $237 $243 reversed $55 $-1 #
coedge $-1 $239 $244 $87 $142 forward $234 $-1 #
edge $-1 $245 -10.567372072564538 $246 -5.7973045908562142 $141 $247 forward 7 unknown #
loop $-1 $-1 $148 $88 #
plane-surface $-1 -2.013201200114608 -3.8584562500357684 114.94967660125451 0.85716730853699208 0 0.51503806187062418 0.51503806187062418 0 -0.85716730853699208 forward_v I I I I #
loop $-1 $-1 $248 $57 #
coedge $-1 $146 $146 $147 $249 reversed $89 $-1 #
coedge $-1 $147 $147 $146 $249 forward $91 $-1 #
coedge $-1 $148 $148 $92 $149 forward $143 $-1 #
edge $-1 $250 0 $250 6.2831853071796004 $148 $251 forward 7 unknown #
face $-1 $252 $253 $32 $-1 $254 forward single #
loop $-1 $-1 $255 $93 #
plane-surface $-1 66.936857203894164 0 0 -1 0 0 0 0 1 forward_v I I I I #
coedge $-1 $256 $257 $258 $259 reversed $94 $-1 #
coedge $-1 $260 $96 $261 $262 reversed $61 $-1 #
coedge $-1 $96 $260 $255 $263 reversed $61 $-1 #
coedge $-1 $264 $265 $96 $157 forward $253 $-1 #
edge $-1 $266 124.61213194457511 $267 133.87371440778836 $156 $268 forward 7 unknown #
loop $-1 $-1 $163 $97 #
plane-surface $-1 -2.013201200114608 -3.8584562500357684 114.94967660125451 0.85716730853699208 0 0.51503806187062418 0.51503806187062418 0 -0.85716730853699208 forward_v I I I I #
loop $-1 $-1 $269 $63 #
coedge $-1 $161 $161 $162 $270 reversed $98 $-1 #
coedge $-1 $162 $162 $161 $270 forward $100 $-1 #
coedge $-1 $163 $163 $101 $164 forward $158 $-1 #
edge $-1 $271 0 $271 6.2831853071796004 $163 $272 forward 7 unknown #
face $-1 $273 $274 $34 $-1 $275 forward single #
loop $-1 $-1 $276 $102 #
plane-surface $-1 -173.85316049285308 4.9644700536368731 83.322564506653336 0 -1 0 0.79863551827123203 0 -0.60181501223851219 forward_v I I I I #
coedge $-1 $277 $278 $279 $280 reversed $103 $-1 #
coedge $-1 $170 $105 $281 $282 reversed $67 $-1 #
coedge $-1 $105 $169 $277 $283 reversed $67 $-1 #
coedge $-1 $279 $284 $105 $172 forward $274 $-1 #
edge $-1 $285 19.989723042532376 $286 24.044504899706354 $171 $287 forward 7 unknown #
loop $-1 $-1 $178 $106 #
plane-surface $-1 -66.936857203894149 -0.1947876820859733 2.7553534319151112 -0.79863551827123203 0 0.60181501223851219 0.60181501223851219 0 0.79863551827123203 forward_v I I I I #
loop $-1 $-1 $288 $69 #
coedge $-1 $176 $176 $177 $289 reversed $107 $-1 #
coedge $-1 $177 $177 $176 $289 forward $109 $-1 #
coedge $-1 $178 $178 $110 $179 forward $173 $-1 #
edge $-1 $290 0 $290 6.2831853071796004 $178 $291 forward 7 unknown #
face $-1 $292 $293 $27 $-1 $294 reversed single #
loop $-1 $-1 $295 $111 #
plane-surface $-1 -66.936857203894164 0 0 1 0 0 0 0 -1 forward_v I I I I #
coedge $-1 $296 $191 $297 $298 forward $112 $-1 #
coedge $-1 $299 $114 $296 $300 forward $73 $-1 #
coedge $-1 $114 $299 $301 $302 forward $73 $-1 #
coedge $-1 $194 $193 $114 $187 reversed $195 $-1 #
edge $-1 $303 -33.31623902518723 $304 33.31623902518723 $186 $305 forward 7 unknown #
coedge $-1 $116 $115 $306 $307 forward $46 $-1 #
coedge $-1 $308 $309 $115 $190 reversed $293 $-1 #
edge $-1 $197 -66.936857203894164 $310 66.936857203894164 $189 $311 forward 7 unknown #
coedge $-1 $183 $312 $116 $192 reversed $112 $-1 #
edge $-1 $313 -66.936857203894164 $196 66.936857203894164 $191 $314 forward 7 unknown #
coedge $-1 $186 $117 $312 $315 forward $195 $-1 #
coedge $-1 $117 $186 $308 $316 reversed $195 $-1 #
loop $-1 $-1 $193 $292 #
vertex $-1 $118 $317 #
vertex $-1 $118 $318 #
straight-curve $-1 66.936857203894164 0 8.1362308512665411 0 1 0 I I #
face $-1 $319 $320 $28 $-1 $321 forward single #
loop $-1 $-1 $208 $119 #
plane-surface $-1 0 -33.31623902518723 0 0 1 0 0 0 1 forward_v I I I I #
coedge $-1 $322 $323 $324 $325 forward $120 $-1 #
coedge $-1 $324 $122 $124 $210 reversed $77 $-1 #
coedge $-1 $122 $324 $326 $327 reversed $77 $-1 #
coedge $-1 $328 $125 $122 $206 forward $212 $-1 #
edge $-1 $214 1.8181154256332706 $329 4.8181154256332706 $205 $330 forward 7 unknown #
coedge $-1 $124 $123 $322 $331 reversed $49 $-1 #
coedge $-1 $332 $333 $123 $209 forward $200 $-1 #
edge $-1 $334 -66.936857203894164 $213 66.936857203894164 $208 $335 forward 7 unknown #
edge $-1 $336 -66.936857203894164 $214 66.936857203894164 $203 $337 forward 7 unknown #
coedge $-1 $125 $328 $332 $338 forward $212 $-1 #
loop $-1 $-1 $205 $319 #
vertex $-1 $209 $339 #
vertex $-1 $126 $340 #
straight-curve $-1 66.936857203894164 -14.419822963078708 5.1362308512665411 0 1 0 I I #
face $-1 $341 $342 $29 $-1 $343 reversed single #
loop $-1 $-1 $229 $127 #
plane-surface $-1 66.936857203894164 0 0 -1 0 0 0 0 1 forward_v I I I I #
coedge $-1 $344 $345 $221 $346 forward $128 $-1 #
coedge $-1 $347 $130 $131 $225 reversed $81 $-1 #
coedge $-1 $130 $347 $219 $346 reversed $81 $-1 #
coedge $-1 $348 $349 $130 $223 forward $342 $-1 #
edge $-1 $350 1.8181154256332706 $351 4.8181154256332706 $222 $352 forward 7 unknown #
coedge $-1 $132 $131 $349 $353 reversed $52 $-1 #
edge $-1 $230 -66.936857203894164 $350 66.936857203894164 $220 $354 forward 7 unknown #
coedge $-1 $355 $356 $132 $227 forward $357 $-1 #
edge $-1 $231 -66.936857203894164 $358 66.936857203894164 $226 $359 forward 7 unknown #
coedge $-1 $360 $133 $356 $361 reversed $217 $-1 #
coedge $-1 $133 $360 $347 $362 forward $217 $-1 #
vertex $-1 $134 $363 #
vertex $-1 $227 $364 #
straight-curve $-1 66.936857203894164 14.419822963078708 5.1362308512665411 0 1 0 I I #
face $-1 $-1 $365 $30 $-1 $366 reversed single #
loop $-1 $-1 $141 $135 #
plane-surface $-1 0 0 8.1362308512665411 0 0 1 1 0 0 forward_v I I I I #
coedge $-1 $367 $368 $369 $370 reversed $136 $-1 #
coedge $-1 $371 $138 $140 $243 forward $85 $-1 #
coedge $-1 $138 $371 $367 $372 forward $85 $-1 #
coedge $-1 $369 $141 $138 $240 forward $234 $-1 #
edge $-1 $246 -1.9292281250178842 $373 5.7876843750536526 $239 $374 forward 7 unknown #
coedge $-1 $375 $376 $139 $242 forward $365 $-1 #
edge $-1 $377 -91.752362364150997 $245 -83.813636651365087 $241 $378 forward 7 unknown #
edge $-1 $246 124.61213194457511 $377 133.87371440778836 $140 $379 forward 7 unknown #
coedge $-1 $141 $369 $375 $380 forward $234 $-1 #
vertex $-1 $242 $381 #
vertex $-1 $142 $382 #
straight-curve $-1 56.369485131329625 0 8.1362308512665464 -1 0 0 I I #
coedge $-1 $248 $248 $-1 $383 reversed $145 $-1 #
edge $-1 $384 0 $384 6.2831853071796004 $146 $385 forward 7 unknown #
vertex $-1 $149 $386 #
ellipse-curve $-1 64.551823463039995 -3.8584562500357649 4.1668679948735896 0.85716730853699208 0 0.51503806187062418 0.51503806187062418 0 -0.85716730853699208 1 I I #
face $-1 $-1 $387 $32 $-1 $388 forward single #
loop $-1 $-1 $265 $150 #
plane-surface $-1 112.73897026265925 0 183.89973500526327 0 -1 0 -0.85716730853699208 0 -0.51503806187062418 forward_v I I I I #
coedge $-1 $258 $389 $155 $263 forward $151 $-1 #
coedge $-1 $257 $153 $260 $390 reversed $94 $-1 #
coedge $-1 $153 $256 $391 $392 reversed $94 $-1 #
coedge $-1 $393 $255 $153 $259 forward $151 $-1 #
edge $-1 $394 -91.752362364150997 $395 -83.813636651365087 $258 $396 forward 7 unknown #
coedge $-1 $155 $154 $256 $390 forward $61 $-1 #
coedge $-1 $397 $391 $154 $262 forward $387 $-1 #
edge $-1 $398 -9.6461406250894246 $266 -1.9292281250178842 $261 $399 forward 7 unknown #
edge $-1 $267 1.9292281250178842 $394 9.6461406250894246 $255 $400 forward 7 unknown #
coedge $-1 $265 $156 $389 $401 reversed $253 $-1 #
coedge $-1 $156 $264 $397 $402 reversed $253 $-1 #
vertex $-1 $262 $403 #
vertex $-1 $263 $404 #
straight-curve $-1 -2.013201200114608 0 114.94967660125451 0.51503806187062418 0 -0.85716730853699208 I I #
coedge $-1 $269 $269 $-1 $405 reversed $160 $-1 #
edge $-1 $406 0 $406 6.2831853071796004 $161 $407 forward 7 unknown #
vertex $-1 $164 $408 #
ellipse-curve $-1 64.551823463039995 3.858456250035772 4.1668679948735896 0.85716730853699208 0 0.51503806187062418 0.51503806187062418 0 -0.85716730853699208 1 I I #
face $-1 $-1 $409 $34 $-1 $410 reversed single #
loop $-1 $-1 $171 $165 #
plane-surface $-1 0 0 8.1362308512665411 0 0 1 1 0 0 forward_v I I I I #
coedge $-1 $411 $412 $413 $414 reversed $166 $-1 #
coedge $-1 $415 $168 $170 $283 forward $103 $-1 #
coedge $-1 $168 $415 $411 $416 forward $103 $-1 #
coedge $-1 $413 $171 $168 $280 forward $274 $-1 #
edge $-1 $286 -5.2566515767658331 $417 5.0618638946798598 $279 $418 forward 7 unknown #
coedge $-1 $419 $420 $169 $282 forward $409 $-1 #
edge $-1 $421 -38.905928821411578 $285 -33.525051402060129 $281 $422 forward 7 unknown #
edge $-1 $286 -6.7375884195573459 $421 2.3448253187574213e-014 $170 $423 forward 7 unknown #
coedge $-1 $171 $413 $419 $424 forward $274 $-1 #
vertex $-1 $282 $425 #
vertex $-1 $172 $426 #
straight-curve $-1 -86.926580246426539 -5.3540454178088197 8.1362308512665393 1 0 0 I I #
coedge $-1 $288 $288 $-1 $427 reversed $175 $-1 #
edge $-1 $428 0 $428 6.2831853071796004 $176 $429 forward 7 unknown #
vertex $-1 $179 $430 #
ellipse-curve $-1 -64.909466275307167 -0.1947876820859733 5.4457921415908217 -0.79863551827123203 0 0.60181501223851219 0.90272251835776829 0 1.197953277406848 1 I I #
face $-1 $-1 $195 $27 $-1 $431 reversed single #
loop $-1 $-1 $308 $180 #
plane-surface $-1 0 33.31623902518723 0 0 -1 0 0 0 -1 forward_v I I I I #
coedge $-1 $432 $306 $309 $433 forward $181 $-1 #
coedge $-1 $312 $183 $184 $300 reversed $112 $-1 #
coedge $-1 $306 $432 $183 $298 reversed $181 $-1 #
edge $-1 $313 -8.1362308512665411 $434 8.1362308512665411 $297 $435 forward 7 unknown #
coedge $-1 $185 $184 $432 $436 forward $73 $-1 #
edge $-1 $304 -66.936857203894164 $434 66.936857203894164 $296 $437 forward 7 unknown #
coedge $-1 $309 $308 $185 $302 reversed $293 $-1 #
edge $-1 $438 -66.936857203894164 $303 66.936857203894164 $301 $439 forward 7 unknown #
vertex $-1 $187 $440 #
vertex $-1 $315 $441 #
straight-curve $-1 66.936857203894164 0 -8.1362308512665411 0 -1 0 I I #
coedge $-1 $295 $297 $188 $307 reversed $181 $-1 #
edge $-1 $310 -33.31623902518723 $313 33.31623902518723 $306 $442 forward 7 unknown #
coedge $-1 $301 $189 $194 $316 forward $293 $-1 #
coedge $-1 $189 $301 $295 $433 reversed $293 $-1 #
vertex $-1 $190 $443 #
straight-curve $-1 0 33.31623902518723 8.1362308512665411 -1 0 0 I I #
coedge $-1 $191 $296 $193 $315 reversed $112 $-1 #
vertex $-1 $307 $444 #
straight-curve $-1 0 -33.31623902518723 8.1362308512665411 1 0 0 I I #
edge $-1 $196 -8.1362308512665411 $304 8.1362308512665411 $193 $445 forward 7 unknown #
edge $-1 $197 -8.1362308512665411 $303 8.1362308512665411 $194 $446 forward 7 unknown #
point $-1 66.936857203894164 -33.31623902518723 8.1362308512665411 #
point $-1 66.936857203894164 33.31623902518723 8.1362308512665411 #
face $-1 $-1 $212 $28 $-1 $447 reversed single #
loop $-1 $-1 $326 $199 #
plane-surface $-1 0 0 8.1362308512665411 0 0 1 1 0 0 forward_v I I I I #
coedge $-1 $448 $202 $207 $331 forward $120 $-1 #
coedge $-1 $202 $448 $449 $450 reversed $120 $-1 #
coedge $-1 $204 $203 $202 $325 reversed $77 $-1 #
edge $-1 $451 -4.8181154256332706 $336 -1.8181154256332706 $202 $452 forward 7 unknown #
coedge $-1 $449 $453 $204 $327 forward $320 $-1 #
edge $-1 $329 -66.936857203894164 $451 66.936857203894164 $326 $454 forward 7 unknown #
coedge $-1 $211 $205 $453 $455 reversed $212 $-1 #
vertex $-1 $206 $456 #
straight-curve $-1 66.936857203894164 -24.363052827127603 3.3181154256332706 0 0 1 I I #
edge $-1 $336 9.9432298640488952 $334 18.896416062108521 $322 $457 forward 7 unknown #
coedge $-1 $458 $208 $211 $338 reversed $200 $-1 #
coedge $-1 $208 $458 $448 $459 forward $200 $-1 #
vertex $-1 $209 $460 #
straight-curve $-1 0 -33.31623902518723 5.1362308512665411 1 0 0 I I #
vertex $-1 $331 $461 #
straight-curve $-1 0 -24.363052827127603 5.1362308512665411 1 0 0 I I #
edge $-1 $462 -8.1362308512665411 $213 -5.1362308512665411 $211 $463 forward 7 unknown #
point $-1 66.936857203894164 -33.31623902518723 5.1362308512665411 #
point $-1 66.936857203894164 -24.363052827127603 5.1362308512665411 #
face $-1 $-1 $357 $29 $-1 $464 reversed single #
loop $-1 $-1 $222 $216 #
plane-surface $-1 -66.936857203894164 0 0 1 0 0 0 0 -1 forward_v I I I I #
coedge $-1 $465 $219 $360 $466 forward $128 $-1 #
coedge $-1 $219 $465 $348 $467 forward $128 $-1 #
edge $-1 $351 -66.936857203894164 $468 66.936857203894164 $219 $469 forward 7 unknown #
coedge $-1 $221 $220 $229 $362 reversed $81 $-1 #
coedge $-1 $470 $222 $345 $467 reversed $342 $-1 #
coedge $-1 $222 $470 $224 $353 forward $342 $-1 #
vertex $-1 $353 $471 #
vertex $-1 $223 $472 #
straight-curve $-1 -66.936857203894164 24.363052827127603 3.3181154256332706 0 0 1 I I #
edge $-1 $358 -18.896416062108521 $350 -9.9432298640488952 $349 $473 forward 7 unknown #
straight-curve $-1 0 24.363052827127603 5.1362308512665411 -1 0 0 I I #
coedge $-1 $474 $226 $470 $475 reversed $357 $-1 #
coedge $-1 $226 $474 $228 $361 forward $357 $-1 #
loop $-1 $-1 $226 $341 #
vertex $-1 $227 $476 #
straight-curve $-1 0 33.31623902518723 5.1362308512665411 -1 0 0 I I #
coedge $-1 $229 $228 $344 $466 reversed $217 $-1 #
edge $-1 $477 -8.1362308512665411 $231 -5.1362308512665411 $228 $478 forward 7 unknown #
edge $-1 $468 -4.8181154256332706 $230 -1.8181154256332706 $229 $479 forward 7 unknown #
point $-1 66.936857203894164 24.363052827127603 5.1362308512665411 #
point $-1 66.936857203894164 33.31623902518723 5.1362308512665411 #
loop $-1 $-1 $241 $233 #
plane-surface $-1 66.936857203894164 0 0 -1 0 0 0 0 1 forward_v I I I I #
coedge $-1 $368 $236 $238 $372 reversed $136 $-1 #
coedge $-1 $236 $367 $480 $481 reversed $136 $-1 #
coedge $-1 $244 $239 $236 $370 forward $234 $-1 #
edge $-1 $373 5.7973045908562142 $482 10.567372072564538 $369 $483 forward 7 unknown #
coedge $-1 $238 $237 $376 $484 reversed $85 $-1 #
edge $-1 $485 -133.87371440778836 $373 -124.61213194457511 $367 $486 forward 7 unknown #
vertex $-1 $240 $487 #
straight-curve $-1 62.16678972218584 -1.9292281250178842 8.1362308512665464 0 -1 0 I I #
coedge $-1 $480 $241 $244 $380 reversed $365 $-1 #
coedge $-1 $241 $480 $371 $484 forward $365 $-1 #
vertex $-1 $242 $488 #
straight-curve $-1 66.936857203894164 0 91.949867502631633 0 0 1 I I #
straight-curve $-1 -2.013201200114608 0 114.94967660125451 0.51503806187062418 0 -0.85716730853699208 I I #
edge $-1 $482 -7.7169125000715368 $245 0 $375 $489 forward 7 unknown #
point $-1 66.936857203894164 0 8.1362308512665411 #
point $-1 62.16678972218584 0 8.1362308512665464 #
edge $-1 $490 1 $490 0 $248 $-1 forward 7 unknown #
vertex $-1 $249 $491 #
ellipse-curve $-1 61.924654188188441 -3.8584562500357649 2.5883054924899551 0.85716730853699208 0 0.51503806187062418 0.51503806187062418 0 -0.85716730853699208 1 I I #
point $-1 65.066861524910649 -3.8584562500357649 3.3097006863366087 #
loop $-1 $-1 $261 $252 #
plane-surface $-1 0 0 8.1362308512665411 0 0 1 1 0 0 forward_v I I I I #
coedge $-1 $255 $393 $264 $401 forward $151 $-1 #
edge $-1 $398 124.61213194457511 $394 133.87371440778836 $256 $492 forward 7 unknown #
coedge $-1 $261 $493 $257 $392 forward $387 $-1 #
edge $-1 $395 -10.567372072564538 $398 -5.7973045908562142 $391 $494 forward 7 unknown #
coedge $-1 $389 $258 $493 $495 reversed $151 $-1 #
vertex $-1 $259 $496 #
vertex $-1 $259 $497 #
straight-curve $-1 66.936857203894164 7.7169125000715404 91.949867502631633 0 0 1 I I #
coedge $-1 $493 $261 $265 $402 forward $387 $-1 #
vertex $-1 $392 $498 #
straight-curve $-1 62.16678972218584 -1.9292281250178842 8.1362308512665464 0 -1 0 I I #
straight-curve $-1 66.936857203894164 -1.9292281250178842 0.19750513848062923 0 1 0 I I #
edge $-1 $499 83.813636651365087 $267 91.752362364150997 $389 $500 forward 7 unknown #
edge $-1 $266 5.7973045908562142 $499 10.567372072564538 $397 $501 forward 7 unknown #
point $-1 62.16678972218584 0 8.1362308512665464 #
point $-1 66.936857203894164 0 0.19750513848063633 #
edge $-1 $502 1 $502 0 $269 $-1 forward 7 unknown #
vertex $-1 $270 $503 #
ellipse-curve $-1 61.924654188188441 3.858456250035772 2.5883054924899551 0.85716730853699208 0 0.51503806187062418 0.51503806187062418 0 -0.85716730853699208 1 I I #
point $-1 65.066861524910649 3.858456250035772 3.3097006863366087 #
loop $-1 $-1 $281 $273 #
plane-surface $-1 -66.936857203894164 0 0 1 0 0 0 0 -1 forward_v I I I I #
coedge $-1 $412 $276 $278 $416 reversed $166 $-1 #
coedge $-1 $276 $411 $504 $505 reversed $166 $-1 #
coedge $-1 $284 $279 $276 $414 forward $274 $-1 #
edge $-1 $417 -24.044504899706354 $506 -19.989723042532376 $413 $507 forward 7 unknown #
coedge $-1 $278 $277 $420 $508 reversed $103 $-1 #
edge $-1 $509 -2.3448253187574213e-014 $417 6.7375884195573459 $411 $510 forward 7 unknown #
vertex $-1 $280 $511 #
straight-curve $-1 -62.882075346720192 -0.097393841042986651 8.1362308512665429 0 1 0 I I #
coedge $-1 $504 $281 $284 $424 reversed $409 $-1 #
coedge $-1 $281 $504 $415 $508 forward $409 $-1 #
vertex $-1 $282 $512 #
straight-curve $-1 -66.936857203894164 -5.3540454178088197 41.661282253326668 0 0 1 I I #
straight-curve $-1 -66.936857203894149 -5.3540454178088197 2.7553534319151112 -0.60181501223851219 0 -0.79863551827123203 I I #
edge $-1 $506 -4.9644700536368731 $285 5.3540454178088197 $419 $513 forward 7 unknown #
point $-1 -66.936857203894164 -5.3540454178088197 8.1362308512665411 #
point $-1 -62.882075346720185 -5.3540454178088197 8.1362308512665411 #
edge $-1 $514 1 $514 0 $288 $-1 forward 7 unknown #
vertex $-1 $289 $515 #
ellipse-curve $-1 -60.626564864080734 -0.1947876820859733 2.2183945287310758 -0.79863551827123203 0 0.60181501223851219 0.90272251835776829 0 1.197953277406848 1 I I #
point $-1 -64.006743756949419 -0.1947876820859733 6.6437454189976863 #
plane-surface $-1 66.936857203894164 0 0 -1 0 0 0 0 1 forward_v I I I I #
coedge $-1 $297 $295 $299 $436 reversed $181 $-1 #
edge $-1 $310 -8.1362308512665411 $438 8.1362308512665411 $309 $516 forward 7 unknown #
vertex $-1 $436 $517 #
straight-curve $-1 -66.936857203894164 -33.31623902518723 0 0 0 -1 I I #
edge $-1 $434 -33.31623902518723 $438 33.31623902518723 $432 $518 forward 7 unknown #
straight-curve $-1 0 -33.31623902518723 -8.1362308512665411 -1 0 0 I I #
vertex $-1 $302 $519 #
straight-curve $-1 0 33.31623902518723 -8.1362308512665411 1 0 0 I I #
point $-1 66.936857203894164 33.31623902518723 -8.1362308512665411 #
point $-1 66.936857203894164 -33.31623902518723 -8.1362308512665411 #
straight-curve $-1 -66.936857203894164 0 8.1362308512665411 0 -1 0 I I #
point $-1 -66.936857203894164 33.31623902518723 8.1362308512665411 #
point $-1 -66.936857203894164 -33.31623902518723 8.1362308512665411 #
straight-curve $-1 66.936857203894164 -33.31623902518723 0 0 0 -1 I I #
straight-curve $-1 66.936857203894164 33.31623902518723 0 0 0 -1 I I #
plane-surface $-1 66.936857203894164 0 0 -1 0 0 0 0 1 forward_v I I I I #
coedge $-1 $323 $322 $333 $459 reversed $120 $-1 #
coedge $-1 $520 $326 $323 $450 forward $320 $-1 #
edge $-1 $451 24.363052827127603 $521 33.31623902518723 $323 $522 forward 7 unknown #
vertex $-1 $450 $523 #
straight-curve $-1 -66.936857203894164 -24.363052827127603 3.3181154256332706 0 0 -1 I I #
coedge $-1 $326 $520 $328 $455 forward $320 $-1 #
straight-curve $-1 0 -24.363052827127603 8.1362308512665411 -1 0 0 I I #
edge $-1 $462 -33.31623902518723 $329 -24.363052827127603 $328 $524 forward 7 unknown #
point $-1 66.936857203894164 -24.363052827127603 8.1362308512665411 #
straight-curve $-1 -66.936857203894164 -14.419822963078708 5.1362308512665411 0 -1 0 I I #
coedge $-1 $333 $332 $520 $525 reversed $200 $-1 #
edge $-1 $521 -8.1362308512665411 $334 -5.1362308512665411 $448 $526 forward 7 unknown #
point $-1 -66.936857203894164 -33.31623902518723 5.1362308512665411 #
point $-1 -66.936857203894164 -24.363052827127603 5.1362308512665411 #
vertex $-1 $455 $527 #
straight-curve $-1 66.936857203894164 -33.31623902518723 0 0 0 -1 I I #
plane-surface $-1 0 33.31623902518723 0 0 -1 0 0 0 -1 forward_v I I I I #
coedge $-1 $345 $344 $474 $528 forward $128 $-1 #
edge $-1 $468 24.363052827127603 $477 33.31623902518723 $360 $529 forward 7 unknown #
edge $-1 $530 -33.31623902518723 $351 -24.363052827127603 $348 $531 forward 7 unknown #
vertex $-1 $466 $532 #
straight-curve $-1 0 24.363052827127603 8.1362308512665411 1 0 0 I I #
coedge $-1 $349 $348 $355 $475 forward $342 $-1 #
point $-1 -66.936857203894164 24.363052827127603 5.1362308512665411 #
point $-1 -66.936857203894164 24.363052827127603 8.1362308512665411 #
straight-curve $-1 -66.936857203894164 14.419822963078708 5.1362308512665411 0 -1 0 I I #
coedge $-1 $356 $355 $465 $528 reversed $357 $-1 #
edge $-1 $530 -8.1362308512665411 $358 -5.1362308512665411 $355 $533 forward 7 unknown #
point $-1 -66.936857203894164 33.31623902518723 5.1362308512665411 #
vertex $-1 $466 $534 #
straight-curve $-1 66.936857203894164 33.31623902518723 0 0 0 -1 I I #
straight-curve $-1 66.936857203894164 24.363052827127603 3.3181154256332706 0 0 -1 I I #
coedge $-1 $376 $375 $368 $481 forward $365 $-1 #
edge $-1 $482 83.813636651365087 $485 91.752362364150997 $480 $535 forward 7 unknown #
vertex $-1 $380 $536 #
straight-curve $-1 56.369485131329625 -7.7169125000715368 8.1362308512665464 1 0 0 I I #
edge $-1 $485 -5.7876843750536526 $377 1.9292281250178842 $376 $537 forward 7 unknown #
vertex $-1 $484 $538 #
straight-curve $-1 -2.013201200114608 -7.7169125000715368 114.94967660125451 -0.51503806187062418 0 0.85716730853699208 I I #
point $-1 62.16678972218584 -7.7169125000715368 8.1362308512665464 #
point $-1 66.936857203894164 0 0.19750513848063633 #
straight-curve $-1 66.936857203894164 0 8.1362308512665411 0 1 0 I I #
vertex $-1 $383 $539 #
point $-1 62.439692250059068 -3.8584562500357649 1.7311381839529631 #
straight-curve $-1 -2.013201200114608 7.7169125000715404 114.94967660125451 0.51503806187062418 0 -0.85716730853699208 I I #
coedge $-1 $391 $397 $393 $495 forward $387 $-1 #
straight-curve $-1 56.369485131329625 7.7169125000715404 8.1362308512665464 -1 0 0 I I #
edge $-1 $499 0 $395 7.7169125000715404 $393 $540 forward 7 unknown #
point $-1 66.936857203894164 7.7169125000715404 0.19750513848063633 #
point $-1 66.936857203894164 7.7169125000715404 8.1362308512665411 #
point $-1 62.16678972218584 7.7169125000715404 8.1362308512665464 #
vertex $-1 $495 $541 #
straight-curve $-1 66.936857203894164 0 91.949867502631633 0 0 -1 I I #
straight-curve $-1 56.369485131329625 0 8.1362308512665464 1 0 0 I I #
vertex $-1 $405 $542 #
point $-1 62.439692250059068 3.858456250035772 1.7311381839529631 #
coedge $-1 $420 $419 $412 $505 forward $409 $-1 #
edge $-1 $506 33.525051402060129 $509 38.905928821411578 $504 $543 forward 7 unknown #
vertex $-1 $424 $544 #
straight-curve $-1 -86.926580246426539 4.9644700536368731 8.1362308512665393 -1 0 0 I I #
edge $-1 $509 -5.0618638946798598 $421 5.2566515767658331 $420 $545 forward 7 unknown #
vertex $-1 $508 $546 #
straight-curve $-1 -66.936857203894149 4.9644700536368731 2.7553534319151112 0.60181501223851219 0 0.79863551827123203 I I #
point $-1 -62.882075346720185 4.9644700536368731 8.1362308512665411 #
point $-1 -66.936857203894164 -5.3540454178088197 2.7553534319150925 #
straight-curve $-1 -66.936857203894164 0 8.1362308512665411 0 -1 0 I I #
vertex $-1 $427 $547 #
point $-1 -59.723842345722964 -0.1947876820859733 3.416347806137924 #
straight-curve $-1 -66.936857203894164 33.31623902518723 0 0 0 -1 I I #
point $-1 -66.936857203894164 -33.31623902518723 -8.1362308512665411 #
straight-curve $-1 -66.936857203894164 0 -8.1362308512665411 0 1 0 I I #
point $-1 -66.936857203894164 33.31623902518723 -8.1362308512665411 #
coedge $-1 $453 $449 $458 $525 forward $320 $-1 #
vertex $-1 $450 $548 #
straight-curve $-1 -66.936857203894164 0 8.1362308512665411 0 -1 0 I I #
point $-1 -66.936857203894164 -24.363052827127603 8.1362308512665411 #
straight-curve $-1 66.936857203894164 0 8.1362308512665411 0 1 0 I I #
edge $-1 $521 -66.936857203894164 $462 66.936857203894164 $458 $549 forward 7 unknown #
straight-curve $-1 -66.936857203894164 -33.31623902518723 0 0 0 -1 I I #
point $-1 66.936857203894164 -33.31623902518723 8.1362308512665411 #
edge $-1 $477 -66.936857203894164 $530 66.936857203894164 $474 $550 forward 7 unknown #
straight-curve $-1 66.936857203894164 0 8.1362308512665411 0 1 0 I I #
vertex $-1 $528 $551 #
straight-curve $-1 -66.936857203894164 0 8.1362308512665411 0 -1 0 I I #
point $-1 66.936857203894164 24.363052827127603 8.1362308512665411 #
straight-curve $-1 -66.936857203894164 33.31623902518723 0 0 0 -1 I I #
point $-1 66.936857203894164 33.31623902518723 8.1362308512665411 #
straight-curve $-1 66.936857203894164 -7.7169125000715368 91.949867502631633 0 0 -1 I I #
point $-1 66.936857203894164 -7.7169125000715368 8.1362308512665411 #
straight-curve $-1 66.936857203894164 -1.9292281250178842 0.19750513848062923 0 1 0 I I #
point $-1 66.936857203894164 -7.7169125000715368 0.19750513848063633 #
point $-1 61.067486879651455 -3.8584562500357649 2.0732674306193313 #
straight-curve $-1 66.936857203894164 0 8.1362308512665411 0 1 0 I I #
point $-1 66.936857203894164 0 8.1362308512665411 #
point $-1 61.067486879651455 3.858456250035772 2.0732674306193313 #
straight-curve $-1 -66.936857203894164 4.9644700536368731 41.661282253326668 0 0 -1 I I #
point $-1 -66.936857203894164 4.9644700536368731 8.1362308512665411 #
straight-curve $-1 -66.936857203894164 -0.097393841042986651 2.7553534319151085 0 -1 0 I I #
point $-1 -66.936857203894164 4.9644700536368731 2.7553534319150925 #
point $-1 -59.428611586673881 -0.1947876820859733 1.3156720103733077 #
point $-1 -66.936857203894164 -33.31623902518723 8.1362308512665411 #
straight-curve $-1 0 -33.31623902518723 8.1362308512665411 1 0 0 I I #
straight-curve $-1 0 33.31623902518723 8.1362308512665411 -1 0 0 I I #
point $-1 -66.936857203894164 33.31623902518723 8.1362308512665411 #
End-of-ACIS-data 