500 0 10 0           
7 Unknown 11 ACIS 5.0 NT 24 Thu Mar 25 23:44:51 1999 
-1 9.9999999999999995e-007 1e-010 
body $-1 $10 $-1 $11 #
body $-1 $12 $-1 $13 #
body $-1 $14 $-1 $15 #
body $-1 $16 $-1 $17 #
body $-1 $18 $-1 $19 #
body $-1 $20 $-1 $21 #
body $-1 $22 $-1 $23 #
body $-1 $24 $-1 $25 #
body $-1 $26 $-1 $27 #
body $-1 $28 $-1 $29 #
lump $-1 $-1 $30 $0 #
transform $-1 1 0 0 0 1 0 0 0 1 48.384044923245952 30.332500711487725 13.733540270866714 1 rotate no_reflect no_shear #
lump $-1 $-1 $31 $1 #
transform $-1 1 0 0 0 1 0 0 0 1 48.384044923245952 30.332500711487725 13.733540270866714 1 rotate no_reflect no_shear #
lump $-1 $-1 $32 $2 #
transform $-1 1 0 0 0 1 0 0 0 1 48.384044923245952 30.332500711487725 13.733540270866714 1 rotate no_reflect no_shear #
lump $-1 $-1 $33 $3 #
transform $-1 1 0 0 0 1 0 0 0 1 48.384044923245952 30.332500711487725 13.733540270866714 1 rotate no_reflect no_shear #
lump $-1 $-1 $34 $4 #
transform $-1 1 0 0 0 1 0 0 0 1 48.384044923245952 30.332500711487725 13.733540270866714 1 rotate no_reflect no_shear #
lump $-1 $-1 $35 $5 #
transform $-1 1 0 0 0 1 0 0 0 1 48.384044923245952 30.332500711487725 13.733540270866714 1 rotate no_reflect no_shear #
lump $-1 $-1 $36 $6 #
transform $-1 1 0 0 0 1 0 0 0 1 48.384044923245952 30.332500711487725 13.733540270866714 1 rotate no_reflect no_shear #
lump $-1 $-1 $37 $7 #
transform $-1 1 0 0 0 1 0 0 0 1 48.384044923245952 30.332500711487725 13.733540270866714 1 rotate no_reflect no_shear #
lump $-1 $-1 $38 $8 #
transform $-1 1 0 0 0 1 0 0 0 1 48.384044923245952 30.332500711487725 13.733540270866714 1 rotate no_reflect no_shear #
lump $-1 $-1 $39 $9 #
transform $-1 1 0 0 0 1 0 0 0 1 48.384044923245952 30.332500711487725 13.733540270866714 1 rotate no_reflect no_shear #
shell $-1 $-1 $-1 $40 $-1 $10 #
shell $-1 $-1 $-1 $41 $-1 $12 #
shell $-1 $-1 $-1 $42 $-1 $14 #
shell $-1 $-1 $-1 $43 $-1 $16 #
shell $-1 $-1 $-1 $44 $-1 $18 #
shell $-1 $-1 $-1 $45 $-1 $20 #
shell $-1 $-1 $-1 $46 $-1 $22 #
shell $-1 $-1 $-1 $47 $-1 $24 #
shell $-1 $-1 $-1 $48 $-1 $26 #
shell $-1 $-1 $-1 $49 $-1 $28 #
face $-1 $50 $51 $30 $-1 $52 forward single #
face $-1 $53 $54 $31 $-1 $55 forward single #
face $-1 $56 $57 $32 $-1 $58 reversed single #
face $-1 $59 $60 $33 $-1 $61 forward single #
face $-1 $62 $63 $34 $-1 $64 forward single #
face $-1 $65 $66 $35 $-1 $67 forward single #
face $-1 $68 $69 $36 $-1 $70 reversed single #
face $-1 $71 $72 $37 $-1 $73 forward single #
face $-1 $74 $75 $38 $-1 $76 forward single #
face $-1 $77 $78 $39 $-1 $79 forward single #
face $-1 $80 $81 $30 $-1 $82 reversed single #
loop $-1 $-1 $83 $40 #
plane-surface $-1 0 0 13.733540270866714 0 0 1 1 0 0 forward_v I I I I #
face $-1 $84 $85 $31 $-1 $86 forward single #
loop $-1 $-1 $87 $41 #
plane-surface $-1 -48.384044923245952 0 0 1 0 0 0 0 -1 forward_v I I I I #
face $-1 $88 $89 $32 $-1 $90 reversed single #
loop $-1 $-1 $91 $42 #
plane-surface $-1 -32.771389858519449 42.104213295006232 121.40844928207125 1 0 0 0 -0.61566148304635926 -0.78801074757464917 forward_v I I I I #
face $-1 $92 $93 $33 $-1 $94 forward single #
loop $-1 $95 $96 $43 #
cone-surface $-1 -30.790441347909638 26.067571643131185 10.166611185108 0 -0.61566148304635926 -0.78801074757464917 0.5 0 0 1 I I 0 1 0.5 forward I I I I #
face $-1 $97 $98 $34 $-1 $99 forward single #
loop $-1 $100 $101 $44 #
cone-surface $-1 -27.819018581994925 26.067571643131185 10.166611185108 0 -0.61566148304635926 -0.78801074757464917 0.5 0 0 1 I I 0 1 0.5 forward I I I I #
face $-1 $102 $103 $35 $-1 $104 forward single #
loop $-1 $105 $106 $45 #
cone-surface $-1 -24.847595816080212 26.067571643131185 10.166611185108 0 -0.61566148304635926 -0.78801074757464917 0.5 0 0 1 I I 0 1 0.5 forward I I I I #
face $-1 $107 $108 $36 $-1 $109 reversed single #
loop $-1 $-1 $110 $46 #
plane-surface $-1 -22.866647305470401 -89.90888641794227 84.059344536992683 -1 0 0 0 -0.61566148304635926 0.78801074757464917 forward_v I I I I #
face $-1 $111 $112 $37 $-1 $113 forward single #
loop $-1 $114 $115 $47 #
cone-surface $-1 -30.790441347909638 -26.067571643131171 10.166611185108003 0 0.61566148304635926 -0.78801074757464917 0.5 0 0 1 I I 0 1 0.5 forward I I I I #
face $-1 $116 $117 $38 $-1 $118 forward single #
loop $-1 $119 $120 $48 #
cone-surface $-1 -27.819018581994925 -26.067571643131171 10.166611185108003 0 0.61566148304635926 -0.78801074757464917 0.5 0 0 1 I I 0 1 0.5 forward I I I I #
face $-1 $121 $122 $39 $-1 $123 forward single #
loop $-1 $124 $125 $49 #
cone-surface $-1 -24.847595816080212 -26.067571643131171 10.166611185108003 0 0.61566148304635926 -0.78801074757464917 0.5 0 0 1 I I 0 1 0.5 forward I I I I #
face $-1 $126 $127 $30 $-1 $128 reversed single #
loop $-1 $-1 $129 $50 #
plane-surface $-1 0 0 -13.733540270866714 0 0 1 1 0 0 forward_v I I I I #
coedge $-1 $130 $131 $132 $133 forward $51 $-1 #
face $-1 $134 $135 $31 $-1 $136 reversed single #
loop $-1 $-1 $137 $53 #
plane-surface $-1 0 0 13.733540270866714 0 0 1 1 0 0 forward_v I I I I #
coedge $-1 $138 $139 $140 $141 forward $54 $-1 #
face $-1 $142 $143 $32 $-1 $144 reversed single #
loop $-1 $-1 $145 $56 #
plane-surface $-1 -27.819018581994925 -17.472172411448312 45.154154460766335 0 0.61566148304635926 0.78801074757464917 1 0 0 forward_v I I I I #
coedge $-1 $146 $147 $148 $149 reversed $57 $-1 #
face $-1 $-1 $150 $33 $-1 $151 forward single #
loop $-1 $152 $153 $59 #
cone-surface $-1 -30.790441347909638 25.44278806620931 9.3669246900451011 0 -0.61566148304635926 -0.78801074757464917 0.25 0 0 1 I I -0.70710678118654746 0.70710678118654746 0.25 forward I I I I #
loop $-1 $-1 $154 $43 #
coedge $-1 $96 $96 $155 $156 reversed $60 $-1 #
face $-1 $-1 $157 $34 $-1 $158 forward single #
loop $-1 $159 $160 $62 #
cone-surface $-1 -27.819018581994925 25.44278806620931 9.3669246900451011 0 -0.61566148304635926 -0.78801074757464917 0.25 0 0 1 I I -0.70710678118654746 0.70710678118654746 0.25 forward I I I I #
loop $-1 $-1 $161 $44 #
coedge $-1 $101 $101 $162 $163 reversed $63 $-1 #
face $-1 $-1 $164 $35 $-1 $165 forward single #
loop $-1 $166 $167 $65 #
cone-surface $-1 -24.847595816080212 25.44278806620931 9.3669246900451011 0 -0.61566148304635926 -0.78801074757464917 0.25 0 0 1 I I -0.70710678118654746 0.70710678118654746 0.25 forward I I I I #
loop $-1 $-1 $168 $45 #
coedge $-1 $106 $106 $169 $170 reversed $66 $-1 #
face $-1 $171 $172 $36 $-1 $173 reversed single #
loop $-1 $-1 $174 $68 #
plane-surface $-1 -27.819018581994925 -30.332500711487725 7.8050497156877725 0 -0.61566148304635926 0.78801074757464917 1 0 0 forward_v I I I I #
coedge $-1 $175 $176 $177 $178 reversed $69 $-1 #
face $-1 $-1 $179 $37 $-1 $180 forward single #
loop $-1 $181 $182 $71 #
cone-surface $-1 -30.790441347909638 -25.442788066209296 9.3669246900451046 0 0.61566148304635926 -0.78801074757464917 0.25 0 0 1 I I -0.70710678118654746 0.70710678118654746 0.25 forward I I I I #
loop $-1 $-1 $183 $47 #
coedge $-1 $115 $115 $184 $185 reversed $72 $-1 #
face $-1 $-1 $186 $38 $-1 $187 forward single #
loop $-1 $188 $189 $74 #
cone-surface $-1 -27.819018581994925 -25.442788066209296 9.3669246900451046 0 0.61566148304635926 -0.78801074757464917 0.25 0 0 1 I I -0.70710678118654746 0.70710678118654746 0.25 forward I I I I #
loop $-1 $-1 $190 $48 #
coedge $-1 $120 $120 $191 $192 reversed $75 $-1 #
face $-1 $-1 $193 $39 $-1 $194 forward single #
loop $-1 $195 $196 $77 #
cone-surface $-1 -24.847595816080212 -25.442788066209296 9.3669246900451046 0 0.61566148304635926 -0.78801074757464917 0.25 0 0 1 I I -0.70710678118654746 0.70710678118654746 0.25 forward I I I I #
loop $-1 $-1 $197 $49 #
coedge $-1 $125 $125 $198 $199 reversed $78 $-1 #
face $-1 $200 $201 $30 $-1 $202 reversed single #
loop $-1 $-1 $203 $80 #
plane-surface $-1 0 -30.332500711487725 0 0 1 0 0 0 1 forward_v I I I I #
coedge $-1 $204 $205 $206 $207 forward $81 $-1 #
coedge $-1 $208 $83 $209 $210 forward $51 $-1 #
coedge $-1 $83 $208 $211 $212 forward $51 $-1 #
coedge $-1 $213 $214 $83 $133 reversed $215 $-1 #
edge $-1 $216 -30.332500711487725 $217 30.332500711487725 $132 $218 forward 7 unknown #
face $-1 $219 $220 $31 $-1 $221 reversed single #
loop $-1 $-1 $222 $84 #
plane-surface $-1 -63.996699987972463 -27.852734757552884 0 1 0 0 0 0 -1 forward_v I I I I #
coedge $-1 $223 $224 $138 $225 forward $85 $-1 #
coedge $-1 $226 $87 $137 $225 reversed $54 $-1 #
coedge $-1 $87 $226 $227 $228 reversed $54 $-1 #
coedge $-1 $229 $230 $87 $141 reversed $220 $-1 #
edge $-1 $231 -13.733540270866714 $232 13.733540270866714 $140 $233 forward 7 unknown #
face $-1 $234 $235 $32 $-1 $236 forward single #
loop $-1 $-1 $237 $88 #
plane-surface $-1 -22.866647305470401 42.104213295006232 121.40844928207125 -1 0 0 0 0.61566148304635926 0.78801074757464917 forward_v I I I I #
coedge $-1 $238 $239 $240 $241 reversed $89 $-1 #
coedge $-1 $147 $91 $242 $243 reversed $57 $-1 #
coedge $-1 $91 $146 $238 $244 reversed $57 $-1 #
coedge $-1 $240 $245 $91 $149 forward $235 $-1 #
edge $-1 $246 -9.280394063984609 $247 -1.6922723395920869 $148 $248 forward 7 unknown #
loop $-1 $-1 $155 $92 #
plane-surface $-1 -27.819018581994925 -17.472172411448312 45.154154460766335 0 0.61566148304635926 0.78801074757464917 1 0 0 forward_v I I I I #
loop $-1 $-1 $249 $59 #
coedge $-1 $153 $153 $154 $250 reversed $93 $-1 #
coedge $-1 $154 $154 $153 $250 forward $95 $-1 #
coedge $-1 $155 $155 $96 $156 forward $150 $-1 #
edge $-1 $251 0 $251 6.2831853071796004 $155 $252 forward 7 unknown #
loop $-1 $-1 $162 $97 #
plane-surface $-1 -27.819018581994925 -17.472172411448312 45.154154460766335 0 0.61566148304635926 0.78801074757464917 1 0 0 forward_v I I I I #
loop $-1 $-1 $253 $62 #
coedge $-1 $160 $160 $161 $254 reversed $98 $-1 #
coedge $-1 $161 $161 $160 $254 forward $100 $-1 #
coedge $-1 $162 $162 $101 $163 forward $157 $-1 #
edge $-1 $255 0 $255 6.2831853071796004 $162 $256 forward 7 unknown #
loop $-1 $-1 $169 $102 #
plane-surface $-1 -27.819018581994925 -17.472172411448312 45.154154460766335 0 0.61566148304635926 0.78801074757464917 1 0 0 forward_v I I I I #
loop $-1 $-1 $257 $65 #
coedge $-1 $167 $167 $168 $258 reversed $103 $-1 #
coedge $-1 $168 $168 $167 $258 forward $105 $-1 #
coedge $-1 $169 $169 $106 $170 forward $164 $-1 #
edge $-1 $259 0 $259 6.2831853071796004 $169 $260 forward 7 unknown #
face $-1 $261 $262 $36 $-1 $263 forward single #
loop $-1 $-1 $264 $107 #
plane-surface $-1 -32.771389858519449 -89.90888641794227 84.059344536992683 1 0 0 0 0.61566148304635926 -0.78801074757464917 forward_v I I I I #
coedge $-1 $265 $266 $267 $268 reversed $108 $-1 #
coedge $-1 $176 $110 $269 $270 reversed $69 $-1 #
coedge $-1 $110 $175 $265 $271 reversed $69 $-1 #
coedge $-1 $267 $272 $110 $178 forward $262 $-1 #
edge $-1 $273 14.62194249748341 $274 22.210064221875946 $177 $275 forward 7 unknown #
loop $-1 $-1 $184 $111 #
plane-surface $-1 -27.819018581994925 -30.332500711487725 7.8050497156877725 0 -0.61566148304635926 0.78801074757464917 1 0 0 forward_v I I I I #
loop $-1 $-1 $276 $71 #
coedge $-1 $182 $182 $183 $277 reversed $112 $-1 #
coedge $-1 $183 $183 $182 $277 forward $114 $-1 #
coedge $-1 $184 $184 $115 $185 forward $179 $-1 #
edge $-1 $278 1.2246151792417231e-015 $278 6.2831853071796013 $184 $279 forward 7 unknown #
loop $-1 $-1 $191 $116 #
plane-surface $-1 -27.819018581994925 -30.332500711487725 7.8050497156877725 0 -0.61566148304635926 0.78801074757464917 1 0 0 forward_v I I I I #
loop $-1 $-1 $280 $74 #
coedge $-1 $189 $189 $190 $281 reversed $117 $-1 #
coedge $-1 $190 $190 $189 $281 forward $119 $-1 #
coedge $-1 $191 $191 $120 $192 forward $186 $-1 #
edge $-1 $282 1.2246151792417231e-015 $282 6.2831853071796013 $191 $283 forward 7 unknown #
loop $-1 $-1 $198 $121 #
plane-surface $-1 -27.819018581994925 -30.332500711487725 7.8050497156877725 0 -0.61566148304635926 0.78801074757464917 1 0 0 forward_v I I I I #
loop $-1 $-1 $284 $77 #
coedge $-1 $196 $196 $197 $285 reversed $122 $-1 #
coedge $-1 $197 $197 $196 $285 forward $124 $-1 #
coedge $-1 $198 $198 $125 $199 forward $193 $-1 #
edge $-1 $286 1.2246151792417231e-015 $286 6.2831853071796013 $198 $287 forward 7 unknown #
face $-1 $288 $289 $30 $-1 $290 reversed single #
loop $-1 $-1 $291 $126 #
plane-surface $-1 -48.384044923245952 0 0 1 0 0 0 0 -1 forward_v I I I I #
coedge $-1 $292 $211 $293 $294 forward $127 $-1 #
coedge $-1 $295 $129 $292 $296 forward $81 $-1 #
coedge $-1 $129 $295 $297 $298 forward $81 $-1 #
coedge $-1 $214 $213 $129 $207 reversed $215 $-1 #
edge $-1 $299 -30.332500711487725 $300 30.332500711487725 $206 $301 forward 7 unknown #
coedge $-1 $131 $130 $291 $302 forward $51 $-1 #
coedge $-1 $303 $304 $130 $210 reversed $289 $-1 #
edge $-1 $217 -48.384044923245952 $305 48.384044923245952 $209 $306 forward 7 unknown #
coedge $-1 $203 $307 $131 $212 reversed $127 $-1 #
edge $-1 $308 -48.384044923245952 $216 48.384044923245952 $211 $309 forward 7 unknown #
coedge $-1 $206 $132 $307 $310 forward $215 $-1 #
coedge $-1 $132 $206 $303 $311 reversed $215 $-1 #
loop $-1 $-1 $213 $288 #
vertex $-1 $133 $312 #
vertex $-1 $133 $313 #
straight-curve $-1 48.384044923245952 0 13.733540270866714 0 1 0 I I #
face $-1 $314 $315 $31 $-1 $316 reversed single #
loop $-1 $-1 $140 $134 #
plane-surface $-1 -56.190372455609207 -25.372968803618043 0 0 -1 0 0 0 -1 forward_v I I I I #
coedge $-1 $317 $318 $319 $320 forward $135 $-1 #
coedge $-1 $321 $137 $230 $322 forward $85 $-1 #
coedge $-1 $137 $321 $323 $324 forward $85 $-1 #
edge $-1 $325 -30.332500711487725 $232 -25.372968803618043 $137 $326 forward 7 unknown #
coedge $-1 $139 $138 $327 $328 reversed $54 $-1 #
coedge $-1 $329 $330 $139 $228 forward $315 $-1 #
edge $-1 $231 25.372968803618043 $331 30.332500711487725 $227 $332 forward 7 unknown #
coedge $-1 $319 $140 $330 $333 reversed $220 $-1 #
coedge $-1 $140 $319 $223 $322 reversed $220 $-1 #
vertex $-1 $228 $334 #
vertex $-1 $322 $335 #
straight-curve $-1 -48.384044923245952 -25.372968803618043 0 0 0 1 I I #
face $-1 $-1 $336 $32 $-1 $337 reversed single #
loop $-1 $-1 $148 $142 #
plane-surface $-1 0 0 13.733540270866714 0 0 1 1 0 0 forward_v I I I I #
coedge $-1 $338 $339 $340 $341 reversed $143 $-1 #
coedge $-1 $342 $145 $147 $244 forward $89 $-1 #
coedge $-1 $145 $342 $338 $343 forward $89 $-1 #
coedge $-1 $340 $148 $145 $241 forward $235 $-1 #
edge $-1 $247 -18.861880567521986 $344 -8.9571380144729389 $240 $345 forward 7 unknown #
coedge $-1 $346 $347 $146 $243 forward $336 $-1 #
edge $-1 $348 -52.899174925347843 $246 -46.970684370168911 $242 $349 forward 7 unknown #
edge $-1 $247 51.035536662821663 $348 60.66500142297545 $147 $350 forward 7 unknown #
coedge $-1 $148 $340 $346 $351 forward $235 $-1 #
vertex $-1 $243 $352 #
vertex $-1 $149 $353 #
straight-curve $-1 -32.771389858519449 21.052106647503116 13.733540270866712 0 -1 0 I I #
coedge $-1 $249 $249 $-1 $354 reversed $152 $-1 #
edge $-1 $355 0 $355 6.2831853071796004 $153 $356 forward 7 unknown #
vertex $-1 $156 $357 #
ellipse-curve $-1 -30.790441347909638 26.538439849291468 10.769294993277237 0 0.61566148304635926 0.78801074757464917 0.5 0 0 1 I I #
coedge $-1 $253 $253 $-1 $358 reversed $159 $-1 #
edge $-1 $359 0 $359 6.2831853071796004 $160 $360 forward 7 unknown #
vertex $-1 $163 $361 #
ellipse-curve $-1 -27.819018581994925 26.538439849291468 10.769294993277237 0 0.61566148304635926 0.78801074757464917 0.5 0 0 1 I I #
coedge $-1 $257 $257 $-1 $362 reversed $166 $-1 #
edge $-1 $363 0 $363 6.2831853071796004 $167 $364 forward 7 unknown #
vertex $-1 $170 $365 #
ellipse-curve $-1 -24.847595816080212 26.538439849291468 10.769294993277237 0 0.61566148304635926 0.78801074757464917 0.5 0 0 1 I I #
face $-1 $-1 $366 $36 $-1 $367 reversed single #
loop $-1 $-1 $177 $171 #
plane-surface $-1 0 0 13.733540270866714 0 0 1 1 0 0 forward_v I I I I #
coedge $-1 $368 $369 $370 $371 reversed $172 $-1 #
coedge $-1 $372 $174 $176 $271 forward $108 $-1 #
coedge $-1 $174 $372 $368 $373 forward $108 $-1 #
coedge $-1 $370 $177 $174 $268 forward $262 $-1 #
edge $-1 $274 8.9571380144729389 $374 18.861880567521986 $267 $375 forward 7 unknown #
coedge $-1 $376 $377 $175 $270 forward $366 $-1 #
edge $-1 $378 -34.224622552808569 $273 -28.296131997629629 $269 $379 forward 7 unknown #
edge $-1 $274 -9.6294647601537999 $378 0 $176 $380 forward 7 unknown #
coedge $-1 $177 $370 $376 $381 forward $262 $-1 #
vertex $-1 $178 $382 #
vertex $-1 $178 $383 #
straight-curve $-1 -22.866647305470401 -44.954443208971135 13.733540270866712 0 1 0 I I #
coedge $-1 $276 $276 $-1 $384 reversed $181 $-1 #
edge $-1 $385 0 $385 6.2831853071796004 $182 $386 forward 7 unknown #
vertex $-1 $185 $387 #
ellipse-curve $-1 -30.790441347909638 -26.538439849291457 10.769294993277244 0 -0.61566148304635926 0.78801074757464917 0.5 0 0 1 I I #
coedge $-1 $280 $280 $-1 $388 reversed $188 $-1 #
edge $-1 $389 0 $389 6.2831853071796004 $189 $390 forward 7 unknown #
vertex $-1 $192 $391 #
ellipse-curve $-1 -27.819018581994925 -26.538439849291457 10.769294993277244 0 -0.61566148304635926 0.78801074757464917 0.5 0 0 1 I I #
coedge $-1 $284 $284 $-1 $392 reversed $195 $-1 #
edge $-1 $393 0 $393 6.2831853071796004 $196 $394 forward 7 unknown #
vertex $-1 $199 $395 #
ellipse-curve $-1 -24.847595816080212 -26.538439849291457 10.769294993277244 0 -0.61566148304635926 0.78801074757464917 0.5 0 0 1 I I #
face $-1 $-1 $215 $30 $-1 $396 reversed single #
loop $-1 $-1 $303 $200 #
plane-surface $-1 0 30.332500711487725 0 0 -1 0 0 0 -1 forward_v I I I I #
coedge $-1 $397 $293 $208 $302 reversed $201 $-1 #
coedge $-1 $307 $203 $204 $296 reversed $127 $-1 #
coedge $-1 $291 $398 $203 $294 reversed $201 $-1 #
edge $-1 $308 -13.733540270866714 $399 13.733540270866714 $293 $400 forward 7 unknown #
coedge $-1 $205 $204 $398 $401 forward $81 $-1 #
edge $-1 $300 -48.384044923245952 $399 48.384044923245952 $292 $402 forward 7 unknown #
coedge $-1 $304 $303 $205 $298 reversed $289 $-1 #
edge $-1 $403 -48.384044923245952 $299 48.384044923245952 $297 $404 forward 7 unknown #
vertex $-1 $207 $405 #
vertex $-1 $310 $406 #
straight-curve $-1 48.384044923245952 0 -13.733540270866714 0 -1 0 I I #
edge $-1 $305 -30.332500711487725 $308 30.332500711487725 $291 $407 forward 7 unknown #
coedge $-1 $297 $209 $214 $311 forward $289 $-1 #
coedge $-1 $209 $297 $397 $408 reversed $289 $-1 #
vertex $-1 $210 $409 #
straight-curve $-1 0 30.332500711487725 13.733540270866714 -1 0 0 I I #
coedge $-1 $211 $292 $213 $310 reversed $127 $-1 #
vertex $-1 $302 $410 #
straight-curve $-1 0 -30.332500711487725 13.733540270866714 1 0 0 I I #
edge $-1 $216 -13.733540270866714 $300 13.733540270866714 $213 $411 forward 7 unknown #
edge $-1 $217 -13.733540270866714 $299 13.733540270866714 $214 $412 forward 7 unknown #
point $-1 48.384044923245952 -30.332500711487725 13.733540270866714 #
point $-1 48.384044923245952 30.332500711487725 13.733540270866714 #
face $-1 $-1 $413 $31 $-1 $414 reversed single #
loop $-1 $-1 $227 $219 #
plane-surface $-1 0 0 -13.733540270866714 0 0 1 1 0 0 forward_v I I I I #
coedge $-1 $415 $222 $416 $417 reversed $135 $-1 #
coedge $-1 $222 $415 $321 $418 reversed $135 $-1 #
coedge $-1 $230 $229 $222 $320 reversed $220 $-1 #
edge $-1 $419 -13.733540270866714 $420 13.733540270866714 $319 $421 forward 7 unknown #
coedge $-1 $224 $223 $318 $418 forward $85 $-1 #
edge $-1 $232 -7.8063275323632553 $419 7.8063275323632553 $230 $422 forward 7 unknown #
coedge $-1 $423 $327 $224 $324 reversed $413 $-1 #
edge $-1 $424 -63.996699987972463 $325 -48.384044923245952 $323 $425 forward 7 unknown #
vertex $-1 $328 $426 #
straight-curve $-1 -48.384044923245952 0 13.733540270866714 0 1 0 I I #
coedge $-1 $323 $427 $226 $328 forward $413 $-1 #
edge $-1 $331 -13.733540270866714 $325 13.733540270866714 $327 $428 forward 7 unknown #
coedge $-1 $416 $227 $427 $429 forward $315 $-1 #
coedge $-1 $227 $416 $229 $333 forward $315 $-1 #
vertex $-1 $429 $430 #
straight-curve $-1 -48.384044923245952 0 -13.733540270866714 0 -1 0 I I #
edge $-1 $420 -7.8063275323632553 $231 7.8063275323632553 $229 $431 forward 7 unknown #
point $-1 -48.384044923245952 -25.372968803618043 -13.733540270866714 #
point $-1 -48.384044923245952 -25.372968803618043 13.733540270866714 #
loop $-1 $-1 $242 $234 #
plane-surface $-1 0 30.332500711487725 0 0 -1 0 0 0 -1 forward_v I I I I #
coedge $-1 $339 $237 $239 $343 reversed $143 $-1 #
coedge $-1 $237 $338 $432 $433 reversed $143 $-1 #
coedge $-1 $245 $240 $237 $341 forward $235 $-1 #
edge $-1 $344 1.6922723395920869 $434 9.280394063984609 $340 $435 forward 7 unknown #
coedge $-1 $239 $238 $347 $436 reversed $89 $-1 #
edge $-1 $437 -60.66500142297545 $344 -51.035536662821663 $338 $438 forward 7 unknown #
vertex $-1 $241 $439 #
straight-curve $-1 -13.909509290997462 22.744378987095196 13.733540270866712 1 0 0 I I #
coedge $-1 $432 $242 $245 $351 reversed $336 $-1 #
coedge $-1 $242 $432 $342 $436 forward $336 $-1 #
vertex $-1 $243 $440 #
straight-curve $-1 -32.771389858519449 30.332500711487725 60.704224641035623 0 0 1 I I #
straight-curve $-1 -32.771389858519449 -17.472172411448312 45.154154460766335 0 0.78801074757464917 -0.61566148304635926 I I #
edge $-1 $434 22.866647305470401 $246 32.771389858519449 $346 $441 forward 7 unknown #
point $-1 -32.771389858519449 30.332500711487725 13.733540270866714 #
point $-1 -32.771389858519449 22.744378987095203 13.733540270866708 #
edge $-1 $442 1 $442 0 $249 $-1 forward 7 unknown #
vertex $-1 $250 $443 #
ellipse-curve $-1 -30.790441347909638 25.596703436970898 9.5639273769387643 0 0.61566148304635926 0.78801074757464917 0.5 0 0 1 I I #
point $-1 -30.290441347909638 26.538439849291468 10.769294993277237 #
edge $-1 $444 1 $444 0 $253 $-1 forward 7 unknown #
vertex $-1 $254 $445 #
ellipse-curve $-1 -27.819018581994925 25.596703436970898 9.5639273769387643 0 0.61566148304635926 0.78801074757464917 0.5 0 0 1 I I #
point $-1 -27.319018581994925 26.538439849291468 10.769294993277237 #
edge $-1 $446 1 $446 0 $257 $-1 forward 7 unknown #
vertex $-1 $258 $447 #
ellipse-curve $-1 -24.847595816080212 25.596703436970898 9.5639273769387643 0 0.61566148304635926 0.78801074757464917 0.5 0 0 1 I I #
point $-1 -24.347595816080212 26.538439849291468 10.769294993277237 #
loop $-1 $-1 $269 $261 #
plane-surface $-1 0 -30.332500711487725 0 0 1 0 0 0 1 forward_v I I I I #
coedge $-1 $369 $264 $266 $373 reversed $172 $-1 #
coedge $-1 $264 $368 $448 $449 reversed $172 $-1 #
coedge $-1 $272 $267 $264 $371 forward $262 $-1 #
edge $-1 $374 -22.210064221875946 $450 -14.62194249748341 $370 $451 forward 7 unknown #
coedge $-1 $266 $265 $377 $452 reversed $108 $-1 #
edge $-1 $453 0 $374 9.6294647601537999 $368 $454 forward 7 unknown #
vertex $-1 $268 $455 #
straight-curve $-1 -13.909509290997462 -22.744378987095189 13.733540270866714 -1 0 0 I I #
coedge $-1 $448 $269 $272 $381 reversed $366 $-1 #
coedge $-1 $269 $448 $372 $452 forward $366 $-1 #
vertex $-1 $270 $456 #
straight-curve $-1 -22.866647305470401 -30.332500711487725 42.029672268496341 0 0 1 I I #
straight-curve $-1 -22.866647305470401 -30.332500711487725 7.8050497156877725 0 -0.78801074757464917 -0.61566148304635926 I I #
edge $-1 $450 -32.771389858519449 $273 -22.866647305470401 $376 $457 forward 7 unknown #
point $-1 -22.866647305470401 -30.332500711487725 13.733540270866714 #
point $-1 -22.866647305470401 -22.744378987095189 13.733540270866715 #
edge $-1 $458 1 $458 0 $276 $-1 forward 7 unknown #
vertex $-1 $277 $459 #
ellipse-curve $-1 -30.790441347909638 -25.596703436970884 9.5639273769387678 0 -0.61566148304635926 0.78801074757464917 0.5 0 0 1 I I #
point $-1 -30.290441347909638 -26.538439849291453 10.76929499327724 #
edge $-1 $460 1 $460 0 $280 $-1 forward 7 unknown #
vertex $-1 $281 $461 #
ellipse-curve $-1 -27.819018581994925 -25.596703436970884 9.5639273769387678 0 -0.61566148304635926 0.78801074757464917 0.5 0 0 1 I I #
point $-1 -27.319018581994925 -26.538439849291453 10.76929499327724 #
edge $-1 $462 1 $462 0 $284 $-1 forward 7 unknown #
vertex $-1 $285 $463 #
ellipse-curve $-1 -24.847595816080212 -25.596703436970884 9.5639273769387678 0 -0.61566148304635926 0.78801074757464917 0.5 0 0 1 I I #
point $-1 -24.347595816080212 -26.538439849291453 10.76929499327724 #
plane-surface $-1 48.384044923245952 0 0 -1 0 0 0 0 1 forward_v I I I I #
coedge $-1 $398 $291 $304 $408 forward $201 $-1 #
coedge $-1 $293 $397 $295 $401 reversed $201 $-1 #
vertex $-1 $401 $464 #
straight-curve $-1 -48.384044923245952 -30.332500711487725 0 0 0 -1 I I #
edge $-1 $399 -30.332500711487725 $403 30.332500711487725 $398 $465 forward 7 unknown #
straight-curve $-1 0 -30.332500711487725 -13.733540270866714 -1 0 0 I I #
vertex $-1 $298 $466 #
straight-curve $-1 0 30.332500711487725 -13.733540270866714 1 0 0 I I #
point $-1 48.384044923245952 30.332500711487725 -13.733540270866714 #
point $-1 48.384044923245952 -30.332500711487725 -13.733540270866714 #
straight-curve $-1 -48.384044923245952 0 13.733540270866714 0 -1 0 I I #
edge $-1 $305 -13.733540270866714 $403 13.733540270866714 $304 $467 forward 7 unknown #
point $-1 -48.384044923245952 30.332500711487725 13.733540270866714 #
point $-1 -48.384044923245952 -30.332500711487725 13.733540270866714 #
straight-curve $-1 48.384044923245952 -30.332500711487725 0 0 0 -1 I I #
straight-curve $-1 48.384044923245952 30.332500711487725 0 0 0 -1 I I #
loop $-1 $-1 $327 $314 #
plane-surface $-1 0 -30.332500711487725 0 0 1 0 0 0 1 forward_v I I I I #
coedge $-1 $318 $317 $423 $468 reversed $135 $-1 #
coedge $-1 $330 $329 $317 $417 forward $315 $-1 #
edge $-1 $469 -2.4797659539348409 $420 2.4797659539348409 $317 $470 forward 7 unknown #
edge $-1 $419 -2.4797659539348409 $424 2.4797659539348409 $318 $471 forward 7 unknown #
vertex $-1 $322 $472 #
vertex $-1 $333 $473 #
straight-curve $-1 -63.996699987972463 -25.372968803618043 0 0 0 -1 I I #
straight-curve $-1 -56.190372455609207 -25.372968803618043 13.733540270866714 -1 0 0 I I #
coedge $-1 $427 $323 $415 $468 forward $413 $-1 #
vertex $-1 $418 $474 #
straight-curve $-1 0 -30.332500711487725 13.733540270866714 1 0 0 I I #
point $-1 -48.384044923245952 -30.332500711487725 13.733540270866714 #
coedge $-1 $327 $423 $329 $429 reversed $413 $-1 #
straight-curve $-1 -48.384044923245952 -30.332500711487725 0 0 0 1 I I #
edge $-1 $331 -7.8063275323632553 $469 7.8063275323632553 $427 $475 forward 7 unknown #
point $-1 -48.384044923245952 -30.332500711487725 -13.733540270866714 #
straight-curve $-1 -56.190372455609207 -25.372968803618043 -13.733540270866714 1 0 0 I I #
coedge $-1 $347 $346 $339 $433 forward $336 $-1 #
edge $-1 $434 46.970684370168911 $437 52.899174925347843 $432 $476 forward 7 unknown #
vertex $-1 $351 $477 #
straight-curve $-1 -22.866647305470401 21.052106647503116 13.733540270866712 0 1 0 I I #
edge $-1 $437 8.9571380144729389 $348 18.861880567521986 $347 $478 forward 7 unknown #
vertex $-1 $436 $479 #
straight-curve $-1 -22.866647305470401 -17.472172411448312 45.154154460766335 0 -0.78801074757464917 0.61566148304635926 I I #
point $-1 -22.866647305470401 22.744378987095203 13.733540270866708 #
point $-1 -32.771389858519449 30.332500711487725 7.8050497156877796 #
straight-curve $-1 0 30.332500711487725 13.733540270866714 -1 0 0 I I #
vertex $-1 $354 $480 #
point $-1 -30.290441347909638 25.596703436970898 9.5639273769387643 #
vertex $-1 $358 $481 #
point $-1 -27.319018581994925 25.596703436970898 9.5639273769387643 #
vertex $-1 $362 $482 #
point $-1 -24.347595816080212 25.596703436970898 9.5639273769387643 #
coedge $-1 $377 $376 $369 $449 forward $366 $-1 #
edge $-1 $450 28.296131997629629 $453 34.224622552808569 $448 $483 forward 7 unknown #
vertex $-1 $381 $484 #
straight-curve $-1 -32.771389858519449 -44.954443208971135 13.733540270866712 0 -1 0 I I #
edge $-1 $453 -18.861880567521986 $378 -8.9571380144729389 $377 $485 forward 7 unknown #
vertex $-1 $452 $486 #
straight-curve $-1 -32.771389858519449 -30.332500711487725 7.8050497156877725 0 0.78801074757464917 0.61566148304635926 I I #
point $-1 -32.771389858519449 -22.744378987095189 13.733540270866715 #
point $-1 -22.866647305470401 -30.332500711487725 7.8050497156877725 #
straight-curve $-1 0 -30.332500711487725 13.733540270866714 1 0 0 I I #
vertex $-1 $384 $487 #
point $-1 -30.290441347909638 -25.596703436970884 9.5639273769387678 #
vertex $-1 $388 $488 #
point $-1 -27.319018581994925 -25.596703436970884 9.5639273769387678 #
vertex $-1 $392 $489 #
point $-1 -24.347595816080212 -25.596703436970884 9.5639273769387678 #
point $-1 -48.384044923245952 -30.332500711487725 -13.733540270866714 #
straight-curve $-1 -48.384044923245952 0 -13.733540270866714 0 1 0 I I #
point $-1 -48.384044923245952 30.332500711487725 -13.733540270866714 #
straight-curve $-1 -48.384044923245952 30.332500711487725 0 0 0 -1 I I #
edge $-1 $424 -13.733540270866714 $469 13.733540270866714 $415 $490 forward 7 unknown #
vertex $-1 $417 $491 #
straight-curve $-1 -63.996699987972463 -27.852734757552884 -13.733540270866714 0 1 0 I I #
straight-curve $-1 -63.996699987972463 -27.852734757552884 13.733540270866714 0 -1 0 I I #
point $-1 -63.996699987972463 -25.372968803618043 13.733540270866714 #
point $-1 -63.996699987972463 -25.372968803618043 -13.733540270866714 #
point $-1 -63.996699987972463 -30.332500711487725 13.733540270866714 #
straight-curve $-1 -56.190372455609207 -30.332500711487725 -13.733540270866714 -1 0 0 I I #
straight-curve $-1 -22.866647305470401 30.332500711487725 60.704224641035623 0 0 -1 I I #
point $-1 -22.866647305470401 30.332500711487725 13.733540270866714 #
straight-curve $-1 -13.909509290997462 30.332500711487725 7.8050497156877796 -1 0 0 I I #
point $-1 -22.866647305470401 30.332500711487725 7.8050497156877796 #
point $-1 -30.790441347909638 25.288872695447722 9.1699220031514379 #
point $-1 -27.819018581994925 25.288872695447722 9.1699220031514379 #
point $-1 -24.847595816080212 25.288872695447722 9.1699220031514379 #
straight-curve $-1 -32.771389858519449 -30.332500711487725 42.029672268496341 0 0 -1 I I #
point $-1 -32.771389858519449 -30.332500711487725 13.733540270866714 #
straight-curve $-1 -13.909509290997462 -30.332500711487725 7.8050497156877707 1 0 0 I I #
point $-1 -32.771389858519449 -30.332500711487725 7.8050497156877725 #
point $-1 -30.790441347909638 -25.288872695447708 9.1699220031514415 #
point $-1 -27.819018581994925 -25.288872695447708 9.1699220031514415 #
point $-1 -24.847595816080212 -25.288872695447708 9.1699220031514415 #
straight-curve $-1 -63.996699987972463 -30.332500711487725 0 0 0 -1 I I #
point $-1 -63.996699987972463 -30.332500711487725 -13.733540270866714 #
End-of-ACIS-data 