500 0 4 0           
7 Unknown 11 ACIS 5.0 NT 24 Fri Mar 26 18:30:22 1999 
-1 9.9999999999999995e-007 1e-010 
body $-1 $4 $-1 $5 #
body $-1 $6 $-1 $7 #
body $-1 $8 $-1 $9 #
body $-1 $10 $-1 $11 #
lump $-1 $-1 $12 $0 #
transform $-1 1 0 0 0 1 0 0 0 1 56.635029145176546 32.152871171396427 14.109700770523499 1 rotate no_reflect no_shear #
lump $-1 $-1 $13 $1 #
transform $-1 1 0 0 0 1 0 0 0 1 56.635029145176546 32.152871171396427 14.109700770523499 1 rotate no_reflect no_shear #
lump $-1 $-1 $14 $2 #
transform $-1 1 0 0 0 1 0 0 0 1 56.635029145176546 32.152871171396427 14.109700770523499 1 rotate no_reflect no_shear #
lump $-1 $-1 $15 $3 #
transform $-1 1 0 0 0 1 0 0 0 1 56.635029145176546 32.152871171396427 14.109700770523499 1 rotate no_reflect no_shear #
shell $-1 $-1 $-1 $16 $-1 $4 #
shell $-1 $-1 $-1 $17 $-1 $6 #
shell $-1 $-1 $-1 $18 $-1 $8 #
shell $-1 $-1 $-1 $19 $-1 $10 #
face $-1 $20 $21 $12 $-1 $22 forward single #
face $-1 $23 $24 $13 $-1 $25 forward single #
face $-1 $26 $27 $14 $-1 $28 forward single #
face $-1 $29 $30 $15 $-1 $31 reversed single #
face $-1 $32 $33 $12 $-1 $34 reversed single #
loop $-1 $-1 $35 $16 #
plane-surface $-1 0 0 14.109700770523499 0 0 1 1 0 0 forward_v I I I I #
face $-1 $36 $37 $13 $-1 $38 forward single #
loop $-1 $-1 $39 $17 #
plane-surface $-1 -49.451573662343321 -27.94803696715481 0 0 1 0 0 0 1 forward_v I I I I #
face $-1 $40 $41 $14 $-1 $42 forward single #
loop $-1 $-1 $43 $18 #
plane-surface $-1 -33.826460980315531 -23.067896723312266 75.38230065928829 0.6018150307709319 0 0.79863550430605224 0.79863550430605224 0 -0.6018150307709319 forward_v I I I I #
face $-1 $44 $45 $15 $-1 $46 reversed single #
loop $-1 $47 $48 $19 #
cone-surface $-1 49.646852334921633 -23.067896723312266 7.459798730768286 -0.6018150307709319 0 -0.79863550430605224 1.9965887607651305 0 -1.5045375769273297 1 I I 0 1 2.5 forward I I I I #
face $-1 $49 $50 $12 $-1 $51 reversed single #
loop $-1 $-1 $52 $20 #
plane-surface $-1 0 0 -14.109700770523499 0 0 1 1 0 0 forward_v I I I I #
coedge $-1 $53 $54 $55 $56 forward $21 $-1 #
face $-1 $57 $58 $13 $-1 $59 forward single #
loop $-1 $-1 $60 $23 #
plane-surface $-1 -49.451573662343321 -23.438806200567452 0 0 -1 0 0 0 -1 forward_v I I I I #
coedge $-1 $61 $62 $63 $64 reversed $24 $-1 #
face $-1 $65 $66 $14 $-1 $67 reversed single #
loop $-1 $-1 $68 $26 #
plane-surface $-1 34.341162635118565 -13.982922275228104 165.84379078478037 0 -1 0 -0.6018150307709319 0 -0.79863550430605224 forward_v I I I I #
coedge $-1 $69 $70 $71 $72 reversed $27 $-1 #
face $-1 $73 $74 $15 $-1 $75 forward single #
loop $-1 $76 $77 $29 #
cone-surface $-1 46.481409411108601 -23.067896723312266 3.2591141739651697 -0.6018150307709319 0 -0.79863550430605224 0.99829438038256524 0 -0.75226878846366485 1 I I -0.70710678118654746 0.70710678118654746 1.25 forward I I I I #
loop $-1 $-1 $78 $19 #
coedge $-1 $48 $48 $79 $80 reversed $30 $-1 #
face $-1 $81 $82 $12 $-1 $83 reversed single #
loop $-1 $-1 $84 $32 #
plane-surface $-1 0 -32.152871171396427 0 0 1 0 0 0 1 forward_v I I I I #
coedge $-1 $85 $86 $87 $88 forward $33 $-1 #
coedge $-1 $89 $35 $90 $91 forward $21 $-1 #
coedge $-1 $35 $89 $92 $93 forward $21 $-1 #
coedge $-1 $94 $95 $35 $56 reversed $96 $-1 #
edge $-1 $97 -32.152871171396427 $98 32.152871171396427 $55 $99 forward 7 unknown #
face $-1 $100 $101 $13 $-1 $102 forward single #
loop $-1 $-1 $103 $36 #
plane-surface $-1 -42.268118179510097 -25.693421583861131 0 -1 0 0 0 0 1 forward_v I I I I #
coedge $-1 $104 $105 $106 $107 reversed $37 $-1 #
coedge $-1 $108 $39 $109 $110 reversed $24 $-1 #
coedge $-1 $39 $108 $111 $112 reversed $24 $-1 #
coedge $-1 $113 $114 $39 $64 forward $115 $-1 #
edge $-1 $116 -14.109700770523499 $117 14.109700770523499 $63 $118 forward 7 unknown #
face $-1 $119 $120 $14 $-1 $121 reversed single #
loop $-1 $-1 $122 $40 #
plane-surface $-1 56.635029145176546 0 0 -1 0 0 0 0 1 forward_v I I I I #
coedge $-1 $123 $124 $122 $125 reversed $41 $-1 #
coedge $-1 $126 $43 $124 $127 reversed $27 $-1 #
coedge $-1 $43 $126 $128 $129 reversed $27 $-1 #
coedge $-1 $130 $122 $43 $72 forward $66 $-1 #
edge $-1 $131 2.4489739135719706 $132 20.618922809740294 $71 $133 forward 7 unknown #
face $-1 $134 $135 $15 $-1 $136 forward single #
loop $-1 $137 $79 $44 #
plane-surface $-1 -33.826460980315531 -23.067896723312266 75.38230065928829 0.6018150307709319 0 0.79863550430605224 0.79863550430605224 0 -0.6018150307709319 forward_v I I I I #
loop $-1 $-1 $138 $29 #
coedge $-1 $77 $77 $78 $139 forward $45 $-1 #
coedge $-1 $78 $78 $77 $139 reversed $47 $-1 #
coedge $-1 $79 $79 $48 $80 forward $74 $-1 #
edge $-1 $140 0 $140 6.2831853071796004 $79 $141 forward 7 unknown #
face $-1 $142 $143 $12 $-1 $144 reversed single #
loop $-1 $-1 $145 $49 #
plane-surface $-1 -56.635029145176546 0 0 1 0 0 0 0 -1 forward_v I I I I #
coedge $-1 $146 $92 $147 $148 forward $50 $-1 #
coedge $-1 $149 $52 $146 $150 forward $33 $-1 #
coedge $-1 $52 $149 $151 $152 forward $33 $-1 #
coedge $-1 $95 $94 $52 $88 reversed $96 $-1 #
edge $-1 $153 -32.152871171396427 $154 32.152871171396427 $87 $155 forward 7 unknown #
coedge $-1 $54 $53 $156 $157 forward $21 $-1 #
coedge $-1 $158 $159 $53 $91 reversed $143 $-1 #
edge $-1 $98 -56.635029145176546 $160 56.635029145176546 $90 $161 forward 7 unknown #
coedge $-1 $84 $162 $54 $93 reversed $50 $-1 #
edge $-1 $163 -56.635029145176546 $97 56.635029145176546 $92 $164 forward 7 unknown #
coedge $-1 $87 $55 $162 $165 forward $96 $-1 #
coedge $-1 $55 $87 $158 $166 reversed $96 $-1 #
loop $-1 $-1 $94 $142 #
vertex $-1 $56 $167 #
vertex $-1 $56 $168 #
straight-curve $-1 56.635029145176546 0 14.109700770523499 0 1 0 I I #
face $-1 $169 $115 $13 $-1 $170 reversed single #
loop $-1 $-1 $171 $57 #
plane-surface $-1 0 0 14.109700770523499 0 0 1 1 0 0 forward_v I I I I #
coedge $-1 $172 $173 $108 $174 reversed $58 $-1 #
coedge $-1 $175 $60 $171 $176 reversed $37 $-1 #
coedge $-1 $60 $175 $177 $178 reversed $37 $-1 #
coedge $-1 $173 $172 $60 $107 forward $58 $-1 #
edge $-1 $179 -14.109700770523499 $180 14.109700770523499 $106 $181 forward 7 unknown #
coedge $-1 $62 $61 $103 $174 forward $24 $-1 #
coedge $-1 $182 $183 $61 $110 forward $101 $-1 #
edge $-1 $184 17.542331348338436 $116 31.909242314004885 $109 $185 forward 7 unknown #
coedge $-1 $186 $187 $62 $112 forward $188 $-1 #
edge $-1 $117 -31.909242314004885 $189 -17.542331348338436 $111 $190 forward 7 unknown #
coedge $-1 $191 $63 $187 $192 reversed $115 $-1 #
coedge $-1 $63 $191 $182 $193 reversed $115 $-1 #
loop $-1 $-1 $63 $100 #
vertex $-1 $193 $194 #
vertex $-1 $64 $195 #
straight-curve $-1 -56.635029145176546 -27.94803696715481 0 0 0 -1 I I #
face $-1 $196 $197 $14 $-1 $198 forward single #
loop $-1 $-1 $128 $65 #
plane-surface $-1 0 -32.152871171396427 0 0 1 0 0 0 1 forward_v I I I I #
coedge $-1 $71 $199 $68 $125 forward $66 $-1 #
coedge $-1 $124 $68 $200 $201 reversed $41 $-1 #
coedge $-1 $68 $123 $69 $127 forward $41 $-1 #
edge $-1 $202 68.812194621866681 $131 75.707218348535989 $122 $203 forward 7 unknown #
coedge $-1 $70 $69 $204 $205 reversed $27 $-1 #
edge $-1 $206 101.81301023717188 $131 113.27005829035312 $124 $207 forward 7 unknown #
coedge $-1 $208 $209 $70 $129 forward $120 $-1 #
edge $-1 $132 -77.079451132974853 $210 -65.622403079793628 $128 $211 forward 7 unknown #
coedge $-1 $212 $71 $209 $213 forward $66 $-1 #
vertex $-1 $72 $214 #
vertex $-1 $213 $215 #
straight-curve $-1 56.635029145176539 -11.533948361656133 7.2146770438542021 0 -1 0 I I #
face $-1 $216 $217 $15 $-1 $218 reversed single #
loop $-1 $-1 $219 $73 #
plane-surface $-1 34.341162635118565 -13.982922275228104 165.84379078478037 0 -1 0 -0.6018150307709319 0 -0.79863550430605224 forward_v I I I I #
loop $-1 $-1 $220 $44 #
coedge $-1 $138 $138 $-1 $221 forward $76 $-1 #
edge $-1 $222 0 $222 6.2831853071796004 $77 $223 forward 7 unknown #
vertex $-1 $80 $224 #
ellipse-curve $-1 52.060026470271012 -23.067896723312266 10.662188907188854 -0.6018150307709319 0 -0.79863550430605224 1.9965887607651305 0 -1.5045375769273297 1 I I #
face $-1 $-1 $96 $12 $-1 $225 reversed single #
loop $-1 $-1 $158 $81 #
plane-surface $-1 0 32.152871171396427 0 0 -1 0 0 0 -1 forward_v I I I I #
coedge $-1 $226 $156 $159 $227 forward $82 $-1 #
coedge $-1 $162 $84 $85 $150 reversed $50 $-1 #
coedge $-1 $156 $226 $84 $148 reversed $82 $-1 #
edge $-1 $163 -14.109700770523499 $228 14.109700770523499 $147 $229 forward 7 unknown #
coedge $-1 $86 $85 $226 $230 forward $33 $-1 #
edge $-1 $154 -56.635029145176546 $228 56.635029145176546 $146 $231 forward 7 unknown #
coedge $-1 $159 $158 $86 $152 reversed $143 $-1 #
edge $-1 $232 -56.635029145176546 $153 56.635029145176546 $151 $233 forward 7 unknown #
vertex $-1 $88 $234 #
vertex $-1 $165 $235 #
straight-curve $-1 56.635029145176546 0 -14.109700770523499 0 -1 0 I I #
coedge $-1 $145 $147 $89 $157 reversed $82 $-1 #
edge $-1 $160 -32.152871171396427 $163 32.152871171396427 $156 $236 forward 7 unknown #
coedge $-1 $151 $90 $95 $166 forward $143 $-1 #
coedge $-1 $90 $151 $145 $227 reversed $143 $-1 #
vertex $-1 $91 $237 #
straight-curve $-1 0 32.152871171396427 14.109700770523499 -1 0 0 I I #
coedge $-1 $92 $146 $94 $165 reversed $50 $-1 #
vertex $-1 $157 $238 #
straight-curve $-1 0 -32.152871171396427 14.109700770523499 1 0 0 I I #
edge $-1 $97 -14.109700770523499 $154 14.109700770523499 $94 $239 forward 7 unknown #
edge $-1 $98 -14.109700770523499 $153 14.109700770523499 $95 $240 forward 7 unknown #
point $-1 56.635029145176546 -32.152871171396427 14.109700770523499 #
point $-1 56.635029145176546 32.152871171396427 14.109700770523499 #
face $-1 $241 $188 $13 $-1 $242 reversed single #
plane-surface $-1 -56.635029145176546 0 0 1 0 0 0 0 -1 forward_v I I I I #
coedge $-1 $183 $243 $104 $176 forward $101 $-1 #
coedge $-1 $106 $103 $183 $244 reversed $58 $-1 #
coedge $-1 $103 $106 $186 $245 reversed $58 $-1 #
edge $-1 $184 -14.109700770523499 $189 14.109700770523499 $103 $246 forward 7 unknown #
coedge $-1 $105 $104 $247 $248 reversed $37 $-1 #
edge $-1 $249 -31.909242314004885 $179 -17.542331348338436 $171 $250 forward 7 unknown #
coedge $-1 $251 $186 $105 $178 forward $188 $-1 #
edge $-1 $180 17.542331348338436 $252 31.909242314004885 $177 $253 forward 7 unknown #
vertex $-1 $176 $254 #
vertex $-1 $178 $255 #
straight-curve $-1 -42.268118179510097 -23.438806200567452 0 0 0 -1 I I #
coedge $-1 $256 $109 $114 $193 forward $101 $-1 #
coedge $-1 $109 $171 $172 $244 forward $101 $-1 #
vertex $-1 $110 $257 #
straight-curve $-1 -24.725786831171661 -27.94803696715481 14.109700770523499 -1 0 0 I I #
coedge $-1 $177 $111 $173 $245 forward $188 $-1 #
coedge $-1 $111 $258 $113 $192 forward $188 $-1 #
loop $-1 $-1 $177 $169 #
vertex $-1 $112 $259 #
straight-curve $-1 -24.725786831171661 -27.94803696715481 -14.109700770523499 1 0 0 I I #
coedge $-1 $114 $113 $260 $261 reversed $115 $-1 #
edge $-1 $262 -32.152871171396427 $117 -27.94803696715481 $113 $263 forward 7 unknown #
edge $-1 $116 27.94803696715481 $264 32.152871171396427 $114 $265 forward 7 unknown #
point $-1 -56.635029145176546 -27.94803696715481 14.109700770523499 #
point $-1 -56.635029145176546 -27.94803696715481 -14.109700770523499 #
face $-1 $266 $267 $14 $-1 $268 forward single #
loop $-1 $-1 $269 $119 #
plane-surface $-1 -49.451573662343321 -27.94803696715481 0 0 1 0 0 0 1 forward_v I I I I #
coedge $-1 $122 $270 $271 $272 reversed $66 $-1 #
coedge $-1 $271 $204 $123 $201 forward $273 $-1 #
edge $-1 $206 30.314442477806196 $202 39.464447827617263 $200 $274 forward 7 unknown #
vertex $-1 $272 $275 #
straight-curve $-1 56.635029145176546 -13.982922275228104 82.921895392390184 0 0 -1 I I #
coedge $-1 $200 $276 $126 $205 forward $273 $-1 #
edge $-1 $210 -20.618922809740294 $206 -2.4489739135719706 $204 $277 forward 7 unknown #
vertex $-1 $205 $278 #
straight-curve $-1 -33.826460980315531 -13.982922275228104 75.38230065928829 0.79863550430605224 0 -0.6018150307709319 I I #
coedge $-1 $279 $128 $276 $280 reversed $120 $-1 #
coedge $-1 $128 $281 $130 $213 reversed $120 $-1 #
vertex $-1 $205 $282 #
straight-curve $-1 -4.9233571820405242 -32.152871171396427 53.602249299251994 -0.79863550430605224 0 0.6018150307709319 I I #
coedge $-1 $270 $130 $283 $284 reversed $66 $-1 #
edge $-1 $132 -7.2146770438541958 $285 14.109700770523499 $130 $286 forward 7 unknown #
point $-1 56.635029145176546 -13.982922275228104 7.2146770438541949 #
point $-1 56.635029145176546 -32.152871171396427 7.2146770438541958 #
face $-1 $287 $288 $15 $-1 $289 reversed single #
loop $-1 $-1 $290 $134 #
plane-surface $-1 56.635029145176546 0 0 -1 0 0 0 0 1 forward_v I I I I #
coedge $-1 $291 $292 $290 $293 reversed $135 $-1 #
coedge $-1 $294 $295 $296 $297 reversed $137 $-1 #
edge $-1 $298 1 $298 0 $138 $-1 forward 7 unknown #
vertex $-1 $139 $299 #
ellipse-curve $-1 47.233678199572267 -23.067896723312266 4.2574085543477347 0.6018150307709319 0 0.79863550430605224 1.9965887607651305 0 -1.5045375769273297 1 I I #
point $-1 54.056615231036133 -23.067896723312266 9.1576513302615083 #
plane-surface $-1 56.635029145176546 0 0 -1 0 0 0 0 1 forward_v I I I I #
coedge $-1 $147 $145 $149 $230 reversed $82 $-1 #
edge $-1 $160 -14.109700770523499 $232 14.109700770523499 $159 $300 forward 7 unknown #
vertex $-1 $230 $301 #
straight-curve $-1 -56.635029145176546 -32.152871171396427 0 0 0 -1 I I #
edge $-1 $228 -32.152871171396427 $232 32.152871171396427 $226 $302 forward 7 unknown #
straight-curve $-1 0 -32.152871171396427 -14.109700770523499 -1 0 0 I I #
vertex $-1 $152 $303 #
straight-curve $-1 0 32.152871171396427 -14.109700770523499 1 0 0 I I #
point $-1 56.635029145176546 32.152871171396427 -14.109700770523499 #
point $-1 56.635029145176546 -32.152871171396427 -14.109700770523499 #
straight-curve $-1 -56.635029145176546 0 14.109700770523499 0 -1 0 I I #
point $-1 -56.635029145176546 32.152871171396427 14.109700770523499 #
point $-1 -56.635029145176546 -32.152871171396427 14.109700770523499 #
straight-curve $-1 56.635029145176546 -32.152871171396427 0 0 0 -1 I I #
straight-curve $-1 56.635029145176546 32.152871171396427 0 0 0 -1 I I #
face $-1 $304 $305 $13 $-1 $306 reversed single #
plane-surface $-1 0 0 -14.109700770523499 0 0 1 1 0 0 forward_v I I I I #
coedge $-1 $171 $307 $308 $309 forward $101 $-1 #
edge $-1 $179 10.592095408636887 $184 15.101326175224244 $183 $310 forward 7 unknown #
edge $-1 $189 -15.101326175224244 $180 -10.592095408636887 $186 $311 forward 7 unknown #
straight-curve $-1 -42.268118179510097 -27.94803696715481 0 0 0 -1 I I #
coedge $-1 $308 $312 $175 $248 forward $313 $-1 #
edge $-1 $252 -14.109700770523499 $249 14.109700770523499 $247 $314 forward 7 unknown #
vertex $-1 $248 $315 #
straight-curve $-1 -24.725786831171661 -23.438806200567452 14.109700770523499 1 0 0 I I #
coedge $-1 $316 $177 $312 $317 forward $188 $-1 #
vertex $-1 $317 $318 #
straight-curve $-1 -24.725786831171661 -23.438806200567452 -14.109700770523499 -1 0 0 I I #
point $-1 -42.268118179510097 -23.438806200567452 14.109700770523499 #
point $-1 -42.268118179510097 -23.438806200567452 -14.109700770523499 #
coedge $-1 $319 $182 $320 $321 forward $101 $-1 #
point $-1 -42.268118179510097 -27.94803696715481 14.109700770523499 #
coedge $-1 $187 $322 $323 $324 forward $188 $-1 #
point $-1 -42.268118179510097 -27.94803696715481 -14.109700770523499 #
coedge $-1 $323 $320 $191 $261 forward $305 $-1 #
edge $-1 $264 -14.109700770523499 $262 14.109700770523499 $191 $325 forward 7 unknown #
vertex $-1 $192 $326 #
straight-curve $-1 -56.635029145176546 0 -14.109700770523499 0 1 0 I I #
vertex $-1 $193 $327 #
straight-curve $-1 -56.635029145176546 0 14.109700770523499 0 -1 0 I I #
face $-1 $328 $329 $14 $-1 $330 forward single #
loop $-1 $-1 $331 $196 #
plane-surface $-1 -49.451573662343321 -23.438806200567452 0 0 -1 0 0 0 -1 forward_v I I I I #
coedge $-1 $332 $333 $334 $335 reversed $197 $-1 #
coedge $-1 $199 $212 $336 $337 reversed $66 $-1 #
coedge $-1 $338 $200 $199 $272 forward $273 $-1 #
edge $-1 $202 -13.982922275228104 $339 32.152871171396427 $199 $340 forward 7 unknown #
loop $-1 $-1 $200 $328 #
straight-curve $-1 17.170581317559282 -13.982922275228104 14.109700770523503 1 0 0 I I #
point $-1 56.635029145176546 -13.982922275228104 14.109700770523499 #
coedge $-1 $204 $341 $208 $280 forward $273 $-1 #
straight-curve $-1 47.485023795365485 -11.533948361656133 14.109700770523503 0 1 0 I I #
point $-1 47.485023795365478 -13.982922275228104 14.109700770523496 #
coedge $-1 $281 $208 $342 $343 forward $120 $-1 #
edge $-1 $344 -56.635029145176546 $210 47.485023795365478 $208 $345 forward 7 unknown #
coedge $-1 $209 $279 $346 $347 reversed $120 $-1 #
point $-1 47.485023795365478 -32.152871171396427 14.109700770523496 #
coedge $-1 $346 $348 $212 $284 forward $349 $-1 #
edge $-1 $350 -32.152871171396427 $285 32.152871171396427 $212 $351 forward 7 unknown #
vertex $-1 $213 $352 #
straight-curve $-1 56.635029145176546 -32.152871171396427 0 0 0 -1 I I #
face $-1 $353 $354 $15 $-1 $355 forward single #
loop $-1 $-1 $356 $216 #
plane-surface $-1 0 -32.152871171396427 0 0 1 0 0 0 1 forward_v I I I I #
coedge $-1 $296 $357 $219 $293 forward $217 $-1 #
coedge $-1 $292 $219 $358 $359 reversed $135 $-1 #
coedge $-1 $219 $291 $294 $360 forward $135 $-1 #
edge $-1 $361 68.812194621866681 $362 75.707218348535989 $290 $363 forward 7 unknown #
coedge $-1 $364 $220 $292 $360 reversed $137 $-1 #
coedge $-1 $220 $364 $356 $365 reversed $137 $-1 #
coedge $-1 $366 $290 $220 $297 forward $217 $-1 #
edge $-1 $362 2.4489739135719706 $367 20.618922809740294 $296 $368 forward 7 unknown #
vertex $-1 $221 $369 #
point $-1 49.230266960337396 -23.067896723312266 2.7528709774204052 #
straight-curve $-1 -56.635029145176546 32.152871171396427 0 0 0 -1 I I #
point $-1 -56.635029145176546 -32.152871171396427 -14.109700770523499 #
straight-curve $-1 -56.635029145176546 0 -14.109700770523499 0 1 0 I I #
point $-1 -56.635029145176546 32.152871171396427 -14.109700770523499 #
face $-1 $370 $313 $13 $-1 $170 reversed single #
loop $-1 $-1 $260 $241 #
plane-surface $-1 0 -32.152871171396427 0 0 1 0 0 0 1 forward_v I I I I #
coedge $-1 $243 $319 $371 $372 forward $101 $-1 #
coedge $-1 $373 $247 $243 $309 reversed $313 $-1 #
edge $-1 $374 -32.152871171396427 $249 23.438806200567452 $308 $265 forward 7 unknown #
straight-curve $-1 -42.268118179510097 -12.846710791930565 14.109700770523499 0 -1 0 I I #
straight-curve $-1 -42.268118179510097 -12.846710791930565 -14.109700770523499 0 1 0 I I #
coedge $-1 $247 $373 $251 $317 reversed $313 $-1 #
loop $-1 $-1 $247 $304 #
straight-curve $-1 -56.635029145176546 -23.438806200567452 0 0 0 1 I I #
point $-1 -56.635029145176546 -23.438806200567452 14.109700770523499 #
coedge $-1 $322 $251 $375 $376 forward $188 $-1 #
edge $-1 $252 -23.438806200567452 $377 32.152871171396427 $312 $263 forward 7 unknown #
point $-1 -56.635029145176546 -23.438806200567452 -14.109700770523499 #
coedge $-1 $307 $256 $378 $379 forward $101 $-1 #
coedge $-1 $260 $380 $256 $321 reversed $305 $-1 #
edge $-1 $264 -56.635029145176546 $381 56.635029145176546 $320 $382 forward 7 unknown #
coedge $-1 $258 $316 $383 $384 forward $188 $-1 #
coedge $-1 $380 $260 $258 $324 reversed $305 $-1 #
edge $-1 $385 -56.635029145176546 $262 56.635029145176546 $323 $386 forward 7 unknown #
straight-curve $-1 -56.635029145176546 -32.152871171396427 0 0 0 -1 I I #
point $-1 -56.635029145176546 -32.152871171396427 -14.109700770523499 #
point $-1 -56.635029145176546 -32.152871171396427 14.109700770523499 #
face $-1 $387 $273 $14 $-1 $388 forward single #
loop $-1 $-1 $389 $266 #
plane-surface $-1 -42.268118179510097 -25.693421583861131 0 -1 0 0 0 0 1 forward_v I I I I #
coedge $-1 $390 $391 $392 $393 reversed $267 $-1 #
coedge $-1 $394 $269 $395 $396 reversed $197 $-1 #
coedge $-1 $269 $394 $397 $398 reversed $197 $-1 #
coedge $-1 $399 $400 $269 $335 forward $401 $-1 #
edge $-1 $402 -14.109700770523499 $403 14.109700770523499 $334 $404 forward 7 unknown #
coedge $-1 $405 $406 $270 $337 forward $407 $-1 #
edge $-1 $339 -14.109700770523499 $350 14.109700770523499 $270 $408 forward 7 unknown #
coedge $-1 $409 $271 $406 $410 forward $273 $-1 #
vertex $-1 $272 $411 #
straight-curve $-1 56.635029145176546 0 14.109700770523499 0 1 0 I I #
coedge $-1 $276 $395 $400 $412 forward $273 $-1 #
coedge $-1 $400 $399 $279 $343 reversed $401 $-1 #
edge $-1 $344 -14.109700770523499 $413 14.109700770523499 $342 $414 forward 7 unknown #
vertex $-1 $412 $415 #
straight-curve $-1 0 -32.152871171396427 14.109700770523499 1 0 0 I I #
coedge $-1 $416 $283 $281 $347 forward $349 $-1 #
edge $-1 $285 -56.635029145176546 $413 56.635029145176546 $281 $417 forward 7 unknown #
coedge $-1 $283 $418 $405 $419 forward $349 $-1 #
loop $-1 $-1 $420 $421 #
vertex $-1 $284 $422 #
straight-curve $-1 56.635029145176546 0 -14.109700770523499 0 -1 0 I I #
point $-1 56.635029145176546 -32.152871171396427 -14.109700770523499 #
face $-1 $423 $424 $15 $-1 $425 forward single #
loop $-1 $-1 $426 $287 #
plane-surface $-1 -49.451573662343321 -27.94803696715481 0 0 1 0 0 0 1 forward_v I I I I #
coedge $-1 $427 $428 $295 $365 forward $288 $-1 #
coedge $-1 $290 $429 $430 $431 reversed $217 $-1 #
coedge $-1 $430 $432 $291 $359 forward $433 $-1 #
edge $-1 $434 30.314442477806196 $361 39.464447827617263 $358 $435 forward 7 unknown #
edge $-1 $434 101.81301023717188 $362 113.27005829035312 $292 $436 forward 7 unknown #
vertex $-1 $431 $437 #
vertex $-1 $297 $438 #
straight-curve $-1 56.635029145176546 -13.982922275228104 82.921895392390184 0 0 -1 I I #
coedge $-1 $295 $294 $432 $439 reversed $137 $-1 #
edge $-1 $367 -77.079451132974853 $440 -65.622403079793628 $356 $441 forward 7 unknown #
coedge $-1 $442 $296 $428 $443 forward $217 $-1 #
vertex $-1 $443 $444 #
straight-curve $-1 56.635029145176539 -11.533948361656133 7.2146770438542021 0 -1 0 I I #
point $-1 45.729140622644934 -23.067896723312266 2.2608197935826047 #
face $-1 $445 $446 $13 $-1 $447 reversed single #
coedge $-1 $448 $449 $307 $372 reversed $446 $-1 #
edge $-1 $450 -56.635029145176546 $374 56.635029145176546 $371 $451 forward 7 unknown #
coedge $-1 $312 $308 $449 $452 forward $313 $-1 #
vertex $-1 $372 $453 #
coedge $-1 $449 $448 $316 $376 reversed $446 $-1 #
edge $-1 $377 -56.635029145176546 $454 56.635029145176546 $375 $455 forward 7 unknown #
vertex $-1 $376 $456 #
coedge $-1 $457 $458 $319 $379 reversed $459 $-1 #
edge $-1 $381 -32.152871171396427 $450 32.152871171396427 $378 $460 forward 7 unknown #
coedge $-1 $320 $323 $457 $461 reversed $305 $-1 #
vertex $-1 $379 $462 #
straight-curve $-1 0 -32.152871171396427 14.109700770523499 1 0 0 I I #
coedge $-1 $458 $457 $322 $384 reversed $459 $-1 #
edge $-1 $454 -32.152871171396427 $385 32.152871171396427 $383 $463 forward 7 unknown #
vertex $-1 $461 $464 #
straight-curve $-1 0 -32.152871171396427 -14.109700770523499 -1 0 0 I I #
face $-1 $421 $401 $14 $-1 $465 reversed single #
plane-surface $-1 0 0 14.109700770523499 0 0 1 1 0 0 forward_v I I I I #
coedge $-1 $466 $467 $394 $468 reversed $329 $-1 #
coedge $-1 $469 $331 $470 $471 reversed $267 $-1 #
coedge $-1 $331 $469 $420 $472 reversed $267 $-1 #
coedge $-1 $467 $466 $331 $393 forward $329 $-1 #
edge $-1 $473 -14.109700770523499 $474 14.109700770523499 $392 $475 forward 7 unknown #
coedge $-1 $333 $332 $389 $468 forward $197 $-1 #
coedge $-1 $341 $476 $332 $396 forward $273 $-1 #
edge $-1 $477 17.542331348338436 $402 31.909242314004885 $395 $478 forward 7 unknown #
coedge $-1 $479 $416 $333 $398 forward $349 $-1 #
edge $-1 $403 -31.909242314004885 $480 -17.542331348338436 $397 $481 forward 7 unknown #
coedge $-1 $342 $334 $416 $482 reversed $401 $-1 #
coedge $-1 $334 $342 $341 $412 reversed $401 $-1 #
loop $-1 $-1 $334 $387 #
vertex $-1 $412 $483 #
vertex $-1 $335 $484 #
straight-curve $-1 -56.635029145176546 -27.94803696715481 0 0 0 -1 I I #
coedge $-1 $485 $336 $348 $419 reversed $407 $-1 #
coedge $-1 $336 $485 $338 $410 reversed $407 $-1 #
loop $-1 $-1 $336 $486 #
straight-curve $-1 56.635029145176546 32.152871171396427 0 0 0 -1 I I #
coedge $-1 $470 $338 $487 $488 forward $273 $-1 #
edge $-1 $339 -56.635029145176546 $489 56.635029145176546 $406 $490 forward 7 unknown #
point $-1 56.635029145176546 32.152871171396427 14.109700770523499 #
edge $-1 $402 27.94803696715481 $344 32.152871171396427 $400 $491 forward 7 unknown #
vertex $-1 $482 $492 #
straight-curve $-1 -56.635029145176546 -32.152871171396427 0 0 0 -1 I I #
point $-1 -56.635029145176546 -32.152871171396427 14.109700770523499 #
coedge $-1 $397 $346 $399 $482 forward $349 $-1 #
straight-curve $-1 0 -32.152871171396427 -14.109700770523499 -1 0 0 I I #
coedge $-1 $348 $420 $493 $494 forward $349 $-1 #
edge $-1 $495 -56.635029145176546 $350 56.635029145176546 $405 $496 forward 7 unknown #
coedge $-1 $418 $479 $391 $472 forward $349 $-1 #
face $-1 $497 $349 $14 $-1 $498 reversed single #
point $-1 56.635029145176546 32.152871171396427 -14.109700770523499 #
face $-1 $499 $500 $15 $-1 $501 forward single #
loop $-1 $-1 $502 $353 #
plane-surface $-1 -49.451573662343321 -23.438806200567452 0 0 -1 0 0 0 -1 forward_v I I I I #
coedge $-1 $503 $504 $505 $506 reversed $354 $-1 #
coedge $-1 $507 $356 $508 $509 reversed $288 $-1 #
coedge $-1 $356 $510 $366 $443 reversed $288 $-1 #
coedge $-1 $357 $442 $511 $512 reversed $217 $-1 #
coedge $-1 $513 $358 $357 $431 forward $433 $-1 #
edge $-1 $361 -13.982922275228104 $514 32.152871171396427 $357 $515 forward 7 unknown #
coedge $-1 $358 $508 $364 $439 forward $433 $-1 #
loop $-1 $-1 $358 $499 #
vertex $-1 $439 $516 #
straight-curve $-1 17.170581317559282 -13.982922275228104 14.109700770523503 1 0 0 I I #
straight-curve $-1 -33.826460980315531 -13.982922275228104 75.38230065928829 0.79863550430605224 0 -0.6018150307709319 I I #
point $-1 56.635029145176546 -13.982922275228104 14.109700770523499 #
point $-1 56.635029145176546 -13.982922275228104 7.2146770438541949 #
edge $-1 $440 -20.618922809740294 $434 -2.4489739135719706 $432 $517 forward 7 unknown #
vertex $-1 $439 $518 #
straight-curve $-1 -4.9233571820405242 -32.152871171396427 53.602249299251994 -0.79863550430605224 0 0.6018150307709319 I I #
coedge $-1 $429 $366 $519 $520 reversed $217 $-1 #
edge $-1 $367 -7.2146770438541958 $521 14.109700770523499 $366 $522 forward 7 unknown #
point $-1 56.635029145176546 -32.152871171396427 7.2146770438541958 #
face $-1 $-1 $459 $13 $-1 $523 reversed single #
loop $-1 $-1 $448 $370 #
plane-surface $-1 0 32.152871171396427 0 0 -1 0 0 0 -1 forward_v I I I I #
coedge $-1 $375 $371 $458 $524 forward $446 $-1 #
coedge $-1 $371 $375 $373 $452 reversed $446 $-1 #
vertex $-1 $379 $525 #
straight-curve $-1 0 32.152871171396427 14.109700770523499 -1 0 0 I I #
edge $-1 $374 -14.109700770523499 $377 14.109700770523499 $449 $526 forward 7 unknown #
point $-1 -56.635029145176546 32.152871171396427 14.109700770523499 #
vertex $-1 $384 $527 #
straight-curve $-1 0 32.152871171396427 -14.109700770523499 1 0 0 I I #
point $-1 -56.635029145176546 32.152871171396427 -14.109700770523499 #
coedge $-1 $383 $378 $380 $461 forward $459 $-1 #
coedge $-1 $378 $383 $448 $524 reversed $459 $-1 #
loop $-1 $-1 $457 $445 #
straight-curve $-1 56.635029145176546 0 14.109700770523499 0 1 0 I I #
edge $-1 $381 -14.109700770523499 $385 14.109700770523499 $457 $528 forward 7 unknown #
point $-1 56.635029145176546 -32.152871171396427 14.109700770523499 #
straight-curve $-1 56.635029145176546 0 -14.109700770523499 0 -1 0 I I #
point $-1 56.635029145176546 -32.152871171396427 -14.109700770523499 #
plane-surface $-1 -56.635029145176546 0 0 1 0 0 0 0 -1 forward_v I I I I #
coedge $-1 $392 $389 $476 $529 reversed $329 $-1 #
coedge $-1 $389 $392 $479 $530 reversed $329 $-1 #
edge $-1 $477 -14.109700770523499 $480 14.109700770523499 $389 $531 forward 7 unknown #
coedge $-1 $391 $390 $532 $533 reversed $267 $-1 #
coedge $-1 $476 $409 $390 $471 forward $273 $-1 #
edge $-1 $534 -31.909242314004885 $473 -17.542331348338436 $470 $535 forward 7 unknown #
edge $-1 $474 17.542331348338436 $536 31.909242314004885 $420 $537 forward 7 unknown #
vertex $-1 $471 $538 #
vertex $-1 $472 $539 #
straight-curve $-1 -42.268118179510097 -23.438806200567452 0 0 0 -1 I I #
coedge $-1 $395 $470 $466 $529 forward $273 $-1 #
vertex $-1 $396 $540 #
straight-curve $-1 -24.725786831171661 -27.94803696715481 14.109700770523499 -1 0 0 I I #
coedge $-1 $420 $397 $467 $530 forward $349 $-1 #
vertex $-1 $398 $541 #
straight-curve $-1 -24.725786831171661 -27.94803696715481 -14.109700770523499 1 0 0 I I #
edge $-1 $413 -32.152871171396427 $403 -27.94803696715481 $399 $542 forward 7 unknown #
point $-1 -56.635029145176546 -27.94803696715481 14.109700770523499 #
point $-1 -56.635029145176546 -27.94803696715481 -14.109700770523499 #
coedge $-1 $406 $405 $543 $544 reversed $407 $-1 #
face $-1 $-1 $407 $14 $-1 $545 reversed single #
coedge $-1 $543 $532 $409 $488 reversed $546 $-1 #
edge $-1 $489 -32.152871171396427 $534 23.438806200567452 $487 $491 forward 7 unknown #
vertex $-1 $410 $547 #
straight-curve $-1 0 32.152871171396427 14.109700770523499 -1 0 0 I I #
straight-curve $-1 -56.635029145176546 0 14.109700770523499 0 -1 0 I I #
point $-1 -56.635029145176546 -32.152871171396427 -14.109700770523499 #
coedge $-1 $532 $543 $418 $494 reversed $546 $-1 #
edge $-1 $536 -23.438806200567452 $495 32.152871171396427 $493 $542 forward 7 unknown #
vertex $-1 $419 $548 #
straight-curve $-1 0 32.152871171396427 -14.109700770523499 1 0 0 I I #
face $-1 $486 $546 $14 $-1 $465 reversed single #
plane-surface $-1 0 0 -14.109700770523499 0 0 1 1 0 0 forward_v I I I I #
face $-1 $549 $433 $15 $-1 $550 forward single #
loop $-1 $-1 $551 $423 #
plane-surface $-1 -42.268118179510097 -25.693421583861131 0 -1 0 0 0 0 1 forward_v I I I I #
coedge $-1 $552 $553 $554 $555 reversed $424 $-1 #
coedge $-1 $556 $426 $557 $558 reversed $354 $-1 #
coedge $-1 $426 $556 $559 $560 reversed $354 $-1 #
coedge $-1 $561 $562 $426 $506 forward $563 $-1 #
edge $-1 $564 -14.109700770523499 $565 14.109700770523499 $505 $566 forward 7 unknown #
coedge $-1 $510 $427 $567 $568 forward $288 $-1 #
coedge $-1 $432 $569 $427 $509 forward $433 $-1 #
edge $-1 $570 -56.635029145176546 $440 47.485023795365478 $427 $571 forward 7 unknown #
coedge $-1 $428 $507 $572 $573 reversed $288 $-1 #
coedge $-1 $574 $575 $429 $512 forward $576 $-1 #
edge $-1 $514 -14.109700770523499 $577 14.109700770523499 $429 $578 forward 7 unknown #
coedge $-1 $579 $430 $575 $580 forward $433 $-1 #
vertex $-1 $431 $581 #
straight-curve $-1 56.635029145176546 0 14.109700770523499 0 1 0 I I #
point $-1 47.485023795365478 -13.982922275228104 14.109700770523496 #
straight-curve $-1 47.485023795365485 -11.533948361656133 14.109700770523503 0 1 0 I I #
point $-1 47.485023795365478 -32.152871171396427 14.109700770523496 #
coedge $-1 $572 $582 $442 $520 forward $583 $-1 #
edge $-1 $577 -32.152871171396427 $521 32.152871171396427 $442 $584 forward 7 unknown #
vertex $-1 $443 $585 #
straight-curve $-1 56.635029145176546 -32.152871171396427 0 0 0 -1 I I #
plane-surface $-1 56.635029145176546 0 0 -1 0 0 0 0 1 forward_v I I I I #
edge $-1 $450 -14.109700770523499 $454 14.109700770523499 $458 $586 forward 7 unknown #
point $-1 56.635029145176546 32.152871171396427 14.109700770523499 #
straight-curve $-1 -56.635029145176546 32.152871171396427 0 0 0 -1 I I #
point $-1 56.635029145176546 32.152871171396427 -14.109700770523499 #
straight-curve $-1 56.635029145176546 -32.152871171396427 0 0 0 -1 I I #
edge $-1 $473 10.592095408636887 $477 15.101326175224244 $476 $587 forward 7 unknown #
edge $-1 $480 -15.101326175224244 $474 -10.592095408636887 $479 $588 forward 7 unknown #
straight-curve $-1 -42.268118179510097 -27.94803696715481 0 0 0 -1 I I #
coedge $-1 $487 $493 $469 $533 forward $546 $-1 #
edge $-1 $536 -14.109700770523499 $534 14.109700770523499 $532 $589 forward 7 unknown #
vertex $-1 $533 $590 #
straight-curve $-1 -24.725786831171661 -23.438806200567452 14.109700770523499 1 0 0 I I #
vertex $-1 $494 $591 #
straight-curve $-1 -24.725786831171661 -23.438806200567452 -14.109700770523499 -1 0 0 I I #
point $-1 -42.268118179510097 -23.438806200567452 14.109700770523499 #
point $-1 -42.268118179510097 -23.438806200567452 -14.109700770523499 #
point $-1 -42.268118179510097 -27.94803696715481 14.109700770523499 #
point $-1 -42.268118179510097 -27.94803696715481 -14.109700770523499 #
straight-curve $-1 -56.635029145176546 0 -14.109700770523499 0 1 0 I I #
coedge $-1 $493 $487 $485 $544 forward $546 $-1 #
edge $-1 $489 -14.109700770523499 $495 14.109700770523499 $485 $592 forward 7 unknown #
plane-surface $-1 0 32.152871171396427 0 0 -1 0 0 0 -1 forward_v I I I I #
loop $-1 $-1 $532 $497 #
point $-1 -56.635029145176546 32.152871171396427 14.109700770523499 #
point $-1 -56.635029145176546 32.152871171396427 -14.109700770523499 #
face $-1 $593 $563 $15 $-1 $594 reversed single #
plane-surface $-1 0 0 14.109700770523499 0 0 1 1 0 0 forward_v I I I I #
coedge $-1 $595 $596 $556 $597 reversed $500 $-1 #
coedge $-1 $598 $502 $599 $600 reversed $424 $-1 #
coedge $-1 $502 $598 $601 $602 reversed $424 $-1 #
coedge $-1 $596 $595 $502 $555 forward $500 $-1 #
edge $-1 $603 -14.109700770523499 $604 14.109700770523499 $554 $605 forward 7 unknown #
coedge $-1 $504 $503 $551 $597 forward $354 $-1 #
coedge $-1 $569 $606 $503 $558 forward $433 $-1 #
edge $-1 $607 17.542331348338436 $564 31.909242314004885 $557 $608 forward 7 unknown #
coedge $-1 $609 $610 $504 $560 forward $583 $-1 #
edge $-1 $565 -31.909242314004885 $611 -17.542331348338436 $559 $612 forward 7 unknown #
coedge $-1 $567 $505 $610 $613 reversed $563 $-1 #
coedge $-1 $505 $567 $569 $614 reversed $563 $-1 #
loop $-1 $-1 $505 $549 #
vertex $-1 $614 $615 #
vertex $-1 $506 $616 #
straight-curve $-1 -56.635029145176546 -27.94803696715481 0 0 0 -1 I I #
coedge $-1 $562 $561 $507 $568 reversed $563 $-1 #
edge $-1 $570 -14.109700770523499 $617 14.109700770523499 $567 $618 forward 7 unknown #
coedge $-1 $508 $557 $562 $614 forward $433 $-1 #
vertex $-1 $614 $619 #
straight-curve $-1 0 -32.152871171396427 14.109700770523499 1 0 0 I I #
coedge $-1 $610 $519 $510 $573 forward $583 $-1 #
edge $-1 $521 -56.635029145176546 $617 56.635029145176546 $510 $620 forward 7 unknown #
coedge $-1 $621 $511 $582 $622 reversed $576 $-1 #
coedge $-1 $511 $621 $513 $580 reversed $576 $-1 #
loop $-1 $-1 $511 $623 #
vertex $-1 $520 $624 #
straight-curve $-1 56.635029145176546 32.152871171396427 0 0 0 -1 I I #
coedge $-1 $599 $513 $625 $626 forward $433 $-1 #
edge $-1 $514 -56.635029145176546 $627 56.635029145176546 $575 $628 forward 7 unknown #
point $-1 56.635029145176546 32.152871171396427 14.109700770523499 #
coedge $-1 $519 $629 $574 $622 forward $583 $-1 #
loop $-1 $-1 $601 $593 #
straight-curve $-1 56.635029145176546 0 -14.109700770523499 0 -1 0 I I #
point $-1 56.635029145176546 -32.152871171396427 -14.109700770523499 #
straight-curve $-1 56.635029145176546 32.152871171396427 0 0 0 -1 I I #
straight-curve $-1 -42.268118179510097 -12.846710791930565 14.109700770523499 0 -1 0 I I #
straight-curve $-1 -42.268118179510097 -12.846710791930565 -14.109700770523499 0 1 0 I I #
straight-curve $-1 -56.635029145176546 -23.438806200567452 0 0 0 1 I I #
point $-1 -56.635029145176546 -23.438806200567452 14.109700770523499 #
point $-1 -56.635029145176546 -23.438806200567452 -14.109700770523499 #
straight-curve $-1 -56.635029145176546 32.152871171396427 0 0 0 -1 I I #
face $-1 $630 $583 $15 $-1 $631 reversed single #
plane-surface $-1 -56.635029145176546 0 0 1 0 0 0 0 -1 forward_v I I I I #
coedge $-1 $554 $551 $606 $632 reversed $500 $-1 #
coedge $-1 $551 $554 $609 $633 reversed $500 $-1 #
edge $-1 $607 -14.109700770523499 $611 14.109700770523499 $551 $634 forward 7 unknown #
coedge $-1 $553 $552 $635 $636 reversed $424 $-1 #
coedge $-1 $606 $579 $552 $600 forward $433 $-1 #
edge $-1 $637 -31.909242314004885 $603 -17.542331348338436 $599 $638 forward 7 unknown #
coedge $-1 $629 $609 $553 $602 forward $583 $-1 #
edge $-1 $604 17.542331348338436 $639 31.909242314004885 $601 $640 forward 7 unknown #
vertex $-1 $600 $641 #
vertex $-1 $602 $642 #
straight-curve $-1 -42.268118179510097 -23.438806200567452 0 0 0 -1 I I #
coedge $-1 $557 $599 $595 $632 forward $433 $-1 #
vertex $-1 $558 $643 #
straight-curve $-1 -24.725786831171661 -27.94803696715481 14.109700770523499 -1 0 0 I I #
coedge $-1 $601 $559 $596 $633 forward $583 $-1 #
coedge $-1 $559 $572 $561 $613 forward $583 $-1 #
vertex $-1 $560 $644 #
straight-curve $-1 -24.725786831171661 -27.94803696715481 -14.109700770523499 1 0 0 I I #
edge $-1 $617 -32.152871171396427 $565 -27.94803696715481 $561 $645 forward 7 unknown #
edge $-1 $564 27.94803696715481 $570 32.152871171396427 $562 $646 forward 7 unknown #
point $-1 -56.635029145176546 -27.94803696715481 14.109700770523499 #
point $-1 -56.635029145176546 -27.94803696715481 -14.109700770523499 #
vertex $-1 $613 $647 #
straight-curve $-1 -56.635029145176546 -32.152871171396427 0 0 0 -1 I I #
point $-1 -56.635029145176546 -32.152871171396427 14.109700770523499 #
straight-curve $-1 0 -32.152871171396427 -14.109700770523499 -1 0 0 I I #
coedge $-1 $575 $574 $648 $649 reversed $576 $-1 #
edge $-1 $650 -56.635029145176546 $577 56.635029145176546 $574 $651 forward 7 unknown #
face $-1 $-1 $576 $15 $-1 $652 reversed single #
point $-1 56.635029145176546 32.152871171396427 -14.109700770523499 #
coedge $-1 $648 $635 $579 $626 reversed $653 $-1 #
edge $-1 $627 -32.152871171396427 $637 23.438806200567452 $625 $646 forward 7 unknown #
vertex $-1 $580 $654 #
straight-curve $-1 0 32.152871171396427 14.109700770523499 -1 0 0 I I #
coedge $-1 $582 $601 $655 $656 forward $583 $-1 #
face $-1 $623 $653 $15 $-1 $594 reversed single #
plane-surface $-1 0 0 -14.109700770523499 0 0 1 1 0 0 forward_v I I I I #
edge $-1 $603 10.592095408636887 $607 15.101326175224244 $606 $657 forward 7 unknown #
edge $-1 $611 -15.101326175224244 $604 -10.592095408636887 $609 $658 forward 7 unknown #
straight-curve $-1 -42.268118179510097 -27.94803696715481 0 0 0 -1 I I #
coedge $-1 $625 $655 $598 $636 forward $653 $-1 #
edge $-1 $639 -14.109700770523499 $637 14.109700770523499 $635 $659 forward 7 unknown #
vertex $-1 $636 $660 #
straight-curve $-1 -24.725786831171661 -23.438806200567452 14.109700770523499 1 0 0 I I #
vertex $-1 $656 $661 #
straight-curve $-1 -24.725786831171661 -23.438806200567452 -14.109700770523499 -1 0 0 I I #
point $-1 -42.268118179510097 -23.438806200567452 14.109700770523499 #
point $-1 -42.268118179510097 -23.438806200567452 -14.109700770523499 #
point $-1 -42.268118179510097 -27.94803696715481 14.109700770523499 #
point $-1 -42.268118179510097 -27.94803696715481 -14.109700770523499 #
straight-curve $-1 -56.635029145176546 0 -14.109700770523499 0 1 0 I I #
straight-curve $-1 -56.635029145176546 0 14.109700770523499 0 -1 0 I I #
point $-1 -56.635029145176546 -32.152871171396427 -14.109700770523499 #
coedge $-1 $655 $625 $621 $649 forward $653 $-1 #
edge $-1 $627 -14.109700770523499 $650 14.109700770523499 $621 $662 forward 7 unknown #
vertex $-1 $622 $663 #
straight-curve $-1 0 32.152871171396427 -14.109700770523499 1 0 0 I I #
plane-surface $-1 0 32.152871171396427 0 0 -1 0 0 0 -1 forward_v I I I I #
loop $-1 $-1 $635 $630 #
point $-1 -56.635029145176546 32.152871171396427 14.109700770523499 #
coedge $-1 $635 $648 $629 $656 reversed $653 $-1 #
edge $-1 $639 -23.438806200567452 $650 32.152871171396427 $655 $645 forward 7 unknown #
straight-curve $-1 -42.268118179510097 -12.846710791930565 14.109700770523499 0 -1 0 I I #
straight-curve $-1 -42.268118179510097 -12.846710791930565 -14.109700770523499 0 1 0 I I #
straight-curve $-1 -56.635029145176546 -23.438806200567452 0 0 0 1 I I #
point $-1 -56.635029145176546 -23.438806200567452 14.109700770523499 #
point $-1 -56.635029145176546 -23.438806200567452 -14.109700770523499 #
straight-curve $-1 -56.635029145176546 32.152871171396427 0 0 0 -1 I I #
point $-1 -56.635029145176546 32.152871171396427 -14.109700770523499 #
End-of-ACIS-data 