500 0 13 0           
7 Unknown 11 ACIS 5.0 NT 24 Thu Mar 25 17:09:35 1999 
-1 9.9999999999999995e-007 1e-010 
body $-1 $13 $-1 $14 #
body $-1 $15 $-1 $16 #
body $-1 $17 $-1 $18 #
body $-1 $19 $-1 $20 #
body $-1 $21 $-1 $22 #
body $-1 $23 $-1 $24 #
body $-1 $25 $-1 $26 #
body $-1 $27 $-1 $28 #
body $-1 $29 $-1 $30 #
body $-1 $31 $-1 $32 #
body $-1 $33 $-1 $34 #
body $-1 $35 $-1 $36 #
body $-1 $37 $-1 $38 #
lump $-1 $-1 $39 $0 #
transform $-1 1 0 0 0 1 0 0 0 1 42.260811181981872 28.489902669351022 11.541075504689616 1 rotate no_reflect no_shear #
lump $-1 $-1 $40 $1 #
transform $-1 1 0 0 0 1 0 0 0 1 42.260811181981872 28.489902669351022 11.541075504689616 1 rotate no_reflect no_shear #
lump $-1 $-1 $41 $2 #
transform $-1 1 0 0 0 1 0 0 0 1 42.260811181981872 28.489902669351022 11.541075504689616 1 rotate no_reflect no_shear #
lump $-1 $-1 $42 $3 #
transform $-1 1 0 0 0 1 0 0 0 1 42.260811181981872 28.489902669351022 11.541075504689616 1 rotate no_reflect no_shear #
lump $-1 $-1 $43 $4 #
transform $-1 1 0 0 0 1 0 0 0 1 42.260811181981872 28.489902669351022 11.541075504689616 1 rotate no_reflect no_shear #
lump $-1 $-1 $44 $5 #
transform $-1 1 0 0 0 1 0 0 0 1 42.260811181981872 28.489902669351022 11.541075504689616 1 rotate no_reflect no_shear #
lump $-1 $-1 $45 $6 #
transform $-1 1 0 0 0 1 0 0 0 1 42.260811181981872 28.489902669351022 11.541075504689616 1 rotate no_reflect no_shear #
lump $-1 $-1 $46 $7 #
transform $-1 1 0 0 0 1 0 0 0 1 42.260811181981872 28.489902669351022 11.541075504689616 1 rotate no_reflect no_shear #
lump $-1 $-1 $47 $8 #
transform $-1 1 0 0 0 1 0 0 0 1 42.260811181981872 28.489902669351022 11.541075504689616 1 rotate no_reflect no_shear #
lump $-1 $-1 $48 $9 #
transform $-1 1 0 0 0 1 0 0 0 1 42.260811181981872 28.489902669351022 11.541075504689616 1 rotate no_reflect no_shear #
lump $-1 $-1 $49 $10 #
transform $-1 1 0 0 0 1 0 0 0 1 42.260811181981872 28.489902669351022 11.541075504689616 1 rotate no_reflect no_shear #
lump $-1 $-1 $50 $11 #
transform $-1 1 0 0 0 1 0 0 0 1 42.260811181981872 28.489902669351022 11.541075504689616 1 rotate no_reflect no_shear #
lump $-1 $-1 $51 $12 #
transform $-1 1 0 0 0 1 0 0 0 1 42.260811181981872 28.489902669351022 11.541075504689616 1 rotate no_reflect no_shear #
shell $-1 $-1 $-1 $52 $-1 $13 #
shell $-1 $-1 $-1 $53 $-1 $15 #
shell $-1 $-1 $-1 $54 $-1 $17 #
shell $-1 $-1 $-1 $55 $-1 $19 #
shell $-1 $-1 $-1 $56 $-1 $21 #
shell $-1 $-1 $-1 $57 $-1 $23 #
shell $-1 $-1 $-1 $58 $-1 $25 #
shell $-1 $-1 $-1 $59 $-1 $27 #
shell $-1 $-1 $-1 $60 $-1 $29 #
shell $-1 $-1 $-1 $61 $-1 $31 #
shell $-1 $-1 $-1 $62 $-1 $33 #
shell $-1 $-1 $-1 $63 $-1 $35 #
shell $-1 $-1 $-1 $64 $-1 $37 #
face $-1 $65 $66 $39 $-1 $67 forward single #
face $-1 $68 $69 $40 $-1 $70 forward single #
face $-1 $71 $72 $41 $-1 $73 reversed single #
face $-1 $74 $75 $42 $-1 $76 forward single #
face $-1 $77 $78 $43 $-1 $79 forward single #
face $-1 $80 $81 $44 $-1 $82 forward single #
face $-1 $83 $84 $45 $-1 $85 reversed single #
face $-1 $86 $87 $46 $-1 $88 forward single #
face $-1 $89 $90 $47 $-1 $91 forward single #
face $-1 $92 $93 $48 $-1 $94 forward single #
face $-1 $95 $96 $49 $-1 $97 reversed single #
face $-1 $98 $99 $50 $-1 $100 forward single #
face $-1 $101 $102 $51 $-1 $103 forward single #
face $-1 $104 $105 $39 $-1 $106 reversed single #
loop $-1 $-1 $107 $52 #
plane-surface $-1 0 0 11.541075504689616 0 0 1 1 0 0 forward_v I I I I #
face $-1 $108 $109 $40 $-1 $110 reversed single #
loop $-1 $-1 $111 $53 #
plane-surface $-1 0 -28.489902669351022 0 0 1 0 0 0 1 forward_v I I I I #
face $-1 $112 $113 $41 $-1 $114 reversed single #
loop $-1 $-1 $115 $54 #
plane-surface $-1 -90.740422756913603 -10.330094754116971 72.993486091620014 0 1 0 -0.57357644374324357 0 0.81915203911291934 forward_v I I I I #
face $-1 $116 $117 $42 $-1 $118 forward single #
loop $-1 $119 $120 $55 #
cone-surface $-1 -36.140384786219535 -8.9384293977993394 6.8461674043598606 0.57357644374324357 0 -0.81915203911291934 0.40957601955645967 0 0.28678822187162178 1 I I 0 1 0.5 forward I I I I #
face $-1 $121 $122 $43 $-1 $123 forward single #
loop $-1 $124 $125 $56 #
cone-surface $-1 -36.140384786219535 -6.8509313633228928 6.8461674043598606 0.57357644374324357 0 -0.81915203911291934 0.40957601955645967 0 0.28678822187162178 1 I I 0 1 0.5 forward I I I I #
face $-1 $126 $127 $44 $-1 $128 forward single #
loop $-1 $129 $130 $57 #
cone-surface $-1 -36.140384786219535 -4.7634333288464461 6.8461674043598606 0.57357644374324357 0 -0.81915203911291934 0.40957601955645967 0 0.28678822187162178 1 I I 0 1 0.5 forward I I I I #
face $-1 $131 $132 $45 $-1 $133 reversed single #
loop $-1 $-1 $134 $58 #
plane-surface $-1 -90.740422756913603 15.287348154565347 72.993486091620014 0 1 0 -0.57357644374324357 0 0.81915203911291934 forward_v I I I I #
face $-1 $135 $136 $46 $-1 $137 forward single #
loop $-1 $138 $139 $59 #
cone-surface $-1 -36.140384786219535 16.679013510882985 6.8461674043598606 0.57357644374324357 0 -0.81915203911291934 0.40957601955645967 0 0.28678822187162178 1 I I 0 1 0.5 forward I I I I #
face $-1 $140 $141 $47 $-1 $142 forward single #
loop $-1 $143 $144 $60 #
cone-surface $-1 -36.140384786219535 18.766511545359425 6.8461674043598606 0.57357644374324357 0 -0.81915203911291934 0.40957601955645967 0 0.28678822187162178 1 I I 0 1 0.5 forward I I I I #
face $-1 $145 $146 $48 $-1 $147 forward single #
loop $-1 $148 $149 $61 #
cone-surface $-1 -36.140384786219535 20.854009579835878 6.8461674043598606 0.57357644374324357 0 -0.81915203911291934 0.40957601955645967 0 0.28678822187162178 1 I I 0 1 0.5 forward I I I I #
face $-1 $150 $151 $49 $-1 $152 reversed single #
loop $-1 $-1 $153 $62 #
plane-surface $-1 67.112835089738383 19.075746275288065 117.65593853340184 0 1 0 0.83867057594974714 0 0.54463902268945019 forward_v I I I I #
face $-1 $154 $155 $50 $-1 $156 forward single #
loop $-1 $157 $158 $63 #
cone-surface $-1 37.401245866579167 21.765505245020339 5.2612186576925755 -0.83867057594974714 0 -0.54463902268945019 0.54463902268945019 0 -0.83867057594974714 1 I I 0 1 1 forward I I I I #
face $-1 $159 $160 $51 $-1 $161 forward single #
loop $-1 $162 $163 $64 #
cone-surface $-1 37.401245866579167 25.800143699618747 5.2612186576925755 -0.83867057594974714 0 -0.54463902268945019 0.54463902268945019 0 -0.83867057594974714 1 I I 0 1 1 forward I I I I #
face $-1 $164 $165 $39 $-1 $166 reversed single #
loop $-1 $-1 $167 $65 #
plane-surface $-1 0 0 -11.541075504689616 0 0 1 1 0 0 forward_v I I I I #
coedge $-1 $168 $169 $170 $171 forward $66 $-1 #
face $-1 $172 $173 $40 $-1 $174 reversed single #
loop $-1 $-1 $175 $68 #
plane-surface $-1 0 0 -11.541075504689616 0 0 1 1 0 0 forward_v I I I I #
coedge $-1 $176 $177 $178 $179 forward $69 $-1 #
face $-1 $180 $181 $41 $-1 $182 reversed single #
loop $-1 $-1 $183 $71 #
plane-surface $-1 -42.260811181981865 -6.8509313633228928 3.7574267830469807 -0.57357644374324357 0 0.81915203911291934 0.81915203911291934 0 0.57357644374324357 forward_v I I I I #
coedge $-1 $184 $185 $186 $187 reversed $72 $-1 #
face $-1 $-1 $188 $42 $-1 $189 forward single #
loop $-1 $190 $191 $74 #
cone-surface $-1 -35.434665376265841 -8.9384293977993394 5.8382956550731855 0.57357644374324357 0 -0.81915203911291934 0.20478800977822983 0 0.14339411093581089 1 I I -0.70710678118654624 0.70710678118654879 0.25 forward I I I I #
loop $-1 $-1 $192 $55 #
coedge $-1 $120 $120 $193 $194 reversed $75 $-1 #
face $-1 $-1 $195 $43 $-1 $196 forward single #
loop $-1 $197 $198 $77 #
cone-surface $-1 -35.434665376265841 -6.8509313633228928 5.8382956550731855 0.57357644374324357 0 -0.81915203911291934 0.20478800977822983 0 0.14339411093581089 1 I I -0.70710678118654624 0.70710678118654879 0.25 forward I I I I #
loop $-1 $-1 $199 $56 #
coedge $-1 $125 $125 $200 $201 reversed $78 $-1 #
face $-1 $-1 $202 $44 $-1 $203 forward single #
loop $-1 $204 $205 $80 #
cone-surface $-1 -35.434665376265841 -4.7634333288464461 5.8382956550731855 0.57357644374324357 0 -0.81915203911291934 0.20478800977822983 0 0.14339411093581089 1 I I -0.70710678118654624 0.70710678118654879 0.25 forward I I I I #
loop $-1 $-1 $206 $57 #
coedge $-1 $130 $130 $207 $208 reversed $81 $-1 #
face $-1 $209 $210 $45 $-1 $211 reversed single #
loop $-1 $-1 $212 $83 #
plane-surface $-1 -42.260811181981865 18.766511545359425 3.7574267830469807 -0.57357644374324357 0 0.81915203911291934 0.81915203911291934 0 0.57357644374324357 forward_v I I I I #
coedge $-1 $213 $214 $215 $216 reversed $84 $-1 #
face $-1 $-1 $217 $46 $-1 $218 forward single #
loop $-1 $219 $220 $86 #
cone-surface $-1 -35.434665376265841 16.679013510882985 5.8382956550731855 0.57357644374324357 0 -0.81915203911291934 0.20478800977822983 0 0.14339411093581089 1 I I -0.70710678118654624 0.70710678118654879 0.25 forward I I I I #
loop $-1 $-1 $221 $59 #
coedge $-1 $139 $139 $222 $223 reversed $87 $-1 #
face $-1 $-1 $224 $47 $-1 $225 forward single #
loop $-1 $226 $227 $89 #
cone-surface $-1 -35.434665376265841 18.766511545359425 5.8382956550731855 0.57357644374324357 0 -0.81915203911291934 0.20478800977822983 0 0.14339411093581089 1 I I -0.70710678118654624 0.70710678118654879 0.25 forward I I I I #
loop $-1 $-1 $228 $60 #
coedge $-1 $144 $144 $229 $230 reversed $90 $-1 #
face $-1 $-1 $231 $48 $-1 $232 forward single #
loop $-1 $233 $234 $92 #
cone-surface $-1 -35.434665376265841 20.854009579835878 5.8382956550731855 0.57357644374324357 0 -0.81915203911291934 0.20478800977822983 0 0.14339411093581089 1 I I -0.70710678118654624 0.70710678118654879 0.25 forward I I I I #
loop $-1 $-1 $235 $61 #
coedge $-1 $149 $149 $236 $237 reversed $93 $-1 #
face $-1 $238 $239 $49 $-1 $240 reversed single #
loop $-1 $-1 $241 $95 #
plane-surface $-1 -3.7729626184541019 23.782824472319543 71.622164732965857 0.83867057594974714 0 0.54463902268945019 0.54463902268945019 0 -0.83867057594974714 forward_v I I I I #
coedge $-1 $242 $243 $244 $245 reversed $96 $-1 #
face $-1 $-1 $246 $50 $-1 $247 forward single #
loop $-1 $248 $249 $98 #
cone-surface $-1 35.630675014893392 21.765505245020339 4.1113965393089345 -0.83867057594974714 0 -0.54463902268945019 0.2723195113447251 0 -0.41933528797487357 1 I I -0.70710678118654746 0.70710678118654746 0.5 forward I I I I #
loop $-1 $-1 $250 $63 #
coedge $-1 $158 $158 $251 $252 reversed $99 $-1 #
face $-1 $-1 $253 $51 $-1 $254 forward single #
loop $-1 $255 $256 $101 #
cone-surface $-1 35.630675014893392 25.800143699618747 4.1113965393089345 -0.83867057594974714 0 -0.54463902268945019 0.2723195113447251 0 -0.41933528797487357 1 I I -0.70710678118654746 0.70710678118654746 0.5 forward I I I I #
loop $-1 $-1 $257 $64 #
coedge $-1 $163 $163 $258 $259 reversed $102 $-1 #
face $-1 $260 $261 $39 $-1 $262 reversed single #
loop $-1 $-1 $263 $104 #
plane-surface $-1 0 -28.489902669351022 0 0 1 0 0 0 1 forward_v I I I I #
coedge $-1 $264 $265 $266 $267 forward $105 $-1 #
coedge $-1 $268 $107 $269 $270 forward $66 $-1 #
coedge $-1 $107 $268 $271 $272 forward $66 $-1 #
coedge $-1 $273 $274 $107 $171 reversed $275 $-1 #
edge $-1 $276 -28.489902669351022 $277 28.489902669351022 $170 $278 forward 7 unknown #
face $-1 $279 $280 $40 $-1 $281 forward single #
loop $-1 $-1 $282 $108 #
plane-surface $-1 42.260811181981872 0 0 -1 0 0 0 0 1 forward_v I I I I #
coedge $-1 $283 $284 $285 $286 forward $109 $-1 #
coedge $-1 $285 $111 $282 $287 reversed $69 $-1 #
coedge $-1 $111 $285 $288 $289 reversed $69 $-1 #
coedge $-1 $290 $291 $111 $179 reversed $280 $-1 #
edge $-1 $292 -42.260811181981872 $293 42.260811181981872 $178 $294 forward 7 unknown #
face $-1 $295 $296 $41 $-1 $297 forward single #
loop $-1 $-1 $298 $112 #
plane-surface $-1 -90.740422756913603 -3.371767972528815 72.993486091620014 0 -1 0 0.57357644374324357 0 -0.81915203911291934 forward_v I I I I #
coedge $-1 $299 $300 $301 $302 reversed $113 $-1 #
coedge $-1 $185 $115 $303 $304 reversed $72 $-1 #
coedge $-1 $115 $184 $299 $305 reversed $72 $-1 #
coedge $-1 $301 $306 $115 $187 forward $296 $-1 #
edge $-1 $307 3.1094001964749296 $308 14.225602389963882 $186 $309 forward 7 unknown #
loop $-1 $-1 $193 $116 #
plane-surface $-1 -42.260811181981865 -6.8509313633228928 3.7574267830469807 -0.57357644374324357 0 0.81915203911291934 0.81915203911291934 0 0.57357644374324357 forward_v I I I I #
loop $-1 $-1 $310 $74 #
coedge $-1 $191 $191 $192 $311 reversed $117 $-1 #
coedge $-1 $192 $192 $191 $311 forward $119 $-1 #
coedge $-1 $193 $193 $120 $194 forward $188 $-1 #
edge $-1 $312 0 $312 6.2831853071796004 $193 $313 forward 7 unknown #
loop $-1 $-1 $200 $121 #
plane-surface $-1 -42.260811181981865 -6.8509313633228928 3.7574267830469807 -0.57357644374324357 0 0.81915203911291934 0.81915203911291934 0 0.57357644374324357 forward_v I I I I #
loop $-1 $-1 $314 $77 #
coedge $-1 $198 $198 $199 $315 reversed $122 $-1 #
coedge $-1 $199 $199 $198 $315 forward $124 $-1 #
coedge $-1 $200 $200 $125 $201 forward $195 $-1 #
edge $-1 $316 0 $316 6.2831853071796004 $200 $317 forward 7 unknown #
loop $-1 $-1 $207 $126 #
plane-surface $-1 -42.260811181981865 -6.8509313633228928 3.7574267830469807 -0.57357644374324357 0 0.81915203911291934 0.81915203911291934 0 0.57357644374324357 forward_v I I I I #
loop $-1 $-1 $318 $80 #
coedge $-1 $205 $205 $206 $319 reversed $127 $-1 #
coedge $-1 $206 $206 $205 $319 forward $129 $-1 #
coedge $-1 $207 $207 $130 $208 forward $202 $-1 #
edge $-1 $320 0 $320 6.2831853071796004 $207 $321 forward 7 unknown #
face $-1 $322 $323 $45 $-1 $324 forward single #
loop $-1 $-1 $325 $131 #
plane-surface $-1 -90.740422756913603 22.245674936153502 72.993486091620014 0 -1 0 0.57357644374324357 0 -0.81915203911291934 forward_v I I I I #
coedge $-1 $326 $327 $328 $329 reversed $132 $-1 #
coedge $-1 $214 $134 $330 $331 reversed $84 $-1 #
coedge $-1 $134 $213 $326 $332 reversed $84 $-1 #
coedge $-1 $328 $333 $134 $216 forward $323 $-1 #
edge $-1 $334 3.1094001964749296 $335 14.225602389963882 $215 $336 forward 7 unknown #
loop $-1 $-1 $222 $135 #
plane-surface $-1 -42.260811181981865 18.766511545359425 3.7574267830469807 -0.57357644374324357 0 0.81915203911291934 0.81915203911291934 0 0.57357644374324357 forward_v I I I I #
loop $-1 $-1 $337 $86 #
coedge $-1 $220 $220 $221 $338 reversed $136 $-1 #
coedge $-1 $221 $221 $220 $338 forward $138 $-1 #
coedge $-1 $222 $222 $139 $223 forward $217 $-1 #
edge $-1 $339 0 $339 6.2831853071796004 $222 $340 forward 7 unknown #
loop $-1 $-1 $229 $140 #
plane-surface $-1 -42.260811181981865 18.766511545359425 3.7574267830469807 -0.57357644374324357 0 0.81915203911291934 0.81915203911291934 0 0.57357644374324357 forward_v I I I I #
loop $-1 $-1 $341 $89 #
coedge $-1 $227 $227 $228 $342 reversed $141 $-1 #
coedge $-1 $228 $228 $227 $342 forward $143 $-1 #
coedge $-1 $229 $229 $144 $230 forward $224 $-1 #
edge $-1 $343 0 $343 6.2831853071796004 $229 $344 forward 7 unknown #
loop $-1 $-1 $236 $145 #
plane-surface $-1 -42.260811181981865 18.766511545359425 3.7574267830469807 -0.57357644374324357 0 0.81915203911291934 0.81915203911291934 0 0.57357644374324357 forward_v I I I I #
loop $-1 $-1 $345 $92 #
coedge $-1 $234 $234 $235 $346 reversed $146 $-1 #
coedge $-1 $235 $235 $234 $346 forward $148 $-1 #
coedge $-1 $236 $236 $149 $237 forward $231 $-1 #
edge $-1 $347 0 $347 6.2831853071796004 $236 $348 forward 7 unknown #
face $-1 $349 $350 $49 $-1 $351 forward single #
loop $-1 $-1 $352 $150 #
plane-surface $-1 0 28.489902669351022 0 0 -1 0 0 0 -1 forward_v I I I I #
coedge $-1 $353 $354 $355 $356 reversed $151 $-1 #
coedge $-1 $243 $153 $357 $358 reversed $96 $-1 #
coedge $-1 $153 $242 $353 $359 reversed $96 $-1 #
coedge $-1 $355 $360 $153 $245 forward $361 $-1 #
edge $-1 $362 47.286893762011303 $363 58.091602241927546 $244 $364 forward 7 unknown #
loop $-1 $-1 $251 $154 #
plane-surface $-1 -3.7729626184541019 23.782824472319543 71.622164732965857 0.83867057594974714 0 0.54463902268945019 0.54463902268945019 0 -0.83867057594974714 forward_v I I I I #
loop $-1 $-1 $365 $98 #
coedge $-1 $249 $249 $250 $366 reversed $155 $-1 #
coedge $-1 $250 $250 $249 $366 forward $157 $-1 #
coedge $-1 $251 $251 $158 $252 forward $246 $-1 #
edge $-1 $367 0 $367 6.2831853071796004 $251 $368 forward 7 unknown #
loop $-1 $-1 $258 $159 #
plane-surface $-1 -3.7729626184541019 23.782824472319543 71.622164732965857 0.83867057594974714 0 0.54463902268945019 0.54463902268945019 0 -0.83867057594974714 forward_v I I I I #
loop $-1 $-1 $369 $101 #
coedge $-1 $256 $256 $257 $370 reversed $160 $-1 #
coedge $-1 $257 $257 $256 $370 forward $162 $-1 #
coedge $-1 $258 $258 $163 $259 forward $253 $-1 #
edge $-1 $371 0 $371 6.2831853071796004 $258 $372 forward 7 unknown #
face $-1 $373 $374 $39 $-1 $375 reversed single #
loop $-1 $-1 $376 $164 #
plane-surface $-1 -42.260811181981872 0 0 1 0 0 0 0 -1 forward_v I I I I #
coedge $-1 $271 $377 $273 $378 reversed $165 $-1 #
coedge $-1 $379 $167 $377 $380 forward $105 $-1 #
coedge $-1 $167 $379 $381 $382 forward $105 $-1 #
coedge $-1 $274 $273 $167 $267 reversed $275 $-1 #
edge $-1 $383 -28.489902669351022 $384 28.489902669351022 $266 $385 forward 7 unknown #
coedge $-1 $169 $168 $386 $387 forward $66 $-1 #
coedge $-1 $388 $389 $168 $270 reversed $374 $-1 #
edge $-1 $277 -42.260811181981872 $390 42.260811181981872 $269 $391 forward 7 unknown #
coedge $-1 $392 $263 $169 $272 reversed $165 $-1 #
edge $-1 $393 -42.260811181981872 $276 42.260811181981872 $271 $394 forward 7 unknown #
coedge $-1 $266 $170 $263 $378 forward $275 $-1 #
coedge $-1 $170 $266 $388 $395 reversed $275 $-1 #
loop $-1 $-1 $273 $373 #
vertex $-1 $171 $396 #
vertex $-1 $171 $397 #
straight-curve $-1 42.260811181981872 0 11.541075504689616 0 1 0 I I #
face $-1 $398 $399 $40 $-1 $400 reversed single #
loop $-1 $-1 $291 $172 #
plane-surface $-1 0 -34.447692760369286 -5.179694704183035 0 0 1 1 0 0 forward_v I I I I #
coedge $-1 $401 $402 $176 $287 forward $173 $-1 #
coedge $-1 $403 $175 $402 $404 forward $109 $-1 #
coedge $-1 $175 $403 $405 $406 forward $109 $-1 #
coedge $-1 $177 $176 $175 $286 reversed $69 $-1 #
edge $-1 $407 -42.260811181981872 $408 42.260811181981872 $175 $409 forward 7 unknown #
edge $-1 $408 -11.541075504689616 $293 -5.179694704183035 $282 $410 forward 7 unknown #
coedge $-1 $405 $411 $177 $289 forward $412 $-1 #
edge $-1 $292 5.179694704183035 $407 11.541075504689616 $288 $413 forward 7 unknown #
coedge $-1 $414 $178 $411 $415 forward $280 $-1 #
coedge $-1 $178 $414 $401 $416 forward $280 $-1 #
vertex $-1 $289 $417 #
vertex $-1 $416 $418 #
straight-curve $-1 0 -28.489902669351022 -5.179694704183035 1 0 0 I I #
face $-1 $-1 $419 $41 $-1 $420 reversed single #
loop $-1 $-1 $186 $180 #
plane-surface $-1 0 0 11.541075504689616 0 0 1 1 0 0 forward_v I I I I #
coedge $-1 $421 $422 $423 $424 reversed $181 $-1 #
coedge $-1 $425 $183 $185 $305 forward $113 $-1 #
coedge $-1 $183 $425 $421 $426 forward $113 $-1 #
coedge $-1 $423 $186 $183 $302 forward $296 $-1 #
edge $-1 $308 -6.9046290724555242 $427 0.053697709132631388 $301 $428 forward 7 unknown #
coedge $-1 $429 $430 $184 $304 forward $419 $-1 #
edge $-1 $431 -32.739316262763033 $307 -24.955667541120391 $303 $432 forward 7 unknown #
edge $-1 $308 -13.570377247094402 $431 8.6223355153435888e-015 $185 $433 forward 7 unknown #
coedge $-1 $186 $423 $429 $434 forward $296 $-1 #
vertex $-1 $304 $435 #
vertex $-1 $187 $436 #
straight-curve $-1 -45.370211378456801 -10.330094754116971 11.541075504689616 1 0 0 I I #
coedge $-1 $310 $310 $-1 $437 reversed $190 $-1 #
edge $-1 $438 0 $438 6.2831853071796004 $191 $439 forward 7 unknown #
vertex $-1 $194 $440 #
ellipse-curve $-1 -36.702710085237406 -8.9384293977993394 7.6492511438682893 -0.57357644374324357 0 0.81915203911291934 0.40957601955645967 0 0.28678822187162178 1 I I #
coedge $-1 $314 $314 $-1 $441 reversed $197 $-1 #
edge $-1 $442 0 $442 6.2831853071796004 $198 $443 forward 7 unknown #
vertex $-1 $201 $444 #
ellipse-curve $-1 -36.702710085237406 -6.8509313633228928 7.6492511438682893 -0.57357644374324357 0 0.81915203911291934 0.40957601955645967 0 0.28678822187162178 1 I I #
coedge $-1 $318 $318 $-1 $445 reversed $204 $-1 #
edge $-1 $446 0 $446 6.2831853071796004 $205 $447 forward 7 unknown #
vertex $-1 $208 $448 #
ellipse-curve $-1 -36.702710085237406 -4.7634333288464461 7.6492511438682893 -0.57357644374324357 0 0.81915203911291934 0.40957601955645967 0 0.28678822187162178 1 I I #
face $-1 $-1 $449 $45 $-1 $450 reversed single #
loop $-1 $-1 $215 $209 #
plane-surface $-1 0 0 11.541075504689616 0 0 1 1 0 0 forward_v I I I I #
coedge $-1 $451 $452 $453 $454 reversed $210 $-1 #
coedge $-1 $455 $212 $214 $332 forward $132 $-1 #
coedge $-1 $212 $455 $451 $456 forward $132 $-1 #
coedge $-1 $453 $215 $212 $329 forward $323 $-1 #
edge $-1 $335 5.9040923818856346 $457 12.86241916347379 $328 $458 forward 7 unknown #
coedge $-1 $459 $460 $213 $331 forward $449 $-1 #
edge $-1 $461 -32.739316262763033 $334 -24.955667541120391 $330 $462 forward 7 unknown #
edge $-1 $335 -13.570377247094402 $461 8.6223355153435888e-015 $214 $463 forward 7 unknown #
coedge $-1 $215 $453 $459 $464 forward $323 $-1 #
vertex $-1 $216 $465 #
vertex $-1 $216 $466 #
straight-curve $-1 -45.370211378456801 15.287348154565347 11.541075504689616 1 0 0 I I #
coedge $-1 $337 $337 $-1 $467 reversed $219 $-1 #
edge $-1 $468 0 $468 6.2831853071796004 $220 $469 forward 7 unknown #
vertex $-1 $223 $470 #
ellipse-curve $-1 -36.702710085237406 16.679013510882985 7.6492511438682893 -0.57357644374324357 0 0.81915203911291934 0.40957601955645967 0 0.28678822187162178 1 I I #
coedge $-1 $341 $341 $-1 $471 reversed $226 $-1 #
edge $-1 $472 0 $472 6.2831853071796004 $227 $473 forward 7 unknown #
vertex $-1 $230 $474 #
ellipse-curve $-1 -36.702710085237406 18.766511545359425 7.6492511438682893 -0.57357644374324357 0 0.81915203911291934 0.40957601955645967 0 0.28678822187162178 1 I I #
coedge $-1 $345 $345 $-1 $475 reversed $233 $-1 #
edge $-1 $476 0 $476 6.2831853071796004 $234 $477 forward 7 unknown #
vertex $-1 $237 $478 #
ellipse-curve $-1 -36.702710085237406 20.854009579835878 7.6492511438682893 -0.57357644374324357 0 0.81915203911291934 0.40957601955645967 0 0.28678822187162178 1 I I #
face $-1 $-1 $361 $49 $-1 $479 reversed single #
loop $-1 $-1 $480 $238 #
plane-surface $-1 0 0 11.541075504689616 0 0 1 1 0 0 forward_v I I I I #
coedge $-1 $481 $482 $354 $483 forward $239 $-1 #
coedge $-1 $484 $241 $243 $359 forward $151 $-1 #
coedge $-1 $241 $484 $352 $483 reversed $151 $-1 #
coedge $-1 $485 $244 $241 $356 forward $361 $-1 #
edge $-1 $363 7.1843340391282933 $486 16.598490433191252 $355 $487 forward 7 unknown #
coedge $-1 $488 $480 $242 $358 forward $350 $-1 #
edge $-1 $489 1.6877341337290801 $362 8.7043936371126804 $357 $490 forward 7 unknown #
edge $-1 $363 -84.521622363963729 $489 -71.638484705675779 $243 $491 forward 7 unknown #
coedge $-1 $244 $485 $488 $492 reversed $361 $-1 #
loop $-1 $-1 $355 $349 #
vertex $-1 $492 $493 #
vertex $-1 $245 $494 #
straight-curve $-1 42.260811181981872 19.075746275288065 58.827969266700919 0 0 -1 I I #
coedge $-1 $365 $365 $-1 $495 reversed $248 $-1 #
edge $-1 $496 0 $496 6.2831853071796004 $249 $497 forward 7 unknown #
vertex $-1 $252 $498 #
ellipse-curve $-1 38.752481430290068 21.765505245020339 6.138721264731493 0.83867057594974714 0 0.54463902268945019 0.54463902268945019 0 -0.83867057594974714 1 I I #
coedge $-1 $369 $369 $-1 $499 reversed $255 $-1 #
edge $-1 $500 0 $500 6.2831853071796004 $256 $501 forward 7 unknown #
vertex $-1 $259 $502 #
ellipse-curve $-1 38.752481430290068 25.800143699618747 6.138721264731493 0.83867057594974714 0 0.54463902268945019 0.54463902268945019 0 -0.83867057594974714 1 I I #
face $-1 $-1 $275 $39 $-1 $503 reversed single #
loop $-1 $-1 $388 $260 #
plane-surface $-1 0 28.489902669351022 0 0 -1 0 0 0 -1 forward_v I I I I #
coedge $-1 $504 $386 $389 $505 forward $261 $-1 #
coedge $-1 $263 $392 $264 $380 reversed $165 $-1 #
edge $-1 $276 -11.541075504689616 $384 11.541075504689616 $273 $506 forward 7 unknown #
coedge $-1 $265 $264 $504 $507 forward $105 $-1 #
edge $-1 $384 -42.260811181981872 $508 42.260811181981872 $377 $509 forward 7 unknown #
coedge $-1 $389 $388 $265 $382 reversed $374 $-1 #
edge $-1 $510 -42.260811181981872 $383 42.260811181981872 $381 $511 forward 7 unknown #
vertex $-1 $267 $512 #
vertex $-1 $378 $513 #
straight-curve $-1 42.260811181981872 0 -11.541075504689616 0 -1 0 I I #
coedge $-1 $376 $514 $268 $387 reversed $261 $-1 #
edge $-1 $390 -28.489902669351022 $393 28.489902669351022 $386 $515 forward 7 unknown #
coedge $-1 $381 $269 $274 $395 forward $374 $-1 #
coedge $-1 $269 $381 $376 $505 reversed $374 $-1 #
vertex $-1 $270 $516 #
straight-curve $-1 0 28.489902669351022 11.541075504689616 -1 0 0 I I #
coedge $-1 $377 $271 $514 $517 forward $165 $-1 #
vertex $-1 $387 $518 #
straight-curve $-1 0 -28.489902669351022 11.541075504689616 1 0 0 I I #
edge $-1 $277 -11.541075504689616 $383 11.541075504689616 $274 $519 forward 7 unknown #
point $-1 42.260811181981872 -28.489902669351022 11.541075504689616 #
point $-1 42.260811181981872 28.489902669351022 11.541075504689616 #
face $-1 $-1 $412 $40 $-1 $520 reversed single #
loop $-1 $-1 $521 $279 #
plane-surface $-1 0 -40.405482851387553 -8.3603851044363253 0 1 0 0 0 1 forward_v I I I I #
coedge $-1 $522 $282 $291 $416 reversed $173 $-1 #
coedge $-1 $282 $522 $283 $404 reversed $173 $-1 #
coedge $-1 $284 $283 $523 $524 forward $109 $-1 #
edge $-1 $408 28.489902669351022 $525 40.405482851387553 $402 $526 forward 7 unknown #
coedge $-1 $527 $288 $284 $406 reversed $412 $-1 #
edge $-1 $528 -40.405482851387553 $407 -28.489902669351022 $405 $529 forward 7 unknown #
vertex $-1 $289 $530 #
vertex $-1 $404 $531 #
straight-curve $-1 0 -28.489902669351022 -11.541075504689616 1 0 0 I I #
straight-curve $-1 42.260811181981872 -28.489902669351022 0 0 0 1 I I #
coedge $-1 $288 $527 $290 $415 reversed $412 $-1 #
loop $-1 $-1 $288 $398 #
straight-curve $-1 -42.260811181981872 -28.489902669351022 0 0 0 -1 I I #
coedge $-1 $291 $290 $532 $533 forward $280 $-1 #
edge $-1 $292 -5.9577900910182642 $534 5.9577900910182677 $411 $535 forward 7 unknown #
edge $-1 $536 -5.9577900910182677 $293 5.9577900910182642 $401 $537 forward 7 unknown #
point $-1 -42.260811181981872 -28.489902669351022 -5.179694704183035 #
point $-1 42.260811181981872 -28.489902669351022 -5.179694704183035 #
loop $-1 $-1 $303 $295 #
plane-surface $-1 -42.260811181981872 0 0 1 0 0 0 0 -1 forward_v I I I I #
coedge $-1 $422 $298 $300 $426 reversed $181 $-1 #
coedge $-1 $298 $421 $538 $539 reversed $181 $-1 #
coedge $-1 $306 $301 $298 $424 forward $296 $-1 #
edge $-1 $427 -14.225602389963882 $540 -3.1094001964749296 $423 $541 forward 7 unknown #
coedge $-1 $300 $299 $430 $542 reversed $113 $-1 #
edge $-1 $543 -8.6223355153435888e-015 $427 13.570377247094402 $421 $544 forward 7 unknown #
vertex $-1 $302 $545 #
straight-curve $-1 -31.144608988492919 -3.4254656816614464 11.541075504689616 0 1 0 I I #
coedge $-1 $538 $303 $306 $434 reversed $419 $-1 #
coedge $-1 $303 $538 $425 $542 forward $419 $-1 #
vertex $-1 $304 $546 #
straight-curve $-1 -42.260811181981872 -10.330094754116971 36.496743045810007 0 0 1 I I #
straight-curve $-1 -42.260811181981865 -10.330094754116971 3.7574267830469807 -0.81915203911291934 0 -0.57357644374324357 I I #
edge $-1 $540 3.371767972528815 $307 10.330094754116971 $429 $547 forward 7 unknown #
point $-1 -42.260811181981872 -10.330094754116971 11.541075504689616 #
point $-1 -31.144608988492919 -10.330094754116971 11.541075504689616 #
edge $-1 $548 1 $548 0 $310 $-1 forward 7 unknown #
vertex $-1 $311 $549 #
ellipse-curve $-1 -35.578059487201649 -8.9384293977993394 6.0430836648514159 -0.57357644374324357 0 0.81915203911291934 0.40957601955645967 0 0.28678822187162178 1 I I #
point $-1 -36.293134065680952 -8.9384293977993394 7.9360393657399264 #
edge $-1 $550 1 $550 0 $314 $-1 forward 7 unknown #
vertex $-1 $315 $551 #
ellipse-curve $-1 -35.578059487201649 -6.8509313633228928 6.0430836648514159 -0.57357644374324357 0 0.81915203911291934 0.40957601955645967 0 0.28678822187162178 1 I I #
point $-1 -36.293134065680952 -6.8509313633228928 7.9360393657399264 #
edge $-1 $552 1 $552 0 $318 $-1 forward 7 unknown #
vertex $-1 $319 $553 #
ellipse-curve $-1 -35.578059487201649 -4.7634333288464461 6.0430836648514159 -0.57357644374324357 0 0.81915203911291934 0.40957601955645967 0 0.28678822187162178 1 I I #
point $-1 -36.293134065680952 -4.7634333288464461 7.9360393657399264 #
loop $-1 $-1 $330 $322 #
plane-surface $-1 -42.260811181981872 0 0 1 0 0 0 0 -1 forward_v I I I I #
coedge $-1 $452 $325 $327 $456 reversed $210 $-1 #
coedge $-1 $325 $451 $554 $555 reversed $210 $-1 #
coedge $-1 $333 $328 $325 $454 forward $323 $-1 #
edge $-1 $457 -14.225602389963882 $556 -3.1094001964749296 $453 $557 forward 7 unknown #
coedge $-1 $327 $326 $460 $558 reversed $132 $-1 #
edge $-1 $559 -8.6223355153435888e-015 $457 13.570377247094402 $451 $560 forward 7 unknown #
vertex $-1 $329 $561 #
straight-curve $-1 -31.144608988492919 9.3832557726797123 11.541075504689616 0 1 0 I I #
coedge $-1 $554 $330 $333 $464 reversed $449 $-1 #
coedge $-1 $330 $554 $455 $558 forward $449 $-1 #
vertex $-1 $331 $562 #
straight-curve $-1 -42.260811181981872 15.287348154565347 36.496743045810007 0 0 1 I I #
straight-curve $-1 -42.260811181981865 15.287348154565347 3.7574267830469807 -0.81915203911291934 0 -0.57357644374324357 I I #
edge $-1 $556 -22.245674936153502 $334 -15.287348154565347 $459 $563 forward 7 unknown #
point $-1 -42.260811181981872 15.287348154565347 11.541075504689616 #
point $-1 -31.144608988492919 15.287348154565347 11.541075504689616 #
edge $-1 $564 1 $564 0 $337 $-1 forward 7 unknown #
vertex $-1 $338 $565 #
ellipse-curve $-1 -35.578059487201649 16.679013510882985 6.0430836648514159 -0.57357644374324357 0 0.81915203911291934 0.40957601955645967 0 0.28678822187162178 1 I I #
point $-1 -36.293134065680952 16.679013510882985 7.9360393657399264 #
edge $-1 $566 1 $566 0 $341 $-1 forward 7 unknown #
vertex $-1 $342 $567 #
ellipse-curve $-1 -35.578059487201649 18.766511545359425 6.0430836648514159 -0.57357644374324357 0 0.81915203911291934 0.40957601955645967 0 0.28678822187162178 1 I I #
point $-1 -36.293134065680952 18.766511545359425 7.9360393657399264 #
edge $-1 $568 1 $568 0 $345 $-1 forward 7 unknown #
vertex $-1 $346 $569 #
ellipse-curve $-1 -35.578059487201649 20.854009579835878 6.0430836648514159 -0.57357644374324357 0 0.81915203911291934 0.40957601955645967 0 0.28678822187162178 1 I I #
point $-1 -36.293134065680952 20.854009579835878 7.9360393657399264 #
plane-surface $-1 42.260811181981872 0 0 -1 0 0 0 0 1 forward_v I I I I #
coedge $-1 $357 $570 $484 $571 forward $350 $-1 #
coedge $-1 $482 $352 $570 $572 reversed $239 $-1 #
coedge $-1 $352 $481 $485 $573 forward $239 $-1 #
edge $-1 $486 -53.460469953702315 $574 -40.577332295414365 $352 $575 forward 7 unknown #
coedge $-1 $354 $353 $480 $571 reversed $151 $-1 #
coedge $-1 $360 $355 $482 $573 reversed $361 $-1 #
vertex $-1 $356 $576 #
straight-curve $-1 42.260811181981872 11.891412236159772 0.73636702477337934 0 1 0 I I #
coedge $-1 $570 $357 $360 $492 forward $350 $-1 #
vertex $-1 $358 $577 #
straight-curve $-1 33.556417544869191 19.075746275288065 11.541075504689616 1 0 0 I I #
straight-curve $-1 -3.7729626184541019 19.075746275288065 71.622164732965857 -0.54463902268945019 0 0.83867057594974714 I I #
edge $-1 $362 19.075746275288065 $578 28.489902669351022 $360 $579 forward 7 unknown #
point $-1 42.260811181981872 19.075746275288065 11.541075504689616 #
point $-1 42.260811181981872 19.075746275288065 0.73636702477337224 #
edge $-1 $580 1 $580 0 $365 $-1 forward 7 unknown #
vertex $-1 $366 $581 #
ellipse-curve $-1 36.050010302868266 21.765505245020339 4.3837160506536597 0.83867057594974714 0 0.54463902268945019 0.54463902268945019 0 -0.83867057594974714 1 I I #
point $-1 39.297120452979513 21.765505245020339 5.3000506887817433 #
edge $-1 $582 1 $582 0 $369 $-1 forward 7 unknown #
vertex $-1 $370 $583 #
ellipse-curve $-1 36.050010302868266 25.800143699618747 4.3837160506536597 0.83867057594974714 0 0.54463902268945019 0.54463902268945019 0 -0.83867057594974714 1 I I #
point $-1 39.297120452979513 25.800143699618747 5.3000506887817433 #
plane-surface $-1 42.260811181981872 0 0 -1 0 0 0 0 1 forward_v I I I I #
coedge $-1 $514 $376 $379 $507 reversed $261 $-1 #
edge $-1 $390 -11.541075504689616 $510 11.541075504689616 $389 $584 forward 7 unknown #
straight-curve $-1 42.260811181981872 -28.489902669351022 0 0 0 -1 I I #
edge $-1 $508 -28.489902669351022 $510 28.489902669351022 $504 $585 forward 7 unknown #
vertex $-1 $507 $586 #
straight-curve $-1 0 -28.489902669351022 -11.541075504689616 -1 0 0 I I #
vertex $-1 $382 $587 #
straight-curve $-1 0 28.489902669351022 -11.541075504689616 1 0 0 I I #
point $-1 42.260811181981872 28.489902669351022 -11.541075504689616 #
point $-1 42.260811181981872 -28.489902669351022 -11.541075504689616 #
coedge $-1 $386 $504 $392 $517 reversed $261 $-1 #
straight-curve $-1 -42.260811181981872 0 11.541075504689616 0 -1 0 I I #
point $-1 -42.260811181981872 28.489902669351022 11.541075504689616 #
edge $-1 $393 -11.541075504689616 $508 11.541075504689616 $514 $588 forward 7 unknown #
point $-1 -42.260811181981872 -28.489902669351022 11.541075504689616 #
straight-curve $-1 42.260811181981872 28.489902669351022 0 0 0 -1 I I #
plane-surface $-1 -42.260811181981872 0 0 1 0 0 0 0 -1 forward_v I I I I #
coedge $-1 $523 $532 $527 $589 forward $399 $-1 #
coedge $-1 $402 $401 $590 $591 forward $173 $-1 #
coedge $-1 $590 $521 $403 $524 reversed $399 $-1 #
edge $-1 $525 -42.260811181981872 $528 42.260811181981872 $523 $592 forward 7 unknown #
vertex $-1 $591 $593 #
straight-curve $-1 42.260811181981872 0 -11.541075504689616 0 -1 0 I I #
coedge $-1 $411 $405 $521 $589 reversed $412 $-1 #
vertex $-1 $406 $594 #
straight-curve $-1 -42.260811181981872 0 -11.541075504689616 0 1 0 I I #
point $-1 -42.260811181981872 -28.489902669351022 -11.541075504689616 #
point $-1 42.260811181981872 -28.489902669351022 -11.541075504689616 #
coedge $-1 $521 $590 $414 $533 reversed $399 $-1 #
edge $-1 $534 -42.260811181981872 $536 42.260811181981872 $532 $595 forward 7 unknown #
vertex $-1 $415 $596 #
straight-curve $-1 -42.260811181981872 -34.447692760369286 -5.179694704183035 0 -1 0 I I #
vertex $-1 $416 $597 #
straight-curve $-1 42.260811181981872 -34.447692760369286 -5.179694704183035 0 1 0 I I #
coedge $-1 $430 $429 $422 $539 forward $419 $-1 #
edge $-1 $540 24.955667541120391 $543 32.739316262763033 $538 $598 forward 7 unknown #
vertex $-1 $434 $599 #
straight-curve $-1 -45.370211378456801 -3.371767972528815 11.541075504689616 -1 0 0 I I #
edge $-1 $543 -0.053697709132631388 $431 6.9046290724555242 $430 $600 forward 7 unknown #
vertex $-1 $542 $601 #
straight-curve $-1 -42.260811181981865 -3.371767972528815 3.7574267830469807 0.81915203911291934 0 0.57357644374324357 I I #
point $-1 -31.144608988492919 -3.371767972528815 11.541075504689616 #
point $-1 -42.260811181981872 -10.330094754116971 3.7574267830469759 #
straight-curve $-1 -42.260811181981872 0 11.541075504689616 0 -1 0 I I #
vertex $-1 $437 $602 #
point $-1 -35.168483467645196 -8.9384293977993394 6.3298718867230379 #
vertex $-1 $441 $603 #
point $-1 -35.168483467645196 -6.8509313633228928 6.3298718867230379 #
vertex $-1 $445 $604 #
point $-1 -35.168483467645196 -4.7634333288464461 6.3298718867230379 #
coedge $-1 $460 $459 $452 $555 forward $449 $-1 #
edge $-1 $556 24.955667541120391 $559 32.739316262763033 $554 $605 forward 7 unknown #
vertex $-1 $464 $606 #
straight-curve $-1 -45.370211378456801 22.245674936153502 11.541075504689616 -1 0 0 I I #
edge $-1 $559 -12.86241916347379 $461 -5.9040923818856346 $460 $607 forward 7 unknown #
vertex $-1 $558 $608 #
straight-curve $-1 -42.260811181981865 22.245674936153502 3.7574267830469807 0.81915203911291934 0 0.57357644374324357 I I #
point $-1 -31.144608988492919 22.245674936153502 11.541075504689616 #
point $-1 -42.260811181981872 15.287348154565347 3.7574267830469759 #
straight-curve $-1 -42.260811181981872 0 11.541075504689616 0 -1 0 I I #
vertex $-1 $467 $609 #
point $-1 -35.168483467645196 16.679013510882985 6.3298718867230379 #
vertex $-1 $471 $610 #
point $-1 -35.168483467645196 18.766511545359425 6.3298718867230379 #
vertex $-1 $475 $611 #
point $-1 -35.168483467645196 20.854009579835878 6.3298718867230379 #
coedge $-1 $480 $488 $481 $572 forward $350 $-1 #
edge $-1 $574 -16.598490433191252 $489 -7.1843340391282933 $480 $612 forward 7 unknown #
edge $-1 $578 -42.260811181981872 $574 -35.244151678598271 $481 $613 forward 7 unknown #
edge $-1 $578 -11.541075504689616 $486 -0.73636702477338112 $485 $614 forward 7 unknown #
vertex $-1 $571 $615 #
straight-curve $-1 13.14415307387873 28.489902669351022 45.572090151389048 -0.54463902268945019 0 0.83867057594974714 I I #
point $-1 42.260811181981872 28.489902669351022 0.73636702477338112 #
point $-1 35.244151678598271 19.075746275288065 11.541075504689609 #
vertex $-1 $492 $616 #
straight-curve $-1 42.260811181981872 0 11.541075504689616 0 1 0 I I #
vertex $-1 $495 $617 #
point $-1 36.594649325557718 21.765505245020339 3.5450454747039126 #
vertex $-1 $499 $618 #
point $-1 36.594649325557718 25.800143699618747 3.5450454747039126 #
straight-curve $-1 -42.260811181981872 28.489902669351022 0 0 0 -1 I I #
straight-curve $-1 -42.260811181981872 0 -11.541075504689616 0 1 0 I I #
point $-1 -42.260811181981872 -28.489902669351022 -11.541075504689616 #
point $-1 -42.260811181981872 28.489902669351022 -11.541075504689616 #
straight-curve $-1 -42.260811181981872 -28.489902669351022 0 0 0 -1 I I #
edge $-1 $534 -3.1806904002532903 $528 3.1806904002532903 $527 $619 forward 7 unknown #
coedge $-1 $532 $523 $522 $591 reversed $399 $-1 #
edge $-1 $536 -3.1806904002532903 $525 3.1806904002532903 $522 $620 forward 7 unknown #
straight-curve $-1 0 -40.405482851387553 -11.541075504689616 -1 0 0 I I #
point $-1 42.260811181981872 -40.405482851387553 -11.541075504689616 #
point $-1 -42.260811181981872 -40.405482851387553 -11.541075504689616 #
straight-curve $-1 0 -40.405482851387553 -5.179694704183035 1 0 0 I I #
point $-1 -42.260811181981872 -40.405482851387553 -5.179694704183035 #
point $-1 42.260811181981872 -40.405482851387553 -5.179694704183035 #
straight-curve $-1 -42.260811181981872 -3.371767972528815 36.496743045810007 0 0 -1 I I #
point $-1 -42.260811181981872 -3.371767972528815 11.541075504689616 #
straight-curve $-1 -42.260811181981872 -3.4254656816614464 3.757426783046971 0 -1 0 I I #
point $-1 -42.260811181981872 -3.371767972528815 3.7574267830469759 #
point $-1 -35.291271265330032 -8.9384293977993394 5.6335076452949551 #
point $-1 -35.291271265330032 -6.8509313633228928 5.6335076452949551 #
point $-1 -35.291271265330032 -4.7634333288464461 5.6335076452949551 #
straight-curve $-1 -42.260811181981872 22.245674936153502 36.496743045810007 0 0 -1 I I #
point $-1 -42.260811181981872 22.245674936153502 11.541075504689616 #
straight-curve $-1 -42.260811181981872 9.3832557726797123 3.757426783046971 0 -1 0 I I #
point $-1 -42.260811181981872 22.245674936153502 3.7574267830469759 #
point $-1 -35.291271265330032 16.679013510882985 5.6335076452949551 #
point $-1 -35.291271265330032 18.766511545359425 5.6335076452949551 #
point $-1 -35.291271265330032 20.854009579835878 5.6335076452949551 #
straight-curve $-1 35.244151678598271 11.891412236159772 11.541075504689616 0 -1 0 I I #
straight-curve $-1 0 28.489902669351022 11.541075504689616 -1 0 0 I I #
straight-curve $-1 42.260811181981872 28.489902669351022 0 0 0 -1 I I #
point $-1 35.244151678598271 28.489902669351022 11.541075504689609 #
point $-1 42.260811181981872 28.489902669351022 11.541075504689616 #
point $-1 35.211339726918517 21.765505245020339 3.8390770279642092 #
point $-1 35.211339726918517 25.800143699618747 3.8390770279642092 #
straight-curve $-1 -42.260811181981872 -40.405482851387553 -8.3603851044363253 0 0 -1 I I #
straight-curve $-1 42.260811181981872 -40.405482851387553 -8.3603851044363253 0 0 -1 I I #
End-of-ACIS-data 