500 0 12 0           
7 Unknown 11 ACIS 5.0 NT 24 Thu Mar 25 19:47:35 1999 
-1 9.9999999999999995e-007 1e-010 
body $-1 $12 $-1 $13 #
body $-1 $14 $-1 $15 #
body $-1 $16 $-1 $17 #
body $-1 $18 $-1 $19 #
body $-1 $20 $-1 $21 #
body $-1 $22 $-1 $23 #
body $-1 $24 $-1 $25 #
body $-1 $26 $-1 $27 #
body $-1 $28 $-1 $29 #
body $-1 $30 $-1 $31 #
body $-1 $32 $-1 $33 #
body $-1 $34 $-1 $35 #
lump $-1 $-1 $36 $0 #
transform $-1 1 0 0 0 1 0 0 0 1 67.328714865565971 28.161883433378126 12.996476720923917 1 rotate no_reflect no_shear #
lump $-1 $-1 $37 $1 #
transform $-1 1 0 0 0 1 0 0 0 1 67.328714865565971 28.161883433378126 12.996476720923917 1 rotate no_reflect no_shear #
lump $-1 $-1 $38 $2 #
transform $-1 1 0 0 0 1 0 0 0 1 67.328714865565971 28.161883433378126 12.996476720923917 1 rotate no_reflect no_shear #
lump $-1 $-1 $39 $3 #
transform $-1 1 0 0 0 1 0 0 0 1 67.328714865565971 28.161883433378126 12.996476720923917 1 rotate no_reflect no_shear #
lump $-1 $-1 $40 $4 #
transform $-1 1 0 0 0 1 0 0 0 1 67.328714865565971 28.161883433378126 12.996476720923917 1 rotate no_reflect no_shear #
lump $-1 $-1 $41 $5 #
transform $-1 1 0 0 0 1 0 0 0 1 67.328714865565971 28.161883433378126 12.996476720923917 1 rotate no_reflect no_shear #
lump $-1 $-1 $42 $6 #
transform $-1 1 0 0 0 1 0 0 0 1 67.328714865565971 28.161883433378126 12.996476720923917 1 rotate no_reflect no_shear #
lump $-1 $-1 $43 $7 #
transform $-1 1 0 0 0 1 0 0 0 1 67.328714865565971 28.161883433378126 12.996476720923917 1 rotate no_reflect no_shear #
lump $-1 $-1 $44 $8 #
transform $-1 1 0 0 0 1 0 0 0 1 67.328714865565971 28.161883433378126 12.996476720923917 1 rotate no_reflect no_shear #
lump $-1 $-1 $45 $9 #
transform $-1 1 0 0 0 1 0 0 0 1 67.328714865565971 28.161883433378126 12.996476720923917 1 rotate no_reflect no_shear #
lump $-1 $-1 $46 $10 #
transform $-1 1 0 0 0 1 0 0 0 1 67.328714865565971 28.161883433378126 12.996476720923917 1 rotate no_reflect no_shear #
lump $-1 $-1 $47 $11 #
transform $-1 1 0 0 0 1 0 0 0 1 67.328714865565971 28.161883433378126 12.996476720923917 1 rotate no_reflect no_shear #
shell $-1 $-1 $-1 $48 $-1 $12 #
shell $-1 $-1 $-1 $49 $-1 $14 #
shell $-1 $-1 $-1 $50 $-1 $16 #
shell $-1 $-1 $-1 $51 $-1 $18 #
shell $-1 $-1 $-1 $52 $-1 $20 #
shell $-1 $-1 $-1 $53 $-1 $22 #
shell $-1 $-1 $-1 $54 $-1 $24 #
shell $-1 $-1 $-1 $55 $-1 $26 #
shell $-1 $-1 $-1 $56 $-1 $28 #
shell $-1 $-1 $-1 $57 $-1 $30 #
shell $-1 $-1 $-1 $58 $-1 $32 #
shell $-1 $-1 $-1 $59 $-1 $34 #
face $-1 $60 $61 $36 $-1 $62 forward single #
face $-1 $63 $64 $37 $-1 $65 forward single #
face $-1 $66 $67 $38 $-1 $68 forward single #
face $-1 $69 $70 $39 $-1 $71 reversed single #
face $-1 $72 $73 $40 $-1 $74 forward single #
face $-1 $75 $76 $41 $-1 $77 reversed single #
face $-1 $78 $79 $42 $-1 $80 forward single #
face $-1 $81 $82 $43 $-1 $83 reversed single #
face $-1 $84 $85 $44 $-1 $86 forward single #
face $-1 $87 $88 $45 $-1 $89 reversed single #
face $-1 $90 $91 $46 $-1 $92 forward single #
face $-1 $93 $94 $47 $-1 $95 forward single #
face $-1 $96 $97 $36 $-1 $98 reversed single #
loop $-1 $-1 $99 $48 #
plane-surface $-1 0 0 12.996476720923917 0 0 1 1 0 0 forward_v I I I I #
face $-1 $100 $101 $37 $-1 $102 reversed single #
loop $-1 $-1 $103 $49 #
plane-surface $-1 0 -20.38289300161069 -5.3701789672525386 0 0 1 1 0 0 forward_v I I I I #
face $-1 $104 $105 $38 $-1 $106 reversed single #
loop $-1 $-1 $107 $50 #
plane-surface $-1 0 20.382893001610693 -5.3701789672525386 0 0 1 1 0 0 forward_v I I I I #
face $-1 $108 $109 $39 $-1 $110 reversed single #
loop $-1 $-1 $111 $51 #
plane-surface $-1 -176.26886503890751 -6.1707899796942431 83.401515877385691 0 -1 0 0.80901700255871778 0 -0.5877852410284794 forward_v I I I I #
face $-1 $112 $113 $40 $-1 $114 forward single #
loop $-1 $115 $116 $52 #
cone-surface $-1 -63.495153417407735 -8.4738569096029792 8.1469086950444574 0.80901700255871778 0 -0.5877852410284794 0.2938926205142397 0 0.40450850127935889 1 I I 0 1 0.5 forward I I I I #
face $-1 $117 $118 $41 $-1 $119 reversed single #
loop $-1 $-1 $120 $53 #
plane-surface $-1 -176.26886503890751 2.2318117335345899 83.401515877385691 0 -1 0 0.80901700255871778 0 -0.5877852410284794 forward_v I I I I #
face $-1 $121 $122 $42 $-1 $123 forward single #
loop $-1 $124 $125 $54 #
cone-surface $-1 -63.495153417407735 -0.071255196374142571 8.1469086950444574 0.80901700255871778 0 -0.5877852410284794 0.2938926205142397 0 0.40450850127935889 1 I I 0 1 0.5 forward I I I I #
face $-1 $126 $127 $43 $-1 $128 reversed single #
loop $-1 $-1 $129 $55 #
plane-surface $-1 -176.26886503890751 10.634413446763423 83.401515877385691 0 -1 0 0.80901700255871778 0 -0.5877852410284794 forward_v I I I I #
face $-1 $130 $131 $44 $-1 $132 forward single #
loop $-1 $133 $134 $56 #
cone-surface $-1 -63.495153417407735 8.3313465168546905 8.1469086950444574 0.80901700255871778 0 -0.5877852410284794 0.2938926205142397 0 0.40450850127935889 1 I I 0 1 0.5 forward I I I I #
face $-1 $135 $136 $45 $-1 $137 reversed single #
loop $-1 $-1 $138 $57 #
plane-surface $-1 106.92224808745 -12.603902569843253 188.64519825585523 0 1 0 0.83867057594974714 0 0.54463902268945019 forward_v I I I I #
face $-1 $139 $140 $46 $-1 $141 forward single #
loop $-1 $142 $143 $58 #
cone-surface $-1 63.211078905400541 -10.806762056017305 7.2506275848219675 -0.83867057594974714 0 -0.54463902268945019 0.2723195113447251 0 -0.41933528797487357 1 I I 0 1 0.5 forward I I I I #
face $-1 $144 $145 $47 $-1 $146 forward single #
loop $-1 $147 $148 $59 #
cone-surface $-1 63.211078905400541 -8.111051285278382 7.2506275848219675 -0.83867057594974714 0 -0.54463902268945019 0.2723195113447251 0 -0.41933528797487357 1 I I 0 1 0.5 forward I I I I #
face $-1 $149 $150 $36 $-1 $151 reversed single #
loop $-1 $-1 $152 $60 #
plane-surface $-1 0 0 -12.996476720923917 0 0 1 1 0 0 forward_v I I I I #
coedge $-1 $153 $154 $155 $156 forward $61 $-1 #
face $-1 $157 $158 $37 $-1 $159 reversed single #
loop $-1 $-1 $160 $63 #
plane-surface $-1 0 -20.38289300161069 -11.05401058766893 0 0 1 1 0 0 forward_v I I I I #
coedge $-1 $161 $162 $163 $164 reversed $64 $-1 #
face $-1 $165 $166 $38 $-1 $167 reversed single #
loop $-1 $-1 $168 $66 #
plane-surface $-1 0 20.382893001610693 -11.05401058766893 0 0 1 1 0 0 forward_v I I I I #
coedge $-1 $169 $170 $171 $172 reversed $67 $-1 #
face $-1 $173 $174 $39 $-1 $175 reversed single #
loop $-1 $-1 $176 $69 #
plane-surface $-1 -67.328714865565971 -8.4738569096029757 4.2518660865967774 -0.80901700255871778 0 0.5877852410284794 0.5877852410284794 0 0.80901700255871778 forward_v I I I I #
coedge $-1 $177 $178 $179 $180 reversed $70 $-1 #
face $-1 $-1 $181 $40 $-1 $182 forward single #
loop $-1 $183 $184 $72 #
cone-surface $-1 -62.636003383943063 -8.4738569096029792 7.5226996760714524 0.80901700255871778 0 -0.5877852410284794 0.14694631025711985 0 0.20225425063967944 1 I I -0.70710678118654746 0.70710678118654746 0.25 forward I I I I #
loop $-1 $-1 $185 $52 #
coedge $-1 $116 $116 $186 $187 reversed $73 $-1 #
face $-1 $188 $189 $41 $-1 $190 reversed single #
loop $-1 $-1 $191 $75 #
plane-surface $-1 -67.328714865565971 -0.071255196374142571 4.2518660865967774 -0.80901700255871778 0 0.5877852410284794 0.5877852410284794 0 0.80901700255871778 forward_v I I I I #
coedge $-1 $192 $193 $194 $195 reversed $76 $-1 #
face $-1 $-1 $196 $42 $-1 $197 forward single #
loop $-1 $198 $199 $78 #
cone-surface $-1 -62.636003383943063 -0.071255196374142571 7.5226996760714524 0.80901700255871778 0 -0.5877852410284794 0.14694631025711985 0 0.20225425063967944 1 I I -0.70710678118654746 0.70710678118654746 0.25 forward I I I I #
loop $-1 $-1 $200 $54 #
coedge $-1 $125 $125 $201 $202 reversed $79 $-1 #
face $-1 $203 $204 $43 $-1 $205 reversed single #
loop $-1 $-1 $206 $81 #
plane-surface $-1 -67.328714865565971 8.3313465168546905 4.2518660865967774 -0.80901700255871778 0 0.5877852410284794 0.5877852410284794 0 0.80901700255871778 forward_v I I I I #
coedge $-1 $207 $208 $209 $210 reversed $82 $-1 #
face $-1 $-1 $211 $44 $-1 $212 forward single #
loop $-1 $213 $214 $84 #
cone-surface $-1 -62.636003383943063 8.3313465168546905 7.5226996760714524 0.80901700255871778 0 -0.5877852410284794 0.14694631025711985 0 0.20225425063967944 1 I I -0.70710678118654746 0.70710678118654746 0.25 forward I I I I #
loop $-1 $-1 $215 $56 #
coedge $-1 $134 $134 $216 $217 reversed $85 $-1 #
face $-1 $218 $219 $45 $-1 $220 reversed single #
loop $-1 $-1 $221 $87 #
plane-surface $-1 -6.0109760610710339 -9.458906670647842 115.30550732921822 0.83867057594974714 0 0.54463902268945019 0.54463902268945019 0 -0.83867057594974714 forward_v I I I I #
coedge $-1 $222 $223 $224 $225 reversed $88 $-1 #
face $-1 $-1 $226 $46 $-1 $227 forward single #
loop $-1 $228 $229 $90 #
cone-surface $-1 62.333491168565402 -10.806762056017305 6.6807154631610128 -0.83867057594974714 0 -0.54463902268945019 0.13615975567236255 0 -0.20966764398743679 1 I I -0.70710678118654746 0.70710678118654746 0.25 forward I I I I #
loop $-1 $-1 $230 $58 #
coedge $-1 $143 $143 $231 $232 reversed $91 $-1 #
face $-1 $-1 $233 $47 $-1 $234 forward single #
loop $-1 $235 $236 $93 #
cone-surface $-1 62.333491168565402 -8.111051285278382 6.6807154631610128 -0.83867057594974714 0 -0.54463902268945019 0.13615975567236255 0 -0.20966764398743679 1 I I -0.70710678118654746 0.70710678118654746 0.25 forward I I I I #
loop $-1 $-1 $237 $59 #
coedge $-1 $148 $148 $238 $239 reversed $94 $-1 #
face $-1 $240 $241 $36 $-1 $242 reversed single #
loop $-1 $-1 $243 $96 #
plane-surface $-1 0 -28.161883433378126 0 0 1 0 0 0 1 forward_v I I I I #
coedge $-1 $244 $245 $246 $247 forward $97 $-1 #
coedge $-1 $248 $99 $249 $250 forward $61 $-1 #
coedge $-1 $99 $248 $251 $252 forward $61 $-1 #
coedge $-1 $253 $254 $99 $156 reversed $255 $-1 #
edge $-1 $256 -28.161883433378126 $257 28.161883433378126 $155 $258 forward 7 unknown #
face $-1 $259 $260 $37 $-1 $261 reversed single #
loop $-1 $-1 $262 $100 #
plane-surface $-1 0 -12.603902569843253 -8.2120947774607345 0 -1 0 0 0 -1 forward_v I I I I #
coedge $-1 $263 $264 $265 $266 reversed $101 $-1 #
coedge $-1 $267 $103 $268 $269 forward $64 $-1 #
coedge $-1 $103 $267 $270 $271 reversed $64 $-1 #
coedge $-1 $272 $273 $103 $164 forward $274 $-1 #
edge $-1 $275 2.4124560690379084 $276 17.970436932572781 $163 $277 forward 7 unknown #
face $-1 $278 $279 $38 $-1 $280 reversed single #
loop $-1 $-1 $281 $104 #
plane-surface $-1 0 12.603902569843257 -8.2120947774607345 0 1 0 0 0 1 forward_v I I I I #
coedge $-1 $282 $283 $284 $285 reversed $105 $-1 #
coedge $-1 $286 $107 $287 $288 reversed $67 $-1 #
coedge $-1 $107 $286 $289 $290 forward $67 $-1 #
coedge $-1 $291 $292 $107 $172 forward $279 $-1 #
edge $-1 $293 -17.970436932572781 $294 -2.4124560690379102 $171 $295 forward 7 unknown #
face $-1 $296 $297 $39 $-1 $298 reversed single #
loop $-1 $-1 $299 $108 #
plane-surface $-1 -176.26886503890751 -10.776923839511708 83.401515877385691 0 1 0 -0.80901700255871778 0 0.5877852410284794 forward_v I I I I #
coedge $-1 $300 $301 $302 $303 reversed $109 $-1 #
coedge $-1 $178 $111 $304 $305 reversed $70 $-1 #
coedge $-1 $111 $177 $300 $306 reversed $70 $-1 #
coedge $-1 $302 $307 $111 $180 forward $297 $-1 #
edge $-1 $308 28.70428121776893 $309 37.448891852096068 $179 $310 forward 7 unknown #
loop $-1 $-1 $186 $112 #
plane-surface $-1 -67.328714865565971 -8.4738569096029757 4.2518660865967774 -0.80901700255871778 0 0.5877852410284794 0.5877852410284794 0 0.80901700255871778 forward_v I I I I #
loop $-1 $-1 $311 $72 #
coedge $-1 $184 $184 $185 $312 reversed $113 $-1 #
coedge $-1 $185 $185 $184 $312 forward $115 $-1 #
coedge $-1 $186 $186 $116 $187 forward $181 $-1 #
edge $-1 $313 0 $313 6.2831853071796004 $186 $314 forward 7 unknown #
face $-1 $315 $316 $41 $-1 $317 forward single #
loop $-1 $-1 $318 $117 #
plane-surface $-1 -176.26886503890751 -2.3743221262828751 83.401515877385691 0 1 0 -0.80901700255871778 0 0.5877852410284794 forward_v I I I I #
coedge $-1 $319 $320 $321 $322 reversed $118 $-1 #
coedge $-1 $193 $120 $323 $324 reversed $76 $-1 #
coedge $-1 $120 $192 $319 $325 reversed $76 $-1 #
coedge $-1 $321 $326 $120 $195 forward $327 $-1 #
edge $-1 $328 28.70428121776893 $329 37.448891852096068 $194 $330 forward 7 unknown #
loop $-1 $-1 $201 $121 #
plane-surface $-1 -67.328714865565971 -0.071255196374142571 4.2518660865967774 -0.80901700255871778 0 0.5877852410284794 0.5877852410284794 0 0.80901700255871778 forward_v I I I I #
loop $-1 $-1 $331 $78 #
coedge $-1 $199 $199 $200 $332 reversed $122 $-1 #
coedge $-1 $200 $200 $199 $332 forward $124 $-1 #
coedge $-1 $201 $201 $125 $202 forward $196 $-1 #
edge $-1 $333 0 $333 6.2831853071796004 $201 $334 forward 7 unknown #
face $-1 $335 $336 $43 $-1 $337 forward single #
loop $-1 $-1 $338 $126 #
plane-surface $-1 -176.26886503890751 6.028279586945958 83.401515877385691 0 1 0 -0.80901700255871778 0 0.5877852410284794 forward_v I I I I #
coedge $-1 $339 $340 $341 $342 reversed $127 $-1 #
coedge $-1 $208 $129 $343 $344 reversed $82 $-1 #
coedge $-1 $129 $207 $339 $345 reversed $82 $-1 #
coedge $-1 $341 $346 $129 $210 forward $347 $-1 #
edge $-1 $348 28.70428121776893 $349 37.448891852096068 $209 $350 forward 7 unknown #
loop $-1 $-1 $216 $130 #
plane-surface $-1 -67.328714865565971 8.3313465168546905 4.2518660865967774 -0.80901700255871778 0 0.5877852410284794 0.5877852410284794 0 0.80901700255871778 forward_v I I I I #
loop $-1 $-1 $351 $84 #
coedge $-1 $214 $214 $215 $352 reversed $131 $-1 #
coedge $-1 $215 $215 $214 $352 forward $133 $-1 #
coedge $-1 $216 $216 $134 $217 forward $211 $-1 #
edge $-1 $353 0 $353 6.2831853071796004 $216 $354 forward 7 unknown #
face $-1 $355 $356 $45 $-1 $357 forward single #
loop $-1 $-1 $358 $135 #
plane-surface $-1 106.92224808745 -6.3139107714524307 188.64519825585523 0 -1 0 -0.83867057594974714 0 -0.54463902268945019 forward_v I I I I #
coedge $-1 $359 $360 $361 $362 reversed $136 $-1 #
coedge $-1 $223 $138 $363 $364 reversed $88 $-1 #
coedge $-1 $138 $222 $359 $365 reversed $88 $-1 #
coedge $-1 $361 $366 $138 $225 forward $367 $-1 #
edge $-1 $368 81.326122407003695 $369 91.950315947230408 $224 $370 forward 7 unknown #
loop $-1 $-1 $231 $139 #
plane-surface $-1 -6.0109760610710339 -9.458906670647842 115.30550732921822 0.83867057594974714 0 0.54463902268945019 0.54463902268945019 0 -0.83867057594974714 forward_v I I I I #
loop $-1 $-1 $371 $90 #
coedge $-1 $229 $229 $230 $372 reversed $140 $-1 #
coedge $-1 $230 $230 $229 $372 forward $142 $-1 #
coedge $-1 $231 $231 $143 $232 forward $226 $-1 #
edge $-1 $373 0 $373 6.2831853071796004 $231 $374 forward 7 unknown #
loop $-1 $-1 $238 $144 #
plane-surface $-1 -6.0109760610710339 -9.458906670647842 115.30550732921822 0.83867057594974714 0 0.54463902268945019 0.54463902268945019 0 -0.83867057594974714 forward_v I I I I #
loop $-1 $-1 $375 $93 #
coedge $-1 $236 $236 $237 $376 reversed $145 $-1 #
coedge $-1 $237 $237 $236 $376 forward $147 $-1 #
coedge $-1 $238 $238 $148 $239 forward $233 $-1 #
edge $-1 $377 0 $377 6.2831853071796004 $238 $378 forward 7 unknown #
face $-1 $379 $380 $36 $-1 $381 reversed single #
loop $-1 $-1 $382 $149 #
plane-surface $-1 -67.328714865565971 0 0 1 0 0 0 0 -1 forward_v I I I I #
coedge $-1 $383 $251 $384 $385 forward $150 $-1 #
coedge $-1 $386 $152 $383 $387 forward $97 $-1 #
coedge $-1 $152 $386 $388 $389 forward $97 $-1 #
coedge $-1 $254 $253 $152 $247 reversed $255 $-1 #
edge $-1 $390 -28.161883433378126 $391 28.161883433378126 $246 $392 forward 7 unknown #
coedge $-1 $154 $153 $393 $394 forward $61 $-1 #
coedge $-1 $395 $396 $153 $250 reversed $380 $-1 #
edge $-1 $257 -67.328714865565971 $397 67.328714865565971 $249 $398 forward 7 unknown #
coedge $-1 $243 $399 $154 $252 reversed $150 $-1 #
edge $-1 $400 -67.328714865565971 $256 67.328714865565971 $251 $401 forward 7 unknown #
coedge $-1 $246 $155 $399 $402 forward $255 $-1 #
coedge $-1 $155 $246 $395 $403 reversed $255 $-1 #
loop $-1 $-1 $253 $379 #
vertex $-1 $156 $404 #
vertex $-1 $156 $405 #
straight-curve $-1 67.328714865565971 0 12.996476720923917 0 1 0 I I #
face $-1 $406 $407 $37 $-1 $408 reversed single #
loop $-1 $-1 $409 $157 #
plane-surface $-1 -67.328714865565971 0 0 1 0 0 0 0 -1 forward_v I I I I #
coedge $-1 $410 $268 $273 $411 reversed $158 $-1 #
coedge $-1 $412 $160 $413 $414 reversed $101 $-1 #
coedge $-1 $160 $412 $410 $415 forward $101 $-1 #
coedge $-1 $273 $272 $160 $266 forward $274 $-1 #
edge $-1 $416 -17.970436932572781 $417 -2.4124560690379084 $265 $418 forward 7 unknown #
coedge $-1 $162 $161 $409 $419 reversed $64 $-1 #
coedge $-1 $262 $420 $161 $269 reversed $158 $-1 #
edge $-1 $275 -67.328714865565971 $421 67.328714865565971 $268 $422 forward 7 unknown #
coedge $-1 $423 $424 $162 $271 forward $407 $-1 #
edge $-1 $276 -67.328714865565971 $425 67.328714865565971 $270 $426 forward 7 unknown #
coedge $-1 $265 $163 $424 $427 forward $274 $-1 #
coedge $-1 $163 $265 $262 $411 forward $274 $-1 #
loop $-1 $-1 $163 $406 #
vertex $-1 $164 $428 #
vertex $-1 $427 $429 #
straight-curve $-1 67.328714865565971 -10.191446500805345 -5.3701789672525386 0 -1 0 I I #
face $-1 $430 $431 $38 $-1 $432 reversed single #
loop $-1 $-1 $171 $165 #
plane-surface $-1 67.328714865565971 0 0 -1 0 0 0 0 1 forward_v I I I I #
coedge $-1 $433 $289 $434 $435 reversed $166 $-1 #
coedge $-1 $436 $168 $433 $437 forward $105 $-1 #
coedge $-1 $168 $436 $438 $439 reversed $105 $-1 #
coedge $-1 $292 $291 $168 $285 forward $279 $-1 #
edge $-1 $440 2.4124560690379102 $441 17.970436932572781 $284 $442 forward 7 unknown #
coedge $-1 $170 $169 $443 $444 reversed $67 $-1 #
coedge $-1 $445 $446 $169 $288 forward $447 $-1 #
edge $-1 $448 -67.328714865565971 $293 67.328714865565971 $287 $449 forward 7 unknown #
coedge $-1 $281 $450 $170 $290 reversed $166 $-1 #
edge $-1 $451 -67.328714865565971 $294 67.328714865565971 $289 $452 forward 7 unknown #
coedge $-1 $284 $171 $450 $453 forward $279 $-1 #
coedge $-1 $171 $284 $445 $454 reversed $279 $-1 #
vertex $-1 $454 $455 #
vertex $-1 $172 $456 #
straight-curve $-1 67.328714865565971 10.191446500805347 -5.3701789672525386 0 -1 0 I I #
face $-1 $-1 $457 $39 $-1 $458 forward single #
loop $-1 $-1 $179 $173 #
plane-surface $-1 -67.328714865565971 0 0 1 0 0 0 0 -1 forward_v I I I I #
coedge $-1 $459 $460 $461 $462 reversed $174 $-1 #
coedge $-1 $463 $176 $178 $306 forward $109 $-1 #
coedge $-1 $176 $463 $459 $464 forward $109 $-1 #
coedge $-1 $461 $179 $176 $303 forward $297 $-1 #
edge $-1 $309 1.9338615248927553 $465 6.5399953847102203 $302 $466 forward 7 unknown #
coedge $-1 $467 $468 $177 $305 forward $457 $-1 #
edge $-1 $469 -27.159048984554261 $308 -20.805717653887783 $304 $470 forward 7 unknown #
edge $-1 $309 0 $469 10.808933071456016 $178 $471 forward 7 unknown #
coedge $-1 $179 $461 $467 $472 reversed $297 $-1 #
vertex $-1 $472 $473 #
vertex $-1 $180 $474 #
straight-curve $-1 -67.328714865565971 -6.1707899796942431 41.700757938692846 0 0 -1 I I #
coedge $-1 $311 $311 $-1 $475 reversed $183 $-1 #
edge $-1 $476 0 $476 6.2831853071796004 $184 $477 forward 7 unknown #
vertex $-1 $187 $478 #
ellipse-curve $-1 -64.152049200232739 -8.4738569096029792 8.6241714037603465 -0.80901700255871778 0 0.5877852410284794 0.2938926205142397 0 0.40450850127935889 1 I I #
face $-1 $-1 $327 $41 $-1 $479 reversed single #
loop $-1 $-1 $480 $188 #
plane-surface $-1 0 0 12.996476720923917 0 0 1 1 0 0 forward_v I I I I #
coedge $-1 $481 $482 $483 $484 reversed $189 $-1 #
coedge $-1 $485 $191 $193 $325 forward $118 $-1 #
coedge $-1 $191 $485 $481 $486 forward $118 $-1 #
coedge $-1 $483 $194 $191 $322 forward $327 $-1 #
edge $-1 $329 -2.2674393317216612 $487 2.3386945280958038 $321 $488 forward 7 unknown #
coedge $-1 $489 $490 $192 $324 forward $316 $-1 #
edge $-1 $491 -27.159048984554261 $328 -20.805717653887783 $323 $492 forward 7 unknown #
edge $-1 $329 0 $491 10.808933071456016 $193 $493 forward 7 unknown #
coedge $-1 $194 $483 $489 $494 reversed $327 $-1 #
loop $-1 $-1 $483 $315 #
vertex $-1 $494 $495 #
vertex $-1 $195 $496 #
straight-curve $-1 -67.328714865565971 2.2318117335345899 41.700757938692846 0 0 -1 I I #
coedge $-1 $331 $331 $-1 $497 reversed $198 $-1 #
edge $-1 $498 0 $498 6.2831853071796004 $199 $499 forward 7 unknown #
vertex $-1 $202 $500 #
ellipse-curve $-1 -64.152049200232739 -0.071255196374142571 8.6241714037603465 -0.80901700255871778 0 0.5877852410284794 0.2938926205142397 0 0.40450850127935889 1 I I #
face $-1 $-1 $347 $43 $-1 $501 reversed single #
loop $-1 $-1 $502 $203 #
plane-surface $-1 0 0 12.996476720923917 0 0 1 1 0 0 forward_v I I I I #
coedge $-1 $503 $504 $505 $506 reversed $204 $-1 #
coedge $-1 $507 $206 $208 $345 forward $127 $-1 #
coedge $-1 $206 $507 $503 $508 forward $127 $-1 #
coedge $-1 $505 $209 $206 $342 forward $347 $-1 #
edge $-1 $349 -6.4687401883360778 $509 -1.8626063285186127 $341 $510 forward 7 unknown #
coedge $-1 $511 $512 $207 $344 forward $336 $-1 #
edge $-1 $513 -27.159048984554261 $348 -20.805717653887783 $343 $514 forward 7 unknown #
edge $-1 $349 0 $513 10.808933071456016 $208 $515 forward 7 unknown #
coedge $-1 $209 $505 $511 $516 reversed $347 $-1 #
loop $-1 $-1 $505 $335 #
vertex $-1 $516 $517 #
vertex $-1 $210 $518 #
straight-curve $-1 -67.328714865565971 10.634413446763423 41.700757938692846 0 0 -1 I I #
coedge $-1 $351 $351 $-1 $519 reversed $213 $-1 #
edge $-1 $520 0 $520 6.2831853071796004 $214 $521 forward 7 unknown #
vertex $-1 $217 $522 #
ellipse-curve $-1 -64.152049200232739 8.3313465168546905 8.6241714037603465 -0.80901700255871778 0 0.5877852410284794 0.2938926205142397 0 0.40450850127935889 1 I I #
face $-1 $-1 $367 $45 $-1 $523 reversed single #
loop $-1 $-1 $524 $218 #
plane-surface $-1 0 0 12.996476720923917 0 0 1 1 0 0 forward_v I I I I #
coedge $-1 $525 $526 $527 $528 reversed $219 $-1 #
coedge $-1 $529 $221 $223 $365 forward $136 $-1 #
coedge $-1 $221 $529 $525 $530 forward $136 $-1 #
coedge $-1 $527 $224 $221 $362 forward $367 $-1 #
edge $-1 $369 -7.8744492345193322 $531 -1.5844574361285098 $361 $532 forward 7 unknown #
coedge $-1 $533 $534 $222 $364 forward $356 $-1 #
edge $-1 $535 6.9681590872055565 $368 13.86759082184097 $363 $536 forward 7 unknown #
edge $-1 $369 -134.65742973113191 $535 -121.98953145868398 $223 $537 forward 7 unknown #
coedge $-1 $224 $527 $533 $538 reversed $367 $-1 #
loop $-1 $-1 $527 $355 #
vertex $-1 $538 $539 #
vertex $-1 $225 $540 #
straight-curve $-1 67.328714865565971 -12.603902569843253 94.322599127927617 0 0 -1 I I #
coedge $-1 $371 $371 $-1 $541 reversed $228 $-1 #
edge $-1 $542 0 $542 6.2831853071796004 $229 $543 forward 7 unknown #
vertex $-1 $232 $544 #
ellipse-curve $-1 63.878998998248257 -10.806762056017305 7.6843799508105715 0.83867057594974714 0 0.54463902268945019 0.2723195113447251 0 -0.41933528797487357 1 I I #
coedge $-1 $375 $375 $-1 $545 reversed $235 $-1 #
edge $-1 $546 0 $546 6.2831853071796004 $236 $547 forward 7 unknown #
vertex $-1 $239 $548 #
ellipse-curve $-1 63.878998998248257 -8.111051285278382 7.6843799508105715 0.83867057594974714 0 0.54463902268945019 0.2723195113447251 0 -0.41933528797487357 1 I I #
face $-1 $-1 $255 $36 $-1 $549 reversed single #
loop $-1 $-1 $395 $240 #
plane-surface $-1 0 28.161883433378126 0 0 -1 0 0 0 -1 forward_v I I I I #
coedge $-1 $550 $393 $396 $551 forward $241 $-1 #
coedge $-1 $399 $243 $244 $387 reversed $150 $-1 #
coedge $-1 $393 $550 $243 $385 reversed $241 $-1 #
edge $-1 $400 -12.996476720923917 $552 12.996476720923917 $384 $553 forward 7 unknown #
coedge $-1 $245 $244 $550 $554 forward $97 $-1 #
edge $-1 $391 -67.328714865565971 $552 67.328714865565971 $383 $555 forward 7 unknown #
coedge $-1 $396 $395 $245 $389 reversed $380 $-1 #
edge $-1 $556 -67.328714865565971 $390 67.328714865565971 $388 $557 forward 7 unknown #
vertex $-1 $247 $558 #
vertex $-1 $402 $559 #
straight-curve $-1 67.328714865565971 0 -12.996476720923917 0 -1 0 I I #
coedge $-1 $382 $384 $248 $394 reversed $241 $-1 #
edge $-1 $397 -28.161883433378126 $400 28.161883433378126 $393 $560 forward 7 unknown #
coedge $-1 $388 $249 $254 $403 forward $380 $-1 #
coedge $-1 $249 $388 $382 $551 reversed $380 $-1 #
vertex $-1 $250 $561 #
straight-curve $-1 0 28.161883433378126 12.996476720923917 -1 0 0 I I #
coedge $-1 $251 $383 $253 $402 reversed $150 $-1 #
vertex $-1 $394 $562 #
straight-curve $-1 0 -28.161883433378126 12.996476720923917 1 0 0 I I #
edge $-1 $256 -12.996476720923917 $391 12.996476720923917 $253 $563 forward 7 unknown #
edge $-1 $257 -12.996476720923917 $390 12.996476720923917 $254 $564 forward 7 unknown #
point $-1 67.328714865565971 -28.161883433378126 12.996476720923917 #
point $-1 67.328714865565971 28.161883433378126 12.996476720923917 #
face $-1 $-1 $274 $37 $-1 $565 reversed single #
loop $-1 $-1 $270 $259 #
plane-surface $-1 0 -28.161883433378126 0 0 1 0 0 0 1 forward_v I I I I #
coedge $-1 $566 $567 $267 $419 forward $260 $-1 #
coedge $-1 $420 $262 $264 $415 reversed $158 $-1 #
edge $-1 $417 -6.9479631989385631 $275 -1.2641315785221714 $273 $568 forward 7 unknown #
coedge $-1 $264 $263 $569 $570 reversed $101 $-1 #
coedge $-1 $424 $423 $263 $414 forward $407 $-1 #
edge $-1 $571 -67.328714865565971 $416 67.328714865565971 $413 $572 forward 7 unknown #
edge $-1 $573 -67.328714865565971 $417 67.328714865565971 $410 $574 forward 7 unknown #
vertex $-1 $414 $575 #
vertex $-1 $266 $576 #
straight-curve $-1 67.328714865565971 -10.191446500805345 -11.05401058766893 0 1 0 I I #
edge $-1 $425 -17.970436932572781 $421 -2.4124560690379084 $409 $577 forward 7 unknown #
coedge $-1 $268 $410 $566 $578 reversed $158 $-1 #
vertex $-1 $419 $579 #
straight-curve $-1 0 -12.603902569843253 -5.3701789672525386 -1 0 0 I I #
coedge $-1 $413 $270 $567 $580 forward $407 $-1 #
coedge $-1 $270 $413 $272 $427 reversed $407 $-1 #
vertex $-1 $580 $581 #
straight-curve $-1 0 -28.161883433378126 -5.3701789672525386 -1 0 0 I I #
edge $-1 $276 5.3701789672525386 $416 11.05401058766893 $272 $582 forward 7 unknown #
point $-1 67.328714865565971 -12.603902569843253 -5.3701789672525386 #
point $-1 67.328714865565971 -28.161883433378126 -5.3701789672525386 #
face $-1 $-1 $447 $38 $-1 $583 reversed single #
loop $-1 $-1 $443 $278 #
plane-surface $-1 -67.328714865565971 0 0 1 0 0 0 0 -1 forward_v I I I I #
coedge $-1 $450 $281 $282 $437 reversed $166 $-1 #
coedge $-1 $443 $584 $281 $435 forward $431 $-1 #
edge $-1 $585 -6.9479631989385631 $451 -1.2641315785221714 $434 $586 forward 7 unknown #
coedge $-1 $283 $282 $584 $587 reversed $105 $-1 #
edge $-1 $440 -67.328714865565971 $585 67.328714865565971 $433 $588 forward 7 unknown #
coedge $-1 $446 $445 $283 $439 forward $447 $-1 #
edge $-1 $441 -67.328714865565971 $589 67.328714865565971 $438 $590 forward 7 unknown #
vertex $-1 $285 $591 #
vertex $-1 $439 $592 #
straight-curve $-1 67.328714865565971 10.191446500805347 -11.05401058766893 0 1 0 I I #
coedge $-1 $593 $434 $286 $444 forward $431 $-1 #
edge $-1 $451 2.4124560690379102 $448 17.970436932572781 $443 $594 forward 7 unknown #
coedge $-1 $438 $287 $292 $454 forward $447 $-1 #
coedge $-1 $287 $438 $593 $595 reversed $447 $-1 #
loop $-1 $-1 $287 $430 #
vertex $-1 $595 $596 #
straight-curve $-1 0 28.161883433378126 -5.3701789672525386 1 0 0 I I #
coedge $-1 $289 $433 $291 $453 reversed $166 $-1 #
vertex $-1 $444 $597 #
straight-curve $-1 0 12.603902569843257 -5.3701789672525386 1 0 0 I I #
edge $-1 $294 1.2641315785221714 $440 6.9479631989385631 $291 $598 forward 7 unknown #
edge $-1 $293 5.3701789672525386 $441 11.05401058766893 $292 $599 forward 7 unknown #
point $-1 67.328714865565971 28.161883433378129 -5.3701789672525386 #
point $-1 67.328714865565971 12.603902569843257 -5.3701789672525386 #
loop $-1 $-1 $304 $296 #
plane-surface $-1 0 0 12.996476720923917 0 0 1 1 0 0 forward_v I I I I #
coedge $-1 $460 $299 $301 $464 reversed $174 $-1 #
coedge $-1 $299 $459 $600 $601 reversed $174 $-1 #
coedge $-1 $307 $302 $299 $462 forward $297 $-1 #
edge $-1 $465 -37.448891852096068 $602 -28.70428121776893 $461 $603 forward 7 unknown #
coedge $-1 $301 $300 $468 $604 reversed $109 $-1 #
edge $-1 $605 -10.808933071456016 $465 0 $459 $606 forward 7 unknown #
vertex $-1 $303 $607 #
straight-curve $-1 -67.328714865565971 -4.2369284548014878 4.2518660865967801 0 -1 0 I I #
coedge $-1 $600 $304 $307 $472 forward $457 $-1 #
coedge $-1 $304 $600 $463 $604 forward $457 $-1 #
vertex $-1 $305 $608 #
straight-curve $-1 -88.134432519453753 -6.1707899796942431 12.996476720923916 -1 0 0 I I #
straight-curve $-1 -67.328714865565971 -6.1707899796942431 4.2518660865967774 0.5877852410284794 0 0.80901700255871778 I I #
edge $-1 $308 6.1707899796942431 $602 10.776923839511708 $307 $609 forward 7 unknown #
point $-1 -67.328714865565971 -6.1707899796942431 12.996476720923917 #
point $-1 -67.328714865565971 -6.1707899796942431 4.2518660865967774 #
edge $-1 $610 1 $610 0 $311 $-1 forward 7 unknown #
vertex $-1 $312 $611 #
ellipse-curve $-1 -62.838257634582739 -8.4738569096029792 7.6696459863285726 -0.80901700255871778 0 0.5877852410284794 0.2938926205142397 0 0.40450850127935889 1 I I #
point $-1 -63.858156579718489 -8.4738569096029792 9.028679905039704 #
plane-surface $-1 -67.328714865565971 0 0 1 0 0 0 0 -1 forward_v I I I I #
coedge $-1 $490 $489 $482 $612 forward $316 $-1 #
coedge $-1 $482 $318 $320 $486 reversed $189 $-1 #
coedge $-1 $318 $481 $480 $612 reversed $189 $-1 #
coedge $-1 $326 $321 $318 $484 forward $327 $-1 #
edge $-1 $487 -37.448891852096068 $613 -28.70428121776893 $483 $614 forward 7 unknown #
coedge $-1 $320 $319 $490 $615 reversed $118 $-1 #
edge $-1 $616 -10.808933071456016 $487 0 $481 $617 forward 7 unknown #
vertex $-1 $322 $618 #
straight-curve $-1 -67.328714865565971 -0.035627598187071285 4.2518660865967801 0 -1 0 I I #
coedge $-1 $480 $323 $326 $494 forward $316 $-1 #
coedge $-1 $323 $480 $485 $615 forward $316 $-1 #
vertex $-1 $324 $619 #
straight-curve $-1 -88.134432519453753 2.2318117335345899 12.996476720923916 -1 0 0 I I #
straight-curve $-1 -67.328714865565971 2.2318117335345899 4.2518660865967774 0.5877852410284794 0 0.80901700255871778 I I #
edge $-1 $328 -2.2318117335345899 $613 2.3743221262828751 $326 $620 forward 7 unknown #
point $-1 -67.328714865565971 2.2318117335345899 12.996476720923917 #
point $-1 -67.328714865565971 2.2318117335345899 4.2518660865967774 #
edge $-1 $621 1 $621 0 $331 $-1 forward 7 unknown #
vertex $-1 $332 $622 #
ellipse-curve $-1 -62.838257634582739 -0.071255196374142571 7.6696459863285726 -0.80901700255871778 0 0.5877852410284794 0.2938926205142397 0 0.40450850127935889 1 I I #
point $-1 -63.858156579718489 -0.071255196374142571 9.028679905039704 #
plane-surface $-1 -67.328714865565971 0 0 1 0 0 0 0 -1 forward_v I I I I #
coedge $-1 $512 $511 $504 $623 forward $336 $-1 #
coedge $-1 $504 $338 $340 $508 reversed $204 $-1 #
coedge $-1 $338 $503 $502 $623 reversed $204 $-1 #
coedge $-1 $346 $341 $338 $506 forward $347 $-1 #
edge $-1 $509 -37.448891852096068 $624 -28.70428121776893 $505 $625 forward 7 unknown #
coedge $-1 $340 $339 $512 $626 reversed $127 $-1 #
edge $-1 $627 -10.808933071456016 $509 0 $503 $628 forward 7 unknown #
vertex $-1 $342 $629 #
straight-curve $-1 -67.328714865565971 4.1656732584273453 4.2518660865967801 0 -1 0 I I #
coedge $-1 $502 $343 $346 $516 forward $336 $-1 #
coedge $-1 $343 $502 $507 $626 forward $336 $-1 #
vertex $-1 $344 $630 #
straight-curve $-1 -88.134432519453753 10.634413446763423 12.996476720923916 -1 0 0 I I #
straight-curve $-1 -67.328714865565971 10.634413446763423 4.2518660865967774 0.5877852410284794 0 0.80901700255871778 I I #
edge $-1 $348 -10.634413446763423 $624 -6.028279586945958 $346 $631 forward 7 unknown #
point $-1 -67.328714865565971 10.634413446763423 12.996476720923917 #
point $-1 -67.328714865565971 10.634413446763423 4.2518660865967774 #
edge $-1 $632 1 $632 0 $351 $-1 forward 7 unknown #
vertex $-1 $352 $633 #
ellipse-curve $-1 -62.838257634582739 8.3313465168546905 7.6696459863285726 -0.80901700255871778 0 0.5877852410284794 0.2938926205142397 0 0.40450850127935889 1 I I #
point $-1 -63.858156579718489 8.3313465168546905 9.028679905039704 #
plane-surface $-1 67.328714865565971 0 0 -1 0 0 0 0 1 forward_v I I I I #
coedge $-1 $534 $533 $526 $634 forward $356 $-1 #
coedge $-1 $526 $358 $360 $530 reversed $219 $-1 #
coedge $-1 $358 $525 $524 $634 reversed $219 $-1 #
coedge $-1 $366 $361 $358 $528 forward $367 $-1 #
edge $-1 $531 -91.950315947230408 $635 -81.326122407003695 $527 $636 forward 7 unknown #
coedge $-1 $360 $359 $534 $637 reversed $136 $-1 #
edge $-1 $638 121.98953145868398 $531 134.65742973113191 $525 $639 forward 7 unknown #
vertex $-1 $362 $640 #
straight-curve $-1 67.328714865565971 -4.729453335323921 2.3722831806972025 0 1 0 I I #
coedge $-1 $524 $363 $366 $538 forward $356 $-1 #
coedge $-1 $363 $524 $529 $637 forward $356 $-1 #
vertex $-1 $364 $641 #
straight-curve $-1 53.461124043725 -12.603902569843253 12.996476720923923 1 0 0 I I #
straight-curve $-1 -6.0109760610710339 -12.603902569843253 115.30550732921822 -0.54463902268945019 0 0.83867057594974714 I I #
edge $-1 $368 -12.603902569843253 $635 -6.3139107714524307 $366 $642 forward 7 unknown #
point $-1 67.328714865565971 -12.603902569843253 12.996476720923917 #
point $-1 67.328714865565971 -12.603902569843253 2.3722831806972096 #
edge $-1 $643 1 $643 0 $371 $-1 forward 7 unknown #
vertex $-1 $372 $644 #
ellipse-curve $-1 62.543158812552839 -10.806762056017305 6.816875218833375 0.83867057594974714 0 0.54463902268945019 0.2723195113447251 0 -0.41933528797487357 1 I I #
point $-1 64.151318509592969 -10.806762056017305 7.2650446628356864 #
edge $-1 $645 1 $645 0 $375 $-1 forward 7 unknown #
vertex $-1 $376 $646 #
ellipse-curve $-1 62.543158812552839 -8.111051285278382 6.816875218833375 0.83867057594974714 0 0.54463902268945019 0.2723195113447251 0 -0.41933528797487357 1 I I #
point $-1 64.151318509592969 -8.111051285278382 7.2650446628356864 #
plane-surface $-1 67.328714865565971 0 0 -1 0 0 0 0 1 forward_v I I I I #
coedge $-1 $384 $382 $386 $554 reversed $241 $-1 #
edge $-1 $397 -12.996476720923917 $556 12.996476720923917 $396 $647 forward 7 unknown #
vertex $-1 $554 $648 #
straight-curve $-1 -67.328714865565971 -28.161883433378126 0 0 0 -1 I I #
edge $-1 $552 -28.161883433378126 $556 28.161883433378126 $550 $649 forward 7 unknown #
straight-curve $-1 0 -28.161883433378126 -12.996476720923917 -1 0 0 I I #
vertex $-1 $389 $650 #
straight-curve $-1 0 28.161883433378126 -12.996476720923917 1 0 0 I I #
point $-1 67.328714865565971 28.161883433378126 -12.996476720923917 #
point $-1 67.328714865565971 -28.161883433378126 -12.996476720923917 #
straight-curve $-1 -67.328714865565971 0 12.996476720923917 0 -1 0 I I #
point $-1 -67.328714865565971 28.161883433378126 12.996476720923917 #
point $-1 -67.328714865565971 -28.161883433378126 12.996476720923917 #
straight-curve $-1 67.328714865565971 -28.161883433378126 0 0 0 -1 I I #
straight-curve $-1 67.328714865565971 28.161883433378126 0 0 0 -1 I I #
plane-surface $-1 67.328714865565971 0 0 -1 0 0 0 0 1 forward_v I I I I #
coedge $-1 $569 $409 $420 $578 forward $260 $-1 #
coedge $-1 $409 $569 $423 $580 reversed $260 $-1 #
straight-curve $-1 67.328714865565971 -12.603902569843253 -4.1060473887303672 0 0 1 I I #
coedge $-1 $567 $566 $412 $570 forward $260 $-1 #
edge $-1 $573 2.4124560690379084 $571 17.970436932572781 $569 $651 forward 7 unknown #
vertex $-1 $414 $652 #
straight-curve $-1 0 -28.161883433378126 -11.05401058766893 1 0 0 I I #
vertex $-1 $570 $653 #
straight-curve $-1 0 -12.603902569843253 -11.05401058766893 1 0 0 I I #
point $-1 67.328714865565971 -28.161883433378126 -11.05401058766893 #
point $-1 67.328714865565971 -12.603902569843253 -11.05401058766893 #
straight-curve $-1 -67.328714865565971 -10.191446500805345 -5.3701789672525386 0 1 0 I I #
edge $-1 $421 1.2641315785221714 $573 6.9479631989385631 $566 $654 forward 7 unknown #
point $-1 -67.328714865565971 -12.603902569843253 -5.3701789672525386 #
edge $-1 $425 5.3701789672525386 $571 11.05401058766893 $567 $655 forward 7 unknown #
point $-1 -67.328714865565971 -28.161883433378126 -5.3701789672525386 #
straight-curve $-1 67.328714865565971 -28.161883433378126 0 0 0 -1 I I #
plane-surface $-1 0 28.161883433378126 0 0 -1 0 0 0 -1 forward_v I I I I #
coedge $-1 $434 $593 $436 $587 forward $431 $-1 #
vertex $-1 $587 $656 #
straight-curve $-1 -67.328714865565971 12.603902569843257 -4.1060473887303672 0 0 1 I I #
edge $-1 $589 -17.970436932572781 $585 -2.4124560690379102 $584 $657 forward 7 unknown #
straight-curve $-1 0 12.603902569843257 -11.05401058766893 -1 0 0 I I #
vertex $-1 $439 $658 #
straight-curve $-1 0 28.161883433378126 -11.05401058766893 -1 0 0 I I #
point $-1 67.328714865565971 12.603902569843257 -11.05401058766893 #
point $-1 67.328714865565971 28.161883433378129 -11.05401058766893 #
coedge $-1 $584 $443 $446 $595 forward $431 $-1 #
straight-curve $-1 -67.328714865565971 10.191446500805347 -5.3701789672525386 0 1 0 I I #
edge $-1 $448 5.3701789672525386 $589 11.05401058766893 $446 $659 forward 7 unknown #
point $-1 -67.328714865565971 28.161883433378129 -5.3701789672525386 #
point $-1 -67.328714865565971 12.603902569843257 -5.3701789672525386 #
straight-curve $-1 67.328714865565971 12.603902569843257 -4.1060473887303672 0 0 -1 I I #
straight-curve $-1 67.328714865565971 28.161883433378126 0 0 0 -1 I I #
coedge $-1 $468 $467 $460 $601 forward $457 $-1 #
edge $-1 $602 20.805717653887783 $605 27.159048984554261 $600 $660 forward 7 unknown #
vertex $-1 $601 $661 #
straight-curve $-1 -67.328714865565971 -10.776923839511708 41.700757938692846 0 0 1 I I #
edge $-1 $605 -6.5399953847102203 $469 -1.9338615248927553 $468 $662 forward 7 unknown #
vertex $-1 $604 $663 #
straight-curve $-1 -67.328714865565971 -10.776923839511708 4.2518660865967774 -0.5877852410284794 0 -0.80901700255871778 I I #
point $-1 -67.328714865565971 -10.776923839511708 4.2518660865967774 #
point $-1 -60.975383534899493 -6.1707899796942431 12.996476720923917 #
straight-curve $-1 -67.328714865565971 0 12.996476720923917 0 -1 0 I I #
vertex $-1 $475 $664 #
point $-1 -62.544365014068504 -8.4738569096029792 8.074154487607931 #
edge $-1 $613 20.805717653887783 $616 27.159048984554261 $480 $665 forward 7 unknown #
vertex $-1 $612 $666 #
straight-curve $-1 -67.328714865565971 -2.3743221262828751 41.700757938692846 0 0 1 I I #
edge $-1 $616 -2.3386945280958038 $491 2.2674393317216612 $490 $667 forward 7 unknown #
vertex $-1 $615 $668 #
straight-curve $-1 -67.328714865565971 -2.3743221262828751 4.2518660865967774 -0.5877852410284794 0 -0.80901700255871778 I I #
point $-1 -67.328714865565971 -2.3743221262828751 4.2518660865967774 #
point $-1 -60.975383534899493 2.2318117335345899 12.996476720923917 #
straight-curve $-1 -67.328714865565971 0 12.996476720923917 0 -1 0 I I #
vertex $-1 $497 $669 #
point $-1 -62.544365014068504 -0.071255196374142571 8.074154487607931 #
edge $-1 $624 20.805717653887783 $627 27.159048984554261 $502 $670 forward 7 unknown #
vertex $-1 $506 $671 #
straight-curve $-1 -67.328714865565971 6.028279586945958 41.700757938692846 0 0 1 I I #
edge $-1 $627 1.8626063285186127 $513 6.4687401883360778 $512 $672 forward 7 unknown #
vertex $-1 $626 $673 #
straight-curve $-1 -67.328714865565971 6.028279586945958 4.2518660865967774 -0.5877852410284794 0 -0.80901700255871778 I I #
point $-1 -67.328714865565971 6.028279586945958 4.2518660865967774 #
point $-1 -60.975383534899493 10.634413446763423 12.996476720923917 #
straight-curve $-1 -67.328714865565971 0 12.996476720923917 0 -1 0 I I #
vertex $-1 $519 $674 #
point $-1 -62.544365014068504 8.3313465168546905 8.074154487607931 #
edge $-1 $635 -13.86759082184097 $638 -6.9681590872055565 $524 $675 forward 7 unknown #
vertex $-1 $528 $676 #
straight-curve $-1 67.328714865565971 -6.3139107714524307 94.322599127927617 0 0 1 I I #
edge $-1 $638 1.5844574361285098 $535 7.8744492345193322 $534 $677 forward 7 unknown #
vertex $-1 $637 $678 #
straight-curve $-1 -6.0109760610710339 -6.3139107714524307 115.30550732921822 0.54463902268945019 0 -0.83867057594974714 I I #
point $-1 67.328714865565971 -6.3139107714524307 2.3722831806972096 #
point $-1 60.429283130930557 -12.603902569843253 12.996476720923923 #
straight-curve $-1 67.328714865565971 0 12.996476720923917 0 1 0 I I #
vertex $-1 $541 $679 #
point $-1 62.815478323897565 -10.806762056017305 6.3975399308585015 #
vertex $-1 $545 $680 #
point $-1 62.815478323897565 -8.111051285278382 6.3975399308585015 #
straight-curve $-1 -67.328714865565971 28.161883433378126 0 0 0 -1 I I #
point $-1 -67.328714865565971 -28.161883433378126 -12.996476720923917 #
straight-curve $-1 -67.328714865565971 0 -12.996476720923917 0 1 0 I I #
point $-1 -67.328714865565971 28.161883433378126 -12.996476720923917 #
straight-curve $-1 -67.328714865565971 -10.191446500805345 -11.05401058766893 0 -1 0 I I #
point $-1 -67.328714865565971 -28.161883433378126 -11.05401058766893 #
point $-1 -67.328714865565971 -12.603902569843253 -11.05401058766893 #
straight-curve $-1 -67.328714865565971 -12.603902569843253 -4.1060473887303672 0 0 -1 I I #
straight-curve $-1 -67.328714865565971 -28.161883433378126 0 0 0 -1 I I #
point $-1 -67.328714865565971 12.603902569843257 -11.05401058766893 #
straight-curve $-1 -67.328714865565971 10.191446500805347 -11.05401058766893 0 -1 0 I I #
point $-1 -67.328714865565971 28.161883433378129 -11.05401058766893 #
straight-curve $-1 -67.328714865565971 28.161883433378126 0 0 0 -1 I I #
straight-curve $-1 -88.134432519453753 -10.776923839511708 12.996476720923916 1 0 0 I I #
point $-1 -67.328714865565971 -10.776923839511708 12.996476720923917 #
straight-curve $-1 -60.975383534899493 -4.2369284548014878 12.996476720923919 0 1 0 I I #
point $-1 -60.975383534899493 -10.776923839511708 12.996476720923917 #
point $-1 -62.433749133303387 -8.4738569096029792 7.3757533658143322 #
straight-curve $-1 -88.134432519453753 -2.3743221262828751 12.996476720923916 1 0 0 I I #
point $-1 -67.328714865565971 -2.3743221262828751 12.996476720923917 #
straight-curve $-1 -60.975383534899493 -0.035627598187071285 12.996476720923919 0 1 0 I I #
point $-1 -60.975383534899493 -2.3743221262828751 12.996476720923917 #
point $-1 -62.433749133303387 -0.071255196374142571 7.3757533658143322 #
straight-curve $-1 -88.134432519453753 6.028279586945958 12.996476720923916 1 0 0 I I #
point $-1 -67.328714865565971 6.028279586945958 12.996476720923917 #
straight-curve $-1 -60.975383534899493 4.1656732584273453 12.996476720923919 0 1 0 I I #
point $-1 -60.975383534899493 6.028279586945958 12.996476720923917 #
point $-1 -62.433749133303387 8.3313465168546905 7.3757533658143322 #
straight-curve $-1 53.461124043725 -6.3139107714524307 12.996476720923923 -1 0 0 I I #
point $-1 67.328714865565971 -6.3139107714524307 12.996476720923917 #
straight-curve $-1 60.429283130930543 -4.729453335323921 12.996476720923923 0 -1 0 I I #
point $-1 60.429283130930557 -6.3139107714524307 12.996476720923923 #
point $-1 62.123823524577965 -10.806762056017305 6.5445557074886507 #
point $-1 62.123823524577965 -8.111051285278382 6.5445557074886507 #
End-of-ACIS-data 