500 0 6 0           
7 Unknown 11 ACIS 5.0 NT 24 Fri Mar 26 19:26:47 1999 
-1 9.9999999999999995e-007 1e-010 
body $-1 $6 $-1 $7 #
body $-1 $8 $-1 $9 #
body $-1 $10 $-1 $11 #
body $-1 $12 $-1 $13 #
body $-1 $14 $-1 $15 #
body $-1 $16 $-1 $17 #
lump $-1 $-1 $18 $0 #
transform $-1 1 0 0 0 1 0 0 0 1 70.53437910092471 36.66767378896639 14.232769024314916 1 rotate no_reflect no_shear #
lump $-1 $-1 $19 $1 #
transform $-1 1 0 0 0 1 0 0 0 1 70.53437910092471 36.66767378896639 14.232769024314916 1 rotate no_reflect no_shear #
lump $-1 $-1 $20 $2 #
transform $-1 1 0 0 0 1 0 0 0 1 70.53437910092471 36.66767378896639 14.232769024314916 1 rotate no_reflect no_shear #
lump $-1 $-1 $21 $3 #
transform $-1 1 0 0 0 1 0 0 0 1 70.53437910092471 36.66767378896639 14.232769024314916 1 rotate no_reflect no_shear #
lump $-1 $-1 $22 $4 #
transform $-1 1 0 0 0 1 0 0 0 1 70.53437910092471 36.66767378896639 14.232769024314916 1 rotate no_reflect no_shear #
lump $-1 $-1 $23 $5 #
transform $-1 1 0 0 0 1 0 0 0 1 70.53437910092471 36.66767378896639 14.232769024314916 1 rotate no_reflect no_shear #
shell $-1 $-1 $-1 $24 $-1 $6 #
shell $-1 $-1 $-1 $25 $-1 $8 #
shell $-1 $-1 $-1 $26 $-1 $10 #
shell $-1 $-1 $-1 $27 $-1 $12 #
shell $-1 $-1 $-1 $28 $-1 $14 #
shell $-1 $-1 $-1 $29 $-1 $16 #
face $-1 $30 $31 $18 $-1 $32 forward single #
face $-1 $33 $34 $19 $-1 $35 forward single #
face $-1 $36 $37 $20 $-1 $38 reversed single #
face $-1 $39 $40 $21 $-1 $41 forward single #
face $-1 $42 $43 $22 $-1 $44 forward single #
face $-1 $45 $46 $23 $-1 $47 forward single #
face $-1 $48 $49 $18 $-1 $50 reversed single #
loop $-1 $-1 $51 $24 #
plane-surface $-1 0 0 14.232769024314916 0 0 1 1 0 0 forward_v I I I I #
face $-1 $52 $53 $19 $-1 $54 reversed single #
loop $-1 $-1 $55 $25 #
plane-surface $-1 -61.772163169138942 0 -2.1274370216335323 0 0 1 1 0 0 forward_v I I I I #
face $-1 $56 $57 $20 $-1 $58 reversed single #
loop $-1 $-1 $59 $26 #
plane-surface $-1 42.769159310625312 -20.747500201939523 204.13657725978373 0 -1 0 -0.6018150307709319 0 -0.79863550430605224 forward_v I I I I #
face $-1 $60 $61 $21 $-1 $62 forward single #
loop $-1 $63 $64 $27 #
cone-surface $-1 64.795859332473455 -33.483639071561015 9.5307912308785632 -0.6018150307709319 0 -0.79863550430605224 0.79863550430605224 0 -0.6018150307709319 1 I I 0 1 1 forward I I I I #
face $-1 $65 $66 $22 $-1 $67 forward single #
loop $-1 $68 $69 $28 #
cone-surface $-1 64.795859332473455 -28.707586995452957 9.5307912308785632 -0.6018150307709319 0 -0.79863550430605224 0.79863550430605224 0 -0.6018150307709319 1 I I 0 1 1 forward I I I I #
face $-1 $70 $71 $23 $-1 $72 forward single #
loop $-1 $73 $74 $29 #
cone-surface $-1 64.795859332473455 -23.931534919344898 9.5307912308785632 -0.6018150307709319 0 -0.79863550430605224 0.79863550430605224 0 -0.6018150307709319 1 I I 0 1 1 forward I I I I #
face $-1 $75 $76 $18 $-1 $77 reversed single #
loop $-1 $-1 $78 $30 #
plane-surface $-1 0 0 -14.232769024314916 0 0 1 1 0 0 forward_v I I I I #
coedge $-1 $79 $80 $81 $82 forward $31 $-1 #
face $-1 $83 $84 $19 $-1 $85 reversed single #
loop $-1 $-1 $86 $33 #
plane-surface $-1 -61.772163169138942 0 -7.8258438586948245 0 0 1 1 0 0 forward_v I I I I #
coedge $-1 $87 $88 $89 $90 forward $34 $-1 #
face $-1 $91 $92 $20 $-1 $93 reversed single #
loop $-1 $-1 $94 $36 #
plane-surface $-1 -42.128139747437842 -28.707586995452957 91.474058411421183 0.6018150307709319 0 0.79863550430605224 0.79863550430605224 0 -0.6018150307709319 forward_v I I I I #
coedge $-1 $95 $96 $97 $98 reversed $37 $-1 #
face $-1 $-1 $99 $21 $-1 $100 forward single #
loop $-1 $101 $102 $39 #
cone-surface $-1 63.836365941866447 -33.483639071561015 8.2575005207676391 -0.6018150307709319 0 -0.79863550430605224 0.39931775215302612 0 -0.30090751538546595 1 I I -0.70710678118654746 0.70710678118654746 0.5 forward I I I I #
loop $-1 $-1 $103 $27 #
coedge $-1 $64 $64 $104 $105 reversed $40 $-1 #
face $-1 $-1 $106 $22 $-1 $107 forward single #
loop $-1 $108 $109 $42 #
cone-surface $-1 63.836365941866447 -28.707586995452957 8.2575005207676391 -0.6018150307709319 0 -0.79863550430605224 0.39931775215302612 0 -0.30090751538546595 1 I I -0.70710678118654746 0.70710678118654746 0.5 forward I I I I #
loop $-1 $-1 $110 $28 #
coedge $-1 $69 $69 $111 $112 reversed $43 $-1 #
face $-1 $-1 $113 $23 $-1 $114 forward single #
loop $-1 $115 $116 $45 #
cone-surface $-1 63.836365941866447 -23.931534919344898 8.2575005207676391 -0.6018150307709319 0 -0.79863550430605224 0.39931775215302612 0 -0.30090751538546595 1 I I -0.70710678118654746 0.70710678118654746 0.5 forward I I I I #
loop $-1 $-1 $117 $29 #
coedge $-1 $74 $74 $118 $119 reversed $46 $-1 #
face $-1 $120 $121 $18 $-1 $122 reversed single #
loop $-1 $-1 $123 $48 #
plane-surface $-1 0 -36.66767378896639 0 0 1 0 0 0 1 forward_v I I I I #
coedge $-1 $124 $125 $126 $127 forward $49 $-1 #
coedge $-1 $128 $51 $129 $130 forward $31 $-1 #
coedge $-1 $51 $128 $131 $132 forward $31 $-1 #
coedge $-1 $133 $134 $51 $82 reversed $135 $-1 #
edge $-1 $136 -36.66767378896639 $137 36.66767378896639 $81 $138 forward 7 unknown #
face $-1 $139 $140 $19 $-1 $141 reversed single #
loop $-1 $-1 $142 $52 #
plane-surface $-1 -53.009947237353174 0 -4.9766404401641786 -1 0 0 0 0 1 forward_v I I I I #
coedge $-1 $143 $144 $145 $146 forward $53 $-1 #
coedge $-1 $147 $55 $148 $149 reversed $34 $-1 #
coedge $-1 $55 $147 $150 $151 reversed $34 $-1 #
coedge $-1 $142 $152 $55 $90 reversed $84 $-1 #
edge $-1 $153 -36.66767378896639 $154 36.66767378896639 $89 $155 forward 7 unknown #
face $-1 $156 $157 $20 $-1 $158 forward single #
loop $-1 $-1 $159 $56 #
plane-surface $-1 0 -36.66767378896639 0 0 1 0 0 0 1 forward_v I I I I #
coedge $-1 $160 $161 $162 $163 reversed $57 $-1 #
coedge $-1 $96 $59 $164 $165 reversed $37 $-1 #
coedge $-1 $59 $95 $160 $166 reversed $37 $-1 #
coedge $-1 $162 $167 $59 $98 forward $157 $-1 #
edge $-1 $168 -49.149799445612054 $169 -38.989931659152639 $97 $170 forward 7 unknown #
loop $-1 $-1 $104 $60 #
plane-surface $-1 -42.128139747437842 -28.707586995452957 91.474058411421183 0.6018150307709319 0 0.79863550430605224 0.79863550430605224 0 -0.6018150307709319 forward_v I I I I #
loop $-1 $-1 $171 $39 #
coedge $-1 $102 $102 $103 $172 reversed $61 $-1 #
coedge $-1 $103 $103 $102 $172 forward $63 $-1 #
coedge $-1 $104 $104 $64 $105 forward $99 $-1 #
edge $-1 $173 0 $173 6.2831853071796004 $104 $174 forward 7 unknown #
loop $-1 $-1 $111 $65 #
plane-surface $-1 -42.128139747437842 -28.707586995452957 91.474058411421183 0.6018150307709319 0 0.79863550430605224 0.79863550430605224 0 -0.6018150307709319 forward_v I I I I #
loop $-1 $-1 $175 $42 #
coedge $-1 $109 $109 $110 $176 reversed $66 $-1 #
coedge $-1 $110 $110 $109 $176 forward $68 $-1 #
coedge $-1 $111 $111 $69 $112 forward $106 $-1 #
edge $-1 $177 0 $177 6.2831853071796004 $111 $178 forward 7 unknown #
loop $-1 $-1 $118 $70 #
plane-surface $-1 -42.128139747437842 -28.707586995452957 91.474058411421183 0.6018150307709319 0 0.79863550430605224 0.79863550430605224 0 -0.6018150307709319 forward_v I I I I #
loop $-1 $-1 $179 $45 #
coedge $-1 $116 $116 $117 $180 reversed $71 $-1 #
coedge $-1 $117 $117 $116 $180 forward $73 $-1 #
coedge $-1 $118 $118 $74 $119 forward $113 $-1 #
edge $-1 $181 0 $181 6.2831853071796004 $118 $182 forward 7 unknown #
face $-1 $183 $184 $18 $-1 $185 reversed single #
loop $-1 $-1 $186 $75 #
plane-surface $-1 -70.53437910092471 0 0 1 0 0 0 0 -1 forward_v I I I I #
coedge $-1 $187 $131 $188 $189 forward $76 $-1 #
coedge $-1 $190 $78 $187 $191 forward $49 $-1 #
coedge $-1 $78 $190 $192 $193 forward $49 $-1 #
coedge $-1 $134 $133 $78 $127 reversed $135 $-1 #
edge $-1 $194 -36.66767378896639 $195 36.66767378896639 $126 $196 forward 7 unknown #
coedge $-1 $80 $79 $197 $198 forward $31 $-1 #
coedge $-1 $199 $200 $79 $130 reversed $184 $-1 #
edge $-1 $137 -70.53437910092471 $201 70.53437910092471 $129 $202 forward 7 unknown #
coedge $-1 $123 $203 $80 $132 reversed $76 $-1 #
edge $-1 $204 -70.53437910092471 $136 70.53437910092471 $131 $205 forward 7 unknown #
coedge $-1 $126 $81 $203 $206 forward $135 $-1 #
coedge $-1 $81 $126 $199 $207 reversed $135 $-1 #
loop $-1 $-1 $133 $183 #
vertex $-1 $82 $208 #
vertex $-1 $82 $209 #
straight-curve $-1 70.53437910092471 0 14.232769024314916 0 1 0 I I #
face $-1 $210 $211 $19 $-1 $212 reversed single #
loop $-1 $-1 $213 $83 #
plane-surface $-1 0 -36.66767378896639 0 0 1 0 0 0 1 forward_v I I I I #
coedge $-1 $145 $89 $214 $215 reversed $84 $-1 #
coedge $-1 $216 $86 $213 $217 reversed $53 $-1 #
coedge $-1 $86 $216 $218 $219 reversed $53 $-1 #
coedge $-1 $152 $142 $86 $146 reversed $84 $-1 #
edge $-1 $220 -36.66767378896639 $221 36.66767378896639 $145 $222 forward 7 unknown #
coedge $-1 $88 $87 $223 $224 reversed $34 $-1 #
coedge $-1 $225 $226 $87 $149 forward $227 $-1 #
edge $-1 $228 -39.648297516355242 $154 -22.123865652783703 $148 $229 forward 7 unknown #
coedge $-1 $230 $214 $88 $151 forward $140 $-1 #
edge $-1 $153 22.123865652783703 $231 39.648297516355242 $150 $232 forward 7 unknown #
coedge $-1 $89 $145 $225 $233 reversed $84 $-1 #
vertex $-1 $151 $234 #
vertex $-1 $149 $235 #
straight-curve $-1 -53.009947237353174 0 -2.1274370216335323 0 1 0 I I #
face $-1 $-1 $236 $20 $-1 $237 reversed single #
loop $-1 $-1 $162 $91 #
plane-surface $-1 0 0 14.232769024314916 0 0 1 1 0 0 forward_v I I I I #
coedge $-1 $238 $239 $161 $240 forward $92 $-1 #
coedge $-1 $241 $94 $96 $166 forward $57 $-1 #
coedge $-1 $94 $241 $159 $240 reversed $57 $-1 #
coedge $-1 $242 $97 $94 $163 forward $157 $-1 #
edge $-1 $169 6.3937067042130451 $243 22.313880291239911 $162 $244 forward 7 unknown #
coedge $-1 $245 $246 $95 $165 forward $236 $-1 #
edge $-1 $247 -95.491529276533839 $168 -87.835519605576948 $164 $248 forward 7 unknown #
edge $-1 $169 128.34722537281812 $247 141.06875820184942 $96 $249 forward 7 unknown #
coedge $-1 $97 $242 $245 $250 forward $157 $-1 #
vertex $-1 $165 $251 #
vertex $-1 $98 $252 #
straight-curve $-1 21.384579655312656 -20.747500201939523 14.232769024314919 -1 0 0 I I #
coedge $-1 $171 $171 $-1 $253 reversed $101 $-1 #
edge $-1 $254 0 $254 6.2831853071796004 $102 $255 forward 7 unknown #
vertex $-1 $105 $256 #
ellipse-curve $-1 65.454445207695002 -33.483639071561015 10.404764188836481 0.6018150307709319 0 0.79863550430605224 0.79863550430605224 0 -0.6018150307709319 1 I I #
coedge $-1 $175 $175 $-1 $257 reversed $108 $-1 #
edge $-1 $258 0 $258 6.2831853071796004 $109 $259 forward 7 unknown #
vertex $-1 $112 $260 #
ellipse-curve $-1 65.454445207695002 -28.707586995452957 10.404764188836481 0.6018150307709319 0 0.79863550430605224 0.79863550430605224 0 -0.6018150307709319 1 I I #
coedge $-1 $179 $179 $-1 $261 reversed $115 $-1 #
edge $-1 $262 0 $262 6.2831853071796004 $116 $263 forward 7 unknown #
vertex $-1 $119 $264 #
ellipse-curve $-1 65.454445207695002 -23.931534919344898 10.404764188836481 0.6018150307709319 0 0.79863550430605224 0.79863550430605224 0 -0.6018150307709319 1 I I #
face $-1 $-1 $135 $18 $-1 $265 reversed single #
loop $-1 $-1 $199 $120 #
plane-surface $-1 0 36.66767378896639 0 0 -1 0 0 0 -1 forward_v I I I I #
coedge $-1 $266 $197 $200 $267 forward $121 $-1 #
coedge $-1 $203 $123 $124 $191 reversed $76 $-1 #
coedge $-1 $197 $266 $123 $189 reversed $121 $-1 #
edge $-1 $204 -14.232769024314916 $268 14.232769024314916 $188 $269 forward 7 unknown #
coedge $-1 $125 $124 $266 $270 forward $49 $-1 #
edge $-1 $195 -70.53437910092471 $268 70.53437910092471 $187 $271 forward 7 unknown #
coedge $-1 $200 $199 $125 $193 reversed $184 $-1 #
edge $-1 $272 -70.53437910092471 $194 70.53437910092471 $192 $273 forward 7 unknown #
vertex $-1 $127 $274 #
vertex $-1 $206 $275 #
straight-curve $-1 70.53437910092471 0 -14.232769024314916 0 -1 0 I I #
coedge $-1 $186 $188 $128 $198 reversed $121 $-1 #
edge $-1 $201 -36.66767378896639 $204 36.66767378896639 $197 $276 forward 7 unknown #
coedge $-1 $192 $129 $134 $207 forward $184 $-1 #
coedge $-1 $129 $192 $186 $267 reversed $184 $-1 #
vertex $-1 $130 $277 #
straight-curve $-1 0 36.66767378896639 14.232769024314916 -1 0 0 I I #
coedge $-1 $131 $187 $133 $206 reversed $76 $-1 #
vertex $-1 $198 $278 #
straight-curve $-1 0 -36.66767378896639 14.232769024314916 1 0 0 I I #
edge $-1 $136 -14.232769024314916 $195 14.232769024314916 $133 $279 forward 7 unknown #
edge $-1 $137 -14.232769024314916 $194 14.232769024314916 $134 $280 forward 7 unknown #
point $-1 70.53437910092471 -36.66767378896639 14.232769024314916 #
point $-1 70.53437910092471 36.66767378896639 14.232769024314916 #
face $-1 $-1 $227 $19 $-1 $281 reversed single #
loop $-1 $-1 $282 $139 #
plane-surface $-1 -70.53437910092471 0 0 1 0 0 0 0 -1 forward_v I I I I #
coedge $-1 $214 $230 $143 $217 forward $140 $-1 #
coedge $-1 $150 $213 $142 $215 forward $140 $-1 #
edge $-1 $221 -5.3375236386127352 $153 0.36088319844855699 $214 $283 forward 7 unknown #
coedge $-1 $144 $143 $282 $284 reversed $53 $-1 #
edge $-1 $285 -39.648297516355242 $221 -22.123865652783703 $213 $286 forward 7 unknown #
coedge $-1 $226 $225 $144 $219 forward $227 $-1 #
edge $-1 $220 22.123865652783703 $287 39.648297516355242 $218 $288 forward 7 unknown #
vertex $-1 $219 $289 #
vertex $-1 $217 $290 #
straight-curve $-1 -53.009947237353174 0 -7.8258438586948245 0 -1 0 I I #
coedge $-1 $291 $292 $147 $224 forward $211 $-1 #
edge $-1 $231 -36.66767378896639 $228 36.66767378896639 $223 $293 forward 7 unknown #
coedge $-1 $218 $148 $152 $233 forward $227 $-1 #
coedge $-1 $148 $218 $291 $294 reversed $227 $-1 #
loop $-1 $-1 $218 $210 #
vertex $-1 $294 $295 #
straight-curve $-1 -30.886081584569471 36.66767378896639 -2.1274370216335323 1 0 0 I I #
coedge $-1 $213 $150 $292 $296 forward $140 $-1 #
vertex $-1 $296 $297 #
straight-curve $-1 -30.886081584569471 -36.66767378896639 -2.1274370216335323 -1 0 0 I I #
edge $-1 $154 -0.36088319844855699 $220 5.3375236386127352 $225 $298 forward 7 unknown #
point $-1 -53.009947237353174 -36.66767378896639 -2.1274370216335323 #
point $-1 -53.009947237353174 36.66767378896639 -2.1274370216335323 #
loop $-1 $-1 $164 $156 #
plane-surface $-1 70.53437910092471 0 0 -1 0 0 0 0 1 forward_v I I I I #
coedge $-1 $239 $159 $299 $300 reversed $92 $-1 #
coedge $-1 $159 $238 $242 $301 reversed $92 $-1 #
edge $-1 $243 83.999479667676965 $302 96.721012496708269 $159 $303 forward 7 unknown #
coedge $-1 $161 $160 $246 $304 reversed $57 $-1 #
coedge $-1 $167 $162 $239 $301 forward $157 $-1 #
vertex $-1 $301 $305 #
straight-curve $-1 60.374511314465288 -14.353793497726478 14.232769024314912 0 -1 0 I I #
coedge $-1 $299 $164 $167 $250 reversed $236 $-1 #
coedge $-1 $164 $299 $241 $304 forward $236 $-1 #
vertex $-1 $165 $306 #
straight-curve $-1 70.53437910092471 -20.747500201939523 102.06828862989187 0 0 1 I I #
straight-curve $-1 -42.128139747437842 -20.747500201939523 91.474058411421183 0.79863550430605224 0 -0.6018150307709319 I I #
edge $-1 $307 -36.66767378896639 $168 -20.747500201939523 $245 $308 forward 7 unknown #
point $-1 70.53437910092471 -20.747500201939523 14.232769024314916 #
point $-1 60.374511314465295 -20.747500201939523 14.232769024314919 #
edge $-1 $309 1 $309 0 $171 $-1 forward 7 unknown #
vertex $-1 $172 $310 #
ellipse-curve $-1 64.137273457251908 -33.483639071561015 8.6568182729206651 0.6018150307709319 0 0.79863550430605224 0.79863550430605224 0 -0.6018150307709319 1 I I #
point $-1 66.253080712001037 -33.483639071561015 9.8029491580655304 #
edge $-1 $311 1 $311 0 $175 $-1 forward 7 unknown #
vertex $-1 $176 $312 #
ellipse-curve $-1 64.137273457251908 -28.707586995452957 8.6568182729206651 0.6018150307709319 0 0.79863550430605224 0.79863550430605224 0 -0.6018150307709319 1 I I #
point $-1 66.253080712001037 -28.707586995452957 9.8029491580655304 #
edge $-1 $313 1 $313 0 $179 $-1 forward 7 unknown #
vertex $-1 $180 $314 #
ellipse-curve $-1 64.137273457251908 -23.931534919344898 8.6568182729206651 0.6018150307709319 0 0.79863550430605224 0.79863550430605224 0 -0.6018150307709319 1 I I #
point $-1 66.253080712001037 -23.931534919344898 9.8029491580655304 #
plane-surface $-1 70.53437910092471 0 0 -1 0 0 0 0 1 forward_v I I I I #
coedge $-1 $188 $186 $190 $270 reversed $121 $-1 #
edge $-1 $201 -14.232769024314916 $272 14.232769024314916 $200 $315 forward 7 unknown #
vertex $-1 $270 $316 #
straight-curve $-1 -70.53437910092471 -36.66767378896639 0 0 0 -1 I I #
edge $-1 $268 -36.66767378896639 $272 36.66767378896639 $266 $317 forward 7 unknown #
straight-curve $-1 0 -36.66767378896639 -14.232769024314916 -1 0 0 I I #
vertex $-1 $193 $318 #
straight-curve $-1 0 36.66767378896639 -14.232769024314916 1 0 0 I I #
point $-1 70.53437910092471 36.66767378896639 -14.232769024314916 #
point $-1 70.53437910092471 -36.66767378896639 -14.232769024314916 #
straight-curve $-1 -70.53437910092471 0 14.232769024314916 0 -1 0 I I #
point $-1 -70.53437910092471 36.66767378896639 14.232769024314916 #
point $-1 -70.53437910092471 -36.66767378896639 14.232769024314916 #
straight-curve $-1 70.53437910092471 -36.66767378896639 0 0 0 -1 I I #
straight-curve $-1 70.53437910092471 36.66767378896639 0 0 0 -1 I I #
plane-surface $-1 0 36.66767378896639 0 0 -1 0 0 0 -1 forward_v I I I I #
coedge $-1 $292 $291 $216 $284 forward $211 $-1 #
straight-curve $-1 -53.009947237353174 -36.66767378896639 -2.4883202200820893 0 0 1 I I #
edge $-1 $287 -36.66767378896639 $285 36.66767378896639 $282 $319 forward 7 unknown #
vertex $-1 $217 $320 #
straight-curve $-1 -30.886081584569471 -36.66767378896639 -7.8258438586948245 1 0 0 I I #
vertex $-1 $219 $321 #
straight-curve $-1 -30.886081584569471 36.66767378896639 -7.8258438586948245 -1 0 0 I I #
point $-1 -53.009947237353174 36.66767378896639 -7.8258438586948245 #
point $-1 -53.009947237353174 -36.66767378896639 -7.8258438586948245 #
coedge $-1 $282 $223 $226 $294 forward $211 $-1 #
coedge $-1 $223 $282 $230 $296 reversed $211 $-1 #
straight-curve $-1 -70.53437910092471 0 -2.1274370216335323 0 1 0 I I #
edge $-1 $228 2.1274370216335323 $287 7.8258438586948245 $226 $322 forward 7 unknown #
point $-1 -70.53437910092471 36.66767378896639 -2.1274370216335323 #
edge $-1 $231 2.1274370216335323 $285 7.8258438586948245 $292 $323 forward 7 unknown #
point $-1 -70.53437910092471 -36.66767378896639 -2.1274370216335323 #
straight-curve $-1 -53.009947237353174 36.66767378896639 -2.4883202200820893 0 0 -1 I I #
coedge $-1 $246 $245 $238 $300 forward $236 $-1 #
edge $-1 $307 -14.232769024314916 $302 -6.5767593533580202 $299 $324 forward 7 unknown #
edge $-1 $243 60.374511314465302 $307 70.53437910092471 $239 $325 forward 7 unknown #
vertex $-1 $240 $326 #
straight-curve $-1 -6.7104554913758694 -36.66767378896639 64.784918465260191 0.79863550430605224 0 -0.6018150307709319 I I #
edge $-1 $302 -22.313880291239911 $247 -6.3937067042130451 $246 $327 forward 7 unknown #
point $-1 60.374511314465302 -36.66767378896639 14.232769024314916 #
point $-1 70.53437910092471 -20.747500201939523 6.5767593533580282 #
vertex $-1 $250 $328 #
straight-curve $-1 70.53437910092471 0 14.232769024314916 0 1 0 I I #
vertex $-1 $253 $329 #
point $-1 64.935908961557971 -33.483639071561015 8.0550032421497342 #
vertex $-1 $257 $330 #
point $-1 64.935908961557971 -28.707586995452957 8.0550032421497342 #
vertex $-1 $261 $331 #
point $-1 64.935908961557971 -23.931534919344898 8.0550032421497342 #
straight-curve $-1 -70.53437910092471 36.66767378896639 0 0 0 -1 I I #
point $-1 -70.53437910092471 -36.66767378896639 -14.232769024314916 #
straight-curve $-1 -70.53437910092471 0 -14.232769024314916 0 1 0 I I #
point $-1 -70.53437910092471 36.66767378896639 -14.232769024314916 #
straight-curve $-1 -70.53437910092471 0 -7.8258438586948245 0 -1 0 I I #
point $-1 -70.53437910092471 -36.66767378896639 -7.8258438586948245 #
point $-1 -70.53437910092471 36.66767378896639 -7.8258438586948245 #
straight-curve $-1 -70.53437910092471 36.66767378896639 0 0 0 -1 I I #
straight-curve $-1 -70.53437910092471 -36.66767378896639 0 0 0 -1 I I #
straight-curve $-1 70.53437910092471 -36.66767378896639 0 0 0 -1 I I #
straight-curve $-1 0 -36.66767378896639 14.232769024314916 1 0 0 I I #
point $-1 70.53437910092471 -36.66767378896639 6.5767593533580202 #
straight-curve $-1 70.534379100924696 -14.353793497726478 6.5767593533580211 0 1 0 I I #
point $-1 70.53437910092471 -36.66767378896639 14.232769024314916 #
point $-1 63.535458426480979 -33.483639071561015 7.8581827686146131 #
point $-1 63.535458426480979 -28.707586995452957 7.8581827686146131 #
point $-1 63.535458426480979 -23.931534919344898 7.8581827686146131 #
End-of-ACIS-data 