500 0 6 0           
7 Unknown 11 ACIS 5.0 NT 24 Fri Mar 26 14:33:01 1999 
-1 9.9999999999999995e-007 1e-010 
body $-1 $6 $-1 $7 #
body $-1 $8 $-1 $9 #
body $-1 $10 $-1 $11 #
body $-1 $12 $-1 $13 #
body $-1 $14 $-1 $15 #
body $-1 $16 $-1 $17 #
lump $-1 $-1 $18 $0 #
transform $-1 1 0 0 0 1 0 0 0 1 71.380352183599356 33.547044572947634 11.628591011336216 1 rotate no_reflect no_shear #
lump $-1 $-1 $19 $1 #
transform $-1 1 0 0 0 1 0 0 0 1 71.380352183599356 33.547044572947634 11.628591011336216 1 rotate no_reflect no_shear #
lump $-1 $-1 $20 $2 #
transform $-1 1 0 0 0 1 0 0 0 1 71.380352183599356 33.547044572947634 11.628591011336216 1 rotate no_reflect no_shear #
lump $-1 $-1 $21 $3 #
transform $-1 1 0 0 0 1 0 0 0 1 71.380352183599356 33.547044572947634 11.628591011336216 1 rotate no_reflect no_shear #
lump $-1 $-1 $22 $4 #
transform $-1 1 0 0 0 1 0 0 0 1 71.380352183599356 33.547044572947634 11.628591011336216 1 rotate no_reflect no_shear #
lump $-1 $-1 $23 $5 #
transform $-1 1 0 0 0 1 0 0 0 1 71.380352183599356 33.547044572947634 11.628591011336216 1 rotate no_reflect no_shear #
shell $-1 $-1 $-1 $24 $-1 $6 #
shell $-1 $-1 $-1 $25 $-1 $8 #
shell $-1 $-1 $-1 $26 $-1 $10 #
shell $-1 $-1 $-1 $27 $-1 $12 #
shell $-1 $-1 $-1 $28 $-1 $14 #
shell $-1 $-1 $-1 $29 $-1 $16 #
face $-1 $30 $31 $18 $-1 $32 forward single #
face $-1 $33 $34 $19 $-1 $35 reversed single #
face $-1 $36 $37 $20 $-1 $38 forward single #
face $-1 $39 $40 $21 $-1 $41 reversed single #
face $-1 $42 $43 $22 $-1 $44 forward single #
face $-1 $45 $46 $23 $-1 $47 forward single #
face $-1 $48 $49 $18 $-1 $50 reversed single #
loop $-1 $-1 $51 $24 #
plane-surface $-1 0 0 11.628591011336216 0 0 1 1 0 0 forward_v I I I I #
face $-1 $52 $53 $19 $-1 $54 reversed single #
loop $-1 $-1 $55 $25 #
plane-surface $-1 -37.964256948764344 97.272234685184571 149.93577593633827 1 0 0 0 -0.75470958851134928 -0.65605901945558964 forward_v I I I I #
face $-1 $56 $57 $20 $-1 $58 forward single #
loop $-1 $59 $60 $26 #
cone-surface $-1 -18.046291492045569 29.496365559537516 7.3757341868272626 0 -0.75470958851134928 -0.65605901945558964 1 0 0 1 I I 0 1 1 forward I I I I #
face $-1 $61 $62 $21 $-1 $63 reversed single #
loop $-1 $-1 $64 $27 #
plane-surface $-1 27.601844267129465 -115.43122169016601 121.54892082321457 -1 0 0 0 -0.57357644374324357 0.81915203911291934 forward_v I I I I #
face $-1 $65 $66 $22 $-1 $67 forward single #
loop $-1 $68 $69 $28 #
cone-surface $-1 11.423949223490567 -26.782224632626789 5.6176899403800622 0 0.57357644374324357 -0.81915203911291934 2 0 0 1 I I 0 1 2 forward I I I I #
face $-1 $70 $71 $23 $-1 $72 forward single #
loop $-1 $73 $74 $29 #
cone-surface $-1 21.130686249673914 -26.782224632626789 5.6176899403800622 0 0.57357644374324357 -0.81915203911291934 2 0 0 1 I I 0 1 2 forward I I I I #
face $-1 $75 $76 $18 $-1 $77 reversed single #
loop $-1 $-1 $78 $30 #
plane-surface $-1 0 0 -11.628591011336216 0 0 1 1 0 0 forward_v I I I I #
coedge $-1 $79 $80 $81 $82 forward $31 $-1 #
face $-1 $83 $84 $19 $-1 $85 reversed single #
loop $-1 $-1 $86 $33 #
plane-surface $-1 -18.046291492045569 -10.470637763374356 56.276328212404579 0 0.75470958851134928 0.65605901945558964 1 0 0 forward_v I I I I #
coedge $-1 $87 $88 $89 $90 reversed $34 $-1 #
face $-1 $-1 $91 $20 $-1 $92 forward single #
loop $-1 $93 $94 $36 #
cone-surface $-1 -18.046291492045569 27.67133050399768 5.7892554574775339 0 -0.75470958851134928 -0.65605901945558964 0.5 0 0 1 I I -0.70710678118654746 0.70710678118654746 0.5 forward I I I I #
loop $-1 $-1 $95 $26 #
coedge $-1 $60 $60 $96 $97 reversed $37 $-1 #
face $-1 $98 $99 $21 $-1 $100 reversed single #
loop $-1 $-1 $101 $39 #
plane-surface $-1 16.277317736582233 -33.547044572947627 4.6061987356271032 0 -0.57357644374324357 0.81915203911291934 1 0 0 forward_v I I I I #
coedge $-1 $102 $103 $104 $105 reversed $40 $-1 #
face $-1 $-1 $106 $22 $-1 $107 forward single #
loop $-1 $108 $109 $42 #
cone-surface $-1 11.423949223490567 -24.458335917808053 2.2988329681655486 0 0.57357644374324357 -0.81915203911291934 1 0 0 1 I I -0.70710678118654746 0.70710678118654746 1 forward I I I I #
loop $-1 $-1 $110 $28 #
coedge $-1 $69 $69 $111 $112 reversed $43 $-1 #
face $-1 $-1 $113 $23 $-1 $114 forward single #
loop $-1 $115 $116 $45 #
cone-surface $-1 21.130686249673914 -24.458335917808053 2.2988329681655486 0 0.57357644374324357 -0.81915203911291934 1 0 0 1 I I -0.70710678118654746 0.70710678118654746 1 forward I I I I #
loop $-1 $-1 $117 $29 #
coedge $-1 $74 $74 $118 $119 reversed $46 $-1 #
face $-1 $120 $121 $18 $-1 $122 reversed single #
loop $-1 $-1 $123 $48 #
plane-surface $-1 0 -33.547044572947634 0 0 1 0 0 0 1 forward_v I I I I #
coedge $-1 $124 $125 $126 $127 forward $49 $-1 #
coedge $-1 $128 $51 $129 $130 forward $31 $-1 #
coedge $-1 $51 $128 $131 $132 forward $31 $-1 #
coedge $-1 $133 $134 $51 $82 reversed $135 $-1 #
edge $-1 $136 -33.547044572947634 $137 33.547044572947634 $81 $138 forward 7 unknown #
face $-1 $139 $140 $19 $-1 $141 reversed single #
loop $-1 $-1 $142 $52 #
plane-surface $-1 1.8716739646732066 97.272234685184571 149.93577593633827 -1 0 0 0 0.75470958851134928 0.65605901945558964 forward_v I I I I #
coedge $-1 $143 $144 $145 $146 reversed $53 $-1 #
coedge $-1 $88 $55 $147 $148 reversed $34 $-1 #
coedge $-1 $55 $87 $143 $149 reversed $34 $-1 #
coedge $-1 $145 $150 $55 $90 forward $151 $-1 #
edge $-1 $152 15.089072769644652 $153 20.295070273896592 $89 $154 forward 7 unknown #
loop $-1 $-1 $96 $56 #
plane-surface $-1 -18.046291492045569 -10.470637763374356 56.276328212404579 0 0.75470958851134928 0.65605901945558964 1 0 0 forward_v I I I I #
loop $-1 $-1 $155 $36 #
coedge $-1 $94 $94 $95 $156 reversed $57 $-1 #
coedge $-1 $95 $95 $94 $156 forward $59 $-1 #
coedge $-1 $96 $96 $60 $97 forward $91 $-1 #
edge $-1 $157 -6.1275365110318934e-017 $157 6.2831853071796004 $96 $158 forward 7 unknown #
face $-1 $159 $160 $21 $-1 $161 reversed single #
loop $-1 $-1 $162 $61 #
plane-surface $-1 4.9527912060350019 -115.43122169016601 121.54892082321457 1 0 0 0 0.57357644374324357 -0.81915203911291934 forward_v I I I I #
coedge $-1 $163 $164 $165 $166 reversed $62 $-1 #
coedge $-1 $103 $64 $167 $168 reversed $40 $-1 #
coedge $-1 $64 $102 $163 $169 reversed $40 $-1 #
coedge $-1 $165 $170 $64 $105 forward $171 $-1 #
edge $-1 $172 24.168566272135372 $173 34.197581610626074 $104 $174 forward 7 unknown #
loop $-1 $-1 $111 $65 #
plane-surface $-1 16.277317736582233 -33.547044572947627 4.6061987356271032 0 -0.57357644374324357 0.81915203911291934 1 0 0 forward_v I I I I #
loop $-1 $-1 $175 $42 #
coedge $-1 $109 $109 $110 $176 reversed $66 $-1 #
coedge $-1 $110 $110 $109 $176 forward $68 $-1 #
coedge $-1 $111 $111 $69 $112 forward $106 $-1 #
edge $-1 $177 -5.0943821938109186e-016 $177 6.2831853071795996 $111 $178 forward 7 unknown #
loop $-1 $-1 $118 $70 #
plane-surface $-1 16.277317736582233 -33.547044572947627 4.6061987356271032 0 -0.57357644374324357 0.81915203911291934 1 0 0 forward_v I I I I #
loop $-1 $-1 $179 $45 #
coedge $-1 $116 $116 $117 $180 reversed $71 $-1 #
coedge $-1 $117 $117 $116 $180 forward $73 $-1 #
coedge $-1 $118 $118 $74 $119 forward $113 $-1 #
edge $-1 $181 -5.0943821938109186e-016 $181 6.2831853071795996 $118 $182 forward 7 unknown #
face $-1 $183 $184 $18 $-1 $185 reversed single #
loop $-1 $-1 $186 $75 #
plane-surface $-1 -71.380352183599356 0 0 1 0 0 0 0 -1 forward_v I I I I #
coedge $-1 $187 $131 $188 $189 forward $76 $-1 #
coedge $-1 $190 $78 $187 $191 forward $49 $-1 #
coedge $-1 $78 $190 $192 $193 forward $49 $-1 #
coedge $-1 $134 $133 $78 $127 reversed $135 $-1 #
edge $-1 $194 -33.547044572947634 $195 33.547044572947634 $126 $196 forward 7 unknown #
coedge $-1 $80 $79 $197 $198 forward $31 $-1 #
coedge $-1 $199 $200 $79 $130 reversed $184 $-1 #
edge $-1 $137 -71.380352183599356 $201 71.380352183599356 $129 $202 forward 7 unknown #
coedge $-1 $123 $203 $80 $132 reversed $76 $-1 #
edge $-1 $204 -71.380352183599356 $136 71.380352183599356 $131 $205 forward 7 unknown #
coedge $-1 $126 $81 $203 $206 forward $135 $-1 #
coedge $-1 $81 $126 $199 $207 reversed $135 $-1 #
loop $-1 $-1 $133 $183 #
vertex $-1 $82 $208 #
vertex $-1 $82 $209 #
straight-curve $-1 71.380352183599356 0 11.628591011336216 0 1 0 I I #
face $-1 $-1 $151 $19 $-1 $210 forward single #
loop $-1 $-1 $211 $83 #
plane-surface $-1 0 33.547044572947634 0 0 -1 0 0 0 -1 forward_v I I I I #
coedge $-1 $212 $213 $214 $215 reversed $84 $-1 #
coedge $-1 $216 $86 $88 $149 forward $53 $-1 #
coedge $-1 $86 $216 $212 $217 forward $53 $-1 #
coedge $-1 $214 $89 $86 $146 forward $151 $-1 #
edge $-1 $153 -28.94111120274156 $218 10.894819710695991 $145 $219 forward 7 unknown #
coedge $-1 $220 $221 $87 $148 forward $140 $-1 #
edge $-1 $222 -69.328112166606985 $152 -63.339296956832925 $147 $223 forward 7 unknown #
edge $-1 $153 59.158831265328452 $222 67.09408914589531 $88 $224 forward 7 unknown #
coedge $-1 $89 $214 $220 $225 forward $151 $-1 #
loop $-1 $-1 $214 $139 #
vertex $-1 $148 $226 #
vertex $-1 $90 $227 #
straight-curve $-1 -37.964256948764344 48.636117342592286 11.628591011336212 0 -1 0 I I #
coedge $-1 $155 $155 $-1 $228 reversed $93 $-1 #
edge $-1 $229 0 $229 6.2831853071796004 $94 $230 forward 7 unknown #
vertex $-1 $97 $231 #
ellipse-curve $-1 -18.046291492045569 30.944045820821664 8.6341834064491838 0 0.75470958851134928 0.65605901945558964 1 0 0 1 I I #
face $-1 $-1 $171 $21 $-1 $232 forward single #
loop $-1 $-1 $233 $98 #
plane-surface $-1 0 -33.547044572947634 0 0 1 0 0 0 1 forward_v I I I I #
coedge $-1 $234 $235 $236 $237 reversed $99 $-1 #
coedge $-1 $238 $101 $103 $169 forward $62 $-1 #
coedge $-1 $101 $238 $234 $239 forward $62 $-1 #
coedge $-1 $236 $104 $101 $166 forward $171 $-1 #
edge $-1 $173 -19.463185398838348 $240 3.1858676622561148 $165 $241 forward 7 unknown #
coedge $-1 $242 $243 $102 $168 forward $160 $-1 #
edge $-1 $244 -56.16826167598019 $172 -49.145869400271067 $167 $245 forward 7 unknown #
edge $-1 $173 -12.243167152890653 $244 8.8770546250341341e-015 $103 $246 forward 7 unknown #
coedge $-1 $104 $236 $242 $247 forward $171 $-1 #
loop $-1 $-1 $236 $159 #
vertex $-1 $168 $248 #
vertex $-1 $105 $249 #
straight-curve $-1 27.601844267129465 -57.715610845083006 11.628591011336212 0 1 0 I I #
coedge $-1 $175 $175 $-1 $250 reversed $108 $-1 #
edge $-1 $251 0 $251 6.2831853071796004 $109 $252 forward 7 unknown #
vertex $-1 $112 $253 #
ellipse-curve $-1 11.423949223490567 -28.532536903702283 8.1173948734816577 0 -0.57357644374324357 0.81915203911291934 2 0 0 1 I I #
coedge $-1 $179 $179 $-1 $254 reversed $115 $-1 #
edge $-1 $255 0 $255 6.2831853071796004 $116 $256 forward 7 unknown #
vertex $-1 $119 $257 #
ellipse-curve $-1 21.130686249673914 -28.532536903702283 8.1173948734816577 0 -0.57357644374324357 0.81915203911291934 2 0 0 1 I I #
face $-1 $-1 $135 $18 $-1 $258 reversed single #
loop $-1 $-1 $199 $120 #
plane-surface $-1 0 33.547044572947634 0 0 -1 0 0 0 -1 forward_v I I I I #
coedge $-1 $259 $197 $200 $260 forward $121 $-1 #
coedge $-1 $203 $123 $124 $191 reversed $76 $-1 #
coedge $-1 $197 $259 $123 $189 reversed $121 $-1 #
edge $-1 $204 -11.628591011336216 $261 11.628591011336216 $188 $262 forward 7 unknown #
coedge $-1 $125 $124 $259 $263 forward $49 $-1 #
edge $-1 $195 -71.380352183599356 $261 71.380352183599356 $187 $264 forward 7 unknown #
coedge $-1 $200 $199 $125 $193 reversed $184 $-1 #
edge $-1 $265 -71.380352183599356 $194 71.380352183599356 $192 $266 forward 7 unknown #
vertex $-1 $127 $267 #
vertex $-1 $206 $268 #
straight-curve $-1 71.380352183599356 0 -11.628591011336216 0 -1 0 I I #
coedge $-1 $186 $188 $128 $198 reversed $121 $-1 #
edge $-1 $201 -33.547044572947634 $204 33.547044572947634 $197 $269 forward 7 unknown #
coedge $-1 $192 $129 $134 $207 forward $184 $-1 #
coedge $-1 $129 $192 $186 $260 reversed $184 $-1 #
vertex $-1 $130 $270 #
straight-curve $-1 0 33.547044572947634 11.628591011336216 -1 0 0 I I #
coedge $-1 $131 $187 $133 $206 reversed $76 $-1 #
vertex $-1 $198 $271 #
straight-curve $-1 0 -33.547044572947634 11.628591011336216 1 0 0 I I #
edge $-1 $136 -11.628591011336216 $195 11.628591011336216 $133 $272 forward 7 unknown #
edge $-1 $137 -11.628591011336216 $194 11.628591011336216 $134 $273 forward 7 unknown #
point $-1 71.380352183599356 -33.547044572947634 11.628591011336216 #
point $-1 71.380352183599356 33.547044572947634 11.628591011336216 #
plane-surface $-1 0 0 11.628591011336216 0 0 1 1 0 0 forward_v I I I I #
coedge $-1 $221 $220 $213 $274 forward $140 $-1 #
coedge $-1 $213 $142 $144 $217 reversed $84 $-1 #
coedge $-1 $142 $212 $211 $274 reversed $84 $-1 #
coedge $-1 $150 $145 $142 $215 forward $151 $-1 #
edge $-1 $218 -20.295070273896592 $275 -15.089072769644652 $214 $276 forward 7 unknown #
coedge $-1 $144 $143 $221 $277 reversed $53 $-1 #
edge $-1 $278 -67.09408914589531 $218 -59.158831265328452 $212 $279 forward 7 unknown #
vertex $-1 $146 $280 #
straight-curve $-1 -9.0231457460227844 28.341047068695694 11.628591011336216 1 0 0 I I #
coedge $-1 $211 $147 $150 $225 reversed $140 $-1 #
coedge $-1 $147 $211 $216 $277 forward $140 $-1 #
vertex $-1 $148 $281 #
straight-curve $-1 -37.964256948764344 33.547044572947634 74.967887968169137 0 0 1 I I #
straight-curve $-1 -37.964256948764344 -10.470637763374356 56.276328212404579 0 0.65605901945558964 -0.75470958851134928 I I #
edge $-1 $275 -1.8716739646732066 $152 37.964256948764344 $220 $282 forward 7 unknown #
point $-1 -37.964256948764344 33.547044572947634 11.628591011336216 #
point $-1 -37.964256948764344 28.341047068695694 11.628591011336212 #
edge $-1 $283 1 $283 0 $155 $-1 forward 7 unknown #
vertex $-1 $156 $284 #
ellipse-curve $-1 -18.046291492045569 28.048685298253353 6.1172849672053289 0 0.75470958851134928 0.65605901945558964 1 0 0 1 I I #
point $-1 -17.046291492045569 30.944045820821678 8.6341834064491962 #
plane-surface $-1 0 0 11.628591011336216 0 0 1 1 0 0 forward_v I I I I #
coedge $-1 $243 $242 $235 $285 forward $160 $-1 #
coedge $-1 $235 $162 $164 $239 reversed $99 $-1 #
coedge $-1 $162 $234 $233 $285 reversed $99 $-1 #
coedge $-1 $170 $165 $162 $237 forward $171 $-1 #
edge $-1 $240 -34.197581610626074 $286 -24.168566272135372 $236 $287 forward 7 unknown #
coedge $-1 $164 $163 $243 $288 reversed $62 $-1 #
edge $-1 $289 -8.8770546250341341e-015 $240 12.243167152890653 $234 $290 forward 7 unknown #
vertex $-1 $166 $291 #
straight-curve $-1 8.1386588682911167 -23.518029234456932 11.628591011336216 -1 0 0 I I #
coedge $-1 $233 $167 $170 $247 reversed $160 $-1 #
coedge $-1 $167 $233 $238 $288 forward $160 $-1 #
vertex $-1 $168 $292 #
straight-curve $-1 27.601844267129465 -33.547044572947634 60.774460411607286 0 0 1 I I #
straight-curve $-1 27.601844267129465 -33.547044572947627 4.6061987356271032 0 -0.81915203911291934 -0.57357644374324357 I I #
edge $-1 $286 4.9527912060350019 $172 27.601844267129465 $242 $293 forward 7 unknown #
point $-1 27.601844267129465 -33.547044572947634 11.628591011336216 #
point $-1 27.601844267129465 -23.518029234456932 11.628591011336216 #
edge $-1 $294 1 $294 0 $175 $-1 forward 7 unknown #
vertex $-1 $176 $295 #
ellipse-curve $-1 11.423949223490567 -25.031912361551296 3.1179850072784681 0 -0.57357644374324357 0.81915203911291934 2 0 0 1 I I #
point $-1 13.423949223490567 -28.532536903702283 8.1173948734816559 #
edge $-1 $296 1 $296 0 $179 $-1 forward 7 unknown #
vertex $-1 $180 $297 #
ellipse-curve $-1 21.130686249673914 -25.031912361551296 3.1179850072784681 0 -0.57357644374324357 0.81915203911291934 2 0 0 1 I I #
point $-1 23.130686249673914 -28.532536903702283 8.1173948734816559 #
plane-surface $-1 71.380352183599356 0 0 -1 0 0 0 0 1 forward_v I I I I #
coedge $-1 $188 $186 $190 $263 reversed $121 $-1 #
edge $-1 $201 -11.628591011336216 $265 11.628591011336216 $200 $298 forward 7 unknown #
vertex $-1 $263 $299 #
straight-curve $-1 -71.380352183599356 -33.547044572947634 0 0 0 -1 I I #
edge $-1 $261 -33.547044572947634 $265 33.547044572947634 $259 $300 forward 7 unknown #
straight-curve $-1 0 -33.547044572947634 -11.628591011336216 -1 0 0 I I #
vertex $-1 $193 $301 #
straight-curve $-1 0 33.547044572947634 -11.628591011336216 1 0 0 I I #
point $-1 71.380352183599356 33.547044572947634 -11.628591011336216 #
point $-1 71.380352183599356 -33.547044572947634 -11.628591011336216 #
straight-curve $-1 -71.380352183599356 0 11.628591011336216 0 -1 0 I I #
point $-1 -71.380352183599356 33.547044572947634 11.628591011336216 #
point $-1 -71.380352183599356 -33.547044572947634 11.628591011336216 #
straight-curve $-1 71.380352183599356 -33.547044572947634 0 0 0 -1 I I #
straight-curve $-1 71.380352183599356 33.547044572947634 0 0 0 -1 I I #
edge $-1 $275 63.339296956832925 $278 69.328112166606985 $211 $302 forward 7 unknown #
vertex $-1 $225 $303 #
straight-curve $-1 1.8716739646732066 48.636117342592286 11.628591011336212 0 1 0 I I #
edge $-1 $278 -10.894819710695991 $222 28.94111120274156 $221 $304 forward 7 unknown #
vertex $-1 $277 $305 #
straight-curve $-1 1.8716739646732066 -10.470637763374356 56.276328212404579 0 -0.65605901945558964 0.75470958851134928 I I #
point $-1 1.8716739646732066 28.341047068695694 11.628591011336212 #
point $-1 -37.964256948764344 33.547044572947634 5.6397758015621591 #
straight-curve $-1 0 33.547044572947634 11.628591011336216 -1 0 0 I I #
vertex $-1 $228 $306 #
point $-1 -17.046291492045569 28.048685298253353 6.1172849672053289 #
edge $-1 $286 49.145869400271067 $289 56.16826167598019 $233 $307 forward 7 unknown #
vertex $-1 $247 $308 #
straight-curve $-1 4.9527912060350019 -57.715610845083006 11.628591011336212 0 -1 0 I I #
edge $-1 $289 -3.1858676622561148 $244 19.463185398838348 $243 $309 forward 7 unknown #
vertex $-1 $288 $310 #
straight-curve $-1 4.9527912060350019 -33.547044572947627 4.6061987356271032 0 0.81915203911291934 0.57357644374324357 I I #
point $-1 4.9527912060350019 -23.518029234456932 11.628591011336216 #
point $-1 27.601844267129465 -33.547044572947634 4.6061987356270979 #
straight-curve $-1 0 -33.547044572947634 11.628591011336216 1 0 0 I I #
vertex $-1 $250 $311 #
point $-1 13.423949223490567 -25.031912361551296 3.1179850072784681 #
vertex $-1 $254 $312 #
point $-1 23.130686249673914 -25.031912361551296 3.1179850072784681 #
straight-curve $-1 -71.380352183599356 33.547044572947634 0 0 0 -1 I I #
point $-1 -71.380352183599356 -33.547044572947634 -11.628591011336216 #
straight-curve $-1 -71.380352183599356 0 -11.628591011336216 0 1 0 I I #
point $-1 -71.380352183599356 33.547044572947634 -11.628591011336216 #
straight-curve $-1 1.8716739646732066 33.547044572947634 74.967887968169137 0 0 -1 I I #
point $-1 1.8716739646732066 33.547044572947634 11.628591011336216 #
straight-curve $-1 -9.0231457460227844 33.547044572947634 5.6397758015621555 -1 0 0 I I #
point $-1 1.8716739646732066 33.547044572947634 5.6397758015621591 #
point $-1 -18.046291492045569 27.293975709742007 5.4612259477497389 #
straight-curve $-1 4.9527912060350019 -33.547044572947634 60.774460411607286 0 0 -1 I I #
point $-1 4.9527912060350019 -33.547044572947634 11.628591011336216 #
straight-curve $-1 8.1386588682911167 -33.547044572947634 4.6061987356270935 1 0 0 I I #
point $-1 4.9527912060350019 -33.547044572947634 4.6061987356270979 #
point $-1 11.423949223490567 -23.884759474064811 1.4796809290526292 #
point $-1 21.130686249673914 -23.884759474064811 1.4796809290526292 #
End-of-ACIS-data 