500 0 5 0           
7 Unknown 11 ACIS 5.0 NT 24 Fri Mar 26 17:24:16 1999 
-1 9.9999999999999995e-007 1e-010 
body $-1 $5 $-1 $6 #
body $-1 $7 $-1 $8 #
body $-1 $9 $-1 $10 #
body $-1 $11 $-1 $12 #
body $-1 $13 $-1 $14 #
lump $-1 $-1 $15 $0 #
transform $-1 1 0 0 0 1 0 0 0 1 53.066805017242956 33.084036162411707 12.053606741858797 1 rotate no_reflect no_shear #
lump $-1 $-1 $16 $1 #
transform $-1 1 0 0 0 1 0 0 0 1 53.066805017242956 33.084036162411707 12.053606741858797 1 rotate no_reflect no_shear #
lump $-1 $-1 $17 $2 #
transform $-1 1 0 0 0 1 0 0 0 1 53.066805017242956 33.084036162411707 12.053606741858797 1 rotate no_reflect no_shear #
lump $-1 $-1 $18 $3 #
transform $-1 1 0 0 0 1 0 0 0 1 53.066805017242956 33.084036162411707 12.053606741858797 1 rotate no_reflect no_shear #
lump $-1 $-1 $19 $4 #
transform $-1 1 0 0 0 1 0 0 0 1 53.066805017242956 33.084036162411707 12.053606741858797 1 rotate no_reflect no_shear #
shell $-1 $-1 $-1 $20 $-1 $5 #
shell $-1 $-1 $-1 $21 $-1 $7 #
shell $-1 $-1 $-1 $22 $-1 $9 #
shell $-1 $-1 $-1 $23 $-1 $11 #
shell $-1 $-1 $-1 $24 $-1 $13 #
face $-1 $25 $26 $15 $-1 $27 forward single #
face $-1 $28 $29 $16 $-1 $30 reversed single #
face $-1 $31 $32 $17 $-1 $33 forward single #
face $-1 $34 $35 $18 $-1 $36 reversed single #
face $-1 $37 $38 $19 $-1 $39 forward single #
face $-1 $40 $41 $15 $-1 $42 reversed single #
loop $-1 $-1 $43 $20 #
plane-surface $-1 0 0 12.053606741858797 0 0 1 1 0 0 forward_v I I I I #
face $-1 $44 $45 $16 $-1 $46 reversed single #
loop $-1 $-1 $47 $21 #
plane-surface $-1 -36.208737648671303 -102.71395015164848 80.330764197506255 -1 0 0 0 -0.6560590369687036 0.75470957328743171 forward_v I I I I #
face $-1 $48 $49 $17 $-1 $50 forward single #
loop $-1 $51 $52 $22 #
cone-surface $-1 -44.637771332957129 -25.209396965127098 4.9063219094106634 0 0.6560590369687036 -0.75470957328743171 2 0 0 1 I I 0 1 2 forward I I I I #
face $-1 $53 $54 $18 $-1 $55 reversed single #
loop $-1 $-1 $56 $23 #
plane-surface $-1 16.85806736857165 -102.71395015164848 80.330764197506255 -1 0 0 0 -0.6560590369687036 0.75470957328743171 forward_v I I I I #
face $-1 $57 $58 $19 $-1 $59 forward single #
loop $-1 $60 $61 $24 #
cone-surface $-1 8.4290336842858267 -25.209396965127098 4.9063219094106634 0 0.6560590369687036 -0.75470957328743171 2 0 0 1 I I 0 1 2 forward I I I I #
face $-1 $62 $63 $15 $-1 $64 reversed single #
loop $-1 $-1 $65 $25 #
plane-surface $-1 0 0 -12.053606741858797 0 0 1 1 0 0 forward_v I I I I #
coedge $-1 $66 $67 $68 $69 forward $26 $-1 #
face $-1 $70 $71 $16 $-1 $72 forward single #
loop $-1 $-1 $73 $28 #
plane-surface $-1 -44.637771332957129 -33.084036162411707 0.23071265692470888 0 -0.6560590369687036 0.75470957328743171 1 0 0 forward_v I I I I #
coedge $-1 $74 $75 $76 $77 reversed $29 $-1 #
face $-1 $-1 $78 $17 $-1 $79 forward single #
loop $-1 $80 $81 $31 #
cone-surface $-1 -44.637771332957129 -23.479040504299245 2.9157745461421403 0 0.6560590369687036 -0.75470957328743171 1 0 0 1 I I -0.70710678118654768 0.70710678118654735 1 forward I I I I #
loop $-1 $-1 $82 $22 #
coedge $-1 $52 $52 $83 $84 reversed $32 $-1 #
face $-1 $85 $86 $18 $-1 $87 reversed single #
loop $-1 $-1 $88 $34 #
plane-surface $-1 8.4290336842858267 -33.084036162411707 0.23071265692470888 0 -0.6560590369687036 0.75470957328743171 1 0 0 forward_v I I I I #
coedge $-1 $89 $90 $91 $92 reversed $35 $-1 #
face $-1 $-1 $93 $19 $-1 $94 forward single #
loop $-1 $95 $96 $37 #
cone-surface $-1 8.4290336842858267 -23.479040504299245 2.9157745461421403 0 0.6560590369687036 -0.75470957328743171 1 0 0 1 I I -0.70710678118654768 0.70710678118654735 1 forward I I I I #
loop $-1 $-1 $97 $24 #
coedge $-1 $61 $61 $98 $99 reversed $38 $-1 #
face $-1 $100 $101 $15 $-1 $102 reversed single #
loop $-1 $-1 $103 $40 #
plane-surface $-1 0 -33.084036162411707 0 0 1 0 0 0 1 forward_v I I I I #
coedge $-1 $104 $105 $106 $107 forward $41 $-1 #
coedge $-1 $108 $43 $109 $110 forward $26 $-1 #
coedge $-1 $43 $108 $111 $112 forward $26 $-1 #
coedge $-1 $113 $114 $43 $69 reversed $115 $-1 #
edge $-1 $116 -33.084036162411707 $117 33.084036162411707 $68 $118 forward 7 unknown #
face $-1 $119 $120 $16 $-1 $121 reversed single #
loop $-1 $-1 $76 $44 #
plane-surface $-1 0 0 12.053606741858797 0 0 1 1 0 0 forward_v I I I I #
coedge $-1 $122 $123 $124 $125 reversed $45 $-1 #
coedge $-1 $75 $47 $126 $127 reversed $29 $-1 #
coedge $-1 $47 $74 $122 $128 reversed $29 $-1 #
coedge $-1 $124 $129 $47 $77 forward $71 $-1 #
edge $-1 $130 18.272938913412531 $131 31.873622460263448 $76 $132 forward 7 unknown #
loop $-1 $-1 $83 $48 #
plane-surface $-1 -44.637771332957129 -33.084036162411707 0.23071265692470888 0 -0.6560590369687036 0.75470957328743171 1 0 0 forward_v I I I I #
loop $-1 $-1 $133 $31 #
coedge $-1 $81 $81 $82 $134 reversed $49 $-1 #
coedge $-1 $82 $82 $81 $134 forward $51 $-1 #
coedge $-1 $83 $83 $52 $84 forward $78 $-1 #
edge $-1 $135 8.740462180272739e-016 $135 6.2831853071796013 $83 $136 forward 7 unknown #
face $-1 $137 $138 $18 $-1 $139 reversed single #
loop $-1 $-1 $140 $53 #
plane-surface $-1 3.5527136788005009e-015 -102.71395015164848 80.330764197506255 1 0 0 0 0.6560590369687036 -0.75470957328743171 forward_v I I I I #
coedge $-1 $141 $142 $143 $144 reversed $54 $-1 #
coedge $-1 $90 $56 $145 $146 reversed $35 $-1 #
coedge $-1 $56 $89 $141 $147 reversed $35 $-1 #
coedge $-1 $143 $148 $56 $92 forward $149 $-1 #
edge $-1 $150 18.272938913412531 $151 31.873622460263448 $91 $152 forward 7 unknown #
loop $-1 $-1 $98 $57 #
plane-surface $-1 8.4290336842858267 -33.084036162411707 0.23071265692470888 0 -0.6560590369687036 0.75470957328743171 1 0 0 forward_v I I I I #
loop $-1 $-1 $153 $37 #
coedge $-1 $96 $96 $97 $154 reversed $58 $-1 #
coedge $-1 $97 $97 $96 $154 forward $60 $-1 #
coedge $-1 $98 $98 $61 $99 forward $93 $-1 #
edge $-1 $155 8.740462180272739e-016 $155 6.2831853071796013 $98 $156 forward 7 unknown #
face $-1 $157 $158 $15 $-1 $159 reversed single #
loop $-1 $-1 $160 $62 #
plane-surface $-1 -53.066805017242956 0 0 1 0 0 0 0 -1 forward_v I I I I #
coedge $-1 $161 $111 $162 $163 forward $63 $-1 #
coedge $-1 $164 $65 $161 $165 forward $41 $-1 #
coedge $-1 $65 $164 $166 $167 forward $41 $-1 #
coedge $-1 $114 $113 $65 $107 reversed $115 $-1 #
edge $-1 $168 -33.084036162411707 $169 33.084036162411707 $106 $170 forward 7 unknown #
coedge $-1 $67 $66 $171 $172 forward $26 $-1 #
coedge $-1 $173 $174 $66 $110 reversed $158 $-1 #
edge $-1 $117 -53.066805017242956 $175 53.066805017242956 $109 $176 forward 7 unknown #
coedge $-1 $103 $177 $67 $112 reversed $63 $-1 #
edge $-1 $178 -53.066805017242956 $116 53.066805017242956 $111 $179 forward 7 unknown #
coedge $-1 $106 $68 $177 $180 forward $115 $-1 #
coedge $-1 $68 $106 $173 $181 reversed $115 $-1 #
loop $-1 $-1 $113 $157 #
vertex $-1 $69 $182 #
vertex $-1 $69 $183 #
straight-curve $-1 53.066805017242956 0 12.053606741858797 0 1 0 I I #
face $-1 $-1 $184 $16 $-1 $185 reversed single #
loop $-1 $-1 $186 $70 #
plane-surface $-1 -53.066805017242956 0 0 1 0 0 0 0 -1 forward_v I I I I #
coedge $-1 $187 $73 $75 $128 forward $45 $-1 #
coedge $-1 $73 $187 $186 $188 reversed $45 $-1 #
coedge $-1 $189 $76 $73 $125 forward $71 $-1 #
edge $-1 $131 13.889851982192738 $190 30.747919350764391 $124 $191 forward 7 unknown #
coedge $-1 $192 $193 $74 $127 forward $184 $-1 #
edge $-1 $194 -39.934669441828419 $130 -28.111775356894331 $126 $195 forward 7 unknown #
edge $-1 $131 -18.021082583606088 $194 0 $75 $196 forward 7 unknown #
coedge $-1 $76 $189 $192 $197 forward $71 $-1 #
vertex $-1 $127 $198 #
vertex $-1 $77 $199 #
straight-curve $-1 -36.208737648671303 -51.356975075824238 12.0536067418588 0 1 0 I I #
coedge $-1 $133 $133 $-1 $200 reversed $80 $-1 #
edge $-1 $201 0 $201 6.2831853071796004 $81 $202 forward 7 unknown #
vertex $-1 $84 $203 #
ellipse-curve $-1 -44.637771332957129 -26.283694388986248 6.1421596993917538 0 -0.6560590369687036 0.75470957328743171 2 0 0 1 I I #
face $-1 $-1 $149 $18 $-1 $204 forward single #
loop $-1 $-1 $205 $85 #
plane-surface $-1 0 -33.084036162411707 0 0 1 0 0 0 1 forward_v I I I I #
coedge $-1 $206 $207 $208 $209 reversed $86 $-1 #
coedge $-1 $210 $88 $90 $147 forward $54 $-1 #
coedge $-1 $88 $210 $206 $211 forward $54 $-1 #
coedge $-1 $208 $91 $88 $144 forward $149 $-1 #
edge $-1 $151 -12.643550526428736 $212 4.2145168421429098 $143 $213 forward 7 unknown #
coedge $-1 $214 $215 $89 $146 forward $138 $-1 #
edge $-1 $216 -39.934669441828419 $150 -28.111775356894331 $145 $217 forward 7 unknown #
edge $-1 $151 -18.021082583606088 $216 0 $90 $218 forward 7 unknown #
coedge $-1 $91 $208 $214 $219 forward $149 $-1 #
loop $-1 $-1 $208 $137 #
vertex $-1 $146 $220 #
vertex $-1 $92 $221 #
straight-curve $-1 16.85806736857165 -51.356975075824238 12.0536067418588 0 1 0 I I #
coedge $-1 $153 $153 $-1 $222 reversed $95 $-1 #
edge $-1 $223 0 $223 6.2831853071796004 $96 $224 forward 7 unknown #
vertex $-1 $99 $225 #
ellipse-curve $-1 8.4290336842858267 -26.283694388986248 6.1421596993917538 0 -0.6560590369687036 0.75470957328743171 2 0 0 1 I I #
face $-1 $-1 $115 $15 $-1 $226 reversed single #
loop $-1 $-1 $173 $100 #
plane-surface $-1 0 33.084036162411707 0 0 -1 0 0 0 -1 forward_v I I I I #
coedge $-1 $227 $171 $174 $228 forward $101 $-1 #
coedge $-1 $177 $103 $104 $165 reversed $63 $-1 #
coedge $-1 $171 $227 $103 $163 reversed $101 $-1 #
edge $-1 $178 -12.053606741858797 $229 12.053606741858797 $162 $230 forward 7 unknown #
coedge $-1 $105 $104 $227 $231 forward $41 $-1 #
edge $-1 $169 -53.066805017242956 $229 53.066805017242956 $161 $232 forward 7 unknown #
coedge $-1 $174 $173 $105 $167 reversed $158 $-1 #
edge $-1 $233 -53.066805017242956 $168 53.066805017242956 $166 $234 forward 7 unknown #
vertex $-1 $107 $235 #
vertex $-1 $180 $236 #
straight-curve $-1 53.066805017242956 0 -12.053606741858797 0 -1 0 I I #
coedge $-1 $160 $162 $108 $172 reversed $101 $-1 #
edge $-1 $175 -33.084036162411707 $178 33.084036162411707 $171 $237 forward 7 unknown #
coedge $-1 $166 $109 $114 $181 forward $158 $-1 #
coedge $-1 $109 $166 $160 $228 reversed $158 $-1 #
vertex $-1 $110 $238 #
straight-curve $-1 0 33.084036162411707 12.053606741858797 -1 0 0 I I #
coedge $-1 $111 $161 $113 $180 reversed $63 $-1 #
vertex $-1 $172 $239 #
straight-curve $-1 0 -33.084036162411707 12.053606741858797 1 0 0 I I #
edge $-1 $116 -12.053606741858797 $169 12.053606741858797 $113 $240 forward 7 unknown #
edge $-1 $117 -12.053606741858797 $168 12.053606741858797 $114 $241 forward 7 unknown #
point $-1 53.066805017242956 -33.084036162411707 12.053606741858797 #
point $-1 53.066805017242956 33.084036162411707 12.053606741858797 #
loop $-1 $-1 $126 $119 #
plane-surface $-1 0 -33.084036162411707 0 0 1 0 0 0 1 forward_v I I I I #
coedge $-1 $242 $243 $123 $188 forward $120 $-1 #
coedge $-1 $123 $122 $193 $244 reversed $45 $-1 #
edge $-1 $190 -5.6123437379854959 $245 12.40873884562059 $186 $246 forward 7 unknown #
coedge $-1 $129 $124 $243 $247 forward $71 $-1 #
vertex $-1 $247 $248 #
straight-curve $-1 -22.318885666478565 -19.48335261556079 12.053606741858797 -1 0 0 I I #
coedge $-1 $249 $126 $129 $197 reversed $184 $-1 #
coedge $-1 $126 $249 $187 $244 forward $184 $-1 #
vertex $-1 $127 $250 #
straight-curve $-1 -36.208737648671303 -33.084036162411707 40.165382098753128 0 0 1 I I #
straight-curve $-1 -36.208737648671303 -33.084036162411707 0.23071265692470888 0 -0.75470957328743171 -0.6560590369687036 I I #
edge $-1 $251 -53.066805017242956 $130 -36.208737648671303 $192 $252 forward 7 unknown #
point $-1 -36.208737648671303 -33.084036162411707 12.053606741858797 #
point $-1 -36.208737648671303 -19.48335261556079 12.053606741858795 #
edge $-1 $253 1 $253 0 $133 $-1 forward 7 unknown #
vertex $-1 $134 $254 #
ellipse-curve $-1 -44.637771332957129 -24.135099541267948 3.6704841194295716 0 -0.6560590369687036 0.75470957328743171 2 0 0 1 I I #
point $-1 -42.637771332957129 -26.283694388986248 6.1421596993917564 #
plane-surface $-1 0 0 12.053606741858797 0 0 1 1 0 0 forward_v I I I I #
coedge $-1 $215 $214 $207 $255 forward $138 $-1 #
coedge $-1 $207 $140 $142 $211 reversed $86 $-1 #
coedge $-1 $140 $206 $205 $255 reversed $86 $-1 #
coedge $-1 $148 $143 $140 $209 forward $149 $-1 #
edge $-1 $212 -31.873622460263448 $256 -18.272938913412531 $208 $257 forward 7 unknown #
coedge $-1 $142 $141 $215 $258 reversed $54 $-1 #
edge $-1 $259 0 $212 18.021082583606088 $206 $260 forward 7 unknown #
vertex $-1 $144 $261 #
straight-curve $-1 4.2145168421429133 -19.48335261556079 12.053606741858797 -1 0 0 I I #
coedge $-1 $205 $145 $148 $219 reversed $138 $-1 #
coedge $-1 $145 $205 $210 $258 forward $138 $-1 #
vertex $-1 $146 $262 #
straight-curve $-1 16.85806736857165 -33.084036162411707 40.165382098753128 0 0 1 I I #
straight-curve $-1 16.85806736857165 -33.084036162411707 0.23071265692470888 0 -0.75470957328743171 -0.6560590369687036 I I #
edge $-1 $256 3.5527136788005009e-015 $150 16.85806736857165 $214 $263 forward 7 unknown #
point $-1 16.85806736857165 -33.084036162411707 12.053606741858797 #
point $-1 16.85806736857165 -19.48335261556079 12.053606741858795 #
edge $-1 $264 1 $264 0 $153 $-1 forward 7 unknown #
vertex $-1 $154 $265 #
ellipse-curve $-1 8.4290336842858267 -24.135099541267948 3.6704841194295716 0 -0.6560590369687036 0.75470957328743171 2 0 0 1 I I #
point $-1 10.429033684285827 -26.283694388986248 6.1421596993917564 #
plane-surface $-1 53.066805017242956 0 0 -1 0 0 0 0 1 forward_v I I I I #
coedge $-1 $162 $160 $164 $231 reversed $101 $-1 #
edge $-1 $175 -12.053606741858797 $233 12.053606741858797 $174 $266 forward 7 unknown #
vertex $-1 $231 $267 #
straight-curve $-1 -53.066805017242956 -33.084036162411707 0 0 0 -1 I I #
edge $-1 $229 -33.084036162411707 $233 33.084036162411707 $227 $268 forward 7 unknown #
straight-curve $-1 0 -33.084036162411707 -12.053606741858797 -1 0 0 I I #
vertex $-1 $167 $269 #
straight-curve $-1 0 33.084036162411707 -12.053606741858797 1 0 0 I I #
point $-1 53.066805017242956 33.084036162411707 -12.053606741858797 #
point $-1 53.066805017242956 -33.084036162411707 -12.053606741858797 #
straight-curve $-1 -53.066805017242956 0 12.053606741858797 0 -1 0 I I #
point $-1 -53.066805017242956 33.084036162411707 12.053606741858797 #
point $-1 -53.066805017242956 -33.084036162411707 12.053606741858797 #
straight-curve $-1 53.066805017242956 -33.084036162411707 0 0 0 -1 I I #
straight-curve $-1 53.066805017242956 33.084036162411707 0 0 0 -1 I I #
coedge $-1 $243 $186 $249 $270 reversed $120 $-1 #
coedge $-1 $186 $242 $189 $247 reversed $120 $-1 #
edge $-1 $245 -30.747919350764391 $194 -13.889851982192738 $193 $271 forward 7 unknown #
vertex $-1 $188 $272 #
straight-curve $-1 -53.066805017242956 -23.719042163198214 8.3715779139786974 0 -0.75470957328743171 -0.6560590369687036 I I #
edge $-1 $190 19.48335261556079 $251 33.084036162411707 $243 $273 forward 7 unknown #
point $-1 -53.066805017242956 -19.48335261556079 12.053606741858795 #
coedge $-1 $193 $192 $242 $270 forward $184 $-1 #
point $-1 -36.208737648671303 -33.084036162411707 0.23071265692470888 #
vertex $-1 $247 $274 #
straight-curve $-1 0 -33.084036162411707 12.053606741858797 1 0 0 I I #
vertex $-1 $200 $275 #
point $-1 -42.637771332957129 -24.135099541267948 3.6704841194295716 #
edge $-1 $256 28.111775356894331 $259 39.934669441828419 $205 $276 forward 7 unknown #
vertex $-1 $219 $277 #
straight-curve $-1 3.5527136788005009e-015 -51.356975075824238 12.0536067418588 0 -1 0 I I #
edge $-1 $259 -4.2145168421429098 $216 12.643550526428736 $215 $278 forward 7 unknown #
vertex $-1 $258 $279 #
straight-curve $-1 3.5527136788005009e-015 -33.084036162411707 0.23071265692470888 0 0.75470957328743171 0.6560590369687036 I I #
point $-1 3.5527136788005009e-015 -19.48335261556079 12.053606741858795 #
point $-1 16.85806736857165 -33.084036162411707 0.23071265692470888 #
straight-curve $-1 0 -33.084036162411707 12.053606741858797 1 0 0 I I #
vertex $-1 $222 $280 #
point $-1 10.429033684285827 -24.135099541267948 3.6704841194295716 #
straight-curve $-1 -53.066805017242956 33.084036162411707 0 0 0 -1 I I #
point $-1 -53.066805017242956 -33.084036162411707 -12.053606741858797 #
straight-curve $-1 -53.066805017242956 0 -12.053606741858797 0 1 0 I I #
point $-1 -53.066805017242956 33.084036162411707 -12.053606741858797 #
edge $-1 $251 -12.053606741858797 $245 -0.23071265692470888 $242 $281 forward 7 unknown #
straight-curve $-1 -22.318885666478565 -33.084036162411707 0.23071265692470672 1 0 0 I I #
point $-1 -53.066805017242956 -33.084036162411707 0.23071265692470888 #
straight-curve $-1 -53.066805017242956 0 12.053606741858797 0 -1 0 I I #
point $-1 -53.066805017242956 -33.084036162411707 12.053606741858797 #
point $-1 -44.637771332957129 -22.822981467330543 2.1610649728547089 #
straight-curve $-1 3.5527136788005009e-015 -33.084036162411707 40.165382098753128 0 0 -1 I I #
point $-1 3.5527136788005009e-015 -33.084036162411707 12.053606741858797 #
straight-curve $-1 4.2145168421429133 -33.084036162411707 0.23071265692470672 1 0 0 I I #
point $-1 3.5527136788005009e-015 -33.084036162411707 0.23071265692470888 #
point $-1 8.4290336842858267 -22.822981467330543 2.1610649728547089 #
straight-curve $-1 -53.066805017242956 -33.084036162411707 0 0 0 -1 I I #
End-of-ACIS-data 