500 0 8 0           
7 Unknown 11 ACIS 5.0 NT 24 Thu Mar 25 15:07:22 1999 
-1 9.9999999999999995e-007 1e-010 
body $-1 $8 $-1 $9 #
body $-1 $10 $-1 $11 #
body $-1 $12 $-1 $13 #
body $-1 $14 $-1 $15 #
body $-1 $16 $-1 $17 #
body $-1 $18 $-1 $19 #
body $-1 $20 $-1 $21 #
body $-1 $22 $-1 $23 #
lump $-1 $-1 $24 $0 #
transform $-1 1 0 0 0 1 0 0 0 1 61.051667836542862 34.808412687224759 14.289327725445309 1 rotate no_reflect no_shear #
lump $-1 $-1 $25 $1 #
transform $-1 1 0 0 0 1 0 0 0 1 61.051667836542862 34.808412687224759 14.289327725445309 1 rotate no_reflect no_shear #
lump $-1 $-1 $26 $2 #
transform $-1 1 0 0 0 1 0 0 0 1 61.051667836542862 34.808412687224759 14.289327725445309 1 rotate no_reflect no_shear #
lump $-1 $-1 $27 $3 #
transform $-1 1 0 0 0 1 0 0 0 1 61.051667836542862 34.808412687224759 14.289327725445309 1 rotate no_reflect no_shear #
lump $-1 $-1 $28 $4 #
transform $-1 1 0 0 0 1 0 0 0 1 61.051667836542862 34.808412687224759 14.289327725445309 1 rotate no_reflect no_shear #
lump $-1 $-1 $29 $5 #
transform $-1 1 0 0 0 1 0 0 0 1 61.051667836542862 34.808412687224759 14.289327725445309 1 rotate no_reflect no_shear #
lump $-1 $-1 $30 $6 #
transform $-1 1 0 0 0 1 0 0 0 1 61.051667836542862 34.808412687224759 14.289327725445309 1 rotate no_reflect no_shear #
lump $-1 $-1 $31 $7 #
transform $-1 1 0 0 0 1 0 0 0 1 61.051667836542862 34.808412687224759 14.289327725445309 1 rotate no_reflect no_shear #
shell $-1 $-1 $-1 $32 $-1 $8 #
shell $-1 $-1 $-1 $33 $-1 $10 #
shell $-1 $-1 $-1 $34 $-1 $12 #
shell $-1 $-1 $-1 $35 $-1 $14 #
shell $-1 $-1 $-1 $36 $-1 $16 #
shell $-1 $-1 $-1 $37 $-1 $18 #
shell $-1 $-1 $-1 $38 $-1 $20 #
shell $-1 $-1 $-1 $39 $-1 $22 #
face $-1 $40 $41 $24 $-1 $42 forward single #
face $-1 $43 $44 $25 $-1 $45 reversed single #
face $-1 $46 $47 $26 $-1 $48 forward single #
face $-1 $49 $50 $27 $-1 $51 forward single #
face $-1 $52 $53 $28 $-1 $54 forward single #
face $-1 $55 $56 $29 $-1 $57 reversed single #
face $-1 $58 $59 $30 $-1 $60 forward single #
face $-1 $61 $62 $31 $-1 $63 forward single #
face $-1 $64 $65 $24 $-1 $66 reversed single #
loop $-1 $-1 $67 $32 #
plane-surface $-1 0 0 14.289327725445309 0 0 1 1 0 0 forward_v I I I I #
face $-1 $68 $69 $25 $-1 $70 reversed single #
loop $-1 $-1 $71 $33 #
plane-surface $-1 -42.375264502092392 83.596163388812442 133.18423521924578 -1 0 0 0 0.7660444514056185 0.64278759981090561 forward_v I I I I #
face $-1 $72 $73 $26 $-1 $74 forward single #
loop $-1 $75 $76 $34 #
cone-surface $-1 -57.316387169652771 28.017712113019947 6.6794876200928641 0 -0.7660444514056185 -0.64278759981090561 1 0 0 1 I I 0 1 1 forward I I I I #
face $-1 $77 $78 $27 $-1 $79 forward single #
loop $-1 $80 $81 $35 #
cone-surface $-1 -51.713466169317627 28.017712113019947 6.6794876200928641 0 -0.7660444514056185 -0.64278759981090561 1 0 0 1 I I 0 1 1 forward I I I I #
face $-1 $82 $83 $28 $-1 $84 forward single #
loop $-1 $85 $86 $36 #
cone-surface $-1 -46.11054516898249 28.017712113019947 6.6794876200928641 0 -0.7660444514056185 -0.64278759981090561 1 0 0 1 I I 0 1 1 forward I I I I #
face $-1 $87 $88 $29 $-1 $89 reversed single #
loop $-1 $-1 $90 $37 #
plane-surface $-1 28.338741233659928 -122.64220279698475 94.694776503062116 -1 0 0 0 -0.71933980857756763 0.69465836192734942 forward_v I I I I #
face $-1 $91 $92 $30 $-1 $93 forward single #
loop $-1 $94 $95 $38 #
cone-surface $-1 6.0816820285194098 -31.844938874913556 11.278660698923712 0 0.71933980857756763 -0.69465836192734942 1 0 0 1 I I 0 1 1 forward I I I I #
face $-1 $96 $97 $31 $-1 $98 forward single #
loop $-1 $99 $100 $39 #
cone-surface $-1 19.435917551603723 -31.844938874913556 11.278660698923712 0 0.71933980857756763 -0.69465836192734942 1 0 0 1 I I 0 1 1 forward I I I I #
face $-1 $101 $102 $24 $-1 $103 reversed single #
loop $-1 $-1 $104 $40 #
plane-surface $-1 0 0 -14.289327725445309 0 0 1 1 0 0 forward_v I I I I #
coedge $-1 $105 $106 $107 $108 forward $41 $-1 #
face $-1 $109 $110 $25 $-1 $111 reversed single #
loop $-1 $-1 $112 $43 #
plane-surface $-1 -51.713466169317627 -9.9404194016725995 54.69772515303768 0 0.7660444514056185 0.64278759981090561 1 0 0 forward_v I I I I #
coedge $-1 $113 $114 $115 $116 reversed $44 $-1 #
face $-1 $-1 $117 $26 $-1 $118 forward single #
loop $-1 $119 $120 $46 #
cone-surface $-1 -57.316387169652771 26.265070112440817 5.2088464023242569 0 -0.7660444514056185 -0.64278759981090561 0.5 0 0 1 I I -0.70710678118654746 0.70710678118654746 0.5 forward I I I I #
loop $-1 $-1 $121 $34 #
coedge $-1 $76 $76 $122 $123 reversed $47 $-1 #
face $-1 $-1 $124 $27 $-1 $125 forward single #
loop $-1 $126 $127 $49 #
cone-surface $-1 -51.713466169317627 26.265070112440817 5.2088464023242569 0 -0.7660444514056185 -0.64278759981090561 0.5 0 0 1 I I -0.70710678118654746 0.70710678118654746 0.5 forward I I I I #
loop $-1 $-1 $128 $35 #
coedge $-1 $81 $81 $129 $130 reversed $50 $-1 #
face $-1 $-1 $131 $28 $-1 $132 forward single #
loop $-1 $133 $134 $52 #
cone-surface $-1 -46.11054516898249 26.265070112440817 5.2088464023242569 0 -0.7660444514056185 -0.64278759981090561 0.5 0 0 1 I I -0.70710678118654746 0.70710678118654746 0.5 forward I I I I #
loop $-1 $-1 $135 $36 #
coedge $-1 $86 $86 $136 $137 reversed $53 $-1 #
face $-1 $138 $139 $29 $-1 $140 reversed single #
loop $-1 $-1 $141 $55 #
plane-surface $-1 12.758799790061559 -34.808412687224774 9.8746733585310835 0 -0.71933980857756763 0.69465836192734942 1 0 0 forward_v I I I I #
coedge $-1 $142 $143 $144 $145 reversed $56 $-1 #
face $-1 $-1 $146 $30 $-1 $147 forward single #
loop $-1 $148 $149 $58 #
cone-surface $-1 6.0816820285194098 -30.653386191110808 10.127991674895553 0 0.71933980857756763 -0.69465836192734942 0.5 0 0 1 I I -0.70710678118654746 0.70710678118654746 0.5 forward I I I I #
loop $-1 $-1 $150 $38 #
coedge $-1 $95 $95 $151 $152 reversed $59 $-1 #
face $-1 $-1 $153 $31 $-1 $154 forward single #
loop $-1 $155 $156 $61 #
cone-surface $-1 19.435917551603723 -30.653386191110808 10.127991674895553 0 0.71933980857756763 -0.69465836192734942 0.5 0 0 1 I I -0.70710678118654746 0.70710678118654746 0.5 forward I I I I #
loop $-1 $-1 $157 $39 #
coedge $-1 $100 $100 $158 $159 reversed $62 $-1 #
face $-1 $160 $161 $24 $-1 $162 reversed single #
loop $-1 $-1 $163 $64 #
plane-surface $-1 0 -34.808412687224759 0 0 1 0 0 0 1 forward_v I I I I #
coedge $-1 $164 $165 $166 $167 forward $65 $-1 #
coedge $-1 $168 $67 $169 $170 forward $41 $-1 #
coedge $-1 $67 $168 $171 $172 forward $41 $-1 #
coedge $-1 $173 $174 $67 $108 reversed $175 $-1 #
edge $-1 $176 -34.808412687224759 $177 34.808412687224759 $107 $178 forward 7 unknown #
face $-1 $179 $180 $25 $-1 $181 forward single #
loop $-1 $-1 $115 $68 #
plane-surface $-1 0 34.808412687224759 0 0 -1 0 0 0 -1 forward_v I I I I #
coedge $-1 $182 $183 $184 $185 reversed $69 $-1 #
coedge $-1 $114 $71 $186 $187 reversed $44 $-1 #
coedge $-1 $71 $113 $182 $188 reversed $44 $-1 #
coedge $-1 $184 $189 $71 $116 forward $110 $-1 #
edge $-1 $190 52.302789884177578 $191 65.223975259156134 $115 $192 forward 7 unknown #
loop $-1 $-1 $122 $72 #
plane-surface $-1 -51.713466169317627 -9.9404194016725995 54.69772515303768 0 0.7660444514056185 0.64278759981090561 1 0 0 forward_v I I I I #
loop $-1 $-1 $193 $46 #
coedge $-1 $120 $120 $121 $194 reversed $73 $-1 #
coedge $-1 $121 $121 $120 $194 forward $75 $-1 #
coedge $-1 $122 $122 $76 $123 forward $117 $-1 #
edge $-1 $195 -4.7079392539723723e-017 $195 6.2831853071796004 $122 $196 forward 7 unknown #
loop $-1 $-1 $129 $77 #
plane-surface $-1 -51.713466169317627 -9.9404194016725995 54.69772515303768 0 0.7660444514056185 0.64278759981090561 1 0 0 forward_v I I I I #
loop $-1 $-1 $197 $49 #
coedge $-1 $127 $127 $128 $198 reversed $78 $-1 #
coedge $-1 $128 $128 $127 $198 forward $80 $-1 #
coedge $-1 $129 $129 $81 $130 forward $124 $-1 #
edge $-1 $199 -4.7079392539723723e-017 $199 6.2831853071796004 $129 $200 forward 7 unknown #
loop $-1 $-1 $136 $82 #
plane-surface $-1 -51.713466169317627 -9.9404194016725995 54.69772515303768 0 0.7660444514056185 0.64278759981090561 1 0 0 forward_v I I I I #
loop $-1 $-1 $201 $52 #
coedge $-1 $134 $134 $135 $202 reversed $83 $-1 #
coedge $-1 $135 $135 $134 $202 forward $85 $-1 #
coedge $-1 $136 $136 $86 $137 forward $131 $-1 #
edge $-1 $203 -4.7079392539723723e-017 $203 6.2831853071796004 $136 $204 forward 7 unknown #
face $-1 $205 $206 $29 $-1 $207 reversed single #
loop $-1 $-1 $208 $87 #
plane-surface $-1 -2.8211416535368095 -122.64220279698475 94.694776503062116 1 0 0 0 0.71933980857756763 -0.69465836192734942 forward_v I I I I #
coedge $-1 $209 $210 $211 $212 reversed $88 $-1 #
coedge $-1 $143 $90 $213 $214 reversed $56 $-1 #
coedge $-1 $90 $142 $209 $215 reversed $56 $-1 #
coedge $-1 $211 $216 $90 $145 forward $217 $-1 #
edge $-1 $218 26.512688711267614 $219 30.775870776862085 $144 $220 forward 7 unknown #
loop $-1 $-1 $151 $91 #
plane-surface $-1 12.758799790061559 -34.808412687224774 9.8746733585310835 0 -0.71933980857756763 0.69465836192734942 1 0 0 forward_v I I I I #
loop $-1 $-1 $221 $58 #
coedge $-1 $149 $149 $150 $222 reversed $92 $-1 #
coedge $-1 $150 $150 $149 $222 forward $94 $-1 #
coedge $-1 $151 $151 $95 $152 forward $146 $-1 #
edge $-1 $223 1.1024319625659993e-015 $223 6.2831853071796013 $151 $224 forward 7 unknown #
loop $-1 $-1 $158 $96 #
plane-surface $-1 12.758799790061559 -34.808412687224774 9.8746733585310835 0 -0.71933980857756763 0.69465836192734942 1 0 0 forward_v I I I I #
loop $-1 $-1 $225 $61 #
coedge $-1 $156 $156 $157 $226 reversed $97 $-1 #
coedge $-1 $157 $157 $156 $226 forward $99 $-1 #
coedge $-1 $158 $158 $100 $159 forward $153 $-1 #
edge $-1 $227 1.1024319625659993e-015 $227 6.2831853071796013 $158 $228 forward 7 unknown #
face $-1 $229 $230 $24 $-1 $231 reversed single #
loop $-1 $-1 $232 $101 #
plane-surface $-1 -61.051667836542862 0 0 1 0 0 0 0 -1 forward_v I I I I #
coedge $-1 $233 $171 $234 $235 forward $102 $-1 #
coedge $-1 $236 $104 $233 $237 forward $65 $-1 #
coedge $-1 $104 $236 $238 $239 forward $65 $-1 #
coedge $-1 $174 $173 $104 $167 reversed $175 $-1 #
edge $-1 $240 -34.808412687224759 $241 34.808412687224759 $166 $242 forward 7 unknown #
coedge $-1 $106 $105 $243 $244 forward $41 $-1 #
coedge $-1 $245 $246 $105 $170 reversed $230 $-1 #
edge $-1 $177 -61.051667836542862 $247 61.051667836542862 $169 $248 forward 7 unknown #
coedge $-1 $163 $249 $106 $172 reversed $102 $-1 #
edge $-1 $250 -61.051667836542862 $176 61.051667836542862 $171 $251 forward 7 unknown #
coedge $-1 $166 $107 $249 $252 forward $175 $-1 #
coedge $-1 $107 $166 $245 $253 reversed $175 $-1 #
loop $-1 $-1 $173 $229 #
vertex $-1 $108 $254 #
vertex $-1 $108 $255 #
straight-curve $-1 61.051667836542862 0 14.289327725445309 0 1 0 I I #
face $-1 $-1 $256 $25 $-1 $257 reversed single #
loop $-1 $-1 $186 $109 #
plane-surface $-1 0 0 14.289327725445309 0 0 1 1 0 0 forward_v I I I I #
coedge $-1 $258 $112 $114 $188 forward $69 $-1 #
coedge $-1 $112 $258 $259 $260 reversed $69 $-1 #
coedge $-1 $261 $115 $112 $185 forward $110 $-1 #
edge $-1 $191 16.518531417433579 $262 35.194934751884048 $184 $263 forward 7 unknown #
coedge $-1 $264 $265 $113 $187 forward $180 $-1 #
edge $-1 $266 -17.831830605838427 $190 -6.9896690071814618 $186 $267 forward 7 unknown #
edge $-1 $191 -69.616825374449533 $266 -52.749415981601096 $114 $268 forward 7 unknown #
coedge $-1 $115 $261 $264 $269 reversed $110 $-1 #
vertex $-1 $269 $270 #
vertex $-1 $116 $271 #
straight-curve $-1 -42.375264502092392 34.808412687224759 66.592117609622889 0 0 -1 I I #
coedge $-1 $193 $193 $-1 $272 reversed $119 $-1 #
edge $-1 $273 0 $273 6.2831853071796004 $120 $274 forward 7 unknown #
vertex $-1 $123 $275 #
ellipse-curve $-1 -57.316387169652771 29.387331887896281 7.8287350379560277 0 0.7660444514056185 0.64278759981090561 1 0 0 1 I I #
coedge $-1 $197 $197 $-1 $276 reversed $126 $-1 #
edge $-1 $277 0 $277 6.2831853071796004 $127 $278 forward 7 unknown #
vertex $-1 $130 $279 #
ellipse-curve $-1 -51.713466169317627 29.387331887896281 7.8287350379560277 0 0.7660444514056185 0.64278759981090561 1 0 0 1 I I #
coedge $-1 $201 $201 $-1 $280 reversed $133 $-1 #
edge $-1 $281 0 $281 6.2831853071796004 $134 $282 forward 7 unknown #
vertex $-1 $137 $283 #
ellipse-curve $-1 -46.11054516898249 29.387331887896281 7.8287350379560277 0 0.7660444514056185 0.64278759981090561 1 0 0 1 I I #
face $-1 $-1 $217 $29 $-1 $284 forward single #
loop $-1 $-1 $285 $138 #
plane-surface $-1 0 -34.808412687224759 0 0 1 0 0 0 1 forward_v I I I I #
coedge $-1 $286 $287 $288 $289 reversed $139 $-1 #
coedge $-1 $290 $141 $143 $215 forward $88 $-1 #
coedge $-1 $141 $290 $286 $291 forward $88 $-1 #
coedge $-1 $288 $144 $141 $212 forward $217 $-1 #
edge $-1 $219 -21.959341338629148 $292 9.200541548567589 $211 $293 forward 7 unknown #
coedge $-1 $294 $295 $142 $214 forward $206 $-1 #
edge $-1 $296 -37.47271489299996 $218 -33.058060526085747 $213 $297 forward 7 unknown #
edge $-1 $219 -6.1370916975161212 $296 -2.0094122568606809e-014 $143 $298 forward 7 unknown #
coedge $-1 $144 $288 $294 $299 forward $217 $-1 #
loop $-1 $-1 $288 $205 #
vertex $-1 $214 $300 #
vertex $-1 $145 $301 #
straight-curve $-1 28.338741233659928 -61.321101398492374 14.289327725445311 0 1 0 I I #
coedge $-1 $221 $221 $-1 $302 reversed $148 $-1 #
edge $-1 $303 0 $303 6.2831853071796004 $149 $304 forward 7 unknown #
vertex $-1 $152 $305 #
ellipse-curve $-1 6.0816820285194098 -32.676821654427528 12.082000541988203 0 -0.71933980857756763 0.69465836192734942 1 0 0 1 I I #
coedge $-1 $225 $225 $-1 $306 reversed $155 $-1 #
edge $-1 $307 0 $307 6.2831853071796004 $156 $308 forward 7 unknown #
vertex $-1 $159 $309 #
ellipse-curve $-1 19.435917551603723 -32.676821654427528 12.082000541988203 0 -0.71933980857756763 0.69465836192734942 1 0 0 1 I I #
face $-1 $-1 $175 $24 $-1 $310 reversed single #
loop $-1 $-1 $245 $160 #
plane-surface $-1 0 34.808412687224759 0 0 -1 0 0 0 -1 forward_v I I I I #
coedge $-1 $311 $243 $246 $312 forward $161 $-1 #
coedge $-1 $249 $163 $164 $237 reversed $102 $-1 #
coedge $-1 $243 $311 $163 $235 reversed $161 $-1 #
edge $-1 $250 -14.289327725445309 $313 14.289327725445309 $234 $314 forward 7 unknown #
coedge $-1 $165 $164 $311 $315 forward $65 $-1 #
edge $-1 $241 -61.051667836542862 $313 61.051667836542862 $233 $316 forward 7 unknown #
coedge $-1 $246 $245 $165 $239 reversed $230 $-1 #
edge $-1 $317 -61.051667836542862 $240 61.051667836542862 $238 $318 forward 7 unknown #
vertex $-1 $167 $319 #
vertex $-1 $252 $320 #
straight-curve $-1 61.051667836542862 0 -14.289327725445309 0 -1 0 I I #
coedge $-1 $232 $234 $168 $244 reversed $161 $-1 #
edge $-1 $247 -34.808412687224759 $250 34.808412687224759 $243 $321 forward 7 unknown #
coedge $-1 $238 $169 $174 $253 forward $230 $-1 #
coedge $-1 $169 $238 $232 $312 reversed $230 $-1 #
vertex $-1 $170 $322 #
straight-curve $-1 0 34.808412687224759 14.289327725445309 -1 0 0 I I #
coedge $-1 $171 $233 $173 $252 reversed $102 $-1 #
vertex $-1 $244 $323 #
straight-curve $-1 0 -34.808412687224759 14.289327725445309 1 0 0 I I #
edge $-1 $176 -14.289327725445309 $241 14.289327725445309 $173 $324 forward 7 unknown #
edge $-1 $177 -14.289327725445309 $240 14.289327725445309 $174 $325 forward 7 unknown #
point $-1 61.051667836542862 -34.808412687224759 14.289327725445309 #
point $-1 61.051667836542862 34.808412687224759 14.289327725445309 #
loop $-1 $-1 $259 $179 #
plane-surface $-1 -61.051667836542862 0 0 1 0 0 0 0 -1 forward_v I I I I #
coedge $-1 $183 $182 $265 $326 reversed $69 $-1 #
coedge $-1 $327 $328 $183 $260 forward $256 $-1 #
edge $-1 $262 -45.471591781295061 $329 -28.604182388446624 $259 $330 forward 7 unknown #
coedge $-1 $189 $184 $328 $331 reversed $110 $-1 #
vertex $-1 $185 $332 #
straight-curve $-1 -25.856733084658813 34.808412687224752 1.3681423504667549 -1 0 0 I I #
coedge $-1 $333 $186 $189 $269 forward $180 $-1 #
coedge $-1 $186 $333 $258 $326 forward $180 $-1 #
vertex $-1 $187 $334 #
straight-curve $-1 -42.375264502092392 41.798081694406221 14.289327725445311 0 1 0 I I #
straight-curve $-1 -42.375264502092392 -9.9404194016725995 54.69772515303768 0 -0.64278759981090561 0.7660444514056185 I I #
edge $-1 $190 42.375264502092392 $335 61.051667836542862 $189 $336 forward 7 unknown #
point $-1 -42.375264502092392 34.808412687224759 14.289327725445309 #
point $-1 -42.375264502092392 34.808412687224752 1.368142350466762 #
edge $-1 $337 1 $337 0 $193 $-1 forward 7 unknown #
vertex $-1 $194 $338 #
ellipse-curve $-1 -57.316387169652771 26.648092338143627 5.5302402022297095 0 0.7660444514056185 0.64278759981090561 1 0 0 1 I I #
point $-1 -56.316387169652771 29.38733188789627 7.8287350379560188 #
edge $-1 $339 1 $339 0 $197 $-1 forward 7 unknown #
vertex $-1 $198 $340 #
ellipse-curve $-1 -51.713466169317627 26.648092338143627 5.5302402022297095 0 0.7660444514056185 0.64278759981090561 1 0 0 1 I I #
point $-1 -50.713466169317627 29.38733188789627 7.8287350379560188 #
edge $-1 $341 1 $341 0 $201 $-1 forward 7 unknown #
vertex $-1 $202 $342 #
ellipse-curve $-1 -46.11054516898249 26.648092338143627 5.5302402022297095 0 0.7660444514056185 0.64278759981090561 1 0 0 1 I I #
point $-1 -45.11054516898249 29.38733188789627 7.8287350379560188 #
plane-surface $-1 0 0 14.289327725445309 0 0 1 1 0 0 forward_v I I I I #
coedge $-1 $295 $294 $287 $343 forward $206 $-1 #
coedge $-1 $287 $208 $210 $291 reversed $139 $-1 #
coedge $-1 $208 $286 $285 $343 reversed $139 $-1 #
coedge $-1 $216 $211 $208 $289 forward $217 $-1 #
edge $-1 $292 -30.775870776862085 $344 -26.512688711267614 $288 $345 forward 7 unknown #
coedge $-1 $210 $209 $295 $346 reversed $88 $-1 #
edge $-1 $347 2.0094122568606809e-014 $292 6.1370916975161212 $286 $348 forward 7 unknown #
vertex $-1 $212 $349 #
straight-curve $-1 6.3793998950307795 -30.545230621630292 14.289327725445311 -1 0 0 I I #
coedge $-1 $285 $213 $216 $299 reversed $206 $-1 #
coedge $-1 $213 $285 $290 $346 forward $206 $-1 #
vertex $-1 $214 $350 #
straight-curve $-1 28.338741233659928 -34.808412687224759 47.347388251531058 0 0 1 I I #
straight-curve $-1 28.338741233659928 -34.808412687224774 9.8746733585310835 0 -0.69465836192734942 -0.71933980857756763 I I #
edge $-1 $344 -2.8211416535368095 $218 28.338741233659928 $294 $351 forward 7 unknown #
point $-1 28.338741233659928 -34.808412687224759 14.289327725445309 #
point $-1 28.338741233659928 -30.545230621630289 14.289327725445309 #
edge $-1 $352 1 $352 0 $221 $-1 forward 7 unknown #
vertex $-1 $222 $353 #
ellipse-curve $-1 6.0816820285194098 -31.013056095399591 10.475320855859227 0 -0.71933980857756763 0.69465836192734942 1 0 0 1 I I #
point $-1 7.0816820285194098 -32.676821654427521 12.082000541988197 #
edge $-1 $354 1 $354 0 $225 $-1 forward 7 unknown #
vertex $-1 $226 $355 #
ellipse-curve $-1 19.435917551603723 -31.013056095399591 10.475320855859227 0 -0.71933980857756763 0.69465836192734942 1 0 0 1 I I #
point $-1 20.435917551603723 -32.676821654427521 12.082000541988197 #
plane-surface $-1 61.051667836542862 0 0 -1 0 0 0 0 1 forward_v I I I I #
coedge $-1 $234 $232 $236 $315 reversed $161 $-1 #
edge $-1 $247 -14.289327725445309 $317 14.289327725445309 $246 $356 forward 7 unknown #
vertex $-1 $315 $357 #
straight-curve $-1 -61.051667836542862 -34.808412687224759 0 0 0 -1 I I #
edge $-1 $313 -34.808412687224759 $317 34.808412687224759 $311 $358 forward 7 unknown #
straight-curve $-1 0 -34.808412687224759 -14.289327725445309 -1 0 0 I I #
vertex $-1 $239 $359 #
straight-curve $-1 0 34.808412687224759 -14.289327725445309 1 0 0 I I #
point $-1 61.051667836542862 34.808412687224759 -14.289327725445309 #
point $-1 61.051667836542862 -34.808412687224759 -14.289327725445309 #
straight-curve $-1 -61.051667836542862 0 14.289327725445309 0 -1 0 I I #
point $-1 -61.051667836542862 34.808412687224759 14.289327725445309 #
point $-1 -61.051667836542862 -34.808412687224759 14.289327725445309 #
straight-curve $-1 61.051667836542862 -34.808412687224759 0 0 0 -1 I I #
straight-curve $-1 61.051667836542862 34.808412687224759 0 0 0 -1 I I #
edge $-1 $329 -35.194934751884048 $266 -16.518531417433579 $265 $360 forward 7 unknown #
coedge $-1 $328 $259 $333 $361 reversed $256 $-1 #
coedge $-1 $259 $327 $261 $331 forward $256 $-1 #
vertex $-1 $260 $362 #
straight-curve $-1 -61.051667836542862 5.5798373465448083 36.201402931109151 0 -0.64278759981090572 0.76604445140561861 I I #
edge $-1 $335 -14.289327725445309 $262 -1.3681423504667531 $261 $363 forward 7 unknown #
point $-1 -61.051667836542862 34.808412687224759 1.3681423504667531 #
coedge $-1 $265 $264 $327 $361 forward $180 $-1 #
point $-1 -42.375264502092392 23.966251088567795 14.289327725445311 #
vertex $-1 $269 $364 #
straight-curve $-1 0 34.808412687224759 14.289327725445309 -1 0 0 I I #
vertex $-1 $272 $365 #
point $-1 -56.316387169652771 26.648092338143627 5.5302402022297095 #
vertex $-1 $276 $366 #
point $-1 -50.713466169317627 26.648092338143627 5.5302402022297095 #
vertex $-1 $280 $367 #
point $-1 -45.11054516898249 26.648092338143627 5.5302402022297095 #
edge $-1 $344 33.058060526085747 $347 37.47271489299996 $285 $368 forward 7 unknown #
vertex $-1 $299 $369 #
straight-curve $-1 -2.8211416535368095 -61.321101398492374 14.289327725445311 0 -1 0 I I #
edge $-1 $347 -9.200541548567589 $296 21.959341338629148 $295 $370 forward 7 unknown #
vertex $-1 $346 $371 #
straight-curve $-1 -2.8211416535368095 -34.808412687224774 9.8746733585310835 0 0.69465836192734942 0.71933980857756763 I I #
point $-1 -2.8211416535368095 -30.545230621630289 14.289327725445309 #
point $-1 28.338741233659928 -34.808412687224759 9.8746733585310977 #
straight-curve $-1 0 -34.808412687224759 14.289327725445309 1 0 0 I I #
vertex $-1 $302 $372 #
point $-1 7.0816820285194098 -31.013056095399591 10.475320855859227 #
vertex $-1 $306 $373 #
point $-1 20.435917551603723 -31.013056095399591 10.475320855859227 #
straight-curve $-1 -61.051667836542862 34.808412687224759 0 0 0 -1 I I #
point $-1 -61.051667836542862 -34.808412687224759 -14.289327725445309 #
straight-curve $-1 -61.051667836542862 0 -14.289327725445309 0 1 0 I I #
point $-1 -61.051667836542862 34.808412687224759 -14.289327725445309 #
straight-curve $-1 -25.856733084658813 23.966251088567784 14.289327725445311 1 0 0 I I #
edge $-1 $335 -34.808412687224759 $329 -23.966251088567795 $327 $374 forward 7 unknown #
point $-1 -61.051667836542862 23.966251088567795 14.289327725445311 #
straight-curve $-1 -61.051667836542862 34.808412687224759 0 0 0 -1 I I #
point $-1 -61.051667836542862 34.808412687224759 14.289327725445309 #
point $-1 -57.316387169652771 25.882047886738007 4.8874526024188043 #
point $-1 -51.713466169317627 25.882047886738007 4.8874526024188043 #
point $-1 -46.11054516898249 25.882047886738007 4.8874526024188043 #
straight-curve $-1 -2.8211416535368095 -34.808412687224759 47.347388251531058 0 0 -1 I I #
point $-1 -2.8211416535368095 -34.808412687224759 14.289327725445309 #
straight-curve $-1 6.3793998950307795 -34.808412687224759 9.8746733585310977 1 0 0 I I #
point $-1 -2.8211416535368095 -34.808412687224759 9.8746733585310977 #
point $-1 6.0816820285194098 -30.293716286822026 9.780662493931878 #
point $-1 19.435917551603723 -30.293716286822026 9.780662493931878 #
straight-curve $-1 -61.051667836542862 0 14.289327725445309 0 -1 0 I I #
End-of-ACIS-data 