500 0 9 0           
7 Unknown 11 ACIS 5.0 NT 24 Fri Mar 26 01:14:06 1999 
-1 9.9999999999999995e-007 1e-010 
body $-1 $9 $-1 $10 #
body $-1 $11 $-1 $12 #
body $-1 $13 $-1 $14 #
body $-1 $15 $-1 $16 #
body $-1 $17 $-1 $18 #
body $-1 $19 $-1 $20 #
body $-1 $21 $-1 $22 #
body $-1 $23 $-1 $24 #
body $-1 $25 $-1 $26 #
lump $-1 $-1 $27 $0 #
transform $-1 1 0 0 0 1 0 0 0 1 54.164250617999812 22.723958654916331 9.950565384940214 1 rotate no_reflect no_shear #
lump $-1 $-1 $28 $1 #
transform $-1 1 0 0 0 1 0 0 0 1 54.164250617999812 22.723958654916331 9.950565384940214 1 rotate no_reflect no_shear #
lump $-1 $-1 $29 $2 #
transform $-1 1 0 0 0 1 0 0 0 1 54.164250617999812 22.723958654916331 9.950565384940214 1 rotate no_reflect no_shear #
lump $-1 $-1 $30 $3 #
transform $-1 1 0 0 0 1 0 0 0 1 54.164250617999812 22.723958654916331 9.950565384940214 1 rotate no_reflect no_shear #
lump $-1 $-1 $31 $4 #
transform $-1 1 0 0 0 1 0 0 0 1 54.164250617999812 22.723958654916331 9.950565384940214 1 rotate no_reflect no_shear #
lump $-1 $-1 $32 $5 #
transform $-1 1 0 0 0 1 0 0 0 1 54.164250617999812 22.723958654916331 9.950565384940214 1 rotate no_reflect no_shear #
lump $-1 $-1 $33 $6 #
transform $-1 1 0 0 0 1 0 0 0 1 54.164250617999812 22.723958654916331 9.950565384940214 1 rotate no_reflect no_shear #
lump $-1 $-1 $34 $7 #
transform $-1 1 0 0 0 1 0 0 0 1 54.164250617999812 22.723958654916331 9.950565384940214 1 rotate no_reflect no_shear #
lump $-1 $-1 $35 $8 #
transform $-1 1 0 0 0 1 0 0 0 1 54.164250617999812 22.723958654916331 9.950565384940214 1 rotate no_reflect no_shear #
shell $-1 $-1 $-1 $36 $-1 $9 #
shell $-1 $-1 $-1 $37 $-1 $11 #
shell $-1 $-1 $-1 $38 $-1 $13 #
shell $-1 $-1 $-1 $39 $-1 $15 #
shell $-1 $-1 $-1 $40 $-1 $17 #
shell $-1 $-1 $-1 $41 $-1 $19 #
shell $-1 $-1 $-1 $42 $-1 $21 #
shell $-1 $-1 $-1 $43 $-1 $23 #
shell $-1 $-1 $-1 $44 $-1 $25 #
face $-1 $45 $46 $27 $-1 $47 forward single #
face $-1 $48 $49 $28 $-1 $50 reversed single #
face $-1 $51 $52 $29 $-1 $53 reversed single #
face $-1 $54 $55 $30 $-1 $56 reversed single #
face $-1 $57 $58 $31 $-1 $59 forward single #
face $-1 $60 $61 $32 $-1 $62 forward single #
face $-1 $63 $64 $33 $-1 $65 reversed single #
face $-1 $66 $67 $34 $-1 $68 forward single #
face $-1 $69 $70 $35 $-1 $71 forward single #
face $-1 $72 $73 $27 $-1 $74 reversed single #
loop $-1 $-1 $75 $36 #
plane-surface $-1 0 0 9.950565384940214 0 0 1 1 0 0 forward_v I I I I #
face $-1 $76 $77 $28 $-1 $78 reversed single #
loop $-1 $-1 $79 $37 #
plane-surface $-1 -40.45851762774646 -18.718837107701397 0 1 0 0 0 0 -1 forward_v I I I I #
face $-1 $80 $81 $29 $-1 $82 reversed single #
loop $-1 $-1 $83 $38 #
plane-surface $-1 -37.805812961250652 14.713715560486463 0 0 1 0 0 0 1 forward_v I I I I #
face $-1 $84 $85 $30 $-1 $86 reversed single #
loop $-1 $-1 $87 $39 #
plane-surface $-1 -140.67923934615817 -14.71371556048646 65.832202192769941 0 1 0 -0.79863551827123203 0 0.60181501223851219 forward_v I I I I #
face $-1 $88 $89 $31 $-1 $90 forward single #
loop $-1 $91 $92 $40 #
cone-surface $-1 -50.108141377837988 -12.256271956083461 4.8819304649821751 0.79863551827123203 0 -0.60181501223851219 0.60181501223851219 0 0.79863551827123203 1 I I 0 1 1 forward I I I I #
face $-1 $93 $94 $32 $-1 $95 forward single #
loop $-1 $96 $97 $41 #
cone-surface $-1 -50.108141377837988 -8.5701065494789628 4.8819304649821751 0.79863551827123203 0 -0.60181501223851219 0.60181501223851219 0 0.79863551827123203 1 I I 0 1 1 forward I I I I #
face $-1 $98 $99 $33 $-1 $100 reversed single #
loop $-1 $-1 $101 $42 #
plane-surface $-1 64.850918909888733 7.1290549025550618 159.16377276772118 0 -1 0 -0.75470958851134928 0 -0.65605901945558964 forward_v I I I I #
face $-1 $102 $103 $34 $-1 $104 forward single #
loop $-1 $105 $106 $43 #
cone-surface $-1 52.216424401633418 1.174410462080953 7.8159151206749016 -0.75470958851134928 0 -0.65605901945558964 0.32802950972779482 0 -0.37735479425567464 1 I I 0 1 0.5 forward I I I I #
face $-1 $107 $108 $35 $-1 $109 forward single #
loop $-1 $110 $111 $44 #
cone-surface $-1 52.216424401633418 4.7471971263654176 7.8159151206749016 -0.75470958851134928 0 -0.65605901945558964 0.32802950972779482 0 -0.37735479425567464 1 I I 0 1 0.5 forward I I I I #
face $-1 $112 $113 $27 $-1 $114 reversed single #
loop $-1 $-1 $115 $45 #
plane-surface $-1 0 0 -9.950565384940214 0 0 1 1 0 0 forward_v I I I I #
coedge $-1 $116 $117 $118 $119 forward $46 $-1 #
face $-1 $120 $121 $28 $-1 $122 reversed single #
loop $-1 $-1 $123 $48 #
plane-surface $-1 -37.805812961250652 -14.713715560486461 0 0 -1 0 0 0 -1 forward_v I I I I #
coedge $-1 $124 $125 $126 $127 forward $49 $-1 #
face $-1 $128 $129 $29 $-1 $130 reversed single #
loop $-1 $-1 $131 $51 #
plane-surface $-1 -40.45851762774646 18.718837107701397 0 1 0 0 0 0 -1 forward_v I I I I #
coedge $-1 $132 $133 $134 $135 forward $52 $-1 #
face $-1 $136 $137 $30 $-1 $138 reversed single #
loop $-1 $-1 $139 $54 #
plane-surface $-1 -54.164250617999812 -10.413189252781212 0.63848389564714125 -0.79863551827123203 0 0.60181501223851219 0.60181501223851219 0 0.79863551827123203 forward_v I I I I #
coedge $-1 $140 $141 $142 $143 reversed $55 $-1 #
face $-1 $-1 $144 $31 $-1 $145 forward single #
loop $-1 $146 $147 $57 #
cone-surface $-1 -49.161292639357171 -12.256271956083461 4.1684287835514144 0.79863551827123203 0 -0.60181501223851219 0.3009075061192561 0 0.39931775913561601 1 I I -0.70710678118654746 0.70710678118654746 0.5 forward I I I I #
loop $-1 $-1 $148 $40 #
coedge $-1 $92 $92 $149 $150 reversed $58 $-1 #
face $-1 $-1 $151 $32 $-1 $152 forward single #
loop $-1 $153 $154 $60 #
cone-surface $-1 -49.161292639357171 -8.5701065494789628 4.1684287835514144 0.79863551827123203 0 -0.60181501223851219 0.3009075061192561 0 0.39931775913561601 1 I I -0.70710678118654746 0.70710678118654746 0.5 forward I I I I #
loop $-1 $-1 $155 $41 #
coedge $-1 $97 $97 $156 $157 reversed $61 $-1 #
face $-1 $158 $159 $33 $-1 $160 reversed single #
loop $-1 $-1 $161 $63 #
plane-surface $-1 -16.905639681983729 2.9608037942231853 88.093882467737643 0.75470958851134928 0 0.65605901945558964 0.65605901945558964 0 -0.75470958851134928 forward_v I I I I #
coedge $-1 $162 $163 $164 $165 reversed $64 $-1 #
face $-1 $-1 $166 $34 $-1 $167 forward single #
loop $-1 $168 $169 $66 #
cone-surface $-1 51.650392210249905 1.174410462080953 7.3238708560832091 -0.75470958851134928 0 -0.65605901945558964 0.16401475486389741 0 -0.18867739712783732 1 I I -0.70710678118654746 0.70710678118654746 0.25 forward I I I I #
loop $-1 $-1 $170 $43 #
coedge $-1 $106 $106 $171 $172 reversed $67 $-1 #
face $-1 $-1 $173 $35 $-1 $174 forward single #
loop $-1 $175 $176 $69 #
cone-surface $-1 51.650392210249905 4.7471971263654176 7.3238708560832091 -0.75470958851134928 0 -0.65605901945558964 0.16401475486389741 0 -0.18867739712783732 1 I I -0.70710678118654746 0.70710678118654746 0.25 forward I I I I #
loop $-1 $-1 $177 $44 #
coedge $-1 $111 $111 $178 $179 reversed $70 $-1 #
face $-1 $180 $181 $27 $-1 $182 reversed single #
loop $-1 $-1 $183 $72 #
plane-surface $-1 0 -22.723958654916331 0 0 1 0 0 0 1 forward_v I I I I #
coedge $-1 $184 $185 $186 $187 forward $73 $-1 #
coedge $-1 $188 $75 $189 $190 forward $46 $-1 #
coedge $-1 $75 $188 $191 $192 forward $46 $-1 #
coedge $-1 $193 $194 $75 $119 reversed $195 $-1 #
edge $-1 $196 -22.723958654916331 $197 22.723958654916331 $118 $198 forward 7 unknown #
face $-1 $199 $200 $28 $-1 $201 forward single #
loop $-1 $-1 $202 $76 #
plane-surface $-1 -35.153108294754844 -18.718837107701397 0 -1 0 0 0 0 1 forward_v I I I I #
coedge $-1 $203 $204 $205 $206 forward $77 $-1 #
coedge $-1 $207 $79 $208 $209 reversed $49 $-1 #
coedge $-1 $79 $207 $210 $211 reversed $49 $-1 #
coedge $-1 $204 $203 $79 $127 reversed $77 $-1 #
edge $-1 $212 -9.950565384940214 $213 9.950565384940214 $126 $214 forward 7 unknown #
face $-1 $215 $216 $29 $-1 $217 reversed single #
loop $-1 $-1 $218 $80 #
plane-surface $-1 -35.153108294754844 18.718837107701397 0 -1 0 0 0 0 1 forward_v I I I I #
coedge $-1 $219 $220 $221 $222 reversed $81 $-1 #
coedge $-1 $223 $83 $224 $225 reversed $52 $-1 #
coedge $-1 $83 $223 $226 $227 reversed $52 $-1 #
coedge $-1 $220 $219 $83 $135 reversed $81 $-1 #
edge $-1 $228 -9.950565384940214 $229 9.950565384940214 $134 $230 forward 7 unknown #
face $-1 $231 $232 $30 $-1 $233 reversed single #
loop $-1 $-1 $234 $84 #
plane-surface $-1 -140.67923934615817 -6.1126629450759644 65.832202192769941 0 -1 0 0.79863551827123203 0 -0.60181501223851219 forward_v I I I I #
coedge $-1 $235 $236 $237 $238 reversed $85 $-1 #
coedge $-1 $141 $87 $239 $240 reversed $55 $-1 #
coedge $-1 $87 $140 $235 $241 reversed $55 $-1 #
coedge $-1 $237 $242 $87 $143 forward $243 $-1 #
edge $-1 $244 16.175369055079273 $245 23.192525576712534 $142 $246 forward 7 unknown #
loop $-1 $-1 $149 $88 #
plane-surface $-1 -54.164250617999812 -10.413189252781212 0.63848389564714125 -0.79863551827123203 0 0.60181501223851219 0.60181501223851219 0 0.79863551827123203 forward_v I I I I #
loop $-1 $-1 $247 $57 #
coedge $-1 $147 $147 $148 $248 reversed $89 $-1 #
coedge $-1 $148 $148 $147 $248 forward $91 $-1 #
coedge $-1 $149 $149 $92 $150 forward $144 $-1 #
edge $-1 $249 0 $249 6.2831853071796004 $149 $250 forward 7 unknown #
loop $-1 $-1 $156 $93 #
plane-surface $-1 -54.164250617999812 -10.413189252781212 0.63848389564714125 -0.79863551827123203 0 0.60181501223851219 0.60181501223851219 0 0.79863551827123203 forward_v I I I I #
loop $-1 $-1 $251 $60 #
coedge $-1 $154 $154 $155 $252 reversed $94 $-1 #
coedge $-1 $155 $155 $154 $252 forward $96 $-1 #
coedge $-1 $156 $156 $97 $157 forward $151 $-1 #
edge $-1 $253 0 $253 6.2831853071796004 $156 $254 forward 7 unknown #
face $-1 $255 $256 $33 $-1 $257 forward single #
loop $-1 $-1 $258 $98 #
plane-surface $-1 64.850918909888733 -1.2074473141086912 159.16377276772118 0 1 0 0.75470958851134928 0 0.65605901945558964 forward_v I I I I #
coedge $-1 $259 $260 $261 $262 reversed $99 $-1 #
coedge $-1 $163 $101 $263 $264 reversed $64 $-1 #
coedge $-1 $101 $162 $259 $265 reversed $64 $-1 #
coedge $-1 $261 $266 $101 $165 forward $256 $-1 #
edge $-1 $267 -21.738791163055446 $268 -18.597848318834046 $164 $269 forward 7 unknown #
loop $-1 $-1 $171 $102 #
plane-surface $-1 -16.905639681983729 2.9608037942231853 88.093882467737643 0.75470958851134928 0 0.65605901945558964 0.65605901945558964 0 -0.75470958851134928 forward_v I I I I #
loop $-1 $-1 $270 $66 #
coedge $-1 $169 $169 $170 $271 reversed $103 $-1 #
coedge $-1 $170 $170 $169 $271 forward $105 $-1 #
coedge $-1 $171 $171 $106 $172 forward $166 $-1 #
edge $-1 $272 0 $272 6.2831853071796004 $171 $273 forward 7 unknown #
loop $-1 $-1 $178 $107 #
plane-surface $-1 -16.905639681983729 2.9608037942231853 88.093882467737643 0.75470958851134928 0 0.65605901945558964 0.65605901945558964 0 -0.75470958851134928 forward_v I I I I #
loop $-1 $-1 $274 $69 #
coedge $-1 $176 $176 $177 $275 reversed $108 $-1 #
coedge $-1 $177 $177 $176 $275 forward $110 $-1 #
coedge $-1 $178 $178 $111 $179 forward $173 $-1 #
edge $-1 $276 0 $276 6.2831853071796004 $178 $277 forward 7 unknown #
face $-1 $278 $279 $27 $-1 $280 reversed single #
loop $-1 $-1 $281 $112 #
plane-surface $-1 -54.164250617999812 0 0 1 0 0 0 0 -1 forward_v I I I I #
coedge $-1 $282 $191 $283 $284 forward $113 $-1 #
coedge $-1 $285 $115 $282 $286 forward $73 $-1 #
coedge $-1 $115 $285 $287 $288 forward $73 $-1 #
coedge $-1 $194 $193 $115 $187 reversed $195 $-1 #
edge $-1 $289 -22.723958654916331 $290 22.723958654916331 $186 $291 forward 7 unknown #
coedge $-1 $117 $116 $292 $293 forward $46 $-1 #
coedge $-1 $294 $295 $116 $190 reversed $279 $-1 #
edge $-1 $197 -54.164250617999812 $296 54.164250617999812 $189 $297 forward 7 unknown #
coedge $-1 $183 $298 $117 $192 reversed $113 $-1 #
edge $-1 $299 -54.164250617999812 $196 54.164250617999812 $191 $300 forward 7 unknown #
coedge $-1 $186 $118 $298 $301 forward $195 $-1 #
coedge $-1 $118 $186 $294 $302 reversed $195 $-1 #
loop $-1 $-1 $193 $278 #
vertex $-1 $119 $303 #
vertex $-1 $119 $304 #
straight-curve $-1 54.164250617999812 0 9.950565384940214 0 1 0 I I #
face $-1 $305 $306 $28 $-1 $307 reversed single #
loop $-1 $-1 $308 $120 #
plane-surface $-1 0 0 9.950565384940214 0 0 1 1 0 0 forward_v I I I I #
coedge $-1 $309 $310 $311 $312 reversed $121 $-1 #
coedge $-1 $126 $123 $313 $314 reversed $77 $-1 #
coedge $-1 $123 $126 $315 $316 reversed $77 $-1 #
coedge $-1 $310 $309 $123 $206 reversed $121 $-1 #
edge $-1 $317 -9.950565384940214 $318 9.950565384940214 $205 $319 forward 7 unknown #
coedge $-1 $125 $124 $320 $321 reversed $49 $-1 #
coedge $-1 $313 $322 $124 $209 forward $306 $-1 #
edge $-1 $323 -13.364540101065632 $213 -5.3542970066357629 $208 $324 forward 7 unknown #
coedge $-1 $325 $315 $125 $211 forward $200 $-1 #
edge $-1 $212 5.3542970066357629 $326 13.364540101065632 $210 $327 forward 7 unknown #
vertex $-1 $211 $328 #
vertex $-1 $209 $329 #
straight-curve $-1 -40.45851762774646 -14.713715560486461 0 0 0 -1 I I #
face $-1 $330 $331 $29 $-1 $332 forward single #
loop $-1 $-1 $333 $128 #
plane-surface $-1 0 0 -9.950565384940214 0 0 1 1 0 0 forward_v I I I I #
coedge $-1 $334 $335 $223 $336 forward $129 $-1 #
coedge $-1 $134 $131 $337 $338 reversed $81 $-1 #
coedge $-1 $131 $134 $339 $340 reversed $81 $-1 #
coedge $-1 $341 $342 $131 $222 forward $343 $-1 #
edge $-1 $344 -9.950565384940214 $345 9.950565384940214 $221 $346 forward 7 unknown #
coedge $-1 $133 $132 $218 $336 reversed $52 $-1 #
coedge $-1 $337 $333 $132 $225 forward $216 $-1 #
edge $-1 $347 16.250201814129518 $229 21.555611147121134 $224 $348 forward 7 unknown #
coedge $-1 $349 $339 $133 $227 forward $331 $-1 #
edge $-1 $228 -21.555611147121134 $350 -16.250201814129518 $226 $351 forward 7 unknown #
vertex $-1 $227 $352 #
vertex $-1 $225 $353 #
straight-curve $-1 -40.45851762774646 14.713715560486463 0 0 0 -1 I I #
face $-1 $-1 $243 $30 $-1 $354 forward single #
loop $-1 $-1 $355 $136 #
plane-surface $-1 -54.164250617999812 0 0 1 0 0 0 0 -1 forward_v I I I I #
coedge $-1 $356 $357 $358 $359 reversed $137 $-1 #
coedge $-1 $360 $139 $141 $241 forward $85 $-1 #
coedge $-1 $139 $360 $356 $361 forward $85 $-1 #
coedge $-1 $358 $142 $139 $238 forward $243 $-1 #
edge $-1 $245 -9.5071209340958536 $362 -0.90606831868535842 $237 $363 forward 7 unknown #
coedge $-1 $364 $365 $140 $240 forward $232 $-1 #
edge $-1 $366 -32.277617200737829 $244 -22.965535711444758 $239 $367 forward 7 unknown #
edge $-1 $245 -11.659989164331796 $366 0 $141 $368 forward 7 unknown #
coedge $-1 $142 $358 $364 $369 forward $243 $-1 #
loop $-1 $-1 $358 $231 #
vertex $-1 $240 $370 #
vertex $-1 $143 $371 #
straight-curve $-1 -70.339619673079085 -14.71371556048646 9.9505653849402123 1 0 0 I I #
coedge $-1 $247 $247 $-1 $372 reversed $146 $-1 #
edge $-1 $373 0 $373 6.2831853071796004 $147 $374 forward 7 unknown #
vertex $-1 $150 $375 #
ellipse-curve $-1 -50.655672357183185 -12.256271956083461 5.2945246402936768 -0.79863551827123203 0 0.60181501223851219 0.60181501223851219 0 0.79863551827123203 1 I I #
coedge $-1 $251 $251 $-1 $376 reversed $153 $-1 #
edge $-1 $377 0 $377 6.2831853071796004 $154 $378 forward 7 unknown #
vertex $-1 $157 $379 #
ellipse-curve $-1 -50.655672357183185 -8.5701065494789628 5.2945246402936768 -0.79863551827123203 0 0.60181501223851219 0.60181501223851219 0 0.79863551827123203 1 I I #
face $-1 $-1 $380 $33 $-1 $381 reversed single #
loop $-1 $-1 $164 $158 #
plane-surface $-1 0 0 9.950565384940214 0 0 1 1 0 0 forward_v I I I I #
coedge $-1 $382 $383 $384 $385 reversed $159 $-1 #
coedge $-1 $386 $161 $163 $265 forward $99 $-1 #
coedge $-1 $161 $386 $382 $387 forward $99 $-1 #
coedge $-1 $384 $164 $161 $262 forward $256 $-1 #
edge $-1 $268 -5.6486530054434692 $388 2.6878492112202839 $261 $389 forward 7 unknown #
coedge $-1 $390 $391 $162 $264 forward $380 $-1 #
edge $-1 $392 -73.244562507995411 $267 -69.631320998920373 $263 $393 forward 7 unknown #
edge $-1 $268 103.54090934094755 $392 108.32850123599964 $163 $394 forward 7 unknown #
coedge $-1 $164 $384 $390 $395 forward $256 $-1 #
vertex $-1 $165 $396 #
vertex $-1 $165 $397 #
straight-curve $-1 32.425459454944367 7.1290549025550618 9.9505653849402194 -1 0 0 I I #
coedge $-1 $270 $270 $-1 $398 reversed $168 $-1 #
edge $-1 $399 0 $399 6.2831853071796004 $169 $400 forward 7 unknown #
vertex $-1 $172 $401 #
ellipse-curve $-1 52.593779195889105 1.174410462080953 8.1439446304027054 0.75470958851134928 0 0.65605901945558964 0.32802950972779482 0 -0.37735479425567464 1 I I #
coedge $-1 $274 $274 $-1 $402 reversed $175 $-1 #
edge $-1 $403 0 $403 6.2831853071796004 $176 $404 forward 7 unknown #
vertex $-1 $179 $405 #
ellipse-curve $-1 52.593779195889105 4.7471971263654176 8.1439446304027054 0.75470958851134928 0 0.65605901945558964 0.32802950972779482 0 -0.37735479425567464 1 I I #
face $-1 $-1 $195 $27 $-1 $406 reversed single #
loop $-1 $-1 $294 $180 #
plane-surface $-1 0 22.723958654916331 0 0 -1 0 0 0 -1 forward_v I I I I #
coedge $-1 $407 $292 $295 $408 forward $181 $-1 #
coedge $-1 $298 $183 $184 $286 reversed $113 $-1 #
coedge $-1 $292 $407 $183 $284 reversed $181 $-1 #
edge $-1 $299 -9.950565384940214 $409 9.950565384940214 $283 $410 forward 7 unknown #
coedge $-1 $185 $184 $407 $411 forward $73 $-1 #
edge $-1 $290 -54.164250617999812 $409 54.164250617999812 $282 $412 forward 7 unknown #
coedge $-1 $295 $294 $185 $288 reversed $279 $-1 #
edge $-1 $413 -54.164250617999812 $289 54.164250617999812 $287 $414 forward 7 unknown #
vertex $-1 $187 $415 #
vertex $-1 $301 $416 #
straight-curve $-1 54.164250617999812 0 -9.950565384940214 0 -1 0 I I #
coedge $-1 $281 $283 $188 $293 reversed $181 $-1 #
edge $-1 $296 -22.723958654916331 $299 22.723958654916331 $292 $417 forward 7 unknown #
coedge $-1 $287 $189 $194 $302 forward $279 $-1 #
coedge $-1 $189 $287 $281 $408 reversed $279 $-1 #
vertex $-1 $190 $418 #
straight-curve $-1 0 22.723958654916331 9.950565384940214 -1 0 0 I I #
coedge $-1 $191 $282 $193 $301 reversed $113 $-1 #
vertex $-1 $293 $419 #
straight-curve $-1 0 -22.723958654916331 9.950565384940214 1 0 0 I I #
edge $-1 $196 -9.950565384940214 $290 9.950565384940214 $193 $420 forward 7 unknown #
edge $-1 $197 -9.950565384940214 $289 9.950565384940214 $194 $421 forward 7 unknown #
point $-1 54.164250617999812 -22.723958654916331 9.950565384940214 #
point $-1 54.164250617999812 22.723958654916331 9.950565384940214 #
face $-1 $-1 $422 $28 $-1 $423 reversed single #
loop $-1 $-1 $424 $199 #
plane-surface $-1 0 0 -9.950565384940214 0 0 1 1 0 0 forward_v I I I I #
coedge $-1 $315 $325 $310 $425 forward $200 $-1 #
coedge $-1 $205 $202 $424 $426 reversed $121 $-1 #
coedge $-1 $202 $205 $308 $425 reversed $121 $-1 #
coedge $-1 $427 $428 $202 $312 forward $422 $-1 #
edge $-1 $429 -9.950565384940214 $430 9.950565384940214 $311 $431 forward 7 unknown #
coedge $-1 $424 $208 $203 $314 forward $306 $-1 #
edge $-1 $213 -21.555611147121134 $318 -16.250201814129518 $313 $432 forward 7 unknown #
coedge $-1 $210 $308 $204 $316 forward $200 $-1 #
edge $-1 $317 16.250201814129518 $212 21.555611147121134 $315 $433 forward 7 unknown #
vertex $-1 $316 $434 #
vertex $-1 $314 $435 #
straight-curve $-1 -35.153108294754844 -14.713715560486461 0 0 0 -1 I I #
coedge $-1 $428 $427 $207 $321 forward $422 $-1 #
edge $-1 $326 -9.950565384940214 $323 9.950565384940214 $320 $436 forward 7 unknown #
coedge $-1 $208 $424 $428 $437 forward $306 $-1 #
vertex $-1 $209 $438 #
straight-curve $-1 -40.45851762774646 -9.3594185538506984 -9.950565384940214 0 1 0 I I #
coedge $-1 $308 $210 $427 $439 forward $200 $-1 #
vertex $-1 $439 $440 #
straight-curve $-1 -40.45851762774646 -9.3594185538506984 9.950565384940214 0 -1 0 I I #
point $-1 -40.45851762774646 -14.713715560486461 9.950565384940214 #
point $-1 -40.45851762774646 -14.713715560486461 -9.950565384940214 #
face $-1 $-1 $343 $29 $-1 $441 reversed single #
loop $-1 $-1 $349 $215 #
plane-surface $-1 0 0 9.950565384940214 0 0 1 1 0 0 forward_v I I I I #
coedge $-1 $224 $442 $334 $443 forward $216 $-1 #
coedge $-1 $444 $218 $333 $443 reversed $129 $-1 #
coedge $-1 $218 $444 $349 $445 reversed $129 $-1 #
edge $-1 $350 -9.950565384940214 $347 9.950565384940214 $218 $446 forward 7 unknown #
coedge $-1 $442 $224 $219 $338 forward $216 $-1 #
edge $-1 $229 5.3542970066357647 $344 13.364540101065632 $337 $447 forward 7 unknown #
coedge $-1 $226 $448 $220 $340 forward $331 $-1 #
edge $-1 $345 -13.364540101065632 $228 -5.3542970066357647 $339 $449 forward 7 unknown #
coedge $-1 $450 $221 $448 $451 reversed $343 $-1 #
coedge $-1 $221 $450 $442 $452 reversed $343 $-1 #
loop $-1 $-1 $450 $330 #
vertex $-1 $452 $453 #
vertex $-1 $222 $454 #
straight-curve $-1 -40.45851762774646 22.723958654916331 0 0 0 1 I I #
vertex $-1 $225 $455 #
straight-curve $-1 -18.902906480625326 14.713715560486463 -9.950565384940214 -1 0 0 I I #
coedge $-1 $448 $226 $335 $445 forward $331 $-1 #
vertex $-1 $227 $456 #
straight-curve $-1 -18.902906480625326 14.713715560486463 9.950565384940214 1 0 0 I I #
point $-1 -40.45851762774646 14.713715560486463 9.950565384940214 #
point $-1 -40.45851762774646 14.713715560486463 -9.950565384940214 #
plane-surface $-1 0 0 9.950565384940214 0 0 1 1 0 0 forward_v I I I I #
coedge $-1 $365 $364 $357 $457 forward $232 $-1 #
coedge $-1 $357 $234 $236 $361 reversed $137 $-1 #
coedge $-1 $234 $356 $355 $457 reversed $137 $-1 #
coedge $-1 $242 $237 $234 $359 forward $243 $-1 #
edge $-1 $362 -23.192525576712534 $458 -16.175369055079273 $358 $459 forward 7 unknown #
coedge $-1 $236 $235 $365 $460 reversed $85 $-1 #
edge $-1 $461 0 $362 11.659989164331796 $356 $462 forward 7 unknown #
vertex $-1 $238 $463 #
straight-curve $-1 -47.147094096366551 -5.206594626390606 9.9505653849402158 0 1 0 I I #
coedge $-1 $355 $239 $242 $369 reversed $232 $-1 #
coedge $-1 $239 $355 $360 $460 forward $232 $-1 #
vertex $-1 $240 $464 #
straight-curve $-1 -54.164250617999812 -14.71371556048646 32.916101096384971 0 0 1 I I #
straight-curve $-1 -54.164250617999812 -14.71371556048646 0.63848389564714125 -0.60181501223851219 0 -0.79863551827123203 I I #
edge $-1 $458 6.1126629450759644 $244 14.71371556048646 $364 $465 forward 7 unknown #
point $-1 -54.164250617999812 -14.71371556048646 9.950565384940214 #
point $-1 -47.147094096366551 -14.71371556048646 9.950565384940214 #
edge $-1 $466 1 $466 0 $247 $-1 forward 7 unknown #
vertex $-1 $248 $467 #
ellipse-curve $-1 -49.560610398492784 -12.256271956083461 4.4693362896706708 -0.79863551827123203 0 0.60181501223851219 0.60181501223851219 0 0.79863551827123203 1 I I #
point $-1 -50.053857344944667 -12.256271956083461 6.0931601585649116 #
edge $-1 $468 1 $468 0 $251 $-1 forward 7 unknown #
vertex $-1 $252 $469 #
ellipse-curve $-1 -49.560610398492784 -8.5701065494789628 4.4693362896706708 -0.79863551827123203 0 0.60181501223851219 0.60181501223851219 0 0.79863551827123203 1 I I #
point $-1 -50.053857344944667 -8.5701065494789628 6.0931601585649116 #
loop $-1 $-1 $263 $255 #
plane-surface $-1 54.164250617999812 0 0 -1 0 0 0 0 1 forward_v I I I I #
coedge $-1 $383 $258 $260 $387 reversed $159 $-1 #
coedge $-1 $258 $382 $470 $471 reversed $159 $-1 #
coedge $-1 $266 $261 $258 $385 forward $256 $-1 #
edge $-1 $388 18.597848318834046 $472 21.738791163055446 $384 $473 forward 7 unknown #
coedge $-1 $260 $259 $391 $474 reversed $99 $-1 #
edge $-1 $475 -108.32850123599964 $388 -103.54090934094755 $382 $476 forward 7 unknown #
vertex $-1 $262 $477 #
straight-curve $-1 51.023307773778413 1.4804018971115926 9.9505653849402051 0 -1 0 I I #
coedge $-1 $470 $263 $266 $395 reversed $380 $-1 #
coedge $-1 $263 $470 $386 $474 forward $380 $-1 #
vertex $-1 $264 $478 #
straight-curve $-1 54.164250617999812 7.1290549025550618 79.581886383860592 0 0 1 I I #
straight-curve $-1 -16.905639681983729 7.1290549025550618 88.093882467737643 0.65605901945558964 0 -0.75470958851134928 I I #
edge $-1 $472 -1.2074473141086912 $267 7.1290549025550618 $390 $479 forward 7 unknown #
point $-1 54.164250617999812 7.1290549025550618 9.950565384940214 #
point $-1 51.023307773778413 7.1290549025550618 9.9505653849402194 #
edge $-1 $480 1 $480 0 $270 $-1 forward 7 unknown #
vertex $-1 $271 $481 #
ellipse-curve $-1 51.839069607377745 1.174410462080953 7.4878856109471066 0.75470958851134928 0 0.65605901945558964 0.32802950972779482 0 -0.37735479425567464 1 I I #
point $-1 52.921808705616883 1.174410462080953 7.7665898361470216 #
edge $-1 $482 1 $482 0 $274 $-1 forward 7 unknown #
vertex $-1 $275 $483 #
ellipse-curve $-1 51.839069607377745 4.7471971263654176 7.4878856109471066 0.75470958851134928 0 0.65605901945558964 0.32802950972779482 0 -0.37735479425567464 1 I I #
point $-1 52.921808705616883 4.7471971263654176 7.7665898361470216 #
plane-surface $-1 54.164250617999812 0 0 -1 0 0 0 0 1 forward_v I I I I #
coedge $-1 $283 $281 $285 $411 reversed $181 $-1 #
edge $-1 $296 -9.950565384940214 $413 9.950565384940214 $295 $484 forward 7 unknown #
vertex $-1 $411 $485 #
straight-curve $-1 -54.164250617999812 -22.723958654916331 0 0 0 -1 I I #
edge $-1 $409 -22.723958654916331 $413 22.723958654916331 $407 $486 forward 7 unknown #
straight-curve $-1 0 -22.723958654916331 -9.950565384940214 -1 0 0 I I #
vertex $-1 $288 $487 #
straight-curve $-1 0 22.723958654916331 -9.950565384940214 1 0 0 I I #
point $-1 54.164250617999812 22.723958654916331 -9.950565384940214 #
point $-1 54.164250617999812 -22.723958654916331 -9.950565384940214 #
straight-curve $-1 -54.164250617999812 0 9.950565384940214 0 -1 0 I I #
point $-1 -54.164250617999812 22.723958654916331 9.950565384940214 #
point $-1 -54.164250617999812 -22.723958654916331 9.950565384940214 #
straight-curve $-1 54.164250617999812 -22.723958654916331 0 0 0 -1 I I #
straight-curve $-1 54.164250617999812 22.723958654916331 0 0 0 -1 I I #
loop $-1 $-1 $311 $305 #
plane-surface $-1 0 -22.723958654916331 0 0 1 0 0 0 1 forward_v I I I I #
coedge $-1 $322 $313 $309 $426 forward $306 $-1 #
edge $-1 $430 -13.364540101065632 $317 -5.3542970066357629 $308 $488 forward 7 unknown #
edge $-1 $318 5.3542970066357629 $429 13.364540101065632 $424 $489 forward 7 unknown #
coedge $-1 $320 $311 $325 $439 reversed $422 $-1 #
coedge $-1 $311 $320 $322 $437 reversed $422 $-1 #
vertex $-1 $437 $490 #
vertex $-1 $312 $491 #
straight-curve $-1 -35.153108294754844 -22.723958654916331 0 0 0 1 I I #
straight-curve $-1 -18.902906480625326 -14.713715560486461 -9.950565384940214 1 0 0 I I #
straight-curve $-1 -18.902906480625326 -14.713715560486461 9.950565384940214 -1 0 0 I I #
point $-1 -35.153108294754844 -14.713715560486461 9.950565384940214 #
point $-1 -35.153108294754844 -14.713715560486461 -9.950565384940214 #
straight-curve $-1 -40.45851762774646 -22.723958654916331 0 0 0 -1 I I #
edge $-1 $429 35.153108294754844 $323 40.45851762774646 $428 $492 forward 7 unknown #
point $-1 -40.45851762774646 -22.723958654916331 -9.950565384940214 #
edge $-1 $326 -40.45851762774646 $430 -35.153108294754844 $427 $493 forward 7 unknown #
point $-1 -40.45851762774646 -22.723958654916331 9.950565384940214 #
plane-surface $-1 0 22.723958654916331 0 0 -1 0 0 0 -1 forward_v I I I I #
coedge $-1 $333 $337 $342 $452 forward $216 $-1 #
edge $-1 $494 -13.364540101065632 $347 -5.3542970066357647 $333 $495 forward 7 unknown #
coedge $-1 $335 $334 $450 $496 reversed $129 $-1 #
edge $-1 $350 5.3542970066357647 $497 13.364540101065632 $349 $498 forward 7 unknown #
straight-curve $-1 -35.153108294754844 14.713715560486463 0 0 0 -1 I I #
straight-curve $-1 -40.45851762774646 9.3594185538506984 -9.950565384940214 0 1 0 I I #
coedge $-1 $339 $349 $341 $451 forward $331 $-1 #
straight-curve $-1 -40.45851762774646 9.3594185538506984 9.950565384940214 0 -1 0 I I #
coedge $-1 $342 $341 $444 $496 forward $343 $-1 #
edge $-1 $497 35.153108294754844 $345 40.45851762774646 $341 $499 forward 7 unknown #
edge $-1 $344 -40.45851762774646 $494 -35.153108294754844 $342 $500 forward 7 unknown #
point $-1 -40.45851762774646 22.723958654916331 -9.950565384940214 #
point $-1 -40.45851762774646 22.723958654916331 9.950565384940214 #
point $-1 -35.153108294754844 14.713715560486463 -9.950565384940214 #
point $-1 -35.153108294754844 14.713715560486463 9.950565384940214 #
edge $-1 $458 22.965535711444758 $461 32.277617200737829 $355 $501 forward 7 unknown #
vertex $-1 $369 $502 #
straight-curve $-1 -70.339619673079085 -6.1126629450759644 9.9505653849402123 -1 0 0 I I #
edge $-1 $461 0.90606831868535842 $366 9.5071209340958536 $365 $503 forward 7 unknown #
vertex $-1 $460 $504 #
straight-curve $-1 -54.164250617999812 -6.1126629450759644 0.63848389564714125 0.60181501223851219 0 0.79863551827123203 I I #
point $-1 -47.147094096366551 -6.1126629450759644 9.950565384940214 #
point $-1 -54.164250617999812 -14.71371556048646 0.63848389564714125 #
straight-curve $-1 -54.164250617999812 0 9.950565384940214 0 -1 0 I I #
vertex $-1 $372 $505 #
point $-1 -48.958795386254273 -12.256271956083461 5.2679718079419029 #
vertex $-1 $376 $506 #
point $-1 -48.958795386254273 -8.5701065494789628 5.2679718079419029 #
coedge $-1 $391 $390 $383 $471 forward $380 $-1 #
edge $-1 $472 69.631320998920373 $475 73.244562507995411 $470 $507 forward 7 unknown #
vertex $-1 $395 $508 #
straight-curve $-1 32.425459454944367 -1.2074473141086912 9.9505653849402194 1 0 0 I I #
edge $-1 $475 -2.6878492112202839 $392 5.6486530054434692 $391 $509 forward 7 unknown #
vertex $-1 $474 $510 #
straight-curve $-1 -16.905639681983729 -1.2074473141086912 88.093882467737643 -0.65605901945558964 0 0.75470958851134928 I I #
point $-1 51.023307773778413 -1.2074473141086912 9.9505653849402194 #
point $-1 54.164250617999812 7.1290549025550618 6.3373238758651809 #
straight-curve $-1 54.164250617999812 0 9.950565384940214 0 1 0 I I #
vertex $-1 $398 $511 #
point $-1 52.167099117105536 1.174410462080953 7.1105308166914316 #
vertex $-1 $402 $512 #
point $-1 52.167099117105536 4.7471971263654176 7.1105308166914316 #
straight-curve $-1 -54.164250617999812 22.723958654916331 0 0 0 -1 I I #
point $-1 -54.164250617999812 -22.723958654916331 -9.950565384940214 #
straight-curve $-1 -54.164250617999812 0 -9.950565384940214 0 1 0 I I #
point $-1 -54.164250617999812 22.723958654916331 -9.950565384940214 #
straight-curve $-1 -35.153108294754844 -9.3594185538506984 9.950565384940214 0 1 0 I I #
straight-curve $-1 -35.153108294754844 -9.3594185538506984 -9.950565384940214 0 -1 0 I I #
point $-1 -35.153108294754844 -22.723958654916331 -9.950565384940214 #
point $-1 -35.153108294754844 -22.723958654916331 9.950565384940214 #
straight-curve $-1 0 -22.723958654916331 -9.950565384940214 -1 0 0 I I #
straight-curve $-1 0 -22.723958654916331 9.950565384940214 1 0 0 I I #
vertex $-1 $496 $513 #
straight-curve $-1 -35.153108294754844 9.3594185538506984 -9.950565384940214 0 -1 0 I I #
edge $-1 $497 -9.950565384940214 $494 9.950565384940214 $450 $514 forward 7 unknown #
vertex $-1 $451 $515 #
straight-curve $-1 -35.153108294754844 9.3594185538506984 9.950565384940214 0 1 0 I I #
straight-curve $-1 0 22.723958654916331 9.950565384940214 -1 0 0 I I #
straight-curve $-1 0 22.723958654916331 -9.950565384940214 1 0 0 I I #
straight-curve $-1 -54.164250617999812 -6.1126629450759644 32.916101096384971 0 0 -1 I I #
point $-1 -54.164250617999812 -6.1126629450759644 9.950565384940214 #
straight-curve $-1 -54.164250617999812 -5.206594626390606 0.63848389564713848 0 -1 0 I I #
point $-1 -54.164250617999812 -6.1126629450759644 0.63848389564714125 #
point $-1 -48.761974880221558 -12.256271956083461 3.8675212774321581 #
point $-1 -48.761974880221558 -8.5701065494789628 3.8675212774321581 #
straight-curve $-1 54.164250617999812 -1.2074473141086912 79.581886383860592 0 0 -1 I I #
point $-1 54.164250617999812 -1.2074473141086912 9.950565384940214 #
straight-curve $-1 54.164250617999812 1.4804018971115926 6.3373238758651809 0 1 0 I I #
point $-1 54.164250617999812 -1.2074473141086912 6.3373238758651809 #
point $-1 51.461714813122065 1.174410462080953 7.1598561012193116 #
point $-1 51.461714813122065 4.7471971263654176 7.1598561012193116 #
point $-1 -35.153108294754844 22.723958654916331 -9.950565384940214 #
straight-curve $-1 -35.153108294754844 22.723958654916331 0 0 0 -1 I I #
point $-1 -35.153108294754844 22.723958654916331 9.950565384940214 #
End-of-ACIS-data 