500 0 17 0           
7 Unknown 11 ACIS 5.0 NT 24 Fri Mar 26 19:01:21 1999 
-1 9.9999999999999995e-007 1e-010 
body $-1 $17 $-1 $18 #
body $-1 $19 $-1 $20 #
body $-1 $21 $-1 $22 #
body $-1 $23 $-1 $24 #
body $-1 $25 $-1 $26 #
body $-1 $27 $-1 $28 #
body $-1 $29 $-1 $30 #
body $-1 $31 $-1 $32 #
body $-1 $33 $-1 $34 #
body $-1 $35 $-1 $36 #
body $-1 $37 $-1 $38 #
body $-1 $39 $-1 $40 #
body $-1 $41 $-1 $42 #
body $-1 $43 $-1 $44 #
body $-1 $45 $-1 $46 #
body $-1 $47 $-1 $48 #
body $-1 $49 $-1 $50 #
lump $-1 $-1 $51 $0 #
transform $-1 1 0 0 0 1 0 0 0 1 52.908108767967775 23.375996345580099 10.042825127575588 1 rotate no_reflect no_shear #
lump $-1 $-1 $52 $1 #
transform $-1 1 0 0 0 1 0 0 0 1 52.908108767967775 23.375996345580099 10.042825127575588 1 rotate no_reflect no_shear #
lump $-1 $-1 $53 $2 #
transform $-1 1 0 0 0 1 0 0 0 1 52.908108767967775 23.375996345580099 10.042825127575588 1 rotate no_reflect no_shear #
lump $-1 $-1 $54 $3 #
transform $-1 1 0 0 0 1 0 0 0 1 52.908108767967775 23.375996345580099 10.042825127575588 1 rotate no_reflect no_shear #
lump $-1 $-1 $55 $4 #
transform $-1 1 0 0 0 1 0 0 0 1 52.908108767967775 23.375996345580099 10.042825127575588 1 rotate no_reflect no_shear #
lump $-1 $-1 $56 $5 #
transform $-1 1 0 0 0 1 0 0 0 1 52.908108767967775 23.375996345580099 10.042825127575588 1 rotate no_reflect no_shear #
lump $-1 $-1 $57 $6 #
transform $-1 1 0 0 0 1 0 0 0 1 52.908108767967775 23.375996345580099 10.042825127575588 1 rotate no_reflect no_shear #
lump $-1 $-1 $58 $7 #
transform $-1 1 0 0 0 1 0 0 0 1 52.908108767967775 23.375996345580099 10.042825127575588 1 rotate no_reflect no_shear #
lump $-1 $-1 $59 $8 #
transform $-1 1 0 0 0 1 0 0 0 1 52.908108767967775 23.375996345580099 10.042825127575588 1 rotate no_reflect no_shear #
lump $-1 $-1 $60 $9 #
transform $-1 1 0 0 0 1 0 0 0 1 52.908108767967775 23.375996345580099 10.042825127575588 1 rotate no_reflect no_shear #
lump $-1 $-1 $61 $10 #
transform $-1 1 0 0 0 1 0 0 0 1 52.908108767967775 23.375996345580099 10.042825127575588 1 rotate no_reflect no_shear #
lump $-1 $-1 $62 $11 #
transform $-1 1 0 0 0 1 0 0 0 1 52.908108767967775 23.375996345580099 10.042825127575588 1 rotate no_reflect no_shear #
lump $-1 $-1 $63 $12 #
transform $-1 1 0 0 0 1 0 0 0 1 52.908108767967775 23.375996345580099 10.042825127575588 1 rotate no_reflect no_shear #
lump $-1 $-1 $64 $13 #
transform $-1 1 0 0 0 1 0 0 0 1 52.908108767967775 23.375996345580099 10.042825127575588 1 rotate no_reflect no_shear #
lump $-1 $-1 $65 $14 #
transform $-1 1 0 0 0 1 0 0 0 1 52.908108767967775 23.375996345580099 10.042825127575588 1 rotate no_reflect no_shear #
lump $-1 $-1 $66 $15 #
transform $-1 1 0 0 0 1 0 0 0 1 52.908108767967775 23.375996345580099 10.042825127575588 1 rotate no_reflect no_shear #
lump $-1 $-1 $67 $16 #
transform $-1 1 0 0 0 1 0 0 0 1 52.908108767967775 23.375996345580099 10.042825127575588 1 rotate no_reflect no_shear #
shell $-1 $-1 $-1 $68 $-1 $17 #
shell $-1 $-1 $-1 $69 $-1 $19 #
shell $-1 $-1 $-1 $70 $-1 $21 #
shell $-1 $-1 $-1 $71 $-1 $23 #
shell $-1 $-1 $-1 $72 $-1 $25 #
shell $-1 $-1 $-1 $73 $-1 $27 #
shell $-1 $-1 $-1 $74 $-1 $29 #
shell $-1 $-1 $-1 $75 $-1 $31 #
shell $-1 $-1 $-1 $76 $-1 $33 #
shell $-1 $-1 $-1 $77 $-1 $35 #
shell $-1 $-1 $-1 $78 $-1 $37 #
shell $-1 $-1 $-1 $79 $-1 $39 #
shell $-1 $-1 $-1 $80 $-1 $41 #
shell $-1 $-1 $-1 $81 $-1 $43 #
shell $-1 $-1 $-1 $82 $-1 $45 #
shell $-1 $-1 $-1 $83 $-1 $47 #
shell $-1 $-1 $-1 $84 $-1 $49 #
face $-1 $85 $86 $51 $-1 $87 forward single #
face $-1 $88 $89 $52 $-1 $90 reversed single #
face $-1 $91 $92 $53 $-1 $93 reversed single #
face $-1 $94 $95 $54 $-1 $96 forward single #
face $-1 $97 $98 $55 $-1 $99 forward single #
face $-1 $100 $101 $56 $-1 $102 reversed single #
face $-1 $103 $104 $57 $-1 $105 forward single #
face $-1 $106 $107 $58 $-1 $108 forward single #
face $-1 $109 $110 $59 $-1 $111 reversed single #
face $-1 $112 $113 $60 $-1 $114 forward single #
face $-1 $115 $116 $61 $-1 $117 forward single #
face $-1 $118 $119 $62 $-1 $120 reversed single #
face $-1 $121 $122 $63 $-1 $123 forward single #
face $-1 $124 $125 $64 $-1 $126 forward single #
face $-1 $127 $128 $65 $-1 $129 reversed single #
face $-1 $130 $131 $66 $-1 $132 forward single #
face $-1 $133 $134 $67 $-1 $135 forward single #
face $-1 $136 $137 $51 $-1 $138 reversed single #
loop $-1 $-1 $139 $68 #
plane-surface $-1 0 0 10.042825127575588 0 0 1 1 0 0 forward_v I I I I #
face $-1 $140 $141 $52 $-1 $142 reversed single #
loop $-1 $-1 $143 $69 #
plane-surface $-1 -47.033759467599573 -7.8477018809149373 0 0 1 0 0 0 1 forward_v I I I I #
face $-1 $144 $145 $53 $-1 $146 reversed single #
loop $-1 $-1 $147 $70 #
plane-surface $-1 -41.159410167231378 53.635178557476983 115.35052725860838 1 0 0 0 -0.62932039886446345 -0.77714595512881146 forward_v I I I I #
face $-1 $148 $149 $54 $-1 $150 forward single #
loop $-1 $151 $152 $71 #
cone-surface $-1 -38.302799655822966 18.923146474153715 6.2105143724321339 0 -0.62932039886446345 -0.77714595512881146 1 0 0 1 I I 0 1 1 forward I I I I #
face $-1 $153 $154 $55 $-1 $155 forward single #
loop $-1 $156 $157 $72 #
cone-surface $-1 -34.017883888710344 18.923146474153715 6.2105143724321339 0 -0.62932039886446345 -0.77714595512881146 1 0 0 1 I I 0 1 1 forward I I I I #
face $-1 $158 $159 $56 $-1 $160 reversed single #
loop $-1 $-1 $161 $73 #
plane-surface $-1 -25.174281580731805 -94.180866999562909 84.979765547565137 -1 0 0 0 -0.66913061440640931 0.74314481823134659 forward_v I I I I #
face $-1 $162 $163 $57 $-1 $164 forward single #
loop $-1 $165 $166 $74 #
cone-surface $-1 -33.065445631461273 -20.15013516785821 6.8920251478208083 0 0.66913061440640931 -0.74314481823134659 1 0 0 1 I I 0 1 1 forward I I I I #
face $-1 $167 $168 $58 $-1 $169 forward single #
loop $-1 $170 $171 $75 #
cone-surface $-1 -28.330747201023591 -20.15013516785821 6.8920251478208083 0 0.66913061440640931 -0.74314481823134659 1 0 0 1 I I 0 1 1 forward I I I I #
face $-1 $172 $173 $59 $-1 $174 reversed single #
loop $-1 $-1 $175 $76 #
plane-surface $-1 -0.79265110299138541 -94.180866999562909 84.979765547565137 -1 0 0 0 -0.66913061440640931 0.74314481823134659 forward_v I I I I #
face $-1 $176 $177 $60 $-1 $178 forward single #
loop $-1 $179 $180 $77 #
cone-surface $-1 -8.6838151537208574 -20.15013516785821 6.8920251478208083 0 0.66913061440640931 -0.74314481823134659 1 0 0 1 I I 0 1 1 forward I I I I #
face $-1 $181 $182 $61 $-1 $183 forward single #
loop $-1 $184 $185 $78 #
cone-surface $-1 -3.9491167232831685 -20.15013516785821 6.8920251478208083 0 0.66913061440640931 -0.74314481823134659 1 0 0 1 I I 0 1 1 forward I I I I #
face $-1 $186 $187 $62 $-1 $188 reversed single #
loop $-1 $-1 $189 $79 #
plane-surface $-1 23.588979374749037 -94.180866999562909 84.979765547565137 -1 0 0 0 -0.66913061440640931 0.74314481823134659 forward_v I I I I #
face $-1 $190 $191 $63 $-1 $192 forward single #
loop $-1 $193 $194 $80 #
cone-surface $-1 15.697815324019558 -20.15013516785821 6.8920251478208083 0 0.66913061440640931 -0.74314481823134659 1 0 0 1 I I 0 1 1 forward I I I I #
face $-1 $195 $196 $64 $-1 $197 forward single #
loop $-1 $198 $199 $81 #
cone-surface $-1 20.432513754457247 -20.15013516785821 6.8920251478208083 0 0.66913061440640931 -0.74314481823134659 1 0 0 1 I I 0 1 1 forward I I I I #
face $-1 $200 $201 $65 $-1 $202 reversed single #
loop $-1 $-1 $203 $82 #
plane-surface $-1 47.970609852489453 -94.180866999562909 84.979765547565137 -1 0 0 0 -0.66913061440640931 0.74314481823134659 forward_v I I I I #
face $-1 $204 $205 $66 $-1 $206 forward single #
loop $-1 $207 $208 $83 #
cone-surface $-1 40.079445801759974 -20.15013516785821 6.8920251478208083 0 0.66913061440640931 -0.74314481823134659 1 0 0 1 I I 0 1 1 forward I I I I #
face $-1 $209 $210 $67 $-1 $211 forward single #
loop $-1 $212 $213 $84 #
cone-surface $-1 44.814144232197663 -20.15013516785821 6.8920251478208083 0 0.66913061440640931 -0.74314481823134659 1 0 0 1 I I 0 1 1 forward I I I I #
face $-1 $214 $215 $51 $-1 $216 reversed single #
loop $-1 $-1 $217 $85 #
plane-surface $-1 0 0 -10.042825127575588 0 0 1 1 0 0 forward_v I I I I #
coedge $-1 $218 $219 $220 $221 forward $86 $-1 #
face $-1 $222 $223 $52 $-1 $224 reversed single #
loop $-1 $-1 $225 $88 #
plane-surface $-1 -47.033759467599573 -4.5280864459721242 0 0 -1 0 0 0 -1 forward_v I I I I #
coedge $-1 $226 $227 $228 $229 reversed $89 $-1 #
face $-1 $230 $231 $53 $-1 $232 reversed single #
loop $-1 $-1 $233 $91 #
plane-surface $-1 -36.160341772266655 -12.95712566856681 33.115881813525661 0 0.62932039886446345 0.77714595512881146 1 0 0 forward_v I I I I #
coedge $-1 $234 $235 $236 $237 reversed $92 $-1 #
face $-1 $-1 $238 $54 $-1 $239 forward single #
loop $-1 $240 $241 $94 #
cone-surface $-1 -38.302799655822966 18.075771656254624 5.1640936408039497 0 -0.62932039886446345 -0.77714595512881146 0.5 0 0 1 I I -0.70710678118654746 0.70710678118654746 0.5 forward I I I I #
loop $-1 $-1 $242 $71 #
coedge $-1 $152 $152 $243 $244 reversed $95 $-1 #
face $-1 $-1 $245 $55 $-1 $246 forward single #
loop $-1 $247 $248 $97 #
cone-surface $-1 -34.017883888710344 18.075771656254624 5.1640936408039497 0 -0.62932039886446345 -0.77714595512881146 0.5 0 0 1 I I -0.70710678118654746 0.70710678118654746 0.5 forward I I I I #
loop $-1 $-1 $249 $72 #
coedge $-1 $157 $157 $250 $251 reversed $98 $-1 #
face $-1 $252 $253 $56 $-1 $254 reversed single #
loop $-1 $-1 $255 $100 #
plane-surface $-1 -30.698096416242432 -23.375996345580091 6.3429918008936852 0 -0.66913061440640931 0.74314481823134659 1 0 0 forward_v I I I I #
coedge $-1 $256 $257 $258 $259 reversed $101 $-1 #
face $-1 $-1 $260 $57 $-1 $261 forward single #
loop $-1 $262 $263 $103 #
cone-surface $-1 -33.065445631461273 -18.644249235888097 5.2195694222913094 0 0.66913061440640931 -0.74314481823134659 0.5 0 0 1 I I -0.70710678118654746 0.70710678118654746 0.5 forward I I I I #
loop $-1 $-1 $264 $74 #
coedge $-1 $166 $166 $265 $266 reversed $104 $-1 #
face $-1 $-1 $267 $58 $-1 $268 forward single #
loop $-1 $269 $270 $106 #
cone-surface $-1 -28.330747201023591 -18.644249235888097 5.2195694222913094 0 0.66913061440640931 -0.74314481823134659 0.5 0 0 1 I I -0.70710678118654746 0.70710678118654746 0.5 forward I I I I #
loop $-1 $-1 $271 $75 #
coedge $-1 $171 $171 $272 $273 reversed $107 $-1 #
face $-1 $274 $275 $59 $-1 $276 reversed single #
loop $-1 $-1 $277 $109 #
plane-surface $-1 -6.316465938502013 -23.375996345580091 6.3429918008936852 0 -0.66913061440640931 0.74314481823134659 1 0 0 forward_v I I I I #
coedge $-1 $278 $279 $280 $281 reversed $110 $-1 #
face $-1 $-1 $282 $60 $-1 $283 forward single #
loop $-1 $284 $285 $112 #
cone-surface $-1 -8.6838151537208574 -18.644249235888097 5.2195694222913094 0 0.66913061440640931 -0.74314481823134659 0.5 0 0 1 I I -0.70710678118654746 0.70710678118654746 0.5 forward I I I I #
loop $-1 $-1 $286 $77 #
coedge $-1 $180 $180 $287 $288 reversed $113 $-1 #
face $-1 $-1 $289 $61 $-1 $290 forward single #
loop $-1 $291 $292 $115 #
cone-surface $-1 -3.9491167232831685 -18.644249235888097 5.2195694222913094 0 0.66913061440640931 -0.74314481823134659 0.5 0 0 1 I I -0.70710678118654746 0.70710678118654746 0.5 forward I I I I #
loop $-1 $-1 $293 $78 #
coedge $-1 $185 $185 $294 $295 reversed $116 $-1 #
face $-1 $296 $297 $62 $-1 $298 reversed single #
loop $-1 $-1 $299 $118 #
plane-surface $-1 18.06516453923841 -23.375996345580091 6.3429918008936852 0 -0.66913061440640931 0.74314481823134659 1 0 0 forward_v I I I I #
coedge $-1 $300 $301 $302 $303 reversed $119 $-1 #
face $-1 $-1 $304 $63 $-1 $305 forward single #
loop $-1 $306 $307 $121 #
cone-surface $-1 15.697815324019558 -18.644249235888097 5.2195694222913094 0 0.66913061440640931 -0.74314481823134659 0.5 0 0 1 I I -0.70710678118654746 0.70710678118654746 0.5 forward I I I I #
loop $-1 $-1 $308 $80 #
coedge $-1 $194 $194 $309 $310 reversed $122 $-1 #
face $-1 $-1 $311 $64 $-1 $312 forward single #
loop $-1 $313 $314 $124 #
cone-surface $-1 20.432513754457247 -18.644249235888097 5.2195694222913094 0 0.66913061440640931 -0.74314481823134659 0.5 0 0 1 I I -0.70710678118654746 0.70710678118654746 0.5 forward I I I I #
loop $-1 $-1 $315 $81 #
coedge $-1 $199 $199 $316 $317 reversed $125 $-1 #
face $-1 $318 $319 $65 $-1 $320 reversed single #
loop $-1 $-1 $321 $127 #
plane-surface $-1 42.446795016978825 -23.375996345580091 6.3429918008936852 0 -0.66913061440640931 0.74314481823134659 1 0 0 forward_v I I I I #
coedge $-1 $322 $323 $324 $325 reversed $128 $-1 #
face $-1 $-1 $326 $66 $-1 $327 forward single #
loop $-1 $328 $329 $130 #
cone-surface $-1 40.079445801759974 -18.644249235888097 5.2195694222913094 0 0.66913061440640931 -0.74314481823134659 0.5 0 0 1 I I -0.70710678118654746 0.70710678118654746 0.5 forward I I I I #
loop $-1 $-1 $330 $83 #
coedge $-1 $208 $208 $331 $332 reversed $131 $-1 #
face $-1 $-1 $333 $67 $-1 $334 forward single #
loop $-1 $335 $336 $133 #
cone-surface $-1 44.814144232197663 -18.644249235888097 5.2195694222913094 0 0.66913061440640931 -0.74314481823134659 0.5 0 0 1 I I -0.70710678118654746 0.70710678118654746 0.5 forward I I I I #
loop $-1 $-1 $337 $84 #
coedge $-1 $213 $213 $338 $339 reversed $134 $-1 #
face $-1 $340 $341 $51 $-1 $342 reversed single #
loop $-1 $-1 $343 $136 #
plane-surface $-1 0 -23.375996345580099 0 0 1 0 0 0 1 forward_v I I I I #
coedge $-1 $344 $345 $346 $347 forward $137 $-1 #
coedge $-1 $348 $139 $349 $350 forward $86 $-1 #
coedge $-1 $139 $348 $351 $352 forward $86 $-1 #
coedge $-1 $353 $354 $139 $221 reversed $355 $-1 #
edge $-1 $356 -23.375996345580099 $357 23.375996345580099 $220 $358 forward 7 unknown #
face $-1 $359 $360 $52 $-1 $361 reversed single #
loop $-1 $-1 $362 $140 #
plane-surface $-1 -41.159410167231371 -6.1878941634435307 0 -1 0 0 0 0 1 forward_v I I I I #
coedge $-1 $363 $364 $365 $366 forward $141 $-1 #
coedge $-1 $367 $143 $368 $369 reversed $89 $-1 #
coedge $-1 $143 $367 $370 $371 reversed $89 $-1 #
coedge $-1 $372 $373 $143 $229 forward $374 $-1 #
edge $-1 $375 -10.042825127575588 $376 10.042825127575588 $228 $377 forward 7 unknown #
face $-1 $378 $379 $53 $-1 $380 reversed single #
loop $-1 $-1 $381 $144 #
plane-surface $-1 -31.161273377301931 53.635178557476983 115.35052725860838 -1 0 0 0 0.62932039886446345 0.77714595512881146 forward_v I I I I #
coedge $-1 $382 $383 $384 $385 reversed $145 $-1 #
coedge $-1 $235 $147 $386 $387 reversed $92 $-1 #
coedge $-1 $147 $234 $382 $388 reversed $92 $-1 #
coedge $-1 $384 $389 $147 $237 forward $390 $-1 #
edge $-1 $391 3.4415929331583932 $392 11.281863439077455 $236 $393 forward 7 unknown #
loop $-1 $-1 $243 $148 #
plane-surface $-1 -36.160341772266655 -12.95712566856681 33.115881813525661 0 0.62932039886446345 0.77714595512881146 1 0 0 forward_v I I I I #
loop $-1 $-1 $394 $94 #
coedge $-1 $241 $241 $242 $395 reversed $149 $-1 #
coedge $-1 $242 $242 $241 $395 forward $151 $-1 #
coedge $-1 $243 $243 $152 $244 forward $238 $-1 #
edge $-1 $396 1.6430794705136253e-015 $396 6.2831853071796022 $243 $397 forward 7 unknown #
loop $-1 $-1 $250 $153 #
plane-surface $-1 -36.160341772266655 -12.95712566856681 33.115881813525661 0 0.62932039886446345 0.77714595512881146 1 0 0 forward_v I I I I #
loop $-1 $-1 $398 $97 #
coedge $-1 $248 $248 $249 $399 reversed $154 $-1 #
coedge $-1 $249 $249 $248 $399 forward $156 $-1 #
coedge $-1 $250 $250 $157 $251 forward $245 $-1 #
edge $-1 $400 1.6430794705136253e-015 $400 6.2831853071796022 $250 $401 forward 7 unknown #
face $-1 $402 $403 $56 $-1 $404 forward single #
loop $-1 $-1 $405 $158 #
plane-surface $-1 -36.221911251753056 -94.180866999562909 84.979765547565137 1 0 0 0 0.66913061440640931 -0.74314481823134659 forward_v I I I I #
coedge $-1 $406 $407 $408 $409 reversed $159 $-1 #
coedge $-1 $257 $161 $410 $411 reversed $101 $-1 #
coedge $-1 $161 $256 $406 $412 reversed $101 $-1 #
coedge $-1 $408 $413 $161 $259 forward $403 $-1 #
edge $-1 $414 23.714437154201356 $415 27.823518260111324 $258 $416 forward 7 unknown #
loop $-1 $-1 $265 $162 #
plane-surface $-1 -30.698096416242432 -23.375996345580091 6.3429918008936852 0 -0.66913061440640931 0.74314481823134659 1 0 0 forward_v I I I I #
loop $-1 $-1 $417 $103 #
coedge $-1 $263 $263 $264 $418 reversed $163 $-1 #
coedge $-1 $264 $264 $263 $418 forward $165 $-1 #
coedge $-1 $265 $265 $166 $266 forward $260 $-1 #
edge $-1 $419 1.1886147433529169e-015 $419 6.2831853071796013 $265 $420 forward 7 unknown #
loop $-1 $-1 $272 $167 #
plane-surface $-1 -30.698096416242432 -23.375996345580091 6.3429918008936852 0 -0.66913061440640931 0.74314481823134659 1 0 0 forward_v I I I I #
loop $-1 $-1 $421 $106 #
coedge $-1 $270 $270 $271 $422 reversed $168 $-1 #
coedge $-1 $271 $271 $270 $422 forward $170 $-1 #
coedge $-1 $272 $272 $171 $273 forward $267 $-1 #
edge $-1 $423 1.1886147433529169e-015 $423 6.2831853071796013 $272 $424 forward 7 unknown #
face $-1 $425 $426 $59 $-1 $427 reversed single #
loop $-1 $-1 $428 $172 #
plane-surface $-1 -11.840280774012641 -94.180866999562909 84.979765547565137 1 0 0 0 0.66913061440640931 -0.74314481823134659 forward_v I I I I #
coedge $-1 $429 $430 $431 $432 reversed $173 $-1 #
coedge $-1 $279 $175 $433 $434 reversed $110 $-1 #
coedge $-1 $175 $278 $429 $435 reversed $110 $-1 #
coedge $-1 $431 $436 $175 $281 forward $437 $-1 #
edge $-1 $438 23.714437154201356 $439 27.823518260111324 $280 $440 forward 7 unknown #
loop $-1 $-1 $287 $176 #
plane-surface $-1 -6.316465938502013 -23.375996345580091 6.3429918008936852 0 -0.66913061440640931 0.74314481823134659 1 0 0 forward_v I I I I #
loop $-1 $-1 $441 $112 #
coedge $-1 $285 $285 $286 $442 reversed $177 $-1 #
coedge $-1 $286 $286 $285 $442 forward $179 $-1 #
coedge $-1 $287 $287 $180 $288 forward $282 $-1 #
edge $-1 $443 1.1886147433529169e-015 $443 6.2831853071796013 $287 $444 forward 7 unknown #
loop $-1 $-1 $294 $181 #
plane-surface $-1 -6.316465938502013 -23.375996345580091 6.3429918008936852 0 -0.66913061440640931 0.74314481823134659 1 0 0 forward_v I I I I #
loop $-1 $-1 $445 $115 #
coedge $-1 $292 $292 $293 $446 reversed $182 $-1 #
coedge $-1 $293 $293 $292 $446 forward $184 $-1 #
coedge $-1 $294 $294 $185 $295 forward $289 $-1 #
edge $-1 $447 1.1886147433529169e-015 $447 6.2831853071796013 $294 $448 forward 7 unknown #
face $-1 $449 $450 $62 $-1 $451 reversed single #
loop $-1 $-1 $452 $186 #
plane-surface $-1 12.541349703727782 -94.180866999562909 84.979765547565137 1 0 0 0 0.66913061440640931 -0.74314481823134659 forward_v I I I I #
coedge $-1 $453 $454 $455 $456 reversed $187 $-1 #
coedge $-1 $301 $189 $457 $458 reversed $119 $-1 #
coedge $-1 $189 $300 $453 $459 reversed $119 $-1 #
coedge $-1 $455 $460 $189 $303 forward $461 $-1 #
edge $-1 $462 23.714437154201356 $463 27.823518260111324 $302 $464 forward 7 unknown #
loop $-1 $-1 $309 $190 #
plane-surface $-1 18.06516453923841 -23.375996345580091 6.3429918008936852 0 -0.66913061440640931 0.74314481823134659 1 0 0 forward_v I I I I #
loop $-1 $-1 $465 $121 #
coedge $-1 $307 $307 $308 $466 reversed $191 $-1 #
coedge $-1 $308 $308 $307 $466 forward $193 $-1 #
coedge $-1 $309 $309 $194 $310 forward $304 $-1 #
edge $-1 $467 1.1886147433529169e-015 $467 6.2831853071796013 $309 $468 forward 7 unknown #
loop $-1 $-1 $316 $195 #
plane-surface $-1 18.06516453923841 -23.375996345580091 6.3429918008936852 0 -0.66913061440640931 0.74314481823134659 1 0 0 forward_v I I I I #
loop $-1 $-1 $469 $124 #
coedge $-1 $314 $314 $315 $470 reversed $196 $-1 #
coedge $-1 $315 $315 $314 $470 forward $198 $-1 #
coedge $-1 $316 $316 $199 $317 forward $311 $-1 #
edge $-1 $471 1.1886147433529169e-015 $471 6.2831853071796013 $316 $472 forward 7 unknown #
face $-1 $473 $474 $65 $-1 $475 reversed single #
loop $-1 $-1 $476 $200 #
plane-surface $-1 36.922980181468198 -94.180866999562909 84.979765547565137 1 0 0 0 0.66913061440640931 -0.74314481823134659 forward_v I I I I #
coedge $-1 $477 $478 $479 $480 reversed $201 $-1 #
coedge $-1 $323 $203 $481 $482 reversed $128 $-1 #
coedge $-1 $203 $322 $477 $483 reversed $128 $-1 #
coedge $-1 $479 $484 $203 $325 forward $485 $-1 #
edge $-1 $486 23.714437154201356 $487 27.823518260111324 $324 $488 forward 7 unknown #
loop $-1 $-1 $331 $204 #
plane-surface $-1 42.446795016978825 -23.375996345580091 6.3429918008936852 0 -0.66913061440640931 0.74314481823134659 1 0 0 forward_v I I I I #
loop $-1 $-1 $489 $130 #
coedge $-1 $329 $329 $330 $490 reversed $205 $-1 #
coedge $-1 $330 $330 $329 $490 forward $207 $-1 #
coedge $-1 $331 $331 $208 $332 forward $326 $-1 #
edge $-1 $491 1.1886147433529169e-015 $491 6.2831853071796013 $331 $492 forward 7 unknown #
loop $-1 $-1 $338 $209 #
plane-surface $-1 42.446795016978825 -23.375996345580091 6.3429918008936852 0 -0.66913061440640931 0.74314481823134659 1 0 0 forward_v I I I I #
loop $-1 $-1 $493 $133 #
coedge $-1 $336 $336 $337 $494 reversed $210 $-1 #
coedge $-1 $337 $337 $336 $494 forward $212 $-1 #
coedge $-1 $338 $338 $213 $339 forward $333 $-1 #
edge $-1 $495 1.1886147433529169e-015 $495 6.2831853071796013 $338 $496 forward 7 unknown #
face $-1 $497 $498 $51 $-1 $499 reversed single #
loop $-1 $-1 $500 $214 #
plane-surface $-1 -52.908108767967775 0 0 1 0 0 0 0 -1 forward_v I I I I #
coedge $-1 $501 $351 $502 $503 forward $215 $-1 #
coedge $-1 $504 $217 $501 $505 forward $137 $-1 #
coedge $-1 $217 $504 $506 $507 forward $137 $-1 #
coedge $-1 $354 $353 $217 $347 reversed $355 $-1 #
edge $-1 $508 -23.375996345580099 $509 23.375996345580099 $346 $510 forward 7 unknown #
coedge $-1 $219 $218 $511 $512 forward $86 $-1 #
coedge $-1 $513 $514 $218 $350 reversed $498 $-1 #
edge $-1 $357 -52.908108767967775 $515 52.908108767967775 $349 $516 forward 7 unknown #
coedge $-1 $343 $517 $219 $352 reversed $215 $-1 #
edge $-1 $518 -52.908108767967775 $356 52.908108767967775 $351 $519 forward 7 unknown #
coedge $-1 $346 $220 $517 $520 forward $355 $-1 #
coedge $-1 $220 $346 $513 $521 reversed $355 $-1 #
loop $-1 $-1 $353 $497 #
vertex $-1 $221 $522 #
vertex $-1 $221 $523 #
straight-curve $-1 52.908108767967775 0 10.042825127575588 0 1 0 I I #
face $-1 $524 $525 $52 $-1 $526 forward single #
loop $-1 $-1 $527 $222 #
plane-surface $-1 0 0 -10.042825127575588 0 0 1 1 0 0 forward_v I I I I #
coedge $-1 $528 $529 $367 $530 forward $223 $-1 #
coedge $-1 $531 $225 $527 $532 reversed $141 $-1 #
coedge $-1 $225 $531 $533 $534 reversed $141 $-1 #
coedge $-1 $529 $528 $225 $366 reversed $223 $-1 #
edge $-1 $535 -10.042825127575588 $536 10.042825127575588 $365 $537 forward 7 unknown #
coedge $-1 $227 $226 $362 $530 reversed $89 $-1 #
coedge $-1 $538 $539 $226 $369 forward $360 $-1 #
edge $-1 $540 17.642530433431585 $375 29.391229034167988 $368 $541 forward 7 unknown #
coedge $-1 $542 $543 $227 $371 forward $525 $-1 #
edge $-1 $376 -29.391229034167988 $544 -17.642530433431585 $370 $545 forward 7 unknown #
coedge $-1 $546 $228 $543 $547 reversed $374 $-1 #
coedge $-1 $228 $546 $538 $548 reversed $374 $-1 #
loop $-1 $-1 $546 $524 #
vertex $-1 $548 $549 #
vertex $-1 $229 $550 #
straight-curve $-1 -52.908108767967775 -7.8477018809149373 0 0 0 1 I I #
face $-1 $-1 $390 $53 $-1 $551 forward single #
loop $-1 $-1 $552 $230 #
plane-surface $-1 0 23.375996345580099 0 0 -1 0 0 0 -1 forward_v I I I I #
coedge $-1 $553 $554 $555 $556 reversed $231 $-1 #
coedge $-1 $557 $233 $235 $388 forward $145 $-1 #
coedge $-1 $233 $557 $553 $558 forward $145 $-1 #
coedge $-1 $555 $236 $233 $385 forward $390 $-1 #
edge $-1 $392 -23.079239281098051 $559 -13.081102491168604 $384 $560 forward 7 unknown #
coedge $-1 $561 $562 $234 $387 forward $379 $-1 #
edge $-1 $563 -53.981364503887946 $391 -47.6324385017286 $386 $564 forward 7 unknown #
edge $-1 $392 36.663449536329601 $563 46.751992691160204 $235 $565 forward 7 unknown #
coedge $-1 $236 $555 $561 $566 forward $390 $-1 #
loop $-1 $-1 $555 $378 #
vertex $-1 $387 $567 #
vertex $-1 $237 $568 #
straight-curve $-1 -41.159410167231378 26.817589278738492 10.04282512757559 0 -1 0 I I #
coedge $-1 $394 $394 $-1 $569 reversed $240 $-1 #
edge $-1 $570 0 $570 6.2831853071796004 $241 $571 forward 7 unknown #
vertex $-1 $244 $572 #
ellipse-curve $-1 -38.302799655822966 19.455861092620573 6.8683621264959109 0 0.62932039886446345 0.77714595512881146 1 0 0 1 I I #
coedge $-1 $398 $398 $-1 $573 reversed $247 $-1 #
edge $-1 $574 0 $574 6.2831853071796004 $248 $575 forward 7 unknown #
vertex $-1 $251 $576 #
ellipse-curve $-1 -34.017883888710344 19.455861092620573 6.8683621264959109 0 0.62932039886446345 0.77714595512881146 1 0 0 1 I I #
face $-1 $-1 $577 $56 $-1 $578 reversed single #
loop $-1 $-1 $258 $252 #
plane-surface $-1 0 0 10.042825127575588 0 0 1 1 0 0 forward_v I I I I #
coedge $-1 $579 $580 $581 $582 reversed $253 $-1 #
coedge $-1 $583 $255 $257 $412 forward $159 $-1 #
coedge $-1 $255 $583 $579 $584 forward $159 $-1 #
coedge $-1 $581 $258 $255 $409 forward $403 $-1 #
edge $-1 $415 9.8252333726105885 $585 20.872863043631838 $408 $586 forward 7 unknown #
coedge $-1 $587 $588 $256 $411 forward $577 $-1 #
edge $-1 $589 -36.14689097288889 $414 -32.447057646206979 $410 $590 forward 7 unknown #
edge $-1 $415 -5.5293140786332895 $589 9.4405131238556439e-015 $257 $591 forward 7 unknown #
coedge $-1 $258 $581 $587 $592 forward $403 $-1 #
vertex $-1 $411 $593 #
vertex $-1 $259 $594 #
straight-curve $-1 -25.174281580731805 -47.090433499781454 10.04282512757559 0 1 0 I I #
coedge $-1 $417 $417 $-1 $595 reversed $262 $-1 #
edge $-1 $596 0 $596 6.2831853071796004 $263 $597 forward 7 unknown #
vertex $-1 $266 $598 #
ellipse-curve $-1 -33.065445631461273 -21.321455792625116 8.1929084642346321 0 -0.66913061440640931 0.74314481823134659 1 0 0 1 I I #
coedge $-1 $421 $421 $-1 $599 reversed $269 $-1 #
edge $-1 $600 0 $600 6.2831853071796004 $270 $601 forward 7 unknown #
vertex $-1 $273 $602 #
ellipse-curve $-1 -28.330747201023591 -21.321455792625116 8.1929084642346321 0 -0.66913061440640931 0.74314481823134659 1 0 0 1 I I #
face $-1 $-1 $437 $59 $-1 $603 forward single #
loop $-1 $-1 $604 $274 #
plane-surface $-1 0 -23.375996345580099 0 0 1 0 0 0 1 forward_v I I I I #
coedge $-1 $605 $606 $607 $608 reversed $275 $-1 #
coedge $-1 $609 $277 $279 $435 forward $173 $-1 #
coedge $-1 $277 $609 $605 $610 forward $173 $-1 #
coedge $-1 $607 $280 $277 $432 forward $437 $-1 #
edge $-1 $439 -2.3655818662596211 $611 8.6820478047616341 $431 $612 forward 7 unknown #
coedge $-1 $613 $614 $278 $434 forward $426 $-1 #
edge $-1 $615 -36.14689097288889 $438 -32.447057646206979 $433 $616 forward 7 unknown #
edge $-1 $439 -5.5293140786332895 $615 9.4405131238556439e-015 $279 $617 forward 7 unknown #
coedge $-1 $280 $607 $613 $618 forward $437 $-1 #
loop $-1 $-1 $607 $425 #
vertex $-1 $434 $619 #
vertex $-1 $281 $620 #
straight-curve $-1 -0.79265110299138541 -47.090433499781454 10.04282512757559 0 1 0 I I #
coedge $-1 $441 $441 $-1 $621 reversed $284 $-1 #
edge $-1 $622 0 $622 6.2831853071796004 $285 $623 forward 7 unknown #
vertex $-1 $288 $624 #
ellipse-curve $-1 -8.6838151537208574 -21.321455792625116 8.1929084642346321 0 -0.66913061440640931 0.74314481823134659 1 0 0 1 I I #
coedge $-1 $445 $445 $-1 $625 reversed $291 $-1 #
edge $-1 $626 0 $626 6.2831853071796004 $292 $627 forward 7 unknown #
vertex $-1 $295 $628 #
ellipse-curve $-1 -3.9491167232831685 -21.321455792625116 8.1929084642346321 0 -0.66913061440640931 0.74314481823134659 1 0 0 1 I I #
face $-1 $-1 $461 $62 $-1 $629 forward single #
loop $-1 $-1 $630 $296 #
plane-surface $-1 0 -23.375996345580099 0 0 1 0 0 0 1 forward_v I I I I #
coedge $-1 $631 $632 $633 $634 reversed $297 $-1 #
coedge $-1 $635 $299 $301 $459 forward $187 $-1 #
coedge $-1 $299 $635 $631 $636 forward $187 $-1 #
coedge $-1 $633 $302 $299 $456 forward $461 $-1 #
edge $-1 $463 -14.556397105129832 $637 -3.5087674341085773 $455 $638 forward 7 unknown #
coedge $-1 $639 $640 $300 $458 forward $450 $-1 #
edge $-1 $641 -36.14689097288889 $462 -32.447057646206979 $457 $642 forward 7 unknown #
edge $-1 $463 -5.5293140786332895 $641 9.4405131238556439e-015 $301 $643 forward 7 unknown #
coedge $-1 $302 $633 $639 $644 forward $461 $-1 #
loop $-1 $-1 $633 $449 #
vertex $-1 $458 $645 #
vertex $-1 $303 $646 #
straight-curve $-1 23.588979374749037 -47.090433499781454 10.04282512757559 0 1 0 I I #
coedge $-1 $465 $465 $-1 $647 reversed $306 $-1 #
edge $-1 $648 0 $648 6.2831853071796004 $307 $649 forward 7 unknown #
vertex $-1 $310 $650 #
ellipse-curve $-1 15.697815324019558 -21.321455792625116 8.1929084642346321 0 -0.66913061440640931 0.74314481823134659 1 0 0 1 I I #
coedge $-1 $469 $469 $-1 $651 reversed $313 $-1 #
edge $-1 $652 0 $652 6.2831853071796004 $314 $653 forward 7 unknown #
vertex $-1 $317 $654 #
ellipse-curve $-1 20.432513754457247 -21.321455792625116 8.1929084642346321 0 -0.66913061440640931 0.74314481823134659 1 0 0 1 I I #
face $-1 $-1 $485 $65 $-1 $655 forward single #
loop $-1 $-1 $656 $318 #
plane-surface $-1 0 -23.375996345580099 0 0 1 0 0 0 1 forward_v I I I I #
coedge $-1 $657 $658 $659 $660 reversed $319 $-1 #
coedge $-1 $661 $321 $323 $483 forward $201 $-1 #
coedge $-1 $321 $661 $657 $662 forward $201 $-1 #
coedge $-1 $659 $324 $321 $480 forward $485 $-1 #
edge $-1 $487 -26.74721234400004 $663 -15.699582672978785 $479 $664 forward 7 unknown #
coedge $-1 $665 $666 $322 $482 forward $474 $-1 #
edge $-1 $667 -36.14689097288889 $486 -32.447057646206979 $481 $668 forward 7 unknown #
edge $-1 $487 -5.5293140786332895 $667 9.4405131238556439e-015 $323 $669 forward 7 unknown #
coedge $-1 $324 $659 $665 $670 forward $485 $-1 #
loop $-1 $-1 $659 $473 #
vertex $-1 $482 $671 #
vertex $-1 $325 $672 #
straight-curve $-1 47.970609852489453 -47.090433499781454 10.04282512757559 0 1 0 I I #
coedge $-1 $489 $489 $-1 $673 reversed $328 $-1 #
edge $-1 $674 0 $674 6.2831853071796004 $329 $675 forward 7 unknown #
vertex $-1 $332 $676 #
ellipse-curve $-1 40.079445801759974 -21.321455792625116 8.1929084642346321 0 -0.66913061440640931 0.74314481823134659 1 0 0 1 I I #
coedge $-1 $493 $493 $-1 $677 reversed $335 $-1 #
edge $-1 $678 0 $678 6.2831853071796004 $336 $679 forward 7 unknown #
vertex $-1 $339 $680 #
ellipse-curve $-1 44.814144232197663 -21.321455792625116 8.1929084642346321 0 -0.66913061440640931 0.74314481823134659 1 0 0 1 I I #
face $-1 $-1 $355 $51 $-1 $681 reversed single #
loop $-1 $-1 $513 $340 #
plane-surface $-1 0 23.375996345580099 0 0 -1 0 0 0 -1 forward_v I I I I #
coedge $-1 $682 $511 $514 $683 forward $341 $-1 #
coedge $-1 $517 $343 $344 $505 reversed $215 $-1 #
coedge $-1 $511 $682 $343 $503 reversed $341 $-1 #
edge $-1 $518 -10.042825127575588 $684 10.042825127575588 $502 $685 forward 7 unknown #
coedge $-1 $345 $344 $682 $686 forward $137 $-1 #
edge $-1 $509 -52.908108767967775 $684 52.908108767967775 $501 $687 forward 7 unknown #
coedge $-1 $514 $513 $345 $507 reversed $498 $-1 #
edge $-1 $688 -52.908108767967775 $508 52.908108767967775 $506 $689 forward 7 unknown #
vertex $-1 $347 $690 #
vertex $-1 $520 $691 #
straight-curve $-1 52.908108767967775 0 -10.042825127575588 0 -1 0 I I #
coedge $-1 $500 $502 $348 $512 reversed $341 $-1 #
edge $-1 $515 -23.375996345580099 $518 23.375996345580099 $511 $692 forward 7 unknown #
coedge $-1 $506 $349 $354 $521 forward $498 $-1 #
coedge $-1 $349 $506 $500 $683 reversed $498 $-1 #
vertex $-1 $350 $693 #
straight-curve $-1 0 23.375996345580099 10.042825127575588 -1 0 0 I I #
coedge $-1 $351 $501 $353 $520 reversed $215 $-1 #
vertex $-1 $512 $694 #
straight-curve $-1 0 -23.375996345580099 10.042825127575588 1 0 0 I I #
edge $-1 $356 -10.042825127575588 $509 10.042825127575588 $353 $695 forward 7 unknown #
edge $-1 $357 -10.042825127575588 $508 10.042825127575588 $354 $696 forward 7 unknown #
point $-1 52.908108767967775 -23.375996345580099 10.042825127575588 #
point $-1 52.908108767967775 23.375996345580099 10.042825127575588 #
face $-1 $-1 $374 $52 $-1 $697 reversed single #
loop $-1 $-1 $533 $359 #
plane-surface $-1 0 0 10.042825127575588 0 0 1 1 0 0 forward_v I I I I #
coedge $-1 $539 $538 $363 $532 forward $360 $-1 #
coedge $-1 $365 $362 $539 $698 reversed $223 $-1 #
coedge $-1 $362 $365 $542 $699 reversed $223 $-1 #
edge $-1 $544 -10.042825127575588 $540 10.042825127575588 $362 $700 forward 7 unknown #
coedge $-1 $364 $363 $546 $701 reversed $141 $-1 #
edge $-1 $702 -29.391229034167988 $536 -17.642530433431585 $527 $703 forward 7 unknown #
coedge $-1 $543 $542 $364 $534 forward $525 $-1 #
edge $-1 $535 17.642530433431585 $704 29.391229034167988 $533 $705 forward 7 unknown #
vertex $-1 $534 $706 #
vertex $-1 $532 $707 #
straight-curve $-1 -41.159410167231371 -4.5280864459721242 0 0 0 -1 I I #
coedge $-1 $527 $368 $373 $548 forward $360 $-1 #
coedge $-1 $368 $527 $528 $698 forward $360 $-1 #
vertex $-1 $369 $708 #
straight-curve $-1 -23.516879733799787 -7.8477018809149373 -10.042825127575588 -1 0 0 I I #
coedge $-1 $533 $370 $529 $699 forward $525 $-1 #
coedge $-1 $370 $533 $372 $547 forward $525 $-1 #
vertex $-1 $371 $709 #
straight-curve $-1 -23.516879733799787 -7.8477018809149373 10.042825127575588 1 0 0 I I #
coedge $-1 $373 $372 $531 $701 forward $374 $-1 #
edge $-1 $704 4.5280864459721242 $376 7.8477018809149373 $372 $710 forward 7 unknown #
edge $-1 $375 -7.8477018809149373 $702 -4.5280864459721242 $373 $711 forward 7 unknown #
point $-1 -52.908108767967775 -7.8477018809149373 -10.042825127575588 #
point $-1 -52.908108767967775 -7.8477018809149373 10.042825127575588 #
plane-surface $-1 0 0 10.042825127575588 0 0 1 1 0 0 forward_v I I I I #
coedge $-1 $562 $561 $554 $712 forward $379 $-1 #
coedge $-1 $554 $381 $383 $558 reversed $231 $-1 #
coedge $-1 $381 $553 $552 $712 reversed $231 $-1 #
coedge $-1 $389 $384 $381 $556 forward $390 $-1 #
edge $-1 $559 -11.281863439077455 $713 -3.4415929331583932 $555 $714 forward 7 unknown #
coedge $-1 $383 $382 $562 $715 reversed $145 $-1 #
edge $-1 $716 -46.751992691160204 $559 -36.663449536329601 $553 $717 forward 7 unknown #
vertex $-1 $385 $718 #
straight-curve $-1 -18.080170886133327 15.535725839661044 10.042825127575586 1 0 0 I I #
coedge $-1 $552 $386 $389 $566 reversed $379 $-1 #
coedge $-1 $386 $552 $557 $715 forward $379 $-1 #
vertex $-1 $387 $719 #
straight-curve $-1 -41.159410167231378 23.375996345580099 57.67526362930419 0 0 1 I I #
straight-curve $-1 -41.159410167231378 -12.95712566856681 33.115881813525661 0 0.77714595512881146 -0.62932039886446345 I I #
edge $-1 $713 31.161273377301931 $391 41.159410167231378 $561 $720 forward 7 unknown #
point $-1 -41.159410167231378 23.375996345580099 10.042825127575588 #
point $-1 -41.159410167231378 15.535725839661037 10.04282512757559 #
edge $-1 $721 1 $721 0 $394 $-1 forward 7 unknown #
vertex $-1 $395 $722 #
ellipse-curve $-1 -38.302799655822966 18.390431855686856 5.5526666183683551 0 0.62932039886446345 0.77714595512881146 1 0 0 1 I I #
point $-1 -37.302799655822966 19.455861092620577 6.8683621264959127 #
edge $-1 $723 1 $723 0 $398 $-1 forward 7 unknown #
vertex $-1 $399 $724 #
ellipse-curve $-1 -34.017883888710344 18.390431855686856 5.5526666183683551 0 0.62932039886446345 0.77714595512881146 1 0 0 1 I I #
point $-1 -33.017883888710344 19.455861092620577 6.8683621264959127 #
loop $-1 $-1 $410 $402 #
plane-surface $-1 0 -23.375996345580099 0 0 1 0 0 0 1 forward_v I I I I #
coedge $-1 $580 $405 $407 $584 reversed $253 $-1 #
coedge $-1 $405 $579 $725 $726 reversed $253 $-1 #
coedge $-1 $413 $408 $405 $582 forward $403 $-1 #
edge $-1 $585 -27.823518260111324 $727 -23.714437154201356 $581 $728 forward 7 unknown #
coedge $-1 $407 $406 $588 $729 reversed $159 $-1 #
edge $-1 $730 -9.4405131238556439e-015 $585 5.5293140786332895 $579 $731 forward 7 unknown #
vertex $-1 $409 $732 #
straight-curve $-1 -15.349048208121216 -19.26691523967013 10.042825127575588 -1 0 0 I I #
coedge $-1 $725 $410 $413 $592 reversed $577 $-1 #
coedge $-1 $410 $725 $583 $729 forward $577 $-1 #
vertex $-1 $411 $733 #
straight-curve $-1 -25.174281580731805 -23.375996345580099 42.489882773782568 0 0 1 I I #
straight-curve $-1 -25.174281580731805 -23.375996345580091 6.3429918008936852 0 -0.74314481823134659 -0.66913061440640931 I I #
edge $-1 $727 -36.221911251753056 $414 -25.174281580731805 $587 $734 forward 7 unknown #
point $-1 -25.174281580731805 -23.375996345580099 10.042825127575588 #
point $-1 -25.174281580731805 -19.26691523967013 10.042825127575588 #
edge $-1 $735 1 $735 0 $417 $-1 forward 7 unknown #
vertex $-1 $418 $736 #
ellipse-curve $-1 -33.065445631461273 -18.978814543091303 5.5911418314069827 0 -0.66913061440640931 0.74314481823134659 1 0 0 1 I I #
point $-1 -32.065445631461273 -21.321455792625116 8.1929084642346339 #
edge $-1 $737 1 $737 0 $421 $-1 forward 7 unknown #
vertex $-1 $422 $738 #
ellipse-curve $-1 -28.330747201023591 -18.978814543091303 5.5911418314069827 0 -0.66913061440640931 0.74314481823134659 1 0 0 1 I I #
point $-1 -27.330747201023591 -21.321455792625116 8.1929084642346339 #
plane-surface $-1 0 0 10.042825127575588 0 0 1 1 0 0 forward_v I I I I #
coedge $-1 $614 $613 $606 $739 forward $426 $-1 #
coedge $-1 $606 $428 $430 $610 reversed $275 $-1 #
coedge $-1 $428 $605 $604 $739 reversed $275 $-1 #
coedge $-1 $436 $431 $428 $608 forward $437 $-1 #
edge $-1 $611 -27.823518260111324 $740 -23.714437154201356 $607 $741 forward 7 unknown #
coedge $-1 $430 $429 $614 $742 reversed $173 $-1 #
edge $-1 $743 -9.4405131238556439e-015 $611 5.5293140786332895 $605 $744 forward 7 unknown #
vertex $-1 $432 $745 #
straight-curve $-1 -3.1582329692510065 -19.26691523967013 10.042825127575588 -1 0 0 I I #
coedge $-1 $604 $433 $436 $618 reversed $426 $-1 #
coedge $-1 $433 $604 $609 $742 forward $426 $-1 #
vertex $-1 $434 $746 #
straight-curve $-1 -0.79265110299138541 -23.375996345580099 42.489882773782568 0 0 1 I I #
straight-curve $-1 -0.79265110299138541 -23.375996345580091 6.3429918008936852 0 -0.74314481823134659 -0.66913061440640931 I I #
edge $-1 $740 -11.840280774012641 $438 -0.79265110299138541 $613 $747 forward 7 unknown #
point $-1 -0.79265110299138541 -23.375996345580099 10.042825127575588 #
point $-1 -0.79265110299138541 -19.26691523967013 10.042825127575588 #
edge $-1 $748 1 $748 0 $441 $-1 forward 7 unknown #
vertex $-1 $442 $749 #
ellipse-curve $-1 -8.6838151537208574 -18.978814543091303 5.5911418314069827 0 -0.66913061440640931 0.74314481823134659 1 0 0 1 I I #
point $-1 -7.6838151537208574 -21.321455792625116 8.1929084642346339 #
edge $-1 $750 1 $750 0 $445 $-1 forward 7 unknown #
vertex $-1 $446 $751 #
ellipse-curve $-1 -3.9491167232831685 -18.978814543091303 5.5911418314069827 0 -0.66913061440640931 0.74314481823134659 1 0 0 1 I I #
point $-1 -2.9491167232831685 -21.321455792625116 8.1929084642346339 #
plane-surface $-1 0 0 10.042825127575588 0 0 1 1 0 0 forward_v I I I I #
coedge $-1 $640 $639 $632 $752 forward $450 $-1 #
coedge $-1 $632 $452 $454 $636 reversed $297 $-1 #
coedge $-1 $452 $631 $630 $752 reversed $297 $-1 #
coedge $-1 $460 $455 $452 $634 forward $461 $-1 #
edge $-1 $637 -27.823518260111324 $753 -23.714437154201356 $633 $754 forward 7 unknown #
coedge $-1 $454 $453 $640 $755 reversed $187 $-1 #
edge $-1 $756 -9.4405131238556439e-015 $637 5.5293140786332895 $631 $757 forward 7 unknown #
vertex $-1 $456 $758 #
straight-curve $-1 9.0325822696192049 -19.26691523967013 10.042825127575588 -1 0 0 I I #
coedge $-1 $630 $457 $460 $644 reversed $450 $-1 #
coedge $-1 $457 $630 $635 $755 forward $450 $-1 #
vertex $-1 $458 $759 #
straight-curve $-1 23.588979374749037 -23.375996345580099 42.489882773782568 0 0 1 I I #
straight-curve $-1 23.588979374749037 -23.375996345580091 6.3429918008936852 0 -0.74314481823134659 -0.66913061440640931 I I #
edge $-1 $753 12.541349703727782 $462 23.588979374749037 $639 $760 forward 7 unknown #
point $-1 23.588979374749037 -23.375996345580099 10.042825127575588 #
point $-1 23.588979374749037 -19.26691523967013 10.042825127575588 #
edge $-1 $761 1 $761 0 $465 $-1 forward 7 unknown #
vertex $-1 $466 $762 #
ellipse-curve $-1 15.697815324019558 -18.978814543091303 5.5911418314069827 0 -0.66913061440640931 0.74314481823134659 1 0 0 1 I I #
point $-1 16.697815324019558 -21.321455792625116 8.1929084642346339 #
edge $-1 $763 1 $763 0 $469 $-1 forward 7 unknown #
vertex $-1 $470 $764 #
ellipse-curve $-1 20.432513754457247 -18.978814543091303 5.5911418314069827 0 -0.66913061440640931 0.74314481823134659 1 0 0 1 I I #
point $-1 21.432513754457247 -21.321455792625116 8.1929084642346339 #
plane-surface $-1 0 0 10.042825127575588 0 0 1 1 0 0 forward_v I I I I #
coedge $-1 $666 $665 $658 $765 forward $474 $-1 #
coedge $-1 $658 $476 $478 $662 reversed $319 $-1 #
coedge $-1 $476 $657 $656 $765 reversed $319 $-1 #
coedge $-1 $484 $479 $476 $660 forward $485 $-1 #
edge $-1 $663 -27.823518260111324 $766 -23.714437154201356 $659 $767 forward 7 unknown #
coedge $-1 $478 $477 $666 $768 reversed $201 $-1 #
edge $-1 $769 -9.4405131238556439e-015 $663 5.5293140786332895 $657 $770 forward 7 unknown #
vertex $-1 $480 $771 #
straight-curve $-1 21.223397508489413 -19.26691523967013 10.042825127575588 -1 0 0 I I #
coedge $-1 $656 $481 $484 $670 reversed $474 $-1 #
coedge $-1 $481 $656 $661 $768 forward $474 $-1 #
vertex $-1 $482 $772 #
straight-curve $-1 47.970609852489453 -23.375996345580099 42.489882773782568 0 0 1 I I #
straight-curve $-1 47.970609852489453 -23.375996345580091 6.3429918008936852 0 -0.74314481823134659 -0.66913061440640931 I I #
edge $-1 $766 36.922980181468198 $486 47.970609852489453 $665 $773 forward 7 unknown #
point $-1 47.970609852489453 -23.375996345580099 10.042825127575588 #
point $-1 47.970609852489453 -19.26691523967013 10.042825127575588 #
edge $-1 $774 1 $774 0 $489 $-1 forward 7 unknown #
vertex $-1 $490 $775 #
ellipse-curve $-1 40.079445801759974 -18.978814543091303 5.5911418314069827 0 -0.66913061440640931 0.74314481823134659 1 0 0 1 I I #
point $-1 41.079445801759974 -21.321455792625116 8.1929084642346339 #
edge $-1 $776 1 $776 0 $493 $-1 forward 7 unknown #
vertex $-1 $494 $777 #
ellipse-curve $-1 44.814144232197663 -18.978814543091303 5.5911418314069827 0 -0.66913061440640931 0.74314481823134659 1 0 0 1 I I #
point $-1 45.814144232197663 -21.321455792625116 8.1929084642346339 #
plane-surface $-1 52.908108767967775 0 0 -1 0 0 0 0 1 forward_v I I I I #
coedge $-1 $502 $500 $504 $686 reversed $341 $-1 #
edge $-1 $515 -10.042825127575588 $688 10.042825127575588 $514 $778 forward 7 unknown #
vertex $-1 $686 $779 #
straight-curve $-1 -52.908108767967775 -23.375996345580099 0 0 0 -1 I I #
edge $-1 $684 -23.375996345580099 $688 23.375996345580099 $682 $780 forward 7 unknown #
straight-curve $-1 0 -23.375996345580099 -10.042825127575588 -1 0 0 I I #
vertex $-1 $507 $781 #
straight-curve $-1 0 23.375996345580099 -10.042825127575588 1 0 0 I I #
point $-1 52.908108767967775 23.375996345580099 -10.042825127575588 #
point $-1 52.908108767967775 -23.375996345580099 -10.042825127575588 #
straight-curve $-1 -52.908108767967775 0 10.042825127575588 0 -1 0 I I #
point $-1 -52.908108767967775 23.375996345580099 10.042825127575588 #
point $-1 -52.908108767967775 -23.375996345580099 10.042825127575588 #
straight-curve $-1 52.908108767967775 -23.375996345580099 0 0 0 -1 I I #
straight-curve $-1 52.908108767967775 23.375996345580099 0 0 0 -1 I I #
plane-surface $-1 -52.908108767967775 0 0 1 0 0 0 0 -1 forward_v I I I I #
edge $-1 $536 1.4341393642503588 $540 4.7537547991931719 $539 $782 forward 7 unknown #
edge $-1 $544 -4.7537547991931719 $535 -1.4341393642503588 $542 $783 forward 7 unknown #
straight-curve $-1 -41.159410167231371 -7.8477018809149373 0 0 0 -1 I I #
edge $-1 $704 -10.042825127575588 $702 10.042825127575588 $546 $784 forward 7 unknown #
vertex $-1 $701 $785 #
straight-curve $-1 -23.516879733799787 -4.5280864459721242 -10.042825127575588 1 0 0 I I #
vertex $-1 $547 $786 #
straight-curve $-1 -23.516879733799787 -4.5280864459721242 10.042825127575588 -1 0 0 I I #
point $-1 -41.159410167231371 -4.5280864459721242 10.042825127575588 #
point $-1 -41.159410167231371 -4.5280864459721242 -10.042825127575588 #
point $-1 -41.159410167231371 -7.8477018809149373 -10.042825127575588 #
point $-1 -41.159410167231371 -7.8477018809149373 10.042825127575588 #
straight-curve $-1 -52.908108767967775 0 10.042825127575588 0 -1 0 I I #
straight-curve $-1 -52.908108767967775 0 -10.042825127575588 0 1 0 I I #
edge $-1 $713 47.6324385017286 $716 53.981364503887946 $552 $787 forward 7 unknown #
vertex $-1 $566 $788 #
straight-curve $-1 -31.161273377301931 26.817589278738492 10.04282512757559 0 1 0 I I #
edge $-1 $716 13.081102491168604 $563 23.079239281098051 $562 $789 forward 7 unknown #
vertex $-1 $715 $790 #
straight-curve $-1 -31.161273377301931 -12.95712566856681 33.115881813525661 0 -0.77714595512881146 0.62932039886446345 I I #
point $-1 -31.161273377301931 15.535725839661037 10.04282512757559 #
point $-1 -41.159410167231378 23.375996345580099 3.693899125416241 #
straight-curve $-1 0 23.375996345580099 10.042825127575588 -1 0 0 I I #
vertex $-1 $569 $791 #
point $-1 -37.302799655822966 18.390431855686856 5.5526666183683551 #
vertex $-1 $573 $792 #
point $-1 -33.017883888710344 18.390431855686856 5.5526666183683551 #
coedge $-1 $588 $587 $580 $726 forward $577 $-1 #
edge $-1 $727 32.447057646206979 $730 36.14689097288889 $725 $793 forward 7 unknown #
vertex $-1 $592 $794 #
straight-curve $-1 -36.221911251753056 -47.090433499781454 10.04282512757559 0 -1 0 I I #
edge $-1 $730 -20.872863043631838 $589 -9.8252333726105885 $588 $795 forward 7 unknown #
vertex $-1 $729 $796 #
straight-curve $-1 -36.221911251753056 -23.375996345580091 6.3429918008936852 0 0.74314481823134659 0.66913061440640931 I I #
point $-1 -36.221911251753056 -19.26691523967013 10.042825127575588 #
point $-1 -25.174281580731805 -23.375996345580099 6.342991800893679 #
straight-curve $-1 0 -23.375996345580099 10.042825127575588 1 0 0 I I #
vertex $-1 $595 $797 #
point $-1 -32.065445631461273 -18.978814543091303 5.5911418314069827 #
vertex $-1 $599 $798 #
point $-1 -27.330747201023591 -18.978814543091303 5.5911418314069827 #
edge $-1 $740 32.447057646206979 $743 36.14689097288889 $604 $799 forward 7 unknown #
vertex $-1 $618 $800 #
straight-curve $-1 -11.840280774012641 -47.090433499781454 10.04282512757559 0 -1 0 I I #
edge $-1 $743 -8.6820478047616341 $615 2.3655818662596211 $614 $801 forward 7 unknown #
vertex $-1 $742 $802 #
straight-curve $-1 -11.840280774012641 -23.375996345580091 6.3429918008936852 0 0.74314481823134659 0.66913061440640931 I I #
point $-1 -11.840280774012641 -19.26691523967013 10.042825127575588 #
point $-1 -0.79265110299138541 -23.375996345580099 6.342991800893679 #
straight-curve $-1 0 -23.375996345580099 10.042825127575588 1 0 0 I I #
vertex $-1 $621 $803 #
point $-1 -7.6838151537208574 -18.978814543091303 5.5911418314069827 #
vertex $-1 $625 $804 #
point $-1 -2.9491167232831685 -18.978814543091303 5.5911418314069827 #
edge $-1 $753 32.447057646206979 $756 36.14689097288889 $630 $805 forward 7 unknown #
vertex $-1 $644 $806 #
straight-curve $-1 12.541349703727782 -47.090433499781454 10.04282512757559 0 -1 0 I I #
edge $-1 $756 3.5087674341085773 $641 14.556397105129832 $640 $807 forward 7 unknown #
vertex $-1 $755 $808 #
straight-curve $-1 12.541349703727782 -23.375996345580091 6.3429918008936852 0 0.74314481823134659 0.66913061440640931 I I #
point $-1 12.541349703727782 -19.26691523967013 10.042825127575588 #
point $-1 23.588979374749037 -23.375996345580099 6.342991800893679 #
straight-curve $-1 0 -23.375996345580099 10.042825127575588 1 0 0 I I #
vertex $-1 $647 $809 #
point $-1 16.697815324019558 -18.978814543091303 5.5911418314069827 #
vertex $-1 $651 $810 #
point $-1 21.432513754457247 -18.978814543091303 5.5911418314069827 #
edge $-1 $766 32.447057646206979 $769 36.14689097288889 $656 $811 forward 7 unknown #
vertex $-1 $670 $812 #
straight-curve $-1 36.922980181468198 -47.090433499781454 10.04282512757559 0 -1 0 I I #
edge $-1 $769 15.699582672978785 $667 26.74721234400004 $666 $813 forward 7 unknown #
vertex $-1 $768 $814 #
straight-curve $-1 36.922980181468198 -23.375996345580091 6.3429918008936852 0 0.74314481823134659 0.66913061440640931 I I #
point $-1 36.922980181468198 -19.26691523967013 10.042825127575588 #
point $-1 47.970609852489453 -23.375996345580099 6.342991800893679 #
straight-curve $-1 0 -23.375996345580099 10.042825127575588 1 0 0 I I #
vertex $-1 $673 $815 #
point $-1 41.079445801759974 -18.978814543091303 5.5911418314069827 #
vertex $-1 $677 $816 #
point $-1 45.814144232197663 -18.978814543091303 5.5911418314069827 #
straight-curve $-1 -52.908108767967775 23.375996345580099 0 0 0 -1 I I #
point $-1 -52.908108767967775 -23.375996345580099 -10.042825127575588 #
straight-curve $-1 -52.908108767967775 0 -10.042825127575588 0 1 0 I I #
point $-1 -52.908108767967775 23.375996345580099 -10.042825127575588 #
straight-curve $-1 -41.159410167231371 -3.0939470817217654 -10.042825127575588 0 -1 0 I I #
straight-curve $-1 -41.159410167231371 -3.0939470817217654 10.042825127575588 0 1 0 I I #
straight-curve $-1 -52.908108767967775 -4.5280864459721242 0 0 0 -1 I I #
point $-1 -52.908108767967775 -4.5280864459721242 -10.042825127575588 #
point $-1 -52.908108767967775 -4.5280864459721242 10.042825127575588 #
straight-curve $-1 -31.161273377301931 23.375996345580099 57.67526362930419 0 0 -1 I I #
point $-1 -31.161273377301931 23.375996345580099 10.042825127575588 #
straight-curve $-1 -18.080170886133327 23.375996345580099 3.6938991254162392 -1 0 0 I I #
point $-1 -31.161273377301931 23.375996345580099 3.693899125416241 #
point $-1 -38.302799655822966 17.761111456822391 4.7755206632395444 #
point $-1 -34.017883888710344 17.761111456822391 4.7755206632395444 #
straight-curve $-1 -36.221911251753056 -23.375996345580099 42.489882773782568 0 0 -1 I I #
point $-1 -36.221911251753056 -23.375996345580099 10.042825127575588 #
straight-curve $-1 -15.349048208121216 -23.375996345580099 6.342991800893679 1 0 0 I I #
point $-1 -36.221911251753056 -23.375996345580099 6.342991800893679 #
point $-1 -33.065445631461273 -18.30968392868489 4.847997013175636 #
point $-1 -28.330747201023591 -18.30968392868489 4.847997013175636 #
straight-curve $-1 -11.840280774012641 -23.375996345580099 42.489882773782568 0 0 -1 I I #
point $-1 -11.840280774012641 -23.375996345580099 10.042825127575588 #
straight-curve $-1 -3.1582329692510065 -23.375996345580099 6.342991800893679 1 0 0 I I #
point $-1 -11.840280774012641 -23.375996345580099 6.342991800893679 #
point $-1 -8.6838151537208574 -18.30968392868489 4.847997013175636 #
point $-1 -3.9491167232831685 -18.30968392868489 4.847997013175636 #
straight-curve $-1 12.541349703727782 -23.375996345580099 42.489882773782568 0 0 -1 I I #
point $-1 12.541349703727782 -23.375996345580099 10.042825127575588 #
straight-curve $-1 9.0325822696192049 -23.375996345580099 6.342991800893679 1 0 0 I I #
point $-1 12.541349703727782 -23.375996345580099 6.342991800893679 #
point $-1 15.697815324019558 -18.30968392868489 4.847997013175636 #
point $-1 20.432513754457247 -18.30968392868489 4.847997013175636 #
straight-curve $-1 36.922980181468198 -23.375996345580099 42.489882773782568 0 0 -1 I I #
point $-1 36.922980181468198 -23.375996345580099 10.042825127575588 #
straight-curve $-1 21.223397508489413 -23.375996345580099 6.342991800893679 1 0 0 I I #
point $-1 36.922980181468198 -23.375996345580099 6.342991800893679 #
point $-1 40.079445801759974 -18.30968392868489 4.847997013175636 #
point $-1 44.814144232197663 -18.30968392868489 4.847997013175636 #
End-of-ACIS-data 