500 0 6 0           
7 Unknown 11 ACIS 5.0 NT 24 Thu Mar 25 18:46:20 1999 
-1 9.9999999999999995e-007 1e-010 
body $-1 $6 $-1 $7 #
body $-1 $8 $-1 $9 #
body $-1 $10 $-1 $11 #
body $-1 $12 $-1 $13 #
body $-1 $14 $-1 $15 #
body $-1 $16 $-1 $17 #
lump $-1 $-1 $18 $0 #
transform $-1 1 0 0 0 1 0 0 0 1 50.521561326944791 26.517845055997135 7.5124317784908659 1 rotate no_reflect no_shear #
lump $-1 $-1 $19 $1 #
transform $-1 1 0 0 0 1 0 0 0 1 50.521561326944791 26.517845055997135 7.5124317784908659 1 rotate no_reflect no_shear #
lump $-1 $-1 $20 $2 #
transform $-1 1 0 0 0 1 0 0 0 1 50.521561326944791 26.517845055997135 7.5124317784908659 1 rotate no_reflect no_shear #
lump $-1 $-1 $21 $3 #
transform $-1 1 0 0 0 1 0 0 0 1 50.521561326944791 26.517845055997135 7.5124317784908659 1 rotate no_reflect no_shear #
lump $-1 $-1 $22 $4 #
transform $-1 1 0 0 0 1 0 0 0 1 50.521561326944791 26.517845055997135 7.5124317784908659 1 rotate no_reflect no_shear #
lump $-1 $-1 $23 $5 #
transform $-1 1 0 0 0 1 0 0 0 1 50.521561326944791 26.517845055997135 7.5124317784908659 1 rotate no_reflect no_shear #
shell $-1 $-1 $-1 $24 $-1 $6 #
shell $-1 $-1 $-1 $25 $-1 $8 #
shell $-1 $-1 $-1 $26 $-1 $10 #
shell $-1 $-1 $-1 $27 $-1 $12 #
shell $-1 $-1 $-1 $28 $-1 $14 #
shell $-1 $-1 $-1 $29 $-1 $16 #
face $-1 $30 $31 $18 $-1 $32 forward single #
face $-1 $33 $34 $19 $-1 $35 forward single #
face $-1 $36 $37 $20 $-1 $38 forward single #
face $-1 $39 $40 $21 $-1 $41 reversed single #
face $-1 $42 $43 $22 $-1 $44 forward single #
face $-1 $45 $46 $23 $-1 $47 forward single #
face $-1 $48 $49 $18 $-1 $50 reversed single #
loop $-1 $-1 $51 $24 #
plane-surface $-1 0 0 7.5124317784908659 0 0 1 1 0 0 forward_v I I I I #
face $-1 $52 $53 $19 $-1 $54 reversed single #
loop $-1 $-1 $55 $25 #
plane-surface $-1 -50.521561326944791 0 0 1 0 0 0 0 -1 forward_v I I I I #
face $-1 $56 $57 $20 $-1 $58 reversed single #
loop $-1 $-1 $59 $26 #
plane-surface $-1 50.521561326944791 0 0 -1 0 0 0 0 1 forward_v I I I I #
face $-1 $60 $61 $21 $-1 $62 reversed single #
loop $-1 $-1 $63 $27 #
plane-surface $-1 -25.123107798011532 48.889871259052377 115.04429935063676 1 0 0 0 -0.62932039886446345 -0.77714595512881146 forward_v I I I I #
face $-1 $64 $65 $22 $-1 $66 forward single #
loop $-1 $67 $68 $28 #
cone-surface $-1 -20.421774561751377 23.301073858945696 4.687066616906189 0 -0.62932039886446345 -0.77714595512881146 1 0 0 1 I I 0 1 1 forward I I I I #
face $-1 $69 $70 $23 $-1 $71 forward single #
loop $-1 $72 $73 $29 #
cone-surface $-1 -13.369774707361145 23.301073858945696 4.687066616906189 0 -0.62932039886446345 -0.77714595512881146 1 0 0 1 I I 0 1 1 forward I I I I #
face $-1 $74 $75 $18 $-1 $76 reversed single #
loop $-1 $-1 $77 $30 #
plane-surface $-1 0 0 -7.5124317784908659 0 0 1 1 0 0 forward_v I I I I #
coedge $-1 $78 $79 $80 $81 forward $31 $-1 #
face $-1 $82 $83 $19 $-1 $84 reversed single #
loop $-1 $-1 $85 $33 #
plane-surface $-1 0 0 -7.5124317784908659 0 0 1 1 0 0 forward_v I I I I #
coedge $-1 $86 $87 $88 $89 forward $34 $-1 #
face $-1 $90 $91 $20 $-1 $92 reversed single #
loop $-1 $-1 $93 $36 #
plane-surface $-1 0 -26.517845055997135 0 0 1 0 0 0 1 forward_v I I I I #
coedge $-1 $94 $95 $96 $97 forward $37 $-1 #
face $-1 $98 $99 $21 $-1 $100 reversed single #
loop $-1 $-1 $101 $39 #
plane-surface $-1 -16.895774634556261 -14.698626992004314 36.519045286582099 0 0.62932039886446345 0.77714595512881146 1 0 0 forward_v I I I I #
coedge $-1 $102 $103 $104 $105 reversed $40 $-1 #
face $-1 $-1 $106 $22 $-1 $107 forward single #
loop $-1 $108 $109 $42 #
cone-surface $-1 -20.421774561751377 22.467786583774561 3.6580425513776458 0 -0.62932039886446345 -0.77714595512881146 0.5 0 0 1 I I -0.70710678118654691 0.70710678118654813 0.5 forward I I I I #
loop $-1 $-1 $110 $28 #
coedge $-1 $68 $68 $111 $112 reversed $43 $-1 #
face $-1 $-1 $113 $23 $-1 $114 forward single #
loop $-1 $115 $116 $45 #
cone-surface $-1 -13.369774707361145 22.467786583774561 3.6580425513776458 0 -0.62932039886446345 -0.77714595512881146 0.5 0 0 1 I I -0.70710678118654691 0.70710678118654813 0.5 forward I I I I #
loop $-1 $-1 $117 $29 #
coedge $-1 $73 $73 $118 $119 reversed $46 $-1 #
face $-1 $120 $121 $18 $-1 $122 reversed single #
loop $-1 $-1 $123 $48 #
plane-surface $-1 0 -26.517845055997135 0 0 1 0 0 0 1 forward_v I I I I #
coedge $-1 $124 $125 $126 $127 forward $49 $-1 #
coedge $-1 $128 $51 $129 $130 forward $31 $-1 #
coedge $-1 $51 $128 $131 $132 forward $31 $-1 #
coedge $-1 $133 $134 $51 $81 reversed $135 $-1 #
edge $-1 $136 -26.517845055997135 $137 26.517845055997135 $80 $138 forward 7 unknown #
face $-1 $139 $140 $19 $-1 $141 reversed single #
loop $-1 $-1 $142 $52 #
plane-surface $-1 -53.733719143769974 -15.977330329491622 0 0 1 0 0 0 1 forward_v I I I I #
coedge $-1 $143 $144 $87 $145 forward $53 $-1 #
coedge $-1 $146 $55 $147 $148 reversed $34 $-1 #
coedge $-1 $55 $146 $85 $145 reversed $34 $-1 #
coedge $-1 $149 $150 $55 $89 reversed $151 $-1 #
edge $-1 $152 -7.5124317784908659 $153 7.5124317784908659 $88 $154 forward 7 unknown #
face $-1 $155 $156 $20 $-1 $157 forward single #
loop $-1 $-1 $158 $56 #
plane-surface $-1 0 0 -7.5124317784908659 0 0 1 1 0 0 forward_v I I I I #
coedge $-1 $159 $160 $95 $161 forward $57 $-1 #
coedge $-1 $162 $59 $163 $164 reversed $37 $-1 #
coedge $-1 $59 $162 $93 $161 reversed $37 $-1 #
coedge $-1 $165 $166 $59 $97 reversed $156 $-1 #
edge $-1 $167 -26.517845055997135 $168 26.517845055997135 $96 $169 forward 7 unknown #
face $-1 $170 $171 $21 $-1 $172 reversed single #
loop $-1 $-1 $173 $60 #
plane-surface $-1 -8.6684414711009907 48.889871259052377 115.04429935063676 -1 0 0 0 0.62932039886446345 0.77714595512881146 forward_v I I I I #
coedge $-1 $174 $175 $176 $177 reversed $61 $-1 #
coedge $-1 $103 $63 $178 $179 reversed $40 $-1 #
coedge $-1 $63 $102 $174 $180 reversed $40 $-1 #
coedge $-1 $176 $181 $63 $105 forward $182 $-1 #
edge $-1 $183 -2.0729094264709467 $184 3.3233788161541362 $104 $185 forward 7 unknown #
loop $-1 $-1 $111 $64 #
plane-surface $-1 -16.895774634556261 -14.698626992004314 36.519045286582099 0 0.62932039886446345 0.77714595512881146 1 0 0 forward_v I I I I #
loop $-1 $-1 $186 $42 #
coedge $-1 $109 $109 $110 $187 reversed $65 $-1 #
coedge $-1 $110 $110 $109 $187 forward $67 $-1 #
coedge $-1 $111 $111 $68 $112 forward $106 $-1 #
edge $-1 $188 -1.6430794705136253e-015 $188 6.2831853071795987 $111 $189 forward 7 unknown #
loop $-1 $-1 $118 $69 #
plane-surface $-1 -16.895774634556261 -14.698626992004314 36.519045286582099 0 0.62932039886446345 0.77714595512881146 1 0 0 forward_v I I I I #
loop $-1 $-1 $190 $45 #
coedge $-1 $116 $116 $117 $191 reversed $70 $-1 #
coedge $-1 $117 $117 $116 $191 forward $72 $-1 #
coedge $-1 $118 $118 $73 $119 forward $113 $-1 #
edge $-1 $192 -1.6430794705136253e-015 $192 6.2831853071795987 $118 $193 forward 7 unknown #
face $-1 $194 $195 $18 $-1 $196 reversed single #
loop $-1 $-1 $197 $74 #
plane-surface $-1 -50.521561326944791 0 0 1 0 0 0 0 -1 forward_v I I I I #
coedge $-1 $198 $131 $199 $200 forward $75 $-1 #
coedge $-1 $201 $77 $198 $202 forward $49 $-1 #
coedge $-1 $77 $201 $203 $204 forward $49 $-1 #
coedge $-1 $134 $133 $77 $127 reversed $135 $-1 #
edge $-1 $205 -26.517845055997135 $206 26.517845055997135 $126 $207 forward 7 unknown #
coedge $-1 $79 $78 $208 $209 forward $31 $-1 #
coedge $-1 $210 $211 $78 $130 reversed $195 $-1 #
edge $-1 $137 -50.521561326944791 $212 50.521561326944791 $129 $213 forward 7 unknown #
coedge $-1 $123 $214 $79 $132 reversed $75 $-1 #
edge $-1 $215 -50.521561326944791 $136 50.521561326944791 $131 $216 forward 7 unknown #
coedge $-1 $126 $80 $214 $217 forward $135 $-1 #
coedge $-1 $80 $126 $210 $218 reversed $135 $-1 #
loop $-1 $-1 $133 $194 #
vertex $-1 $81 $219 #
vertex $-1 $81 $220 #
straight-curve $-1 50.521561326944791 0 7.5124317784908659 0 1 0 I I #
face $-1 $221 $151 $19 $-1 $222 reversed single #
loop $-1 $-1 $223 $82 #
plane-surface $-1 -56.945876960595157 -13.735155914253513 0 1 0 0 0 0 -1 forward_v I I I I #
coedge $-1 $224 $225 $226 $227 forward $83 $-1 #
coedge $-1 $228 $85 $224 $229 forward $53 $-1 #
coedge $-1 $85 $228 $149 $230 forward $53 $-1 #
edge $-1 $152 11.492981499015404 $231 15.977330329491622 $85 $232 forward 7 unknown #
coedge $-1 $87 $86 $233 $234 forward $34 $-1 #
coedge $-1 $235 $236 $86 $148 forward $237 $-1 #
edge $-1 $238 -15.977330329491622 $153 -11.492981499015404 $147 $239 forward 7 unknown #
coedge $-1 $240 $88 $144 $230 reversed $151 $-1 #
coedge $-1 $88 $240 $235 $241 reversed $151 $-1 #
loop $-1 $-1 $88 $139 #
vertex $-1 $145 $242 #
vertex $-1 $241 $243 #
straight-curve $-1 -50.521561326944791 -11.492981499015404 0 0 0 1 I I #
face $-1 $244 $245 $20 $-1 $246 reversed single #
loop $-1 $-1 $247 $90 #
plane-surface $-1 55.089217057992698 0 -3.7685275926819681 0 0 1 1 0 0 forward_v I I I I #
coedge $-1 $248 $249 $162 $250 forward $91 $-1 #
coedge $-1 $251 $93 $249 $252 reversed $57 $-1 #
coedge $-1 $93 $251 $165 $253 reversed $57 $-1 #
edge $-1 $167 3.7685275926819681 $254 7.5124317784908659 $93 $255 forward 7 unknown #
coedge $-1 $95 $94 $158 $250 reversed $37 $-1 #
coedge $-1 $256 $257 $94 $164 forward $258 $-1 #
edge $-1 $259 -7.5124317784908659 $168 -3.7685275926819681 $163 $260 forward 7 unknown #
coedge $-1 $247 $96 $160 $253 forward $156 $-1 #
coedge $-1 $96 $247 $256 $261 forward $156 $-1 #
vertex $-1 $161 $262 #
vertex $-1 $261 $263 #
straight-curve $-1 50.521561326944791 0 -3.7685275926819681 0 1 0 I I #
face $-1 $-1 $182 $21 $-1 $264 forward single #
loop $-1 $-1 $265 $98 #
plane-surface $-1 0 26.517845055997135 0 0 -1 0 0 0 -1 forward_v I I I I #
coedge $-1 $266 $267 $268 $269 reversed $99 $-1 #
coedge $-1 $270 $101 $103 $180 forward $61 $-1 #
coedge $-1 $101 $270 $266 $271 forward $61 $-1 #
coedge $-1 $268 $104 $101 $177 forward $182 $-1 #
edge $-1 $184 -16.675220480733401 $272 -0.22055415382286014 $176 $273 forward 7 unknown #
coedge $-1 $274 $275 $102 $179 forward $171 $-1 #
edge $-1 $276 -54.379546044068597 $183 -50.009717896827517 $178 $277 forward 7 unknown #
edge $-1 $184 46.091964538938115 $276 53.035690111994271 $103 $278 forward 7 unknown #
coedge $-1 $104 $268 $274 $279 forward $182 $-1 #
loop $-1 $-1 $268 $170 #
vertex $-1 $179 $280 #
vertex $-1 $105 $281 #
straight-curve $-1 -25.123107798011532 24.444935629526189 7.5124317784908641 0 -1 0 I I #
coedge $-1 $186 $186 $-1 $282 reversed $108 $-1 #
edge $-1 $283 0 $283 6.2831853071796004 $109 $284 forward 7 unknown #
vertex $-1 $112 $285 #
ellipse-curve $-1 -20.421774561751377 23.819700934684597 5.3275177048703268 0 0.62932039886446345 0.77714595512881146 1 0 0 1 I I #
coedge $-1 $190 $190 $-1 $286 reversed $115 $-1 #
edge $-1 $287 0 $287 6.2831853071796004 $116 $288 forward 7 unknown #
vertex $-1 $119 $289 #
ellipse-curve $-1 -13.369774707361145 23.819700934684597 5.3275177048703268 0 0.62932039886446345 0.77714595512881146 1 0 0 1 I I #
face $-1 $-1 $135 $18 $-1 $290 reversed single #
loop $-1 $-1 $210 $120 #
plane-surface $-1 0 26.517845055997135 0 0 -1 0 0 0 -1 forward_v I I I I #
coedge $-1 $291 $208 $211 $292 forward $121 $-1 #
coedge $-1 $214 $123 $124 $202 reversed $75 $-1 #
coedge $-1 $208 $291 $123 $200 reversed $121 $-1 #
edge $-1 $215 -7.5124317784908659 $293 7.5124317784908659 $199 $294 forward 7 unknown #
coedge $-1 $125 $124 $291 $295 forward $49 $-1 #
edge $-1 $206 -50.521561326944791 $293 50.521561326944791 $198 $296 forward 7 unknown #
coedge $-1 $211 $210 $125 $204 reversed $195 $-1 #
edge $-1 $297 -50.521561326944791 $205 50.521561326944791 $203 $298 forward 7 unknown #
vertex $-1 $127 $299 #
vertex $-1 $217 $300 #
straight-curve $-1 50.521561326944791 0 -7.5124317784908659 0 -1 0 I I #
coedge $-1 $197 $199 $128 $209 reversed $121 $-1 #
edge $-1 $212 -26.517845055997135 $215 26.517845055997135 $208 $301 forward 7 unknown #
coedge $-1 $203 $129 $134 $218 forward $195 $-1 #
coedge $-1 $129 $203 $197 $292 reversed $195 $-1 #
vertex $-1 $130 $302 #
straight-curve $-1 0 26.517845055997135 7.5124317784908659 -1 0 0 I I #
coedge $-1 $131 $198 $133 $217 reversed $75 $-1 #
vertex $-1 $209 $303 #
straight-curve $-1 0 -26.517845055997135 7.5124317784908659 1 0 0 I I #
edge $-1 $136 -7.5124317784908659 $206 7.5124317784908659 $133 $304 forward 7 unknown #
edge $-1 $137 -7.5124317784908659 $205 7.5124317784908659 $134 $305 forward 7 unknown #
point $-1 50.521561326944791 -26.517845055997135 7.5124317784908659 #
point $-1 50.521561326944791 26.517845055997135 7.5124317784908659 #
face $-1 $-1 $237 $19 $-1 $306 forward single #
plane-surface $-1 -53.733719143769974 -11.492981499015404 0 0 -1 0 0 0 -1 forward_v I I I I #
coedge $-1 $307 $308 $240 $309 forward $140 $-1 #
coedge $-1 $233 $142 $143 $229 reversed $83 $-1 #
coedge $-1 $142 $233 $236 $310 reversed $83 $-1 #
coedge $-1 $308 $307 $142 $227 reversed $140 $-1 #
edge $-1 $311 -7.5124317784908659 $312 7.5124317784908659 $226 $313 forward 7 unknown #
coedge $-1 $144 $143 $307 $314 forward $53 $-1 #
edge $-1 $231 -3.212157816825183 $312 3.212157816825183 $224 $315 forward 7 unknown #
edge $-1 $316 -3.212157816825183 $152 3.212157816825183 $149 $317 forward 7 unknown #
vertex $-1 $229 $318 #
straight-curve $-1 -50.521561326944791 0 -7.5124317784908659 0 -1 0 I I #
coedge $-1 $225 $224 $146 $234 reversed $83 $-1 #
edge $-1 $238 -7.5124317784908659 $231 7.5124317784908659 $233 $319 forward 7 unknown #
coedge $-1 $320 $147 $150 $241 forward $237 $-1 #
coedge $-1 $147 $320 $225 $310 forward $237 $-1 #
loop $-1 $-1 $147 $221 #
vertex $-1 $148 $321 #
straight-curve $-1 -50.521561326944791 0 7.5124317784908659 0 1 0 I I #
coedge $-1 $150 $149 $223 $309 reversed $151 $-1 #
edge $-1 $153 -3.212157816825183 $322 3.212157816825183 $150 $323 forward 7 unknown #
point $-1 -50.521561326944791 -11.492981499015404 -7.5124317784908659 #
point $-1 -50.521561326944791 -11.492981499015404 7.5124317784908659 #
face $-1 $-1 $258 $20 $-1 $324 reversed single #
loop $-1 $-1 $325 $155 #
plane-surface $-1 59.656872789040605 0 -5.640479685586417 -1 0 0 0 0 1 forward_v I I I I #
coedge $-1 $166 $165 $326 $327 forward $156 $-1 #
coedge $-1 $328 $158 $257 $329 forward $91 $-1 #
coedge $-1 $158 $328 $159 $252 forward $91 $-1 #
edge $-1 $254 -26.517845055997135 $259 26.517845055997135 $158 $330 forward 7 unknown #
coedge $-1 $160 $159 $325 $331 reversed $57 $-1 #
edge $-1 $332 -4.5676557310479069 $254 4.5676557310479069 $159 $333 forward 7 unknown #
edge $-1 $167 -4.5676557310479069 $334 4.5676557310479069 $160 $335 forward 7 unknown #
vertex $-1 $250 $336 #
straight-curve $-1 50.521561326944791 -26.517845055997135 0 0 0 -1 I I #
coedge $-1 $337 $163 $166 $261 reversed $258 $-1 #
coedge $-1 $163 $337 $248 $329 reversed $258 $-1 #
loop $-1 $-1 $163 $244 #
vertex $-1 $329 $338 #
straight-curve $-1 50.521561326944791 26.517845055997135 0 0 0 1 I I #
edge $-1 $339 -4.5676557310479069 $168 4.5676557310479069 $256 $340 forward 7 unknown #
point $-1 50.521561326944791 -26.517845055997135 -3.7685275926819681 #
point $-1 50.521561326944791 26.517845055997135 -3.7685275926819681 #
plane-surface $-1 0 0 7.5124317784908659 0 0 1 1 0 0 forward_v I I I I #
coedge $-1 $275 $274 $267 $341 forward $171 $-1 #
coedge $-1 $267 $173 $175 $271 reversed $99 $-1 #
coedge $-1 $173 $266 $265 $341 reversed $99 $-1 #
coedge $-1 $181 $176 $173 $269 forward $182 $-1 #
edge $-1 $272 -3.3233788161541362 $342 2.0729094264709467 $268 $343 forward 7 unknown #
coedge $-1 $175 $174 $275 $344 reversed $61 $-1 #
edge $-1 $345 -53.035690111994271 $272 -46.091964538938115 $266 $346 forward 7 unknown #
vertex $-1 $177 $347 #
straight-curve $-1 -8.4478873172781306 21.121556813372052 7.5124317784908605 1 0 0 I I #
coedge $-1 $265 $178 $181 $279 reversed $171 $-1 #
coedge $-1 $178 $265 $270 $344 forward $171 $-1 #
vertex $-1 $179 $348 #
straight-curve $-1 -25.123107798011532 26.517845055997135 57.522149675318381 0 0 1 I I #
straight-curve $-1 -25.123107798011532 -14.698626992004314 36.519045286582099 0 0.77714595512881146 -0.62932039886446345 I I #
edge $-1 $342 8.6684414711009907 $183 25.123107798011532 $274 $349 forward 7 unknown #
point $-1 -25.123107798011532 26.517845055997135 7.5124317784908659 #
point $-1 -25.123107798011532 21.121556813372052 7.5124317784908641 #
edge $-1 $350 1 $350 0 $186 $-1 forward 7 unknown #
vertex $-1 $187 $351 #
ellipse-curve $-1 -20.421774561751377 22.782446783206794 4.046615528942052 0 0.62932039886446345 0.77714595512881146 1 0 0 1 I I #
point $-1 -19.421774561751377 23.819700934684594 5.3275177048703251 #
edge $-1 $352 1 $352 0 $190 $-1 forward 7 unknown #
vertex $-1 $191 $353 #
ellipse-curve $-1 -13.369774707361145 22.782446783206794 4.046615528942052 0 0.62932039886446345 0.77714595512881146 1 0 0 1 I I #
point $-1 -12.369774707361145 23.819700934684594 5.3275177048703251 #
plane-surface $-1 50.521561326944791 0 0 -1 0 0 0 0 1 forward_v I I I I #
coedge $-1 $199 $197 $201 $295 reversed $121 $-1 #
edge $-1 $212 -7.5124317784908659 $297 7.5124317784908659 $211 $354 forward 7 unknown #
vertex $-1 $295 $355 #
straight-curve $-1 -50.521561326944791 -26.517845055997135 0 0 0 -1 I I #
edge $-1 $293 -26.517845055997135 $297 26.517845055997135 $291 $356 forward 7 unknown #
straight-curve $-1 0 -26.517845055997135 -7.5124317784908659 -1 0 0 I I #
vertex $-1 $204 $357 #
straight-curve $-1 0 26.517845055997135 -7.5124317784908659 1 0 0 I I #
point $-1 50.521561326944791 26.517845055997135 -7.5124317784908659 #
point $-1 50.521561326944791 -26.517845055997135 -7.5124317784908659 #
straight-curve $-1 -50.521561326944791 0 7.5124317784908659 0 -1 0 I I #
point $-1 -50.521561326944791 26.517845055997135 7.5124317784908659 #
point $-1 -50.521561326944791 -26.517845055997135 7.5124317784908659 #
straight-curve $-1 50.521561326944791 -26.517845055997135 0 0 0 -1 I I #
straight-curve $-1 50.521561326944791 26.517845055997135 0 0 0 -1 I I #
plane-surface $-1 0 0 7.5124317784908659 0 0 1 1 0 0 forward_v I I I I #
coedge $-1 $226 $223 $228 $314 reversed $140 $-1 #
coedge $-1 $223 $226 $320 $358 reversed $140 $-1 #
edge $-1 $322 -7.5124317784908659 $316 7.5124317784908659 $240 $359 forward 7 unknown #
edge $-1 $311 -3.212157816825183 $238 3.212157816825183 $225 $360 forward 7 unknown #
vertex $-1 $358 $361 #
vertex $-1 $314 $362 #
straight-curve $-1 -56.945876960595157 -15.977330329491622 0 0 0 -1 I I #
edge $-1 $312 -2.2421744152381091 $316 2.2421744152381091 $307 $363 forward 7 unknown #
straight-curve $-1 -53.733719143769974 -15.977330329491622 -7.5124317784908659 -1 0 0 I I #
vertex $-1 $230 $364 #
straight-curve $-1 -53.733719143769974 -11.492981499015404 -7.5124317784908659 1 0 0 I I #
point $-1 -50.521561326944791 -15.977330329491622 -7.5124317784908659 #
straight-curve $-1 -50.521561326944791 -15.977330329491622 0 0 0 -1 I I #
coedge $-1 $236 $235 $308 $358 forward $237 $-1 #
point $-1 -50.521561326944791 -15.977330329491622 7.5124317784908659 #
vertex $-1 $241 $365 #
straight-curve $-1 -53.733719143769974 -11.492981499015404 7.5124317784908659 -1 0 0 I I #
plane-surface $-1 0 26.517845055997135 0 0 -1 0 0 0 -1 forward_v I I I I #
coedge $-1 $366 $326 $251 $331 forward $245 $-1 #
coedge $-1 $325 $367 $247 $327 reversed $245 $-1 #
edge $-1 $334 -26.517845055997135 $339 26.517845055997135 $326 $368 forward 7 unknown #
coedge $-1 $249 $248 $366 $369 forward $91 $-1 #
edge $-1 $259 -4.5676557310479069 $370 4.5676557310479069 $257 $371 forward 7 unknown #
straight-curve $-1 50.521561326944791 0 -7.5124317784908659 0 1 0 I I #
edge $-1 $334 -1.8719520929044489 $332 1.8719520929044489 $325 $372 forward 7 unknown #
vertex $-1 $331 $373 #
straight-curve $-1 55.089217057992698 -26.517845055997135 -7.5124317784908659 -1 0 0 I I #
vertex $-1 $327 $374 #
straight-curve $-1 55.089217057992698 -26.517845055997135 -3.7685275926819681 1 0 0 I I #
point $-1 50.521561326944791 -26.517845055997135 -7.5124317784908659 #
coedge $-1 $257 $256 $367 $375 forward $258 $-1 #
point $-1 50.521561326944791 26.517845055997135 -7.5124317784908659 #
vertex $-1 $327 $376 #
straight-curve $-1 55.089217057992698 26.517845055997135 -3.7685275926819681 -1 0 0 I I #
edge $-1 $342 50.009717896827517 $345 54.379546044068597 $265 $377 forward 7 unknown #
vertex $-1 $279 $378 #
straight-curve $-1 -8.6684414711009907 24.444935629526189 7.5124317784908641 0 1 0 I I #
edge $-1 $345 0.22055415382286014 $276 16.675220480733401 $275 $379 forward 7 unknown #
vertex $-1 $344 $380 #
straight-curve $-1 -8.6684414711009907 -14.698626992004314 36.519045286582099 0 -0.77714595512881146 0.62932039886446345 I I #
point $-1 -8.6684414711009907 21.121556813372052 7.5124317784908641 #
point $-1 -25.123107798011532 26.517845055997135 3.1426036312497843 #
straight-curve $-1 0 26.517845055997135 7.5124317784908659 -1 0 0 I I #
vertex $-1 $282 $381 #
point $-1 -19.421774561751377 22.782446783206794 4.046615528942052 #
vertex $-1 $286 $382 #
point $-1 -12.369774707361145 22.782446783206794 4.046615528942052 #
straight-curve $-1 -50.521561326944791 26.517845055997135 0 0 0 -1 I I #
point $-1 -50.521561326944791 -26.517845055997135 -7.5124317784908659 #
straight-curve $-1 -50.521561326944791 0 -7.5124317784908659 0 1 0 I I #
point $-1 -50.521561326944791 26.517845055997135 -7.5124317784908659 #
edge $-1 $322 -2.2421744152381091 $311 2.2421744152381091 $308 $383 forward 7 unknown #
straight-curve $-1 -56.945876960595157 -11.492981499015404 0 0 0 -1 I I #
straight-curve $-1 -53.733719143769974 -15.977330329491622 7.5124317784908659 1 0 0 I I #
point $-1 -56.945876960595157 -15.977330329491622 7.5124317784908659 #
point $-1 -56.945876960595157 -15.977330329491622 -7.5124317784908659 #
straight-curve $-1 -56.945876960595157 -13.735155914253513 -7.5124317784908659 0 1 0 I I #
point $-1 -56.945876960595157 -11.492981499015404 -7.5124317784908659 #
point $-1 -56.945876960595157 -11.492981499015404 7.5124317784908659 #
coedge $-1 $367 $325 $328 $369 reversed $245 $-1 #
coedge $-1 $326 $366 $337 $375 reversed $245 $-1 #
straight-curve $-1 59.656872789040605 0 -3.7685275926819681 0 1 0 I I #
edge $-1 $370 -26.517845055997135 $332 26.517845055997135 $366 $384 forward 7 unknown #
vertex $-1 $369 $385 #
straight-curve $-1 55.089217057992698 26.517845055997135 -7.5124317784908659 1 0 0 I I #
straight-curve $-1 59.656872789040605 -26.517845055997135 -5.640479685586417 0 0 -1 I I #
point $-1 59.656872789040605 -26.517845055997135 -7.5124317784908659 #
point $-1 59.656872789040605 -26.517845055997135 -3.7685275926819681 #
edge $-1 $339 -1.8719520929044489 $370 1.8719520929044489 $367 $386 forward 7 unknown #
point $-1 59.656872789040605 26.517845055997135 -3.7685275926819681 #
straight-curve $-1 -8.6684414711009907 26.517845055997135 57.522149675318381 0 0 -1 I I #
point $-1 -8.6684414711009907 26.517845055997135 7.5124317784908659 #
straight-curve $-1 -8.4478873172781306 26.517845055997132 3.1426036312497878 -1 0 0 I I #
point $-1 -8.6684414711009907 26.517845055997135 3.1426036312497843 #
point $-1 -20.421774561751377 22.153126384342329 3.2694695738132395 #
point $-1 -13.369774707361145 22.153126384342329 3.2694695738132395 #
straight-curve $-1 -56.945876960595157 -13.735155914253513 7.5124317784908659 0 -1 0 I I #
straight-curve $-1 59.656872789040605 0 -7.5124317784908659 0 -1 0 I I #
point $-1 59.656872789040605 26.517845055997135 -7.5124317784908659 #
straight-curve $-1 59.656872789040605 26.517845055997135 -5.640479685586417 0 0 -1 I I #
End-of-ACIS-data 