500 0 11 0           
7 Unknown 11 ACIS 5.0 NT 24 Fri Mar 26 18:52:49 1999 
-1 9.9999999999999995e-007 1e-010 
body $-1 $11 $-1 $12 #
body $-1 $13 $-1 $14 #
body $-1 $15 $-1 $16 #
body $-1 $17 $-1 $18 #
body $-1 $19 $-1 $20 #
body $-1 $21 $-1 $22 #
body $-1 $23 $-1 $24 #
body $-1 $25 $-1 $26 #
body $-1 $27 $-1 $28 #
body $-1 $29 $-1 $30 #
body $-1 $31 $-1 $32 #
lump $-1 $-1 $33 $0 #
transform $-1 1 0 0 0 1 0 0 0 1 48.673360393078404 25.781269050638411 7.4779606711349098 1 rotate no_reflect no_shear #
lump $-1 $-1 $34 $1 #
transform $-1 1 0 0 0 1 0 0 0 1 48.673360393078404 25.781269050638411 7.4779606711349098 1 rotate no_reflect no_shear #
lump $-1 $-1 $35 $2 #
transform $-1 1 0 0 0 1 0 0 0 1 48.673360393078404 25.781269050638411 7.4779606711349098 1 rotate no_reflect no_shear #
lump $-1 $-1 $36 $3 #
transform $-1 1 0 0 0 1 0 0 0 1 48.673360393078404 25.781269050638411 7.4779606711349098 1 rotate no_reflect no_shear #
lump $-1 $-1 $37 $4 #
transform $-1 1 0 0 0 1 0 0 0 1 48.673360393078404 25.781269050638411 7.4779606711349098 1 rotate no_reflect no_shear #
lump $-1 $-1 $38 $5 #
transform $-1 1 0 0 0 1 0 0 0 1 48.673360393078404 25.781269050638411 7.4779606711349098 1 rotate no_reflect no_shear #
lump $-1 $-1 $39 $6 #
transform $-1 1 0 0 0 1 0 0 0 1 48.673360393078404 25.781269050638411 7.4779606711349098 1 rotate no_reflect no_shear #
lump $-1 $-1 $40 $7 #
transform $-1 1 0 0 0 1 0 0 0 1 48.673360393078404 25.781269050638411 7.4779606711349098 1 rotate no_reflect no_shear #
lump $-1 $-1 $41 $8 #
transform $-1 1 0 0 0 1 0 0 0 1 48.673360393078404 25.781269050638411 7.4779606711349098 1 rotate no_reflect no_shear #
lump $-1 $-1 $42 $9 #
transform $-1 1 0 0 0 1 0 0 0 1 48.673360393078404 25.781269050638411 7.4779606711349098 1 rotate no_reflect no_shear #
lump $-1 $-1 $43 $10 #
transform $-1 1 0 0 0 1 0 0 0 1 48.673360393078404 25.781269050638411 7.4779606711349098 1 rotate no_reflect no_shear #
shell $-1 $-1 $-1 $44 $-1 $11 #
shell $-1 $-1 $-1 $45 $-1 $13 #
shell $-1 $-1 $-1 $46 $-1 $15 #
shell $-1 $-1 $-1 $47 $-1 $17 #
shell $-1 $-1 $-1 $48 $-1 $19 #
shell $-1 $-1 $-1 $49 $-1 $21 #
shell $-1 $-1 $-1 $50 $-1 $23 #
shell $-1 $-1 $-1 $51 $-1 $25 #
shell $-1 $-1 $-1 $52 $-1 $27 #
shell $-1 $-1 $-1 $53 $-1 $29 #
shell $-1 $-1 $-1 $54 $-1 $31 #
face $-1 $55 $56 $33 $-1 $57 forward single #
face $-1 $58 $59 $34 $-1 $60 forward single #
face $-1 $61 $62 $35 $-1 $63 reversed single #
face $-1 $64 $65 $36 $-1 $66 forward single #
face $-1 $67 $68 $37 $-1 $69 forward single #
face $-1 $70 $71 $38 $-1 $72 reversed single #
face $-1 $73 $74 $39 $-1 $75 forward single #
face $-1 $76 $77 $40 $-1 $78 forward single #
face $-1 $79 $80 $41 $-1 $81 reversed single #
face $-1 $82 $83 $42 $-1 $84 forward single #
face $-1 $85 $86 $43 $-1 $87 forward single #
face $-1 $88 $89 $33 $-1 $90 reversed single #
loop $-1 $-1 $91 $44 #
plane-surface $-1 0 0 7.4779606711349098 0 0 1 1 0 0 forward_v I I I I #
face $-1 $92 $93 $34 $-1 $94 reversed single #
loop $-1 $-1 $95 $45 #
plane-surface $-1 0 -22.013592808372493 0.099726671409874346 0 0 1 1 0 0 forward_v I I I I #
face $-1 $96 $97 $35 $-1 $98 reversed single #
loop $-1 $-1 $99 $46 #
plane-surface $-1 67.833191238835667 14.013336616747118 138.41306889590828 0 1 0 0.79863551827123203 0 0.60181501223851219 forward_v I I I I #
face $-1 $100 $101 $36 $-1 $102 forward single #
loop $-1 $103 $104 $47 #
cone-surface $-1 46.17477990310843 17.375603026430344 4.4295854082822954 -0.79863551827123203 0 -0.60181501223851219 0.60181501223851219 0 -0.79863551827123203 1 I I 0 1 1 forward I I I I #
face $-1 $105 $106 $37 $-1 $107 forward single #
loop $-1 $108 $109 $48 #
cone-surface $-1 46.17477990310843 22.419002640955188 4.4295854082822954 -0.79863551827123203 0 -0.60181501223851219 0.60181501223851219 0 -0.79863551827123203 1 I I 0 1 1 forward I I I I #
face $-1 $110 $111 $38 $-1 $112 reversed single #
loop $-1 $-1 $113 $49 #
plane-surface $-1 -107.25808015844868 -6.4761899441371362 78.58842717854948 0 1 0 -0.6018150307709319 0 0.79863550430605224 forward_v I I I I #
face $-1 $114 $115 $39 $-1 $116 forward single #
loop $-1 $117 $118 $50 #
cone-surface $-1 -43.22823611480726 -3.5493710337362643 2.7764634844301668 0.6018150307709319 0 -0.79863550430605224 0.79863550430605224 0 0.6018150307709319 1 I I 0 1 1 forward I I I I #
face $-1 $119 $120 $40 $-1 $121 forward single #
loop $-1 $122 $123 $51 #
cone-surface $-1 -43.22823611480726 0.84085733186504186 2.7764634844301668 0.6018150307709319 0 -0.79863550430605224 0.79863550430605224 0 0.6018150307709319 1 I I 0 1 1 forward I I I I #
face $-1 $124 $125 $41 $-1 $126 reversed single #
loop $-1 $-1 $127 $52 #
plane-surface $-1 -48.673360393078404 -1.3542568509356094 0.84387973095668656 -0.6018150307709319 0 0.79863550430605224 0.79863550430605224 0 0.6018150307709319 forward_v I I I I #
face $-1 $128 $129 $42 $-1 $130 forward single #
loop $-1 $131 $132 $53 #
cone-surface $-1 -43.22823611480726 6.6944951526667857 2.7764634844301668 0.6018150307709319 0 -0.79863550430605224 0.79863550430605224 0 0.6018150307709319 1 I I 0 1 1 forward I I I I #
face $-1 $133 $134 $43 $-1 $135 forward single #
loop $-1 $136 $137 $54 #
cone-surface $-1 -43.22823611480726 11.084723518268095 2.7764634844301668 0.6018150307709319 0 -0.79863550430605224 0.79863550430605224 0 0.6018150307709319 1 I I 0 1 1 forward I I I I #
face $-1 $138 $139 $33 $-1 $140 reversed single #
loop $-1 $-1 $141 $55 #
plane-surface $-1 0 0 -7.4779606711349098 0 0 1 1 0 0 forward_v I I I I #
coedge $-1 $142 $143 $144 $145 forward $56 $-1 #
face $-1 $146 $147 $34 $-1 $148 reversed single #
loop $-1 $-1 $149 $58 #
plane-surface $-1 0 -22.013592808372493 -3.0143748496907539 0 0 1 1 0 0 forward_v I I I I #
coedge $-1 $150 $151 $152 $153 reversed $59 $-1 #
face $-1 $154 $155 $35 $-1 $156 forward single #
loop $-1 $-1 $157 $61 #
plane-surface $-1 -9.9113575682215895 19.897302833692766 79.828350934608295 0.79863551827123203 0 0.60181501223851219 0.60181501223851219 0 -0.79863551827123203 forward_v I I I I #
coedge $-1 $158 $159 $160 $161 reversed $62 $-1 #
face $-1 $-1 $162 $36 $-1 $163 forward single #
loop $-1 $164 $165 $64 #
cone-surface $-1 45.309276604925181 17.375603026430344 3.7773819111023377 -0.79863551827123203 0 -0.60181501223851219 0.3009075061192561 0 -0.39931775913561601 1 I I -0.70710678118654746 0.70710678118654746 0.5 forward I I I I #
loop $-1 $-1 $166 $47 #
coedge $-1 $104 $104 $167 $168 reversed $65 $-1 #
face $-1 $-1 $169 $37 $-1 $170 forward single #
loop $-1 $171 $172 $67 #
cone-surface $-1 45.309276604925181 22.419002640955188 3.7773819111023377 -0.79863551827123203 0 -0.60181501223851219 0.3009075061192561 0 -0.39931775913561601 1 I I -0.70710678118654746 0.70710678118654746 0.5 forward I I I I #
loop $-1 $-1 $173 $48 #
coedge $-1 $109 $109 $174 $175 reversed $68 $-1 #
face $-1 $176 $177 $38 $-1 $178 reversed single #
loop $-1 $-1 $179 $70 #
plane-surface $-1 -48.673360393078404 -1.3542568509356094 0.84387973095668656 -0.6018150307709319 0 0.79863550430605224 0.79863550430605224 0 0.6018150307709319 forward_v I I I I #
coedge $-1 $180 $181 $182 $183 reversed $71 $-1 #
face $-1 $-1 $184 $39 $-1 $185 forward single #
loop $-1 $186 $187 $73 #
cone-surface $-1 -41.884065612716697 -3.5493710337362643 0.99268901566150536 0.6018150307709319 0 -0.79863550430605224 0.39931775215302612 0 0.30090751538546595 1 I I -0.70710678118654746 0.70710678118654746 0.5 forward I I I I #
loop $-1 $-1 $188 $50 #
coedge $-1 $118 $118 $189 $190 reversed $74 $-1 #
face $-1 $-1 $191 $40 $-1 $192 forward single #
loop $-1 $193 $194 $76 #
cone-surface $-1 -41.884065612716697 0.84085733186504186 0.99268901566150536 0.6018150307709319 0 -0.79863550430605224 0.39931775215302612 0 0.30090751538546595 1 I I -0.70710678118654746 0.70710678118654746 0.5 forward I I I I #
loop $-1 $-1 $195 $51 #
coedge $-1 $123 $123 $196 $197 reversed $77 $-1 #
face $-1 $198 $199 $41 $-1 $200 forward single #
loop $-1 $-1 $201 $79 #
plane-surface $-1 -107.25808015844868 14.011542428668971 78.58842717854948 0 -1 0 0.6018150307709319 0 -0.79863550430605224 forward_v I I I I #
coedge $-1 $202 $203 $204 $205 reversed $80 $-1 #
face $-1 $-1 $206 $42 $-1 $207 forward single #
loop $-1 $208 $209 $82 #
cone-surface $-1 -41.884065612716697 6.6944951526667857 0.99268901566150536 0.6018150307709319 0 -0.79863550430605224 0.39931775215302612 0 0.30090751538546595 1 I I -0.70710678118654746 0.70710678118654746 0.5 forward I I I I #
loop $-1 $-1 $210 $53 #
coedge $-1 $132 $132 $211 $212 reversed $83 $-1 #
face $-1 $-1 $213 $43 $-1 $214 forward single #
loop $-1 $215 $216 $85 #
cone-surface $-1 -41.884065612716697 11.084723518268095 0.99268901566150536 0.6018150307709319 0 -0.79863550430605224 0.39931775215302612 0 0.30090751538546595 1 I I -0.70710678118654746 0.70710678118654746 0.5 forward I I I I #
loop $-1 $-1 $217 $54 #
coedge $-1 $137 $137 $218 $219 reversed $86 $-1 #
face $-1 $220 $221 $33 $-1 $222 reversed single #
loop $-1 $-1 $223 $88 #
plane-surface $-1 0 -25.781269050638411 0 0 1 0 0 0 1 forward_v I I I I #
coedge $-1 $224 $225 $226 $227 forward $89 $-1 #
coedge $-1 $228 $91 $229 $230 forward $56 $-1 #
coedge $-1 $91 $228 $231 $232 forward $56 $-1 #
coedge $-1 $233 $234 $91 $145 reversed $235 $-1 #
edge $-1 $236 -25.781269050638411 $237 25.781269050638411 $144 $238 forward 7 unknown #
face $-1 $239 $240 $34 $-1 $241 reversed single #
loop $-1 $-1 $242 $92 #
plane-surface $-1 0 -18.245916566106576 -1.4573240891404398 0 -1 0 0 0 -1 forward_v I I I I #
coedge $-1 $243 $244 $245 $246 reversed $93 $-1 #
coedge $-1 $247 $95 $248 $249 forward $59 $-1 #
coedge $-1 $95 $247 $250 $251 reversed $59 $-1 #
coedge $-1 $252 $253 $95 $153 forward $254 $-1 #
edge $-1 $255 7.2391201619203294 $256 14.774472646452164 $152 $257 forward 7 unknown #
face $-1 $258 $259 $35 $-1 $260 reversed single #
loop $-1 $-1 $261 $96 #
plane-surface $-1 0 0 7.4779606711349098 0 0 1 1 0 0 forward_v I I I I #
coedge $-1 $262 $263 $264 $265 reversed $97 $-1 #
coedge $-1 $159 $99 $266 $267 reversed $62 $-1 #
coedge $-1 $99 $158 $262 $268 reversed $62 $-1 #
coedge $-1 $264 $269 $99 $161 forward $259 $-1 #
edge $-1 $270 61.728573776819232 $271 67.122732320403117 $160 $272 forward 7 unknown #
loop $-1 $-1 $167 $100 #
plane-surface $-1 -9.9113575682215895 19.897302833692766 79.828350934608295 0.79863551827123203 0 0.60181501223851219 0.60181501223851219 0 -0.79863551827123203 forward_v I I I I #
loop $-1 $-1 $273 $64 #
coedge $-1 $165 $165 $166 $274 reversed $101 $-1 #
coedge $-1 $166 $166 $165 $274 forward $103 $-1 #
coedge $-1 $167 $167 $104 $168 forward $162 $-1 #
edge $-1 $275 0 $275 6.2831853071796004 $167 $276 forward 7 unknown #
loop $-1 $-1 $174 $105 #
plane-surface $-1 -9.9113575682215895 19.897302833692766 79.828350934608295 0.79863551827123203 0 0.60181501223851219 0.60181501223851219 0 -0.79863551827123203 forward_v I I I I #
loop $-1 $-1 $277 $67 #
coedge $-1 $172 $172 $173 $278 reversed $106 $-1 #
coedge $-1 $173 $173 $172 $278 forward $108 $-1 #
coedge $-1 $174 $174 $109 $175 forward $169 $-1 #
edge $-1 $279 0 $279 6.2831853071796004 $174 $280 forward 7 unknown #
face $-1 $281 $282 $38 $-1 $283 reversed single #
loop $-1 $-1 $284 $110 #
plane-surface $-1 -107.25808015844868 3.7676762422659174 78.58842717854948 0 -1 0 0.6018150307709319 0 -0.79863550430605224 forward_v I I I I #
coedge $-1 $285 $286 $287 $288 reversed $111 $-1 #
coedge $-1 $181 $113 $289 $290 reversed $71 $-1 #
coedge $-1 $113 $180 $285 $291 reversed $71 $-1 #
coedge $-1 $287 $292 $113 $183 forward $293 $-1 #
edge $-1 $294 4.9556796861459347 $295 13.759402269278056 $182 $296 forward 7 unknown #
loop $-1 $-1 $189 $114 #
plane-surface $-1 -48.673360393078404 -1.3542568509356094 0.84387973095668656 -0.6018150307709319 0 0.79863550430605224 0.79863550430605224 0 0.6018150307709319 forward_v I I I I #
loop $-1 $-1 $297 $73 #
coedge $-1 $187 $187 $188 $298 reversed $115 $-1 #
coedge $-1 $188 $188 $187 $298 forward $117 $-1 #
coedge $-1 $189 $189 $118 $190 forward $184 $-1 #
edge $-1 $299 0 $299 6.2831853071796004 $189 $300 forward 7 unknown #
loop $-1 $-1 $196 $119 #
plane-surface $-1 -48.673360393078404 -1.3542568509356094 0.84387973095668656 -0.6018150307709319 0 0.79863550430605224 0.79863550430605224 0 0.6018150307709319 forward_v I I I I #
loop $-1 $-1 $301 $76 #
coedge $-1 $194 $194 $195 $302 reversed $120 $-1 #
coedge $-1 $195 $195 $194 $302 forward $122 $-1 #
coedge $-1 $196 $196 $123 $197 forward $191 $-1 #
edge $-1 $303 0 $303 6.2831853071796004 $196 $304 forward 7 unknown #
face $-1 $305 $306 $41 $-1 $307 forward single #
loop $-1 $-1 $308 $124 #
plane-surface $-1 0 0 7.4779606711349098 0 0 1 1 0 0 forward_v I I I I #
coedge $-1 $309 $310 $311 $312 reversed $125 $-1 #
coedge $-1 $313 $127 $314 $315 reversed $80 $-1 #
coedge $-1 $127 $313 $308 $316 reversed $80 $-1 #
coedge $-1 $317 $318 $127 $205 forward $306 $-1 #
edge $-1 $319 0 $320 11.023455050100512 $204 $321 forward 7 unknown #
loop $-1 $-1 $211 $128 #
plane-surface $-1 -48.673360393078404 -1.3542568509356094 0.84387973095668656 -0.6018150307709319 0 0.79863550430605224 0.79863550430605224 0 0.6018150307709319 forward_v I I I I #
loop $-1 $-1 $322 $82 #
coedge $-1 $209 $209 $210 $323 reversed $129 $-1 #
coedge $-1 $210 $210 $209 $323 forward $131 $-1 #
coedge $-1 $211 $211 $132 $212 forward $206 $-1 #
edge $-1 $324 0 $324 6.2831853071796004 $211 $325 forward 7 unknown #
loop $-1 $-1 $218 $133 #
plane-surface $-1 -48.673360393078404 -1.3542568509356094 0.84387973095668656 -0.6018150307709319 0 0.79863550430605224 0.79863550430605224 0 0.6018150307709319 forward_v I I I I #
loop $-1 $-1 $326 $85 #
coedge $-1 $216 $216 $217 $327 reversed $134 $-1 #
coedge $-1 $217 $217 $216 $327 forward $136 $-1 #
coedge $-1 $218 $218 $137 $219 forward $213 $-1 #
edge $-1 $328 0 $328 6.2831853071796004 $218 $329 forward 7 unknown #
face $-1 $330 $331 $33 $-1 $332 reversed single #
loop $-1 $-1 $333 $138 #
plane-surface $-1 -48.673360393078404 0 0 1 0 0 0 0 -1 forward_v I I I I #
coedge $-1 $334 $231 $335 $336 forward $139 $-1 #
coedge $-1 $337 $141 $334 $338 forward $89 $-1 #
coedge $-1 $141 $337 $339 $340 forward $89 $-1 #
coedge $-1 $234 $233 $141 $227 reversed $235 $-1 #
edge $-1 $341 -25.781269050638411 $342 25.781269050638411 $226 $343 forward 7 unknown #
coedge $-1 $143 $142 $344 $345 forward $56 $-1 #
coedge $-1 $346 $347 $142 $230 reversed $331 $-1 #
edge $-1 $237 -48.673360393078404 $348 48.673360393078404 $229 $349 forward 7 unknown #
coedge $-1 $223 $350 $143 $232 reversed $139 $-1 #
edge $-1 $351 -48.673360393078404 $236 48.673360393078404 $231 $352 forward 7 unknown #
coedge $-1 $226 $144 $350 $353 forward $235 $-1 #
coedge $-1 $144 $226 $346 $354 reversed $235 $-1 #
loop $-1 $-1 $233 $330 #
vertex $-1 $145 $355 #
vertex $-1 $145 $356 #
straight-curve $-1 48.673360393078404 0 7.4779606711349098 0 1 0 I I #
face $-1 $357 $358 $34 $-1 $359 reversed single #
loop $-1 $-1 $360 $146 #
plane-surface $-1 -48.673360393078404 0 0 1 0 0 0 0 -1 forward_v I I I I #
coedge $-1 $361 $248 $253 $362 reversed $147 $-1 #
coedge $-1 $363 $149 $364 $365 reversed $93 $-1 #
coedge $-1 $149 $363 $361 $366 forward $93 $-1 #
coedge $-1 $253 $252 $149 $246 forward $254 $-1 #
edge $-1 $367 -14.774472646452164 $368 -7.2391201619203294 $245 $369 forward 7 unknown #
coedge $-1 $151 $150 $360 $370 reversed $59 $-1 #
coedge $-1 $242 $371 $150 $249 reversed $147 $-1 #
edge $-1 $255 -48.673360393078404 $372 48.673360393078404 $248 $373 forward 7 unknown #
coedge $-1 $374 $375 $151 $251 forward $358 $-1 #
edge $-1 $256 -48.673360393078404 $376 48.673360393078404 $250 $377 forward 7 unknown #
coedge $-1 $245 $152 $375 $378 forward $254 $-1 #
coedge $-1 $152 $245 $242 $362 forward $254 $-1 #
loop $-1 $-1 $152 $357 #
vertex $-1 $153 $379 #
vertex $-1 $378 $380 #
straight-curve $-1 48.673360393078404 -11.006796404186247 0.099726671409874346 0 -1 0 I I #
face $-1 $-1 $381 $35 $-1 $382 reversed single #
loop $-1 $-1 $160 $154 #
plane-surface $-1 48.673360393078404 0 0 -1 0 0 0 0 1 forward_v I I I I #
coedge $-1 $266 $383 $384 $385 forward $155 $-1 #
coedge $-1 $384 $157 $159 $268 forward $97 $-1 #
coedge $-1 $157 $384 $386 $387 reversed $97 $-1 #
coedge $-1 $388 $160 $157 $265 forward $259 $-1 #
edge $-1 $271 4.064685199900735 $389 15.832617633792031 $264 $390 forward 7 unknown #
coedge $-1 $391 $261 $158 $267 forward $155 $-1 #
edge $-1 $392 10.69197487181588 $270 14.756764773660571 $266 $393 forward 7 unknown #
edge $-1 $271 -97.346720786156823 $392 -90.592502597538868 $159 $394 forward 7 unknown #
coedge $-1 $160 $388 $391 $395 reversed $259 $-1 #
vertex $-1 $395 $396 #
vertex $-1 $161 $397 #
straight-curve $-1 48.673360393078404 14.013336616747118 69.206534447954141 0 0 -1 I I #
coedge $-1 $273 $273 $-1 $398 reversed $164 $-1 #
edge $-1 $399 0 $399 6.2831853071796004 $165 $400 forward 7 unknown #
vertex $-1 $168 $401 #
ellipse-curve $-1 46.640965442156045 17.375603026430344 4.7808813993429835 0.79863551827123203 0 0.60181501223851219 0.60181501223851219 0 -0.79863551827123203 1 I I #
coedge $-1 $277 $277 $-1 $402 reversed $171 $-1 #
edge $-1 $403 0 $403 6.2831853071796004 $172 $404 forward 7 unknown #
vertex $-1 $175 $405 #
ellipse-curve $-1 46.640965442156045 22.419002640955188 4.7808813993429835 0.79863551827123203 0 0.60181501223851219 0.60181501223851219 0 -0.79863551827123203 1 I I #
face $-1 $-1 $293 $38 $-1 $406 forward single #
loop $-1 $-1 $407 $176 #
plane-surface $-1 -48.673360393078404 0 0 1 0 0 0 0 -1 forward_v I I I I #
coedge $-1 $408 $409 $410 $411 reversed $177 $-1 #
coedge $-1 $412 $179 $181 $291 forward $111 $-1 #
coedge $-1 $179 $412 $408 $413 forward $111 $-1 #
coedge $-1 $410 $182 $179 $288 forward $293 $-1 #
edge $-1 $295 -5.7990615186693315 $414 4.4448046677337221 $287 $415 forward 7 unknown #
coedge $-1 $416 $417 $180 $290 forward $282 $-1 #
edge $-1 $418 -38.450333858318054 $294 -31.816252918139831 $289 $419 forward 7 unknown #
edge $-1 $295 -11.023455050100512 $418 0 $181 $420 forward 7 unknown #
coedge $-1 $182 $410 $416 $421 forward $293 $-1 #
loop $-1 $-1 $410 $281 #
vertex $-1 $290 $422 #
vertex $-1 $183 $423 #
straight-curve $-1 -53.629040079224339 -6.4761899441371362 7.4779606711349089 1 0 0 I I #
coedge $-1 $297 $297 $-1 $424 reversed $186 $-1 #
edge $-1 $425 0 $425 6.2831853071796004 $187 $426 forward 7 unknown #
vertex $-1 $190 $427 #
ellipse-curve $-1 -44.271499101512347 -3.5493710337362643 4.1609202010457951 -0.6018150307709319 0 0.79863550430605224 0.79863550430605224 0 0.6018150307709319 1 I I #
coedge $-1 $301 $301 $-1 $428 reversed $193 $-1 #
edge $-1 $429 0 $429 6.2831853071796004 $194 $430 forward 7 unknown #
vertex $-1 $197 $431 #
ellipse-curve $-1 -44.271499101512347 0.84085733186504186 4.1609202010457951 -0.6018150307709319 0 0.79863550430605224 0.79863550430605224 0 0.6018150307709319 1 I I #
face $-1 $-1 $432 $41 $-1 $433 reversed single #
loop $-1 $-1 $317 $198 #
plane-surface $-1 -107.25808015844868 3.7676762422659174 78.58842717854948 0 -1 0 0.6018150307709319 0 -0.79863550430605224 forward_v I I I I #
coedge $-1 $311 $434 $203 $316 forward $199 $-1 #
coedge $-1 $310 $201 $313 $435 reversed $125 $-1 #
coedge $-1 $201 $309 $436 $437 reversed $125 $-1 #
coedge $-1 $438 $308 $201 $312 forward $199 $-1 #
edge $-1 $439 -13.759402269278056 $440 -4.9556796861459347 $311 $441 forward 7 unknown #
coedge $-1 $203 $202 $309 $435 forward $80 $-1 #
coedge $-1 $442 $436 $202 $315 forward $432 $-1 #
edge $-1 $443 -14.688670854136776 $319 -4.4448046677337221 $314 $444 forward 7 unknown #
edge $-1 $320 4.4448046677337221 $439 14.688670854136776 $308 $445 forward 7 unknown #
coedge $-1 $318 $204 $434 $446 reversed $306 $-1 #
coedge $-1 $204 $317 $442 $447 reversed $306 $-1 #
vertex $-1 $315 $448 #
vertex $-1 $316 $449 #
straight-curve $-1 -48.673360393078404 3.7676762422659174 0.84387973095668656 0.79863550430605224 0 0.6018150307709319 I I #
coedge $-1 $322 $322 $-1 $450 reversed $208 $-1 #
edge $-1 $451 0 $451 6.2831853071796004 $209 $452 forward 7 unknown #
vertex $-1 $212 $453 #
ellipse-curve $-1 -44.271499101512347 6.6944951526667857 4.1609202010457951 -0.6018150307709319 0 0.79863550430605224 0.79863550430605224 0 0.6018150307709319 1 I I #
coedge $-1 $326 $326 $-1 $454 reversed $215 $-1 #
edge $-1 $455 0 $455 6.2831853071796004 $216 $456 forward 7 unknown #
vertex $-1 $219 $457 #
ellipse-curve $-1 -44.271499101512347 11.084723518268095 4.1609202010457951 -0.6018150307709319 0 0.79863550430605224 0.79863550430605224 0 0.6018150307709319 1 I I #
face $-1 $-1 $235 $33 $-1 $458 reversed single #
loop $-1 $-1 $346 $220 #
plane-surface $-1 0 25.781269050638411 0 0 -1 0 0 0 -1 forward_v I I I I #
coedge $-1 $459 $344 $347 $460 forward $221 $-1 #
coedge $-1 $350 $223 $224 $338 reversed $139 $-1 #
coedge $-1 $344 $459 $223 $336 reversed $221 $-1 #
edge $-1 $351 -7.4779606711349098 $461 7.4779606711349098 $335 $462 forward 7 unknown #
coedge $-1 $225 $224 $459 $463 forward $89 $-1 #
edge $-1 $342 -48.673360393078404 $461 48.673360393078404 $334 $464 forward 7 unknown #
coedge $-1 $347 $346 $225 $340 reversed $331 $-1 #
edge $-1 $465 -48.673360393078404 $341 48.673360393078404 $339 $466 forward 7 unknown #
vertex $-1 $227 $467 #
vertex $-1 $353 $468 #
straight-curve $-1 48.673360393078404 0 -7.4779606711349098 0 -1 0 I I #
coedge $-1 $333 $335 $228 $345 reversed $221 $-1 #
edge $-1 $348 -25.781269050638411 $351 25.781269050638411 $344 $469 forward 7 unknown #
coedge $-1 $339 $229 $234 $354 forward $331 $-1 #
coedge $-1 $229 $339 $333 $460 reversed $331 $-1 #
vertex $-1 $230 $470 #
straight-curve $-1 0 25.781269050638411 7.4779606711349098 -1 0 0 I I #
coedge $-1 $231 $334 $233 $353 reversed $139 $-1 #
vertex $-1 $345 $471 #
straight-curve $-1 0 -25.781269050638411 7.4779606711349098 1 0 0 I I #
edge $-1 $236 -7.4779606711349098 $342 7.4779606711349098 $233 $472 forward 7 unknown #
edge $-1 $237 -7.4779606711349098 $341 7.4779606711349098 $234 $473 forward 7 unknown #
point $-1 48.673360393078404 -25.781269050638411 7.4779606711349098 #
point $-1 48.673360393078404 25.781269050638411 7.4779606711349098 #
face $-1 $-1 $254 $34 $-1 $474 reversed single #
loop $-1 $-1 $250 $239 #
plane-surface $-1 0 -25.781269050638411 0 0 1 0 0 0 1 forward_v I I I I #
coedge $-1 $475 $476 $247 $370 forward $240 $-1 #
coedge $-1 $371 $242 $244 $366 reversed $147 $-1 #
edge $-1 $368 -2.285712805120534 $255 0.82838871598009423 $253 $477 forward 7 unknown #
coedge $-1 $244 $243 $478 $479 reversed $93 $-1 #
coedge $-1 $375 $374 $243 $365 forward $358 $-1 #
edge $-1 $480 -48.673360393078404 $367 48.673360393078404 $364 $481 forward 7 unknown #
edge $-1 $482 -48.673360393078404 $368 48.673360393078404 $361 $483 forward 7 unknown #
vertex $-1 $365 $484 #
vertex $-1 $246 $485 #
straight-curve $-1 48.673360393078404 -11.006796404186247 -3.0143748496907539 0 1 0 I I #
edge $-1 $376 -14.774472646452164 $372 -7.2391201619203294 $360 $486 forward 7 unknown #
coedge $-1 $248 $361 $475 $487 reversed $147 $-1 #
vertex $-1 $370 $488 #
straight-curve $-1 0 -18.245916566106576 0.099726671409874346 -1 0 0 I I #
coedge $-1 $364 $250 $476 $489 forward $358 $-1 #
coedge $-1 $250 $364 $252 $378 reversed $358 $-1 #
vertex $-1 $489 $490 #
straight-curve $-1 0 -25.781269050638411 0.099726671409874346 -1 0 0 I I #
edge $-1 $256 -0.099726671409874346 $367 3.0143748496907539 $252 $491 forward 7 unknown #
point $-1 48.673360393078404 -18.245916566106576 0.099726671409874346 #
point $-1 48.673360393078404 -25.781269050638411 0.099726671409874346 #
loop $-1 $-1 $386 $258 #
plane-surface $-1 0 25.781269050638411 0 0 -1 0 0 0 -1 forward_v I I I I #
coedge $-1 $261 $391 $492 $493 forward $155 $-1 #
coedge $-1 $263 $262 $261 $385 reversed $97 $-1 #
edge $-1 $494 -15.832617633792031 $392 -4.064685199900735 $261 $495 forward 7 unknown #
coedge $-1 $492 $496 $263 $387 forward $381 $-1 #
edge $-1 $389 -62.487440687347707 $494 -55.733222498729752 $386 $497 forward 7 unknown #
coedge $-1 $269 $264 $496 $498 reversed $259 $-1 #
vertex $-1 $387 $499 #
straight-curve $-1 48.673360393078397 9.9486514168463831 2.0838021275510314 0 1 0 I I #
coedge $-1 $383 $266 $269 $395 forward $155 $-1 #
vertex $-1 $267 $500 #
straight-curve $-1 33.916595619417834 14.013336616747118 7.4779606711349089 1 0 0 I I #
straight-curve $-1 -9.9113575682215895 14.013336616747118 79.828350934608295 -0.60181501223851219 0 0.79863551827123203 I I #
edge $-1 $270 14.013336616747118 $501 25.781269050638411 $269 $502 forward 7 unknown #
point $-1 48.673360393078404 14.013336616747118 7.4779606711349098 #
point $-1 48.673360393078411 14.013336616747118 2.0838021275510243 #
edge $-1 $503 1 $503 0 $273 $-1 forward 7 unknown #
vertex $-1 $274 $504 #
ellipse-curve $-1 45.708594364060794 17.375603026430344 4.078289417221594 0.79863551827123203 0 0.60181501223851219 0.60181501223851219 0 -0.79863551827123203 1 I I #
point $-1 47.242780454394577 17.375603026430344 3.9822458810717656 #
edge $-1 $505 1 $505 0 $277 $-1 forward 7 unknown #
vertex $-1 $278 $506 #
ellipse-curve $-1 45.708594364060794 22.419002640955188 4.078289417221594 0.79863551827123203 0 0.60181501223851219 0.60181501223851219 0 -0.79863551827123203 1 I I #
point $-1 47.242780454394577 22.419002640955188 3.9822458810717656 #
plane-surface $-1 0 0 7.4779606711349098 0 0 1 1 0 0 forward_v I I I I #
coedge $-1 $417 $416 $409 $507 forward $282 $-1 #
coedge $-1 $409 $284 $286 $413 reversed $177 $-1 #
coedge $-1 $284 $408 $407 $507 reversed $177 $-1 #
coedge $-1 $292 $287 $284 $411 forward $293 $-1 #
edge $-1 $414 -13.759402269278056 $508 -4.9556796861459347 $410 $509 forward 7 unknown #
coedge $-1 $286 $285 $417 $510 reversed $111 $-1 #
edge $-1 $511 0 $414 11.023455050100512 $408 $512 forward 7 unknown #
vertex $-1 $288 $513 #
straight-curve $-1 -39.869637809946283 -0.67712842546780472 7.4779606711349107 0 1 0 I I #
coedge $-1 $407 $289 $292 $421 reversed $282 $-1 #
coedge $-1 $289 $407 $412 $510 forward $282 $-1 #
vertex $-1 $290 $514 #
straight-curve $-1 -48.673360393078404 -6.4761899441371362 39.29421358927474 0 0 1 I I #
straight-curve $-1 -48.673360393078404 -6.4761899441371362 0.84387973095668656 -0.79863550430605224 0 -0.6018150307709319 I I #
edge $-1 $508 -3.7676762422659174 $294 6.4761899441371362 $416 $515 forward 7 unknown #
point $-1 -48.673360393078404 -6.4761899441371362 7.4779606711349098 #
point $-1 -39.869637809946283 -6.4761899441371362 7.4779606711349098 #
edge $-1 $516 1 $516 0 $297 $-1 forward 7 unknown #
vertex $-1 $298 $517 #
ellipse-curve $-1 -42.184973128102165 -3.5493710337362643 1.3920067678145314 -0.6018150307709319 0 0.79863550430605224 0.79863550430605224 0 0.6018150307709319 1 I I #
point $-1 -43.472863597206299 -3.5493710337362643 4.762735231816734 #
edge $-1 $518 1 $518 0 $301 $-1 forward 7 unknown #
vertex $-1 $302 $519 #
ellipse-curve $-1 -42.184973128102165 0.84085733186504186 1.3920067678145314 -0.6018150307709319 0 0.79863550430605224 0.79863550430605224 0 0.6018150307709319 1 I I #
point $-1 -43.472863597206299 0.84085733186504186 4.762735231816734 #
loop $-1 $-1 $314 $305 #
plane-surface $-1 -48.673360393078404 0 0 1 0 0 0 0 -1 forward_v I I I I #
coedge $-1 $308 $438 $317 $446 forward $199 $-1 #
edge $-1 $443 0 $439 11.023455050100512 $309 $520 forward 7 unknown #
coedge $-1 $314 $521 $310 $437 forward $432 $-1 #
edge $-1 $440 31.816252918139831 $443 38.450333858318054 $436 $522 forward 7 unknown #
coedge $-1 $434 $311 $521 $523 forward $199 $-1 #
vertex $-1 $312 $524 #
vertex $-1 $523 $525 #
straight-curve $-1 -53.629040079224339 14.011542428668971 7.4779606711349089 -1 0 0 I I #
coedge $-1 $521 $314 $318 $447 forward $432 $-1 #
vertex $-1 $437 $526 #
straight-curve $-1 -48.673360393078404 -0.67712842546780472 0.843879730956685 0 -1 0 I I #
straight-curve $-1 -39.869637809946283 -0.67712842546780472 7.4779606711349107 0 1 0 I I #
edge $-1 $527 4.9556796861459347 $320 13.759402269278056 $434 $528 forward 7 unknown #
edge $-1 $319 -38.450333858318054 $527 -31.816252918139831 $442 $529 forward 7 unknown #
point $-1 -48.673360393078404 3.7676762422659174 0.84387973095668656 #
point $-1 -39.869637809946283 3.7676762422659174 7.4779606711349098 #
edge $-1 $530 1 $530 0 $322 $-1 forward 7 unknown #
vertex $-1 $323 $531 #
ellipse-curve $-1 -42.184973128102165 6.6944951526667857 1.3920067678145314 -0.6018150307709319 0 0.79863550430605224 0.79863550430605224 0 0.6018150307709319 1 I I #
point $-1 -43.472863597206299 6.6944951526667857 4.762735231816734 #
edge $-1 $532 1 $532 0 $326 $-1 forward 7 unknown #
vertex $-1 $327 $533 #
ellipse-curve $-1 -42.184973128102165 11.084723518268095 1.3920067678145314 -0.6018150307709319 0 0.79863550430605224 0.79863550430605224 0 0.6018150307709319 1 I I #
point $-1 -43.472863597206299 11.084723518268095 4.762735231816734 #
plane-surface $-1 48.673360393078404 0 0 -1 0 0 0 0 1 forward_v I I I I #
coedge $-1 $335 $333 $337 $463 reversed $221 $-1 #
edge $-1 $348 -7.4779606711349098 $465 7.4779606711349098 $347 $534 forward 7 unknown #
vertex $-1 $463 $535 #
straight-curve $-1 -48.673360393078404 -25.781269050638411 0 0 0 -1 I I #
edge $-1 $461 -25.781269050638411 $465 25.781269050638411 $459 $536 forward 7 unknown #
straight-curve $-1 0 -25.781269050638411 -7.4779606711349098 -1 0 0 I I #
vertex $-1 $340 $537 #
straight-curve $-1 0 25.781269050638411 -7.4779606711349098 1 0 0 I I #
point $-1 48.673360393078404 25.781269050638411 -7.4779606711349098 #
point $-1 48.673360393078404 -25.781269050638411 -7.4779606711349098 #
straight-curve $-1 -48.673360393078404 0 7.4779606711349098 0 -1 0 I I #
point $-1 -48.673360393078404 25.781269050638411 7.4779606711349098 #
point $-1 -48.673360393078404 -25.781269050638411 7.4779606711349098 #
straight-curve $-1 48.673360393078404 -25.781269050638411 0 0 0 -1 I I #
straight-curve $-1 48.673360393078404 25.781269050638411 0 0 0 -1 I I #
plane-surface $-1 48.673360393078404 0 0 -1 0 0 0 0 1 forward_v I I I I #
coedge $-1 $478 $360 $371 $487 forward $240 $-1 #
coedge $-1 $360 $478 $374 $489 reversed $240 $-1 #
straight-curve $-1 48.673360393078404 -18.245916566106576 -0.72866204457021988 0 0 1 I I #
coedge $-1 $476 $475 $363 $479 forward $240 $-1 #
edge $-1 $482 7.2391201619203294 $480 14.774472646452164 $478 $538 forward 7 unknown #
vertex $-1 $365 $539 #
straight-curve $-1 0 -25.781269050638411 -3.0143748496907539 1 0 0 I I #
vertex $-1 $479 $540 #
straight-curve $-1 0 -18.245916566106576 -3.0143748496907539 1 0 0 I I #
point $-1 48.673360393078404 -25.781269050638411 -3.0143748496907539 #
point $-1 48.673360393078404 -18.245916566106576 -3.0143748496907539 #
straight-curve $-1 -48.673360393078404 -11.006796404186247 0.099726671409874346 0 1 0 I I #
edge $-1 $372 -0.82838871598009423 $482 2.285712805120534 $475 $541 forward 7 unknown #
point $-1 -48.673360393078404 -18.245916566106576 0.099726671409874346 #
edge $-1 $376 -0.099726671409874346 $480 3.0143748496907539 $476 $542 forward 7 unknown #
point $-1 -48.673360393078404 -25.781269050638411 0.099726671409874346 #
straight-curve $-1 48.673360393078404 -25.781269050638411 0 0 0 -1 I I #
coedge $-1 $496 $386 $383 $493 reversed $381 $-1 #
edge $-1 $501 -48.673360393078404 $494 -44.608570491233714 $492 $543 forward 7 unknown #
vertex $-1 $387 $544 #
straight-curve $-1 44.608570491233706 9.9486514168463831 7.4779606711349089 0 -1 0 I I #
coedge $-1 $386 $492 $388 $498 forward $381 $-1 #
straight-curve $-1 11.067480511068943 25.781269050638411 51.988491706333832 -0.60181501223851219 0 0.79863551827123203 I I #
edge $-1 $501 -7.4779606711349098 $389 -2.0838021275510243 $388 $545 forward 7 unknown #
point $-1 48.673360393078411 25.781269050638414 2.0838021275510243 #
point $-1 44.608570491233714 14.013336616747118 7.4779606711349089 #
vertex $-1 $395 $546 #
straight-curve $-1 48.673360393078404 0 7.4779606711349098 0 1 0 I I #
vertex $-1 $398 $547 #
point $-1 46.310409376299312 17.375603026430344 3.2796538989503619 #
vertex $-1 $402 $548 #
point $-1 46.310409376299312 22.419002640955188 3.2796538989503619 #
edge $-1 $508 31.816252918139831 $511 38.450333858318054 $407 $549 forward 7 unknown #
vertex $-1 $421 $550 #
straight-curve $-1 -53.629040079224339 3.7676762422659174 7.4779606711349089 -1 0 0 I I #
edge $-1 $511 -4.4448046677337221 $418 5.7990615186693315 $417 $551 forward 7 unknown #
vertex $-1 $510 $552 #
straight-curve $-1 -48.673360393078404 3.7676762422659174 0.84387973095668656 0.79863550430605224 0 0.6018150307709319 I I #
point $-1 -39.869637809946283 3.7676762422659174 7.4779606711349098 #
point $-1 -48.673360393078404 -6.4761899441371362 0.84387973095668656 #
straight-curve $-1 -48.673360393078404 0 7.4779606711349098 0 -1 0 I I #
vertex $-1 $424 $553 #
point $-1 -41.386337623796109 -3.5493710337362643 1.9938217985854634 #
vertex $-1 $428 $554 #
point $-1 -41.386337623796109 0.84085733186504186 1.9938217985854634 #
straight-curve $-1 -48.673360393078404 14.011542428668971 0.84387973095668656 0.79863550430605224 0 0.6018150307709319 I I #
coedge $-1 $436 $442 $438 $523 reversed $432 $-1 #
straight-curve $-1 -48.673360393078404 14.011542428668971 39.29421358927474 0 0 -1 I I #
edge $-1 $440 -14.011542428668971 $527 -3.7676762422659174 $521 $555 forward 7 unknown #
point $-1 -39.869637809946283 14.011542428668971 7.4779606711349098 #
point $-1 -48.673360393078404 14.011542428668971 7.4779606711349098 #
point $-1 -48.673360393078404 14.011542428668971 0.84387973095668656 #
vertex $-1 $447 $556 #
straight-curve $-1 -53.629040079224339 3.7676762422659174 7.4779606711349089 1 0 0 I I #
straight-curve $-1 -48.673360393078404 3.7676762422659174 39.29421358927474 0 0 1 I I #
vertex $-1 $450 $557 #
point $-1 -41.386337623796109 6.6944951526667857 1.9938217985854634 #
vertex $-1 $454 $558 #
point $-1 -41.386337623796109 11.084723518268095 1.9938217985854634 #
straight-curve $-1 -48.673360393078404 25.781269050638411 0 0 0 -1 I I #
point $-1 -48.673360393078404 -25.781269050638411 -7.4779606711349098 #
straight-curve $-1 -48.673360393078404 0 -7.4779606711349098 0 1 0 I I #
point $-1 -48.673360393078404 25.781269050638411 -7.4779606711349098 #
straight-curve $-1 -48.673360393078404 -11.006796404186247 -3.0143748496907539 0 -1 0 I I #
point $-1 -48.673360393078404 -25.781269050638411 -3.0143748496907539 #
point $-1 -48.673360393078404 -18.245916566106576 -3.0143748496907539 #
straight-curve $-1 -48.673360393078404 -18.245916566106576 -0.72866204457021988 0 0 -1 I I #
straight-curve $-1 -48.673360393078404 -25.781269050638411 0 0 0 -1 I I #
straight-curve $-1 0 25.781269050638411 7.4779606711349098 -1 0 0 I I #
point $-1 44.608570491233714 25.781269050638414 7.4779606711349089 #
straight-curve $-1 48.673360393078404 25.781269050638411 0 0 0 -1 I I #
point $-1 48.673360393078404 25.781269050638411 7.4779606711349098 #
point $-1 44.909958845789568 17.375603026430344 3.4764744049830814 #
point $-1 44.909958845789568 22.419002640955188 3.4764744049830814 #
straight-curve $-1 -48.673360393078404 3.7676762422659174 39.29421358927474 0 0 -1 I I #
point $-1 -48.673360393078404 3.7676762422659174 7.4779606711349098 #
straight-curve $-1 -48.673360393078404 -0.67712842546780472 0.843879730956685 0 -1 0 I I #
point $-1 -48.673360393078404 3.7676762422659174 0.84387973095668656 #
point $-1 -41.583158097331228 -3.5493710337362643 0.59337126350847924 #
point $-1 -41.583158097331228 0.84085733186504186 0.59337126350847924 #
straight-curve $-1 -48.673360393078404 0 7.4779606711349098 0 -1 0 I I #
point $-1 -48.673360393078404 3.7676762422659174 7.4779606711349098 #
point $-1 -41.583158097331228 6.6944951526667857 0.59337126350847924 #
point $-1 -41.583158097331228 11.084723518268095 0.59337126350847924 #
End-of-ACIS-data 