500 0 9 0           
7 Unknown 11 ACIS 5.0 NT 24 Thu Mar 25 18:38:41 1999 
-1 9.9999999999999995e-007 1e-010 
body $-1 $9 $-1 $10 #
body $-1 $11 $-1 $12 #
body $-1 $13 $-1 $14 #
body $-1 $15 $-1 $16 #
body $-1 $17 $-1 $18 #
body $-1 $19 $-1 $20 #
body $-1 $21 $-1 $22 #
body $-1 $23 $-1 $24 #
body $-1 $25 $-1 $26 #
lump $-1 $-1 $27 $0 #
transform $-1 1 0 0 0 1 0 0 0 1 65.481734672078616 31.78802786060222 11.744699865462042 1 rotate no_reflect no_shear #
lump $-1 $-1 $28 $1 #
transform $-1 1 0 0 0 1 0 0 0 1 65.481734672078616 31.78802786060222 11.744699865462042 1 rotate no_reflect no_shear #
lump $-1 $-1 $29 $2 #
transform $-1 1 0 0 0 1 0 0 0 1 65.481734672078616 31.78802786060222 11.744699865462042 1 rotate no_reflect no_shear #
lump $-1 $-1 $30 $3 #
transform $-1 1 0 0 0 1 0 0 0 1 65.481734672078616 31.78802786060222 11.744699865462042 1 rotate no_reflect no_shear #
lump $-1 $-1 $31 $4 #
transform $-1 1 0 0 0 1 0 0 0 1 65.481734672078616 31.78802786060222 11.744699865462042 1 rotate no_reflect no_shear #
lump $-1 $-1 $32 $5 #
transform $-1 1 0 0 0 1 0 0 0 1 65.481734672078616 31.78802786060222 11.744699865462042 1 rotate no_reflect no_shear #
lump $-1 $-1 $33 $6 #
transform $-1 1 0 0 0 1 0 0 0 1 65.481734672078616 31.78802786060222 11.744699865462042 1 rotate no_reflect no_shear #
lump $-1 $-1 $34 $7 #
transform $-1 1 0 0 0 1 0 0 0 1 65.481734672078616 31.78802786060222 11.744699865462042 1 rotate no_reflect no_shear #
lump $-1 $-1 $35 $8 #
transform $-1 1 0 0 0 1 0 0 0 1 65.481734672078616 31.78802786060222 11.744699865462042 1 rotate no_reflect no_shear #
shell $-1 $-1 $-1 $36 $-1 $9 #
shell $-1 $-1 $-1 $37 $-1 $11 #
shell $-1 $-1 $-1 $38 $-1 $13 #
shell $-1 $-1 $-1 $39 $-1 $15 #
shell $-1 $-1 $-1 $40 $-1 $17 #
shell $-1 $-1 $-1 $41 $-1 $19 #
shell $-1 $-1 $-1 $42 $-1 $21 #
shell $-1 $-1 $-1 $43 $-1 $23 #
shell $-1 $-1 $-1 $44 $-1 $25 #
face $-1 $45 $46 $27 $-1 $47 forward single #
face $-1 $48 $49 $28 $-1 $50 reversed single #
face $-1 $51 $52 $29 $-1 $53 reversed single #
face $-1 $54 $55 $30 $-1 $56 forward single #
face $-1 $57 $58 $31 $-1 $59 forward single #
face $-1 $60 $61 $32 $-1 $62 reversed single #
face $-1 $63 $64 $33 $-1 $65 forward single #
face $-1 $66 $67 $34 $-1 $68 forward single #
face $-1 $69 $70 $35 $-1 $71 forward single #
face $-1 $72 $73 $27 $-1 $74 reversed single #
loop $-1 $-1 $75 $36 #
plane-surface $-1 0 0 11.744699865462042 0 0 1 1 0 0 forward_v I I I I #
face $-1 $76 $77 $28 $-1 $78 reversed single #
loop $-1 $-1 $79 $37 #
plane-surface $-1 -61.371548510506599 -13.273431661057081 0 0 1 0 0 0 1 forward_v I I I I #
face $-1 $80 $81 $29 $-1 $82 reversed single #
loop $-1 $-1 $83 $38 #
plane-surface $-1 -42.319196764440434 -101.18809409323643 117.5393140124847 -1 0 0 0 -0.52991927123019833 0.84804809178421925 forward_v I I I I #
face $-1 $84 $85 $30 $-1 $86 forward single #
loop $-1 $87 $88 $39 #
cone-surface $-1 -52.992172181936255 -27.097818552813461 8.3512069794993913 0 0.52991927123019833 -0.84804809178421925 1.5 0 0 1 I I 0 1 1.5 forward I I I I #
face $-1 $89 $90 $31 $-1 $91 forward single #
loop $-1 $92 $93 $40 #
cone-surface $-1 -46.588386931438762 -27.097818552813461 8.3512069794993913 0 0.52991927123019833 -0.84804809178421925 1.5 0 0 1 I I 0 1 1.5 forward I I I I #
face $-1 $94 $95 $32 $-1 $96 reversed single #
loop $-1 $-1 $97 $41 #
plane-surface $-1 -52.486682421556758 59.829716871130408 146.99927551138509 1 0 0 0 -0.6018150307709319 -0.79863550430605224 forward_v I I I I #
face $-1 $98 $99 $33 $-1 $100 forward single #
loop $-1 $101 $102 $42 #
cone-surface $-1 -48.808247825386999 26.065150391349004 7.0416064453421248 0 -0.6018150307709319 -0.79863550430605224 1.5 0 0 1 I I 0 1 1.5 forward I I I I #
face $-1 $103 $104 $34 $-1 $105 forward single #
loop $-1 $106 $107 $43 #
cone-surface $-1 -43.290595931132358 26.065150391349004 7.0416064453421248 0 -0.6018150307709319 -0.79863550430605224 1.5 0 0 1 I I 0 1 1.5 forward I I I I #
face $-1 $108 $109 $35 $-1 $110 forward single #
loop $-1 $111 $112 $44 #
cone-surface $-1 -37.772944036877718 26.065150391349004 7.0416064453421248 0 -0.6018150307709319 -0.79863550430605224 1.5 0 0 1 I I 0 1 1.5 forward I I I I #
face $-1 $113 $114 $27 $-1 $115 reversed single #
loop $-1 $-1 $116 $45 #
plane-surface $-1 0 0 -11.744699865462042 0 0 1 1 0 0 forward_v I I I I #
coedge $-1 $117 $118 $119 $120 forward $46 $-1 #
face $-1 $121 $122 $28 $-1 $123 reversed single #
loop $-1 $-1 $124 $48 #
plane-surface $-1 -61.371548510506599 -8.2986281296781357 0 0 -1 0 0 0 -1 forward_v I I I I #
coedge $-1 $125 $126 $127 $128 reversed $49 $-1 #
face $-1 $129 $130 $29 $-1 $131 reversed single #
loop $-1 $-1 $132 $51 #
plane-surface $-1 -49.790279556687508 -31.788027860602199 6.4759937417310312 0 -0.52991927123019833 0.84804809178421925 1 0 0 forward_v I I I I #
coedge $-1 $133 $134 $135 $136 reversed $52 $-1 #
face $-1 $-1 $137 $30 $-1 $138 forward single #
loop $-1 $139 $140 $54 #
cone-surface $-1 -52.992172181936255 -26.226015880789586 6.9560310865640638 0 0.52991927123019833 -0.84804809178421925 0.75 0 0 1 I I -0.70710678118654713 0.70710678118654802 0.75 forward I I I I #
loop $-1 $-1 $141 $39 #
coedge $-1 $88 $88 $142 $143 reversed $55 $-1 #
face $-1 $-1 $144 $31 $-1 $145 forward single #
loop $-1 $146 $147 $57 #
cone-surface $-1 -46.588386931438762 -26.226015880789586 6.9560310865640638 0 0.52991927123019833 -0.84804809178421925 0.75 0 0 1 I I -0.70710678118654713 0.70710678118654802 0.75 forward I I I I #
loop $-1 $-1 $148 $40 #
coedge $-1 $93 $93 $149 $150 reversed $58 $-1 #
face $-1 $151 $152 $32 $-1 $153 reversed single #
loop $-1 $-1 $154 $60 #
plane-surface $-1 -43.290595931132358 -18.986067462091576 42.407199126043864 0 0.6018150307709319 0.79863550430605224 1 0 0 forward_v I I I I #
coedge $-1 $155 $156 $157 $158 reversed $61 $-1 #
face $-1 $-1 $159 $33 $-1 $160 forward single #
loop $-1 $161 $162 $63 #
cone-surface $-1 -48.808247825386999 24.932704283343028 5.5387997317772992 0 -0.6018150307709319 -0.79863550430605224 0.75 0 0 1 I I -0.70710678118654757 0.70710678118654757 0.75 forward I I I I #
loop $-1 $-1 $163 $42 #
coedge $-1 $102 $102 $164 $165 reversed $64 $-1 #
face $-1 $-1 $166 $34 $-1 $167 forward single #
loop $-1 $168 $169 $66 #
cone-surface $-1 -43.290595931132358 24.932704283343028 5.5387997317772992 0 -0.6018150307709319 -0.79863550430605224 0.75 0 0 1 I I -0.70710678118654757 0.70710678118654757 0.75 forward I I I I #
loop $-1 $-1 $170 $43 #
coedge $-1 $107 $107 $171 $172 reversed $67 $-1 #
face $-1 $-1 $173 $35 $-1 $174 forward single #
loop $-1 $175 $176 $69 #
cone-surface $-1 -37.772944036877718 24.932704283343028 5.5387997317772992 0 -0.6018150307709319 -0.79863550430605224 0.75 0 0 1 I I -0.70710678118654757 0.70710678118654757 0.75 forward I I I I #
loop $-1 $-1 $177 $44 #
coedge $-1 $112 $112 $178 $179 reversed $70 $-1 #
face $-1 $180 $181 $27 $-1 $182 reversed single #
loop $-1 $-1 $183 $72 #
plane-surface $-1 0 -31.78802786060222 0 0 1 0 0 0 1 forward_v I I I I #
coedge $-1 $184 $185 $186 $187 forward $73 $-1 #
coedge $-1 $188 $75 $189 $190 forward $46 $-1 #
coedge $-1 $75 $188 $191 $192 forward $46 $-1 #
coedge $-1 $193 $194 $75 $120 reversed $195 $-1 #
edge $-1 $196 -31.78802786060222 $197 31.78802786060222 $119 $198 forward 7 unknown #
face $-1 $199 $200 $28 $-1 $201 reversed single #
loop $-1 $-1 $202 $76 #
plane-surface $-1 -57.261362348934583 -10.786029895367609 0 -1 0 0 0 0 1 forward_v I I I I #
coedge $-1 $203 $204 $205 $206 forward $77 $-1 #
coedge $-1 $207 $79 $208 $209 reversed $49 $-1 #
coedge $-1 $79 $207 $210 $211 reversed $49 $-1 #
coedge $-1 $212 $213 $79 $128 forward $214 $-1 #
edge $-1 $215 -11.744699865462042 $216 11.744699865462042 $127 $217 forward 7 unknown #
face $-1 $218 $219 $29 $-1 $220 reversed single #
loop $-1 $-1 $221 $80 #
plane-surface $-1 -57.261362348934583 -101.18809409323643 117.5393140124847 1 0 0 0 0.52991927123019833 -0.84804809178421925 forward_v I I I I #
coedge $-1 $222 $223 $224 $225 reversed $81 $-1 #
coedge $-1 $134 $83 $226 $227 reversed $52 $-1 #
coedge $-1 $83 $133 $222 $228 reversed $52 $-1 #
coedge $-1 $224 $229 $83 $136 forward $230 $-1 #
edge $-1 $231 18.806019186015995 $232 27.237711364391149 $135 $233 forward 7 unknown #
loop $-1 $-1 $142 $84 #
plane-surface $-1 -49.790279556687508 -31.788027860602199 6.4759937417310312 0 -0.52991927123019833 0.84804809178421925 1 0 0 forward_v I I I I #
loop $-1 $-1 $234 $54 #
coedge $-1 $140 $140 $141 $235 reversed $85 $-1 #
coedge $-1 $141 $141 $140 $235 forward $87 $-1 #
coedge $-1 $142 $142 $88 $143 forward $137 $-1 #
edge $-1 $236 1.7546223622533012e-015 $236 6.2831853071796022 $142 $237 forward 7 unknown #
loop $-1 $-1 $149 $89 #
plane-surface $-1 -49.790279556687508 -31.788027860602199 6.4759937417310312 0 -0.52991927123019833 0.84804809178421925 1 0 0 forward_v I I I I #
loop $-1 $-1 $238 $57 #
coedge $-1 $147 $147 $148 $239 reversed $90 $-1 #
coedge $-1 $148 $148 $147 $239 forward $92 $-1 #
coedge $-1 $149 $149 $93 $150 forward $144 $-1 #
edge $-1 $240 1.7546223622533012e-015 $240 6.2831853071796022 $149 $241 forward 7 unknown #
face $-1 $242 $243 $32 $-1 $244 reversed single #
loop $-1 $-1 $245 $94 #
plane-surface $-1 -34.094509440707959 59.829716871130408 146.99927551138509 -1 0 0 0 0.6018150307709319 0.79863550430605224 forward_v I I I I #
coedge $-1 $246 $247 $248 $249 reversed $95 $-1 #
coedge $-1 $156 $97 $250 $251 reversed $61 $-1 #
coedge $-1 $97 $155 $246 $252 reversed $61 $-1 #
coedge $-1 $248 $253 $97 $158 forward $254 $-1 #
edge $-1 $255 -1.8731694250370161 $256 8.2104158436139265 $157 $257 forward 7 unknown #
loop $-1 $-1 $164 $98 #
plane-surface $-1 -43.290595931132358 -18.986067462091576 42.407199126043864 0 0.6018150307709319 0.79863550430605224 1 0 0 forward_v I I I I #
loop $-1 $-1 $258 $63 #
coedge $-1 $162 $162 $163 $259 reversed $99 $-1 #
coedge $-1 $163 $163 $162 $259 forward $101 $-1 #
coedge $-1 $164 $164 $102 $165 forward $159 $-1 #
edge $-1 $260 7.6872910620009373e-016 $260 6.2831853071796013 $164 $261 forward 7 unknown #
loop $-1 $-1 $171 $103 #
plane-surface $-1 -43.290595931132358 -18.986067462091576 42.407199126043864 0 0.6018150307709319 0.79863550430605224 1 0 0 forward_v I I I I #
loop $-1 $-1 $262 $66 #
coedge $-1 $169 $169 $170 $263 reversed $104 $-1 #
coedge $-1 $170 $170 $169 $263 forward $106 $-1 #
coedge $-1 $171 $171 $107 $172 forward $166 $-1 #
edge $-1 $264 7.6872910620009373e-016 $264 6.2831853071796013 $171 $265 forward 7 unknown #
loop $-1 $-1 $178 $108 #
plane-surface $-1 -43.290595931132358 -18.986067462091576 42.407199126043864 0 0.6018150307709319 0.79863550430605224 1 0 0 forward_v I I I I #
loop $-1 $-1 $266 $69 #
coedge $-1 $176 $176 $177 $267 reversed $109 $-1 #
coedge $-1 $177 $177 $176 $267 forward $111 $-1 #
coedge $-1 $178 $178 $112 $179 forward $173 $-1 #
edge $-1 $268 7.6872910620009373e-016 $268 6.2831853071796013 $178 $269 forward 7 unknown #
face $-1 $270 $271 $27 $-1 $272 reversed single #
loop $-1 $-1 $273 $113 #
plane-surface $-1 -65.481734672078616 0 0 1 0 0 0 0 -1 forward_v I I I I #
coedge $-1 $274 $191 $275 $276 forward $114 $-1 #
coedge $-1 $277 $116 $274 $278 forward $73 $-1 #
coedge $-1 $116 $277 $279 $280 forward $73 $-1 #
coedge $-1 $194 $193 $116 $187 reversed $195 $-1 #
edge $-1 $281 -31.78802786060222 $282 31.78802786060222 $186 $283 forward 7 unknown #
coedge $-1 $118 $117 $284 $285 forward $46 $-1 #
coedge $-1 $286 $287 $117 $190 reversed $271 $-1 #
edge $-1 $197 -65.481734672078616 $288 65.481734672078616 $189 $289 forward 7 unknown #
coedge $-1 $183 $290 $118 $192 reversed $114 $-1 #
edge $-1 $291 -65.481734672078616 $196 65.481734672078616 $191 $292 forward 7 unknown #
coedge $-1 $186 $119 $290 $293 forward $195 $-1 #
coedge $-1 $119 $186 $286 $294 reversed $195 $-1 #
loop $-1 $-1 $193 $270 #
vertex $-1 $120 $295 #
vertex $-1 $120 $296 #
straight-curve $-1 65.481734672078616 0 11.744699865462042 0 1 0 I I #
face $-1 $297 $298 $28 $-1 $299 forward single #
loop $-1 $-1 $300 $121 #
plane-surface $-1 0 0 -11.744699865462042 0 0 1 1 0 0 forward_v I I I I #
coedge $-1 $301 $302 $207 $303 forward $122 $-1 #
coedge $-1 $304 $124 $300 $305 reversed $77 $-1 #
coedge $-1 $124 $304 $306 $307 reversed $77 $-1 #
coedge $-1 $302 $301 $124 $206 reversed $122 $-1 #
edge $-1 $308 -11.744699865462042 $309 11.744699865462042 $205 $310 forward 7 unknown #
coedge $-1 $126 $125 $202 $303 reversed $49 $-1 #
coedge $-1 $311 $312 $125 $209 forward $200 $-1 #
edge $-1 $313 26.575588093681283 $215 34.795960416825316 $208 $314 forward 7 unknown #
coedge $-1 $315 $316 $126 $211 forward $298 $-1 #
edge $-1 $216 -34.795960416825316 $317 -26.575588093681283 $210 $318 forward 7 unknown #
coedge $-1 $319 $127 $316 $320 reversed $214 $-1 #
coedge $-1 $127 $319 $311 $321 reversed $214 $-1 #
loop $-1 $-1 $319 $297 #
vertex $-1 $321 $322 #
vertex $-1 $128 $323 #
straight-curve $-1 -65.481734672078616 -13.273431661057081 0 0 0 1 I I #
face $-1 $-1 $230 $29 $-1 $324 forward single #
loop $-1 $-1 $325 $129 #
plane-surface $-1 0 -31.78802786060222 0 0 1 0 0 0 1 forward_v I I I I #
coedge $-1 $326 $327 $328 $329 reversed $130 $-1 #
coedge $-1 $330 $132 $134 $228 forward $81 $-1 #
coedge $-1 $132 $330 $326 $331 forward $81 $-1 #
coedge $-1 $328 $135 $132 $225 forward $230 $-1 #
edge $-1 $232 17.42405698609668 $332 32.366222570590828 $224 $333 forward 7 unknown #
coedge $-1 $334 $335 $133 $227 forward $219 $-1 #
edge $-1 $336 -52.293663264511331 $231 -47.024957140780302 $226 $337 forward 7 unknown #
edge $-1 $232 -9.9424693717965802 $336 2.5137175249122944e-014 $134 $338 forward 7 unknown #
coedge $-1 $135 $328 $334 $339 forward $230 $-1 #
loop $-1 $-1 $328 $218 #
vertex $-1 $227 $340 #
vertex $-1 $136 $341 #
straight-curve $-1 -42.319196764440434 -50.594047046618215 11.744699865462039 0 1 0 I I #
coedge $-1 $234 $234 $-1 $342 reversed $139 $-1 #
edge $-1 $343 0 $343 6.2831853071796004 $140 $344 forward 7 unknown #
vertex $-1 $143 $345 #
ellipse-curve $-1 -52.992172181936255 -27.572181771414662 9.1103468035965172 0 -0.52991927123019833 0.84804809178421925 1.5 0 0 1 I I #
coedge $-1 $238 $238 $-1 $346 reversed $146 $-1 #
edge $-1 $347 0 $347 6.2831853071796004 $147 $348 forward 7 unknown #
vertex $-1 $150 $349 #
ellipse-curve $-1 -46.588386931438762 -27.572181771414662 9.1103468035965172 0 -0.52991927123019833 0.84804809178421925 1.5 0 0 1 I I #
face $-1 $-1 $254 $32 $-1 $350 forward single #
loop $-1 $-1 $351 $151 #
plane-surface $-1 0 31.78802786060222 0 0 -1 0 0 0 -1 forward_v I I I I #
coedge $-1 $352 $353 $354 $355 reversed $152 $-1 #
coedge $-1 $356 $154 $156 $252 forward $95 $-1 #
coedge $-1 $154 $356 $352 $357 forward $95 $-1 #
coedge $-1 $354 $157 $154 $249 forward $254 $-1 #
edge $-1 $256 -30.841384455990578 $358 -12.44921147514178 $248 $359 forward 7 unknown #
coedge $-1 $360 $361 $155 $251 forward $243 $-1 #
edge $-1 $362 -69.353464559799818 $255 -61.754937890230508 $250 $363 forward 7 unknown #
edge $-1 $256 50.950038953501732 $362 63.576055721204462 $156 $364 forward 7 unknown #
coedge $-1 $157 $354 $360 $365 forward $254 $-1 #
loop $-1 $-1 $354 $242 #
vertex $-1 $251 $366 #
vertex $-1 $158 $367 #
straight-curve $-1 -52.486682421556758 29.914858435565204 11.744699865462039 0 -1 0 I I #
coedge $-1 $258 $258 $-1 $368 reversed $161 $-1 #
edge $-1 $369 0 $369 6.2831853071796004 $162 $370 forward 7 unknown #
vertex $-1 $165 $371 #
ellipse-curve $-1 -48.808247825386999 26.746235226276756 7.9454365306773802 0 0.6018150307709319 0.79863550430605224 1.5 0 0 1 I I #
coedge $-1 $262 $262 $-1 $372 reversed $168 $-1 #
edge $-1 $373 0 $373 6.2831853071796004 $169 $374 forward 7 unknown #
vertex $-1 $172 $375 #
ellipse-curve $-1 -43.290595931132358 26.746235226276756 7.9454365306773802 0 0.6018150307709319 0.79863550430605224 1.5 0 0 1 I I #
coedge $-1 $266 $266 $-1 $376 reversed $175 $-1 #
edge $-1 $377 0 $377 6.2831853071796004 $176 $378 forward 7 unknown #
vertex $-1 $179 $379 #
ellipse-curve $-1 -37.772944036877718 26.746235226276756 7.9454365306773802 0 0.6018150307709319 0.79863550430605224 1.5 0 0 1 I I #
face $-1 $-1 $195 $27 $-1 $380 reversed single #
loop $-1 $-1 $286 $180 #
plane-surface $-1 0 31.78802786060222 0 0 -1 0 0 0 -1 forward_v I I I I #
coedge $-1 $381 $284 $287 $382 forward $181 $-1 #
coedge $-1 $290 $183 $184 $278 reversed $114 $-1 #
coedge $-1 $284 $381 $183 $276 reversed $181 $-1 #
edge $-1 $291 -11.744699865462042 $383 11.744699865462042 $275 $384 forward 7 unknown #
coedge $-1 $185 $184 $381 $385 forward $73 $-1 #
edge $-1 $282 -65.481734672078616 $383 65.481734672078616 $274 $386 forward 7 unknown #
coedge $-1 $287 $286 $185 $280 reversed $271 $-1 #
edge $-1 $387 -65.481734672078616 $281 65.481734672078616 $279 $388 forward 7 unknown #
vertex $-1 $187 $389 #
vertex $-1 $293 $390 #
straight-curve $-1 65.481734672078616 0 -11.744699865462042 0 -1 0 I I #
coedge $-1 $273 $275 $188 $285 reversed $181 $-1 #
edge $-1 $288 -31.78802786060222 $291 31.78802786060222 $284 $391 forward 7 unknown #
coedge $-1 $279 $189 $194 $294 forward $271 $-1 #
coedge $-1 $189 $279 $273 $382 reversed $271 $-1 #
vertex $-1 $190 $392 #
straight-curve $-1 0 31.78802786060222 11.744699865462042 -1 0 0 I I #
coedge $-1 $191 $274 $193 $293 reversed $114 $-1 #
vertex $-1 $285 $393 #
straight-curve $-1 0 -31.78802786060222 11.744699865462042 1 0 0 I I #
edge $-1 $196 -11.744699865462042 $282 11.744699865462042 $193 $394 forward 7 unknown #
edge $-1 $197 -11.744699865462042 $281 11.744699865462042 $194 $395 forward 7 unknown #
point $-1 65.481734672078616 -31.78802786060222 11.744699865462042 #
point $-1 65.481734672078616 31.78802786060222 11.744699865462042 #
face $-1 $-1 $214 $28 $-1 $396 reversed single #
loop $-1 $-1 $306 $199 #
plane-surface $-1 0 0 11.744699865462042 0 0 1 1 0 0 forward_v I I I I #
coedge $-1 $312 $311 $203 $305 forward $200 $-1 #
coedge $-1 $205 $202 $312 $397 reversed $122 $-1 #
coedge $-1 $202 $205 $315 $398 reversed $122 $-1 #
edge $-1 $317 -11.744699865462042 $313 11.744699865462042 $202 $399 forward 7 unknown #
coedge $-1 $204 $203 $319 $400 reversed $77 $-1 #
edge $-1 $401 -34.795960416825316 $309 -26.575588093681283 $300 $402 forward 7 unknown #
coedge $-1 $316 $315 $204 $307 forward $298 $-1 #
edge $-1 $308 26.575588093681283 $403 34.795960416825316 $306 $404 forward 7 unknown #
vertex $-1 $307 $405 #
vertex $-1 $305 $406 #
straight-curve $-1 -57.261362348934583 -8.2986281296781357 0 0 0 -1 I I #
coedge $-1 $300 $208 $213 $321 forward $200 $-1 #
coedge $-1 $208 $300 $301 $397 forward $200 $-1 #
vertex $-1 $209 $407 #
straight-curve $-1 -30.6857742552533 -13.273431661057081 -11.744699865462042 -1 0 0 I I #
coedge $-1 $306 $210 $302 $398 forward $298 $-1 #
coedge $-1 $210 $306 $212 $320 forward $298 $-1 #
vertex $-1 $211 $408 #
straight-curve $-1 -30.6857742552533 -13.273431661057081 11.744699865462042 1 0 0 I I #
coedge $-1 $213 $212 $304 $400 forward $214 $-1 #
edge $-1 $403 8.2986281296781357 $216 13.273431661057081 $212 $409 forward 7 unknown #
edge $-1 $215 -13.273431661057081 $401 -8.2986281296781357 $213 $410 forward 7 unknown #
point $-1 -65.481734672078616 -13.273431661057081 -11.744699865462042 #
point $-1 -65.481734672078616 -13.273431661057081 11.744699865462042 #
plane-surface $-1 0 0 11.744699865462042 0 0 1 1 0 0 forward_v I I I I #
coedge $-1 $335 $334 $327 $411 forward $219 $-1 #
coedge $-1 $327 $221 $223 $331 reversed $130 $-1 #
coedge $-1 $221 $326 $325 $411 reversed $130 $-1 #
coedge $-1 $229 $224 $221 $329 forward $230 $-1 #
edge $-1 $332 -27.237711364391149 $412 -18.806019186015995 $328 $413 forward 7 unknown #
coedge $-1 $223 $222 $335 $414 reversed $81 $-1 #
edge $-1 $415 -2.5137175249122944e-014 $332 9.9424693717965802 $326 $416 forward 7 unknown #
vertex $-1 $225 $417 #
straight-curve $-1 -24.895139778343754 -23.356335682227066 11.744699865462042 -1 0 0 I I #
coedge $-1 $325 $226 $229 $339 reversed $219 $-1 #
coedge $-1 $226 $325 $330 $414 forward $219 $-1 #
vertex $-1 $227 $418 #
straight-curve $-1 -42.319196764440434 -31.78802786060222 58.769657006242348 0 0 1 I I #
straight-curve $-1 -42.319196764440434 -31.788027860602199 6.4759937417310312 0 -0.84804809178421925 -0.52991927123019833 I I #
edge $-1 $412 -57.261362348934583 $231 -42.319196764440434 $334 $419 forward 7 unknown #
point $-1 -42.319196764440434 -31.78802786060222 11.744699865462042 #
point $-1 -42.319196764440434 -23.356335682227066 11.744699865462042 #
edge $-1 $420 1 $420 0 $234 $-1 forward 7 unknown #
vertex $-1 $235 $421 #
ellipse-curve $-1 -52.992172181936255 -26.623455334212235 7.592067155402229 0 -0.52991927123019833 0.84804809178421925 1.5 0 0 1 I I #
point $-1 -51.492172181936255 -27.572181771414684 9.1103468035965562 #
edge $-1 $422 1 $422 0 $238 $-1 forward 7 unknown #
vertex $-1 $239 $423 #
ellipse-curve $-1 -46.588386931438762 -26.623455334212235 7.592067155402229 0 -0.52991927123019833 0.84804809178421925 1.5 0 0 1 I I #
point $-1 -45.088386931438762 -27.572181771414684 9.1103468035965562 #
plane-surface $-1 0 0 11.744699865462042 0 0 1 1 0 0 forward_v I I I I #
coedge $-1 $361 $360 $353 $424 forward $243 $-1 #
coedge $-1 $353 $245 $247 $357 reversed $152 $-1 #
coedge $-1 $245 $352 $351 $424 reversed $152 $-1 #
coedge $-1 $253 $248 $245 $355 forward $254 $-1 #
edge $-1 $358 -8.2104158436139265 $425 1.8731694250370161 $354 $426 forward 7 unknown #
coedge $-1 $247 $246 $361 $427 reversed $95 $-1 #
edge $-1 $428 -63.576055721204462 $358 -50.950038953501732 $352 $429 forward 7 unknown #
vertex $-1 $249 $430 #
straight-curve $-1 -21.645297965566179 21.704442591951285 11.744699865462042 1 0 0 I I #
coedge $-1 $351 $250 $253 $365 reversed $243 $-1 #
coedge $-1 $250 $351 $356 $427 forward $243 $-1 #
vertex $-1 $251 $431 #
straight-curve $-1 -52.486682421556758 31.78802786060222 73.499637755692547 0 0 1 I I #
straight-curve $-1 -52.486682421556758 -18.986067462091576 42.407199126043864 0 0.79863550430605224 -0.6018150307709319 I I #
edge $-1 $425 34.094509440707959 $255 52.486682421556758 $360 $432 forward 7 unknown #
point $-1 -52.486682421556758 31.78802786060222 11.744699865462042 #
point $-1 -52.486682421556758 21.704442591951278 11.744699865462046 #
edge $-1 $433 1 $433 0 $258 $-1 forward 7 unknown #
vertex $-1 $259 $434 #
ellipse-curve $-1 -48.808247825386999 25.384065556421227 6.1377763600068382 0 0.6018150307709319 0.79863550430605224 1.5 0 0 1 I I #
point $-1 -47.308247825386999 26.746235226276781 7.9454365306774113 #
edge $-1 $435 1 $435 0 $262 $-1 forward 7 unknown #
vertex $-1 $263 $436 #
ellipse-curve $-1 -43.290595931132358 25.384065556421227 6.1377763600068382 0 0.6018150307709319 0.79863550430605224 1.5 0 0 1 I I #
point $-1 -41.790595931132358 26.746235226276781 7.9454365306774113 #
edge $-1 $437 1 $437 0 $266 $-1 forward 7 unknown #
vertex $-1 $267 $438 #
ellipse-curve $-1 -37.772944036877718 25.384065556421227 6.1377763600068382 0 0.6018150307709319 0.79863550430605224 1.5 0 0 1 I I #
point $-1 -36.272944036877718 26.746235226276781 7.9454365306774113 #
plane-surface $-1 65.481734672078616 0 0 -1 0 0 0 0 1 forward_v I I I I #
coedge $-1 $275 $273 $277 $385 reversed $181 $-1 #
edge $-1 $288 -11.744699865462042 $387 11.744699865462042 $287 $439 forward 7 unknown #
vertex $-1 $385 $440 #
straight-curve $-1 -65.481734672078616 -31.78802786060222 0 0 0 -1 I I #
edge $-1 $383 -31.78802786060222 $387 31.78802786060222 $381 $441 forward 7 unknown #
straight-curve $-1 0 -31.78802786060222 -11.744699865462042 -1 0 0 I I #
vertex $-1 $280 $442 #
straight-curve $-1 0 31.78802786060222 -11.744699865462042 1 0 0 I I #
point $-1 65.481734672078616 31.78802786060222 -11.744699865462042 #
point $-1 65.481734672078616 -31.78802786060222 -11.744699865462042 #
straight-curve $-1 -65.481734672078616 0 11.744699865462042 0 -1 0 I I #
point $-1 -65.481734672078616 31.78802786060222 11.744699865462042 #
point $-1 -65.481734672078616 -31.78802786060222 11.744699865462042 #
straight-curve $-1 65.481734672078616 -31.78802786060222 0 0 0 -1 I I #
straight-curve $-1 65.481734672078616 31.78802786060222 0 0 0 -1 I I #
plane-surface $-1 -65.481734672078616 0 0 1 0 0 0 0 -1 forward_v I I I I #
edge $-1 $309 2.9056131819943314 $313 7.8804167133732772 $312 $443 forward 7 unknown #
edge $-1 $317 -7.8804167133732772 $308 -2.9056131819943314 $315 $444 forward 7 unknown #
straight-curve $-1 -57.261362348934583 -13.273431661057081 0 0 0 -1 I I #
edge $-1 $403 -11.744699865462042 $401 11.744699865462042 $319 $445 forward 7 unknown #
vertex $-1 $400 $446 #
straight-curve $-1 -30.6857742552533 -8.2986281296781357 -11.744699865462042 1 0 0 I I #
vertex $-1 $320 $447 #
straight-curve $-1 -30.6857742552533 -8.2986281296781357 11.744699865462042 -1 0 0 I I #
point $-1 -57.261362348934583 -8.2986281296781357 11.744699865462042 #
point $-1 -57.261362348934583 -8.2986281296781357 -11.744699865462042 #
point $-1 -57.261362348934583 -13.273431661057081 -11.744699865462042 #
point $-1 -57.261362348934583 -13.273431661057081 11.744699865462042 #
straight-curve $-1 -65.481734672078616 0 11.744699865462042 0 -1 0 I I #
straight-curve $-1 -65.481734672078616 0 -11.744699865462042 0 1 0 I I #
edge $-1 $412 47.024957140780302 $415 52.293663264511331 $325 $448 forward 7 unknown #
vertex $-1 $339 $449 #
straight-curve $-1 -57.261362348934583 -50.594047046618215 11.744699865462039 0 -1 0 I I #
edge $-1 $415 -32.366222570590828 $336 -17.42405698609668 $335 $450 forward 7 unknown #
vertex $-1 $414 $451 #
straight-curve $-1 -57.261362348934583 -31.788027860602199 6.4759937417310312 0 0.84804809178421925 0.52991927123019833 I I #
point $-1 -57.261362348934583 -23.356335682227066 11.744699865462042 #
point $-1 -42.319196764440434 -31.78802786060222 6.4759937417310178 #
straight-curve $-1 0 -31.78802786060222 11.744699865462042 1 0 0 I I #
vertex $-1 $342 $452 #
point $-1 -51.492172181936255 -26.623455334212235 7.592067155402229 #
vertex $-1 $346 $453 #
point $-1 -45.088386931438762 -26.623455334212235 7.592067155402229 #
edge $-1 $425 61.754937890230508 $428 69.353464559799818 $351 $454 forward 7 unknown #
vertex $-1 $365 $455 #
straight-curve $-1 -34.094509440707959 29.914858435565204 11.744699865462039 0 1 0 I I #
edge $-1 $428 12.44921147514178 $362 30.841384455990578 $361 $456 forward 7 unknown #
vertex $-1 $427 $457 #
straight-curve $-1 -34.094509440707959 -18.986067462091576 42.407199126043864 0 -0.79863550430605224 0.6018150307709319 I I #
point $-1 -34.094509440707959 21.704442591951278 11.744699865462046 #
point $-1 -52.486682421556758 31.78802786060222 4.1461731958927217 #
straight-curve $-1 0 31.78802786060222 11.744699865462042 -1 0 0 I I #
vertex $-1 $368 $458 #
point $-1 -47.308247825386999 25.384065556421227 6.1377763600068382 #
vertex $-1 $372 $459 #
point $-1 -41.790595931132358 25.384065556421227 6.1377763600068382 #
vertex $-1 $376 $460 #
point $-1 -36.272944036877718 25.384065556421227 6.1377763600068382 #
straight-curve $-1 -65.481734672078616 31.78802786060222 0 0 0 -1 I I #
point $-1 -65.481734672078616 -31.78802786060222 -11.744699865462042 #
straight-curve $-1 -65.481734672078616 0 -11.744699865462042 0 1 0 I I #
point $-1 -65.481734672078616 31.78802786060222 -11.744699865462042 #
straight-curve $-1 -57.261362348934583 -5.3930149476838043 -11.744699865462042 0 -1 0 I I #
straight-curve $-1 -57.261362348934583 -5.3930149476838043 11.744699865462042 0 1 0 I I #
straight-curve $-1 -65.481734672078616 -8.2986281296781357 0 0 0 -1 I I #
point $-1 -65.481734672078616 -8.2986281296781357 -11.744699865462042 #
point $-1 -65.481734672078616 -8.2986281296781357 11.744699865462042 #
straight-curve $-1 -57.261362348934583 -31.78802786060222 58.769657006242348 0 0 -1 I I #
point $-1 -57.261362348934583 -31.78802786060222 11.744699865462042 #
straight-curve $-1 -24.895139778343754 -31.78802786060222 6.4759937417310161 1 0 0 I I #
point $-1 -57.261362348934583 -31.78802786060222 6.4759937417310178 #
point $-1 -52.992172181936255 -25.828576427366936 6.3199950177258986 #
point $-1 -46.588386931438762 -25.828576427366936 6.3199950177258986 #
straight-curve $-1 -34.094509440707959 31.78802786060222 73.499637755692547 0 0 -1 I I #
point $-1 -34.094509440707959 31.78802786060222 11.744699865462042 #
straight-curve $-1 -21.645297965566179 31.788027860602213 4.1461731958927253 -1 0 0 I I #
point $-1 -34.094509440707959 31.78802786060222 4.1461731958927217 #
point $-1 -48.808247825386999 24.48134301026483 4.9398231035477602 #
point $-1 -43.290595931132358 24.48134301026483 4.9398231035477602 #
point $-1 -37.772944036877718 24.48134301026483 4.9398231035477602 #
End-of-ACIS-data 