500 0 9 0           
7 Unknown 11 ACIS 5.0 NT 24 Thu Mar 25 19:41:06 1999 
-1 9.9999999999999995e-007 1e-010 
body $-1 $9 $-1 $10 #
body $-1 $11 $-1 $12 #
body $-1 $13 $-1 $14 #
body $-1 $15 $-1 $16 #
body $-1 $17 $-1 $18 #
body $-1 $19 $-1 $20 #
body $-1 $21 $-1 $22 #
body $-1 $23 $-1 $24 #
body $-1 $25 $-1 $26 #
lump $-1 $-1 $27 $0 #
transform $-1 1 0 0 0 1 0 0 0 1 64.779808954130687 28.235669650706058 10.632301814392582 1 rotate no_reflect no_shear #
lump $-1 $-1 $28 $1 #
transform $-1 1 0 0 0 1 0 0 0 1 64.779808954130687 28.235669650706058 10.632301814392582 1 rotate no_reflect no_shear #
lump $-1 $-1 $29 $2 #
transform $-1 1 0 0 0 1 0 0 0 1 64.779808954130687 28.235669650706058 10.632301814392582 1 rotate no_reflect no_shear #
lump $-1 $-1 $30 $3 #
transform $-1 1 0 0 0 1 0 0 0 1 64.779808954130687 28.235669650706058 10.632301814392582 1 rotate no_reflect no_shear #
lump $-1 $-1 $31 $4 #
transform $-1 1 0 0 0 1 0 0 0 1 64.779808954130687 28.235669650706058 10.632301814392582 1 rotate no_reflect no_shear #
lump $-1 $-1 $32 $5 #
transform $-1 1 0 0 0 1 0 0 0 1 64.779808954130687 28.235669650706058 10.632301814392582 1 rotate no_reflect no_shear #
lump $-1 $-1 $33 $6 #
transform $-1 1 0 0 0 1 0 0 0 1 64.779808954130687 28.235669650706058 10.632301814392582 1 rotate no_reflect no_shear #
lump $-1 $-1 $34 $7 #
transform $-1 1 0 0 0 1 0 0 0 1 64.779808954130687 28.235669650706058 10.632301814392582 1 rotate no_reflect no_shear #
lump $-1 $-1 $35 $8 #
transform $-1 1 0 0 0 1 0 0 0 1 64.779808954130687 28.235669650706058 10.632301814392582 1 rotate no_reflect no_shear #
shell $-1 $-1 $-1 $36 $-1 $9 #
shell $-1 $-1 $-1 $37 $-1 $11 #
shell $-1 $-1 $-1 $38 $-1 $13 #
shell $-1 $-1 $-1 $39 $-1 $15 #
shell $-1 $-1 $-1 $40 $-1 $17 #
shell $-1 $-1 $-1 $41 $-1 $19 #
shell $-1 $-1 $-1 $42 $-1 $21 #
shell $-1 $-1 $-1 $43 $-1 $23 #
shell $-1 $-1 $-1 $44 $-1 $25 #
face $-1 $45 $46 $27 $-1 $47 forward single #
face $-1 $48 $49 $28 $-1 $50 reversed single #
face $-1 $51 $52 $29 $-1 $53 reversed single #
face $-1 $54 $55 $30 $-1 $56 reversed single #
face $-1 $57 $58 $31 $-1 $59 forward single #
face $-1 $60 $61 $32 $-1 $62 forward single #
face $-1 $63 $64 $33 $-1 $65 reversed single #
face $-1 $66 $67 $34 $-1 $68 forward single #
face $-1 $69 $70 $35 $-1 $71 forward single #
face $-1 $72 $73 $27 $-1 $74 reversed single #
loop $-1 $-1 $75 $36 #
plane-surface $-1 0 0 10.632301814392582 0 0 1 1 0 0 forward_v I I I I #
face $-1 $76 $77 $28 $-1 $78 reversed single #
loop $-1 $-1 $79 $37 #
plane-surface $-1 -63.279808954130687 -20.065108963948475 0 0 -1 0 0 0 -1 forward_v I I I I #
face $-1 $80 $81 $29 $-1 $82 reversed single #
loop $-1 $-1 $83 $38 #
plane-surface $-1 -63.279808954130687 20.065108963948475 0 0 1 0 0 0 1 forward_v I I I I #
face $-1 $84 $85 $30 $-1 $86 reversed single #
loop $-1 $-1 $87 $39 #
plane-surface $-1 80.748919551316988 10.960865007057299 183.79719154261684 0 -1 0 -0.7660444514056185 0 -0.64278759981090561 forward_v I I I I #
face $-1 $88 $89 $31 $-1 $90 forward single #
loop $-1 $91 $92 $40 #
cone-surface $-1 59.87841266904892 5.1433272242116956 5.1342526206730161 -0.7660444514056185 0 -0.64278759981090561 0.64278759981090561 0 -0.7660444514056185 1 I I 0 1 1 forward I I I I #
face $-1 $93 $94 $32 $-1 $95 forward single #
loop $-1 $96 $97 $41 #
cone-surface $-1 59.87841266904892 8.6338498939190558 5.1342526206730161 -0.7660444514056185 0 -0.64278759981090561 0.64278759981090561 0 -0.7660444514056185 1 I I 0 1 1 forward I I I I #
face $-1 $98 $99 $33 $-1 $100 reversed single #
loop $-1 $-1 $101 $42 #
plane-surface $-1 -164.02823537898632 2.8163121110734526 84.548765117761221 0 1 0 -0.7660444514056185 0 0.64278759981090561 forward_v I I I I #
face $-1 $102 $103 $34 $-1 $104 forward single #
loop $-1 $105 $106 $43 #
cone-surface $-1 -59.878412669048913 5.1433272242116956 5.1342526206730055 0.7660444514056185 0 -0.64278759981090561 0.64278759981090561 0 0.7660444514056185 1 I I 0 1 1 forward I I I I #
face $-1 $107 $108 $35 $-1 $109 forward single #
loop $-1 $110 $111 $44 #
cone-surface $-1 -59.878412669048913 8.6338498939190558 5.1342526206730055 0.7660444514056185 0 -0.64278759981090561 0.64278759981090561 0 0.7660444514056185 1 I I 0 1 1 forward I I I I #
face $-1 $112 $113 $27 $-1 $114 reversed single #
loop $-1 $-1 $115 $45 #
plane-surface $-1 0 0 -10.632301814392582 0 0 1 1 0 0 forward_v I I I I #
coedge $-1 $116 $117 $118 $119 forward $46 $-1 #
face $-1 $120 $121 $28 $-1 $122 forward single #
loop $-1 $-1 $123 $48 #
plane-surface $-1 -61.779808954130687 -24.150389307327266 0 -1 0 0 0 0 1 forward_v I I I I #
coedge $-1 $124 $125 $126 $127 forward $49 $-1 #
face $-1 $128 $129 $29 $-1 $130 reversed single #
loop $-1 $-1 $131 $51 #
plane-surface $-1 -61.779808954130687 24.150389307327266 0 -1 0 0 0 0 1 forward_v I I I I #
coedge $-1 $132 $133 $134 $135 reversed $52 $-1 #
face $-1 $136 $137 $30 $-1 $138 reversed single #
loop $-1 $-1 $139 $54 #
plane-surface $-1 -18.499506873538635 6.8885885590653757 100.51787571494749 0.7660444514056185 0 0.64278759981090561 0.64278759981090561 0 -0.7660444514056185 forward_v I I I I #
coedge $-1 $140 $141 $142 $143 reversed $55 $-1 #
face $-1 $-1 $144 $31 $-1 $145 forward single #
loop $-1 $146 $147 $57 #
cone-surface $-1 58.5221771053738 5.1433272242116956 3.9962358891983545 -0.7660444514056185 0 -0.64278759981090561 0.3213937999054528 0 -0.38302222570280925 1 I I -0.70710678118654746 0.70710678118654746 0.5 forward I I I I #
loop $-1 $-1 $148 $40 #
coedge $-1 $92 $92 $149 $150 reversed $58 $-1 #
face $-1 $-1 $151 $32 $-1 $152 forward single #
loop $-1 $153 $154 $60 #
cone-surface $-1 58.5221771053738 8.6338498939190558 3.9962358891983545 -0.7660444514056185 0 -0.64278759981090561 0.3213937999054528 0 -0.38302222570280925 1 I I -0.70710678118654746 0.70710678118654746 0.5 forward I I I I #
loop $-1 $-1 $155 $41 #
coedge $-1 $97 $97 $156 $157 reversed $61 $-1 #
face $-1 $158 $159 $33 $-1 $160 reversed single #
loop $-1 $-1 $161 $63 #
plane-surface $-1 -64.779808954130701 6.8885885590653757 1.2694492900918704 -0.7660444514056185 0 0.64278759981090561 0.64278759981090561 0 0.7660444514056185 forward_v I I I I #
coedge $-1 $162 $163 $164 $165 reversed $64 $-1 #
face $-1 $-1 $166 $34 $-1 $167 forward single #
loop $-1 $168 $169 $66 #
cone-surface $-1 -58.522177105373792 5.1433272242116956 3.9962358891983438 0.7660444514056185 0 -0.64278759981090561 0.3213937999054528 0 0.38302222570280925 1 I I -0.70710678118654746 0.70710678118654746 0.5 forward I I I I #
loop $-1 $-1 $170 $43 #
coedge $-1 $106 $106 $171 $172 reversed $67 $-1 #
face $-1 $-1 $173 $35 $-1 $174 forward single #
loop $-1 $175 $176 $69 #
cone-surface $-1 -58.522177105373792 8.6338498939190558 3.9962358891983438 0.7660444514056185 0 -0.64278759981090561 0.3213937999054528 0 0.38302222570280925 1 I I -0.70710678118654746 0.70710678118654746 0.5 forward I I I I #
loop $-1 $-1 $177 $44 #
coedge $-1 $111 $111 $178 $179 reversed $70 $-1 #
face $-1 $180 $181 $27 $-1 $182 reversed single #
loop $-1 $-1 $183 $72 #
plane-surface $-1 0 -28.235669650706058 0 0 1 0 0 0 1 forward_v I I I I #
coedge $-1 $184 $185 $186 $187 forward $73 $-1 #
coedge $-1 $188 $75 $189 $190 forward $46 $-1 #
coedge $-1 $75 $188 $191 $192 forward $46 $-1 #
coedge $-1 $193 $194 $75 $119 reversed $195 $-1 #
edge $-1 $196 -28.235669650706058 $197 28.235669650706058 $118 $198 forward 7 unknown #
face $-1 $199 $200 $28 $-1 $201 reversed single #
loop $-1 $-1 $202 $76 #
plane-surface $-1 0 0 10.632301814392582 0 0 1 1 0 0 forward_v I I I I #
coedge $-1 $203 $204 $205 $206 reversed $77 $-1 #
coedge $-1 $207 $79 $208 $209 reversed $49 $-1 #
coedge $-1 $79 $207 $210 $211 reversed $49 $-1 #
coedge $-1 $204 $203 $79 $127 reversed $77 $-1 #
edge $-1 $212 -10.632301814392582 $213 10.632301814392582 $126 $214 forward 7 unknown #
face $-1 $215 $216 $29 $-1 $217 reversed single #
loop $-1 $-1 $218 $80 #
plane-surface $-1 0 0 -10.632301814392582 0 0 1 1 0 0 forward_v I I I I #
coedge $-1 $219 $220 $221 $222 forward $81 $-1 #
coedge $-1 $221 $83 $223 $224 reversed $52 $-1 #
coedge $-1 $83 $221 $225 $226 reversed $52 $-1 #
coedge $-1 $227 $228 $83 $135 forward $216 $-1 #
edge $-1 $229 -10.632301814392582 $230 10.632301814392582 $134 $231 forward 7 unknown #
face $-1 $232 $233 $30 $-1 $234 reversed single #
loop $-1 $-1 $235 $84 #
plane-surface $-1 80.748919551316988 2.8163121110734526 183.79719154261684 0 1 0 0.7660444514056185 0 0.64278759981090561 forward_v I I I I #
coedge $-1 $236 $237 $238 $239 reversed $85 $-1 #
coedge $-1 $141 $87 $240 $241 reversed $55 $-1 #
coedge $-1 $87 $140 $236 $242 reversed $55 $-1 #
coedge $-1 $238 $243 $87 $143 forward $244 $-1 #
edge $-1 $245 -24.405349178472193 $246 -16.548983284253325 $142 $247 forward 7 unknown #
loop $-1 $-1 $149 $88 #
plane-surface $-1 -18.499506873538635 6.8885885590653757 100.51787571494749 0.7660444514056185 0 0.64278759981090561 0.64278759981090561 0 -0.7660444514056185 forward_v I I I I #
loop $-1 $-1 $248 $57 #
coedge $-1 $147 $147 $148 $249 reversed $89 $-1 #
coedge $-1 $148 $148 $147 $249 forward $91 $-1 #
coedge $-1 $149 $149 $92 $150 forward $144 $-1 #
edge $-1 $250 0 $250 6.2831853071796004 $149 $251 forward 7 unknown #
loop $-1 $-1 $156 $93 #
plane-surface $-1 -18.499506873538635 6.8885885590653757 100.51787571494749 0.7660444514056185 0 0.64278759981090561 0.64278759981090561 0 -0.7660444514056185 forward_v I I I I #
loop $-1 $-1 $252 $60 #
coedge $-1 $154 $154 $155 $253 reversed $94 $-1 #
coedge $-1 $155 $155 $154 $253 forward $96 $-1 #
coedge $-1 $156 $156 $97 $157 forward $151 $-1 #
edge $-1 $254 0 $254 6.2831853071796004 $156 $255 forward 7 unknown #
face $-1 $256 $257 $33 $-1 $258 forward single #
loop $-1 $-1 $259 $98 #
plane-surface $-1 -164.02823537898632 10.960865007057299 84.548765117761221 0 -1 0 0.7660444514056185 0 -0.64278759981090561 forward_v I I I I #
coedge $-1 $260 $261 $262 $263 reversed $99 $-1 #
coedge $-1 $163 $101 $264 $265 reversed $64 $-1 #
coedge $-1 $101 $162 $260 $266 reversed $64 $-1 #
coedge $-1 $262 $267 $101 $165 forward $257 $-1 #
edge $-1 $268 17.234308735362475 $269 25.090674629581365 $164 $270 forward 7 unknown #
loop $-1 $-1 $171 $102 #
plane-surface $-1 -64.779808954130701 6.8885885590653757 1.2694492900918704 -0.7660444514056185 0 0.64278759981090561 0.64278759981090561 0 0.7660444514056185 forward_v I I I I #
loop $-1 $-1 $271 $66 #
coedge $-1 $169 $169 $170 $272 reversed $103 $-1 #
coedge $-1 $170 $170 $169 $272 forward $105 $-1 #
coedge $-1 $171 $171 $106 $172 forward $166 $-1 #
edge $-1 $273 0 $273 6.2831853071796004 $171 $274 forward 7 unknown #
loop $-1 $-1 $178 $107 #
plane-surface $-1 -64.779808954130701 6.8885885590653757 1.2694492900918704 -0.7660444514056185 0 0.64278759981090561 0.64278759981090561 0 0.7660444514056185 forward_v I I I I #
loop $-1 $-1 $275 $69 #
coedge $-1 $176 $176 $177 $276 reversed $108 $-1 #
coedge $-1 $177 $177 $176 $276 forward $110 $-1 #
coedge $-1 $178 $178 $111 $179 forward $173 $-1 #
edge $-1 $277 0 $277 6.2831853071796004 $178 $278 forward 7 unknown #
face $-1 $279 $280 $27 $-1 $281 reversed single #
loop $-1 $-1 $282 $112 #
plane-surface $-1 -64.779808954130687 0 0 1 0 0 0 0 -1 forward_v I I I I #
coedge $-1 $283 $191 $284 $285 forward $113 $-1 #
coedge $-1 $286 $115 $283 $287 forward $73 $-1 #
coedge $-1 $115 $286 $288 $289 forward $73 $-1 #
coedge $-1 $194 $193 $115 $187 reversed $195 $-1 #
edge $-1 $290 -28.235669650706058 $291 28.235669650706058 $186 $292 forward 7 unknown #
coedge $-1 $117 $116 $293 $294 forward $46 $-1 #
coedge $-1 $295 $296 $116 $190 reversed $280 $-1 #
edge $-1 $197 -64.779808954130687 $297 64.779808954130687 $189 $298 forward 7 unknown #
coedge $-1 $183 $299 $117 $192 reversed $113 $-1 #
edge $-1 $300 -64.779808954130687 $196 64.779808954130687 $191 $301 forward 7 unknown #
coedge $-1 $186 $118 $299 $302 forward $195 $-1 #
coedge $-1 $118 $186 $295 $303 reversed $195 $-1 #
loop $-1 $-1 $193 $279 #
vertex $-1 $119 $304 #
vertex $-1 $119 $305 #
straight-curve $-1 64.779808954130687 0 10.632301814392582 0 1 0 I I #
face $-1 $306 $307 $28 $-1 $308 reversed single #
loop $-1 $-1 $309 $120 #
plane-surface $-1 -64.779808954130687 0 0 1 0 0 0 0 -1 forward_v I I I I #
coedge $-1 $210 $310 $204 $311 forward $121 $-1 #
coedge $-1 $126 $123 $312 $313 reversed $77 $-1 #
coedge $-1 $123 $126 $202 $311 reversed $77 $-1 #
coedge $-1 $314 $315 $123 $206 forward $316 $-1 #
edge $-1 $317 -10.632301814392582 $318 10.632301814392582 $205 $319 forward 7 unknown #
coedge $-1 $125 $124 $309 $320 reversed $49 $-1 #
coedge $-1 $312 $321 $124 $209 forward $307 $-1 #
edge $-1 $322 -33.139904477065343 $213 -30.139904477065343 $208 $323 forward 7 unknown #
coedge $-1 $324 $202 $125 $211 forward $121 $-1 #
edge $-1 $212 30.139904477065343 $325 33.139904477065343 $210 $326 forward 7 unknown #
vertex $-1 $211 $327 #
vertex $-1 $209 $328 #
straight-curve $-1 -61.779808954130687 -20.065108963948475 0 0 0 -1 I I #
face $-1 $329 $330 $29 $-1 $331 forward single #
loop $-1 $-1 $134 $128 #
plane-surface $-1 -64.779808954130687 0 0 1 0 0 0 0 -1 forward_v I I I I #
coedge $-1 $223 $332 $219 $333 forward $129 $-1 #
coedge $-1 $334 $131 $218 $333 reversed $81 $-1 #
coedge $-1 $131 $334 $335 $336 reversed $81 $-1 #
coedge $-1 $133 $132 $131 $222 reversed $52 $-1 #
edge $-1 $337 -10.632301814392582 $338 10.632301814392582 $131 $339 forward 7 unknown #
coedge $-1 $340 $218 $132 $224 forward $129 $-1 #
edge $-1 $338 30.139904477065343 $229 33.139904477065343 $223 $341 forward 7 unknown #
coedge $-1 $335 $342 $133 $226 forward $330 $-1 #
edge $-1 $230 -33.139904477065343 $337 -30.139904477065343 $225 $343 forward 7 unknown #
coedge $-1 $344 $134 $342 $345 reversed $216 $-1 #
coedge $-1 $134 $344 $340 $346 reversed $216 $-1 #
vertex $-1 $346 $347 #
vertex $-1 $135 $348 #
straight-curve $-1 -64.779808954130687 20.065108963948475 0 0 0 1 I I #
face $-1 $-1 $244 $30 $-1 $349 forward single #
loop $-1 $-1 $350 $136 #
plane-surface $-1 64.779808954130687 0 0 -1 0 0 0 0 1 forward_v I I I I #
coedge $-1 $351 $352 $353 $354 reversed $137 $-1 #
coedge $-1 $355 $139 $141 $242 forward $85 $-1 #
coedge $-1 $139 $355 $351 $356 forward $85 $-1 #
coedge $-1 $353 $142 $139 $239 forward $244 $-1 #
edge $-1 $246 -7.516570727524611 $357 0.62798216845923527 $238 $358 forward 7 unknown #
coedge $-1 $359 $360 $140 $241 forward $233 $-1 #
edge $-1 $361 -90.629146481216523 $245 -81.266293956915845 $240 $362 forward 7 unknown #
edge $-1 $246 117.33728210631052 $361 129.55961790826137 $141 $363 forward 7 unknown #
coedge $-1 $142 $353 $359 $364 forward $244 $-1 #
loop $-1 $-1 $353 $232 #
vertex $-1 $241 $365 #
vertex $-1 $143 $366 #
straight-curve $-1 40.374459775658494 10.960865007057299 10.632301814392576 -1 0 0 I I #
coedge $-1 $248 $248 $-1 $367 reversed $146 $-1 #
edge $-1 $368 0 $368 6.2831853071796004 $147 $369 forward 7 unknown #
vertex $-1 $150 $370 #
ellipse-curve $-1 60.851626007021252 5.1433272242116956 5.9508755522422385 0.7660444514056185 0 0.64278759981090561 0.64278759981090561 0 -0.7660444514056185 1 I I #
coedge $-1 $252 $252 $-1 $371 reversed $153 $-1 #
edge $-1 $372 0 $372 6.2831853071796004 $154 $373 forward 7 unknown #
vertex $-1 $157 $374 #
ellipse-curve $-1 60.851626007021252 8.6338498939190558 5.9508755522422385 0.7660444514056185 0 0.64278759981090561 0.64278759981090561 0 -0.7660444514056185 1 I I #
face $-1 $-1 $375 $33 $-1 $376 reversed single #
loop $-1 $-1 $164 $158 #
plane-surface $-1 0 0 10.632301814392582 0 0 1 1 0 0 forward_v I I I I #
coedge $-1 $377 $378 $379 $380 reversed $159 $-1 #
coedge $-1 $381 $161 $163 $266 forward $99 $-1 #
coedge $-1 $161 $381 $377 $382 forward $99 $-1 #
coedge $-1 $379 $164 $161 $263 forward $257 $-1 #
edge $-1 $269 -0.62798216845923527 $383 7.516570727524611 $262 $384 forward 7 unknown #
coedge $-1 $385 $386 $162 $265 forward $375 $-1 #
edge $-1 $387 -41.004933268788726 $268 -31.642080744488027 $264 $388 forward 7 unknown #
edge $-1 $269 -12.22233580195088 $387 -2.2061860048766535e-014 $163 $389 forward 7 unknown #
coedge $-1 $164 $379 $385 $390 forward $257 $-1 #
vertex $-1 $165 $391 #
vertex $-1 $165 $392 #
straight-curve $-1 -82.014117689493162 2.8163121110734526 10.632301814392584 1 0 0 I I #
coedge $-1 $271 $271 $-1 $393 reversed $168 $-1 #
edge $-1 $394 0 $394 6.2831853071796004 $169 $395 forward 7 unknown #
vertex $-1 $172 $396 #
ellipse-curve $-1 -60.851626007021245 5.1433272242116956 5.9508755522422296 -0.7660444514056185 0 0.64278759981090561 0.64278759981090561 0 0.7660444514056185 1 I I #
coedge $-1 $275 $275 $-1 $397 reversed $175 $-1 #
edge $-1 $398 0 $398 6.2831853071796004 $176 $399 forward 7 unknown #
vertex $-1 $179 $400 #
ellipse-curve $-1 -60.851626007021245 8.6338498939190558 5.9508755522422296 -0.7660444514056185 0 0.64278759981090561 0.64278759981090561 0 0.7660444514056185 1 I I #
face $-1 $-1 $195 $27 $-1 $401 reversed single #
loop $-1 $-1 $295 $180 #
plane-surface $-1 0 28.235669650706058 0 0 -1 0 0 0 -1 forward_v I I I I #
coedge $-1 $402 $293 $296 $403 forward $181 $-1 #
coedge $-1 $299 $183 $184 $287 reversed $113 $-1 #
coedge $-1 $293 $402 $183 $285 reversed $181 $-1 #
edge $-1 $300 -10.632301814392582 $404 10.632301814392582 $284 $405 forward 7 unknown #
coedge $-1 $185 $184 $402 $406 forward $73 $-1 #
edge $-1 $291 -64.779808954130687 $404 64.779808954130687 $283 $407 forward 7 unknown #
coedge $-1 $296 $295 $185 $289 reversed $280 $-1 #
edge $-1 $408 -64.779808954130687 $290 64.779808954130687 $288 $409 forward 7 unknown #
vertex $-1 $187 $410 #
vertex $-1 $302 $411 #
straight-curve $-1 64.779808954130687 0 -10.632301814392582 0 -1 0 I I #
coedge $-1 $282 $284 $188 $294 reversed $181 $-1 #
edge $-1 $297 -28.235669650706058 $300 28.235669650706058 $293 $412 forward 7 unknown #
coedge $-1 $288 $189 $194 $303 forward $280 $-1 #
coedge $-1 $189 $288 $282 $403 reversed $280 $-1 #
vertex $-1 $190 $413 #
straight-curve $-1 0 28.235669650706058 10.632301814392582 -1 0 0 I I #
coedge $-1 $191 $283 $193 $302 reversed $113 $-1 #
vertex $-1 $294 $414 #
straight-curve $-1 0 -28.235669650706058 10.632301814392582 1 0 0 I I #
edge $-1 $196 -10.632301814392582 $291 10.632301814392582 $193 $415 forward 7 unknown #
edge $-1 $197 -10.632301814392582 $290 10.632301814392582 $194 $416 forward 7 unknown #
point $-1 64.779808954130687 -28.235669650706058 10.632301814392582 #
point $-1 64.779808954130687 28.235669650706058 10.632301814392582 #
face $-1 $-1 $316 $28 $-1 $417 reversed single #
loop $-1 $-1 $312 $199 #
plane-surface $-1 0 0 -10.632301814392582 0 0 1 1 0 0 forward_v I I I I #
coedge $-1 $418 $419 $207 $320 forward $200 $-1 #
coedge $-1 $202 $324 $314 $420 forward $121 $-1 #
edge $-1 $318 -16.160474997042424 $212 -7.989914310284842 $202 $421 forward 7 unknown #
coedge $-1 $422 $208 $203 $313 forward $307 $-1 #
edge $-1 $213 7.989914310284842 $317 16.160474997042424 $312 $423 forward 7 unknown #
coedge $-1 $424 $205 $310 $420 reversed $316 $-1 #
coedge $-1 $205 $424 $422 $425 reversed $316 $-1 #
loop $-1 $-1 $205 $306 #
vertex $-1 $425 $426 #
vertex $-1 $206 $427 #
straight-curve $-1 -61.779808954130687 -28.235669650706058 0 0 0 1 I I #
edge $-1 $325 -10.632301814392582 $322 10.632301814392582 $309 $428 forward 7 unknown #
coedge $-1 $208 $422 $418 $429 forward $307 $-1 #
vertex $-1 $209 $430 #
straight-curve $-1 -31.639904477065343 -20.065108963948475 -10.632301814392582 1 0 0 I I #
coedge $-1 $310 $210 $419 $431 forward $121 $-1 #
vertex $-1 $431 $432 #
straight-curve $-1 -31.639904477065343 -20.065108963948475 10.632301814392582 -1 0 0 I I #
point $-1 -61.779808954130687 -20.065108963948475 10.632301814392582 #
point $-1 -61.779808954130687 -20.065108963948475 -10.632301814392582 #
face $-1 $-1 $433 $29 $-1 $434 reversed single #
loop $-1 $-1 $335 $215 #
plane-surface $-1 0 0 10.632301814392582 0 0 1 1 0 0 forward_v I I I I #
coedge $-1 $218 $340 $435 $436 forward $129 $-1 #
edge $-1 $437 -16.160474997042424 $338 -7.989914310284842 $218 $438 forward 7 unknown #
coedge $-1 $220 $219 $439 $440 reversed $81 $-1 #
coedge $-1 $441 $225 $220 $336 forward $330 $-1 #
edge $-1 $337 7.989914310284842 $442 16.160474997042424 $335 $443 forward 7 unknown #
vertex $-1 $226 $444 #
vertex $-1 $224 $445 #
straight-curve $-1 -61.779808954130687 20.065108963948475 0 0 0 -1 I I #
coedge $-1 $332 $223 $228 $346 forward $129 $-1 #
straight-curve $-1 -31.639904477065343 20.065108963948475 -10.632301814392582 -1 0 0 I I #
coedge $-1 $225 $441 $227 $345 forward $330 $-1 #
straight-curve $-1 -31.639904477065343 20.065108963948475 10.632301814392582 1 0 0 I I #
coedge $-1 $228 $227 $446 $447 forward $216 $-1 #
edge $-1 $448 -28.235669650706058 $230 -20.065108963948475 $227 $449 forward 7 unknown #
edge $-1 $229 20.065108963948475 $450 28.235669650706058 $228 $451 forward 7 unknown #
point $-1 -64.779808954130687 20.065108963948475 -10.632301814392582 #
point $-1 -64.779808954130687 20.065108963948475 10.632301814392582 #
plane-surface $-1 0 0 10.632301814392582 0 0 1 1 0 0 forward_v I I I I #
coedge $-1 $360 $359 $352 $452 forward $233 $-1 #
coedge $-1 $352 $235 $237 $356 reversed $137 $-1 #
coedge $-1 $235 $351 $350 $452 reversed $137 $-1 #
coedge $-1 $243 $238 $235 $354 forward $244 $-1 #
edge $-1 $357 16.548983284253325 $453 24.405349178472193 $353 $454 forward 7 unknown #
coedge $-1 $237 $236 $360 $455 reversed $85 $-1 #
edge $-1 $456 -129.55961790826137 $357 -117.33728210631052 $351 $457 forward 7 unknown #
vertex $-1 $239 $458 #
straight-curve $-1 56.923443059911804 3.4442942795326879 10.632301814392584 0 -1 0 I I #
coedge $-1 $350 $240 $243 $364 reversed $233 $-1 #
coedge $-1 $240 $350 $355 $455 forward $233 $-1 #
vertex $-1 $241 $459 #
straight-curve $-1 64.779808954130687 10.960865007057299 91.898595771308422 0 0 1 I I #
straight-curve $-1 -18.499506873538635 10.960865007057299 100.51787571494749 0.64278759981090561 0 -0.7660444514056185 I I #
edge $-1 $453 2.8163121110734526 $245 10.960865007057299 $359 $460 forward 7 unknown #
point $-1 64.779808954130687 10.960865007057299 10.632301814392582 #
point $-1 56.923443059911818 10.960865007057299 10.632301814392576 #
edge $-1 $461 1 $461 0 $248 $-1 forward 7 unknown #
vertex $-1 $249 $462 #
ellipse-curve $-1 58.905199331076609 5.1433272242116956 4.3176296891038071 0.7660444514056185 0 0.64278759981090561 0.64278759981090561 0 -0.7660444514056185 1 I I #
point $-1 61.49441360683214 5.1433272242116956 5.1848311008366075 #
edge $-1 $463 1 $463 0 $252 $-1 forward 7 unknown #
vertex $-1 $253 $464 #
ellipse-curve $-1 58.905199331076609 8.6338498939190558 4.3176296891038071 0.7660444514056185 0 0.64278759981090561 0.64278759981090561 0 -0.7660444514056185 1 I I #
point $-1 61.49441360683214 8.6338498939190558 5.1848311008366075 #
loop $-1 $-1 $264 $256 #
plane-surface $-1 -64.779808954130687 0 0 1 0 0 0 0 -1 forward_v I I I I #
coedge $-1 $378 $259 $261 $382 reversed $159 $-1 #
coedge $-1 $259 $377 $465 $466 reversed $159 $-1 #
coedge $-1 $267 $262 $259 $380 forward $257 $-1 #
edge $-1 $383 -25.090674629581365 $467 -17.234308735362475 $379 $468 forward 7 unknown #
coedge $-1 $261 $260 $386 $469 reversed $99 $-1 #
edge $-1 $470 2.2061860048766535e-014 $383 12.22233580195088 $377 $471 forward 7 unknown #
vertex $-1 $263 $472 #
straight-curve $-1 -56.923443059911797 3.4442942795326879 10.632301814392582 0 1 0 I I #
coedge $-1 $465 $264 $267 $390 reversed $375 $-1 #
coedge $-1 $264 $465 $381 $469 forward $375 $-1 #
vertex $-1 $265 $473 #
straight-curve $-1 -64.779808954130687 2.8163121110734526 42.27438255888061 0 0 1 I I #
straight-curve $-1 -64.779808954130701 2.8163121110734526 1.2694492900918704 -0.64278759981090561 0 -0.7660444514056185 I I #
edge $-1 $467 -10.960865007057299 $268 -2.8163121110734526 $385 $474 forward 7 unknown #
point $-1 -64.779808954130687 2.8163121110734526 10.632301814392582 #
point $-1 -56.923443059911797 2.8163121110734526 10.632301814392582 #
edge $-1 $475 1 $475 0 $271 $-1 forward 7 unknown #
vertex $-1 $272 $476 #
ellipse-curve $-1 -58.905199331076602 5.1433272242116956 4.3176296891037964 -0.7660444514056185 0 0.64278759981090561 0.64278759981090561 0 0.7660444514056185 1 I I #
point $-1 -60.208838407210322 5.1433272242116956 6.7169200036478331 #
edge $-1 $477 1 $477 0 $275 $-1 forward 7 unknown #
vertex $-1 $276 $478 #
ellipse-curve $-1 -58.905199331076602 8.6338498939190558 4.3176296891037964 -0.7660444514056185 0 0.64278759981090561 0.64278759981090561 0 0.7660444514056185 1 I I #
point $-1 -60.208838407210322 8.6338498939190558 6.7169200036478331 #
plane-surface $-1 64.779808954130687 0 0 -1 0 0 0 0 1 forward_v I I I I #
coedge $-1 $284 $282 $286 $406 reversed $181 $-1 #
edge $-1 $297 -10.632301814392582 $408 10.632301814392582 $296 $479 forward 7 unknown #
vertex $-1 $406 $480 #
straight-curve $-1 -64.779808954130687 -28.235669650706058 0 0 0 -1 I I #
edge $-1 $404 -28.235669650706058 $408 28.235669650706058 $402 $481 forward 7 unknown #
straight-curve $-1 0 -28.235669650706058 -10.632301814392582 -1 0 0 I I #
vertex $-1 $289 $482 #
straight-curve $-1 0 28.235669650706058 -10.632301814392582 1 0 0 I I #
point $-1 64.779808954130687 28.235669650706058 -10.632301814392582 #
point $-1 64.779808954130687 -28.235669650706058 -10.632301814392582 #
straight-curve $-1 -64.779808954130687 0 10.632301814392582 0 -1 0 I I #
point $-1 -64.779808954130687 28.235669650706058 10.632301814392582 #
point $-1 -64.779808954130687 -28.235669650706058 10.632301814392582 #
straight-curve $-1 64.779808954130687 -28.235669650706058 0 0 0 -1 I I #
straight-curve $-1 64.779808954130687 28.235669650706058 0 0 0 -1 I I #
plane-surface $-1 0 -28.235669650706058 0 0 1 0 0 0 1 forward_v I I I I #
coedge $-1 $483 $309 $321 $429 reversed $200 $-1 #
coedge $-1 $309 $483 $324 $431 reversed $200 $-1 #
edge $-1 $484 -64.779808954130687 $318 -61.779808954130687 $314 $485 forward 7 unknown #
straight-curve $-1 -61.779808954130687 -12.075194653663633 10.632301814392582 0 1 0 I I #
coedge $-1 $321 $312 $315 $425 forward $307 $-1 #
straight-curve $-1 -61.779808954130687 -12.075194653663633 -10.632301814392582 0 -1 0 I I #
coedge $-1 $315 $314 $483 $486 forward $316 $-1 #
edge $-1 $317 61.779808954130687 $487 64.779808954130687 $315 $488 forward 7 unknown #
point $-1 -61.779808954130687 -28.235669650706058 -10.632301814392582 #
point $-1 -61.779808954130687 -28.235669650706058 10.632301814392582 #
straight-curve $-1 -64.779808954130687 -20.065108963948475 0 0 0 -1 I I #
edge $-1 $487 -28.235669650706058 $322 -20.065108963948475 $418 $489 forward 7 unknown #
point $-1 -64.779808954130687 -20.065108963948475 -10.632301814392582 #
edge $-1 $325 20.065108963948475 $484 28.235669650706058 $419 $490 forward 7 unknown #
point $-1 -64.779808954130687 -20.065108963948475 10.632301814392582 #
loop $-1 $-1 $439 $329 #
plane-surface $-1 0 28.235669650706058 0 0 -1 0 0 0 -1 forward_v I I I I #
coedge $-1 $446 $439 $332 $436 reversed $433 $-1 #
edge $-1 $450 -64.779808954130687 $437 -61.779808954130687 $435 $491 forward 7 unknown #
vertex $-1 $333 $492 #
straight-curve $-1 -61.779808954130687 12.075194653663633 -10.632301814392582 0 -1 0 I I #
coedge $-1 $435 $493 $334 $440 forward $433 $-1 #
edge $-1 $442 -10.632301814392582 $437 10.632301814392582 $439 $494 forward 7 unknown #
coedge $-1 $342 $335 $493 $495 forward $330 $-1 #
vertex $-1 $495 $496 #
straight-curve $-1 -61.779808954130687 12.075194653663633 10.632301814392582 0 1 0 I I #
point $-1 -61.779808954130687 20.065108963948475 10.632301814392582 #
point $-1 -61.779808954130687 20.065108963948475 -10.632301814392582 #
coedge $-1 $493 $435 $344 $447 reversed $433 $-1 #
edge $-1 $448 -10.632301814392582 $450 10.632301814392582 $446 $497 forward 7 unknown #
vertex $-1 $495 $498 #
straight-curve $-1 -64.779808954130687 0 10.632301814392582 0 -1 0 I I #
vertex $-1 $436 $499 #
straight-curve $-1 -64.779808954130687 0 -10.632301814392582 0 1 0 I I #
edge $-1 $453 81.266293956915845 $456 90.629146481216523 $350 $500 forward 7 unknown #
vertex $-1 $364 $501 #
straight-curve $-1 40.374459775658494 2.8163121110734526 10.632301814392576 1 0 0 I I #
edge $-1 $456 -0.62798216845923527 $361 7.516570727524611 $360 $502 forward 7 unknown #
vertex $-1 $455 $503 #
straight-curve $-1 -18.499506873538635 2.8163121110734526 100.51787571494749 -0.64278759981090561 0 0.7660444514056185 I I #
point $-1 56.923443059911818 2.8163121110734526 10.632301814392576 #
point $-1 64.779808954130687 10.960865007057299 1.2694492900918988 #
straight-curve $-1 64.779808954130687 0 10.632301814392582 0 1 0 I I #
vertex $-1 $367 $504 #
point $-1 59.547986930887518 5.1433272242116956 3.5515852376981889 #
vertex $-1 $371 $505 #
point $-1 59.547986930887518 8.6338498939190558 3.5515852376981889 #
coedge $-1 $386 $385 $378 $466 forward $375 $-1 #
edge $-1 $467 31.642080744488027 $470 41.004933268788726 $465 $506 forward 7 unknown #
vertex $-1 $390 $507 #
straight-curve $-1 -82.014117689493162 10.960865007057299 10.632301814392584 -1 0 0 I I #
edge $-1 $470 -7.516570727524611 $387 0.62798216845923527 $386 $508 forward 7 unknown #
vertex $-1 $469 $509 #
straight-curve $-1 -64.779808954130701 10.960865007057299 1.2694492900918704 0.64278759981090561 0 0.7660444514056185 I I #
point $-1 -56.923443059911797 10.960865007057299 10.632301814392582 #
point $-1 -64.779808954130687 2.8163121110734526 1.2694492900918872 #
straight-curve $-1 -64.779808954130687 0 10.632301814392582 0 -1 0 I I #
vertex $-1 $393 $510 #
point $-1 -58.262411731265694 5.1433272242116956 5.083674140509415 #
vertex $-1 $397 $511 #
point $-1 -58.262411731265694 8.6338498939190558 5.083674140509415 #
straight-curve $-1 -64.779808954130687 28.235669650706058 0 0 0 -1 I I #
point $-1 -64.779808954130687 -28.235669650706058 -10.632301814392582 #
straight-curve $-1 -64.779808954130687 0 -10.632301814392582 0 1 0 I I #
point $-1 -64.779808954130687 28.235669650706058 -10.632301814392582 #
coedge $-1 $419 $418 $424 $486 reversed $200 $-1 #
vertex $-1 $431 $512 #
straight-curve $-1 0 -28.235669650706058 10.632301814392582 1 0 0 I I #
edge $-1 $484 -10.632301814392582 $487 10.632301814392582 $483 $513 forward 7 unknown #
vertex $-1 $429 $514 #
straight-curve $-1 0 -28.235669650706058 -10.632301814392582 -1 0 0 I I #
straight-curve $-1 -64.779808954130687 0 -10.632301814392582 0 1 0 I I #
straight-curve $-1 -64.779808954130687 0 10.632301814392582 0 -1 0 I I #
straight-curve $-1 0 28.235669650706058 -10.632301814392582 1 0 0 I I #
point $-1 -61.779808954130687 28.235669650706058 -10.632301814392582 #
coedge $-1 $439 $446 $441 $495 reversed $433 $-1 #
straight-curve $-1 -61.779808954130687 28.235669650706058 0 0 0 -1 I I #
edge $-1 $442 61.779808954130687 $448 64.779808954130687 $493 $515 forward 7 unknown #
point $-1 -61.779808954130687 28.235669650706058 10.632301814392582 #
straight-curve $-1 -64.779808954130687 28.235669650706058 0 0 0 -1 I I #
point $-1 -64.779808954130687 28.235669650706058 10.632301814392582 #
point $-1 -64.779808954130687 28.235669650706058 -10.632301814392582 #
straight-curve $-1 64.779808954130687 2.8163121110734526 91.898595771308422 0 0 -1 I I #
point $-1 64.779808954130687 2.8163121110734526 10.632301814392582 #
straight-curve $-1 64.779808954130687 3.4442942795326879 1.2694492900919059 0 1 0 I I #
point $-1 64.779808954130687 2.8163121110734526 1.2694492900918988 #
point $-1 58.13915487967099 5.1433272242116956 3.6748420892929019 #
point $-1 58.13915487967099 8.6338498939190558 3.6748420892929019 #
straight-curve $-1 -64.779808954130687 10.960865007057299 42.27438255888061 0 0 -1 I I #
point $-1 -64.779808954130687 10.960865007057299 10.632301814392582 #
straight-curve $-1 -64.779808954130687 3.4442942795326879 1.2694492900918735 0 -1 0 I I #
point $-1 -64.779808954130687 10.960865007057299 1.2694492900918872 #
point $-1 -58.139154879670983 5.1433272242116956 3.6748420892928912 #
point $-1 -58.139154879670983 8.6338498939190558 3.6748420892928912 #
point $-1 -64.779808954130687 -28.235669650706058 10.632301814392582 #
straight-curve $-1 -64.779808954130687 -28.235669650706058 0 0 0 -1 I I #
point $-1 -64.779808954130687 -28.235669650706058 -10.632301814392582 #
straight-curve $-1 0 28.235669650706058 10.632301814392582 -1 0 0 I I #
End-of-ACIS-data 