500 0 8 0           
7 Unknown 11 ACIS 5.0 NT 24 Fri Mar 26 03:27:27 1999 
-1 9.9999999999999995e-007 1e-010 
body $-1 $8 $-1 $9 #
body $-1 $10 $-1 $11 #
body $-1 $12 $-1 $13 #
body $-1 $14 $-1 $15 #
body $-1 $16 $-1 $17 #
body $-1 $18 $-1 $19 #
body $-1 $20 $-1 $21 #
body $-1 $22 $-1 $23 #
lump $-1 $-1 $24 $0 #
transform $-1 1 0 0 0 1 0 0 0 1 59.580675679799796 38.222402640764656 12.639277301354328 1 rotate no_reflect no_shear #
lump $-1 $-1 $25 $1 #
transform $-1 1 0 0 0 1 0 0 0 1 59.580675679799796 38.222402640764656 12.639277301354328 1 rotate no_reflect no_shear #
lump $-1 $-1 $26 $2 #
transform $-1 1 0 0 0 1 0 0 0 1 59.580675679799796 38.222402640764656 12.639277301354328 1 rotate no_reflect no_shear #
lump $-1 $-1 $27 $3 #
transform $-1 1 0 0 0 1 0 0 0 1 59.580675679799796 38.222402640764656 12.639277301354328 1 rotate no_reflect no_shear #
lump $-1 $-1 $28 $4 #
transform $-1 1 0 0 0 1 0 0 0 1 59.580675679799796 38.222402640764656 12.639277301354328 1 rotate no_reflect no_shear #
lump $-1 $-1 $29 $5 #
transform $-1 1 0 0 0 1 0 0 0 1 59.580675679799796 38.222402640764656 12.639277301354328 1 rotate no_reflect no_shear #
lump $-1 $-1 $30 $6 #
transform $-1 1 0 0 0 1 0 0 0 1 59.580675679799796 38.222402640764656 12.639277301354328 1 rotate no_reflect no_shear #
lump $-1 $-1 $31 $7 #
transform $-1 1 0 0 0 1 0 0 0 1 59.580675679799796 38.222402640764656 12.639277301354328 1 rotate no_reflect no_shear #
shell $-1 $-1 $-1 $32 $-1 $8 #
shell $-1 $-1 $-1 $33 $-1 $10 #
shell $-1 $-1 $-1 $34 $-1 $12 #
shell $-1 $-1 $-1 $35 $-1 $14 #
shell $-1 $-1 $-1 $36 $-1 $16 #
shell $-1 $-1 $-1 $37 $-1 $18 #
shell $-1 $-1 $-1 $38 $-1 $20 #
shell $-1 $-1 $-1 $39 $-1 $22 #
face $-1 $40 $41 $24 $-1 $42 forward single #
face $-1 $43 $44 $25 $-1 $45 reversed single #
face $-1 $46 $47 $26 $-1 $48 reversed single #
face $-1 $49 $50 $27 $-1 $51 forward single #
face $-1 $52 $53 $28 $-1 $54 forward single #
face $-1 $55 $56 $29 $-1 $57 reversed single #
face $-1 $58 $59 $30 $-1 $60 forward single #
face $-1 $61 $62 $31 $-1 $63 forward single #
face $-1 $64 $65 $24 $-1 $66 reversed single #
loop $-1 $-1 $67 $32 #
plane-surface $-1 0 0 12.639277301354328 0 0 1 1 0 0 forward_v I I I I #
face $-1 $68 $69 $25 $-1 $70 reversed single #
loop $-1 $-1 $71 $33 #
plane-surface $-1 0 -32.087587431932761 9.5829691324786008 0 0 1 1 0 0 forward_v I I I I #
face $-1 $72 $73 $26 $-1 $74 reversed single #
loop $-1 $-1 $75 $34 #
plane-surface $-1 83.034073153938905 -12.697632418994433 176.14495685569574 0 -1 0 -0.79863551827123203 0 -0.60181501223851219 forward_v I I I I #
face $-1 $76 $77 $27 $-1 $78 forward single #
loop $-1 $79 $80 $35 #
cone-surface $-1 57.552876591761361 -22.165589421927599 10.382195409972185 -0.79863551827123203 0 -0.60181501223851219 0.3009075061192561 0 -0.39931775913561601 1 I I 0 1 0.5 forward I I I I #
face $-1 $81 $82 $28 $-1 $83 forward single #
loop $-1 $84 $85 $36 #
cone-surface $-1 57.552876591761361 -16.4848152201677 10.382195409972185 -0.79863551827123203 0 -0.60181501223851219 0.3009075061192561 0 -0.39931775913561601 1 I I 0 1 0.5 forward I I I I #
face $-1 $86 $87 $29 $-1 $88 reversed single #
loop $-1 $-1 $89 $37 #
plane-surface $-1 -59.580675679799782 -19.325202321047648 9.2653791278864617 -0.79863551827123203 0 0.60181501223851219 0.60181501223851219 0 0.79863551827123203 forward_v I I I I #
face $-1 $90 $91 $30 $-1 $92 forward single #
loop $-1 $93 $94 $38 #
cone-surface $-1 -57.552876591761375 -22.165589421927599 10.382195409972185 0.79863551827123203 0 -0.60181501223851219 0.3009075061192561 0 0.39931775913561601 1 I I 0 1 0.5 forward I I I I #
face $-1 $95 $96 $31 $-1 $97 forward single #
loop $-1 $98 $99 $39 #
cone-surface $-1 -57.552876591761375 -16.4848152201677 10.382195409972185 0.79863551827123203 0 -0.60181501223851219 0.3009075061192561 0 0.39931775913561601 1 I I 0 1 0.5 forward I I I I #
face $-1 $100 $101 $24 $-1 $102 reversed single #
loop $-1 $-1 $103 $40 #
plane-surface $-1 0 0 -12.639277301354328 0 0 1 1 0 0 forward_v I I I I #
coedge $-1 $104 $105 $106 $107 forward $41 $-1 #
face $-1 $108 $109 $25 $-1 $110 reversed single #
loop $-1 $-1 $111 $43 #
plane-surface $-1 0 -25.952772223100865 11.111123216916463 0 -1 0 0 0 -1 forward_v I I I I #
coedge $-1 $112 $113 $114 $115 reversed $44 $-1 #
face $-1 $116 $117 $26 $-1 $118 forward single #
loop $-1 $-1 $119 $46 #
plane-surface $-1 -12.132414447035288 -19.325202321047648 104.43186672886065 0.79863551827123203 0 0.60181501223851219 0.60181501223851219 0 -0.79863551827123203 forward_v I I I I #
coedge $-1 $120 $121 $122 $123 reversed $47 $-1 #
face $-1 $-1 $124 $27 $-1 $125 forward single #
loop $-1 $126 $127 $49 #
cone-surface $-1 56.596625904637918 -22.165589421927599 9.6616088522643491 -0.79863551827123203 0 -0.60181501223851219 0.15045375305962805 0 -0.19965887956780801 1 I I -0.70710678118654746 0.70710678118654746 0.25 forward I I I I #
loop $-1 $-1 $128 $35 #
coedge $-1 $80 $80 $129 $130 reversed $50 $-1 #
face $-1 $-1 $131 $28 $-1 $132 forward single #
loop $-1 $133 $134 $52 #
cone-surface $-1 56.596625904637918 -16.4848152201677 9.6616088522643491 -0.79863551827123203 0 -0.60181501223851219 0.15045375305962805 0 -0.19965887956780801 1 I I -0.70710678118654746 0.70710678118654746 0.25 forward I I I I #
loop $-1 $-1 $135 $36 #
coedge $-1 $85 $85 $136 $137 reversed $53 $-1 #
face $-1 $138 $139 $29 $-1 $140 forward single #
loop $-1 $-1 $141 $55 #
plane-surface $-1 -154.74716328077398 -12.697632418994433 80.978469254721546 0 -1 0 0.79863551827123203 0 -0.60181501223851219 forward_v I I I I #
coedge $-1 $142 $143 $144 $145 reversed $56 $-1 #
face $-1 $-1 $146 $30 $-1 $147 forward single #
loop $-1 $148 $149 $58 #
cone-surface $-1 -56.596625904637932 -22.165589421927599 9.6616088522643491 0.79863551827123203 0 -0.60181501223851219 0.15045375305962805 0 0.19965887956780801 1 I I -0.70710678118654746 0.70710678118654746 0.25 forward I I I I #
loop $-1 $-1 $150 $38 #
coedge $-1 $94 $94 $151 $152 reversed $59 $-1 #
face $-1 $-1 $153 $31 $-1 $154 forward single #
loop $-1 $155 $156 $61 #
cone-surface $-1 -56.596625904637932 -16.4848152201677 9.6616088522643491 0.79863551827123203 0 -0.60181501223851219 0.15045375305962805 0 0.19965887956780801 1 I I -0.70710678118654746 0.70710678118654746 0.25 forward I I I I #
loop $-1 $-1 $157 $39 #
coedge $-1 $99 $99 $158 $159 reversed $62 $-1 #
face $-1 $160 $161 $24 $-1 $162 reversed single #
loop $-1 $-1 $163 $64 #
plane-surface $-1 0 -38.222402640764656 0 0 1 0 0 0 1 forward_v I I I I #
coedge $-1 $164 $165 $166 $167 forward $65 $-1 #
coedge $-1 $168 $67 $169 $170 forward $41 $-1 #
coedge $-1 $67 $168 $171 $172 forward $41 $-1 #
coedge $-1 $173 $174 $67 $107 reversed $175 $-1 #
edge $-1 $176 -38.222402640764656 $177 38.222402640764656 $106 $178 forward 7 unknown #
face $-1 $179 $180 $25 $-1 $181 reversed single #
loop $-1 $-1 $182 $68 #
plane-surface $-1 -59.580675679799796 0 0 1 0 0 0 0 -1 forward_v I I I I #
coedge $-1 $183 $184 $185 $186 reversed $69 $-1 #
coedge $-1 $187 $71 $188 $189 reversed $44 $-1 #
coedge $-1 $71 $187 $183 $190 forward $44 $-1 #
coedge $-1 $185 $191 $71 $115 forward $192 $-1 #
edge $-1 $193 -22.178608924798276 $194 -9.9089785071344849 $114 $195 forward 7 unknown #
face $-1 $196 $197 $26 $-1 $198 forward single #
loop $-1 $-1 $199 $72 #
plane-surface $-1 0 -25.952772223100865 11.111123216916463 0 -1 0 0 0 -1 forward_v I I I I #
coedge $-1 $200 $201 $202 $203 reversed $73 $-1 #
coedge $-1 $121 $75 $204 $205 reversed $47 $-1 #
coedge $-1 $75 $120 $200 $206 reversed $47 $-1 #
coedge $-1 $202 $207 $75 $123 forward $197 $-1 #
edge $-1 $208 -18.063639102830344 $209 -15.521224541864775 $122 $210 forward 7 unknown #
loop $-1 $-1 $129 $76 #
plane-surface $-1 -12.132414447035288 -19.325202321047648 104.43186672886065 0.79863551827123203 0 0.60181501223851219 0.60181501223851219 0 -0.79863551827123203 forward_v I I I I #
loop $-1 $-1 $211 $49 #
coedge $-1 $127 $127 $128 $212 reversed $77 $-1 #
coedge $-1 $128 $128 $127 $212 forward $79 $-1 #
coedge $-1 $129 $129 $80 $130 forward $124 $-1 #
edge $-1 $213 0 $213 6.2831853071796004 $129 $214 forward 7 unknown #
loop $-1 $-1 $136 $81 #
plane-surface $-1 -12.132414447035288 -19.325202321047648 104.43186672886065 0.79863551827123203 0 0.60181501223851219 0.60181501223851219 0 -0.79863551827123203 forward_v I I I I #
loop $-1 $-1 $215 $52 #
coedge $-1 $134 $134 $135 $216 reversed $82 $-1 #
coedge $-1 $135 $135 $134 $216 forward $84 $-1 #
coedge $-1 $136 $136 $85 $137 forward $131 $-1 #
edge $-1 $217 0 $217 6.2831853071796004 $136 $218 forward 7 unknown #
face $-1 $219 $220 $29 $-1 $221 reversed single #
loop $-1 $-1 $144 $86 #
plane-surface $-1 0 0 12.639277301354328 0 0 1 1 0 0 forward_v I I I I #
coedge $-1 $222 $223 $224 $225 reversed $87 $-1 #
coedge $-1 $226 $89 $227 $228 reversed $56 $-1 #
coedge $-1 $89 $226 $222 $229 forward $56 $-1 #
coedge $-1 $224 $230 $89 $145 forward $139 $-1 #
edge $-1 $231 -16.290171062577041 $232 -3.0350312584706085 $144 $233 forward 7 unknown #
loop $-1 $-1 $151 $90 #
plane-surface $-1 -59.580675679799782 -19.325202321047648 9.2653791278864617 -0.79863551827123203 0 0.60181501223851219 0.60181501223851219 0 0.79863551827123203 forward_v I I I I #
loop $-1 $-1 $234 $58 #
coedge $-1 $149 $149 $150 $235 reversed $91 $-1 #
coedge $-1 $150 $150 $149 $235 forward $93 $-1 #
coedge $-1 $151 $151 $94 $152 forward $146 $-1 #
edge $-1 $236 0 $236 6.2831853071796004 $151 $237 forward 7 unknown #
loop $-1 $-1 $158 $95 #
plane-surface $-1 -59.580675679799782 -19.325202321047648 9.2653791278864617 -0.79863551827123203 0 0.60181501223851219 0.60181501223851219 0 0.79863551827123203 forward_v I I I I #
loop $-1 $-1 $238 $61 #
coedge $-1 $156 $156 $157 $239 reversed $96 $-1 #
coedge $-1 $157 $157 $156 $239 forward $98 $-1 #
coedge $-1 $158 $158 $99 $159 forward $153 $-1 #
edge $-1 $240 0 $240 6.2831853071796004 $158 $241 forward 7 unknown #
face $-1 $242 $243 $24 $-1 $244 reversed single #
loop $-1 $-1 $245 $100 #
plane-surface $-1 -59.580675679799796 0 0 1 0 0 0 0 -1 forward_v I I I I #
coedge $-1 $246 $171 $247 $248 forward $101 $-1 #
coedge $-1 $249 $103 $246 $250 forward $65 $-1 #
coedge $-1 $103 $249 $251 $252 forward $65 $-1 #
coedge $-1 $174 $173 $103 $167 reversed $175 $-1 #
edge $-1 $253 -38.222402640764656 $254 38.222402640764656 $166 $255 forward 7 unknown #
coedge $-1 $105 $104 $256 $257 forward $41 $-1 #
coedge $-1 $258 $259 $104 $170 reversed $243 $-1 #
edge $-1 $177 -59.580675679799796 $260 59.580675679799796 $169 $261 forward 7 unknown #
coedge $-1 $163 $262 $105 $172 reversed $101 $-1 #
edge $-1 $263 -59.580675679799796 $176 59.580675679799796 $171 $264 forward 7 unknown #
coedge $-1 $166 $106 $262 $265 forward $175 $-1 #
coedge $-1 $106 $166 $258 $266 reversed $175 $-1 #
loop $-1 $-1 $173 $242 #
vertex $-1 $107 $267 #
vertex $-1 $107 $268 #
straight-curve $-1 59.580675679799796 0 12.639277301354328 0 1 0 I I #
face $-1 $269 $270 $25 $-1 $271 forward single #
loop $-1 $-1 $188 $108 #
plane-surface $-1 0 -38.222402640764656 0 0 1 0 0 0 1 forward_v I I I I #
coedge $-1 $272 $273 $274 $275 forward $109 $-1 #
coedge $-1 $274 $111 $113 $190 reversed $69 $-1 #
coedge $-1 $111 $274 $276 $277 reversed $69 $-1 #
coedge $-1 $278 $114 $111 $186 forward $192 $-1 #
edge $-1 $194 4.0274075240203695 $279 7.0837156928960932 $185 $280 forward 7 unknown #
coedge $-1 $113 $112 $272 $281 reversed $44 $-1 #
coedge $-1 $282 $283 $112 $189 forward $180 $-1 #
edge $-1 $284 -59.580675679799796 $193 59.580675679799796 $188 $285 forward 7 unknown #
edge $-1 $286 -59.580675679799796 $194 59.580675679799796 $183 $287 forward 7 unknown #
coedge $-1 $114 $278 $282 $288 forward $192 $-1 #
loop $-1 $-1 $185 $269 #
vertex $-1 $189 $289 #
vertex $-1 $115 $290 #
straight-curve $-1 59.580675679799796 -16.04379371596638 9.5829691324786008 0 1 0 I I #
face $-1 $-1 $291 $26 $-1 $292 reversed single #
loop $-1 $-1 $202 $116 #
plane-surface $-1 0 0 12.639277301354328 0 0 1 1 0 0 forward_v I I I I #
coedge $-1 $293 $294 $201 $295 reversed $117 $-1 #
coedge $-1 $296 $119 $121 $206 forward $73 $-1 #
coedge $-1 $119 $296 $199 $295 forward $73 $-1 #
coedge $-1 $297 $122 $119 $203 forward $197 $-1 #
edge $-1 $209 3.0350312584706085 $298 16.290171062577041 $202 $299 forward 7 unknown #
coedge $-1 $300 $301 $120 $205 forward $291 $-1 #
edge $-1 $302 -78.807099299961408 $208 -75.433201126493543 $204 $303 forward 7 unknown #
edge $-1 $209 114.93677319311485 $302 119.16135135959959 $121 $304 forward 7 unknown #
coedge $-1 $122 $297 $300 $305 forward $197 $-1 #
vertex $-1 $205 $306 #
vertex $-1 $123 $307 #
straight-curve $-1 41.517036576969453 -12.697632418994433 12.639277301354326 -1 0 0 I I #
coedge $-1 $211 $211 $-1 $308 reversed $126 $-1 #
edge $-1 $309 0 $309 6.2831853071796004 $127 $310 forward 7 unknown #
vertex $-1 $130 $311 #
ellipse-curve $-1 58.309468399317005 -22.165589421927599 10.952328214620401 0.79863551827123203 0 0.60181501223851219 0.3009075061192561 0 -0.39931775913561601 1 I I #
coedge $-1 $215 $215 $-1 $312 reversed $133 $-1 #
edge $-1 $313 0 $313 6.2831853071796004 $134 $314 forward 7 unknown #
vertex $-1 $137 $315 #
ellipse-curve $-1 58.309468399317005 -16.4848152201677 10.952328214620401 0.79863551827123203 0 0.60181501223851219 0.3009075061192561 0 -0.39931775913561601 1 I I #
face $-1 $-1 $316 $29 $-1 $317 forward single #
loop $-1 $-1 $318 $138 #
plane-surface $-1 -59.580675679799796 0 0 1 0 0 0 0 -1 forward_v I I I I #
coedge $-1 $223 $141 $143 $229 reversed $87 $-1 #
coedge $-1 $141 $222 $318 $319 reversed $87 $-1 #
coedge $-1 $320 $144 $141 $225 forward $139 $-1 #
edge $-1 $232 -20.335320521552767 $321 -17.792905960587191 $224 $322 forward 7 unknown #
coedge $-1 $143 $142 $323 $324 reversed $56 $-1 #
coedge $-1 $325 $326 $142 $228 forward $316 $-1 #
edge $-1 $327 -18.66531092527806 $231 -14.440732758793301 $227 $328 forward 7 unknown #
edge $-1 $329 -2.4157584020108747e-014 $232 4.2245781664847328 $222 $330 forward 7 unknown #
coedge $-1 $144 $320 $325 $331 forward $139 $-1 #
vertex $-1 $228 $332 #
vertex $-1 $145 $333 #
straight-curve $-1 -57.038261118834214 -9.662601160523824 12.63927730135433 0 1 0 I I #
coedge $-1 $234 $234 $-1 $334 reversed $148 $-1 #
edge $-1 $335 0 $335 6.2831853071796004 $149 $336 forward 7 unknown #
vertex $-1 $152 $337 #
ellipse-curve $-1 -58.309468399317005 -22.165589421927599 10.952328214620389 -0.79863551827123203 0 0.60181501223851219 0.3009075061192561 0 0.39931775913561601 1 I I #
coedge $-1 $238 $238 $-1 $338 reversed $155 $-1 #
edge $-1 $339 0 $339 6.2831853071796004 $156 $340 forward 7 unknown #
vertex $-1 $159 $341 #
ellipse-curve $-1 -58.309468399317005 -16.4848152201677 10.952328214620389 -0.79863551827123203 0 0.60181501223851219 0.3009075061192561 0 0.39931775913561601 1 I I #
face $-1 $-1 $175 $24 $-1 $342 reversed single #
loop $-1 $-1 $258 $160 #
plane-surface $-1 0 38.222402640764656 0 0 -1 0 0 0 -1 forward_v I I I I #
coedge $-1 $343 $256 $259 $344 forward $161 $-1 #
coedge $-1 $262 $163 $164 $250 reversed $101 $-1 #
coedge $-1 $256 $343 $163 $248 reversed $161 $-1 #
edge $-1 $263 -12.639277301354328 $345 12.639277301354328 $247 $346 forward 7 unknown #
coedge $-1 $165 $164 $343 $347 forward $65 $-1 #
edge $-1 $254 -59.580675679799796 $345 59.580675679799796 $246 $348 forward 7 unknown #
coedge $-1 $259 $258 $165 $252 reversed $243 $-1 #
edge $-1 $349 -59.580675679799796 $253 59.580675679799796 $251 $350 forward 7 unknown #
vertex $-1 $167 $351 #
vertex $-1 $265 $352 #
straight-curve $-1 59.580675679799796 0 -12.639277301354328 0 -1 0 I I #
coedge $-1 $245 $247 $168 $257 reversed $161 $-1 #
edge $-1 $260 -38.222402640764656 $263 38.222402640764656 $256 $353 forward 7 unknown #
coedge $-1 $251 $169 $174 $266 forward $243 $-1 #
coedge $-1 $169 $251 $245 $344 reversed $243 $-1 #
vertex $-1 $170 $354 #
straight-curve $-1 0 38.222402640764656 12.639277301354328 -1 0 0 I I #
coedge $-1 $171 $246 $173 $265 reversed $101 $-1 #
vertex $-1 $257 $355 #
straight-curve $-1 0 -38.222402640764656 12.639277301354328 1 0 0 I I #
edge $-1 $176 -12.639277301354328 $254 12.639277301354328 $173 $356 forward 7 unknown #
edge $-1 $177 -12.639277301354328 $253 12.639277301354328 $174 $357 forward 7 unknown #
point $-1 59.580675679799796 -38.222402640764656 12.639277301354328 #
point $-1 59.580675679799796 38.222402640764656 12.639277301354328 #
face $-1 $-1 $192 $25 $-1 $358 reversed single #
loop $-1 $-1 $276 $179 #
plane-surface $-1 0 0 12.639277301354328 0 0 1 1 0 0 forward_v I I I I #
coedge $-1 $359 $182 $187 $281 forward $109 $-1 #
coedge $-1 $182 $359 $360 $361 reversed $109 $-1 #
coedge $-1 $184 $183 $182 $275 reversed $69 $-1 #
edge $-1 $362 -7.0837156928960932 $286 -4.0274075240203695 $182 $363 forward 7 unknown #
coedge $-1 $360 $364 $184 $277 forward $270 $-1 #
edge $-1 $279 -59.580675679799796 $362 59.580675679799796 $276 $365 forward 7 unknown #
coedge $-1 $191 $185 $364 $366 reversed $192 $-1 #
vertex $-1 $186 $367 #
straight-curve $-1 59.580675679799796 -25.952772223100865 5.5555616084582313 0 0 1 I I #
edge $-1 $286 9.9089785071344849 $284 22.178608924798276 $272 $368 forward 7 unknown #
coedge $-1 $369 $188 $191 $288 reversed $180 $-1 #
coedge $-1 $188 $369 $359 $370 forward $180 $-1 #
vertex $-1 $189 $371 #
straight-curve $-1 0 -38.222402640764656 9.5829691324786008 1 0 0 I I #
vertex $-1 $281 $372 #
straight-curve $-1 0 -25.952772223100865 9.5829691324786008 1 0 0 I I #
edge $-1 $373 -12.639277301354328 $193 -9.5829691324786008 $191 $374 forward 7 unknown #
point $-1 59.580675679799796 -38.222402640764656 9.5829691324786008 #
point $-1 59.580675679799796 -25.952772223100865 9.5829691324786008 #
loop $-1 $-1 $204 $196 #
plane-surface $-1 59.580675679799796 0 0 -1 0 0 0 0 1 forward_v I I I I #
coedge $-1 $294 $199 $375 $376 reversed $117 $-1 #
coedge $-1 $199 $293 $297 $377 reversed $117 $-1 #
edge $-1 $378 -119.16135135959959 $298 -114.93677319311485 $199 $379 forward 7 unknown #
coedge $-1 $201 $200 $301 $380 reversed $73 $-1 #
coedge $-1 $207 $202 $294 $377 forward $197 $-1 #
vertex $-1 $377 $381 #
straight-curve $-1 57.038261118834214 -9.662601160523824 12.639277301354333 0 -1 0 I I #
coedge $-1 $375 $204 $207 $305 reversed $291 $-1 #
coedge $-1 $204 $375 $296 $380 forward $291 $-1 #
vertex $-1 $205 $382 #
straight-curve $-1 59.580675679799796 -12.697632418994433 88.072478427847869 0 0 1 I I #
straight-curve $-1 -12.132414447035288 -12.697632418994433 104.43186672886065 0.60181501223851219 0 -0.79863551827123203 I I #
edge $-1 $383 -25.952772223100865 $208 -12.697632418994433 $300 $384 forward 7 unknown #
point $-1 59.580675679799796 -12.697632418994433 12.639277301354328 #
point $-1 57.038261118834228 -12.697632418994433 12.639277301354326 #
edge $-1 $385 1 $385 0 $211 $-1 forward 7 unknown #
vertex $-1 $212 $386 #
ellipse-curve $-1 56.796284784205724 -22.165589421927599 9.8120626053239768 0.79863551827123203 0 0.60181501223851219 0.3009075061192561 0 -0.39931775913561601 1 I I #
point $-1 58.610375905436257 -22.165589421927599 10.553010455484779 #
edge $-1 $387 1 $387 0 $215 $-1 forward 7 unknown #
vertex $-1 $216 $388 #
ellipse-curve $-1 56.796284784205724 -16.4848152201677 9.8120626053239768 0.79863551827123203 0 0.60181501223851219 0.3009075061192561 0 -0.39931775913561601 1 I I #
point $-1 58.610375905436257 -16.4848152201677 10.553010455484779 #
loop $-1 $-1 $227 $219 #
plane-surface $-1 0 -25.952772223100865 11.111123216916463 0 -1 0 0 0 -1 forward_v I I I I #
coedge $-1 $323 $389 $223 $319 forward $220 $-1 #
edge $-1 $321 27.849957326006447 $329 31.223855499474332 $318 $390 forward 7 unknown #
coedge $-1 $230 $224 $389 $391 forward $139 $-1 #
vertex $-1 $391 $392 #
straight-curve $-1 -77.373581640386988 -12.697632418994433 12.639277301354326 -1 0 0 I I #
coedge $-1 $393 $318 $226 $324 forward $220 $-1 #
edge $-1 $329 3.0350312584706085 $327 16.290171062577041 $323 $394 forward 7 unknown #
coedge $-1 $326 $227 $230 $331 reversed $316 $-1 #
coedge $-1 $227 $325 $393 $395 reversed $316 $-1 #
vertex $-1 $395 $396 #
straight-curve $-1 -48.347611356867944 -25.952772223100865 24.172159392389574 0.60181501223851219 0 0.79863551827123203 I I #
vertex $-1 $324 $397 #
straight-curve $-1 -59.580675679799782 -12.697632418994433 9.2653791278864617 0.60181501223851219 0 0.79863551827123203 I I #
edge $-1 $398 -59.580675679799796 $231 -57.038261118834221 $230 $399 forward 7 unknown #
point $-1 -57.038261118834221 -25.952772223100865 12.639277301354328 #
point $-1 -57.038261118834221 -12.697632418994433 12.639277301354328 #
edge $-1 $400 1 $400 0 $234 $-1 forward 7 unknown #
vertex $-1 $235 $401 #
ellipse-curve $-1 -56.796284784205739 -22.165589421927599 9.8120626053239768 -0.79863551827123203 0 0.60181501223851219 0.3009075061192561 0 0.39931775913561601 1 I I #
point $-1 -58.00856089319776 -22.165589421927599 11.351645973756012 #
edge $-1 $402 1 $402 0 $238 $-1 forward 7 unknown #
vertex $-1 $239 $403 #
ellipse-curve $-1 -56.796284784205739 -16.4848152201677 9.8120626053239768 -0.79863551827123203 0 0.60181501223851219 0.3009075061192561 0 0.39931775913561601 1 I I #
point $-1 -58.00856089319776 -16.4848152201677 11.351645973756012 #
plane-surface $-1 59.580675679799796 0 0 -1 0 0 0 0 1 forward_v I I I I #
coedge $-1 $247 $245 $249 $347 reversed $161 $-1 #
edge $-1 $260 -12.639277301354328 $349 12.639277301354328 $259 $404 forward 7 unknown #
vertex $-1 $347 $405 #
straight-curve $-1 -59.580675679799796 -38.222402640764656 0 0 0 -1 I I #
edge $-1 $345 -38.222402640764656 $349 38.222402640764656 $343 $406 forward 7 unknown #
straight-curve $-1 0 -38.222402640764656 -12.639277301354328 -1 0 0 I I #
vertex $-1 $252 $407 #
straight-curve $-1 0 38.222402640764656 -12.639277301354328 1 0 0 I I #
point $-1 59.580675679799796 38.222402640764656 -12.639277301354328 #
point $-1 59.580675679799796 -38.222402640764656 -12.639277301354328 #
straight-curve $-1 -59.580675679799796 0 12.639277301354328 0 -1 0 I I #
point $-1 -59.580675679799796 38.222402640764656 12.639277301354328 #
point $-1 -59.580675679799796 -38.222402640764656 12.639277301354328 #
straight-curve $-1 59.580675679799796 -38.222402640764656 0 0 0 -1 I I #
straight-curve $-1 59.580675679799796 38.222402640764656 0 0 0 -1 I I #
plane-surface $-1 59.580675679799796 0 0 -1 0 0 0 0 1 forward_v I I I I #
coedge $-1 $273 $272 $283 $370 reversed $109 $-1 #
coedge $-1 $408 $276 $273 $361 forward $270 $-1 #
edge $-1 $362 25.952772223100865 $409 38.222402640764656 $273 $410 forward 7 unknown #
vertex $-1 $361 $411 #
straight-curve $-1 -59.580675679799796 -25.952772223100865 5.5555616084582313 0 0 -1 I I #
coedge $-1 $276 $408 $278 $366 forward $270 $-1 #
straight-curve $-1 0 -25.952772223100865 12.639277301354328 -1 0 0 I I #
edge $-1 $373 -38.222402640764656 $279 -25.952772223100865 $278 $412 forward 7 unknown #
point $-1 59.580675679799796 -25.952772223100865 12.639277301354324 #
straight-curve $-1 -59.580675679799796 -16.04379371596638 9.5829691324786008 0 -1 0 I I #
coedge $-1 $283 $282 $408 $413 reversed $180 $-1 #
edge $-1 $409 -12.639277301354328 $284 -9.5829691324786008 $359 $414 forward 7 unknown #
point $-1 -59.580675679799796 -38.222402640764656 9.5829691324786008 #
point $-1 -59.580675679799796 -25.952772223100865 9.5829691324786008 #
vertex $-1 $366 $415 #
straight-curve $-1 59.580675679799796 -38.222402640764656 0 0 0 -1 I I #
coedge $-1 $301 $300 $293 $376 forward $291 $-1 #
edge $-1 $383 75.433201126493543 $378 78.807099299961408 $375 $416 forward 7 unknown #
edge $-1 $298 57.038261118834228 $383 59.580675679799796 $297 $417 forward 7 unknown #
vertex $-1 $376 $418 #
straight-curve $-1 -12.132414447035288 -25.952772223100865 104.43186672886065 -0.60181501223851219 0 0.79863551827123203 I I #
edge $-1 $378 -16.290171062577041 $302 -3.0350312584706085 $301 $419 forward 7 unknown #
point $-1 57.038261118834228 -25.952772223100865 12.639277301354328 #
point $-1 59.580675679799796 -12.697632418994433 9.2653791278864617 #
vertex $-1 $305 $420 #
straight-curve $-1 59.580675679799796 0 12.639277301354328 0 1 0 I I #
vertex $-1 $308 $421 #
point $-1 57.097192290324983 -22.165589421927599 9.4127448461883603 #
vertex $-1 $312 $422 #
point $-1 57.097192290324983 -16.4848152201677 9.4127448461883603 #
coedge $-1 $318 $393 $320 $391 reversed $220 $-1 #
straight-curve $-1 -59.580675679799796 -12.697632418994433 40.489234627360773 0 0 -1 I I #
edge $-1 $321 12.697632418994433 $398 25.952772223100865 $389 $423 forward 7 unknown #
point $-1 -59.580675679799796 -12.697632418994433 12.639277301354328 #
coedge $-1 $389 $323 $326 $395 forward $220 $-1 #
straight-curve $-1 -59.580675679799796 -9.662601160523824 9.2653791278864439 0 -1 0 I I #
edge $-1 $327 -31.223855499474332 $398 -27.849957326006447 $393 $424 forward 7 unknown #
point $-1 -59.580675679799796 -25.952772223100865 9.2653791278864421 #
point $-1 -59.580675679799796 -12.697632418994433 9.2653791278864421 #
vertex $-1 $395 $425 #
straight-curve $-1 0 -25.952772223100865 12.639277301354328 1 0 0 I I #
vertex $-1 $334 $426 #
point $-1 -56.495377278086487 -22.165589421927599 10.211380364459593 #
vertex $-1 $338 $427 #
point $-1 -56.495377278086487 -16.4848152201677 10.211380364459593 #
straight-curve $-1 -59.580675679799796 38.222402640764656 0 0 0 -1 I I #
point $-1 -59.580675679799796 -38.222402640764656 -12.639277301354328 #
straight-curve $-1 -59.580675679799796 0 -12.639277301354328 0 1 0 I I #
point $-1 -59.580675679799796 38.222402640764656 -12.639277301354328 #
coedge $-1 $364 $360 $369 $413 forward $270 $-1 #
vertex $-1 $361 $428 #
straight-curve $-1 -59.580675679799796 0 12.639277301354328 0 -1 0 I I #
point $-1 -59.580675679799796 -25.952772223100865 12.639277301354324 #
straight-curve $-1 59.580675679799796 0 12.639277301354328 0 1 0 I I #
edge $-1 $409 -59.580675679799796 $373 59.580675679799796 $369 $429 forward 7 unknown #
straight-curve $-1 -59.580675679799796 -38.222402640764656 0 0 0 -1 I I #
point $-1 59.580675679799796 -38.222402640764656 12.639277301354328 #
straight-curve $-1 59.580675679799796 -25.952772223100865 88.072478427847869 0 0 -1 I I #
straight-curve $-1 0 -25.952772223100865 12.639277301354328 1 0 0 I I #
point $-1 59.580675679799796 -25.952772223100865 9.2653791278864617 #
straight-curve $-1 59.580675679799796 -9.662601160523824 9.2653791278864546 0 1 0 I I #
point $-1 59.580675679799796 -25.952772223100865 12.639277301354324 #
point $-1 56.396967025070111 -22.165589421927599 9.5111550992047214 #
point $-1 56.396967025070111 -16.4848152201677 9.5111550992047214 #
straight-curve $-1 -59.580675679799796 0 12.639277301354328 0 -1 0 I I #
straight-curve $-1 -59.580675679799796 -25.952772223100865 40.489234627360773 0 0 1 I I #
point $-1 -59.580675679799796 -25.952772223100865 12.639277301354324 #
point $-1 -56.396967025070126 -22.165589421927599 9.5111550992047214 #
point $-1 -56.396967025070126 -16.4848152201677 9.5111550992047214 #
point $-1 -59.580675679799796 -38.222402640764656 12.639277301354328 #
straight-curve $-1 0 -38.222402640764656 12.639277301354328 1 0 0 I I #
End-of-ACIS-data 