500 0 15 0           
7 Unknown 11 ACIS 5.0 NT 24 Fri Mar 26 02:05:21 1999 
-1 9.9999999999999995e-007 1e-010 
body $-1 $15 $-1 $16 #
body $-1 $17 $-1 $18 #
body $-1 $19 $-1 $20 #
body $-1 $21 $-1 $22 #
body $-1 $23 $-1 $24 #
body $-1 $25 $-1 $26 #
body $-1 $27 $-1 $28 #
body $-1 $29 $-1 $30 #
body $-1 $31 $-1 $32 #
body $-1 $33 $-1 $34 #
body $-1 $35 $-1 $36 #
body $-1 $37 $-1 $38 #
body $-1 $39 $-1 $40 #
body $-1 $41 $-1 $42 #
body $-1 $43 $-1 $44 #
lump $-1 $-1 $45 $0 #
transform $-1 1 0 0 0 1 0 0 0 1 57.629932554094054 23.232423812984102 8.3369283780203336 1 rotate no_reflect no_shear #
lump $-1 $-1 $46 $1 #
transform $-1 1 0 0 0 1 0 0 0 1 57.629932554094054 23.232423812984102 8.3369283780203336 1 rotate no_reflect no_shear #
lump $-1 $-1 $47 $2 #
transform $-1 1 0 0 0 1 0 0 0 1 57.629932554094054 23.232423812984102 8.3369283780203336 1 rotate no_reflect no_shear #
lump $-1 $-1 $48 $3 #
transform $-1 1 0 0 0 1 0 0 0 1 57.629932554094054 23.232423812984102 8.3369283780203336 1 rotate no_reflect no_shear #
lump $-1 $-1 $49 $4 #
transform $-1 1 0 0 0 1 0 0 0 1 57.629932554094054 23.232423812984102 8.3369283780203336 1 rotate no_reflect no_shear #
lump $-1 $-1 $50 $5 #
transform $-1 1 0 0 0 1 0 0 0 1 57.629932554094054 23.232423812984102 8.3369283780203336 1 rotate no_reflect no_shear #
lump $-1 $-1 $51 $6 #
transform $-1 1 0 0 0 1 0 0 0 1 57.629932554094054 23.232423812984102 8.3369283780203336 1 rotate no_reflect no_shear #
lump $-1 $-1 $52 $7 #
transform $-1 1 0 0 0 1 0 0 0 1 57.629932554094054 23.232423812984102 8.3369283780203336 1 rotate no_reflect no_shear #
lump $-1 $-1 $53 $8 #
transform $-1 1 0 0 0 1 0 0 0 1 57.629932554094054 23.232423812984102 8.3369283780203336 1 rotate no_reflect no_shear #
lump $-1 $-1 $54 $9 #
transform $-1 1 0 0 0 1 0 0 0 1 57.629932554094054 23.232423812984102 8.3369283780203336 1 rotate no_reflect no_shear #
lump $-1 $-1 $55 $10 #
transform $-1 1 0 0 0 1 0 0 0 1 57.629932554094054 23.232423812984102 8.3369283780203336 1 rotate no_reflect no_shear #
lump $-1 $-1 $56 $11 #
transform $-1 1 0 0 0 1 0 0 0 1 57.629932554094054 23.232423812984102 8.3369283780203336 1 rotate no_reflect no_shear #
lump $-1 $-1 $57 $12 #
transform $-1 1 0 0 0 1 0 0 0 1 57.629932554094054 23.232423812984102 8.3369283780203336 1 rotate no_reflect no_shear #
lump $-1 $-1 $58 $13 #
transform $-1 1 0 0 0 1 0 0 0 1 57.629932554094054 23.232423812984102 8.3369283780203336 1 rotate no_reflect no_shear #
lump $-1 $-1 $59 $14 #
transform $-1 1 0 0 0 1 0 0 0 1 57.629932554094054 23.232423812984102 8.3369283780203336 1 rotate no_reflect no_shear #
shell $-1 $-1 $-1 $60 $-1 $15 #
shell $-1 $-1 $-1 $61 $-1 $17 #
shell $-1 $-1 $-1 $62 $-1 $19 #
shell $-1 $-1 $-1 $63 $-1 $21 #
shell $-1 $-1 $-1 $64 $-1 $23 #
shell $-1 $-1 $-1 $65 $-1 $25 #
shell $-1 $-1 $-1 $66 $-1 $27 #
shell $-1 $-1 $-1 $67 $-1 $29 #
shell $-1 $-1 $-1 $68 $-1 $31 #
shell $-1 $-1 $-1 $69 $-1 $33 #
shell $-1 $-1 $-1 $70 $-1 $35 #
shell $-1 $-1 $-1 $71 $-1 $37 #
shell $-1 $-1 $-1 $72 $-1 $39 #
shell $-1 $-1 $-1 $73 $-1 $41 #
shell $-1 $-1 $-1 $74 $-1 $43 #
face $-1 $75 $76 $45 $-1 $77 reversed single #
face $-1 $78 $79 $46 $-1 $80 forward single #
face $-1 $81 $82 $47 $-1 $83 forward single #
face $-1 $84 $85 $48 $-1 $86 reversed single #
face $-1 $87 $88 $49 $-1 $89 forward single #
face $-1 $90 $91 $50 $-1 $92 forward single #
face $-1 $93 $94 $51 $-1 $95 reversed single #
face $-1 $96 $97 $52 $-1 $98 forward single #
face $-1 $99 $100 $53 $-1 $101 forward single #
face $-1 $102 $103 $54 $-1 $104 reversed single #
face $-1 $105 $106 $55 $-1 $107 forward single #
face $-1 $108 $109 $56 $-1 $110 reversed single #
face $-1 $111 $112 $57 $-1 $113 forward single #
face $-1 $114 $115 $58 $-1 $116 reversed single #
face $-1 $117 $118 $59 $-1 $119 forward single #
face $-1 $120 $121 $45 $-1 $122 forward single #
loop $-1 $-1 $123 $60 #
plane-surface $-1 0 -23.232423812984102 0 0 1 0 0 0 1 forward_v I I I I #
face $-1 $124 $125 $46 $-1 $126 forward single #
loop $-1 $-1 $127 $61 #
plane-surface $-1 0 -23.232423812984102 0 0 1 0 0 0 1 forward_v I I I I #
face $-1 $128 $129 $47 $-1 $130 forward single #
loop $-1 $-1 $131 $62 #
plane-surface $-1 0 23.232423812984102 0 0 -1 0 0 0 -1 forward_v I I I I #
face $-1 $132 $133 $48 $-1 $134 reversed single #
loop $-1 $-1 $135 $63 #
plane-surface $-1 -136.23697247347999 -8.9770201834083334 87.538408475005014 0 1 0 -0.68199836817093118 0 0.7313536940579346 forward_v I I I I #
face $-1 $136 $137 $49 $-1 $138 forward single #
loop $-1 $139 $140 $64 #
cone-surface $-1 -54.557477338357103 -7.1421279978200509 5.4241275177373982 0.68199836817093118 0 -0.7313536940579346 0.3656768470289673 0 0.34099918408546559 1 I I 0 1 0.5 forward I I I I #
face $-1 $141 $142 $50 $-1 $143 forward single #
loop $-1 $144 $145 $65 #
cone-surface $-1 -54.557477338357103 -4.3897897194376299 5.4241275177373982 0.68199836817093118 0 -0.7313536940579346 0.3656768470289673 0 0.34099918408546559 1 I I 0 1 0.5 forward I I I I #
face $-1 $146 $147 $51 $-1 $148 reversed single #
loop $-1 $-1 $149 $66 #
plane-surface $-1 -136.23697247347999 2.5548975338493509 87.538408475005014 0 1 0 -0.68199836817093118 0 0.7313536940579346 forward_v I I I I #
face $-1 $150 $151 $52 $-1 $152 forward single #
loop $-1 $153 $154 $67 #
cone-surface $-1 -54.557477338357103 4.3897897194376299 5.4241275177373982 0.68199836817093118 0 -0.7313536940579346 0.3656768470289673 0 0.34099918408546559 1 I I 0 1 0.5 forward I I I I #
face $-1 $155 $156 $53 $-1 $157 forward single #
loop $-1 $158 $159 $68 #
cone-surface $-1 -54.557477338357103 7.1421279978200545 5.4241275177373982 0.68199836817093118 0 -0.7313536940579346 0.3656768470289673 0 0.34099918408546559 1 I I 0 1 0.5 forward I I I I #
face $-1 $160 $161 $54 $-1 $162 reversed single #
loop $-1 $-1 $163 $69 #
plane-surface $-1 60.474712765673161 -6.8017299048856614 163.33116598635115 0 -1 0 -0.71933980857756763 0 -0.69465836192734942 forward_v I I I I #
face $-1 $164 $165 $55 $-1 $166 forward single #
loop $-1 $167 $168 $70 #
cone-surface $-1 53.415715616512507 -9.7197904446293943 3.9980988034113021 -0.71933980857756763 0 -0.69465836192734942 0.34732918096367471 0 -0.35966990428878381 1 I I 0 1 0.5 forward I I I I #
face $-1 $169 $170 $56 $-1 $171 reversed single #
loop $-1 $-1 $172 $71 #
plane-surface $-1 60.474712765673161 2.9180605397437329 163.33116598635115 0 -1 0 -0.71933980857756763 0 -0.69465836192734942 forward_v I I I I #
face $-1 $173 $174 $57 $-1 $175 forward single #
loop $-1 $176 $177 $72 #
cone-surface $-1 53.415715616512507 0 3.9980988034113021 -0.71933980857756763 0 -0.69465836192734942 0.34732918096367471 0 -0.35966990428878381 1 I I 0 1 0.5 forward I I I I #
face $-1 $178 $179 $58 $-1 $180 reversed single #
loop $-1 $-1 $181 $73 #
plane-surface $-1 60.474712765673161 12.637850984373129 163.33116598635115 0 -1 0 -0.71933980857756763 0 -0.69465836192734942 forward_v I I I I #
face $-1 $182 $183 $59 $-1 $184 forward single #
loop $-1 $185 $186 $74 #
cone-surface $-1 53.415715616512507 9.7197904446293961 3.9980988034113021 -0.71933980857756763 0 -0.69465836192734942 0.34732918096367471 0 -0.35966990428878381 1 I I 0 1 0.5 forward I I I I #
face $-1 $187 $188 $45 $-1 $189 reversed single #
loop $-1 $-1 $190 $75 #
plane-surface $-1 0 0 8.3369283780203336 0 0 1 1 0 0 forward_v I I I I #
coedge $-1 $191 $192 $193 $194 reversed $76 $-1 #
face $-1 $195 $196 $46 $-1 $197 reversed single #
loop $-1 $-1 $198 $78 #
plane-surface $-1 0 0 8.3369283780203336 0 0 1 1 0 0 forward_v I I I I #
coedge $-1 $199 $200 $201 $202 forward $79 $-1 #
face $-1 $203 $204 $47 $-1 $205 reversed single #
loop $-1 $-1 $206 $81 #
plane-surface $-1 0 0 8.3369283780203336 0 0 1 1 0 0 forward_v I I I I #
coedge $-1 $207 $208 $209 $210 forward $82 $-1 #
face $-1 $211 $212 $48 $-1 $213 reversed single #
loop $-1 $-1 $214 $84 #
plane-surface $-1 -57.629932554094054 -5.7659588586288422 3.2426803515123908 -0.68199836817093118 0 0.7313536940579346 0.7313536940579346 0 0.68199836817093118 forward_v I I I I #
coedge $-1 $215 $216 $217 $218 reversed $85 $-1 #
face $-1 $-1 $219 $49 $-1 $220 forward single #
loop $-1 $221 $222 $87 #
cone-surface $-1 -54.045978562228903 -7.1421279978200509 4.8756122471939474 0.68199836817093118 0 -0.7313536940579346 0.18283842351448365 0 0.17049959204273279 1 I I -0.70710678118654746 0.70710678118654746 0.25 forward I I I I #
loop $-1 $-1 $223 $64 #
coedge $-1 $140 $140 $224 $225 reversed $88 $-1 #
face $-1 $-1 $226 $50 $-1 $227 forward single #
loop $-1 $228 $229 $90 #
cone-surface $-1 -54.045978562228903 -4.3897897194376299 4.8756122471939474 0.68199836817093118 0 -0.7313536940579346 0.18283842351448365 0 0.17049959204273279 1 I I -0.70710678118654746 0.70710678118654746 0.25 forward I I I I #
loop $-1 $-1 $230 $65 #
coedge $-1 $145 $145 $231 $232 reversed $91 $-1 #
face $-1 $233 $234 $51 $-1 $235 reversed single #
loop $-1 $-1 $236 $93 #
plane-surface $-1 -57.629932554094054 5.7659588586288422 3.2426803515123908 -0.68199836817093118 0 0.7313536940579346 0.7313536940579346 0 0.68199836817093118 forward_v I I I I #
coedge $-1 $237 $238 $239 $240 reversed $94 $-1 #
face $-1 $-1 $241 $52 $-1 $242 forward single #
loop $-1 $243 $244 $96 #
cone-surface $-1 -54.045978562228903 4.3897897194376299 4.8756122471939474 0.68199836817093118 0 -0.7313536940579346 0.18283842351448365 0 0.17049959204273279 1 I I -0.70710678118654746 0.70710678118654746 0.25 forward I I I I #
loop $-1 $-1 $245 $67 #
coedge $-1 $154 $154 $246 $247 reversed $97 $-1 #
face $-1 $-1 $248 $53 $-1 $249 forward single #
loop $-1 $250 $251 $99 #
cone-surface $-1 -54.045978562228903 7.1421279978200545 4.8756122471939474 0.68199836817093118 0 -0.7313536940579346 0.18283842351448365 0 0.17049959204273279 1 I I -0.70710678118654746 0.70710678118654746 0.25 forward I I I I #
loop $-1 $-1 $252 $68 #
coedge $-1 $159 $159 $253 $254 reversed $100 $-1 #
face $-1 $255 $256 $54 $-1 $257 reversed single #
loop $-1 $-1 $258 $102 #
plane-surface $-1 -22.436296537927134 -9.7197904446293943 83.264936894329949 0.71933980857756763 0 0.69465836192734942 0.69465836192734942 0 -0.71933980857756763 forward_v I I I I #
coedge $-1 $259 $260 $261 $262 reversed $103 $-1 #
face $-1 $-1 $263 $55 $-1 $264 forward single #
loop $-1 $265 $266 $105 #
cone-surface $-1 52.876210760079331 -9.7197904446293943 3.4771050319657899 -0.71933980857756763 0 -0.69465836192734942 0.17366459048183736 0 -0.17983495214439191 1 I I -0.70710678118654746 0.70710678118654746 0.25 forward I I I I #
loop $-1 $-1 $267 $70 #
coedge $-1 $168 $168 $268 $269 reversed $106 $-1 #
face $-1 $270 $271 $56 $-1 $272 reversed single #
loop $-1 $-1 $273 $108 #
plane-surface $-1 -22.436296537927134 0 83.264936894329949 0.71933980857756763 0 0.69465836192734942 0.69465836192734942 0 -0.71933980857756763 forward_v I I I I #
coedge $-1 $274 $275 $276 $277 reversed $109 $-1 #
face $-1 $-1 $278 $57 $-1 $279 forward single #
loop $-1 $280 $281 $111 #
cone-surface $-1 52.876210760079331 0 3.4771050319657899 -0.71933980857756763 0 -0.69465836192734942 0.17366459048183736 0 -0.17983495214439191 1 I I -0.70710678118654746 0.70710678118654746 0.25 forward I I I I #
loop $-1 $-1 $282 $72 #
coedge $-1 $177 $177 $283 $284 reversed $112 $-1 #
face $-1 $285 $286 $58 $-1 $287 reversed single #
loop $-1 $-1 $288 $114 #
plane-surface $-1 -22.436296537927134 9.7197904446293961 83.264936894329949 0.71933980857756763 0 0.69465836192734942 0.69465836192734942 0 -0.71933980857756763 forward_v I I I I #
coedge $-1 $289 $290 $291 $292 reversed $115 $-1 #
face $-1 $-1 $293 $59 $-1 $294 forward single #
loop $-1 $295 $296 $117 #
cone-surface $-1 52.876210760079331 9.7197904446293961 3.4771050319657899 -0.71933980857756763 0 -0.69465836192734942 0.17366459048183736 0 -0.17983495214439191 1 I I -0.70710678118654746 0.70710678118654746 0.25 forward I I I I #
loop $-1 $-1 $297 $74 #
coedge $-1 $186 $186 $298 $299 reversed $118 $-1 #
face $-1 $300 $301 $45 $-1 $302 reversed single #
loop $-1 $-1 $303 $120 #
plane-surface $-1 0 0 -8.3369283780203336 0 0 1 1 0 0 forward_v I I I I #
coedge $-1 $304 $305 $306 $307 forward $121 $-1 #
coedge $-1 $308 $123 $309 $310 reversed $76 $-1 #
coedge $-1 $123 $308 $311 $312 forward $76 $-1 #
coedge $-1 $313 $303 $123 $194 forward $188 $-1 #
edge $-1 $314 -57.629932554094054 $315 57.629932554094054 $123 $316 forward 7 unknown #
face $-1 $317 $318 $46 $-1 $319 reversed single #
loop $-1 $-1 $320 $124 #
plane-surface $-1 -57.629932554094054 0 0 1 0 0 0 0 -1 forward_v I I I I #
coedge $-1 $321 $322 $200 $323 forward $125 $-1 #
coedge $-1 $324 $127 $325 $326 reversed $79 $-1 #
coedge $-1 $127 $324 $198 $323 reversed $79 $-1 #
coedge $-1 $327 $328 $127 $202 reversed $329 $-1 #
edge $-1 $330 -8.3369283780203336 $331 8.3369283780203336 $201 $332 forward 7 unknown #
face $-1 $333 $334 $47 $-1 $335 reversed single #
loop $-1 $-1 $336 $128 #
plane-surface $-1 -55.942879390968365 31.976909347687929 0 0 -1 0 0 0 -1 forward_v I I I I #
coedge $-1 $337 $338 $207 $339 forward $129 $-1 #
coedge $-1 $340 $131 $206 $339 reversed $82 $-1 #
coedge $-1 $131 $340 $341 $342 reversed $82 $-1 #
coedge $-1 $343 $344 $131 $210 reversed $334 $-1 #
edge $-1 $345 -8.3369283780203336 $346 8.3369283780203336 $209 $347 forward 7 unknown #
face $-1 $348 $349 $48 $-1 $350 reversed single #
loop $-1 $-1 $351 $132 #
plane-surface $-1 -136.23697247347999 -2.5548975338493509 87.538408475005014 0 -1 0 0.68199836817093118 0 -0.7313536940579346 forward_v I I I I #
coedge $-1 $352 $353 $354 $355 reversed $133 $-1 #
coedge $-1 $216 $135 $356 $357 reversed $85 $-1 #
coedge $-1 $135 $215 $352 $358 reversed $85 $-1 #
coedge $-1 $354 $359 $135 $218 forward $360 $-1 #
edge $-1 $361 10.488553682645943 $362 15.951465745948923 $217 $363 forward 7 unknown #
loop $-1 $-1 $224 $136 #
plane-surface $-1 -57.629932554094054 -5.7659588586288422 3.2426803515123908 -0.68199836817093118 0 0.7313536940579346 0.7313536940579346 0 0.68199836817093118 forward_v I I I I #
loop $-1 $-1 $364 $87 #
coedge $-1 $222 $222 $223 $365 reversed $137 $-1 #
coedge $-1 $223 $223 $222 $365 forward $139 $-1 #
coedge $-1 $224 $224 $140 $225 forward $219 $-1 #
edge $-1 $366 0 $366 6.2831853071796004 $224 $367 forward 7 unknown #
loop $-1 $-1 $231 $141 #
plane-surface $-1 -57.629932554094054 -5.7659588586288422 3.2426803515123908 -0.68199836817093118 0 0.7313536940579346 0.7313536940579346 0 0.68199836817093118 forward_v I I I I #
loop $-1 $-1 $368 $90 #
coedge $-1 $229 $229 $230 $369 reversed $142 $-1 #
coedge $-1 $230 $230 $229 $369 forward $144 $-1 #
coedge $-1 $231 $231 $145 $232 forward $226 $-1 #
edge $-1 $370 0 $370 6.2831853071796004 $231 $371 forward 7 unknown #
face $-1 $372 $373 $51 $-1 $374 forward single #
loop $-1 $-1 $375 $146 #
plane-surface $-1 -136.23697247347999 8.9770201834083334 87.538408475005014 0 -1 0 0.68199836817093118 0 -0.7313536940579346 forward_v I I I I #
coedge $-1 $376 $377 $378 $379 reversed $147 $-1 #
coedge $-1 $238 $149 $380 $381 reversed $94 $-1 #
coedge $-1 $149 $237 $376 $382 reversed $94 $-1 #
coedge $-1 $378 $383 $149 $240 forward $373 $-1 #
edge $-1 $384 10.488553682645943 $385 15.951465745948923 $239 $386 forward 7 unknown #
loop $-1 $-1 $246 $150 #
plane-surface $-1 -57.629932554094054 5.7659588586288422 3.2426803515123908 -0.68199836817093118 0 0.7313536940579346 0.7313536940579346 0 0.68199836817093118 forward_v I I I I #
loop $-1 $-1 $387 $96 #
coedge $-1 $244 $244 $245 $388 reversed $151 $-1 #
coedge $-1 $245 $245 $244 $388 forward $153 $-1 #
coedge $-1 $246 $246 $154 $247 forward $241 $-1 #
edge $-1 $389 0 $389 6.2831853071796004 $246 $390 forward 7 unknown #
loop $-1 $-1 $253 $155 #
plane-surface $-1 -57.629932554094054 5.7659588586288422 3.2426803515123908 -0.68199836817093118 0 0.7313536940579346 0.7313536940579346 0 0.68199836817093118 forward_v I I I I #
loop $-1 $-1 $391 $99 #
coedge $-1 $251 $251 $252 $392 reversed $156 $-1 #
coedge $-1 $252 $252 $251 $392 forward $158 $-1 #
coedge $-1 $253 $253 $159 $254 forward $248 $-1 #
edge $-1 $393 0 $393 6.2831853071796004 $253 $394 forward 7 unknown #
face $-1 $395 $396 $54 $-1 $397 forward single #
loop $-1 $-1 $398 $160 #
plane-surface $-1 60.474712765673161 -12.637850984373127 163.33116598635115 0 1 0 0.71933980857756763 0 0.69465836192734942 forward_v I I I I #
coedge $-1 $399 $400 $401 $402 reversed $161 $-1 #
coedge $-1 $260 $163 $403 $404 reversed $103 $-1 #
coedge $-1 $163 $259 $399 $405 reversed $103 $-1 #
coedge $-1 $401 $406 $163 $262 forward $396 $-1 #
edge $-1 $407 -27.392576171257474 $408 -19.683482104671981 $261 $409 forward 7 unknown #
loop $-1 $-1 $268 $164 #
plane-surface $-1 -22.436296537927134 -9.7197904446293943 83.264936894329949 0.71933980857756763 0 0.69465836192734942 0.69465836192734942 0 -0.71933980857756763 forward_v I I I I #
loop $-1 $-1 $410 $105 #
coedge $-1 $266 $266 $267 $411 reversed $165 $-1 #
coedge $-1 $267 $267 $266 $411 forward $167 $-1 #
coedge $-1 $268 $268 $168 $269 forward $263 $-1 #
edge $-1 $412 0 $412 6.2831853071796004 $268 $413 forward 7 unknown #
face $-1 $414 $415 $56 $-1 $416 reversed single #
loop $-1 $-1 $417 $169 #
plane-surface $-1 60.474712765673161 -2.9180605397437329 163.33116598635115 0 1 0 0.71933980857756763 0 0.69465836192734942 forward_v I I I I #
coedge $-1 $418 $419 $420 $421 reversed $170 $-1 #
coedge $-1 $275 $172 $422 $423 reversed $109 $-1 #
coedge $-1 $172 $274 $418 $424 reversed $109 $-1 #
coedge $-1 $420 $425 $172 $277 forward $426 $-1 #
edge $-1 $427 -27.392576171257474 $428 -19.683482104671981 $276 $429 forward 7 unknown #
loop $-1 $-1 $283 $173 #
plane-surface $-1 -22.436296537927134 0 83.264936894329949 0.71933980857756763 0 0.69465836192734942 0.69465836192734942 0 -0.71933980857756763 forward_v I I I I #
loop $-1 $-1 $430 $111 #
coedge $-1 $281 $281 $282 $431 reversed $174 $-1 #
coedge $-1 $282 $282 $281 $431 forward $176 $-1 #
coedge $-1 $283 $283 $177 $284 forward $278 $-1 #
edge $-1 $432 0 $432 6.2831853071796004 $283 $433 forward 7 unknown #
face $-1 $434 $435 $58 $-1 $436 reversed single #
loop $-1 $-1 $437 $178 #
plane-surface $-1 60.474712765673161 6.8017299048856632 163.33116598635115 0 1 0 0.71933980857756763 0 0.69465836192734942 forward_v I I I I #
coedge $-1 $438 $439 $440 $441 reversed $179 $-1 #
coedge $-1 $290 $181 $442 $443 reversed $115 $-1 #
coedge $-1 $181 $289 $438 $444 reversed $115 $-1 #
coedge $-1 $440 $445 $181 $292 forward $446 $-1 #
edge $-1 $447 -27.392576171257474 $448 -19.683482104671981 $291 $449 forward 7 unknown #
loop $-1 $-1 $298 $182 #
plane-surface $-1 -22.436296537927134 9.7197904446293961 83.264936894329949 0.71933980857756763 0 0.69465836192734942 0.69465836192734942 0 -0.71933980857756763 forward_v I I I I #
loop $-1 $-1 $450 $117 #
coedge $-1 $296 $296 $297 $451 reversed $183 $-1 #
coedge $-1 $297 $297 $296 $451 forward $185 $-1 #
coedge $-1 $298 $298 $186 $299 forward $293 $-1 #
edge $-1 $452 0 $452 6.2831853071796004 $298 $453 forward 7 unknown #
face $-1 $454 $455 $45 $-1 $456 reversed single #
loop $-1 $-1 $457 $187 #
plane-surface $-1 -57.629932554094054 0 0 1 0 0 0 0 -1 forward_v I I I I #
coedge $-1 $193 $458 $459 $460 forward $188 $-1 #
coedge $-1 $461 $190 $462 $463 forward $121 $-1 #
coedge $-1 $190 $461 $308 $464 forward $121 $-1 #
coedge $-1 $309 $465 $190 $307 reversed $466 $-1 #
edge $-1 $467 -23.232423812984102 $468 23.232423812984102 $306 $469 forward 7 unknown #
coedge $-1 $192 $191 $305 $464 reversed $76 $-1 #
coedge $-1 $459 $306 $191 $310 forward $466 $-1 #
edge $-1 $467 -8.3369283780203336 $314 8.3369283780203336 $309 $470 forward 7 unknown #
coedge $-1 $471 $472 $192 $312 reversed $301 $-1 #
edge $-1 $473 -8.3369283780203336 $315 8.3369283780203336 $311 $474 forward 7 unknown #
coedge $-1 $458 $193 $472 $475 forward $188 $-1 #
vertex $-1 $310 $476 #
vertex $-1 $475 $477 #
straight-curve $-1 0 -23.232423812984102 -8.3369283780203336 -1 0 0 I I #
face $-1 $478 $329 $46 $-1 $479 reversed single #
loop $-1 $-1 $480 $195 #
plane-surface $-1 -55.942879390968365 -31.976909347687929 0 0 1 0 0 0 1 forward_v I I I I #
coedge $-1 $481 $482 $324 $483 forward $196 $-1 #
coedge $-1 $484 $198 $482 $485 forward $125 $-1 #
coedge $-1 $198 $484 $327 $486 forward $125 $-1 #
edge $-1 $330 54.255826227842675 $487 57.629932554094054 $198 $488 forward 7 unknown #
coedge $-1 $200 $199 $320 $483 reversed $79 $-1 #
coedge $-1 $489 $490 $199 $326 forward $491 $-1 #
edge $-1 $492 -57.629932554094054 $331 -54.255826227842675 $325 $493 forward 7 unknown #
coedge $-1 $494 $201 $322 $486 reversed $329 $-1 #
coedge $-1 $201 $494 $489 $495 reversed $329 $-1 #
loop $-1 $-1 $494 $317 #
vertex $-1 $323 $496 #
vertex $-1 $495 $497 #
straight-curve $-1 -54.255826227842675 -23.232423812984102 0 0 0 -1 I I #
face $-1 $498 $499 $47 $-1 $500 reversed single #
loop $-1 $-1 $209 $203 #
plane-surface $-1 -54.255826227842675 27.604666580336016 0 -1 0 0 0 0 1 forward_v I I I I #
coedge $-1 $501 $502 $503 $504 forward $204 $-1 #
coedge $-1 $505 $206 $344 $506 forward $129 $-1 #
coedge $-1 $206 $505 $507 $508 forward $129 $-1 #
edge $-1 $509 -57.629932554094054 $346 -54.255826227842675 $206 $510 forward 7 unknown #
coedge $-1 $208 $207 $511 $512 reversed $82 $-1 #
coedge $-1 $513 $514 $208 $342 forward $499 $-1 #
edge $-1 $345 54.255826227842675 $515 57.629932554094054 $341 $516 forward 7 unknown #
coedge $-1 $503 $209 $514 $517 reversed $334 $-1 #
coedge $-1 $209 $503 $337 $506 reversed $334 $-1 #
vertex $-1 $342 $518 #
vertex $-1 $506 $519 #
straight-curve $-1 -54.255826227842675 23.232423812984102 0 0 0 1 I I #
face $-1 $-1 $360 $48 $-1 $520 forward single #
loop $-1 $-1 $521 $211 #
plane-surface $-1 -57.629932554094054 0 0 1 0 0 0 0 -1 forward_v I I I I #
coedge $-1 $522 $523 $524 $525 reversed $212 $-1 #
coedge $-1 $526 $214 $216 $358 forward $133 $-1 #
coedge $-1 $214 $526 $522 $527 forward $133 $-1 #
coedge $-1 $524 $217 $214 $355 forward $360 $-1 #
edge $-1 $362 -6.0940407540939123 $528 0.32808189546507016 $354 $529 forward 7 unknown #
coedge $-1 $530 $531 $215 $357 forward $349 $-1 #
edge $-1 $532 -40.526523885990116 $361 -35.432275859482175 $356 $533 forward 7 unknown #
edge $-1 $362 -7.4695897589466913 $532 0 $216 $534 forward 7 unknown #
coedge $-1 $217 $524 $530 $535 forward $360 $-1 #
loop $-1 $-1 $524 $348 #
vertex $-1 $357 $536 #
vertex $-1 $218 $537 #
straight-curve $-1 -68.118486236739997 -8.9770201834083334 8.3369283780203318 1 0 0 I I #
coedge $-1 $364 $364 $-1 $538 reversed $221 $-1 #
edge $-1 $539 0 $539 6.2831853071796004 $222 $540 forward 7 unknown #
vertex $-1 $225 $541 #
ellipse-curve $-1 -54.898476522442564 -7.1421279978200509 5.7898043647663613 -0.68199836817093118 0 0.7313536940579346 0.3656768470289673 0 0.34099918408546559 1 I I #
coedge $-1 $368 $368 $-1 $542 reversed $228 $-1 #
edge $-1 $543 0 $543 6.2831853071796004 $229 $544 forward 7 unknown #
vertex $-1 $232 $545 #
ellipse-curve $-1 -54.898476522442564 -4.3897897194376299 5.7898043647663613 -0.68199836817093118 0 0.7313536940579346 0.3656768470289673 0 0.34099918408546559 1 I I #
face $-1 $-1 $546 $51 $-1 $547 reversed single #
loop $-1 $-1 $239 $233 #
plane-surface $-1 0 0 8.3369283780203336 0 0 1 1 0 0 forward_v I I I I #
coedge $-1 $548 $549 $550 $551 reversed $234 $-1 #
coedge $-1 $552 $236 $238 $382 forward $147 $-1 #
coedge $-1 $236 $552 $548 $553 forward $147 $-1 #
coedge $-1 $550 $239 $236 $379 forward $373 $-1 #
edge $-1 $385 -0.32808189546507016 $554 6.0940407540939123 $378 $555 forward 7 unknown #
coedge $-1 $556 $557 $237 $381 forward $546 $-1 #
edge $-1 $558 -40.526523885990116 $384 -35.432275859482175 $380 $559 forward 7 unknown #
edge $-1 $385 -7.4695897589466913 $558 0 $238 $560 forward 7 unknown #
coedge $-1 $239 $550 $556 $561 forward $373 $-1 #
vertex $-1 $381 $562 #
vertex $-1 $240 $563 #
straight-curve $-1 -68.118486236739997 2.5548975338493509 8.3369283780203318 1 0 0 I I #
coedge $-1 $387 $387 $-1 $564 reversed $243 $-1 #
edge $-1 $565 0 $565 6.2831853071796004 $244 $566 forward 7 unknown #
vertex $-1 $247 $567 #
ellipse-curve $-1 -54.898476522442564 4.3897897194376299 5.7898043647663613 -0.68199836817093118 0 0.7313536940579346 0.3656768470289673 0 0.34099918408546559 1 I I #
coedge $-1 $391 $391 $-1 $568 reversed $250 $-1 #
edge $-1 $569 0 $569 6.2831853071796004 $251 $570 forward 7 unknown #
vertex $-1 $254 $571 #
ellipse-curve $-1 -54.898476522442564 7.1421279978200545 5.7898043647663613 -0.68199836817093118 0 0.7313536940579346 0.3656768470289673 0 0.34099918408546559 1 I I #
face $-1 $-1 $572 $54 $-1 $573 reversed single #
loop $-1 $-1 $261 $255 #
plane-surface $-1 0 0 8.3369283780203336 0 0 1 1 0 0 forward_v I I I I #
coedge $-1 $574 $575 $576 $577 reversed $256 $-1 #
coedge $-1 $578 $258 $260 $405 forward $161 $-1 #
coedge $-1 $258 $578 $574 $579 forward $161 $-1 #
coedge $-1 $576 $261 $258 $402 forward $396 $-1 #
edge $-1 $408 1.9418346825709643 $580 7.7779557620584301 $401 $581 forward 7 unknown #
coedge $-1 $582 $583 $259 $404 forward $572 $-1 #
edge $-1 $584 -81.311655402445908 $407 -73.328654615155244 $403 $585 forward 7 unknown #
edge $-1 $408 104.16218819374572 $584 115.25986510818808 $260 $586 forward 7 unknown #
coedge $-1 $261 $576 $582 $587 forward $396 $-1 #
vertex $-1 $262 $588 #
vertex $-1 $262 $589 #
straight-curve $-1 30.23735638283658 -6.8017299048856614 8.3369283780203318 -1 0 0 I I #
coedge $-1 $410 $410 $-1 $590 reversed $265 $-1 #
edge $-1 $591 0 $591 6.2831853071796004 $266 $592 forward 7 unknown #
vertex $-1 $269 $593 #
ellipse-curve $-1 53.775385520801315 -9.7197904446293943 4.3454279843749966 0.71933980857756763 0 0.69465836192734942 0.34732918096367471 0 -0.35966990428878381 1 I I #
face $-1 $-1 $426 $56 $-1 $594 forward single #
loop $-1 $-1 $595 $270 #
plane-surface $-1 57.629932554094054 0 0 -1 0 0 0 0 1 forward_v I I I I #
coedge $-1 $596 $597 $598 $599 reversed $271 $-1 #
coedge $-1 $600 $273 $275 $424 forward $170 $-1 #
coedge $-1 $273 $600 $596 $601 forward $170 $-1 #
coedge $-1 $598 $276 $273 $421 forward $426 $-1 #
edge $-1 $428 -2.9180605397437329 $602 2.9180605397437329 $420 $603 forward 7 unknown #
coedge $-1 $604 $605 $274 $423 forward $415 $-1 #
edge $-1 $606 -81.311655402445908 $427 -73.328654615155244 $422 $607 forward 7 unknown #
edge $-1 $428 104.16218819374572 $606 115.25986510818808 $275 $608 forward 7 unknown #
coedge $-1 $276 $598 $604 $609 forward $426 $-1 #
loop $-1 $-1 $598 $414 #
vertex $-1 $423 $610 #
vertex $-1 $277 $611 #
straight-curve $-1 30.23735638283658 2.9180605397437329 8.3369283780203318 -1 0 0 I I #
coedge $-1 $430 $430 $-1 $612 reversed $280 $-1 #
edge $-1 $613 0 $613 6.2831853071796004 $281 $614 forward 7 unknown #
vertex $-1 $284 $615 #
ellipse-curve $-1 53.775385520801315 0 4.3454279843749966 0.71933980857756763 0 0.69465836192734942 0.34732918096367471 0 -0.35966990428878381 1 I I #
face $-1 $-1 $446 $58 $-1 $616 forward single #
loop $-1 $-1 $617 $285 #
plane-surface $-1 57.629932554094054 0 0 -1 0 0 0 0 1 forward_v I I I I #
coedge $-1 $618 $619 $620 $621 reversed $286 $-1 #
coedge $-1 $622 $288 $290 $444 forward $179 $-1 #
coedge $-1 $288 $622 $618 $623 forward $179 $-1 #
coedge $-1 $620 $291 $288 $441 forward $446 $-1 #
edge $-1 $448 -7.777955762058431 $624 -1.9418346825709651 $440 $625 forward 7 unknown #
coedge $-1 $626 $627 $289 $443 forward $435 $-1 #
edge $-1 $628 -81.311655402445908 $447 -73.328654615155244 $442 $629 forward 7 unknown #
edge $-1 $448 104.16218819374572 $628 115.25986510818808 $290 $630 forward 7 unknown #
coedge $-1 $291 $620 $626 $631 forward $446 $-1 #
loop $-1 $-1 $620 $434 #
vertex $-1 $443 $632 #
vertex $-1 $292 $633 #
straight-curve $-1 30.23735638283658 12.637850984373129 8.3369283780203318 -1 0 0 I I #
coedge $-1 $450 $450 $-1 $634 reversed $295 $-1 #
edge $-1 $635 0 $635 6.2831853071796004 $296 $636 forward 7 unknown #
vertex $-1 $299 $637 #
ellipse-curve $-1 53.775385520801315 9.7197904446293961 4.3454279843749966 0.71933980857756763 0 0.69465836192734942 0.34732918096367471 0 -0.35966990428878381 1 I I #
face $-1 $-1 $466 $45 $-1 $638 reversed single #
loop $-1 $-1 $462 $300 #
plane-surface $-1 0 23.232423812984102 0 0 -1 0 0 0 -1 forward_v I I I I #
coedge $-1 $472 $471 $639 $640 forward $301 $-1 #
coedge $-1 $303 $313 $641 $642 forward $188 $-1 #
coedge $-1 $465 $309 $303 $460 reversed $466 $-1 #
edge $-1 $643 -23.232423812984102 $314 23.232423812984102 $459 $644 forward 7 unknown #
coedge $-1 $305 $304 $471 $645 forward $121 $-1 #
coedge $-1 $646 $639 $304 $463 reversed $455 $-1 #
edge $-1 $468 -57.629932554094054 $647 57.629932554094054 $462 $648 forward 7 unknown #
edge $-1 $473 -57.629932554094054 $467 57.629932554094054 $308 $649 forward 7 unknown #
coedge $-1 $306 $459 $646 $650 reversed $466 $-1 #
loop $-1 $-1 $309 $454 #
vertex $-1 $307 $651 #
vertex $-1 $307 $652 #
straight-curve $-1 57.629932554094054 0 8.3369283780203336 0 1 0 I I #
straight-curve $-1 57.629932554094054 -23.232423812984102 0 0 0 -1 I I #
coedge $-1 $457 $311 $461 $645 reversed $301 $-1 #
coedge $-1 $311 $457 $313 $475 reversed $301 $-1 #
vertex $-1 $645 $653 #
straight-curve $-1 -57.629932554094054 -23.232423812984102 0 0 0 -1 I I #
edge $-1 $315 -23.232423812984102 $654 23.232423812984102 $472 $655 forward 7 unknown #
point $-1 57.629932554094054 -23.232423812984102 -8.3369283780203336 #
point $-1 -57.629932554094054 -23.232423812984102 -8.3369283780203336 #
face $-1 $-1 $491 $46 $-1 $656 reversed single #
plane-surface $-1 -54.255826227842675 -27.604666580336016 0 -1 0 0 0 0 1 forward_v I I I I #
coedge $-1 $657 $658 $659 $660 forward $318 $-1 #
coedge $-1 $659 $320 $490 $661 reversed $196 $-1 #
coedge $-1 $320 $659 $321 $485 reversed $196 $-1 #
edge $-1 $487 -8.3369283780203336 $492 8.3369283780203336 $320 $662 forward 7 unknown #
coedge $-1 $322 $321 $658 $663 forward $125 $-1 #
edge $-1 $487 23.232423812984102 $664 31.976909347687929 $482 $665 forward 7 unknown #
edge $-1 $666 -4.3722427673519135 $330 4.3722427673519135 $327 $667 forward 7 unknown #
vertex $-1 $485 $668 #
straight-curve $-1 0 -23.232423812984102 8.3369283780203336 -1 0 0 I I #
coedge $-1 $669 $325 $328 $495 forward $491 $-1 #
coedge $-1 $325 $669 $481 $661 forward $491 $-1 #
loop $-1 $-1 $325 $478 #
vertex $-1 $483 $670 #
straight-curve $-1 0 -23.232423812984102 -8.3369283780203336 1 0 0 I I #
coedge $-1 $328 $327 $671 $672 forward $329 $-1 #
edge $-1 $331 -4.3722427673519135 $673 4.3722427673519135 $328 $674 forward 7 unknown #
point $-1 -54.255826227842675 -23.232423812984102 8.3369283780203336 #
point $-1 -54.255826227842675 -23.232423812984102 -8.3369283780203336 #
face $-1 $-1 $675 $47 $-1 $676 reversed single #
loop $-1 $-1 $341 $333 #
plane-surface $-1 0 0 -8.3369283780203336 0 0 1 1 0 0 forward_v I I I I #
coedge $-1 $677 $336 $678 $679 reversed $204 $-1 #
coedge $-1 $336 $677 $505 $680 reversed $204 $-1 #
coedge $-1 $344 $343 $336 $504 reversed $334 $-1 #
edge $-1 $681 -8.3369283780203336 $682 8.3369283780203336 $503 $683 forward 7 unknown #
coedge $-1 $338 $337 $502 $680 forward $129 $-1 #
edge $-1 $346 -4.3722427673519135 $681 4.3722427673519135 $344 $684 forward 7 unknown #
coedge $-1 $685 $511 $338 $508 reversed $675 $-1 #
edge $-1 $686 -31.976909347687929 $509 -23.232423812984102 $507 $687 forward 7 unknown #
vertex $-1 $512 $688 #
straight-curve $-1 0 23.232423812984102 8.3369283780203336 1 0 0 I I #
coedge $-1 $507 $689 $340 $512 forward $675 $-1 #
edge $-1 $515 -8.3369283780203336 $509 8.3369283780203336 $511 $690 forward 7 unknown #
coedge $-1 $678 $341 $689 $691 forward $499 $-1 #
coedge $-1 $341 $678 $343 $517 forward $499 $-1 #
vertex $-1 $691 $692 #
straight-curve $-1 0 23.232423812984102 -8.3369283780203336 -1 0 0 I I #
edge $-1 $682 -4.3722427673519135 $345 4.3722427673519135 $343 $693 forward 7 unknown #
point $-1 -54.255826227842675 23.232423812984102 -8.3369283780203336 #
point $-1 -54.255826227842675 23.232423812984102 8.3369283780203336 #
plane-surface $-1 0 0 8.3369283780203336 0 0 1 1 0 0 forward_v I I I I #
coedge $-1 $531 $530 $523 $694 forward $349 $-1 #
coedge $-1 $523 $351 $353 $527 reversed $212 $-1 #
coedge $-1 $351 $522 $521 $694 reversed $212 $-1 #
coedge $-1 $359 $354 $351 $525 forward $360 $-1 #
edge $-1 $528 -15.951465745948923 $695 -10.488553682645943 $524 $696 forward 7 unknown #
coedge $-1 $353 $352 $531 $697 reversed $133 $-1 #
edge $-1 $698 0 $528 7.4695897589466913 $522 $699 forward 7 unknown #
vertex $-1 $355 $700 #
straight-curve $-1 -52.167020490791074 -2.8829794293144211 8.3369283780203336 0 1 0 I I #
coedge $-1 $521 $356 $359 $535 reversed $349 $-1 #
coedge $-1 $356 $521 $526 $697 forward $349 $-1 #
vertex $-1 $357 $701 #
straight-curve $-1 -57.629932554094054 -8.9770201834083334 43.769204237502507 0 0 1 I I #
straight-curve $-1 -57.629932554094054 -8.9770201834083334 3.2426803515123908 -0.7313536940579346 0 -0.68199836817093118 I I #
edge $-1 $695 2.5548975338493509 $361 8.9770201834083334 $530 $702 forward 7 unknown #
point $-1 -57.629932554094054 -8.9770201834083334 8.3369283780203336 #
point $-1 -52.167020490791074 -8.9770201834083334 8.3369283780203336 #
edge $-1 $703 1 $703 0 $364 $-1 forward 7 unknown #
vertex $-1 $365 $704 #
ellipse-curve $-1 -54.216478154271634 -7.1421279978200509 5.0584506707084307 -0.68199836817093118 0 0.7313536940579346 0.3656768470289673 0 0.34099918408546559 1 I I #
point $-1 -54.5327996754136 -7.1421279978200509 6.1308035488518318 #
edge $-1 $705 1 $705 0 $368 $-1 forward 7 unknown #
vertex $-1 $369 $706 #
ellipse-curve $-1 -54.216478154271634 -4.3897897194376299 5.0584506707084307 -0.68199836817093118 0 0.7313536940579346 0.3656768470289673 0 0.34099918408546559 1 I I #
point $-1 -54.5327996754136 -4.3897897194376299 6.1308035488518318 #
loop $-1 $-1 $380 $372 #
plane-surface $-1 -57.629932554094054 0 0 1 0 0 0 0 -1 forward_v I I I I #
coedge $-1 $549 $375 $377 $553 reversed $234 $-1 #
coedge $-1 $375 $548 $707 $708 reversed $234 $-1 #
coedge $-1 $383 $378 $375 $551 forward $373 $-1 #
edge $-1 $554 -15.951465745948923 $709 -10.488553682645943 $550 $710 forward 7 unknown #
coedge $-1 $377 $376 $557 $711 reversed $147 $-1 #
edge $-1 $712 0 $554 7.4695897589466913 $548 $713 forward 7 unknown #
vertex $-1 $379 $714 #
straight-curve $-1 -52.167020490791074 2.8829794293144211 8.3369283780203336 0 1 0 I I #
coedge $-1 $707 $380 $383 $561 reversed $546 $-1 #
coedge $-1 $380 $707 $552 $711 forward $546 $-1 #
vertex $-1 $381 $715 #
straight-curve $-1 -57.629932554094054 2.5548975338493509 43.769204237502507 0 0 1 I I #
straight-curve $-1 -57.629932554094054 2.5548975338493509 3.2426803515123908 -0.7313536940579346 0 -0.68199836817093118 I I #
edge $-1 $709 -8.9770201834083334 $384 -2.5548975338493509 $556 $716 forward 7 unknown #
point $-1 -57.629932554094054 2.5548975338493509 8.3369283780203336 #
point $-1 -52.167020490791074 2.5548975338493509 8.3369283780203336 #
edge $-1 $717 1 $717 0 $387 $-1 forward 7 unknown #
vertex $-1 $388 $718 #
ellipse-curve $-1 -54.216478154271634 4.3897897194376299 5.0584506707084307 -0.68199836817093118 0 0.7313536940579346 0.3656768470289673 0 0.34099918408546559 1 I I #
point $-1 -54.5327996754136 4.3897897194376299 6.1308035488518318 #
edge $-1 $719 1 $719 0 $391 $-1 forward 7 unknown #
vertex $-1 $392 $720 #
ellipse-curve $-1 -54.216478154271634 7.1421279978200545 5.0584506707084307 -0.68199836817093118 0 0.7313536940579346 0.3656768470289673 0 0.34099918408546559 1 I I #
point $-1 -54.5327996754136 7.1421279978200545 6.1308035488518318 #
loop $-1 $-1 $403 $395 #
plane-surface $-1 57.629932554094054 0 0 -1 0 0 0 0 1 forward_v I I I I #
coedge $-1 $575 $398 $400 $579 reversed $256 $-1 #
coedge $-1 $398 $574 $721 $722 reversed $256 $-1 #
coedge $-1 $406 $401 $398 $577 forward $396 $-1 #
edge $-1 $580 19.683482104671981 $723 27.392576171257474 $576 $724 forward 7 unknown #
coedge $-1 $400 $399 $583 $725 reversed $161 $-1 #
edge $-1 $726 -115.25986510818808 $580 -104.16218819374572 $574 $727 forward 7 unknown #
vertex $-1 $402 $728 #
straight-curve $-1 49.920838487508554 -4.8598952223146972 8.3369283780203389 0 -1 0 I I #
coedge $-1 $721 $403 $406 $587 reversed $572 $-1 #
coedge $-1 $403 $721 $578 $725 forward $572 $-1 #
vertex $-1 $404 $729 #
straight-curve $-1 57.629932554094054 -6.8017299048856614 81.665582993175576 0 0 1 I I #
straight-curve $-1 -22.436296537927134 -6.8017299048856614 83.264936894329949 0.69465836192734942 0 -0.71933980857756763 I I #
edge $-1 $723 -12.637850984373127 $407 -6.8017299048856614 $582 $730 forward 7 unknown #
point $-1 57.629932554094054 -6.8017299048856614 8.3369283780203336 #
point $-1 49.920838487508561 -6.8017299048856614 8.3369283780203318 #
edge $-1 $731 1 $731 0 $410 $-1 forward 7 unknown #
vertex $-1 $411 $732 #
ellipse-curve $-1 53.056045712223721 -9.7197904446293943 3.6507696224476271 0.71933980857756763 0 0.69465836192734942 0.34732918096367471 0 -0.35966990428878381 1 I I #
point $-1 54.122714701764963 -9.7197904446293943 3.9857580800861929 #
plane-surface $-1 0 0 8.3369283780203336 0 0 1 1 0 0 forward_v I I I I #
coedge $-1 $605 $604 $597 $733 forward $415 $-1 #
coedge $-1 $597 $417 $419 $601 reversed $271 $-1 #
coedge $-1 $417 $596 $595 $733 reversed $271 $-1 #
coedge $-1 $425 $420 $417 $599 forward $426 $-1 #
edge $-1 $602 19.683482104671981 $734 27.392576171257474 $598 $735 forward 7 unknown #
coedge $-1 $419 $418 $605 $736 reversed $170 $-1 #
edge $-1 $737 -115.25986510818808 $602 -104.16218819374572 $596 $738 forward 7 unknown #
vertex $-1 $421 $739 #
straight-curve $-1 49.920838487508554 0 8.3369283780203389 0 -1 0 I I #
coedge $-1 $595 $422 $425 $609 reversed $415 $-1 #
coedge $-1 $422 $595 $600 $736 forward $415 $-1 #
vertex $-1 $423 $740 #
straight-curve $-1 57.629932554094054 2.9180605397437329 81.665582993175576 0 0 1 I I #
straight-curve $-1 -22.436296537927134 2.9180605397437329 83.264936894329949 0.69465836192734942 0 -0.71933980857756763 I I #
edge $-1 $734 -2.9180605397437329 $427 2.9180605397437329 $604 $741 forward 7 unknown #
point $-1 57.629932554094054 2.9180605397437329 8.3369283780203336 #
point $-1 49.920838487508561 2.9180605397437329 8.3369283780203318 #
edge $-1 $742 1 $742 0 $430 $-1 forward 7 unknown #
vertex $-1 $431 $743 #
ellipse-curve $-1 53.056045712223721 0 3.6507696224476271 0.71933980857756763 0 0.69465836192734942 0.34732918096367471 0 -0.35966990428878381 1 I I #
point $-1 54.122714701764963 0 3.9857580800861929 #
plane-surface $-1 0 0 8.3369283780203336 0 0 1 1 0 0 forward_v I I I I #
coedge $-1 $627 $626 $619 $744 forward $435 $-1 #
coedge $-1 $619 $437 $439 $623 reversed $286 $-1 #
coedge $-1 $437 $618 $617 $744 reversed $286 $-1 #
coedge $-1 $445 $440 $437 $621 forward $446 $-1 #
edge $-1 $624 19.683482104671981 $745 27.392576171257474 $620 $746 forward 7 unknown #
coedge $-1 $439 $438 $627 $747 reversed $179 $-1 #
edge $-1 $748 -115.25986510818808 $624 -104.16218819374572 $618 $749 forward 7 unknown #
vertex $-1 $441 $750 #
straight-curve $-1 49.920838487508554 4.8598952223146981 8.3369283780203389 0 -1 0 I I #
coedge $-1 $617 $442 $445 $631 reversed $435 $-1 #
coedge $-1 $442 $617 $622 $747 forward $435 $-1 #
vertex $-1 $443 $751 #
straight-curve $-1 57.629932554094054 12.637850984373129 81.665582993175576 0 0 1 I I #
straight-curve $-1 -22.436296537927134 12.637850984373129 83.264936894329949 0.69465836192734942 0 -0.71933980857756763 I I #
edge $-1 $745 6.8017299048856632 $447 12.637850984373129 $626 $752 forward 7 unknown #
point $-1 57.629932554094054 12.637850984373129 8.3369283780203336 #
point $-1 49.920838487508561 12.637850984373129 8.3369283780203318 #
edge $-1 $753 1 $753 0 $450 $-1 forward 7 unknown #
vertex $-1 $451 $754 #
ellipse-curve $-1 53.056045712223721 9.7197904446293961 3.6507696224476271 0.71933980857756763 0 0.69465836192734942 0.34732918096367471 0 -0.35966990428878381 1 I I #
point $-1 54.122714701764963 9.7197904446293961 3.9857580800861929 #
plane-surface $-1 57.629932554094054 0 0 -1 0 0 0 0 1 forward_v I I I I #
coedge $-1 $462 $641 $457 $640 reversed $455 $-1 #
edge $-1 $647 -8.3369283780203336 $654 8.3369283780203336 $639 $755 forward 7 unknown #
coedge $-1 $639 $646 $458 $642 reversed $455 $-1 #
edge $-1 $654 -57.629932554094054 $643 57.629932554094054 $641 $756 forward 7 unknown #
vertex $-1 $460 $757 #
straight-curve $-1 57.629932554094054 0 -8.3369283780203336 0 -1 0 I I #
edge $-1 $647 -23.232423812984102 $473 23.232423812984102 $471 $758 forward 7 unknown #
coedge $-1 $641 $462 $465 $650 forward $455 $-1 #
vertex $-1 $463 $759 #
straight-curve $-1 0 23.232423812984102 8.3369283780203336 -1 0 0 I I #
straight-curve $-1 0 -23.232423812984102 8.3369283780203336 1 0 0 I I #
edge $-1 $468 -8.3369283780203336 $643 8.3369283780203336 $465 $760 forward 7 unknown #
point $-1 57.629932554094054 -23.232423812984102 8.3369283780203336 #
point $-1 57.629932554094054 23.232423812984102 8.3369283780203336 #
point $-1 -57.629932554094054 -23.232423812984102 8.3369283780203336 #
vertex $-1 $642 $761 #
straight-curve $-1 -57.629932554094054 0 -8.3369283780203336 0 1 0 I I #
plane-surface $-1 0 0 -8.3369283780203336 0 0 1 1 0 0 forward_v I I I I #
coedge $-1 $671 $480 $669 $762 reversed $318 $-1 #
coedge $-1 $480 $671 $484 $663 reversed $318 $-1 #
coedge $-1 $482 $481 $480 $660 reversed $196 $-1 #
edge $-1 $664 -8.3369283780203336 $763 8.3369283780203336 $659 $764 forward 7 unknown #
edge $-1 $763 -31.976909347687929 $492 -23.232423812984102 $481 $765 forward 7 unknown #
straight-curve $-1 -57.629932554094054 -23.232423812984102 0 0 0 -1 I I #
edge $-1 $664 -1.6870531631256895 $666 1.6870531631256895 $658 $766 forward 7 unknown #
vertex $-1 $485 $767 #
straight-curve $-1 -57.629932554094054 0 8.3369283780203336 0 -1 0 I I #
vertex $-1 $486 $768 #
straight-curve $-1 -54.255826227842675 -27.604666580336016 8.3369283780203336 0 1 0 I I #
point $-1 -57.629932554094054 -23.232423812984102 8.3369283780203336 #
coedge $-1 $490 $489 $657 $762 forward $491 $-1 #
point $-1 -57.629932554094054 -23.232423812984102 -8.3369283780203336 #
coedge $-1 $658 $657 $494 $672 reversed $318 $-1 #
edge $-1 $666 -8.3369283780203336 $673 8.3369283780203336 $494 $769 forward 7 unknown #
vertex $-1 $672 $770 #
straight-curve $-1 -54.255826227842675 -27.604666580336016 -8.3369283780203336 0 -1 0 I I #
loop $-1 $-1 $511 $498 #
plane-surface $-1 -57.629932554094054 0 0 1 0 0 0 0 -1 forward_v I I I I #
coedge $-1 $502 $501 $685 $771 reversed $204 $-1 #
coedge $-1 $514 $513 $501 $679 forward $499 $-1 #
edge $-1 $772 -1.6870531631256895 $682 1.6870531631256895 $501 $773 forward 7 unknown #
edge $-1 $681 -1.6870531631256895 $686 1.6870531631256895 $502 $774 forward 7 unknown #
vertex $-1 $506 $775 #
vertex $-1 $517 $776 #
straight-curve $-1 -54.255826227842675 31.976909347687929 0 0 0 -1 I I #
straight-curve $-1 -54.255826227842675 27.604666580336016 8.3369283780203336 0 1 0 I I #
coedge $-1 $689 $507 $677 $771 forward $675 $-1 #
vertex $-1 $680 $777 #
straight-curve $-1 -57.629932554094054 0 8.3369283780203336 0 -1 0 I I #
point $-1 -57.629932554094054 23.232423812984102 8.3369283780203336 #
coedge $-1 $511 $685 $513 $691 reversed $675 $-1 #
straight-curve $-1 -57.629932554094054 23.232423812984102 0 0 0 1 I I #
edge $-1 $515 -4.3722427673519135 $772 4.3722427673519135 $689 $778 forward 7 unknown #
point $-1 -57.629932554094054 23.232423812984102 -8.3369283780203336 #
straight-curve $-1 -54.255826227842675 27.604666580336016 -8.3369283780203336 0 -1 0 I I #
edge $-1 $695 35.432275859482175 $698 40.526523885990116 $521 $779 forward 7 unknown #
vertex $-1 $535 $780 #
straight-curve $-1 -68.118486236739997 -2.5548975338493509 8.3369283780203318 -1 0 0 I I #
edge $-1 $698 -0.32808189546507016 $532 6.0940407540939123 $531 $781 forward 7 unknown #
vertex $-1 $697 $782 #
straight-curve $-1 -57.629932554094054 -2.5548975338493509 3.2426803515123908 0.7313536940579346 0 0.68199836817093118 I I #
point $-1 -52.167020490791074 -2.5548975338493509 8.3369283780203336 #
point $-1 -57.629932554094054 -8.9770201834083334 3.2426803515123908 #
straight-curve $-1 -57.629932554094054 0 8.3369283780203336 0 -1 0 I I #
vertex $-1 $538 $783 #
point $-1 -53.850801307242669 -7.1421279978200509 5.3994498547938967 #
vertex $-1 $542 $784 #
point $-1 -53.850801307242669 -4.3897897194376299 5.3994498547938967 #
coedge $-1 $557 $556 $549 $708 forward $546 $-1 #
edge $-1 $709 35.432275859482175 $712 40.526523885990116 $707 $785 forward 7 unknown #
vertex $-1 $561 $786 #
straight-curve $-1 -68.118486236739997 8.9770201834083334 8.3369283780203318 -1 0 0 I I #
edge $-1 $712 -6.0940407540939123 $558 0.32808189546507016 $557 $787 forward 7 unknown #
vertex $-1 $711 $788 #
straight-curve $-1 -57.629932554094054 8.9770201834083334 3.2426803515123908 0.7313536940579346 0 0.68199836817093118 I I #
point $-1 -52.167020490791074 8.9770201834083334 8.3369283780203336 #
point $-1 -57.629932554094054 2.5548975338493509 3.2426803515123908 #
straight-curve $-1 -57.629932554094054 0 8.3369283780203336 0 -1 0 I I #
vertex $-1 $564 $789 #
point $-1 -53.850801307242669 4.3897897194376299 5.3994498547938967 #
vertex $-1 $568 $790 #
point $-1 -53.850801307242669 7.1421279978200545 5.3994498547938967 #
coedge $-1 $583 $582 $575 $722 forward $572 $-1 #
edge $-1 $723 73.328654615155244 $726 81.311655402445908 $721 $791 forward 7 unknown #
vertex $-1 $587 $792 #
straight-curve $-1 30.23735638283658 -12.637850984373127 8.3369283780203318 1 0 0 I I #
edge $-1 $726 -7.7779557620584301 $584 -1.9418346825709643 $583 $793 forward 7 unknown #
vertex $-1 $725 $794 #
straight-curve $-1 -22.436296537927134 -12.637850984373127 83.264936894329949 -0.69465836192734942 0 0.71933980857756763 I I #
point $-1 49.920838487508561 -12.637850984373127 8.3369283780203318 #
point $-1 57.629932554094054 -6.8017299048856614 0.3539275907296684 #
straight-curve $-1 57.629932554094054 0 8.3369283780203336 0 1 0 I I #
vertex $-1 $590 $795 #
point $-1 53.403374893187397 -9.7197904446293943 3.2910997181588435 #
edge $-1 $734 73.328654615155244 $737 81.311655402445908 $595 $796 forward 7 unknown #
vertex $-1 $609 $797 #
straight-curve $-1 30.23735638283658 -2.9180605397437329 8.3369283780203318 1 0 0 I I #
edge $-1 $737 -2.9180605397437329 $606 2.9180605397437329 $605 $798 forward 7 unknown #
vertex $-1 $736 $799 #
straight-curve $-1 -22.436296537927134 -2.9180605397437329 83.264936894329949 -0.69465836192734942 0 0.71933980857756763 I I #
point $-1 49.920838487508561 -2.9180605397437329 8.3369283780203318 #
point $-1 57.629932554094054 2.9180605397437329 0.3539275907296684 #
straight-curve $-1 57.629932554094054 0 8.3369283780203336 0 1 0 I I #
vertex $-1 $612 $800 #
point $-1 53.403374893187397 0 3.2910997181588435 #
edge $-1 $745 73.328654615155244 $748 81.311655402445908 $617 $801 forward 7 unknown #
vertex $-1 $631 $802 #
straight-curve $-1 30.23735638283658 6.8017299048856632 8.3369283780203318 1 0 0 I I #
edge $-1 $748 1.9418346825709651 $628 7.777955762058431 $627 $803 forward 7 unknown #
vertex $-1 $747 $804 #
straight-curve $-1 -22.436296537927134 6.8017299048856632 83.264936894329949 -0.69465836192734942 0 0.71933980857756763 I I #
point $-1 49.920838487508561 6.8017299048856632 8.3369283780203318 #
point $-1 57.629932554094054 12.637850984373129 0.3539275907296684 #
straight-curve $-1 57.629932554094054 0 8.3369283780203336 0 1 0 I I #
vertex $-1 $634 $805 #
point $-1 53.403374893187397 9.7197904446293961 3.2910997181588435 #
straight-curve $-1 -57.629932554094054 23.232423812984102 0 0 0 -1 I I #
straight-curve $-1 0 23.232423812984102 -8.3369283780203336 1 0 0 I I #
point $-1 57.629932554094054 23.232423812984102 -8.3369283780203336 #
straight-curve $-1 -57.629932554094054 0 8.3369283780203336 0 -1 0 I I #
point $-1 -57.629932554094054 23.232423812984102 8.3369283780203336 #
straight-curve $-1 57.629932554094054 23.232423812984102 0 0 0 -1 I I #
point $-1 -57.629932554094054 23.232423812984102 -8.3369283780203336 #
edge $-1 $673 -1.6870531631256895 $763 1.6870531631256895 $657 $806 forward 7 unknown #
vertex $-1 $661 $807 #
straight-curve $-1 -57.629932554094054 -31.976909347687929 0 0 0 -1 I I #
straight-curve $-1 -57.629932554094054 0 -8.3369283780203336 0 1 0 I I #
straight-curve $-1 -55.942879390968365 -31.976909347687929 8.3369283780203336 1 0 0 I I #
point $-1 -57.629932554094054 -31.976909347687929 8.3369283780203336 #
point $-1 -54.255826227842675 -31.976909347687929 8.3369283780203336 #
straight-curve $-1 -54.255826227842675 -31.976909347687929 0 0 0 -1 I I #
point $-1 -54.255826227842675 -31.976909347687929 -8.3369283780203336 #
edge $-1 $686 -8.3369283780203336 $772 8.3369283780203336 $677 $808 forward 7 unknown #
vertex $-1 $679 $809 #
straight-curve $-1 -55.942879390968365 31.976909347687929 -8.3369283780203336 1 0 0 I I #
straight-curve $-1 -55.942879390968365 31.976909347687929 8.3369283780203336 -1 0 0 I I #
point $-1 -54.255826227842675 31.976909347687929 8.3369283780203336 #
point $-1 -54.255826227842675 31.976909347687929 -8.3369283780203336 #
point $-1 -57.629932554094054 31.976909347687929 8.3369283780203336 #
straight-curve $-1 -57.629932554094054 27.604666580336016 -8.3369283780203336 0 1 0 I I #
straight-curve $-1 -57.629932554094054 -2.5548975338493509 43.769204237502507 0 0 -1 I I #
point $-1 -57.629932554094054 -2.5548975338493509 8.3369283780203336 #
straight-curve $-1 -57.629932554094054 -2.8829794293144211 3.2426803515123894 0 -1 0 I I #
point $-1 -57.629932554094054 -2.5548975338493509 3.2426803515123908 #
point $-1 -53.875478970186172 -7.1421279978200509 4.6927738236794641 #
point $-1 -53.875478970186172 -4.3897897194376299 4.6927738236794641 #
straight-curve $-1 -57.629932554094054 8.9770201834083334 43.769204237502507 0 0 -1 I I #
point $-1 -57.629932554094054 8.9770201834083334 8.3369283780203336 #
straight-curve $-1 -57.629932554094054 2.8829794293144211 3.2426803515123894 0 -1 0 I I #
point $-1 -57.629932554094054 8.9770201834083334 3.2426803515123908 #
point $-1 -53.875478970186172 4.3897897194376299 4.6927738236794641 #
point $-1 -53.875478970186172 7.1421279978200545 4.6927738236794641 #
straight-curve $-1 57.629932554094054 -12.637850984373127 81.665582993175576 0 0 -1 I I #
point $-1 57.629932554094054 -12.637850984373127 8.3369283780203336 #
straight-curve $-1 57.629932554094054 -4.8598952223146972 0.3539275907296755 0 1 0 I I #
point $-1 57.629932554094054 -12.637850984373127 0.3539275907296684 #
point $-1 52.696375807934942 -9.7197904446293943 3.3034404414839527 #
straight-curve $-1 57.629932554094054 -2.9180605397437329 81.665582993175576 0 0 -1 I I #
point $-1 57.629932554094054 -2.9180605397437329 8.3369283780203336 #
straight-curve $-1 57.629932554094054 0 0.3539275907296755 0 1 0 I I #
point $-1 57.629932554094054 -2.9180605397437329 0.3539275907296684 #
point $-1 52.696375807934942 0 3.3034404414839527 #
straight-curve $-1 57.629932554094054 6.8017299048856632 81.665582993175576 0 0 -1 I I #
point $-1 57.629932554094054 6.8017299048856632 8.3369283780203336 #
straight-curve $-1 57.629932554094054 4.8598952223146981 0.3539275907296755 0 1 0 I I #
point $-1 57.629932554094054 6.8017299048856632 0.3539275907296684 #
point $-1 52.696375807934942 9.7197904446293961 3.3034404414839527 #
straight-curve $-1 -55.942879390968365 -31.976909347687929 -8.3369283780203336 -1 0 0 I I #
point $-1 -57.629932554094054 -31.976909347687929 -8.3369283780203336 #
straight-curve $-1 -57.629932554094054 31.976909347687929 0 0 0 -1 I I #
point $-1 -57.629932554094054 31.976909347687929 -8.3369283780203336 #
End-of-ACIS-data 