500 0 5 0           
7 Unknown 11 ACIS 5.0 NT 24 Thu Mar 25 15:50:13 1999 
-1 9.9999999999999995e-007 1e-010 
body $-1 $5 $-1 $6 #
body $-1 $7 $-1 $8 #
body $-1 $9 $-1 $10 #
body $-1 $11 $-1 $12 #
body $-1 $13 $-1 $14 #
lump $-1 $-1 $15 $0 #
transform $-1 1 0 0 0 1 0 0 0 1 45.431073946348462 21.31157855531259 10.015017550226442 1 rotate no_reflect no_shear #
lump $-1 $-1 $16 $1 #
transform $-1 1 0 0 0 1 0 0 0 1 45.431073946348462 21.31157855531259 10.015017550226442 1 rotate no_reflect no_shear #
lump $-1 $-1 $17 $2 #
transform $-1 1 0 0 0 1 0 0 0 1 45.431073946348462 21.31157855531259 10.015017550226442 1 rotate no_reflect no_shear #
lump $-1 $-1 $18 $3 #
transform $-1 1 0 0 0 1 0 0 0 1 45.431073946348462 21.31157855531259 10.015017550226442 1 rotate no_reflect no_shear #
lump $-1 $-1 $19 $4 #
transform $-1 1 0 0 0 1 0 0 0 1 45.431073946348462 21.31157855531259 10.015017550226442 1 rotate no_reflect no_shear #
shell $-1 $-1 $-1 $20 $-1 $5 #
shell $-1 $-1 $-1 $21 $-1 $7 #
shell $-1 $-1 $-1 $22 $-1 $9 #
shell $-1 $-1 $-1 $23 $-1 $11 #
shell $-1 $-1 $-1 $24 $-1 $13 #
face $-1 $25 $26 $15 $-1 $27 forward single #
face $-1 $28 $29 $16 $-1 $30 reversed single #
face $-1 $31 $32 $17 $-1 $33 reversed single #
face $-1 $34 $35 $18 $-1 $36 reversed single #
face $-1 $37 $38 $19 $-1 $39 forward single #
face $-1 $40 $41 $15 $-1 $42 reversed single #
loop $-1 $-1 $43 $20 #
plane-surface $-1 0 0 10.015017550226442 0 0 1 1 0 0 forward_v I I I I #
face $-1 $44 $45 $16 $-1 $46 reversed single #
loop $-1 $-1 $47 $21 #
plane-surface $-1 0 -8.6856327565112288 8.0070931813122108 0 -1 0 0 0 -1 forward_v I I I I #
face $-1 $48 $49 $17 $-1 $50 reversed single #
loop $-1 $-1 $51 $22 #
plane-surface $-1 0 14.998605655911906 5.9991688123979792 0 0 1 1 0 0 forward_v I I I I #
face $-1 $52 $53 $18 $-1 $54 reversed single #
loop $-1 $-1 $55 $23 #
plane-surface $-1 -45.431073946348462 -5.8761271575649765 5.6756837755685083 -0.77714596973225614 0 0.62932038083071107 0.62932038083071107 0 0.77714596973225614 forward_v I I I I #
face $-1 $56 $57 $19 $-1 $58 forward single #
loop $-1 $59 $60 $24 #
cone-surface $-1 -42.844361368473251 -5.8761271575649765 7.173431551493854 0.77714596973225614 0 -0.62932038083071107 0.62932038083071107 0 0.77714596973225614 1 I I 0 1 1 forward I I I I #
face $-1 $61 $62 $15 $-1 $63 reversed single #
loop $-1 $-1 $64 $25 #
plane-surface $-1 0 0 -10.015017550226442 0 0 1 1 0 0 forward_v I I I I #
coedge $-1 $65 $66 $67 $68 forward $26 $-1 #
face $-1 $69 $70 $16 $-1 $71 reversed single #
loop $-1 $-1 $72 $28 #
plane-surface $-1 0 -14.998605655911909 5.9991688123979792 0 0 1 1 0 0 forward_v I I I I #
coedge $-1 $73 $74 $75 $76 reversed $29 $-1 #
face $-1 $77 $78 $17 $-1 $79 forward single #
loop $-1 $-1 $80 $31 #
plane-surface $-1 0 8.6856327565112252 8.0070931813122108 0 1 0 0 0 1 forward_v I I I I #
coedge $-1 $81 $82 $83 $84 reversed $32 $-1 #
face $-1 $85 $86 $18 $-1 $87 reversed single #
loop $-1 $-1 $88 $34 #
plane-surface $-1 -116.04422598237409 -3.0666215586187242 62.857085290496926 0 -1 0 0.77714596973225614 0 -0.62932038083071107 forward_v I I I I #
coedge $-1 $89 $90 $91 $92 reversed $35 $-1 #
face $-1 $-1 $93 $19 $-1 $94 forward single #
loop $-1 $95 $96 $37 #
cone-surface $-1 -41.626037361204006 -5.8761271575649765 6.1868522496748781 0.77714596973225614 0 -0.62932038083071107 0.31466019041535553 0 0.38857298486612807 1 I I -0.70710678118654746 0.70710678118654746 0.5 forward I I I I #
loop $-1 $-1 $97 $24 #
coedge $-1 $60 $60 $98 $99 reversed $38 $-1 #
face $-1 $100 $101 $15 $-1 $102 reversed single #
loop $-1 $-1 $103 $40 #
plane-surface $-1 0 -21.31157855531259 0 0 1 0 0 0 1 forward_v I I I I #
coedge $-1 $104 $105 $106 $107 forward $41 $-1 #
coedge $-1 $108 $43 $109 $110 forward $26 $-1 #
coedge $-1 $43 $108 $111 $112 forward $26 $-1 #
coedge $-1 $113 $114 $43 $68 reversed $115 $-1 #
edge $-1 $116 -21.31157855531259 $117 21.31157855531259 $67 $118 forward 7 unknown #
face $-1 $119 $120 $16 $-1 $121 reversed single #
loop $-1 $-1 $122 $44 #
plane-surface $-1 -45.431073946348462 0 0 1 0 0 0 0 -1 forward_v I I I I #
coedge $-1 $123 $124 $125 $126 reversed $45 $-1 #
coedge $-1 $127 $47 $128 $129 reversed $29 $-1 #
coedge $-1 $47 $127 $122 $130 reversed $29 $-1 #
coedge $-1 $131 $132 $47 $76 forward $133 $-1 #
edge $-1 $134 -45.431073946348462 $135 45.431073946348462 $75 $136 forward 7 unknown #
face $-1 $137 $138 $17 $-1 $139 reversed single #
loop $-1 $-1 $140 $48 #
plane-surface $-1 0 0 10.015017550226442 0 0 1 1 0 0 forward_v I I I I #
coedge $-1 $141 $142 $143 $144 reversed $49 $-1 #
coedge $-1 $145 $51 $141 $146 forward $32 $-1 #
coedge $-1 $51 $145 $147 $148 reversed $32 $-1 #
coedge $-1 $149 $150 $51 $84 forward $138 $-1 #
edge $-1 $151 1.1863299285552724 $152 13.812275727356633 $83 $153 forward 7 unknown #
face $-1 $154 $155 $18 $-1 $156 forward single #
loop $-1 $-1 $157 $52 #
plane-surface $-1 -45.431073946348462 0 0 1 0 0 0 0 -1 forward_v I I I I #
coedge $-1 $158 $159 $160 $161 reversed $53 $-1 #
coedge $-1 $162 $55 $163 $164 reversed $35 $-1 #
coedge $-1 $55 $162 $158 $165 forward $35 $-1 #
coedge $-1 $160 $166 $55 $92 forward $155 $-1 #
edge $-1 $167 -5.7475691777287405 $168 -0.12855797983623596 $91 $169 forward 7 unknown #
loop $-1 $-1 $98 $56 #
plane-surface $-1 -45.431073946348462 -5.8761271575649765 5.6756837755685083 -0.77714596973225614 0 0.62932038083071107 0.62932038083071107 0 0.77714596973225614 forward_v I I I I #
loop $-1 $-1 $170 $37 #
coedge $-1 $96 $96 $97 $171 reversed $57 $-1 #
coedge $-1 $97 $97 $96 $171 forward $59 $-1 #
coedge $-1 $98 $98 $60 $99 forward $93 $-1 #
edge $-1 $172 0 $172 6.2831853071796004 $98 $173 forward 7 unknown #
face $-1 $174 $175 $15 $-1 $176 reversed single #
loop $-1 $-1 $177 $61 #
plane-surface $-1 -45.431073946348462 0 0 1 0 0 0 0 -1 forward_v I I I I #
coedge $-1 $178 $111 $179 $180 forward $62 $-1 #
coedge $-1 $181 $64 $178 $182 forward $41 $-1 #
coedge $-1 $64 $181 $183 $184 forward $41 $-1 #
coedge $-1 $114 $113 $64 $107 reversed $115 $-1 #
edge $-1 $185 -21.31157855531259 $186 21.31157855531259 $106 $187 forward 7 unknown #
coedge $-1 $66 $65 $188 $189 forward $26 $-1 #
coedge $-1 $190 $191 $65 $110 reversed $175 $-1 #
edge $-1 $117 -45.431073946348462 $192 45.431073946348462 $109 $193 forward 7 unknown #
coedge $-1 $103 $194 $66 $112 reversed $62 $-1 #
edge $-1 $195 -45.431073946348462 $116 45.431073946348462 $111 $196 forward 7 unknown #
coedge $-1 $106 $67 $194 $197 forward $115 $-1 #
coedge $-1 $67 $106 $190 $198 reversed $115 $-1 #
loop $-1 $-1 $113 $174 #
vertex $-1 $68 $199 #
vertex $-1 $68 $200 #
straight-curve $-1 45.431073946348462 0 10.015017550226442 0 1 0 I I #
face $-1 $201 $133 $16 $-1 $202 forward single #
loop $-1 $-1 $203 $69 #
plane-surface $-1 0 -21.31157855531259 0 0 1 0 0 0 1 forward_v I I I I #
coedge $-1 $204 $205 $74 $130 forward $70 $-1 #
coedge $-1 $206 $72 $203 $207 reversed $45 $-1 #
coedge $-1 $72 $206 $127 $208 forward $45 $-1 #
coedge $-1 $128 $209 $72 $126 forward $210 $-1 #
edge $-1 $211 -13.812275727356635 $212 -1.1863299285552742 $125 $213 forward 7 unknown #
coedge $-1 $74 $73 $124 $208 reversed $29 $-1 #
coedge $-1 $214 $125 $73 $129 forward $210 $-1 #
edge $-1 $212 1.9956222217418738 $134 6.0114709595703371 $128 $215 forward 7 unknown #
edge $-1 $135 -6.0114709595703371 $216 -1.9956222217418738 $122 $217 forward 7 unknown #
coedge $-1 $218 $75 $205 $219 forward $133 $-1 #
coedge $-1 $75 $218 $214 $220 forward $133 $-1 #
loop $-1 $-1 $75 $119 #
vertex $-1 $129 $221 #
vertex $-1 $219 $222 #
straight-curve $-1 0 -8.6856327565112288 10.015017550226442 -1 0 0 I I #
face $-1 $223 $224 $17 $-1 $225 reversed single #
loop $-1 $-1 $150 $77 #
plane-surface $-1 45.431073946348462 0 0 -1 0 0 0 0 1 forward_v I I I I #
coedge $-1 $226 $227 $142 $228 forward $78 $-1 #
coedge $-1 $229 $80 $81 $146 reversed $49 $-1 #
coedge $-1 $80 $229 $140 $228 reversed $49 $-1 #
coedge $-1 $230 $231 $80 $144 forward $224 $-1 #
edge $-1 $232 1.9956222217418738 $233 6.0114709595703371 $143 $234 forward 7 unknown #
coedge $-1 $82 $81 $231 $235 reversed $32 $-1 #
edge $-1 $151 -45.431073946348462 $232 45.431073946348462 $141 $236 forward 7 unknown #
coedge $-1 $237 $238 $82 $148 forward $239 $-1 #
edge $-1 $152 -45.431073946348462 $240 45.431073946348462 $147 $241 forward 7 unknown #
coedge $-1 $242 $83 $238 $243 reversed $138 $-1 #
coedge $-1 $83 $242 $229 $244 forward $138 $-1 #
vertex $-1 $84 $245 #
vertex $-1 $148 $246 #
straight-curve $-1 45.431073946348462 7.4993028279559528 5.9991688123979792 0 1 0 I I #
face $-1 $-1 $247 $18 $-1 $248 forward single #
loop $-1 $-1 $160 $85 #
plane-surface $-1 0 0 10.015017550226442 0 0 1 1 0 0 forward_v I I I I #
coedge $-1 $249 $250 $159 $251 forward $86 $-1 #
coedge $-1 $159 $88 $90 $165 reversed $53 $-1 #
coedge $-1 $88 $158 $157 $251 reversed $53 $-1 #
coedge $-1 $252 $91 $88 $161 forward $155 $-1 #
edge $-1 $168 -16.104962155782758 $253 -12.591039044838581 $160 $254 forward 7 unknown #
coedge $-1 $90 $89 $249 $255 reversed $35 $-1 #
coedge $-1 $256 $257 $89 $164 forward $247 $-1 #
edge $-1 $258 -15.201273090466898 $167 -9.6175939057792021 $163 $259 forward 7 unknown #
edge $-1 $260 0 $168 5.5836791846876981 $158 $261 forward 7 unknown #
coedge $-1 $91 $252 $256 $262 forward $155 $-1 #
vertex $-1 $164 $263 #
vertex $-1 $92 $264 #
straight-curve $-1 -41.917150835404286 -2.9380635787824882 10.015017550226442 0 1 0 I I #
coedge $-1 $170 $170 $-1 $265 reversed $95 $-1 #
edge $-1 $266 0 $266 6.2831853071796004 $96 $267 forward 7 unknown #
vertex $-1 $99 $268 #
ellipse-curve $-1 -43.674112390876374 -5.8761271575649765 7.8453506628974772 -0.77714596973225614 0 0.62932038083071107 0.62932038083071107 0 0.77714596973225614 1 I I #
face $-1 $-1 $115 $15 $-1 $269 reversed single #
loop $-1 $-1 $190 $100 #
plane-surface $-1 0 21.31157855531259 0 0 -1 0 0 0 -1 forward_v I I I I #
coedge $-1 $270 $188 $191 $271 forward $101 $-1 #
coedge $-1 $194 $103 $104 $182 reversed $62 $-1 #
coedge $-1 $188 $270 $103 $180 reversed $101 $-1 #
edge $-1 $195 -10.015017550226442 $272 10.015017550226442 $179 $273 forward 7 unknown #
coedge $-1 $105 $104 $270 $274 forward $41 $-1 #
edge $-1 $186 -45.431073946348462 $272 45.431073946348462 $178 $275 forward 7 unknown #
coedge $-1 $191 $190 $105 $184 reversed $175 $-1 #
edge $-1 $276 -45.431073946348462 $185 45.431073946348462 $183 $277 forward 7 unknown #
vertex $-1 $107 $278 #
vertex $-1 $197 $279 #
straight-curve $-1 45.431073946348462 0 -10.015017550226442 0 -1 0 I I #
coedge $-1 $177 $179 $108 $189 reversed $101 $-1 #
edge $-1 $192 -21.31157855531259 $195 21.31157855531259 $188 $280 forward 7 unknown #
coedge $-1 $183 $109 $114 $198 forward $175 $-1 #
coedge $-1 $109 $183 $177 $271 reversed $175 $-1 #
vertex $-1 $110 $281 #
straight-curve $-1 0 21.31157855531259 10.015017550226442 -1 0 0 I I #
coedge $-1 $111 $178 $113 $197 reversed $62 $-1 #
vertex $-1 $189 $282 #
straight-curve $-1 0 -21.31157855531259 10.015017550226442 1 0 0 I I #
edge $-1 $116 -10.015017550226442 $186 10.015017550226442 $113 $283 forward 7 unknown #
edge $-1 $117 -10.015017550226442 $185 10.015017550226442 $114 $284 forward 7 unknown #
point $-1 45.431073946348462 -21.31157855531259 10.015017550226442 #
point $-1 45.431073946348462 21.31157855531259 10.015017550226442 #
face $-1 $-1 $210 $16 $-1 $285 reversed single #
plane-surface $-1 0 0 10.015017550226442 0 0 1 1 0 0 forward_v I I I I #
coedge $-1 $286 $287 $123 $207 forward $120 $-1 #
coedge $-1 $288 $122 $206 $289 forward $70 $-1 #
coedge $-1 $122 $288 $131 $219 reversed $70 $-1 #
coedge $-1 $124 $123 $204 $289 reversed $45 $-1 #
edge $-1 $290 -45.431073946348462 $211 45.431073946348462 $203 $291 forward 7 unknown #
edge $-1 $216 -45.431073946348462 $212 45.431073946348462 $127 $292 forward 7 unknown #
coedge $-1 $125 $214 $286 $293 forward $210 $-1 #
loop $-1 $-1 $128 $201 #
vertex $-1 $207 $294 #
vertex $-1 $126 $295 #
straight-curve $-1 45.431073946348462 -7.4993028279559546 5.9991688123979792 0 1 0 I I #
coedge $-1 $209 $128 $132 $220 reversed $210 $-1 #
straight-curve $-1 45.431073946348462 -8.6856327565112288 4.0035465906561054 0 0 1 I I #
vertex $-1 $289 $296 #
straight-curve $-1 -45.431073946348462 -8.6856327565112288 4.0035465906561054 0 0 -1 I I #
coedge $-1 $132 $131 $297 $298 forward $133 $-1 #
edge $-1 $135 8.6856327565112288 $299 21.31157855531259 $205 $300 forward 7 unknown #
edge $-1 $301 -21.31157855531259 $134 -8.6856327565112288 $214 $302 forward 7 unknown #
point $-1 45.431073946348462 -8.6856327565112288 10.015017550226442 #
point $-1 -45.431073946348462 -8.6856327565112288 10.015017550226442 #
face $-1 $-1 $239 $17 $-1 $303 reversed single #
loop $-1 $-1 $143 $137 #
plane-surface $-1 -45.431073946348462 0 0 1 0 0 0 0 -1 forward_v I I I I #
coedge $-1 $304 $140 $242 $305 forward $78 $-1 #
coedge $-1 $140 $304 $230 $306 forward $78 $-1 #
edge $-1 $233 -45.431073946348462 $307 45.431073946348462 $140 $308 forward 7 unknown #
coedge $-1 $142 $141 $150 $244 reversed $49 $-1 #
coedge $-1 $309 $143 $227 $306 reversed $224 $-1 #
coedge $-1 $143 $309 $145 $235 forward $224 $-1 #
vertex $-1 $235 $310 #
vertex $-1 $144 $311 #
straight-curve $-1 -45.431073946348462 8.6856327565112252 4.0035465906561054 0 0 1 I I #
edge $-1 $240 -13.812275727356633 $232 -1.1863299285552724 $231 $312 forward 7 unknown #
straight-curve $-1 0 8.6856327565112252 5.9991688123979792 -1 0 0 I I #
coedge $-1 $313 $147 $309 $314 reversed $239 $-1 #
coedge $-1 $147 $313 $149 $243 forward $239 $-1 #
loop $-1 $-1 $147 $223 #
vertex $-1 $148 $315 #
straight-curve $-1 0 21.31157855531259 5.9991688123979792 -1 0 0 I I #
coedge $-1 $150 $149 $226 $305 reversed $138 $-1 #
edge $-1 $316 -10.015017550226442 $152 -5.9991688123979792 $149 $317 forward 7 unknown #
edge $-1 $307 -6.0114709595703371 $151 -1.9956222217418738 $150 $318 forward 7 unknown #
point $-1 45.431073946348462 8.6856327565112252 5.9991688123979792 #
point $-1 45.431073946348462 21.311578555312586 5.9991688123979792 #
loop $-1 $-1 $163 $154 #
plane-surface $-1 0 -8.6856327565112288 8.0070931813122108 0 -1 0 0 0 -1 forward_v I I I I #
coedge $-1 $319 $157 $162 $255 forward $86 $-1 #
coedge $-1 $157 $319 $252 $320 reversed $86 $-1 #
edge $-1 $253 21.41352509502202 $260 25.752858869679955 $157 $321 forward 7 unknown #
coedge $-1 $166 $160 $250 $320 forward $155 $-1 #
vertex $-1 $320 $322 #
straight-curve $-1 -58.022112991187043 -3.0666215586187242 10.015017550226442 -1 0 0 I I #
edge $-1 $260 0.12855797983623596 $258 5.7475691777287405 $249 $323 forward 7 unknown #
coedge $-1 $257 $163 $166 $262 reversed $247 $-1 #
coedge $-1 $163 $256 $319 $324 reversed $247 $-1 #
vertex $-1 $324 $325 #
straight-curve $-1 -35.864602975944194 -8.6856327565112288 17.489291892624259 0.62932038083071107 0 0.77714596973225614 I I #
vertex $-1 $255 $326 #
straight-curve $-1 -45.431073946348462 -3.0666215586187242 5.6756837755685083 0.62932038083071107 0 0.77714596973225614 I I #
edge $-1 $327 -45.431073946348462 $167 -41.917150835404286 $166 $328 forward 7 unknown #
point $-1 -41.917150835404286 -8.6856327565112288 10.015017550226442 #
point $-1 -41.917150835404286 -3.0666215586187242 10.015017550226442 #
edge $-1 $329 1 $329 0 $170 $-1 forward 7 unknown #
vertex $-1 $171 $330 #
ellipse-curve $-1 -42.014610346070135 -5.8761271575649765 6.5015124400902335 -0.77714596973225614 0 0.62932038083071107 0.62932038083071107 0 0.77714596973225614 1 I I #
point $-1 -43.044792010045661 -5.8761271575649765 8.6224966326297299 #
plane-surface $-1 45.431073946348462 0 0 -1 0 0 0 0 1 forward_v I I I I #
coedge $-1 $179 $177 $181 $274 reversed $101 $-1 #
edge $-1 $192 -10.015017550226442 $276 10.015017550226442 $191 $331 forward 7 unknown #
vertex $-1 $274 $332 #
straight-curve $-1 -45.431073946348462 -21.31157855531259 0 0 0 -1 I I #
edge $-1 $272 -21.31157855531259 $276 21.31157855531259 $270 $333 forward 7 unknown #
straight-curve $-1 0 -21.31157855531259 -10.015017550226442 -1 0 0 I I #
vertex $-1 $184 $334 #
straight-curve $-1 0 21.31157855531259 -10.015017550226442 1 0 0 I I #
point $-1 45.431073946348462 21.31157855531259 -10.015017550226442 #
point $-1 45.431073946348462 -21.31157855531259 -10.015017550226442 #
straight-curve $-1 -45.431073946348462 0 10.015017550226442 0 -1 0 I I #
point $-1 -45.431073946348462 21.31157855531259 10.015017550226442 #
point $-1 -45.431073946348462 -21.31157855531259 10.015017550226442 #
straight-curve $-1 45.431073946348462 -21.31157855531259 0 0 0 -1 I I #
straight-curve $-1 45.431073946348462 21.31157855531259 0 0 0 -1 I I #
plane-surface $-1 45.431073946348462 0 0 -1 0 0 0 0 1 forward_v I I I I #
coedge $-1 $297 $203 $209 $293 reversed $120 $-1 #
coedge $-1 $203 $297 $288 $335 forward $120 $-1 #
coedge $-1 $205 $204 $287 $335 reversed $70 $-1 #
edge $-1 $216 1.1863299285552742 $290 13.812275727356635 $204 $336 forward 7 unknown #
vertex $-1 $207 $337 #
straight-curve $-1 0 -21.31157855531259 5.9991688123979792 1 0 0 I I #
straight-curve $-1 0 -8.6856327565112288 5.9991688123979792 1 0 0 I I #
edge $-1 $301 -10.015017550226442 $211 -5.9991688123979792 $209 $338 forward 7 unknown #
point $-1 45.431073946348462 -21.31157855531259 5.9991688123979792 #
point $-1 45.431073946348462 -8.6856327565112288 5.9991688123979792 #
point $-1 -45.431073946348462 -8.6856327565112288 5.9991688123979792 #
coedge $-1 $287 $286 $218 $298 reversed $120 $-1 #
edge $-1 $299 -45.431073946348462 $301 45.431073946348462 $297 $339 forward 7 unknown #
vertex $-1 $219 $340 #
straight-curve $-1 -45.431073946348462 0 10.015017550226442 0 -1 0 I I #
vertex $-1 $220 $341 #
straight-curve $-1 45.431073946348462 0 10.015017550226442 0 1 0 I I #
plane-surface $-1 0 21.31157855531259 0 0 -1 0 0 0 -1 forward_v I I I I #
coedge $-1 $227 $226 $313 $342 forward $78 $-1 #
edge $-1 $307 8.6856327565112252 $316 21.31157855531259 $242 $343 forward 7 unknown #
edge $-1 $344 -21.31157855531259 $233 -8.6856327565112252 $230 $345 forward 7 unknown #
vertex $-1 $305 $346 #
straight-curve $-1 0 8.6856327565112252 10.015017550226442 1 0 0 I I #
coedge $-1 $231 $230 $237 $314 forward $224 $-1 #
point $-1 -45.431073946348462 8.6856327565112252 5.9991688123979792 #
point $-1 -45.431073946348462 8.6856327565112252 10.015017550226442 #
straight-curve $-1 -45.431073946348462 7.4993028279559528 5.9991688123979792 0 -1 0 I I #
coedge $-1 $238 $237 $304 $342 reversed $239 $-1 #
edge $-1 $344 -10.015017550226442 $240 -5.9991688123979792 $237 $347 forward 7 unknown #
point $-1 -45.431073946348462 21.311578555312586 5.9991688123979792 #
vertex $-1 $305 $348 #
straight-curve $-1 45.431073946348462 21.31157855531259 0 0 0 -1 I I #
straight-curve $-1 45.431073946348462 8.6856327565112252 4.0035465906561054 0 0 -1 I I #
coedge $-1 $250 $249 $257 $324 forward $86 $-1 #
edge $-1 $253 3.0666215586187242 $327 8.6856327565112288 $250 $349 forward 7 unknown #
straight-curve $-1 -45.431073946348462 -3.0666215586187242 31.428542645248463 0 0 -1 I I #
point $-1 -45.431073946348462 -3.0666215586187242 10.015017550226442 #
straight-curve $-1 -45.431073946348462 -2.9380635787824882 5.6756837755685119 0 -1 0 I I #
edge $-1 $258 -25.752858869679955 $327 -21.41352509502202 $319 $350 forward 7 unknown #
point $-1 -45.431073946348462 -8.6856327565112288 5.6756837755685083 #
point $-1 -45.431073946348462 -3.0666215586187242 5.6756837755685083 #
vertex $-1 $324 $351 #
straight-curve $-1 0 -8.6856327565112288 10.015017550226442 1 0 0 I I #
vertex $-1 $265 $352 #
point $-1 -41.385289965239423 -5.8761271575649765 7.2786584098224898 #
straight-curve $-1 -45.431073946348462 21.31157855531259 0 0 0 -1 I I #
point $-1 -45.431073946348462 -21.31157855531259 -10.015017550226442 #
straight-curve $-1 -45.431073946348462 0 -10.015017550226442 0 1 0 I I #
point $-1 -45.431073946348462 21.31157855531259 -10.015017550226442 #
edge $-1 $299 -10.015017550226442 $290 -5.9991688123979792 $288 $353 forward 7 unknown #
straight-curve $-1 -45.431073946348462 -7.4993028279559546 5.9991688123979792 0 -1 0 I I #
point $-1 -45.431073946348462 -21.31157855531259 5.9991688123979792 #
straight-curve $-1 45.431073946348462 -21.31157855531259 0 0 0 -1 I I #
straight-curve $-1 0 -21.31157855531259 10.015017550226442 1 0 0 I I #
point $-1 -45.431073946348462 -21.31157855531259 10.015017550226442 #
point $-1 45.431073946348462 -21.31157855531259 10.015017550226442 #
edge $-1 $316 -45.431073946348462 $344 45.431073946348462 $313 $354 forward 7 unknown #
straight-curve $-1 45.431073946348462 0 10.015017550226442 0 1 0 I I #
vertex $-1 $342 $355 #
straight-curve $-1 -45.431073946348462 0 10.015017550226442 0 -1 0 I I #
point $-1 45.431073946348462 8.6856327565112252 10.015017550226442 #
straight-curve $-1 -45.431073946348462 21.31157855531259 0 0 0 -1 I I #
point $-1 45.431073946348462 21.31157855531259 10.015017550226442 #
straight-curve $-1 -45.431073946348462 0 10.015017550226442 0 -1 0 I I #
straight-curve $-1 -45.431073946348462 -8.6856327565112288 31.428542645248463 0 0 1 I I #
point $-1 -45.431073946348462 -8.6856327565112288 10.015017550226442 #
point $-1 -41.237464376337876 -5.8761271575649765 5.8721920592595227 #
straight-curve $-1 -45.431073946348462 -21.31157855531259 0 0 0 -1 I I #
straight-curve $-1 0 21.31157855531259 10.015017550226442 -1 0 0 I I #
point $-1 -45.431073946348462 21.31157855531259 10.015017550226442 #
End-of-ACIS-data 