500 0 8 0           
7 Unknown 11 ACIS 5.0 NT 24 Fri Mar 26 20:35:38 1999 
-1 9.9999999999999995e-007 1e-010 
body $-1 $8 $-1 $9 #
body $-1 $10 $-1 $11 #
body $-1 $12 $-1 $13 #
body $-1 $14 $-1 $15 #
body $-1 $16 $-1 $17 #
body $-1 $18 $-1 $19 #
body $-1 $20 $-1 $21 #
body $-1 $22 $-1 $23 #
lump $-1 $-1 $24 $0 #
transform $-1 1 0 0 0 1 0 0 0 1 63.666493728446298 30.669580276071457 8.7986792329838597 1 rotate no_reflect no_shear #
lump $-1 $-1 $25 $1 #
transform $-1 1 0 0 0 1 0 0 0 1 63.666493728446298 30.669580276071457 8.7986792329838597 1 rotate no_reflect no_shear #
lump $-1 $-1 $26 $2 #
transform $-1 1 0 0 0 1 0 0 0 1 63.666493728446298 30.669580276071457 8.7986792329838597 1 rotate no_reflect no_shear #
lump $-1 $-1 $27 $3 #
transform $-1 1 0 0 0 1 0 0 0 1 63.666493728446298 30.669580276071457 8.7986792329838597 1 rotate no_reflect no_shear #
lump $-1 $-1 $28 $4 #
transform $-1 1 0 0 0 1 0 0 0 1 63.666493728446298 30.669580276071457 8.7986792329838597 1 rotate no_reflect no_shear #
lump $-1 $-1 $29 $5 #
transform $-1 1 0 0 0 1 0 0 0 1 63.666493728446298 30.669580276071457 8.7986792329838597 1 rotate no_reflect no_shear #
lump $-1 $-1 $30 $6 #
transform $-1 1 0 0 0 1 0 0 0 1 63.666493728446298 30.669580276071457 8.7986792329838597 1 rotate no_reflect no_shear #
lump $-1 $-1 $31 $7 #
transform $-1 1 0 0 0 1 0 0 0 1 63.666493728446298 30.669580276071457 8.7986792329838597 1 rotate no_reflect no_shear #
shell $-1 $-1 $-1 $32 $-1 $8 #
shell $-1 $-1 $-1 $33 $-1 $10 #
shell $-1 $-1 $-1 $34 $-1 $12 #
shell $-1 $-1 $-1 $35 $-1 $14 #
shell $-1 $-1 $-1 $36 $-1 $16 #
shell $-1 $-1 $-1 $37 $-1 $18 #
shell $-1 $-1 $-1 $38 $-1 $20 #
shell $-1 $-1 $-1 $39 $-1 $22 #
face $-1 $40 $41 $24 $-1 $42 forward single #
face $-1 $43 $44 $25 $-1 $45 forward single #
face $-1 $46 $47 $26 $-1 $48 reversed single #
face $-1 $49 $50 $27 $-1 $51 forward single #
face $-1 $52 $53 $28 $-1 $54 forward single #
face $-1 $55 $56 $29 $-1 $57 reversed single #
face $-1 $58 $59 $30 $-1 $60 forward single #
face $-1 $61 $62 $31 $-1 $63 forward single #
face $-1 $64 $65 $24 $-1 $66 reversed single #
loop $-1 $-1 $67 $32 #
plane-surface $-1 0 0 8.7986792329838597 0 0 1 1 0 0 forward_v I I I I #
face $-1 $68 $69 $25 $-1 $70 reversed single #
loop $-1 $-1 $71 $33 #
plane-surface $-1 0 -27.245506598292877 -5.7986792329838597 0 0 1 1 0 0 forward_v I I I I #
face $-1 $72 $73 $26 $-1 $74 reversed single #
loop $-1 $-1 $75 $34 #
plane-surface $-1 -164.00625818440687 -13.965869465958628 80.727501053364833 0 1 0 -0.78801076186113728 0 0.61566146476048833 forward_v I I I I #
face $-1 $76 $77 $27 $-1 $78 forward single #
loop $-1 $79 $80 $35 #
cone-surface $-1 -59.745342606682726 -10.137861516617996 4.4757442172267883 0.78801076186113728 0 -0.61566146476048833 0.9234921971407325 0 1.182016142791706 1 I I 0 1 1.5 forward I I I I #
face $-1 $81 $82 $28 $-1 $83 forward single #
loop $-1 $84 $85 $36 #
cone-surface $-1 -59.745342606682726 -4.3958495926070462 4.4757442172267883 0.78801076186113728 0 -0.61566146476048833 0.9234921971407325 0 1.182016142791706 1 I I 0 1 1.5 forward I I I I #
face $-1 $86 $87 $29 $-1 $88 reversed single #
loop $-1 $-1 $89 $37 #
plane-surface $-1 -164.00625818440687 13.279637132334249 80.727501053364833 0 1 0 -0.78801076186113728 0 0.61566146476048833 forward_v I I I I #
face $-1 $90 $91 $30 $-1 $92 forward single #
loop $-1 $93 $94 $38 #
cone-surface $-1 -59.745342606682726 17.107645081674882 4.4757442172267883 0.78801076186113728 0 -0.61566146476048833 0.9234921971407325 0 1.182016142791706 1 I I 0 1 1.5 forward I I I I #
face $-1 $95 $96 $31 $-1 $97 forward single #
loop $-1 $98 $99 $39 #
cone-surface $-1 -59.745342606682726 22.849657005685827 4.4757442172267883 0.78801076186113728 0 -0.61566146476048833 0.9234921971407325 0 1.182016142791706 1 I I 0 1 1.5 forward I I I I #
face $-1 $100 $101 $24 $-1 $102 reversed single #
loop $-1 $-1 $103 $40 #
plane-surface $-1 0 0 -8.7986792329838597 0 0 1 1 0 0 forward_v I I I I #
coedge $-1 $104 $105 $106 $107 forward $41 $-1 #
face $-1 $108 $109 $25 $-1 $110 reversed single #
loop $-1 $-1 $111 $43 #
plane-surface $-1 0 -23.821432920514297 -7.2986792329838597 0 -1 0 0 0 -1 forward_v I I I I #
coedge $-1 $112 $113 $114 $115 reversed $44 $-1 #
face $-1 $116 $117 $26 $-1 $118 reversed single #
loop $-1 $-1 $119 $46 #
plane-surface $-1 -63.666493728446298 -7.2668555546125191 2.333487483325456 -0.78801076186113728 0 0.61566146476048833 0.61566146476048833 0 0.78801076186113728 forward_v I I I I #
coedge $-1 $120 $121 $122 $123 reversed $47 $-1 #
face $-1 $-1 $124 $27 $-1 $125 forward single #
loop $-1 $126 $127 $49 #
cone-surface $-1 -57.758764037036109 -10.137861516617996 2.923658977728552 0.78801076186113728 0 -0.61566146476048833 0.46174609857036625 0 0.59100807139585299 1 I I -0.70710678118654757 0.70710678118654757 0.75 forward I I I I #
loop $-1 $-1 $128 $35 #
coedge $-1 $80 $80 $129 $130 reversed $50 $-1 #
face $-1 $-1 $131 $28 $-1 $132 forward single #
loop $-1 $133 $134 $52 #
cone-surface $-1 -57.758764037036109 -4.3958495926070462 2.923658977728552 0.78801076186113728 0 -0.61566146476048833 0.46174609857036625 0 0.59100807139585299 1 I I -0.70710678118654757 0.70710678118654757 0.75 forward I I I I #
loop $-1 $-1 $135 $36 #
coedge $-1 $85 $85 $136 $137 reversed $53 $-1 #
face $-1 $138 $139 $29 $-1 $140 reversed single #
loop $-1 $-1 $141 $55 #
plane-surface $-1 -63.666493728446298 19.978651043680358 2.333487483325456 -0.78801076186113728 0 0.61566146476048833 0.61566146476048833 0 0.78801076186113728 forward_v I I I I #
coedge $-1 $142 $143 $144 $145 reversed $56 $-1 #
face $-1 $-1 $146 $30 $-1 $147 forward single #
loop $-1 $148 $149 $58 #
cone-surface $-1 -57.758764037036109 17.107645081674882 2.923658977728552 0.78801076186113728 0 -0.61566146476048833 0.46174609857036625 0 0.59100807139585299 1 I I -0.70710678118654757 0.70710678118654757 0.75 forward I I I I #
loop $-1 $-1 $150 $38 #
coedge $-1 $94 $94 $151 $152 reversed $59 $-1 #
face $-1 $-1 $153 $31 $-1 $154 forward single #
loop $-1 $155 $156 $61 #
cone-surface $-1 -57.758764037036109 22.849657005685827 2.923658977728552 0.78801076186113728 0 -0.61566146476048833 0.46174609857036625 0 0.59100807139585299 1 I I -0.70710678118654757 0.70710678118654757 0.75 forward I I I I #
loop $-1 $-1 $157 $39 #
coedge $-1 $99 $99 $158 $159 reversed $62 $-1 #
face $-1 $160 $161 $24 $-1 $162 reversed single #
loop $-1 $-1 $163 $64 #
plane-surface $-1 0 -30.669580276071457 0 0 1 0 0 0 1 forward_v I I I I #
coedge $-1 $164 $165 $166 $167 forward $65 $-1 #
coedge $-1 $168 $67 $169 $170 forward $41 $-1 #
coedge $-1 $67 $168 $171 $172 forward $41 $-1 #
coedge $-1 $173 $174 $67 $107 reversed $175 $-1 #
edge $-1 $176 -30.669580276071457 $177 30.669580276071457 $106 $178 forward 7 unknown #
face $-1 $179 $180 $25 $-1 $181 reversed single #
loop $-1 $-1 $182 $68 #
plane-surface $-1 0 0 -8.7986792329838597 0 0 1 1 0 0 forward_v I I I I #
coedge $-1 $183 $184 $185 $186 reversed $69 $-1 #
coedge $-1 $187 $71 $184 $188 forward $44 $-1 #
coedge $-1 $71 $187 $189 $190 reversed $44 $-1 #
coedge $-1 $191 $185 $71 $115 forward $180 $-1 #
edge $-1 $192 10.198679621367859 $193 17.046826976925018 $114 $194 forward 7 unknown #
face $-1 $195 $196 $26 $-1 $197 forward single #
loop $-1 $-1 $198 $72 #
plane-surface $-1 -164.00625818440687 -0.5678416432664104 80.727501053364833 0 -1 0 0.78801076186113728 0 -0.61566146476048833 forward_v I I I I #
coedge $-1 $199 $200 $201 $202 reversed $73 $-1 #
coedge $-1 $121 $75 $203 $204 reversed $47 $-1 #
coedge $-1 $75 $120 $199 $205 reversed $47 $-1 #
coedge $-1 $201 $206 $75 $123 forward $196 $-1 #
edge $-1 $207 18.336635363757139 $208 23.387796610782765 $122 $209 forward 7 unknown #
loop $-1 $-1 $129 $76 #
plane-surface $-1 -63.666493728446298 -7.2668555546125191 2.333487483325456 -0.78801076186113728 0 0.61566146476048833 0.61566146476048833 0 0.78801076186113728 forward_v I I I I #
loop $-1 $-1 $210 $49 #
coedge $-1 $127 $127 $128 $211 reversed $77 $-1 #
coedge $-1 $128 $128 $127 $211 forward $79 $-1 #
coedge $-1 $129 $129 $80 $130 forward $124 $-1 #
edge $-1 $212 0 $212 6.2831853071796004 $129 $213 forward 7 unknown #
loop $-1 $-1 $136 $81 #
plane-surface $-1 -63.666493728446298 -7.2668555546125191 2.333487483325456 -0.78801076186113728 0 0.61566146476048833 0.61566146476048833 0 0.78801076186113728 forward_v I I I I #
loop $-1 $-1 $214 $52 #
coedge $-1 $134 $134 $135 $215 reversed $82 $-1 #
coedge $-1 $135 $135 $134 $215 forward $84 $-1 #
coedge $-1 $136 $136 $85 $137 forward $131 $-1 #
edge $-1 $216 0 $216 6.2831853071796004 $136 $217 forward 7 unknown #
face $-1 $218 $219 $29 $-1 $220 forward single #
loop $-1 $-1 $221 $86 #
plane-surface $-1 -164.00625818440687 26.677664955026465 80.727501053364833 0 -1 0 0.78801076186113728 0 -0.61566146476048833 forward_v I I I I #
coedge $-1 $222 $223 $224 $225 reversed $87 $-1 #
coedge $-1 $143 $89 $226 $227 reversed $56 $-1 #
coedge $-1 $89 $142 $222 $228 reversed $56 $-1 #
coedge $-1 $224 $229 $89 $145 forward $219 $-1 #
edge $-1 $230 18.336635363757139 $231 23.387796610782765 $144 $232 forward 7 unknown #
loop $-1 $-1 $151 $90 #
plane-surface $-1 -63.666493728446298 19.978651043680358 2.333487483325456 -0.78801076186113728 0 0.61566146476048833 0.61566146476048833 0 0.78801076186113728 forward_v I I I I #
loop $-1 $-1 $233 $58 #
coedge $-1 $149 $149 $150 $234 reversed $91 $-1 #
coedge $-1 $150 $150 $149 $234 forward $93 $-1 #
coedge $-1 $151 $151 $94 $152 forward $146 $-1 #
edge $-1 $235 0 $235 6.2831853071796004 $151 $236 forward 7 unknown #
loop $-1 $-1 $158 $95 #
plane-surface $-1 -63.666493728446298 19.978651043680358 2.333487483325456 -0.78801076186113728 0 0.61566146476048833 0.61566146476048833 0 0.78801076186113728 forward_v I I I I #
loop $-1 $-1 $237 $61 #
coedge $-1 $156 $156 $157 $238 reversed $96 $-1 #
coedge $-1 $157 $157 $156 $238 forward $98 $-1 #
coedge $-1 $158 $158 $99 $159 forward $153 $-1 #
edge $-1 $239 0 $239 6.2831853071796004 $158 $240 forward 7 unknown #
face $-1 $241 $242 $24 $-1 $243 reversed single #
loop $-1 $-1 $244 $100 #
plane-surface $-1 -63.666493728446298 0 0 1 0 0 0 0 -1 forward_v I I I I #
coedge $-1 $245 $171 $246 $247 forward $101 $-1 #
coedge $-1 $248 $103 $245 $249 forward $65 $-1 #
coedge $-1 $103 $248 $250 $251 forward $65 $-1 #
coedge $-1 $174 $173 $103 $167 reversed $175 $-1 #
edge $-1 $252 -30.669580276071457 $253 30.669580276071457 $166 $254 forward 7 unknown #
coedge $-1 $105 $104 $255 $256 forward $41 $-1 #
coedge $-1 $257 $258 $104 $170 reversed $242 $-1 #
edge $-1 $177 -63.666493728446298 $259 63.666493728446298 $169 $260 forward 7 unknown #
coedge $-1 $163 $261 $105 $172 reversed $101 $-1 #
edge $-1 $262 -63.666493728446298 $176 63.666493728446298 $171 $263 forward 7 unknown #
coedge $-1 $166 $106 $261 $264 forward $175 $-1 #
coedge $-1 $106 $166 $257 $265 reversed $175 $-1 #
loop $-1 $-1 $173 $241 #
vertex $-1 $107 $266 #
vertex $-1 $107 $267 #
straight-curve $-1 63.666493728446298 0 8.7986792329838597 0 1 0 I I #
face $-1 $268 $269 $25 $-1 $270 reversed single #
loop $-1 $-1 $185 $108 #
plane-surface $-1 63.666493728446298 0 0 -1 0 0 0 0 1 forward_v I I I I #
coedge $-1 $271 $272 $183 $273 forward $109 $-1 #
coedge $-1 $274 $111 $182 $273 reversed $69 $-1 #
coedge $-1 $111 $274 $112 $188 reversed $69 $-1 #
coedge $-1 $114 $275 $111 $186 forward $180 $-1 #
edge $-1 $276 -5.1493396164919298 $192 -2.1493396164919298 $185 $277 forward 7 unknown #
coedge $-1 $113 $112 $278 $279 reversed $44 $-1 #
edge $-1 $192 -63.666493728446298 $280 63.666493728446298 $184 $281 forward 7 unknown #
coedge $-1 $282 $283 $113 $190 forward $269 $-1 #
edge $-1 $193 -63.666493728446298 $284 63.666493728446298 $189 $285 forward 7 unknown #
coedge $-1 $275 $114 $283 $286 forward $180 $-1 #
vertex $-1 $115 $287 #
vertex $-1 $286 $288 #
straight-curve $-1 63.666493728446298 -13.622753299146439 -5.7986792329838597 0 -1 0 I I #
face $-1 $-1 $289 $26 $-1 $290 reversed single #
loop $-1 $-1 $122 $116 #
plane-surface $-1 0 0 8.7986792329838597 0 0 1 1 0 0 forward_v I I I I #
coedge $-1 $291 $292 $293 $294 reversed $117 $-1 #
coedge $-1 $295 $119 $121 $205 forward $73 $-1 #
coedge $-1 $119 $295 $291 $296 forward $73 $-1 #
coedge $-1 $293 $122 $119 $202 forward $196 $-1 #
edge $-1 $208 -10.332441688652368 $297 3.0655861340398491 $201 $298 forward 7 unknown #
coedge $-1 $299 $300 $120 $204 forward $289 $-1 #
edge $-1 $301 -38.03026304335696 $207 -31.565071293698558 $203 $302 forward 7 unknown #
edge $-1 $208 -8.2044460083118711 $301 0 $121 $303 forward 7 unknown #
coedge $-1 $122 $293 $299 $304 forward $196 $-1 #
vertex $-1 $204 $305 #
vertex $-1 $123 $306 #
straight-curve $-1 -82.003129092203437 -13.965869465958628 8.7986792329838579 1 0 0 I I #
coedge $-1 $210 $210 $-1 $307 reversed $126 $-1 #
edge $-1 $308 0 $308 6.2831853071796004 $127 $309 forward 7 unknown #
vertex $-1 $130 $310 #
ellipse-curve $-1 -61.140913104933489 -10.137861516617996 5.566083358154656 -0.78801076186113728 0 0.61566146476048833 0.9234921971407325 0 1.182016142791706 1 I I #
coedge $-1 $214 $214 $-1 $311 reversed $133 $-1 #
edge $-1 $312 0 $312 6.2831853071796004 $134 $313 forward 7 unknown #
vertex $-1 $137 $314 #
ellipse-curve $-1 -61.140913104933489 -4.3958495926070462 5.566083358154656 -0.78801076186113728 0 0.61566146476048833 0.9234921971407325 0 1.182016142791706 1 I I #
face $-1 $-1 $315 $29 $-1 $316 reversed single #
loop $-1 $-1 $144 $138 #
plane-surface $-1 0 0 8.7986792329838597 0 0 1 1 0 0 forward_v I I I I #
coedge $-1 $317 $318 $319 $320 reversed $139 $-1 #
coedge $-1 $321 $141 $143 $228 forward $87 $-1 #
coedge $-1 $141 $321 $317 $322 forward $87 $-1 #
coedge $-1 $319 $144 $141 $225 forward $219 $-1 #
edge $-1 $231 3.2903116104940704 $323 16.688339433186286 $224 $324 forward 7 unknown #
coedge $-1 $325 $326 $142 $227 forward $315 $-1 #
edge $-1 $327 -38.03026304335696 $230 -31.565071293698558 $226 $328 forward 7 unknown #
edge $-1 $231 -8.2044460083118711 $327 0 $143 $329 forward 7 unknown #
coedge $-1 $144 $319 $325 $330 forward $219 $-1 #
vertex $-1 $145 $331 #
vertex $-1 $145 $332 #
straight-curve $-1 -82.003129092203437 13.279637132334249 8.7986792329838579 1 0 0 I I #
coedge $-1 $233 $233 $-1 $333 reversed $148 $-1 #
edge $-1 $334 0 $334 6.2831853071796004 $149 $335 forward 7 unknown #
vertex $-1 $152 $336 #
ellipse-curve $-1 -61.140913104933489 17.107645081674882 5.566083358154656 -0.78801076186113728 0 0.61566146476048833 0.9234921971407325 0 1.182016142791706 1 I I #
coedge $-1 $237 $237 $-1 $337 reversed $155 $-1 #
edge $-1 $338 0 $338 6.2831853071796004 $156 $339 forward 7 unknown #
vertex $-1 $159 $340 #
ellipse-curve $-1 -61.140913104933489 22.849657005685827 5.566083358154656 -0.78801076186113728 0 0.61566146476048833 0.9234921971407325 0 1.182016142791706 1 I I #
face $-1 $-1 $175 $24 $-1 $341 reversed single #
loop $-1 $-1 $257 $160 #
plane-surface $-1 0 30.669580276071457 0 0 -1 0 0 0 -1 forward_v I I I I #
coedge $-1 $342 $255 $258 $343 forward $161 $-1 #
coedge $-1 $261 $163 $164 $249 reversed $101 $-1 #
coedge $-1 $255 $342 $163 $247 reversed $161 $-1 #
edge $-1 $262 -8.7986792329838597 $344 8.7986792329838597 $246 $345 forward 7 unknown #
coedge $-1 $165 $164 $342 $346 forward $65 $-1 #
edge $-1 $253 -63.666493728446298 $344 63.666493728446298 $245 $347 forward 7 unknown #
coedge $-1 $258 $257 $165 $251 reversed $242 $-1 #
edge $-1 $348 -63.666493728446298 $252 63.666493728446298 $250 $349 forward 7 unknown #
vertex $-1 $167 $350 #
vertex $-1 $264 $351 #
straight-curve $-1 63.666493728446298 0 -8.7986792329838597 0 -1 0 I I #
coedge $-1 $244 $246 $168 $256 reversed $161 $-1 #
edge $-1 $259 -30.669580276071457 $262 30.669580276071457 $255 $352 forward 7 unknown #
coedge $-1 $250 $169 $174 $265 forward $242 $-1 #
coedge $-1 $169 $250 $244 $343 reversed $242 $-1 #
vertex $-1 $170 $353 #
straight-curve $-1 0 30.669580276071457 8.7986792329838597 -1 0 0 I I #
coedge $-1 $171 $245 $173 $264 reversed $101 $-1 #
vertex $-1 $256 $354 #
straight-curve $-1 0 -30.669580276071457 8.7986792329838597 1 0 0 I I #
edge $-1 $176 -8.7986792329838597 $253 8.7986792329838597 $173 $355 forward 7 unknown #
edge $-1 $177 -8.7986792329838597 $252 8.7986792329838597 $174 $356 forward 7 unknown #
point $-1 63.666493728446298 -30.669580276071457 8.7986792329838597 #
point $-1 63.666493728446298 30.669580276071457 8.7986792329838597 #
face $-1 $-1 $357 $25 $-1 $358 reversed single #
loop $-1 $-1 $189 $179 #
plane-surface $-1 0 -30.669580276071457 0 0 1 0 0 0 1 forward_v I I I I #
coedge $-1 $359 $182 $275 $360 forward $109 $-1 #
coedge $-1 $182 $359 $361 $362 forward $109 $-1 #
edge $-1 $363 -63.666493728446298 $276 63.666493728446298 $182 $364 forward 7 unknown #
coedge $-1 $184 $183 $365 $366 reversed $69 $-1 #
coedge $-1 $185 $191 $271 $360 reversed $180 $-1 #
vertex $-1 $360 $367 #
straight-curve $-1 63.666493728446298 -23.821432920514297 -3.6493396164919298 0 0 1 I I #
coedge $-1 $365 $368 $187 $279 forward $357 $-1 #
edge $-1 $284 -17.046826976925018 $280 -10.198679621367859 $278 $369 forward 7 unknown #
vertex $-1 $279 $370 #
straight-curve $-1 0 -23.821432920514297 -5.7986792329838597 -1 0 0 I I #
coedge $-1 $371 $189 $368 $372 forward $269 $-1 #
coedge $-1 $189 $371 $191 $286 reversed $269 $-1 #
vertex $-1 $372 $373 #
straight-curve $-1 0 -30.669580276071457 -5.7986792329838597 -1 0 0 I I #
edge $-1 $193 5.7986792329838597 $374 8.7986792329838597 $191 $375 forward 7 unknown #
point $-1 63.666493728446298 -23.821432920514297 -5.7986792329838597 #
point $-1 63.666493728446298 -30.669580276071457 -5.7986792329838597 #
loop $-1 $-1 $203 $195 #
plane-surface $-1 -63.666493728446298 0 0 1 0 0 0 0 -1 forward_v I I I I #
coedge $-1 $292 $198 $200 $296 reversed $117 $-1 #
coedge $-1 $198 $291 $376 $377 reversed $117 $-1 #
coedge $-1 $206 $201 $198 $294 forward $196 $-1 #
edge $-1 $297 -23.387796610782765 $378 -18.336635363757139 $293 $379 forward 7 unknown #
coedge $-1 $200 $199 $300 $380 reversed $73 $-1 #
edge $-1 $381 0 $297 8.2044460083118711 $291 $382 forward 7 unknown #
vertex $-1 $202 $383 #
straight-curve $-1 -58.61533248142068 -3.6334277773062595 8.7986792329838597 0 1 0 I I #
coedge $-1 $376 $203 $206 $304 reversed $289 $-1 #
coedge $-1 $203 $376 $295 $380 forward $289 $-1 #
vertex $-1 $204 $384 #
straight-curve $-1 -63.666493728446298 -13.965869465958628 40.363750526682416 0 0 1 I I #
straight-curve $-1 -63.666493728446298 -13.965869465958628 2.333487483325456 -0.61566146476048833 0 -0.78801076186113728 I I #
edge $-1 $378 0.5678416432664104 $207 13.965869465958628 $299 $385 forward 7 unknown #
point $-1 -63.666493728446298 -13.965869465958628 8.7986792329838597 #
point $-1 -58.615332481420673 -13.965869465958628 8.7986792329838615 #
edge $-1 $386 1 $386 0 $210 $-1 forward 7 unknown #
vertex $-1 $211 $387 #
ellipse-curve $-1 -58.349772108431964 -10.137861516617996 3.3854050762989183 -0.78801076186113728 0 0.61566146476048833 0.9234921971407325 0 1.182016142791706 1 I I #
point $-1 -60.217420907792757 -10.137861516617996 6.7480995009463651 #
edge $-1 $388 1 $388 0 $214 $-1 forward 7 unknown #
vertex $-1 $215 $389 #
ellipse-curve $-1 -58.349772108431964 -4.3958495926070462 3.3854050762989183 -0.78801076186113728 0 0.61566146476048833 0.9234921971407325 0 1.182016142791706 1 I I #
point $-1 -60.217420907792757 -4.3958495926070462 6.7480995009463651 #
loop $-1 $-1 $226 $218 #
plane-surface $-1 -63.666493728446298 0 0 1 0 0 0 0 -1 forward_v I I I I #
coedge $-1 $318 $221 $223 $322 reversed $139 $-1 #
coedge $-1 $221 $317 $390 $391 reversed $139 $-1 #
coedge $-1 $229 $224 $221 $320 forward $219 $-1 #
edge $-1 $323 -23.387796610782765 $392 -18.336635363757139 $319 $393 forward 7 unknown #
coedge $-1 $223 $222 $326 $394 reversed $87 $-1 #
edge $-1 $395 0 $323 8.2044460083118711 $317 $396 forward 7 unknown #
vertex $-1 $225 $397 #
straight-curve $-1 -58.61533248142068 9.9893255218401791 8.7986792329838597 0 1 0 I I #
coedge $-1 $390 $226 $229 $330 reversed $315 $-1 #
coedge $-1 $226 $390 $321 $394 forward $315 $-1 #
vertex $-1 $227 $398 #
straight-curve $-1 -63.666493728446298 13.279637132334249 40.363750526682416 0 0 1 I I #
straight-curve $-1 -63.666493728446298 13.279637132334249 2.333487483325456 -0.61566146476048833 0 -0.78801076186113728 I I #
edge $-1 $392 -26.677664955026465 $230 -13.279637132334249 $325 $399 forward 7 unknown #
point $-1 -63.666493728446298 13.279637132334249 8.7986792329838597 #
point $-1 -58.615332481420673 13.279637132334249 8.7986792329838615 #
edge $-1 $400 1 $400 0 $233 $-1 forward 7 unknown #
vertex $-1 $234 $401 #
ellipse-curve $-1 -58.349772108431964 17.107645081674882 3.3854050762989183 -0.78801076186113728 0 0.61566146476048833 0.9234921971407325 0 1.182016142791706 1 I I #
point $-1 -60.217420907792757 17.107645081674882 6.7480995009463651 #
edge $-1 $402 1 $402 0 $237 $-1 forward 7 unknown #
vertex $-1 $238 $403 #
ellipse-curve $-1 -58.349772108431964 22.849657005685827 3.3854050762989183 -0.78801076186113728 0 0.61566146476048833 0.9234921971407325 0 1.182016142791706 1 I I #
point $-1 -60.217420907792757 22.849657005685827 6.7480995009463651 #
plane-surface $-1 63.666493728446298 0 0 -1 0 0 0 0 1 forward_v I I I I #
coedge $-1 $246 $244 $248 $346 reversed $161 $-1 #
edge $-1 $259 -8.7986792329838597 $348 8.7986792329838597 $258 $404 forward 7 unknown #
vertex $-1 $346 $405 #
straight-curve $-1 -63.666493728446298 -30.669580276071457 0 0 0 -1 I I #
edge $-1 $344 -30.669580276071457 $348 30.669580276071457 $342 $406 forward 7 unknown #
straight-curve $-1 0 -30.669580276071457 -8.7986792329838597 -1 0 0 I I #
vertex $-1 $251 $407 #
straight-curve $-1 0 30.669580276071457 -8.7986792329838597 1 0 0 I I #
point $-1 63.666493728446298 30.669580276071457 -8.7986792329838597 #
point $-1 63.666493728446298 -30.669580276071457 -8.7986792329838597 #
straight-curve $-1 -63.666493728446298 0 8.7986792329838597 0 -1 0 I I #
point $-1 -63.666493728446298 30.669580276071457 8.7986792329838597 #
point $-1 -63.666493728446298 -30.669580276071457 8.7986792329838597 #
straight-curve $-1 63.666493728446298 -30.669580276071457 0 0 0 -1 I I #
straight-curve $-1 63.666493728446298 30.669580276071457 0 0 0 -1 I I #
loop $-1 $-1 $365 $268 #
plane-surface $-1 -63.666493728446298 0 0 1 0 0 0 0 -1 forward_v I I I I #
coedge $-1 $272 $271 $371 $408 forward $109 $-1 #
edge $-1 $276 23.821432920514297 $374 30.669580276071457 $275 $409 forward 7 unknown #
coedge $-1 $368 $365 $272 $362 reversed $357 $-1 #
edge $-1 $410 -30.669580276071457 $363 -23.821432920514297 $361 $411 forward 7 unknown #
vertex $-1 $366 $412 #
straight-curve $-1 0 -23.821432920514297 -8.7986792329838597 1 0 0 I I #
coedge $-1 $361 $278 $274 $366 forward $357 $-1 #
edge $-1 $280 2.1493396164919298 $363 5.1493396164919298 $365 $413 forward 7 unknown #
point $-1 63.666493728446298 -23.821432920514297 -8.7986792329838597 #
coedge $-1 $278 $361 $282 $372 reversed $357 $-1 #
straight-curve $-1 -63.666493728446298 -13.622753299146439 -5.7986792329838597 0 1 0 I I #
point $-1 -63.666493728446298 -23.821432920514297 -5.7986792329838597 #
coedge $-1 $283 $282 $359 $408 reversed $269 $-1 #
edge $-1 $284 5.7986792329838597 $410 8.7986792329838597 $368 $414 forward 7 unknown #
point $-1 -63.666493728446298 -30.669580276071457 -5.7986792329838597 #
vertex $-1 $286 $415 #
straight-curve $-1 63.666493728446298 -30.669580276071457 0 0 0 -1 I I #
coedge $-1 $300 $299 $292 $377 forward $289 $-1 #
edge $-1 $378 31.565071293698558 $381 38.03026304335696 $376 $416 forward 7 unknown #
vertex $-1 $304 $417 #
straight-curve $-1 -82.003129092203437 -0.5678416432664104 8.7986792329838579 -1 0 0 I I #
edge $-1 $381 -3.0655861340398491 $301 10.332441688652368 $300 $418 forward 7 unknown #
vertex $-1 $380 $419 #
straight-curve $-1 -63.666493728446298 -0.5678416432664104 2.333487483325456 0.61566146476048833 0 0.78801076186113728 I I #
point $-1 -58.615332481420673 -0.5678416432664104 8.7986792329838615 #
point $-1 -63.666493728446298 -13.965869465958628 2.333487483325456 #
straight-curve $-1 -63.666493728446298 0 8.7986792329838597 0 -1 0 I I #
vertex $-1 $307 $420 #
point $-1 -57.426279911291232 -10.137861516617996 4.5674212190906243 #
vertex $-1 $311 $421 #
point $-1 -57.426279911291232 -4.3958495926070462 4.5674212190906243 #
coedge $-1 $326 $325 $318 $391 forward $315 $-1 #
edge $-1 $392 31.565071293698558 $395 38.03026304335696 $390 $422 forward 7 unknown #
vertex $-1 $330 $423 #
straight-curve $-1 -82.003129092203437 26.677664955026465 8.7986792329838579 -1 0 0 I I #
edge $-1 $395 -16.688339433186286 $327 -3.2903116104940704 $326 $424 forward 7 unknown #
vertex $-1 $394 $425 #
straight-curve $-1 -63.666493728446298 26.677664955026465 2.333487483325456 0.61566146476048833 0 0.78801076186113728 I I #
point $-1 -58.615332481420673 26.677664955026465 8.7986792329838615 #
point $-1 -63.666493728446298 13.279637132334249 2.333487483325456 #
straight-curve $-1 -63.666493728446298 0 8.7986792329838597 0 -1 0 I I #
vertex $-1 $333 $426 #
point $-1 -57.426279911291232 17.107645081674882 4.5674212190906243 #
vertex $-1 $337 $427 #
point $-1 -57.426279911291232 22.849657005685827 4.5674212190906243 #
straight-curve $-1 -63.666493728446298 30.669580276071457 0 0 0 -1 I I #
point $-1 -63.666493728446298 -30.669580276071457 -8.7986792329838597 #
straight-curve $-1 -63.666493728446298 0 -8.7986792329838597 0 1 0 I I #
point $-1 -63.666493728446298 30.669580276071457 -8.7986792329838597 #
edge $-1 $374 -63.666493728446298 $410 63.666493728446298 $371 $428 forward 7 unknown #
straight-curve $-1 63.666493728446298 0 -8.7986792329838597 0 -1 0 I I #
vertex $-1 $362 $429 #
straight-curve $-1 -63.666493728446298 0 -8.7986792329838597 0 1 0 I I #
point $-1 -63.666493728446298 -23.821432920514297 -8.7986792329838597 #
straight-curve $-1 -63.666493728446298 -23.821432920514297 -3.6493396164919298 0 0 -1 I I #
straight-curve $-1 -63.666493728446298 -30.669580276071457 0 0 0 -1 I I #
point $-1 63.666493728446298 -30.669580276071457 -8.7986792329838597 #
straight-curve $-1 -63.666493728446298 -0.5678416432664104 40.363750526682416 0 0 -1 I I #
point $-1 -63.666493728446298 -0.5678416432664104 8.7986792329838597 #
straight-curve $-1 -63.666493728446298 -3.6334277773062595 2.3334874833254586 0 -1 0 I I #
point $-1 -63.666493728446298 -0.5678416432664104 2.333487483325456 #
point $-1 -57.167755965640254 -10.137861516617996 2.4619128791581857 #
point $-1 -57.167755965640254 -4.3958495926070462 2.4619128791581857 #
straight-curve $-1 -63.666493728446298 26.677664955026465 40.363750526682416 0 0 -1 I I #
point $-1 -63.666493728446298 26.677664955026465 8.7986792329838597 #
straight-curve $-1 -63.666493728446298 9.9893255218401791 2.3334874833254586 0 -1 0 I I #
point $-1 -63.666493728446298 26.677664955026465 2.333487483325456 #
point $-1 -57.167755965640254 17.107645081674882 2.4619128791581857 #
point $-1 -57.167755965640254 22.849657005685827 2.4619128791581857 #
straight-curve $-1 0 -30.669580276071457 -8.7986792329838597 -1 0 0 I I #
point $-1 -63.666493728446298 -30.669580276071457 -8.7986792329838597 #
End-of-ACIS-data 