500 0 8 0           
7 Unknown 11 ACIS 5.0 NT 24 Fri Mar 26 16:54:07 1999 
-1 9.9999999999999995e-007 1e-010 
body $-1 $8 $-1 $9 #
body $-1 $10 $-1 $11 #
body $-1 $12 $-1 $13 #
body $-1 $14 $-1 $15 #
body $-1 $16 $-1 $17 #
body $-1 $18 $-1 $19 #
body $-1 $20 $-1 $21 #
body $-1 $22 $-1 $23 #
lump $-1 $-1 $24 $0 #
transform $-1 1 0 0 0 1 0 0 0 1 59.910275582140571 36.735108002371092 13.877545530788616 1 rotate no_reflect no_shear #
lump $-1 $-1 $25 $1 #
transform $-1 1 0 0 0 1 0 0 0 1 59.910275582140571 36.735108002371092 13.877545530788616 1 rotate no_reflect no_shear #
lump $-1 $-1 $26 $2 #
transform $-1 1 0 0 0 1 0 0 0 1 59.910275582140571 36.735108002371092 13.877545530788616 1 rotate no_reflect no_shear #
lump $-1 $-1 $27 $3 #
transform $-1 1 0 0 0 1 0 0 0 1 59.910275582140571 36.735108002371092 13.877545530788616 1 rotate no_reflect no_shear #
lump $-1 $-1 $28 $4 #
transform $-1 1 0 0 0 1 0 0 0 1 59.910275582140571 36.735108002371092 13.877545530788616 1 rotate no_reflect no_shear #
lump $-1 $-1 $29 $5 #
transform $-1 1 0 0 0 1 0 0 0 1 59.910275582140571 36.735108002371092 13.877545530788616 1 rotate no_reflect no_shear #
lump $-1 $-1 $30 $6 #
transform $-1 1 0 0 0 1 0 0 0 1 59.910275582140571 36.735108002371092 13.877545530788616 1 rotate no_reflect no_shear #
lump $-1 $-1 $31 $7 #
transform $-1 1 0 0 0 1 0 0 0 1 59.910275582140571 36.735108002371092 13.877545530788616 1 rotate no_reflect no_shear #
shell $-1 $-1 $-1 $32 $-1 $8 #
shell $-1 $-1 $-1 $33 $-1 $10 #
shell $-1 $-1 $-1 $34 $-1 $12 #
shell $-1 $-1 $-1 $35 $-1 $14 #
shell $-1 $-1 $-1 $36 $-1 $16 #
shell $-1 $-1 $-1 $37 $-1 $18 #
shell $-1 $-1 $-1 $38 $-1 $20 #
shell $-1 $-1 $-1 $39 $-1 $22 #
face $-1 $40 $41 $24 $-1 $42 forward single #
face $-1 $43 $44 $25 $-1 $45 forward single #
face $-1 $46 $47 $26 $-1 $48 reversed single #
face $-1 $49 $50 $27 $-1 $51 forward single #
face $-1 $52 $53 $28 $-1 $54 forward single #
face $-1 $55 $56 $29 $-1 $57 reversed single #
face $-1 $58 $59 $30 $-1 $60 forward single #
face $-1 $61 $62 $31 $-1 $63 forward single #
face $-1 $64 $65 $24 $-1 $66 reversed single #
loop $-1 $-1 $67 $32 #
plane-surface $-1 0 0 13.877545530788616 0 0 1 1 0 0 forward_v I I I I #
face $-1 $68 $69 $25 $-1 $70 forward single #
loop $-1 $-1 $71 $33 #
plane-surface $-1 0 -36.735108002371092 0 0 1 0 0 0 1 forward_v I I I I #
face $-1 $72 $73 $26 $-1 $74 reversed single #
loop $-1 $-1 $75 $34 #
plane-surface $-1 -13.824505896301858 62.311696703179223 143.25108293181006 1 0 0 0 -0.66913061440640931 -0.74314481823134659 forward_v I I I I #
face $-1 $76 $77 $27 $-1 $78 forward single #
loop $-1 $79 $80 $35 #
cone-surface $-1 -9.8746470687870413 31.014898532656701 8.5555290041937653 0 -0.66913061440640931 -0.74314481823134659 1 0 0 1 I I 0 1 1 forward I I I I #
face $-1 $81 $82 $28 $-1 $83 forward single #
loop $-1 $84 $85 $36 #
cone-surface $-1 -3.9498588275148165 31.014898532656701 8.5555290041937653 0 -0.66913061440640931 -0.74314481823134659 1 0 0 1 I I 0 1 1 forward I I I I #
face $-1 $86 $87 $29 $-1 $88 reversed single #
loop $-1 $-1 $89 $37 #
plane-surface $-1 46.085769685838706 62.311696703179223 143.25108293181006 1 0 0 0 -0.66913061440640931 -0.74314481823134659 forward_v I I I I #
face $-1 $90 $91 $30 $-1 $92 forward single #
loop $-1 $93 $94 $38 #
cone-surface $-1 50.035628513353515 31.014898532656701 8.5555290041937653 0 -0.66913061440640931 -0.74314481823134659 1 0 0 1 I I 0 1 1 forward I I I I #
face $-1 $95 $96 $31 $-1 $97 forward single #
loop $-1 $98 $99 $39 #
cone-surface $-1 55.960416754625754 31.014898532656701 8.5555290041937653 0 -0.66913061440640931 -0.74314481823134659 1 0 0 1 I I 0 1 1 forward I I I I #
face $-1 $100 $101 $24 $-1 $102 reversed single #
loop $-1 $-1 $103 $40 #
plane-surface $-1 0 0 -13.877545530788616 0 0 1 1 0 0 forward_v I I I I #
coedge $-1 $104 $105 $106 $107 forward $41 $-1 #
face $-1 $108 $109 $25 $-1 $110 reversed single #
loop $-1 $-1 $111 $43 #
plane-surface $-1 0 0 13.877545530788616 0 0 1 1 0 0 forward_v I I I I #
coedge $-1 $112 $113 $114 $115 forward $44 $-1 #
face $-1 $116 $117 $26 $-1 $118 reversed single #
loop $-1 $-1 $119 $46 #
plane-surface $-1 -6.9122529481509289 -17.863902315890826 54.207061216450583 0 0.66913061440640931 0.74314481823134659 1 0 0 forward_v I I I I #
coedge $-1 $120 $121 $122 $123 reversed $47 $-1 #
face $-1 $-1 $124 $27 $-1 $125 forward single #
loop $-1 $126 $127 $49 #
cone-surface $-1 -9.8746470687870413 29.864396983831668 7.2777676135646274 0 -0.66913061440640931 -0.74314481823134659 0.5 0 0 1 I I -0.70710678118654691 0.70710678118654813 0.5 forward I I I I #
loop $-1 $-1 $128 $35 #
coedge $-1 $80 $80 $129 $130 reversed $50 $-1 #
face $-1 $-1 $131 $28 $-1 $132 forward single #
loop $-1 $133 $134 $52 #
cone-surface $-1 -3.9498588275148165 29.864396983831668 7.2777676135646274 0 -0.66913061440640931 -0.74314481823134659 0.5 0 0 1 I I -0.70710678118654691 0.70710678118654813 0.5 forward I I I I #
loop $-1 $-1 $135 $36 #
coedge $-1 $85 $85 $136 $137 reversed $53 $-1 #
face $-1 $138 $139 $29 $-1 $140 forward single #
loop $-1 $-1 $141 $55 #
plane-surface $-1 52.998022633989635 -17.863902315890826 54.207061216450583 0 0.66913061440640931 0.74314481823134659 1 0 0 forward_v I I I I #
coedge $-1 $142 $143 $144 $145 reversed $56 $-1 #
face $-1 $-1 $146 $30 $-1 $147 forward single #
loop $-1 $148 $149 $58 #
cone-surface $-1 50.035628513353515 29.864396983831668 7.2777676135646274 0 -0.66913061440640931 -0.74314481823134659 0.5 0 0 1 I I -0.70710678118654691 0.70710678118654813 0.5 forward I I I I #
loop $-1 $-1 $150 $38 #
coedge $-1 $94 $94 $151 $152 reversed $59 $-1 #
face $-1 $-1 $153 $31 $-1 $154 forward single #
loop $-1 $155 $156 $61 #
cone-surface $-1 55.960416754625754 29.864396983831668 7.2777676135646274 0 -0.66913061440640931 -0.74314481823134659 0.5 0 0 1 I I -0.70710678118654691 0.70710678118654813 0.5 forward I I I I #
loop $-1 $-1 $157 $39 #
coedge $-1 $99 $99 $158 $159 reversed $62 $-1 #
face $-1 $160 $161 $24 $-1 $162 reversed single #
loop $-1 $-1 $163 $64 #
plane-surface $-1 0 -36.735108002371092 0 0 1 0 0 0 1 forward_v I I I I #
coedge $-1 $164 $165 $166 $167 forward $65 $-1 #
coedge $-1 $168 $67 $169 $170 forward $41 $-1 #
coedge $-1 $67 $168 $171 $172 forward $41 $-1 #
coedge $-1 $173 $174 $67 $107 reversed $175 $-1 #
edge $-1 $176 -36.735108002371092 $177 36.735108002371092 $106 $178 forward 7 unknown #
face $-1 $179 $180 $25 $-1 $181 reversed single #
loop $-1 $-1 $182 $68 #
plane-surface $-1 -59.910275582140571 0 0 1 0 0 0 0 -1 forward_v I I I I #
coedge $-1 $183 $184 $185 $186 forward $69 $-1 #
coedge $-1 $185 $71 $182 $187 reversed $44 $-1 #
coedge $-1 $71 $185 $188 $189 reversed $44 $-1 #
coedge $-1 $190 $191 $71 $115 reversed $180 $-1 #
edge $-1 $192 -59.910275582140571 $193 59.910275582140571 $114 $194 forward 7 unknown #
face $-1 $195 $196 $26 $-1 $197 reversed single #
loop $-1 $-1 $198 $72 #
plane-surface $-1 0 62.311696703179223 143.25108293181006 -1 0 0 0 0.66913061440640931 0.74314481823134659 forward_v I I I I #
coedge $-1 $199 $200 $201 $202 reversed $73 $-1 #
coedge $-1 $121 $75 $203 $204 reversed $47 $-1 #
coedge $-1 $75 $120 $199 $205 reversed $47 $-1 #
coedge $-1 $201 $206 $75 $123 forward $207 $-1 #
edge $-1 $208 -5.5792596507814807 $209 4.2292868054036674 $122 $210 forward 7 unknown #
loop $-1 $-1 $129 $76 #
plane-surface $-1 -6.9122529481509289 -17.863902315890826 54.207061216450583 0 0.66913061440640931 0.74314481823134659 1 0 0 forward_v I I I I #
loop $-1 $-1 $211 $49 #
coedge $-1 $127 $127 $128 $212 reversed $77 $-1 #
coedge $-1 $128 $128 $127 $212 forward $79 $-1 #
coedge $-1 $129 $129 $80 $130 forward $124 $-1 #
edge $-1 $213 -1.3680964593538434e-016 $213 6.2831853071796004 $129 $214 forward 7 unknown #
loop $-1 $-1 $136 $81 #
plane-surface $-1 -6.9122529481509289 -17.863902315890826 54.207061216450583 0 0.66913061440640931 0.74314481823134659 1 0 0 forward_v I I I I #
loop $-1 $-1 $215 $52 #
coedge $-1 $134 $134 $135 $216 reversed $82 $-1 #
coedge $-1 $135 $135 $134 $216 forward $84 $-1 #
coedge $-1 $136 $136 $85 $137 forward $131 $-1 #
edge $-1 $217 -1.3680964593538434e-016 $217 6.2831853071796004 $136 $218 forward 7 unknown #
face $-1 $219 $220 $29 $-1 $221 reversed single #
loop $-1 $-1 $144 $86 #
plane-surface $-1 0 0 13.877545530788616 0 0 1 1 0 0 forward_v I I I I #
coedge $-1 $222 $223 $224 $225 reversed $87 $-1 #
coedge $-1 $143 $89 $226 $227 reversed $56 $-1 #
coedge $-1 $89 $142 $222 $228 reversed $56 $-1 #
coedge $-1 $224 $229 $89 $145 forward $139 $-1 #
edge $-1 $230 -5.5792596507814807 $231 4.2292868054036674 $144 $232 forward 7 unknown #
loop $-1 $-1 $151 $90 #
plane-surface $-1 52.998022633989635 -17.863902315890826 54.207061216450583 0 0.66913061440640931 0.74314481823134659 1 0 0 forward_v I I I I #
loop $-1 $-1 $233 $58 #
coedge $-1 $149 $149 $150 $234 reversed $91 $-1 #
coedge $-1 $150 $150 $149 $234 forward $93 $-1 #
coedge $-1 $151 $151 $94 $152 forward $146 $-1 #
edge $-1 $235 -1.3680964593538434e-016 $235 6.2831853071796004 $151 $236 forward 7 unknown #
loop $-1 $-1 $158 $95 #
plane-surface $-1 52.998022633989635 -17.863902315890826 54.207061216450583 0 0.66913061440640931 0.74314481823134659 1 0 0 forward_v I I I I #
loop $-1 $-1 $237 $61 #
coedge $-1 $156 $156 $157 $238 reversed $96 $-1 #
coedge $-1 $157 $157 $156 $238 forward $98 $-1 #
coedge $-1 $158 $158 $99 $159 forward $153 $-1 #
edge $-1 $239 -1.3680964593538434e-016 $239 6.2831853071796004 $158 $240 forward 7 unknown #
face $-1 $241 $242 $24 $-1 $243 reversed single #
loop $-1 $-1 $244 $100 #
plane-surface $-1 -59.910275582140571 0 0 1 0 0 0 0 -1 forward_v I I I I #
coedge $-1 $245 $171 $246 $247 forward $101 $-1 #
coedge $-1 $248 $103 $245 $249 forward $65 $-1 #
coedge $-1 $103 $248 $250 $251 forward $65 $-1 #
coedge $-1 $174 $173 $103 $167 reversed $175 $-1 #
edge $-1 $252 -36.735108002371092 $253 36.735108002371092 $166 $254 forward 7 unknown #
coedge $-1 $105 $104 $255 $256 forward $41 $-1 #
coedge $-1 $257 $258 $104 $170 reversed $242 $-1 #
edge $-1 $177 -59.910275582140571 $259 59.910275582140571 $169 $260 forward 7 unknown #
coedge $-1 $163 $261 $105 $172 reversed $101 $-1 #
edge $-1 $262 -59.910275582140571 $176 59.910275582140571 $171 $263 forward 7 unknown #
coedge $-1 $166 $106 $261 $264 forward $175 $-1 #
coedge $-1 $106 $166 $257 $265 reversed $175 $-1 #
loop $-1 $-1 $173 $241 #
vertex $-1 $107 $266 #
vertex $-1 $107 $267 #
straight-curve $-1 59.910275582140571 0 13.877545530788616 0 1 0 I I #
face $-1 $268 $269 $25 $-1 $270 reversed single #
loop $-1 $-1 $190 $108 #
plane-surface $-1 0 -44.136637851073637 10.877545530788616 0 0 1 1 0 0 forward_v I I I I #
coedge $-1 $271 $272 $112 $187 forward $109 $-1 #
coedge $-1 $273 $111 $272 $274 forward $69 $-1 #
coedge $-1 $111 $273 $275 $276 forward $69 $-1 #
coedge $-1 $113 $112 $111 $186 reversed $44 $-1 #
edge $-1 $277 -59.910275582140571 $278 59.910275582140571 $111 $279 forward 7 unknown #
edge $-1 $278 -13.877545530788616 $193 -10.877545530788616 $182 $280 forward 7 unknown #
coedge $-1 $275 $281 $113 $189 forward $282 $-1 #
edge $-1 $192 10.877545530788616 $277 13.877545530788616 $188 $283 forward 7 unknown #
coedge $-1 $284 $114 $281 $285 forward $180 $-1 #
coedge $-1 $114 $284 $271 $286 forward $180 $-1 #
vertex $-1 $189 $287 #
vertex $-1 $187 $288 #
straight-curve $-1 0 -36.735108002371092 10.877545530788616 -1 0 0 I I #
face $-1 $-1 $207 $26 $-1 $289 forward single #
loop $-1 $-1 $290 $116 #
plane-surface $-1 0 36.735108002371092 0 0 -1 0 0 0 -1 forward_v I I I I #
coedge $-1 $291 $292 $293 $294 reversed $117 $-1 #
coedge $-1 $295 $119 $121 $205 forward $73 $-1 #
coedge $-1 $119 $295 $291 $296 forward $73 $-1 #
coedge $-1 $293 $122 $119 $202 forward $207 $-1 #
edge $-1 $209 -10.368379422226393 $297 3.4561264740754645 $201 $298 forward 7 unknown #
coedge $-1 $299 $300 $120 $204 forward $196 $-1 #
edge $-1 $301 -66.579651025279219 $208 -57.747995935116414 $203 $302 forward 7 unknown #
edge $-1 $209 60.271514734740656 $301 73.470216004742213 $121 $303 forward 7 unknown #
coedge $-1 $122 $293 $299 $304 forward $207 $-1 #
loop $-1 $-1 $293 $195 #
vertex $-1 $204 $305 #
vertex $-1 $123 $306 #
straight-curve $-1 -13.824505896301858 31.155848351589611 13.877545530788609 0 -1 0 I I #
coedge $-1 $211 $211 $-1 $307 reversed $126 $-1 #
edge $-1 $308 0 $308 6.2831853071796004 $127 $309 forward 7 unknown #
vertex $-1 $130 $310 #
ellipse-curve $-1 -9.8746470687870413 31.830834774278518 9.4617179857072138 0 0.66913061440640931 0.74314481823134659 1 0 0 1 I I #
coedge $-1 $215 $215 $-1 $311 reversed $133 $-1 #
edge $-1 $312 0 $312 6.2831853071796004 $134 $313 forward 7 unknown #
vertex $-1 $137 $314 #
ellipse-curve $-1 -3.9498588275148165 31.830834774278518 9.4617179857072138 0 0.66913061440640931 0.74314481823134659 1 0 0 1 I I #
face $-1 $-1 $315 $29 $-1 $316 reversed single #
loop $-1 $-1 $317 $138 #
plane-surface $-1 59.910275582140571 0 0 -1 0 0 0 0 1 forward_v I I I I #
coedge $-1 $318 $141 $143 $228 forward $87 $-1 #
coedge $-1 $141 $318 $317 $319 reversed $87 $-1 #
coedge $-1 $320 $144 $141 $225 forward $139 $-1 #
edge $-1 $231 19.586758368843888 $321 33.411264265145746 $224 $322 forward 7 unknown #
coedge $-1 $323 $324 $142 $227 forward $315 $-1 #
edge $-1 $325 -66.579651025279219 $230 -57.747995935116414 $226 $326 forward 7 unknown #
edge $-1 $231 60.271514734740656 $325 73.470216004742213 $143 $327 forward 7 unknown #
coedge $-1 $144 $320 $323 $328 forward $139 $-1 #
vertex $-1 $227 $329 #
vertex $-1 $145 $330 #
straight-curve $-1 46.085769685838706 31.155848351589611 13.877545530788609 0 -1 0 I I #
coedge $-1 $233 $233 $-1 $331 reversed $148 $-1 #
edge $-1 $332 0 $332 6.2831853071796004 $149 $333 forward 7 unknown #
vertex $-1 $152 $334 #
ellipse-curve $-1 50.035628513353515 31.830834774278518 9.4617179857072138 0 0.66913061440640931 0.74314481823134659 1 0 0 1 I I #
coedge $-1 $237 $237 $-1 $335 reversed $155 $-1 #
edge $-1 $336 0 $336 6.2831853071796004 $156 $337 forward 7 unknown #
vertex $-1 $159 $338 #
ellipse-curve $-1 55.960416754625754 31.830834774278518 9.4617179857072138 0 0.66913061440640931 0.74314481823134659 1 0 0 1 I I #
face $-1 $-1 $175 $24 $-1 $339 reversed single #
loop $-1 $-1 $257 $160 #
plane-surface $-1 0 36.735108002371092 0 0 -1 0 0 0 -1 forward_v I I I I #
coedge $-1 $340 $255 $258 $341 forward $161 $-1 #
coedge $-1 $261 $163 $164 $249 reversed $101 $-1 #
coedge $-1 $255 $340 $163 $247 reversed $161 $-1 #
edge $-1 $262 -13.877545530788616 $342 13.877545530788616 $246 $343 forward 7 unknown #
coedge $-1 $165 $164 $340 $344 forward $65 $-1 #
edge $-1 $253 -59.910275582140571 $342 59.910275582140571 $245 $345 forward 7 unknown #
coedge $-1 $258 $257 $165 $251 reversed $242 $-1 #
edge $-1 $346 -59.910275582140571 $252 59.910275582140571 $250 $347 forward 7 unknown #
vertex $-1 $167 $348 #
vertex $-1 $264 $349 #
straight-curve $-1 59.910275582140571 0 -13.877545530788616 0 -1 0 I I #
coedge $-1 $244 $246 $168 $256 reversed $161 $-1 #
edge $-1 $259 -36.735108002371092 $262 36.735108002371092 $255 $350 forward 7 unknown #
coedge $-1 $250 $169 $174 $265 forward $242 $-1 #
coedge $-1 $169 $250 $244 $341 reversed $242 $-1 #
vertex $-1 $170 $351 #
straight-curve $-1 0 36.735108002371092 13.877545530788616 -1 0 0 I I #
coedge $-1 $171 $245 $173 $264 reversed $101 $-1 #
vertex $-1 $256 $352 #
straight-curve $-1 0 -36.735108002371092 13.877545530788616 1 0 0 I I #
edge $-1 $176 -13.877545530788616 $253 13.877545530788616 $173 $353 forward 7 unknown #
edge $-1 $177 -13.877545530788616 $252 13.877545530788616 $174 $354 forward 7 unknown #
point $-1 59.910275582140571 -36.735108002371092 13.877545530788616 #
point $-1 59.910275582140571 36.735108002371092 13.877545530788616 #
face $-1 $-1 $282 $25 $-1 $355 reversed single #
loop $-1 $-1 $356 $179 #
plane-surface $-1 0 -51.538167699776182 12.377545530788616 0 1 0 0 0 1 forward_v I I I I #
coedge $-1 $357 $182 $191 $286 reversed $109 $-1 #
coedge $-1 $182 $357 $183 $274 reversed $109 $-1 #
coedge $-1 $184 $183 $358 $359 forward $69 $-1 #
edge $-1 $278 36.735108002371092 $360 51.538167699776182 $272 $361 forward 7 unknown #
coedge $-1 $362 $188 $184 $276 reversed $282 $-1 #
edge $-1 $363 -51.538167699776182 $277 -36.735108002371092 $275 $364 forward 7 unknown #
vertex $-1 $189 $365 #
vertex $-1 $274 $366 #
straight-curve $-1 0 -36.735108002371092 13.877545530788616 -1 0 0 I I #
straight-curve $-1 -59.910275582140571 -36.735108002371092 0 0 0 -1 I I #
coedge $-1 $188 $362 $190 $285 reversed $282 $-1 #
loop $-1 $-1 $188 $268 #
straight-curve $-1 59.910275582140571 -36.735108002371092 0 0 0 1 I I #
coedge $-1 $191 $190 $367 $368 forward $180 $-1 #
edge $-1 $192 -7.4015298487025447 $369 7.4015298487025447 $281 $370 forward 7 unknown #
edge $-1 $371 -7.4015298487025447 $193 7.4015298487025447 $271 $372 forward 7 unknown #
point $-1 59.910275582140571 -36.735108002371092 10.877545530788616 #
point $-1 -59.910275582140571 -36.735108002371092 10.877545530788616 #
plane-surface $-1 0 0 13.877545530788616 0 0 1 1 0 0 forward_v I I I I #
coedge $-1 $300 $299 $292 $373 forward $196 $-1 #
coedge $-1 $292 $198 $200 $296 reversed $117 $-1 #
coedge $-1 $198 $291 $290 $373 reversed $117 $-1 #
coedge $-1 $206 $201 $198 $294 forward $207 $-1 #
edge $-1 $297 -4.2292868054036674 $374 5.5792596507814807 $293 $375 forward 7 unknown #
coedge $-1 $200 $199 $300 $376 reversed $73 $-1 #
edge $-1 $377 -73.470216004742213 $297 -60.271514734740656 $291 $378 forward 7 unknown #
vertex $-1 $202 $379 #
straight-curve $-1 -3.4561264740754645 26.926561546185955 13.877545530788613 1 0 0 I I #
coedge $-1 $290 $203 $206 $304 reversed $196 $-1 #
coedge $-1 $203 $290 $295 $376 forward $196 $-1 #
vertex $-1 $204 $380 #
straight-curve $-1 -13.824505896301858 36.735108002371092 71.62554146590503 0 0 1 I I #
straight-curve $-1 -13.824505896301858 -17.863902315890826 54.207061216450583 0 0.74314481823134659 -0.66913061440640931 I I #
edge $-1 $374 0 $208 13.824505896301858 $299 $381 forward 7 unknown #
point $-1 -13.824505896301858 36.735108002371092 13.877545530788616 #
point $-1 -13.824505896301858 26.926561546185944 13.877545530788616 #
edge $-1 $382 1 $382 0 $211 $-1 forward 7 unknown #
vertex $-1 $212 $383 #
ellipse-curve $-1 -9.8746470687870413 30.198962291034874 7.6493400226803017 0 0.66913061440640931 0.74314481823134659 1 0 0 1 I I #
point $-1 -8.8746470687870413 31.830834774278532 9.4617179857072298 #
edge $-1 $384 1 $384 0 $215 $-1 forward 7 unknown #
vertex $-1 $216 $385 #
ellipse-curve $-1 -3.9498588275148165 30.198962291034874 7.6493400226803017 0 0.66913061440640931 0.74314481823134659 1 0 0 1 I I #
point $-1 -2.9498588275148165 31.830834774278532 9.4617179857072298 #
loop $-1 $-1 $226 $219 #
plane-surface $-1 0 36.735108002371092 0 0 -1 0 0 0 -1 forward_v I I I I #
coedge $-1 $386 $387 $223 $319 forward $220 $-1 #
coedge $-1 $223 $222 $324 $388 reversed $87 $-1 #
edge $-1 $321 35.497979426553336 $389 48.696680696554893 $317 $390 forward 7 unknown #
coedge $-1 $229 $224 $387 $391 forward $139 $-1 #
vertex $-1 $391 $392 #
straight-curve $-1 26.499011316994817 26.926561546185955 13.877545530788613 1 0 0 I I #
coedge $-1 $393 $226 $229 $328 reversed $315 $-1 #
coedge $-1 $226 $393 $318 $388 forward $315 $-1 #
vertex $-1 $227 $394 #
straight-curve $-1 46.085769685838706 36.735108002371092 71.62554146590503 0 0 1 I I #
straight-curve $-1 46.085769685838706 -17.863902315890826 54.207061216450583 0 0.74314481823134659 -0.66913061440640931 I I #
edge $-1 $395 -59.910275582140571 $230 -46.085769685838706 $323 $396 forward 7 unknown #
point $-1 46.085769685838706 36.735108002371092 13.877545530788616 #
point $-1 46.085769685838706 26.926561546185944 13.877545530788616 #
edge $-1 $397 1 $397 0 $233 $-1 forward 7 unknown #
vertex $-1 $234 $398 #
ellipse-curve $-1 50.035628513353515 30.198962291034874 7.6493400226803017 0 0.66913061440640931 0.74314481823134659 1 0 0 1 I I #
point $-1 51.035628513353515 31.830834774278532 9.4617179857072298 #
edge $-1 $399 1 $399 0 $237 $-1 forward 7 unknown #
vertex $-1 $238 $400 #
ellipse-curve $-1 55.960416754625754 30.198962291034874 7.6493400226803017 0 0.66913061440640931 0.74314481823134659 1 0 0 1 I I #
point $-1 56.960416754625754 31.830834774278532 9.4617179857072298 #
plane-surface $-1 59.910275582140571 0 0 -1 0 0 0 0 1 forward_v I I I I #
coedge $-1 $246 $244 $248 $344 reversed $161 $-1 #
edge $-1 $259 -13.877545530788616 $346 13.877545530788616 $258 $401 forward 7 unknown #
vertex $-1 $344 $402 #
straight-curve $-1 -59.910275582140571 -36.735108002371092 0 0 0 -1 I I #
edge $-1 $342 -36.735108002371092 $346 36.735108002371092 $340 $403 forward 7 unknown #
straight-curve $-1 0 -36.735108002371092 -13.877545530788616 -1 0 0 I I #
vertex $-1 $251 $404 #
straight-curve $-1 0 36.735108002371092 -13.877545530788616 1 0 0 I I #
point $-1 59.910275582140571 36.735108002371092 -13.877545530788616 #
point $-1 59.910275582140571 -36.735108002371092 -13.877545530788616 #
straight-curve $-1 -59.910275582140571 0 13.877545530788616 0 -1 0 I I #
point $-1 -59.910275582140571 36.735108002371092 13.877545530788616 #
point $-1 -59.910275582140571 -36.735108002371092 13.877545530788616 #
straight-curve $-1 59.910275582140571 -36.735108002371092 0 0 0 -1 I I #
straight-curve $-1 59.910275582140571 36.735108002371092 0 0 0 -1 I I #
plane-surface $-1 59.910275582140571 0 0 -1 0 0 0 0 1 forward_v I I I I #
coedge $-1 $367 $358 $357 $405 forward $269 $-1 #
coedge $-1 $272 $271 $356 $405 reversed $109 $-1 #
coedge $-1 $356 $406 $273 $359 reversed $269 $-1 #
edge $-1 $360 -59.910275582140571 $363 59.910275582140571 $358 $407 forward 7 unknown #
vertex $-1 $274 $408 #
straight-curve $-1 -59.910275582140571 0 13.877545530788616 0 -1 0 I I #
coedge $-1 $281 $275 $406 $409 forward $282 $-1 #
vertex $-1 $276 $410 #
straight-curve $-1 59.910275582140571 0 13.877545530788616 0 1 0 I I #
point $-1 59.910275582140571 -36.735108002371092 13.877545530788616 #
point $-1 -59.910275582140571 -36.735108002371092 13.877545530788616 #
coedge $-1 $406 $356 $284 $368 reversed $269 $-1 #
edge $-1 $369 -59.910275582140571 $371 59.910275582140571 $367 $411 forward 7 unknown #
vertex $-1 $409 $412 #
straight-curve $-1 59.910275582140571 -44.136637851073637 10.877545530788616 0 -1 0 I I #
vertex $-1 $286 $413 #
straight-curve $-1 -59.910275582140571 -44.136637851073637 10.877545530788616 0 1 0 I I #
edge $-1 $374 57.747995935116414 $377 66.579651025279219 $290 $414 forward 7 unknown #
vertex $-1 $304 $415 #
straight-curve $-1 0 31.155848351589611 13.877545530788609 0 1 0 I I #
edge $-1 $377 -3.4561264740754645 $301 10.368379422226393 $300 $416 forward 7 unknown #
vertex $-1 $376 $417 #
straight-curve $-1 0 -17.863902315890826 54.207061216450583 0 -0.74314481823134659 0.66913061440640931 I I #
point $-1 0 26.926561546185944 13.877545530788616 #
point $-1 -13.824505896301858 36.735108002371099 5.0458904406258185 #
straight-curve $-1 0 36.735108002371092 13.877545530788616 -1 0 0 I I #
vertex $-1 $307 $418 #
point $-1 -8.8746470687870413 30.198962291034874 7.6493400226803017 #
vertex $-1 $311 $419 #
point $-1 -2.9498588275148165 30.198962291034874 7.6493400226803017 #
coedge $-1 $387 $317 $393 $420 reversed $220 $-1 #
coedge $-1 $317 $386 $320 $391 reversed $220 $-1 #
edge $-1 $389 -33.411264265145746 $325 -19.586758368843888 $324 $421 forward 7 unknown #
vertex $-1 $319 $422 #
straight-curve $-1 59.910275582140571 0.54642207765988715 37.630330314664327 0 0.74314481823134659 -0.66913061440640931 I I #
edge $-1 $321 26.926561546185944 $395 36.735108002371092 $387 $423 forward 7 unknown #
point $-1 59.910275582140564 26.926561546185944 13.877545530788616 #
coedge $-1 $324 $323 $386 $420 forward $315 $-1 #
point $-1 46.085769685838706 36.735108002371099 5.0458904406258185 #
vertex $-1 $391 $424 #
straight-curve $-1 0 36.735108002371092 13.877545530788616 -1 0 0 I I #
vertex $-1 $331 $425 #
point $-1 51.035628513353515 30.198962291034874 7.6493400226803017 #
vertex $-1 $335 $426 #
point $-1 56.960416754625754 30.198962291034874 7.6493400226803017 #
straight-curve $-1 -59.910275582140571 36.735108002371092 0 0 0 -1 I I #
point $-1 -59.910275582140571 -36.735108002371092 -13.877545530788616 #
straight-curve $-1 -59.910275582140571 0 -13.877545530788616 0 1 0 I I #
point $-1 -59.910275582140571 36.735108002371092 -13.877545530788616 #
edge $-1 $360 -1.5 $371 1.5 $357 $427 forward 7 unknown #
coedge $-1 $358 $367 $362 $409 reversed $269 $-1 #
straight-curve $-1 0 -51.538167699776182 13.877545530788616 1 0 0 I I #
point $-1 -59.910275582140571 -51.538167699776182 13.877545530788616 #
edge $-1 $363 -1.5 $369 1.5 $362 $428 forward 7 unknown #
point $-1 59.910275582140571 -51.538167699776182 13.877545530788616 #
straight-curve $-1 0 -51.538167699776182 10.877545530788616 -1 0 0 I I #
point $-1 59.910275582140571 -51.538167699776182 10.877545530788616 #
point $-1 -59.910275582140571 -51.538167699776182 10.877545530788616 #
straight-curve $-1 0 36.735108002371092 71.62554146590503 0 0 -1 I I #
point $-1 0 36.735108002371092 13.877545530788616 #
straight-curve $-1 -3.4561264740754645 36.735108002371092 5.0458904406258291 -1 0 0 I I #
point $-1 0 36.735108002371099 5.0458904406258185 #
point $-1 -9.8746470687870413 29.529831676628461 6.9061952044489532 #
point $-1 -3.9498588275148165 29.529831676628461 6.9061952044489532 #
edge $-1 $395 -13.877545530788616 $389 -5.0458904406258185 $386 $429 forward 7 unknown #
straight-curve $-1 26.499011316994817 36.735108002371092 5.0458904406258291 -1 0 0 I I #
point $-1 59.910275582140564 36.735108002371099 5.0458904406258185 #
straight-curve $-1 59.910275582140571 0 13.877545530788616 0 1 0 I I #
point $-1 59.910275582140571 36.735108002371092 13.877545530788616 #
point $-1 50.035628513353515 29.529831676628461 6.9061952044489532 #
point $-1 55.960416754625754 29.529831676628461 6.9061952044489532 #
straight-curve $-1 -59.910275582140571 -51.538167699776182 12.377545530788616 0 0 -1 I I #
straight-curve $-1 59.910275582140571 -51.538167699776182 12.377545530788616 0 0 -1 I I #
straight-curve $-1 59.910275582140571 36.735108002371092 0 0 0 -1 I I #
End-of-ACIS-data 