500 0 9 0           
7 Unknown 11 ACIS 5.0 NT 24 Fri Mar 26 19:11:43 1999 
-1 9.9999999999999995e-007 1e-010 
body $-1 $9 $-1 $10 #
body $-1 $11 $-1 $12 #
body $-1 $13 $-1 $14 #
body $-1 $15 $-1 $16 #
body $-1 $17 $-1 $18 #
body $-1 $19 $-1 $20 #
body $-1 $21 $-1 $22 #
body $-1 $23 $-1 $24 #
body $-1 $25 $-1 $26 #
lump $-1 $-1 $27 $0 #
transform $-1 1 0 0 0 1 0 0 0 1 69.635914181951364 31.552823921959597 12.719735152743576 1 rotate no_reflect no_shear #
lump $-1 $-1 $28 $1 #
transform $-1 1 0 0 0 1 0 0 0 1 69.635914181951364 31.552823921959597 12.719735152743576 1 rotate no_reflect no_shear #
lump $-1 $-1 $29 $2 #
transform $-1 1 0 0 0 1 0 0 0 1 69.635914181951364 31.552823921959597 12.719735152743576 1 rotate no_reflect no_shear #
lump $-1 $-1 $30 $3 #
transform $-1 1 0 0 0 1 0 0 0 1 69.635914181951364 31.552823921959597 12.719735152743576 1 rotate no_reflect no_shear #
lump $-1 $-1 $31 $4 #
transform $-1 1 0 0 0 1 0 0 0 1 69.635914181951364 31.552823921959597 12.719735152743576 1 rotate no_reflect no_shear #
lump $-1 $-1 $32 $5 #
transform $-1 1 0 0 0 1 0 0 0 1 69.635914181951364 31.552823921959597 12.719735152743576 1 rotate no_reflect no_shear #
lump $-1 $-1 $33 $6 #
transform $-1 1 0 0 0 1 0 0 0 1 69.635914181951364 31.552823921959597 12.719735152743576 1 rotate no_reflect no_shear #
lump $-1 $-1 $34 $7 #
transform $-1 1 0 0 0 1 0 0 0 1 69.635914181951364 31.552823921959597 12.719735152743576 1 rotate no_reflect no_shear #
lump $-1 $-1 $35 $8 #
transform $-1 1 0 0 0 1 0 0 0 1 69.635914181951364 31.552823921959597 12.719735152743576 1 rotate no_reflect no_shear #
shell $-1 $-1 $-1 $36 $-1 $9 #
shell $-1 $-1 $-1 $37 $-1 $11 #
shell $-1 $-1 $-1 $38 $-1 $13 #
shell $-1 $-1 $-1 $39 $-1 $15 #
shell $-1 $-1 $-1 $40 $-1 $17 #
shell $-1 $-1 $-1 $41 $-1 $19 #
shell $-1 $-1 $-1 $42 $-1 $21 #
shell $-1 $-1 $-1 $43 $-1 $23 #
shell $-1 $-1 $-1 $44 $-1 $25 #
face $-1 $45 $46 $27 $-1 $47 forward single #
face $-1 $48 $49 $28 $-1 $50 forward single #
face $-1 $51 $52 $29 $-1 $53 reversed single #
face $-1 $54 $55 $30 $-1 $56 forward single #
face $-1 $57 $58 $31 $-1 $59 forward single #
face $-1 $60 $61 $32 $-1 $62 reversed single #
face $-1 $63 $64 $33 $-1 $65 forward single #
face $-1 $66 $67 $34 $-1 $68 forward single #
face $-1 $69 $70 $35 $-1 $71 forward single #
face $-1 $72 $73 $27 $-1 $74 reversed single #
loop $-1 $-1 $75 $36 #
plane-surface $-1 0 0 12.719735152743576 0 0 1 1 0 0 forward_v I I I I #
face $-1 $76 $77 $28 $-1 $78 reversed single #
loop $-1 $-1 $79 $37 #
plane-surface $-1 -69.635914181951364 0 0 1 0 0 0 0 -1 forward_v I I I I #
face $-1 $80 $81 $29 $-1 $82 reversed single #
loop $-1 $-1 $83 $38 #
plane-surface $-1 58.665646988575133 -31.552823921959558 9.5180255087765886 0 -0.80901700255871778 0.5877852410284794 1 0 0 forward_v I I I I #
face $-1 $84 $85 $30 $-1 $86 forward single #
loop $-1 $87 $88 $39 #
cone-surface $-1 53.964103905699602 -29.985226345401042 10.824987710245852 0 0.80901700255871778 -0.5877852410284794 0.5 0 0 1 I I 0 1 0.5 forward I I I I #
face $-1 $89 $90 $31 $-1 $91 forward single #
loop $-1 $92 $93 $40 #
cone-surface $-1 63.367190071450665 -29.985226345401042 10.824987710245852 0 0.80901700255871778 -0.5877852410284794 0.5 0 0 1 I I 0 1 0.5 forward I I I I #
face $-1 $94 $95 $32 $-1 $96 reversed single #
loop $-1 $-1 $97 $41 #
plane-surface $-1 31.087279161073212 107.1335326176 134.75132165849587 1 0 0 0 -0.80901700255871778 -0.5877852410284794 forward_v I I I I #
face $-1 $98 $99 $33 $-1 $100 forward single #
loop $-1 $101 $102 $42 #
cone-surface $-1 37.647208409715176 26.11064223742062 6.1964229427939621 0 -0.80901700255871778 -0.5877852410284794 1.5 0 0 1 I I 0 1 1.5 forward I I I I #
face $-1 $103 $104 $34 $-1 $105 forward single #
loop $-1 $106 $107 $43 #
cone-surface $-1 47.487102282678109 26.11064223742062 6.1964229427939621 0 -0.80901700255871778 -0.5877852410284794 1.5 0 0 1 I I 0 1 1.5 forward I I I I #
face $-1 $108 $109 $35 $-1 $110 forward single #
loop $-1 $111 $112 $44 #
cone-surface $-1 57.326996155641041 26.11064223742062 6.1964229427939621 0 -0.80901700255871778 -0.5877852410284794 1.5 0 0 1 I I 0 1 1.5 forward I I I I #
face $-1 $113 $114 $27 $-1 $115 reversed single #
loop $-1 $-1 $116 $45 #
plane-surface $-1 0 0 -12.719735152743576 0 0 1 1 0 0 forward_v I I I I #
coedge $-1 $117 $118 $119 $120 forward $46 $-1 #
face $-1 $121 $122 $28 $-1 $123 forward single #
loop $-1 $-1 $124 $48 #
plane-surface $-1 0 31.552823921959597 0 0 -1 0 0 0 -1 forward_v I I I I #
coedge $-1 $125 $126 $127 $128 forward $49 $-1 #
face $-1 $129 $130 $29 $-1 $131 reversed single #
loop $-1 $-1 $132 $51 #
plane-surface $-1 47.695379795198903 -144.22610104579636 91.379950712130167 1 0 0 0 0.80901700255871778 -0.5877852410284794 forward_v I I I I #
coedge $-1 $133 $134 $135 $136 reversed $52 $-1 #
face $-1 $-1 $137 $30 $-1 $138 forward single #
loop $-1 $139 $140 $54 #
cone-surface $-1 53.964103905699602 -29.378463593482003 10.384148779474492 0 0.80901700255871778 -0.5877852410284794 0.25 0 0 1 I I -0.70710678118654746 0.70710678118654746 0.25 forward I I I I #
loop $-1 $-1 $141 $39 #
coedge $-1 $88 $88 $142 $143 reversed $55 $-1 #
face $-1 $-1 $144 $31 $-1 $145 forward single #
loop $-1 $146 $147 $57 #
cone-surface $-1 63.367190071450665 -29.378463593482003 10.384148779474492 0 0.80901700255871778 -0.5877852410284794 0.25 0 0 1 I I -0.70710678118654746 0.70710678118654746 0.25 forward I I I I #
loop $-1 $-1 $148 $40 #
coedge $-1 $93 $93 $149 $150 reversed $58 $-1 #
face $-1 $151 $152 $32 $-1 $153 reversed single #
loop $-1 $-1 $154 $60 #
plane-surface $-1 47.487102282678109 -5.5397445062368007 52.88939645514229 0 0.80901700255871778 0.5877852410284794 1 0 0 forward_v I I I I #
coedge $-1 $155 $156 $157 $158 reversed $61 $-1 #
face $-1 $-1 $159 $33 $-1 $160 forward single #
loop $-1 $161 $162 $63 #
cone-surface $-1 37.647208409715176 24.015498806434334 4.6742121824803942 0 -0.80901700255871778 -0.5877852410284794 0.75 0 0 1 I I -0.70710678118654757 0.70710678118654757 0.75 forward I I I I #
loop $-1 $-1 $163 $42 #
coedge $-1 $102 $102 $164 $165 reversed $64 $-1 #
face $-1 $-1 $166 $34 $-1 $167 forward single #
loop $-1 $168 $169 $66 #
cone-surface $-1 47.487102282678109 24.015498806434334 4.6742121824803942 0 -0.80901700255871778 -0.5877852410284794 0.75 0 0 1 I I -0.70710678118654757 0.70710678118654757 0.75 forward I I I I #
loop $-1 $-1 $170 $43 #
coedge $-1 $107 $107 $171 $172 reversed $67 $-1 #
face $-1 $-1 $173 $35 $-1 $174 forward single #
loop $-1 $175 $176 $69 #
cone-surface $-1 57.326996155641041 24.015498806434334 4.6742121824803942 0 -0.80901700255871778 -0.5877852410284794 0.75 0 0 1 I I -0.70710678118654757 0.70710678118654757 0.75 forward I I I I #
loop $-1 $-1 $177 $44 #
coedge $-1 $112 $112 $178 $179 reversed $70 $-1 #
face $-1 $180 $181 $27 $-1 $182 reversed single #
loop $-1 $-1 $183 $72 #
plane-surface $-1 0 -31.552823921959597 0 0 1 0 0 0 1 forward_v I I I I #
coedge $-1 $184 $185 $186 $187 forward $73 $-1 #
coedge $-1 $188 $75 $189 $190 forward $46 $-1 #
coedge $-1 $75 $188 $191 $192 forward $46 $-1 #
coedge $-1 $193 $194 $75 $120 reversed $195 $-1 #
edge $-1 $196 -31.552823921959597 $197 31.552823921959597 $119 $198 forward 7 unknown #
face $-1 $199 $200 $28 $-1 $201 reversed single #
loop $-1 $-1 $127 $76 #
plane-surface $-1 -75.035021929663557 0 -7.2365887239431661 0 0 1 1 0 0 forward_v I I I I #
coedge $-1 $202 $203 $126 $204 forward $77 $-1 #
coedge $-1 $205 $79 $206 $207 reversed $49 $-1 #
coedge $-1 $79 $205 $124 $204 reversed $49 $-1 #
coedge $-1 $208 $209 $79 $128 reversed $122 $-1 #
edge $-1 $210 -31.552823921959597 $211 31.552823921959597 $127 $212 forward 7 unknown #
face $-1 $213 $214 $29 $-1 $215 forward single #
loop $-1 $-1 $216 $80 #
plane-surface $-1 0 -31.552823921959597 0 0 1 0 0 0 1 forward_v I I I I #
coedge $-1 $217 $218 $219 $220 reversed $81 $-1 #
coedge $-1 $221 $83 $222 $223 reversed $52 $-1 #
coedge $-1 $83 $221 $217 $224 forward $52 $-1 #
coedge $-1 $219 $225 $83 $136 forward $214 $-1 #
edge $-1 $226 -40.303090687663797 $227 -18.362556300911336 $135 $228 forward 7 unknown #
loop $-1 $-1 $142 $84 #
plane-surface $-1 58.665646988575133 -31.552823921959558 9.5180255087765886 0 -0.80901700255871778 0.5877852410284794 1 0 0 forward_v I I I I #
loop $-1 $-1 $229 $54 #
coedge $-1 $140 $140 $141 $230 reversed $85 $-1 #
coedge $-1 $141 $141 $140 $230 forward $87 $-1 #
coedge $-1 $142 $142 $88 $143 forward $137 $-1 #
edge $-1 $231 -4.3999782921355929e-015 $231 6.283185307179596 $142 $232 forward 7 unknown #
loop $-1 $-1 $149 $89 #
plane-surface $-1 58.665646988575133 -31.552823921959558 9.5180255087765886 0 -0.80901700255871778 0.5877852410284794 1 0 0 forward_v I I I I #
loop $-1 $-1 $233 $57 #
coedge $-1 $147 $147 $148 $234 reversed $90 $-1 #
coedge $-1 $148 $148 $147 $234 forward $92 $-1 #
coedge $-1 $149 $149 $93 $150 forward $144 $-1 #
edge $-1 $235 -4.3999782921355929e-015 $235 6.283185307179596 $149 $236 forward 7 unknown #
face $-1 $237 $238 $32 $-1 $239 forward single #
loop $-1 $-1 $240 $94 #
plane-surface $-1 63.886925404283005 107.1335326176 134.75132165849587 -1 0 0 0 0.80901700255871778 0.5877852410284794 forward_v I I I I #
coedge $-1 $241 $242 $243 $244 reversed $95 $-1 #
coedge $-1 $156 $97 $245 $246 reversed $61 $-1 #
coedge $-1 $97 $155 $241 $247 reversed $61 $-1 #
coedge $-1 $243 $248 $97 $158 forward $238 $-1 #
edge $-1 $249 22.013942386840402 $250 29.921544397783865 $157 $251 forward 7 unknown #
loop $-1 $-1 $164 $98 #
plane-surface $-1 47.487102282678109 -5.5397445062368007 52.88939645514229 0 0.80901700255871778 0.5877852410284794 1 0 0 forward_v I I I I #
loop $-1 $-1 $252 $63 #
coedge $-1 $162 $162 $163 $253 reversed $99 $-1 #
coedge $-1 $163 $163 $162 $253 forward $101 $-1 #
coedge $-1 $164 $164 $102 $165 forward $159 $-1 #
edge $-1 $254 -1.0030163654778282e-015 $254 6.2831853071795996 $164 $255 forward 7 unknown #
loop $-1 $-1 $171 $103 #
plane-surface $-1 47.487102282678109 -5.5397445062368007 52.88939645514229 0 0.80901700255871778 0.5877852410284794 1 0 0 forward_v I I I I #
loop $-1 $-1 $256 $66 #
coedge $-1 $169 $169 $170 $257 reversed $104 $-1 #
coedge $-1 $170 $170 $169 $257 forward $106 $-1 #
coedge $-1 $171 $171 $107 $172 forward $166 $-1 #
edge $-1 $258 -1.0030163654778282e-015 $258 6.2831853071795996 $171 $259 forward 7 unknown #
loop $-1 $-1 $178 $108 #
plane-surface $-1 47.487102282678109 -5.5397445062368007 52.88939645514229 0 0.80901700255871778 0.5877852410284794 1 0 0 forward_v I I I I #
loop $-1 $-1 $260 $69 #
coedge $-1 $176 $176 $177 $261 reversed $109 $-1 #
coedge $-1 $177 $177 $176 $261 forward $111 $-1 #
coedge $-1 $178 $178 $112 $179 forward $173 $-1 #
edge $-1 $262 -1.0030163654778282e-015 $262 6.2831853071795996 $178 $263 forward 7 unknown #
face $-1 $264 $265 $27 $-1 $266 reversed single #
loop $-1 $-1 $267 $113 #
plane-surface $-1 -69.635914181951364 0 0 1 0 0 0 0 -1 forward_v I I I I #
coedge $-1 $268 $191 $269 $270 forward $114 $-1 #
coedge $-1 $271 $116 $268 $272 forward $73 $-1 #
coedge $-1 $116 $271 $273 $274 forward $73 $-1 #
coedge $-1 $194 $193 $116 $187 reversed $195 $-1 #
edge $-1 $275 -31.552823921959597 $276 31.552823921959597 $186 $277 forward 7 unknown #
coedge $-1 $118 $117 $278 $279 forward $46 $-1 #
coedge $-1 $280 $281 $117 $190 reversed $265 $-1 #
edge $-1 $197 -69.635914181951364 $282 69.635914181951364 $189 $283 forward 7 unknown #
coedge $-1 $183 $284 $118 $192 reversed $114 $-1 #
edge $-1 $285 -69.635914181951364 $196 69.635914181951364 $191 $286 forward 7 unknown #
coedge $-1 $186 $119 $284 $287 forward $195 $-1 #
coedge $-1 $119 $186 $280 $288 reversed $195 $-1 #
loop $-1 $-1 $193 $264 #
vertex $-1 $120 $289 #
vertex $-1 $120 $290 #
straight-curve $-1 69.635914181951364 0 12.719735152743576 0 1 0 I I #
face $-1 $291 $292 $28 $-1 $293 reversed single #
loop $-1 $-1 $294 $121 #
plane-surface $-1 -80.434129677375751 0 -9.9781619383433711 1 0 0 0 0 -1 forward_v I I I I #
coedge $-1 $295 $124 $296 $297 reversed $77 $-1 #
coedge $-1 $124 $295 $208 $298 reversed $77 $-1 #
edge $-1 $210 7.2365887239431661 $299 12.719735152743576 $124 $300 forward 7 unknown #
coedge $-1 $126 $125 $301 $302 reversed $49 $-1 #
coedge $-1 $303 $304 $125 $207 forward $305 $-1 #
edge $-1 $306 -12.719735152743576 $211 -7.2365887239431661 $206 $307 forward 7 unknown #
coedge $-1 $308 $127 $203 $298 forward $122 $-1 #
coedge $-1 $127 $308 $303 $309 forward $122 $-1 #
vertex $-1 $204 $310 #
vertex $-1 $309 $311 #
straight-curve $-1 -69.635914181951364 0 -7.2365887239431661 0 -1 0 I I #
face $-1 $-1 $312 $29 $-1 $313 reversed single #
loop $-1 $-1 $219 $129 #
plane-surface $-1 0 0 12.719735152743576 0 0 1 1 0 0 forward_v I I I I #
coedge $-1 $314 $315 $218 $316 forward $130 $-1 #
coedge $-1 $218 $132 $134 $224 reversed $81 $-1 #
coedge $-1 $132 $217 $216 $316 reversed $81 $-1 #
coedge $-1 $317 $135 $132 $220 forward $214 $-1 #
edge $-1 $227 -42.886404751497025 $318 -40.560226600938577 $219 $319 forward 7 unknown #
coedge $-1 $134 $133 $314 $320 reversed $52 $-1 #
coedge $-1 $321 $322 $133 $223 forward $312 $-1 #
edge $-1 $323 -5.4230198733552264 $226 -1.4654891492284936 $222 $324 forward 7 unknown #
edge $-1 $325 -6.6083645896576253e-014 $227 3.9575307241266664 $217 $326 forward 7 unknown #
coedge $-1 $135 $317 $321 $327 forward $214 $-1 #
vertex $-1 $223 $328 #
vertex $-1 $136 $329 #
straight-curve $-1 29.332823494287567 -29.226645771401152 12.719735152743576 -1 0 0 I I #
coedge $-1 $229 $229 $-1 $330 reversed $139 $-1 #
edge $-1 $331 0 $331 6.2831853071796004 $140 $332 forward 7 unknown #
vertex $-1 $143 $333 #
ellipse-curve $-1 53.964103905699602 -30.389734846680366 11.118880330760067 0 -0.80901700255871778 0.5877852410284794 0.5 0 0 1 I I #
coedge $-1 $233 $233 $-1 $334 reversed $146 $-1 #
edge $-1 $335 0 $335 6.2831853071796004 $147 $336 forward 7 unknown #
vertex $-1 $150 $337 #
ellipse-curve $-1 63.367190071450665 -30.389734846680366 11.118880330760067 0 -0.80901700255871778 0.5877852410284794 0.5 0 0 1 I I #
face $-1 $-1 $338 $32 $-1 $339 reversed single #
loop $-1 $-1 $157 $151 #
plane-surface $-1 0 0 12.719735152743576 0 0 1 1 0 0 forward_v I I I I #
coedge $-1 $340 $341 $342 $343 reversed $152 $-1 #
coedge $-1 $344 $154 $156 $247 forward $95 $-1 #
coedge $-1 $154 $344 $340 $345 forward $95 $-1 #
coedge $-1 $342 $157 $154 $244 forward $238 $-1 #
edge $-1 $250 7.3437280197341579 $346 40.143374262943951 $243 $347 forward 7 unknown #
coedge $-1 $348 $349 $155 $246 forward $338 $-1 #
edge $-1 $350 -65.539806437319186 $249 -54.65592567650436 $245 $351 forward 7 unknown #
edge $-1 $250 49.652431500638627 $350 63.105647843919229 $156 $352 forward 7 unknown #
coedge $-1 $157 $342 $348 $353 forward $238 $-1 #
vertex $-1 $246 $354 #
vertex $-1 $158 $355 #
straight-curve $-1 31.087279161073212 53.566766308799998 12.719735152743574 0 -1 0 I I #
coedge $-1 $252 $252 $-1 $356 reversed $161 $-1 #
edge $-1 $357 0 $357 6.2831853071796004 $162 $358 forward 7 unknown #
vertex $-1 $165 $359 #
ellipse-curve $-1 37.647208409715176 27.599022916487865 7.2777947723361676 0 0.80901700255871778 0.5877852410284794 1.5 0 0 1 I I #
coedge $-1 $256 $256 $-1 $360 reversed $168 $-1 #
edge $-1 $361 0 $361 6.2831853071796004 $169 $362 forward 7 unknown #
vertex $-1 $172 $363 #
ellipse-curve $-1 47.487102282678109 27.599022916487865 7.2777947723361676 0 0.80901700255871778 0.5877852410284794 1.5 0 0 1 I I #
coedge $-1 $260 $260 $-1 $364 reversed $175 $-1 #
edge $-1 $365 0 $365 6.2831853071796004 $176 $366 forward 7 unknown #
vertex $-1 $179 $367 #
ellipse-curve $-1 57.326996155641041 27.599022916487865 7.2777947723361676 0 0.80901700255871778 0.5877852410284794 1.5 0 0 1 I I #
face $-1 $-1 $195 $27 $-1 $368 reversed single #
loop $-1 $-1 $280 $180 #
plane-surface $-1 0 31.552823921959597 0 0 -1 0 0 0 -1 forward_v I I I I #
coedge $-1 $369 $278 $281 $370 forward $181 $-1 #
coedge $-1 $284 $183 $184 $272 reversed $114 $-1 #
coedge $-1 $278 $369 $183 $270 reversed $181 $-1 #
edge $-1 $285 -12.719735152743576 $371 12.719735152743576 $269 $372 forward 7 unknown #
coedge $-1 $185 $184 $369 $373 forward $73 $-1 #
edge $-1 $276 -69.635914181951364 $371 69.635914181951364 $268 $374 forward 7 unknown #
coedge $-1 $281 $280 $185 $274 reversed $265 $-1 #
edge $-1 $375 -69.635914181951364 $275 69.635914181951364 $273 $376 forward 7 unknown #
vertex $-1 $187 $377 #
vertex $-1 $287 $378 #
straight-curve $-1 69.635914181951364 0 -12.719735152743576 0 -1 0 I I #
coedge $-1 $267 $269 $188 $279 reversed $181 $-1 #
edge $-1 $282 -31.552823921959597 $285 31.552823921959597 $278 $379 forward 7 unknown #
coedge $-1 $273 $189 $194 $288 forward $265 $-1 #
coedge $-1 $189 $273 $267 $370 reversed $265 $-1 #
vertex $-1 $190 $380 #
straight-curve $-1 0 31.552823921959597 12.719735152743576 -1 0 0 I I #
coedge $-1 $191 $268 $193 $287 reversed $114 $-1 #
vertex $-1 $279 $381 #
straight-curve $-1 0 -31.552823921959597 12.719735152743576 1 0 0 I I #
edge $-1 $196 -12.719735152743576 $276 12.719735152743576 $193 $382 forward 7 unknown #
edge $-1 $197 -12.719735152743576 $275 12.719735152743576 $194 $383 forward 7 unknown #
point $-1 69.635914181951364 -31.552823921959597 12.719735152743576 #
point $-1 69.635914181951364 31.552823921959597 12.719735152743576 #
face $-1 $-1 $305 $28 $-1 $384 reversed single #
loop $-1 $-1 $301 $199 #
plane-surface $-1 0 0 -12.719735152743576 0 0 1 1 0 0 forward_v I I I I #
coedge $-1 $385 $386 $295 $387 forward $200 $-1 #
coedge $-1 $203 $202 $294 $387 reversed $77 $-1 #
coedge $-1 $301 $388 $202 $297 forward $292 $-1 #
edge $-1 $389 -80.434129677375751 $299 -69.635914181951364 $202 $390 forward 7 unknown #
edge $-1 $210 -5.3991077477121934 $391 5.3991077477121934 $203 $392 forward 7 unknown #
vertex $-1 $204 $393 #
straight-curve $-1 -69.635914181951364 31.552823921959597 0 0 0 -1 I I #
coedge $-1 $394 $296 $205 $302 forward $292 $-1 #
edge $-1 $299 -31.552823921959597 $306 31.552823921959597 $301 $395 forward 7 unknown #
coedge $-1 $396 $206 $209 $309 reversed $305 $-1 #
coedge $-1 $206 $396 $394 $397 reversed $305 $-1 #
loop $-1 $-1 $206 $291 #
vertex $-1 $397 $398 #
straight-curve $-1 -69.635914181951364 -31.552823921959597 0 0 0 1 I I #
coedge $-1 $209 $208 $386 $399 forward $122 $-1 #
edge $-1 $400 -5.3991077477121934 $211 5.3991077477121934 $303 $401 forward 7 unknown #
point $-1 -69.635914181951364 31.552823921959597 -7.2365887239431661 #
point $-1 -69.635914181951364 -31.552823921959597 -7.2365887239431661 #
loop $-1 $-1 $222 $213 #
plane-surface $-1 69.635914181951364 0 0 -1 0 0 0 0 1 forward_v I I I I #
coedge $-1 $402 $216 $221 $320 forward $130 $-1 #
coedge $-1 $216 $402 $317 $403 reversed $130 $-1 #
edge $-1 $318 32.970240203321509 $325 36.171949847288545 $216 $404 forward 7 unknown #
coedge $-1 $225 $219 $315 $403 forward $214 $-1 #
vertex $-1 $403 $405 #
straight-curve $-1 47.695379795198903 -72.113050522898178 12.719735152743574 0 -1 0 I I #
edge $-1 $325 18.362556300911336 $323 40.303090687663797 $314 $406 forward 7 unknown #
coedge $-1 $322 $222 $225 $327 reversed $312 $-1 #
coedge $-1 $222 $321 $402 $407 forward $312 $-1 #
vertex $-1 $320 $408 #
straight-curve $-1 69.635914181951364 -28.365252878597261 13.905340791534737 0 0.5877852410284794 0.80901700255871778 I I #
vertex $-1 $320 $409 #
straight-curve $-1 47.695379795198903 -31.552823921959558 9.5180255087765886 0 0.5877852410284794 0.80901700255871778 I I #
edge $-1 $410 -31.552823921959597 $226 -29.226645771401152 $321 $411 forward 7 unknown #
point $-1 69.635914181951364 -29.226645771401152 12.719735152743576 #
point $-1 47.695379795198903 -29.226645771401152 12.719735152743576 #
edge $-1 $412 1 $412 0 $229 $-1 forward 7 unknown #
vertex $-1 $230 $413 #
ellipse-curve $-1 53.964103905699602 -29.580717844121683 10.531095089731611 0 -0.80901700255871778 0.5877852410284794 0.5 0 0 1 I I #
point $-1 54.464103905699602 -30.389734846680401 11.11888033076009 #
edge $-1 $414 1 $414 0 $233 $-1 forward 7 unknown #
vertex $-1 $234 $415 #
ellipse-curve $-1 63.367190071450665 -29.580717844121683 10.531095089731611 0 -0.80901700255871778 0.5877852410284794 0.5 0 0 1 I I #
point $-1 63.867190071450665 -30.389734846680401 11.11888033076009 #
loop $-1 $-1 $245 $237 #
plane-surface $-1 0 31.552823921959597 0 0 -1 0 0 0 -1 forward_v I I I I #
coedge $-1 $341 $240 $242 $345 reversed $152 $-1 #
coedge $-1 $240 $340 $416 $417 reversed $152 $-1 #
coedge $-1 $248 $243 $240 $343 forward $238 $-1 #
edge $-1 $346 -29.921544397783865 $418 -22.013942386840402 $342 $419 forward 7 unknown #
coedge $-1 $242 $241 $349 $420 reversed $95 $-1 #
edge $-1 $421 -63.105647843919229 $346 -49.652431500638627 $340 $422 forward 7 unknown #
vertex $-1 $244 $423 #
straight-curve $-1 23.743551141339054 23.64522191101614 12.719735152743574 1 0 0 I I #
coedge $-1 $416 $245 $248 $353 reversed $338 $-1 #
coedge $-1 $245 $416 $344 $420 forward $338 $-1 #
vertex $-1 $246 $424 #
straight-curve $-1 31.087279161073212 31.5528239219596 67.375660829247934 0 0 1 I I #
straight-curve $-1 31.087279161073212 -5.5397445062368007 52.88939645514229 0 0.5877852410284794 -0.80901700255871778 I I #
edge $-1 $418 -63.886925404283005 $249 -31.087279161073212 $348 $425 forward 7 unknown #
point $-1 31.087279161073212 31.552823921959597 12.719735152743576 #
point $-1 31.087279161073212 23.645221911016133 12.719735152743574 #
edge $-1 $426 1 $426 0 $252 $-1 forward 7 unknown #
vertex $-1 $253 $427 #
ellipse-curve $-1 37.647208409715176 24.622261558353372 5.115051113251754 0 0.80901700255871778 0.5877852410284794 1.5 0 0 1 I I #
point $-1 39.147208409715176 27.599022916487868 7.277794772336172 #
edge $-1 $428 1 $428 0 $256 $-1 forward 7 unknown #
vertex $-1 $257 $429 #
ellipse-curve $-1 47.487102282678109 24.622261558353372 5.115051113251754 0 0.80901700255871778 0.5877852410284794 1.5 0 0 1 I I #
point $-1 48.987102282678109 27.599022916487868 7.277794772336172 #
edge $-1 $430 1 $430 0 $260 $-1 forward 7 unknown #
vertex $-1 $261 $431 #
ellipse-curve $-1 57.326996155641041 24.622261558353372 5.115051113251754 0 0.80901700255871778 0.5877852410284794 1.5 0 0 1 I I #
point $-1 58.826996155641041 27.599022916487868 7.277794772336172 #
plane-surface $-1 69.635914181951364 0 0 -1 0 0 0 0 1 forward_v I I I I #
coedge $-1 $269 $267 $271 $373 reversed $181 $-1 #
edge $-1 $282 -12.719735152743576 $375 12.719735152743576 $281 $432 forward 7 unknown #
vertex $-1 $373 $433 #
straight-curve $-1 -69.635914181951364 -31.552823921959597 0 0 0 -1 I I #
edge $-1 $371 -31.552823921959597 $375 31.552823921959597 $369 $434 forward 7 unknown #
straight-curve $-1 0 -31.552823921959597 -12.719735152743576 -1 0 0 I I #
vertex $-1 $274 $435 #
straight-curve $-1 0 31.552823921959597 -12.719735152743576 1 0 0 I I #
point $-1 69.635914181951364 31.552823921959597 -12.719735152743576 #
point $-1 69.635914181951364 -31.552823921959597 -12.719735152743576 #
straight-curve $-1 -69.635914181951364 0 12.719735152743576 0 -1 0 I I #
point $-1 -69.635914181951364 31.552823921959597 12.719735152743576 #
point $-1 -69.635914181951364 -31.552823921959597 12.719735152743576 #
straight-curve $-1 69.635914181951364 -31.552823921959597 0 0 0 -1 I I #
straight-curve $-1 69.635914181951364 31.552823921959597 0 0 0 -1 I I #
plane-surface $-1 0 -31.552823921959597 0 0 1 0 0 0 1 forward_v I I I I #
coedge $-1 $436 $294 $388 $437 reversed $200 $-1 #
coedge $-1 $294 $436 $308 $399 reversed $200 $-1 #
edge $-1 $391 -2.741573214400205 $389 2.741573214400205 $295 $438 forward 7 unknown #
coedge $-1 $296 $394 $385 $437 forward $292 $-1 #
vertex $-1 $297 $439 #
straight-curve $-1 0 31.552823921959597 -12.719735152743576 1 0 0 I I #
vertex $-1 $298 $440 #
straight-curve $-1 -75.035021929663557 31.552823921959597 -7.2365887239431661 -1 0 0 I I #
point $-1 -69.635914181951364 31.552823921959597 -12.719735152743576 #
coedge $-1 $388 $301 $304 $397 forward $292 $-1 #
straight-curve $-1 -69.635914181951364 0 -12.719735152743576 0 -1 0 I I #
coedge $-1 $304 $303 $436 $441 forward $305 $-1 #
edge $-1 $306 -5.3991077477121934 $442 5.3991077477121934 $304 $443 forward 7 unknown #
point $-1 -69.635914181951364 -31.552823921959597 -12.719735152743576 #
edge $-1 $391 -31.552823921959597 $400 31.552823921959597 $386 $444 forward 7 unknown #
vertex $-1 $399 $445 #
straight-curve $-1 -75.035021929663557 -31.552823921959597 -7.2365887239431661 1 0 0 I I #
coedge $-1 $315 $314 $322 $407 reversed $130 $-1 #
edge $-1 $318 47.695379795198903 $410 69.635914181951364 $315 $446 forward 7 unknown #
straight-curve $-1 47.695379795198903 -31.5528239219596 45.689975356065084 0 0 -1 I I #
point $-1 47.695379795198903 -31.552823921959597 12.719735152743576 #
straight-curve $-1 29.332823494287567 -31.552823921959597 9.5180255087765406 1 0 0 I I #
edge $-1 $410 -12.719735152743576 $323 -9.5180255087765353 $322 $447 forward 7 unknown #
point $-1 69.635914181951364 -31.552823921959597 9.5180255087765353 #
point $-1 47.695379795198903 -31.552823921959597 9.5180255087765353 #
vertex $-1 $327 $448 #
straight-curve $-1 69.635914181951364 0 12.719735152743576 0 1 0 I I #
vertex $-1 $330 $449 #
point $-1 54.464103905699602 -29.580717844121683 10.531095089731611 #
vertex $-1 $334 $450 #
point $-1 63.867190071450665 -29.580717844121683 10.531095089731611 #
coedge $-1 $349 $348 $341 $417 forward $338 $-1 #
edge $-1 $418 54.65592567650436 $421 65.539806437319186 $416 $451 forward 7 unknown #
vertex $-1 $353 $452 #
straight-curve $-1 63.886925404283005 53.566766308799998 12.719735152743574 0 1 0 I I #
edge $-1 $421 -40.143374262943951 $350 -7.3437280197341579 $349 $453 forward 7 unknown #
vertex $-1 $420 $454 #
straight-curve $-1 63.886925404283005 -5.5397445062368007 52.88939645514229 0 -0.5877852410284794 0.80901700255871778 I I #
point $-1 63.886925404283005 23.645221911016133 12.719735152743574 #
point $-1 31.087279161073212 31.5528239219596 1.8358543919287484 #
straight-curve $-1 0 31.552823921959597 12.719735152743576 -1 0 0 I I #
vertex $-1 $356 $455 #
point $-1 39.147208409715176 24.622261558353372 5.115051113251754 #
vertex $-1 $360 $456 #
point $-1 48.987102282678109 24.622261558353372 5.115051113251754 #
vertex $-1 $364 $457 #
point $-1 58.826996155641041 24.622261558353372 5.115051113251754 #
straight-curve $-1 -69.635914181951364 31.552823921959597 0 0 0 -1 I I #
point $-1 -69.635914181951364 -31.552823921959597 -12.719735152743576 #
straight-curve $-1 -69.635914181951364 0 -12.719735152743576 0 1 0 I I #
point $-1 -69.635914181951364 31.552823921959597 -12.719735152743576 #
coedge $-1 $386 $385 $396 $441 reversed $200 $-1 #
edge $-1 $442 -31.552823921959597 $389 31.552823921959597 $385 $458 forward 7 unknown #
straight-curve $-1 -80.434129677375751 31.552823921959597 -9.9781619383433711 0 0 -1 I I #
point $-1 -80.434129677375751 31.552823921959597 -12.719735152743576 #
point $-1 -80.434129677375751 31.552823921959597 -7.2365887239431661 #
edge $-1 $400 -2.741573214400205 $442 2.741573214400205 $436 $459 forward 7 unknown #
vertex $-1 $437 $460 #
straight-curve $-1 -75.035021929663557 -31.552823921959597 -12.719735152743576 -1 0 0 I I #
straight-curve $-1 -80.434129677375751 0 -7.2365887239431661 0 -1 0 I I #
point $-1 -80.434129677375751 -31.552823921959597 -7.2365887239431661 #
straight-curve $-1 0 -31.552823921959597 12.719735152743576 1 0 0 I I #
straight-curve $-1 69.635914181951364 -31.552823921959597 0 0 0 -1 I I #
point $-1 69.635914181951364 -31.552823921959597 12.719735152743576 #
point $-1 53.964103905699602 -29.176209342842323 10.237202469217372 #
point $-1 63.367190071450665 -29.176209342842323 10.237202469217372 #
straight-curve $-1 63.886925404283005 31.5528239219596 67.375660829247934 0 0 -1 I I #
point $-1 63.886925404283005 31.552823921959597 12.719735152743576 #
straight-curve $-1 23.743551141339054 31.5528239219596 1.835854391928752 -1 0 0 I I #
point $-1 63.886925404283005 31.5528239219596 1.8358543919287484 #
point $-1 37.647208409715176 23.408736054515295 4.2333732517090343 #
point $-1 47.487102282678109 23.408736054515295 4.2333732517090343 #
point $-1 57.326996155641041 23.408736054515295 4.2333732517090343 #
straight-curve $-1 -80.434129677375751 0 -12.719735152743576 0 1 0 I I #
straight-curve $-1 -80.434129677375751 -31.552823921959597 -9.9781619383433711 0 0 -1 I I #
point $-1 -80.434129677375751 -31.552823921959597 -12.719735152743576 #
End-of-ACIS-data 