500 0 3 0           
7 Unknown 11 ACIS 5.0 NT 24 Fri Mar 26 19:21:37 1999 
-1 9.9999999999999995e-007 1e-010 
body $-1 $3 $-1 $4 #
body $-1 $5 $-1 $6 #
body $-1 $7 $-1 $8 #
lump $-1 $-1 $9 $0 #
transform $-1 1 0 0 0 1 0 0 0 1 78.800012207403796 46.977957044183171 22.65026564417029 1 rotate no_reflect no_shear #
lump $-1 $-1 $10 $1 #
transform $-1 1 0 0 0 1 0 0 0 1 78.800012207403796 46.977957044183171 22.65026564417029 1 rotate no_reflect no_shear #
lump $-1 $-1 $11 $2 #
transform $-1 1 0 0 0 1 0 0 0 1 78.800012207403796 46.977957044183171 22.65026564417029 1 rotate no_reflect no_shear #
shell $-1 $-1 $-1 $12 $-1 $3 #
shell $-1 $-1 $-1 $13 $-1 $5 #
shell $-1 $-1 $-1 $14 $-1 $7 #
face $-1 $15 $16 $9 $-1 $17 forward single #
face $-1 $18 $19 $10 $-1 $20 reversed single #
face $-1 $21 $22 $11 $-1 $23 forward single #
face $-1 $24 $25 $9 $-1 $26 reversed single #
loop $-1 $-1 $27 $12 #
plane-surface $-1 0 0 22.65026564417029 0 0 1 1 0 0 forward_v I I I I #
face $-1 $28 $29 $10 $-1 $30 reversed single #
loop $-1 $-1 $31 $13 #
plane-surface $-1 -177.9809224331797 -1.9047574805606331 135.81487904362001 0 1 0 -0.62932039886446345 0 0.77714595512881146 forward_v I I I I #
face $-1 $32 $33 $11 $-1 $34 forward single #
loop $-1 $35 $36 $14 #
cone-surface $-1 -70.403357774969678 8.0409435543587406 14.725947902446798 0.62932039886446345 0 -0.77714595512881146 2.3314378653864343 0 1.8879611965933902 1 I I 0 1 3 forward I I I I #
face $-1 $37 $38 $9 $-1 $39 reversed single #
loop $-1 $-1 $40 $15 #
plane-surface $-1 0 0 -22.65026564417029 0 0 1 1 0 0 forward_v I I I I #
coedge $-1 $41 $42 $43 $44 forward $16 $-1 #
face $-1 $45 $46 $10 $-1 $47 reversed single #
loop $-1 $-1 $48 $18 #
plane-surface $-1 -78.80001220740381 8.0409435543587406 13.336657541450364 -0.62932039886446345 0 0.77714595512881146 0.77714595512881146 0 0.62932039886446345 forward_v I I I I #
coedge $-1 $49 $50 $51 $52 reversed $19 $-1 #
face $-1 $-1 $53 $11 $-1 $54 forward single #
loop $-1 $55 $56 $21 #
cone-surface $-1 -66.813396707568145 8.0409435543587406 10.292715279390066 0.62932039886446345 0 -0.77714595512881146 1.1657189326932171 0 0.94398059829669512 1 I I -0.70710678118654757 0.70710678118654757 1.5 forward I I I I #
loop $-1 $-1 $57 $14 #
coedge $-1 $36 $36 $58 $59 reversed $22 $-1 #
face $-1 $60 $61 $9 $-1 $62 reversed single #
loop $-1 $-1 $63 $24 #
plane-surface $-1 0 -46.977957044183171 0 0 1 0 0 0 1 forward_v I I I I #
coedge $-1 $64 $65 $66 $67 forward $25 $-1 #
coedge $-1 $68 $27 $69 $70 forward $16 $-1 #
coedge $-1 $27 $68 $71 $72 forward $16 $-1 #
coedge $-1 $73 $74 $27 $44 reversed $75 $-1 #
edge $-1 $76 -46.977957044183171 $77 46.977957044183171 $43 $78 forward 7 unknown #
face $-1 $79 $80 $10 $-1 $81 reversed single #
loop $-1 $-1 $82 $28 #
plane-surface $-1 -177.9809224331797 17.986644589278114 135.81487904362001 0 -1 0 0.62932039886446345 0 -0.77714595512881146 forward_v I I I I #
coedge $-1 $83 $84 $85 $86 reversed $29 $-1 #
coedge $-1 $50 $31 $87 $88 reversed $19 $-1 #
coedge $-1 $31 $49 $83 $89 reversed $19 $-1 #
coedge $-1 $85 $90 $31 $52 forward $91 $-1 #
edge $-1 $92 10.190449009186054 $93 21.691796935844565 $51 $94 forward 7 unknown #
loop $-1 $-1 $58 $32 #
plane-surface $-1 -78.80001220740381 8.0409435543587406 13.336657541450364 -0.62932039886446345 0 0.77714595512881146 0.77714595512881146 0 0.62932039886446345 forward_v I I I I #
loop $-1 $-1 $95 $21 #
coedge $-1 $56 $56 $57 $96 reversed $33 $-1 #
coedge $-1 $57 $57 $56 $96 forward $35 $-1 #
coedge $-1 $58 $58 $36 $59 forward $53 $-1 #
edge $-1 $97 0 $97 6.2831853071796004 $58 $98 forward 7 unknown #
face $-1 $99 $100 $9 $-1 $101 reversed single #
loop $-1 $-1 $102 $37 #
plane-surface $-1 -78.800012207403796 0 0 1 0 0 0 0 -1 forward_v I I I I #
coedge $-1 $103 $71 $104 $105 forward $38 $-1 #
coedge $-1 $106 $40 $103 $107 forward $25 $-1 #
coedge $-1 $40 $106 $108 $109 forward $25 $-1 #
coedge $-1 $74 $73 $40 $67 reversed $75 $-1 #
edge $-1 $110 -46.977957044183171 $111 46.977957044183171 $66 $112 forward 7 unknown #
coedge $-1 $42 $41 $113 $114 forward $16 $-1 #
coedge $-1 $115 $116 $41 $70 reversed $100 $-1 #
edge $-1 $77 -78.800012207403796 $117 78.800012207403796 $69 $118 forward 7 unknown #
coedge $-1 $63 $119 $42 $72 reversed $38 $-1 #
edge $-1 $120 -78.800012207403796 $76 78.800012207403796 $71 $121 forward 7 unknown #
coedge $-1 $66 $43 $119 $122 forward $75 $-1 #
coedge $-1 $43 $66 $115 $123 reversed $75 $-1 #
loop $-1 $-1 $73 $99 #
vertex $-1 $44 $124 #
vertex $-1 $44 $125 #
straight-curve $-1 78.800012207403796 0 22.65026564417029 0 1 0 I I #
face $-1 $-1 $91 $10 $-1 $126 forward single #
loop $-1 $-1 $127 $45 #
plane-surface $-1 -78.800012207403796 0 0 1 0 0 0 0 -1 forward_v I I I I #
coedge $-1 $128 $129 $130 $131 reversed $46 $-1 #
coedge $-1 $132 $48 $50 $89 forward $29 $-1 #
coedge $-1 $48 $132 $128 $133 forward $29 $-1 #
coedge $-1 $130 $51 $48 $86 forward $91 $-1 #
edge $-1 $93 -5.9252292577400034 $134 13.966172812098744 $85 $135 forward 7 unknown #
coedge $-1 $136 $137 $49 $88 forward $80 $-1 #
edge $-1 $138 -54.570781980359627 $92 -45.257173877639715 $87 $139 forward 7 unknown #
edge $-1 $93 -14.799469585802818 $138 -1.7751293829024333e-014 $50 $140 forward 7 unknown #
coedge $-1 $51 $130 $136 $141 forward $91 $-1 #
loop $-1 $-1 $130 $79 #
vertex $-1 $88 $142 #
vertex $-1 $52 $143 #
straight-curve $-1 -88.99046121658985 -1.9047574805606331 22.65026564417029 1 0 0 I I #
coedge $-1 $95 $95 $-1 $144 reversed $55 $-1 #
edge $-1 $145 0 $145 6.2831853071796004 $56 $146 forward 7 unknown #
vertex $-1 $59 $147 #
ellipse-curve $-1 -73.049338244074534 8.0409435543587406 17.993461592810334 -0.62932039886446345 0 0.77714595512881146 2.3314378653864343 0 1.8879611965933902 1 I I #
face $-1 $-1 $75 $9 $-1 $148 reversed single #
loop $-1 $-1 $115 $60 #
plane-surface $-1 0 46.977957044183171 0 0 -1 0 0 0 -1 forward_v I I I I #
coedge $-1 $149 $113 $116 $150 forward $61 $-1 #
coedge $-1 $119 $63 $64 $107 reversed $38 $-1 #
coedge $-1 $113 $149 $63 $105 reversed $61 $-1 #
edge $-1 $120 -22.65026564417029 $151 22.65026564417029 $104 $152 forward 7 unknown #
coedge $-1 $65 $64 $149 $153 forward $25 $-1 #
edge $-1 $111 -78.800012207403796 $151 78.800012207403796 $103 $154 forward 7 unknown #
coedge $-1 $116 $115 $65 $109 reversed $100 $-1 #
edge $-1 $155 -78.800012207403796 $110 78.800012207403796 $108 $156 forward 7 unknown #
vertex $-1 $67 $157 #
vertex $-1 $122 $158 #
straight-curve $-1 78.800012207403796 0 -22.65026564417029 0 -1 0 I I #
coedge $-1 $102 $104 $68 $114 reversed $61 $-1 #
edge $-1 $117 -46.977957044183171 $120 46.977957044183171 $113 $159 forward 7 unknown #
coedge $-1 $108 $69 $74 $123 forward $100 $-1 #
coedge $-1 $69 $108 $102 $150 reversed $100 $-1 #
vertex $-1 $70 $160 #
straight-curve $-1 0 46.977957044183171 22.65026564417029 -1 0 0 I I #
coedge $-1 $71 $103 $73 $122 reversed $38 $-1 #
vertex $-1 $114 $161 #
straight-curve $-1 0 -46.977957044183171 22.65026564417029 1 0 0 I I #
edge $-1 $76 -22.65026564417029 $111 22.65026564417029 $73 $162 forward 7 unknown #
edge $-1 $77 -22.65026564417029 $110 22.65026564417029 $74 $163 forward 7 unknown #
point $-1 78.800012207403796 -46.977957044183171 22.65026564417029 #
point $-1 78.800012207403796 46.977957044183171 22.65026564417029 #
plane-surface $-1 0 0 22.65026564417029 0 0 1 1 0 0 forward_v I I I I #
coedge $-1 $137 $136 $129 $164 forward $80 $-1 #
coedge $-1 $129 $82 $84 $133 reversed $46 $-1 #
coedge $-1 $82 $128 $127 $164 reversed $46 $-1 #
coedge $-1 $90 $85 $82 $131 forward $91 $-1 #
edge $-1 $134 -21.691796935844565 $165 -10.190449009186054 $130 $166 forward 7 unknown #
coedge $-1 $84 $83 $137 $167 reversed $29 $-1 #
edge $-1 $168 1.7751293829024333e-014 $134 14.799469585802818 $128 $169 forward 7 unknown #
vertex $-1 $86 $170 #
straight-curve $-1 -67.298664280745285 4.0204717771793703 22.65026564417029 0 1 0 I I #
coedge $-1 $127 $87 $90 $141 reversed $80 $-1 #
coedge $-1 $87 $127 $132 $167 forward $80 $-1 #
vertex $-1 $88 $171 #
straight-curve $-1 -78.800012207403796 -1.9047574805606331 67.907439521810005 0 0 1 I I #
straight-curve $-1 -78.80001220740381 -1.9047574805606331 13.336657541450364 -0.77714595512881146 0 -0.62932039886446345 I I #
edge $-1 $165 -17.986644589278114 $92 1.9047574805606331 $136 $172 forward 7 unknown #
point $-1 -78.800012207403796 -1.9047574805606331 22.65026564417029 #
point $-1 -67.298664280745285 -1.9047574805606331 22.65026564417029 #
edge $-1 $173 1 $173 0 $95 $-1 forward 7 unknown #
vertex $-1 $96 $174 #
ellipse-curve $-1 -67.757377305864836 8.0409435543587406 11.458434212083283 -0.62932039886446345 0 0.77714595512881146 2.3314378653864343 0 1.8879611965933902 1 I I #
point $-1 -70.717900378688086 8.0409435543587406 19.8814227894037 #
plane-surface $-1 78.800012207403796 0 0 -1 0 0 0 0 1 forward_v I I I I #
coedge $-1 $104 $102 $106 $153 reversed $61 $-1 #
edge $-1 $117 -22.65026564417029 $155 22.65026564417029 $116 $175 forward 7 unknown #
vertex $-1 $153 $176 #
straight-curve $-1 -78.800012207403796 -46.977957044183171 0 0 0 -1 I I #
edge $-1 $151 -46.977957044183171 $155 46.977957044183171 $149 $177 forward 7 unknown #
straight-curve $-1 0 -46.977957044183171 -22.65026564417029 -1 0 0 I I #
vertex $-1 $109 $178 #
straight-curve $-1 0 46.977957044183171 -22.65026564417029 1 0 0 I I #
point $-1 78.800012207403796 46.977957044183171 -22.65026564417029 #
point $-1 78.800012207403796 -46.977957044183171 -22.65026564417029 #
straight-curve $-1 -78.800012207403796 0 22.65026564417029 0 -1 0 I I #
point $-1 -78.800012207403796 46.977957044183171 22.65026564417029 #
point $-1 -78.800012207403796 -46.977957044183171 22.65026564417029 #
straight-curve $-1 78.800012207403796 -46.977957044183171 0 0 0 -1 I I #
straight-curve $-1 78.800012207403796 46.977957044183171 0 0 0 -1 I I #
edge $-1 $165 45.257173877639715 $168 54.570781980359627 $127 $179 forward 7 unknown #
vertex $-1 $141 $180 #
straight-curve $-1 -88.99046121658985 17.986644589278114 22.65026564417029 -1 0 0 I I #
edge $-1 $168 -13.966172812098744 $138 5.9252292577400034 $137 $181 forward 7 unknown #
vertex $-1 $167 $182 #
straight-curve $-1 -78.80001220740381 17.986644589278114 13.336657541450364 0.77714595512881146 0 0.62932039886446345 I I #
point $-1 -67.298664280745285 17.986644589278114 22.65026564417029 #
point $-1 -78.800012207403796 -1.9047574805606331 13.336657541450375 #
straight-curve $-1 -78.800012207403796 0 22.65026564417029 0 -1 0 I I #
vertex $-1 $144 $183 #
point $-1 -65.425939440478402 8.0409435543587406 13.346395408676674 #
straight-curve $-1 -78.800012207403796 46.977957044183171 0 0 0 -1 I I #
point $-1 -78.800012207403796 -46.977957044183171 -22.65026564417029 #
straight-curve $-1 -78.800012207403796 0 -22.65026564417029 0 1 0 I I #
point $-1 -78.800012207403796 46.977957044183171 -22.65026564417029 #
straight-curve $-1 -78.800012207403796 17.986644589278114 67.907439521810005 0 0 -1 I I #
point $-1 -78.800012207403796 17.986644589278114 22.65026564417029 #
straight-curve $-1 -78.800012207403796 4.0204717771793703 13.336657541450368 0 -1 0 I I #
point $-1 -78.800012207403796 17.986644589278114 13.336657541450375 #
point $-1 -65.869416109271455 8.0409435543587406 9.1269963466968491 #
End-of-ACIS-data 