500 0 8 0           
7 Unknown 11 ACIS 5.0 NT 24 Fri Mar 26 00:18:33 1999 
-1 9.9999999999999995e-007 1e-010 
body $-1 $8 $-1 $9 #
body $-1 $10 $-1 $11 #
body $-1 $12 $-1 $13 #
body $-1 $14 $-1 $15 #
body $-1 $16 $-1 $17 #
body $-1 $18 $-1 $19 #
body $-1 $20 $-1 $21 #
body $-1 $22 $-1 $23 #
lump $-1 $-1 $24 $0 #
transform $-1 1 0 0 0 1 0 0 0 1 46.790978728598894 27.759858036689863 9.4072768219613607 1 rotate no_reflect no_shear #
lump $-1 $-1 $25 $1 #
transform $-1 1 0 0 0 1 0 0 0 1 46.790978728598894 27.759858036689863 9.4072768219613607 1 rotate no_reflect no_shear #
lump $-1 $-1 $26 $2 #
transform $-1 1 0 0 0 1 0 0 0 1 46.790978728598894 27.759858036689863 9.4072768219613607 1 rotate no_reflect no_shear #
lump $-1 $-1 $27 $3 #
transform $-1 1 0 0 0 1 0 0 0 1 46.790978728598894 27.759858036689863 9.4072768219613607 1 rotate no_reflect no_shear #
lump $-1 $-1 $28 $4 #
transform $-1 1 0 0 0 1 0 0 0 1 46.790978728598894 27.759858036689863 9.4072768219613607 1 rotate no_reflect no_shear #
lump $-1 $-1 $29 $5 #
transform $-1 1 0 0 0 1 0 0 0 1 46.790978728598894 27.759858036689863 9.4072768219613607 1 rotate no_reflect no_shear #
lump $-1 $-1 $30 $6 #
transform $-1 1 0 0 0 1 0 0 0 1 46.790978728598894 27.759858036689863 9.4072768219613607 1 rotate no_reflect no_shear #
lump $-1 $-1 $31 $7 #
transform $-1 1 0 0 0 1 0 0 0 1 46.790978728598894 27.759858036689863 9.4072768219613607 1 rotate no_reflect no_shear #
shell $-1 $-1 $-1 $32 $-1 $8 #
shell $-1 $-1 $-1 $33 $-1 $10 #
shell $-1 $-1 $-1 $34 $-1 $12 #
shell $-1 $-1 $-1 $35 $-1 $14 #
shell $-1 $-1 $-1 $36 $-1 $16 #
shell $-1 $-1 $-1 $37 $-1 $18 #
shell $-1 $-1 $-1 $38 $-1 $20 #
shell $-1 $-1 $-1 $39 $-1 $22 #
face $-1 $40 $41 $24 $-1 $42 forward single #
face $-1 $43 $44 $25 $-1 $45 forward single #
face $-1 $46 $47 $26 $-1 $48 reversed single #
face $-1 $49 $50 $27 $-1 $51 forward single #
face $-1 $52 $53 $28 $-1 $54 forward single #
face $-1 $55 $56 $29 $-1 $57 reversed single #
face $-1 $58 $59 $30 $-1 $60 forward single #
face $-1 $61 $62 $31 $-1 $63 forward single #
face $-1 $64 $65 $24 $-1 $66 reversed single #
loop $-1 $-1 $67 $32 #
plane-surface $-1 0 0 9.4072768219613607 0 0 1 1 0 0 forward_v I I I I #
face $-1 $68 $69 $25 $-1 $70 reversed single #
loop $-1 $-1 $71 $33 #
plane-surface $-1 0 -27.759858036689863 0 0 1 0 0 0 1 forward_v I I I I #
face $-1 $72 $73 $26 $-1 $74 reversed single #
loop $-1 $-1 $75 $34 #
plane-surface $-1 -105.68401352207987 -20.635471525532584 75.111652117301801 0 1 0 -0.62932039886446345 0 0.77714595512881146 forward_v I I I I #
face $-1 $76 $77 $27 $-1 $78 forward single #
loop $-1 $79 $80 $35 #
cone-surface $-1 -41.823525495342842 -18.022341024813336 5.1162778934042432 0.62932039886446345 0 -0.77714595512881146 0.77714595512881146 0 0.62932039886446345 1 I I 0 1 1 forward I I I I #
face $-1 $81 $82 $28 $-1 $83 forward single #
loop $-1 $84 $85 $36 #
cone-surface $-1 -41.823525495342842 -14.102645273734471 5.1162778934042432 0.62932039886446345 0 -0.77714595512881146 0.77714595512881146 0 0.62932039886446345 1 I I 0 1 1 forward I I I I #
face $-1 $86 $87 $29 $-1 $88 reversed single #
loop $-1 $-1 $89 $37 #
plane-surface $-1 32.957173811182081 -11.489514773015227 134.00468691078277 0 -1 0 -0.62932039886446345 0 -0.77714595512881146 forward_v I I I I #
face $-1 $90 $91 $30 $-1 $92 forward single #
loop $-1 $93 $94 $38 #
cone-surface $-1 41.823525495342842 -18.022341024813336 5.1162778934042397 -0.62932039886446345 0 -0.77714595512881146 0.77714595512881146 0 -0.62932039886446345 1 I I 0 1 1 forward I I I I #
face $-1 $95 $96 $31 $-1 $97 forward single #
loop $-1 $98 $99 $39 #
cone-surface $-1 41.823525495342842 -14.102645273734471 5.1162778934042397 -0.62932039886446345 0 -0.77714595512881146 0.77714595512881146 0 -0.62932039886446345 1 I I 0 1 1 forward I I I I #
face $-1 $100 $101 $24 $-1 $102 reversed single #
loop $-1 $-1 $103 $40 #
plane-surface $-1 0 0 -9.4072768219613607 0 0 1 1 0 0 forward_v I I I I #
coedge $-1 $104 $105 $106 $107 forward $41 $-1 #
face $-1 $108 $109 $25 $-1 $110 reversed single #
loop $-1 $-1 $111 $43 #
plane-surface $-1 0 0 -9.4072768219613607 0 0 1 1 0 0 forward_v I I I I #
coedge $-1 $112 $113 $114 $115 forward $44 $-1 #
face $-1 $116 $117 $26 $-1 $118 reversed single #
loop $-1 $-1 $119 $46 #
plane-surface $-1 -46.790978728598901 -16.062493149273905 2.3848124064040235 -0.62932039886446345 0 0.77714595512881146 0.77714595512881146 0 0.62932039886446345 forward_v I I I I #
coedge $-1 $120 $121 $122 $123 reversed $47 $-1 #
face $-1 $-1 $124 $27 $-1 $125 forward single #
loop $-1 $126 $127 $49 #
cone-surface $-1 -40.877422642824691 -18.022341024813336 3.9479381950613863 0.62932039886446345 0 -0.77714595512881146 0.38857297756440573 0 0.31466019943223172 1 I I -0.70710678118654746 0.70710678118654746 0.5 forward I I I I #
loop $-1 $-1 $128 $35 #
coedge $-1 $80 $80 $129 $130 reversed $50 $-1 #
face $-1 $-1 $131 $28 $-1 $132 forward single #
loop $-1 $133 $134 $52 #
cone-surface $-1 -40.877422642824691 -14.102645273734471 3.9479381950613863 0.62932039886446345 0 -0.77714595512881146 0.38857297756440573 0 0.31466019943223172 1 I I -0.70710678118654746 0.70710678118654746 0.5 forward I I I I #
loop $-1 $-1 $135 $36 #
coedge $-1 $85 $85 $136 $137 reversed $53 $-1 #
face $-1 $138 $139 $29 $-1 $140 reversed single #
loop $-1 $-1 $141 $55 #
plane-surface $-1 -25.935860982298884 -16.062493149273905 61.277847199884988 0.62932039886446345 0 0.77714595512881146 0.77714595512881146 0 -0.62932039886446345 forward_v I I I I #
coedge $-1 $142 $143 $144 $145 reversed $56 $-1 #
face $-1 $-1 $146 $30 $-1 $147 forward single #
loop $-1 $148 $149 $58 #
cone-surface $-1 40.877422642824691 -18.022341024813336 3.9479381950613828 -0.62932039886446345 0 -0.77714595512881146 0.38857297756440573 0 -0.31466019943223172 1 I I -0.70710678118654746 0.70710678118654746 0.5 forward I I I I #
loop $-1 $-1 $150 $38 #
coedge $-1 $94 $94 $151 $152 reversed $59 $-1 #
face $-1 $-1 $153 $31 $-1 $154 forward single #
loop $-1 $155 $156 $61 #
cone-surface $-1 40.877422642824691 -14.102645273734471 3.9479381950613828 -0.62932039886446345 0 -0.77714595512881146 0.38857297756440573 0 -0.31466019943223172 1 I I -0.70710678118654746 0.70710678118654746 0.5 forward I I I I #
loop $-1 $-1 $157 $39 #
coedge $-1 $99 $99 $158 $159 reversed $62 $-1 #
face $-1 $160 $161 $24 $-1 $162 reversed single #
loop $-1 $-1 $163 $64 #
plane-surface $-1 0 -27.759858036689863 0 0 1 0 0 0 1 forward_v I I I I #
coedge $-1 $164 $165 $166 $167 forward $65 $-1 #
coedge $-1 $168 $67 $169 $170 forward $41 $-1 #
coedge $-1 $67 $168 $171 $172 forward $41 $-1 #
coedge $-1 $173 $174 $67 $107 reversed $175 $-1 #
edge $-1 $176 -27.759858036689863 $177 27.759858036689863 $106 $178 forward 7 unknown #
face $-1 $179 $180 $25 $-1 $181 forward single #
loop $-1 $-1 $182 $68 #
plane-surface $-1 46.790978728598894 0 0 -1 0 0 0 0 1 forward_v I I I I #
coedge $-1 $183 $184 $185 $186 forward $69 $-1 #
coedge $-1 $185 $71 $182 $187 reversed $44 $-1 #
coedge $-1 $71 $185 $188 $189 reversed $44 $-1 #
coedge $-1 $190 $191 $71 $115 reversed $180 $-1 #
edge $-1 $192 -46.790978728598894 $193 46.790978728598894 $114 $194 forward 7 unknown #
face $-1 $195 $196 $26 $-1 $197 forward single #
loop $-1 $-1 $198 $72 #
plane-surface $-1 -105.68401352207987 -11.489514773015227 75.111652117301801 0 -1 0 0.62932039886446345 0 -0.77714595512881146 forward_v I I I I #
coedge $-1 $199 $200 $201 $202 reversed $73 $-1 #
coedge $-1 $121 $75 $203 $204 reversed $47 $-1 #
coedge $-1 $75 $120 $199 $205 reversed $47 $-1 #
coedge $-1 $201 $206 $75 $123 forward $196 $-1 #
edge $-1 $207 6.0510280324410388 $208 14.723049192781289 $122 $209 forward 7 unknown #
loop $-1 $-1 $129 $76 #
plane-surface $-1 -46.790978728598901 -16.062493149273905 2.3848124064040235 -0.62932039886446345 0 0.77714595512881146 0.77714595512881146 0 0.62932039886446345 forward_v I I I I #
loop $-1 $-1 $210 $49 #
coedge $-1 $127 $127 $128 $211 reversed $77 $-1 #
coedge $-1 $128 $128 $127 $211 forward $79 $-1 #
coedge $-1 $129 $129 $80 $130 forward $124 $-1 #
edge $-1 $212 0 $212 6.2831853071796004 $129 $213 forward 7 unknown #
loop $-1 $-1 $136 $81 #
plane-surface $-1 -46.790978728598901 -16.062493149273905 2.3848124064040235 -0.62932039886446345 0 0.77714595512881146 0.77714595512881146 0 0.62932039886446345 forward_v I I I I #
loop $-1 $-1 $214 $52 #
coedge $-1 $134 $134 $135 $215 reversed $82 $-1 #
coedge $-1 $135 $135 $134 $215 forward $84 $-1 #
coedge $-1 $136 $136 $85 $137 forward $131 $-1 #
edge $-1 $216 0 $216 6.2831853071796004 $136 $217 forward 7 unknown #
face $-1 $218 $219 $29 $-1 $220 reversed single #
loop $-1 $-1 $221 $86 #
plane-surface $-1 32.957173811182081 -20.635471525532584 134.00468691078277 0 1 0 0.62932039886446345 0 0.77714595512881146 forward_v I I I I #
coedge $-1 $222 $223 $224 $225 reversed $87 $-1 #
coedge $-1 $143 $89 $226 $227 reversed $56 $-1 #
coedge $-1 $89 $142 $222 $228 reversed $56 $-1 #
coedge $-1 $224 $229 $89 $145 forward $230 $-1 #
edge $-1 $231 -30.312391823007854 $232 -21.640370662667589 $144 $233 forward 7 unknown #
loop $-1 $-1 $151 $90 #
plane-surface $-1 -25.935860982298884 -16.062493149273905 61.277847199884988 0.62932039886446345 0 0.77714595512881146 0.77714595512881146 0 -0.62932039886446345 forward_v I I I I #
loop $-1 $-1 $234 $58 #
coedge $-1 $149 $149 $150 $235 reversed $91 $-1 #
coedge $-1 $150 $150 $149 $235 forward $93 $-1 #
coedge $-1 $151 $151 $94 $152 forward $146 $-1 #
edge $-1 $236 0 $236 6.2831853071796004 $151 $237 forward 7 unknown #
loop $-1 $-1 $158 $95 #
plane-surface $-1 -25.935860982298884 -16.062493149273905 61.277847199884988 0.62932039886446345 0 0.77714595512881146 0.77714595512881146 0 -0.62932039886446345 forward_v I I I I #
loop $-1 $-1 $238 $61 #
coedge $-1 $156 $156 $157 $239 reversed $96 $-1 #
coedge $-1 $157 $157 $156 $239 forward $98 $-1 #
coedge $-1 $158 $158 $99 $159 forward $153 $-1 #
edge $-1 $240 0 $240 6.2831853071796004 $158 $241 forward 7 unknown #
face $-1 $242 $243 $24 $-1 $244 reversed single #
loop $-1 $-1 $245 $100 #
plane-surface $-1 -46.790978728598894 0 0 1 0 0 0 0 -1 forward_v I I I I #
coedge $-1 $171 $246 $173 $247 reversed $101 $-1 #
coedge $-1 $248 $103 $246 $249 forward $65 $-1 #
coedge $-1 $103 $248 $250 $251 forward $65 $-1 #
coedge $-1 $174 $173 $103 $167 reversed $175 $-1 #
edge $-1 $252 -27.759858036689863 $253 27.759858036689863 $166 $254 forward 7 unknown #
coedge $-1 $105 $104 $255 $256 forward $41 $-1 #
coedge $-1 $257 $258 $104 $170 reversed $243 $-1 #
edge $-1 $177 -46.790978728598894 $259 46.790978728598894 $169 $260 forward 7 unknown #
coedge $-1 $261 $163 $105 $172 reversed $101 $-1 #
edge $-1 $262 -46.790978728598894 $176 46.790978728598894 $171 $263 forward 7 unknown #
coedge $-1 $166 $106 $163 $247 forward $175 $-1 #
coedge $-1 $106 $166 $257 $264 reversed $175 $-1 #
loop $-1 $-1 $173 $242 #
vertex $-1 $107 $265 #
vertex $-1 $107 $266 #
straight-curve $-1 46.790978728598894 0 9.4072768219613607 0 1 0 I I #
face $-1 $267 $268 $25 $-1 $269 reversed single #
loop $-1 $-1 $191 $108 #
plane-surface $-1 0 -31.322051292268505 -5.4963967803303895 0 0 1 1 0 0 forward_v I I I I #
coedge $-1 $270 $271 $112 $187 forward $109 $-1 #
coedge $-1 $272 $111 $271 $273 forward $69 $-1 #
coedge $-1 $111 $272 $274 $275 forward $69 $-1 #
coedge $-1 $113 $112 $111 $186 reversed $44 $-1 #
edge $-1 $276 -46.790978728598894 $277 46.790978728598894 $111 $278 forward 7 unknown #
edge $-1 $277 -9.4072768219613607 $193 -5.4963967803303895 $182 $279 forward 7 unknown #
coedge $-1 $274 $280 $113 $189 forward $281 $-1 #
edge $-1 $192 5.4963967803303895 $276 9.4072768219613607 $188 $282 forward 7 unknown #
coedge $-1 $283 $114 $280 $284 forward $180 $-1 #
coedge $-1 $114 $283 $270 $285 forward $180 $-1 #
vertex $-1 $189 $286 #
vertex $-1 $285 $287 #
straight-curve $-1 0 -27.759858036689863 -5.4963967803303895 1 0 0 I I #
face $-1 $-1 $288 $26 $-1 $289 reversed single #
loop $-1 $-1 $122 $116 #
plane-surface $-1 0 0 9.4072768219613607 0 0 1 1 0 0 forward_v I I I I #
coedge $-1 $290 $291 $292 $293 reversed $117 $-1 #
coedge $-1 $294 $119 $121 $205 forward $73 $-1 #
coedge $-1 $119 $294 $290 $295 forward $73 $-1 #
coedge $-1 $292 $122 $119 $202 forward $196 $-1 #
edge $-1 $208 -12.604224950895631 $296 -3.4582681983782741 $201 $297 forward 7 unknown #
coedge $-1 $298 $299 $120 $204 forward $288 $-1 #
edge $-1 $300 -35.17101365224687 $207 -28.14854923668954 $203 $301 forward 7 unknown #
edge $-1 $208 -11.158806274559938 $300 -9.1551213131864128e-015 $121 $302 forward 7 unknown #
coedge $-1 $122 $292 $298 $303 forward $196 $-1 #
vertex $-1 $204 $304 #
vertex $-1 $123 $305 #
straight-curve $-1 -52.842006761039933 -20.635471525532584 9.4072768219613607 1 0 0 I I #
coedge $-1 $210 $210 $-1 $306 reversed $126 $-1 #
edge $-1 $307 0 $307 6.2831853071796004 $127 $308 forward 7 unknown #
vertex $-1 $130 $309 #
ellipse-curve $-1 -42.454968148428769 -18.022341024813336 5.8960446141826974 -0.62932039886446345 0 0.77714595512881146 0.77714595512881146 0 0.62932039886446345 1 I I #
coedge $-1 $214 $214 $-1 $310 reversed $133 $-1 #
edge $-1 $311 0 $311 6.2831853071796004 $134 $312 forward 7 unknown #
vertex $-1 $137 $313 #
ellipse-curve $-1 -42.454968148428769 -14.102645273734471 5.8960446141826974 -0.62932039886446345 0 0.77714595512881146 0.77714595512881146 0 0.62932039886446345 1 I I #
face $-1 $-1 $230 $29 $-1 $314 forward single #
loop $-1 $-1 $315 $138 #
plane-surface $-1 46.790978728598894 0 0 -1 0 0 0 0 1 forward_v I I I I #
coedge $-1 $316 $317 $318 $319 reversed $139 $-1 #
coedge $-1 $320 $141 $143 $228 forward $87 $-1 #
coedge $-1 $141 $320 $316 $321 forward $87 $-1 #
coedge $-1 $318 $144 $141 $225 forward $230 $-1 #
edge $-1 $232 3.4582681983782741 $322 12.604224950895631 $224 $323 forward 7 unknown #
coedge $-1 $324 $325 $142 $227 forward $219 $-1 #
edge $-1 $326 -64.61753104898736 $231 -57.595066633430022 $226 $327 forward 7 unknown #
edge $-1 $232 82.423151182637838 $326 93.581957457197802 $143 $328 forward 7 unknown #
coedge $-1 $144 $318 $324 $329 forward $230 $-1 #
loop $-1 $-1 $318 $218 #
vertex $-1 $227 $330 #
vertex $-1 $145 $331 #
straight-curve $-1 16.47858690559104 -11.489514773015227 9.4072768219613607 -1 0 0 I I #
coedge $-1 $234 $234 $-1 $332 reversed $148 $-1 #
edge $-1 $333 0 $333 6.2831853071796004 $149 $334 forward 7 unknown #
vertex $-1 $152 $335 #
ellipse-curve $-1 42.454968148428762 -18.022341024813336 5.8960446141826903 0.62932039886446345 0 0.77714595512881146 0.77714595512881146 0 -0.62932039886446345 1 I I #
coedge $-1 $238 $238 $-1 $336 reversed $155 $-1 #
edge $-1 $337 0 $337 6.2831853071796004 $156 $338 forward 7 unknown #
vertex $-1 $159 $339 #
ellipse-curve $-1 42.454968148428762 -14.102645273734471 5.8960446141826903 0.62932039886446345 0 0.77714595512881146 0.77714595512881146 0 -0.62932039886446345 1 I I #
face $-1 $-1 $175 $24 $-1 $340 reversed single #
loop $-1 $-1 $257 $160 #
plane-surface $-1 0 27.759858036689863 0 0 -1 0 0 0 -1 forward_v I I I I #
coedge $-1 $341 $255 $258 $342 forward $161 $-1 #
coedge $-1 $163 $261 $164 $249 reversed $101 $-1 #
edge $-1 $176 -9.4072768219613607 $253 9.4072768219613607 $173 $343 forward 7 unknown #
coedge $-1 $165 $164 $341 $344 forward $65 $-1 #
edge $-1 $253 -46.790978728598894 $345 46.790978728598894 $246 $346 forward 7 unknown #
coedge $-1 $258 $257 $165 $251 reversed $243 $-1 #
edge $-1 $347 -46.790978728598894 $252 46.790978728598894 $250 $348 forward 7 unknown #
vertex $-1 $167 $349 #
vertex $-1 $247 $350 #
straight-curve $-1 46.790978728598894 0 -9.4072768219613607 0 -1 0 I I #
coedge $-1 $245 $351 $168 $256 reversed $161 $-1 #
edge $-1 $259 -27.759858036689863 $262 27.759858036689863 $255 $352 forward 7 unknown #
coedge $-1 $250 $169 $174 $264 forward $243 $-1 #
coedge $-1 $169 $250 $245 $342 reversed $243 $-1 #
vertex $-1 $170 $353 #
straight-curve $-1 0 27.759858036689863 9.4072768219613607 -1 0 0 I I #
coedge $-1 $246 $171 $351 $354 forward $101 $-1 #
vertex $-1 $256 $355 #
straight-curve $-1 0 -27.759858036689863 9.4072768219613607 1 0 0 I I #
edge $-1 $177 -9.4072768219613607 $252 9.4072768219613607 $174 $356 forward 7 unknown #
point $-1 46.790978728598894 -27.759858036689863 9.4072768219613607 #
point $-1 46.790978728598894 27.759858036689863 9.4072768219613607 #
face $-1 $-1 $281 $25 $-1 $357 reversed single #
loop $-1 $-1 $358 $179 #
plane-surface $-1 0 -34.884244547847146 -7.4518368011458751 0 1 0 0 0 1 forward_v I I I I #
coedge $-1 $359 $182 $191 $285 reversed $109 $-1 #
coedge $-1 $182 $359 $183 $273 reversed $109 $-1 #
coedge $-1 $184 $183 $360 $361 forward $69 $-1 #
edge $-1 $277 27.759858036689863 $362 34.884244547847146 $271 $363 forward 7 unknown #
coedge $-1 $364 $188 $184 $275 reversed $281 $-1 #
edge $-1 $365 -34.884244547847146 $276 -27.759858036689863 $274 $366 forward 7 unknown #
vertex $-1 $189 $367 #
vertex $-1 $273 $368 #
straight-curve $-1 0 -27.759858036689863 -9.4072768219613607 1 0 0 I I #
straight-curve $-1 46.790978728598894 -27.759858036689863 0 0 0 1 I I #
coedge $-1 $188 $364 $190 $284 reversed $281 $-1 #
loop $-1 $-1 $188 $267 #
straight-curve $-1 -46.790978728598894 -27.759858036689863 0 0 0 -1 I I #
coedge $-1 $191 $190 $369 $370 forward $180 $-1 #
edge $-1 $192 -3.5621932555786415 $371 3.5621932555786415 $280 $372 forward 7 unknown #
edge $-1 $373 -3.5621932555786415 $193 3.5621932555786415 $270 $374 forward 7 unknown #
point $-1 -46.790978728598894 -27.759858036689863 -5.4963967803303895 #
point $-1 46.790978728598894 -27.759858036689863 -5.4963967803303895 #
loop $-1 $-1 $203 $195 #
plane-surface $-1 -46.790978728598894 0 0 1 0 0 0 0 -1 forward_v I I I I #
coedge $-1 $291 $198 $200 $295 reversed $117 $-1 #
coedge $-1 $198 $290 $375 $376 reversed $117 $-1 #
coedge $-1 $206 $201 $198 $293 forward $196 $-1 #
edge $-1 $296 -14.723049192781289 $377 -6.0510280324410388 $292 $378 forward 7 unknown #
coedge $-1 $200 $199 $299 $379 reversed $73 $-1 #
edge $-1 $380 9.1551213131864128e-015 $296 11.158806274559938 $290 $381 forward 7 unknown #
vertex $-1 $202 $382 #
straight-curve $-1 -38.118957568258644 -8.0312465746369526 9.4072768219613607 0 1 0 I I #
coedge $-1 $375 $203 $206 $303 reversed $288 $-1 #
coedge $-1 $203 $375 $294 $379 forward $288 $-1 #
vertex $-1 $204 $383 #
straight-curve $-1 -46.790978728598894 -20.635471525532584 37.555826058650901 0 0 1 I I #
straight-curve $-1 -46.790978728598901 -20.635471525532584 2.3848124064040235 -0.77714595512881146 0 -0.62932039886446345 I I #
edge $-1 $377 11.489514773015227 $207 20.635471525532584 $298 $384 forward 7 unknown #
point $-1 -46.790978728598894 -20.635471525532584 9.4072768219613607 #
point $-1 -38.118957568258644 -20.635471525532584 9.4072768219613607 #
edge $-1 $385 1 $385 0 $210 $-1 forward 7 unknown #
vertex $-1 $211 $386 #
ellipse-curve $-1 -41.192082842256923 -18.022341024813336 4.3365111726257917 -0.62932039886446345 0 0.77714595512881146 0.77714595512881146 0 0.62932039886446345 1 I I #
point $-1 -41.677822193299953 -18.022341024813336 6.525365013047157 #
edge $-1 $387 1 $387 0 $214 $-1 forward 7 unknown #
vertex $-1 $215 $388 #
ellipse-curve $-1 -41.192082842256923 -14.102645273734471 4.3365111726257917 -0.62932039886446345 0 0.77714595512881146 0.77714595512881146 0 0.62932039886446345 1 I I #
point $-1 -41.677822193299953 -14.102645273734471 6.525365013047157 #
plane-surface $-1 0 0 9.4072768219613607 0 0 1 1 0 0 forward_v I I I I #
coedge $-1 $325 $324 $317 $389 forward $219 $-1 #
coedge $-1 $317 $221 $223 $321 reversed $139 $-1 #
coedge $-1 $221 $316 $315 $389 reversed $139 $-1 #
coedge $-1 $229 $224 $221 $319 forward $230 $-1 #
edge $-1 $322 21.640370662667589 $390 30.312391823007854 $318 $391 forward 7 unknown #
coedge $-1 $223 $222 $325 $392 reversed $87 $-1 #
edge $-1 $393 -93.581957457197802 $322 -82.423151182637838 $316 $394 forward 7 unknown #
vertex $-1 $225 $395 #
straight-curve $-1 38.118957568258651 -8.0312465746369526 9.4072768219613607 0 -1 0 I I #
coedge $-1 $315 $226 $229 $329 reversed $219 $-1 #
coedge $-1 $226 $315 $320 $392 forward $219 $-1 #
vertex $-1 $227 $396 #
straight-curve $-1 46.790978728598894 -11.489514773015227 67.002343455391383 0 0 1 I I #
straight-curve $-1 -25.935860982298884 -11.489514773015227 61.277847199884988 0.77714595512881146 0 -0.62932039886446345 I I #
edge $-1 $390 -20.635471525532584 $231 -11.489514773015227 $324 $397 forward 7 unknown #
point $-1 46.790978728598894 -11.489514773015227 9.4072768219613607 #
point $-1 38.118957568258629 -11.489514773015227 9.4072768219613607 #
edge $-1 $398 1 $398 0 $234 $-1 forward 7 unknown #
vertex $-1 $235 $399 #
ellipse-curve $-1 41.192082842256923 -18.022341024813336 4.3365111726257881 0.62932039886446345 0 0.77714595512881146 0.77714595512881146 0 -0.62932039886446345 1 I I #
point $-1 43.232114103557578 -18.022341024813336 5.2667242153182272 #
edge $-1 $400 1 $400 0 $238 $-1 forward 7 unknown #
vertex $-1 $239 $401 #
ellipse-curve $-1 41.192082842256923 -14.102645273734471 4.3365111726257881 0.62932039886446345 0 0.77714595512881146 0.77714595512881146 0 -0.62932039886446345 1 I I #
point $-1 43.232114103557578 -14.102645273734471 5.2667242153182272 #
plane-surface $-1 46.790978728598894 0 0 -1 0 0 0 0 1 forward_v I I I I #
coedge $-1 $351 $245 $248 $344 reversed $161 $-1 #
edge $-1 $259 -9.4072768219613607 $347 9.4072768219613607 $258 $402 forward 7 unknown #
straight-curve $-1 46.790978728598894 -27.759858036689863 0 0 0 -1 I I #
edge $-1 $345 -27.759858036689863 $347 27.759858036689863 $341 $403 forward 7 unknown #
vertex $-1 $344 $404 #
straight-curve $-1 0 -27.759858036689863 -9.4072768219613607 -1 0 0 I I #
vertex $-1 $251 $405 #
straight-curve $-1 0 27.759858036689863 -9.4072768219613607 1 0 0 I I #
point $-1 46.790978728598894 27.759858036689863 -9.4072768219613607 #
point $-1 46.790978728598894 -27.759858036689863 -9.4072768219613607 #
coedge $-1 $255 $341 $261 $354 reversed $161 $-1 #
straight-curve $-1 -46.790978728598894 0 9.4072768219613607 0 -1 0 I I #
point $-1 -46.790978728598894 27.759858036689863 9.4072768219613607 #
edge $-1 $262 -9.4072768219613607 $345 9.4072768219613607 $351 $406 forward 7 unknown #
point $-1 -46.790978728598894 -27.759858036689863 9.4072768219613607 #
straight-curve $-1 46.790978728598894 27.759858036689863 0 0 0 -1 I I #
plane-surface $-1 -46.790978728598894 0 0 1 0 0 0 0 -1 forward_v I I I I #
coedge $-1 $360 $369 $364 $407 forward $268 $-1 #
coedge $-1 $271 $270 $408 $409 forward $109 $-1 #
coedge $-1 $408 $358 $272 $361 reversed $268 $-1 #
edge $-1 $362 -46.790978728598894 $365 46.790978728598894 $360 $410 forward 7 unknown #
vertex $-1 $409 $411 #
straight-curve $-1 46.790978728598894 0 -9.4072768219613607 0 -1 0 I I #
coedge $-1 $280 $274 $358 $407 reversed $281 $-1 #
vertex $-1 $275 $412 #
straight-curve $-1 -46.790978728598894 0 -9.4072768219613607 0 1 0 I I #
point $-1 -46.790978728598894 -27.759858036689863 -9.4072768219613607 #
point $-1 46.790978728598894 -27.759858036689863 -9.4072768219613607 #
coedge $-1 $358 $408 $283 $370 reversed $268 $-1 #
edge $-1 $371 -46.790978728598894 $373 46.790978728598894 $369 $413 forward 7 unknown #
vertex $-1 $284 $414 #
straight-curve $-1 -46.790978728598894 -31.322051292268505 -5.4963967803303895 0 -1 0 I I #
vertex $-1 $285 $415 #
straight-curve $-1 46.790978728598894 -31.322051292268505 -5.4963967803303895 0 1 0 I I #
coedge $-1 $299 $298 $291 $376 forward $288 $-1 #
edge $-1 $377 28.14854923668954 $380 35.17101365224687 $375 $416 forward 7 unknown #
vertex $-1 $303 $417 #
straight-curve $-1 -52.842006761039933 -11.489514773015227 9.4072768219613607 -1 0 0 I I #
edge $-1 $380 3.4582681983782741 $300 12.604224950895631 $299 $418 forward 7 unknown #
vertex $-1 $379 $419 #
straight-curve $-1 -46.790978728598901 -11.489514773015227 2.3848124064040235 0.77714595512881146 0 0.62932039886446345 I I #
point $-1 -38.118957568258644 -11.489514773015227 9.4072768219613607 #
point $-1 -46.790978728598894 -20.635471525532584 2.3848124064040293 #
straight-curve $-1 -46.790978728598894 0 9.4072768219613607 0 -1 0 I I #
vertex $-1 $306 $420 #
point $-1 -40.414936887128114 -18.022341024813336 4.9658315714902557 #
vertex $-1 $310 $421 #
point $-1 -40.414936887128114 -14.102645273734471 4.9658315714902557 #
edge $-1 $390 57.595066633430022 $393 64.61753104898736 $315 $422 forward 7 unknown #
vertex $-1 $329 $423 #
straight-curve $-1 16.47858690559104 -20.635471525532584 9.4072768219613607 1 0 0 I I #
edge $-1 $393 -12.604224950895631 $326 -3.4582681983782741 $325 $424 forward 7 unknown #
vertex $-1 $392 $425 #
straight-curve $-1 -25.935860982298884 -20.635471525532584 61.277847199884988 -0.77714595512881146 0 0.62932039886446345 I I #
point $-1 38.118957568258629 -20.635471525532584 9.4072768219613607 #
point $-1 46.790978728598894 -11.489514773015227 2.3848124064040235 #
straight-curve $-1 46.790978728598894 0 9.4072768219613607 0 1 0 I I #
vertex $-1 $332 $426 #
point $-1 41.969228797385732 -18.022341024813336 3.707190773761325 #
vertex $-1 $336 $427 #
point $-1 41.969228797385732 -14.102645273734471 3.707190773761325 #
straight-curve $-1 -46.790978728598894 27.759858036689863 0 0 0 -1 I I #
straight-curve $-1 -46.790978728598894 0 -9.4072768219613607 0 1 0 I I #
point $-1 -46.790978728598894 -27.759858036689863 -9.4072768219613607 #
point $-1 -46.790978728598894 27.759858036689863 -9.4072768219613607 #
straight-curve $-1 -46.790978728598894 -27.759858036689863 0 0 0 -1 I I #
edge $-1 $371 -1.9554400208154856 $365 1.9554400208154856 $364 $428 forward 7 unknown #
coedge $-1 $369 $360 $359 $409 reversed $268 $-1 #
edge $-1 $373 -1.9554400208154856 $362 1.9554400208154856 $359 $429 forward 7 unknown #
straight-curve $-1 0 -34.884244547847146 -9.4072768219613607 -1 0 0 I I #
point $-1 46.790978728598894 -34.884244547847146 -9.4072768219613607 #
point $-1 -46.790978728598894 -34.884244547847146 -9.4072768219613607 #
straight-curve $-1 0 -34.884244547847146 -5.4963967803303895 1 0 0 I I #
point $-1 -46.790978728598894 -34.884244547847146 -5.4963967803303895 #
point $-1 46.790978728598894 -34.884244547847146 -5.4963967803303895 #
straight-curve $-1 -46.790978728598894 -11.489514773015227 37.555826058650901 0 0 -1 I I #
point $-1 -46.790978728598894 -11.489514773015227 9.4072768219613607 #
straight-curve $-1 -46.790978728598894 -8.0312465746369526 2.3848124064040328 0 -1 0 I I #
point $-1 -46.790978728598894 -11.489514773015227 2.3848124064040293 #
point $-1 -40.562762443392458 -18.022341024813336 3.5593652174969805 #
point $-1 -40.562762443392458 -14.102645273734471 3.5593652174969805 #
straight-curve $-1 46.790978728598894 -20.635471525532584 67.002343455391383 0 0 -1 I I #
point $-1 46.790978728598894 -20.635471525532584 9.4072768219613607 #
straight-curve $-1 46.790978728598894 -8.0312465746369526 2.3848124064040235 0 1 0 I I #
point $-1 46.790978728598894 -20.635471525532584 2.3848124064040235 #
point $-1 40.562762443392458 -18.022341024813336 3.559365217496977 #
point $-1 40.562762443392458 -14.102645273734471 3.559365217496977 #
straight-curve $-1 -46.790978728598894 -34.884244547847146 -7.4518368011458751 0 0 -1 I I #
straight-curve $-1 46.790978728598894 -34.884244547847146 -7.4518368011458751 0 0 -1 I I #
End-of-ACIS-data 