500 0 9 0           
7 Unknown 11 ACIS 5.0 NT 24 Thu Mar 25 17:34:53 1999 
-1 9.9999999999999995e-007 1e-010 
body $-1 $9 $-1 $10 #
body $-1 $11 $-1 $12 #
body $-1 $13 $-1 $14 #
body $-1 $15 $-1 $16 #
body $-1 $17 $-1 $18 #
body $-1 $19 $-1 $20 #
body $-1 $21 $-1 $22 #
body $-1 $23 $-1 $24 #
body $-1 $25 $-1 $26 #
lump $-1 $-1 $27 $0 #
transform $-1 1 0 0 0 1 0 0 0 1 65.021515549180577 36.83963854397831 14.762276252754248 1 rotate no_reflect no_shear #
lump $-1 $-1 $28 $1 #
transform $-1 1 0 0 0 1 0 0 0 1 65.021515549180577 36.83963854397831 14.762276252754248 1 rotate no_reflect no_shear #
lump $-1 $-1 $29 $2 #
transform $-1 1 0 0 0 1 0 0 0 1 65.021515549180577 36.83963854397831 14.762276252754248 1 rotate no_reflect no_shear #
lump $-1 $-1 $30 $3 #
transform $-1 1 0 0 0 1 0 0 0 1 65.021515549180577 36.83963854397831 14.762276252754248 1 rotate no_reflect no_shear #
lump $-1 $-1 $31 $4 #
transform $-1 1 0 0 0 1 0 0 0 1 65.021515549180577 36.83963854397831 14.762276252754248 1 rotate no_reflect no_shear #
lump $-1 $-1 $32 $5 #
transform $-1 1 0 0 0 1 0 0 0 1 65.021515549180577 36.83963854397831 14.762276252754248 1 rotate no_reflect no_shear #
lump $-1 $-1 $33 $6 #
transform $-1 1 0 0 0 1 0 0 0 1 65.021515549180577 36.83963854397831 14.762276252754248 1 rotate no_reflect no_shear #
lump $-1 $-1 $34 $7 #
transform $-1 1 0 0 0 1 0 0 0 1 65.021515549180577 36.83963854397831 14.762276252754248 1 rotate no_reflect no_shear #
lump $-1 $-1 $35 $8 #
transform $-1 1 0 0 0 1 0 0 0 1 65.021515549180577 36.83963854397831 14.762276252754248 1 rotate no_reflect no_shear #
shell $-1 $-1 $-1 $36 $-1 $9 #
shell $-1 $-1 $-1 $37 $-1 $11 #
shell $-1 $-1 $-1 $38 $-1 $13 #
shell $-1 $-1 $-1 $39 $-1 $15 #
shell $-1 $-1 $-1 $40 $-1 $17 #
shell $-1 $-1 $-1 $41 $-1 $19 #
shell $-1 $-1 $-1 $42 $-1 $21 #
shell $-1 $-1 $-1 $43 $-1 $23 #
shell $-1 $-1 $-1 $44 $-1 $25 #
face $-1 $45 $46 $27 $-1 $47 forward single #
face $-1 $48 $49 $28 $-1 $50 forward single #
face $-1 $51 $52 $29 $-1 $53 reversed single #
face $-1 $54 $55 $30 $-1 $56 forward single #
face $-1 $57 $58 $31 $-1 $59 reversed single #
face $-1 $60 $61 $32 $-1 $62 forward single #
face $-1 $63 $64 $33 $-1 $65 reversed single #
face $-1 $66 $67 $34 $-1 $68 forward single #
face $-1 $69 $70 $35 $-1 $71 forward single #
face $-1 $72 $73 $27 $-1 $74 reversed single #
loop $-1 $-1 $75 $36 #
plane-surface $-1 0 0 14.762276252754248 0 0 1 1 0 0 forward_v I I I I #
face $-1 $76 $77 $28 $-1 $78 reversed single #
loop $-1 $-1 $79 $37 #
plane-surface $-1 0 -36.83963854397831 0 0 1 0 0 0 1 forward_v I I I I #
face $-1 $80 $81 $29 $-1 $82 reversed single #
loop $-1 $-1 $83 $38 #
plane-surface $-1 45.797832138763425 7.2406471376793853 191.91553061271975 0 -1 0 -0.62932039886446345 0 -0.77714595512881146 forward_v I I I I #
face $-1 $84 $85 $30 $-1 $86 forward single #
loop $-1 $87 $88 $39 #
cone-surface $-1 59.333638845866481 2.3907577321450049 9.2470720990513922 -0.62932039886446345 0 -0.77714595512881146 1.5542919102576229 0 -1.2586407977289269 1 I I 0 1 2 forward I I I I #
face $-1 $89 $90 $31 $-1 $91 reversed single #
loop $-1 $-1 $92 $40 #
plane-surface $-1 45.797832138763425 27.139859732909546 191.91553061271975 0 1 0 0.62932039886446345 0 0.77714595512881146 forward_v I I I I #
face $-1 $93 $94 $32 $-1 $95 forward single #
loop $-1 $96 $97 $41 #
cone-surface $-1 59.333638845866481 31.989749138443926 9.2470720990513922 -0.62932039886446345 0 -0.77714595512881146 1.5542919102576229 0 -1.2586407977289269 1 I I 0 1 2 forward I I I I #
face $-1 $98 $99 $33 $-1 $100 reversed single #
loop $-1 $-1 $101 $42 #
plane-surface $-1 -143.28336631118606 -22.358344268619543 104.54153205733232 0 1 0 -0.6018150307709319 0 0.79863550430605224 forward_v I I I I #
face $-1 $102 $103 $34 $-1 $104 forward single #
loop $-1 $105 $106 $43 #
cone-surface $-1 -54.813298789597766 -19.257041703305109 6.5724271265725775 0.6018150307709319 0 -0.79863550430605224 0.79863550430605224 0 0.6018150307709319 1 I I 0 1 1 forward I I I I #
face $-1 $107 $108 $35 $-1 $109 forward single #
loop $-1 $110 $111 $44 #
cone-surface $-1 -54.813298789597766 -14.605087855333458 6.5724271265725775 0.6018150307709319 0 -0.79863550430605224 0.79863550430605224 0 0.6018150307709319 1 I I 0 1 1 forward I I I I #
face $-1 $112 $113 $27 $-1 $114 reversed single #
loop $-1 $-1 $115 $45 #
plane-surface $-1 0 0 -14.762276252754248 0 0 1 1 0 0 forward_v I I I I #
coedge $-1 $116 $117 $118 $119 forward $46 $-1 #
face $-1 $120 $121 $28 $-1 $122 reversed single #
loop $-1 $-1 $123 $48 #
plane-surface $-1 0 0 -14.762276252754248 0 0 1 1 0 0 forward_v I I I I #
coedge $-1 $124 $125 $126 $127 forward $49 $-1 #
face $-1 $128 $129 $29 $-1 $130 reversed single #
loop $-1 $-1 $131 $51 #
plane-surface $-1 -36.040900061601036 2.3907577321450049 90.853115001938136 0.62932039886446345 0 0.77714595512881146 0.77714595512881146 0 -0.62932039886446345 forward_v I I I I #
coedge $-1 $132 $133 $134 $135 reversed $52 $-1 #
face $-1 $-1 $136 $30 $-1 $137 forward single #
loop $-1 $138 $139 $54 #
cone-surface $-1 56.565470310183201 2.3907577321450049 5.8286687158099966 -0.62932039886446345 0 -0.77714595512881146 0.77714595512881146 0 -0.62932039886446345 1 I I -0.70710678118654779 0.70710678118654713 1 forward I I I I #
loop $-1 $-1 $140 $39 #
coedge $-1 $88 $88 $141 $142 reversed $55 $-1 #
face $-1 $143 $144 $31 $-1 $145 reversed single #
loop $-1 $-1 $146 $57 #
plane-surface $-1 -36.040900061601036 31.989749138443926 90.853115001938136 0.62932039886446345 0 0.77714595512881146 0.77714595512881146 0 -0.62932039886446345 forward_v I I I I #
coedge $-1 $147 $148 $149 $150 reversed $58 $-1 #
face $-1 $-1 $151 $32 $-1 $152 forward single #
loop $-1 $153 $154 $60 #
cone-surface $-1 56.565470310183201 31.989749138443926 5.8286687158099966 -0.62932039886446345 0 -0.77714595512881146 0.77714595512881146 0 -0.62932039886446345 1 I I -0.70710678118654779 0.70710678118654713 1 forward I I I I #
loop $-1 $-1 $155 $41 #
coedge $-1 $97 $97 $156 $157 reversed $61 $-1 #
face $-1 $158 $159 $33 $-1 $160 reversed single #
loop $-1 $-1 $161 $63 #
plane-surface $-1 -65.021515549180592 -16.931064779319282 0.68455033460502079 -0.6018150307709319 0 0.79863550430605224 0.79863550430605224 0 0.6018150307709319 forward_v I I I I #
coedge $-1 $162 $163 $164 $165 reversed $64 $-1 #
face $-1 $-1 $166 $34 $-1 $167 forward single #
loop $-1 $168 $169 $66 #
cone-surface $-1 -53.64506096916115 -19.257041703305109 5.0221232073124966 0.6018150307709319 0 -0.79863550430605224 0.39931775215302612 0 0.30090751538546595 1 I I -0.70710678118654746 0.70710678118654746 0.5 forward I I I I #
loop $-1 $-1 $170 $43 #
coedge $-1 $106 $106 $171 $172 reversed $67 $-1 #
face $-1 $-1 $173 $35 $-1 $174 forward single #
loop $-1 $175 $176 $69 #
cone-surface $-1 -53.64506096916115 -14.605087855333458 5.0221232073124966 0.6018150307709319 0 -0.79863550430605224 0.39931775215302612 0 0.30090751538546595 1 I I -0.70710678118654746 0.70710678118654746 0.5 forward I I I I #
loop $-1 $-1 $177 $44 #
coedge $-1 $111 $111 $178 $179 reversed $70 $-1 #
face $-1 $180 $181 $27 $-1 $182 reversed single #
loop $-1 $-1 $183 $72 #
plane-surface $-1 0 -36.83963854397831 0 0 1 0 0 0 1 forward_v I I I I #
coedge $-1 $184 $185 $186 $187 forward $73 $-1 #
coedge $-1 $188 $75 $189 $190 forward $46 $-1 #
coedge $-1 $75 $188 $191 $192 forward $46 $-1 #
coedge $-1 $193 $194 $75 $119 reversed $195 $-1 #
edge $-1 $196 -36.83963854397831 $197 36.83963854397831 $118 $198 forward 7 unknown #
face $-1 $199 $200 $28 $-1 $201 forward single #
loop $-1 $-1 $202 $76 #
plane-surface $-1 65.021515549180577 0 0 -1 0 0 0 0 1 forward_v I I I I #
coedge $-1 $203 $204 $205 $206 forward $77 $-1 #
coedge $-1 $205 $79 $202 $207 reversed $49 $-1 #
coedge $-1 $79 $205 $208 $209 reversed $49 $-1 #
coedge $-1 $210 $211 $79 $127 reversed $200 $-1 #
edge $-1 $212 -65.021515549180577 $213 65.021515549180577 $126 $214 forward 7 unknown #
face $-1 $215 $216 $29 $-1 $217 reversed single #
loop $-1 $-1 $218 $80 #
plane-surface $-1 45.797832138763425 -2.4591316733893755 191.91553061271975 0 1 0 0.62932039886446345 0 0.77714595512881146 forward_v I I I I #
coedge $-1 $219 $220 $221 $222 reversed $81 $-1 #
coedge $-1 $133 $83 $223 $224 reversed $52 $-1 #
coedge $-1 $83 $132 $219 $225 reversed $52 $-1 #
coedge $-1 $221 $226 $83 $135 forward $227 $-1 #
edge $-1 $228 -42.122599479798865 $229 -35.024542346808303 $134 $230 forward 7 unknown #
loop $-1 $-1 $141 $84 #
plane-surface $-1 -36.040900061601036 2.3907577321450049 90.853115001938136 0.62932039886446345 0 0.77714595512881146 0.77714595512881146 0 -0.62932039886446345 forward_v I I I I #
loop $-1 $-1 $231 $54 #
coedge $-1 $139 $139 $140 $232 reversed $85 $-1 #
coedge $-1 $140 $140 $139 $232 forward $87 $-1 #
coedge $-1 $141 $141 $88 $142 forward $136 $-1 #
edge $-1 $233 0 $233 6.2831853071796004 $141 $234 forward 7 unknown #
face $-1 $235 $236 $31 $-1 $237 forward single #
loop $-1 $-1 $149 $89 #
plane-surface $-1 65.021515549180577 0 0 -1 0 0 0 0 1 forward_v I I I I #
coedge $-1 $238 $239 $240 $241 reversed $90 $-1 #
coedge $-1 $148 $92 $242 $243 reversed $58 $-1 #
coedge $-1 $92 $147 $238 $244 reversed $58 $-1 #
coedge $-1 $240 $245 $92 $150 forward $144 $-1 #
edge $-1 $246 81.195489053605627 $247 86.9433825047862 $149 $248 forward 7 unknown #
loop $-1 $-1 $156 $93 #
plane-surface $-1 -36.040900061601036 31.989749138443926 90.853115001938136 0.62932039886446345 0 0.77714595512881146 0.77714595512881146 0 -0.62932039886446345 forward_v I I I I #
loop $-1 $-1 $249 $60 #
coedge $-1 $154 $154 $155 $250 reversed $94 $-1 #
coedge $-1 $155 $155 $154 $250 forward $96 $-1 #
coedge $-1 $156 $156 $97 $157 forward $151 $-1 #
edge $-1 $251 0 $251 6.2831853071796004 $156 $252 forward 7 unknown #
face $-1 $253 $254 $33 $-1 $255 reversed single #
loop $-1 $-1 $256 $98 #
plane-surface $-1 -143.28336631118606 -11.503785290019021 104.54153205733232 0 -1 0 0.6018150307709319 0 -0.79863550430605224 forward_v I I I I #
coedge $-1 $257 $258 $259 $260 reversed $99 $-1 #
coedge $-1 $163 $101 $261 $262 reversed $64 $-1 #
coedge $-1 $101 $162 $257 $263 reversed $64 $-1 #
coedge $-1 $259 $264 $101 $165 forward $265 $-1 #
edge $-1 $266 6.6201676064124513 $267 25.301940515475735 $164 $268 forward 7 unknown #
loop $-1 $-1 $171 $102 #
plane-surface $-1 -65.021515549180592 -16.931064779319282 0.68455033460502079 -0.6018150307709319 0 0.79863550430605224 0.79863550430605224 0 0.6018150307709319 forward_v I I I I #
loop $-1 $-1 $269 $66 #
coedge $-1 $169 $169 $170 $270 reversed $103 $-1 #
coedge $-1 $170 $170 $169 $270 forward $105 $-1 #
coedge $-1 $171 $171 $106 $172 forward $166 $-1 #
edge $-1 $271 0 $271 6.2831853071796004 $171 $272 forward 7 unknown #
loop $-1 $-1 $178 $107 #
plane-surface $-1 -65.021515549180592 -16.931064779319282 0.68455033460502079 -0.6018150307709319 0 0.79863550430605224 0.79863550430605224 0 0.6018150307709319 forward_v I I I I #
loop $-1 $-1 $273 $69 #
coedge $-1 $176 $176 $177 $274 reversed $108 $-1 #
coedge $-1 $177 $177 $176 $274 forward $110 $-1 #
coedge $-1 $178 $178 $111 $179 forward $173 $-1 #
edge $-1 $275 0 $275 6.2831853071796004 $178 $276 forward 7 unknown #
face $-1 $277 $278 $27 $-1 $279 reversed single #
loop $-1 $-1 $280 $112 #
plane-surface $-1 -65.021515549180577 0 0 1 0 0 0 0 -1 forward_v I I I I #
coedge $-1 $191 $281 $193 $282 reversed $113 $-1 #
coedge $-1 $283 $115 $281 $284 forward $73 $-1 #
coedge $-1 $115 $283 $285 $286 forward $73 $-1 #
coedge $-1 $194 $193 $115 $187 reversed $195 $-1 #
edge $-1 $287 -36.83963854397831 $288 36.83963854397831 $186 $289 forward 7 unknown #
coedge $-1 $117 $116 $290 $291 forward $46 $-1 #
coedge $-1 $292 $293 $116 $190 reversed $278 $-1 #
edge $-1 $197 -65.021515549180577 $294 65.021515549180577 $189 $295 forward 7 unknown #
coedge $-1 $296 $183 $117 $192 reversed $113 $-1 #
edge $-1 $297 -65.021515549180577 $196 65.021515549180577 $191 $298 forward 7 unknown #
coedge $-1 $186 $118 $183 $282 forward $195 $-1 #
coedge $-1 $118 $186 $292 $299 reversed $195 $-1 #
loop $-1 $-1 $193 $277 #
vertex $-1 $119 $300 #
vertex $-1 $119 $301 #
straight-curve $-1 65.021515549180577 0 14.762276252754248 0 1 0 I I #
face $-1 $302 $303 $28 $-1 $304 reversed single #
loop $-1 $-1 $211 $120 #
plane-surface $-1 0 -44.080285681657692 -6.8180298440101845 0 0 1 1 0 0 forward_v I I I I #
coedge $-1 $305 $306 $124 $207 forward $121 $-1 #
coedge $-1 $307 $123 $306 $308 forward $77 $-1 #
coedge $-1 $123 $307 $309 $310 forward $77 $-1 #
coedge $-1 $125 $124 $123 $206 reversed $49 $-1 #
edge $-1 $311 -65.021515549180577 $312 65.021515549180577 $123 $313 forward 7 unknown #
edge $-1 $312 -14.762276252754248 $213 -6.8180298440101845 $202 $314 forward 7 unknown #
coedge $-1 $309 $315 $125 $209 forward $316 $-1 #
edge $-1 $212 6.8180298440101845 $311 14.762276252754248 $208 $317 forward 7 unknown #
coedge $-1 $318 $126 $315 $319 forward $200 $-1 #
coedge $-1 $126 $318 $305 $320 forward $200 $-1 #
vertex $-1 $209 $321 #
vertex $-1 $320 $322 #
straight-curve $-1 0 -36.83963854397831 -6.8180298440101845 1 0 0 I I #
face $-1 $-1 $227 $29 $-1 $323 forward single #
loop $-1 $-1 $324 $128 #
plane-surface $-1 65.021515549180577 0 0 -1 0 0 0 0 1 forward_v I I I I #
coedge $-1 $325 $326 $327 $328 reversed $129 $-1 #
coedge $-1 $329 $131 $133 $225 forward $81 $-1 #
coedge $-1 $131 $329 $325 $330 forward $81 $-1 #
coedge $-1 $327 $134 $131 $222 forward $227 $-1 #
edge $-1 $229 -6.0452682716068828 $331 3.654510539461878 $221 $332 forward 7 unknown #
coedge $-1 $333 $334 $132 $224 forward $216 $-1 #
edge $-1 $335 -86.9433825047862 $228 -81.195489053605627 $223 $336 forward 7 unknown #
edge $-1 $229 120.90953810885694 $335 130.04303109836115 $133 $337 forward 7 unknown #
coedge $-1 $134 $327 $333 $338 forward $227 $-1 #
loop $-1 $-1 $327 $215 #
vertex $-1 $224 $339 #
vertex $-1 $135 $340 #
straight-curve $-1 22.898916069381713 7.2406471376793853 14.762276252754248 -1 0 0 I I #
coedge $-1 $231 $231 $-1 $341 reversed $138 $-1 #
edge $-1 $342 0 $342 6.2831853071796004 $139 $343 forward 7 unknown #
vertex $-1 $142 $344 #
ellipse-curve $-1 61.472486982685282 2.3907577321450049 11.888329527163959 0.62932039886446345 0 0.77714595512881146 1.5542919102576229 0 -1.2586407977289269 1 I I #
face $-1 $-1 $345 $31 $-1 $346 reversed single #
loop $-1 $-1 $242 $143 #
plane-surface $-1 0 0 14.762276252754248 0 0 1 1 0 0 forward_v I I I I #
coedge $-1 $347 $146 $148 $244 forward $90 $-1 #
coedge $-1 $146 $347 $348 $349 reversed $90 $-1 #
coedge $-1 $350 $149 $146 $241 forward $144 $-1 #
edge $-1 $247 11.144985163687583 $351 20.844763974756347 $240 $352 forward 7 unknown #
coedge $-1 $353 $354 $147 $243 forward $236 $-1 #
edge $-1 $355 35.024542346808303 $246 42.122599479798865 $242 $356 forward 7 unknown #
edge $-1 $247 -130.04303109836115 $355 -120.90953810885694 $148 $357 forward 7 unknown #
coedge $-1 $149 $350 $353 $358 reversed $144 $-1 #
vertex $-1 $358 $359 #
vertex $-1 $150 $360 #
straight-curve $-1 65.021515549180577 27.139859732909546 95.957765306359875 0 0 -1 I I #
coedge $-1 $249 $249 $-1 $361 reversed $153 $-1 #
edge $-1 $362 0 $362 6.2831853071796004 $154 $363 forward 7 unknown #
vertex $-1 $157 $364 #
ellipse-curve $-1 61.472486982685282 31.989749138443926 11.888329527163959 0.62932039886446345 0 0.77714595512881146 1.5542919102576229 0 -1.2586407977289269 1 I I #
face $-1 $-1 $265 $33 $-1 $365 forward single #
loop $-1 $-1 $366 $158 #
plane-surface $-1 -65.021515549180577 0 0 1 0 0 0 0 -1 forward_v I I I I #
coedge $-1 $367 $368 $369 $370 reversed $159 $-1 #
coedge $-1 $371 $161 $163 $263 forward $99 $-1 #
coedge $-1 $161 $371 $367 $372 forward $99 $-1 #
coedge $-1 $369 $164 $161 $260 forward $265 $-1 #
edge $-1 $267 -13.892811878959902 $373 -3.0382529003593799 $259 $374 forward 7 unknown #
coedge $-1 $375 $376 $162 $262 forward $254 $-1 #
edge $-1 $377 -51.586215694061124 $266 -37.508489775911912 $261 $378 forward 7 unknown #
edge $-1 $267 -23.392114185176631 $377 -1.7763522597878294e-014 $163 $379 forward 7 unknown #
coedge $-1 $164 $369 $375 $380 forward $265 $-1 #
loop $-1 $-1 $369 $253 #
vertex $-1 $262 $381 #
vertex $-1 $165 $382 #
straight-curve $-1 -71.641683155593029 -22.358344268619543 14.762276252754248 1 0 0 I I #
coedge $-1 $269 $269 $-1 $383 reversed $168 $-1 #
edge $-1 $384 0 $384 6.2831853071796004 $169 $385 forward 7 unknown #
vertex $-1 $172 $386 #
ellipse-curve $-1 -55.680629094648928 -19.257041703305109 7.7234132936796458 -0.6018150307709319 0 0.79863550430605224 0.79863550430605224 0 0.6018150307709319 1 I I #
coedge $-1 $273 $273 $-1 $387 reversed $175 $-1 #
edge $-1 $388 0 $388 6.2831853071796004 $176 $389 forward 7 unknown #
vertex $-1 $179 $390 #
ellipse-curve $-1 -55.680629094648928 -14.605087855333458 7.7234132936796458 -0.6018150307709319 0 0.79863550430605224 0.79863550430605224 0 0.6018150307709319 1 I I #
face $-1 $-1 $195 $27 $-1 $391 reversed single #
loop $-1 $-1 $292 $180 #
plane-surface $-1 0 36.83963854397831 0 0 -1 0 0 0 -1 forward_v I I I I #
coedge $-1 $392 $290 $293 $393 forward $181 $-1 #
coedge $-1 $183 $296 $184 $284 reversed $113 $-1 #
edge $-1 $196 -14.762276252754248 $288 14.762276252754248 $193 $394 forward 7 unknown #
coedge $-1 $185 $184 $392 $395 forward $73 $-1 #
edge $-1 $288 -65.021515549180577 $396 65.021515549180577 $281 $397 forward 7 unknown #
coedge $-1 $293 $292 $185 $286 reversed $278 $-1 #
edge $-1 $398 -65.021515549180577 $287 65.021515549180577 $285 $399 forward 7 unknown #
vertex $-1 $187 $400 #
vertex $-1 $282 $401 #
straight-curve $-1 65.021515549180577 0 -14.762276252754248 0 -1 0 I I #
coedge $-1 $280 $402 $188 $291 reversed $181 $-1 #
edge $-1 $294 -36.83963854397831 $297 36.83963854397831 $290 $403 forward 7 unknown #
coedge $-1 $285 $189 $194 $299 forward $278 $-1 #
coedge $-1 $189 $285 $280 $393 reversed $278 $-1 #
vertex $-1 $190 $404 #
straight-curve $-1 0 36.83963854397831 14.762276252754248 -1 0 0 I I #
coedge $-1 $281 $191 $402 $405 forward $113 $-1 #
vertex $-1 $291 $406 #
straight-curve $-1 0 -36.83963854397831 14.762276252754248 1 0 0 I I #
edge $-1 $197 -14.762276252754248 $287 14.762276252754248 $194 $407 forward 7 unknown #
point $-1 65.021515549180577 -36.83963854397831 14.762276252754248 #
point $-1 65.021515549180577 36.83963854397831 14.762276252754248 #
face $-1 $-1 $316 $28 $-1 $408 reversed single #
loop $-1 $-1 $409 $199 #
plane-surface $-1 0 -51.320932819337074 -10.790153048382216 0 1 0 0 0 1 forward_v I I I I #
coedge $-1 $410 $202 $211 $320 reversed $121 $-1 #
coedge $-1 $202 $410 $203 $308 reversed $121 $-1 #
coedge $-1 $204 $203 $411 $412 forward $77 $-1 #
edge $-1 $312 36.83963854397831 $413 51.320932819337074 $306 $414 forward 7 unknown #
coedge $-1 $415 $208 $204 $310 reversed $316 $-1 #
edge $-1 $416 -51.320932819337074 $311 -36.83963854397831 $309 $417 forward 7 unknown #
vertex $-1 $209 $418 #
vertex $-1 $308 $419 #
straight-curve $-1 0 -36.83963854397831 -14.762276252754248 1 0 0 I I #
straight-curve $-1 65.021515549180577 -36.83963854397831 0 0 0 1 I I #
coedge $-1 $208 $415 $210 $319 reversed $316 $-1 #
loop $-1 $-1 $208 $302 #
straight-curve $-1 -65.021515549180577 -36.83963854397831 0 0 0 -1 I I #
coedge $-1 $211 $210 $420 $421 forward $200 $-1 #
edge $-1 $212 -7.2406471376793817 $422 7.2406471376793817 $315 $423 forward 7 unknown #
edge $-1 $424 -7.2406471376793817 $213 7.2406471376793817 $305 $425 forward 7 unknown #
point $-1 -65.021515549180577 -36.83963854397831 -6.8180298440101845 #
point $-1 65.021515549180577 -36.83963854397831 -6.8180298440101845 #
plane-surface $-1 0 0 14.762276252754248 0 0 1 1 0 0 forward_v I I I I #
coedge $-1 $334 $333 $326 $426 forward $216 $-1 #
coedge $-1 $326 $218 $220 $330 reversed $129 $-1 #
coedge $-1 $218 $325 $324 $426 reversed $129 $-1 #
coedge $-1 $226 $221 $218 $328 forward $227 $-1 #
edge $-1 $331 35.024542346808303 $427 42.122599479798865 $327 $428 forward 7 unknown #
coedge $-1 $220 $219 $334 $429 reversed $81 $-1 #
edge $-1 $430 -130.04303109836115 $331 -120.90953810885694 $325 $431 forward 7 unknown #
vertex $-1 $222 $432 #
straight-curve $-1 57.92345841619003 1.1953788660725024 14.762276252754248 0 -1 0 I I #
coedge $-1 $324 $223 $226 $338 reversed $216 $-1 #
coedge $-1 $223 $324 $329 $429 forward $216 $-1 #
vertex $-1 $224 $433 #
straight-curve $-1 65.021515549180577 7.2406471376793853 95.957765306359875 0 0 1 I I #
straight-curve $-1 -36.040900061601036 7.2406471376793853 90.853115001938136 0.77714595512881146 0 -0.62932039886446345 I I #
edge $-1 $427 -2.4591316733893755 $228 7.2406471376793853 $333 $434 forward 7 unknown #
point $-1 65.021515549180577 7.2406471376793853 14.762276252754248 #
point $-1 57.923458416190016 7.2406471376793853 14.762276252754248 #
edge $-1 $435 1 $435 0 $231 $-1 forward 7 unknown #
vertex $-1 $232 $436 #
ellipse-curve $-1 57.194790709047666 2.3907577321450049 6.6058146709388073 0.62932039886446345 0 0.77714595512881146 1.5542919102576229 0 -1.2586407977289269 1 I I #
point $-1 63.026778892942922 2.3907577321450049 10.629688729435047 #
loop $-1 $-1 $348 $235 #
plane-surface $-1 0 36.83963854397831 0 0 -1 0 0 0 -1 forward_v I I I I #
coedge $-1 $239 $238 $354 $437 reversed $90 $-1 #
coedge $-1 $438 $439 $239 $349 forward $345 $-1 #
edge $-1 $351 -87.450651961774327 $440 -78.317158972270107 $348 $441 forward 7 unknown #
coedge $-1 $245 $240 $439 $442 reversed $144 $-1 #
vertex $-1 $241 $443 #
straight-curve $-1 65.021515549180577 15.994874569221963 9.0143828015736673 0 1 0 I I #
coedge $-1 $444 $242 $245 $358 forward $236 $-1 #
coedge $-1 $242 $444 $347 $437 forward $236 $-1 #
vertex $-1 $243 $445 #
straight-curve $-1 22.898916069381713 27.139859732909546 14.762276252754248 1 0 0 I I #
straight-curve $-1 -36.040900061601036 27.139859732909546 90.853115001938136 -0.77714595512881146 0 0.62932039886446345 I I #
edge $-1 $246 27.139859732909546 $446 36.83963854397831 $245 $447 forward 7 unknown #
point $-1 65.021515549180577 27.139859732909546 14.762276252754248 #
point $-1 65.021515549180577 27.139859732909546 9.0143828015736744 #
edge $-1 $448 1 $448 0 $249 $-1 forward 7 unknown #
vertex $-1 $250 $449 #
ellipse-curve $-1 57.194790709047666 31.989749138443926 6.6058146709388073 0.62932039886446345 0 0.77714595512881146 1.5542919102576229 0 -1.2586407977289269 1 I I #
point $-1 63.026778892942922 31.989749138443926 10.629688729435047 #
plane-surface $-1 0 0 14.762276252754248 0 0 1 1 0 0 forward_v I I I I #
coedge $-1 $376 $375 $368 $450 forward $254 $-1 #
coedge $-1 $368 $256 $258 $372 reversed $159 $-1 #
coedge $-1 $256 $367 $366 $450 reversed $159 $-1 #
coedge $-1 $264 $259 $256 $370 forward $265 $-1 #
edge $-1 $373 -25.301940515475735 $451 -6.6201676064124513 $369 $452 forward 7 unknown #
coedge $-1 $258 $257 $376 $453 reversed $99 $-1 #
edge $-1 $454 1.7763522597878294e-014 $373 23.392114185176631 $367 $455 forward 7 unknown #
vertex $-1 $260 $456 #
straight-curve $-1 -46.339742640117294 -8.4655323896596411 14.762276252754248 0 1 0 I I #
coedge $-1 $366 $261 $264 $380 reversed $254 $-1 #
coedge $-1 $261 $366 $371 $453 forward $254 $-1 #
vertex $-1 $262 $457 #
straight-curve $-1 -65.021515549180577 -22.358344268619543 52.270766028666159 0 0 1 I I #
straight-curve $-1 -65.021515549180592 -22.358344268619543 0.68455033460502079 -0.79863550430605224 0 -0.6018150307709319 I I #
edge $-1 $451 11.503785290019021 $266 22.358344268619543 $375 $458 forward 7 unknown #
point $-1 -65.021515549180577 -22.358344268619543 14.762276252754248 #
point $-1 -46.339742640117294 -22.358344268619543 14.762276252754248 #
edge $-1 $459 1 $459 0 $269 $-1 forward 7 unknown #
vertex $-1 $270 $460 #
ellipse-curve $-1 -53.945968484546619 -19.257041703305109 5.4214409594655226 -0.6018150307709319 0 0.79863550430605224 0.79863550430605224 0 0.6018150307709319 1 I I #
point $-1 -54.881993590342866 -19.257041703305109 8.3252283244505634 #
edge $-1 $461 1 $461 0 $273 $-1 forward 7 unknown #
vertex $-1 $274 $462 #
ellipse-curve $-1 -53.945968484546619 -14.605087855333458 5.4214409594655226 -0.6018150307709319 0 0.79863550430605224 0.79863550430605224 0 0.6018150307709319 1 I I #
point $-1 -54.881993590342866 -14.605087855333458 8.3252283244505634 #
plane-surface $-1 65.021515549180577 0 0 -1 0 0 0 0 1 forward_v I I I I #
coedge $-1 $402 $280 $283 $395 reversed $181 $-1 #
edge $-1 $294 -14.762276252754248 $398 14.762276252754248 $293 $463 forward 7 unknown #
straight-curve $-1 65.021515549180577 -36.83963854397831 0 0 0 -1 I I #
edge $-1 $396 -36.83963854397831 $398 36.83963854397831 $392 $464 forward 7 unknown #
vertex $-1 $395 $465 #
straight-curve $-1 0 -36.83963854397831 -14.762276252754248 -1 0 0 I I #
vertex $-1 $286 $466 #
straight-curve $-1 0 36.83963854397831 -14.762276252754248 1 0 0 I I #
point $-1 65.021515549180577 36.83963854397831 -14.762276252754248 #
point $-1 65.021515549180577 -36.83963854397831 -14.762276252754248 #
coedge $-1 $290 $392 $296 $405 reversed $181 $-1 #
straight-curve $-1 -65.021515549180577 0 14.762276252754248 0 -1 0 I I #
point $-1 -65.021515549180577 36.83963854397831 14.762276252754248 #
edge $-1 $297 -14.762276252754248 $396 14.762276252754248 $402 $467 forward 7 unknown #
point $-1 -65.021515549180577 -36.83963854397831 14.762276252754248 #
straight-curve $-1 65.021515549180577 36.83963854397831 0 0 0 -1 I I #
plane-surface $-1 -65.021515549180577 0 0 1 0 0 0 0 -1 forward_v I I I I #
coedge $-1 $411 $420 $415 $468 forward $303 $-1 #
coedge $-1 $306 $305 $469 $470 forward $121 $-1 #
coedge $-1 $469 $409 $307 $412 reversed $303 $-1 #
edge $-1 $413 -65.021515549180577 $416 65.021515549180577 $411 $471 forward 7 unknown #
vertex $-1 $470 $472 #
straight-curve $-1 65.021515549180577 0 -14.762276252754248 0 -1 0 I I #
coedge $-1 $315 $309 $409 $468 reversed $316 $-1 #
vertex $-1 $310 $473 #
straight-curve $-1 -65.021515549180577 0 -14.762276252754248 0 1 0 I I #
point $-1 -65.021515549180577 -36.83963854397831 -14.762276252754248 #
point $-1 65.021515549180577 -36.83963854397831 -14.762276252754248 #
coedge $-1 $409 $469 $318 $421 reversed $303 $-1 #
edge $-1 $422 -65.021515549180577 $424 65.021515549180577 $420 $474 forward 7 unknown #
vertex $-1 $319 $475 #
straight-curve $-1 -65.021515549180577 -44.080285681657692 -6.8180298440101845 0 -1 0 I I #
vertex $-1 $320 $476 #
straight-curve $-1 65.021515549180577 -44.080285681657692 -6.8180298440101845 0 1 0 I I #
edge $-1 $427 81.195489053605627 $430 86.9433825047862 $324 $477 forward 7 unknown #
vertex $-1 $338 $478 #
straight-curve $-1 22.898916069381713 -2.4591316733893755 14.762276252754248 1 0 0 I I #
edge $-1 $430 -3.654510539461878 $335 6.0452682716068828 $334 $479 forward 7 unknown #
vertex $-1 $429 $480 #
straight-curve $-1 -36.040900061601036 -2.4591316733893755 90.853115001938136 -0.77714595512881146 0 0.62932039886446345 I I #
point $-1 57.923458416190016 -2.4591316733893755 14.762276252754248 #
point $-1 65.021515549180577 7.2406471376793853 9.0143828015736744 #
straight-curve $-1 65.021515549180577 0 14.762276252754248 0 1 0 I I #
vertex $-1 $341 $481 #
point $-1 58.749082619305284 2.3907577321450049 5.3471738732098801 #
edge $-1 $440 -20.844763974756347 $355 -11.144985163687583 $354 $482 forward 7 unknown #
coedge $-1 $439 $348 $444 $483 reversed $345 $-1 #
coedge $-1 $348 $438 $350 $442 forward $345 $-1 #
vertex $-1 $349 $484 #
straight-curve $-1 -2.9404048962898059 36.83963854397831 64.04886197511486 -0.77714595512881146 0 0.62932039886446345 I I #
edge $-1 $446 -14.762276252754248 $351 -9.0143828015736691 $350 $485 forward 7 unknown #
point $-1 65.021515549180577 36.83963854397831 9.0143828015736691 #
coedge $-1 $354 $353 $438 $483 forward $236 $-1 #
point $-1 57.923458416190016 27.139859732909546 14.762276252754248 #
vertex $-1 $358 $486 #
straight-curve $-1 65.021515549180577 0 14.762276252754248 0 1 0 I I #
vertex $-1 $361 $487 #
point $-1 58.749082619305284 31.989749138443926 5.3471738732098801 #
edge $-1 $451 37.508489775911912 $454 51.586215694061124 $366 $488 forward 7 unknown #
vertex $-1 $380 $489 #
straight-curve $-1 -71.641683155593029 -11.503785290019021 14.762276252754248 -1 0 0 I I #
edge $-1 $454 3.0382529003593799 $377 13.892811878959902 $376 $490 forward 7 unknown #
vertex $-1 $453 $491 #
straight-curve $-1 -65.021515549180592 -11.503785290019021 0.68455033460502079 0.79863550430605224 0 0.6018150307709319 I I #
point $-1 -46.339742640117294 -11.503785290019021 14.762276252754248 #
point $-1 -65.021515549180577 -22.358344268619543 0.68455033460503145 #
straight-curve $-1 -65.021515549180577 0 14.762276252754248 0 -1 0 I I #
vertex $-1 $383 $492 #
point $-1 -53.147332980240563 -19.257041703305109 6.0232559902364544 #
vertex $-1 $387 $493 #
point $-1 -53.147332980240563 -14.605087855333458 6.0232559902364544 #
straight-curve $-1 -65.021515549180577 36.83963854397831 0 0 0 -1 I I #
straight-curve $-1 -65.021515549180577 0 -14.762276252754248 0 1 0 I I #
point $-1 -65.021515549180577 -36.83963854397831 -14.762276252754248 #
point $-1 -65.021515549180577 36.83963854397831 -14.762276252754248 #
straight-curve $-1 -65.021515549180577 -36.83963854397831 0 0 0 -1 I I #
edge $-1 $422 -3.9721232043720311 $416 3.972123204372032 $415 $494 forward 7 unknown #
coedge $-1 $420 $411 $410 $470 reversed $303 $-1 #
edge $-1 $424 -3.9721232043720311 $413 3.972123204372032 $410 $495 forward 7 unknown #
straight-curve $-1 0 -51.320932819337074 -14.762276252754248 -1 0 0 I I #
point $-1 65.021515549180577 -51.320932819337074 -14.762276252754248 #
point $-1 -65.021515549180577 -51.320932819337074 -14.762276252754248 #
straight-curve $-1 0 -51.320932819337074 -6.8180298440101845 1 0 0 I I #
point $-1 -65.021515549180577 -51.320932819337074 -6.8180298440101845 #
point $-1 65.021515549180577 -51.320932819337074 -6.8180298440101845 #
straight-curve $-1 65.021515549180577 -2.4591316733893755 95.957765306359875 0 0 -1 I I #
point $-1 65.021515549180577 -2.4591316733893755 14.762276252754248 #
straight-curve $-1 65.021515549180577 1.1953788660725024 9.0143828015736673 0 1 0 I I #
point $-1 65.021515549180577 -2.4591316733893755 9.0143828015736744 #
point $-1 55.936149911318736 2.3907577321450049 5.0515227606811859 #
straight-curve $-1 57.92345841619003 15.994874569221963 14.762276252754248 0 -1 0 I I #
edge $-1 $446 -65.021515549180577 $440 -57.923458416190016 $438 $496 forward 7 unknown #
point $-1 57.923458416190016 36.83963854397831 14.762276252754248 #
straight-curve $-1 65.021515549180577 36.83963854397831 0 0 0 -1 I I #
point $-1 65.021515549180577 36.83963854397831 14.762276252754248 #
point $-1 55.936149911318736 31.989749138443926 5.0515227606811859 #
straight-curve $-1 -65.021515549180577 -11.503785290019021 52.270766028666159 0 0 -1 I I #
point $-1 -65.021515549180577 -11.503785290019021 14.762276252754248 #
straight-curve $-1 -65.021515549180577 -8.4655323896596411 0.68455033460502113 0 -1 0 I I #
point $-1 -65.021515549180577 -11.503785290019021 0.68455033460503145 #
point $-1 -53.344153453775682 -19.257041703305109 4.6228054551594706 #
point $-1 -53.344153453775682 -14.605087855333458 4.6228054551594706 #
straight-curve $-1 -65.021515549180577 -51.320932819337074 -10.790153048382216 0 0 -1 I I #
straight-curve $-1 65.021515549180577 -51.320932819337074 -10.790153048382216 0 0 -1 I I #
straight-curve $-1 0 36.83963854397831 14.762276252754248 -1 0 0 I I #
End-of-ACIS-data 