500 0 8 0           
7 Unknown 11 ACIS 5.0 NT 24 Fri Mar 26 17:17:07 1999 
-1 9.9999999999999995e-007 1e-010 
body $-1 $8 $-1 $9 #
body $-1 $10 $-1 $11 #
body $-1 $12 $-1 $13 #
body $-1 $14 $-1 $15 #
body $-1 $16 $-1 $17 #
body $-1 $18 $-1 $19 #
body $-1 $20 $-1 $21 #
body $-1 $22 $-1 $23 #
lump $-1 $-1 $24 $0 #
transform $-1 1 0 0 0 1 0 0 0 1 69.170812097537151 38.01956471816991 8.182090655937948 1 rotate no_reflect no_shear #
lump $-1 $-1 $25 $1 #
transform $-1 1 0 0 0 1 0 0 0 1 69.170812097537151 38.01956471816991 8.182090655937948 1 rotate no_reflect no_shear #
lump $-1 $-1 $26 $2 #
transform $-1 1 0 0 0 1 0 0 0 1 69.170812097537151 38.01956471816991 8.182090655937948 1 rotate no_reflect no_shear #
lump $-1 $-1 $27 $3 #
transform $-1 1 0 0 0 1 0 0 0 1 69.170812097537151 38.01956471816991 8.182090655937948 1 rotate no_reflect no_shear #
lump $-1 $-1 $28 $4 #
transform $-1 1 0 0 0 1 0 0 0 1 69.170812097537151 38.01956471816991 8.182090655937948 1 rotate no_reflect no_shear #
lump $-1 $-1 $29 $5 #
transform $-1 1 0 0 0 1 0 0 0 1 69.170812097537151 38.01956471816991 8.182090655937948 1 rotate no_reflect no_shear #
lump $-1 $-1 $30 $6 #
transform $-1 1 0 0 0 1 0 0 0 1 69.170812097537151 38.01956471816991 8.182090655937948 1 rotate no_reflect no_shear #
lump $-1 $-1 $31 $7 #
transform $-1 1 0 0 0 1 0 0 0 1 69.170812097537151 38.01956471816991 8.182090655937948 1 rotate no_reflect no_shear #
shell $-1 $-1 $-1 $32 $-1 $8 #
shell $-1 $-1 $-1 $33 $-1 $10 #
shell $-1 $-1 $-1 $34 $-1 $12 #
shell $-1 $-1 $-1 $35 $-1 $14 #
shell $-1 $-1 $-1 $36 $-1 $16 #
shell $-1 $-1 $-1 $37 $-1 $18 #
shell $-1 $-1 $-1 $38 $-1 $20 #
shell $-1 $-1 $-1 $39 $-1 $22 #
face $-1 $40 $41 $24 $-1 $42 forward single #
face $-1 $43 $44 $25 $-1 $45 forward single #
face $-1 $46 $47 $26 $-1 $48 reversed single #
face $-1 $49 $50 $27 $-1 $51 forward single #
face $-1 $52 $53 $28 $-1 $54 forward single #
face $-1 $55 $56 $29 $-1 $57 reversed single #
face $-1 $58 $59 $30 $-1 $60 forward single #
face $-1 $61 $62 $31 $-1 $63 forward single #
face $-1 $64 $65 $24 $-1 $66 reversed single #
loop $-1 $-1 $67 $32 #
plane-surface $-1 0 0 8.182090655937948 0 0 1 1 0 0 forward_v I I I I #
face $-1 $68 $69 $25 $-1 $70 reversed single #
loop $-1 $-1 $71 $33 #
plane-surface $-1 -69.170812097537151 0 0 1 0 0 0 0 -1 forward_v I I I I #
face $-1 $72 $73 $26 $-1 $74 reversed single #
loop $-1 $-1 $75 $34 #
plane-surface $-1 -57.589255938763287 122.1513761918097 138.37277331193155 1 0 0 0 -0.87461971476443456 -0.48480960649040278 forward_v I I I I #
face $-1 $76 $77 $27 $-1 $78 forward single #
loop $-1 $79 $80 $35 #
cone-surface $-1 -48.376228016033103 36.457295951266524 6.1439967086332654 0 -0.87461971476443456 -0.48480960649040278 0.5 0 0 1 I I 0 1 0.5 forward I I I I #
face $-1 $81 $82 $28 $-1 $83 forward single #
loop $-1 $84 $85 $36 #
cone-surface $-1 -34.556686131937809 36.457295951266524 6.1439967086332654 0 -0.87461971476443456 -0.48480960649040278 0.5 0 0 1 I I 0 1 0.5 forward I I I I #
face $-1 $86 $87 $29 $-1 $88 reversed single #
loop $-1 $-1 $89 $37 #
plane-surface $-1 31.629502473478535 122.1513761918097 138.37277331193155 1 0 0 0 -0.87461971476443456 -0.48480960649040278 forward_v I I I I #
face $-1 $90 $91 $30 $-1 $92 forward single #
loop $-1 $93 $94 $38 #
cone-surface $-1 40.84253039620873 36.457295951266524 6.1439967086332654 0 -0.87461971476443456 -0.48480960649040278 0.5 0 0 1 I I 0 1 0.5 forward I I I I #
face $-1 $95 $96 $31 $-1 $97 forward single #
loop $-1 $98 $99 $39 #
cone-surface $-1 54.662072280304017 36.457295951266524 6.1439967086332654 0 -0.87461971476443456 -0.48480960649040278 0.5 0 0 1 I I 0 1 0.5 forward I I I I #
face $-1 $100 $101 $24 $-1 $102 reversed single #
loop $-1 $-1 $103 $40 #
plane-surface $-1 0 0 -8.182090655937948 0 0 1 1 0 0 forward_v I I I I #
coedge $-1 $104 $105 $106 $107 forward $41 $-1 #
face $-1 $108 $109 $25 $-1 $110 forward single #
loop $-1 $-1 $111 $43 #
plane-surface $-1 0 38.01956471816991 0 0 -1 0 0 0 -1 forward_v I I I I #
coedge $-1 $112 $113 $114 $115 forward $44 $-1 #
face $-1 $116 $117 $26 $-1 $118 reversed single #
loop $-1 $-1 $119 $46 #
plane-surface $-1 -41.466457073985453 1.1550642982652164 71.303424924674403 0 0.87461971476443456 0.48480960649040278 1 0 0 forward_v I I I I #
coedge $-1 $120 $121 $122 $123 reversed $47 $-1 #
face $-1 $-1 $124 $27 $-1 $125 forward single #
loop $-1 $126 $127 $49 #
cone-surface $-1 -48.376228016033103 35.614259652057221 5.6766940746114969 0 -0.87461971476443456 -0.48480960649040278 0.25 0 0 1 I I -0.70710678118654746 0.70710678118654746 0.25 forward I I I I #
loop $-1 $-1 $128 $35 #
coedge $-1 $80 $80 $129 $130 reversed $50 $-1 #
face $-1 $-1 $131 $28 $-1 $132 forward single #
loop $-1 $133 $134 $52 #
cone-surface $-1 -34.556686131937809 35.614259652057221 5.6766940746114969 0 -0.87461971476443456 -0.48480960649040278 0.25 0 0 1 I I -0.70710678118654746 0.70710678118654746 0.25 forward I I I I #
loop $-1 $-1 $135 $36 #
coedge $-1 $85 $85 $136 $137 reversed $53 $-1 #
face $-1 $138 $139 $29 $-1 $140 reversed single #
loop $-1 $-1 $141 $55 #
plane-surface $-1 47.752301338256373 1.1550642982652164 71.303424924674403 0 0.87461971476443456 0.48480960649040278 1 0 0 forward_v I I I I #
coedge $-1 $142 $143 $144 $145 reversed $56 $-1 #
face $-1 $-1 $146 $30 $-1 $147 forward single #
loop $-1 $148 $149 $58 #
cone-surface $-1 40.84253039620873 35.614259652057221 5.6766940746114969 0 -0.87461971476443456 -0.48480960649040278 0.25 0 0 1 I I -0.70710678118654746 0.70710678118654746 0.25 forward I I I I #
loop $-1 $-1 $150 $38 #
coedge $-1 $94 $94 $151 $152 reversed $59 $-1 #
face $-1 $-1 $153 $31 $-1 $154 forward single #
loop $-1 $155 $156 $61 #
cone-surface $-1 54.662072280304017 35.614259652057221 5.6766940746114969 0 -0.87461971476443456 -0.48480960649040278 0.25 0 0 1 I I -0.70710678118654746 0.70710678118654746 0.25 forward I I I I #
loop $-1 $-1 $157 $39 #
coedge $-1 $99 $99 $158 $159 reversed $62 $-1 #
face $-1 $160 $161 $24 $-1 $162 reversed single #
loop $-1 $-1 $163 $64 #
plane-surface $-1 0 -38.01956471816991 0 0 1 0 0 0 1 forward_v I I I I #
coedge $-1 $164 $165 $166 $167 forward $65 $-1 #
coedge $-1 $168 $67 $169 $170 forward $41 $-1 #
coedge $-1 $67 $168 $171 $172 forward $41 $-1 #
coedge $-1 $173 $174 $67 $107 reversed $175 $-1 #
edge $-1 $176 -38.01956471816991 $177 38.01956471816991 $106 $178 forward 7 unknown #
face $-1 $179 $180 $25 $-1 $181 reversed single #
loop $-1 $-1 $114 $68 #
plane-surface $-1 -72.313734229672619 0 5.0012303375896057 0 0 1 1 0 0 forward_v I I I I #
coedge $-1 $182 $183 $113 $184 forward $69 $-1 #
coedge $-1 $185 $71 $186 $187 reversed $44 $-1 #
coedge $-1 $71 $185 $111 $184 reversed $44 $-1 #
coedge $-1 $188 $189 $71 $115 reversed $109 $-1 #
edge $-1 $190 -38.01956471816991 $191 38.01956471816991 $114 $192 forward 7 unknown #
face $-1 $193 $194 $26 $-1 $195 forward single #
loop $-1 $-1 $196 $72 #
plane-surface $-1 -25.343658209207614 122.1513761918097 138.37277331193155 -1 0 0 0 0.87461971476443456 0.48480960649040278 forward_v I I I I #
coedge $-1 $197 $198 $199 $200 reversed $73 $-1 #
coedge $-1 $121 $75 $201 $202 reversed $47 $-1 #
coedge $-1 $75 $120 $197 $203 reversed $47 $-1 #
coedge $-1 $199 $204 $75 $123 forward $194 $-1 #
edge $-1 $205 23.056123377734941 $206 24.931898170505299 $122 $207 forward 7 unknown #
loop $-1 $-1 $129 $76 #
plane-surface $-1 -41.466457073985453 1.1550642982652164 71.303424924674403 0 0.87461971476443456 0.48480960649040278 1 0 0 forward_v I I I I #
loop $-1 $-1 $208 $49 #
coedge $-1 $127 $127 $128 $209 reversed $77 $-1 #
coedge $-1 $128 $128 $127 $209 forward $79 $-1 #
coedge $-1 $129 $129 $80 $130 forward $124 $-1 #
edge $-1 $210 -1.146411422143779e-015 $210 6.2831853071795996 $129 $211 forward 7 unknown #
loop $-1 $-1 $136 $81 #
plane-surface $-1 -41.466457073985453 1.1550642982652164 71.303424924674403 0 0.87461971476443456 0.48480960649040278 1 0 0 forward_v I I I I #
loop $-1 $-1 $212 $52 #
coedge $-1 $134 $134 $135 $213 reversed $82 $-1 #
coedge $-1 $135 $135 $134 $213 forward $84 $-1 #
coedge $-1 $136 $136 $85 $137 forward $131 $-1 #
edge $-1 $214 -1.146411422143779e-015 $214 6.2831853071795996 $136 $215 forward 7 unknown #
face $-1 $216 $217 $29 $-1 $218 forward single #
loop $-1 $-1 $219 $86 #
plane-surface $-1 63.875100203034208 122.1513761918097 138.37277331193155 -1 0 0 0 0.87461971476443456 0.48480960649040278 forward_v I I I I #
coedge $-1 $220 $221 $222 $223 reversed $87 $-1 #
coedge $-1 $143 $89 $224 $225 reversed $56 $-1 #
coedge $-1 $89 $142 $220 $226 reversed $56 $-1 #
coedge $-1 $222 $227 $89 $145 forward $217 $-1 #
edge $-1 $228 23.056123377734941 $229 24.931898170505299 $144 $230 forward 7 unknown #
loop $-1 $-1 $151 $90 #
plane-surface $-1 47.752301338256373 1.1550642982652164 71.303424924674403 0 0.87461971476443456 0.48480960649040278 1 0 0 forward_v I I I I #
loop $-1 $-1 $231 $58 #
coedge $-1 $149 $149 $150 $232 reversed $91 $-1 #
coedge $-1 $150 $150 $149 $232 forward $93 $-1 #
coedge $-1 $151 $151 $94 $152 forward $146 $-1 #
edge $-1 $233 -1.146411422143779e-015 $233 6.2831853071795996 $151 $234 forward 7 unknown #
loop $-1 $-1 $158 $95 #
plane-surface $-1 47.752301338256373 1.1550642982652164 71.303424924674403 0 0.87461971476443456 0.48480960649040278 1 0 0 forward_v I I I I #
loop $-1 $-1 $235 $61 #
coedge $-1 $156 $156 $157 $236 reversed $96 $-1 #
coedge $-1 $157 $157 $156 $236 forward $98 $-1 #
coedge $-1 $158 $158 $99 $159 forward $153 $-1 #
edge $-1 $237 -1.146411422143779e-015 $237 6.2831853071795996 $158 $238 forward 7 unknown #
face $-1 $239 $240 $24 $-1 $241 reversed single #
loop $-1 $-1 $242 $100 #
plane-surface $-1 -69.170812097537151 0 0 1 0 0 0 0 -1 forward_v I I I I #
coedge $-1 $243 $171 $244 $245 forward $101 $-1 #
coedge $-1 $246 $103 $243 $247 forward $65 $-1 #
coedge $-1 $103 $246 $248 $249 forward $65 $-1 #
coedge $-1 $174 $173 $103 $167 reversed $175 $-1 #
edge $-1 $250 -38.01956471816991 $251 38.01956471816991 $166 $252 forward 7 unknown #
coedge $-1 $105 $104 $253 $254 forward $41 $-1 #
coedge $-1 $255 $256 $104 $170 reversed $240 $-1 #
edge $-1 $177 -69.170812097537151 $257 69.170812097537151 $169 $258 forward 7 unknown #
coedge $-1 $163 $259 $105 $172 reversed $101 $-1 #
edge $-1 $260 -69.170812097537151 $176 69.170812097537151 $171 $261 forward 7 unknown #
coedge $-1 $166 $106 $259 $262 forward $175 $-1 #
coedge $-1 $106 $166 $255 $263 reversed $175 $-1 #
loop $-1 $-1 $173 $239 #
vertex $-1 $107 $264 #
vertex $-1 $107 $265 #
straight-curve $-1 69.170812097537151 0 8.182090655937948 0 1 0 I I #
face $-1 $266 $267 $25 $-1 $268 reversed single #
loop $-1 $-1 $269 $108 #
plane-surface $-1 -72.313734229672619 0 2.0012303375896057 0 0 1 1 0 0 forward_v I I I I #
coedge $-1 $270 $111 $271 $272 reversed $69 $-1 #
coedge $-1 $111 $270 $188 $273 reversed $69 $-1 #
edge $-1 $190 -5.0012303375896057 $274 -2.0012303375896057 $111 $275 forward 7 unknown #
coedge $-1 $113 $112 $269 $276 forward $44 $-1 #
coedge $-1 $277 $278 $112 $187 forward $279 $-1 #
edge $-1 $280 2.0012303375896057 $191 5.0012303375896057 $186 $281 forward 7 unknown #
coedge $-1 $282 $114 $183 $273 forward $109 $-1 #
coedge $-1 $114 $282 $277 $283 forward $109 $-1 #
vertex $-1 $184 $284 #
vertex $-1 $283 $285 #
straight-curve $-1 -69.170812097537151 0 5.0012303375896057 0 -1 0 I I #
face $-1 $-1 $286 $26 $-1 $287 reversed single #
loop $-1 $-1 $122 $116 #
plane-surface $-1 0 0 8.182090655937948 0 0 1 1 0 0 forward_v I I I I #
coedge $-1 $288 $289 $290 $291 reversed $117 $-1 #
coedge $-1 $292 $119 $121 $203 forward $73 $-1 #
coedge $-1 $119 $292 $288 $293 forward $73 $-1 #
coedge $-1 $290 $122 $119 $200 forward $194 $-1 #
edge $-1 $206 -36.856027401770561 $294 -4.6104296722148881 $199 $295 forward 7 unknown #
coedge $-1 $296 $297 $120 $202 forward $286 $-1 #
edge $-1 $298 -64.388283429838808 $205 -61.004296000027828 $201 $299 forward 7 unknown #
edge $-1 $206 72.170033676564472 $298 76.039129436339806 $121 $300 forward 7 unknown #
coedge $-1 $122 $290 $296 $301 forward $194 $-1 #
vertex $-1 $202 $302 #
vertex $-1 $123 $303 #
straight-curve $-1 -57.589255938763287 61.075688095904852 8.1820906559379409 0 -1 0 I I #
coedge $-1 $208 $208 $-1 $304 reversed $126 $-1 #
edge $-1 $305 0 $305 6.2831853071796004 $127 $306 forward 7 unknown #
vertex $-1 $130 $307 #
ellipse-curve $-1 -48.376228016033103 37.081677321784746 6.4900969410324469 0 0.87461971476443456 0.48480960649040278 0.5 0 0 1 I I #
coedge $-1 $212 $212 $-1 $308 reversed $133 $-1 #
edge $-1 $309 0 $309 6.2831853071796004 $134 $310 forward 7 unknown #
vertex $-1 $137 $311 #
ellipse-curve $-1 -34.556686131937809 37.081677321784746 6.4900969410324469 0 0.87461971476443456 0.48480960649040278 0.5 0 0 1 I I #
face $-1 $-1 $312 $29 $-1 $313 reversed single #
loop $-1 $-1 $144 $138 #
plane-surface $-1 0 0 8.182090655937948 0 0 1 1 0 0 forward_v I I I I #
coedge $-1 $314 $315 $316 $317 reversed $139 $-1 #
coedge $-1 $318 $141 $143 $226 forward $87 $-1 #
coedge $-1 $141 $318 $314 $319 forward $87 $-1 #
coedge $-1 $316 $144 $141 $223 forward $217 $-1 #
edge $-1 $229 7.7533518043503484 $320 39.998949533906021 $222 $321 forward 7 unknown #
coedge $-1 $322 $323 $142 $225 forward $312 $-1 #
edge $-1 $324 -64.388283429838808 $228 -61.004296000027828 $224 $325 forward 7 unknown #
edge $-1 $229 72.170033676564472 $324 76.039129436339806 $143 $326 forward 7 unknown #
coedge $-1 $144 $316 $322 $327 forward $217 $-1 #
vertex $-1 $145 $328 #
vertex $-1 $145 $329 #
straight-curve $-1 31.629502473478535 61.075688095904852 8.1820906559379409 0 -1 0 I I #
coedge $-1 $231 $231 $-1 $330 reversed $148 $-1 #
edge $-1 $331 0 $331 6.2831853071796004 $149 $332 forward 7 unknown #
vertex $-1 $152 $333 #
ellipse-curve $-1 40.84253039620873 37.081677321784746 6.4900969410324469 0 0.87461971476443456 0.48480960649040278 0.5 0 0 1 I I #
coedge $-1 $235 $235 $-1 $334 reversed $155 $-1 #
edge $-1 $335 0 $335 6.2831853071796004 $156 $336 forward 7 unknown #
vertex $-1 $159 $337 #
ellipse-curve $-1 54.662072280304017 37.081677321784746 6.4900969410324469 0 0.87461971476443456 0.48480960649040278 0.5 0 0 1 I I #
face $-1 $-1 $175 $24 $-1 $338 reversed single #
loop $-1 $-1 $255 $160 #
plane-surface $-1 0 38.01956471816991 0 0 -1 0 0 0 -1 forward_v I I I I #
coedge $-1 $339 $253 $256 $340 forward $161 $-1 #
coedge $-1 $259 $163 $164 $247 reversed $101 $-1 #
coedge $-1 $253 $339 $163 $245 reversed $161 $-1 #
edge $-1 $260 -8.182090655937948 $341 8.182090655937948 $244 $342 forward 7 unknown #
coedge $-1 $165 $164 $339 $343 forward $65 $-1 #
edge $-1 $251 -69.170812097537151 $341 69.170812097537151 $243 $344 forward 7 unknown #
coedge $-1 $256 $255 $165 $249 reversed $240 $-1 #
edge $-1 $345 -69.170812097537151 $250 69.170812097537151 $248 $346 forward 7 unknown #
vertex $-1 $167 $347 #
vertex $-1 $262 $348 #
straight-curve $-1 69.170812097537151 0 -8.182090655937948 0 -1 0 I I #
coedge $-1 $242 $244 $168 $254 reversed $161 $-1 #
edge $-1 $257 -38.01956471816991 $260 38.01956471816991 $253 $349 forward 7 unknown #
coedge $-1 $248 $169 $174 $263 forward $240 $-1 #
coedge $-1 $169 $248 $242 $340 reversed $240 $-1 #
vertex $-1 $170 $350 #
straight-curve $-1 0 38.01956471816991 8.182090655937948 -1 0 0 I I #
coedge $-1 $171 $243 $173 $262 reversed $101 $-1 #
vertex $-1 $254 $351 #
straight-curve $-1 0 -38.01956471816991 8.182090655937948 1 0 0 I I #
edge $-1 $176 -8.182090655937948 $251 8.182090655937948 $173 $352 forward 7 unknown #
edge $-1 $177 -8.182090655937948 $250 8.182090655937948 $174 $353 forward 7 unknown #
point $-1 69.170812097537151 -38.01956471816991 8.182090655937948 #
point $-1 69.170812097537151 38.01956471816991 8.182090655937948 #
face $-1 $-1 $279 $25 $-1 $354 reversed single #
loop $-1 $-1 $355 $179 #
plane-surface $-1 -75.456656361808086 0 3.5012303375896057 1 0 0 0 0 -1 forward_v I I I I #
coedge $-1 $356 $271 $185 $276 reversed $180 $-1 #
coedge $-1 $183 $182 $355 $357 reversed $69 $-1 #
coedge $-1 $269 $358 $182 $272 forward $180 $-1 #
edge $-1 $359 -3.1429221321354675 $274 3.1429221321354675 $182 $360 forward 7 unknown #
edge $-1 $190 -3.1429221321354675 $361 3.1429221321354675 $183 $362 forward 7 unknown #
vertex $-1 $184 $363 #
straight-curve $-1 -69.170812097537151 38.01956471816991 0 0 0 -1 I I #
edge $-1 $280 -38.01956471816991 $274 38.01956471816991 $269 $364 forward 7 unknown #
coedge $-1 $365 $186 $189 $283 reversed $279 $-1 #
coedge $-1 $186 $365 $356 $366 reversed $279 $-1 #
loop $-1 $-1 $186 $266 #
vertex $-1 $187 $367 #
straight-curve $-1 -69.170812097537151 -38.01956471816991 0 0 0 1 I I #
coedge $-1 $189 $188 $368 $369 forward $109 $-1 #
edge $-1 $370 -3.1429221321354675 $191 3.1429221321354675 $277 $371 forward 7 unknown #
point $-1 -69.170812097537151 38.01956471816991 5.0012303375896057 #
point $-1 -69.170812097537151 -38.01956471816991 5.0012303375896057 #
loop $-1 $-1 $201 $193 #
plane-surface $-1 0 38.01956471816991 0 0 -1 0 0 0 -1 forward_v I I I I #
coedge $-1 $289 $196 $198 $293 reversed $117 $-1 #
coedge $-1 $196 $288 $372 $373 reversed $117 $-1 #
coedge $-1 $204 $199 $196 $291 forward $194 $-1 #
edge $-1 $294 -24.931898170505299 $374 -23.056123377734941 $290 $375 forward 7 unknown #
coedge $-1 $198 $197 $297 $376 reversed $73 $-1 #
edge $-1 $377 -76.039129436339806 $294 -72.170033676564472 $288 $378 forward 7 unknown #
vertex $-1 $200 $379 #
straight-curve $-1 -20.733228536992726 36.143789925399552 8.182090655937948 1 0 0 I I #
coedge $-1 $372 $201 $204 $301 reversed $286 $-1 #
coedge $-1 $201 $372 $292 $376 forward $286 $-1 #
vertex $-1 $202 $380 #
straight-curve $-1 -57.589255938763287 38.01956471816991 69.186386655965777 0 0 1 I I #
straight-curve $-1 -57.589255938763287 1.1550642982652164 71.303424924674403 0 0.48480960649040278 -0.87461971476443456 I I #
edge $-1 $374 25.343658209207614 $205 57.589255938763287 $296 $381 forward 7 unknown #
point $-1 -57.589255938763287 38.01956471816991 8.182090655937948 #
point $-1 -57.589255938763287 36.143789925399552 8.182090655937948 #
edge $-1 $382 1 $382 0 $208 $-1 forward 7 unknown #
vertex $-1 $209 $383 #
ellipse-curve $-1 -48.376228016033103 35.83291458074833 5.7978964762340972 0 0.87461971476443456 0.48480960649040278 0.5 0 0 1 I I #
point $-1 -47.876228016033103 37.081677321784717 6.4900969410324318 #
edge $-1 $384 1 $384 0 $212 $-1 forward 7 unknown #
vertex $-1 $213 $385 #
ellipse-curve $-1 -34.556686131937809 35.83291458074833 5.7978964762340972 0 0.87461971476443456 0.48480960649040278 0.5 0 0 1 I I #
point $-1 -34.056686131937809 37.081677321784717 6.4900969410324318 #
loop $-1 $-1 $224 $216 #
plane-surface $-1 0 38.01956471816991 0 0 -1 0 0 0 -1 forward_v I I I I #
coedge $-1 $315 $219 $221 $319 reversed $139 $-1 #
coedge $-1 $219 $314 $386 $387 reversed $139 $-1 #
coedge $-1 $227 $222 $219 $317 forward $217 $-1 #
edge $-1 $320 -24.931898170505299 $388 -23.056123377734941 $316 $389 forward 7 unknown #
coedge $-1 $221 $220 $323 $390 reversed $87 $-1 #
edge $-1 $391 -76.039129436339806 $320 -72.170033676564472 $314 $392 forward 7 unknown #
vertex $-1 $223 $393 #
straight-curve $-1 23.876150669128187 36.143789925399552 8.182090655937948 1 0 0 I I #
coedge $-1 $386 $224 $227 $327 reversed $312 $-1 #
coedge $-1 $224 $386 $318 $390 forward $312 $-1 #
vertex $-1 $225 $394 #
straight-curve $-1 31.629502473478535 38.01956471816991 69.186386655965777 0 0 1 I I #
straight-curve $-1 31.629502473478535 1.1550642982652164 71.303424924674403 0 0.48480960649040278 -0.87461971476443456 I I #
edge $-1 $388 -63.875100203034208 $228 -31.629502473478535 $322 $395 forward 7 unknown #
point $-1 31.629502473478535 38.01956471816991 8.182090655937948 #
point $-1 31.629502473478535 36.143789925399552 8.182090655937948 #
edge $-1 $396 1 $396 0 $231 $-1 forward 7 unknown #
vertex $-1 $232 $397 #
ellipse-curve $-1 40.84253039620873 35.83291458074833 5.7978964762340972 0 0.87461971476443456 0.48480960649040278 0.5 0 0 1 I I #
point $-1 41.34253039620873 37.081677321784717 6.4900969410324318 #
edge $-1 $398 1 $398 0 $235 $-1 forward 7 unknown #
vertex $-1 $236 $399 #
ellipse-curve $-1 54.662072280304017 35.83291458074833 5.7978964762340972 0 0.87461971476443456 0.48480960649040278 0.5 0 0 1 I I #
point $-1 55.162072280304017 37.081677321784717 6.4900969410324318 #
plane-surface $-1 69.170812097537151 0 0 -1 0 0 0 0 1 forward_v I I I I #
coedge $-1 $244 $242 $246 $343 reversed $161 $-1 #
edge $-1 $257 -8.182090655937948 $345 8.182090655937948 $256 $400 forward 7 unknown #
vertex $-1 $343 $401 #
straight-curve $-1 -69.170812097537151 -38.01956471816991 0 0 0 -1 I I #
edge $-1 $341 -38.01956471816991 $345 38.01956471816991 $339 $402 forward 7 unknown #
straight-curve $-1 0 -38.01956471816991 -8.182090655937948 -1 0 0 I I #
vertex $-1 $249 $403 #
straight-curve $-1 0 38.01956471816991 -8.182090655937948 1 0 0 I I #
point $-1 69.170812097537151 38.01956471816991 -8.182090655937948 #
point $-1 69.170812097537151 -38.01956471816991 -8.182090655937948 #
straight-curve $-1 -69.170812097537151 0 8.182090655937948 0 -1 0 I I #
point $-1 -69.170812097537151 38.01956471816991 8.182090655937948 #
point $-1 -69.170812097537151 -38.01956471816991 8.182090655937948 #
straight-curve $-1 69.170812097537151 -38.01956471816991 0 0 0 -1 I I #
straight-curve $-1 69.170812097537151 38.01956471816991 0 0 0 -1 I I #
plane-surface $-1 0 -38.01956471816991 0 0 1 0 0 0 1 forward_v I I I I #
coedge $-1 $404 $368 $270 $357 forward $267 $-1 #
coedge $-1 $358 $269 $278 $366 forward $180 $-1 #
edge $-1 $361 -1.5 $359 1.5 $270 $405 forward 7 unknown #
coedge $-1 $271 $356 $404 $406 forward $180 $-1 #
vertex $-1 $272 $407 #
straight-curve $-1 -72.313734229672619 38.01956471816991 2.0012303375896057 1 0 0 I I #
vertex $-1 $273 $408 #
straight-curve $-1 -72.313734229672619 38.01956471816991 5.0012303375896057 -1 0 0 I I #
point $-1 -69.170812097537151 38.01956471816991 2.0012303375896057 #
straight-curve $-1 -69.170812097537151 0 2.0012303375896057 0 1 0 I I #
coedge $-1 $278 $277 $409 $410 forward $279 $-1 #
edge $-1 $280 -3.1429221321354675 $411 3.1429221321354675 $278 $412 forward 7 unknown #
point $-1 -69.170812097537151 -38.01956471816991 2.0012303375896057 #
coedge $-1 $355 $409 $282 $369 reversed $267 $-1 #
edge $-1 $361 -38.01956471816991 $370 38.01956471816991 $368 $413 forward 7 unknown #
vertex $-1 $369 $414 #
straight-curve $-1 -72.313734229672619 -38.01956471816991 5.0012303375896057 1 0 0 I I #
coedge $-1 $297 $296 $289 $373 forward $286 $-1 #
edge $-1 $374 61.004296000027828 $377 64.388283429838808 $372 $415 forward 7 unknown #
vertex $-1 $301 $416 #
straight-curve $-1 -25.343658209207614 61.075688095904852 8.1820906559379409 0 1 0 I I #
edge $-1 $377 4.6104296722148881 $298 36.856027401770561 $297 $417 forward 7 unknown #
vertex $-1 $376 $418 #
straight-curve $-1 -25.343658209207614 1.1550642982652164 71.303424924674403 0 -0.48480960649040278 0.87461971476443456 I I #
point $-1 -25.343658209207614 36.143789925399552 8.182090655937948 #
point $-1 -57.589255938763287 38.01956471816991 4.7981032261269689 #
straight-curve $-1 0 38.01956471816991 8.182090655937948 -1 0 0 I I #
vertex $-1 $304 $419 #
point $-1 -47.876228016033103 35.83291458074833 5.7978964762340972 #
vertex $-1 $308 $420 #
point $-1 -34.056686131937809 35.83291458074833 5.7978964762340972 #
coedge $-1 $323 $322 $315 $387 forward $312 $-1 #
edge $-1 $388 61.004296000027828 $391 64.388283429838808 $386 $421 forward 7 unknown #
vertex $-1 $327 $422 #
straight-curve $-1 63.875100203034208 61.075688095904852 8.1820906559379409 0 1 0 I I #
edge $-1 $391 -39.998949533906021 $324 -7.7533518043503484 $323 $423 forward 7 unknown #
vertex $-1 $390 $424 #
straight-curve $-1 63.875100203034208 1.1550642982652164 71.303424924674403 0 -0.48480960649040278 0.87461971476443456 I I #
point $-1 63.875100203034208 36.143789925399552 8.182090655937948 #
point $-1 31.629502473478535 38.01956471816991 4.7981032261269689 #
straight-curve $-1 0 38.01956471816991 8.182090655937948 -1 0 0 I I #
vertex $-1 $330 $425 #
point $-1 41.34253039620873 35.83291458074833 5.7978964762340972 #
vertex $-1 $334 $426 #
point $-1 55.162072280304017 35.83291458074833 5.7978964762340972 #
straight-curve $-1 -69.170812097537151 38.01956471816991 0 0 0 -1 I I #
point $-1 -69.170812097537151 -38.01956471816991 -8.182090655937948 #
straight-curve $-1 -69.170812097537151 0 -8.182090655937948 0 1 0 I I #
point $-1 -69.170812097537151 38.01956471816991 -8.182090655937948 #
coedge $-1 $409 $355 $358 $406 reversed $267 $-1 #
straight-curve $-1 -75.456656361808086 38.01956471816991 3.5012303375896057 0 0 -1 I I #
edge $-1 $411 -38.01956471816991 $359 38.01956471816991 $404 $427 forward 7 unknown #
point $-1 -75.456656361808086 38.01956471816991 2.0012303375896057 #
point $-1 -75.456656361808086 38.01956471816991 5.0012303375896057 #
coedge $-1 $368 $404 $365 $410 reversed $267 $-1 #
edge $-1 $370 -1.5 $411 1.5 $409 $428 forward 7 unknown #
vertex $-1 $406 $429 #
straight-curve $-1 -72.313734229672619 -38.01956471816991 2.0012303375896057 -1 0 0 I I #
straight-curve $-1 -75.456656361808086 0 5.0012303375896057 0 -1 0 I I #
point $-1 -75.456656361808086 -38.01956471816991 5.0012303375896057 #
straight-curve $-1 -25.343658209207614 38.01956471816991 69.186386655965777 0 0 -1 I I #
point $-1 -25.343658209207614 38.01956471816991 8.182090655937948 #
straight-curve $-1 -20.733228536992726 38.01956471816991 4.7981032261269796 -1 0 0 I I #
point $-1 -25.343658209207614 38.01956471816991 4.7981032261269689 #
point $-1 -48.376228016033103 35.395604723366112 5.5554916729888966 #
point $-1 -34.556686131937809 35.395604723366112 5.5554916729888966 #
straight-curve $-1 63.875100203034208 38.01956471816991 69.186386655965777 0 0 -1 I I #
point $-1 63.875100203034208 38.01956471816991 8.182090655937948 #
straight-curve $-1 23.876150669128187 38.01956471816991 4.7981032261269796 -1 0 0 I I #
point $-1 63.875100203034208 38.01956471816991 4.7981032261269689 #
point $-1 40.84253039620873 35.395604723366112 5.5554916729888966 #
point $-1 54.662072280304017 35.395604723366112 5.5554916729888966 #
straight-curve $-1 -75.456656361808086 0 2.0012303375896057 0 1 0 I I #
straight-curve $-1 -75.456656361808086 -38.01956471816991 3.5012303375896057 0 0 -1 I I #
point $-1 -75.456656361808086 -38.01956471816991 2.0012303375896057 #
End-of-ACIS-data 