500 0 8 0           
7 Unknown 11 ACIS 5.0 NT 24 Thu Mar 25 17:43:42 1999 
-1 9.9999999999999995e-007 1e-010 
body $-1 $8 $-1 $9 #
body $-1 $10 $-1 $11 #
body $-1 $12 $-1 $13 #
body $-1 $14 $-1 $15 #
body $-1 $16 $-1 $17 #
body $-1 $18 $-1 $19 #
body $-1 $20 $-1 $21 #
body $-1 $22 $-1 $23 #
lump $-1 $-1 $24 $0 #
transform $-1 1 0 0 0 1 0 0 0 1 78.361766411328475 47.261947840220955 16.433720783481597 1 rotate no_reflect no_shear #
lump $-1 $-1 $25 $1 #
transform $-1 1 0 0 0 1 0 0 0 1 78.361766411328475 47.261947840220955 16.433720783481597 1 rotate no_reflect no_shear #
lump $-1 $-1 $26 $2 #
transform $-1 1 0 0 0 1 0 0 0 1 78.361766411328475 47.261947840220955 16.433720783481597 1 rotate no_reflect no_shear #
lump $-1 $-1 $27 $3 #
transform $-1 1 0 0 0 1 0 0 0 1 78.361766411328475 47.261947840220955 16.433720783481597 1 rotate no_reflect no_shear #
lump $-1 $-1 $28 $4 #
transform $-1 1 0 0 0 1 0 0 0 1 78.361766411328475 47.261947840220955 16.433720783481597 1 rotate no_reflect no_shear #
lump $-1 $-1 $29 $5 #
transform $-1 1 0 0 0 1 0 0 0 1 78.361766411328475 47.261947840220955 16.433720783481597 1 rotate no_reflect no_shear #
lump $-1 $-1 $30 $6 #
transform $-1 1 0 0 0 1 0 0 0 1 78.361766411328475 47.261947840220955 16.433720783481597 1 rotate no_reflect no_shear #
lump $-1 $-1 $31 $7 #
transform $-1 1 0 0 0 1 0 0 0 1 78.361766411328475 47.261947840220955 16.433720783481597 1 rotate no_reflect no_shear #
shell $-1 $-1 $-1 $32 $-1 $8 #
shell $-1 $-1 $-1 $33 $-1 $10 #
shell $-1 $-1 $-1 $34 $-1 $12 #
shell $-1 $-1 $-1 $35 $-1 $14 #
shell $-1 $-1 $-1 $36 $-1 $16 #
shell $-1 $-1 $-1 $37 $-1 $18 #
shell $-1 $-1 $-1 $38 $-1 $20 #
shell $-1 $-1 $-1 $39 $-1 $22 #
face $-1 $40 $41 $24 $-1 $42 forward single #
face $-1 $43 $44 $25 $-1 $45 forward single #
face $-1 $46 $47 $26 $-1 $48 reversed single #
face $-1 $49 $50 $27 $-1 $51 forward single #
face $-1 $52 $53 $28 $-1 $54 forward single #
face $-1 $55 $56 $29 $-1 $57 reversed single #
face $-1 $58 $59 $30 $-1 $60 forward single #
face $-1 $61 $62 $31 $-1 $63 forward single #
face $-1 $64 $65 $24 $-1 $66 reversed single #
loop $-1 $-1 $67 $32 #
plane-surface $-1 0 0 16.433720783481597 0 0 1 1 0 0 forward_v I I I I #
face $-1 $68 $69 $25 $-1 $70 reversed single #
loop $-1 $-1 $71 $33 #
plane-surface $-1 -69.47195450708827 0 -0.86075217729960496 0 0 1 1 0 0 forward_v I I I I #
face $-1 $72 $73 $26 $-1 $74 reversed single #
loop $-1 $-1 $75 $34 #
plane-surface $-1 58.877731634594554 138.50934674567276 165.1278958703607 1 0 0 0 -0.87461971476443456 -0.48480960649040278 forward_v I I I I #
face $-1 $76 $77 $27 $-1 $78 forward single #
loop $-1 $79 $80 $35 #
cone-surface $-1 64.444598713661392 42.045593061568418 10.092616590512623 0 -0.87461971476443456 -0.48480960649040278 2.5 0 0 1 I I 0 1 2.5 forward I I I I #
face $-1 $81 $82 $28 $-1 $83 forward single #
loop $-1 $84 $85 $36 #
cone-surface $-1 72.794899332261636 42.045593061568418 10.092616590512623 0 -0.87461971476443456 -0.48480960649040278 2.5 0 0 1 I I 0 1 2.5 forward I I I I #
face $-1 $86 $87 $29 $-1 $88 reversed single #
loop $-1 $-1 $89 $37 #
plane-surface $-1 68.6197490229615 -47.261947840220955 6.4743589163714006 0 -0.87461971476443456 0.48480960649040278 1 0 0 forward_v I I I I #
face $-1 $90 $91 $30 $-1 $92 forward single #
loop $-1 $93 $94 $38 #
cone-surface $-1 64.444598713661392 -42.045593061568425 10.09261659051262 0 0.87461971476443456 -0.48480960649040278 2.5 0 0 1 I I 0 1 2.5 forward I I I I #
face $-1 $95 $96 $31 $-1 $97 forward single #
loop $-1 $98 $99 $39 #
cone-surface $-1 72.794899332261636 -42.045593061568425 10.09261659051262 0 0.87461971476443456 -0.48480960649040278 2.5 0 0 1 I I 0 1 2.5 forward I I I I #
face $-1 $100 $101 $24 $-1 $102 reversed single #
loop $-1 $-1 $103 $40 #
plane-surface $-1 0 0 -16.433720783481597 0 0 1 1 0 0 forward_v I I I I #
coedge $-1 $104 $105 $106 $107 forward $41 $-1 #
face $-1 $108 $109 $25 $-1 $110 reversed single #
loop $-1 $-1 $111 $43 #
plane-surface $-1 -69.47195450708827 0 -7.3460710484565768 0 0 1 1 0 0 forward_v I I I I #
coedge $-1 $112 $113 $114 $115 forward $44 $-1 #
face $-1 $116 $117 $26 $-1 $118 forward single #
loop $-1 $-1 $119 $46 #
plane-surface $-1 68.6197490229615 1.4358551714460361 89.146821594822669 0 0.87461971476443456 0.48480960649040278 1 0 0 forward_v I I I I #
coedge $-1 $120 $121 $122 $123 reversed $47 $-1 #
face $-1 $-1 $124 $27 $-1 $125 forward single #
loop $-1 $126 $127 $49 #
cone-surface $-1 64.444598713661392 38.496245751892303 8.1251813229857461 0 -0.87461971476443456 -0.48480960649040278 1.25 0 0 1 I I -0.70710678118654746 0.70710678118654746 1.25 forward I I I I #
loop $-1 $-1 $128 $35 #
coedge $-1 $80 $80 $129 $130 reversed $50 $-1 #
face $-1 $-1 $131 $28 $-1 $132 forward single #
loop $-1 $133 $134 $52 #
cone-surface $-1 72.794899332261636 38.496245751892303 8.1251813229857461 0 -0.87461971476443456 -0.48480960649040278 1.25 0 0 1 I I -0.70710678118654746 0.70710678118654746 1.25 forward I I I I #
loop $-1 $-1 $135 $36 #
coedge $-1 $85 $85 $136 $137 reversed $53 $-1 #
face $-1 $138 $139 $29 $-1 $140 reversed single #
loop $-1 $-1 $141 $55 #
plane-surface $-1 58.877731634594554 -184.33543941444768 82.455433191909435 1 0 0 0 0.87461971476443456 -0.48480960649040278 forward_v I I I I #
coedge $-1 $142 $143 $144 $145 reversed $56 $-1 #
face $-1 $-1 $146 $30 $-1 $147 forward single #
loop $-1 $148 $149 $58 #
cone-surface $-1 64.444598713661392 -38.49624575189231 8.1251813229857426 0 0.87461971476443456 -0.48480960649040278 1.25 0 0 1 I I -0.70710678118654746 0.70710678118654746 1.25 forward I I I I #
loop $-1 $-1 $150 $38 #
coedge $-1 $94 $94 $151 $152 reversed $59 $-1 #
face $-1 $-1 $153 $31 $-1 $154 forward single #
loop $-1 $155 $156 $61 #
cone-surface $-1 72.794899332261636 -38.49624575189231 8.1251813229857426 0 0.87461971476443456 -0.48480960649040278 1.25 0 0 1 I I -0.70710678118654746 0.70710678118654746 1.25 forward I I I I #
loop $-1 $-1 $157 $39 #
coedge $-1 $99 $99 $158 $159 reversed $62 $-1 #
face $-1 $160 $161 $24 $-1 $162 reversed single #
loop $-1 $-1 $163 $64 #
plane-surface $-1 0 -47.261947840220955 0 0 1 0 0 0 1 forward_v I I I I #
coedge $-1 $164 $165 $166 $167 forward $65 $-1 #
coedge $-1 $168 $67 $169 $170 forward $41 $-1 #
coedge $-1 $67 $168 $171 $172 forward $41 $-1 #
coedge $-1 $173 $174 $67 $107 reversed $175 $-1 #
edge $-1 $176 -47.261947840220955 $177 47.261947840220955 $106 $178 forward 7 unknown #
face $-1 $179 $180 $25 $-1 $181 reversed single #
loop $-1 $-1 $182 $68 #
plane-surface $-1 -60.582142602848073 0 -4.1034116128780909 -1 0 0 0 0 1 forward_v I I I I #
coedge $-1 $183 $184 $185 $186 forward $69 $-1 #
coedge $-1 $187 $71 $188 $189 reversed $44 $-1 #
coedge $-1 $71 $187 $190 $191 reversed $44 $-1 #
coedge $-1 $182 $192 $71 $115 reversed $109 $-1 #
edge $-1 $193 -47.261947840220955 $194 47.261947840220955 $114 $195 forward 7 unknown #
face $-1 $196 $197 $26 $-1 $198 reversed single #
loop $-1 $-1 $122 $72 #
plane-surface $-1 0 0 16.433720783481597 0 0 1 1 0 0 forward_v I I I I #
coedge $-1 $199 $200 $201 $202 reversed $73 $-1 #
coedge $-1 $121 $75 $203 $204 reversed $47 $-1 #
coedge $-1 $75 $120 $199 $205 reversed $47 $-1 #
coedge $-1 $201 $206 $75 $123 forward $117 $-1 #
edge $-1 $207 21.992725532615424 $208 27.513289757479335 $122 $209 forward 7 unknown #
loop $-1 $-1 $129 $76 #
plane-surface $-1 68.6197490229615 1.4358551714460361 89.146821594822669 0 0.87461971476443456 0.48480960649040278 1 0 0 forward_v I I I I #
loop $-1 $-1 $210 $49 #
coedge $-1 $127 $127 $128 $211 reversed $77 $-1 #
coedge $-1 $128 $128 $127 $211 forward $79 $-1 #
coedge $-1 $129 $129 $80 $130 forward $124 $-1 #
edge $-1 $212 -2.7000481343398821e-016 $212 6.2831853071796004 $129 $213 forward 7 unknown #
loop $-1 $-1 $136 $81 #
plane-surface $-1 68.6197490229615 1.4358551714460361 89.146821594822669 0 0.87461971476443456 0.48480960649040278 1 0 0 forward_v I I I I #
loop $-1 $-1 $214 $52 #
coedge $-1 $134 $134 $135 $215 reversed $82 $-1 #
coedge $-1 $135 $135 $134 $215 forward $84 $-1 #
coedge $-1 $136 $136 $85 $137 forward $131 $-1 #
edge $-1 $216 -2.7000481343398821e-016 $216 6.2831853071796004 $136 $217 forward 7 unknown #
face $-1 $218 $219 $29 $-1 $220 forward single #
loop $-1 $-1 $221 $86 #
plane-surface $-1 0 -47.261947840220955 0 0 1 0 0 0 1 forward_v I I I I #
coedge $-1 $222 $223 $224 $225 reversed $87 $-1 #
coedge $-1 $226 $89 $227 $228 reversed $56 $-1 #
coedge $-1 $89 $226 $222 $229 forward $56 $-1 #
coedge $-1 $224 $230 $89 $145 forward $219 $-1 #
edge $-1 $231 -44.051891899847696 $232 -24.567857123113804 $144 $233 forward 7 unknown #
loop $-1 $-1 $151 $90 #
plane-surface $-1 68.6197490229615 -47.261947840220955 6.4743589163714006 0 -0.87461971476443456 0.48480960649040278 1 0 0 forward_v I I I I #
loop $-1 $-1 $234 $58 #
coedge $-1 $149 $149 $150 $235 reversed $91 $-1 #
coedge $-1 $150 $150 $149 $235 forward $93 $-1 #
coedge $-1 $151 $151 $94 $152 forward $146 $-1 #
edge $-1 $236 7.5645709159543391e-016 $236 6.2831853071796013 $151 $237 forward 7 unknown #
loop $-1 $-1 $158 $95 #
plane-surface $-1 68.6197490229615 -47.261947840220955 6.4743589163714006 0 -0.87461971476443456 0.48480960649040278 1 0 0 forward_v I I I I #
loop $-1 $-1 $238 $61 #
coedge $-1 $156 $156 $157 $239 reversed $96 $-1 #
coedge $-1 $157 $157 $156 $239 forward $98 $-1 #
coedge $-1 $158 $158 $99 $159 forward $153 $-1 #
edge $-1 $240 7.5645709159543391e-016 $240 6.2831853071796013 $158 $241 forward 7 unknown #
face $-1 $242 $243 $24 $-1 $244 reversed single #
loop $-1 $-1 $245 $100 #
plane-surface $-1 -78.361766411328475 0 0 1 0 0 0 0 -1 forward_v I I I I #
coedge $-1 $246 $171 $247 $248 forward $101 $-1 #
coedge $-1 $249 $103 $246 $250 forward $65 $-1 #
coedge $-1 $103 $249 $251 $252 forward $65 $-1 #
coedge $-1 $174 $173 $103 $167 reversed $175 $-1 #
edge $-1 $253 -47.261947840220955 $254 47.261947840220955 $166 $255 forward 7 unknown #
coedge $-1 $105 $104 $256 $257 forward $41 $-1 #
coedge $-1 $258 $259 $104 $170 reversed $243 $-1 #
edge $-1 $177 -78.361766411328475 $260 78.361766411328475 $169 $261 forward 7 unknown #
coedge $-1 $163 $262 $105 $172 reversed $101 $-1 #
edge $-1 $263 -78.361766411328475 $176 78.361766411328475 $171 $264 forward 7 unknown #
coedge $-1 $166 $106 $262 $265 forward $175 $-1 #
coedge $-1 $106 $166 $258 $266 reversed $175 $-1 #
loop $-1 $-1 $173 $242 #
vertex $-1 $107 $267 #
vertex $-1 $107 $268 #
straight-curve $-1 78.361766411328475 0 16.433720783481597 0 1 0 I I #
face $-1 $269 $270 $25 $-1 $271 reversed single #
loop $-1 $-1 $272 $108 #
plane-surface $-1 0 -47.261947840220955 0 0 1 0 0 0 1 forward_v I I I I #
coedge $-1 $185 $114 $273 $274 reversed $109 $-1 #
coedge $-1 $275 $111 $272 $276 reversed $69 $-1 #
coedge $-1 $111 $275 $277 $278 reversed $69 $-1 #
coedge $-1 $192 $182 $111 $186 reversed $109 $-1 #
edge $-1 $279 -47.261947840220955 $280 47.261947840220955 $185 $281 forward 7 unknown #
coedge $-1 $113 $112 $282 $283 reversed $44 $-1 #
coedge $-1 $284 $285 $112 $189 forward $286 $-1 #
edge $-1 $287 -43.625789157784325 $194 -25.846165349303938 $188 $288 forward 7 unknown #
coedge $-1 $289 $273 $113 $191 forward $180 $-1 #
edge $-1 $193 25.846165349303938 $290 43.625789157784325 $190 $291 forward 7 unknown #
coedge $-1 $114 $185 $284 $292 reversed $109 $-1 #
vertex $-1 $191 $293 #
vertex $-1 $189 $294 #
straight-curve $-1 -60.582142602848073 0 -0.86075217729960496 0 1 0 I I #
face $-1 $-1 $295 $26 $-1 $296 reversed single #
loop $-1 $-1 $297 $116 #
plane-surface $-1 78.361766411328475 0 0 -1 0 0 0 0 1 forward_v I I I I #
coedge $-1 $298 $119 $121 $205 forward $73 $-1 #
coedge $-1 $119 $298 $297 $299 reversed $73 $-1 #
coedge $-1 $300 $122 $119 $202 forward $117 $-1 #
edge $-1 $208 24.567857123113804 $301 44.051891899847696 $201 $302 forward 7 unknown #
coedge $-1 $303 $304 $120 $204 forward $295 $-1 #
edge $-1 $305 -76.089589018808937 $207 -66.130227151698762 $203 $306 forward 7 unknown #
edge $-1 $208 83.136818875532924 $305 94.523895680441896 $121 $307 forward 7 unknown #
coedge $-1 $122 $300 $303 $308 forward $117 $-1 #
vertex $-1 $204 $309 #
vertex $-1 $123 $310 #
straight-curve $-1 58.877731634594554 69.254673372836379 16.43372078348159 0 -1 0 I I #
coedge $-1 $210 $210 $-1 $311 reversed $126 $-1 #
edge $-1 $312 0 $312 6.2831853071796004 $127 $313 forward 7 unknown #
vertex $-1 $130 $314 #
ellipse-curve $-1 64.444598713661392 44.501665727789003 11.454039849926504 0 0.87461971476443456 0.48480960649040278 2.5 0 0 1 I I #
coedge $-1 $214 $214 $-1 $315 reversed $133 $-1 #
edge $-1 $316 0 $316 6.2831853071796004 $134 $317 forward 7 unknown #
vertex $-1 $137 $318 #
ellipse-curve $-1 72.794899332261636 44.501665727789003 11.454039849926504 0 0.87461971476443456 0.48480960649040278 2.5 0 0 1 I I #
face $-1 $-1 $319 $29 $-1 $320 reversed single #
loop $-1 $-1 $224 $138 #
plane-surface $-1 0 0 16.433720783481597 0 0 1 1 0 0 forward_v I I I I #
coedge $-1 $321 $322 $223 $323 forward $139 $-1 #
coedge $-1 $223 $141 $143 $229 reversed $87 $-1 #
coedge $-1 $141 $222 $221 $323 reversed $87 $-1 #
coedge $-1 $324 $144 $141 $225 forward $219 $-1 #
edge $-1 $232 -50.426336091866794 $325 -44.905771867002883 $224 $326 forward 7 unknown #
coedge $-1 $143 $142 $321 $327 reversed $56 $-1 #
coedge $-1 $328 $329 $142 $228 forward $319 $-1 #
edge $-1 $330 -8.6252221928340642 $231 2.7618546120749095 $227 $331 forward 7 unknown #
edge $-1 $332 0 $232 11.387076804908974 $222 $333 forward 7 unknown #
coedge $-1 $144 $324 $328 $334 forward $219 $-1 #
vertex $-1 $228 $335 #
vertex $-1 $145 $336 #
straight-curve $-1 34.30987451148075 -41.741383615357037 16.433720783481597 -1 0 0 I I #
coedge $-1 $234 $234 $-1 $337 reversed $148 $-1 #
edge $-1 $338 0 $338 6.2831853071796004 $149 $339 forward 7 unknown #
vertex $-1 $152 $340 #
ellipse-curve $-1 64.444598713661392 -44.501665727789003 11.454039849926495 0 -0.87461971476443456 0.48480960649040278 2.5 0 0 1 I I #
coedge $-1 $238 $238 $-1 $341 reversed $155 $-1 #
edge $-1 $342 0 $342 6.2831853071796004 $156 $343 forward 7 unknown #
vertex $-1 $159 $344 #
ellipse-curve $-1 72.794899332261636 -44.501665727789003 11.454039849926495 0 -0.87461971476443456 0.48480960649040278 2.5 0 0 1 I I #
face $-1 $-1 $175 $24 $-1 $345 reversed single #
loop $-1 $-1 $258 $160 #
plane-surface $-1 0 47.261947840220955 0 0 -1 0 0 0 -1 forward_v I I I I #
coedge $-1 $346 $256 $259 $347 forward $161 $-1 #
coedge $-1 $262 $163 $164 $250 reversed $101 $-1 #
coedge $-1 $256 $346 $163 $248 reversed $161 $-1 #
edge $-1 $263 -16.433720783481597 $348 16.433720783481597 $247 $349 forward 7 unknown #
coedge $-1 $165 $164 $346 $350 forward $65 $-1 #
edge $-1 $254 -78.361766411328475 $348 78.361766411328475 $246 $351 forward 7 unknown #
coedge $-1 $259 $258 $165 $252 reversed $243 $-1 #
edge $-1 $352 -78.361766411328475 $253 78.361766411328475 $251 $353 forward 7 unknown #
vertex $-1 $167 $354 #
vertex $-1 $265 $355 #
straight-curve $-1 78.361766411328475 0 -16.433720783481597 0 -1 0 I I #
coedge $-1 $245 $247 $168 $257 reversed $161 $-1 #
edge $-1 $260 -47.261947840220955 $263 47.261947840220955 $256 $356 forward 7 unknown #
coedge $-1 $251 $169 $174 $266 forward $243 $-1 #
coedge $-1 $169 $251 $245 $347 reversed $243 $-1 #
vertex $-1 $170 $357 #
straight-curve $-1 0 47.261947840220955 16.433720783481597 -1 0 0 I I #
coedge $-1 $171 $246 $173 $265 reversed $101 $-1 #
vertex $-1 $257 $358 #
straight-curve $-1 0 -47.261947840220955 16.433720783481597 1 0 0 I I #
edge $-1 $176 -16.433720783481597 $254 16.433720783481597 $173 $359 forward 7 unknown #
edge $-1 $177 -16.433720783481597 $253 16.433720783481597 $174 $360 forward 7 unknown #
point $-1 78.361766411328475 -47.261947840220955 16.433720783481597 #
point $-1 78.361766411328475 47.261947840220955 16.433720783481597 #
face $-1 $-1 $286 $25 $-1 $361 reversed single #
loop $-1 $-1 $362 $179 #
plane-surface $-1 -78.361766411328475 0 0 1 0 0 0 0 -1 forward_v I I I I #
coedge $-1 $273 $289 $183 $276 forward $180 $-1 #
coedge $-1 $190 $272 $182 $274 forward $180 $-1 #
edge $-1 $280 -5.2943652420175313 $193 1.1909536291394405 $273 $363 forward 7 unknown #
coedge $-1 $184 $183 $362 $364 reversed $69 $-1 #
edge $-1 $365 -43.625789157784325 $280 -25.846165349303938 $272 $366 forward 7 unknown #
coedge $-1 $285 $284 $184 $278 forward $286 $-1 #
edge $-1 $279 25.846165349303938 $367 43.625789157784325 $277 $368 forward 7 unknown #
vertex $-1 $278 $369 #
vertex $-1 $276 $370 #
straight-curve $-1 -60.582142602848073 0 -7.3460710484565768 0 -1 0 I I #
coedge $-1 $371 $372 $187 $283 forward $270 $-1 #
edge $-1 $290 -47.261947840220955 $287 47.261947840220955 $282 $373 forward 7 unknown #
coedge $-1 $277 $188 $192 $292 forward $286 $-1 #
coedge $-1 $188 $277 $371 $374 reversed $286 $-1 #
loop $-1 $-1 $277 $269 #
vertex $-1 $374 $375 #
straight-curve $-1 -34.735977253544135 47.261947840220955 -0.86075217729960496 1 0 0 I I #
coedge $-1 $272 $190 $372 $376 forward $180 $-1 #
vertex $-1 $376 $377 #
straight-curve $-1 -34.735977253544135 -47.261947840220955 -0.86075217729960496 -1 0 0 I I #
edge $-1 $194 -1.1909536291394405 $279 5.2943652420175313 $284 $378 forward 7 unknown #
point $-1 -60.582142602848073 -47.261947840220955 -0.86075217729960496 #
point $-1 -60.582142602848073 47.261947840220955 -0.86075217729960496 #
loop $-1 $-1 $203 $196 #
plane-surface $-1 0 47.261947840220955 0 0 -1 0 0 0 -1 forward_v I I I I #
coedge $-1 $379 $380 $200 $299 forward $197 $-1 #
coedge $-1 $200 $199 $304 $381 reversed $73 $-1 #
edge $-1 $301 44.500093228146042 $382 55.887170033055007 $297 $383 forward 7 unknown #
coedge $-1 $206 $201 $380 $384 forward $117 $-1 #
vertex $-1 $384 $385 #
straight-curve $-1 34.30987451148075 41.741383615357051 16.433720783481597 1 0 0 I I #
coedge $-1 $386 $203 $206 $308 reversed $295 $-1 #
coedge $-1 $203 $386 $298 $381 forward $295 $-1 #
vertex $-1 $204 $387 #
straight-curve $-1 58.877731634594554 47.261947840220955 82.563947935180352 0 0 1 I I #
straight-curve $-1 58.877731634594554 1.4358551714460361 89.146821594822669 0 0.48480960649040278 -0.87461971476443456 I I #
edge $-1 $388 -78.361766411328475 $207 -58.877731634594554 $303 $389 forward 7 unknown #
point $-1 58.877731634594554 47.261947840220955 16.433720783481597 #
point $-1 58.877731634594554 41.741383615357044 16.433720783481604 #
edge $-1 $390 1 $390 0 $210 $-1 forward 7 unknown #
vertex $-1 $211 $391 #
ellipse-curve $-1 64.444598713661392 39.589520395347847 8.7311933310987495 0 0.87461971476443456 0.48480960649040278 2.5 0 0 1 I I #
point $-1 66.944598713661392 44.501665727788989 11.454039849926497 #
edge $-1 $392 1 $392 0 $214 $-1 forward 7 unknown #
vertex $-1 $215 $393 #
ellipse-curve $-1 72.794899332261636 39.589520395347847 8.7311933310987495 0 0.87461971476443456 0.48480960649040278 2.5 0 0 1 I I #
point $-1 75.294899332261636 44.501665727788989 11.454039849926497 #
loop $-1 $-1 $227 $218 #
plane-surface $-1 78.361766411328475 0 0 -1 0 0 0 0 1 forward_v I I I I #
coedge $-1 $394 $221 $226 $327 forward $139 $-1 #
coedge $-1 $221 $394 $324 $395 reversed $139 $-1 #
edge $-1 $325 24.793995812473121 $332 34.753357679583317 $221 $396 forward 7 unknown #
coedge $-1 $230 $224 $322 $395 forward $219 $-1 #
vertex $-1 $395 $397 #
straight-curve $-1 58.877731634594554 -92.167719707223839 16.433720783481597 0 -1 0 I I #
edge $-1 $332 24.567857123113804 $330 44.051891899847696 $321 $398 forward 7 unknown #
coedge $-1 $329 $227 $230 $334 reversed $319 $-1 #
coedge $-1 $227 $328 $394 $399 forward $319 $-1 #
vertex $-1 $327 $400 #
straight-curve $-1 78.361766411328475 -43.080357263020787 14.018148290447803 0 0.48480960649040278 0.87461971476443456 I I #
vertex $-1 $327 $401 #
straight-curve $-1 58.877731634594554 -47.261947840220955 6.4743589163714006 0 0.48480960649040278 0.87461971476443456 I I #
edge $-1 $402 -47.261947840220955 $231 -41.741383615357044 $328 $403 forward 7 unknown #
point $-1 78.361766411328446 -41.741383615357044 16.433720783481597 #
point $-1 58.877731634594554 -41.741383615357044 16.433720783481597 #
edge $-1 $404 1 $404 0 $234 $-1 forward 7 unknown #
vertex $-1 $235 $405 #
ellipse-curve $-1 64.444598713661392 -39.589520395347854 8.731193331098746 0 -0.87461971476443456 0.48480960649040278 2.5 0 0 1 I I #
point $-1 66.944598713661392 -44.501665727788996 11.454039849926493 #
edge $-1 $406 1 $406 0 $238 $-1 forward 7 unknown #
vertex $-1 $239 $407 #
ellipse-curve $-1 72.794899332261636 -39.589520395347854 8.731193331098746 0 -0.87461971476443456 0.48480960649040278 2.5 0 0 1 I I #
point $-1 75.294899332261636 -44.501665727788996 11.454039849926493 #
plane-surface $-1 78.361766411328475 0 0 -1 0 0 0 0 1 forward_v I I I I #
coedge $-1 $247 $245 $249 $350 reversed $161 $-1 #
edge $-1 $260 -16.433720783481597 $352 16.433720783481597 $259 $408 forward 7 unknown #
vertex $-1 $350 $409 #
straight-curve $-1 -78.361766411328475 -47.261947840220955 0 0 0 -1 I I #
edge $-1 $348 -47.261947840220955 $352 47.261947840220955 $346 $410 forward 7 unknown #
straight-curve $-1 0 -47.261947840220955 -16.433720783481597 -1 0 0 I I #
vertex $-1 $252 $411 #
straight-curve $-1 0 47.261947840220955 -16.433720783481597 1 0 0 I I #
point $-1 78.361766411328475 47.261947840220955 -16.433720783481597 #
point $-1 78.361766411328475 -47.261947840220955 -16.433720783481597 #
straight-curve $-1 -78.361766411328475 0 16.433720783481597 0 -1 0 I I #
point $-1 -78.361766411328475 47.261947840220955 16.433720783481597 #
point $-1 -78.361766411328475 -47.261947840220955 16.433720783481597 #
straight-curve $-1 78.361766411328475 -47.261947840220955 0 0 0 -1 I I #
straight-curve $-1 78.361766411328475 47.261947840220955 0 0 0 -1 I I #
plane-surface $-1 0 47.261947840220955 0 0 -1 0 0 0 -1 forward_v I I I I #
coedge $-1 $372 $371 $275 $364 forward $270 $-1 #
straight-curve $-1 -60.582142602848073 -47.261947840220955 -2.0517058064390454 0 0 1 I I #
edge $-1 $367 -47.261947840220955 $365 47.261947840220955 $362 $412 forward 7 unknown #
vertex $-1 $276 $413 #
straight-curve $-1 -34.735977253544135 -47.261947840220955 -7.3460710484565768 1 0 0 I I #
vertex $-1 $278 $414 #
straight-curve $-1 -34.735977253544135 47.261947840220955 -7.3460710484565768 -1 0 0 I I #
point $-1 -60.582142602848073 47.261947840220955 -7.3460710484565768 #
point $-1 -60.582142602848073 -47.261947840220955 -7.3460710484565768 #
coedge $-1 $362 $282 $285 $374 forward $270 $-1 #
coedge $-1 $282 $362 $289 $376 reversed $270 $-1 #
straight-curve $-1 -78.361766411328475 0 -0.86075217729960496 0 1 0 I I #
edge $-1 $287 0.86075217729960496 $367 7.3460710484565768 $285 $415 forward 7 unknown #
point $-1 -78.36176641132846 47.261947840220955 -0.86075217729960496 #
edge $-1 $290 0.86075217729960496 $365 7.3460710484565768 $372 $416 forward 7 unknown #
point $-1 -78.36176641132846 -47.261947840220955 -0.86075217729960496 #
straight-curve $-1 -60.582142602848073 47.261947840220955 -2.0517058064390454 0 0 -1 I I #
coedge $-1 $380 $297 $386 $417 reversed $197 $-1 #
coedge $-1 $297 $379 $300 $384 reversed $197 $-1 #
edge $-1 $382 -44.051891899847696 $305 -24.567857123113804 $304 $418 forward 7 unknown #
vertex $-1 $299 $419 #
straight-curve $-1 78.361766411328475 20.167310928633327 55.354379629673439 0 0.48480960649040278 -0.87461971476443456 I I #
edge $-1 $301 41.741383615357044 $388 47.261947840220955 $380 $420 forward 7 unknown #
point $-1 78.361766411328446 41.741383615357044 16.433720783481604 #
coedge $-1 $304 $303 $379 $417 forward $295 $-1 #
point $-1 58.877731634594554 47.261947840220955 6.4743589163714148 #
vertex $-1 $384 $421 #
straight-curve $-1 0 47.261947840220955 16.433720783481597 -1 0 0 I I #
vertex $-1 $311 $422 #
point $-1 66.944598713661392 39.589520395347847 8.7311933310987495 #
vertex $-1 $315 $423 #
point $-1 75.294899332261636 39.589520395347847 8.7311933310987495 #
coedge $-1 $322 $321 $329 $399 reversed $139 $-1 #
edge $-1 $325 58.877731634594554 $402 78.361766411328475 $322 $424 forward 7 unknown #
straight-curve $-1 58.877731634594554 -47.261947840220955 41.227716595954718 0 0 -1 I I #
point $-1 58.877731634594554 -47.261947840220955 16.433720783481597 #
straight-curve $-1 34.30987451148075 -47.261947840220955 6.4743589163714068 1 0 0 I I #
edge $-1 $402 -16.433720783481597 $330 -6.4743589163714006 $329 $425 forward 7 unknown #
point $-1 78.361766411328446 -47.261947840220955 6.4743589163714006 #
point $-1 58.877731634594554 -47.261947840220955 6.4743589163714006 #
vertex $-1 $334 $426 #
straight-curve $-1 78.361766411328475 0 16.433720783481597 0 1 0 I I #
vertex $-1 $337 $427 #
point $-1 66.944598713661392 -39.589520395347854 8.731193331098746 #
vertex $-1 $341 $428 #
point $-1 75.294899332261636 -39.589520395347854 8.731193331098746 #
straight-curve $-1 -78.361766411328475 47.261947840220955 0 0 0 -1 I I #
point $-1 -78.361766411328475 -47.261947840220955 -16.433720783481597 #
straight-curve $-1 -78.361766411328475 0 -16.433720783481597 0 1 0 I I #
point $-1 -78.361766411328475 47.261947840220955 -16.433720783481597 #
straight-curve $-1 -78.361766411328475 0 -7.3460710484565768 0 -1 0 I I #
point $-1 -78.36176641132846 -47.261947840220955 -7.3460710484565768 #
point $-1 -78.36176641132846 47.261947840220955 -7.3460710484565768 #
straight-curve $-1 -78.361766411328475 47.261947840220955 0 0 0 -1 I I #
straight-curve $-1 -78.361766411328475 -47.261947840220955 0 0 0 -1 I I #
edge $-1 $388 -16.433720783481597 $382 -6.4743589163714148 $379 $429 forward 7 unknown #
straight-curve $-1 34.30987451148075 47.261947840220955 6.4743589163714148 -1 0 0 I I #
point $-1 78.361766411328446 47.261947840220955 6.4743589163714148 #
straight-curve $-1 78.361766411328475 0 16.433720783481597 0 1 0 I I #
point $-1 78.361766411328475 47.261947840220955 16.433720783481597 #
point $-1 64.444598713661392 37.402971108436759 7.5191693148727428 #
point $-1 72.794899332261636 37.402971108436759 7.5191693148727428 #
straight-curve $-1 0 -47.261947840220955 16.433720783481597 1 0 0 I I #
straight-curve $-1 78.361766411328475 -47.261947840220955 0 0 0 -1 I I #
point $-1 78.361766411328475 -47.261947840220955 16.433720783481597 #
point $-1 64.444598713661392 -37.402971108436766 7.5191693148727392 #
point $-1 72.794899332261636 -37.402971108436766 7.5191693148727392 #
straight-curve $-1 78.361766411328475 47.261947840220955 0 0 0 -1 I I #
End-of-ACIS-data 