500 0 8 0           
7 Unknown 11 ACIS 5.0 NT 24 Fri Mar 26 17:59:42 1999 
-1 9.9999999999999995e-007 1e-010 
body $-1 $8 $-1 $9 #
body $-1 $10 $-1 $11 #
body $-1 $12 $-1 $13 #
body $-1 $14 $-1 $15 #
body $-1 $16 $-1 $17 #
body $-1 $18 $-1 $19 #
body $-1 $20 $-1 $21 #
body $-1 $22 $-1 $23 #
lump $-1 $-1 $24 $0 #
transform $-1 1 0 0 0 1 0 0 0 1 73.753471480452902 35.984500378586645 15.503524497043406 1 rotate no_reflect no_shear #
lump $-1 $-1 $25 $1 #
transform $-1 1 0 0 0 1 0 0 0 1 73.753471480452902 35.984500378586645 15.503524497043406 1 rotate no_reflect no_shear #
lump $-1 $-1 $26 $2 #
transform $-1 1 0 0 0 1 0 0 0 1 73.753471480452902 35.984500378586645 15.503524497043406 1 rotate no_reflect no_shear #
lump $-1 $-1 $27 $3 #
transform $-1 1 0 0 0 1 0 0 0 1 73.753471480452902 35.984500378586645 15.503524497043406 1 rotate no_reflect no_shear #
lump $-1 $-1 $28 $4 #
transform $-1 1 0 0 0 1 0 0 0 1 73.753471480452902 35.984500378586645 15.503524497043406 1 rotate no_reflect no_shear #
lump $-1 $-1 $29 $5 #
transform $-1 1 0 0 0 1 0 0 0 1 73.753471480452902 35.984500378586645 15.503524497043406 1 rotate no_reflect no_shear #
lump $-1 $-1 $30 $6 #
transform $-1 1 0 0 0 1 0 0 0 1 73.753471480452902 35.984500378586645 15.503524497043406 1 rotate no_reflect no_shear #
lump $-1 $-1 $31 $7 #
transform $-1 1 0 0 0 1 0 0 0 1 73.753471480452902 35.984500378586645 15.503524497043406 1 rotate no_reflect no_shear #
shell $-1 $-1 $-1 $32 $-1 $8 #
shell $-1 $-1 $-1 $33 $-1 $10 #
shell $-1 $-1 $-1 $34 $-1 $12 #
shell $-1 $-1 $-1 $35 $-1 $14 #
shell $-1 $-1 $-1 $36 $-1 $16 #
shell $-1 $-1 $-1 $37 $-1 $18 #
shell $-1 $-1 $-1 $38 $-1 $20 #
shell $-1 $-1 $-1 $39 $-1 $22 #
face $-1 $40 $41 $24 $-1 $42 forward single #
face $-1 $43 $44 $25 $-1 $45 forward single #
face $-1 $46 $47 $26 $-1 $48 reversed single #
face $-1 $49 $50 $27 $-1 $51 forward single #
face $-1 $52 $53 $28 $-1 $54 forward single #
face $-1 $55 $56 $29 $-1 $57 reversed single #
face $-1 $58 $59 $30 $-1 $60 forward single #
face $-1 $61 $62 $31 $-1 $63 forward single #
face $-1 $64 $65 $24 $-1 $66 reversed single #
loop $-1 $-1 $67 $32 #
plane-surface $-1 0 0 15.503524497043406 0 0 1 1 0 0 forward_v I I I I #
face $-1 $68 $69 $25 $-1 $70 reversed single #
loop $-1 $-1 $71 $33 #
plane-surface $-1 -73.753471480452902 0 0 1 0 0 0 0 -1 forward_v I I I I #
face $-1 $72 $73 $26 $-1 $74 reversed single #
loop $-1 $-1 $75 $34 #
plane-surface $-1 -19.353918342762142 94.781510492770977 155.13345569906917 1 0 0 0 -0.73135370988377701 -0.68199835119979291 forward_v I I I I #
face $-1 $76 $77 $27 $-1 $78 forward single #
loop $-1 $79 $80 $35 #
cone-surface $-1 -8.0475739980814467 27.446239846791308 6.6543574012159468 0 -0.73135370988377701 -0.68199835119979291 2.5 0 0 1 I I 0 1 2.5 forward I I I I #
face $-1 $81 $82 $28 $-1 $83 forward single #
loop $-1 $84 $85 $36 #
cone-surface $-1 8.9119425189396111 27.446239846791308 6.6543574012159468 0 -0.73135370988377701 -0.68199835119979291 2.5 0 0 1 I I 0 1 2.5 forward I I I I #
face $-1 $86 $87 $29 $-1 $88 reversed single #
loop $-1 $-1 $89 $37 #
plane-surface $-1 63.792257666892624 -35.984500378586645 6.0943568145475666 0 -0.64278761758704617 0.76604443648966558 1 0 0 forward_v I I I I #
face $-1 $90 $91 $30 $-1 $92 forward single #
loop $-1 $93 $94 $38 #
cone-surface $-1 59.523166032509636 -28.606015204216931 8.6874148078597564 0 0.64278761758704617 -0.76604443648966558 2 0 0 1 I I 0 1 2 forward I I I I #
face $-1 $95 $96 $31 $-1 $97 forward single #
loop $-1 $98 $99 $39 #
cone-surface $-1 68.061349301275584 -28.606015204216931 8.6874148078597564 0 0.64278761758704617 -0.76604443648966558 2 0 0 1 I I 0 1 2 forward I I I I #
face $-1 $100 $101 $24 $-1 $102 reversed single #
loop $-1 $-1 $103 $40 #
plane-surface $-1 0 0 -15.503524497043406 0 0 1 1 0 0 forward_v I I I I #
coedge $-1 $104 $105 $106 $107 forward $41 $-1 #
face $-1 $108 $109 $25 $-1 $110 reversed single #
loop $-1 $-1 $111 $43 #
plane-surface $-1 0 35.984500378586645 0 0 -1 0 0 0 -1 forward_v I I I I #
coedge $-1 $112 $113 $114 $115 forward $44 $-1 #
face $-1 $116 $117 $26 $-1 $118 reversed single #
loop $-1 $-1 $119 $46 #
plane-surface $-1 0.4321842604290822 -13.098239475302165 54.533963809209524 0 0.73135370988377701 0.68199835119979291 1 0 0 forward_v I I I I #
coedge $-1 $120 $121 $122 $123 reversed $47 $-1 #
face $-1 $-1 $124 $27 $-1 $125 forward single #
loop $-1 $126 $127 $49 #
cone-surface $-1 -8.0475739980814467 24.336920808135517 3.7548705604992154 0 -0.73135370988377701 -0.68199835119979291 1.25 0 0 1 I I -0.70710678118654746 0.70710678118654746 1.25 forward I I I I #
loop $-1 $-1 $128 $35 #
coedge $-1 $80 $80 $129 $130 reversed $50 $-1 #
face $-1 $-1 $131 $28 $-1 $132 forward single #
loop $-1 $133 $134 $52 #
cone-surface $-1 8.9119425189396111 24.336920808135517 3.7548705604992154 0 -0.73135370988377701 -0.68199835119979291 1.25 0 0 1 I I -0.70710678118654746 0.70710678118654746 1.25 forward I I I I #
loop $-1 $-1 $135 $36 #
coedge $-1 $85 $85 $136 $137 reversed $53 $-1 #
face $-1 $138 $139 $29 $-1 $140 reversed single #
loop $-1 $-1 $141 $55 #
plane-surface $-1 53.831043853332339 -130.8001368219756 119.09122981334789 1 0 0 0 0.64278761758704617 -0.76604443648966558 forward_v I I I I #
coedge $-1 $142 $143 $144 $145 reversed $56 $-1 #
face $-1 $-1 $146 $30 $-1 $147 forward single #
loop $-1 $148 $149 $58 #
cone-surface $-1 59.523166032509636 -26.191446989295848 5.809844523434359 0 0.64278761758704617 -0.76604443648966558 1 0 0 1 I I -0.70710678118654746 0.70710678118654746 1 forward I I I I #
loop $-1 $-1 $150 $38 #
coedge $-1 $94 $94 $151 $152 reversed $59 $-1 #
face $-1 $-1 $153 $31 $-1 $154 forward single #
loop $-1 $155 $156 $61 #
cone-surface $-1 68.061349301275584 -26.191446989295848 5.809844523434359 0 0.64278761758704617 -0.76604443648966558 1 0 0 1 I I -0.70710678118654746 0.70710678118654746 1 forward I I I I #
loop $-1 $-1 $157 $39 #
coedge $-1 $99 $99 $158 $159 reversed $62 $-1 #
face $-1 $160 $161 $24 $-1 $162 reversed single #
loop $-1 $-1 $163 $64 #
plane-surface $-1 0 -35.984500378586645 0 0 1 0 0 0 1 forward_v I I I I #
coedge $-1 $164 $165 $166 $167 forward $65 $-1 #
coedge $-1 $168 $67 $169 $170 forward $41 $-1 #
coedge $-1 $67 $168 $171 $172 forward $41 $-1 #
coedge $-1 $173 $174 $67 $107 reversed $175 $-1 #
edge $-1 $176 -35.984500378586645 $177 35.984500378586645 $106 $178 forward 7 unknown #
face $-1 $179 $180 $25 $-1 $181 reversed single #
loop $-1 $-1 $114 $68 #
plane-surface $-1 -79.928091839986152 0 8.9471617248784074 0 0 1 1 0 0 forward_v I I I I #
coedge $-1 $182 $183 $112 $184 forward $69 $-1 #
coedge $-1 $185 $71 $111 $184 reversed $44 $-1 #
coedge $-1 $71 $185 $186 $187 reversed $44 $-1 #
coedge $-1 $188 $189 $71 $115 reversed $109 $-1 #
edge $-1 $190 -35.984500378586645 $191 35.984500378586645 $114 $192 forward 7 unknown #
face $-1 $193 $194 $26 $-1 $195 forward single #
loop $-1 $-1 $196 $72 #
plane-surface $-1 20.218286863620307 94.781510492770977 155.13345569906917 -1 0 0 0 0.73135370988377701 0.68199835119979291 forward_v I I I I #
coedge $-1 $197 $198 $199 $200 reversed $73 $-1 #
coedge $-1 $121 $75 $201 $202 reversed $47 $-1 #
coedge $-1 $75 $120 $197 $203 reversed $47 $-1 #
coedge $-1 $199 $204 $75 $123 forward $194 $-1 #
edge $-1 $205 11.406254867798843 $206 24.092522128787323 $122 $207 forward 7 unknown #
loop $-1 $-1 $129 $76 #
plane-surface $-1 0.4321842604290822 -13.098239475302165 54.533963809209524 0 0.73135370988377701 0.68199835119979291 1 0 0 forward_v I I I I #
loop $-1 $-1 $208 $49 #
coedge $-1 $127 $127 $128 $209 reversed $77 $-1 #
coedge $-1 $128 $128 $127 $209 forward $79 $-1 #
coedge $-1 $129 $129 $80 $130 forward $124 $-1 #
edge $-1 $210 -2.8690783656770111e-017 $210 6.2831853071796004 $129 $211 forward 7 unknown #
loop $-1 $-1 $136 $81 #
plane-surface $-1 0.4321842604290822 -13.098239475302165 54.533963809209524 0 0.73135370988377701 0.68199835119979291 1 0 0 forward_v I I I I #
loop $-1 $-1 $212 $52 #
coedge $-1 $134 $134 $135 $213 reversed $82 $-1 #
coedge $-1 $135 $135 $134 $213 forward $84 $-1 #
coedge $-1 $136 $136 $85 $137 forward $131 $-1 #
edge $-1 $214 -2.8690783656770111e-017 $214 6.2831853071796004 $136 $215 forward 7 unknown #
face $-1 $216 $217 $29 $-1 $218 forward single #
loop $-1 $-1 $219 $86 #
plane-surface $-1 73.753471480452902 0 0 -1 0 0 0 0 1 forward_v I I I I #
coedge $-1 $220 $221 $222 $223 reversed $87 $-1 #
coedge $-1 $224 $89 $219 $225 reversed $56 $-1 #
coedge $-1 $89 $224 $220 $226 forward $56 $-1 #
coedge $-1 $222 $227 $89 $145 forward $217 $-1 #
edge $-1 $228 -41.85734264700659 $229 -21.934915019886027 $144 $230 forward 7 unknown #
loop $-1 $-1 $151 $90 #
plane-surface $-1 63.792257666892624 -35.984500378586645 6.0943568145475666 0 -0.64278761758704617 0.76604443648966558 1 0 0 forward_v I I I I #
loop $-1 $-1 $231 $58 #
coedge $-1 $149 $149 $150 $232 reversed $91 $-1 #
coedge $-1 $150 $150 $149 $232 forward $93 $-1 #
coedge $-1 $151 $151 $94 $152 forward $146 $-1 #
edge $-1 $233 -1.3607682740429282e-015 $233 6.2831853071795987 $151 $234 forward 7 unknown #
loop $-1 $-1 $158 $95 #
plane-surface $-1 63.792257666892624 -35.984500378586645 6.0943568145475666 0 -0.64278761758704617 0.76604443648966558 1 0 0 forward_v I I I I #
loop $-1 $-1 $235 $61 #
coedge $-1 $156 $156 $157 $236 reversed $96 $-1 #
coedge $-1 $157 $157 $156 $236 forward $98 $-1 #
coedge $-1 $158 $158 $99 $159 forward $153 $-1 #
edge $-1 $237 -1.3607682740429282e-015 $237 6.2831853071795987 $158 $238 forward 7 unknown #
face $-1 $239 $240 $24 $-1 $241 reversed single #
loop $-1 $-1 $242 $100 #
plane-surface $-1 -73.753471480452902 0 0 1 0 0 0 0 -1 forward_v I I I I #
coedge $-1 $243 $171 $244 $245 forward $101 $-1 #
coedge $-1 $246 $103 $243 $247 forward $65 $-1 #
coedge $-1 $103 $246 $248 $249 forward $65 $-1 #
coedge $-1 $174 $173 $103 $167 reversed $175 $-1 #
edge $-1 $250 -35.984500378586645 $251 35.984500378586645 $166 $252 forward 7 unknown #
coedge $-1 $105 $104 $253 $254 forward $41 $-1 #
coedge $-1 $255 $256 $104 $170 reversed $240 $-1 #
edge $-1 $177 -73.753471480452902 $257 73.753471480452902 $169 $258 forward 7 unknown #
coedge $-1 $163 $259 $105 $172 reversed $101 $-1 #
edge $-1 $260 -73.753471480452902 $176 73.753471480452902 $171 $261 forward 7 unknown #
coedge $-1 $166 $106 $259 $262 forward $175 $-1 #
coedge $-1 $106 $166 $255 $263 reversed $175 $-1 #
loop $-1 $-1 $173 $239 #
vertex $-1 $107 $264 #
vertex $-1 $107 $265 #
straight-curve $-1 73.753471480452902 0 15.503524497043406 0 1 0 I I #
face $-1 $266 $267 $25 $-1 $268 forward single #
loop $-1 $-1 $269 $108 #
plane-surface $-1 -86.102712199519402 0 12.225343110960905 1 0 0 0 0 -1 forward_v I I I I #
coedge $-1 $270 $111 $189 $271 reversed $69 $-1 #
coedge $-1 $111 $270 $272 $273 reversed $69 $-1 #
edge $-1 $274 -15.503524497043406 $191 -8.9471617248784074 $111 $275 forward 7 unknown #
coedge $-1 $113 $112 $276 $277 reversed $44 $-1 #
coedge $-1 $278 $279 $113 $187 forward $280 $-1 #
edge $-1 $190 8.9471617248784074 $281 15.503524497043406 $186 $282 forward 7 unknown #
coedge $-1 $283 $114 $279 $284 forward $109 $-1 #
coedge $-1 $114 $283 $182 $271 forward $109 $-1 #
vertex $-1 $187 $285 #
vertex $-1 $184 $286 #
straight-curve $-1 -73.753471480452902 0 8.9471617248784074 0 1 0 I I #
face $-1 $-1 $287 $26 $-1 $288 reversed single #
loop $-1 $-1 $122 $116 #
plane-surface $-1 0 0 15.503524497043406 0 0 1 1 0 0 forward_v I I I I #
coedge $-1 $289 $290 $291 $292 reversed $117 $-1 #
coedge $-1 $293 $119 $121 $203 forward $73 $-1 #
coedge $-1 $119 $293 $289 $294 forward $73 $-1 #
coedge $-1 $291 $122 $119 $200 forward $194 $-1 #
edge $-1 $206 -19.570010472976684 $295 20.002194733405766 $199 $296 forward 7 unknown #
coedge $-1 $297 $298 $120 $202 forward $287 $-1 #
edge $-1 $299 -75.667559740712079 $205 -62.063203352491179 $201 $300 forward 7 unknown #
edge $-1 $206 53.367390887192784 $299 71.969000757173262 $121 $301 forward 7 unknown #
coedge $-1 $122 $291 $297 $302 forward $194 $-1 #
vertex $-1 $202 $303 #
vertex $-1 $123 $304 #
straight-curve $-1 -19.353918342762142 47.390755246385488 15.503524497043401 0 -1 0 I I #
coedge $-1 $208 $208 $-1 $305 reversed $126 $-1 #
edge $-1 $306 0 $306 6.2831853071796004 $127 $307 forward 7 unknown #
vertex $-1 $130 $308 #
ellipse-curve $-1 -8.0475739980814467 29.641366748092398 8.7013463029329596 0 0.73135370988377701 0.68199835119979291 2.5 0 0 1 I I #
coedge $-1 $212 $212 $-1 $309 reversed $133 $-1 #
edge $-1 $310 0 $310 6.2831853071796004 $134 $311 forward 7 unknown #
vertex $-1 $137 $312 #
ellipse-curve $-1 8.9119425189396111 29.641366748092398 8.7013463029329596 0 0.73135370988377701 0.68199835119979291 2.5 0 0 1 I I #
face $-1 $-1 $313 $29 $-1 $314 reversed single #
loop $-1 $-1 $144 $138 #
plane-surface $-1 0 0 15.503524497043406 0 0 1 1 0 0 forward_v I I I I #
coedge $-1 $315 $316 $142 $225 forward $139 $-1 #
coedge $-1 $221 $141 $143 $226 reversed $87 $-1 #
coedge $-1 $141 $220 $317 $318 reversed $87 $-1 #
coedge $-1 $319 $144 $141 $223 forward $217 $-1 #
edge $-1 $229 -40.628977186472504 $320 -29.415568032401154 $222 $321 forward 7 unknown #
coedge $-1 $143 $142 $322 $323 reversed $56 $-1 #
edge $-1 $324 -11.824174608664077 $228 2.8138915660030976 $219 $325 forward 7 unknown #
edge $-1 $326 0 $229 14.638066174667173 $220 $327 forward 7 unknown #
coedge $-1 $144 $319 $315 $328 forward $217 $-1 #
vertex $-1 $145 $329 #
vertex $-1 $145 $330 #
straight-curve $-1 31.896128833446312 -24.771091224515295 15.503524497043406 -1 0 0 I I #
coedge $-1 $231 $231 $-1 $331 reversed $148 $-1 #
edge $-1 $332 0 $332 6.2831853071796004 $149 $333 forward 7 unknown #
vertex $-1 $152 $334 #
ellipse-curve $-1 59.523166032509636 -30.377795801550967 10.798940655795487 0 -0.64278761758704617 0.76604443648966558 2 0 0 1 I I #
coedge $-1 $235 $235 $-1 $335 reversed $155 $-1 #
edge $-1 $336 0 $336 6.2831853071796004 $156 $337 forward 7 unknown #
vertex $-1 $159 $338 #
ellipse-curve $-1 68.061349301275584 -30.377795801550967 10.798940655795487 0 -0.64278761758704617 0.76604443648966558 2 0 0 1 I I #
face $-1 $-1 $175 $24 $-1 $339 reversed single #
loop $-1 $-1 $255 $160 #
plane-surface $-1 0 35.984500378586645 0 0 -1 0 0 0 -1 forward_v I I I I #
coedge $-1 $340 $253 $256 $341 forward $161 $-1 #
coedge $-1 $259 $163 $164 $247 reversed $101 $-1 #
coedge $-1 $253 $340 $163 $245 reversed $161 $-1 #
edge $-1 $260 -15.503524497043406 $342 15.503524497043406 $244 $343 forward 7 unknown #
coedge $-1 $165 $164 $340 $344 forward $65 $-1 #
edge $-1 $251 -73.753471480452902 $342 73.753471480452902 $243 $345 forward 7 unknown #
coedge $-1 $256 $255 $165 $249 reversed $240 $-1 #
edge $-1 $346 -73.753471480452902 $250 73.753471480452902 $248 $347 forward 7 unknown #
vertex $-1 $167 $348 #
vertex $-1 $262 $349 #
straight-curve $-1 73.753471480452902 0 -15.503524497043406 0 -1 0 I I #
coedge $-1 $242 $244 $168 $254 reversed $161 $-1 #
edge $-1 $257 -35.984500378586645 $260 35.984500378586645 $253 $350 forward 7 unknown #
coedge $-1 $248 $169 $174 $263 forward $240 $-1 #
coedge $-1 $169 $248 $242 $341 reversed $240 $-1 #
vertex $-1 $170 $351 #
straight-curve $-1 0 35.984500378586645 15.503524497043406 -1 0 0 I I #
coedge $-1 $171 $243 $173 $262 reversed $101 $-1 #
vertex $-1 $254 $352 #
straight-curve $-1 0 -35.984500378586645 15.503524497043406 1 0 0 I I #
edge $-1 $176 -15.503524497043406 $251 15.503524497043406 $173 $353 forward 7 unknown #
edge $-1 $177 -15.503524497043406 $250 15.503524497043406 $174 $354 forward 7 unknown #
point $-1 73.753471480452902 -35.984500378586645 15.503524497043406 #
point $-1 73.753471480452902 35.984500378586645 15.503524497043406 #
face $-1 $-1 $280 $25 $-1 $355 reversed single #
loop $-1 $-1 $276 $179 #
plane-surface $-1 0 0 15.503524497043406 0 0 1 1 0 0 forward_v I I I I #
coedge $-1 $356 $357 $270 $358 forward $180 $-1 #
coedge $-1 $183 $182 $269 $358 reversed $69 $-1 #
edge $-1 $359 -6.1746203595332503 $191 6.1746203595332503 $182 $360 forward 7 unknown #
coedge $-1 $361 $276 $183 $273 forward $267 $-1 #
edge $-1 $274 73.753471480452902 $362 86.102712199519402 $183 $363 forward 7 unknown #
vertex $-1 $273 $364 #
straight-curve $-1 -73.753471480452902 35.984500378586645 0 0 0 -1 I I #
coedge $-1 $272 $365 $185 $277 forward $267 $-1 #
edge $-1 $281 -35.984500378586645 $274 35.984500378586645 $276 $366 forward 7 unknown #
coedge $-1 $367 $186 $365 $368 reversed $280 $-1 #
coedge $-1 $186 $367 $188 $284 reversed $280 $-1 #
loop $-1 $-1 $186 $266 #
vertex $-1 $187 $369 #
straight-curve $-1 -73.753471480452902 -35.984500378586645 0 0 0 1 I I #
coedge $-1 $189 $188 $356 $370 forward $109 $-1 #
edge $-1 $190 -6.1746203595332503 $371 6.1746203595332503 $279 $372 forward 7 unknown #
point $-1 -73.753471480452902 -35.984500378586645 8.9471617248784074 #
point $-1 -73.753471480452902 35.984500378586645 8.9471617248784074 #
loop $-1 $-1 $201 $193 #
plane-surface $-1 0 35.984500378586645 0 0 -1 0 0 0 -1 forward_v I I I I #
coedge $-1 $290 $196 $198 $294 reversed $117 $-1 #
coedge $-1 $196 $289 $373 $374 reversed $117 $-1 #
coedge $-1 $204 $199 $196 $292 forward $194 $-1 #
edge $-1 $295 -24.092522128787323 $375 -11.406254867798843 $291 $376 forward 7 unknown #
coedge $-1 $198 $197 $298 $377 reversed $73 $-1 #
edge $-1 $378 -71.969000757173262 $295 -53.367390887192784 $289 $379 forward 7 unknown #
vertex $-1 $200 $380 #
straight-curve $-1 0.2160921302145411 23.298233117598169 15.503524497043404 1 0 0 I I #
coedge $-1 $373 $201 $204 $302 reversed $287 $-1 #
coedge $-1 $201 $373 $293 $377 forward $287 $-1 #
vertex $-1 $202 $381 #
straight-curve $-1 -19.353918342762142 35.984500378586645 77.566727849534587 0 0 1 I I #
straight-curve $-1 -19.353918342762142 -13.098239475302165 54.533963809209524 0 0.68199835119979291 -0.73135370988377701 I I #
edge $-1 $375 -20.218286863620307 $205 19.353918342762142 $297 $382 forward 7 unknown #
point $-1 -19.353918342762142 35.984500378586645 15.503524497043406 #
point $-1 -19.353918342762142 23.298233117598166 15.503524497043408 #
edge $-1 $383 1 $383 0 $208 $-1 forward 7 unknown #
vertex $-1 $209 $384 #
ellipse-curve $-1 -8.0475739980814467 25.251112945490238 4.607368499498957 0 0.73135370988377701 0.68199835119979291 2.5 0 0 1 I I #
point $-1 -5.5475739980814467 29.641366748092373 8.7013463029329365 #
edge $-1 $385 1 $385 0 $212 $-1 forward 7 unknown #
vertex $-1 $213 $386 #
ellipse-curve $-1 8.9119425189396111 25.251112945490238 4.607368499498957 0 0.73135370988377701 0.68199835119979291 2.5 0 0 1 I I #
point $-1 11.411942518939611 29.641366748092373 8.7013463029329365 #
loop $-1 $-1 $322 $216 #
plane-surface $-1 0 -35.984500378586645 0 0 1 0 0 0 1 forward_v I I I I #
coedge $-1 $316 $219 $227 $328 reversed $139 $-1 #
coedge $-1 $219 $315 $387 $388 forward $139 $-1 #
coedge $-1 $322 $389 $221 $318 forward $313 $-1 #
edge $-1 $320 44.042090409630539 $326 53.45125809212638 $317 $390 forward 7 unknown #
coedge $-1 $227 $222 $389 $391 forward $217 $-1 #
vertex $-1 $391 $392 #
straight-curve $-1 53.831043853332339 -65.400068410987799 15.503524497043408 0 -1 0 I I #
coedge $-1 $387 $317 $224 $323 forward $313 $-1 #
edge $-1 $326 21.934915019886027 $324 41.85734264700659 $322 $393 forward 7 unknown #
vertex $-1 $323 $394 #
straight-curve $-1 73.753471480452902 -26.926657203537161 13.694789841183992 0 0.76604443648966558 0.64278761758704617 I I #
vertex $-1 $323 $395 #
straight-curve $-1 53.831043853332339 -35.984500378586645 6.0943568145475666 0 0.76604443648966558 0.64278761758704617 I I #
edge $-1 $396 -35.984500378586645 $228 -24.771091224515295 $315 $397 forward 7 unknown #
point $-1 73.753471480452902 -24.771091224515295 15.503524497043406 #
point $-1 53.831043853332339 -24.771091224515295 15.503524497043406 #
edge $-1 $398 1 $398 0 $231 $-1 forward 7 unknown #
vertex $-1 $232 $399 #
ellipse-curve $-1 59.523166032509636 -26.834234606882895 6.5758889599240247 0 -0.64278761758704617 0.76604443648966558 2 0 0 1 I I #
point $-1 61.523166032509636 -30.37779580155097 10.798940655795487 #
edge $-1 $400 1 $400 0 $235 $-1 forward 7 unknown #
vertex $-1 $236 $401 #
ellipse-curve $-1 68.061349301275584 -26.834234606882895 6.5758889599240247 0 -0.64278761758704617 0.76604443648966558 2 0 0 1 I I #
point $-1 70.061349301275584 -30.37779580155097 10.798940655795487 #
plane-surface $-1 73.753471480452902 0 0 -1 0 0 0 0 1 forward_v I I I I #
coedge $-1 $244 $242 $246 $344 reversed $161 $-1 #
edge $-1 $257 -15.503524497043406 $346 15.503524497043406 $256 $402 forward 7 unknown #
vertex $-1 $344 $403 #
straight-curve $-1 -73.753471480452902 -35.984500378586645 0 0 0 -1 I I #
edge $-1 $342 -35.984500378586645 $346 35.984500378586645 $340 $404 forward 7 unknown #
straight-curve $-1 0 -35.984500378586645 -15.503524497043406 -1 0 0 I I #
vertex $-1 $249 $405 #
straight-curve $-1 0 35.984500378586645 -15.503524497043406 1 0 0 I I #
point $-1 73.753471480452902 35.984500378586645 -15.503524497043406 #
point $-1 73.753471480452902 -35.984500378586645 -15.503524497043406 #
straight-curve $-1 -73.753471480452902 0 15.503524497043406 0 -1 0 I I #
point $-1 -73.753471480452902 35.984500378586645 15.503524497043406 #
point $-1 -73.753471480452902 -35.984500378586645 15.503524497043406 #
straight-curve $-1 73.753471480452902 -35.984500378586645 0 0 0 -1 I I #
straight-curve $-1 73.753471480452902 35.984500378586645 0 0 0 -1 I I #
plane-surface $-1 0 -35.984500378586645 0 0 1 0 0 0 1 forward_v I I I I #
coedge $-1 $406 $269 $283 $370 reversed $180 $-1 #
coedge $-1 $269 $406 $361 $407 reversed $180 $-1 #
edge $-1 $362 -3.2781813860824975 $359 3.2781813860824975 $270 $408 forward 7 unknown #
vertex $-1 $271 $409 #
straight-curve $-1 -79.928091839986152 35.984500378586645 8.9471617248784074 1 0 0 I I #
coedge $-1 $365 $272 $357 $407 forward $267 $-1 #
vertex $-1 $273 $410 #
straight-curve $-1 0 35.984500378586645 15.503524497043406 -1 0 0 I I #
point $-1 -73.753471480452902 35.984500378586645 15.503524497043406 #
coedge $-1 $276 $361 $278 $368 forward $267 $-1 #
straight-curve $-1 -73.753471480452902 0 15.503524497043406 0 1 0 I I #
coedge $-1 $279 $278 $406 $411 forward $280 $-1 #
edge $-1 $412 -86.102712199519402 $281 -73.753471480452902 $278 $413 forward 7 unknown #
point $-1 -73.753471480452902 -35.984500378586645 15.503524497043406 #
edge $-1 $371 -35.984500378586645 $359 35.984500378586645 $356 $414 forward 7 unknown #
vertex $-1 $370 $415 #
straight-curve $-1 -79.928091839986152 -35.984500378586645 8.9471617248784074 -1 0 0 I I #
coedge $-1 $298 $297 $290 $374 forward $287 $-1 #
edge $-1 $375 62.063203352491179 $378 75.667559740712079 $373 $416 forward 7 unknown #
vertex $-1 $302 $417 #
straight-curve $-1 20.218286863620307 47.390755246385488 15.503524497043401 0 1 0 I I #
edge $-1 $378 -20.002194733405766 $299 19.570010472976684 $298 $418 forward 7 unknown #
vertex $-1 $377 $419 #
straight-curve $-1 20.218286863620307 -13.098239475302165 54.533963809209524 0 -0.68199835119979291 0.73135370988377701 I I #
point $-1 20.218286863620307 23.298233117598166 15.503524497043408 #
point $-1 -19.353918342762142 35.984500378586645 1.8991681088225008 #
straight-curve $-1 0 35.984500378586645 15.503524497043406 -1 0 0 I I #
vertex $-1 $305 $420 #
point $-1 -5.5475739980814467 25.251112945490238 4.607368499498957 #
vertex $-1 $309 $421 #
point $-1 11.411942518939611 25.251112945490238 4.607368499498957 #
coedge $-1 $389 $322 $316 $388 reversed $313 $-1 #
edge $-1 $396 -15.503524497043406 $324 -6.0943568145475666 $316 $422 forward 7 unknown #
coedge $-1 $317 $387 $319 $391 reversed $313 $-1 #
straight-curve $-1 53.831043853332339 -35.984500378586645 59.545614906673947 0 0 -1 I I #
edge $-1 $320 53.831043853332339 $396 73.753471480452902 $389 $423 forward 7 unknown #
point $-1 53.831043853332339 -35.984500378586645 15.503524497043406 #
straight-curve $-1 31.896128833446312 -35.984500378586645 6.0943568145475631 1 0 0 I I #
point $-1 73.753471480452902 -35.984500378586645 6.0943568145475666 #
point $-1 53.831043853332339 -35.984500378586645 6.0943568145475666 #
vertex $-1 $328 $424 #
straight-curve $-1 73.753471480452902 0 15.503524497043406 0 1 0 I I #
vertex $-1 $331 $425 #
point $-1 61.523166032509636 -26.834234606882895 6.5758889599240247 #
vertex $-1 $335 $426 #
point $-1 70.061349301275584 -26.834234606882895 6.5758889599240247 #
straight-curve $-1 -73.753471480452902 35.984500378586645 0 0 0 -1 I I #
point $-1 -73.753471480452902 -35.984500378586645 -15.503524497043406 #
straight-curve $-1 -73.753471480452902 0 -15.503524497043406 0 1 0 I I #
point $-1 -73.753471480452902 35.984500378586645 -15.503524497043406 #
coedge $-1 $357 $356 $367 $411 reversed $180 $-1 #
edge $-1 $362 -35.984500378586645 $412 35.984500378586645 $357 $427 forward 7 unknown #
straight-curve $-1 -86.102712199519402 35.984500378586645 12.225343110960905 0 0 -1 I I #
point $-1 -86.102712199519402 35.984500378586645 8.9471617248784074 #
point $-1 -86.102712199519402 35.984500378586645 15.503524497043403 #
edge $-1 $412 -3.2781813860824975 $371 3.2781813860824975 $406 $428 forward 7 unknown #
vertex $-1 $407 $429 #
straight-curve $-1 0 -35.984500378586645 15.503524497043406 1 0 0 I I #
straight-curve $-1 -86.102712199519402 0 8.9471617248784074 0 1 0 I I #
point $-1 -86.102712199519402 -35.984500378586645 8.9471617248784074 #
straight-curve $-1 20.218286863620307 35.984500378586645 77.566727849534587 0 0 -1 I I #
point $-1 20.218286863620307 35.984500378586645 15.503524497043406 #
straight-curve $-1 0.2160921302145411 35.984500378586645 1.8991681088225079 -1 0 0 I I #
point $-1 20.218286863620307 35.984500378586645 1.8991681088225008 #
point $-1 -8.0475739980814467 23.422728670780796 2.9023726214994743 #
point $-1 8.9119425189396111 23.422728670780796 2.9023726214994743 #
straight-curve $-1 73.753471480452902 -35.984500378586645 0 0 0 -1 I I #
straight-curve $-1 0 -35.984500378586645 15.503524497043406 1 0 0 I I #
point $-1 73.753471480452902 -35.984500378586645 15.503524497043406 #
point $-1 59.523166032509636 -25.548659371708801 5.0438000869446933 #
point $-1 68.061349301275584 -25.548659371708801 5.0438000869446933 #
straight-curve $-1 -86.102712199519402 0 15.503524497043403 0 -1 0 I I #
straight-curve $-1 -86.102712199519402 -35.984500378586645 12.225343110960905 0 0 -1 I I #
point $-1 -86.102712199519402 -35.984500378586645 15.503524497043403 #
End-of-ACIS-data 