500 0 3 0           
7 Unknown 11 ACIS 5.0 NT 24 Fri Mar 26 02:14:39 1999 
-1 9.9999999999999995e-007 1e-010 
body $-1 $3 $-1 $4 #
body $-1 $5 $-1 $6 #
body $-1 $7 $-1 $8 #
lump $-1 $-1 $9 $0 #
transform $-1 1 0 0 0 1 0 0 0 1 53.734550004577777 34.561514180928327 11.963787675057151 1 rotate no_reflect no_shear #
lump $-1 $-1 $10 $1 #
transform $-1 1 0 0 0 1 0 0 0 1 53.734550004577777 34.561514180928327 11.963787675057151 1 rotate no_reflect no_shear #
lump $-1 $-1 $11 $2 #
transform $-1 1 0 0 0 1 0 0 0 1 53.734550004577777 34.561514180928327 11.963787675057151 1 rotate no_reflect no_shear #
shell $-1 $-1 $-1 $12 $-1 $3 #
shell $-1 $-1 $-1 $13 $-1 $5 #
shell $-1 $-1 $-1 $14 $-1 $7 #
face $-1 $15 $16 $9 $-1 $17 forward single #
face $-1 $18 $19 $10 $-1 $20 forward single #
face $-1 $21 $22 $11 $-1 $23 forward single #
face $-1 $24 $25 $9 $-1 $26 reversed single #
loop $-1 $-1 $27 $12 #
plane-surface $-1 0 0 11.963787675057151 0 0 1 1 0 0 forward_v I I I I #
face $-1 $28 $29 $10 $-1 $30 reversed single #
loop $-1 $-1 $31 $13 #
plane-surface $-1 -57.9880385365339 0 0.44186588010111549 0 0 1 1 0 0 forward_v I I I I #
face $-1 $32 $33 $11 $-1 $34 forward single #
loop $-1 $-1 $35 $14 #
plane-surface $-1 47.687468183666375 0 6.3067384035400629 0 0 1 1 0 0 forward_v I I I I #
face $-1 $36 $37 $9 $-1 $38 reversed single #
loop $-1 $-1 $39 $15 #
plane-surface $-1 0 0 -11.963787675057151 0 0 1 1 0 0 forward_v I I I I #
coedge $-1 $40 $41 $42 $43 forward $16 $-1 #
face $-1 $44 $45 $10 $-1 $46 reversed single #
loop $-1 $-1 $47 $18 #
plane-surface $-1 -57.9880385365339 0 -6.5564770833343644 0 0 1 1 0 0 forward_v I I I I #
coedge $-1 $48 $49 $50 $51 reversed $19 $-1 #
face $-1 $52 $53 $11 $-1 $54 forward single #
loop $-1 $-1 $55 $21 #
plane-surface $-1 41.640386362754981 0 9.1352630392986072 1 0 0 0 0 -1 forward_v I I I I #
coedge $-1 $56 $57 $58 $59 reversed $22 $-1 #
face $-1 $60 $61 $9 $-1 $62 reversed single #
loop $-1 $-1 $63 $24 #
plane-surface $-1 0 -34.561514180928327 0 0 1 0 0 0 1 forward_v I I I I #
coedge $-1 $64 $65 $66 $67 forward $25 $-1 #
coedge $-1 $68 $27 $69 $70 forward $16 $-1 #
coedge $-1 $27 $68 $71 $72 forward $16 $-1 #
coedge $-1 $73 $74 $27 $43 reversed $75 $-1 #
edge $-1 $76 -34.561514180928327 $77 34.561514180928327 $42 $78 forward 7 unknown #
face $-1 $79 $80 $10 $-1 $81 reversed single #
loop $-1 $-1 $82 $28 #
plane-surface $-1 -62.241527068490022 0 -3.0573056016166245 1 0 0 0 0 -1 forward_v I I I I #
coedge $-1 $83 $84 $85 $86 reversed $29 $-1 #
coedge $-1 $87 $31 $88 $89 forward $19 $-1 #
coedge $-1 $31 $87 $90 $91 forward $19 $-1 #
coedge $-1 $92 $93 $31 $51 forward $94 $-1 #
edge $-1 $95 -34.561514180928327 $96 34.561514180928327 $50 $97 forward 7 unknown #
face $-1 $98 $99 $11 $-1 $100 reversed single #
loop $-1 $-1 $101 $32 #
plane-surface $-1 0 0 11.963787675057151 0 0 1 1 0 0 forward_v I I I I #
coedge $-1 $102 $103 $104 $105 reversed $33 $-1 #
coedge $-1 $106 $35 $107 $108 reversed $22 $-1 #
coedge $-1 $35 $106 $109 $110 reversed $22 $-1 #
coedge $-1 $111 $112 $35 $59 forward $113 $-1 #
edge $-1 $114 -34.561514180928327 $115 34.561514180928327 $58 $116 forward 7 unknown #
face $-1 $117 $118 $9 $-1 $119 reversed single #
loop $-1 $-1 $120 $36 #
plane-surface $-1 -53.734550004577777 0 0 1 0 0 0 0 -1 forward_v I I I I #
coedge $-1 $121 $71 $122 $123 forward $37 $-1 #
coedge $-1 $124 $39 $121 $125 forward $25 $-1 #
coedge $-1 $39 $124 $126 $127 forward $25 $-1 #
coedge $-1 $74 $73 $39 $67 reversed $75 $-1 #
edge $-1 $128 -34.561514180928327 $129 34.561514180928327 $66 $130 forward 7 unknown #
coedge $-1 $41 $40 $131 $132 forward $16 $-1 #
coedge $-1 $133 $134 $40 $70 reversed $118 $-1 #
edge $-1 $77 -53.734550004577777 $135 53.734550004577777 $69 $136 forward 7 unknown #
coedge $-1 $63 $137 $41 $72 reversed $37 $-1 #
edge $-1 $138 -53.734550004577777 $76 53.734550004577777 $71 $139 forward 7 unknown #
coedge $-1 $66 $42 $137 $140 forward $75 $-1 #
coedge $-1 $42 $66 $133 $141 reversed $75 $-1 #
loop $-1 $-1 $73 $117 #
vertex $-1 $43 $142 #
vertex $-1 $43 $143 #
straight-curve $-1 53.734550004577777 0 11.963787675057151 0 1 0 I I #
face $-1 $144 $94 $10 $-1 $81 reversed single #
loop $-1 $-1 $85 $44 #
plane-surface $-1 -53.734550004577777 0 0 1 0 0 0 0 -1 forward_v I I I I #
coedge $-1 $145 $146 $147 $148 forward $45 $-1 #
coedge $-1 $149 $47 $150 $151 forward $29 $-1 #
coedge $-1 $47 $149 $152 $153 forward $29 $-1 #
coedge $-1 $154 $155 $47 $86 forward $80 $-1 #
edge $-1 $156 -34.561514180928327 $157 34.561514180928327 $85 $158 forward 7 unknown #
coedge $-1 $49 $48 $146 $159 forward $19 $-1 #
coedge $-1 $160 $147 $48 $89 reversed $161 $-1 #
edge $-1 $95 -4.2534885319561226 $162 4.2534885319561226 $88 $163 forward 7 unknown #
coedge $-1 $164 $165 $49 $91 reversed $166 $-1 #
edge $-1 $167 -4.2534885319561226 $96 4.2534885319561226 $90 $168 forward 7 unknown #
coedge $-1 $169 $50 $165 $170 reversed $94 $-1 #
coedge $-1 $50 $169 $160 $171 forward $94 $-1 #
loop $-1 $-1 $50 $79 #
vertex $-1 $171 $172 #
vertex $-1 $91 $173 #
straight-curve $-1 -53.734550004577777 0 0.44186588010111549 0 -1 0 I I #
face $-1 $174 $175 $11 $-1 $176 forward single #
loop $-1 $-1 $104 $52 #
plane-surface $-1 0 34.561514180928327 0 0 -1 0 0 0 -1 forward_v I I I I #
coedge $-1 $177 $178 $102 $179 forward $53 $-1 #
coedge $-1 $180 $55 $101 $179 reversed $33 $-1 #
coedge $-1 $55 $180 $106 $181 forward $33 $-1 #
coedge $-1 $107 $182 $55 $105 forward $99 $-1 #
edge $-1 $183 -7.3961561554078479 $184 -1.7391068838907593 $104 $185 forward 7 unknown #
coedge $-1 $57 $56 $103 $181 reversed $22 $-1 #
coedge $-1 $186 $104 $56 $108 forward $99 $-1 #
edge $-1 $184 17.796652270921793 $114 29.890815912744582 $107 $187 forward 7 unknown #
coedge $-1 $188 $189 $57 $110 forward $190 $-1 #
edge $-1 $115 -29.890815912744582 $191 -17.796652270921793 $109 $192 forward 7 unknown #
coedge $-1 $193 $58 $189 $194 forward $113 $-1 #
coedge $-1 $58 $193 $186 $195 reversed $113 $-1 #
loop $-1 $-1 $58 $196 #
vertex $-1 $195 $197 #
vertex $-1 $194 $198 #
straight-curve $-1 53.734550004577777 0 6.3067384035400629 0 -1 0 I I #
face $-1 $-1 $75 $9 $-1 $199 reversed single #
loop $-1 $-1 $133 $60 #
plane-surface $-1 0 34.561514180928327 0 0 -1 0 0 0 -1 forward_v I I I I #
coedge $-1 $200 $131 $134 $201 forward $61 $-1 #
coedge $-1 $137 $63 $64 $125 reversed $37 $-1 #
coedge $-1 $131 $200 $63 $123 reversed $61 $-1 #
edge $-1 $138 -11.963787675057151 $202 11.963787675057151 $122 $203 forward 7 unknown #
coedge $-1 $65 $64 $200 $204 forward $25 $-1 #
edge $-1 $129 -53.734550004577777 $202 53.734550004577777 $121 $205 forward 7 unknown #
coedge $-1 $134 $133 $65 $127 reversed $118 $-1 #
edge $-1 $206 -53.734550004577777 $128 53.734550004577777 $126 $207 forward 7 unknown #
vertex $-1 $67 $208 #
vertex $-1 $140 $209 #
straight-curve $-1 53.734550004577777 0 -11.963787675057151 0 -1 0 I I #
coedge $-1 $120 $122 $68 $132 reversed $61 $-1 #
edge $-1 $135 -34.561514180928327 $138 34.561514180928327 $131 $210 forward 7 unknown #
coedge $-1 $126 $69 $74 $141 forward $118 $-1 #
coedge $-1 $69 $126 $120 $201 reversed $118 $-1 #
vertex $-1 $70 $211 #
straight-curve $-1 0 34.561514180928327 11.963787675057151 -1 0 0 I I #
coedge $-1 $71 $121 $73 $140 reversed $37 $-1 #
vertex $-1 $132 $212 #
straight-curve $-1 0 -34.561514180928327 11.963787675057151 1 0 0 I I #
edge $-1 $76 -11.963787675057151 $129 11.963787675057151 $73 $213 forward 7 unknown #
edge $-1 $77 -11.963787675057151 $128 11.963787675057151 $74 $214 forward 7 unknown #
point $-1 53.734550004577777 -34.561514180928327 11.963787675057151 #
point $-1 53.734550004577777 34.561514180928327 11.963787675057151 #
face $-1 $215 $216 $10 $-1 $217 forward single #
coedge $-1 $218 $82 $149 $219 reversed $45 $-1 #
coedge $-1 $82 $218 $87 $159 reversed $45 $-1 #
coedge $-1 $88 $152 $82 $148 reversed $161 $-1 #
edge $-1 $162 -3.49917148171774 $220 3.49917148171774 $147 $221 forward 7 unknown #
coedge $-1 $84 $83 $145 $219 forward $29 $-1 #
coedge $-1 $222 $164 $83 $151 reversed $166 $-1 #
edge $-1 $156 -4.2534885319561226 $223 4.2534885319561226 $150 $224 forward 7 unknown #
coedge $-1 $147 $225 $84 $153 reversed $161 $-1 #
edge $-1 $220 -4.2534885319561226 $157 4.2534885319561226 $152 $226 forward 7 unknown #
coedge $-1 $227 $85 $225 $228 forward $80 $-1 #
coedge $-1 $85 $227 $222 $229 reversed $80 $-1 #
vertex $-1 $229 $230 #
vertex $-1 $228 $231 #
straight-curve $-1 -53.734550004577777 0 -6.5564770833343644 0 1 0 I I #
edge $-1 $162 -34.561514180928327 $167 34.561514180928327 $146 $232 forward 7 unknown #
coedge $-1 $233 $88 $93 $171 reversed $161 $-1 #
loop $-1 $-1 $234 $235 #
vertex $-1 $89 $236 #
straight-curve $-1 -57.9880385365339 34.561514180928327 0.44186588010111549 -1 0 0 I I #
coedge $-1 $150 $90 $218 $237 forward $166 $-1 #
coedge $-1 $90 $238 $92 $170 forward $166 $-1 #
loop $-1 $-1 $165 $239 #
vertex $-1 $159 $240 #
straight-curve $-1 -57.9880385365339 -34.561514180928327 0.44186588010111549 1 0 0 I I #
coedge $-1 $93 $92 $241 $242 reversed $94 $-1 #
edge $-1 $243 -11.963787675057151 $96 -0.44186588010111549 $92 $244 forward 7 unknown #
edge $-1 $245 -11.963787675057151 $95 -0.44186588010111549 $160 $246 forward 7 unknown #
point $-1 -53.734550004577777 34.561514180928327 0.44186588010111549 #
point $-1 -53.734550004577777 -34.561514180928327 0.44186588010111549 #
face $-1 $247 $248 $11 $-1 $249 reversed single #
loop $-1 $-1 $250 $98 #
plane-surface $-1 -57.9880385365339 0 0.44186588010111549 0 0 1 1 0 0 forward_v I I I I #
coedge $-1 $251 $101 $182 $252 forward $53 $-1 #
coedge $-1 $101 $251 $253 $254 forward $53 $-1 #
edge $-1 $255 -34.561514180928327 $183 34.561514180928327 $101 $256 forward 7 unknown #
coedge $-1 $103 $102 $188 $257 reversed $33 $-1 #
edge $-1 $191 -34.561514180928327 $184 34.561514180928327 $103 $258 forward 7 unknown #
coedge $-1 $104 $259 $177 $252 reversed $99 $-1 #
vertex $-1 $252 $260 #
vertex $-1 $108 $261 #
straight-curve $-1 41.640386362754981 34.561514180928327 4.5676315196493036 0 0 -1 I I #
coedge $-1 $262 $107 $112 $195 forward $99 $-1 #
straight-curve $-1 23.843734091833188 34.561514180928327 6.3067384035400629 1 0 0 I I #
coedge $-1 $253 $109 $180 $257 forward $190 $-1 #
coedge $-1 $109 $263 $111 $194 reversed $190 $-1 #
loop $-1 $-1 $188 $264 #
vertex $-1 $110 $265 #
straight-curve $-1 23.843734091833188 -34.561514180928327 6.3067384035400629 -1 0 0 I I #
coedge $-1 $112 $111 $266 $267 reversed $113 $-1 #
edge $-1 $115 -6.3067384035400629 $268 11.963787675057151 $111 $269 forward 7 unknown #
edge $-1 $114 -6.3067384035400629 $270 11.963787675057151 $112 $271 forward 7 unknown #
face $-1 $-1 $113 $11 $-1 $272 reversed single #
point $-1 53.73455000457777 34.561514180928327 6.3067384035400629 #
point $-1 53.73455000457777 -34.561514180928327 6.3067384035400629 #
plane-surface $-1 53.734550004577777 0 0 -1 0 0 0 0 1 forward_v I I I I #
coedge $-1 $122 $120 $124 $204 reversed $61 $-1 #
edge $-1 $135 -11.963787675057151 $206 11.963787675057151 $134 $273 forward 7 unknown #
vertex $-1 $204 $274 #
straight-curve $-1 -53.734550004577777 -34.561514180928327 0 0 0 -1 I I #
edge $-1 $202 -34.561514180928327 $206 34.561514180928327 $200 $275 forward 7 unknown #
straight-curve $-1 0 -34.561514180928327 -11.963787675057151 -1 0 0 I I #
vertex $-1 $127 $276 #
straight-curve $-1 0 34.561514180928327 -11.963787675057151 1 0 0 I I #
point $-1 53.734550004577777 34.561514180928327 -11.963787675057151 #
point $-1 53.734550004577777 -34.561514180928327 -11.963787675057151 #
straight-curve $-1 -53.734550004577777 0 11.963787675057151 0 -1 0 I I #
point $-1 -53.734550004577777 34.561514180928327 11.963787675057151 #
point $-1 -53.734550004577777 -34.561514180928327 11.963787675057151 #
straight-curve $-1 53.734550004577777 -34.561514180928327 0 0 0 -1 I I #
straight-curve $-1 53.734550004577777 34.561514180928327 0 0 0 -1 I I #
face $-1 $239 $277 $10 $-1 $278 reversed single #
loop $-1 $-1 $279 $144 #
plane-surface $-1 0 0 11.963787675057151 0 0 1 1 0 0 forward_v I I I I #
coedge $-1 $146 $145 $164 $237 reversed $45 $-1 #
edge $-1 $223 -34.561514180928327 $220 34.561514180928327 $145 $280 forward 7 unknown #
vertex $-1 $153 $281 #
straight-curve $-1 -62.241527068490022 34.561514180928327 -3.0573056016166245 0 0 -1 I I #
coedge $-1 $282 $150 $155 $229 forward $166 $-1 #
vertex $-1 $219 $283 #
straight-curve $-1 -57.9880385365339 -34.561514180928327 -6.5564770833343644 -1 0 0 I I #
coedge $-1 $152 $284 $154 $228 reversed $161 $-1 #
straight-curve $-1 -57.9880385365339 34.561514180928327 -6.5564770833343644 1 0 0 I I #
coedge $-1 $155 $154 $285 $286 reversed $80 $-1 #
edge $-1 $157 6.5564770833343644 $287 11.963787675057151 $225 $246 forward 7 unknown #
edge $-1 $156 6.5564770833343644 $288 11.963787675057151 $155 $244 forward 7 unknown #
point $-1 -53.734550004577777 -34.561514180928327 -6.5564770833343644 #
point $-1 -53.734550004577777 34.561514180928327 -6.5564770833343644 #
straight-curve $-1 -62.241527068490022 0 0.44186588010111549 0 -1 0 I I #
coedge $-1 $234 $160 $289 $290 reversed $161 $-1 #
coedge $-1 $284 $233 $291 $292 forward $161 $-1 #
face $-1 $293 $161 $10 $-1 $294 reversed single #
point $-1 -62.241527068490022 34.561514180928327 0.44186588010111549 #
edge $-1 $167 -3.49917148171774 $223 3.49917148171774 $218 $295 forward 7 unknown #
coedge $-1 $165 $296 $297 $298 reversed $166 $-1 #
face $-1 $235 $166 $10 $-1 $299 reversed single #
point $-1 -62.241527068490022 -34.561514180928327 0.44186588010111549 #
coedge $-1 $297 $289 $169 $242 forward $216 $-1 #
edge $-1 $245 -34.561514180928327 $243 34.561514180928327 $169 $300 forward 7 unknown #
vertex $-1 $242 $301 #
straight-curve $-1 -53.734550004577777 -34.561514180928327 0 0 0 -1 I I #
vertex $-1 $290 $302 #
straight-curve $-1 -53.734550004577777 34.561514180928327 0 0 0 -1 I I #
face $-1 $303 $304 $11 $-1 $305 reversed single #
loop $-1 $-1 $306 $174 #
plane-surface $-1 -57.9880385365339 0 -6.5564770833343644 0 0 1 1 0 0 forward_v I I I I #
coedge $-1 $307 $308 $309 $310 reversed $175 $-1 #
coedge $-1 $178 $177 $311 $312 forward $53 $-1 #
edge $-1 $183 -41.640386362754981 $313 53.734550004577777 $182 $314 forward 7 unknown #
coedge $-1 $315 $188 $178 $254 reversed $190 $-1 #
edge $-1 $316 -53.734550004577777 $255 41.640386362754981 $253 $317 forward 7 unknown #
vertex $-1 $179 $318 #
straight-curve $-1 41.640386362754981 0 11.963787675057151 0 1 0 I I #
edge $-1 $191 1.7391068838907593 $255 7.3961561554078479 $188 $319 forward 7 unknown #
straight-curve $-1 41.640386362754981 0 6.3067384035400629 0 1 0 I I #
coedge $-1 $182 $320 $321 $322 reversed $99 $-1 #
point $-1 41.640386362754981 34.561514180928327 11.963787675057151 #
point $-1 41.640386362754981 34.561514180928327 6.3067384035400629 #
coedge $-1 $323 $186 $324 $325 reversed $99 $-1 #
coedge $-1 $189 $326 $327 $328 reversed $190 $-1 #
face $-1 $196 $190 $11 $-1 $329 reversed single #
point $-1 41.640386362754981 -34.561514180928327 6.3067384035400629 #
coedge $-1 $327 $324 $193 $267 forward $330 $-1 #
edge $-1 $270 -34.561514180928327 $268 34.561514180928327 $193 $331 forward 7 unknown #
vertex $-1 $194 $332 #
straight-curve $-1 53.734550004577777 -34.561514180928327 0 0 0 -1 I I #
vertex $-1 $267 $333 #
straight-curve $-1 53.734550004577777 34.561514180928327 0 0 0 -1 I I #
plane-surface $-1 53.734550004577777 0 0 -1 0 0 0 0 1 forward_v I I I I #
straight-curve $-1 -53.734550004577777 34.561514180928327 0 0 0 -1 I I #
point $-1 -53.734550004577777 -34.561514180928327 -11.963787675057151 #
straight-curve $-1 -53.734550004577777 0 -11.963787675057151 0 1 0 I I #
point $-1 -53.734550004577777 34.561514180928327 -11.963787675057151 #
loop $-1 $-1 $334 $215 #
plane-surface $-1 0 0 -11.963787675057151 0 0 1 1 0 0 forward_v I I I I #
coedge $-1 $289 $297 $335 $336 forward $216 $-1 #
straight-curve $-1 -62.241527068490022 0 -6.5564770833343644 0 1 0 I I #
point $-1 -62.241527068490022 34.561514180928327 -6.5564770833343644 #
coedge $-1 $296 $222 $337 $338 reversed $166 $-1 #
point $-1 -62.241527068490022 -34.561514180928327 -6.5564770833343644 #
coedge $-1 $225 $234 $339 $340 reversed $161 $-1 #
coedge $-1 $339 $337 $227 $286 forward $277 $-1 #
edge $-1 $288 -34.561514180928327 $287 34.561514180928327 $227 $341 forward 7 unknown #
vertex $-1 $340 $342 #
vertex $-1 $286 $343 #
coedge $-1 $241 $279 $233 $290 forward $216 $-1 #
edge $-1 $344 -53.734550004577777 $245 53.734550004577777 $233 $345 forward 7 unknown #
coedge $-1 $335 $346 $234 $292 reversed $347 $-1 #
edge $-1 $344 -11.963787675057151 $348 11.963787675057151 $291 $349 forward 7 unknown #
face $-1 $-1 $347 $10 $-1 $350 reversed single #
plane-surface $-1 0 34.561514180928327 0 0 -1 0 0 0 -1 forward_v I I I I #
straight-curve $-1 -62.241527068490022 -34.561514180928327 -3.0573056016166245 0 0 -1 I I #
coedge $-1 $238 $282 $351 $352 reversed $166 $-1 #
coedge $-1 $279 $241 $238 $298 forward $216 $-1 #
edge $-1 $243 -53.734550004577777 $353 53.734550004577777 $238 $354 forward 7 unknown #
plane-surface $-1 0 -34.561514180928327 0 0 1 0 0 0 1 forward_v I I I I #
straight-curve $-1 -53.734550004577777 0 11.963787675057151 0 -1 0 I I #
point $-1 -53.734550004577777 -34.561514180928327 11.963787675057151 #
point $-1 -53.734550004577777 34.561514180928327 11.963787675057151 #
face $-1 $355 $356 $11 $-1 $357 reversed single #
loop $-1 $-1 $358 $247 #
plane-surface $-1 -62.241527068490022 0 -3.0573056016166245 1 0 0 0 0 -1 forward_v I I I I #
coedge $-1 $359 $360 $361 $362 reversed $248 $-1 #
coedge $-1 $363 $250 $320 $364 forward $175 $-1 #
coedge $-1 $250 $363 $365 $366 forward $175 $-1 #
coedge $-1 $367 $321 $250 $310 forward $368 $-1 #
edge $-1 $369 -34.561514180928327 $370 34.561514180928327 $309 $371 forward 7 unknown #
coedge $-1 $321 $367 $251 $312 reversed $368 $-1 #
edge $-1 $313 -34.561514180928327 $316 34.561514180928327 $311 $372 forward 7 unknown #
vertex $-1 $252 $373 #
straight-curve $-1 0 34.561514180928327 11.963787675057151 -1 0 0 I I #
coedge $-1 $365 $253 $367 $374 forward $190 $-1 #
vertex $-1 $312 $375 #
straight-curve $-1 0 -34.561514180928327 11.963787675057151 1 0 0 I I #
point $-1 41.640386362754981 -34.561514180928327 11.963787675057151 #
straight-curve $-1 41.640386362754981 -34.561514180928327 4.5676315196493036 0 0 1 I I #
coedge $-1 $259 $376 $307 $364 reversed $99 $-1 #
coedge $-1 $309 $311 $259 $322 forward $368 $-1 #
edge $-1 $313 -11.963787675057151 $369 -0.44186588010111549 $259 $377 forward 7 unknown #
coedge $-1 $378 $262 $379 $380 reversed $99 $-1 #
coedge $-1 $266 $381 $262 $325 forward $330 $-1 #
edge $-1 $382 -53.734550004577777 $270 53.734550004577777 $262 $383 forward 7 unknown #
coedge $-1 $263 $384 $385 $386 forward $190 $-1 #
coedge $-1 $381 $266 $263 $328 forward $330 $-1 #
edge $-1 $268 -53.734550004577777 $387 53.734550004577777 $263 $388 forward 7 unknown #
plane-surface $-1 0 -34.561514180928327 0 0 1 0 0 0 1 forward_v I I I I #
loop $-1 $-1 $266 $389 #
straight-curve $-1 53.734550004577777 0 -11.963787675057151 0 -1 0 I I #
point $-1 53.734550004577777 -34.561514180928327 -11.963787675057151 #
point $-1 53.734550004577777 34.561514180928327 -11.963787675057151 #
coedge $-1 $337 $339 $346 $390 forward $277 $-1 #
coedge $-1 $351 $291 $279 $336 reversed $347 $-1 #
edge $-1 $353 -34.561514180928327 $344 34.561514180928327 $335 $391 forward 7 unknown #
coedge $-1 $285 $334 $282 $338 forward $277 $-1 #
edge $-1 $392 -53.734550004577777 $288 53.734550004577777 $282 $393 forward 7 unknown #
coedge $-1 $334 $285 $284 $340 forward $277 $-1 #
edge $-1 $287 -53.734550004577777 $348 53.734550004577777 $284 $394 forward 7 unknown #
straight-curve $-1 -53.734550004577777 0 -11.963787675057151 0 1 0 I I #
point $-1 -53.734550004577777 34.561514180928327 -11.963787675057151 #
point $-1 -53.734550004577777 -34.561514180928327 -11.963787675057151 #
vertex $-1 $336 $395 #
straight-curve $-1 0 34.561514180928327 11.963787675057151 -1 0 0 I I #
coedge $-1 $291 $351 $334 $390 reversed $347 $-1 #
loop $-1 $-1 $351 $293 #
vertex $-1 $390 $396 #
straight-curve $-1 53.734550004577777 34.561514180928327 0 0 0 -1 I I #
plane-surface $-1 53.734550004577777 0 0 -1 0 0 0 0 1 forward_v I I I I #
coedge $-1 $346 $335 $296 $352 forward $347 $-1 #
edge $-1 $353 -11.963787675057151 $392 11.963787675057151 $351 $397 forward 7 unknown #
vertex $-1 $336 $398 #
straight-curve $-1 0 -34.561514180928327 11.963787675057151 1 0 0 I I #
face $-1 $389 $368 $11 $-1 $357 reversed single #
loop $-1 $-1 $361 $303 #
plane-surface $-1 -53.734550004577777 0 0 1 0 0 0 0 -1 forward_v I I I I #
coedge $-1 $399 $400 $376 $401 forward $304 $-1 #
coedge $-1 $402 $306 $384 $403 forward $248 $-1 #
coedge $-1 $306 $402 $378 $404 forward $248 $-1 #
coedge $-1 $379 $385 $306 $362 forward $356 $-1 #
edge $-1 $405 -34.561514180928327 $406 34.561514180928327 $361 $407 forward 7 unknown #
coedge $-1 $308 $307 $400 $408 forward $175 $-1 #
edge $-1 $369 -4.2534885319561226 $409 4.2534885319561226 $320 $410 forward 7 unknown #
coedge $-1 $411 $315 $308 $366 reversed $190 $-1 #
edge $-1 $412 -4.2534885319561226 $370 4.2534885319561226 $365 $413 forward 7 unknown #
coedge $-1 $311 $309 $315 $374 reversed $368 $-1 #
loop $-1 $-1 $309 $355 #
vertex $-1 $322 $414 #
vertex $-1 $366 $415 #
straight-curve $-1 -53.734550004577777 0 0.44186588010111549 0 -1 0 I I #
straight-curve $-1 -53.734550004577777 0 11.963787675057151 0 -1 0 I I #
point $-1 -53.734550004577777 34.561514180928327 11.963787675057151 #
edge $-1 $316 -11.963787675057151 $370 -0.44186588010111549 $367 $416 forward 7 unknown #
point $-1 -53.734550004577777 -34.561514180928327 11.963787675057151 #
coedge $-1 $320 $378 $358 $401 reversed $99 $-1 #
straight-curve $-1 -53.734550004577777 34.561514180928327 0 0 0 -1 I I #
coedge $-1 $376 $323 $360 $404 reversed $99 $-1 #
coedge $-1 $417 $361 $323 $380 forward $356 $-1 #
edge $-1 $406 6.5564770833343644 $382 11.963787675057151 $323 $377 forward 7 unknown #
coedge $-1 $324 $327 $417 $418 forward $330 $-1 #
vertex $-1 $325 $419 #
straight-curve $-1 0 34.561514180928327 -11.963787675057151 1 0 0 I I #
coedge $-1 $326 $411 $359 $403 reversed $190 $-1 #
coedge $-1 $361 $417 $326 $386 reversed $356 $-1 #
edge $-1 $405 6.5564770833343644 $387 11.963787675057151 $385 $416 forward 7 unknown #
vertex $-1 $418 $420 #
straight-curve $-1 0 -34.561514180928327 -11.963787675057151 -1 0 0 I I #
face $-1 $264 $330 $11 $-1 $421 reversed single #
edge $-1 $348 -34.561514180928327 $392 34.561514180928327 $346 $422 forward 7 unknown #
straight-curve $-1 53.734550004577777 0 11.963787675057151 0 1 0 I I #
vertex $-1 $352 $423 #
straight-curve $-1 0 -34.561514180928327 -11.963787675057151 -1 0 0 I I #
straight-curve $-1 0 34.561514180928327 -11.963787675057151 1 0 0 I I #
point $-1 53.734550004577777 34.561514180928327 11.963787675057151 #
point $-1 53.734550004577777 34.561514180928327 -11.963787675057151 #
straight-curve $-1 53.734550004577777 -34.561514180928327 0 0 0 -1 I I #
point $-1 53.734550004577777 -34.561514180928327 11.963787675057151 #
coedge $-1 $424 $358 $402 $425 reversed $304 $-1 #
coedge $-1 $358 $424 $363 $408 reversed $304 $-1 #
edge $-1 $409 -3.49917148171774 $426 3.49917148171774 $376 $427 forward 7 unknown #
coedge $-1 $360 $359 $399 $425 forward $248 $-1 #
edge $-1 $405 -4.2534885319561226 $428 4.2534885319561226 $384 $429 forward 7 unknown #
edge $-1 $426 -4.2534885319561226 $406 4.2534885319561226 $378 $430 forward 7 unknown #
vertex $-1 $386 $431 #
vertex $-1 $380 $432 #
straight-curve $-1 -53.734550004577777 0 -6.5564770833343644 0 1 0 I I #
edge $-1 $409 -34.561514180928327 $412 34.561514180928327 $400 $433 forward 7 unknown #
vertex $-1 $364 $434 #
straight-curve $-1 -57.9880385365339 34.561514180928327 0.44186588010111549 -1 0 0 I I #
coedge $-1 $384 $365 $424 $435 forward $190 $-1 #
vertex $-1 $408 $436 #
straight-curve $-1 -57.9880385365339 -34.561514180928327 0.44186588010111549 1 0 0 I I #
point $-1 -53.734550004577777 34.561514180928327 0.44186588010111549 #
point $-1 -53.734550004577777 -34.561514180928327 0.44186588010111549 #
straight-curve $-1 -53.734550004577777 -34.561514180928327 0 0 0 -1 I I #
coedge $-1 $385 $379 $381 $418 reversed $356 $-1 #
edge $-1 $387 -34.561514180928327 $382 34.561514180928327 $417 $437 forward 7 unknown #
point $-1 -53.734550004577777 34.561514180928327 -11.963787675057151 #
point $-1 -53.734550004577777 -34.561514180928327 -11.963787675057151 #
plane-surface $-1 0 0 -11.963787675057151 0 0 1 1 0 0 forward_v I I I I #
straight-curve $-1 53.734550004577777 0 -11.963787675057151 0 -1 0 I I #
point $-1 53.734550004577777 -34.561514180928327 -11.963787675057151 #
coedge $-1 $400 $399 $411 $435 reversed $304 $-1 #
edge $-1 $428 -34.561514180928327 $426 34.561514180928327 $399 $438 forward 7 unknown #
vertex $-1 $404 $439 #
straight-curve $-1 -62.241527068490022 34.561514180928327 -3.0573056016166245 0 0 -1 I I #
vertex $-1 $425 $440 #
straight-curve $-1 -57.9880385365339 -34.561514180928327 -6.5564770833343644 -1 0 0 I I #
straight-curve $-1 -57.9880385365339 34.561514180928327 -6.5564770833343644 1 0 0 I I #
point $-1 -53.734550004577777 -34.561514180928327 -6.5564770833343644 #
point $-1 -53.734550004577777 34.561514180928327 -6.5564770833343644 #
straight-curve $-1 -62.241527068490022 0 0.44186588010111549 0 -1 0 I I #
point $-1 -62.241527068490022 34.561514180928327 0.44186588010111549 #
edge $-1 $412 -3.49917148171774 $428 3.49917148171774 $424 $441 forward 7 unknown #
point $-1 -62.241527068490022 -34.561514180928327 0.44186588010111549 #
straight-curve $-1 -53.734550004577777 0 -11.963787675057151 0 1 0 I I #
straight-curve $-1 -62.241527068490022 0 -6.5564770833343644 0 1 0 I I #
point $-1 -62.241527068490022 34.561514180928327 -6.5564770833343644 #
point $-1 -62.241527068490022 -34.561514180928327 -6.5564770833343644 #
straight-curve $-1 -62.241527068490022 -34.561514180928327 -3.0573056016166245 0 0 -1 I I #
End-of-ACIS-data 