500 0 8 0           
7 Unknown 11 ACIS 5.0 NT 24 Fri Mar 26 01:01:04 1999 
-1 9.9999999999999995e-007 1e-010 
body $-1 $8 $-1 $9 #
body $-1 $10 $-1 $11 #
body $-1 $12 $-1 $13 #
body $-1 $14 $-1 $15 #
body $-1 $16 $-1 $17 #
body $-1 $18 $-1 $19 #
body $-1 $20 $-1 $21 #
body $-1 $22 $-1 $23 #
lump $-1 $-1 $24 $0 #
transform $-1 1 0 0 0 1 0 0 0 1 49.592577898495435 20.337391468649635 5.2124224766645257 1 rotate no_reflect no_shear #
lump $-1 $-1 $25 $1 #
transform $-1 1 0 0 0 1 0 0 0 1 49.592577898495435 20.337391468649635 5.2124224766645257 1 rotate no_reflect no_shear #
lump $-1 $-1 $26 $2 #
transform $-1 1 0 0 0 1 0 0 0 1 49.592577898495435 20.337391468649635 5.2124224766645257 1 rotate no_reflect no_shear #
lump $-1 $-1 $27 $3 #
transform $-1 1 0 0 0 1 0 0 0 1 49.592577898495435 20.337391468649635 5.2124224766645257 1 rotate no_reflect no_shear #
lump $-1 $-1 $28 $4 #
transform $-1 1 0 0 0 1 0 0 0 1 49.592577898495435 20.337391468649635 5.2124224766645257 1 rotate no_reflect no_shear #
lump $-1 $-1 $29 $5 #
transform $-1 1 0 0 0 1 0 0 0 1 49.592577898495435 20.337391468649635 5.2124224766645257 1 rotate no_reflect no_shear #
lump $-1 $-1 $30 $6 #
transform $-1 1 0 0 0 1 0 0 0 1 49.592577898495435 20.337391468649635 5.2124224766645257 1 rotate no_reflect no_shear #
lump $-1 $-1 $31 $7 #
transform $-1 1 0 0 0 1 0 0 0 1 49.592577898495435 20.337391468649635 5.2124224766645257 1 rotate no_reflect no_shear #
shell $-1 $-1 $-1 $32 $-1 $8 #
shell $-1 $-1 $-1 $33 $-1 $10 #
shell $-1 $-1 $-1 $34 $-1 $12 #
shell $-1 $-1 $-1 $35 $-1 $14 #
shell $-1 $-1 $-1 $36 $-1 $16 #
shell $-1 $-1 $-1 $37 $-1 $18 #
shell $-1 $-1 $-1 $38 $-1 $20 #
shell $-1 $-1 $-1 $39 $-1 $22 #
face $-1 $40 $41 $24 $-1 $42 forward single #
face $-1 $43 $44 $25 $-1 $45 forward single #
face $-1 $46 $47 $26 $-1 $48 reversed single #
face $-1 $49 $50 $27 $-1 $51 forward single #
face $-1 $52 $53 $28 $-1 $54 forward single #
face $-1 $55 $56 $29 $-1 $57 reversed single #
face $-1 $58 $59 $30 $-1 $60 forward single #
face $-1 $61 $62 $31 $-1 $63 forward single #
face $-1 $64 $65 $24 $-1 $66 reversed single #
loop $-1 $-1 $67 $32 #
plane-surface $-1 0 0 5.2124224766645257 0 0 1 1 0 0 forward_v I I I I #
face $-1 $68 $69 $25 $-1 $70 reversed single #
loop $-1 $-1 $71 $33 #
plane-surface $-1 -49.592577898495435 0 0 1 0 0 0 0 -1 forward_v I I I I #
face $-1 $72 $73 $26 $-1 $74 reversed single #
loop $-1 $-1 $75 $34 #
plane-surface $-1 47.092379993504515 -75.801027440810543 82.72131767385369 -1 0 0 0 -0.55919291073839883 0.82903756765294845 forward_v I I I I #
face $-1 $76 $77 $27 $-1 $78 forward single #
loop $-1 $79 $80 $35 #
cone-surface $-1 37.593105370866141 -15.793925305604512 1.3033019391259364 0 0.55919291073839883 -0.82903756765294845 1 0 0 1 I I 0 1 1 forward I I I I #
face $-1 $81 $82 $28 $-1 $83 forward single #
loop $-1 $84 $85 $36 #
cone-surface $-1 43.292670144449161 -15.793925305604512 1.3033019391259364 0 0.55919291073839883 -0.82903756765294845 1 0 0 1 I I 0 1 1 forward I I I I #
face $-1 $86 $87 $29 $-1 $88 reversed single #
loop $-1 $-1 $89 $37 #
plane-surface $-1 33.793395521810801 42.080104329660301 105.46636793821463 1 0 0 0 -0.55919291073839883 -0.82903756765294845 forward_v I I I I #
face $-1 $90 $91 $30 $-1 $92 forward single #
loop $-1 $93 $94 $38 #
cone-surface $-1 37.593105370866141 15.793925305604512 1.3033019391259355 0 -0.55919291073839883 -0.82903756765294845 1 0 0 1 I I 0 1 1 forward I I I I #
face $-1 $95 $96 $31 $-1 $97 forward single #
loop $-1 $98 $99 $39 #
cone-surface $-1 43.292670144449161 15.793925305604512 1.3033019391259355 0 -0.55919291073839883 -0.82903756765294845 1 0 0 1 I I 0 1 1 forward I I I I #
face $-1 $100 $101 $24 $-1 $102 reversed single #
loop $-1 $-1 $103 $40 #
plane-surface $-1 0 0 -5.2124224766645257 0 0 1 1 0 0 forward_v I I I I #
coedge $-1 $104 $105 $106 $107 forward $41 $-1 #
face $-1 $108 $109 $25 $-1 $110 forward single #
loop $-1 $-1 $111 $43 #
plane-surface $-1 0 20.337391468649635 0 0 -1 0 0 0 -1 forward_v I I I I #
coedge $-1 $112 $113 $114 $115 forward $44 $-1 #
face $-1 $116 $117 $26 $-1 $118 reversed single #
loop $-1 $-1 $119 $46 #
plane-surface $-1 40.442887757657658 -20.337391468649649 0.49309736463763443 0 -0.55919291073839883 0.82903756765294845 1 0 0 forward_v I I I I #
coedge $-1 $120 $121 $122 $123 reversed $47 $-1 #
face $-1 $-1 $124 $27 $-1 $125 forward single #
loop $-1 $126 $127 $49 #
cone-surface $-1 37.593105370866141 -14.469206225444204 -0.66067482622567653 0 0.55919291073839883 -0.82903756765294845 0.5 0 0 1 I I -0.70710678118654746 0.70710678118654746 0.5 forward I I I I #
loop $-1 $-1 $128 $35 #
coedge $-1 $80 $80 $129 $130 reversed $50 $-1 #
face $-1 $-1 $131 $28 $-1 $132 forward single #
loop $-1 $133 $134 $52 #
cone-surface $-1 43.292670144449161 -14.469206225444204 -0.66067482622567653 0 0.55919291073839883 -0.82903756765294845 0.5 0 0 1 I I -0.70710678118654746 0.70710678118654746 0.5 forward I I I I #
loop $-1 $-1 $135 $36 #
coedge $-1 $85 $85 $136 $137 reversed $53 $-1 #
face $-1 $138 $139 $29 $-1 $140 reversed single #
loop $-1 $-1 $141 $55 #
plane-surface $-1 40.442887757657658 -13.383531642500593 23.238147628998576 0 0.55919291073839883 0.82903756765294845 1 0 0 forward_v I I I I #
coedge $-1 $142 $143 $144 $145 reversed $56 $-1 #
face $-1 $-1 $146 $30 $-1 $147 forward single #
loop $-1 $148 $149 $58 #
cone-surface $-1 37.593105370866141 14.469206225444204 -0.66067482622567741 0 -0.55919291073839883 -0.82903756765294845 0.5 0 0 1 I I -0.70710678118654746 0.70710678118654746 0.5 forward I I I I #
loop $-1 $-1 $150 $38 #
coedge $-1 $94 $94 $151 $152 reversed $59 $-1 #
face $-1 $-1 $153 $31 $-1 $154 forward single #
loop $-1 $155 $156 $61 #
cone-surface $-1 43.292670144449161 14.469206225444204 -0.66067482622567741 0 -0.55919291073839883 -0.82903756765294845 0.5 0 0 1 I I -0.70710678118654746 0.70710678118654746 0.5 forward I I I I #
loop $-1 $-1 $157 $39 #
coedge $-1 $99 $99 $158 $159 reversed $62 $-1 #
face $-1 $160 $161 $24 $-1 $162 reversed single #
loop $-1 $-1 $163 $64 #
plane-surface $-1 0 -20.337391468649635 0 0 1 0 0 0 1 forward_v I I I I #
coedge $-1 $164 $165 $166 $167 forward $65 $-1 #
coedge $-1 $168 $67 $169 $170 forward $41 $-1 #
coedge $-1 $67 $168 $171 $172 forward $41 $-1 #
coedge $-1 $173 $174 $67 $107 reversed $175 $-1 #
edge $-1 $176 -20.337391468649635 $177 20.337391468649635 $106 $178 forward 7 unknown #
face $-1 $179 $180 $25 $-1 $181 reversed single #
loop $-1 $-1 $114 $68 #
plane-surface $-1 -52.943955412433894 0 -2.2124224766645257 0 0 1 1 0 0 forward_v I I I I #
coedge $-1 $182 $183 $113 $184 forward $69 $-1 #
coedge $-1 $185 $71 $186 $187 reversed $44 $-1 #
coedge $-1 $71 $185 $111 $184 reversed $44 $-1 #
coedge $-1 $188 $189 $71 $115 reversed $109 $-1 #
edge $-1 $190 -20.337391468649635 $191 20.337391468649635 $114 $192 forward 7 unknown #
face $-1 $193 $194 $26 $-1 $195 reversed single #
loop $-1 $-1 $196 $72 #
plane-surface $-1 33.793395521810801 -75.801027440810543 82.72131767385369 1 0 0 0 0.55919291073839883 -0.82903756765294845 forward_v I I I I #
coedge $-1 $197 $198 $199 $200 reversed $73 $-1 #
coedge $-1 $121 $75 $201 $202 reversed $47 $-1 #
coedge $-1 $75 $120 $197 $203 reversed $47 $-1 #
coedge $-1 $199 $204 $75 $123 forward $205 $-1 #
edge $-1 $206 17.563122251755637 $207 24.559809328263633 $122 $208 forward 7 unknown #
loop $-1 $-1 $129 $76 #
plane-surface $-1 40.442887757657658 -20.337391468649649 0.49309736463763443 0 -0.55919291073839883 0.82903756765294845 1 0 0 forward_v I I I I #
loop $-1 $-1 $209 $49 #
coedge $-1 $127 $127 $128 $210 reversed $77 $-1 #
coedge $-1 $128 $128 $127 $210 forward $79 $-1 #
coedge $-1 $129 $129 $80 $130 forward $124 $-1 #
edge $-1 $211 -1.5592799228269122e-015 $211 6.2831853071795987 $129 $212 forward 7 unknown #
loop $-1 $-1 $136 $81 #
plane-surface $-1 40.442887757657658 -20.337391468649649 0.49309736463763443 0 -0.55919291073839883 0.82903756765294845 1 0 0 forward_v I I I I #
loop $-1 $-1 $213 $52 #
coedge $-1 $134 $134 $135 $214 reversed $82 $-1 #
coedge $-1 $135 $135 $134 $214 forward $84 $-1 #
coedge $-1 $136 $136 $85 $137 forward $131 $-1 #
edge $-1 $215 -1.5592799228269122e-015 $215 6.2831853071795987 $136 $216 forward 7 unknown #
face $-1 $217 $218 $29 $-1 $219 forward single #
loop $-1 $-1 $220 $86 #
plane-surface $-1 47.092379993504515 42.080104329660301 105.46636793821463 -1 0 0 0 0.55919291073839883 0.82903756765294845 forward_v I I I I #
coedge $-1 $221 $222 $223 $224 reversed $87 $-1 #
coedge $-1 $143 $89 $225 $226 reversed $56 $-1 #
coedge $-1 $89 $142 $221 $227 reversed $56 $-1 #
coedge $-1 $223 $228 $89 $145 forward $218 $-1 #
edge $-1 $229 0.70266069618051574 $230 7.6993477726885118 $144 $231 forward 7 unknown #
loop $-1 $-1 $151 $90 #
plane-surface $-1 40.442887757657658 -13.383531642500593 23.238147628998576 0 0.55919291073839883 0.82903756765294845 1 0 0 forward_v I I I I #
loop $-1 $-1 $232 $58 #
coedge $-1 $149 $149 $150 $233 reversed $91 $-1 #
coedge $-1 $150 $150 $149 $233 forward $93 $-1 #
coedge $-1 $151 $151 $94 $152 forward $146 $-1 #
edge $-1 $234 5.6595377129262459e-016 $234 6.2831853071796013 $151 $235 forward 7 unknown #
loop $-1 $-1 $158 $95 #
plane-surface $-1 40.442887757657658 -13.383531642500593 23.238147628998576 0 0.55919291073839883 0.82903756765294845 1 0 0 forward_v I I I I #
loop $-1 $-1 $236 $61 #
coedge $-1 $156 $156 $157 $237 reversed $96 $-1 #
coedge $-1 $157 $157 $156 $237 forward $98 $-1 #
coedge $-1 $158 $158 $99 $159 forward $153 $-1 #
edge $-1 $238 5.6595377129262459e-016 $238 6.2831853071796013 $158 $239 forward 7 unknown #
face $-1 $240 $241 $24 $-1 $242 reversed single #
loop $-1 $-1 $243 $100 #
plane-surface $-1 -49.592577898495435 0 0 1 0 0 0 0 -1 forward_v I I I I #
coedge $-1 $244 $171 $243 $245 forward $101 $-1 #
coedge $-1 $246 $103 $244 $247 forward $65 $-1 #
coedge $-1 $103 $246 $248 $249 forward $65 $-1 #
coedge $-1 $174 $173 $103 $167 reversed $175 $-1 #
edge $-1 $250 -20.337391468649635 $251 20.337391468649635 $166 $252 forward 7 unknown #
coedge $-1 $105 $104 $253 $254 forward $41 $-1 #
coedge $-1 $255 $256 $104 $170 reversed $241 $-1 #
edge $-1 $177 -49.592577898495435 $257 49.592577898495435 $169 $258 forward 7 unknown #
coedge $-1 $163 $259 $105 $172 reversed $101 $-1 #
edge $-1 $260 -49.592577898495435 $176 49.592577898495435 $171 $261 forward 7 unknown #
coedge $-1 $166 $106 $259 $262 forward $175 $-1 #
coedge $-1 $106 $166 $255 $263 reversed $175 $-1 #
loop $-1 $-1 $173 $240 #
vertex $-1 $107 $264 #
vertex $-1 $107 $265 #
straight-curve $-1 49.592577898495435 0 5.2124224766645257 0 1 0 I I #
face $-1 $266 $267 $25 $-1 $268 reversed single #
loop $-1 $-1 $269 $108 #
plane-surface $-1 -56.295332926372353 0 -3.7124224766645257 1 0 0 0 0 -1 forward_v I I I I #
coedge $-1 $270 $111 $271 $272 reversed $69 $-1 #
coedge $-1 $111 $270 $188 $273 reversed $69 $-1 #
edge $-1 $190 2.2124224766645257 $274 5.2124224766645257 $111 $275 forward 7 unknown #
coedge $-1 $113 $112 $276 $277 reversed $44 $-1 #
coedge $-1 $278 $279 $112 $187 forward $280 $-1 #
edge $-1 $281 -5.2124224766645257 $191 -2.2124224766645257 $186 $282 forward 7 unknown #
coedge $-1 $283 $114 $183 $273 forward $109 $-1 #
coedge $-1 $114 $283 $278 $284 forward $109 $-1 #
vertex $-1 $184 $285 #
vertex $-1 $284 $286 #
straight-curve $-1 -49.592577898495435 0 -2.2124224766645257 0 -1 0 I I #
face $-1 $-1 $205 $26 $-1 $287 forward single #
loop $-1 $-1 $288 $116 #
plane-surface $-1 0 -20.337391468649635 0 0 1 0 0 0 1 forward_v I I I I #
coedge $-1 $289 $290 $291 $292 reversed $117 $-1 #
coedge $-1 $293 $119 $121 $203 forward $73 $-1 #
coedge $-1 $119 $293 $289 $294 forward $73 $-1 #
coedge $-1 $291 $122 $119 $200 forward $205 $-1 #
edge $-1 $207 -26.870936114675686 $295 -13.571951642981972 $199 $296 forward 7 unknown #
coedge $-1 $297 $298 $120 $202 forward $194 $-1 #
edge $-1 $299 -40.867561472289204 $206 -36.148236360262317 $201 $300 forward 7 unknown #
edge $-1 $207 -8.4395295816521578 $299 -1.715150193409275e-014 $121 $301 forward 7 unknown #
coedge $-1 $122 $291 $297 $302 forward $205 $-1 #
loop $-1 $-1 $291 $193 #
vertex $-1 $202 $303 #
vertex $-1 $123 $304 #
straight-curve $-1 47.092379993504515 -37.900513720405272 5.2124224766645284 0 1 0 I I #
coedge $-1 $209 $209 $-1 $305 reversed $126 $-1 #
edge $-1 $306 0 $306 6.2831853071796004 $127 $307 forward 7 unknown #
vertex $-1 $130 $308 #
ellipse-curve $-1 37.593105370866141 -16.83904793039563 2.8527599206510885 0 -0.55919291073839883 0.82903756765294845 1 0 0 1 I I #
coedge $-1 $213 $213 $-1 $309 reversed $133 $-1 #
edge $-1 $310 0 $310 6.2831853071796004 $134 $311 forward 7 unknown #
vertex $-1 $137 $312 #
ellipse-curve $-1 43.292670144449161 -16.83904793039563 2.8527599206510885 0 -0.55919291073839883 0.82903756765294845 1 0 0 1 I I #
face $-1 $-1 $313 $29 $-1 $314 reversed single #
loop $-1 $-1 $144 $138 #
plane-surface $-1 0 0 5.2124224766645257 0 0 1 1 0 0 forward_v I I I I #
coedge $-1 $315 $316 $317 $318 reversed $139 $-1 #
coedge $-1 $319 $141 $143 $227 forward $87 $-1 #
coedge $-1 $141 $319 $315 $320 forward $87 $-1 #
coedge $-1 $317 $144 $141 $224 forward $218 $-1 #
edge $-1 $230 13.571951642981972 $321 26.870936114675686 $223 $322 forward 7 unknown #
coedge $-1 $323 $324 $142 $226 forward $313 $-1 #
edge $-1 $325 -52.240086604469667 $229 -47.520761492442787 $225 $326 forward 7 unknown #
edge $-1 $230 32.235253355647117 $325 40.674782937299256 $143 $327 forward 7 unknown #
coedge $-1 $144 $317 $323 $328 forward $218 $-1 #
vertex $-1 $226 $329 #
vertex $-1 $145 $330 #
straight-curve $-1 33.793395521810801 21.040052164830151 5.2124224766645284 0 -1 0 I I #
coedge $-1 $232 $232 $-1 $331 reversed $148 $-1 #
edge $-1 $332 0 $332 6.2831853071796004 $149 $333 forward 7 unknown #
vertex $-1 $152 $334 #
ellipse-curve $-1 37.593105370866141 16.83904793039563 2.8527599206510859 0 0.55919291073839883 0.82903756765294845 1 0 0 1 I I #
coedge $-1 $236 $236 $-1 $335 reversed $155 $-1 #
edge $-1 $336 0 $336 6.2831853071796004 $156 $337 forward 7 unknown #
vertex $-1 $159 $338 #
ellipse-curve $-1 43.292670144449161 16.83904793039563 2.8527599206510859 0 0.55919291073839883 0.82903756765294845 1 0 0 1 I I #
face $-1 $-1 $175 $24 $-1 $339 reversed single #
loop $-1 $-1 $255 $160 #
plane-surface $-1 0 20.337391468649635 0 0 -1 0 0 0 -1 forward_v I I I I #
coedge $-1 $253 $340 $163 $245 reversed $161 $-1 #
coedge $-1 $259 $163 $164 $247 reversed $101 $-1 #
edge $-1 $260 -5.2124224766645257 $341 5.2124224766645257 $243 $342 forward 7 unknown #
coedge $-1 $165 $164 $340 $343 forward $65 $-1 #
edge $-1 $251 -49.592577898495435 $341 49.592577898495435 $244 $344 forward 7 unknown #
coedge $-1 $256 $255 $165 $249 reversed $241 $-1 #
edge $-1 $345 -49.592577898495435 $250 49.592577898495435 $248 $346 forward 7 unknown #
vertex $-1 $167 $347 #
vertex $-1 $262 $348 #
straight-curve $-1 49.592577898495435 0 -5.2124224766645257 0 -1 0 I I #
coedge $-1 $349 $243 $168 $254 reversed $161 $-1 #
edge $-1 $257 -20.337391468649635 $260 20.337391468649635 $253 $350 forward 7 unknown #
coedge $-1 $248 $169 $174 $263 forward $241 $-1 #
coedge $-1 $169 $248 $349 $351 reversed $241 $-1 #
vertex $-1 $170 $352 #
straight-curve $-1 0 20.337391468649635 5.2124224766645257 -1 0 0 I I #
coedge $-1 $171 $244 $173 $262 reversed $101 $-1 #
vertex $-1 $254 $353 #
straight-curve $-1 0 -20.337391468649635 5.2124224766645257 1 0 0 I I #
edge $-1 $176 -5.2124224766645257 $251 5.2124224766645257 $173 $354 forward 7 unknown #
edge $-1 $177 -5.2124224766645257 $250 5.2124224766645257 $174 $355 forward 7 unknown #
point $-1 49.592577898495435 -20.337391468649635 5.2124224766645257 #
point $-1 49.592577898495435 20.337391468649635 5.2124224766645257 #
face $-1 $-1 $280 $25 $-1 $356 reversed single #
loop $-1 $-1 $276 $179 #
plane-surface $-1 0 0 -5.2124224766645257 0 0 1 1 0 0 forward_v I I I I #
coedge $-1 $357 $358 $270 $359 forward $180 $-1 #
coedge $-1 $183 $182 $269 $359 reversed $69 $-1 #
coedge $-1 $276 $360 $182 $272 forward $267 $-1 #
edge $-1 $361 -56.295332926372353 $274 -49.592577898495435 $182 $362 forward 7 unknown #
edge $-1 $190 -3.3513775139384592 $363 3.3513775139384592 $183 $364 forward 7 unknown #
vertex $-1 $184 $365 #
straight-curve $-1 -49.592577898495435 20.337391468649635 0 0 0 -1 I I #
coedge $-1 $366 $271 $185 $277 forward $267 $-1 #
edge $-1 $274 -20.337391468649635 $281 20.337391468649635 $276 $367 forward 7 unknown #
coedge $-1 $368 $186 $189 $284 reversed $280 $-1 #
coedge $-1 $186 $368 $366 $369 reversed $280 $-1 #
loop $-1 $-1 $186 $266 #
vertex $-1 $369 $370 #
straight-curve $-1 -49.592577898495435 -20.337391468649635 0 0 0 1 I I #
coedge $-1 $189 $188 $358 $371 forward $109 $-1 #
edge $-1 $372 -3.3513775139384592 $191 3.3513775139384592 $278 $373 forward 7 unknown #
point $-1 -49.592577898495435 20.337391468649635 -2.2124224766645257 #
point $-1 -49.592577898495435 -20.337391468649635 -2.2124224766645257 #
plane-surface $-1 0 0 5.2124224766645257 0 0 1 1 0 0 forward_v I I I I #
coedge $-1 $298 $297 $290 $374 forward $194 $-1 #
coedge $-1 $290 $196 $198 $294 reversed $117 $-1 #
coedge $-1 $196 $289 $288 $374 reversed $117 $-1 #
coedge $-1 $204 $199 $196 $292 forward $205 $-1 #
edge $-1 $295 -24.559809328263633 $375 -17.563122251755637 $291 $376 forward 7 unknown #
coedge $-1 $198 $197 $298 $377 reversed $73 $-1 #
edge $-1 $378 1.715150193409275e-014 $295 8.4395295816521578 $289 $379 forward 7 unknown #
vertex $-1 $200 $380 #
straight-curve $-1 20.221443878828829 -13.340704392141639 5.2124224766645257 -1 0 0 I I #
coedge $-1 $288 $201 $204 $302 reversed $194 $-1 #
coedge $-1 $201 $288 $293 $377 forward $194 $-1 #
vertex $-1 $202 $381 #
straight-curve $-1 47.092379993504515 -20.337391468649635 41.360658836926845 0 0 1 I I #
straight-curve $-1 47.092379993504515 -20.337391468649649 0.49309736463763443 0 -0.82903756765294845 -0.55919291073839883 I I #
edge $-1 $375 33.793395521810801 $206 47.092379993504515 $297 $382 forward 7 unknown #
point $-1 47.092379993504515 -20.337391468649635 5.2124224766645257 #
point $-1 47.092379993504515 -13.340704392141639 5.2124224766645257 #
edge $-1 $383 1 $383 0 $209 $-1 forward 7 unknown #
vertex $-1 $210 $384 #
ellipse-curve $-1 37.593105370866141 -14.748802680813403 -0.2461560423992023 0 -0.55919291073839883 0.82903756765294845 1 0 0 1 I I #
point $-1 38.593105370866141 -16.839047930395623 2.8527599206510752 #
edge $-1 $385 1 $385 0 $213 $-1 forward 7 unknown #
vertex $-1 $214 $386 #
ellipse-curve $-1 43.292670144449161 -14.748802680813403 -0.2461560423992023 0 -0.55919291073839883 0.82903756765294845 1 0 0 1 I I #
point $-1 44.292670144449161 -16.839047930395623 2.8527599206510752 #
loop $-1 $-1 $225 $217 #
plane-surface $-1 0 20.337391468649635 0 0 -1 0 0 0 -1 forward_v I I I I #
coedge $-1 $316 $220 $222 $320 reversed $139 $-1 #
coedge $-1 $220 $315 $387 $388 reversed $139 $-1 #
coedge $-1 $228 $223 $220 $318 forward $218 $-1 #
edge $-1 $321 -7.6993477726885118 $389 -0.70266069618051574 $317 $390 forward 7 unknown #
coedge $-1 $222 $221 $324 $391 reversed $87 $-1 #
edge $-1 $392 -40.674782937299256 $321 -32.235253355647117 $315 $393 forward 7 unknown #
vertex $-1 $224 $394 #
straight-curve $-1 20.221443878828829 13.340704392141637 5.2124224766645231 1 0 0 I I #
coedge $-1 $387 $225 $228 $328 reversed $313 $-1 #
coedge $-1 $225 $387 $319 $391 forward $313 $-1 #
vertex $-1 $226 $395 #
straight-curve $-1 33.793395521810801 20.337391468649635 52.733183969107316 0 0 1 I I #
straight-curve $-1 33.793395521810801 -13.383531642500593 23.238147628998576 0 0.82903756765294845 -0.55919291073839883 I I #
edge $-1 $389 -47.092379993504515 $229 -33.793395521810801 $323 $396 forward 7 unknown #
point $-1 33.793395521810801 20.337391468649635 5.2124224766645257 #
point $-1 33.793395521810801 13.340704392141639 5.2124224766645249 #
edge $-1 $397 1 $397 0 $232 $-1 forward 7 unknown #
vertex $-1 $233 $398 #
ellipse-curve $-1 37.593105370866141 14.748802680813403 -0.24615604239920319 0 0.55919291073839883 0.82903756765294845 1 0 0 1 I I #
point $-1 38.593105370866141 16.839047930395623 2.8527599206510743 #
edge $-1 $399 1 $399 0 $236 $-1 forward 7 unknown #
vertex $-1 $237 $400 #
ellipse-curve $-1 43.292670144449161 14.748802680813403 -0.24615604239920319 0 0.55919291073839883 0.82903756765294845 1 0 0 1 I I #
point $-1 44.292670144449161 16.839047930395623 2.8527599206510743 #
plane-surface $-1 49.592577898495435 0 0 -1 0 0 0 0 1 forward_v I I I I #
coedge $-1 $243 $349 $246 $343 reversed $161 $-1 #
vertex $-1 $343 $401 #
straight-curve $-1 -49.592577898495435 -20.337391468649635 0 0 0 -1 I I #
edge $-1 $341 -20.337391468649635 $345 20.337391468649635 $340 $402 forward 7 unknown #
straight-curve $-1 0 -20.337391468649635 -5.2124224766645257 -1 0 0 I I #
vertex $-1 $249 $403 #
straight-curve $-1 0 20.337391468649635 -5.2124224766645257 1 0 0 I I #
point $-1 49.592577898495435 20.337391468649635 -5.2124224766645257 #
point $-1 49.592577898495435 -20.337391468649635 -5.2124224766645257 #
coedge $-1 $340 $253 $256 $351 forward $161 $-1 #
straight-curve $-1 -49.592577898495435 0 5.2124224766645257 0 -1 0 I I #
edge $-1 $257 -5.2124224766645257 $345 5.2124224766645257 $256 $404 forward 7 unknown #
point $-1 -49.592577898495435 20.337391468649635 5.2124224766645257 #
point $-1 -49.592577898495435 -20.337391468649635 5.2124224766645257 #
straight-curve $-1 49.592577898495435 -20.337391468649635 0 0 0 -1 I I #
straight-curve $-1 49.592577898495435 20.337391468649635 0 0 0 -1 I I #
plane-surface $-1 0 -20.337391468649635 0 0 1 0 0 0 1 forward_v I I I I #
coedge $-1 $405 $269 $360 $406 reversed $180 $-1 #
coedge $-1 $269 $405 $283 $371 reversed $180 $-1 #
edge $-1 $363 -1.5 $361 1.5 $270 $407 forward 7 unknown #
coedge $-1 $271 $366 $357 $406 forward $267 $-1 #
vertex $-1 $272 $408 #
straight-curve $-1 0 20.337391468649635 -5.2124224766645257 1 0 0 I I #
vertex $-1 $273 $409 #
straight-curve $-1 -52.943955412433894 20.337391468649635 -2.2124224766645257 -1 0 0 I I #
point $-1 -49.592577898495435 20.337391468649635 -5.2124224766645257 #
coedge $-1 $360 $276 $279 $369 forward $267 $-1 #
straight-curve $-1 -49.592577898495435 0 -5.2124224766645257 0 -1 0 I I #
coedge $-1 $279 $278 $405 $410 forward $280 $-1 #
edge $-1 $281 -3.3513775139384592 $411 3.3513775139384592 $279 $412 forward 7 unknown #
point $-1 -49.592577898495435 -20.337391468649635 -5.2124224766645257 #
edge $-1 $363 -20.337391468649635 $372 20.337391468649635 $358 $413 forward 7 unknown #
vertex $-1 $371 $414 #
straight-curve $-1 -52.943955412433894 -20.337391468649635 -2.2124224766645257 1 0 0 I I #
edge $-1 $375 36.148236360262317 $378 40.867561472289204 $288 $415 forward 7 unknown #
vertex $-1 $302 $416 #
straight-curve $-1 33.793395521810801 -37.900513720405272 5.2124224766645284 0 -1 0 I I #
edge $-1 $378 13.571951642981972 $299 26.870936114675686 $298 $417 forward 7 unknown #
vertex $-1 $377 $418 #
straight-curve $-1 33.793395521810801 -20.337391468649649 0.49309736463763443 0 0.82903756765294845 0.55919291073839883 I I #
point $-1 33.793395521810801 -13.340704392141639 5.2124224766645257 #
point $-1 47.092379993504515 -20.337391468649635 0.49309736463764403 #
straight-curve $-1 0 -20.337391468649635 5.2124224766645257 1 0 0 I I #
vertex $-1 $305 $419 #
point $-1 38.593105370866141 -14.748802680813403 -0.2461560423992023 #
vertex $-1 $309 $420 #
point $-1 44.292670144449161 -14.748802680813403 -0.2461560423992023 #
coedge $-1 $324 $323 $316 $388 forward $313 $-1 #
edge $-1 $389 47.520761492442787 $392 52.240086604469667 $387 $421 forward 7 unknown #
vertex $-1 $328 $422 #
straight-curve $-1 47.092379993504515 21.040052164830151 5.2124224766645284 0 1 0 I I #
edge $-1 $392 -26.870936114675686 $325 -13.571951642981972 $324 $423 forward 7 unknown #
vertex $-1 $391 $424 #
straight-curve $-1 47.092379993504515 -13.383531642500593 23.238147628998576 0 -0.82903756765294845 0.55919291073839883 I I #
point $-1 47.092379993504515 13.340704392141639 5.2124224766645249 #
point $-1 33.793395521810801 20.337391468649635 0.49309736463764509 #
straight-curve $-1 0 20.337391468649635 5.2124224766645257 -1 0 0 I I #
vertex $-1 $331 $425 #
point $-1 38.593105370866141 14.748802680813403 -0.24615604239920319 #
vertex $-1 $335 $426 #
point $-1 44.292670144449161 14.748802680813403 -0.24615604239920319 #
point $-1 -49.592577898495435 -20.337391468649635 -5.2124224766645257 #
straight-curve $-1 -49.592577898495435 0 -5.2124224766645257 0 1 0 I I #
point $-1 -49.592577898495435 20.337391468649635 -5.2124224766645257 #
straight-curve $-1 -49.592577898495435 20.337391468649635 0 0 0 -1 I I #
coedge $-1 $358 $357 $368 $410 reversed $180 $-1 #
edge $-1 $411 -20.337391468649635 $361 20.337391468649635 $357 $427 forward 7 unknown #
straight-curve $-1 -56.295332926372353 20.337391468649635 -3.7124224766645257 0 0 -1 I I #
point $-1 -56.295332926372353 20.337391468649635 -5.2124224766645257 #
point $-1 -56.295332926372353 20.337391468649635 -2.2124224766645257 #
edge $-1 $372 -1.5 $411 1.5 $405 $428 forward 7 unknown #
vertex $-1 $406 $429 #
straight-curve $-1 -52.943955412433894 -20.337391468649635 -5.2124224766645257 -1 0 0 I I #
straight-curve $-1 -56.295332926372353 0 -2.2124224766645257 0 -1 0 I I #
point $-1 -56.295332926372353 -20.337391468649635 -2.2124224766645257 #
straight-curve $-1 33.793395521810801 -20.337391468649635 41.360658836926845 0 0 -1 I I #
point $-1 33.793395521810801 -20.337391468649635 5.2124224766645257 #
straight-curve $-1 20.221443878828829 -20.337391468649635 0.49309736463764298 1 0 0 I I #
point $-1 33.793395521810801 -20.337391468649635 0.49309736463764403 #
point $-1 37.593105370866141 -14.189609770075004 -1.0751936100521506 #
point $-1 43.292670144449161 -14.189609770075004 -1.0751936100521506 #
straight-curve $-1 47.092379993504515 20.337391468649635 52.733183969107316 0 0 -1 I I #
point $-1 47.092379993504515 20.337391468649635 5.2124224766645257 #
straight-curve $-1 20.221443878828829 20.337391468649635 0.49309736463764509 -1 0 0 I I #
point $-1 47.092379993504515 20.337391468649635 0.49309736463764509 #
point $-1 37.593105370866141 14.189609770075004 -1.0751936100521515 #
point $-1 43.292670144449161 14.189609770075004 -1.0751936100521515 #
straight-curve $-1 -56.295332926372353 0 -5.2124224766645257 0 1 0 I I #
straight-curve $-1 -56.295332926372353 -20.337391468649635 -3.7124224766645257 0 0 -1 I I #
point $-1 -56.295332926372353 -20.337391468649635 -5.2124224766645257 #
End-of-ACIS-data 