500 0 10 0           
7 Unknown 11 ACIS 5.0 NT 24 Fri Mar 26 01:23:19 1999 
-1 9.9999999999999995e-007 1e-010 
body $-1 $10 $-1 $11 #
body $-1 $12 $-1 $13 #
body $-1 $14 $-1 $15 #
body $-1 $16 $-1 $17 #
body $-1 $18 $-1 $19 #
body $-1 $20 $-1 $21 #
body $-1 $22 $-1 $23 #
body $-1 $24 $-1 $25 #
body $-1 $26 $-1 $27 #
body $-1 $28 $-1 $29 #
lump $-1 $-1 $30 $0 #
transform $-1 1 0 0 0 1 0 0 0 1 50.804773094882044 29.036880660778007 13.955106945091094 1 rotate no_reflect no_shear #
lump $-1 $-1 $31 $1 #
transform $-1 1 0 0 0 1 0 0 0 1 50.804773094882044 29.036880660778007 13.955106945091094 1 rotate no_reflect no_shear #
lump $-1 $-1 $32 $2 #
transform $-1 1 0 0 0 1 0 0 0 1 50.804773094882044 29.036880660778007 13.955106945091094 1 rotate no_reflect no_shear #
lump $-1 $-1 $33 $3 #
transform $-1 1 0 0 0 1 0 0 0 1 50.804773094882044 29.036880660778007 13.955106945091094 1 rotate no_reflect no_shear #
lump $-1 $-1 $34 $4 #
transform $-1 1 0 0 0 1 0 0 0 1 50.804773094882044 29.036880660778007 13.955106945091094 1 rotate no_reflect no_shear #
lump $-1 $-1 $35 $5 #
transform $-1 1 0 0 0 1 0 0 0 1 50.804773094882044 29.036880660778007 13.955106945091094 1 rotate no_reflect no_shear #
lump $-1 $-1 $36 $6 #
transform $-1 1 0 0 0 1 0 0 0 1 50.804773094882044 29.036880660778007 13.955106945091094 1 rotate no_reflect no_shear #
lump $-1 $-1 $37 $7 #
transform $-1 1 0 0 0 1 0 0 0 1 50.804773094882044 29.036880660778007 13.955106945091094 1 rotate no_reflect no_shear #
lump $-1 $-1 $38 $8 #
transform $-1 1 0 0 0 1 0 0 0 1 50.804773094882044 29.036880660778007 13.955106945091094 1 rotate no_reflect no_shear #
lump $-1 $-1 $39 $9 #
transform $-1 1 0 0 0 1 0 0 0 1 50.804773094882044 29.036880660778007 13.955106945091094 1 rotate no_reflect no_shear #
shell $-1 $-1 $-1 $40 $-1 $10 #
shell $-1 $-1 $-1 $41 $-1 $12 #
shell $-1 $-1 $-1 $42 $-1 $14 #
shell $-1 $-1 $-1 $43 $-1 $16 #
shell $-1 $-1 $-1 $44 $-1 $18 #
shell $-1 $-1 $-1 $45 $-1 $20 #
shell $-1 $-1 $-1 $46 $-1 $22 #
shell $-1 $-1 $-1 $47 $-1 $24 #
shell $-1 $-1 $-1 $48 $-1 $26 #
shell $-1 $-1 $-1 $49 $-1 $28 #
face $-1 $50 $51 $30 $-1 $52 forward single #
face $-1 $53 $54 $31 $-1 $55 forward single #
face $-1 $56 $57 $32 $-1 $58 forward single #
face $-1 $59 $60 $33 $-1 $61 reversed single #
face $-1 $62 $63 $34 $-1 $64 forward single #
face $-1 $65 $66 $35 $-1 $67 forward single #
face $-1 $68 $69 $36 $-1 $70 forward single #
face $-1 $71 $72 $37 $-1 $73 reversed single #
face $-1 $74 $75 $38 $-1 $76 forward single #
face $-1 $77 $78 $39 $-1 $79 forward single #
face $-1 $80 $81 $30 $-1 $82 reversed single #
loop $-1 $-1 $83 $40 #
plane-surface $-1 0 0 13.955106945091094 0 0 1 1 0 0 forward_v I I I I #
face $-1 $84 $85 $31 $-1 $86 reversed single #
loop $-1 $-1 $87 $41 #
plane-surface $-1 -50.804773094882044 0 0 1 0 0 0 0 -1 forward_v I I I I #
face $-1 $88 $89 $32 $-1 $90 reversed single #
loop $-1 $-1 $91 $42 #
plane-surface $-1 50.804773094882044 0 0 -1 0 0 0 0 1 forward_v I I I I #
face $-1 $92 $93 $33 $-1 $94 reversed single #
loop $-1 $-1 $95 $43 #
plane-surface $-1 -16.33045341050849 -103.34939922626899 76.160741776405175 -1 0 0 0 -0.73135370988377701 0.68199835119979291 forward_v I I I I #
face $-1 $96 $97 $34 $-1 $98 forward single #
loop $-1 $99 $100 $44 #
cone-surface $-1 -34.267508190408613 -24.400231338258898 9.1689136804718689 0 0.73135370988377701 -0.68199835119979291 1 0 0 1 I I 0 1 1 forward I I I I #
face $-1 $101 $102 $35 $-1 $103 forward single #
loop $-1 $104 $105 $45 #
cone-surface $-1 -27.541112647946065 -24.400231338258898 9.1689136804718689 0 0.73135370988377701 -0.68199835119979291 1 0 0 1 I I 0 1 1 forward I I I I #
face $-1 $106 $107 $36 $-1 $108 forward single #
loop $-1 $109 $110 $46 #
cone-surface $-1 -20.814717105483517 -24.400231338258898 9.1689136804718689 0 0.73135370988377701 -0.68199835119979291 1 0 0 1 I I 0 1 1 forward I I I I #
face $-1 $111 $112 $37 $-1 $113 reversed single #
loop $-1 $-1 $114 $47 #
plane-surface $-1 -2.8593744588121801 69.545216077415304 110.80343955116901 1 0 0 0 -0.7660444514056185 -0.64278759981090561 forward_v I I I I #
face $-1 $115 $116 $38 $-1 $117 forward single #
loop $-1 $118 $119 $48 #
cone-surface $-1 2.8963286391761898 22.183089467762859 6.2877525862703347 0 -0.7660444514056185 -0.64278759981090561 1.5 0 0 1 I I 0 1 1.5 forward I I I I #
face $-1 $120 $121 $39 $-1 $122 forward single #
loop $-1 $123 $124 $49 #
cone-surface $-1 11.529883286158757 22.183089467762859 6.2877525862703347 0 -0.7660444514056185 -0.64278759981090561 1.5 0 0 1 I I 0 1 1.5 forward I I I I #
face $-1 $125 $126 $30 $-1 $127 reversed single #
loop $-1 $-1 $128 $50 #
plane-surface $-1 0 0 -13.955106945091094 0 0 1 1 0 0 forward_v I I I I #
coedge $-1 $129 $130 $131 $132 forward $51 $-1 #
face $-1 $133 $134 $31 $-1 $135 forward single #
loop $-1 $-1 $136 $53 #
plane-surface $-1 0 29.036880660778007 0 0 -1 0 0 0 -1 forward_v I I I I #
coedge $-1 $137 $138 $139 $140 forward $54 $-1 #
face $-1 $141 $142 $32 $-1 $143 forward single #
loop $-1 $-1 $144 $56 #
plane-surface $-1 0 29.036880660778007 0 0 -1 0 0 0 -1 forward_v I I I I #
coedge $-1 $145 $146 $147 $148 forward $57 $-1 #
face $-1 $149 $150 $33 $-1 $151 reversed single #
loop $-1 $-1 $152 $59 #
plane-surface $-1 -27.541112647946068 -29.036880660778024 6.8631988088268656 0 -0.73135370988377701 0.68199835119979291 1 0 0 forward_v I I I I #
coedge $-1 $153 $154 $155 $156 reversed $60 $-1 #
face $-1 $-1 $157 $34 $-1 $158 forward single #
loop $-1 $159 $160 $62 #
cone-surface $-1 -34.267508190408613 -22.704560743745045 7.587675308384858 0 0.73135370988377701 -0.68199835119979291 0.5 0 0 1 I I -0.70710678118654746 0.70710678118654746 0.5 forward I I I I #
loop $-1 $-1 $161 $44 #
coedge $-1 $100 $100 $162 $163 reversed $63 $-1 #
face $-1 $-1 $164 $35 $-1 $165 forward single #
loop $-1 $166 $167 $65 #
cone-surface $-1 -27.541112647946065 -22.704560743745045 7.587675308384858 0 0.73135370988377701 -0.68199835119979291 0.5 0 0 1 I I -0.70710678118654746 0.70710678118654746 0.5 forward I I I I #
loop $-1 $-1 $168 $45 #
coedge $-1 $105 $105 $169 $170 reversed $66 $-1 #
face $-1 $-1 $171 $36 $-1 $172 forward single #
loop $-1 $173 $174 $68 #
cone-surface $-1 -20.814717105483517 -22.704560743745045 7.587675308384858 0 0.73135370988377701 -0.68199835119979291 0.5 0 0 1 I I -0.70710678118654746 0.70710678118654746 0.5 forward I I I I #
loop $-1 $-1 $175 $46 #
coedge $-1 $110 $110 $176 $177 reversed $69 $-1 #
face $-1 $178 $179 $37 $-1 $180 reversed single #
loop $-1 $-1 $181 $71 #
plane-surface $-1 7.2131059626674769 -8.2922129910963776 45.490083237975199 0 0.7660444514056185 0.64278759981090561 1 0 0 forward_v I I I I #
coedge $-1 $182 $183 $184 $185 reversed $72 $-1 #
face $-1 $-1 $186 $38 $-1 $187 forward single #
loop $-1 $188 $189 $74 #
cone-surface $-1 2.8963286391761898 20.188818620249226 4.6143606974654521 0 -0.7660444514056185 -0.64278759981090561 0.75 0 0 1 I I -0.70710678118654757 0.70710678118654757 0.75 forward I I I I #
loop $-1 $-1 $190 $48 #
coedge $-1 $119 $119 $191 $192 reversed $75 $-1 #
face $-1 $-1 $193 $39 $-1 $194 forward single #
loop $-1 $195 $196 $77 #
cone-surface $-1 11.529883286158757 20.188818620249226 4.6143606974654521 0 -0.7660444514056185 -0.64278759981090561 0.75 0 0 1 I I -0.70710678118654757 0.70710678118654757 0.75 forward I I I I #
loop $-1 $-1 $197 $49 #
coedge $-1 $124 $124 $198 $199 reversed $78 $-1 #
face $-1 $200 $201 $30 $-1 $202 reversed single #
loop $-1 $-1 $203 $80 #
plane-surface $-1 0 -29.036880660778007 0 0 1 0 0 0 1 forward_v I I I I #
coedge $-1 $204 $205 $206 $207 forward $81 $-1 #
coedge $-1 $208 $83 $209 $210 forward $51 $-1 #
coedge $-1 $83 $208 $211 $212 forward $51 $-1 #
coedge $-1 $213 $214 $83 $132 reversed $215 $-1 #
edge $-1 $216 -29.036880660778007 $217 29.036880660778007 $131 $218 forward 7 unknown #
face $-1 $219 $220 $31 $-1 $221 reversed single #
loop $-1 $-1 $139 $84 #
plane-surface $-1 -56.831273699631247 0 -10.760342723834759 0 0 1 1 0 0 forward_v I I I I #
coedge $-1 $222 $223 $138 $224 forward $85 $-1 #
coedge $-1 $225 $87 $226 $227 reversed $54 $-1 #
coedge $-1 $87 $225 $136 $224 reversed $54 $-1 #
coedge $-1 $228 $229 $87 $140 reversed $134 $-1 #
edge $-1 $230 -29.036880660778007 $231 29.036880660778007 $139 $232 forward 7 unknown #
face $-1 $233 $234 $32 $-1 $235 reversed single #
loop $-1 $-1 $236 $88 #
plane-surface $-1 56.831273699631247 0 -10.760342723834759 0 0 1 1 0 0 forward_v I I I I #
coedge $-1 $237 $238 $145 $239 forward $89 $-1 #
coedge $-1 $240 $91 $144 $239 reversed $57 $-1 #
coedge $-1 $91 $240 $241 $242 reversed $57 $-1 #
coedge $-1 $243 $244 $91 $148 reversed $142 $-1 #
edge $-1 $245 -29.036880660778007 $246 29.036880660778007 $147 $247 forward 7 unknown #
face $-1 $248 $249 $33 $-1 $250 forward single #
loop $-1 $-1 $251 $92 #
plane-surface $-1 -38.751771885383647 -103.34939922626899 76.160741776405175 1 0 0 0 0.73135370988377701 -0.68199835119979291 forward_v I I I I #
coedge $-1 $252 $253 $254 $255 reversed $93 $-1 #
coedge $-1 $154 $95 $256 $257 reversed $60 $-1 #
coedge $-1 $95 $153 $252 $258 reversed $60 $-1 #
coedge $-1 $254 $259 $95 $156 forward $249 $-1 #
edge $-1 $260 22.637818952356486 $261 29.251130118250764 $155 $262 forward 7 unknown #
loop $-1 $-1 $162 $96 #
plane-surface $-1 -27.541112647946068 -29.036880660778024 6.8631988088268656 0 -0.73135370988377701 0.68199835119979291 1 0 0 forward_v I I I I #
loop $-1 $-1 $263 $62 #
coedge $-1 $160 $160 $161 $264 reversed $97 $-1 #
coedge $-1 $161 $161 $160 $264 forward $99 $-1 #
coedge $-1 $162 $162 $100 $163 forward $157 $-1 #
edge $-1 $265 9.484542487354028e-016 $265 6.2831853071796013 $162 $266 forward 7 unknown #
loop $-1 $-1 $169 $101 #
plane-surface $-1 -27.541112647946068 -29.036880660778024 6.8631988088268656 0 -0.73135370988377701 0.68199835119979291 1 0 0 forward_v I I I I #
loop $-1 $-1 $267 $65 #
coedge $-1 $167 $167 $168 $268 reversed $102 $-1 #
coedge $-1 $168 $168 $167 $268 forward $104 $-1 #
coedge $-1 $169 $169 $105 $170 forward $164 $-1 #
edge $-1 $269 9.484542487354028e-016 $269 6.2831853071796013 $169 $270 forward 7 unknown #
loop $-1 $-1 $176 $106 #
plane-surface $-1 -27.541112647946068 -29.036880660778024 6.8631988088268656 0 -0.73135370988377701 0.68199835119979291 1 0 0 forward_v I I I I #
loop $-1 $-1 $271 $68 #
coedge $-1 $174 $174 $175 $272 reversed $107 $-1 #
coedge $-1 $175 $175 $174 $272 forward $109 $-1 #
coedge $-1 $176 $176 $110 $177 forward $171 $-1 #
edge $-1 $273 9.484542487354028e-016 $273 6.2831853071796013 $176 $274 forward 7 unknown #
face $-1 $275 $276 $37 $-1 $277 reversed single #
loop $-1 $-1 $278 $111 #
plane-surface $-1 17.285586384147134 69.545216077415304 110.80343955116901 -1 0 0 0 0.7660444514056185 0.64278759981090561 forward_v I I I I #
coedge $-1 $279 $280 $281 $282 reversed $112 $-1 #
coedge $-1 $183 $114 $283 $284 reversed $72 $-1 #
coedge $-1 $114 $182 $279 $285 reversed $72 $-1 #
coedge $-1 $281 $286 $114 $185 forward $287 $-1 #
edge $-1 $288 5.7357273779296456 $289 16.60383474604108 $184 $290 forward 7 unknown #
loop $-1 $-1 $191 $115 #
plane-surface $-1 7.2131059626674769 -8.2922129910963776 45.490083237975199 0 0.7660444514056185 0.64278759981090561 1 0 0 forward_v I I I I #
loop $-1 $-1 $291 $74 #
coedge $-1 $189 $189 $190 $292 reversed $116 $-1 #
coedge $-1 $190 $190 $189 $292 forward $118 $-1 #
coedge $-1 $191 $191 $119 $192 forward $186 $-1 #
edge $-1 $293 2.6054460675113104e-016 $293 6.2831853071796004 $191 $294 forward 7 unknown #
loop $-1 $-1 $198 $120 #
plane-surface $-1 7.2131059626674769 -8.2922129910963776 45.490083237975199 0 0.7660444514056185 0.64278759981090561 1 0 0 forward_v I I I I #
loop $-1 $-1 $295 $77 #
coedge $-1 $196 $196 $197 $296 reversed $121 $-1 #
coedge $-1 $197 $197 $196 $296 forward $123 $-1 #
coedge $-1 $198 $198 $124 $199 forward $193 $-1 #
edge $-1 $297 2.6054460675113104e-016 $297 6.2831853071796004 $198 $298 forward 7 unknown #
face $-1 $299 $300 $30 $-1 $301 reversed single #
loop $-1 $-1 $302 $125 #
plane-surface $-1 -50.804773094882044 0 0 1 0 0 0 0 -1 forward_v I I I I #
coedge $-1 $303 $211 $302 $304 forward $126 $-1 #
coedge $-1 $305 $128 $303 $306 forward $81 $-1 #
coedge $-1 $128 $305 $307 $308 forward $81 $-1 #
coedge $-1 $214 $213 $128 $207 reversed $215 $-1 #
edge $-1 $309 -29.036880660778007 $310 29.036880660778007 $206 $311 forward 7 unknown #
coedge $-1 $130 $129 $312 $313 forward $51 $-1 #
coedge $-1 $314 $315 $129 $210 reversed $300 $-1 #
edge $-1 $217 -50.804773094882044 $316 50.804773094882044 $209 $317 forward 7 unknown #
coedge $-1 $203 $318 $130 $212 reversed $126 $-1 #
edge $-1 $319 -50.804773094882044 $216 50.804773094882044 $211 $320 forward 7 unknown #
coedge $-1 $206 $131 $318 $321 forward $215 $-1 #
coedge $-1 $131 $206 $314 $322 reversed $215 $-1 #
loop $-1 $-1 $214 $299 #
vertex $-1 $132 $323 #
vertex $-1 $132 $324 #
straight-curve $-1 50.804773094882044 0 13.955106945091094 0 1 0 I I #
face $-1 $325 $326 $31 $-1 $327 reversed single #
loop $-1 $-1 $328 $133 #
plane-surface $-1 -62.857774304380449 0 -12.357724834462926 1 0 0 0 0 -1 forward_v I I I I #
coedge $-1 $329 $136 $330 $331 reversed $85 $-1 #
coedge $-1 $136 $329 $228 $332 reversed $85 $-1 #
edge $-1 $230 10.760342723834759 $333 13.955106945091094 $136 $334 forward 7 unknown #
coedge $-1 $138 $137 $335 $336 reversed $54 $-1 #
coedge $-1 $337 $338 $137 $227 forward $339 $-1 #
edge $-1 $340 -13.955106945091094 $231 -10.760342723834759 $226 $341 forward 7 unknown #
coedge $-1 $342 $139 $223 $332 forward $134 $-1 #
coedge $-1 $139 $342 $337 $343 forward $134 $-1 #
vertex $-1 $224 $344 #
vertex $-1 $343 $345 #
straight-curve $-1 -50.804773094882044 0 -10.760342723834759 0 -1 0 I I #
face $-1 $346 $347 $32 $-1 $348 reversed single #
loop $-1 $-1 $349 $141 #
plane-surface $-1 62.857774304380449 0 -12.357724834462926 -1 0 0 0 0 1 forward_v I I I I #
coedge $-1 $244 $243 $350 $351 forward $142 $-1 #
coedge $-1 $352 $144 $244 $353 reversed $89 $-1 #
coedge $-1 $144 $352 $354 $355 reversed $89 $-1 #
edge $-1 $356 -13.955106945091094 $246 -10.760342723834759 $144 $357 forward 7 unknown #
coedge $-1 $146 $145 $358 $359 reversed $57 $-1 #
coedge $-1 $360 $361 $146 $242 forward $362 $-1 #
edge $-1 $245 10.760342723834759 $363 13.955106945091094 $241 $364 forward 7 unknown #
coedge $-1 $236 $147 $361 $365 forward $142 $-1 #
coedge $-1 $147 $236 $237 $353 forward $142 $-1 #
vertex $-1 $242 $366 #
vertex $-1 $353 $367 #
straight-curve $-1 50.804773094882044 0 -10.760342723834759 0 1 0 I I #
face $-1 $-1 $368 $33 $-1 $369 reversed single #
loop $-1 $-1 $155 $149 #
plane-surface $-1 0 0 13.955106945091094 0 0 1 1 0 0 forward_v I I I I #
coedge $-1 $370 $371 $372 $373 reversed $150 $-1 #
coedge $-1 $374 $152 $154 $258 forward $93 $-1 #
coedge $-1 $152 $374 $370 $375 forward $93 $-1 #
coedge $-1 $372 $155 $152 $255 forward $249 $-1 #
edge $-1 $261 2.5598970865354556 $376 24.981215561410615 $254 $377 forward 7 unknown #
coedge $-1 $378 $379 $153 $257 forward $368 $-1 #
edge $-1 $380 -31.217172079375704 $260 -24.125263943111491 $256 $381 forward 7 unknown #
edge $-1 $261 -9.6969606367228742 $380 -2.5755748584148797e-014 $154 $382 forward 7 unknown #
coedge $-1 $155 $372 $378 $383 forward $249 $-1 #
vertex $-1 $257 $384 #
vertex $-1 $156 $385 #
straight-curve $-1 -16.33045341050849 -51.674699613134493 13.955106945091096 0 1 0 I I #
coedge $-1 $263 $263 $-1 $386 reversed $159 $-1 #
edge $-1 $387 0 $387 6.2831853071796004 $160 $388 forward 7 unknown #
vertex $-1 $163 $389 #
ellipse-curve $-1 -34.267508190408613 -25.730225077830866 10.40915287695899 0 -0.73135370988377701 0.68199835119979291 1 0 0 1 I I #
coedge $-1 $267 $267 $-1 $390 reversed $166 $-1 #
edge $-1 $391 0 $391 6.2831853071796004 $167 $392 forward 7 unknown #
vertex $-1 $170 $393 #
ellipse-curve $-1 -27.541112647946065 -25.730225077830866 10.40915287695899 0 -0.73135370988377701 0.68199835119979291 1 0 0 1 I I #
coedge $-1 $271 $271 $-1 $394 reversed $173 $-1 #
edge $-1 $395 0 $395 6.2831853071796004 $174 $396 forward 7 unknown #
vertex $-1 $177 $397 #
ellipse-curve $-1 -20.814717105483517 -25.730225077830866 10.40915287695899 0 -0.73135370988377701 0.68199835119979291 1 0 0 1 I I #
face $-1 $-1 $287 $37 $-1 $398 forward single #
loop $-1 $-1 $399 $178 #
plane-surface $-1 0 29.036880660778007 0 0 -1 0 0 0 -1 forward_v I I I I #
coedge $-1 $400 $401 $402 $403 reversed $179 $-1 #
coedge $-1 $404 $181 $183 $285 forward $112 $-1 #
coedge $-1 $181 $404 $400 $405 forward $112 $-1 #
coedge $-1 $402 $184 $181 $282 forward $287 $-1 #
edge $-1 $289 -6.4659274401459186 $406 13.679033402813396 $281 $407 forward 7 unknown #
coedge $-1 $408 $409 $182 $284 forward $276 $-1 #
edge $-1 $410 -54.398719170241499 $288 -41.446612830493407 $283 $411 forward 7 unknown #
edge $-1 $289 41.165987476340881 $410 58.073761321556013 $183 $412 forward 7 unknown #
coedge $-1 $184 $402 $408 $413 forward $287 $-1 #
loop $-1 $-1 $402 $275 #
vertex $-1 $284 $414 #
vertex $-1 $185 $415 #
straight-curve $-1 -2.8593744588121801 34.772608038707652 13.955106945091096 0 -1 0 I I #
coedge $-1 $291 $291 $-1 $416 reversed $188 $-1 #
edge $-1 $417 0 $417 6.2831853071796004 $189 $418 forward 7 unknown #
vertex $-1 $192 $419 #
ellipse-curve $-1 2.8963286391761898 23.602826976722291 7.4790537752170501 0 0.7660444514056185 0.64278759981090561 1.5 0 0 1 I I #
coedge $-1 $295 $295 $-1 $420 reversed $195 $-1 #
edge $-1 $421 0 $421 6.2831853071796004 $196 $422 forward 7 unknown #
vertex $-1 $199 $423 #
ellipse-curve $-1 11.529883286158757 23.602826976722291 7.4790537752170501 0 0.7660444514056185 0.64278759981090561 1.5 0 0 1 I I #
face $-1 $-1 $215 $30 $-1 $424 reversed single #
loop $-1 $-1 $314 $200 #
plane-surface $-1 0 29.036880660778007 0 0 -1 0 0 0 -1 forward_v I I I I #
coedge $-1 $312 $425 $203 $304 reversed $201 $-1 #
coedge $-1 $318 $203 $204 $306 reversed $126 $-1 #
edge $-1 $319 -13.955106945091094 $426 13.955106945091094 $302 $427 forward 7 unknown #
coedge $-1 $205 $204 $425 $428 forward $81 $-1 #
edge $-1 $310 -50.804773094882044 $426 50.804773094882044 $303 $429 forward 7 unknown #
coedge $-1 $315 $314 $205 $308 reversed $300 $-1 #
edge $-1 $430 -50.804773094882044 $309 50.804773094882044 $307 $431 forward 7 unknown #
vertex $-1 $207 $432 #
vertex $-1 $321 $433 #
straight-curve $-1 50.804773094882044 0 -13.955106945091094 0 -1 0 I I #
coedge $-1 $434 $302 $208 $313 reversed $201 $-1 #
edge $-1 $316 -29.036880660778007 $319 29.036880660778007 $312 $435 forward 7 unknown #
coedge $-1 $307 $209 $214 $322 forward $300 $-1 #
coedge $-1 $209 $307 $434 $436 reversed $300 $-1 #
vertex $-1 $210 $437 #
straight-curve $-1 0 29.036880660778007 13.955106945091094 -1 0 0 I I #
coedge $-1 $211 $303 $213 $321 reversed $126 $-1 #
vertex $-1 $313 $438 #
straight-curve $-1 0 -29.036880660778007 13.955106945091094 1 0 0 I I #
edge $-1 $216 -13.955106945091094 $310 13.955106945091094 $213 $439 forward 7 unknown #
edge $-1 $217 -13.955106945091094 $309 13.955106945091094 $214 $440 forward 7 unknown #
point $-1 50.804773094882044 -29.036880660778007 13.955106945091094 #
point $-1 50.804773094882044 29.036880660778007 13.955106945091094 #
face $-1 $-1 $339 $31 $-1 $441 reversed single #
loop $-1 $-1 $335 $219 #
plane-surface $-1 0 0 -13.955106945091094 0 0 1 1 0 0 forward_v I I I I #
coedge $-1 $442 $443 $329 $444 forward $220 $-1 #
coedge $-1 $223 $222 $328 $444 reversed $85 $-1 #
coedge $-1 $335 $445 $222 $331 forward $326 $-1 #
edge $-1 $446 -62.857774304380449 $333 -50.804773094882044 $222 $447 forward 7 unknown #
edge $-1 $230 -6.0265006047492022 $448 6.0265006047492022 $223 $449 forward 7 unknown #
vertex $-1 $224 $450 #
straight-curve $-1 -50.804773094882044 29.036880660778007 0 0 0 -1 I I #
coedge $-1 $451 $330 $225 $336 forward $326 $-1 #
edge $-1 $333 -29.036880660778007 $340 29.036880660778007 $335 $452 forward 7 unknown #
coedge $-1 $453 $226 $229 $343 reversed $339 $-1 #
coedge $-1 $226 $453 $451 $454 reversed $339 $-1 #
loop $-1 $-1 $226 $325 #
vertex $-1 $454 $455 #
straight-curve $-1 -50.804773094882044 -29.036880660778007 0 0 0 1 I I #
coedge $-1 $229 $228 $443 $456 forward $134 $-1 #
edge $-1 $457 -6.0265006047492022 $231 6.0265006047492022 $337 $458 forward 7 unknown #
point $-1 -50.804773094882044 29.036880660778007 -10.760342723834759 #
point $-1 -50.804773094882044 -29.036880660778007 -10.760342723834759 #
face $-1 $-1 $362 $32 $-1 $459 reversed single #
loop $-1 $-1 $358 $233 #
plane-surface $-1 0 0 -13.955106945091094 0 0 1 1 0 0 forward_v I I I I #
coedge $-1 $460 $350 $461 $462 forward $234 $-1 #
coedge $-1 $349 $463 $236 $351 reversed $234 $-1 #
edge $-1 $464 -29.036880660778007 $465 29.036880660778007 $350 $466 forward 7 unknown #
coedge $-1 $238 $237 $463 $467 forward $89 $-1 #
edge $-1 $465 -6.0265006047492022 $246 6.0265006047492022 $237 $468 forward 7 unknown #
coedge $-1 $469 $358 $238 $355 forward $347 $-1 #
edge $-1 $356 -6.0265006047492022 $470 6.0265006047492022 $238 $471 forward 7 unknown #
vertex $-1 $355 $472 #
straight-curve $-1 50.804773094882044 29.036880660778007 0 0 0 1 I I #
coedge $-1 $354 $473 $240 $359 forward $347 $-1 #
edge $-1 $363 -29.036880660778007 $356 29.036880660778007 $358 $474 forward 7 unknown #
coedge $-1 $461 $241 $473 $475 reversed $362 $-1 #
coedge $-1 $241 $461 $243 $365 reversed $362 $-1 #
loop $-1 $-1 $241 $346 #
vertex $-1 $242 $476 #
straight-curve $-1 50.804773094882044 -29.036880660778007 0 0 0 -1 I I #
edge $-1 $245 -6.0265006047492022 $464 6.0265006047492022 $361 $477 forward 7 unknown #
point $-1 50.804773094882044 -29.036880660778007 -10.760342723834759 #
point $-1 50.804773094882044 29.036880660778007 -10.760342723834759 #
loop $-1 $-1 $256 $248 #
plane-surface $-1 0 -29.036880660778007 0 0 1 0 0 0 1 forward_v I I I I #
coedge $-1 $371 $251 $253 $375 reversed $150 $-1 #
coedge $-1 $251 $370 $478 $479 reversed $150 $-1 #
coedge $-1 $259 $254 $251 $373 forward $249 $-1 #
edge $-1 $376 -29.251130118250764 $480 -22.637818952356486 $372 $481 forward 7 unknown #
coedge $-1 $253 $252 $379 $482 reversed $93 $-1 #
edge $-1 $483 2.5755748584148797e-014 $376 9.6969606367228742 $370 $484 forward 7 unknown #
vertex $-1 $255 $485 #
straight-curve $-1 -13.770556323973034 -22.423569494883729 13.955106945091094 -1 0 0 I I #
coedge $-1 $478 $256 $259 $383 reversed $368 $-1 #
coedge $-1 $256 $478 $374 $482 forward $368 $-1 #
vertex $-1 $257 $486 #
straight-curve $-1 -16.33045341050849 -29.03688066077801 38.080370888202587 0 0 1 I I #
straight-curve $-1 -16.33045341050849 -29.036880660778024 6.8631988088268656 0 -0.68199835119979291 -0.73135370988377701 I I #
edge $-1 $480 -38.751771885383647 $260 -16.33045341050849 $378 $487 forward 7 unknown #
point $-1 -16.33045341050849 -29.036880660778007 13.955106945091094 #
point $-1 -16.33045341050849 -22.423569494883729 13.955106945091092 #
edge $-1 $488 1 $488 0 $263 $-1 forward 7 unknown #
vertex $-1 $264 $489 #
ellipse-curve $-1 -34.267508190408613 -23.070237598686933 7.9286744839847545 0 -0.73135370988377701 0.68199835119979291 1 0 0 1 I I #
point $-1 -33.267508190408613 -25.730225077830859 10.409152876958984 #
edge $-1 $490 1 $490 0 $267 $-1 forward 7 unknown #
vertex $-1 $268 $491 #
ellipse-curve $-1 -27.541112647946065 -23.070237598686933 7.9286744839847545 0 -0.73135370988377701 0.68199835119979291 1 0 0 1 I I #
point $-1 -26.541112647946065 -25.730225077830859 10.409152876958984 #
edge $-1 $492 1 $492 0 $271 $-1 forward 7 unknown #
vertex $-1 $272 $493 #
ellipse-curve $-1 -20.814717105483517 -23.070237598686933 7.9286744839847545 0 -0.73135370988377701 0.68199835119979291 1 0 0 1 I I #
point $-1 -19.814717105483517 -25.730225077830859 10.409152876958984 #
plane-surface $-1 0 0 13.955106945091094 0 0 1 1 0 0 forward_v I I I I #
coedge $-1 $409 $408 $401 $494 forward $276 $-1 #
coedge $-1 $401 $278 $280 $405 reversed $179 $-1 #
coedge $-1 $278 $400 $399 $494 reversed $179 $-1 #
coedge $-1 $286 $281 $278 $403 forward $287 $-1 #
edge $-1 $406 -16.60383474604108 $495 -5.7357273779296456 $402 $496 forward 7 unknown #
coedge $-1 $280 $279 $409 $497 reversed $112 $-1 #
edge $-1 $498 -58.073761321556013 $406 -41.165987476340881 $400 $499 forward 7 unknown #
vertex $-1 $282 $500 #
straight-curve $-1 3.6065529813337385 18.168773292666572 13.955106945091092 1 0 0 I I #
coedge $-1 $399 $283 $286 $413 reversed $276 $-1 #
coedge $-1 $283 $399 $404 $497 forward $276 $-1 #
vertex $-1 $284 $501 #
straight-curve $-1 -2.8593744588121801 29.036880660778007 55.401719775584503 0 0 1 I I #
straight-curve $-1 -2.8593744588121801 -8.2922129910963776 45.490083237975199 0 0.64278759981090561 -0.7660444514056185 I I #
edge $-1 $495 -17.285586384147134 $288 2.8593744588121801 $408 $502 forward 7 unknown #
point $-1 -2.8593744588121801 29.036880660778007 13.955106945091094 #
point $-1 -2.8593744588121801 18.168773292666572 13.955106945091092 #
edge $-1 $503 1 $503 0 $291 $-1 forward 7 unknown #
vertex $-1 $292 $504 #
ellipse-curve $-1 2.8963286391761898 20.76335195880344 5.0964513973236309 0 0.7660444514056185 0.64278759981090561 1.5 0 0 1 I I #
point $-1 4.3963286391761898 23.602826976722277 7.4790537752170376 #
edge $-1 $505 1 $505 0 $295 $-1 forward 7 unknown #
vertex $-1 $296 $506 #
ellipse-curve $-1 11.529883286158757 20.76335195880344 5.0964513973236309 0 0.7660444514056185 0.64278759981090561 1.5 0 0 1 I I #
point $-1 13.029883286158757 23.602826976722277 7.4790537752170376 #
plane-surface $-1 50.804773094882044 0 0 -1 0 0 0 0 1 forward_v I I I I #
coedge $-1 $302 $434 $305 $428 reversed $201 $-1 #
vertex $-1 $428 $507 #
straight-curve $-1 -50.804773094882044 -29.036880660778007 0 0 0 -1 I I #
edge $-1 $426 -29.036880660778007 $430 29.036880660778007 $425 $508 forward 7 unknown #
straight-curve $-1 0 -29.036880660778007 -13.955106945091094 -1 0 0 I I #
vertex $-1 $308 $509 #
straight-curve $-1 0 29.036880660778007 -13.955106945091094 1 0 0 I I #
point $-1 50.804773094882044 29.036880660778007 -13.955106945091094 #
point $-1 50.804773094882044 -29.036880660778007 -13.955106945091094 #
coedge $-1 $425 $312 $315 $436 forward $201 $-1 #
straight-curve $-1 -50.804773094882044 0 13.955106945091094 0 -1 0 I I #
edge $-1 $316 -13.955106945091094 $430 13.955106945091094 $315 $510 forward 7 unknown #
point $-1 -50.804773094882044 29.036880660778007 13.955106945091094 #
point $-1 -50.804773094882044 -29.036880660778007 13.955106945091094 #
straight-curve $-1 50.804773094882044 -29.036880660778007 0 0 0 -1 I I #
straight-curve $-1 50.804773094882044 29.036880660778007 0 0 0 -1 I I #
plane-surface $-1 0 -29.036880660778007 0 0 1 0 0 0 1 forward_v I I I I #
coedge $-1 $511 $328 $445 $512 reversed $220 $-1 #
coedge $-1 $328 $511 $342 $456 reversed $220 $-1 #
edge $-1 $448 -1.5973821106281676 $446 1.5973821106281676 $329 $513 forward 7 unknown #
coedge $-1 $330 $451 $442 $512 forward $326 $-1 #
vertex $-1 $331 $514 #
straight-curve $-1 0 29.036880660778007 -13.955106945091094 1 0 0 I I #
vertex $-1 $332 $515 #
straight-curve $-1 -56.831273699631247 29.036880660778007 -10.760342723834759 -1 0 0 I I #
point $-1 -50.804773094882044 29.036880660778007 -13.955106945091094 #
coedge $-1 $445 $335 $338 $454 forward $326 $-1 #
straight-curve $-1 -50.804773094882044 0 -13.955106945091094 0 -1 0 I I #
coedge $-1 $338 $337 $511 $516 forward $339 $-1 #
edge $-1 $340 -6.0265006047492022 $517 6.0265006047492022 $338 $518 forward 7 unknown #
point $-1 -50.804773094882044 -29.036880660778007 -13.955106945091094 #
edge $-1 $448 -29.036880660778007 $457 29.036880660778007 $443 $519 forward 7 unknown #
vertex $-1 $456 $520 #
straight-curve $-1 -56.831273699631247 -29.036880660778007 -10.760342723834759 1 0 0 I I #
plane-surface $-1 0 -29.036880660778007 0 0 1 0 0 0 1 forward_v I I I I #
coedge $-1 $463 $349 $469 $521 reversed $234 $-1 #
coedge $-1 $361 $360 $349 $462 reversed $362 $-1 #
edge $-1 $464 -1.5973821106281676 $522 1.5973821106281676 $349 $523 forward 7 unknown #
coedge $-1 $350 $460 $352 $467 reversed $234 $-1 #
vertex $-1 $351 $524 #
vertex $-1 $351 $525 #
straight-curve $-1 62.857774304380449 0 -10.760342723834759 0 1 0 I I #
edge $-1 $465 -1.5973821106281676 $470 1.5973821106281676 $463 $526 forward 7 unknown #
straight-curve $-1 56.831273699631247 29.036880660778007 -10.760342723834759 -1 0 0 I I #
coedge $-1 $473 $354 $460 $521 forward $347 $-1 #
vertex $-1 $521 $527 #
straight-curve $-1 56.831273699631247 29.036880660778007 -13.955106945091094 1 0 0 I I #
point $-1 50.804773094882044 29.036880660778007 -13.955106945091094 #
coedge $-1 $358 $469 $360 $475 forward $347 $-1 #
straight-curve $-1 50.804773094882044 0 -13.955106945091094 0 1 0 I I #
edge $-1 $522 -6.0265006047492022 $363 6.0265006047492022 $360 $528 forward 7 unknown #
point $-1 50.804773094882044 -29.036880660778007 -13.955106945091094 #
straight-curve $-1 56.831273699631247 -29.036880660778007 -10.760342723834759 1 0 0 I I #
coedge $-1 $379 $378 $371 $479 forward $368 $-1 #
edge $-1 $480 24.125263943111491 $483 31.217172079375704 $478 $529 forward 7 unknown #
vertex $-1 $383 $530 #
straight-curve $-1 -38.751771885383647 -51.674699613134493 13.955106945091096 0 -1 0 I I #
edge $-1 $483 -24.981215561410615 $380 -2.5598970865354556 $379 $531 forward 7 unknown #
vertex $-1 $482 $532 #
straight-curve $-1 -38.751771885383647 -29.036880660778024 6.8631988088268656 0 0.68199835119979291 0.73135370988377701 I I #
point $-1 -38.751771885383647 -22.423569494883729 13.955106945091092 #
point $-1 -16.33045341050849 -29.036880660778007 6.8631988088268843 #
straight-curve $-1 0 -29.036880660778007 13.955106945091094 1 0 0 I I #
vertex $-1 $386 $533 #
point $-1 -33.267508190408613 -23.070237598686933 7.9286744839847545 #
vertex $-1 $390 $534 #
point $-1 -26.541112647946065 -23.070237598686933 7.9286744839847545 #
vertex $-1 $394 $535 #
point $-1 -19.814717105483517 -23.070237598686933 7.9286744839847545 #
edge $-1 $495 41.446612830493407 $498 54.398719170241499 $399 $536 forward 7 unknown #
vertex $-1 $413 $537 #
straight-curve $-1 17.285586384147134 34.772608038707652 13.955106945091096 0 1 0 I I #
edge $-1 $498 -13.679033402813396 $410 6.4659274401459186 $409 $538 forward 7 unknown #
vertex $-1 $497 $539 #
straight-curve $-1 17.285586384147134 -8.2922129910963776 45.490083237975199 0 -0.64278759981090561 0.7660444514056185 I I #
point $-1 17.285586384147134 18.168773292666572 13.955106945091092 #
point $-1 -2.8593744588121801 29.03688066077801 1.0030006053430043 #
straight-curve $-1 0 29.036880660778007 13.955106945091094 -1 0 0 I I #
vertex $-1 $416 $540 #
point $-1 4.3963286391761898 20.76335195880344 5.0964513973236309 #
vertex $-1 $420 $541 #
point $-1 13.029883286158757 20.76335195880344 5.0964513973236309 #
point $-1 -50.804773094882044 -29.036880660778007 -13.955106945091094 #
straight-curve $-1 -50.804773094882044 0 -13.955106945091094 0 1 0 I I #
point $-1 -50.804773094882044 29.036880660778007 -13.955106945091094 #
straight-curve $-1 -50.804773094882044 29.036880660778007 0 0 0 -1 I I #
coedge $-1 $443 $442 $453 $516 reversed $220 $-1 #
edge $-1 $517 -29.036880660778007 $446 29.036880660778007 $442 $542 forward 7 unknown #
straight-curve $-1 -62.857774304380449 29.036880660778007 -12.357724834462926 0 0 -1 I I #
point $-1 -62.857774304380449 29.036880660778007 -13.955106945091094 #
point $-1 -62.857774304380449 29.036880660778007 -10.760342723834759 #
edge $-1 $457 -1.5973821106281676 $517 1.5973821106281676 $511 $543 forward 7 unknown #
vertex $-1 $512 $544 #
straight-curve $-1 -56.831273699631247 -29.036880660778007 -13.955106945091094 -1 0 0 I I #
straight-curve $-1 -62.857774304380449 0 -10.760342723834759 0 -1 0 I I #
point $-1 -62.857774304380449 -29.036880660778007 -10.760342723834759 #
edge $-1 $470 -29.036880660778007 $522 29.036880660778007 $460 $545 forward 7 unknown #
vertex $-1 $462 $546 #
straight-curve $-1 62.857774304380449 -29.036880660778007 -12.357724834462926 0 0 -1 I I #
point $-1 62.857774304380449 -29.036880660778007 -10.760342723834759 #
point $-1 62.857774304380449 29.036880660778007 -10.760342723834759 #
straight-curve $-1 62.857774304380449 29.036880660778007 -12.357724834462926 0 0 -1 I I #
point $-1 62.857774304380449 29.036880660778007 -13.955106945091094 #
straight-curve $-1 56.831273699631247 -29.036880660778007 -13.955106945091094 -1 0 0 I I #
straight-curve $-1 -38.751771885383647 -29.03688066077801 38.080370888202587 0 0 -1 I I #
point $-1 -38.751771885383647 -29.036880660778007 13.955106945091094 #
straight-curve $-1 -13.770556323973034 -29.036880660778007 6.8631988088268869 1 0 0 I I #
point $-1 -38.751771885383647 -29.036880660778007 6.8631988088268843 #
point $-1 -34.267508190408613 -22.338883888803156 7.2466761327849616 #
point $-1 -27.541112647946065 -22.338883888803156 7.2466761327849616 #
point $-1 -20.814717105483517 -22.338883888803156 7.2466761327849616 #
straight-curve $-1 17.285586384147134 29.036880660778007 55.401719775584503 0 0 -1 I I #
point $-1 17.285586384147134 29.036880660778007 13.955106945091094 #
straight-curve $-1 3.6065529813337385 29.03688066077801 1.0030006053430078 -1 0 0 I I #
point $-1 17.285586384147134 29.03688066077801 1.0030006053430043 #
point $-1 2.8963286391761898 19.614285281695011 4.1322699976072732 #
point $-1 11.529883286158757 19.614285281695011 4.1322699976072732 #
straight-curve $-1 -62.857774304380449 0 -13.955106945091094 0 1 0 I I #
straight-curve $-1 -62.857774304380449 -29.036880660778007 -12.357724834462926 0 0 -1 I I #
point $-1 -62.857774304380449 -29.036880660778007 -13.955106945091094 #
straight-curve $-1 62.857774304380449 0 -13.955106945091094 0 -1 0 I I #
point $-1 62.857774304380449 -29.036880660778007 -13.955106945091094 #
End-of-ACIS-data 