500 0 17 0           
7 Unknown 11 ACIS 5.0 NT 24 Thu Mar 25 19:27:17 1999 
-1 9.9999999999999995e-007 1e-010 
body $-1 $17 $-1 $18 #
body $-1 $19 $-1 $20 #
body $-1 $21 $-1 $22 #
body $-1 $23 $-1 $24 #
body $-1 $25 $-1 $26 #
body $-1 $27 $-1 $28 #
body $-1 $29 $-1 $30 #
body $-1 $31 $-1 $32 #
body $-1 $33 $-1 $34 #
body $-1 $35 $-1 $36 #
body $-1 $37 $-1 $38 #
body $-1 $39 $-1 $40 #
body $-1 $41 $-1 $42 #
body $-1 $43 $-1 $44 #
body $-1 $45 $-1 $46 #
body $-1 $47 $-1 $48 #
body $-1 $49 $-1 $50 #
lump $-1 $-1 $51 $0 #
transform $-1 1 0 0 0 1 0 0 0 1 77.877132480849639 42.607468776839127 9.2895906762479452 1 rotate no_reflect no_shear #
lump $-1 $-1 $52 $1 #
transform $-1 1 0 0 0 1 0 0 0 1 77.877132480849639 42.607468776839127 9.2895906762479452 1 rotate no_reflect no_shear #
lump $-1 $-1 $53 $2 #
transform $-1 1 0 0 0 1 0 0 0 1 77.877132480849639 42.607468776839127 9.2895906762479452 1 rotate no_reflect no_shear #
lump $-1 $-1 $54 $3 #
transform $-1 1 0 0 0 1 0 0 0 1 77.877132480849639 42.607468776839127 9.2895906762479452 1 rotate no_reflect no_shear #
lump $-1 $-1 $55 $4 #
transform $-1 1 0 0 0 1 0 0 0 1 77.877132480849639 42.607468776839127 9.2895906762479452 1 rotate no_reflect no_shear #
lump $-1 $-1 $56 $5 #
transform $-1 1 0 0 0 1 0 0 0 1 77.877132480849639 42.607468776839127 9.2895906762479452 1 rotate no_reflect no_shear #
lump $-1 $-1 $57 $6 #
transform $-1 1 0 0 0 1 0 0 0 1 77.877132480849639 42.607468776839127 9.2895906762479452 1 rotate no_reflect no_shear #
lump $-1 $-1 $58 $7 #
transform $-1 1 0 0 0 1 0 0 0 1 77.877132480849639 42.607468776839127 9.2895906762479452 1 rotate no_reflect no_shear #
lump $-1 $-1 $59 $8 #
transform $-1 1 0 0 0 1 0 0 0 1 77.877132480849639 42.607468776839127 9.2895906762479452 1 rotate no_reflect no_shear #
lump $-1 $-1 $60 $9 #
transform $-1 1 0 0 0 1 0 0 0 1 77.877132480849639 42.607468776839127 9.2895906762479452 1 rotate no_reflect no_shear #
lump $-1 $-1 $61 $10 #
transform $-1 1 0 0 0 1 0 0 0 1 77.877132480849639 42.607468776839127 9.2895906762479452 1 rotate no_reflect no_shear #
lump $-1 $-1 $62 $11 #
transform $-1 1 0 0 0 1 0 0 0 1 77.877132480849639 42.607468776839127 9.2895906762479452 1 rotate no_reflect no_shear #
lump $-1 $-1 $63 $12 #
transform $-1 1 0 0 0 1 0 0 0 1 77.877132480849639 42.607468776839127 9.2895906762479452 1 rotate no_reflect no_shear #
lump $-1 $-1 $64 $13 #
transform $-1 1 0 0 0 1 0 0 0 1 77.877132480849639 42.607468776839127 9.2895906762479452 1 rotate no_reflect no_shear #
lump $-1 $-1 $65 $14 #
transform $-1 1 0 0 0 1 0 0 0 1 77.877132480849639 42.607468776839127 9.2895906762479452 1 rotate no_reflect no_shear #
lump $-1 $-1 $66 $15 #
transform $-1 1 0 0 0 1 0 0 0 1 77.877132480849639 42.607468776839127 9.2895906762479452 1 rotate no_reflect no_shear #
lump $-1 $-1 $67 $16 #
transform $-1 1 0 0 0 1 0 0 0 1 77.877132480849639 42.607468776839127 9.2895906762479452 1 rotate no_reflect no_shear #
shell $-1 $-1 $-1 $68 $-1 $17 #
shell $-1 $-1 $-1 $69 $-1 $19 #
shell $-1 $-1 $-1 $70 $-1 $21 #
shell $-1 $-1 $-1 $71 $-1 $23 #
shell $-1 $-1 $-1 $72 $-1 $25 #
shell $-1 $-1 $-1 $73 $-1 $27 #
shell $-1 $-1 $-1 $74 $-1 $29 #
shell $-1 $-1 $-1 $75 $-1 $31 #
shell $-1 $-1 $-1 $76 $-1 $33 #
shell $-1 $-1 $-1 $77 $-1 $35 #
shell $-1 $-1 $-1 $78 $-1 $37 #
shell $-1 $-1 $-1 $79 $-1 $39 #
shell $-1 $-1 $-1 $80 $-1 $41 #
shell $-1 $-1 $-1 $81 $-1 $43 #
shell $-1 $-1 $-1 $82 $-1 $45 #
shell $-1 $-1 $-1 $83 $-1 $47 #
shell $-1 $-1 $-1 $84 $-1 $49 #
face $-1 $85 $86 $51 $-1 $87 forward single #
face $-1 $88 $89 $52 $-1 $90 reversed single #
face $-1 $91 $92 $53 $-1 $93 forward single #
face $-1 $94 $95 $54 $-1 $96 forward single #
face $-1 $97 $98 $55 $-1 $99 forward single #
face $-1 $100 $101 $56 $-1 $102 reversed single #
face $-1 $103 $104 $57 $-1 $105 forward single #
face $-1 $106 $107 $58 $-1 $108 forward single #
face $-1 $109 $110 $59 $-1 $111 forward single #
face $-1 $112 $113 $60 $-1 $114 reversed single #
face $-1 $115 $116 $61 $-1 $117 forward single #
face $-1 $118 $119 $62 $-1 $120 forward single #
face $-1 $121 $122 $63 $-1 $123 forward single #
face $-1 $124 $125 $64 $-1 $126 reversed single #
face $-1 $127 $128 $65 $-1 $129 forward single #
face $-1 $130 $131 $66 $-1 $132 forward single #
face $-1 $133 $134 $67 $-1 $135 forward single #
face $-1 $136 $137 $51 $-1 $138 reversed single #
loop $-1 $-1 $139 $68 #
plane-surface $-1 0 0 9.2895906762479452 0 0 1 1 0 0 forward_v I I I I #
face $-1 $140 $141 $52 $-1 $142 reversed single #
loop $-1 $-1 $143 $69 #
plane-surface $-1 108.53276572736564 -21.904001590070934 223.38919077918558 0 -1 0 -0.79863551827123203 0 -0.60181501223851219 forward_v I I I I #
face $-1 $144 $145 $53 $-1 $146 forward single #
loop $-1 $147 $148 $70 #
cone-surface $-1 74.979113226733375 -36.262511817551818 6.2357286010904911 -0.79863551827123203 0 -0.60181501223851219 0.60181501223851219 0 -0.79863551827123203 1 I I 0 1 1 forward I I I I #
face $-1 $149 $150 $54 $-1 $151 forward single #
loop $-1 $152 $153 $71 #
cone-surface $-1 74.979113226733375 -30.878070482246486 6.2357286010904911 -0.79863551827123203 0 -0.60181501223851219 0.60181501223851219 0 -0.79863551827123203 1 I I 0 1 1 forward I I I I #
face $-1 $154 $155 $55 $-1 $156 forward single #
loop $-1 $157 $158 $72 #
cone-surface $-1 74.979113226733375 -25.493629146941153 6.2357286010904911 -0.79863551827123203 0 -0.60181501223851219 0.60181501223851219 0 -0.79863551827123203 1 I I 0 1 1 forward I I I I #
face $-1 $159 $160 $56 $-1 $161 reversed single #
loop $-1 $-1 $162 $73 #
plane-surface $-1 108.53276572736564 39.852139374422038 223.38919077918558 0 -1 0 -0.79863551827123203 0 -0.60181501223851219 forward_v I I I I #
face $-1 $163 $164 $57 $-1 $165 forward single #
loop $-1 $166 $167 $74 #
cone-surface $-1 74.979113226733375 25.49362914694116 6.2357286010904911 -0.79863551827123203 0 -0.60181501223851219 0.60181501223851219 0 -0.79863551827123203 1 I I 0 1 1 forward I I I I #
face $-1 $168 $169 $58 $-1 $170 forward single #
loop $-1 $171 $172 $75 #
cone-surface $-1 74.979113226733375 30.878070482246486 6.2357286010904911 -0.79863551827123203 0 -0.60181501223851219 0.60181501223851219 0 -0.79863551827123203 1 I I 0 1 1 forward I I I I #
face $-1 $173 $174 $59 $-1 $175 forward single #
loop $-1 $176 $177 $76 #
cone-surface $-1 74.979113226733375 36.262511817551825 6.2357286010904911 -0.79863551827123203 0 -0.60181501223851219 0.60181501223851219 0 -0.79863551827123203 1 I I 0 1 1 forward I I I I #
face $-1 $178 $179 $60 $-1 $180 reversed single #
loop $-1 $-1 $181 $77 #
plane-surface $-1 -202.26802060149117 -39.852139374422038 98.998302658544077 0 1 0 -0.79863551827123203 0 0.60181501223851219 forward_v I I I I #
face $-1 $182 $183 $61 $-1 $184 forward single #
loop $-1 $185 $186 $78 #
cone-surface $-1 -74.979113226733347 -36.262511817551818 6.2357286010904875 0.79863551827123203 0 -0.60181501223851219 0.60181501223851219 0 0.79863551827123203 1 I I 0 1 1 forward I I I I #
face $-1 $187 $188 $62 $-1 $189 forward single #
loop $-1 $190 $191 $79 #
cone-surface $-1 -74.979113226733347 -30.878070482246486 6.2357286010904875 0.79863551827123203 0 -0.60181501223851219 0.60181501223851219 0 0.79863551827123203 1 I I 0 1 1 forward I I I I #
face $-1 $192 $193 $63 $-1 $194 forward single #
loop $-1 $195 $196 $80 #
cone-surface $-1 -74.979113226733347 -25.493629146941153 6.2357286010904875 0.79863551827123203 0 -0.60181501223851219 0.60181501223851219 0 0.79863551827123203 1 I I 0 1 1 forward I I I I #
face $-1 $197 $198 $64 $-1 $199 reversed single #
loop $-1 $-1 $200 $81 #
plane-surface $-1 -202.26802060149117 21.904001590070934 98.998302658544077 0 1 0 -0.79863551827123203 0 0.60181501223851219 forward_v I I I I #
face $-1 $201 $202 $65 $-1 $203 forward single #
loop $-1 $204 $205 $82 #
cone-surface $-1 -74.979113226733347 25.49362914694116 6.2357286010904875 0.79863551827123203 0 -0.60181501223851219 0.60181501223851219 0 0.79863551827123203 1 I I 0 1 1 forward I I I I #
face $-1 $206 $207 $66 $-1 $208 forward single #
loop $-1 $209 $210 $83 #
cone-surface $-1 -74.979113226733347 30.878070482246486 6.2357286010904875 0.79863551827123203 0 -0.60181501223851219 0.60181501223851219 0 0.79863551827123203 1 I I 0 1 1 forward I I I I #
face $-1 $211 $212 $67 $-1 $213 forward single #
loop $-1 $214 $215 $84 #
cone-surface $-1 -74.979113226733347 36.262511817551825 6.2357286010904875 0.79863551827123203 0 -0.60181501223851219 0.60181501223851219 0 0.79863551827123203 1 I I 0 1 1 forward I I I I #
face $-1 $216 $217 $51 $-1 $218 reversed single #
loop $-1 $-1 $219 $85 #
plane-surface $-1 0 0 -9.2895906762479452 0 0 1 1 0 0 forward_v I I I I #
coedge $-1 $220 $221 $222 $223 forward $86 $-1 #
face $-1 $224 $225 $52 $-1 $226 reversed single #
loop $-1 $-1 $227 $88 #
plane-surface $-1 -15.858122393275849 -30.878070482246486 129.65393590506005 0.79863551827123203 0 0.60181501223851219 0.60181501223851219 0 -0.79863551827123203 forward_v I I I I #
coedge $-1 $228 $229 $230 $231 reversed $89 $-1 #
face $-1 $-1 $232 $53 $-1 $233 forward single #
loop $-1 $234 $235 $91 #
cone-surface $-1 73.198885022372593 -36.262511817551818 4.8942304657284783 -0.79863551827123203 0 -0.60181501223851219 0.3009075061192561 0 -0.39931775913561601 1 I I -0.70710678118654746 0.70710678118654746 0.5 forward I I I I #
loop $-1 $-1 $236 $70 #
coedge $-1 $148 $148 $237 $238 reversed $92 $-1 #
face $-1 $-1 $239 $54 $-1 $240 forward single #
loop $-1 $241 $242 $94 #
cone-surface $-1 73.198885022372593 -30.878070482246486 4.8942304657284783 -0.79863551827123203 0 -0.60181501223851219 0.3009075061192561 0 -0.39931775913561601 1 I I -0.70710678118654746 0.70710678118654746 0.5 forward I I I I #
loop $-1 $-1 $243 $71 #
coedge $-1 $153 $153 $244 $245 reversed $95 $-1 #
face $-1 $-1 $246 $55 $-1 $247 forward single #
loop $-1 $248 $249 $97 #
cone-surface $-1 73.198885022372593 -25.493629146941153 4.8942304657284783 -0.79863551827123203 0 -0.60181501223851219 0.3009075061192561 0 -0.39931775913561601 1 I I -0.70710678118654746 0.70710678118654746 0.5 forward I I I I #
loop $-1 $-1 $250 $72 #
coedge $-1 $158 $158 $251 $252 reversed $98 $-1 #
face $-1 $253 $254 $56 $-1 $255 reversed single #
loop $-1 $-1 $256 $100 #
plane-surface $-1 -15.858122393275849 30.878070482246486 129.65393590506005 0.79863551827123203 0 0.60181501223851219 0.60181501223851219 0 -0.79863551827123203 forward_v I I I I #
coedge $-1 $257 $258 $259 $260 reversed $101 $-1 #
face $-1 $-1 $261 $57 $-1 $262 forward single #
loop $-1 $263 $264 $103 #
cone-surface $-1 73.198885022372593 25.49362914694116 4.8942304657284783 -0.79863551827123203 0 -0.60181501223851219 0.3009075061192561 0 -0.39931775913561601 1 I I -0.70710678118654746 0.70710678118654746 0.5 forward I I I I #
loop $-1 $-1 $265 $74 #
coedge $-1 $167 $167 $266 $267 reversed $104 $-1 #
face $-1 $-1 $268 $58 $-1 $269 forward single #
loop $-1 $270 $271 $106 #
cone-surface $-1 73.198885022372593 30.878070482246486 4.8942304657284783 -0.79863551827123203 0 -0.60181501223851219 0.3009075061192561 0 -0.39931775913561601 1 I I -0.70710678118654746 0.70710678118654746 0.5 forward I I I I #
loop $-1 $-1 $272 $75 #
coedge $-1 $172 $172 $273 $274 reversed $107 $-1 #
face $-1 $-1 $275 $59 $-1 $276 forward single #
loop $-1 $277 $278 $109 #
cone-surface $-1 73.198885022372593 36.262511817551825 4.8942304657284783 -0.79863551827123203 0 -0.60181501223851219 0.3009075061192561 0 -0.39931775913561601 1 I I -0.70710678118654746 0.70710678118654746 0.5 forward I I I I #
loop $-1 $-1 $279 $76 #
coedge $-1 $177 $177 $280 $281 reversed $110 $-1 #
face $-1 $282 $283 $60 $-1 $284 reversed single #
loop $-1 $-1 $285 $112 #
plane-surface $-1 -77.877132480849681 -30.878070482246486 5.2630477844185606 -0.79863551827123203 0 0.60181501223851219 0.60181501223851219 0 0.79863551827123203 forward_v I I I I #
coedge $-1 $286 $287 $288 $289 reversed $113 $-1 #
face $-1 $-1 $290 $61 $-1 $291 forward single #
loop $-1 $292 $293 $115 #
cone-surface $-1 -73.198885022372565 -36.262511817551818 4.8942304657284748 0.79863551827123203 0 -0.60181501223851219 0.3009075061192561 0 0.39931775913561601 1 I I -0.70710678118654746 0.70710678118654746 0.5 forward I I I I #
loop $-1 $-1 $294 $78 #
coedge $-1 $186 $186 $295 $296 reversed $116 $-1 #
face $-1 $-1 $297 $62 $-1 $298 forward single #
loop $-1 $299 $300 $118 #
cone-surface $-1 -73.198885022372565 -30.878070482246486 4.8942304657284748 0.79863551827123203 0 -0.60181501223851219 0.3009075061192561 0 0.39931775913561601 1 I I -0.70710678118654746 0.70710678118654746 0.5 forward I I I I #
loop $-1 $-1 $301 $79 #
coedge $-1 $191 $191 $302 $303 reversed $119 $-1 #
face $-1 $-1 $304 $63 $-1 $305 forward single #
loop $-1 $306 $307 $121 #
cone-surface $-1 -73.198885022372565 -25.493629146941153 4.8942304657284748 0.79863551827123203 0 -0.60181501223851219 0.3009075061192561 0 0.39931775913561601 1 I I -0.70710678118654746 0.70710678118654746 0.5 forward I I I I #
loop $-1 $-1 $308 $80 #
coedge $-1 $196 $196 $309 $310 reversed $122 $-1 #
face $-1 $311 $312 $64 $-1 $313 reversed single #
loop $-1 $-1 $314 $124 #
plane-surface $-1 -77.877132480849681 30.878070482246486 5.2630477844185606 -0.79863551827123203 0 0.60181501223851219 0.60181501223851219 0 0.79863551827123203 forward_v I I I I #
coedge $-1 $315 $316 $317 $318 reversed $125 $-1 #
face $-1 $-1 $319 $65 $-1 $320 forward single #
loop $-1 $321 $322 $127 #
cone-surface $-1 -73.198885022372565 25.49362914694116 4.8942304657284748 0.79863551827123203 0 -0.60181501223851219 0.3009075061192561 0 0.39931775913561601 1 I I -0.70710678118654746 0.70710678118654746 0.5 forward I I I I #
loop $-1 $-1 $323 $82 #
coedge $-1 $205 $205 $324 $325 reversed $128 $-1 #
face $-1 $-1 $326 $66 $-1 $327 forward single #
loop $-1 $328 $329 $130 #
cone-surface $-1 -73.198885022372565 30.878070482246486 4.8942304657284748 0.79863551827123203 0 -0.60181501223851219 0.3009075061192561 0 0.39931775913561601 1 I I -0.70710678118654746 0.70710678118654746 0.5 forward I I I I #
loop $-1 $-1 $330 $83 #
coedge $-1 $210 $210 $331 $332 reversed $131 $-1 #
face $-1 $-1 $333 $67 $-1 $334 forward single #
loop $-1 $335 $336 $133 #
cone-surface $-1 -73.198885022372565 36.262511817551825 4.8942304657284748 0.79863551827123203 0 -0.60181501223851219 0.3009075061192561 0 0.39931775913561601 1 I I -0.70710678118654746 0.70710678118654746 0.5 forward I I I I #
loop $-1 $-1 $337 $84 #
coedge $-1 $215 $215 $338 $339 reversed $134 $-1 #
face $-1 $340 $341 $51 $-1 $342 reversed single #
loop $-1 $-1 $343 $136 #
plane-surface $-1 0 -42.607468776839127 0 0 1 0 0 0 1 forward_v I I I I #
coedge $-1 $344 $345 $346 $347 forward $137 $-1 #
coedge $-1 $348 $139 $349 $350 forward $86 $-1 #
coedge $-1 $139 $348 $351 $352 forward $86 $-1 #
coedge $-1 $353 $354 $139 $223 reversed $355 $-1 #
edge $-1 $356 -42.607468776839127 $357 42.607468776839127 $222 $358 forward 7 unknown #
face $-1 $359 $360 $52 $-1 $361 forward single #
loop $-1 $-1 $362 $140 #
plane-surface $-1 108.53276572736564 -39.852139374422038 223.38919077918558 0 1 0 0.79863551827123203 0 0.60181501223851219 forward_v I I I I #
coedge $-1 $363 $364 $365 $366 reversed $141 $-1 #
coedge $-1 $229 $143 $367 $368 reversed $89 $-1 #
coedge $-1 $143 $228 $363 $369 reversed $89 $-1 #
coedge $-1 $365 $370 $143 $231 forward $360 $-1 #
edge $-1 $371 -23.610749617166817 $372 -20.576531999384642 $230 $373 forward 7 unknown #
loop $-1 $-1 $237 $144 #
plane-surface $-1 -15.858122393275849 -30.878070482246486 129.65393590506005 0.79863551827123203 0 0.60181501223851219 0.60181501223851219 0 -0.79863551827123203 forward_v I I I I #
loop $-1 $-1 $374 $91 #
coedge $-1 $235 $235 $236 $375 reversed $145 $-1 #
coedge $-1 $236 $236 $235 $375 forward $147 $-1 #
coedge $-1 $237 $237 $148 $238 forward $232 $-1 #
edge $-1 $376 0 $376 6.2831853071796004 $237 $377 forward 7 unknown #
loop $-1 $-1 $244 $149 #
plane-surface $-1 -15.858122393275849 -30.878070482246486 129.65393590506005 0.79863551827123203 0 0.60181501223851219 0.60181501223851219 0 -0.79863551827123203 forward_v I I I I #
loop $-1 $-1 $378 $94 #
coedge $-1 $242 $242 $243 $379 reversed $150 $-1 #
coedge $-1 $243 $243 $242 $379 forward $152 $-1 #
coedge $-1 $244 $244 $153 $245 forward $239 $-1 #
edge $-1 $380 0 $380 6.2831853071796004 $244 $381 forward 7 unknown #
loop $-1 $-1 $251 $154 #
plane-surface $-1 -15.858122393275849 -30.878070482246486 129.65393590506005 0.79863551827123203 0 0.60181501223851219 0.60181501223851219 0 -0.79863551827123203 forward_v I I I I #
loop $-1 $-1 $382 $97 #
coedge $-1 $249 $249 $250 $383 reversed $155 $-1 #
coedge $-1 $250 $250 $249 $383 forward $157 $-1 #
coedge $-1 $251 $251 $158 $252 forward $246 $-1 #
edge $-1 $384 0 $384 6.2831853071796004 $251 $385 forward 7 unknown #
face $-1 $386 $387 $56 $-1 $388 reversed single #
loop $-1 $-1 $389 $159 #
plane-surface $-1 108.53276572736564 21.904001590070934 223.38919077918558 0 1 0 0.79863551827123203 0 0.60181501223851219 forward_v I I I I #
coedge $-1 $390 $391 $392 $393 reversed $160 $-1 #
coedge $-1 $258 $162 $394 $395 reversed $101 $-1 #
coedge $-1 $162 $257 $390 $396 reversed $101 $-1 #
coedge $-1 $392 $397 $162 $260 forward $398 $-1 #
edge $-1 $399 -23.610749617166817 $400 -20.576531999384642 $259 $401 forward 7 unknown #
loop $-1 $-1 $266 $163 #
plane-surface $-1 -15.858122393275849 30.878070482246486 129.65393590506005 0.79863551827123203 0 0.60181501223851219 0.60181501223851219 0 -0.79863551827123203 forward_v I I I I #
loop $-1 $-1 $402 $103 #
coedge $-1 $264 $264 $265 $403 reversed $164 $-1 #
coedge $-1 $265 $265 $264 $403 forward $166 $-1 #
coedge $-1 $266 $266 $167 $267 forward $261 $-1 #
edge $-1 $404 0 $404 6.2831853071796004 $266 $405 forward 7 unknown #
loop $-1 $-1 $273 $168 #
plane-surface $-1 -15.858122393275849 30.878070482246486 129.65393590506005 0.79863551827123203 0 0.60181501223851219 0.60181501223851219 0 -0.79863551827123203 forward_v I I I I #
loop $-1 $-1 $406 $106 #
coedge $-1 $271 $271 $272 $407 reversed $169 $-1 #
coedge $-1 $272 $272 $271 $407 forward $171 $-1 #
coedge $-1 $273 $273 $172 $274 forward $268 $-1 #
edge $-1 $408 0 $408 6.2831853071796004 $273 $409 forward 7 unknown #
loop $-1 $-1 $280 $173 #
plane-surface $-1 -15.858122393275849 30.878070482246486 129.65393590506005 0.79863551827123203 0 0.60181501223851219 0.60181501223851219 0 -0.79863551827123203 forward_v I I I I #
loop $-1 $-1 $410 $109 #
coedge $-1 $278 $278 $279 $411 reversed $174 $-1 #
coedge $-1 $279 $279 $278 $411 forward $176 $-1 #
coedge $-1 $280 $280 $177 $281 forward $275 $-1 #
edge $-1 $412 0 $412 6.2831853071796004 $280 $413 forward 7 unknown #
face $-1 $414 $415 $60 $-1 $416 reversed single #
loop $-1 $-1 $417 $178 #
plane-surface $-1 -202.26802060149117 -21.904001590070934 98.998302658544077 0 -1 0 0.79863551827123203 0 -0.60181501223851219 forward_v I I I I #
coedge $-1 $418 $419 $420 $421 reversed $179 $-1 #
coedge $-1 $287 $181 $422 $423 reversed $113 $-1 #
coedge $-1 $181 $286 $418 $424 reversed $113 $-1 #
coedge $-1 $420 $425 $181 $289 forward $426 $-1 #
edge $-1 $427 23.256877819895948 $428 26.291095437678109 $288 $429 forward 7 unknown #
loop $-1 $-1 $295 $182 #
plane-surface $-1 -77.877132480849681 -30.878070482246486 5.2630477844185606 -0.79863551827123203 0 0.60181501223851219 0.60181501223851219 0 0.79863551827123203 forward_v I I I I #
loop $-1 $-1 $430 $115 #
coedge $-1 $293 $293 $294 $431 reversed $183 $-1 #
coedge $-1 $294 $294 $293 $431 forward $185 $-1 #
coedge $-1 $295 $295 $186 $296 forward $290 $-1 #
edge $-1 $432 0 $432 6.2831853071796004 $295 $433 forward 7 unknown #
loop $-1 $-1 $302 $187 #
plane-surface $-1 -77.877132480849681 -30.878070482246486 5.2630477844185606 -0.79863551827123203 0 0.60181501223851219 0.60181501223851219 0 0.79863551827123203 forward_v I I I I #
loop $-1 $-1 $434 $118 #
coedge $-1 $300 $300 $301 $435 reversed $188 $-1 #
coedge $-1 $301 $301 $300 $435 forward $190 $-1 #
coedge $-1 $302 $302 $191 $303 forward $297 $-1 #
edge $-1 $436 0 $436 6.2831853071796004 $302 $437 forward 7 unknown #
loop $-1 $-1 $309 $192 #
plane-surface $-1 -77.877132480849681 -30.878070482246486 5.2630477844185606 -0.79863551827123203 0 0.60181501223851219 0.60181501223851219 0 0.79863551827123203 forward_v I I I I #
loop $-1 $-1 $438 $121 #
coedge $-1 $307 $307 $308 $439 reversed $193 $-1 #
coedge $-1 $308 $308 $307 $439 forward $195 $-1 #
coedge $-1 $309 $309 $196 $310 forward $304 $-1 #
edge $-1 $440 0 $440 6.2831853071796004 $309 $441 forward 7 unknown #
face $-1 $442 $443 $64 $-1 $444 forward single #
loop $-1 $-1 $445 $197 #
plane-surface $-1 -202.26802060149117 39.852139374422038 98.998302658544077 0 -1 0 0.79863551827123203 0 -0.60181501223851219 forward_v I I I I #
coedge $-1 $446 $447 $448 $449 reversed $198 $-1 #
coedge $-1 $316 $200 $450 $451 reversed $125 $-1 #
coedge $-1 $200 $315 $446 $452 reversed $125 $-1 #
coedge $-1 $448 $453 $200 $318 forward $443 $-1 #
edge $-1 $454 23.256877819895948 $455 26.291095437678109 $317 $456 forward 7 unknown #
loop $-1 $-1 $324 $201 #
plane-surface $-1 -77.877132480849681 30.878070482246486 5.2630477844185606 -0.79863551827123203 0 0.60181501223851219 0.60181501223851219 0 0.79863551827123203 forward_v I I I I #
loop $-1 $-1 $457 $127 #
coedge $-1 $322 $322 $323 $458 reversed $202 $-1 #
coedge $-1 $323 $323 $322 $458 forward $204 $-1 #
coedge $-1 $324 $324 $205 $325 forward $319 $-1 #
edge $-1 $459 0 $459 6.2831853071796004 $324 $460 forward 7 unknown #
loop $-1 $-1 $331 $206 #
plane-surface $-1 -77.877132480849681 30.878070482246486 5.2630477844185606 -0.79863551827123203 0 0.60181501223851219 0.60181501223851219 0 0.79863551827123203 forward_v I I I I #
loop $-1 $-1 $461 $130 #
coedge $-1 $329 $329 $330 $462 reversed $207 $-1 #
coedge $-1 $330 $330 $329 $462 forward $209 $-1 #
coedge $-1 $331 $331 $210 $332 forward $326 $-1 #
edge $-1 $463 0 $463 6.2831853071796004 $331 $464 forward 7 unknown #
loop $-1 $-1 $338 $211 #
plane-surface $-1 -77.877132480849681 30.878070482246486 5.2630477844185606 -0.79863551827123203 0 0.60181501223851219 0.60181501223851219 0 0.79863551827123203 forward_v I I I I #
loop $-1 $-1 $465 $133 #
coedge $-1 $336 $336 $337 $466 reversed $212 $-1 #
coedge $-1 $337 $337 $336 $466 forward $214 $-1 #
coedge $-1 $338 $338 $215 $339 forward $333 $-1 #
edge $-1 $467 0 $467 6.2831853071796004 $338 $468 forward 7 unknown #
face $-1 $469 $470 $51 $-1 $471 reversed single #
loop $-1 $-1 $472 $216 #
plane-surface $-1 -77.877132480849639 0 0 1 0 0 0 0 -1 forward_v I I I I #
coedge $-1 $473 $351 $474 $475 forward $217 $-1 #
coedge $-1 $476 $219 $473 $477 forward $137 $-1 #
coedge $-1 $219 $476 $478 $479 forward $137 $-1 #
coedge $-1 $354 $353 $219 $347 reversed $355 $-1 #
edge $-1 $480 -42.607468776839127 $481 42.607468776839127 $346 $482 forward 7 unknown #
coedge $-1 $221 $220 $483 $484 forward $86 $-1 #
coedge $-1 $485 $486 $220 $350 reversed $470 $-1 #
edge $-1 $357 -77.877132480849639 $487 77.877132480849639 $349 $488 forward 7 unknown #
coedge $-1 $343 $489 $221 $352 reversed $217 $-1 #
edge $-1 $490 -77.877132480849639 $356 77.877132480849639 $351 $491 forward 7 unknown #
coedge $-1 $346 $222 $489 $492 forward $355 $-1 #
coedge $-1 $222 $346 $485 $493 reversed $355 $-1 #
loop $-1 $-1 $353 $469 #
vertex $-1 $223 $494 #
vertex $-1 $223 $495 #
straight-curve $-1 77.877132480849639 0 9.2895906762479452 0 1 0 I I #
face $-1 $-1 $496 $52 $-1 $497 reversed single #
loop $-1 $-1 $230 $224 #
plane-surface $-1 0 0 9.2895906762479452 0 0 1 1 0 0 forward_v I I I I #
coedge $-1 $498 $499 $500 $501 reversed $225 $-1 #
coedge $-1 $502 $227 $229 $369 forward $141 $-1 #
coedge $-1 $227 $502 $498 $503 forward $141 $-1 #
coedge $-1 $500 $230 $227 $366 forward $360 $-1 #
edge $-1 $372 6.4649663489476907 $504 24.413104133298795 $365 $505 forward 7 unknown #
coedge $-1 $506 $507 $228 $368 forward $496 $-1 #
edge $-1 $508 -106.43154760517419 $371 -102.40500471334485 $367 $509 forward 7 unknown #
edge $-1 $372 150.71248707966186 $508 155.75426496169922 $229 $510 forward 7 unknown #
coedge $-1 $230 $500 $506 $511 forward $360 $-1 #
vertex $-1 $368 $512 #
vertex $-1 $231 $513 #
straight-curve $-1 54.266382863682821 -21.904001590070934 9.2895906762479399 -1 0 0 I I #
coedge $-1 $374 $374 $-1 $514 reversed $234 $-1 #
edge $-1 $515 0 $515 6.2831853071796004 $235 $516 forward 7 unknown #
vertex $-1 $238 $517 #
ellipse-curve $-1 76.360023671958558 -36.262511817551818 7.27631923033326 0.79863551827123203 0 0.60181501223851219 0.60181501223851219 0 -0.79863551827123203 1 I I #
coedge $-1 $378 $378 $-1 $518 reversed $241 $-1 #
edge $-1 $519 0 $519 6.2831853071796004 $242 $520 forward 7 unknown #
vertex $-1 $245 $521 #
ellipse-curve $-1 76.360023671958558 -30.878070482246486 7.27631923033326 0.79863551827123203 0 0.60181501223851219 0.60181501223851219 0 -0.79863551827123203 1 I I #
coedge $-1 $382 $382 $-1 $522 reversed $248 $-1 #
edge $-1 $523 0 $523 6.2831853071796004 $249 $524 forward 7 unknown #
vertex $-1 $252 $525 #
ellipse-curve $-1 76.360023671958558 -25.493629146941153 7.27631923033326 0.79863551827123203 0 0.60181501223851219 0.60181501223851219 0 -0.79863551827123203 1 I I #
face $-1 $-1 $398 $56 $-1 $526 forward single #
loop $-1 $-1 $527 $253 #
plane-surface $-1 77.877132480849639 0 0 -1 0 0 0 0 1 forward_v I I I I #
coedge $-1 $528 $529 $530 $531 reversed $254 $-1 #
coedge $-1 $532 $256 $258 $396 forward $160 $-1 #
coedge $-1 $256 $532 $528 $533 forward $160 $-1 #
coedge $-1 $530 $259 $256 $393 forward $398 $-1 #
edge $-1 $400 -24.413104133298795 $534 -6.4649663489476907 $392 $535 forward 7 unknown #
coedge $-1 $536 $537 $257 $395 forward $387 $-1 #
edge $-1 $538 -106.43154760517419 $399 -102.40500471334485 $394 $539 forward 7 unknown #
edge $-1 $400 150.71248707966186 $538 155.75426496169922 $258 $540 forward 7 unknown #
coedge $-1 $259 $530 $536 $541 forward $398 $-1 #
loop $-1 $-1 $530 $386 #
vertex $-1 $395 $542 #
vertex $-1 $260 $543 #
straight-curve $-1 54.266382863682821 39.852139374422038 9.2895906762479399 -1 0 0 I I #
coedge $-1 $402 $402 $-1 $544 reversed $263 $-1 #
edge $-1 $545 0 $545 6.2831853071796004 $264 $546 forward 7 unknown #
vertex $-1 $267 $547 #
ellipse-curve $-1 76.360023671958558 25.49362914694116 7.27631923033326 0.79863551827123203 0 0.60181501223851219 0.60181501223851219 0 -0.79863551827123203 1 I I #
coedge $-1 $406 $406 $-1 $548 reversed $270 $-1 #
edge $-1 $549 0 $549 6.2831853071796004 $271 $550 forward 7 unknown #
vertex $-1 $274 $551 #
ellipse-curve $-1 76.360023671958558 30.878070482246486 7.27631923033326 0.79863551827123203 0 0.60181501223851219 0.60181501223851219 0 -0.79863551827123203 1 I I #
coedge $-1 $410 $410 $-1 $552 reversed $277 $-1 #
edge $-1 $553 0 $553 6.2831853071796004 $278 $554 forward 7 unknown #
vertex $-1 $281 $555 #
ellipse-curve $-1 76.360023671958558 36.262511817551825 7.27631923033326 0.79863551827123203 0 0.60181501223851219 0.60181501223851219 0 -0.79863551827123203 1 I I #
face $-1 $-1 $426 $60 $-1 $556 forward single #
loop $-1 $-1 $557 $282 #
plane-surface $-1 -77.877132480849639 0 0 1 0 0 0 0 -1 forward_v I I I I #
coedge $-1 $558 $559 $560 $561 reversed $283 $-1 #
coedge $-1 $562 $285 $287 $424 forward $179 $-1 #
coedge $-1 $285 $562 $558 $563 forward $179 $-1 #
coedge $-1 $560 $288 $285 $421 forward $426 $-1 #
edge $-1 $428 -24.413104133298795 $564 -6.4649663489476907 $420 $565 forward 7 unknown #
coedge $-1 $566 $567 $286 $423 forward $415 $-1 #
edge $-1 $568 -44.236103544853421 $427 -40.209560653024091 $422 $569 forward 7 unknown #
edge $-1 $428 -5.0417778820374126 $568 -7.1054090395257172e-014 $287 $570 forward 7 unknown #
coedge $-1 $288 $560 $566 $571 forward $426 $-1 #
loop $-1 $-1 $560 $414 #
vertex $-1 $423 $572 #
vertex $-1 $289 $573 #
straight-curve $-1 -101.13401030074559 -39.852139374422038 9.289590676247947 1 0 0 I I #
coedge $-1 $430 $430 $-1 $574 reversed $292 $-1 #
edge $-1 $575 0 $575 6.2831853071796004 $293 $576 forward 7 unknown #
vertex $-1 $296 $577 #
ellipse-curve $-1 -76.360023671958558 -36.262511817551818 7.276319230333276 -0.79863551827123203 0 0.60181501223851219 0.60181501223851219 0 0.79863551827123203 1 I I #
coedge $-1 $434 $434 $-1 $578 reversed $299 $-1 #
edge $-1 $579 0 $579 6.2831853071796004 $300 $580 forward 7 unknown #
vertex $-1 $303 $581 #
ellipse-curve $-1 -76.360023671958558 -30.878070482246486 7.276319230333276 -0.79863551827123203 0 0.60181501223851219 0.60181501223851219 0 0.79863551827123203 1 I I #
coedge $-1 $438 $438 $-1 $582 reversed $306 $-1 #
edge $-1 $583 0 $583 6.2831853071796004 $307 $584 forward 7 unknown #
vertex $-1 $310 $585 #
ellipse-curve $-1 -76.360023671958558 -25.493629146941153 7.276319230333276 -0.79863551827123203 0 0.60181501223851219 0.60181501223851219 0 0.79863551827123203 1 I I #
face $-1 $-1 $586 $64 $-1 $587 reversed single #
loop $-1 $-1 $317 $311 #
plane-surface $-1 0 0 9.2895906762479452 0 0 1 1 0 0 forward_v I I I I #
coedge $-1 $588 $589 $590 $591 reversed $312 $-1 #
coedge $-1 $592 $314 $316 $452 forward $198 $-1 #
coedge $-1 $314 $592 $588 $593 forward $198 $-1 #
coedge $-1 $590 $317 $314 $449 forward $443 $-1 #
edge $-1 $455 6.4649663489476907 $594 24.413104133298795 $448 $595 forward 7 unknown #
coedge $-1 $596 $597 $315 $451 forward $586 $-1 #
edge $-1 $598 -44.236103544853421 $454 -40.209560653024091 $450 $599 forward 7 unknown #
edge $-1 $455 -5.0417778820374126 $598 -7.1054090395257172e-014 $316 $600 forward 7 unknown #
coedge $-1 $317 $590 $596 $601 forward $443 $-1 #
vertex $-1 $318 $602 #
vertex $-1 $318 $603 #
straight-curve $-1 -101.13401030074559 21.904001590070934 9.289590676247947 1 0 0 I I #
coedge $-1 $457 $457 $-1 $604 reversed $321 $-1 #
edge $-1 $605 0 $605 6.2831853071796004 $322 $606 forward 7 unknown #
vertex $-1 $325 $607 #
ellipse-curve $-1 -76.360023671958558 25.49362914694116 7.276319230333276 -0.79863551827123203 0 0.60181501223851219 0.60181501223851219 0 0.79863551827123203 1 I I #
coedge $-1 $461 $461 $-1 $608 reversed $328 $-1 #
edge $-1 $609 0 $609 6.2831853071796004 $329 $610 forward 7 unknown #
vertex $-1 $332 $611 #
ellipse-curve $-1 -76.360023671958558 30.878070482246486 7.276319230333276 -0.79863551827123203 0 0.60181501223851219 0.60181501223851219 0 0.79863551827123203 1 I I #
coedge $-1 $465 $465 $-1 $612 reversed $335 $-1 #
edge $-1 $613 0 $613 6.2831853071796004 $336 $614 forward 7 unknown #
vertex $-1 $339 $615 #
ellipse-curve $-1 -76.360023671958558 36.262511817551825 7.276319230333276 -0.79863551827123203 0 0.60181501223851219 0.60181501223851219 0 0.79863551827123203 1 I I #
face $-1 $-1 $355 $51 $-1 $616 reversed single #
loop $-1 $-1 $485 $340 #
plane-surface $-1 0 42.607468776839127 0 0 -1 0 0 0 -1 forward_v I I I I #
coedge $-1 $617 $483 $486 $618 forward $341 $-1 #
coedge $-1 $489 $343 $344 $477 reversed $217 $-1 #
coedge $-1 $483 $617 $343 $475 reversed $341 $-1 #
edge $-1 $490 -9.2895906762479452 $619 9.2895906762479452 $474 $620 forward 7 unknown #
coedge $-1 $345 $344 $617 $621 forward $137 $-1 #
edge $-1 $481 -77.877132480849639 $619 77.877132480849639 $473 $622 forward 7 unknown #
coedge $-1 $486 $485 $345 $479 reversed $470 $-1 #
edge $-1 $623 -77.877132480849639 $480 77.877132480849639 $478 $624 forward 7 unknown #
vertex $-1 $347 $625 #
vertex $-1 $492 $626 #
straight-curve $-1 77.877132480849639 0 -9.2895906762479452 0 -1 0 I I #
coedge $-1 $472 $474 $348 $484 reversed $341 $-1 #
edge $-1 $487 -42.607468776839127 $490 42.607468776839127 $483 $627 forward 7 unknown #
coedge $-1 $478 $349 $354 $493 forward $470 $-1 #
coedge $-1 $349 $478 $472 $618 reversed $470 $-1 #
vertex $-1 $350 $628 #
straight-curve $-1 0 42.607468776839127 9.2895906762479452 -1 0 0 I I #
coedge $-1 $351 $473 $353 $492 reversed $217 $-1 #
vertex $-1 $484 $629 #
straight-curve $-1 0 -42.607468776839127 9.2895906762479452 1 0 0 I I #
edge $-1 $356 -9.2895906762479452 $481 9.2895906762479452 $353 $630 forward 7 unknown #
edge $-1 $357 -9.2895906762479452 $480 9.2895906762479452 $354 $631 forward 7 unknown #
point $-1 77.877132480849639 -42.607468776839127 9.2895906762479452 #
point $-1 77.877132480849639 42.607468776839127 9.2895906762479452 #
loop $-1 $-1 $367 $359 #
plane-surface $-1 77.877132480849639 0 0 -1 0 0 0 0 1 forward_v I I I I #
coedge $-1 $499 $362 $364 $503 reversed $225 $-1 #
coedge $-1 $362 $498 $632 $633 reversed $225 $-1 #
coedge $-1 $370 $365 $362 $501 forward $360 $-1 #
edge $-1 $504 20.576531999384642 $634 23.610749617166817 $500 $635 forward 7 unknown #
coedge $-1 $364 $363 $507 $636 reversed $141 $-1 #
edge $-1 $637 -155.75426496169922 $504 -150.71248707966186 $498 $638 forward 7 unknown #
vertex $-1 $366 $639 #
straight-curve $-1 74.842914863067449 -15.439035241123243 9.2895906762479399 0 -1 0 I I #
coedge $-1 $632 $367 $370 $511 reversed $496 $-1 #
coedge $-1 $367 $632 $502 $636 forward $496 $-1 #
vertex $-1 $368 $640 #
straight-curve $-1 77.877132480849639 -21.904001590070934 111.69459538959279 0 0 1 I I #
straight-curve $-1 -15.858122393275849 -21.904001590070934 129.65393590506005 0.60181501223851219 0 -0.79863551827123203 I I #
edge $-1 $634 -39.852139374422038 $371 -21.904001590070934 $506 $641 forward 7 unknown #
point $-1 77.877132480849639 -21.904001590070934 9.2895906762479452 #
point $-1 74.842914863067463 -21.904001590070934 9.2895906762479399 #
edge $-1 $642 1 $642 0 $374 $-1 forward 7 unknown #
vertex $-1 $375 $643 #
ellipse-curve $-1 73.598202781508206 -36.262511817551818 5.1951379718477346 0.79863551827123203 0 0.60181501223851219 0.60181501223851219 0 -0.79863551827123203 1 I I #
point $-1 76.961838684197062 -36.262511817551818 6.4776837120620154 #
edge $-1 $644 1 $644 0 $378 $-1 forward 7 unknown #
vertex $-1 $379 $645 #
ellipse-curve $-1 73.598202781508206 -30.878070482246486 5.1951379718477346 0.79863551827123203 0 0.60181501223851219 0.60181501223851219 0 -0.79863551827123203 1 I I #
point $-1 76.961838684197062 -30.878070482246486 6.4776837120620154 #
edge $-1 $646 1 $646 0 $382 $-1 forward 7 unknown #
vertex $-1 $383 $647 #
ellipse-curve $-1 73.598202781508206 -25.493629146941153 5.1951379718477346 0.79863551827123203 0 0.60181501223851219 0.60181501223851219 0 -0.79863551827123203 1 I I #
point $-1 76.961838684197062 -25.493629146941153 6.4776837120620154 #
plane-surface $-1 0 0 9.2895906762479452 0 0 1 1 0 0 forward_v I I I I #
coedge $-1 $537 $536 $529 $648 forward $387 $-1 #
coedge $-1 $529 $389 $391 $533 reversed $254 $-1 #
coedge $-1 $389 $528 $527 $648 reversed $254 $-1 #
coedge $-1 $397 $392 $389 $531 forward $398 $-1 #
edge $-1 $534 20.576531999384642 $649 23.610749617166817 $530 $650 forward 7 unknown #
coedge $-1 $391 $390 $537 $651 reversed $160 $-1 #
edge $-1 $652 -155.75426496169922 $534 -150.71248707966186 $528 $653 forward 7 unknown #
vertex $-1 $393 $654 #
straight-curve $-1 74.842914863067449 15.439035241123243 9.2895906762479399 0 -1 0 I I #
coedge $-1 $527 $394 $397 $541 reversed $387 $-1 #
coedge $-1 $394 $527 $532 $651 forward $387 $-1 #
vertex $-1 $395 $655 #
straight-curve $-1 77.877132480849639 39.852139374422038 111.69459538959279 0 0 1 I I #
straight-curve $-1 -15.858122393275849 39.852139374422038 129.65393590506005 0.60181501223851219 0 -0.79863551827123203 I I #
edge $-1 $649 21.904001590070934 $399 39.852139374422038 $536 $656 forward 7 unknown #
point $-1 77.877132480849639 39.852139374422038 9.2895906762479452 #
point $-1 74.842914863067463 39.852139374422038 9.2895906762479399 #
edge $-1 $657 1 $657 0 $402 $-1 forward 7 unknown #
vertex $-1 $403 $658 #
ellipse-curve $-1 73.598202781508206 25.49362914694116 5.1951379718477346 0.79863551827123203 0 0.60181501223851219 0.60181501223851219 0 -0.79863551827123203 1 I I #
point $-1 76.961838684197062 25.49362914694116 6.4776837120620154 #
edge $-1 $659 1 $659 0 $406 $-1 forward 7 unknown #
vertex $-1 $407 $660 #
ellipse-curve $-1 73.598202781508206 30.878070482246486 5.1951379718477346 0.79863551827123203 0 0.60181501223851219 0.60181501223851219 0 -0.79863551827123203 1 I I #
point $-1 76.961838684197062 30.878070482246486 6.4776837120620154 #
edge $-1 $661 1 $661 0 $410 $-1 forward 7 unknown #
vertex $-1 $411 $662 #
ellipse-curve $-1 73.598202781508206 36.262511817551825 5.1951379718477346 0.79863551827123203 0 0.60181501223851219 0.60181501223851219 0 -0.79863551827123203 1 I I #
point $-1 76.961838684197062 36.262511817551825 6.4776837120620154 #
plane-surface $-1 0 0 9.2895906762479452 0 0 1 1 0 0 forward_v I I I I #
coedge $-1 $567 $566 $559 $663 forward $415 $-1 #
coedge $-1 $559 $417 $419 $563 reversed $283 $-1 #
coedge $-1 $417 $558 $557 $663 reversed $283 $-1 #
coedge $-1 $425 $420 $417 $561 forward $426 $-1 #
edge $-1 $564 -26.291095437678109 $664 -23.256877819895948 $560 $665 forward 7 unknown #
coedge $-1 $419 $418 $567 $666 reversed $179 $-1 #
edge $-1 $667 7.1054090395257172e-014 $564 5.0417778820374126 $558 $668 forward 7 unknown #
vertex $-1 $421 $669 #
straight-curve $-1 -74.842914863067477 -15.439035241123243 9.2895906762479452 0 1 0 I I #
coedge $-1 $557 $422 $425 $571 reversed $415 $-1 #
coedge $-1 $422 $557 $562 $666 forward $415 $-1 #
vertex $-1 $423 $670 #
straight-curve $-1 -77.877132480849639 -39.852139374422038 49.499151329272038 0 0 1 I I #
straight-curve $-1 -77.877132480849681 -39.852139374422038 5.2630477844185606 -0.60181501223851219 0 -0.79863551827123203 I I #
edge $-1 $664 21.904001590070934 $427 39.852139374422038 $566 $671 forward 7 unknown #
point $-1 -77.877132480849639 -39.852139374422038 9.2895906762479452 #
point $-1 -74.842914863067477 -39.852139374422038 9.2895906762479452 #
edge $-1 $672 1 $672 0 $430 $-1 forward 7 unknown #
vertex $-1 $431 $673 #
ellipse-curve $-1 -73.598202781508178 -36.262511817551818 5.1951379718477311 -0.79863551827123203 0 0.60181501223851219 0.60181501223851219 0 0.79863551827123203 1 I I #
point $-1 -75.758208659720012 -36.262511817551818 8.0749547486044762 #
edge $-1 $674 1 $674 0 $434 $-1 forward 7 unknown #
vertex $-1 $435 $675 #
ellipse-curve $-1 -73.598202781508178 -30.878070482246486 5.1951379718477311 -0.79863551827123203 0 0.60181501223851219 0.60181501223851219 0 0.79863551827123203 1 I I #
point $-1 -75.758208659720012 -30.878070482246486 8.0749547486044762 #
edge $-1 $676 1 $676 0 $438 $-1 forward 7 unknown #
vertex $-1 $439 $677 #
ellipse-curve $-1 -73.598202781508178 -25.493629146941153 5.1951379718477311 -0.79863551827123203 0 0.60181501223851219 0.60181501223851219 0 0.79863551827123203 1 I I #
point $-1 -75.758208659720012 -25.493629146941153 8.0749547486044762 #
loop $-1 $-1 $450 $442 #
plane-surface $-1 -77.877132480849639 0 0 1 0 0 0 0 -1 forward_v I I I I #
coedge $-1 $589 $445 $447 $593 reversed $312 $-1 #
coedge $-1 $445 $588 $678 $679 reversed $312 $-1 #
coedge $-1 $453 $448 $445 $591 forward $443 $-1 #
edge $-1 $594 -26.291095437678109 $680 -23.256877819895948 $590 $681 forward 7 unknown #
coedge $-1 $447 $446 $597 $682 reversed $198 $-1 #
edge $-1 $683 7.1054090395257172e-014 $594 5.0417778820374126 $588 $684 forward 7 unknown #
vertex $-1 $449 $685 #
straight-curve $-1 -74.842914863067477 15.439035241123243 9.2895906762479452 0 1 0 I I #
coedge $-1 $678 $450 $453 $601 reversed $586 $-1 #
coedge $-1 $450 $678 $592 $682 forward $586 $-1 #
vertex $-1 $451 $686 #
straight-curve $-1 -77.877132480849639 21.904001590070934 49.499151329272038 0 0 1 I I #
straight-curve $-1 -77.877132480849681 21.904001590070934 5.2630477844185606 -0.60181501223851219 0 -0.79863551827123203 I I #
edge $-1 $680 -39.852139374422038 $454 -21.904001590070934 $596 $687 forward 7 unknown #
point $-1 -77.877132480849639 21.904001590070934 9.2895906762479452 #
point $-1 -74.842914863067477 21.904001590070934 9.2895906762479452 #
edge $-1 $688 1 $688 0 $457 $-1 forward 7 unknown #
vertex $-1 $458 $689 #
ellipse-curve $-1 -73.598202781508178 25.49362914694116 5.1951379718477311 -0.79863551827123203 0 0.60181501223851219 0.60181501223851219 0 0.79863551827123203 1 I I #
point $-1 -75.758208659720012 25.49362914694116 8.0749547486044762 #
edge $-1 $690 1 $690 0 $461 $-1 forward 7 unknown #
vertex $-1 $462 $691 #
ellipse-curve $-1 -73.598202781508178 30.878070482246486 5.1951379718477311 -0.79863551827123203 0 0.60181501223851219 0.60181501223851219 0 0.79863551827123203 1 I I #
point $-1 -75.758208659720012 30.878070482246486 8.0749547486044762 #
edge $-1 $692 1 $692 0 $465 $-1 forward 7 unknown #
vertex $-1 $466 $693 #
ellipse-curve $-1 -73.598202781508178 36.262511817551825 5.1951379718477311 -0.79863551827123203 0 0.60181501223851219 0.60181501223851219 0 0.79863551827123203 1 I I #
point $-1 -75.758208659720012 36.262511817551825 8.0749547486044762 #
plane-surface $-1 77.877132480849639 0 0 -1 0 0 0 0 1 forward_v I I I I #
coedge $-1 $474 $472 $476 $621 reversed $341 $-1 #
edge $-1 $487 -9.2895906762479452 $623 9.2895906762479452 $486 $694 forward 7 unknown #
vertex $-1 $621 $695 #
straight-curve $-1 -77.877132480849639 -42.607468776839127 0 0 0 -1 I I #
edge $-1 $619 -42.607468776839127 $623 42.607468776839127 $617 $696 forward 7 unknown #
straight-curve $-1 0 -42.607468776839127 -9.2895906762479452 -1 0 0 I I #
vertex $-1 $479 $697 #
straight-curve $-1 0 42.607468776839127 -9.2895906762479452 1 0 0 I I #
point $-1 77.877132480849639 42.607468776839127 -9.2895906762479452 #
point $-1 77.877132480849639 -42.607468776839127 -9.2895906762479452 #
straight-curve $-1 -77.877132480849639 0 9.2895906762479452 0 -1 0 I I #
point $-1 -77.877132480849639 42.607468776839127 9.2895906762479452 #
point $-1 -77.877132480849639 -42.607468776839127 9.2895906762479452 #
straight-curve $-1 77.877132480849639 -42.607468776839127 0 0 0 -1 I I #
straight-curve $-1 77.877132480849639 42.607468776839127 0 0 0 -1 I I #
coedge $-1 $507 $506 $499 $633 forward $496 $-1 #
edge $-1 $634 102.40500471334485 $637 106.43154760517419 $632 $698 forward 7 unknown #
vertex $-1 $511 $699 #
straight-curve $-1 54.266382863682821 -39.852139374422038 9.2895906762479399 1 0 0 I I #
edge $-1 $637 -24.413104133298795 $508 -6.4649663489476907 $507 $700 forward 7 unknown #
vertex $-1 $636 $701 #
straight-curve $-1 -15.858122393275849 -39.852139374422038 129.65393590506005 -0.60181501223851219 0 0.79863551827123203 I I #
point $-1 74.842914863067463 -39.852139374422038 9.2895906762479399 #
point $-1 77.877132480849639 -21.904001590070934 5.2630477844186032 #
straight-curve $-1 77.877132480849639 0 9.2895906762479452 0 1 0 I I #
vertex $-1 $514 $702 #
point $-1 74.200017793746724 -36.262511817551818 4.3965024535765025 #
vertex $-1 $518 $703 #
point $-1 74.200017793746724 -30.878070482246486 4.3965024535765025 #
vertex $-1 $522 $704 #
point $-1 74.200017793746724 -25.493629146941153 4.3965024535765025 #
edge $-1 $649 102.40500471334485 $652 106.43154760517419 $527 $705 forward 7 unknown #
vertex $-1 $541 $706 #
straight-curve $-1 54.266382863682821 21.904001590070934 9.2895906762479399 1 0 0 I I #
edge $-1 $652 6.4649663489476907 $538 24.413104133298795 $537 $707 forward 7 unknown #
vertex $-1 $651 $708 #
straight-curve $-1 -15.858122393275849 21.904001590070934 129.65393590506005 -0.60181501223851219 0 0.79863551827123203 I I #
point $-1 74.842914863067463 21.904001590070934 9.2895906762479399 #
point $-1 77.877132480849639 39.852139374422038 5.2630477844186032 #
straight-curve $-1 77.877132480849639 0 9.2895906762479452 0 1 0 I I #
vertex $-1 $544 $709 #
point $-1 74.200017793746724 25.49362914694116 4.3965024535765025 #
vertex $-1 $548 $710 #
point $-1 74.200017793746724 30.878070482246486 4.3965024535765025 #
vertex $-1 $552 $711 #
point $-1 74.200017793746724 36.262511817551825 4.3965024535765025 #
edge $-1 $664 40.209560653024091 $667 44.236103544853421 $557 $712 forward 7 unknown #
vertex $-1 $571 $713 #
straight-curve $-1 -101.13401030074559 -21.904001590070934 9.289590676247947 -1 0 0 I I #
edge $-1 $667 6.4649663489476907 $568 24.413104133298795 $567 $714 forward 7 unknown #
vertex $-1 $666 $715 #
straight-curve $-1 -77.877132480849681 -21.904001590070934 5.2630477844185606 0.60181501223851219 0 0.79863551827123203 I I #
point $-1 -74.842914863067477 -21.904001590070934 9.2895906762479452 #
point $-1 -77.877132480849639 -39.852139374422038 5.2630477844186174 #
straight-curve $-1 -77.877132480849639 0 9.2895906762479452 0 -1 0 I I #
vertex $-1 $574 $716 #
point $-1 -72.996387769269674 -36.262511817551818 5.9937734901189632 #
vertex $-1 $578 $717 #
point $-1 -72.996387769269674 -30.878070482246486 5.9937734901189632 #
vertex $-1 $582 $718 #
point $-1 -72.996387769269674 -25.493629146941153 5.9937734901189632 #
coedge $-1 $597 $596 $589 $679 forward $586 $-1 #
edge $-1 $680 40.209560653024091 $683 44.236103544853421 $678 $719 forward 7 unknown #
vertex $-1 $601 $720 #
straight-curve $-1 -101.13401030074559 39.852139374422038 9.289590676247947 -1 0 0 I I #
edge $-1 $683 -24.413104133298795 $598 -6.4649663489476907 $597 $721 forward 7 unknown #
vertex $-1 $682 $722 #
straight-curve $-1 -77.877132480849681 39.852139374422038 5.2630477844185606 0.60181501223851219 0 0.79863551827123203 I I #
point $-1 -74.842914863067477 39.852139374422038 9.2895906762479452 #
point $-1 -77.877132480849639 21.904001590070934 5.2630477844186174 #
straight-curve $-1 -77.877132480849639 0 9.2895906762479452 0 -1 0 I I #
vertex $-1 $604 $723 #
point $-1 -72.996387769269674 25.49362914694116 5.9937734901189632 #
vertex $-1 $608 $724 #
point $-1 -72.996387769269674 30.878070482246486 5.9937734901189632 #
vertex $-1 $612 $725 #
point $-1 -72.996387769269674 36.262511817551825 5.9937734901189632 #
straight-curve $-1 -77.877132480849639 42.607468776839127 0 0 0 -1 I I #
point $-1 -77.877132480849639 -42.607468776839127 -9.2895906762479452 #
straight-curve $-1 -77.877132480849639 0 -9.2895906762479452 0 1 0 I I #
point $-1 -77.877132480849639 42.607468776839127 -9.2895906762479452 #
straight-curve $-1 77.877132480849639 -39.852139374422038 111.69459538959279 0 0 -1 I I #
point $-1 77.877132480849639 -39.852139374422038 9.2895906762479452 #
straight-curve $-1 77.877132480849639 -15.439035241123243 5.2630477844185961 0 1 0 I I #
point $-1 77.877132480849639 -39.852139374422038 5.2630477844186032 #
point $-1 72.79956726323698 -36.262511817551818 4.593322959609222 #
point $-1 72.79956726323698 -30.878070482246486 4.593322959609222 #
point $-1 72.79956726323698 -25.493629146941153 4.593322959609222 #
straight-curve $-1 77.877132480849639 21.904001590070934 111.69459538959279 0 0 -1 I I #
point $-1 77.877132480849639 21.904001590070934 9.2895906762479452 #
straight-curve $-1 77.877132480849639 15.439035241123243 5.2630477844185961 0 1 0 I I #
point $-1 77.877132480849639 21.904001590070934 5.2630477844186032 #
point $-1 72.79956726323698 25.49362914694116 4.593322959609222 #
point $-1 72.79956726323698 30.878070482246486 4.593322959609222 #
point $-1 72.79956726323698 36.262511817551825 4.593322959609222 #
straight-curve $-1 -77.877132480849639 -21.904001590070934 49.499151329272038 0 0 -1 I I #
point $-1 -77.877132480849639 -21.904001590070934 9.2895906762479452 #
straight-curve $-1 -77.877132480849639 -15.439035241123243 5.2630477844186219 0 -1 0 I I #
point $-1 -77.877132480849639 -21.904001590070934 5.2630477844186174 #
point $-1 -72.799567263236952 -36.262511817551818 4.5933229596092184 #
point $-1 -72.799567263236952 -30.878070482246486 4.5933229596092184 #
point $-1 -72.799567263236952 -25.493629146941153 4.5933229596092184 #
straight-curve $-1 -77.877132480849639 39.852139374422038 49.499151329272038 0 0 -1 I I #
point $-1 -77.877132480849639 39.852139374422038 9.2895906762479452 #
straight-curve $-1 -77.877132480849639 15.439035241123243 5.2630477844186219 0 -1 0 I I #
point $-1 -77.877132480849639 39.852139374422038 5.2630477844186174 #
point $-1 -72.799567263236952 25.49362914694116 4.5933229596092184 #
point $-1 -72.799567263236952 30.878070482246486 4.5933229596092184 #
point $-1 -72.799567263236952 36.262511817551825 4.5933229596092184 #
End-of-ACIS-data 