500 0 11 0           
7 Unknown 11 ACIS 5.0 NT 24 Thu Mar 25 22:27:57 1999 
-1 9.9999999999999995e-007 1e-010 
body $-1 $11 $-1 $12 #
body $-1 $13 $-1 $14 #
body $-1 $15 $-1 $16 #
body $-1 $17 $-1 $18 #
body $-1 $19 $-1 $20 #
body $-1 $21 $-1 $22 #
body $-1 $23 $-1 $24 #
body $-1 $25 $-1 $26 #
body $-1 $27 $-1 $28 #
body $-1 $29 $-1 $30 #
body $-1 $31 $-1 $32 #
lump $-1 $-1 $33 $0 #
transform $-1 1 0 0 0 1 0 0 0 1 54.248481704153569 28.996042769088294 11.511960813847669 1 rotate no_reflect no_shear #
lump $-1 $-1 $34 $1 #
transform $-1 1 0 0 0 1 0 0 0 1 54.248481704153569 28.996042769088294 11.511960813847669 1 rotate no_reflect no_shear #
lump $-1 $-1 $35 $2 #
transform $-1 1 0 0 0 1 0 0 0 1 54.248481704153569 28.996042769088294 11.511960813847669 1 rotate no_reflect no_shear #
lump $-1 $-1 $36 $3 #
transform $-1 1 0 0 0 1 0 0 0 1 54.248481704153569 28.996042769088294 11.511960813847669 1 rotate no_reflect no_shear #
lump $-1 $-1 $37 $4 #
transform $-1 1 0 0 0 1 0 0 0 1 54.248481704153569 28.996042769088294 11.511960813847669 1 rotate no_reflect no_shear #
lump $-1 $-1 $38 $5 #
transform $-1 1 0 0 0 1 0 0 0 1 54.248481704153569 28.996042769088294 11.511960813847669 1 rotate no_reflect no_shear #
lump $-1 $-1 $39 $6 #
transform $-1 1 0 0 0 1 0 0 0 1 54.248481704153569 28.996042769088294 11.511960813847669 1 rotate no_reflect no_shear #
lump $-1 $-1 $40 $7 #
transform $-1 1 0 0 0 1 0 0 0 1 54.248481704153569 28.996042769088294 11.511960813847669 1 rotate no_reflect no_shear #
lump $-1 $-1 $41 $8 #
transform $-1 1 0 0 0 1 0 0 0 1 54.248481704153569 28.996042769088294 11.511960813847669 1 rotate no_reflect no_shear #
lump $-1 $-1 $42 $9 #
transform $-1 1 0 0 0 1 0 0 0 1 54.248481704153569 28.996042769088294 11.511960813847669 1 rotate no_reflect no_shear #
lump $-1 $-1 $43 $10 #
transform $-1 1 0 0 0 1 0 0 0 1 54.248481704153569 28.996042769088294 11.511960813847669 1 rotate no_reflect no_shear #
shell $-1 $-1 $-1 $44 $-1 $11 #
shell $-1 $-1 $-1 $45 $-1 $13 #
shell $-1 $-1 $-1 $46 $-1 $15 #
shell $-1 $-1 $-1 $47 $-1 $17 #
shell $-1 $-1 $-1 $48 $-1 $19 #
shell $-1 $-1 $-1 $49 $-1 $21 #
shell $-1 $-1 $-1 $50 $-1 $23 #
shell $-1 $-1 $-1 $51 $-1 $25 #
shell $-1 $-1 $-1 $52 $-1 $27 #
shell $-1 $-1 $-1 $53 $-1 $29 #
shell $-1 $-1 $-1 $54 $-1 $31 #
face $-1 $55 $56 $33 $-1 $57 forward single #
face $-1 $58 $59 $34 $-1 $60 reversed single #
face $-1 $61 $62 $35 $-1 $63 reversed single #
face $-1 $64 $65 $36 $-1 $66 reversed single #
face $-1 $67 $68 $37 $-1 $69 forward single #
face $-1 $70 $71 $38 $-1 $72 forward single #
face $-1 $73 $74 $39 $-1 $75 forward single #
face $-1 $76 $77 $40 $-1 $78 reversed single #
face $-1 $79 $80 $41 $-1 $81 forward single #
face $-1 $82 $83 $42 $-1 $84 forward single #
face $-1 $85 $86 $43 $-1 $87 forward single #
face $-1 $88 $89 $33 $-1 $90 reversed single #
loop $-1 $-1 $91 $44 #
plane-surface $-1 0 0 11.511960813847669 0 0 1 1 0 0 forward_v I I I I #
face $-1 $92 $93 $34 $-1 $94 reversed single #
loop $-1 $-1 $95 $45 #
plane-surface $-1 -47.899010127344894 -10.034666008937929 0 0 1 0 0 0 1 forward_v I I I I #
face $-1 $96 $97 $35 $-1 $98 reversed single #
loop $-1 $-1 $99 $46 #
plane-surface $-1 49.079608839440759 -24.232426440128073 0 0 1 0 0 0 1 forward_v I I I I #
face $-1 $100 $101 $36 $-1 $102 reversed single #
loop $-1 $-1 $103 $47 #
plane-surface $-1 -41.549538550536219 50.095057488721721 121.23247840458244 1 0 0 0 -0.61566148304635926 -0.78801074757464917 forward_v I I I I #
face $-1 $104 $105 $37 $-1 $106 forward single #
loop $-1 $107 $108 $48 #
cone-surface $-1 -38.704705363452348 21.235838078987857 5.2428298299167695 0 -0.61566148304635926 -0.78801074757464917 0.5 0 0 1 I I 0 1 0.5 forward I I I I #
face $-1 $109 $110 $38 $-1 $111 forward single #
loop $-1 $112 $113 $49 #
cone-surface $-1 -34.437455582826544 21.235838078987857 5.2428298299167695 0 -0.61566148304635926 -0.78801074757464917 0.5 0 0 1 I I 0 1 0.5 forward I I I I #
face $-1 $114 $115 $39 $-1 $116 forward single #
loop $-1 $117 $118 $50 #
cone-surface $-1 -30.170205802200741 21.235838078987857 5.2428298299167695 0 -0.61566148304635926 -0.78801074757464917 0.5 0 0 1 I I 0 1 0.5 forward I I I I #
face $-1 $119 $120 $40 $-1 $121 reversed single #
loop $-1 $-1 $122 $51 #
plane-surface $-1 29.686570039308606 50.095057488721721 121.23247840458244 1 0 0 0 -0.61566148304635926 -0.78801074757464917 forward_v I I I I #
face $-1 $123 $124 $41 $-1 $125 forward single #
loop $-1 $126 $127 $52 #
cone-surface $-1 32.531403226392477 21.235838078987857 5.2428298299167695 0 -0.61566148304635926 -0.78801074757464917 0.5 0 0 1 I I 0 1 0.5 forward I I I I #
face $-1 $128 $129 $42 $-1 $130 forward single #
loop $-1 $131 $132 $53 #
cone-surface $-1 36.798653007018281 21.235838078987857 5.2428298299167695 0 -0.61566148304635926 -0.78801074757464917 0.5 0 0 1 I I 0 1 0.5 forward I I I I #
face $-1 $133 $134 $43 $-1 $135 forward single #
loop $-1 $136 $137 $54 #
cone-surface $-1 41.065902787644085 21.235838078987857 5.2428298299167695 0 -0.61566148304635926 -0.78801074757464917 0.5 0 0 1 I I 0 1 0.5 forward I I I I #
face $-1 $138 $139 $33 $-1 $140 reversed single #
loop $-1 $-1 $141 $55 #
plane-surface $-1 0 0 -11.511960813847669 0 0 1 1 0 0 forward_v I I I I #
coedge $-1 $142 $143 $144 $145 forward $56 $-1 #
face $-1 $146 $147 $34 $-1 $148 reversed single #
loop $-1 $-1 $149 $58 #
plane-surface $-1 -47.899010127344894 -5.9721211413929574 0 0 -1 0 0 0 -1 forward_v I I I I #
coedge $-1 $150 $151 $152 $153 reversed $59 $-1 #
face $-1 $154 $155 $35 $-1 $156 reversed single #
loop $-1 $-1 $157 $61 #
plane-surface $-1 43.910735974727956 -21.530117745652774 0 1 0 0 0 0 -1 forward_v I I I I #
coedge $-1 $158 $159 $160 $161 forward $62 $-1 #
face $-1 $162 $163 $36 $-1 $164 reversed single #
loop $-1 $-1 $165 $64 #
plane-surface $-1 -34.437455582826544 -16.70234390926322 35.735705159622967 0 0.61566148304635926 0.78801074757464917 1 0 0 forward_v I I I I #
coedge $-1 $166 $167 $168 $169 reversed $65 $-1 #
face $-1 $-1 $170 $37 $-1 $171 forward single #
loop $-1 $172 $173 $67 #
cone-surface $-1 -38.704705363452348 20.668422232499385 4.516570679897125 0 -0.61566148304635926 -0.78801074757464917 0.25 0 0 1 I I -0.70710678118654746 0.70710678118654746 0.25 forward I I I I #
loop $-1 $-1 $174 $48 #
coedge $-1 $108 $108 $175 $176 reversed $68 $-1 #
face $-1 $-1 $177 $38 $-1 $178 forward single #
loop $-1 $179 $180 $70 #
cone-surface $-1 -34.437455582826544 20.668422232499385 4.516570679897125 0 -0.61566148304635926 -0.78801074757464917 0.25 0 0 1 I I -0.70710678118654746 0.70710678118654746 0.25 forward I I I I #
loop $-1 $-1 $181 $49 #
coedge $-1 $113 $113 $182 $183 reversed $71 $-1 #
face $-1 $-1 $184 $39 $-1 $185 forward single #
loop $-1 $186 $187 $73 #
cone-surface $-1 -30.170205802200741 20.668422232499385 4.516570679897125 0 -0.61566148304635926 -0.78801074757464917 0.25 0 0 1 I I -0.70710678118654746 0.70710678118654746 0.25 forward I I I I #
loop $-1 $-1 $188 $50 #
coedge $-1 $118 $118 $189 $190 reversed $74 $-1 #
face $-1 $191 $192 $40 $-1 $193 reversed single #
loop $-1 $-1 $194 $76 #
plane-surface $-1 36.798653007018281 -16.70234390926322 35.735705159622967 0 0.61566148304635926 0.78801074757464917 1 0 0 forward_v I I I I #
coedge $-1 $195 $196 $197 $198 reversed $77 $-1 #
face $-1 $-1 $199 $41 $-1 $200 forward single #
loop $-1 $201 $202 $79 #
cone-surface $-1 32.531403226392477 20.668422232499385 4.516570679897125 0 -0.61566148304635926 -0.78801074757464917 0.25 0 0 1 I I -0.70710678118654746 0.70710678118654746 0.25 forward I I I I #
loop $-1 $-1 $203 $52 #
coedge $-1 $127 $127 $204 $205 reversed $80 $-1 #
face $-1 $-1 $206 $42 $-1 $207 forward single #
loop $-1 $208 $209 $82 #
cone-surface $-1 36.798653007018281 20.668422232499385 4.516570679897125 0 -0.61566148304635926 -0.78801074757464917 0.25 0 0 1 I I -0.70710678118654746 0.70710678118654746 0.25 forward I I I I #
loop $-1 $-1 $210 $53 #
coedge $-1 $132 $132 $211 $212 reversed $83 $-1 #
face $-1 $-1 $213 $43 $-1 $214 forward single #
loop $-1 $215 $216 $85 #
cone-surface $-1 41.065902787644085 20.668422232499385 4.516570679897125 0 -0.61566148304635926 -0.78801074757464917 0.25 0 0 1 I I -0.70710678118654746 0.70710678118654746 0.25 forward I I I I #
loop $-1 $-1 $217 $54 #
coedge $-1 $137 $137 $218 $219 reversed $86 $-1 #
face $-1 $220 $221 $33 $-1 $222 reversed single #
loop $-1 $-1 $223 $88 #
plane-surface $-1 0 -28.996042769088294 0 0 1 0 0 0 1 forward_v I I I I #
coedge $-1 $224 $225 $226 $227 forward $89 $-1 #
coedge $-1 $228 $91 $229 $230 forward $56 $-1 #
coedge $-1 $91 $228 $231 $232 forward $56 $-1 #
coedge $-1 $233 $234 $91 $145 reversed $235 $-1 #
edge $-1 $236 -28.996042769088294 $237 28.996042769088294 $144 $238 forward 7 unknown #
face $-1 $239 $240 $34 $-1 $241 reversed single #
loop $-1 $-1 $242 $92 #
plane-surface $-1 -41.549538550536219 -8.0033935751654433 0 -1 0 0 0 0 1 forward_v I I I I #
coedge $-1 $243 $244 $245 $246 forward $93 $-1 #
coedge $-1 $247 $95 $248 $249 reversed $59 $-1 #
coedge $-1 $95 $247 $250 $251 reversed $59 $-1 #
coedge $-1 $252 $253 $95 $153 forward $254 $-1 #
edge $-1 $255 -11.511960813847669 $256 11.511960813847669 $152 $257 forward 7 unknown #
face $-1 $258 $259 $35 $-1 $260 reversed single #
loop $-1 $-1 $261 $96 #
plane-surface $-1 49.079608839440759 -18.827809051177475 0 0 -1 0 0 0 -1 forward_v I I I I #
coedge $-1 $262 $263 $264 $265 forward $97 $-1 #
coedge $-1 $266 $99 $267 $268 reversed $62 $-1 #
coedge $-1 $99 $266 $269 $270 reversed $62 $-1 #
coedge $-1 $263 $262 $99 $161 reversed $97 $-1 #
edge $-1 $271 -11.511960813847669 $272 11.511960813847669 $160 $273 forward 7 unknown #
face $-1 $274 $275 $36 $-1 $276 reversed single #
loop $-1 $-1 $277 $100 #
plane-surface $-1 -27.325372615116869 50.095057488721721 121.23247840458244 -1 0 0 0 0.61566148304635926 0.78801074757464917 forward_v I I I I #
coedge $-1 $278 $279 $280 $281 reversed $101 $-1 #
coedge $-1 $167 $103 $282 $283 reversed $65 $-1 #
coedge $-1 $103 $166 $278 $284 reversed $65 $-1 #
coedge $-1 $280 $285 $103 $169 forward $286 $-1 #
edge $-1 $287 -3.9485140247274337 $288 10.744894404019654 $168 $289 forward 7 unknown #
loop $-1 $-1 $175 $104 #
plane-surface $-1 -34.437455582826544 -16.70234390926322 35.735705159622967 0 0.61566148304635926 0.78801074757464917 1 0 0 forward_v I I I I #
loop $-1 $-1 $290 $67 #
coedge $-1 $173 $173 $174 $291 reversed $105 $-1 #
coedge $-1 $174 $174 $173 $291 forward $107 $-1 #
coedge $-1 $175 $175 $108 $176 forward $170 $-1 #
edge $-1 $292 -2.7111917446374903e-015 $292 6.2831853071795978 $175 $293 forward 7 unknown #
loop $-1 $-1 $182 $109 #
plane-surface $-1 -34.437455582826544 -16.70234390926322 35.735705159622967 0 0.61566148304635926 0.78801074757464917 1 0 0 forward_v I I I I #
loop $-1 $-1 $294 $70 #
coedge $-1 $180 $180 $181 $295 reversed $110 $-1 #
coedge $-1 $181 $181 $180 $295 forward $112 $-1 #
coedge $-1 $182 $182 $113 $183 forward $177 $-1 #
edge $-1 $296 -2.7111917446374903e-015 $296 6.2831853071795978 $182 $297 forward 7 unknown #
loop $-1 $-1 $189 $114 #
plane-surface $-1 -34.437455582826544 -16.70234390926322 35.735705159622967 0 0.61566148304635926 0.78801074757464917 1 0 0 forward_v I I I I #
loop $-1 $-1 $298 $73 #
coedge $-1 $187 $187 $188 $299 reversed $115 $-1 #
coedge $-1 $188 $188 $187 $299 forward $117 $-1 #
coedge $-1 $189 $189 $118 $190 forward $184 $-1 #
edge $-1 $300 -2.7111917446374903e-015 $300 6.2831853071795978 $189 $301 forward 7 unknown #
face $-1 $302 $303 $40 $-1 $304 forward single #
loop $-1 $-1 $305 $119 #
plane-surface $-1 43.910735974727956 50.095057488721721 121.23247840458244 -1 0 0 0 0.61566148304635926 0.78801074757464917 forward_v I I I I #
coedge $-1 $306 $307 $308 $309 reversed $120 $-1 #
coedge $-1 $196 $122 $310 $311 reversed $77 $-1 #
coedge $-1 $122 $195 $306 $312 reversed $77 $-1 #
coedge $-1 $308 $313 $122 $198 forward $303 $-1 #
edge $-1 $314 -3.9485140247274337 $315 10.744894404019654 $197 $316 forward 7 unknown #
loop $-1 $-1 $204 $123 #
plane-surface $-1 36.798653007018281 -16.70234390926322 35.735705159622967 0 0.61566148304635926 0.78801074757464917 1 0 0 forward_v I I I I #
loop $-1 $-1 $317 $79 #
coedge $-1 $202 $202 $203 $318 reversed $124 $-1 #
coedge $-1 $203 $203 $202 $318 forward $126 $-1 #
coedge $-1 $204 $204 $127 $205 forward $199 $-1 #
edge $-1 $319 -2.7111917446374903e-015 $319 6.2831853071795978 $204 $320 forward 7 unknown #
loop $-1 $-1 $211 $128 #
plane-surface $-1 36.798653007018281 -16.70234390926322 35.735705159622967 0 0.61566148304635926 0.78801074757464917 1 0 0 forward_v I I I I #
loop $-1 $-1 $321 $82 #
coedge $-1 $209 $209 $210 $322 reversed $129 $-1 #
coedge $-1 $210 $210 $209 $322 forward $131 $-1 #
coedge $-1 $211 $211 $132 $212 forward $206 $-1 #
edge $-1 $323 -2.7111917446374903e-015 $323 6.2831853071795978 $211 $324 forward 7 unknown #
loop $-1 $-1 $218 $133 #
plane-surface $-1 36.798653007018281 -16.70234390926322 35.735705159622967 0 0.61566148304635926 0.78801074757464917 1 0 0 forward_v I I I I #
loop $-1 $-1 $325 $85 #
coedge $-1 $216 $216 $217 $326 reversed $134 $-1 #
coedge $-1 $217 $217 $216 $326 forward $136 $-1 #
coedge $-1 $218 $218 $137 $219 forward $213 $-1 #
edge $-1 $327 -2.7111917446374903e-015 $327 6.2831853071795978 $218 $328 forward 7 unknown #
face $-1 $329 $330 $33 $-1 $331 reversed single #
loop $-1 $-1 $332 $138 #
plane-surface $-1 -54.248481704153569 0 0 1 0 0 0 0 -1 forward_v I I I I #
coedge $-1 $333 $231 $334 $335 forward $139 $-1 #
coedge $-1 $336 $141 $333 $337 forward $89 $-1 #
coedge $-1 $141 $336 $338 $339 forward $89 $-1 #
coedge $-1 $234 $233 $141 $227 reversed $235 $-1 #
edge $-1 $340 -28.996042769088294 $341 28.996042769088294 $226 $342 forward 7 unknown #
coedge $-1 $143 $142 $343 $344 forward $56 $-1 #
coedge $-1 $345 $346 $142 $230 reversed $330 $-1 #
edge $-1 $237 -54.248481704153569 $347 54.248481704153569 $229 $348 forward 7 unknown #
coedge $-1 $223 $349 $143 $232 reversed $139 $-1 #
edge $-1 $350 -54.248481704153569 $236 54.248481704153569 $231 $351 forward 7 unknown #
coedge $-1 $226 $144 $349 $352 forward $235 $-1 #
coedge $-1 $144 $226 $345 $353 reversed $235 $-1 #
loop $-1 $-1 $233 $329 #
vertex $-1 $145 $354 #
vertex $-1 $145 $355 #
straight-curve $-1 54.248481704153569 0 11.511960813847669 0 1 0 I I #
face $-1 $356 $357 $34 $-1 $358 forward single #
loop $-1 $-1 $359 $146 #
plane-surface $-1 0 0 -11.511960813847669 0 0 1 1 0 0 forward_v I I I I #
coedge $-1 $360 $361 $247 $362 forward $147 $-1 #
coedge $-1 $363 $149 $359 $364 reversed $93 $-1 #
coedge $-1 $149 $363 $365 $366 reversed $93 $-1 #
coedge $-1 $361 $360 $149 $246 reversed $147 $-1 #
edge $-1 $367 -11.511960813847669 $368 11.511960813847669 $245 $369 forward 7 unknown #
coedge $-1 $151 $150 $242 $362 reversed $59 $-1 #
coedge $-1 $370 $371 $150 $249 forward $240 $-1 #
edge $-1 $372 17.600033486863772 $255 30.298976640481122 $248 $373 forward 7 unknown #
coedge $-1 $374 $375 $151 $251 forward $357 $-1 #
edge $-1 $256 -30.298976640481122 $376 -17.600033486863772 $250 $377 forward 7 unknown #
coedge $-1 $378 $152 $375 $379 reversed $254 $-1 #
coedge $-1 $152 $378 $370 $380 reversed $254 $-1 #
loop $-1 $-1 $378 $356 #
vertex $-1 $380 $381 #
vertex $-1 $153 $382 #
straight-curve $-1 -54.248481704153569 -10.034666008937929 0 0 0 1 I I #
face $-1 $383 $384 $35 $-1 $385 forward single #
loop $-1 $-1 $267 $154 #
plane-surface $-1 0 0 -11.511960813847669 0 0 1 1 0 0 forward_v I I I I #
coedge $-1 $386 $387 $388 $389 reversed $155 $-1 #
coedge $-1 $160 $157 $390 $391 reversed $97 $-1 #
coedge $-1 $157 $160 $392 $393 reversed $97 $-1 #
coedge $-1 $387 $386 $157 $265 reversed $155 $-1 #
edge $-1 $394 -11.511960813847669 $395 11.511960813847669 $264 $396 forward 7 unknown #
coedge $-1 $159 $158 $397 $398 reversed $62 $-1 #
coedge $-1 $390 $399 $158 $268 forward $259 $-1 #
edge $-1 $400 -29.708677284433183 $272 -19.370931555007576 $267 $401 forward 7 unknown #
coedge $-1 $402 $392 $159 $270 forward $384 $-1 #
edge $-1 $271 19.370931555007576 $403 29.708677284433183 $269 $404 forward 7 unknown #
vertex $-1 $270 $405 #
vertex $-1 $268 $406 #
straight-curve $-1 43.910735974727956 -24.232426440128073 0 0 0 -1 I I #
face $-1 $-1 $286 $36 $-1 $407 forward single #
loop $-1 $-1 $408 $162 #
plane-surface $-1 0 28.996042769088294 0 0 -1 0 0 0 -1 forward_v I I I I #
coedge $-1 $409 $410 $411 $412 reversed $163 $-1 #
coedge $-1 $413 $165 $167 $284 forward $101 $-1 #
coedge $-1 $165 $413 $409 $414 forward $101 $-1 #
coedge $-1 $411 $168 $165 $281 forward $286 $-1 #
edge $-1 $288 -24.330810759122947 $415 -10.106644823703597 $280 $416 forward 7 unknown #
coedge $-1 $417 $418 $166 $283 forward $275 $-1 #
edge $-1 $419 -60.584027430053354 $287 -49.104278388443547 $282 $420 forward 7 unknown #
edge $-1 $288 39.345882457862402 $419 57.992085538176561 $167 $421 forward 7 unknown #
coedge $-1 $168 $411 $417 $422 forward $286 $-1 #
loop $-1 $-1 $411 $274 #
vertex $-1 $283 $423 #
vertex $-1 $169 $424 #
straight-curve $-1 -41.549538550536219 25.047528744360861 11.511960813847665 0 -1 0 I I #
coedge $-1 $290 $290 $-1 $425 reversed $172 $-1 #
edge $-1 $426 0 $426 6.2831853071796004 $173 $427 forward 7 unknown #
vertex $-1 $176 $428 #
ellipse-curve $-1 -38.704705363452348 21.649338554714753 5.7720862930427685 0 0.61566148304635926 0.78801074757464917 0.5 0 0 1 I I #
coedge $-1 $294 $294 $-1 $429 reversed $179 $-1 #
edge $-1 $430 0 $430 6.2831853071796004 $180 $431 forward 7 unknown #
vertex $-1 $183 $432 #
ellipse-curve $-1 -34.437455582826544 21.649338554714753 5.7720862930427685 0 0.61566148304635926 0.78801074757464917 0.5 0 0 1 I I #
coedge $-1 $298 $298 $-1 $433 reversed $186 $-1 #
edge $-1 $434 0 $434 6.2831853071796004 $187 $435 forward 7 unknown #
vertex $-1 $190 $436 #
ellipse-curve $-1 -30.170205802200741 21.649338554714753 5.7720862930427685 0 0.61566148304635926 0.78801074757464917 0.5 0 0 1 I I #
face $-1 $-1 $437 $40 $-1 $438 reversed single #
loop $-1 $-1 $197 $191 #
plane-surface $-1 0 0 11.511960813847669 0 0 1 1 0 0 forward_v I I I I #
coedge $-1 $439 $440 $441 $442 reversed $192 $-1 #
coedge $-1 $443 $194 $196 $312 forward $120 $-1 #
coedge $-1 $194 $443 $439 $444 forward $120 $-1 #
coedge $-1 $441 $197 $194 $309 forward $303 $-1 #
edge $-1 $315 11.287243535799465 $445 25.511409471218816 $308 $446 forward 7 unknown #
coedge $-1 $447 $448 $195 $311 forward $437 $-1 #
edge $-1 $449 -60.584027430053354 $314 -49.104278388443547 $310 $450 forward 7 unknown #
edge $-1 $315 39.345882457862402 $449 57.992085538176561 $196 $451 forward 7 unknown #
coedge $-1 $197 $441 $447 $452 forward $303 $-1 #
vertex $-1 $311 $453 #
vertex $-1 $198 $454 #
straight-curve $-1 29.686570039308606 25.047528744360861 11.511960813847665 0 -1 0 I I #
coedge $-1 $317 $317 $-1 $455 reversed $201 $-1 #
edge $-1 $456 0 $456 6.2831853071796004 $202 $457 forward 7 unknown #
vertex $-1 $205 $458 #
ellipse-curve $-1 32.531403226392477 21.649338554714753 5.7720862930427685 0 0.61566148304635926 0.78801074757464917 0.5 0 0 1 I I #
coedge $-1 $321 $321 $-1 $459 reversed $208 $-1 #
edge $-1 $460 0 $460 6.2831853071796004 $209 $461 forward 7 unknown #
vertex $-1 $212 $462 #
ellipse-curve $-1 36.798653007018281 21.649338554714753 5.7720862930427685 0 0.61566148304635926 0.78801074757464917 0.5 0 0 1 I I #
coedge $-1 $325 $325 $-1 $463 reversed $215 $-1 #
edge $-1 $464 0 $464 6.2831853071796004 $216 $465 forward 7 unknown #
vertex $-1 $219 $466 #
ellipse-curve $-1 41.065902787644085 21.649338554714753 5.7720862930427685 0 0.61566148304635926 0.78801074757464917 0.5 0 0 1 I I #
face $-1 $-1 $235 $33 $-1 $467 reversed single #
loop $-1 $-1 $345 $220 #
plane-surface $-1 0 28.996042769088294 0 0 -1 0 0 0 -1 forward_v I I I I #
coedge $-1 $468 $343 $346 $469 forward $221 $-1 #
coedge $-1 $349 $223 $224 $337 reversed $139 $-1 #
coedge $-1 $343 $468 $223 $335 reversed $221 $-1 #
edge $-1 $350 -11.511960813847669 $470 11.511960813847669 $334 $471 forward 7 unknown #
coedge $-1 $225 $224 $468 $472 forward $89 $-1 #
edge $-1 $341 -54.248481704153569 $470 54.248481704153569 $333 $473 forward 7 unknown #
coedge $-1 $346 $345 $225 $339 reversed $330 $-1 #
edge $-1 $474 -54.248481704153569 $340 54.248481704153569 $338 $475 forward 7 unknown #
vertex $-1 $227 $476 #
vertex $-1 $352 $477 #
straight-curve $-1 54.248481704153569 0 -11.511960813847669 0 -1 0 I I #
coedge $-1 $332 $334 $228 $344 reversed $221 $-1 #
edge $-1 $347 -28.996042769088294 $350 28.996042769088294 $343 $478 forward 7 unknown #
coedge $-1 $338 $229 $234 $353 forward $330 $-1 #
coedge $-1 $229 $338 $332 $469 reversed $330 $-1 #
vertex $-1 $230 $479 #
straight-curve $-1 0 28.996042769088294 11.511960813847669 -1 0 0 I I #
coedge $-1 $231 $333 $233 $352 reversed $139 $-1 #
vertex $-1 $344 $480 #
straight-curve $-1 0 -28.996042769088294 11.511960813847669 1 0 0 I I #
edge $-1 $236 -11.511960813847669 $341 11.511960813847669 $233 $481 forward 7 unknown #
edge $-1 $237 -11.511960813847669 $340 11.511960813847669 $234 $482 forward 7 unknown #
point $-1 54.248481704153569 -28.996042769088294 11.511960813847669 #
point $-1 54.248481704153569 28.996042769088294 11.511960813847669 #
face $-1 $-1 $254 $34 $-1 $483 reversed single #
loop $-1 $-1 $365 $239 #
plane-surface $-1 0 0 11.511960813847669 0 0 1 1 0 0 forward_v I I I I #
coedge $-1 $371 $370 $243 $364 forward $240 $-1 #
coedge $-1 $245 $242 $371 $484 reversed $147 $-1 #
coedge $-1 $242 $245 $374 $485 reversed $147 $-1 #
edge $-1 $376 -11.511960813847669 $372 11.511960813847669 $242 $486 forward 7 unknown #
coedge $-1 $244 $243 $378 $487 reversed $93 $-1 #
edge $-1 $488 -30.298976640481122 $368 -17.600033486863772 $359 $489 forward 7 unknown #
coedge $-1 $375 $374 $244 $366 forward $357 $-1 #
edge $-1 $367 17.600033486863772 $490 30.298976640481122 $365 $491 forward 7 unknown #
vertex $-1 $366 $492 #
vertex $-1 $364 $493 #
straight-curve $-1 -41.549538550536219 -5.9721211413929574 0 0 0 -1 I I #
coedge $-1 $359 $248 $253 $380 forward $240 $-1 #
coedge $-1 $248 $359 $360 $484 forward $240 $-1 #
vertex $-1 $249 $494 #
straight-curve $-1 -23.949505063672447 -10.034666008937929 -11.511960813847669 -1 0 0 I I #
coedge $-1 $365 $250 $361 $485 forward $357 $-1 #
coedge $-1 $250 $365 $252 $379 forward $357 $-1 #
vertex $-1 $251 $495 #
straight-curve $-1 -23.949505063672447 -10.034666008937929 11.511960813847669 1 0 0 I I #
coedge $-1 $253 $252 $363 $487 forward $254 $-1 #
edge $-1 $490 5.9721211413929574 $256 10.034666008937929 $252 $496 forward 7 unknown #
edge $-1 $255 -10.034666008937929 $488 -5.9721211413929574 $253 $497 forward 7 unknown #
point $-1 -54.248481704153569 -10.034666008937929 -11.511960813847669 #
point $-1 -54.248481704153569 -10.034666008937929 11.511960813847669 #
face $-1 $-1 $498 $35 $-1 $499 reversed single #
loop $-1 $-1 $269 $258 #
plane-surface $-1 0 0 11.511960813847669 0 0 1 1 0 0 forward_v I I I I #
coedge $-1 $264 $261 $500 $501 reversed $155 $-1 #
coedge $-1 $261 $264 $502 $503 reversed $155 $-1 #
coedge $-1 $504 $505 $261 $389 forward $498 $-1 #
edge $-1 $506 -11.511960813847669 $507 11.511960813847669 $388 $508 forward 7 unknown #
coedge $-1 $500 $267 $262 $391 forward $259 $-1 #
edge $-1 $272 -13.467367567301686 $395 -8.062750178351088 $390 $509 forward 7 unknown #
coedge $-1 $269 $502 $263 $393 forward $384 $-1 #
edge $-1 $394 8.062750178351088 $271 13.467367567301686 $392 $510 forward 7 unknown #
vertex $-1 $393 $511 #
vertex $-1 $391 $512 #
straight-curve $-1 43.910735974727956 -18.827809051177475 0 0 0 -1 I I #
coedge $-1 $505 $504 $266 $398 forward $498 $-1 #
edge $-1 $403 -11.511960813847669 $400 11.511960813847669 $397 $513 forward 7 unknown #
coedge $-1 $267 $500 $505 $514 forward $259 $-1 #
vertex $-1 $398 $515 #
straight-curve $-1 24.53980441972038 -24.232426440128073 -11.511960813847669 -1 0 0 I I #
coedge $-1 $502 $269 $504 $516 forward $384 $-1 #
vertex $-1 $516 $517 #
straight-curve $-1 24.53980441972038 -24.232426440128073 11.511960813847669 1 0 0 I I #
point $-1 43.910735974727956 -24.232426440128073 11.511960813847669 #
point $-1 43.910735974727956 -24.232426440128073 -11.511960813847669 #
plane-surface $-1 0 0 11.511960813847669 0 0 1 1 0 0 forward_v I I I I #
coedge $-1 $418 $417 $410 $518 forward $275 $-1 #
coedge $-1 $410 $277 $279 $414 reversed $163 $-1 #
coedge $-1 $277 $409 $408 $518 reversed $163 $-1 #
coedge $-1 $285 $280 $277 $412 forward $286 $-1 #
edge $-1 $415 -10.744894404019654 $519 3.9485140247274337 $411 $520 forward 7 unknown #
coedge $-1 $279 $278 $418 $521 reversed $101 $-1 #
edge $-1 $522 -57.992085538176561 $415 -39.345882457862402 $409 $523 forward 7 unknown #
vertex $-1 $281 $524 #
straight-curve $-1 -17.218727791413272 14.302634340341207 11.511960813847665 1 0 0 I I #
coedge $-1 $408 $282 $285 $422 reversed $275 $-1 #
coedge $-1 $282 $408 $413 $521 forward $275 $-1 #
vertex $-1 $283 $525 #
straight-curve $-1 -41.549538550536219 28.996042769088294 60.616239202291219 0 0 1 I I #
straight-curve $-1 -41.549538550536219 -16.70234390926322 35.735705159622967 0 0.78801074757464917 -0.61566148304635926 I I #
edge $-1 $519 27.325372615116869 $287 41.549538550536219 $417 $526 forward 7 unknown #
point $-1 -41.549538550536219 28.996042769088294 11.511960813847669 #
point $-1 -41.549538550536219 14.302634340341207 11.511960813847669 #
edge $-1 $527 1 $527 0 $290 $-1 forward 7 unknown #
vertex $-1 $291 $528 #
ellipse-curve $-1 -38.704705363452348 20.822337603260973 4.7135733667907873 0 0.61566148304635926 0.78801074757464917 0.5 0 0 1 I I #
point $-1 -38.204705363452348 21.649338554714738 5.7720862930427526 #
edge $-1 $529 1 $529 0 $294 $-1 forward 7 unknown #
vertex $-1 $295 $530 #
ellipse-curve $-1 -34.437455582826544 20.822337603260973 4.7135733667907873 0 0.61566148304635926 0.78801074757464917 0.5 0 0 1 I I #
point $-1 -33.937455582826544 21.649338554714738 5.7720862930427526 #
edge $-1 $531 1 $531 0 $298 $-1 forward 7 unknown #
vertex $-1 $299 $532 #
ellipse-curve $-1 -30.170205802200741 20.822337603260973 4.7135733667907873 0 0.61566148304635926 0.78801074757464917 0.5 0 0 1 I I #
point $-1 -29.670205802200741 21.649338554714738 5.7720862930427526 #
loop $-1 $-1 $310 $302 #
plane-surface $-1 0 28.996042769088294 0 0 -1 0 0 0 -1 forward_v I I I I #
coedge $-1 $440 $305 $307 $444 reversed $192 $-1 #
coedge $-1 $305 $439 $533 $534 reversed $192 $-1 #
coedge $-1 $313 $308 $305 $442 forward $303 $-1 #
edge $-1 $445 -10.744894404019654 $535 3.9485140247274337 $441 $536 forward 7 unknown #
coedge $-1 $307 $306 $448 $537 reversed $120 $-1 #
edge $-1 $538 -57.992085538176561 $445 -39.345882457862402 $439 $539 forward 7 unknown #
vertex $-1 $309 $540 #
straight-curve $-1 18.39932650350914 14.302634340341207 11.511960813847665 1 0 0 I I #
coedge $-1 $533 $310 $313 $452 reversed $437 $-1 #
coedge $-1 $310 $533 $443 $537 forward $437 $-1 #
vertex $-1 $311 $541 #
straight-curve $-1 29.686570039308606 28.996042769088294 60.616239202291219 0 0 1 I I #
straight-curve $-1 29.686570039308606 -16.70234390926322 35.735705159622967 0 0.78801074757464917 -0.61566148304635926 I I #
edge $-1 $535 -43.910735974727956 $314 -29.686570039308606 $447 $542 forward 7 unknown #
point $-1 29.686570039308606 28.996042769088294 11.511960813847669 #
point $-1 29.686570039308606 14.302634340341207 11.511960813847669 #
edge $-1 $543 1 $543 0 $317 $-1 forward 7 unknown #
vertex $-1 $318 $544 #
ellipse-curve $-1 32.531403226392477 20.822337603260973 4.7135733667907873 0 0.61566148304635926 0.78801074757464917 0.5 0 0 1 I I #
point $-1 33.031403226392477 21.649338554714738 5.7720862930427526 #
edge $-1 $545 1 $545 0 $321 $-1 forward 7 unknown #
vertex $-1 $322 $546 #
ellipse-curve $-1 36.798653007018281 20.822337603260973 4.7135733667907873 0 0.61566148304635926 0.78801074757464917 0.5 0 0 1 I I #
point $-1 37.298653007018281 21.649338554714738 5.7720862930427526 #
edge $-1 $547 1 $547 0 $325 $-1 forward 7 unknown #
vertex $-1 $326 $548 #
ellipse-curve $-1 41.065902787644085 20.822337603260973 4.7135733667907873 0 0.61566148304635926 0.78801074757464917 0.5 0 0 1 I I #
point $-1 41.565902787644085 21.649338554714738 5.7720862930427526 #
plane-surface $-1 54.248481704153569 0 0 -1 0 0 0 0 1 forward_v I I I I #
coedge $-1 $334 $332 $336 $472 reversed $221 $-1 #
edge $-1 $347 -11.511960813847669 $474 11.511960813847669 $346 $549 forward 7 unknown #
vertex $-1 $472 $550 #
straight-curve $-1 -54.248481704153569 -28.996042769088294 0 0 0 -1 I I #
edge $-1 $470 -28.996042769088294 $474 28.996042769088294 $468 $551 forward 7 unknown #
straight-curve $-1 0 -28.996042769088294 -11.511960813847669 -1 0 0 I I #
vertex $-1 $339 $552 #
straight-curve $-1 0 28.996042769088294 -11.511960813847669 1 0 0 I I #
point $-1 54.248481704153569 28.996042769088294 -11.511960813847669 #
point $-1 54.248481704153569 -28.996042769088294 -11.511960813847669 #
straight-curve $-1 -54.248481704153569 0 11.511960813847669 0 -1 0 I I #
point $-1 -54.248481704153569 28.996042769088294 11.511960813847669 #
point $-1 -54.248481704153569 -28.996042769088294 11.511960813847669 #
straight-curve $-1 54.248481704153569 -28.996042769088294 0 0 0 -1 I I #
straight-curve $-1 54.248481704153569 28.996042769088294 0 0 0 -1 I I #
plane-surface $-1 -54.248481704153569 0 0 1 0 0 0 0 -1 forward_v I I I I #
edge $-1 $368 1.9704243538102357 $372 6.0329692213552075 $371 $553 forward 7 unknown #
edge $-1 $376 -6.0329692213552075 $367 -1.9704243538102357 $374 $554 forward 7 unknown #
straight-curve $-1 -41.549538550536219 -10.034666008937929 0 0 0 -1 I I #
edge $-1 $490 -11.511960813847669 $488 11.511960813847669 $378 $555 forward 7 unknown #
vertex $-1 $487 $556 #
straight-curve $-1 -23.949505063672447 -5.9721211413929574 -11.511960813847669 1 0 0 I I #
vertex $-1 $379 $557 #
straight-curve $-1 -23.949505063672447 -5.9721211413929574 11.511960813847669 -1 0 0 I I #
point $-1 -41.549538550536219 -5.9721211413929574 11.511960813847669 #
point $-1 -41.549538550536219 -5.9721211413929574 -11.511960813847669 #
point $-1 -41.549538550536219 -10.034666008937929 -11.511960813847669 #
point $-1 -41.549538550536219 -10.034666008937929 11.511960813847669 #
straight-curve $-1 -54.248481704153569 0 11.511960813847669 0 -1 0 I I #
straight-curve $-1 -54.248481704153569 0 -11.511960813847669 0 1 0 I I #
loop $-1 $-1 $397 $383 #
plane-surface $-1 54.248481704153569 0 0 -1 0 0 0 0 1 forward_v I I I I #
coedge $-1 $399 $390 $386 $501 forward $259 $-1 #
edge $-1 $395 19.370931555007576 $506 29.708677284433183 $500 $558 forward 7 unknown #
coedge $-1 $392 $402 $387 $503 forward $384 $-1 #
edge $-1 $507 -29.708677284433183 $394 -19.370931555007576 $502 $559 forward 7 unknown #
coedge $-1 $397 $388 $402 $516 reversed $498 $-1 #
coedge $-1 $388 $397 $399 $514 reversed $498 $-1 #
vertex $-1 $514 $560 #
vertex $-1 $389 $561 #
straight-curve $-1 54.248481704153569 -18.827809051177475 0 0 0 1 I I #
straight-curve $-1 43.910735974727956 -10.765058872826387 -11.511960813847669 0 1 0 I I #
straight-curve $-1 43.910735974727956 -10.765058872826387 11.511960813847669 0 -1 0 I I #
point $-1 43.910735974727956 -18.827809051177475 11.511960813847669 #
point $-1 43.910735974727956 -18.827809051177475 -11.511960813847669 #
straight-curve $-1 54.248481704153569 -24.232426440128073 0 0 0 -1 I I #
edge $-1 $506 18.827809051177475 $400 24.232426440128073 $505 $562 forward 7 unknown #
point $-1 54.248481704153562 -24.232426440128073 -11.511960813847669 #
edge $-1 $403 -24.232426440128073 $507 -18.827809051177475 $504 $563 forward 7 unknown #
point $-1 54.248481704153562 -24.232426440128073 11.511960813847669 #
edge $-1 $519 49.104278388443547 $522 60.584027430053354 $408 $564 forward 7 unknown #
vertex $-1 $422 $565 #
straight-curve $-1 -27.325372615116869 25.047528744360861 11.511960813847665 0 1 0 I I #
edge $-1 $522 10.106644823703597 $419 24.330810759122947 $418 $566 forward 7 unknown #
vertex $-1 $521 $567 #
straight-curve $-1 -27.325372615116869 -16.70234390926322 35.735705159622967 0 -0.78801074757464917 0.61566148304635926 I I #
point $-1 -27.325372615116869 14.302634340341207 11.511960813847669 #
point $-1 -41.549538550536219 28.996042769088291 0.032211772237864977 #
straight-curve $-1 0 28.996042769088294 11.511960813847669 -1 0 0 I I #
vertex $-1 $425 $568 #
point $-1 -38.204705363452348 20.822337603260973 4.7135733667907873 #
vertex $-1 $429 $569 #
point $-1 -33.937455582826544 20.822337603260973 4.7135733667907873 #
vertex $-1 $433 $570 #
point $-1 -29.670205802200741 20.822337603260973 4.7135733667907873 #
coedge $-1 $448 $447 $440 $534 forward $437 $-1 #
edge $-1 $535 49.104278388443547 $538 60.584027430053354 $533 $571 forward 7 unknown #
vertex $-1 $452 $572 #
straight-curve $-1 43.910735974727956 25.047528744360861 11.511960813847665 0 1 0 I I #
edge $-1 $538 -25.511409471218816 $449 -11.287243535799465 $448 $573 forward 7 unknown #
vertex $-1 $537 $574 #
straight-curve $-1 43.910735974727956 -16.70234390926322 35.735705159622967 0 -0.78801074757464917 0.61566148304635926 I I #
point $-1 43.910735974727956 14.302634340341207 11.511960813847669 #
point $-1 29.686570039308606 28.996042769088291 0.032211772237864977 #
straight-curve $-1 0 28.996042769088294 11.511960813847669 -1 0 0 I I #
vertex $-1 $455 $575 #
point $-1 33.031403226392477 20.822337603260973 4.7135733667907873 #
vertex $-1 $459 $576 #
point $-1 37.298653007018281 20.822337603260973 4.7135733667907873 #
vertex $-1 $463 $577 #
point $-1 41.565902787644085 20.822337603260973 4.7135733667907873 #
straight-curve $-1 -54.248481704153569 28.996042769088294 0 0 0 -1 I I #
point $-1 -54.248481704153569 -28.996042769088294 -11.511960813847669 #
straight-curve $-1 -54.248481704153569 0 -11.511960813847669 0 1 0 I I #
point $-1 -54.248481704153569 28.996042769088294 -11.511960813847669 #
straight-curve $-1 -41.549538550536219 -4.0016967875827216 -11.511960813847669 0 -1 0 I I #
straight-curve $-1 -41.549538550536219 -4.0016967875827216 11.511960813847669 0 1 0 I I #
straight-curve $-1 -54.248481704153569 -5.9721211413929574 0 0 0 -1 I I #
point $-1 -54.248481704153569 -5.9721211413929574 -11.511960813847669 #
point $-1 -54.248481704153569 -5.9721211413929574 11.511960813847669 #
straight-curve $-1 24.53980441972038 -18.827809051177475 -11.511960813847669 1 0 0 I I #
straight-curve $-1 24.53980441972038 -18.827809051177475 11.511960813847669 -1 0 0 I I #
point $-1 54.248481704153562 -18.827809051177475 -11.511960813847669 #
point $-1 54.248481704153562 -18.827809051177475 11.511960813847669 #
straight-curve $-1 54.248481704153569 0 -11.511960813847669 0 -1 0 I I #
straight-curve $-1 54.248481704153569 0 11.511960813847669 0 1 0 I I #
straight-curve $-1 -27.325372615116869 28.996042769088294 60.616239202291219 0 0 -1 I I #
point $-1 -27.325372615116869 28.996042769088294 11.511960813847669 #
straight-curve $-1 -17.218727791413272 28.996042769088298 0.032211772237857872 -1 0 0 I I #
point $-1 -27.325372615116869 28.996042769088291 0.032211772237864977 #
point $-1 -38.704705363452348 20.514506861737797 4.3195679930034627 #
point $-1 -34.437455582826544 20.514506861737797 4.3195679930034627 #
point $-1 -30.170205802200741 20.514506861737797 4.3195679930034627 #
straight-curve $-1 43.910735974727956 28.996042769088294 60.616239202291219 0 0 -1 I I #
point $-1 43.910735974727956 28.996042769088294 11.511960813847669 #
straight-curve $-1 18.39932650350914 28.996042769088298 0.032211772237857872 -1 0 0 I I #
point $-1 43.910735974727956 28.996042769088291 0.032211772237864977 #
point $-1 32.531403226392477 20.514506861737797 4.3195679930034627 #
point $-1 36.798653007018281 20.514506861737797 4.3195679930034627 #
point $-1 41.065902787644085 20.514506861737797 4.3195679930034627 #
End-of-ACIS-data 