500 0 14 0           
7 Unknown 11 ACIS 5.0 NT 24 Fri Mar 26 15:28:13 1999 
-1 9.9999999999999995e-007 1e-010 
body $-1 $14 $-1 $15 #
body $-1 $16 $-1 $17 #
body $-1 $18 $-1 $19 #
body $-1 $20 $-1 $21 #
body $-1 $22 $-1 $23 #
body $-1 $24 $-1 $25 #
body $-1 $26 $-1 $27 #
body $-1 $28 $-1 $29 #
body $-1 $30 $-1 $31 #
body $-1 $32 $-1 $33 #
body $-1 $34 $-1 $35 #
body $-1 $36 $-1 $37 #
body $-1 $38 $-1 $39 #
body $-1 $40 $-1 $41 #
lump $-1 $-1 $42 $0 #
transform $-1 1 0 0 0 1 0 0 0 1 68.500625629444258 36.36050085483447 11.639421659488029 1 rotate no_reflect no_shear #
lump $-1 $-1 $43 $1 #
transform $-1 1 0 0 0 1 0 0 0 1 68.500625629444258 36.36050085483447 11.639421659488029 1 rotate no_reflect no_shear #
lump $-1 $-1 $44 $2 #
transform $-1 1 0 0 0 1 0 0 0 1 68.500625629444258 36.36050085483447 11.639421659488029 1 rotate no_reflect no_shear #
lump $-1 $-1 $45 $3 #
transform $-1 1 0 0 0 1 0 0 0 1 68.500625629444258 36.36050085483447 11.639421659488029 1 rotate no_reflect no_shear #
lump $-1 $-1 $46 $4 #
transform $-1 1 0 0 0 1 0 0 0 1 68.500625629444258 36.36050085483447 11.639421659488029 1 rotate no_reflect no_shear #
lump $-1 $-1 $47 $5 #
transform $-1 1 0 0 0 1 0 0 0 1 68.500625629444258 36.36050085483447 11.639421659488029 1 rotate no_reflect no_shear #
lump $-1 $-1 $48 $6 #
transform $-1 1 0 0 0 1 0 0 0 1 68.500625629444258 36.36050085483447 11.639421659488029 1 rotate no_reflect no_shear #
lump $-1 $-1 $49 $7 #
transform $-1 1 0 0 0 1 0 0 0 1 68.500625629444258 36.36050085483447 11.639421659488029 1 rotate no_reflect no_shear #
lump $-1 $-1 $50 $8 #
transform $-1 1 0 0 0 1 0 0 0 1 68.500625629444258 36.36050085483447 11.639421659488029 1 rotate no_reflect no_shear #
lump $-1 $-1 $51 $9 #
transform $-1 1 0 0 0 1 0 0 0 1 68.500625629444258 36.36050085483447 11.639421659488029 1 rotate no_reflect no_shear #
lump $-1 $-1 $52 $10 #
transform $-1 1 0 0 0 1 0 0 0 1 68.500625629444258 36.36050085483447 11.639421659488029 1 rotate no_reflect no_shear #
lump $-1 $-1 $53 $11 #
transform $-1 1 0 0 0 1 0 0 0 1 68.500625629444258 36.36050085483447 11.639421659488029 1 rotate no_reflect no_shear #
lump $-1 $-1 $54 $12 #
transform $-1 1 0 0 0 1 0 0 0 1 68.500625629444258 36.36050085483447 11.639421659488029 1 rotate no_reflect no_shear #
lump $-1 $-1 $55 $13 #
transform $-1 1 0 0 0 1 0 0 0 1 68.500625629444258 36.36050085483447 11.639421659488029 1 rotate no_reflect no_shear #
shell $-1 $-1 $-1 $56 $-1 $14 #
shell $-1 $-1 $-1 $57 $-1 $16 #
shell $-1 $-1 $-1 $58 $-1 $18 #
shell $-1 $-1 $-1 $59 $-1 $20 #
shell $-1 $-1 $-1 $60 $-1 $22 #
shell $-1 $-1 $-1 $61 $-1 $24 #
shell $-1 $-1 $-1 $62 $-1 $26 #
shell $-1 $-1 $-1 $63 $-1 $28 #
shell $-1 $-1 $-1 $64 $-1 $30 #
shell $-1 $-1 $-1 $65 $-1 $32 #
shell $-1 $-1 $-1 $66 $-1 $34 #
shell $-1 $-1 $-1 $67 $-1 $36 #
shell $-1 $-1 $-1 $68 $-1 $38 #
shell $-1 $-1 $-1 $69 $-1 $40 #
face $-1 $70 $71 $42 $-1 $72 forward single #
face $-1 $73 $74 $43 $-1 $75 reversed single #
face $-1 $76 $77 $44 $-1 $78 reversed single #
face $-1 $79 $80 $45 $-1 $81 forward single #
face $-1 $82 $83 $46 $-1 $84 forward single #
face $-1 $85 $86 $47 $-1 $87 reversed single #
face $-1 $88 $89 $48 $-1 $90 forward single #
face $-1 $91 $92 $49 $-1 $93 forward single #
face $-1 $94 $95 $50 $-1 $96 reversed single #
face $-1 $97 $98 $51 $-1 $99 forward single #
face $-1 $100 $101 $52 $-1 $102 forward single #
face $-1 $103 $104 $53 $-1 $105 reversed single #
face $-1 $106 $107 $54 $-1 $108 forward single #
face $-1 $109 $110 $55 $-1 $111 forward single #
face $-1 $112 $113 $42 $-1 $114 reversed single #
loop $-1 $-1 $115 $56 #
plane-surface $-1 0 0 11.639421659488029 0 0 1 1 0 0 forward_v I I I I #
face $-1 $116 $117 $43 $-1 $118 reversed single #
loop $-1 $-1 $119 $57 #
plane-surface $-1 -66.41318822650895 -27.806820703992539 0 0 -1 0 0 0 -1 forward_v I I I I #
face $-1 $120 $121 $44 $-1 $122 reversed single #
loop $-1 $-1 $123 $58 #
plane-surface $-1 -171.89678359257996 -25.353150714311099 95.724980819148186 0 1 0 -0.75470958851134928 0 0.65605901945558964 forward_v I I I I #
face $-1 $124 $125 $45 $-1 $126 forward single #
loop $-1 $127 $128 $59 #
cone-surface $-1 -65.188496258104209 -21.401403380785109 8.052212247946624 0.75470958851134928 0 -0.65605901945558964 0.65605901945558964 0 0.75470958851134928 1 I I 0 1 1 forward I I I I #
face $-1 $129 $130 $46 $-1 $131 forward single #
loop $-1 $132 $133 $60 #
cone-surface $-1 -65.188496258104209 -15.473782380496125 8.052212247946624 0.75470958851134928 0 -0.65605901945558964 0.65605901945558964 0 0.75470958851134928 1 I I 0 1 1 forward I I I I #
face $-1 $134 $135 $47 $-1 $136 reversed single #
loop $-1 $-1 $137 $61 #
plane-surface $-1 -171.89678359257996 20.075715197812066 95.724980819148186 0 1 0 -0.75470958851134928 0 0.65605901945558964 forward_v I I I I #
face $-1 $138 $139 $48 $-1 $140 forward single #
loop $-1 $141 $142 $62 #
cone-surface $-1 -65.188496258104209 24.02746253133806 8.052212247946624 0.75470958851134928 0 -0.65605901945558964 0.65605901945558964 0 0.75470958851134928 1 I I 0 1 1 forward I I I I #
face $-1 $143 $144 $49 $-1 $145 forward single #
loop $-1 $146 $147 $63 #
cone-surface $-1 -65.188496258104209 29.955083531627039 8.052212247946624 0.75470958851134928 0 -0.65605901945558964 0.65605901945558964 0 0.75470958851134928 1 I I 0 1 1 forward I I I I #
face $-1 $148 $149 $50 $-1 $150 reversed single #
loop $-1 $-1 $151 $64 #
plane-surface $-1 82.015877027484706 -11.522035046970133 199.12113878228391 0 -1 0 -0.75470958851134928 0 -0.65605901945558964 forward_v I I I I #
face $-1 $152 $153 $51 $-1 $154 forward single #
loop $-1 $155 $156 $65 #
cone-surface $-1 65.188496258104195 -21.401403380785109 8.0522122479466098 -0.75470958851134928 0 -0.65605901945558964 0.65605901945558964 0 -0.75470958851134928 1 I I 0 1 1 forward I I I I #
face $-1 $157 $158 $52 $-1 $159 forward single #
loop $-1 $160 $161 $66 #
cone-surface $-1 65.188496258104195 -15.473782380496125 8.0522122479466098 -0.75470958851134928 0 -0.65605901945558964 0.65605901945558964 0 -0.75470958851134928 1 I I 0 1 1 forward I I I I #
face $-1 $162 $163 $53 $-1 $164 reversed single #
loop $-1 $-1 $165 $67 #
plane-surface $-1 82.015877027484706 33.906830865153033 199.12113878228391 0 -1 0 -0.75470958851134928 0 -0.65605901945558964 forward_v I I I I #
face $-1 $166 $167 $54 $-1 $168 forward single #
loop $-1 $169 $170 $68 #
cone-surface $-1 65.188496258104195 24.02746253133806 8.0522122479466098 -0.75470958851134928 0 -0.65605901945558964 0.65605901945558964 0 -0.75470958851134928 1 I I 0 1 1 forward I I I I #
face $-1 $171 $172 $55 $-1 $173 forward single #
loop $-1 $174 $175 $69 #
cone-surface $-1 65.188496258104195 29.955083531627039 8.0522122479466098 -0.75470958851134928 0 -0.65605901945558964 0.65605901945558964 0 -0.75470958851134928 1 I I 0 1 1 forward I I I I #
face $-1 $176 $177 $42 $-1 $178 reversed single #
loop $-1 $-1 $179 $70 #
plane-surface $-1 0 0 -11.639421659488029 0 0 1 1 0 0 forward_v I I I I #
coedge $-1 $180 $181 $182 $183 forward $71 $-1 #
face $-1 $184 $185 $43 $-1 $186 forward single #
loop $-1 $-1 $187 $73 #
plane-surface $-1 -64.325750823573642 -32.083660779413506 0 -1 0 0 0 0 1 forward_v I I I I #
coedge $-1 $188 $189 $190 $191 forward $74 $-1 #
face $-1 $192 $193 $44 $-1 $194 reversed single #
loop $-1 $-1 $195 $76 #
plane-surface $-1 -68.500625629444244 -18.437592880640615 5.8440742540529271 -0.75470958851134928 0 0.65605901945558964 0.65605901945558964 0 0.75470958851134928 forward_v I I I I #
coedge $-1 $196 $197 $198 $199 reversed $77 $-1 #
face $-1 $-1 $200 $45 $-1 $201 forward single #
loop $-1 $202 $203 $79 #
cone-surface $-1 -64.017921348526954 -21.401403380785109 7.0346470293949821 0.75470958851134928 0 -0.65605901945558964 0.32802950972779482 0 0.37735479425567464 1 I I -0.70710678118654746 0.70710678118654746 0.5 forward I I I I #
loop $-1 $-1 $204 $59 #
coedge $-1 $128 $128 $205 $206 reversed $80 $-1 #
face $-1 $-1 $207 $46 $-1 $208 forward single #
loop $-1 $209 $210 $82 #
cone-surface $-1 -64.017921348526954 -15.473782380496125 7.0346470293949821 0.75470958851134928 0 -0.65605901945558964 0.32802950972779482 0 0.37735479425567464 1 I I -0.70710678118654746 0.70710678118654746 0.5 forward I I I I #
loop $-1 $-1 $211 $60 #
coedge $-1 $133 $133 $212 $213 reversed $83 $-1 #
face $-1 $214 $215 $47 $-1 $216 reversed single #
loop $-1 $-1 $217 $85 #
plane-surface $-1 -68.500625629444244 26.99127303148255 5.8440742540529271 -0.75470958851134928 0 0.65605901945558964 0.65605901945558964 0 0.75470958851134928 forward_v I I I I #
coedge $-1 $218 $219 $220 $221 reversed $86 $-1 #
face $-1 $-1 $222 $48 $-1 $223 forward single #
loop $-1 $224 $225 $88 #
cone-surface $-1 -64.017921348526954 24.02746253133806 7.0346470293949821 0.75470958851134928 0 -0.65605901945558964 0.32802950972779482 0 0.37735479425567464 1 I I -0.70710678118654746 0.70710678118654746 0.5 forward I I I I #
loop $-1 $-1 $226 $62 #
coedge $-1 $142 $142 $227 $228 reversed $89 $-1 #
face $-1 $-1 $229 $49 $-1 $230 forward single #
loop $-1 $231 $232 $91 #
cone-surface $-1 -64.017921348526954 29.955083531627039 7.0346470293949821 0.75470958851134928 0 -0.65605901945558964 0.32802950972779482 0 0.37735479425567464 1 I I -0.70710678118654746 0.70710678118654746 0.5 forward I I I I #
loop $-1 $-1 $233 $63 #
coedge $-1 $147 $147 $234 $235 reversed $92 $-1 #
face $-1 $236 $237 $50 $-1 $238 reversed single #
loop $-1 $-1 $239 $94 #
plane-surface $-1 -21.380280935651015 -18.437592880640615 109.24023221718865 0.75470958851134928 0 0.65605901945558964 0.65605901945558964 0 -0.75470958851134928 forward_v I I I I #
coedge $-1 $240 $241 $242 $243 reversed $95 $-1 #
face $-1 $-1 $244 $51 $-1 $245 forward single #
loop $-1 $246 $247 $97 #
cone-surface $-1 64.01792134852694 -21.401403380785109 7.0346470293949679 -0.75470958851134928 0 -0.65605901945558964 0.32802950972779482 0 -0.37735479425567464 1 I I -0.70710678118654746 0.70710678118654746 0.5 forward I I I I #
loop $-1 $-1 $248 $65 #
coedge $-1 $156 $156 $249 $250 reversed $98 $-1 #
face $-1 $-1 $251 $52 $-1 $252 forward single #
loop $-1 $253 $254 $100 #
cone-surface $-1 64.01792134852694 -15.473782380496125 7.0346470293949679 -0.75470958851134928 0 -0.65605901945558964 0.32802950972779482 0 -0.37735479425567464 1 I I -0.70710678118654746 0.70710678118654746 0.5 forward I I I I #
loop $-1 $-1 $255 $66 #
coedge $-1 $161 $161 $256 $257 reversed $101 $-1 #
face $-1 $258 $259 $53 $-1 $260 reversed single #
loop $-1 $-1 $261 $103 #
plane-surface $-1 -21.380280935651015 26.99127303148255 109.24023221718865 0.75470958851134928 0 0.65605901945558964 0.65605901945558964 0 -0.75470958851134928 forward_v I I I I #
coedge $-1 $262 $263 $264 $265 reversed $104 $-1 #
face $-1 $-1 $266 $54 $-1 $267 forward single #
loop $-1 $268 $269 $106 #
cone-surface $-1 64.01792134852694 24.02746253133806 7.0346470293949679 -0.75470958851134928 0 -0.65605901945558964 0.32802950972779482 0 -0.37735479425567464 1 I I -0.70710678118654746 0.70710678118654746 0.5 forward I I I I #
loop $-1 $-1 $270 $68 #
coedge $-1 $170 $170 $271 $272 reversed $107 $-1 #
face $-1 $-1 $273 $55 $-1 $274 forward single #
loop $-1 $275 $276 $109 #
cone-surface $-1 64.01792134852694 29.955083531627039 7.0346470293949679 -0.75470958851134928 0 -0.65605901945558964 0.32802950972779482 0 -0.37735479425567464 1 I I -0.70710678118654746 0.70710678118654746 0.5 forward I I I I #
loop $-1 $-1 $277 $69 #
coedge $-1 $175 $175 $278 $279 reversed $110 $-1 #
face $-1 $280 $281 $42 $-1 $282 reversed single #
loop $-1 $-1 $283 $112 #
plane-surface $-1 0 -36.36050085483447 0 0 1 0 0 0 1 forward_v I I I I #
coedge $-1 $284 $285 $286 $287 forward $113 $-1 #
coedge $-1 $288 $115 $289 $290 forward $71 $-1 #
coedge $-1 $115 $288 $291 $292 forward $71 $-1 #
coedge $-1 $293 $294 $115 $183 reversed $295 $-1 #
edge $-1 $296 -36.36050085483447 $297 36.36050085483447 $182 $298 forward 7 unknown #
face $-1 $299 $300 $43 $-1 $301 reversed single #
loop $-1 $-1 $302 $116 #
plane-surface $-1 0 0 11.639421659488029 0 0 1 1 0 0 forward_v I I I I #
coedge $-1 $303 $304 $305 $306 reversed $117 $-1 #
coedge $-1 $307 $119 $308 $309 reversed $74 $-1 #
coedge $-1 $119 $307 $310 $311 reversed $74 $-1 #
coedge $-1 $304 $303 $119 $191 reversed $117 $-1 #
edge $-1 $312 -11.639421659488029 $313 11.639421659488029 $190 $314 forward 7 unknown #
face $-1 $315 $316 $44 $-1 $317 reversed single #
loop $-1 $-1 $318 $120 #
plane-surface $-1 -171.89678359257996 -11.522035046970133 95.724980819148186 0 -1 0 0.75470958851134928 0 -0.65605901945558964 forward_v I I I I #
coedge $-1 $319 $320 $321 $322 reversed $121 $-1 #
coedge $-1 $197 $123 $323 $324 reversed $77 $-1 #
coedge $-1 $123 $196 $319 $325 reversed $77 $-1 #
coedge $-1 $321 $326 $123 $199 forward $327 $-1 #
edge $-1 $328 17.447766166845724 $329 22.485584678882667 $198 $330 forward 7 unknown #
loop $-1 $-1 $205 $124 #
plane-surface $-1 -68.500625629444244 -18.437592880640615 5.8440742540529271 -0.75470958851134928 0 0.65605901945558964 0.65605901945558964 0 0.75470958851134928 forward_v I I I I #
loop $-1 $-1 $331 $79 #
coedge $-1 $203 $203 $204 $332 reversed $125 $-1 #
coedge $-1 $204 $204 $203 $332 forward $127 $-1 #
coedge $-1 $205 $205 $128 $206 forward $200 $-1 #
edge $-1 $333 0 $333 6.2831853071796004 $205 $334 forward 7 unknown #
loop $-1 $-1 $212 $129 #
plane-surface $-1 -68.500625629444244 -18.437592880640615 5.8440742540529271 -0.75470958851134928 0 0.65605901945558964 0.65605901945558964 0 0.75470958851134928 forward_v I I I I #
loop $-1 $-1 $335 $82 #
coedge $-1 $210 $210 $211 $336 reversed $130 $-1 #
coedge $-1 $211 $211 $210 $336 forward $132 $-1 #
coedge $-1 $212 $212 $133 $213 forward $207 $-1 #
edge $-1 $337 0 $337 6.2831853071796004 $212 $338 forward 7 unknown #
face $-1 $339 $340 $47 $-1 $341 forward single #
loop $-1 $-1 $342 $134 #
plane-surface $-1 -171.89678359257996 33.906830865153033 95.724980819148186 0 -1 0 0.75470958851134928 0 -0.65605901945558964 forward_v I I I I #
coedge $-1 $343 $344 $345 $346 reversed $135 $-1 #
coedge $-1 $219 $137 $347 $348 reversed $86 $-1 #
coedge $-1 $137 $218 $343 $349 reversed $86 $-1 #
coedge $-1 $345 $350 $137 $221 forward $340 $-1 #
edge $-1 $351 17.447766166845724 $352 22.485584678882667 $220 $353 forward 7 unknown #
loop $-1 $-1 $227 $138 #
plane-surface $-1 -68.500625629444244 26.99127303148255 5.8440742540529271 -0.75470958851134928 0 0.65605901945558964 0.65605901945558964 0 0.75470958851134928 forward_v I I I I #
loop $-1 $-1 $354 $88 #
coedge $-1 $225 $225 $226 $355 reversed $139 $-1 #
coedge $-1 $226 $226 $225 $355 forward $141 $-1 #
coedge $-1 $227 $227 $142 $228 forward $222 $-1 #
edge $-1 $356 0 $356 6.2831853071796004 $227 $357 forward 7 unknown #
loop $-1 $-1 $234 $143 #
plane-surface $-1 -68.500625629444244 26.99127303148255 5.8440742540529271 -0.75470958851134928 0 0.65605901945558964 0.65605901945558964 0 0.75470958851134928 forward_v I I I I #
loop $-1 $-1 $358 $91 #
coedge $-1 $232 $232 $233 $359 reversed $144 $-1 #
coedge $-1 $233 $233 $232 $359 forward $146 $-1 #
coedge $-1 $234 $234 $147 $235 forward $229 $-1 #
edge $-1 $360 0 $360 6.2831853071796004 $234 $361 forward 7 unknown #
face $-1 $362 $363 $50 $-1 $364 forward single #
loop $-1 $-1 $365 $148 #
plane-surface $-1 82.015877027484706 -25.353150714311099 199.12113878228391 0 1 0 0.75470958851134928 0 0.65605901945558964 forward_v I I I I #
coedge $-1 $366 $367 $368 $369 reversed $149 $-1 #
coedge $-1 $241 $151 $370 $371 reversed $95 $-1 #
coedge $-1 $151 $240 $366 $372 reversed $95 $-1 #
coedge $-1 $368 $373 $151 $243 forward $363 $-1 #
edge $-1 $374 -27.492687115701905 $375 -22.45486860366497 $242 $376 forward 7 unknown #
loop $-1 $-1 $249 $152 #
plane-surface $-1 -21.380280935651015 -18.437592880640615 109.24023221718865 0.75470958851134928 0 0.65605901945558964 0.65605901945558964 0 -0.75470958851134928 forward_v I I I I #
loop $-1 $-1 $377 $97 #
coedge $-1 $247 $247 $248 $378 reversed $153 $-1 #
coedge $-1 $248 $248 $247 $378 forward $155 $-1 #
coedge $-1 $249 $249 $156 $250 forward $244 $-1 #
edge $-1 $379 0 $379 6.2831853071796004 $249 $380 forward 7 unknown #
loop $-1 $-1 $256 $157 #
plane-surface $-1 -21.380280935651015 -18.437592880640615 109.24023221718865 0.75470958851134928 0 0.65605901945558964 0.65605901945558964 0 -0.75470958851134928 forward_v I I I I #
loop $-1 $-1 $381 $100 #
coedge $-1 $254 $254 $255 $382 reversed $158 $-1 #
coedge $-1 $255 $255 $254 $382 forward $160 $-1 #
coedge $-1 $256 $256 $161 $257 forward $251 $-1 #
edge $-1 $383 0 $383 6.2831853071796004 $256 $384 forward 7 unknown #
face $-1 $385 $386 $53 $-1 $387 reversed single #
loop $-1 $-1 $388 $162 #
plane-surface $-1 82.015877027484706 20.075715197812066 199.12113878228391 0 1 0 0.75470958851134928 0 0.65605901945558964 forward_v I I I I #
coedge $-1 $389 $390 $391 $392 reversed $163 $-1 #
coedge $-1 $263 $165 $393 $394 reversed $104 $-1 #
coedge $-1 $165 $262 $389 $395 reversed $104 $-1 #
coedge $-1 $391 $396 $165 $265 forward $397 $-1 #
edge $-1 $398 -27.492687115701905 $399 -22.45486860366497 $264 $400 forward 7 unknown #
loop $-1 $-1 $271 $166 #
plane-surface $-1 -21.380280935651015 26.99127303148255 109.24023221718865 0.75470958851134928 0 0.65605901945558964 0.65605901945558964 0 -0.75470958851134928 forward_v I I I I #
loop $-1 $-1 $401 $106 #
coedge $-1 $269 $269 $270 $402 reversed $167 $-1 #
coedge $-1 $270 $270 $269 $402 forward $169 $-1 #
coedge $-1 $271 $271 $170 $272 forward $266 $-1 #
edge $-1 $403 0 $403 6.2831853071796004 $271 $404 forward 7 unknown #
loop $-1 $-1 $278 $171 #
plane-surface $-1 -21.380280935651015 26.99127303148255 109.24023221718865 0.75470958851134928 0 0.65605901945558964 0.65605901945558964 0 -0.75470958851134928 forward_v I I I I #
loop $-1 $-1 $405 $109 #
coedge $-1 $276 $276 $277 $406 reversed $172 $-1 #
coedge $-1 $277 $277 $276 $406 forward $174 $-1 #
coedge $-1 $278 $278 $175 $279 forward $273 $-1 #
edge $-1 $407 0 $407 6.2831853071796004 $278 $408 forward 7 unknown #
face $-1 $409 $410 $42 $-1 $411 reversed single #
loop $-1 $-1 $412 $176 #
plane-surface $-1 -68.500625629444258 0 0 1 0 0 0 0 -1 forward_v I I I I #
coedge $-1 $413 $291 $414 $415 forward $177 $-1 #
coedge $-1 $416 $179 $413 $417 forward $113 $-1 #
coedge $-1 $179 $416 $418 $419 forward $113 $-1 #
coedge $-1 $294 $293 $179 $287 reversed $295 $-1 #
edge $-1 $420 -36.36050085483447 $421 36.36050085483447 $286 $422 forward 7 unknown #
coedge $-1 $181 $180 $423 $424 forward $71 $-1 #
coedge $-1 $425 $426 $180 $290 reversed $410 $-1 #
edge $-1 $297 -68.500625629444258 $427 68.500625629444258 $289 $428 forward 7 unknown #
coedge $-1 $283 $429 $181 $292 reversed $177 $-1 #
edge $-1 $430 -68.500625629444258 $296 68.500625629444258 $291 $431 forward 7 unknown #
coedge $-1 $286 $182 $429 $432 forward $295 $-1 #
coedge $-1 $182 $286 $425 $433 reversed $295 $-1 #
loop $-1 $-1 $293 $409 #
vertex $-1 $183 $434 #
vertex $-1 $183 $435 #
straight-curve $-1 68.500625629444258 0 11.639421659488029 0 1 0 I I #
face $-1 $436 $437 $43 $-1 $438 reversed single #
loop $-1 $-1 $439 $184 #
plane-surface $-1 -68.500625629444258 0 0 1 0 0 0 0 -1 forward_v I I I I #
coedge $-1 $310 $440 $304 $441 forward $185 $-1 #
coedge $-1 $190 $187 $442 $443 reversed $117 $-1 #
coedge $-1 $187 $190 $302 $441 reversed $117 $-1 #
coedge $-1 $444 $445 $187 $306 forward $446 $-1 #
edge $-1 $447 -11.639421659488029 $448 11.639421659488029 $305 $449 forward 7 unknown #
coedge $-1 $189 $188 $439 $450 reversed $74 $-1 #
coedge $-1 $442 $451 $188 $309 forward $437 $-1 #
edge $-1 $452 -35.294031516189783 $313 -31.119156710319167 $308 $453 forward 7 unknown #
coedge $-1 $454 $302 $189 $311 forward $185 $-1 #
edge $-1 $312 31.119156710319167 $455 35.294031516189783 $310 $456 forward 7 unknown #
vertex $-1 $311 $457 #
vertex $-1 $309 $458 #
straight-curve $-1 -64.325750823573642 -27.806820703992539 0 0 0 -1 I I #
face $-1 $-1 $327 $44 $-1 $459 forward single #
loop $-1 $-1 $460 $192 #
plane-surface $-1 -68.500625629444258 0 0 1 0 0 0 0 -1 forward_v I I I I #
coedge $-1 $461 $462 $463 $464 reversed $193 $-1 #
coedge $-1 $465 $195 $197 $325 forward $121 $-1 #
coedge $-1 $195 $465 $461 $466 forward $121 $-1 #
coedge $-1 $463 $198 $195 $322 forward $327 $-1 #
edge $-1 $329 -16.134354273990791 $467 -2.3032386066498258 $321 $468 forward 7 unknown #
coedge $-1 $469 $470 $196 $324 forward $316 $-1 #
edge $-1 $471 -42.01841615552118 $328 -36.223068750086064 $323 $472 forward 7 unknown #
edge $-1 $329 -7.6789105288384079 $471 2.1388861263899031e-014 $197 $473 forward 7 unknown #
coedge $-1 $198 $463 $469 $474 forward $327 $-1 #
loop $-1 $-1 $463 $315 #
vertex $-1 $324 $475 #
vertex $-1 $199 $476 #
straight-curve $-1 -85.948391796289982 -25.353150714311099 11.639421659488029 1 0 0 I I #
coedge $-1 $331 $331 $-1 $477 reversed $202 $-1 #
edge $-1 $478 0 $478 6.2831853071796004 $203 $479 forward 7 unknown #
vertex $-1 $206 $480 #
ellipse-curve $-1 -65.981716373425783 -21.401403380785109 8.7417479567704675 -0.75470958851134928 0 0.65605901945558964 0.65605901945558964 0 0.75470958851134928 1 I I #
coedge $-1 $335 $335 $-1 $481 reversed $209 $-1 #
edge $-1 $482 0 $482 6.2831853071796004 $210 $483 forward 7 unknown #
vertex $-1 $213 $484 #
ellipse-curve $-1 -65.981716373425783 -15.473782380496125 8.7417479567704675 -0.75470958851134928 0 0.65605901945558964 0.65605901945558964 0 0.75470958851134928 1 I I #
face $-1 $-1 $485 $47 $-1 $486 reversed single #
loop $-1 $-1 $220 $214 #
plane-surface $-1 0 0 11.639421659488029 0 0 1 1 0 0 forward_v I I I I #
coedge $-1 $487 $488 $489 $490 reversed $215 $-1 #
coedge $-1 $491 $217 $219 $349 forward $135 $-1 #
coedge $-1 $217 $491 $487 $492 forward $135 $-1 #
coedge $-1 $489 $220 $217 $346 forward $340 $-1 #
edge $-1 $352 6.5800786820707913 $493 20.411194349411758 $345 $494 forward 7 unknown #
coedge $-1 $495 $496 $218 $348 forward $485 $-1 #
edge $-1 $497 -42.01841615552118 $351 -36.223068750086064 $347 $498 forward 7 unknown #
edge $-1 $352 -7.6789105288384079 $497 2.1388861263899031e-014 $219 $499 forward 7 unknown #
coedge $-1 $220 $489 $495 $500 forward $340 $-1 #
vertex $-1 $348 $501 #
vertex $-1 $221 $502 #
straight-curve $-1 -85.948391796289982 20.075715197812066 11.639421659488029 1 0 0 I I #
coedge $-1 $354 $354 $-1 $503 reversed $224 $-1 #
edge $-1 $504 0 $504 6.2831853071796004 $225 $505 forward 7 unknown #
vertex $-1 $228 $506 #
ellipse-curve $-1 -65.981716373425783 24.02746253133806 8.7417479567704675 -0.75470958851134928 0 0.65605901945558964 0.65605901945558964 0 0.75470958851134928 1 I I #
coedge $-1 $358 $358 $-1 $507 reversed $231 $-1 #
edge $-1 $508 0 $508 6.2831853071796004 $232 $509 forward 7 unknown #
vertex $-1 $235 $510 #
ellipse-curve $-1 -65.981716373425783 29.955083531627039 8.7417479567704675 -0.75470958851134928 0 0.65605901945558964 0.65605901945558964 0 0.75470958851134928 1 I I #
face $-1 $-1 $511 $50 $-1 $512 reversed single #
loop $-1 $-1 $242 $236 #
plane-surface $-1 0 0 11.639421659488029 0 0 1 1 0 0 forward_v I I I I #
coedge $-1 $513 $514 $515 $516 reversed $237 $-1 #
coedge $-1 $517 $239 $241 $372 forward $149 $-1 #
coedge $-1 $239 $517 $513 $518 forward $149 $-1 #
coedge $-1 $515 $242 $239 $369 forward $363 $-1 #
edge $-1 $375 2.3032386066498258 $519 16.134354273990791 $368 $520 forward 7 unknown #
coedge $-1 $521 $522 $240 $371 forward $511 $-1 #
edge $-1 $523 -93.716495137089041 $374 -87.921147731653917 $370 $524 forward 7 unknown #
edge $-1 $375 129.32234073005014 $523 137.00125125888857 $241 $525 forward 7 unknown #
coedge $-1 $242 $515 $521 $526 forward $363 $-1 #
vertex $-1 $243 $527 #
vertex $-1 $243 $528 #
straight-curve $-1 41.007938513742353 -11.522035046970133 11.639421659488022 -1 0 0 I I #
coedge $-1 $377 $377 $-1 $529 reversed $246 $-1 #
edge $-1 $530 0 $530 6.2831853071796004 $247 $531 forward 7 unknown #
vertex $-1 $250 $532 #
ellipse-curve $-1 65.981716373425783 -21.401403380785109 8.7417479567704675 0.75470958851134928 0 0.65605901945558964 0.65605901945558964 0 -0.75470958851134928 1 I I #
coedge $-1 $381 $381 $-1 $533 reversed $253 $-1 #
edge $-1 $534 0 $534 6.2831853071796004 $254 $535 forward 7 unknown #
vertex $-1 $257 $536 #
ellipse-curve $-1 65.981716373425783 -15.473782380496125 8.7417479567704675 0.75470958851134928 0 0.65605901945558964 0.65605901945558964 0 -0.75470958851134928 1 I I #
face $-1 $-1 $397 $53 $-1 $537 forward single #
loop $-1 $-1 $538 $258 #
plane-surface $-1 68.500625629444258 0 0 -1 0 0 0 0 1 forward_v I I I I #
coedge $-1 $539 $540 $541 $542 reversed $259 $-1 #
coedge $-1 $543 $261 $263 $395 forward $163 $-1 #
coedge $-1 $261 $543 $539 $544 forward $163 $-1 #
coedge $-1 $541 $264 $261 $392 forward $397 $-1 #
edge $-1 $399 -20.411194349411758 $545 -6.5800786820707913 $391 $546 forward 7 unknown #
coedge $-1 $547 $548 $262 $394 forward $386 $-1 #
edge $-1 $549 -93.716495137089041 $398 -87.921147731653917 $393 $550 forward 7 unknown #
edge $-1 $399 129.32234073005014 $549 137.00125125888857 $263 $551 forward 7 unknown #
coedge $-1 $264 $541 $547 $552 forward $397 $-1 #
loop $-1 $-1 $541 $385 #
vertex $-1 $394 $553 #
vertex $-1 $265 $554 #
straight-curve $-1 41.007938513742353 33.906830865153033 11.639421659488022 -1 0 0 I I #
coedge $-1 $401 $401 $-1 $555 reversed $268 $-1 #
edge $-1 $556 0 $556 6.2831853071796004 $269 $557 forward 7 unknown #
vertex $-1 $272 $558 #
ellipse-curve $-1 65.981716373425783 24.02746253133806 8.7417479567704675 0.75470958851134928 0 0.65605901945558964 0.65605901945558964 0 -0.75470958851134928 1 I I #
coedge $-1 $405 $405 $-1 $559 reversed $275 $-1 #
edge $-1 $560 0 $560 6.2831853071796004 $276 $561 forward 7 unknown #
vertex $-1 $279 $562 #
ellipse-curve $-1 65.981716373425783 29.955083531627039 8.7417479567704675 0.75470958851134928 0 0.65605901945558964 0.65605901945558964 0 -0.75470958851134928 1 I I #
face $-1 $-1 $295 $42 $-1 $563 reversed single #
loop $-1 $-1 $425 $280 #
plane-surface $-1 0 36.36050085483447 0 0 -1 0 0 0 -1 forward_v I I I I #
coedge $-1 $564 $423 $426 $565 forward $281 $-1 #
coedge $-1 $429 $283 $284 $417 reversed $177 $-1 #
coedge $-1 $423 $564 $283 $415 reversed $281 $-1 #
edge $-1 $430 -11.639421659488029 $566 11.639421659488029 $414 $567 forward 7 unknown #
coedge $-1 $285 $284 $564 $568 forward $113 $-1 #
edge $-1 $421 -68.500625629444258 $566 68.500625629444258 $413 $569 forward 7 unknown #
coedge $-1 $426 $425 $285 $419 reversed $410 $-1 #
edge $-1 $570 -68.500625629444258 $420 68.500625629444258 $418 $571 forward 7 unknown #
vertex $-1 $287 $572 #
vertex $-1 $432 $573 #
straight-curve $-1 68.500625629444258 0 -11.639421659488029 0 -1 0 I I #
coedge $-1 $412 $414 $288 $424 reversed $281 $-1 #
edge $-1 $427 -36.36050085483447 $430 36.36050085483447 $423 $574 forward 7 unknown #
coedge $-1 $418 $289 $294 $433 forward $410 $-1 #
coedge $-1 $289 $418 $412 $565 reversed $410 $-1 #
vertex $-1 $290 $575 #
straight-curve $-1 0 36.36050085483447 11.639421659488029 -1 0 0 I I #
coedge $-1 $291 $413 $293 $432 reversed $177 $-1 #
vertex $-1 $424 $576 #
straight-curve $-1 0 -36.36050085483447 11.639421659488029 1 0 0 I I #
edge $-1 $296 -11.639421659488029 $421 11.639421659488029 $293 $577 forward 7 unknown #
edge $-1 $297 -11.639421659488029 $420 11.639421659488029 $294 $578 forward 7 unknown #
point $-1 68.500625629444258 -36.36050085483447 11.639421659488029 #
point $-1 68.500625629444258 36.36050085483447 11.639421659488029 #
face $-1 $-1 $446 $43 $-1 $579 reversed single #
loop $-1 $-1 $442 $299 #
plane-surface $-1 0 0 -11.639421659488029 0 0 1 1 0 0 forward_v I I I I #
coedge $-1 $580 $581 $307 $450 forward $300 $-1 #
coedge $-1 $302 $454 $444 $582 forward $185 $-1 #
edge $-1 $448 -20.318670465127717 $312 -11.764990314285786 $302 $583 forward 7 unknown #
coedge $-1 $584 $308 $303 $443 forward $437 $-1 #
edge $-1 $313 11.764990314285786 $447 20.318670465127717 $442 $585 forward 7 unknown #
coedge $-1 $586 $305 $440 $582 reversed $446 $-1 #
coedge $-1 $305 $586 $584 $587 reversed $446 $-1 #
loop $-1 $-1 $305 $436 #
vertex $-1 $587 $588 #
vertex $-1 $306 $589 #
straight-curve $-1 -64.325750823573642 -36.36050085483447 0 0 0 1 I I #
edge $-1 $455 -11.639421659488029 $452 11.639421659488029 $439 $590 forward 7 unknown #
coedge $-1 $308 $584 $580 $591 forward $437 $-1 #
vertex $-1 $309 $592 #
straight-curve $-1 -33.206594113254475 -27.806820703992539 -11.639421659488029 1 0 0 I I #
coedge $-1 $440 $310 $581 $593 forward $185 $-1 #
vertex $-1 $593 $594 #
straight-curve $-1 -33.206594113254475 -27.806820703992539 11.639421659488029 -1 0 0 I I #
point $-1 -64.325750823573642 -27.806820703992539 11.639421659488029 #
point $-1 -64.325750823573642 -27.806820703992539 -11.639421659488029 #
plane-surface $-1 0 0 11.639421659488029 0 0 1 1 0 0 forward_v I I I I #
coedge $-1 $470 $469 $462 $595 forward $316 $-1 #
coedge $-1 $462 $318 $320 $466 reversed $193 $-1 #
coedge $-1 $318 $461 $460 $595 reversed $193 $-1 #
coedge $-1 $326 $321 $318 $464 forward $327 $-1 #
edge $-1 $467 -22.485584678882667 $596 -17.447766166845724 $463 $597 forward 7 unknown #
coedge $-1 $320 $319 $470 $598 reversed $121 $-1 #
edge $-1 $599 -2.1388861263899031e-014 $467 7.6789105288384079 $461 $600 forward 7 unknown #
vertex $-1 $322 $601 #
straight-curve $-1 -63.462807117407316 -9.2187964403203075 11.639421659488027 0 1 0 I I #
coedge $-1 $460 $323 $326 $474 reversed $316 $-1 #
coedge $-1 $323 $460 $465 $598 forward $316 $-1 #
vertex $-1 $324 $602 #
straight-curve $-1 -68.500625629444258 -25.353150714311099 47.862490409574093 0 0 1 I I #
straight-curve $-1 -68.500625629444244 -25.353150714311099 5.8440742540529271 -0.65605901945558964 0 -0.75470958851134928 I I #
edge $-1 $596 11.522035046970133 $328 25.353150714311099 $469 $603 forward 7 unknown #
point $-1 -68.500625629444258 -25.353150714311099 11.639421659488029 #
point $-1 -63.462807117407316 -25.353150714311099 11.639421659488029 #
edge $-1 $604 1 $604 0 $331 $-1 forward 7 unknown #
vertex $-1 $332 $605 #
ellipse-curve $-1 -64.395276142782635 -21.401403380785109 7.3626765391227771 -0.75470958851134928 0 0.65605901945558964 0.65605901945558964 0 0.75470958851134928 1 I I #
point $-1 -65.3256573539702 -21.401403380785109 9.4964575452818227 #
edge $-1 $606 1 $606 0 $335 $-1 forward 7 unknown #
vertex $-1 $336 $607 #
ellipse-curve $-1 -64.395276142782635 -15.473782380496125 7.3626765391227771 -0.75470958851134928 0 0.65605901945558964 0.65605901945558964 0 0.75470958851134928 1 I I #
point $-1 -65.3256573539702 -15.473782380496125 9.4964575452818227 #
loop $-1 $-1 $347 $339 #
plane-surface $-1 -68.500625629444258 0 0 1 0 0 0 0 -1 forward_v I I I I #
coedge $-1 $488 $342 $344 $492 reversed $215 $-1 #
coedge $-1 $342 $487 $608 $609 reversed $215 $-1 #
coedge $-1 $350 $345 $342 $490 forward $340 $-1 #
edge $-1 $493 -22.485584678882667 $610 -17.447766166845724 $489 $611 forward 7 unknown #
coedge $-1 $344 $343 $496 $612 reversed $135 $-1 #
edge $-1 $613 -2.1388861263899031e-014 $493 7.6789105288384079 $487 $614 forward 7 unknown #
vertex $-1 $346 $615 #
straight-curve $-1 -63.462807117407316 13.495636515741275 11.639421659488027 0 1 0 I I #
coedge $-1 $608 $347 $350 $500 reversed $485 $-1 #
coedge $-1 $347 $608 $491 $612 forward $485 $-1 #
vertex $-1 $348 $616 #
straight-curve $-1 -68.500625629444258 20.075715197812066 47.862490409574093 0 0 1 I I #
straight-curve $-1 -68.500625629444244 20.075715197812066 5.8440742540529271 -0.65605901945558964 0 -0.75470958851134928 I I #
edge $-1 $610 -33.906830865153033 $351 -20.075715197812066 $495 $617 forward 7 unknown #
point $-1 -68.500625629444258 20.075715197812066 11.639421659488029 #
point $-1 -63.462807117407316 20.075715197812066 11.639421659488029 #
edge $-1 $618 1 $618 0 $354 $-1 forward 7 unknown #
vertex $-1 $355 $619 #
ellipse-curve $-1 -64.395276142782635 24.02746253133806 7.3626765391227771 -0.75470958851134928 0 0.65605901945558964 0.65605901945558964 0 0.75470958851134928 1 I I #
point $-1 -65.3256573539702 24.02746253133806 9.4964575452818227 #
edge $-1 $620 1 $620 0 $358 $-1 forward 7 unknown #
vertex $-1 $359 $621 #
ellipse-curve $-1 -64.395276142782635 29.955083531627039 7.3626765391227771 -0.75470958851134928 0 0.65605901945558964 0.65605901945558964 0 0.75470958851134928 1 I I #
point $-1 -65.3256573539702 29.955083531627039 9.4964575452818227 #
loop $-1 $-1 $370 $362 #
plane-surface $-1 68.500625629444258 0 0 -1 0 0 0 0 1 forward_v I I I I #
coedge $-1 $514 $365 $367 $518 reversed $237 $-1 #
coedge $-1 $365 $513 $622 $623 reversed $237 $-1 #
coedge $-1 $373 $368 $365 $516 forward $363 $-1 #
edge $-1 $519 22.45486860366497 $624 27.492687115701905 $515 $625 forward 7 unknown #
coedge $-1 $367 $366 $522 $626 reversed $149 $-1 #
edge $-1 $627 -137.00125125888857 $519 -129.32234073005014 $513 $628 forward 7 unknown #
vertex $-1 $369 $629 #
straight-curve $-1 63.462807117407309 -9.2187964403203075 11.639421659488036 0 -1 0 I I #
coedge $-1 $622 $370 $373 $526 reversed $511 $-1 #
coedge $-1 $370 $622 $517 $626 forward $511 $-1 #
vertex $-1 $371 $630 #
straight-curve $-1 68.500625629444258 -11.522035046970133 99.560569391141954 0 0 1 I I #
straight-curve $-1 -21.380280935651015 -11.522035046970133 109.24023221718865 0.65605901945558964 0 -0.75470958851134928 I I #
edge $-1 $624 -25.353150714311099 $374 -11.522035046970133 $521 $631 forward 7 unknown #
point $-1 68.500625629444258 -11.522035046970133 11.639421659488029 #
point $-1 63.462807117407323 -11.522035046970133 11.639421659488022 #
edge $-1 $632 1 $632 0 $377 $-1 forward 7 unknown #
vertex $-1 $378 $633 #
ellipse-curve $-1 64.39527614278262 -21.401403380785109 7.3626765391227629 0.75470958851134928 0 0.65605901945558964 0.65605901945558964 0 -0.75470958851134928 1 I I #
point $-1 66.637775392881366 -21.401403380785109 7.9870383682591104 #
edge $-1 $634 1 $634 0 $381 $-1 forward 7 unknown #
vertex $-1 $382 $635 #
ellipse-curve $-1 64.39527614278262 -15.473782380496125 7.3626765391227629 0.75470958851134928 0 0.65605901945558964 0.65605901945558964 0 -0.75470958851134928 1 I I #
point $-1 66.637775392881366 -15.473782380496125 7.9870383682591104 #
plane-surface $-1 0 0 11.639421659488029 0 0 1 1 0 0 forward_v I I I I #
coedge $-1 $548 $547 $540 $636 forward $386 $-1 #
coedge $-1 $540 $388 $390 $544 reversed $259 $-1 #
coedge $-1 $388 $539 $538 $636 reversed $259 $-1 #
coedge $-1 $396 $391 $388 $542 forward $397 $-1 #
edge $-1 $545 22.45486860366497 $637 27.492687115701905 $541 $638 forward 7 unknown #
coedge $-1 $390 $389 $548 $639 reversed $163 $-1 #
edge $-1 $640 -137.00125125888857 $545 -129.32234073005014 $539 $641 forward 7 unknown #
vertex $-1 $392 $642 #
straight-curve $-1 63.462807117407309 13.495636515741275 11.639421659488036 0 -1 0 I I #
coedge $-1 $538 $393 $396 $552 reversed $386 $-1 #
coedge $-1 $393 $538 $543 $639 forward $386 $-1 #
vertex $-1 $394 $643 #
straight-curve $-1 68.500625629444258 33.906830865153033 99.560569391141954 0 0 1 I I #
straight-curve $-1 -21.380280935651015 33.906830865153033 109.24023221718865 0.65605901945558964 0 -0.75470958851134928 I I #
edge $-1 $637 20.075715197812066 $398 33.906830865153033 $547 $644 forward 7 unknown #
point $-1 68.500625629444258 33.906830865153033 11.639421659488029 #
point $-1 63.462807117407323 33.906830865153033 11.639421659488022 #
edge $-1 $645 1 $645 0 $401 $-1 forward 7 unknown #
vertex $-1 $402 $646 #
ellipse-curve $-1 64.39527614278262 24.02746253133806 7.3626765391227629 0.75470958851134928 0 0.65605901945558964 0.65605901945558964 0 -0.75470958851134928 1 I I #
point $-1 66.637775392881366 24.02746253133806 7.9870383682591104 #
edge $-1 $647 1 $647 0 $405 $-1 forward 7 unknown #
vertex $-1 $406 $648 #
ellipse-curve $-1 64.39527614278262 29.955083531627039 7.3626765391227629 0.75470958851134928 0 0.65605901945558964 0.65605901945558964 0 -0.75470958851134928 1 I I #
point $-1 66.637775392881366 29.955083531627039 7.9870383682591104 #
plane-surface $-1 68.500625629444258 0 0 -1 0 0 0 0 1 forward_v I I I I #
coedge $-1 $414 $412 $416 $568 reversed $281 $-1 #
edge $-1 $427 -11.639421659488029 $570 11.639421659488029 $426 $649 forward 7 unknown #
vertex $-1 $568 $650 #
straight-curve $-1 -68.500625629444258 -36.36050085483447 0 0 0 -1 I I #
edge $-1 $566 -36.36050085483447 $570 36.36050085483447 $564 $651 forward 7 unknown #
straight-curve $-1 0 -36.36050085483447 -11.639421659488029 -1 0 0 I I #
vertex $-1 $419 $652 #
straight-curve $-1 0 36.36050085483447 -11.639421659488029 1 0 0 I I #
point $-1 68.500625629444258 36.36050085483447 -11.639421659488029 #
point $-1 68.500625629444258 -36.36050085483447 -11.639421659488029 #
straight-curve $-1 -68.500625629444258 0 11.639421659488029 0 -1 0 I I #
point $-1 -68.500625629444258 36.36050085483447 11.639421659488029 #
point $-1 -68.500625629444258 -36.36050085483447 11.639421659488029 #
straight-curve $-1 68.500625629444258 -36.36050085483447 0 0 0 -1 I I #
straight-curve $-1 68.500625629444258 36.36050085483447 0 0 0 -1 I I #
plane-surface $-1 0 -36.36050085483447 0 0 1 0 0 0 1 forward_v I I I I #
coedge $-1 $653 $439 $451 $591 reversed $300 $-1 #
coedge $-1 $439 $653 $454 $593 reversed $300 $-1 #
edge $-1 $654 -68.500625629444258 $448 -64.325750823573642 $444 $655 forward 7 unknown #
straight-curve $-1 -64.325750823573642 -16.041830389706753 11.639421659488029 0 1 0 I I #
coedge $-1 $451 $442 $445 $587 forward $437 $-1 #
straight-curve $-1 -64.325750823573642 -16.041830389706753 -11.639421659488029 0 -1 0 I I #
coedge $-1 $445 $444 $653 $656 forward $446 $-1 #
edge $-1 $447 64.325750823573642 $657 68.500625629444258 $445 $658 forward 7 unknown #
point $-1 -64.325750823573642 -36.36050085483447 -11.639421659488029 #
point $-1 -64.325750823573642 -36.36050085483447 11.639421659488029 #
straight-curve $-1 -68.500625629444258 -27.806820703992539 0 0 0 -1 I I #
edge $-1 $657 -36.36050085483447 $452 -27.806820703992539 $580 $659 forward 7 unknown #
point $-1 -68.500625629444258 -27.806820703992539 -11.639421659488029 #
edge $-1 $455 27.806820703992539 $654 36.36050085483447 $581 $660 forward 7 unknown #
point $-1 -68.500625629444258 -27.806820703992539 11.639421659488029 #
edge $-1 $596 36.223068750086064 $599 42.01841615552118 $460 $661 forward 7 unknown #
vertex $-1 $474 $662 #
straight-curve $-1 -85.948391796289982 -11.522035046970133 11.639421659488029 -1 0 0 I I #
edge $-1 $599 2.3032386066498258 $471 16.134354273990791 $470 $663 forward 7 unknown #
vertex $-1 $598 $664 #
straight-curve $-1 -68.500625629444244 -11.522035046970133 5.8440742540529271 0.65605901945558964 0 0.75470958851134928 I I #
point $-1 -63.462807117407316 -11.522035046970133 11.639421659488029 #
point $-1 -68.500625629444258 -25.353150714311099 5.8440742540529111 #
straight-curve $-1 -68.500625629444258 0 11.639421659488029 0 -1 0 I I #
vertex $-1 $477 $665 #
point $-1 -63.739217123327037 -21.401403380785109 8.117386127634127 #
vertex $-1 $481 $666 #
point $-1 -63.739217123327037 -15.473782380496125 8.117386127634127 #
coedge $-1 $496 $495 $488 $609 forward $485 $-1 #
edge $-1 $610 36.223068750086064 $613 42.01841615552118 $608 $667 forward 7 unknown #
vertex $-1 $500 $668 #
straight-curve $-1 -85.948391796289982 33.906830865153033 11.639421659488029 -1 0 0 I I #
edge $-1 $613 -20.411194349411758 $497 -6.5800786820707913 $496 $669 forward 7 unknown #
vertex $-1 $612 $670 #
straight-curve $-1 -68.500625629444244 33.906830865153033 5.8440742540529271 0.65605901945558964 0 0.75470958851134928 I I #
point $-1 -63.462807117407316 33.906830865153033 11.639421659488029 #
point $-1 -68.500625629444258 20.075715197812066 5.8440742540529111 #
straight-curve $-1 -68.500625629444258 0 11.639421659488029 0 -1 0 I I #
vertex $-1 $503 $671 #
point $-1 -63.739217123327037 24.02746253133806 8.117386127634127 #
vertex $-1 $507 $672 #
point $-1 -63.739217123327037 29.955083531627039 8.117386127634127 #
coedge $-1 $522 $521 $514 $623 forward $511 $-1 #
edge $-1 $624 87.921147731653917 $627 93.716495137089041 $622 $673 forward 7 unknown #
vertex $-1 $526 $674 #
straight-curve $-1 41.007938513742353 -25.353150714311099 11.639421659488022 1 0 0 I I #
edge $-1 $627 -16.134354273990791 $523 -2.3032386066498258 $522 $675 forward 7 unknown #
vertex $-1 $626 $676 #
straight-curve $-1 -21.380280935651015 -25.353150714311099 109.24023221718865 -0.65605901945558964 0 0.75470958851134928 I I #
point $-1 63.462807117407323 -25.353150714311099 11.639421659488022 #
point $-1 68.500625629444272 -11.522035046970133 5.8440742540529129 #
straight-curve $-1 68.500625629444258 0 11.639421659488029 0 1 0 I I #
vertex $-1 $529 $677 #
point $-1 65.051335162238203 -21.401403380785109 6.6079669506114138 #
vertex $-1 $533 $678 #
point $-1 65.051335162238203 -15.473782380496125 6.6079669506114138 #
edge $-1 $637 87.921147731653917 $640 93.716495137089041 $538 $679 forward 7 unknown #
vertex $-1 $552 $680 #
straight-curve $-1 41.007938513742353 20.075715197812066 11.639421659488022 1 0 0 I I #
edge $-1 $640 6.5800786820707913 $549 20.411194349411758 $548 $681 forward 7 unknown #
vertex $-1 $639 $682 #
straight-curve $-1 -21.380280935651015 20.075715197812066 109.24023221718865 -0.65605901945558964 0 0.75470958851134928 I I #
point $-1 63.462807117407323 20.075715197812066 11.639421659488022 #
point $-1 68.500625629444272 33.906830865153033 5.8440742540529129 #
straight-curve $-1 68.500625629444258 0 11.639421659488029 0 1 0 I I #
vertex $-1 $555 $683 #
point $-1 65.051335162238203 24.02746253133806 6.6079669506114138 #
vertex $-1 $559 $684 #
point $-1 65.051335162238203 29.955083531627039 6.6079669506114138 #
straight-curve $-1 -68.500625629444258 36.36050085483447 0 0 0 -1 I I #
point $-1 -68.500625629444258 -36.36050085483447 -11.639421659488029 #
straight-curve $-1 -68.500625629444258 0 -11.639421659488029 0 1 0 I I #
point $-1 -68.500625629444258 36.36050085483447 -11.639421659488029 #
coedge $-1 $581 $580 $586 $656 reversed $300 $-1 #
vertex $-1 $593 $685 #
straight-curve $-1 0 -36.36050085483447 11.639421659488029 1 0 0 I I #
edge $-1 $654 -11.639421659488029 $657 11.639421659488029 $653 $686 forward 7 unknown #
vertex $-1 $591 $687 #
straight-curve $-1 0 -36.36050085483447 -11.639421659488029 -1 0 0 I I #
straight-curve $-1 -68.500625629444258 0 -11.639421659488029 0 1 0 I I #
straight-curve $-1 -68.500625629444258 0 11.639421659488029 0 -1 0 I I #
straight-curve $-1 -68.500625629444258 -11.522035046970133 47.862490409574093 0 0 -1 I I #
point $-1 -68.500625629444258 -11.522035046970133 11.639421659488029 #
straight-curve $-1 -68.500625629444258 -9.2187964403203075 5.8440742540528978 0 -1 0 I I #
point $-1 -68.500625629444258 -11.522035046970133 5.8440742540529111 #
point $-1 -63.640566554271281 -21.401403380785109 6.7066175196671871 #
point $-1 -63.640566554271281 -15.473782380496125 6.7066175196671871 #
straight-curve $-1 -68.500625629444258 33.906830865153033 47.862490409574093 0 0 -1 I I #
point $-1 -68.500625629444258 33.906830865153033 11.639421659488029 #
straight-curve $-1 -68.500625629444258 13.495636515741275 5.8440742540528978 0 -1 0 I I #
point $-1 -68.500625629444258 33.906830865153033 5.8440742540529111 #
point $-1 -63.640566554271281 24.02746253133806 6.7066175196671871 #
point $-1 -63.640566554271281 29.955083531627039 6.7066175196671871 #
straight-curve $-1 68.500625629444258 -25.353150714311099 99.560569391141954 0 0 -1 I I #
point $-1 68.500625629444258 -25.353150714311099 11.639421659488029 #
straight-curve $-1 68.500625629444244 -9.2187964403203075 5.8440742540529058 0 1 0 I I #
point $-1 68.500625629444272 -25.353150714311099 5.8440742540529129 #
point $-1 63.640566554271267 -21.401403380785109 6.7066175196671729 #
point $-1 63.640566554271267 -15.473782380496125 6.7066175196671729 #
straight-curve $-1 68.500625629444258 20.075715197812066 99.560569391141954 0 0 -1 I I #
point $-1 68.500625629444258 20.075715197812066 11.639421659488029 #
straight-curve $-1 68.500625629444244 13.495636515741275 5.8440742540529058 0 1 0 I I #
point $-1 68.500625629444272 20.075715197812066 5.8440742540529129 #
point $-1 63.640566554271267 24.02746253133806 6.7066175196671729 #
point $-1 63.640566554271267 29.955083531627039 6.7066175196671729 #
point $-1 -68.500625629444258 -36.36050085483447 11.639421659488029 #
straight-curve $-1 -68.500625629444258 -36.36050085483447 0 0 0 -1 I I #
point $-1 -68.500625629444258 -36.36050085483447 -11.639421659488029 #
End-of-ACIS-data 