500 0 7 0           
7 Unknown 11 ACIS 5.0 NT 24 Thu Mar 25 17:48:46 1999 
-1 9.9999999999999995e-007 1e-010 
body $-1 $7 $-1 $8 #
body $-1 $9 $-1 $10 #
body $-1 $11 $-1 $12 #
body $-1 $13 $-1 $14 #
body $-1 $15 $-1 $16 #
body $-1 $17 $-1 $18 #
body $-1 $19 $-1 $20 #
lump $-1 $-1 $21 $0 #
transform $-1 1 0 0 0 1 0 0 0 1 62.168645283364363 29.799474880645334 6.1216835616348133 1 rotate no_reflect no_shear #
lump $-1 $-1 $22 $1 #
transform $-1 1 0 0 0 1 0 0 0 1 62.168645283364363 29.799474880645334 6.1216835616348133 1 rotate no_reflect no_shear #
lump $-1 $-1 $23 $2 #
transform $-1 1 0 0 0 1 0 0 0 1 62.168645283364363 29.799474880645334 6.1216835616348133 1 rotate no_reflect no_shear #
lump $-1 $-1 $24 $3 #
transform $-1 1 0 0 0 1 0 0 0 1 62.168645283364363 29.799474880645334 6.1216835616348133 1 rotate no_reflect no_shear #
lump $-1 $-1 $25 $4 #
transform $-1 1 0 0 0 1 0 0 0 1 62.168645283364363 29.799474880645334 6.1216835616348133 1 rotate no_reflect no_shear #
lump $-1 $-1 $26 $5 #
transform $-1 1 0 0 0 1 0 0 0 1 62.168645283364363 29.799474880645334 6.1216835616348133 1 rotate no_reflect no_shear #
lump $-1 $-1 $27 $6 #
transform $-1 1 0 0 0 1 0 0 0 1 62.168645283364363 29.799474880645334 6.1216835616348133 1 rotate no_reflect no_shear #
shell $-1 $-1 $-1 $28 $-1 $7 #
shell $-1 $-1 $-1 $29 $-1 $9 #
shell $-1 $-1 $-1 $30 $-1 $11 #
shell $-1 $-1 $-1 $31 $-1 $13 #
shell $-1 $-1 $-1 $32 $-1 $15 #
shell $-1 $-1 $-1 $33 $-1 $17 #
shell $-1 $-1 $-1 $34 $-1 $19 #
face $-1 $35 $36 $21 $-1 $37 forward single #
face $-1 $38 $39 $22 $-1 $40 forward single #
face $-1 $41 $42 $23 $-1 $43 reversed single #
face $-1 $44 $45 $24 $-1 $46 forward single #
face $-1 $47 $48 $25 $-1 $49 reversed single #
face $-1 $50 $51 $26 $-1 $52 forward single #
face $-1 $53 $54 $27 $-1 $55 forward single #
face $-1 $56 $57 $21 $-1 $58 reversed single #
loop $-1 $-1 $59 $28 #
plane-surface $-1 0 0 6.1216835616348133 0 0 1 1 0 0 forward_v I I I I #
face $-1 $60 $61 $22 $-1 $62 forward single #
loop $-1 $-1 $63 $29 #
plane-surface $-1 -62.168645283364363 0 0 1 0 0 0 0 -1 forward_v I I I I #
face $-1 $64 $65 $23 $-1 $66 reversed single #
loop $-1 $-1 $67 $30 #
plane-surface $-1 41.009766284957159 66.392180046428493 133.2472639946684 1 0 0 0 -0.6560590369687036 -0.75470957328743171 forward_v I I I I #
face $-1 $68 $69 $24 $-1 $70 forward single #
loop $-1 $71 $72 $31 #
cone-surface $-1 51.589205784160761 25.742832022284038 2.3949226243677102 0 -0.6560590369687036 -0.75470957328743171 1 0 0 1 I I 0 1 1 forward I I I I #
face $-1 $73 $74 $25 $-1 $75 reversed single #
loop $-1 $-1 $76 $32 #
plane-surface $-1 -16.465199821856721 -116.1714155476961 91.776950381142115 -1 0 0 0 -0.69465837861970381 0.71933979245794832 forward_v I I I I #
face $-1 $77 $78 $26 $-1 $79 forward single #
loop $-1 $80 $81 $33 #
cone-surface $-1 -31.904816956831318 -27.333467317475659 3.704947140262028 0 0.69465837861970381 -0.71933979245794832 1 0 0 1 I I 0 1 1 forward I I I I #
face $-1 $82 $83 $27 $-1 $84 forward single #
loop $-1 $85 $86 $34 #
cone-surface $-1 -22.64104667584656 -27.333467317475659 3.704947140262028 0 0.69465837861970381 -0.71933979245794832 1 0 0 1 I I 0 1 1 forward I I I I #
face $-1 $87 $88 $21 $-1 $89 reversed single #
loop $-1 $-1 $90 $35 #
plane-surface $-1 0 0 -6.1216835616348133 0 0 1 1 0 0 forward_v I I I I #
coedge $-1 $91 $92 $93 $94 forward $36 $-1 #
face $-1 $95 $96 $22 $-1 $97 reversed single #
loop $-1 $-1 $98 $38 #
plane-surface $-1 0 0 6.1216835616348133 0 0 1 1 0 0 forward_v I I I I #
coedge $-1 $99 $100 $101 $102 forward $39 $-1 #
face $-1 $103 $104 $23 $-1 $105 forward single #
loop $-1 $-1 $106 $41 #
plane-surface $-1 51.589205784160761 -15.180423062077423 39.408720487337163 0 0.6560590369687036 0.75470957328743171 1 0 0 forward_v I I I I #
coedge $-1 $107 $108 $109 $110 reversed $42 $-1 #
face $-1 $-1 $111 $24 $-1 $112 forward single #
loop $-1 $113 $114 $44 #
cone-surface $-1 51.589205784160761 24.701931200911041 1.1975032299749673 0 -0.6560590369687036 -0.75470957328743171 0.5 0 0 1 I I -0.70710678118654768 0.70710678118654735 0.5 forward I I I I #
loop $-1 $-1 $115 $31 #
coedge $-1 $72 $72 $116 $117 reversed $45 $-1 #
face $-1 $118 $119 $25 $-1 $120 reversed single #
loop $-1 $-1 $121 $47 #
plane-surface $-1 -27.272931816338939 -29.799474880645334 2.3361895900878551 0 -0.69465837861970381 0.71933979245794832 1 0 0 forward_v I I I I #
coedge $-1 $122 $123 $124 $125 reversed $48 $-1 #
face $-1 $-1 $126 $26 $-1 $127 forward single #
loop $-1 $128 $129 $50 #
cone-surface $-1 -31.904816956831318 -26.480127400601965 2.8212878084337456 0 0.69465837861970381 -0.71933979245794832 0.5 0 0 1 I I -0.70710678118654746 0.70710678118654746 0.5 forward I I I I #
loop $-1 $-1 $130 $33 #
coedge $-1 $81 $81 $131 $132 reversed $51 $-1 #
face $-1 $-1 $133 $27 $-1 $134 forward single #
loop $-1 $135 $136 $53 #
cone-surface $-1 -22.64104667584656 -26.480127400601965 2.8212878084337456 0 0.69465837861970381 -0.71933979245794832 0.5 0 0 1 I I -0.70710678118654746 0.70710678118654746 0.5 forward I I I I #
loop $-1 $-1 $137 $34 #
coedge $-1 $86 $86 $138 $139 reversed $54 $-1 #
face $-1 $140 $141 $21 $-1 $142 reversed single #
loop $-1 $-1 $143 $56 #
plane-surface $-1 0 -29.799474880645334 0 0 1 0 0 0 1 forward_v I I I I #
coedge $-1 $144 $145 $146 $147 forward $57 $-1 #
coedge $-1 $148 $59 $149 $150 forward $36 $-1 #
coedge $-1 $59 $148 $151 $152 forward $36 $-1 #
coedge $-1 $153 $154 $59 $94 reversed $155 $-1 #
edge $-1 $156 -29.799474880645334 $157 29.799474880645334 $93 $158 forward 7 unknown #
face $-1 $159 $160 $22 $-1 $161 reversed single #
loop $-1 $-1 $162 $60 #
plane-surface $-1 -66.818572765381475 -28.299474880645334 0 1 0 0 0 0 -1 forward_v I I I I #
coedge $-1 $163 $164 $99 $165 forward $61 $-1 #
coedge $-1 $166 $63 $98 $165 reversed $39 $-1 #
coedge $-1 $63 $166 $167 $168 reversed $39 $-1 #
coedge $-1 $169 $170 $63 $102 reversed $160 $-1 #
edge $-1 $171 -6.1216835616348133 $172 6.1216835616348133 $101 $173 forward 7 unknown #
face $-1 $174 $175 $23 $-1 $176 reversed single #
loop $-1 $-1 $109 $64 #
plane-surface $-1 0 0 6.1216835616348133 0 0 1 1 0 0 forward_v I I I I #
coedge $-1 $177 $178 $179 $180 reversed $65 $-1 #
coedge $-1 $108 $67 $181 $182 reversed $42 $-1 #
coedge $-1 $67 $107 $177 $183 reversed $42 $-1 #
coedge $-1 $179 $184 $67 $110 forward $104 $-1 #
edge $-1 $185 3.3966151425689119 $186 10.084158253514204 $109 $187 forward 7 unknown #
loop $-1 $-1 $116 $68 #
plane-surface $-1 51.589205784160761 -15.180423062077423 39.408720487337163 0 0.6560590369687036 0.75470957328743171 1 0 0 forward_v I I I I #
loop $-1 $-1 $188 $44 #
coedge $-1 $114 $114 $115 $189 reversed $69 $-1 #
coedge $-1 $115 $115 $114 $189 forward $71 $-1 #
coedge $-1 $116 $116 $72 $117 forward $111 $-1 #
edge $-1 $190 -1.2836516982859509e-015 $190 6.2831853071795996 $116 $191 forward 7 unknown #
face $-1 $192 $193 $25 $-1 $194 reversed single #
loop $-1 $-1 $195 $73 #
plane-surface $-1 -38.080663810821157 -116.1714155476961 91.776950381142115 1 0 0 0 0.69465837861970381 -0.71933979245794832 forward_v I I I I #
coedge $-1 $196 $197 $198 $199 reversed $74 $-1 #
coedge $-1 $123 $76 $200 $201 reversed $48 $-1 #
coedge $-1 $76 $122 $196 $202 reversed $48 $-1 #
coedge $-1 $198 $203 $76 $125 forward $204 $-1 #
edge $-1 $205 28.286232893202715 $206 32.206226564414393 $124 $207 forward 7 unknown #
loop $-1 $-1 $131 $77 #
plane-surface $-1 -27.272931816338939 -29.799474880645334 2.3361895900878551 0 -0.69465837861970381 0.71933979245794832 1 0 0 forward_v I I I I #
loop $-1 $-1 $208 $50 #
coedge $-1 $129 $129 $130 $209 reversed $78 $-1 #
coedge $-1 $130 $130 $129 $209 forward $80 $-1 #
coedge $-1 $131 $131 $81 $132 forward $126 $-1 #
edge $-1 $210 2.4679223238155992e-015 $210 6.2831853071796031 $131 $211 forward 7 unknown #
loop $-1 $-1 $138 $82 #
plane-surface $-1 -27.272931816338939 -29.799474880645334 2.3361895900878551 0 -0.69465837861970381 0.71933979245794832 1 0 0 forward_v I I I I #
loop $-1 $-1 $212 $53 #
coedge $-1 $136 $136 $137 $213 reversed $83 $-1 #
coedge $-1 $137 $137 $136 $213 forward $85 $-1 #
coedge $-1 $138 $138 $86 $139 forward $133 $-1 #
edge $-1 $214 2.4679223238155992e-015 $214 6.2831853071796031 $138 $215 forward 7 unknown #
face $-1 $216 $217 $21 $-1 $218 reversed single #
loop $-1 $-1 $219 $87 #
plane-surface $-1 -62.168645283364363 0 0 1 0 0 0 0 -1 forward_v I I I I #
coedge $-1 $220 $151 $221 $222 forward $88 $-1 #
coedge $-1 $223 $90 $220 $224 forward $57 $-1 #
coedge $-1 $90 $223 $225 $226 forward $57 $-1 #
coedge $-1 $154 $153 $90 $147 reversed $155 $-1 #
edge $-1 $227 -29.799474880645334 $228 29.799474880645334 $146 $229 forward 7 unknown #
coedge $-1 $92 $91 $230 $231 forward $36 $-1 #
coedge $-1 $232 $233 $91 $150 reversed $217 $-1 #
edge $-1 $157 -62.168645283364363 $234 62.168645283364363 $149 $235 forward 7 unknown #
coedge $-1 $143 $236 $92 $152 reversed $88 $-1 #
edge $-1 $237 -62.168645283364363 $156 62.168645283364363 $151 $238 forward 7 unknown #
coedge $-1 $146 $93 $236 $239 forward $155 $-1 #
coedge $-1 $93 $146 $232 $240 reversed $155 $-1 #
loop $-1 $-1 $153 $216 #
vertex $-1 $94 $241 #
vertex $-1 $94 $242 #
straight-curve $-1 62.168645283364363 0 6.1216835616348133 0 1 0 I I #
face $-1 $243 $244 $22 $-1 $245 reversed single #
loop $-1 $-1 $101 $95 #
plane-surface $-1 -64.493609024372915 -26.799474880645334 0 0 -1 0 0 0 -1 forward_v I I I I #
coedge $-1 $246 $247 $248 $249 forward $96 $-1 #
coedge $-1 $250 $98 $170 $251 forward $61 $-1 #
coedge $-1 $98 $250 $252 $253 forward $61 $-1 #
edge $-1 $254 -29.799474880645334 $172 -26.799474880645334 $98 $255 forward 7 unknown #
coedge $-1 $100 $99 $256 $257 reversed $39 $-1 #
coedge $-1 $258 $259 $100 $168 forward $244 $-1 #
edge $-1 $171 26.799474880645334 $260 29.799474880645334 $167 $261 forward 7 unknown #
coedge $-1 $248 $101 $259 $262 reversed $160 $-1 #
coedge $-1 $101 $248 $163 $251 reversed $160 $-1 #
vertex $-1 $168 $263 #
vertex $-1 $251 $264 #
straight-curve $-1 -62.168645283364363 -26.799474880645334 0 0 0 1 I I #
face $-1 $-1 $265 $23 $-1 $266 reversed single #
loop $-1 $-1 $267 $103 #
plane-surface $-1 62.168645283364363 0 0 -1 0 0 0 0 1 forward_v I I I I #
coedge $-1 $268 $106 $108 $183 forward $65 $-1 #
coedge $-1 $106 $268 $267 $269 reversed $65 $-1 #
coedge $-1 $270 $109 $106 $180 forward $104 $-1 #
edge $-1 $186 15.215163392876779 $271 36.374042391283979 $179 $272 forward 7 unknown #
coedge $-1 $273 $274 $107 $182 forward $265 $-1 #
edge $-1 $275 -66.315341094735544 $185 -60.50194843569939 $181 $276 forward 7 unknown #
edge $-1 $186 50.737868164279661 $275 59.598949761290669 $108 $277 forward 7 unknown #
coedge $-1 $109 $270 $273 $278 forward $104 $-1 #
vertex $-1 $182 $279 #
vertex $-1 $110 $280 #
straight-curve $-1 41.009766284957159 33.196090023214246 6.1216835616348106 0 -1 0 I I #
coedge $-1 $188 $188 $-1 $281 reversed $113 $-1 #
edge $-1 $282 0 $282 6.2831853071796004 $114 $283 forward 7 unknown #
vertex $-1 $117 $284 #
ellipse-curve $-1 51.589205784160761 26.455703325172689 3.2149872321167434 0 0.6560590369687036 0.75470957328743171 1 0 0 1 I I #
face $-1 $-1 $204 $25 $-1 $285 forward single #
loop $-1 $-1 $286 $118 #
plane-surface $-1 0 -29.799474880645334 0 0 1 0 0 0 1 forward_v I I I I #
coedge $-1 $287 $288 $289 $290 reversed $119 $-1 #
coedge $-1 $291 $121 $123 $202 forward $74 $-1 #
coedge $-1 $121 $291 $287 $292 forward $74 $-1 #
coedge $-1 $289 $124 $121 $199 forward $204 $-1 #
edge $-1 $206 2.8287339136872518 $293 24.444197902651688 $198 $294 forward 7 unknown #
coedge $-1 $295 $296 $122 $201 forward $193 $-1 #
edge $-1 $297 -43.552285600483202 $205 -39.766791628936247 $200 $298 forward 7 unknown #
edge $-1 $206 -5.449432538435353 $297 0 $123 $299 forward 7 unknown #
coedge $-1 $124 $289 $295 $300 forward $204 $-1 #
loop $-1 $-1 $289 $192 #
vertex $-1 $201 $301 #
vertex $-1 $125 $302 #
straight-curve $-1 -16.465199821856721 -58.08570777384805 6.1216835616348106 0 1 0 I I #
coedge $-1 $208 $208 $-1 $303 reversed $128 $-1 #
edge $-1 $304 0 $304 6.2831853071796004 $129 $305 forward 7 unknown #
vertex $-1 $132 $306 #
ellipse-curve $-1 -31.904816956831318 -27.839478045039499 4.2289365758613329 0 -0.69465837861970381 0.71933979245794832 1 0 0 1 I I #
coedge $-1 $212 $212 $-1 $307 reversed $135 $-1 #
edge $-1 $308 0 $308 6.2831853071796004 $136 $309 forward 7 unknown #
vertex $-1 $139 $310 #
ellipse-curve $-1 -22.64104667584656 -27.839478045039499 4.2289365758613329 0 -0.69465837861970381 0.71933979245794832 1 0 0 1 I I #
face $-1 $-1 $155 $21 $-1 $311 reversed single #
loop $-1 $-1 $232 $140 #
plane-surface $-1 0 29.799474880645334 0 0 -1 0 0 0 -1 forward_v I I I I #
coedge $-1 $312 $230 $233 $313 forward $141 $-1 #
coedge $-1 $236 $143 $144 $224 reversed $88 $-1 #
coedge $-1 $230 $312 $143 $222 reversed $141 $-1 #
edge $-1 $237 -6.1216835616348133 $314 6.1216835616348133 $221 $315 forward 7 unknown #
coedge $-1 $145 $144 $312 $316 forward $57 $-1 #
edge $-1 $228 -62.168645283364363 $314 62.168645283364363 $220 $317 forward 7 unknown #
coedge $-1 $233 $232 $145 $226 reversed $217 $-1 #
edge $-1 $318 -62.168645283364363 $227 62.168645283364363 $225 $319 forward 7 unknown #
vertex $-1 $147 $320 #
vertex $-1 $239 $321 #
straight-curve $-1 62.168645283364363 0 -6.1216835616348133 0 -1 0 I I #
coedge $-1 $219 $221 $148 $231 reversed $141 $-1 #
edge $-1 $234 -29.799474880645334 $237 29.799474880645334 $230 $322 forward 7 unknown #
coedge $-1 $225 $149 $154 $240 forward $217 $-1 #
coedge $-1 $149 $225 $219 $313 reversed $217 $-1 #
vertex $-1 $150 $323 #
straight-curve $-1 0 29.799474880645334 6.1216835616348133 -1 0 0 I I #
coedge $-1 $151 $220 $153 $239 reversed $88 $-1 #
vertex $-1 $231 $324 #
straight-curve $-1 0 -29.799474880645334 6.1216835616348133 1 0 0 I I #
edge $-1 $156 -6.1216835616348133 $228 6.1216835616348133 $153 $325 forward 7 unknown #
edge $-1 $157 -6.1216835616348133 $227 6.1216835616348133 $154 $326 forward 7 unknown #
point $-1 62.168645283364363 -29.799474880645334 6.1216835616348133 #
point $-1 62.168645283364363 29.799474880645334 6.1216835616348133 #
face $-1 $-1 $327 $22 $-1 $328 reversed single #
loop $-1 $-1 $167 $159 #
plane-surface $-1 0 0 -6.1216835616348133 0 0 1 1 0 0 forward_v I I I I #
coedge $-1 $329 $162 $330 $331 reversed $96 $-1 #
coedge $-1 $162 $329 $250 $332 reversed $96 $-1 #
coedge $-1 $170 $169 $162 $249 reversed $160 $-1 #
edge $-1 $333 -6.1216835616348133 $334 6.1216835616348133 $248 $335 forward 7 unknown #
coedge $-1 $164 $163 $247 $332 forward $61 $-1 #
edge $-1 $172 -2.3249637410085597 $333 2.3249637410085597 $170 $336 forward 7 unknown #
coedge $-1 $337 $256 $164 $253 reversed $327 $-1 #
edge $-1 $338 -66.818572765381475 $254 -62.168645283364363 $252 $339 forward 7 unknown #
vertex $-1 $257 $340 #
straight-curve $-1 -62.168645283364363 0 6.1216835616348133 0 1 0 I I #
coedge $-1 $252 $341 $166 $257 forward $327 $-1 #
edge $-1 $260 -6.1216835616348133 $254 6.1216835616348133 $256 $342 forward 7 unknown #
coedge $-1 $330 $167 $341 $343 forward $244 $-1 #
coedge $-1 $167 $330 $169 $262 forward $244 $-1 #
vertex $-1 $343 $344 #
straight-curve $-1 -62.168645283364363 0 -6.1216835616348133 0 -1 0 I I #
edge $-1 $334 -2.3249637410085597 $171 2.3249637410085597 $169 $345 forward 7 unknown #
point $-1 -62.168645283364356 -26.799474880645334 -6.1216835616348133 #
point $-1 -62.168645283364356 -26.799474880645334 6.1216835616348133 #
loop $-1 $-1 $181 $174 #
plane-surface $-1 0 29.799474880645334 0 0 -1 0 0 0 -1 forward_v I I I I #
coedge $-1 $346 $347 $178 $269 forward $175 $-1 #
coedge $-1 $178 $177 $274 $348 reversed $65 $-1 #
edge $-1 $271 32.082239252982468 $349 40.943320849993484 $267 $350 forward 7 unknown #
coedge $-1 $184 $179 $347 $351 forward $104 $-1 #
vertex $-1 $351 $352 #
straight-curve $-1 25.79460289208038 23.111931769700032 6.1216835616348177 1 0 0 I I #
coedge $-1 $353 $181 $184 $278 reversed $265 $-1 #
coedge $-1 $181 $353 $268 $348 forward $265 $-1 #
vertex $-1 $182 $354 #
straight-curve $-1 41.009766284957159 29.799474880645334 66.623631997334201 0 0 1 I I #
straight-curve $-1 41.009766284957159 -15.180423062077423 39.408720487337163 0 0.75470957328743171 -0.6560590369687036 I I #
edge $-1 $355 -62.168645283364363 $185 -41.009766284957159 $273 $356 forward 7 unknown #
point $-1 41.009766284957159 29.799474880645334 6.1216835616348133 #
point $-1 41.009766284957159 23.111931769700043 6.1216835616348106 #
edge $-1 $357 1 $357 0 $188 $-1 forward 7 unknown #
vertex $-1 $189 $358 #
ellipse-curve $-1 51.589205784160761 25.029960719395394 1.574858016618683 0 0.6560590369687036 0.75470957328743171 1 0 0 1 I I #
point $-1 52.589205784160761 26.455703325172681 3.2149872321167372 #
plane-surface $-1 0 0 6.1216835616348133 0 0 1 1 0 0 forward_v I I I I #
coedge $-1 $296 $295 $288 $359 forward $193 $-1 #
coedge $-1 $288 $195 $197 $292 reversed $119 $-1 #
coedge $-1 $195 $287 $286 $359 reversed $119 $-1 #
coedge $-1 $203 $198 $195 $290 forward $204 $-1 #
edge $-1 $293 -32.206226564414393 $360 -28.286232893202715 $289 $361 forward 7 unknown #
coedge $-1 $197 $196 $296 $362 reversed $74 $-1 #
edge $-1 $363 0 $293 5.449432538435353 $287 $364 forward 7 unknown #
vertex $-1 $199 $365 #
straight-curve $-1 -13.63646590816947 -25.87948120943366 6.1216835616348142 -1 0 0 I I #
coedge $-1 $286 $200 $203 $300 reversed $193 $-1 #
coedge $-1 $200 $286 $291 $362 forward $193 $-1 #
vertex $-1 $201 $366 #
straight-curve $-1 -16.465199821856721 -29.799474880645334 45.888475190571057 0 0 1 I I #
straight-curve $-1 -16.465199821856721 -29.799474880645334 2.3361895900878551 0 -0.71933979245794832 -0.69465837861970381 I I #
edge $-1 $360 -38.080663810821157 $205 -16.465199821856721 $295 $367 forward 7 unknown #
point $-1 -16.465199821856721 -29.799474880645334 6.1216835616348133 #
point $-1 -16.465199821856721 -25.879481209433656 6.1216835616348142 #
edge $-1 $368 1 $368 0 $208 $-1 forward 7 unknown #
vertex $-1 $209 $369 #
ellipse-curve $-1 -31.904816956831318 -26.827456589911819 3.1809577046627195 0 -0.69465837861970381 0.71933979245794832 1 0 0 1 I I #
point $-1 -30.904816956831318 -27.839478045039499 4.2289365758613364 #
edge $-1 $370 1 $370 0 $212 $-1 forward 7 unknown #
vertex $-1 $213 $371 #
ellipse-curve $-1 -22.64104667584656 -26.827456589911819 3.1809577046627195 0 -0.69465837861970381 0.71933979245794832 1 0 0 1 I I #
point $-1 -21.64104667584656 -27.839478045039499 4.2289365758613364 #
plane-surface $-1 62.168645283364363 0 0 -1 0 0 0 0 1 forward_v I I I I #
coedge $-1 $221 $219 $223 $316 reversed $141 $-1 #
edge $-1 $234 -6.1216835616348133 $318 6.1216835616348133 $233 $372 forward 7 unknown #
vertex $-1 $316 $373 #
straight-curve $-1 -62.168645283364363 -29.799474880645334 0 0 0 -1 I I #
edge $-1 $314 -29.799474880645334 $318 29.799474880645334 $312 $374 forward 7 unknown #
straight-curve $-1 0 -29.799474880645334 -6.1216835616348133 -1 0 0 I I #
vertex $-1 $226 $375 #
straight-curve $-1 0 29.799474880645334 -6.1216835616348133 1 0 0 I I #
point $-1 62.168645283364363 29.799474880645334 -6.1216835616348133 #
point $-1 62.168645283364363 -29.799474880645334 -6.1216835616348133 #
straight-curve $-1 -62.168645283364363 0 6.1216835616348133 0 -1 0 I I #
point $-1 -62.168645283364363 29.799474880645334 6.1216835616348133 #
point $-1 -62.168645283364363 -29.799474880645334 6.1216835616348133 #
straight-curve $-1 62.168645283364363 -29.799474880645334 0 0 0 -1 I I #
straight-curve $-1 62.168645283364363 29.799474880645334 0 0 0 -1 I I #
loop $-1 $-1 $256 $243 #
plane-surface $-1 0 -29.799474880645334 0 0 1 0 0 0 1 forward_v I I I I #
coedge $-1 $247 $246 $337 $376 reversed $96 $-1 #
coedge $-1 $259 $258 $246 $331 forward $244 $-1 #
edge $-1 $377 -1.5 $334 1.5 $246 $378 forward 7 unknown #
edge $-1 $333 -1.5 $338 1.5 $247 $379 forward 7 unknown #
vertex $-1 $251 $380 #
vertex $-1 $262 $381 #
straight-curve $-1 -66.818572765381475 -26.799474880645334 0 0 0 -1 I I #
straight-curve $-1 -64.493609024372915 -26.799474880645334 6.1216835616348133 -1 0 0 I I #
coedge $-1 $341 $252 $329 $376 forward $327 $-1 #
vertex $-1 $332 $382 #
straight-curve $-1 0 -29.799474880645334 6.1216835616348133 1 0 0 I I #
point $-1 -62.168645283364363 -29.799474880645334 6.1216835616348133 #
coedge $-1 $256 $337 $258 $343 reversed $327 $-1 #
straight-curve $-1 -62.168645283364363 -29.799474880645334 0 0 0 1 I I #
edge $-1 $260 -2.3249637410085526 $377 2.3249637410085597 $341 $383 forward 7 unknown #
point $-1 -62.168645283364363 -29.799474880645334 -6.1216835616348133 #
straight-curve $-1 -64.493609024372915 -26.799474880645334 -6.1216835616348133 1 0 0 I I #
coedge $-1 $347 $267 $353 $384 reversed $175 $-1 #
coedge $-1 $267 $346 $270 $351 reversed $175 $-1 #
edge $-1 $349 -36.374042391283979 $275 -15.215163392876779 $274 $385 forward 7 unknown #
vertex $-1 $269 $386 #
straight-curve $-1 62.168645283364363 -1.1008413270236472 27.169526549746028 0 0.75470957328743171 -0.6560590369687036 I I #
edge $-1 $271 23.111931769700043 $355 29.799474880645334 $347 $387 forward 7 unknown #
point $-1 62.168645283364363 23.111931769700043 6.1216835616348106 #
coedge $-1 $274 $273 $346 $384 forward $265 $-1 #
point $-1 41.009766284957159 29.799474880645334 0.30829090259866376 #
vertex $-1 $351 $388 #
straight-curve $-1 0 29.799474880645334 6.1216835616348133 -1 0 0 I I #
vertex $-1 $281 $389 #
point $-1 52.589205784160761 25.029960719395394 1.574858016618683 #
edge $-1 $360 39.766791628936247 $363 43.552285600483202 $286 $390 forward 7 unknown #
vertex $-1 $300 $391 #
straight-curve $-1 -38.080663810821157 -58.08570777384805 6.1216835616348106 0 -1 0 I I #
edge $-1 $363 -24.444197902651688 $297 -2.8287339136872518 $296 $392 forward 7 unknown #
vertex $-1 $362 $393 #
straight-curve $-1 -38.080663810821157 -29.799474880645334 2.3361895900878551 0 0.71933979245794832 0.69465837861970381 I I #
point $-1 -38.080663810821157 -25.879481209433656 6.1216835616348142 #
point $-1 -16.465199821856721 -29.799474880645334 2.3361895900878551 #
straight-curve $-1 0 -29.799474880645334 6.1216835616348133 1 0 0 I I #
vertex $-1 $303 $394 #
point $-1 -30.904816956831318 -26.827456589911819 3.1809577046627195 #
vertex $-1 $307 $395 #
point $-1 -21.64104667584656 -26.827456589911819 3.1809577046627195 #
straight-curve $-1 -62.168645283364363 29.799474880645334 0 0 0 -1 I I #
point $-1 -62.168645283364363 -29.799474880645334 -6.1216835616348133 #
straight-curve $-1 -62.168645283364363 0 -6.1216835616348133 0 1 0 I I #
point $-1 -62.168645283364363 29.799474880645334 -6.1216835616348133 #
edge $-1 $338 -6.1216835616348133 $377 6.1216835616348133 $329 $396 forward 7 unknown #
vertex $-1 $331 $397 #
straight-curve $-1 -66.818572765381475 -28.299474880645334 -6.1216835616348133 0 1 0 I I #
straight-curve $-1 -66.818572765381475 -28.299474880645334 6.1216835616348133 0 -1 0 I I #
point $-1 -66.818572765381475 -26.799474880645334 6.1216835616348133 #
point $-1 -66.818572765381475 -26.799474880645334 -6.1216835616348133 #
point $-1 -66.818572765381475 -29.799474880645334 6.1216835616348133 #
straight-curve $-1 -64.493609024372915 -29.799474880645334 -6.1216835616348133 -1 0 0 I I #
edge $-1 $355 -6.1216835616348133 $349 -0.30829090259866376 $346 $398 forward 7 unknown #
straight-curve $-1 25.79460289208038 29.799474880645334 0.30829090259866021 -1 0 0 I I #
point $-1 62.168645283364363 29.799474880645334 0.30829090259866376 #
straight-curve $-1 62.168645283364363 0 6.1216835616348133 0 1 0 I I #
point $-1 62.168645283364363 29.799474880645334 6.1216835616348133 #
point $-1 51.589205784160761 24.373901682426688 0.82014844333125159 #
straight-curve $-1 -38.080663810821157 -29.799474880645334 45.888475190571057 0 0 -1 I I #
point $-1 -38.080663810821157 -29.799474880645334 6.1216835616348133 #
straight-curve $-1 -13.63646590816947 -29.799474880645334 2.3361895900878533 1 0 0 I I #
point $-1 -38.080663810821157 -29.799474880645334 2.3361895900878551 #
point $-1 -31.904816956831318 -26.132798211292112 2.4616179122047717 #
point $-1 -22.64104667584656 -26.132798211292112 2.4616179122047717 #
straight-curve $-1 -66.818572765381475 -29.799474880645334 0 0 0 -1 I I #
point $-1 -66.818572765381475 -29.799474880645334 -6.1216835616348133 #
straight-curve $-1 62.168645283364363 29.799474880645334 0 0 0 -1 I I #
End-of-ACIS-data 