500 0 4 0           
7 Unknown 11 ACIS 5.0 NT 24 Thu Mar 25 21:15:47 1999 
-1 9.9999999999999995e-007 1e-010 
body $-1 $4 $-1 $5 #
body $-1 $6 $-1 $7 #
body $-1 $8 $-1 $9 #
body $-1 $10 $-1 $11 #
lump $-1 $-1 $12 $0 #
transform $-1 1 0 0 0 1 0 0 0 1 46.960661641285441 30.670685003829867 14.100352976048875 1 rotate no_reflect no_shear #
lump $-1 $-1 $13 $1 #
transform $-1 1 0 0 0 1 0 0 0 1 46.960661641285441 30.670685003829867 14.100352976048875 1 rotate no_reflect no_shear #
lump $-1 $-1 $14 $2 #
transform $-1 1 0 0 0 1 0 0 0 1 46.960661641285441 30.670685003829867 14.100352976048875 1 rotate no_reflect no_shear #
lump $-1 $-1 $15 $3 #
transform $-1 1 0 0 0 1 0 0 0 1 46.960661641285441 30.670685003829867 14.100352976048875 1 rotate no_reflect no_shear #
shell $-1 $-1 $-1 $16 $-1 $4 #
shell $-1 $-1 $-1 $17 $-1 $6 #
shell $-1 $-1 $-1 $18 $-1 $8 #
shell $-1 $-1 $-1 $19 $-1 $10 #
face $-1 $20 $21 $12 $-1 $22 forward single #
face $-1 $23 $24 $13 $-1 $25 reversed single #
face $-1 $26 $27 $14 $-1 $28 reversed single #
face $-1 $29 $30 $15 $-1 $31 forward single #
face $-1 $32 $33 $12 $-1 $34 reversed single #
loop $-1 $-1 $35 $16 #
plane-surface $-1 0 0 14.100352976048875 0 0 1 1 0 0 forward_v I I I I #
face $-1 $36 $37 $13 $-1 $38 reversed single #
loop $-1 $-1 $39 $17 #
plane-surface $-1 0 -24.310938257082373 10.959434479629286 0 0 1 1 0 0 forward_v I I I I #
face $-1 $40 $41 $14 $-1 $42 reversed single #
loop $-1 $-1 $43 $18 #
plane-surface $-1 -112.20389579057316 18.429537356204047 67.689060065222804 0 1 0 -0.69465837861970381 0 0.71933979245794832 forward_v I I I I #
face $-1 $44 $45 $15 $-1 $46 forward single #
loop $-1 $47 $48 $19 #
cone-surface $-1 -39.143213739339274 22.094486954776023 6.5104203087116446 0.69465837861970381 0 -0.71933979245794832 0.71933979245794832 0 0.69465837861970381 1 I I 0 1 1 forward I I I I #
face $-1 $49 $50 $12 $-1 $51 reversed single #
loop $-1 $-1 $52 $20 #
plane-surface $-1 0 0 -14.100352976048875 0 0 1 1 0 0 forward_v I I I I #
coedge $-1 $53 $54 $55 $56 forward $21 $-1 #
face $-1 $57 $58 $13 $-1 $59 reversed single #
loop $-1 $-1 $60 $23 #
plane-surface $-1 0 -17.95119151033488 12.529893727839081 0 -1 0 0 0 -1 forward_v I I I I #
coedge $-1 $61 $62 $63 $64 reversed $24 $-1 #
face $-1 $65 $66 $14 $-1 $67 reversed single #
loop $-1 $-1 $68 $26 #
plane-surface $-1 -46.960661641285427 22.094486954776023 0.12771486776239271 -0.69465837861970381 0 0.71933979245794832 0.71933979245794832 0 0.69465837861970381 forward_v I I I I #
coedge $-1 $69 $70 $71 $72 reversed $27 $-1 #
face $-1 $-1 $73 $15 $-1 $74 forward single #
loop $-1 $75 $76 $29 #
cone-surface $-1 -38.21298164621345 22.094486954776023 5.5471367992886798 0.69465837861970381 0 -0.71933979245794832 0.35966989622897416 0 0.3473291893098519 1 I I -0.70710678118654746 0.70710678118654746 0.5 forward I I I I #
loop $-1 $-1 $77 $19 #
coedge $-1 $48 $48 $78 $79 reversed $30 $-1 #
face $-1 $80 $81 $12 $-1 $82 reversed single #
loop $-1 $-1 $83 $32 #
plane-surface $-1 0 -30.670685003829867 0 0 1 0 0 0 1 forward_v I I I I #
coedge $-1 $84 $85 $86 $87 forward $33 $-1 #
coedge $-1 $88 $35 $89 $90 forward $21 $-1 #
coedge $-1 $35 $88 $91 $92 forward $21 $-1 #
coedge $-1 $93 $94 $35 $56 reversed $95 $-1 #
edge $-1 $96 -30.670685003829867 $97 30.670685003829867 $55 $98 forward 7 unknown #
face $-1 $99 $100 $13 $-1 $101 reversed single #
loop $-1 $-1 $102 $36 #
plane-surface $-1 -46.960661641285441 0 0 1 0 0 0 0 -1 forward_v I I I I #
coedge $-1 $103 $104 $105 $106 reversed $37 $-1 #
coedge $-1 $107 $39 $108 $109 reversed $24 $-1 #
coedge $-1 $39 $107 $103 $110 forward $24 $-1 #
coedge $-1 $105 $111 $39 $64 forward $112 $-1 #
edge $-1 $113 -18.515215875288682 $114 -5.7957223817936931 $63 $115 forward 7 unknown #
face $-1 $116 $117 $14 $-1 $118 forward single #
loop $-1 $-1 $119 $40 #
plane-surface $-1 -112.20389579057316 25.759436553347999 67.689060065222804 0 -1 0 0.69465837861970381 0 -0.71933979245794832 forward_v I I I I #
coedge $-1 $120 $121 $122 $123 reversed $41 $-1 #
coedge $-1 $70 $43 $124 $125 reversed $27 $-1 #
coedge $-1 $43 $69 $120 $126 reversed $27 $-1 #
coedge $-1 $122 $127 $43 $72 forward $117 $-1 #
edge $-1 $128 9.1412862540011375 $129 23.610376250261538 $71 $130 forward 7 unknown #
loop $-1 $-1 $78 $44 #
plane-surface $-1 -46.960661641285427 22.094486954776023 0.12771486776239271 -0.69465837861970381 0 0.71933979245794832 0.71933979245794832 0 0.69465837861970381 forward_v I I I I #
loop $-1 $-1 $131 $29 #
coedge $-1 $76 $76 $77 $132 reversed $45 $-1 #
coedge $-1 $77 $77 $76 $132 forward $47 $-1 #
coedge $-1 $78 $78 $48 $79 forward $73 $-1 #
edge $-1 $133 0 $133 6.2831853071796004 $78 $134 forward 7 unknown #
face $-1 $135 $136 $12 $-1 $137 reversed single #
loop $-1 $-1 $138 $49 #
plane-surface $-1 -46.960661641285441 0 0 1 0 0 0 0 -1 forward_v I I I I #
coedge $-1 $139 $91 $140 $141 forward $50 $-1 #
coedge $-1 $142 $52 $139 $143 forward $33 $-1 #
coedge $-1 $52 $142 $144 $145 forward $33 $-1 #
coedge $-1 $94 $93 $52 $87 reversed $95 $-1 #
edge $-1 $146 -30.670685003829867 $147 30.670685003829867 $86 $148 forward 7 unknown #
coedge $-1 $54 $53 $149 $150 forward $21 $-1 #
coedge $-1 $151 $152 $53 $90 reversed $136 $-1 #
edge $-1 $97 -46.960661641285441 $153 46.960661641285441 $89 $154 forward 7 unknown #
coedge $-1 $83 $155 $54 $92 reversed $50 $-1 #
edge $-1 $156 -46.960661641285441 $96 46.960661641285441 $91 $157 forward 7 unknown #
coedge $-1 $86 $55 $155 $158 forward $95 $-1 #
coedge $-1 $55 $86 $151 $159 reversed $95 $-1 #
loop $-1 $-1 $93 $135 #
vertex $-1 $56 $160 #
vertex $-1 $56 $161 #
straight-curve $-1 46.960661641285441 0 14.100352976048875 0 1 0 I I #
face $-1 $162 $163 $13 $-1 $164 forward single #
loop $-1 $-1 $108 $57 #
plane-surface $-1 0 -30.670685003829867 0 0 1 0 0 0 1 forward_v I I I I #
coedge $-1 $165 $166 $167 $168 forward $58 $-1 #
coedge $-1 $167 $60 $62 $110 reversed $37 $-1 #
coedge $-1 $60 $167 $169 $170 reversed $37 $-1 #
coedge $-1 $171 $63 $60 $106 forward $112 $-1 #
edge $-1 $114 4.694487615709745 $172 7.8354061121293359 $105 $173 forward 7 unknown #
coedge $-1 $62 $61 $165 $174 reversed $24 $-1 #
coedge $-1 $175 $176 $61 $109 forward $100 $-1 #
edge $-1 $177 -46.960661641285441 $113 46.960661641285441 $108 $178 forward 7 unknown #
edge $-1 $179 -46.960661641285441 $114 46.960661641285441 $103 $180 forward 7 unknown #
coedge $-1 $63 $171 $175 $181 forward $112 $-1 #
loop $-1 $-1 $105 $162 #
vertex $-1 $109 $182 #
vertex $-1 $64 $183 #
straight-curve $-1 46.960661641285441 -12.155469128541187 10.959434479629286 0 1 0 I I #
face $-1 $-1 $184 $14 $-1 $185 reversed single #
loop $-1 $-1 $71 $65 #
plane-surface $-1 0 0 14.100352976048875 0 0 1 1 0 0 forward_v I I I I #
coedge $-1 $186 $187 $188 $189 reversed $66 $-1 #
coedge $-1 $190 $68 $70 $126 forward $41 $-1 #
coedge $-1 $68 $190 $186 $191 forward $41 $-1 #
coedge $-1 $188 $71 $68 $123 forward $117 $-1 #
edge $-1 $129 7.3822938788160357 $192 14.712193075959988 $122 $193 forward 7 unknown #
coedge $-1 $194 $195 $69 $125 forward $184 $-1 #
edge $-1 $196 -33.716815164849024 $128 -19.744177056562528 $124 $197 forward 7 unknown #
edge $-1 $129 -20.114402328307499 $196 1.9747070999959293e-014 $70 $198 forward 7 unknown #
coedge $-1 $71 $188 $194 $199 forward $117 $-1 #
vertex $-1 $125 $200 #
vertex $-1 $72 $201 #
straight-curve $-1 -56.101947895286578 18.429537356204047 14.100352976048875 1 0 0 I I #
coedge $-1 $131 $131 $-1 $202 reversed $75 $-1 #
edge $-1 $203 0 $203 6.2831853071796004 $76 $204 forward 7 unknown #
vertex $-1 $79 $205 #
ellipse-curve $-1 -39.726116643155237 22.094486954776023 7.1140339219056266 -0.69465837861970381 0 0.71933979245794832 0.71933979245794832 0 0.69465837861970381 1 I I #
face $-1 $-1 $95 $12 $-1 $206 reversed single #
loop $-1 $-1 $151 $80 #
plane-surface $-1 0 30.670685003829867 0 0 -1 0 0 0 -1 forward_v I I I I #
coedge $-1 $207 $149 $152 $208 forward $81 $-1 #
coedge $-1 $155 $83 $84 $143 reversed $50 $-1 #
coedge $-1 $149 $207 $83 $141 reversed $81 $-1 #
edge $-1 $156 -14.100352976048875 $209 14.100352976048875 $140 $210 forward 7 unknown #
coedge $-1 $85 $84 $207 $211 forward $33 $-1 #
edge $-1 $147 -46.960661641285441 $209 46.960661641285441 $139 $212 forward 7 unknown #
coedge $-1 $152 $151 $85 $145 reversed $136 $-1 #
edge $-1 $213 -46.960661641285441 $146 46.960661641285441 $144 $214 forward 7 unknown #
vertex $-1 $87 $215 #
vertex $-1 $158 $216 #
straight-curve $-1 46.960661641285441 0 -14.100352976048875 0 -1 0 I I #
coedge $-1 $138 $140 $88 $150 reversed $81 $-1 #
edge $-1 $153 -30.670685003829867 $156 30.670685003829867 $149 $217 forward 7 unknown #
coedge $-1 $144 $89 $94 $159 forward $136 $-1 #
coedge $-1 $89 $144 $138 $208 reversed $136 $-1 #
vertex $-1 $90 $218 #
straight-curve $-1 0 30.670685003829867 14.100352976048875 -1 0 0 I I #
coedge $-1 $91 $139 $93 $158 reversed $50 $-1 #
vertex $-1 $150 $219 #
straight-curve $-1 0 -30.670685003829867 14.100352976048875 1 0 0 I I #
edge $-1 $96 -14.100352976048875 $147 14.100352976048875 $93 $220 forward 7 unknown #
edge $-1 $97 -14.100352976048875 $146 14.100352976048875 $94 $221 forward 7 unknown #
point $-1 46.960661641285441 -30.670685003829867 14.100352976048875 #
point $-1 46.960661641285441 30.670685003829867 14.100352976048875 #
face $-1 $-1 $112 $13 $-1 $222 reversed single #
loop $-1 $-1 $169 $99 #
plane-surface $-1 0 0 14.100352976048875 0 0 1 1 0 0 forward_v I I I I #
coedge $-1 $223 $102 $107 $174 forward $58 $-1 #
coedge $-1 $102 $223 $224 $225 reversed $58 $-1 #
coedge $-1 $104 $103 $102 $168 reversed $37 $-1 #
edge $-1 $226 -7.8354061121293359 $179 -4.694487615709745 $102 $227 forward 7 unknown #
coedge $-1 $224 $228 $104 $170 forward $163 $-1 #
edge $-1 $172 -46.960661641285441 $226 46.960661641285441 $169 $229 forward 7 unknown #
coedge $-1 $111 $105 $228 $230 reversed $112 $-1 #
vertex $-1 $106 $231 #
straight-curve $-1 46.960661641285441 -17.95119151033488 6.2649468639195405 0 0 1 I I #
edge $-1 $179 5.7957223817936931 $177 18.515215875288682 $165 $232 forward 7 unknown #
coedge $-1 $233 $108 $111 $181 reversed $100 $-1 #
coedge $-1 $108 $233 $223 $234 forward $100 $-1 #
vertex $-1 $109 $235 #
straight-curve $-1 0 -30.670685003829867 10.959434479629286 1 0 0 I I #
vertex $-1 $174 $236 #
straight-curve $-1 0 -17.95119151033488 10.959434479629286 1 0 0 I I #
edge $-1 $237 -14.100352976048875 $113 -10.959434479629286 $111 $238 forward 7 unknown #
point $-1 46.960661641285441 -30.670685003829867 10.959434479629286 #
point $-1 46.960661641285441 -17.95119151033488 10.959434479629286 #
loop $-1 $-1 $124 $116 #
plane-surface $-1 -46.960661641285441 0 0 1 0 0 0 0 -1 forward_v I I I I #
coedge $-1 $187 $119 $121 $191 reversed $66 $-1 #
coedge $-1 $119 $186 $239 $240 reversed $66 $-1 #
coedge $-1 $127 $122 $119 $189 forward $117 $-1 #
edge $-1 $192 -23.610376250261538 $241 -9.1412862540011375 $188 $242 forward 7 unknown #
coedge $-1 $121 $120 $195 $243 reversed $41 $-1 #
edge $-1 $244 -1.9747070999959293e-014 $192 20.114402328307499 $186 $245 forward 7 unknown #
vertex $-1 $123 $246 #
straight-curve $-1 -32.491571645025033 11.047243477388012 14.100352976048875 0 1 0 I I #
coedge $-1 $239 $124 $127 $199 reversed $184 $-1 #
coedge $-1 $124 $239 $190 $243 forward $184 $-1 #
vertex $-1 $125 $247 #
straight-curve $-1 -46.960661641285441 18.429537356204047 33.844530032611402 0 0 1 I I #
straight-curve $-1 -46.960661641285427 18.429537356204047 0.12771486776239271 -0.71933979245794832 0 -0.69465837861970381 I I #
edge $-1 $241 -25.759436553347999 $128 -18.429537356204047 $194 $248 forward 7 unknown #
point $-1 -46.960661641285441 18.429537356204047 14.100352976048875 #
point $-1 -32.49157164502504 18.429537356204047 14.100352976048875 #
edge $-1 $249 1 $249 0 $131 $-1 forward 7 unknown #
vertex $-1 $132 $250 #
ellipse-curve $-1 -38.560310835523303 22.094486954776023 5.9068066955176537 -0.69465837861970381 0 0.71933979245794832 0.71933979245794832 0 0.69465837861970381 1 I I #
point $-1 -39.006776850697307 22.094486954776023 7.8086923005253404 #
plane-surface $-1 46.960661641285441 0 0 -1 0 0 0 0 1 forward_v I I I I #
coedge $-1 $140 $138 $142 $211 reversed $81 $-1 #
edge $-1 $153 -14.100352976048875 $213 14.100352976048875 $152 $251 forward 7 unknown #
vertex $-1 $211 $252 #
straight-curve $-1 -46.960661641285441 -30.670685003829867 0 0 0 -1 I I #
edge $-1 $209 -30.670685003829867 $213 30.670685003829867 $207 $253 forward 7 unknown #
straight-curve $-1 0 -30.670685003829867 -14.100352976048875 -1 0 0 I I #
vertex $-1 $145 $254 #
straight-curve $-1 0 30.670685003829867 -14.100352976048875 1 0 0 I I #
point $-1 46.960661641285441 30.670685003829867 -14.100352976048875 #
point $-1 46.960661641285441 -30.670685003829867 -14.100352976048875 #
straight-curve $-1 -46.960661641285441 0 14.100352976048875 0 -1 0 I I #
point $-1 -46.960661641285441 30.670685003829867 14.100352976048875 #
point $-1 -46.960661641285441 -30.670685003829867 14.100352976048875 #
straight-curve $-1 46.960661641285441 -30.670685003829867 0 0 0 -1 I I #
straight-curve $-1 46.960661641285441 30.670685003829867 0 0 0 -1 I I #
plane-surface $-1 46.960661641285441 0 0 -1 0 0 0 0 1 forward_v I I I I #
coedge $-1 $166 $165 $176 $234 reversed $58 $-1 #
coedge $-1 $255 $169 $166 $225 forward $163 $-1 #
edge $-1 $226 17.95119151033488 $256 30.670685003829867 $166 $257 forward 7 unknown #
vertex $-1 $225 $258 #
straight-curve $-1 -46.960661641285441 -17.95119151033488 6.2649468639195405 0 0 -1 I I #
coedge $-1 $169 $255 $171 $230 forward $163 $-1 #
straight-curve $-1 0 -17.95119151033488 14.100352976048875 -1 0 0 I I #
edge $-1 $237 -30.670685003829867 $172 -17.95119151033488 $171 $259 forward 7 unknown #
point $-1 46.960661641285441 -17.95119151033488 14.100352976048876 #
straight-curve $-1 -46.960661641285441 -12.155469128541187 10.959434479629286 0 -1 0 I I #
coedge $-1 $176 $175 $255 $260 reversed $100 $-1 #
edge $-1 $256 -14.100352976048875 $177 -10.959434479629286 $223 $261 forward 7 unknown #
point $-1 -46.960661641285441 -30.670685003829867 10.959434479629286 #
point $-1 -46.960661641285441 -17.95119151033488 10.959434479629286 #
vertex $-1 $230 $262 #
straight-curve $-1 46.960661641285441 -30.670685003829867 0 0 0 -1 I I #
coedge $-1 $195 $194 $187 $240 forward $184 $-1 #
edge $-1 $241 19.744177056562528 $244 33.716815164849024 $239 $263 forward 7 unknown #
vertex $-1 $199 $264 #
straight-curve $-1 -56.101947895286578 25.759436553347999 14.100352976048875 -1 0 0 I I #
edge $-1 $244 -14.712193075959988 $196 -7.3822938788160357 $195 $265 forward 7 unknown #
vertex $-1 $243 $266 #
straight-curve $-1 -46.960661641285427 25.759436553347999 0.12771486776239271 0.71933979245794832 0 0.69465837861970381 I I #
point $-1 -32.49157164502504 25.759436553347999 14.100352976048875 #
point $-1 -46.960661641285441 18.429537356204047 0.127714867762379 #
straight-curve $-1 -46.960661641285441 0 14.100352976048875 0 -1 0 I I #
vertex $-1 $202 $267 #
point $-1 -37.840971043065352 22.094486954776023 6.6014650741373577 #
straight-curve $-1 -46.960661641285441 30.670685003829867 0 0 0 -1 I I #
point $-1 -46.960661641285441 -30.670685003829867 -14.100352976048875 #
straight-curve $-1 -46.960661641285441 0 -14.100352976048875 0 1 0 I I #
point $-1 -46.960661641285441 30.670685003829867 -14.100352976048875 #
coedge $-1 $228 $224 $233 $260 forward $163 $-1 #
vertex $-1 $225 $268 #
straight-curve $-1 -46.960661641285441 0 14.100352976048875 0 -1 0 I I #
point $-1 -46.960661641285441 -17.95119151033488 14.100352976048876 #
straight-curve $-1 46.960661641285441 0 14.100352976048875 0 1 0 I I #
edge $-1 $256 -46.960661641285441 $237 46.960661641285441 $233 $269 forward 7 unknown #
straight-curve $-1 -46.960661641285441 -30.670685003829867 0 0 0 -1 I I #
point $-1 46.960661641285441 -30.670685003829867 14.100352976048875 #
straight-curve $-1 -46.960661641285441 25.759436553347999 33.844530032611402 0 0 -1 I I #
point $-1 -46.960661641285441 25.759436553347999 14.100352976048875 #
straight-curve $-1 -46.960661641285441 11.047243477388012 0.12771486776237653 0 -1 0 I I #
point $-1 -46.960661641285441 25.759436553347999 0.127714867762379 #
point $-1 -37.865652456903597 22.094486954776023 5.1874669030597058 #
point $-1 -46.960661641285441 -30.670685003829867 14.100352976048875 #
straight-curve $-1 0 -30.670685003829867 14.100352976048875 1 0 0 I I #
End-of-ACIS-data 