500 0 12 0           
7 Unknown 11 ACIS 5.0 NT 24 Fri Mar 26 02:15:50 1999 
-1 9.9999999999999995e-007 1e-010 
body $-1 $12 $-1 $13 #
body $-1 $14 $-1 $15 #
body $-1 $16 $-1 $17 #
body $-1 $18 $-1 $19 #
body $-1 $20 $-1 $21 #
body $-1 $22 $-1 $23 #
body $-1 $24 $-1 $25 #
body $-1 $26 $-1 $27 #
body $-1 $28 $-1 $29 #
body $-1 $30 $-1 $31 #
body $-1 $32 $-1 $33 #
body $-1 $34 $-1 $35 #
lump $-1 $-1 $36 $0 #
transform $-1 1 0 0 0 1 0 0 0 1 65.401165807061986 29.819634305065669 7.3533014053273451 1 rotate no_reflect no_shear #
lump $-1 $-1 $37 $1 #
transform $-1 1 0 0 0 1 0 0 0 1 65.401165807061986 29.819634305065669 7.3533014053273451 1 rotate no_reflect no_shear #
lump $-1 $-1 $38 $2 #
transform $-1 1 0 0 0 1 0 0 0 1 65.401165807061986 29.819634305065669 7.3533014053273451 1 rotate no_reflect no_shear #
lump $-1 $-1 $39 $3 #
transform $-1 1 0 0 0 1 0 0 0 1 65.401165807061986 29.819634305065669 7.3533014053273451 1 rotate no_reflect no_shear #
lump $-1 $-1 $40 $4 #
transform $-1 1 0 0 0 1 0 0 0 1 65.401165807061986 29.819634305065669 7.3533014053273451 1 rotate no_reflect no_shear #
lump $-1 $-1 $41 $5 #
transform $-1 1 0 0 0 1 0 0 0 1 65.401165807061986 29.819634305065669 7.3533014053273451 1 rotate no_reflect no_shear #
lump $-1 $-1 $42 $6 #
transform $-1 1 0 0 0 1 0 0 0 1 65.401165807061986 29.819634305065669 7.3533014053273451 1 rotate no_reflect no_shear #
lump $-1 $-1 $43 $7 #
transform $-1 1 0 0 0 1 0 0 0 1 65.401165807061986 29.819634305065669 7.3533014053273451 1 rotate no_reflect no_shear #
lump $-1 $-1 $44 $8 #
transform $-1 1 0 0 0 1 0 0 0 1 65.401165807061986 29.819634305065669 7.3533014053273451 1 rotate no_reflect no_shear #
lump $-1 $-1 $45 $9 #
transform $-1 1 0 0 0 1 0 0 0 1 65.401165807061986 29.819634305065669 7.3533014053273451 1 rotate no_reflect no_shear #
lump $-1 $-1 $46 $10 #
transform $-1 1 0 0 0 1 0 0 0 1 65.401165807061986 29.819634305065669 7.3533014053273451 1 rotate no_reflect no_shear #
lump $-1 $-1 $47 $11 #
transform $-1 1 0 0 0 1 0 0 0 1 65.401165807061986 29.819634305065669 7.3533014053273451 1 rotate no_reflect no_shear #
shell $-1 $-1 $-1 $48 $-1 $12 #
shell $-1 $-1 $-1 $49 $-1 $14 #
shell $-1 $-1 $-1 $50 $-1 $16 #
shell $-1 $-1 $-1 $51 $-1 $18 #
shell $-1 $-1 $-1 $52 $-1 $20 #
shell $-1 $-1 $-1 $53 $-1 $22 #
shell $-1 $-1 $-1 $54 $-1 $24 #
shell $-1 $-1 $-1 $55 $-1 $26 #
shell $-1 $-1 $-1 $56 $-1 $28 #
shell $-1 $-1 $-1 $57 $-1 $30 #
shell $-1 $-1 $-1 $58 $-1 $32 #
shell $-1 $-1 $-1 $59 $-1 $34 #
face $-1 $60 $61 $36 $-1 $62 forward single #
face $-1 $63 $64 $37 $-1 $65 forward single #
face $-1 $66 $67 $38 $-1 $68 reversed single #
face $-1 $69 $70 $39 $-1 $71 forward single #
face $-1 $72 $73 $40 $-1 $74 forward single #
face $-1 $75 $76 $41 $-1 $77 reversed single #
face $-1 $78 $79 $42 $-1 $80 forward single #
face $-1 $81 $82 $43 $-1 $83 forward single #
face $-1 $84 $85 $44 $-1 $86 reversed single #
face $-1 $87 $88 $45 $-1 $89 forward single #
face $-1 $90 $91 $46 $-1 $92 reversed single #
face $-1 $93 $94 $47 $-1 $95 forward single #
face $-1 $96 $97 $36 $-1 $98 reversed single #
loop $-1 $-1 $99 $48 #
plane-surface $-1 0 0 7.3533014053273451 0 0 1 1 0 0 forward_v I I I I #
face $-1 $100 $101 $37 $-1 $102 reversed single #
loop $-1 $-1 $103 $49 #
plane-surface $-1 0 -25.853422814526759 -1.7602497619137958 0 0 1 1 0 0 forward_v I I I I #
face $-1 $104 $105 $38 $-1 $106 reversed single #
loop $-1 $-1 $107 $50 #
plane-surface $-1 -152.92501032581163 -13.190787559617377 97.68628036224392 0 1 0 -0.66913061440640931 0 0.74314481823134659 forward_v I I I I #
face $-1 $108 $109 $39 $-1 $110 forward single #
loop $-1 $111 $112 $51 #
cone-surface $-1 -60.403527133926943 -9.890511455668463 2.6050415953120507 0.66913061440640931 0 -0.74314481823134659 0.74314481823134659 0 0.66913061440640931 1 I I 0 1 1 forward I I I I #
face $-1 $113 $114 $40 $-1 $115 forward single #
loop $-1 $116 $117 $52 #
cone-surface $-1 -60.403527133926943 -4.9400972997450943 2.6050415953120507 0.66913061440640931 0 -0.74314481823134659 0.74314481823134659 0 0.66913061440640931 1 I I 0 1 1 forward I I I I #
face $-1 $118 $119 $41 $-1 $120 reversed single #
loop $-1 $-1 $121 $53 #
plane-surface $-1 -152.92501032581163 12.662635254909386 97.68628036224392 0 1 0 -0.66913061440640931 0 0.74314481823134659 forward_v I I I I #
face $-1 $122 $123 $42 $-1 $124 forward single #
loop $-1 $125 $126 $54 #
cone-surface $-1 -60.403527133926943 15.9629113588583 2.6050415953120507 0.66913061440640931 0 -0.74314481823134659 0.74314481823134659 0 0.66913061440640931 1 I I 0 1 1 forward I I I I #
face $-1 $127 $128 $43 $-1 $129 forward single #
loop $-1 $130 $131 $55 #
cone-surface $-1 -60.403527133926943 20.913325514781668 2.6050415953120507 0.66913061440640931 0 -0.74314481823134659 0.74314481823134659 0 0.66913061440640931 1 I I 0 1 1 forward I I I I #
face $-1 $132 $133 $44 $-1 $134 reversed single #
loop $-1 $-1 $135 $56 #
plane-surface $-1 100.69748031876888 3.9662114905389103 181.60105388744913 0 -1 0 -0.82903758062907751 0 -0.55919289150049634 forward_v I I I I #
face $-1 $136 $137 $45 $-1 $138 forward single #
loop $-1 $139 $140 $57 #
cone-surface $-1 61.707968183897115 -0.8032528435318973 2.8629995873260285 -0.82903758062907751 0 -0.55919289150049634 0.55919289150049634 0 -0.82903758062907751 1 I I 0 1 1 forward I I I I #
face $-1 $141 $142 $46 $-1 $143 reversed single #
loop $-1 $-1 $144 $58 #
plane-surface $-1 100.69748031876888 13.505140158680529 181.60105388744913 0 -1 0 -0.82903758062907751 0 -0.55919289150049634 forward_v I I I I #
face $-1 $145 $146 $47 $-1 $147 forward single #
loop $-1 $148 $149 $59 #
cone-surface $-1 61.707968183897115 8.7356758246097215 2.8629995873260285 -0.82903758062907751 0 -0.55919289150049634 0.55919289150049634 0 -0.82903758062907751 1 I I 0 1 1 forward I I I I #
face $-1 $150 $151 $36 $-1 $152 reversed single #
loop $-1 $-1 $153 $60 #
plane-surface $-1 0 0 -7.3533014053273451 0 0 1 1 0 0 forward_v I I I I #
coedge $-1 $154 $155 $156 $157 forward $61 $-1 #
face $-1 $158 $159 $37 $-1 $160 reversed single #
loop $-1 $-1 $161 $63 #
plane-surface $-1 0 -25.853422814526759 -4.760249761913796 0 0 1 1 0 0 forward_v I I I I #
coedge $-1 $162 $163 $164 $165 reversed $64 $-1 #
face $-1 $166 $167 $38 $-1 $168 reversed single #
loop $-1 $-1 $169 $66 #
plane-surface $-1 -65.401165807061957 -7.4153043777067786 0.48120541062944255 -0.66913061440640931 0 0.74314481823134659 0.74314481823134659 0 0.66913061440640931 forward_v I I I I #
coedge $-1 $170 $171 $172 $173 reversed $67 $-1 #
face $-1 $-1 $174 $39 $-1 $175 forward single #
loop $-1 $176 $177 $69 #
cone-surface $-1 -58.887440977893107 -9.890511455668463 0.92125737353002535 0.66913061440640931 0 -0.74314481823134659 0.3715724091156733 0 0.33456530720320465 1 I I -0.70710678118654746 0.70710678118654746 0.5 forward I I I I #
loop $-1 $-1 $178 $51 #
coedge $-1 $112 $112 $179 $180 reversed $70 $-1 #
face $-1 $-1 $181 $40 $-1 $182 forward single #
loop $-1 $183 $184 $72 #
cone-surface $-1 -58.887440977893107 -4.9400972997450943 0.92125737353002535 0.66913061440640931 0 -0.74314481823134659 0.3715724091156733 0 0.33456530720320465 1 I I -0.70710678118654746 0.70710678118654746 0.5 forward I I I I #
loop $-1 $-1 $185 $52 #
coedge $-1 $117 $117 $186 $187 reversed $73 $-1 #
face $-1 $188 $189 $41 $-1 $190 reversed single #
loop $-1 $-1 $191 $75 #
plane-surface $-1 -65.401165807061957 18.438118436819984 0.48120541062944255 -0.66913061440640931 0 0.74314481823134659 0.74314481823134659 0 0.66913061440640931 forward_v I I I I #
coedge $-1 $192 $193 $194 $195 reversed $76 $-1 #
face $-1 $-1 $196 $42 $-1 $197 forward single #
loop $-1 $198 $199 $78 #
cone-surface $-1 -58.887440977893107 15.9629113588583 0.92125737353002535 0.66913061440640931 0 -0.74314481823134659 0.3715724091156733 0 0.33456530720320465 1 I I -0.70710678118654746 0.70710678118654746 0.5 forward I I I I #
loop $-1 $-1 $200 $54 #
coedge $-1 $126 $126 $201 $202 reversed $79 $-1 #
face $-1 $-1 $203 $43 $-1 $204 forward single #
loop $-1 $205 $206 $81 #
cone-surface $-1 -58.887440977893107 20.913325514781668 0.92125737353002535 0.66913061440640931 0 -0.74314481823134659 0.3715724091156733 0 0.33456530720320465 1 I I -0.70710678118654746 0.70710678118654746 0.5 forward I I I I #
loop $-1 $-1 $207 $55 #
coedge $-1 $131 $131 $208 $209 reversed $82 $-1 #
face $-1 $210 $211 $44 $-1 $212 reversed single #
loop $-1 $-1 $213 $84 #
plane-surface $-1 -7.7425682232467494 -0.8032528435318973 108.45731985714036 0.82903758062907751 0 0.55919289150049634 0.55919289150049634 0 -0.82903758062907751 forward_v I I I I #
coedge $-1 $214 $215 $216 $217 reversed $85 $-1 #
face $-1 $-1 $218 $45 $-1 $219 forward single #
loop $-1 $220 $221 $87 #
cone-surface $-1 60.074359081187751 -0.8032528435318973 1.7611163686757845 -0.82903758062907751 0 -0.55919289150049634 0.27959644575024817 0 -0.41451879031453875 1 I I -0.70710678118654746 0.70710678118654746 0.5 forward I I I I #
loop $-1 $-1 $222 $57 #
coedge $-1 $140 $140 $223 $224 reversed $88 $-1 #
face $-1 $225 $226 $46 $-1 $227 forward single #
loop $-1 $-1 $228 $90 #
plane-surface $-1 -7.7425682232467494 -0.8032528435318973 108.45731985714036 0.82903758062907751 0 0.55919289150049634 0.55919289150049634 0 -0.82903758062907751 forward_v I I I I #
coedge $-1 $229 $230 $231 $232 reversed $91 $-1 #
face $-1 $-1 $233 $47 $-1 $234 forward single #
loop $-1 $235 $236 $93 #
cone-surface $-1 60.074359081187751 8.7356758246097215 1.7611163686757845 -0.82903758062907751 0 -0.55919289150049634 0.27959644575024817 0 -0.41451879031453875 1 I I -0.70710678118654746 0.70710678118654746 0.5 forward I I I I #
loop $-1 $-1 $237 $59 #
coedge $-1 $149 $149 $238 $239 reversed $94 $-1 #
face $-1 $240 $241 $36 $-1 $242 reversed single #
loop $-1 $-1 $243 $96 #
plane-surface $-1 0 -29.819634305065669 0 0 1 0 0 0 1 forward_v I I I I #
coedge $-1 $244 $245 $246 $247 forward $97 $-1 #
coedge $-1 $248 $99 $249 $250 forward $61 $-1 #
coedge $-1 $99 $248 $251 $252 forward $61 $-1 #
coedge $-1 $253 $254 $99 $157 reversed $255 $-1 #
edge $-1 $256 -29.819634305065669 $257 29.819634305065669 $156 $258 forward 7 unknown #
face $-1 $259 $260 $37 $-1 $261 reversed single #
loop $-1 $-1 $262 $100 #
plane-surface $-1 0 -21.887211323987849 -3.260249761913796 0 -1 0 0 0 -1 forward_v I I I I #
coedge $-1 $263 $264 $265 $266 reversed $101 $-1 #
coedge $-1 $267 $103 $268 $269 forward $64 $-1 #
coedge $-1 $103 $267 $270 $271 reversed $64 $-1 #
coedge $-1 $272 $273 $103 $165 forward $274 $-1 #
edge $-1 $275 8.9604999167244692 $276 16.89292289780229 $164 $277 forward 7 unknown #
face $-1 $278 $279 $38 $-1 $280 reversed single #
loop $-1 $-1 $281 $104 #
plane-surface $-1 -152.92501032581163 -1.6398211957961806 97.68628036224392 0 -1 0 0.66913061440640931 0 -0.74314481823134659 forward_v I I I I #
coedge $-1 $282 $283 $284 $285 reversed $105 $-1 #
coedge $-1 $171 $107 $286 $287 reversed $67 $-1 #
coedge $-1 $107 $170 $282 $288 reversed $67 $-1 #
coedge $-1 $284 $289 $107 $173 forward $290 $-1 #
edge $-1 $291 11.061339355843828 $292 18.693575004452704 $172 $293 forward 7 unknown #
loop $-1 $-1 $179 $108 #
plane-surface $-1 -65.401165807061957 -7.4153043777067786 0.48120541062944255 -0.66913061440640931 0 0.74314481823134659 0.74314481823134659 0 0.66913061440640931 forward_v I I I I #
loop $-1 $-1 $294 $69 #
coedge $-1 $177 $177 $178 $295 reversed $109 $-1 #
coedge $-1 $178 $178 $177 $295 forward $111 $-1 #
coedge $-1 $179 $179 $112 $180 forward $174 $-1 #
edge $-1 $296 0 $296 6.2831853071796004 $179 $297 forward 7 unknown #
loop $-1 $-1 $186 $113 #
plane-surface $-1 -65.401165807061957 -7.4153043777067786 0.48120541062944255 -0.66913061440640931 0 0.74314481823134659 0.74314481823134659 0 0.66913061440640931 forward_v I I I I #
loop $-1 $-1 $298 $72 #
coedge $-1 $184 $184 $185 $299 reversed $114 $-1 #
coedge $-1 $185 $185 $184 $299 forward $116 $-1 #
coedge $-1 $186 $186 $117 $187 forward $181 $-1 #
edge $-1 $300 0 $300 6.2831853071796004 $186 $301 forward 7 unknown #
face $-1 $302 $303 $41 $-1 $304 forward single #
loop $-1 $-1 $305 $118 #
plane-surface $-1 -152.92501032581163 24.213601618730582 97.68628036224392 0 -1 0 0.66913061440640931 0 -0.74314481823134659 forward_v I I I I #
coedge $-1 $306 $307 $308 $309 reversed $119 $-1 #
coedge $-1 $193 $121 $310 $311 reversed $76 $-1 #
coedge $-1 $121 $192 $306 $312 reversed $76 $-1 #
coedge $-1 $308 $313 $121 $195 forward $303 $-1 #
edge $-1 $314 11.061339355843828 $315 18.693575004452704 $194 $316 forward 7 unknown #
loop $-1 $-1 $201 $122 #
plane-surface $-1 -65.401165807061957 18.438118436819984 0.48120541062944255 -0.66913061440640931 0 0.74314481823134659 0.74314481823134659 0 0.66913061440640931 forward_v I I I I #
loop $-1 $-1 $317 $78 #
coedge $-1 $199 $199 $200 $318 reversed $123 $-1 #
coedge $-1 $200 $200 $199 $318 forward $125 $-1 #
coedge $-1 $201 $201 $126 $202 forward $196 $-1 #
edge $-1 $319 0 $319 6.2831853071796004 $201 $320 forward 7 unknown #
loop $-1 $-1 $208 $127 #
plane-surface $-1 -65.401165807061957 18.438118436819984 0.48120541062944255 -0.66913061440640931 0 0.74314481823134659 0.74314481823134659 0 0.66913061440640931 forward_v I I I I #
loop $-1 $-1 $321 $81 #
coedge $-1 $206 $206 $207 $322 reversed $128 $-1 #
coedge $-1 $207 $207 $206 $322 forward $130 $-1 #
coedge $-1 $208 $208 $131 $209 forward $203 $-1 #
edge $-1 $323 0 $323 6.2831853071796004 $208 $324 forward 7 unknown #
face $-1 $325 $326 $44 $-1 $327 forward single #
loop $-1 $-1 $328 $132 #
plane-surface $-1 100.69748031876888 -5.5727171776027049 181.60105388744913 0 1 0 0.82903758062907751 0 0.55919289150049634 forward_v I I I I #
coedge $-1 $329 $330 $331 $332 reversed $133 $-1 #
coedge $-1 $215 $135 $333 $334 reversed $85 $-1 #
coedge $-1 $135 $214 $329 $335 reversed $85 $-1 #
coedge $-1 $331 $336 $135 $217 forward $326 $-1 #
edge $-1 $337 -15.052425647677545 $338 -10.104211026137456 $216 $339 forward 7 unknown #
loop $-1 $-1 $223 $136 #
plane-surface $-1 -7.7425682232467494 -0.8032528435318973 108.45731985714036 0.82903758062907751 0 0.55919289150049634 0.55919289150049634 0 -0.82903758062907751 forward_v I I I I #
loop $-1 $-1 $340 $87 #
coedge $-1 $221 $221 $222 $341 reversed $137 $-1 #
coedge $-1 $222 $222 $221 $341 forward $139 $-1 #
coedge $-1 $223 $223 $140 $224 forward $218 $-1 #
edge $-1 $342 0 $342 6.2831853071796004 $223 $343 forward 7 unknown #
face $-1 $344 $345 $46 $-1 $346 forward single #
loop $-1 $-1 $347 $141 #
plane-surface $-1 0 0 7.3533014053273451 0 0 1 1 0 0 forward_v I I I I #
coedge $-1 $348 $349 $350 $351 reversed $142 $-1 #
coedge $-1 $230 $144 $352 $353 reversed $91 $-1 #
coedge $-1 $144 $229 $347 $354 reversed $91 $-1 #
coedge $-1 $355 $356 $144 $232 forward $357 $-1 #
edge $-1 $358 -90.78325562859979 $359 -83.44722553839722 $231 $360 forward 7 unknown #
loop $-1 $-1 $238 $145 #
plane-surface $-1 -7.7425682232467494 -0.8032528435318973 108.45731985714036 0.82903758062907751 0 0.55919289150049634 0.55919289150049634 0 -0.82903758062907751 forward_v I I I I #
loop $-1 $-1 $361 $93 #
coedge $-1 $236 $236 $237 $362 reversed $146 $-1 #
coedge $-1 $237 $237 $236 $362 forward $148 $-1 #
coedge $-1 $238 $238 $149 $239 forward $233 $-1 #
edge $-1 $363 0 $363 6.2831853071796004 $238 $364 forward 7 unknown #
face $-1 $365 $366 $36 $-1 $367 reversed single #
loop $-1 $-1 $368 $150 #
plane-surface $-1 -65.401165807061986 0 0 1 0 0 0 0 -1 forward_v I I I I #
coedge $-1 $369 $251 $370 $371 forward $151 $-1 #
coedge $-1 $372 $153 $369 $373 forward $97 $-1 #
coedge $-1 $153 $372 $374 $375 forward $97 $-1 #
coedge $-1 $254 $253 $153 $247 reversed $255 $-1 #
edge $-1 $376 -29.819634305065669 $377 29.819634305065669 $246 $378 forward 7 unknown #
coedge $-1 $155 $154 $379 $380 forward $61 $-1 #
coedge $-1 $381 $382 $154 $250 reversed $366 $-1 #
edge $-1 $257 -65.401165807061986 $383 65.401165807061986 $249 $384 forward 7 unknown #
coedge $-1 $243 $385 $155 $252 reversed $151 $-1 #
edge $-1 $386 -65.401165807061986 $256 65.401165807061986 $251 $387 forward 7 unknown #
coedge $-1 $246 $156 $385 $388 forward $255 $-1 #
coedge $-1 $156 $246 $381 $389 reversed $255 $-1 #
loop $-1 $-1 $253 $365 #
vertex $-1 $157 $390 #
vertex $-1 $157 $391 #
straight-curve $-1 65.401165807061986 0 7.3533014053273451 0 1 0 I I #
face $-1 $392 $393 $37 $-1 $394 reversed single #
loop $-1 $-1 $395 $158 #
plane-surface $-1 -65.401165807061986 0 0 1 0 0 0 0 -1 forward_v I I I I #
coedge $-1 $396 $268 $273 $397 reversed $159 $-1 #
coedge $-1 $398 $161 $399 $400 reversed $101 $-1 #
coedge $-1 $161 $398 $396 $401 forward $101 $-1 #
coedge $-1 $273 $272 $161 $266 forward $274 $-1 #
edge $-1 $402 -16.89292289780229 $403 -8.9604999167244692 $265 $404 forward 7 unknown #
coedge $-1 $163 $162 $395 $405 reversed $64 $-1 #
coedge $-1 $262 $406 $162 $269 reversed $159 $-1 #
edge $-1 $275 -65.401165807061986 $407 65.401165807061986 $268 $408 forward 7 unknown #
coedge $-1 $409 $410 $163 $271 forward $393 $-1 #
edge $-1 $276 -65.401165807061986 $411 65.401165807061986 $270 $412 forward 7 unknown #
coedge $-1 $265 $164 $410 $413 forward $274 $-1 #
coedge $-1 $164 $265 $262 $397 forward $274 $-1 #
loop $-1 $-1 $164 $392 #
vertex $-1 $165 $414 #
vertex $-1 $413 $415 #
straight-curve $-1 65.401165807061986 -12.92671140726338 -1.7602497619137958 0 -1 0 I I #
face $-1 $-1 $290 $38 $-1 $416 forward single #
loop $-1 $-1 $417 $166 #
plane-surface $-1 -65.401165807061986 0 0 1 0 0 0 0 -1 forward_v I I I I #
coedge $-1 $418 $419 $420 $421 reversed $167 $-1 #
coedge $-1 $422 $169 $171 $288 forward $105 $-1 #
coedge $-1 $169 $422 $418 $423 forward $105 $-1 #
coedge $-1 $420 $172 $169 $285 forward $290 $-1 #
edge $-1 $292 -9.4831353707639874 $424 2.0678309930572087 $284 $425 forward 7 unknown #
coedge $-1 $426 $427 $170 $287 forward $279 $-1 #
edge $-1 $428 -48.361934770492546 $291 -41.489838775794617 $286 $429 forward 7 unknown #
edge $-1 $292 -10.270186188976258 $428 3.8244927234909694e-014 $171 $430 forward 7 unknown #
coedge $-1 $172 $420 $426 $431 forward $290 $-1 #
loop $-1 $-1 $420 $278 #
vertex $-1 $287 $432 #
vertex $-1 $173 $433 #
straight-curve $-1 -76.462505162905813 -13.190787559617377 7.3533014053273433 1 0 0 I I #
coedge $-1 $294 $294 $-1 $434 reversed $176 $-1 #
edge $-1 $435 0 $435 6.2831853071796004 $177 $436 forward 7 unknown #
vertex $-1 $180 $437 #
ellipse-curve $-1 -61.585047982757551 -9.890511455668463 3.9172534079783787 -0.66913061440640931 0 0.74314481823134659 0.74314481823134659 0 0.66913061440640931 1 I I #
coedge $-1 $298 $298 $-1 $438 reversed $183 $-1 #
edge $-1 $439 0 $439 6.2831853071796004 $184 $440 forward 7 unknown #
vertex $-1 $187 $441 #
ellipse-curve $-1 -61.585047982757551 -4.9400972997450943 3.9172534079783787 -0.66913061440640931 0 0.74314481823134659 0.74314481823134659 0 0.66913061440640931 1 I I #
face $-1 $-1 $442 $41 $-1 $443 reversed single #
loop $-1 $-1 $194 $188 #
plane-surface $-1 0 0 7.3533014053273451 0 0 1 1 0 0 forward_v I I I I #
coedge $-1 $444 $445 $446 $447 reversed $189 $-1 #
coedge $-1 $448 $191 $193 $312 forward $119 $-1 #
coedge $-1 $191 $448 $444 $449 forward $119 $-1 #
coedge $-1 $446 $194 $191 $309 forward $303 $-1 #
edge $-1 $315 3.4435760364993939 $450 14.99454240032059 $308 $451 forward 7 unknown #
coedge $-1 $452 $453 $192 $311 forward $442 $-1 #
edge $-1 $454 -48.361934770492546 $314 -41.489838775794617 $310 $455 forward 7 unknown #
edge $-1 $315 -10.270186188976258 $454 3.8244927234909694e-014 $193 $456 forward 7 unknown #
coedge $-1 $194 $446 $452 $457 forward $303 $-1 #
vertex $-1 $195 $458 #
vertex $-1 $195 $459 #
straight-curve $-1 -76.462505162905813 12.662635254909386 7.3533014053273433 1 0 0 I I #
coedge $-1 $317 $317 $-1 $460 reversed $198 $-1 #
edge $-1 $461 0 $461 6.2831853071796004 $199 $462 forward 7 unknown #
vertex $-1 $202 $463 #
ellipse-curve $-1 -61.585047982757551 15.9629113588583 3.9172534079783787 -0.66913061440640931 0 0.74314481823134659 0.74314481823134659 0 0.66913061440640931 1 I I #
coedge $-1 $321 $321 $-1 $464 reversed $205 $-1 #
edge $-1 $465 0 $465 6.2831853071796004 $206 $466 forward 7 unknown #
vertex $-1 $209 $467 #
ellipse-curve $-1 -61.585047982757551 20.913325514781668 3.9172534079783787 -0.66913061440640931 0 0.74314481823134659 0.74314481823134659 0 0.66913061440640931 1 I I #
face $-1 $-1 $468 $44 $-1 $469 reversed single #
loop $-1 $-1 $216 $210 #
plane-surface $-1 0 0 7.3533014053273451 0 0 1 1 0 0 forward_v I I I I #
coedge $-1 $470 $471 $472 $473 reversed $211 $-1 #
coedge $-1 $474 $213 $215 $335 forward $133 $-1 #
coedge $-1 $213 $474 $470 $475 forward $133 $-1 #
coedge $-1 $472 $216 $213 $332 forward $326 $-1 #
edge $-1 $338 -4.367837912304859 $476 5.1710907558367563 $331 $477 forward 7 unknown #
coedge $-1 $478 $479 $214 $334 forward $468 $-1 #
edge $-1 $480 -90.78325562859979 $337 -83.44722553839722 $333 $481 forward 7 unknown #
edge $-1 $338 121.95348053473623 $480 130.80233161412394 $215 $482 forward 7 unknown #
coedge $-1 $216 $472 $478 $483 forward $326 $-1 #
vertex $-1 $334 $484 #
vertex $-1 $217 $485 #
straight-curve $-1 50.348740159384441 3.9662114905389103 7.3533014053273433 -1 0 0 I I #
coedge $-1 $340 $340 $-1 $486 reversed $220 $-1 #
edge $-1 $487 0 $487 6.2831853071796004 $221 $488 forward 7 unknown #
vertex $-1 $224 $489 #
ellipse-curve $-1 62.927058496291956 -0.8032528435318973 3.6852863602260371 0.82903758062907751 0 0.55919289150049634 0.55919289150049634 0 -0.82903758062907751 1 I I #
face $-1 $-1 $357 $46 $-1 $490 reversed single #
loop $-1 $-1 $491 $225 #
plane-surface $-1 100.69748031876888 3.9662114905389103 181.60105388744913 0 -1 0 -0.82903758062907751 0 -0.55919289150049634 forward_v I I I I #
coedge $-1 $492 $493 $230 $354 forward $226 $-1 #
coedge $-1 $352 $228 $492 $494 reversed $142 $-1 #
coedge $-1 $228 $352 $356 $495 reversed $142 $-1 #
coedge $-1 $496 $491 $228 $351 forward $345 $-1 #
edge $-1 $497 121.95348053473623 $498 130.80233161412394 $350 $499 forward 7 unknown #
coedge $-1 $349 $348 $229 $353 forward $142 $-1 #
edge $-1 $500 121.95348053473623 $358 130.80233161412394 $229 $501 forward 7 unknown #
edge $-1 $359 -15.052425647677545 $500 -10.104211026137456 $347 $502 forward 7 unknown #
coedge $-1 $503 $231 $493 $504 reversed $357 $-1 #
coedge $-1 $231 $503 $349 $495 forward $357 $-1 #
loop $-1 $-1 $231 $344 #
vertex $-1 $232 $505 #
vertex $-1 $354 $506 #
straight-curve $-1 65.401165807061986 13.505140158680529 90.800526943724563 0 0 1 I I #
coedge $-1 $361 $361 $-1 $507 reversed $235 $-1 #
edge $-1 $508 0 $508 6.2831853071796004 $236 $509 forward 7 unknown #
vertex $-1 $239 $510 #
ellipse-curve $-1 62.927058496291956 8.7356758246097215 3.6852863602260371 0.82903758062907751 0 0.55919289150049634 0.55919289150049634 0 -0.82903758062907751 1 I I #
face $-1 $-1 $255 $36 $-1 $511 reversed single #
loop $-1 $-1 $381 $240 #
plane-surface $-1 0 29.819634305065669 0 0 -1 0 0 0 -1 forward_v I I I I #
coedge $-1 $512 $379 $382 $513 forward $241 $-1 #
coedge $-1 $385 $243 $244 $373 reversed $151 $-1 #
coedge $-1 $379 $512 $243 $371 reversed $241 $-1 #
edge $-1 $386 -7.3533014053273451 $514 7.3533014053273451 $370 $515 forward 7 unknown #
coedge $-1 $245 $244 $512 $516 forward $97 $-1 #
edge $-1 $377 -65.401165807061986 $514 65.401165807061986 $369 $517 forward 7 unknown #
coedge $-1 $382 $381 $245 $375 reversed $366 $-1 #
edge $-1 $518 -65.401165807061986 $376 65.401165807061986 $374 $519 forward 7 unknown #
vertex $-1 $247 $520 #
vertex $-1 $388 $521 #
straight-curve $-1 65.401165807061986 0 -7.3533014053273451 0 -1 0 I I #
coedge $-1 $368 $370 $248 $380 reversed $241 $-1 #
edge $-1 $383 -29.819634305065669 $386 29.819634305065669 $379 $522 forward 7 unknown #
coedge $-1 $374 $249 $254 $389 forward $366 $-1 #
coedge $-1 $249 $374 $368 $513 reversed $366 $-1 #
vertex $-1 $250 $523 #
straight-curve $-1 0 29.819634305065669 7.3533014053273451 -1 0 0 I I #
coedge $-1 $251 $369 $253 $388 reversed $151 $-1 #
vertex $-1 $380 $524 #
straight-curve $-1 0 -29.819634305065669 7.3533014053273451 1 0 0 I I #
edge $-1 $256 -7.3533014053273451 $377 7.3533014053273451 $253 $525 forward 7 unknown #
edge $-1 $257 -7.3533014053273451 $376 7.3533014053273451 $254 $526 forward 7 unknown #
point $-1 65.401165807061986 -29.819634305065669 7.3533014053273451 #
point $-1 65.401165807061986 29.819634305065669 7.3533014053273451 #
face $-1 $-1 $274 $37 $-1 $527 reversed single #
loop $-1 $-1 $270 $259 #
plane-surface $-1 0 -29.819634305065669 0 0 1 0 0 0 1 forward_v I I I I #
coedge $-1 $528 $529 $267 $405 forward $260 $-1 #
coedge $-1 $406 $262 $264 $401 reversed $159 $-1 #
edge $-1 $403 -3.130124880956898 $275 -0.13012488095689778 $273 $530 forward 7 unknown #
coedge $-1 $264 $263 $531 $532 reversed $101 $-1 #
coedge $-1 $410 $409 $263 $400 forward $393 $-1 #
edge $-1 $533 -65.401165807061986 $402 65.401165807061986 $399 $534 forward 7 unknown #
edge $-1 $535 -65.401165807061986 $403 65.401165807061986 $396 $536 forward 7 unknown #
vertex $-1 $400 $537 #
vertex $-1 $266 $538 #
straight-curve $-1 65.401165807061986 -12.92671140726338 -4.760249761913796 0 1 0 I I #
edge $-1 $411 -16.89292289780229 $407 -8.9604999167244692 $395 $539 forward 7 unknown #
coedge $-1 $268 $396 $528 $540 reversed $159 $-1 #
vertex $-1 $405 $541 #
straight-curve $-1 0 -21.887211323987849 -1.7602497619137958 -1 0 0 I I #
coedge $-1 $399 $270 $529 $542 forward $393 $-1 #
coedge $-1 $270 $399 $272 $413 reversed $393 $-1 #
vertex $-1 $542 $543 #
straight-curve $-1 0 -29.819634305065669 -1.7602497619137958 -1 0 0 I I #
edge $-1 $276 1.7602497619137958 $402 4.760249761913796 $272 $544 forward 7 unknown #
point $-1 65.401165807061986 -21.887211323987849 -1.7602497619137958 #
point $-1 65.401165807061986 -29.819634305065669 -1.7602497619137958 #
plane-surface $-1 0 0 7.3533014053273451 0 0 1 1 0 0 forward_v I I I I #
coedge $-1 $427 $426 $419 $545 forward $279 $-1 #
coedge $-1 $419 $281 $283 $423 reversed $167 $-1 #
coedge $-1 $281 $418 $417 $545 reversed $167 $-1 #
coedge $-1 $289 $284 $281 $421 forward $290 $-1 #
edge $-1 $424 -18.693575004452704 $546 -11.061339355843828 $420 $547 forward 7 unknown #
coedge $-1 $283 $282 $427 $548 reversed $105 $-1 #
edge $-1 $549 -3.8244927234909694e-014 $424 10.270186188976258 $418 $550 forward 7 unknown #
vertex $-1 $285 $551 #
straight-curve $-1 -57.768930158453117 -3.7076521888533893 7.3533014053273451 0 1 0 I I #
coedge $-1 $417 $286 $289 $431 reversed $279 $-1 #
coedge $-1 $286 $417 $422 $548 forward $279 $-1 #
vertex $-1 $287 $552 #
straight-curve $-1 -65.401165807061986 -13.190787559617377 48.84314018112196 0 0 1 I I #
straight-curve $-1 -65.401165807061957 -13.190787559617377 0.48120541062944255 -0.74314481823134659 0 -0.66913061440640931 I I #
edge $-1 $546 1.6398211957961806 $291 13.190787559617377 $426 $553 forward 7 unknown #
point $-1 -65.401165807061986 -13.190787559617377 7.3533014053273451 #
point $-1 -57.768930158453109 -13.190787559617377 7.3533014053273451 #
edge $-1 $554 1 $554 0 $294 $-1 forward 7 unknown #
vertex $-1 $295 $555 #
ellipse-curve $-1 -59.222006285096313 -9.890511455668463 1.2928297826456987 -0.66913061440640931 0 0.74314481823134659 0.74314481823134659 0 0.66913061440640931 1 I I #
point $-1 -60.841903164526222 -9.890511455668463 4.586384022384812 #
edge $-1 $556 1 $556 0 $298 $-1 forward 7 unknown #
vertex $-1 $299 $557 #
ellipse-curve $-1 -59.222006285096313 -4.9400972997450943 1.2928297826456987 -0.66913061440640931 0 0.74314481823134659 0.74314481823134659 0 0.66913061440640931 1 I I #
point $-1 -60.841903164526222 -4.9400972997450943 4.586384022384812 #
loop $-1 $-1 $310 $302 #
plane-surface $-1 -65.401165807061986 0 0 1 0 0 0 0 -1 forward_v I I I I #
coedge $-1 $445 $305 $307 $449 reversed $189 $-1 #
coedge $-1 $305 $444 $558 $559 reversed $189 $-1 #
coedge $-1 $313 $308 $305 $447 forward $303 $-1 #
edge $-1 $450 -18.693575004452704 $560 -11.061339355843828 $446 $561 forward 7 unknown #
coedge $-1 $307 $306 $453 $562 reversed $119 $-1 #
edge $-1 $563 -3.8244927234909694e-014 $450 10.270186188976258 $444 $564 forward 7 unknown #
vertex $-1 $309 $565 #
straight-curve $-1 -57.768930158453117 9.219059218409992 7.3533014053273451 0 1 0 I I #
coedge $-1 $558 $310 $313 $457 reversed $442 $-1 #
coedge $-1 $310 $558 $448 $562 forward $442 $-1 #
vertex $-1 $311 $566 #
straight-curve $-1 -65.401165807061986 12.662635254909386 48.84314018112196 0 0 1 I I #
straight-curve $-1 -65.401165807061957 12.662635254909386 0.48120541062944255 -0.74314481823134659 0 -0.66913061440640931 I I #
edge $-1 $560 -24.213601618730582 $314 -12.662635254909386 $452 $567 forward 7 unknown #
point $-1 -65.401165807061986 12.662635254909386 7.3533014053273451 #
point $-1 -57.768930158453109 12.662635254909386 7.3533014053273451 #
edge $-1 $568 1 $568 0 $317 $-1 forward 7 unknown #
vertex $-1 $318 $569 #
ellipse-curve $-1 -59.222006285096313 15.9629113588583 1.2928297826456987 -0.66913061440640931 0 0.74314481823134659 0.74314481823134659 0 0.66913061440640931 1 I I #
point $-1 -60.841903164526222 15.9629113588583 4.586384022384812 #
edge $-1 $570 1 $570 0 $321 $-1 forward 7 unknown #
vertex $-1 $322 $571 #
ellipse-curve $-1 -59.222006285096313 20.913325514781668 1.2928297826456987 -0.66913061440640931 0 0.74314481823134659 0.74314481823134659 0 0.66913061440640931 1 I I #
point $-1 -60.841903164526222 20.913325514781668 4.586384022384812 #
loop $-1 $-1 $333 $325 #
plane-surface $-1 65.401165807061986 0 0 -1 0 0 0 0 1 forward_v I I I I #
coedge $-1 $471 $328 $330 $475 reversed $211 $-1 #
coedge $-1 $328 $470 $572 $573 reversed $211 $-1 #
coedge $-1 $336 $331 $328 $473 forward $326 $-1 #
edge $-1 $476 10.104211026137456 $574 15.052425647677545 $472 $575 forward 7 unknown #
coedge $-1 $330 $329 $479 $576 reversed $133 $-1 #
edge $-1 $577 -130.80233161412394 $476 -121.95348053473623 $470 $578 forward 7 unknown #
vertex $-1 $332 $579 #
straight-curve $-1 60.452951185521911 -0.40162642176594865 7.3533014053273433 0 -1 0 I I #
coedge $-1 $572 $333 $336 $483 reversed $468 $-1 #
coedge $-1 $333 $572 $474 $576 forward $468 $-1 #
vertex $-1 $334 $580 #
straight-curve $-1 65.401165807061986 3.9662114905389103 90.800526943724563 0 0 1 I I #
straight-curve $-1 -7.7425682232467494 3.9662114905389103 108.45731985714036 0.55919289150049634 0 -0.82903758062907751 I I #
edge $-1 $574 -5.5727171776027049 $337 3.9662114905389103 $478 $581 forward 7 unknown #
point $-1 65.401165807061986 3.9662114905389103 7.3533014053273451 #
point $-1 60.452951185521897 3.9662114905389103 7.3533014053273433 #
edge $-1 $582 1 $582 0 $340 $-1 forward 7 unknown #
vertex $-1 $341 $583 #
ellipse-curve $-1 60.488877871502289 -0.8032528435318973 2.0407128144260325 0.82903758062907751 0 0.55919289150049634 0.55919289150049634 0 -0.82903758062907751 1 I I #
point $-1 63.486251387792429 -0.8032528435318973 2.8562487795969469 #
plane-surface $-1 65.401165807061986 0 0 -1 0 0 0 0 1 forward_v I I I I #
coedge $-1 $350 $496 $584 $585 reversed $345 $-1 #
coedge $-1 $584 $347 $348 $494 forward $226 $-1 #
coedge $-1 $347 $584 $355 $504 forward $226 $-1 #
edge $-1 $500 -13.906766580446478 $497 -4.367837912304859 $492 $586 forward 7 unknown #
edge $-1 $498 4.367837912304859 $358 13.906766580446478 $356 $587 forward 7 unknown #
coedge $-1 $491 $350 $503 $588 reversed $345 $-1 #
vertex $-1 $494 $589 #
vertex $-1 $495 $590 #
straight-curve $-1 -7.7425682232467494 3.9662114905389103 108.45731985714036 0.55919289150049634 0 -0.82903758062907751 I I #
vertex $-1 $354 $591 #
straight-curve $-1 -7.7425682232467494 13.505140158680529 108.45731985714036 0.55919289150049634 0 -0.82903758062907751 I I #
straight-curve $-1 50.348740159384441 13.505140158680529 7.3533014053273433 -1 0 0 I I #
coedge $-1 $356 $355 $496 $588 forward $357 $-1 #
edge $-1 $592 3.9662114905389103 $359 13.505140158680529 $355 $593 forward 7 unknown #
point $-1 65.401165807061986 13.505140158680529 0.017271315124773423 #
point $-1 65.401165807061986 13.505140158680529 7.3533014053273451 #
edge $-1 $594 1 $594 0 $361 $-1 forward 7 unknown #
vertex $-1 $362 $595 #
ellipse-curve $-1 60.488877871502289 8.7356758246097215 2.0407128144260325 0.82903758062907751 0 0.55919289150049634 0.55919289150049634 0 -0.82903758062907751 1 I I #
point $-1 63.486251387792429 8.7356758246097215 2.8562487795969469 #
plane-surface $-1 65.401165807061986 0 0 -1 0 0 0 0 1 forward_v I I I I #
coedge $-1 $370 $368 $372 $516 reversed $241 $-1 #
edge $-1 $383 -7.3533014053273451 $518 7.3533014053273451 $382 $596 forward 7 unknown #
vertex $-1 $516 $597 #
straight-curve $-1 -65.401165807061986 -29.819634305065669 0 0 0 -1 I I #
edge $-1 $514 -29.819634305065669 $518 29.819634305065669 $512 $598 forward 7 unknown #
straight-curve $-1 0 -29.819634305065669 -7.3533014053273451 -1 0 0 I I #
vertex $-1 $375 $599 #
straight-curve $-1 0 29.819634305065669 -7.3533014053273451 1 0 0 I I #
point $-1 65.401165807061986 29.819634305065669 -7.3533014053273451 #
point $-1 65.401165807061986 -29.819634305065669 -7.3533014053273451 #
straight-curve $-1 -65.401165807061986 0 7.3533014053273451 0 -1 0 I I #
point $-1 -65.401165807061986 29.819634305065669 7.3533014053273451 #
point $-1 -65.401165807061986 -29.819634305065669 7.3533014053273451 #
straight-curve $-1 65.401165807061986 -29.819634305065669 0 0 0 -1 I I #
straight-curve $-1 65.401165807061986 29.819634305065669 0 0 0 -1 I I #
plane-surface $-1 65.401165807061986 0 0 -1 0 0 0 0 1 forward_v I I I I #
coedge $-1 $531 $395 $406 $540 forward $260 $-1 #
coedge $-1 $395 $531 $409 $542 reversed $260 $-1 #
straight-curve $-1 65.401165807061986 -21.887211323987849 -1.630124880956898 0 0 1 I I #
coedge $-1 $529 $528 $398 $532 forward $260 $-1 #
edge $-1 $535 8.9604999167244692 $533 16.89292289780229 $531 $600 forward 7 unknown #
vertex $-1 $400 $601 #
straight-curve $-1 0 -29.819634305065669 -4.760249761913796 1 0 0 I I #
vertex $-1 $532 $602 #
straight-curve $-1 0 -21.887211323987849 -4.760249761913796 1 0 0 I I #
point $-1 65.401165807061986 -29.819634305065669 -4.760249761913796 #
point $-1 65.401165807061986 -21.887211323987849 -4.760249761913796 #
straight-curve $-1 -65.401165807061986 -12.92671140726338 -1.7602497619137958 0 1 0 I I #
edge $-1 $407 0.13012488095689778 $535 3.130124880956898 $528 $603 forward 7 unknown #
point $-1 -65.401165807061986 -21.887211323987849 -1.7602497619137958 #
edge $-1 $411 1.7602497619137958 $533 4.760249761913796 $529 $604 forward 7 unknown #
point $-1 -65.401165807061986 -29.819634305065669 -1.7602497619137958 #
straight-curve $-1 65.401165807061986 -29.819634305065669 0 0 0 -1 I I #
edge $-1 $546 41.489838775794617 $549 48.361934770492546 $417 $605 forward 7 unknown #
vertex $-1 $431 $606 #
straight-curve $-1 -76.462505162905813 -1.6398211957961806 7.3533014053273433 -1 0 0 I I #
edge $-1 $549 -2.0678309930572087 $428 9.4831353707639874 $427 $607 forward 7 unknown #
vertex $-1 $548 $608 #
straight-curve $-1 -65.401165807061957 -1.6398211957961806 0.48120541062944255 0.74314481823134659 0 0.66913061440640931 I I #
point $-1 -57.768930158453109 -1.6398211957961806 7.3533014053273451 #
point $-1 -65.401165807061986 -13.190787559617377 0.48120541062941696 #
straight-curve $-1 -65.401165807061986 0 7.3533014053273451 0 -1 0 I I #
vertex $-1 $434 $609 #
point $-1 -58.478861466864963 -9.890511455668463 1.961960397052108 #
vertex $-1 $438 $610 #
point $-1 -58.478861466864963 -4.9400972997450943 1.961960397052108 #
coedge $-1 $453 $452 $445 $559 forward $442 $-1 #
edge $-1 $560 41.489838775794617 $563 48.361934770492546 $558 $611 forward 7 unknown #
vertex $-1 $457 $612 #
straight-curve $-1 -76.462505162905813 24.213601618730582 7.3533014053273433 -1 0 0 I I #
edge $-1 $563 -14.99454240032059 $454 -3.4435760364993939 $453 $613 forward 7 unknown #
vertex $-1 $562 $614 #
straight-curve $-1 -65.401165807061957 24.213601618730582 0.48120541062944255 0.74314481823134659 0 0.66913061440640931 I I #
point $-1 -57.768930158453109 24.213601618730582 7.3533014053273451 #
point $-1 -65.401165807061986 12.662635254909386 0.48120541062941696 #
straight-curve $-1 -65.401165807061986 0 7.3533014053273451 0 -1 0 I I #
vertex $-1 $460 $615 #
point $-1 -58.478861466864963 15.9629113588583 1.961960397052108 #
vertex $-1 $464 $616 #
point $-1 -58.478861466864963 20.913325514781668 1.961960397052108 #
coedge $-1 $479 $478 $471 $573 forward $468 $-1 #
edge $-1 $574 83.44722553839722 $577 90.78325562859979 $572 $617 forward 7 unknown #
vertex $-1 $483 $618 #
straight-curve $-1 50.348740159384441 -5.5727171776027049 7.3533014053273433 1 0 0 I I #
edge $-1 $577 -5.1710907558367563 $480 4.367837912304859 $479 $619 forward 7 unknown #
vertex $-1 $576 $620 #
straight-curve $-1 -7.7425682232467494 -5.5727171776027049 108.45731985714036 -0.55919289150049634 0 0.82903758062907751 I I #
point $-1 60.452951185521897 -5.5727171776027049 7.3533014053273433 #
point $-1 65.401165807061986 3.9662114905389103 0.017271315124773423 #
straight-curve $-1 65.401165807061986 0 7.3533014053273451 0 1 0 I I #
vertex $-1 $486 $621 #
point $-1 61.048070763002784 -0.8032528435318973 1.2116752337969552 #
coedge $-1 $493 $492 $491 $585 forward $226 $-1 #
edge $-1 $497 10.104211026137456 $592 15.052425647677545 $584 $622 forward 7 unknown #
straight-curve $-1 60.452951185521911 -0.40162642176594865 7.3533014053273433 0 -1 0 I I #
straight-curve $-1 65.401165807062 -0.40162642176594865 0.017271315124766318 0 1 0 I I #
edge $-1 $592 83.44722553839722 $498 90.78325562859979 $503 $623 forward 7 unknown #
point $-1 60.452951185521897 3.9662114905389103 7.3533014053273433 #
point $-1 65.401165807061986 3.9662114905389103 0.017271315124773423 #
point $-1 60.452951185521897 13.505140158680529 7.3533014053273433 #
vertex $-1 $504 $624 #
straight-curve $-1 65.401165807061986 0 7.3533014053273451 0 1 0 I I #
vertex $-1 $507 $625 #
point $-1 61.048070763002784 8.7356758246097215 1.2116752337969552 #
straight-curve $-1 -65.401165807061986 29.819634305065669 0 0 0 -1 I I #
point $-1 -65.401165807061986 -29.819634305065669 -7.3533014053273451 #
straight-curve $-1 -65.401165807061986 0 -7.3533014053273451 0 1 0 I I #
point $-1 -65.401165807061986 29.819634305065669 -7.3533014053273451 #
straight-curve $-1 -65.401165807061986 -12.92671140726338 -4.760249761913796 0 -1 0 I I #
point $-1 -65.401165807061986 -29.819634305065669 -4.760249761913796 #
point $-1 -65.401165807061986 -21.887211323987849 -4.760249761913796 #
straight-curve $-1 -65.401165807061986 -21.887211323987849 -1.630124880956898 0 0 -1 I I #
straight-curve $-1 -65.401165807061986 -29.819634305065669 0 0 0 -1 I I #
straight-curve $-1 -65.401165807061986 -1.6398211957961806 48.84314018112196 0 0 -1 I I #
point $-1 -65.401165807061986 -1.6398211957961806 7.3533014053273451 #
straight-curve $-1 -65.401165807061986 -3.7076521888533893 0.48120541062941941 0 -1 0 I I #
point $-1 -65.401165807061986 -1.6398211957961806 0.48120541062941696 #
point $-1 -58.5528756706899 -9.890511455668463 0.549684964414352 #
point $-1 -58.5528756706899 -4.9400972997450943 0.549684964414352 #
straight-curve $-1 -65.401165807061986 24.213601618730582 48.84314018112196 0 0 -1 I I #
point $-1 -65.401165807061986 24.213601618730582 7.3533014053273451 #
straight-curve $-1 -65.401165807061986 9.219059218409992 0.48120541062941941 0 -1 0 I I #
point $-1 -65.401165807061986 24.213601618730582 0.48120541062941696 #
point $-1 -58.5528756706899 15.9629113588583 0.549684964414352 #
point $-1 -58.5528756706899 20.913325514781668 0.549684964414352 #
straight-curve $-1 65.401165807061986 -5.5727171776027049 90.800526943724563 0 0 -1 I I #
point $-1 65.401165807061986 -5.5727171776027049 7.3533014053273451 #
straight-curve $-1 65.401165807062 -0.40162642176594865 0.017271315124766318 0 1 0 I I #
point $-1 65.401165807061986 -5.5727171776027049 0.017271315124773423 #
point $-1 59.659840290873213 -0.8032528435318973 1.4815199229255362 #
straight-curve $-1 50.348740159384441 3.9662114905389103 7.3533014053273433 1 0 0 I I #
straight-curve $-1 65.401165807061986 3.9662114905389103 90.800526943724563 0 0 -1 I I #
point $-1 65.401165807061986 3.9662114905389103 7.3533014053273451 #
point $-1 59.659840290873213 8.7356758246097215 1.4815199229255362 #
End-of-ACIS-data 