500 0 10 0           
7 Unknown 11 ACIS 5.0 NT 24 Thu Mar 25 23:29:11 1999 
-1 9.9999999999999995e-007 1e-010 
body $-1 $10 $-1 $11 #
body $-1 $12 $-1 $13 #
body $-1 $14 $-1 $15 #
body $-1 $16 $-1 $17 #
body $-1 $18 $-1 $19 #
body $-1 $20 $-1 $21 #
body $-1 $22 $-1 $23 #
body $-1 $24 $-1 $25 #
body $-1 $26 $-1 $27 #
body $-1 $28 $-1 $29 #
lump $-1 $-1 $30 $0 #
transform $-1 1 0 0 0 1 0 0 0 1 69.257484664448981 42.689724265672027 14.195470034679275 1 rotate no_reflect no_shear #
lump $-1 $-1 $31 $1 #
transform $-1 1 0 0 0 1 0 0 0 1 69.257484664448981 42.689724265672027 14.195470034679275 1 rotate no_reflect no_shear #
lump $-1 $-1 $32 $2 #
transform $-1 1 0 0 0 1 0 0 0 1 69.257484664448981 42.689724265672027 14.195470034679275 1 rotate no_reflect no_shear #
lump $-1 $-1 $33 $3 #
transform $-1 1 0 0 0 1 0 0 0 1 69.257484664448981 42.689724265672027 14.195470034679275 1 rotate no_reflect no_shear #
lump $-1 $-1 $34 $4 #
transform $-1 1 0 0 0 1 0 0 0 1 69.257484664448981 42.689724265672027 14.195470034679275 1 rotate no_reflect no_shear #
lump $-1 $-1 $35 $5 #
transform $-1 1 0 0 0 1 0 0 0 1 69.257484664448981 42.689724265672027 14.195470034679275 1 rotate no_reflect no_shear #
lump $-1 $-1 $36 $6 #
transform $-1 1 0 0 0 1 0 0 0 1 69.257484664448981 42.689724265672027 14.195470034679275 1 rotate no_reflect no_shear #
lump $-1 $-1 $37 $7 #
transform $-1 1 0 0 0 1 0 0 0 1 69.257484664448981 42.689724265672027 14.195470034679275 1 rotate no_reflect no_shear #
lump $-1 $-1 $38 $8 #
transform $-1 1 0 0 0 1 0 0 0 1 69.257484664448981 42.689724265672027 14.195470034679275 1 rotate no_reflect no_shear #
lump $-1 $-1 $39 $9 #
transform $-1 1 0 0 0 1 0 0 0 1 69.257484664448981 42.689724265672027 14.195470034679275 1 rotate no_reflect no_shear #
shell $-1 $-1 $-1 $40 $-1 $10 #
shell $-1 $-1 $-1 $41 $-1 $12 #
shell $-1 $-1 $-1 $42 $-1 $14 #
shell $-1 $-1 $-1 $43 $-1 $16 #
shell $-1 $-1 $-1 $44 $-1 $18 #
shell $-1 $-1 $-1 $45 $-1 $20 #
shell $-1 $-1 $-1 $46 $-1 $22 #
shell $-1 $-1 $-1 $47 $-1 $24 #
shell $-1 $-1 $-1 $48 $-1 $26 #
shell $-1 $-1 $-1 $49 $-1 $28 #
face $-1 $50 $51 $30 $-1 $52 reversed single #
face $-1 $53 $54 $31 $-1 $55 forward single #
face $-1 $56 $57 $32 $-1 $58 reversed single #
face $-1 $59 $60 $33 $-1 $61 forward single #
face $-1 $62 $63 $34 $-1 $64 forward single #
face $-1 $65 $66 $35 $-1 $67 reversed single #
face $-1 $68 $69 $36 $-1 $70 forward single #
face $-1 $71 $72 $37 $-1 $73 forward single #
face $-1 $74 $75 $38 $-1 $76 reversed single #
face $-1 $77 $78 $39 $-1 $79 forward single #
face $-1 $80 $81 $30 $-1 $82 forward single #
loop $-1 $-1 $83 $40 #
plane-surface $-1 0 -42.689724265672027 0 0 1 0 0 0 1 forward_v I I I I #
face $-1 $84 $85 $31 $-1 $86 forward single #
loop $-1 $-1 $87 $41 #
plane-surface $-1 0 -42.689724265672027 0 0 1 0 0 0 1 forward_v I I I I #
face $-1 $88 $89 $32 $-1 $90 reversed single #
loop $-1 $-1 $91 $42 #
plane-surface $-1 -144.69814488329951 -16.634834805263473 127.03521175467476 0 1 0 -0.54463904215088732 0 0.83867056331134215 forward_v I I I I #
face $-1 $92 $93 $33 $-1 $94 forward single #
loop $-1 $95 $96 $43 #
cone-surface $-1 -66.020192935109833 -13.779684278205771 11.492598287851058 0.54463904215088732 0 -0.83867056331134215 0.83867056331134215 0 0.54463904215088732 1 I I 0 1 1 forward I I I I #
face $-1 $97 $98 $34 $-1 $99 forward single #
loop $-1 $100 $101 $44 #
cone-surface $-1 -66.020192935109833 -9.4969584876192172 11.492598287851058 0.54463904215088732 0 -0.83867056331134215 0.83867056331134215 0 0.54463904215088732 1 I I 0 1 1 forward I I I I #
face $-1 $102 $103 $35 $-1 $104 reversed single #
loop $-1 $-1 $105 $45 #
plane-surface $-1 -144.69814488329951 17.414424360598925 127.03521175467476 0 1 0 -0.54463904215088732 0 0.83867056331134215 forward_v I I I I #
face $-1 $106 $107 $36 $-1 $108 forward single #
loop $-1 $109 $110 $46 #
cone-surface $-1 -66.020192935109833 20.269574887656624 11.492598287851058 0.54463904215088732 0 -0.83867056331134215 0.83867056331134215 0 0.54463904215088732 1 I I 0 1 1 forward I I I I #
face $-1 $111 $112 $37 $-1 $113 forward single #
loop $-1 $114 $115 $47 #
cone-surface $-1 -66.020192935109833 24.552300678243171 11.492598287851058 0.54463904215088732 0 -0.83867056331134215 0.83867056331134215 0 0.54463904215088732 1 I I 0 1 1 forward I I I I #
face $-1 $116 $117 $38 $-1 $118 reversed single #
loop $-1 $-1 $119 $48 #
plane-surface $-1 106.63501350266043 20.565357825270329 196.70404049506794 0 -1 0 -0.82903758062907751 0 -0.55919289150049634 forward_v I I I I #
face $-1 $120 $121 $39 $-1 $122 forward single #
loop $-1 $123 $124 $49 #
cone-surface $-1 62.662155752355268 13.369676043421286 7.0810467312136112 -0.82903758062907751 0 -0.55919289150049634 1.1183857830009927 0 -1.658075161258155 1 I I 0 1 2 forward I I I I #
face $-1 $125 $126 $30 $-1 $127 reversed single #
loop $-1 $-1 $128 $50 #
plane-surface $-1 0 0 14.195470034679275 0 0 1 1 0 0 forward_v I I I I #
coedge $-1 $129 $130 $131 $132 reversed $51 $-1 #
face $-1 $133 $134 $31 $-1 $135 reversed single #
loop $-1 $-1 $136 $53 #
plane-surface $-1 0 0 14.195470034679275 0 0 1 1 0 0 forward_v I I I I #
coedge $-1 $137 $138 $139 $140 forward $54 $-1 #
face $-1 $141 $142 $32 $-1 $143 reversed single #
loop $-1 $-1 $144 $56 #
plane-surface $-1 -69.257484664448981 -11.638321382912498 10.866784400554621 -0.54463904215088732 0 0.83867056331134215 0.83867056331134215 0 0.54463904215088732 forward_v I I I I #
coedge $-1 $145 $146 $147 $148 reversed $57 $-1 #
face $-1 $-1 $149 $33 $-1 $150 forward single #
loop $-1 $151 $152 $59 #
cone-surface $-1 -65.07344482872621 -13.779684278205771 10.034734076429483 0.54463904215088732 0 -0.83867056331134215 0.41933528165567108 0 0.27231952107544366 1 I I -0.70710678118654746 0.70710678118654746 0.5 forward I I I I #
loop $-1 $-1 $153 $43 #
coedge $-1 $96 $96 $154 $155 reversed $60 $-1 #
face $-1 $-1 $156 $34 $-1 $157 forward single #
loop $-1 $158 $159 $62 #
cone-surface $-1 -65.07344482872621 -9.4969584876192172 10.034734076429483 0.54463904215088732 0 -0.83867056331134215 0.41933528165567108 0 0.27231952107544366 1 I I -0.70710678118654746 0.70710678118654746 0.5 forward I I I I #
loop $-1 $-1 $160 $44 #
coedge $-1 $101 $101 $161 $162 reversed $63 $-1 #
face $-1 $163 $164 $35 $-1 $165 reversed single #
loop $-1 $-1 $166 $65 #
plane-surface $-1 -69.257484664448981 22.410937782949901 10.866784400554621 -0.54463904215088732 0 0.83867056331134215 0.83867056331134215 0 0.54463904215088732 forward_v I I I I #
coedge $-1 $167 $168 $169 $170 reversed $66 $-1 #
face $-1 $-1 $171 $36 $-1 $172 forward single #
loop $-1 $173 $174 $68 #
cone-surface $-1 -65.07344482872621 20.269574887656624 10.034734076429483 0.54463904215088732 0 -0.83867056331134215 0.41933528165567108 0 0.27231952107544366 1 I I -0.70710678118654746 0.70710678118654746 0.5 forward I I I I #
loop $-1 $-1 $175 $46 #
coedge $-1 $110 $110 $176 $177 reversed $69 $-1 #
face $-1 $-1 $178 $37 $-1 $179 forward single #
loop $-1 $180 $181 $71 #
cone-surface $-1 -65.07344482872621 24.552300678243171 10.034734076429483 0.54463904215088732 0 -0.83867056331134215 0.41933528165567108 0 0.27231952107544366 1 I I -0.70710678118654746 0.70710678118654746 0.5 forward I I I I #
loop $-1 $-1 $182 $47 #
coedge $-1 $115 $115 $183 $184 reversed $72 $-1 #
face $-1 $185 $186 $38 $-1 $187 reversed single #
loop $-1 $-1 $188 $74 #
plane-surface $-1 -8.1991015506800125 13.369676043421293 119.24745427993892 0.82903758062907751 0 0.55919289150049634 0.55919289150049634 0 -0.82903758062907751 forward_v I I I I #
coedge $-1 $189 $190 $191 $192 reversed $75 $-1 #
face $-1 $-1 $193 $39 $-1 $194 forward single #
loop $-1 $195 $196 $77 #
cone-surface $-1 58.536854428340547 13.369676043421286 4.2984959402878502 -0.82903758062907751 0 -0.55919289150049634 0.55919289150049634 0 -0.82903758062907751 1 I I -0.70710678118654746 0.70710678118654746 1 forward I I I I #
loop $-1 $-1 $197 $49 #
coedge $-1 $124 $124 $198 $199 reversed $78 $-1 #
face $-1 $200 $201 $30 $-1 $202 reversed single #
loop $-1 $-1 $203 $80 #
plane-surface $-1 0 0 -14.195470034679275 0 0 1 1 0 0 forward_v I I I I #
coedge $-1 $204 $205 $206 $207 forward $81 $-1 #
coedge $-1 $208 $83 $209 $210 reversed $51 $-1 #
coedge $-1 $83 $208 $211 $212 forward $51 $-1 #
coedge $-1 $213 $203 $83 $132 forward $126 $-1 #
edge $-1 $214 -69.257484664448981 $215 69.257484664448981 $83 $216 forward 7 unknown #
face $-1 $217 $218 $31 $-1 $219 reversed single #
loop $-1 $-1 $220 $84 #
plane-surface $-1 -69.257484664448981 0 0 1 0 0 0 0 -1 forward_v I I I I #
coedge $-1 $221 $222 $138 $223 forward $85 $-1 #
coedge $-1 $224 $87 $225 $226 reversed $54 $-1 #
coedge $-1 $87 $224 $136 $223 reversed $54 $-1 #
coedge $-1 $227 $228 $87 $140 reversed $229 $-1 #
edge $-1 $230 -14.195470034679275 $231 14.195470034679275 $139 $232 forward 7 unknown #
face $-1 $233 $234 $32 $-1 $235 reversed single #
loop $-1 $-1 $236 $88 #
plane-surface $-1 -144.69814488329951 -6.6418079605615219 127.03521175467476 0 -1 0 0.54463904215088732 0 -0.83867056331134215 forward_v I I I I #
coedge $-1 $237 $238 $239 $240 reversed $89 $-1 #
coedge $-1 $146 $91 $241 $242 reversed $57 $-1 #
coedge $-1 $91 $145 $237 $243 reversed $57 $-1 #
coedge $-1 $239 $244 $91 $148 forward $245 $-1 #
edge $-1 $246 3.0915877772007718 $247 8.217314065262741 $147 $248 forward 7 unknown #
loop $-1 $-1 $154 $92 #
plane-surface $-1 -69.257484664448981 -11.638321382912498 10.866784400554621 -0.54463904215088732 0 0.83867056331134215 0.83867056331134215 0 0.54463904215088732 forward_v I I I I #
loop $-1 $-1 $249 $59 #
coedge $-1 $152 $152 $153 $250 reversed $93 $-1 #
coedge $-1 $153 $153 $152 $250 forward $95 $-1 #
coedge $-1 $154 $154 $96 $155 forward $149 $-1 #
edge $-1 $251 0 $251 6.2831853071796004 $154 $252 forward 7 unknown #
loop $-1 $-1 $161 $97 #
plane-surface $-1 -69.257484664448981 -11.638321382912498 10.866784400554621 -0.54463904215088732 0 0.83867056331134215 0.83867056331134215 0 0.54463904215088732 forward_v I I I I #
loop $-1 $-1 $253 $62 #
coedge $-1 $159 $159 $160 $254 reversed $98 $-1 #
coedge $-1 $160 $160 $159 $254 forward $100 $-1 #
coedge $-1 $161 $161 $101 $162 forward $156 $-1 #
edge $-1 $255 0 $255 6.2831853071796004 $161 $256 forward 7 unknown #
face $-1 $257 $258 $35 $-1 $259 forward single #
loop $-1 $-1 $260 $102 #
plane-surface $-1 -144.69814488329951 27.407451205300877 127.03521175467476 0 -1 0 0.54463904215088732 0 -0.83867056331134215 forward_v I I I I #
coedge $-1 $261 $262 $263 $264 reversed $103 $-1 #
coedge $-1 $168 $105 $265 $266 reversed $66 $-1 #
coedge $-1 $105 $167 $261 $267 reversed $66 $-1 #
coedge $-1 $263 $268 $105 $170 forward $258 $-1 #
edge $-1 $269 3.0915877772007718 $270 8.217314065262741 $169 $271 forward 7 unknown #
loop $-1 $-1 $176 $106 #
plane-surface $-1 -69.257484664448981 22.410937782949901 10.866784400554621 -0.54463904215088732 0 0.83867056331134215 0.83867056331134215 0 0.54463904215088732 forward_v I I I I #
loop $-1 $-1 $272 $68 #
coedge $-1 $174 $174 $175 $273 reversed $107 $-1 #
coedge $-1 $175 $175 $174 $273 forward $109 $-1 #
coedge $-1 $176 $176 $110 $177 forward $171 $-1 #
edge $-1 $274 0 $274 6.2831853071796004 $176 $275 forward 7 unknown #
loop $-1 $-1 $183 $111 #
plane-surface $-1 -69.257484664448981 22.410937782949901 10.866784400554621 -0.54463904215088732 0 0.83867056331134215 0.83867056331134215 0 0.54463904215088732 forward_v I I I I #
loop $-1 $-1 $276 $71 #
coedge $-1 $181 $181 $182 $277 reversed $112 $-1 #
coedge $-1 $182 $182 $181 $277 forward $114 $-1 #
coedge $-1 $183 $183 $115 $184 forward $178 $-1 #
edge $-1 $278 0 $278 6.2831853071796004 $183 $279 forward 7 unknown #
face $-1 $280 $281 $38 $-1 $282 forward single #
loop $-1 $-1 $283 $116 #
plane-surface $-1 106.63501350266043 6.1739942615722576 196.70404049506794 0 1 0 0.82903758062907751 0 0.55919289150049634 forward_v I I I I #
coedge $-1 $284 $285 $286 $287 reversed $117 $-1 #
coedge $-1 $190 $119 $288 $289 reversed $75 $-1 #
coedge $-1 $119 $189 $284 $290 reversed $75 $-1 #
coedge $-1 $286 $291 $119 $192 forward $281 $-1 #
edge $-1 $292 -15.939977913118767 $293 -9.3418475757026584 $191 $294 forward 7 unknown #
loop $-1 $-1 $198 $120 #
plane-surface $-1 -8.1991015506800125 13.369676043421293 119.24745427993892 0.82903758062907751 0 0.55919289150049634 0.55919289150049634 0 -0.82903758062907751 forward_v I I I I #
loop $-1 $-1 $295 $77 #
coedge $-1 $196 $196 $197 $296 reversed $121 $-1 #
coedge $-1 $197 $197 $196 $296 forward $123 $-1 #
coedge $-1 $198 $198 $124 $199 forward $193 $-1 #
edge $-1 $297 0 $297 6.2831853071796004 $198 $298 forward 7 unknown #
face $-1 $299 $300 $30 $-1 $301 reversed single #
loop $-1 $-1 $302 $125 #
plane-surface $-1 -69.257484664448981 0 0 1 0 0 0 0 -1 forward_v I I I I #
coedge $-1 $131 $303 $304 $305 forward $126 $-1 #
coedge $-1 $306 $128 $307 $308 forward $81 $-1 #
coedge $-1 $128 $306 $208 $309 forward $81 $-1 #
coedge $-1 $209 $310 $128 $207 reversed $311 $-1 #
edge $-1 $312 -42.689724265672027 $313 42.689724265672027 $206 $314 forward 7 unknown #
coedge $-1 $130 $129 $205 $309 reversed $51 $-1 #
coedge $-1 $304 $206 $129 $210 forward $311 $-1 #
edge $-1 $312 -14.195470034679275 $214 14.195470034679275 $209 $315 forward 7 unknown #
coedge $-1 $316 $317 $130 $212 reversed $201 $-1 #
edge $-1 $318 -14.195470034679275 $215 14.195470034679275 $211 $319 forward 7 unknown #
coedge $-1 $303 $131 $317 $320 forward $126 $-1 #
vertex $-1 $210 $321 #
vertex $-1 $320 $322 #
straight-curve $-1 0 -42.689724265672027 -14.195470034679275 -1 0 0 I I #
face $-1 $323 $229 $31 $-1 $324 reversed single #
loop $-1 $-1 $325 $133 #
plane-surface $-1 -66.484284117160783 -59.97065446529129 0 0 1 0 0 0 1 forward_v I I I I #
coedge $-1 $326 $327 $224 $328 forward $134 $-1 #
coedge $-1 $329 $136 $327 $330 forward $85 $-1 #
coedge $-1 $136 $329 $227 $331 forward $85 $-1 #
edge $-1 $230 63.711083569872585 $332 69.257484664448981 $136 $333 forward 7 unknown #
coedge $-1 $138 $137 $220 $328 reversed $54 $-1 #
coedge $-1 $334 $335 $137 $226 forward $336 $-1 #
edge $-1 $337 -69.257484664448981 $231 -63.711083569872585 $225 $338 forward 7 unknown #
coedge $-1 $339 $139 $222 $331 reversed $229 $-1 #
coedge $-1 $139 $339 $334 $340 reversed $229 $-1 #
loop $-1 $-1 $339 $217 #
vertex $-1 $223 $341 #
vertex $-1 $340 $342 #
straight-curve $-1 -63.711083569872585 -42.689724265672027 0 0 0 -1 I I #
face $-1 $-1 $245 $32 $-1 $343 forward single #
loop $-1 $-1 $344 $141 #
plane-surface $-1 -69.257484664448981 0 0 1 0 0 0 0 -1 forward_v I I I I #
coedge $-1 $345 $346 $347 $348 reversed $142 $-1 #
coedge $-1 $349 $144 $146 $243 forward $89 $-1 #
coedge $-1 $144 $349 $345 $350 forward $89 $-1 #
coedge $-1 $347 $147 $144 $240 forward $245 $-1 #
edge $-1 $247 -10.815674113807225 $351 -0.82264726910527308 $239 $352 forward 7 unknown #
coedge $-1 $353 $354 $145 $242 forward $234 $-1 #
edge $-1 $355 -52.65082147678276 $246 -49.322135842658106 $241 $356 forward 7 unknown #
edge $-1 $247 -6.1117279087797574 $355 0 $146 $357 forward 7 unknown #
coedge $-1 $147 $347 $353 $358 forward $245 $-1 #
loop $-1 $-1 $347 $233 #
vertex $-1 $242 $359 #
vertex $-1 $148 $360 #
straight-curve $-1 -72.349072441649753 -16.634834805263473 14.195470034679275 1 0 0 I I #
coedge $-1 $249 $249 $-1 $361 reversed $151 $-1 #
edge $-1 $362 0 $362 6.2831853071796004 $152 $363 forward 7 unknown #
vertex $-1 $155 $364 #
ellipse-curve $-1 -66.694621520418011 -13.779684278205771 12.531127217616941 -0.54463904215088732 0 0.83867056331134215 0.83867056331134215 0 0.54463904215088732 1 I I #
coedge $-1 $253 $253 $-1 $365 reversed $158 $-1 #
edge $-1 $366 0 $366 6.2831853071796004 $159 $367 forward 7 unknown #
vertex $-1 $162 $368 #
ellipse-curve $-1 -66.694621520418011 -9.4969584876192172 12.531127217616941 -0.54463904215088732 0 0.83867056331134215 0.83867056331134215 0 0.54463904215088732 1 I I #
face $-1 $-1 $369 $35 $-1 $370 reversed single #
loop $-1 $-1 $169 $163 #
plane-surface $-1 0 0 14.195470034679275 0 0 1 1 0 0 forward_v I I I I #
coedge $-1 $371 $372 $373 $374 reversed $164 $-1 #
coedge $-1 $375 $166 $168 $267 forward $103 $-1 #
coedge $-1 $166 $375 $371 $376 forward $103 $-1 #
coedge $-1 $373 $169 $166 $264 forward $258 $-1 #
edge $-1 $270 6.2089554691239748 $377 16.201982313825926 $263 $378 forward 7 unknown #
coedge $-1 $379 $380 $167 $266 forward $369 $-1 #
edge $-1 $381 -52.65082147678276 $269 -49.322135842658106 $265 $382 forward 7 unknown #
edge $-1 $270 -6.1117279087797574 $381 0 $168 $383 forward 7 unknown #
coedge $-1 $169 $373 $379 $384 forward $258 $-1 #
vertex $-1 $266 $385 #
vertex $-1 $170 $386 #
straight-curve $-1 -72.349072441649753 17.414424360598925 14.195470034679275 1 0 0 I I #
coedge $-1 $272 $272 $-1 $387 reversed $173 $-1 #
edge $-1 $388 0 $388 6.2831853071796004 $174 $389 forward 7 unknown #
vertex $-1 $177 $390 #
ellipse-curve $-1 -66.694621520418011 20.269574887656624 12.531127217616941 -0.54463904215088732 0 0.83867056331134215 0.83867056331134215 0 0.54463904215088732 1 I I #
coedge $-1 $276 $276 $-1 $391 reversed $180 $-1 #
edge $-1 $392 0 $392 6.2831853071796004 $181 $393 forward 7 unknown #
vertex $-1 $184 $394 #
ellipse-curve $-1 -66.694621520418011 24.552300678243171 12.531127217616941 -0.54463904215088732 0 0.83867056331134215 0.83867056331134215 0 0.54463904215088732 1 I I #
face $-1 $-1 $395 $38 $-1 $396 reversed single #
loop $-1 $-1 $191 $185 #
plane-surface $-1 0 0 14.195470034679275 0 0 1 1 0 0 forward_v I I I I #
coedge $-1 $397 $398 $399 $400 reversed $186 $-1 #
coedge $-1 $401 $188 $190 $290 forward $117 $-1 #
coedge $-1 $188 $401 $397 $402 forward $117 $-1 #
coedge $-1 $399 $191 $188 $287 forward $281 $-1 #
edge $-1 $293 -13.880519803559682 $403 0.51084376013838906 $286 $404 forward 7 unknown #
coedge $-1 $405 $406 $189 $289 forward $395 $-1 #
edge $-1 $407 -93.938681020935462 $292 -84.156550212854697 $288 $408 forward 7 unknown #
edge $-1 $293 126.71558768849263 $407 138.51496932889793 $190 $409 forward 7 unknown #
coedge $-1 $191 $399 $405 $410 forward $281 $-1 #
vertex $-1 $192 $411 #
vertex $-1 $192 $412 #
straight-curve $-1 53.317506751330214 20.565357825270329 14.195470034679275 -1 0 0 I I #
coedge $-1 $295 $295 $-1 $413 reversed $195 $-1 #
edge $-1 $414 0 $414 6.2831853071796004 $196 $415 forward 7 unknown #
vertex $-1 $199 $416 #
ellipse-curve $-1 65.958419495740941 13.369676043421286 9.3044046306388921 0.82903758062907751 0 0.55919289150049634 1.1183857830009927 0 -1.658075161258155 1 I I #
face $-1 $-1 $311 $30 $-1 $417 reversed single #
loop $-1 $-1 $418 $200 #
plane-surface $-1 0 42.689724265672027 0 0 -1 0 0 0 -1 forward_v I I I I #
coedge $-1 $317 $316 $419 $420 forward $201 $-1 #
coedge $-1 $203 $213 $421 $422 forward $126 $-1 #
coedge $-1 $310 $209 $203 $305 reversed $311 $-1 #
edge $-1 $423 -42.689724265672027 $214 42.689724265672027 $304 $424 forward 7 unknown #
coedge $-1 $205 $204 $316 $425 forward $81 $-1 #
coedge $-1 $418 $419 $204 $308 reversed $300 $-1 #
edge $-1 $313 -69.257484664448981 $426 69.257484664448981 $307 $427 forward 7 unknown #
edge $-1 $318 -69.257484664448981 $312 69.257484664448981 $208 $428 forward 7 unknown #
coedge $-1 $206 $304 $418 $429 reversed $311 $-1 #
loop $-1 $-1 $209 $299 #
vertex $-1 $207 $430 #
vertex $-1 $207 $431 #
straight-curve $-1 69.257484664448981 0 14.195470034679275 0 1 0 I I #
straight-curve $-1 69.257484664448981 -42.689724265672027 0 0 0 -1 I I #
coedge $-1 $302 $211 $306 $425 reversed $201 $-1 #
coedge $-1 $211 $302 $213 $320 reversed $201 $-1 #
vertex $-1 $425 $432 #
straight-curve $-1 -69.257484664448981 -42.689724265672027 0 0 0 -1 I I #
edge $-1 $215 -42.689724265672027 $433 42.689724265672027 $317 $434 forward 7 unknown #
point $-1 69.257484664448981 -42.689724265672027 -14.195470034679275 #
point $-1 -69.257484664448981 -42.689724265672027 -14.195470034679275 #
face $-1 $-1 $336 $31 $-1 $435 reversed single #
plane-surface $-1 -63.711083569872585 -51.330189365481658 0 -1 0 0 0 0 1 forward_v I I I I #
coedge $-1 $436 $437 $438 $439 forward $218 $-1 #
coedge $-1 $438 $220 $335 $440 reversed $134 $-1 #
coedge $-1 $220 $438 $221 $330 reversed $134 $-1 #
edge $-1 $332 -14.195470034679275 $337 14.195470034679275 $220 $441 forward 7 unknown #
coedge $-1 $222 $221 $437 $442 forward $85 $-1 #
edge $-1 $332 42.689724265672027 $443 59.97065446529129 $327 $444 forward 7 unknown #
edge $-1 $445 -8.6404650998096315 $230 8.6404650998096315 $227 $446 forward 7 unknown #
vertex $-1 $330 $447 #
straight-curve $-1 0 -42.689724265672027 14.195470034679275 -1 0 0 I I #
coedge $-1 $448 $225 $228 $340 forward $336 $-1 #
coedge $-1 $225 $448 $326 $440 forward $336 $-1 #
loop $-1 $-1 $225 $323 #
vertex $-1 $328 $449 #
straight-curve $-1 0 -42.689724265672027 -14.195470034679275 1 0 0 I I #
coedge $-1 $228 $227 $450 $451 forward $229 $-1 #
edge $-1 $231 -8.6404650998096315 $452 8.6404650998096315 $228 $453 forward 7 unknown #
point $-1 -63.711083569872585 -42.689724265672027 14.195470034679275 #
point $-1 -63.711083569872585 -42.689724265672027 -14.195470034679275 #
plane-surface $-1 0 0 14.195470034679275 0 0 1 1 0 0 forward_v I I I I #
coedge $-1 $354 $353 $346 $454 forward $234 $-1 #
coedge $-1 $346 $236 $238 $350 reversed $142 $-1 #
coedge $-1 $236 $345 $344 $454 reversed $142 $-1 #
coedge $-1 $244 $239 $236 $348 forward $245 $-1 #
edge $-1 $351 -8.217314065262741 $455 -3.0915877772007718 $347 $456 forward 7 unknown #
coedge $-1 $238 $237 $354 $457 reversed $89 $-1 #
edge $-1 $458 0 $351 6.1117279087797574 $345 $459 forward 7 unknown #
vertex $-1 $240 $460 #
straight-curve $-1 -64.131758376387012 -5.8191606914562488 14.195470034679275 0 1 0 I I #
coedge $-1 $344 $241 $244 $358 reversed $234 $-1 #
coedge $-1 $241 $344 $349 $457 forward $234 $-1 #
vertex $-1 $242 $461 #
straight-curve $-1 -69.257484664448981 -16.634834805263473 63.517605877337381 0 0 1 I I #
straight-curve $-1 -69.257484664448981 -16.634834805263473 10.866784400554621 -0.83867056331134215 0 -0.54463904215088732 I I #
edge $-1 $455 6.6418079605615219 $246 16.634834805263473 $353 $462 forward 7 unknown #
point $-1 -69.257484664448981 -16.634834805263473 14.195470034679275 #
point $-1 -64.131758376387012 -16.634834805263473 14.195470034679275 #
edge $-1 $463 1 $463 0 $249 $-1 forward 7 unknown #
vertex $-1 $250 $464 #
ellipse-curve $-1 -65.345764349801655 -13.779684278205771 10.454069358085155 -0.54463904215088732 0 0.83867056331134215 0.83867056331134215 0 0.54463904215088732 1 I I #
point $-1 -65.855950957106685 -13.779684278205771 13.07576625976785 #
edge $-1 $465 1 $465 0 $253 $-1 forward 7 unknown #
vertex $-1 $254 $466 #
ellipse-curve $-1 -65.345764349801655 -9.4969584876192172 10.454069358085155 -0.54463904215088732 0 0.83867056331134215 0.83867056331134215 0 0.54463904215088732 1 I I #
point $-1 -65.855950957106685 -9.4969584876192172 13.07576625976785 #
loop $-1 $-1 $265 $257 #
plane-surface $-1 -69.257484664448981 0 0 1 0 0 0 0 -1 forward_v I I I I #
coedge $-1 $372 $260 $262 $376 reversed $164 $-1 #
coedge $-1 $260 $371 $467 $468 reversed $164 $-1 #
coedge $-1 $268 $263 $260 $374 forward $258 $-1 #
edge $-1 $377 -8.217314065262741 $469 -3.0915877772007718 $373 $470 forward 7 unknown #
coedge $-1 $262 $261 $380 $471 reversed $103 $-1 #
edge $-1 $472 0 $377 6.1117279087797574 $371 $473 forward 7 unknown #
vertex $-1 $264 $474 #
straight-curve $-1 -64.131758376387012 11.205468891474951 14.195470034679275 0 1 0 I I #
coedge $-1 $467 $265 $268 $384 reversed $369 $-1 #
coedge $-1 $265 $467 $375 $471 forward $369 $-1 #
vertex $-1 $266 $475 #
straight-curve $-1 -69.257484664448981 17.414424360598925 63.517605877337381 0 0 1 I I #
straight-curve $-1 -69.257484664448981 17.414424360598925 10.866784400554621 -0.83867056331134215 0 -0.54463904215088732 I I #
edge $-1 $469 -27.407451205300877 $269 -17.414424360598925 $379 $476 forward 7 unknown #
point $-1 -69.257484664448981 17.414424360598925 14.195470034679275 #
point $-1 -64.131758376387012 17.414424360598925 14.195470034679275 #
edge $-1 $477 1 $477 0 $272 $-1 forward 7 unknown #
vertex $-1 $273 $478 #
ellipse-curve $-1 -65.345764349801655 20.269574887656624 10.454069358085155 -0.54463904215088732 0 0.83867056331134215 0.83867056331134215 0 0.54463904215088732 1 I I #
point $-1 -65.855950957106685 20.269574887656624 13.07576625976785 #
edge $-1 $479 1 $479 0 $276 $-1 forward 7 unknown #
vertex $-1 $277 $480 #
ellipse-curve $-1 -65.345764349801655 24.552300678243171 10.454069358085155 -0.54463904215088732 0 0.83867056331134215 0.83867056331134215 0 0.54463904215088732 1 I I #
point $-1 -65.855950957106685 24.552300678243171 13.07576625976785 #
loop $-1 $-1 $288 $280 #
plane-surface $-1 69.257484664448981 0 0 -1 0 0 0 0 1 forward_v I I I I #
coedge $-1 $398 $283 $285 $402 reversed $186 $-1 #
coedge $-1 $283 $397 $481 $482 reversed $186 $-1 #
coedge $-1 $291 $286 $283 $400 forward $281 $-1 #
edge $-1 $403 9.3418475757026584 $483 15.939977913118767 $399 $484 forward 7 unknown #
coedge $-1 $285 $284 $406 $485 reversed $117 $-1 #
edge $-1 $486 -138.51496932889793 $403 -126.71558768849263 $397 $487 forward 7 unknown #
vertex $-1 $287 $488 #
straight-curve $-1 62.659354327032879 6.6848380217106467 14.195470034679275 0 -1 0 I I #
coedge $-1 $481 $288 $291 $410 reversed $395 $-1 #
coedge $-1 $288 $481 $401 $485 forward $395 $-1 #
vertex $-1 $289 $489 #
straight-curve $-1 69.257484664448981 20.565357825270329 98.352020247533972 0 0 1 I I #
straight-curve $-1 -8.1991015506800125 20.565357825270329 119.24745427993892 0.55919289150049634 0 -0.82903758062907751 I I #
edge $-1 $483 6.1739942615722576 $292 20.565357825270329 $405 $490 forward 7 unknown #
point $-1 69.257484664448981 20.565357825270329 14.195470034679275 #
point $-1 62.659354327032872 20.565357825270329 14.195470034679275 #
edge $-1 $491 1 $491 0 $295 $-1 forward 7 unknown #
vertex $-1 $296 $492 #
ellipse-curve $-1 59.365892008969624 13.369676043421286 4.8576888317883462 0.82903758062907751 0 0.55919289150049634 1.1183857830009927 0 -1.658075161258155 1 I I #
point $-1 67.076805278741915 13.369676043421286 7.6463294693807207 #
plane-surface $-1 69.257484664448981 0 0 -1 0 0 0 0 1 forward_v I I I I #
coedge $-1 $421 $307 $310 $429 forward $300 $-1 #
coedge $-1 $307 $421 $302 $420 reversed $300 $-1 #
edge $-1 $426 -14.195470034679275 $433 14.195470034679275 $419 $493 forward 7 unknown #
coedge $-1 $419 $418 $303 $422 reversed $300 $-1 #
edge $-1 $433 -69.257484664448981 $423 69.257484664448981 $421 $494 forward 7 unknown #
vertex $-1 $305 $495 #
straight-curve $-1 69.257484664448981 0 -14.195470034679275 0 -1 0 I I #
edge $-1 $426 -42.689724265672027 $318 42.689724265672027 $316 $496 forward 7 unknown #
vertex $-1 $308 $497 #
straight-curve $-1 0 42.689724265672027 14.195470034679275 -1 0 0 I I #
straight-curve $-1 0 -42.689724265672027 14.195470034679275 1 0 0 I I #
edge $-1 $313 -14.195470034679275 $423 14.195470034679275 $310 $498 forward 7 unknown #
point $-1 69.257484664448981 -42.689724265672027 14.195470034679275 #
point $-1 69.257484664448981 42.689724265672027 14.195470034679275 #
point $-1 -69.257484664448981 -42.689724265672027 14.195470034679275 #
vertex $-1 $422 $499 #
straight-curve $-1 -69.257484664448981 0 -14.195470034679275 0 1 0 I I #
plane-surface $-1 0 0 -14.195470034679275 0 0 1 1 0 0 forward_v I I I I #
coedge $-1 $450 $325 $448 $500 reversed $218 $-1 #
coedge $-1 $325 $450 $329 $442 reversed $218 $-1 #
coedge $-1 $327 $326 $325 $439 reversed $134 $-1 #
edge $-1 $443 -14.195470034679275 $501 14.195470034679275 $438 $502 forward 7 unknown #
edge $-1 $501 -59.97065446529129 $337 -42.689724265672027 $326 $503 forward 7 unknown #
straight-curve $-1 -69.257484664448981 -42.689724265672027 0 0 0 -1 I I #
edge $-1 $443 -2.773200547288198 $445 2.773200547288198 $437 $504 forward 7 unknown #
vertex $-1 $330 $505 #
straight-curve $-1 -69.257484664448981 0 14.195470034679275 0 -1 0 I I #
vertex $-1 $331 $506 #
straight-curve $-1 -63.711083569872585 -51.330189365481658 14.195470034679275 0 1 0 I I #
point $-1 -69.257484664448981 -42.689724265672027 14.195470034679275 #
coedge $-1 $335 $334 $436 $500 forward $336 $-1 #
point $-1 -69.257484664448981 -42.689724265672027 -14.195470034679275 #
coedge $-1 $437 $436 $339 $451 reversed $218 $-1 #
edge $-1 $445 -14.195470034679275 $452 14.195470034679275 $339 $507 forward 7 unknown #
vertex $-1 $451 $508 #
straight-curve $-1 -63.711083569872585 -51.330189365481658 -14.195470034679275 0 -1 0 I I #
edge $-1 $455 49.322135842658106 $458 52.65082147678276 $344 $509 forward 7 unknown #
vertex $-1 $358 $510 #
straight-curve $-1 -72.349072441649753 -6.6418079605615219 14.195470034679275 -1 0 0 I I #
edge $-1 $458 0.82264726910527308 $355 10.815674113807225 $354 $511 forward 7 unknown #
vertex $-1 $457 $512 #
straight-curve $-1 -69.257484664448981 -6.6418079605615219 10.866784400554621 0.83867056331134215 0 0.54463904215088732 I I #
point $-1 -64.131758376387012 -6.6418079605615219 14.195470034679275 #
point $-1 -69.257484664448981 -16.634834805263473 10.866784400554621 #
straight-curve $-1 -69.257484664448981 0 14.195470034679275 0 -1 0 I I #
vertex $-1 $361 $513 #
point $-1 -64.507093786490316 -13.779684278205771 10.998708400236042 #
vertex $-1 $365 $514 #
point $-1 -64.507093786490316 -9.4969584876192172 10.998708400236042 #
coedge $-1 $380 $379 $372 $468 forward $369 $-1 #
edge $-1 $469 49.322135842658106 $472 52.65082147678276 $467 $515 forward 7 unknown #
vertex $-1 $384 $516 #
straight-curve $-1 -72.349072441649753 27.407451205300877 14.195470034679275 -1 0 0 I I #
edge $-1 $472 -16.201982313825926 $381 -6.2089554691239748 $380 $517 forward 7 unknown #
vertex $-1 $471 $518 #
straight-curve $-1 -69.257484664448981 27.407451205300877 10.866784400554621 0.83867056331134215 0 0.54463904215088732 I I #
point $-1 -64.131758376387012 27.407451205300877 14.195470034679275 #
point $-1 -69.257484664448981 17.414424360598925 10.866784400554621 #
straight-curve $-1 -69.257484664448981 0 14.195470034679275 0 -1 0 I I #
vertex $-1 $387 $519 #
point $-1 -64.507093786490316 20.269574887656624 10.998708400236042 #
vertex $-1 $391 $520 #
point $-1 -64.507093786490316 24.552300678243171 10.998708400236042 #
coedge $-1 $406 $405 $398 $482 forward $395 $-1 #
edge $-1 $483 84.156550212854697 $486 93.938681020935462 $481 $521 forward 7 unknown #
vertex $-1 $410 $522 #
straight-curve $-1 53.317506751330214 6.1739942615722576 14.195470034679275 1 0 0 I I #
edge $-1 $486 -0.51084376013838906 $407 13.880519803559682 $406 $523 forward 7 unknown #
vertex $-1 $485 $524 #
straight-curve $-1 -8.1991015506800125 6.1739942615722576 119.24745427993892 -0.55919289150049634 0 0.82903758062907751 I I #
point $-1 62.659354327032872 6.1739942615722576 14.195470034679275 #
point $-1 69.257484664448981 20.565357825270329 4.4133392265985094 #
straight-curve $-1 69.257484664448981 0 14.195470034679275 0 1 0 I I #
vertex $-1 $413 $525 #
point $-1 60.484277791970619 13.369676043421286 3.1996136705301916 #
straight-curve $-1 -69.257484664448981 42.689724265672027 0 0 0 -1 I I #
straight-curve $-1 0 42.689724265672027 -14.195470034679275 1 0 0 I I #
point $-1 69.257484664448981 42.689724265672027 -14.195470034679275 #
straight-curve $-1 -69.257484664448981 0 14.195470034679275 0 -1 0 I I #
point $-1 -69.257484664448981 42.689724265672027 14.195470034679275 #
straight-curve $-1 69.257484664448981 42.689724265672027 0 0 0 -1 I I #
point $-1 -69.257484664448981 42.689724265672027 -14.195470034679275 #
edge $-1 $452 -2.773200547288198 $501 2.773200547288198 $436 $526 forward 7 unknown #
vertex $-1 $440 $527 #
straight-curve $-1 -69.257484664448981 -59.97065446529129 0 0 0 -1 I I #
straight-curve $-1 -69.257484664448981 0 -14.195470034679275 0 1 0 I I #
straight-curve $-1 -66.484284117160783 -59.97065446529129 14.195470034679275 1 0 0 I I #
point $-1 -69.257484664448981 -59.97065446529129 14.195470034679275 #
point $-1 -63.711083569872585 -59.97065446529129 14.195470034679275 #
straight-curve $-1 -63.711083569872585 -59.97065446529129 0 0 0 -1 I I #
point $-1 -63.711083569872585 -59.97065446529129 -14.195470034679275 #
straight-curve $-1 -69.257484664448981 -6.6418079605615219 63.517605877337381 0 0 -1 I I #
point $-1 -69.257484664448981 -6.6418079605615219 14.195470034679275 #
straight-curve $-1 -69.257484664448981 -5.8191606914562488 10.866784400554623 0 -1 0 I I #
point $-1 -69.257484664448981 -6.6418079605615219 10.866784400554621 #
point $-1 -64.801125307650764 -13.779684278205771 9.615398794773812 #
point $-1 -64.801125307650764 -9.4969584876192172 9.615398794773812 #
straight-curve $-1 -69.257484664448981 27.407451205300877 63.517605877337381 0 0 -1 I I #
point $-1 -69.257484664448981 27.407451205300877 14.195470034679275 #
straight-curve $-1 -69.257484664448981 11.205468891474951 10.866784400554623 0 -1 0 I I #
point $-1 -69.257484664448981 27.407451205300877 10.866784400554621 #
point $-1 -64.801125307650764 20.269574887656624 9.615398794773812 #
point $-1 -64.801125307650764 24.552300678243171 9.615398794773812 #
straight-curve $-1 69.257484664448981 6.1739942615722576 98.352020247533972 0 0 -1 I I #
point $-1 69.257484664448981 6.1739942615722576 14.195470034679275 #
straight-curve $-1 69.257484664448981 6.6848380217106467 4.4133392265985023 0 1 0 I I #
point $-1 69.257484664448981 6.1739942615722576 4.4133392265985094 #
point $-1 57.70781684771147 13.369676043421286 3.7393030487873538 #
straight-curve $-1 -66.484284117160783 -59.97065446529129 -14.195470034679275 -1 0 0 I I #
point $-1 -69.257484664448981 -59.97065446529129 -14.195470034679275 #
End-of-ACIS-data 