500 0 4 0           
7 Unknown 11 ACIS 5.0 NT 24 Thu Mar 25 21:08:25 1999 
-1 9.9999999999999995e-007 1e-010 
body $-1 $4 $-1 $5 #
body $-1 $6 $-1 $7 #
body $-1 $8 $-1 $9 #
body $-1 $10 $-1 $11 #
lump $-1 $-1 $12 $0 #
transform $-1 1 0 0 0 1 0 0 0 1 59.555040131839959 27.779508175391957 11.102986262648495 1 rotate no_reflect no_shear #
lump $-1 $-1 $13 $1 #
transform $-1 1 0 0 0 1 0 0 0 1 59.555040131839959 27.779508175391957 11.102986262648495 1 rotate no_reflect no_shear #
lump $-1 $-1 $14 $2 #
transform $-1 1 0 0 0 1 0 0 0 1 59.555040131839959 27.779508175391957 11.102986262648495 1 rotate no_reflect no_shear #
lump $-1 $-1 $15 $3 #
transform $-1 1 0 0 0 1 0 0 0 1 59.555040131839959 27.779508175391957 11.102986262648495 1 rotate no_reflect no_shear #
shell $-1 $-1 $-1 $16 $-1 $4 #
shell $-1 $-1 $-1 $17 $-1 $6 #
shell $-1 $-1 $-1 $18 $-1 $8 #
shell $-1 $-1 $-1 $19 $-1 $10 #
face $-1 $20 $21 $12 $-1 $22 forward single #
face $-1 $23 $24 $13 $-1 $25 forward single #
face $-1 $26 $27 $14 $-1 $28 reversed single #
face $-1 $29 $30 $15 $-1 $31 forward single #
face $-1 $32 $33 $12 $-1 $34 reversed single #
loop $-1 $-1 $35 $16 #
plane-surface $-1 0 0 11.102986262648495 0 0 1 1 0 0 forward_v I I I I #
face $-1 $36 $37 $13 $-1 $38 reversed single #
loop $-1 $-1 $39 $17 #
plane-surface $-1 -55.204819159658022 0 -6.0867060132684951 0 0 1 1 0 0 forward_v I I I I #
face $-1 $40 $41 $14 $-1 $42 reversed single #
loop $-1 $-1 $43 $18 #
plane-surface $-1 91.696262712673004 19.756178964751268 165.57233200594587 0 -1 0 -0.82903758062907751 0 -0.55919289150049634 forward_v I I I I #
face $-1 $44 $45 $15 $-1 $46 forward single #
loop $-1 $47 $48 $19 #
cone-surface $-1 54.012552016114356 14.454615201588329 4.3987331011402873 -0.82903758062907751 0 -0.55919289150049634 0.83878933725074445 0 -1.2435563709436162 1 I I 0 1 1.5 forward I I I I #
face $-1 $49 $50 $12 $-1 $51 reversed single #
loop $-1 $-1 $52 $20 #
plane-surface $-1 0 0 -11.102986262648495 0 0 1 1 0 0 forward_v I I I I #
coedge $-1 $53 $54 $55 $56 forward $21 $-1 #
face $-1 $57 $58 $13 $-1 $59 reversed single #
loop $-1 $-1 $60 $23 #
plane-surface $-1 -55.204819159658022 0 -9.3699261766434265 0 0 1 1 0 0 forward_v I I I I #
coedge $-1 $61 $62 $63 $64 forward $24 $-1 #
face $-1 $65 $66 $14 $-1 $67 reversed single #
loop $-1 $-1 $68 $26 #
plane-surface $-1 -7.050470057663432 14.454615201588329 98.96682181644249 0.82903758062907751 0 0.55919289150049634 0.55919289150049634 0 -0.82903758062907751 forward_v I I I I #
coedge $-1 $69 $70 $71 $72 reversed $27 $-1 #
face $-1 $-1 $73 $15 $-1 $74 forward single #
loop $-1 $75 $76 $29 #
cone-surface $-1 51.518589030843373 14.454615201588329 2.7165338792779234 -0.82903758062907751 0 -0.55919289150049634 0.41939466862537222 0 -0.62177818547180808 1 I I -0.70710678118654757 0.70710678118654757 0.75 forward I I I I #
loop $-1 $-1 $77 $19 #
coedge $-1 $48 $48 $78 $79 reversed $30 $-1 #
face $-1 $80 $81 $12 $-1 $82 reversed single #
loop $-1 $-1 $83 $32 #
plane-surface $-1 0 -27.779508175391957 0 0 1 0 0 0 1 forward_v I I I I #
coedge $-1 $84 $85 $86 $87 forward $33 $-1 #
coedge $-1 $88 $35 $89 $90 forward $21 $-1 #
coedge $-1 $35 $88 $91 $92 forward $21 $-1 #
coedge $-1 $93 $94 $35 $56 reversed $95 $-1 #
edge $-1 $96 -27.779508175391957 $97 27.779508175391957 $55 $98 forward 7 unknown #
face $-1 $99 $100 $13 $-1 $101 reversed single #
loop $-1 $-1 $102 $36 #
plane-surface $-1 -50.854598187476086 0 -7.7283160949559608 -1 0 0 0 0 1 forward_v I I I I #
coedge $-1 $103 $104 $105 $106 forward $37 $-1 #
coedge $-1 $107 $39 $108 $109 reversed $24 $-1 #
coedge $-1 $39 $107 $110 $111 reversed $24 $-1 #
coedge $-1 $102 $112 $39 $64 reversed $58 $-1 #
edge $-1 $113 -27.779508175391957 $114 27.779508175391957 $63 $115 forward 7 unknown #
face $-1 $116 $117 $14 $-1 $118 reversed single #
loop $-1 $-1 $119 $40 #
plane-surface $-1 91.696262712673004 9.1530514384253898 165.57233200594587 0 1 0 0.82903758062907751 0 0.55919289150049634 forward_v I I I I #
coedge $-1 $120 $121 $122 $123 reversed $41 $-1 #
coedge $-1 $70 $43 $124 $125 reversed $27 $-1 #
coedge $-1 $43 $69 $120 $126 reversed $27 $-1 #
coedge $-1 $122 $127 $43 $72 forward $128 $-1 #
edge $-1 $129 -13.706908775503457 $130 -6.3663021436505645 $71 $131 forward 7 unknown #
loop $-1 $-1 $78 $44 #
plane-surface $-1 -7.050470057663432 14.454615201588329 98.96682181644249 0.82903758062907751 0 0.55919289150049634 0.55919289150049634 0 -0.82903758062907751 forward_v I I I I #
loop $-1 $-1 $132 $29 #
coedge $-1 $76 $76 $77 $133 reversed $45 $-1 #
coedge $-1 $77 $77 $76 $133 forward $47 $-1 #
coedge $-1 $78 $78 $48 $79 forward $73 $-1 #
edge $-1 $134 0 $134 6.2831853071796004 $78 $135 forward 7 unknown #
face $-1 $136 $137 $12 $-1 $138 reversed single #
loop $-1 $-1 $139 $49 #
plane-surface $-1 -59.555040131839959 0 0 1 0 0 0 0 -1 forward_v I I I I #
coedge $-1 $140 $91 $141 $142 forward $50 $-1 #
coedge $-1 $143 $52 $140 $144 forward $33 $-1 #
coedge $-1 $52 $143 $145 $146 forward $33 $-1 #
coedge $-1 $94 $93 $52 $87 reversed $95 $-1 #
edge $-1 $147 -27.779508175391957 $148 27.779508175391957 $86 $149 forward 7 unknown #
coedge $-1 $54 $53 $150 $151 forward $21 $-1 #
coedge $-1 $152 $153 $53 $90 reversed $137 $-1 #
edge $-1 $97 -59.555040131839959 $154 59.555040131839959 $89 $155 forward 7 unknown #
coedge $-1 $83 $156 $54 $92 reversed $50 $-1 #
edge $-1 $157 -59.555040131839959 $96 59.555040131839959 $91 $158 forward 7 unknown #
coedge $-1 $86 $55 $156 $159 forward $95 $-1 #
coedge $-1 $55 $86 $152 $160 reversed $95 $-1 #
loop $-1 $-1 $93 $136 #
vertex $-1 $56 $161 #
vertex $-1 $56 $162 #
straight-curve $-1 59.555040131839959 0 11.102986262648495 0 1 0 I I #
face $-1 $163 $164 $13 $-1 $165 reversed single #
loop $-1 $-1 $166 $57 #
plane-surface $-1 0 -27.779508175391957 0 0 1 0 0 0 1 forward_v I I I I #
coedge $-1 $105 $63 $167 $168 reversed $58 $-1 #
coedge $-1 $169 $60 $166 $170 reversed $37 $-1 #
coedge $-1 $60 $169 $171 $172 reversed $37 $-1 #
coedge $-1 $112 $102 $60 $106 reversed $58 $-1 #
edge $-1 $173 -27.779508175391957 $174 27.779508175391957 $105 $175 forward 7 unknown #
coedge $-1 $62 $61 $176 $177 reversed $24 $-1 #
coedge $-1 $178 $179 $61 $109 forward $180 $-1 #
edge $-1 $181 -31.952630552010948 $114 -23.252188607647074 $108 $182 forward 7 unknown #
coedge $-1 $183 $167 $62 $111 forward $100 $-1 #
edge $-1 $113 23.252188607647074 $184 31.952630552010948 $110 $185 forward 7 unknown #
coedge $-1 $63 $105 $178 $186 reversed $58 $-1 #
vertex $-1 $111 $187 #
vertex $-1 $109 $188 #
straight-curve $-1 -50.854598187476086 0 -6.0867060132684951 0 1 0 I I #
face $-1 $-1 $128 $14 $-1 $189 forward single #
loop $-1 $-1 $190 $65 #
plane-surface $-1 59.555040131839959 0 0 -1 0 0 0 0 1 forward_v I I I I #
coedge $-1 $191 $192 $193 $194 reversed $66 $-1 #
coedge $-1 $195 $68 $70 $126 forward $41 $-1 #
coedge $-1 $68 $195 $191 $196 forward $41 $-1 #
coedge $-1 $193 $71 $68 $123 forward $128 $-1 #
edge $-1 $130 -12.528871363957103 $197 -1.9257438376312255 $122 $198 forward 7 unknown #
coedge $-1 $199 $200 $69 $125 forward $117 $-1 #
edge $-1 $201 -82.566076956866908 $129 -71.683179740324434 $124 $202 forward 7 unknown #
edge $-1 $130 105.98293443720912 $201 119.11008026367996 $70 $203 forward 7 unknown #
coedge $-1 $71 $193 $199 $204 forward $128 $-1 #
loop $-1 $-1 $193 $116 #
vertex $-1 $125 $205 #
vertex $-1 $72 $206 #
straight-curve $-1 45.848131356336502 19.756178964751268 11.1029862626485 -1 0 0 I I #
coedge $-1 $132 $132 $-1 $207 reversed $75 $-1 #
edge $-1 $208 0 $208 6.2831853071796004 $76 $209 forward 7 unknown #
vertex $-1 $79 $210 #
ellipse-curve $-1 55.884736815913513 14.454615201588329 5.6615376543772662 0.82903758062907751 0 0.55919289150049634 0.83878933725074445 0 -1.2435563709436162 1 I I #
face $-1 $-1 $95 $12 $-1 $211 reversed single #
loop $-1 $-1 $152 $80 #
plane-surface $-1 0 27.779508175391957 0 0 -1 0 0 0 -1 forward_v I I I I #
coedge $-1 $212 $150 $153 $213 forward $81 $-1 #
coedge $-1 $156 $83 $84 $144 reversed $50 $-1 #
coedge $-1 $150 $212 $83 $142 reversed $81 $-1 #
edge $-1 $157 -11.102986262648495 $214 11.102986262648495 $141 $215 forward 7 unknown #
coedge $-1 $85 $84 $212 $216 forward $33 $-1 #
edge $-1 $148 -59.555040131839959 $214 59.555040131839959 $140 $217 forward 7 unknown #
coedge $-1 $153 $152 $85 $146 reversed $137 $-1 #
edge $-1 $218 -59.555040131839959 $147 59.555040131839959 $145 $219 forward 7 unknown #
vertex $-1 $87 $220 #
vertex $-1 $159 $221 #
straight-curve $-1 59.555040131839959 0 -11.102986262648495 0 -1 0 I I #
coedge $-1 $139 $141 $88 $151 reversed $81 $-1 #
edge $-1 $154 -27.779508175391957 $157 27.779508175391957 $150 $222 forward 7 unknown #
coedge $-1 $145 $89 $94 $160 forward $137 $-1 #
coedge $-1 $89 $145 $139 $213 reversed $137 $-1 #
vertex $-1 $90 $223 #
straight-curve $-1 0 27.779508175391957 11.102986262648495 -1 0 0 I I #
coedge $-1 $91 $140 $93 $159 reversed $50 $-1 #
vertex $-1 $151 $224 #
straight-curve $-1 0 -27.779508175391957 11.102986262648495 1 0 0 I I #
edge $-1 $96 -11.102986262648495 $148 11.102986262648495 $93 $225 forward 7 unknown #
edge $-1 $97 -11.102986262648495 $147 11.102986262648495 $94 $226 forward 7 unknown #
point $-1 59.555040131839959 -27.779508175391957 11.102986262648495 #
point $-1 59.555040131839959 27.779508175391957 11.102986262648495 #
face $-1 $-1 $180 $13 $-1 $227 reversed single #
loop $-1 $-1 $228 $99 #
plane-surface $-1 -59.555040131839959 0 0 1 0 0 0 0 -1 forward_v I I I I #
coedge $-1 $167 $183 $103 $170 forward $100 $-1 #
coedge $-1 $110 $166 $102 $168 forward $100 $-1 #
edge $-1 $174 -5.5057681291654461 $113 -2.2225479657905147 $167 $229 forward 7 unknown #
coedge $-1 $104 $103 $228 $230 reversed $37 $-1 #
edge $-1 $231 -31.952630552010948 $174 -23.252188607647074 $166 $232 forward 7 unknown #
coedge $-1 $179 $178 $104 $172 forward $180 $-1 #
edge $-1 $173 23.252188607647074 $233 31.952630552010948 $171 $234 forward 7 unknown #
vertex $-1 $172 $235 #
vertex $-1 $170 $236 #
straight-curve $-1 -50.854598187476086 0 -9.3699261766434265 0 -1 0 I I #
coedge $-1 $237 $238 $107 $177 forward $164 $-1 #
edge $-1 $184 -27.779508175391957 $181 27.779508175391957 $176 $239 forward 7 unknown #
coedge $-1 $171 $108 $112 $186 forward $180 $-1 #
coedge $-1 $108 $171 $237 $240 reversed $180 $-1 #
loop $-1 $-1 $171 $163 #
vertex $-1 $240 $241 #
straight-curve $-1 -27.602409579829011 27.779508175391957 -6.0867060132684951 1 0 0 I I #
coedge $-1 $166 $110 $238 $242 forward $100 $-1 #
vertex $-1 $242 $243 #
straight-curve $-1 -27.602409579829011 -27.779508175391957 -6.0867060132684951 -1 0 0 I I #
edge $-1 $114 2.2225479657905147 $173 5.5057681291654461 $178 $244 forward 7 unknown #
point $-1 -50.854598187476086 -27.779508175391957 -6.0867060132684951 #
point $-1 -50.854598187476086 27.779508175391957 -6.0867060132684951 #
plane-surface $-1 0 0 11.102986262648495 0 0 1 1 0 0 forward_v I I I I #
coedge $-1 $200 $199 $192 $245 forward $117 $-1 #
coedge $-1 $192 $119 $121 $196 reversed $66 $-1 #
coedge $-1 $119 $191 $190 $245 reversed $66 $-1 #
coedge $-1 $127 $122 $119 $194 forward $128 $-1 #
edge $-1 $197 6.3663021436505645 $246 13.706908775503457 $193 $247 forward 7 unknown #
coedge $-1 $121 $120 $200 $248 reversed $41 $-1 #
edge $-1 $249 -119.11008026367996 $197 -105.98293443720912 $191 $250 forward 7 unknown #
vertex $-1 $123 $251 #
straight-curve $-1 52.214433499987067 7.2273076007941643 11.102986262648493 0 -1 0 I I #
coedge $-1 $190 $124 $127 $204 reversed $117 $-1 #
coedge $-1 $124 $190 $195 $248 forward $117 $-1 #
vertex $-1 $125 $252 #
straight-curve $-1 59.555040131839959 19.756178964751268 82.786166002972934 0 0 1 I I #
straight-curve $-1 -7.050470057663432 19.756178964751268 98.96682181644249 0.55919289150049634 0 -0.82903758062907751 I I #
edge $-1 $246 9.1530514384253898 $129 19.756178964751268 $199 $253 forward 7 unknown #
point $-1 59.555040131839959 19.756178964751268 11.102986262648495 #
point $-1 52.214433499987067 19.756178964751268 11.1029862626485 #
edge $-1 $254 1 $254 0 $132 $-1 forward 7 unknown #
vertex $-1 $133 $255 #
ellipse-curve $-1 52.140367216315184 14.454615201588329 3.1359285479032959 0.82903758062907751 0 0.55919289150049634 0.83878933725074445 0 -1.2435563709436162 1 I I #
point $-1 56.723526153164272 14.454615201588329 4.4179812834336616 #
plane-surface $-1 59.555040131839959 0 0 -1 0 0 0 0 1 forward_v I I I I #
coedge $-1 $141 $139 $143 $216 reversed $81 $-1 #
edge $-1 $154 -11.102986262648495 $218 11.102986262648495 $153 $256 forward 7 unknown #
vertex $-1 $216 $257 #
straight-curve $-1 -59.555040131839959 -27.779508175391957 0 0 0 -1 I I #
edge $-1 $214 -27.779508175391957 $218 27.779508175391957 $212 $258 forward 7 unknown #
straight-curve $-1 0 -27.779508175391957 -11.102986262648495 -1 0 0 I I #
vertex $-1 $146 $259 #
straight-curve $-1 0 27.779508175391957 -11.102986262648495 1 0 0 I I #
point $-1 59.555040131839959 27.779508175391957 -11.102986262648495 #
point $-1 59.555040131839959 -27.779508175391957 -11.102986262648495 #
straight-curve $-1 -59.555040131839959 0 11.102986262648495 0 -1 0 I I #
point $-1 -59.555040131839959 27.779508175391957 11.102986262648495 #
point $-1 -59.555040131839959 -27.779508175391957 11.102986262648495 #
straight-curve $-1 59.555040131839959 -27.779508175391957 0 0 0 -1 I I #
straight-curve $-1 59.555040131839959 27.779508175391957 0 0 0 -1 I I #
plane-surface $-1 0 27.779508175391957 0 0 -1 0 0 0 -1 forward_v I I I I #
coedge $-1 $238 $237 $169 $230 forward $164 $-1 #
straight-curve $-1 -50.854598187476086 -27.779508175391957 -3.8641580474779804 0 0 1 I I #
edge $-1 $233 -27.779508175391957 $231 27.779508175391957 $228 $260 forward 7 unknown #
vertex $-1 $170 $261 #
straight-curve $-1 -27.602409579829011 -27.779508175391957 -9.3699261766434265 1 0 0 I I #
vertex $-1 $172 $262 #
straight-curve $-1 -27.602409579829011 27.779508175391957 -9.3699261766434265 -1 0 0 I I #
point $-1 -50.854598187476086 27.779508175391957 -9.3699261766434265 #
point $-1 -50.854598187476086 -27.779508175391957 -9.3699261766434265 #
coedge $-1 $228 $176 $179 $240 forward $164 $-1 #
coedge $-1 $176 $228 $183 $242 reversed $164 $-1 #
straight-curve $-1 -59.555040131839959 0 -6.0867060132684951 0 1 0 I I #
edge $-1 $181 6.0867060132684951 $233 9.3699261766434265 $179 $263 forward 7 unknown #
point $-1 -59.555040131839959 27.779508175391957 -6.0867060132684951 #
edge $-1 $184 6.0867060132684951 $231 9.3699261766434265 $238 $264 forward 7 unknown #
point $-1 -59.555040131839959 -27.779508175391957 -6.0867060132684951 #
straight-curve $-1 -50.854598187476086 27.779508175391957 -3.8641580474779804 0 0 -1 I I #
edge $-1 $246 71.683179740324434 $249 82.566076956866908 $190 $265 forward 7 unknown #
vertex $-1 $204 $266 #
straight-curve $-1 45.848131356336502 9.1530514384253898 11.1029862626485 1 0 0 I I #
edge $-1 $249 1.9257438376312255 $201 12.528871363957103 $200 $267 forward 7 unknown #
vertex $-1 $248 $268 #
straight-curve $-1 -7.050470057663432 9.1530514384253898 98.96682181644249 -0.55919289150049634 0 0.82903758062907751 I I #
point $-1 52.214433499987067 9.1530514384253898 11.1029862626485 #
point $-1 59.555040131839959 19.756178964751268 0.22008904610602542 #
straight-curve $-1 59.555040131839959 0 11.102986262648495 0 1 0 I I #
vertex $-1 $207 $269 #
point $-1 52.979156553565929 14.454615201588329 1.8923721769596795 #
straight-curve $-1 -59.555040131839959 27.779508175391957 0 0 0 -1 I I #
point $-1 -59.555040131839959 -27.779508175391957 -11.102986262648495 #
straight-curve $-1 -59.555040131839959 0 -11.102986262648495 0 1 0 I I #
point $-1 -59.555040131839959 27.779508175391957 -11.102986262648495 #
straight-curve $-1 -59.555040131839959 0 -9.3699261766434265 0 -1 0 I I #
point $-1 -59.555040131839959 -27.779508175391957 -9.3699261766434265 #
point $-1 -59.555040131839959 27.779508175391957 -9.3699261766434265 #
straight-curve $-1 -59.555040131839959 27.779508175391957 0 0 0 -1 I I #
straight-curve $-1 -59.555040131839959 -27.779508175391957 0 0 0 -1 I I #
straight-curve $-1 59.555040131839959 9.1530514384253898 82.786166002972934 0 0 -1 I I #
point $-1 59.555040131839959 9.1530514384253898 11.102986262648495 #
straight-curve $-1 59.555040131839974 7.2273076007941643 0.22008904610601832 0 1 0 I I #
point $-1 59.555040131839959 9.1530514384253898 0.22008904610602542 #
point $-1 50.896810845371562 14.454615201588329 2.297139210652551 #
End-of-ACIS-data 