500 0 14 0           
7 Unknown 11 ACIS 5.0 NT 24 Fri Mar 26 16:22:40 1999 
-1 9.9999999999999995e-007 1e-010 
body $-1 $14 $-1 $15 #
body $-1 $16 $-1 $17 #
body $-1 $18 $-1 $19 #
body $-1 $20 $-1 $21 #
body $-1 $22 $-1 $23 #
body $-1 $24 $-1 $25 #
body $-1 $26 $-1 $27 #
body $-1 $28 $-1 $29 #
body $-1 $30 $-1 $31 #
body $-1 $32 $-1 $33 #
body $-1 $34 $-1 $35 #
body $-1 $36 $-1 $37 #
body $-1 $38 $-1 $39 #
body $-1 $40 $-1 $41 #
lump $-1 $-1 $42 $0 #
transform $-1 1 0 0 0 1 0 0 0 1 79.349345377971744 39.061275393406774 8.8568852134890079 1 rotate no_reflect no_shear #
lump $-1 $-1 $43 $1 #
transform $-1 1 0 0 0 1 0 0 0 1 79.349345377971744 39.061275393406774 8.8568852134890079 1 rotate no_reflect no_shear #
lump $-1 $-1 $44 $2 #
transform $-1 1 0 0 0 1 0 0 0 1 79.349345377971744 39.061275393406774 8.8568852134890079 1 rotate no_reflect no_shear #
lump $-1 $-1 $45 $3 #
transform $-1 1 0 0 0 1 0 0 0 1 79.349345377971744 39.061275393406774 8.8568852134890079 1 rotate no_reflect no_shear #
lump $-1 $-1 $46 $4 #
transform $-1 1 0 0 0 1 0 0 0 1 79.349345377971744 39.061275393406774 8.8568852134890079 1 rotate no_reflect no_shear #
lump $-1 $-1 $47 $5 #
transform $-1 1 0 0 0 1 0 0 0 1 79.349345377971744 39.061275393406774 8.8568852134890079 1 rotate no_reflect no_shear #
lump $-1 $-1 $48 $6 #
transform $-1 1 0 0 0 1 0 0 0 1 79.349345377971744 39.061275393406774 8.8568852134890079 1 rotate no_reflect no_shear #
lump $-1 $-1 $49 $7 #
transform $-1 1 0 0 0 1 0 0 0 1 79.349345377971744 39.061275393406774 8.8568852134890079 1 rotate no_reflect no_shear #
lump $-1 $-1 $50 $8 #
transform $-1 1 0 0 0 1 0 0 0 1 79.349345377971744 39.061275393406774 8.8568852134890079 1 rotate no_reflect no_shear #
lump $-1 $-1 $51 $9 #
transform $-1 1 0 0 0 1 0 0 0 1 79.349345377971744 39.061275393406774 8.8568852134890079 1 rotate no_reflect no_shear #
lump $-1 $-1 $52 $10 #
transform $-1 1 0 0 0 1 0 0 0 1 79.349345377971744 39.061275393406774 8.8568852134890079 1 rotate no_reflect no_shear #
lump $-1 $-1 $53 $11 #
transform $-1 1 0 0 0 1 0 0 0 1 79.349345377971744 39.061275393406774 8.8568852134890079 1 rotate no_reflect no_shear #
lump $-1 $-1 $54 $12 #
transform $-1 1 0 0 0 1 0 0 0 1 79.349345377971744 39.061275393406774 8.8568852134890079 1 rotate no_reflect no_shear #
lump $-1 $-1 $55 $13 #
transform $-1 1 0 0 0 1 0 0 0 1 79.349345377971744 39.061275393406774 8.8568852134890079 1 rotate no_reflect no_shear #
shell $-1 $-1 $-1 $56 $-1 $14 #
shell $-1 $-1 $-1 $57 $-1 $16 #
shell $-1 $-1 $-1 $58 $-1 $18 #
shell $-1 $-1 $-1 $59 $-1 $20 #
shell $-1 $-1 $-1 $60 $-1 $22 #
shell $-1 $-1 $-1 $61 $-1 $24 #
shell $-1 $-1 $-1 $62 $-1 $26 #
shell $-1 $-1 $-1 $63 $-1 $28 #
shell $-1 $-1 $-1 $64 $-1 $30 #
shell $-1 $-1 $-1 $65 $-1 $32 #
shell $-1 $-1 $-1 $66 $-1 $34 #
shell $-1 $-1 $-1 $67 $-1 $36 #
shell $-1 $-1 $-1 $68 $-1 $38 #
shell $-1 $-1 $-1 $69 $-1 $40 #
face $-1 $70 $71 $42 $-1 $72 forward single #
face $-1 $73 $74 $43 $-1 $75 forward single #
face $-1 $76 $77 $44 $-1 $78 reversed single #
face $-1 $79 $80 $45 $-1 $81 forward single #
face $-1 $82 $83 $46 $-1 $84 forward single #
face $-1 $85 $86 $47 $-1 $87 reversed single #
face $-1 $88 $89 $48 $-1 $90 forward single #
face $-1 $91 $92 $49 $-1 $93 forward single #
face $-1 $94 $95 $50 $-1 $96 reversed single #
face $-1 $97 $98 $51 $-1 $99 forward single #
face $-1 $100 $101 $52 $-1 $102 forward single #
face $-1 $103 $104 $53 $-1 $105 reversed single #
face $-1 $106 $107 $54 $-1 $108 forward single #
face $-1 $109 $110 $55 $-1 $111 forward single #
face $-1 $112 $113 $42 $-1 $114 reversed single #
loop $-1 $-1 $115 $56 #
plane-surface $-1 0 0 8.8568852134890079 0 0 1 1 0 0 forward_v I I I I #
face $-1 $116 $117 $43 $-1 $118 forward single #
loop $-1 $-1 $119 $57 #
plane-surface $-1 0 -39.061275393406774 0 0 1 0 0 0 1 forward_v I I I I #
face $-1 $120 $121 $44 $-1 $122 reversed single #
loop $-1 $-1 $123 $58 #
plane-surface $-1 -72.46490659930231 56.907089823909971 180.42793682971421 1 0 0 0 -0.52991927123019833 -0.84804809178421925 forward_v I I I I #
face $-1 $124 $125 $45 $-1 $126 forward single #
loop $-1 $127 $128 $59 #
cone-surface $-1 -67.617334773515793 34.285377012448784 4.657349695608513 0 -0.52991927123019833 -0.84804809178421925 2 0 0 1 I I 0 1 2 forward I I I I #
face $-1 $129 $130 $46 $-1 $131 forward single #
loop $-1 $132 $133 $60 #
cone-surface $-1 -60.345977034836011 34.285377012448784 4.657349695608513 0 -0.52991927123019833 -0.84804809178421925 2 0 0 1 I I 0 1 2 forward I I I I #
face $-1 $134 $135 $47 $-1 $136 reversed single #
loop $-1 $-1 $137 $61 #
plane-surface $-1 -29.810469329851713 56.907089823909971 180.42793682971421 1 0 0 0 -0.52991927123019833 -0.84804809178421925 forward_v I I I I #
face $-1 $138 $139 $48 $-1 $140 forward single #
loop $-1 $141 $142 $62 #
cone-surface $-1 -24.962897504065189 34.285377012448784 4.657349695608513 0 -0.52991927123019833 -0.84804809178421925 2 0 0 1 I I 0 1 2 forward I I I I #
face $-1 $143 $144 $49 $-1 $145 forward single #
loop $-1 $146 $147 $63 #
cone-surface $-1 -17.691539765385407 34.285377012448784 4.657349695608513 0 -0.52991927123019833 -0.84804809178421925 2 0 0 1 I I 0 1 2 forward I I I I #
face $-1 $148 $149 $50 $-1 $150 reversed single #
loop $-1 $-1 $151 $64 #
plane-surface $-1 12.843967939598883 56.907089823909971 180.42793682971421 1 0 0 0 -0.52991927123019833 -0.84804809178421925 forward_v I I I I #
face $-1 $152 $153 $51 $-1 $154 forward single #
loop $-1 $155 $156 $65 #
cone-surface $-1 17.691539765385414 34.285377012448784 4.657349695608513 0 -0.52991927123019833 -0.84804809178421925 2 0 0 1 I I 0 1 2 forward I I I I #
face $-1 $157 $158 $52 $-1 $159 forward single #
loop $-1 $160 $161 $66 #
cone-surface $-1 24.962897504065197 34.285377012448784 4.657349695608513 0 -0.52991927123019833 -0.84804809178421925 2 0 0 1 I I 0 1 2 forward I I I I #
face $-1 $162 $163 $53 $-1 $164 reversed single #
loop $-1 $-1 $165 $67 #
plane-surface $-1 55.49840520904948 56.907089823909971 180.42793682971421 1 0 0 0 -0.52991927123019833 -0.84804809178421925 forward_v I I I I #
face $-1 $166 $167 $54 $-1 $168 forward single #
loop $-1 $169 $170 $68 #
cone-surface $-1 60.345977034836025 34.285377012448784 4.657349695608513 0 -0.52991927123019833 -0.84804809178421925 2 0 0 1 I I 0 1 2 forward I I I I #
face $-1 $171 $172 $55 $-1 $173 forward single #
loop $-1 $174 $175 $69 #
cone-surface $-1 67.617334773515793 34.285377012448784 4.657349695608513 0 -0.52991927123019833 -0.84804809178421925 2 0 0 1 I I 0 1 2 forward I I I I #
face $-1 $176 $177 $42 $-1 $178 reversed single #
loop $-1 $-1 $179 $70 #
plane-surface $-1 0 0 -8.8568852134890079 0 0 1 1 0 0 forward_v I I I I #
coedge $-1 $180 $181 $182 $183 forward $71 $-1 #
face $-1 $184 $185 $43 $-1 $186 reversed single #
loop $-1 $-1 $187 $73 #
plane-surface $-1 0 0 8.8568852134890079 0 0 1 1 0 0 forward_v I I I I #
coedge $-1 $188 $189 $190 $191 forward $74 $-1 #
face $-1 $192 $193 $44 $-1 $194 reversed single #
loop $-1 $-1 $195 $76 #
plane-surface $-1 -63.981655904175902 -27.190404726666216 45.843814965482409 0 0.52991927123019833 0.84804809178421925 1 0 0 forward_v I I I I #
coedge $-1 $196 $197 $198 $199 reversed $77 $-1 #
face $-1 $-1 $200 $45 $-1 $201 forward single #
loop $-1 $202 $203 $79 #
cone-surface $-1 -67.617334773515793 32.509669560994439 1.8156237997432996 0 -0.52991927123019833 -0.84804809178421925 1 0 0 1 I I -0.70710678118654746 0.70710678118654746 1 forward I I I I #
loop $-1 $-1 $204 $59 #
coedge $-1 $128 $128 $205 $206 reversed $80 $-1 #
face $-1 $-1 $207 $46 $-1 $208 forward single #
loop $-1 $209 $210 $82 #
cone-surface $-1 -60.345977034836011 32.509669560994439 1.8156237997432996 0 -0.52991927123019833 -0.84804809178421925 1 0 0 1 I I -0.70710678118654746 0.70710678118654746 1 forward I I I I #
loop $-1 $-1 $211 $60 #
coedge $-1 $133 $133 $212 $213 reversed $83 $-1 #
face $-1 $214 $215 $47 $-1 $216 reversed single #
loop $-1 $-1 $217 $85 #
plane-surface $-1 -21.327218634725298 -27.190404726666216 45.843814965482409 0 0.52991927123019833 0.84804809178421925 1 0 0 forward_v I I I I #
coedge $-1 $218 $219 $220 $221 reversed $86 $-1 #
face $-1 $-1 $222 $48 $-1 $223 forward single #
loop $-1 $224 $225 $88 #
cone-surface $-1 -24.962897504065189 32.509669560994439 1.8156237997432996 0 -0.52991927123019833 -0.84804809178421925 1 0 0 1 I I -0.70710678118654746 0.70710678118654746 1 forward I I I I #
loop $-1 $-1 $226 $62 #
coedge $-1 $142 $142 $227 $228 reversed $89 $-1 #
face $-1 $-1 $229 $49 $-1 $230 forward single #
loop $-1 $231 $232 $91 #
cone-surface $-1 -17.691539765385407 32.509669560994439 1.8156237997432996 0 -0.52991927123019833 -0.84804809178421925 1 0 0 1 I I -0.70710678118654746 0.70710678118654746 1 forward I I I I #
loop $-1 $-1 $233 $63 #
coedge $-1 $147 $147 $234 $235 reversed $92 $-1 #
face $-1 $236 $237 $50 $-1 $238 reversed single #
loop $-1 $-1 $239 $94 #
plane-surface $-1 21.327218634725298 -27.190404726666216 45.843814965482409 0 0.52991927123019833 0.84804809178421925 1 0 0 forward_v I I I I #
coedge $-1 $240 $241 $242 $243 reversed $95 $-1 #
face $-1 $-1 $244 $51 $-1 $245 forward single #
loop $-1 $246 $247 $97 #
cone-surface $-1 17.691539765385414 32.509669560994439 1.8156237997432996 0 -0.52991927123019833 -0.84804809178421925 1 0 0 1 I I -0.70710678118654746 0.70710678118654746 1 forward I I I I #
loop $-1 $-1 $248 $65 #
coedge $-1 $156 $156 $249 $250 reversed $98 $-1 #
face $-1 $-1 $251 $52 $-1 $252 forward single #
loop $-1 $253 $254 $100 #
cone-surface $-1 24.962897504065197 32.509669560994439 1.8156237997432996 0 -0.52991927123019833 -0.84804809178421925 1 0 0 1 I I -0.70710678118654746 0.70710678118654746 1 forward I I I I #
loop $-1 $-1 $255 $66 #
coedge $-1 $161 $161 $256 $257 reversed $101 $-1 #
face $-1 $258 $259 $53 $-1 $260 reversed single #
loop $-1 $-1 $261 $103 #
plane-surface $-1 63.981655904175895 -27.190404726666216 45.843814965482409 0 0.52991927123019833 0.84804809178421925 1 0 0 forward_v I I I I #
coedge $-1 $262 $263 $264 $265 reversed $104 $-1 #
face $-1 $-1 $266 $54 $-1 $267 forward single #
loop $-1 $268 $269 $106 #
cone-surface $-1 60.345977034836025 32.509669560994439 1.8156237997432996 0 -0.52991927123019833 -0.84804809178421925 1 0 0 1 I I -0.70710678118654746 0.70710678118654746 1 forward I I I I #
loop $-1 $-1 $270 $68 #
coedge $-1 $170 $170 $271 $272 reversed $107 $-1 #
face $-1 $-1 $273 $55 $-1 $274 forward single #
loop $-1 $275 $276 $109 #
cone-surface $-1 67.617334773515793 32.509669560994439 1.8156237997432996 0 -0.52991927123019833 -0.84804809178421925 1 0 0 1 I I -0.70710678118654746 0.70710678118654746 1 forward I I I I #
loop $-1 $-1 $277 $69 #
coedge $-1 $175 $175 $278 $279 reversed $110 $-1 #
face $-1 $280 $281 $42 $-1 $282 reversed single #
loop $-1 $-1 $283 $112 #
plane-surface $-1 0 -39.061275393406774 0 0 1 0 0 0 1 forward_v I I I I #
coedge $-1 $284 $285 $286 $287 forward $113 $-1 #
coedge $-1 $288 $115 $289 $290 forward $71 $-1 #
coedge $-1 $115 $288 $291 $292 forward $71 $-1 #
coedge $-1 $293 $294 $115 $183 reversed $295 $-1 #
edge $-1 $296 -39.061275393406774 $297 39.061275393406774 $182 $298 forward 7 unknown #
face $-1 $299 $300 $43 $-1 $301 reversed single #
loop $-1 $-1 $302 $116 #
plane-surface $-1 -79.349345377971744 0 0 1 0 0 0 0 -1 forward_v I I I I #
coedge $-1 $303 $304 $305 $306 forward $117 $-1 #
coedge $-1 $305 $119 $302 $307 reversed $74 $-1 #
coedge $-1 $119 $305 $308 $309 reversed $74 $-1 #
coedge $-1 $310 $311 $119 $191 reversed $300 $-1 #
edge $-1 $312 -79.349345377971744 $313 79.349345377971744 $190 $314 forward 7 unknown #
face $-1 $315 $316 $44 $-1 $317 reversed single #
loop $-1 $-1 $318 $120 #
plane-surface $-1 -55.498405209049487 56.907089823909971 180.42793682971421 -1 0 0 0 0.52991927123019833 0.84804809178421925 forward_v I I I I #
coedge $-1 $319 $320 $321 $322 reversed $121 $-1 #
coedge $-1 $197 $123 $323 $324 reversed $77 $-1 #
coedge $-1 $123 $196 $319 $325 reversed $77 $-1 #
coedge $-1 $321 $326 $123 $199 forward $327 $-1 #
edge $-1 $328 -10.607730481451789 $329 -3.5475100799841144 $198 $330 forward 7 unknown #
loop $-1 $-1 $205 $124 #
plane-surface $-1 -63.981655904175902 -27.190404726666216 45.843814965482409 0 0.52991927123019833 0.84804809178421925 1 0 0 forward_v I I I I #
loop $-1 $-1 $331 $79 #
coedge $-1 $203 $203 $204 $332 reversed $125 $-1 #
coedge $-1 $204 $204 $203 $332 forward $127 $-1 #
coedge $-1 $205 $205 $128 $206 forward $200 $-1 #
edge $-1 $333 -2.0715463341826993e-015 $333 6.2831853071795987 $205 $334 forward 7 unknown #
loop $-1 $-1 $212 $129 #
plane-surface $-1 -63.981655904175902 -27.190404726666216 45.843814965482409 0 0.52991927123019833 0.84804809178421925 1 0 0 forward_v I I I I #
loop $-1 $-1 $335 $82 #
coedge $-1 $210 $210 $211 $336 reversed $130 $-1 #
coedge $-1 $211 $211 $210 $336 forward $132 $-1 #
coedge $-1 $212 $212 $133 $213 forward $207 $-1 #
edge $-1 $337 -2.0715463341826993e-015 $337 6.2831853071795987 $212 $338 forward 7 unknown #
face $-1 $339 $340 $47 $-1 $341 forward single #
loop $-1 $-1 $342 $134 #
plane-surface $-1 -12.843967939598883 56.907089823909971 180.42793682971421 -1 0 0 0 0.52991927123019833 0.84804809178421925 forward_v I I I I #
coedge $-1 $343 $344 $345 $346 reversed $135 $-1 #
coedge $-1 $219 $137 $347 $348 reversed $86 $-1 #
coedge $-1 $137 $218 $343 $349 reversed $86 $-1 #
coedge $-1 $345 $350 $137 $221 forward $340 $-1 #
edge $-1 $351 -10.607730481451789 $352 -3.5475100799841144 $220 $353 forward 7 unknown #
loop $-1 $-1 $227 $138 #
plane-surface $-1 -21.327218634725298 -27.190404726666216 45.843814965482409 0 0.52991927123019833 0.84804809178421925 1 0 0 forward_v I I I I #
loop $-1 $-1 $354 $88 #
coedge $-1 $225 $225 $226 $355 reversed $139 $-1 #
coedge $-1 $226 $226 $225 $355 forward $141 $-1 #
coedge $-1 $227 $227 $142 $228 forward $222 $-1 #
edge $-1 $356 -2.0715463341826993e-015 $356 6.2831853071795987 $227 $357 forward 7 unknown #
loop $-1 $-1 $234 $143 #
plane-surface $-1 -21.327218634725298 -27.190404726666216 45.843814965482409 0 0.52991927123019833 0.84804809178421925 1 0 0 forward_v I I I I #
loop $-1 $-1 $358 $91 #
coedge $-1 $232 $232 $233 $359 reversed $144 $-1 #
coedge $-1 $233 $233 $232 $359 forward $146 $-1 #
coedge $-1 $234 $234 $147 $235 forward $229 $-1 #
edge $-1 $360 -2.0715463341826993e-015 $360 6.2831853071795987 $234 $361 forward 7 unknown #
face $-1 $362 $363 $50 $-1 $364 forward single #
loop $-1 $-1 $365 $148 #
plane-surface $-1 29.810469329851713 56.907089823909971 180.42793682971421 -1 0 0 0 0.52991927123019833 0.84804809178421925 forward_v I I I I #
coedge $-1 $366 $367 $368 $369 reversed $149 $-1 #
coedge $-1 $241 $151 $370 $371 reversed $95 $-1 #
coedge $-1 $151 $240 $366 $372 reversed $95 $-1 #
coedge $-1 $368 $373 $151 $243 forward $363 $-1 #
edge $-1 $374 -10.607730481451789 $375 -3.5475100799841144 $242 $376 forward 7 unknown #
loop $-1 $-1 $249 $152 #
plane-surface $-1 21.327218634725298 -27.190404726666216 45.843814965482409 0 0.52991927123019833 0.84804809178421925 1 0 0 forward_v I I I I #
loop $-1 $-1 $377 $97 #
coedge $-1 $247 $247 $248 $378 reversed $153 $-1 #
coedge $-1 $248 $248 $247 $378 forward $155 $-1 #
coedge $-1 $249 $249 $156 $250 forward $244 $-1 #
edge $-1 $379 -2.0715463341826993e-015 $379 6.2831853071795987 $249 $380 forward 7 unknown #
loop $-1 $-1 $256 $157 #
plane-surface $-1 21.327218634725298 -27.190404726666216 45.843814965482409 0 0.52991927123019833 0.84804809178421925 1 0 0 forward_v I I I I #
loop $-1 $-1 $381 $100 #
coedge $-1 $254 $254 $255 $382 reversed $158 $-1 #
coedge $-1 $255 $255 $254 $382 forward $160 $-1 #
coedge $-1 $256 $256 $161 $257 forward $251 $-1 #
edge $-1 $383 -2.0715463341826993e-015 $383 6.2831853071795987 $256 $384 forward 7 unknown #
face $-1 $385 $386 $53 $-1 $387 forward single #
loop $-1 $-1 $388 $162 #
plane-surface $-1 72.46490659930231 56.907089823909971 180.42793682971421 -1 0 0 0 0.52991927123019833 0.84804809178421925 forward_v I I I I #
coedge $-1 $389 $390 $391 $392 reversed $163 $-1 #
coedge $-1 $263 $165 $393 $394 reversed $104 $-1 #
coedge $-1 $165 $262 $389 $395 reversed $104 $-1 #
coedge $-1 $391 $396 $165 $265 forward $386 $-1 #
edge $-1 $397 -10.607730481451789 $398 -3.5475100799841144 $264 $399 forward 7 unknown #
loop $-1 $-1 $271 $166 #
plane-surface $-1 63.981655904175895 -27.190404726666216 45.843814965482409 0 0.52991927123019833 0.84804809178421925 1 0 0 forward_v I I I I #
loop $-1 $-1 $400 $106 #
coedge $-1 $269 $269 $270 $401 reversed $167 $-1 #
coedge $-1 $270 $270 $269 $401 forward $169 $-1 #
coedge $-1 $271 $271 $170 $272 forward $266 $-1 #
edge $-1 $402 -2.0715463341826993e-015 $402 6.2831853071795987 $271 $403 forward 7 unknown #
loop $-1 $-1 $278 $171 #
plane-surface $-1 63.981655904175895 -27.190404726666216 45.843814965482409 0 0.52991927123019833 0.84804809178421925 1 0 0 forward_v I I I I #
loop $-1 $-1 $404 $109 #
coedge $-1 $276 $276 $277 $405 reversed $172 $-1 #
coedge $-1 $277 $277 $276 $405 forward $174 $-1 #
coedge $-1 $278 $278 $175 $279 forward $273 $-1 #
edge $-1 $406 -2.0715463341826993e-015 $406 6.2831853071795987 $278 $407 forward 7 unknown #
face $-1 $408 $409 $42 $-1 $410 reversed single #
loop $-1 $-1 $411 $176 #
plane-surface $-1 -79.349345377971744 0 0 1 0 0 0 0 -1 forward_v I I I I #
coedge $-1 $412 $291 $413 $414 forward $177 $-1 #
coedge $-1 $415 $179 $412 $416 forward $113 $-1 #
coedge $-1 $179 $415 $417 $418 forward $113 $-1 #
coedge $-1 $294 $293 $179 $287 reversed $295 $-1 #
edge $-1 $419 -39.061275393406774 $420 39.061275393406774 $286 $421 forward 7 unknown #
coedge $-1 $181 $180 $422 $423 forward $71 $-1 #
coedge $-1 $424 $425 $180 $290 reversed $409 $-1 #
edge $-1 $297 -79.349345377971744 $426 79.349345377971744 $289 $427 forward 7 unknown #
coedge $-1 $283 $428 $181 $292 reversed $177 $-1 #
edge $-1 $429 -79.349345377971744 $296 79.349345377971744 $291 $430 forward 7 unknown #
coedge $-1 $286 $182 $428 $431 forward $295 $-1 #
coedge $-1 $182 $286 $424 $432 reversed $295 $-1 #
loop $-1 $-1 $293 $408 #
vertex $-1 $183 $433 #
vertex $-1 $183 $434 #
straight-curve $-1 79.349345377971744 0 8.8568852134890079 0 1 0 I I #
face $-1 $435 $436 $43 $-1 $437 reversed single #
loop $-1 $-1 $310 $184 #
plane-surface $-1 0 -43.138010431497214 5.8568852134890079 0 0 1 1 0 0 forward_v I I I I #
coedge $-1 $438 $439 $188 $307 forward $185 $-1 #
coedge $-1 $440 $187 $439 $441 forward $117 $-1 #
coedge $-1 $187 $440 $442 $443 forward $117 $-1 #
coedge $-1 $189 $188 $187 $306 reversed $74 $-1 #
edge $-1 $444 -79.349345377971744 $445 79.349345377971744 $187 $446 forward 7 unknown #
edge $-1 $445 -8.8568852134890079 $313 -5.8568852134890079 $302 $447 forward 7 unknown #
coedge $-1 $442 $448 $189 $309 forward $449 $-1 #
edge $-1 $312 5.8568852134890079 $444 8.8568852134890079 $308 $450 forward 7 unknown #
coedge $-1 $451 $190 $448 $452 forward $300 $-1 #
coedge $-1 $190 $451 $438 $453 forward $300 $-1 #
vertex $-1 $309 $454 #
vertex $-1 $307 $455 #
straight-curve $-1 0 -39.061275393406774 5.8568852134890079 -1 0 0 I I #
face $-1 $-1 $327 $44 $-1 $456 forward single #
loop $-1 $-1 $457 $192 #
plane-surface $-1 0 39.061275393406774 0 0 -1 0 0 0 -1 forward_v I I I I #
coedge $-1 $458 $459 $460 $461 reversed $193 $-1 #
coedge $-1 $462 $195 $197 $325 forward $121 $-1 #
coedge $-1 $195 $462 $458 $463 forward $121 $-1 #
coedge $-1 $460 $198 $195 $322 forward $327 $-1 #
edge $-1 $329 -40.474078647214355 $464 -23.507577256961536 $321 $465 forward 7 unknown #
coedge $-1 $466 $467 $196 $324 forward $316 $-1 #
edge $-1 $468 -85.76879862896709 $328 -81.357083201368098 $323 $469 forward 7 unknown #
edge $-1 $329 69.797291323504595 $468 78.122550786813562 $197 $470 forward 7 unknown #
coedge $-1 $198 $460 $466 $471 forward $327 $-1 #
loop $-1 $-1 $460 $315 #
vertex $-1 $324 $472 #
vertex $-1 $199 $473 #
straight-curve $-1 -72.46490659930231 28.453544911954985 8.8568852134890079 0 -1 0 I I #
coedge $-1 $331 $331 $-1 $474 reversed $202 $-1 #
edge $-1 $475 0 $475 6.2831853071796004 $203 $476 forward 7 unknown #
vertex $-1 $206 $477 #
ellipse-curve $-1 -67.617334773515793 35.531165192672937 6.651027499689512 0 0.52991927123019833 0.84804809178421925 2 0 0 1 I I #
coedge $-1 $335 $335 $-1 $478 reversed $209 $-1 #
edge $-1 $479 0 $479 6.2831853071796004 $210 $480 forward 7 unknown #
vertex $-1 $213 $481 #
ellipse-curve $-1 -60.345977034836011 35.531165192672937 6.651027499689512 0 0.52991927123019833 0.84804809178421925 2 0 0 1 I I #
face $-1 $-1 $482 $47 $-1 $483 reversed single #
loop $-1 $-1 $220 $214 #
plane-surface $-1 0 0 8.8568852134890079 0 0 1 1 0 0 forward_v I I I I #
coedge $-1 $484 $485 $486 $487 reversed $215 $-1 #
coedge $-1 $488 $217 $219 $349 forward $135 $-1 #
coedge $-1 $217 $488 $484 $489 forward $135 $-1 #
coedge $-1 $486 $220 $217 $346 forward $340 $-1 #
edge $-1 $352 -19.146860012489064 $490 -2.1803586222362341 $345 $491 forward 7 unknown #
coedge $-1 $492 $493 $218 $348 forward $482 $-1 #
edge $-1 $494 -85.76879862896709 $351 -81.357083201368098 $347 $495 forward 7 unknown #
edge $-1 $352 69.797291323504595 $494 78.122550786813562 $219 $496 forward 7 unknown #
coedge $-1 $220 $486 $492 $497 forward $340 $-1 #
vertex $-1 $221 $498 #
vertex $-1 $221 $499 #
straight-curve $-1 -29.810469329851713 28.453544911954985 8.8568852134890079 0 -1 0 I I #
coedge $-1 $354 $354 $-1 $500 reversed $224 $-1 #
edge $-1 $501 0 $501 6.2831853071796004 $225 $502 forward 7 unknown #
vertex $-1 $228 $503 #
ellipse-curve $-1 -24.962897504065189 35.531165192672937 6.651027499689512 0 0.52991927123019833 0.84804809178421925 2 0 0 1 I I #
coedge $-1 $358 $358 $-1 $504 reversed $231 $-1 #
edge $-1 $505 0 $505 6.2831853071796004 $232 $506 forward 7 unknown #
vertex $-1 $235 $507 #
ellipse-curve $-1 -17.691539765385407 35.531165192672937 6.651027499689512 0 0.52991927123019833 0.84804809178421925 2 0 0 1 I I #
face $-1 $-1 $508 $50 $-1 $509 reversed single #
loop $-1 $-1 $242 $236 #
plane-surface $-1 0 0 8.8568852134890079 0 0 1 1 0 0 forward_v I I I I #
coedge $-1 $510 $511 $512 $513 reversed $237 $-1 #
coedge $-1 $514 $239 $241 $372 forward $149 $-1 #
coedge $-1 $239 $514 $510 $515 forward $149 $-1 #
coedge $-1 $512 $242 $239 $369 forward $363 $-1 #
edge $-1 $375 2.1803586222362341 $516 19.146860012489064 $368 $517 forward 7 unknown #
coedge $-1 $518 $519 $240 $371 forward $508 $-1 #
edge $-1 $520 -85.76879862896709 $374 -81.357083201368098 $370 $521 forward 7 unknown #
edge $-1 $375 69.797291323504595 $520 78.122550786813562 $241 $522 forward 7 unknown #
coedge $-1 $242 $512 $518 $523 forward $363 $-1 #
vertex $-1 $243 $524 #
vertex $-1 $243 $525 #
straight-curve $-1 12.843967939598883 28.453544911954985 8.8568852134890079 0 -1 0 I I #
coedge $-1 $377 $377 $-1 $526 reversed $246 $-1 #
edge $-1 $527 0 $527 6.2831853071796004 $247 $528 forward 7 unknown #
vertex $-1 $250 $529 #
ellipse-curve $-1 17.691539765385414 35.531165192672937 6.651027499689512 0 0.52991927123019833 0.84804809178421925 2 0 0 1 I I #
coedge $-1 $381 $381 $-1 $530 reversed $253 $-1 #
edge $-1 $531 0 $531 6.2831853071796004 $254 $532 forward 7 unknown #
vertex $-1 $257 $533 #
ellipse-curve $-1 24.962897504065197 35.531165192672937 6.651027499689512 0 0.52991927123019833 0.84804809178421925 2 0 0 1 I I #
face $-1 $-1 $534 $53 $-1 $535 reversed single #
loop $-1 $-1 $264 $258 #
plane-surface $-1 0 0 8.8568852134890079 0 0 1 1 0 0 forward_v I I I I #
coedge $-1 $536 $537 $538 $539 reversed $259 $-1 #
coedge $-1 $540 $261 $263 $395 forward $163 $-1 #
coedge $-1 $261 $540 $536 $541 forward $163 $-1 #
coedge $-1 $538 $264 $261 $392 forward $386 $-1 #
edge $-1 $398 23.507577256961532 $542 40.474078647214363 $391 $543 forward 7 unknown #
coedge $-1 $544 $545 $262 $394 forward $534 $-1 #
edge $-1 $546 -85.76879862896709 $397 -81.357083201368098 $393 $547 forward 7 unknown #
edge $-1 $398 69.797291323504595 $546 78.122550786813562 $263 $548 forward 7 unknown #
coedge $-1 $264 $538 $544 $549 forward $386 $-1 #
vertex $-1 $265 $550 #
vertex $-1 $265 $551 #
straight-curve $-1 55.49840520904948 28.453544911954985 8.8568852134890079 0 -1 0 I I #
coedge $-1 $400 $400 $-1 $552 reversed $268 $-1 #
edge $-1 $553 0 $553 6.2831853071796004 $269 $554 forward 7 unknown #
vertex $-1 $272 $555 #
ellipse-curve $-1 60.345977034836025 35.531165192672937 6.651027499689512 0 0.52991927123019833 0.84804809178421925 2 0 0 1 I I #
coedge $-1 $404 $404 $-1 $556 reversed $275 $-1 #
edge $-1 $557 0 $557 6.2831853071796004 $276 $558 forward 7 unknown #
vertex $-1 $279 $559 #
ellipse-curve $-1 67.617334773515793 35.531165192672937 6.651027499689512 0 0.52991927123019833 0.84804809178421925 2 0 0 1 I I #
face $-1 $-1 $295 $42 $-1 $560 reversed single #
loop $-1 $-1 $424 $280 #
plane-surface $-1 0 39.061275393406774 0 0 -1 0 0 0 -1 forward_v I I I I #
coedge $-1 $561 $422 $425 $562 forward $281 $-1 #
coedge $-1 $428 $283 $284 $416 reversed $177 $-1 #
coedge $-1 $422 $561 $283 $414 reversed $281 $-1 #
edge $-1 $429 -8.8568852134890079 $563 8.8568852134890079 $413 $564 forward 7 unknown #
coedge $-1 $285 $284 $561 $565 forward $113 $-1 #
edge $-1 $420 -79.349345377971744 $563 79.349345377971744 $412 $566 forward 7 unknown #
coedge $-1 $425 $424 $285 $418 reversed $409 $-1 #
edge $-1 $567 -79.349345377971744 $419 79.349345377971744 $417 $568 forward 7 unknown #
vertex $-1 $287 $569 #
vertex $-1 $431 $570 #
straight-curve $-1 79.349345377971744 0 -8.8568852134890079 0 -1 0 I I #
coedge $-1 $411 $413 $288 $423 reversed $281 $-1 #
edge $-1 $426 -39.061275393406774 $429 39.061275393406774 $422 $571 forward 7 unknown #
coedge $-1 $417 $289 $294 $432 forward $409 $-1 #
coedge $-1 $289 $417 $411 $562 reversed $409 $-1 #
vertex $-1 $290 $572 #
straight-curve $-1 0 39.061275393406774 8.8568852134890079 -1 0 0 I I #
coedge $-1 $291 $412 $293 $431 reversed $177 $-1 #
vertex $-1 $423 $573 #
straight-curve $-1 0 -39.061275393406774 8.8568852134890079 1 0 0 I I #
edge $-1 $296 -8.8568852134890079 $420 8.8568852134890079 $293 $574 forward 7 unknown #
edge $-1 $297 -8.8568852134890079 $419 8.8568852134890079 $294 $575 forward 7 unknown #
point $-1 79.349345377971744 -39.061275393406774 8.8568852134890079 #
point $-1 79.349345377971744 39.061275393406774 8.8568852134890079 #
face $-1 $-1 $449 $43 $-1 $576 reversed single #
loop $-1 $-1 $577 $299 #
plane-surface $-1 0 -47.214745469587655 7.3568852134890079 0 1 0 0 0 1 forward_v I I I I #
coedge $-1 $578 $302 $311 $453 reversed $185 $-1 #
coedge $-1 $302 $578 $303 $441 reversed $185 $-1 #
coedge $-1 $304 $303 $579 $580 forward $117 $-1 #
edge $-1 $445 39.061275393406774 $581 47.214745469587655 $439 $582 forward 7 unknown #
coedge $-1 $583 $308 $304 $443 reversed $449 $-1 #
edge $-1 $584 -47.214745469587655 $444 -39.061275393406774 $442 $585 forward 7 unknown #
vertex $-1 $309 $586 #
vertex $-1 $441 $587 #
straight-curve $-1 0 -39.061275393406774 8.8568852134890079 -1 0 0 I I #
straight-curve $-1 -79.349345377971744 -39.061275393406774 0 0 0 -1 I I #
coedge $-1 $308 $583 $310 $452 reversed $449 $-1 #
loop $-1 $-1 $308 $435 #
straight-curve $-1 79.349345377971744 -39.061275393406774 0 0 0 1 I I #
coedge $-1 $311 $310 $588 $589 forward $300 $-1 #
edge $-1 $312 -4.0767350380904404 $590 4.0767350380904404 $448 $591 forward 7 unknown #
edge $-1 $592 -4.0767350380904404 $313 4.0767350380904404 $438 $593 forward 7 unknown #
point $-1 79.349345377971744 -39.061275393406774 5.8568852134890079 #
point $-1 -79.349345377971744 -39.061275393406774 5.8568852134890079 #
plane-surface $-1 0 0 8.8568852134890079 0 0 1 1 0 0 forward_v I I I I #
coedge $-1 $467 $466 $459 $594 forward $316 $-1 #
coedge $-1 $459 $318 $320 $463 reversed $193 $-1 #
coedge $-1 $318 $458 $457 $594 reversed $193 $-1 #
coedge $-1 $326 $321 $318 $461 forward $327 $-1 #
edge $-1 $464 3.5475100799841144 $595 10.607730481451789 $460 $596 forward 7 unknown #
coedge $-1 $320 $319 $467 $597 reversed $121 $-1 #
edge $-1 $598 -78.122550786813562 $464 -69.797291323504595 $458 $599 forward 7 unknown #
vertex $-1 $322 $600 #
straight-curve $-1 -31.990827952087951 32.001054991939114 8.8568852134890044 1 0 0 I I #
coedge $-1 $457 $323 $326 $471 reversed $316 $-1 #
coedge $-1 $323 $457 $462 $597 forward $316 $-1 #
vertex $-1 $324 $601 #
straight-curve $-1 -72.46490659930231 39.061275393406774 90.213968414857106 0 0 1 I I #
straight-curve $-1 -72.46490659930231 -27.190404726666216 45.843814965482409 0 0.84804809178421925 -0.52991927123019833 I I #
edge $-1 $595 55.498405209049487 $328 72.46490659930231 $466 $602 forward 7 unknown #
point $-1 -72.46490659930231 39.061275393406774 8.8568852134890079 #
point $-1 -72.46490659930231 32.0010549919391 8.8568852134890079 #
edge $-1 $603 1 $603 0 $331 $-1 forward 7 unknown #
vertex $-1 $332 $604 #
ellipse-curve $-1 -67.617334773515793 33.039588832224638 2.6636718915275188 0 0.52991927123019833 0.84804809178421925 2 0 0 1 I I #
point $-1 -65.617334773515793 35.53116519267293 6.6510274996895085 #
edge $-1 $605 1 $605 0 $335 $-1 forward 7 unknown #
vertex $-1 $336 $606 #
ellipse-curve $-1 -60.345977034836011 33.039588832224638 2.6636718915275188 0 0.52991927123019833 0.84804809178421925 2 0 0 1 I I #
point $-1 -58.345977034836011 35.53116519267293 6.6510274996895085 #
loop $-1 $-1 $347 $339 #
plane-surface $-1 0 39.061275393406774 0 0 -1 0 0 0 -1 forward_v I I I I #
coedge $-1 $485 $342 $344 $489 reversed $215 $-1 #
coedge $-1 $342 $484 $607 $608 reversed $215 $-1 #
coedge $-1 $350 $345 $342 $487 forward $340 $-1 #
edge $-1 $490 3.5475100799841144 $609 10.607730481451789 $486 $610 forward 7 unknown #
coedge $-1 $344 $343 $493 $611 reversed $135 $-1 #
edge $-1 $612 -78.122550786813562 $490 -69.797291323504595 $484 $613 forward 7 unknown #
vertex $-1 $346 $614 #
straight-curve $-1 -10.663609317362649 32.001054991939114 8.8568852134890044 1 0 0 I I #
coedge $-1 $607 $347 $350 $497 reversed $482 $-1 #
coedge $-1 $347 $607 $488 $611 forward $482 $-1 #
vertex $-1 $348 $615 #
straight-curve $-1 -29.810469329851713 39.061275393406774 90.213968414857106 0 0 1 I I #
straight-curve $-1 -29.810469329851713 -27.190404726666216 45.843814965482409 0 0.84804809178421925 -0.52991927123019833 I I #
edge $-1 $609 12.843967939598883 $351 29.810469329851713 $492 $616 forward 7 unknown #
point $-1 -29.810469329851713 39.061275393406774 8.8568852134890079 #
point $-1 -29.810469329851713 32.0010549919391 8.8568852134890079 #
edge $-1 $617 1 $617 0 $354 $-1 forward 7 unknown #
vertex $-1 $355 $618 #
ellipse-curve $-1 -24.962897504065189 33.039588832224638 2.6636718915275188 0 0.52991927123019833 0.84804809178421925 2 0 0 1 I I #
point $-1 -22.962897504065189 35.53116519267293 6.6510274996895085 #
edge $-1 $619 1 $619 0 $358 $-1 forward 7 unknown #
vertex $-1 $359 $620 #
ellipse-curve $-1 -17.691539765385407 33.039588832224638 2.6636718915275188 0 0.52991927123019833 0.84804809178421925 2 0 0 1 I I #
point $-1 -15.691539765385407 35.53116519267293 6.6510274996895085 #
loop $-1 $-1 $370 $362 #
plane-surface $-1 0 39.061275393406774 0 0 -1 0 0 0 -1 forward_v I I I I #
coedge $-1 $511 $365 $367 $515 reversed $237 $-1 #
coedge $-1 $365 $510 $621 $622 reversed $237 $-1 #
coedge $-1 $373 $368 $365 $513 forward $363 $-1 #
edge $-1 $516 3.5475100799841144 $623 10.607730481451789 $512 $624 forward 7 unknown #
coedge $-1 $367 $366 $519 $625 reversed $149 $-1 #
edge $-1 $626 -78.122550786813562 $516 -69.797291323504595 $510 $627 forward 7 unknown #
vertex $-1 $369 $628 #
straight-curve $-1 10.663609317362649 32.001054991939114 8.8568852134890044 1 0 0 I I #
coedge $-1 $621 $370 $373 $523 reversed $508 $-1 #
coedge $-1 $370 $621 $514 $625 forward $508 $-1 #
vertex $-1 $371 $629 #
straight-curve $-1 12.843967939598883 39.061275393406774 90.213968414857106 0 0 1 I I #
straight-curve $-1 12.843967939598883 -27.190404726666216 45.843814965482409 0 0.84804809178421925 -0.52991927123019833 I I #
edge $-1 $623 -29.810469329851713 $374 -12.843967939598883 $518 $630 forward 7 unknown #
point $-1 12.843967939598883 39.061275393406774 8.8568852134890079 #
point $-1 12.843967939598883 32.0010549919391 8.8568852134890079 #
edge $-1 $631 1 $631 0 $377 $-1 forward 7 unknown #
vertex $-1 $378 $632 #
ellipse-curve $-1 17.691539765385414 33.039588832224638 2.6636718915275188 0 0.52991927123019833 0.84804809178421925 2 0 0 1 I I #
point $-1 19.691539765385414 35.53116519267293 6.6510274996895085 #
edge $-1 $633 1 $633 0 $381 $-1 forward 7 unknown #
vertex $-1 $382 $634 #
ellipse-curve $-1 24.962897504065197 33.039588832224638 2.6636718915275188 0 0.52991927123019833 0.84804809178421925 2 0 0 1 I I #
point $-1 26.962897504065197 35.53116519267293 6.6510274996895085 #
loop $-1 $-1 $393 $385 #
plane-surface $-1 0 39.061275393406774 0 0 -1 0 0 0 -1 forward_v I I I I #
coedge $-1 $537 $388 $390 $541 reversed $259 $-1 #
coedge $-1 $388 $536 $635 $636 reversed $259 $-1 #
coedge $-1 $396 $391 $388 $539 forward $386 $-1 #
edge $-1 $542 3.5475100799841144 $637 10.607730481451789 $538 $638 forward 7 unknown #
coedge $-1 $390 $389 $545 $639 reversed $163 $-1 #
edge $-1 $640 -78.122550786813562 $542 -69.797291323504595 $536 $641 forward 7 unknown #
vertex $-1 $392 $642 #
straight-curve $-1 31.990827952087947 32.001054991939114 8.8568852134890044 1 0 0 I I #
coedge $-1 $635 $393 $396 $549 reversed $534 $-1 #
coedge $-1 $393 $635 $540 $639 forward $534 $-1 #
vertex $-1 $394 $643 #
straight-curve $-1 55.49840520904948 39.061275393406774 90.213968414857106 0 0 1 I I #
straight-curve $-1 55.49840520904948 -27.190404726666216 45.843814965482409 0 0.84804809178421925 -0.52991927123019833 I I #
edge $-1 $637 -72.46490659930231 $397 -55.49840520904948 $544 $644 forward 7 unknown #
point $-1 55.49840520904948 39.061275393406774 8.8568852134890079 #
point $-1 55.49840520904948 32.0010549919391 8.8568852134890079 #
edge $-1 $645 1 $645 0 $400 $-1 forward 7 unknown #
vertex $-1 $401 $646 #
ellipse-curve $-1 60.345977034836025 33.039588832224638 2.6636718915275188 0 0.52991927123019833 0.84804809178421925 2 0 0 1 I I #
point $-1 62.345977034836025 35.53116519267293 6.6510274996895085 #
edge $-1 $647 1 $647 0 $404 $-1 forward 7 unknown #
vertex $-1 $405 $648 #
ellipse-curve $-1 67.617334773515793 33.039588832224638 2.6636718915275188 0 0.52991927123019833 0.84804809178421925 2 0 0 1 I I #
point $-1 69.617334773515793 35.53116519267293 6.6510274996895085 #
plane-surface $-1 79.349345377971744 0 0 -1 0 0 0 0 1 forward_v I I I I #
coedge $-1 $413 $411 $415 $565 reversed $281 $-1 #
edge $-1 $426 -8.8568852134890079 $567 8.8568852134890079 $425 $649 forward 7 unknown #
vertex $-1 $565 $650 #
straight-curve $-1 -79.349345377971744 -39.061275393406774 0 0 0 -1 I I #
edge $-1 $563 -39.061275393406774 $567 39.061275393406774 $561 $651 forward 7 unknown #
straight-curve $-1 0 -39.061275393406774 -8.8568852134890079 -1 0 0 I I #
vertex $-1 $418 $652 #
straight-curve $-1 0 39.061275393406774 -8.8568852134890079 1 0 0 I I #
point $-1 79.349345377971744 39.061275393406774 -8.8568852134890079 #
point $-1 79.349345377971744 -39.061275393406774 -8.8568852134890079 #
straight-curve $-1 -79.349345377971744 0 8.8568852134890079 0 -1 0 I I #
point $-1 -79.349345377971744 39.061275393406774 8.8568852134890079 #
point $-1 -79.349345377971744 -39.061275393406774 8.8568852134890079 #
straight-curve $-1 79.349345377971744 -39.061275393406774 0 0 0 -1 I I #
straight-curve $-1 79.349345377971744 39.061275393406774 0 0 0 -1 I I #
plane-surface $-1 79.349345377971744 0 0 -1 0 0 0 0 1 forward_v I I I I #
coedge $-1 $588 $579 $578 $653 forward $436 $-1 #
coedge $-1 $439 $438 $577 $653 reversed $185 $-1 #
coedge $-1 $577 $654 $440 $580 reversed $436 $-1 #
edge $-1 $581 -79.349345377971744 $584 79.349345377971744 $579 $655 forward 7 unknown #
vertex $-1 $441 $656 #
straight-curve $-1 -79.349345377971744 0 8.8568852134890079 0 -1 0 I I #
coedge $-1 $448 $442 $654 $657 forward $449 $-1 #
vertex $-1 $443 $658 #
straight-curve $-1 79.349345377971744 0 8.8568852134890079 0 1 0 I I #
point $-1 79.349345377971744 -39.061275393406774 8.8568852134890079 #
point $-1 -79.349345377971744 -39.061275393406774 8.8568852134890079 #
coedge $-1 $654 $577 $451 $589 reversed $436 $-1 #
edge $-1 $590 -79.349345377971744 $592 79.349345377971744 $588 $659 forward 7 unknown #
vertex $-1 $657 $660 #
straight-curve $-1 79.349345377971744 -43.138010431497214 5.8568852134890079 0 -1 0 I I #
vertex $-1 $453 $661 #
straight-curve $-1 -79.349345377971744 -43.138010431497214 5.8568852134890079 0 1 0 I I #
edge $-1 $595 81.357083201368098 $598 85.76879862896709 $457 $662 forward 7 unknown #
vertex $-1 $471 $663 #
straight-curve $-1 -55.498405209049487 28.453544911954985 8.8568852134890079 0 1 0 I I #
edge $-1 $598 23.507577256961536 $468 40.474078647214355 $467 $664 forward 7 unknown #
vertex $-1 $597 $665 #
straight-curve $-1 -55.498405209049487 -27.190404726666216 45.843814965482409 0 -0.84804809178421925 0.52991927123019833 I I #
point $-1 -55.498405209049487 32.0010549919391 8.8568852134890079 #
point $-1 -72.46490659930231 39.061275393406774 4.4451697858900161 #
straight-curve $-1 0 39.061275393406774 8.8568852134890079 -1 0 0 I I #
vertex $-1 $474 $666 #
point $-1 -65.617334773515793 33.039588832224638 2.6636718915275188 #
vertex $-1 $478 $667 #
point $-1 -58.345977034836011 33.039588832224638 2.6636718915275188 #
coedge $-1 $493 $492 $485 $608 forward $482 $-1 #
edge $-1 $609 81.357083201368098 $612 85.76879862896709 $607 $668 forward 7 unknown #
vertex $-1 $497 $669 #
straight-curve $-1 -12.843967939598883 28.453544911954985 8.8568852134890079 0 1 0 I I #
edge $-1 $612 2.1803586222362341 $494 19.146860012489064 $493 $670 forward 7 unknown #
vertex $-1 $611 $671 #
straight-curve $-1 -12.843967939598883 -27.190404726666216 45.843814965482409 0 -0.84804809178421925 0.52991927123019833 I I #
point $-1 -12.843967939598883 32.0010549919391 8.8568852134890079 #
point $-1 -29.810469329851713 39.061275393406774 4.4451697858900161 #
straight-curve $-1 0 39.061275393406774 8.8568852134890079 -1 0 0 I I #
vertex $-1 $500 $672 #
point $-1 -22.962897504065189 33.039588832224638 2.6636718915275188 #
vertex $-1 $504 $673 #
point $-1 -15.691539765385407 33.039588832224638 2.6636718915275188 #
coedge $-1 $519 $518 $511 $622 forward $508 $-1 #
edge $-1 $623 81.357083201368098 $626 85.76879862896709 $621 $674 forward 7 unknown #
vertex $-1 $523 $675 #
straight-curve $-1 29.810469329851713 28.453544911954985 8.8568852134890079 0 1 0 I I #
edge $-1 $626 -19.146860012489064 $520 -2.1803586222362341 $519 $676 forward 7 unknown #
vertex $-1 $625 $677 #
straight-curve $-1 29.810469329851713 -27.190404726666216 45.843814965482409 0 -0.84804809178421925 0.52991927123019833 I I #
point $-1 29.810469329851713 32.0010549919391 8.8568852134890079 #
point $-1 12.843967939598883 39.061275393406774 4.4451697858900161 #
straight-curve $-1 0 39.061275393406774 8.8568852134890079 -1 0 0 I I #
vertex $-1 $526 $678 #
point $-1 19.691539765385414 33.039588832224638 2.6636718915275188 #
vertex $-1 $530 $679 #
point $-1 26.962897504065197 33.039588832224638 2.6636718915275188 #
coedge $-1 $545 $544 $537 $636 forward $534 $-1 #
edge $-1 $637 81.357083201368098 $640 85.76879862896709 $635 $680 forward 7 unknown #
vertex $-1 $549 $681 #
straight-curve $-1 72.46490659930231 28.453544911954985 8.8568852134890079 0 1 0 I I #
edge $-1 $640 -40.474078647214363 $546 -23.507577256961532 $545 $682 forward 7 unknown #
vertex $-1 $639 $683 #
straight-curve $-1 72.46490659930231 -27.190404726666216 45.843814965482409 0 -0.84804809178421925 0.52991927123019833 I I #
point $-1 72.46490659930231 32.0010549919391 8.8568852134890079 #
point $-1 55.49840520904948 39.061275393406774 4.4451697858900161 #
straight-curve $-1 0 39.061275393406774 8.8568852134890079 -1 0 0 I I #
vertex $-1 $552 $684 #
point $-1 62.345977034836025 33.039588832224638 2.6636718915275188 #
vertex $-1 $556 $685 #
point $-1 69.617334773515793 33.039588832224638 2.6636718915275188 #
straight-curve $-1 -79.349345377971744 39.061275393406774 0 0 0 -1 I I #
point $-1 -79.349345377971744 -39.061275393406774 -8.8568852134890079 #
straight-curve $-1 -79.349345377971744 0 -8.8568852134890079 0 1 0 I I #
point $-1 -79.349345377971744 39.061275393406774 -8.8568852134890079 #
edge $-1 $581 -1.5 $592 1.5 $578 $686 forward 7 unknown #
coedge $-1 $579 $588 $583 $657 reversed $436 $-1 #
straight-curve $-1 0 -47.214745469587655 8.8568852134890079 1 0 0 I I #
point $-1 -79.349345377971744 -47.214745469587655 8.8568852134890079 #
edge $-1 $584 -1.5 $590 1.5 $583 $687 forward 7 unknown #
point $-1 79.349345377971744 -47.214745469587655 8.8568852134890079 #
straight-curve $-1 0 -47.214745469587655 5.8568852134890079 -1 0 0 I I #
point $-1 79.349345377971744 -47.214745469587655 5.8568852134890079 #
point $-1 -79.349345377971744 -47.214745469587655 5.8568852134890079 #
straight-curve $-1 -55.498405209049487 39.061275393406774 90.213968414857106 0 0 -1 I I #
point $-1 -55.498405209049487 39.061275393406774 8.8568852134890079 #
straight-curve $-1 -31.990827952087951 39.061275393406781 4.445169785890009 -1 0 0 I I #
point $-1 -55.498405209049487 39.061275393406774 4.4451697858900161 #
point $-1 -67.617334773515793 31.97975028976424 0.96757570795908032 #
point $-1 -60.345977034836011 31.97975028976424 0.96757570795908032 #
straight-curve $-1 -12.843967939598883 39.061275393406774 90.213968414857106 0 0 -1 I I #
point $-1 -12.843967939598883 39.061275393406774 8.8568852134890079 #
straight-curve $-1 -10.663609317362649 39.061275393406781 4.445169785890009 -1 0 0 I I #
point $-1 -12.843967939598883 39.061275393406774 4.4451697858900161 #
point $-1 -24.962897504065189 31.97975028976424 0.96757570795908032 #
point $-1 -17.691539765385407 31.97975028976424 0.96757570795908032 #
straight-curve $-1 29.810469329851713 39.061275393406774 90.213968414857106 0 0 -1 I I #
point $-1 29.810469329851713 39.061275393406774 8.8568852134890079 #
straight-curve $-1 10.663609317362649 39.061275393406781 4.445169785890009 -1 0 0 I I #
point $-1 29.810469329851713 39.061275393406774 4.4451697858900161 #
point $-1 17.691539765385414 31.97975028976424 0.96757570795908032 #
point $-1 24.962897504065197 31.97975028976424 0.96757570795908032 #
straight-curve $-1 72.46490659930231 39.061275393406774 90.213968414857106 0 0 -1 I I #
point $-1 72.46490659930231 39.061275393406774 8.8568852134890079 #
straight-curve $-1 31.990827952087947 39.061275393406781 4.445169785890009 -1 0 0 I I #
point $-1 72.46490659930231 39.061275393406774 4.4451697858900161 #
point $-1 60.345977034836025 31.97975028976424 0.96757570795908032 #
point $-1 67.617334773515793 31.97975028976424 0.96757570795908032 #
straight-curve $-1 -79.349345377971744 -47.214745469587655 7.3568852134890079 0 0 -1 I I #
straight-curve $-1 79.349345377971744 -47.214745469587655 7.3568852134890079 0 0 -1 I I #
End-of-ACIS-data 