500 0 14 0           
7 Unknown 11 ACIS 5.0 NT 24 Fri Mar 26 17:33:29 1999 
-1 9.9999999999999995e-007 1e-010 
body $-1 $14 $-1 $15 #
body $-1 $16 $-1 $17 #
body $-1 $18 $-1 $19 #
body $-1 $20 $-1 $21 #
body $-1 $22 $-1 $23 #
body $-1 $24 $-1 $25 #
body $-1 $26 $-1 $27 #
body $-1 $28 $-1 $29 #
body $-1 $30 $-1 $31 #
body $-1 $32 $-1 $33 #
body $-1 $34 $-1 $35 #
body $-1 $36 $-1 $37 #
body $-1 $38 $-1 $39 #
body $-1 $40 $-1 $41 #
lump $-1 $-1 $42 $0 #
transform $-1 1 0 0 0 1 0 0 0 1 54.808801538132883 37.381619904619129 16.875861403273689 1 rotate no_reflect no_shear #
lump $-1 $-1 $43 $1 #
transform $-1 1 0 0 0 1 0 0 0 1 54.808801538132883 37.381619904619129 16.875861403273689 1 rotate no_reflect no_shear #
lump $-1 $-1 $44 $2 #
transform $-1 1 0 0 0 1 0 0 0 1 54.808801538132883 37.381619904619129 16.875861403273689 1 rotate no_reflect no_shear #
lump $-1 $-1 $45 $3 #
transform $-1 1 0 0 0 1 0 0 0 1 54.808801538132883 37.381619904619129 16.875861403273689 1 rotate no_reflect no_shear #
lump $-1 $-1 $46 $4 #
transform $-1 1 0 0 0 1 0 0 0 1 54.808801538132883 37.381619904619129 16.875861403273689 1 rotate no_reflect no_shear #
lump $-1 $-1 $47 $5 #
transform $-1 1 0 0 0 1 0 0 0 1 54.808801538132883 37.381619904619129 16.875861403273689 1 rotate no_reflect no_shear #
lump $-1 $-1 $48 $6 #
transform $-1 1 0 0 0 1 0 0 0 1 54.808801538132883 37.381619904619129 16.875861403273689 1 rotate no_reflect no_shear #
lump $-1 $-1 $49 $7 #
transform $-1 1 0 0 0 1 0 0 0 1 54.808801538132883 37.381619904619129 16.875861403273689 1 rotate no_reflect no_shear #
lump $-1 $-1 $50 $8 #
transform $-1 1 0 0 0 1 0 0 0 1 54.808801538132883 37.381619904619129 16.875861403273689 1 rotate no_reflect no_shear #
lump $-1 $-1 $51 $9 #
transform $-1 1 0 0 0 1 0 0 0 1 54.808801538132883 37.381619904619129 16.875861403273689 1 rotate no_reflect no_shear #
lump $-1 $-1 $52 $10 #
transform $-1 1 0 0 0 1 0 0 0 1 54.808801538132883 37.381619904619129 16.875861403273689 1 rotate no_reflect no_shear #
lump $-1 $-1 $53 $11 #
transform $-1 1 0 0 0 1 0 0 0 1 54.808801538132883 37.381619904619129 16.875861403273689 1 rotate no_reflect no_shear #
lump $-1 $-1 $54 $12 #
transform $-1 1 0 0 0 1 0 0 0 1 54.808801538132883 37.381619904619129 16.875861403273689 1 rotate no_reflect no_shear #
lump $-1 $-1 $55 $13 #
transform $-1 1 0 0 0 1 0 0 0 1 54.808801538132883 37.381619904619129 16.875861403273689 1 rotate no_reflect no_shear #
shell $-1 $-1 $-1 $56 $-1 $14 #
shell $-1 $-1 $-1 $57 $-1 $16 #
shell $-1 $-1 $-1 $58 $-1 $18 #
shell $-1 $-1 $-1 $59 $-1 $20 #
shell $-1 $-1 $-1 $60 $-1 $22 #
shell $-1 $-1 $-1 $61 $-1 $24 #
shell $-1 $-1 $-1 $62 $-1 $26 #
shell $-1 $-1 $-1 $63 $-1 $28 #
shell $-1 $-1 $-1 $64 $-1 $30 #
shell $-1 $-1 $-1 $65 $-1 $32 #
shell $-1 $-1 $-1 $66 $-1 $34 #
shell $-1 $-1 $-1 $67 $-1 $36 #
shell $-1 $-1 $-1 $68 $-1 $38 #
shell $-1 $-1 $-1 $69 $-1 $40 #
face $-1 $70 $71 $42 $-1 $72 forward single #
face $-1 $73 $74 $43 $-1 $75 forward single #
face $-1 $76 $77 $44 $-1 $78 forward single #
face $-1 $79 $80 $45 $-1 $81 reversed single #
face $-1 $82 $83 $46 $-1 $84 forward single #
face $-1 $85 $86 $47 $-1 $87 forward single #
face $-1 $88 $89 $48 $-1 $90 reversed single #
face $-1 $91 $92 $49 $-1 $93 forward single #
face $-1 $94 $95 $50 $-1 $96 forward single #
face $-1 $97 $98 $51 $-1 $99 reversed single #
face $-1 $100 $101 $52 $-1 $102 forward single #
face $-1 $103 $104 $53 $-1 $105 forward single #
face $-1 $106 $107 $54 $-1 $108 reversed single #
face $-1 $109 $110 $55 $-1 $111 forward single #
face $-1 $112 $113 $42 $-1 $114 reversed single #
loop $-1 $-1 $115 $56 #
plane-surface $-1 0 0 16.875861403273689 0 0 1 1 0 0 forward_v I I I I #
face $-1 $116 $117 $43 $-1 $118 reversed single #
loop $-1 $-1 $119 $57 #
plane-surface $-1 0 -28.422250991435774 -9.0382966685485613 0 0 1 1 0 0 forward_v I I I I #
face $-1 $120 $121 $44 $-1 $122 reversed single #
loop $-1 $-1 $123 $58 #
plane-surface $-1 0 28.422250991435774 -9.0382966685485613 0 0 1 1 0 0 forward_v I I I I #
face $-1 $124 $125 $45 $-1 $126 reversed single #
loop $-1 $-1 $127 $59 #
plane-surface $-1 -144.60228607972601 -10.006659453141568 69.69999558636988 0 -1 0 0.81915205242281985 0 -0.57357642473473569 forward_v I I I I #
face $-1 $128 $129 $46 $-1 $130 forward single #
loop $-1 $131 $132 $60 #
cone-surface $-1 -50.880704207894162 -14.860265003981453 11.564103852216475 0.81915205242281985 0 -0.57357642473473569 0.28678821236736785 0 0.40957602621140993 1 I I 0 1 0.5 forward I I I I #
face $-1 $133 $134 $47 $-1 $135 forward single #
loop $-1 $136 $137 $61 #
cone-surface $-1 -50.880704207894162 -11.94810167347752 11.564103852216475 0.81915205242281985 0 -0.57357642473473569 0.28678821236736785 0 0.40957602621140993 1 I I 0 1 0.5 forward I I I I #
face $-1 $138 $139 $48 $-1 $140 reversed single #
loop $-1 $-1 $141 $62 #
plane-surface $-1 -144.60228607972601 2.9685952656933789 69.69999558636988 0 -1 0 0.81915205242281985 0 -0.57357642473473569 forward_v I I I I #
face $-1 $142 $143 $49 $-1 $144 forward single #
loop $-1 $145 $146 $63 #
cone-surface $-1 -50.880704207894162 -1.8850102851465067 11.564103852216475 0.81915205242281985 0 -0.57357642473473569 0.28678821236736785 0 0.40957602621140993 1 I I 0 1 0.5 forward I I I I #
face $-1 $147 $148 $50 $-1 $149 forward single #
loop $-1 $150 $151 $64 #
cone-surface $-1 -50.880704207894162 1.0271530453574229 11.564103852216475 0.81915205242281985 0 -0.57357642473473569 0.28678821236736785 0 0.40957602621140993 1 I I 0 1 0.5 forward I I I I #
face $-1 $152 $153 $51 $-1 $154 reversed single #
loop $-1 $-1 $155 $65 #
plane-surface $-1 -144.60228607972601 15.943849984528326 69.69999558636988 0 -1 0 0.81915205242281985 0 -0.57357642473473569 forward_v I I I I #
face $-1 $156 $157 $52 $-1 $158 forward single #
loop $-1 $159 $160 $66 #
cone-surface $-1 -50.880704207894162 11.09024443368844 11.564103852216475 0.81915205242281985 0 -0.57357642473473569 0.28678821236736785 0 0.40957602621140993 1 I I 0 1 0.5 forward I I I I #
face $-1 $161 $162 $53 $-1 $163 forward single #
loop $-1 $164 $165 $67 #
cone-surface $-1 -50.880704207894162 14.00240776419237 11.564103852216475 0.81915205242281985 0 -0.57357642473473569 0.28678821236736785 0 0.40957602621140993 1 I I 0 1 0.5 forward I I I I #
face $-1 $166 $167 $54 $-1 $168 reversed single #
loop $-1 $-1 $169 $68 #
plane-surface $-1 81.728213219250136 7.2905487935494087 162.52171844379325 0 -1 0 -0.81915205242281985 0 -0.57357642473473569 forward_v I I I I #
face $-1 $170 $171 $55 $-1 $172 forward single #
loop $-1 $173 $174 $69 #
cone-surface $-1 51.351943322991929 1.5049664889749437 12.665829840469264 -0.81915205242281985 0 -0.57357642473473569 0.57357642473473569 0 -0.81915205242281985 1 I I 0 1 1 forward I I I I #
face $-1 $175 $176 $42 $-1 $177 reversed single #
loop $-1 $-1 $178 $70 #
plane-surface $-1 0 0 -16.875861403273689 0 0 1 1 0 0 forward_v I I I I #
coedge $-1 $179 $180 $181 $182 forward $71 $-1 #
face $-1 $183 $184 $43 $-1 $185 reversed single #
loop $-1 $-1 $186 $73 #
plane-surface $-1 0 -19.46288207825242 -12.957079035911125 0 -1 0 0 0 -1 forward_v I I I I #
coedge $-1 $187 $188 $189 $190 reversed $74 $-1 #
face $-1 $191 $192 $44 $-1 $193 reversed single #
loop $-1 $-1 $194 $76 #
plane-surface $-1 0 19.46288207825242 -12.957079035911125 0 1 0 0 0 1 forward_v I I I I #
coedge $-1 $195 $196 $197 $198 reversed $77 $-1 #
face $-1 $199 $200 $45 $-1 $201 reversed single #
loop $-1 $-1 $202 $79 #
plane-surface $-1 -54.808801538132897 -13.404183338729489 6.8259227258939958 -0.81915205242281985 0 0.57357642473473569 0.57357642473473569 0 0.81915205242281985 forward_v I I I I #
coedge $-1 $203 $204 $205 $206 reversed $80 $-1 #
face $-1 $-1 $207 $46 $-1 $208 forward single #
loop $-1 $209 $210 $82 #
cone-surface $-1 -50.266340168577045 -14.860265003981453 11.133921533665422 0.81915205242281985 0 -0.57357642473473569 0.14339410618368392 0 0.20478801310570496 1 I I -0.70710678118654746 0.70710678118654746 0.25 forward I I I I #
loop $-1 $-1 $211 $60 #
coedge $-1 $132 $132 $212 $213 reversed $83 $-1 #
face $-1 $-1 $214 $47 $-1 $215 forward single #
loop $-1 $216 $217 $85 #
cone-surface $-1 -50.266340168577045 -11.94810167347752 11.133921533665422 0.81915205242281985 0 -0.57357642473473569 0.14339410618368392 0 0.20478801310570496 1 I I -0.70710678118654746 0.70710678118654746 0.25 forward I I I I #
loop $-1 $-1 $218 $61 #
coedge $-1 $137 $137 $219 $220 reversed $86 $-1 #
face $-1 $221 $222 $48 $-1 $223 reversed single #
loop $-1 $-1 $224 $88 #
plane-surface $-1 -54.808801538132897 -0.4289286198945419 6.8259227258939958 -0.81915205242281985 0 0.57357642473473569 0.57357642473473569 0 0.81915205242281985 forward_v I I I I #
coedge $-1 $225 $226 $227 $228 reversed $89 $-1 #
face $-1 $-1 $229 $49 $-1 $230 forward single #
loop $-1 $231 $232 $91 #
cone-surface $-1 -50.266340168577045 -1.8850102851465067 11.133921533665422 0.81915205242281985 0 -0.57357642473473569 0.14339410618368392 0 0.20478801310570496 1 I I -0.70710678118654746 0.70710678118654746 0.25 forward I I I I #
loop $-1 $-1 $233 $63 #
coedge $-1 $146 $146 $234 $235 reversed $92 $-1 #
face $-1 $-1 $236 $50 $-1 $237 forward single #
loop $-1 $238 $239 $94 #
cone-surface $-1 -50.266340168577045 1.0271530453574229 11.133921533665422 0.81915205242281985 0 -0.57357642473473569 0.14339410618368392 0 0.20478801310570496 1 I I -0.70710678118654746 0.70710678118654746 0.25 forward I I I I #
loop $-1 $-1 $240 $64 #
coedge $-1 $151 $151 $241 $242 reversed $95 $-1 #
face $-1 $243 $244 $51 $-1 $245 reversed single #
loop $-1 $-1 $246 $97 #
plane-surface $-1 -54.808801538132897 12.546326098940405 6.8259227258939958 -0.81915205242281985 0 0.57357642473473569 0.57357642473473569 0 0.81915205242281985 forward_v I I I I #
coedge $-1 $247 $248 $249 $250 reversed $98 $-1 #
face $-1 $-1 $251 $52 $-1 $252 forward single #
loop $-1 $253 $254 $100 #
cone-surface $-1 -50.266340168577045 11.09024443368844 11.133921533665422 0.81915205242281985 0 -0.57357642473473569 0.14339410618368392 0 0.20478801310570496 1 I I -0.70710678118654746 0.70710678118654746 0.25 forward I I I I #
loop $-1 $-1 $255 $66 #
coedge $-1 $160 $160 $256 $257 reversed $101 $-1 #
face $-1 $-1 $258 $53 $-1 $259 forward single #
loop $-1 $260 $261 $103 #
cone-surface $-1 -50.266340168577045 14.00240776419237 11.133921533665422 0.81915205242281985 0 -0.57357642473473569 0.14339410618368392 0 0.20478801310570496 1 I I -0.70710678118654746 0.70710678118654746 0.25 forward I I I I #
loop $-1 $-1 $262 $67 #
coedge $-1 $165 $165 $263 $264 reversed $104 $-1 #
face $-1 $265 $266 $54 $-1 $267 reversed single #
loop $-1 $-1 $268 $106 #
plane-surface $-1 -8.0652713223429799 1.5049664889749437 99.64764558331737 0.81915205242281985 0 0.57357642473473569 0.57357642473473569 0 -0.81915205242281985 forward_v I I I I #
coedge $-1 $269 $270 $271 $272 reversed $107 $-1 #
face $-1 $-1 $273 $55 $-1 $274 forward single #
loop $-1 $275 $276 $109 #
cone-surface $-1 49.94383276954585 1.5049664889749437 11.679860246072195 -0.81915205242281985 0 -0.57357642473473569 0.28678821236736785 0 -0.40957602621140993 1 I I -0.70710678118654746 0.70710678118654746 0.5 forward I I I I #
loop $-1 $-1 $277 $69 #
coedge $-1 $174 $174 $278 $279 reversed $110 $-1 #
face $-1 $280 $281 $42 $-1 $282 reversed single #
loop $-1 $-1 $283 $112 #
plane-surface $-1 0 -37.381619904619129 0 0 1 0 0 0 1 forward_v I I I I #
coedge $-1 $284 $285 $286 $287 forward $113 $-1 #
coedge $-1 $288 $115 $289 $290 forward $71 $-1 #
coedge $-1 $115 $288 $291 $292 forward $71 $-1 #
coedge $-1 $293 $294 $115 $182 reversed $295 $-1 #
edge $-1 $296 -37.381619904619129 $297 37.381619904619129 $181 $298 forward 7 unknown #
face $-1 $299 $300 $43 $-1 $301 reversed single #
loop $-1 $-1 $302 $116 #
plane-surface $-1 0 0 -16.875861403273689 0 0 1 1 0 0 forward_v I I I I #
coedge $-1 $303 $304 $305 $306 reversed $117 $-1 #
coedge $-1 $307 $119 $304 $308 forward $74 $-1 #
coedge $-1 $119 $307 $309 $310 reversed $74 $-1 #
coedge $-1 $311 $305 $119 $190 forward $300 $-1 #
edge $-1 $312 5.2517565825345329 $313 23.170494408901241 $189 $314 forward 7 unknown #
face $-1 $315 $316 $44 $-1 $317 reversed single #
loop $-1 $-1 $197 $120 #
plane-surface $-1 54.808801538132883 0 0 -1 0 0 0 0 1 forward_v I I I I #
coedge $-1 $318 $319 $320 $321 reversed $121 $-1 #
coedge $-1 $322 $123 $323 $324 reversed $77 $-1 #
coedge $-1 $123 $322 $319 $325 forward $77 $-1 #
coedge $-1 $326 $327 $123 $198 forward $192 $-1 #
edge $-1 $328 -23.170494408901241 $329 -5.2517565825345329 $197 $330 forward 7 unknown #
face $-1 $331 $332 $45 $-1 $333 reversed single #
loop $-1 $-1 $334 $124 #
plane-surface $-1 -144.60228607972601 -16.801707224317411 69.69999558636988 0 1 0 -0.81915205242281985 0 0.57357642473473569 forward_v I I I I #
coedge $-1 $335 $336 $337 $338 reversed $125 $-1 #
coedge $-1 $204 $127 $339 $340 reversed $80 $-1 #
coedge $-1 $127 $203 $335 $341 reversed $80 $-1 #
coedge $-1 $337 $342 $127 $206 forward $332 $-1 #
edge $-1 $343 17.974136389911251 $344 28.024075067290923 $205 $345 forward 7 unknown #
loop $-1 $-1 $212 $128 #
plane-surface $-1 -54.808801538132897 -13.404183338729489 6.8259227258939958 -0.81915205242281985 0 0.57357642473473569 0.57357642473473569 0 0.81915205242281985 forward_v I I I I #
loop $-1 $-1 $346 $82 #
coedge $-1 $210 $210 $211 $347 reversed $129 $-1 #
coedge $-1 $211 $211 $210 $347 forward $131 $-1 #
coedge $-1 $212 $212 $132 $213 forward $207 $-1 #
edge $-1 $348 0 $348 6.2831853071796004 $212 $349 forward 7 unknown #
loop $-1 $-1 $219 $133 #
plane-surface $-1 -54.808801538132897 -13.404183338729489 6.8259227258939958 -0.81915205242281985 0 0.57357642473473569 0.57357642473473569 0 0.81915205242281985 forward_v I I I I #
loop $-1 $-1 $350 $85 #
coedge $-1 $217 $217 $218 $351 reversed $134 $-1 #
coedge $-1 $218 $218 $217 $351 forward $136 $-1 #
coedge $-1 $219 $219 $137 $220 forward $214 $-1 #
edge $-1 $352 0 $352 6.2831853071796004 $219 $353 forward 7 unknown #
face $-1 $354 $355 $48 $-1 $356 forward single #
loop $-1 $-1 $357 $138 #
plane-surface $-1 -144.60228607972601 -3.8264525054824627 69.69999558636988 0 1 0 -0.81915205242281985 0 0.57357642473473569 forward_v I I I I #
coedge $-1 $358 $359 $360 $361 reversed $139 $-1 #
coedge $-1 $226 $141 $362 $363 reversed $89 $-1 #
coedge $-1 $141 $225 $358 $364 reversed $89 $-1 #
coedge $-1 $360 $365 $141 $228 forward $366 $-1 #
edge $-1 $367 17.974136389911251 $368 28.024075067290923 $227 $369 forward 7 unknown #
loop $-1 $-1 $234 $142 #
plane-surface $-1 -54.808801538132897 -0.4289286198945419 6.8259227258939958 -0.81915205242281985 0 0.57357642473473569 0.57357642473473569 0 0.81915205242281985 forward_v I I I I #
loop $-1 $-1 $370 $91 #
coedge $-1 $232 $232 $233 $371 reversed $143 $-1 #
coedge $-1 $233 $233 $232 $371 forward $145 $-1 #
coedge $-1 $234 $234 $146 $235 forward $229 $-1 #
edge $-1 $372 0 $372 6.2831853071796004 $234 $373 forward 7 unknown #
loop $-1 $-1 $241 $147 #
plane-surface $-1 -54.808801538132897 -0.4289286198945419 6.8259227258939958 -0.81915205242281985 0 0.57357642473473569 0.57357642473473569 0 0.81915205242281985 forward_v I I I I #
loop $-1 $-1 $374 $94 #
coedge $-1 $239 $239 $240 $375 reversed $148 $-1 #
coedge $-1 $240 $240 $239 $375 forward $150 $-1 #
coedge $-1 $241 $241 $151 $242 forward $236 $-1 #
edge $-1 $376 0 $376 6.2831853071796004 $241 $377 forward 7 unknown #
face $-1 $378 $379 $51 $-1 $380 forward single #
loop $-1 $-1 $381 $152 #
plane-surface $-1 -144.60228607972601 9.148802213352484 69.69999558636988 0 1 0 -0.81915205242281985 0 0.57357642473473569 forward_v I I I I #
coedge $-1 $382 $383 $384 $385 reversed $153 $-1 #
coedge $-1 $248 $155 $386 $387 reversed $98 $-1 #
coedge $-1 $155 $247 $382 $388 reversed $98 $-1 #
coedge $-1 $384 $389 $155 $250 forward $390 $-1 #
edge $-1 $391 17.974136389911251 $392 28.024075067290923 $249 $393 forward 7 unknown #
loop $-1 $-1 $256 $156 #
plane-surface $-1 -54.808801538132897 12.546326098940405 6.8259227258939958 -0.81915205242281985 0 0.57357642473473569 0.57357642473473569 0 0.81915205242281985 forward_v I I I I #
loop $-1 $-1 $394 $100 #
coedge $-1 $254 $254 $255 $395 reversed $157 $-1 #
coedge $-1 $255 $255 $254 $395 forward $159 $-1 #
coedge $-1 $256 $256 $160 $257 forward $251 $-1 #
edge $-1 $396 0 $396 6.2831853071796004 $256 $397 forward 7 unknown #
loop $-1 $-1 $263 $161 #
plane-surface $-1 -54.808801538132897 12.546326098940405 6.8259227258939958 -0.81915205242281985 0 0.57357642473473569 0.57357642473473569 0 0.81915205242281985 forward_v I I I I #
loop $-1 $-1 $398 $103 #
coedge $-1 $261 $261 $262 $399 reversed $162 $-1 #
coedge $-1 $262 $262 $261 $399 forward $164 $-1 #
coedge $-1 $263 $263 $165 $264 forward $258 $-1 #
edge $-1 $400 0 $400 6.2831853071796004 $263 $401 forward 7 unknown #
face $-1 $402 $403 $54 $-1 $404 forward single #
loop $-1 $-1 $405 $166 #
plane-surface $-1 81.728213219250136 -4.2806158155995213 162.52171844379325 0 1 0 0.81915205242281985 0 0.57357642473473569 forward_v I I I I #
coedge $-1 $406 $407 $408 $409 reversed $167 $-1 #
coedge $-1 $270 $169 $410 $411 reversed $107 $-1 #
coedge $-1 $169 $269 $406 $412 reversed $107 $-1 #
coedge $-1 $408 $413 $169 $272 forward $403 $-1 #
edge $-1 $414 -13.944694928507815 $415 -9.028047552695277 $271 $416 forward 7 unknown #
loop $-1 $-1 $278 $170 #
plane-surface $-1 -8.0652713223429799 1.5049664889749437 99.64764558331737 0.81915205242281985 0 0.57357642473473569 0.57357642473473569 0 -0.81915205242281985 forward_v I I I I #
loop $-1 $-1 $417 $109 #
coedge $-1 $276 $276 $277 $418 reversed $171 $-1 #
coedge $-1 $277 $277 $276 $418 forward $173 $-1 #
coedge $-1 $278 $278 $174 $279 forward $273 $-1 #
edge $-1 $419 0 $419 6.2831853071796004 $278 $420 forward 7 unknown #
face $-1 $421 $422 $42 $-1 $423 reversed single #
loop $-1 $-1 $424 $175 #
plane-surface $-1 -54.808801538132883 0 0 1 0 0 0 0 -1 forward_v I I I I #
coedge $-1 $425 $291 $426 $427 forward $176 $-1 #
coedge $-1 $428 $178 $425 $429 forward $113 $-1 #
coedge $-1 $178 $428 $430 $431 forward $113 $-1 #
coedge $-1 $294 $293 $178 $287 reversed $295 $-1 #
edge $-1 $432 -37.381619904619129 $433 37.381619904619129 $286 $434 forward 7 unknown #
coedge $-1 $180 $179 $435 $436 forward $71 $-1 #
coedge $-1 $437 $438 $179 $290 reversed $422 $-1 #
edge $-1 $297 -54.808801538132883 $439 54.808801538132883 $289 $440 forward 7 unknown #
coedge $-1 $283 $441 $180 $292 reversed $176 $-1 #
edge $-1 $442 -54.808801538132883 $296 54.808801538132883 $291 $443 forward 7 unknown #
coedge $-1 $286 $181 $441 $444 forward $295 $-1 #
coedge $-1 $181 $286 $437 $445 reversed $295 $-1 #
loop $-1 $-1 $293 $421 #
vertex $-1 $182 $446 #
vertex $-1 $182 $447 #
straight-curve $-1 54.808801538132883 0 16.875861403273689 0 1 0 I I #
face $-1 $448 $449 $43 $-1 $450 reversed single #
loop $-1 $-1 $305 $183 #
plane-surface $-1 54.808801538132883 0 0 -1 0 0 0 0 1 forward_v I I I I #
coedge $-1 $451 $452 $303 $453 forward $184 $-1 #
coedge $-1 $454 $186 $302 $453 reversed $117 $-1 #
coedge $-1 $186 $454 $187 $308 reversed $117 $-1 #
coedge $-1 $189 $455 $186 $306 forward $300 $-1 #
edge $-1 $456 -10.397321885318126 $312 -2.5597571505929988 $305 $457 forward 7 unknown #
coedge $-1 $188 $187 $458 $459 reversed $74 $-1 #
edge $-1 $312 -54.808801538132883 $460 54.808801538132883 $304 $461 forward 7 unknown #
coedge $-1 $462 $463 $188 $310 forward $449 $-1 #
edge $-1 $313 -54.808801538132883 $464 54.808801538132883 $309 $465 forward 7 unknown #
coedge $-1 $455 $189 $463 $466 forward $300 $-1 #
vertex $-1 $190 $467 #
vertex $-1 $466 $468 #
straight-curve $-1 54.808801538132883 -14.211125495717887 -9.0382966685485613 0 -1 0 I I #
face $-1 $469 $470 $44 $-1 $471 reversed single #
loop $-1 $-1 $472 $191 #
plane-surface $-1 0 0 -16.875861403273689 0 0 1 1 0 0 forward_v I I I I #
coedge $-1 $473 $194 $472 $474 reversed $121 $-1 #
coedge $-1 $194 $473 $196 $325 reversed $121 $-1 #
coedge $-1 $475 $476 $194 $321 forward $470 $-1 #
edge $-1 $477 -10.397321885318126 $478 -2.5597571505929988 $320 $479 forward 7 unknown #
coedge $-1 $196 $195 $475 $480 reversed $77 $-1 #
coedge $-1 $481 $482 $195 $324 forward $483 $-1 #
edge $-1 $484 -54.808801538132883 $328 54.808801538132883 $323 $485 forward 7 unknown #
edge $-1 $478 -54.808801538132883 $329 54.808801538132883 $319 $486 forward 7 unknown #
coedge $-1 $487 $197 $473 $488 forward $192 $-1 #
coedge $-1 $197 $487 $481 $489 reversed $192 $-1 #
vertex $-1 $489 $490 #
vertex $-1 $198 $491 #
straight-curve $-1 54.808801538132883 14.211125495717887 -9.0382966685485613 0 -1 0 I I #
face $-1 $-1 $492 $45 $-1 $493 forward single #
loop $-1 $-1 $205 $199 #
plane-surface $-1 -54.808801538132883 0 0 1 0 0 0 0 -1 forward_v I I I I #
coedge $-1 $494 $495 $496 $497 reversed $200 $-1 #
coedge $-1 $498 $202 $204 $341 forward $125 $-1 #
coedge $-1 $202 $498 $494 $499 forward $125 $-1 #
coedge $-1 $496 $205 $202 $338 forward $332 $-1 #
edge $-1 $344 3.3045677837768235 $500 10.099615554952667 $337 $501 forward 7 unknown #
coedge $-1 $502 $503 $203 $340 forward $492 $-1 #
edge $-1 $504 -24.529384109784736 $343 -17.492341501730124 $339 $505 forward 7 unknown #
edge $-1 $344 2.4884734274515653e-014 $504 12.268709634133028 $204 $506 forward 7 unknown #
coedge $-1 $205 $496 $502 $507 reversed $332 $-1 #
vertex $-1 $507 $508 #
vertex $-1 $206 $509 #
straight-curve $-1 -54.808801538132883 -10.006659453141568 34.84999779318494 0 0 -1 I I #
coedge $-1 $346 $346 $-1 $510 reversed $209 $-1 #
edge $-1 $511 0 $511 6.2831853071796004 $210 $512 forward 7 unknown #
vertex $-1 $213 $513 #
ellipse-curve $-1 -51.29028023410558 -14.860265003981453 11.850892064583848 -0.81915205242281985 0 0.57357642473473569 0.28678821236736785 0 0.40957602621140993 1 I I #
coedge $-1 $350 $350 $-1 $514 reversed $216 $-1 #
edge $-1 $515 0 $515 6.2831853071796004 $217 $516 forward 7 unknown #
vertex $-1 $220 $517 #
ellipse-curve $-1 -51.29028023410558 -11.94810167347752 11.850892064583848 -0.81915205242281985 0 0.57357642473473569 0.28678821236736785 0 0.40957602621140993 1 I I #
face $-1 $-1 $366 $48 $-1 $518 reversed single #
loop $-1 $-1 $519 $221 #
plane-surface $-1 0 0 16.875861403273689 0 0 1 1 0 0 forward_v I I I I #
coedge $-1 $520 $521 $522 $523 reversed $222 $-1 #
coedge $-1 $524 $224 $226 $364 forward $139 $-1 #
coedge $-1 $224 $524 $520 $525 forward $139 $-1 #
coedge $-1 $522 $227 $224 $361 forward $366 $-1 #
edge $-1 $368 -3.1830595756406499 $526 3.6119881955351918 $360 $527 forward 7 unknown #
coedge $-1 $528 $529 $225 $363 forward $355 $-1 #
edge $-1 $530 -24.529384109784736 $367 -17.492341501730124 $362 $531 forward 7 unknown #
edge $-1 $368 2.4884734274515653e-014 $530 12.268709634133028 $226 $532 forward 7 unknown #
coedge $-1 $227 $522 $528 $533 reversed $366 $-1 #
loop $-1 $-1 $522 $354 #
vertex $-1 $533 $534 #
vertex $-1 $228 $535 #
straight-curve $-1 -54.808801538132883 2.9685952656933789 34.84999779318494 0 0 -1 I I #
coedge $-1 $370 $370 $-1 $536 reversed $231 $-1 #
edge $-1 $537 0 $537 6.2831853071796004 $232 $538 forward 7 unknown #
vertex $-1 $235 $539 #
ellipse-curve $-1 -51.29028023410558 -1.8850102851465067 11.850892064583848 -0.81915205242281985 0 0.57357642473473569 0.28678821236736785 0 0.40957602621140993 1 I I #
coedge $-1 $374 $374 $-1 $540 reversed $238 $-1 #
edge $-1 $541 0 $541 6.2831853071796004 $239 $542 forward 7 unknown #
vertex $-1 $242 $543 #
ellipse-curve $-1 -51.29028023410558 1.0271530453574229 11.850892064583848 -0.81915205242281985 0 0.57357642473473569 0.28678821236736785 0 0.40957602621140993 1 I I #
face $-1 $-1 $390 $51 $-1 $544 reversed single #
loop $-1 $-1 $545 $243 #
plane-surface $-1 0 0 16.875861403273689 0 0 1 1 0 0 forward_v I I I I #
coedge $-1 $546 $547 $548 $549 reversed $244 $-1 #
coedge $-1 $550 $246 $248 $388 forward $153 $-1 #
coedge $-1 $246 $550 $546 $551 forward $153 $-1 #
coedge $-1 $548 $249 $246 $385 forward $390 $-1 #
edge $-1 $392 -9.6706869350581233 $552 -2.8756391638822816 $384 $553 forward 7 unknown #
coedge $-1 $554 $555 $247 $387 forward $379 $-1 #
edge $-1 $556 -24.529384109784736 $391 -17.492341501730124 $386 $557 forward 7 unknown #
edge $-1 $392 2.4884734274515653e-014 $556 12.268709634133028 $248 $558 forward 7 unknown #
coedge $-1 $249 $548 $554 $559 reversed $390 $-1 #
loop $-1 $-1 $548 $378 #
vertex $-1 $559 $560 #
vertex $-1 $250 $561 #
straight-curve $-1 -54.808801538132883 15.943849984528326 34.84999779318494 0 0 -1 I I #
coedge $-1 $394 $394 $-1 $562 reversed $253 $-1 #
edge $-1 $563 0 $563 6.2831853071796004 $254 $564 forward 7 unknown #
vertex $-1 $257 $565 #
ellipse-curve $-1 -51.29028023410558 11.09024443368844 11.850892064583848 -0.81915205242281985 0 0.57357642473473569 0.28678821236736785 0 0.40957602621140993 1 I I #
coedge $-1 $398 $398 $-1 $566 reversed $260 $-1 #
edge $-1 $567 0 $567 6.2831853071796004 $261 $568 forward 7 unknown #
vertex $-1 $264 $569 #
ellipse-curve $-1 -51.29028023410558 14.00240776419237 11.850892064583848 -0.81915205242281985 0 0.57357642473473569 0.28678821236736785 0 0.40957602621140993 1 I I #
face $-1 $-1 $570 $54 $-1 $571 reversed single #
loop $-1 $-1 $271 $265 #
plane-surface $-1 0 0 16.875861403273689 0 0 1 1 0 0 forward_v I I I I #
coedge $-1 $572 $573 $574 $575 reversed $266 $-1 #
coedge $-1 $576 $268 $270 $412 forward $167 $-1 #
coedge $-1 $268 $576 $572 $577 forward $167 $-1 #
coedge $-1 $574 $271 $268 $409 forward $403 $-1 #
edge $-1 $415 -6.5380655490619368 $578 5.0330990600869931 $408 $579 forward 7 unknown #
coedge $-1 $580 $581 $269 $411 forward $570 $-1 #
edge $-1 $582 -71.406698180172341 $414 -64.384997818622935 $410 $583 forward 7 unknown #
edge $-1 $415 101.04568979010452 $582 109.61760307626575 $270 $584 forward 7 unknown #
coedge $-1 $271 $574 $580 $585 forward $403 $-1 #
vertex $-1 $272 $586 #
vertex $-1 $272 $587 #
straight-curve $-1 40.864106609625068 7.2905487935494087 16.875861403273689 -1 0 0 I I #
coedge $-1 $417 $417 $-1 $588 reversed $275 $-1 #
edge $-1 $589 0 $589 6.2831853071796004 $276 $590 forward 7 unknown #
vertex $-1 $279 $591 #
ellipse-curve $-1 52.350477850226625 1.5049664889749437 13.365011222498982 0.81915205242281985 0 0.57357642473473569 0.57357642473473569 0 -0.81915205242281985 1 I I #
face $-1 $-1 $295 $42 $-1 $592 reversed single #
loop $-1 $-1 $437 $280 #
plane-surface $-1 0 37.381619904619129 0 0 -1 0 0 0 -1 forward_v I I I I #
coedge $-1 $593 $435 $438 $594 forward $281 $-1 #
coedge $-1 $441 $283 $284 $429 reversed $176 $-1 #
coedge $-1 $435 $593 $283 $427 reversed $281 $-1 #
edge $-1 $442 -16.875861403273689 $595 16.875861403273689 $426 $596 forward 7 unknown #
coedge $-1 $285 $284 $593 $597 forward $113 $-1 #
edge $-1 $433 -54.808801538132883 $595 54.808801538132883 $425 $598 forward 7 unknown #
coedge $-1 $438 $437 $285 $431 reversed $422 $-1 #
edge $-1 $599 -54.808801538132883 $432 54.808801538132883 $430 $600 forward 7 unknown #
vertex $-1 $287 $601 #
vertex $-1 $444 $602 #
straight-curve $-1 54.808801538132883 0 -16.875861403273689 0 -1 0 I I #
coedge $-1 $424 $426 $288 $436 reversed $281 $-1 #
edge $-1 $439 -37.381619904619129 $442 37.381619904619129 $435 $603 forward 7 unknown #
coedge $-1 $430 $289 $294 $445 forward $422 $-1 #
coedge $-1 $289 $430 $424 $594 reversed $422 $-1 #
vertex $-1 $290 $604 #
straight-curve $-1 0 37.381619904619129 16.875861403273689 -1 0 0 I I #
coedge $-1 $291 $425 $293 $444 reversed $176 $-1 #
vertex $-1 $436 $605 #
straight-curve $-1 0 -37.381619904619129 16.875861403273689 1 0 0 I I #
edge $-1 $296 -16.875861403273689 $433 16.875861403273689 $293 $606 forward 7 unknown #
edge $-1 $297 -16.875861403273689 $432 16.875861403273689 $294 $607 forward 7 unknown #
point $-1 54.808801538132883 -37.381619904619129 16.875861403273689 #
point $-1 54.808801538132883 37.381619904619129 16.875861403273689 #
face $-1 $-1 $608 $43 $-1 $609 reversed single #
loop $-1 $-1 $309 $299 #
plane-surface $-1 0 -37.381619904619129 0 0 1 0 0 0 1 forward_v I I I I #
coedge $-1 $610 $302 $455 $611 forward $184 $-1 #
coedge $-1 $302 $610 $612 $613 forward $184 $-1 #
edge $-1 $614 -54.808801538132883 $456 54.808801538132883 $302 $615 forward 7 unknown #
coedge $-1 $304 $303 $616 $617 reversed $117 $-1 #
coedge $-1 $305 $311 $451 $611 reversed $300 $-1 #
vertex $-1 $611 $618 #
straight-curve $-1 54.808801538132883 -19.46288207825242 -6.4785395179555625 0 0 1 I I #
coedge $-1 $616 $619 $307 $459 forward $608 $-1 #
edge $-1 $464 -23.170494408901241 $460 -5.2517565825345329 $458 $620 forward 7 unknown #
vertex $-1 $459 $621 #
straight-curve $-1 0 -19.46288207825242 -9.0382966685485613 -1 0 0 I I #
coedge $-1 $622 $309 $619 $623 forward $449 $-1 #
coedge $-1 $309 $622 $311 $466 reversed $449 $-1 #
vertex $-1 $623 $624 #
straight-curve $-1 0 -37.381619904619129 -9.0382966685485613 -1 0 0 I I #
edge $-1 $313 9.0382966685485613 $625 16.875861403273689 $311 $626 forward 7 unknown #
point $-1 54.808801538132883 -19.46288207825242 -9.0382966685485613 #
point $-1 54.808801538132883 -37.381619904619129 -9.0382966685485613 #
face $-1 $-1 $483 $44 $-1 $627 reversed single #
loop $-1 $-1 $475 $315 #
plane-surface $-1 -54.808801538132883 0 0 1 0 0 0 0 -1 forward_v I I I I #
coedge $-1 $628 $629 $318 $474 forward $316 $-1 #
coedge $-1 $319 $318 $326 $488 reversed $121 $-1 #
edge $-1 $630 -54.808801538132883 $477 54.808801538132883 $472 $631 forward 7 unknown #
coedge $-1 $632 $320 $322 $480 forward $470 $-1 #
coedge $-1 $320 $632 $628 $633 reversed $470 $-1 #
vertex $-1 $633 $634 #
vertex $-1 $480 $635 #
straight-curve $-1 -54.808801538132883 19.46288207825242 -6.4785395179555625 0 0 1 I I #
edge $-1 $478 5.2517565825345329 $484 23.170494408901241 $475 $636 forward 7 unknown #
coedge $-1 $637 $323 $327 $489 forward $483 $-1 #
coedge $-1 $323 $637 $632 $638 reversed $483 $-1 #
loop $-1 $-1 $323 $469 #
vertex $-1 $638 $639 #
straight-curve $-1 0 37.381619904619129 -9.0382966685485613 1 0 0 I I #
straight-curve $-1 0 19.46288207825242 -9.0382966685485613 1 0 0 I I #
coedge $-1 $327 $326 $629 $640 reversed $192 $-1 #
edge $-1 $329 2.5597571505929988 $630 10.397321885318126 $326 $641 forward 7 unknown #
edge $-1 $328 9.0382966685485613 $642 16.875861403273689 $327 $643 forward 7 unknown #
point $-1 54.808801538132883 37.381619904619129 -9.0382966685485613 #
point $-1 54.808801538132883 19.46288207825242 -9.0382966685485613 #
loop $-1 $-1 $339 $331 #
plane-surface $-1 0 0 16.875861403273689 0 0 1 1 0 0 forward_v I I I I #
coedge $-1 $495 $334 $336 $499 reversed $200 $-1 #
coedge $-1 $334 $494 $644 $645 reversed $200 $-1 #
coedge $-1 $342 $337 $334 $497 forward $332 $-1 #
edge $-1 $500 -28.024075067290923 $646 -17.974136389911251 $496 $647 forward 7 unknown #
coedge $-1 $336 $335 $503 $648 reversed $125 $-1 #
edge $-1 $649 -12.268709634133028 $500 -2.4884734274515653e-014 $494 $650 forward 7 unknown #
vertex $-1 $338 $651 #
straight-curve $-1 -54.808801538132883 -6.7020916693647443 6.8259227258940207 0 -1 0 I I #
coedge $-1 $644 $339 $342 $507 forward $492 $-1 #
coedge $-1 $339 $644 $498 $648 forward $492 $-1 #
vertex $-1 $340 $652 #
straight-curve $-1 -72.301143039863007 -10.006659453141568 16.875861403273689 -1 0 0 I I #
straight-curve $-1 -54.808801538132897 -10.006659453141568 6.8259227258939958 0.57357642473473569 0 0.81915205242281985 I I #
edge $-1 $343 10.006659453141568 $646 16.801707224317411 $342 $653 forward 7 unknown #
point $-1 -54.808801538132883 -10.006659453141568 16.875861403273689 #
point $-1 -54.808801538132883 -10.006659453141568 6.8259227258940163 #
edge $-1 $654 1 $654 0 $346 $-1 forward 7 unknown #
vertex $-1 $347 $655 #
ellipse-curve $-1 -50.471128181682751 -14.860265003981453 11.277315639849107 -0.81915205242281985 0 0.57357642473473569 0.28678821236736785 0 0.40957602621140993 1 I I #
point $-1 -51.003492021738204 -14.860265003981453 12.260468090795252 #
edge $-1 $656 1 $656 0 $350 $-1 forward 7 unknown #
vertex $-1 $351 $657 #
ellipse-curve $-1 -50.471128181682751 -11.94810167347752 11.277315639849107 -0.81915205242281985 0 0.57357642473473569 0.28678821236736785 0 0.40957602621140993 1 I I #
point $-1 -51.003492021738204 -11.94810167347752 12.260468090795252 #
plane-surface $-1 -54.808801538132883 0 0 1 0 0 0 0 -1 forward_v I I I I #
coedge $-1 $529 $528 $521 $658 forward $355 $-1 #
coedge $-1 $521 $357 $359 $525 reversed $222 $-1 #
coedge $-1 $357 $520 $519 $658 reversed $222 $-1 #
coedge $-1 $365 $360 $357 $523 forward $366 $-1 #
edge $-1 $526 -28.024075067290923 $659 -17.974136389911251 $522 $660 forward 7 unknown #
coedge $-1 $359 $358 $529 $661 reversed $139 $-1 #
edge $-1 $662 -12.268709634133028 $526 -2.4884734274515653e-014 $520 $663 forward 7 unknown #
vertex $-1 $361 $664 #
straight-curve $-1 -54.808801538132883 -0.21446430994727095 6.8259227258940207 0 -1 0 I I #
coedge $-1 $519 $362 $365 $533 forward $355 $-1 #
coedge $-1 $362 $519 $524 $661 forward $355 $-1 #
vertex $-1 $363 $665 #
straight-curve $-1 -72.301143039863007 2.9685952656933789 16.875861403273689 -1 0 0 I I #
straight-curve $-1 -54.808801538132897 2.9685952656933789 6.8259227258939958 0.57357642473473569 0 0.81915205242281985 I I #
edge $-1 $367 -2.9685952656933789 $659 3.8264525054824627 $365 $666 forward 7 unknown #
point $-1 -54.808801538132883 2.9685952656933789 16.875861403273689 #
point $-1 -54.808801538132883 2.9685952656933789 6.8259227258940163 #
edge $-1 $667 1 $667 0 $370 $-1 forward 7 unknown #
vertex $-1 $371 $668 #
ellipse-curve $-1 -50.471128181682751 -1.8850102851465067 11.277315639849107 -0.81915205242281985 0 0.57357642473473569 0.28678821236736785 0 0.40957602621140993 1 I I #
point $-1 -51.003492021738204 -1.8850102851465067 12.260468090795252 #
edge $-1 $669 1 $669 0 $374 $-1 forward 7 unknown #
vertex $-1 $375 $670 #
ellipse-curve $-1 -50.471128181682751 1.0271530453574229 11.277315639849107 -0.81915205242281985 0 0.57357642473473569 0.28678821236736785 0 0.40957602621140993 1 I I #
point $-1 -51.003492021738204 1.0271530453574229 12.260468090795252 #
plane-surface $-1 -54.808801538132883 0 0 1 0 0 0 0 -1 forward_v I I I I #
coedge $-1 $555 $554 $547 $671 forward $379 $-1 #
coedge $-1 $547 $381 $383 $551 reversed $244 $-1 #
coedge $-1 $381 $546 $545 $671 reversed $244 $-1 #
coedge $-1 $389 $384 $381 $549 forward $390 $-1 #
edge $-1 $552 -28.024075067290923 $672 -17.974136389911251 $548 $673 forward 7 unknown #
coedge $-1 $383 $382 $555 $674 reversed $153 $-1 #
edge $-1 $675 -12.268709634133028 $552 -2.4884734274515653e-014 $546 $676 forward 7 unknown #
vertex $-1 $385 $677 #
straight-curve $-1 -54.808801538132883 6.2731630494702024 6.8259227258940207 0 -1 0 I I #
coedge $-1 $545 $386 $389 $559 forward $379 $-1 #
coedge $-1 $386 $545 $550 $674 forward $379 $-1 #
vertex $-1 $387 $678 #
straight-curve $-1 -72.301143039863007 15.943849984528326 16.875861403273689 -1 0 0 I I #
straight-curve $-1 -54.808801538132897 15.943849984528326 6.8259227258939958 0.57357642473473569 0 0.81915205242281985 I I #
edge $-1 $391 -15.943849984528326 $672 -9.148802213352484 $389 $679 forward 7 unknown #
point $-1 -54.808801538132883 15.943849984528326 16.875861403273689 #
point $-1 -54.808801538132883 15.943849984528326 6.8259227258940163 #
edge $-1 $680 1 $680 0 $394 $-1 forward 7 unknown #
vertex $-1 $395 $681 #
ellipse-curve $-1 -50.471128181682751 11.09024443368844 11.277315639849107 -0.81915205242281985 0 0.57357642473473569 0.28678821236736785 0 0.40957602621140993 1 I I #
point $-1 -51.003492021738204 11.09024443368844 12.260468090795252 #
edge $-1 $682 1 $682 0 $398 $-1 forward 7 unknown #
vertex $-1 $399 $683 #
ellipse-curve $-1 -50.471128181682751 14.00240776419237 11.277315639849107 -0.81915205242281985 0 0.57357642473473569 0.28678821236736785 0 0.40957602621140993 1 I I #
point $-1 -51.003492021738204 14.00240776419237 12.260468090795252 #
loop $-1 $-1 $410 $402 #
plane-surface $-1 54.808801538132883 0 0 -1 0 0 0 0 1 forward_v I I I I #
coedge $-1 $573 $405 $407 $577 reversed $266 $-1 #
coedge $-1 $405 $572 $684 $685 reversed $266 $-1 #
coedge $-1 $413 $408 $405 $575 forward $403 $-1 #
edge $-1 $578 9.028047552695277 $686 13.944694928507815 $574 $687 forward 7 unknown #
coedge $-1 $407 $406 $581 $688 reversed $167 $-1 #
edge $-1 $689 -109.61760307626575 $578 -101.04568979010452 $572 $690 forward 7 unknown #
vertex $-1 $409 $691 #
straight-curve $-1 49.892154162320352 0.75248324448747184 16.875861403273696 0 -1 0 I I #
coedge $-1 $684 $410 $413 $585 reversed $570 $-1 #
coedge $-1 $410 $684 $576 $688 forward $570 $-1 #
vertex $-1 $411 $692 #
straight-curve $-1 54.808801538132883 7.2905487935494087 81.260859221896624 0 0 1 I I #
straight-curve $-1 -8.0652713223429799 7.2905487935494087 99.64764558331737 0.57357642473473569 0 -0.81915205242281985 I I #
edge $-1 $686 -4.2806158155995213 $414 7.2905487935494087 $580 $693 forward 7 unknown #
point $-1 54.808801538132883 7.2905487935494087 16.875861403273689 #
point $-1 49.892154162320345 7.2905487935494087 16.875861403273689 #
edge $-1 $694 1 $694 0 $417 $-1 forward 7 unknown #
vertex $-1 $418 $695 #
ellipse-curve $-1 50.353408795757261 1.5049664889749437 11.966648458439563 0.81915205242281985 0 0.57357642473473569 0.57357642473473569 0 -0.81915205242281985 1 I I #
point $-1 52.924054274961335 1.5049664889749437 12.545859170076143 #
plane-surface $-1 54.808801538132883 0 0 -1 0 0 0 0 1 forward_v I I I I #
coedge $-1 $426 $424 $428 $597 reversed $281 $-1 #
edge $-1 $439 -16.875861403273689 $599 16.875861403273689 $438 $696 forward 7 unknown #
vertex $-1 $597 $697 #
straight-curve $-1 -54.808801538132883 -37.381619904619129 0 0 0 -1 I I #
edge $-1 $595 -37.381619904619129 $599 37.381619904619129 $593 $698 forward 7 unknown #
straight-curve $-1 0 -37.381619904619129 -16.875861403273689 -1 0 0 I I #
vertex $-1 $431 $699 #
straight-curve $-1 0 37.381619904619129 -16.875861403273689 1 0 0 I I #
point $-1 54.808801538132883 37.381619904619129 -16.875861403273689 #
point $-1 54.808801538132883 -37.381619904619129 -16.875861403273689 #
straight-curve $-1 -54.808801538132883 0 16.875861403273689 0 -1 0 I I #
point $-1 -54.808801538132883 37.381619904619129 16.875861403273689 #
point $-1 -54.808801538132883 -37.381619904619129 16.875861403273689 #
straight-curve $-1 54.808801538132883 -37.381619904619129 0 0 0 -1 I I #
straight-curve $-1 54.808801538132883 37.381619904619129 0 0 0 -1 I I #
loop $-1 $-1 $616 $448 #
plane-surface $-1 -54.808801538132883 0 0 1 0 0 0 0 -1 forward_v I I I I #
coedge $-1 $452 $451 $622 $700 forward $184 $-1 #
edge $-1 $456 19.46288207825242 $625 37.381619904619129 $455 $701 forward 7 unknown #
coedge $-1 $619 $616 $452 $613 reversed $608 $-1 #
edge $-1 $702 -37.381619904619129 $614 -19.46288207825242 $612 $703 forward 7 unknown #
vertex $-1 $617 $704 #
straight-curve $-1 0 -19.46288207825242 -16.875861403273689 1 0 0 I I #
coedge $-1 $612 $458 $454 $617 forward $608 $-1 #
edge $-1 $460 2.5597571505929988 $614 10.397321885318126 $616 $705 forward 7 unknown #
point $-1 54.808801538132883 -19.46288207825242 -16.875861403273689 #
coedge $-1 $458 $612 $462 $623 reversed $608 $-1 #
straight-curve $-1 -54.808801538132883 -14.211125495717887 -9.0382966685485613 0 1 0 I I #
point $-1 -54.808801538132883 -19.46288207825242 -9.0382966685485613 #
coedge $-1 $463 $462 $610 $700 reversed $449 $-1 #
edge $-1 $464 9.0382966685485613 $702 16.875861403273689 $619 $706 forward 7 unknown #
point $-1 -54.808801538132883 -37.381619904619129 -9.0382966685485613 #
vertex $-1 $466 $707 #
straight-curve $-1 54.808801538132883 -37.381619904619129 0 0 0 -1 I I #
plane-surface $-1 0 37.381619904619129 0 0 -1 0 0 0 -1 forward_v I I I I #
coedge $-1 $708 $472 $476 $633 forward $316 $-1 #
coedge $-1 $472 $708 $487 $640 forward $316 $-1 #
vertex $-1 $474 $709 #
straight-curve $-1 0 19.46288207825242 -16.875861403273689 -1 0 0 I I #
coedge $-1 $476 $475 $482 $638 forward $470 $-1 #
edge $-1 $477 19.46288207825242 $710 37.381619904619129 $476 $711 forward 7 unknown #
point $-1 -54.808801538132883 19.46288207825242 -16.875861403273689 #
point $-1 -54.808801538132883 19.46288207825242 -9.0382966685485613 #
straight-curve $-1 -54.808801538132883 14.211125495717887 -9.0382966685485613 0 1 0 I I #
coedge $-1 $482 $481 $708 $712 reversed $483 $-1 #
edge $-1 $484 9.0382966685485613 $710 16.875861403273689 $482 $713 forward 7 unknown #
point $-1 -54.808801538132883 37.381619904619129 -9.0382966685485613 #
edge $-1 $642 -37.381619904619129 $630 -19.46288207825242 $487 $714 forward 7 unknown #
straight-curve $-1 54.808801538132883 19.46288207825242 -6.4785395179555625 0 0 -1 I I #
vertex $-1 $640 $715 #
straight-curve $-1 54.808801538132883 37.381619904619129 0 0 0 -1 I I #
coedge $-1 $503 $502 $495 $645 forward $492 $-1 #
edge $-1 $646 17.492341501730124 $649 24.529384109784736 $644 $716 forward 7 unknown #
vertex $-1 $645 $717 #
straight-curve $-1 -54.808801538132883 -16.801707224317411 34.84999779318494 0 0 1 I I #
edge $-1 $649 -10.099615554952667 $504 -3.3045677837768235 $503 $718 forward 7 unknown #
vertex $-1 $648 $719 #
straight-curve $-1 -54.808801538132897 -16.801707224317411 6.8259227258939958 -0.57357642473473569 0 -0.81915205242281985 I I #
point $-1 -54.808801538132883 -16.801707224317411 6.8259227258940163 #
point $-1 -47.771758930078271 -10.006659453141568 16.875861403273689 #
straight-curve $-1 -54.808801538132883 0 16.875861403273689 0 -1 0 I I #
vertex $-1 $510 $720 #
point $-1 -50.184339969315381 -14.860265003981453 11.686891666060516 #
vertex $-1 $514 $721 #
point $-1 -50.184339969315381 -11.94810167347752 11.686891666060516 #
edge $-1 $659 17.492341501730124 $662 24.529384109784736 $519 $722 forward 7 unknown #
vertex $-1 $658 $723 #
straight-curve $-1 -54.808801538132883 -3.8264525054824627 34.84999779318494 0 0 1 I I #
edge $-1 $662 -3.6119881955351918 $530 3.1830595756406499 $529 $724 forward 7 unknown #
vertex $-1 $661 $725 #
straight-curve $-1 -54.808801538132897 -3.8264525054824627 6.8259227258939958 -0.57357642473473569 0 -0.81915205242281985 I I #
point $-1 -54.808801538132883 -3.8264525054824627 6.8259227258940163 #
point $-1 -47.771758930078271 2.9685952656933789 16.875861403273689 #
straight-curve $-1 -54.808801538132883 0 16.875861403273689 0 -1 0 I I #
vertex $-1 $536 $726 #
point $-1 -50.184339969315381 -1.8850102851465067 11.686891666060516 #
vertex $-1 $540 $727 #
point $-1 -50.184339969315381 1.0271530453574229 11.686891666060516 #
edge $-1 $672 17.492341501730124 $675 24.529384109784736 $545 $728 forward 7 unknown #
vertex $-1 $549 $729 #
straight-curve $-1 -54.808801538132883 9.148802213352484 34.84999779318494 0 0 1 I I #
edge $-1 $675 2.8756391638822816 $556 9.6706869350581233 $555 $730 forward 7 unknown #
vertex $-1 $674 $731 #
straight-curve $-1 -54.808801538132897 9.148802213352484 6.8259227258939958 -0.57357642473473569 0 -0.81915205242281985 I I #
point $-1 -54.808801538132883 9.148802213352484 6.8259227258940163 #
point $-1 -47.771758930078271 15.943849984528326 16.875861403273689 #
straight-curve $-1 -54.808801538132883 0 16.875861403273689 0 -1 0 I I #
vertex $-1 $562 $732 #
point $-1 -50.184339969315381 11.09024443368844 11.686891666060516 #
vertex $-1 $566 $733 #
point $-1 -50.184339969315381 14.00240776419237 11.686891666060516 #
coedge $-1 $581 $580 $573 $685 forward $570 $-1 #
edge $-1 $686 64.384997818622935 $689 71.406698180172341 $684 $734 forward 7 unknown #
vertex $-1 $585 $735 #
straight-curve $-1 40.864106609625068 -4.2806158155995213 16.875861403273689 1 0 0 I I #
edge $-1 $689 -5.0330990600869931 $582 6.5380655490619368 $581 $736 forward 7 unknown #
vertex $-1 $688 $737 #
straight-curve $-1 -8.0652713223429799 -4.2806158155995213 99.64764558331737 -0.57357642473473569 0 0.81915205242281985 I I #
point $-1 49.892154162320345 -4.2806158155995213 16.875861403273689 #
point $-1 54.808801538132883 7.2905487935494087 9.8541610417242822 #
straight-curve $-1 54.808801538132883 0 16.875861403273689 0 1 0 I I #
vertex $-1 $588 $738 #
point $-1 50.926985220491993 1.5049664889749437 11.147496406016742 #
straight-curve $-1 -54.808801538132883 37.381619904619129 0 0 0 -1 I I #
point $-1 -54.808801538132883 -37.381619904619129 -16.875861403273689 #
straight-curve $-1 -54.808801538132883 0 -16.875861403273689 0 1 0 I I #
point $-1 -54.808801538132883 37.381619904619129 -16.875861403273689 #
edge $-1 $625 -54.808801538132883 $702 54.808801538132883 $622 $739 forward 7 unknown #
straight-curve $-1 54.808801538132883 0 -16.875861403273689 0 -1 0 I I #
vertex $-1 $613 $740 #
straight-curve $-1 -54.808801538132883 0 -16.875861403273689 0 1 0 I I #
point $-1 -54.808801538132883 -19.46288207825242 -16.875861403273689 #
straight-curve $-1 -54.808801538132883 -19.46288207825242 -6.4785395179555625 0 0 -1 I I #
straight-curve $-1 -54.808801538132883 -37.381619904619129 0 0 0 -1 I I #
point $-1 54.808801538132883 -37.381619904619129 -16.875861403273689 #
coedge $-1 $629 $628 $637 $712 forward $316 $-1 #
point $-1 54.808801538132883 19.46288207825242 -16.875861403273689 #
vertex $-1 $712 $741 #
straight-curve $-1 -54.808801538132883 0 -16.875861403273689 0 1 0 I I #
edge $-1 $710 -54.808801538132883 $642 54.808801538132883 $637 $742 forward 7 unknown #
straight-curve $-1 -54.808801538132883 37.381619904619129 0 0 0 -1 I I #
straight-curve $-1 54.808801538132883 0 -16.875861403273689 0 -1 0 I I #
point $-1 54.808801538132883 37.381619904619129 -16.875861403273689 #
straight-curve $-1 -72.301143039863007 -16.801707224317411 16.875861403273689 1 0 0 I I #
point $-1 -54.808801538132883 -16.801707224317411 16.875861403273689 #
straight-curve $-1 -47.771758930078271 -6.7020916693647443 16.875861403273689 0 1 0 I I #
point $-1 -47.771758930078271 -16.801707224317411 16.875861403273689 #
point $-1 -50.06155215547134 -14.860265003981453 10.990527427481737 #
point $-1 -50.06155215547134 -11.94810167347752 10.990527427481737 #
straight-curve $-1 -72.301143039863007 -3.8264525054824627 16.875861403273689 1 0 0 I I #
point $-1 -54.808801538132883 -3.8264525054824627 16.875861403273689 #
straight-curve $-1 -47.771758930078271 -0.21446430994727095 16.875861403273689 0 1 0 I I #
point $-1 -47.771758930078271 -3.8264525054824627 16.875861403273689 #
point $-1 -50.06155215547134 -1.8850102851465067 10.990527427481737 #
point $-1 -50.06155215547134 1.0271530453574229 10.990527427481737 #
straight-curve $-1 -72.301143039863007 9.148802213352484 16.875861403273689 1 0 0 I I #
point $-1 -54.808801538132883 9.148802213352484 16.875861403273689 #
straight-curve $-1 -47.771758930078271 6.2731630494702024 16.875861403273689 0 1 0 I I #
point $-1 -47.771758930078271 9.148802213352484 16.875861403273689 #
point $-1 -50.06155215547134 11.09024443368844 10.990527427481737 #
point $-1 -50.06155215547134 14.00240776419237 10.990527427481737 #
straight-curve $-1 54.808801538132883 -4.2806158155995213 81.260859221896624 0 0 -1 I I #
point $-1 54.808801538132883 -4.2806158155995213 16.875861403273689 #
straight-curve $-1 54.80880153813289 0.75248324448747184 9.8541610417242751 0 1 0 I I #
point $-1 54.808801538132883 -4.2806158155995213 9.8541610417242822 #
point $-1 49.534256743334439 1.5049664889749437 11.393072033704827 #
straight-curve $-1 0 -37.381619904619129 -16.875861403273689 -1 0 0 I I #
point $-1 -54.808801538132883 -37.381619904619129 -16.875861403273689 #
point $-1 -54.808801538132883 37.381619904619129 -16.875861403273689 #
straight-curve $-1 0 37.381619904619129 -16.875861403273689 1 0 0 I I #
End-of-ACIS-data 