500 0 11 0           
7 Unknown 11 ACIS 5.0 NT 24 Fri Mar 26 20:40:15 1999 
-1 9.9999999999999995e-007 1e-010 
body $-1 $11 $-1 $12 #
body $-1 $13 $-1 $14 #
body $-1 $15 $-1 $16 #
body $-1 $17 $-1 $18 #
body $-1 $19 $-1 $20 #
body $-1 $21 $-1 $22 #
body $-1 $23 $-1 $24 #
body $-1 $25 $-1 $26 #
body $-1 $27 $-1 $28 #
body $-1 $29 $-1 $30 #
body $-1 $31 $-1 $32 #
lump $-1 $-1 $33 $0 #
transform $-1 1 0 0 0 1 0 0 0 1 73.56547746208075 31.681178184237616 14.105748001510038 1 rotate no_reflect no_shear #
lump $-1 $-1 $34 $1 #
transform $-1 1 0 0 0 1 0 0 0 1 73.56547746208075 31.681178184237616 14.105748001510038 1 rotate no_reflect no_shear #
lump $-1 $-1 $35 $2 #
transform $-1 1 0 0 0 1 0 0 0 1 73.56547746208075 31.681178184237616 14.105748001510038 1 rotate no_reflect no_shear #
lump $-1 $-1 $36 $3 #
transform $-1 1 0 0 0 1 0 0 0 1 73.56547746208075 31.681178184237616 14.105748001510038 1 rotate no_reflect no_shear #
lump $-1 $-1 $37 $4 #
transform $-1 1 0 0 0 1 0 0 0 1 73.56547746208075 31.681178184237616 14.105748001510038 1 rotate no_reflect no_shear #
lump $-1 $-1 $38 $5 #
transform $-1 1 0 0 0 1 0 0 0 1 73.56547746208075 31.681178184237616 14.105748001510038 1 rotate no_reflect no_shear #
lump $-1 $-1 $39 $6 #
transform $-1 1 0 0 0 1 0 0 0 1 73.56547746208075 31.681178184237616 14.105748001510038 1 rotate no_reflect no_shear #
lump $-1 $-1 $40 $7 #
transform $-1 1 0 0 0 1 0 0 0 1 73.56547746208075 31.681178184237616 14.105748001510038 1 rotate no_reflect no_shear #
lump $-1 $-1 $41 $8 #
transform $-1 1 0 0 0 1 0 0 0 1 73.56547746208075 31.681178184237616 14.105748001510038 1 rotate no_reflect no_shear #
lump $-1 $-1 $42 $9 #
transform $-1 1 0 0 0 1 0 0 0 1 73.56547746208075 31.681178184237616 14.105748001510038 1 rotate no_reflect no_shear #
lump $-1 $-1 $43 $10 #
transform $-1 1 0 0 0 1 0 0 0 1 73.56547746208075 31.681178184237616 14.105748001510038 1 rotate no_reflect no_shear #
shell $-1 $-1 $-1 $44 $-1 $11 #
shell $-1 $-1 $-1 $45 $-1 $13 #
shell $-1 $-1 $-1 $46 $-1 $15 #
shell $-1 $-1 $-1 $47 $-1 $17 #
shell $-1 $-1 $-1 $48 $-1 $19 #
shell $-1 $-1 $-1 $49 $-1 $21 #
shell $-1 $-1 $-1 $50 $-1 $23 #
shell $-1 $-1 $-1 $51 $-1 $25 #
shell $-1 $-1 $-1 $52 $-1 $27 #
shell $-1 $-1 $-1 $53 $-1 $29 #
shell $-1 $-1 $-1 $54 $-1 $31 #
face $-1 $55 $56 $33 $-1 $57 forward single #
face $-1 $58 $59 $34 $-1 $60 reversed single #
face $-1 $61 $62 $35 $-1 $63 reversed single #
face $-1 $64 $65 $36 $-1 $66 reversed single #
face $-1 $67 $68 $37 $-1 $69 forward single #
face $-1 $70 $71 $38 $-1 $72 forward single #
face $-1 $73 $74 $39 $-1 $75 forward single #
face $-1 $76 $77 $40 $-1 $78 reversed single #
face $-1 $79 $80 $41 $-1 $81 forward single #
face $-1 $82 $83 $42 $-1 $84 forward single #
face $-1 $85 $86 $43 $-1 $87 forward single #
face $-1 $88 $89 $33 $-1 $90 reversed single #
loop $-1 $-1 $91 $44 #
plane-surface $-1 0 0 14.105748001510038 0 0 1 1 0 0 forward_v I I I I #
face $-1 $92 $93 $34 $-1 $94 reversed single #
loop $-1 $-1 $95 $45 #
plane-surface $-1 -71.629192665303748 -17.790217069164342 0 0 -1 0 0 0 -1 forward_v I I I I #
face $-1 $96 $97 $35 $-1 $98 reversed single #
loop $-1 $-1 $99 $46 #
plane-surface $-1 -71.629192665303748 17.790217069164338 0 0 1 0 0 0 1 forward_v I I I I #
face $-1 $100 $101 $36 $-1 $102 reversed single #
loop $-1 $-1 $103 $47 #
plane-surface $-1 113.26798425478241 17.790217069164342 213.95323240305135 0 -1 0 -0.82903758062907751 0 -0.55919289150049634 forward_v I I I I #
face $-1 $104 $105 $37 $-1 $106 forward single #
loop $-1 $107 $108 $48 #
cone-surface $-1 71.404318039571194 11.146298579412225 11.447801350719805 -0.82903758062907751 0 -0.55919289150049634 0.27959644575024817 0 -0.41451879031453875 1 I I 0 1 0.5 forward I I I I #
face $-1 $109 $110 $38 $-1 $111 forward single #
loop $-1 $112 $113 $49 #
cone-surface $-1 71.404318039571194 13.63776801306927 11.447801350719805 -0.82903758062907751 0 -0.55919289150049634 0.27959644575024817 0 -0.41451879031453875 1 I I 0 1 0.5 forward I I I I #
face $-1 $114 $115 $39 $-1 $116 forward single #
loop $-1 $117 $118 $50 #
cone-surface $-1 71.404318039571194 16.129237446726314 11.447801350719805 -0.82903758062907751 0 -0.55919289150049634 0.27959644575024817 0 -0.41451879031453875 1 I I 0 1 0.5 forward I I I I #
face $-1 $119 $120 $40 $-1 $121 reversed single #
loop $-1 $-1 $122 $51 #
plane-surface $-1 -73.565477462080779 13.63776801306927 9.7015573838075966 -0.82903758062907751 0 0.55919289150049634 0.55919289150049634 0 0.82903758062907751 forward_v I I I I #
face $-1 $123 $124 $41 $-1 $125 forward single #
loop $-1 $126 $127 $52 #
cone-surface $-1 -71.404318039571208 11.146298579412225 11.447801350719805 0.82903758062907751 0 -0.55919289150049634 0.27959644575024817 0 0.41451879031453875 1 I I 0 1 0.5 forward I I I I #
face $-1 $128 $129 $42 $-1 $130 forward single #
loop $-1 $131 $132 $53 #
cone-surface $-1 -71.404318039571208 13.63776801306927 11.447801350719805 0.82903758062907751 0 -0.55919289150049634 0.27959644575024817 0 0.41451879031453875 1 I I 0 1 0.5 forward I I I I #
face $-1 $133 $134 $43 $-1 $135 forward single #
loop $-1 $136 $137 $54 #
cone-surface $-1 -71.404318039571208 16.129237446726314 11.447801350719805 0.82903758062907751 0 -0.55919289150049634 0.27959644575024817 0 0.41451879031453875 1 I I 0 1 0.5 forward I I I I #
face $-1 $138 $139 $33 $-1 $140 reversed single #
loop $-1 $-1 $141 $55 #
plane-surface $-1 0 0 -14.105748001510038 0 0 1 1 0 0 forward_v I I I I #
coedge $-1 $142 $143 $144 $145 forward $56 $-1 #
face $-1 $146 $147 $34 $-1 $148 forward single #
loop $-1 $-1 $149 $58 #
plane-surface $-1 -69.692907868526746 -24.735697626700979 0 -1 0 0 0 0 1 forward_v I I I I #
coedge $-1 $150 $151 $152 $153 forward $59 $-1 #
face $-1 $154 $155 $35 $-1 $156 reversed single #
loop $-1 $-1 $157 $61 #
plane-surface $-1 -69.692907868526746 24.735697626700976 0 -1 0 0 0 0 1 forward_v I I I I #
coedge $-1 $158 $159 $160 $161 reversed $62 $-1 #
face $-1 $162 $163 $36 $-1 $164 reversed single #
loop $-1 $-1 $165 $64 #
plane-surface $-1 -8.7091066511902966 13.63776801306927 131.67864828978028 0.82903758062907751 0 0.55919289150049634 0.55919289150049634 0 -0.82903758062907751 forward_v I I I I #
coedge $-1 $166 $167 $168 $169 reversed $65 $-1 #
face $-1 $-1 $170 $37 $-1 $171 forward single #
loop $-1 $172 $173 $67 #
cone-surface $-1 70.521231216362125 11.146298579412225 10.852151785905674 -0.82903758062907751 0 -0.55919289150049634 0.13979822287512408 0 -0.20725939515726938 1 I I -0.70710678118654746 0.70710678118654746 0.25 forward I I I I #
loop $-1 $-1 $174 $48 #
coedge $-1 $108 $108 $175 $176 reversed $68 $-1 #
face $-1 $-1 $177 $38 $-1 $178 forward single #
loop $-1 $179 $180 $70 #
cone-surface $-1 70.521231216362125 13.63776801306927 10.852151785905674 -0.82903758062907751 0 -0.55919289150049634 0.13979822287512408 0 -0.20725939515726938 1 I I -0.70710678118654746 0.70710678118654746 0.25 forward I I I I #
loop $-1 $-1 $181 $49 #
coedge $-1 $113 $113 $182 $183 reversed $71 $-1 #
face $-1 $-1 $184 $39 $-1 $185 forward single #
loop $-1 $186 $187 $73 #
cone-surface $-1 70.521231216362125 16.129237446726314 10.852151785905674 -0.82903758062907751 0 -0.55919289150049634 0.13979822287512408 0 -0.20725939515726938 1 I I -0.70710678118654746 0.70710678118654746 0.25 forward I I I I #
loop $-1 $-1 $188 $50 #
coedge $-1 $118 $118 $189 $190 reversed $74 $-1 #
face $-1 $191 $192 $40 $-1 $193 reversed single #
loop $-1 $-1 $194 $76 #
plane-surface $-1 -195.54256836805348 9.4853189569741971 91.976141497078657 0 1 0 -0.82903758062907751 0 0.55919289150049634 forward_v I I I I #
coedge $-1 $195 $196 $197 $198 reversed $77 $-1 #
face $-1 $-1 $199 $41 $-1 $200 forward single #
loop $-1 $201 $202 $79 #
cone-surface $-1 -70.521231216362139 11.146298579412225 10.852151785905674 0.82903758062907751 0 -0.55919289150049634 0.13979822287512408 0 0.20725939515726938 1 I I -0.70710678118654746 0.70710678118654746 0.25 forward I I I I #
loop $-1 $-1 $203 $52 #
coedge $-1 $127 $127 $204 $205 reversed $80 $-1 #
face $-1 $-1 $206 $42 $-1 $207 forward single #
loop $-1 $208 $209 $82 #
cone-surface $-1 -70.521231216362139 13.63776801306927 10.852151785905674 0.82903758062907751 0 -0.55919289150049634 0.13979822287512408 0 0.20725939515726938 1 I I -0.70710678118654746 0.70710678118654746 0.25 forward I I I I #
loop $-1 $-1 $210 $53 #
coedge $-1 $132 $132 $211 $212 reversed $83 $-1 #
face $-1 $-1 $213 $43 $-1 $214 forward single #
loop $-1 $215 $216 $85 #
cone-surface $-1 -70.521231216362139 16.129237446726314 10.852151785905674 0.82903758062907751 0 -0.55919289150049634 0.13979822287512408 0 0.20725939515726938 1 I I -0.70710678118654746 0.70710678118654746 0.25 forward I I I I #
loop $-1 $-1 $217 $54 #
coedge $-1 $137 $137 $218 $219 reversed $86 $-1 #
face $-1 $220 $221 $33 $-1 $222 reversed single #
loop $-1 $-1 $223 $88 #
plane-surface $-1 0 -31.681178184237616 0 0 1 0 0 0 1 forward_v I I I I #
coedge $-1 $224 $225 $226 $227 forward $89 $-1 #
coedge $-1 $228 $91 $229 $230 forward $56 $-1 #
coedge $-1 $91 $228 $231 $232 forward $56 $-1 #
coedge $-1 $233 $234 $91 $145 reversed $235 $-1 #
edge $-1 $236 -31.681178184237616 $237 31.681178184237616 $144 $238 forward 7 unknown #
face $-1 $239 $240 $34 $-1 $241 reversed single #
loop $-1 $-1 $242 $92 #
plane-surface $-1 0 0 14.105748001510038 0 0 1 1 0 0 forward_v I I I I #
coedge $-1 $243 $244 $245 $246 reversed $93 $-1 #
coedge $-1 $247 $95 $248 $249 reversed $59 $-1 #
coedge $-1 $95 $247 $250 $251 reversed $59 $-1 #
coedge $-1 $244 $243 $95 $153 reversed $93 $-1 #
edge $-1 $252 -14.105748001510038 $253 14.105748001510038 $152 $254 forward 7 unknown #
face $-1 $255 $256 $35 $-1 $257 reversed single #
loop $-1 $-1 $258 $96 #
plane-surface $-1 0 0 -14.105748001510038 0 0 1 1 0 0 forward_v I I I I #
coedge $-1 $259 $260 $261 $262 forward $97 $-1 #
coedge $-1 $261 $99 $263 $264 reversed $62 $-1 #
coedge $-1 $99 $261 $265 $266 reversed $62 $-1 #
coedge $-1 $267 $268 $99 $161 forward $256 $-1 #
edge $-1 $269 -14.105748001510038 $270 14.105748001510038 $160 $271 forward 7 unknown #
face $-1 $272 $273 $36 $-1 $274 reversed single #
loop $-1 $-1 $275 $100 #
plane-surface $-1 113.26798425478241 9.4853189569741971 213.95323240305135 0 1 0 0.82903758062907751 0 0.55919289150049634 forward_v I I I I #
coedge $-1 $276 $277 $278 $279 reversed $101 $-1 #
coedge $-1 $167 $103 $280 $281 reversed $65 $-1 #
coedge $-1 $103 $166 $276 $282 reversed $65 $-1 #
coedge $-1 $278 $283 $103 $169 forward $284 $-1 #
edge $-1 $285 -16.931485334689548 $286 -13.9608213457741 $168 $287 forward 7 unknown #
loop $-1 $-1 $175 $104 #
plane-surface $-1 -8.7091066511902966 13.63776801306927 131.67864828978028 0.82903758062907751 0 0.55919289150049634 0.55919289150049634 0 -0.82903758062907751 forward_v I I I I #
loop $-1 $-1 $288 $67 #
coedge $-1 $173 $173 $174 $289 reversed $105 $-1 #
coedge $-1 $174 $174 $173 $289 forward $107 $-1 #
coedge $-1 $175 $175 $108 $176 forward $170 $-1 #
edge $-1 $290 0 $290 6.2831853071796004 $175 $291 forward 7 unknown #
loop $-1 $-1 $182 $109 #
plane-surface $-1 -8.7091066511902966 13.63776801306927 131.67864828978028 0.82903758062907751 0 0.55919289150049634 0.55919289150049634 0 -0.82903758062907751 forward_v I I I I #
loop $-1 $-1 $292 $70 #
coedge $-1 $180 $180 $181 $293 reversed $110 $-1 #
coedge $-1 $181 $181 $180 $293 forward $112 $-1 #
coedge $-1 $182 $182 $113 $183 forward $177 $-1 #
edge $-1 $294 0 $294 6.2831853071796004 $182 $295 forward 7 unknown #
loop $-1 $-1 $189 $114 #
plane-surface $-1 -8.7091066511902966 13.63776801306927 131.67864828978028 0.82903758062907751 0 0.55919289150049634 0.55919289150049634 0 -0.82903758062907751 forward_v I I I I #
loop $-1 $-1 $296 $73 #
coedge $-1 $187 $187 $188 $297 reversed $115 $-1 #
coedge $-1 $188 $188 $187 $297 forward $117 $-1 #
coedge $-1 $189 $189 $118 $190 forward $184 $-1 #
edge $-1 $298 0 $298 6.2831853071796004 $189 $299 forward 7 unknown #
face $-1 $300 $301 $40 $-1 $302 forward single #
loop $-1 $-1 $197 $119 #
plane-surface $-1 -73.56547746208075 0 0 1 0 0 0 0 -1 forward_v I I I I #
coedge $-1 $303 $304 $305 $306 reversed $120 $-1 #
coedge $-1 $307 $122 $308 $309 reversed $77 $-1 #
coedge $-1 $122 $307 $303 $310 forward $77 $-1 #
coedge $-1 $305 $311 $122 $198 forward $192 $-1 #
edge $-1 $312 -10.971333062629704 $313 -2.6664349504395624 $197 $314 forward 7 unknown #
loop $-1 $-1 $204 $123 #
plane-surface $-1 -73.565477462080779 13.63776801306927 9.7015573838075966 -0.82903758062907751 0 0.55919289150049634 0.55919289150049634 0 0.82903758062907751 forward_v I I I I #
loop $-1 $-1 $315 $79 #
coedge $-1 $202 $202 $203 $316 reversed $124 $-1 #
coedge $-1 $203 $203 $202 $316 forward $126 $-1 #
coedge $-1 $204 $204 $127 $205 forward $199 $-1 #
edge $-1 $317 0 $317 6.2831853071796004 $204 $318 forward 7 unknown #
loop $-1 $-1 $211 $128 #
plane-surface $-1 -73.565477462080779 13.63776801306927 9.7015573838075966 -0.82903758062907751 0 0.55919289150049634 0.55919289150049634 0 0.82903758062907751 forward_v I I I I #
loop $-1 $-1 $319 $82 #
coedge $-1 $209 $209 $210 $320 reversed $129 $-1 #
coedge $-1 $210 $210 $209 $320 forward $131 $-1 #
coedge $-1 $211 $211 $132 $212 forward $206 $-1 #
edge $-1 $321 0 $321 6.2831853071796004 $211 $322 forward 7 unknown #
loop $-1 $-1 $218 $133 #
plane-surface $-1 -73.565477462080779 13.63776801306927 9.7015573838075966 -0.82903758062907751 0 0.55919289150049634 0.55919289150049634 0 0.82903758062907751 forward_v I I I I #
loop $-1 $-1 $323 $85 #
coedge $-1 $216 $216 $217 $324 reversed $134 $-1 #
coedge $-1 $217 $217 $216 $324 forward $136 $-1 #
coedge $-1 $218 $218 $137 $219 forward $213 $-1 #
edge $-1 $325 0 $325 6.2831853071796004 $218 $326 forward 7 unknown #
face $-1 $327 $328 $33 $-1 $329 reversed single #
loop $-1 $-1 $330 $138 #
plane-surface $-1 -73.56547746208075 0 0 1 0 0 0 0 -1 forward_v I I I I #
coedge $-1 $331 $231 $332 $333 forward $139 $-1 #
coedge $-1 $334 $141 $331 $335 forward $89 $-1 #
coedge $-1 $141 $334 $336 $337 forward $89 $-1 #
coedge $-1 $234 $233 $141 $227 reversed $235 $-1 #
edge $-1 $338 -31.681178184237616 $339 31.681178184237616 $226 $340 forward 7 unknown #
coedge $-1 $143 $142 $341 $342 forward $56 $-1 #
coedge $-1 $343 $344 $142 $230 reversed $328 $-1 #
edge $-1 $237 -73.56547746208075 $345 73.56547746208075 $229 $346 forward 7 unknown #
coedge $-1 $223 $347 $143 $232 reversed $139 $-1 #
edge $-1 $348 -73.56547746208075 $236 73.56547746208075 $231 $349 forward 7 unknown #
coedge $-1 $226 $144 $347 $350 forward $235 $-1 #
coedge $-1 $144 $226 $343 $351 reversed $235 $-1 #
loop $-1 $-1 $233 $327 #
vertex $-1 $145 $352 #
vertex $-1 $145 $353 #
straight-curve $-1 73.56547746208075 0 14.105748001510038 0 1 0 I I #
face $-1 $354 $355 $34 $-1 $356 reversed single #
loop $-1 $-1 $357 $146 #
plane-surface $-1 -73.56547746208075 0 0 1 0 0 0 0 -1 forward_v I I I I #
coedge $-1 $250 $358 $244 $359 forward $147 $-1 #
coedge $-1 $152 $149 $360 $361 reversed $93 $-1 #
coedge $-1 $149 $152 $242 $359 reversed $93 $-1 #
coedge $-1 $362 $363 $149 $246 forward $364 $-1 #
edge $-1 $365 -14.105748001510038 $366 14.105748001510038 $245 $367 forward 7 unknown #
coedge $-1 $151 $150 $357 $368 reversed $59 $-1 #
coedge $-1 $360 $369 $150 $249 forward $355 $-1 #
edge $-1 $370 -37.750881129428876 $253 -33.878311535874872 $248 $371 forward 7 unknown #
coedge $-1 $372 $242 $151 $251 forward $147 $-1 #
edge $-1 $252 33.878311535874872 $373 37.750881129428876 $250 $374 forward 7 unknown #
vertex $-1 $251 $375 #
vertex $-1 $249 $376 #
straight-curve $-1 -69.692907868526746 -17.790217069164342 0 0 0 -1 I I #
face $-1 $377 $378 $35 $-1 $379 forward single #
loop $-1 $-1 $160 $154 #
plane-surface $-1 -73.56547746208075 0 0 1 0 0 0 0 -1 forward_v I I I I #
coedge $-1 $263 $380 $259 $381 forward $155 $-1 #
coedge $-1 $382 $157 $258 $381 reversed $97 $-1 #
coedge $-1 $157 $382 $383 $384 reversed $97 $-1 #
coedge $-1 $159 $158 $157 $262 reversed $62 $-1 #
edge $-1 $385 -14.105748001510038 $386 14.105748001510038 $157 $387 forward 7 unknown #
coedge $-1 $388 $258 $158 $264 forward $155 $-1 #
edge $-1 $386 33.878311535874872 $269 37.750881129428876 $263 $389 forward 7 unknown #
coedge $-1 $383 $390 $159 $266 forward $378 $-1 #
edge $-1 $270 -37.750881129428876 $385 -33.878311535874872 $265 $391 forward 7 unknown #
coedge $-1 $392 $160 $390 $393 reversed $256 $-1 #
coedge $-1 $160 $392 $388 $394 reversed $256 $-1 #
vertex $-1 $394 $395 #
vertex $-1 $161 $396 #
straight-curve $-1 -73.56547746208075 17.790217069164338 0 0 0 1 I I #
face $-1 $-1 $284 $36 $-1 $397 forward single #
loop $-1 $-1 $398 $162 #
plane-surface $-1 73.56547746208075 0 0 -1 0 0 0 0 1 forward_v I I I I #
coedge $-1 $399 $400 $401 $402 reversed $163 $-1 #
coedge $-1 $403 $165 $167 $282 forward $101 $-1 #
coedge $-1 $165 $403 $399 $404 forward $101 $-1 #
coedge $-1 $401 $168 $165 $279 forward $284 $-1 #
edge $-1 $286 -10.971333062629707 $405 -2.6664349504395624 $278 $406 forward 7 unknown #
coedge $-1 $407 $408 $166 $281 forward $273 $-1 #
edge $-1 $409 -97.275058817718076 $285 -92.870868200015636 $280 $410 forward 7 unknown #
edge $-1 $286 141.81854120419413 $409 147.13095492416147 $167 $411 forward 7 unknown #
coedge $-1 $168 $401 $407 $412 forward $284 $-1 #
loop $-1 $-1 $401 $272 #
vertex $-1 $281 $413 #
vertex $-1 $169 $414 #
straight-curve $-1 56.633992127391203 17.790217069164342 14.105748001510037 -1 0 0 I I #
coedge $-1 $288 $288 $-1 $415 reversed $172 $-1 #
edge $-1 $416 0 $416 6.2831853071796004 $173 $417 forward 7 unknown #
vertex $-1 $176 $418 #
ellipse-curve $-1 72.080145467623026 11.146298579412225 11.903652692658833 0.82903758062907751 0 0.55919289150049634 0.27959644575024817 0 -0.41451879031453875 1 I I #
coedge $-1 $292 $292 $-1 $419 reversed $179 $-1 #
edge $-1 $420 0 $420 6.2831853071796004 $180 $421 forward 7 unknown #
vertex $-1 $183 $422 #
ellipse-curve $-1 72.080145467623026 13.63776801306927 11.903652692658833 0.82903758062907751 0 0.55919289150049634 0.27959644575024817 0 -0.41451879031453875 1 I I #
coedge $-1 $296 $296 $-1 $423 reversed $186 $-1 #
edge $-1 $424 0 $424 6.2831853071796004 $187 $425 forward 7 unknown #
vertex $-1 $190 $426 #
ellipse-curve $-1 72.080145467623026 16.129237446726314 11.903652692658833 0.82903758062907751 0 0.55919289150049634 0.27959644575024817 0 -0.41451879031453875 1 I I #
face $-1 $-1 $427 $40 $-1 $428 forward single #
loop $-1 $-1 $429 $191 #
plane-surface $-1 0 0 14.105748001510038 0 0 1 1 0 0 forward_v I I I I #
coedge $-1 $304 $194 $196 $310 reversed $120 $-1 #
coedge $-1 $194 $303 $429 $430 reversed $120 $-1 #
coedge $-1 $431 $197 $194 $306 forward $192 $-1 #
edge $-1 $313 -36.28651336473169 $432 -31.882322747029292 $305 $433 forward 7 unknown #
coedge $-1 $196 $195 $434 $435 reversed $77 $-1 #
coedge $-1 $436 $437 $195 $309 forward $427 $-1 #
edge $-1 $438 -8.7925132037312537 $312 -3.4800994837639618 $308 $439 forward 7 unknown #
edge $-1 $440 -5.312413719967342 $313 -5.1237215713061704e-014 $303 $441 forward 7 unknown #
coedge $-1 $197 $431 $436 $442 forward $192 $-1 #
vertex $-1 $309 $443 #
vertex $-1 $198 $444 #
straight-curve $-1 -73.56547746208075 6.8188840065346348 9.7015573838076463 0 -1 0 I I #
coedge $-1 $315 $315 $-1 $445 reversed $201 $-1 #
edge $-1 $446 0 $446 6.2831853071796004 $202 $447 forward 7 unknown #
vertex $-1 $205 $448 #
ellipse-curve $-1 -72.080145467623041 11.146298579412225 11.903652692658833 -0.82903758062907751 0 0.55919289150049634 0.27959644575024817 0 0.41451879031453875 1 I I #
coedge $-1 $319 $319 $-1 $449 reversed $208 $-1 #
edge $-1 $450 0 $450 6.2831853071796004 $209 $451 forward 7 unknown #
vertex $-1 $212 $452 #
ellipse-curve $-1 -72.080145467623041 13.63776801306927 11.903652692658833 -0.82903758062907751 0 0.55919289150049634 0.27959644575024817 0 0.41451879031453875 1 I I #
coedge $-1 $323 $323 $-1 $453 reversed $215 $-1 #
edge $-1 $454 0 $454 6.2831853071796004 $216 $455 forward 7 unknown #
vertex $-1 $219 $456 #
ellipse-curve $-1 -72.080145467623041 16.129237446726314 11.903652692658833 -0.82903758062907751 0 0.55919289150049634 0.27959644575024817 0 0.41451879031453875 1 I I #
face $-1 $-1 $235 $33 $-1 $457 reversed single #
loop $-1 $-1 $343 $220 #
plane-surface $-1 0 31.681178184237616 0 0 -1 0 0 0 -1 forward_v I I I I #
coedge $-1 $458 $341 $344 $459 forward $221 $-1 #
coedge $-1 $347 $223 $224 $335 reversed $139 $-1 #
coedge $-1 $341 $458 $223 $333 reversed $221 $-1 #
edge $-1 $348 -14.105748001510038 $460 14.105748001510038 $332 $461 forward 7 unknown #
coedge $-1 $225 $224 $458 $462 forward $89 $-1 #
edge $-1 $339 -73.56547746208075 $460 73.56547746208075 $331 $463 forward 7 unknown #
coedge $-1 $344 $343 $225 $337 reversed $328 $-1 #
edge $-1 $464 -73.56547746208075 $338 73.56547746208075 $336 $465 forward 7 unknown #
vertex $-1 $227 $466 #
vertex $-1 $350 $467 #
straight-curve $-1 73.56547746208075 0 -14.105748001510038 0 -1 0 I I #
coedge $-1 $330 $332 $228 $342 reversed $221 $-1 #
edge $-1 $345 -31.681178184237616 $348 31.681178184237616 $341 $468 forward 7 unknown #
coedge $-1 $336 $229 $234 $351 forward $328 $-1 #
coedge $-1 $229 $336 $330 $459 reversed $328 $-1 #
vertex $-1 $230 $469 #
straight-curve $-1 0 31.681178184237616 14.105748001510038 -1 0 0 I I #
coedge $-1 $231 $331 $233 $350 reversed $139 $-1 #
vertex $-1 $342 $470 #
straight-curve $-1 0 -31.681178184237616 14.105748001510038 1 0 0 I I #
edge $-1 $236 -14.105748001510038 $339 14.105748001510038 $233 $471 forward 7 unknown #
edge $-1 $237 -14.105748001510038 $338 14.105748001510038 $234 $472 forward 7 unknown #
point $-1 73.56547746208075 -31.681178184237616 14.105748001510038 #
point $-1 73.56547746208075 31.681178184237616 14.105748001510038 #
face $-1 $-1 $364 $34 $-1 $473 reversed single #
loop $-1 $-1 $360 $239 #
plane-surface $-1 0 0 -14.105748001510038 0 0 1 1 0 0 forward_v I I I I #
coedge $-1 $474 $475 $247 $368 forward $240 $-1 #
coedge $-1 $242 $372 $362 $476 forward $147 $-1 #
edge $-1 $366 -19.313329370887125 $252 -5.4223682558138524 $242 $477 forward 7 unknown #
coedge $-1 $478 $248 $243 $361 forward $355 $-1 #
edge $-1 $253 5.4223682558138524 $365 19.313329370887125 $360 $479 forward 7 unknown #
coedge $-1 $480 $245 $358 $476 reversed $364 $-1 #
coedge $-1 $245 $480 $478 $481 reversed $364 $-1 #
loop $-1 $-1 $245 $354 #
vertex $-1 $481 $482 #
vertex $-1 $246 $483 #
straight-curve $-1 -69.692907868526746 -31.681178184237616 0 0 0 1 I I #
edge $-1 $373 -14.105748001510038 $370 14.105748001510038 $357 $484 forward 7 unknown #
coedge $-1 $248 $478 $474 $485 forward $355 $-1 #
vertex $-1 $249 $486 #
straight-curve $-1 -35.814596332651874 -17.790217069164342 -14.105748001510038 1 0 0 I I #
coedge $-1 $358 $250 $475 $487 forward $147 $-1 #
vertex $-1 $487 $488 #
straight-curve $-1 -35.814596332651874 -17.790217069164342 14.105748001510038 -1 0 0 I I #
point $-1 -69.692907868526746 -17.790217069164342 14.105748001510038 #
point $-1 -69.692907868526746 -17.790217069164342 -14.105748001510038 #
face $-1 $-1 $489 $35 $-1 $490 reversed single #
loop $-1 $-1 $383 $255 #
plane-surface $-1 0 0 14.105748001510038 0 0 1 1 0 0 forward_v I I I I #
coedge $-1 $258 $388 $491 $492 forward $155 $-1 #
edge $-1 $493 -19.313329370887125 $386 -5.4223682558138506 $258 $494 forward 7 unknown #
coedge $-1 $260 $259 $495 $496 reversed $97 $-1 #
coedge $-1 $497 $265 $260 $384 forward $378 $-1 #
edge $-1 $385 5.4223682558138506 $498 19.313329370887125 $383 $499 forward 7 unknown #
vertex $-1 $266 $500 #
vertex $-1 $264 $501 #
straight-curve $-1 -69.692907868526746 17.790217069164338 0 0 0 -1 I I #
coedge $-1 $380 $263 $268 $394 forward $155 $-1 #
straight-curve $-1 -35.814596332651874 17.790217069164338 -14.105748001510038 -1 0 0 I I #
coedge $-1 $265 $497 $267 $393 forward $378 $-1 #
straight-curve $-1 -35.814596332651874 17.790217069164338 14.105748001510038 1 0 0 I I #
coedge $-1 $268 $267 $502 $503 forward $256 $-1 #
edge $-1 $504 -31.681178184237616 $270 -17.790217069164338 $267 $505 forward 7 unknown #
edge $-1 $269 17.790217069164338 $506 31.681178184237616 $268 $507 forward 7 unknown #
point $-1 -73.56547746208075 17.790217069164338 -14.105748001510038 #
point $-1 -73.56547746208075 17.790217069164338 14.105748001510038 #
plane-surface $-1 0 0 14.105748001510038 0 0 1 1 0 0 forward_v I I I I #
coedge $-1 $408 $407 $400 $508 forward $273 $-1 #
coedge $-1 $400 $275 $277 $404 reversed $163 $-1 #
coedge $-1 $275 $399 $398 $508 reversed $163 $-1 #
coedge $-1 $283 $278 $275 $402 forward $284 $-1 #
edge $-1 $405 13.9608213457741 $509 16.931485334689548 $401 $510 forward 7 unknown #
coedge $-1 $277 $276 $408 $511 reversed $101 $-1 #
edge $-1 $512 -147.13095492416147 $405 -141.81854120419413 $399 $513 forward 7 unknown #
vertex $-1 $279 $514 #
straight-curve $-1 70.594813473165317 6.8188840065346348 14.105748001510037 0 -1 0 I I #
coedge $-1 $398 $280 $283 $412 reversed $273 $-1 #
coedge $-1 $280 $398 $403 $511 forward $273 $-1 #
vertex $-1 $281 $515 #
straight-curve $-1 73.56547746208075 17.790217069164342 106.97661620152567 0 0 1 I I #
straight-curve $-1 -8.7091066511902966 17.790217069164342 131.67864828978028 0.55919289150049634 0 -0.82903758062907751 I I #
edge $-1 $509 9.4853189569741971 $285 17.790217069164342 $407 $516 forward 7 unknown #
point $-1 73.56547746208075 17.790217069164342 14.105748001510038 #
point $-1 70.594813473165303 17.790217069164342 14.105748001510037 #
edge $-1 $517 1 $517 0 $288 $-1 forward 7 unknown #
vertex $-1 $289 $518 #
ellipse-curve $-1 70.728490611519391 11.146298579412225 10.991950008780798 0.82903758062907751 0 0.55919289150049634 0.27959644575024817 0 -0.41451879031453875 1 I I #
point $-1 72.359741913373256 11.146298579412225 11.489133902344276 #
edge $-1 $519 1 $519 0 $292 $-1 forward 7 unknown #
vertex $-1 $293 $520 #
ellipse-curve $-1 70.728490611519391 13.63776801306927 10.991950008780798 0.82903758062907751 0 0.55919289150049634 0.27959644575024817 0 -0.41451879031453875 1 I I #
point $-1 72.359741913373256 13.63776801306927 11.489133902344276 #
edge $-1 $521 1 $521 0 $296 $-1 forward 7 unknown #
vertex $-1 $297 $522 #
ellipse-curve $-1 70.728490611519391 16.129237446726314 10.991950008780798 0.82903758062907751 0 0.55919289150049634 0.27959644575024817 0 -0.41451879031453875 1 I I #
point $-1 72.359741913373256 16.129237446726314 11.489133902344276 #
loop $-1 $-1 $308 $300 #
plane-surface $-1 -71.629192665303748 17.790217069164338 0 0 1 0 0 0 1 forward_v I I I I #
coedge $-1 $434 $523 $304 $430 forward $301 $-1 #
edge $-1 $432 24.20580672194599 $440 27.176470710861409 $429 $524 forward 7 unknown #
coedge $-1 $311 $305 $523 $525 reversed $192 $-1 #
vertex $-1 $306 $526 #
straight-curve $-1 -73.56547746208075 9.4853189569741971 45.988070748539329 0 0 1 I I #
coedge $-1 $527 $429 $307 $435 forward $301 $-1 #
edge $-1 $440 2.6664349504395624 $438 10.971333062629707 $434 $528 forward 7 unknown #
coedge $-1 $437 $308 $311 $442 reversed $427 $-1 #
coedge $-1 $308 $436 $527 $529 reversed $427 $-1 #
vertex $-1 $529 $530 #
straight-curve $-1 -75.511524355116109 17.790217069164338 6.8164241274394657 -0.55919289150049634 0 -0.82903758062907751 I I #
vertex $-1 $435 $531 #
straight-curve $-1 -73.565477462080779 9.4853189569741971 9.7015573838075966 -0.55919289150049634 0 -0.82903758062907751 I I #
edge $-1 $532 -14.105748001510038 $312 -9.7015573838076392 $311 $533 forward 7 unknown #
point $-1 -73.56547746208075 17.790217069164338 9.7015573838076392 #
point $-1 -73.56547746208075 9.4853189569741971 9.7015573838076392 #
edge $-1 $534 1 $534 0 $315 $-1 forward 7 unknown #
vertex $-1 $316 $535 #
ellipse-curve $-1 -70.728490611519405 11.146298579412225 10.991950008780798 -0.82903758062907751 0 0.55919289150049634 0.27959644575024817 0 0.41451879031453875 1 I I #
point $-1 -71.800549021872769 11.146298579412225 12.318171482973353 #
edge $-1 $536 1 $536 0 $319 $-1 forward 7 unknown #
vertex $-1 $320 $537 #
ellipse-curve $-1 -70.728490611519405 13.63776801306927 10.991950008780798 -0.82903758062907751 0 0.55919289150049634 0.27959644575024817 0 0.41451879031453875 1 I I #
point $-1 -71.800549021872769 13.63776801306927 12.318171482973353 #
edge $-1 $538 1 $538 0 $323 $-1 forward 7 unknown #
vertex $-1 $324 $539 #
ellipse-curve $-1 -70.728490611519405 16.129237446726314 10.991950008780798 -0.82903758062907751 0 0.55919289150049634 0.27959644575024817 0 0.41451879031453875 1 I I #
point $-1 -71.800549021872769 16.129237446726314 12.318171482973353 #
plane-surface $-1 73.56547746208075 0 0 -1 0 0 0 0 1 forward_v I I I I #
coedge $-1 $332 $330 $334 $462 reversed $221 $-1 #
edge $-1 $345 -14.105748001510038 $464 14.105748001510038 $344 $540 forward 7 unknown #
vertex $-1 $462 $541 #
straight-curve $-1 -73.56547746208075 -31.681178184237616 0 0 0 -1 I I #
edge $-1 $460 -31.681178184237616 $464 31.681178184237616 $458 $542 forward 7 unknown #
straight-curve $-1 0 -31.681178184237616 -14.105748001510038 -1 0 0 I I #
vertex $-1 $337 $543 #
straight-curve $-1 0 31.681178184237616 -14.105748001510038 1 0 0 I I #
point $-1 73.56547746208075 31.681178184237616 -14.105748001510038 #
point $-1 73.56547746208075 -31.681178184237616 -14.105748001510038 #
straight-curve $-1 -73.56547746208075 0 14.105748001510038 0 -1 0 I I #
point $-1 -73.56547746208075 31.681178184237616 14.105748001510038 #
point $-1 -73.56547746208075 -31.681178184237616 14.105748001510038 #
straight-curve $-1 73.56547746208075 -31.681178184237616 0 0 0 -1 I I #
straight-curve $-1 73.56547746208075 31.681178184237616 0 0 0 -1 I I #
plane-surface $-1 0 -31.681178184237616 0 0 1 0 0 0 1 forward_v I I I I #
coedge $-1 $544 $357 $369 $485 reversed $240 $-1 #
coedge $-1 $357 $544 $372 $487 reversed $240 $-1 #
edge $-1 $545 -73.56547746208075 $366 -69.692907868526746 $362 $546 forward 7 unknown #
straight-curve $-1 -69.692907868526746 -12.36784881335049 14.105748001510038 0 1 0 I I #
coedge $-1 $369 $360 $363 $481 forward $355 $-1 #
straight-curve $-1 -69.692907868526746 -12.36784881335049 -14.105748001510038 0 -1 0 I I #
coedge $-1 $363 $362 $544 $547 forward $364 $-1 #
edge $-1 $365 69.692907868526746 $548 73.56547746208075 $363 $549 forward 7 unknown #
point $-1 -69.692907868526746 -31.681178184237616 -14.105748001510038 #
point $-1 -69.692907868526746 -31.681178184237616 14.105748001510038 #
straight-curve $-1 -73.56547746208075 -17.790217069164342 0 0 0 -1 I I #
edge $-1 $548 -31.681178184237616 $370 -17.790217069164342 $474 $550 forward 7 unknown #
point $-1 -73.56547746208075 -17.790217069164342 -14.105748001510038 #
edge $-1 $373 17.790217069164342 $545 31.681178184237616 $475 $551 forward 7 unknown #
point $-1 -73.56547746208075 -17.790217069164342 14.105748001510038 #
loop $-1 $-1 $495 $377 #
plane-surface $-1 0 31.681178184237616 0 0 -1 0 0 0 -1 forward_v I I I I #
coedge $-1 $502 $495 $380 $492 reversed $489 $-1 #
edge $-1 $506 -73.56547746208075 $493 -69.692907868526746 $491 $552 forward 7 unknown #
vertex $-1 $381 $553 #
straight-curve $-1 -69.692907868526746 12.367848813350488 -14.105748001510038 0 -1 0 I I #
coedge $-1 $491 $554 $382 $496 forward $489 $-1 #
edge $-1 $498 -14.105748001510038 $493 14.105748001510038 $495 $555 forward 7 unknown #
coedge $-1 $390 $383 $554 $556 forward $378 $-1 #
vertex $-1 $556 $557 #
straight-curve $-1 -69.692907868526746 12.367848813350488 14.105748001510038 0 1 0 I I #
point $-1 -69.692907868526746 17.790217069164338 14.105748001510038 #
point $-1 -69.692907868526746 17.790217069164338 -14.105748001510038 #
coedge $-1 $554 $491 $392 $503 reversed $489 $-1 #
edge $-1 $504 -14.105748001510038 $506 14.105748001510038 $502 $558 forward 7 unknown #
vertex $-1 $556 $559 #
straight-curve $-1 -73.56547746208075 0 14.105748001510038 0 -1 0 I I #
vertex $-1 $492 $560 #
straight-curve $-1 -73.56547746208075 0 -14.105748001510038 0 1 0 I I #
edge $-1 $509 92.870868200015636 $512 97.275058817718076 $398 $561 forward 7 unknown #
vertex $-1 $412 $562 #
straight-curve $-1 56.633992127391203 9.4853189569741971 14.105748001510037 1 0 0 I I #
edge $-1 $512 2.6664349504395624 $409 10.971333062629707 $408 $563 forward 7 unknown #
vertex $-1 $511 $564 #
straight-curve $-1 -8.7091066511902966 9.4853189569741971 131.67864828978028 -0.55919289150049634 0 0.82903758062907751 I I #
point $-1 70.594813473165303 9.4853189569741971 14.105748001510037 #
point $-1 73.56547746208075 17.790217069164342 9.7015573838075966 #
straight-curve $-1 73.56547746208075 0 14.105748001510038 0 1 0 I I #
vertex $-1 $415 $565 #
point $-1 71.008087057269648 11.146298579412225 10.577431218466259 #
vertex $-1 $419 $566 #
point $-1 71.008087057269648 13.63776801306927 10.577431218466259 #
vertex $-1 $423 $567 #
point $-1 71.008087057269648 16.129237446726314 10.577431218466259 #
coedge $-1 $429 $527 $431 $525 forward $301 $-1 #
straight-curve $-1 -97.77128418402674 9.4853189569741971 14.105748001510037 1 0 0 I I #
edge $-1 $532 -17.790217069164338 $432 -9.4853189569741971 $431 $568 forward 7 unknown #
point $-1 -73.56547746208075 9.4853189569741971 14.105748001510038 #
coedge $-1 $523 $434 $437 $529 forward $301 $-1 #
straight-curve $-1 -70.594813473165331 6.8188840065346348 14.105748001510038 0 1 0 I I #
edge $-1 $438 34.780217140513457 $532 37.750881129428876 $527 $569 forward 7 unknown #
point $-1 -70.594813473165331 17.790217069164342 14.105748001510038 #
point $-1 -70.594813473165331 9.4853189569741971 14.105748001510038 #
vertex $-1 $525 $570 #
straight-curve $-1 -73.56547746208075 17.790217069164338 0 0 0 -1 I I #
vertex $-1 $445 $571 #
point $-1 -70.448894165769161 11.146298579412225 11.406468799095336 #
vertex $-1 $449 $572 #
point $-1 -70.448894165769161 13.63776801306927 11.406468799095336 #
vertex $-1 $453 $573 #
point $-1 -70.448894165769161 16.129237446726314 11.406468799095336 #
straight-curve $-1 -73.56547746208075 31.681178184237616 0 0 0 -1 I I #
point $-1 -73.56547746208075 -31.681178184237616 -14.105748001510038 #
straight-curve $-1 -73.56547746208075 0 -14.105748001510038 0 1 0 I I #
point $-1 -73.56547746208075 31.681178184237616 -14.105748001510038 #
coedge $-1 $475 $474 $480 $547 reversed $240 $-1 #
vertex $-1 $487 $574 #
straight-curve $-1 0 -31.681178184237616 14.105748001510038 1 0 0 I I #
edge $-1 $545 -14.105748001510038 $548 14.105748001510038 $544 $575 forward 7 unknown #
vertex $-1 $485 $576 #
straight-curve $-1 0 -31.681178184237616 -14.105748001510038 -1 0 0 I I #
straight-curve $-1 -73.56547746208075 0 -14.105748001510038 0 1 0 I I #
straight-curve $-1 -73.56547746208075 0 14.105748001510038 0 -1 0 I I #
straight-curve $-1 0 31.681178184237616 -14.105748001510038 1 0 0 I I #
point $-1 -69.692907868526746 31.681178184237613 -14.105748001510038 #
coedge $-1 $495 $502 $497 $556 reversed $489 $-1 #
straight-curve $-1 -69.692907868526746 31.681178184237616 0 0 0 -1 I I #
edge $-1 $498 69.692907868526746 $504 73.56547746208075 $554 $577 forward 7 unknown #
point $-1 -69.692907868526746 31.681178184237613 14.105748001510038 #
straight-curve $-1 -73.56547746208075 31.681178184237616 0 0 0 -1 I I #
point $-1 -73.56547746208075 31.681178184237616 14.105748001510038 #
point $-1 -73.56547746208075 31.681178184237616 -14.105748001510038 #
straight-curve $-1 73.56547746208075 9.4853189569741971 106.97661620152567 0 0 -1 I I #
point $-1 73.56547746208075 9.4853189569741971 14.105748001510038 #
straight-curve $-1 73.565477462080764 6.8188840065346348 9.7015573838075753 0 1 0 I I #
point $-1 73.56547746208075 9.4853189569741971 9.7015573838075966 #
point $-1 70.313971821204859 11.146298579412225 10.71235356303055 #
point $-1 70.313971821204859 13.63776801306927 10.71235356303055 #
point $-1 70.313971821204859 16.129237446726314 10.71235356303055 #
straight-curve $-1 -73.56547746208075 0 14.105748001510038 0 -1 0 I I #
straight-curve $-1 -35.814596332651874 17.790217069164338 14.105748001510038 -1 0 0 I I #
point $-1 -73.56547746208075 17.790217069164338 14.105748001510038 #
point $-1 -70.313971821204873 11.146298579412225 10.71235356303055 #
point $-1 -70.313971821204873 13.63776801306927 10.71235356303055 #
point $-1 -70.313971821204873 16.129237446726314 10.71235356303055 #
point $-1 -73.56547746208075 -31.681178184237616 14.105748001510038 #
straight-curve $-1 -73.56547746208075 -31.681178184237616 0 0 0 -1 I I #
point $-1 -73.56547746208075 -31.681178184237616 -14.105748001510038 #
straight-curve $-1 0 31.681178184237616 14.105748001510038 -1 0 0 I I #
End-of-ACIS-data 