500 0 6 0           
7 Unknown 11 ACIS 5.0 NT 24 Thu Mar 25 21:55:04 1999 
-1 9.9999999999999995e-007 1e-010 
body $-1 $6 $-1 $7 #
body $-1 $8 $-1 $9 #
body $-1 $10 $-1 $11 #
body $-1 $12 $-1 $13 #
body $-1 $14 $-1 $15 #
body $-1 $16 $-1 $17 #
lump $-1 $-1 $18 $0 #
transform $-1 1 0 0 0 1 0 0 0 1 69.695730460524317 47.29129802362619 15.731677528834737 1 rotate no_reflect no_shear #
lump $-1 $-1 $19 $1 #
transform $-1 1 0 0 0 1 0 0 0 1 69.695730460524317 47.29129802362619 15.731677528834737 1 rotate no_reflect no_shear #
lump $-1 $-1 $20 $2 #
transform $-1 1 0 0 0 1 0 0 0 1 69.695730460524317 47.29129802362619 15.731677528834737 1 rotate no_reflect no_shear #
lump $-1 $-1 $21 $3 #
transform $-1 1 0 0 0 1 0 0 0 1 69.695730460524317 47.29129802362619 15.731677528834737 1 rotate no_reflect no_shear #
lump $-1 $-1 $22 $4 #
transform $-1 1 0 0 0 1 0 0 0 1 69.695730460524317 47.29129802362619 15.731677528834737 1 rotate no_reflect no_shear #
lump $-1 $-1 $23 $5 #
transform $-1 1 0 0 0 1 0 0 0 1 69.695730460524317 47.29129802362619 15.731677528834737 1 rotate no_reflect no_shear #
shell $-1 $-1 $-1 $24 $-1 $6 #
shell $-1 $-1 $-1 $25 $-1 $8 #
shell $-1 $-1 $-1 $26 $-1 $10 #
shell $-1 $-1 $-1 $27 $-1 $12 #
shell $-1 $-1 $-1 $28 $-1 $14 #
shell $-1 $-1 $-1 $29 $-1 $16 #
face $-1 $30 $31 $18 $-1 $32 forward single #
face $-1 $33 $34 $19 $-1 $35 reversed single #
face $-1 $36 $37 $20 $-1 $38 reversed single #
face $-1 $39 $40 $21 $-1 $41 reversed single #
face $-1 $42 $43 $22 $-1 $44 forward single #
face $-1 $45 $46 $23 $-1 $47 forward single #
face $-1 $48 $49 $18 $-1 $50 reversed single #
loop $-1 $-1 $51 $24 #
plane-surface $-1 0 0 15.731677528834737 0 0 1 1 0 0 forward_v I I I I #
face $-1 $52 $53 $19 $-1 $54 reversed single #
loop $-1 $-1 $55 $25 #
plane-surface $-1 -62.635531033259753 0 10.916488875381717 0 0 1 1 0 0 forward_v I I I I #
face $-1 $56 $57 $20 $-1 $58 reversed single #
loop $-1 $-1 $59 $26 #
plane-surface $-1 62.635531033259753 0 10.916488875381717 0 0 1 1 0 0 forward_v I I I I #
face $-1 $60 $61 $21 $-1 $62 reversed single #
loop $-1 $-1 $63 $27 #
plane-surface $-1 -42.460421738037851 -21.882032989121228 75.455343589729111 0 0.68199836817093118 0.7313536940579346 1 0 0 forward_v I I I I #
face $-1 $64 $65 $22 $-1 $66 forward single #
loop $-1 $67 $68 $28 #
cone-surface $-1 -48.081097395733849 43.617070982500884 12.150104034249351 0 -0.68199836817093118 -0.7313536940579346 1 0 0 1 I I 0 1 1 forward I I I I #
face $-1 $69 $70 $23 $-1 $71 forward single #
loop $-1 $72 $73 $29 #
cone-surface $-1 -36.839746080341854 43.617070982500884 12.150104034249351 0 -0.68199836817093118 -0.7313536940579346 1 0 0 1 I I 0 1 1 forward I I I I #
face $-1 $74 $75 $18 $-1 $76 reversed single #
loop $-1 $-1 $77 $30 #
plane-surface $-1 0 0 -15.731677528834737 0 0 1 1 0 0 forward_v I I I I #
coedge $-1 $78 $79 $80 $81 forward $31 $-1 #
face $-1 $82 $83 $19 $-1 $84 reversed single #
loop $-1 $-1 $85 $33 #
plane-surface $-1 -55.575331605995189 0 13.324083202108227 -1 0 0 0 0 1 forward_v I I I I #
coedge $-1 $86 $87 $88 $89 forward $34 $-1 #
face $-1 $90 $91 $20 $-1 $92 forward single #
loop $-1 $-1 $93 $36 #
plane-surface $-1 55.575331605995189 0 13.324083202108227 1 0 0 0 0 -1 forward_v I I I I #
coedge $-1 $94 $95 $96 $97 reversed $37 $-1 #
face $-1 $98 $99 $21 $-1 $100 reversed single #
loop $-1 $-1 $101 $39 #
plane-surface $-1 -29.345511870080525 73.182715895996068 177.39980345447026 -1 0 0 0 0.68199836817093118 0.7313536940579346 forward_v I I I I #
coedge $-1 $102 $103 $104 $105 reversed $40 $-1 #
face $-1 $-1 $106 $22 $-1 $107 forward single #
loop $-1 $108 $109 $42 #
cone-surface $-1 -48.081097395733849 42.165615609632816 10.593608742986063 0 -0.68199836817093118 -0.7313536940579346 0.5 0 0 1 I I -0.70710678118654746 0.70710678118654746 0.5 forward I I I I #
loop $-1 $-1 $110 $28 #
coedge $-1 $68 $68 $111 $112 reversed $43 $-1 #
face $-1 $-1 $113 $23 $-1 $114 forward single #
loop $-1 $115 $116 $45 #
cone-surface $-1 -36.839746080341854 42.165615609632816 10.593608742986063 0 -0.68199836817093118 -0.7313536940579346 0.5 0 0 1 I I -0.70710678118654746 0.70710678118654746 0.5 forward I I I I #
loop $-1 $-1 $117 $29 #
coedge $-1 $73 $73 $118 $119 reversed $46 $-1 #
face $-1 $120 $121 $18 $-1 $122 reversed single #
loop $-1 $-1 $123 $48 #
plane-surface $-1 0 -47.29129802362619 0 0 1 0 0 0 1 forward_v I I I I #
coedge $-1 $124 $125 $126 $127 forward $49 $-1 #
coedge $-1 $128 $51 $129 $130 forward $31 $-1 #
coedge $-1 $51 $128 $131 $132 forward $31 $-1 #
coedge $-1 $133 $134 $51 $81 reversed $135 $-1 #
edge $-1 $136 -47.29129802362619 $137 47.29129802362619 $80 $138 forward 7 unknown #
face $-1 $139 $140 $19 $-1 $141 reversed single #
loop $-1 $-1 $142 $52 #
plane-surface $-1 0 47.29129802362619 0 0 -1 0 0 0 -1 forward_v I I I I #
coedge $-1 $88 $143 $144 $145 reversed $53 $-1 #
coedge $-1 $146 $55 $147 $148 reversed $34 $-1 #
coedge $-1 $55 $146 $149 $150 reversed $34 $-1 #
coedge $-1 $151 $85 $55 $89 reversed $53 $-1 #
edge $-1 $152 -47.29129802362619 $153 47.29129802362619 $88 $154 forward 7 unknown #
face $-1 $155 $156 $20 $-1 $157 reversed single #
loop $-1 $-1 $158 $56 #
plane-surface $-1 0 0 15.731677528834737 0 0 1 1 0 0 forward_v I I I I #
coedge $-1 $159 $160 $161 $162 reversed $57 $-1 #
coedge $-1 $163 $59 $164 $165 reversed $37 $-1 #
coedge $-1 $59 $163 $166 $167 reversed $37 $-1 #
coedge $-1 $168 $169 $59 $97 forward $170 $-1 #
edge $-1 $171 -47.29129802362619 $172 47.29129802362619 $96 $173 forward 7 unknown #
face $-1 $174 $175 $21 $-1 $176 forward single #
loop $-1 $-1 $177 $60 #
plane-surface $-1 0 47.29129802362619 0 0 -1 0 0 0 -1 forward_v I I I I #
coedge $-1 $178 $179 $180 $181 reversed $61 $-1 #
coedge $-1 $182 $63 $183 $184 reversed $40 $-1 #
coedge $-1 $63 $182 $178 $185 forward $40 $-1 #
coedge $-1 $180 $186 $63 $105 forward $175 $-1 #
edge $-1 $187 -34.345120736976249 $188 -8.1153010010615994 $104 $189 forward 7 unknown #
loop $-1 $-1 $111 $64 #
plane-surface $-1 -42.460421738037851 -21.882032989121228 75.455343589729111 0 0.68199836817093118 0.7313536940579346 1 0 0 forward_v I I I I #
loop $-1 $-1 $190 $42 #
coedge $-1 $109 $109 $110 $191 reversed $65 $-1 #
coedge $-1 $110 $110 $109 $191 forward $67 $-1 #
coedge $-1 $111 $111 $68 $112 forward $106 $-1 #
edge $-1 $192 1.3708728831180057e-015 $192 6.2831853071796022 $111 $193 forward 7 unknown #
loop $-1 $-1 $118 $69 #
plane-surface $-1 -42.460421738037851 -21.882032989121228 75.455343589729111 0 0.68199836817093118 0.7313536940579346 1 0 0 forward_v I I I I #
loop $-1 $-1 $194 $45 #
coedge $-1 $116 $116 $117 $195 reversed $70 $-1 #
coedge $-1 $117 $117 $116 $195 forward $72 $-1 #
coedge $-1 $118 $118 $73 $119 forward $113 $-1 #
edge $-1 $196 1.3708728831180057e-015 $196 6.2831853071796022 $118 $197 forward 7 unknown #
face $-1 $198 $199 $18 $-1 $200 reversed single #
loop $-1 $-1 $201 $74 #
plane-surface $-1 -69.695730460524317 0 0 1 0 0 0 0 -1 forward_v I I I I #
coedge $-1 $202 $131 $203 $204 forward $75 $-1 #
coedge $-1 $205 $77 $202 $206 forward $49 $-1 #
coedge $-1 $77 $205 $207 $208 forward $49 $-1 #
coedge $-1 $134 $133 $77 $127 reversed $135 $-1 #
edge $-1 $209 -47.29129802362619 $210 47.29129802362619 $126 $211 forward 7 unknown #
coedge $-1 $79 $78 $212 $213 forward $31 $-1 #
coedge $-1 $214 $215 $78 $130 reversed $199 $-1 #
edge $-1 $137 -69.695730460524317 $216 69.695730460524317 $129 $217 forward 7 unknown #
coedge $-1 $123 $218 $79 $132 reversed $75 $-1 #
edge $-1 $219 -69.695730460524317 $136 69.695730460524317 $131 $220 forward 7 unknown #
coedge $-1 $126 $80 $218 $221 forward $135 $-1 #
coedge $-1 $80 $126 $214 $222 reversed $135 $-1 #
loop $-1 $-1 $133 $198 #
vertex $-1 $81 $223 #
vertex $-1 $81 $224 #
straight-curve $-1 69.695730460524317 0 15.731677528834737 0 1 0 I I #
face $-1 $225 $226 $19 $-1 $227 forward single #
loop $-1 $-1 $228 $82 #
plane-surface $-1 -69.695730460524317 0 0 1 0 0 0 0 -1 forward_v I I I I #
coedge $-1 $149 $229 $151 $230 forward $83 $-1 #
coedge $-1 $85 $151 $231 $232 reversed $53 $-1 #
coedge $-1 $233 $147 $85 $145 forward $234 $-1 #
edge $-1 $153 4.2544472743276032 $235 9.0696359277806238 $144 $236 forward 7 unknown #
coedge $-1 $87 $86 $228 $237 reversed $34 $-1 #
coedge $-1 $144 $238 $86 $148 forward $234 $-1 #
edge $-1 $239 -38.37796494389444 $153 -24.257566089365312 $147 $240 forward 7 unknown #
coedge $-1 $241 $142 $87 $150 forward $83 $-1 #
edge $-1 $152 24.257566089365312 $242 38.37796494389444 $149 $243 forward 7 unknown #
coedge $-1 $143 $88 $142 $230 reversed $53 $-1 #
vertex $-1 $150 $244 #
vertex $-1 $148 $245 #
straight-curve $-1 -55.575331605995189 0 10.916488875381717 0 -1 0 I I #
face $-1 $246 $247 $20 $-1 $248 reversed single #
loop $-1 $-1 $249 $90 #
plane-surface $-1 0 -47.29129802362619 0 0 1 0 0 0 1 forward_v I I I I #
coedge $-1 $250 $251 $160 $252 forward $91 $-1 #
coedge $-1 $253 $93 $163 $254 reversed $57 $-1 #
coedge $-1 $93 $253 $158 $252 reversed $57 $-1 #
coedge $-1 $255 $166 $93 $162 forward $247 $-1 #
edge $-1 $256 4.2544472743276032 $257 9.0696359277806238 $161 $258 forward 7 unknown #
coedge $-1 $95 $94 $159 $254 forward $37 $-1 #
coedge $-1 $259 $249 $94 $165 forward $156 $-1 #
edge $-1 $260 24.257566089365312 $171 38.37796494389444 $164 $261 forward 7 unknown #
coedge $-1 $161 $262 $95 $167 forward $247 $-1 #
edge $-1 $172 -38.37796494389444 $256 -24.257566089365312 $166 $263 forward 7 unknown #
coedge $-1 $264 $96 $262 $265 reversed $170 $-1 #
coedge $-1 $96 $264 $259 $266 forward $170 $-1 #
loop $-1 $-1 $96 $246 #
vertex $-1 $165 $267 #
vertex $-1 $97 $268 #
straight-curve $-1 69.695730460524317 0 10.916488875381717 0 1 0 I I #
face $-1 $-1 $269 $21 $-1 $270 forward single #
loop $-1 $-1 $180 $98 #
plane-surface $-1 0 0 15.731677528834737 0 0 1 1 0 0 forward_v I I I I #
coedge $-1 $271 $272 $179 $273 forward $99 $-1 #
coedge $-1 $179 $101 $103 $185 reversed $61 $-1 #
coedge $-1 $101 $178 $177 $273 reversed $61 $-1 #
coedge $-1 $274 $104 $101 $181 forward $175 $-1 #
edge $-1 $188 5.5723983709427927 $275 10.699940075628156 $180 $276 forward 7 unknown #
coedge $-1 $103 $102 $271 $277 reversed $40 $-1 #
coedge $-1 $278 $279 $102 $184 forward $269 $-1 #
edge $-1 $280 -65.394134118826315 $187 -58.383105465596913 $183 $281 forward 7 unknown #
edge $-1 $282 -94.582596047252352 $188 -87.571567394022935 $178 $283 forward 7 unknown #
coedge $-1 $104 $274 $278 $284 forward $175 $-1 #
vertex $-1 $184 $285 #
vertex $-1 $105 $286 #
straight-curve $-1 -21.230210869018926 42.163756318940841 15.731677528834737 1 0 0 I I #
coedge $-1 $190 $190 $-1 $287 reversed $108 $-1 #
edge $-1 $288 0 $288 6.2831853071796004 $109 $289 forward 7 unknown #
vertex $-1 $112 $290 #
ellipse-curve $-1 -48.081097395733849 44.727527171283512 13.340922478483694 0 0.68199836817093118 0.7313536940579346 1 0 0 1 I I #
coedge $-1 $194 $194 $-1 $291 reversed $115 $-1 #
edge $-1 $292 0 $292 6.2831853071796004 $116 $293 forward 7 unknown #
vertex $-1 $119 $294 #
ellipse-curve $-1 -36.839746080341854 44.727527171283512 13.340922478483694 0 0.68199836817093118 0.7313536940579346 1 0 0 1 I I #
face $-1 $-1 $135 $18 $-1 $295 reversed single #
loop $-1 $-1 $214 $120 #
plane-surface $-1 0 47.29129802362619 0 0 -1 0 0 0 -1 forward_v I I I I #
coedge $-1 $296 $212 $215 $297 forward $121 $-1 #
coedge $-1 $218 $123 $124 $206 reversed $75 $-1 #
coedge $-1 $212 $296 $123 $204 reversed $121 $-1 #
edge $-1 $219 -15.731677528834737 $298 15.731677528834737 $203 $299 forward 7 unknown #
coedge $-1 $125 $124 $296 $300 forward $49 $-1 #
edge $-1 $210 -69.695730460524317 $298 69.695730460524317 $202 $301 forward 7 unknown #
coedge $-1 $215 $214 $125 $208 reversed $199 $-1 #
edge $-1 $302 -69.695730460524317 $209 69.695730460524317 $207 $303 forward 7 unknown #
vertex $-1 $127 $304 #
vertex $-1 $221 $305 #
straight-curve $-1 69.695730460524317 0 -15.731677528834737 0 -1 0 I I #
coedge $-1 $201 $203 $128 $213 reversed $121 $-1 #
edge $-1 $216 -47.29129802362619 $219 47.29129802362619 $212 $306 forward 7 unknown #
coedge $-1 $207 $129 $134 $222 forward $199 $-1 #
coedge $-1 $129 $207 $201 $297 reversed $199 $-1 #
vertex $-1 $130 $307 #
straight-curve $-1 0 47.29129802362619 15.731677528834737 -1 0 0 I I #
coedge $-1 $131 $202 $133 $221 reversed $75 $-1 #
vertex $-1 $213 $308 #
straight-curve $-1 0 -47.29129802362619 15.731677528834737 1 0 0 I I #
edge $-1 $136 -15.731677528834737 $210 15.731677528834737 $133 $309 forward 7 unknown #
edge $-1 $137 -15.731677528834737 $209 15.731677528834737 $134 $310 forward 7 unknown #
point $-1 69.695730460524317 -47.29129802362619 15.731677528834737 #
point $-1 69.695730460524317 47.29129802362619 15.731677528834737 #
face $-1 $-1 $234 $19 $-1 $311 reversed single #
loop $-1 $-1 $231 $139 #
plane-surface $-1 0 0 15.731677528834737 0 0 1 1 0 0 forward_v I I I I #
coedge $-1 $312 $313 $146 $237 forward $140 $-1 #
coedge $-1 $142 $241 $314 $315 reversed $83 $-1 #
edge $-1 $316 -9.0696359277806238 $152 -4.2544472743276032 $142 $317 forward 7 unknown #
coedge $-1 $314 $318 $143 $232 forward $226 $-1 #
edge $-1 $235 -47.29129802362619 $316 47.29129802362619 $231 $319 forward 7 unknown #
coedge $-1 $238 $144 $318 $320 reversed $234 $-1 #
loop $-1 $-1 $144 $225 #
vertex $-1 $145 $321 #
straight-curve $-1 -55.575331605995189 -47.29129802362619 6.6620416010541135 0 0 1 I I #
edge $-1 $242 -47.29129802362619 $239 47.29129802362619 $228 $322 forward 7 unknown #
coedge $-1 $147 $233 $312 $323 forward $234 $-1 #
vertex $-1 $237 $324 #
straight-curve $-1 -31.317765516629876 -47.29129802362619 10.916488875381717 1 0 0 I I #
coedge $-1 $229 $149 $313 $325 reversed $83 $-1 #
vertex $-1 $237 $326 #
straight-curve $-1 -31.317765516629876 47.29129802362619 10.916488875381717 -1 0 0 I I #
point $-1 -55.575331605995189 47.29129802362619 10.916488875381717 #
point $-1 -55.575331605995189 -47.29129802362619 10.916488875381717 #
face $-1 $-1 $170 $20 $-1 $327 reversed single #
loop $-1 $-1 $161 $155 #
plane-surface $-1 0 47.29129802362619 0 0 -1 0 0 0 -1 forward_v I I I I #
coedge $-1 $164 $328 $253 $329 forward $156 $-1 #
coedge $-1 $330 $158 $328 $331 forward $91 $-1 #
coedge $-1 $158 $330 $255 $332 forward $91 $-1 #
edge $-1 $257 -47.29129802362619 $333 47.29129802362619 $158 $334 forward 7 unknown #
coedge $-1 $160 $159 $249 $329 reversed $57 $-1 #
edge $-1 $260 -47.29129802362619 $256 47.29129802362619 $159 $335 forward 7 unknown #
coedge $-1 $262 $161 $251 $332 reversed $247 $-1 #
vertex $-1 $167 $336 #
vertex $-1 $162 $337 #
straight-curve $-1 55.575331605995189 47.29129802362619 6.6620416010541135 0 0 1 I I #
coedge $-1 $328 $164 $169 $266 reversed $156 $-1 #
vertex $-1 $165 $338 #
straight-curve $-1 31.317765516629876 -47.29129802362619 10.916488875381717 1 0 0 I I #
coedge $-1 $166 $255 $168 $265 forward $247 $-1 #
straight-curve $-1 31.317765516629876 47.29129802362619 10.916488875381717 -1 0 0 I I #
coedge $-1 $169 $168 $330 $339 reversed $170 $-1 #
edge $-1 $340 -15.731677528834737 $172 -10.916488875381717 $168 $341 forward 7 unknown #
edge $-1 $342 -15.731677528834737 $171 -10.916488875381717 $169 $343 forward 7 unknown #
point $-1 69.695730460524317 -47.29129802362619 10.916488875381717 #
point $-1 69.695730460524317 47.29129802362619 10.916488875381717 #
loop $-1 $-1 $183 $174 #
plane-surface $-1 -55.575331605995189 0 13.324083202108227 -1 0 0 0 0 1 forward_v I I I I #
coedge $-1 $344 $177 $182 $277 forward $99 $-1 #
coedge $-1 $177 $344 $274 $345 reversed $99 $-1 #
edge $-1 $275 72.968224198400392 $282 77.749734299102485 $177 $346 forward 7 unknown #
coedge $-1 $186 $180 $272 $345 forward $175 $-1 #
vertex $-1 $345 $347 #
straight-curve $-1 -29.345511870080525 36.591357947998034 15.731677528834737 0 1 0 I I #
edge $-1 $282 8.1153010010615994 $280 34.345120736976249 $271 $348 forward 7 unknown #
coedge $-1 $279 $183 $186 $284 reversed $269 $-1 #
coedge $-1 $183 $278 $344 $349 reversed $269 $-1 #
vertex $-1 $349 $350 #
straight-curve $-1 -55.575331605995189 -0.53494353389746507 55.54886018512321 0 -0.7313536940579346 0.68199836817093118 I I #
vertex $-1 $277 $351 #
straight-curve $-1 -29.345511870080525 -21.882032989121228 75.455343589729111 0 -0.7313536940579346 0.68199836817093118 I I #
edge $-1 $352 -47.29129802362619 $187 -42.163756318940827 $186 $353 forward 7 unknown #
point $-1 -55.575331605995174 42.163756318940827 15.731677528834737 #
point $-1 -29.345511870080525 42.163756318940827 15.731677528834737 #
edge $-1 $354 1 $354 0 $190 $-1 forward 7 unknown #
vertex $-1 $191 $355 #
ellipse-curve $-1 -48.081097395733849 42.506614793718285 10.95928559001503 0 0.68199836817093118 0.7313536940579346 1 0 0 1 I I #
point $-1 -47.081097395733849 44.727527171283491 13.34092247848367 #
edge $-1 $356 1 $356 0 $194 $-1 forward 7 unknown #
vertex $-1 $195 $357 #
ellipse-curve $-1 -36.839746080341854 42.506614793718285 10.95928559001503 0 0.68199836817093118 0.7313536940579346 1 0 0 1 I I #
point $-1 -35.839746080341854 44.727527171283491 13.34092247848367 #
plane-surface $-1 69.695730460524317 0 0 -1 0 0 0 0 1 forward_v I I I I #
coedge $-1 $203 $201 $205 $300 reversed $121 $-1 #
edge $-1 $216 -15.731677528834737 $302 15.731677528834737 $215 $358 forward 7 unknown #
vertex $-1 $300 $359 #
straight-curve $-1 -69.695730460524317 -47.29129802362619 0 0 0 -1 I I #
edge $-1 $298 -47.29129802362619 $302 47.29129802362619 $296 $360 forward 7 unknown #
straight-curve $-1 0 -47.29129802362619 -15.731677528834737 -1 0 0 I I #
vertex $-1 $208 $361 #
straight-curve $-1 0 47.29129802362619 -15.731677528834737 1 0 0 I I #
point $-1 69.695730460524317 47.29129802362619 -15.731677528834737 #
point $-1 69.695730460524317 -47.29129802362619 -15.731677528834737 #
straight-curve $-1 -69.695730460524317 0 15.731677528834737 0 -1 0 I I #
point $-1 -69.695730460524317 47.29129802362619 15.731677528834737 #
point $-1 -69.695730460524317 -47.29129802362619 15.731677528834737 #
straight-curve $-1 69.695730460524317 -47.29129802362619 0 0 0 -1 I I #
straight-curve $-1 69.695730460524317 47.29129802362619 0 0 0 -1 I I #
plane-surface $-1 0 -47.29129802362619 0 0 1 0 0 0 1 forward_v I I I I #
coedge $-1 $362 $228 $238 $323 reversed $140 $-1 #
coedge $-1 $228 $362 $241 $325 forward $140 $-1 #
coedge $-1 $363 $231 $229 $315 forward $226 $-1 #
edge $-1 $316 55.575331605995189 $364 69.695730460524317 $229 $365 forward 7 unknown #
vertex $-1 $315 $366 #
straight-curve $-1 -55.575331605995189 47.29129802362619 6.6620416010541135 0 0 -1 I I #
coedge $-1 $231 $363 $233 $320 forward $226 $-1 #
straight-curve $-1 -55.575331605995189 0 15.731677528834737 0 1 0 I I #
edge $-1 $367 -69.695730460524317 $235 -55.575331605995189 $233 $368 forward 7 unknown #
point $-1 -55.575331605995189 -47.29129802362619 15.731677528834737 #
straight-curve $-1 -69.695730460524317 0 10.916488875381717 0 -1 0 I I #
edge $-1 $367 -15.731677528834737 $239 -10.916488875381717 $312 $369 forward 7 unknown #
point $-1 -69.695730460524317 -47.29129802362619 10.916488875381717 #
edge $-1 $364 -15.731677528834737 $242 -10.916488875381717 $241 $370 forward 7 unknown #
point $-1 -69.695730460524317 47.29129802362619 10.916488875381717 #
plane-surface $-1 69.695730460524317 0 0 -1 0 0 0 0 1 forward_v I I I I #
coedge $-1 $249 $259 $250 $331 reversed $156 $-1 #
edge $-1 $333 -9.0696359277806238 $260 -4.2544472743276032 $249 $371 forward 7 unknown #
coedge $-1 $251 $250 $264 $339 forward $91 $-1 #
edge $-1 $333 55.575331605995189 $342 69.695730460524317 $328 $372 forward 7 unknown #
edge $-1 $340 -69.695730460524317 $257 -55.575331605995189 $255 $373 forward 7 unknown #
vertex $-1 $331 $374 #
straight-curve $-1 55.575331605995189 0 15.731677528834737 0 -1 0 I I #
straight-curve $-1 55.575331605995189 0 10.916488875381717 0 1 0 I I #
point $-1 55.575331605995189 47.29129802362619 10.916488875381717 #
point $-1 55.575331605995189 47.29129802362619 15.731677528834737 #
point $-1 55.575331605995189 -47.29129802362619 10.916488875381717 #
edge $-1 $342 -47.29129802362619 $340 47.29129802362619 $264 $375 forward 7 unknown #
vertex $-1 $339 $376 #
straight-curve $-1 69.695730460524317 47.29129802362619 0 0 0 -1 I I #
vertex $-1 $339 $377 #
straight-curve $-1 69.695730460524317 -47.29129802362619 0 0 0 -1 I I #
coedge $-1 $272 $271 $279 $349 forward $99 $-1 #
edge $-1 $275 29.345511870080525 $352 55.575331605995189 $272 $378 forward 7 unknown #
straight-curve $-1 -29.345511870080525 47.29129802362619 88.69990172723513 0 0 -1 I I #
point $-1 -29.345511870080525 47.29129802362619 15.731677528834737 #
straight-curve $-1 -21.230210869018926 47.291298023626183 10.950167428132644 -1 0 0 I I #
edge $-1 $280 4.288125827078531 $352 9.0696359277806238 $344 $379 forward 7 unknown #
point $-1 -55.575331605995174 47.291298023626183 10.950167428132644 #
point $-1 -29.345511870080525 47.291298023626183 10.950167428132644 #
vertex $-1 $284 $380 #
straight-curve $-1 -55.575331605995189 0 15.731677528834737 0 -1 0 I I #
vertex $-1 $287 $381 #
point $-1 -47.081097395733849 42.506614793718285 10.95928559001503 #
vertex $-1 $291 $382 #
point $-1 -35.839746080341854 42.506614793718285 10.95928559001503 #
straight-curve $-1 -69.695730460524317 47.29129802362619 0 0 0 -1 I I #
point $-1 -69.695730460524317 -47.29129802362619 -15.731677528834737 #
straight-curve $-1 -69.695730460524317 0 -15.731677528834737 0 1 0 I I #
point $-1 -69.695730460524317 47.29129802362619 -15.731677528834737 #
coedge $-1 $313 $312 $363 $383 reversed $140 $-1 #
coedge $-1 $318 $314 $362 $383 forward $226 $-1 #
vertex $-1 $315 $384 #
straight-curve $-1 0 47.29129802362619 15.731677528834737 -1 0 0 I I #
point $-1 -55.575331605995189 47.29129802362619 15.731677528834737 #
vertex $-1 $383 $385 #
straight-curve $-1 0 -47.29129802362619 15.731677528834737 1 0 0 I I #
straight-curve $-1 -69.695730460524317 -47.29129802362619 0 0 0 -1 I I #
straight-curve $-1 -69.695730460524317 47.29129802362619 0 0 0 -1 I I #
straight-curve $-1 55.575331605995189 -47.29129802362619 6.6620416010541135 0 0 -1 I I #
straight-curve $-1 0 -47.29129802362619 15.731677528834737 1 0 0 I I #
straight-curve $-1 0 47.29129802362619 15.731677528834737 -1 0 0 I I #
point $-1 55.575331605995189 -47.29129802362619 15.731677528834737 #
straight-curve $-1 69.695730460524317 0 15.731677528834737 0 1 0 I I #
point $-1 69.695730460524317 47.29129802362619 15.731677528834737 #
point $-1 69.695730460524317 -47.29129802362619 15.731677528834737 #
straight-curve $-1 0 47.29129802362619 15.731677528834737 -1 0 0 I I #
straight-curve $-1 -55.575331605995189 47.29129802362619 6.6620416010541135 0 0 1 I I #
point $-1 -55.575331605995189 47.29129802362619 15.731677528834737 #
point $-1 -48.081097395733849 41.824616425547347 10.227931895957097 #
point $-1 -36.839746080341854 41.824616425547347 10.227931895957097 #
edge $-1 $364 -47.29129802362619 $367 47.29129802362619 $362 $386 forward 7 unknown #
point $-1 -69.695730460524317 47.29129802362619 15.731677528834737 #
point $-1 -69.695730460524317 -47.29129802362619 15.731677528834737 #
straight-curve $-1 -69.695730460524317 0 15.731677528834737 0 -1 0 I I #
End-of-ACIS-data 