500 0 7 0           
7 Unknown 11 ACIS 5.0 NT 24 Thu Mar 25 17:51:03 1999 
-1 9.9999999999999995e-007 1e-010 
body $-1 $7 $-1 $8 #
body $-1 $9 $-1 $10 #
body $-1 $11 $-1 $12 #
body $-1 $13 $-1 $14 #
body $-1 $15 $-1 $16 #
body $-1 $17 $-1 $18 #
body $-1 $19 $-1 $20 #
lump $-1 $-1 $21 $0 #
transform $-1 1 0 0 0 1 0 0 0 1 44.358043153172396 22.05745560243065 4.4219924269041098 1 rotate no_reflect no_shear #
lump $-1 $-1 $22 $1 #
transform $-1 1 0 0 0 1 0 0 0 1 44.358043153172396 22.05745560243065 4.4219924269041098 1 rotate no_reflect no_shear #
lump $-1 $-1 $23 $2 #
transform $-1 1 0 0 0 1 0 0 0 1 44.358043153172396 22.05745560243065 4.4219924269041098 1 rotate no_reflect no_shear #
lump $-1 $-1 $24 $3 #
transform $-1 1 0 0 0 1 0 0 0 1 44.358043153172396 22.05745560243065 4.4219924269041098 1 rotate no_reflect no_shear #
lump $-1 $-1 $25 $4 #
transform $-1 1 0 0 0 1 0 0 0 1 44.358043153172396 22.05745560243065 4.4219924269041098 1 rotate no_reflect no_shear #
lump $-1 $-1 $26 $5 #
transform $-1 1 0 0 0 1 0 0 0 1 44.358043153172396 22.05745560243065 4.4219924269041098 1 rotate no_reflect no_shear #
lump $-1 $-1 $27 $6 #
transform $-1 1 0 0 0 1 0 0 0 1 44.358043153172396 22.05745560243065 4.4219924269041098 1 rotate no_reflect no_shear #
shell $-1 $-1 $-1 $28 $-1 $7 #
shell $-1 $-1 $-1 $29 $-1 $9 #
shell $-1 $-1 $-1 $30 $-1 $11 #
shell $-1 $-1 $-1 $31 $-1 $13 #
shell $-1 $-1 $-1 $32 $-1 $15 #
shell $-1 $-1 $-1 $33 $-1 $17 #
shell $-1 $-1 $-1 $34 $-1 $19 #
face $-1 $35 $36 $21 $-1 $37 forward single #
face $-1 $38 $39 $22 $-1 $40 forward single #
face $-1 $41 $42 $23 $-1 $43 reversed single #
face $-1 $44 $45 $24 $-1 $46 forward single #
face $-1 $47 $48 $25 $-1 $49 reversed single #
face $-1 $50 $51 $26 $-1 $52 forward single #
face $-1 $53 $54 $27 $-1 $55 forward single #
face $-1 $56 $57 $21 $-1 $58 reversed single #
loop $-1 $-1 $59 $28 #
plane-surface $-1 0 0 4.4219924269041098 0 0 1 1 0 0 forward_v I I I I #
face $-1 $60 $61 $22 $-1 $62 reversed single #
loop $-1 $-1 $63 $29 #
plane-surface $-1 -44.358043153172396 0 0 1 0 0 0 0 -1 forward_v I I I I #
face $-1 $64 $65 $23 $-1 $66 reversed single #
loop $-1 $-1 $67 $30 #
plane-surface $-1 20.973648278317494 -90.017921267828044 58.154662255228551 -1 0 0 0 -0.7660444514056185 0.64278759981090561 forward_v I I I I #
face $-1 $68 $69 $24 $-1 $70 forward single #
loop $-1 $71 $72 $31 #
cone-surface $-1 16.079152174310281 -20.28958871707518 2.4513674647813444 0 0.7660444514056185 -0.64278759981090561 1 0 0 1 I I 0 1 1 forward I I I I #
face $-1 $73 $74 $25 $-1 $75 reversed single #
loop $-1 $-1 $76 $32 #
plane-surface $-1 -26.24473288908689 75.381126159029264 84.372270152406728 1 0 0 0 -0.85716730853699208 -0.51503806187062418 forward_v I I I I #
face $-1 $77 $78 $26 $-1 $79 forward single #
loop $-1 $80 $81 $33 #
cone-surface $-1 -20.552373122948712 20.038305946627993 2.0727645128911032 0 -0.85716730853699208 -0.51503806187062418 1 0 0 1 I I 0 1 1 forward I I I I #
face $-1 $82 $83 $27 $-1 $84 forward single #
loop $-1 $85 $86 $34 #
cone-surface $-1 -12.013833473741443 20.038305946627993 2.0727645128911032 0 -0.85716730853699208 -0.51503806187062418 1 0 0 1 I I 0 1 1 forward I I I I #
face $-1 $87 $88 $21 $-1 $89 reversed single #
loop $-1 $-1 $90 $35 #
plane-surface $-1 0 0 -4.4219924269041098 0 0 1 1 0 0 forward_v I I I I #
coedge $-1 $91 $92 $93 $94 forward $36 $-1 #
face $-1 $95 $96 $22 $-1 $97 reversed single #
loop $-1 $-1 $98 $38 #
plane-surface $-1 0 22.05745560243065 0 0 -1 0 0 0 -1 forward_v I I I I #
coedge $-1 $99 $100 $101 $102 forward $39 $-1 #
face $-1 $103 $104 $23 $-1 $105 reversed single #
loop $-1 $-1 $106 $41 #
plane-surface $-1 16.079152174310288 -22.05745560243065 1.1290620737560317 0 -0.7660444514056185 0.64278759981090561 1 0 0 forward_v I I I I #
coedge $-1 $107 $108 $109 $110 reversed $42 $-1 #
face $-1 $-1 $111 $24 $-1 $112 forward single #
loop $-1 $113 $114 $44 #
cone-surface $-1 16.079152174310281 -19.520247892255817 1.8058138793271592 0 0.7660444514056185 -0.64278759981090561 0.5 0 0 1 I I -0.70710678118654746 0.70710678118654746 0.5 forward I I I I #
loop $-1 $-1 $115 $31 #
coedge $-1 $72 $72 $116 $117 reversed $45 $-1 #
face $-1 $118 $119 $25 $-1 $120 reversed single #
loop $-1 $-1 $121 $47 #
plane-surface $-1 -16.283103298345075 -0.66340276411580135 38.680109004439885 0 0.85716730853699208 0.51503806187062418 1 0 0 forward_v I I I I #
coedge $-1 $122 $123 $124 $125 reversed $48 $-1 #
face $-1 $-1 $126 $26 $-1 $127 forward single #
loop $-1 $128 $129 $50 #
cone-surface $-1 -20.552373122948712 18.658825607728019 1.2438891310845737 0 -0.85716730853699208 -0.51503806187062418 0.5 0 0 1 I I -0.70710678118654746 0.70710678118654746 0.5 forward I I I I #
loop $-1 $-1 $130 $33 #
coedge $-1 $81 $81 $131 $132 reversed $51 $-1 #
face $-1 $-1 $133 $27 $-1 $134 forward single #
loop $-1 $135 $136 $53 #
cone-surface $-1 -12.013833473741443 18.658825607728019 1.2438891310845737 0 -0.85716730853699208 -0.51503806187062418 0.5 0 0 1 I I -0.70710678118654746 0.70710678118654746 0.5 forward I I I I #
loop $-1 $-1 $137 $34 #
coedge $-1 $86 $86 $138 $139 reversed $54 $-1 #
face $-1 $140 $141 $21 $-1 $142 reversed single #
loop $-1 $-1 $143 $56 #
plane-surface $-1 0 -22.05745560243065 0 0 1 0 0 0 1 forward_v I I I I #
coedge $-1 $144 $145 $146 $147 forward $57 $-1 #
coedge $-1 $148 $59 $149 $150 forward $36 $-1 #
coedge $-1 $59 $148 $151 $152 forward $36 $-1 #
coedge $-1 $153 $154 $59 $94 reversed $155 $-1 #
edge $-1 $156 -22.05745560243065 $157 22.05745560243065 $93 $158 forward 7 unknown #
face $-1 $159 $160 $22 $-1 $161 reversed single #
loop $-1 $-1 $101 $60 #
plane-surface $-1 -46.342984285154245 0 1.4219924269041098 0 0 1 1 0 0 forward_v I I I I #
coedge $-1 $162 $163 $99 $164 forward $61 $-1 #
coedge $-1 $165 $63 $98 $164 reversed $39 $-1 #
coedge $-1 $63 $165 $166 $167 reversed $39 $-1 #
coedge $-1 $168 $169 $63 $102 reversed $96 $-1 #
edge $-1 $170 -22.05745560243065 $171 22.05745560243065 $101 $172 forward 7 unknown #
face $-1 $173 $174 $23 $-1 $175 reversed single #
loop $-1 $-1 $176 $64 #
plane-surface $-1 11.184656070303081 -90.017921267828044 58.154662255228551 1 0 0 0 0.7660444514056185 -0.64278759981090561 forward_v I I I I #
coedge $-1 $177 $178 $179 $180 reversed $65 $-1 #
coedge $-1 $108 $67 $181 $182 reversed $42 $-1 #
coedge $-1 $67 $107 $177 $183 reversed $42 $-1 #
coedge $-1 $179 $184 $67 $110 forward $185 $-1 #
edge $-1 $186 22.951505031483372 $187 25.71460160396121 $109 $188 forward 7 unknown #
loop $-1 $-1 $116 $68 #
plane-surface $-1 16.079152174310288 -22.05745560243065 1.1290620737560317 0 -0.7660444514056185 0.64278759981090561 1 0 0 forward_v I I I I #
loop $-1 $-1 $189 $44 #
coedge $-1 $114 $114 $115 $190 reversed $69 $-1 #
coedge $-1 $115 $115 $114 $190 forward $71 $-1 #
coedge $-1 $116 $116 $72 $117 forward $111 $-1 #
edge $-1 $191 -1.8457439957451268e-015 $191 6.2831853071795987 $116 $192 forward 7 unknown #
face $-1 $193 $194 $25 $-1 $195 forward single #
loop $-1 $-1 $196 $73 #
plane-surface $-1 -6.3214737076032588 75.381126159029264 84.372270152406728 -1 0 0 0 0.85716730853699208 0.51503806187062418 forward_v I I I I #
coedge $-1 $197 $198 $199 $200 reversed $74 $-1 #
coedge $-1 $123 $76 $201 $202 reversed $48 $-1 #
coedge $-1 $76 $122 $197 $203 reversed $48 $-1 #
coedge $-1 $199 $204 $76 $125 forward $194 $-1 #
edge $-1 $205 15.633107477083982 $206 17.769613419426346 $124 $207 forward 7 unknown #
loop $-1 $-1 $131 $77 #
plane-surface $-1 -16.283103298345075 -0.66340276411580135 38.680109004439885 0 0.85716730853699208 0.51503806187062418 1 0 0 forward_v I I I I #
loop $-1 $-1 $208 $50 #
coedge $-1 $129 $129 $130 $209 reversed $78 $-1 #
coedge $-1 $130 $130 $129 $209 forward $80 $-1 #
coedge $-1 $131 $131 $81 $132 forward $126 $-1 #
edge $-1 $210 6.1429551296134909e-016 $210 6.2831853071796013 $131 $211 forward 7 unknown #
loop $-1 $-1 $138 $82 #
plane-surface $-1 -16.283103298345075 -0.66340276411580135 38.680109004439885 0 0.85716730853699208 0.51503806187062418 1 0 0 forward_v I I I I #
loop $-1 $-1 $212 $53 #
coedge $-1 $136 $136 $137 $213 reversed $83 $-1 #
coedge $-1 $137 $137 $136 $213 forward $85 $-1 #
coedge $-1 $138 $138 $86 $139 forward $133 $-1 #
edge $-1 $214 6.1429551296134909e-016 $214 6.2831853071796013 $138 $215 forward 7 unknown #
face $-1 $216 $217 $21 $-1 $218 reversed single #
loop $-1 $-1 $219 $87 #
plane-surface $-1 -44.358043153172396 0 0 1 0 0 0 0 -1 forward_v I I I I #
coedge $-1 $220 $151 $221 $222 forward $88 $-1 #
coedge $-1 $223 $90 $220 $224 forward $57 $-1 #
coedge $-1 $90 $223 $225 $226 forward $57 $-1 #
coedge $-1 $154 $153 $90 $147 reversed $155 $-1 #
edge $-1 $227 -22.05745560243065 $228 22.05745560243065 $146 $229 forward 7 unknown #
coedge $-1 $92 $91 $230 $231 forward $36 $-1 #
coedge $-1 $232 $233 $91 $150 reversed $217 $-1 #
edge $-1 $157 -44.358043153172396 $234 44.358043153172396 $149 $235 forward 7 unknown #
coedge $-1 $143 $236 $92 $152 reversed $88 $-1 #
edge $-1 $237 -44.358043153172396 $156 44.358043153172396 $151 $238 forward 7 unknown #
coedge $-1 $146 $93 $236 $239 forward $155 $-1 #
coedge $-1 $93 $146 $232 $240 reversed $155 $-1 #
loop $-1 $-1 $153 $216 #
vertex $-1 $94 $241 #
vertex $-1 $94 $242 #
straight-curve $-1 44.358043153172396 0 4.4219924269041098 0 1 0 I I #
face $-1 $243 $244 $22 $-1 $245 forward single #
loop $-1 $-1 $246 $95 #
plane-surface $-1 -48.327925417136093 0 2.9219924269041098 1 0 0 0 0 -1 forward_v I I I I #
coedge $-1 $247 $98 $169 $248 reversed $61 $-1 #
coedge $-1 $98 $247 $249 $250 reversed $61 $-1 #
edge $-1 $251 -4.4219924269041098 $171 -1.4219924269041098 $98 $252 forward 7 unknown #
coedge $-1 $100 $99 $253 $254 reversed $39 $-1 #
coedge $-1 $255 $256 $100 $167 forward $257 $-1 #
edge $-1 $170 1.4219924269041098 $258 4.4219924269041098 $166 $259 forward 7 unknown #
coedge $-1 $260 $101 $256 $261 forward $96 $-1 #
coedge $-1 $101 $260 $162 $248 forward $96 $-1 #
vertex $-1 $167 $262 #
vertex $-1 $164 $263 #
straight-curve $-1 -44.358043153172396 0 1.4219924269041098 0 1 0 I I #
face $-1 $-1 $185 $23 $-1 $264 forward single #
loop $-1 $-1 $265 $103 #
plane-surface $-1 0 -22.05745560243065 0 0 1 0 0 0 1 forward_v I I I I #
coedge $-1 $266 $267 $268 $269 reversed $104 $-1 #
coedge $-1 $270 $106 $108 $183 forward $65 $-1 #
coedge $-1 $106 $270 $266 $271 forward $65 $-1 #
coedge $-1 $268 $109 $106 $180 forward $185 $-1 #
edge $-1 $187 -12.93407219116235 $272 -3.1450799831479372 $179 $273 forward 7 unknown #
coedge $-1 $274 $275 $107 $182 forward $174 $-1 #
edge $-1 $276 -27.948269053858244 $186 -24.655338700710168 $181 $277 forward 7 unknown #
edge $-1 $187 -4.2986152397630004 $276 0 $108 $278 forward 7 unknown #
coedge $-1 $109 $268 $274 $279 forward $185 $-1 #
loop $-1 $-1 $268 $173 #
vertex $-1 $182 $280 #
vertex $-1 $110 $281 #
straight-curve $-1 20.973648278317494 -45.008960633914022 4.421992426904108 0 1 0 I I #
coedge $-1 $189 $189 $-1 $282 reversed $113 $-1 #
edge $-1 $283 0 $283 6.2831853071796004 $114 $284 forward 7 unknown #
vertex $-1 $117 $285 #
ellipse-curve $-1 16.079152174310281 -20.675907316191729 2.7755272503300725 0 -0.7660444514056185 0.64278759981090561 1 0 0 1 I I #
face $-1 $-1 $286 $25 $-1 $287 reversed single #
loop $-1 $-1 $124 $118 #
plane-surface $-1 0 0 4.4219924269041098 0 0 1 1 0 0 forward_v I I I I #
coedge $-1 $288 $289 $290 $291 reversed $119 $-1 #
coedge $-1 $292 $121 $123 $203 forward $74 $-1 #
coedge $-1 $121 $292 $288 $293 forward $74 $-1 #
coedge $-1 $290 $124 $121 $200 forward $194 $-1 #
edge $-1 $206 -18.103181239914353 $294 1.8200779415692789 $199 $295 forward 7 unknown #
coedge $-1 $296 $297 $122 $202 forward $286 $-1 #
edge $-1 $298 -41.31988577558284 $205 -37.764142649299252 $201 $299 forward 7 unknown #
edge $-1 $206 39.966662559736818 $298 44.114911204861315 $123 $300 forward 7 unknown #
coedge $-1 $124 $290 $296 $301 forward $194 $-1 #
vertex $-1 $202 $302 #
vertex $-1 $125 $303 #
straight-curve $-1 -26.24473288908689 37.690563079514632 4.4219924269041115 0 -1 0 I I #
coedge $-1 $208 $208 $-1 $304 reversed $128 $-1 #
edge $-1 $305 0 $305 6.2831853071796004 $129 $306 forward 7 unknown #
vertex $-1 $132 $307 #
ellipse-curve $-1 -20.552373122948712 20.989202631259467 2.6441208637623173 0 0.85716730853699208 0.51503806187062418 1 0 0 1 I I #
coedge $-1 $212 $212 $-1 $308 reversed $135 $-1 #
edge $-1 $309 0 $309 6.2831853071796004 $136 $310 forward 7 unknown #
vertex $-1 $139 $311 #
ellipse-curve $-1 -12.013833473741443 20.989202631259467 2.6441208637623173 0 0.85716730853699208 0.51503806187062418 1 0 0 1 I I #
face $-1 $-1 $155 $21 $-1 $312 reversed single #
loop $-1 $-1 $232 $140 #
plane-surface $-1 0 22.05745560243065 0 0 -1 0 0 0 -1 forward_v I I I I #
coedge $-1 $313 $230 $233 $314 forward $141 $-1 #
coedge $-1 $236 $143 $144 $224 reversed $88 $-1 #
coedge $-1 $230 $313 $143 $222 reversed $141 $-1 #
edge $-1 $237 -4.4219924269041098 $315 4.4219924269041098 $221 $316 forward 7 unknown #
coedge $-1 $145 $144 $313 $317 forward $57 $-1 #
edge $-1 $228 -44.358043153172396 $315 44.358043153172396 $220 $318 forward 7 unknown #
coedge $-1 $233 $232 $145 $226 reversed $217 $-1 #
edge $-1 $319 -44.358043153172396 $227 44.358043153172396 $225 $320 forward 7 unknown #
vertex $-1 $147 $321 #
vertex $-1 $239 $322 #
straight-curve $-1 44.358043153172396 0 -4.4219924269041098 0 -1 0 I I #
coedge $-1 $219 $221 $148 $231 reversed $141 $-1 #
edge $-1 $234 -22.05745560243065 $237 22.05745560243065 $230 $323 forward 7 unknown #
coedge $-1 $225 $149 $154 $240 forward $217 $-1 #
coedge $-1 $149 $225 $219 $314 reversed $217 $-1 #
vertex $-1 $150 $324 #
straight-curve $-1 0 22.05745560243065 4.4219924269041098 -1 0 0 I I #
coedge $-1 $151 $220 $153 $239 reversed $88 $-1 #
vertex $-1 $231 $325 #
straight-curve $-1 0 -22.05745560243065 4.4219924269041098 1 0 0 I I #
edge $-1 $156 -4.4219924269041098 $228 4.4219924269041098 $153 $326 forward 7 unknown #
edge $-1 $157 -4.4219924269041098 $227 4.4219924269041098 $154 $327 forward 7 unknown #
point $-1 44.358043153172396 -22.05745560243065 4.4219924269041098 #
point $-1 44.358043153172396 22.05745560243065 4.4219924269041098 #
face $-1 $-1 $257 $22 $-1 $328 reversed single #
loop $-1 $-1 $253 $159 #
plane-surface $-1 0 0 4.4219924269041098 0 0 1 1 0 0 forward_v I I I I #
coedge $-1 $329 $330 $247 $331 forward $160 $-1 #
coedge $-1 $163 $162 $246 $331 reversed $61 $-1 #
edge $-1 $332 -1.9849411319818486 $171 1.9849411319818486 $162 $333 forward 7 unknown #
coedge $-1 $334 $253 $163 $250 forward $244 $-1 #
edge $-1 $251 44.358043153172396 $335 48.327925417136093 $163 $336 forward 7 unknown #
vertex $-1 $250 $337 #
straight-curve $-1 -44.358043153172396 22.05745560243065 0 0 0 -1 I I #
coedge $-1 $249 $338 $165 $254 forward $244 $-1 #
edge $-1 $258 -22.05745560243065 $251 22.05745560243065 $253 $339 forward 7 unknown #
coedge $-1 $340 $166 $338 $341 reversed $257 $-1 #
coedge $-1 $166 $340 $168 $261 reversed $257 $-1 #
loop $-1 $-1 $166 $243 #
vertex $-1 $167 $342 #
straight-curve $-1 -44.358043153172396 -22.05745560243065 0 0 0 1 I I #
coedge $-1 $169 $168 $329 $343 forward $96 $-1 #
edge $-1 $170 -1.9849411319818486 $344 1.9849411319818486 $256 $345 forward 7 unknown #
point $-1 -44.358043153172396 -22.05745560243065 1.4219924269041098 #
point $-1 -44.358043153172396 22.05745560243065 1.4219924269041098 #
plane-surface $-1 0 0 4.4219924269041098 0 0 1 1 0 0 forward_v I I I I #
coedge $-1 $275 $274 $267 $346 forward $174 $-1 #
coedge $-1 $267 $176 $178 $271 reversed $104 $-1 #
coedge $-1 $176 $266 $265 $346 reversed $104 $-1 #
coedge $-1 $184 $179 $176 $269 forward $185 $-1 #
edge $-1 $272 -25.71460160396121 $347 -22.951505031483372 $268 $348 forward 7 unknown #
coedge $-1 $178 $177 $275 $349 reversed $65 $-1 #
edge $-1 $350 0 $272 4.2986152397630004 $266 $351 forward 7 unknown #
vertex $-1 $180 $352 #
straight-curve $-1 8.0395760871551438 -19.294359029952812 4.4219924269041098 -1 0 0 I I #
coedge $-1 $265 $181 $184 $279 reversed $174 $-1 #
coedge $-1 $181 $265 $270 $349 forward $174 $-1 #
vertex $-1 $182 $353 #
straight-curve $-1 20.973648278317494 -22.05745560243065 29.077331127614276 0 0 1 I I #
straight-curve $-1 20.973648278317494 -22.05745560243065 1.1290620737560317 0 -0.64278759981090561 -0.7660444514056185 I I #
edge $-1 $347 11.184656070303081 $186 20.973648278317494 $274 $354 forward 7 unknown #
point $-1 20.973648278317494 -22.05745560243065 4.4219924269041098 #
point $-1 20.973648278317494 -19.294359029952812 4.4219924269041098 #
edge $-1 $355 1 $355 0 $189 $-1 forward 7 unknown #
vertex $-1 $190 $356 #
ellipse-curve $-1 16.079152174310281 -19.903270117958627 2.1272076792326118 0 -0.7660444514056185 0.64278759981090561 1 0 0 1 I I #
point $-1 17.079152174310281 -20.675907316191736 2.7755272503300761 #
loop $-1 $-1 $201 $193 #
plane-surface $-1 0 22.05745560243065 0 0 -1 0 0 0 -1 forward_v I I I I #
coedge $-1 $289 $196 $198 $293 reversed $119 $-1 #
coedge $-1 $196 $288 $357 $358 reversed $119 $-1 #
coedge $-1 $204 $199 $196 $291 forward $194 $-1 #
edge $-1 $294 -17.769613419426346 $359 -15.633107477083982 $290 $360 forward 7 unknown #
coedge $-1 $198 $197 $297 $361 reversed $74 $-1 #
edge $-1 $362 -44.114911204861315 $294 -39.966662559736818 $288 $363 forward 7 unknown #
vertex $-1 $200 $364 #
straight-curve $-1 -8.1415516491725377 19.92094966008829 4.4219924269041044 1 0 0 I I #
coedge $-1 $357 $201 $204 $301 reversed $286 $-1 #
coedge $-1 $201 $357 $292 $361 forward $286 $-1 #
vertex $-1 $202 $365 #
straight-curve $-1 -26.24473288908689 22.05745560243065 42.186135076203364 0 0 1 I I #
straight-curve $-1 -26.24473288908689 -0.66340276411580135 38.680109004439885 0 0.51503806187062418 -0.85716730853699208 I I #
edge $-1 $359 6.3214737076032588 $205 26.24473288908689 $296 $366 forward 7 unknown #
point $-1 -26.24473288908689 22.05745560243065 4.4219924269041098 #
point $-1 -26.24473288908689 19.920949660088286 4.4219924269041115 #
edge $-1 $367 1 $367 0 $208 $-1 forward 7 unknown #
vertex $-1 $209 $368 #
ellipse-curve $-1 -20.552373122948712 19.087409261996516 1.5014081620198858 0 0.85716730853699208 0.51503806187062418 1 0 0 1 I I #
point $-1 -19.552373122948712 20.989202631259474 2.6441208637623208 #
edge $-1 $369 1 $369 0 $212 $-1 forward 7 unknown #
vertex $-1 $213 $370 #
ellipse-curve $-1 -12.013833473741443 19.087409261996516 1.5014081620198858 0 0.85716730853699208 0.51503806187062418 1 0 0 1 I I #
point $-1 -11.013833473741443 20.989202631259474 2.6441208637623208 #
plane-surface $-1 44.358043153172396 0 0 -1 0 0 0 0 1 forward_v I I I I #
coedge $-1 $221 $219 $223 $317 reversed $141 $-1 #
edge $-1 $234 -4.4219924269041098 $319 4.4219924269041098 $233 $371 forward 7 unknown #
vertex $-1 $317 $372 #
straight-curve $-1 -44.358043153172396 -22.05745560243065 0 0 0 -1 I I #
edge $-1 $315 -22.05745560243065 $319 22.05745560243065 $313 $373 forward 7 unknown #
straight-curve $-1 0 -22.05745560243065 -4.4219924269041098 -1 0 0 I I #
vertex $-1 $226 $374 #
straight-curve $-1 0 22.05745560243065 -4.4219924269041098 1 0 0 I I #
point $-1 44.358043153172396 22.05745560243065 -4.4219924269041098 #
point $-1 44.358043153172396 -22.05745560243065 -4.4219924269041098 #
straight-curve $-1 -44.358043153172396 0 4.4219924269041098 0 -1 0 I I #
point $-1 -44.358043153172396 22.05745560243065 4.4219924269041098 #
point $-1 -44.358043153172396 -22.05745560243065 4.4219924269041098 #
straight-curve $-1 44.358043153172396 -22.05745560243065 0 0 0 -1 I I #
straight-curve $-1 44.358043153172396 22.05745560243065 0 0 0 -1 I I #
plane-surface $-1 0 -22.05745560243065 0 0 1 0 0 0 1 forward_v I I I I #
coedge $-1 $375 $246 $260 $343 reversed $160 $-1 #
coedge $-1 $246 $375 $334 $376 reversed $160 $-1 #
edge $-1 $335 -1.5 $332 1.5 $247 $377 forward 7 unknown #
vertex $-1 $248 $378 #
straight-curve $-1 -46.342984285154245 22.05745560243065 1.4219924269041098 1 0 0 I I #
coedge $-1 $338 $249 $330 $376 forward $244 $-1 #
vertex $-1 $250 $379 #
straight-curve $-1 0 22.05745560243065 4.4219924269041098 -1 0 0 I I #
point $-1 -44.358043153172396 22.05745560243065 4.4219924269041098 #
coedge $-1 $253 $334 $255 $341 forward $244 $-1 #
straight-curve $-1 -44.358043153172396 0 4.4219924269041098 0 1 0 I I #
coedge $-1 $256 $255 $375 $380 forward $257 $-1 #
edge $-1 $381 -48.327925417136093 $258 -44.358043153172396 $255 $382 forward 7 unknown #
point $-1 -44.358043153172396 -22.05745560243065 4.4219924269041098 #
edge $-1 $344 -22.05745560243065 $332 22.05745560243065 $329 $383 forward 7 unknown #
vertex $-1 $343 $384 #
straight-curve $-1 -46.342984285154245 -22.05745560243065 1.4219924269041098 -1 0 0 I I #
edge $-1 $347 24.655338700710168 $350 27.948269053858244 $265 $385 forward 7 unknown #
vertex $-1 $279 $386 #
straight-curve $-1 11.184656070303081 -45.008960633914022 4.421992426904108 0 -1 0 I I #
edge $-1 $350 3.1450799831479372 $276 12.93407219116235 $275 $387 forward 7 unknown #
vertex $-1 $349 $388 #
straight-curve $-1 11.184656070303081 -22.05745560243065 1.1290620737560317 0 0.64278759981090561 0.7660444514056185 I I #
point $-1 11.184656070303081 -19.294359029952812 4.4219924269041098 #
point $-1 20.973648278317494 -22.05745560243065 1.1290620737560317 #
straight-curve $-1 0 -22.05745560243065 4.4219924269041098 1 0 0 I I #
vertex $-1 $282 $389 #
point $-1 17.079152174310281 -19.903270117958627 2.1272076792326118 #
coedge $-1 $297 $296 $289 $358 forward $286 $-1 #
edge $-1 $359 37.764142649299252 $362 41.31988577558284 $357 $390 forward 7 unknown #
vertex $-1 $301 $391 #
straight-curve $-1 -6.3214737076032588 37.690563079514632 4.4219924269041115 0 1 0 I I #
edge $-1 $362 -1.8200779415692789 $298 18.103181239914353 $297 $392 forward 7 unknown #
vertex $-1 $361 $393 #
straight-curve $-1 -6.3214737076032588 -0.66340276411580135 38.680109004439885 0 -0.51503806187062418 0.85716730853699208 I I #
point $-1 -6.3214737076032588 19.920949660088286 4.4219924269041115 #
point $-1 -26.24473288908689 22.05745560243065 0.86624930062052385 #
straight-curve $-1 0 22.05745560243065 4.4219924269041098 -1 0 0 I I #
vertex $-1 $304 $394 #
point $-1 -19.552373122948712 19.087409261996516 1.5014081620198858 #
vertex $-1 $308 $395 #
point $-1 -11.013833473741443 19.087409261996516 1.5014081620198858 #
straight-curve $-1 -44.358043153172396 22.05745560243065 0 0 0 -1 I I #
point $-1 -44.358043153172396 -22.05745560243065 -4.4219924269041098 #
straight-curve $-1 -44.358043153172396 0 -4.4219924269041098 0 1 0 I I #
point $-1 -44.358043153172396 22.05745560243065 -4.4219924269041098 #
coedge $-1 $330 $329 $340 $380 reversed $160 $-1 #
edge $-1 $335 -22.05745560243065 $381 22.05745560243065 $330 $396 forward 7 unknown #
straight-curve $-1 -48.327925417136093 22.05745560243065 2.9219924269041098 0 0 -1 I I #
point $-1 -48.327925417136093 22.05745560243065 1.4219924269041098 #
point $-1 -48.327925417136093 22.05745560243065 4.4219924269041098 #
edge $-1 $381 -1.5 $344 1.5 $375 $397 forward 7 unknown #
vertex $-1 $376 $398 #
straight-curve $-1 0 -22.05745560243065 4.4219924269041098 1 0 0 I I #
straight-curve $-1 -48.327925417136093 0 1.4219924269041098 0 1 0 I I #
point $-1 -48.327925417136093 -22.05745560243065 1.4219924269041098 #
straight-curve $-1 11.184656070303081 -22.05745560243065 29.077331127614276 0 0 -1 I I #
point $-1 11.184656070303081 -22.05745560243065 4.4219924269041098 #
straight-curve $-1 8.0395760871551438 -22.05745560243065 1.1290620737560322 1 0 0 I I #
point $-1 11.184656070303081 -22.05745560243065 1.1290620737560317 #
point $-1 16.079152174310281 -19.137225666553007 1.4844200794217064 #
straight-curve $-1 -6.3214737076032588 22.05745560243065 42.186135076203364 0 0 -1 I I #
point $-1 -6.3214737076032588 22.05745560243065 4.4219924269041098 #
straight-curve $-1 -8.1415516491725377 22.05745560243065 0.86624930062051675 -1 0 0 I I #
point $-1 -6.3214737076032588 22.05745560243065 0.86624930062052385 #
point $-1 -20.552373122948712 18.230241953459522 0.98637010014926152 #
point $-1 -12.013833473741443 18.230241953459522 0.98637010014926152 #
straight-curve $-1 -48.327925417136093 0 4.4219924269041098 0 -1 0 I I #
straight-curve $-1 -48.327925417136093 -22.05745560243065 2.9219924269041098 0 0 -1 I I #
point $-1 -48.327925417136093 -22.05745560243065 4.4219924269041098 #
End-of-ACIS-data 