500 0 5 0           
7 Unknown 11 ACIS 5.0 NT 24 Fri Mar 26 19:35:23 1999 
-1 9.9999999999999995e-007 1e-010 
body $-1 $5 $-1 $6 #
body $-1 $7 $-1 $8 #
body $-1 $9 $-1 $10 #
body $-1 $11 $-1 $12 #
body $-1 $13 $-1 $14 #
lump $-1 $-1 $15 $0 #
transform $-1 1 0 0 0 1 0 0 0 1 75.848261970885346 48.859132345056373 14.180286956030507 1 rotate no_reflect no_shear #
lump $-1 $-1 $16 $1 #
transform $-1 1 0 0 0 1 0 0 0 1 75.848261970885346 48.859132345056373 14.180286956030507 1 rotate no_reflect no_shear #
lump $-1 $-1 $17 $2 #
transform $-1 1 0 0 0 1 0 0 0 1 75.848261970885346 48.859132345056373 14.180286956030507 1 rotate no_reflect no_shear #
lump $-1 $-1 $18 $3 #
transform $-1 1 0 0 0 1 0 0 0 1 75.848261970885346 48.859132345056373 14.180286956030507 1 rotate no_reflect no_shear #
lump $-1 $-1 $19 $4 #
transform $-1 1 0 0 0 1 0 0 0 1 75.848261970885346 48.859132345056373 14.180286956030507 1 rotate no_reflect no_shear #
shell $-1 $-1 $-1 $20 $-1 $5 #
shell $-1 $-1 $-1 $21 $-1 $7 #
shell $-1 $-1 $-1 $22 $-1 $9 #
shell $-1 $-1 $-1 $23 $-1 $11 #
shell $-1 $-1 $-1 $24 $-1 $13 #
face $-1 $25 $26 $15 $-1 $27 forward single #
face $-1 $28 $29 $16 $-1 $30 forward single #
face $-1 $31 $32 $17 $-1 $33 forward single #
face $-1 $34 $35 $18 $-1 $36 reversed single #
face $-1 $37 $38 $19 $-1 $39 reversed single #
face $-1 $40 $41 $15 $-1 $42 reversed single #
loop $-1 $-1 $43 $20 #
plane-surface $-1 0 0 14.180286956030507 0 0 1 1 0 0 forward_v I I I I #
face $-1 $44 $45 $16 $-1 $46 forward single #
loop $-1 $-1 $47 $21 #
plane-surface $-1 -68.086901510184077 0 9.9337741906035522 0 0 1 1 0 0 forward_v I I I I #
face $-1 $48 $49 $17 $-1 $50 forward single #
loop $-1 $-1 $51 $22 #
plane-surface $-1 -60.325541049482794 -142.25283924802446 122.76015539302634 1 0 0 0 0.61566148304635926 -0.78801074757464917 forward_v I I I I #
face $-1 $52 $53 $18 $-1 $54 reversed single #
loop $-1 $55 $56 $23 #
cone-surface $-1 -54.512259200519594 -41.176328805500127 7.8439203784746994 0 0.61566148304635926 -0.78801074757464917 2 0 0 1 I I 0 1 2 forward I I I I #
face $-1 $57 $58 $19 $-1 $59 reversed single #
loop $-1 $60 $61 $24 #
cone-surface $-1 -45.792336427074787 -41.176328805500127 7.8439203784746994 0 0.61566148304635926 -0.78801074757464917 2 0 0 1 I I 0 1 2 forward I I I I #
face $-1 $62 $63 $15 $-1 $64 reversed single #
loop $-1 $-1 $65 $25 #
plane-surface $-1 0 0 -14.180286956030507 0 0 1 1 0 0 forward_v I I I I #
coedge $-1 $66 $67 $68 $69 forward $26 $-1 #
face $-1 $70 $71 $16 $-1 $72 forward single #
loop $-1 $-1 $73 $28 #
plane-surface $-1 -60.325541049482801 0 12.057030573317029 -1 0 0 0 0 1 forward_v I I I I #
coedge $-1 $74 $75 $76 $77 reversed $29 $-1 #
face $-1 $78 $79 $17 $-1 $80 forward single #
loop $-1 $-1 $81 $31 #
plane-surface $-1 -39.979054578111587 -142.25283924802446 122.76015539302634 -1 0 0 0 -0.61566148304635926 0.78801074757464917 forward_v I I I I #
coedge $-1 $82 $83 $84 $85 forward $32 $-1 #
face $-1 $86 $87 $18 $-1 $88 forward single #
loop $-1 $89 $90 $34 #
cone-surface $-1 -54.512259200519594 -39.891062417128097 6.1988544527615161 0 0.61566148304635926 -0.78801074757464917 1 0 0 1 I I -0.70710678118654746 0.70710678118654746 1 forward I I I I #
loop $-1 $-1 $91 $23 #
coedge $-1 $56 $56 $92 $93 reversed $35 $-1 #
face $-1 $94 $95 $19 $-1 $96 reversed single #
loop $-1 $97 $98 $37 #
cone-surface $-1 -45.792336427074787 -39.891062417128097 6.1988544527615161 0 0.61566148304635926 -0.78801074757464917 1 0 0 1 I I -0.70710678118654746 0.70710678118654746 1 forward I I I I #
loop $-1 $-1 $99 $24 #
coedge $-1 $61 $61 $100 $101 reversed $38 $-1 #
face $-1 $102 $103 $15 $-1 $104 reversed single #
loop $-1 $-1 $105 $40 #
plane-surface $-1 0 -48.859132345056373 0 0 1 0 0 0 1 forward_v I I I I #
coedge $-1 $106 $107 $108 $109 forward $41 $-1 #
coedge $-1 $110 $43 $111 $112 forward $26 $-1 #
coedge $-1 $43 $110 $113 $114 forward $26 $-1 #
coedge $-1 $115 $116 $43 $69 reversed $117 $-1 #
edge $-1 $118 -48.859132345056373 $119 48.859132345056373 $68 $120 forward 7 unknown #
face $-1 $121 $122 $16 $-1 $123 reversed single #
loop $-1 $-1 $124 $44 #
plane-surface $-1 0 0 14.180286956030507 0 0 1 1 0 0 forward_v I I I I #
coedge $-1 $125 $76 $126 $127 reversed $45 $-1 #
coedge $-1 $128 $47 $129 $130 reversed $29 $-1 #
coedge $-1 $47 $128 $131 $132 reversed $29 $-1 #
coedge $-1 $73 $133 $47 $77 forward $45 $-1 #
edge $-1 $134 -48.859132345056373 $135 48.859132345056373 $76 $136 forward 7 unknown #
face $-1 $137 $138 $17 $-1 $139 forward single #
loop $-1 $-1 $140 $48 #
plane-surface $-1 -50.15229781379719 -48.859132345056366 3.2216641571959457 0 -0.61566148304635926 0.78801074757464917 1 0 0 forward_v I I I I #
coedge $-1 $141 $142 $143 $144 reversed $49 $-1 #
coedge $-1 $83 $51 $145 $146 reversed $32 $-1 #
coedge $-1 $51 $82 $147 $148 forward $32 $-1 #
coedge $-1 $149 $150 $51 $85 reversed $151 $-1 #
edge $-1 $152 40.268023446937178 $153 48.859132345056373 $84 $154 forward 7 unknown #
face $-1 $155 $156 $18 $-1 $157 forward single #
loop $-1 $-1 $158 $52 #
plane-surface $-1 -60.325541049482794 -142.25283924802446 122.76015539302634 1 0 0 0 0.61566148304635926 -0.78801074757464917 forward_v I I I I #
loop $-1 $-1 $159 $34 #
coedge $-1 $90 $90 $91 $160 forward $53 $-1 #
coedge $-1 $91 $91 $90 $160 reversed $55 $-1 #
coedge $-1 $92 $92 $56 $93 forward $161 $-1 #
edge $-1 $162 -1.5749613827085417e-015 $162 6.2831853071795987 $92 $163 forward 7 unknown #
face $-1 $164 $165 $19 $-1 $166 reversed single #
loop $-1 $167 $168 $57 #
cone-surface $-1 -54.512259200519594 -41.176328805500127 7.8439203784746994 0 0.61566148304635926 -0.78801074757464917 2 0 0 1 I I 0 1 2 forward I I I I #
loop $-1 $-1 $169 $37 #
coedge $-1 $98 $98 $99 $170 forward $58 $-1 #
coedge $-1 $99 $99 $98 $170 reversed $60 $-1 #
coedge $-1 $100 $100 $61 $101 forward $171 $-1 #
edge $-1 $172 -1.5749613827085417e-015 $172 6.2831853071795987 $100 $173 forward 7 unknown #
face $-1 $174 $175 $15 $-1 $176 reversed single #
loop $-1 $-1 $177 $62 #
plane-surface $-1 -75.848261970885346 0 0 1 0 0 0 0 -1 forward_v I I I I #
coedge $-1 $178 $113 $179 $180 forward $63 $-1 #
coedge $-1 $181 $65 $178 $182 forward $41 $-1 #
coedge $-1 $65 $181 $183 $184 forward $41 $-1 #
coedge $-1 $116 $115 $65 $109 reversed $117 $-1 #
edge $-1 $185 -48.859132345056373 $186 48.859132345056373 $108 $187 forward 7 unknown #
coedge $-1 $67 $66 $188 $189 forward $26 $-1 #
coedge $-1 $190 $191 $66 $112 reversed $175 $-1 #
edge $-1 $119 -75.848261970885346 $192 75.848261970885346 $111 $193 forward 7 unknown #
coedge $-1 $105 $194 $67 $114 reversed $63 $-1 #
edge $-1 $195 -75.848261970885346 $118 75.848261970885346 $113 $196 forward 7 unknown #
coedge $-1 $108 $68 $194 $197 forward $117 $-1 #
coedge $-1 $68 $108 $190 $198 reversed $117 $-1 #
loop $-1 $-1 $115 $174 #
vertex $-1 $69 $199 #
vertex $-1 $69 $200 #
straight-curve $-1 75.848261970885346 0 14.180286956030507 0 1 0 I I #
face $-1 $201 $202 $16 $-1 $203 reversed single #
loop $-1 $-1 $126 $70 #
plane-surface $-1 0 -48.859132345056373 0 0 1 0 0 0 1 forward_v I I I I #
coedge $-1 $204 $205 $125 $206 forward $71 $-1 #
coedge $-1 $133 $73 $124 $206 reversed $45 $-1 #
coedge $-1 $131 $207 $73 $127 forward $122 $-1 #
edge $-1 $208 -8.1517716693719908 $135 -3.9052589039450378 $126 $209 forward 7 unknown #
coedge $-1 $75 $74 $210 $211 reversed $29 $-1 #
coedge $-1 $212 $213 $74 $130 forward $214 $-1 #
edge $-1 $215 -41.804811215793308 $134 -26.282090294390763 $129 $216 forward 7 unknown #
coedge $-1 $217 $126 $75 $132 forward $122 $-1 #
edge $-1 $135 26.282090294390763 $218 41.804811215793308 $131 $219 forward 7 unknown #
coedge $-1 $76 $125 $212 $220 reversed $45 $-1 #
vertex $-1 $130 $221 #
vertex $-1 $132 $222 #
straight-curve $-1 -60.325541049482801 0 9.9337741906035522 0 -1 0 I I #
face $-1 $223 $151 $17 $-1 $224 forward single #
loop $-1 $-1 $225 $78 #
plane-surface $-1 0 0 14.180286956030507 0 0 1 1 0 0 forward_v I I I I #
coedge $-1 $226 $227 $225 $228 reversed $79 $-1 #
coedge $-1 $142 $81 $227 $229 forward $49 $-1 #
coedge $-1 $81 $141 $230 $231 reversed $49 $-1 #
coedge $-1 $232 $225 $81 $144 forward $138 $-1 #
edge $-1 $233 -36.293684547417044 $234 -22.267287278955855 $143 $235 forward 7 unknown #
coedge $-1 $236 $237 $82 $146 forward $238 $-1 #
edge $-1 $239 -58.15841353931723 $153 -51.446303505909619 $145 $240 forward 7 unknown #
coedge $-1 $241 $226 $83 $148 reversed $79 $-1 #
edge $-1 $239 -9.1534652039358102e-015 $152 10.902273762840197 $83 $242 forward 7 unknown #
coedge $-1 $243 $84 $244 $245 reversed $151 $-1 #
coedge $-1 $84 $246 $236 $247 reversed $151 $-1 #
loop $-1 $-1 $149 $137 #
vertex $-1 $85 $248 #
vertex $-1 $247 $249 #
straight-curve $-1 -60.325541049482801 0 9.9337741906035522 0 -1 0 I I #
face $-1 $250 $161 $18 $-1 $251 forward single #
loop $-1 $-1 $252 $86 #
plane-surface $-1 -39.979054578111587 -142.25283924802446 122.76015539302634 -1 0 0 0 -0.61566148304635926 0.78801074757464917 forward_v I I I I #
coedge $-1 $253 $254 $255 $256 forward $87 $-1 #
coedge $-1 $159 $159 $-1 $257 forward $89 $-1 #
edge $-1 $258 0 $258 6.2831853071796004 $90 $259 forward 7 unknown #
loop $-1 $260 $92 $155 #
vertex $-1 $93 $261 #
ellipse-curve $-1 -54.512259200519594 -41.845933710825783 8.7009755566132192 0 0.61566148304635926 -0.78801074757464917 2 0 0 1 I I #
face $-1 $262 $263 $19 $-1 $264 forward single #
loop $-1 $265 $266 $94 #
cone-surface $-1 -54.512259200519594 -39.891062417128097 6.1988544527615161 0 0.61566148304635926 -0.78801074757464917 1 0 0 1 I I -0.70710678118654746 0.70710678118654746 1 forward I I I I #
loop $-1 $-1 $267 $57 #
coedge $-1 $168 $168 $268 $269 reversed $95 $-1 #
coedge $-1 $169 $169 $-1 $270 forward $97 $-1 #
edge $-1 $271 0 $271 6.2831853071796004 $98 $272 forward 7 unknown #
loop $-1 $273 $100 $274 #
vertex $-1 $101 $275 #
ellipse-curve $-1 -45.792336427074787 -41.845933710825783 8.7009755566132192 0 0.61566148304635926 -0.78801074757464917 2 0 0 1 I I #
face $-1 $-1 $117 $15 $-1 $276 reversed single #
loop $-1 $-1 $190 $102 #
plane-surface $-1 0 48.859132345056373 0 0 -1 0 0 0 -1 forward_v I I I I #
coedge $-1 $277 $188 $191 $278 forward $103 $-1 #
coedge $-1 $194 $105 $106 $182 reversed $63 $-1 #
coedge $-1 $188 $277 $105 $180 reversed $103 $-1 #
edge $-1 $195 -14.180286956030507 $279 14.180286956030507 $179 $280 forward 7 unknown #
coedge $-1 $107 $106 $277 $281 forward $41 $-1 #
edge $-1 $186 -75.848261970885346 $279 75.848261970885346 $178 $282 forward 7 unknown #
coedge $-1 $191 $190 $107 $184 reversed $175 $-1 #
edge $-1 $283 -75.848261970885346 $185 75.848261970885346 $183 $284 forward 7 unknown #
vertex $-1 $109 $285 #
vertex $-1 $197 $286 #
straight-curve $-1 75.848261970885346 0 -14.180286956030507 0 -1 0 I I #
coedge $-1 $177 $179 $110 $189 reversed $103 $-1 #
edge $-1 $192 -48.859132345056373 $195 48.859132345056373 $188 $287 forward 7 unknown #
coedge $-1 $183 $111 $116 $198 forward $175 $-1 #
coedge $-1 $111 $183 $177 $278 reversed $175 $-1 #
vertex $-1 $112 $288 #
straight-curve $-1 0 48.859132345056373 14.180286956030507 -1 0 0 I I #
coedge $-1 $113 $178 $115 $197 reversed $63 $-1 #
vertex $-1 $189 $289 #
straight-curve $-1 0 -48.859132345056373 14.180286956030507 1 0 0 I I #
edge $-1 $118 -14.180286956030507 $186 14.180286956030507 $115 $290 forward 7 unknown #
edge $-1 $119 -14.180286956030507 $185 14.180286956030507 $116 $291 forward 7 unknown #
point $-1 75.848261970885346 -48.859132345056373 14.180286956030507 #
point $-1 75.848261970885346 48.859132345056373 14.180286956030507 #
face $-1 $292 $293 $16 $-1 $294 reversed single #
loop $-1 $-1 $295 $121 #
plane-surface $-1 0 0 -14.180286956030507 0 0 1 1 0 0 forward_v I I I I #
coedge $-1 $296 $124 $207 $297 forward $71 $-1 #
coedge $-1 $124 $296 $298 $299 forward $71 $-1 #
edge $-1 $300 -48.859132345056373 $208 48.859132345056373 $124 $301 forward 7 unknown #
coedge $-1 $126 $302 $204 $297 reversed $122 $-1 #
vertex $-1 $297 $303 #
straight-curve $-1 -60.325541049482801 -48.859132345056373 6.0285152866585143 0 0 -1 I I #
coedge $-1 $304 $305 $128 $211 forward $293 $-1 #
edge $-1 $218 -48.859132345056373 $215 48.859132345056373 $210 $306 forward 7 unknown #
coedge $-1 $298 $129 $133 $220 forward $214 $-1 #
coedge $-1 $129 $307 $304 $308 reversed $214 $-1 #
loop $-1 $-1 $212 $292 #
vertex $-1 $308 $309 #
straight-curve $-1 -34.043450755092039 48.859132345056373 9.9337741906035522 1 0 0 I I #
coedge $-1 $310 $131 $305 $311 forward $122 $-1 #
vertex $-1 $311 $312 #
straight-curve $-1 -34.043450755092039 -48.859132345056373 9.9337741906035522 -1 0 0 I I #
edge $-1 $134 3.9052589039450378 $300 8.1517716693719908 $212 $313 forward 7 unknown #
point $-1 -60.325541049482801 48.859132345056373 9.9337741906035522 #
point $-1 -60.325541049482801 -48.859132345056373 9.9337741906035522 #
face $-1 $314 $315 $17 $-1 $316 forward single #
plane-surface $-1 -68.086901510184077 0 9.9337741906035522 0 0 1 1 0 0 forward_v I I I I #
coedge $-1 $143 $317 $140 $228 forward $138 $-1 #
coedge $-1 $147 $140 $318 $319 reversed $79 $-1 #
coedge $-1 $140 $241 $141 $229 reversed $79 $-1 #
edge $-1 $320 -35.249392142584206 $233 -14.902905671212991 $225 $321 forward 7 unknown #
edge $-1 $233 -17.799753761775243 $322 9.1534652039358102e-015 $141 $323 forward 7 unknown #
coedge $-1 $237 $324 $142 $231 forward $238 $-1 #
edge $-1 $234 47.199790740482662 $322 58.15841353931723 $230 $325 forward 7 unknown #
coedge $-1 $326 $143 $324 $327 forward $138 $-1 #
vertex $-1 $228 $328 #
vertex $-1 $327 $329 #
straight-curve $-1 -39.979054578111587 -71.126419624012229 14.180286956030507 0 -1 0 I I #
coedge $-1 $330 $145 $150 $247 forward $238 $-1 #
coedge $-1 $145 $230 $241 $331 forward $238 $-1 #
loop $-1 $-1 $145 $314 #
vertex $-1 $331 $332 #
straight-curve $-1 -60.325541049482794 -48.859132345056373 61.380077696513169 0 0 1 I I #
coedge $-1 $227 $147 $237 $331 reversed $79 $-1 #
straight-curve $-1 -60.325541049482794 -48.859132345056366 3.2216641571959457 0 0.78801074757464917 0.61566148304635926 I I #
coedge $-1 $246 $149 $333 $334 reversed $151 $-1 #
coedge $-1 $318 $335 $149 $245 forward $315 $-1 #
edge $-1 $336 -48.859132345056373 $152 40.268023446937178 $244 $154 forward 7 unknown #
coedge $-1 $150 $243 $337 $338 reversed $151 $-1 #
edge $-1 $153 26.282090294390763 $339 41.804811215793308 $236 $340 forward 7 unknown #
point $-1 -60.325541049482794 -40.268023446937178 9.9337741906035522 #
point $-1 -60.325541049482801 -48.859132345056373 9.9337741906035522 #
face $-1 $341 $342 $18 $-1 $343 forward single #
plane-surface $-1 -50.15229781379719 -48.859132345056366 3.2216641571959457 0 -0.61566148304635926 0.78801074757464917 1 0 0 forward_v I I I I #
coedge $-1 $344 $345 $346 $347 reversed $156 $-1 #
coedge $-1 $254 $158 $348 $349 reversed $87 $-1 #
coedge $-1 $158 $253 $350 $351 forward $87 $-1 #
coedge $-1 $352 $353 $158 $256 reversed $354 $-1 #
edge $-1 $355 40.268023446937178 $356 48.859132345056373 $255 $357 forward 7 unknown #
edge $-1 $358 1 $358 0 $159 $-1 forward 7 unknown #
vertex $-1 $160 $359 #
ellipse-curve $-1 -54.512259200519594 -40.506723900174457 6.9868652003361653 0 -0.61566148304635926 0.78801074757464917 2 0 0 1 I I #
loop $-1 $-1 $360 $155 #
point $-1 -52.512259200519594 -41.84593371082579 8.7009755566132334 #
face $-1 $274 $361 $19 $-1 $362 forward single #
loop $-1 $-1 $363 $164 #
plane-surface $-1 -60.325541049482794 -142.25283924802446 122.76015539302634 1 0 0 0 0.61566148304635926 -0.78801074757464917 forward_v I I I I #
loop $-1 $-1 $364 $94 #
coedge $-1 $266 $266 $267 $365 forward $165 $-1 #
coedge $-1 $267 $267 $266 $365 reversed $167 $-1 #
coedge $-1 $268 $268 $168 $269 forward $273 $-1 #
edge $-1 $366 -1.5749613827085417e-015 $366 6.2831853071795987 $268 $367 forward 7 unknown #
edge $-1 $368 1 $368 0 $169 $-1 forward 7 unknown #
vertex $-1 $170 $369 #
ellipse-curve $-1 -45.792336427074787 -40.506723900174457 6.9868652003361653 0 -0.61566148304635926 0.78801074757464917 2 0 0 1 I I #
loop $-1 $370 $268 $274 #
face $-1 $371 $171 $19 $-1 $372 forward single #
point $-1 -43.792336427074787 -41.84593371082579 8.7009755566132334 #
plane-surface $-1 75.848261970885346 0 0 -1 0 0 0 0 1 forward_v I I I I #
coedge $-1 $179 $177 $181 $281 reversed $103 $-1 #
edge $-1 $192 -14.180286956030507 $283 14.180286956030507 $191 $373 forward 7 unknown #
vertex $-1 $281 $374 #
straight-curve $-1 -75.848261970885346 -48.859132345056373 0 0 0 -1 I I #
edge $-1 $279 -48.859132345056373 $283 48.859132345056373 $277 $375 forward 7 unknown #
straight-curve $-1 0 -48.859132345056373 -14.180286956030507 -1 0 0 I I #
vertex $-1 $184 $376 #
straight-curve $-1 0 48.859132345056373 -14.180286956030507 1 0 0 I I #
point $-1 75.848261970885346 48.859132345056373 -14.180286956030507 #
point $-1 75.848261970885346 -48.859132345056373 -14.180286956030507 #
straight-curve $-1 -75.848261970885346 0 14.180286956030507 0 -1 0 I I #
point $-1 -75.848261970885346 48.859132345056373 14.180286956030507 #
point $-1 -75.848261970885346 -48.859132345056373 14.180286956030507 #
straight-curve $-1 75.848261970885346 -48.859132345056373 0 0 0 -1 I I #
straight-curve $-1 75.848261970885346 48.859132345056373 0 0 0 -1 I I #
face $-1 $377 $214 $16 $-1 $378 reversed single #
loop $-1 $-1 $210 $201 #
plane-surface $-1 -75.848261970885346 0 0 1 0 0 0 0 -1 forward_v I I I I #
coedge $-1 $379 $380 $381 $382 forward $202 $-1 #
coedge $-1 $205 $204 $383 $384 forward $71 $-1 #
edge $-1 $208 -60.325541049482801 $385 75.848261970885346 $207 $386 forward 7 unknown #
coedge $-1 $387 $212 $205 $299 reversed $214 $-1 #
edge $-1 $388 -75.848261970885346 $300 60.325541049482801 $298 $389 forward 7 unknown #
vertex $-1 $206 $390 #
straight-curve $-1 -60.325541049482801 0 14.180286956030507 0 -1 0 I I #
coedge $-1 $207 $310 $391 $392 reversed $122 $-1 #
point $-1 -60.325541049482801 -48.859132345056373 14.180286956030505 #
coedge $-1 $393 $210 $213 $308 forward $293 $-1 #
coedge $-1 $210 $393 $217 $311 reversed $293 $-1 #
straight-curve $-1 -75.848261970885346 0 9.9337741906035522 0 1 0 I I #
coedge $-1 $213 $387 $380 $394 reversed $214 $-1 #
edge $-1 $215 -9.9337741906035522 $395 14.180286956030507 $213 $396 forward 7 unknown #
point $-1 -75.848261970885346 48.859132345056373 9.9337741906035522 #
coedge $-1 $302 $217 $379 $397 reversed $122 $-1 #
edge $-1 $218 -9.9337741906035522 $398 14.180286956030507 $305 $399 forward 7 unknown #
point $-1 -75.848261970885346 -48.859132345056373 9.9337741906035522 #
straight-curve $-1 -60.325541049482801 48.859132345056373 6.0285152866585143 0 0 1 I I #
face $-1 $400 $238 $17 $-1 $401 reversed single #
loop $-1 $-1 $318 $223 #
plane-surface $-1 -60.325541049482801 0 12.057030573317029 -1 0 0 0 0 1 forward_v I I I I #
coedge $-1 $225 $402 $403 $404 forward $138 $-1 #
coedge $-1 $403 $244 $226 $319 forward $315 $-1 #
edge $-1 $152 -11.06828433520165 $320 -4.1708043362666025 $318 $405 forward 7 unknown #
vertex $-1 $228 $406 #
straight-curve $-1 -25.076148906898595 -34.832735076595178 14.180286956030507 1 0 0 I I #
vertex $-1 $331 $407 #
straight-curve $-1 -39.979054578111587 -48.859132345056366 3.2216641571959457 0 -0.78801074757464917 -0.61566148304635926 I I #
coedge $-1 $230 $408 $232 $327 reversed $238 $-1 #
straight-curve $-1 -39.979054578111587 -48.859132345056373 61.380077696513169 0 0 -1 I I #
coedge $-1 $402 $232 $409 $410 forward $138 $-1 #
edge $-1 $234 -39.979054578111587 $411 75.848261970885346 $324 $412 forward 7 unknown #
point $-1 -39.979054578111587 -34.832735076595185 14.180286956030505 #
point $-1 -39.979054578111587 -48.859132345056373 14.180286956030507 #
coedge $-1 $413 $236 $414 $415 forward $238 $-1 #
edge $-1 $322 14.902905671212991 $239 35.249392142584199 $237 $416 forward 7 unknown #
point $-1 -60.325541049482794 -48.859132345056373 3.2216641571959399 #
coedge $-1 $417 $418 $243 $334 forward $419 $-1 #
edge $-1 $420 -41.804811215793308 $336 -26.282090294390763 $333 $421 forward 7 unknown #
coedge $-1 $244 $403 $417 $422 reversed $315 $-1 #
vertex $-1 $334 $423 #
coedge $-1 $424 $414 $246 $338 forward $425 $-1 #
edge $-1 $339 -48.859132345056373 $420 48.859132345056373 $337 $426 forward 7 unknown #
vertex $-1 $415 $427 #
straight-curve $-1 -34.043450755092039 -48.859132345056373 9.9337741906035522 -1 0 0 I I #
face $-1 $428 $354 $18 $-1 $429 forward single #
loop $-1 $-1 $430 $250 #
plane-surface $-1 0 0 14.180286956030507 0 0 1 1 0 0 forward_v I I I I #
coedge $-1 $345 $252 $431 $432 forward $156 $-1 #
coedge $-1 $252 $344 $433 $434 reversed $156 $-1 #
coedge $-1 $435 $430 $252 $347 forward $342 $-1 #
edge $-1 $436 -36.293684547417044 $437 -22.267287278955855 $346 $438 forward 7 unknown #
coedge $-1 $439 $440 $253 $349 forward $441 $-1 #
edge $-1 $442 -58.15841353931723 $356 -51.446303505909619 $348 $443 forward 7 unknown #
coedge $-1 $444 $445 $254 $351 reversed $260 $-1 #
edge $-1 $442 -9.1534652039358102e-015 $355 10.902273762840197 $254 $446 forward 7 unknown #
coedge $-1 $447 $255 $448 $449 reversed $354 $-1 #
coedge $-1 $255 $450 $439 $451 reversed $354 $-1 #
loop $-1 $-1 $352 $341 #
vertex $-1 $256 $452 #
vertex $-1 $451 $453 #
straight-curve $-1 -60.325541049482801 0 9.9337741906035522 0 -1 0 I I #
vertex $-1 $257 $454 #
point $-1 -52.512259200519594 -40.506723900174457 6.9868652003361653 #
coedge $-1 $445 $431 $430 $455 reversed $260 $-1 #
loop $-1 $-1 $456 $262 #
plane-surface $-1 -39.979054578111587 -142.25283924802446 122.76015539302634 -1 0 0 0 -0.61566148304635926 0.78801074757464917 forward_v I I I I #
coedge $-1 $457 $458 $459 $460 forward $263 $-1 #
coedge $-1 $364 $364 $-1 $461 forward $265 $-1 #
edge $-1 $462 0 $462 6.2831853071796004 $266 $463 forward 7 unknown #
vertex $-1 $269 $464 #
ellipse-curve $-1 -54.512259200519594 -41.845933710825783 8.7009755566132192 0 0.61566148304635926 -0.78801074757464917 2 0 0 1 I I #
vertex $-1 $270 $465 #
point $-1 -43.792336427074787 -40.506723900174457 6.9868652003361653 #
loop $-1 $-1 $466 $274 #
face $-1 $467 $468 $19 $-1 $469 forward single #
plane-surface $-1 -50.15229781379719 -48.859132345056366 3.2216641571959457 0 -0.61566148304635926 0.78801074757464917 1 0 0 forward_v I I I I #
straight-curve $-1 -75.848261970885346 48.859132345056373 0 0 0 -1 I I #
point $-1 -75.848261970885346 -48.859132345056373 -14.180286956030507 #
straight-curve $-1 -75.848261970885346 0 -14.180286956030507 0 1 0 I I #
point $-1 -75.848261970885346 48.859132345056373 -14.180286956030507 #
face $-1 $-1 $470 $16 $-1 $471 reversed single #
plane-surface $-1 0 48.859132345056373 0 0 -1 0 0 0 -1 forward_v I I I I #
coedge $-1 $472 $295 $310 $397 forward $202 $-1 #
coedge $-1 $295 $472 $307 $394 forward $202 $-1 #
coedge $-1 $473 $391 $295 $382 reversed $470 $-1 #
edge $-1 $474 -48.859132345056373 $475 48.859132345056373 $381 $476 forward 7 unknown #
coedge $-1 $391 $473 $296 $384 reversed $470 $-1 #
edge $-1 $385 -48.859132345056373 $388 48.859132345056373 $383 $477 forward 7 unknown #
vertex $-1 $384 $478 #
straight-curve $-1 0 -48.859132345056373 14.180286956030507 1 0 0 I I #
coedge $-1 $307 $298 $473 $479 forward $214 $-1 #
vertex $-1 $384 $480 #
straight-curve $-1 0 48.859132345056373 14.180286956030507 -1 0 0 I I #
point $-1 -60.325541049482801 48.859132345056373 14.180286956030505 #
coedge $-1 $381 $383 $302 $392 forward $470 $-1 #
edge $-1 $385 -14.180286956030507 $475 14.180286956030507 $391 $481 forward 7 unknown #
coedge $-1 $305 $304 $472 $482 reversed $293 $-1 #
edge $-1 $395 -75.848261970885346 $474 75.848261970885346 $307 $483 forward 7 unknown #
vertex $-1 $394 $484 #
straight-curve $-1 -75.848261970885346 48.859132345056373 0 0 0 -1 I I #
edge $-1 $475 -75.848261970885346 $398 75.848261970885346 $310 $485 forward 7 unknown #
vertex $-1 $482 $486 #
straight-curve $-1 -75.848261970885346 -48.859132345056373 0 0 0 -1 I I #
face $-1 $487 $488 $17 $-1 $489 reversed single #
plane-surface $-1 0 -48.859132345056373 0 0 1 0 0 0 1 forward_v I I I I #
coedge $-1 $317 $326 $490 $491 forward $138 $-1 #
coedge $-1 $335 $318 $317 $404 reversed $315 $-1 #
edge $-1 $492 -48.859132345056373 $320 34.832735076595185 $317 $493 forward 7 unknown #
straight-curve $-1 -60.325541049482801 -31.54609643358615 16.748090539192589 0 0.78801074757464917 0.61566148304635926 I I #
point $-1 -60.325541049482801 -34.832735076595185 14.180286956030507 #
point $-1 -39.979054578111587 -48.859132345056373 3.2216641571959399 #
coedge $-1 $324 $413 $494 $495 reversed $238 $-1 #
coedge $-1 $494 $496 $326 $410 reversed $497 $-1 #
edge $-1 $411 -48.859132345056373 $498 48.859132345056373 $409 $499 forward 7 unknown #
vertex $-1 $410 $500 #
straight-curve $-1 0 -48.859132345056373 14.180286956030507 1 0 0 I I #
coedge $-1 $408 $330 $501 $502 reversed $238 $-1 #
coedge $-1 $337 $503 $330 $415 reversed $425 $-1 #
edge $-1 $339 -9.9337741906035522 $504 14.180286956030507 $414 $505 forward 7 unknown #
straight-curve $-1 -25.076148906898595 -48.859132345056373 3.2216641571959381 -1 0 0 I I #
coedge $-1 $490 $333 $335 $422 forward $419 $-1 #
coedge $-1 $333 $506 $424 $507 reversed $419 $-1 #
loop $-1 $-1 $417 $508 #
vertex $-1 $507 $509 #
straight-curve $-1 -34.043450755092039 48.859132345056373 9.9337741906035522 1 0 0 I I #
edge $-1 $336 3.9052589039450378 $492 8.1517716693719908 $417 $510 forward 7 unknown #
point $-1 -60.325541049482801 48.859132345056373 9.9337741906035522 #
coedge $-1 $503 $337 $418 $507 forward $425 $-1 #
loop $-1 $-1 $337 $487 #
straight-curve $-1 -75.848261970885346 0 9.9337741906035522 0 1 0 I I #
point $-1 -75.848261970885346 -48.859132345056373 9.9337741906035522 #
face $-1 $511 $512 $18 $-1 $513 forward single #
plane-surface $-1 -68.086901510184077 0 9.9337741906035522 0 0 1 1 0 0 forward_v I I I I #
coedge $-1 $346 $514 $360 $455 forward $342 $-1 #
coedge $-1 $360 $444 $344 $432 reversed $260 $-1 #
edge $-1 $436 -17.799753761775243 $515 9.1534652039358102e-015 $344 $516 forward 7 unknown #
coedge $-1 $440 $517 $345 $434 forward $441 $-1 #
edge $-1 $437 47.199790740482662 $515 58.15841353931723 $433 $518 forward 7 unknown #
coedge $-1 $519 $346 $517 $520 forward $342 $-1 #
vertex $-1 $455 $521 #
vertex $-1 $520 $522 #
straight-curve $-1 -39.979054578111587 -71.126419624012229 14.180286956030507 0 -1 0 I I #
coedge $-1 $523 $348 $353 $451 forward $441 $-1 #
coedge $-1 $348 $433 $444 $524 forward $441 $-1 #
loop $-1 $-1 $348 $511 #
vertex $-1 $524 $525 #
straight-curve $-1 -60.325541049482794 -48.859132345056373 61.380077696513169 0 0 1 I I #
coedge $-1 $431 $350 $440 $524 reversed $260 $-1 #
coedge $-1 $350 $360 $526 $527 reversed $260 $-1 #
straight-curve $-1 -60.325541049482794 -48.859132345056366 3.2216641571959457 0 0.78801074757464917 0.61566148304635926 I I #
coedge $-1 $450 $352 $528 $529 reversed $354 $-1 #
coedge $-1 $526 $530 $352 $449 forward $512 $-1 #
edge $-1 $531 -48.859132345056373 $355 40.268023446937178 $448 $357 forward 7 unknown #
coedge $-1 $353 $447 $532 $533 reversed $354 $-1 #
edge $-1 $356 26.282090294390763 $534 41.804811215793308 $439 $535 forward 7 unknown #
point $-1 -60.325541049482794 -40.268023446937178 9.9337741906035522 #
point $-1 -60.325541049482801 -48.859132345056373 9.9337741906035522 #
point $-1 -54.512259200519594 -39.275400934081738 5.410843705186867 #
edge $-1 $536 -35.249392142584206 $436 -14.902905671212991 $430 $537 forward 7 unknown #
coedge $-1 $538 $539 $540 $541 reversed $361 $-1 #
coedge $-1 $458 $363 $542 $543 reversed $263 $-1 #
coedge $-1 $363 $457 $544 $545 forward $263 $-1 #
coedge $-1 $546 $547 $363 $460 reversed $548 $-1 #
edge $-1 $549 40.268023446937178 $550 48.859132345056373 $459 $551 forward 7 unknown #
edge $-1 $552 1 $552 0 $364 $-1 forward 7 unknown #
vertex $-1 $365 $553 #
ellipse-curve $-1 -54.512259200519594 -40.506723900174457 6.9868652003361653 0 -0.61566148304635926 0.78801074757464917 2 0 0 1 I I #
point $-1 -52.512259200519594 -41.84593371082579 8.7009755566132334 #
point $-1 -45.792336427074787 -39.275400934081738 5.410843705186867 #
coedge $-1 $554 $555 $556 $557 reversed $370 $-1 #
face $-1 $558 $548 $19 $-1 $559 forward single #
loop $-1 $-1 $556 $371 #
plane-surface $-1 0 0 14.180286956030507 0 0 1 1 0 0 forward_v I I I I #
loop $-1 $-1 $391 $377 #
plane-surface $-1 75.848261970885346 0 0 -1 0 0 0 0 1 forward_v I I I I #
coedge $-1 $380 $379 $393 $482 forward $202 $-1 #
coedge $-1 $383 $381 $387 $479 reversed $470 $-1 #
vertex $-1 $382 $560 #
vertex $-1 $392 $561 #
straight-curve $-1 75.848261970885346 0 -14.180286956030507 0 -1 0 I I #
straight-curve $-1 75.848261970885346 0 14.180286956030507 0 1 0 I I #
point $-1 75.848261970885346 -48.859132345056373 14.180286956030507 #
edge $-1 $388 -14.180286956030507 $474 14.180286956030507 $473 $562 forward 7 unknown #
point $-1 75.848261970885346 48.859132345056373 14.180286956030507 #
straight-curve $-1 75.848261970885346 -48.859132345056373 0 0 0 -1 I I #
edge $-1 $398 -48.859132345056373 $395 48.859132345056373 $393 $563 forward 7 unknown #
straight-curve $-1 0 48.859132345056373 -14.180286956030507 1 0 0 I I #
point $-1 -75.848261970885346 48.859132345056373 -14.180286956030507 #
straight-curve $-1 0 -48.859132345056373 -14.180286956030507 -1 0 0 I I #
point $-1 -75.848261970885346 -48.859132345056373 -14.180286956030507 #
face $-1 $508 $425 $17 $-1 $564 reversed single #
loop $-1 $-1 $565 $400 #
plane-surface $-1 0 0 -14.180286956030507 0 0 1 1 0 0 forward_v I I I I #
coedge $-1 $566 $417 $402 $491 reversed $419 $-1 #
edge $-1 $498 -75.848261970885346 $492 60.325541049482801 $490 $567 forward 7 unknown #
vertex $-1 $404 $568 #
straight-curve $-1 -60.325541049482801 0 14.180286956030507 0 -1 0 I I #
coedge $-1 $569 $409 $408 $495 forward $497 $-1 #
edge $-1 $411 -14.180286956030507 $570 14.180286956030507 $494 $571 forward 7 unknown #
coedge $-1 $409 $569 $566 $572 reversed $497 $-1 #
loop $-1 $-1 $494 $573 #
vertex $-1 $410 $574 #
straight-curve $-1 75.848261970885346 0 14.180286956030507 0 1 0 I I #
point $-1 75.848261970885346 -48.859132345056373 14.180286956030507 #
coedge $-1 $575 $565 $413 $502 forward $488 $-1 #
edge $-1 $570 -75.848261970885346 $504 75.848261970885346 $413 $576 forward 7 unknown #
coedge $-1 $414 $424 $575 $577 reversed $425 $-1 #
vertex $-1 $577 $578 #
straight-curve $-1 -75.848261970885346 -48.859132345056373 0 0 0 -1 I I #
coedge $-1 $418 $566 $579 $580 reversed $419 $-1 #
edge $-1 $420 -9.9337741906035522 $581 14.180286956030507 $418 $582 forward 7 unknown #
face $-1 $573 $419 $17 $-1 $583 reversed single #
point $-1 -75.848261970885346 48.859132345056373 9.9337741906035522 #
straight-curve $-1 -60.325541049482801 48.859132345056373 6.0285152866585143 0 0 1 I I #
face $-1 $584 $441 $18 $-1 $585 reversed single #
loop $-1 $-1 $526 $428 #
plane-surface $-1 -60.325541049482801 0 12.057030573317029 -1 0 0 0 0 1 forward_v I I I I #
coedge $-1 $430 $586 $587 $588 forward $342 $-1 #
vertex $-1 $524 $589 #
straight-curve $-1 -39.979054578111587 -48.859132345056366 3.2216641571959457 0 -0.78801074757464917 -0.61566148304635926 I I #
coedge $-1 $433 $590 $435 $520 reversed $441 $-1 #
straight-curve $-1 -39.979054578111587 -48.859132345056373 61.380077696513169 0 0 -1 I I #
coedge $-1 $586 $435 $591 $592 forward $342 $-1 #
edge $-1 $437 -39.979054578111587 $593 75.848261970885346 $517 $594 forward 7 unknown #
point $-1 -39.979054578111587 -34.832735076595185 14.180286956030505 #
point $-1 -39.979054578111587 -48.859132345056373 14.180286956030507 #
coedge $-1 $595 $439 $596 $597 forward $441 $-1 #
edge $-1 $515 14.902905671212991 $442 35.249392142584199 $440 $598 forward 7 unknown #
point $-1 -60.325541049482794 -48.859132345056373 3.2216641571959399 #
coedge $-1 $587 $448 $445 $527 forward $512 $-1 #
edge $-1 $355 -11.06828433520165 $536 -4.1708043362666025 $526 $599 forward 7 unknown #
coedge $-1 $600 $601 $447 $529 forward $602 $-1 #
edge $-1 $603 -41.804811215793308 $531 -26.282090294390763 $528 $604 forward 7 unknown #
coedge $-1 $448 $587 $600 $605 reversed $512 $-1 #
vertex $-1 $529 $606 #
coedge $-1 $607 $596 $450 $533 forward $608 $-1 #
edge $-1 $534 -48.859132345056373 $603 48.859132345056373 $532 $609 forward 7 unknown #
vertex $-1 $597 $610 #
straight-curve $-1 -34.043450755092039 -48.859132345056373 9.9337741906035522 -1 0 0 I I #
vertex $-1 $455 $611 #
straight-curve $-1 -25.076148906898595 -34.832735076595178 14.180286956030507 1 0 0 I I #
coedge $-1 $539 $456 $555 $612 forward $361 $-1 #
coedge $-1 $456 $538 $613 $614 reversed $361 $-1 #
coedge $-1 $615 $556 $456 $541 forward $468 $-1 #
edge $-1 $616 -36.293684547417044 $617 -22.267287278955855 $540 $618 forward 7 unknown #
coedge $-1 $619 $620 $457 $543 forward $621 $-1 #
edge $-1 $622 -58.15841353931723 $550 -51.446303505909619 $542 $623 forward 7 unknown #
coedge $-1 $624 $554 $458 $545 reversed $370 $-1 #
edge $-1 $622 -9.1534652039358102e-015 $549 10.902273762840197 $458 $625 forward 7 unknown #
coedge $-1 $626 $459 $627 $628 reversed $548 $-1 #
coedge $-1 $459 $629 $619 $630 reversed $548 $-1 #
loop $-1 $-1 $546 $467 #
vertex $-1 $460 $631 #
vertex $-1 $630 $632 #
straight-curve $-1 -60.325541049482801 0 9.9337741906035522 0 -1 0 I I #
vertex $-1 $461 $633 #
point $-1 -52.512259200519594 -40.506723900174457 6.9868652003361653 #
coedge $-1 $544 $466 $634 $635 reversed $370 $-1 #
coedge $-1 $466 $624 $538 $612 reversed $370 $-1 #
coedge $-1 $540 $636 $466 $557 forward $468 $-1 #
edge $-1 $637 -35.249392142584206 $616 -14.902905671212991 $556 $638 forward 7 unknown #
face $-1 $639 $640 $19 $-1 $641 forward single #
plane-surface $-1 -68.086901510184077 0 9.9337741906035522 0 0 1 1 0 0 forward_v I I I I #
point $-1 75.848261970885346 48.859132345056373 -14.180286956030507 #
point $-1 75.848261970885346 -48.859132345056373 -14.180286956030507 #
straight-curve $-1 75.848261970885346 48.859132345056373 0 0 0 -1 I I #
straight-curve $-1 -75.848261970885346 0 -14.180286956030507 0 1 0 I I #
plane-surface $-1 -75.848261970885346 0 0 1 0 0 0 0 -1 forward_v I I I I #
coedge $-1 $501 $579 $569 $642 forward $488 $-1 #
coedge $-1 $506 $490 $496 $572 forward $419 $-1 #
straight-curve $-1 0 48.859132345056373 14.180286956030507 -1 0 0 I I #
point $-1 -60.325541049482801 48.859132345056373 14.180286956030505 #
coedge $-1 $496 $494 $565 $642 reversed $497 $-1 #
vertex $-1 $495 $643 #
straight-curve $-1 75.848261970885346 -48.859132345056373 0 0 0 -1 I I #
edge $-1 $498 -14.180286956030507 $644 14.180286956030507 $496 $645 forward 7 unknown #
face $-1 $-1 $497 $17 $-1 $646 reversed single #
point $-1 75.848261970885346 48.859132345056373 14.180286956030507 #
coedge $-1 $579 $501 $503 $577 forward $488 $-1 #
straight-curve $-1 0 -48.859132345056373 -14.180286956030507 -1 0 0 I I #
edge $-1 $504 -48.859132345056373 $581 48.859132345056373 $503 $647 forward 7 unknown #
point $-1 -75.848261970885346 -48.859132345056373 -14.180286956030507 #
coedge $-1 $565 $575 $506 $580 forward $488 $-1 #
edge $-1 $581 -75.848261970885346 $644 75.848261970885346 $506 $648 forward 7 unknown #
vertex $-1 $580 $649 #
straight-curve $-1 -75.848261970885346 48.859132345056373 0 0 0 -1 I I #
plane-surface $-1 0 48.859132345056373 0 0 -1 0 0 0 -1 forward_v I I I I #
face $-1 $650 $651 $18 $-1 $652 reversed single #
plane-surface $-1 0 -48.859132345056373 0 0 1 0 0 0 1 forward_v I I I I #
coedge $-1 $514 $519 $653 $654 forward $342 $-1 #
coedge $-1 $530 $526 $514 $588 reversed $512 $-1 #
edge $-1 $655 -48.859132345056373 $536 34.832735076595185 $514 $656 forward 7 unknown #
point $-1 -39.979054578111587 -48.859132345056373 3.2216641571959399 #
coedge $-1 $517 $595 $657 $658 reversed $441 $-1 #
coedge $-1 $657 $659 $519 $592 reversed $660 $-1 #
edge $-1 $593 -48.859132345056373 $661 48.859132345056373 $591 $662 forward 7 unknown #
vertex $-1 $592 $663 #
straight-curve $-1 0 -48.859132345056373 14.180286956030507 1 0 0 I I #
coedge $-1 $590 $523 $664 $665 reversed $441 $-1 #
coedge $-1 $532 $666 $523 $597 reversed $608 $-1 #
edge $-1 $534 -9.9337741906035522 $667 14.180286956030507 $596 $668 forward 7 unknown #
straight-curve $-1 -25.076148906898595 -48.859132345056373 3.2216641571959381 -1 0 0 I I #
straight-curve $-1 -60.325541049482801 -31.54609643358615 16.748090539192589 0 0.78801074757464917 0.61566148304635926 I I #
coedge $-1 $653 $528 $530 $605 forward $602 $-1 #
coedge $-1 $528 $669 $607 $670 reversed $602 $-1 #
loop $-1 $-1 $600 $671 #
vertex $-1 $670 $672 #
straight-curve $-1 -34.043450755092039 48.859132345056373 9.9337741906035522 1 0 0 I I #
edge $-1 $531 3.9052589039450378 $655 8.1517716693719908 $600 $673 forward 7 unknown #
point $-1 -60.325541049482801 48.859132345056373 9.9337741906035522 #
coedge $-1 $666 $532 $601 $670 forward $608 $-1 #
loop $-1 $-1 $532 $650 #
straight-curve $-1 -75.848261970885346 0 9.9337741906035522 0 1 0 I I #
point $-1 -75.848261970885346 -48.859132345056373 9.9337741906035522 #
point $-1 -60.325541049482801 -34.832735076595185 14.180286956030507 #
edge $-1 $616 -17.799753761775243 $674 9.1534652039358102e-015 $538 $675 forward 7 unknown #
coedge $-1 $620 $676 $539 $614 forward $621 $-1 #
edge $-1 $617 47.199790740482662 $674 58.15841353931723 $613 $677 forward 7 unknown #
coedge $-1 $678 $540 $676 $679 forward $468 $-1 #
vertex $-1 $557 $680 #
vertex $-1 $679 $681 #
straight-curve $-1 -39.979054578111587 -71.126419624012229 14.180286956030507 0 -1 0 I I #
coedge $-1 $682 $542 $547 $630 forward $621 $-1 #
coedge $-1 $542 $613 $624 $683 forward $621 $-1 #
loop $-1 $-1 $542 $639 #
vertex $-1 $683 $684 #
straight-curve $-1 -60.325541049482794 -48.859132345056373 61.380077696513169 0 0 1 I I #
coedge $-1 $555 $544 $620 $683 reversed $370 $-1 #
straight-curve $-1 -60.325541049482794 -48.859132345056366 3.2216641571959457 0 0.78801074757464917 0.61566148304635926 I I #
coedge $-1 $629 $546 $685 $686 reversed $548 $-1 #
coedge $-1 $634 $687 $546 $628 forward $640 $-1 #
edge $-1 $688 -48.859132345056373 $549 40.268023446937178 $627 $551 forward 7 unknown #
coedge $-1 $547 $626 $689 $690 reversed $548 $-1 #
edge $-1 $550 26.282090294390763 $691 41.804811215793308 $619 $692 forward 7 unknown #
point $-1 -60.325541049482794 -40.268023446937178 9.9337741906035522 #
point $-1 -60.325541049482801 -48.859132345056373 9.9337741906035522 #
point $-1 -54.512259200519594 -39.275400934081738 5.410843705186867 #
coedge $-1 $693 $627 $554 $635 forward $640 $-1 #
edge $-1 $549 -11.06828433520165 $637 -4.1708043362666025 $634 $694 forward 7 unknown #
coedge $-1 $556 $695 $693 $696 forward $468 $-1 #
vertex $-1 $557 $697 #
straight-curve $-1 -25.076148906898595 -34.832735076595178 14.180286956030507 1 0 0 I I #
face $-1 $698 $621 $19 $-1 $699 reversed single #
loop $-1 $-1 $634 $558 #
plane-surface $-1 -60.325541049482801 0 12.057030573317029 -1 0 0 0 0 1 forward_v I I I I #
edge $-1 $644 -48.859132345056373 $570 48.859132345056373 $569 $700 forward 7 unknown #
point $-1 75.848261970885346 -48.859132345056373 -14.180286956030507 #
vertex $-1 $642 $701 #
straight-curve $-1 75.848261970885346 48.859132345056373 0 0 0 -1 I I #
plane-surface $-1 75.848261970885346 0 0 -1 0 0 0 0 1 forward_v I I I I #
straight-curve $-1 -75.848261970885346 0 -14.180286956030507 0 1 0 I I #
straight-curve $-1 0 48.859132345056373 -14.180286956030507 1 0 0 I I #
point $-1 -75.848261970885346 48.859132345056373 -14.180286956030507 #
face $-1 $671 $608 $18 $-1 $702 reversed single #
loop $-1 $-1 $703 $584 #
plane-surface $-1 0 0 -14.180286956030507 0 0 1 1 0 0 forward_v I I I I #
coedge $-1 $704 $600 $586 $654 reversed $602 $-1 #
edge $-1 $661 -75.848261970885346 $655 60.325541049482801 $653 $705 forward 7 unknown #
vertex $-1 $588 $706 #
straight-curve $-1 -60.325541049482801 0 14.180286956030507 0 -1 0 I I #
coedge $-1 $707 $591 $590 $658 forward $660 $-1 #
edge $-1 $593 -14.180286956030507 $708 14.180286956030507 $657 $709 forward 7 unknown #
coedge $-1 $591 $707 $704 $710 reversed $660 $-1 #
loop $-1 $-1 $657 $711 #
vertex $-1 $592 $712 #
straight-curve $-1 75.848261970885346 0 14.180286956030507 0 1 0 I I #
point $-1 75.848261970885346 -48.859132345056373 14.180286956030507 #
coedge $-1 $713 $703 $595 $665 forward $651 $-1 #
edge $-1 $708 -75.848261970885346 $667 75.848261970885346 $595 $714 forward 7 unknown #
coedge $-1 $596 $607 $713 $715 reversed $608 $-1 #
vertex $-1 $715 $716 #
straight-curve $-1 -75.848261970885346 -48.859132345056373 0 0 0 -1 I I #
coedge $-1 $601 $704 $717 $718 reversed $602 $-1 #
edge $-1 $603 -9.9337741906035522 $719 14.180286956030507 $601 $720 forward 7 unknown #
face $-1 $711 $602 $18 $-1 $721 reversed single #
point $-1 -75.848261970885346 48.859132345056373 9.9337741906035522 #
straight-curve $-1 -60.325541049482801 48.859132345056373 6.0285152866585143 0 0 1 I I #
vertex $-1 $683 $722 #
straight-curve $-1 -39.979054578111587 -48.859132345056366 3.2216641571959457 0 -0.78801074757464917 -0.61566148304635926 I I #
coedge $-1 $613 $723 $615 $679 reversed $621 $-1 #
straight-curve $-1 -39.979054578111587 -48.859132345056373 61.380077696513169 0 0 -1 I I #
coedge $-1 $695 $615 $724 $725 forward $468 $-1 #
edge $-1 $617 -39.979054578111587 $726 75.848261970885346 $676 $727 forward 7 unknown #
point $-1 -39.979054578111587 -34.832735076595185 14.180286956030505 #
point $-1 -39.979054578111587 -48.859132345056373 14.180286956030507 #
coedge $-1 $728 $619 $729 $730 forward $621 $-1 #
edge $-1 $674 14.902905671212991 $622 35.249392142584199 $620 $731 forward 7 unknown #
point $-1 -60.325541049482794 -48.859132345056373 3.2216641571959399 #
coedge $-1 $732 $733 $626 $686 forward $734 $-1 #
edge $-1 $735 -41.804811215793308 $688 -26.282090294390763 $685 $736 forward 7 unknown #
coedge $-1 $627 $693 $732 $737 reversed $640 $-1 #
vertex $-1 $686 $738 #
coedge $-1 $739 $729 $629 $690 forward $740 $-1 #
edge $-1 $691 -48.859132345056373 $735 48.859132345056373 $689 $741 forward 7 unknown #
vertex $-1 $730 $742 #
straight-curve $-1 -34.043450755092039 -48.859132345056373 9.9337741906035522 -1 0 0 I I #
coedge $-1 $687 $634 $636 $696 reversed $640 $-1 #
straight-curve $-1 -60.325541049482801 -31.54609643358615 16.748090539192589 0 0.78801074757464917 0.61566148304635926 I I #
coedge $-1 $636 $678 $743 $744 forward $468 $-1 #
edge $-1 $745 -48.859132345056373 $637 34.832735076595185 $636 $746 forward 7 unknown #
point $-1 -60.325541049482801 -34.832735076595185 14.180286956030507 #
face $-1 $747 $748 $19 $-1 $749 reversed single #
plane-surface $-1 0 -48.859132345056373 0 0 1 0 0 0 1 forward_v I I I I #
straight-curve $-1 75.848261970885346 0 -14.180286956030507 0 -1 0 I I #
point $-1 75.848261970885346 48.859132345056373 -14.180286956030507 #
plane-surface $-1 -75.848261970885346 0 0 1 0 0 0 0 -1 forward_v I I I I #
coedge $-1 $664 $717 $707 $750 forward $651 $-1 #
coedge $-1 $669 $653 $659 $710 forward $602 $-1 #
straight-curve $-1 0 48.859132345056373 14.180286956030507 -1 0 0 I I #
point $-1 -60.325541049482801 48.859132345056373 14.180286956030505 #
coedge $-1 $659 $657 $703 $750 reversed $660 $-1 #
vertex $-1 $658 $751 #
straight-curve $-1 75.848261970885346 -48.859132345056373 0 0 0 -1 I I #
edge $-1 $661 -14.180286956030507 $752 14.180286956030507 $659 $753 forward 7 unknown #
face $-1 $-1 $660 $18 $-1 $754 reversed single #
point $-1 75.848261970885346 48.859132345056373 14.180286956030507 #
coedge $-1 $717 $664 $666 $715 forward $651 $-1 #
straight-curve $-1 0 -48.859132345056373 -14.180286956030507 -1 0 0 I I #
edge $-1 $667 -48.859132345056373 $719 48.859132345056373 $666 $755 forward 7 unknown #
point $-1 -75.848261970885346 -48.859132345056373 -14.180286956030507 #
coedge $-1 $703 $713 $669 $718 forward $651 $-1 #
edge $-1 $719 -75.848261970885346 $752 75.848261970885346 $669 $756 forward 7 unknown #
vertex $-1 $718 $757 #
straight-curve $-1 -75.848261970885346 48.859132345056373 0 0 0 -1 I I #
plane-surface $-1 0 48.859132345056373 0 0 -1 0 0 0 -1 forward_v I I I I #
point $-1 -39.979054578111587 -48.859132345056373 3.2216641571959399 #
coedge $-1 $676 $728 $758 $759 reversed $621 $-1 #
coedge $-1 $758 $760 $678 $725 reversed $761 $-1 #
edge $-1 $726 -48.859132345056373 $762 48.859132345056373 $724 $763 forward 7 unknown #
vertex $-1 $725 $764 #
straight-curve $-1 0 -48.859132345056373 14.180286956030507 1 0 0 I I #
coedge $-1 $723 $682 $765 $766 reversed $621 $-1 #
coedge $-1 $689 $767 $682 $730 reversed $740 $-1 #
edge $-1 $691 -9.9337741906035522 $768 14.180286956030507 $729 $769 forward 7 unknown #
straight-curve $-1 -25.076148906898595 -48.859132345056373 3.2216641571959381 -1 0 0 I I #
coedge $-1 $743 $685 $687 $737 forward $734 $-1 #
coedge $-1 $685 $770 $739 $771 reversed $734 $-1 #
loop $-1 $-1 $732 $772 #
vertex $-1 $771 $773 #
straight-curve $-1 -34.043450755092039 48.859132345056373 9.9337741906035522 1 0 0 I I #
edge $-1 $688 3.9052589039450378 $745 8.1517716693719908 $732 $774 forward 7 unknown #
point $-1 -60.325541049482801 48.859132345056373 9.9337741906035522 #
coedge $-1 $767 $689 $733 $771 forward $740 $-1 #
loop $-1 $-1 $689 $747 #
straight-curve $-1 -75.848261970885346 0 9.9337741906035522 0 1 0 I I #
point $-1 -75.848261970885346 -48.859132345056373 9.9337741906035522 #
coedge $-1 $775 $732 $695 $744 reversed $734 $-1 #
edge $-1 $762 -75.848261970885346 $745 60.325541049482801 $743 $776 forward 7 unknown #
vertex $-1 $696 $777 #
straight-curve $-1 -60.325541049482801 0 14.180286956030507 0 -1 0 I I #
face $-1 $772 $740 $19 $-1 $778 reversed single #
loop $-1 $-1 $779 $698 #
plane-surface $-1 0 0 -14.180286956030507 0 0 1 1 0 0 forward_v I I I I #
edge $-1 $752 -48.859132345056373 $708 48.859132345056373 $707 $780 forward 7 unknown #
point $-1 75.848261970885346 -48.859132345056373 -14.180286956030507 #
vertex $-1 $750 $781 #
straight-curve $-1 75.848261970885346 48.859132345056373 0 0 0 -1 I I #
plane-surface $-1 75.848261970885346 0 0 -1 0 0 0 0 1 forward_v I I I I #
straight-curve $-1 -75.848261970885346 0 -14.180286956030507 0 1 0 I I #
straight-curve $-1 0 48.859132345056373 -14.180286956030507 1 0 0 I I #
point $-1 -75.848261970885346 48.859132345056373 -14.180286956030507 #
coedge $-1 $782 $724 $723 $759 forward $761 $-1 #
edge $-1 $726 -14.180286956030507 $783 14.180286956030507 $758 $784 forward 7 unknown #
coedge $-1 $724 $782 $775 $785 reversed $761 $-1 #
loop $-1 $-1 $758 $786 #
vertex $-1 $725 $787 #
straight-curve $-1 75.848261970885346 0 14.180286956030507 0 1 0 I I #
point $-1 75.848261970885346 -48.859132345056373 14.180286956030507 #
coedge $-1 $788 $779 $728 $766 forward $748 $-1 #
edge $-1 $783 -75.848261970885346 $768 75.848261970885346 $728 $789 forward 7 unknown #
coedge $-1 $729 $739 $788 $790 reversed $740 $-1 #
vertex $-1 $790 $791 #
straight-curve $-1 -75.848261970885346 -48.859132345056373 0 0 0 -1 I I #
coedge $-1 $733 $775 $792 $793 reversed $734 $-1 #
edge $-1 $735 -9.9337741906035522 $794 14.180286956030507 $733 $795 forward 7 unknown #
face $-1 $786 $734 $19 $-1 $796 reversed single #
point $-1 -75.848261970885346 48.859132345056373 9.9337741906035522 #
straight-curve $-1 -60.325541049482801 48.859132345056373 6.0285152866585143 0 0 1 I I #
coedge $-1 $770 $743 $760 $785 forward $734 $-1 #
straight-curve $-1 0 48.859132345056373 14.180286956030507 -1 0 0 I I #
point $-1 -60.325541049482801 48.859132345056373 14.180286956030505 #
plane-surface $-1 -75.848261970885346 0 0 1 0 0 0 0 -1 forward_v I I I I #
coedge $-1 $765 $792 $782 $797 forward $748 $-1 #
straight-curve $-1 75.848261970885346 0 -14.180286956030507 0 -1 0 I I #
point $-1 75.848261970885346 48.859132345056373 -14.180286956030507 #
coedge $-1 $760 $758 $779 $797 reversed $761 $-1 #
vertex $-1 $759 $798 #
straight-curve $-1 75.848261970885346 -48.859132345056373 0 0 0 -1 I I #
edge $-1 $762 -14.180286956030507 $799 14.180286956030507 $760 $800 forward 7 unknown #
face $-1 $-1 $761 $19 $-1 $801 reversed single #
point $-1 75.848261970885346 48.859132345056373 14.180286956030507 #
coedge $-1 $792 $765 $767 $790 forward $748 $-1 #
straight-curve $-1 0 -48.859132345056373 -14.180286956030507 -1 0 0 I I #
edge $-1 $768 -48.859132345056373 $794 48.859132345056373 $767 $802 forward 7 unknown #
point $-1 -75.848261970885346 -48.859132345056373 -14.180286956030507 #
coedge $-1 $779 $788 $770 $793 forward $748 $-1 #
edge $-1 $794 -75.848261970885346 $799 75.848261970885346 $770 $803 forward 7 unknown #
vertex $-1 $793 $804 #
straight-curve $-1 -75.848261970885346 48.859132345056373 0 0 0 -1 I I #
plane-surface $-1 0 48.859132345056373 0 0 -1 0 0 0 -1 forward_v I I I I #
edge $-1 $799 -48.859132345056373 $783 48.859132345056373 $782 $805 forward 7 unknown #
point $-1 75.848261970885346 -48.859132345056373 -14.180286956030507 #
vertex $-1 $797 $806 #
straight-curve $-1 75.848261970885346 48.859132345056373 0 0 0 -1 I I #
plane-surface $-1 75.848261970885346 0 0 -1 0 0 0 0 1 forward_v I I I I #
straight-curve $-1 -75.848261970885346 0 -14.180286956030507 0 1 0 I I #
straight-curve $-1 0 48.859132345056373 -14.180286956030507 1 0 0 I I #
point $-1 -75.848261970885346 48.859132345056373 -14.180286956030507 #
straight-curve $-1 75.848261970885346 0 -14.180286956030507 0 -1 0 I I #
point $-1 75.848261970885346 48.859132345056373 -14.180286956030507 #
End-of-ACIS-data 