500 0 19 0           
7 Unknown 11 ACIS 5.0 NT 24 Thu Mar 25 23:06:34 1999 
-1 9.9999999999999995e-007 1e-010 
body $-1 $19 $-1 $20 #
body $-1 $21 $-1 $22 #
body $-1 $23 $-1 $24 #
body $-1 $25 $-1 $26 #
body $-1 $27 $-1 $28 #
body $-1 $29 $-1 $30 #
body $-1 $31 $-1 $32 #
body $-1 $33 $-1 $34 #
body $-1 $35 $-1 $36 #
body $-1 $37 $-1 $38 #
body $-1 $39 $-1 $40 #
body $-1 $41 $-1 $42 #
body $-1 $43 $-1 $44 #
body $-1 $45 $-1 $46 #
body $-1 $47 $-1 $48 #
body $-1 $49 $-1 $50 #
body $-1 $51 $-1 $52 #
body $-1 $53 $-1 $54 #
body $-1 $55 $-1 $56 #
lump $-1 $-1 $57 $0 #
transform $-1 1 0 0 0 1 0 0 0 1 77.679372539445183 32.701813915162283 14.965867822125892 1 rotate no_reflect no_shear #
lump $-1 $-1 $58 $1 #
transform $-1 1 0 0 0 1 0 0 0 1 77.679372539445183 32.701813915162283 14.965867822125892 1 rotate no_reflect no_shear #
lump $-1 $-1 $59 $2 #
transform $-1 1 0 0 0 1 0 0 0 1 77.679372539445183 32.701813915162283 14.965867822125892 1 rotate no_reflect no_shear #
lump $-1 $-1 $60 $3 #
transform $-1 1 0 0 0 1 0 0 0 1 77.679372539445183 32.701813915162283 14.965867822125892 1 rotate no_reflect no_shear #
lump $-1 $-1 $61 $4 #
transform $-1 1 0 0 0 1 0 0 0 1 77.679372539445183 32.701813915162283 14.965867822125892 1 rotate no_reflect no_shear #
lump $-1 $-1 $62 $5 #
transform $-1 1 0 0 0 1 0 0 0 1 77.679372539445183 32.701813915162283 14.965867822125892 1 rotate no_reflect no_shear #
lump $-1 $-1 $63 $6 #
transform $-1 1 0 0 0 1 0 0 0 1 77.679372539445183 32.701813915162283 14.965867822125892 1 rotate no_reflect no_shear #
lump $-1 $-1 $64 $7 #
transform $-1 1 0 0 0 1 0 0 0 1 77.679372539445183 32.701813915162283 14.965867822125892 1 rotate no_reflect no_shear #
lump $-1 $-1 $65 $8 #
transform $-1 1 0 0 0 1 0 0 0 1 77.679372539445183 32.701813915162283 14.965867822125892 1 rotate no_reflect no_shear #
lump $-1 $-1 $66 $9 #
transform $-1 1 0 0 0 1 0 0 0 1 77.679372539445183 32.701813915162283 14.965867822125892 1 rotate no_reflect no_shear #
lump $-1 $-1 $67 $10 #
transform $-1 1 0 0 0 1 0 0 0 1 77.679372539445183 32.701813915162283 14.965867822125892 1 rotate no_reflect no_shear #
lump $-1 $-1 $68 $11 #
transform $-1 1 0 0 0 1 0 0 0 1 77.679372539445183 32.701813915162283 14.965867822125892 1 rotate no_reflect no_shear #
lump $-1 $-1 $69 $12 #
transform $-1 1 0 0 0 1 0 0 0 1 77.679372539445183 32.701813915162283 14.965867822125892 1 rotate no_reflect no_shear #
lump $-1 $-1 $70 $13 #
transform $-1 1 0 0 0 1 0 0 0 1 77.679372539445183 32.701813915162283 14.965867822125892 1 rotate no_reflect no_shear #
lump $-1 $-1 $71 $14 #
transform $-1 1 0 0 0 1 0 0 0 1 77.679372539445183 32.701813915162283 14.965867822125892 1 rotate no_reflect no_shear #
lump $-1 $-1 $72 $15 #
transform $-1 1 0 0 0 1 0 0 0 1 77.679372539445183 32.701813915162283 14.965867822125892 1 rotate no_reflect no_shear #
lump $-1 $-1 $73 $16 #
transform $-1 1 0 0 0 1 0 0 0 1 77.679372539445183 32.701813915162283 14.965867822125892 1 rotate no_reflect no_shear #
lump $-1 $-1 $74 $17 #
transform $-1 1 0 0 0 1 0 0 0 1 77.679372539445183 32.701813915162283 14.965867822125892 1 rotate no_reflect no_shear #
lump $-1 $-1 $75 $18 #
transform $-1 1 0 0 0 1 0 0 0 1 77.679372539445183 32.701813915162283 14.965867822125892 1 rotate no_reflect no_shear #
shell $-1 $-1 $-1 $76 $-1 $19 #
shell $-1 $-1 $-1 $77 $-1 $21 #
shell $-1 $-1 $-1 $78 $-1 $23 #
shell $-1 $-1 $-1 $79 $-1 $25 #
shell $-1 $-1 $-1 $80 $-1 $27 #
shell $-1 $-1 $-1 $81 $-1 $29 #
shell $-1 $-1 $-1 $82 $-1 $31 #
shell $-1 $-1 $-1 $83 $-1 $33 #
shell $-1 $-1 $-1 $84 $-1 $35 #
shell $-1 $-1 $-1 $85 $-1 $37 #
shell $-1 $-1 $-1 $86 $-1 $39 #
shell $-1 $-1 $-1 $87 $-1 $41 #
shell $-1 $-1 $-1 $88 $-1 $43 #
shell $-1 $-1 $-1 $89 $-1 $45 #
shell $-1 $-1 $-1 $90 $-1 $47 #
shell $-1 $-1 $-1 $91 $-1 $49 #
shell $-1 $-1 $-1 $92 $-1 $51 #
shell $-1 $-1 $-1 $93 $-1 $53 #
shell $-1 $-1 $-1 $94 $-1 $55 #
face $-1 $95 $96 $57 $-1 $97 forward single #
face $-1 $98 $99 $58 $-1 $100 forward single #
face $-1 $101 $102 $59 $-1 $103 forward single #
face $-1 $104 $105 $60 $-1 $106 reversed single #
face $-1 $107 $108 $61 $-1 $109 forward single #
face $-1 $110 $111 $62 $-1 $112 forward single #
face $-1 $113 $114 $63 $-1 $115 forward single #
face $-1 $116 $117 $64 $-1 $118 reversed single #
face $-1 $119 $120 $65 $-1 $121 forward single #
face $-1 $122 $123 $66 $-1 $124 forward single #
face $-1 $125 $126 $67 $-1 $127 forward single #
face $-1 $128 $129 $68 $-1 $130 reversed single #
face $-1 $131 $132 $69 $-1 $133 forward single #
face $-1 $134 $135 $70 $-1 $136 forward single #
face $-1 $137 $138 $71 $-1 $139 forward single #
face $-1 $140 $141 $72 $-1 $142 reversed single #
face $-1 $143 $144 $73 $-1 $145 forward single #
face $-1 $146 $147 $74 $-1 $148 forward single #
face $-1 $149 $150 $75 $-1 $151 forward single #
face $-1 $152 $153 $57 $-1 $154 reversed single #
loop $-1 $-1 $155 $76 #
plane-surface $-1 0 0 14.965867822125892 0 0 1 1 0 0 forward_v I I I I #
face $-1 $156 $157 $58 $-1 $158 reversed single #
loop $-1 $-1 $159 $77 #
plane-surface $-1 0 -32.701813915162283 0 0 1 0 0 0 1 forward_v I I I I #
face $-1 $160 $161 $59 $-1 $162 reversed single #
loop $-1 $-1 $163 $78 #
plane-surface $-1 0 32.701813915162283 0 0 -1 0 0 0 -1 forward_v I I I I #
face $-1 $164 $165 $60 $-1 $166 reversed single #
loop $-1 $-1 $167 $79 #
plane-surface $-1 -175.44979995957496 -5.379086694906249 128.99424585951311 0 1 0 -0.62932039886446345 0 0.77714595512881146 forward_v I I I I #
face $-1 $168 $169 $61 $-1 $170 forward single #
loop $-1 $171 $172 $80 #
cone-surface $-1 -73.130023834868652 -4.0447303323227644 11.108653740780795 0.62932039886446345 0 -0.77714595512881146 0.38857297756440573 0 0.31466019943223172 1 I I 0 1 0.5 forward I I I I #
face $-1 $173 $174 $62 $-1 $175 forward single #
loop $-1 $176 $177 $81 #
cone-surface $-1 -73.130023834868652 -2.0431957884475374 11.108653740780795 0.62932039886446345 0 -0.77714595512881146 0.38857297756440573 0 0.31466019943223172 1 I I 0 1 0.5 forward I I I I #
face $-1 $178 $179 $63 $-1 $180 forward single #
loop $-1 $181 $182 $82 #
cone-surface $-1 -73.130023834868652 -0.041661244572310352 11.108653740780795 0.62932039886446345 0 -0.77714595512881146 0.38857297756440573 0 0.31466019943223172 1 I I 0 1 0.5 forward I I I I #
face $-1 $183 $184 $64 $-1 $185 reversed single #
loop $-1 $-1 $186 $83 #
plane-surface $-1 81.513851117754655 -11.310597955930257 227.01236102304742 0 -1 0 -0.71933980857756763 0 -0.69465836192734942 forward_v I I I I #
face $-1 $187 $188 $65 $-1 $189 forward single #
loop $-1 $190 $191 $84 #
cone-surface $-1 73.449366057219024 -16.281336070230385 10.623678111858121 -0.71933980857756763 0 -0.69465836192734942 0.34732918096367471 0 -0.35966990428878381 1 I I 0 1 0.5 forward I I I I #
face $-1 $192 $193 $66 $-1 $194 forward single #
loop $-1 $195 $196 $85 #
cone-surface $-1 73.449366057219024 -14.417309277367838 10.623678111858121 -0.71933980857756763 0 -0.69465836192734942 0.34732918096367471 0 -0.35966990428878381 1 I I 0 1 0.5 forward I I I I #
face $-1 $197 $198 $67 $-1 $199 forward single #
loop $-1 $200 $201 $86 #
cone-surface $-1 73.449366057219024 -12.553282484505292 10.623678111858121 -0.71933980857756763 0 -0.69465836192734942 0.34732918096367471 0 -0.35966990428878381 1 I I 0 1 0.5 forward I I I I #
face $-1 $202 $203 $68 $-1 $204 reversed single #
loop $-1 $-1 $205 $87 #
plane-surface $-1 81.513851117754655 0.37208244327335471 227.01236102304742 0 -1 0 -0.71933980857756763 0 -0.69465836192734942 forward_v I I I I #
face $-1 $206 $207 $69 $-1 $208 forward single #
loop $-1 $209 $210 $88 #
cone-surface $-1 73.449366057219024 -4.5986556710267763 10.623678111858121 -0.71933980857756763 0 -0.69465836192734942 0.34732918096367471 0 -0.35966990428878381 1 I I 0 1 0.5 forward I I I I #
face $-1 $211 $212 $70 $-1 $213 forward single #
loop $-1 $214 $215 $89 #
cone-surface $-1 73.449366057219024 -2.7346288781642301 10.623678111858121 -0.71933980857756763 0 -0.69465836192734942 0.34732918096367471 0 -0.35966990428878381 1 I I 0 1 0.5 forward I I I I #
face $-1 $216 $217 $71 $-1 $218 forward single #
loop $-1 $219 $220 $90 #
cone-surface $-1 73.449366057219024 -0.87060208530168381 10.623678111858121 -0.71933980857756763 0 -0.69465836192734942 0.34732918096367471 0 -0.35966990428878381 1 I I 0 1 0.5 forward I I I I #
face $-1 $221 $222 $72 $-1 $223 reversed single #
loop $-1 $-1 $224 $91 #
plane-surface $-1 81.513851117754655 12.054762842476967 227.01236102304742 0 -1 0 -0.71933980857756763 0 -0.69465836192734942 forward_v I I I I #
face $-1 $225 $226 $73 $-1 $227 forward single #
loop $-1 $228 $229 $92 #
cone-surface $-1 73.449366057219024 7.0840247281768356 10.623678111858121 -0.71933980857756763 0 -0.69465836192734942 0.34732918096367471 0 -0.35966990428878381 1 I I 0 1 0.5 forward I I I I #
face $-1 $230 $231 $74 $-1 $232 forward single #
loop $-1 $233 $234 $93 #
cone-surface $-1 73.449366057219024 8.9480515210393818 10.623678111858121 -0.71933980857756763 0 -0.69465836192734942 0.34732918096367471 0 -0.35966990428878381 1 I I 0 1 0.5 forward I I I I #
face $-1 $235 $236 $75 $-1 $237 forward single #
loop $-1 $238 $239 $94 #
cone-surface $-1 73.449366057219024 10.812078313901928 10.623678111858121 -0.71933980857756763 0 -0.69465836192734942 0.34732918096367471 0 -0.35966990428878381 1 I I 0 1 0.5 forward I I I I #
face $-1 $240 $241 $57 $-1 $242 reversed single #
loop $-1 $-1 $243 $95 #
plane-surface $-1 0 0 -14.965867822125892 0 0 1 1 0 0 forward_v I I I I #
coedge $-1 $244 $245 $246 $247 forward $96 $-1 #
face $-1 $248 $249 $58 $-1 $250 reversed single #
loop $-1 $-1 $251 $98 #
plane-surface $-1 0 0 -14.965867822125892 0 0 1 1 0 0 forward_v I I I I #
coedge $-1 $252 $253 $254 $255 forward $99 $-1 #
face $-1 $256 $257 $59 $-1 $258 forward single #
loop $-1 $-1 $259 $101 #
plane-surface $-1 -77.679372539445183 0 0 1 0 0 0 0 -1 forward_v I I I I #
coedge $-1 $260 $261 $262 $263 forward $102 $-1 #
face $-1 $264 $265 $60 $-1 $266 reversed single #
loop $-1 $-1 $267 $104 #
plane-surface $-1 -77.679372539445183 -2.0431957884475374 8.2578255275653305 -0.62932039886446345 0 0.77714595512881146 0.77714595512881146 0 0.62932039886446345 forward_v I I I I #
coedge $-1 $268 $269 $270 $271 reversed $105 $-1 #
face $-1 $-1 $272 $61 $-1 $273 forward single #
loop $-1 $274 $275 $107 #
cone-surface $-1 -72.56521612315241 -4.0447303323227644 10.411174317933783 0.62932039886446345 0 -0.77714595512881146 0.19428648878220287 0 0.15733009971611586 1 I I -0.70710678118654746 0.70710678118654746 0.25 forward I I I I #
loop $-1 $-1 $276 $80 #
coedge $-1 $172 $172 $277 $278 reversed $108 $-1 #
face $-1 $-1 $279 $62 $-1 $280 forward single #
loop $-1 $281 $282 $110 #
cone-surface $-1 -72.56521612315241 -2.0431957884475374 10.411174317933783 0.62932039886446345 0 -0.77714595512881146 0.19428648878220287 0 0.15733009971611586 1 I I -0.70710678118654746 0.70710678118654746 0.25 forward I I I I #
loop $-1 $-1 $283 $81 #
coedge $-1 $177 $177 $284 $285 reversed $111 $-1 #
face $-1 $-1 $286 $63 $-1 $287 forward single #
loop $-1 $288 $289 $113 #
cone-surface $-1 -72.56521612315241 -0.041661244572310352 10.411174317933783 0.62932039886446345 0 -0.77714595512881146 0.19428648878220287 0 0.15733009971611586 1 I I -0.70710678118654746 0.70710678118654746 0.25 forward I I I I #
loop $-1 $-1 $290 $82 #
coedge $-1 $182 $182 $291 $292 reversed $114 $-1 #
face $-1 $293 $294 $64 $-1 $295 reversed single #
loop $-1 $-1 $296 $116 #
plane-surface $-1 -30.241878828145474 -14.417309277367835 119.09110965545678 0.71933980857756763 0 0.69465836192734942 0.69465836192734942 0 -0.71933980857756763 forward_v I I I I #
coedge $-1 $297 $298 $299 $300 reversed $117 $-1 #
face $-1 $-1 $301 $65 $-1 $302 forward single #
loop $-1 $303 $304 $119 #
cone-surface $-1 72.723862893703313 -16.281336070230385 9.9230678673931241 -0.71933980857756763 0 -0.69465836192734942 0.17366459048183736 0 -0.17983495214439191 1 I I -0.70710678118654746 0.70710678118654746 0.25 forward I I I I #
loop $-1 $-1 $305 $84 #
coedge $-1 $191 $191 $306 $307 reversed $120 $-1 #
face $-1 $-1 $308 $66 $-1 $309 forward single #
loop $-1 $310 $311 $122 #
cone-surface $-1 72.723862893703313 -14.417309277367838 9.9230678673931241 -0.71933980857756763 0 -0.69465836192734942 0.17366459048183736 0 -0.17983495214439191 1 I I -0.70710678118654746 0.70710678118654746 0.25 forward I I I I #
loop $-1 $-1 $312 $85 #
coedge $-1 $196 $196 $313 $314 reversed $123 $-1 #
face $-1 $-1 $315 $67 $-1 $316 forward single #
loop $-1 $317 $318 $125 #
cone-surface $-1 72.723862893703313 -12.553282484505292 9.9230678673931241 -0.71933980857756763 0 -0.69465836192734942 0.17366459048183736 0 -0.17983495214439191 1 I I -0.70710678118654746 0.70710678118654746 0.25 forward I I I I #
loop $-1 $-1 $319 $86 #
coedge $-1 $201 $201 $320 $321 reversed $126 $-1 #
face $-1 $322 $323 $68 $-1 $324 reversed single #
loop $-1 $-1 $325 $128 #
plane-surface $-1 -30.241878828145474 -2.734628878164223 119.09110965545678 0.71933980857756763 0 0.69465836192734942 0.69465836192734942 0 -0.71933980857756763 forward_v I I I I #
coedge $-1 $326 $327 $328 $329 reversed $129 $-1 #
face $-1 $-1 $330 $69 $-1 $331 forward single #
loop $-1 $332 $333 $131 #
cone-surface $-1 72.723862893703313 -4.5986556710267763 9.9230678673931241 -0.71933980857756763 0 -0.69465836192734942 0.17366459048183736 0 -0.17983495214439191 1 I I -0.70710678118654746 0.70710678118654746 0.25 forward I I I I #
loop $-1 $-1 $334 $88 #
coedge $-1 $210 $210 $335 $336 reversed $132 $-1 #
face $-1 $-1 $337 $70 $-1 $338 forward single #
loop $-1 $339 $340 $134 #
cone-surface $-1 72.723862893703313 -2.7346288781642301 9.9230678673931241 -0.71933980857756763 0 -0.69465836192734942 0.17366459048183736 0 -0.17983495214439191 1 I I -0.70710678118654746 0.70710678118654746 0.25 forward I I I I #
loop $-1 $-1 $341 $89 #
coedge $-1 $215 $215 $342 $343 reversed $135 $-1 #
face $-1 $-1 $344 $71 $-1 $345 forward single #
loop $-1 $346 $347 $137 #
cone-surface $-1 72.723862893703313 -0.87060208530168381 9.9230678673931241 -0.71933980857756763 0 -0.69465836192734942 0.17366459048183736 0 -0.17983495214439191 1 I I -0.70710678118654746 0.70710678118654746 0.25 forward I I I I #
loop $-1 $-1 $348 $90 #
coedge $-1 $220 $220 $349 $350 reversed $138 $-1 #
face $-1 $351 $352 $72 $-1 $353 reversed single #
loop $-1 $-1 $354 $140 #
plane-surface $-1 -30.241878828145474 8.9480515210393889 119.09110965545678 0.71933980857756763 0 0.69465836192734942 0.69465836192734942 0 -0.71933980857756763 forward_v I I I I #
coedge $-1 $355 $356 $357 $358 reversed $141 $-1 #
face $-1 $-1 $359 $73 $-1 $360 forward single #
loop $-1 $361 $362 $143 #
cone-surface $-1 72.723862893703313 7.0840247281768356 9.9230678673931241 -0.71933980857756763 0 -0.69465836192734942 0.17366459048183736 0 -0.17983495214439191 1 I I -0.70710678118654746 0.70710678118654746 0.25 forward I I I I #
loop $-1 $-1 $363 $92 #
coedge $-1 $229 $229 $364 $365 reversed $144 $-1 #
face $-1 $-1 $366 $74 $-1 $367 forward single #
loop $-1 $368 $369 $146 #
cone-surface $-1 72.723862893703313 8.9480515210393818 9.9230678673931241 -0.71933980857756763 0 -0.69465836192734942 0.17366459048183736 0 -0.17983495214439191 1 I I -0.70710678118654746 0.70710678118654746 0.25 forward I I I I #
loop $-1 $-1 $370 $93 #
coedge $-1 $234 $234 $371 $372 reversed $147 $-1 #
face $-1 $-1 $373 $75 $-1 $374 forward single #
loop $-1 $375 $376 $149 #
cone-surface $-1 72.723862893703313 10.812078313901928 9.9230678673931241 -0.71933980857756763 0 -0.69465836192734942 0.17366459048183736 0 -0.17983495214439191 1 I I -0.70710678118654746 0.70710678118654746 0.25 forward I I I I #
loop $-1 $-1 $377 $94 #
coedge $-1 $239 $239 $378 $379 reversed $150 $-1 #
face $-1 $380 $381 $57 $-1 $382 reversed single #
loop $-1 $-1 $383 $152 #
plane-surface $-1 0 -32.701813915162283 0 0 1 0 0 0 1 forward_v I I I I #
coedge $-1 $384 $385 $386 $387 forward $153 $-1 #
coedge $-1 $388 $155 $389 $390 forward $96 $-1 #
coedge $-1 $155 $388 $391 $392 forward $96 $-1 #
coedge $-1 $393 $394 $155 $247 reversed $395 $-1 #
edge $-1 $396 -32.701813915162283 $397 32.701813915162283 $246 $398 forward 7 unknown #
face $-1 $399 $400 $58 $-1 $401 forward single #
loop $-1 $-1 $402 $156 #
plane-surface $-1 77.679372539445183 0 0 -1 0 0 0 0 1 forward_v I I I I #
coedge $-1 $403 $404 $405 $406 forward $157 $-1 #
coedge $-1 $405 $159 $402 $407 reversed $99 $-1 #
coedge $-1 $159 $405 $408 $409 reversed $99 $-1 #
coedge $-1 $410 $411 $159 $255 reversed $400 $-1 #
edge $-1 $412 -77.679372539445183 $413 77.679372539445183 $254 $414 forward 7 unknown #
face $-1 $415 $416 $59 $-1 $417 reversed single #
loop $-1 $-1 $418 $160 #
plane-surface $-1 0 40.290710573340711 -7.7451460365758846 0 0 1 1 0 0 forward_v I I I I #
coedge $-1 $419 $420 $260 $421 forward $161 $-1 #
coedge $-1 $422 $163 $259 $421 reversed $102 $-1 #
coedge $-1 $163 $422 $423 $424 reversed $102 $-1 #
coedge $-1 $418 $425 $163 $263 reversed $257 $-1 #
edge $-1 $426 -77.679372539445183 $427 77.679372539445183 $262 $428 forward 7 unknown #
face $-1 $429 $430 $60 $-1 $431 reversed single #
loop $-1 $-1 $432 $164 #
plane-surface $-1 -175.44979995957496 1.2926951180111743 128.99424585951311 0 -1 0 0.62932039886446345 0 -0.77714595512881146 forward_v I I I I #
coedge $-1 $433 $434 $435 $436 reversed $165 $-1 #
coedge $-1 $269 $167 $437 $438 reversed $105 $-1 #
coedge $-1 $167 $268 $433 $439 reversed $105 $-1 #
coedge $-1 $435 $440 $167 $271 forward $441 $-1 #
edge $-1 $442 10.045527440342298 $443 18.329269625495087 $270 $444 forward 7 unknown #
loop $-1 $-1 $277 $168 #
plane-surface $-1 -77.679372539445183 -2.0431957884475374 8.2578255275653305 -0.62932039886446345 0 0.77714595512881146 0.77714595512881146 0 0.62932039886446345 forward_v I I I I #
loop $-1 $-1 $445 $107 #
coedge $-1 $275 $275 $276 $446 reversed $169 $-1 #
coedge $-1 $276 $276 $275 $446 forward $171 $-1 #
coedge $-1 $277 $277 $172 $278 forward $272 $-1 #
edge $-1 $447 0 $447 6.2831853071796004 $277 $448 forward 7 unknown #
loop $-1 $-1 $284 $173 #
plane-surface $-1 -77.679372539445183 -2.0431957884475374 8.2578255275653305 -0.62932039886446345 0 0.77714595512881146 0.77714595512881146 0 0.62932039886446345 forward_v I I I I #
loop $-1 $-1 $449 $110 #
coedge $-1 $282 $282 $283 $450 reversed $174 $-1 #
coedge $-1 $283 $283 $282 $450 forward $176 $-1 #
coedge $-1 $284 $284 $177 $285 forward $279 $-1 #
edge $-1 $451 0 $451 6.2831853071796004 $284 $452 forward 7 unknown #
loop $-1 $-1 $291 $178 #
plane-surface $-1 -77.679372539445183 -2.0431957884475374 8.2578255275653305 -0.62932039886446345 0 0.77714595512881146 0.77714595512881146 0 0.62932039886446345 forward_v I I I I #
loop $-1 $-1 $453 $113 #
coedge $-1 $289 $289 $290 $454 reversed $179 $-1 #
coedge $-1 $290 $290 $289 $454 forward $181 $-1 #
coedge $-1 $291 $291 $182 $292 forward $286 $-1 #
edge $-1 $455 0 $455 6.2831853071796004 $291 $456 forward 7 unknown #
face $-1 $457 $458 $64 $-1 $459 forward single #
loop $-1 $-1 $460 $183 #
plane-surface $-1 81.513851117754655 -17.524020598805414 227.01236102304742 0 1 0 0.71933980857756763 0 0.69465836192734942 forward_v I I I I #
coedge $-1 $461 $462 $463 $464 reversed $184 $-1 #
coedge $-1 $298 $186 $465 $466 reversed $117 $-1 #
coedge $-1 $186 $297 $461 $467 reversed $117 $-1 #
coedge $-1 $463 $468 $186 $300 forward $458 $-1 #
edge $-1 $469 -36.922446980567855 $470 -29.553770438858166 $299 $471 forward 7 unknown #
loop $-1 $-1 $306 $187 #
plane-surface $-1 -30.241878828145474 -14.417309277367835 119.09110965545678 0.71933980857756763 0 0.69465836192734942 0.69465836192734942 0 -0.71933980857756763 forward_v I I I I #
loop $-1 $-1 $472 $119 #
coedge $-1 $304 $304 $305 $473 reversed $188 $-1 #
coedge $-1 $305 $305 $304 $473 forward $190 $-1 #
coedge $-1 $306 $306 $191 $307 forward $301 $-1 #
edge $-1 $474 0 $474 6.2831853071796004 $306 $475 forward 7 unknown #
loop $-1 $-1 $313 $192 #
plane-surface $-1 -30.241878828145474 -14.417309277367835 119.09110965545678 0.71933980857756763 0 0.69465836192734942 0.69465836192734942 0 -0.71933980857756763 forward_v I I I I #
loop $-1 $-1 $476 $122 #
coedge $-1 $311 $311 $312 $477 reversed $193 $-1 #
coedge $-1 $312 $312 $311 $477 forward $195 $-1 #
coedge $-1 $313 $313 $196 $314 forward $308 $-1 #
edge $-1 $478 0 $478 6.2831853071796004 $313 $479 forward 7 unknown #
loop $-1 $-1 $320 $197 #
plane-surface $-1 -30.241878828145474 -14.417309277367835 119.09110965545678 0.71933980857756763 0 0.69465836192734942 0.69465836192734942 0 -0.71933980857756763 forward_v I I I I #
loop $-1 $-1 $480 $125 #
coedge $-1 $318 $318 $319 $481 reversed $198 $-1 #
coedge $-1 $319 $319 $318 $481 forward $200 $-1 #
coedge $-1 $320 $320 $201 $321 forward $315 $-1 #
edge $-1 $482 0 $482 6.2831853071796004 $320 $483 forward 7 unknown #
face $-1 $484 $485 $68 $-1 $486 reversed single #
loop $-1 $-1 $487 $202 #
plane-surface $-1 81.513851117754655 -5.8413401996018006 227.01236102304742 0 1 0 0.71933980857756763 0 0.69465836192734942 forward_v I I I I #
coedge $-1 $488 $489 $490 $491 reversed $203 $-1 #
coedge $-1 $327 $205 $492 $493 reversed $129 $-1 #
coedge $-1 $205 $326 $488 $494 reversed $129 $-1 #
coedge $-1 $490 $495 $205 $329 forward $496 $-1 #
edge $-1 $497 -36.922446980567855 $498 -29.553770438858166 $328 $499 forward 7 unknown #
loop $-1 $-1 $335 $206 #
plane-surface $-1 -30.241878828145474 -2.734628878164223 119.09110965545678 0.71933980857756763 0 0.69465836192734942 0.69465836192734942 0 -0.71933980857756763 forward_v I I I I #
loop $-1 $-1 $500 $131 #
coedge $-1 $333 $333 $334 $501 reversed $207 $-1 #
coedge $-1 $334 $334 $333 $501 forward $209 $-1 #
coedge $-1 $335 $335 $210 $336 forward $330 $-1 #
edge $-1 $502 0 $502 6.2831853071796004 $335 $503 forward 7 unknown #
loop $-1 $-1 $342 $211 #
plane-surface $-1 -30.241878828145474 -2.734628878164223 119.09110965545678 0.71933980857756763 0 0.69465836192734942 0.69465836192734942 0 -0.71933980857756763 forward_v I I I I #
loop $-1 $-1 $504 $134 #
coedge $-1 $340 $340 $341 $505 reversed $212 $-1 #
coedge $-1 $341 $341 $340 $505 forward $214 $-1 #
coedge $-1 $342 $342 $215 $343 forward $337 $-1 #
edge $-1 $506 0 $506 6.2831853071796004 $342 $507 forward 7 unknown #
loop $-1 $-1 $349 $216 #
plane-surface $-1 -30.241878828145474 -2.734628878164223 119.09110965545678 0.71933980857756763 0 0.69465836192734942 0.69465836192734942 0 -0.71933980857756763 forward_v I I I I #
loop $-1 $-1 $508 $137 #
coedge $-1 $347 $347 $348 $509 reversed $217 $-1 #
coedge $-1 $348 $348 $347 $509 forward $219 $-1 #
coedge $-1 $349 $349 $220 $350 forward $344 $-1 #
edge $-1 $510 0 $510 6.2831853071796004 $349 $511 forward 7 unknown #
face $-1 $512 $513 $72 $-1 $514 reversed single #
loop $-1 $-1 $515 $221 #
plane-surface $-1 81.513851117754655 5.8413401996018113 227.01236102304742 0 1 0 0.71933980857756763 0 0.69465836192734942 forward_v I I I I #
coedge $-1 $516 $517 $518 $519 reversed $222 $-1 #
coedge $-1 $356 $224 $520 $521 reversed $141 $-1 #
coedge $-1 $224 $355 $516 $522 reversed $141 $-1 #
coedge $-1 $518 $523 $224 $358 forward $524 $-1 #
edge $-1 $525 -36.922446980567855 $526 -29.553770438858166 $357 $527 forward 7 unknown #
loop $-1 $-1 $364 $225 #
plane-surface $-1 -30.241878828145474 8.9480515210393889 119.09110965545678 0.71933980857756763 0 0.69465836192734942 0.69465836192734942 0 -0.71933980857756763 forward_v I I I I #
loop $-1 $-1 $528 $143 #
coedge $-1 $362 $362 $363 $529 reversed $226 $-1 #
coedge $-1 $363 $363 $362 $529 forward $228 $-1 #
coedge $-1 $364 $364 $229 $365 forward $359 $-1 #
edge $-1 $530 0 $530 6.2831853071796004 $364 $531 forward 7 unknown #
loop $-1 $-1 $371 $230 #
plane-surface $-1 -30.241878828145474 8.9480515210393889 119.09110965545678 0.71933980857756763 0 0.69465836192734942 0.69465836192734942 0 -0.71933980857756763 forward_v I I I I #
loop $-1 $-1 $532 $146 #
coedge $-1 $369 $369 $370 $533 reversed $231 $-1 #
coedge $-1 $370 $370 $369 $533 forward $233 $-1 #
coedge $-1 $371 $371 $234 $372 forward $366 $-1 #
edge $-1 $534 0 $534 6.2831853071796004 $371 $535 forward 7 unknown #
loop $-1 $-1 $378 $235 #
plane-surface $-1 -30.241878828145474 8.9480515210393889 119.09110965545678 0.71933980857756763 0 0.69465836192734942 0.69465836192734942 0 -0.71933980857756763 forward_v I I I I #
loop $-1 $-1 $536 $149 #
coedge $-1 $376 $376 $377 $537 reversed $236 $-1 #
coedge $-1 $377 $377 $376 $537 forward $238 $-1 #
coedge $-1 $378 $378 $239 $379 forward $373 $-1 #
edge $-1 $538 0 $538 6.2831853071796004 $378 $539 forward 7 unknown #
face $-1 $540 $541 $57 $-1 $542 reversed single #
loop $-1 $-1 $543 $240 #
plane-surface $-1 -77.679372539445183 0 0 1 0 0 0 0 -1 forward_v I I I I #
coedge $-1 $544 $391 $545 $546 forward $241 $-1 #
coedge $-1 $547 $243 $544 $548 forward $153 $-1 #
coedge $-1 $243 $547 $549 $550 forward $153 $-1 #
coedge $-1 $394 $393 $243 $387 reversed $395 $-1 #
edge $-1 $551 -32.701813915162283 $552 32.701813915162283 $386 $553 forward 7 unknown #
coedge $-1 $245 $244 $554 $555 forward $96 $-1 #
coedge $-1 $556 $557 $244 $390 reversed $541 $-1 #
edge $-1 $397 -77.679372539445183 $558 77.679372539445183 $389 $559 forward 7 unknown #
coedge $-1 $383 $560 $245 $392 reversed $241 $-1 #
edge $-1 $561 -77.679372539445183 $396 77.679372539445183 $391 $562 forward 7 unknown #
coedge $-1 $386 $246 $560 $563 forward $395 $-1 #
coedge $-1 $246 $386 $556 $564 reversed $395 $-1 #
loop $-1 $-1 $393 $540 #
vertex $-1 $247 $565 #
vertex $-1 $247 $566 #
straight-curve $-1 77.679372539445183 0 14.965867822125892 0 1 0 I I #
face $-1 $567 $568 $58 $-1 $569 reversed single #
loop $-1 $-1 $411 $248 #
plane-surface $-1 0 -40.290710573340718 -7.7451460365758846 0 0 1 1 0 0 forward_v I I I I #
coedge $-1 $570 $571 $252 $407 forward $249 $-1 #
coedge $-1 $572 $251 $571 $573 forward $157 $-1 #
coedge $-1 $251 $572 $574 $575 forward $157 $-1 #
coedge $-1 $253 $252 $251 $406 reversed $99 $-1 #
edge $-1 $576 -77.679372539445183 $577 77.679372539445183 $251 $578 forward 7 unknown #
edge $-1 $577 -14.965867822125892 $413 -7.7451460365758846 $402 $579 forward 7 unknown #
coedge $-1 $574 $580 $253 $409 forward $581 $-1 #
edge $-1 $412 7.7451460365758846 $576 14.965867822125892 $408 $582 forward 7 unknown #
coedge $-1 $583 $254 $580 $584 forward $400 $-1 #
coedge $-1 $254 $583 $570 $585 forward $400 $-1 #
vertex $-1 $409 $586 #
vertex $-1 $585 $587 #
straight-curve $-1 0 -32.701813915162283 -7.7451460365758846 1 0 0 I I #
face $-1 $588 $589 $59 $-1 $590 reversed single #
loop $-1 $-1 $591 $256 #
plane-surface $-1 0 47.879607231519145 -11.355506929350888 0 -1 0 0 0 -1 forward_v I I I I #
coedge $-1 $592 $262 $593 $594 forward $257 $-1 #
coedge $-1 $595 $259 $425 $596 reversed $161 $-1 #
coedge $-1 $259 $595 $597 $598 reversed $161 $-1 #
edge $-1 $599 -14.965867822125892 $427 -7.7451460365758846 $259 $600 forward 7 unknown #
coedge $-1 $261 $260 $601 $602 reversed $102 $-1 #
coedge $-1 $603 $593 $261 $424 forward $604 $-1 #
edge $-1 $426 7.7451460365758846 $605 14.965867822125892 $423 $606 forward 7 unknown #
coedge $-1 $262 $592 $419 $596 forward $257 $-1 #
vertex $-1 $424 $607 #
vertex $-1 $596 $608 #
straight-curve $-1 0 32.701813915162283 -7.7451460365758846 -1 0 0 I I #
face $-1 $-1 $441 $60 $-1 $609 forward single #
loop $-1 $-1 $610 $264 #
plane-surface $-1 -77.679372539445183 0 0 1 0 0 0 0 -1 forward_v I I I I #
coedge $-1 $611 $612 $613 $614 reversed $265 $-1 #
coedge $-1 $615 $267 $269 $439 forward $165 $-1 #
coedge $-1 $267 $615 $611 $616 forward $165 $-1 #
coedge $-1 $613 $270 $267 $436 forward $441 $-1 #
edge $-1 $443 -4.3574888006824803 $617 2.314293012234943 $435 $618 forward 7 unknown #
coedge $-1 $619 $620 $268 $438 forward $430 $-1 #
edge $-1 $621 -56.239297402191227 $442 -49.531255107630663 $437 $622 forward 7 unknown #
edge $-1 $443 -10.659184584933936 $621 0 $269 $623 forward 7 unknown #
coedge $-1 $270 $613 $619 $624 forward $441 $-1 #
loop $-1 $-1 $613 $429 #
vertex $-1 $438 $625 #
vertex $-1 $271 $626 #
straight-curve $-1 -87.72489997978748 -5.379086694906249 14.965867822125894 1 0 0 I I #
coedge $-1 $445 $445 $-1 $627 reversed $274 $-1 #
edge $-1 $628 0 $628 6.2831853071796004 $275 $629 forward 7 unknown #
vertex $-1 $278 $630 #
ellipse-curve $-1 -73.537501446868788 -4.0447303323227644 11.611846674845614 -0.62932039886446345 0 0.77714595512881146 0.38857297756440573 0 0.31466019943223172 1 I I #
coedge $-1 $449 $449 $-1 $631 reversed $281 $-1 #
edge $-1 $632 0 $632 6.2831853071796004 $282 $633 forward 7 unknown #
vertex $-1 $285 $634 #
ellipse-curve $-1 -73.537501446868788 -2.0431957884475374 11.611846674845614 -0.62932039886446345 0 0.77714595512881146 0.38857297756440573 0 0.31466019943223172 1 I I #
coedge $-1 $453 $453 $-1 $635 reversed $288 $-1 #
edge $-1 $636 0 $636 6.2831853071796004 $289 $637 forward 7 unknown #
vertex $-1 $292 $638 #
ellipse-curve $-1 -73.537501446868788 -0.041661244572310352 11.611846674845614 -0.62932039886446345 0 0.77714595512881146 0.38857297756440573 0 0.31466019943223172 1 I I #
face $-1 $-1 $639 $64 $-1 $640 reversed single #
loop $-1 $-1 $299 $293 #
plane-surface $-1 0 0 14.965867822125892 0 0 1 1 0 0 forward_v I I I I #
coedge $-1 $641 $642 $643 $644 reversed $294 $-1 #
coedge $-1 $645 $296 $298 $467 forward $184 $-1 #
coedge $-1 $296 $645 $641 $646 forward $184 $-1 #
coedge $-1 $643 $299 $296 $464 forward $458 $-1 #
edge $-1 $470 4.1019433172463398 $647 10.315365960121497 $463 $648 forward 7 unknown #
coedge $-1 $649 $650 $297 $466 forward $639 $-1 #
edge $-1 $651 -106.17080080196708 $469 -98.540312689397823 $465 $652 forward 7 unknown #
edge $-1 $470 144.75111844460488 $651 155.35874507889039 $298 $653 forward 7 unknown #
coedge $-1 $299 $643 $649 $654 forward $458 $-1 #
vertex $-1 $466 $655 #
vertex $-1 $300 $656 #
straight-curve $-1 40.756925558877327 -11.310597955930257 14.965867822125887 -1 0 0 I I #
coedge $-1 $472 $472 $-1 $657 reversed $303 $-1 #
edge $-1 $658 0 $658 6.2831853071796004 $304 $659 forward 7 unknown #
vertex $-1 $307 $660 #
ellipse-curve $-1 73.995034268590331 -16.281336070230385 11.150623765841265 0.71933980857756763 0 0.69465836192734942 0.34732918096367471 0 -0.35966990428878381 1 I I #
coedge $-1 $476 $476 $-1 $661 reversed $310 $-1 #
edge $-1 $662 0 $662 6.2831853071796004 $311 $663 forward 7 unknown #
vertex $-1 $314 $664 #
ellipse-curve $-1 73.995034268590331 -14.417309277367838 11.150623765841265 0.71933980857756763 0 0.69465836192734942 0.34732918096367471 0 -0.35966990428878381 1 I I #
coedge $-1 $480 $480 $-1 $665 reversed $317 $-1 #
edge $-1 $666 0 $666 6.2831853071796004 $318 $667 forward 7 unknown #
vertex $-1 $321 $668 #
ellipse-curve $-1 73.995034268590331 -12.553282484505292 11.150623765841265 0.71933980857756763 0 0.69465836192734942 0.34732918096367471 0 -0.35966990428878381 1 I I #
face $-1 $-1 $496 $68 $-1 $669 forward single #
loop $-1 $-1 $670 $322 #
plane-surface $-1 77.679372539445183 0 0 -1 0 0 0 0 1 forward_v I I I I #
coedge $-1 $671 $672 $673 $674 reversed $323 $-1 #
coedge $-1 $675 $325 $327 $494 forward $203 $-1 #
coedge $-1 $325 $675 $671 $676 forward $203 $-1 #
coedge $-1 $673 $328 $325 $491 forward $496 $-1 #
edge $-1 $498 -1.7393968823554662 $677 4.4740257605196891 $490 $678 forward 7 unknown #
coedge $-1 $679 $680 $326 $493 forward $485 $-1 #
edge $-1 $681 -106.17080080196708 $497 -98.540312689397823 $492 $682 forward 7 unknown #
edge $-1 $498 144.75111844460488 $681 155.35874507889039 $327 $683 forward 7 unknown #
coedge $-1 $328 $673 $679 $684 forward $496 $-1 #
loop $-1 $-1 $673 $484 #
vertex $-1 $493 $685 #
vertex $-1 $329 $686 #
straight-curve $-1 40.756925558877327 0.37208244327335471 14.965867822125887 -1 0 0 I I #
coedge $-1 $500 $500 $-1 $687 reversed $332 $-1 #
edge $-1 $688 0 $688 6.2831853071796004 $333 $689 forward 7 unknown #
vertex $-1 $336 $690 #
ellipse-curve $-1 73.995034268590331 -4.5986556710267763 11.150623765841265 0.71933980857756763 0 0.69465836192734942 0.34732918096367471 0 -0.35966990428878381 1 I I #
coedge $-1 $504 $504 $-1 $691 reversed $339 $-1 #
edge $-1 $692 0 $692 6.2831853071796004 $340 $693 forward 7 unknown #
vertex $-1 $343 $694 #
ellipse-curve $-1 73.995034268590331 -2.7346288781642301 11.150623765841265 0.71933980857756763 0 0.69465836192734942 0.34732918096367471 0 -0.35966990428878381 1 I I #
coedge $-1 $508 $508 $-1 $695 reversed $346 $-1 #
edge $-1 $696 0 $696 6.2831853071796004 $347 $697 forward 7 unknown #
vertex $-1 $350 $698 #
ellipse-curve $-1 73.995034268590331 -0.87060208530168381 11.150623765841265 0.71933980857756763 0 0.69465836192734942 0.34732918096367471 0 -0.35966990428878381 1 I I #
face $-1 $-1 $524 $72 $-1 $699 forward single #
loop $-1 $-1 $700 $351 #
plane-surface $-1 77.679372539445183 0 0 -1 0 0 0 0 1 forward_v I I I I #
coedge $-1 $701 $702 $703 $704 reversed $352 $-1 #
coedge $-1 $705 $354 $356 $522 forward $222 $-1 #
coedge $-1 $354 $705 $701 $706 forward $222 $-1 #
coedge $-1 $703 $357 $354 $519 forward $524 $-1 #
edge $-1 $526 -7.5807370819572721 $707 -1.3673144390821168 $518 $708 forward 7 unknown #
coedge $-1 $709 $710 $355 $521 forward $513 $-1 #
edge $-1 $711 -106.17080080196708 $525 -98.540312689397823 $520 $712 forward 7 unknown #
edge $-1 $526 144.75111844460488 $711 155.35874507889039 $356 $713 forward 7 unknown #
coedge $-1 $357 $703 $709 $714 forward $524 $-1 #
loop $-1 $-1 $703 $512 #
vertex $-1 $521 $715 #
vertex $-1 $358 $716 #
straight-curve $-1 40.756925558877327 12.054762842476967 14.965867822125887 -1 0 0 I I #
coedge $-1 $528 $528 $-1 $717 reversed $361 $-1 #
edge $-1 $718 0 $718 6.2831853071796004 $362 $719 forward 7 unknown #
vertex $-1 $365 $720 #
ellipse-curve $-1 73.995034268590331 7.0840247281768356 11.150623765841265 0.71933980857756763 0 0.69465836192734942 0.34732918096367471 0 -0.35966990428878381 1 I I #
coedge $-1 $532 $532 $-1 $721 reversed $368 $-1 #
edge $-1 $722 0 $722 6.2831853071796004 $369 $723 forward 7 unknown #
vertex $-1 $372 $724 #
ellipse-curve $-1 73.995034268590331 8.9480515210393818 11.150623765841265 0.71933980857756763 0 0.69465836192734942 0.34732918096367471 0 -0.35966990428878381 1 I I #
coedge $-1 $536 $536 $-1 $725 reversed $375 $-1 #
edge $-1 $726 0 $726 6.2831853071796004 $376 $727 forward 7 unknown #
vertex $-1 $379 $728 #
ellipse-curve $-1 73.995034268590331 10.812078313901928 11.150623765841265 0.71933980857756763 0 0.69465836192734942 0.34732918096367471 0 -0.35966990428878381 1 I I #
face $-1 $-1 $395 $57 $-1 $729 reversed single #
loop $-1 $-1 $556 $380 #
plane-surface $-1 0 32.701813915162283 0 0 -1 0 0 0 -1 forward_v I I I I #
coedge $-1 $730 $554 $557 $731 forward $381 $-1 #
coedge $-1 $560 $383 $384 $548 reversed $241 $-1 #
coedge $-1 $554 $730 $383 $546 reversed $381 $-1 #
edge $-1 $561 -14.965867822125892 $732 14.965867822125892 $545 $733 forward 7 unknown #
coedge $-1 $385 $384 $730 $734 forward $153 $-1 #
edge $-1 $552 -77.679372539445183 $732 77.679372539445183 $544 $735 forward 7 unknown #
coedge $-1 $557 $556 $385 $550 reversed $541 $-1 #
edge $-1 $736 -77.679372539445183 $551 77.679372539445183 $549 $737 forward 7 unknown #
vertex $-1 $387 $738 #
vertex $-1 $563 $739 #
straight-curve $-1 77.679372539445183 0 -14.965867822125892 0 -1 0 I I #
coedge $-1 $543 $545 $388 $555 reversed $381 $-1 #
edge $-1 $558 -32.701813915162283 $561 32.701813915162283 $554 $740 forward 7 unknown #
coedge $-1 $549 $389 $394 $564 forward $541 $-1 #
coedge $-1 $389 $549 $543 $731 reversed $541 $-1 #
vertex $-1 $390 $741 #
straight-curve $-1 0 32.701813915162283 14.965867822125892 -1 0 0 I I #
coedge $-1 $391 $544 $393 $563 reversed $241 $-1 #
vertex $-1 $555 $742 #
straight-curve $-1 0 -32.701813915162283 14.965867822125892 1 0 0 I I #
edge $-1 $396 -14.965867822125892 $552 14.965867822125892 $393 $743 forward 7 unknown #
edge $-1 $397 -14.965867822125892 $551 14.965867822125892 $394 $744 forward 7 unknown #
point $-1 77.679372539445183 -32.701813915162283 14.965867822125892 #
point $-1 77.679372539445183 32.701813915162283 14.965867822125892 #
face $-1 $-1 $581 $58 $-1 $745 reversed single #
loop $-1 $-1 $746 $399 #
plane-surface $-1 0 -47.879607231519152 -11.355506929350888 0 1 0 0 0 1 forward_v I I I I #
coedge $-1 $747 $402 $411 $585 reversed $249 $-1 #
coedge $-1 $402 $747 $403 $573 reversed $249 $-1 #
coedge $-1 $404 $403 $748 $749 forward $157 $-1 #
edge $-1 $577 32.701813915162283 $750 47.879607231519152 $571 $751 forward 7 unknown #
coedge $-1 $752 $408 $404 $575 reversed $581 $-1 #
edge $-1 $753 -47.879607231519152 $576 -32.701813915162283 $574 $754 forward 7 unknown #
vertex $-1 $409 $755 #
vertex $-1 $573 $756 #
straight-curve $-1 0 -32.701813915162283 -14.965867822125892 1 0 0 I I #
straight-curve $-1 77.679372539445183 -32.701813915162283 0 0 0 1 I I #
coedge $-1 $408 $752 $410 $584 reversed $581 $-1 #
loop $-1 $-1 $408 $567 #
straight-curve $-1 -77.679372539445183 -32.701813915162283 0 0 0 -1 I I #
coedge $-1 $411 $410 $757 $758 forward $400 $-1 #
edge $-1 $412 -7.5888966581784345 $759 7.5888966581784345 $580 $760 forward 7 unknown #
edge $-1 $761 -7.5888966581784345 $413 7.5888966581784345 $570 $762 forward 7 unknown #
point $-1 -77.679372539445183 -32.701813915162283 -7.7451460365758846 #
point $-1 77.679372539445183 -32.701813915162283 -7.7451460365758846 #
face $-1 $-1 $604 $59 $-1 $763 reversed single #
loop $-1 $-1 $601 $415 #
plane-surface $-1 0 0 -14.965867822125892 0 0 1 1 0 0 forward_v I I I I #
coedge $-1 $764 $765 $766 $767 forward $416 $-1 #
coedge $-1 $425 $418 $765 $768 forward $257 $-1 #
coedge $-1 $423 $766 $418 $594 reversed $604 $-1 #
edge $-1 $426 -7.5888966581784345 $769 7.5888966581784345 $593 $770 forward 7 unknown #
coedge $-1 $420 $419 $771 $772 forward $161 $-1 #
edge $-1 $773 -7.5888966581784345 $427 7.5888966581784345 $419 $774 forward 7 unknown #
coedge $-1 $775 $601 $420 $598 forward $589 $-1 #
edge $-1 $599 -7.5888966581784274 $776 7.5888966581784345 $420 $777 forward 7 unknown #
vertex $-1 $598 $778 #
straight-curve $-1 -77.679372539445183 32.701813915162283 0 0 0 1 I I #
coedge $-1 $597 $779 $422 $602 forward $589 $-1 #
edge $-1 $605 -77.679372539445183 $599 77.679372539445183 $601 $780 forward 7 unknown #
coedge $-1 $766 $423 $779 $781 reversed $604 $-1 #
loop $-1 $-1 $423 $588 #
vertex $-1 $424 $782 #
straight-curve $-1 77.679372539445183 32.701813915162283 0 0 0 -1 I I #
point $-1 77.679372539445183 32.701813915162276 -7.7451460365758846 #
point $-1 -77.679372539445183 32.701813915162276 -7.7451460365758846 #
plane-surface $-1 0 0 14.965867822125892 0 0 1 1 0 0 forward_v I I I I #
coedge $-1 $620 $619 $612 $783 forward $430 $-1 #
coedge $-1 $612 $432 $434 $616 reversed $265 $-1 #
coedge $-1 $432 $611 $610 $783 reversed $265 $-1 #
coedge $-1 $440 $435 $432 $614 forward $441 $-1 #
edge $-1 $617 -18.329269625495087 $784 -10.045527440342298 $613 $785 forward 7 unknown #
coedge $-1 $434 $433 $620 $786 reversed $165 $-1 #
edge $-1 $787 0 $617 10.659184584933936 $611 $788 forward 7 unknown #
vertex $-1 $436 $789 #
straight-curve $-1 -69.395630354292393 -1.0215978942237687 14.96586782212589 0 1 0 I I #
coedge $-1 $610 $437 $440 $624 reversed $430 $-1 #
coedge $-1 $437 $610 $615 $786 forward $430 $-1 #
vertex $-1 $438 $790 #
straight-curve $-1 -77.679372539445183 -5.379086694906249 64.497122929756557 0 0 1 I I #
straight-curve $-1 -77.679372539445183 -5.379086694906249 8.2578255275653305 -0.77714595512881146 0 -0.62932039886446345 I I #
edge $-1 $784 -1.2926951180111743 $442 5.379086694906249 $619 $791 forward 7 unknown #
point $-1 -77.679372539445183 -5.379086694906249 14.965867822125892 #
point $-1 -69.395630354292393 -5.379086694906249 14.965867822125892 #
edge $-1 $792 1 $792 0 $445 $-1 forward 7 unknown #
vertex $-1 $446 $793 #
ellipse-curve $-1 -72.72254622286853 -4.0447303323227644 10.605460806715985 -0.62932039886446345 0 0.77714595512881146 0.38857297756440573 0 0.31466019943223172 1 I I #
point $-1 -73.14892846930438 -4.0447303323227644 11.926506874277838 #
edge $-1 $794 1 $794 0 $449 $-1 forward 7 unknown #
vertex $-1 $450 $795 #
ellipse-curve $-1 -72.72254622286853 -2.0431957884475374 10.605460806715985 -0.62932039886446345 0 0.77714595512881146 0.38857297756440573 0 0.31466019943223172 1 I I #
point $-1 -73.14892846930438 -2.0431957884475374 11.926506874277838 #
edge $-1 $796 1 $796 0 $453 $-1 forward 7 unknown #
vertex $-1 $454 $797 #
ellipse-curve $-1 -72.72254622286853 -0.041661244572310352 10.605460806715985 -0.62932039886446345 0 0.77714595512881146 0.38857297756440573 0 0.31466019943223172 1 I I #
point $-1 -73.14892846930438 -0.041661244572310352 11.926506874277838 #
loop $-1 $-1 $465 $457 #
plane-surface $-1 77.679372539445183 0 0 -1 0 0 0 0 1 forward_v I I I I #
coedge $-1 $642 $460 $462 $646 reversed $294 $-1 #
coedge $-1 $460 $641 $798 $799 reversed $294 $-1 #
coedge $-1 $468 $463 $460 $644 forward $458 $-1 #
edge $-1 $647 29.553770438858166 $800 36.922446980567855 $643 $801 forward 7 unknown #
coedge $-1 $462 $461 $650 $802 reversed $184 $-1 #
edge $-1 $803 -155.35874507889039 $647 -144.75111844460488 $641 $804 forward 7 unknown #
vertex $-1 $464 $805 #
straight-curve $-1 70.310695997735479 -7.2086546386839174 14.965867822125887 0 -1 0 I I #
coedge $-1 $798 $465 $468 $654 reversed $639 $-1 #
coedge $-1 $465 $798 $645 $802 forward $639 $-1 #
vertex $-1 $466 $806 #
straight-curve $-1 77.679372539445183 -11.310597955930257 113.50618051152371 0 0 1 I I #
straight-curve $-1 -30.241878828145474 -11.310597955930257 119.09110965545678 0.69465836192734942 0 -0.71933980857756763 I I #
edge $-1 $800 -17.524020598805414 $469 -11.310597955930257 $649 $807 forward 7 unknown #
point $-1 77.679372539445183 -11.310597955930257 14.965867822125892 #
point $-1 70.310695997735493 -11.310597955930257 14.965867822125887 #
edge $-1 $808 1 $808 0 $472 $-1 forward 7 unknown #
vertex $-1 $473 $809 #
ellipse-curve $-1 72.903697845847702 -16.281336070230385 10.096732457874962 0.71933980857756763 0 0.69465836192734942 0.34732918096367471 0 -0.35966990428878381 1 I I #
point $-1 74.342363449554014 -16.281336070230385 10.790953861552497 #
edge $-1 $810 1 $810 0 $476 $-1 forward 7 unknown #
vertex $-1 $477 $811 #
ellipse-curve $-1 72.903697845847702 -14.417309277367838 10.096732457874962 0.71933980857756763 0 0.69465836192734942 0.34732918096367471 0 -0.35966990428878381 1 I I #
point $-1 74.342363449554014 -14.417309277367838 10.790953861552497 #
edge $-1 $812 1 $812 0 $480 $-1 forward 7 unknown #
vertex $-1 $481 $813 #
ellipse-curve $-1 72.903697845847702 -12.553282484505292 10.096732457874962 0.71933980857756763 0 0.69465836192734942 0.34732918096367471 0 -0.35966990428878381 1 I I #
point $-1 74.342363449554014 -12.553282484505292 10.790953861552497 #
plane-surface $-1 0 0 14.965867822125892 0 0 1 1 0 0 forward_v I I I I #
coedge $-1 $680 $679 $672 $814 forward $485 $-1 #
coedge $-1 $672 $487 $489 $676 reversed $323 $-1 #
coedge $-1 $487 $671 $670 $814 reversed $323 $-1 #
coedge $-1 $495 $490 $487 $674 forward $496 $-1 #
edge $-1 $677 29.553770438858166 $815 36.922446980567855 $673 $816 forward 7 unknown #
coedge $-1 $489 $488 $680 $817 reversed $203 $-1 #
edge $-1 $818 -155.35874507889039 $677 -144.75111844460488 $671 $819 forward 7 unknown #
vertex $-1 $491 $820 #
straight-curve $-1 70.310695997735479 -1.3673144390821115 14.965867822125887 0 -1 0 I I #
coedge $-1 $670 $492 $495 $684 reversed $485 $-1 #
coedge $-1 $492 $670 $675 $817 forward $485 $-1 #
vertex $-1 $493 $821 #
straight-curve $-1 77.679372539445183 0.37208244327335471 113.50618051152371 0 0 1 I I #
straight-curve $-1 -30.241878828145474 0.37208244327335471 119.09110965545678 0.69465836192734942 0 -0.71933980857756763 I I #
edge $-1 $815 -5.8413401996018006 $497 0.37208244327335471 $679 $822 forward 7 unknown #
point $-1 77.679372539445183 0.37208244327335471 14.965867822125892 #
point $-1 70.310695997735493 0.37208244327335471 14.965867822125887 #
edge $-1 $823 1 $823 0 $500 $-1 forward 7 unknown #
vertex $-1 $501 $824 #
ellipse-curve $-1 72.903697845847702 -4.5986556710267763 10.096732457874962 0.71933980857756763 0 0.69465836192734942 0.34732918096367471 0 -0.35966990428878381 1 I I #
point $-1 74.342363449554014 -4.5986556710267763 10.790953861552497 #
edge $-1 $825 1 $825 0 $504 $-1 forward 7 unknown #
vertex $-1 $505 $826 #
ellipse-curve $-1 72.903697845847702 -2.7346288781642301 10.096732457874962 0.71933980857756763 0 0.69465836192734942 0.34732918096367471 0 -0.35966990428878381 1 I I #
point $-1 74.342363449554014 -2.7346288781642301 10.790953861552497 #
edge $-1 $827 1 $827 0 $508 $-1 forward 7 unknown #
vertex $-1 $509 $828 #
ellipse-curve $-1 72.903697845847702 -0.87060208530168381 10.096732457874962 0.71933980857756763 0 0.69465836192734942 0.34732918096367471 0 -0.35966990428878381 1 I I #
point $-1 74.342363449554014 -0.87060208530168381 10.790953861552497 #
plane-surface $-1 0 0 14.965867822125892 0 0 1 1 0 0 forward_v I I I I #
coedge $-1 $710 $709 $702 $829 forward $513 $-1 #
coedge $-1 $702 $515 $517 $706 reversed $352 $-1 #
coedge $-1 $515 $701 $700 $829 reversed $352 $-1 #
coedge $-1 $523 $518 $515 $704 forward $524 $-1 #
edge $-1 $707 29.553770438858166 $830 36.922446980567855 $703 $831 forward 7 unknown #
coedge $-1 $517 $516 $710 $832 reversed $222 $-1 #
edge $-1 $833 -155.35874507889039 $707 -144.75111844460488 $701 $834 forward 7 unknown #
vertex $-1 $519 $835 #
straight-curve $-1 70.310695997735479 4.4740257605196945 14.965867822125887 0 -1 0 I I #
coedge $-1 $700 $520 $523 $714 reversed $513 $-1 #
coedge $-1 $520 $700 $705 $832 forward $513 $-1 #
vertex $-1 $521 $836 #
straight-curve $-1 77.679372539445183 12.054762842476967 113.50618051152371 0 0 1 I I #
straight-curve $-1 -30.241878828145474 12.054762842476967 119.09110965545678 0.69465836192734942 0 -0.71933980857756763 I I #
edge $-1 $830 5.8413401996018113 $525 12.054762842476967 $709 $837 forward 7 unknown #
point $-1 77.679372539445183 12.054762842476967 14.965867822125892 #
point $-1 70.310695997735493 12.054762842476967 14.965867822125887 #
edge $-1 $838 1 $838 0 $528 $-1 forward 7 unknown #
vertex $-1 $529 $839 #
ellipse-curve $-1 72.903697845847702 7.0840247281768356 10.096732457874962 0.71933980857756763 0 0.69465836192734942 0.34732918096367471 0 -0.35966990428878381 1 I I #
point $-1 74.342363449554014 7.0840247281768356 10.790953861552497 #
edge $-1 $840 1 $840 0 $532 $-1 forward 7 unknown #
vertex $-1 $533 $841 #
ellipse-curve $-1 72.903697845847702 8.9480515210393818 10.096732457874962 0.71933980857756763 0 0.69465836192734942 0.34732918096367471 0 -0.35966990428878381 1 I I #
point $-1 74.342363449554014 8.9480515210393818 10.790953861552497 #
edge $-1 $842 1 $842 0 $536 $-1 forward 7 unknown #
vertex $-1 $537 $843 #
ellipse-curve $-1 72.903697845847702 10.812078313901928 10.096732457874962 0.71933980857756763 0 0.69465836192734942 0.34732918096367471 0 -0.35966990428878381 1 I I #
point $-1 74.342363449554014 10.812078313901928 10.790953861552497 #
plane-surface $-1 77.679372539445183 0 0 -1 0 0 0 0 1 forward_v I I I I #
coedge $-1 $545 $543 $547 $734 reversed $381 $-1 #
edge $-1 $558 -14.965867822125892 $736 14.965867822125892 $557 $844 forward 7 unknown #
vertex $-1 $734 $845 #
straight-curve $-1 -77.679372539445183 -32.701813915162283 0 0 0 -1 I I #
edge $-1 $732 -32.701813915162283 $736 32.701813915162283 $730 $846 forward 7 unknown #
straight-curve $-1 0 -32.701813915162283 -14.965867822125892 -1 0 0 I I #
vertex $-1 $550 $847 #
straight-curve $-1 0 32.701813915162283 -14.965867822125892 1 0 0 I I #
point $-1 77.679372539445183 32.701813915162283 -14.965867822125892 #
point $-1 77.679372539445183 -32.701813915162283 -14.965867822125892 #
straight-curve $-1 -77.679372539445183 0 14.965867822125892 0 -1 0 I I #
point $-1 -77.679372539445183 32.701813915162283 14.965867822125892 #
point $-1 -77.679372539445183 -32.701813915162283 14.965867822125892 #
straight-curve $-1 77.679372539445183 -32.701813915162283 0 0 0 -1 I I #
straight-curve $-1 77.679372539445183 32.701813915162283 0 0 0 -1 I I #
plane-surface $-1 -77.679372539445183 0 0 1 0 0 0 0 -1 forward_v I I I I #
coedge $-1 $748 $757 $752 $848 forward $568 $-1 #
coedge $-1 $571 $570 $849 $850 forward $249 $-1 #
coedge $-1 $849 $746 $572 $749 reversed $568 $-1 #
edge $-1 $750 -77.679372539445183 $753 77.679372539445183 $748 $851 forward 7 unknown #
vertex $-1 $850 $852 #
straight-curve $-1 77.679372539445183 0 -14.965867822125892 0 -1 0 I I #
coedge $-1 $580 $574 $746 $848 reversed $581 $-1 #
vertex $-1 $575 $853 #
straight-curve $-1 -77.679372539445183 0 -14.965867822125892 0 1 0 I I #
point $-1 -77.679372539445183 -32.701813915162283 -14.965867822125892 #
point $-1 77.679372539445183 -32.701813915162283 -14.965867822125892 #
coedge $-1 $746 $849 $583 $758 reversed $568 $-1 #
edge $-1 $759 -77.679372539445183 $761 77.679372539445183 $757 $854 forward 7 unknown #
vertex $-1 $584 $855 #
straight-curve $-1 -77.679372539445183 -40.290710573340718 -7.7451460365758846 0 -1 0 I I #
vertex $-1 $585 $856 #
straight-curve $-1 77.679372539445183 -40.290710573340718 -7.7451460365758846 0 1 0 I I #
plane-surface $-1 77.679372539445183 0 0 -1 0 0 0 0 1 forward_v I I I I #
coedge $-1 $771 $591 $775 $857 reversed $416 $-1 #
coedge $-1 $591 $771 $592 $768 reversed $416 $-1 #
coedge $-1 $593 $603 $591 $767 reversed $604 $-1 #
edge $-1 $769 -3.6103608927750033 $858 3.6103608927750024 $766 $859 forward 7 unknown #
edge $-1 $769 -77.679372539445183 $773 77.679372539445183 $765 $860 forward 7 unknown #
vertex $-1 $594 $861 #
straight-curve $-1 77.679372539445183 40.290710573340711 -7.7451460365758846 0 1 0 I I #
coedge $-1 $765 $764 $595 $772 reversed $416 $-1 #
edge $-1 $773 -3.6103608927750033 $776 3.6103608927750024 $771 $862 forward 7 unknown #
vertex $-1 $768 $863 #
straight-curve $-1 -77.679372539445183 40.290710573340711 -7.7451460365758846 0 -1 0 I I #
coedge $-1 $779 $597 $764 $857 forward $589 $-1 #
vertex $-1 $857 $864 #
straight-curve $-1 -77.679372539445183 40.290710573340711 -14.96586782212589 0 1 0 I I #
point $-1 -77.679372539445183 32.701813915162283 -14.965867822125892 #
coedge $-1 $601 $775 $603 $781 forward $589 $-1 #
straight-curve $-1 0 32.701813915162283 -14.965867822125892 -1 0 0 I I #
edge $-1 $858 -47.879607231519145 $605 -32.701813915162283 $603 $865 forward 7 unknown #
point $-1 77.679372539445183 32.701813915162283 -14.965867822125892 #
edge $-1 $784 49.531255107630663 $787 56.239297402191227 $610 $866 forward 7 unknown #
vertex $-1 $624 $867 #
straight-curve $-1 -87.72489997978748 1.2926951180111743 14.965867822125894 -1 0 0 I I #
edge $-1 $787 -2.314293012234943 $621 4.3574888006824803 $620 $868 forward 7 unknown #
vertex $-1 $786 $869 #
straight-curve $-1 -77.679372539445183 1.2926951180111743 8.2578255275653305 0.77714595512881146 0 0.62932039886446345 I I #
point $-1 -69.395630354292393 1.2926951180111743 14.965867822125892 #
point $-1 -77.679372539445183 -5.379086694906249 8.2578255275653305 #
straight-curve $-1 -77.679372539445183 0 14.965867822125892 0 -1 0 I I #
vertex $-1 $627 $870 #
point $-1 -72.333973245304122 -4.0447303323227644 10.920121006148218 #
vertex $-1 $631 $871 #
point $-1 -72.333973245304122 -2.0431957884475374 10.920121006148218 #
vertex $-1 $635 $872 #
point $-1 -72.333973245304122 -0.041661244572310352 10.920121006148218 #
coedge $-1 $650 $649 $642 $799 forward $639 $-1 #
edge $-1 $800 98.540312689397823 $803 106.17080080196708 $798 $873 forward 7 unknown #
vertex $-1 $654 $874 #
straight-curve $-1 40.756925558877327 -17.524020598805414 14.965867822125887 1 0 0 I I #
edge $-1 $803 -10.315365960121497 $651 -4.1019433172463398 $650 $875 forward 7 unknown #
vertex $-1 $802 $876 #
straight-curve $-1 -30.241878828145474 -17.524020598805414 119.09110965545678 -0.69465836192734942 0 0.71933980857756763 I I #
point $-1 70.310695997735493 -17.524020598805414 14.965867822125887 #
point $-1 77.679372539445183 -11.310597955930257 7.3353797095566335 #
straight-curve $-1 77.679372539445183 0 14.965867822125892 0 1 0 I I #
vertex $-1 $657 $877 #
point $-1 73.251027026811386 -16.281336070230385 9.7370625535861777 #
vertex $-1 $661 $878 #
point $-1 73.251027026811386 -14.417309277367838 9.7370625535861777 #
vertex $-1 $665 $879 #
point $-1 73.251027026811386 -12.553282484505292 9.7370625535861777 #
edge $-1 $815 98.540312689397823 $818 106.17080080196708 $670 $880 forward 7 unknown #
vertex $-1 $684 $881 #
straight-curve $-1 40.756925558877327 -5.8413401996018006 14.965867822125887 1 0 0 I I #
edge $-1 $818 -4.4740257605196891 $681 1.7393968823554662 $680 $882 forward 7 unknown #
vertex $-1 $817 $883 #
straight-curve $-1 -30.241878828145474 -5.8413401996018006 119.09110965545678 -0.69465836192734942 0 0.71933980857756763 I I #
point $-1 70.310695997735493 -5.8413401996018006 14.965867822125887 #
point $-1 77.679372539445183 0.37208244327335471 7.3353797095566335 #
straight-curve $-1 77.679372539445183 0 14.965867822125892 0 1 0 I I #
vertex $-1 $687 $884 #
point $-1 73.251027026811386 -4.5986556710267763 9.7370625535861777 #
vertex $-1 $691 $885 #
point $-1 73.251027026811386 -2.7346288781642301 9.7370625535861777 #
vertex $-1 $695 $886 #
point $-1 73.251027026811386 -0.87060208530168381 9.7370625535861777 #
edge $-1 $830 98.540312689397823 $833 106.17080080196708 $700 $887 forward 7 unknown #
vertex $-1 $714 $888 #
straight-curve $-1 40.756925558877327 5.8413401996018113 14.965867822125887 1 0 0 I I #
edge $-1 $833 1.3673144390821168 $711 7.5807370819572721 $710 $889 forward 7 unknown #
vertex $-1 $832 $890 #
straight-curve $-1 -30.241878828145474 5.8413401996018113 119.09110965545678 -0.69465836192734942 0 0.71933980857756763 I I #
point $-1 70.310695997735493 5.8413401996018113 14.965867822125887 #
point $-1 77.679372539445183 12.054762842476967 7.3353797095566335 #
straight-curve $-1 77.679372539445183 0 14.965867822125892 0 1 0 I I #
vertex $-1 $717 $891 #
point $-1 73.251027026811386 7.0840247281768356 9.7370625535861777 #
vertex $-1 $721 $892 #
point $-1 73.251027026811386 8.9480515210393818 9.7370625535861777 #
vertex $-1 $725 $893 #
point $-1 73.251027026811386 10.812078313901928 9.7370625535861777 #
straight-curve $-1 -77.679372539445183 32.701813915162283 0 0 0 -1 I I #
point $-1 -77.679372539445183 -32.701813915162283 -14.965867822125892 #
straight-curve $-1 -77.679372539445183 0 -14.965867822125892 0 1 0 I I #
point $-1 -77.679372539445183 32.701813915162283 -14.965867822125892 #
edge $-1 $759 -3.6103608927750033 $753 3.6103608927750024 $752 $894 forward 7 unknown #
coedge $-1 $757 $748 $747 $850 reversed $568 $-1 #
edge $-1 $761 -3.6103608927750033 $750 3.6103608927750024 $747 $895 forward 7 unknown #
straight-curve $-1 0 -47.879607231519152 -14.96586782212589 -1 0 0 I I #
point $-1 77.679372539445183 -47.879607231519152 -14.96586782212589 #
point $-1 -77.679372539445183 -47.879607231519152 -14.96586782212589 #
straight-curve $-1 0 -47.879607231519152 -7.7451460365758846 1 0 0 I I #
point $-1 -77.679372539445183 -47.879607231519152 -7.7451460365758846 #
point $-1 77.679372539445183 -47.879607231519152 -7.7451460365758846 #
edge $-1 $776 -77.679372539445183 $858 77.679372539445183 $764 $896 forward 7 unknown #
vertex $-1 $781 $897 #
straight-curve $-1 77.679372539445183 47.879607231519145 -11.355506929350888 0 0 -1 I I #
straight-curve $-1 0 47.879607231519145 -7.7451460365758846 -1 0 0 I I #
point $-1 77.679372539445183 47.879607231519145 -7.7451460365758846 #
straight-curve $-1 -77.679372539445183 47.879607231519145 -11.355506929350888 0 0 -1 I I #
point $-1 -77.679372539445183 47.879607231519145 -7.7451460365758846 #
point $-1 -77.679372539445183 47.879607231519145 -14.96586782212589 #
straight-curve $-1 77.679372539445183 0 -14.965867822125892 0 -1 0 I I #
straight-curve $-1 -77.679372539445183 1.2926951180111743 64.497122929756557 0 0 -1 I I #
point $-1 -77.679372539445183 1.2926951180111743 14.965867822125892 #
straight-curve $-1 -77.679372539445183 -1.0215978942237687 8.2578255275653287 0 -1 0 I I #
point $-1 -77.679372539445183 1.2926951180111743 8.2578255275653305 #
point $-1 -72.407886023436291 -4.0447303323227644 10.216887829151581 #
point $-1 -72.407886023436291 -2.0431957884475374 10.216887829151581 #
point $-1 -72.407886023436291 -0.041661244572310352 10.216887829151581 #
straight-curve $-1 77.679372539445183 -17.524020598805414 113.50618051152371 0 0 -1 I I #
point $-1 77.679372539445183 -17.524020598805414 14.965867822125892 #
straight-curve $-1 77.679372539445183 -7.2086546386839174 7.3353797095566264 0 1 0 I I #
point $-1 77.679372539445183 -17.524020598805414 7.3353797095566335 #
point $-1 72.544027941558923 -16.281336070230385 9.7494032769112859 #
point $-1 72.544027941558923 -14.417309277367838 9.7494032769112859 #
point $-1 72.544027941558923 -12.553282484505292 9.7494032769112859 #
straight-curve $-1 77.679372539445183 -5.8413401996018006 113.50618051152371 0 0 -1 I I #
point $-1 77.679372539445183 -5.8413401996018006 14.965867822125892 #
straight-curve $-1 77.679372539445183 -1.3673144390821115 7.3353797095566264 0 1 0 I I #
point $-1 77.679372539445183 -5.8413401996018006 7.3353797095566335 #
point $-1 72.544027941558923 -4.5986556710267763 9.7494032769112859 #
point $-1 72.544027941558923 -2.7346288781642301 9.7494032769112859 #
point $-1 72.544027941558923 -0.87060208530168381 9.7494032769112859 #
straight-curve $-1 77.679372539445183 5.8413401996018113 113.50618051152371 0 0 -1 I I #
point $-1 77.679372539445183 5.8413401996018113 14.965867822125892 #
straight-curve $-1 77.679372539445183 4.4740257605196945 7.3353797095566264 0 1 0 I I #
point $-1 77.679372539445183 5.8413401996018113 7.3353797095566335 #
point $-1 72.544027941558923 7.0840247281768356 9.7494032769112859 #
point $-1 72.544027941558923 8.9480515210393818 9.7494032769112859 #
point $-1 72.544027941558923 10.812078313901928 9.7494032769112859 #
straight-curve $-1 -77.679372539445183 -47.879607231519152 -11.355506929350888 0 0 -1 I I #
straight-curve $-1 77.679372539445183 -47.879607231519152 -11.355506929350888 0 0 -1 I I #
straight-curve $-1 0 47.879607231519145 -14.96586782212589 1 0 0 I I #
point $-1 77.679372539445183 47.879607231519145 -14.96586782212589 #
End-of-ACIS-data 