500 0 6 0           
7 Unknown 11 ACIS 5.0 NT 24 Fri Mar 26 03:02:05 1999 
-1 9.9999999999999995e-007 1e-010 
body $-1 $6 $-1 $7 #
body $-1 $8 $-1 $9 #
body $-1 $10 $-1 $11 #
body $-1 $12 $-1 $13 #
body $-1 $14 $-1 $15 #
body $-1 $16 $-1 $17 #
lump $-1 $-1 $18 $0 #
transform $-1 1 0 0 0 1 0 0 0 1 79.227271340067745 42.82750599887747 9.8320148663581008 1 rotate no_reflect no_shear #
lump $-1 $-1 $19 $1 #
transform $-1 1 0 0 0 1 0 0 0 1 79.227271340067745 42.82750599887747 9.8320148663581008 1 rotate no_reflect no_shear #
lump $-1 $-1 $20 $2 #
transform $-1 1 0 0 0 1 0 0 0 1 79.227271340067745 42.82750599887747 9.8320148663581008 1 rotate no_reflect no_shear #
lump $-1 $-1 $21 $3 #
transform $-1 1 0 0 0 1 0 0 0 1 79.227271340067745 42.82750599887747 9.8320148663581008 1 rotate no_reflect no_shear #
lump $-1 $-1 $22 $4 #
transform $-1 1 0 0 0 1 0 0 0 1 79.227271340067745 42.82750599887747 9.8320148663581008 1 rotate no_reflect no_shear #
lump $-1 $-1 $23 $5 #
transform $-1 1 0 0 0 1 0 0 0 1 79.227271340067745 42.82750599887747 9.8320148663581008 1 rotate no_reflect no_shear #
shell $-1 $-1 $-1 $24 $-1 $6 #
shell $-1 $-1 $-1 $25 $-1 $8 #
shell $-1 $-1 $-1 $26 $-1 $10 #
shell $-1 $-1 $-1 $27 $-1 $12 #
shell $-1 $-1 $-1 $28 $-1 $14 #
shell $-1 $-1 $-1 $29 $-1 $16 #
face $-1 $30 $31 $18 $-1 $32 forward single #
face $-1 $33 $34 $19 $-1 $35 reversed single #
face $-1 $36 $37 $20 $-1 $38 reversed single #
face $-1 $39 $40 $21 $-1 $41 reversed single #
face $-1 $42 $43 $22 $-1 $44 forward single #
face $-1 $45 $46 $23 $-1 $47 forward single #
face $-1 $48 $49 $18 $-1 $50 reversed single #
loop $-1 $-1 $51 $24 #
plane-surface $-1 0 0 9.8320148663581008 0 0 1 1 0 0 forward_v I I I I #
face $-1 $52 $53 $19 $-1 $54 reversed single #
loop $-1 $-1 $55 $25 #
plane-surface $-1 -73.329880774392421 0 5.1673663874180145 0 0 1 1 0 0 forward_v I I I I #
face $-1 $56 $57 $20 $-1 $58 reversed single #
loop $-1 $-1 $59 $26 #
plane-surface $-1 73.329880774392421 0 5.1673663874180145 0 0 1 1 0 0 forward_v I I I I #
face $-1 $60 $61 $21 $-1 $62 reversed single #
loop $-1 $-1 $63 $27 #
plane-surface $-1 32.303881505913708 103.26779144925375 174.96474317454582 1 0 0 0 -0.74314483375859142 -0.66913059716165679 forward_v I I I I #
face $-1 $64 $65 $22 $-1 $66 forward single #
loop $-1 $67 $68 $28 #
cone-surface $-1 42.340626849571805 39.584469991231607 6.4815536238566764 0 -0.74314483375859142 -0.66913059716165679 1 0 0 1 I I 0 1 1 forward I I I I #
face $-1 $69 $70 $23 $-1 $71 forward single #
loop $-1 $72 $73 $29 #
cone-surface $-1 57.395744865058987 39.584469991231607 6.4815536238566764 0 -0.74314483375859142 -0.66913059716165679 1 0 0 1 I I 0 1 1 forward I I I I #
face $-1 $74 $75 $18 $-1 $76 reversed single #
loop $-1 $-1 $77 $30 #
plane-surface $-1 0 0 -9.8320148663581008 0 0 1 1 0 0 forward_v I I I I #
coedge $-1 $78 $79 $80 $81 forward $31 $-1 #
face $-1 $82 $83 $19 $-1 $84 reversed single #
loop $-1 $-1 $85 $33 #
plane-surface $-1 -67.432490208717098 0 7.4996906268880572 -1 0 0 0 0 1 forward_v I I I I #
coedge $-1 $86 $87 $88 $89 forward $34 $-1 #
face $-1 $90 $91 $20 $-1 $92 forward single #
loop $-1 $-1 $93 $36 #
plane-surface $-1 67.432490208717098 0 7.4996906268880572 1 0 0 0 0 -1 forward_v I I I I #
coedge $-1 $94 $95 $96 $97 reversed $37 $-1 #
face $-1 $98 $99 $21 $-1 $100 forward single #
loop $-1 $-1 $101 $39 #
plane-surface $-1 49.86818585731541 -14.486883329069173 68.937960408009516 0 0.74314483375859142 0.66913059716165679 1 0 0 forward_v I I I I #
coedge $-1 $102 $103 $104 $105 reversed $40 $-1 #
face $-1 $-1 $106 $22 $-1 $107 forward single #
loop $-1 $108 $109 $42 #
cone-surface $-1 42.340626849571805 38.017440689076508 5.0705941377796009 0 -0.74314483375859142 -0.66913059716165679 0.5 0 0 1 I I -0.70710678118654746 0.70710678118654746 0.5 forward I I I I #
loop $-1 $-1 $110 $28 #
coedge $-1 $68 $68 $111 $112 reversed $43 $-1 #
face $-1 $-1 $113 $23 $-1 $114 forward single #
loop $-1 $115 $116 $45 #
cone-surface $-1 57.395744865058987 38.017440689076508 5.0705941377796009 0 -0.74314483375859142 -0.66913059716165679 0.5 0 0 1 I I -0.70710678118654746 0.70710678118654746 0.5 forward I I I I #
loop $-1 $-1 $117 $29 #
coedge $-1 $73 $73 $118 $119 reversed $46 $-1 #
face $-1 $120 $121 $18 $-1 $122 reversed single #
loop $-1 $-1 $123 $48 #
plane-surface $-1 0 -42.82750599887747 0 0 1 0 0 0 1 forward_v I I I I #
coedge $-1 $124 $125 $126 $127 forward $49 $-1 #
coedge $-1 $128 $51 $129 $130 forward $31 $-1 #
coedge $-1 $51 $128 $131 $132 forward $31 $-1 #
coedge $-1 $133 $134 $51 $81 reversed $135 $-1 #
edge $-1 $136 -42.82750599887747 $137 42.82750599887747 $80 $138 forward 7 unknown #
face $-1 $139 $140 $19 $-1 $141 reversed single #
loop $-1 $-1 $142 $52 #
plane-surface $-1 0 42.82750599887747 0 0 -1 0 0 0 -1 forward_v I I I I #
coedge $-1 $88 $143 $144 $145 reversed $53 $-1 #
coedge $-1 $146 $55 $147 $148 reversed $34 $-1 #
coedge $-1 $55 $146 $149 $150 reversed $34 $-1 #
coedge $-1 $151 $85 $55 $89 reversed $53 $-1 #
edge $-1 $152 -42.82750599887747 $153 42.82750599887747 $88 $154 forward 7 unknown #
face $-1 $155 $156 $20 $-1 $157 reversed single #
loop $-1 $-1 $158 $56 #
plane-surface $-1 0 0 9.8320148663581008 0 0 1 1 0 0 forward_v I I I I #
coedge $-1 $159 $160 $161 $162 reversed $57 $-1 #
coedge $-1 $163 $59 $164 $165 reversed $37 $-1 #
coedge $-1 $59 $163 $166 $167 reversed $37 $-1 #
coedge $-1 $168 $169 $59 $97 forward $170 $-1 #
edge $-1 $171 -42.82750599887747 $172 42.82750599887747 $96 $173 forward 7 unknown #
face $-1 $174 $175 $21 $-1 $176 forward single #
loop $-1 $-1 $104 $60 #
plane-surface $-1 0 0 9.8320148663581008 0 0 1 1 0 0 forward_v I I I I #
coedge $-1 $177 $178 $179 $180 reversed $61 $-1 #
coedge $-1 $103 $63 $181 $182 reversed $40 $-1 #
coedge $-1 $63 $102 $177 $183 reversed $40 $-1 #
coedge $-1 $179 $184 $63 $105 forward $99 $-1 #
edge $-1 $185 8.8063897257494048 $186 12.901547970489517 $104 $187 forward 7 unknown #
loop $-1 $-1 $111 $64 #
plane-surface $-1 49.86818585731541 -14.486883329069173 68.937960408009516 0 0.74314483375859142 0.66913059716165679 1 0 0 forward_v I I I I #
loop $-1 $-1 $188 $42 #
coedge $-1 $109 $109 $110 $189 reversed $65 $-1 #
coedge $-1 $110 $110 $109 $189 forward $67 $-1 #
coedge $-1 $111 $111 $68 $112 forward $106 $-1 #
edge $-1 $190 1.9801356121680539e-015 $190 6.2831853071796022 $111 $191 forward 7 unknown #
loop $-1 $-1 $118 $69 #
plane-surface $-1 49.86818585731541 -14.486883329069173 68.937960408009516 0 0.74314483375859142 0.66913059716165679 1 0 0 forward_v I I I I #
loop $-1 $-1 $192 $45 #
coedge $-1 $116 $116 $117 $193 reversed $70 $-1 #
coedge $-1 $117 $117 $116 $193 forward $72 $-1 #
coedge $-1 $118 $118 $73 $119 forward $113 $-1 #
edge $-1 $194 1.9801356121680539e-015 $194 6.2831853071796022 $118 $195 forward 7 unknown #
face $-1 $196 $197 $18 $-1 $198 reversed single #
loop $-1 $-1 $199 $74 #
plane-surface $-1 -79.227271340067745 0 0 1 0 0 0 0 -1 forward_v I I I I #
coedge $-1 $200 $131 $201 $202 forward $75 $-1 #
coedge $-1 $203 $77 $200 $204 forward $49 $-1 #
coedge $-1 $77 $203 $205 $206 forward $49 $-1 #
coedge $-1 $134 $133 $77 $127 reversed $135 $-1 #
edge $-1 $207 -42.82750599887747 $208 42.82750599887747 $126 $209 forward 7 unknown #
coedge $-1 $79 $78 $210 $211 forward $31 $-1 #
coedge $-1 $212 $213 $78 $130 reversed $197 $-1 #
edge $-1 $137 -79.227271340067745 $214 79.227271340067745 $129 $215 forward 7 unknown #
coedge $-1 $123 $216 $79 $132 reversed $75 $-1 #
edge $-1 $217 -79.227271340067745 $136 79.227271340067745 $131 $218 forward 7 unknown #
coedge $-1 $126 $80 $216 $219 forward $135 $-1 #
coedge $-1 $80 $126 $212 $220 reversed $135 $-1 #
loop $-1 $-1 $133 $196 #
vertex $-1 $81 $221 #
vertex $-1 $81 $222 #
straight-curve $-1 79.227271340067745 0 9.8320148663581008 0 1 0 I I #
face $-1 $223 $224 $19 $-1 $225 forward single #
loop $-1 $-1 $226 $82 #
plane-surface $-1 -79.227271340067745 0 0 1 0 0 0 0 -1 forward_v I I I I #
coedge $-1 $149 $227 $151 $228 forward $83 $-1 #
coedge $-1 $85 $151 $229 $230 reversed $53 $-1 #
coedge $-1 $231 $147 $85 $145 forward $232 $-1 #
edge $-1 $153 1.4175210739739859 $233 6.0821695529140722 $144 $234 forward 7 unknown #
coedge $-1 $87 $86 $226 $235 reversed $34 $-1 #
coedge $-1 $144 $236 $86 $148 forward $232 $-1 #
edge $-1 $237 -42.562330952871534 $153 -30.767549821520888 $147 $238 forward 7 unknown #
coedge $-1 $239 $142 $87 $150 forward $83 $-1 #
edge $-1 $152 30.767549821520888 $240 42.562330952871534 $149 $241 forward 7 unknown #
coedge $-1 $143 $88 $142 $228 reversed $53 $-1 #
vertex $-1 $150 $242 #
vertex $-1 $148 $243 #
straight-curve $-1 -67.432490208717098 0 5.1673663874180145 0 -1 0 I I #
face $-1 $244 $245 $20 $-1 $246 reversed single #
loop $-1 $-1 $247 $90 #
plane-surface $-1 0 -42.82750599887747 0 0 1 0 0 0 1 forward_v I I I I #
coedge $-1 $248 $249 $160 $250 forward $91 $-1 #
coedge $-1 $251 $93 $163 $252 reversed $57 $-1 #
coedge $-1 $93 $251 $158 $250 reversed $57 $-1 #
coedge $-1 $253 $166 $93 $162 forward $245 $-1 #
edge $-1 $254 1.4175210739739859 $255 6.0821695529140722 $161 $256 forward 7 unknown #
coedge $-1 $95 $94 $159 $252 forward $37 $-1 #
coedge $-1 $257 $247 $94 $165 forward $156 $-1 #
edge $-1 $258 30.767549821520888 $171 42.562330952871534 $164 $259 forward 7 unknown #
coedge $-1 $161 $260 $95 $167 forward $245 $-1 #
edge $-1 $172 -42.562330952871534 $254 -30.767549821520888 $166 $261 forward 7 unknown #
coedge $-1 $262 $96 $260 $263 reversed $170 $-1 #
coedge $-1 $96 $262 $257 $264 forward $170 $-1 #
loop $-1 $-1 $96 $244 #
vertex $-1 $165 $265 #
vertex $-1 $97 $266 #
straight-curve $-1 79.227271340067745 0 5.1673663874180145 0 1 0 I I #
face $-1 $-1 $267 $21 $-1 $268 reversed single #
loop $-1 $-1 $269 $98 #
plane-surface $-1 67.432490208717098 0 7.4996906268880572 1 0 0 0 0 -1 forward_v I I I I #
coedge $-1 $270 $101 $103 $183 forward $61 $-1 #
coedge $-1 $101 $270 $269 $271 reversed $61 $-1 #
coedge $-1 $272 $104 $101 $180 forward $99 $-1 #
edge $-1 $186 7.3697885772560028 $273 42.498397280059393 $179 $274 forward 7 unknown #
coedge $-1 $275 $276 $102 $182 forward $267 $-1 #
edge $-1 $277 -82.198490830925138 $185 -77.6503567209148 $181 $278 forward 7 unknown #
edge $-1 $186 79.534893948885099 $277 85.65501199775494 $103 $279 forward 7 unknown #
coedge $-1 $104 $272 $275 $280 forward $99 $-1 #
vertex $-1 $182 $281 #
vertex $-1 $105 $282 #
straight-curve $-1 32.303881505913708 51.633895724626875 9.8320148663580937 0 -1 0 I I #
coedge $-1 $188 $188 $-1 $283 reversed $108 $-1 #
edge $-1 $284 0 $284 6.2831853071796004 $109 $285 forward 7 unknown #
vertex $-1 $112 $286 #
ellipse-curve $-1 42.340626849571805 40.77992687650741 7.5579478113529257 0 0.74314483375859142 0.66913059716165679 1 0 0 1 I I #
coedge $-1 $192 $192 $-1 $287 reversed $115 $-1 #
edge $-1 $288 0 $288 6.2831853071796004 $116 $289 forward 7 unknown #
vertex $-1 $119 $290 #
ellipse-curve $-1 57.395744865058987 40.77992687650741 7.5579478113529257 0 0.74314483375859142 0.66913059716165679 1 0 0 1 I I #
face $-1 $-1 $135 $18 $-1 $291 reversed single #
loop $-1 $-1 $212 $120 #
plane-surface $-1 0 42.82750599887747 0 0 -1 0 0 0 -1 forward_v I I I I #
coedge $-1 $292 $210 $213 $293 forward $121 $-1 #
coedge $-1 $216 $123 $124 $204 reversed $75 $-1 #
coedge $-1 $210 $292 $123 $202 reversed $121 $-1 #
edge $-1 $217 -9.8320148663581008 $294 9.8320148663581008 $201 $295 forward 7 unknown #
coedge $-1 $125 $124 $292 $296 forward $49 $-1 #
edge $-1 $208 -79.227271340067745 $294 79.227271340067745 $200 $297 forward 7 unknown #
coedge $-1 $213 $212 $125 $206 reversed $197 $-1 #
edge $-1 $298 -79.227271340067745 $207 79.227271340067745 $205 $299 forward 7 unknown #
vertex $-1 $127 $300 #
vertex $-1 $219 $301 #
straight-curve $-1 79.227271340067745 0 -9.8320148663581008 0 -1 0 I I #
coedge $-1 $199 $201 $128 $211 reversed $121 $-1 #
edge $-1 $214 -42.82750599887747 $217 42.82750599887747 $210 $302 forward 7 unknown #
coedge $-1 $205 $129 $134 $220 forward $197 $-1 #
coedge $-1 $129 $205 $199 $293 reversed $197 $-1 #
vertex $-1 $130 $303 #
straight-curve $-1 0 42.82750599887747 9.8320148663581008 -1 0 0 I I #
coedge $-1 $131 $200 $133 $219 reversed $75 $-1 #
vertex $-1 $211 $304 #
straight-curve $-1 0 -42.82750599887747 9.8320148663581008 1 0 0 I I #
edge $-1 $136 -9.8320148663581008 $208 9.8320148663581008 $133 $305 forward 7 unknown #
edge $-1 $137 -9.8320148663581008 $207 9.8320148663581008 $134 $306 forward 7 unknown #
point $-1 79.227271340067745 -42.82750599887747 9.8320148663581008 #
point $-1 79.227271340067745 42.82750599887747 9.8320148663581008 #
face $-1 $-1 $232 $19 $-1 $307 reversed single #
loop $-1 $-1 $229 $139 #
plane-surface $-1 0 0 9.8320148663581008 0 0 1 1 0 0 forward_v I I I I #
coedge $-1 $308 $309 $146 $235 forward $140 $-1 #
coedge $-1 $142 $239 $310 $311 reversed $83 $-1 #
edge $-1 $312 -6.0821695529140722 $152 -1.4175210739739859 $142 $313 forward 7 unknown #
coedge $-1 $310 $314 $143 $230 forward $224 $-1 #
edge $-1 $233 -42.82750599887747 $312 42.82750599887747 $229 $315 forward 7 unknown #
coedge $-1 $236 $144 $314 $316 reversed $232 $-1 #
loop $-1 $-1 $144 $223 #
vertex $-1 $145 $317 #
straight-curve $-1 -67.432490208717098 -42.82750599887747 3.7498453134440286 0 0 1 I I #
edge $-1 $240 -42.82750599887747 $237 42.82750599887747 $226 $318 forward 7 unknown #
coedge $-1 $147 $231 $308 $319 forward $232 $-1 #
vertex $-1 $235 $320 #
straight-curve $-1 -36.664940387196211 -42.82750599887747 5.1673663874180145 1 0 0 I I #
coedge $-1 $227 $149 $309 $321 reversed $83 $-1 #
vertex $-1 $235 $322 #
straight-curve $-1 -36.664940387196211 42.82750599887747 5.1673663874180145 -1 0 0 I I #
point $-1 -67.432490208717098 42.82750599887747 5.1673663874180145 #
point $-1 -67.432490208717098 -42.82750599887747 5.1673663874180145 #
face $-1 $-1 $170 $20 $-1 $323 reversed single #
loop $-1 $-1 $161 $155 #
plane-surface $-1 0 42.82750599887747 0 0 -1 0 0 0 -1 forward_v I I I I #
coedge $-1 $164 $324 $251 $325 forward $156 $-1 #
coedge $-1 $326 $158 $324 $327 forward $91 $-1 #
coedge $-1 $158 $326 $253 $328 forward $91 $-1 #
edge $-1 $255 -42.82750599887747 $329 42.82750599887747 $158 $330 forward 7 unknown #
coedge $-1 $160 $159 $247 $325 reversed $57 $-1 #
edge $-1 $258 -42.82750599887747 $254 42.82750599887747 $159 $331 forward 7 unknown #
coedge $-1 $260 $161 $249 $328 reversed $245 $-1 #
vertex $-1 $167 $332 #
vertex $-1 $162 $333 #
straight-curve $-1 67.432490208717098 42.82750599887747 3.7498453134440286 0 0 1 I I #
coedge $-1 $324 $164 $169 $264 reversed $156 $-1 #
vertex $-1 $165 $334 #
straight-curve $-1 36.664940387196211 -42.82750599887747 5.1673663874180145 1 0 0 I I #
coedge $-1 $166 $253 $168 $263 forward $245 $-1 #
straight-curve $-1 36.664940387196211 42.82750599887747 5.1673663874180145 -1 0 0 I I #
coedge $-1 $169 $168 $326 $335 reversed $170 $-1 #
edge $-1 $336 -9.8320148663581008 $172 -5.1673663874180145 $168 $337 forward 7 unknown #
edge $-1 $338 -9.8320148663581008 $171 -5.1673663874180145 $169 $339 forward 7 unknown #
point $-1 79.227271340067745 -42.82750599887747 5.1673663874180145 #
point $-1 79.227271340067745 42.82750599887747 5.1673663874180145 #
loop $-1 $-1 $181 $174 #
plane-surface $-1 0 42.82750599887747 0 0 -1 0 0 0 -1 forward_v I I I I #
coedge $-1 $340 $341 $178 $271 forward $175 $-1 #
coedge $-1 $178 $177 $276 $342 reversed $61 $-1 #
edge $-1 $273 51.859319110935928 $343 57.979437159805777 $269 $344 forward 7 unknown #
coedge $-1 $184 $179 $341 $345 forward $99 $-1 #
vertex $-1 $345 $346 #
straight-curve $-1 24.934092928657705 38.732347754137358 9.8320148663581008 1 0 0 I I #
coedge $-1 $347 $181 $184 $280 reversed $267 $-1 #
coedge $-1 $181 $347 $270 $342 forward $267 $-1 #
vertex $-1 $182 $348 #
straight-curve $-1 32.303881505913708 42.82750599887747 87.482371587272908 0 0 1 I I #
straight-curve $-1 32.303881505913708 -14.486883329069173 68.937960408009516 0 0.66913059716165679 -0.74314483375859142 I I #
edge $-1 $349 -67.432490208717098 $185 -32.303881505913708 $275 $350 forward 7 unknown #
point $-1 32.303881505913708 42.82750599887747 9.8320148663581008 #
point $-1 32.303881505913708 38.732347754137358 9.8320148663581008 #
edge $-1 $351 1 $351 0 $188 $-1 forward 7 unknown #
vertex $-1 $189 $352 #
ellipse-curve $-1 42.340626849571805 38.389013105955804 5.4051594363604289 0 0.74314483375859142 0.66913059716165679 1 0 0 1 I I #
point $-1 43.340626849571805 40.77992687650741 7.557947811352923 #
edge $-1 $353 1 $353 0 $192 $-1 forward 7 unknown #
vertex $-1 $193 $354 #
ellipse-curve $-1 57.395744865058987 38.389013105955804 5.4051594363604289 0 0.74314483375859142 0.66913059716165679 1 0 0 1 I I #
point $-1 58.395744865058987 40.77992687650741 7.557947811352923 #
plane-surface $-1 79.227271340067745 0 0 -1 0 0 0 0 1 forward_v I I I I #
coedge $-1 $201 $199 $203 $296 reversed $121 $-1 #
edge $-1 $214 -9.8320148663581008 $298 9.8320148663581008 $213 $355 forward 7 unknown #
vertex $-1 $296 $356 #
straight-curve $-1 -79.227271340067745 -42.82750599887747 0 0 0 -1 I I #
edge $-1 $294 -42.82750599887747 $298 42.82750599887747 $292 $357 forward 7 unknown #
straight-curve $-1 0 -42.82750599887747 -9.8320148663581008 -1 0 0 I I #
vertex $-1 $206 $358 #
straight-curve $-1 0 42.82750599887747 -9.8320148663581008 1 0 0 I I #
point $-1 79.227271340067745 42.82750599887747 -9.8320148663581008 #
point $-1 79.227271340067745 -42.82750599887747 -9.8320148663581008 #
straight-curve $-1 -79.227271340067745 0 9.8320148663581008 0 -1 0 I I #
point $-1 -79.227271340067745 42.82750599887747 9.8320148663581008 #
point $-1 -79.227271340067745 -42.82750599887747 9.8320148663581008 #
straight-curve $-1 79.227271340067745 -42.82750599887747 0 0 0 -1 I I #
straight-curve $-1 79.227271340067745 42.82750599887747 0 0 0 -1 I I #
plane-surface $-1 0 -42.82750599887747 0 0 1 0 0 0 1 forward_v I I I I #
coedge $-1 $359 $226 $236 $319 reversed $140 $-1 #
coedge $-1 $226 $359 $239 $321 forward $140 $-1 #
coedge $-1 $360 $229 $227 $311 forward $224 $-1 #
edge $-1 $312 67.432490208717098 $361 79.227271340067745 $227 $362 forward 7 unknown #
vertex $-1 $311 $363 #
straight-curve $-1 -67.432490208717098 42.82750599887747 3.7498453134440286 0 0 -1 I I #
coedge $-1 $229 $360 $231 $316 forward $224 $-1 #
straight-curve $-1 -67.432490208717098 0 9.8320148663581008 0 1 0 I I #
edge $-1 $364 -79.227271340067745 $233 -67.432490208717098 $231 $365 forward 7 unknown #
point $-1 -67.432490208717098 -42.82750599887747 9.8320148663581008 #
straight-curve $-1 -79.227271340067745 0 5.1673663874180145 0 -1 0 I I #
edge $-1 $364 -9.8320148663581008 $237 -5.1673663874180145 $308 $366 forward 7 unknown #
point $-1 -79.227271340067745 -42.82750599887747 5.1673663874180145 #
edge $-1 $361 -9.8320148663581008 $240 -5.1673663874180145 $239 $367 forward 7 unknown #
point $-1 -79.227271340067745 42.82750599887747 5.1673663874180145 #
plane-surface $-1 79.227271340067745 0 0 -1 0 0 0 0 1 forward_v I I I I #
coedge $-1 $247 $257 $248 $327 reversed $156 $-1 #
edge $-1 $329 -6.0821695529140722 $258 -1.4175210739739859 $247 $368 forward 7 unknown #
coedge $-1 $249 $248 $262 $335 forward $91 $-1 #
edge $-1 $329 67.432490208717098 $338 79.227271340067745 $324 $369 forward 7 unknown #
edge $-1 $336 -79.227271340067745 $255 -67.432490208717098 $253 $370 forward 7 unknown #
vertex $-1 $327 $371 #
straight-curve $-1 67.432490208717098 0 9.8320148663581008 0 -1 0 I I #
straight-curve $-1 67.432490208717098 0 5.1673663874180145 0 1 0 I I #
point $-1 67.432490208717098 42.82750599887747 5.1673663874180145 #
point $-1 67.432490208717098 42.82750599887747 9.8320148663581008 #
point $-1 67.432490208717098 -42.82750599887747 5.1673663874180145 #
edge $-1 $338 -42.82750599887747 $336 42.82750599887747 $262 $372 forward 7 unknown #
vertex $-1 $335 $373 #
straight-curve $-1 79.227271340067745 42.82750599887747 0 0 0 -1 I I #
vertex $-1 $335 $374 #
straight-curve $-1 79.227271340067745 -42.82750599887747 0 0 0 -1 I I #
coedge $-1 $341 $269 $347 $375 reversed $175 $-1 #
coedge $-1 $269 $340 $272 $345 reversed $175 $-1 #
edge $-1 $343 -42.498397280059393 $277 -7.3697885772560028 $276 $376 forward 7 unknown #
vertex $-1 $271 $377 #
straight-curve $-1 67.432490208717098 4.0316905890398669 48.370999945888336 0 0.66913059716165679 -0.74314483375859142 I I #
edge $-1 $273 38.732347754137351 $349 42.82750599887747 $272 $378 forward 7 unknown #
point $-1 67.432490208717098 38.732347754137351 9.8320148663581008 #
coedge $-1 $276 $275 $340 $375 forward $267 $-1 #
point $-1 32.303881505913708 42.82750599887747 5.2838807563477701 #
vertex $-1 $280 $379 #
straight-curve $-1 0 42.82750599887747 9.8320148663581008 -1 0 0 I I #
vertex $-1 $283 $380 #
point $-1 43.340626849571805 38.389013105955804 5.4051594363604289 #
vertex $-1 $287 $381 #
point $-1 58.395744865058987 38.389013105955804 5.4051594363604289 #
straight-curve $-1 -79.227271340067745 42.82750599887747 0 0 0 -1 I I #
point $-1 -79.227271340067745 -42.82750599887747 -9.8320148663581008 #
straight-curve $-1 -79.227271340067745 0 -9.8320148663581008 0 1 0 I I #
point $-1 -79.227271340067745 42.82750599887747 -9.8320148663581008 #
coedge $-1 $309 $308 $360 $382 reversed $140 $-1 #
coedge $-1 $314 $310 $359 $382 forward $224 $-1 #
vertex $-1 $311 $383 #
straight-curve $-1 0 42.82750599887747 9.8320148663581008 -1 0 0 I I #
point $-1 -67.432490208717098 42.82750599887747 9.8320148663581008 #
vertex $-1 $382 $384 #
straight-curve $-1 0 -42.82750599887747 9.8320148663581008 1 0 0 I I #
straight-curve $-1 -79.227271340067745 -42.82750599887747 0 0 0 -1 I I #
straight-curve $-1 -79.227271340067745 42.82750599887747 0 0 0 -1 I I #
straight-curve $-1 67.432490208717098 -42.82750599887747 3.7498453134440286 0 0 -1 I I #
straight-curve $-1 0 -42.82750599887747 9.8320148663581008 1 0 0 I I #
straight-curve $-1 0 42.82750599887747 9.8320148663581008 -1 0 0 I I #
point $-1 67.432490208717098 -42.82750599887747 9.8320148663581008 #
straight-curve $-1 79.227271340067745 0 9.8320148663581008 0 1 0 I I #
point $-1 79.227271340067745 42.82750599887747 9.8320148663581008 #
point $-1 79.227271340067745 -42.82750599887747 9.8320148663581008 #
edge $-1 $349 -6.0821695529140722 $343 -1.5340354429037415 $347 $385 forward 7 unknown #
straight-curve $-1 24.934092928657705 42.82750599887747 5.2838807563477594 -1 0 0 I I #
point $-1 67.432490208717098 42.82750599887747 5.2838807563477701 #
straight-curve $-1 67.432490208717098 0 9.8320148663581008 0 1 0 I I #
point $-1 67.432490208717098 42.82750599887747 9.8320148663581008 #
point $-1 42.340626849571805 37.645868272197212 4.7360288391987728 #
point $-1 57.395744865058987 37.645868272197212 4.7360288391987728 #
edge $-1 $361 -42.82750599887747 $364 42.82750599887747 $359 $386 forward 7 unknown #
point $-1 -79.227271340067745 42.82750599887747 9.8320148663581008 #
point $-1 -79.227271340067745 -42.82750599887747 9.8320148663581008 #
straight-curve $-1 67.432490208717098 42.82750599887747 3.7498453134440286 0 0 -1 I I #
straight-curve $-1 -79.227271340067745 0 9.8320148663581008 0 -1 0 I I #
End-of-ACIS-data 