500 0 4 0           
7 Unknown 11 ACIS 5.0 NT 24 Thu Mar 25 15:12:57 1999 
-1 9.9999999999999995e-007 1e-010 
body $-1 $4 $-1 $5 #
body $-1 $6 $-1 $7 #
body $-1 $8 $-1 $9 #
body $-1 $10 $-1 $11 #
lump $-1 $-1 $12 $0 #
transform $-1 1 0 0 0 1 0 0 0 1 48.984649189733574 20.989085759721011 7.4125736051535842 1 rotate no_reflect no_shear #
lump $-1 $-1 $13 $1 #
transform $-1 1 0 0 0 1 0 0 0 1 48.984649189733574 20.989085759721011 7.4125736051535842 1 rotate no_reflect no_shear #
lump $-1 $-1 $14 $2 #
transform $-1 1 0 0 0 1 0 0 0 1 48.984649189733574 20.989085759721011 7.4125736051535842 1 rotate no_reflect no_shear #
lump $-1 $-1 $15 $3 #
transform $-1 1 0 0 0 1 0 0 0 1 48.984649189733574 20.989085759721011 7.4125736051535842 1 rotate no_reflect no_shear #
shell $-1 $-1 $-1 $16 $-1 $4 #
shell $-1 $-1 $-1 $17 $-1 $6 #
shell $-1 $-1 $-1 $18 $-1 $8 #
shell $-1 $-1 $-1 $19 $-1 $10 #
face $-1 $20 $21 $12 $-1 $22 forward single #
face $-1 $23 $24 $13 $-1 $25 forward single #
face $-1 $26 $27 $14 $-1 $28 forward single #
face $-1 $29 $30 $15 $-1 $31 reversed single #
face $-1 $32 $33 $12 $-1 $34 reversed single #
loop $-1 $-1 $35 $16 #
plane-surface $-1 0 0 7.4125736051535842 0 0 1 1 0 0 forward_v I I I I #
face $-1 $36 $37 $13 $-1 $38 forward single #
loop $-1 $-1 $39 $17 #
plane-surface $-1 -46.314765367691422 -10.934849591655627 0 0 1 0 0 0 1 forward_v I I I I #
face $-1 $40 $41 $14 $-1 $42 forward single #
loop $-1 $-1 $43 $18 #
plane-surface $-1 36.890681877633654 -20.989085759721014 2.1143778244732943 0 -0.62932039886446345 0.77714595512881146 1 0 0 forward_v I I I I #
face $-1 $44 $45 $15 $-1 $46 reversed single #
loop $-1 $47 $48 $19 #
cone-surface $-1 36.890681877633654 -16.358519377056346 3.0849998322344425 0 0.62932039886446345 -0.77714595512881146 1.5 0 0 1 I I 0 1 1.5 forward I I I I #
face $-1 $49 $50 $12 $-1 $51 reversed single #
loop $-1 $-1 $52 $20 #
plane-surface $-1 0 0 -7.4125736051535842 0 0 1 1 0 0 forward_v I I I I #
coedge $-1 $53 $54 $55 $56 forward $21 $-1 #
face $-1 $57 $58 $13 $-1 $59 forward single #
loop $-1 $-1 $60 $23 #
plane-surface $-1 -46.314765367691422 -6.6639385494138423 0 0 -1 0 0 0 -1 forward_v I I I I #
coedge $-1 $61 $62 $63 $64 reversed $24 $-1 #
face $-1 $65 $66 $14 $-1 $67 forward single #
loop $-1 $-1 $68 $26 #
plane-surface $-1 24.796714565533733 -82.643163692358911 78.250821786883805 1 0 0 0 0.62932039886446345 -0.77714595512881146 forward_v I I I I #
coedge $-1 $69 $70 $71 $72 reversed $27 $-1 #
face $-1 $73 $74 $15 $-1 $75 forward single #
loop $-1 $76 $77 $29 #
cone-surface $-1 36.890681877633654 -14.527326080146894 0.82366448330883735 0 0.62932039886446345 -0.77714595512881146 0.75 0 0 1 I I -0.70710678118654757 0.70710678118654757 0.75 forward I I I I #
loop $-1 $-1 $78 $19 #
coedge $-1 $48 $48 $79 $80 reversed $30 $-1 #
face $-1 $81 $82 $12 $-1 $83 reversed single #
loop $-1 $-1 $84 $32 #
plane-surface $-1 0 -20.989085759721011 0 0 1 0 0 0 1 forward_v I I I I #
coedge $-1 $85 $86 $87 $88 forward $33 $-1 #
coedge $-1 $89 $35 $90 $91 forward $21 $-1 #
coedge $-1 $35 $89 $92 $93 forward $21 $-1 #
coedge $-1 $94 $95 $35 $56 reversed $96 $-1 #
edge $-1 $97 -20.989085759721011 $98 20.989085759721011 $55 $99 forward 7 unknown #
face $-1 $100 $101 $13 $-1 $102 forward single #
loop $-1 $-1 $103 $36 #
plane-surface $-1 -43.64488154564927 -8.7993940705347349 0 -1 0 0 0 0 1 forward_v I I I I #
coedge $-1 $104 $105 $106 $107 reversed $37 $-1 #
coedge $-1 $108 $39 $109 $110 reversed $24 $-1 #
coedge $-1 $39 $108 $111 $112 reversed $24 $-1 #
coedge $-1 $113 $114 $39 $64 forward $115 $-1 #
edge $-1 $116 -7.4125736051535842 $117 7.4125736051535842 $63 $118 forward 7 unknown #
face $-1 $119 $120 $14 $-1 $121 reversed single #
loop $-1 $-1 $122 $40 #
plane-surface $-1 0 0 7.4125736051535842 0 0 1 1 0 0 forward_v I I I I #
coedge $-1 $123 $124 $122 $125 reversed $41 $-1 #
coedge $-1 $126 $43 $124 $127 reversed $27 $-1 #
coedge $-1 $43 $126 $128 $129 reversed $27 $-1 #
coedge $-1 $130 $122 $43 $72 forward $66 $-1 #
edge $-1 $131 6.3513736267169065 $132 30.539308250916747 $71 $133 forward 7 unknown #
face $-1 $134 $135 $15 $-1 $136 forward single #
loop $-1 $137 $79 $44 #
plane-surface $-1 36.890681877633654 -20.989085759721014 2.1143778244732943 0 -0.62932039886446345 0.77714595512881146 1 0 0 forward_v I I I I #
loop $-1 $-1 $138 $29 #
coedge $-1 $77 $77 $78 $139 forward $45 $-1 #
coedge $-1 $78 $78 $77 $139 reversed $47 $-1 #
coedge $-1 $79 $79 $48 $80 forward $74 $-1 #
edge $-1 $140 -1.4680188452414111e-015 $140 6.2831853071795987 $79 $141 forward 7 unknown #
face $-1 $142 $143 $12 $-1 $144 reversed single #
loop $-1 $-1 $145 $49 #
plane-surface $-1 -48.984649189733574 0 0 1 0 0 0 0 -1 forward_v I I I I #
coedge $-1 $146 $92 $147 $148 forward $50 $-1 #
coedge $-1 $149 $52 $146 $150 forward $33 $-1 #
coedge $-1 $52 $149 $151 $152 forward $33 $-1 #
coedge $-1 $95 $94 $52 $88 reversed $96 $-1 #
edge $-1 $153 -20.989085759721011 $154 20.989085759721011 $87 $155 forward 7 unknown #
coedge $-1 $54 $53 $156 $157 forward $21 $-1 #
coedge $-1 $158 $159 $53 $91 reversed $143 $-1 #
edge $-1 $98 -48.984649189733574 $160 48.984649189733574 $90 $161 forward 7 unknown #
coedge $-1 $84 $162 $54 $93 reversed $50 $-1 #
edge $-1 $163 -48.984649189733574 $97 48.984649189733574 $92 $164 forward 7 unknown #
coedge $-1 $87 $55 $162 $165 forward $96 $-1 #
coedge $-1 $55 $87 $158 $166 reversed $96 $-1 #
loop $-1 $-1 $94 $142 #
vertex $-1 $56 $167 #
vertex $-1 $56 $168 #
straight-curve $-1 48.984649189733574 0 7.4125736051535842 0 1 0 I I #
face $-1 $169 $115 $13 $-1 $170 reversed single #
loop $-1 $-1 $171 $57 #
plane-surface $-1 0 0 7.4125736051535842 0 0 1 1 0 0 forward_v I I I I #
coedge $-1 $172 $173 $108 $174 reversed $58 $-1 #
coedge $-1 $175 $60 $171 $176 reversed $37 $-1 #
coedge $-1 $60 $175 $177 $178 reversed $37 $-1 #
coedge $-1 $173 $172 $60 $107 forward $58 $-1 #
edge $-1 $179 -7.4125736051535842 $180 7.4125736051535842 $106 $181 forward 7 unknown #
coedge $-1 $62 $61 $103 $174 forward $24 $-1 #
coedge $-1 $182 $183 $61 $110 forward $101 $-1 #
edge $-1 $184 20.487498861803559 $116 25.827266505887863 $109 $185 forward 7 unknown #
coedge $-1 $186 $187 $62 $112 forward $188 $-1 #
edge $-1 $117 -25.827266505887863 $189 -20.487498861803559 $111 $190 forward 7 unknown #
coedge $-1 $191 $63 $187 $192 reversed $115 $-1 #
coedge $-1 $63 $191 $182 $193 reversed $115 $-1 #
loop $-1 $-1 $63 $100 #
vertex $-1 $193 $194 #
vertex $-1 $64 $195 #
straight-curve $-1 -48.984649189733574 -10.934849591655627 0 0 0 -1 I I #
face $-1 $196 $197 $14 $-1 $198 forward single #
loop $-1 $-1 $128 $65 #
plane-surface $-1 48.984649189733574 0 0 -1 0 0 0 0 1 forward_v I I I I #
coedge $-1 $71 $199 $68 $125 forward $66 $-1 #
coedge $-1 $124 $68 $200 $201 reversed $41 $-1 #
coedge $-1 $68 $123 $69 $127 forward $41 $-1 #
edge $-1 $202 20.332496086458445 $131 26.875222856265566 $122 $203 forward 7 unknown #
coedge $-1 $70 $69 $204 $205 reversed $27 $-1 #
edge $-1 $206 4.4378234572560832e-015 $131 8.418916326628338 $124 $207 forward 7 unknown #
coedge $-1 $208 $209 $70 $129 forward $120 $-1 #
edge $-1 $132 -0.92843532454273126 $210 7.4904810020856036 $128 $211 forward 7 unknown #
coedge $-1 $212 $71 $209 $213 forward $66 $-1 #
vertex $-1 $72 $214 #
vertex $-1 $213 $215 #
straight-curve $-1 18.445340938816827 -14.446358989913888 7.4125736051535842 1 0 0 I I #
face $-1 $216 $217 $15 $-1 $218 forward single #
loop $-1 $-1 $219 $73 #
plane-surface $-1 24.796714565533733 -82.643163692358911 78.250821786883805 1 0 0 0 0.62932039886446345 -0.77714595512881146 forward_v I I I I #
loop $-1 $-1 $220 $44 #
coedge $-1 $138 $138 $-1 $221 forward $76 $-1 #
edge $-1 $222 0 $222 6.2831853071796004 $77 $223 forward 7 unknown #
vertex $-1 $80 $224 #
ellipse-curve $-1 36.890681877633654 -17.717722374817452 4.7634757148134401 0 0.62932039886446345 -0.77714595512881146 1.5 0 0 1 I I #
face $-1 $-1 $96 $12 $-1 $225 reversed single #
loop $-1 $-1 $158 $81 #
plane-surface $-1 0 20.989085759721011 0 0 -1 0 0 0 -1 forward_v I I I I #
coedge $-1 $226 $156 $159 $227 forward $82 $-1 #
coedge $-1 $162 $84 $85 $150 reversed $50 $-1 #
coedge $-1 $156 $226 $84 $148 reversed $82 $-1 #
edge $-1 $163 -7.4125736051535842 $228 7.4125736051535842 $147 $229 forward 7 unknown #
coedge $-1 $86 $85 $226 $230 forward $33 $-1 #
edge $-1 $154 -48.984649189733574 $228 48.984649189733574 $146 $231 forward 7 unknown #
coedge $-1 $159 $158 $86 $152 reversed $143 $-1 #
edge $-1 $232 -48.984649189733574 $153 48.984649189733574 $151 $233 forward 7 unknown #
vertex $-1 $88 $234 #
vertex $-1 $165 $235 #
straight-curve $-1 48.984649189733574 0 -7.4125736051535842 0 -1 0 I I #
coedge $-1 $145 $147 $89 $157 reversed $82 $-1 #
edge $-1 $160 -20.989085759721011 $163 20.989085759721011 $156 $236 forward 7 unknown #
coedge $-1 $151 $90 $95 $166 forward $143 $-1 #
coedge $-1 $90 $151 $145 $227 reversed $143 $-1 #
vertex $-1 $91 $237 #
straight-curve $-1 0 20.989085759721011 7.4125736051535842 -1 0 0 I I #
coedge $-1 $92 $146 $94 $165 reversed $50 $-1 #
vertex $-1 $157 $238 #
straight-curve $-1 0 -20.989085759721011 7.4125736051535842 1 0 0 I I #
edge $-1 $97 -7.4125736051535842 $154 7.4125736051535842 $94 $239 forward 7 unknown #
edge $-1 $98 -7.4125736051535842 $153 7.4125736051535842 $95 $240 forward 7 unknown #
point $-1 48.984649189733574 -20.989085759721011 7.4125736051535842 #
point $-1 48.984649189733574 20.989085759721011 7.4125736051535842 #
face $-1 $241 $188 $13 $-1 $242 reversed single #
plane-surface $-1 -48.984649189733574 0 0 1 0 0 0 0 -1 forward_v I I I I #
coedge $-1 $183 $243 $104 $176 forward $101 $-1 #
coedge $-1 $106 $103 $183 $244 reversed $58 $-1 #
coedge $-1 $103 $106 $186 $245 reversed $58 $-1 #
edge $-1 $184 -7.4125736051535842 $189 7.4125736051535842 $103 $246 forward 7 unknown #
coedge $-1 $105 $104 $247 $248 reversed $37 $-1 #
edge $-1 $249 -25.827266505887863 $179 -20.487498861803559 $171 $250 forward 7 unknown #
coedge $-1 $251 $186 $105 $178 forward $188 $-1 #
edge $-1 $180 20.487498861803559 $252 25.827266505887863 $177 $253 forward 7 unknown #
vertex $-1 $176 $254 #
vertex $-1 $178 $255 #
straight-curve $-1 -43.64488154564927 -6.6639385494138423 0 0 0 -1 I I #
coedge $-1 $256 $109 $114 $193 forward $101 $-1 #
coedge $-1 $109 $171 $172 $244 forward $101 $-1 #
vertex $-1 $110 $257 #
straight-curve $-1 -23.157382683845711 -10.934849591655627 7.4125736051535842 -1 0 0 I I #
coedge $-1 $177 $111 $173 $245 forward $188 $-1 #
coedge $-1 $111 $258 $113 $192 forward $188 $-1 #
loop $-1 $-1 $177 $169 #
vertex $-1 $112 $259 #
straight-curve $-1 -23.157382683845711 -10.934849591655627 -7.4125736051535842 1 0 0 I I #
coedge $-1 $114 $113 $260 $261 reversed $115 $-1 #
edge $-1 $262 -20.989085759721011 $117 -10.934849591655627 $113 $263 forward 7 unknown #
edge $-1 $116 10.934849591655627 $264 20.989085759721011 $114 $265 forward 7 unknown #
point $-1 -48.984649189733574 -10.934849591655627 7.4125736051535842 #
point $-1 -48.984649189733574 -10.934849591655627 -7.4125736051535842 #
face $-1 $266 $267 $14 $-1 $268 forward single #
loop $-1 $-1 $269 $119 #
plane-surface $-1 -46.314765367691422 -10.934849591655627 0 0 1 0 0 0 1 forward_v I I I I #
coedge $-1 $122 $270 $271 $272 forward $66 $-1 #
coedge $-1 $271 $204 $123 $201 forward $273 $-1 #
edge $-1 $206 -37.011033068968608 $202 -31.71283728828832 $200 $274 forward 7 unknown #
vertex $-1 $201 $275 #
straight-curve $-1 24.796714565533733 -41.321581846179456 7.4125736051535824 0 1 0 I I #
coedge $-1 $200 $276 $126 $205 forward $273 $-1 #
edge $-1 $210 -30.539308250916747 $206 -6.3513736267169065 $204 $277 forward 7 unknown #
vertex $-1 $205 $278 #
straight-curve $-1 24.796714565533733 -20.989085759721014 2.1143778244732943 0 0.77714595512881146 0.62932039886446345 I I #
coedge $-1 $279 $128 $276 $280 forward $120 $-1 #
coedge $-1 $128 $281 $130 $213 reversed $120 $-1 #
vertex $-1 $280 $282 #
straight-curve $-1 48.984649189733574 -15.167888746980978 6.8282903163924944 0 -0.77714595512881146 -0.62932039886446345 I I #
coedge $-1 $283 $130 $284 $285 forward $66 $-1 #
edge $-1 $132 -14.44635898991389 $286 20.989085759721011 $209 $287 forward 7 unknown #
point $-1 24.796714565533733 -14.44635898991389 7.4125736051535842 #
point $-1 48.984649189733574 -14.44635898991389 7.4125736051535842 #
face $-1 $288 $289 $15 $-1 $290 reversed single #
loop $-1 $-1 $291 $134 #
plane-surface $-1 0 0 7.4125736051535842 0 0 1 1 0 0 forward_v I I I I #
coedge $-1 $292 $293 $291 $294 reversed $135 $-1 #
coedge $-1 $295 $296 $297 $298 reversed $137 $-1 #
edge $-1 $299 1 $299 0 $138 $-1 forward 7 unknown #
vertex $-1 $139 $300 #
ellipse-curve $-1 36.890681877633654 -14.999316379295241 1.4065239496554458 0 -0.62932039886446345 0.77714595512881146 1.5 0 0 1 I I #
point $-1 38.390681877633654 -17.717722374817448 4.7634757148134392 #
plane-surface $-1 48.984649189733574 0 0 -1 0 0 0 0 1 forward_v I I I I #
coedge $-1 $147 $145 $149 $230 reversed $82 $-1 #
edge $-1 $160 -7.4125736051535842 $232 7.4125736051535842 $159 $301 forward 7 unknown #
vertex $-1 $230 $302 #
straight-curve $-1 -48.984649189733574 -20.989085759721011 0 0 0 -1 I I #
edge $-1 $228 -20.989085759721011 $232 20.989085759721011 $226 $303 forward 7 unknown #
straight-curve $-1 0 -20.989085759721011 -7.4125736051535842 -1 0 0 I I #
vertex $-1 $152 $304 #
straight-curve $-1 0 20.989085759721011 -7.4125736051535842 1 0 0 I I #
point $-1 48.984649189733574 20.989085759721011 -7.4125736051535842 #
point $-1 48.984649189733574 -20.989085759721011 -7.4125736051535842 #
straight-curve $-1 -48.984649189733574 0 7.4125736051535842 0 -1 0 I I #
point $-1 -48.984649189733574 20.989085759721011 7.4125736051535842 #
point $-1 -48.984649189733574 -20.989085759721011 7.4125736051535842 #
straight-curve $-1 48.984649189733574 -20.989085759721011 0 0 0 -1 I I #
straight-curve $-1 48.984649189733574 20.989085759721011 0 0 0 -1 I I #
face $-1 $305 $306 $13 $-1 $307 reversed single #
plane-surface $-1 0 0 -7.4125736051535842 0 0 1 1 0 0 forward_v I I I I #
coedge $-1 $171 $308 $309 $310 forward $101 $-1 #
edge $-1 $179 2.2642415141464749 $184 6.53515255638826 $183 $311 forward 7 unknown #
edge $-1 $189 -6.53515255638826 $180 -2.2642415141464749 $186 $312 forward 7 unknown #
straight-curve $-1 -43.64488154564927 -10.934849591655627 0 0 0 -1 I I #
coedge $-1 $309 $313 $175 $248 forward $314 $-1 #
edge $-1 $252 -7.4125736051535842 $249 7.4125736051535842 $247 $315 forward 7 unknown #
vertex $-1 $248 $316 #
straight-curve $-1 -23.157382683845711 -6.6639385494138423 7.4125736051535842 1 0 0 I I #
coedge $-1 $317 $177 $313 $318 forward $188 $-1 #
vertex $-1 $318 $319 #
straight-curve $-1 -23.157382683845711 -6.6639385494138423 -7.4125736051535842 -1 0 0 I I #
point $-1 -43.64488154564927 -6.6639385494138423 7.4125736051535842 #
point $-1 -43.64488154564927 -6.6639385494138423 -7.4125736051535842 #
coedge $-1 $320 $182 $321 $322 forward $101 $-1 #
point $-1 -43.64488154564927 -10.934849591655627 7.4125736051535842 #
coedge $-1 $187 $323 $324 $325 forward $188 $-1 #
point $-1 -43.64488154564927 -10.934849591655627 -7.4125736051535842 #
coedge $-1 $324 $321 $191 $261 forward $306 $-1 #
edge $-1 $264 -7.4125736051535842 $262 7.4125736051535842 $191 $326 forward 7 unknown #
vertex $-1 $192 $327 #
straight-curve $-1 -48.984649189733574 0 -7.4125736051535842 0 1 0 I I #
vertex $-1 $193 $328 #
straight-curve $-1 -48.984649189733574 0 7.4125736051535842 0 -1 0 I I #
face $-1 $329 $330 $14 $-1 $331 forward single #
loop $-1 $-1 $332 $196 #
plane-surface $-1 -46.314765367691422 -6.6639385494138423 0 0 -1 0 0 0 -1 forward_v I I I I #
coedge $-1 $333 $334 $335 $336 reversed $197 $-1 #
coedge $-1 $199 $337 $338 $339 forward $66 $-1 #
coedge $-1 $340 $200 $199 $272 reversed $273 $-1 #
edge $-1 $341 -48.984649189733574 $202 24.796714565533733 $271 $342 forward 7 unknown #
loop $-1 $-1 $200 $343 #
straight-curve $-1 24.796714565533733 -20.989085759721011 39.125410893441902 0 0 1 I I #
point $-1 24.796714565533733 -20.989085759721011 7.4125736051535842 #
coedge $-1 $204 $344 $208 $280 reversed $273 $-1 #
straight-curve $-1 18.445340938816827 -20.989085759721011 2.1143778244732978 -1 0 0 I I #
point $-1 24.796714565533733 -20.989085759721011 2.1143778244732969 #
coedge $-1 $281 $208 $345 $346 reversed $120 $-1 #
edge $-1 $210 -2.1143778244732969 $347 7.4125736051535842 $208 $348 forward 7 unknown #
coedge $-1 $209 $279 $349 $350 reversed $120 $-1 #
point $-1 48.984649189733574 -20.989085759721011 2.1143778244732969 #
coedge $-1 $351 $212 $352 $353 forward $66 $-1 #
coedge $-1 $349 $354 $212 $285 reversed $355 $-1 #
edge $-1 $286 -48.984649189733574 $356 48.984649189733574 $284 $357 forward 7 unknown #
vertex $-1 $213 $358 #
straight-curve $-1 48.984649189733574 0 7.4125736051535842 0 1 0 I I #
face $-1 $359 $360 $15 $-1 $361 forward single #
loop $-1 $-1 $362 $216 #
plane-surface $-1 48.984649189733574 0 0 -1 0 0 0 0 1 forward_v I I I I #
coedge $-1 $297 $363 $219 $294 forward $217 $-1 #
coedge $-1 $293 $219 $364 $365 reversed $135 $-1 #
coedge $-1 $219 $292 $295 $366 forward $135 $-1 #
edge $-1 $367 20.332496086458445 $368 26.875222856265566 $291 $369 forward 7 unknown #
coedge $-1 $370 $220 $293 $366 reversed $137 $-1 #
coedge $-1 $220 $370 $362 $371 reversed $137 $-1 #
coedge $-1 $372 $291 $220 $298 forward $217 $-1 #
edge $-1 $368 6.3513736267169065 $373 30.539308250916747 $297 $374 forward 7 unknown #
vertex $-1 $221 $375 #
point $-1 38.390681877633654 -14.999316379295241 1.4065239496554458 #
straight-curve $-1 -48.984649189733574 20.989085759721011 0 0 0 -1 I I #
point $-1 -48.984649189733574 -20.989085759721011 -7.4125736051535842 #
straight-curve $-1 -48.984649189733574 0 -7.4125736051535842 0 1 0 I I #
point $-1 -48.984649189733574 20.989085759721011 -7.4125736051535842 #
face $-1 $376 $314 $13 $-1 $170 reversed single #
loop $-1 $-1 $260 $241 #
plane-surface $-1 0 -20.989085759721011 0 0 1 0 0 0 1 forward_v I I I I #
coedge $-1 $243 $320 $377 $378 forward $101 $-1 #
coedge $-1 $379 $247 $243 $310 reversed $314 $-1 #
edge $-1 $380 -20.989085759721011 $249 6.6639385494138423 $309 $265 forward 7 unknown #
straight-curve $-1 -43.64488154564927 -4.3996970352673674 7.4125736051535842 0 -1 0 I I #
straight-curve $-1 -43.64488154564927 -4.3996970352673674 -7.4125736051535842 0 1 0 I I #
coedge $-1 $247 $379 $251 $318 reversed $314 $-1 #
loop $-1 $-1 $247 $305 #
straight-curve $-1 -48.984649189733574 -6.6639385494138423 0 0 0 1 I I #
point $-1 -48.984649189733574 -6.6639385494138423 7.4125736051535842 #
coedge $-1 $323 $251 $381 $382 forward $188 $-1 #
edge $-1 $252 -6.6639385494138423 $383 20.989085759721011 $313 $263 forward 7 unknown #
point $-1 -48.984649189733574 -6.6639385494138423 -7.4125736051535842 #
coedge $-1 $308 $256 $384 $385 forward $101 $-1 #
coedge $-1 $260 $386 $256 $322 reversed $306 $-1 #
edge $-1 $264 -48.984649189733574 $387 48.984649189733574 $321 $388 forward 7 unknown #
coedge $-1 $258 $317 $389 $390 forward $188 $-1 #
coedge $-1 $386 $260 $258 $325 reversed $306 $-1 #
edge $-1 $391 -48.984649189733574 $262 48.984649189733574 $324 $392 forward 7 unknown #
straight-curve $-1 -48.984649189733574 -20.989085759721011 0 0 0 -1 I I #
point $-1 -48.984649189733574 -20.989085759721011 -7.4125736051535842 #
point $-1 -48.984649189733574 -20.989085759721011 7.4125736051535842 #
face $-1 $393 $394 $14 $-1 $395 reversed single #
loop $-1 $-1 $396 $266 #
plane-surface $-1 -43.64488154564927 -8.7993940705347349 0 -1 0 0 0 0 1 forward_v I I I I #
coedge $-1 $397 $398 $399 $400 reversed $267 $-1 #
coedge $-1 $401 $269 $337 $402 reversed $197 $-1 #
coedge $-1 $269 $401 $403 $404 reversed $197 $-1 #
coedge $-1 $405 $338 $269 $336 forward $394 $-1 #
edge $-1 $406 -7.4125736051535842 $407 7.4125736051535842 $335 $408 forward 7 unknown #
coedge $-1 $270 $409 $333 $402 forward $66 $-1 #
coedge $-1 $335 $410 $270 $339 reversed $394 $-1 #
edge $-1 $406 10.934849591655627 $341 20.989085759721011 $338 $411 forward 7 unknown #
coedge $-1 $344 $271 $410 $412 forward $273 $-1 #
vertex $-1 $339 $413 #
straight-curve $-1 0 -20.989085759721011 7.4125736051535842 1 0 0 I I #
face $-1 $414 $273 $14 $-1 $415 reversed single #
coedge $-1 $276 $340 $416 $417 reversed $273 $-1 #
coedge $-1 $416 $418 $279 $346 forward $419 $-1 #
edge $-1 $420 -20.989085759721011 $347 20.989085759721011 $279 $421 forward 7 unknown #
vertex $-1 $280 $422 #
straight-curve $-1 48.984649189733574 -20.989085759721011 0 0 0 -1 I I #
coedge $-1 $423 $284 $281 $350 forward $355 $-1 #
edge $-1 $286 -7.4125736051535842 $420 7.4125736051535842 $281 $424 forward 7 unknown #
coedge $-1 $409 $283 $397 $425 forward $66 $-1 #
coedge $-1 $426 $427 $283 $353 reversed $428 $-1 #
edge $-1 $356 -20.989085759721011 $429 6.6639385494138423 $352 $411 forward 7 unknown #
coedge $-1 $284 $423 $426 $430 reversed $355 $-1 #
loop $-1 $-1 $349 $431 #
vertex $-1 $285 $432 #
straight-curve $-1 0 20.989085759721011 7.4125736051535842 -1 0 0 I I #
point $-1 48.984649189733574 20.989085759721011 7.4125736051535842 #
face $-1 $433 $434 $15 $-1 $435 forward single #
loop $-1 $-1 $436 $288 #
plane-surface $-1 -46.314765367691422 -10.934849591655627 0 0 1 0 0 0 1 forward_v I I I I #
coedge $-1 $437 $438 $296 $371 forward $289 $-1 #
coedge $-1 $291 $439 $440 $441 forward $217 $-1 #
coedge $-1 $440 $442 $292 $365 forward $443 $-1 #
edge $-1 $444 -37.011033068968608 $367 -31.71283728828832 $364 $445 forward 7 unknown #
edge $-1 $444 4.4378234572560832e-015 $368 8.418916326628338 $293 $446 forward 7 unknown #
vertex $-1 $365 $447 #
vertex $-1 $298 $448 #
straight-curve $-1 24.796714565533733 -41.321581846179456 7.4125736051535824 0 1 0 I I #
coedge $-1 $296 $295 $442 $449 reversed $137 $-1 #
edge $-1 $373 -0.92843532454273126 $450 7.4904810020856036 $362 $451 forward 7 unknown #
coedge $-1 $452 $297 $438 $453 forward $217 $-1 #
vertex $-1 $453 $454 #
straight-curve $-1 18.445340938816827 -14.446358989913888 7.4125736051535842 1 0 0 I I #
point $-1 36.890681877633654 -14.055335780998547 0.24080501696222878 #
face $-1 $455 $456 $13 $-1 $457 reversed single #
coedge $-1 $458 $459 $308 $378 reversed $456 $-1 #
edge $-1 $460 -48.984649189733574 $380 48.984649189733574 $377 $461 forward 7 unknown #
coedge $-1 $313 $309 $459 $462 forward $314 $-1 #
vertex $-1 $378 $463 #
coedge $-1 $459 $458 $317 $382 reversed $456 $-1 #
edge $-1 $383 -48.984649189733574 $464 48.984649189733574 $381 $465 forward 7 unknown #
vertex $-1 $382 $466 #
coedge $-1 $467 $468 $320 $385 reversed $469 $-1 #
edge $-1 $387 -20.989085759721011 $460 20.989085759721011 $384 $470 forward 7 unknown #
coedge $-1 $321 $324 $467 $471 reversed $306 $-1 #
vertex $-1 $385 $472 #
straight-curve $-1 0 -20.989085759721011 7.4125736051535842 1 0 0 I I #
coedge $-1 $468 $467 $323 $390 reversed $469 $-1 #
edge $-1 $464 -20.989085759721011 $391 20.989085759721011 $389 $473 forward 7 unknown #
vertex $-1 $471 $474 #
straight-curve $-1 0 -20.989085759721011 -7.4125736051535842 -1 0 0 I I #
face $-1 $343 $419 $14 $-1 $475 reversed single #
loop $-1 $-1 $335 $329 #
plane-surface $-1 -48.984649189733574 0 0 1 0 0 0 0 -1 forward_v I I I I #
coedge $-1 $476 $477 $401 $478 reversed $330 $-1 #
coedge $-1 $479 $332 $351 $425 reversed $267 $-1 #
coedge $-1 $332 $479 $480 $481 reversed $267 $-1 #
coedge $-1 $477 $476 $332 $400 forward $330 $-1 #
edge $-1 $482 -7.4125736051535842 $483 7.4125736051535842 $399 $484 forward 7 unknown #
coedge $-1 $334 $333 $396 $478 forward $197 $-1 #
edge $-1 $485 20.487498861803559 $406 25.827266505887863 $337 $486 forward 7 unknown #
coedge $-1 $487 $488 $334 $404 forward $419 $-1 #
edge $-1 $407 -25.827266505887863 $489 -20.487498861803559 $403 $490 forward 7 unknown #
coedge $-1 $410 $335 $488 $491 reversed $394 $-1 #
vertex $-1 $339 $492 #
vertex $-1 $336 $493 #
straight-curve $-1 -48.984649189733574 -10.934849591655627 0 0 0 -1 I I #
coedge $-1 $337 $351 $476 $494 forward $66 $-1 #
coedge $-1 $338 $405 $340 $412 reversed $394 $-1 #
straight-curve $-1 -48.984649189733574 0 7.4125736051535842 0 -1 0 I I #
edge $-1 $341 -7.4125736051535842 $495 7.4125736051535842 $410 $496 forward 7 unknown #
point $-1 -48.984649189733574 -20.989085759721011 7.4125736051535842 #
face $-1 $431 $428 $14 $-1 $395 reversed single #
plane-surface $-1 0 -20.989085759721011 0 0 1 0 0 0 1 forward_v I I I I #
coedge $-1 $488 $345 $344 $417 forward $419 $-1 #
edge $-1 $347 -48.984649189733574 $495 48.984649189733574 $344 $497 forward 7 unknown #
coedge $-1 $345 $498 $423 $499 forward $419 $-1 #
loop $-1 $-1 $480 $393 #
vertex $-1 $346 $500 #
straight-curve $-1 48.984649189733574 0 -7.4125736051535842 0 -1 0 I I #
point $-1 48.984649189733574 -20.989085759721011 -7.4125736051535842 #
coedge $-1 $354 $349 $418 $499 reversed $355 $-1 #
straight-curve $-1 48.984649189733574 20.989085759721011 0 0 0 -1 I I #
edge $-1 $429 -25.827266505887863 $482 -20.487498861803559 $351 $501 forward 7 unknown #
coedge $-1 $502 $352 $354 $430 forward $428 $-1 #
coedge $-1 $352 $502 $479 $503 forward $428 $-1 #
loop $-1 $-1 $427 $414 #
vertex $-1 $503 $504 #
edge $-1 $356 -7.4125736051535842 $505 7.4125736051535842 $354 $506 forward 7 unknown #
face $-1 $-1 $355 $14 $-1 $507 reversed single #
point $-1 -48.984649189733574 20.989085759721011 7.4125736051535842 #
face $-1 $508 $509 $15 $-1 $510 forward single #
loop $-1 $-1 $511 $359 #
plane-surface $-1 -46.314765367691422 -6.6639385494138423 0 0 -1 0 0 0 -1 forward_v I I I I #
coedge $-1 $512 $513 $514 $515 reversed $360 $-1 #
coedge $-1 $516 $362 $517 $518 forward $289 $-1 #
coedge $-1 $362 $519 $372 $453 reversed $289 $-1 #
coedge $-1 $363 $520 $521 $522 forward $217 $-1 #
coedge $-1 $523 $364 $363 $441 reversed $443 $-1 #
edge $-1 $524 -48.984649189733574 $367 24.796714565533733 $440 $525 forward 7 unknown #
coedge $-1 $364 $517 $370 $449 forward $443 $-1 #
loop $-1 $-1 $364 $526 #
vertex $-1 $449 $527 #
straight-curve $-1 24.796714565533733 -20.989085759721011 39.125410893441902 0 0 1 I I #
straight-curve $-1 24.796714565533733 -20.989085759721014 2.1143778244732943 0 0.77714595512881146 0.62932039886446345 I I #
point $-1 24.796714565533733 -20.989085759721011 7.4125736051535842 #
point $-1 24.796714565533733 -14.44635898991389 7.4125736051535842 #
edge $-1 $450 -30.539308250916747 $444 -6.3513736267169065 $442 $528 forward 7 unknown #
vertex $-1 $518 $529 #
straight-curve $-1 48.984649189733574 -15.167888746980978 6.8282903163924944 0 -0.77714595512881146 -0.62932039886446345 I I #
coedge $-1 $530 $372 $531 $532 forward $217 $-1 #
edge $-1 $373 -14.44635898991389 $533 20.989085759721011 $438 $534 forward 7 unknown #
point $-1 48.984649189733574 -14.44635898991389 7.4125736051535842 #
face $-1 $-1 $469 $13 $-1 $535 reversed single #
loop $-1 $-1 $458 $376 #
plane-surface $-1 0 20.989085759721011 0 0 -1 0 0 0 -1 forward_v I I I I #
coedge $-1 $381 $377 $468 $536 forward $456 $-1 #
coedge $-1 $377 $381 $379 $462 reversed $456 $-1 #
vertex $-1 $385 $537 #
straight-curve $-1 0 20.989085759721011 7.4125736051535842 -1 0 0 I I #
edge $-1 $380 -7.4125736051535842 $383 7.4125736051535842 $459 $538 forward 7 unknown #
point $-1 -48.984649189733574 20.989085759721011 7.4125736051535842 #
vertex $-1 $390 $539 #
straight-curve $-1 0 20.989085759721011 -7.4125736051535842 1 0 0 I I #
point $-1 -48.984649189733574 20.989085759721011 -7.4125736051535842 #
coedge $-1 $389 $384 $386 $471 forward $469 $-1 #
coedge $-1 $384 $389 $458 $536 reversed $469 $-1 #
loop $-1 $-1 $467 $455 #
straight-curve $-1 48.984649189733574 0 7.4125736051535842 0 1 0 I I #
edge $-1 $387 -7.4125736051535842 $391 7.4125736051535842 $467 $540 forward 7 unknown #
point $-1 48.984649189733574 -20.989085759721011 7.4125736051535842 #
straight-curve $-1 48.984649189733574 0 -7.4125736051535842 0 -1 0 I I #
point $-1 48.984649189733574 -20.989085759721011 -7.4125736051535842 #
plane-surface $-1 0 0 -7.4125736051535842 0 0 1 1 0 0 forward_v I I I I #
coedge $-1 $399 $396 $409 $494 reversed $330 $-1 #
coedge $-1 $396 $399 $487 $541 reversed $330 $-1 #
edge $-1 $485 -7.4125736051535842 $489 7.4125736051535842 $396 $542 forward 7 unknown #
coedge $-1 $398 $397 $427 $503 reversed $267 $-1 #
coedge $-1 $498 $487 $398 $481 forward $419 $-1 #
edge $-1 $483 20.487498861803559 $543 25.827266505887863 $480 $544 forward 7 unknown #
vertex $-1 $425 $545 #
vertex $-1 $481 $546 #
straight-curve $-1 -43.64488154564927 -6.6639385494138423 0 0 0 -1 I I #
vertex $-1 $402 $547 #
straight-curve $-1 -23.157382683845711 -10.934849591655627 7.4125736051535842 -1 0 0 I I #
coedge $-1 $480 $403 $477 $541 forward $419 $-1 #
coedge $-1 $403 $416 $405 $491 forward $419 $-1 #
vertex $-1 $404 $548 #
straight-curve $-1 -23.157382683845711 -10.934849591655627 -7.4125736051535842 1 0 0 I I #
edge $-1 $495 -20.989085759721011 $407 -10.934849591655627 $405 $549 forward 7 unknown #
point $-1 -48.984649189733574 -10.934849591655627 7.4125736051535842 #
point $-1 -48.984649189733574 -10.934849591655627 -7.4125736051535842 #
edge $-1 $482 2.2642415141464749 $485 6.53515255638826 $409 $550 forward 7 unknown #
vertex $-1 $491 $551 #
straight-curve $-1 -48.984649189733574 -20.989085759721011 0 0 0 -1 I I #
straight-curve $-1 0 -20.989085759721011 -7.4125736051535842 -1 0 0 I I #
coedge $-1 $418 $480 $502 $552 forward $419 $-1 #
edge $-1 $505 -48.984649189733574 $420 48.984649189733574 $423 $553 forward 7 unknown #
point $-1 48.984649189733574 20.989085759721011 -7.4125736051535842 #
straight-curve $-1 -23.157382683845711 -6.6639385494138423 7.4125736051535842 1 0 0 I I #
coedge $-1 $427 $426 $498 $552 reversed $428 $-1 #
edge $-1 $543 -7.4125736051535842 $429 7.4125736051535842 $427 $554 forward 7 unknown #
point $-1 -48.984649189733574 -6.6639385494138423 7.4125736051535842 #
vertex $-1 $499 $555 #
straight-curve $-1 -48.984649189733574 20.989085759721011 0 0 0 -1 I I #
plane-surface $-1 0 20.989085759721011 0 0 -1 0 0 0 -1 forward_v I I I I #
face $-1 $556 $557 $15 $-1 $558 reversed single #
loop $-1 $-1 $559 $433 #
plane-surface $-1 -43.64488154564927 -8.7993940705347349 0 -1 0 0 0 0 1 forward_v I I I I #
coedge $-1 $560 $561 $562 $563 reversed $434 $-1 #
coedge $-1 $564 $436 $520 $565 reversed $360 $-1 #
coedge $-1 $436 $564 $566 $567 reversed $360 $-1 #
coedge $-1 $568 $521 $436 $515 forward $557 $-1 #
edge $-1 $569 -7.4125736051535842 $570 7.4125736051535842 $514 $571 forward 7 unknown #
coedge $-1 $519 $437 $572 $573 reversed $289 $-1 #
coedge $-1 $442 $574 $437 $518 reversed $443 $-1 #
edge $-1 $450 -2.1143778244732969 $575 7.4125736051535842 $437 $576 forward 7 unknown #
coedge $-1 $438 $516 $577 $578 reversed $289 $-1 #
coedge $-1 $439 $579 $512 $565 forward $217 $-1 #
coedge $-1 $514 $580 $439 $522 reversed $557 $-1 #
edge $-1 $569 10.934849591655627 $524 20.989085759721011 $521 $581 forward 7 unknown #
coedge $-1 $574 $440 $580 $582 forward $443 $-1 #
vertex $-1 $522 $583 #
straight-curve $-1 0 -20.989085759721011 7.4125736051535842 1 0 0 I I #
face $-1 $584 $443 $15 $-1 $585 reversed single #
point $-1 24.796714565533733 -20.989085759721011 2.1143778244732969 #
straight-curve $-1 18.445340938816827 -20.989085759721011 2.1143778244732978 -1 0 0 I I #
point $-1 48.984649189733574 -20.989085759721011 2.1143778244732969 #
coedge $-1 $586 $452 $587 $588 forward $217 $-1 #
coedge $-1 $577 $589 $452 $532 reversed $590 $-1 #
edge $-1 $533 -48.984649189733574 $591 48.984649189733574 $531 $592 forward 7 unknown #
vertex $-1 $453 $593 #
straight-curve $-1 48.984649189733574 0 7.4125736051535842 0 1 0 I I #
plane-surface $-1 48.984649189733574 0 0 -1 0 0 0 0 1 forward_v I I I I #
edge $-1 $460 -7.4125736051535842 $464 7.4125736051535842 $468 $594 forward 7 unknown #
point $-1 48.984649189733574 20.989085759721011 7.4125736051535842 #
straight-curve $-1 -48.984649189733574 20.989085759721011 0 0 0 -1 I I #
point $-1 48.984649189733574 20.989085759721011 -7.4125736051535842 #
straight-curve $-1 48.984649189733574 -20.989085759721011 0 0 0 -1 I I #
edge $-1 $489 -6.53515255638826 $483 -2.2642415141464749 $487 $595 forward 7 unknown #
straight-curve $-1 -43.64488154564927 -10.934849591655627 0 0 0 -1 I I #
vertex $-1 $552 $596 #
straight-curve $-1 -23.157382683845711 -6.6639385494138423 -7.4125736051535842 -1 0 0 I I #
point $-1 -43.64488154564927 -6.6639385494138423 7.4125736051535842 #
point $-1 -43.64488154564927 -6.6639385494138423 -7.4125736051535842 #
point $-1 -43.64488154564927 -10.934849591655627 7.4125736051535842 #
point $-1 -43.64488154564927 -10.934849591655627 -7.4125736051535842 #
straight-curve $-1 -48.984649189733574 0 -7.4125736051535842 0 1 0 I I #
straight-curve $-1 -43.64488154564927 -4.3996970352673674 7.4125736051535842 0 -1 0 I I #
point $-1 -48.984649189733574 -20.989085759721011 -7.4125736051535842 #
edge $-1 $543 -6.6639385494138423 $505 20.989085759721011 $502 $549 forward 7 unknown #
straight-curve $-1 0 20.989085759721011 -7.4125736051535842 1 0 0 I I #
straight-curve $-1 -48.984649189733574 -6.6639385494138423 0 0 0 1 I I #
point $-1 -48.984649189733574 20.989085759721011 -7.4125736051535842 #
face $-1 $526 $597 $15 $-1 $598 reversed single #
loop $-1 $-1 $514 $508 #
plane-surface $-1 -48.984649189733574 0 0 1 0 0 0 0 -1 forward_v I I I I #
coedge $-1 $599 $600 $564 $601 reversed $509 $-1 #
coedge $-1 $602 $511 $586 $603 reversed $434 $-1 #
coedge $-1 $511 $602 $604 $605 reversed $434 $-1 #
coedge $-1 $600 $599 $511 $563 forward $509 $-1 #
edge $-1 $606 -7.4125736051535842 $607 7.4125736051535842 $562 $608 forward 7 unknown #
coedge $-1 $513 $512 $559 $601 forward $360 $-1 #
edge $-1 $609 20.487498861803559 $569 25.827266505887863 $520 $610 forward 7 unknown #
coedge $-1 $611 $612 $513 $567 forward $597 $-1 #
edge $-1 $570 -25.827266505887863 $613 -20.487498861803559 $566 $614 forward 7 unknown #
coedge $-1 $580 $514 $612 $615 reversed $557 $-1 #
vertex $-1 $522 $616 #
vertex $-1 $515 $617 #
straight-curve $-1 -48.984649189733574 -10.934849591655627 0 0 0 -1 I I #
coedge $-1 $618 $619 $516 $573 forward $597 $-1 #
edge $-1 $620 -20.989085759721011 $575 20.989085759721011 $516 $621 forward 7 unknown #
coedge $-1 $517 $523 $618 $622 reversed $443 $-1 #
vertex $-1 $518 $623 #
straight-curve $-1 48.984649189733574 -20.989085759721011 0 0 0 -1 I I #
coedge $-1 $624 $531 $519 $578 forward $590 $-1 #
edge $-1 $533 -7.4125736051535842 $620 7.4125736051535842 $519 $625 forward 7 unknown #
coedge $-1 $520 $586 $599 $626 forward $217 $-1 #
coedge $-1 $521 $568 $523 $582 reversed $557 $-1 #
straight-curve $-1 -48.984649189733574 0 7.4125736051535842 0 -1 0 I I #
edge $-1 $524 -7.4125736051535842 $627 7.4125736051535842 $580 $628 forward 7 unknown #
point $-1 -48.984649189733574 -20.989085759721011 7.4125736051535842 #
face $-1 $629 $630 $15 $-1 $558 reversed single #
plane-surface $-1 0 -20.989085759721011 0 0 1 0 0 0 1 forward_v I I I I #
coedge $-1 $579 $530 $560 $603 forward $217 $-1 #
coedge $-1 $631 $632 $530 $588 reversed $630 $-1 #
edge $-1 $591 -20.989085759721011 $633 6.6639385494138423 $587 $581 forward 7 unknown #
coedge $-1 $531 $624 $631 $634 reversed $590 $-1 #
loop $-1 $-1 $577 $629 #
vertex $-1 $532 $635 #
straight-curve $-1 0 20.989085759721011 7.4125736051535842 -1 0 0 I I #
point $-1 48.984649189733574 20.989085759721011 7.4125736051535842 #
straight-curve $-1 48.984649189733574 20.989085759721011 0 0 0 -1 I I #
straight-curve $-1 -43.64488154564927 -4.3996970352673674 -7.4125736051535842 0 1 0 I I #
point $-1 -48.984649189733574 -6.6639385494138423 -7.4125736051535842 #
loop $-1 $-1 $604 $556 #
plane-surface $-1 0 0 -7.4125736051535842 0 0 1 1 0 0 forward_v I I I I #
coedge $-1 $562 $559 $579 $626 reversed $509 $-1 #
coedge $-1 $559 $562 $611 $636 reversed $509 $-1 #
edge $-1 $609 -7.4125736051535842 $613 7.4125736051535842 $559 $637 forward 7 unknown #
coedge $-1 $561 $560 $632 $638 reversed $434 $-1 #
edge $-1 $633 -25.827266505887863 $606 -20.487498861803559 $586 $639 forward 7 unknown #
coedge $-1 $640 $611 $561 $605 forward $597 $-1 #
edge $-1 $607 20.487498861803559 $641 25.827266505887863 $604 $642 forward 7 unknown #
vertex $-1 $603 $643 #
vertex $-1 $605 $644 #
straight-curve $-1 -43.64488154564927 -6.6639385494138423 0 0 0 -1 I I #
vertex $-1 $565 $645 #
straight-curve $-1 -23.157382683845711 -10.934849591655627 7.4125736051535842 -1 0 0 I I #
coedge $-1 $604 $566 $600 $636 forward $597 $-1 #
coedge $-1 $566 $618 $568 $615 forward $597 $-1 #
vertex $-1 $567 $646 #
straight-curve $-1 -23.157382683845711 -10.934849591655627 -7.4125736051535842 1 0 0 I I #
edge $-1 $627 -20.989085759721011 $570 -10.934849591655627 $568 $647 forward 7 unknown #
point $-1 -48.984649189733574 -10.934849591655627 7.4125736051535842 #
point $-1 -48.984649189733574 -10.934849591655627 -7.4125736051535842 #
coedge $-1 $612 $572 $574 $622 forward $597 $-1 #
coedge $-1 $572 $640 $624 $648 forward $597 $-1 #
vertex $-1 $573 $649 #
straight-curve $-1 48.984649189733574 0 -7.4125736051535842 0 -1 0 I I #
edge $-1 $575 -48.984649189733574 $627 48.984649189733574 $574 $650 forward 7 unknown #
point $-1 48.984649189733574 -20.989085759721011 -7.4125736051535842 #
coedge $-1 $589 $577 $619 $648 reversed $590 $-1 #
straight-curve $-1 48.984649189733574 20.989085759721011 0 0 0 -1 I I #
edge $-1 $606 2.2642415141464749 $609 6.53515255638826 $579 $651 forward 7 unknown #
vertex $-1 $615 $652 #
straight-curve $-1 -48.984649189733574 -20.989085759721011 0 0 0 -1 I I #
face $-1 $-1 $590 $15 $-1 $653 reversed single #
loop $-1 $-1 $632 $584 #
coedge $-1 $654 $587 $589 $634 forward $630 $-1 #
coedge $-1 $587 $654 $602 $638 forward $630 $-1 #
vertex $-1 $638 $655 #
edge $-1 $591 -7.4125736051535842 $656 7.4125736051535842 $589 $657 forward 7 unknown #
point $-1 -48.984649189733574 20.989085759721011 7.4125736051535842 #
edge $-1 $613 -6.53515255638826 $607 -2.2642415141464749 $611 $658 forward 7 unknown #
straight-curve $-1 -43.64488154564927 -10.934849591655627 0 0 0 -1 I I #
edge $-1 $641 -7.4125736051535842 $633 7.4125736051535842 $632 $659 forward 7 unknown #
straight-curve $-1 -23.157382683845711 -6.6639385494138423 7.4125736051535842 1 0 0 I I #
coedge $-1 $619 $604 $654 $660 forward $597 $-1 #
vertex $-1 $660 $661 #
straight-curve $-1 -23.157382683845711 -6.6639385494138423 -7.4125736051535842 -1 0 0 I I #
point $-1 -43.64488154564927 -6.6639385494138423 7.4125736051535842 #
point $-1 -43.64488154564927 -6.6639385494138423 -7.4125736051535842 #
point $-1 -43.64488154564927 -10.934849591655627 7.4125736051535842 #
point $-1 -43.64488154564927 -10.934849591655627 -7.4125736051535842 #
straight-curve $-1 -48.984649189733574 0 -7.4125736051535842 0 1 0 I I #
edge $-1 $656 -48.984649189733574 $620 48.984649189733574 $624 $662 forward 7 unknown #
point $-1 48.984649189733574 20.989085759721011 -7.4125736051535842 #
straight-curve $-1 0 -20.989085759721011 -7.4125736051535842 -1 0 0 I I #
straight-curve $-1 -43.64488154564927 -4.3996970352673674 7.4125736051535842 0 -1 0 I I #
point $-1 -48.984649189733574 -20.989085759721011 -7.4125736051535842 #
plane-surface $-1 0 20.989085759721011 0 0 -1 0 0 0 -1 forward_v I I I I #
coedge $-1 $632 $631 $640 $660 reversed $630 $-1 #
point $-1 -48.984649189733574 -6.6639385494138423 7.4125736051535842 #
vertex $-1 $648 $663 #
straight-curve $-1 -48.984649189733574 20.989085759721011 0 0 0 -1 I I #
straight-curve $-1 -43.64488154564927 -4.3996970352673674 -7.4125736051535842 0 1 0 I I #
straight-curve $-1 -48.984649189733574 -6.6639385494138423 0 0 0 1 I I #
edge $-1 $641 -6.6639385494138423 $656 20.989085759721011 $654 $647 forward 7 unknown #
point $-1 -48.984649189733574 -6.6639385494138423 -7.4125736051535842 #
straight-curve $-1 0 20.989085759721011 -7.4125736051535842 1 0 0 I I #
point $-1 -48.984649189733574 20.989085759721011 -7.4125736051535842 #
End-of-ACIS-data 