500 0 10 0           
7 Unknown 11 ACIS 5.0 NT 24 Fri Mar 26 00:47:48 1999 
-1 9.9999999999999995e-007 1e-010 
body $-1 $10 $-1 $11 #
body $-1 $12 $-1 $13 #
body $-1 $14 $-1 $15 #
body $-1 $16 $-1 $17 #
body $-1 $18 $-1 $19 #
body $-1 $20 $-1 $21 #
body $-1 $22 $-1 $23 #
body $-1 $24 $-1 $25 #
body $-1 $26 $-1 $27 #
body $-1 $28 $-1 $29 #
lump $-1 $-1 $30 $0 #
transform $-1 1 0 0 0 1 0 0 0 1 78.720664082766206 43.553305918260811 20.285709532862722 1 rotate no_reflect no_shear #
lump $-1 $-1 $31 $1 #
transform $-1 1 0 0 0 1 0 0 0 1 78.720664082766206 43.553305918260811 20.285709532862722 1 rotate no_reflect no_shear #
lump $-1 $-1 $32 $2 #
transform $-1 1 0 0 0 1 0 0 0 1 78.720664082766206 43.553305918260811 20.285709532862722 1 rotate no_reflect no_shear #
lump $-1 $-1 $33 $3 #
transform $-1 1 0 0 0 1 0 0 0 1 78.720664082766206 43.553305918260811 20.285709532862722 1 rotate no_reflect no_shear #
lump $-1 $-1 $34 $4 #
transform $-1 1 0 0 0 1 0 0 0 1 78.720664082766206 43.553305918260811 20.285709532862722 1 rotate no_reflect no_shear #
lump $-1 $-1 $35 $5 #
transform $-1 1 0 0 0 1 0 0 0 1 78.720664082766206 43.553305918260811 20.285709532862722 1 rotate no_reflect no_shear #
lump $-1 $-1 $36 $6 #
transform $-1 1 0 0 0 1 0 0 0 1 78.720664082766206 43.553305918260811 20.285709532862722 1 rotate no_reflect no_shear #
lump $-1 $-1 $37 $7 #
transform $-1 1 0 0 0 1 0 0 0 1 78.720664082766206 43.553305918260811 20.285709532862722 1 rotate no_reflect no_shear #
lump $-1 $-1 $38 $8 #
transform $-1 1 0 0 0 1 0 0 0 1 78.720664082766206 43.553305918260811 20.285709532862722 1 rotate no_reflect no_shear #
lump $-1 $-1 $39 $9 #
transform $-1 1 0 0 0 1 0 0 0 1 78.720664082766206 43.553305918260811 20.285709532862722 1 rotate no_reflect no_shear #
shell $-1 $-1 $-1 $40 $-1 $10 #
shell $-1 $-1 $-1 $41 $-1 $12 #
shell $-1 $-1 $-1 $42 $-1 $14 #
shell $-1 $-1 $-1 $43 $-1 $16 #
shell $-1 $-1 $-1 $44 $-1 $18 #
shell $-1 $-1 $-1 $45 $-1 $20 #
shell $-1 $-1 $-1 $46 $-1 $22 #
shell $-1 $-1 $-1 $47 $-1 $24 #
shell $-1 $-1 $-1 $48 $-1 $26 #
shell $-1 $-1 $-1 $49 $-1 $28 #
face $-1 $50 $51 $30 $-1 $52 forward single #
face $-1 $53 $54 $31 $-1 $55 forward single #
face $-1 $56 $57 $32 $-1 $58 reversed single #
face $-1 $59 $60 $33 $-1 $61 forward single #
face $-1 $62 $63 $34 $-1 $64 reversed single #
face $-1 $65 $66 $35 $-1 $67 forward single #
face $-1 $68 $69 $36 $-1 $70 reversed single #
face $-1 $71 $72 $37 $-1 $73 forward single #
face $-1 $74 $75 $38 $-1 $76 reversed single #
face $-1 $77 $78 $39 $-1 $79 forward single #
face $-1 $80 $81 $30 $-1 $82 reversed single #
loop $-1 $-1 $83 $40 #
plane-surface $-1 0 0 20.285709532862722 0 0 1 1 0 0 forward_v I I I I #
face $-1 $84 $85 $31 $-1 $86 forward single #
loop $-1 $-1 $87 $41 #
plane-surface $-1 0 -43.553305918260811 0 0 1 0 0 0 1 forward_v I I I I #
face $-1 $88 $89 $32 $-1 $90 reversed single #
loop $-1 $-1 $91 $42 #
plane-surface $-1 -67.338329677714967 78.027106780691469 186.23509777259895 1 0 0 0 -0.64278761758704617 -0.76604443648966558 forward_v I I I I #
face $-1 $92 $93 $33 $-1 $94 forward single #
loop $-1 $95 $96 $43 #
cone-surface $-1 -58.268227832520921 33.938823097769649 11.065318389349708 0 -0.64278761758704617 -0.76604443648966558 3 0 0 1 I I 0 1 3 forward I I I I #
face $-1 $97 $98 $34 $-1 $99 reversed single #
loop $-1 $-1 $100 $44 #
plane-surface $-1 -28.492844456034355 78.027106780691469 186.23509777259895 1 0 0 0 -0.64278761758704617 -0.76604443648966558 forward_v I I I I #
face $-1 $101 $102 $35 $-1 $103 forward single #
loop $-1 $104 $105 $45 #
cone-surface $-1 -19.422742610840302 33.938823097769649 11.065318389349708 0 -0.64278761758704617 -0.76604443648966558 3 0 0 1 I I 0 1 3 forward I I I I #
face $-1 $106 $107 $36 $-1 $108 reversed single #
loop $-1 $-1 $109 $46 #
plane-surface $-1 10.352640765646266 78.027106780691469 186.23509777259895 1 0 0 0 -0.64278761758704617 -0.76604443648966558 forward_v I I I I #
face $-1 $110 $111 $37 $-1 $112 forward single #
loop $-1 $113 $114 $47 #
cone-surface $-1 19.422742610840317 33.938823097769649 11.065318389349708 0 -0.64278761758704617 -0.76604443648966558 3 0 0 1 I I 0 1 3 forward I I I I #
face $-1 $115 $116 $38 $-1 $117 reversed single #
loop $-1 $-1 $118 $48 #
plane-surface $-1 49.198125987326868 78.027106780691469 186.23509777259895 1 0 0 0 -0.64278761758704617 -0.76604443648966558 forward_v I I I I #
face $-1 $119 $120 $39 $-1 $121 forward single #
loop $-1 $122 $123 $49 #
cone-surface $-1 58.268227832520921 33.938823097769649 11.065318389349708 0 -0.64278761758704617 -0.76604443648966558 3 0 0 1 I I 0 1 3 forward I I I I #
face $-1 $124 $125 $30 $-1 $126 reversed single #
loop $-1 $-1 $127 $50 #
plane-surface $-1 0 0 -20.285709532862722 0 0 1 1 0 0 forward_v I I I I #
coedge $-1 $128 $129 $130 $131 forward $51 $-1 #
face $-1 $132 $133 $31 $-1 $134 reversed single #
loop $-1 $-1 $135 $53 #
plane-surface $-1 0 0 20.285709532862722 0 0 1 1 0 0 forward_v I I I I #
coedge $-1 $136 $137 $138 $139 forward $54 $-1 #
face $-1 $140 $141 $32 $-1 $142 reversed single #
loop $-1 $-1 $143 $56 #
plane-surface $-1 -58.268227832520921 -23.174229460571425 65.628044257849155 0 0.64278761758704617 0.76604443648966558 1 0 0 forward_v I I I I #
coedge $-1 $144 $145 $146 $147 reversed $57 $-1 #
face $-1 $-1 $148 $33 $-1 $149 forward single #
loop $-1 $150 $151 $59 #
cone-surface $-1 -58.268227832520921 29.705481953658399 6.0202189778476445 0 -0.64278761758704617 -0.76604443648966558 1.5 0 0 1 I I -0.70710678118654757 0.70710678118654757 1.5 forward I I I I #
loop $-1 $-1 $152 $43 #
coedge $-1 $96 $96 $153 $154 reversed $60 $-1 #
face $-1 $155 $156 $34 $-1 $157 reversed single #
loop $-1 $-1 $158 $62 #
plane-surface $-1 -19.422742610840302 -23.174229460571425 65.628044257849155 0 0.64278761758704617 0.76604443648966558 1 0 0 forward_v I I I I #
coedge $-1 $159 $160 $161 $162 reversed $63 $-1 #
face $-1 $-1 $163 $35 $-1 $164 forward single #
loop $-1 $165 $166 $65 #
cone-surface $-1 -19.422742610840302 29.705481953658399 6.0202189778476445 0 -0.64278761758704617 -0.76604443648966558 1.5 0 0 1 I I -0.70710678118654757 0.70710678118654757 1.5 forward I I I I #
loop $-1 $-1 $167 $45 #
coedge $-1 $105 $105 $168 $169 reversed $66 $-1 #
face $-1 $170 $171 $36 $-1 $172 reversed single #
loop $-1 $-1 $173 $68 #
plane-surface $-1 19.422742610840317 -23.174229460571425 65.628044257849155 0 0.64278761758704617 0.76604443648966558 1 0 0 forward_v I I I I #
coedge $-1 $174 $175 $176 $177 reversed $69 $-1 #
face $-1 $-1 $178 $37 $-1 $179 forward single #
loop $-1 $180 $181 $71 #
cone-surface $-1 19.422742610840317 29.705481953658399 6.0202189778476445 0 -0.64278761758704617 -0.76604443648966558 1.5 0 0 1 I I -0.70710678118654757 0.70710678118654757 1.5 forward I I I I #
loop $-1 $-1 $182 $47 #
coedge $-1 $114 $114 $183 $184 reversed $72 $-1 #
face $-1 $185 $186 $38 $-1 $187 reversed single #
loop $-1 $-1 $188 $74 #
plane-surface $-1 58.268227832520921 -23.174229460571425 65.628044257849155 0 0.64278761758704617 0.76604443648966558 1 0 0 forward_v I I I I #
coedge $-1 $189 $190 $191 $192 reversed $75 $-1 #
face $-1 $-1 $193 $39 $-1 $194 forward single #
loop $-1 $195 $196 $77 #
cone-surface $-1 58.268227832520921 29.705481953658399 6.0202189778476445 0 -0.64278761758704617 -0.76604443648966558 1.5 0 0 1 I I -0.70710678118654757 0.70710678118654757 1.5 forward I I I I #
loop $-1 $-1 $197 $49 #
coedge $-1 $123 $123 $198 $199 reversed $78 $-1 #
face $-1 $200 $201 $30 $-1 $202 reversed single #
loop $-1 $-1 $203 $80 #
plane-surface $-1 0 -43.553305918260811 0 0 1 0 0 0 1 forward_v I I I I #
coedge $-1 $204 $205 $206 $207 forward $81 $-1 #
coedge $-1 $208 $83 $209 $210 forward $51 $-1 #
coedge $-1 $83 $208 $211 $212 forward $51 $-1 #
coedge $-1 $213 $214 $83 $131 reversed $215 $-1 #
edge $-1 $216 -43.553305918260811 $217 43.553305918260811 $130 $218 forward 7 unknown #
face $-1 $219 $220 $31 $-1 $221 reversed single #
loop $-1 $-1 $222 $84 #
plane-surface $-1 -78.720664082766206 0 0 1 0 0 0 0 -1 forward_v I I I I #
coedge $-1 $223 $224 $225 $226 forward $85 $-1 #
coedge $-1 $225 $87 $222 $227 reversed $54 $-1 #
coedge $-1 $87 $225 $228 $229 reversed $54 $-1 #
coedge $-1 $230 $231 $87 $139 reversed $220 $-1 #
edge $-1 $232 -78.720664082766206 $233 78.720664082766206 $138 $234 forward 7 unknown #
face $-1 $235 $236 $32 $-1 $237 reversed single #
loop $-1 $-1 $238 $88 #
plane-surface $-1 -49.198125987326868 78.027106780691469 186.23509777259895 -1 0 0 0 0.64278761758704617 0.76604443648966558 forward_v I I I I #
coedge $-1 $239 $240 $241 $242 reversed $89 $-1 #
coedge $-1 $145 $91 $243 $244 reversed $57 $-1 #
coedge $-1 $91 $144 $239 $245 reversed $57 $-1 #
coedge $-1 $241 $246 $91 $147 forward $247 $-1 #
edge $-1 $248 -4.539752527915077 $249 8.1508936776058505 $146 $250 forward 7 unknown #
loop $-1 $-1 $153 $92 #
plane-surface $-1 -58.268227832520921 -23.174229460571425 65.628044257849155 0 0.64278761758704617 0.76604443648966558 1 0 0 forward_v I I I I #
loop $-1 $-1 $251 $59 #
coedge $-1 $151 $151 $152 $252 reversed $93 $-1 #
coedge $-1 $152 $152 $151 $252 forward $95 $-1 #
coedge $-1 $153 $153 $96 $154 forward $148 $-1 #
edge $-1 $253 -5.8386158202769635e-016 $253 6.2831853071795996 $153 $254 forward 7 unknown #
face $-1 $255 $256 $34 $-1 $257 forward single #
loop $-1 $-1 $258 $97 #
plane-surface $-1 -10.352640765646251 78.027106780691469 186.23509777259895 -1 0 0 0 0.64278761758704617 0.76604443648966558 forward_v I I I I #
coedge $-1 $259 $260 $261 $262 reversed $98 $-1 #
coedge $-1 $160 $100 $263 $264 reversed $63 $-1 #
coedge $-1 $100 $159 $259 $265 reversed $63 $-1 #
coedge $-1 $261 $266 $100 $162 forward $256 $-1 #
edge $-1 $267 -4.539752527915077 $268 8.1508936776058505 $161 $269 forward 7 unknown #
loop $-1 $-1 $168 $101 #
plane-surface $-1 -19.422742610840302 -23.174229460571425 65.628044257849155 0 0.64278761758704617 0.76604443648966558 1 0 0 forward_v I I I I #
loop $-1 $-1 $270 $65 #
coedge $-1 $166 $166 $167 $271 reversed $102 $-1 #
coedge $-1 $167 $167 $166 $271 forward $104 $-1 #
coedge $-1 $168 $168 $105 $169 forward $163 $-1 #
edge $-1 $272 -5.8386158202769635e-016 $272 6.2831853071795996 $168 $273 forward 7 unknown #
face $-1 $274 $275 $36 $-1 $276 forward single #
loop $-1 $-1 $277 $106 #
plane-surface $-1 28.492844456034369 78.027106780691469 186.23509777259895 -1 0 0 0 0.64278761758704617 0.76604443648966558 forward_v I I I I #
coedge $-1 $278 $279 $280 $281 reversed $107 $-1 #
coedge $-1 $175 $109 $282 $283 reversed $69 $-1 #
coedge $-1 $109 $174 $278 $284 reversed $69 $-1 #
coedge $-1 $280 $285 $109 $177 forward $275 $-1 #
edge $-1 $286 -4.539752527915077 $287 8.1508936776058505 $176 $288 forward 7 unknown #
loop $-1 $-1 $183 $110 #
plane-surface $-1 19.422742610840317 -23.174229460571425 65.628044257849155 0 0.64278761758704617 0.76604443648966558 1 0 0 forward_v I I I I #
loop $-1 $-1 $289 $71 #
coedge $-1 $181 $181 $182 $290 reversed $111 $-1 #
coedge $-1 $182 $182 $181 $290 forward $113 $-1 #
coedge $-1 $183 $183 $114 $184 forward $178 $-1 #
edge $-1 $291 -5.8386158202769635e-016 $291 6.2831853071795996 $183 $292 forward 7 unknown #
face $-1 $293 $294 $38 $-1 $295 forward single #
loop $-1 $-1 $296 $115 #
plane-surface $-1 67.338329677714967 78.027106780691469 186.23509777259895 -1 0 0 0 0.64278761758704617 0.76604443648966558 forward_v I I I I #
coedge $-1 $297 $298 $299 $300 reversed $116 $-1 #
coedge $-1 $190 $118 $301 $302 reversed $75 $-1 #
coedge $-1 $118 $189 $297 $303 reversed $75 $-1 #
coedge $-1 $299 $304 $118 $192 forward $294 $-1 #
edge $-1 $305 -4.539752527915077 $306 8.1508936776058505 $191 $307 forward 7 unknown #
loop $-1 $-1 $198 $119 #
plane-surface $-1 58.268227832520921 -23.174229460571425 65.628044257849155 0 0.64278761758704617 0.76604443648966558 1 0 0 forward_v I I I I #
loop $-1 $-1 $308 $77 #
coedge $-1 $196 $196 $197 $309 reversed $120 $-1 #
coedge $-1 $197 $197 $196 $309 forward $122 $-1 #
coedge $-1 $198 $198 $123 $199 forward $193 $-1 #
edge $-1 $310 -5.8386158202769635e-016 $310 6.2831853071795996 $198 $311 forward 7 unknown #
face $-1 $312 $313 $30 $-1 $314 reversed single #
loop $-1 $-1 $315 $124 #
plane-surface $-1 -78.720664082766206 0 0 1 0 0 0 0 -1 forward_v I I I I #
coedge $-1 $316 $211 $317 $318 forward $125 $-1 #
coedge $-1 $319 $127 $316 $320 forward $81 $-1 #
coedge $-1 $127 $319 $321 $322 forward $81 $-1 #
coedge $-1 $214 $213 $127 $207 reversed $215 $-1 #
edge $-1 $323 -43.553305918260811 $324 43.553305918260811 $206 $325 forward 7 unknown #
coedge $-1 $129 $128 $326 $327 forward $51 $-1 #
coedge $-1 $328 $329 $128 $210 reversed $313 $-1 #
edge $-1 $217 -78.720664082766206 $330 78.720664082766206 $209 $331 forward 7 unknown #
coedge $-1 $203 $332 $129 $212 reversed $125 $-1 #
edge $-1 $333 -78.720664082766206 $216 78.720664082766206 $211 $334 forward 7 unknown #
coedge $-1 $206 $130 $332 $335 forward $215 $-1 #
coedge $-1 $130 $206 $328 $336 reversed $215 $-1 #
loop $-1 $-1 $213 $312 #
vertex $-1 $131 $337 #
vertex $-1 $131 $338 #
straight-curve $-1 78.720664082766206 0 20.285709532862722 0 1 0 I I #
face $-1 $339 $340 $31 $-1 $341 reversed single #
loop $-1 $-1 $230 $132 #
plane-surface $-1 0 -52.761496323897951 9.9237589504066932 0 0 1 1 0 0 forward_v I I I I #
coedge $-1 $342 $343 $136 $227 forward $133 $-1 #
coedge $-1 $344 $135 $343 $345 forward $85 $-1 #
coedge $-1 $135 $344 $346 $347 forward $85 $-1 #
coedge $-1 $137 $136 $135 $226 reversed $54 $-1 #
edge $-1 $348 -78.720664082766206 $349 78.720664082766206 $135 $350 forward 7 unknown #
edge $-1 $349 -20.285709532862722 $233 -9.9237589504066932 $222 $351 forward 7 unknown #
coedge $-1 $346 $352 $137 $229 forward $353 $-1 #
edge $-1 $232 9.9237589504066932 $348 20.285709532862722 $228 $354 forward 7 unknown #
coedge $-1 $355 $138 $352 $356 forward $220 $-1 #
coedge $-1 $138 $355 $342 $357 forward $220 $-1 #
vertex $-1 $229 $358 #
vertex $-1 $227 $359 #
straight-curve $-1 0 -43.553305918260811 9.9237589504066932 -1 0 0 I I #
face $-1 $-1 $247 $32 $-1 $360 forward single #
loop $-1 $-1 $361 $140 #
plane-surface $-1 0 43.553305918260811 0 0 -1 0 0 0 -1 forward_v I I I I #
coedge $-1 $362 $363 $364 $365 reversed $141 $-1 #
coedge $-1 $366 $143 $145 $245 forward $89 $-1 #
coedge $-1 $143 $366 $362 $367 forward $89 $-1 #
coedge $-1 $364 $146 $143 $242 forward $247 $-1 #
edge $-1 $249 -38.204215761454506 $368 -20.064012071066408 $241 $369 forward 7 unknown #
coedge $-1 $370 $371 $144 $244 forward $236 $-1 #
edge $-1 $372 -83.480556126927652 $248 -72.831839353436749 $243 $373 forward 7 unknown #
edge $-1 $249 70.540149630132191 $372 87.106611836521623 $145 $374 forward 7 unknown #
coedge $-1 $146 $364 $370 $375 forward $247 $-1 #
loop $-1 $-1 $364 $235 #
vertex $-1 $244 $376 #
vertex $-1 $147 $377 #
straight-curve $-1 -67.338329677714967 39.013553390345734 20.285709532862725 0 -1 0 I I #
coedge $-1 $251 $251 $-1 $378 reversed $150 $-1 #
edge $-1 $379 0 $379 6.2831853071796004 $151 $380 forward 7 unknown #
vertex $-1 $154 $381 #
ellipse-curve $-1 -58.268227832520921 37.207982815500344 14.961351146117286 0 0.64278761758704617 0.76604443648966558 3 0 0 1 I I #
face $-1 $-1 $382 $34 $-1 $383 reversed single #
loop $-1 $-1 $161 $155 #
plane-surface $-1 0 0 20.285709532862722 0 0 1 1 0 0 forward_v I I I I #
coedge $-1 $384 $385 $386 $387 reversed $156 $-1 #
coedge $-1 $388 $158 $160 $265 forward $98 $-1 #
coedge $-1 $158 $388 $384 $389 forward $98 $-1 #
coedge $-1 $386 $161 $158 $262 forward $256 $-1 #
edge $-1 $268 -18.781473150614204 $390 -0.64126946022610021 $261 $391 forward 7 unknown #
coedge $-1 $392 $393 $159 $264 forward $382 $-1 #
edge $-1 $394 -83.480556126927652 $267 -72.831839353436749 $263 $395 forward 7 unknown #
edge $-1 $268 70.540149630132191 $394 87.106611836521623 $160 $396 forward 7 unknown #
coedge $-1 $161 $386 $392 $397 forward $256 $-1 #
vertex $-1 $162 $398 #
vertex $-1 $162 $399 #
straight-curve $-1 -28.492844456034355 39.013553390345734 20.285709532862725 0 -1 0 I I #
coedge $-1 $270 $270 $-1 $400 reversed $165 $-1 #
edge $-1 $401 0 $401 6.2831853071796004 $166 $402 forward 7 unknown #
vertex $-1 $169 $403 #
ellipse-curve $-1 -19.422742610840302 37.207982815500344 14.961351146117286 0 0.64278761758704617 0.76604443648966558 3 0 0 1 I I #
face $-1 $-1 $404 $36 $-1 $405 reversed single #
loop $-1 $-1 $176 $170 #
plane-surface $-1 0 0 20.285709532862722 0 0 1 1 0 0 forward_v I I I I #
coedge $-1 $406 $407 $408 $409 reversed $171 $-1 #
coedge $-1 $410 $173 $175 $284 forward $107 $-1 #
coedge $-1 $173 $410 $406 $411 forward $107 $-1 #
coedge $-1 $408 $176 $173 $281 forward $275 $-1 #
edge $-1 $287 0.64126946022610731 $412 18.781473150614211 $280 $413 forward 7 unknown #
coedge $-1 $414 $415 $174 $283 forward $404 $-1 #
edge $-1 $416 -83.480556126927652 $286 -72.831839353436749 $282 $417 forward 7 unknown #
edge $-1 $287 70.540149630132191 $416 87.106611836521623 $175 $418 forward 7 unknown #
coedge $-1 $176 $408 $414 $419 forward $275 $-1 #
vertex $-1 $177 $420 #
vertex $-1 $177 $421 #
straight-curve $-1 10.352640765646266 39.013553390345734 20.285709532862725 0 -1 0 I I #
coedge $-1 $289 $289 $-1 $422 reversed $180 $-1 #
edge $-1 $423 0 $423 6.2831853071796004 $181 $424 forward 7 unknown #
vertex $-1 $184 $425 #
ellipse-curve $-1 19.422742610840317 37.207982815500344 14.961351146117286 0 0.64278761758704617 0.76604443648966558 3 0 0 1 I I #
face $-1 $-1 $426 $38 $-1 $427 reversed single #
loop $-1 $-1 $191 $185 #
plane-surface $-1 0 0 20.285709532862722 0 0 1 1 0 0 forward_v I I I I #
coedge $-1 $428 $429 $430 $431 reversed $186 $-1 #
coedge $-1 $432 $188 $190 $303 forward $116 $-1 #
coedge $-1 $188 $432 $428 $433 forward $116 $-1 #
coedge $-1 $430 $191 $188 $300 forward $294 $-1 #
edge $-1 $306 20.064012071066408 $434 38.204215761454506 $299 $435 forward 7 unknown #
coedge $-1 $436 $437 $189 $302 forward $426 $-1 #
edge $-1 $438 -83.480556126927652 $305 -72.831839353436749 $301 $439 forward 7 unknown #
edge $-1 $306 70.540149630132191 $438 87.106611836521623 $190 $440 forward 7 unknown #
coedge $-1 $191 $430 $436 $441 forward $294 $-1 #
vertex $-1 $192 $442 #
vertex $-1 $192 $443 #
straight-curve $-1 49.198125987326868 39.013553390345734 20.285709532862725 0 -1 0 I I #
coedge $-1 $308 $308 $-1 $444 reversed $195 $-1 #
edge $-1 $445 0 $445 6.2831853071796004 $196 $446 forward 7 unknown #
vertex $-1 $199 $447 #
ellipse-curve $-1 58.268227832520921 37.207982815500344 14.961351146117286 0 0.64278761758704617 0.76604443648966558 3 0 0 1 I I #
face $-1 $-1 $215 $30 $-1 $448 reversed single #
loop $-1 $-1 $328 $200 #
plane-surface $-1 0 43.553305918260811 0 0 -1 0 0 0 -1 forward_v I I I I #
coedge $-1 $449 $326 $329 $450 forward $201 $-1 #
coedge $-1 $332 $203 $204 $320 reversed $125 $-1 #
coedge $-1 $326 $449 $203 $318 reversed $201 $-1 #
edge $-1 $333 -20.285709532862722 $451 20.285709532862722 $317 $452 forward 7 unknown #
coedge $-1 $205 $204 $449 $453 forward $81 $-1 #
edge $-1 $324 -78.720664082766206 $451 78.720664082766206 $316 $454 forward 7 unknown #
coedge $-1 $329 $328 $205 $322 reversed $313 $-1 #
edge $-1 $455 -78.720664082766206 $323 78.720664082766206 $321 $456 forward 7 unknown #
vertex $-1 $207 $457 #
vertex $-1 $335 $458 #
straight-curve $-1 78.720664082766206 0 -20.285709532862722 0 -1 0 I I #
coedge $-1 $315 $317 $208 $327 reversed $201 $-1 #
edge $-1 $330 -43.553305918260811 $333 43.553305918260811 $326 $459 forward 7 unknown #
coedge $-1 $321 $209 $214 $336 forward $313 $-1 #
coedge $-1 $209 $321 $315 $450 reversed $313 $-1 #
vertex $-1 $210 $460 #
straight-curve $-1 0 43.553305918260811 20.285709532862722 -1 0 0 I I #
coedge $-1 $211 $316 $213 $335 reversed $125 $-1 #
vertex $-1 $327 $461 #
straight-curve $-1 0 -43.553305918260811 20.285709532862722 1 0 0 I I #
edge $-1 $216 -20.285709532862722 $324 20.285709532862722 $213 $462 forward 7 unknown #
edge $-1 $217 -20.285709532862722 $323 20.285709532862722 $214 $463 forward 7 unknown #
point $-1 78.720664082766206 -43.553305918260811 20.285709532862722 #
point $-1 78.720664082766206 43.553305918260811 20.285709532862722 #
face $-1 $-1 $353 $31 $-1 $464 reversed single #
loop $-1 $-1 $465 $219 #
plane-surface $-1 0 -61.969686729535091 15.104734241634706 0 1 0 0 0 1 forward_v I I I I #
coedge $-1 $466 $222 $231 $357 reversed $133 $-1 #
coedge $-1 $222 $466 $223 $345 reversed $133 $-1 #
coedge $-1 $224 $223 $467 $468 forward $85 $-1 #
edge $-1 $349 43.553305918260811 $469 61.969686729535091 $343 $470 forward 7 unknown #
coedge $-1 $471 $228 $224 $347 reversed $353 $-1 #
edge $-1 $472 -61.969686729535091 $348 -43.553305918260811 $346 $473 forward 7 unknown #
vertex $-1 $229 $474 #
vertex $-1 $345 $475 #
straight-curve $-1 0 -43.553305918260811 20.285709532862722 -1 0 0 I I #
straight-curve $-1 -78.720664082766206 -43.553305918260811 0 0 0 -1 I I #
coedge $-1 $228 $471 $230 $356 reversed $353 $-1 #
loop $-1 $-1 $228 $339 #
straight-curve $-1 78.720664082766206 -43.553305918260811 0 0 0 1 I I #
coedge $-1 $231 $230 $476 $477 forward $220 $-1 #
edge $-1 $232 -9.20819040563714 $478 9.20819040563714 $352 $479 forward 7 unknown #
edge $-1 $480 -9.20819040563714 $233 9.20819040563714 $342 $481 forward 7 unknown #
point $-1 78.720664082766206 -43.553305918260811 9.9237589504066932 #
point $-1 -78.720664082766206 -43.553305918260811 9.9237589504066932 #
plane-surface $-1 0 0 20.285709532862722 0 0 1 1 0 0 forward_v I I I I #
coedge $-1 $371 $370 $363 $482 forward $236 $-1 #
coedge $-1 $363 $238 $240 $367 reversed $141 $-1 #
coedge $-1 $238 $362 $361 $482 reversed $141 $-1 #
coedge $-1 $246 $241 $238 $365 forward $247 $-1 #
edge $-1 $368 -8.1508936776058505 $483 4.539752527915077 $364 $484 forward 7 unknown #
coedge $-1 $240 $239 $371 $485 reversed $89 $-1 #
edge $-1 $486 -87.106611836521623 $368 -70.540149630132191 $362 $487 forward 7 unknown #
vertex $-1 $242 $488 #
straight-curve $-1 -29.134113916260461 30.862659712739887 20.285709532862722 1 0 0 I I #
coedge $-1 $361 $243 $246 $375 reversed $236 $-1 #
coedge $-1 $243 $361 $366 $485 forward $236 $-1 #
vertex $-1 $244 $489 #
straight-curve $-1 -67.338329677714967 43.553305918260811 93.117548886299474 0 0 1 I I #
straight-curve $-1 -67.338329677714967 -23.174229460571425 65.628044257849155 0 0.76604443648966558 -0.64278761758704617 I I #
edge $-1 $483 49.198125987326868 $248 67.338329677714967 $370 $490 forward 7 unknown #
point $-1 -67.338329677714967 43.553305918260811 20.285709532862722 #
point $-1 -67.338329677714967 30.862659712739884 20.285709532862725 #
edge $-1 $491 1 $491 0 $251 $-1 forward 7 unknown #
vertex $-1 $252 $492 #
ellipse-curve $-1 -58.268227832520921 30.669663380038969 7.1692856325821426 0 0.64278761758704617 0.76604443648966558 3 0 0 1 I I #
point $-1 -55.268227832520921 37.20798281550033 14.961351146117272 #
loop $-1 $-1 $263 $255 #
plane-surface $-1 0 43.553305918260811 0 0 -1 0 0 0 -1 forward_v I I I I #
coedge $-1 $385 $258 $260 $389 reversed $156 $-1 #
coedge $-1 $258 $384 $493 $494 reversed $156 $-1 #
coedge $-1 $266 $261 $258 $387 forward $256 $-1 #
edge $-1 $390 -8.1508936776058505 $495 4.539752527915077 $386 $496 forward 7 unknown #
coedge $-1 $260 $259 $393 $497 reversed $98 $-1 #
edge $-1 $498 -87.106611836521623 $390 -70.540149630132191 $384 $499 forward 7 unknown #
vertex $-1 $262 $500 #
straight-curve $-1 -9.7113713054201511 30.862659712739887 20.285709532862722 1 0 0 I I #
coedge $-1 $493 $263 $266 $397 reversed $382 $-1 #
coedge $-1 $263 $493 $388 $497 forward $382 $-1 #
vertex $-1 $264 $501 #
straight-curve $-1 -28.492844456034355 43.553305918260811 93.117548886299474 0 0 1 I I #
straight-curve $-1 -28.492844456034355 -23.174229460571425 65.628044257849155 0 0.76604443648966558 -0.64278761758704617 I I #
edge $-1 $495 10.352640765646251 $267 28.492844456034355 $392 $502 forward 7 unknown #
point $-1 -28.492844456034355 43.553305918260811 20.285709532862722 #
point $-1 -28.492844456034355 30.862659712739884 20.285709532862725 #
edge $-1 $503 1 $503 0 $270 $-1 forward 7 unknown #
vertex $-1 $271 $504 #
ellipse-curve $-1 -19.422742610840302 30.669663380038969 7.1692856325821426 0 0.64278761758704617 0.76604443648966558 3 0 0 1 I I #
point $-1 -16.422742610840302 37.20798281550033 14.961351146117272 #
loop $-1 $-1 $282 $274 #
plane-surface $-1 0 43.553305918260811 0 0 -1 0 0 0 -1 forward_v I I I I #
coedge $-1 $407 $277 $279 $411 reversed $171 $-1 #
coedge $-1 $277 $406 $505 $506 reversed $171 $-1 #
coedge $-1 $285 $280 $277 $409 forward $275 $-1 #
edge $-1 $412 -8.1508936776058505 $507 4.539752527915077 $408 $508 forward 7 unknown #
coedge $-1 $279 $278 $415 $509 reversed $107 $-1 #
edge $-1 $510 -87.106611836521623 $412 -70.540149630132191 $406 $511 forward 7 unknown #
vertex $-1 $281 $512 #
straight-curve $-1 9.7113713054201583 30.862659712739887 20.285709532862722 1 0 0 I I #
coedge $-1 $505 $282 $285 $419 reversed $404 $-1 #
coedge $-1 $282 $505 $410 $509 forward $404 $-1 #
vertex $-1 $283 $513 #
straight-curve $-1 10.352640765646266 43.553305918260811 93.117548886299474 0 0 1 I I #
straight-curve $-1 10.352640765646266 -23.174229460571425 65.628044257849155 0 0.76604443648966558 -0.64278761758704617 I I #
edge $-1 $507 -28.492844456034369 $286 -10.352640765646266 $414 $514 forward 7 unknown #
point $-1 10.352640765646266 43.553305918260811 20.285709532862722 #
point $-1 10.352640765646266 30.862659712739884 20.285709532862725 #
edge $-1 $515 1 $515 0 $289 $-1 forward 7 unknown #
vertex $-1 $290 $516 #
ellipse-curve $-1 19.422742610840317 30.669663380038969 7.1692856325821426 0 0.64278761758704617 0.76604443648966558 3 0 0 1 I I #
point $-1 22.422742610840317 37.20798281550033 14.961351146117272 #
loop $-1 $-1 $301 $293 #
plane-surface $-1 0 43.553305918260811 0 0 -1 0 0 0 -1 forward_v I I I I #
coedge $-1 $429 $296 $298 $433 reversed $186 $-1 #
coedge $-1 $296 $428 $517 $518 reversed $186 $-1 #
coedge $-1 $304 $299 $296 $431 forward $294 $-1 #
edge $-1 $434 -8.1508936776058505 $519 4.539752527915077 $430 $520 forward 7 unknown #
coedge $-1 $298 $297 $437 $521 reversed $116 $-1 #
edge $-1 $522 -87.106611836521623 $434 -70.540149630132191 $428 $523 forward 7 unknown #
vertex $-1 $300 $524 #
straight-curve $-1 29.134113916260461 30.862659712739887 20.285709532862722 1 0 0 I I #
coedge $-1 $517 $301 $304 $441 reversed $426 $-1 #
coedge $-1 $301 $517 $432 $521 forward $426 $-1 #
vertex $-1 $302 $525 #
straight-curve $-1 49.198125987326868 43.553305918260811 93.117548886299474 0 0 1 I I #
straight-curve $-1 49.198125987326868 -23.174229460571425 65.628044257849155 0 0.76604443648966558 -0.64278761758704617 I I #
edge $-1 $519 -67.338329677714967 $305 -49.198125987326868 $436 $526 forward 7 unknown #
point $-1 49.198125987326868 43.553305918260811 20.285709532862722 #
point $-1 49.198125987326868 30.862659712739884 20.285709532862725 #
edge $-1 $527 1 $527 0 $308 $-1 forward 7 unknown #
vertex $-1 $309 $528 #
ellipse-curve $-1 58.268227832520921 30.669663380038969 7.1692856325821426 0 0.64278761758704617 0.76604443648966558 3 0 0 1 I I #
point $-1 61.268227832520921 37.20798281550033 14.961351146117272 #
plane-surface $-1 78.720664082766206 0 0 -1 0 0 0 0 1 forward_v I I I I #
coedge $-1 $317 $315 $319 $453 reversed $201 $-1 #
edge $-1 $330 -20.285709532862722 $455 20.285709532862722 $329 $529 forward 7 unknown #
vertex $-1 $453 $530 #
straight-curve $-1 -78.720664082766206 -43.553305918260811 0 0 0 -1 I I #
edge $-1 $451 -43.553305918260811 $455 43.553305918260811 $449 $531 forward 7 unknown #
straight-curve $-1 0 -43.553305918260811 -20.285709532862722 -1 0 0 I I #
vertex $-1 $322 $532 #
straight-curve $-1 0 43.553305918260811 -20.285709532862722 1 0 0 I I #
point $-1 78.720664082766206 43.553305918260811 -20.285709532862722 #
point $-1 78.720664082766206 -43.553305918260811 -20.285709532862722 #
straight-curve $-1 -78.720664082766206 0 20.285709532862722 0 -1 0 I I #
point $-1 -78.720664082766206 43.553305918260811 20.285709532862722 #
point $-1 -78.720664082766206 -43.553305918260811 20.285709532862722 #
straight-curve $-1 78.720664082766206 -43.553305918260811 0 0 0 -1 I I #
straight-curve $-1 78.720664082766206 43.553305918260811 0 0 0 -1 I I #
plane-surface $-1 78.720664082766206 0 0 -1 0 0 0 0 1 forward_v I I I I #
coedge $-1 $476 $467 $466 $533 forward $340 $-1 #
coedge $-1 $343 $342 $465 $533 reversed $133 $-1 #
coedge $-1 $465 $534 $344 $468 reversed $340 $-1 #
edge $-1 $469 -78.720664082766206 $472 78.720664082766206 $467 $535 forward 7 unknown #
vertex $-1 $345 $536 #
straight-curve $-1 -78.720664082766206 0 20.285709532862722 0 -1 0 I I #
coedge $-1 $352 $346 $534 $537 forward $353 $-1 #
vertex $-1 $347 $538 #
straight-curve $-1 78.720664082766206 0 20.285709532862722 0 1 0 I I #
point $-1 78.720664082766206 -43.553305918260811 20.285709532862722 #
point $-1 -78.720664082766206 -43.553305918260811 20.285709532862722 #
coedge $-1 $534 $465 $355 $477 reversed $340 $-1 #
edge $-1 $478 -78.720664082766206 $480 78.720664082766206 $476 $539 forward 7 unknown #
vertex $-1 $537 $540 #
straight-curve $-1 78.720664082766206 -52.761496323897951 9.9237589504066932 0 -1 0 I I #
vertex $-1 $357 $541 #
straight-curve $-1 -78.720664082766206 -52.761496323897951 9.9237589504066932 0 1 0 I I #
edge $-1 $483 72.831839353436749 $486 83.480556126927652 $361 $542 forward 7 unknown #
vertex $-1 $375 $543 #
straight-curve $-1 -49.198125987326868 39.013553390345734 20.285709532862725 0 1 0 I I #
edge $-1 $486 20.064012071066408 $372 38.204215761454506 $371 $544 forward 7 unknown #
vertex $-1 $485 $545 #
straight-curve $-1 -49.198125987326868 -23.174229460571425 65.628044257849155 0 -0.76604443648966558 0.64278761758704617 I I #
point $-1 -49.198125987326868 30.862659712739884 20.285709532862725 #
point $-1 -67.338329677714967 43.553305918260818 9.6369927593718216 #
straight-curve $-1 0 43.553305918260811 20.285709532862722 -1 0 0 I I #
vertex $-1 $378 $546 #
point $-1 -55.268227832520921 30.669663380038969 7.1692856325821426 #
coedge $-1 $393 $392 $385 $494 forward $382 $-1 #
edge $-1 $495 72.831839353436749 $498 83.480556126927652 $493 $547 forward 7 unknown #
vertex $-1 $397 $548 #
straight-curve $-1 -10.352640765646251 39.013553390345734 20.285709532862725 0 1 0 I I #
edge $-1 $498 0.64126946022610021 $394 18.781473150614204 $393 $549 forward 7 unknown #
vertex $-1 $497 $550 #
straight-curve $-1 -10.352640765646251 -23.174229460571425 65.628044257849155 0 -0.76604443648966558 0.64278761758704617 I I #
point $-1 -10.352640765646251 30.862659712739884 20.285709532862725 #
point $-1 -28.492844456034355 43.553305918260818 9.6369927593718216 #
straight-curve $-1 0 43.553305918260811 20.285709532862722 -1 0 0 I I #
vertex $-1 $400 $551 #
point $-1 -16.422742610840302 30.669663380038969 7.1692856325821426 #
coedge $-1 $415 $414 $407 $506 forward $404 $-1 #
edge $-1 $507 72.831839353436749 $510 83.480556126927652 $505 $552 forward 7 unknown #
vertex $-1 $419 $553 #
straight-curve $-1 28.492844456034369 39.013553390345734 20.285709532862725 0 1 0 I I #
edge $-1 $510 -18.781473150614211 $416 -0.64126946022610731 $415 $554 forward 7 unknown #
vertex $-1 $509 $555 #
straight-curve $-1 28.492844456034369 -23.174229460571425 65.628044257849155 0 -0.76604443648966558 0.64278761758704617 I I #
point $-1 28.492844456034369 30.862659712739884 20.285709532862725 #
point $-1 10.352640765646266 43.553305918260818 9.6369927593718216 #
straight-curve $-1 0 43.553305918260811 20.285709532862722 -1 0 0 I I #
vertex $-1 $422 $556 #
point $-1 22.422742610840317 30.669663380038969 7.1692856325821426 #
coedge $-1 $437 $436 $429 $518 forward $426 $-1 #
edge $-1 $519 72.831839353436749 $522 83.480556126927652 $517 $557 forward 7 unknown #
vertex $-1 $441 $558 #
straight-curve $-1 67.338329677714967 39.013553390345734 20.285709532862725 0 1 0 I I #
edge $-1 $522 -38.204215761454506 $438 -20.064012071066408 $437 $559 forward 7 unknown #
vertex $-1 $521 $560 #
straight-curve $-1 67.338329677714967 -23.174229460571425 65.628044257849155 0 -0.76604443648966558 0.64278761758704617 I I #
point $-1 67.338329677714967 30.862659712739884 20.285709532862725 #
point $-1 49.198125987326868 43.553305918260818 9.6369927593718216 #
straight-curve $-1 0 43.553305918260811 20.285709532862722 -1 0 0 I I #
vertex $-1 $444 $561 #
point $-1 61.268227832520921 30.669663380038969 7.1692856325821426 #
straight-curve $-1 -78.720664082766206 43.553305918260811 0 0 0 -1 I I #
point $-1 -78.720664082766206 -43.553305918260811 -20.285709532862722 #
straight-curve $-1 -78.720664082766206 0 -20.285709532862722 0 1 0 I I #
point $-1 -78.720664082766206 43.553305918260811 -20.285709532862722 #
edge $-1 $469 -5.1809752912280125 $480 5.1809752912280125 $466 $562 forward 7 unknown #
coedge $-1 $467 $476 $471 $537 reversed $340 $-1 #
straight-curve $-1 0 -61.969686729535091 20.285709532862718 1 0 0 I I #
point $-1 -78.720664082766206 -61.969686729535091 20.285709532862718 #
edge $-1 $472 -5.1809752912280125 $478 5.1809752912280125 $471 $563 forward 7 unknown #
point $-1 78.720664082766206 -61.969686729535091 20.285709532862718 #
straight-curve $-1 0 -61.969686729535091 9.9237589504066932 -1 0 0 I I #
point $-1 78.720664082766206 -61.969686729535091 9.9237589504066932 #
point $-1 -78.720664082766206 -61.969686729535091 9.9237589504066932 #
straight-curve $-1 -49.198125987326868 43.553305918260811 93.117548886299474 0 0 -1 I I #
point $-1 -49.198125987326868 43.553305918260811 20.285709532862722 #
straight-curve $-1 -29.134113916260461 43.553305918260804 9.6369927593718323 -1 0 0 I I #
point $-1 -49.198125987326868 43.553305918260818 9.6369927593718216 #
point $-1 -58.268227832520921 28.741300527277829 4.8711523231131464 #
straight-curve $-1 -10.352640765646251 43.553305918260811 93.117548886299474 0 0 -1 I I #
point $-1 -10.352640765646251 43.553305918260811 20.285709532862722 #
straight-curve $-1 -9.7113713054201511 43.553305918260804 9.6369927593718323 -1 0 0 I I #
point $-1 -10.352640765646251 43.553305918260818 9.6369927593718216 #
point $-1 -19.422742610840302 28.741300527277829 4.8711523231131464 #
straight-curve $-1 28.492844456034369 43.553305918260811 93.117548886299474 0 0 -1 I I #
point $-1 28.492844456034369 43.553305918260811 20.285709532862722 #
straight-curve $-1 9.7113713054201583 43.553305918260804 9.6369927593718323 -1 0 0 I I #
point $-1 28.492844456034369 43.553305918260818 9.6369927593718216 #
point $-1 19.422742610840317 28.741300527277829 4.8711523231131464 #
straight-curve $-1 67.338329677714967 43.553305918260811 93.117548886299474 0 0 -1 I I #
point $-1 67.338329677714967 43.553305918260811 20.285709532862722 #
straight-curve $-1 29.134113916260461 43.553305918260804 9.6369927593718323 -1 0 0 I I #
point $-1 67.338329677714967 43.553305918260818 9.6369927593718216 #
point $-1 58.268227832520921 28.741300527277829 4.8711523231131464 #
straight-curve $-1 -78.720664082766206 -61.969686729535091 15.104734241634706 0 0 -1 I I #
straight-curve $-1 78.720664082766206 -61.969686729535091 15.104734241634706 0 0 -1 I I #
End-of-ACIS-data 