500 0 15 0           
7 Unknown 11 ACIS 5.0 NT 24 Thu Mar 25 22:39:58 1999 
-1 9.9999999999999995e-007 1e-010 
body $-1 $15 $-1 $16 #
body $-1 $17 $-1 $18 #
body $-1 $19 $-1 $20 #
body $-1 $21 $-1 $22 #
body $-1 $23 $-1 $24 #
body $-1 $25 $-1 $26 #
body $-1 $27 $-1 $28 #
body $-1 $29 $-1 $30 #
body $-1 $31 $-1 $32 #
body $-1 $33 $-1 $34 #
body $-1 $35 $-1 $36 #
body $-1 $37 $-1 $38 #
body $-1 $39 $-1 $40 #
body $-1 $41 $-1 $42 #
body $-1 $43 $-1 $44 #
lump $-1 $-1 $45 $0 #
transform $-1 1 0 0 0 1 0 0 0 1 62.741172521134068 29.35586835148969 6.5293894507428822 1 rotate no_reflect no_shear #
lump $-1 $-1 $46 $1 #
transform $-1 1 0 0 0 1 0 0 0 1 62.741172521134068 29.35586835148969 6.5293894507428822 1 rotate no_reflect no_shear #
lump $-1 $-1 $47 $2 #
transform $-1 1 0 0 0 1 0 0 0 1 62.741172521134068 29.35586835148969 6.5293894507428822 1 rotate no_reflect no_shear #
lump $-1 $-1 $48 $3 #
transform $-1 1 0 0 0 1 0 0 0 1 62.741172521134068 29.35586835148969 6.5293894507428822 1 rotate no_reflect no_shear #
lump $-1 $-1 $49 $4 #
transform $-1 1 0 0 0 1 0 0 0 1 62.741172521134068 29.35586835148969 6.5293894507428822 1 rotate no_reflect no_shear #
lump $-1 $-1 $50 $5 #
transform $-1 1 0 0 0 1 0 0 0 1 62.741172521134068 29.35586835148969 6.5293894507428822 1 rotate no_reflect no_shear #
lump $-1 $-1 $51 $6 #
transform $-1 1 0 0 0 1 0 0 0 1 62.741172521134068 29.35586835148969 6.5293894507428822 1 rotate no_reflect no_shear #
lump $-1 $-1 $52 $7 #
transform $-1 1 0 0 0 1 0 0 0 1 62.741172521134068 29.35586835148969 6.5293894507428822 1 rotate no_reflect no_shear #
lump $-1 $-1 $53 $8 #
transform $-1 1 0 0 0 1 0 0 0 1 62.741172521134068 29.35586835148969 6.5293894507428822 1 rotate no_reflect no_shear #
lump $-1 $-1 $54 $9 #
transform $-1 1 0 0 0 1 0 0 0 1 62.741172521134068 29.35586835148969 6.5293894507428822 1 rotate no_reflect no_shear #
lump $-1 $-1 $55 $10 #
transform $-1 1 0 0 0 1 0 0 0 1 62.741172521134068 29.35586835148969 6.5293894507428822 1 rotate no_reflect no_shear #
lump $-1 $-1 $56 $11 #
transform $-1 1 0 0 0 1 0 0 0 1 62.741172521134068 29.35586835148969 6.5293894507428822 1 rotate no_reflect no_shear #
lump $-1 $-1 $57 $12 #
transform $-1 1 0 0 0 1 0 0 0 1 62.741172521134068 29.35586835148969 6.5293894507428822 1 rotate no_reflect no_shear #
lump $-1 $-1 $58 $13 #
transform $-1 1 0 0 0 1 0 0 0 1 62.741172521134068 29.35586835148969 6.5293894507428822 1 rotate no_reflect no_shear #
lump $-1 $-1 $59 $14 #
transform $-1 1 0 0 0 1 0 0 0 1 62.741172521134068 29.35586835148969 6.5293894507428822 1 rotate no_reflect no_shear #
shell $-1 $-1 $-1 $60 $-1 $15 #
shell $-1 $-1 $-1 $61 $-1 $17 #
shell $-1 $-1 $-1 $62 $-1 $19 #
shell $-1 $-1 $-1 $63 $-1 $21 #
shell $-1 $-1 $-1 $64 $-1 $23 #
shell $-1 $-1 $-1 $65 $-1 $25 #
shell $-1 $-1 $-1 $66 $-1 $27 #
shell $-1 $-1 $-1 $67 $-1 $29 #
shell $-1 $-1 $-1 $68 $-1 $31 #
shell $-1 $-1 $-1 $69 $-1 $33 #
shell $-1 $-1 $-1 $70 $-1 $35 #
shell $-1 $-1 $-1 $71 $-1 $37 #
shell $-1 $-1 $-1 $72 $-1 $39 #
shell $-1 $-1 $-1 $73 $-1 $41 #
shell $-1 $-1 $-1 $74 $-1 $43 #
face $-1 $75 $76 $45 $-1 $77 forward single #
face $-1 $78 $79 $46 $-1 $80 forward single #
face $-1 $81 $82 $47 $-1 $83 forward single #
face $-1 $84 $85 $48 $-1 $86 reversed single #
face $-1 $87 $88 $49 $-1 $89 forward single #
face $-1 $90 $91 $50 $-1 $92 forward single #
face $-1 $93 $94 $51 $-1 $95 reversed single #
face $-1 $96 $97 $52 $-1 $98 forward single #
face $-1 $99 $100 $53 $-1 $101 forward single #
face $-1 $102 $103 $54 $-1 $104 reversed single #
face $-1 $105 $106 $55 $-1 $107 forward single #
face $-1 $108 $109 $56 $-1 $110 forward single #
face $-1 $111 $112 $57 $-1 $113 reversed single #
face $-1 $114 $115 $58 $-1 $116 forward single #
face $-1 $117 $118 $59 $-1 $119 forward single #
face $-1 $120 $121 $45 $-1 $122 reversed single #
loop $-1 $-1 $123 $60 #
plane-surface $-1 0 0 6.5293894507428822 0 0 1 1 0 0 forward_v I I I I #
face $-1 $124 $125 $46 $-1 $126 reversed single #
loop $-1 $-1 $127 $61 #
plane-surface $-1 0 -29.35586835148969 0 0 1 0 0 0 1 forward_v I I I I #
face $-1 $128 $129 $47 $-1 $130 reversed single #
loop $-1 $-1 $131 $62 #
plane-surface $-1 0 29.35586835148969 0 0 -1 0 0 0 -1 forward_v I I I I #
face $-1 $132 $133 $48 $-1 $134 reversed single #
loop $-1 $-1 $135 $63 #
plane-surface $-1 28.880432174370107 -11.282937609839085 174.29740294495582 0 -1 0 -0.55919291073839883 0 -0.82903756765294845 forward_v I I I I #
face $-1 $136 $137 $49 $-1 $138 forward single #
loop $-1 $139 $140 $64 #
cone-surface $-1 57.694844355697789 -16.39774218814286 2.8996694701748713 -0.55919291073839883 0 -0.82903756765294845 0.20725939191323711 0 -0.13979822768459971 1 I I 0 1 0.25 forward I I I I #
face $-1 $141 $142 $50 $-1 $143 forward single #
loop $-1 $144 $145 $65 #
cone-surface $-1 57.694844355697789 -13.328859441160596 2.8996694701748713 -0.55919291073839883 0 -0.82903756765294845 0.20725939191323711 0 -0.13979822768459971 1 I I 0 1 0.25 forward I I I I #
face $-1 $146 $147 $51 $-1 $148 reversed single #
loop $-1 $-1 $149 $66 #
plane-surface $-1 28.880432174370107 0.65015119647307706 174.29740294495582 0 -1 0 -0.55919291073839883 0 -0.82903756765294845 forward_v I I I I #
face $-1 $150 $151 $52 $-1 $152 forward single #
loop $-1 $153 $154 $67 #
cone-surface $-1 57.694844355697789 -4.464653381830697 2.8996694701748713 -0.55919291073839883 0 -0.82903756765294845 0.20725939191323711 0 -0.13979822768459971 1 I I 0 1 0.25 forward I I I I #
face $-1 $155 $156 $53 $-1 $157 forward single #
loop $-1 $158 $159 $68 #
cone-surface $-1 57.694844355697789 -1.3957706348484322 2.8996694701748713 -0.55919291073839883 0 -0.82903756765294845 0.20725939191323711 0 -0.13979822768459971 1 I I 0 1 0.25 forward I I I I #
face $-1 $160 $161 $54 $-1 $162 reversed single #
loop $-1 $-1 $163 $69 #
plane-surface $-1 28.880432174370107 12.58324000278524 174.29740294495582 0 -1 0 -0.55919291073839883 0 -0.82903756765294845 forward_v I I I I #
face $-1 $164 $165 $55 $-1 $166 forward single #
loop $-1 $167 $168 $70 #
cone-surface $-1 57.694844355697789 7.4684354244814699 2.8996694701748713 -0.55919291073839883 0 -0.82903756765294845 0.20725939191323711 0 -0.13979822768459971 1 I I 0 1 0.25 forward I I I I #
face $-1 $169 $170 $56 $-1 $171 forward single #
loop $-1 $172 $173 $71 #
cone-surface $-1 57.694844355697789 10.537318171463731 2.8996694701748713 -0.55919291073839883 0 -0.82903756765294845 0.20725939191323711 0 -0.13979822768459971 1 I I 0 1 0.25 forward I I I I #
face $-1 $174 $175 $57 $-1 $176 reversed single #
loop $-1 $-1 $177 $72 #
plane-surface $-1 28.880432174370107 24.516328809097402 174.29740294495582 0 -1 0 -0.55919291073839883 0 -0.82903756765294845 forward_v I I I I #
face $-1 $178 $179 $58 $-1 $180 forward single #
loop $-1 $181 $182 $73 #
cone-surface $-1 57.694844355697789 19.401524230793633 2.8996694701748713 -0.55919291073839883 0 -0.82903756765294845 0.20725939191323711 0 -0.13979822768459971 1 I I 0 1 0.25 forward I I I I #
face $-1 $183 $184 $59 $-1 $185 forward single #
loop $-1 $186 $187 $74 #
cone-surface $-1 57.694844355697789 22.470406977775895 2.8996694701748713 -0.55919291073839883 0 -0.82903756765294845 0.20725939191323711 0 -0.13979822768459971 1 I I 0 1 0.25 forward I I I I #
face $-1 $188 $189 $45 $-1 $190 reversed single #
loop $-1 $-1 $191 $75 #
plane-surface $-1 0 0 -6.5293894507428822 0 0 1 1 0 0 forward_v I I I I #
coedge $-1 $192 $193 $194 $195 forward $76 $-1 #
face $-1 $196 $197 $46 $-1 $198 forward single #
loop $-1 $-1 $199 $78 #
plane-surface $-1 -62.741172521134068 0 0 1 0 0 0 0 -1 forward_v I I I I #
coedge $-1 $200 $201 $202 $203 forward $79 $-1 #
face $-1 $204 $205 $47 $-1 $206 reversed single #
loop $-1 $-1 $207 $81 #
plane-surface $-1 0 0 -6.5293894507428822 0 0 1 1 0 0 forward_v I I I I #
coedge $-1 $208 $209 $210 $211 forward $82 $-1 #
face $-1 $212 $213 $48 $-1 $214 reversed single #
loop $-1 $-1 $215 $84 #
plane-surface $-1 -41.288405596095906 -14.863300814651728 70.267824827725818 0.55919291073839883 0 0.82903756765294845 0.82903756765294845 0 -0.55919291073839883 forward_v I I I I #
coedge $-1 $216 $217 $218 $219 reversed $85 $-1 #
face $-1 $-1 $220 $49 $-1 $221 forward single #
loop $-1 $222 $223 $87 #
cone-surface $-1 57.345348786486291 -16.39774218814286 2.3815209903917784 -0.55919291073839883 0 -0.82903756765294845 0.10362969595661856 0 -0.069899113842299854 1 I I -0.70710678118654746 0.70710678118654746 0.125 forward I I I I #
loop $-1 $-1 $224 $64 #
coedge $-1 $140 $140 $225 $226 reversed $88 $-1 #
face $-1 $-1 $227 $50 $-1 $228 forward single #
loop $-1 $229 $230 $90 #
cone-surface $-1 57.345348786486291 -13.328859441160596 2.3815209903917784 -0.55919291073839883 0 -0.82903756765294845 0.10362969595661856 0 -0.069899113842299854 1 I I -0.70710678118654746 0.70710678118654746 0.125 forward I I I I #
loop $-1 $-1 $231 $65 #
coedge $-1 $145 $145 $232 $233 reversed $91 $-1 #
face $-1 $234 $235 $51 $-1 $236 reversed single #
loop $-1 $-1 $237 $93 #
plane-surface $-1 -41.288405596095906 -2.9302120083395664 70.267824827725818 0.55919291073839883 0 0.82903756765294845 0.82903756765294845 0 -0.55919291073839883 forward_v I I I I #
coedge $-1 $238 $239 $240 $241 reversed $94 $-1 #
face $-1 $-1 $242 $52 $-1 $243 forward single #
loop $-1 $244 $245 $96 #
cone-surface $-1 57.345348786486291 -4.464653381830697 2.3815209903917784 -0.55919291073839883 0 -0.82903756765294845 0.10362969595661856 0 -0.069899113842299854 1 I I -0.70710678118654746 0.70710678118654746 0.125 forward I I I I #
loop $-1 $-1 $246 $67 #
coedge $-1 $154 $154 $247 $248 reversed $97 $-1 #
face $-1 $-1 $249 $53 $-1 $250 forward single #
loop $-1 $251 $252 $99 #
cone-surface $-1 57.345348786486291 -1.3957706348484322 2.3815209903917784 -0.55919291073839883 0 -0.82903756765294845 0.10362969595661856 0 -0.069899113842299854 1 I I -0.70710678118654746 0.70710678118654746 0.125 forward I I I I #
loop $-1 $-1 $253 $68 #
coedge $-1 $159 $159 $254 $255 reversed $100 $-1 #
face $-1 $256 $257 $54 $-1 $258 reversed single #
loop $-1 $-1 $259 $102 #
plane-surface $-1 -41.288405596095906 9.002876797972597 70.267824827725818 0.55919291073839883 0 0.82903756765294845 0.82903756765294845 0 -0.55919291073839883 forward_v I I I I #
coedge $-1 $260 $261 $262 $263 reversed $103 $-1 #
face $-1 $-1 $264 $55 $-1 $265 forward single #
loop $-1 $266 $267 $105 #
cone-surface $-1 57.345348786486291 7.4684354244814699 2.3815209903917784 -0.55919291073839883 0 -0.82903756765294845 0.10362969595661856 0 -0.069899113842299854 1 I I -0.70710678118654746 0.70710678118654746 0.125 forward I I I I #
loop $-1 $-1 $268 $70 #
coedge $-1 $168 $168 $269 $270 reversed $106 $-1 #
face $-1 $-1 $271 $56 $-1 $272 forward single #
loop $-1 $273 $274 $108 #
cone-surface $-1 57.345348786486291 10.537318171463731 2.3815209903917784 -0.55919291073839883 0 -0.82903756765294845 0.10362969595661856 0 -0.069899113842299854 1 I I -0.70710678118654746 0.70710678118654746 0.125 forward I I I I #
loop $-1 $-1 $275 $71 #
coedge $-1 $173 $173 $276 $277 reversed $109 $-1 #
face $-1 $278 $279 $57 $-1 $280 reversed single #
loop $-1 $-1 $281 $111 #
plane-surface $-1 -41.288405596095906 20.93596560428476 70.267824827725818 0.55919291073839883 0 0.82903756765294845 0.82903756765294845 0 -0.55919291073839883 forward_v I I I I #
coedge $-1 $282 $283 $284 $285 reversed $112 $-1 #
face $-1 $-1 $286 $58 $-1 $287 forward single #
loop $-1 $288 $289 $114 #
cone-surface $-1 57.345348786486291 19.401524230793633 2.3815209903917784 -0.55919291073839883 0 -0.82903756765294845 0.10362969595661856 0 -0.069899113842299854 1 I I -0.70710678118654746 0.70710678118654746 0.125 forward I I I I #
loop $-1 $-1 $290 $73 #
coedge $-1 $182 $182 $291 $292 reversed $115 $-1 #
face $-1 $-1 $293 $59 $-1 $294 forward single #
loop $-1 $295 $296 $117 #
cone-surface $-1 57.345348786486291 22.470406977775895 2.3815209903917784 -0.55919291073839883 0 -0.82903756765294845 0.10362969595661856 0 -0.069899113842299854 1 I I -0.70710678118654746 0.70710678118654746 0.125 forward I I I I #
loop $-1 $-1 $297 $74 #
coedge $-1 $187 $187 $298 $299 reversed $118 $-1 #
face $-1 $300 $301 $45 $-1 $302 reversed single #
loop $-1 $-1 $303 $120 #
plane-surface $-1 0 -29.35586835148969 0 0 1 0 0 0 1 forward_v I I I I #
coedge $-1 $304 $305 $306 $307 forward $121 $-1 #
coedge $-1 $308 $123 $309 $310 forward $76 $-1 #
coedge $-1 $123 $308 $311 $312 forward $76 $-1 #
coedge $-1 $313 $314 $123 $195 reversed $315 $-1 #
edge $-1 $316 -29.35586835148969 $317 29.35586835148969 $194 $318 forward 7 unknown #
face $-1 $319 $320 $46 $-1 $321 reversed single #
loop $-1 $-1 $322 $124 #
plane-surface $-1 0 -32.425789319158909 6.0293894507428831 0 0 1 1 0 0 forward_v I I I I #
coedge $-1 $323 $324 $201 $325 forward $125 $-1 #
coedge $-1 $326 $127 $327 $328 reversed $79 $-1 #
coedge $-1 $127 $326 $199 $325 reversed $79 $-1 #
coedge $-1 $329 $322 $127 $203 reversed $197 $-1 #
edge $-1 $330 -62.741172521134068 $331 62.741172521134068 $202 $332 forward 7 unknown #
face $-1 $333 $334 $47 $-1 $335 reversed single #
loop $-1 $-1 $336 $128 #
plane-surface $-1 -56.347722153958429 31.775638122685834 0 1 0 0 0 0 -1 forward_v I I I I #
coedge $-1 $337 $338 $209 $339 forward $129 $-1 #
coedge $-1 $340 $131 $341 $342 reversed $82 $-1 #
coedge $-1 $131 $340 $207 $339 reversed $82 $-1 #
coedge $-1 $343 $344 $131 $211 reversed $345 $-1 #
edge $-1 $346 -6.5293894507428822 $347 6.5293894507428822 $210 $348 forward 7 unknown #
face $-1 $349 $350 $48 $-1 $351 reversed single #
loop $-1 $-1 $352 $132 #
plane-surface $-1 28.880432174370107 -18.443664019464372 174.29740294495582 0 1 0 0.55919291073839883 0 0.82903756765294845 forward_v I I I I #
coedge $-1 $353 $354 $355 $356 reversed $133 $-1 #
coedge $-1 $217 $135 $357 $358 reversed $85 $-1 #
coedge $-1 $135 $216 $353 $359 reversed $85 $-1 #
coedge $-1 $355 $360 $135 $219 forward $361 $-1 #
edge $-1 $362 -48.300956433949011 $363 -38.767493013814814 $218 $364 forward 7 unknown #
loop $-1 $-1 $225 $136 #
plane-surface $-1 -41.288405596095906 -14.863300814651728 70.267824827725818 0.55919291073839883 0 0.82903756765294845 0.82903756765294845 0 -0.55919291073839883 forward_v I I I I #
loop $-1 $-1 $365 $87 #
coedge $-1 $223 $223 $224 $366 reversed $137 $-1 #
coedge $-1 $224 $224 $223 $366 forward $139 $-1 #
coedge $-1 $225 $225 $140 $226 forward $220 $-1 #
edge $-1 $367 0 $367 6.2831853071796004 $225 $368 forward 7 unknown #
loop $-1 $-1 $232 $141 #
plane-surface $-1 -41.288405596095906 -14.863300814651728 70.267824827725818 0.55919291073839883 0 0.82903756765294845 0.82903756765294845 0 -0.55919291073839883 forward_v I I I I #
loop $-1 $-1 $369 $90 #
coedge $-1 $230 $230 $231 $370 reversed $142 $-1 #
coedge $-1 $231 $231 $230 $370 forward $144 $-1 #
coedge $-1 $232 $232 $145 $233 forward $227 $-1 #
edge $-1 $371 0 $371 6.2831853071796004 $232 $372 forward 7 unknown #
face $-1 $373 $374 $51 $-1 $375 reversed single #
loop $-1 $-1 $376 $146 #
plane-surface $-1 28.880432174370107 -6.5105752131522099 174.29740294495582 0 1 0 0.55919291073839883 0 0.82903756765294845 forward_v I I I I #
coedge $-1 $377 $378 $379 $380 reversed $147 $-1 #
coedge $-1 $239 $149 $381 $382 reversed $94 $-1 #
coedge $-1 $149 $238 $377 $383 reversed $94 $-1 #
coedge $-1 $379 $384 $149 $241 forward $385 $-1 #
edge $-1 $386 -48.300956433949011 $387 -38.767493013814814 $240 $388 forward 7 unknown #
loop $-1 $-1 $247 $150 #
plane-surface $-1 -41.288405596095906 -2.9302120083395664 70.267824827725818 0.55919291073839883 0 0.82903756765294845 0.82903756765294845 0 -0.55919291073839883 forward_v I I I I #
loop $-1 $-1 $389 $96 #
coedge $-1 $245 $245 $246 $390 reversed $151 $-1 #
coedge $-1 $246 $246 $245 $390 forward $153 $-1 #
coedge $-1 $247 $247 $154 $248 forward $242 $-1 #
edge $-1 $391 0 $391 6.2831853071796004 $247 $392 forward 7 unknown #
loop $-1 $-1 $254 $155 #
plane-surface $-1 -41.288405596095906 -2.9302120083395664 70.267824827725818 0.55919291073839883 0 0.82903756765294845 0.82903756765294845 0 -0.55919291073839883 forward_v I I I I #
loop $-1 $-1 $393 $99 #
coedge $-1 $252 $252 $253 $394 reversed $156 $-1 #
coedge $-1 $253 $253 $252 $394 forward $158 $-1 #
coedge $-1 $254 $254 $159 $255 forward $249 $-1 #
edge $-1 $395 0 $395 6.2831853071796004 $254 $396 forward 7 unknown #
face $-1 $397 $398 $54 $-1 $399 reversed single #
loop $-1 $-1 $400 $160 #
plane-surface $-1 28.880432174370107 5.4225135931599535 174.29740294495582 0 1 0 0.55919291073839883 0 0.82903756765294845 forward_v I I I I #
coedge $-1 $401 $402 $403 $404 reversed $161 $-1 #
coedge $-1 $261 $163 $405 $406 reversed $103 $-1 #
coedge $-1 $163 $260 $401 $407 reversed $103 $-1 #
coedge $-1 $403 $408 $163 $263 forward $409 $-1 #
edge $-1 $410 -48.300956433949011 $411 -38.767493013814814 $262 $412 forward 7 unknown #
loop $-1 $-1 $269 $164 #
plane-surface $-1 -41.288405596095906 9.002876797972597 70.267824827725818 0.55919291073839883 0 0.82903756765294845 0.82903756765294845 0 -0.55919291073839883 forward_v I I I I #
loop $-1 $-1 $413 $105 #
coedge $-1 $267 $267 $268 $414 reversed $165 $-1 #
coedge $-1 $268 $268 $267 $414 forward $167 $-1 #
coedge $-1 $269 $269 $168 $270 forward $264 $-1 #
edge $-1 $415 0 $415 6.2831853071796004 $269 $416 forward 7 unknown #
loop $-1 $-1 $276 $169 #
plane-surface $-1 -41.288405596095906 9.002876797972597 70.267824827725818 0.55919291073839883 0 0.82903756765294845 0.82903756765294845 0 -0.55919291073839883 forward_v I I I I #
loop $-1 $-1 $417 $108 #
coedge $-1 $274 $274 $275 $418 reversed $170 $-1 #
coedge $-1 $275 $275 $274 $418 forward $172 $-1 #
coedge $-1 $276 $276 $173 $277 forward $271 $-1 #
edge $-1 $419 0 $419 6.2831853071796004 $276 $420 forward 7 unknown #
face $-1 $421 $422 $57 $-1 $423 reversed single #
loop $-1 $-1 $424 $174 #
plane-surface $-1 28.880432174370107 17.355602399472119 174.29740294495582 0 1 0 0.55919291073839883 0 0.82903756765294845 forward_v I I I I #
coedge $-1 $425 $426 $427 $428 reversed $175 $-1 #
coedge $-1 $283 $177 $429 $430 reversed $112 $-1 #
coedge $-1 $177 $282 $425 $431 reversed $112 $-1 #
coedge $-1 $427 $432 $177 $285 forward $433 $-1 #
edge $-1 $434 -48.300956433949011 $435 -38.767493013814814 $284 $436 forward 7 unknown #
loop $-1 $-1 $291 $178 #
plane-surface $-1 -41.288405596095906 20.93596560428476 70.267824827725818 0.55919291073839883 0 0.82903756765294845 0.82903756765294845 0 -0.55919291073839883 forward_v I I I I #
loop $-1 $-1 $437 $114 #
coedge $-1 $289 $289 $290 $438 reversed $179 $-1 #
coedge $-1 $290 $290 $289 $438 forward $181 $-1 #
coedge $-1 $291 $291 $182 $292 forward $286 $-1 #
edge $-1 $439 0 $439 6.2831853071796004 $291 $440 forward 7 unknown #
loop $-1 $-1 $298 $183 #
plane-surface $-1 -41.288405596095906 20.93596560428476 70.267824827725818 0.55919291073839883 0 0.82903756765294845 0.82903756765294845 0 -0.55919291073839883 forward_v I I I I #
loop $-1 $-1 $441 $117 #
coedge $-1 $296 $296 $297 $442 reversed $184 $-1 #
coedge $-1 $297 $297 $296 $442 forward $186 $-1 #
coedge $-1 $298 $298 $187 $299 forward $293 $-1 #
edge $-1 $443 0 $443 6.2831853071796004 $298 $444 forward 7 unknown #
face $-1 $445 $446 $45 $-1 $447 reversed single #
loop $-1 $-1 $448 $188 #
plane-surface $-1 -62.741172521134068 0 0 1 0 0 0 0 -1 forward_v I I I I #
coedge $-1 $449 $311 $450 $451 forward $189 $-1 #
coedge $-1 $452 $191 $449 $453 forward $121 $-1 #
coedge $-1 $191 $452 $454 $455 forward $121 $-1 #
coedge $-1 $314 $313 $191 $307 reversed $315 $-1 #
edge $-1 $456 -29.35586835148969 $457 29.35586835148969 $306 $458 forward 7 unknown #
coedge $-1 $193 $192 $459 $460 forward $76 $-1 #
coedge $-1 $461 $462 $192 $310 reversed $446 $-1 #
edge $-1 $317 -62.741172521134068 $463 62.741172521134068 $309 $464 forward 7 unknown #
coedge $-1 $303 $465 $193 $312 reversed $189 $-1 #
edge $-1 $466 -62.741172521134068 $316 62.741172521134068 $311 $467 forward 7 unknown #
coedge $-1 $306 $194 $465 $468 forward $315 $-1 #
coedge $-1 $194 $306 $461 $469 reversed $315 $-1 #
loop $-1 $-1 $313 $445 #
vertex $-1 $195 $470 #
vertex $-1 $195 $471 #
straight-curve $-1 62.741172521134068 0 6.5293894507428822 0 1 0 I I #
face $-1 $472 $473 $46 $-1 $474 reversed single #
loop $-1 $-1 $475 $196 #
plane-surface $-1 0 -32.425789319158909 2.5099714203729793 0 0 1 1 0 0 forward_v I I I I #
coedge $-1 $202 $476 $477 $478 forward $197 $-1 #
coedge $-1 $479 $199 $480 $481 reversed $125 $-1 #
coedge $-1 $199 $479 $329 $482 reversed $125 $-1 #
edge $-1 $330 -6.0293894507428831 $483 -2.5099714203729793 $199 $484 forward 7 unknown #
coedge $-1 $201 $200 $485 $486 forward $79 $-1 #
coedge $-1 $477 $487 $200 $328 forward $488 $-1 #
edge $-1 $489 2.5099714203729793 $331 6.0293894507428831 $327 $490 forward 7 unknown #
coedge $-1 $476 $202 $324 $482 forward $197 $-1 #
vertex $-1 $325 $491 #
vertex $-1 $478 $492 #
straight-curve $-1 0 -29.35586835148969 6.0293894507428831 1 0 0 I I #
face $-1 $493 $345 $47 $-1 $494 reversed single #
loop $-1 $-1 $495 $204 #
plane-surface $-1 -54.847722153958429 34.195407893881978 0 0 -1 0 0 0 -1 forward_v I I I I #
coedge $-1 $496 $497 $498 $499 forward $205 $-1 #
coedge $-1 $500 $207 $496 $501 forward $129 $-1 #
coedge $-1 $207 $500 $343 $502 forward $129 $-1 #
edge $-1 $346 53.347722153958429 $503 56.347722153958429 $207 $504 forward 7 unknown #
coedge $-1 $209 $208 $505 $506 forward $82 $-1 #
coedge $-1 $507 $508 $208 $342 forward $509 $-1 #
edge $-1 $510 -56.347722153958429 $347 -53.347722153958429 $341 $511 forward 7 unknown #
coedge $-1 $512 $210 $338 $502 reversed $345 $-1 #
coedge $-1 $210 $512 $507 $513 reversed $345 $-1 #
loop $-1 $-1 $210 $333 #
vertex $-1 $339 $514 #
vertex $-1 $513 $515 #
straight-curve $-1 -53.347722153958429 29.35586835148969 0 0 0 1 I I #
face $-1 $-1 $361 $48 $-1 $516 forward single #
loop $-1 $-1 $517 $212 #
plane-surface $-1 62.741172521134068 0 0 -1 0 0 0 0 1 forward_v I I I I #
coedge $-1 $518 $519 $520 $521 reversed $213 $-1 #
coedge $-1 $522 $215 $217 $359 forward $133 $-1 #
coedge $-1 $215 $522 $518 $523 forward $133 $-1 #
coedge $-1 $520 $218 $215 $356 forward $361 $-1 #
edge $-1 $363 3.8512872025132205 $524 11.012013612138507 $355 $525 forward 7 unknown #
coedge $-1 $526 $527 $216 $358 forward $350 $-1 #
edge $-1 $528 -87.049714415218091 $362 -80.619312021735027 $357 $529 forward 7 unknown #
edge $-1 $363 113.98291028550074 $528 125.48234504226811 $217 $530 forward 7 unknown #
coedge $-1 $218 $520 $526 $531 forward $361 $-1 #
loop $-1 $-1 $520 $349 #
vertex $-1 $358 $532 #
vertex $-1 $219 $533 #
straight-curve $-1 14.440216087185053 -11.282937609839085 6.5293894507428831 -1 0 0 I I #
coedge $-1 $365 $365 $-1 $534 reversed $222 $-1 #
edge $-1 $535 0 $535 6.2831853071796004 $223 $536 forward 7 unknown #
vertex $-1 $226 $537 #
ellipse-curve $-1 57.974440811066984 -16.39774218814286 3.3141882540013397 0.55919291073839883 0 0.82903756765294845 0.20725939191323711 0 -0.13979822768459971 1 I I #
coedge $-1 $369 $369 $-1 $538 reversed $229 $-1 #
edge $-1 $539 0 $539 6.2831853071796004 $230 $540 forward 7 unknown #
vertex $-1 $233 $541 #
ellipse-curve $-1 57.974440811066984 -13.328859441160596 3.3141882540013397 0.55919291073839883 0 0.82903756765294845 0.20725939191323711 0 -0.13979822768459971 1 I I #
face $-1 $-1 $385 $51 $-1 $542 forward single #
loop $-1 $-1 $543 $234 #
plane-surface $-1 62.741172521134068 0 0 -1 0 0 0 0 1 forward_v I I I I #
coedge $-1 $544 $545 $546 $547 reversed $235 $-1 #
coedge $-1 $548 $237 $239 $383 forward $147 $-1 #
coedge $-1 $237 $548 $544 $549 forward $147 $-1 #
coedge $-1 $546 $240 $237 $380 forward $385 $-1 #
edge $-1 $387 -2.1152572006428603 $550 5.0454692089824267 $379 $551 forward 7 unknown #
coedge $-1 $552 $553 $238 $382 forward $374 $-1 #
edge $-1 $554 -87.049714415218091 $386 -80.619312021735027 $381 $555 forward 7 unknown #
edge $-1 $387 113.98291028550074 $554 125.48234504226811 $239 $556 forward 7 unknown #
coedge $-1 $240 $546 $552 $557 forward $385 $-1 #
loop $-1 $-1 $546 $373 #
vertex $-1 $382 $558 #
vertex $-1 $241 $559 #
straight-curve $-1 14.440216087185053 0.65015119647307706 6.5293894507428831 -1 0 0 I I #
coedge $-1 $389 $389 $-1 $560 reversed $244 $-1 #
edge $-1 $561 0 $561 6.2831853071796004 $245 $562 forward 7 unknown #
vertex $-1 $248 $563 #
ellipse-curve $-1 57.974440811066984 -4.464653381830697 3.3141882540013397 0.55919291073839883 0 0.82903756765294845 0.20725939191323711 0 -0.13979822768459971 1 I I #
coedge $-1 $393 $393 $-1 $564 reversed $251 $-1 #
edge $-1 $565 0 $565 6.2831853071796004 $252 $566 forward 7 unknown #
vertex $-1 $255 $567 #
ellipse-curve $-1 57.974440811066984 -1.3957706348484322 3.3141882540013397 0.55919291073839883 0 0.82903756765294845 0.20725939191323711 0 -0.13979822768459971 1 I I #
face $-1 $-1 $409 $54 $-1 $568 forward single #
loop $-1 $-1 $569 $256 #
plane-surface $-1 62.741172521134068 0 0 -1 0 0 0 0 1 forward_v I I I I #
coedge $-1 $570 $571 $572 $573 reversed $257 $-1 #
coedge $-1 $574 $259 $261 $407 forward $161 $-1 #
coedge $-1 $259 $574 $570 $575 forward $161 $-1 #
coedge $-1 $572 $262 $259 $404 forward $409 $-1 #
edge $-1 $411 -8.081801603798942 $576 -0.92107519417365502 $403 $577 forward 7 unknown #
coedge $-1 $578 $579 $260 $406 forward $398 $-1 #
edge $-1 $580 -87.049714415218091 $410 -80.619312021735027 $405 $581 forward 7 unknown #
edge $-1 $411 113.98291028550074 $580 125.48234504226811 $261 $582 forward 7 unknown #
coedge $-1 $262 $572 $578 $583 forward $409 $-1 #
loop $-1 $-1 $572 $397 #
vertex $-1 $406 $584 #
vertex $-1 $263 $585 #
straight-curve $-1 14.440216087185053 12.58324000278524 6.5293894507428831 -1 0 0 I I #
coedge $-1 $413 $413 $-1 $586 reversed $266 $-1 #
edge $-1 $587 0 $587 6.2831853071796004 $267 $588 forward 7 unknown #
vertex $-1 $270 $589 #
ellipse-curve $-1 57.974440811066984 7.4684354244814699 3.3141882540013397 0.55919291073839883 0 0.82903756765294845 0.20725939191323711 0 -0.13979822768459971 1 I I #
coedge $-1 $417 $417 $-1 $590 reversed $273 $-1 #
edge $-1 $591 0 $591 6.2831853071796004 $274 $592 forward 7 unknown #
vertex $-1 $277 $593 #
ellipse-curve $-1 57.974440811066984 10.537318171463731 3.3141882540013397 0.55919291073839883 0 0.82903756765294845 0.20725939191323711 0 -0.13979822768459971 1 I I #
face $-1 $-1 $433 $57 $-1 $594 forward single #
loop $-1 $-1 $595 $278 #
plane-surface $-1 62.741172521134068 0 0 -1 0 0 0 0 1 forward_v I I I I #
coedge $-1 $596 $597 $598 $599 reversed $279 $-1 #
coedge $-1 $600 $281 $283 $431 forward $175 $-1 #
coedge $-1 $281 $600 $596 $601 forward $175 $-1 #
coedge $-1 $598 $284 $281 $428 forward $433 $-1 #
edge $-1 $435 -14.048346006955022 $602 -6.8876195973297385 $427 $603 forward 7 unknown #
coedge $-1 $604 $605 $282 $430 forward $422 $-1 #
edge $-1 $606 -87.049714415218091 $434 -80.619312021735027 $429 $607 forward 7 unknown #
edge $-1 $435 113.98291028550074 $606 125.48234504226811 $283 $608 forward 7 unknown #
coedge $-1 $284 $598 $604 $609 forward $433 $-1 #
loop $-1 $-1 $598 $421 #
vertex $-1 $430 $610 #
vertex $-1 $285 $611 #
straight-curve $-1 14.440216087185053 24.516328809097402 6.5293894507428831 -1 0 0 I I #
coedge $-1 $437 $437 $-1 $612 reversed $288 $-1 #
edge $-1 $613 0 $613 6.2831853071796004 $289 $614 forward 7 unknown #
vertex $-1 $292 $615 #
ellipse-curve $-1 57.974440811066984 19.401524230793633 3.3141882540013397 0.55919291073839883 0 0.82903756765294845 0.20725939191323711 0 -0.13979822768459971 1 I I #
coedge $-1 $441 $441 $-1 $616 reversed $295 $-1 #
edge $-1 $617 0 $617 6.2831853071796004 $296 $618 forward 7 unknown #
vertex $-1 $299 $619 #
ellipse-curve $-1 57.974440811066984 22.470406977775895 3.3141882540013397 0.55919291073839883 0 0.82903756765294845 0.20725939191323711 0 -0.13979822768459971 1 I I #
face $-1 $-1 $315 $45 $-1 $620 reversed single #
loop $-1 $-1 $461 $300 #
plane-surface $-1 0 29.35586835148969 0 0 -1 0 0 0 -1 forward_v I I I I #
coedge $-1 $621 $459 $462 $622 forward $301 $-1 #
coedge $-1 $465 $303 $304 $453 reversed $189 $-1 #
coedge $-1 $459 $621 $303 $451 reversed $301 $-1 #
edge $-1 $466 -6.5293894507428822 $623 6.5293894507428822 $450 $624 forward 7 unknown #
coedge $-1 $305 $304 $621 $625 forward $121 $-1 #
edge $-1 $457 -62.741172521134068 $623 62.741172521134068 $449 $626 forward 7 unknown #
coedge $-1 $462 $461 $305 $455 reversed $446 $-1 #
edge $-1 $627 -62.741172521134068 $456 62.741172521134068 $454 $628 forward 7 unknown #
vertex $-1 $307 $629 #
vertex $-1 $468 $630 #
straight-curve $-1 62.741172521134068 0 -6.5293894507428822 0 -1 0 I I #
coedge $-1 $448 $450 $308 $460 reversed $301 $-1 #
edge $-1 $463 -29.35586835148969 $466 29.35586835148969 $459 $631 forward 7 unknown #
coedge $-1 $454 $309 $314 $469 forward $446 $-1 #
coedge $-1 $309 $454 $448 $622 reversed $446 $-1 #
vertex $-1 $310 $632 #
straight-curve $-1 0 29.35586835148969 6.5293894507428822 -1 0 0 I I #
coedge $-1 $311 $449 $313 $468 reversed $189 $-1 #
vertex $-1 $460 $633 #
straight-curve $-1 0 -29.35586835148969 6.5293894507428822 1 0 0 I I #
edge $-1 $316 -6.5293894507428822 $457 6.5293894507428822 $313 $634 forward 7 unknown #
edge $-1 $317 -6.5293894507428822 $456 6.5293894507428822 $314 $635 forward 7 unknown #
point $-1 62.741172521134068 -29.35586835148969 6.5293894507428822 #
point $-1 62.741172521134068 29.35586835148969 6.5293894507428822 #
face $-1 $-1 $488 $46 $-1 $636 reversed single #
loop $-1 $-1 $637 $319 #
plane-surface $-1 0 -35.495710286828128 4.2696804355579312 0 1 0 0 0 1 forward_v I I I I #
coedge $-1 $638 $485 $487 $639 forward $320 $-1 #
coedge $-1 $322 $329 $640 $641 forward $197 $-1 #
coedge $-1 $642 $327 $322 $478 reversed $488 $-1 #
edge $-1 $643 -3.0699209676692192 $331 3.0699209676692227 $477 $644 forward 7 unknown #
coedge $-1 $324 $323 $637 $645 reversed $125 $-1 #
coedge $-1 $485 $638 $323 $481 forward $320 $-1 #
edge $-1 $646 -3.0699209676692192 $483 3.0699209676692227 $323 $647 forward 7 unknown #
edge $-1 $330 -3.0699209676692227 $648 3.0699209676692192 $324 $649 forward 7 unknown #
vertex $-1 $325 $650 #
straight-curve $-1 -62.741172521134068 -29.35586835148969 0 0 0 -1 I I #
coedge $-1 $475 $480 $326 $486 reversed $320 $-1 #
edge $-1 $489 -62.741172521134068 $483 62.741172521134068 $485 $651 forward 7 unknown #
coedge $-1 $327 $642 $475 $639 reversed $488 $-1 #
loop $-1 $-1 $327 $472 #
vertex $-1 $328 $652 #
straight-curve $-1 62.741172521134068 -29.35586835148969 0 0 0 1 I I #
point $-1 -62.741172521134068 -29.355868351489686 6.0293894507428831 #
point $-1 62.741172521134068 -29.355868351489686 6.0293894507428831 #
face $-1 $-1 $509 $47 $-1 $653 forward single #
plane-surface $-1 -53.347722153958429 31.775638122685834 0 -1 0 0 0 0 1 forward_v I I I I #
coedge $-1 $654 $655 $512 $656 forward $334 $-1 #
coedge $-1 $505 $336 $337 $501 reversed $205 $-1 #
coedge $-1 $336 $505 $508 $657 reversed $205 $-1 #
coedge $-1 $655 $654 $336 $499 reversed $334 $-1 #
edge $-1 $658 -6.5293894507428822 $659 6.5293894507428822 $498 $660 forward 7 unknown #
coedge $-1 $338 $337 $654 $661 forward $129 $-1 #
edge $-1 $503 -2.4197697711961439 $659 2.4197697711961439 $496 $662 forward 7 unknown #
edge $-1 $663 -2.4197697711961439 $346 2.4197697711961439 $343 $664 forward 7 unknown #
vertex $-1 $501 $665 #
straight-curve $-1 0 29.35586835148969 -6.5293894507428822 -1 0 0 I I #
coedge $-1 $497 $496 $340 $506 reversed $205 $-1 #
edge $-1 $510 -6.5293894507428822 $503 6.5293894507428822 $505 $666 forward 7 unknown #
coedge $-1 $667 $341 $344 $513 forward $509 $-1 #
coedge $-1 $341 $667 $497 $657 forward $509 $-1 #
loop $-1 $-1 $341 $493 #
vertex $-1 $342 $668 #
straight-curve $-1 0 29.35586835148969 6.5293894507428822 1 0 0 I I #
coedge $-1 $344 $343 $495 $656 reversed $345 $-1 #
edge $-1 $347 -2.4197697711961439 $669 2.4197697711961439 $344 $670 forward 7 unknown #
point $-1 -53.347722153958429 29.35586835148969 -6.5293894507428822 #
point $-1 -53.347722153958429 29.35586835148969 6.5293894507428822 #
plane-surface $-1 0 0 6.5293894507428822 0 0 1 1 0 0 forward_v I I I I #
coedge $-1 $527 $526 $519 $671 forward $350 $-1 #
coedge $-1 $519 $352 $354 $523 reversed $213 $-1 #
coedge $-1 $352 $518 $517 $671 reversed $213 $-1 #
coedge $-1 $360 $355 $352 $521 forward $361 $-1 #
edge $-1 $524 38.767493013814814 $672 48.300956433949011 $520 $673 forward 7 unknown #
coedge $-1 $354 $353 $527 $674 reversed $133 $-1 #
edge $-1 $675 -125.48234504226811 $524 -113.98291028550074 $518 $676 forward 7 unknown #
vertex $-1 $356 $677 #
straight-curve $-1 53.207709100999864 -7.431650407325864 6.5293894507428831 0 -1 0 I I #
coedge $-1 $517 $357 $360 $531 reversed $350 $-1 #
coedge $-1 $357 $517 $522 $674 forward $350 $-1 #
vertex $-1 $358 $678 #
straight-curve $-1 62.741172521134068 -11.282937609839085 87.14870147247791 0 0 1 I I #
straight-curve $-1 -41.288405596095906 -11.282937609839085 70.267824827725818 0.82903756765294845 0 -0.55919291073839883 I I #
edge $-1 $672 -18.443664019464372 $362 -11.282937609839085 $526 $679 forward 7 unknown #
point $-1 62.741172521134068 -11.282937609839085 6.5293894507428822 #
point $-1 53.207709100999871 -11.282937609839085 6.5293894507428831 #
edge $-1 $680 1 $680 0 $365 $-1 forward 7 unknown #
vertex $-1 $366 $681 #
ellipse-curve $-1 57.415247900328588 -16.39774218814286 2.4851506863483972 0.55919291073839883 0 0.82903756765294845 0.20725939191323711 0 -0.13979822768459971 1 I I #
point $-1 58.181700202980224 -16.39774218814286 3.1743900263167459 #
edge $-1 $682 1 $682 0 $369 $-1 forward 7 unknown #
vertex $-1 $370 $683 #
ellipse-curve $-1 57.415247900328588 -13.328859441160596 2.4851506863483972 0.55919291073839883 0 0.82903756765294845 0.20725939191323711 0 -0.13979822768459971 1 I I #
point $-1 58.181700202980224 -13.328859441160596 3.1743900263167459 #
plane-surface $-1 0 0 6.5293894507428822 0 0 1 1 0 0 forward_v I I I I #
coedge $-1 $553 $552 $545 $684 forward $374 $-1 #
coedge $-1 $545 $376 $378 $549 reversed $235 $-1 #
coedge $-1 $376 $544 $543 $684 reversed $235 $-1 #
coedge $-1 $384 $379 $376 $547 forward $385 $-1 #
edge $-1 $550 38.767493013814814 $685 48.300956433949011 $546 $686 forward 7 unknown #
coedge $-1 $378 $377 $553 $687 reversed $147 $-1 #
edge $-1 $688 -125.48234504226811 $550 -113.98291028550074 $544 $689 forward 7 unknown #
vertex $-1 $380 $690 #
straight-curve $-1 53.207709100999864 -1.4651060041697832 6.5293894507428831 0 -1 0 I I #
coedge $-1 $543 $381 $384 $557 reversed $374 $-1 #
coedge $-1 $381 $543 $548 $687 forward $374 $-1 #
vertex $-1 $382 $691 #
straight-curve $-1 62.741172521134068 0.65015119647307706 87.14870147247791 0 0 1 I I #
straight-curve $-1 -41.288405596095906 0.65015119647307706 70.267824827725818 0.82903756765294845 0 -0.55919291073839883 I I #
edge $-1 $685 -6.5105752131522099 $386 0.65015119647307706 $552 $692 forward 7 unknown #
point $-1 62.741172521134068 0.65015119647307706 6.5293894507428822 #
point $-1 53.207709100999871 0.65015119647307706 6.5293894507428831 #
edge $-1 $693 1 $693 0 $389 $-1 forward 7 unknown #
vertex $-1 $390 $694 #
ellipse-curve $-1 57.415247900328588 -4.464653381830697 2.4851506863483972 0.55919291073839883 0 0.82903756765294845 0.20725939191323711 0 -0.13979822768459971 1 I I #
point $-1 58.181700202980224 -4.464653381830697 3.1743900263167459 #
edge $-1 $695 1 $695 0 $393 $-1 forward 7 unknown #
vertex $-1 $394 $696 #
ellipse-curve $-1 57.415247900328588 -1.3957706348484322 2.4851506863483972 0.55919291073839883 0 0.82903756765294845 0.20725939191323711 0 -0.13979822768459971 1 I I #
point $-1 58.181700202980224 -1.3957706348484322 3.1743900263167459 #
plane-surface $-1 0 0 6.5293894507428822 0 0 1 1 0 0 forward_v I I I I #
coedge $-1 $579 $578 $571 $697 forward $398 $-1 #
coedge $-1 $571 $400 $402 $575 reversed $257 $-1 #
coedge $-1 $400 $570 $569 $697 reversed $257 $-1 #
coedge $-1 $408 $403 $400 $573 forward $409 $-1 #
edge $-1 $576 38.767493013814814 $698 48.300956433949011 $572 $699 forward 7 unknown #
coedge $-1 $402 $401 $579 $700 reversed $161 $-1 #
edge $-1 $701 -125.48234504226811 $576 -113.98291028550074 $570 $702 forward 7 unknown #
vertex $-1 $404 $703 #
straight-curve $-1 53.207709100999864 4.5014383989862985 6.5293894507428831 0 -1 0 I I #
coedge $-1 $569 $405 $408 $583 reversed $398 $-1 #
coedge $-1 $405 $569 $574 $700 forward $398 $-1 #
vertex $-1 $406 $704 #
straight-curve $-1 62.741172521134068 12.58324000278524 87.14870147247791 0 0 1 I I #
straight-curve $-1 -41.288405596095906 12.58324000278524 70.267824827725818 0.82903756765294845 0 -0.55919291073839883 I I #
edge $-1 $698 5.4225135931599535 $410 12.58324000278524 $578 $705 forward 7 unknown #
point $-1 62.741172521134068 12.58324000278524 6.5293894507428822 #
point $-1 53.207709100999871 12.58324000278524 6.5293894507428831 #
edge $-1 $706 1 $706 0 $413 $-1 forward 7 unknown #
vertex $-1 $414 $707 #
ellipse-curve $-1 57.415247900328588 7.4684354244814699 2.4851506863483972 0.55919291073839883 0 0.82903756765294845 0.20725939191323711 0 -0.13979822768459971 1 I I #
point $-1 58.181700202980224 7.4684354244814699 3.1743900263167459 #
edge $-1 $708 1 $708 0 $417 $-1 forward 7 unknown #
vertex $-1 $418 $709 #
ellipse-curve $-1 57.415247900328588 10.537318171463731 2.4851506863483972 0.55919291073839883 0 0.82903756765294845 0.20725939191323711 0 -0.13979822768459971 1 I I #
point $-1 58.181700202980224 10.537318171463731 3.1743900263167459 #
plane-surface $-1 0 0 6.5293894507428822 0 0 1 1 0 0 forward_v I I I I #
coedge $-1 $605 $604 $597 $710 forward $422 $-1 #
coedge $-1 $597 $424 $426 $601 reversed $279 $-1 #
coedge $-1 $424 $596 $595 $710 reversed $279 $-1 #
coedge $-1 $432 $427 $424 $599 forward $433 $-1 #
edge $-1 $602 38.767493013814814 $711 48.300956433949011 $598 $712 forward 7 unknown #
coedge $-1 $426 $425 $605 $713 reversed $175 $-1 #
edge $-1 $714 -125.48234504226811 $602 -113.98291028550074 $596 $715 forward 7 unknown #
vertex $-1 $428 $716 #
straight-curve $-1 53.207709100999864 10.46798280214238 6.5293894507428831 0 -1 0 I I #
coedge $-1 $595 $429 $432 $609 reversed $422 $-1 #
coedge $-1 $429 $595 $600 $713 forward $422 $-1 #
vertex $-1 $430 $717 #
straight-curve $-1 62.741172521134068 24.516328809097402 87.14870147247791 0 0 1 I I #
straight-curve $-1 -41.288405596095906 24.516328809097402 70.267824827725818 0.82903756765294845 0 -0.55919291073839883 I I #
edge $-1 $711 17.355602399472119 $434 24.516328809097402 $604 $718 forward 7 unknown #
point $-1 62.741172521134068 24.516328809097402 6.5293894507428822 #
point $-1 53.207709100999871 24.516328809097402 6.5293894507428831 #
edge $-1 $719 1 $719 0 $437 $-1 forward 7 unknown #
vertex $-1 $438 $720 #
ellipse-curve $-1 57.415247900328588 19.401524230793633 2.4851506863483972 0.55919291073839883 0 0.82903756765294845 0.20725939191323711 0 -0.13979822768459971 1 I I #
point $-1 58.181700202980224 19.401524230793633 3.1743900263167459 #
edge $-1 $721 1 $721 0 $441 $-1 forward 7 unknown #
vertex $-1 $442 $722 #
ellipse-curve $-1 57.415247900328588 22.470406977775895 2.4851506863483972 0.55919291073839883 0 0.82903756765294845 0.20725939191323711 0 -0.13979822768459971 1 I I #
point $-1 58.181700202980224 22.470406977775895 3.1743900263167459 #
plane-surface $-1 62.741172521134068 0 0 -1 0 0 0 0 1 forward_v I I I I #
coedge $-1 $450 $448 $452 $625 reversed $301 $-1 #
edge $-1 $463 -6.5293894507428822 $627 6.5293894507428822 $462 $723 forward 7 unknown #
vertex $-1 $625 $724 #
straight-curve $-1 -62.741172521134068 -29.35586835148969 0 0 0 -1 I I #
edge $-1 $623 -29.35586835148969 $627 29.35586835148969 $621 $725 forward 7 unknown #
straight-curve $-1 0 -29.35586835148969 -6.5293894507428822 -1 0 0 I I #
vertex $-1 $455 $726 #
straight-curve $-1 0 29.35586835148969 -6.5293894507428822 1 0 0 I I #
point $-1 62.741172521134068 29.35586835148969 -6.5293894507428822 #
point $-1 62.741172521134068 -29.35586835148969 -6.5293894507428822 #
straight-curve $-1 -62.741172521134068 0 6.5293894507428822 0 -1 0 I I #
point $-1 -62.741172521134068 29.35586835148969 6.5293894507428822 #
point $-1 -62.741172521134068 -29.35586835148969 6.5293894507428822 #
straight-curve $-1 62.741172521134068 -29.35586835148969 0 0 0 -1 I I #
straight-curve $-1 62.741172521134068 29.35586835148969 0 0 0 -1 I I #
plane-surface $-1 62.741172521134068 0 0 -1 0 0 0 0 1 forward_v I I I I #
coedge $-1 $727 $640 $479 $645 forward $473 $-1 #
coedge $-1 $480 $475 $727 $728 forward $320 $-1 #
edge $-1 $489 -3.0699209676692227 $729 3.0699209676692192 $487 $730 forward 7 unknown #
coedge $-1 $637 $731 $476 $641 reversed $473 $-1 #
edge $-1 $648 -62.741172521134068 $643 62.741172521134068 $640 $732 forward 7 unknown #
coedge $-1 $487 $477 $731 $733 forward $488 $-1 #
vertex $-1 $478 $734 #
straight-curve $-1 62.741172521134068 -32.425789319158909 6.0293894507428831 0 1 0 I I #
edge $-1 $648 -1.7597090151849519 $646 1.7597090151849519 $479 $735 forward 7 unknown #
vertex $-1 $481 $736 #
straight-curve $-1 -62.741172521134068 -32.425789319158909 2.5099714203729793 0 1 0 I I #
vertex $-1 $482 $737 #
straight-curve $-1 -62.741172521134068 -32.425789319158909 6.0293894507428831 0 -1 0 I I #
point $-1 -62.741172521134068 -29.355868351489686 2.5099714203729793 #
straight-curve $-1 0 -29.35586835148969 2.5099714203729793 -1 0 0 I I #
point $-1 62.741172521134068 -29.355868351489686 2.5099714203729793 #
plane-surface $-1 0 0 6.5293894507428822 0 0 1 1 0 0 forward_v I I I I #
coedge $-1 $498 $495 $500 $661 reversed $334 $-1 #
coedge $-1 $495 $498 $667 $738 reversed $334 $-1 #
edge $-1 $669 -6.5293894507428822 $663 6.5293894507428822 $512 $739 forward 7 unknown #
edge $-1 $658 -2.4197697711961439 $510 2.4197697711961439 $497 $740 forward 7 unknown #
vertex $-1 $738 $741 #
vertex $-1 $661 $742 #
straight-curve $-1 -56.347722153958429 34.195407893881978 0 0 0 -1 I I #
edge $-1 $659 -1.5 $663 1.5 $654 $743 forward 7 unknown #
straight-curve $-1 -56.347722153958429 31.775638122685834 -6.5293894507428822 0 1 0 I I #
vertex $-1 $502 $744 #
straight-curve $-1 -53.347722153958429 31.775638122685834 -6.5293894507428822 0 -1 0 I I #
point $-1 -56.347722153958429 29.35586835148969 -6.5293894507428822 #
straight-curve $-1 -56.347722153958429 29.35586835148969 0 0 0 -1 I I #
coedge $-1 $508 $507 $655 $738 forward $509 $-1 #
point $-1 -56.347722153958429 29.35586835148969 6.5293894507428822 #
vertex $-1 $513 $745 #
straight-curve $-1 -53.347722153958429 31.775638122685834 6.5293894507428822 0 1 0 I I #
edge $-1 $672 80.619312021735027 $675 87.049714415218091 $517 $746 forward 7 unknown #
vertex $-1 $531 $747 #
straight-curve $-1 14.440216087185053 -18.443664019464372 6.5293894507428831 1 0 0 I I #
edge $-1 $675 -11.012013612138507 $528 -3.8512872025132205 $527 $748 forward 7 unknown #
vertex $-1 $674 $749 #
straight-curve $-1 -41.288405596095906 -18.443664019464372 70.267824827725818 -0.82903756765294845 0 0.55919291073839883 I I #
point $-1 53.207709100999871 -18.443664019464372 6.5293894507428831 #
point $-1 62.741172521134068 -11.282937609839085 0.098987057259819267 #
straight-curve $-1 62.741172521134068 0 6.5293894507428822 0 1 0 I I #
vertex $-1 $534 $750 #
point $-1 57.622507292241828 -16.39774218814286 2.3453524586637973 #
vertex $-1 $538 $751 #
point $-1 57.622507292241828 -13.328859441160596 2.3453524586637973 #
edge $-1 $685 80.619312021735027 $688 87.049714415218091 $543 $752 forward 7 unknown #
vertex $-1 $557 $753 #
straight-curve $-1 14.440216087185053 -6.5105752131522099 6.5293894507428831 1 0 0 I I #
edge $-1 $688 -5.0454692089824267 $554 2.1152572006428603 $553 $754 forward 7 unknown #
vertex $-1 $687 $755 #
straight-curve $-1 -41.288405596095906 -6.5105752131522099 70.267824827725818 -0.82903756765294845 0 0.55919291073839883 I I #
point $-1 53.207709100999871 -6.5105752131522099 6.5293894507428831 #
point $-1 62.741172521134068 0.65015119647307706 0.098987057259819267 #
straight-curve $-1 62.741172521134068 0 6.5293894507428822 0 1 0 I I #
vertex $-1 $560 $756 #
point $-1 57.622507292241828 -4.464653381830697 2.3453524586637973 #
vertex $-1 $564 $757 #
point $-1 57.622507292241828 -1.3957706348484322 2.3453524586637973 #
edge $-1 $698 80.619312021735027 $701 87.049714415218091 $569 $758 forward 7 unknown #
vertex $-1 $583 $759 #
straight-curve $-1 14.440216087185053 5.4225135931599535 6.5293894507428831 1 0 0 I I #
edge $-1 $701 0.92107519417365502 $580 8.081801603798942 $579 $760 forward 7 unknown #
vertex $-1 $700 $761 #
straight-curve $-1 -41.288405596095906 5.4225135931599535 70.267824827725818 -0.82903756765294845 0 0.55919291073839883 I I #
point $-1 53.207709100999871 5.4225135931599535 6.5293894507428831 #
point $-1 62.741172521134068 12.58324000278524 0.098987057259819267 #
straight-curve $-1 62.741172521134068 0 6.5293894507428822 0 1 0 I I #
vertex $-1 $586 $762 #
point $-1 57.622507292241828 7.4684354244814699 2.3453524586637973 #
vertex $-1 $590 $763 #
point $-1 57.622507292241828 10.537318171463731 2.3453524586637973 #
edge $-1 $711 80.619312021735027 $714 87.049714415218091 $595 $764 forward 7 unknown #
vertex $-1 $609 $765 #
straight-curve $-1 14.440216087185053 17.355602399472119 6.5293894507428831 1 0 0 I I #
edge $-1 $714 6.8876195973297385 $606 14.048346006955022 $605 $766 forward 7 unknown #
vertex $-1 $713 $767 #
straight-curve $-1 -41.288405596095906 17.355602399472119 70.267824827725818 -0.82903756765294845 0 0.55919291073839883 I I #
point $-1 53.207709100999871 17.355602399472119 6.5293894507428831 #
point $-1 62.741172521134068 24.516328809097402 0.098987057259819267 #
straight-curve $-1 62.741172521134068 0 6.5293894507428822 0 1 0 I I #
vertex $-1 $612 $768 #
point $-1 57.622507292241828 19.401524230793633 2.3453524586637973 #
vertex $-1 $616 $769 #
point $-1 57.622507292241828 22.470406977775895 2.3453524586637973 #
straight-curve $-1 -62.741172521134068 29.35586835148969 0 0 0 -1 I I #
point $-1 -62.741172521134068 -29.35586835148969 -6.5293894507428822 #
straight-curve $-1 -62.741172521134068 0 -6.5293894507428822 0 1 0 I I #
point $-1 -62.741172521134068 29.35586835148969 -6.5293894507428822 #
coedge $-1 $731 $637 $638 $728 reversed $473 $-1 #
edge $-1 $729 -62.741172521134068 $646 62.741172521134068 $727 $770 forward 7 unknown #
vertex $-1 $733 $771 #
straight-curve $-1 62.741172521134068 -32.425789319158909 2.5099714203729793 0 -1 0 I I #
coedge $-1 $640 $727 $642 $733 reversed $473 $-1 #
straight-curve $-1 0 -35.495710286828128 6.0293894507428831 1 0 0 I I #
edge $-1 $643 -1.7597090151849519 $729 1.7597090151849519 $642 $772 forward 7 unknown #
point $-1 62.741172521134068 -35.495710286828128 6.0293894507428831 #
straight-curve $-1 -62.741172521134068 -35.495710286828128 4.2696804355579312 0 0 -1 I I #
point $-1 -62.741172521134068 -35.495710286828128 2.5099714203729793 #
point $-1 -62.741172521134068 -35.495710286828128 6.0293894507428831 #
edge $-1 $669 -1.5 $658 1.5 $655 $773 forward 7 unknown #
straight-curve $-1 -53.347722153958429 34.195407893881978 0 0 0 -1 I I #
straight-curve $-1 -56.347722153958429 31.775638122685834 6.5293894507428822 0 -1 0 I I #
point $-1 -56.347722153958429 34.195407893881978 6.5293894507428822 #
point $-1 -56.347722153958429 34.195407893881978 -6.5293894507428822 #
straight-curve $-1 -54.847722153958429 34.195407893881978 -6.5293894507428822 1 0 0 I I #
point $-1 -53.347722153958429 34.195407893881978 -6.5293894507428822 #
point $-1 -53.347722153958429 34.195407893881978 6.5293894507428822 #
straight-curve $-1 62.741172521134068 -18.443664019464372 87.14870147247791 0 0 -1 I I #
point $-1 62.741172521134068 -18.443664019464372 6.5293894507428822 #
straight-curve $-1 62.741172521134075 -7.431650407325864 0.098987057259819267 0 1 0 I I #
point $-1 62.741172521134068 -18.443664019464372 0.098987057259819267 #
point $-1 57.275449672643994 -16.39774218814286 2.2778912944351597 #
point $-1 57.275449672643994 -13.328859441160596 2.2778912944351597 #
straight-curve $-1 62.741172521134068 -6.5105752131522099 87.14870147247791 0 0 -1 I I #
point $-1 62.741172521134068 -6.5105752131522099 6.5293894507428822 #
straight-curve $-1 62.741172521134075 -1.4651060041697832 0.098987057259819267 0 1 0 I I #
point $-1 62.741172521134068 -6.5105752131522099 0.098987057259819267 #
point $-1 57.275449672643994 -4.464653381830697 2.2778912944351597 #
point $-1 57.275449672643994 -1.3957706348484322 2.2778912944351597 #
straight-curve $-1 62.741172521134068 5.4225135931599535 87.14870147247791 0 0 -1 I I #
point $-1 62.741172521134068 5.4225135931599535 6.5293894507428822 #
straight-curve $-1 62.741172521134075 4.5014383989862985 0.098987057259819267 0 1 0 I I #
point $-1 62.741172521134068 5.4225135931599535 0.098987057259819267 #
point $-1 57.275449672643994 7.4684354244814699 2.2778912944351597 #
point $-1 57.275449672643994 10.537318171463731 2.2778912944351597 #
straight-curve $-1 62.741172521134068 17.355602399472119 87.14870147247791 0 0 -1 I I #
point $-1 62.741172521134068 17.355602399472119 6.5293894507428822 #
straight-curve $-1 62.741172521134075 10.46798280214238 0.098987057259819267 0 1 0 I I #
point $-1 62.741172521134068 17.355602399472119 0.098987057259819267 #
point $-1 57.275449672643994 19.401524230793633 2.2778912944351597 #
point $-1 57.275449672643994 22.470406977775895 2.2778912944351597 #
straight-curve $-1 0 -35.495710286828128 2.5099714203729793 -1 0 0 I I #
point $-1 62.741172521134068 -35.495710286828128 2.5099714203729793 #
straight-curve $-1 62.741172521134068 -35.495710286828128 4.2696804355579312 0 0 -1 I I #
straight-curve $-1 -54.847722153958429 34.195407893881978 6.5293894507428822 -1 0 0 I I #
End-of-ACIS-data 