500 0 7 0           
7 Unknown 11 ACIS 5.0 NT 24 Fri Mar 26 01:02:47 1999 
-1 9.9999999999999995e-007 1e-010 
body $-1 $7 $-1 $8 #
body $-1 $9 $-1 $10 #
body $-1 $11 $-1 $12 #
body $-1 $13 $-1 $14 #
body $-1 $15 $-1 $16 #
body $-1 $17 $-1 $18 #
body $-1 $19 $-1 $20 #
lump $-1 $-1 $21 $0 #
transform $-1 1 0 0 0 1 0 0 0 1 65.403607287820066 41.238783787652409 18.981519851184192 1 rotate no_reflect no_shear #
lump $-1 $-1 $22 $1 #
transform $-1 1 0 0 0 1 0 0 0 1 65.403607287820066 41.238783787652409 18.981519851184192 1 rotate no_reflect no_shear #
lump $-1 $-1 $23 $2 #
transform $-1 1 0 0 0 1 0 0 0 1 65.403607287820066 41.238783787652409 18.981519851184192 1 rotate no_reflect no_shear #
lump $-1 $-1 $24 $3 #
transform $-1 1 0 0 0 1 0 0 0 1 65.403607287820066 41.238783787652409 18.981519851184192 1 rotate no_reflect no_shear #
lump $-1 $-1 $25 $4 #
transform $-1 1 0 0 0 1 0 0 0 1 65.403607287820066 41.238783787652409 18.981519851184192 1 rotate no_reflect no_shear #
lump $-1 $-1 $26 $5 #
transform $-1 1 0 0 0 1 0 0 0 1 65.403607287820066 41.238783787652409 18.981519851184192 1 rotate no_reflect no_shear #
lump $-1 $-1 $27 $6 #
transform $-1 1 0 0 0 1 0 0 0 1 65.403607287820066 41.238783787652409 18.981519851184192 1 rotate no_reflect no_shear #
shell $-1 $-1 $-1 $28 $-1 $7 #
shell $-1 $-1 $-1 $29 $-1 $9 #
shell $-1 $-1 $-1 $30 $-1 $11 #
shell $-1 $-1 $-1 $31 $-1 $13 #
shell $-1 $-1 $-1 $32 $-1 $15 #
shell $-1 $-1 $-1 $33 $-1 $17 #
shell $-1 $-1 $-1 $34 $-1 $19 #
face $-1 $35 $36 $21 $-1 $37 forward single #
face $-1 $38 $39 $22 $-1 $40 forward single #
face $-1 $41 $42 $23 $-1 $43 forward single #
face $-1 $44 $45 $24 $-1 $46 reversed single #
face $-1 $47 $48 $25 $-1 $49 forward single #
face $-1 $50 $51 $26 $-1 $52 forward single #
face $-1 $53 $54 $27 $-1 $55 forward single #
face $-1 $56 $57 $21 $-1 $58 reversed single #
loop $-1 $-1 $59 $28 #
plane-surface $-1 0 0 18.981519851184192 0 0 1 1 0 0 forward_v I I I I #
face $-1 $60 $61 $22 $-1 $62 reversed single #
loop $-1 $-1 $63 $29 #
plane-surface $-1 0 -34.180400750952671 -11.291939150827456 0 0 1 1 0 0 forward_v I I I I #
face $-1 $64 $65 $23 $-1 $66 reversed single #
loop $-1 $-1 $67 $30 #
plane-surface $-1 0 41.238783787652409 0 0 -1 0 0 0 -1 forward_v I I I I #
face $-1 $68 $69 $24 $-1 $70 reversed single #
loop $-1 $-1 $71 $31 #
plane-surface $-1 94.342317789252789 5.6028447686577714 190.62136331676243 0 -1 0 -0.80901700255871778 0 -0.5877852410284794 forward_v I I I I #
face $-1 $72 $73 $25 $-1 $74 forward single #
loop $-1 $75 $76 $32 #
cone-surface $-1 60.976971336951792 0.4444876127924644 13.151643565136048 -0.80901700255871778 0 -0.5877852410284794 0.2938926205142397 0 -0.40450850127935889 1 I I 0 1 0.5 forward I I I I #
face $-1 $77 $78 $26 $-1 $79 forward single #
loop $-1 $80 $81 $33 #
cone-surface $-1 60.976971336951792 2.3788715462419532 13.151643565136048 -0.80901700255871778 0 -0.5877852410284794 0.2938926205142397 0 -0.40450850127935889 1 I I 0 1 0.5 forward I I I I #
face $-1 $82 $83 $27 $-1 $84 forward single #
loop $-1 $85 $86 $34 #
cone-surface $-1 60.976971336951792 4.313255479691442 13.151643565136048 -0.80901700255871778 0 -0.5877852410284794 0.2938926205142397 0 -0.40450850127935889 1 I I 0 1 0.5 forward I I I I #
face $-1 $87 $88 $21 $-1 $89 reversed single #
loop $-1 $-1 $90 $35 #
plane-surface $-1 0 0 -18.981519851184192 0 0 1 1 0 0 forward_v I I I I #
coedge $-1 $91 $92 $93 $94 forward $36 $-1 #
face $-1 $95 $96 $22 $-1 $97 reversed single #
loop $-1 $-1 $98 $38 #
plane-surface $-1 0 -27.12201771425293 -15.136729501005824 0 -1 0 0 0 -1 forward_v I I I I #
coedge $-1 $99 $100 $101 $102 reversed $39 $-1 #
face $-1 $103 $104 $23 $-1 $105 reversed single #
loop $-1 $-1 $106 $41 #
plane-surface $-1 0 0 -18.981519851184192 0 0 1 1 0 0 forward_v I I I I #
coedge $-1 $107 $108 $109 $110 forward $42 $-1 #
face $-1 $111 $112 $24 $-1 $113 reversed single #
loop $-1 $-1 $114 $44 #
plane-surface $-1 -11.482942859786604 2.3788715462419532 113.73481316915577 0.80901700255871778 0 0.5877852410284794 0.5877852410284794 0 -0.80901700255871778 forward_v I I I I #
coedge $-1 $115 $116 $117 $118 reversed $45 $-1 #
face $-1 $-1 $119 $25 $-1 $120 forward single #
loop $-1 $121 $122 $47 #
cone-surface $-1 60.370208585032756 0.4444876127924644 12.710804634364688 -0.80901700255871778 0 -0.5877852410284794 0.14694631025711985 0 -0.20225425063967944 1 I I -0.70710678118654746 0.70710678118654746 0.25 forward I I I I #
loop $-1 $-1 $123 $32 #
coedge $-1 $76 $76 $124 $125 reversed $48 $-1 #
face $-1 $-1 $126 $26 $-1 $127 forward single #
loop $-1 $128 $129 $50 #
cone-surface $-1 60.370208585032756 2.3788715462419532 12.710804634364688 -0.80901700255871778 0 -0.5877852410284794 0.14694631025711985 0 -0.20225425063967944 1 I I -0.70710678118654746 0.70710678118654746 0.25 forward I I I I #
loop $-1 $-1 $130 $33 #
coedge $-1 $81 $81 $131 $132 reversed $51 $-1 #
face $-1 $-1 $133 $27 $-1 $134 forward single #
loop $-1 $135 $136 $53 #
cone-surface $-1 60.370208585032756 4.313255479691442 12.710804634364688 -0.80901700255871778 0 -0.5877852410284794 0.14694631025711985 0 -0.20225425063967944 1 I I -0.70710678118654746 0.70710678118654746 0.25 forward I I I I #
loop $-1 $-1 $137 $34 #
coedge $-1 $86 $86 $138 $139 reversed $54 $-1 #
face $-1 $140 $141 $21 $-1 $142 reversed single #
loop $-1 $-1 $143 $56 #
plane-surface $-1 0 -41.238783787652409 0 0 1 0 0 0 1 forward_v I I I I #
coedge $-1 $144 $145 $146 $147 forward $57 $-1 #
coedge $-1 $148 $59 $149 $150 forward $36 $-1 #
coedge $-1 $59 $148 $151 $152 forward $36 $-1 #
coedge $-1 $153 $154 $59 $94 reversed $155 $-1 #
edge $-1 $156 -41.238783787652409 $157 41.238783787652409 $93 $158 forward 7 unknown #
face $-1 $159 $160 $22 $-1 $161 reversed single #
loop $-1 $-1 $162 $60 #
plane-surface $-1 0 0 -18.981519851184192 0 0 1 1 0 0 forward_v I I I I #
coedge $-1 $163 $164 $165 $166 reversed $61 $-1 #
coedge $-1 $167 $63 $164 $168 forward $39 $-1 #
coedge $-1 $63 $167 $169 $170 reversed $39 $-1 #
coedge $-1 $171 $165 $63 $102 forward $160 $-1 #
edge $-1 $172 10.031817338776595 $173 24.148583412176073 $101 $174 forward 7 unknown #
face $-1 $175 $176 $23 $-1 $177 forward single #
loop $-1 $-1 $178 $64 #
plane-surface $-1 -65.403607287820066 0 0 1 0 0 0 0 -1 forward_v I I I I #
coedge $-1 $179 $180 $181 $182 forward $65 $-1 #
coedge $-1 $181 $67 $178 $183 reversed $42 $-1 #
coedge $-1 $67 $181 $184 $185 reversed $42 $-1 #
coedge $-1 $186 $187 $67 $110 reversed $176 $-1 #
edge $-1 $188 -65.403607287820066 $189 65.403607287820066 $109 $190 forward 7 unknown #
face $-1 $191 $192 $24 $-1 $193 forward single #
loop $-1 $-1 $194 $68 #
plane-surface $-1 94.342317789252789 -0.845101676173865 190.62136331676243 0 1 0 0.80901700255871778 0 0.5877852410284794 forward_v I I I I #
coedge $-1 $195 $196 $197 $198 reversed $69 $-1 #
coedge $-1 $116 $71 $199 $200 reversed $45 $-1 #
coedge $-1 $71 $115 $195 $201 reversed $45 $-1 #
coedge $-1 $197 $202 $71 $118 forward $192 $-1 #
edge $-1 $203 -18.232448393193671 $204 -10.188193494015799 $117 $205 forward 7 unknown #
loop $-1 $-1 $124 $72 #
plane-surface $-1 -11.482942859786604 2.3788715462419532 113.73481316915577 0.80901700255871778 0 0.5877852410284794 0.5877852410284794 0 -0.80901700255871778 forward_v I I I I #
loop $-1 $-1 $206 $47 #
coedge $-1 $122 $122 $123 $207 reversed $73 $-1 #
coedge $-1 $123 $123 $122 $207 forward $75 $-1 #
coedge $-1 $124 $124 $76 $125 forward $119 $-1 #
edge $-1 $208 0 $208 6.2831853071796004 $124 $209 forward 7 unknown #
loop $-1 $-1 $131 $77 #
plane-surface $-1 -11.482942859786604 2.3788715462419532 113.73481316915577 0.80901700255871778 0 0.5877852410284794 0.5877852410284794 0 -0.80901700255871778 forward_v I I I I #
loop $-1 $-1 $210 $50 #
coedge $-1 $129 $129 $130 $211 reversed $78 $-1 #
coedge $-1 $130 $130 $129 $211 forward $80 $-1 #
coedge $-1 $131 $131 $81 $132 forward $126 $-1 #
edge $-1 $212 0 $212 6.2831853071796004 $131 $213 forward 7 unknown #
loop $-1 $-1 $138 $82 #
plane-surface $-1 -11.482942859786604 2.3788715462419532 113.73481316915577 0.80901700255871778 0 0.5877852410284794 0.5877852410284794 0 -0.80901700255871778 forward_v I I I I #
loop $-1 $-1 $214 $53 #
coedge $-1 $136 $136 $137 $215 reversed $83 $-1 #
coedge $-1 $137 $137 $136 $215 forward $85 $-1 #
coedge $-1 $138 $138 $86 $139 forward $133 $-1 #
edge $-1 $216 0 $216 6.2831853071796004 $138 $217 forward 7 unknown #
face $-1 $218 $219 $21 $-1 $220 reversed single #
loop $-1 $-1 $221 $87 #
plane-surface $-1 -65.403607287820066 0 0 1 0 0 0 0 -1 forward_v I I I I #
coedge $-1 $222 $151 $223 $224 forward $88 $-1 #
coedge $-1 $225 $90 $222 $226 forward $57 $-1 #
coedge $-1 $90 $225 $227 $228 forward $57 $-1 #
coedge $-1 $154 $153 $90 $147 reversed $155 $-1 #
edge $-1 $229 -41.238783787652409 $230 41.238783787652409 $146 $231 forward 7 unknown #
coedge $-1 $92 $91 $232 $233 forward $36 $-1 #
coedge $-1 $234 $235 $91 $150 reversed $219 $-1 #
edge $-1 $157 -65.403607287820066 $236 65.403607287820066 $149 $237 forward 7 unknown #
coedge $-1 $143 $238 $92 $152 reversed $88 $-1 #
edge $-1 $239 -65.403607287820066 $156 65.403607287820066 $151 $240 forward 7 unknown #
coedge $-1 $146 $93 $238 $241 forward $155 $-1 #
coedge $-1 $93 $146 $234 $242 reversed $155 $-1 #
loop $-1 $-1 $153 $218 #
vertex $-1 $94 $243 #
vertex $-1 $94 $244 #
straight-curve $-1 65.403607287820066 0 18.981519851184192 0 1 0 I I #
face $-1 $245 $246 $22 $-1 $247 reversed single #
loop $-1 $-1 $165 $95 #
plane-surface $-1 65.403607287820066 0 0 -1 0 0 0 0 1 forward_v I I I I #
coedge $-1 $248 $249 $163 $250 forward $96 $-1 #
coedge $-1 $251 $98 $162 $250 reversed $61 $-1 #
coedge $-1 $98 $251 $99 $168 reversed $61 $-1 #
coedge $-1 $101 $252 $98 $166 forward $160 $-1 #
edge $-1 $253 -11.41315510068128 $172 -3.7235744003245443 $165 $254 forward 7 unknown #
coedge $-1 $100 $99 $255 $256 reversed $39 $-1 #
edge $-1 $172 -65.403607287820066 $257 65.403607287820066 $164 $258 forward 7 unknown #
coedge $-1 $259 $260 $100 $170 forward $246 $-1 #
edge $-1 $173 -65.403607287820066 $261 65.403607287820066 $169 $262 forward 7 unknown #
coedge $-1 $252 $101 $260 $263 forward $160 $-1 #
vertex $-1 $102 $264 #
vertex $-1 $263 $265 #
straight-curve $-1 65.403607287820066 -17.090200375476336 -11.291939150827456 0 -1 0 I I #
face $-1 $266 $267 $23 $-1 $268 reversed single #
loop $-1 $-1 $186 $103 #
plane-surface $-1 0 52.073247861210746 -13.771290478781442 0 0 1 1 0 0 forward_v I I I I #
coedge $-1 $269 $270 $107 $183 forward $104 $-1 #
coedge $-1 $271 $106 $270 $272 forward $65 $-1 #
coedge $-1 $106 $271 $273 $274 forward $65 $-1 #
coedge $-1 $108 $107 $106 $182 reversed $42 $-1 #
edge $-1 $275 -65.403607287820066 $276 65.403607287820066 $106 $277 forward 7 unknown #
edge $-1 $276 -18.981519851184192 $189 -13.771290478781442 $178 $278 forward 7 unknown #
coedge $-1 $273 $279 $108 $185 forward $280 $-1 #
edge $-1 $188 13.771290478781442 $275 18.981519851184192 $184 $281 forward 7 unknown #
coedge $-1 $282 $109 $279 $283 forward $176 $-1 #
coedge $-1 $109 $282 $269 $284 forward $176 $-1 #
vertex $-1 $185 $285 #
vertex $-1 $284 $286 #
straight-curve $-1 0 41.238783787652409 -13.771290478781442 -1 0 0 I I #
face $-1 $-1 $287 $24 $-1 $288 reversed single #
loop $-1 $-1 $117 $111 #
plane-surface $-1 0 0 18.981519851184192 0 0 1 1 0 0 forward_v I I I I #
coedge $-1 $289 $290 $291 $292 reversed $112 $-1 #
coedge $-1 $293 $114 $116 $201 forward $69 $-1 #
coedge $-1 $114 $293 $289 $294 forward $69 $-1 #
coedge $-1 $291 $117 $114 $198 forward $192 $-1 #
edge $-1 $204 -4.4134089955367948 $295 2.0345374492948416 $197 $296 forward 7 unknown #
coedge $-1 $297 $298 $115 $200 forward $287 $-1 #
edge $-1 $299 -87.401129138264864 $203 -76.329161807197025 $199 $300 forward 7 unknown #
edge $-1 $204 117.12151044822382 $299 130.80721457564016 $116 $301 forward 7 unknown #
coedge $-1 $117 $291 $297 $302 forward $192 $-1 #
vertex $-1 $200 $303 #
vertex $-1 $118 $304 #
straight-curve $-1 47.171158894626394 5.6028447686577714 18.981519851184188 -1 0 0 I I #
coedge $-1 $206 $206 $-1 $305 reversed $121 $-1 #
edge $-1 $306 0 $306 6.2831853071796004 $122 $307 forward 7 unknown #
vertex $-1 $125 $308 #
ellipse-curve $-1 61.381479838231137 0.4444876127924644 13.445536185650276 0.80901700255871778 0 0.5877852410284794 0.2938926205142397 0 -0.40450850127935889 1 I I #
coedge $-1 $210 $210 $-1 $309 reversed $128 $-1 #
edge $-1 $310 0 $310 6.2831853071796004 $129 $311 forward 7 unknown #
vertex $-1 $132 $312 #
ellipse-curve $-1 61.381479838231137 2.3788715462419532 13.445536185650276 0.80901700255871778 0 0.5877852410284794 0.2938926205142397 0 -0.40450850127935889 1 I I #
coedge $-1 $214 $214 $-1 $313 reversed $135 $-1 #
edge $-1 $314 0 $314 6.2831853071796004 $136 $315 forward 7 unknown #
vertex $-1 $139 $316 #
ellipse-curve $-1 61.381479838231137 4.313255479691442 13.445536185650276 0.80901700255871778 0 0.5877852410284794 0.2938926205142397 0 -0.40450850127935889 1 I I #
face $-1 $-1 $155 $21 $-1 $317 reversed single #
loop $-1 $-1 $235 $140 #
plane-surface $-1 0 41.238783787652409 0 0 -1 0 0 0 -1 forward_v I I I I #
coedge $-1 $318 $232 $235 $319 forward $141 $-1 #
coedge $-1 $238 $143 $144 $226 reversed $88 $-1 #
coedge $-1 $232 $318 $143 $224 reversed $141 $-1 #
edge $-1 $239 -18.981519851184192 $320 18.981519851184192 $223 $321 forward 7 unknown #
coedge $-1 $145 $144 $318 $322 forward $57 $-1 #
edge $-1 $230 -65.403607287820066 $320 65.403607287820066 $222 $323 forward 7 unknown #
coedge $-1 $235 $234 $145 $228 reversed $219 $-1 #
edge $-1 $324 -65.403607287820066 $229 65.403607287820066 $227 $325 forward 7 unknown #
vertex $-1 $147 $326 #
vertex $-1 $241 $327 #
straight-curve $-1 65.403607287820066 0 -18.981519851184192 0 -1 0 I I #
coedge $-1 $221 $223 $148 $233 reversed $141 $-1 #
edge $-1 $236 -41.238783787652409 $239 41.238783787652409 $232 $328 forward 7 unknown #
coedge $-1 $227 $149 $154 $242 forward $219 $-1 #
coedge $-1 $149 $227 $221 $319 reversed $219 $-1 #
vertex $-1 $150 $329 #
straight-curve $-1 0 41.238783787652409 18.981519851184192 -1 0 0 I I #
coedge $-1 $151 $222 $153 $241 reversed $88 $-1 #
vertex $-1 $233 $330 #
straight-curve $-1 0 -41.238783787652409 18.981519851184192 1 0 0 I I #
edge $-1 $156 -18.981519851184192 $230 18.981519851184192 $153 $331 forward 7 unknown #
edge $-1 $157 -18.981519851184192 $229 18.981519851184192 $154 $332 forward 7 unknown #
point $-1 65.403607287820066 -41.238783787652409 18.981519851184192 #
point $-1 65.403607287820066 41.238783787652409 18.981519851184192 #
face $-1 $-1 $333 $22 $-1 $334 reversed single #
loop $-1 $-1 $169 $159 #
plane-surface $-1 0 -41.238783787652409 0 0 1 0 0 0 1 forward_v I I I I #
coedge $-1 $335 $162 $252 $336 forward $96 $-1 #
coedge $-1 $162 $335 $337 $338 forward $96 $-1 #
edge $-1 $339 -65.403607287820066 $253 65.403607287820066 $162 $340 forward 7 unknown #
coedge $-1 $164 $163 $341 $342 reversed $61 $-1 #
coedge $-1 $165 $171 $248 $336 reversed $160 $-1 #
vertex $-1 $336 $343 #
straight-curve $-1 65.403607287820066 -27.12201771425293 -7.5683647505029121 0 0 1 I I #
coedge $-1 $341 $344 $167 $256 forward $333 $-1 #
edge $-1 $261 -24.148583412176073 $257 -10.031817338776595 $255 $345 forward 7 unknown #
vertex $-1 $256 $346 #
straight-curve $-1 0 -27.12201771425293 -11.291939150827456 -1 0 0 I I #
coedge $-1 $347 $169 $344 $348 forward $246 $-1 #
coedge $-1 $169 $347 $171 $263 reversed $246 $-1 #
vertex $-1 $348 $349 #
straight-curve $-1 0 -41.238783787652409 -11.291939150827456 -1 0 0 I I #
edge $-1 $173 11.291939150827456 $350 18.981519851184192 $171 $351 forward 7 unknown #
point $-1 65.403607287820066 -27.12201771425293 -11.291939150827456 #
point $-1 65.403607287820066 -41.238783787652409 -11.291939150827456 #
face $-1 $-1 $280 $23 $-1 $352 reversed single #
loop $-1 $-1 $353 $175 #
plane-surface $-1 0 62.907711934769083 -16.376405164982817 0 -1 0 0 0 -1 forward_v I I I I #
coedge $-1 $354 $178 $187 $284 reversed $104 $-1 #
coedge $-1 $178 $354 $179 $272 reversed $104 $-1 #
coedge $-1 $180 $179 $355 $356 forward $65 $-1 #
edge $-1 $276 -10.834464073558337 $357 10.834464073558337 $270 $358 forward 7 unknown #
coedge $-1 $359 $184 $180 $274 reversed $280 $-1 #
edge $-1 $360 -62.907711934769083 $275 -41.238783787652409 $273 $361 forward 7 unknown #
vertex $-1 $185 $362 #
vertex $-1 $272 $363 #
straight-curve $-1 0 41.238783787652409 -18.981519851184192 -1 0 0 I I #
straight-curve $-1 -65.403607287820066 41.238783787652409 0 0 0 1 I I #
coedge $-1 $184 $359 $186 $283 reversed $280 $-1 #
loop $-1 $-1 $184 $266 #
straight-curve $-1 65.403607287820066 41.238783787652409 0 0 0 -1 I I #
coedge $-1 $187 $186 $364 $365 forward $176 $-1 #
edge $-1 $188 -10.834464073558337 $366 10.834464073558337 $279 $367 forward 7 unknown #
edge $-1 $368 -10.834464073558337 $189 10.834464073558337 $269 $369 forward 7 unknown #
point $-1 65.403607287820066 41.238783787652409 -13.771290478781442 #
point $-1 -65.403607287820066 41.238783787652409 -13.771290478781442 #
loop $-1 $-1 $199 $191 #
plane-surface $-1 65.403607287820066 0 0 -1 0 0 0 0 1 forward_v I I I I #
coedge $-1 $290 $194 $196 $294 reversed $112 $-1 #
coedge $-1 $194 $289 $370 $371 reversed $112 $-1 #
coedge $-1 $202 $197 $194 $292 forward $192 $-1 #
edge $-1 $295 10.188193494015799 $372 18.232448393193671 $291 $373 forward 7 unknown #
coedge $-1 $196 $195 $298 $374 reversed $69 $-1 #
edge $-1 $375 -130.80721457564016 $295 -117.12151044822382 $289 $376 forward 7 unknown #
vertex $-1 $198 $377 #
straight-curve $-1 57.359352388642193 1.1894357731209766 18.981519851184196 0 -1 0 I I #
coedge $-1 $370 $199 $202 $302 reversed $287 $-1 #
coedge $-1 $199 $370 $293 $374 forward $287 $-1 #
vertex $-1 $200 $378 #
straight-curve $-1 65.403607287820066 5.6028447686577714 95.310681658381213 0 0 1 I I #
straight-curve $-1 -11.482942859786604 5.6028447686577714 113.73481316915577 0.5877852410284794 0 -0.80901700255871778 I I #
edge $-1 $372 -0.845101676173865 $203 5.6028447686577714 $297 $379 forward 7 unknown #
point $-1 65.403607287820066 5.6028447686577714 18.981519851184192 #
point $-1 57.359352388642193 5.6028447686577714 18.981519851184188 #
edge $-1 $380 1 $380 0 $206 $-1 forward 7 unknown #
vertex $-1 $207 $381 #
ellipse-curve $-1 60.572462835672432 0.4444876127924644 12.857750944621808 0.80901700255871778 0 0.5877852410284794 0.2938926205142397 0 -0.40450850127935889 1 I I #
point $-1 61.675372458745393 0.4444876127924644 13.041027684370929 #
edge $-1 $382 1 $382 0 $210 $-1 forward 7 unknown #
vertex $-1 $211 $383 #
ellipse-curve $-1 60.572462835672432 2.3788715462419532 12.857750944621808 0.80901700255871778 0 0.5877852410284794 0.2938926205142397 0 -0.40450850127935889 1 I I #
point $-1 61.675372458745393 2.3788715462419532 13.041027684370929 #
edge $-1 $384 1 $384 0 $214 $-1 forward 7 unknown #
vertex $-1 $215 $385 #
ellipse-curve $-1 60.572462835672432 4.313255479691442 12.857750944621808 0.80901700255871778 0 0.5877852410284794 0.2938926205142397 0 -0.40450850127935889 1 I I #
point $-1 61.675372458745393 4.313255479691442 13.041027684370929 #
plane-surface $-1 65.403607287820066 0 0 -1 0 0 0 0 1 forward_v I I I I #
coedge $-1 $223 $221 $225 $322 reversed $141 $-1 #
edge $-1 $236 -18.981519851184192 $324 18.981519851184192 $235 $386 forward 7 unknown #
vertex $-1 $322 $387 #
straight-curve $-1 -65.403607287820066 -41.238783787652409 0 0 0 -1 I I #
edge $-1 $320 -41.238783787652409 $324 41.238783787652409 $318 $388 forward 7 unknown #
straight-curve $-1 0 -41.238783787652409 -18.981519851184192 -1 0 0 I I #
vertex $-1 $228 $389 #
straight-curve $-1 0 41.238783787652409 -18.981519851184192 1 0 0 I I #
point $-1 65.403607287820066 41.238783787652409 -18.981519851184192 #
point $-1 65.403607287820066 -41.238783787652409 -18.981519851184192 #
straight-curve $-1 -65.403607287820066 0 18.981519851184192 0 -1 0 I I #
point $-1 -65.403607287820066 41.238783787652409 18.981519851184192 #
point $-1 -65.403607287820066 -41.238783787652409 18.981519851184192 #
straight-curve $-1 65.403607287820066 -41.238783787652409 0 0 0 -1 I I #
straight-curve $-1 65.403607287820066 41.238783787652409 0 0 0 -1 I I #
loop $-1 $-1 $341 $245 #
plane-surface $-1 -65.403607287820066 0 0 1 0 0 0 0 -1 forward_v I I I I #
coedge $-1 $249 $248 $347 $390 forward $96 $-1 #
edge $-1 $253 27.12201771425293 $350 41.238783787652409 $252 $391 forward 7 unknown #
coedge $-1 $344 $341 $249 $338 reversed $333 $-1 #
edge $-1 $392 -41.238783787652409 $339 -27.12201771425293 $337 $393 forward 7 unknown #
vertex $-1 $342 $394 #
straight-curve $-1 0 -27.12201771425293 -18.981519851184192 1 0 0 I I #
coedge $-1 $337 $255 $251 $342 forward $333 $-1 #
edge $-1 $257 3.7235744003245443 $339 11.41315510068128 $341 $395 forward 7 unknown #
point $-1 65.403607287820066 -27.12201771425293 -18.981519851184192 #
coedge $-1 $255 $337 $259 $348 reversed $333 $-1 #
straight-curve $-1 -65.403607287820066 -17.090200375476336 -11.291939150827456 0 1 0 I I #
point $-1 -65.403607287820066 -27.12201771425293 -11.291939150827456 #
coedge $-1 $260 $259 $335 $390 reversed $246 $-1 #
edge $-1 $261 11.291939150827456 $392 18.981519851184192 $344 $396 forward 7 unknown #
point $-1 -65.403607287820066 -41.238783787652409 -11.291939150827456 #
vertex $-1 $263 $397 #
straight-curve $-1 65.403607287820066 -41.238783787652409 0 0 0 -1 I I #
plane-surface $-1 65.403607287820066 0 0 -1 0 0 0 0 1 forward_v I I I I #
coedge $-1 $355 $364 $359 $398 forward $267 $-1 #
coedge $-1 $270 $269 $399 $400 forward $104 $-1 #
coedge $-1 $399 $353 $271 $356 reversed $267 $-1 #
edge $-1 $357 -65.403607287820066 $360 65.403607287820066 $355 $401 forward 7 unknown #
vertex $-1 $356 $402 #
straight-curve $-1 -65.403607287820066 52.073247861210746 -18.981519851184192 0 1 0 I I #
coedge $-1 $279 $273 $353 $398 reversed $280 $-1 #
vertex $-1 $274 $403 #
straight-curve $-1 65.403607287820066 0 -18.981519851184192 0 -1 0 I I #
point $-1 65.403607287820066 41.238783787652409 -18.981519851184192 #
point $-1 -65.403607287820066 41.238783787652409 -18.981519851184192 #
coedge $-1 $353 $399 $282 $365 reversed $267 $-1 #
edge $-1 $366 -65.403607287820066 $368 65.403607287820066 $364 $404 forward 7 unknown #
vertex $-1 $283 $405 #
straight-curve $-1 65.403607287820066 52.073247861210746 -13.771290478781442 0 1 0 I I #
vertex $-1 $365 $406 #
straight-curve $-1 -65.403607287820066 52.073247861210746 -13.771290478781442 0 -1 0 I I #
coedge $-1 $298 $297 $290 $371 forward $287 $-1 #
edge $-1 $372 76.329161807197025 $375 87.401129138264864 $370 $407 forward 7 unknown #
vertex $-1 $302 $408 #
straight-curve $-1 47.171158894626394 -0.845101676173865 18.981519851184188 1 0 0 I I #
edge $-1 $375 -2.0345374492948416 $299 4.4134089955367948 $298 $409 forward 7 unknown #
vertex $-1 $374 $410 #
straight-curve $-1 -11.482942859786604 -0.845101676173865 113.73481316915577 -0.5877852410284794 0 0.80901700255871778 I I #
point $-1 57.359352388642193 -0.845101676173865 18.981519851184188 #
point $-1 65.403607287820066 5.6028447686577714 7.9095525201163497 #
straight-curve $-1 65.403607287820066 0 18.981519851184192 0 1 0 I I #
vertex $-1 $305 $411 #
point $-1 60.866355456186675 0.4444876127924644 12.453242443342448 #
vertex $-1 $309 $412 #
point $-1 60.866355456186675 2.3788715462419532 12.453242443342448 #
vertex $-1 $313 $413 #
point $-1 60.866355456186675 4.313255479691442 12.453242443342448 #
straight-curve $-1 -65.403607287820066 41.238783787652409 0 0 0 -1 I I #
point $-1 -65.403607287820066 -41.238783787652409 -18.981519851184192 #
straight-curve $-1 -65.403607287820066 0 -18.981519851184192 0 1 0 I I #
point $-1 -65.403607287820066 41.238783787652409 -18.981519851184192 #
edge $-1 $350 -65.403607287820066 $392 65.403607287820066 $347 $414 forward 7 unknown #
straight-curve $-1 65.403607287820066 0 -18.981519851184192 0 -1 0 I I #
vertex $-1 $338 $415 #
straight-curve $-1 -65.403607287820066 0 -18.981519851184192 0 1 0 I I #
point $-1 -65.403607287820066 -27.12201771425293 -18.981519851184192 #
straight-curve $-1 -65.403607287820066 -27.12201771425293 -7.5683647505029121 0 0 -1 I I #
straight-curve $-1 -65.403607287820066 -41.238783787652409 0 0 0 -1 I I #
point $-1 65.403607287820066 -41.238783787652409 -18.981519851184192 #
edge $-1 $366 -2.6051146862013752 $360 2.6051146862013752 $359 $416 forward 7 unknown #
coedge $-1 $364 $355 $354 $400 reversed $267 $-1 #
edge $-1 $368 -2.6051146862013752 $357 2.6051146862013752 $399 $417 forward 7 unknown #
straight-curve $-1 0 62.907711934769083 -18.981519851184192 1 0 0 I I #
point $-1 -65.403607287820066 62.907711934769083 -18.981519851184192 #
point $-1 65.403607287820066 62.907711934769083 -18.981519851184192 #
straight-curve $-1 0 62.907711934769083 -13.771290478781442 -1 0 0 I I #
point $-1 65.403607287820066 62.907711934769083 -13.771290478781442 #
point $-1 -65.403607287820066 62.907711934769083 -13.771290478781442 #
straight-curve $-1 65.403607287820066 -0.845101676173865 95.310681658381213 0 0 -1 I I #
point $-1 65.403607287820066 -0.845101676173865 18.981519851184192 #
straight-curve $-1 65.403607287820066 1.1894357731209766 7.9095525201163568 0 1 0 I I #
point $-1 65.403607287820066 -0.845101676173865 7.9095525201163497 #
point $-1 60.16795433439308 0.4444876127924644 12.563858324107569 #
point $-1 60.16795433439308 2.3788715462419532 12.563858324107569 #
point $-1 60.16795433439308 4.313255479691442 12.563858324107569 #
straight-curve $-1 0 -41.238783787652409 -18.981519851184192 -1 0 0 I I #
point $-1 -65.403607287820066 -41.238783787652409 -18.981519851184192 #
straight-curve $-1 65.403607287820066 62.907711934769083 -16.376405164982817 0 0 -1 I I #
straight-curve $-1 -65.403607287820066 62.907711934769083 -16.376405164982817 0 0 -1 I I #
End-of-ACIS-data 