500 0 11 0           
7 Unknown 11 ACIS 5.0 NT 24 Fri Mar 26 18:35:37 1999 
-1 9.9999999999999995e-007 1e-010 
body $-1 $11 $-1 $12 #
body $-1 $13 $-1 $14 #
body $-1 $15 $-1 $16 #
body $-1 $17 $-1 $18 #
body $-1 $19 $-1 $20 #
body $-1 $21 $-1 $22 #
body $-1 $23 $-1 $24 #
body $-1 $25 $-1 $26 #
body $-1 $27 $-1 $28 #
body $-1 $29 $-1 $30 #
body $-1 $31 $-1 $32 #
lump $-1 $-1 $33 $0 #
transform $-1 1 0 0 0 1 0 0 0 1 62.591021454512159 41.786818052754818 10.854472544206752 1 rotate no_reflect no_shear #
lump $-1 $-1 $34 $1 #
transform $-1 1 0 0 0 1 0 0 0 1 62.591021454512159 41.786818052754818 10.854472544206752 1 rotate no_reflect no_shear #
lump $-1 $-1 $35 $2 #
transform $-1 1 0 0 0 1 0 0 0 1 62.591021454512159 41.786818052754818 10.854472544206752 1 rotate no_reflect no_shear #
lump $-1 $-1 $36 $3 #
transform $-1 1 0 0 0 1 0 0 0 1 62.591021454512159 41.786818052754818 10.854472544206752 1 rotate no_reflect no_shear #
lump $-1 $-1 $37 $4 #
transform $-1 1 0 0 0 1 0 0 0 1 62.591021454512159 41.786818052754818 10.854472544206752 1 rotate no_reflect no_shear #
lump $-1 $-1 $38 $5 #
transform $-1 1 0 0 0 1 0 0 0 1 62.591021454512159 41.786818052754818 10.854472544206752 1 rotate no_reflect no_shear #
lump $-1 $-1 $39 $6 #
transform $-1 1 0 0 0 1 0 0 0 1 62.591021454512159 41.786818052754818 10.854472544206752 1 rotate no_reflect no_shear #
lump $-1 $-1 $40 $7 #
transform $-1 1 0 0 0 1 0 0 0 1 62.591021454512159 41.786818052754818 10.854472544206752 1 rotate no_reflect no_shear #
lump $-1 $-1 $41 $8 #
transform $-1 1 0 0 0 1 0 0 0 1 62.591021454512159 41.786818052754818 10.854472544206752 1 rotate no_reflect no_shear #
lump $-1 $-1 $42 $9 #
transform $-1 1 0 0 0 1 0 0 0 1 62.591021454512159 41.786818052754818 10.854472544206752 1 rotate no_reflect no_shear #
lump $-1 $-1 $43 $10 #
transform $-1 1 0 0 0 1 0 0 0 1 62.591021454512159 41.786818052754818 10.854472544206752 1 rotate no_reflect no_shear #
shell $-1 $-1 $-1 $44 $-1 $11 #
shell $-1 $-1 $-1 $45 $-1 $13 #
shell $-1 $-1 $-1 $46 $-1 $15 #
shell $-1 $-1 $-1 $47 $-1 $17 #
shell $-1 $-1 $-1 $48 $-1 $19 #
shell $-1 $-1 $-1 $49 $-1 $21 #
shell $-1 $-1 $-1 $50 $-1 $23 #
shell $-1 $-1 $-1 $51 $-1 $25 #
shell $-1 $-1 $-1 $52 $-1 $27 #
shell $-1 $-1 $-1 $53 $-1 $29 #
shell $-1 $-1 $-1 $54 $-1 $31 #
face $-1 $55 $56 $33 $-1 $57 reversed single #
face $-1 $58 $59 $34 $-1 $60 forward single #
face $-1 $61 $62 $35 $-1 $63 forward single #
face $-1 $64 $65 $36 $-1 $66 reversed single #
face $-1 $67 $68 $37 $-1 $69 forward single #
face $-1 $70 $71 $38 $-1 $72 forward single #
face $-1 $73 $74 $39 $-1 $75 forward single #
face $-1 $76 $77 $40 $-1 $78 reversed single #
face $-1 $79 $80 $41 $-1 $81 forward single #
face $-1 $82 $83 $42 $-1 $84 forward single #
face $-1 $85 $86 $43 $-1 $87 forward single #
face $-1 $88 $89 $33 $-1 $90 reversed single #
loop $-1 $-1 $91 $44 #
plane-surface $-1 62.591021454512159 0 0 -1 0 0 0 0 1 forward_v I I I I #
face $-1 $92 $93 $34 $-1 $94 reversed single #
loop $-1 $-1 $95 $45 #
plane-surface $-1 -62.591021454512159 0 0 1 0 0 0 0 -1 forward_v I I I I #
face $-1 $96 $97 $35 $-1 $98 reversed single #
loop $-1 $-1 $99 $46 #
plane-surface $-1 62.591021454512159 0 0 -1 0 0 0 0 1 forward_v I I I I #
face $-1 $100 $101 $36 $-1 $102 reversed single #
loop $-1 $-1 $103 $47 #
plane-surface $-1 14.164120769024969 108.41083134481161 140.38528593962874 1 0 0 0 -0.86602541151947299 -0.49999998660252726 forward_v I I I I #
face $-1 $104 $105 $37 $-1 $106 forward single #
loop $-1 $107 $108 $48 #
cone-surface $-1 18.025804156762717 38.601648509964178 7.2031477247387663 0 -0.86602541151947299 -0.49999998660252726 1 0 0 1 I I 0 1 1 forward I I I I #
face $-1 $109 $110 $38 $-1 $111 forward single #
loop $-1 $112 $113 $49 #
cone-surface $-1 23.818329238369358 38.601648509964178 7.2031477247387663 0 -0.86602541151947299 -0.49999998660252726 1 0 0 1 I I 0 1 1 forward I I I I #
face $-1 $114 $115 $39 $-1 $116 forward single #
loop $-1 $117 $118 $50 #
cone-surface $-1 29.610854319975999 38.601648509964178 7.2031477247387663 0 -0.86602541151947299 -0.49999998660252726 1 0 0 1 I I 0 1 1 forward I I I I #
face $-1 $119 $120 $40 $-1 $121 reversed single #
loop $-1 $-1 $122 $51 #
plane-surface $-1 -5.7715159422513924 -149.08877285024545 67.272333296595917 -1 0 0 0 -0.85716730853699208 0.51503806187062418 forward_v I I I I #
face $-1 $123 $124 $41 $-1 $125 forward single #
loop $-1 $126 $127 $52 #
cone-surface $-1 -29.230863137642551 -37.718242152053058 5.8361782650341762 0 0.85716730853699208 -0.51503806187062418 1 0 0 1 I I 0 1 1 forward I I I I #
face $-1 $128 $129 $42 $-1 $130 forward single #
loop $-1 $131 $132 $53 #
cone-surface $-1 -20.433607939370866 -37.718242152053058 5.8361782650341762 0 0.85716730853699208 -0.51503806187062418 1 0 0 1 I I 0 1 1 forward I I I I #
face $-1 $133 $134 $43 $-1 $135 forward single #
loop $-1 $136 $137 $54 #
cone-surface $-1 -11.636352741099181 -37.718242152053058 5.8361782650341762 0 0.85716730853699208 -0.51503806187062418 1 0 0 1 I I 0 1 1 forward I I I I #
face $-1 $138 $139 $33 $-1 $140 forward single #
loop $-1 $-1 $141 $55 #
plane-surface $-1 -62.591021454512159 0 0 1 0 0 0 0 -1 forward_v I I I I #
coedge $-1 $142 $143 $144 $145 reversed $56 $-1 #
face $-1 $146 $147 $34 $-1 $148 reversed single #
loop $-1 $-1 $149 $58 #
plane-surface $-1 0 0 -10.854472544206752 0 0 1 1 0 0 forward_v I I I I #
coedge $-1 $150 $151 $152 $153 forward $59 $-1 #
face $-1 $154 $155 $35 $-1 $156 reversed single #
loop $-1 $-1 $157 $61 #
plane-surface $-1 0 0 -10.854472544206752 0 0 1 1 0 0 forward_v I I I I #
coedge $-1 $158 $159 $160 $161 forward $62 $-1 #
face $-1 $162 $163 $36 $-1 $164 reversed single #
loop $-1 $-1 $165 $64 #
plane-surface $-1 23.818329238369373 1.1196755025366656e-006 77.794266162239595 0 0.86602541151947299 0.49999998660252726 1 0 0 forward_v I I I I #
coedge $-1 $166 $167 $168 $169 reversed $65 $-1 #
face $-1 $-1 $170 $37 $-1 $171 forward single #
loop $-1 $172 $173 $67 #
cone-surface $-1 18.025804156762717 36.553021485894313 6.0203724031794206 0 -0.86602541151947299 -0.49999998660252726 0.5 0 0 1 I I -0.70710678118654746 0.70710678118654746 0.5 forward I I I I #
loop $-1 $-1 $174 $48 #
coedge $-1 $108 $108 $175 $176 reversed $68 $-1 #
face $-1 $-1 $177 $38 $-1 $178 forward single #
loop $-1 $179 $180 $70 #
cone-surface $-1 23.818329238369358 36.553021485894313 6.0203724031794206 0 -0.86602541151947299 -0.49999998660252726 0.5 0 0 1 I I -0.70710678118654746 0.70710678118654746 0.5 forward I I I I #
loop $-1 $-1 $181 $49 #
coedge $-1 $113 $113 $182 $183 reversed $71 $-1 #
face $-1 $-1 $184 $39 $-1 $185 forward single #
loop $-1 $186 $187 $73 #
cone-surface $-1 29.610854319975999 36.553021485894313 6.0203724031794206 0 -0.86602541151947299 -0.49999998660252726 0.5 0 0 1 I I -0.70710678118654746 0.70710678118654746 0.5 forward I I I I #
loop $-1 $-1 $188 $50 #
coedge $-1 $118 $118 $189 $190 reversed $74 $-1 #
face $-1 $191 $192 $40 $-1 $193 reversed single #
loop $-1 $-1 $194 $76 #
plane-surface $-1 -20.433607939370866 -41.786818052754825 2.7988165357267292 0 -0.85716730853699208 0.51503806187062418 1 0 0 forward_v I I I I #
coedge $-1 $195 $196 $197 $198 reversed $77 $-1 #
face $-1 $-1 $199 $41 $-1 $200 forward single #
loop $-1 $201 $202 $79 #
cone-surface $-1 -29.230863137642551 -35.641245741653393 4.5881929591662942 0 0.85716730853699208 -0.51503806187062418 0.5 0 0 1 I I -0.70710678118654746 0.70710678118654746 0.5 forward I I I I #
loop $-1 $-1 $203 $52 #
coedge $-1 $127 $127 $204 $205 reversed $80 $-1 #
face $-1 $-1 $206 $42 $-1 $207 forward single #
loop $-1 $208 $209 $82 #
cone-surface $-1 -20.433607939370866 -35.641245741653393 4.5881929591662942 0 0.85716730853699208 -0.51503806187062418 0.5 0 0 1 I I -0.70710678118654746 0.70710678118654746 0.5 forward I I I I #
loop $-1 $-1 $210 $53 #
coedge $-1 $132 $132 $211 $212 reversed $83 $-1 #
face $-1 $-1 $213 $43 $-1 $214 forward single #
loop $-1 $215 $216 $85 #
cone-surface $-1 -11.636352741099181 -35.641245741653393 4.5881929591662942 0 0.85716730853699208 -0.51503806187062418 0.5 0 0 1 I I -0.70710678118654746 0.70710678118654746 0.5 forward I I I I #
loop $-1 $-1 $217 $54 #
coedge $-1 $137 $137 $218 $219 reversed $86 $-1 #
face $-1 $220 $221 $33 $-1 $222 reversed single #
loop $-1 $-1 $223 $88 #
plane-surface $-1 0 0 10.854472544206752 0 0 1 1 0 0 forward_v I I I I #
coedge $-1 $224 $225 $226 $227 reversed $89 $-1 #
coedge $-1 $228 $91 $229 $230 reversed $56 $-1 #
coedge $-1 $91 $228 $231 $232 forward $56 $-1 #
coedge $-1 $233 $234 $91 $145 forward $221 $-1 #
edge $-1 $235 -41.786818052754818 $236 41.786818052754818 $91 $237 forward 7 unknown #
face $-1 $238 $239 $34 $-1 $240 reversed single #
loop $-1 $-1 $241 $92 #
plane-surface $-1 -68.924058110543072 -41.286818052754818 0 0 1 0 0 0 1 forward_v I I I I #
coedge $-1 $242 $243 $151 $244 forward $93 $-1 #
coedge $-1 $245 $95 $246 $247 reversed $59 $-1 #
coedge $-1 $95 $245 $149 $244 reversed $59 $-1 #
coedge $-1 $248 $249 $95 $153 reversed $250 $-1 #
edge $-1 $251 -10.854472544206752 $252 10.854472544206752 $152 $253 forward 7 unknown #
face $-1 $254 $255 $35 $-1 $256 reversed single #
loop $-1 $-1 $160 $96 #
plane-surface $-1 68.924058110543072 -41.286818052754818 0 0 1 0 0 0 1 forward_v I I I I #
coedge $-1 $257 $258 $159 $259 forward $97 $-1 #
coedge $-1 $260 $99 $261 $262 reversed $62 $-1 #
coedge $-1 $99 $260 $157 $259 reversed $62 $-1 #
coedge $-1 $263 $264 $99 $161 reversed $155 $-1 #
edge $-1 $265 -10.854472544206752 $266 10.854472544206752 $160 $267 forward 7 unknown #
face $-1 $268 $269 $36 $-1 $270 reversed single #
loop $-1 $-1 $271 $100 #
plane-surface $-1 33.472537707713776 108.41083134481161 140.38528593962874 -1 0 0 0 0.86602541151947299 0.49999998660252726 forward_v I I I I #
coedge $-1 $272 $273 $274 $275 reversed $101 $-1 #
coedge $-1 $167 $103 $276 $277 reversed $65 $-1 #
coedge $-1 $103 $166 $272 $278 reversed $65 $-1 #
coedge $-1 $274 $279 $103 $169 forward $280 $-1 #
edge $-1 $281 12.418597619650988 $282 15.557708068612001 $168 $283 forward 7 unknown #
loop $-1 $-1 $175 $104 #
plane-surface $-1 23.818329238369373 1.1196755025366656e-006 77.794266162239595 0 0.86602541151947299 0.49999998660252726 1 0 0 forward_v I I I I #
loop $-1 $-1 $284 $67 #
coedge $-1 $173 $173 $174 $285 reversed $105 $-1 #
coedge $-1 $174 $174 $173 $285 forward $107 $-1 #
coedge $-1 $175 $175 $108 $176 forward $170 $-1 #
edge $-1 $286 2.4903166786703659e-015 $286 6.2831853071796031 $175 $287 forward 7 unknown #
loop $-1 $-1 $182 $109 #
plane-surface $-1 23.818329238369373 1.1196755025366656e-006 77.794266162239595 0 0.86602541151947299 0.49999998660252726 1 0 0 forward_v I I I I #
loop $-1 $-1 $288 $70 #
coedge $-1 $180 $180 $181 $289 reversed $110 $-1 #
coedge $-1 $181 $181 $180 $289 forward $112 $-1 #
coedge $-1 $182 $182 $113 $183 forward $177 $-1 #
edge $-1 $290 2.4903166786703659e-015 $290 6.2831853071796031 $182 $291 forward 7 unknown #
loop $-1 $-1 $189 $114 #
plane-surface $-1 23.818329238369373 1.1196755025366656e-006 77.794266162239595 0 0.86602541151947299 0.49999998660252726 1 0 0 forward_v I I I I #
loop $-1 $-1 $292 $73 #
coedge $-1 $187 $187 $188 $293 reversed $115 $-1 #
coedge $-1 $188 $188 $187 $293 forward $117 $-1 #
coedge $-1 $189 $189 $118 $190 forward $184 $-1 #
edge $-1 $294 2.4903166786703659e-015 $294 6.2831853071796031 $189 $295 forward 7 unknown #
face $-1 $296 $297 $40 $-1 $298 forward single #
loop $-1 $-1 $299 $119 #
plane-surface $-1 -35.095699936490341 -149.08877285024545 67.272333296595917 1 0 0 0 0.85716730853699208 -0.51503806187062418 forward_v I I I I #
coedge $-1 $300 $301 $302 $303 reversed $120 $-1 #
coedge $-1 $196 $122 $304 $305 reversed $77 $-1 #
coedge $-1 $122 $195 $300 $306 reversed $77 $-1 #
coedge $-1 $302 $307 $122 $198 forward $297 $-1 #
edge $-1 $308 32.757568372367906 $309 37.597894661509088 $197 $310 forward 7 unknown #
loop $-1 $-1 $204 $123 #
plane-surface $-1 -20.433607939370866 -41.786818052754825 2.7988165357267292 0 -0.85716730853699208 0.51503806187062418 1 0 0 forward_v I I I I #
loop $-1 $-1 $311 $79 #
coedge $-1 $202 $202 $203 $312 reversed $124 $-1 #
coedge $-1 $203 $203 $202 $312 forward $126 $-1 #
coedge $-1 $204 $204 $127 $205 forward $199 $-1 #
edge $-1 $313 7.6131750551499519e-016 $313 6.2831853071796013 $204 $314 forward 7 unknown #
loop $-1 $-1 $211 $128 #
plane-surface $-1 -20.433607939370866 -41.786818052754825 2.7988165357267292 0 -0.85716730853699208 0.51503806187062418 1 0 0 forward_v I I I I #
loop $-1 $-1 $315 $82 #
coedge $-1 $209 $209 $210 $316 reversed $129 $-1 #
coedge $-1 $210 $210 $209 $316 forward $131 $-1 #
coedge $-1 $211 $211 $132 $212 forward $206 $-1 #
edge $-1 $317 7.6131750551499519e-016 $317 6.2831853071796013 $211 $318 forward 7 unknown #
loop $-1 $-1 $218 $133 #
plane-surface $-1 -20.433607939370866 -41.786818052754825 2.7988165357267292 0 -0.85716730853699208 0.51503806187062418 1 0 0 forward_v I I I I #
loop $-1 $-1 $319 $85 #
coedge $-1 $216 $216 $217 $320 reversed $134 $-1 #
coedge $-1 $217 $217 $216 $320 forward $136 $-1 #
coedge $-1 $218 $218 $137 $219 forward $213 $-1 #
edge $-1 $321 7.6131750551499519e-016 $321 6.2831853071796013 $218 $322 forward 7 unknown #
face $-1 $323 $324 $33 $-1 $325 reversed single #
loop $-1 $-1 $144 $138 #
plane-surface $-1 0 0 -10.854472544206752 0 0 1 1 0 0 forward_v I I I I #
coedge $-1 $326 $327 $228 $328 forward $139 $-1 #
coedge $-1 $329 $141 $330 $331 reversed $89 $-1 #
coedge $-1 $141 $329 $332 $333 forward $89 $-1 #
coedge $-1 $234 $233 $141 $227 forward $221 $-1 #
edge $-1 $334 -41.786818052754818 $335 41.786818052754818 $141 $336 forward 7 unknown #
coedge $-1 $143 $142 $223 $328 reversed $56 $-1 #
coedge $-1 $337 $338 $142 $230 forward $339 $-1 #
edge $-1 $340 -10.854472544206752 $235 10.854472544206752 $142 $341 forward 7 unknown #
coedge $-1 $342 $343 $143 $232 reversed $324 $-1 #
edge $-1 $344 -10.854472544206752 $236 10.854472544206752 $143 $345 forward 7 unknown #
coedge $-1 $226 $144 $343 $346 forward $221 $-1 #
coedge $-1 $144 $226 $337 $347 forward $221 $-1 #
vertex $-1 $145 $348 #
vertex $-1 $232 $349 #
straight-curve $-1 62.591021454512159 0 -10.854472544206752 0 -1 0 I I #
face $-1 $350 $250 $34 $-1 $351 reversed single #
loop $-1 $-1 $352 $146 #
plane-surface $-1 -75.257094766573985 -39.786818052754818 0 1 0 0 0 0 -1 forward_v I I I I #
coedge $-1 $353 $354 $355 $356 forward $147 $-1 #
coedge $-1 $357 $149 $353 $358 forward $93 $-1 #
coedge $-1 $149 $357 $248 $359 forward $93 $-1 #
edge $-1 $251 38.286818052754818 $360 41.286818052754818 $149 $361 forward 7 unknown #
coedge $-1 $151 $150 $362 $363 forward $59 $-1 #
coedge $-1 $364 $365 $150 $247 forward $366 $-1 #
edge $-1 $367 -41.286818052754818 $252 -38.286818052754818 $246 $368 forward 7 unknown #
coedge $-1 $369 $152 $243 $359 reversed $250 $-1 #
coedge $-1 $152 $369 $364 $370 reversed $250 $-1 #
loop $-1 $-1 $152 $238 #
vertex $-1 $244 $371 #
vertex $-1 $370 $372 #
straight-curve $-1 -62.591021454512159 -38.286818052754818 0 0 0 1 I I #
face $-1 $373 $374 $35 $-1 $375 reversed single #
loop $-1 $-1 $376 $154 #
plane-surface $-1 68.924058110543072 -38.286818052754818 0 0 -1 0 0 0 -1 forward_v I I I I #
coedge $-1 $377 $157 $378 $379 forward $97 $-1 #
coedge $-1 $157 $377 $263 $380 forward $97 $-1 #
edge $-1 $265 -41.286818052754818 $381 -38.286818052754818 $157 $382 forward 7 unknown #
coedge $-1 $159 $158 $383 $384 forward $62 $-1 #
coedge $-1 $385 $386 $158 $262 forward $387 $-1 #
edge $-1 $388 38.286818052754818 $266 41.286818052754818 $261 $389 forward 7 unknown #
coedge $-1 $390 $160 $258 $380 reversed $155 $-1 #
coedge $-1 $160 $390 $385 $391 reversed $155 $-1 #
vertex $-1 $259 $392 #
vertex $-1 $391 $393 #
straight-curve $-1 62.591021454512159 -41.286818052754818 0 0 0 1 I I #
face $-1 $-1 $280 $36 $-1 $394 forward single #
loop $-1 $-1 $395 $162 #
plane-surface $-1 0 41.786818052754818 0 0 -1 0 0 0 -1 forward_v I I I I #
coedge $-1 $396 $397 $398 $399 reversed $163 $-1 #
coedge $-1 $400 $165 $167 $278 forward $101 $-1 #
coedge $-1 $165 $400 $396 $401 forward $101 $-1 #
coedge $-1 $398 $168 $165 $275 forward $280 $-1 #
edge $-1 $282 2.2549561498402824 $402 21.56337308852909 $274 $403 forward 7 unknown #
coedge $-1 $404 $405 $166 $277 forward $269 $-1 #
edge $-1 $406 -64.775269408027455 $281 -59.338170425607622 $276 $407 forward 7 unknown #
edge $-1 $282 77.295415039363036 $406 83.573636105509649 $167 $408 forward 7 unknown #
coedge $-1 $168 $398 $404 $409 forward $280 $-1 #
loop $-1 $-1 $398 $268 #
vertex $-1 $277 $410 #
vertex $-1 $169 $411 #
straight-curve $-1 14.164120769024969 54.205415672405806 10.854472544206757 0 -1 0 I I #
coedge $-1 $284 $284 $-1 $412 reversed $172 $-1 #
edge $-1 $413 0 $413 6.2831853071796004 $173 $414 forward 7 unknown #
vertex $-1 $176 $415 #
ellipse-curve $-1 18.025804156762717 40.217262828274301 8.1359230529968443 0 0.86602541151947299 0.49999998660252726 1 0 0 1 I I #
coedge $-1 $288 $288 $-1 $416 reversed $179 $-1 #
edge $-1 $417 0 $417 6.2831853071796004 $180 $418 forward 7 unknown #
vertex $-1 $183 $419 #
ellipse-curve $-1 23.818329238369358 40.217262828274301 8.1359230529968443 0 0.86602541151947299 0.49999998660252726 1 0 0 1 I I #
coedge $-1 $292 $292 $-1 $420 reversed $186 $-1 #
edge $-1 $421 0 $421 6.2831853071796004 $187 $422 forward 7 unknown #
vertex $-1 $190 $423 #
ellipse-curve $-1 29.610854319975999 40.217262828274301 8.1359230529968443 0 0.86602541151947299 0.49999998660252726 1 0 0 1 I I #
face $-1 $-1 $424 $40 $-1 $425 reversed single #
loop $-1 $-1 $197 $191 #
plane-surface $-1 0 0 10.854472544206752 0 0 1 1 0 0 forward_v I I I I #
coedge $-1 $426 $427 $428 $429 reversed $192 $-1 #
coedge $-1 $430 $194 $196 $306 forward $120 $-1 #
coedge $-1 $194 $430 $426 $431 forward $120 $-1 #
coedge $-1 $428 $197 $194 $303 forward $297 $-1 #
edge $-1 $309 -4.4452880274340405 $432 24.878895966804908 $302 $433 forward 7 unknown #
coedge $-1 $434 $435 $195 $305 forward $424 $-1 #
edge $-1 $436 -30.837350112571219 $308 -22.781694104091208 $304 $437 forward 7 unknown #
edge $-1 $309 -9.3979972500693822 $436 -1.393735185947377e-014 $196 $438 forward 7 unknown #
coedge $-1 $197 $428 $434 $439 forward $297 $-1 #
vertex $-1 $198 $440 #
vertex $-1 $198 $441 #
straight-curve $-1 -5.7715159422513924 -74.544386425122724 10.85447254420675 0 1 0 I I #
coedge $-1 $311 $311 $-1 $442 reversed $201 $-1 #
edge $-1 $443 0 $443 6.2831853071796004 $202 $444 forward 7 unknown #
vertex $-1 $205 $445 #
ellipse-curve $-1 -29.230863137642551 -39.366654908184231 6.8266445399667459 0 -0.85716730853699208 0.51503806187062418 1 0 0 1 I I #
coedge $-1 $315 $315 $-1 $446 reversed $208 $-1 #
edge $-1 $447 0 $447 6.2831853071796004 $209 $448 forward 7 unknown #
vertex $-1 $212 $449 #
ellipse-curve $-1 -20.433607939370866 -39.366654908184231 6.8266445399667459 0 -0.85716730853699208 0.51503806187062418 1 0 0 1 I I #
coedge $-1 $319 $319 $-1 $450 reversed $215 $-1 #
edge $-1 $451 0 $451 6.2831853071796004 $216 $452 forward 7 unknown #
vertex $-1 $219 $453 #
ellipse-curve $-1 -11.636352741099181 -39.366654908184231 6.8266445399667459 0 -0.85716730853699208 0.51503806187062418 1 0 0 1 I I #
face $-1 $-1 $339 $33 $-1 $454 reversed single #
loop $-1 $-1 $330 $220 #
plane-surface $-1 0 -41.786818052754818 0 0 1 0 0 0 1 forward_v I I I I #
coedge $-1 $455 $223 $338 $456 forward $139 $-1 #
coedge $-1 $223 $455 $342 $457 forward $139 $-1 #
edge $-1 $344 -41.786818052754818 $340 41.786818052754818 $228 $458 forward 7 unknown #
coedge $-1 $225 $224 $455 $459 reversed $89 $-1 #
coedge $-1 $343 $342 $224 $331 forward $324 $-1 #
edge $-1 $460 -10.854472544206752 $334 10.854472544206752 $224 $461 forward 7 unknown #
coedge $-1 $338 $337 $225 $333 reversed $339 $-1 #
edge $-1 $462 -10.854472544206752 $335 10.854472544206752 $332 $463 forward 7 unknown #
vertex $-1 $227 $464 #
vertex $-1 $347 $465 #
straight-curve $-1 -62.591021454512159 0 -10.854472544206752 0 1 0 I I #
coedge $-1 $332 $229 $234 $347 reversed $339 $-1 #
coedge $-1 $229 $332 $326 $456 reversed $339 $-1 #
loop $-1 $-1 $229 $323 #
vertex $-1 $328 $466 #
straight-curve $-1 62.591021454512159 41.786818052754818 0 0 0 -1 I I #
coedge $-1 $330 $231 $327 $457 reversed $324 $-1 #
coedge $-1 $231 $330 $233 $346 reversed $324 $-1 #
vertex $-1 $328 $467 #
straight-curve $-1 62.591021454512159 -41.786818052754818 0 0 0 -1 I I #
edge $-1 $236 -62.591021454512159 $334 62.591021454512159 $343 $468 forward 7 unknown #
edge $-1 $335 -62.591021454512159 $235 62.591021454512159 $337 $469 forward 7 unknown #
point $-1 62.591021454512159 41.786818052754818 -10.854472544206752 #
point $-1 62.591021454512159 -41.786818052754818 -10.854472544206752 #
face $-1 $-1 $366 $34 $-1 $470 forward single #
plane-surface $-1 -68.924058110543072 -38.286818052754818 0 0 -1 0 0 0 -1 forward_v I I I I #
coedge $-1 $471 $472 $369 $473 forward $239 $-1 #
coedge $-1 $362 $241 $242 $358 reversed $147 $-1 #
coedge $-1 $241 $362 $365 $474 reversed $147 $-1 #
coedge $-1 $472 $471 $241 $356 reversed $239 $-1 #
edge $-1 $475 -10.854472544206752 $476 10.854472544206752 $355 $477 forward 7 unknown #
coedge $-1 $243 $242 $471 $478 forward $93 $-1 #
edge $-1 $360 -6.333036656030913 $476 6.333036656030913 $353 $479 forward 7 unknown #
edge $-1 $480 -6.333036656030913 $251 6.333036656030913 $248 $481 forward 7 unknown #
vertex $-1 $358 $482 #
straight-curve $-1 -62.591021454512159 0 -10.854472544206752 0 -1 0 I I #
coedge $-1 $354 $353 $245 $363 reversed $147 $-1 #
edge $-1 $367 -10.854472544206752 $360 10.854472544206752 $362 $483 forward 7 unknown #
coedge $-1 $484 $246 $249 $370 forward $366 $-1 #
coedge $-1 $246 $484 $354 $474 forward $366 $-1 #
loop $-1 $-1 $246 $350 #
vertex $-1 $247 $485 #
straight-curve $-1 -62.591021454512159 0 10.854472544206752 0 1 0 I I #
coedge $-1 $249 $248 $352 $473 reversed $250 $-1 #
edge $-1 $252 -6.333036656030913 $486 6.333036656030913 $249 $487 forward 7 unknown #
point $-1 -62.591021454512159 -38.286818052754818 -10.854472544206752 #
point $-1 -62.591021454512159 -38.286818052754818 10.854472544206752 #
face $-1 $-1 $387 $35 $-1 $488 forward single #
loop $-1 $-1 $489 $254 #
plane-surface $-1 75.257094766573985 -39.786818052754818 0 -1 0 0 0 0 1 forward_v I I I I #
coedge $-1 $378 $490 $491 $492 forward $255 $-1 #
coedge $-1 $258 $257 $493 $494 forward $97 $-1 #
coedge $-1 $383 $376 $257 $379 reversed $255 $-1 #
edge $-1 $381 -6.333036656030913 $495 6.333036656030913 $378 $496 forward 7 unknown #
edge $-1 $497 -6.333036656030913 $265 6.333036656030913 $263 $498 forward 7 unknown #
vertex $-1 $379 $499 #
straight-curve $-1 62.591021454512159 0 -10.854472544206752 0 1 0 I I #
coedge $-1 $490 $378 $260 $384 reversed $255 $-1 #
edge $-1 $388 -10.854472544206752 $381 10.854472544206752 $383 $500 forward 7 unknown #
coedge $-1 $501 $261 $264 $391 forward $387 $-1 #
coedge $-1 $261 $501 $490 $502 forward $387 $-1 #
loop $-1 $-1 $261 $373 #
vertex $-1 $262 $503 #
straight-curve $-1 62.591021454512159 0 10.854472544206752 0 -1 0 I I #
coedge $-1 $264 $263 $489 $504 reversed $155 $-1 #
edge $-1 $266 -6.333036656030913 $505 6.333036656030913 $264 $506 forward 7 unknown #
point $-1 62.591021454512159 -41.286818052754818 -10.854472544206752 #
point $-1 62.591021454512159 -41.286818052754818 10.854472544206752 #
plane-surface $-1 0 0 10.854472544206752 0 0 1 1 0 0 forward_v I I I I #
coedge $-1 $405 $404 $397 $507 forward $269 $-1 #
coedge $-1 $397 $271 $273 $401 reversed $163 $-1 #
coedge $-1 $271 $396 $395 $507 reversed $163 $-1 #
coedge $-1 $279 $274 $271 $399 forward $280 $-1 #
edge $-1 $402 -15.557708068612001 $508 -12.418597619650988 $398 $509 forward 7 unknown #
coedge $-1 $273 $272 $405 $510 reversed $101 $-1 #
edge $-1 $511 -83.573636105509649 $402 -77.295415039363036 $396 $512 forward 7 unknown #
vertex $-1 $275 $513 #
straight-curve $-1 11.909164619184686 38.647707603793819 10.85447254420675 1 0 0 I I #
coedge $-1 $395 $276 $279 $409 reversed $269 $-1 #
coedge $-1 $276 $395 $400 $510 forward $269 $-1 #
vertex $-1 $277 $514 #
straight-curve $-1 14.164120769024969 41.786818052754818 70.192642969814372 0 0 1 I I #
straight-curve $-1 14.164120769024969 1.1196755025366656e-006 77.794266162239595 0 0.49999998660252726 -0.86602541151947299 I I #
edge $-1 $508 -33.472537707713776 $281 -14.164120769024969 $404 $515 forward 7 unknown #
point $-1 14.164120769024969 41.786818052754818 10.854472544206752 #
point $-1 14.164120769024969 38.647707603793805 10.854472544206757 #
edge $-1 $516 1 $516 0 $284 $-1 forward 7 unknown #
vertex $-1 $285 $517 #
ellipse-curve $-1 18.025804156762717 36.986034191654049 6.2703723964806839 0 0.86602541151947299 0.49999998660252726 1 0 0 1 I I #
point $-1 19.025804156762717 40.217262828274315 8.1359230529968496 #
edge $-1 $518 1 $518 0 $288 $-1 forward 7 unknown #
vertex $-1 $289 $519 #
ellipse-curve $-1 23.818329238369358 36.986034191654049 6.2703723964806839 0 0.86602541151947299 0.49999998660252726 1 0 0 1 I I #
point $-1 24.818329238369358 40.217262828274315 8.1359230529968496 #
edge $-1 $520 1 $520 0 $292 $-1 forward 7 unknown #
vertex $-1 $293 $521 #
ellipse-curve $-1 29.610854319975999 36.986034191654049 6.2703723964806839 0 0.86602541151947299 0.49999998660252726 1 0 0 1 I I #
point $-1 30.610854319975999 40.217262828274315 8.1359230529968496 #
loop $-1 $-1 $304 $296 #
plane-surface $-1 0 -41.786818052754818 0 0 1 0 0 0 1 forward_v I I I I #
coedge $-1 $427 $299 $301 $431 reversed $192 $-1 #
coedge $-1 $299 $426 $522 $523 reversed $192 $-1 #
coedge $-1 $307 $302 $299 $429 forward $297 $-1 #
edge $-1 $432 -37.597894661509088 $524 -32.757568372367906 $428 $525 forward 7 unknown #
coedge $-1 $301 $300 $435 $526 reversed $120 $-1 #
edge $-1 $527 1.393735185947377e-014 $432 9.3979972500693822 $426 $528 forward 7 unknown #
vertex $-1 $303 $529 #
straight-curve $-1 -10.216803969685433 -36.946491763613636 10.854472544206752 -1 0 0 I I #
coedge $-1 $522 $304 $307 $439 reversed $424 $-1 #
coedge $-1 $304 $522 $430 $526 forward $424 $-1 #
vertex $-1 $305 $530 #
straight-curve $-1 -5.7715159422513924 -41.786818052754818 33.636166648297959 0 0 1 I I #
straight-curve $-1 -5.7715159422513924 -41.786818052754825 2.7988165357267292 0 -0.51503806187062418 -0.85716730853699208 I I #
edge $-1 $524 -35.095699936490341 $308 -5.7715159422513924 $434 $531 forward 7 unknown #
point $-1 -5.7715159422513924 -41.786818052754818 10.854472544206752 #
point $-1 -5.7715159422513924 -36.946491763613636 10.854472544206752 #
edge $-1 $532 1 $532 0 $311 $-1 forward 7 unknown #
vertex $-1 $312 $533 #
ellipse-curve $-1 -29.230863137642551 -36.069829395921886 4.8457119901016066 0 -0.85716730853699208 0.51503806187062418 1 0 0 1 I I #
point $-1 -28.230863137642551 -39.366654908184231 6.8266445399667468 #
edge $-1 $534 1 $534 0 $315 $-1 forward 7 unknown #
vertex $-1 $316 $535 #
ellipse-curve $-1 -20.433607939370866 -36.069829395921886 4.8457119901016066 0 -0.85716730853699208 0.51503806187062418 1 0 0 1 I I #
point $-1 -19.433607939370866 -39.366654908184231 6.8266445399667468 #
edge $-1 $536 1 $536 0 $319 $-1 forward 7 unknown #
vertex $-1 $320 $537 #
ellipse-curve $-1 -11.636352741099181 -36.069829395921886 4.8457119901016066 0 -0.85716730853699208 0.51503806187062418 1 0 0 1 I I #
point $-1 -10.636352741099181 -39.366654908184231 6.8266445399667468 #
plane-surface $-1 0 41.786818052754818 0 0 -1 0 0 0 -1 forward_v I I I I #
coedge $-1 $327 $326 $329 $459 forward $139 $-1 #
edge $-1 $340 -62.591021454512159 $462 62.591021454512159 $338 $538 forward 7 unknown #
edge $-1 $460 -62.591021454512159 $344 62.591021454512159 $342 $539 forward 7 unknown #
straight-curve $-1 62.591021454512159 0 10.854472544206752 0 1 0 I I #
edge $-1 $462 -41.786818052754818 $460 41.786818052754818 $329 $540 forward 7 unknown #
vertex $-1 $459 $541 #
straight-curve $-1 -62.591021454512159 -41.786818052754818 0 0 0 -1 I I #
vertex $-1 $456 $542 #
straight-curve $-1 -62.591021454512159 41.786818052754818 0 0 0 -1 I I #
point $-1 -62.591021454512159 -41.786818052754818 -10.854472544206752 #
point $-1 -62.591021454512159 41.786818052754818 -10.854472544206752 #
point $-1 62.591021454512159 41.786818052754818 10.854472544206752 #
point $-1 62.591021454512159 -41.786818052754818 10.854472544206752 #
straight-curve $-1 0 -41.786818052754818 -10.854472544206752 -1 0 0 I I #
straight-curve $-1 0 41.786818052754818 -10.854472544206752 1 0 0 I I #
plane-surface $-1 0 0 10.854472544206752 0 0 1 1 0 0 forward_v I I I I #
coedge $-1 $355 $352 $357 $478 reversed $239 $-1 #
coedge $-1 $352 $355 $484 $543 reversed $239 $-1 #
edge $-1 $486 -10.854472544206752 $480 10.854472544206752 $369 $544 forward 7 unknown #
edge $-1 $475 -6.333036656030913 $367 6.333036656030913 $354 $545 forward 7 unknown #
vertex $-1 $543 $546 #
vertex $-1 $478 $547 #
straight-curve $-1 -75.257094766573985 -41.286818052754818 0 0 0 -1 I I #
edge $-1 $476 -1.5 $480 1.5 $471 $548 forward 7 unknown #
straight-curve $-1 -68.924058110543072 -41.286818052754818 -10.854472544206752 -1 0 0 I I #
vertex $-1 $359 $549 #
straight-curve $-1 -68.924058110543072 -38.286818052754818 -10.854472544206752 1 0 0 I I #
point $-1 -62.591021454512159 -41.286818052754818 -10.854472544206752 #
straight-curve $-1 -62.591021454512159 -41.286818052754818 0 0 0 -1 I I #
coedge $-1 $365 $364 $472 $543 forward $366 $-1 #
point $-1 -62.591021454512159 -41.286818052754818 10.854472544206752 #
vertex $-1 $370 $550 #
straight-curve $-1 -68.924058110543072 -38.286818052754818 10.854472544206752 -1 0 0 I I #
plane-surface $-1 0 0 10.854472544206752 0 0 1 1 0 0 forward_v I I I I #
coedge $-1 $493 $551 $390 $504 forward $374 $-1 #
coedge $-1 $376 $383 $386 $502 reversed $255 $-1 #
coedge $-1 $551 $493 $376 $492 reversed $374 $-1 #
edge $-1 $552 -10.854472544206752 $495 10.854472544206752 $491 $553 forward 7 unknown #
coedge $-1 $491 $489 $377 $494 reversed $374 $-1 #
edge $-1 $495 -1.5 $497 1.5 $493 $554 forward 7 unknown #
vertex $-1 $494 $555 #
straight-curve $-1 68.924058110543072 -38.286818052754818 -10.854472544206752 1 0 0 I I #
vertex $-1 $504 $556 #
straight-curve $-1 68.924058110543072 -41.286818052754818 -10.854472544206752 -1 0 0 I I #
point $-1 62.591021454512159 -38.286818052754818 -10.854472544206752 #
straight-curve $-1 62.591021454512159 -38.286818052754818 0 0 0 -1 I I #
coedge $-1 $386 $385 $551 $557 forward $387 $-1 #
edge $-1 $552 -6.333036656030913 $388 6.333036656030913 $490 $558 forward 7 unknown #
point $-1 62.591021454512159 -38.286818052754818 10.854472544206752 #
edge $-1 $505 -10.854472544206752 $497 10.854472544206752 $489 $559 forward 7 unknown #
vertex $-1 $557 $560 #
straight-curve $-1 68.924058110543072 -41.286818052754818 10.854472544206752 1 0 0 I I #
edge $-1 $508 59.338170425607622 $511 64.775269408027455 $395 $561 forward 7 unknown #
vertex $-1 $409 $562 #
straight-curve $-1 33.472537707713776 54.205415672405806 10.854472544206757 0 1 0 I I #
edge $-1 $511 -21.56337308852909 $406 -2.2549561498402824 $405 $563 forward 7 unknown #
vertex $-1 $510 $564 #
straight-curve $-1 33.472537707713776 1.1196755025366656e-006 77.794266162239595 0 -0.49999998660252726 0.86602541151947299 I I #
point $-1 33.472537707713776 38.647707603793805 10.854472544206757 #
point $-1 14.164120769024969 41.786818052754818 5.417373561786917 #
straight-curve $-1 0 41.786818052754818 10.854472544206752 -1 0 0 I I #
vertex $-1 $412 $565 #
point $-1 19.025804156762717 36.986034191654049 6.2703723964806839 #
vertex $-1 $416 $566 #
point $-1 24.818329238369358 36.986034191654049 6.2703723964806839 #
vertex $-1 $420 $567 #
point $-1 30.610854319975999 36.986034191654049 6.2703723964806839 #
coedge $-1 $435 $434 $427 $523 forward $424 $-1 #
edge $-1 $524 22.781694104091208 $527 30.837350112571219 $522 $568 forward 7 unknown #
vertex $-1 $439 $569 #
straight-curve $-1 -35.095699936490341 -74.544386425122724 10.85447254420675 0 -1 0 I I #
edge $-1 $527 -24.878895966804908 $436 4.4452880274340405 $435 $570 forward 7 unknown #
vertex $-1 $526 $571 #
straight-curve $-1 -35.095699936490341 -41.786818052754825 2.7988165357267292 0 0.51503806187062418 0.85716730853699208 I I #
point $-1 -35.095699936490341 -36.946491763613636 10.854472544206752 #
point $-1 -5.7715159422513924 -41.786818052754818 2.7988165357267412 #
straight-curve $-1 0 -41.786818052754818 10.854472544206752 1 0 0 I I #
vertex $-1 $442 $572 #
point $-1 -28.230863137642551 -36.069829395921886 4.8457119901016066 #
vertex $-1 $446 $573 #
point $-1 -19.433607939370866 -36.069829395921886 4.8457119901016066 #
vertex $-1 $450 $574 #
point $-1 -10.636352741099181 -36.069829395921886 4.8457119901016066 #
straight-curve $-1 0 41.786818052754818 10.854472544206752 -1 0 0 I I #
straight-curve $-1 0 -41.786818052754818 10.854472544206752 1 0 0 I I #
straight-curve $-1 -62.591021454512159 0 10.854472544206752 0 -1 0 I I #
point $-1 -62.591021454512159 -41.786818052754818 10.854472544206752 #
point $-1 -62.591021454512159 41.786818052754818 10.854472544206752 #
edge $-1 $486 -1.5 $475 1.5 $472 $575 forward 7 unknown #
straight-curve $-1 -75.257094766573985 -38.286818052754818 0 0 0 -1 I I #
straight-curve $-1 -68.924058110543072 -41.286818052754818 10.854472544206752 1 0 0 I I #
point $-1 -75.257094766573985 -41.286818052754818 10.854472544206752 #
point $-1 -75.257094766573985 -41.286818052754818 -10.854472544206752 #
straight-curve $-1 -75.257094766573985 -39.786818052754818 -10.854472544206752 0 1 0 I I #
point $-1 -75.257094766573985 -38.286818052754818 -10.854472544206752 #
point $-1 -75.257094766573985 -38.286818052754818 10.854472544206752 #
coedge $-1 $489 $491 $501 $557 reversed $374 $-1 #
vertex $-1 $557 $576 #
straight-curve $-1 75.257094766573985 -38.286818052754818 0 0 0 -1 I I #
straight-curve $-1 75.257094766573985 -39.786818052754818 -10.854472544206752 0 -1 0 I I #
point $-1 75.257094766573985 -38.286818052754818 -10.854472544206752 #
point $-1 75.257094766573985 -41.286818052754818 -10.854472544206752 #
edge $-1 $505 -1.5 $552 1.5 $551 $577 forward 7 unknown #
straight-curve $-1 68.924058110543072 -38.286818052754818 10.854472544206752 -1 0 0 I I #
straight-curve $-1 75.257094766573985 -41.286818052754818 0 0 0 -1 I I #
point $-1 75.257094766573985 -41.286818052754818 10.854472544206752 #
straight-curve $-1 33.472537707713776 41.786818052754818 70.192642969814372 0 0 -1 I I #
point $-1 33.472537707713776 41.786818052754818 10.854472544206752 #
straight-curve $-1 11.909164619184686 41.786818052754825 5.4173735617869099 -1 0 0 I I #
point $-1 33.472537707713776 41.786818052754818 5.417373561786917 #
point $-1 18.025804156762717 36.120008780134576 5.7703724098781572 #
point $-1 23.818329238369358 36.120008780134576 5.7703724098781572 #
point $-1 29.610854319975999 36.120008780134576 5.7703724098781572 #
straight-curve $-1 -35.095699936490341 -41.786818052754818 33.636166648297959 0 0 -1 I I #
point $-1 -35.095699936490341 -41.786818052754818 10.854472544206752 #
straight-curve $-1 -10.216803969685433 -41.786818052754818 2.7988165357267496 1 0 0 I I #
point $-1 -35.095699936490341 -41.786818052754818 2.7988165357267412 #
point $-1 -29.230863137642551 -35.212662087384899 4.3306739282309819 #
point $-1 -20.433607939370866 -35.212662087384899 4.3306739282309819 #
point $-1 -11.636352741099181 -35.212662087384899 4.3306739282309819 #
straight-curve $-1 -75.257094766573985 -39.786818052754818 10.854472544206752 0 -1 0 I I #
point $-1 75.257094766573985 -38.286818052754818 10.854472544206752 #
straight-curve $-1 75.257094766573985 -39.786818052754818 10.854472544206752 0 1 0 I I #
End-of-ACIS-data 