500 0 11 0           
7 Unknown 11 ACIS 5.0 NT 24 Fri Mar 26 15:45:03 1999 
-1 9.9999999999999995e-007 1e-010 
body $-1 $11 $-1 $12 #
body $-1 $13 $-1 $14 #
body $-1 $15 $-1 $16 #
body $-1 $17 $-1 $18 #
body $-1 $19 $-1 $20 #
body $-1 $21 $-1 $22 #
body $-1 $23 $-1 $24 #
body $-1 $25 $-1 $26 #
body $-1 $27 $-1 $28 #
body $-1 $29 $-1 $30 #
body $-1 $31 $-1 $32 #
lump $-1 $-1 $33 $0 #
transform $-1 1 0 0 0 1 0 0 0 1 46.831263161107209 27.735735928131312 5.6873198553762716 1 rotate no_reflect no_shear #
lump $-1 $-1 $34 $1 #
transform $-1 1 0 0 0 1 0 0 0 1 46.831263161107209 27.735735928131312 5.6873198553762716 1 rotate no_reflect no_shear #
lump $-1 $-1 $35 $2 #
transform $-1 1 0 0 0 1 0 0 0 1 46.831263161107209 27.735735928131312 5.6873198553762716 1 rotate no_reflect no_shear #
lump $-1 $-1 $36 $3 #
transform $-1 1 0 0 0 1 0 0 0 1 46.831263161107209 27.735735928131312 5.6873198553762716 1 rotate no_reflect no_shear #
lump $-1 $-1 $37 $4 #
transform $-1 1 0 0 0 1 0 0 0 1 46.831263161107209 27.735735928131312 5.6873198553762716 1 rotate no_reflect no_shear #
lump $-1 $-1 $38 $5 #
transform $-1 1 0 0 0 1 0 0 0 1 46.831263161107209 27.735735928131312 5.6873198553762716 1 rotate no_reflect no_shear #
lump $-1 $-1 $39 $6 #
transform $-1 1 0 0 0 1 0 0 0 1 46.831263161107209 27.735735928131312 5.6873198553762716 1 rotate no_reflect no_shear #
lump $-1 $-1 $40 $7 #
transform $-1 1 0 0 0 1 0 0 0 1 46.831263161107209 27.735735928131312 5.6873198553762716 1 rotate no_reflect no_shear #
lump $-1 $-1 $41 $8 #
transform $-1 1 0 0 0 1 0 0 0 1 46.831263161107209 27.735735928131312 5.6873198553762716 1 rotate no_reflect no_shear #
lump $-1 $-1 $42 $9 #
transform $-1 1 0 0 0 1 0 0 0 1 46.831263161107209 27.735735928131312 5.6873198553762716 1 rotate no_reflect no_shear #
lump $-1 $-1 $43 $10 #
transform $-1 1 0 0 0 1 0 0 0 1 46.831263161107209 27.735735928131312 5.6873198553762716 1 rotate no_reflect no_shear #
shell $-1 $-1 $-1 $44 $-1 $11 #
shell $-1 $-1 $-1 $45 $-1 $13 #
shell $-1 $-1 $-1 $46 $-1 $15 #
shell $-1 $-1 $-1 $47 $-1 $17 #
shell $-1 $-1 $-1 $48 $-1 $19 #
shell $-1 $-1 $-1 $49 $-1 $21 #
shell $-1 $-1 $-1 $50 $-1 $23 #
shell $-1 $-1 $-1 $51 $-1 $25 #
shell $-1 $-1 $-1 $52 $-1 $27 #
shell $-1 $-1 $-1 $53 $-1 $29 #
shell $-1 $-1 $-1 $54 $-1 $31 #
face $-1 $55 $56 $33 $-1 $57 reversed single #
face $-1 $58 $59 $34 $-1 $60 forward single #
face $-1 $61 $62 $35 $-1 $63 forward single #
face $-1 $64 $65 $36 $-1 $66 reversed single #
face $-1 $67 $68 $37 $-1 $69 forward single #
face $-1 $70 $71 $38 $-1 $72 reversed single #
face $-1 $73 $74 $39 $-1 $75 forward single #
face $-1 $76 $77 $40 $-1 $78 forward single #
face $-1 $79 $80 $41 $-1 $81 reversed single #
face $-1 $82 $83 $42 $-1 $84 forward single #
face $-1 $85 $86 $43 $-1 $87 forward single #
face $-1 $88 $89 $33 $-1 $90 forward single #
loop $-1 $-1 $91 $44 #
plane-surface $-1 46.831263161107209 0 0 -1 0 0 0 0 1 forward_v I I I I #
face $-1 $92 $93 $34 $-1 $94 reversed single #
loop $-1 $-1 $95 $45 #
plane-surface $-1 -46.831263161107209 0 0 1 0 0 0 0 -1 forward_v I I I I #
face $-1 $96 $97 $35 $-1 $98 reversed single #
loop $-1 $-1 $99 $46 #
plane-surface $-1 46.831263161107209 0 0 -1 0 0 0 0 1 forward_v I I I I #
face $-1 $100 $101 $36 $-1 $102 reversed single #
loop $-1 $-1 $103 $47 #
plane-surface $-1 -13.2898930293316 -90.40819971297114 71.291582397236738 -1 0 0 0 -0.66913061440640931 0.74314481823134659 forward_v I I I I #
face $-1 $104 $105 $37 $-1 $106 forward single #
loop $-1 $107 $108 $48 #
cone-surface $-1 -21.94134440513006 -25.110898824437324 3.2391283912368873 0 0.66913061440640931 -0.74314481823134659 1 0 0 1 I I 0 1 1 forward I I I I #
face $-1 $109 $110 $38 $-1 $111 reversed single #
loop $-1 $-1 $112 $49 #
plane-surface $-1 -25.400861271689578 36.018785404382555 109.95652330092321 1 0 0 0 -0.57357644374324357 -0.81915203911291934 forward_v I I I I #
face $-1 $113 $114 $39 $-1 $115 forward single #
loop $-1 $116 $117 $50 #
cone-surface $-1 -22.505120236674468 23.807774087096686 2.298092218437088 0 -0.57357644374324357 -0.81915203911291934 1 0 0 1 I I 0 1 1 forward I I I I #
face $-1 $118 $119 $40 $-1 $120 forward single #
loop $-1 $121 $122 $51 #
cone-surface $-1 -18.161508684151801 23.807774087096686 2.298092218437088 0 -0.57357644374324357 -0.81915203911291934 1 0 0 1 I I 0 1 1 forward I I I I #
face $-1 $123 $124 $41 $-1 $125 reversed single #
loop $-1 $-1 $126 $52 #
plane-surface $-1 17.310881391640514 36.018785404382555 109.95652330092321 1 0 0 0 -0.57357644374324357 -0.81915203911291934 forward_v I I I I #
face $-1 $127 $128 $42 $-1 $129 forward single #
loop $-1 $130 $131 $53 #
cone-surface $-1 20.20662242665562 23.807774087096686 2.298092218437088 0 -0.57357644374324357 -0.81915203911291934 1 0 0 1 I I 0 1 1 forward I I I I #
face $-1 $132 $133 $43 $-1 $134 forward single #
loop $-1 $135 $136 $54 #
cone-surface $-1 24.550233979178294 23.807774087096686 2.298092218437088 0 -0.57357644374324357 -0.81915203911291934 1 0 0 1 I I 0 1 1 forward I I I I #
face $-1 $137 $138 $33 $-1 $139 reversed single #
loop $-1 $-1 $140 $55 #
plane-surface $-1 0 0 5.6873198553762716 0 0 1 1 0 0 forward_v I I I I #
coedge $-1 $141 $142 $143 $144 reversed $56 $-1 #
face $-1 $145 $146 $34 $-1 $147 forward single #
loop $-1 $-1 $148 $58 #
plane-surface $-1 0 27.735735928131312 0 0 -1 0 0 0 -1 forward_v I I I I #
coedge $-1 $149 $150 $151 $152 forward $59 $-1 #
face $-1 $153 $154 $35 $-1 $155 forward single #
loop $-1 $-1 $156 $61 #
plane-surface $-1 0 -27.735735928131312 0 0 1 0 0 0 1 forward_v I I I I #
coedge $-1 $157 $158 $159 $160 forward $62 $-1 #
face $-1 $161 $162 $36 $-1 $163 reversed single #
loop $-1 $-1 $164 $64 #
plane-surface $-1 -21.94134440513006 -27.735735928131319 1.6867612984259921 0 -0.66913061440640931 0.74314481823134659 1 0 0 forward_v I I I I #
coedge $-1 $165 $166 $167 $168 reversed $65 $-1 #
face $-1 $-1 $169 $37 $-1 $170 forward single #
loop $-1 $171 $172 $67 #
cone-surface $-1 -21.94134440513006 -24.373031564988892 2.4196437964569792 0 0.66913061440640931 -0.74314481823134659 0.5 0 0 1 I I -0.70710678118654746 0.70710678118654746 0.5 forward I I I I #
loop $-1 $-1 $173 $48 #
coedge $-1 $108 $108 $174 $175 reversed $68 $-1 #
face $-1 $176 $177 $38 $-1 $178 reversed single #
loop $-1 $-1 $179 $70 #
plane-surface $-1 -20.333314460413135 -17.703833355521134 33.232673875613784 0 0.57357644374324357 0.81915203911291934 1 0 0 forward_v I I I I #
coedge $-1 $180 $181 $182 $183 reversed $71 $-1 #
face $-1 $-1 $184 $39 $-1 $185 forward single #
loop $-1 $186 $187 $73 #
cone-surface $-1 -22.505120236674468 22.643387824297683 0.6351763300819524 0 -0.57357644374324357 -0.81915203911291934 0.5 0 0 1 I I -0.70710678118654746 0.70710678118654746 0.5 forward I I I I #
loop $-1 $-1 $188 $50 #
coedge $-1 $117 $117 $189 $190 reversed $74 $-1 #
face $-1 $-1 $191 $40 $-1 $192 forward single #
loop $-1 $193 $194 $76 #
cone-surface $-1 -18.161508684151801 22.643387824297683 0.6351763300819524 0 -0.57357644374324357 -0.81915203911291934 0.5 0 0 1 I I -0.70710678118654746 0.70710678118654746 0.5 forward I I I I #
loop $-1 $-1 $195 $51 #
coedge $-1 $122 $122 $196 $197 reversed $77 $-1 #
face $-1 $198 $199 $41 $-1 $200 reversed single #
loop $-1 $-1 $201 $79 #
plane-surface $-1 22.378428202916957 -17.703833355521134 33.232673875613784 0 0.57357644374324357 0.81915203911291934 1 0 0 forward_v I I I I #
coedge $-1 $202 $203 $204 $205 reversed $80 $-1 #
face $-1 $-1 $206 $42 $-1 $207 forward single #
loop $-1 $208 $209 $82 #
cone-surface $-1 20.20662242665562 22.643387824297683 0.6351763300819524 0 -0.57357644374324357 -0.81915203911291934 0.5 0 0 1 I I -0.70710678118654746 0.70710678118654746 0.5 forward I I I I #
loop $-1 $-1 $210 $53 #
coedge $-1 $131 $131 $211 $212 reversed $83 $-1 #
face $-1 $-1 $213 $43 $-1 $214 forward single #
loop $-1 $215 $216 $85 #
cone-surface $-1 24.550233979178294 22.643387824297683 0.6351763300819524 0 -0.57357644374324357 -0.81915203911291934 0.5 0 0 1 I I -0.70710678118654746 0.70710678118654746 0.5 forward I I I I #
loop $-1 $-1 $217 $54 #
coedge $-1 $136 $136 $218 $219 reversed $86 $-1 #
face $-1 $220 $221 $33 $-1 $222 reversed single #
loop $-1 $-1 $223 $88 #
plane-surface $-1 0 0 -5.6873198553762716 0 0 1 1 0 0 forward_v I I I I #
coedge $-1 $224 $225 $141 $226 forward $89 $-1 #
coedge $-1 $227 $91 $140 $226 reversed $56 $-1 #
coedge $-1 $91 $227 $223 $228 reversed $56 $-1 #
coedge $-1 $229 $230 $91 $144 forward $231 $-1 #
edge $-1 $232 -5.6873198553762716 $233 5.6873198553762716 $91 $234 forward 7 unknown #
face $-1 $235 $236 $34 $-1 $237 reversed single #
loop $-1 $-1 $151 $92 #
plane-surface $-1 -48.891023409995768 0 -2.1873198553762716 0 0 1 1 0 0 forward_v I I I I #
coedge $-1 $238 $239 $150 $240 forward $93 $-1 #
coedge $-1 $241 $95 $242 $243 reversed $59 $-1 #
coedge $-1 $95 $241 $148 $240 reversed $59 $-1 #
coedge $-1 $244 $245 $95 $152 reversed $146 $-1 #
edge $-1 $246 -27.735735928131312 $247 27.735735928131312 $151 $248 forward 7 unknown #
face $-1 $249 $250 $35 $-1 $251 reversed single #
loop $-1 $-1 $252 $96 #
plane-surface $-1 48.891023409995775 0 -2.1873198553762716 0 0 1 1 0 0 forward_v I I I I #
coedge $-1 $253 $254 $158 $255 forward $97 $-1 #
coedge $-1 $256 $99 $257 $258 reversed $62 $-1 #
coedge $-1 $99 $256 $156 $255 reversed $62 $-1 #
coedge $-1 $259 $260 $99 $160 reversed $154 $-1 #
edge $-1 $261 -27.735735928131312 $262 27.735735928131312 $159 $263 forward 7 unknown #
face $-1 $264 $265 $36 $-1 $266 forward single #
loop $-1 $-1 $267 $100 #
plane-surface $-1 -30.592795780928519 -90.40819971297114 71.291582397236738 1 0 0 0 0.66913061440640931 -0.74314481823134659 forward_v I I I I #
coedge $-1 $268 $269 $270 $271 reversed $101 $-1 #
coedge $-1 $166 $103 $272 $273 reversed $65 $-1 #
coedge $-1 $103 $165 $268 $274 reversed $65 $-1 #
coedge $-1 $270 $275 $103 $168 forward $265 $-1 #
edge $-1 $276 17.468363928354258 $277 21.911434231251746 $167 $278 forward 7 unknown #
loop $-1 $-1 $174 $104 #
plane-surface $-1 -21.94134440513006 -27.735735928131319 1.6867612984259921 0 -0.66913061440640931 0.74314481823134659 1 0 0 forward_v I I I I #
loop $-1 $-1 $279 $67 #
coedge $-1 $172 $172 $173 $280 reversed $105 $-1 #
coedge $-1 $173 $173 $172 $280 forward $107 $-1 #
coedge $-1 $174 $174 $108 $175 forward $169 $-1 #
edge $-1 $281 -2.1826830353191428e-015 $281 6.2831853071795987 $174 $282 forward 7 unknown #
face $-1 $283 $284 $38 $-1 $285 reversed single #
loop $-1 $-1 $286 $109 #
plane-surface $-1 -15.265767649136691 36.018785404382555 109.95652330092321 -1 0 0 0 0.57357644374324357 0.81915203911291934 forward_v I I I I #
coedge $-1 $287 $288 $289 $290 reversed $110 $-1 #
coedge $-1 $181 $112 $291 $292 reversed $71 $-1 #
coedge $-1 $112 $180 $287 $293 reversed $71 $-1 #
coedge $-1 $289 $294 $112 $183 forward $295 $-1 #
edge $-1 $296 -9.7263432259400346 $297 -3.6256156257255299 $182 $298 forward 7 unknown #
loop $-1 $-1 $189 $113 #
plane-surface $-1 -20.333314460413135 -17.703833355521134 33.232673875613784 0 0.57357644374324357 0.81915203911291934 1 0 0 forward_v I I I I #
loop $-1 $-1 $299 $73 #
coedge $-1 $187 $187 $188 $300 reversed $114 $-1 #
coedge $-1 $188 $188 $187 $300 forward $116 $-1 #
coedge $-1 $189 $189 $117 $190 forward $184 $-1 #
edge $-1 $301 8.7245977684942397e-016 $301 6.2831853071796013 $189 $302 forward 7 unknown #
loop $-1 $-1 $196 $118 #
plane-surface $-1 -20.333314460413135 -17.703833355521134 33.232673875613784 0 0.57357644374324357 0.81915203911291934 1 0 0 forward_v I I I I #
loop $-1 $-1 $303 $76 #
coedge $-1 $194 $194 $195 $304 reversed $119 $-1 #
coedge $-1 $195 $195 $194 $304 forward $121 $-1 #
coedge $-1 $196 $196 $122 $197 forward $191 $-1 #
edge $-1 $305 8.7245977684942397e-016 $305 6.2831853071796013 $196 $306 forward 7 unknown #
face $-1 $307 $308 $41 $-1 $309 forward single #
loop $-1 $-1 $310 $123 #
plane-surface $-1 27.445975014193401 36.018785404382555 109.95652330092321 -1 0 0 0 0.57357644374324357 0.81915203911291934 forward_v I I I I #
coedge $-1 $311 $312 $313 $314 reversed $124 $-1 #
coedge $-1 $203 $126 $315 $316 reversed $80 $-1 #
coedge $-1 $126 $202 $311 $317 reversed $80 $-1 #
coedge $-1 $313 $318 $126 $205 forward $308 $-1 #
edge $-1 $319 -9.7263432259400346 $320 -3.6256156257255299 $204 $321 forward 7 unknown #
loop $-1 $-1 $211 $127 #
plane-surface $-1 22.378428202916957 -17.703833355521134 33.232673875613784 0 0.57357644374324357 0.81915203911291934 1 0 0 forward_v I I I I #
loop $-1 $-1 $322 $82 #
coedge $-1 $209 $209 $210 $323 reversed $128 $-1 #
coedge $-1 $210 $210 $209 $323 forward $130 $-1 #
coedge $-1 $211 $211 $131 $212 forward $206 $-1 #
edge $-1 $324 8.7245977684942397e-016 $324 6.2831853071796013 $211 $325 forward 7 unknown #
loop $-1 $-1 $218 $132 #
plane-surface $-1 22.378428202916957 -17.703833355521134 33.232673875613784 0 0.57357644374324357 0.81915203911291934 1 0 0 forward_v I I I I #
loop $-1 $-1 $326 $85 #
coedge $-1 $216 $216 $217 $327 reversed $133 $-1 #
coedge $-1 $217 $217 $216 $327 forward $135 $-1 #
coedge $-1 $218 $218 $136 $219 forward $213 $-1 #
edge $-1 $328 8.7245977684942397e-016 $328 6.2831853071796013 $218 $329 forward 7 unknown #
face $-1 $330 $331 $33 $-1 $332 reversed single #
loop $-1 $-1 $333 $137 #
plane-surface $-1 0 -27.735735928131312 0 0 1 0 0 0 1 forward_v I I I I #
coedge $-1 $334 $335 $142 $228 forward $138 $-1 #
coedge $-1 $336 $140 $230 $337 forward $89 $-1 #
coedge $-1 $140 $336 $338 $339 forward $89 $-1 #
edge $-1 $340 -27.735735928131312 $232 27.735735928131312 $141 $341 forward 7 unknown #
coedge $-1 $142 $141 $342 $343 forward $56 $-1 #
edge $-1 $233 -27.735735928131312 $344 27.735735928131312 $142 $345 forward 7 unknown #
coedge $-1 $346 $143 $335 $347 reversed $231 $-1 #
coedge $-1 $143 $346 $224 $337 reversed $231 $-1 #
loop $-1 $-1 $143 $330 #
vertex $-1 $226 $348 #
vertex $-1 $228 $349 #
straight-curve $-1 46.831263161107209 27.735735928131312 0 0 0 -1 I I #
face $-1 $350 $351 $34 $-1 $352 reversed single #
loop $-1 $-1 $353 $145 #
plane-surface $-1 -48.891023409995768 0 -5.1873198553762716 0 0 1 1 0 0 forward_v I I I I #
coedge $-1 $354 $148 $355 $356 reversed $93 $-1 #
coedge $-1 $148 $354 $244 $357 reversed $93 $-1 #
edge $-1 $246 2.1873198553762716 $358 5.1873198553762716 $148 $359 forward 7 unknown #
coedge $-1 $150 $149 $353 $360 forward $59 $-1 #
coedge $-1 $361 $362 $149 $243 forward $363 $-1 #
edge $-1 $364 -5.1873198553762716 $247 -2.1873198553762716 $242 $365 forward 7 unknown #
coedge $-1 $366 $151 $239 $357 forward $146 $-1 #
coedge $-1 $151 $366 $361 $367 forward $146 $-1 #
vertex $-1 $240 $368 #
vertex $-1 $367 $369 #
straight-curve $-1 -46.831263161107209 0 -2.1873198553762716 0 -1 0 I I #
face $-1 $370 $371 $35 $-1 $372 reversed single #
loop $-1 $-1 $373 $153 #
plane-surface $-1 48.891023409995775 0 -5.1873198553762716 0 0 1 1 0 0 forward_v I I I I #
coedge $-1 $260 $259 $374 $375 forward $154 $-1 #
coedge $-1 $376 $156 $377 $378 reversed $97 $-1 #
coedge $-1 $156 $376 $259 $379 reversed $97 $-1 #
edge $-1 $261 2.1873198553762716 $380 5.1873198553762716 $156 $381 forward 7 unknown #
coedge $-1 $158 $157 $382 $383 forward $62 $-1 #
coedge $-1 $384 $385 $157 $258 forward $386 $-1 #
edge $-1 $387 -5.1873198553762716 $262 -2.1873198553762716 $257 $388 forward 7 unknown #
coedge $-1 $252 $159 $254 $379 forward $154 $-1 #
coedge $-1 $159 $252 $384 $389 forward $154 $-1 #
vertex $-1 $255 $390 #
vertex $-1 $389 $391 #
straight-curve $-1 46.831263161107209 0 -2.1873198553762716 0 1 0 I I #
face $-1 $-1 $392 $36 $-1 $393 reversed single #
loop $-1 $-1 $167 $161 #
plane-surface $-1 0 0 5.6873198553762716 0 0 1 1 0 0 forward_v I I I I #
coedge $-1 $394 $395 $396 $397 reversed $162 $-1 #
coedge $-1 $398 $164 $166 $274 forward $101 $-1 #
coedge $-1 $164 $398 $394 $399 forward $101 $-1 #
coedge $-1 $396 $167 $164 $271 forward $265 $-1 #
edge $-1 $277 2.3192208267665695 $400 19.622123578363489 $270 $401 forward 7 unknown #
coedge $-1 $402 $403 $165 $273 forward $392 $-1 #
edge $-1 $404 -33.95902990019237 $276 -29.958471343242095 $272 $405 forward 7 unknown #
edge $-1 $277 -5.9787408778168123 $404 -9.5890899667747578e-015 $166 $406 forward 7 unknown #
coedge $-1 $167 $396 $402 $407 forward $265 $-1 #
vertex $-1 $273 $408 #
vertex $-1 $168 $409 #
straight-curve $-1 -13.2898930293316 -45.20409985648557 5.6873198553762734 0 1 0 I I #
coedge $-1 $279 $279 $-1 $410 reversed $171 $-1 #
edge $-1 $411 0 $411 6.2831853071796004 $172 $412 forward 7 unknown #
vertex $-1 $175 $413 #
ellipse-curve $-1 -21.94134440513006 -25.514200776682564 3.6870405769011367 0 -0.66913061440640931 0.74314481823134659 1 0 0 1 I I #
face $-1 $-1 $295 $38 $-1 $414 forward single #
loop $-1 $-1 $415 $176 #
plane-surface $-1 0 27.735735928131312 0 0 -1 0 0 0 -1 forward_v I I I I #
coedge $-1 $416 $417 $418 $419 reversed $177 $-1 #
coedge $-1 $420 $179 $181 $293 forward $110 $-1 #
coedge $-1 $179 $420 $416 $421 forward $110 $-1 #
coedge $-1 $418 $182 $179 $290 forward $295 $-1 #
edge $-1 $297 -15.234204041483011 $422 -5.099110418930124 $289 $423 forward 7 unknown #
coedge $-1 $424 $425 $180 $292 forward $284 $-1 #
edge $-1 $426 -53.562717331366358 $296 -49.290941795085331 $291 $427 forward 7 unknown #
edge $-1 $297 48.023858581904982 $426 55.471471856262625 $181 $428 forward 7 unknown #
coedge $-1 $182 $418 $424 $429 forward $295 $-1 #
loop $-1 $-1 $418 $283 #
vertex $-1 $292 $430 #
vertex $-1 $183 $431 #
straight-curve $-1 -25.400861271689578 18.009392702191278 5.6873198553762734 0 -1 0 I I #
coedge $-1 $299 $299 $-1 $432 reversed $186 $-1 #
edge $-1 $433 0 $433 6.2831853071796004 $187 $434 forward 7 unknown #
vertex $-1 $190 $435 #
ellipse-curve $-1 -22.505120236674468 24.685372128024063 3.5514320872357601 0 0.57357644374324357 0.81915203911291934 1 0 0 1 I I #
coedge $-1 $303 $303 $-1 $436 reversed $193 $-1 #
edge $-1 $437 0 $437 6.2831853071796004 $194 $438 forward 7 unknown #
vertex $-1 $197 $439 #
ellipse-curve $-1 -18.161508684151801 24.685372128024063 3.5514320872357601 0 0.57357644374324357 0.81915203911291934 1 0 0 1 I I #
face $-1 $-1 $440 $41 $-1 $441 reversed single #
loop $-1 $-1 $204 $198 #
plane-surface $-1 0 0 5.6873198553762716 0 0 1 1 0 0 forward_v I I I I #
coedge $-1 $442 $443 $444 $445 reversed $199 $-1 #
coedge $-1 $446 $201 $203 $317 forward $124 $-1 #
coedge $-1 $201 $446 $442 $447 forward $124 $-1 #
coedge $-1 $444 $204 $201 $314 forward $308 $-1 #
edge $-1 $320 6.1216672901820353 $448 16.256760912734922 $313 $449 forward 7 unknown #
coedge $-1 $450 $451 $202 $316 forward $440 $-1 #
edge $-1 $452 -53.562717331366358 $319 -49.290941795085331 $315 $453 forward 7 unknown #
edge $-1 $320 48.023858581904982 $452 55.471471856262625 $203 $454 forward 7 unknown #
coedge $-1 $204 $444 $450 $455 forward $308 $-1 #
vertex $-1 $205 $456 #
vertex $-1 $205 $457 #
straight-curve $-1 17.310881391640514 18.009392702191278 5.6873198553762734 0 -1 0 I I #
coedge $-1 $322 $322 $-1 $458 reversed $208 $-1 #
edge $-1 $459 0 $459 6.2831853071796004 $209 $460 forward 7 unknown #
vertex $-1 $212 $461 #
ellipse-curve $-1 20.20662242665562 24.685372128024063 3.5514320872357601 0 0.57357644374324357 0.81915203911291934 1 0 0 1 I I #
coedge $-1 $326 $326 $-1 $462 reversed $215 $-1 #
edge $-1 $463 0 $463 6.2831853071796004 $216 $464 forward 7 unknown #
vertex $-1 $219 $465 #
ellipse-curve $-1 24.550233979178294 24.685372128024063 3.5514320872357601 0 0.57357644374324357 0.81915203911291934 1 0 0 1 I I #
face $-1 $-1 $231 $33 $-1 $466 reversed single #
loop $-1 $-1 $467 $220 #
plane-surface $-1 -46.831263161107209 0 0 1 0 0 0 0 -1 forward_v I I I I #
coedge $-1 $468 $338 $467 $469 forward $221 $-1 #
coedge $-1 $470 $223 $468 $471 forward $138 $-1 #
coedge $-1 $223 $470 $229 $347 forward $138 $-1 #
coedge $-1 $225 $224 $472 $473 forward $89 $-1 #
edge $-1 $232 -46.831263161107209 $474 46.831263161107209 $230 $475 forward 7 unknown #
coedge $-1 $333 $342 $225 $339 reversed $221 $-1 #
edge $-1 $476 -46.831263161107209 $340 46.831263161107209 $338 $477 forward 7 unknown #
vertex $-1 $226 $478 #
straight-curve $-1 46.831263161107209 0 5.6873198553762716 0 1 0 I I #
coedge $-1 $338 $468 $227 $343 reversed $221 $-1 #
edge $-1 $340 -5.6873198553762716 $344 5.6873198553762716 $227 $479 forward 7 unknown #
vertex $-1 $343 $480 #
straight-curve $-1 46.831263161107209 0 -5.6873198553762716 0 -1 0 I I #
coedge $-1 $230 $229 $481 $482 reversed $231 $-1 #
edge $-1 $483 -46.831263161107209 $233 46.831263161107209 $229 $484 forward 7 unknown #
point $-1 46.831263161107209 27.735735928131312 5.6873198553762716 #
point $-1 46.831263161107209 27.735735928131312 -5.6873198553762716 #
face $-1 $-1 $363 $34 $-1 $485 reversed single #
loop $-1 $-1 $486 $235 #
plane-surface $-1 -50.950783658884326 0 -3.6873198553762716 1 0 0 0 0 -1 forward_v I I I I #
coedge $-1 $487 $355 $241 $360 reversed $236 $-1 #
coedge $-1 $239 $238 $486 $488 reversed $93 $-1 #
coedge $-1 $353 $489 $238 $356 forward $236 $-1 #
edge $-1 $490 -2.0597602488885585 $358 2.0597602488885585 $238 $491 forward 7 unknown #
edge $-1 $246 -2.0597602488885585 $492 2.0597602488885585 $239 $493 forward 7 unknown #
vertex $-1 $240 $494 #
straight-curve $-1 -46.831263161107209 27.735735928131312 0 0 0 -1 I I #
edge $-1 $364 -27.735735928131312 $358 27.735735928131312 $353 $495 forward 7 unknown #
coedge $-1 $496 $242 $245 $367 reversed $363 $-1 #
coedge $-1 $242 $496 $487 $497 reversed $363 $-1 #
loop $-1 $-1 $242 $350 #
vertex $-1 $243 $498 #
straight-curve $-1 -46.831263161107209 -27.735735928131312 0 0 0 1 I I #
coedge $-1 $245 $244 $499 $500 forward $146 $-1 #
edge $-1 $501 -2.0597602488885585 $247 2.0597602488885585 $361 $502 forward 7 unknown #
point $-1 -46.831263161107209 27.735735928131312 -2.1873198553762716 #
point $-1 -46.831263161107209 -27.735735928131312 -2.1873198553762716 #
face $-1 $-1 $386 $35 $-1 $503 reversed single #
loop $-1 $-1 $504 $249 #
plane-surface $-1 50.950783658884333 0 -3.6873198553762716 -1 0 0 0 0 1 forward_v I I I I #
coedge $-1 $377 $505 $506 $507 forward $250 $-1 #
coedge $-1 $504 $508 $252 $375 reversed $371 $-1 #
edge $-1 $509 -27.735735928131312 $510 27.735735928131312 $374 $511 forward 7 unknown #
coedge $-1 $254 $253 $504 $512 reversed $97 $-1 #
coedge $-1 $382 $373 $253 $378 forward $250 $-1 #
edge $-1 $513 -2.0597602488885585 $380 2.0597602488885585 $253 $514 forward 7 unknown #
edge $-1 $261 -2.0597602488885585 $509 2.0597602488885585 $254 $515 forward 7 unknown #
vertex $-1 $255 $516 #
straight-curve $-1 46.831263161107209 -27.735735928131312 0 0 0 -1 I I #
coedge $-1 $505 $377 $256 $383 reversed $250 $-1 #
edge $-1 $387 -27.735735928131312 $380 27.735735928131312 $382 $517 forward 7 unknown #
coedge $-1 $518 $257 $260 $389 reversed $386 $-1 #
coedge $-1 $257 $518 $505 $519 reversed $386 $-1 #
loop $-1 $-1 $257 $370 #
vertex $-1 $258 $520 #
straight-curve $-1 46.831263161107209 27.735735928131312 0 0 0 1 I I #
edge $-1 $510 -2.0597602488885585 $262 2.0597602488885585 $384 $521 forward 7 unknown #
point $-1 46.831263161107216 -27.735735928131312 -2.1873198553762716 #
point $-1 46.831263161107216 27.735735928131312 -2.1873198553762716 #
loop $-1 $-1 $272 $264 #
plane-surface $-1 0 -27.735735928131312 0 0 1 0 0 0 1 forward_v I I I I #
coedge $-1 $395 $267 $269 $399 reversed $162 $-1 #
coedge $-1 $267 $394 $522 $523 reversed $162 $-1 #
coedge $-1 $275 $270 $267 $397 forward $265 $-1 #
edge $-1 $400 -21.911434231251746 $524 -17.468363928354258 $396 $525 forward 7 unknown #
coedge $-1 $269 $268 $403 $526 reversed $101 $-1 #
edge $-1 $527 9.5890899667747578e-015 $400 5.9787408778168123 $394 $528 forward 7 unknown #
vertex $-1 $271 $529 #
straight-curve $-1 -10.97067220256503 -23.292665625233823 5.6873198553762707 -1 0 0 I I #
coedge $-1 $522 $272 $275 $407 reversed $392 $-1 #
coedge $-1 $272 $522 $398 $526 forward $392 $-1 #
vertex $-1 $273 $530 #
straight-curve $-1 -13.2898930293316 -27.735735928131312 35.645791198618369 0 0 1 I I #
straight-curve $-1 -13.2898930293316 -27.735735928131319 1.6867612984259921 0 -0.74314481823134659 -0.66913061440640931 I I #
edge $-1 $524 -30.592795780928519 $276 -13.2898930293316 $402 $531 forward 7 unknown #
point $-1 -13.2898930293316 -27.735735928131312 5.6873198553762716 #
point $-1 -13.2898930293316 -23.292665625233823 5.6873198553762716 #
edge $-1 $532 1 $532 0 $279 $-1 forward 7 unknown #
vertex $-1 $280 $533 #
ellipse-curve $-1 -21.94134440513006 -24.707596872192099 2.7912162055726526 0 -0.66913061440640931 0.74314481823134659 1 0 0 1 I I #
point $-1 -20.94134440513006 -25.514200776682554 3.6870405769011216 #
plane-surface $-1 0 0 5.6873198553762716 0 0 1 1 0 0 forward_v I I I I #
coedge $-1 $425 $424 $417 $534 forward $284 $-1 #
coedge $-1 $417 $286 $288 $421 reversed $177 $-1 #
coedge $-1 $286 $416 $415 $534 reversed $177 $-1 #
coedge $-1 $294 $289 $286 $419 forward $295 $-1 #
edge $-1 $422 3.6256156257255299 $535 9.7263432259400346 $418 $536 forward 7 unknown #
coedge $-1 $288 $287 $425 $537 reversed $110 $-1 #
edge $-1 $538 -55.471471856262625 $422 -48.023858581904982 $416 $539 forward 7 unknown #
vertex $-1 $290 $540 #
straight-curve $-1 -10.166657230206567 21.6350083279168 5.6873198553762769 1 0 0 I I #
coedge $-1 $415 $291 $294 $429 reversed $284 $-1 #
coedge $-1 $291 $415 $420 $537 forward $284 $-1 #
vertex $-1 $292 $541 #
straight-curve $-1 -25.400861271689578 27.735735928131312 54.978261650461604 0 0 1 I I #
straight-curve $-1 -25.400861271689578 -17.703833355521134 33.232673875613784 0 0.81915203911291934 -0.57357644374324357 I I #
edge $-1 $535 15.265767649136691 $296 25.400861271689578 $424 $542 forward 7 unknown #
point $-1 -25.400861271689578 27.735735928131312 5.6873198553762716 #
point $-1 -25.400861271689578 21.635008327916808 5.6873198553762734 #
edge $-1 $543 1 $543 0 $299 $-1 forward 7 unknown #
vertex $-1 $300 $544 #
ellipse-curve $-1 -22.505120236674468 22.930176046169304 1.0447523496384121 0 0.57357644374324357 0.81915203911291934 1 0 0 1 I I #
point $-1 -21.505120236674468 24.685372128024067 3.5514320872357636 #
edge $-1 $545 1 $545 0 $303 $-1 forward 7 unknown #
vertex $-1 $304 $546 #
ellipse-curve $-1 -18.161508684151801 22.930176046169304 1.0447523496384121 0 0.57357644374324357 0.81915203911291934 1 0 0 1 I I #
point $-1 -17.161508684151801 24.685372128024067 3.5514320872357636 #
loop $-1 $-1 $315 $307 #
plane-surface $-1 0 27.735735928131312 0 0 -1 0 0 0 -1 forward_v I I I I #
coedge $-1 $443 $310 $312 $447 reversed $199 $-1 #
coedge $-1 $310 $442 $547 $548 reversed $199 $-1 #
coedge $-1 $318 $313 $310 $445 forward $308 $-1 #
edge $-1 $448 3.6256156257255299 $549 9.7263432259400346 $444 $550 forward 7 unknown #
coedge $-1 $312 $311 $451 $551 reversed $124 $-1 #
edge $-1 $552 -55.471471856262625 $448 -48.023858581904982 $442 $553 forward 7 unknown #
vertex $-1 $314 $554 #
straight-curve $-1 11.189214101458479 21.6350083279168 5.6873198553762769 1 0 0 I I #
coedge $-1 $547 $315 $318 $455 reversed $440 $-1 #
coedge $-1 $315 $547 $446 $551 forward $440 $-1 #
vertex $-1 $316 $555 #
straight-curve $-1 17.310881391640514 27.735735928131312 54.978261650461604 0 0 1 I I #
straight-curve $-1 17.310881391640514 -17.703833355521134 33.232673875613784 0 0.81915203911291934 -0.57357644374324357 I I #
edge $-1 $549 -27.445975014193401 $319 -17.310881391640514 $450 $556 forward 7 unknown #
point $-1 17.310881391640514 27.735735928131312 5.6873198553762716 #
point $-1 17.310881391640514 21.635008327916808 5.6873198553762734 #
edge $-1 $557 1 $557 0 $322 $-1 forward 7 unknown #
vertex $-1 $323 $558 #
ellipse-curve $-1 20.20662242665562 22.930176046169304 1.0447523496384121 0 0.57357644374324357 0.81915203911291934 1 0 0 1 I I #
point $-1 21.20662242665562 24.685372128024067 3.5514320872357636 #
edge $-1 $559 1 $559 0 $326 $-1 forward 7 unknown #
vertex $-1 $327 $560 #
ellipse-curve $-1 24.550233979178294 22.930176046169304 1.0447523496384121 0 0.57357644374324357 0.81915203911291934 1 0 0 1 I I #
point $-1 25.550233979178294 24.685372128024067 3.5514320872357636 #
plane-surface $-1 0 27.735735928131312 0 0 -1 0 0 0 -1 forward_v I I I I #
coedge $-1 $472 $561 $333 $469 reversed $331 $-1 #
coedge $-1 $342 $333 $334 $471 reversed $221 $-1 #
edge $-1 $476 -5.6873198553762716 $562 5.6873198553762716 $467 $563 forward 7 unknown #
coedge $-1 $335 $334 $561 $564 forward $138 $-1 #
edge $-1 $344 -46.831263161107209 $562 46.831263161107209 $468 $565 forward 7 unknown #
coedge $-1 $481 $467 $336 $473 reversed $331 $-1 #
edge $-1 $474 -27.735735928131312 $476 27.735735928131312 $472 $566 forward 7 unknown #
vertex $-1 $337 $567 #
straight-curve $-1 0 27.735735928131312 5.6873198553762716 -1 0 0 I I #
vertex $-1 $473 $568 #
straight-curve $-1 0 -27.735735928131312 5.6873198553762716 1 0 0 I I #
point $-1 46.831263161107209 -27.735735928131312 5.6873198553762716 #
straight-curve $-1 46.831263161107209 -27.735735928131312 0 0 0 -1 I I #
point $-1 46.831263161107209 -27.735735928131312 -5.6873198553762716 #
coedge $-1 $561 $472 $346 $482 forward $331 $-1 #
edge $-1 $474 -5.6873198553762716 $483 5.6873198553762716 $346 $569 forward 7 unknown #
vertex $-1 $347 $570 #
straight-curve $-1 0 27.735735928131312 -5.6873198553762716 1 0 0 I I #
plane-surface $-1 0 -27.735735928131312 0 0 1 0 0 0 1 forward_v I I I I #
coedge $-1 $571 $499 $354 $488 forward $351 $-1 #
coedge $-1 $489 $353 $362 $497 forward $236 $-1 #
edge $-1 $492 -1.5 $490 1.5 $354 $572 forward 7 unknown #
coedge $-1 $355 $487 $571 $573 forward $236 $-1 #
vertex $-1 $356 $574 #
straight-curve $-1 -48.891023409995768 27.735735928131312 -5.1873198553762716 1 0 0 I I #
vertex $-1 $357 $575 #
straight-curve $-1 -48.891023409995768 27.735735928131312 -2.1873198553762716 -1 0 0 I I #
point $-1 -46.831263161107209 27.735735928131312 -5.1873198553762716 #
straight-curve $-1 -46.831263161107209 0 -5.1873198553762716 0 1 0 I I #
coedge $-1 $362 $361 $576 $577 forward $363 $-1 #
edge $-1 $364 -2.0597602488885585 $578 2.0597602488885585 $362 $579 forward 7 unknown #
point $-1 -46.831263161107209 -27.735735928131312 -5.1873198553762716 #
coedge $-1 $486 $576 $366 $500 reversed $351 $-1 #
edge $-1 $492 -27.735735928131312 $501 27.735735928131312 $499 $580 forward 7 unknown #
vertex $-1 $500 $581 #
straight-curve $-1 -48.891023409995768 -27.735735928131312 -2.1873198553762716 1 0 0 I I #
plane-surface $-1 0 27.735735928131312 0 0 -1 0 0 0 -1 forward_v I I I I #
coedge $-1 $506 $374 $376 $512 forward $371 $-1 #
coedge $-1 $373 $382 $385 $519 forward $250 $-1 #
coedge $-1 $508 $504 $373 $507 reversed $371 $-1 #
edge $-1 $582 -27.735735928131312 $513 27.735735928131312 $506 $583 forward 7 unknown #
coedge $-1 $374 $506 $518 $584 reversed $371 $-1 #
vertex $-1 $375 $585 #
vertex $-1 $375 $586 #
straight-curve $-1 50.950783658884333 0 -2.1873198553762716 0 1 0 I I #
edge $-1 $509 -1.5 $513 1.5 $504 $587 forward 7 unknown #
vertex $-1 $512 $588 #
straight-curve $-1 48.891023409995775 -27.735735928131312 -5.1873198553762716 -1 0 0 I I #
straight-curve $-1 48.891023409995775 -27.735735928131312 -2.1873198553762716 1 0 0 I I #
point $-1 46.831263161107216 -27.735735928131312 -5.1873198553762716 #
straight-curve $-1 46.831263161107209 0 -5.1873198553762716 0 -1 0 I I #
coedge $-1 $385 $384 $508 $584 forward $386 $-1 #
edge $-1 $387 -2.0597602488885585 $582 2.0597602488885585 $385 $589 forward 7 unknown #
point $-1 46.831263161107216 27.735735928131312 -5.1873198553762716 #
straight-curve $-1 48.891023409995775 27.735735928131312 -2.1873198553762716 -1 0 0 I I #
coedge $-1 $403 $402 $395 $523 forward $392 $-1 #
edge $-1 $524 29.958471343242095 $527 33.95902990019237 $522 $590 forward 7 unknown #
vertex $-1 $407 $591 #
straight-curve $-1 -30.592795780928519 -45.20409985648557 5.6873198553762734 0 -1 0 I I #
edge $-1 $527 -19.622123578363489 $404 -2.3192208267665695 $403 $592 forward 7 unknown #
vertex $-1 $526 $593 #
straight-curve $-1 -30.592795780928519 -27.735735928131319 1.6867612984259921 0 0.74314481823134659 0.66913061440640931 I I #
point $-1 -30.592795780928519 -23.292665625233823 5.6873198553762716 #
point $-1 -13.2898930293316 -27.735735928131312 1.6867612984259985 #
straight-curve $-1 0 -27.735735928131312 5.6873198553762716 1 0 0 I I #
vertex $-1 $410 $594 #
point $-1 -20.94134440513006 -24.707596872192099 2.7912162055726526 #
edge $-1 $535 49.290941795085331 $538 53.562717331366358 $415 $595 forward 7 unknown #
vertex $-1 $429 $596 #
straight-curve $-1 -15.265767649136691 18.009392702191278 5.6873198553762734 0 1 0 I I #
edge $-1 $538 5.099110418930124 $426 15.234204041483011 $425 $597 forward 7 unknown #
vertex $-1 $537 $598 #
straight-curve $-1 -15.265767649136691 -17.703833355521134 33.232673875613784 0 -0.81915203911291934 0.57357644374324357 I I #
point $-1 -15.265767649136691 21.635008327916808 5.6873198553762734 #
point $-1 -25.400861271689578 27.735735928131312 1.4155443190952468 #
straight-curve $-1 0 27.735735928131312 5.6873198553762716 -1 0 0 I I #
vertex $-1 $432 $599 #
point $-1 -21.505120236674468 22.930176046169304 1.0447523496384121 #
vertex $-1 $436 $600 #
point $-1 -17.161508684151801 22.930176046169304 1.0447523496384121 #
coedge $-1 $451 $450 $443 $548 forward $440 $-1 #
edge $-1 $549 49.290941795085331 $552 53.562717331366358 $547 $601 forward 7 unknown #
vertex $-1 $455 $602 #
straight-curve $-1 27.445975014193401 18.009392702191278 5.6873198553762734 0 1 0 I I #
edge $-1 $552 -16.256760912734922 $452 -6.1216672901820353 $451 $603 forward 7 unknown #
vertex $-1 $551 $604 #
straight-curve $-1 27.445975014193401 -17.703833355521134 33.232673875613784 0 -0.81915203911291934 0.57357644374324357 I I #
point $-1 27.445975014193401 21.635008327916808 5.6873198553762734 #
point $-1 17.310881391640514 27.735735928131312 1.4155443190952468 #
straight-curve $-1 0 27.735735928131312 5.6873198553762716 -1 0 0 I I #
vertex $-1 $458 $605 #
point $-1 21.20662242665562 22.930176046169304 1.0447523496384121 #
vertex $-1 $462 $606 #
point $-1 25.550233979178294 22.930176046169304 1.0447523496384121 #
coedge $-1 $467 $481 $470 $564 reversed $331 $-1 #
vertex $-1 $564 $607 #
straight-curve $-1 -46.831263161107209 -27.735735928131312 0 0 0 -1 I I #
edge $-1 $562 -27.735735928131312 $483 27.735735928131312 $561 $608 forward 7 unknown #
straight-curve $-1 0 -27.735735928131312 -5.6873198553762716 -1 0 0 I I #
straight-curve $-1 -46.831263161107209 0 5.6873198553762716 0 -1 0 I I #
point $-1 -46.831263161107209 27.735735928131312 5.6873198553762716 #
point $-1 -46.831263161107209 -27.735735928131312 5.6873198553762716 #
straight-curve $-1 -46.831263161107209 27.735735928131312 0 0 0 -1 I I #
point $-1 -46.831263161107209 27.735735928131312 -5.6873198553762716 #
coedge $-1 $576 $486 $489 $573 reversed $351 $-1 #
straight-curve $-1 -50.950783658884326 27.735735928131312 -3.6873198553762716 0 0 -1 I I #
edge $-1 $578 -27.735735928131312 $490 27.735735928131312 $571 $609 forward 7 unknown #
point $-1 -50.950783658884326 27.735735928131312 -5.1873198553762716 #
point $-1 -50.950783658884326 27.735735928131312 -2.1873198553762716 #
coedge $-1 $499 $571 $496 $577 reversed $351 $-1 #
edge $-1 $501 -1.5 $578 1.5 $576 $610 forward 7 unknown #
vertex $-1 $573 $611 #
straight-curve $-1 -48.891023409995768 -27.735735928131312 -5.1873198553762716 -1 0 0 I I #
straight-curve $-1 -50.950783658884326 0 -2.1873198553762716 0 -1 0 I I #
point $-1 -50.950783658884326 -27.735735928131312 -2.1873198553762716 #
vertex $-1 $507 $612 #
straight-curve $-1 50.950783658884333 0 -5.1873198553762716 0 -1 0 I I #
edge $-1 $510 -1.5 $582 1.5 $508 $613 forward 7 unknown #
point $-1 50.950783658884333 -27.735735928131312 -2.1873198553762716 #
point $-1 50.950783658884333 27.735735928131312 -2.1873198553762716 #
straight-curve $-1 50.950783658884333 -27.735735928131312 -3.6873198553762716 0 0 -1 I I #
point $-1 50.950783658884333 -27.735735928131312 -5.1873198553762716 #
straight-curve $-1 48.891023409995775 27.735735928131312 -5.1873198553762716 1 0 0 I I #
straight-curve $-1 -30.592795780928519 -27.735735928131312 35.645791198618369 0 0 -1 I I #
point $-1 -30.592795780928519 -27.735735928131312 5.6873198553762716 #
straight-curve $-1 -10.97067220256503 -27.735735928131312 1.6867612984259992 1 0 0 I I #
point $-1 -30.592795780928519 -27.735735928131312 1.6867612984259985 #
point $-1 -21.94134440513006 -24.038466257785686 2.0480713873413059 #
straight-curve $-1 -15.265767649136691 27.735735928131312 54.978261650461604 0 0 -1 I I #
point $-1 -15.265767649136691 27.735735928131312 5.6873198553762716 #
straight-curve $-1 -10.166657230206567 27.735735928131312 1.4155443190952433 -1 0 0 I I #
point $-1 -15.265767649136691 27.735735928131312 1.4155443190952468 #
point $-1 -22.505120236674468 22.356599602426062 0.22560031052549273 #
point $-1 -18.161508684151801 22.356599602426062 0.22560031052549273 #
straight-curve $-1 27.445975014193401 27.735735928131312 54.978261650461604 0 0 -1 I I #
point $-1 27.445975014193401 27.735735928131312 5.6873198553762716 #
straight-curve $-1 11.189214101458479 27.735735928131312 1.4155443190952433 -1 0 0 I I #
point $-1 27.445975014193401 27.735735928131312 1.4155443190952468 #
point $-1 20.20662242665562 22.356599602426062 0.22560031052549273 #
point $-1 24.550233979178294 22.356599602426062 0.22560031052549273 #
point $-1 -46.831263161107209 -27.735735928131312 -5.6873198553762716 #
straight-curve $-1 -46.831263161107209 0 -5.6873198553762716 0 1 0 I I #
straight-curve $-1 -50.950783658884326 0 -5.1873198553762716 0 1 0 I I #
straight-curve $-1 -50.950783658884326 -27.735735928131312 -3.6873198553762716 0 0 -1 I I #
point $-1 -50.950783658884326 -27.735735928131312 -5.1873198553762716 #
point $-1 50.950783658884333 27.735735928131312 -5.1873198553762716 #
straight-curve $-1 50.950783658884333 27.735735928131312 -3.6873198553762716 0 0 -1 I I #
End-of-ACIS-data 