500 0 8 0           
7 Unknown 11 ACIS 5.0 NT 24 Thu Mar 25 21:52:48 1999 
-1 9.9999999999999995e-007 1e-010 
body $-1 $8 $-1 $9 #
body $-1 $10 $-1 $11 #
body $-1 $12 $-1 $13 #
body $-1 $14 $-1 $15 #
body $-1 $16 $-1 $17 #
body $-1 $18 $-1 $19 #
body $-1 $20 $-1 $21 #
body $-1 $22 $-1 $23 #
lump $-1 $-1 $24 $0 #
transform $-1 1 0 0 0 1 0 0 0 1 44.745017853328044 30.064659125577467 6.4701363187302663 1 rotate no_reflect no_shear #
lump $-1 $-1 $25 $1 #
transform $-1 1 0 0 0 1 0 0 0 1 44.745017853328044 30.064659125577467 6.4701363187302663 1 rotate no_reflect no_shear #
lump $-1 $-1 $26 $2 #
transform $-1 1 0 0 0 1 0 0 0 1 44.745017853328044 30.064659125577467 6.4701363187302663 1 rotate no_reflect no_shear #
lump $-1 $-1 $27 $3 #
transform $-1 1 0 0 0 1 0 0 0 1 44.745017853328044 30.064659125577467 6.4701363187302663 1 rotate no_reflect no_shear #
lump $-1 $-1 $28 $4 #
transform $-1 1 0 0 0 1 0 0 0 1 44.745017853328044 30.064659125577467 6.4701363187302663 1 rotate no_reflect no_shear #
lump $-1 $-1 $29 $5 #
transform $-1 1 0 0 0 1 0 0 0 1 44.745017853328044 30.064659125577467 6.4701363187302663 1 rotate no_reflect no_shear #
lump $-1 $-1 $30 $6 #
transform $-1 1 0 0 0 1 0 0 0 1 44.745017853328044 30.064659125577467 6.4701363187302663 1 rotate no_reflect no_shear #
lump $-1 $-1 $31 $7 #
transform $-1 1 0 0 0 1 0 0 0 1 44.745017853328044 30.064659125577467 6.4701363187302663 1 rotate no_reflect no_shear #
shell $-1 $-1 $-1 $32 $-1 $8 #
shell $-1 $-1 $-1 $33 $-1 $10 #
shell $-1 $-1 $-1 $34 $-1 $12 #
shell $-1 $-1 $-1 $35 $-1 $14 #
shell $-1 $-1 $-1 $36 $-1 $16 #
shell $-1 $-1 $-1 $37 $-1 $18 #
shell $-1 $-1 $-1 $38 $-1 $20 #
shell $-1 $-1 $-1 $39 $-1 $22 #
face $-1 $40 $41 $24 $-1 $42 forward single #
face $-1 $43 $44 $25 $-1 $45 reversed single #
face $-1 $46 $47 $26 $-1 $48 reversed single #
face $-1 $49 $50 $27 $-1 $51 forward single #
face $-1 $52 $53 $28 $-1 $54 reversed single #
face $-1 $55 $56 $29 $-1 $57 forward single #
face $-1 $58 $59 $30 $-1 $60 reversed single #
face $-1 $61 $62 $31 $-1 $63 forward single #
face $-1 $64 $65 $24 $-1 $66 reversed single #
loop $-1 $-1 $67 $32 #
plane-surface $-1 0 0 6.4701363187302663 0 0 1 1 0 0 forward_v I I I I #
face $-1 $68 $69 $25 $-1 $70 reversed single #
loop $-1 $-1 $71 $33 #
plane-surface $-1 0 -26.680760257037964 3.4701363187302663 0 0 1 1 0 0 forward_v I I I I #
face $-1 $72 $73 $26 $-1 $74 reversed single #
loop $-1 $-1 $75 $34 #
plane-surface $-1 73.214380225545966 -11.983066664690554 126.38109817149017 0 -1 0 -0.84804810408105047 0 -0.52991925155115449 forward_v I I I I #
face $-1 $76 $77 $27 $-1 $78 forward single #
loop $-1 $79 $80 $35 #
cone-surface $-1 43.257658032934486 -17.639964026594509 4.5034836902683848 -0.84804810408105047 0 -0.52991925155115449 0.13247981288778862 0 -0.21201202602026262 1 I I 0 1 0.25 forward I I I I #
face $-1 $81 $82 $28 $-1 $83 reversed single #
loop $-1 $-1 $84 $36 #
plane-surface $-1 -116.21493890002438 -14.228178096154483 56.096303592894657 0 1 0 -0.79863551827123203 0 0.60181501223851219 forward_v I I I I #
face $-1 $85 $86 $29 $-1 $87 forward single #
loop $-1 $88 $89 $37 #
cone-surface $-1 -41.801493852964811 -10.125004111874819 3.3379608921563895 0.79863551827123203 0 -0.60181501223851219 0.60181501223851219 0 0.79863551827123203 1 I I 0 1 1 forward I I I I #
face $-1 $90 $91 $30 $-1 $92 reversed single #
loop $-1 $-1 $93 $38 #
plane-surface $-1 -116.21493890002438 12.452582160883477 56.096303592894657 0 1 0 -0.79863551827123203 0 0.60181501223851219 forward_v I I I I #
face $-1 $94 $95 $31 $-1 $96 forward single #
loop $-1 $97 $98 $39 #
cone-surface $-1 -41.801493852964811 16.555756145163141 3.3379608921563895 0.79863551827123203 0 -0.60181501223851219 0.60181501223851219 0 0.79863551827123203 1 I I 0 1 1 forward I I I I #
face $-1 $99 $100 $24 $-1 $101 reversed single #
loop $-1 $-1 $102 $40 #
plane-surface $-1 0 0 -6.4701363187302663 0 0 1 1 0 0 forward_v I I I I #
coedge $-1 $103 $104 $105 $106 forward $41 $-1 #
face $-1 $107 $108 $25 $-1 $109 reversed single #
loop $-1 $-1 $110 $43 #
plane-surface $-1 0 -23.29686138849846 4.9701363187302663 0 -1 0 0 0 -1 forward_v I I I I #
coedge $-1 $111 $112 $113 $114 reversed $44 $-1 #
face $-1 $115 $116 $26 $-1 $117 forward single #
loop $-1 $-1 $118 $46 #
plane-surface $-1 -2.677474889629238 -17.639964026594509 78.958605428532877 0.84804810408105047 0 0.52991925155115449 0.52991925155115449 0 -0.84804810408105047 forward_v I I I I #
coedge $-1 $119 $120 $121 $122 reversed $47 $-1 #
face $-1 $-1 $123 $27 $-1 $124 forward single #
loop $-1 $125 $126 $49 #
cone-surface $-1 42.727627967883826 -17.639964026594509 4.1722841580489129 -0.84804810408105047 0 -0.52991925155115449 0.066239906443894311 0 -0.10600601301013131 1 I I -0.70710678118654746 0.70710678118654746 0.125 forward I I I I #
loop $-1 $-1 $127 $35 #
coedge $-1 $80 $80 $128 $129 reversed $50 $-1 #
face $-1 $130 $131 $28 $-1 $132 reversed single #
loop $-1 $-1 $133 $52 #
plane-surface $-1 -44.745017853328036 -10.125004111874819 2.2398566588685327 -0.79863551827123203 0 0.60181501223851219 0.60181501223851219 0 0.79863551827123203 forward_v I I I I #
coedge $-1 $134 $135 $136 $137 reversed $53 $-1 #
face $-1 $-1 $138 $29 $-1 $139 forward single #
loop $-1 $140 $141 $55 #
cone-surface $-1 -40.052524233527357 -10.125004111874819 2.0200177893941236 0.79863551827123203 0 -0.60181501223851219 0.3009075061192561 0 0.39931775913561601 1 I I -0.70710678118654746 0.70710678118654746 0.5 forward I I I I #
loop $-1 $-1 $142 $37 #
coedge $-1 $89 $89 $143 $144 reversed $56 $-1 #
face $-1 $145 $146 $30 $-1 $147 reversed single #
loop $-1 $-1 $148 $58 #
plane-surface $-1 -44.745017853328036 16.555756145163141 2.2398566588685327 -0.79863551827123203 0 0.60181501223851219 0.60181501223851219 0 0.79863551827123203 forward_v I I I I #
coedge $-1 $149 $150 $151 $152 reversed $59 $-1 #
face $-1 $-1 $153 $31 $-1 $154 forward single #
loop $-1 $155 $156 $61 #
cone-surface $-1 -40.052524233527357 16.555756145163141 2.0200177893941236 0.79863551827123203 0 -0.60181501223851219 0.3009075061192561 0 0.39931775913561601 1 I I -0.70710678118654746 0.70710678118654746 0.5 forward I I I I #
loop $-1 $-1 $157 $39 #
coedge $-1 $98 $98 $158 $159 reversed $62 $-1 #
face $-1 $160 $161 $24 $-1 $162 reversed single #
loop $-1 $-1 $163 $64 #
plane-surface $-1 0 -30.064659125577467 0 0 1 0 0 0 1 forward_v I I I I #
coedge $-1 $164 $165 $166 $167 forward $65 $-1 #
coedge $-1 $168 $67 $169 $170 forward $41 $-1 #
coedge $-1 $67 $168 $171 $172 forward $41 $-1 #
coedge $-1 $173 $174 $67 $106 reversed $175 $-1 #
edge $-1 $176 -30.064659125577467 $177 30.064659125577467 $105 $178 forward 7 unknown #
face $-1 $179 $180 $25 $-1 $181 reversed single #
loop $-1 $-1 $182 $68 #
plane-surface $-1 -44.745017853328044 0 0 1 0 0 0 0 -1 forward_v I I I I #
coedge $-1 $183 $184 $112 $185 reversed $69 $-1 #
coedge $-1 $186 $71 $187 $188 reversed $44 $-1 #
coedge $-1 $71 $186 $110 $185 forward $44 $-1 #
coedge $-1 $189 $190 $71 $114 forward $191 $-1 #
edge $-1 $192 -16.724278997058484 $193 -9.9564812599794781 $113 $194 forward 7 unknown #
face $-1 $195 $196 $26 $-1 $197 forward single #
loop $-1 $-1 $198 $72 #
plane-surface $-1 0 -23.29686138849846 4.9701363187302663 0 -1 0 0 0 -1 forward_v I I I I #
coedge $-1 $199 $200 $201 $202 reversed $73 $-1 #
coedge $-1 $120 $75 $203 $204 reversed $47 $-1 #
coedge $-1 $75 $119 $199 $205 reversed $47 $-1 #
coedge $-1 $201 $206 $75 $122 forward $196 $-1 #
edge $-1 $207 -8.1378277405550605 $208 -6.0111562038489907 $121 $209 forward 7 unknown #
loop $-1 $-1 $128 $76 #
plane-surface $-1 -2.677474889629238 -17.639964026594509 78.958605428532877 0.84804810408105047 0 0.52991925155115449 0.52991925155115449 0 -0.84804810408105047 forward_v I I I I #
loop $-1 $-1 $210 $49 #
coedge $-1 $126 $126 $127 $211 reversed $77 $-1 #
coedge $-1 $127 $127 $126 $211 forward $79 $-1 #
coedge $-1 $128 $128 $80 $129 forward $123 $-1 #
edge $-1 $212 0 $212 6.2831853071796004 $128 $213 forward 7 unknown #
face $-1 $214 $215 $28 $-1 $216 forward single #
loop $-1 $-1 $217 $81 #
plane-surface $-1 -116.21493890002438 -6.0218301275951562 56.096303592894657 0 -1 0 0.79863551827123203 0 -0.60181501223851219 forward_v I I I I #
coedge $-1 $218 $219 $220 $221 reversed $82 $-1 #
coedge $-1 $135 $84 $222 $223 reversed $53 $-1 #
coedge $-1 $84 $134 $218 $224 reversed $53 $-1 #
coedge $-1 $220 $225 $84 $137 forward $215 $-1 #
edge $-1 $226 13.362451596684146 $227 16.550195876806939 $136 $228 forward 7 unknown #
loop $-1 $-1 $143 $85 #
plane-surface $-1 -44.745017853328036 -10.125004111874819 2.2398566588685327 -0.79863551827123203 0 0.60181501223851219 0.60181501223851219 0 0.79863551827123203 forward_v I I I I #
loop $-1 $-1 $229 $55 #
coedge $-1 $141 $141 $142 $230 reversed $86 $-1 #
coedge $-1 $142 $142 $141 $230 forward $88 $-1 #
coedge $-1 $143 $143 $89 $144 forward $138 $-1 #
edge $-1 $231 0 $231 6.2831853071796004 $143 $232 forward 7 unknown #
face $-1 $233 $234 $30 $-1 $235 forward single #
loop $-1 $-1 $236 $90 #
plane-surface $-1 -116.21493890002438 20.658930129442805 56.096303592894657 0 -1 0 0.79863551827123203 0 -0.60181501223851219 forward_v I I I I #
coedge $-1 $237 $238 $239 $240 reversed $91 $-1 #
coedge $-1 $150 $93 $241 $242 reversed $59 $-1 #
coedge $-1 $93 $149 $237 $243 reversed $59 $-1 #
coedge $-1 $239 $244 $93 $152 forward $234 $-1 #
edge $-1 $245 13.362451596684146 $246 16.550195876806939 $151 $247 forward 7 unknown #
loop $-1 $-1 $158 $94 #
plane-surface $-1 -44.745017853328036 16.555756145163141 2.2398566588685327 -0.79863551827123203 0 0.60181501223851219 0.60181501223851219 0 0.79863551827123203 forward_v I I I I #
loop $-1 $-1 $248 $61 #
coedge $-1 $156 $156 $157 $249 reversed $95 $-1 #
coedge $-1 $157 $157 $156 $249 forward $97 $-1 #
coedge $-1 $158 $158 $98 $159 forward $153 $-1 #
edge $-1 $250 0 $250 6.2831853071796004 $158 $251 forward 7 unknown #
face $-1 $252 $253 $24 $-1 $254 reversed single #
loop $-1 $-1 $255 $99 #
plane-surface $-1 -44.745017853328044 0 0 1 0 0 0 0 -1 forward_v I I I I #
coedge $-1 $256 $171 $257 $258 forward $100 $-1 #
coedge $-1 $259 $102 $256 $260 forward $65 $-1 #
coedge $-1 $102 $259 $261 $262 forward $65 $-1 #
coedge $-1 $174 $173 $102 $167 reversed $175 $-1 #
edge $-1 $263 -30.064659125577467 $264 30.064659125577467 $166 $265 forward 7 unknown #
coedge $-1 $104 $103 $266 $267 forward $41 $-1 #
coedge $-1 $268 $269 $103 $170 reversed $253 $-1 #
edge $-1 $177 -44.745017853328044 $270 44.745017853328044 $169 $271 forward 7 unknown #
coedge $-1 $163 $272 $104 $172 reversed $100 $-1 #
edge $-1 $273 -44.745017853328044 $176 44.745017853328044 $171 $274 forward 7 unknown #
coedge $-1 $166 $105 $272 $275 forward $175 $-1 #
coedge $-1 $105 $166 $268 $276 reversed $175 $-1 #
loop $-1 $-1 $173 $252 #
vertex $-1 $106 $277 #
vertex $-1 $106 $278 #
straight-curve $-1 44.745017853328044 0 6.4701363187302663 0 1 0 I I #
face $-1 $279 $280 $25 $-1 $281 forward single #
loop $-1 $-1 $187 $107 #
plane-surface $-1 0 -30.064659125577467 0 0 1 0 0 0 1 forward_v I I I I #
coedge $-1 $282 $283 $183 $284 forward $108 $-1 #
coedge $-1 $285 $110 $182 $284 reversed $69 $-1 #
coedge $-1 $110 $285 $189 $286 reversed $69 $-1 #
edge $-1 $287 -44.745017853328044 $193 44.745017853328044 $110 $288 forward 7 unknown #
coedge $-1 $112 $111 $282 $289 reversed $44 $-1 #
coedge $-1 $290 $291 $111 $188 forward $180 $-1 #
edge $-1 $292 -44.745017853328044 $192 44.745017853328044 $187 $293 forward 7 unknown #
coedge $-1 $294 $113 $184 $286 forward $191 $-1 #
coedge $-1 $113 $294 $290 $295 forward $191 $-1 #
loop $-1 $-1 $189 $279 #
vertex $-1 $188 $296 #
vertex $-1 $114 $297 #
straight-curve $-1 44.745017853328044 -13.340380128518982 3.4701363187302663 0 1 0 I I #
face $-1 $-1 $298 $26 $-1 $299 reversed single #
loop $-1 $-1 $201 $115 #
plane-surface $-1 0 0 6.4701363187302663 0 0 1 1 0 0 forward_v I I I I #
coedge $-1 $300 $301 $200 $302 reversed $116 $-1 #
coedge $-1 $303 $118 $120 $205 forward $73 $-1 #
coedge $-1 $118 $303 $198 $302 forward $73 $-1 #
coedge $-1 $304 $121 $118 $202 forward $196 $-1 #
edge $-1 $208 3.1630846513932998 $305 14.476879375201205 $201 $306 forward 7 unknown #
coedge $-1 $307 $308 $119 $204 forward $298 $-1 #
edge $-1 $309 -60.12379877238741 $207 -56.720412767014814 $203 $310 forward 7 unknown #
edge $-1 $208 85.476836468317444 $309 89.490035706656087 $120 $311 forward 7 unknown #
coedge $-1 $121 $304 $307 $312 forward $196 $-1 #
vertex $-1 $204 $313 #
vertex $-1 $122 $314 #
straight-curve $-1 36.607190112772983 -11.983066664690554 6.470136318730269 -1 0 0 I I #
coedge $-1 $210 $210 $-1 $315 reversed $125 $-1 #
edge $-1 $316 0 $316 6.2831853071796004 $126 $317 forward 7 unknown #
vertex $-1 $129 $318 #
ellipse-curve $-1 43.681682084975016 -17.639964026594509 4.7684433160439657 0.84804810408105047 0 0.52991925155115449 0.13247981288778862 0 -0.21201202602026262 1 I I #
face $-1 $-1 $319 $28 $-1 $320 reversed single #
loop $-1 $-1 $136 $130 #
plane-surface $-1 0 0 6.4701363187302663 0 0 1 1 0 0 forward_v I I I I #
coedge $-1 $321 $322 $323 $324 reversed $131 $-1 #
coedge $-1 $325 $133 $135 $224 forward $82 $-1 #
coedge $-1 $133 $325 $321 $326 forward $82 $-1 #
coedge $-1 $323 $136 $133 $221 forward $215 $-1 #
edge $-1 $227 -9.1656760402170736 $327 -0.95932807165774658 $220 $328 forward 7 unknown #
coedge $-1 $329 $330 $134 $223 forward $319 $-1 #
edge $-1 $331 -25.808295137578806 $226 -21.578015477717063 $222 $332 forward 7 unknown #
edge $-1 $227 -5.2968839515412682 $331 1.1724126593787106e-014 $135 $333 forward 7 unknown #
coedge $-1 $136 $323 $329 $334 forward $215 $-1 #
vertex $-1 $223 $335 #
vertex $-1 $137 $336 #
straight-curve $-1 -58.107469450012189 -14.228178096154483 6.4701363187302654 1 0 0 I I #
coedge $-1 $229 $229 $-1 $337 reversed $140 $-1 #
edge $-1 $338 0 $338 6.2831853071796004 $141 $339 forward 7 unknown #
vertex $-1 $144 $340 #
ellipse-curve $-1 -43.151145713266644 -10.125004111874819 4.3549964887993955 -0.79863551827123203 0 0.60181501223851219 0.60181501223851219 0 0.79863551827123203 1 I I #
face $-1 $-1 $341 $30 $-1 $342 reversed single #
loop $-1 $-1 $151 $145 #
plane-surface $-1 0 0 6.4701363187302663 0 0 1 1 0 0 forward_v I I I I #
coedge $-1 $343 $344 $345 $346 reversed $146 $-1 #
coedge $-1 $347 $148 $150 $243 forward $91 $-1 #
coedge $-1 $148 $347 $343 $348 forward $91 $-1 #
coedge $-1 $345 $151 $148 $240 forward $234 $-1 #
edge $-1 $246 4.1747040883019064 $349 12.381052056861234 $239 $350 forward 7 unknown #
coedge $-1 $351 $352 $149 $242 forward $341 $-1 #
edge $-1 $353 -25.808295137578806 $245 -21.578015477717063 $241 $354 forward 7 unknown #
edge $-1 $246 -5.2968839515412682 $353 1.1724126593787106e-014 $150 $355 forward 7 unknown #
coedge $-1 $151 $345 $351 $356 forward $234 $-1 #
vertex $-1 $152 $357 #
vertex $-1 $152 $358 #
straight-curve $-1 -58.107469450012189 12.452582160883477 6.4701363187302654 1 0 0 I I #
coedge $-1 $248 $248 $-1 $359 reversed $155 $-1 #
edge $-1 $360 0 $360 6.2831853071796004 $156 $361 forward 7 unknown #
vertex $-1 $159 $362 #
ellipse-curve $-1 -43.151145713266644 16.555756145163141 4.3549964887993955 -0.79863551827123203 0 0.60181501223851219 0.60181501223851219 0 0.79863551827123203 1 I I #
face $-1 $-1 $175 $24 $-1 $363 reversed single #
loop $-1 $-1 $268 $160 #
plane-surface $-1 0 30.064659125577467 0 0 -1 0 0 0 -1 forward_v I I I I #
coedge $-1 $364 $266 $269 $365 forward $161 $-1 #
coedge $-1 $272 $163 $164 $260 reversed $100 $-1 #
coedge $-1 $266 $364 $163 $258 reversed $161 $-1 #
edge $-1 $273 -6.4701363187302663 $366 6.4701363187302663 $257 $367 forward 7 unknown #
coedge $-1 $165 $164 $364 $368 forward $65 $-1 #
edge $-1 $264 -44.745017853328044 $366 44.745017853328044 $256 $369 forward 7 unknown #
coedge $-1 $269 $268 $165 $262 reversed $253 $-1 #
edge $-1 $370 -44.745017853328044 $263 44.745017853328044 $261 $371 forward 7 unknown #
vertex $-1 $167 $372 #
vertex $-1 $275 $373 #
straight-curve $-1 44.745017853328044 0 -6.4701363187302663 0 -1 0 I I #
coedge $-1 $255 $257 $168 $267 reversed $161 $-1 #
edge $-1 $270 -30.064659125577467 $273 30.064659125577467 $266 $374 forward 7 unknown #
coedge $-1 $261 $169 $174 $276 forward $253 $-1 #
coedge $-1 $169 $261 $255 $365 reversed $253 $-1 #
vertex $-1 $170 $375 #
straight-curve $-1 0 30.064659125577467 6.4701363187302663 -1 0 0 I I #
coedge $-1 $171 $256 $173 $275 reversed $100 $-1 #
vertex $-1 $267 $376 #
straight-curve $-1 0 -30.064659125577467 6.4701363187302663 1 0 0 I I #
edge $-1 $176 -6.4701363187302663 $264 6.4701363187302663 $173 $377 forward 7 unknown #
edge $-1 $177 -6.4701363187302663 $263 6.4701363187302663 $174 $378 forward 7 unknown #
point $-1 44.745017853328044 -30.064659125577467 6.4701363187302663 #
point $-1 44.745017853328044 30.064659125577467 6.4701363187302663 #
face $-1 $-1 $191 $25 $-1 $379 reversed single #
loop $-1 $-1 $380 $179 #
plane-surface $-1 0 0 6.4701363187302663 0 0 1 1 0 0 forward_v I I I I #
coedge $-1 $381 $182 $186 $289 forward $108 $-1 #
coedge $-1 $182 $381 $382 $383 reversed $108 $-1 #
edge $-1 $384 -3.9850681593651331 $287 -0.98506815936513314 $182 $385 forward 7 unknown #
coedge $-1 $184 $183 $380 $386 reversed $69 $-1 #
edge $-1 $193 0.98506815936513314 $387 3.9850681593651331 $189 $388 forward 7 unknown #
vertex $-1 $289 $389 #
straight-curve $-1 0 -23.29686138849846 3.4701363187302663 1 0 0 I I #
edge $-1 $287 9.9564812599794781 $292 16.724278997058484 $282 $390 forward 7 unknown #
coedge $-1 $391 $187 $190 $295 reversed $180 $-1 #
coedge $-1 $187 $391 $381 $392 forward $180 $-1 #
vertex $-1 $188 $393 #
straight-curve $-1 0 -30.064659125577467 3.4701363187302663 1 0 0 I I #
coedge $-1 $190 $189 $394 $395 reversed $191 $-1 #
edge $-1 $396 -6.4701363187302663 $192 -3.4701363187302663 $190 $397 forward 7 unknown #
point $-1 44.745017853328044 -30.064659125577467 3.4701363187302663 #
point $-1 44.745017853328044 -23.29686138849846 3.4701363187302663 #
loop $-1 $-1 $203 $195 #
plane-surface $-1 44.745017853328044 0 0 -1 0 0 0 0 1 forward_v I I I I #
coedge $-1 $301 $198 $398 $399 reversed $116 $-1 #
coedge $-1 $198 $300 $304 $400 reversed $116 $-1 #
edge $-1 $401 -89.490035706656087 $305 -85.476836468317444 $198 $402 forward 7 unknown #
coedge $-1 $200 $199 $308 $403 reversed $73 $-1 #
coedge $-1 $206 $201 $301 $400 forward $196 $-1 #
vertex $-1 $400 $404 #
straight-curve $-1 42.618346316621974 -8.8199820132972544 6.4701363187302618 0 -1 0 I I #
coedge $-1 $398 $203 $206 $312 reversed $298 $-1 #
coedge $-1 $203 $398 $303 $403 forward $298 $-1 #
vertex $-1 $204 $405 #
straight-curve $-1 44.745017853328044 -11.983066664690554 63.190549085745083 0 0 1 I I #
straight-curve $-1 -2.677474889629238 -11.983066664690554 78.958605428532877 0.52991925155115449 0 -0.84804810408105047 I I #
edge $-1 $406 -23.29686138849846 $207 -11.983066664690554 $307 $407 forward 7 unknown #
point $-1 44.745017853328044 -11.983066664690554 6.4701363187302663 #
point $-1 42.618346316621974 -11.983066664690554 6.470136318730269 #
edge $-1 $408 1 $408 0 $210 $-1 forward 7 unknown #
vertex $-1 $211 $409 #
ellipse-curve $-1 42.833633980893957 -17.639964026594509 4.2385240644928075 0.84804810408105047 0 0.52991925155115449 0.13247981288778862 0 -0.21201202602026262 1 I I #
point $-1 43.814161897862796 -17.639964026594509 4.5564312900236992 #
loop $-1 $-1 $222 $214 #
plane-surface $-1 -44.745017853328044 0 0 1 0 0 0 0 -1 forward_v I I I I #
coedge $-1 $322 $217 $219 $326 reversed $131 $-1 #
coedge $-1 $217 $321 $410 $411 reversed $131 $-1 #
coedge $-1 $225 $220 $217 $324 forward $215 $-1 #
edge $-1 $327 -16.550195876806939 $412 -13.362451596684146 $323 $413 forward 7 unknown #
coedge $-1 $219 $218 $330 $414 reversed $82 $-1 #
edge $-1 $415 -1.1724126593787106e-014 $327 5.2968839515412682 $321 $416 forward 7 unknown #
vertex $-1 $221 $417 #
straight-curve $-1 -41.557273573205251 -5.0625020559374097 6.4701363187302663 0 1 0 I I #
coedge $-1 $410 $222 $225 $334 reversed $319 $-1 #
coedge $-1 $222 $410 $325 $414 forward $319 $-1 #
vertex $-1 $223 $418 #
straight-curve $-1 -44.745017853328044 -14.228178096154483 28.048151796447328 0 0 1 I I #
straight-curve $-1 -44.745017853328036 -14.228178096154483 2.2398566588685327 -0.60181501223851219 0 -0.79863551827123203 I I #
edge $-1 $412 6.0218301275951562 $226 14.228178096154483 $329 $419 forward 7 unknown #
point $-1 -44.745017853328044 -14.228178096154483 6.4701363187302663 #
point $-1 -41.557273573205251 -14.228178096154483 6.4701363187302663 #
edge $-1 $420 1 $420 0 $229 $-1 forward 7 unknown #
vertex $-1 $230 $421 #
ellipse-curve $-1 -40.45184199266297 -10.125004111874819 2.3209252955133799 -0.79863551827123203 0 0.60181501223851219 0.60181501223851219 0 0.79863551827123203 1 I I #
point $-1 -42.54933070102814 -10.125004111874819 5.1536320070706303 #
loop $-1 $-1 $241 $233 #
plane-surface $-1 -44.745017853328044 0 0 1 0 0 0 0 -1 forward_v I I I I #
coedge $-1 $344 $236 $238 $348 reversed $146 $-1 #
coedge $-1 $236 $343 $422 $423 reversed $146 $-1 #
coedge $-1 $244 $239 $236 $346 forward $234 $-1 #
edge $-1 $349 -16.550195876806939 $424 -13.362451596684146 $345 $425 forward 7 unknown #
coedge $-1 $238 $237 $352 $426 reversed $91 $-1 #
edge $-1 $427 -1.1724126593787106e-014 $349 5.2968839515412682 $343 $428 forward 7 unknown #
vertex $-1 $240 $429 #
straight-curve $-1 -41.557273573205251 8.2778780725815704 6.4701363187302663 0 1 0 I I #
coedge $-1 $422 $241 $244 $356 reversed $341 $-1 #
coedge $-1 $241 $422 $347 $426 forward $341 $-1 #
vertex $-1 $242 $430 #
straight-curve $-1 -44.745017853328044 12.452582160883477 28.048151796447328 0 0 1 I I #
straight-curve $-1 -44.745017853328036 12.452582160883477 2.2398566588685327 -0.60181501223851219 0 -0.79863551827123203 I I #
edge $-1 $424 -20.658930129442805 $245 -12.452582160883477 $351 $431 forward 7 unknown #
point $-1 -44.745017853328044 12.452582160883477 6.4701363187302663 #
point $-1 -41.557273573205251 12.452582160883477 6.4701363187302663 #
edge $-1 $432 1 $432 0 $248 $-1 forward 7 unknown #
vertex $-1 $249 $433 #
ellipse-curve $-1 -40.45184199266297 16.555756145163141 2.3209252955133799 -0.79863551827123203 0 0.60181501223851219 0.60181501223851219 0 0.79863551827123203 1 I I #
point $-1 -42.54933070102814 16.555756145163141 5.1536320070706303 #
plane-surface $-1 44.745017853328044 0 0 -1 0 0 0 0 1 forward_v I I I I #
coedge $-1 $257 $255 $259 $368 reversed $161 $-1 #
edge $-1 $270 -6.4701363187302663 $370 6.4701363187302663 $269 $434 forward 7 unknown #
vertex $-1 $368 $435 #
straight-curve $-1 -44.745017853328044 -30.064659125577467 0 0 0 -1 I I #
edge $-1 $366 -30.064659125577467 $370 30.064659125577467 $364 $436 forward 7 unknown #
straight-curve $-1 0 -30.064659125577467 -6.4701363187302663 -1 0 0 I I #
vertex $-1 $262 $437 #
straight-curve $-1 0 30.064659125577467 -6.4701363187302663 1 0 0 I I #
point $-1 44.745017853328044 30.064659125577467 -6.4701363187302663 #
point $-1 44.745017853328044 -30.064659125577467 -6.4701363187302663 #
straight-curve $-1 -44.745017853328044 0 6.4701363187302663 0 -1 0 I I #
point $-1 -44.745017853328044 30.064659125577467 6.4701363187302663 #
point $-1 -44.745017853328044 -30.064659125577467 6.4701363187302663 #
straight-curve $-1 44.745017853328044 -30.064659125577467 0 0 0 -1 I I #
straight-curve $-1 44.745017853328044 30.064659125577467 0 0 0 -1 I I #
plane-surface $-1 44.745017853328044 0 0 -1 0 0 0 0 1 forward_v I I I I #
coedge $-1 $382 $394 $285 $386 forward $280 $-1 #
coedge $-1 $283 $282 $291 $392 reversed $108 $-1 #
coedge $-1 $438 $380 $283 $383 forward $280 $-1 #
edge $-1 $384 23.29686138849846 $439 30.064659125577467 $283 $440 forward 7 unknown #
vertex $-1 $383 $441 #
straight-curve $-1 -44.745017853328044 -23.29686138849846 2.4850681593651331 0 0 -1 I I #
edge $-1 $387 -44.745017853328044 $384 44.745017853328044 $380 $442 forward 7 unknown #
vertex $-1 $286 $443 #
straight-curve $-1 44.745017853328044 -23.29686138849846 2.4850681593651331 0 0 1 I I #
point $-1 -44.745017853328044 -23.29686138849846 3.4701363187302663 #
straight-curve $-1 -44.745017853328044 -13.340380128518982 3.4701363187302663 0 -1 0 I I #
coedge $-1 $291 $290 $438 $444 reversed $180 $-1 #
edge $-1 $439 -6.4701363187302663 $292 -3.4701363187302663 $381 $445 forward 7 unknown #
point $-1 -44.745017853328044 -30.064659125577467 3.4701363187302663 #
coedge $-1 $380 $438 $294 $395 forward $280 $-1 #
edge $-1 $396 -30.064659125577467 $387 -23.29686138849846 $294 $446 forward 7 unknown #
vertex $-1 $395 $447 #
straight-curve $-1 44.745017853328044 -30.064659125577467 0 0 0 -1 I I #
coedge $-1 $308 $307 $300 $399 forward $298 $-1 #
edge $-1 $406 56.720412767014814 $401 60.12379877238741 $398 $448 forward 7 unknown #
edge $-1 $305 42.618346316621974 $406 44.745017853328044 $304 $449 forward 7 unknown #
vertex $-1 $399 $450 #
straight-curve $-1 -2.677474889629238 -23.296861388498463 78.958605428532877 -0.52991925155115449 0 0.84804810408105047 I I #
edge $-1 $401 -14.476879375201209 $309 -3.1630846513932998 $308 $451 forward 7 unknown #
point $-1 42.618346316621974 -23.29686138849846 6.4701363187302663 #
point $-1 44.745017853328044 -11.983066664690554 3.066750313357673 #
vertex $-1 $312 $452 #
straight-curve $-1 44.745017853328044 0 6.4701363187302663 0 1 0 I I #
vertex $-1 $315 $453 #
point $-1 42.966113793781744 -17.639964026594509 4.0265120384725446 #
coedge $-1 $330 $329 $322 $411 forward $319 $-1 #
edge $-1 $412 21.578015477717063 $415 25.808295137578806 $410 $454 forward 7 unknown #
vertex $-1 $334 $455 #
straight-curve $-1 -58.107469450012189 -6.0218301275951562 6.4701363187302654 -1 0 0 I I #
edge $-1 $415 0.95932807165774658 $331 9.1656760402170736 $330 $456 forward 7 unknown #
vertex $-1 $414 $457 #
straight-curve $-1 -44.745017853328036 -6.0218301275951562 2.2398566588685327 0.60181501223851219 0 0.79863551827123203 I I #
point $-1 -41.557273573205251 -6.0218301275951562 6.4701363187302663 #
point $-1 -44.745017853328044 -14.228178096154483 2.2398566588685234 #
straight-curve $-1 -44.745017853328044 0 6.4701363187302663 0 -1 0 I I #
vertex $-1 $337 $458 #
point $-1 -39.85002698042446 -10.125004111874819 3.1195608137846116 #
coedge $-1 $352 $351 $344 $423 forward $341 $-1 #
edge $-1 $424 21.578015477717063 $427 25.808295137578806 $422 $459 forward 7 unknown #
vertex $-1 $356 $460 #
straight-curve $-1 -58.107469450012189 20.658930129442805 6.4701363187302654 -1 0 0 I I #
edge $-1 $427 -12.381052056861234 $353 -4.1747040883019064 $352 $461 forward 7 unknown #
vertex $-1 $426 $462 #
straight-curve $-1 -44.745017853328036 20.658930129442805 2.2398566588685327 0.60181501223851219 0 0.79863551827123203 I I #
point $-1 -41.557273573205251 20.658930129442805 6.4701363187302663 #
point $-1 -44.745017853328044 12.452582160883477 2.2398566588685234 #
straight-curve $-1 -44.745017853328044 0 6.4701363187302663 0 -1 0 I I #
vertex $-1 $359 $463 #
point $-1 -39.85002698042446 16.555756145163141 3.1195608137846116 #
straight-curve $-1 -44.745017853328044 30.064659125577467 0 0 0 -1 I I #
point $-1 -44.745017853328044 -30.064659125577467 -6.4701363187302663 #
straight-curve $-1 -44.745017853328044 0 -6.4701363187302663 0 1 0 I I #
point $-1 -44.745017853328044 30.064659125577467 -6.4701363187302663 #
coedge $-1 $394 $382 $391 $444 forward $280 $-1 #
vertex $-1 $383 $464 #
straight-curve $-1 -44.745017853328044 0 6.4701363187302663 0 -1 0 I I #
point $-1 -44.745017853328044 -23.29686138849846 6.4701363187302663 #
straight-curve $-1 0 -23.29686138849846 6.4701363187302663 -1 0 0 I I #
point $-1 44.745017853328044 -23.29686138849846 6.4701363187302663 #
edge $-1 $439 -44.745017853328044 $396 44.745017853328044 $391 $465 forward 7 unknown #
straight-curve $-1 -44.745017853328044 -30.064659125577467 0 0 0 -1 I I #
straight-curve $-1 44.745017853328044 0 6.4701363187302663 0 1 0 I I #
point $-1 44.745017853328044 -30.064659125577467 6.4701363187302663 #
straight-curve $-1 44.745017853328044 -23.296861388498463 63.190549085745083 0 0 -1 I I #
straight-curve $-1 0 -23.29686138849846 6.4701363187302663 1 0 0 I I #
point $-1 44.745017853328044 -23.296861388498463 3.066750313357673 #
straight-curve $-1 44.745017853328036 -8.8199820132972544 3.0667503133576872 0 1 0 I I #
point $-1 44.745017853328044 -23.29686138849846 6.4701363187302663 #
point $-1 42.621621954873696 -17.639964026594509 4.1060442516050184 #
straight-curve $-1 -44.745017853328044 -6.0218301275951562 28.048151796447328 0 0 -1 I I #
point $-1 -44.745017853328044 -6.0218301275951562 6.4701363187302663 #
straight-curve $-1 -44.745017853328044 -5.0625020559374097 2.2398566588685171 0 -1 0 I I #
point $-1 -44.745017853328044 -6.0218301275951562 2.2398566588685234 #
point $-1 -39.653206474391745 -10.125004111874819 1.7191102832748675 #
straight-curve $-1 -44.745017853328044 20.658930129442805 28.048151796447328 0 0 -1 I I #
point $-1 -44.745017853328044 20.658930129442805 6.4701363187302663 #
straight-curve $-1 -44.745017853328044 8.2778780725815704 2.2398566588685171 0 -1 0 I I #
point $-1 -44.745017853328044 20.658930129442805 2.2398566588685234 #
point $-1 -39.653206474391745 16.555756145163141 1.7191102832748675 #
point $-1 -44.745017853328044 -30.064659125577467 6.4701363187302663 #
straight-curve $-1 0 -30.064659125577467 6.4701363187302663 1 0 0 I I #
End-of-ACIS-data 