500 0 12 0           
7 Unknown 11 ACIS 5.0 NT 24 Fri Mar 26 17:52:43 1999 
-1 9.9999999999999995e-007 1e-010 
body $-1 $12 $-1 $13 #
body $-1 $14 $-1 $15 #
body $-1 $16 $-1 $17 #
body $-1 $18 $-1 $19 #
body $-1 $20 $-1 $21 #
body $-1 $22 $-1 $23 #
body $-1 $24 $-1 $25 #
body $-1 $26 $-1 $27 #
body $-1 $28 $-1 $29 #
body $-1 $30 $-1 $31 #
body $-1 $32 $-1 $33 #
body $-1 $34 $-1 $35 #
lump $-1 $-1 $36 $0 #
transform $-1 1 0 0 0 1 0 0 0 1 54.564653462324898 28.895769913011463 10.543556464032603 1 rotate no_reflect no_shear #
lump $-1 $-1 $37 $1 #
transform $-1 1 0 0 0 1 0 0 0 1 54.564653462324898 28.895769913011463 10.543556464032603 1 rotate no_reflect no_shear #
lump $-1 $-1 $38 $2 #
transform $-1 1 0 0 0 1 0 0 0 1 54.564653462324898 28.895769913011463 10.543556464032603 1 rotate no_reflect no_shear #
lump $-1 $-1 $39 $3 #
transform $-1 1 0 0 0 1 0 0 0 1 54.564653462324898 28.895769913011463 10.543556464032603 1 rotate no_reflect no_shear #
lump $-1 $-1 $40 $4 #
transform $-1 1 0 0 0 1 0 0 0 1 54.564653462324898 28.895769913011463 10.543556464032603 1 rotate no_reflect no_shear #
lump $-1 $-1 $41 $5 #
transform $-1 1 0 0 0 1 0 0 0 1 54.564653462324898 28.895769913011463 10.543556464032603 1 rotate no_reflect no_shear #
lump $-1 $-1 $42 $6 #
transform $-1 1 0 0 0 1 0 0 0 1 54.564653462324898 28.895769913011463 10.543556464032603 1 rotate no_reflect no_shear #
lump $-1 $-1 $43 $7 #
transform $-1 1 0 0 0 1 0 0 0 1 54.564653462324898 28.895769913011463 10.543556464032603 1 rotate no_reflect no_shear #
lump $-1 $-1 $44 $8 #
transform $-1 1 0 0 0 1 0 0 0 1 54.564653462324898 28.895769913011463 10.543556464032603 1 rotate no_reflect no_shear #
lump $-1 $-1 $45 $9 #
transform $-1 1 0 0 0 1 0 0 0 1 54.564653462324898 28.895769913011463 10.543556464032603 1 rotate no_reflect no_shear #
lump $-1 $-1 $46 $10 #
transform $-1 1 0 0 0 1 0 0 0 1 54.564653462324898 28.895769913011463 10.543556464032603 1 rotate no_reflect no_shear #
lump $-1 $-1 $47 $11 #
transform $-1 1 0 0 0 1 0 0 0 1 54.564653462324898 28.895769913011463 10.543556464032603 1 rotate no_reflect no_shear #
shell $-1 $-1 $-1 $48 $-1 $12 #
shell $-1 $-1 $-1 $49 $-1 $14 #
shell $-1 $-1 $-1 $50 $-1 $16 #
shell $-1 $-1 $-1 $51 $-1 $18 #
shell $-1 $-1 $-1 $52 $-1 $20 #
shell $-1 $-1 $-1 $53 $-1 $22 #
shell $-1 $-1 $-1 $54 $-1 $24 #
shell $-1 $-1 $-1 $55 $-1 $26 #
shell $-1 $-1 $-1 $56 $-1 $28 #
shell $-1 $-1 $-1 $57 $-1 $30 #
shell $-1 $-1 $-1 $58 $-1 $32 #
shell $-1 $-1 $-1 $59 $-1 $34 #
face $-1 $60 $61 $36 $-1 $62 forward single #
face $-1 $63 $64 $37 $-1 $65 forward single #
face $-1 $66 $67 $38 $-1 $68 forward single #
face $-1 $69 $70 $39 $-1 $71 reversed single #
face $-1 $72 $73 $40 $-1 $74 forward single #
face $-1 $75 $76 $41 $-1 $77 forward single #
face $-1 $78 $79 $42 $-1 $80 reversed single #
face $-1 $81 $82 $43 $-1 $83 forward single #
face $-1 $84 $85 $44 $-1 $86 forward single #
face $-1 $87 $88 $45 $-1 $89 reversed single #
face $-1 $90 $91 $46 $-1 $92 forward single #
face $-1 $93 $94 $47 $-1 $95 forward single #
face $-1 $96 $97 $36 $-1 $98 reversed single #
loop $-1 $-1 $99 $48 #
plane-surface $-1 0 0 10.543556464032603 0 0 1 1 0 0 forward_v I I I I #
face $-1 $100 $101 $37 $-1 $102 reversed single #
loop $-1 $-1 $103 $49 #
plane-surface $-1 0 -28.895769913011463 0 0 1 0 0 0 1 forward_v I I I I #
face $-1 $104 $105 $38 $-1 $106 reversed single #
loop $-1 $-1 $107 $50 #
plane-surface $-1 0 21.989159627671825 1.4295175682749726 0 0 1 1 0 0 forward_v I I I I #
face $-1 $108 $109 $39 $-1 $110 reversed single #
loop $-1 $-1 $111 $51 #
plane-surface $-1 65.330321691102242 -7.0037748276773861 156.80952354282414 0 -1 0 -0.75470958851134928 0 -0.65605901945558964 forward_v I I I I #
face $-1 $112 $113 $40 $-1 $114 forward single #
loop $-1 $115 $116 $52 #
cone-surface $-1 50.750580686780197 -11.316300110574144 6.28851553045775 -0.75470958851134928 0 -0.65605901945558964 0.32802950972779482 0 -0.37735479425567464 1 I I 0 1 0.5 forward I I I I #
face $-1 $117 $118 $41 $-1 $119 forward single #
loop $-1 $120 $121 $53 #
cone-surface $-1 50.750580686780197 -8.7287849408360891 6.28851553045775 -0.75470958851134928 0 -0.65605901945558964 0.32802950972779482 0 -0.37735479425567464 1 I I 0 1 0.5 forward I I I I #
face $-1 $122 $123 $42 $-1 $124 reversed single #
loop $-1 $-1 $125 $54 #
plane-surface $-1 65.330321691102242 3.0385866217456794 156.80952354282414 0 -1 0 -0.75470958851134928 0 -0.65605901945558964 forward_v I I I I #
face $-1 $126 $127 $43 $-1 $128 forward single #
loop $-1 $129 $130 $55 #
cone-surface $-1 50.750580686780197 -1.2739386611510781 6.28851553045775 -0.75470958851134928 0 -0.65605901945558964 0.32802950972779482 0 -0.37735479425567464 1 I I 0 1 0.5 forward I I I I #
face $-1 $131 $132 $44 $-1 $133 forward single #
loop $-1 $134 $135 $56 #
cone-surface $-1 50.750580686780197 1.3135765085869764 6.28851553045775 -0.75470958851134928 0 -0.65605901945558964 0.32802950972779482 0 -0.37735479425567464 1 I I 0 1 0.5 forward I I I I #
face $-1 $136 $137 $45 $-1 $138 reversed single #
loop $-1 $-1 $139 $57 #
plane-surface $-1 65.330321691102242 13.080948071168741 156.80952354282414 0 -1 0 -0.75470958851134928 0 -0.65605901945558964 forward_v I I I I #
face $-1 $140 $141 $46 $-1 $142 forward single #
loop $-1 $143 $144 $58 #
cone-surface $-1 50.750580686780197 8.7684227882719838 6.28851553045775 -0.75470958851134928 0 -0.65605901945558964 0.32802950972779482 0 -0.37735479425567464 1 I I 0 1 0.5 forward I I I I #
face $-1 $145 $146 $47 $-1 $147 forward single #
loop $-1 $148 $149 $59 #
cone-surface $-1 50.750580686780197 11.355937958010038 6.28851553045775 -0.75470958851134928 0 -0.65605901945558964 0.32802950972779482 0 -0.37735479425567464 1 I I 0 1 0.5 forward I I I I #
face $-1 $150 $151 $36 $-1 $152 reversed single #
loop $-1 $-1 $153 $60 #
plane-surface $-1 0 0 -10.543556464032603 0 0 1 1 0 0 forward_v I I I I #
coedge $-1 $154 $155 $156 $157 forward $61 $-1 #
face $-1 $158 $159 $37 $-1 $160 reversed single #
loop $-1 $-1 $161 $63 #
plane-surface $-1 0 0 -10.543556464032603 0 0 1 1 0 0 forward_v I I I I #
coedge $-1 $162 $163 $164 $165 forward $64 $-1 #
face $-1 $166 $167 $38 $-1 $168 reversed single #
loop $-1 $-1 $169 $66 #
plane-surface $-1 0 21.989159627671825 -4.4812709113051081 0 0 1 1 0 0 forward_v I I I I #
coedge $-1 $170 $171 $172 $173 reversed $67 $-1 #
face $-1 $174 $175 $39 $-1 $176 reversed single #
loop $-1 $-1 $177 $69 #
plane-surface $-1 -17.030612632528943 -10.022542525705116 85.214257447970297 0.75470958851134928 0 0.65605901945558964 0.65605901945558964 0 -0.75470958851134928 forward_v I I I I #
coedge $-1 $178 $179 $180 $181 reversed $70 $-1 #
face $-1 $-1 $182 $40 $-1 $183 forward single #
loop $-1 $184 $185 $72 #
cone-surface $-1 50.090339355273741 -11.316300110574144 5.7145765118657454 -0.75470958851134928 0 -0.65605901945558964 0.16401475486389741 0 -0.18867739712783732 1 I I -0.70710678118654746 0.70710678118654746 0.25 forward I I I I #
loop $-1 $-1 $186 $52 #
coedge $-1 $116 $116 $187 $188 reversed $73 $-1 #
face $-1 $-1 $189 $41 $-1 $190 forward single #
loop $-1 $191 $192 $75 #
cone-surface $-1 50.090339355273741 -8.7287849408360891 5.7145765118657454 -0.75470958851134928 0 -0.65605901945558964 0.16401475486389741 0 -0.18867739712783732 1 I I -0.70710678118654746 0.70710678118654746 0.25 forward I I I I #
loop $-1 $-1 $193 $53 #
coedge $-1 $121 $121 $194 $195 reversed $76 $-1 #
face $-1 $196 $197 $42 $-1 $198 reversed single #
loop $-1 $-1 $199 $78 #
plane-surface $-1 -17.030612632528943 0.019818923717949133 85.214257447970297 0.75470958851134928 0 0.65605901945558964 0.65605901945558964 0 -0.75470958851134928 forward_v I I I I #
coedge $-1 $200 $201 $202 $203 reversed $79 $-1 #
face $-1 $-1 $204 $43 $-1 $205 forward single #
loop $-1 $206 $207 $81 #
cone-surface $-1 50.090339355273741 -1.2739386611510781 5.7145765118657454 -0.75470958851134928 0 -0.65605901945558964 0.16401475486389741 0 -0.18867739712783732 1 I I -0.70710678118654746 0.70710678118654746 0.25 forward I I I I #
loop $-1 $-1 $208 $55 #
coedge $-1 $130 $130 $209 $210 reversed $82 $-1 #
face $-1 $-1 $211 $44 $-1 $212 forward single #
loop $-1 $213 $214 $84 #
cone-surface $-1 50.090339355273741 1.3135765085869764 5.7145765118657454 -0.75470958851134928 0 -0.65605901945558964 0.16401475486389741 0 -0.18867739712783732 1 I I -0.70710678118654746 0.70710678118654746 0.25 forward I I I I #
loop $-1 $-1 $215 $56 #
coedge $-1 $135 $135 $216 $217 reversed $85 $-1 #
face $-1 $218 $219 $45 $-1 $220 reversed single #
loop $-1 $-1 $221 $87 #
plane-surface $-1 -17.030612632528943 10.062180373141011 85.214257447970297 0.75470958851134928 0 0.65605901945558964 0.65605901945558964 0 -0.75470958851134928 forward_v I I I I #
coedge $-1 $222 $223 $224 $225 reversed $88 $-1 #
face $-1 $-1 $226 $46 $-1 $227 forward single #
loop $-1 $228 $229 $90 #
cone-surface $-1 50.090339355273741 8.7684227882719838 5.7145765118657454 -0.75470958851134928 0 -0.65605901945558964 0.16401475486389741 0 -0.18867739712783732 1 I I -0.70710678118654746 0.70710678118654746 0.25 forward I I I I #
loop $-1 $-1 $230 $58 #
coedge $-1 $144 $144 $231 $232 reversed $91 $-1 #
face $-1 $-1 $233 $47 $-1 $234 forward single #
loop $-1 $235 $236 $93 #
cone-surface $-1 50.090339355273741 11.355937958010038 5.7145765118657454 -0.75470958851134928 0 -0.65605901945558964 0.16401475486389741 0 -0.18867739712783732 1 I I -0.70710678118654746 0.70710678118654746 0.25 forward I I I I #
loop $-1 $-1 $237 $59 #
coedge $-1 $149 $149 $238 $239 reversed $94 $-1 #
face $-1 $240 $241 $36 $-1 $242 reversed single #
loop $-1 $-1 $243 $96 #
plane-surface $-1 0 -28.895769913011463 0 0 1 0 0 0 1 forward_v I I I I #
coedge $-1 $244 $245 $246 $247 forward $97 $-1 #
coedge $-1 $248 $99 $249 $250 forward $61 $-1 #
coedge $-1 $99 $248 $251 $252 forward $61 $-1 #
coedge $-1 $253 $254 $99 $157 reversed $255 $-1 #
edge $-1 $256 -28.895769913011463 $257 28.895769913011463 $156 $258 forward 7 unknown #
face $-1 $259 $260 $37 $-1 $261 forward single #
loop $-1 $-1 $262 $100 #
plane-surface $-1 54.564653462324898 0 0 -1 0 0 0 0 1 forward_v I I I I #
coedge $-1 $263 $264 $265 $266 forward $101 $-1 #
coedge $-1 $265 $103 $262 $267 reversed $64 $-1 #
coedge $-1 $103 $265 $268 $269 reversed $64 $-1 #
coedge $-1 $270 $271 $103 $165 reversed $260 $-1 #
edge $-1 $272 -54.564653462324898 $273 54.564653462324898 $164 $274 forward 7 unknown #
face $-1 $275 $276 $38 $-1 $277 reversed single #
loop $-1 $-1 $278 $104 #
plane-surface $-1 0 15.082549342332186 -1.5258766715150678 0 1 0 0 0 1 forward_v I I I I #
coedge $-1 $279 $280 $281 $282 reversed $105 $-1 #
coedge $-1 $283 $107 $284 $285 reversed $67 $-1 #
coedge $-1 $107 $283 $286 $287 forward $67 $-1 #
coedge $-1 $288 $289 $107 $173 forward $276 $-1 #
edge $-1 $290 -17.901190099175551 $291 -4.0879695284962736 $172 $292 forward 7 unknown #
face $-1 $293 $294 $39 $-1 $295 forward single #
loop $-1 $-1 $296 $108 #
plane-surface $-1 65.330321691102242 -13.041310223732847 156.80952354282414 0 1 0 0.75470958851134928 0 0.65605901945558964 forward_v I I I I #
coedge $-1 $297 $298 $299 $300 reversed $109 $-1 #
coedge $-1 $179 $111 $301 $302 reversed $70 $-1 #
coedge $-1 $111 $178 $297 $303 reversed $70 $-1 #
coedge $-1 $299 $304 $111 $181 forward $294 $-1 #
edge $-1 $305 -21.899492616773777 $306 -15.214474934441618 $180 $307 forward 7 unknown #
loop $-1 $-1 $187 $112 #
plane-surface $-1 -17.030612632528943 -10.022542525705116 85.214257447970297 0.75470958851134928 0 0.65605901945558964 0.65605901945558964 0 -0.75470958851134928 forward_v I I I I #
loop $-1 $-1 $308 $72 #
coedge $-1 $185 $185 $186 $309 reversed $113 $-1 #
coedge $-1 $186 $186 $185 $309 forward $115 $-1 #
coedge $-1 $187 $187 $116 $188 forward $182 $-1 #
edge $-1 $310 0 $310 6.2831853071796004 $187 $311 forward 7 unknown #
loop $-1 $-1 $194 $117 #
plane-surface $-1 -17.030612632528943 -10.022542525705116 85.214257447970297 0.75470958851134928 0 0.65605901945558964 0.65605901945558964 0 -0.75470958851134928 forward_v I I I I #
loop $-1 $-1 $312 $75 #
coedge $-1 $192 $192 $193 $313 reversed $118 $-1 #
coedge $-1 $193 $193 $192 $313 forward $120 $-1 #
coedge $-1 $194 $194 $121 $195 forward $189 $-1 #
edge $-1 $314 0 $314 6.2831853071796004 $194 $315 forward 7 unknown #
face $-1 $316 $317 $42 $-1 $318 reversed single #
loop $-1 $-1 $319 $122 #
plane-surface $-1 65.330321691102242 -2.9989487743097811 156.80952354282414 0 1 0 0.75470958851134928 0 0.65605901945558964 forward_v I I I I #
coedge $-1 $320 $321 $322 $323 reversed $123 $-1 #
coedge $-1 $201 $125 $324 $325 reversed $79 $-1 #
coedge $-1 $125 $200 $320 $326 reversed $79 $-1 #
coedge $-1 $322 $327 $125 $203 forward $328 $-1 #
edge $-1 $329 -21.899492616773777 $330 -15.214474934441618 $202 $331 forward 7 unknown #
loop $-1 $-1 $209 $126 #
plane-surface $-1 -17.030612632528943 0.019818923717949133 85.214257447970297 0.75470958851134928 0 0.65605901945558964 0.65605901945558964 0 -0.75470958851134928 forward_v I I I I #
loop $-1 $-1 $332 $81 #
coedge $-1 $207 $207 $208 $333 reversed $127 $-1 #
coedge $-1 $208 $208 $207 $333 forward $129 $-1 #
coedge $-1 $209 $209 $130 $210 forward $204 $-1 #
edge $-1 $334 0 $334 6.2831853071796004 $209 $335 forward 7 unknown #
loop $-1 $-1 $216 $131 #
plane-surface $-1 -17.030612632528943 0.019818923717949133 85.214257447970297 0.75470958851134928 0 0.65605901945558964 0.65605901945558964 0 -0.75470958851134928 forward_v I I I I #
loop $-1 $-1 $336 $84 #
coedge $-1 $214 $214 $215 $337 reversed $132 $-1 #
coedge $-1 $215 $215 $214 $337 forward $134 $-1 #
coedge $-1 $216 $216 $135 $217 forward $211 $-1 #
edge $-1 $338 0 $338 6.2831853071796004 $216 $339 forward 7 unknown #
face $-1 $340 $341 $45 $-1 $342 reversed single #
loop $-1 $-1 $343 $136 #
plane-surface $-1 65.330321691102242 7.0434126751132808 156.80952354282414 0 1 0 0.75470958851134928 0 0.65605901945558964 forward_v I I I I #
coedge $-1 $344 $345 $346 $347 reversed $137 $-1 #
coedge $-1 $223 $139 $348 $349 reversed $88 $-1 #
coedge $-1 $139 $222 $344 $350 reversed $88 $-1 #
coedge $-1 $346 $351 $139 $225 forward $352 $-1 #
edge $-1 $353 -21.899492616773777 $354 -15.214474934441618 $224 $355 forward 7 unknown #
loop $-1 $-1 $231 $140 #
plane-surface $-1 -17.030612632528943 10.062180373141011 85.214257447970297 0.75470958851134928 0 0.65605901945558964 0.65605901945558964 0 -0.75470958851134928 forward_v I I I I #
loop $-1 $-1 $356 $90 #
coedge $-1 $229 $229 $230 $357 reversed $141 $-1 #
coedge $-1 $230 $230 $229 $357 forward $143 $-1 #
coedge $-1 $231 $231 $144 $232 forward $226 $-1 #
edge $-1 $358 0 $358 6.2831853071796004 $231 $359 forward 7 unknown #
loop $-1 $-1 $238 $145 #
plane-surface $-1 -17.030612632528943 10.062180373141011 85.214257447970297 0.75470958851134928 0 0.65605901945558964 0.65605901945558964 0 -0.75470958851134928 forward_v I I I I #
loop $-1 $-1 $360 $93 #
coedge $-1 $236 $236 $237 $361 reversed $146 $-1 #
coedge $-1 $237 $237 $236 $361 forward $148 $-1 #
coedge $-1 $238 $238 $149 $239 forward $233 $-1 #
edge $-1 $362 0 $362 6.2831853071796004 $238 $363 forward 7 unknown #
face $-1 $364 $365 $36 $-1 $366 reversed single #
loop $-1 $-1 $367 $150 #
plane-surface $-1 -54.564653462324898 0 0 1 0 0 0 0 -1 forward_v I I I I #
coedge $-1 $251 $368 $253 $369 reversed $151 $-1 #
coedge $-1 $370 $153 $368 $371 forward $97 $-1 #
coedge $-1 $153 $370 $372 $373 forward $97 $-1 #
coedge $-1 $254 $253 $153 $247 reversed $255 $-1 #
edge $-1 $374 -28.895769913011463 $375 28.895769913011463 $246 $376 forward 7 unknown #
coedge $-1 $155 $154 $377 $378 forward $61 $-1 #
coedge $-1 $379 $380 $154 $250 reversed $365 $-1 #
edge $-1 $257 -54.564653462324898 $381 54.564653462324898 $249 $382 forward 7 unknown #
coedge $-1 $383 $243 $155 $252 reversed $151 $-1 #
edge $-1 $384 -54.564653462324898 $256 54.564653462324898 $251 $385 forward 7 unknown #
coedge $-1 $246 $156 $243 $369 forward $255 $-1 #
coedge $-1 $156 $246 $379 $386 reversed $255 $-1 #
loop $-1 $-1 $253 $364 #
vertex $-1 $157 $387 #
vertex $-1 $157 $388 #
straight-curve $-1 54.564653462324898 0 10.543556464032603 0 1 0 I I #
face $-1 $389 $390 $37 $-1 $391 reversed single #
loop $-1 $-1 $271 $158 #
plane-surface $-1 0 -35.821387366548691 -4.5590174689474026 0 0 1 1 0 0 forward_v I I I I #
coedge $-1 $392 $393 $162 $267 forward $159 $-1 #
coedge $-1 $394 $161 $393 $395 forward $101 $-1 #
coedge $-1 $161 $394 $396 $397 forward $101 $-1 #
coedge $-1 $163 $162 $161 $266 reversed $64 $-1 #
edge $-1 $398 -54.564653462324898 $399 54.564653462324898 $161 $400 forward 7 unknown #
edge $-1 $399 -10.543556464032603 $273 -4.5590174689474026 $262 $401 forward 7 unknown #
coedge $-1 $396 $402 $163 $269 forward $403 $-1 #
edge $-1 $272 4.5590174689474026 $398 10.543556464032603 $268 $404 forward 7 unknown #
coedge $-1 $405 $164 $402 $406 forward $260 $-1 #
coedge $-1 $164 $405 $392 $407 forward $260 $-1 #
vertex $-1 $269 $408 #
vertex $-1 $407 $409 #
straight-curve $-1 0 -28.895769913011463 -4.5590174689474026 1 0 0 I I #
face $-1 $410 $411 $38 $-1 $412 reversed single #
loop $-1 $-1 $172 $166 #
plane-surface $-1 54.564653462324898 0 0 -1 0 0 0 0 1 forward_v I I I I #
coedge $-1 $413 $286 $414 $415 reversed $167 $-1 #
coedge $-1 $416 $169 $413 $417 forward $105 $-1 #
coedge $-1 $169 $416 $418 $419 reversed $105 $-1 #
coedge $-1 $289 $288 $169 $282 forward $276 $-1 #
edge $-1 $420 4.0879695284962736 $421 17.901190099175551 $281 $422 forward 7 unknown #
coedge $-1 $171 $170 $423 $424 reversed $67 $-1 #
coedge $-1 $425 $426 $170 $285 forward $427 $-1 #
edge $-1 $428 -54.564653462324898 $290 54.564653462324898 $284 $429 forward 7 unknown #
coedge $-1 $278 $430 $171 $287 reversed $167 $-1 #
edge $-1 $431 -54.564653462324898 $291 54.564653462324898 $286 $432 forward 7 unknown #
coedge $-1 $281 $172 $430 $433 forward $276 $-1 #
coedge $-1 $172 $281 $425 $434 reversed $276 $-1 #
vertex $-1 $434 $435 #
vertex $-1 $173 $436 #
straight-curve $-1 54.564653462324898 10.994579813835912 1.4295175682749726 0 -1 0 I I #
face $-1 $-1 $437 $39 $-1 $438 reversed single #
loop $-1 $-1 $180 $174 #
plane-surface $-1 0 0 10.543556464032603 0 0 1 1 0 0 forward_v I I I I #
coedge $-1 $439 $440 $441 $442 reversed $175 $-1 #
coedge $-1 $443 $177 $179 $303 forward $109 $-1 #
coedge $-1 $177 $443 $439 $444 forward $109 $-1 #
coedge $-1 $441 $180 $177 $300 forward $294 $-1 #
edge $-1 $306 1.9925035648248279 $445 8.0300389608802885 $299 $446 forward 7 unknown #
coedge $-1 $447 $448 $178 $302 forward $437 $-1 #
edge $-1 $449 -75.551438647072956 $305 -67.861205307379464 $301 $450 forward 7 unknown #
edge $-1 $306 98.939647939579373 $449 109.12930692464982 $179 $451 forward 7 unknown #
coedge $-1 $180 $441 $447 $452 forward $294 $-1 #
vertex $-1 $302 $453 #
vertex $-1 $181 $454 #
straight-curve $-1 32.665160845551121 -7.0037748276773861 10.543556464032605 -1 0 0 I I #
coedge $-1 $308 $308 $-1 $455 reversed $184 $-1 #
edge $-1 $456 0 $456 6.2831853071796004 $185 $457 forward 7 unknown #
vertex $-1 $188 $458 #
ellipse-curve $-1 51.222144621158819 -11.316300110574144 6.6984397941858589 0.75470958851134928 0 0.65605901945558964 0.32802950972779482 0 -0.37735479425567464 1 I I #
coedge $-1 $312 $312 $-1 $459 reversed $191 $-1 #
edge $-1 $460 0 $460 6.2831853071796004 $192 $461 forward 7 unknown #
vertex $-1 $195 $462 #
ellipse-curve $-1 51.222144621158819 -8.7287849408360891 6.6984397941858589 0.75470958851134928 0 0.65605901945558964 0.32802950972779482 0 -0.37735479425567464 1 I I #
face $-1 $-1 $328 $42 $-1 $463 forward single #
loop $-1 $-1 $464 $196 #
plane-surface $-1 54.564653462324898 0 0 -1 0 0 0 0 1 forward_v I I I I #
coedge $-1 $465 $466 $467 $468 reversed $197 $-1 #
coedge $-1 $469 $199 $201 $326 forward $123 $-1 #
coedge $-1 $199 $469 $465 $470 forward $123 $-1 #
coedge $-1 $467 $202 $199 $323 forward $328 $-1 #
edge $-1 $330 -3.0286771598867048 $471 3.0088582361687557 $322 $472 forward 7 unknown #
coedge $-1 $473 $474 $200 $325 forward $317 $-1 #
edge $-1 $475 -75.551438647072956 $329 -67.861205307379464 $324 $476 forward 7 unknown #
edge $-1 $330 98.939647939579373 $475 109.12930692464982 $201 $477 forward 7 unknown #
coedge $-1 $202 $467 $473 $478 forward $328 $-1 #
loop $-1 $-1 $467 $316 #
vertex $-1 $325 $479 #
vertex $-1 $203 $480 #
straight-curve $-1 32.665160845551121 3.0385866217456794 10.543556464032605 -1 0 0 I I #
coedge $-1 $332 $332 $-1 $481 reversed $206 $-1 #
edge $-1 $482 0 $482 6.2831853071796004 $207 $483 forward 7 unknown #
vertex $-1 $210 $484 #
ellipse-curve $-1 51.222144621158819 -1.2739386611510781 6.6984397941858589 0.75470958851134928 0 0.65605901945558964 0.32802950972779482 0 -0.37735479425567464 1 I I #
coedge $-1 $336 $336 $-1 $485 reversed $213 $-1 #
edge $-1 $486 0 $486 6.2831853071796004 $214 $487 forward 7 unknown #
vertex $-1 $217 $488 #
ellipse-curve $-1 51.222144621158819 1.3135765085869764 6.6984397941858589 0.75470958851134928 0 0.65605901945558964 0.32802950972779482 0 -0.37735479425567464 1 I I #
face $-1 $-1 $352 $45 $-1 $489 forward single #
loop $-1 $-1 $490 $218 #
plane-surface $-1 54.564653462324898 0 0 -1 0 0 0 0 1 forward_v I I I I #
coedge $-1 $491 $492 $493 $494 reversed $219 $-1 #
coedge $-1 $495 $221 $223 $350 forward $137 $-1 #
coedge $-1 $221 $495 $491 $496 forward $137 $-1 #
coedge $-1 $493 $224 $221 $347 forward $352 $-1 #
edge $-1 $354 -8.0498578845982358 $497 -2.0123224885427753 $346 $498 forward 7 unknown #
coedge $-1 $499 $500 $222 $349 forward $341 $-1 #
edge $-1 $501 -75.551438647072956 $353 -67.861205307379464 $348 $502 forward 7 unknown #
edge $-1 $354 98.939647939579373 $501 109.12930692464982 $223 $503 forward 7 unknown #
coedge $-1 $224 $493 $499 $504 forward $352 $-1 #
loop $-1 $-1 $493 $340 #
vertex $-1 $349 $505 #
vertex $-1 $225 $506 #
straight-curve $-1 32.665160845551121 13.080948071168741 10.543556464032605 -1 0 0 I I #
coedge $-1 $356 $356 $-1 $507 reversed $228 $-1 #
edge $-1 $508 0 $508 6.2831853071796004 $229 $509 forward 7 unknown #
vertex $-1 $232 $510 #
ellipse-curve $-1 51.222144621158819 8.7684227882719838 6.6984397941858589 0.75470958851134928 0 0.65605901945558964 0.32802950972779482 0 -0.37735479425567464 1 I I #
coedge $-1 $360 $360 $-1 $511 reversed $235 $-1 #
edge $-1 $512 0 $512 6.2831853071796004 $236 $513 forward 7 unknown #
vertex $-1 $239 $514 #
ellipse-curve $-1 51.222144621158819 11.355937958010038 6.6984397941858589 0.75470958851134928 0 0.65605901945558964 0.32802950972779482 0 -0.37735479425567464 1 I I #
face $-1 $-1 $255 $36 $-1 $515 reversed single #
loop $-1 $-1 $379 $240 #
plane-surface $-1 0 28.895769913011463 0 0 -1 0 0 0 -1 forward_v I I I I #
coedge $-1 $516 $377 $380 $517 forward $241 $-1 #
coedge $-1 $243 $383 $244 $371 reversed $151 $-1 #
edge $-1 $256 -10.543556464032603 $375 10.543556464032603 $253 $518 forward 7 unknown #
coedge $-1 $245 $244 $516 $519 forward $97 $-1 #
edge $-1 $375 -54.564653462324898 $520 54.564653462324898 $368 $521 forward 7 unknown #
coedge $-1 $380 $379 $245 $373 reversed $365 $-1 #
edge $-1 $522 -54.564653462324898 $374 54.564653462324898 $372 $523 forward 7 unknown #
vertex $-1 $247 $524 #
vertex $-1 $369 $525 #
straight-curve $-1 54.564653462324898 0 -10.543556464032603 0 -1 0 I I #
coedge $-1 $367 $526 $248 $378 reversed $241 $-1 #
edge $-1 $381 -28.895769913011463 $384 28.895769913011463 $377 $527 forward 7 unknown #
coedge $-1 $372 $249 $254 $386 forward $365 $-1 #
coedge $-1 $249 $372 $367 $517 reversed $365 $-1 #
vertex $-1 $250 $528 #
straight-curve $-1 0 28.895769913011463 10.543556464032603 -1 0 0 I I #
coedge $-1 $368 $251 $526 $529 forward $151 $-1 #
vertex $-1 $378 $530 #
straight-curve $-1 0 -28.895769913011463 10.543556464032603 1 0 0 I I #
edge $-1 $257 -10.543556464032603 $374 10.543556464032603 $254 $531 forward 7 unknown #
point $-1 54.564653462324898 -28.895769913011463 10.543556464032603 #
point $-1 54.564653462324898 28.895769913011463 10.543556464032603 #
face $-1 $-1 $403 $37 $-1 $532 reversed single #
loop $-1 $-1 $533 $259 #
plane-surface $-1 0 -42.74700482008592 -7.5512869664900029 0 1 0 0 0 1 forward_v I I I I #
coedge $-1 $534 $262 $271 $407 reversed $159 $-1 #
coedge $-1 $262 $534 $263 $395 reversed $159 $-1 #
coedge $-1 $264 $263 $535 $536 forward $101 $-1 #
edge $-1 $399 28.895769913011463 $537 42.74700482008592 $393 $538 forward 7 unknown #
coedge $-1 $539 $268 $264 $397 reversed $403 $-1 #
edge $-1 $540 -42.74700482008592 $398 -28.895769913011463 $396 $541 forward 7 unknown #
vertex $-1 $269 $542 #
vertex $-1 $395 $543 #
straight-curve $-1 0 -28.895769913011463 -10.543556464032603 1 0 0 I I #
straight-curve $-1 54.564653462324898 -28.895769913011463 0 0 0 1 I I #
coedge $-1 $268 $539 $270 $406 reversed $403 $-1 #
loop $-1 $-1 $268 $389 #
straight-curve $-1 -54.564653462324898 -28.895769913011463 0 0 0 -1 I I #
coedge $-1 $271 $270 $544 $545 forward $260 $-1 #
edge $-1 $272 -6.9256174535372281 $546 6.9256174535372281 $402 $547 forward 7 unknown #
edge $-1 $548 -6.9256174535372281 $273 6.9256174535372281 $392 $549 forward 7 unknown #
point $-1 -54.564653462324898 -28.895769913011463 -4.5590174689474026 #
point $-1 54.564653462324898 -28.895769913011463 -4.5590174689474026 #
face $-1 $-1 $427 $38 $-1 $550 reversed single #
loop $-1 $-1 $423 $275 #
plane-surface $-1 -54.564653462324898 0 0 1 0 0 0 0 -1 forward_v I I I I #
coedge $-1 $430 $278 $279 $417 reversed $167 $-1 #
coedge $-1 $423 $551 $278 $415 forward $411 $-1 #
edge $-1 $552 -3.7183325755475742 $431 2.1924559040325065 $414 $553 forward 7 unknown #
coedge $-1 $280 $279 $551 $554 reversed $105 $-1 #
edge $-1 $420 -54.564653462324898 $552 54.564653462324898 $413 $555 forward 7 unknown #
coedge $-1 $426 $425 $280 $419 forward $427 $-1 #
edge $-1 $421 -54.564653462324898 $556 54.564653462324898 $418 $557 forward 7 unknown #
vertex $-1 $282 $558 #
vertex $-1 $419 $559 #
straight-curve $-1 54.564653462324898 10.994579813835912 -4.4812709113051081 0 1 0 I I #
coedge $-1 $560 $414 $283 $424 forward $411 $-1 #
edge $-1 $431 4.0879695284962736 $428 17.901190099175551 $423 $561 forward 7 unknown #
coedge $-1 $418 $284 $289 $434 forward $427 $-1 #
coedge $-1 $284 $418 $560 $562 reversed $427 $-1 #
loop $-1 $-1 $284 $410 #
vertex $-1 $562 $563 #
straight-curve $-1 0 28.895769913011463 1.4295175682749726 1 0 0 I I #
coedge $-1 $286 $413 $288 $433 reversed $167 $-1 #
vertex $-1 $424 $564 #
straight-curve $-1 0 15.082549342332186 1.4295175682749726 1 0 0 I I #
edge $-1 $291 -2.1924559040325065 $420 3.7183325755475742 $288 $565 forward 7 unknown #
edge $-1 $290 -1.4295175682749726 $421 4.4812709113051081 $289 $566 forward 7 unknown #
point $-1 54.564653462324898 28.895769913011463 1.4295175682749726 #
point $-1 54.564653462324898 15.082549342332186 1.4295175682749726 #
loop $-1 $-1 $301 $293 #
plane-surface $-1 54.564653462324898 0 0 -1 0 0 0 0 1 forward_v I I I I #
coedge $-1 $440 $296 $298 $444 reversed $175 $-1 #
coedge $-1 $296 $439 $567 $568 reversed $175 $-1 #
coedge $-1 $304 $299 $296 $442 forward $294 $-1 #
edge $-1 $445 15.214474934441618 $569 21.899492616773777 $441 $570 forward 7 unknown #
coedge $-1 $298 $297 $448 $571 reversed $109 $-1 #
edge $-1 $572 -109.12930692464982 $445 -98.939647939579373 $439 $573 forward 7 unknown #
vertex $-1 $300 $574 #
straight-curve $-1 47.879635779992725 -5.0112712628525582 10.543556464032598 0 -1 0 I I #
coedge $-1 $567 $301 $304 $452 reversed $437 $-1 #
coedge $-1 $301 $567 $443 $571 forward $437 $-1 #
vertex $-1 $302 $575 #
straight-curve $-1 54.564653462324898 -7.0037748276773861 78.404761771412069 0 0 1 I I #
straight-curve $-1 -17.030612632528943 -7.0037748276773861 85.214257447970297 0.65605901945558964 0 -0.75470958851134928 I I #
edge $-1 $569 -13.041310223732847 $305 -7.0037748276773861 $447 $576 forward 7 unknown #
point $-1 54.564653462324898 -7.0037748276773861 10.543556464032603 #
point $-1 47.879635779992739 -7.0037748276773861 10.543556464032605 #
edge $-1 $577 1 $577 0 $308 $-1 forward 7 unknown #
vertex $-1 $309 $578 #
ellipse-curve $-1 50.279016752401581 -11.316300110574144 5.8785912667296429 0.75470958851134928 0 0.65605901945558964 0.32802950972779482 0 -0.37735479425567464 1 I I #
point $-1 51.55017413088661 -11.316300110574144 6.3210849999301821 #
edge $-1 $579 1 $579 0 $312 $-1 forward 7 unknown #
vertex $-1 $313 $580 #
ellipse-curve $-1 50.279016752401581 -8.7287849408360891 5.8785912667296429 0.75470958851134928 0 0.65605901945558964 0.32802950972779482 0 -0.37735479425567464 1 I I #
point $-1 51.55017413088661 -8.7287849408360891 6.3210849999301821 #
plane-surface $-1 0 0 10.543556464032603 0 0 1 1 0 0 forward_v I I I I #
coedge $-1 $474 $473 $466 $581 forward $317 $-1 #
coedge $-1 $466 $319 $321 $470 reversed $197 $-1 #
coedge $-1 $319 $465 $464 $581 reversed $197 $-1 #
coedge $-1 $327 $322 $319 $468 forward $328 $-1 #
edge $-1 $471 15.214474934441618 $582 21.899492616773777 $467 $583 forward 7 unknown #
coedge $-1 $321 $320 $474 $584 reversed $123 $-1 #
edge $-1 $585 -109.12930692464982 $471 -98.939647939579373 $465 $586 forward 7 unknown #
vertex $-1 $323 $587 #
straight-curve $-1 47.879635779992725 0.0099094618589745664 10.543556464032598 0 -1 0 I I #
coedge $-1 $464 $324 $327 $478 reversed $317 $-1 #
coedge $-1 $324 $464 $469 $584 forward $317 $-1 #
vertex $-1 $325 $588 #
straight-curve $-1 54.564653462324898 3.0385866217456794 78.404761771412069 0 0 1 I I #
straight-curve $-1 -17.030612632528943 3.0385866217456794 85.214257447970297 0.65605901945558964 0 -0.75470958851134928 I I #
edge $-1 $582 -2.9989487743097811 $329 3.0385866217456794 $473 $589 forward 7 unknown #
point $-1 54.564653462324898 3.0385866217456794 10.543556464032603 #
point $-1 47.879635779992739 3.0385866217456794 10.543556464032605 #
edge $-1 $590 1 $590 0 $332 $-1 forward 7 unknown #
vertex $-1 $333 $591 #
ellipse-curve $-1 50.279016752401581 -1.2739386611510781 5.8785912667296429 0.75470958851134928 0 0.65605901945558964 0.32802950972779482 0 -0.37735479425567464 1 I I #
point $-1 51.55017413088661 -1.2739386611510781 6.3210849999301821 #
edge $-1 $592 1 $592 0 $336 $-1 forward 7 unknown #
vertex $-1 $337 $593 #
ellipse-curve $-1 50.279016752401581 1.3135765085869764 5.8785912667296429 0.75470958851134928 0 0.65605901945558964 0.32802950972779482 0 -0.37735479425567464 1 I I #
point $-1 51.55017413088661 1.3135765085869764 6.3210849999301821 #
plane-surface $-1 0 0 10.543556464032603 0 0 1 1 0 0 forward_v I I I I #
coedge $-1 $500 $499 $492 $594 forward $341 $-1 #
coedge $-1 $492 $343 $345 $496 reversed $219 $-1 #
coedge $-1 $343 $491 $490 $594 reversed $219 $-1 #
coedge $-1 $351 $346 $343 $494 forward $352 $-1 #
edge $-1 $497 15.214474934441618 $595 21.899492616773777 $493 $596 forward 7 unknown #
coedge $-1 $345 $344 $500 $597 reversed $137 $-1 #
edge $-1 $598 -109.12930692464982 $497 -98.939647939579373 $491 $599 forward 7 unknown #
vertex $-1 $347 $600 #
straight-curve $-1 47.879635779992725 5.0310901865705056 10.543556464032598 0 -1 0 I I #
coedge $-1 $490 $348 $351 $504 reversed $341 $-1 #
coedge $-1 $348 $490 $495 $597 forward $341 $-1 #
vertex $-1 $349 $601 #
straight-curve $-1 54.564653462324898 13.080948071168741 78.404761771412069 0 0 1 I I #
straight-curve $-1 -17.030612632528943 13.080948071168741 85.214257447970297 0.65605901945558964 0 -0.75470958851134928 I I #
edge $-1 $595 7.0434126751132808 $353 13.080948071168741 $499 $602 forward 7 unknown #
point $-1 54.564653462324898 13.080948071168741 10.543556464032603 #
point $-1 47.879635779992739 13.080948071168741 10.543556464032605 #
edge $-1 $603 1 $603 0 $356 $-1 forward 7 unknown #
vertex $-1 $357 $604 #
ellipse-curve $-1 50.279016752401581 8.7684227882719838 5.8785912667296429 0.75470958851134928 0 0.65605901945558964 0.32802950972779482 0 -0.37735479425567464 1 I I #
point $-1 51.55017413088661 8.7684227882719838 6.3210849999301821 #
edge $-1 $605 1 $605 0 $360 $-1 forward 7 unknown #
vertex $-1 $361 $606 #
ellipse-curve $-1 50.279016752401581 11.355937958010038 5.8785912667296429 0.75470958851134928 0 0.65605901945558964 0.32802950972779482 0 -0.37735479425567464 1 I I #
point $-1 51.55017413088661 11.355937958010038 6.3210849999301821 #
plane-surface $-1 54.564653462324898 0 0 -1 0 0 0 0 1 forward_v I I I I #
coedge $-1 $526 $367 $370 $519 reversed $241 $-1 #
edge $-1 $381 -10.543556464032603 $522 10.543556464032603 $380 $607 forward 7 unknown #
straight-curve $-1 54.564653462324898 -28.895769913011463 0 0 0 -1 I I #
edge $-1 $520 -28.895769913011463 $522 28.895769913011463 $516 $608 forward 7 unknown #
vertex $-1 $519 $609 #
straight-curve $-1 0 -28.895769913011463 -10.543556464032603 -1 0 0 I I #
vertex $-1 $373 $610 #
straight-curve $-1 0 28.895769913011463 -10.543556464032603 1 0 0 I I #
point $-1 54.564653462324898 28.895769913011463 -10.543556464032603 #
point $-1 54.564653462324898 -28.895769913011463 -10.543556464032603 #
coedge $-1 $377 $516 $383 $529 reversed $241 $-1 #
straight-curve $-1 -54.564653462324898 0 10.543556464032603 0 -1 0 I I #
point $-1 -54.564653462324898 28.895769913011463 10.543556464032603 #
edge $-1 $384 -10.543556464032603 $520 10.543556464032603 $526 $611 forward 7 unknown #
point $-1 -54.564653462324898 -28.895769913011463 10.543556464032603 #
straight-curve $-1 54.564653462324898 28.895769913011463 0 0 0 -1 I I #
plane-surface $-1 -54.564653462324898 0 0 1 0 0 0 0 -1 forward_v I I I I #
coedge $-1 $535 $544 $539 $612 forward $390 $-1 #
coedge $-1 $393 $392 $613 $614 forward $159 $-1 #
coedge $-1 $613 $533 $394 $536 reversed $390 $-1 #
edge $-1 $537 -54.564653462324898 $540 54.564653462324898 $535 $615 forward 7 unknown #
vertex $-1 $614 $616 #
straight-curve $-1 54.564653462324898 0 -10.543556464032603 0 -1 0 I I #
coedge $-1 $402 $396 $533 $612 reversed $403 $-1 #
vertex $-1 $397 $617 #
straight-curve $-1 -54.564653462324898 0 -10.543556464032603 0 1 0 I I #
point $-1 -54.564653462324898 -28.895769913011463 -10.543556464032603 #
point $-1 54.564653462324898 -28.895769913011463 -10.543556464032603 #
coedge $-1 $533 $613 $405 $545 reversed $390 $-1 #
edge $-1 $546 -54.564653462324898 $548 54.564653462324898 $544 $618 forward 7 unknown #
vertex $-1 $406 $619 #
straight-curve $-1 -54.564653462324898 -35.821387366548691 -4.5590174689474026 0 -1 0 I I #
vertex $-1 $407 $620 #
straight-curve $-1 54.564653462324898 -35.821387366548691 -4.5590174689474026 0 1 0 I I #
plane-surface $-1 0 28.895769913011463 0 0 -1 0 0 0 -1 forward_v I I I I #
coedge $-1 $414 $560 $416 $554 forward $411 $-1 #
vertex $-1 $554 $621 #
straight-curve $-1 -54.564653462324898 15.082549342332186 -0.76293833575753389 0 0 1 I I #
edge $-1 $556 -17.901190099175551 $552 -4.0879695284962736 $551 $622 forward 7 unknown #
straight-curve $-1 0 15.082549342332186 -4.4812709113051081 -1 0 0 I I #
vertex $-1 $419 $623 #
straight-curve $-1 0 28.895769913011463 -4.4812709113051081 -1 0 0 I I #
point $-1 54.564653462324898 15.082549342332186 -4.4812709113051081 #
point $-1 54.564653462324898 28.895769913011463 -4.4812709113051081 #
coedge $-1 $551 $423 $426 $562 forward $411 $-1 #
straight-curve $-1 -54.564653462324898 10.994579813835912 1.4295175682749726 0 1 0 I I #
edge $-1 $428 -1.4295175682749726 $556 4.4812709113051081 $426 $624 forward 7 unknown #
point $-1 -54.564653462324898 28.895769913011463 1.4295175682749726 #
point $-1 -54.564653462324898 15.082549342332186 1.4295175682749726 #
straight-curve $-1 54.564653462324898 15.082549342332186 -0.76293833575753389 0 0 -1 I I #
straight-curve $-1 54.564653462324898 28.895769913011463 0 0 0 -1 I I #
coedge $-1 $448 $447 $440 $568 forward $437 $-1 #
edge $-1 $569 67.861205307379464 $572 75.551438647072956 $567 $625 forward 7 unknown #
vertex $-1 $452 $626 #
straight-curve $-1 32.665160845551121 -13.041310223732847 10.543556464032605 1 0 0 I I #
edge $-1 $572 -8.0300389608802885 $449 -1.9925035648248279 $448 $627 forward 7 unknown #
vertex $-1 $571 $628 #
straight-curve $-1 -17.030612632528943 -13.041310223732847 85.214257447970297 -0.65605901945558964 0 0.75470958851134928 I I #
point $-1 47.879635779992739 -13.041310223732847 10.543556464032605 #
point $-1 54.564653462324898 -7.0037748276773861 2.8533231243391128 #
straight-curve $-1 54.564653462324898 0 10.543556464032603 0 1 0 I I #
vertex $-1 $455 $629 #
point $-1 50.607046262129373 -11.316300110574144 5.501236472473968 #
vertex $-1 $459 $630 #
point $-1 50.607046262129373 -8.7287849408360891 5.501236472473968 #
edge $-1 $582 67.861205307379464 $585 75.551438647072956 $464 $631 forward 7 unknown #
vertex $-1 $478 $632 #
straight-curve $-1 32.665160845551121 -2.9989487743097811 10.543556464032605 1 0 0 I I #
edge $-1 $585 -3.0088582361687557 $475 3.0286771598867048 $474 $633 forward 7 unknown #
vertex $-1 $584 $634 #
straight-curve $-1 -17.030612632528943 -2.9989487743097811 85.214257447970297 -0.65605901945558964 0 0.75470958851134928 I I #
point $-1 47.879635779992739 -2.9989487743097811 10.543556464032605 #
point $-1 54.564653462324898 3.0385866217456794 2.8533231243391128 #
straight-curve $-1 54.564653462324898 0 10.543556464032603 0 1 0 I I #
vertex $-1 $481 $635 #
point $-1 50.607046262129373 -1.2739386611510781 5.501236472473968 #
vertex $-1 $485 $636 #
point $-1 50.607046262129373 1.3135765085869764 5.501236472473968 #
edge $-1 $595 67.861205307379464 $598 75.551438647072956 $490 $637 forward 7 unknown #
vertex $-1 $504 $638 #
straight-curve $-1 32.665160845551121 7.0434126751132808 10.543556464032605 1 0 0 I I #
edge $-1 $598 2.0123224885427753 $501 8.0498578845982358 $500 $639 forward 7 unknown #
vertex $-1 $597 $640 #
straight-curve $-1 -17.030612632528943 7.0434126751132808 85.214257447970297 -0.65605901945558964 0 0.75470958851134928 I I #
point $-1 47.879635779992739 7.0434126751132808 10.543556464032605 #
point $-1 54.564653462324898 13.080948071168741 2.8533231243391128 #
straight-curve $-1 54.564653462324898 0 10.543556464032603 0 1 0 I I #
vertex $-1 $507 $641 #
point $-1 50.607046262129373 8.7684227882719838 5.501236472473968 #
vertex $-1 $511 $642 #
point $-1 50.607046262129373 11.355937958010038 5.501236472473968 #
straight-curve $-1 -54.564653462324898 28.895769913011463 0 0 0 -1 I I #
straight-curve $-1 -54.564653462324898 0 -10.543556464032603 0 1 0 I I #
point $-1 -54.564653462324898 -28.895769913011463 -10.543556464032603 #
point $-1 -54.564653462324898 28.895769913011463 -10.543556464032603 #
straight-curve $-1 -54.564653462324898 -28.895769913011463 0 0 0 -1 I I #
edge $-1 $546 -2.9922694975426003 $540 2.9922694975426003 $539 $643 forward 7 unknown #
coedge $-1 $544 $535 $534 $614 reversed $390 $-1 #
edge $-1 $548 -2.9922694975426003 $537 2.9922694975426003 $534 $644 forward 7 unknown #
straight-curve $-1 0 -42.74700482008592 -10.543556464032603 -1 0 0 I I #
point $-1 54.564653462324898 -42.74700482008592 -10.543556464032603 #
point $-1 -54.564653462324898 -42.74700482008592 -10.543556464032603 #
straight-curve $-1 0 -42.74700482008592 -4.5590174689474026 1 0 0 I I #
point $-1 -54.564653462324898 -42.74700482008592 -4.5590174689474026 #
point $-1 54.564653462324898 -42.74700482008592 -4.5590174689474026 #
point $-1 -54.564653462324898 15.082549342332186 -4.4812709113051081 #
straight-curve $-1 -54.564653462324898 10.994579813835912 -4.4812709113051081 0 -1 0 I I #
point $-1 -54.564653462324898 28.895769913011463 -4.4812709113051081 #
straight-curve $-1 -54.564653462324898 28.895769913011463 0 0 0 -1 I I #
straight-curve $-1 54.564653462324898 -13.041310223732847 78.404761771412069 0 0 -1 I I #
point $-1 54.564653462324898 -13.041310223732847 10.543556464032603 #
straight-curve $-1 54.564653462324898 -5.0112712628525582 2.8533231243390986 0 1 0 I I #
point $-1 54.564653462324898 -13.041310223732847 2.8533231243391128 #
point $-1 49.901661958145901 -11.316300110574144 5.550561757001848 #
point $-1 49.901661958145901 -8.7287849408360891 5.550561757001848 #
straight-curve $-1 54.564653462324898 -2.9989487743097811 78.404761771412069 0 0 -1 I I #
point $-1 54.564653462324898 -2.9989487743097811 10.543556464032603 #
straight-curve $-1 54.564653462324898 0.0099094618589745664 2.8533231243390986 0 1 0 I I #
point $-1 54.564653462324898 -2.9989487743097811 2.8533231243391128 #
point $-1 49.901661958145901 -1.2739386611510781 5.550561757001848 #
point $-1 49.901661958145901 1.3135765085869764 5.550561757001848 #
straight-curve $-1 54.564653462324898 7.0434126751132808 78.404761771412069 0 0 -1 I I #
point $-1 54.564653462324898 7.0434126751132808 10.543556464032603 #
straight-curve $-1 54.564653462324898 5.0310901865705056 2.8533231243390986 0 1 0 I I #
point $-1 54.564653462324898 7.0434126751132808 2.8533231243391128 #
point $-1 49.901661958145901 8.7684227882719838 5.550561757001848 #
point $-1 49.901661958145901 11.355937958010038 5.550561757001848 #
straight-curve $-1 -54.564653462324898 -42.74700482008592 -7.5512869664900029 0 0 -1 I I #
straight-curve $-1 54.564653462324898 -42.74700482008592 -7.5512869664900029 0 0 -1 I I #
End-of-ACIS-data 