500 0 5 0           
7 Unknown 11 ACIS 5.0 NT 24 Thu Mar 25 23:41:09 1999 
-1 9.9999999999999995e-007 1e-010 
body $-1 $5 $-1 $6 #
body $-1 $7 $-1 $8 #
body $-1 $9 $-1 $10 #
body $-1 $11 $-1 $12 #
body $-1 $13 $-1 $14 #
lump $-1 $-1 $15 $0 #
transform $-1 1 0 0 0 1 0 0 0 1 50.845057527390367 31.839026990005554 15.422499355612908 1 rotate no_reflect no_shear #
lump $-1 $-1 $16 $1 #
transform $-1 1 0 0 0 1 0 0 0 1 50.845057527390367 31.839026990005554 15.422499355612908 1 rotate no_reflect no_shear #
lump $-1 $-1 $17 $2 #
transform $-1 1 0 0 0 1 0 0 0 1 50.845057527390367 31.839026990005554 15.422499355612908 1 rotate no_reflect no_shear #
lump $-1 $-1 $18 $3 #
transform $-1 1 0 0 0 1 0 0 0 1 50.845057527390367 31.839026990005554 15.422499355612908 1 rotate no_reflect no_shear #
lump $-1 $-1 $19 $4 #
transform $-1 1 0 0 0 1 0 0 0 1 50.845057527390367 31.839026990005554 15.422499355612908 1 rotate no_reflect no_shear #
shell $-1 $-1 $-1 $20 $-1 $5 #
shell $-1 $-1 $-1 $21 $-1 $7 #
shell $-1 $-1 $-1 $22 $-1 $9 #
shell $-1 $-1 $-1 $23 $-1 $11 #
shell $-1 $-1 $-1 $24 $-1 $13 #
face $-1 $25 $26 $15 $-1 $27 forward single #
face $-1 $28 $29 $16 $-1 $30 forward single #
face $-1 $31 $32 $17 $-1 $33 forward single #
face $-1 $34 $35 $18 $-1 $36 reversed single #
face $-1 $37 $38 $19 $-1 $39 reversed single #
face $-1 $40 $41 $15 $-1 $42 reversed single #
loop $-1 $-1 $43 $20 #
plane-surface $-1 0 0 15.422499355612908 0 0 1 1 0 0 forward_v I I I I #
face $-1 $44 $45 $16 $-1 $46 forward single #
loop $-1 $-1 $47 $21 #
plane-surface $-1 -46.446677626018037 -21.196386942720881 0 0 -1 0 0 0 -1 forward_v I I I I #
face $-1 $48 $49 $17 $-1 $50 forward single #
loop $-1 $-1 $51 $22 #
plane-surface $-1 -138.01049975371382 13.017939896976376 53.281883866548874 0 1 0 -0.85716730853699208 0 0.51503806187062418 forward_v I I I I #
face $-1 $52 $53 $18 $-1 $54 reversed single #
loop $-1 $55 $56 $23 #
cone-surface $-1 -46.0557595483778 14.908687945537327 7.9075326955380554 0.85716730853699208 0 -0.51503806187062418 0.25751903093531209 0 0.42858365426849604 1 I I 0 1 0.5 forward I I I I #
face $-1 $57 $58 $19 $-1 $59 reversed single #
loop $-1 $60 $61 $24 #
cone-surface $-1 -46.0557595483778 17.744810018378754 7.9075326955380554 0.85716730853699208 0 -0.51503806187062418 0.25751903093531209 0 0.42858365426849604 1 I I 0 1 0.5 forward I I I I #
face $-1 $62 $63 $15 $-1 $64 reversed single #
loop $-1 $-1 $65 $25 #
plane-surface $-1 0 0 -15.422499355612908 0 0 1 1 0 0 forward_v I I I I #
coedge $-1 $66 $67 $68 $69 forward $26 $-1 #
face $-1 $70 $71 $16 $-1 $72 forward single #
loop $-1 $-1 $73 $28 #
plane-surface $-1 -42.048297724645707 -26.517706966363217 0 -1 0 0 0 0 1 forward_v I I I I #
coedge $-1 $74 $75 $76 $77 reversed $29 $-1 #
face $-1 $78 $79 $17 $-1 $80 forward single #
loop $-1 $-1 $81 $31 #
plane-surface $-1 -50.845057527390352 16.326748981958037 0.90760409733382374 -0.85716730853699208 0 0.51503806187062418 0.51503806187062418 0 0.85716730853699208 forward_v I I I I #
coedge $-1 $82 $83 $84 $85 reversed $32 $-1 #
face $-1 $86 $87 $18 $-1 $88 forward single #
loop $-1 $89 $90 $34 #
cone-surface $-1 -45.412884066975053 14.908687945537327 7.5212541491350873 0.85716730853699208 0 -0.51503806187062418 0.12875951546765604 0 0.21429182713424802 1 I I -0.70710678118654746 0.70710678118654746 0.25 forward I I I I #
loop $-1 $-1 $91 $23 #
coedge $-1 $56 $56 $92 $93 reversed $35 $-1 #
face $-1 $94 $95 $19 $-1 $96 reversed single #
loop $-1 $97 $98 $37 #
cone-surface $-1 -45.412884066975053 17.744810018378754 7.5212541491350873 0.85716730853699208 0 -0.51503806187062418 0.12875951546765604 0 0.21429182713424802 1 I I -0.70710678118654746 0.70710678118654746 0.25 forward I I I I #
loop $-1 $-1 $99 $24 #
coedge $-1 $61 $61 $100 $101 reversed $38 $-1 #
face $-1 $102 $103 $15 $-1 $104 reversed single #
loop $-1 $-1 $105 $40 #
plane-surface $-1 0 -31.839026990005554 0 0 1 0 0 0 1 forward_v I I I I #
coedge $-1 $106 $107 $108 $109 forward $41 $-1 #
coedge $-1 $110 $43 $111 $112 forward $26 $-1 #
coedge $-1 $43 $110 $113 $114 forward $26 $-1 #
coedge $-1 $115 $116 $43 $69 reversed $117 $-1 #
edge $-1 $118 -31.839026990005554 $119 31.839026990005554 $68 $120 forward 7 unknown #
face $-1 $121 $122 $16 $-1 $123 reversed single #
loop $-1 $-1 $124 $44 #
plane-surface $-1 0 0 15.422499355612908 0 0 1 1 0 0 forward_v I I I I #
coedge $-1 $125 $126 $127 $128 reversed $45 $-1 #
coedge $-1 $129 $47 $124 $130 reversed $29 $-1 #
coedge $-1 $47 $129 $131 $132 reversed $29 $-1 #
coedge $-1 $126 $125 $47 $77 forward $45 $-1 #
edge $-1 $133 -15.422499355612908 $134 15.422499355612908 $76 $135 forward 7 unknown #
face $-1 $136 $137 $17 $-1 $138 forward single #
loop $-1 $-1 $139 $48 #
plane-surface $-1 -138.01049975371382 19.635558066939698 53.281883866548874 0 -1 0 0.85716730853699208 0 -0.51503806187062418 forward_v I I I I #
coedge $-1 $140 $141 $142 $143 reversed $49 $-1 #
coedge $-1 $83 $51 $141 $144 forward $32 $-1 #
coedge $-1 $51 $82 $145 $146 reversed $32 $-1 #
coedge $-1 $147 $142 $51 $85 forward $137 $-1 #
edge $-1 $148 -26.881620998954709 $149 -18.160192349466541 $84 $150 forward 7 unknown #
face $-1 $151 $152 $18 $-1 $153 forward single #
loop $-1 $-1 $154 $52 #
plane-surface $-1 -138.01049975371382 13.017939896976376 53.281883866548874 0 1 0 -0.85716730853699208 0 0.51503806187062418 forward_v I I I I #
loop $-1 $-1 $155 $34 #
coedge $-1 $90 $90 $91 $156 forward $53 $-1 #
coedge $-1 $91 $91 $90 $156 reversed $55 $-1 #
coedge $-1 $92 $92 $56 $93 forward $152 $-1 #
edge $-1 $157 0 $157 6.2831853071796004 $92 $158 forward 7 unknown #
face $-1 $159 $160 $19 $-1 $161 reversed single #
loop $-1 $162 $163 $57 #
cone-surface $-1 -46.0557595483778 14.908687945537327 7.9075326955380554 0.85716730853699208 0 -0.51503806187062418 0.25751903093531209 0 0.42858365426849604 1 I I 0 1 0.5 forward I I I I #
loop $-1 $-1 $164 $37 #
coedge $-1 $98 $98 $99 $165 forward $58 $-1 #
coedge $-1 $99 $99 $98 $165 reversed $60 $-1 #
coedge $-1 $100 $100 $61 $101 forward $166 $-1 #
edge $-1 $167 0 $167 6.2831853071796004 $100 $168 forward 7 unknown #
face $-1 $169 $170 $15 $-1 $171 reversed single #
loop $-1 $-1 $172 $62 #
plane-surface $-1 -50.845057527390367 0 0 1 0 0 0 0 -1 forward_v I I I I #
coedge $-1 $173 $113 $174 $175 forward $63 $-1 #
coedge $-1 $176 $65 $173 $177 forward $41 $-1 #
coedge $-1 $65 $176 $178 $179 forward $41 $-1 #
coedge $-1 $116 $115 $65 $109 reversed $117 $-1 #
edge $-1 $180 -31.839026990005554 $181 31.839026990005554 $108 $182 forward 7 unknown #
coedge $-1 $67 $66 $183 $184 forward $26 $-1 #
coedge $-1 $185 $186 $66 $112 reversed $170 $-1 #
edge $-1 $119 -50.845057527390367 $187 50.845057527390367 $111 $188 forward 7 unknown #
coedge $-1 $105 $189 $67 $114 reversed $63 $-1 #
edge $-1 $190 -50.845057527390367 $118 50.845057527390367 $113 $191 forward 7 unknown #
coedge $-1 $108 $68 $189 $192 forward $117 $-1 #
coedge $-1 $68 $108 $185 $193 reversed $117 $-1 #
loop $-1 $-1 $115 $169 #
vertex $-1 $69 $194 #
vertex $-1 $69 $195 #
straight-curve $-1 50.845057527390367 0 15.422499355612908 0 1 0 I I #
face $-1 $196 $197 $16 $-1 $198 reversed single #
loop $-1 $-1 $127 $70 #
plane-surface $-1 0 -31.839026990005554 0 0 1 0 0 0 1 forward_v I I I I #
coedge $-1 $199 $200 $74 $130 forward $71 $-1 #
coedge $-1 $76 $73 $199 $201 reversed $45 $-1 #
coedge $-1 $73 $76 $202 $203 reversed $45 $-1 #
coedge $-1 $204 $205 $73 $128 forward $122 $-1 #
edge $-1 $206 -15.422499355612908 $207 15.422499355612908 $127 $208 forward 7 unknown #
coedge $-1 $75 $74 $209 $210 reversed $29 $-1 #
edge $-1 $211 -27.621718714381348 $133 -18.824958911636688 $124 $212 forward 7 unknown #
coedge $-1 $213 $202 $75 $132 forward $197 $-1 #
edge $-1 $134 18.824958911636688 $214 27.621718714381348 $131 $215 forward 7 unknown #
vertex $-1 $130 $216 #
vertex $-1 $132 $217 #
straight-curve $-1 -42.048297724645707 -21.196386942720881 0 0 0 -1 I I #
face $-1 $218 $219 $17 $-1 $220 forward single #
loop $-1 $-1 $221 $78 #
plane-surface $-1 0 0 15.422499355612908 0 0 1 1 0 0 forward_v I I I I #
coedge $-1 $222 $223 $221 $224 reversed $79 $-1 #
coedge $-1 $225 $81 $223 $226 reversed $49 $-1 #
coedge $-1 $81 $225 $82 $144 reversed $49 $-1 #
coedge $-1 $84 $221 $81 $143 forward $137 $-1 #
edge $-1 $227 -11.472183575960679 $148 -4.8545654059973575 $142 $228 forward 7 unknown #
edge $-1 $148 -16.93356141061075 $229 2.7589209654379419e-014 $82 $230 forward 7 unknown #
coedge $-1 $231 $232 $83 $146 forward $233 $-1 #
edge $-1 $149 11.218442577661529 $229 25.733337835940638 $145 $234 forward 7 unknown #
coedge $-1 $235 $84 $232 $236 forward $137 $-1 #
vertex $-1 $143 $237 #
vertex $-1 $236 $238 #
straight-curve $-1 -69.005249876856908 13.017939896976376 15.422499355612906 -1 0 0 I I #
face $-1 $239 $240 $18 $-1 $241 forward single #
loop $-1 $242 $92 $86 #
plane-surface $-1 -50.845057527390352 16.326748981958037 0.90760409733382374 -0.85716730853699208 0 0.51503806187062418 0.51503806187062418 0 0.85716730853699208 forward_v I I I I #
coedge $-1 $243 $244 $245 $246 reversed $87 $-1 #
coedge $-1 $155 $155 $-1 $247 forward $89 $-1 #
edge $-1 $248 0 $248 6.2831853071796004 $90 $249 forward 7 unknown #
vertex $-1 $93 $250 #
ellipse-curve $-1 -46.484343202646279 14.908687945537327 8.165051726473358 0.85716730853699208 0 -0.51503806187062418 0.25751903093531209 0 0.42858365426849604 1 I I #
face $-1 $251 $252 $19 $-1 $253 forward single #
loop $-1 $254 $255 $94 #
cone-surface $-1 -45.412884066975053 14.908687945537327 7.5212541491350873 0.85716730853699208 0 -0.51503806187062418 0.12875951546765604 0 0.21429182713424802 1 I I -0.70710678118654746 0.70710678118654746 0.25 forward I I I I #
loop $-1 $-1 $256 $57 #
coedge $-1 $163 $163 $257 $258 reversed $95 $-1 #
coedge $-1 $164 $164 $-1 $259 forward $97 $-1 #
edge $-1 $260 0 $260 6.2831853071796004 $98 $261 forward 7 unknown #
loop $-1 $262 $100 $251 #
vertex $-1 $101 $263 #
ellipse-curve $-1 -46.484343202646279 17.744810018378754 8.165051726473358 0.85716730853699208 0 -0.51503806187062418 0.25751903093531209 0 0.42858365426849604 1 I I #
face $-1 $-1 $117 $15 $-1 $264 reversed single #
loop $-1 $-1 $185 $102 #
plane-surface $-1 0 31.839026990005554 0 0 -1 0 0 0 -1 forward_v I I I I #
coedge $-1 $265 $183 $186 $266 forward $103 $-1 #
coedge $-1 $189 $105 $106 $177 reversed $63 $-1 #
coedge $-1 $183 $265 $105 $175 reversed $103 $-1 #
edge $-1 $190 -15.422499355612908 $267 15.422499355612908 $174 $268 forward 7 unknown #
coedge $-1 $107 $106 $265 $269 forward $41 $-1 #
edge $-1 $181 -50.845057527390367 $267 50.845057527390367 $173 $270 forward 7 unknown #
coedge $-1 $186 $185 $107 $179 reversed $170 $-1 #
edge $-1 $271 -50.845057527390367 $180 50.845057527390367 $178 $272 forward 7 unknown #
vertex $-1 $109 $273 #
vertex $-1 $192 $274 #
straight-curve $-1 50.845057527390367 0 -15.422499355612908 0 -1 0 I I #
coedge $-1 $172 $174 $110 $184 reversed $103 $-1 #
edge $-1 $187 -31.839026990005554 $190 31.839026990005554 $183 $275 forward 7 unknown #
coedge $-1 $178 $111 $116 $193 forward $170 $-1 #
coedge $-1 $111 $178 $172 $266 reversed $170 $-1 #
vertex $-1 $112 $276 #
straight-curve $-1 0 31.839026990005554 15.422499355612908 -1 0 0 I I #
coedge $-1 $113 $173 $115 $192 reversed $63 $-1 #
vertex $-1 $184 $277 #
straight-curve $-1 0 -31.839026990005554 15.422499355612908 1 0 0 I I #
edge $-1 $118 -15.422499355612908 $181 15.422499355612908 $115 $278 forward 7 unknown #
edge $-1 $119 -15.422499355612908 $180 15.422499355612908 $116 $279 forward 7 unknown #
point $-1 50.845057527390367 -31.839026990005554 15.422499355612908 #
point $-1 50.845057527390367 31.839026990005554 15.422499355612908 #
face $-1 $280 $281 $16 $-1 $282 reversed single #
loop $-1 $-1 $131 $121 #
plane-surface $-1 0 0 -15.422499355612908 0 0 1 1 0 0 forward_v I I I I #
coedge $-1 $283 $124 $125 $201 forward $71 $-1 #
coedge $-1 $124 $284 $285 $286 forward $71 $-1 #
edge $-1 $133 7.9375334595392726 $206 18.580173506823947 $199 $287 forward 7 unknown #
coedge $-1 $131 $288 $126 $203 forward $197 $-1 #
edge $-1 $207 -18.580173506823947 $134 -7.9375334595392726 $202 $289 forward 7 unknown #
coedge $-1 $290 $127 $288 $291 reversed $122 $-1 #
coedge $-1 $127 $290 $283 $292 reversed $122 $-1 #
vertex $-1 $292 $293 #
vertex $-1 $128 $294 #
straight-curve $-1 -42.048297724645707 -31.839026990005554 0 0 0 -1 I I #
coedge $-1 $285 $295 $129 $210 forward $281 $-1 #
edge $-1 $214 -15.422499355612908 $211 15.422499355612908 $209 $296 forward 7 unknown #
vertex $-1 $210 $297 #
straight-curve $-1 -23.223338813009018 -21.196386942720881 15.422499355612908 1 0 0 I I #
coedge $-1 $298 $131 $295 $299 forward $197 $-1 #
vertex $-1 $299 $300 #
straight-curve $-1 -23.223338813009018 -21.196386942720881 -15.422499355612908 -1 0 0 I I #
point $-1 -42.048297724645707 -21.196386942720881 15.422499355612908 #
point $-1 -42.048297724645707 -21.196386942720881 -15.422499355612908 #
face $-1 $301 $302 $17 $-1 $303 forward single #
loop $-1 $-1 $304 $136 #
plane-surface $-1 -46.446677626018037 -21.196386942720881 0 0 -1 0 0 0 -1 forward_v I I I I #
coedge $-1 $142 $305 $139 $224 forward $137 $-1 #
coedge $-1 $223 $139 $306 $307 reversed $79 $-1 #
coedge $-1 $139 $222 $140 $226 forward $79 $-1 #
edge $-1 $308 18.160192349466541 $227 26.881620998954709 $221 $309 forward 7 unknown #
coedge $-1 $141 $140 $231 $310 reversed $49 $-1 #
edge $-1 $311 -2.7589209654379419e-014 $227 16.93356141061075 $223 $312 forward 7 unknown #
vertex $-1 $143 $313 #
straight-curve $-1 -42.123628877902199 8.1633744909790185 15.422499355612908 0 -1 0 I I #
vertex $-1 $310 $314 #
straight-curve $-1 -50.845057527390352 13.017939896976376 0.90760409733382374 -0.51503806187062418 0 -0.85716730853699208 I I #
coedge $-1 $306 $145 $225 $310 forward $233 $-1 #
coedge $-1 $145 $315 $147 $236 reversed $233 $-1 #
loop $-1 $-1 $306 $316 #
straight-curve $-1 -50.845057527390367 13.017939896976376 26.640941933274437 0 0 -1 I I #
coedge $-1 $317 $147 $318 $319 forward $137 $-1 #
edge $-1 $149 -13.017939896976376 $320 21.196386942720881 $232 $321 forward 7 unknown #
point $-1 -42.123628877902199 13.017939896976376 15.422499355612906 #
point $-1 -50.845057527390367 13.017939896976376 15.422499355612908 #
face $-1 $322 $323 $18 $-1 $324 forward single #
loop $-1 $-1 $325 $151 #
plane-surface $-1 -138.01049975371382 19.635558066939698 53.281883866548874 0 -1 0 0.85716730853699208 0 -0.51503806187062418 forward_v I I I I #
loop $-1 $-1 $326 $86 #
coedge $-1 $244 $154 $327 $328 forward $87 $-1 #
coedge $-1 $154 $243 $329 $330 reversed $87 $-1 #
coedge $-1 $331 $332 $154 $246 forward $323 $-1 #
edge $-1 $333 -26.881620998954709 $334 -18.160192349466541 $245 $335 forward 7 unknown #
edge $-1 $336 1 $336 0 $155 $-1 forward 7 unknown #
vertex $-1 $156 $337 #
ellipse-curve $-1 -45.6271758941093 14.908687945537327 7.650013664602743 -0.85716730853699208 0 0.51503806187062418 0.25751903093531209 0 0.42858365426849604 1 I I #
point $-1 -46.22682417171098 14.908687945537327 8.5936353807418637 #
face $-1 $338 $166 $19 $-1 $339 forward single #
loop $-1 $-1 $340 $159 #
plane-surface $-1 -138.01049975371382 13.017939896976376 53.281883866548874 0 1 0 -0.85716730853699208 0 0.51503806187062418 forward_v I I I I #
loop $-1 $-1 $341 $94 #
coedge $-1 $255 $255 $256 $342 forward $160 $-1 #
coedge $-1 $256 $256 $255 $342 reversed $162 $-1 #
coedge $-1 $257 $257 $163 $258 forward $262 $-1 #
edge $-1 $343 0 $343 6.2831853071796004 $257 $344 forward 7 unknown #
edge $-1 $345 1 $345 0 $164 $-1 forward 7 unknown #
vertex $-1 $165 $346 #
ellipse-curve $-1 -45.6271758941093 17.744810018378754 7.650013664602743 -0.85716730853699208 0 0.51503806187062418 0.25751903093531209 0 0.42858365426849604 1 I I #
loop $-1 $347 $257 $251 #
point $-1 -46.22682417171098 17.744810018378754 8.5936353807418637 #
plane-surface $-1 50.845057527390367 0 0 -1 0 0 0 0 1 forward_v I I I I #
coedge $-1 $174 $172 $176 $269 reversed $103 $-1 #
edge $-1 $187 -15.422499355612908 $271 15.422499355612908 $186 $348 forward 7 unknown #
vertex $-1 $269 $349 #
straight-curve $-1 -50.845057527390367 -31.839026990005554 0 0 0 -1 I I #
edge $-1 $267 -31.839026990005554 $271 31.839026990005554 $265 $350 forward 7 unknown #
straight-curve $-1 0 -31.839026990005554 -15.422499355612908 -1 0 0 I I #
vertex $-1 $179 $351 #
straight-curve $-1 0 31.839026990005554 -15.422499355612908 1 0 0 I I #
point $-1 50.845057527390367 31.839026990005554 -15.422499355612908 #
point $-1 50.845057527390367 -31.839026990005554 -15.422499355612908 #
straight-curve $-1 -50.845057527390367 0 15.422499355612908 0 -1 0 I I #
point $-1 -50.845057527390367 31.839026990005554 15.422499355612908 #
point $-1 -50.845057527390367 -31.839026990005554 15.422499355612908 #
straight-curve $-1 50.845057527390367 -31.839026990005554 0 0 0 -1 I I #
straight-curve $-1 50.845057527390367 31.839026990005554 0 0 0 -1 I I #
face $-1 $352 $353 $16 $-1 $354 reversed single #
loop $-1 $-1 $209 $196 #
plane-surface $-1 -50.845057527390367 0 0 1 0 0 0 0 -1 forward_v I I I I #
coedge $-1 $355 $199 $205 $292 forward $71 $-1 #
coedge $-1 $200 $355 $356 $357 forward $71 $-1 #
coedge $-1 $358 $209 $200 $286 reversed $281 $-1 #
edge $-1 $359 -31.839026990005554 $211 21.196386942720881 $285 $360 forward 7 unknown #
straight-curve $-1 -42.048297724645707 -13.258853483181609 15.422499355612908 0 -1 0 I I #
coedge $-1 $202 $361 $204 $291 forward $197 $-1 #
straight-curve $-1 -42.048297724645707 -13.258853483181609 -15.422499355612908 0 1 0 I I #
coedge $-1 $205 $204 $362 $363 reversed $122 $-1 #
edge $-1 $364 -50.845057527390367 $207 42.048297724645707 $204 $365 forward 7 unknown #
edge $-1 $206 -42.048297724645707 $366 50.845057527390367 $205 $367 forward 7 unknown #
point $-1 -42.048297724645707 -31.839026990005554 15.422499355612908 #
point $-1 -42.048297724645707 -31.839026990005554 -15.422499355612908 #
coedge $-1 $209 $358 $213 $299 reversed $281 $-1 #
straight-curve $-1 -50.845057527390367 -21.196386942720881 0 0 0 1 I I #
point $-1 -50.845057527390367 -21.196386942720881 15.422499355612908 #
coedge $-1 $361 $213 $368 $369 forward $197 $-1 #
edge $-1 $214 -21.196386942720881 $370 31.839026990005554 $295 $371 forward 7 unknown #
point $-1 -50.845057527390367 -21.196386942720881 -15.422499355612908 #
face $-1 $372 $373 $17 $-1 $374 reversed single #
loop $-1 $-1 $375 $218 #
plane-surface $-1 -42.048297724645707 -26.517706966363217 0 -1 0 0 0 0 1 forward_v I I I I #
coedge $-1 $318 $376 $377 $378 reversed $219 $-1 #
coedge $-1 $221 $379 $380 $381 forward $137 $-1 #
coedge $-1 $380 $231 $222 $307 forward $233 $-1 #
edge $-1 $311 -25.733337835940638 $308 -11.218442577661529 $306 $382 forward 7 unknown #
vertex $-1 $307 $383 #
straight-curve $-1 -69.005249876856908 19.635558066939698 15.422499355612906 1 0 0 I I #
edge $-1 $229 4.8545654059973575 $311 11.472183575960679 $231 $384 forward 7 unknown #
vertex $-1 $310 $385 #
straight-curve $-1 -50.845057527390352 19.635558066939698 0.90760409733382374 0.51503806187062418 0 0.85716730853699208 I I #
point $-1 -42.123628877902199 19.635558066939698 15.422499355612906 #
point $-1 -50.845057527390367 13.017939896976376 0.9076040973338001 #
coedge $-1 $232 $386 $387 $388 forward $233 $-1 #
face $-1 $389 $233 $17 $-1 $390 reversed single #
coedge $-1 $391 $235 $392 $393 forward $137 $-1 #
coedge $-1 $387 $304 $235 $319 reversed $219 $-1 #
edge $-1 $320 -27.621718714381348 $394 -18.824958911636688 $235 $395 forward 7 unknown #
vertex $-1 $388 $396 #
straight-curve $-1 -50.845057527390367 0 15.422499355612908 0 -1 0 I I #
face $-1 $397 $398 $18 $-1 $399 forward single #
loop $-1 $-1 $400 $239 #
plane-surface $-1 0 0 15.422499355612908 0 0 1 1 0 0 forward_v I I I I #
coedge $-1 $401 $402 $400 $403 reversed $240 $-1 #
coedge $-1 $404 $327 $332 $405 reversed $242 $-1 #
coedge $-1 $326 $406 $243 $328 reversed $242 $-1 #
edge $-1 $333 -16.93356141061075 $407 2.7589209654379419e-014 $243 $408 forward 7 unknown #
coedge $-1 $409 $410 $244 $330 forward $411 $-1 #
edge $-1 $334 11.218442577661529 $407 25.733337835940638 $329 $412 forward 7 unknown #
coedge $-1 $413 $245 $410 $414 forward $323 $-1 #
coedge $-1 $245 $400 $326 $405 forward $323 $-1 #
vertex $-1 $405 $415 #
vertex $-1 $414 $416 #
straight-curve $-1 -69.005249876856908 13.017939896976376 15.422499355612906 -1 0 0 I I #
vertex $-1 $247 $417 #
point $-1 -45.369656863173986 14.908687945537327 8.078597318871239 #
face $-1 $418 $419 $19 $-1 $420 forward single #
plane-surface $-1 -50.845057527390352 16.326748981958037 0.90760409733382374 -0.85716730853699208 0 0.51503806187062418 0.51503806187062418 0 0.85716730853699208 forward_v I I I I #
coedge $-1 $421 $422 $423 $424 reversed $252 $-1 #
coedge $-1 $341 $341 $-1 $425 forward $254 $-1 #
edge $-1 $426 0 $426 6.2831853071796004 $255 $427 forward 7 unknown #
vertex $-1 $258 $428 #
ellipse-curve $-1 -46.484343202646279 14.908687945537327 8.165051726473358 0.85716730853699208 0 -0.51503806187062418 0.25751903093531209 0 0.42858365426849604 1 I I #
vertex $-1 $259 $429 #
point $-1 -45.369656863173986 17.744810018378754 8.078597318871239 #
loop $-1 $-1 $430 $251 #
straight-curve $-1 -50.845057527390367 31.839026990005554 0 0 0 -1 I I #
point $-1 -50.845057527390367 -31.839026990005554 -15.422499355612908 #
straight-curve $-1 -50.845057527390367 0 -15.422499355612908 0 1 0 I I #
point $-1 -50.845057527390367 31.839026990005554 -15.422499355612908 #
face $-1 $-1 $431 $16 $-1 $432 reversed single #
loop $-1 $-1 $433 $280 #
plane-surface $-1 0 31.839026990005554 0 0 -1 0 0 0 -1 forward_v I I I I #
coedge $-1 $284 $283 $434 $435 forward $71 $-1 #
coedge $-1 $433 $436 $284 $357 reversed $353 $-1 #
edge $-1 $437 -50.845057527390367 $359 50.845057527390367 $356 $438 forward 7 unknown #
coedge $-1 $295 $285 $436 $439 forward $281 $-1 #
vertex $-1 $357 $440 #
straight-curve $-1 -50.845057527390367 0 15.422499355612908 0 -1 0 I I #
coedge $-1 $288 $298 $441 $442 forward $197 $-1 #
coedge $-1 $441 $434 $290 $363 forward $431 $-1 #
edge $-1 $366 -15.422499355612908 $364 15.422499355612908 $362 $443 forward 7 unknown #
vertex $-1 $363 $444 #
straight-curve $-1 0 -31.839026990005554 -15.422499355612908 -1 0 0 I I #
vertex $-1 $435 $445 #
straight-curve $-1 0 -31.839026990005554 15.422499355612908 1 0 0 I I #
coedge $-1 $436 $433 $298 $369 reversed $353 $-1 #
edge $-1 $370 -50.845057527390367 $446 50.845057527390367 $368 $447 forward 7 unknown #
vertex $-1 $369 $448 #
straight-curve $-1 -50.845057527390367 0 -15.422499355612908 0 1 0 I I #
face $-1 $316 $449 $17 $-1 $450 reversed single #
loop $-1 $-1 $451 $301 #
plane-surface $-1 0 -31.839026990005554 0 0 1 0 0 0 1 forward_v I I I I #
coedge $-1 $392 $452 $451 $453 reversed $302 $-1 #
coedge $-1 $304 $387 $454 $455 reversed $219 $-1 #
coedge $-1 $452 $392 $304 $378 forward $302 $-1 #
edge $-1 $394 -15.422499355612908 $456 15.422499355612908 $377 $457 forward 7 unknown #
coedge $-1 $305 $458 $459 $460 forward $137 $-1 #
coedge $-1 $461 $306 $305 $381 reversed $233 $-1 #
edge $-1 $462 -31.839026990005554 $308 -19.635558066939698 $380 $321 forward 7 unknown #
straight-curve $-1 -50.845057527390367 19.635558066939698 26.640941933274437 0 0 1 I I #
point $-1 -50.845057527390367 19.635558066939698 15.422499355612908 #
straight-curve $-1 -50.845057527390367 8.1633744909790185 0.90760409733380065 0 1 0 I I #
point $-1 -50.845057527390367 19.635558066939698 0.9076040973338001 #
coedge $-1 $315 $461 $463 $464 reversed $233 $-1 #
coedge $-1 $376 $318 $315 $388 reversed $219 $-1 #
edge $-1 $465 -15.422499355612908 $320 15.422499355612908 $315 $466 forward 7 unknown #
face $-1 $467 $468 $17 $-1 $469 reversed single #
plane-surface $-1 -50.845057527390367 0 0 1 0 0 0 0 -1 forward_v I I I I #
coedge $-1 $458 $317 $470 $471 forward $137 $-1 #
coedge $-1 $377 $375 $317 $393 reversed $302 $-1 #
edge $-1 $394 7.9375334595392726 $472 18.580173506823947 $317 $473 forward 7 unknown #
vertex $-1 $319 $474 #
straight-curve $-1 -23.223338813009018 -21.196386942720881 15.422499355612908 1 0 0 I I #
point $-1 -50.845057527390367 -21.196386942720881 15.422499355612908 #
face $-1 $475 $476 $18 $-1 $477 forward single #
loop $-1 $-1 $478 $322 #
plane-surface $-1 -46.446677626018037 -21.196386942720881 0 0 -1 0 0 0 -1 forward_v I I I I #
coedge $-1 $332 $479 $325 $403 forward $323 $-1 #
coedge $-1 $402 $325 $480 $481 reversed $240 $-1 #
coedge $-1 $325 $401 $404 $482 forward $240 $-1 #
edge $-1 $483 18.160192349466541 $484 26.881620998954709 $400 $485 forward 7 unknown #
coedge $-1 $406 $326 $402 $482 reversed $242 $-1 #
edge $-1 $484 -11.472183575960679 $333 -4.8545654059973575 $332 $486 forward 7 unknown #
coedge $-1 $327 $404 $409 $487 reversed $242 $-1 #
vertex $-1 $487 $488 #
straight-curve $-1 -50.845057527390352 13.017939896976376 0.90760409733382374 -0.51503806187062418 0 -0.85716730853699208 I I #
coedge $-1 $480 $329 $406 $487 forward $411 $-1 #
coedge $-1 $329 $489 $331 $414 reversed $411 $-1 #
loop $-1 $-1 $480 $490 #
straight-curve $-1 -50.845057527390367 13.017939896976376 26.640941933274437 0 0 -1 I I #
coedge $-1 $491 $331 $492 $493 forward $323 $-1 #
edge $-1 $334 -13.017939896976376 $494 21.196386942720881 $410 $495 forward 7 unknown #
point $-1 -42.123628877902199 13.017939896976376 15.422499355612906 #
point $-1 -50.845057527390367 13.017939896976376 15.422499355612908 #
point $-1 -45.198592239840806 14.908687945537327 7.3924946336674315 #
face $-1 $496 $497 $19 $-1 $498 forward single #
loop $-1 $-1 $499 $338 #
plane-surface $-1 -138.01049975371382 19.635558066939698 53.281883866548874 0 -1 0 0.85716730853699208 0 -0.51503806187062418 forward_v I I I I #
coedge $-1 $422 $340 $500 $501 forward $252 $-1 #
coedge $-1 $340 $421 $502 $503 reversed $252 $-1 #
coedge $-1 $504 $505 $340 $424 forward $497 $-1 #
edge $-1 $506 -26.881620998954709 $507 -18.160192349466541 $423 $508 forward 7 unknown #
edge $-1 $509 1 $509 0 $341 $-1 forward 7 unknown #
vertex $-1 $342 $510 #
ellipse-curve $-1 -45.6271758941093 14.908687945537327 7.650013664602743 -0.85716730853699208 0 0.51503806187062418 0.25751903093531209 0 0.42858365426849604 1 I I #
point $-1 -46.22682417171098 14.908687945537327 8.5936353807418637 #
point $-1 -45.198592239840806 17.744810018378754 7.3924946336674315 #
coedge $-1 $511 $500 $505 $512 reversed $347 $-1 #
loop $-1 $-1 $362 $352 #
plane-surface $-1 50.845057527390367 0 0 -1 0 0 0 0 1 forward_v I I I I #
coedge $-1 $368 $356 $513 $514 forward $353 $-1 #
coedge $-1 $362 $513 $355 $435 reversed $431 $-1 #
edge $-1 $366 -31.839026990005554 $437 31.839026990005554 $434 $515 forward 7 unknown #
coedge $-1 $356 $368 $358 $439 reversed $353 $-1 #
vertex $-1 $435 $516 #
straight-curve $-1 0 31.839026990005554 15.422499355612908 -1 0 0 I I #
edge $-1 $359 -15.422499355612908 $370 15.422499355612908 $436 $517 forward 7 unknown #
point $-1 -50.845057527390367 31.839026990005554 15.422499355612908 #
coedge $-1 $513 $362 $361 $442 reversed $431 $-1 #
edge $-1 $446 -31.839026990005554 $364 31.839026990005554 $441 $518 forward 7 unknown #
straight-curve $-1 50.845057527390367 -31.839026990005554 0 0 0 -1 I I #
point $-1 50.845057527390367 -31.839026990005554 -15.422499355612908 #
point $-1 50.845057527390367 -31.839026990005554 15.422499355612908 #
vertex $-1 $442 $519 #
straight-curve $-1 0 31.839026990005554 -15.422499355612908 1 0 0 I I #
point $-1 -50.845057527390367 31.839026990005554 -15.422499355612908 #
loop $-1 $-1 $454 $372 #
plane-surface $-1 0 0 -15.422499355612908 0 0 1 1 0 0 forward_v I I I I #
coedge $-1 $520 $470 $375 $453 forward $373 $-1 #
coedge $-1 $375 $377 $521 $522 reversed $302 $-1 #
edge $-1 $472 -15.422499355612908 $523 15.422499355612908 $451 $524 forward 7 unknown #
coedge $-1 $463 $521 $376 $455 forward $449 $-1 #
edge $-1 $456 18.824958911636688 $465 27.621718714381348 $454 $525 forward 7 unknown #
vertex $-1 $455 $526 #
straight-curve $-1 -42.048297724645707 -21.196386942720881 0 0 0 -1 I I #
coedge $-1 $379 $391 $527 $528 forward $137 $-1 #
coedge $-1 $529 $530 $379 $460 reversed $468 $-1 #
edge $-1 $531 -50.845057527390367 $462 50.845057527390367 $459 $532 forward 7 unknown #
coedge $-1 $386 $380 $530 $533 forward $233 $-1 #
vertex $-1 $460 $534 #
coedge $-1 $535 $454 $386 $464 forward $449 $-1 #
edge $-1 $465 -21.196386942720881 $536 31.839026990005554 $386 $537 forward 7 unknown #
vertex $-1 $464 $538 #
straight-curve $-1 -50.845057527390367 -21.196386942720881 0 0 0 1 I I #
face $-1 $-1 $539 $17 $-1 $540 reversed single #
loop $-1 $-1 $529 $389 #
plane-surface $-1 0 31.839026990005554 0 0 -1 0 0 0 -1 forward_v I I I I #
coedge $-1 $451 $541 $391 $471 reversed $373 $-1 #
edge $-1 $472 -42.048297724645707 $542 50.845057527390367 $470 $543 forward 7 unknown #
vertex $-1 $471 $544 #
straight-curve $-1 -42.048297724645707 -13.258853483181609 15.422499355612908 0 -1 0 I I #
point $-1 -42.048297724645707 -21.196386942720881 15.422499355612908 #
face $-1 $545 $546 $18 $-1 $547 reversed single #
loop $-1 $-1 $548 $397 #
plane-surface $-1 -42.048297724645707 -26.517706966363217 0 -1 0 0 0 0 1 forward_v I I I I #
coedge $-1 $492 $549 $550 $551 reversed $398 $-1 #
coedge $-1 $400 $552 $553 $554 forward $323 $-1 #
coedge $-1 $553 $409 $401 $481 forward $411 $-1 #
edge $-1 $555 -25.733337835940638 $483 -11.218442577661529 $480 $556 forward 7 unknown #
edge $-1 $555 -2.7589209654379419e-014 $484 16.93356141061075 $402 $557 forward 7 unknown #
vertex $-1 $481 $558 #
vertex $-1 $405 $559 #
straight-curve $-1 -69.005249876856908 19.635558066939698 15.422499355612906 1 0 0 I I #
straight-curve $-1 -42.123628877902199 8.1633744909790185 15.422499355612908 0 -1 0 I I #
edge $-1 $407 4.8545654059973575 $555 11.472183575960679 $409 $560 forward 7 unknown #
point $-1 -50.845057527390367 13.017939896976376 0.9076040973338001 #
coedge $-1 $410 $561 $562 $563 forward $411 $-1 #
face $-1 $564 $411 $18 $-1 $565 reversed single #
coedge $-1 $566 $413 $567 $568 forward $323 $-1 #
coedge $-1 $562 $478 $413 $493 reversed $398 $-1 #
edge $-1 $494 -27.621718714381348 $569 -18.824958911636688 $413 $570 forward 7 unknown #
vertex $-1 $563 $571 #
straight-curve $-1 -50.845057527390367 0 15.422499355612908 0 -1 0 I I #
face $-1 $572 $573 $19 $-1 $574 forward single #
loop $-1 $-1 $575 $418 #
plane-surface $-1 0 0 15.422499355612908 0 0 1 1 0 0 forward_v I I I I #
coedge $-1 $576 $577 $575 $578 reversed $419 $-1 #
coedge $-1 $430 $579 $421 $501 reversed $347 $-1 #
edge $-1 $506 -16.93356141061075 $580 2.7589209654379419e-014 $421 $581 forward 7 unknown #
coedge $-1 $582 $583 $422 $503 forward $584 $-1 #
edge $-1 $507 11.218442577661529 $580 25.733337835940638 $502 $585 forward 7 unknown #
coedge $-1 $586 $423 $583 $587 forward $497 $-1 #
coedge $-1 $423 $575 $430 $512 forward $497 $-1 #
vertex $-1 $512 $588 #
vertex $-1 $587 $589 #
straight-curve $-1 -69.005249876856908 13.017939896976376 15.422499355612906 -1 0 0 I I #
vertex $-1 $425 $590 #
point $-1 -45.369656863173986 14.908687945537327 8.078597318871239 #
coedge $-1 $579 $430 $577 $591 reversed $347 $-1 #
edge $-1 $592 -11.472183575960679 $506 -4.8545654059973575 $505 $593 forward 7 unknown #
coedge $-1 $434 $441 $433 $514 reversed $431 $-1 #
edge $-1 $437 -15.422499355612908 $446 15.422499355612908 $513 $594 forward 7 unknown #
straight-curve $-1 50.845057527390367 0 15.422499355612908 0 1 0 I I #
point $-1 50.845057527390367 31.839026990005554 15.422499355612908 #
straight-curve $-1 -50.845057527390367 31.839026990005554 0 0 0 -1 I I #
straight-curve $-1 50.845057527390367 0 -15.422499355612908 0 -1 0 I I #
point $-1 50.845057527390367 31.839026990005554 -15.422499355612908 #
coedge $-1 $541 $451 $595 $596 reversed $373 $-1 #
coedge $-1 $454 $595 $452 $522 forward $449 $-1 #
edge $-1 $523 -18.580173506823947 $456 -7.9375334595392726 $521 $597 forward 7 unknown #
vertex $-1 $453 $598 #
straight-curve $-1 -42.048297724645707 -31.839026990005554 0 0 0 -1 I I #
straight-curve $-1 -23.223338813009018 -21.196386942720881 -15.422499355612908 -1 0 0 I I #
point $-1 -42.048297724645707 -21.196386942720881 -15.422499355612908 #
coedge $-1 $599 $600 $458 $528 reversed $539 $-1 #
edge $-1 $542 -31.839026990005554 $531 31.839026990005554 $527 $601 forward 7 unknown #
coedge $-1 $602 $459 $600 $603 forward $468 $-1 #
coedge $-1 $459 $602 $461 $533 reversed $468 $-1 #
vertex $-1 $528 $604 #
straight-curve $-1 0 31.839026990005554 15.422499355612908 -1 0 0 I I #
edge $-1 $462 -15.422499355612908 $536 15.422499355612908 $530 $605 forward 7 unknown #
point $-1 -50.845057527390367 31.839026990005554 15.422499355612908 #
coedge $-1 $606 $463 $602 $607 forward $449 $-1 #
vertex $-1 $607 $608 #
straight-curve $-1 -50.845057527390367 0 -15.422499355612908 0 1 0 I I #
point $-1 -50.845057527390367 -21.196386942720881 -15.422499355612908 #
loop $-1 $-1 $599 $467 #
plane-surface $-1 50.845057527390367 0 0 -1 0 0 0 0 1 forward_v I I I I #
coedge $-1 $470 $520 $599 $609 reversed $373 $-1 #
vertex $-1 $528 $610 #
straight-curve $-1 0 -31.839026990005554 15.422499355612908 1 0 0 I I #
point $-1 -42.048297724645707 -31.839026990005554 15.422499355612908 #
face $-1 $490 $611 $18 $-1 $612 reversed single #
loop $-1 $-1 $613 $475 #
plane-surface $-1 0 -31.839026990005554 0 0 1 0 0 0 1 forward_v I I I I #
coedge $-1 $567 $614 $613 $615 reversed $476 $-1 #
coedge $-1 $478 $562 $616 $617 reversed $398 $-1 #
coedge $-1 $614 $567 $478 $551 forward $476 $-1 #
edge $-1 $569 -15.422499355612908 $618 15.422499355612908 $550 $619 forward 7 unknown #
coedge $-1 $479 $620 $621 $622 forward $323 $-1 #
coedge $-1 $623 $480 $479 $554 reversed $411 $-1 #
edge $-1 $624 -31.839026990005554 $483 -19.635558066939698 $553 $495 forward 7 unknown #
vertex $-1 $487 $625 #
straight-curve $-1 -50.845057527390367 19.635558066939698 26.640941933274437 0 0 1 I I #
straight-curve $-1 -50.845057527390352 19.635558066939698 0.90760409733382374 0.51503806187062418 0 0.85716730853699208 I I #
point $-1 -50.845057527390367 19.635558066939698 15.422499355612908 #
point $-1 -42.123628877902199 19.635558066939698 15.422499355612906 #
straight-curve $-1 -50.845057527390367 8.1633744909790185 0.90760409733380065 0 1 0 I I #
coedge $-1 $489 $623 $626 $627 reversed $411 $-1 #
coedge $-1 $549 $492 $489 $563 reversed $398 $-1 #
edge $-1 $628 -15.422499355612908 $494 15.422499355612908 $489 $629 forward 7 unknown #
face $-1 $630 $631 $18 $-1 $632 reversed single #
plane-surface $-1 -50.845057527390367 0 0 1 0 0 0 0 -1 forward_v I I I I #
coedge $-1 $620 $491 $633 $634 forward $323 $-1 #
coedge $-1 $550 $548 $491 $568 reversed $476 $-1 #
edge $-1 $569 7.9375334595392726 $635 18.580173506823947 $491 $636 forward 7 unknown #
vertex $-1 $493 $637 #
straight-curve $-1 -23.223338813009018 -21.196386942720881 15.422499355612908 1 0 0 I I #
point $-1 -50.845057527390367 -21.196386942720881 15.422499355612908 #
face $-1 $638 $639 $19 $-1 $640 forward single #
loop $-1 $-1 $641 $496 #
plane-surface $-1 -46.446677626018037 -21.196386942720881 0 0 -1 0 0 0 -1 forward_v I I I I #
coedge $-1 $505 $642 $499 $578 forward $497 $-1 #
coedge $-1 $577 $499 $643 $644 reversed $419 $-1 #
coedge $-1 $499 $576 $511 $591 forward $419 $-1 #
edge $-1 $645 18.160192349466541 $592 26.881620998954709 $575 $646 forward 7 unknown #
coedge $-1 $500 $511 $582 $647 reversed $347 $-1 #
vertex $-1 $647 $648 #
straight-curve $-1 -50.845057527390352 13.017939896976376 0.90760409733382374 -0.51503806187062418 0 -0.85716730853699208 I I #
coedge $-1 $643 $502 $579 $647 forward $584 $-1 #
coedge $-1 $502 $649 $504 $587 reversed $584 $-1 #
loop $-1 $-1 $643 $650 #
straight-curve $-1 -50.845057527390367 13.017939896976376 26.640941933274437 0 0 -1 I I #
coedge $-1 $651 $504 $652 $653 forward $497 $-1 #
edge $-1 $507 -13.017939896976376 $654 21.196386942720881 $583 $655 forward 7 unknown #
point $-1 -42.123628877902199 13.017939896976376 15.422499355612906 #
point $-1 -50.845057527390367 13.017939896976376 15.422499355612908 #
point $-1 -45.198592239840806 14.908687945537327 7.3924946336674315 #
edge $-1 $656 -2.7589209654379419e-014 $592 16.93356141061075 $577 $657 forward 7 unknown #
vertex $-1 $512 $658 #
straight-curve $-1 -42.123628877902199 8.1633744909790185 15.422499355612908 0 -1 0 I I #
straight-curve $-1 50.845057527390367 31.839026990005554 0 0 0 -1 I I #
coedge $-1 $521 $606 $520 $596 forward $449 $-1 #
edge $-1 $659 -50.845057527390367 $523 42.048297724645707 $520 $660 forward 7 unknown #
straight-curve $-1 -42.048297724645707 -13.258853483181609 -15.422499355612908 0 1 0 I I #
point $-1 -42.048297724645707 -31.839026990005554 -15.422499355612908 #
coedge $-1 $661 $527 $541 $609 forward $539 $-1 #
coedge $-1 $527 $661 $529 $603 reversed $539 $-1 #
straight-curve $-1 50.845057527390367 0 15.422499355612908 0 1 0 I I #
coedge $-1 $530 $529 $535 $607 reversed $468 $-1 #
edge $-1 $531 -15.422499355612908 $662 15.422499355612908 $600 $663 forward 7 unknown #
point $-1 50.845057527390367 31.839026990005554 15.422499355612908 #
straight-curve $-1 -50.845057527390367 31.839026990005554 0 0 0 -1 I I #
coedge $-1 $595 $535 $661 $664 forward $449 $-1 #
edge $-1 $536 -50.845057527390367 $662 50.845057527390367 $602 $665 forward 7 unknown #
point $-1 -50.845057527390367 31.839026990005554 -15.422499355612908 #
edge $-1 $542 -15.422499355612908 $659 15.422499355612908 $599 $666 forward 7 unknown #
point $-1 50.845057527390367 -31.839026990005554 15.422499355612908 #
loop $-1 $-1 $616 $545 #
plane-surface $-1 0 0 -15.422499355612908 0 0 1 1 0 0 forward_v I I I I #
coedge $-1 $667 $633 $548 $615 forward $546 $-1 #
coedge $-1 $548 $550 $668 $669 reversed $476 $-1 #
edge $-1 $635 -15.422499355612908 $670 15.422499355612908 $613 $671 forward 7 unknown #
coedge $-1 $626 $668 $549 $617 forward $611 $-1 #
edge $-1 $618 18.824958911636688 $628 27.621718714381348 $616 $672 forward 7 unknown #
vertex $-1 $617 $673 #
straight-curve $-1 -42.048297724645707 -21.196386942720881 0 0 0 -1 I I #
coedge $-1 $552 $566 $674 $675 forward $323 $-1 #
coedge $-1 $676 $677 $552 $622 reversed $631 $-1 #
edge $-1 $678 -50.845057527390367 $624 50.845057527390367 $621 $679 forward 7 unknown #
coedge $-1 $561 $553 $677 $680 forward $411 $-1 #
vertex $-1 $622 $681 #
point $-1 -50.845057527390367 19.635558066939698 0.9076040973338001 #
coedge $-1 $682 $616 $561 $627 forward $611 $-1 #
edge $-1 $628 -21.196386942720881 $683 31.839026990005554 $561 $684 forward 7 unknown #
vertex $-1 $627 $685 #
straight-curve $-1 -50.845057527390367 -21.196386942720881 0 0 0 1 I I #
face $-1 $-1 $686 $18 $-1 $687 reversed single #
loop $-1 $-1 $676 $564 #
plane-surface $-1 0 31.839026990005554 0 0 -1 0 0 0 -1 forward_v I I I I #
coedge $-1 $613 $688 $566 $634 reversed $546 $-1 #
edge $-1 $635 -42.048297724645707 $689 50.845057527390367 $633 $690 forward 7 unknown #
vertex $-1 $634 $691 #
straight-curve $-1 -42.048297724645707 -13.258853483181609 15.422499355612908 0 -1 0 I I #
point $-1 -42.048297724645707 -21.196386942720881 15.422499355612908 #
face $-1 $692 $693 $19 $-1 $694 reversed single #
loop $-1 $-1 $695 $572 #
plane-surface $-1 -42.048297724645707 -26.517706966363217 0 -1 0 0 0 0 1 forward_v I I I I #
coedge $-1 $652 $696 $697 $698 reversed $573 $-1 #
coedge $-1 $575 $699 $700 $701 forward $497 $-1 #
coedge $-1 $700 $582 $576 $644 forward $584 $-1 #
edge $-1 $656 -25.733337835940638 $645 -11.218442577661529 $643 $702 forward 7 unknown #
vertex $-1 $644 $703 #
straight-curve $-1 -69.005249876856908 19.635558066939698 15.422499355612906 1 0 0 I I #
edge $-1 $580 4.8545654059973575 $656 11.472183575960679 $582 $704 forward 7 unknown #
point $-1 -50.845057527390367 13.017939896976376 0.9076040973338001 #
coedge $-1 $583 $705 $706 $707 forward $584 $-1 #
face $-1 $708 $584 $19 $-1 $709 reversed single #
coedge $-1 $710 $586 $711 $712 forward $497 $-1 #
coedge $-1 $706 $641 $586 $653 reversed $573 $-1 #
edge $-1 $654 -27.621718714381348 $713 -18.824958911636688 $586 $714 forward 7 unknown #
vertex $-1 $707 $715 #
straight-curve $-1 -50.845057527390367 0 15.422499355612908 0 -1 0 I I #
vertex $-1 $647 $716 #
straight-curve $-1 -50.845057527390352 19.635558066939698 0.90760409733382374 0.51503806187062418 0 0.85716730853699208 I I #
point $-1 -42.123628877902199 19.635558066939698 15.422499355612906 #
vertex $-1 $609 $717 #
straight-curve $-1 0 -31.839026990005554 -15.422499355612908 -1 0 0 I I #
coedge $-1 $600 $599 $606 $664 reversed $539 $-1 #
vertex $-1 $664 $718 #
straight-curve $-1 50.845057527390367 31.839026990005554 0 0 0 -1 I I #
edge $-1 $662 -31.839026990005554 $659 31.839026990005554 $661 $719 forward 7 unknown #
straight-curve $-1 0 31.839026990005554 -15.422499355612908 1 0 0 I I #
straight-curve $-1 50.845057527390367 -31.839026990005554 0 0 0 -1 I I #
coedge $-1 $688 $613 $720 $721 reversed $546 $-1 #
coedge $-1 $616 $720 $614 $669 forward $611 $-1 #
edge $-1 $670 -18.580173506823947 $618 -7.9375334595392726 $668 $722 forward 7 unknown #
vertex $-1 $615 $723 #
straight-curve $-1 -42.048297724645707 -31.839026990005554 0 0 0 -1 I I #
straight-curve $-1 -23.223338813009018 -21.196386942720881 -15.422499355612908 -1 0 0 I I #
point $-1 -42.048297724645707 -21.196386942720881 -15.422499355612908 #
coedge $-1 $724 $725 $620 $675 reversed $686 $-1 #
edge $-1 $689 -31.839026990005554 $678 31.839026990005554 $674 $726 forward 7 unknown #
coedge $-1 $727 $621 $725 $728 forward $631 $-1 #
coedge $-1 $621 $727 $623 $680 reversed $631 $-1 #
vertex $-1 $675 $729 #
straight-curve $-1 0 31.839026990005554 15.422499355612908 -1 0 0 I I #
edge $-1 $624 -15.422499355612908 $683 15.422499355612908 $677 $730 forward 7 unknown #
point $-1 -50.845057527390367 31.839026990005554 15.422499355612908 #
coedge $-1 $731 $626 $727 $732 forward $611 $-1 #
vertex $-1 $732 $733 #
straight-curve $-1 -50.845057527390367 0 -15.422499355612908 0 1 0 I I #
point $-1 -50.845057527390367 -21.196386942720881 -15.422499355612908 #
loop $-1 $-1 $724 $630 #
plane-surface $-1 50.845057527390367 0 0 -1 0 0 0 0 1 forward_v I I I I #
coedge $-1 $633 $667 $724 $734 reversed $546 $-1 #
vertex $-1 $675 $735 #
straight-curve $-1 0 -31.839026990005554 15.422499355612908 1 0 0 I I #
point $-1 -42.048297724645707 -31.839026990005554 15.422499355612908 #
face $-1 $650 $736 $19 $-1 $737 reversed single #
loop $-1 $-1 $738 $638 #
plane-surface $-1 0 -31.839026990005554 0 0 1 0 0 0 1 forward_v I I I I #
coedge $-1 $711 $739 $738 $740 reversed $639 $-1 #
coedge $-1 $641 $706 $741 $742 reversed $573 $-1 #
coedge $-1 $739 $711 $641 $698 forward $639 $-1 #
edge $-1 $713 -15.422499355612908 $743 15.422499355612908 $697 $744 forward 7 unknown #
coedge $-1 $642 $745 $746 $747 forward $497 $-1 #
coedge $-1 $748 $643 $642 $701 reversed $584 $-1 #
edge $-1 $749 -31.839026990005554 $645 -19.635558066939698 $700 $655 forward 7 unknown #
straight-curve $-1 -50.845057527390367 19.635558066939698 26.640941933274437 0 0 1 I I #
point $-1 -50.845057527390367 19.635558066939698 15.422499355612908 #
straight-curve $-1 -50.845057527390367 8.1633744909790185 0.90760409733380065 0 1 0 I I #
coedge $-1 $649 $748 $750 $751 reversed $584 $-1 #
coedge $-1 $696 $652 $649 $707 reversed $573 $-1 #
edge $-1 $752 -15.422499355612908 $654 15.422499355612908 $649 $753 forward 7 unknown #
face $-1 $754 $755 $19 $-1 $756 reversed single #
plane-surface $-1 -50.845057527390367 0 0 1 0 0 0 0 -1 forward_v I I I I #
coedge $-1 $745 $651 $757 $758 forward $497 $-1 #
coedge $-1 $697 $695 $651 $712 reversed $639 $-1 #
edge $-1 $713 7.9375334595392726 $759 18.580173506823947 $651 $760 forward 7 unknown #
vertex $-1 $653 $761 #
straight-curve $-1 -23.223338813009018 -21.196386942720881 15.422499355612908 1 0 0 I I #
point $-1 -50.845057527390367 -21.196386942720881 15.422499355612908 #
point $-1 -50.845057527390367 19.635558066939698 0.9076040973338001 #
point $-1 50.845057527390367 -31.839026990005554 -15.422499355612908 #
point $-1 50.845057527390367 31.839026990005554 -15.422499355612908 #
straight-curve $-1 50.845057527390367 0 -15.422499355612908 0 -1 0 I I #
coedge $-1 $668 $731 $667 $721 forward $611 $-1 #
edge $-1 $762 -50.845057527390367 $670 42.048297724645707 $667 $763 forward 7 unknown #
straight-curve $-1 -42.048297724645707 -13.258853483181609 -15.422499355612908 0 1 0 I I #
point $-1 -42.048297724645707 -31.839026990005554 -15.422499355612908 #
coedge $-1 $764 $674 $688 $734 forward $686 $-1 #
coedge $-1 $674 $764 $676 $728 reversed $686 $-1 #
straight-curve $-1 50.845057527390367 0 15.422499355612908 0 1 0 I I #
coedge $-1 $677 $676 $682 $732 reversed $631 $-1 #
edge $-1 $678 -15.422499355612908 $765 15.422499355612908 $725 $766 forward 7 unknown #
point $-1 50.845057527390367 31.839026990005554 15.422499355612908 #
straight-curve $-1 -50.845057527390367 31.839026990005554 0 0 0 -1 I I #
coedge $-1 $720 $682 $764 $767 forward $611 $-1 #
edge $-1 $683 -50.845057527390367 $765 50.845057527390367 $727 $768 forward 7 unknown #
point $-1 -50.845057527390367 31.839026990005554 -15.422499355612908 #
edge $-1 $689 -15.422499355612908 $762 15.422499355612908 $724 $769 forward 7 unknown #
point $-1 50.845057527390367 -31.839026990005554 15.422499355612908 #
loop $-1 $-1 $741 $692 #
plane-surface $-1 0 0 -15.422499355612908 0 0 1 1 0 0 forward_v I I I I #
coedge $-1 $770 $757 $695 $740 forward $693 $-1 #
coedge $-1 $695 $697 $771 $772 reversed $639 $-1 #
edge $-1 $759 -15.422499355612908 $773 15.422499355612908 $738 $774 forward 7 unknown #
coedge $-1 $750 $771 $696 $742 forward $736 $-1 #
edge $-1 $743 18.824958911636688 $752 27.621718714381348 $741 $775 forward 7 unknown #
vertex $-1 $742 $776 #
straight-curve $-1 -42.048297724645707 -21.196386942720881 0 0 0 -1 I I #
coedge $-1 $699 $710 $777 $778 forward $497 $-1 #
coedge $-1 $779 $780 $699 $747 reversed $755 $-1 #
edge $-1 $781 -50.845057527390367 $749 50.845057527390367 $746 $782 forward 7 unknown #
coedge $-1 $705 $700 $780 $783 forward $584 $-1 #
vertex $-1 $747 $784 #
coedge $-1 $785 $741 $705 $751 forward $736 $-1 #
edge $-1 $752 -21.196386942720881 $786 31.839026990005554 $705 $787 forward 7 unknown #
vertex $-1 $751 $788 #
straight-curve $-1 -50.845057527390367 -21.196386942720881 0 0 0 1 I I #
face $-1 $-1 $789 $19 $-1 $790 reversed single #
loop $-1 $-1 $779 $708 #
plane-surface $-1 0 31.839026990005554 0 0 -1 0 0 0 -1 forward_v I I I I #
coedge $-1 $738 $791 $710 $758 reversed $693 $-1 #
edge $-1 $759 -42.048297724645707 $792 50.845057527390367 $757 $793 forward 7 unknown #
vertex $-1 $758 $794 #
straight-curve $-1 -42.048297724645707 -13.258853483181609 15.422499355612908 0 -1 0 I I #
point $-1 -42.048297724645707 -21.196386942720881 15.422499355612908 #
vertex $-1 $734 $795 #
straight-curve $-1 0 -31.839026990005554 -15.422499355612908 -1 0 0 I I #
coedge $-1 $725 $724 $731 $767 reversed $686 $-1 #
vertex $-1 $767 $796 #
straight-curve $-1 50.845057527390367 31.839026990005554 0 0 0 -1 I I #
edge $-1 $765 -31.839026990005554 $762 31.839026990005554 $764 $797 forward 7 unknown #
straight-curve $-1 0 31.839026990005554 -15.422499355612908 1 0 0 I I #
straight-curve $-1 50.845057527390367 -31.839026990005554 0 0 0 -1 I I #
coedge $-1 $791 $738 $798 $799 reversed $693 $-1 #
coedge $-1 $741 $798 $739 $772 forward $736 $-1 #
edge $-1 $773 -18.580173506823947 $743 -7.9375334595392726 $771 $800 forward 7 unknown #
vertex $-1 $740 $801 #
straight-curve $-1 -42.048297724645707 -31.839026990005554 0 0 0 -1 I I #
straight-curve $-1 -23.223338813009018 -21.196386942720881 -15.422499355612908 -1 0 0 I I #
point $-1 -42.048297724645707 -21.196386942720881 -15.422499355612908 #
coedge $-1 $802 $803 $745 $778 reversed $789 $-1 #
edge $-1 $792 -31.839026990005554 $781 31.839026990005554 $777 $804 forward 7 unknown #
coedge $-1 $805 $746 $803 $806 forward $755 $-1 #
coedge $-1 $746 $805 $748 $783 reversed $755 $-1 #
vertex $-1 $778 $807 #
straight-curve $-1 0 31.839026990005554 15.422499355612908 -1 0 0 I I #
edge $-1 $749 -15.422499355612908 $786 15.422499355612908 $780 $808 forward 7 unknown #
point $-1 -50.845057527390367 31.839026990005554 15.422499355612908 #
coedge $-1 $809 $750 $805 $810 forward $736 $-1 #
vertex $-1 $810 $811 #
straight-curve $-1 -50.845057527390367 0 -15.422499355612908 0 1 0 I I #
point $-1 -50.845057527390367 -21.196386942720881 -15.422499355612908 #
loop $-1 $-1 $802 $754 #
plane-surface $-1 50.845057527390367 0 0 -1 0 0 0 0 1 forward_v I I I I #
coedge $-1 $757 $770 $802 $812 reversed $693 $-1 #
vertex $-1 $778 $813 #
straight-curve $-1 0 -31.839026990005554 15.422499355612908 1 0 0 I I #
point $-1 -42.048297724645707 -31.839026990005554 15.422499355612908 #
point $-1 50.845057527390367 -31.839026990005554 -15.422499355612908 #
point $-1 50.845057527390367 31.839026990005554 -15.422499355612908 #
straight-curve $-1 50.845057527390367 0 -15.422499355612908 0 -1 0 I I #
coedge $-1 $771 $809 $770 $799 forward $736 $-1 #
edge $-1 $814 -50.845057527390367 $773 42.048297724645707 $770 $815 forward 7 unknown #
straight-curve $-1 -42.048297724645707 -13.258853483181609 -15.422499355612908 0 1 0 I I #
point $-1 -42.048297724645707 -31.839026990005554 -15.422499355612908 #
coedge $-1 $816 $777 $791 $812 forward $789 $-1 #
coedge $-1 $777 $816 $779 $806 reversed $789 $-1 #
straight-curve $-1 50.845057527390367 0 15.422499355612908 0 1 0 I I #
coedge $-1 $780 $779 $785 $810 reversed $755 $-1 #
edge $-1 $781 -15.422499355612908 $817 15.422499355612908 $803 $818 forward 7 unknown #
point $-1 50.845057527390367 31.839026990005554 15.422499355612908 #
straight-curve $-1 -50.845057527390367 31.839026990005554 0 0 0 -1 I I #
coedge $-1 $798 $785 $816 $819 forward $736 $-1 #
edge $-1 $786 -50.845057527390367 $817 50.845057527390367 $805 $820 forward 7 unknown #
point $-1 -50.845057527390367 31.839026990005554 -15.422499355612908 #
edge $-1 $792 -15.422499355612908 $814 15.422499355612908 $802 $821 forward 7 unknown #
point $-1 50.845057527390367 -31.839026990005554 15.422499355612908 #
vertex $-1 $812 $822 #
straight-curve $-1 0 -31.839026990005554 -15.422499355612908 -1 0 0 I I #
coedge $-1 $803 $802 $809 $819 reversed $789 $-1 #
vertex $-1 $819 $823 #
straight-curve $-1 50.845057527390367 31.839026990005554 0 0 0 -1 I I #
edge $-1 $817 -31.839026990005554 $814 31.839026990005554 $816 $824 forward 7 unknown #
straight-curve $-1 0 31.839026990005554 -15.422499355612908 1 0 0 I I #
straight-curve $-1 50.845057527390367 -31.839026990005554 0 0 0 -1 I I #
point $-1 50.845057527390367 -31.839026990005554 -15.422499355612908 #
point $-1 50.845057527390367 31.839026990005554 -15.422499355612908 #
straight-curve $-1 50.845057527390367 0 -15.422499355612908 0 -1 0 I I #
End-of-ACIS-data 