500 0 13 0           
7 Unknown 11 ACIS 5.0 NT 24 Thu Mar 25 23:02:05 1999 
-1 9.9999999999999995e-007 1e-010 
body $-1 $13 $-1 $14 #
body $-1 $15 $-1 $16 #
body $-1 $17 $-1 $18 #
body $-1 $19 $-1 $20 #
body $-1 $21 $-1 $22 #
body $-1 $23 $-1 $24 #
body $-1 $25 $-1 $26 #
body $-1 $27 $-1 $28 #
body $-1 $29 $-1 $30 #
body $-1 $31 $-1 $32 #
body $-1 $33 $-1 $34 #
body $-1 $35 $-1 $36 #
body $-1 $37 $-1 $38 #
lump $-1 $-1 $39 $0 #
transform $-1 1 0 0 0 1 0 0 0 1 65.337687307351899 43.908273820509031 13.937764753009997 1 rotate no_reflect no_shear #
lump $-1 $-1 $40 $1 #
transform $-1 1 0 0 0 1 0 0 0 1 65.337687307351899 43.908273820509031 13.937764753009997 1 rotate no_reflect no_shear #
lump $-1 $-1 $41 $2 #
transform $-1 1 0 0 0 1 0 0 0 1 65.337687307351899 43.908273820509031 13.937764753009997 1 rotate no_reflect no_shear #
lump $-1 $-1 $42 $3 #
transform $-1 1 0 0 0 1 0 0 0 1 65.337687307351899 43.908273820509031 13.937764753009997 1 rotate no_reflect no_shear #
lump $-1 $-1 $43 $4 #
transform $-1 1 0 0 0 1 0 0 0 1 65.337687307351899 43.908273820509031 13.937764753009997 1 rotate no_reflect no_shear #
lump $-1 $-1 $44 $5 #
transform $-1 1 0 0 0 1 0 0 0 1 65.337687307351899 43.908273820509031 13.937764753009997 1 rotate no_reflect no_shear #
lump $-1 $-1 $45 $6 #
transform $-1 1 0 0 0 1 0 0 0 1 65.337687307351899 43.908273820509031 13.937764753009997 1 rotate no_reflect no_shear #
lump $-1 $-1 $46 $7 #
transform $-1 1 0 0 0 1 0 0 0 1 65.337687307351899 43.908273820509031 13.937764753009997 1 rotate no_reflect no_shear #
lump $-1 $-1 $47 $8 #
transform $-1 1 0 0 0 1 0 0 0 1 65.337687307351899 43.908273820509031 13.937764753009997 1 rotate no_reflect no_shear #
lump $-1 $-1 $48 $9 #
transform $-1 1 0 0 0 1 0 0 0 1 65.337687307351899 43.908273820509031 13.937764753009997 1 rotate no_reflect no_shear #
lump $-1 $-1 $49 $10 #
transform $-1 1 0 0 0 1 0 0 0 1 65.337687307351899 43.908273820509031 13.937764753009997 1 rotate no_reflect no_shear #
lump $-1 $-1 $50 $11 #
transform $-1 1 0 0 0 1 0 0 0 1 65.337687307351899 43.908273820509031 13.937764753009997 1 rotate no_reflect no_shear #
lump $-1 $-1 $51 $12 #
transform $-1 1 0 0 0 1 0 0 0 1 65.337687307351899 43.908273820509031 13.937764753009997 1 rotate no_reflect no_shear #
shell $-1 $-1 $-1 $52 $-1 $13 #
shell $-1 $-1 $-1 $53 $-1 $15 #
shell $-1 $-1 $-1 $54 $-1 $17 #
shell $-1 $-1 $-1 $55 $-1 $19 #
shell $-1 $-1 $-1 $56 $-1 $21 #
shell $-1 $-1 $-1 $57 $-1 $23 #
shell $-1 $-1 $-1 $58 $-1 $25 #
shell $-1 $-1 $-1 $59 $-1 $27 #
shell $-1 $-1 $-1 $60 $-1 $29 #
shell $-1 $-1 $-1 $61 $-1 $31 #
shell $-1 $-1 $-1 $62 $-1 $33 #
shell $-1 $-1 $-1 $63 $-1 $35 #
shell $-1 $-1 $-1 $64 $-1 $37 #
face $-1 $65 $66 $39 $-1 $67 forward single #
face $-1 $68 $69 $40 $-1 $70 forward single #
face $-1 $71 $72 $41 $-1 $73 reversed single #
face $-1 $74 $75 $42 $-1 $76 forward single #
face $-1 $77 $78 $43 $-1 $79 forward single #
face $-1 $80 $81 $44 $-1 $82 reversed single #
face $-1 $83 $84 $45 $-1 $85 forward single #
face $-1 $86 $87 $46 $-1 $88 forward single #
face $-1 $89 $90 $47 $-1 $91 forward single #
face $-1 $92 $93 $48 $-1 $94 reversed single #
face $-1 $95 $96 $49 $-1 $97 forward single #
face $-1 $98 $99 $50 $-1 $100 forward single #
face $-1 $101 $102 $51 $-1 $103 forward single #
face $-1 $104 $105 $39 $-1 $106 reversed single #
loop $-1 $-1 $107 $52 #
plane-surface $-1 0 0 13.937764753009997 0 0 1 1 0 0 forward_v I I I I #
face $-1 $108 $109 $40 $-1 $110 reversed single #
loop $-1 $-1 $111 $53 #
plane-surface $-1 0 -38.4027312619274 0.32186281864591093 0 0 1 1 0 0 forward_v I I I I #
face $-1 $112 $113 $41 $-1 $114 reversed single #
loop $-1 $-1 $115 $54 #
plane-surface $-1 33.247004386190582 -14.788588494222077 182.14686337567363 0 1 0 0.57357644374324357 0 0.81915203911291934 forward_v I I I I #
face $-1 $116 $117 $42 $-1 $118 forward single #
loop $-1 $119 $120 $55 #
cone-surface $-1 54.521972196070706 -8.2411596405891459 5.6574448310647032 -0.57357644374324357 0 -0.81915203911291934 2.0478800977822984 0 -1.4339411093581089 1 I I 0 1 2.5 forward I I I I #
face $-1 $121 $122 $43 $-1 $123 forward single #
loop $-1 $124 $125 $56 #
cone-surface $-1 54.521972196070706 1.5799836398602523 5.6574448310647032 -0.57357644374324357 0 -0.81915203911291934 2.0478800977822984 0 -1.4339411093581089 1 I I 0 1 2.5 forward I I I I #
face $-1 $126 $127 $44 $-1 $128 reversed single #
loop $-1 $-1 $129 $57 #
plane-surface $-1 -142.14674632495343 -16.765277999900384 106.74805048773594 0 1 0 -0.5877852598018023 0 0.80901698891910034 forward_v I I I I #
face $-1 $130 $131 $45 $-1 $132 forward single #
loop $-1 $133 $134 $58 #
cone-surface $-1 -56.160410971467151 -14.5248471643173 7.0791000775818542 0.5877852598018023 0 -0.80901698891910034 0.40450849445955017 0 0.29389262990090115 1 I I 0 1 0.5 forward I I I I #
face $-1 $135 $136 $46 $-1 $137 forward single #
loop $-1 $138 $139 $59 #
cone-surface $-1 -56.160410971467151 -11.164200910942675 7.0791000775818542 0.5877852598018023 0 -0.80901698891910034 0.40450849445955017 0 0.29389262990090115 1 I I 0 1 0.5 forward I I I I #
face $-1 $140 $141 $47 $-1 $142 forward single #
loop $-1 $143 $144 $60 #
cone-surface $-1 -56.160410971467151 -7.8035546575680499 7.0791000775818542 0.5877852598018023 0 -0.80901698891910034 0.40450849445955017 0 0.29389262990090115 1 I I 0 1 0.5 forward I I I I #
face $-1 $145 $146 $48 $-1 $147 reversed single #
loop $-1 $-1 $148 $61 #
plane-surface $-1 -142.14674632495343 21.637453262027016 106.74805048773594 0 1 0 -0.5877852598018023 0 0.80901698891910034 forward_v I I I I #
face $-1 $149 $150 $49 $-1 $151 forward single #
loop $-1 $152 $153 $62 #
cone-surface $-1 -56.160410971467151 23.877884097610099 7.0791000775818542 0.5877852598018023 0 -0.80901698891910034 0.40450849445955017 0 0.29389262990090115 1 I I 0 1 0.5 forward I I I I #
face $-1 $154 $155 $50 $-1 $156 forward single #
loop $-1 $157 $158 $63 #
cone-surface $-1 -56.160410971467151 27.238530350984725 7.0791000775818542 0.5877852598018023 0 -0.80901698891910034 0.40450849445955017 0 0.29389262990090115 1 I I 0 1 0.5 forward I I I I #
face $-1 $159 $160 $51 $-1 $161 forward single #
loop $-1 $162 $163 $64 #
cone-surface $-1 -56.160410971467151 30.59917660435935 7.0791000775818542 0.5877852598018023 0 -0.80901698891910034 0.40450849445955017 0 0.29389262990090115 1 I I 0 1 0.5 forward I I I I #
face $-1 $164 $165 $39 $-1 $166 reversed single #
loop $-1 $-1 $167 $65 #
plane-surface $-1 0 0 -13.937764753009997 0 0 1 1 0 0 forward_v I I I I #
coedge $-1 $168 $169 $170 $171 forward $66 $-1 #
face $-1 $172 $173 $40 $-1 $174 reversed single #
loop $-1 $-1 $175 $68 #
plane-surface $-1 0 -38.4027312619274 -6.8678238329922223 0 0 1 1 0 0 forward_v I I I I #
coedge $-1 $176 $177 $178 $179 reversed $69 $-1 #
face $-1 $180 $181 $41 $-1 $182 reversed single #
loop $-1 $-1 $183 $71 #
plane-surface $-1 -41.705312270127351 -3.3305880003644432 75.103863798194396 0.57357644374324357 0 0.81915203911291934 0.81915203911291934 0 -0.57357644374324357 forward_v I I I I #
coedge $-1 $184 $185 $186 $187 reversed $72 $-1 #
face $-1 $-1 $188 $42 $-1 $189 forward single #
loop $-1 $190 $191 $74 #
cone-surface $-1 52.833665941958913 -8.2411596405891459 3.2462936657950046 -0.57357644374324357 0 -0.81915203911291934 1.0239400488911492 0 -0.71697055467905446 1 I I -0.70710678118654746 0.70710678118654746 1.25 forward I I I I #
loop $-1 $-1 $192 $55 #
coedge $-1 $120 $120 $193 $194 reversed $75 $-1 #
face $-1 $-1 $195 $43 $-1 $196 forward single #
loop $-1 $197 $198 $77 #
cone-surface $-1 52.833665941958913 1.5799836398602523 3.2462936657950046 -0.57357644374324357 0 -0.81915203911291934 1.0239400488911492 0 -0.71697055467905446 1 I I -0.70710678118654746 0.70710678118654746 1.25 forward I I I I #
loop $-1 $-1 $199 $56 #
coedge $-1 $125 $125 $200 $201 reversed $78 $-1 #
face $-1 $202 $203 $44 $-1 $204 reversed single #
loop $-1 $-1 $205 $80 #
plane-surface $-1 -65.337687307351914 -11.164200910942675 1.029452391072823 -0.5877852598018023 0 0.80901698891910034 0.80901698891910034 0 0.5877852598018023 forward_v I I I I #
coedge $-1 $206 $207 $208 $209 reversed $81 $-1 #
face $-1 $-1 $210 $45 $-1 $211 forward single #
loop $-1 $212 $213 $83 #
cone-surface $-1 -55.719572026615801 -14.5248471643173 6.4723373358925294 0.5877852598018023 0 -0.80901698891910034 0.20225424722977509 0 0.14694631495045057 1 I I -0.70710678118654746 0.70710678118654746 0.25 forward I I I I #
loop $-1 $-1 $214 $58 #
coedge $-1 $134 $134 $215 $216 reversed $84 $-1 #
face $-1 $-1 $217 $46 $-1 $218 forward single #
loop $-1 $219 $220 $86 #
cone-surface $-1 -55.719572026615801 -11.164200910942675 6.4723373358925294 0.5877852598018023 0 -0.80901698891910034 0.20225424722977509 0 0.14694631495045057 1 I I -0.70710678118654746 0.70710678118654746 0.25 forward I I I I #
loop $-1 $-1 $221 $59 #
coedge $-1 $139 $139 $222 $223 reversed $87 $-1 #
face $-1 $-1 $224 $47 $-1 $225 forward single #
loop $-1 $226 $227 $89 #
cone-surface $-1 -55.719572026615801 -7.8035546575680499 6.4723373358925294 0.5877852598018023 0 -0.80901698891910034 0.20225424722977509 0 0.14694631495045057 1 I I -0.70710678118654746 0.70710678118654746 0.25 forward I I I I #
loop $-1 $-1 $228 $60 #
coedge $-1 $144 $144 $229 $230 reversed $90 $-1 #
face $-1 $231 $232 $48 $-1 $233 reversed single #
loop $-1 $-1 $234 $92 #
plane-surface $-1 -65.337687307351914 27.238530350984725 1.029452391072823 -0.5877852598018023 0 0.80901698891910034 0.80901698891910034 0 0.5877852598018023 forward_v I I I I #
coedge $-1 $235 $236 $237 $238 reversed $93 $-1 #
face $-1 $-1 $239 $49 $-1 $240 forward single #
loop $-1 $241 $242 $95 #
cone-surface $-1 -55.719572026615801 23.877884097610099 6.4723373358925294 0.5877852598018023 0 -0.80901698891910034 0.20225424722977509 0 0.14694631495045057 1 I I -0.70710678118654746 0.70710678118654746 0.25 forward I I I I #
loop $-1 $-1 $243 $62 #
coedge $-1 $153 $153 $244 $245 reversed $96 $-1 #
face $-1 $-1 $246 $50 $-1 $247 forward single #
loop $-1 $248 $249 $98 #
cone-surface $-1 -55.719572026615801 27.238530350984725 6.4723373358925294 0.5877852598018023 0 -0.80901698891910034 0.20225424722977509 0 0.14694631495045057 1 I I -0.70710678118654746 0.70710678118654746 0.25 forward I I I I #
loop $-1 $-1 $250 $63 #
coedge $-1 $158 $158 $251 $252 reversed $99 $-1 #
face $-1 $-1 $253 $51 $-1 $254 forward single #
loop $-1 $255 $256 $101 #
cone-surface $-1 -55.719572026615801 30.59917660435935 6.4723373358925294 0.5877852598018023 0 -0.80901698891910034 0.20225424722977509 0 0.14694631495045057 1 I I -0.70710678118654746 0.70710678118654746 0.25 forward I I I I #
loop $-1 $-1 $257 $64 #
coedge $-1 $163 $163 $258 $259 reversed $102 $-1 #
face $-1 $260 $261 $39 $-1 $262 reversed single #
loop $-1 $-1 $263 $104 #
plane-surface $-1 0 -43.908273820509031 0 0 1 0 0 0 1 forward_v I I I I #
coedge $-1 $264 $265 $266 $267 forward $105 $-1 #
coedge $-1 $268 $107 $269 $270 forward $66 $-1 #
coedge $-1 $107 $268 $271 $272 forward $66 $-1 #
coedge $-1 $273 $274 $107 $171 reversed $275 $-1 #
edge $-1 $276 -43.908273820509031 $277 43.908273820509031 $170 $278 forward 7 unknown #
face $-1 $279 $280 $40 $-1 $281 reversed single #
loop $-1 $-1 $282 $108 #
plane-surface $-1 0 -32.897188703345776 -3.2729805071731555 0 -1 0 0 0 -1 forward_v I I I I #
coedge $-1 $283 $284 $285 $286 reversed $109 $-1 #
coedge $-1 $287 $111 $288 $289 forward $69 $-1 #
coedge $-1 $111 $287 $290 $291 reversed $69 $-1 #
coedge $-1 $292 $293 $111 $179 forward $294 $-1 #
edge $-1 $295 13.695823072382076 $296 24.706908189545324 $178 $297 forward 7 unknown #
face $-1 $298 $299 $41 $-1 $300 forward single #
loop $-1 $-1 $301 $112 #
plane-surface $-1 33.247004386190582 8.1274124934931908 182.14686337567363 0 -1 0 -0.57357644374324357 0 -0.81915203911291934 forward_v I I I I #
coedge $-1 $302 $303 $304 $305 reversed $113 $-1 #
coedge $-1 $185 $115 $306 $307 reversed $72 $-1 #
coedge $-1 $115 $184 $302 $308 reversed $72 $-1 #
coedge $-1 $304 $309 $115 $187 forward $310 $-1 #
edge $-1 $311 77.135666934826816 $312 90.921884545960367 $186 $313 forward 7 unknown #
loop $-1 $-1 $193 $116 #
plane-surface $-1 -41.705312270127351 -3.3305880003644432 75.103863798194396 0.57357644374324357 0 0.81915203911291934 0.81915203911291934 0 -0.57357644374324357 forward_v I I I I #
loop $-1 $-1 $314 $74 #
coedge $-1 $191 $191 $192 $315 reversed $117 $-1 #
coedge $-1 $192 $192 $191 $315 forward $119 $-1 #
coedge $-1 $193 $193 $120 $194 forward $188 $-1 #
edge $-1 $316 0 $316 6.2831853071796004 $193 $317 forward 7 unknown #
loop $-1 $-1 $200 $121 #
plane-surface $-1 -41.705312270127351 -3.3305880003644432 75.103863798194396 0.57357644374324357 0 0.81915203911291934 0.81915203911291934 0 -0.57357644374324357 forward_v I I I I #
loop $-1 $-1 $318 $77 #
coedge $-1 $198 $198 $199 $319 reversed $122 $-1 #
coedge $-1 $199 $199 $198 $319 forward $124 $-1 #
coedge $-1 $200 $200 $125 $201 forward $195 $-1 #
edge $-1 $320 0 $320 6.2831853071796004 $200 $321 forward 7 unknown #
face $-1 $322 $323 $44 $-1 $324 reversed single #
loop $-1 $-1 $325 $126 #
plane-surface $-1 -142.14674632495343 -5.5631238219849664 106.74805048773594 0 -1 0 0.5877852598018023 0 -0.80901698891910034 forward_v I I I I #
coedge $-1 $326 $327 $328 $329 reversed $127 $-1 #
coedge $-1 $207 $129 $330 $331 reversed $81 $-1 #
coedge $-1 $129 $206 $326 $332 reversed $81 $-1 #
coedge $-1 $328 $333 $129 $209 forward $334 $-1 #
edge $-1 $335 5.7356858551248138 $336 23.502453267092477 $208 $337 forward 7 unknown #
loop $-1 $-1 $215 $130 #
plane-surface $-1 -65.337687307351914 -11.164200910942675 1.029452391072823 -0.5877852598018023 0 0.80901698891910034 0.80901698891910034 0 0.5877852598018023 forward_v I I I I #
loop $-1 $-1 $338 $83 #
coedge $-1 $213 $213 $214 $339 reversed $131 $-1 #
coedge $-1 $214 $214 $213 $339 forward $133 $-1 #
coedge $-1 $215 $215 $134 $216 forward $210 $-1 #
edge $-1 $340 0 $340 6.2831853071796004 $215 $341 forward 7 unknown #
loop $-1 $-1 $222 $135 #
plane-surface $-1 -65.337687307351914 -11.164200910942675 1.029452391072823 -0.5877852598018023 0 0.80901698891910034 0.80901698891910034 0 0.5877852598018023 forward_v I I I I #
loop $-1 $-1 $342 $86 #
coedge $-1 $220 $220 $221 $343 reversed $136 $-1 #
coedge $-1 $221 $221 $220 $343 forward $138 $-1 #
coedge $-1 $222 $222 $139 $223 forward $217 $-1 #
edge $-1 $344 0 $344 6.2831853071796004 $222 $345 forward 7 unknown #
loop $-1 $-1 $229 $140 #
plane-surface $-1 -65.337687307351914 -11.164200910942675 1.029452391072823 -0.5877852598018023 0 0.80901698891910034 0.80901698891910034 0 0.5877852598018023 forward_v I I I I #
loop $-1 $-1 $346 $89 #
coedge $-1 $227 $227 $228 $347 reversed $141 $-1 #
coedge $-1 $228 $228 $227 $347 forward $143 $-1 #
coedge $-1 $229 $229 $144 $230 forward $224 $-1 #
edge $-1 $348 0 $348 6.2831853071796004 $229 $349 forward 7 unknown #
face $-1 $350 $351 $48 $-1 $352 forward single #
loop $-1 $-1 $353 $145 #
plane-surface $-1 -142.14674632495343 32.839607439942434 106.74805048773594 0 -1 0 0.5877852598018023 0 -0.80901698891910034 forward_v I I I I #
coedge $-1 $354 $355 $356 $357 reversed $146 $-1 #
coedge $-1 $236 $148 $358 $359 reversed $93 $-1 #
coedge $-1 $148 $235 $354 $360 reversed $93 $-1 #
coedge $-1 $356 $361 $148 $238 forward $351 $-1 #
edge $-1 $362 5.7356858551248138 $363 23.502453267092477 $237 $364 forward 7 unknown #
loop $-1 $-1 $244 $149 #
plane-surface $-1 -65.337687307351914 27.238530350984725 1.029452391072823 -0.5877852598018023 0 0.80901698891910034 0.80901698891910034 0 0.5877852598018023 forward_v I I I I #
loop $-1 $-1 $365 $95 #
coedge $-1 $242 $242 $243 $366 reversed $150 $-1 #
coedge $-1 $243 $243 $242 $366 forward $152 $-1 #
coedge $-1 $244 $244 $153 $245 forward $239 $-1 #
edge $-1 $367 0 $367 6.2831853071796004 $244 $368 forward 7 unknown #
loop $-1 $-1 $251 $154 #
plane-surface $-1 -65.337687307351914 27.238530350984725 1.029452391072823 -0.5877852598018023 0 0.80901698891910034 0.80901698891910034 0 0.5877852598018023 forward_v I I I I #
loop $-1 $-1 $369 $98 #
coedge $-1 $249 $249 $250 $370 reversed $155 $-1 #
coedge $-1 $250 $250 $249 $370 forward $157 $-1 #
coedge $-1 $251 $251 $158 $252 forward $246 $-1 #
edge $-1 $371 0 $371 6.2831853071796004 $251 $372 forward 7 unknown #
loop $-1 $-1 $258 $159 #
plane-surface $-1 -65.337687307351914 27.238530350984725 1.029452391072823 -0.5877852598018023 0 0.80901698891910034 0.80901698891910034 0 0.5877852598018023 forward_v I I I I #
loop $-1 $-1 $373 $101 #
coedge $-1 $256 $256 $257 $374 reversed $160 $-1 #
coedge $-1 $257 $257 $256 $374 forward $162 $-1 #
coedge $-1 $258 $258 $163 $259 forward $253 $-1 #
edge $-1 $375 0 $375 6.2831853071796004 $258 $376 forward 7 unknown #
face $-1 $377 $378 $39 $-1 $379 reversed single #
loop $-1 $-1 $380 $164 #
plane-surface $-1 -65.337687307351899 0 0 1 0 0 0 0 -1 forward_v I I I I #
coedge $-1 $381 $271 $382 $383 forward $165 $-1 #
coedge $-1 $384 $167 $381 $385 forward $105 $-1 #
coedge $-1 $167 $384 $386 $387 forward $105 $-1 #
coedge $-1 $274 $273 $167 $267 reversed $275 $-1 #
edge $-1 $388 -43.908273820509031 $389 43.908273820509031 $266 $390 forward 7 unknown #
coedge $-1 $169 $168 $391 $392 forward $66 $-1 #
coedge $-1 $393 $394 $168 $270 reversed $378 $-1 #
edge $-1 $277 -65.337687307351899 $395 65.337687307351899 $269 $396 forward 7 unknown #
coedge $-1 $263 $397 $169 $272 reversed $165 $-1 #
edge $-1 $398 -65.337687307351899 $276 65.337687307351899 $271 $399 forward 7 unknown #
coedge $-1 $266 $170 $397 $400 forward $275 $-1 #
coedge $-1 $170 $266 $393 $401 reversed $275 $-1 #
loop $-1 $-1 $273 $377 #
vertex $-1 $171 $402 #
vertex $-1 $171 $403 #
straight-curve $-1 65.337687307351899 0 13.937764753009997 0 1 0 I I #
face $-1 $404 $405 $40 $-1 $406 reversed single #
loop $-1 $-1 $407 $172 #
plane-surface $-1 -65.337687307351899 0 0 1 0 0 0 0 -1 forward_v I I I I #
coedge $-1 $408 $288 $293 $409 reversed $173 $-1 #
coedge $-1 $410 $175 $411 $412 reversed $109 $-1 #
coedge $-1 $175 $410 $408 $413 forward $109 $-1 #
coedge $-1 $293 $292 $175 $286 forward $294 $-1 #
edge $-1 $414 -24.706908189545324 $415 -13.695823072382076 $285 $416 forward 7 unknown #
coedge $-1 $177 $176 $407 $417 reversed $69 $-1 #
coedge $-1 $282 $418 $176 $289 reversed $173 $-1 #
edge $-1 $295 -65.337687307351899 $419 65.337687307351899 $288 $420 forward 7 unknown #
coedge $-1 $421 $422 $177 $291 forward $405 $-1 #
edge $-1 $296 -65.337687307351899 $423 65.337687307351899 $290 $424 forward 7 unknown #
coedge $-1 $285 $178 $422 $425 forward $294 $-1 #
coedge $-1 $178 $285 $282 $409 forward $294 $-1 #
loop $-1 $-1 $178 $404 #
vertex $-1 $179 $426 #
vertex $-1 $425 $427 #
straight-curve $-1 65.337687307351899 -19.2013656309637 0.32186281864591093 0 -1 0 I I #
face $-1 $-1 $310 $41 $-1 $428 reversed single #
loop $-1 $-1 $429 $180 #
plane-surface $-1 0 0 13.937764753009997 0 0 1 1 0 0 forward_v I I I I #
coedge $-1 $430 $431 $432 $433 reversed $181 $-1 #
coedge $-1 $434 $183 $185 $308 forward $113 $-1 #
coedge $-1 $183 $434 $430 $435 forward $113 $-1 #
coedge $-1 $432 $186 $183 $305 forward $310 $-1 #
edge $-1 $312 -13.123294494039856 $436 9.7927064936754125 $304 $437 forward 7 unknown #
coedge $-1 $438 $439 $184 $307 forward $299 $-1 #
edge $-1 $440 29.025426290559679 $311 48.714185114256608 $306 $441 forward 7 unknown #
edge $-1 $312 -130.6753746147038 $440 -106.63983800660554 $185 $442 forward 7 unknown #
coedge $-1 $186 $432 $438 $443 reversed $310 $-1 #
loop $-1 $-1 $432 $298 #
vertex $-1 $443 $444 #
vertex $-1 $187 $445 #
straight-curve $-1 65.337687307351899 -14.788588494222077 91.073431687836816 0 0 -1 I I #
coedge $-1 $314 $314 $-1 $446 reversed $190 $-1 #
edge $-1 $447 0 $447 6.2831853071796004 $191 $448 forward 7 unknown #
vertex $-1 $194 $449 #
ellipse-curve $-1 55.493307895503428 -8.2411596405891459 7.0446559474432293 0.57357644374324357 0 0.81915203911291934 2.0478800977822984 0 -1.4339411093581089 1 I I #
coedge $-1 $318 $318 $-1 $450 reversed $197 $-1 #
edge $-1 $451 0 $451 6.2831853071796004 $198 $452 forward 7 unknown #
vertex $-1 $201 $453 #
ellipse-curve $-1 55.493307895503428 1.5799836398602523 7.0446559474432293 0.57357644374324357 0 0.81915203911291934 2.0478800977822984 0 -1.4339411093581089 1 I I #
face $-1 $-1 $334 $44 $-1 $454 forward single #
loop $-1 $-1 $455 $202 #
plane-surface $-1 -65.337687307351899 0 0 1 0 0 0 0 -1 forward_v I I I I #
coedge $-1 $456 $457 $458 $459 reversed $203 $-1 #
coedge $-1 $460 $205 $207 $332 forward $127 $-1 #
coedge $-1 $205 $460 $456 $461 forward $127 $-1 #
coedge $-1 $458 $208 $205 $329 forward $334 $-1 #
edge $-1 $336 -11.183177544429046 $462 0.018976633486371242 $328 $463 forward 7 unknown #
coedge $-1 $464 $465 $206 $331 forward $323 $-1 #
edge $-1 $466 -52.344572852795139 $335 -39.436260490857975 $330 $467 forward 7 unknown #
edge $-1 $336 -21.960932409720144 $466 -1.7500491998158137e-014 $207 $468 forward 7 unknown #
coedge $-1 $208 $458 $464 $469 forward $334 $-1 #
loop $-1 $-1 $458 $322 #
vertex $-1 $331 $470 #
vertex $-1 $209 $471 #
straight-curve $-1 -71.073373162476713 -16.765277999900384 13.937764753010001 1 0 0 I I #
coedge $-1 $338 $338 $-1 $472 reversed $212 $-1 #
edge $-1 $473 0 $473 6.2831853071796004 $213 $474 forward 7 unknown #
vertex $-1 $216 $475 #
ellipse-curve $-1 -56.454303601368061 -14.5248471643173 7.4836085720414198 -0.5877852598018023 0 0.80901698891910034 0.40450849445955017 0 0.29389262990090115 1 I I #
coedge $-1 $342 $342 $-1 $476 reversed $219 $-1 #
edge $-1 $477 0 $477 6.2831853071796004 $220 $478 forward 7 unknown #
vertex $-1 $223 $479 #
ellipse-curve $-1 -56.454303601368061 -11.164200910942675 7.4836085720414198 -0.5877852598018023 0 0.80901698891910034 0.40450849445955017 0 0.29389262990090115 1 I I #
coedge $-1 $346 $346 $-1 $480 reversed $226 $-1 #
edge $-1 $481 0 $481 6.2831853071796004 $227 $482 forward 7 unknown #
vertex $-1 $230 $483 #
ellipse-curve $-1 -56.454303601368061 -7.8035546575680499 7.4836085720414198 -0.5877852598018023 0 0.80901698891910034 0.40450849445955017 0 0.29389262990090115 1 I I #
face $-1 $-1 $484 $48 $-1 $485 reversed single #
loop $-1 $-1 $237 $231 #
plane-surface $-1 0 0 13.937764753009997 0 0 1 1 0 0 forward_v I I I I #
coedge $-1 $486 $487 $488 $489 reversed $232 $-1 #
coedge $-1 $490 $234 $236 $360 forward $146 $-1 #
coedge $-1 $234 $490 $486 $491 forward $146 $-1 #
coedge $-1 $488 $237 $234 $357 forward $351 $-1 #
edge $-1 $363 8.0181880865346535 $492 19.220342264450071 $356 $493 forward 7 unknown #
coedge $-1 $494 $495 $235 $359 forward $484 $-1 #
edge $-1 $496 -52.344572852795139 $362 -39.436260490857975 $358 $497 forward 7 unknown #
edge $-1 $363 -21.960932409720144 $496 -1.7500491998158137e-014 $236 $498 forward 7 unknown #
coedge $-1 $237 $488 $494 $499 forward $351 $-1 #
vertex $-1 $238 $500 #
vertex $-1 $238 $501 #
straight-curve $-1 -71.073373162476713 21.637453262027016 13.937764753010001 1 0 0 I I #
coedge $-1 $365 $365 $-1 $502 reversed $241 $-1 #
edge $-1 $503 0 $503 6.2831853071796004 $242 $504 forward 7 unknown #
vertex $-1 $245 $505 #
ellipse-curve $-1 -56.454303601368061 23.877884097610099 7.4836085720414198 -0.5877852598018023 0 0.80901698891910034 0.40450849445955017 0 0.29389262990090115 1 I I #
coedge $-1 $369 $369 $-1 $506 reversed $248 $-1 #
edge $-1 $507 0 $507 6.2831853071796004 $249 $508 forward 7 unknown #
vertex $-1 $252 $509 #
ellipse-curve $-1 -56.454303601368061 27.238530350984725 7.4836085720414198 -0.5877852598018023 0 0.80901698891910034 0.40450849445955017 0 0.29389262990090115 1 I I #
coedge $-1 $373 $373 $-1 $510 reversed $255 $-1 #
edge $-1 $511 0 $511 6.2831853071796004 $256 $512 forward 7 unknown #
vertex $-1 $259 $513 #
ellipse-curve $-1 -56.454303601368061 30.59917660435935 7.4836085720414198 -0.5877852598018023 0 0.80901698891910034 0.40450849445955017 0 0.29389262990090115 1 I I #
face $-1 $-1 $275 $39 $-1 $514 reversed single #
loop $-1 $-1 $393 $260 #
plane-surface $-1 0 43.908273820509031 0 0 -1 0 0 0 -1 forward_v I I I I #
coedge $-1 $515 $391 $394 $516 forward $261 $-1 #
coedge $-1 $397 $263 $264 $385 reversed $165 $-1 #
coedge $-1 $391 $515 $263 $383 reversed $261 $-1 #
edge $-1 $398 -13.937764753009997 $517 13.937764753009997 $382 $518 forward 7 unknown #
coedge $-1 $265 $264 $515 $519 forward $105 $-1 #
edge $-1 $389 -65.337687307351899 $517 65.337687307351899 $381 $520 forward 7 unknown #
coedge $-1 $394 $393 $265 $387 reversed $378 $-1 #
edge $-1 $521 -65.337687307351899 $388 65.337687307351899 $386 $522 forward 7 unknown #
vertex $-1 $267 $523 #
vertex $-1 $400 $524 #
straight-curve $-1 65.337687307351899 0 -13.937764753009997 0 -1 0 I I #
coedge $-1 $380 $382 $268 $392 reversed $261 $-1 #
edge $-1 $395 -43.908273820509031 $398 43.908273820509031 $391 $525 forward 7 unknown #
coedge $-1 $386 $269 $274 $401 forward $378 $-1 #
coedge $-1 $269 $386 $380 $516 reversed $378 $-1 #
vertex $-1 $270 $526 #
straight-curve $-1 0 43.908273820509031 13.937764753009997 -1 0 0 I I #
coedge $-1 $271 $381 $273 $400 reversed $165 $-1 #
vertex $-1 $392 $527 #
straight-curve $-1 0 -43.908273820509031 13.937764753009997 1 0 0 I I #
edge $-1 $276 -13.937764753009997 $389 13.937764753009997 $273 $528 forward 7 unknown #
edge $-1 $277 -13.937764753009997 $388 13.937764753009997 $274 $529 forward 7 unknown #
point $-1 65.337687307351899 -43.908273820509031 13.937764753009997 #
point $-1 65.337687307351899 43.908273820509031 13.937764753009997 #
face $-1 $-1 $294 $40 $-1 $530 reversed single #
loop $-1 $-1 $290 $279 #
plane-surface $-1 0 -43.908273820509031 0 0 1 0 0 0 1 forward_v I I I I #
coedge $-1 $531 $532 $287 $417 forward $280 $-1 #
coedge $-1 $418 $282 $284 $413 reversed $173 $-1 #
edge $-1 $415 -5.2313335794056446 $295 1.9583530722324887 $293 $533 forward 7 unknown #
coedge $-1 $284 $283 $534 $535 reversed $109 $-1 #
coedge $-1 $422 $421 $283 $412 forward $405 $-1 #
edge $-1 $536 -65.337687307351899 $414 65.337687307351899 $411 $537 forward 7 unknown #
edge $-1 $538 -65.337687307351899 $415 65.337687307351899 $408 $539 forward 7 unknown #
vertex $-1 $412 $540 #
vertex $-1 $286 $541 #
straight-curve $-1 65.337687307351899 -19.2013656309637 -6.8678238329922223 0 1 0 I I #
edge $-1 $423 -24.706908189545324 $419 -13.695823072382076 $407 $542 forward 7 unknown #
coedge $-1 $288 $408 $531 $543 reversed $173 $-1 #
vertex $-1 $417 $544 #
straight-curve $-1 0 -32.897188703345776 0.32186281864591093 -1 0 0 I I #
coedge $-1 $411 $290 $532 $545 forward $405 $-1 #
coedge $-1 $290 $411 $292 $425 reversed $405 $-1 #
vertex $-1 $545 $546 #
straight-curve $-1 0 -43.908273820509031 0.32186281864591093 -1 0 0 I I #
edge $-1 $296 -0.32186281864591093 $414 6.8678238329922223 $292 $547 forward 7 unknown #
point $-1 65.337687307351899 -32.897188703345776 0.32186281864591093 #
point $-1 65.337687307351899 -43.908273820509024 0.32186281864591093 #
plane-surface $-1 65.337687307351899 0 0 -1 0 0 0 0 1 forward_v I I I I #
coedge $-1 $439 $438 $431 $548 forward $299 $-1 #
coedge $-1 $431 $301 $303 $435 reversed $181 $-1 #
coedge $-1 $301 $430 $429 $548 reversed $181 $-1 #
coedge $-1 $309 $304 $301 $433 forward $310 $-1 #
edge $-1 $436 -90.921884545960367 $549 -77.135666934826816 $432 $550 forward 7 unknown #
coedge $-1 $303 $302 $439 $551 reversed $113 $-1 #
edge $-1 $552 106.63983800660554 $436 130.6753746147038 $430 $553 forward 7 unknown #
vertex $-1 $305 $554 #
straight-curve $-1 65.337687307351899 -1.6652940001822216 0.15154714187644913 0 1 0 I I #
coedge $-1 $429 $306 $309 $443 forward $299 $-1 #
coedge $-1 $306 $429 $434 $551 forward $299 $-1 #
vertex $-1 $307 $555 #
straight-curve $-1 16.623502193095291 -14.788588494222077 13.937764753010001 1 0 0 I I #
straight-curve $-1 -41.705312270127351 -14.788588494222077 75.103863798194396 -0.81915203911291934 0 0.57357644374324357 I I #
edge $-1 $311 -14.788588494222077 $549 8.1274124934931908 $309 $556 forward 7 unknown #
point $-1 65.337687307351899 -14.788588494222077 13.937764753009997 #
point $-1 65.337687307351899 -14.788588494222077 0.15154714187644913 #
edge $-1 $557 1 $557 0 $314 $-1 forward 7 unknown #
vertex $-1 $315 $558 #
ellipse-curve $-1 53.550636496637964 -8.2411596405891459 4.270233714686154 0.57357644374324357 0 0.81915203911291934 2.0478800977822984 0 -1.4339411093581089 1 I I #
point $-1 57.541187993285746 -8.2411596405891459 5.6107148380851433 #
edge $-1 $559 1 $559 0 $318 $-1 forward 7 unknown #
vertex $-1 $319 $560 #
ellipse-curve $-1 53.550636496637964 1.5799836398602523 4.270233714686154 0.57357644374324357 0 0.81915203911291934 2.0478800977822984 0 -1.4339411093581089 1 I I #
point $-1 57.541187993285746 1.5799836398602523 5.6107148380851433 #
plane-surface $-1 0 0 13.937764753009997 0 0 1 1 0 0 forward_v I I I I #
coedge $-1 $465 $464 $457 $561 forward $323 $-1 #
coedge $-1 $457 $325 $327 $461 reversed $203 $-1 #
coedge $-1 $325 $456 $455 $561 reversed $203 $-1 #
coedge $-1 $333 $328 $325 $459 forward $334 $-1 #
edge $-1 $462 -23.502453267092477 $562 -5.7356858551248138 $458 $563 forward 7 unknown #
coedge $-1 $327 $326 $465 $564 reversed $127 $-1 #
edge $-1 $565 1.7500491998158137e-014 $462 21.960932409720144 $456 $566 forward 7 unknown #
vertex $-1 $329 $567 #
straight-curve $-1 -47.570919895384236 -5.5821004554713376 13.937764753009997 0 1 0 I I #
coedge $-1 $455 $330 $333 $469 reversed $323 $-1 #
coedge $-1 $330 $455 $460 $564 forward $323 $-1 #
vertex $-1 $331 $568 #
straight-curve $-1 -65.337687307351899 -16.765277999900384 53.374025243867969 0 0 1 I I #
straight-curve $-1 -65.337687307351914 -16.765277999900384 1.029452391072823 -0.80901698891910034 0 -0.5877852598018023 I I #
edge $-1 $562 5.5631238219849664 $335 16.765277999900384 $464 $569 forward 7 unknown #
point $-1 -65.337687307351899 -16.765277999900384 13.937764753009997 #
point $-1 -47.570919895384236 -16.765277999900384 13.937764753009997 #
edge $-1 $570 1 $570 0 $338 $-1 forward 7 unknown #
vertex $-1 $339 $571 #
ellipse-curve $-1 -55.866518341566248 -14.5248471643173 6.6745915831223046 -0.5877852598018023 0 0.80901698891910034 0.40450849445955017 0 0.29389262990090115 1 I I #
point $-1 -56.049795106908505 -14.5248471643173 7.7775012019423055 #
edge $-1 $572 1 $572 0 $342 $-1 forward 7 unknown #
vertex $-1 $343 $573 #
ellipse-curve $-1 -55.866518341566248 -11.164200910942675 6.6745915831223046 -0.5877852598018023 0 0.80901698891910034 0.40450849445955017 0 0.29389262990090115 1 I I #
point $-1 -56.049795106908505 -11.164200910942675 7.7775012019423055 #
edge $-1 $574 1 $574 0 $346 $-1 forward 7 unknown #
vertex $-1 $347 $575 #
ellipse-curve $-1 -55.866518341566248 -7.8035546575680499 6.6745915831223046 -0.5877852598018023 0 0.80901698891910034 0.40450849445955017 0 0.29389262990090115 1 I I #
point $-1 -56.049795106908505 -7.8035546575680499 7.7775012019423055 #
loop $-1 $-1 $358 $350 #
plane-surface $-1 -65.337687307351899 0 0 1 0 0 0 0 -1 forward_v I I I I #
coedge $-1 $487 $353 $355 $491 reversed $232 $-1 #
coedge $-1 $353 $486 $576 $577 reversed $232 $-1 #
coedge $-1 $361 $356 $353 $489 forward $351 $-1 #
edge $-1 $492 -23.502453267092477 $578 -5.7356858551248138 $488 $579 forward 7 unknown #
coedge $-1 $355 $354 $495 $580 reversed $146 $-1 #
edge $-1 $581 1.7500491998158137e-014 $492 21.960932409720144 $486 $582 forward 7 unknown #
vertex $-1 $357 $583 #
straight-curve $-1 -47.570919895384236 13.619265175492362 13.937764753009997 0 1 0 I I #
coedge $-1 $576 $358 $361 $499 reversed $484 $-1 #
coedge $-1 $358 $576 $490 $580 forward $484 $-1 #
vertex $-1 $359 $584 #
straight-curve $-1 -65.337687307351899 21.637453262027016 53.374025243867969 0 0 1 I I #
straight-curve $-1 -65.337687307351914 21.637453262027016 1.029452391072823 -0.80901698891910034 0 -0.5877852598018023 I I #
edge $-1 $578 -32.839607439942434 $362 -21.637453262027016 $494 $585 forward 7 unknown #
point $-1 -65.337687307351899 21.637453262027016 13.937764753009997 #
point $-1 -47.570919895384236 21.637453262027016 13.937764753009997 #
edge $-1 $586 1 $586 0 $365 $-1 forward 7 unknown #
vertex $-1 $366 $587 #
ellipse-curve $-1 -55.866518341566248 23.877884097610099 6.6745915831223046 -0.5877852598018023 0 0.80901698891910034 0.40450849445955017 0 0.29389262990090115 1 I I #
point $-1 -56.049795106908505 23.877884097610099 7.7775012019423055 #
edge $-1 $588 1 $588 0 $369 $-1 forward 7 unknown #
vertex $-1 $370 $589 #
ellipse-curve $-1 -55.866518341566248 27.238530350984725 6.6745915831223046 -0.5877852598018023 0 0.80901698891910034 0.40450849445955017 0 0.29389262990090115 1 I I #
point $-1 -56.049795106908505 27.238530350984725 7.7775012019423055 #
edge $-1 $590 1 $590 0 $373 $-1 forward 7 unknown #
vertex $-1 $374 $591 #
ellipse-curve $-1 -55.866518341566248 30.59917660435935 6.6745915831223046 -0.5877852598018023 0 0.80901698891910034 0.40450849445955017 0 0.29389262990090115 1 I I #
point $-1 -56.049795106908505 30.59917660435935 7.7775012019423055 #
plane-surface $-1 65.337687307351899 0 0 -1 0 0 0 0 1 forward_v I I I I #
coedge $-1 $382 $380 $384 $519 reversed $261 $-1 #
edge $-1 $395 -13.937764753009997 $521 13.937764753009997 $394 $592 forward 7 unknown #
vertex $-1 $519 $593 #
straight-curve $-1 -65.337687307351899 -43.908273820509031 0 0 0 -1 I I #
edge $-1 $517 -43.908273820509031 $521 43.908273820509031 $515 $594 forward 7 unknown #
straight-curve $-1 0 -43.908273820509031 -13.937764753009997 -1 0 0 I I #
vertex $-1 $387 $595 #
straight-curve $-1 0 43.908273820509031 -13.937764753009997 1 0 0 I I #
point $-1 65.337687307351899 43.908273820509031 -13.937764753009997 #
point $-1 65.337687307351899 -43.908273820509031 -13.937764753009997 #
straight-curve $-1 -65.337687307351899 0 13.937764753009997 0 -1 0 I I #
point $-1 -65.337687307351899 43.908273820509031 13.937764753009997 #
point $-1 -65.337687307351899 -43.908273820509031 13.937764753009997 #
straight-curve $-1 65.337687307351899 -43.908273820509031 0 0 0 -1 I I #
straight-curve $-1 65.337687307351899 43.908273820509031 0 0 0 -1 I I #
plane-surface $-1 65.337687307351899 0 0 -1 0 0 0 0 1 forward_v I I I I #
coedge $-1 $534 $407 $418 $543 forward $280 $-1 #
coedge $-1 $407 $534 $421 $545 reversed $280 $-1 #
straight-curve $-1 65.337687307351899 -32.897188703345776 -1.6364902535865777 0 0 1 I I #
coedge $-1 $532 $531 $410 $535 forward $280 $-1 #
edge $-1 $538 13.695823072382076 $536 24.706908189545324 $534 $596 forward 7 unknown #
vertex $-1 $412 $597 #
straight-curve $-1 0 -43.908273820509031 -6.8678238329922223 1 0 0 I I #
vertex $-1 $535 $598 #
straight-curve $-1 0 -32.897188703345776 -6.8678238329922223 1 0 0 I I #
point $-1 65.337687307351899 -43.908273820509024 -6.8678238329922223 #
point $-1 65.337687307351899 -32.897188703345776 -6.8678238329922223 #
straight-curve $-1 -65.337687307351899 -19.2013656309637 0.32186281864591093 0 1 0 I I #
edge $-1 $419 -1.9583530722324887 $538 5.2313335794056446 $531 $599 forward 7 unknown #
point $-1 -65.337687307351899 -32.897188703345776 0.32186281864591093 #
edge $-1 $423 -0.32186281864591093 $536 6.8678238329922223 $532 $600 forward 7 unknown #
point $-1 -65.337687307351899 -43.908273820509024 0.32186281864591093 #
straight-curve $-1 65.337687307351899 -43.908273820509031 0 0 0 -1 I I #
edge $-1 $549 -48.714185114256608 $552 -29.025426290559679 $429 $601 forward 7 unknown #
vertex $-1 $548 $602 #
straight-curve $-1 65.337687307351899 8.1274124934931908 91.073431687836816 0 0 1 I I #
edge $-1 $552 -9.7927064936754125 $440 13.123294494039856 $439 $603 forward 7 unknown #
vertex $-1 $551 $604 #
straight-curve $-1 -41.705312270127351 8.1274124934931908 75.103863798194396 0.81915203911291934 0 -0.57357644374324357 I I #
point $-1 65.337687307351899 8.1274124934931908 0.15154714187644913 #
point $-1 45.64892848365497 -14.788588494222077 13.937764753010008 #
straight-curve $-1 65.337687307351899 0 13.937764753009997 0 1 0 I I #
vertex $-1 $446 $605 #
point $-1 55.598516594420268 -8.2411596405891459 2.8362926053280448 #
vertex $-1 $450 $606 #
point $-1 55.598516594420268 1.5799836398602523 2.8362926053280448 #
edge $-1 $562 39.436260490857975 $565 52.344572852795139 $455 $607 forward 7 unknown #
vertex $-1 $469 $608 #
straight-curve $-1 -71.073373162476713 -5.5631238219849664 13.937764753010001 -1 0 0 I I #
edge $-1 $565 -0.018976633486371242 $466 11.183177544429046 $465 $609 forward 7 unknown #
vertex $-1 $564 $610 #
straight-curve $-1 -65.337687307351914 -5.5631238219849664 1.029452391072823 0.80901698891910034 0 0.5877852598018023 I I #
point $-1 -47.570919895384236 -5.5631238219849664 13.937764753009997 #
point $-1 -65.337687307351899 -16.765277999900384 1.0294523910728333 #
straight-curve $-1 -65.337687307351899 0 13.937764753009997 0 -1 0 I I #
vertex $-1 $472 $611 #
point $-1 -55.4620098471067 -14.5248471643173 6.9684842130232054 #
vertex $-1 $476 $612 #
point $-1 -55.4620098471067 -11.164200910942675 6.9684842130232054 #
vertex $-1 $480 $613 #
point $-1 -55.4620098471067 -7.8035546575680499 6.9684842130232054 #
coedge $-1 $495 $494 $487 $577 forward $484 $-1 #
edge $-1 $578 39.436260490857975 $581 52.344572852795139 $576 $614 forward 7 unknown #
vertex $-1 $499 $615 #
straight-curve $-1 -71.073373162476713 32.839607439942434 13.937764753010001 -1 0 0 I I #
edge $-1 $581 -19.220342264450071 $496 -8.0181880865346535 $495 $616 forward 7 unknown #
vertex $-1 $580 $617 #
straight-curve $-1 -65.337687307351914 32.839607439942434 1.029452391072823 0.80901698891910034 0 0.5877852598018023 I I #
point $-1 -47.570919895384236 32.839607439942434 13.937764753009997 #
point $-1 -65.337687307351899 21.637453262027016 1.0294523910728333 #
straight-curve $-1 -65.337687307351899 0 13.937764753009997 0 -1 0 I I #
vertex $-1 $502 $618 #
point $-1 -55.4620098471067 23.877884097610099 6.9684842130232054 #
vertex $-1 $506 $619 #
point $-1 -55.4620098471067 27.238530350984725 6.9684842130232054 #
vertex $-1 $510 $620 #
point $-1 -55.4620098471067 30.59917660435935 6.9684842130232054 #
straight-curve $-1 -65.337687307351899 43.908273820509031 0 0 0 -1 I I #
point $-1 -65.337687307351899 -43.908273820509031 -13.937764753009997 #
straight-curve $-1 -65.337687307351899 0 -13.937764753009997 0 1 0 I I #
point $-1 -65.337687307351899 43.908273820509031 -13.937764753009997 #
straight-curve $-1 -65.337687307351899 -19.2013656309637 -6.8678238329922223 0 -1 0 I I #
point $-1 -65.337687307351899 -43.908273820509024 -6.8678238329922223 #
point $-1 -65.337687307351899 -32.897188703345776 -6.8678238329922223 #
straight-curve $-1 -65.337687307351899 -32.897188703345776 -1.6364902535865777 0 0 -1 I I #
straight-curve $-1 -65.337687307351899 -43.908273820509031 0 0 0 -1 I I #
straight-curve $-1 16.623502193095291 8.1274124934931908 13.937764753010001 -1 0 0 I I #
point $-1 65.337687307351899 8.1274124934931908 13.937764753009997 #
straight-curve $-1 45.64892848365497 -1.6652940001822216 13.937764753010008 0 -1 0 I I #
point $-1 45.64892848365497 8.1274124934931908 13.937764753010008 #
point $-1 52.116695387279862 -8.2411596405891459 2.2223536169038551 #
point $-1 52.116695387279862 1.5799836398602523 2.2223536169038551 #
straight-curve $-1 -65.337687307351899 -5.5631238219849664 53.374025243867969 0 0 -1 I I #
point $-1 -65.337687307351899 -5.5631238219849664 13.937764753009997 #
straight-curve $-1 -65.337687307351899 -5.5821004554713376 1.0294523910728244 0 -1 0 I I #
point $-1 -65.337687307351899 -5.5631238219849664 1.0294523910728333 #
point $-1 -55.572625711665353 -14.5248471643173 6.2700830886627541 #
point $-1 -55.572625711665353 -11.164200910942675 6.2700830886627541 #
point $-1 -55.572625711665353 -7.8035546575680499 6.2700830886627541 #
straight-curve $-1 -65.337687307351899 32.839607439942434 53.374025243867969 0 0 -1 I I #
point $-1 -65.337687307351899 32.839607439942434 13.937764753009997 #
straight-curve $-1 -65.337687307351899 13.619265175492362 1.0294523910728244 0 -1 0 I I #
point $-1 -65.337687307351899 32.839607439942434 1.0294523910728333 #
point $-1 -55.572625711665353 23.877884097610099 6.2700830886627541 #
point $-1 -55.572625711665353 27.238530350984725 6.2700830886627541 #
point $-1 -55.572625711665353 30.59917660435935 6.2700830886627541 #
End-of-ACIS-data 