500 0 9 0           
7 Unknown 11 ACIS 5.0 NT 24 Fri Mar 26 20:00:34 1999 
-1 9.9999999999999995e-007 1e-010 
body $-1 $9 $-1 $10 #
body $-1 $11 $-1 $12 #
body $-1 $13 $-1 $14 #
body $-1 $15 $-1 $16 #
body $-1 $17 $-1 $18 #
body $-1 $19 $-1 $20 #
body $-1 $21 $-1 $22 #
body $-1 $23 $-1 $24 #
body $-1 $25 $-1 $26 #
lump $-1 $-1 $27 $0 #
transform $-1 1 0 0 0 1 0 0 0 1 72.8659932248909 45.084763122677103 11.137382582980129 1 rotate no_reflect no_shear #
lump $-1 $-1 $28 $1 #
transform $-1 1 0 0 0 1 0 0 0 1 72.8659932248909 45.084763122677103 11.137382582980129 1 rotate no_reflect no_shear #
lump $-1 $-1 $29 $2 #
transform $-1 1 0 0 0 1 0 0 0 1 72.8659932248909 45.084763122677103 11.137382582980129 1 rotate no_reflect no_shear #
lump $-1 $-1 $30 $3 #
transform $-1 1 0 0 0 1 0 0 0 1 72.8659932248909 45.084763122677103 11.137382582980129 1 rotate no_reflect no_shear #
lump $-1 $-1 $31 $4 #
transform $-1 1 0 0 0 1 0 0 0 1 72.8659932248909 45.084763122677103 11.137382582980129 1 rotate no_reflect no_shear #
lump $-1 $-1 $32 $5 #
transform $-1 1 0 0 0 1 0 0 0 1 72.8659932248909 45.084763122677103 11.137382582980129 1 rotate no_reflect no_shear #
lump $-1 $-1 $33 $6 #
transform $-1 1 0 0 0 1 0 0 0 1 72.8659932248909 45.084763122677103 11.137382582980129 1 rotate no_reflect no_shear #
lump $-1 $-1 $34 $7 #
transform $-1 1 0 0 0 1 0 0 0 1 72.8659932248909 45.084763122677103 11.137382582980129 1 rotate no_reflect no_shear #
lump $-1 $-1 $35 $8 #
transform $-1 1 0 0 0 1 0 0 0 1 72.8659932248909 45.084763122677103 11.137382582980129 1 rotate no_reflect no_shear #
shell $-1 $-1 $-1 $36 $-1 $9 #
shell $-1 $-1 $-1 $37 $-1 $11 #
shell $-1 $-1 $-1 $38 $-1 $13 #
shell $-1 $-1 $-1 $39 $-1 $15 #
shell $-1 $-1 $-1 $40 $-1 $17 #
shell $-1 $-1 $-1 $41 $-1 $19 #
shell $-1 $-1 $-1 $42 $-1 $21 #
shell $-1 $-1 $-1 $43 $-1 $23 #
shell $-1 $-1 $-1 $44 $-1 $25 #
face $-1 $45 $46 $27 $-1 $47 reversed single #
face $-1 $48 $49 $28 $-1 $50 forward single #
face $-1 $51 $52 $29 $-1 $53 reversed single #
face $-1 $54 $55 $30 $-1 $56 forward single #
face $-1 $57 $58 $31 $-1 $59 forward single #
face $-1 $60 $61 $32 $-1 $62 reversed single #
face $-1 $63 $64 $33 $-1 $65 forward single #
face $-1 $66 $67 $34 $-1 $68 forward single #
face $-1 $69 $70 $35 $-1 $71 forward single #
face $-1 $72 $73 $27 $-1 $74 forward single #
loop $-1 $-1 $75 $36 #
plane-surface $-1 -72.8659932248909 0 0 1 0 0 0 0 -1 forward_v I I I I #
face $-1 $76 $77 $28 $-1 $78 reversed single #
loop $-1 $-1 $79 $37 #
plane-surface $-1 -72.8659932248909 0 0 1 0 0 0 0 -1 forward_v I I I I #
face $-1 $80 $81 $29 $-1 $82 reversed single #
loop $-1 $-1 $83 $38 #
plane-surface $-1 -64.483844168199269 84.373357448028841 174.47185224589981 1 0 0 0 -0.70710678939079041 -0.70710677298230451 forward_v I I I I #
face $-1 $84 $85 $30 $-1 $86 forward single #
loop $-1 $87 $88 $39 #
cone-surface $-1 -56.02508848174071 42.704006232507865 8.7566256674632132 0 -0.70710678939079041 -0.70710677298230451 0.5 0 0 1 I I 0 1 0.5 forward I I I I #
face $-1 $89 $90 $31 $-1 $91 forward single #
loop $-1 $92 $93 $40 #
cone-surface $-1 -43.336954952052864 42.704006232507865 8.7566256674632132 0 -0.70710678939079041 -0.70710677298230451 0.5 0 0 1 I I 0 1 0.5 forward I I I I #
face $-1 $94 $95 $32 $-1 $96 reversed single #
loop $-1 $-1 $97 $41 #
plane-surface $-1 62.962024954969223 -45.084763122677089 5.9211893956113073 0 -0.77714596973225614 0.62932038083071107 1 0 0 forward_v I I I I #
face $-1 $98 $99 $33 $-1 $100 forward single #
loop $-1 $101 $102 $42 #
cone-surface $-1 57.019643993016217 -41.233937594327742 7.1212087655490048 0 0.77714596973225614 -0.62932038083071107 1.5 0 0 1 I I 0 1 1.5 forward I I I I #
face $-1 $103 $104 $34 $-1 $105 forward single #
loop $-1 $106 $107 $43 #
cone-surface $-1 62.962024954969223 -41.233937594327742 7.1212087655490048 0 0.77714596973225614 -0.62932038083071107 1.5 0 0 1 I I 0 1 1.5 forward I I I I #
face $-1 $108 $109 $35 $-1 $110 forward single #
loop $-1 $111 $112 $44 #
cone-surface $-1 68.904405916922229 -41.233937594327742 7.1212087655490048 0 0.77714596973225614 -0.62932038083071107 1.5 0 0 1 I I 0 1 1.5 forward I I I I #
face $-1 $113 $114 $27 $-1 $115 reversed single #
loop $-1 $-1 $116 $45 #
plane-surface $-1 0 0 11.137382582980129 0 0 1 1 0 0 forward_v I I I I #
coedge $-1 $117 $118 $119 $120 reversed $46 $-1 #
face $-1 $121 $122 $28 $-1 $123 reversed single #
loop $-1 $-1 $124 $48 #
plane-surface $-1 0 0 -11.137382582980129 0 0 1 1 0 0 forward_v I I I I #
coedge $-1 $125 $126 $127 $128 forward $49 $-1 #
face $-1 $129 $130 $29 $-1 $131 reversed single #
loop $-1 $-1 $132 $51 #
plane-surface $-1 -49.681021716896787 -18.674719602018541 71.423777587093682 0 0.70710678939079041 0.70710677298230451 1 0 0 forward_v I I I I #
coedge $-1 $133 $134 $135 $136 reversed $52 $-1 #
face $-1 $-1 $137 $30 $-1 $138 forward single #
loop $-1 $139 $140 $54 #
cone-surface $-1 -56.02508848174071 41.883017204757977 7.9356366587644604 0 -0.70710678939079041 -0.70710677298230451 0.25 0 0 1 I I -0.70710678118654746 0.70710678118654746 0.25 forward I I I I #
loop $-1 $-1 $141 $39 #
coedge $-1 $88 $88 $142 $143 reversed $55 $-1 #
face $-1 $-1 $144 $31 $-1 $145 forward single #
loop $-1 $146 $147 $57 #
cone-surface $-1 -43.336954952052864 41.883017204757977 7.9356366587644604 0 -0.70710678939079041 -0.70710677298230451 0.25 0 0 1 I I -0.70710678118654746 0.70710678118654746 0.25 forward I I I I #
loop $-1 $-1 $148 $40 #
coedge $-1 $93 $93 $149 $150 reversed $58 $-1 #
face $-1 $151 $152 $32 $-1 $153 reversed single #
loop $-1 $-1 $154 $60 #
plane-surface $-1 53.058056685047532 -158.33978905320078 97.633298607404015 1 0 0 0 0.77714596973225614 -0.62932038083071107 forward_v I I I I #
coedge $-1 $155 $156 $157 $158 reversed $61 $-1 #
face $-1 $-1 $159 $33 $-1 $160 forward single #
loop $-1 $161 $162 $63 #
cone-surface $-1 57.019643993016217 -38.91224751049063 5.2411412561792634 0 0.77714596973225614 -0.62932038083071107 0.75 0 0 1 I I -0.70710678118654757 0.70710678118654757 0.75 forward I I I I #
loop $-1 $-1 $163 $42 #
coedge $-1 $102 $102 $164 $165 reversed $64 $-1 #
face $-1 $-1 $166 $34 $-1 $167 forward single #
loop $-1 $168 $169 $66 #
cone-surface $-1 62.962024954969223 -38.91224751049063 5.2411412561792634 0 0.77714596973225614 -0.62932038083071107 0.75 0 0 1 I I -0.70710678118654757 0.70710678118654757 0.75 forward I I I I #
loop $-1 $-1 $170 $43 #
coedge $-1 $107 $107 $171 $172 reversed $67 $-1 #
face $-1 $-1 $173 $35 $-1 $174 forward single #
loop $-1 $175 $176 $69 #
cone-surface $-1 68.904405916922229 -38.91224751049063 5.2411412561792634 0 0.77714596973225614 -0.62932038083071107 0.75 0 0 1 I I -0.70710678118654757 0.70710678118654757 0.75 forward I I I I #
loop $-1 $-1 $177 $44 #
coedge $-1 $112 $112 $178 $179 reversed $70 $-1 #
face $-1 $180 $181 $27 $-1 $182 reversed single #
loop $-1 $-1 $183 $72 #
plane-surface $-1 0 0 -11.137382582980129 0 0 1 1 0 0 forward_v I I I I #
coedge $-1 $184 $185 $186 $187 forward $73 $-1 #
coedge $-1 $188 $75 $189 $190 reversed $46 $-1 #
coedge $-1 $75 $188 $191 $192 forward $46 $-1 #
coedge $-1 $193 $194 $75 $120 forward $114 $-1 #
edge $-1 $195 -45.084763122677103 $196 45.084763122677103 $75 $197 forward 7 unknown #
face $-1 $198 $199 $28 $-1 $200 reversed single #
loop $-1 $-1 $201 $76 #
plane-surface $-1 -77.057067753236709 -31.890978928986019 0 0 1 0 0 0 1 forward_v I I I I #
coedge $-1 $202 $203 $126 $204 forward $77 $-1 #
coedge $-1 $205 $79 $206 $207 reversed $49 $-1 #
coedge $-1 $79 $205 $124 $204 reversed $49 $-1 #
coedge $-1 $208 $209 $79 $128 reversed $210 $-1 #
edge $-1 $211 -11.137382582980129 $212 11.137382582980129 $127 $213 forward 7 unknown #
face $-1 $214 $215 $29 $-1 $216 forward single #
loop $-1 $-1 $217 $80 #
plane-surface $-1 -34.878199265594304 84.373357448028841 174.47185224589981 -1 0 0 0 0.70710678939079041 0.70710677298230451 forward_v I I I I #
coedge $-1 $218 $219 $220 $221 reversed $81 $-1 #
coedge $-1 $134 $83 $222 $223 reversed $52 $-1 #
coedge $-1 $83 $133 $218 $224 reversed $52 $-1 #
coedge $-1 $220 $225 $83 $136 forward $215 $-1 #
edge $-1 $226 -2.8980843986626823 $227 0.57500472087141929 $135 $228 forward 7 unknown #
loop $-1 $-1 $142 $84 #
plane-surface $-1 -49.681021716896787 -18.674719602018541 71.423777587093682 0 0.70710678939079041 0.70710677298230451 1 0 0 forward_v I I I I #
loop $-1 $-1 $229 $54 #
coedge $-1 $140 $140 $141 $230 reversed $85 $-1 #
coedge $-1 $141 $141 $140 $230 forward $87 $-1 #
coedge $-1 $142 $142 $88 $143 forward $137 $-1 #
edge $-1 $231 -2.512147963041366e-015 $231 6.2831853071795978 $142 $232 forward 7 unknown #
loop $-1 $-1 $149 $89 #
plane-surface $-1 -49.681021716896787 -18.674719602018541 71.423777587093682 0 0.70710678939079041 0.70710677298230451 1 0 0 forward_v I I I I #
loop $-1 $-1 $233 $57 #
coedge $-1 $147 $147 $148 $234 reversed $90 $-1 #
coedge $-1 $148 $148 $147 $234 forward $92 $-1 #
coedge $-1 $149 $149 $93 $150 forward $144 $-1 #
edge $-1 $235 -2.512147963041366e-015 $235 6.2831853071795978 $149 $236 forward 7 unknown #
face $-1 $237 $238 $32 $-1 $239 forward single #
loop $-1 $-1 $240 $94 #
plane-surface $-1 0 -45.084763122677103 0 0 1 0 0 0 1 forward_v I I I I #
coedge $-1 $241 $242 $243 $244 reversed $95 $-1 #
coedge $-1 $245 $97 $246 $247 reversed $61 $-1 #
coedge $-1 $97 $245 $241 $248 forward $61 $-1 #
coedge $-1 $243 $249 $97 $158 forward $238 $-1 #
edge $-1 $250 -41.384980747406303 $251 -21.577044207562921 $157 $252 forward 7 unknown #
loop $-1 $-1 $164 $98 #
plane-surface $-1 62.962024954969223 -45.084763122677089 5.9211893956113073 0 -0.77714596973225614 0.62932038083071107 1 0 0 forward_v I I I I #
loop $-1 $-1 $253 $63 #
coedge $-1 $162 $162 $163 $254 reversed $99 $-1 #
coedge $-1 $163 $163 $162 $254 forward $101 $-1 #
coedge $-1 $164 $164 $102 $165 forward $159 $-1 #
edge $-1 $255 -1.1404087557052994e-015 $255 6.2831853071795996 $164 $256 forward 7 unknown #
loop $-1 $-1 $171 $103 #
plane-surface $-1 62.962024954969223 -45.084763122677089 5.9211893956113073 0 -0.77714596973225614 0.62932038083071107 1 0 0 forward_v I I I I #
loop $-1 $-1 $257 $66 #
coedge $-1 $169 $169 $170 $258 reversed $104 $-1 #
coedge $-1 $170 $170 $169 $258 forward $106 $-1 #
coedge $-1 $171 $171 $107 $172 forward $166 $-1 #
edge $-1 $259 -1.1404087557052994e-015 $259 6.2831853071795996 $171 $260 forward 7 unknown #
loop $-1 $-1 $178 $108 #
plane-surface $-1 62.962024954969223 -45.084763122677089 5.9211893956113073 0 -0.77714596973225614 0.62932038083071107 1 0 0 forward_v I I I I #
loop $-1 $-1 $261 $69 #
coedge $-1 $176 $176 $177 $262 reversed $109 $-1 #
coedge $-1 $177 $177 $176 $262 forward $111 $-1 #
coedge $-1 $178 $178 $112 $179 forward $173 $-1 #
edge $-1 $263 -1.1404087557052994e-015 $263 6.2831853071795996 $178 $264 forward 7 unknown #
face $-1 $265 $266 $27 $-1 $267 reversed single #
loop $-1 $-1 $189 $113 #
plane-surface $-1 0 -45.084763122677103 0 0 1 0 0 0 1 forward_v I I I I #
coedge $-1 $194 $193 $268 $269 forward $114 $-1 #
coedge $-1 $270 $116 $271 $272 forward $73 $-1 #
coedge $-1 $116 $270 $273 $274 forward $73 $-1 #
coedge $-1 $275 $276 $116 $187 reversed $277 $-1 #
edge $-1 $278 -45.084763122677103 $279 45.084763122677103 $186 $280 forward 7 unknown #
coedge $-1 $118 $117 $270 $281 reversed $46 $-1 #
coedge $-1 $282 $273 $117 $190 forward $181 $-1 #
edge $-1 $283 -11.137382582980129 $195 11.137382582980129 $117 $284 forward 7 unknown #
coedge $-1 $271 $285 $118 $192 reversed $266 $-1 #
edge $-1 $286 -11.137382582980129 $196 11.137382582980129 $191 $287 forward 7 unknown #
coedge $-1 $183 $119 $285 $288 forward $114 $-1 #
coedge $-1 $119 $183 $282 $289 forward $114 $-1 #
vertex $-1 $120 $290 #
vertex $-1 $288 $291 #
straight-curve $-1 -72.8659932248909 0 -11.137382582980129 0 1 0 I I #
face $-1 $292 $210 $28 $-1 $293 reversed single #
loop $-1 $-1 $294 $121 #
plane-surface $-1 -81.248142281582517 -28.75390588141941 0 1 0 0 0 0 -1 forward_v I I I I #
coedge $-1 $295 $296 $297 $298 forward $122 $-1 #
coedge $-1 $299 $124 $295 $300 forward $77 $-1 #
coedge $-1 $124 $299 $208 $301 forward $77 $-1 #
edge $-1 $211 25.616832833852801 $302 31.890978928986019 $124 $303 forward 7 unknown #
coedge $-1 $126 $125 $304 $305 forward $49 $-1 #
coedge $-1 $306 $307 $125 $207 forward $308 $-1 #
edge $-1 $309 -31.890978928986019 $212 -25.616832833852801 $206 $310 forward 7 unknown #
coedge $-1 $311 $127 $203 $301 reversed $210 $-1 #
coedge $-1 $127 $311 $306 $312 reversed $210 $-1 #
loop $-1 $-1 $127 $198 #
vertex $-1 $204 $313 #
vertex $-1 $312 $314 #
straight-curve $-1 -72.8659932248909 -25.616832833852801 0 0 0 1 I I #
face $-1 $-1 $315 $29 $-1 $316 reversed single #
loop $-1 $-1 $135 $129 #
plane-surface $-1 0 0 11.137382582980129 0 0 1 1 0 0 forward_v I I I I #
coedge $-1 $317 $318 $319 $320 reversed $130 $-1 #
coedge $-1 $321 $132 $134 $224 forward $81 $-1 #
coedge $-1 $132 $321 $317 $322 forward $81 $-1 #
coedge $-1 $319 $135 $132 $221 forward $215 $-1 #
edge $-1 $227 -39.643333309750872 $323 -10.037688407145911 $220 $324 forward 7 unknown #
coedge $-1 $325 $326 $133 $223 forward $315 $-1 #
edge $-1 $327 -79.571632740097272 $226 -76.098543539969782 $222 $328 forward 7 unknown #
edge $-1 $227 85.25783645219056 $327 90.169526245354263 $134 $329 forward 7 unknown #
coedge $-1 $135 $319 $325 $330 forward $215 $-1 #
vertex $-1 $223 $331 #
vertex $-1 $136 $332 #
straight-curve $-1 -64.483844168199269 42.186678724014421 11.137382582980123 0 -1 0 I I #
coedge $-1 $229 $229 $-1 $333 reversed $139 $-1 #
edge $-1 $334 0 $334 6.2831853071796004 $140 $335 forward 7 unknown #
vertex $-1 $143 $336 #
ellipse-curve $-1 -56.02508848174071 43.348218562910056 9.4008379829163875 0 0.70710678939079041 0.70710677298230451 0.5 0 0 1 I I #
coedge $-1 $233 $233 $-1 $337 reversed $146 $-1 #
edge $-1 $338 0 $338 6.2831853071796004 $147 $339 forward 7 unknown #
vertex $-1 $150 $340 #
ellipse-curve $-1 -43.336954952052864 43.348218562910056 9.4008379829163875 0 0.70710678939079041 0.70710677298230451 0.5 0 0 1 I I #
face $-1 $-1 $341 $32 $-1 $342 reversed single #
loop $-1 $-1 $243 $151 #
plane-surface $-1 0 0 11.137382582980129 0 0 1 1 0 0 forward_v I I I I #
coedge $-1 $343 $344 $242 $345 forward $152 $-1 #
coedge $-1 $242 $154 $156 $248 reversed $95 $-1 #
coedge $-1 $154 $241 $240 $345 reversed $95 $-1 #
coedge $-1 $346 $157 $154 $244 forward $238 $-1 #
edge $-1 $251 -38.30912124754618 $347 -34.085131403923285 $243 $348 forward 7 unknown #
coedge $-1 $156 $155 $343 $349 reversed $61 $-1 #
coedge $-1 $350 $351 $155 $247 forward $341 $-1 #
edge $-1 $352 -11.885565911602445 $250 -5.1735795016800843 $246 $353 forward 7 unknown #
edge $-1 $354 -2.2748066086763162e-014 $251 6.7119864099223374 $241 $355 forward 7 unknown #
coedge $-1 $157 $346 $350 $356 forward $238 $-1 #
vertex $-1 $247 $357 #
vertex $-1 $158 $358 #
straight-curve $-1 31.481012477484612 -40.860773279054207 11.137382582980129 -1 0 0 I I #
coedge $-1 $253 $253 $-1 $359 reversed $161 $-1 #
edge $-1 $360 0 $360 6.2831853071796004 $162 $361 forward 7 unknown #
vertex $-1 $165 $362 #
ellipse-curve $-1 57.019643993016217 -42.972768200865652 8.5292859892957082 0 -0.77714596973225614 0.62932038083071107 1.5 0 0 1 I I #
coedge $-1 $257 $257 $-1 $363 reversed $168 $-1 #
edge $-1 $364 0 $364 6.2831853071796004 $169 $365 forward 7 unknown #
vertex $-1 $172 $366 #
ellipse-curve $-1 62.962024954969223 -42.972768200865652 8.5292859892957082 0 -0.77714596973225614 0.62932038083071107 1.5 0 0 1 I I #
coedge $-1 $261 $261 $-1 $367 reversed $175 $-1 #
edge $-1 $368 0 $368 6.2831853071796004 $176 $369 forward 7 unknown #
vertex $-1 $179 $370 #
ellipse-curve $-1 68.904405916922229 -42.972768200865652 8.5292859892957082 0 -0.77714596973225614 0.62932038083071107 1.5 0 0 1 I I #
face $-1 $-1 $277 $27 $-1 $371 reversed single #
loop $-1 $-1 $372 $180 #
plane-surface $-1 0 45.084763122677103 0 0 -1 0 0 0 -1 forward_v I I I I #
coedge $-1 $276 $275 $183 $269 reversed $277 $-1 #
edge $-1 $373 -45.084763122677103 $374 45.084763122677103 $268 $375 forward 7 unknown #
coedge $-1 $185 $184 $188 $281 forward $73 $-1 #
coedge $-1 $372 $191 $184 $272 reversed $266 $-1 #
edge $-1 $279 -72.8659932248909 $286 72.8659932248909 $271 $376 forward 7 unknown #
coedge $-1 $189 $377 $185 $274 reversed $181 $-1 #
edge $-1 $283 -72.8659932248909 $278 72.8659932248909 $273 $378 forward 7 unknown #
coedge $-1 $268 $186 $377 $379 forward $277 $-1 #
coedge $-1 $186 $268 $372 $380 reversed $277 $-1 #
loop $-1 $-1 $275 $265 #
vertex $-1 $187 $381 #
vertex $-1 $187 $382 #
straight-curve $-1 72.8659932248909 0 11.137382582980129 0 1 0 I I #
edge $-1 $286 -45.084763122677103 $283 45.084763122677103 $188 $383 forward 7 unknown #
coedge $-1 $377 $189 $194 $289 reversed $181 $-1 #
vertex $-1 $281 $384 #
straight-curve $-1 -72.8659932248909 -45.084763122677103 0 0 0 -1 I I #
coedge $-1 $191 $372 $193 $288 reversed $266 $-1 #
vertex $-1 $272 $385 #
straight-curve $-1 -72.8659932248909 45.084763122677103 0 0 0 -1 I I #
edge $-1 $196 -72.8659932248909 $373 72.8659932248909 $285 $386 forward 7 unknown #
edge $-1 $374 -72.8659932248909 $195 72.8659932248909 $282 $387 forward 7 unknown #
point $-1 -72.8659932248909 -45.084763122677103 -11.137382582980129 #
point $-1 -72.8659932248909 45.084763122677103 -11.137382582980129 #
face $-1 $-1 $308 $28 $-1 $388 forward single #
plane-surface $-1 -77.057067753236709 -25.616832833852801 0 0 -1 0 0 0 -1 forward_v I I I I #
coedge $-1 $389 $390 $311 $391 forward $199 $-1 #
coedge $-1 $304 $201 $202 $300 reversed $122 $-1 #
coedge $-1 $201 $304 $307 $392 reversed $122 $-1 #
coedge $-1 $390 $389 $201 $298 reversed $199 $-1 #
edge $-1 $393 -11.137382582980129 $394 11.137382582980129 $297 $395 forward 7 unknown #
coedge $-1 $203 $202 $389 $396 forward $77 $-1 #
edge $-1 $302 -4.1910745283458084 $394 4.1910745283458084 $295 $397 forward 7 unknown #
edge $-1 $398 -4.1910745283458084 $211 4.1910745283458084 $208 $399 forward 7 unknown #
vertex $-1 $300 $400 #
straight-curve $-1 -72.8659932248909 0 -11.137382582980129 0 -1 0 I I #
coedge $-1 $296 $295 $205 $305 reversed $122 $-1 #
edge $-1 $309 -11.137382582980129 $302 11.137382582980129 $304 $401 forward 7 unknown #
coedge $-1 $402 $206 $209 $312 forward $308 $-1 #
coedge $-1 $206 $402 $296 $392 forward $308 $-1 #
loop $-1 $-1 $206 $292 #
vertex $-1 $207 $403 #
straight-curve $-1 -72.8659932248909 0 11.137382582980129 0 1 0 I I #
coedge $-1 $209 $208 $294 $391 reversed $210 $-1 #
edge $-1 $212 -4.1910745283458084 $404 4.1910745283458084 $209 $405 forward 7 unknown #
point $-1 -72.8659932248909 -25.616832833852801 -11.137382582980129 #
point $-1 -72.8659932248909 -25.616832833852801 11.137382582980129 #
loop $-1 $-1 $222 $214 #
plane-surface $-1 0 45.084763122677103 0 0 -1 0 0 0 -1 forward_v I I I I #
coedge $-1 $318 $217 $219 $322 reversed $130 $-1 #
coedge $-1 $217 $317 $406 $407 reversed $130 $-1 #
coedge $-1 $225 $220 $217 $320 forward $215 $-1 #
edge $-1 $323 -0.57500472087141929 $408 2.8980843986626823 $319 $409 forward 7 unknown #
coedge $-1 $219 $218 $326 $410 reversed $81 $-1 #
edge $-1 $411 -90.169526245354263 $323 -85.25783645219056 $317 $412 forward 7 unknown #
vertex $-1 $221 $413 #
straight-curve $-1 -24.840510858448393 41.611674003143001 11.137382582980123 1 0 0 I I #
coedge $-1 $406 $222 $225 $330 reversed $315 $-1 #
coedge $-1 $222 $406 $321 $410 forward $315 $-1 #
vertex $-1 $223 $414 #
straight-curve $-1 -64.483844168199269 45.084763122677103 87.235926122949905 0 0 1 I I #
straight-curve $-1 -64.483844168199269 -18.674719602018541 71.423777587093682 0 0.70710677298230451 -0.70710678939079041 I I #
edge $-1 $408 34.878199265594304 $226 64.483844168199269 $325 $415 forward 7 unknown #
point $-1 -64.483844168199269 45.084763122677103 11.137382582980129 #
point $-1 -64.483844168199269 41.611674003143001 11.137382582980131 #
edge $-1 $416 1 $416 0 $229 $-1 forward 7 unknown #
vertex $-1 $230 $417 #
ellipse-curve $-1 -56.02508848174071 42.059793902105675 8.1124133520100372 0 0.70710678939079041 0.70710677298230451 0.5 0 0 1 I I #
point $-1 -55.52508848174071 43.348218562910056 9.4008379829163893 #
edge $-1 $418 1 $418 0 $233 $-1 forward 7 unknown #
vertex $-1 $234 $419 #
ellipse-curve $-1 -43.336954952052864 42.059793902105675 8.1124133520100372 0 0.70710678939079041 0.70710677298230451 0.5 0 0 1 I I #
point $-1 -42.836954952052864 43.348218562910056 9.4008379829163893 #
loop $-1 $-1 $246 $237 #
plane-surface $-1 72.8659932248909 0 0 -1 0 0 0 0 1 forward_v I I I I #
coedge $-1 $420 $240 $245 $349 forward $152 $-1 #
coedge $-1 $240 $420 $346 $421 reversed $152 $-1 #
edge $-1 $347 37.679266720721877 $354 42.895459908090714 $240 $422 forward 7 unknown #
coedge $-1 $249 $243 $344 $421 forward $238 $-1 #
vertex $-1 $421 $423 #
straight-curve $-1 53.058056685047532 -79.169894526600388 11.137382582980131 0 -1 0 I I #
edge $-1 $354 21.577044207562921 $352 41.384980747406303 $343 $424 forward 7 unknown #
coedge $-1 $351 $246 $249 $356 reversed $341 $-1 #
coedge $-1 $246 $350 $420 $425 forward $341 $-1 #
vertex $-1 $349 $426 #
straight-curve $-1 72.8659932248909 -37.604934256798934 15.158009041800218 0 0.62932038083071107 0.77714596973225614 I I #
vertex $-1 $349 $427 #
straight-curve $-1 53.058056685047532 -45.084763122677089 5.9211893956113073 0 0.62932038083071107 0.77714596973225614 I I #
edge $-1 $428 -45.084763122677103 $250 -40.860773279054207 $350 $429 forward 7 unknown #
point $-1 72.865993224890914 -40.860773279054207 11.137382582980129 #
point $-1 53.058056685047532 -40.860773279054207 11.137382582980129 #
edge $-1 $430 1 $430 0 $253 $-1 forward 7 unknown #
vertex $-1 $254 $431 #
ellipse-curve $-1 57.019643993016217 -39.495106987789825 5.713131541802297 0 -0.77714596973225614 0.62932038083071107 1.5 0 0 1 I I #
point $-1 58.519643993016217 -42.972768200865659 8.5292859892957118 #
edge $-1 $432 1 $432 0 $257 $-1 forward 7 unknown #
vertex $-1 $258 $433 #
ellipse-curve $-1 62.962024954969223 -39.495106987789825 5.713131541802297 0 -0.77714596973225614 0.62932038083071107 1.5 0 0 1 I I #
point $-1 64.462024954969223 -42.972768200865659 8.5292859892957118 #
edge $-1 $434 1 $434 0 $261 $-1 forward 7 unknown #
vertex $-1 $262 $435 #
ellipse-curve $-1 68.904405916922229 -39.495106987789825 5.713131541802297 0 -0.77714596973225614 0.62932038083071107 1.5 0 0 1 I I #
point $-1 70.404405916922229 -42.972768200865659 8.5292859892957118 #
plane-surface $-1 72.8659932248909 0 0 -1 0 0 0 0 1 forward_v I I I I #
coedge $-1 $285 $271 $276 $380 forward $266 $-1 #
vertex $-1 $269 $436 #
vertex $-1 $379 $437 #
straight-curve $-1 72.8659932248909 0 -11.137382582980129 0 -1 0 I I #
straight-curve $-1 0 45.084763122677103 11.137382582980129 -1 0 0 I I #
coedge $-1 $273 $282 $275 $379 reversed $181 $-1 #
straight-curve $-1 0 -45.084763122677103 11.137382582980129 1 0 0 I I #
edge $-1 $278 -11.137382582980129 $374 11.137382582980129 $275 $438 forward 7 unknown #
edge $-1 $279 -11.137382582980129 $373 11.137382582980129 $276 $439 forward 7 unknown #
point $-1 72.8659932248909 -45.084763122677103 11.137382582980129 #
point $-1 72.8659932248909 45.084763122677103 11.137382582980129 #
straight-curve $-1 -72.8659932248909 0 11.137382582980129 0 -1 0 I I #
point $-1 -72.8659932248909 -45.084763122677103 11.137382582980129 #
point $-1 -72.8659932248909 45.084763122677103 11.137382582980129 #
straight-curve $-1 0 45.084763122677103 -11.137382582980129 1 0 0 I I #
straight-curve $-1 0 -45.084763122677103 -11.137382582980129 -1 0 0 I I #
plane-surface $-1 0 0 11.137382582980129 0 0 1 1 0 0 forward_v I I I I #
coedge $-1 $297 $294 $299 $396 reversed $199 $-1 #
coedge $-1 $294 $297 $402 $440 reversed $199 $-1 #
edge $-1 $404 -11.137382582980129 $398 11.137382582980129 $311 $441 forward 7 unknown #
edge $-1 $393 -4.1910745283458084 $309 4.1910745283458084 $296 $442 forward 7 unknown #
vertex $-1 $440 $443 #
vertex $-1 $396 $444 #
straight-curve $-1 -81.248142281582517 -31.890978928986019 0 0 0 -1 I I #
edge $-1 $394 -3.1370730475666093 $398 3.1370730475666093 $389 $445 forward 7 unknown #
straight-curve $-1 -77.057067753236709 -31.890978928986019 -11.137382582980129 -1 0 0 I I #
vertex $-1 $301 $446 #
straight-curve $-1 -77.057067753236709 -25.616832833852801 -11.137382582980129 1 0 0 I I #
point $-1 -72.8659932248909 -31.890978928986019 -11.137382582980129 #
straight-curve $-1 -72.8659932248909 -31.890978928986019 0 0 0 -1 I I #
coedge $-1 $307 $306 $390 $440 forward $308 $-1 #
point $-1 -72.8659932248909 -31.890978928986019 11.137382582980129 #
vertex $-1 $312 $447 #
straight-curve $-1 -77.057067753236709 -25.616832833852801 11.137382582980129 -1 0 0 I I #
coedge $-1 $326 $325 $318 $407 forward $315 $-1 #
edge $-1 $408 76.098543539969782 $411 79.571632740097272 $406 $448 forward 7 unknown #
vertex $-1 $330 $449 #
straight-curve $-1 -34.878199265594304 42.186678724014421 11.137382582980123 0 1 0 I I #
edge $-1 $411 10.037688407145911 $327 39.643333309750872 $326 $450 forward 7 unknown #
vertex $-1 $410 $451 #
straight-curve $-1 -34.878199265594304 -18.674719602018541 71.423777587093682 0 -0.70710677298230451 0.70710678939079041 I I #
point $-1 -34.878199265594304 41.611674003143001 11.137382582980131 #
point $-1 -64.483844168199269 45.084763122677103 7.6642933828526338 #
straight-curve $-1 0 45.084763122677103 11.137382582980129 -1 0 0 I I #
vertex $-1 $333 $452 #
point $-1 -55.52508848174071 42.059793902105675 8.1124133520100372 #
vertex $-1 $337 $453 #
point $-1 -42.836954952052864 42.059793902105675 8.1124133520100372 #
coedge $-1 $344 $343 $351 $425 reversed $152 $-1 #
edge $-1 $347 53.058056685047532 $428 72.8659932248909 $344 $454 forward 7 unknown #
straight-curve $-1 53.058056685047532 -45.084763122677103 48.816649303702008 0 0 -1 I I #
point $-1 53.058056685047532 -45.084763122677103 11.137382582980129 #
straight-curve $-1 31.481012477484612 -45.084763122677103 5.9211893956112913 1 0 0 I I #
edge $-1 $428 -11.137382582980129 $352 -5.9211893956112895 $351 $455 forward 7 unknown #
point $-1 72.865993224890914 -45.084763122677103 5.9211893956112895 #
point $-1 53.058056685047532 -45.084763122677103 5.9211893956112895 #
vertex $-1 $356 $456 #
straight-curve $-1 72.8659932248909 0 11.137382582980129 0 1 0 I I #
vertex $-1 $359 $457 #
point $-1 58.519643993016217 -39.495106987789825 5.713131541802297 #
vertex $-1 $363 $458 #
point $-1 64.462024954969223 -39.495106987789825 5.713131541802297 #
vertex $-1 $367 $459 #
point $-1 70.404405916922229 -39.495106987789825 5.713131541802297 #
point $-1 72.8659932248909 45.084763122677103 -11.137382582980129 #
point $-1 72.8659932248909 -45.084763122677103 -11.137382582980129 #
straight-curve $-1 72.8659932248909 -45.084763122677103 0 0 0 -1 I I #
straight-curve $-1 72.8659932248909 45.084763122677103 0 0 0 -1 I I #
edge $-1 $404 -3.1370730475666093 $393 3.1370730475666093 $390 $460 forward 7 unknown #
straight-curve $-1 -81.248142281582517 -25.616832833852801 0 0 0 -1 I I #
straight-curve $-1 -77.057067753236709 -31.890978928986019 11.137382582980129 1 0 0 I I #
point $-1 -81.248142281582517 -31.890978928986019 11.137382582980129 #
point $-1 -81.248142281582517 -31.890978928986019 -11.137382582980129 #
straight-curve $-1 -81.248142281582517 -28.75390588141941 -11.137382582980129 0 1 0 I I #
point $-1 -81.248142281582517 -25.616832833852801 -11.137382582980129 #
point $-1 -81.248142281582517 -25.616832833852801 11.137382582980129 #
straight-curve $-1 -34.878199265594304 45.084763122677103 87.235926122949905 0 0 -1 I I #
point $-1 -34.878199265594304 45.084763122677103 11.137382582980129 #
straight-curve $-1 -24.840510858448393 45.084763122677096 7.6642933828526374 -1 0 0 I I #
point $-1 -34.878199265594304 45.084763122677103 7.6642933828526338 #
point $-1 -56.02508848174071 41.706240507410278 7.7588599655188846 #
point $-1 -43.336954952052864 41.706240507410278 7.7588599655188846 #
straight-curve $-1 0 -45.084763122677103 11.137382582980129 1 0 0 I I #
straight-curve $-1 72.8659932248909 -45.084763122677103 0 0 0 -1 I I #
point $-1 72.8659932248909 -45.084763122677103 11.137382582980129 #
point $-1 57.019643993016217 -38.329388033191435 4.7691509705562298 #
point $-1 62.962024954969223 -38.329388033191435 4.7691509705562298 #
point $-1 68.904405916922229 -38.329388033191435 4.7691509705562298 #
straight-curve $-1 -81.248142281582517 -28.75390588141941 11.137382582980129 0 -1 0 I I #
End-of-ACIS-data 