500 0 8 0           
7 Unknown 11 ACIS 5.0 NT 24 Thu Mar 25 22:18:03 1999 
-1 9.9999999999999995e-007 1e-010 
body $-1 $8 $-1 $9 #
body $-1 $10 $-1 $11 #
body $-1 $12 $-1 $13 #
body $-1 $14 $-1 $15 #
body $-1 $16 $-1 $17 #
body $-1 $18 $-1 $19 #
body $-1 $20 $-1 $21 #
body $-1 $22 $-1 $23 #
lump $-1 $-1 $24 $0 #
transform $-1 1 0 0 0 1 0 0 0 1 53.613696707052824 30.511228044824598 10.507270985461142 1 rotate no_reflect no_shear #
lump $-1 $-1 $25 $1 #
transform $-1 1 0 0 0 1 0 0 0 1 53.613696707052824 30.511228044824598 10.507270985461142 1 rotate no_reflect no_shear #
lump $-1 $-1 $26 $2 #
transform $-1 1 0 0 0 1 0 0 0 1 53.613696707052824 30.511228044824598 10.507270985461142 1 rotate no_reflect no_shear #
lump $-1 $-1 $27 $3 #
transform $-1 1 0 0 0 1 0 0 0 1 53.613696707052824 30.511228044824598 10.507270985461142 1 rotate no_reflect no_shear #
lump $-1 $-1 $28 $4 #
transform $-1 1 0 0 0 1 0 0 0 1 53.613696707052824 30.511228044824598 10.507270985461142 1 rotate no_reflect no_shear #
lump $-1 $-1 $29 $5 #
transform $-1 1 0 0 0 1 0 0 0 1 53.613696707052824 30.511228044824598 10.507270985461142 1 rotate no_reflect no_shear #
lump $-1 $-1 $30 $6 #
transform $-1 1 0 0 0 1 0 0 0 1 53.613696707052824 30.511228044824598 10.507270985461142 1 rotate no_reflect no_shear #
lump $-1 $-1 $31 $7 #
transform $-1 1 0 0 0 1 0 0 0 1 53.613696707052824 30.511228044824598 10.507270985461142 1 rotate no_reflect no_shear #
shell $-1 $-1 $-1 $32 $-1 $8 #
shell $-1 $-1 $-1 $33 $-1 $10 #
shell $-1 $-1 $-1 $34 $-1 $12 #
shell $-1 $-1 $-1 $35 $-1 $14 #
shell $-1 $-1 $-1 $36 $-1 $16 #
shell $-1 $-1 $-1 $37 $-1 $18 #
shell $-1 $-1 $-1 $38 $-1 $20 #
shell $-1 $-1 $-1 $39 $-1 $22 #
face $-1 $40 $41 $24 $-1 $42 forward single #
face $-1 $43 $44 $25 $-1 $45 reversed single #
face $-1 $46 $47 $26 $-1 $48 reversed single #
face $-1 $49 $50 $27 $-1 $51 forward single #
face $-1 $52 $53 $28 $-1 $54 forward single #
face $-1 $55 $56 $29 $-1 $57 reversed single #
face $-1 $58 $59 $30 $-1 $60 forward single #
face $-1 $61 $62 $31 $-1 $63 forward single #
face $-1 $64 $65 $24 $-1 $66 reversed single #
loop $-1 $-1 $67 $32 #
plane-surface $-1 0 0 10.507270985461142 0 0 1 1 0 0 forward_v I I I I #
face $-1 $68 $69 $25 $-1 $70 reversed single #
loop $-1 $-1 $71 $33 #
plane-surface $-1 0 -26.626898362494927 5.5827993974693602 0 0 1 1 0 0 forward_v I I I I #
face $-1 $72 $73 $26 $-1 $74 reversed single #
loop $-1 $-1 $75 $34 #
plane-surface $-1 58.905943169754678 -13.045998679679546 158.77598050687592 0 -1 0 -0.73135370988377701 0 -0.68199835119979291 forward_v I I I I #
face $-1 $76 $77 $27 $-1 $78 forward single #
loop $-1 $79 $80 $35 #
cone-surface $-1 51.702336752396072 -17.452557423001124 8.5109294616730882 -0.73135370988377701 0 -0.68199835119979291 0.34099917559989645 0 -0.36567685494188851 1 I I 0 1 0.5 forward I I I I #
face $-1 $81 $82 $28 $-1 $83 forward single #
loop $-1 $84 $85 $36 #
cone-surface $-1 51.702336752396072 -14.808622177008177 8.5109294616730882 -0.73135370988377701 0 -0.68199835119979291 0.34099917559989645 0 -0.36567685494188851 1 I I 0 1 0.5 forward I I I I #
face $-1 $86 $87 $29 $-1 $88 reversed single #
loop $-1 $-1 $89 $37 #
plane-surface $-1 58.905943169754678 26.9838402849891 158.77598050687592 0 -1 0 -0.73135370988377701 0 -0.68199835119979291 forward_v I I I I #
face $-1 $90 $91 $30 $-1 $92 forward single #
loop $-1 $93 $94 $38 #
cone-surface $-1 51.702336752396072 22.577281541667517 8.5109294616730882 -0.73135370988377701 0 -0.68199835119979291 0.34099917559989645 0 -0.36567685494188851 1 I I 0 1 0.5 forward I I I I #
face $-1 $95 $96 $31 $-1 $97 forward single #
loop $-1 $98 $99 $39 #
cone-surface $-1 51.702336752396072 25.221216787660467 8.5109294616730882 -0.73135370988377701 0 -0.68199835119979291 0.34099917559989645 0 -0.36567685494188851 1 I I 0 1 0.5 forward I I I I #
face $-1 $100 $101 $24 $-1 $102 reversed single #
loop $-1 $-1 $103 $40 #
plane-surface $-1 0 0 -10.507270985461142 0 0 1 1 0 0 forward_v I I I I #
coedge $-1 $104 $105 $106 $107 forward $41 $-1 #
face $-1 $108 $109 $25 $-1 $110 reversed single #
loop $-1 $-1 $111 $43 #
plane-surface $-1 0 -22.742568680165256 8.0450351914652511 0 -1 0 0 0 -1 forward_v I I I I #
coedge $-1 $112 $113 $114 $115 reversed $44 $-1 #
face $-1 $116 $117 $26 $-1 $118 reversed single #
loop $-1 $-1 $119 $46 #
plane-surface $-1 -19.515208804818769 -16.130589800004653 85.647074995004346 0.73135370988377701 0 0.68199835119979291 0.68199835119979291 0 -0.73135370988377701 forward_v I I I I #
coedge $-1 $120 $121 $122 $123 reversed $47 $-1 #
face $-1 $-1 $124 $27 $-1 $125 forward single #
loop $-1 $126 $127 $49 #
cone-surface $-1 51.13809157322612 -17.452557423001124 7.9847623326002175 -0.73135370988377701 0 -0.68199835119979291 0.17049958779994823 0 -0.18283842747094425 1 I I -0.70710678118654746 0.70710678118654746 0.25 forward I I I I #
loop $-1 $-1 $128 $35 #
coedge $-1 $80 $80 $129 $130 reversed $50 $-1 #
face $-1 $-1 $131 $28 $-1 $132 forward single #
loop $-1 $133 $134 $52 #
cone-surface $-1 51.13809157322612 -14.808622177008177 7.9847623326002175 -0.73135370988377701 0 -0.68199835119979291 0.17049958779994823 0 -0.18283842747094425 1 I I -0.70710678118654746 0.70710678118654746 0.25 forward I I I I #
loop $-1 $-1 $135 $36 #
coedge $-1 $85 $85 $136 $137 reversed $53 $-1 #
face $-1 $138 $139 $29 $-1 $140 reversed single #
loop $-1 $-1 $141 $55 #
plane-surface $-1 -19.515208804818769 23.899249164663992 85.647074995004346 0.73135370988377701 0 0.68199835119979291 0.68199835119979291 0 -0.73135370988377701 forward_v I I I I #
coedge $-1 $142 $143 $144 $145 reversed $56 $-1 #
face $-1 $-1 $146 $30 $-1 $147 forward single #
loop $-1 $148 $149 $58 #
cone-surface $-1 51.13809157322612 22.577281541667517 7.9847623326002175 -0.73135370988377701 0 -0.68199835119979291 0.17049958779994823 0 -0.18283842747094425 1 I I -0.70710678118654746 0.70710678118654746 0.25 forward I I I I #
loop $-1 $-1 $150 $38 #
coedge $-1 $94 $94 $151 $152 reversed $59 $-1 #
face $-1 $-1 $153 $31 $-1 $154 forward single #
loop $-1 $155 $156 $61 #
cone-surface $-1 51.13809157322612 25.221216787660467 7.9847623326002175 -0.73135370988377701 0 -0.68199835119979291 0.17049958779994823 0 -0.18283842747094425 1 I I -0.70710678118654746 0.70710678118654746 0.25 forward I I I I #
loop $-1 $-1 $157 $39 #
coedge $-1 $99 $99 $158 $159 reversed $62 $-1 #
face $-1 $160 $161 $24 $-1 $162 reversed single #
loop $-1 $-1 $163 $64 #
plane-surface $-1 0 -30.511228044824598 0 0 1 0 0 0 1 forward_v I I I I #
coedge $-1 $164 $165 $166 $167 forward $65 $-1 #
coedge $-1 $168 $67 $169 $170 forward $41 $-1 #
coedge $-1 $67 $168 $171 $172 forward $41 $-1 #
coedge $-1 $173 $174 $67 $107 reversed $175 $-1 #
edge $-1 $176 -30.511228044824598 $177 30.511228044824598 $106 $178 forward 7 unknown #
face $-1 $179 $180 $25 $-1 $181 reversed single #
loop $-1 $-1 $182 $68 #
plane-surface $-1 -53.613696707052824 0 0 1 0 0 0 0 -1 forward_v I I I I #
coedge $-1 $183 $184 $185 $186 reversed $69 $-1 #
coedge $-1 $187 $71 $188 $189 reversed $44 $-1 #
coedge $-1 $71 $187 $183 $190 forward $44 $-1 #
coedge $-1 $185 $191 $71 $115 forward $192 $-1 #
edge $-1 $193 -17.197778863577135 $194 -9.4291194989177924 $114 $195 forward 7 unknown #
face $-1 $196 $197 $26 $-1 $198 reversed single #
loop $-1 $-1 $199 $72 #
plane-surface $-1 58.905943169754678 -19.215180920329761 158.77598050687592 0 1 0 0.73135370988377701 0 0.68199835119979291 forward_v I I I I #
coedge $-1 $200 $201 $202 $203 reversed $73 $-1 #
coedge $-1 $121 $75 $204 $205 reversed $47 $-1 #
coedge $-1 $75 $120 $200 $206 reversed $47 $-1 #
coedge $-1 $202 $207 $75 $123 forward $208 $-1 #
edge $-1 $209 -24.160725122175485 $210 -21.100818716259987 $122 $211 forward 7 unknown #
loop $-1 $-1 $129 $76 #
plane-surface $-1 -19.515208804818769 -16.130589800004653 85.647074995004346 0.73135370988377701 0 0.68199835119979291 0.68199835119979291 0 -0.73135370988377701 forward_v I I I I #
loop $-1 $-1 $212 $49 #
coedge $-1 $127 $127 $128 $213 reversed $77 $-1 #
coedge $-1 $128 $128 $127 $213 forward $79 $-1 #
coedge $-1 $129 $129 $80 $130 forward $124 $-1 #
edge $-1 $214 0 $214 6.2831853071796004 $129 $215 forward 7 unknown #
loop $-1 $-1 $136 $81 #
plane-surface $-1 -19.515208804818769 -16.130589800004653 85.647074995004346 0.73135370988377701 0 0.68199835119979291 0.68199835119979291 0 -0.73135370988377701 forward_v I I I I #
loop $-1 $-1 $216 $52 #
coedge $-1 $134 $134 $135 $217 reversed $82 $-1 #
coedge $-1 $135 $135 $134 $217 forward $84 $-1 #
coedge $-1 $136 $136 $85 $137 forward $131 $-1 #
edge $-1 $218 0 $218 6.2831853071796004 $136 $219 forward 7 unknown #
face $-1 $220 $221 $29 $-1 $222 reversed single #
loop $-1 $-1 $223 $86 #
plane-surface $-1 58.905943169754678 20.814658044338884 158.77598050687592 0 1 0 0.73135370988377701 0 0.68199835119979291 forward_v I I I I #
coedge $-1 $224 $225 $226 $227 reversed $87 $-1 #
coedge $-1 $143 $89 $228 $229 reversed $56 $-1 #
coedge $-1 $89 $142 $224 $230 reversed $56 $-1 #
coedge $-1 $226 $231 $89 $145 forward $232 $-1 #
edge $-1 $233 -24.160725122175485 $234 -21.100818716259987 $144 $235 forward 7 unknown #
loop $-1 $-1 $151 $90 #
plane-surface $-1 -19.515208804818769 23.899249164663992 85.647074995004346 0.73135370988377701 0 0.68199835119979291 0.68199835119979291 0 -0.73135370988377701 forward_v I I I I #
loop $-1 $-1 $236 $58 #
coedge $-1 $149 $149 $150 $237 reversed $91 $-1 #
coedge $-1 $150 $150 $149 $237 forward $93 $-1 #
coedge $-1 $151 $151 $94 $152 forward $146 $-1 #
edge $-1 $238 0 $238 6.2831853071796004 $151 $239 forward 7 unknown #
loop $-1 $-1 $158 $95 #
plane-surface $-1 -19.515208804818769 23.899249164663992 85.647074995004346 0.73135370988377701 0 0.68199835119979291 0.68199835119979291 0 -0.73135370988377701 forward_v I I I I #
loop $-1 $-1 $240 $61 #
coedge $-1 $156 $156 $157 $241 reversed $96 $-1 #
coedge $-1 $157 $157 $156 $241 forward $98 $-1 #
coedge $-1 $158 $158 $99 $159 forward $153 $-1 #
edge $-1 $242 0 $242 6.2831853071796004 $158 $243 forward 7 unknown #
face $-1 $244 $245 $24 $-1 $246 reversed single #
loop $-1 $-1 $247 $100 #
plane-surface $-1 -53.613696707052824 0 0 1 0 0 0 0 -1 forward_v I I I I #
coedge $-1 $248 $171 $249 $250 forward $101 $-1 #
coedge $-1 $251 $103 $248 $252 forward $65 $-1 #
coedge $-1 $103 $251 $253 $254 forward $65 $-1 #
coedge $-1 $174 $173 $103 $167 reversed $175 $-1 #
edge $-1 $255 -30.511228044824598 $256 30.511228044824598 $166 $257 forward 7 unknown #
coedge $-1 $105 $104 $258 $259 forward $41 $-1 #
coedge $-1 $260 $261 $104 $170 reversed $245 $-1 #
edge $-1 $177 -53.613696707052824 $262 53.613696707052824 $169 $263 forward 7 unknown #
coedge $-1 $163 $264 $105 $172 reversed $101 $-1 #
edge $-1 $265 -53.613696707052824 $176 53.613696707052824 $171 $266 forward 7 unknown #
coedge $-1 $166 $106 $264 $267 forward $175 $-1 #
coedge $-1 $106 $166 $260 $268 reversed $175 $-1 #
loop $-1 $-1 $173 $244 #
vertex $-1 $107 $269 #
vertex $-1 $107 $270 #
straight-curve $-1 53.613696707052824 0 10.507270985461142 0 1 0 I I #
face $-1 $271 $272 $25 $-1 $273 forward single #
loop $-1 $-1 $188 $108 #
plane-surface $-1 0 -30.511228044824598 0 0 1 0 0 0 1 forward_v I I I I #
coedge $-1 $274 $275 $276 $277 forward $109 $-1 #
coedge $-1 $276 $111 $113 $190 reversed $69 $-1 #
coedge $-1 $111 $276 $278 $279 reversed $69 $-1 #
coedge $-1 $280 $114 $111 $186 forward $192 $-1 #
edge $-1 $194 1.5602818017367346 $281 6.4847533897285166 $185 $282 forward 7 unknown #
coedge $-1 $113 $112 $274 $283 reversed $44 $-1 #
coedge $-1 $284 $285 $112 $189 forward $180 $-1 #
edge $-1 $286 -53.613696707052824 $193 53.613696707052824 $188 $287 forward 7 unknown #
edge $-1 $288 -53.613696707052824 $194 53.613696707052824 $183 $289 forward 7 unknown #
coedge $-1 $114 $280 $284 $290 forward $192 $-1 #
loop $-1 $-1 $185 $271 #
vertex $-1 $189 $291 #
vertex $-1 $115 $292 #
straight-curve $-1 53.613696707052824 -13.313449181247464 5.5827993974693602 0 1 0 I I #
face $-1 $-1 $208 $26 $-1 $293 forward single #
loop $-1 $-1 $294 $116 #
plane-surface $-1 53.613696707052824 0 0 -1 0 0 0 0 1 forward_v I I I I #
coedge $-1 $295 $296 $297 $298 reversed $117 $-1 #
coedge $-1 $299 $119 $121 $206 forward $73 $-1 #
coedge $-1 $119 $299 $295 $300 forward $73 $-1 #
coedge $-1 $297 $122 $119 $203 forward $208 $-1 #
edge $-1 $210 4.9807037796772189 $301 11.149886020327434 $202 $302 forward 7 unknown #
coedge $-1 $303 $304 $120 $205 forward $197 $-1 #
edge $-1 $305 -72.162067233007079 $209 -68.880719267976815 $204 $306 forward 7 unknown #
edge $-1 $210 102.74071628280115 $305 107.22739341410565 $121 $307 forward 7 unknown #
coedge $-1 $122 $297 $303 $308 forward $208 $-1 #
loop $-1 $-1 $297 $196 #
vertex $-1 $205 $309 #
vertex $-1 $123 $310 #
straight-curve $-1 29.452971584877339 -13.045998679679546 10.507270985461147 -1 0 0 I I #
coedge $-1 $212 $212 $-1 $311 reversed $126 $-1 #
edge $-1 $312 0 $312 6.2831853071796004 $127 $313 forward 7 unknown #
vertex $-1 $130 $314 #
ellipse-curve $-1 52.083743504095089 -17.452557423001124 8.8665970029460208 0.73135370988377701 0 0.68199835119979291 0.34099917559989645 0 -0.36567685494188851 1 I I #
coedge $-1 $216 $216 $-1 $315 reversed $133 $-1 #
edge $-1 $316 0 $316 6.2831853071796004 $134 $317 forward 7 unknown #
vertex $-1 $137 $318 #
ellipse-curve $-1 52.083743504095089 -14.808622177008177 8.8665970029460208 0.73135370988377701 0 0.68199835119979291 0.34099917559989645 0 -0.36567685494188851 1 I I #
face $-1 $-1 $232 $29 $-1 $319 forward single #
loop $-1 $-1 $320 $138 #
plane-surface $-1 53.613696707052824 0 0 -1 0 0 0 0 1 forward_v I I I I #
coedge $-1 $321 $322 $323 $324 reversed $139 $-1 #
coedge $-1 $325 $141 $143 $230 forward $87 $-1 #
coedge $-1 $141 $325 $321 $326 forward $87 $-1 #
coedge $-1 $323 $144 $141 $227 forward $232 $-1 #
edge $-1 $234 -15.034215702657104 $327 -8.8650334620068882 $226 $328 forward 7 unknown #
coedge $-1 $329 $330 $142 $229 forward $221 $-1 #
edge $-1 $331 -72.162067233007079 $233 -68.880719267976815 $228 $332 forward 7 unknown #
edge $-1 $234 102.74071628280115 $331 107.22739341410565 $143 $333 forward 7 unknown #
coedge $-1 $144 $323 $329 $334 forward $232 $-1 #
loop $-1 $-1 $323 $220 #
vertex $-1 $229 $335 #
vertex $-1 $145 $336 #
straight-curve $-1 29.452971584877339 26.9838402849891 10.507270985461147 -1 0 0 I I #
coedge $-1 $236 $236 $-1 $337 reversed $148 $-1 #
edge $-1 $338 0 $338 6.2831853071796004 $149 $339 forward 7 unknown #
vertex $-1 $152 $340 #
ellipse-curve $-1 52.083743504095089 22.577281541667517 8.8665970029460208 0.73135370988377701 0 0.68199835119979291 0.34099917559989645 0 -0.36567685494188851 1 I I #
coedge $-1 $240 $240 $-1 $341 reversed $155 $-1 #
edge $-1 $342 0 $342 6.2831853071796004 $156 $343 forward 7 unknown #
vertex $-1 $159 $344 #
ellipse-curve $-1 52.083743504095089 25.221216787660467 8.8665970029460208 0.73135370988377701 0 0.68199835119979291 0.34099917559989645 0 -0.36567685494188851 1 I I #
face $-1 $-1 $175 $24 $-1 $345 reversed single #
loop $-1 $-1 $260 $160 #
plane-surface $-1 0 30.511228044824598 0 0 -1 0 0 0 -1 forward_v I I I I #
coedge $-1 $346 $258 $261 $347 forward $161 $-1 #
coedge $-1 $264 $163 $164 $252 reversed $101 $-1 #
coedge $-1 $258 $346 $163 $250 reversed $161 $-1 #
edge $-1 $265 -10.507270985461142 $348 10.507270985461142 $249 $349 forward 7 unknown #
coedge $-1 $165 $164 $346 $350 forward $65 $-1 #
edge $-1 $256 -53.613696707052824 $348 53.613696707052824 $248 $351 forward 7 unknown #
coedge $-1 $261 $260 $165 $254 reversed $245 $-1 #
edge $-1 $352 -53.613696707052824 $255 53.613696707052824 $253 $353 forward 7 unknown #
vertex $-1 $167 $354 #
vertex $-1 $267 $355 #
straight-curve $-1 53.613696707052824 0 -10.507270985461142 0 -1 0 I I #
coedge $-1 $247 $249 $168 $259 reversed $161 $-1 #
edge $-1 $262 -30.511228044824598 $265 30.511228044824598 $258 $356 forward 7 unknown #
coedge $-1 $253 $169 $174 $268 forward $245 $-1 #
coedge $-1 $169 $253 $247 $347 reversed $245 $-1 #
vertex $-1 $170 $357 #
straight-curve $-1 0 30.511228044824598 10.507270985461142 -1 0 0 I I #
coedge $-1 $171 $248 $173 $267 reversed $101 $-1 #
vertex $-1 $259 $358 #
straight-curve $-1 0 -30.511228044824598 10.507270985461142 1 0 0 I I #
edge $-1 $176 -10.507270985461142 $256 10.507270985461142 $173 $359 forward 7 unknown #
edge $-1 $177 -10.507270985461142 $255 10.507270985461142 $174 $360 forward 7 unknown #
point $-1 53.613696707052824 -30.511228044824598 10.507270985461142 #
point $-1 53.613696707052824 30.511228044824598 10.507270985461142 #
face $-1 $-1 $192 $25 $-1 $361 reversed single #
loop $-1 $-1 $278 $179 #
plane-surface $-1 0 0 10.507270985461142 0 0 1 1 0 0 forward_v I I I I #
coedge $-1 $362 $182 $187 $283 forward $109 $-1 #
coedge $-1 $182 $362 $363 $364 reversed $109 $-1 #
coedge $-1 $184 $183 $182 $277 reversed $69 $-1 #
edge $-1 $365 -6.4847533897285166 $288 -1.5602818017367346 $182 $366 forward 7 unknown #
coedge $-1 $363 $367 $184 $279 forward $272 $-1 #
edge $-1 $281 -53.613696707052824 $365 53.613696707052824 $278 $368 forward 7 unknown #
coedge $-1 $191 $185 $367 $369 reversed $192 $-1 #
vertex $-1 $186 $370 #
straight-curve $-1 53.613696707052824 -22.742568680165256 4.0225175957326256 0 0 1 I I #
edge $-1 $288 9.4291194989177924 $286 17.197778863577135 $274 $371 forward 7 unknown #
coedge $-1 $372 $188 $191 $290 reversed $180 $-1 #
coedge $-1 $188 $372 $362 $373 forward $180 $-1 #
vertex $-1 $189 $374 #
straight-curve $-1 0 -30.511228044824598 5.5827993974693602 1 0 0 I I #
vertex $-1 $283 $375 #
straight-curve $-1 0 -22.742568680165256 5.5827993974693602 1 0 0 I I #
edge $-1 $376 -10.507270985461142 $193 -5.5827993974693602 $191 $377 forward 7 unknown #
point $-1 53.613696707052824 -30.511228044824598 5.5827993974693602 #
point $-1 53.613696707052824 -22.742568680165256 5.5827993974693602 #
plane-surface $-1 0 0 10.507270985461142 0 0 1 1 0 0 forward_v I I I I #
coedge $-1 $304 $303 $296 $378 forward $197 $-1 #
coedge $-1 $296 $199 $201 $300 reversed $117 $-1 #
coedge $-1 $199 $295 $294 $378 reversed $117 $-1 #
coedge $-1 $207 $202 $199 $298 forward $208 $-1 #
edge $-1 $301 21.100818716259987 $379 24.160725122175485 $297 $380 forward 7 unknown #
coedge $-1 $201 $200 $304 $381 reversed $73 $-1 #
edge $-1 $382 -107.22739341410565 $301 -102.74071628280115 $295 $383 forward 7 unknown #
vertex $-1 $203 $384 #
straight-curve $-1 50.55379030113734 -8.0652949000023266 10.50727098546114 0 -1 0 I I #
coedge $-1 $294 $204 $207 $308 reversed $197 $-1 #
coedge $-1 $204 $294 $299 $381 forward $197 $-1 #
vertex $-1 $205 $385 #
straight-curve $-1 53.613696707052824 -13.045998679679546 79.387990253437962 0 0 1 I I #
straight-curve $-1 -19.515208804818769 -13.045998679679546 85.647074995004346 0.68199835119979291 0 -0.73135370988377701 I I #
edge $-1 $379 -19.215180920329761 $209 -13.045998679679546 $303 $386 forward 7 unknown #
point $-1 53.613696707052824 -13.045998679679546 10.507270985461142 #
point $-1 50.553790301137326 -13.045998679679546 10.507270985461147 #
edge $-1 $387 1 $387 0 $212 $-1 forward 7 unknown #
vertex $-1 $213 $388 #
ellipse-curve $-1 51.320930000697061 -17.452557423001124 8.1552619204001662 0.73135370988377701 0 0.68199835119979291 0.34099917559989645 0 -0.36567685494188851 1 I I #
point $-1 52.42474267969498 -17.452557423001124 8.5009201480041217 #
edge $-1 $389 1 $389 0 $216 $-1 forward 7 unknown #
vertex $-1 $217 $390 #
ellipse-curve $-1 51.320930000697061 -14.808622177008177 8.1552619204001662 0.73135370988377701 0 0.68199835119979291 0.34099917559989645 0 -0.36567685494188851 1 I I #
point $-1 52.42474267969498 -14.808622177008177 8.5009201480041217 #
plane-surface $-1 0 0 10.507270985461142 0 0 1 1 0 0 forward_v I I I I #
coedge $-1 $330 $329 $322 $391 forward $221 $-1 #
coedge $-1 $322 $223 $225 $326 reversed $139 $-1 #
coedge $-1 $223 $321 $320 $391 reversed $139 $-1 #
coedge $-1 $231 $226 $223 $324 forward $232 $-1 #
edge $-1 $327 21.100818716259987 $392 24.160725122175485 $323 $393 forward 7 unknown #
coedge $-1 $225 $224 $330 $394 reversed $87 $-1 #
edge $-1 $395 -107.22739341410565 $327 -102.74071628280115 $321 $396 forward 7 unknown #
vertex $-1 $227 $397 #
straight-curve $-1 50.55379030113734 11.949624582331996 10.50727098546114 0 -1 0 I I #
coedge $-1 $320 $228 $231 $334 reversed $221 $-1 #
coedge $-1 $228 $320 $325 $394 forward $221 $-1 #
vertex $-1 $229 $398 #
straight-curve $-1 53.613696707052824 26.9838402849891 79.387990253437962 0 0 1 I I #
straight-curve $-1 -19.515208804818769 26.9838402849891 85.647074995004346 0.68199835119979291 0 -0.73135370988377701 I I #
edge $-1 $392 20.814658044338884 $233 26.9838402849891 $329 $399 forward 7 unknown #
point $-1 53.613696707052824 26.9838402849891 10.507270985461142 #
point $-1 50.553790301137326 26.9838402849891 10.507270985461147 #
edge $-1 $400 1 $400 0 $236 $-1 forward 7 unknown #
vertex $-1 $237 $401 #
ellipse-curve $-1 51.320930000697061 22.577281541667517 8.1552619204001662 0.73135370988377701 0 0.68199835119979291 0.34099917559989645 0 -0.36567685494188851 1 I I #
point $-1 52.42474267969498 22.577281541667517 8.5009201480041217 #
edge $-1 $402 1 $402 0 $240 $-1 forward 7 unknown #
vertex $-1 $241 $403 #
ellipse-curve $-1 51.320930000697061 25.221216787660467 8.1552619204001662 0.73135370988377701 0 0.68199835119979291 0.34099917559989645 0 -0.36567685494188851 1 I I #
point $-1 52.42474267969498 25.221216787660467 8.5009201480041217 #
plane-surface $-1 53.613696707052824 0 0 -1 0 0 0 0 1 forward_v I I I I #
coedge $-1 $249 $247 $251 $350 reversed $161 $-1 #
edge $-1 $262 -10.507270985461142 $352 10.507270985461142 $261 $404 forward 7 unknown #
vertex $-1 $350 $405 #
straight-curve $-1 -53.613696707052824 -30.511228044824598 0 0 0 -1 I I #
edge $-1 $348 -30.511228044824598 $352 30.511228044824598 $346 $406 forward 7 unknown #
straight-curve $-1 0 -30.511228044824598 -10.507270985461142 -1 0 0 I I #
vertex $-1 $254 $407 #
straight-curve $-1 0 30.511228044824598 -10.507270985461142 1 0 0 I I #
point $-1 53.613696707052824 30.511228044824598 -10.507270985461142 #
point $-1 53.613696707052824 -30.511228044824598 -10.507270985461142 #
straight-curve $-1 -53.613696707052824 0 10.507270985461142 0 -1 0 I I #
point $-1 -53.613696707052824 30.511228044824598 10.507270985461142 #
point $-1 -53.613696707052824 -30.511228044824598 10.507270985461142 #
straight-curve $-1 53.613696707052824 -30.511228044824598 0 0 0 -1 I I #
straight-curve $-1 53.613696707052824 30.511228044824598 0 0 0 -1 I I #
plane-surface $-1 53.613696707052824 0 0 -1 0 0 0 0 1 forward_v I I I I #
coedge $-1 $275 $274 $285 $373 reversed $109 $-1 #
coedge $-1 $408 $278 $275 $364 forward $272 $-1 #
edge $-1 $365 22.742568680165256 $409 30.511228044824598 $275 $410 forward 7 unknown #
vertex $-1 $364 $411 #
straight-curve $-1 -53.613696707052824 -22.742568680165256 4.0225175957326256 0 0 -1 I I #
coedge $-1 $278 $408 $280 $369 forward $272 $-1 #
straight-curve $-1 0 -22.742568680165256 10.507270985461142 -1 0 0 I I #
edge $-1 $376 -30.511228044824598 $281 -22.742568680165256 $280 $412 forward 7 unknown #
point $-1 53.613696707052824 -22.742568680165256 10.507270985461142 #
straight-curve $-1 -53.613696707052824 -13.313449181247464 5.5827993974693602 0 -1 0 I I #
coedge $-1 $285 $284 $408 $413 reversed $180 $-1 #
edge $-1 $409 -10.507270985461142 $286 -5.5827993974693602 $362 $414 forward 7 unknown #
point $-1 -53.613696707052824 -30.511228044824598 5.5827993974693602 #
point $-1 -53.613696707052824 -22.742568680165256 5.5827993974693602 #
vertex $-1 $369 $415 #
straight-curve $-1 53.613696707052824 -30.511228044824598 0 0 0 -1 I I #
edge $-1 $379 68.880719267976815 $382 72.162067233007079 $294 $416 forward 7 unknown #
vertex $-1 $308 $417 #
straight-curve $-1 29.452971584877339 -19.215180920329761 10.507270985461147 1 0 0 I I #
edge $-1 $382 -11.149886020327434 $305 -4.9807037796772189 $304 $418 forward 7 unknown #
vertex $-1 $381 $419 #
straight-curve $-1 -19.515208804818769 -19.215180920329761 85.647074995004346 -0.68199835119979291 0 0.73135370988377701 I I #
point $-1 50.553790301137326 -19.215180920329761 10.507270985461147 #
point $-1 53.613696707052824 -13.045998679679546 7.2259230204308835 #
straight-curve $-1 53.613696707052824 0 10.507270985461142 0 1 0 I I #
vertex $-1 $311 $420 #
point $-1 51.661929176296958 -17.452557423001124 7.7895850654582777 #
vertex $-1 $315 $421 #
point $-1 51.661929176296958 -14.808622177008177 7.7895850654582777 #
edge $-1 $392 68.880719267976815 $395 72.162067233007079 $320 $422 forward 7 unknown #
vertex $-1 $334 $423 #
straight-curve $-1 29.452971584877339 20.814658044338884 10.507270985461147 1 0 0 I I #
edge $-1 $395 8.8650334620068882 $331 15.034215702657104 $330 $424 forward 7 unknown #
vertex $-1 $394 $425 #
straight-curve $-1 -19.515208804818769 20.814658044338884 85.647074995004346 -0.68199835119979291 0 0.73135370988377701 I I #
point $-1 50.553790301137326 20.814658044338884 10.507270985461147 #
point $-1 53.613696707052824 26.9838402849891 7.2259230204308835 #
straight-curve $-1 53.613696707052824 0 10.507270985461142 0 1 0 I I #
vertex $-1 $337 $426 #
point $-1 51.661929176296958 22.577281541667517 7.7895850654582777 #
vertex $-1 $341 $427 #
point $-1 51.661929176296958 25.221216787660467 7.7895850654582777 #
straight-curve $-1 -53.613696707052824 30.511228044824598 0 0 0 -1 I I #
point $-1 -53.613696707052824 -30.511228044824598 -10.507270985461142 #
straight-curve $-1 -53.613696707052824 0 -10.507270985461142 0 1 0 I I #
point $-1 -53.613696707052824 30.511228044824598 -10.507270985461142 #
coedge $-1 $367 $363 $372 $413 forward $272 $-1 #
vertex $-1 $364 $428 #
straight-curve $-1 -53.613696707052824 0 10.507270985461142 0 -1 0 I I #
point $-1 -53.613696707052824 -22.742568680165256 10.507270985461142 #
straight-curve $-1 53.613696707052824 0 10.507270985461142 0 1 0 I I #
edge $-1 $409 -53.613696707052824 $376 53.613696707052824 $372 $429 forward 7 unknown #
straight-curve $-1 -53.613696707052824 -30.511228044824598 0 0 0 -1 I I #
point $-1 53.613696707052824 -30.511228044824598 10.507270985461142 #
straight-curve $-1 53.613696707052824 -19.215180920329761 79.387990253437962 0 0 -1 I I #
point $-1 53.613696707052824 -19.215180920329761 10.507270985461142 #
straight-curve $-1 53.613696707052817 -8.0652949000023266 7.2259230204308906 0 1 0 I I #
point $-1 53.613696707052824 -19.215180920329761 7.2259230204308835 #
point $-1 50.955253145755179 -17.452557423001124 7.8142627448002688 #
point $-1 50.955253145755179 -14.808622177008177 7.8142627448002688 #
straight-curve $-1 53.613696707052824 20.814658044338884 79.387990253437962 0 0 -1 I I #
point $-1 53.613696707052824 20.814658044338884 10.507270985461142 #
straight-curve $-1 53.613696707052817 11.949624582331996 7.2259230204308906 0 1 0 I I #
point $-1 53.613696707052824 20.814658044338884 7.2259230204308835 #
point $-1 50.955253145755179 22.577281541667517 7.8142627448002688 #
point $-1 50.955253145755179 25.221216787660467 7.8142627448002688 #
point $-1 -53.613696707052824 -30.511228044824598 10.507270985461142 #
straight-curve $-1 0 -30.511228044824598 10.507270985461142 1 0 0 I I #
End-of-ACIS-data 