500 0 12 0           
7 Unknown 11 ACIS 5.0 NT 24 Thu Mar 25 22:15:19 1999 
-1 9.9999999999999995e-007 1e-010 
body $-1 $12 $-1 $13 #
body $-1 $14 $-1 $15 #
body $-1 $16 $-1 $17 #
body $-1 $18 $-1 $19 #
body $-1 $20 $-1 $21 #
body $-1 $22 $-1 $23 #
body $-1 $24 $-1 $25 #
body $-1 $26 $-1 $27 #
body $-1 $28 $-1 $29 #
body $-1 $30 $-1 $31 #
body $-1 $32 $-1 $33 #
body $-1 $34 $-1 $35 #
lump $-1 $-1 $36 $0 #
transform $-1 1 0 0 0 1 0 0 0 1 61.094393749809257 38.895353208270393 13.966099054146738 1 rotate no_reflect no_shear #
lump $-1 $-1 $37 $1 #
transform $-1 1 0 0 0 1 0 0 0 1 61.094393749809257 38.895353208270393 13.966099054146738 1 rotate no_reflect no_shear #
lump $-1 $-1 $38 $2 #
transform $-1 1 0 0 0 1 0 0 0 1 61.094393749809257 38.895353208270393 13.966099054146738 1 rotate no_reflect no_shear #
lump $-1 $-1 $39 $3 #
transform $-1 1 0 0 0 1 0 0 0 1 61.094393749809257 38.895353208270393 13.966099054146738 1 rotate no_reflect no_shear #
lump $-1 $-1 $40 $4 #
transform $-1 1 0 0 0 1 0 0 0 1 61.094393749809257 38.895353208270393 13.966099054146738 1 rotate no_reflect no_shear #
lump $-1 $-1 $41 $5 #
transform $-1 1 0 0 0 1 0 0 0 1 61.094393749809257 38.895353208270393 13.966099054146738 1 rotate no_reflect no_shear #
lump $-1 $-1 $42 $6 #
transform $-1 1 0 0 0 1 0 0 0 1 61.094393749809257 38.895353208270393 13.966099054146738 1 rotate no_reflect no_shear #
lump $-1 $-1 $43 $7 #
transform $-1 1 0 0 0 1 0 0 0 1 61.094393749809257 38.895353208270393 13.966099054146738 1 rotate no_reflect no_shear #
lump $-1 $-1 $44 $8 #
transform $-1 1 0 0 0 1 0 0 0 1 61.094393749809257 38.895353208270393 13.966099054146738 1 rotate no_reflect no_shear #
lump $-1 $-1 $45 $9 #
transform $-1 1 0 0 0 1 0 0 0 1 61.094393749809257 38.895353208270393 13.966099054146738 1 rotate no_reflect no_shear #
lump $-1 $-1 $46 $10 #
transform $-1 1 0 0 0 1 0 0 0 1 61.094393749809257 38.895353208270393 13.966099054146738 1 rotate no_reflect no_shear #
lump $-1 $-1 $47 $11 #
transform $-1 1 0 0 0 1 0 0 0 1 61.094393749809257 38.895353208270393 13.966099054146738 1 rotate no_reflect no_shear #
shell $-1 $-1 $-1 $48 $-1 $12 #
shell $-1 $-1 $-1 $49 $-1 $14 #
shell $-1 $-1 $-1 $50 $-1 $16 #
shell $-1 $-1 $-1 $51 $-1 $18 #
shell $-1 $-1 $-1 $52 $-1 $20 #
shell $-1 $-1 $-1 $53 $-1 $22 #
shell $-1 $-1 $-1 $54 $-1 $24 #
shell $-1 $-1 $-1 $55 $-1 $26 #
shell $-1 $-1 $-1 $56 $-1 $28 #
shell $-1 $-1 $-1 $57 $-1 $30 #
shell $-1 $-1 $-1 $58 $-1 $32 #
shell $-1 $-1 $-1 $59 $-1 $34 #
face $-1 $60 $61 $36 $-1 $62 forward single #
face $-1 $63 $64 $37 $-1 $65 forward single #
face $-1 $66 $67 $38 $-1 $68 reversed single #
face $-1 $69 $70 $39 $-1 $71 forward single #
face $-1 $72 $73 $40 $-1 $74 reversed single #
face $-1 $75 $76 $41 $-1 $77 forward single #
face $-1 $78 $79 $42 $-1 $80 reversed single #
face $-1 $81 $82 $43 $-1 $83 forward single #
face $-1 $84 $85 $44 $-1 $86 reversed single #
face $-1 $87 $88 $45 $-1 $89 forward single #
face $-1 $90 $91 $46 $-1 $92 reversed single #
face $-1 $93 $94 $47 $-1 $95 forward single #
face $-1 $96 $97 $36 $-1 $98 reversed single #
loop $-1 $-1 $99 $48 #
plane-surface $-1 0 0 13.966099054146738 0 0 1 1 0 0 forward_v I I I I #
face $-1 $100 $101 $37 $-1 $102 reversed single #
loop $-1 $-1 $103 $49 #
plane-surface $-1 0 -32.004427850317278 -7.1535819600566803 0 0 1 1 0 0 forward_v I I I I #
face $-1 $104 $105 $38 $-1 $106 reversed single #
loop $-1 $-1 $107 $50 #
plane-surface $-1 -153.31144328434706 -19.527842475609432 81.517796218961081 0 1 0 -0.75470958851134928 0 0.65605901945558964 forward_v I I I I #
face $-1 $108 $109 $39 $-1 $110 forward single #
loop $-1 $111 $112 $51 #
cone-surface $-1 -52.883148239390025 -14.319565521407476 5.2874388687505416 0.75470958851134928 0 -0.65605901945558964 1.3121180389111793 0 1.5094191770226986 1 I I 0 1 2 forward I I I I #
face $-1 $113 $114 $40 $-1 $115 reversed single #
loop $-1 $-1 $116 $52 #
plane-surface $-1 -153.31144328434706 -3.5256285504507989 81.517796218961081 0 1 0 -0.75470958851134928 0 0.65605901945558964 forward_v I I I I #
face $-1 $117 $118 $41 $-1 $119 forward single #
loop $-1 $120 $121 $53 #
cone-surface $-1 -52.883148239390025 1.6826484037511591 5.2874388687505416 0.75470958851134928 0 -0.65605901945558964 1.3121180389111793 0 1.5094191770226986 1 I I 0 1 2 forward I I I I #
face $-1 $122 $123 $42 $-1 $124 reversed single #
loop $-1 $-1 $125 $54 #
plane-surface $-1 -153.31144328434706 12.476585374707843 81.517796218961081 0 1 0 -0.75470958851134928 0 0.65605901945558964 forward_v I I I I #
face $-1 $126 $127 $43 $-1 $128 forward single #
loop $-1 $129 $130 $55 #
cone-surface $-1 -52.883148239390025 17.684862328909801 5.2874388687505416 0.75470958851134928 0 -0.65605901945558964 1.3121180389111793 0 1.5094191770226986 1 I I 0 1 2 forward I I I I #
face $-1 $131 $132 $44 $-1 $133 reversed single #
loop $-1 $-1 $134 $56 #
plane-surface $-1 -153.31144328434706 28.478799299866488 81.517796218961081 0 1 0 -0.75470958851134928 0 0.65605901945558964 forward_v I I I I #
face $-1 $135 $136 $45 $-1 $137 forward single #
loop $-1 $138 $139 $57 #
cone-surface $-1 -52.883148239390025 33.687076254068444 5.2874388687505416 0.75470958851134928 0 -0.65605901945558964 1.3121180389111793 0 1.5094191770226986 1 I I 0 1 2 forward I I I I #
face $-1 $140 $141 $46 $-1 $142 reversed single #
loop $-1 $-1 $143 $58 #
plane-surface $-1 79.157023219106122 31.952484550762318 174.58029702218727 0 -1 0 -0.77714596973225614 0 -0.62932038083071107 forward_v I I I I #
face $-1 $144 $145 $47 $-1 $146 forward single #
loop $-1 $147 $148 $59 #
cone-surface $-1 53.538047342025337 27.853843216850564 5.9123684852383498 -0.77714596973225614 0 -0.62932038083071107 1.2586407616614221 0 -1.5542919394645123 1 I I 0 1 2 forward I I I I #
face $-1 $149 $150 $36 $-1 $151 reversed single #
loop $-1 $-1 $152 $60 #
plane-surface $-1 0 0 -13.966099054146738 0 0 1 1 0 0 forward_v I I I I #
coedge $-1 $153 $154 $155 $156 forward $61 $-1 #
face $-1 $157 $158 $37 $-1 $159 reversed single #
loop $-1 $-1 $160 $63 #
plane-surface $-1 0 -25.113502492364159 -10.559840507101709 0 -1 0 0 0 -1 forward_v I I I I #
coedge $-1 $161 $162 $163 $164 reversed $64 $-1 #
face $-1 $165 $166 $38 $-1 $167 reversed single #
loop $-1 $-1 $168 $66 #
plane-surface $-1 -61.094393749809271 -14.319565521407476 1.3547401034939384 -0.75470958851134928 0 0.65605901945558964 0.65605901945558964 0 0.75470958851134928 forward_v I I I I #
coedge $-1 $169 $170 $171 $172 reversed $67 $-1 #
face $-1 $-1 $173 $39 $-1 $174 forward single #
loop $-1 $175 $176 $69 #
cone-surface $-1 -49.398636541415598 -14.319565521407476 2.2583991392251548 0.75470958851134928 0 -0.65605901945558964 0.65605901945558964 0 0.75470958851134928 1 I I -0.70710678118654746 0.70710678118654746 1 forward I I I I #
loop $-1 $-1 $177 $51 #
coedge $-1 $112 $112 $178 $179 reversed $70 $-1 #
face $-1 $180 $181 $40 $-1 $182 reversed single #
loop $-1 $-1 $183 $72 #
plane-surface $-1 -61.094393749809271 1.6826484037511591 1.3547401034939384 -0.75470958851134928 0 0.65605901945558964 0.65605901945558964 0 0.75470958851134928 forward_v I I I I #
coedge $-1 $184 $185 $186 $187 reversed $73 $-1 #
face $-1 $-1 $188 $41 $-1 $189 forward single #
loop $-1 $190 $191 $75 #
cone-surface $-1 -49.398636541415598 1.6826484037511591 2.2583991392251548 0.75470958851134928 0 -0.65605901945558964 0.65605901945558964 0 0.75470958851134928 1 I I -0.70710678118654746 0.70710678118654746 1 forward I I I I #
loop $-1 $-1 $192 $53 #
coedge $-1 $121 $121 $193 $194 reversed $76 $-1 #
face $-1 $195 $196 $42 $-1 $197 reversed single #
loop $-1 $-1 $198 $78 #
plane-surface $-1 -61.094393749809271 17.684862328909801 1.3547401034939384 -0.75470958851134928 0 0.65605901945558964 0.65605901945558964 0 0.75470958851134928 forward_v I I I I #
coedge $-1 $199 $200 $201 $202 reversed $79 $-1 #
face $-1 $-1 $203 $43 $-1 $204 forward single #
loop $-1 $205 $206 $81 #
cone-surface $-1 -49.398636541415598 17.684862328909801 2.2583991392251548 0.75470958851134928 0 -0.65605901945558964 0.65605901945558964 0 0.75470958851134928 1 I I -0.70710678118654746 0.70710678118654746 1 forward I I I I #
loop $-1 $-1 $207 $55 #
coedge $-1 $130 $130 $208 $209 reversed $82 $-1 #
face $-1 $210 $211 $44 $-1 $212 forward single #
loop $-1 $-1 $213 $84 #
plane-surface $-1 -61.094393749809271 33.687076254068444 1.3547401034939384 -0.75470958851134928 0 0.65605901945558964 0.65605901945558964 0 0.75470958851134928 forward_v I I I I #
coedge $-1 $214 $215 $216 $217 reversed $85 $-1 #
face $-1 $-1 $218 $45 $-1 $219 forward single #
loop $-1 $220 $221 $87 #
cone-surface $-1 -49.398636541415598 33.687076254068444 2.2583991392251548 0.75470958851134928 0 -0.65605901945558964 0.65605901945558964 0 0.75470958851134928 1 I I -0.70710678118654746 0.70710678118654746 1 forward I I I I #
loop $-1 $-1 $222 $57 #
coedge $-1 $139 $139 $223 $224 reversed $88 $-1 #
face $-1 $225 $226 $46 $-1 $227 reversed single #
loop $-1 $-1 $228 $90 #
plane-surface $-1 -15.801500532693495 27.853843216850564 97.684402739684501 0.77714596973225614 0 0.62932038083071107 0.62932038083071107 0 -0.77714596973225614 forward_v I I I I #
coedge $-1 $229 $230 $231 $232 reversed $91 $-1 #
face $-1 $-1 $233 $47 $-1 $234 forward single #
loop $-1 $235 $236 $93 #
cone-surface $-1 49.755630211774459 27.853843216850564 2.8494275686301478 -0.77714596973225614 0 -0.62932038083071107 0.62932038083071107 0 -0.77714596973225614 1 I I -0.70710678118654746 0.70710678118654746 1 forward I I I I #
loop $-1 $-1 $237 $59 #
coedge $-1 $148 $148 $238 $239 reversed $94 $-1 #
face $-1 $240 $241 $36 $-1 $242 reversed single #
loop $-1 $-1 $243 $96 #
plane-surface $-1 0 -38.895353208270393 0 0 1 0 0 0 1 forward_v I I I I #
coedge $-1 $244 $245 $246 $247 forward $97 $-1 #
coedge $-1 $248 $99 $249 $250 forward $61 $-1 #
coedge $-1 $99 $248 $251 $252 forward $61 $-1 #
coedge $-1 $253 $254 $99 $156 reversed $255 $-1 #
edge $-1 $256 -38.895353208270393 $257 38.895353208270393 $155 $258 forward 7 unknown #
face $-1 $259 $260 $37 $-1 $261 reversed single #
loop $-1 $-1 $262 $100 #
plane-surface $-1 0 0 -13.966099054146738 0 0 1 1 0 0 forward_v I I I I #
coedge $-1 $263 $264 $265 $266 reversed $101 $-1 #
coedge $-1 $267 $103 $264 $268 forward $64 $-1 #
coedge $-1 $103 $267 $269 $270 reversed $64 $-1 #
coedge $-1 $271 $265 $103 $164 forward $260 $-1 #
edge $-1 $272 9.1112885672055199 $273 22.893139283111754 $163 $274 forward 7 unknown #
face $-1 $275 $276 $38 $-1 $277 forward single #
loop $-1 $-1 $278 $104 #
plane-surface $-1 -153.31144328434706 -9.1112885672055182 81.517796218961081 0 -1 0 0.75470958851134928 0 -0.65605901945558964 forward_v I I I I #
coedge $-1 $279 $280 $281 $282 reversed $105 $-1 #
coedge $-1 $170 $107 $283 $284 reversed $67 $-1 #
coedge $-1 $107 $169 $279 $285 reversed $67 $-1 #
coedge $-1 $281 $286 $107 $172 forward $276 $-1 #
edge $-1 $287 15.561327892364275 $288 26.52421469427658 $171 $289 forward 7 unknown #
loop $-1 $-1 $178 $108 #
plane-surface $-1 -61.094393749809271 -14.319565521407476 1.3547401034939384 -0.75470958851134928 0 0.65605901945558964 0.65605901945558964 0 0.75470958851134928 forward_v I I I I #
loop $-1 $-1 $290 $69 #
coedge $-1 $176 $176 $177 $291 reversed $109 $-1 #
coedge $-1 $177 $177 $176 $291 forward $111 $-1 #
coedge $-1 $178 $178 $112 $179 forward $173 $-1 #
edge $-1 $292 0 $292 6.2831853071796004 $178 $293 forward 7 unknown #
face $-1 $294 $295 $40 $-1 $296 forward single #
loop $-1 $-1 $297 $113 #
plane-surface $-1 -153.31144328434706 6.8909253579531171 81.517796218961081 0 -1 0 0.75470958851134928 0 -0.65605901945558964 forward_v I I I I #
coedge $-1 $298 $299 $300 $301 reversed $114 $-1 #
coedge $-1 $185 $116 $302 $303 reversed $73 $-1 #
coedge $-1 $116 $184 $298 $304 reversed $73 $-1 #
coedge $-1 $300 $305 $116 $187 forward $295 $-1 #
edge $-1 $306 15.561327892364275 $307 26.52421469427658 $186 $308 forward 7 unknown #
loop $-1 $-1 $193 $117 #
plane-surface $-1 -61.094393749809271 1.6826484037511591 1.3547401034939384 -0.75470958851134928 0 0.65605901945558964 0.65605901945558964 0 0.75470958851134928 forward_v I I I I #
loop $-1 $-1 $309 $75 #
coedge $-1 $191 $191 $192 $310 reversed $118 $-1 #
coedge $-1 $192 $192 $191 $310 forward $120 $-1 #
coedge $-1 $193 $193 $121 $194 forward $188 $-1 #
edge $-1 $311 0 $311 6.2831853071796004 $193 $312 forward 7 unknown #
face $-1 $313 $314 $42 $-1 $315 forward single #
loop $-1 $-1 $316 $122 #
plane-surface $-1 -153.31144328434706 22.893139283111758 81.517796218961081 0 -1 0 0.75470958851134928 0 -0.65605901945558964 forward_v I I I I #
coedge $-1 $317 $318 $319 $320 reversed $123 $-1 #
coedge $-1 $200 $125 $321 $322 reversed $79 $-1 #
coedge $-1 $125 $199 $317 $323 reversed $79 $-1 #
coedge $-1 $319 $324 $125 $202 forward $314 $-1 #
edge $-1 $325 15.561327892364275 $326 26.52421469427658 $201 $327 forward 7 unknown #
loop $-1 $-1 $208 $126 #
plane-surface $-1 -61.094393749809271 17.684862328909801 1.3547401034939384 -0.75470958851134928 0 0.65605901945558964 0.65605901945558964 0 0.75470958851134928 forward_v I I I I #
loop $-1 $-1 $328 $81 #
coedge $-1 $206 $206 $207 $329 reversed $127 $-1 #
coedge $-1 $207 $207 $206 $329 forward $129 $-1 #
coedge $-1 $208 $208 $130 $209 forward $203 $-1 #
edge $-1 $330 0 $330 6.2831853071796004 $208 $331 forward 7 unknown #
face $-1 $332 $333 $44 $-1 $334 reversed single #
loop $-1 $-1 $216 $131 #
plane-surface $-1 0 0 13.966099054146738 0 0 1 1 0 0 forward_v I I I I #
coedge $-1 $335 $336 $337 $338 reversed $132 $-1 #
coedge $-1 $215 $134 $339 $340 reversed $85 $-1 #
coedge $-1 $134 $214 $335 $341 reversed $85 $-1 #
coedge $-1 $337 $342 $134 $217 forward $211 $-1 #
edge $-1 $343 15.561327892364275 $344 26.52421469427658 $216 $345 forward 7 unknown #
loop $-1 $-1 $223 $135 #
plane-surface $-1 -61.094393749809271 33.687076254068444 1.3547401034939384 -0.75470958851134928 0 0.65605901945558964 0.65605901945558964 0 0.75470958851134928 forward_v I I I I #
loop $-1 $-1 $346 $87 #
coedge $-1 $221 $221 $222 $347 reversed $136 $-1 #
coedge $-1 $222 $222 $221 $347 forward $138 $-1 #
coedge $-1 $223 $223 $139 $224 forward $218 $-1 #
edge $-1 $348 0 $348 6.2831853071796004 $223 $349 forward 7 unknown #
face $-1 $350 $351 $46 $-1 $352 forward single #
loop $-1 $-1 $353 $140 #
plane-surface $-1 79.157023219106122 23.75520188293881 174.58029702218727 0 1 0 0.77714596973225614 0 0.62932038083071107 forward_v I I I I #
coedge $-1 $354 $355 $356 $357 reversed $141 $-1 #
coedge $-1 $230 $143 $358 $359 reversed $91 $-1 #
coedge $-1 $143 $229 $354 $360 reversed $91 $-1 #
coedge $-1 $356 $361 $143 $232 forward $351 $-1 #
edge $-1 $362 -21.515882140256195 $363 -12.413731645725605 $231 $364 forward 7 unknown #
loop $-1 $-1 $238 $144 #
plane-surface $-1 -15.801500532693495 27.853843216850564 97.684402739684501 0.77714596973225614 0 0.62932038083071107 0.62932038083071107 0 -0.77714596973225614 forward_v I I I I #
loop $-1 $-1 $365 $93 #
coedge $-1 $236 $236 $237 $366 reversed $145 $-1 #
coedge $-1 $237 $237 $236 $366 forward $147 $-1 #
coedge $-1 $238 $238 $148 $239 forward $233 $-1 #
edge $-1 $367 0 $367 6.2831853071796004 $238 $368 forward 7 unknown #
face $-1 $369 $370 $36 $-1 $371 reversed single #
loop $-1 $-1 $372 $149 #
plane-surface $-1 -61.094393749809257 0 0 1 0 0 0 0 -1 forward_v I I I I #
coedge $-1 $373 $251 $374 $375 forward $150 $-1 #
coedge $-1 $376 $152 $373 $377 forward $97 $-1 #
coedge $-1 $152 $376 $378 $379 forward $97 $-1 #
coedge $-1 $254 $253 $152 $247 reversed $255 $-1 #
edge $-1 $380 -38.895353208270393 $381 38.895353208270393 $246 $382 forward 7 unknown #
coedge $-1 $154 $153 $383 $384 forward $61 $-1 #
coedge $-1 $385 $386 $153 $250 reversed $370 $-1 #
edge $-1 $257 -61.094393749809257 $387 61.094393749809257 $249 $388 forward 7 unknown #
coedge $-1 $243 $389 $154 $252 reversed $150 $-1 #
edge $-1 $390 -61.094393749809257 $256 61.094393749809257 $251 $391 forward 7 unknown #
coedge $-1 $246 $155 $389 $392 forward $255 $-1 #
coedge $-1 $155 $246 $385 $393 reversed $255 $-1 #
loop $-1 $-1 $253 $369 #
vertex $-1 $156 $394 #
vertex $-1 $156 $395 #
straight-curve $-1 61.094393749809257 0 13.966099054146738 0 1 0 I I #
face $-1 $396 $397 $37 $-1 $398 reversed single #
loop $-1 $-1 $265 $157 #
plane-surface $-1 61.094393749809257 0 0 -1 0 0 0 0 1 forward_v I I I I #
coedge $-1 $399 $400 $263 $401 forward $158 $-1 #
coedge $-1 $402 $160 $262 $401 reversed $101 $-1 #
coedge $-1 $160 $402 $161 $268 reversed $101 $-1 #
coedge $-1 $163 $403 $160 $266 forward $260 $-1 #
edge $-1 $404 -8.6861788005958829 $272 -1.8736617065058256 $265 $405 forward 7 unknown #
coedge $-1 $162 $161 $406 $407 reversed $64 $-1 #
edge $-1 $272 -61.094393749809257 $408 61.094393749809257 $264 $409 forward 7 unknown #
coedge $-1 $410 $411 $162 $270 forward $397 $-1 #
edge $-1 $273 -61.094393749809257 $412 61.094393749809257 $269 $413 forward 7 unknown #
coedge $-1 $403 $163 $411 $414 forward $260 $-1 #
vertex $-1 $164 $415 #
vertex $-1 $414 $416 #
straight-curve $-1 61.094393749809257 -16.002213925158639 -7.1535819600566803 0 -1 0 I I #
face $-1 $-1 $417 $38 $-1 $418 reversed single #
loop $-1 $-1 $171 $165 #
plane-surface $-1 0 0 13.966099054146738 0 0 1 1 0 0 forward_v I I I I #
coedge $-1 $419 $420 $421 $422 reversed $166 $-1 #
coedge $-1 $423 $168 $170 $285 forward $105 $-1 #
coedge $-1 $168 $423 $419 $424 forward $105 $-1 #
coedge $-1 $421 $171 $168 $282 forward $276 $-1 #
edge $-1 $288 -12.368059714905694 $425 -1.9515058065017801 $281 $426 forward 7 unknown #
coedge $-1 $427 $428 $169 $284 forward $417 $-1 #
edge $-1 $429 -39.404158005986588 $287 -26.792799055333802 $283 $430 forward 7 unknown #
edge $-1 $288 -16.710214289881325 $429 -2.1724019648727301e-014 $170 $431 forward 7 unknown #
coedge $-1 $171 $421 $427 $432 forward $276 $-1 #
vertex $-1 $284 $433 #
vertex $-1 $172 $434 #
straight-curve $-1 -76.655721642173532 -19.527842475609432 13.966099054146738 1 0 0 I I #
coedge $-1 $290 $290 $-1 $435 reversed $175 $-1 #
edge $-1 $436 0 $436 6.2831853071796004 $176 $437 forward 7 unknown #
vertex $-1 $179 $438 #
ellipse-curve $-1 -55.612950348853104 -14.319565521407476 7.6604195788203429 -0.75470958851134928 0 0.65605901945558964 1.3121180389111793 0 1.5094191770226986 1 I I #
face $-1 $-1 $439 $40 $-1 $440 reversed single #
loop $-1 $-1 $186 $180 #
plane-surface $-1 0 0 13.966099054146738 0 0 1 1 0 0 forward_v I I I I #
coedge $-1 $441 $442 $443 $444 reversed $181 $-1 #
coedge $-1 $445 $183 $185 $304 forward $114 $-1 #
coedge $-1 $183 $445 $441 $446 forward $114 $-1 #
coedge $-1 $443 $186 $183 $301 forward $295 $-1 #
edge $-1 $307 -4.3669527523263785 $447 6.0496011560775376 $300 $448 forward 7 unknown #
coedge $-1 $449 $450 $184 $303 forward $439 $-1 #
edge $-1 $451 -39.404158005986588 $306 -26.792799055333802 $302 $452 forward 7 unknown #
edge $-1 $307 -16.710214289881325 $451 -2.1724019648727301e-014 $185 $453 forward 7 unknown #
coedge $-1 $186 $443 $449 $454 forward $295 $-1 #
vertex $-1 $187 $455 #
vertex $-1 $187 $456 #
straight-curve $-1 -76.655721642173532 -3.5256285504507989 13.966099054146738 1 0 0 I I #
coedge $-1 $309 $309 $-1 $457 reversed $190 $-1 #
edge $-1 $458 0 $458 6.2831853071796004 $191 $459 forward 7 unknown #
vertex $-1 $194 $460 #
ellipse-curve $-1 -55.612950348853104 1.6826484037511591 7.6604195788203429 -0.75470958851134928 0 0.65605901945558964 1.3121180389111793 0 1.5094191770226986 1 I I #
face $-1 $-1 $461 $42 $-1 $462 reversed single #
loop $-1 $-1 $201 $195 #
plane-surface $-1 0 0 13.966099054146738 0 0 1 1 0 0 forward_v I I I I #
coedge $-1 $463 $464 $465 $466 reversed $196 $-1 #
coedge $-1 $467 $198 $200 $323 forward $123 $-1 #
coedge $-1 $198 $467 $463 $468 forward $123 $-1 #
coedge $-1 $465 $201 $198 $320 forward $314 $-1 #
edge $-1 $326 3.6341542102529427 $469 14.050708118656857 $319 $470 forward 7 unknown #
coedge $-1 $471 $472 $199 $322 forward $461 $-1 #
edge $-1 $473 -39.404158005986588 $325 -26.792799055333802 $321 $474 forward 7 unknown #
edge $-1 $326 -16.710214289881325 $473 -2.1724019648727301e-014 $200 $475 forward 7 unknown #
coedge $-1 $201 $465 $471 $476 forward $314 $-1 #
vertex $-1 $202 $477 #
vertex $-1 $202 $478 #
straight-curve $-1 -76.655721642173532 12.476585374707843 13.966099054146738 1 0 0 I I #
coedge $-1 $328 $328 $-1 $479 reversed $205 $-1 #
edge $-1 $480 0 $480 6.2831853071796004 $206 $481 forward 7 unknown #
vertex $-1 $209 $482 #
ellipse-curve $-1 -55.612950348853104 17.684862328909801 7.6604195788203429 -0.75470958851134928 0 0.65605901945558964 1.3121180389111793 0 1.5094191770226986 1 I I #
face $-1 $-1 $483 $44 $-1 $484 reversed single #
loop $-1 $-1 $485 $210 #
plane-surface $-1 0 38.895353208270393 0 0 -1 0 0 0 -1 forward_v I I I I #
coedge $-1 $486 $213 $215 $341 forward $132 $-1 #
coedge $-1 $213 $486 $485 $487 reversed $132 $-1 #
coedge $-1 $488 $216 $213 $338 forward $211 $-1 #
edge $-1 $344 11.635261172832266 $489 22.051815081236178 $337 $490 forward 7 unknown #
coedge $-1 $491 $492 $214 $340 forward $483 $-1 #
edge $-1 $493 -39.404158005986588 $343 -26.792799055333802 $339 $494 forward 7 unknown #
edge $-1 $344 -16.710214289881325 $493 -2.1724019648727301e-014 $215 $495 forward 7 unknown #
coedge $-1 $216 $488 $491 $496 forward $211 $-1 #
vertex $-1 $340 $497 #
vertex $-1 $217 $498 #
straight-curve $-1 -76.655721642173532 28.478799299866488 13.966099054146738 1 0 0 I I #
coedge $-1 $346 $346 $-1 $499 reversed $220 $-1 #
edge $-1 $500 0 $500 6.2831853071796004 $221 $501 forward 7 unknown #
vertex $-1 $224 $502 #
ellipse-curve $-1 -55.612950348853104 33.687076254068444 7.6604195788203429 -0.75470958851134928 0 0.65605901945558964 1.3121180389111793 0 1.5094191770226986 1 I I #
face $-1 $-1 $503 $46 $-1 $504 reversed single #
loop $-1 $-1 $231 $225 #
plane-surface $-1 0 0 13.966099054146738 0 0 1 1 0 0 forward_v I I I I #
coedge $-1 $505 $506 $507 $508 reversed $226 $-1 #
coedge $-1 $509 $228 $230 $360 forward $141 $-1 #
coedge $-1 $228 $509 $505 $510 forward $141 $-1 #
coedge $-1 $507 $231 $228 $357 forward $351 $-1 #
edge $-1 $363 -18.025562942337036 $511 -9.8282802745135278 $356 $512 forward 7 unknown #
coedge $-1 $513 $514 $229 $359 forward $503 $-1 #
edge $-1 $515 -84.564269523208736 $362 -73.324049456946895 $358 $516 forward 7 unknown #
edge $-1 $363 107.72532696062305 $515 122.18878749961851 $230 $517 forward 7 unknown #
coedge $-1 $231 $507 $513 $518 forward $351 $-1 #
vertex $-1 $359 $519 #
vertex $-1 $232 $520 #
straight-curve $-1 39.578511609553061 31.952484550762318 13.966099054146738 -1 0 0 I I #
coedge $-1 $365 $365 $-1 $521 reversed $235 $-1 #
edge $-1 $522 0 $522 6.2831853071796004 $236 $523 forward 7 unknown #
vertex $-1 $239 $524 #
ellipse-curve $-1 56.543318502543947 27.853843216850564 8.3459890210158356 0.77714596973225614 0 0.62932038083071107 1.2586407616614221 0 -1.5542919394645123 1 I I #
face $-1 $-1 $255 $36 $-1 $525 reversed single #
loop $-1 $-1 $385 $240 #
plane-surface $-1 0 38.895353208270393 0 0 -1 0 0 0 -1 forward_v I I I I #
coedge $-1 $526 $383 $386 $527 forward $241 $-1 #
coedge $-1 $389 $243 $244 $377 reversed $150 $-1 #
coedge $-1 $383 $526 $243 $375 reversed $241 $-1 #
edge $-1 $390 -13.966099054146738 $528 13.966099054146738 $374 $529 forward 7 unknown #
coedge $-1 $245 $244 $526 $530 forward $97 $-1 #
edge $-1 $381 -61.094393749809257 $528 61.094393749809257 $373 $531 forward 7 unknown #
coedge $-1 $386 $385 $245 $379 reversed $370 $-1 #
edge $-1 $532 -61.094393749809257 $380 61.094393749809257 $378 $533 forward 7 unknown #
vertex $-1 $247 $534 #
vertex $-1 $392 $535 #
straight-curve $-1 61.094393749809257 0 -13.966099054146738 0 -1 0 I I #
coedge $-1 $372 $374 $248 $384 reversed $241 $-1 #
edge $-1 $387 -38.895353208270393 $390 38.895353208270393 $383 $536 forward 7 unknown #
coedge $-1 $378 $249 $254 $393 forward $370 $-1 #
coedge $-1 $249 $378 $372 $527 reversed $370 $-1 #
vertex $-1 $250 $537 #
straight-curve $-1 0 38.895353208270393 13.966099054146738 -1 0 0 I I #
coedge $-1 $251 $373 $253 $392 reversed $150 $-1 #
vertex $-1 $384 $538 #
straight-curve $-1 0 -38.895353208270393 13.966099054146738 1 0 0 I I #
edge $-1 $256 -13.966099054146738 $381 13.966099054146738 $253 $539 forward 7 unknown #
edge $-1 $257 -13.966099054146738 $380 13.966099054146738 $254 $540 forward 7 unknown #
point $-1 61.094393749809257 -38.895353208270393 13.966099054146738 #
point $-1 61.094393749809257 38.895353208270393 13.966099054146738 #
face $-1 $-1 $541 $37 $-1 $542 reversed single #
loop $-1 $-1 $269 $259 #
plane-surface $-1 0 -38.895353208270393 0 0 1 0 0 0 1 forward_v I I I I #
coedge $-1 $543 $262 $403 $544 forward $158 $-1 #
coedge $-1 $262 $543 $545 $546 forward $158 $-1 #
edge $-1 $547 -61.094393749809257 $404 61.094393749809257 $262 $548 forward 7 unknown #
coedge $-1 $264 $263 $549 $550 reversed $101 $-1 #
coedge $-1 $265 $271 $399 $544 reversed $260 $-1 #
vertex $-1 $544 $551 #
straight-curve $-1 61.094393749809257 -25.113502492364159 -5.2799202535508547 0 0 1 I I #
coedge $-1 $549 $552 $267 $407 forward $541 $-1 #
edge $-1 $412 -22.893139283111754 $408 -9.1112885672055199 $406 $553 forward 7 unknown #
vertex $-1 $407 $554 #
straight-curve $-1 0 -25.113502492364159 -7.1535819600566803 -1 0 0 I I #
coedge $-1 $555 $269 $552 $556 forward $397 $-1 #
coedge $-1 $269 $555 $271 $414 reversed $397 $-1 #
vertex $-1 $556 $557 #
straight-curve $-1 0 -38.895353208270393 -7.1535819600566803 -1 0 0 I I #
edge $-1 $273 7.1535819600566803 $558 13.966099054146738 $271 $559 forward 7 unknown #
point $-1 61.094393749809257 -25.113502492364159 -7.1535819600566803 #
point $-1 61.094393749809257 -38.895353208270393 -7.1535819600566803 #
loop $-1 $-1 $283 $275 #
plane-surface $-1 -61.094393749809257 0 0 1 0 0 0 0 -1 forward_v I I I I #
coedge $-1 $420 $278 $280 $424 reversed $166 $-1 #
coedge $-1 $278 $419 $560 $561 reversed $166 $-1 #
coedge $-1 $286 $281 $278 $422 forward $276 $-1 #
edge $-1 $425 -26.52421469427658 $562 -15.561327892364275 $421 $563 forward 7 unknown #
coedge $-1 $280 $279 $428 $564 reversed $105 $-1 #
edge $-1 $565 2.1724019648727301e-014 $425 16.710214289881325 $419 $566 forward 7 unknown #
vertex $-1 $282 $567 #
straight-curve $-1 -50.131506947896945 -7.1597827607037381 13.966099054146738 0 1 0 I I #
coedge $-1 $560 $283 $286 $432 reversed $417 $-1 #
coedge $-1 $283 $560 $423 $564 forward $417 $-1 #
vertex $-1 $284 $568 #
straight-curve $-1 -61.094393749809257 -19.527842475609432 40.75889810948054 0 0 1 I I #
straight-curve $-1 -61.094393749809271 -19.527842475609432 1.3547401034939384 -0.65605901945558964 0 -0.75470958851134928 I I #
edge $-1 $562 9.1112885672055182 $287 19.527842475609432 $427 $569 forward 7 unknown #
point $-1 -61.094393749809257 -19.527842475609432 13.966099054146738 #
point $-1 -50.131506947896952 -19.527842475609432 13.966099054146738 #
edge $-1 $570 1 $570 0 $290 $-1 forward 7 unknown #
vertex $-1 $291 $571 #
ellipse-curve $-1 -50.153346129926945 -14.319565521407476 2.9144581586807443 -0.75470958851134928 0 0.65605901945558964 1.3121180389111793 0 1.5094191770226986 1 I I #
point $-1 -54.300832309941924 -14.319565521407476 9.1698387558430365 #
loop $-1 $-1 $302 $294 #
plane-surface $-1 -61.094393749809257 0 0 1 0 0 0 0 -1 forward_v I I I I #
coedge $-1 $442 $297 $299 $446 reversed $181 $-1 #
coedge $-1 $297 $441 $572 $573 reversed $181 $-1 #
coedge $-1 $305 $300 $297 $444 forward $295 $-1 #
edge $-1 $447 -26.52421469427658 $574 -15.561327892364275 $443 $575 forward 7 unknown #
coedge $-1 $299 $298 $450 $576 reversed $114 $-1 #
edge $-1 $577 2.1724019648727301e-014 $447 16.710214289881325 $441 $578 forward 7 unknown #
vertex $-1 $301 $579 #
straight-curve $-1 -50.131506947896945 0.84132420187557955 13.966099054146738 0 1 0 I I #
coedge $-1 $572 $302 $305 $454 reversed $439 $-1 #
coedge $-1 $302 $572 $445 $576 forward $439 $-1 #
vertex $-1 $303 $580 #
straight-curve $-1 -61.094393749809257 -3.5256285504507989 40.75889810948054 0 0 1 I I #
straight-curve $-1 -61.094393749809271 -3.5256285504507989 1.3547401034939384 -0.65605901945558964 0 -0.75470958851134928 I I #
edge $-1 $574 -6.8909253579531171 $306 3.5256285504507989 $449 $581 forward 7 unknown #
point $-1 -61.094393749809257 -3.5256285504507989 13.966099054146738 #
point $-1 -50.131506947896952 -3.5256285504507989 13.966099054146738 #
edge $-1 $582 1 $582 0 $309 $-1 forward 7 unknown #
vertex $-1 $310 $583 #
ellipse-curve $-1 -50.153346129926945 1.6826484037511591 2.9144581586807443 -0.75470958851134928 0 0.65605901945558964 1.3121180389111793 0 1.5094191770226986 1 I I #
point $-1 -54.300832309941924 1.6826484037511591 9.1698387558430365 #
loop $-1 $-1 $321 $313 #
plane-surface $-1 -61.094393749809257 0 0 1 0 0 0 0 -1 forward_v I I I I #
coedge $-1 $464 $316 $318 $468 reversed $196 $-1 #
coedge $-1 $316 $463 $584 $585 reversed $196 $-1 #
coedge $-1 $324 $319 $316 $466 forward $314 $-1 #
edge $-1 $469 -26.52421469427658 $586 -15.561327892364275 $465 $587 forward 7 unknown #
coedge $-1 $318 $317 $472 $588 reversed $123 $-1 #
edge $-1 $589 2.1724019648727301e-014 $469 16.710214289881325 $463 $590 forward 7 unknown #
vertex $-1 $320 $591 #
straight-curve $-1 -50.131506947896945 8.8424311644549007 13.966099054146738 0 1 0 I I #
coedge $-1 $584 $321 $324 $476 reversed $461 $-1 #
coedge $-1 $321 $584 $467 $588 forward $461 $-1 #
vertex $-1 $322 $592 #
straight-curve $-1 -61.094393749809257 12.476585374707843 40.75889810948054 0 0 1 I I #
straight-curve $-1 -61.094393749809271 12.476585374707843 1.3547401034939384 -0.65605901945558964 0 -0.75470958851134928 I I #
edge $-1 $586 -22.893139283111758 $325 -12.476585374707843 $471 $593 forward 7 unknown #
point $-1 -61.094393749809257 12.476585374707843 13.966099054146738 #
point $-1 -50.131506947896952 12.476585374707843 13.966099054146738 #
edge $-1 $594 1 $594 0 $328 $-1 forward 7 unknown #
vertex $-1 $329 $595 #
ellipse-curve $-1 -50.153346129926945 17.684862328909801 2.9144581586807443 -0.75470958851134928 0 0.65605901945558964 1.3121180389111793 0 1.5094191770226986 1 I I #
point $-1 -54.300832309941924 17.684862328909801 9.1698387558430365 #
loop $-1 $-1 $339 $332 #
plane-surface $-1 -61.094393749809257 0 0 1 0 0 0 0 -1 forward_v I I I I #
coedge $-1 $596 $597 $336 $487 forward $333 $-1 #
coedge $-1 $336 $335 $492 $598 reversed $132 $-1 #
edge $-1 $489 2.8193320659616061 $599 19.529546355842903 $485 $600 forward 7 unknown #
coedge $-1 $342 $337 $597 $601 forward $211 $-1 #
vertex $-1 $601 $602 #
straight-curve $-1 -50.131506947896945 16.843538127034222 13.966099054146738 0 1 0 I I #
coedge $-1 $603 $339 $342 $496 reversed $483 $-1 #
coedge $-1 $339 $603 $486 $598 forward $483 $-1 #
vertex $-1 $340 $604 #
straight-curve $-1 -61.094393749809257 28.478799299866488 40.75889810948054 0 0 1 I I #
straight-curve $-1 -61.094393749809271 28.478799299866488 1.3547401034939384 -0.65605901945558964 0 -0.75470958851134928 I I #
edge $-1 $605 -38.895353208270393 $343 -28.478799299866488 $491 $606 forward 7 unknown #
point $-1 -61.094393749809257 28.478799299866488 13.966099054146738 #
point $-1 -50.131506947896952 28.478799299866488 13.966099054146738 #
edge $-1 $607 1 $607 0 $346 $-1 forward 7 unknown #
vertex $-1 $347 $608 #
ellipse-curve $-1 -50.153346129926945 33.687076254068444 2.9144581586807443 -0.75470958851134928 0 0.65605901945558964 1.3121180389111793 0 1.5094191770226986 1 I I #
point $-1 -54.300832309941924 33.687076254068444 9.1698387558430365 #
loop $-1 $-1 $358 $350 #
plane-surface $-1 61.094393749809257 0 0 -1 0 0 0 0 1 forward_v I I I I #
coedge $-1 $506 $353 $355 $510 reversed $226 $-1 #
coedge $-1 $353 $505 $609 $610 reversed $226 $-1 #
coedge $-1 $361 $356 $353 $508 forward $351 $-1 #
edge $-1 $511 12.413731645725605 $611 21.515882140256195 $507 $612 forward 7 unknown #
coedge $-1 $355 $354 $514 $613 reversed $141 $-1 #
edge $-1 $614 -122.18878749961851 $511 -107.72532696062305 $505 $615 forward 7 unknown #
vertex $-1 $357 $616 #
straight-curve $-1 51.992243255278659 13.926921608425282 13.966099054146746 0 -1 0 I I #
coedge $-1 $609 $358 $361 $518 reversed $503 $-1 #
coedge $-1 $358 $609 $509 $613 forward $503 $-1 #
vertex $-1 $359 $617 #
straight-curve $-1 61.094393749809257 31.952484550762318 87.290148511093633 0 0 1 I I #
straight-curve $-1 -15.801500532693495 31.952484550762318 97.684402739684501 0.62932038083071107 0 -0.77714596973225614 I I #
edge $-1 $611 23.75520188293881 $362 31.952484550762318 $513 $618 forward 7 unknown #
point $-1 61.094393749809257 31.952484550762318 13.966099054146738 #
point $-1 51.992243255278666 31.952484550762318 13.966099054146738 #
edge $-1 $619 1 $619 0 $365 $-1 forward 7 unknown #
vertex $-1 $366 $620 #
ellipse-curve $-1 50.532776181506712 27.853843216850564 3.4787479494608586 0.77714596973225614 0 0.62932038083071107 1.2586407616614221 0 -1.5542919394645123 1 I I #
point $-1 57.801959264205379 27.853843216850564 6.7916970815513293 #
plane-surface $-1 61.094393749809257 0 0 -1 0 0 0 0 1 forward_v I I I I #
coedge $-1 $374 $372 $376 $530 reversed $241 $-1 #
edge $-1 $387 -13.966099054146738 $532 13.966099054146738 $386 $621 forward 7 unknown #
vertex $-1 $530 $622 #
straight-curve $-1 -61.094393749809257 -38.895353208270393 0 0 0 -1 I I #
edge $-1 $528 -38.895353208270393 $532 38.895353208270393 $526 $623 forward 7 unknown #
straight-curve $-1 0 -38.895353208270393 -13.966099054146738 -1 0 0 I I #
vertex $-1 $379 $624 #
straight-curve $-1 0 38.895353208270393 -13.966099054146738 1 0 0 I I #
point $-1 61.094393749809257 38.895353208270393 -13.966099054146738 #
point $-1 61.094393749809257 -38.895353208270393 -13.966099054146738 #
straight-curve $-1 -61.094393749809257 0 13.966099054146738 0 -1 0 I I #
point $-1 -61.094393749809257 38.895353208270393 13.966099054146738 #
point $-1 -61.094393749809257 -38.895353208270393 13.966099054146738 #
straight-curve $-1 61.094393749809257 -38.895353208270393 0 0 0 -1 I I #
straight-curve $-1 61.094393749809257 38.895353208270393 0 0 0 -1 I I #
loop $-1 $-1 $549 $396 #
plane-surface $-1 -61.094393749809257 0 0 1 0 0 0 0 -1 forward_v I I I I #
coedge $-1 $400 $399 $555 $625 forward $158 $-1 #
edge $-1 $404 25.113502492364159 $558 38.895353208270393 $403 $626 forward 7 unknown #
coedge $-1 $552 $549 $400 $546 reversed $541 $-1 #
edge $-1 $627 -38.895353208270393 $547 -25.113502492364159 $545 $628 forward 7 unknown #
vertex $-1 $550 $629 #
straight-curve $-1 0 -25.113502492364159 -13.966099054146738 1 0 0 I I #
coedge $-1 $545 $406 $402 $550 forward $541 $-1 #
edge $-1 $408 1.8736617065058256 $547 8.6861788005958829 $549 $630 forward 7 unknown #
point $-1 61.094393749809257 -25.113502492364159 -13.966099054146738 #
coedge $-1 $406 $545 $410 $556 reversed $541 $-1 #
straight-curve $-1 -61.094393749809257 -16.002213925158639 -7.1535819600566803 0 1 0 I I #
point $-1 -61.094393749809257 -25.113502492364159 -7.1535819600566803 #
coedge $-1 $411 $410 $543 $625 reversed $397 $-1 #
edge $-1 $412 7.1535819600566803 $627 13.966099054146738 $552 $631 forward 7 unknown #
point $-1 -61.094393749809257 -38.895353208270393 -7.1535819600566803 #
vertex $-1 $414 $632 #
straight-curve $-1 61.094393749809257 -38.895353208270393 0 0 0 -1 I I #
coedge $-1 $428 $427 $420 $561 forward $417 $-1 #
edge $-1 $562 26.792799055333802 $565 39.404158005986588 $560 $633 forward 7 unknown #
vertex $-1 $432 $634 #
straight-curve $-1 -76.655721642173532 -9.1112885672055182 13.966099054146738 -1 0 0 I I #
edge $-1 $565 1.9515058065017801 $429 12.368059714905694 $428 $635 forward 7 unknown #
vertex $-1 $564 $636 #
straight-curve $-1 -61.094393749809271 -9.1112885672055182 1.3547401034939384 0.65605901945558964 0 0.75470958851134928 I I #
point $-1 -50.131506947896952 -9.1112885672055182 13.966099054146738 #
point $-1 -61.094393749809257 -19.527842475609432 1.3547401034939548 #
straight-curve $-1 -61.094393749809257 0 13.966099054146738 0 -1 0 I I #
vertex $-1 $435 $637 #
point $-1 -48.841228091015765 -14.319565521407476 4.4238773357034429 #
coedge $-1 $450 $449 $442 $573 forward $439 $-1 #
edge $-1 $574 26.792799055333802 $577 39.404158005986588 $572 $638 forward 7 unknown #
vertex $-1 $454 $639 #
straight-curve $-1 -76.655721642173532 6.8909253579531171 13.966099054146738 -1 0 0 I I #
edge $-1 $577 -6.0496011560775376 $451 4.3669527523263785 $450 $640 forward 7 unknown #
vertex $-1 $576 $641 #
straight-curve $-1 -61.094393749809271 6.8909253579531171 1.3547401034939384 0.65605901945558964 0 0.75470958851134928 I I #
point $-1 -50.131506947896952 6.8909253579531171 13.966099054146738 #
point $-1 -61.094393749809257 -3.5256285504507989 1.3547401034939548 #
straight-curve $-1 -61.094393749809257 0 13.966099054146738 0 -1 0 I I #
vertex $-1 $457 $642 #
point $-1 -48.841228091015765 1.6826484037511591 4.4238773357034429 #
coedge $-1 $472 $471 $464 $585 forward $461 $-1 #
edge $-1 $586 26.792799055333802 $589 39.404158005986588 $584 $643 forward 7 unknown #
vertex $-1 $476 $644 #
straight-curve $-1 -76.655721642173532 22.893139283111758 13.966099054146738 -1 0 0 I I #
edge $-1 $589 -14.050708118656857 $473 -3.6341542102529427 $472 $645 forward 7 unknown #
vertex $-1 $588 $646 #
straight-curve $-1 -61.094393749809271 22.893139283111758 1.3547401034939384 0.65605901945558964 0 0.75470958851134928 I I #
point $-1 -50.131506947896952 22.893139283111758 13.966099054146738 #
point $-1 -61.094393749809257 12.476585374707843 1.3547401034939548 #
straight-curve $-1 -61.094393749809257 0 13.966099054146738 0 -1 0 I I #
vertex $-1 $479 $647 #
point $-1 -48.841228091015765 17.684862328909801 4.4238773357034429 #
coedge $-1 $597 $485 $603 $648 reversed $333 $-1 #
coedge $-1 $485 $596 $488 $601 reversed $333 $-1 #
edge $-1 $599 -22.051815081236178 $493 -11.635261172832266 $492 $649 forward 7 unknown #
vertex $-1 $487 $650 #
straight-curve $-1 -48.281858717182473 38.895353208270393 16.093875997525469 -0.65605901945558975 0 -0.75470958851134939 I I #
edge $-1 $489 50.131506947896952 $605 61.094393749809257 $597 $651 forward 7 unknown #
point $-1 -50.131506947896952 38.8953532082704 13.966099054146738 #
coedge $-1 $492 $491 $596 $648 forward $483 $-1 #
point $-1 -61.094393749809257 28.478799299866488 1.3547401034939548 #
vertex $-1 $601 $652 #
straight-curve $-1 -61.094393749809257 0 13.966099054146738 0 -1 0 I I #
vertex $-1 $499 $653 #
point $-1 -48.841228091015765 33.687076254068444 4.4238773357034429 #
coedge $-1 $514 $513 $506 $610 forward $503 $-1 #
edge $-1 $611 73.324049456946895 $614 84.564269523208736 $609 $654 forward 7 unknown #
vertex $-1 $518 $655 #
straight-curve $-1 39.578511609553061 23.75520188293881 13.966099054146738 1 0 0 I I #
edge $-1 $614 9.8282802745135278 $515 18.025562942337036 $514 $656 forward 7 unknown #
vertex $-1 $613 $657 #
straight-curve $-1 -15.801500532693495 23.75520188293881 97.684402739684501 -0.62932038083071107 0 0.77714596973225614 I I #
point $-1 51.992243255278666 23.75520188293881 13.966099054146738 #
point $-1 61.094393749809257 31.952484550762318 2.7258789878848972 #
straight-curve $-1 61.094393749809257 0 13.966099054146738 0 1 0 I I #
vertex $-1 $521 $658 #
point $-1 51.791416943168137 27.853843216850564 1.9244560099963466 #
straight-curve $-1 -61.094393749809257 38.895353208270393 0 0 0 -1 I I #
point $-1 -61.094393749809257 -38.895353208270393 -13.966099054146738 #
straight-curve $-1 -61.094393749809257 0 -13.966099054146738 0 1 0 I I #
point $-1 -61.094393749809257 38.895353208270393 -13.966099054146738 #
edge $-1 $558 -61.094393749809257 $627 61.094393749809257 $555 $659 forward 7 unknown #
straight-curve $-1 61.094393749809257 0 -13.966099054146738 0 -1 0 I I #
vertex $-1 $546 $660 #
straight-curve $-1 -61.094393749809257 0 -13.966099054146738 0 1 0 I I #
point $-1 -61.094393749809257 -25.113502492364159 -13.966099054146738 #
straight-curve $-1 -61.094393749809257 -25.113502492364159 -5.2799202535508547 0 0 -1 I I #
straight-curve $-1 -61.094393749809257 -38.895353208270393 0 0 0 -1 I I #
point $-1 61.094393749809257 -38.895353208270393 -13.966099054146738 #
straight-curve $-1 -61.094393749809257 -9.1112885672055182 40.75889810948054 0 0 -1 I I #
point $-1 -61.094393749809257 -9.1112885672055182 13.966099054146738 #
straight-curve $-1 -61.094393749809257 -7.1597827607037381 1.3547401034939539 0 -1 0 I I #
point $-1 -61.094393749809257 -9.1112885672055182 1.3547401034939548 #
point $-1 -48.643926952904252 -14.319565521407476 1.6023401197695653 #
straight-curve $-1 -61.094393749809257 6.8909253579531171 40.75889810948054 0 0 -1 I I #
point $-1 -61.094393749809257 6.8909253579531171 13.966099054146738 #
straight-curve $-1 -61.094393749809257 0.84132420187557955 1.3547401034939539 0 -1 0 I I #
point $-1 -61.094393749809257 6.8909253579531171 1.3547401034939548 #
point $-1 -48.643926952904252 1.6826484037511591 1.6023401197695653 #
straight-curve $-1 -61.094393749809257 22.893139283111758 40.75889810948054 0 0 -1 I I #
point $-1 -61.094393749809257 22.893139283111758 13.966099054146738 #
straight-curve $-1 -61.094393749809257 8.8424311644549007 1.3547401034939539 0 -1 0 I I #
point $-1 -61.094393749809257 22.893139283111758 1.3547401034939548 #
point $-1 -48.643926952904252 17.684862328909801 1.6023401197695653 #
edge $-1 $605 -13.966099054146738 $599 -1.3547401034939548 $596 $661 forward 7 unknown #
straight-curve $-1 -61.094393749809257 16.843538127034222 1.3547401034939539 0 -1 0 I I #
point $-1 -61.094393749809257 38.8953532082704 1.3547401034939548 #
straight-curve $-1 0 38.895353208270393 13.966099054146738 -1 0 0 I I #
point $-1 -61.094393749809257 38.895353208270393 13.966099054146738 #
point $-1 -48.643926952904252 33.687076254068444 1.6023401197695653 #
straight-curve $-1 61.094393749809257 23.75520188293881 87.290148511093633 0 0 -1 I I #
point $-1 61.094393749809257 23.75520188293881 13.966099054146738 #
straight-curve $-1 61.094393749809257 13.926921608425282 2.725878987884883 0 1 0 I I #
point $-1 61.094393749809257 23.75520188293881 2.7258789878848972 #
point $-1 48.978484242042207 27.853843216850564 2.2201071877994369 #
straight-curve $-1 0 -38.895353208270393 -13.966099054146738 -1 0 0 I I #
point $-1 -61.094393749809257 -38.895353208270393 -13.966099054146738 #
straight-curve $-1 -61.094393749809257 38.895353208270393 0 0 0 -1 I I #
End-of-ACIS-data 