500 0 5 0           
7 Unknown 11 ACIS 5.0 NT 24 Fri Mar 26 17:03:35 1999 
-1 9.9999999999999995e-007 1e-010 
body $-1 $5 $-1 $6 #
body $-1 $7 $-1 $8 #
body $-1 $9 $-1 $10 #
body $-1 $11 $-1 $12 #
body $-1 $13 $-1 $14 #
lump $-1 $-1 $15 $0 #
transform $-1 1 0 0 0 1 0 0 0 1 76.661275063325917 35.628881483104081 11.182425701118168 1 rotate no_reflect no_shear #
lump $-1 $-1 $16 $1 #
transform $-1 1 0 0 0 1 0 0 0 1 76.661275063325917 35.628881483104081 11.182425701118168 1 rotate no_reflect no_shear #
lump $-1 $-1 $17 $2 #
transform $-1 1 0 0 0 1 0 0 0 1 76.661275063325917 35.628881483104081 11.182425701118168 1 rotate no_reflect no_shear #
lump $-1 $-1 $18 $3 #
transform $-1 1 0 0 0 1 0 0 0 1 76.661275063325917 35.628881483104081 11.182425701118168 1 rotate no_reflect no_shear #
lump $-1 $-1 $19 $4 #
transform $-1 1 0 0 0 1 0 0 0 1 76.661275063325917 35.628881483104081 11.182425701118168 1 rotate no_reflect no_shear #
shell $-1 $-1 $-1 $20 $-1 $5 #
shell $-1 $-1 $-1 $21 $-1 $7 #
shell $-1 $-1 $-1 $22 $-1 $9 #
shell $-1 $-1 $-1 $23 $-1 $11 #
shell $-1 $-1 $-1 $24 $-1 $13 #
face $-1 $25 $26 $15 $-1 $27 forward single #
face $-1 $28 $29 $16 $-1 $30 reversed single #
face $-1 $31 $32 $17 $-1 $33 forward single #
face $-1 $34 $35 $18 $-1 $36 reversed single #
face $-1 $37 $38 $19 $-1 $39 reversed single #
face $-1 $40 $41 $15 $-1 $42 reversed single #
loop $-1 $-1 $43 $20 #
plane-surface $-1 0 0 11.182425701118168 0 0 1 1 0 0 forward_v I I I I #
face $-1 $44 $45 $16 $-1 $46 reversed single #
loop $-1 $-1 $47 $21 #
plane-surface $-1 -83.299626678496523 0 8.1824257011181682 0 0 1 1 0 0 forward_v I I I I #
face $-1 $48 $49 $17 $-1 $50 forward single #
loop $-1 $-1 $51 $22 #
plane-surface $-1 121.74294262689511 26.635924325165895 216.62364186963183 0 1 0 0.83867057594974714 0 0.54463902268945019 forward_v I I I I #
face $-1 $52 $53 $18 $-1 $54 reversed single #
loop $-1 $55 $56 $23 #
cone-surface $-1 73.744332708911969 29.205340656005376 7.3650069631457331 -0.83867057594974714 0 -0.54463902268945019 0.54463902268945019 0 -0.83867057594974714 1 I I 0 1 1 forward I I I I #
face $-1 $57 $58 $19 $-1 $59 reversed single #
loop $-1 $60 $61 $24 #
cone-surface $-1 73.744332708911969 33.059465152264593 7.3650069631457331 -0.83867057594974714 0 -0.54463902268945019 0.54463902268945019 0 -0.83867057594974714 1 I I 0 1 1 forward I I I I #
face $-1 $62 $63 $15 $-1 $64 reversed single #
loop $-1 $-1 $65 $25 #
plane-surface $-1 0 0 -11.182425701118168 0 0 1 1 0 0 forward_v I I I I #
coedge $-1 $66 $67 $68 $69 forward $26 $-1 #
face $-1 $70 $71 $16 $-1 $72 forward single #
loop $-1 $-1 $73 $28 #
plane-surface $-1 -89.937978293667129 0 9.6824257011181682 1 0 0 0 0 -1 forward_v I I I I #
coedge $-1 $74 $75 $76 $77 reversed $29 $-1 #
face $-1 $78 $79 $17 $-1 $80 reversed single #
loop $-1 $-1 $81 $31 #
plane-surface $-1 -6.8441687939079543 31.132402904134992 133.11819801239795 0.83867057594974714 0 0.54463902268945019 0.54463902268945019 0 -0.83867057594974714 forward_v I I I I #
coedge $-1 $82 $83 $84 $85 reversed $32 $-1 #
face $-1 $86 $87 $18 $-1 $88 forward single #
loop $-1 $89 $90 $34 #
cone-surface $-1 72.567770058362754 29.205340656005376 6.6009382685902356 -0.83867057594974714 0 -0.54463902268945019 0.2723195113447251 0 -0.41933528797487357 1 I I -0.70710678118654746 0.70710678118654746 0.5 forward I I I I #
loop $-1 $-1 $91 $23 #
coedge $-1 $56 $56 $92 $93 reversed $35 $-1 #
face $-1 $94 $95 $19 $-1 $96 reversed single #
loop $-1 $97 $98 $37 #
cone-surface $-1 72.567770058362754 33.059465152264593 6.6009382685902356 -0.83867057594974714 0 -0.54463902268945019 0.2723195113447251 0 -0.41933528797487357 1 I I -0.70710678118654746 0.70710678118654746 0.5 forward I I I I #
loop $-1 $-1 $99 $24 #
coedge $-1 $61 $61 $100 $101 reversed $38 $-1 #
face $-1 $102 $103 $15 $-1 $104 reversed single #
loop $-1 $-1 $105 $40 #
plane-surface $-1 0 -35.628881483104081 0 0 1 0 0 0 1 forward_v I I I I #
coedge $-1 $106 $107 $108 $109 forward $41 $-1 #
coedge $-1 $110 $43 $111 $112 forward $26 $-1 #
coedge $-1 $43 $110 $113 $114 forward $26 $-1 #
coedge $-1 $115 $116 $43 $69 reversed $117 $-1 #
edge $-1 $118 -35.628881483104081 $119 35.628881483104081 $68 $120 forward 7 unknown #
face $-1 $121 $122 $16 $-1 $123 reversed single #
loop $-1 $-1 $124 $44 #
plane-surface $-1 0 0 11.182425701118168 0 0 1 1 0 0 forward_v I I I I #
coedge $-1 $125 $126 $127 $128 forward $45 $-1 #
coedge $-1 $129 $47 $130 $131 forward $29 $-1 #
coedge $-1 $47 $129 $132 $133 forward $29 $-1 #
coedge $-1 $134 $135 $47 $77 forward $136 $-1 #
edge $-1 $137 -35.628881483104081 $138 35.628881483104081 $76 $139 forward 7 unknown #
face $-1 $140 $141 $17 $-1 $142 forward single #
loop $-1 $-1 $143 $48 #
plane-surface $-1 76.661275063325917 0 0 -1 0 0 0 0 1 forward_v I I I I #
coedge $-1 $144 $145 $143 $146 reversed $49 $-1 #
coedge $-1 $83 $51 $145 $147 forward $32 $-1 #
coedge $-1 $51 $82 $148 $149 reversed $32 $-1 #
coedge $-1 $150 $143 $51 $85 forward $79 $-1 #
edge $-1 $151 -103.780734343221 $152 -97.12939523369775 $84 $153 forward 7 unknown #
face $-1 $154 $155 $18 $-1 $156 forward single #
loop $-1 $-1 $157 $52 #
plane-surface $-1 121.74294262689511 26.635924325165895 216.62364186963183 0 1 0 0.83867057594974714 0 0.54463902268945019 forward_v I I I I #
loop $-1 $-1 $158 $34 #
coedge $-1 $90 $90 $91 $159 forward $53 $-1 #
coedge $-1 $91 $91 $90 $159 reversed $55 $-1 #
coedge $-1 $92 $92 $56 $93 forward $155 $-1 #
edge $-1 $160 0 $160 6.2831853071796004 $92 $161 forward 7 unknown #
face $-1 $162 $163 $19 $-1 $164 reversed single #
loop $-1 $165 $166 $57 #
cone-surface $-1 73.744332708911969 29.205340656005376 7.3650069631457331 -0.83867057594974714 0 -0.54463902268945019 0.54463902268945019 0 -0.83867057594974714 1 I I 0 1 1 forward I I I I #
loop $-1 $-1 $167 $37 #
coedge $-1 $98 $98 $99 $168 forward $58 $-1 #
coedge $-1 $99 $99 $98 $168 reversed $60 $-1 #
coedge $-1 $100 $100 $61 $101 forward $169 $-1 #
edge $-1 $170 0 $170 6.2831853071796004 $100 $171 forward 7 unknown #
face $-1 $172 $173 $15 $-1 $174 reversed single #
loop $-1 $-1 $175 $62 #
plane-surface $-1 -76.661275063325917 0 0 1 0 0 0 0 -1 forward_v I I I I #
coedge $-1 $176 $113 $177 $178 forward $63 $-1 #
coedge $-1 $179 $65 $176 $180 forward $41 $-1 #
coedge $-1 $65 $179 $181 $182 forward $41 $-1 #
coedge $-1 $116 $115 $65 $109 reversed $117 $-1 #
edge $-1 $183 -35.628881483104081 $184 35.628881483104081 $108 $185 forward 7 unknown #
coedge $-1 $67 $66 $186 $187 forward $26 $-1 #
coedge $-1 $188 $189 $66 $112 reversed $173 $-1 #
edge $-1 $119 -76.661275063325917 $190 76.661275063325917 $111 $191 forward 7 unknown #
coedge $-1 $105 $192 $67 $114 reversed $63 $-1 #
edge $-1 $193 -76.661275063325917 $118 76.661275063325917 $113 $194 forward 7 unknown #
coedge $-1 $108 $68 $192 $195 forward $117 $-1 #
coedge $-1 $68 $108 $188 $196 reversed $117 $-1 #
loop $-1 $-1 $115 $172 #
vertex $-1 $69 $197 #
vertex $-1 $69 $198 #
straight-curve $-1 76.661275063325917 0 11.182425701118168 0 1 0 I I #
face $-1 $199 $200 $16 $-1 $201 reversed single #
loop $-1 $-1 $202 $70 #
plane-surface $-1 0 0 -11.182425701118168 0 0 1 1 0 0 forward_v I I I I #
coedge $-1 $203 $204 $205 $206 forward $71 $-1 #
coedge $-1 $207 $73 $129 $208 reversed $45 $-1 #
coedge $-1 $73 $207 $209 $210 reversed $45 $-1 #
coedge $-1 $211 $132 $73 $128 reversed $212 $-1 #
edge $-1 $213 -1.5 $214 1.5 $127 $215 forward 7 unknown #
coedge $-1 $75 $74 $125 $208 forward $29 $-1 #
coedge $-1 $216 $217 $74 $131 reversed $200 $-1 #
edge $-1 $137 -6.6383516151706061 $218 6.6383516151706061 $130 $219 forward 7 unknown #
coedge $-1 $127 $220 $75 $133 reversed $212 $-1 #
edge $-1 $214 -6.6383516151706061 $138 6.6383516151706061 $132 $221 forward 7 unknown #
coedge $-1 $222 $76 $220 $223 forward $136 $-1 #
coedge $-1 $76 $222 $216 $224 reversed $136 $-1 #
loop $-1 $-1 $76 $199 #
vertex $-1 $224 $225 #
vertex $-1 $223 $226 #
straight-curve $-1 -76.661275063325917 0 8.1824257011181682 0 1 0 I I #
face $-1 $227 $228 $17 $-1 $229 reversed single #
loop $-1 $-1 $148 $78 #
plane-surface $-1 0 0 11.182425701118168 0 0 1 1 0 0 forward_v I I I I #
coedge $-1 $84 $230 $81 $146 forward $79 $-1 #
coedge $-1 $231 $81 $232 $233 reversed $49 $-1 #
coedge $-1 $81 $231 $82 $147 reversed $49 $-1 #
edge $-1 $234 -20.062680031036585 $151 -11.069722873098399 $143 $235 forward 7 unknown #
edge $-1 $151 -153.32255012665181 $236 -145.39173759994429 $82 $237 forward 7 unknown #
coedge $-1 $238 $239 $83 $149 forward $141 $-1 #
edge $-1 $152 -15.789803749878359 $236 -11.470373766199131 $148 $240 forward 7 unknown #
coedge $-1 $241 $84 $239 $242 reversed $79 $-1 #
vertex $-1 $146 $243 #
vertex $-1 $149 $244 #
straight-curve $-1 76.661275063325917 26.635924325165895 108.31182093481591 0 0 1 I I #
face $-1 $245 $246 $18 $-1 $247 reversed single #
loop $-1 $248 $92 $86 #
plane-surface $-1 -6.8441687939079543 31.132402904134992 133.11819801239795 0.83867057594974714 0 0.54463902268945019 0.54463902268945019 0 -0.83867057594974714 forward_v I I I I #
coedge $-1 $249 $250 $251 $252 reversed $87 $-1 #
coedge $-1 $158 $158 $-1 $253 forward $89 $-1 #
edge $-1 $254 0 $254 6.2831853071796004 $90 $255 forward 7 unknown #
vertex $-1 $93 $256 #
ellipse-curve $-1 74.501560071486324 29.205340656005376 7.8567561463565152 -0.83867057594974714 0 -0.54463902268945019 0.54463902268945019 0 -0.83867057594974714 1 I I #
face $-1 $257 $258 $19 $-1 $259 forward single #
loop $-1 $260 $261 $94 #
cone-surface $-1 72.567770058362754 29.205340656005376 6.6009382685902356 -0.83867057594974714 0 -0.54463902268945019 0.2723195113447251 0 -0.41933528797487357 1 I I -0.70710678118654746 0.70710678118654746 0.5 forward I I I I #
loop $-1 $-1 $262 $57 #
coedge $-1 $166 $166 $263 $264 reversed $95 $-1 #
coedge $-1 $167 $167 $-1 $265 forward $97 $-1 #
edge $-1 $266 0 $266 6.2831853071796004 $98 $267 forward 7 unknown #
loop $-1 $268 $100 $257 #
vertex $-1 $101 $269 #
ellipse-curve $-1 74.501560071486324 33.059465152264593 7.8567561463565152 -0.83867057594974714 0 -0.54463902268945019 0.54463902268945019 0 -0.83867057594974714 1 I I #
face $-1 $-1 $117 $15 $-1 $270 reversed single #
loop $-1 $-1 $188 $102 #
plane-surface $-1 0 35.628881483104081 0 0 -1 0 0 0 -1 forward_v I I I I #
coedge $-1 $271 $186 $189 $272 forward $103 $-1 #
coedge $-1 $192 $105 $106 $180 reversed $63 $-1 #
coedge $-1 $186 $271 $105 $178 reversed $103 $-1 #
edge $-1 $193 -11.182425701118168 $273 11.182425701118168 $177 $274 forward 7 unknown #
coedge $-1 $107 $106 $271 $275 forward $41 $-1 #
edge $-1 $184 -76.661275063325917 $273 76.661275063325917 $176 $276 forward 7 unknown #
coedge $-1 $189 $188 $107 $182 reversed $173 $-1 #
edge $-1 $277 -76.661275063325917 $183 76.661275063325917 $181 $278 forward 7 unknown #
vertex $-1 $109 $279 #
vertex $-1 $195 $280 #
straight-curve $-1 76.661275063325917 0 -11.182425701118168 0 -1 0 I I #
coedge $-1 $175 $177 $110 $187 reversed $103 $-1 #
edge $-1 $190 -35.628881483104081 $193 35.628881483104081 $186 $281 forward 7 unknown #
coedge $-1 $181 $111 $116 $196 forward $173 $-1 #
coedge $-1 $111 $181 $175 $272 reversed $173 $-1 #
vertex $-1 $112 $282 #
straight-curve $-1 0 35.628881483104081 11.182425701118168 -1 0 0 I I #
coedge $-1 $113 $176 $115 $195 reversed $63 $-1 #
vertex $-1 $187 $283 #
straight-curve $-1 0 -35.628881483104081 11.182425701118168 1 0 0 I I #
edge $-1 $118 -11.182425701118168 $184 11.182425701118168 $115 $284 forward 7 unknown #
edge $-1 $119 -11.182425701118168 $183 11.182425701118168 $116 $285 forward 7 unknown #
point $-1 76.661275063325917 -35.628881483104081 11.182425701118168 #
point $-1 76.661275063325917 35.628881483104081 11.182425701118168 #
face $-1 $286 $136 $16 $-1 $287 reversed single #
loop $-1 $-1 $216 $121 #
plane-surface $-1 0 -35.628881483104081 0 0 1 0 0 0 1 forward_v I I I I #
coedge $-1 $288 $289 $290 $291 forward $122 $-1 #
coedge $-1 $209 $124 $211 $292 forward $71 $-1 #
coedge $-1 $124 $209 $293 $294 forward $71 $-1 #
coedge $-1 $295 $296 $124 $206 reversed $297 $-1 #
edge $-1 $298 -35.628881483104081 $299 35.628881483104081 $205 $300 forward 7 unknown #
coedge $-1 $126 $125 $217 $301 reversed $45 $-1 #
edge $-1 $218 -35.628881483104081 $214 35.628881483104081 $125 $302 forward 7 unknown #
coedge $-1 $204 $203 $126 $210 forward $71 $-1 #
edge $-1 $213 -35.628881483104081 $303 35.628881483104081 $126 $304 forward 7 unknown #
coedge $-1 $305 $127 $203 $292 reversed $212 $-1 #
loop $-1 $-1 $305 $286 #
vertex $-1 $292 $306 #
vertex $-1 $133 $307 #
straight-curve $-1 -89.937978293667129 35.628881483104081 9.6824257011181682 0 0 -1 I I #
coedge $-1 $308 $130 $135 $224 forward $200 $-1 #
coedge $-1 $130 $293 $207 $301 forward $200 $-1 #
vertex $-1 $208 $309 #
straight-curve $-1 -83.299626678496523 -35.628881483104081 8.1824257011181682 -1 0 0 I I #
coedge $-1 $132 $310 $134 $223 reversed $212 $-1 #
straight-curve $-1 -83.299626678496523 35.628881483104081 8.1824257011181682 1 0 0 I I #
coedge $-1 $135 $134 $311 $312 reversed $136 $-1 #
edge $-1 $138 -8.1824257011181682 $313 11.182425701118168 $220 $314 forward 7 unknown #
edge $-1 $137 -8.1824257011181682 $315 11.182425701118168 $135 $316 forward 7 unknown #
point $-1 -76.661275063325917 -35.628881483104081 8.1824257011181682 #
point $-1 -76.661275063325917 35.628881483104081 8.1824257011181682 #
face $-1 $317 $318 $17 $-1 $319 reversed single #
loop $-1 $-1 $320 $140 #
plane-surface $-1 -83.299626678496523 0 8.1824257011181682 0 0 1 1 0 0 forward_v I I I I #
coedge $-1 $143 $321 $322 $323 reversed $79 $-1 #
coedge $-1 $145 $144 $238 $324 reversed $49 $-1 #
coedge $-1 $322 $325 $144 $233 forward $326 $-1 #
edge $-1 $327 87.706779000201323 $234 95.637591526908849 $232 $328 forward 7 unknown #
vertex $-1 $323 $329 #
straight-curve $-1 76.661275063325917 15.566201452067496 4.5310865915949137 0 -1 0 I I #
vertex $-1 $324 $330 #
straight-curve $-1 -6.8441687939079543 26.635924325165895 133.11819801239795 -0.54463902268945019 0 0.83867057594974714 I I #
coedge $-1 $331 $148 $231 $324 forward $141 $-1 #
coedge $-1 $148 $332 $150 $242 forward $141 $-1 #
straight-curve $-1 60.871471313447557 26.635924325165895 11.182425701118163 -1 0 0 I I #
coedge $-1 $321 $150 $333 $334 forward $79 $-1 #
edge $-1 $335 -35.628881483104081 $152 26.635924325165895 $150 $336 forward 7 unknown #
point $-1 76.661275063325917 26.635924325165895 4.5310865915949137 #
point $-1 76.661275063325917 26.635924325165895 11.182425701118168 #
face $-1 $337 $338 $18 $-1 $339 forward single #
loop $-1 $-1 $340 $154 #
plane-surface $-1 76.661275063325917 0 0 -1 0 0 0 0 1 forward_v I I I I #
loop $-1 $-1 $341 $86 #
coedge $-1 $250 $157 $342 $343 forward $87 $-1 #
coedge $-1 $157 $249 $344 $345 reversed $87 $-1 #
coedge $-1 $346 $340 $157 $252 forward $246 $-1 #
edge $-1 $347 -103.780734343221 $348 -97.12939523369775 $251 $349 forward 7 unknown #
edge $-1 $350 1 $350 0 $158 $-1 forward 7 unknown #
vertex $-1 $159 $351 #
ellipse-curve $-1 72.987105346337628 29.205340656005376 6.8732577799349608 0.83867057594974714 0 0.54463902268945019 0.54463902268945019 0 -0.83867057594974714 1 I I #
point $-1 75.046199094175748 29.205340656005376 7.0180855704067584 #
face $-1 $352 $169 $19 $-1 $353 forward single #
loop $-1 $-1 $354 $162 #
plane-surface $-1 121.74294262689511 26.635924325165895 216.62364186963183 0 1 0 0.83867057594974714 0 0.54463902268945019 forward_v I I I I #
loop $-1 $-1 $355 $94 #
coedge $-1 $261 $261 $262 $356 forward $163 $-1 #
coedge $-1 $262 $262 $261 $356 reversed $165 $-1 #
coedge $-1 $263 $263 $166 $264 forward $268 $-1 #
edge $-1 $357 0 $357 6.2831853071796004 $263 $358 forward 7 unknown #
edge $-1 $359 1 $359 0 $167 $-1 forward 7 unknown #
vertex $-1 $168 $360 #
ellipse-curve $-1 72.987105346337628 33.059465152264593 6.8732577799349608 0.83867057594974714 0 0.54463902268945019 0.54463902268945019 0 -0.83867057594974714 1 I I #
loop $-1 $361 $263 $257 #
point $-1 75.046199094175748 33.059465152264593 7.0180855704067584 #
plane-surface $-1 76.661275063325917 0 0 -1 0 0 0 0 1 forward_v I I I I #
coedge $-1 $177 $175 $179 $275 reversed $103 $-1 #
edge $-1 $190 -11.182425701118168 $277 11.182425701118168 $189 $362 forward 7 unknown #
vertex $-1 $275 $363 #
straight-curve $-1 -76.661275063325917 -35.628881483104081 0 0 0 -1 I I #
edge $-1 $273 -35.628881483104081 $277 35.628881483104081 $271 $364 forward 7 unknown #
straight-curve $-1 0 -35.628881483104081 -11.182425701118168 -1 0 0 I I #
vertex $-1 $182 $365 #
straight-curve $-1 0 35.628881483104081 -11.182425701118168 1 0 0 I I #
point $-1 76.661275063325917 35.628881483104081 -11.182425701118168 #
point $-1 76.661275063325917 -35.628881483104081 -11.182425701118168 #
straight-curve $-1 -76.661275063325917 0 11.182425701118168 0 -1 0 I I #
point $-1 -76.661275063325917 35.628881483104081 11.182425701118168 #
point $-1 -76.661275063325917 -35.628881483104081 11.182425701118168 #
straight-curve $-1 76.661275063325917 -35.628881483104081 0 0 0 -1 I I #
straight-curve $-1 76.661275063325917 35.628881483104081 0 0 0 -1 I I #
face $-1 $366 $212 $16 $-1 $367 reversed single #
plane-surface $-1 -76.661275063325917 0 0 1 0 0 0 0 -1 forward_v I I I I #
coedge $-1 $311 $202 $308 $368 forward $122 $-1 #
coedge $-1 $202 $311 $310 $369 forward $122 $-1 #
coedge $-1 $296 $295 $202 $291 reversed $297 $-1 #
edge $-1 $370 -35.628881483104081 $371 35.628881483104081 $290 $372 forward 7 unknown #
edge $-1 $299 -76.661275063325917 $213 89.937978293667129 $211 $373 forward 7 unknown #
coedge $-1 $217 $374 $204 $294 reversed $200 $-1 #
edge $-1 $303 -89.937978293667129 $298 76.661275063325917 $293 $375 forward 7 unknown #
coedge $-1 $290 $205 $374 $376 forward $297 $-1 #
coedge $-1 $205 $290 $305 $377 reversed $297 $-1 #
loop $-1 $-1 $295 $366 #
vertex $-1 $206 $378 #
vertex $-1 $206 $379 #
straight-curve $-1 76.661275063325917 0 11.182425701118168 0 1 0 I I #
edge $-1 $303 -1.5 $218 1.5 $207 $380 forward 7 unknown #
straight-curve $-1 -89.937978293667129 0 8.1824257011181682 0 1 0 I I #
vertex $-1 $210 $381 #
straight-curve $-1 -89.937978293667129 0 11.182425701118168 0 -1 0 I I #
coedge $-1 $310 $211 $296 $377 forward $212 $-1 #
point $-1 -89.937978293667129 35.628881483104081 11.182425701118168 #
point $-1 -89.937978293667129 35.628881483104081 8.1824257011181682 #
coedge $-1 $374 $216 $288 $368 reversed $200 $-1 #
point $-1 -89.937978293667129 -35.628881483104081 8.1824257011181682 #
coedge $-1 $220 $305 $289 $369 reversed $212 $-1 #
coedge $-1 $289 $288 $222 $312 forward $122 $-1 #
edge $-1 $315 -35.628881483104081 $313 35.628881483104081 $222 $382 forward 7 unknown #
vertex $-1 $369 $383 #
straight-curve $-1 -76.661275063325917 35.628881483104081 0 0 0 -1 I I #
vertex $-1 $312 $384 #
straight-curve $-1 -76.661275063325917 -35.628881483104081 0 0 0 -1 I I #
face $-1 $385 $386 $17 $-1 $387 reversed single #
loop $-1 $-1 $388 $227 #
plane-surface $-1 -89.937978293667129 0 9.6824257011181682 1 0 0 0 0 -1 forward_v I I I I #
coedge $-1 $389 $390 $391 $392 reversed $228 $-1 #
coedge $-1 $230 $241 $393 $394 reversed $79 $-1 #
coedge $-1 $395 $232 $230 $323 forward $326 $-1 #
edge $-1 $234 -4.5310865915949003 $396 11.182425701118168 $230 $397 forward 7 unknown #
edge $-1 $236 11.069722873098399 $327 20.062680031036592 $238 $398 forward 7 unknown #
coedge $-1 $232 $399 $331 $400 reversed $326 $-1 #
loop $-1 $-1 $232 $401 #
vertex $-1 $400 $402 #
straight-curve $-1 24.573310681737446 35.628881483104081 84.739520559914197 0.54463902268945019 0 -0.83867057594974714 I I #
point $-1 76.661275063325917 35.628881483104081 4.5310865915949003 #
point $-1 72.341845079646689 26.635924325165895 11.182425701118163 #
coedge $-1 $403 $238 $325 $400 forward $141 $-1 #
coedge $-1 $239 $403 $404 $405 forward $141 $-1 #
coedge $-1 $404 $406 $241 $334 reversed $407 $-1 #
edge $-1 $335 -11.182425701118168 $408 11.182425701118168 $241 $409 forward 7 unknown #
vertex $-1 $242 $410 #
straight-curve $-1 76.661275063325917 0 11.182425701118168 0 1 0 I I #
face $-1 $411 $412 $18 $-1 $413 reversed single #
loop $-1 $-1 $344 $245 #
plane-surface $-1 0 0 11.182425701118168 0 0 1 1 0 0 forward_v I I I I #
coedge $-1 $251 $414 $341 $415 forward $246 $-1 #
coedge $-1 $416 $342 $340 $415 reversed $248 $-1 #
coedge $-1 $341 $417 $249 $343 reversed $248 $-1 #
edge $-1 $347 -153.32255012665181 $418 -145.39173759994429 $249 $419 forward 7 unknown #
coedge $-1 $420 $421 $250 $345 forward $338 $-1 #
edge $-1 $348 -15.789803749878359 $418 -11.470373766199131 $344 $422 forward 7 unknown #
coedge $-1 $423 $251 $421 $424 reversed $246 $-1 #
vertex $-1 $415 $425 #
vertex $-1 $345 $426 #
straight-curve $-1 76.661275063325917 26.635924325165895 108.31182093481591 0 0 1 I I #
vertex $-1 $253 $427 #
point $-1 73.531744369027081 29.205340656005376 6.0345872039852138 #
face $-1 $428 $429 $19 $-1 $430 reversed single #
plane-surface $-1 -6.8441687939079543 31.132402904134992 133.11819801239795 0.83867057594974714 0 0.54463902268945019 0.54463902268945019 0 -0.83867057594974714 forward_v I I I I #
coedge $-1 $431 $432 $433 $434 reversed $258 $-1 #
coedge $-1 $355 $355 $-1 $435 forward $260 $-1 #
edge $-1 $436 0 $436 6.2831853071796004 $261 $437 forward 7 unknown #
vertex $-1 $264 $438 #
ellipse-curve $-1 74.501560071486324 29.205340656005376 7.8567561463565152 -0.83867057594974714 0 -0.54463902268945019 0.54463902268945019 0 -0.83867057594974714 1 I I #
vertex $-1 $265 $439 #
point $-1 73.531744369027081 33.059465152264593 6.0345872039852138 #
loop $-1 $-1 $440 $257 #
straight-curve $-1 -76.661275063325917 35.628881483104081 0 0 0 -1 I I #
point $-1 -76.661275063325917 -35.628881483104081 -11.182425701118168 #
straight-curve $-1 -76.661275063325917 0 -11.182425701118168 0 1 0 I I #
point $-1 -76.661275063325917 35.628881483104081 -11.182425701118168 #
face $-1 $-1 $297 $16 $-1 $441 reversed single #
plane-surface $-1 0 35.628881483104081 0 0 -1 0 0 0 -1 forward_v I I I I #
edge $-1 $371 -76.661275063325917 $315 76.661275063325917 $308 $442 forward 7 unknown #
edge $-1 $313 -76.661275063325917 $370 76.661275063325917 $310 $443 forward 7 unknown #
vertex $-1 $291 $444 #
vertex $-1 $376 $445 #
straight-curve $-1 76.661275063325917 0 -11.182425701118168 0 -1 0 I I #
straight-curve $-1 0 35.628881483104081 11.182425701118168 -1 0 0 I I #
coedge $-1 $293 $308 $295 $376 reversed $200 $-1 #
straight-curve $-1 0 -35.628881483104081 11.182425701118168 1 0 0 I I #
edge $-1 $298 -11.182425701118168 $371 11.182425701118168 $295 $446 forward 7 unknown #
edge $-1 $299 -11.182425701118168 $370 11.182425701118168 $296 $447 forward 7 unknown #
point $-1 76.661275063325917 -35.628881483104081 11.182425701118168 #
point $-1 76.661275063325917 35.628881483104081 11.182425701118168 #
straight-curve $-1 -89.937978293667129 -35.628881483104081 9.6824257011181682 0 0 -1 I I #
point $-1 -89.937978293667129 -35.628881483104081 11.182425701118168 #
straight-curve $-1 -76.661275063325917 0 -11.182425701118168 0 1 0 I I #
point $-1 -76.661275063325917 35.628881483104081 -11.182425701118168 #
point $-1 -76.661275063325917 -35.628881483104081 -11.182425701118168 #
face $-1 $448 $407 $17 $-1 $449 reversed single #
loop $-1 $-1 $393 $317 #
plane-surface $-1 0 0 -11.182425701118168 0 0 1 1 0 0 forward_v I I I I #
coedge $-1 $450 $451 $399 $452 forward $318 $-1 #
coedge $-1 $453 $320 $454 $455 forward $228 $-1 #
coedge $-1 $320 $453 $456 $457 forward $228 $-1 #
coedge $-1 $458 $459 $320 $392 forward $460 $-1 #
edge $-1 $461 -35.628881483104081 $462 35.628881483104081 $391 $463 forward 7 unknown #
coedge $-1 $464 $465 $321 $394 forward $386 $-1 #
edge $-1 $396 -35.628881483104081 $408 35.628881483104081 $321 $466 forward 7 unknown #
coedge $-1 $467 $322 $465 $468 reversed $326 $-1 #
vertex $-1 $394 $469 #
straight-curve $-1 76.661275063325917 35.628881483104081 0 0 0 -1 I I #
straight-curve $-1 72.341845079646703 15.566201452067496 11.182425701118163 0 1 0 I I #
coedge $-1 $325 $456 $388 $452 reversed $326 $-1 #
edge $-1 $327 -72.341845079646689 $470 89.937978293667129 $325 $471 forward 7 unknown #
face $-1 $-1 $326 $17 $-1 $472 reversed single #
point $-1 72.341845079646689 35.628881483104088 11.182425701118163 #
coedge $-1 $332 $331 $451 $473 forward $141 $-1 #
coedge $-1 $474 $333 $332 $405 reversed $407 $-1 #
edge $-1 $475 -89.937978293667129 $335 76.661275063325917 $404 $476 forward 7 unknown #
coedge $-1 $333 $477 $464 $478 reversed $407 $-1 #
loop $-1 $-1 $477 $385 #
vertex $-1 $334 $479 #
straight-curve $-1 76.661275063325917 -35.628881483104081 0 0 0 -1 I I #
point $-1 76.661275063325917 -35.628881483104081 11.182425701118168 #
face $-1 $480 $481 $18 $-1 $482 reversed single #
loop $-1 $-1 $483 $337 #
plane-surface $-1 -83.299626678496523 0 8.1824257011181682 0 0 1 1 0 0 forward_v I I I I #
coedge $-1 $340 $484 $485 $486 reversed $246 $-1 #
edge $-1 $487 -20.062680031036585 $347 -11.069722873098399 $340 $488 forward 7 unknown #
coedge $-1 $417 $341 $489 $490 reversed $248 $-1 #
coedge $-1 $342 $416 $420 $491 reversed $248 $-1 #
vertex $-1 $491 $492 #
straight-curve $-1 -6.8441687939079543 26.635924325165895 133.11819801239795 -0.54463902268945019 0 0.83867057594974714 I I #
coedge $-1 $493 $344 $417 $491 forward $338 $-1 #
coedge $-1 $344 $494 $346 $424 forward $338 $-1 #
straight-curve $-1 60.871471313447557 26.635924325165895 11.182425701118163 -1 0 0 I I #
coedge $-1 $484 $346 $495 $496 forward $246 $-1 #
edge $-1 $497 -35.628881483104081 $348 26.635924325165895 $346 $498 forward 7 unknown #
point $-1 76.661275063325917 26.635924325165895 4.5310865915949137 #
point $-1 76.661275063325917 26.635924325165895 11.182425701118168 #
point $-1 72.14843477038788 29.205340656005376 6.3286187572455104 #
face $-1 $499 $500 $19 $-1 $501 forward single #
loop $-1 $-1 $502 $352 #
plane-surface $-1 76.661275063325917 0 0 -1 0 0 0 0 1 forward_v I I I I #
coedge $-1 $432 $354 $503 $504 forward $258 $-1 #
coedge $-1 $354 $431 $505 $506 reversed $258 $-1 #
coedge $-1 $507 $502 $354 $434 forward $429 $-1 #
edge $-1 $508 -103.780734343221 $509 -97.12939523369775 $433 $510 forward 7 unknown #
edge $-1 $511 1 $511 0 $355 $-1 forward 7 unknown #
vertex $-1 $356 $512 #
ellipse-curve $-1 72.987105346337628 29.205340656005376 6.8732577799349608 0.83867057594974714 0 0.54463902268945019 0.54463902268945019 0 -0.83867057594974714 1 I I #
point $-1 75.046199094175748 29.205340656005376 7.0180855704067584 #
point $-1 72.14843477038788 33.059465152264593 6.3286187572455104 #
coedge $-1 $513 $503 $502 $514 reversed $361 $-1 #
plane-surface $-1 76.661275063325917 0 0 -1 0 0 0 0 1 forward_v I I I I #
straight-curve $-1 0 -35.628881483104081 -11.182425701118168 -1 0 0 I I #
straight-curve $-1 0 35.628881483104081 -11.182425701118168 1 0 0 I I #
point $-1 76.661275063325917 35.628881483104081 -11.182425701118168 #
point $-1 76.661275063325917 -35.628881483104081 -11.182425701118168 #
straight-curve $-1 76.661275063325917 -35.628881483104081 0 0 0 -1 I I #
straight-curve $-1 76.661275063325917 35.628881483104081 0 0 0 -1 I I #
face $-1 $401 $460 $17 $-1 $515 reversed single #
plane-surface $-1 0 -35.628881483104081 0 0 1 0 0 0 1 forward_v I I I I #
coedge $-1 $516 $388 $453 $517 reversed $318 $-1 #
coedge $-1 $388 $516 $403 $473 reversed $318 $-1 #
edge $-1 $470 -1.5 $518 1.5 $399 $519 forward 7 unknown #
coedge $-1 $390 $389 $450 $517 forward $228 $-1 #
coedge $-1 $477 $474 $389 $455 reversed $407 $-1 #
edge $-1 $461 -6.6383516151706061 $520 6.6383516151706061 $454 $521 forward 7 unknown #
coedge $-1 $399 $467 $390 $457 reversed $326 $-1 #
edge $-1 $518 -6.6383516151706061 $462 6.6383516151706061 $456 $522 forward 7 unknown #
coedge $-1 $523 $391 $467 $524 forward $460 $-1 #
coedge $-1 $391 $523 $477 $525 reversed $460 $-1 #
loop $-1 $-1 $391 $448 #
vertex $-1 $525 $526 #
vertex $-1 $524 $527 #
straight-curve $-1 -76.661275063325917 0 8.1824257011181682 0 1 0 I I #
coedge $-1 $528 $393 $406 $478 forward $386 $-1 #
coedge $-1 $393 $528 $395 $468 forward $386 $-1 #
straight-curve $-1 76.661275063325917 0 -11.182425701118168 0 -1 0 I I #
coedge $-1 $456 $395 $458 $524 reversed $326 $-1 #
edge $-1 $529 -76.661275063325917 $396 76.661275063325917 $395 $530 forward 7 unknown #
point $-1 76.661275063325917 35.628881483104081 -11.182425701118168 #
vertex $-1 $400 $531 #
straight-curve $-1 0 35.628881483104081 11.182425701118168 -1 0 0 I I #
plane-surface $-1 0 35.628881483104081 0 0 -1 0 0 0 -1 forward_v I I I I #
edge $-1 $470 -35.628881483104081 $475 35.628881483104081 $451 $532 forward 7 unknown #
coedge $-1 $454 $404 $516 $533 forward $407 $-1 #
vertex $-1 $473 $534 #
straight-curve $-1 0 -35.628881483104081 11.182425701118168 1 0 0 I I #
coedge $-1 $406 $454 $459 $525 forward $407 $-1 #
edge $-1 $408 -76.661275063325917 $535 76.661275063325917 $406 $536 forward 7 unknown #
point $-1 76.661275063325917 -35.628881483104081 -11.182425701118168 #
face $-1 $537 $538 $18 $-1 $539 reversed single #
loop $-1 $-1 $540 $411 #
plane-surface $-1 -89.937978293667129 0 9.6824257011181682 1 0 0 0 0 -1 forward_v I I I I #
coedge $-1 $541 $542 $543 $544 reversed $412 $-1 #
coedge $-1 $414 $423 $545 $546 reversed $246 $-1 #
coedge $-1 $547 $489 $414 $486 forward $548 $-1 #
edge $-1 $487 -4.5310865915949003 $549 11.182425701118168 $414 $550 forward 7 unknown #
vertex $-1 $486 $551 #
straight-curve $-1 76.661275063325917 15.566201452067496 4.5310865915949137 0 -1 0 I I #
coedge $-1 $485 $552 $416 $490 forward $548 $-1 #
edge $-1 $553 87.706779000201323 $487 95.637591526908849 $489 $554 forward 7 unknown #
edge $-1 $418 11.069722873098399 $553 20.062680031036592 $420 $555 forward 7 unknown #
point $-1 72.341845079646689 26.635924325165895 11.182425701118163 #
coedge $-1 $556 $420 $552 $557 forward $338 $-1 #
coedge $-1 $421 $556 $558 $559 forward $338 $-1 #
coedge $-1 $558 $560 $423 $496 reversed $561 $-1 #
edge $-1 $497 -11.182425701118168 $562 11.182425701118168 $423 $563 forward 7 unknown #
vertex $-1 $424 $564 #
straight-curve $-1 76.661275063325917 0 11.182425701118168 0 1 0 I I #
face $-1 $565 $566 $19 $-1 $567 reversed single #
loop $-1 $-1 $505 $428 #
plane-surface $-1 0 0 11.182425701118168 0 0 1 1 0 0 forward_v I I I I #
coedge $-1 $433 $568 $440 $514 forward $429 $-1 #
coedge $-1 $440 $569 $431 $504 reversed $361 $-1 #
edge $-1 $508 -153.32255012665181 $570 -145.39173759994429 $431 $571 forward 7 unknown #
coedge $-1 $572 $573 $432 $506 forward $500 $-1 #
edge $-1 $509 -15.789803749878359 $570 -11.470373766199131 $505 $574 forward 7 unknown #
coedge $-1 $575 $433 $573 $576 reversed $429 $-1 #
vertex $-1 $514 $577 #
vertex $-1 $506 $578 #
straight-curve $-1 76.661275063325917 26.635924325165895 108.31182093481591 0 0 1 I I #
vertex $-1 $435 $579 #
point $-1 73.531744369027081 29.205340656005376 6.0345872039852138 #
coedge $-1 $569 $440 $580 $581 reversed $361 $-1 #
edge $-1 $582 -20.062680031036585 $508 -11.069722873098399 $502 $583 forward 7 unknown #
plane-surface $-1 -76.661275063325917 0 0 1 0 0 0 0 -1 forward_v I I I I #
coedge $-1 $451 $450 $474 $533 reversed $318 $-1 #
edge $-1 $520 -35.628881483104081 $518 35.628881483104081 $450 $584 forward 7 unknown #
vertex $-1 $457 $585 #
straight-curve $-1 -89.937978293667129 35.628881483104081 9.6824257011181682 0 0 -1 I I #
vertex $-1 $517 $586 #
straight-curve $-1 -83.299626678496523 -35.628881483104081 8.1824257011181682 -1 0 0 I I #
straight-curve $-1 -83.299626678496523 35.628881483104081 8.1824257011181682 1 0 0 I I #
coedge $-1 $459 $458 $528 $587 reversed $460 $-1 #
edge $-1 $462 -8.1824257011181682 $529 11.182425701118168 $467 $588 forward 7 unknown #
edge $-1 $461 -8.1824257011181682 $535 11.182425701118168 $459 $589 forward 7 unknown #
point $-1 -76.661275063325917 -35.628881483104081 8.1824257011181682 #
point $-1 -76.661275063325917 35.628881483104081 8.1824257011181682 #
coedge $-1 $465 $464 $523 $587 forward $386 $-1 #
vertex $-1 $468 $590 #
straight-curve $-1 0 35.628881483104081 -11.182425701118168 1 0 0 I I #
point $-1 -89.937978293667129 35.628881483104081 11.182425701118168 #
straight-curve $-1 -89.937978293667129 0 11.182425701118168 0 -1 0 I I #
edge $-1 $475 -1.5 $520 1.5 $516 $591 forward 7 unknown #
point $-1 -89.937978293667129 -35.628881483104081 11.182425701118168 #
vertex $-1 $587 $592 #
straight-curve $-1 0 -35.628881483104081 -11.182425701118168 -1 0 0 I I #
face $-1 $593 $561 $18 $-1 $594 reversed single #
loop $-1 $-1 $545 $480 #
plane-surface $-1 0 0 -11.182425701118168 0 0 1 1 0 0 forward_v I I I I #
coedge $-1 $595 $596 $597 $598 forward $481 $-1 #
coedge $-1 $599 $483 $600 $601 forward $412 $-1 #
coedge $-1 $483 $599 $602 $603 forward $412 $-1 #
coedge $-1 $604 $605 $483 $544 forward $606 $-1 #
edge $-1 $607 -35.628881483104081 $608 35.628881483104081 $543 $609 forward 7 unknown #
coedge $-1 $610 $611 $484 $546 forward $538 $-1 #
edge $-1 $549 -35.628881483104081 $562 35.628881483104081 $484 $612 forward 7 unknown #
coedge $-1 $613 $485 $611 $614 reversed $548 $-1 #
loop $-1 $-1 $489 $615 #
vertex $-1 $546 $616 #
straight-curve $-1 76.661275063325917 35.628881483104081 0 0 0 -1 I I #
point $-1 76.661275063325917 35.628881483104081 4.5310865915949003 #
coedge $-1 $489 $597 $493 $557 reversed $548 $-1 #
vertex $-1 $557 $617 #
straight-curve $-1 24.573310681737446 35.628881483104081 84.739520559914197 0.54463902268945019 0 -0.83867057594974714 I I #
straight-curve $-1 72.341845079646703 15.566201452067496 11.182425701118163 0 1 0 I I #
coedge $-1 $494 $493 $596 $618 forward $338 $-1 #
edge $-1 $553 -72.341845079646689 $619 89.937978293667129 $552 $620 forward 7 unknown #
coedge $-1 $621 $495 $494 $559 reversed $561 $-1 #
edge $-1 $622 -89.937978293667129 $497 76.661275063325917 $558 $623 forward 7 unknown #
coedge $-1 $495 $624 $610 $625 reversed $561 $-1 #
loop $-1 $-1 $624 $537 #
vertex $-1 $496 $626 #
straight-curve $-1 76.661275063325917 -35.628881483104081 0 0 0 -1 I I #
point $-1 76.661275063325917 -35.628881483104081 11.182425701118168 #
face $-1 $627 $628 $19 $-1 $629 reversed single #
loop $-1 $-1 $630 $499 #
plane-surface $-1 -83.299626678496523 0 8.1824257011181682 0 0 1 1 0 0 forward_v I I I I #
coedge $-1 $502 $631 $632 $633 reversed $429 $-1 #
coedge $-1 $503 $513 $572 $634 reversed $361 $-1 #
vertex $-1 $634 $635 #
straight-curve $-1 -6.8441687939079543 26.635924325165895 133.11819801239795 -0.54463902268945019 0 0.83867057594974714 I I #
coedge $-1 $636 $505 $569 $634 forward $500 $-1 #
coedge $-1 $505 $637 $507 $576 forward $500 $-1 #
straight-curve $-1 60.871471313447557 26.635924325165895 11.182425701118163 -1 0 0 I I #
coedge $-1 $631 $507 $638 $639 forward $429 $-1 #
edge $-1 $640 -35.628881483104081 $509 26.635924325165895 $507 $641 forward 7 unknown #
point $-1 76.661275063325917 26.635924325165895 4.5310865915949137 #
point $-1 76.661275063325917 26.635924325165895 11.182425701118168 #
point $-1 72.14843477038788 29.205340656005376 6.3286187572455104 #
coedge $-1 $632 $642 $513 $581 forward $643 $-1 #
edge $-1 $644 87.706779000201323 $582 95.637591526908849 $580 $645 forward 7 unknown #
vertex $-1 $633 $646 #
straight-curve $-1 76.661275063325917 15.566201452067496 4.5310865915949137 0 -1 0 I I #
straight-curve $-1 -89.937978293667129 0 8.1824257011181682 0 1 0 I I #
point $-1 -89.937978293667129 35.628881483104081 8.1824257011181682 #
point $-1 -89.937978293667129 -35.628881483104081 8.1824257011181682 #
edge $-1 $535 -35.628881483104081 $529 35.628881483104081 $523 $647 forward 7 unknown #
straight-curve $-1 -76.661275063325917 35.628881483104081 0 0 0 -1 I I #
straight-curve $-1 -76.661275063325917 -35.628881483104081 0 0 0 -1 I I #
point $-1 -76.661275063325917 35.628881483104081 -11.182425701118168 #
straight-curve $-1 -89.937978293667129 -35.628881483104081 9.6824257011181682 0 0 -1 I I #
point $-1 -76.661275063325917 -35.628881483104081 -11.182425701118168 #
face $-1 $615 $606 $18 $-1 $648 reversed single #
plane-surface $-1 0 -35.628881483104081 0 0 1 0 0 0 1 forward_v I I I I #
coedge $-1 $649 $540 $599 $650 reversed $481 $-1 #
coedge $-1 $540 $649 $556 $618 reversed $481 $-1 #
coedge $-1 $552 $602 $540 $598 reversed $548 $-1 #
edge $-1 $619 -1.5 $651 1.5 $597 $652 forward 7 unknown #
coedge $-1 $542 $541 $595 $650 forward $412 $-1 #
coedge $-1 $624 $621 $541 $601 reversed $561 $-1 #
edge $-1 $607 -6.6383516151706061 $653 6.6383516151706061 $600 $654 forward 7 unknown #
coedge $-1 $597 $613 $542 $603 reversed $548 $-1 #
edge $-1 $651 -6.6383516151706061 $608 6.6383516151706061 $602 $655 forward 7 unknown #
coedge $-1 $656 $543 $613 $657 forward $606 $-1 #
coedge $-1 $543 $656 $624 $658 reversed $606 $-1 #
loop $-1 $-1 $543 $593 #
vertex $-1 $658 $659 #
vertex $-1 $657 $660 #
straight-curve $-1 -76.661275063325917 0 8.1824257011181682 0 1 0 I I #
coedge $-1 $661 $545 $560 $625 forward $538 $-1 #
coedge $-1 $545 $661 $547 $614 forward $538 $-1 #
straight-curve $-1 76.661275063325917 0 -11.182425701118168 0 -1 0 I I #
coedge $-1 $602 $547 $604 $657 reversed $548 $-1 #
edge $-1 $662 -76.661275063325917 $549 76.661275063325917 $547 $663 forward 7 unknown #
face $-1 $-1 $548 $18 $-1 $664 reversed single #
point $-1 76.661275063325917 35.628881483104081 -11.182425701118168 #
point $-1 72.341845079646689 35.628881483104088 11.182425701118163 #
edge $-1 $619 -35.628881483104081 $622 35.628881483104081 $596 $665 forward 7 unknown #
vertex $-1 $557 $666 #
straight-curve $-1 0 35.628881483104081 11.182425701118168 -1 0 0 I I #
coedge $-1 $600 $558 $649 $667 forward $561 $-1 #
vertex $-1 $618 $668 #
straight-curve $-1 0 -35.628881483104081 11.182425701118168 1 0 0 I I #
coedge $-1 $560 $600 $605 $658 forward $561 $-1 #
edge $-1 $562 -76.661275063325917 $669 76.661275063325917 $560 $670 forward 7 unknown #
point $-1 76.661275063325917 -35.628881483104081 -11.182425701118168 #
face $-1 $671 $672 $19 $-1 $673 reversed single #
loop $-1 $-1 $674 $565 #
plane-surface $-1 -89.937978293667129 0 9.6824257011181682 1 0 0 0 0 -1 forward_v I I I I #
coedge $-1 $675 $676 $677 $678 reversed $566 $-1 #
coedge $-1 $568 $575 $679 $680 reversed $429 $-1 #
coedge $-1 $681 $580 $568 $633 forward $643 $-1 #
edge $-1 $582 -4.5310865915949003 $682 11.182425701118168 $568 $683 forward 7 unknown #
edge $-1 $570 11.069722873098399 $644 20.062680031036592 $572 $684 forward 7 unknown #
point $-1 72.341845079646689 26.635924325165895 11.182425701118163 #
coedge $-1 $685 $572 $642 $686 forward $500 $-1 #
coedge $-1 $573 $685 $687 $688 forward $500 $-1 #
coedge $-1 $687 $689 $575 $639 reversed $690 $-1 #
edge $-1 $640 -11.182425701118168 $691 11.182425701118168 $575 $692 forward 7 unknown #
vertex $-1 $576 $693 #
straight-curve $-1 76.661275063325917 0 11.182425701118168 0 1 0 I I #
coedge $-1 $580 $694 $636 $686 reversed $643 $-1 #
loop $-1 $-1 $580 $695 #
vertex $-1 $686 $696 #
straight-curve $-1 24.573310681737446 35.628881483104081 84.739520559914197 0.54463902268945019 0 -0.83867057594974714 I I #
point $-1 76.661275063325917 35.628881483104081 4.5310865915949003 #
straight-curve $-1 -76.661275063325917 0 -11.182425701118168 0 1 0 I I #
plane-surface $-1 -76.661275063325917 0 0 1 0 0 0 0 -1 forward_v I I I I #
coedge $-1 $596 $595 $621 $667 reversed $481 $-1 #
edge $-1 $653 -35.628881483104081 $651 35.628881483104081 $595 $697 forward 7 unknown #
vertex $-1 $603 $698 #
straight-curve $-1 -89.937978293667129 35.628881483104081 9.6824257011181682 0 0 -1 I I #
vertex $-1 $650 $699 #
straight-curve $-1 -83.299626678496523 -35.628881483104081 8.1824257011181682 -1 0 0 I I #
straight-curve $-1 -83.299626678496523 35.628881483104081 8.1824257011181682 1 0 0 I I #
coedge $-1 $605 $604 $661 $700 reversed $606 $-1 #
edge $-1 $608 -8.1824257011181682 $662 11.182425701118168 $613 $701 forward 7 unknown #
edge $-1 $607 -8.1824257011181682 $669 11.182425701118168 $605 $702 forward 7 unknown #
point $-1 -76.661275063325917 -35.628881483104081 8.1824257011181682 #
point $-1 -76.661275063325917 35.628881483104081 8.1824257011181682 #
coedge $-1 $611 $610 $656 $700 forward $538 $-1 #
vertex $-1 $614 $703 #
straight-curve $-1 0 35.628881483104081 -11.182425701118168 1 0 0 I I #
plane-surface $-1 0 35.628881483104081 0 0 -1 0 0 0 -1 forward_v I I I I #
straight-curve $-1 -89.937978293667129 0 11.182425701118168 0 -1 0 I I #
point $-1 -89.937978293667129 35.628881483104081 11.182425701118168 #
edge $-1 $622 -1.5 $653 1.5 $649 $704 forward 7 unknown #
point $-1 -89.937978293667129 -35.628881483104081 11.182425701118168 #
vertex $-1 $700 $705 #
straight-curve $-1 0 -35.628881483104081 -11.182425701118168 -1 0 0 I I #
face $-1 $706 $690 $19 $-1 $707 reversed single #
loop $-1 $-1 $679 $627 #
plane-surface $-1 0 0 -11.182425701118168 0 0 1 1 0 0 forward_v I I I I #
coedge $-1 $708 $709 $694 $710 forward $628 $-1 #
coedge $-1 $711 $630 $712 $713 forward $566 $-1 #
coedge $-1 $630 $711 $714 $715 forward $566 $-1 #
coedge $-1 $716 $717 $630 $678 forward $718 $-1 #
edge $-1 $719 -35.628881483104081 $720 35.628881483104081 $677 $721 forward 7 unknown #
coedge $-1 $722 $723 $631 $680 forward $672 $-1 #
edge $-1 $682 -35.628881483104081 $691 35.628881483104081 $631 $724 forward 7 unknown #
coedge $-1 $725 $632 $723 $726 reversed $643 $-1 #
vertex $-1 $680 $727 #
straight-curve $-1 76.661275063325917 35.628881483104081 0 0 0 -1 I I #
straight-curve $-1 72.341845079646703 15.566201452067496 11.182425701118163 0 1 0 I I #
coedge $-1 $637 $636 $709 $728 forward $500 $-1 #
edge $-1 $644 -72.341845079646689 $729 89.937978293667129 $642 $730 forward 7 unknown #
coedge $-1 $731 $638 $637 $688 reversed $690 $-1 #
edge $-1 $732 -89.937978293667129 $640 76.661275063325917 $687 $733 forward 7 unknown #
coedge $-1 $638 $734 $722 $735 reversed $690 $-1 #
loop $-1 $-1 $734 $671 #
vertex $-1 $639 $736 #
straight-curve $-1 76.661275063325917 -35.628881483104081 0 0 0 -1 I I #
point $-1 76.661275063325917 -35.628881483104081 11.182425701118168 #
coedge $-1 $642 $714 $674 $710 reversed $643 $-1 #
face $-1 $-1 $643 $19 $-1 $737 reversed single #
point $-1 72.341845079646689 35.628881483104088 11.182425701118163 #
straight-curve $-1 -89.937978293667129 0 8.1824257011181682 0 1 0 I I #
point $-1 -89.937978293667129 35.628881483104081 8.1824257011181682 #
point $-1 -89.937978293667129 -35.628881483104081 8.1824257011181682 #
edge $-1 $669 -35.628881483104081 $662 35.628881483104081 $656 $738 forward 7 unknown #
straight-curve $-1 -76.661275063325917 35.628881483104081 0 0 0 -1 I I #
straight-curve $-1 -76.661275063325917 -35.628881483104081 0 0 0 -1 I I #
point $-1 -76.661275063325917 35.628881483104081 -11.182425701118168 #
straight-curve $-1 -89.937978293667129 -35.628881483104081 9.6824257011181682 0 0 -1 I I #
point $-1 -76.661275063325917 -35.628881483104081 -11.182425701118168 #
face $-1 $695 $718 $19 $-1 $739 reversed single #
plane-surface $-1 0 -35.628881483104081 0 0 1 0 0 0 1 forward_v I I I I #
coedge $-1 $740 $674 $711 $741 reversed $628 $-1 #
coedge $-1 $674 $740 $685 $728 reversed $628 $-1 #
edge $-1 $729 -1.5 $742 1.5 $694 $743 forward 7 unknown #
coedge $-1 $676 $675 $708 $741 forward $566 $-1 #
coedge $-1 $734 $731 $675 $713 reversed $690 $-1 #
edge $-1 $719 -6.6383516151706061 $744 6.6383516151706061 $712 $745 forward 7 unknown #
coedge $-1 $694 $725 $676 $715 reversed $643 $-1 #
edge $-1 $742 -6.6383516151706061 $720 6.6383516151706061 $714 $746 forward 7 unknown #
coedge $-1 $747 $677 $725 $748 forward $718 $-1 #
coedge $-1 $677 $747 $734 $749 reversed $718 $-1 #
loop $-1 $-1 $677 $706 #
vertex $-1 $749 $750 #
vertex $-1 $748 $751 #
straight-curve $-1 -76.661275063325917 0 8.1824257011181682 0 1 0 I I #
coedge $-1 $752 $679 $689 $735 forward $672 $-1 #
coedge $-1 $679 $752 $681 $726 forward $672 $-1 #
straight-curve $-1 76.661275063325917 0 -11.182425701118168 0 -1 0 I I #
coedge $-1 $714 $681 $716 $748 reversed $643 $-1 #
edge $-1 $753 -76.661275063325917 $682 76.661275063325917 $681 $754 forward 7 unknown #
point $-1 76.661275063325917 35.628881483104081 -11.182425701118168 #
edge $-1 $729 -35.628881483104081 $732 35.628881483104081 $709 $755 forward 7 unknown #
vertex $-1 $686 $756 #
straight-curve $-1 0 35.628881483104081 11.182425701118168 -1 0 0 I I #
coedge $-1 $712 $687 $740 $757 forward $690 $-1 #
vertex $-1 $728 $758 #
straight-curve $-1 0 -35.628881483104081 11.182425701118168 1 0 0 I I #
coedge $-1 $689 $712 $717 $749 forward $690 $-1 #
edge $-1 $691 -76.661275063325917 $759 76.661275063325917 $689 $760 forward 7 unknown #
point $-1 76.661275063325917 -35.628881483104081 -11.182425701118168 #
plane-surface $-1 0 35.628881483104081 0 0 -1 0 0 0 -1 forward_v I I I I #
straight-curve $-1 -76.661275063325917 0 -11.182425701118168 0 1 0 I I #
plane-surface $-1 -76.661275063325917 0 0 1 0 0 0 0 -1 forward_v I I I I #
coedge $-1 $709 $708 $731 $757 reversed $628 $-1 #
edge $-1 $744 -35.628881483104081 $742 35.628881483104081 $708 $761 forward 7 unknown #
vertex $-1 $715 $762 #
straight-curve $-1 -89.937978293667129 35.628881483104081 9.6824257011181682 0 0 -1 I I #
vertex $-1 $741 $763 #
straight-curve $-1 -83.299626678496523 -35.628881483104081 8.1824257011181682 -1 0 0 I I #
straight-curve $-1 -83.299626678496523 35.628881483104081 8.1824257011181682 1 0 0 I I #
coedge $-1 $717 $716 $752 $764 reversed $718 $-1 #
edge $-1 $720 -8.1824257011181682 $753 11.182425701118168 $725 $765 forward 7 unknown #
edge $-1 $719 -8.1824257011181682 $759 11.182425701118168 $717 $766 forward 7 unknown #
point $-1 -76.661275063325917 -35.628881483104081 8.1824257011181682 #
point $-1 -76.661275063325917 35.628881483104081 8.1824257011181682 #
coedge $-1 $723 $722 $747 $764 forward $672 $-1 #
vertex $-1 $726 $767 #
straight-curve $-1 0 35.628881483104081 -11.182425701118168 1 0 0 I I #
straight-curve $-1 -89.937978293667129 0 11.182425701118168 0 -1 0 I I #
point $-1 -89.937978293667129 35.628881483104081 11.182425701118168 #
edge $-1 $732 -1.5 $744 1.5 $740 $768 forward 7 unknown #
point $-1 -89.937978293667129 -35.628881483104081 11.182425701118168 #
vertex $-1 $764 $769 #
straight-curve $-1 0 -35.628881483104081 -11.182425701118168 -1 0 0 I I #
straight-curve $-1 -89.937978293667129 0 8.1824257011181682 0 1 0 I I #
point $-1 -89.937978293667129 35.628881483104081 8.1824257011181682 #
point $-1 -89.937978293667129 -35.628881483104081 8.1824257011181682 #
edge $-1 $759 -35.628881483104081 $753 35.628881483104081 $747 $770 forward 7 unknown #
straight-curve $-1 -76.661275063325917 35.628881483104081 0 0 0 -1 I I #
straight-curve $-1 -76.661275063325917 -35.628881483104081 0 0 0 -1 I I #
point $-1 -76.661275063325917 35.628881483104081 -11.182425701118168 #
straight-curve $-1 -89.937978293667129 -35.628881483104081 9.6824257011181682 0 0 -1 I I #
point $-1 -76.661275063325917 -35.628881483104081 -11.182425701118168 #
straight-curve $-1 -76.661275063325917 0 -11.182425701118168 0 1 0 I I #
End-of-ACIS-data 