500 0 8 0           
7 Unknown 11 ACIS 5.0 NT 24 Thu Mar 25 16:21:05 1999 
-1 9.9999999999999995e-007 1e-010 
body $-1 $8 $-1 $9 #
body $-1 $10 $-1 $11 #
body $-1 $12 $-1 $13 #
body $-1 $14 $-1 $15 #
body $-1 $16 $-1 $17 #
body $-1 $18 $-1 $19 #
body $-1 $20 $-1 $21 #
body $-1 $22 $-1 $23 #
lump $-1 $-1 $24 $0 #
transform $-1 1 0 0 0 1 0 0 0 1 67.029633472701192 30.531448791265987 13.123668436093171 1 rotate no_reflect no_shear #
lump $-1 $-1 $25 $1 #
transform $-1 1 0 0 0 1 0 0 0 1 67.029633472701192 30.531448791265987 13.123668436093171 1 rotate no_reflect no_shear #
lump $-1 $-1 $26 $2 #
transform $-1 1 0 0 0 1 0 0 0 1 67.029633472701192 30.531448791265987 13.123668436093171 1 rotate no_reflect no_shear #
lump $-1 $-1 $27 $3 #
transform $-1 1 0 0 0 1 0 0 0 1 67.029633472701192 30.531448791265987 13.123668436093171 1 rotate no_reflect no_shear #
lump $-1 $-1 $28 $4 #
transform $-1 1 0 0 0 1 0 0 0 1 67.029633472701192 30.531448791265987 13.123668436093171 1 rotate no_reflect no_shear #
lump $-1 $-1 $29 $5 #
transform $-1 1 0 0 0 1 0 0 0 1 67.029633472701192 30.531448791265987 13.123668436093171 1 rotate no_reflect no_shear #
lump $-1 $-1 $30 $6 #
transform $-1 1 0 0 0 1 0 0 0 1 67.029633472701192 30.531448791265987 13.123668436093171 1 rotate no_reflect no_shear #
lump $-1 $-1 $31 $7 #
transform $-1 1 0 0 0 1 0 0 0 1 67.029633472701192 30.531448791265987 13.123668436093171 1 rotate no_reflect no_shear #
shell $-1 $-1 $-1 $32 $-1 $8 #
shell $-1 $-1 $-1 $33 $-1 $10 #
shell $-1 $-1 $-1 $34 $-1 $12 #
shell $-1 $-1 $-1 $35 $-1 $14 #
shell $-1 $-1 $-1 $36 $-1 $16 #
shell $-1 $-1 $-1 $37 $-1 $18 #
shell $-1 $-1 $-1 $38 $-1 $20 #
shell $-1 $-1 $-1 $39 $-1 $22 #
face $-1 $40 $41 $24 $-1 $42 forward single #
face $-1 $43 $44 $25 $-1 $45 reversed single #
face $-1 $46 $47 $26 $-1 $48 reversed single #
face $-1 $49 $50 $27 $-1 $51 forward single #
face $-1 $52 $53 $28 $-1 $54 forward single #
face $-1 $55 $56 $29 $-1 $57 reversed single #
face $-1 $58 $59 $30 $-1 $60 forward single #
face $-1 $61 $62 $31 $-1 $63 forward single #
face $-1 $64 $65 $24 $-1 $66 reversed single #
loop $-1 $-1 $67 $32 #
plane-surface $-1 0 0 13.123668436093171 0 0 1 1 0 0 forward_v I I I I #
face $-1 $68 $69 $25 $-1 $70 reversed single #
loop $-1 $-1 $71 $33 #
plane-surface $-1 -57.024901945258705 -27.237575028478005 0 -1 0 0 0 0 1 forward_v I I I I #
face $-1 $72 $73 $26 $-1 $74 reversed single #
loop $-1 $-1 $75 $34 #
plane-surface $-1 -49.224973504099417 -30.531448791266001 0.56570442538185262 0 -0.51503808176128008 0.85716729658548041 1 0 0 forward_v I I I I #
face $-1 $76 $77 $27 $-1 $78 forward single #
loop $-1 $79 $80 $35 #
cone-surface $-1 -52.567799978881972 -19.123180819568152 5.2498286689923681 0 0.51503808176128008 -0.85716729658548041 1.5 0 0 1 I I 0 1 1.5 forward I I I I #
face $-1 $81 $82 $28 $-1 $83 forward single #
loop $-1 $84 $85 $36 #
cone-surface $-1 -45.882147029316869 -19.123180819568152 5.2498286689923681 0 0.51503808176128008 -0.85716729658548041 1.5 0 0 1 I I 0 1 1.5 forward I I I I #
face $-1 $86 $87 $29 $-1 $88 reversed single #
loop $-1 $-1 $89 $37 #
plane-surface $-1 20.602222646039827 -99.577076481149433 115.47692385520367 -1 0 0 0 -0.51503808176128008 0.85716729658548041 forward_v I I I I #
face $-1 $90 $91 $30 $-1 $92 forward single #
loop $-1 $93 $94 $38 #
cone-surface $-1 9.4594677300979839 -19.123180819568152 5.2498286689923681 0 0.51503808176128008 -0.85716729658548041 1.5 0 0 1 I I 0 1 1.5 forward I I I I #
face $-1 $95 $96 $31 $-1 $97 forward single #
loop $-1 $98 $99 $39 #
cone-surface $-1 16.14512067966308 -19.123180819568152 5.2498286689923681 0 0.51503808176128008 -0.85716729658548041 1.5 0 0 1 I I 0 1 1.5 forward I I I I #
face $-1 $100 $101 $24 $-1 $102 reversed single #
loop $-1 $-1 $103 $40 #
plane-surface $-1 0 0 -13.123668436093171 0 0 1 1 0 0 forward_v I I I I #
coedge $-1 $104 $105 $106 $107 forward $41 $-1 #
face $-1 $108 $109 $25 $-1 $110 forward single #
loop $-1 $-1 $111 $43 #
plane-surface $-1 -62.027267708979949 -23.943701265690024 0 0 -1 0 0 0 -1 forward_v I I I I #
coedge $-1 $112 $113 $114 $115 reversed $44 $-1 #
face $-1 $116 $117 $26 $-1 $118 forward single #
loop $-1 $-1 $119 $46 #
plane-surface $-1 -41.425045062940129 -99.577076481149433 115.47692385520367 -1 0 0 0 -0.51503808176128008 0.85716729658548041 forward_v I I I I #
coedge $-1 $120 $121 $122 $123 reversed $47 $-1 #
face $-1 $-1 $124 $27 $-1 $125 forward single #
loop $-1 $126 $127 $49 #
cone-surface $-1 -52.567799978881972 -17.778615018914341 3.0120954348081224 0 0.51503808176128008 -0.85716729658548041 0.75 0 0 1 I I -0.70710678118654757 0.70710678118654757 0.75 forward I I I I #
loop $-1 $-1 $128 $35 #
coedge $-1 $80 $80 $129 $130 reversed $50 $-1 #
face $-1 $-1 $131 $28 $-1 $132 forward single #
loop $-1 $133 $134 $52 #
cone-surface $-1 -45.882147029316869 -17.778615018914341 3.0120954348081224 0 0.51503808176128008 -0.85716729658548041 0.75 0 0 1 I I -0.70710678118654757 0.70710678118654757 0.75 forward I I I I #
loop $-1 $-1 $135 $36 #
coedge $-1 $85 $85 $136 $137 reversed $53 $-1 #
face $-1 $138 $139 $29 $-1 $140 reversed single #
loop $-1 $-1 $141 $55 #
plane-surface $-1 12.802294204880539 -30.531448791266001 0.56570442538185262 0 -0.51503808176128008 0.85716729658548041 1 0 0 forward_v I I I I #
coedge $-1 $142 $143 $144 $145 reversed $56 $-1 #
face $-1 $-1 $146 $30 $-1 $147 forward single #
loop $-1 $148 $149 $58 #
cone-surface $-1 9.4594677300979839 -17.778615018914341 3.0120954348081224 0 0.51503808176128008 -0.85716729658548041 0.75 0 0 1 I I -0.70710678118654757 0.70710678118654757 0.75 forward I I I I #
loop $-1 $-1 $150 $38 #
coedge $-1 $94 $94 $151 $152 reversed $59 $-1 #
face $-1 $-1 $153 $31 $-1 $154 forward single #
loop $-1 $155 $156 $61 #
cone-surface $-1 16.14512067966308 -17.778615018914341 3.0120954348081224 0 0.51503808176128008 -0.85716729658548041 0.75 0 0 1 I I -0.70710678118654757 0.70710678118654757 0.75 forward I I I I #
loop $-1 $-1 $157 $39 #
coedge $-1 $99 $99 $158 $159 reversed $62 $-1 #
face $-1 $160 $161 $24 $-1 $162 reversed single #
loop $-1 $-1 $163 $64 #
plane-surface $-1 0 -30.531448791265987 0 0 1 0 0 0 1 forward_v I I I I #
coedge $-1 $164 $165 $166 $167 forward $65 $-1 #
coedge $-1 $168 $67 $169 $170 forward $41 $-1 #
coedge $-1 $67 $168 $171 $172 forward $41 $-1 #
coedge $-1 $173 $174 $67 $107 reversed $175 $-1 #
edge $-1 $176 -30.531448791265987 $177 30.531448791265987 $106 $178 forward 7 unknown #
face $-1 $179 $180 $25 $-1 $181 reversed single #
loop $-1 $-1 $182 $68 #
plane-surface $-1 0 0 13.123668436093171 0 0 1 1 0 0 forward_v I I I I #
coedge $-1 $183 $184 $185 $186 forward $69 $-1 #
coedge $-1 $185 $71 $187 $188 reversed $44 $-1 #
coedge $-1 $71 $185 $182 $189 reversed $44 $-1 #
coedge $-1 $190 $191 $71 $115 forward $192 $-1 #
edge $-1 $193 -13.123668436093171 $194 13.123668436093171 $114 $195 forward 7 unknown #
face $-1 $196 $197 $26 $-1 $198 forward single #
loop $-1 $-1 $199 $72 #
plane-surface $-1 0 0 13.123668436093171 0 0 1 1 0 0 forward_v I I I I #
coedge $-1 $200 $201 $202 $203 reversed $73 $-1 #
coedge $-1 $204 $75 $205 $206 reversed $47 $-1 #
coedge $-1 $75 $204 $200 $207 forward $47 $-1 #
coedge $-1 $202 $208 $75 $123 forward $209 $-1 #
edge $-1 $210 -32.412415193209 $211 -16.81255831089042 $122 $212 forward 7 unknown #
loop $-1 $-1 $129 $76 #
plane-surface $-1 -49.224973504099417 -30.531448791266001 0.56570442538185262 0 -0.51503808176128008 0.85716729658548041 1 0 0 forward_v I I I I #
loop $-1 $-1 $213 $49 #
coedge $-1 $127 $127 $128 $214 reversed $77 $-1 #
coedge $-1 $128 $128 $127 $214 forward $79 $-1 #
coedge $-1 $129 $129 $80 $130 forward $124 $-1 #
edge $-1 $215 1.1065523992560154e-015 $215 6.2831853071796013 $129 $216 forward 7 unknown #
loop $-1 $-1 $136 $81 #
plane-surface $-1 -49.224973504099417 -30.531448791266001 0.56570442538185262 0 -0.51503808176128008 0.85716729658548041 1 0 0 forward_v I I I I #
loop $-1 $-1 $217 $52 #
coedge $-1 $134 $134 $135 $218 reversed $82 $-1 #
coedge $-1 $135 $135 $134 $218 forward $84 $-1 #
coedge $-1 $136 $136 $85 $137 forward $131 $-1 #
edge $-1 $219 1.1065523992560154e-015 $219 6.2831853071796013 $136 $220 forward 7 unknown #
face $-1 $221 $222 $29 $-1 $223 forward single #
loop $-1 $-1 $224 $86 #
plane-surface $-1 5.0023657637212491 -99.577076481149433 115.47692385520367 1 0 0 0 0.51503808176128008 -0.85716729658548041 forward_v I I I I #
coedge $-1 $225 $226 $227 $228 reversed $87 $-1 #
coedge $-1 $143 $89 $229 $230 reversed $56 $-1 #
coedge $-1 $89 $142 $225 $231 reversed $56 $-1 #
coedge $-1 $227 $232 $89 $145 forward $222 $-1 #
edge $-1 $233 19.257089449308729 $234 40.157050914038649 $144 $235 forward 7 unknown #
loop $-1 $-1 $151 $90 #
plane-surface $-1 12.802294204880539 -30.531448791266001 0.56570442538185262 0 -0.51503808176128008 0.85716729658548041 1 0 0 forward_v I I I I #
loop $-1 $-1 $236 $58 #
coedge $-1 $149 $149 $150 $237 reversed $91 $-1 #
coedge $-1 $150 $150 $149 $237 forward $93 $-1 #
coedge $-1 $151 $151 $94 $152 forward $146 $-1 #
edge $-1 $238 1.1065523992560154e-015 $238 6.2831853071796013 $151 $239 forward 7 unknown #
loop $-1 $-1 $158 $95 #
plane-surface $-1 12.802294204880539 -30.531448791266001 0.56570442538185262 0 -0.51503808176128008 0.85716729658548041 1 0 0 forward_v I I I I #
loop $-1 $-1 $240 $61 #
coedge $-1 $156 $156 $157 $241 reversed $96 $-1 #
coedge $-1 $157 $157 $156 $241 forward $98 $-1 #
coedge $-1 $158 $158 $99 $159 forward $153 $-1 #
edge $-1 $242 1.1065523992560154e-015 $242 6.2831853071796013 $158 $243 forward 7 unknown #
face $-1 $244 $245 $24 $-1 $246 reversed single #
loop $-1 $-1 $247 $100 #
plane-surface $-1 -67.029633472701192 0 0 1 0 0 0 0 -1 forward_v I I I I #
coedge $-1 $248 $171 $249 $250 forward $101 $-1 #
coedge $-1 $251 $103 $248 $252 forward $65 $-1 #
coedge $-1 $103 $251 $253 $254 forward $65 $-1 #
coedge $-1 $174 $173 $103 $167 reversed $175 $-1 #
edge $-1 $255 -30.531448791265987 $256 30.531448791265987 $166 $257 forward 7 unknown #
coedge $-1 $105 $104 $258 $259 forward $41 $-1 #
coedge $-1 $260 $261 $104 $170 reversed $245 $-1 #
edge $-1 $177 -67.029633472701192 $262 67.029633472701192 $169 $263 forward 7 unknown #
coedge $-1 $163 $264 $105 $172 reversed $101 $-1 #
edge $-1 $265 -67.029633472701192 $176 67.029633472701192 $171 $266 forward 7 unknown #
coedge $-1 $166 $106 $264 $267 forward $175 $-1 #
coedge $-1 $106 $166 $260 $268 reversed $175 $-1 #
loop $-1 $-1 $173 $244 #
vertex $-1 $107 $269 #
vertex $-1 $107 $270 #
straight-curve $-1 67.029633472701192 0 13.123668436093171 0 1 0 I I #
face $-1 $271 $272 $25 $-1 $273 reversed single #
loop $-1 $-1 $274 $108 #
plane-surface $-1 -67.029633472701192 0 0 1 0 0 0 0 -1 forward_v I I I I #
coedge $-1 $275 $276 $113 $189 forward $109 $-1 #
coedge $-1 $277 $111 $278 $279 reversed $69 $-1 #
coedge $-1 $111 $277 $275 $280 reversed $69 $-1 #
coedge $-1 $113 $112 $111 $186 reversed $44 $-1 #
edge $-1 $281 -13.123668436093171 $282 13.123668436093171 $185 $283 forward 7 unknown #
coedge $-1 $284 $278 $112 $188 forward $272 $-1 #
edge $-1 $282 10.324913751451021 $193 16.912661277026984 $187 $285 forward 7 unknown #
edge $-1 $194 -16.912661277026984 $281 -10.324913751451021 $182 $286 forward 7 unknown #
coedge $-1 $287 $114 $276 $288 reversed $192 $-1 #
coedge $-1 $114 $287 $284 $289 reversed $192 $-1 #
loop $-1 $-1 $114 $271 #
vertex $-1 $289 $290 #
vertex $-1 $115 $291 #
straight-curve $-1 -57.024901945258705 -30.531448791265987 0 0 0 1 I I #
face $-1 $-1 $209 $26 $-1 $292 reversed single #
loop $-1 $-1 $205 $116 #
plane-surface $-1 -57.024901945258705 -27.237575028478005 0 -1 0 0 0 0 1 forward_v I I I I #
coedge $-1 $293 $294 $201 $295 forward $117 $-1 #
coedge $-1 $201 $119 $121 $207 reversed $73 $-1 #
coedge $-1 $119 $200 $199 $295 reversed $73 $-1 #
coedge $-1 $296 $122 $119 $203 forward $209 $-1 #
edge $-1 $211 -57.172757502219973 $297 -44.614793491508664 $202 $298 forward 7 unknown #
coedge $-1 $121 $120 $293 $299 reversed $47 $-1 #
coedge $-1 $300 $301 $120 $206 forward $197 $-1 #
edge $-1 $302 -23.116572389142075 $210 1.266020773225129 $205 $303 forward 7 unknown #
edge $-1 $304 -24.382593162367218 $211 -1.6583994872760861e-014 $200 $305 forward 7 unknown #
coedge $-1 $122 $296 $300 $306 forward $209 $-1 #
loop $-1 $-1 $202 $196 #
vertex $-1 $206 $307 #
vertex $-1 $123 $308 #
straight-curve $-1 -24.612486752049708 -30.531448791265987 0.56570442538186183 1 0 0 I I #
coedge $-1 $213 $213 $-1 $309 reversed $126 $-1 #
edge $-1 $310 0 $310 6.2831853071796004 $127 $311 forward 7 unknown #
vertex $-1 $130 $312 #
ellipse-curve $-1 -52.567799978881972 -20.081468058901017 6.8446864307375241 0 -0.51503808176128008 0.85716729658548041 1.5 0 0 1 I I #
coedge $-1 $217 $217 $-1 $313 reversed $133 $-1 #
edge $-1 $314 0 $314 6.2831853071796004 $134 $315 forward 7 unknown #
vertex $-1 $137 $316 #
ellipse-curve $-1 -45.882147029316869 -20.081468058901017 6.8446864307375241 0 -0.51503808176128008 0.85716729658548041 1.5 0 0 1 I I #
face $-1 $-1 $317 $29 $-1 $318 reversed single #
loop $-1 $-1 $144 $138 #
plane-surface $-1 0 0 13.123668436093171 0 0 1 1 0 0 forward_v I I I I #
coedge $-1 $319 $320 $321 $322 reversed $139 $-1 #
coedge $-1 $323 $141 $143 $231 forward $87 $-1 #
coedge $-1 $141 $323 $319 $324 forward $87 $-1 #
coedge $-1 $321 $144 $141 $228 forward $222 $-1 #
edge $-1 $234 -14.201075543599558 $325 1.3987813387190204 $227 $326 forward 7 unknown #
coedge $-1 $327 $328 $142 $230 forward $317 $-1 #
edge $-1 $329 -57.172757502219973 $233 -44.614793491508664 $229 $330 forward 7 unknown #
edge $-1 $234 -24.382593162367218 $329 -1.6583994872760861e-014 $143 $331 forward 7 unknown #
coedge $-1 $144 $321 $327 $332 forward $222 $-1 #
vertex $-1 $230 $333 #
vertex $-1 $145 $334 #
straight-curve $-1 20.602222646039827 -49.788538240574717 13.123668436093169 0 1 0 I I #
coedge $-1 $236 $236 $-1 $335 reversed $148 $-1 #
edge $-1 $336 0 $336 6.2831853071796004 $149 $337 forward 7 unknown #
vertex $-1 $152 $338 #
ellipse-curve $-1 9.4594677300979839 -20.081468058901017 6.8446864307375241 0 -0.51503808176128008 0.85716729658548041 1.5 0 0 1 I I #
coedge $-1 $240 $240 $-1 $339 reversed $155 $-1 #
edge $-1 $340 0 $340 6.2831853071796004 $156 $341 forward 7 unknown #
vertex $-1 $159 $342 #
ellipse-curve $-1 16.14512067966308 -20.081468058901017 6.8446864307375241 0 -0.51503808176128008 0.85716729658548041 1.5 0 0 1 I I #
face $-1 $-1 $175 $24 $-1 $343 reversed single #
loop $-1 $-1 $260 $160 #
plane-surface $-1 0 30.531448791265987 0 0 -1 0 0 0 -1 forward_v I I I I #
coedge $-1 $344 $258 $261 $345 forward $161 $-1 #
coedge $-1 $264 $163 $164 $252 reversed $101 $-1 #
coedge $-1 $258 $344 $163 $250 reversed $161 $-1 #
edge $-1 $265 -13.123668436093171 $346 13.123668436093171 $249 $347 forward 7 unknown #
coedge $-1 $165 $164 $344 $348 forward $65 $-1 #
edge $-1 $256 -67.029633472701192 $346 67.029633472701192 $248 $349 forward 7 unknown #
coedge $-1 $261 $260 $165 $254 reversed $245 $-1 #
edge $-1 $350 -67.029633472701192 $255 67.029633472701192 $253 $351 forward 7 unknown #
vertex $-1 $167 $352 #
vertex $-1 $267 $353 #
straight-curve $-1 67.029633472701192 0 -13.123668436093171 0 -1 0 I I #
coedge $-1 $247 $249 $168 $259 reversed $161 $-1 #
edge $-1 $262 -30.531448791265987 $265 30.531448791265987 $258 $354 forward 7 unknown #
coedge $-1 $253 $169 $174 $268 forward $245 $-1 #
coedge $-1 $169 $253 $247 $345 reversed $245 $-1 #
vertex $-1 $170 $355 #
straight-curve $-1 0 30.531448791265987 13.123668436093171 -1 0 0 I I #
coedge $-1 $171 $248 $173 $267 reversed $101 $-1 #
vertex $-1 $259 $356 #
straight-curve $-1 0 -30.531448791265987 13.123668436093171 1 0 0 I I #
edge $-1 $176 -13.123668436093171 $256 13.123668436093171 $173 $357 forward 7 unknown #
edge $-1 $177 -13.123668436093171 $255 13.123668436093171 $174 $358 forward 7 unknown #
point $-1 67.029633472701192 -30.531448791265987 13.123668436093171 #
point $-1 67.029633472701192 30.531448791265987 13.123668436093171 #
face $-1 $-1 $192 $25 $-1 $359 reversed single #
loop $-1 $-1 $187 $179 #
plane-surface $-1 0 0 -13.123668436093171 0 0 1 1 0 0 forward_v I I I I #
coedge $-1 $360 $361 $277 $362 forward $180 $-1 #
coedge $-1 $363 $182 $184 $280 forward $109 $-1 #
coedge $-1 $182 $363 $190 $288 forward $109 $-1 #
coedge $-1 $184 $183 $274 $362 reversed $69 $-1 #
coedge $-1 $187 $364 $183 $279 forward $272 $-1 #
edge $-1 $365 -36.015999618211218 $282 -26.011268090768731 $278 $366 forward 7 unknown #
edge $-1 $281 26.011268090768731 $367 36.015999618211218 $275 $368 forward 7 unknown #
vertex $-1 $280 $369 #
vertex $-1 $279 $370 #
straight-curve $-1 -57.024901945258705 -23.943701265690024 0 0 0 -1 I I #
coedge $-1 $364 $187 $191 $289 forward $272 $-1 #
straight-curve $-1 -57.024901945258705 -13.618787514239003 -13.123668436093171 0 -1 0 I I #
straight-curve $-1 -57.024901945258705 -13.618787514239003 13.123668436093171 0 1 0 I I #
coedge $-1 $191 $190 $371 $372 forward $192 $-1 #
edge $-1 $373 -67.029633472701192 $194 -57.024901945258705 $190 $374 forward 7 unknown #
edge $-1 $193 57.024901945258705 $375 67.029633472701192 $191 $376 forward 7 unknown #
point $-1 -57.024901945258705 -30.531448791265987 -13.123668436093171 #
point $-1 -57.024901945258705 -30.531448791265987 13.123668436093171 #
plane-surface $-1 0 -30.531448791265987 0 0 1 0 0 0 1 forward_v I I I I #
coedge $-1 $377 $199 $204 $299 forward $117 $-1 #
coedge $-1 $199 $377 $296 $378 forward $117 $-1 #
edge $-1 $297 19.257089449308729 $304 40.157050914038649 $199 $379 forward 7 unknown #
coedge $-1 $208 $202 $294 $378 reversed $209 $-1 #
vertex $-1 $295 $380 #
straight-curve $-1 -41.425045062940129 -30.531448791265987 57.738461927601833 0 0 1 I I #
edge $-1 $304 16.81255831089042 $302 32.412415193209 $293 $381 forward 7 unknown #
coedge $-1 $301 $205 $208 $306 reversed $197 $-1 #
coedge $-1 $205 $300 $377 $382 reversed $197 $-1 #
vertex $-1 $382 $383 #
straight-curve $-1 -57.024901945258705 -29.446257187659544 1.217753335893665 0 -0.85716729658548041 -0.51503808176128008 I I #
vertex $-1 $299 $384 #
straight-curve $-1 -41.425045062940129 -30.531448791266001 0.56570442538185262 0 -0.85716729658548041 -0.51503808176128008 I I #
edge $-1 $385 -13.123668436093171 $210 -0.56570442538186116 $208 $386 forward 7 unknown #
point $-1 -57.024901945258705 -30.531448791265987 0.56570442538186116 #
point $-1 -41.425045062940129 -30.531448791265987 0.56570442538186116 #
edge $-1 $387 1 $387 0 $213 $-1 forward 7 unknown #
vertex $-1 $214 $388 #
ellipse-curve $-1 -52.567799978881972 -18.164893580235301 3.6549709072472325 0 -0.51503808176128008 0.85716729658548041 1.5 0 0 1 I I #
point $-1 -51.067799978881972 -20.081468058901002 6.8446864307375037 #
edge $-1 $389 1 $389 0 $217 $-1 forward 7 unknown #
vertex $-1 $218 $390 #
ellipse-curve $-1 -45.882147029316869 -18.164893580235301 3.6549709072472325 0 -0.51503808176128008 0.85716729658548041 1.5 0 0 1 I I #
point $-1 -44.382147029316869 -20.081468058901002 6.8446864307375037 #
loop $-1 $-1 $229 $221 #
plane-surface $-1 0 -30.531448791265987 0 0 1 0 0 0 1 forward_v I I I I #
coedge $-1 $320 $224 $226 $324 reversed $139 $-1 #
coedge $-1 $224 $319 $391 $392 reversed $139 $-1 #
coedge $-1 $232 $227 $224 $322 forward $222 $-1 #
edge $-1 $325 -40.157050914038649 $393 -19.257089449308729 $321 $394 forward 7 unknown #
coedge $-1 $226 $225 $328 $395 reversed $87 $-1 #
edge $-1 $396 1.6583994872760861e-014 $325 24.382593162367218 $319 $397 forward 7 unknown #
vertex $-1 $228 $398 #
straight-curve $-1 6.4011471024402695 -9.6314873265360692 13.123668436093171 -1 0 0 I I #
coedge $-1 $391 $229 $232 $332 reversed $317 $-1 #
coedge $-1 $229 $391 $323 $395 forward $317 $-1 #
vertex $-1 $230 $399 #
straight-curve $-1 20.602222646039827 -30.531448791265987 57.738461927601833 0 0 1 I I #
straight-curve $-1 20.602222646039827 -30.531448791266001 0.56570442538185262 0 -0.85716729658548041 -0.51503808176128008 I I #
edge $-1 $393 5.0023657637212491 $233 20.602222646039827 $327 $400 forward 7 unknown #
point $-1 20.602222646039827 -30.531448791265987 13.123668436093171 #
point $-1 20.602222646039827 -9.631487326536071 13.123668436093171 #
edge $-1 $401 1 $401 0 $236 $-1 forward 7 unknown #
vertex $-1 $237 $402 #
ellipse-curve $-1 9.4594677300979839 -18.164893580235301 3.6549709072472325 0 -0.51503808176128008 0.85716729658548041 1.5 0 0 1 I I #
point $-1 10.959467730097984 -20.081468058901002 6.8446864307375037 #
edge $-1 $403 1 $403 0 $240 $-1 forward 7 unknown #
vertex $-1 $241 $404 #
ellipse-curve $-1 16.14512067966308 -18.164893580235301 3.6549709072472325 0 -0.51503808176128008 0.85716729658548041 1.5 0 0 1 I I #
point $-1 17.64512067966308 -20.081468058901002 6.8446864307375037 #
plane-surface $-1 67.029633472701192 0 0 -1 0 0 0 0 1 forward_v I I I I #
coedge $-1 $249 $247 $251 $348 reversed $161 $-1 #
edge $-1 $262 -13.123668436093171 $350 13.123668436093171 $261 $405 forward 7 unknown #
vertex $-1 $348 $406 #
straight-curve $-1 -67.029633472701192 -30.531448791265987 0 0 0 -1 I I #
edge $-1 $346 -30.531448791265987 $350 30.531448791265987 $344 $407 forward 7 unknown #
straight-curve $-1 0 -30.531448791265987 -13.123668436093171 -1 0 0 I I #
vertex $-1 $254 $408 #
straight-curve $-1 0 30.531448791265987 -13.123668436093171 1 0 0 I I #
point $-1 67.029633472701192 30.531448791265987 -13.123668436093171 #
point $-1 67.029633472701192 -30.531448791265987 -13.123668436093171 #
straight-curve $-1 -67.029633472701192 0 13.123668436093171 0 -1 0 I I #
point $-1 -67.029633472701192 30.531448791265987 13.123668436093171 #
point $-1 -67.029633472701192 -30.531448791265987 13.123668436093171 #
straight-curve $-1 67.029633472701192 -30.531448791265987 0 0 0 -1 I I #
straight-curve $-1 67.029633472701192 30.531448791265987 0 0 0 -1 I I #
plane-surface $-1 0 -30.531448791265987 0 0 1 0 0 0 1 forward_v I I I I #
coedge $-1 $371 $274 $364 $409 reversed $180 $-1 #
coedge $-1 $274 $371 $363 $410 reversed $180 $-1 #
edge $-1 $367 -13.123668436093171 $365 13.123668436093171 $274 $411 forward 7 unknown #
coedge $-1 $276 $275 $361 $410 forward $109 $-1 #
coedge $-1 $278 $284 $360 $409 forward $272 $-1 #
vertex $-1 $279 $412 #
straight-curve $-1 -31.013633854489974 -23.943701265690024 -13.123668436093171 1 0 0 I I #
vertex $-1 $410 $413 #
straight-curve $-1 -31.013633854489974 -23.943701265690024 13.123668436093171 -1 0 0 I I #
point $-1 -57.024901945258705 -23.943701265690024 13.123668436093171 #
point $-1 -57.024901945258705 -23.943701265690024 -13.123668436093171 #
coedge $-1 $361 $360 $287 $372 reversed $180 $-1 #
edge $-1 $373 -13.123668436093171 $375 13.123668436093171 $371 $414 forward 7 unknown #
vertex $-1 $410 $415 #
straight-curve $-1 0 -30.531448791265987 13.123668436093171 1 0 0 I I #
vertex $-1 $409 $416 #
straight-curve $-1 0 -30.531448791265987 -13.123668436093171 -1 0 0 I I #
coedge $-1 $294 $293 $301 $382 forward $117 $-1 #
edge $-1 $385 -57.024901945258705 $297 -41.425045062940129 $296 $417 forward 7 unknown #
straight-curve $-1 -41.425045062940129 -49.788538240574717 13.123668436093169 0 1 0 I I #
point $-1 -41.425045062940129 -30.531448791265987 13.123668436093171 #
straight-curve $-1 -24.612486752049708 -9.6314873265360692 13.123668436093171 -1 0 0 I I #
edge $-1 $302 -40.157050914038649 $385 -19.257089449308729 $377 $418 forward 7 unknown #
point $-1 -57.024901945258705 -9.631487326536071 13.123668436093171 #
point $-1 -41.425045062940129 -9.631487326536071 13.123668436093171 #
vertex $-1 $378 $419 #
straight-curve $-1 -57.024901945258705 -30.531448791265987 0 0 0 -1 I I #
vertex $-1 $309 $420 #
point $-1 -51.067799978881972 -18.164893580235301 3.6549709072472325 #
vertex $-1 $313 $421 #
point $-1 -44.382147029316869 -18.164893580235301 3.6549709072472325 #
coedge $-1 $328 $327 $320 $392 forward $317 $-1 #
edge $-1 $393 44.614793491508664 $396 57.172757502219973 $391 $422 forward 7 unknown #
vertex $-1 $332 $423 #
straight-curve $-1 5.0023657637212491 -49.788538240574717 13.123668436093169 0 -1 0 I I #
edge $-1 $396 -1.3987813387190204 $329 14.201075543599558 $328 $424 forward 7 unknown #
vertex $-1 $395 $425 #
straight-curve $-1 5.0023657637212491 -30.531448791266001 0.56570442538185262 0 0.85716729658548041 0.51503808176128008 I I #
point $-1 5.0023657637212491 -9.631487326536071 13.123668436093171 #
point $-1 20.602222646039827 -30.531448791265987 0.56570442538186116 #
straight-curve $-1 0 -30.531448791265987 13.123668436093171 1 0 0 I I #
vertex $-1 $335 $426 #
point $-1 10.959467730097984 -18.164893580235301 3.6549709072472325 #
vertex $-1 $339 $427 #
point $-1 17.64512067966308 -18.164893580235301 3.6549709072472325 #
straight-curve $-1 -67.029633472701192 30.531448791265987 0 0 0 -1 I I #
point $-1 -67.029633472701192 -30.531448791265987 -13.123668436093171 #
straight-curve $-1 -67.029633472701192 0 -13.123668436093171 0 1 0 I I #
point $-1 -67.029633472701192 30.531448791265987 -13.123668436093171 #
edge $-1 $375 -30.531448791265987 $365 -23.943701265690024 $360 $428 forward 7 unknown #
edge $-1 $367 23.943701265690024 $373 30.531448791265987 $361 $429 forward 7 unknown #
straight-curve $-1 -67.029633472701192 -23.943701265690024 0 0 0 -1 I I #
point $-1 -67.029633472701192 -23.943701265690024 -13.123668436093171 #
point $-1 -67.029633472701192 -23.943701265690024 13.123668436093171 #
straight-curve $-1 -67.029633472701192 -30.531448791265987 0 0 0 -1 I I #
point $-1 -67.029633472701192 -30.531448791265987 13.123668436093171 #
point $-1 -67.029633472701192 -30.531448791265987 -13.123668436093171 #
straight-curve $-1 0 -30.531448791265987 13.123668436093171 1 0 0 I I #
straight-curve $-1 -57.024901945258705 -49.788538240574717 13.123668436093169 0 -1 0 I I #
point $-1 -57.024901945258705 -30.531448791265987 13.123668436093171 #
point $-1 -52.567799978881972 -17.39233645759338 2.3692199623690122 #
point $-1 -45.882147029316869 -17.39233645759338 2.3692199623690122 #
straight-curve $-1 5.0023657637212491 -30.531448791265987 57.738461927601833 0 0 -1 I I #
point $-1 5.0023657637212491 -30.531448791265987 13.123668436093171 #
straight-curve $-1 6.4011471024402695 -30.531448791265987 0.56570442538186183 1 0 0 I I #
point $-1 5.0023657637212491 -30.531448791265987 0.56570442538186116 #
point $-1 9.4594677300979839 -17.39233645759338 2.3692199623690122 #
point $-1 16.14512067966308 -17.39233645759338 2.3692199623690122 #
straight-curve $-1 -67.029633472701192 0 -13.123668436093171 0 1 0 I I #
straight-curve $-1 -67.029633472701192 0 13.123668436093171 0 -1 0 I I #
End-of-ACIS-data 