500 0 6 0           
7 Unknown 11 ACIS 5.0 NT 24 Fri Mar 26 00:16:27 1999 
-1 9.9999999999999995e-007 1e-010 
body $-1 $6 $-1 $7 #
body $-1 $8 $-1 $9 #
body $-1 $10 $-1 $11 #
body $-1 $12 $-1 $13 #
body $-1 $14 $-1 $15 #
body $-1 $16 $-1 $17 #
lump $-1 $-1 $18 $0 #
transform $-1 1 0 0 0 1 0 0 0 1 60.590227973265783 39.964550313357989 17.691390582150344 1 rotate no_reflect no_shear #
lump $-1 $-1 $19 $1 #
transform $-1 1 0 0 0 1 0 0 0 1 60.590227973265783 39.964550313357989 17.691390582150344 1 rotate no_reflect no_shear #
lump $-1 $-1 $20 $2 #
transform $-1 1 0 0 0 1 0 0 0 1 60.590227973265783 39.964550313357989 17.691390582150344 1 rotate no_reflect no_shear #
lump $-1 $-1 $21 $3 #
transform $-1 1 0 0 0 1 0 0 0 1 60.590227973265783 39.964550313357989 17.691390582150344 1 rotate no_reflect no_shear #
lump $-1 $-1 $22 $4 #
transform $-1 1 0 0 0 1 0 0 0 1 60.590227973265783 39.964550313357989 17.691390582150344 1 rotate no_reflect no_shear #
lump $-1 $-1 $23 $5 #
transform $-1 1 0 0 0 1 0 0 0 1 60.590227973265783 39.964550313357989 17.691390582150344 1 rotate no_reflect no_shear #
shell $-1 $-1 $-1 $24 $-1 $6 #
shell $-1 $-1 $-1 $25 $-1 $8 #
shell $-1 $-1 $-1 $26 $-1 $10 #
shell $-1 $-1 $-1 $27 $-1 $12 #
shell $-1 $-1 $-1 $28 $-1 $14 #
shell $-1 $-1 $-1 $29 $-1 $16 #
face $-1 $30 $31 $18 $-1 $32 reversed single #
face $-1 $33 $34 $19 $-1 $35 forward single #
face $-1 $36 $37 $20 $-1 $38 forward single #
face $-1 $39 $40 $21 $-1 $41 reversed single #
face $-1 $42 $43 $22 $-1 $44 forward single #
face $-1 $45 $46 $23 $-1 $47 forward single #
face $-1 $48 $49 $18 $-1 $50 reversed single #
loop $-1 $-1 $51 $24 #
plane-surface $-1 60.590227973265783 0 0 -1 0 0 0 0 1 forward_v I I I I #
face $-1 $52 $53 $19 $-1 $54 reversed single #
loop $-1 $-1 $55 $25 #
plane-surface $-1 -60.590227973265783 0 0 1 0 0 0 0 -1 forward_v I I I I #
face $-1 $56 $57 $20 $-1 $58 reversed single #
loop $-1 $-1 $59 $26 #
plane-surface $-1 60.590227973265783 0 0 -1 0 0 0 0 1 forward_v I I I I #
face $-1 $60 $61 $21 $-1 $62 reversed single #
loop $-1 $-1 $63 $27 #
plane-surface $-1 -38.377536268828223 49.058552549908939 149.76507866071057 1 0 0 0 -0.6018150307709319 -0.79863550430605224 forward_v I I I I #
face $-1 $64 $65 $22 $-1 $66 forward single #
loop $-1 $67 $68 $28 #
cone-surface $-1 -31.650133028966835 30.363100972623041 9.8235348496327557 0 -0.6018150307709319 -0.79863550430605224 3 0 0 1 I I 0 1 3 forward I I I I #
face $-1 $69 $70 $23 $-1 $71 forward single #
loop $-1 $72 $73 $29 #
cone-surface $-1 -21.559028169174752 30.363100972623041 9.8235348496327557 0 -0.6018150307709319 -0.79863550430605224 3 0 0 1 I I 0 1 3 forward I I I I #
face $-1 $74 $75 $18 $-1 $76 forward single #
loop $-1 $-1 $77 $30 #
plane-surface $-1 -60.590227973265783 0 0 1 0 0 0 0 -1 forward_v I I I I #
coedge $-1 $78 $79 $80 $81 reversed $31 $-1 #
face $-1 $82 $83 $19 $-1 $84 reversed single #
loop $-1 $-1 $85 $33 #
plane-surface $-1 0 0 -17.691390582150344 0 0 1 1 0 0 forward_v I I I I #
coedge $-1 $86 $87 $88 $89 forward $34 $-1 #
face $-1 $90 $91 $20 $-1 $92 forward single #
loop $-1 $-1 $93 $36 #
plane-surface $-1 0 -39.964550313357989 0 0 1 0 0 0 1 forward_v I I I I #
coedge $-1 $94 $95 $96 $97 forward $37 $-1 #
face $-1 $98 $99 $21 $-1 $100 reversed single #
loop $-1 $-1 $101 $39 #
plane-surface $-1 -26.604580599070793 -23.869667274388519 52.98606411381499 0 0.6018150307709319 0.79863550430605224 1 0 0 forward_v I I I I #
coedge $-1 $102 $103 $104 $105 reversed $40 $-1 #
face $-1 $-1 $106 $22 $-1 $107 forward single #
loop $-1 $108 $109 $42 #
cone-surface $-1 -31.650133028966835 28.357231473947508 7.1616561714037736 0 -0.6018150307709319 -0.79863550430605224 1.5 0 0 1 I I -0.70710678118654757 0.70710678118654757 1.5 forward I I I I #
loop $-1 $-1 $110 $28 #
coedge $-1 $68 $68 $111 $112 reversed $43 $-1 #
face $-1 $-1 $113 $23 $-1 $114 forward single #
loop $-1 $115 $116 $45 #
cone-surface $-1 -21.559028169174752 28.357231473947508 7.1616561714037736 0 -0.6018150307709319 -0.79863550430605224 1.5 0 0 1 I I -0.70710678118654757 0.70710678118654757 1.5 forward I I I I #
loop $-1 $-1 $117 $29 #
coedge $-1 $73 $73 $118 $119 reversed $46 $-1 #
face $-1 $120 $121 $18 $-1 $122 reversed single #
loop $-1 $-1 $123 $48 #
plane-surface $-1 0 0 17.691390582150344 0 0 1 1 0 0 forward_v I I I I #
coedge $-1 $124 $125 $126 $127 reversed $49 $-1 #
coedge $-1 $128 $51 $123 $129 reversed $31 $-1 #
coedge $-1 $51 $128 $130 $131 reversed $31 $-1 #
coedge $-1 $132 $133 $51 $81 forward $134 $-1 #
edge $-1 $135 -17.691390582150344 $136 17.691390582150344 $51 $137 forward 7 unknown #
face $-1 $138 $139 $19 $-1 $140 reversed single #
loop $-1 $-1 $141 $52 #
plane-surface $-1 -71.696573825484563 -18.208466292829804 0 0 1 0 0 0 1 forward_v I I I I #
coedge $-1 $142 $143 $87 $144 forward $53 $-1 #
coedge $-1 $145 $55 $146 $147 reversed $34 $-1 #
coedge $-1 $55 $145 $85 $144 reversed $34 $-1 #
coedge $-1 $148 $149 $55 $89 reversed $150 $-1 #
edge $-1 $151 -17.691390582150344 $152 17.691390582150344 $88 $153 forward 7 unknown #
face $-1 $154 $155 $20 $-1 $156 reversed single #
loop $-1 $-1 $157 $56 #
plane-surface $-1 68.886802844663336 0 9.9908668881069822 0 0 1 1 0 0 forward_v I I I I #
coedge $-1 $158 $159 $95 $160 forward $57 $-1 #
coedge $-1 $161 $59 $162 $163 reversed $37 $-1 #
coedge $-1 $59 $161 $93 $160 reversed $37 $-1 #
coedge $-1 $164 $165 $59 $97 reversed $91 $-1 #
edge $-1 $166 -39.964550313357989 $167 39.964550313357989 $96 $168 forward 7 unknown #
face $-1 $169 $170 $21 $-1 $171 reversed single #
loop $-1 $-1 $172 $60 #
plane-surface $-1 -14.831624929313366 49.058552549908939 149.76507866071057 -1 0 0 0 0.6018150307709319 0.79863550430605224 forward_v I I I I #
coedge $-1 $173 $174 $175 $176 reversed $61 $-1 #
coedge $-1 $103 $63 $177 $178 reversed $40 $-1 #
coedge $-1 $63 $102 $173 $179 reversed $40 $-1 #
coedge $-1 $175 $180 $63 $105 forward $181 $-1 #
edge $-1 $182 -15.43527403840352 $183 1.5613307380280972 $104 $184 forward 7 unknown #
loop $-1 $-1 $111 $64 #
plane-surface $-1 -26.604580599070793 -23.869667274388519 52.98606411381499 0 0.6018150307709319 0.79863550430605224 1 0 0 forward_v I I I I #
loop $-1 $-1 $185 $42 #
coedge $-1 $109 $109 $110 $186 reversed $65 $-1 #
coedge $-1 $110 $110 $109 $186 forward $67 $-1 #
coedge $-1 $111 $111 $68 $112 forward $106 $-1 #
edge $-1 $187 -5.759829694736795e-016 $187 6.2831853071795996 $111 $188 forward 7 unknown #
loop $-1 $-1 $118 $69 #
plane-surface $-1 -26.604580599070793 -23.869667274388519 52.98606411381499 0 0.6018150307709319 0.79863550430605224 1 0 0 forward_v I I I I #
loop $-1 $-1 $189 $45 #
coedge $-1 $116 $116 $117 $190 reversed $70 $-1 #
coedge $-1 $117 $117 $116 $190 forward $72 $-1 #
coedge $-1 $118 $118 $73 $119 forward $113 $-1 #
edge $-1 $191 -5.759829694736795e-016 $191 6.2831853071795996 $118 $192 forward 7 unknown #
face $-1 $193 $194 $18 $-1 $195 reversed single #
loop $-1 $-1 $130 $74 #
plane-surface $-1 0 0 -17.691390582150344 0 0 1 1 0 0 forward_v I I I I #
coedge $-1 $196 $197 $78 $129 forward $75 $-1 #
coedge $-1 $198 $77 $199 $200 reversed $49 $-1 #
coedge $-1 $77 $198 $201 $202 forward $49 $-1 #
coedge $-1 $203 $204 $77 $127 forward $121 $-1 #
edge $-1 $205 -39.964550313357989 $206 39.964550313357989 $77 $207 forward 7 unknown #
coedge $-1 $79 $78 $208 $209 forward $31 $-1 #
edge $-1 $210 -39.964550313357989 $135 39.964550313357989 $78 $211 forward 7 unknown #
coedge $-1 $204 $203 $79 $131 forward $121 $-1 #
edge $-1 $136 -39.964550313357989 $212 39.964550313357989 $79 $213 forward 7 unknown #
coedge $-1 $201 $80 $203 $214 reversed $134 $-1 #
coedge $-1 $80 $201 $196 $215 reversed $134 $-1 #
loop $-1 $-1 $80 $193 #
vertex $-1 $129 $216 #
vertex $-1 $131 $217 #
straight-curve $-1 60.590227973265783 39.964550313357989 0 0 0 -1 I I #
face $-1 $218 $150 $19 $-1 $219 reversed single #
loop $-1 $-1 $220 $82 #
plane-surface $-1 -82.802919677703343 -15.155301688105478 0 1 0 0 0 0 -1 forward_v I I I I #
coedge $-1 $221 $222 $223 $224 forward $83 $-1 #
coedge $-1 $225 $85 $221 $226 forward $53 $-1 #
coedge $-1 $85 $225 $148 $227 forward $53 $-1 #
edge $-1 $151 12.102137083381152 $228 18.208466292829804 $85 $229 forward 7 unknown #
coedge $-1 $87 $86 $230 $231 forward $34 $-1 #
coedge $-1 $232 $233 $86 $147 forward $234 $-1 #
edge $-1 $235 -18.208466292829804 $152 -12.102137083381152 $146 $236 forward 7 unknown #
coedge $-1 $237 $88 $143 $227 reversed $150 $-1 #
coedge $-1 $88 $237 $232 $238 reversed $150 $-1 #
loop $-1 $-1 $88 $138 #
vertex $-1 $144 $239 #
vertex $-1 $238 $240 #
straight-curve $-1 -60.590227973265783 -12.102137083381152 0 0 0 1 I I #
face $-1 $241 $242 $20 $-1 $243 reversed single #
loop $-1 $-1 $244 $90 #
plane-surface $-1 68.886802844663336 0 0.17532251403011045 0 0 1 1 0 0 forward_v I I I I #
coedge $-1 $165 $164 $245 $246 forward $91 $-1 #
coedge $-1 $247 $93 $248 $249 reversed $57 $-1 #
coedge $-1 $93 $247 $164 $250 reversed $57 $-1 #
edge $-1 $166 -9.9908668881069822 $251 -0.17532251403011045 $93 $252 forward 7 unknown #
coedge $-1 $95 $94 $253 $254 forward $37 $-1 #
coedge $-1 $255 $256 $94 $163 forward $257 $-1 #
edge $-1 $258 0.17532251403011045 $167 9.9908668881069822 $162 $259 forward 7 unknown #
coedge $-1 $157 $96 $159 $250 forward $91 $-1 #
coedge $-1 $96 $157 $255 $260 forward $91 $-1 #
vertex $-1 $160 $261 #
vertex $-1 $260 $262 #
straight-curve $-1 60.590227973265783 0 9.9908668881069822 0 1 0 I I #
face $-1 $-1 $181 $21 $-1 $263 forward single #
loop $-1 $-1 $264 $98 #
plane-surface $-1 0 39.964550313357989 0 0 -1 0 0 0 -1 forward_v I I I I #
coedge $-1 $265 $266 $267 $268 reversed $99 $-1 #
coedge $-1 $269 $101 $103 $179 forward $61 $-1 #
coedge $-1 $101 $269 $265 $270 forward $61 $-1 #
coedge $-1 $267 $104 $101 $176 forward $181 $-1 #
edge $-1 $183 -25.075245969292826 $271 -1.5293346297779689 $175 $272 forward 7 unknown #
coedge $-1 $273 $274 $102 $178 forward $170 $-1 #
edge $-1 $275 -69.999009369700275 $182 -57.191148748204938 $177 $276 forward 7 unknown #
edge $-1 $183 58.647045565564838 $275 79.929100626715979 $103 $277 forward 7 unknown #
coedge $-1 $104 $267 $273 $278 forward $181 $-1 #
loop $-1 $-1 $267 $169 #
vertex $-1 $178 $279 #
vertex $-1 $105 $280 #
straight-curve $-1 -38.377536268828223 24.529276274954469 17.691390582150348 0 -1 0 I I #
coedge $-1 $185 $185 $-1 $281 reversed $108 $-1 #
edge $-1 $282 0 $282 6.2831853071796004 $109 $283 forward 7 unknown #
vertex $-1 $112 $284 #
ellipse-curve $-1 -31.650133028966835 31.466247925142188 11.287460271402674 0 0.6018150307709319 0.79863550430605224 3 0 0 1 I I #
coedge $-1 $189 $189 $-1 $285 reversed $115 $-1 #
edge $-1 $286 0 $286 6.2831853071796004 $116 $287 forward 7 unknown #
vertex $-1 $119 $288 #
ellipse-curve $-1 -21.559028169174752 31.466247925142188 11.287460271402674 0 0.6018150307709319 0.79863550430605224 3 0 0 1 I I #
face $-1 $-1 $134 $18 $-1 $289 reversed single #
loop $-1 $-1 $199 $120 #
plane-surface $-1 0 -39.964550313357989 0 0 1 0 0 0 1 forward_v I I I I #
coedge $-1 $290 $123 $133 $215 forward $75 $-1 #
coedge $-1 $123 $290 $291 $292 forward $75 $-1 #
coedge $-1 $125 $124 $290 $293 reversed $49 $-1 #
coedge $-1 $294 $291 $124 $200 forward $194 $-1 #
edge $-1 $295 -17.691390582150344 $205 17.691390582150344 $124 $296 forward 7 unknown #
coedge $-1 $133 $132 $125 $202 reversed $134 $-1 #
edge $-1 $297 -17.691390582150344 $206 17.691390582150344 $201 $298 forward 7 unknown #
coedge $-1 $130 $126 $132 $214 forward $121 $-1 #
coedge $-1 $126 $130 $294 $299 forward $121 $-1 #
vertex $-1 $127 $300 #
vertex $-1 $214 $301 #
straight-curve $-1 -60.590227973265783 0 -17.691390582150344 0 1 0 I I #
coedge $-1 $291 $294 $128 $209 reversed $194 $-1 #
edge $-1 $210 -17.691390582150344 $212 17.691390582150344 $128 $302 forward 7 unknown #
vertex $-1 $129 $303 #
straight-curve $-1 60.590227973265783 0 17.691390582150344 0 1 0 I I #
vertex $-1 $209 $304 #
straight-curve $-1 60.590227973265783 0 -17.691390582150344 0 -1 0 I I #
edge $-1 $206 -60.590227973265783 $136 60.590227973265783 $132 $305 forward 7 unknown #
edge $-1 $135 -60.590227973265783 $297 60.590227973265783 $133 $306 forward 7 unknown #
point $-1 60.590227973265783 39.964550313357989 17.691390582150344 #
point $-1 60.590227973265783 39.964550313357989 -17.691390582150344 #
face $-1 $-1 $234 $19 $-1 $307 forward single #
plane-surface $-1 -71.696573825484563 -12.102137083381152 0 0 -1 0 0 0 -1 forward_v I I I I #
coedge $-1 $308 $309 $237 $310 forward $139 $-1 #
coedge $-1 $230 $141 $142 $226 reversed $83 $-1 #
coedge $-1 $141 $230 $233 $311 reversed $83 $-1 #
coedge $-1 $309 $308 $141 $224 reversed $139 $-1 #
edge $-1 $312 -17.691390582150344 $313 17.691390582150344 $223 $314 forward 7 unknown #
coedge $-1 $143 $142 $308 $315 forward $53 $-1 #
edge $-1 $228 -11.10634585221878 $313 11.10634585221878 $221 $316 forward 7 unknown #
edge $-1 $317 -11.10634585221878 $151 11.10634585221878 $148 $318 forward 7 unknown #
vertex $-1 $226 $319 #
straight-curve $-1 -60.590227973265783 0 -17.691390582150344 0 -1 0 I I #
coedge $-1 $222 $221 $145 $231 reversed $83 $-1 #
edge $-1 $235 -17.691390582150344 $228 17.691390582150344 $230 $320 forward 7 unknown #
coedge $-1 $321 $146 $149 $238 forward $234 $-1 #
coedge $-1 $146 $321 $222 $311 forward $234 $-1 #
loop $-1 $-1 $146 $218 #
vertex $-1 $147 $322 #
straight-curve $-1 -60.590227973265783 0 17.691390582150344 0 1 0 I I #
coedge $-1 $149 $148 $220 $310 reversed $150 $-1 #
edge $-1 $152 -11.10634585221878 $323 11.10634585221878 $149 $324 forward 7 unknown #
point $-1 -60.590227973265783 -12.102137083381152 -17.691390582150344 #
point $-1 -60.590227973265783 -12.102137083381152 17.691390582150344 #
face $-1 $-1 $257 $20 $-1 $325 reversed single #
loop $-1 $-1 $326 $154 #
plane-surface $-1 77.183377716060903 0 5.0830947010685463 -1 0 0 0 0 1 forward_v I I I I #
coedge $-1 $248 $327 $328 $329 forward $155 $-1 #
coedge $-1 $326 $330 $157 $246 reversed $242 $-1 #
edge $-1 $331 -39.964550313357989 $332 39.964550313357989 $245 $333 forward 7 unknown #
coedge $-1 $159 $158 $326 $334 reversed $57 $-1 #
coedge $-1 $253 $244 $158 $249 forward $155 $-1 #
edge $-1 $335 -8.2965748713975671 $251 8.2965748713975671 $158 $336 forward 7 unknown #
edge $-1 $166 -8.2965748713975671 $331 8.2965748713975671 $159 $337 forward 7 unknown #
vertex $-1 $160 $338 #
straight-curve $-1 60.590227973265783 -39.964550313357989 0 0 0 -1 I I #
coedge $-1 $327 $248 $161 $254 reversed $155 $-1 #
edge $-1 $258 -39.964550313357989 $251 39.964550313357989 $253 $339 forward 7 unknown #
coedge $-1 $340 $162 $165 $260 reversed $257 $-1 #
coedge $-1 $162 $340 $327 $341 reversed $257 $-1 #
loop $-1 $-1 $162 $241 #
vertex $-1 $163 $342 #
straight-curve $-1 60.590227973265783 39.964550313357989 0 0 0 1 I I #
edge $-1 $332 -8.2965748713975671 $167 8.2965748713975671 $255 $343 forward 7 unknown #
point $-1 60.590227973265769 -39.964550313357989 9.9908668881069822 #
point $-1 60.590227973265769 39.964550313357989 9.9908668881069822 #
plane-surface $-1 0 0 17.691390582150344 0 0 1 1 0 0 forward_v I I I I #
coedge $-1 $274 $273 $266 $344 forward $170 $-1 #
coedge $-1 $266 $172 $174 $270 reversed $99 $-1 #
coedge $-1 $172 $265 $264 $344 reversed $99 $-1 #
coedge $-1 $180 $175 $172 $268 forward $181 $-1 #
edge $-1 $271 -1.5613307380280972 $345 15.43527403840352 $267 $346 forward 7 unknown #
coedge $-1 $174 $173 $274 $347 reversed $61 $-1 #
edge $-1 $348 -79.929100626715979 $271 -58.647045565564838 $265 $349 forward 7 unknown #
vertex $-1 $176 $350 #
straight-curve $-1 -13.302290299535397 22.967945536926376 17.691390582150341 1 0 0 I I #
coedge $-1 $264 $177 $180 $278 reversed $170 $-1 #
coedge $-1 $177 $264 $269 $347 forward $170 $-1 #
vertex $-1 $178 $351 #
straight-curve $-1 -38.377536268828223 39.964550313357989 74.882539330355286 0 0 1 I I #
straight-curve $-1 -38.377536268828223 -23.869667274388519 52.98606411381499 0 0.79863550430605224 -0.6018150307709319 I I #
edge $-1 $345 14.831624929313366 $182 38.377536268828223 $273 $352 forward 7 unknown #
point $-1 -38.377536268828223 39.964550313357989 17.691390582150344 #
point $-1 -38.377536268828223 22.967945536926372 17.691390582150348 #
edge $-1 $353 1 $353 0 $185 $-1 forward 7 unknown #
vertex $-1 $186 $354 #
ellipse-curve $-1 -31.650133028966835 29.259954020103905 8.3596094278628517 0 0.6018150307709319 0.79863550430605224 3 0 0 1 I I #
point $-1 -28.650133028966835 31.466247925142174 11.287460271402658 #
edge $-1 $355 1 $355 0 $189 $-1 forward 7 unknown #
vertex $-1 $190 $356 #
ellipse-curve $-1 -21.559028169174752 29.259954020103905 8.3596094278628517 0 0.6018150307709319 0.79863550430605224 3 0 0 1 I I #
point $-1 -18.559028169174752 31.466247925142174 11.287460271402658 #
plane-surface $-1 0 39.964550313357989 0 0 -1 0 0 0 -1 forward_v I I I I #
coedge $-1 $197 $196 $198 $293 forward $75 $-1 #
coedge $-1 $199 $208 $197 $292 reversed $194 $-1 #
edge $-1 $295 -60.590227973265783 $210 60.590227973265783 $291 $357 forward 7 unknown #
edge $-1 $297 -39.964550313357989 $295 39.964550313357989 $198 $358 forward 7 unknown #
coedge $-1 $208 $199 $204 $299 reversed $194 $-1 #
vertex $-1 $293 $359 #
straight-curve $-1 -60.590227973265783 -39.964550313357989 0 0 0 -1 I I #
vertex $-1 $215 $360 #
straight-curve $-1 -60.590227973265783 39.964550313357989 0 0 0 -1 I I #
edge $-1 $212 -60.590227973265783 $205 60.590227973265783 $294 $361 forward 7 unknown #
point $-1 -60.590227973265783 -39.964550313357989 -17.691390582150344 #
point $-1 -60.590227973265783 39.964550313357989 -17.691390582150344 #
straight-curve $-1 60.590227973265783 -39.964550313357989 0 0 0 -1 I I #
point $-1 60.590227973265783 -39.964550313357989 17.691390582150344 #
point $-1 60.590227973265783 -39.964550313357989 -17.691390582150344 #
straight-curve $-1 0 39.964550313357989 -17.691390582150344 1 0 0 I I #
straight-curve $-1 0 39.964550313357989 17.691390582150344 -1 0 0 I I #
plane-surface $-1 0 0 17.691390582150344 0 0 1 1 0 0 forward_v I I I I #
coedge $-1 $223 $220 $225 $315 reversed $139 $-1 #
coedge $-1 $220 $223 $321 $362 reversed $139 $-1 #
edge $-1 $323 -17.691390582150344 $317 17.691390582150344 $237 $363 forward 7 unknown #
edge $-1 $312 -11.10634585221878 $235 11.10634585221878 $222 $364 forward 7 unknown #
vertex $-1 $362 $365 #
vertex $-1 $315 $366 #
straight-curve $-1 -82.802919677703343 -18.208466292829804 0 0 0 -1 I I #
edge $-1 $313 -3.0531646047243264 $317 3.0531646047243264 $308 $367 forward 7 unknown #
straight-curve $-1 -71.696573825484563 -18.208466292829804 -17.691390582150344 -1 0 0 I I #
vertex $-1 $227 $368 #
straight-curve $-1 -71.696573825484563 -12.102137083381152 -17.691390582150344 1 0 0 I I #
point $-1 -60.590227973265783 -18.208466292829804 -17.691390582150344 #
straight-curve $-1 -60.590227973265783 -18.208466292829804 0 0 0 -1 I I #
coedge $-1 $233 $232 $309 $362 forward $234 $-1 #
point $-1 -60.590227973265783 -18.208466292829804 17.691390582150344 #
vertex $-1 $238 $369 #
straight-curve $-1 -71.696573825484563 -12.102137083381152 17.691390582150344 -1 0 0 I I #
plane-surface $-1 0 39.964550313357989 0 0 -1 0 0 0 -1 forward_v I I I I #
coedge $-1 $328 $245 $247 $334 forward $242 $-1 #
coedge $-1 $244 $253 $256 $341 forward $155 $-1 #
coedge $-1 $330 $326 $244 $329 reversed $242 $-1 #
edge $-1 $370 -39.964550313357989 $335 39.964550313357989 $328 $371 forward 7 unknown #
coedge $-1 $245 $328 $340 $372 reversed $242 $-1 #
vertex $-1 $246 $373 #
vertex $-1 $246 $374 #
straight-curve $-1 77.183377716060903 0 9.9908668881069822 0 1 0 I I #
edge $-1 $331 -4.9077721870384359 $335 4.9077721870384359 $326 $375 forward 7 unknown #
vertex $-1 $334 $376 #
straight-curve $-1 68.886802844663336 -39.964550313357989 0.17532251403011045 -1 0 0 I I #
straight-curve $-1 68.886802844663336 -39.964550313357989 9.9908668881069822 1 0 0 I I #
point $-1 60.590227973265769 -39.964550313357989 0.17532251403011045 #
straight-curve $-1 60.590227973265783 0 0.17532251403011045 0 -1 0 I I #
coedge $-1 $256 $255 $330 $372 forward $257 $-1 #
edge $-1 $258 -8.2965748713975671 $370 8.2965748713975671 $256 $377 forward 7 unknown #
point $-1 60.590227973265769 39.964550313357989 0.17532251403011045 #
straight-curve $-1 68.886802844663336 39.964550313357989 9.9908668881069822 -1 0 0 I I #
edge $-1 $345 57.191148748204938 $348 69.999009369700275 $264 $378 forward 7 unknown #
vertex $-1 $278 $379 #
straight-curve $-1 -14.831624929313366 24.529276274954469 17.691390582150348 0 1 0 I I #
edge $-1 $348 1.5293346297779689 $275 25.075245969292826 $274 $380 forward 7 unknown #
vertex $-1 $347 $381 #
straight-curve $-1 -14.831624929313366 -23.869667274388519 52.98606411381499 0 -0.79863550430605224 0.6018150307709319 I I #
point $-1 -14.831624929313366 22.967945536926372 17.691390582150348 #
point $-1 -38.377536268828223 39.964550313357989 4.8835299606550038 #
straight-curve $-1 0 39.964550313357989 17.691390582150344 -1 0 0 I I #
vertex $-1 $281 $382 #
point $-1 -28.650133028966835 29.259954020103905 8.3596094278628517 #
vertex $-1 $285 $383 #
point $-1 -18.559028169174752 29.259954020103905 8.3596094278628517 #
straight-curve $-1 0 -39.964550313357989 17.691390582150344 1 0 0 I I #
straight-curve $-1 -60.590227973265783 0 17.691390582150344 0 -1 0 I I #
point $-1 -60.590227973265783 -39.964550313357989 17.691390582150344 #
point $-1 -60.590227973265783 39.964550313357989 17.691390582150344 #
straight-curve $-1 0 -39.964550313357989 -17.691390582150344 -1 0 0 I I #
edge $-1 $323 -3.0531646047243264 $312 3.0531646047243264 $309 $384 forward 7 unknown #
straight-curve $-1 -82.802919677703343 -12.102137083381152 0 0 0 -1 I I #
straight-curve $-1 -71.696573825484563 -18.208466292829804 17.691390582150344 1 0 0 I I #
point $-1 -82.802919677703343 -18.208466292829804 17.691390582150344 #
point $-1 -82.802919677703343 -18.208466292829804 -17.691390582150344 #
straight-curve $-1 -82.802919677703343 -15.155301688105478 -17.691390582150344 0 1 0 I I #
point $-1 -82.802919677703343 -12.102137083381152 -17.691390582150344 #
point $-1 -82.802919677703343 -12.102137083381152 17.691390582150344 #
vertex $-1 $329 $385 #
straight-curve $-1 77.183377716060903 0 0.17532251403011045 0 -1 0 I I #
edge $-1 $332 -4.9077721870384359 $370 4.9077721870384359 $330 $386 forward 7 unknown #
point $-1 77.183377716060903 -39.964550313357989 9.9908668881069822 #
point $-1 77.183377716060903 39.964550313357989 9.9908668881069822 #
straight-curve $-1 77.183377716060903 -39.964550313357989 5.0830947010685463 0 0 -1 I I #
point $-1 77.183377716060903 -39.964550313357989 0.17532251403011045 #
straight-curve $-1 68.886802844663336 39.964550313357989 0.17532251403011045 1 0 0 I I #
straight-curve $-1 -14.831624929313366 39.964550313357989 74.882539330355286 0 0 -1 I I #
point $-1 -14.831624929313366 39.964550313357989 17.691390582150344 #
straight-curve $-1 -13.302290299535397 39.964550313357989 4.8835299606550073 -1 0 0 I I #
point $-1 -14.831624929313366 39.964550313357989 4.8835299606550038 #
point $-1 -31.650133028966835 27.45450892779111 5.9637029149446956 #
point $-1 -21.559028169174752 27.45450892779111 5.9637029149446956 #
straight-curve $-1 -82.802919677703343 -15.155301688105478 17.691390582150344 0 -1 0 I I #
point $-1 77.183377716060903 39.964550313357989 0.17532251403011045 #
straight-curve $-1 77.183377716060903 39.964550313357989 5.0830947010685463 0 0 -1 I I #
End-of-ACIS-data 