500 0 10 0           
7 Unknown 11 ACIS 5.0 NT 24 Thu Mar 25 20:12:47 1999 
-1 9.9999999999999995e-007 1e-010 
body $-1 $10 $-1 $11 #
body $-1 $12 $-1 $13 #
body $-1 $14 $-1 $15 #
body $-1 $16 $-1 $17 #
body $-1 $18 $-1 $19 #
body $-1 $20 $-1 $21 #
body $-1 $22 $-1 $23 #
body $-1 $24 $-1 $25 #
body $-1 $26 $-1 $27 #
body $-1 $28 $-1 $29 #
lump $-1 $-1 $30 $0 #
transform $-1 1 0 0 0 1 0 0 0 1 47.787102877895443 22.173087396922107 9.5410523716435112 1 rotate no_reflect no_shear #
lump $-1 $-1 $31 $1 #
transform $-1 1 0 0 0 1 0 0 0 1 47.787102877895443 22.173087396922107 9.5410523716435112 1 rotate no_reflect no_shear #
lump $-1 $-1 $32 $2 #
transform $-1 1 0 0 0 1 0 0 0 1 47.787102877895443 22.173087396922107 9.5410523716435112 1 rotate no_reflect no_shear #
lump $-1 $-1 $33 $3 #
transform $-1 1 0 0 0 1 0 0 0 1 47.787102877895443 22.173087396922107 9.5410523716435112 1 rotate no_reflect no_shear #
lump $-1 $-1 $34 $4 #
transform $-1 1 0 0 0 1 0 0 0 1 47.787102877895443 22.173087396922107 9.5410523716435112 1 rotate no_reflect no_shear #
lump $-1 $-1 $35 $5 #
transform $-1 1 0 0 0 1 0 0 0 1 47.787102877895443 22.173087396922107 9.5410523716435112 1 rotate no_reflect no_shear #
lump $-1 $-1 $36 $6 #
transform $-1 1 0 0 0 1 0 0 0 1 47.787102877895443 22.173087396922107 9.5410523716435112 1 rotate no_reflect no_shear #
lump $-1 $-1 $37 $7 #
transform $-1 1 0 0 0 1 0 0 0 1 47.787102877895443 22.173087396922107 9.5410523716435112 1 rotate no_reflect no_shear #
lump $-1 $-1 $38 $8 #
transform $-1 1 0 0 0 1 0 0 0 1 47.787102877895443 22.173087396922107 9.5410523716435112 1 rotate no_reflect no_shear #
lump $-1 $-1 $39 $9 #
transform $-1 1 0 0 0 1 0 0 0 1 47.787102877895443 22.173087396922107 9.5410523716435112 1 rotate no_reflect no_shear #
shell $-1 $-1 $-1 $40 $-1 $10 #
shell $-1 $-1 $-1 $41 $-1 $12 #
shell $-1 $-1 $-1 $42 $-1 $14 #
shell $-1 $-1 $-1 $43 $-1 $16 #
shell $-1 $-1 $-1 $44 $-1 $18 #
shell $-1 $-1 $-1 $45 $-1 $20 #
shell $-1 $-1 $-1 $46 $-1 $22 #
shell $-1 $-1 $-1 $47 $-1 $24 #
shell $-1 $-1 $-1 $48 $-1 $26 #
shell $-1 $-1 $-1 $49 $-1 $28 #
face $-1 $50 $51 $30 $-1 $52 forward single #
face $-1 $53 $54 $31 $-1 $55 forward single #
face $-1 $56 $57 $32 $-1 $58 reversed single #
face $-1 $59 $60 $33 $-1 $61 reversed single #
face $-1 $62 $63 $34 $-1 $64 forward single #
face $-1 $65 $66 $35 $-1 $67 forward single #
face $-1 $68 $69 $36 $-1 $70 forward single #
face $-1 $71 $72 $37 $-1 $73 reversed single #
face $-1 $74 $75 $38 $-1 $76 forward single #
face $-1 $77 $78 $39 $-1 $79 forward single #
face $-1 $80 $81 $30 $-1 $82 reversed single #
loop $-1 $-1 $83 $40 #
plane-surface $-1 0 0 9.5410523716435112 0 0 1 1 0 0 forward_v I I I I #
face $-1 $84 $85 $31 $-1 $86 reversed single #
loop $-1 $-1 $87 $41 #
plane-surface $-1 -41.706496762203095 0 4.1211273653835985 0 0 1 1 0 0 forward_v I I I I #
face $-1 $88 $89 $32 $-1 $90 reversed single #
loop $-1 $-1 $91 $42 #
plane-surface $-1 39.005531902197781 -20.673087396922107 0 1 0 0 0 0 -1 forward_v I I I I #
face $-1 $92 $93 $33 $-1 $94 reversed single #
loop $-1 $-1 $95 $43 #
plane-surface $-1 -5.011105094212553 -98.502042744059537 58.355211376500044 1 0 0 0 0.79863551827123203 -0.60181501223851219 forward_v I I I I #
face $-1 $96 $97 $34 $-1 $98 forward single #
loop $-1 $99 $100 $44 #
cone-surface $-1 -2.1719360075135228 -18.349003941606981 4.7786906756235776 0 0.79863551827123203 -0.60181501223851219 1 0 0 1 I I 0 1 1 forward I I I I #
face $-1 $101 $102 $35 $-1 $103 forward single #
loop $-1 $104 $105 $45 #
cone-surface $-1 2.0868176225350226 -18.349003941606981 4.7786906756235776 0 0.79863551827123203 -0.60181501223851219 1 0 0 1 I I 0 1 1 forward I I I I #
face $-1 $106 $107 $36 $-1 $108 forward single #
loop $-1 $109 $110 $46 #
cone-surface $-1 6.3455712525835679 -18.349003941606981 4.7786906756235776 0 0.79863551827123203 -0.60181501223851219 1 0 0 1 I I 0 1 1 forward I I I I #
face $-1 $111 $112 $37 $-1 $113 reversed single #
loop $-1 $-1 $114 $47 #
plane-surface $-1 16.773717810102404 65.210148943318444 101.90477894434314 1 0 0 0 -0.75470958851134928 -0.65605901945558964 forward_v I I I I #
face $-1 $115 $116 $38 $-1 $117 forward single #
loop $-1 $118 $119 $48 #
cone-surface $-1 23.125664693558228 19.881998866471726 7.0843278616848382 0 -0.75470958851134928 -0.65605901945558964 1 0 0 1 I I 0 1 1 forward I I I I #
face $-1 $120 $121 $39 $-1 $122 forward single #
loop $-1 $123 $124 $49 #
cone-surface $-1 32.653585018741957 19.881998866471726 7.0843278616848382 0 -0.75470958851134928 -0.65605901945558964 1 0 0 1 I I 0 1 1 forward I I I I #
face $-1 $125 $126 $30 $-1 $127 reversed single #
loop $-1 $-1 $128 $50 #
plane-surface $-1 0 0 -9.5410523716435112 0 0 1 1 0 0 forward_v I I I I #
coedge $-1 $129 $130 $131 $132 forward $51 $-1 #
face $-1 $133 $134 $31 $-1 $135 reversed single #
loop $-1 $-1 $136 $53 #
plane-surface $-1 -41.706496762203095 0 1.1211273653835985 0 0 1 1 0 0 forward_v I I I I #
coedge $-1 $137 $138 $139 $140 forward $54 $-1 #
face $-1 $141 $142 $32 $-1 $143 forward single #
loop $-1 $-1 $144 $56 #
plane-surface $-1 43.396317390046612 -19.173087396922107 0 0 -1 0 0 0 -1 forward_v I I I I #
coedge $-1 $145 $146 $147 $148 forward $57 $-1 #
face $-1 $149 $150 $33 $-1 $151 reversed single #
loop $-1 $-1 $152 $59 #
plane-surface $-1 2.0868176225350226 -22.173087396922114 0.83721956989266744 0 -0.79863551827123203 0.60181501223851219 1 0 0 forward_v I I I I #
coedge $-1 $153 $154 $155 $156 reversed $60 $-1 #
face $-1 $-1 $157 $34 $-1 $158 forward single #
loop $-1 $159 $160 $62 #
cone-surface $-1 -2.1719360075135228 -17.405006863505136 4.0673378743598114 0 0.79863551827123203 -0.60181501223851219 0.5 0 0 1 I I -0.70710678118654746 0.70710678118654746 0.5 forward I I I I #
loop $-1 $-1 $161 $44 #
coedge $-1 $100 $100 $162 $163 reversed $63 $-1 #
face $-1 $-1 $164 $35 $-1 $165 forward single #
loop $-1 $166 $167 $65 #
cone-surface $-1 2.0868176225350226 -17.405006863505136 4.0673378743598114 0 0.79863551827123203 -0.60181501223851219 0.5 0 0 1 I I -0.70710678118654746 0.70710678118654746 0.5 forward I I I I #
loop $-1 $-1 $168 $45 #
coedge $-1 $105 $105 $169 $170 reversed $66 $-1 #
face $-1 $-1 $171 $36 $-1 $172 forward single #
loop $-1 $173 $174 $68 #
cone-surface $-1 6.3455712525835679 -17.405006863505136 4.0673378743598114 0 0.79863551827123203 -0.60181501223851219 0.5 0 0 1 I I -0.70710678118654746 0.70710678118654746 0.5 forward I I I I #
loop $-1 $-1 $175 $46 #
coedge $-1 $110 $110 $176 $177 reversed $69 $-1 #
face $-1 $178 $179 $37 $-1 $180 reversed single #
loop $-1 $-1 $181 $71 #
plane-surface $-1 27.889624856150085 -6.9206205549335209 39.202459230952194 0 0.75470958851134928 0.65605901945558964 1 0 0 forward_v I I I I #
coedge $-1 $182 $183 $184 $185 reversed $72 $-1 #
face $-1 $-1 $186 $38 $-1 $187 forward single #
loop $-1 $188 $189 $74 #
cone-surface $-1 23.125664693558228 18.868276042766297 6.2031120777012827 0 -0.75470958851134928 -0.65605901945558964 0.5 0 0 1 I I -0.70710678118654746 0.70710678118654746 0.5 forward I I I I #
loop $-1 $-1 $190 $48 #
coedge $-1 $119 $119 $191 $192 reversed $75 $-1 #
face $-1 $-1 $193 $39 $-1 $194 forward single #
loop $-1 $195 $196 $77 #
cone-surface $-1 32.653585018741957 18.868276042766297 6.2031120777012827 0 -0.75470958851134928 -0.65605901945558964 0.5 0 0 1 I I -0.70710678118654746 0.70710678118654746 0.5 forward I I I I #
loop $-1 $-1 $197 $49 #
coedge $-1 $124 $124 $198 $199 reversed $78 $-1 #
face $-1 $200 $201 $30 $-1 $202 reversed single #
loop $-1 $-1 $203 $80 #
plane-surface $-1 0 -22.173087396922107 0 0 1 0 0 0 1 forward_v I I I I #
coedge $-1 $204 $205 $206 $207 forward $81 $-1 #
coedge $-1 $208 $83 $209 $210 forward $51 $-1 #
coedge $-1 $83 $208 $211 $212 forward $51 $-1 #
coedge $-1 $213 $214 $83 $132 reversed $215 $-1 #
edge $-1 $216 -22.173087396922107 $217 22.173087396922107 $131 $218 forward 7 unknown #
face $-1 $219 $220 $31 $-1 $221 reversed single #
loop $-1 $-1 $222 $84 #
plane-surface $-1 -35.625890646510747 0 2.6211273653835985 -1 0 0 0 0 1 forward_v I I I I #
coedge $-1 $223 $224 $225 $226 forward $85 $-1 #
coedge $-1 $227 $87 $228 $229 reversed $54 $-1 #
coedge $-1 $87 $227 $230 $231 reversed $54 $-1 #
coedge $-1 $222 $232 $87 $140 reversed $134 $-1 #
edge $-1 $233 -22.173087396922107 $234 22.173087396922107 $139 $235 forward 7 unknown #
face $-1 $236 $237 $32 $-1 $238 reversed single #
loop $-1 $-1 $239 $88 #
plane-surface $-1 0 0 9.5410523716435112 0 0 1 1 0 0 forward_v I I I I #
coedge $-1 $240 $241 $242 $243 reversed $89 $-1 #
coedge $-1 $244 $91 $245 $246 reversed $57 $-1 #
coedge $-1 $91 $244 $247 $248 reversed $57 $-1 #
coedge $-1 $241 $240 $91 $148 reversed $89 $-1 #
edge $-1 $249 -9.5410523716435112 $250 9.5410523716435112 $147 $251 forward 7 unknown #
face $-1 $252 $253 $33 $-1 $254 reversed single #
loop $-1 $-1 $255 $92 #
plane-surface $-1 9.1847403392825981 -98.502042744059537 58.355211376500044 -1 0 0 0 -0.79863551827123203 0.60181501223851219 forward_v I I I I #
coedge $-1 $256 $257 $258 $259 reversed $93 $-1 #
coedge $-1 $154 $95 $260 $261 reversed $60 $-1 #
coedge $-1 $95 $153 $256 $262 reversed $60 $-1 #
coedge $-1 $258 $263 $95 $156 forward $253 $-1 #
edge $-1 $264 19.636553316606509 $265 28.340386118357344 $155 $266 forward 7 unknown #
loop $-1 $-1 $162 $96 #
plane-surface $-1 2.0868176225350226 -22.173087396922114 0.83721956989266744 0 -0.79863551827123203 0.60181501223851219 1 0 0 forward_v I I I I #
loop $-1 $-1 $267 $62 #
coedge $-1 $160 $160 $161 $268 reversed $97 $-1 #
coedge $-1 $161 $161 $160 $268 forward $99 $-1 #
coedge $-1 $162 $162 $100 $163 forward $157 $-1 #
edge $-1 $269 2.8675751155890926e-015 $269 6.2831853071796031 $162 $270 forward 7 unknown #
loop $-1 $-1 $169 $101 #
plane-surface $-1 2.0868176225350226 -22.173087396922114 0.83721956989266744 0 -0.79863551827123203 0.60181501223851219 1 0 0 forward_v I I I I #
loop $-1 $-1 $271 $65 #
coedge $-1 $167 $167 $168 $272 reversed $102 $-1 #
coedge $-1 $168 $168 $167 $272 forward $104 $-1 #
coedge $-1 $169 $169 $105 $170 forward $164 $-1 #
edge $-1 $273 2.8675751155890926e-015 $273 6.2831853071796031 $169 $274 forward 7 unknown #
loop $-1 $-1 $176 $106 #
plane-surface $-1 2.0868176225350226 -22.173087396922114 0.83721956989266744 0 -0.79863551827123203 0.60181501223851219 1 0 0 forward_v I I I I #
loop $-1 $-1 $275 $68 #
coedge $-1 $174 $174 $175 $276 reversed $107 $-1 #
coedge $-1 $175 $175 $174 $276 forward $109 $-1 #
coedge $-1 $176 $176 $110 $177 forward $171 $-1 #
edge $-1 $277 2.8675751155890926e-015 $277 6.2831853071796031 $176 $278 forward 7 unknown #
face $-1 $279 $280 $37 $-1 $281 reversed single #
loop $-1 $-1 $282 $111 #
plane-surface $-1 39.005531902197767 65.210148943318444 101.90477894434314 -1 0 0 0 0.75470958851134928 0.65605901945558964 forward_v I I I I #
coedge $-1 $283 $284 $285 $286 reversed $112 $-1 #
coedge $-1 $183 $114 $287 $288 reversed $72 $-1 #
coedge $-1 $114 $182 $283 $289 reversed $72 $-1 #
coedge $-1 $285 $290 $114 $185 forward $291 $-1 #
edge $-1 $292 10.431987074737116 $293 13.741428076738398 $184 $294 forward 7 unknown #
loop $-1 $-1 $191 $115 #
plane-surface $-1 27.889624856150085 -6.9206205549335209 39.202459230952194 0 0.75470958851134928 0.65605901945558964 1 0 0 forward_v I I I I #
loop $-1 $-1 $295 $74 #
coedge $-1 $189 $189 $190 $296 reversed $116 $-1 #
coedge $-1 $190 $190 $189 $296 forward $118 $-1 #
coedge $-1 $191 $191 $119 $192 forward $186 $-1 #
edge $-1 $297 2.5856417844037322e-016 $297 6.2831853071796004 $191 $298 forward 7 unknown #
loop $-1 $-1 $198 $120 #
plane-surface $-1 27.889624856150085 -6.9206205549335209 39.202459230952194 0 0.75470958851134928 0.65605901945558964 1 0 0 forward_v I I I I #
loop $-1 $-1 $299 $77 #
coedge $-1 $196 $196 $197 $300 reversed $121 $-1 #
coedge $-1 $197 $197 $196 $300 forward $123 $-1 #
coedge $-1 $198 $198 $124 $199 forward $193 $-1 #
edge $-1 $301 2.5856417844037322e-016 $301 6.2831853071796004 $198 $302 forward 7 unknown #
face $-1 $303 $304 $30 $-1 $305 reversed single #
loop $-1 $-1 $306 $125 #
plane-surface $-1 -47.787102877895443 0 0 1 0 0 0 0 -1 forward_v I I I I #
coedge $-1 $307 $211 $308 $309 forward $126 $-1 #
coedge $-1 $310 $128 $307 $311 forward $81 $-1 #
coedge $-1 $128 $310 $312 $313 forward $81 $-1 #
coedge $-1 $214 $213 $128 $207 reversed $215 $-1 #
edge $-1 $314 -22.173087396922107 $315 22.173087396922107 $206 $316 forward 7 unknown #
coedge $-1 $130 $129 $317 $318 forward $51 $-1 #
coedge $-1 $319 $320 $129 $210 reversed $304 $-1 #
edge $-1 $217 -47.787102877895443 $321 47.787102877895443 $209 $322 forward 7 unknown #
coedge $-1 $203 $323 $130 $212 reversed $126 $-1 #
edge $-1 $324 -47.787102877895443 $216 47.787102877895443 $211 $325 forward 7 unknown #
coedge $-1 $206 $131 $323 $326 forward $215 $-1 #
coedge $-1 $131 $206 $319 $327 reversed $215 $-1 #
loop $-1 $-1 $213 $303 #
vertex $-1 $132 $328 #
vertex $-1 $132 $329 #
straight-curve $-1 47.787102877895443 0 9.5410523716435112 0 1 0 I I #
face $-1 $330 $331 $31 $-1 $332 reversed single #
loop $-1 $-1 $333 $133 #
plane-surface $-1 0 -22.173087396922107 0 0 1 0 0 0 1 forward_v I I I I #
coedge $-1 $225 $139 $334 $335 reversed $134 $-1 #
coedge $-1 $336 $136 $333 $337 reversed $85 $-1 #
coedge $-1 $136 $336 $338 $339 reversed $85 $-1 #
coedge $-1 $232 $222 $136 $226 reversed $134 $-1 #
edge $-1 $340 -22.173087396922107 $341 22.173087396922107 $225 $342 forward 7 unknown #
coedge $-1 $138 $137 $343 $344 reversed $54 $-1 #
coedge $-1 $345 $346 $137 $229 forward $347 $-1 #
edge $-1 $348 -26.933854496793895 $234 -14.7726422654092 $228 $349 forward 7 unknown #
coedge $-1 $350 $334 $138 $231 forward $220 $-1 #
edge $-1 $233 14.7726422654092 $351 26.933854496793895 $230 $352 forward 7 unknown #
coedge $-1 $139 $225 $345 $353 reversed $134 $-1 #
vertex $-1 $231 $354 #
vertex $-1 $229 $355 #
straight-curve $-1 -35.625890646510747 0 4.1211273653835985 0 1 0 I I #
face $-1 $356 $357 $32 $-1 $358 reversed single #
loop $-1 $-1 $359 $141 #
plane-surface $-1 0 -22.173087396922107 0 0 1 0 0 0 1 forward_v I I I I #
coedge $-1 $247 $360 $241 $361 forward $142 $-1 #
coedge $-1 $147 $144 $362 $363 reversed $89 $-1 #
coedge $-1 $144 $147 $239 $361 reversed $89 $-1 #
coedge $-1 $364 $365 $144 $243 forward $366 $-1 #
edge $-1 $367 -9.5410523716435112 $368 9.5410523716435112 $242 $369 forward 7 unknown #
coedge $-1 $146 $145 $359 $370 reversed $57 $-1 #
coedge $-1 $362 $371 $145 $246 forward $357 $-1 #
edge $-1 $372 -11.836543698461053 $250 -8.8365436984610533 $245 $373 forward 7 unknown #
coedge $-1 $374 $239 $146 $248 forward $142 $-1 #
edge $-1 $249 8.8365436984610533 $375 11.836543698461053 $247 $376 forward 7 unknown #
vertex $-1 $248 $377 #
vertex $-1 $246 $378 #
straight-curve $-1 39.005531902197781 -19.173087396922107 0 0 0 -1 I I #
face $-1 $-1 $379 $33 $-1 $380 forward single #
loop $-1 $-1 $155 $149 #
plane-surface $-1 0 -22.173087396922107 0 0 1 0 0 0 1 forward_v I I I I #
coedge $-1 $381 $382 $383 $384 reversed $150 $-1 #
coedge $-1 $385 $152 $154 $262 forward $93 $-1 #
coedge $-1 $152 $385 $381 $386 forward $93 $-1 #
coedge $-1 $383 $155 $152 $259 forward $253 $-1 #
edge $-1 $265 -6.0545139054800643 $387 8.1413315280150869 $258 $388 forward 7 unknown #
coedge $-1 $389 $390 $153 $261 forward $379 $-1 #
edge $-1 $391 -33.636742247805451 $264 -27.077933975107662 $260 $392 forward 7 unknown #
edge $-1 $265 1.1812792947853924e-014 $391 10.898379301476114 $154 $393 forward 7 unknown #
coedge $-1 $155 $383 $389 $394 reversed $253 $-1 #
vertex $-1 $394 $395 #
vertex $-1 $156 $396 #
straight-curve $-1 -5.011105094212553 -22.173087396922107 29.177605688250022 0 0 -1 I I #
coedge $-1 $267 $267 $-1 $397 reversed $159 $-1 #
edge $-1 $398 0 $398 6.2831853071796004 $160 $399 forward 7 unknown #
vertex $-1 $163 $400 #
ellipse-curve $-1 -2.1719360075135228 -18.893683260573216 5.189135970768092 0 -0.79863551827123203 0.60181501223851219 1 0 0 1 I I #
coedge $-1 $271 $271 $-1 $401 reversed $166 $-1 #
edge $-1 $402 0 $402 6.2831853071796004 $167 $403 forward 7 unknown #
vertex $-1 $170 $404 #
ellipse-curve $-1 2.0868176225350226 -18.893683260573216 5.189135970768092 0 -0.79863551827123203 0.60181501223851219 1 0 0 1 I I #
coedge $-1 $275 $275 $-1 $405 reversed $173 $-1 #
edge $-1 $406 0 $406 6.2831853071796004 $174 $407 forward 7 unknown #
vertex $-1 $177 $408 #
ellipse-curve $-1 6.3455712525835679 -18.893683260573216 5.189135970768092 0 -0.79863551827123203 0.60181501223851219 1 0 0 1 I I #
face $-1 $-1 $291 $37 $-1 $409 forward single #
loop $-1 $-1 $410 $178 #
plane-surface $-1 0 22.173087396922107 0 0 -1 0 0 0 -1 forward_v I I I I #
coedge $-1 $411 $412 $413 $414 reversed $179 $-1 #
coedge $-1 $415 $181 $183 $289 forward $112 $-1 #
coedge $-1 $181 $415 $411 $416 forward $112 $-1 #
coedge $-1 $413 $184 $181 $286 forward $291 $-1 #
edge $-1 $293 2.8289053820273615 $417 25.060719474122724 $285 $418 forward 7 unknown #
coedge $-1 $419 $420 $182 $288 forward $280 $-1 #
edge $-1 $421 -45.218413571933922 $292 -41.411337100528058 $287 $422 forward 7 unknown #
edge $-1 $293 39.301749057959192 $421 44.346174793844234 $183 $423 forward 7 unknown #
coedge $-1 $184 $413 $419 $424 forward $291 $-1 #
loop $-1 $-1 $413 $279 #
vertex $-1 $288 $425 #
vertex $-1 $185 $426 #
straight-curve $-1 16.773717810102404 32.605074471659222 9.5410523716435094 0 -1 0 I I #
coedge $-1 $295 $295 $-1 $427 reversed $188 $-1 #
edge $-1 $428 0 $428 6.2831853071796004 $189 $429 forward 7 unknown #
vertex $-1 $192 $430 #
ellipse-curve $-1 23.125664693558228 20.51836689592146 7.6375141359405827 0 0.75470958851134928 0.65605901945558964 1 0 0 1 I I #
coedge $-1 $299 $299 $-1 $431 reversed $195 $-1 #
edge $-1 $432 0 $432 6.2831853071796004 $196 $433 forward 7 unknown #
vertex $-1 $199 $434 #
ellipse-curve $-1 32.653585018741957 20.51836689592146 7.6375141359405827 0 0.75470958851134928 0.65605901945558964 1 0 0 1 I I #
face $-1 $-1 $215 $30 $-1 $435 reversed single #
loop $-1 $-1 $319 $200 #
plane-surface $-1 0 22.173087396922107 0 0 -1 0 0 0 -1 forward_v I I I I #
coedge $-1 $436 $317 $320 $437 forward $201 $-1 #
coedge $-1 $323 $203 $204 $311 reversed $126 $-1 #
coedge $-1 $317 $436 $203 $309 reversed $201 $-1 #
edge $-1 $324 -9.5410523716435112 $438 9.5410523716435112 $308 $439 forward 7 unknown #
coedge $-1 $205 $204 $436 $440 forward $81 $-1 #
edge $-1 $315 -47.787102877895443 $438 47.787102877895443 $307 $441 forward 7 unknown #
coedge $-1 $320 $319 $205 $313 reversed $304 $-1 #
edge $-1 $442 -47.787102877895443 $314 47.787102877895443 $312 $443 forward 7 unknown #
vertex $-1 $207 $444 #
vertex $-1 $326 $445 #
straight-curve $-1 47.787102877895443 0 -9.5410523716435112 0 -1 0 I I #
coedge $-1 $306 $308 $208 $318 reversed $201 $-1 #
edge $-1 $321 -22.173087396922107 $324 22.173087396922107 $317 $446 forward 7 unknown #
coedge $-1 $312 $209 $214 $327 forward $304 $-1 #
coedge $-1 $209 $312 $306 $437 reversed $304 $-1 #
vertex $-1 $210 $447 #
straight-curve $-1 0 22.173087396922107 9.5410523716435112 -1 0 0 I I #
coedge $-1 $211 $307 $213 $326 reversed $126 $-1 #
vertex $-1 $318 $448 #
straight-curve $-1 0 -22.173087396922107 9.5410523716435112 1 0 0 I I #
edge $-1 $216 -9.5410523716435112 $315 9.5410523716435112 $213 $449 forward 7 unknown #
edge $-1 $217 -9.5410523716435112 $314 9.5410523716435112 $214 $450 forward 7 unknown #
point $-1 47.787102877895443 -22.173087396922107 9.5410523716435112 #
point $-1 47.787102877895443 22.173087396922107 9.5410523716435112 #
face $-1 $-1 $347 $31 $-1 $451 reversed single #
loop $-1 $-1 $452 $219 #
plane-surface $-1 -47.787102877895443 0 0 1 0 0 0 0 -1 forward_v I I I I #
coedge $-1 $334 $350 $223 $337 forward $220 $-1 #
coedge $-1 $230 $333 $222 $335 forward $220 $-1 #
edge $-1 $341 -0.18943631730820076 $233 2.8105636826917992 $334 $453 forward 7 unknown #
coedge $-1 $224 $223 $452 $454 reversed $85 $-1 #
edge $-1 $455 -26.933854496793895 $341 -14.7726422654092 $333 $456 forward 7 unknown #
coedge $-1 $346 $345 $224 $339 forward $347 $-1 #
edge $-1 $340 14.7726422654092 $457 26.933854496793895 $338 $458 forward 7 unknown #
vertex $-1 $339 $459 #
vertex $-1 $337 $460 #
straight-curve $-1 -35.625890646510747 0 1.1211273653835985 0 -1 0 I I #
coedge $-1 $461 $462 $227 $344 forward $331 $-1 #
edge $-1 $351 -22.173087396922107 $348 22.173087396922107 $343 $463 forward 7 unknown #
coedge $-1 $338 $228 $232 $353 forward $347 $-1 #
coedge $-1 $228 $338 $461 $464 reversed $347 $-1 #
loop $-1 $-1 $338 $330 #
vertex $-1 $464 $465 #
straight-curve $-1 -20.853248381101547 22.173087396922107 4.1211273653835985 1 0 0 I I #
coedge $-1 $333 $230 $462 $466 forward $220 $-1 #
vertex $-1 $466 $467 #
straight-curve $-1 -20.853248381101547 -22.173087396922107 4.1211273653835985 -1 0 0 I I #
edge $-1 $234 -2.8105636826917992 $340 0.18943631730820076 $345 $468 forward 7 unknown #
point $-1 -35.625890646510747 -22.173087396922107 4.1211273653835985 #
point $-1 -35.625890646510747 22.173087396922107 4.1211273653835985 #
face $-1 $-1 $366 $32 $-1 $469 reversed single #
loop $-1 $-1 $362 $236 #
plane-surface $-1 0 0 -9.5410523716435112 0 0 1 1 0 0 forward_v I I I I #
coedge $-1 $470 $471 $244 $370 forward $237 $-1 #
coedge $-1 $239 $374 $364 $472 forward $142 $-1 #
edge $-1 $368 -26.088944182872137 $249 -17.307373207174475 $239 $473 forward 7 unknown #
coedge $-1 $474 $245 $240 $363 forward $357 $-1 #
edge $-1 $250 17.307373207174475 $367 26.088944182872137 $362 $475 forward 7 unknown #
coedge $-1 $476 $242 $360 $472 reversed $366 $-1 #
coedge $-1 $242 $476 $474 $477 reversed $366 $-1 #
loop $-1 $-1 $242 $356 #
vertex $-1 $477 $478 #
vertex $-1 $243 $479 #
straight-curve $-1 47.787102877895443 -19.173087396922107 0 0 0 1 I I #
edge $-1 $375 -9.5410523716435112 $372 9.5410523716435112 $359 $480 forward 7 unknown #
coedge $-1 $245 $474 $470 $481 forward $357 $-1 #
vertex $-1 $246 $482 #
straight-curve $-1 39.005531902197781 -10.336543698461053 -9.5410523716435112 0 1 0 I I #
coedge $-1 $360 $247 $471 $483 forward $142 $-1 #
vertex $-1 $483 $484 #
straight-curve $-1 39.005531902197781 -10.336543698461053 9.5410523716435112 0 -1 0 I I #
point $-1 39.005531902197781 -19.173087396922107 9.5410523716435112 #
point $-1 39.005531902197781 -19.173087396922107 -9.5410523716435112 #
loop $-1 $-1 $260 $252 #
plane-surface $-1 0 0 9.5410523716435112 0 0 1 1 0 0 forward_v I I I I #
coedge $-1 $382 $255 $257 $386 reversed $150 $-1 #
coedge $-1 $255 $381 $485 $486 reversed $150 $-1 #
coedge $-1 $263 $258 $255 $384 forward $253 $-1 #
edge $-1 $387 -28.340386118357344 $487 -19.636553316606509 $383 $488 forward 7 unknown #
coedge $-1 $257 $256 $390 $489 reversed $93 $-1 #
edge $-1 $490 -10.898379301476114 $387 -1.1812792947853924e-014 $381 $491 forward 7 unknown #
vertex $-1 $259 $492 #
straight-curve $-1 1.0434088112675113 -22.173087396922107 0.83721956989267909 1 0 0 I I #
coedge $-1 $485 $260 $263 $394 forward $379 $-1 #
coedge $-1 $260 $485 $385 $489 forward $379 $-1 #
vertex $-1 $261 $493 #
straight-curve $-1 -5.011105094212553 -49.251021372029768 9.5410523716435094 0 -1 0 I I #
straight-curve $-1 -5.011105094212553 -22.173087396922114 0.83721956989266744 0 0.60181501223851219 0.79863551827123203 I I #
edge $-1 $264 -5.011105094212553 $487 9.1847403392825981 $263 $494 forward 7 unknown #
point $-1 -5.011105094212553 -22.173087396922107 9.5410523716435112 #
point $-1 -5.011105094212553 -22.173087396922107 0.83721956989267687 #
edge $-1 $495 1 $495 0 $267 $-1 forward 7 unknown #
vertex $-1 $268 $496 #
ellipse-curve $-1 -2.1719360075135228 -17.804324622640753 4.3682453804790677 0 -0.79863551827123203 0.60181501223851219 1 0 0 1 I I #
point $-1 -1.1719360075135228 -18.893683260573205 5.1891359707680875 #
edge $-1 $497 1 $497 0 $271 $-1 forward 7 unknown #
vertex $-1 $272 $498 #
ellipse-curve $-1 2.0868176225350226 -17.804324622640753 4.3682453804790677 0 -0.79863551827123203 0.60181501223851219 1 0 0 1 I I #
point $-1 3.0868176225350226 -18.893683260573205 5.1891359707680875 #
edge $-1 $499 1 $499 0 $275 $-1 forward 7 unknown #
vertex $-1 $276 $500 #
ellipse-curve $-1 6.3455712525835679 -17.804324622640753 4.3682453804790677 0 -0.79863551827123203 0.60181501223851219 1 0 0 1 I I #
point $-1 7.3455712525835679 -18.893683260573205 5.1891359707680875 #
plane-surface $-1 0 0 9.5410523716435112 0 0 1 1 0 0 forward_v I I I I #
coedge $-1 $420 $419 $412 $501 forward $280 $-1 #
coedge $-1 $412 $282 $284 $416 reversed $179 $-1 #
coedge $-1 $282 $411 $410 $501 reversed $179 $-1 #
coedge $-1 $290 $285 $282 $414 forward $291 $-1 #
edge $-1 $417 -13.741428076738398 $502 -10.431987074737116 $413 $503 forward 7 unknown #
coedge $-1 $284 $283 $420 $504 reversed $112 $-1 #
edge $-1 $505 -44.346174793844234 $417 -39.301749057959192 $411 $506 forward 7 unknown #
vertex $-1 $286 $507 #
straight-curve $-1 13.944812428075043 18.863646394920821 9.5410523716435129 1 0 0 I I #
coedge $-1 $410 $287 $290 $424 reversed $280 $-1 #
coedge $-1 $287 $410 $415 $504 forward $280 $-1 #
vertex $-1 $288 $508 #
straight-curve $-1 16.773717810102404 22.173087396922107 50.952389472171568 0 0 1 I I #
straight-curve $-1 16.773717810102404 -6.9206205549335209 39.202459230952194 0 0.65605901945558964 -0.75470958851134928 I I #
edge $-1 $502 -39.005531902197767 $292 -16.773717810102404 $419 $509 forward 7 unknown #
point $-1 16.773717810102404 22.173087396922107 9.5410523716435112 #
point $-1 16.773717810102404 18.863646394920824 9.5410523716435094 #
edge $-1 $510 1 $510 0 $295 $-1 forward 7 unknown #
vertex $-1 $296 $511 #
ellipse-curve $-1 23.125664693558228 19.24563083702197 6.5311415874290777 0 0.75470958851134928 0.65605901945558964 1 0 0 1 I I #
point $-1 24.125664693558228 20.518366895921478 7.6375141359405978 #
edge $-1 $512 1 $512 0 $299 $-1 forward 7 unknown #
vertex $-1 $300 $513 #
ellipse-curve $-1 32.653585018741957 19.24563083702197 6.5311415874290777 0 0.75470958851134928 0.65605901945558964 1 0 0 1 I I #
point $-1 33.653585018741957 20.518366895921478 7.6375141359405978 #
plane-surface $-1 47.787102877895443 0 0 -1 0 0 0 0 1 forward_v I I I I #
coedge $-1 $308 $306 $310 $440 reversed $201 $-1 #
edge $-1 $321 -9.5410523716435112 $442 9.5410523716435112 $320 $514 forward 7 unknown #
vertex $-1 $440 $515 #
straight-curve $-1 -47.787102877895443 -22.173087396922107 0 0 0 -1 I I #
edge $-1 $438 -22.173087396922107 $442 22.173087396922107 $436 $516 forward 7 unknown #
straight-curve $-1 0 -22.173087396922107 -9.5410523716435112 -1 0 0 I I #
vertex $-1 $313 $517 #
straight-curve $-1 0 22.173087396922107 -9.5410523716435112 1 0 0 I I #
point $-1 47.787102877895443 22.173087396922107 -9.5410523716435112 #
point $-1 47.787102877895443 -22.173087396922107 -9.5410523716435112 #
straight-curve $-1 -47.787102877895443 0 9.5410523716435112 0 -1 0 I I #
point $-1 -47.787102877895443 22.173087396922107 9.5410523716435112 #
point $-1 -47.787102877895443 -22.173087396922107 9.5410523716435112 #
straight-curve $-1 47.787102877895443 -22.173087396922107 0 0 0 -1 I I #
straight-curve $-1 47.787102877895443 22.173087396922107 0 0 0 -1 I I #
plane-surface $-1 0 22.173087396922107 0 0 -1 0 0 0 -1 forward_v I I I I #
coedge $-1 $462 $461 $336 $454 forward $331 $-1 #
straight-curve $-1 -35.625890646510747 -22.173087396922107 1.3105636826917992 0 0 1 I I #
edge $-1 $457 -22.173087396922107 $455 22.173087396922107 $452 $518 forward 7 unknown #
vertex $-1 $337 $519 #
straight-curve $-1 -20.853248381101547 -22.173087396922107 1.1211273653835985 1 0 0 I I #
vertex $-1 $339 $520 #
straight-curve $-1 -20.853248381101547 22.173087396922107 1.1211273653835985 -1 0 0 I I #
point $-1 -35.625890646510747 22.173087396922107 1.1211273653835985 #
point $-1 -35.625890646510747 -22.173087396922107 1.1211273653835985 #
coedge $-1 $452 $343 $346 $464 forward $331 $-1 #
coedge $-1 $343 $452 $350 $466 reversed $331 $-1 #
straight-curve $-1 -47.787102877895443 0 4.1211273653835985 0 1 0 I I #
edge $-1 $348 -4.1211273653835985 $457 -1.1211273653835985 $346 $521 forward 7 unknown #
point $-1 -47.787102877895443 22.173087396922107 4.1211273653835985 #
edge $-1 $351 -4.1211273653835985 $455 -1.1211273653835985 $462 $522 forward 7 unknown #
point $-1 -47.787102877895443 -22.173087396922107 4.1211273653835985 #
straight-curve $-1 -35.625890646510747 22.173087396922107 1.3105636826917992 0 0 -1 I I #
plane-surface $-1 47.787102877895443 0 0 -1 0 0 0 0 1 forward_v I I I I #
coedge $-1 $523 $359 $371 $481 reversed $237 $-1 #
coedge $-1 $359 $523 $374 $483 reversed $237 $-1 #
edge $-1 $524 -22.173087396922107 $368 -19.173087396922107 $364 $525 forward 7 unknown #
straight-curve $-1 21.698158695023306 -19.173087396922107 9.5410523716435112 -1 0 0 I I #
coedge $-1 $371 $362 $365 $477 forward $357 $-1 #
straight-curve $-1 21.698158695023306 -19.173087396922107 -9.5410523716435112 1 0 0 I I #
coedge $-1 $365 $364 $523 $526 forward $366 $-1 #
edge $-1 $367 19.173087396922107 $527 22.173087396922107 $365 $528 forward 7 unknown #
point $-1 47.787102877895443 -19.173087396922107 -9.5410523716435112 #
point $-1 47.787102877895443 -19.173087396922107 9.5410523716435112 #
straight-curve $-1 39.005531902197781 -22.173087396922107 0 0 0 -1 I I #
edge $-1 $527 -47.787102877895443 $372 -39.005531902197781 $470 $529 forward 7 unknown #
point $-1 39.005531902197781 -22.173087396922107 -9.5410523716435112 #
edge $-1 $375 39.005531902197781 $524 47.787102877895443 $471 $530 forward 7 unknown #
point $-1 39.005531902197781 -22.173087396922107 9.5410523716435112 #
coedge $-1 $390 $389 $382 $486 forward $379 $-1 #
edge $-1 $487 27.077933975107662 $490 33.636742247805451 $485 $531 forward 7 unknown #
vertex $-1 $486 $532 #
straight-curve $-1 9.1847403392825981 -22.173087396922107 29.177605688250022 0 0 1 I I #
edge $-1 $490 -8.1413315280150869 $391 6.0545139054800643 $390 $533 forward 7 unknown #
vertex $-1 $489 $534 #
straight-curve $-1 9.1847403392825981 -22.173087396922114 0.83721956989266744 0 -0.60181501223851219 -0.79863551827123203 I I #
point $-1 9.1847403392825981 -22.173087396922107 0.83721956989267687 #
point $-1 -5.011105094212553 -15.614279124224318 9.5410523716435112 #
straight-curve $-1 0 -22.173087396922107 9.5410523716435112 1 0 0 I I #
vertex $-1 $397 $535 #
point $-1 -1.1719360075135228 -17.804324622640753 4.3682453804790677 #
vertex $-1 $401 $536 #
point $-1 3.0868176225350226 -17.804324622640753 4.3682453804790677 #
vertex $-1 $405 $537 #
point $-1 7.3455712525835679 -17.804324622640753 4.3682453804790677 #
edge $-1 $502 41.411337100528058 $505 45.218413571933922 $410 $538 forward 7 unknown #
vertex $-1 $424 $539 #
straight-curve $-1 39.005531902197767 32.605074471659222 9.5410523716435094 0 1 0 I I #
edge $-1 $505 -25.060719474122724 $421 -2.8289053820273615 $420 $540 forward 7 unknown #
vertex $-1 $504 $541 #
straight-curve $-1 39.005531902197767 -6.9206205549335209 39.202459230952194 0 -0.65605901945558964 0.75470958851134928 I I #
point $-1 39.005531902197767 18.863646394920824 9.5410523716435094 #
point $-1 16.773717810102404 22.173087396922107 5.7339759002376454 #
straight-curve $-1 0 22.173087396922107 9.5410523716435112 -1 0 0 I I #
vertex $-1 $427 $542 #
point $-1 24.125664693558228 19.24563083702197 6.5311415874290777 #
vertex $-1 $431 $543 #
point $-1 33.653585018741957 19.24563083702197 6.5311415874290777 #
straight-curve $-1 -47.787102877895443 22.173087396922107 0 0 0 -1 I I #
point $-1 -47.787102877895443 -22.173087396922107 -9.5410523716435112 #
straight-curve $-1 -47.787102877895443 0 -9.5410523716435112 0 1 0 I I #
point $-1 -47.787102877895443 22.173087396922107 -9.5410523716435112 #
straight-curve $-1 -47.787102877895443 0 1.1211273653835985 0 -1 0 I I #
point $-1 -47.787102877895443 -22.173087396922107 1.1211273653835985 #
point $-1 -47.787102877895443 22.173087396922107 1.1211273653835985 #
straight-curve $-1 -47.787102877895443 22.173087396922107 0 0 0 -1 I I #
straight-curve $-1 -47.787102877895443 -22.173087396922107 0 0 0 -1 I I #
coedge $-1 $471 $470 $476 $526 reversed $237 $-1 #
vertex $-1 $472 $544 #
straight-curve $-1 47.787102877895443 0 9.5410523716435112 0 1 0 I I #
edge $-1 $524 -9.5410523716435112 $527 9.5410523716435112 $476 $545 forward 7 unknown #
vertex $-1 $526 $546 #
straight-curve $-1 47.787102877895443 0 -9.5410523716435112 0 -1 0 I I #
straight-curve $-1 0 -22.173087396922107 -9.5410523716435112 -1 0 0 I I #
straight-curve $-1 0 -22.173087396922107 9.5410523716435112 1 0 0 I I #
straight-curve $-1 9.1847403392825981 -49.251021372029768 9.5410523716435094 0 1 0 I I #
point $-1 9.1847403392825981 -22.173087396922107 9.5410523716435112 #
straight-curve $-1 1.0434088112675113 -15.614279124224321 9.5410523716435112 -1 0 0 I I #
point $-1 9.1847403392825981 -15.614279124224318 9.5410523716435112 #
point $-1 -2.1719360075135228 -17.00568910436952 3.7664303682405551 #
point $-1 2.0868176225350226 -17.00568910436952 3.7664303682405551 #
point $-1 6.3455712525835679 -17.00568910436952 3.7664303682405551 #
straight-curve $-1 39.005531902197767 22.173087396922107 50.952389472171568 0 0 -1 I I #
point $-1 39.005531902197767 22.173087396922107 9.5410523716435112 #
straight-curve $-1 13.944812428075043 22.173087396922107 5.7339759002376471 -1 0 0 I I #
point $-1 39.005531902197767 22.173087396922107 5.7339759002376454 #
point $-1 23.125664693558228 18.490921248510624 5.8750825679734877 #
point $-1 32.653585018741957 18.490921248510624 5.8750825679734877 #
point $-1 47.787102877895443 -22.173087396922107 9.5410523716435112 #
straight-curve $-1 47.787102877895443 -22.173087396922107 0 0 0 -1 I I #
point $-1 47.787102877895443 -22.173087396922107 -9.5410523716435112 #
End-of-ACIS-data 