500 0 21 0           
7 Unknown 11 ACIS 5.0 NT 24 Fri Mar 26 01:40:25 1999 
-1 9.9999999999999995e-007 1e-010 
body $-1 $21 $-1 $22 #
body $-1 $23 $-1 $24 #
body $-1 $25 $-1 $26 #
body $-1 $27 $-1 $28 #
body $-1 $29 $-1 $30 #
body $-1 $31 $-1 $32 #
body $-1 $33 $-1 $34 #
body $-1 $35 $-1 $36 #
body $-1 $37 $-1 $38 #
body $-1 $39 $-1 $40 #
body $-1 $41 $-1 $42 #
body $-1 $43 $-1 $44 #
body $-1 $45 $-1 $46 #
body $-1 $47 $-1 $48 #
body $-1 $49 $-1 $50 #
body $-1 $51 $-1 $52 #
body $-1 $53 $-1 $54 #
body $-1 $55 $-1 $56 #
body $-1 $57 $-1 $58 #
body $-1 $59 $-1 $60 #
body $-1 $61 $-1 $62 #
lump $-1 $-1 $63 $0 #
transform $-1 1 0 0 0 1 0 0 0 1 57.715384380626851 26.660361277662528 13.267693510130909 1 rotate no_reflect no_shear #
lump $-1 $-1 $64 $1 #
transform $-1 1 0 0 0 1 0 0 0 1 57.715384380626851 26.660361277662528 13.267693510130909 1 rotate no_reflect no_shear #
lump $-1 $-1 $65 $2 #
transform $-1 1 0 0 0 1 0 0 0 1 57.715384380626851 26.660361277662528 13.267693510130909 1 rotate no_reflect no_shear #
lump $-1 $-1 $66 $3 #
transform $-1 1 0 0 0 1 0 0 0 1 57.715384380626851 26.660361277662528 13.267693510130909 1 rotate no_reflect no_shear #
lump $-1 $-1 $67 $4 #
transform $-1 1 0 0 0 1 0 0 0 1 57.715384380626851 26.660361277662528 13.267693510130909 1 rotate no_reflect no_shear #
lump $-1 $-1 $68 $5 #
transform $-1 1 0 0 0 1 0 0 0 1 57.715384380626851 26.660361277662528 13.267693510130909 1 rotate no_reflect no_shear #
lump $-1 $-1 $69 $6 #
transform $-1 1 0 0 0 1 0 0 0 1 57.715384380626851 26.660361277662528 13.267693510130909 1 rotate no_reflect no_shear #
lump $-1 $-1 $70 $7 #
transform $-1 1 0 0 0 1 0 0 0 1 57.715384380626851 26.660361277662528 13.267693510130909 1 rotate no_reflect no_shear #
lump $-1 $-1 $71 $8 #
transform $-1 1 0 0 0 1 0 0 0 1 57.715384380626851 26.660361277662528 13.267693510130909 1 rotate no_reflect no_shear #
lump $-1 $-1 $72 $9 #
transform $-1 1 0 0 0 1 0 0 0 1 57.715384380626851 26.660361277662528 13.267693510130909 1 rotate no_reflect no_shear #
lump $-1 $-1 $73 $10 #
transform $-1 1 0 0 0 1 0 0 0 1 57.715384380626851 26.660361277662528 13.267693510130909 1 rotate no_reflect no_shear #
lump $-1 $-1 $74 $11 #
transform $-1 1 0 0 0 1 0 0 0 1 57.715384380626851 26.660361277662528 13.267693510130909 1 rotate no_reflect no_shear #
lump $-1 $-1 $75 $12 #
transform $-1 1 0 0 0 1 0 0 0 1 57.715384380626851 26.660361277662528 13.267693510130909 1 rotate no_reflect no_shear #
lump $-1 $-1 $76 $13 #
transform $-1 1 0 0 0 1 0 0 0 1 57.715384380626851 26.660361277662528 13.267693510130909 1 rotate no_reflect no_shear #
lump $-1 $-1 $77 $14 #
transform $-1 1 0 0 0 1 0 0 0 1 57.715384380626851 26.660361277662528 13.267693510130909 1 rotate no_reflect no_shear #
lump $-1 $-1 $78 $15 #
transform $-1 1 0 0 0 1 0 0 0 1 57.715384380626851 26.660361277662528 13.267693510130909 1 rotate no_reflect no_shear #
lump $-1 $-1 $79 $16 #
transform $-1 1 0 0 0 1 0 0 0 1 57.715384380626851 26.660361277662528 13.267693510130909 1 rotate no_reflect no_shear #
lump $-1 $-1 $80 $17 #
transform $-1 1 0 0 0 1 0 0 0 1 57.715384380626851 26.660361277662528 13.267693510130909 1 rotate no_reflect no_shear #
lump $-1 $-1 $81 $18 #
transform $-1 1 0 0 0 1 0 0 0 1 57.715384380626851 26.660361277662528 13.267693510130909 1 rotate no_reflect no_shear #
lump $-1 $-1 $82 $19 #
transform $-1 1 0 0 0 1 0 0 0 1 57.715384380626851 26.660361277662528 13.267693510130909 1 rotate no_reflect no_shear #
lump $-1 $-1 $83 $20 #
transform $-1 1 0 0 0 1 0 0 0 1 57.715384380626851 26.660361277662528 13.267693510130909 1 rotate no_reflect no_shear #
shell $-1 $-1 $-1 $84 $-1 $21 #
shell $-1 $-1 $-1 $85 $-1 $23 #
shell $-1 $-1 $-1 $86 $-1 $25 #
shell $-1 $-1 $-1 $87 $-1 $27 #
shell $-1 $-1 $-1 $88 $-1 $29 #
shell $-1 $-1 $-1 $89 $-1 $31 #
shell $-1 $-1 $-1 $90 $-1 $33 #
shell $-1 $-1 $-1 $91 $-1 $35 #
shell $-1 $-1 $-1 $92 $-1 $37 #
shell $-1 $-1 $-1 $93 $-1 $39 #
shell $-1 $-1 $-1 $94 $-1 $41 #
shell $-1 $-1 $-1 $95 $-1 $43 #
shell $-1 $-1 $-1 $96 $-1 $45 #
shell $-1 $-1 $-1 $97 $-1 $47 #
shell $-1 $-1 $-1 $98 $-1 $49 #
shell $-1 $-1 $-1 $99 $-1 $51 #
shell $-1 $-1 $-1 $100 $-1 $53 #
shell $-1 $-1 $-1 $101 $-1 $55 #
shell $-1 $-1 $-1 $102 $-1 $57 #
shell $-1 $-1 $-1 $103 $-1 $59 #
shell $-1 $-1 $-1 $104 $-1 $61 #
face $-1 $105 $106 $63 $-1 $107 forward single #
face $-1 $108 $109 $64 $-1 $110 forward single #
face $-1 $111 $112 $65 $-1 $113 reversed single #
face $-1 $114 $115 $66 $-1 $116 forward single #
face $-1 $117 $118 $67 $-1 $119 forward single #
face $-1 $120 $121 $68 $-1 $122 reversed single #
face $-1 $123 $124 $69 $-1 $125 forward single #
face $-1 $126 $127 $70 $-1 $128 forward single #
face $-1 $129 $130 $71 $-1 $131 forward single #
face $-1 $132 $133 $72 $-1 $134 reversed single #
face $-1 $135 $136 $73 $-1 $137 forward single #
face $-1 $138 $139 $74 $-1 $140 forward single #
face $-1 $141 $142 $75 $-1 $143 forward single #
face $-1 $144 $145 $76 $-1 $146 reversed single #
face $-1 $147 $148 $77 $-1 $149 forward single #
face $-1 $150 $151 $78 $-1 $152 forward single #
face $-1 $153 $154 $79 $-1 $155 forward single #
face $-1 $156 $157 $80 $-1 $158 reversed single #
face $-1 $159 $160 $81 $-1 $161 forward single #
face $-1 $162 $163 $82 $-1 $164 forward single #
face $-1 $165 $166 $83 $-1 $167 forward single #
face $-1 $168 $169 $63 $-1 $170 reversed single #
loop $-1 $-1 $171 $84 #
plane-surface $-1 0 0 13.267693510130909 0 0 1 1 0 0 forward_v I I I I #
face $-1 $172 $173 $64 $-1 $174 reversed single #
loop $-1 $-1 $175 $85 #
plane-surface $-1 -49.797842624827787 0 -5.7510846202208441 0 0 1 1 0 0 forward_v I I I I #
face $-1 $176 $177 $65 $-1 $178 reversed single #
loop $-1 $-1 $179 $86 #
plane-surface $-1 -11.32207120734558 40.406823391956095 131.0950357756121 1 0 0 0 -0.51503808176128008 -0.85716729658548041 forward_v I I I I #
face $-1 $180 $181 $66 $-1 $182 forward single #
loop $-1 $183 $184 $87 #
cone-surface $-1 -4.4683193266746386 17.998355973932568 6.4427814137872694 0 -0.51503808176128008 -0.85716729658548041 2 0 0 1 I I 0 1 2 forward I I I I #
face $-1 $185 $186 $67 $-1 $187 forward single #
loop $-1 $188 $189 $88 #
cone-surface $-1 5.8123084943317735 17.998355973932568 6.4427814137872694 0 -0.51503808176128008 -0.85716729658548041 2 0 0 1 I I 0 1 2 forward I I I I #
face $-1 $190 $191 $68 $-1 $192 reversed single #
loop $-1 $-1 $193 $89 #
plane-surface $-1 -20.292383426108024 -112.44214073937081 86.755468231640791 -1 0 0 0 -0.74314483375859142 0.66913059716165679 forward_v I I I I #
face $-1 $194 $195 $69 $-1 $196 forward single #
loop $-1 $197 $198 $90 #
cone-surface $-1 -31.800583245812174 -23.689883092891744 10.238131033284077 0 0.74314483375859142 -0.66913059716165679 1 0 0 1 I I 0 1 1 forward I I I I #
face $-1 $199 $200 $70 $-1 $201 forward single #
loop $-1 $202 $203 $91 #
cone-surface $-1 -27.485008313423116 -23.689883092891744 10.238131033284077 0 0.74314483375859142 -0.66913059716165679 1 0 0 1 I I 0 1 1 forward I I I I #
face $-1 $204 $205 $71 $-1 $206 forward single #
loop $-1 $207 $208 $92 #
cone-surface $-1 -23.169433381034061 -23.689883092891744 10.238131033284077 0 0.74314483375859142 -0.66913059716165679 1 0 0 1 I I 0 1 1 forward I I I I #
face $-1 $209 $210 $72 $-1 $211 reversed single #
loop $-1 $-1 $212 $93 #
plane-surface $-1 3.3093166200401019 -112.44214073937081 86.755468231640791 -1 0 0 0 -0.74314483375859142 0.66913059716165679 forward_v I I I I #
face $-1 $213 $214 $73 $-1 $215 forward single #
loop $-1 $216 $217 $94 #
cone-surface $-1 -8.1988831996640528 -23.689883092891744 10.238131033284077 0 0.74314483375859142 -0.66913059716165679 1 0 0 1 I I 0 1 1 forward I I I I #
face $-1 $218 $219 $74 $-1 $220 forward single #
loop $-1 $221 $222 $95 #
cone-surface $-1 -3.883308267274991 -23.689883092891744 10.238131033284077 0 0.74314483375859142 -0.66913059716165679 1 0 0 1 I I 0 1 1 forward I I I I #
face $-1 $223 $224 $75 $-1 $225 forward single #
loop $-1 $226 $227 $96 #
cone-surface $-1 0.43226666511406364 -23.689883092891744 10.238131033284077 0 0.74314483375859142 -0.66913059716165679 1 0 0 1 I I 0 1 1 forward I I I I #
face $-1 $228 $229 $76 $-1 $230 reversed single #
loop $-1 $-1 $231 $97 #
plane-surface $-1 26.911016666188225 -112.44214073937081 86.755468231640791 -1 0 0 0 -0.74314483375859142 0.66913059716165679 forward_v I I I I #
face $-1 $232 $233 $77 $-1 $234 forward single #
loop $-1 $235 $236 $98 #
cone-surface $-1 15.402816846484065 -23.689883092891744 10.238131033284077 0 0.74314483375859142 -0.66913059716165679 1 0 0 1 I I 0 1 1 forward I I I I #
face $-1 $237 $238 $78 $-1 $239 forward single #
loop $-1 $240 $241 $99 #
cone-surface $-1 19.718391778873134 -23.689883092891744 10.238131033284077 0 0.74314483375859142 -0.66913059716165679 1 0 0 1 I I 0 1 1 forward I I I I #
face $-1 $242 $243 $79 $-1 $244 forward single #
loop $-1 $245 $246 $100 #
cone-surface $-1 24.033966711262188 -23.689883092891744 10.238131033284077 0 0.74314483375859142 -0.66913059716165679 1 0 0 1 I I 0 1 1 forward I I I I #
face $-1 $247 $248 $80 $-1 $249 reversed single #
loop $-1 $-1 $250 $101 #
plane-surface $-1 50.512716712336349 -112.44214073937081 86.755468231640791 -1 0 0 0 -0.74314483375859142 0.66913059716165679 forward_v I I I I #
face $-1 $251 $252 $81 $-1 $253 forward single #
loop $-1 $254 $255 $102 #
cone-surface $-1 39.004516892632189 -23.689883092891744 10.238131033284077 0 0.74314483375859142 -0.66913059716165679 1 0 0 1 I I 0 1 1 forward I I I I #
face $-1 $256 $257 $82 $-1 $258 forward single #
loop $-1 $259 $260 $103 #
cone-surface $-1 43.320091825021258 -23.689883092891744 10.238131033284077 0 0.74314483375859142 -0.66913059716165679 1 0 0 1 I I 0 1 1 forward I I I I #
face $-1 $261 $262 $83 $-1 $263 forward single #
loop $-1 $264 $265 $104 #
cone-surface $-1 47.635666757410313 -23.689883092891744 10.238131033284077 0 0.74314483375859142 -0.66913059716165679 1 0 0 1 I I 0 1 1 forward I I I I #
face $-1 $266 $267 $63 $-1 $268 reversed single #
loop $-1 $-1 $269 $105 #
plane-surface $-1 0 0 -13.267693510130909 0 0 1 1 0 0 forward_v I I I I #
coedge $-1 $270 $271 $272 $273 forward $106 $-1 #
face $-1 $274 $275 $64 $-1 $276 reversed single #
loop $-1 $-1 $277 $108 #
plane-surface $-1 -49.797842624827787 0 -8.8697841946014808 0 0 1 1 0 0 forward_v I I I I #
coedge $-1 $278 $279 $280 $281 forward $109 $-1 #
face $-1 $282 $283 $65 $-1 $284 reversed single #
loop $-1 $-1 $285 $111 #
plane-surface $-1 0.67199458382857102 -19.044418327069906 32.151555773744548 0 0.51503808176128008 0.85716729658548041 1 0 0 forward_v I I I I #
coedge $-1 $286 $287 $288 $289 reversed $112 $-1 #
face $-1 $-1 $290 $66 $-1 $291 forward single #
loop $-1 $292 $293 $114 #
cone-surface $-1 -4.4683193266746386 15.959690418876573 3.04987222056136 0 -0.51503808176128008 -0.85716729658548041 1 0 0 1 I I -0.70710678118654746 0.70710678118654746 1 forward I I I I #
loop $-1 $-1 $294 $87 #
coedge $-1 $184 $184 $295 $296 reversed $115 $-1 #
face $-1 $-1 $297 $67 $-1 $298 forward single #
loop $-1 $299 $300 $117 #
cone-surface $-1 5.8123084943317735 15.959690418876573 3.04987222056136 0 -0.51503808176128008 -0.85716729658548041 1 0 0 1 I I -0.70710678118654746 0.70710678118654746 1 forward I I I I #
loop $-1 $-1 $301 $88 #
coedge $-1 $189 $189 $302 $303 reversed $118 $-1 #
face $-1 $304 $305 $68 $-1 $306 reversed single #
loop $-1 $-1 $307 $120 #
plane-surface $-1 -27.485008313423116 -26.660361277662517 9.5172089995939757 0 -0.74314483375859142 0.66913059716165679 1 0 0 forward_v I I I I #
coedge $-1 $308 $309 $310 $311 reversed $121 $-1 #
face $-1 $-1 $312 $69 $-1 $313 forward single #
loop $-1 $314 $315 $123 #
cone-surface $-1 -31.800583245812174 -22.036308159900049 8.7492455131248814 0 0.74314483375859142 -0.66913059716165679 0.5 0 0 1 I I -0.70710678118654879 0.70710678118654635 0.5 forward I I I I #
loop $-1 $-1 $316 $90 #
coedge $-1 $198 $198 $317 $318 reversed $124 $-1 #
face $-1 $-1 $319 $70 $-1 $320 forward single #
loop $-1 $321 $322 $126 #
cone-surface $-1 -27.485008313423116 -22.036308159900049 8.7492455131248814 0 0.74314483375859142 -0.66913059716165679 0.5 0 0 1 I I -0.70710678118654879 0.70710678118654635 0.5 forward I I I I #
loop $-1 $-1 $323 $91 #
coedge $-1 $203 $203 $324 $325 reversed $127 $-1 #
face $-1 $-1 $326 $71 $-1 $327 forward single #
loop $-1 $328 $329 $129 #
cone-surface $-1 -23.169433381034061 -22.036308159900049 8.7492455131248814 0 0.74314483375859142 -0.66913059716165679 0.5 0 0 1 I I -0.70710678118654879 0.70710678118654635 0.5 forward I I I I #
loop $-1 $-1 $330 $92 #
coedge $-1 $208 $208 $331 $332 reversed $130 $-1 #
face $-1 $333 $334 $72 $-1 $335 reversed single #
loop $-1 $-1 $336 $132 #
plane-surface $-1 -3.883308267274991 -26.660361277662517 9.5172089995939757 0 -0.74314483375859142 0.66913059716165679 1 0 0 forward_v I I I I #
coedge $-1 $337 $338 $339 $340 reversed $133 $-1 #
face $-1 $-1 $341 $73 $-1 $342 forward single #
loop $-1 $343 $344 $135 #
cone-surface $-1 -8.1988831996640528 -22.036308159900049 8.7492455131248814 0 0.74314483375859142 -0.66913059716165679 0.5 0 0 1 I I -0.70710678118654879 0.70710678118654635 0.5 forward I I I I #
loop $-1 $-1 $345 $94 #
coedge $-1 $217 $217 $346 $347 reversed $136 $-1 #
face $-1 $-1 $348 $74 $-1 $349 forward single #
loop $-1 $350 $351 $138 #
cone-surface $-1 -3.883308267274991 -22.036308159900049 8.7492455131248814 0 0.74314483375859142 -0.66913059716165679 0.5 0 0 1 I I -0.70710678118654879 0.70710678118654635 0.5 forward I I I I #
loop $-1 $-1 $352 $95 #
coedge $-1 $222 $222 $353 $354 reversed $139 $-1 #
face $-1 $-1 $355 $75 $-1 $356 forward single #
loop $-1 $357 $358 $141 #
cone-surface $-1 0.43226666511406364 -22.036308159900049 8.7492455131248814 0 0.74314483375859142 -0.66913059716165679 0.5 0 0 1 I I -0.70710678118654879 0.70710678118654635 0.5 forward I I I I #
loop $-1 $-1 $359 $96 #
coedge $-1 $227 $227 $360 $361 reversed $142 $-1 #
face $-1 $362 $363 $76 $-1 $364 reversed single #
loop $-1 $-1 $365 $144 #
plane-surface $-1 19.718391778873134 -26.660361277662517 9.5172089995939757 0 -0.74314483375859142 0.66913059716165679 1 0 0 forward_v I I I I #
coedge $-1 $366 $367 $368 $369 reversed $145 $-1 #
face $-1 $-1 $370 $77 $-1 $371 forward single #
loop $-1 $372 $373 $147 #
cone-surface $-1 15.402816846484065 -22.036308159900049 8.7492455131248814 0 0.74314483375859142 -0.66913059716165679 0.5 0 0 1 I I -0.70710678118654879 0.70710678118654635 0.5 forward I I I I #
loop $-1 $-1 $374 $98 #
coedge $-1 $236 $236 $375 $376 reversed $148 $-1 #
face $-1 $-1 $377 $78 $-1 $378 forward single #
loop $-1 $379 $380 $150 #
cone-surface $-1 19.718391778873134 -22.036308159900049 8.7492455131248814 0 0.74314483375859142 -0.66913059716165679 0.5 0 0 1 I I -0.70710678118654879 0.70710678118654635 0.5 forward I I I I #
loop $-1 $-1 $381 $99 #
coedge $-1 $241 $241 $382 $383 reversed $151 $-1 #
face $-1 $-1 $384 $79 $-1 $385 forward single #
loop $-1 $386 $387 $153 #
cone-surface $-1 24.033966711262188 -22.036308159900049 8.7492455131248814 0 0.74314483375859142 -0.66913059716165679 0.5 0 0 1 I I -0.70710678118654879 0.70710678118654635 0.5 forward I I I I #
loop $-1 $-1 $388 $100 #
coedge $-1 $246 $246 $389 $390 reversed $154 $-1 #
face $-1 $391 $392 $80 $-1 $393 reversed single #
loop $-1 $-1 $394 $156 #
plane-surface $-1 43.320091825021258 -26.660361277662517 9.5172089995939757 0 -0.74314483375859142 0.66913059716165679 1 0 0 forward_v I I I I #
coedge $-1 $395 $396 $397 $398 reversed $157 $-1 #
face $-1 $-1 $399 $81 $-1 $400 forward single #
loop $-1 $401 $402 $159 #
cone-surface $-1 39.004516892632189 -22.036308159900049 8.7492455131248814 0 0.74314483375859142 -0.66913059716165679 0.5 0 0 1 I I -0.70710678118654879 0.70710678118654635 0.5 forward I I I I #
loop $-1 $-1 $403 $102 #
coedge $-1 $255 $255 $404 $405 reversed $160 $-1 #
face $-1 $-1 $406 $82 $-1 $407 forward single #
loop $-1 $408 $409 $162 #
cone-surface $-1 43.320091825021258 -22.036308159900049 8.7492455131248814 0 0.74314483375859142 -0.66913059716165679 0.5 0 0 1 I I -0.70710678118654879 0.70710678118654635 0.5 forward I I I I #
loop $-1 $-1 $410 $103 #
coedge $-1 $260 $260 $411 $412 reversed $163 $-1 #
face $-1 $-1 $413 $83 $-1 $414 forward single #
loop $-1 $415 $416 $165 #
cone-surface $-1 47.635666757410313 -22.036308159900049 8.7492455131248814 0 0.74314483375859142 -0.66913059716165679 0.5 0 0 1 I I -0.70710678118654879 0.70710678118654635 0.5 forward I I I I #
loop $-1 $-1 $417 $104 #
coedge $-1 $265 $265 $418 $419 reversed $166 $-1 #
face $-1 $420 $421 $63 $-1 $422 reversed single #
loop $-1 $-1 $423 $168 #
plane-surface $-1 0 -26.660361277662528 0 0 1 0 0 0 1 forward_v I I I I #
coedge $-1 $424 $425 $426 $427 forward $169 $-1 #
coedge $-1 $428 $171 $429 $430 forward $106 $-1 #
coedge $-1 $171 $428 $431 $432 forward $106 $-1 #
coedge $-1 $433 $434 $171 $273 reversed $435 $-1 #
edge $-1 $436 -26.660361277662528 $437 26.660361277662528 $272 $438 forward 7 unknown #
face $-1 $439 $440 $64 $-1 $441 reversed single #
loop $-1 $-1 $442 $172 #
plane-surface $-1 -41.880300869028723 0 -7.3104344074111625 -1 0 0 0 0 1 forward_v I I I I #
coedge $-1 $443 $444 $445 $446 forward $173 $-1 #
coedge $-1 $447 $175 $448 $449 reversed $109 $-1 #
coedge $-1 $175 $447 $450 $451 reversed $109 $-1 #
coedge $-1 $442 $452 $175 $281 reversed $275 $-1 #
edge $-1 $453 -26.660361277662528 $454 26.660361277662528 $280 $455 forward 7 unknown #
face $-1 $456 $457 $65 $-1 $458 forward single #
loop $-1 $-1 $459 $176 #
plane-surface $-1 12.666060375002722 40.406823391956095 131.0950357756121 -1 0 0 0 0.51503808176128008 0.85716729658548041 forward_v I I I I #
coedge $-1 $460 $461 $462 $463 reversed $177 $-1 #
coedge $-1 $287 $179 $464 $465 reversed $112 $-1 #
coedge $-1 $179 $286 $460 $466 reversed $112 $-1 #
coedge $-1 $462 $467 $179 $289 forward $457 $-1 #
edge $-1 $468 -6.45694958168448 $469 7.8198060791859412 $288 $470 forward 7 unknown #
loop $-1 $-1 $295 $180 #
plane-surface $-1 0.67199458382857102 -19.044418327069906 32.151555773744548 0 0.51503808176128008 0.85716729658548041 1 0 0 forward_v I I I I #
loop $-1 $-1 $471 $114 #
coedge $-1 $293 $293 $294 $472 reversed $181 $-1 #
coedge $-1 $294 $294 $293 $472 forward $183 $-1 #
coedge $-1 $295 $295 $184 $296 forward $290 $-1 #
edge $-1 $473 -1.437457351258348e-016 $473 6.2831853071796004 $295 $474 forward 7 unknown #
loop $-1 $-1 $302 $185 #
plane-surface $-1 0.67199458382857102 -19.044418327069906 32.151555773744548 0 0.51503808176128008 0.85716729658548041 1 0 0 forward_v I I I I #
loop $-1 $-1 $475 $117 #
coedge $-1 $300 $300 $301 $476 reversed $186 $-1 #
coedge $-1 $301 $301 $300 $476 forward $188 $-1 #
coedge $-1 $302 $302 $189 $303 forward $297 $-1 #
edge $-1 $477 -1.437457351258348e-016 $477 6.2831853071796004 $302 $478 forward 7 unknown #
face $-1 $479 $480 $68 $-1 $481 reversed single #
loop $-1 $-1 $482 $190 #
plane-surface $-1 -34.677633200738207 -112.44214073937081 86.755468231640791 1 0 0 0 0.74314483375859142 -0.66913059716165679 forward_v I I I I #
coedge $-1 $483 $484 $485 $486 reversed $191 $-1 #
coedge $-1 $309 $193 $487 $488 reversed $121 $-1 #
coedge $-1 $193 $308 $483 $489 reversed $121 $-1 #
coedge $-1 $485 $490 $193 $311 forward $491 $-1 #
edge $-1 $492 29.560709092022879 $493 32.937660429339658 $310 $494 forward 7 unknown #
loop $-1 $-1 $317 $194 #
plane-surface $-1 -27.485008313423116 -26.660361277662517 9.5172089995939757 0 -0.74314483375859142 0.66913059716165679 1 0 0 forward_v I I I I #
loop $-1 $-1 $495 $123 #
coedge $-1 $315 $315 $316 $496 reversed $195 $-1 #
coedge $-1 $316 $316 $315 $496 forward $197 $-1 #
coedge $-1 $317 $317 $198 $318 forward $312 $-1 #
edge $-1 $497 5.2590278156781236e-016 $497 6.2831853071796013 $317 $498 forward 7 unknown #
loop $-1 $-1 $324 $199 #
plane-surface $-1 -27.485008313423116 -26.660361277662517 9.5172089995939757 0 -0.74314483375859142 0.66913059716165679 1 0 0 forward_v I I I I #
loop $-1 $-1 $499 $126 #
coedge $-1 $322 $322 $323 $500 reversed $200 $-1 #
coedge $-1 $323 $323 $322 $500 forward $202 $-1 #
coedge $-1 $324 $324 $203 $325 forward $319 $-1 #
edge $-1 $501 5.2590278156781236e-016 $501 6.2831853071796013 $324 $502 forward 7 unknown #
loop $-1 $-1 $331 $204 #
plane-surface $-1 -27.485008313423116 -26.660361277662517 9.5172089995939757 0 -0.74314483375859142 0.66913059716165679 1 0 0 forward_v I I I I #
loop $-1 $-1 $503 $129 #
coedge $-1 $329 $329 $330 $504 reversed $205 $-1 #
coedge $-1 $330 $330 $329 $504 forward $207 $-1 #
coedge $-1 $331 $331 $208 $332 forward $326 $-1 #
edge $-1 $505 5.2590278156781236e-016 $505 6.2831853071796013 $331 $506 forward 7 unknown #
face $-1 $507 $508 $72 $-1 $509 reversed single #
loop $-1 $-1 $510 $209 #
plane-surface $-1 -11.075933154590084 -112.44214073937081 86.755468231640791 1 0 0 0 0.74314483375859142 -0.66913059716165679 forward_v I I I I #
coedge $-1 $511 $512 $513 $514 reversed $210 $-1 #
coedge $-1 $338 $212 $515 $516 reversed $133 $-1 #
coedge $-1 $212 $337 $511 $517 reversed $133 $-1 #
coedge $-1 $513 $518 $212 $340 forward $519 $-1 #
edge $-1 $520 29.560709092022879 $521 32.937660429339658 $339 $522 forward 7 unknown #
loop $-1 $-1 $346 $213 #
plane-surface $-1 -3.883308267274991 -26.660361277662517 9.5172089995939757 0 -0.74314483375859142 0.66913059716165679 1 0 0 forward_v I I I I #
loop $-1 $-1 $523 $135 #
coedge $-1 $344 $344 $345 $524 reversed $214 $-1 #
coedge $-1 $345 $345 $344 $524 forward $216 $-1 #
coedge $-1 $346 $346 $217 $347 forward $341 $-1 #
edge $-1 $525 5.2590278156781236e-016 $525 6.2831853071796013 $346 $526 forward 7 unknown #
loop $-1 $-1 $353 $218 #
plane-surface $-1 -3.883308267274991 -26.660361277662517 9.5172089995939757 0 -0.74314483375859142 0.66913059716165679 1 0 0 forward_v I I I I #
loop $-1 $-1 $527 $138 #
coedge $-1 $351 $351 $352 $528 reversed $219 $-1 #
coedge $-1 $352 $352 $351 $528 forward $221 $-1 #
coedge $-1 $353 $353 $222 $354 forward $348 $-1 #
edge $-1 $529 5.2590278156781236e-016 $529 6.2831853071796013 $353 $530 forward 7 unknown #
loop $-1 $-1 $360 $223 #
plane-surface $-1 -3.883308267274991 -26.660361277662517 9.5172089995939757 0 -0.74314483375859142 0.66913059716165679 1 0 0 forward_v I I I I #
loop $-1 $-1 $531 $141 #
coedge $-1 $358 $358 $359 $532 reversed $224 $-1 #
coedge $-1 $359 $359 $358 $532 forward $226 $-1 #
coedge $-1 $360 $360 $227 $361 forward $355 $-1 #
edge $-1 $533 5.2590278156781236e-016 $533 6.2831853071796013 $360 $534 forward 7 unknown #
face $-1 $535 $536 $76 $-1 $537 reversed single #
loop $-1 $-1 $538 $228 #
plane-surface $-1 12.525766891558041 -112.44214073937081 86.755468231640791 1 0 0 0 0.74314483375859142 -0.66913059716165679 forward_v I I I I #
coedge $-1 $539 $540 $541 $542 reversed $229 $-1 #
coedge $-1 $367 $231 $543 $544 reversed $145 $-1 #
coedge $-1 $231 $366 $539 $545 reversed $145 $-1 #
coedge $-1 $541 $546 $231 $369 forward $547 $-1 #
edge $-1 $548 29.560709092022879 $549 32.937660429339658 $368 $550 forward 7 unknown #
loop $-1 $-1 $375 $232 #
plane-surface $-1 19.718391778873134 -26.660361277662517 9.5172089995939757 0 -0.74314483375859142 0.66913059716165679 1 0 0 forward_v I I I I #
loop $-1 $-1 $551 $147 #
coedge $-1 $373 $373 $374 $552 reversed $233 $-1 #
coedge $-1 $374 $374 $373 $552 forward $235 $-1 #
coedge $-1 $375 $375 $236 $376 forward $370 $-1 #
edge $-1 $553 5.2590278156781236e-016 $553 6.2831853071796013 $375 $554 forward 7 unknown #
loop $-1 $-1 $382 $237 #
plane-surface $-1 19.718391778873134 -26.660361277662517 9.5172089995939757 0 -0.74314483375859142 0.66913059716165679 1 0 0 forward_v I I I I #
loop $-1 $-1 $555 $150 #
coedge $-1 $380 $380 $381 $556 reversed $238 $-1 #
coedge $-1 $381 $381 $380 $556 forward $240 $-1 #
coedge $-1 $382 $382 $241 $383 forward $377 $-1 #
edge $-1 $557 5.2590278156781236e-016 $557 6.2831853071796013 $382 $558 forward 7 unknown #
loop $-1 $-1 $389 $242 #
plane-surface $-1 19.718391778873134 -26.660361277662517 9.5172089995939757 0 -0.74314483375859142 0.66913059716165679 1 0 0 forward_v I I I I #
loop $-1 $-1 $559 $153 #
coedge $-1 $387 $387 $388 $560 reversed $243 $-1 #
coedge $-1 $388 $388 $387 $560 forward $245 $-1 #
coedge $-1 $389 $389 $246 $390 forward $384 $-1 #
edge $-1 $561 5.2590278156781236e-016 $561 6.2831853071796013 $389 $562 forward 7 unknown #
face $-1 $563 $564 $80 $-1 $565 reversed single #
loop $-1 $-1 $566 $247 #
plane-surface $-1 36.127466937706167 -112.44214073937081 86.755468231640791 1 0 0 0 0.74314483375859142 -0.66913059716165679 forward_v I I I I #
coedge $-1 $567 $568 $569 $570 reversed $248 $-1 #
coedge $-1 $396 $250 $571 $572 reversed $157 $-1 #
coedge $-1 $250 $395 $567 $573 reversed $157 $-1 #
coedge $-1 $569 $574 $250 $398 forward $575 $-1 #
edge $-1 $576 29.560709092022879 $577 32.937660429339658 $397 $578 forward 7 unknown #
loop $-1 $-1 $404 $251 #
plane-surface $-1 43.320091825021258 -26.660361277662517 9.5172089995939757 0 -0.74314483375859142 0.66913059716165679 1 0 0 forward_v I I I I #
loop $-1 $-1 $579 $159 #
coedge $-1 $402 $402 $403 $580 reversed $252 $-1 #
coedge $-1 $403 $403 $402 $580 forward $254 $-1 #
coedge $-1 $404 $404 $255 $405 forward $399 $-1 #
edge $-1 $581 5.2590278156781236e-016 $581 6.2831853071796013 $404 $582 forward 7 unknown #
loop $-1 $-1 $411 $256 #
plane-surface $-1 43.320091825021258 -26.660361277662517 9.5172089995939757 0 -0.74314483375859142 0.66913059716165679 1 0 0 forward_v I I I I #
loop $-1 $-1 $583 $162 #
coedge $-1 $409 $409 $410 $584 reversed $257 $-1 #
coedge $-1 $410 $410 $409 $584 forward $259 $-1 #
coedge $-1 $411 $411 $260 $412 forward $406 $-1 #
edge $-1 $585 5.2590278156781236e-016 $585 6.2831853071796013 $411 $586 forward 7 unknown #
loop $-1 $-1 $418 $261 #
plane-surface $-1 43.320091825021258 -26.660361277662517 9.5172089995939757 0 -0.74314483375859142 0.66913059716165679 1 0 0 forward_v I I I I #
loop $-1 $-1 $587 $165 #
coedge $-1 $416 $416 $417 $588 reversed $262 $-1 #
coedge $-1 $417 $417 $416 $588 forward $264 $-1 #
coedge $-1 $418 $418 $265 $419 forward $413 $-1 #
edge $-1 $589 5.2590278156781236e-016 $589 6.2831853071796013 $418 $590 forward 7 unknown #
face $-1 $591 $592 $63 $-1 $593 reversed single #
loop $-1 $-1 $594 $266 #
plane-surface $-1 -57.715384380626851 0 0 1 0 0 0 0 -1 forward_v I I I I #
coedge $-1 $595 $431 $596 $597 forward $267 $-1 #
coedge $-1 $598 $269 $595 $599 forward $169 $-1 #
coedge $-1 $269 $598 $600 $601 forward $169 $-1 #
coedge $-1 $434 $433 $269 $427 reversed $435 $-1 #
edge $-1 $602 -26.660361277662528 $603 26.660361277662528 $426 $604 forward 7 unknown #
coedge $-1 $271 $270 $605 $606 forward $106 $-1 #
coedge $-1 $607 $608 $270 $430 reversed $592 $-1 #
edge $-1 $437 -57.715384380626851 $609 57.715384380626851 $429 $610 forward 7 unknown #
coedge $-1 $423 $611 $271 $432 reversed $267 $-1 #
edge $-1 $612 -57.715384380626851 $436 57.715384380626851 $431 $613 forward 7 unknown #
coedge $-1 $426 $272 $611 $614 forward $435 $-1 #
coedge $-1 $272 $426 $607 $615 reversed $435 $-1 #
loop $-1 $-1 $433 $591 #
vertex $-1 $273 $616 #
vertex $-1 $273 $617 #
straight-curve $-1 57.715384380626851 0 13.267693510130909 0 1 0 I I #
face $-1 $618 $619 $64 $-1 $620 reversed single #
loop $-1 $-1 $621 $274 #
plane-surface $-1 0 -26.660361277662528 0 0 1 0 0 0 1 forward_v I I I I #
coedge $-1 $445 $280 $622 $623 reversed $275 $-1 #
coedge $-1 $624 $277 $621 $625 reversed $173 $-1 #
coedge $-1 $277 $624 $626 $627 reversed $173 $-1 #
coedge $-1 $452 $442 $277 $446 reversed $275 $-1 #
edge $-1 $628 -26.660361277662528 $629 26.660361277662528 $445 $630 forward 7 unknown #
coedge $-1 $279 $278 $631 $632 reversed $109 $-1 #
coedge $-1 $633 $634 $278 $449 forward $635 $-1 #
edge $-1 $636 -32.816463068212954 $454 -16.981379556614829 $448 $637 forward 7 unknown #
coedge $-1 $638 $622 $279 $451 forward $440 $-1 #
edge $-1 $453 16.981379556614829 $639 32.816463068212954 $450 $640 forward 7 unknown #
coedge $-1 $280 $445 $633 $641 reversed $275 $-1 #
vertex $-1 $451 $642 #
vertex $-1 $449 $643 #
straight-curve $-1 -41.880300869028723 0 -5.7510846202208441 0 1 0 I I #
face $-1 $-1 $644 $65 $-1 $645 reversed single #
loop $-1 $-1 $288 $282 #
plane-surface $-1 0 0 13.267693510130909 0 0 1 1 0 0 forward_v I I I I #
coedge $-1 $646 $647 $648 $649 reversed $283 $-1 #
coedge $-1 $650 $285 $287 $466 forward $177 $-1 #
coedge $-1 $285 $650 $646 $651 forward $177 $-1 #
coedge $-1 $648 $288 $285 $463 forward $457 $-1 #
edge $-1 $469 -11.658068499259866 $652 12.330063083088437 $462 $653 forward 7 unknown #
coedge $-1 $654 $655 $286 $465 forward $644 $-1 #
edge $-1 $656 -60.858164777081548 $468 -52.279824377675141 $464 $657 forward 7 unknown #
edge $-1 $469 36.664982517479743 $656 53.320722555325069 $287 $658 forward 7 unknown #
coedge $-1 $288 $648 $654 $659 forward $457 $-1 #
vertex $-1 $465 $660 #
vertex $-1 $289 $661 #
straight-curve $-1 -11.32207120734558 20.203411695978048 13.267693510130911 0 -1 0 I I #
coedge $-1 $471 $471 $-1 $662 reversed $292 $-1 #
edge $-1 $663 0 $663 6.2831853071796004 $293 $664 forward 7 unknown #
vertex $-1 $296 $665 #
ellipse-curve $-1 -4.4683193266746386 19.521983447227296 8.9785233104277218 0 0.51503808176128008 0.85716729658548041 2 0 0 1 I I #
coedge $-1 $475 $475 $-1 $666 reversed $299 $-1 #
edge $-1 $667 0 $667 6.2831853071796004 $300 $668 forward 7 unknown #
vertex $-1 $303 $669 #
ellipse-curve $-1 5.8123084943317735 19.521983447227296 8.9785233104277218 0 0.51503808176128008 0.85716729658548041 2 0 0 1 I I #
face $-1 $-1 $491 $68 $-1 $670 forward single #
loop $-1 $-1 $671 $304 #
plane-surface $-1 0 -26.660361277662528 0 0 1 0 0 0 1 forward_v I I I I #
coedge $-1 $672 $673 $674 $675 reversed $305 $-1 #
coedge $-1 $676 $307 $309 $489 forward $191 $-1 #
coedge $-1 $307 $676 $672 $677 forward $191 $-1 #
coedge $-1 $674 $310 $307 $486 forward $491 $-1 #
edge $-1 $493 6.5498792693964667 $678 20.935129044026649 $485 $679 forward 7 unknown #
coedge $-1 $680 $681 $308 $488 forward $480 $-1 #
edge $-1 $682 -33.860525116226434 $492 -30.110040605689484 $487 $683 forward 7 unknown #
edge $-1 $493 -5.0467746530217665 $682 1.6372321133104749e-014 $309 $684 forward 7 unknown #
coedge $-1 $310 $674 $680 $685 forward $491 $-1 #
loop $-1 $-1 $674 $479 #
vertex $-1 $488 $686 #
vertex $-1 $311 $687 #
straight-curve $-1 -20.292383426108024 -56.221070369685407 13.267693510130911 0 1 0 I I #
coedge $-1 $495 $495 $-1 $688 reversed $314 $-1 #
edge $-1 $689 0 $689 6.2831853071796004 $315 $690 forward 7 unknown #
vertex $-1 $318 $691 #
ellipse-curve $-1 -31.800583245812174 -24.971885609004136 11.392451254862438 0 -0.74314483375859142 0.66913059716165679 1 0 0 1 I I #
coedge $-1 $499 $499 $-1 $692 reversed $321 $-1 #
edge $-1 $693 0 $693 6.2831853071796004 $322 $694 forward 7 unknown #
vertex $-1 $325 $695 #
ellipse-curve $-1 -27.485008313423116 -24.971885609004136 11.392451254862438 0 -0.74314483375859142 0.66913059716165679 1 0 0 1 I I #
coedge $-1 $503 $503 $-1 $696 reversed $328 $-1 #
edge $-1 $697 0 $697 6.2831853071796004 $329 $698 forward 7 unknown #
vertex $-1 $332 $699 #
ellipse-curve $-1 -23.169433381034061 -24.971885609004136 11.392451254862438 0 -0.74314483375859142 0.66913059716165679 1 0 0 1 I I #
face $-1 $-1 $519 $72 $-1 $700 forward single #
loop $-1 $-1 $701 $333 #
plane-surface $-1 0 -26.660361277662528 0 0 1 0 0 0 1 forward_v I I I I #
coedge $-1 $702 $703 $704 $705 reversed $334 $-1 #
coedge $-1 $706 $336 $338 $517 forward $210 $-1 #
coedge $-1 $336 $706 $702 $707 forward $210 $-1 #
coedge $-1 $704 $339 $336 $514 forward $519 $-1 #
edge $-1 $521 -5.2509707536775974 $708 9.1342790209525884 $513 $709 forward 7 unknown #
coedge $-1 $710 $711 $337 $516 forward $508 $-1 #
edge $-1 $712 -33.860525116226434 $520 -30.110040605689484 $515 $713 forward 7 unknown #
edge $-1 $521 -5.0467746530217665 $712 1.6372321133104749e-014 $338 $714 forward 7 unknown #
coedge $-1 $339 $704 $710 $715 forward $519 $-1 #
loop $-1 $-1 $704 $507 #
vertex $-1 $516 $716 #
vertex $-1 $340 $717 #
straight-curve $-1 3.3093166200401019 -56.221070369685407 13.267693510130911 0 1 0 I I #
coedge $-1 $523 $523 $-1 $718 reversed $343 $-1 #
edge $-1 $719 0 $719 6.2831853071796004 $344 $720 forward 7 unknown #
vertex $-1 $347 $721 #
ellipse-curve $-1 -8.1988831996640528 -24.971885609004136 11.392451254862438 0 -0.74314483375859142 0.66913059716165679 1 0 0 1 I I #
coedge $-1 $527 $527 $-1 $722 reversed $350 $-1 #
edge $-1 $723 0 $723 6.2831853071796004 $351 $724 forward 7 unknown #
vertex $-1 $354 $725 #
ellipse-curve $-1 -3.883308267274991 -24.971885609004136 11.392451254862438 0 -0.74314483375859142 0.66913059716165679 1 0 0 1 I I #
coedge $-1 $531 $531 $-1 $726 reversed $357 $-1 #
edge $-1 $727 0 $727 6.2831853071796004 $358 $728 forward 7 unknown #
vertex $-1 $361 $729 #
ellipse-curve $-1 0.43226666511406364 -24.971885609004136 11.392451254862438 0 -0.74314483375859142 0.66913059716165679 1 0 0 1 I I #
face $-1 $-1 $547 $76 $-1 $730 forward single #
loop $-1 $-1 $731 $362 #
plane-surface $-1 0 -26.660361277662528 0 0 1 0 0 0 1 forward_v I I I I #
coedge $-1 $732 $733 $734 $735 reversed $363 $-1 #
coedge $-1 $736 $365 $367 $545 forward $229 $-1 #
coedge $-1 $365 $736 $732 $737 forward $229 $-1 #
coedge $-1 $734 $368 $365 $542 forward $547 $-1 #
edge $-1 $549 -17.051820776751658 $738 -2.6665710021214739 $541 $739 forward 7 unknown #
coedge $-1 $740 $741 $366 $544 forward $536 $-1 #
edge $-1 $742 -33.860525116226434 $548 -30.110040605689484 $543 $743 forward 7 unknown #
edge $-1 $549 -5.0467746530217665 $742 1.6372321133104749e-014 $367 $744 forward 7 unknown #
coedge $-1 $368 $734 $740 $745 forward $547 $-1 #
loop $-1 $-1 $734 $535 #
vertex $-1 $544 $746 #
vertex $-1 $369 $747 #
straight-curve $-1 26.911016666188225 -56.221070369685407 13.267693510130911 0 1 0 I I #
coedge $-1 $551 $551 $-1 $748 reversed $372 $-1 #
edge $-1 $749 0 $749 6.2831853071796004 $373 $750 forward 7 unknown #
vertex $-1 $376 $751 #
ellipse-curve $-1 15.402816846484065 -24.971885609004136 11.392451254862438 0 -0.74314483375859142 0.66913059716165679 1 0 0 1 I I #
coedge $-1 $555 $555 $-1 $752 reversed $379 $-1 #
edge $-1 $753 0 $753 6.2831853071796004 $380 $754 forward 7 unknown #
vertex $-1 $383 $755 #
ellipse-curve $-1 19.718391778873134 -24.971885609004136 11.392451254862438 0 -0.74314483375859142 0.66913059716165679 1 0 0 1 I I #
coedge $-1 $559 $559 $-1 $756 reversed $386 $-1 #
edge $-1 $757 0 $757 6.2831853071796004 $387 $758 forward 7 unknown #
vertex $-1 $390 $759 #
ellipse-curve $-1 24.033966711262188 -24.971885609004136 11.392451254862438 0 -0.74314483375859142 0.66913059716165679 1 0 0 1 I I #
face $-1 $-1 $575 $80 $-1 $760 forward single #
loop $-1 $-1 $761 $391 #
plane-surface $-1 0 -26.660361277662528 0 0 1 0 0 0 1 forward_v I I I I #
coedge $-1 $762 $763 $764 $765 reversed $392 $-1 #
coedge $-1 $766 $394 $396 $573 forward $248 $-1 #
coedge $-1 $394 $766 $762 $767 forward $248 $-1 #
coedge $-1 $764 $397 $394 $570 forward $575 $-1 #
edge $-1 $577 -28.85267079982572 $768 -14.467421025195538 $569 $769 forward 7 unknown #
coedge $-1 $770 $771 $395 $572 forward $564 $-1 #
edge $-1 $772 -33.860525116226434 $576 -30.110040605689484 $571 $773 forward 7 unknown #
edge $-1 $577 -5.0467746530217665 $772 1.6372321133104749e-014 $396 $774 forward 7 unknown #
coedge $-1 $397 $764 $770 $775 forward $575 $-1 #
loop $-1 $-1 $764 $563 #
vertex $-1 $572 $776 #
vertex $-1 $398 $777 #
straight-curve $-1 50.512716712336349 -56.221070369685407 13.267693510130911 0 1 0 I I #
coedge $-1 $579 $579 $-1 $778 reversed $401 $-1 #
edge $-1 $779 0 $779 6.2831853071796004 $402 $780 forward 7 unknown #
vertex $-1 $405 $781 #
ellipse-curve $-1 39.004516892632189 -24.971885609004136 11.392451254862438 0 -0.74314483375859142 0.66913059716165679 1 0 0 1 I I #
coedge $-1 $583 $583 $-1 $782 reversed $408 $-1 #
edge $-1 $783 0 $783 6.2831853071796004 $409 $784 forward 7 unknown #
vertex $-1 $412 $785 #
ellipse-curve $-1 43.320091825021258 -24.971885609004136 11.392451254862438 0 -0.74314483375859142 0.66913059716165679 1 0 0 1 I I #
coedge $-1 $587 $587 $-1 $786 reversed $415 $-1 #
edge $-1 $787 0 $787 6.2831853071796004 $416 $788 forward 7 unknown #
vertex $-1 $419 $789 #
ellipse-curve $-1 47.635666757410313 -24.971885609004136 11.392451254862438 0 -0.74314483375859142 0.66913059716165679 1 0 0 1 I I #
face $-1 $-1 $435 $63 $-1 $790 reversed single #
loop $-1 $-1 $607 $420 #
plane-surface $-1 0 26.660361277662528 0 0 -1 0 0 0 -1 forward_v I I I I #
coedge $-1 $791 $605 $608 $792 forward $421 $-1 #
coedge $-1 $611 $423 $424 $599 reversed $267 $-1 #
coedge $-1 $605 $791 $423 $597 reversed $421 $-1 #
edge $-1 $612 -13.267693510130909 $793 13.267693510130909 $596 $794 forward 7 unknown #
coedge $-1 $425 $424 $791 $795 forward $169 $-1 #
edge $-1 $603 -57.715384380626851 $793 57.715384380626851 $595 $796 forward 7 unknown #
coedge $-1 $608 $607 $425 $601 reversed $592 $-1 #
edge $-1 $797 -57.715384380626851 $602 57.715384380626851 $600 $798 forward 7 unknown #
vertex $-1 $427 $799 #
vertex $-1 $614 $800 #
straight-curve $-1 57.715384380626851 0 -13.267693510130909 0 -1 0 I I #
coedge $-1 $594 $596 $428 $606 reversed $421 $-1 #
edge $-1 $609 -26.660361277662528 $612 26.660361277662528 $605 $801 forward 7 unknown #
coedge $-1 $600 $429 $434 $615 forward $592 $-1 #
coedge $-1 $429 $600 $594 $792 reversed $592 $-1 #
vertex $-1 $430 $802 #
straight-curve $-1 0 26.660361277662528 13.267693510130909 -1 0 0 I I #
coedge $-1 $431 $595 $433 $614 reversed $267 $-1 #
vertex $-1 $606 $803 #
straight-curve $-1 0 -26.660361277662528 13.267693510130909 1 0 0 I I #
edge $-1 $436 -13.267693510130909 $603 13.267693510130909 $433 $804 forward 7 unknown #
edge $-1 $437 -13.267693510130909 $602 13.267693510130909 $434 $805 forward 7 unknown #
point $-1 57.715384380626851 -26.660361277662528 13.267693510130909 #
point $-1 57.715384380626851 26.660361277662528 13.267693510130909 #
face $-1 $-1 $635 $64 $-1 $806 reversed single #
loop $-1 $-1 $807 $439 #
plane-surface $-1 -57.715384380626851 0 0 1 0 0 0 0 -1 forward_v I I I I #
coedge $-1 $622 $638 $443 $625 forward $440 $-1 #
coedge $-1 $450 $621 $442 $623 forward $440 $-1 #
edge $-1 $629 -5.2145669908959 $453 -2.0958674165152629 $622 $808 forward 7 unknown #
coedge $-1 $444 $443 $807 $809 reversed $173 $-1 #
edge $-1 $810 -32.816463068212954 $629 -16.981379556614829 $621 $811 forward 7 unknown #
coedge $-1 $634 $633 $444 $627 forward $635 $-1 #
edge $-1 $628 16.981379556614829 $812 32.816463068212954 $626 $813 forward 7 unknown #
vertex $-1 $627 $814 #
vertex $-1 $625 $815 #
straight-curve $-1 -41.880300869028723 0 -8.8697841946014808 0 -1 0 I I #
coedge $-1 $816 $817 $447 $632 forward $619 $-1 #
edge $-1 $639 -26.660361277662528 $636 26.660361277662528 $631 $818 forward 7 unknown #
coedge $-1 $626 $448 $452 $641 forward $635 $-1 #
coedge $-1 $448 $626 $816 $819 reversed $635 $-1 #
loop $-1 $-1 $626 $618 #
vertex $-1 $819 $820 #
straight-curve $-1 -24.898921312413894 26.660361277662528 -5.7510846202208441 1 0 0 I I #
coedge $-1 $621 $450 $817 $821 forward $440 $-1 #
vertex $-1 $821 $822 #
straight-curve $-1 -24.898921312413894 -26.660361277662528 -5.7510846202208441 -1 0 0 I I #
edge $-1 $454 2.0958674165152629 $628 5.2145669908959 $633 $823 forward 7 unknown #
point $-1 -41.880300869028723 -26.660361277662528 -5.7510846202208441 #
point $-1 -41.880300869028723 26.660361277662528 -5.7510846202208441 #
loop $-1 $-1 $464 $456 #
plane-surface $-1 0 26.660361277662528 0 0 -1 0 0 0 -1 forward_v I I I I #
coedge $-1 $647 $459 $461 $651 reversed $283 $-1 #
coedge $-1 $459 $646 $824 $825 reversed $283 $-1 #
coedge $-1 $467 $462 $459 $649 forward $457 $-1 #
edge $-1 $652 -7.8198060791859412 $826 6.45694958168448 $648 $827 forward 7 unknown #
coedge $-1 $461 $460 $655 $828 reversed $177 $-1 #
edge $-1 $829 -53.320722555325069 $652 -36.664982517479743 $646 $830 forward 7 unknown #
vertex $-1 $463 $831 #
straight-curve $-1 0.33599729191428551 12.383605616792114 13.267693510130909 1 0 0 I I #
coedge $-1 $824 $464 $467 $659 reversed $644 $-1 #
coedge $-1 $464 $824 $650 $828 forward $644 $-1 #
vertex $-1 $465 $832 #
straight-curve $-1 -11.32207120734558 26.660361277662528 65.547517887806052 0 0 1 I I #
straight-curve $-1 -11.32207120734558 -19.044418327069906 32.151555773744548 0 0.85716729658548041 -0.51503808176128008 I I #
edge $-1 $826 -12.666060375002722 $468 11.32207120734558 $654 $833 forward 7 unknown #
point $-1 -11.32207120734558 26.660361277662528 13.267693510130909 #
point $-1 -11.32207120734558 12.383605616792106 13.267693510130911 #
edge $-1 $834 1 $834 0 $471 $-1 forward 7 unknown #
vertex $-1 $472 $835 #
ellipse-curve $-1 -4.4683193266746386 16.474728500637852 3.9070395171468402 0 0.51503808176128008 0.85716729658548041 2 0 0 1 I I #
point $-1 -2.4683193266746386 19.521983447227282 8.9785233104276987 #
edge $-1 $836 1 $836 0 $475 $-1 forward 7 unknown #
vertex $-1 $476 $837 #
ellipse-curve $-1 5.8123084943317735 16.474728500637852 3.9070395171468402 0 0.51503808176128008 0.85716729658548041 2 0 0 1 I I #
point $-1 7.8123084943317735 19.521983447227282 8.9785233104276987 #
plane-surface $-1 0 0 13.267693510130909 0 0 1 1 0 0 forward_v I I I I #
coedge $-1 $681 $680 $673 $838 forward $480 $-1 #
coedge $-1 $673 $482 $484 $677 reversed $305 $-1 #
coedge $-1 $482 $672 $671 $838 reversed $305 $-1 #
coedge $-1 $490 $485 $482 $675 forward $491 $-1 #
edge $-1 $678 -32.937660429339658 $839 -29.560709092022879 $674 $840 forward 7 unknown #
coedge $-1 $484 $483 $681 $841 reversed $191 $-1 #
edge $-1 $842 -1.6372321133104749e-014 $678 5.0467746530217665 $672 $843 forward 7 unknown #
vertex $-1 $486 $844 #
straight-curve $-1 -13.742504156711558 -23.283409940345749 13.267693510130909 -1 0 0 I I #
coedge $-1 $671 $487 $490 $685 reversed $480 $-1 #
coedge $-1 $487 $671 $676 $841 forward $480 $-1 #
vertex $-1 $488 $845 #
straight-curve $-1 -20.292383426108024 -26.660361277662531 43.377734115820395 0 0 1 I I #
straight-curve $-1 -20.292383426108024 -26.660361277662517 9.5172089995939757 0 -0.66913059716165679 -0.74314483375859142 I I #
edge $-1 $839 -34.677633200738207 $492 -20.292383426108024 $680 $846 forward 7 unknown #
point $-1 -20.292383426108024 -26.660361277662528 13.267693510130909 #
point $-1 -20.292383426108024 -23.283409940345749 13.267693510130909 #
edge $-1 $847 1 $847 0 $495 $-1 forward 7 unknown #
vertex $-1 $496 $848 #
ellipse-curve $-1 -31.800583245812174 -22.407880576779345 9.0838108117057086 0 -0.74314483375859142 0.66913059716165679 1 0 0 1 I I #
point $-1 -30.800583245812174 -24.971885609004143 11.392451254862445 #
edge $-1 $849 1 $849 0 $499 $-1 forward 7 unknown #
vertex $-1 $500 $850 #
ellipse-curve $-1 -27.485008313423116 -22.407880576779345 9.0838108117057086 0 -0.74314483375859142 0.66913059716165679 1 0 0 1 I I #
point $-1 -26.485008313423116 -24.971885609004143 11.392451254862445 #
edge $-1 $851 1 $851 0 $503 $-1 forward 7 unknown #
vertex $-1 $504 $852 #
ellipse-curve $-1 -23.169433381034061 -22.407880576779345 9.0838108117057086 0 -0.74314483375859142 0.66913059716165679 1 0 0 1 I I #
point $-1 -22.169433381034061 -24.971885609004143 11.392451254862445 #
plane-surface $-1 0 0 13.267693510130909 0 0 1 1 0 0 forward_v I I I I #
coedge $-1 $711 $710 $703 $853 forward $508 $-1 #
coedge $-1 $703 $510 $512 $707 reversed $334 $-1 #
coedge $-1 $510 $702 $701 $853 reversed $334 $-1 #
coedge $-1 $518 $513 $510 $705 forward $519 $-1 #
edge $-1 $708 -32.937660429339658 $854 -29.560709092022879 $704 $855 forward 7 unknown #
coedge $-1 $512 $511 $711 $856 reversed $210 $-1 #
edge $-1 $857 -1.6372321133104749e-014 $708 5.0467746530217665 $702 $858 forward 7 unknown #
vertex $-1 $514 $859 #
straight-curve $-1 -1.9416541336374955 -23.283409940345749 13.267693510130909 -1 0 0 I I #
coedge $-1 $701 $515 $518 $715 reversed $508 $-1 #
coedge $-1 $515 $701 $706 $856 forward $508 $-1 #
vertex $-1 $516 $860 #
straight-curve $-1 3.3093166200401019 -26.660361277662531 43.377734115820395 0 0 1 I I #
straight-curve $-1 3.3093166200401019 -26.660361277662517 9.5172089995939757 0 -0.66913059716165679 -0.74314483375859142 I I #
edge $-1 $854 -11.075933154590084 $520 3.3093166200401019 $710 $861 forward 7 unknown #
point $-1 3.3093166200401019 -26.660361277662528 13.267693510130909 #
point $-1 3.3093166200401019 -23.283409940345749 13.267693510130909 #
edge $-1 $862 1 $862 0 $523 $-1 forward 7 unknown #
vertex $-1 $524 $863 #
ellipse-curve $-1 -8.1988831996640528 -22.407880576779345 9.0838108117057086 0 -0.74314483375859142 0.66913059716165679 1 0 0 1 I I #
point $-1 -7.1988831996640528 -24.971885609004143 11.392451254862445 #
edge $-1 $864 1 $864 0 $527 $-1 forward 7 unknown #
vertex $-1 $528 $865 #
ellipse-curve $-1 -3.883308267274991 -22.407880576779345 9.0838108117057086 0 -0.74314483375859142 0.66913059716165679 1 0 0 1 I I #
point $-1 -2.883308267274991 -24.971885609004143 11.392451254862445 #
edge $-1 $866 1 $866 0 $531 $-1 forward 7 unknown #
vertex $-1 $532 $867 #
ellipse-curve $-1 0.43226666511406364 -22.407880576779345 9.0838108117057086 0 -0.74314483375859142 0.66913059716165679 1 0 0 1 I I #
point $-1 1.4322666651140636 -24.971885609004143 11.392451254862445 #
plane-surface $-1 0 0 13.267693510130909 0 0 1 1 0 0 forward_v I I I I #
coedge $-1 $741 $740 $733 $868 forward $536 $-1 #
coedge $-1 $733 $538 $540 $737 reversed $363 $-1 #
coedge $-1 $538 $732 $731 $868 reversed $363 $-1 #
coedge $-1 $546 $541 $538 $735 forward $547 $-1 #
edge $-1 $738 -32.937660429339658 $869 -29.560709092022879 $734 $870 forward 7 unknown #
coedge $-1 $540 $539 $741 $871 reversed $229 $-1 #
edge $-1 $872 -1.6372321133104749e-014 $738 5.0467746530217665 $732 $873 forward 7 unknown #
vertex $-1 $542 $874 #
straight-curve $-1 9.8591958894365668 -23.283409940345749 13.267693510130909 -1 0 0 I I #
coedge $-1 $731 $543 $546 $745 reversed $536 $-1 #
coedge $-1 $543 $731 $736 $871 forward $536 $-1 #
vertex $-1 $544 $875 #
straight-curve $-1 26.911016666188225 -26.660361277662531 43.377734115820395 0 0 1 I I #
straight-curve $-1 26.911016666188225 -26.660361277662517 9.5172089995939757 0 -0.66913059716165679 -0.74314483375859142 I I #
edge $-1 $869 12.525766891558041 $548 26.911016666188225 $740 $876 forward 7 unknown #
point $-1 26.911016666188225 -26.660361277662528 13.267693510130909 #
point $-1 26.911016666188225 -23.283409940345749 13.267693510130909 #
edge $-1 $877 1 $877 0 $551 $-1 forward 7 unknown #
vertex $-1 $552 $878 #
ellipse-curve $-1 15.402816846484065 -22.407880576779345 9.0838108117057086 0 -0.74314483375859142 0.66913059716165679 1 0 0 1 I I #
point $-1 16.402816846484065 -24.971885609004143 11.392451254862445 #
edge $-1 $879 1 $879 0 $555 $-1 forward 7 unknown #
vertex $-1 $556 $880 #
ellipse-curve $-1 19.718391778873134 -22.407880576779345 9.0838108117057086 0 -0.74314483375859142 0.66913059716165679 1 0 0 1 I I #
point $-1 20.718391778873134 -24.971885609004143 11.392451254862445 #
edge $-1 $881 1 $881 0 $559 $-1 forward 7 unknown #
vertex $-1 $560 $882 #
ellipse-curve $-1 24.033966711262188 -22.407880576779345 9.0838108117057086 0 -0.74314483375859142 0.66913059716165679 1 0 0 1 I I #
point $-1 25.033966711262188 -24.971885609004143 11.392451254862445 #
plane-surface $-1 0 0 13.267693510130909 0 0 1 1 0 0 forward_v I I I I #
coedge $-1 $771 $770 $763 $883 forward $564 $-1 #
coedge $-1 $763 $566 $568 $767 reversed $392 $-1 #
coedge $-1 $566 $762 $761 $883 reversed $392 $-1 #
coedge $-1 $574 $569 $566 $765 forward $575 $-1 #
edge $-1 $768 -32.937660429339658 $884 -29.560709092022879 $764 $885 forward 7 unknown #
coedge $-1 $568 $567 $771 $886 reversed $248 $-1 #
edge $-1 $887 -1.6372321133104749e-014 $768 5.0467746530217665 $762 $888 forward 7 unknown #
vertex $-1 $570 $889 #
straight-curve $-1 21.660045912510629 -23.283409940345749 13.267693510130909 -1 0 0 I I #
coedge $-1 $761 $571 $574 $775 reversed $564 $-1 #
coedge $-1 $571 $761 $766 $886 forward $564 $-1 #
vertex $-1 $572 $890 #
straight-curve $-1 50.512716712336349 -26.660361277662531 43.377734115820395 0 0 1 I I #
straight-curve $-1 50.512716712336349 -26.660361277662517 9.5172089995939757 0 -0.66913059716165679 -0.74314483375859142 I I #
edge $-1 $884 36.127466937706167 $576 50.512716712336349 $770 $891 forward 7 unknown #
point $-1 50.512716712336349 -26.660361277662528 13.267693510130909 #
point $-1 50.512716712336349 -23.283409940345749 13.267693510130909 #
edge $-1 $892 1 $892 0 $579 $-1 forward 7 unknown #
vertex $-1 $580 $893 #
ellipse-curve $-1 39.004516892632189 -22.407880576779345 9.0838108117057086 0 -0.74314483375859142 0.66913059716165679 1 0 0 1 I I #
point $-1 40.004516892632189 -24.971885609004143 11.392451254862445 #
edge $-1 $894 1 $894 0 $583 $-1 forward 7 unknown #
vertex $-1 $584 $895 #
ellipse-curve $-1 43.320091825021258 -22.407880576779345 9.0838108117057086 0 -0.74314483375859142 0.66913059716165679 1 0 0 1 I I #
point $-1 44.320091825021258 -24.971885609004143 11.392451254862445 #
edge $-1 $896 1 $896 0 $587 $-1 forward 7 unknown #
vertex $-1 $588 $897 #
ellipse-curve $-1 47.635666757410313 -22.407880576779345 9.0838108117057086 0 -0.74314483375859142 0.66913059716165679 1 0 0 1 I I #
point $-1 48.635666757410313 -24.971885609004143 11.392451254862445 #
plane-surface $-1 57.715384380626851 0 0 -1 0 0 0 0 1 forward_v I I I I #
coedge $-1 $596 $594 $598 $795 reversed $421 $-1 #
edge $-1 $609 -13.267693510130909 $797 13.267693510130909 $608 $898 forward 7 unknown #
vertex $-1 $795 $899 #
straight-curve $-1 -57.715384380626851 -26.660361277662528 0 0 0 -1 I I #
edge $-1 $793 -26.660361277662528 $797 26.660361277662528 $791 $900 forward 7 unknown #
straight-curve $-1 0 -26.660361277662528 -13.267693510130909 -1 0 0 I I #
vertex $-1 $601 $901 #
straight-curve $-1 0 26.660361277662528 -13.267693510130909 1 0 0 I I #
point $-1 57.715384380626851 26.660361277662528 -13.267693510130909 #
point $-1 57.715384380626851 -26.660361277662528 -13.267693510130909 #
straight-curve $-1 -57.715384380626851 0 13.267693510130909 0 -1 0 I I #
point $-1 -57.715384380626851 26.660361277662528 13.267693510130909 #
point $-1 -57.715384380626851 -26.660361277662528 13.267693510130909 #
straight-curve $-1 57.715384380626851 -26.660361277662528 0 0 0 -1 I I #
straight-curve $-1 57.715384380626851 26.660361277662528 0 0 0 -1 I I #
plane-surface $-1 0 26.660361277662528 0 0 -1 0 0 0 -1 forward_v I I I I #
coedge $-1 $817 $816 $624 $809 forward $619 $-1 #
straight-curve $-1 -41.880300869028723 -26.660361277662528 -3.6552172037055812 0 0 1 I I #
edge $-1 $812 -26.660361277662528 $810 26.660361277662528 $807 $902 forward 7 unknown #
vertex $-1 $625 $903 #
straight-curve $-1 -24.898921312413894 -26.660361277662528 -8.8697841946014808 1 0 0 I I #
vertex $-1 $627 $904 #
straight-curve $-1 -24.898921312413894 26.660361277662528 -8.8697841946014808 -1 0 0 I I #
point $-1 -41.880300869028723 26.660361277662528 -8.8697841946014808 #
point $-1 -41.880300869028723 -26.660361277662528 -8.8697841946014808 #
coedge $-1 $807 $631 $634 $819 forward $619 $-1 #
coedge $-1 $631 $807 $638 $821 reversed $619 $-1 #
straight-curve $-1 -57.715384380626851 0 -5.7510846202208441 0 1 0 I I #
edge $-1 $636 5.7510846202208441 $812 8.8697841946014808 $634 $905 forward 7 unknown #
point $-1 -57.715384380626851 26.660361277662528 -5.7510846202208441 #
edge $-1 $639 5.7510846202208441 $810 8.8697841946014808 $817 $906 forward 7 unknown #
point $-1 -57.715384380626851 -26.660361277662528 -5.7510846202208441 #
straight-curve $-1 -41.880300869028723 26.660361277662528 -3.6552172037055812 0 0 -1 I I #
coedge $-1 $655 $654 $647 $825 forward $644 $-1 #
edge $-1 $826 52.279824377675141 $829 60.858164777081548 $824 $907 forward 7 unknown #
vertex $-1 $659 $908 #
straight-curve $-1 12.666060375002722 20.203411695978048 13.267693510130911 0 1 0 I I #
edge $-1 $829 -12.330063083088437 $656 11.658068499259866 $655 $909 forward 7 unknown #
vertex $-1 $828 $910 #
straight-curve $-1 12.666060375002722 -19.044418327069906 32.151555773744548 0 -0.85716729658548041 0.51503808176128008 I I #
point $-1 12.666060375002722 12.383605616792106 13.267693510130911 #
point $-1 -11.32207120734558 26.660361277662531 4.6893531107245039 #
straight-curve $-1 0 26.660361277662528 13.267693510130909 -1 0 0 I I #
vertex $-1 $662 $911 #
point $-1 -2.4683193266746386 16.474728500637852 3.9070395171468402 #
vertex $-1 $666 $912 #
point $-1 7.8123084943317735 16.474728500637852 3.9070395171468402 #
edge $-1 $839 30.110040605689484 $842 33.860525116226434 $671 $913 forward 7 unknown #
vertex $-1 $685 $914 #
straight-curve $-1 -34.677633200738207 -56.221070369685407 13.267693510130911 0 -1 0 I I #
edge $-1 $842 -20.935129044026649 $682 -6.5498792693964667 $681 $915 forward 7 unknown #
vertex $-1 $841 $916 #
straight-curve $-1 -34.677633200738207 -26.660361277662517 9.5172089995939757 0 0.66913059716165679 0.74314483375859142 I I #
point $-1 -34.677633200738207 -23.283409940345749 13.267693510130909 #
point $-1 -20.292383426108024 -26.660361277662528 9.5172089995939633 #
straight-curve $-1 0 -26.660361277662528 13.267693510130909 1 0 0 I I #
vertex $-1 $688 $917 #
point $-1 -30.800583245812174 -22.407880576779345 9.0838108117057086 #
vertex $-1 $692 $918 #
point $-1 -26.485008313423116 -22.407880576779345 9.0838108117057086 #
vertex $-1 $696 $919 #
point $-1 -22.169433381034061 -22.407880576779345 9.0838108117057086 #
edge $-1 $854 30.110040605689484 $857 33.860525116226434 $701 $920 forward 7 unknown #
vertex $-1 $715 $921 #
straight-curve $-1 -11.075933154590084 -56.221070369685407 13.267693510130911 0 -1 0 I I #
edge $-1 $857 -9.1342790209525884 $712 5.2509707536775974 $711 $922 forward 7 unknown #
vertex $-1 $856 $923 #
straight-curve $-1 -11.075933154590084 -26.660361277662517 9.5172089995939757 0 0.66913059716165679 0.74314483375859142 I I #
point $-1 -11.075933154590084 -23.283409940345749 13.267693510130909 #
point $-1 3.3093166200401019 -26.660361277662528 9.5172089995939633 #
straight-curve $-1 0 -26.660361277662528 13.267693510130909 1 0 0 I I #
vertex $-1 $718 $924 #
point $-1 -7.1988831996640528 -22.407880576779345 9.0838108117057086 #
vertex $-1 $722 $925 #
point $-1 -2.883308267274991 -22.407880576779345 9.0838108117057086 #
vertex $-1 $726 $926 #
point $-1 1.4322666651140636 -22.407880576779345 9.0838108117057086 #
edge $-1 $869 30.110040605689484 $872 33.860525116226434 $731 $927 forward 7 unknown #
vertex $-1 $745 $928 #
straight-curve $-1 12.525766891558041 -56.221070369685407 13.267693510130911 0 -1 0 I I #
edge $-1 $872 2.6665710021214739 $742 17.051820776751658 $741 $929 forward 7 unknown #
vertex $-1 $871 $930 #
straight-curve $-1 12.525766891558041 -26.660361277662517 9.5172089995939757 0 0.66913059716165679 0.74314483375859142 I I #
point $-1 12.525766891558041 -23.283409940345749 13.267693510130909 #
point $-1 26.911016666188225 -26.660361277662528 9.5172089995939633 #
straight-curve $-1 0 -26.660361277662528 13.267693510130909 1 0 0 I I #
vertex $-1 $748 $931 #
point $-1 16.402816846484065 -22.407880576779345 9.0838108117057086 #
vertex $-1 $752 $932 #
point $-1 20.718391778873134 -22.407880576779345 9.0838108117057086 #
vertex $-1 $756 $933 #
point $-1 25.033966711262188 -22.407880576779345 9.0838108117057086 #
edge $-1 $884 30.110040605689484 $887 33.860525116226434 $761 $934 forward 7 unknown #
vertex $-1 $775 $935 #
straight-curve $-1 36.127466937706167 -56.221070369685407 13.267693510130911 0 -1 0 I I #
edge $-1 $887 14.467421025195538 $772 28.85267079982572 $771 $936 forward 7 unknown #
vertex $-1 $886 $937 #
straight-curve $-1 36.127466937706167 -26.660361277662517 9.5172089995939757 0 0.66913059716165679 0.74314483375859142 I I #
point $-1 36.127466937706167 -23.283409940345749 13.267693510130909 #
point $-1 50.512716712336349 -26.660361277662528 9.5172089995939633 #
straight-curve $-1 0 -26.660361277662528 13.267693510130909 1 0 0 I I #
vertex $-1 $778 $938 #
point $-1 40.004516892632189 -22.407880576779345 9.0838108117057086 #
vertex $-1 $782 $939 #
point $-1 44.320091825021258 -22.407880576779345 9.0838108117057086 #
vertex $-1 $786 $940 #
point $-1 48.635666757410313 -22.407880576779345 9.0838108117057086 #
straight-curve $-1 -57.715384380626851 26.660361277662528 0 0 0 -1 I I #
point $-1 -57.715384380626851 -26.660361277662528 -13.267693510130909 #
straight-curve $-1 -57.715384380626851 0 -13.267693510130909 0 1 0 I I #
point $-1 -57.715384380626851 26.660361277662528 -13.267693510130909 #
straight-curve $-1 -57.715384380626851 0 -8.8697841946014808 0 -1 0 I I #
point $-1 -57.715384380626851 -26.660361277662528 -8.8697841946014808 #
point $-1 -57.715384380626851 26.660361277662528 -8.8697841946014808 #
straight-curve $-1 -57.715384380626851 26.660361277662528 0 0 0 -1 I I #
straight-curve $-1 -57.715384380626851 -26.660361277662528 0 0 0 -1 I I #
straight-curve $-1 12.666060375002722 26.660361277662528 65.547517887806052 0 0 -1 I I #
point $-1 12.666060375002722 26.660361277662528 13.267693510130909 #
straight-curve $-1 0.33599729191428551 26.660361277662531 4.6893531107245057 -1 0 0 I I #
point $-1 12.666060375002722 26.660361277662531 4.6893531107245039 #
point $-1 -4.4683193266746386 15.444652337115294 2.1927049239758798 #
point $-1 5.8123084943317735 15.444652337115294 2.1927049239758798 #
straight-curve $-1 -34.677633200738207 -26.660361277662531 43.377734115820395 0 0 -1 I I #
point $-1 -34.677633200738207 -26.660361277662528 13.267693510130909 #
straight-curve $-1 -13.742504156711558 -26.660361277662528 9.517208999593965 1 0 0 I I #
point $-1 -34.677633200738207 -26.660361277662528 9.5172089995939633 #
point $-1 -31.800583245812174 -21.664735743020753 8.4146802145440542 #
point $-1 -27.485008313423116 -21.664735743020753 8.4146802145440542 #
point $-1 -23.169433381034061 -21.664735743020753 8.4146802145440542 #
straight-curve $-1 -11.075933154590084 -26.660361277662531 43.377734115820395 0 0 -1 I I #
point $-1 -11.075933154590084 -26.660361277662528 13.267693510130909 #
straight-curve $-1 -1.9416541336374955 -26.660361277662528 9.517208999593965 1 0 0 I I #
point $-1 -11.075933154590084 -26.660361277662528 9.5172089995939633 #
point $-1 -8.1988831996640528 -21.664735743020753 8.4146802145440542 #
point $-1 -3.883308267274991 -21.664735743020753 8.4146802145440542 #
point $-1 0.43226666511406364 -21.664735743020753 8.4146802145440542 #
straight-curve $-1 12.525766891558041 -26.660361277662531 43.377734115820395 0 0 -1 I I #
point $-1 12.525766891558041 -26.660361277662528 13.267693510130909 #
straight-curve $-1 9.8591958894365668 -26.660361277662528 9.517208999593965 1 0 0 I I #
point $-1 12.525766891558041 -26.660361277662528 9.5172089995939633 #
point $-1 15.402816846484065 -21.664735743020753 8.4146802145440542 #
point $-1 19.718391778873134 -21.664735743020753 8.4146802145440542 #
point $-1 24.033966711262188 -21.664735743020753 8.4146802145440542 #
straight-curve $-1 36.127466937706167 -26.660361277662531 43.377734115820395 0 0 -1 I I #
point $-1 36.127466937706167 -26.660361277662528 13.267693510130909 #
straight-curve $-1 21.660045912510629 -26.660361277662528 9.517208999593965 1 0 0 I I #
point $-1 36.127466937706167 -26.660361277662528 9.5172089995939633 #
point $-1 39.004516892632189 -21.664735743020753 8.4146802145440542 #
point $-1 43.320091825021258 -21.664735743020753 8.4146802145440542 #
point $-1 47.635666757410313 -21.664735743020753 8.4146802145440542 #
End-of-ACIS-data 