500 0 10 0           
7 Unknown 11 ACIS 5.0 NT 24 Fri Mar 26 18:47:29 1999 
-1 9.9999999999999995e-007 1e-010 
body $-1 $10 $-1 $11 #
body $-1 $12 $-1 $13 #
body $-1 $14 $-1 $15 #
body $-1 $16 $-1 $17 #
body $-1 $18 $-1 $19 #
body $-1 $20 $-1 $21 #
body $-1 $22 $-1 $23 #
body $-1 $24 $-1 $25 #
body $-1 $26 $-1 $27 #
body $-1 $28 $-1 $29 #
lump $-1 $-1 $30 $0 #
transform $-1 1 0 0 0 1 0 0 0 1 75.910519730216379 38.766096435608262 14.873725528381208 1 rotate no_reflect no_shear #
lump $-1 $-1 $31 $1 #
transform $-1 1 0 0 0 1 0 0 0 1 75.910519730216379 38.766096435608262 14.873725528381208 1 rotate no_reflect no_shear #
lump $-1 $-1 $32 $2 #
transform $-1 1 0 0 0 1 0 0 0 1 75.910519730216379 38.766096435608262 14.873725528381208 1 rotate no_reflect no_shear #
lump $-1 $-1 $33 $3 #
transform $-1 1 0 0 0 1 0 0 0 1 75.910519730216379 38.766096435608262 14.873725528381208 1 rotate no_reflect no_shear #
lump $-1 $-1 $34 $4 #
transform $-1 1 0 0 0 1 0 0 0 1 75.910519730216379 38.766096435608262 14.873725528381208 1 rotate no_reflect no_shear #
lump $-1 $-1 $35 $5 #
transform $-1 1 0 0 0 1 0 0 0 1 75.910519730216379 38.766096435608262 14.873725528381208 1 rotate no_reflect no_shear #
lump $-1 $-1 $36 $6 #
transform $-1 1 0 0 0 1 0 0 0 1 75.910519730216379 38.766096435608262 14.873725528381208 1 rotate no_reflect no_shear #
lump $-1 $-1 $37 $7 #
transform $-1 1 0 0 0 1 0 0 0 1 75.910519730216379 38.766096435608262 14.873725528381208 1 rotate no_reflect no_shear #
lump $-1 $-1 $38 $8 #
transform $-1 1 0 0 0 1 0 0 0 1 75.910519730216379 38.766096435608262 14.873725528381208 1 rotate no_reflect no_shear #
lump $-1 $-1 $39 $9 #
transform $-1 1 0 0 0 1 0 0 0 1 75.910519730216379 38.766096435608262 14.873725528381208 1 rotate no_reflect no_shear #
shell $-1 $-1 $-1 $40 $-1 $10 #
shell $-1 $-1 $-1 $41 $-1 $12 #
shell $-1 $-1 $-1 $42 $-1 $14 #
shell $-1 $-1 $-1 $43 $-1 $16 #
shell $-1 $-1 $-1 $44 $-1 $18 #
shell $-1 $-1 $-1 $45 $-1 $20 #
shell $-1 $-1 $-1 $46 $-1 $22 #
shell $-1 $-1 $-1 $47 $-1 $24 #
shell $-1 $-1 $-1 $48 $-1 $26 #
shell $-1 $-1 $-1 $49 $-1 $28 #
face $-1 $50 $51 $30 $-1 $52 forward single #
face $-1 $53 $54 $31 $-1 $55 reversed single #
face $-1 $56 $57 $32 $-1 $58 reversed single #
face $-1 $59 $60 $33 $-1 $61 reversed single #
face $-1 $62 $63 $34 $-1 $64 forward single #
face $-1 $65 $66 $35 $-1 $67 reversed single #
face $-1 $68 $69 $36 $-1 $70 forward single #
face $-1 $71 $72 $37 $-1 $73 reversed single #
face $-1 $74 $75 $38 $-1 $76 forward single #
face $-1 $77 $78 $39 $-1 $79 forward single #
face $-1 $80 $81 $30 $-1 $82 reversed single #
loop $-1 $-1 $83 $40 #
plane-surface $-1 0 0 14.873725528381208 0 0 1 1 0 0 forward_v I I I I #
face $-1 $84 $85 $31 $-1 $86 reversed single #
loop $-1 $-1 $87 $41 #
plane-surface $-1 0 -31.084014884072399 10.00520977222105 0 0 1 1 0 0 forward_v I I I I #
face $-1 $88 $89 $32 $-1 $90 reversed single #
loop $-1 $-1 $91 $42 #
plane-surface $-1 -58.49591881100632 21.586419168184793 0 0 1 0 0 0 1 forward_v I I I I #
face $-1 $92 $93 $33 $-1 $94 reversed single #
loop $-1 $-1 $95 $43 #
plane-surface $-1 -186.94540017801518 -9.3398617742513981 111.66201217829305 0 1 0 -0.73135370988377701 0 0.68199835119979291 forward_v I I I I #
face $-1 $96 $97 $34 $-1 $98 forward single #
loop $-1 $99 $100 $44 #
cone-surface $-1 -71.071532950748718 -5.1238094282136331 9.9209221390896936 0.73135370988377701 0 -0.68199835119979291 1.0229975267996894 0 1.0970305648256655 1 I I 0 1 1.5 forward I I I I #
face $-1 $101 $102 $35 $-1 $103 reversed single #
loop $-1 $-1 $104 $45 #
plane-surface $-1 -186.94540017801518 13.154314476109269 111.66201217829305 0 1 0 -0.73135370988377701 0 0.68199835119979291 forward_v I I I I #
face $-1 $105 $106 $36 $-1 $107 forward single #
loop $-1 $108 $109 $46 #
cone-surface $-1 -71.071532950748718 17.370366822147034 9.9209221390896936 0.73135370988377701 0 -0.68199835119979291 1.0229975267996894 0 1.0970305648256655 1 I I 0 1 1.5 forward I I I I #
face $-1 $110 $111 $37 $-1 $112 reversed single #
loop $-1 $-1 $113 $47 #
plane-surface $-1 42.322888653999314 7.3795519873811593 218.68444008180103 0 -1 0 -0.5877852598018023 0 -0.80901698891910034 forward_v I I I I #
face $-1 $114 $115 $38 $-1 $116 forward single #
loop $-1 $117 $118 $48 #
cone-surface $-1 69.615348044140404 2.1754406576849874 9.9001326367416826 -0.5877852598018023 0 -0.80901698891910034 0.80901698891910034 0 -0.5877852598018023 1 I I 0 1 1 forward I I I I #
face $-1 $119 $120 $39 $-1 $121 forward single #
loop $-1 $122 $123 $49 #
cone-surface $-1 69.615348044140404 5.2979074555026884 9.9001326367416826 -0.5877852598018023 0 -0.80901698891910034 0.80901698891910034 0 -0.5877852598018023 1 I I 0 1 1 forward I I I I #
face $-1 $124 $125 $30 $-1 $126 reversed single #
loop $-1 $-1 $127 $50 #
plane-surface $-1 0 0 -14.873725528381208 0 0 1 1 0 0 forward_v I I I I #
coedge $-1 $128 $129 $130 $131 forward $51 $-1 #
face $-1 $132 $133 $31 $-1 $134 reversed single #
loop $-1 $-1 $135 $53 #
plane-surface $-1 0 -23.401933332536537 12.439467650301129 0 -1 0 0 0 -1 forward_v I I I I #
coedge $-1 $136 $137 $138 $139 reversed $54 $-1 #
face $-1 $140 $141 $32 $-1 $142 reversed single #
loop $-1 $-1 $143 $56 #
plane-surface $-1 -61.03712116781459 30.176257801896526 0 1 0 0 0 0 -1 forward_v I I I I #
coedge $-1 $144 $145 $146 $147 forward $57 $-1 #
face $-1 $148 $149 $33 $-1 $150 reversed single #
loop $-1 $-1 $151 $59 #
plane-surface $-1 -75.910519730216379 -5.1238094282136331 8.1203135888392097 -0.73135370988377701 0 0.68199835119979291 0.68199835119979291 0 0.73135370988377701 forward_v I I I I #
coedge $-1 $152 $153 $154 $155 reversed $60 $-1 #
face $-1 $-1 $156 $34 $-1 $157 forward single #
loop $-1 $158 $159 $62 #
cone-surface $-1 -68.832860070628001 -5.1238094282136331 7.833325956169336 0.73135370988377701 0 -0.68199835119979291 0.51149876339984468 0 0.54851528241283276 1 I I -0.70710678118654757 0.70710678118654757 0.75 forward I I I I #
loop $-1 $-1 $160 $44 #
coedge $-1 $100 $100 $161 $162 reversed $63 $-1 #
face $-1 $163 $164 $35 $-1 $165 reversed single #
loop $-1 $-1 $166 $65 #
plane-surface $-1 -75.910519730216379 17.370366822147034 8.1203135888392097 -0.73135370988377701 0 0.68199835119979291 0.68199835119979291 0 0.73135370988377701 forward_v I I I I #
coedge $-1 $167 $168 $169 $170 reversed $66 $-1 #
face $-1 $-1 $171 $36 $-1 $172 forward single #
loop $-1 $173 $174 $68 #
cone-surface $-1 -68.832860070628001 17.370366822147034 7.833325956169336 0.73135370988377701 0 -0.68199835119979291 0.51149876339984468 0 0.54851528241283276 1 I I -0.70710678118654757 0.70710678118654757 0.75 forward I I I I #
loop $-1 $-1 $175 $46 #
coedge $-1 $109 $109 $176 $177 reversed $69 $-1 #
face $-1 $178 $179 $37 $-1 $180 reversed single #
loop $-1 $-1 $181 $71 #
plane-surface $-1 -46.915280468630826 3.7366740565938414 95.85863988295381 0.5877852598018023 0 0.80901698891910034 0.80901698891910034 0 -0.5877852598018023 forward_v I I I I #
coedge $-1 $182 $183 $184 $185 reversed $72 $-1 #
face $-1 $-1 $186 $38 $-1 $187 forward single #
loop $-1 $188 $189 $74 #
cone-surface $-1 68.706098941195251 2.1754406576849874 8.6486586346713992 -0.5877852598018023 0 -0.80901698891910034 0.40450849445955017 0 -0.29389262990090115 1 I I -0.70710678118654746 0.70710678118654746 0.5 forward I I I I #
loop $-1 $-1 $190 $48 #
coedge $-1 $118 $118 $191 $192 reversed $75 $-1 #
face $-1 $-1 $193 $39 $-1 $194 forward single #
loop $-1 $195 $196 $77 #
cone-surface $-1 68.706098941195251 5.2979074555026884 8.6486586346713992 -0.5877852598018023 0 -0.80901698891910034 0.40450849445955017 0 -0.29389262990090115 1 I I -0.70710678118654746 0.70710678118654746 0.5 forward I I I I #
loop $-1 $-1 $197 $49 #
coedge $-1 $123 $123 $198 $199 reversed $78 $-1 #
face $-1 $200 $201 $30 $-1 $202 reversed single #
loop $-1 $-1 $203 $80 #
plane-surface $-1 0 -38.766096435608262 0 0 1 0 0 0 1 forward_v I I I I #
coedge $-1 $204 $205 $206 $207 forward $81 $-1 #
coedge $-1 $208 $83 $209 $210 forward $51 $-1 #
coedge $-1 $83 $208 $211 $212 forward $51 $-1 #
coedge $-1 $213 $214 $83 $131 reversed $215 $-1 #
edge $-1 $216 -38.766096435608262 $217 38.766096435608262 $130 $218 forward 7 unknown #
face $-1 $219 $220 $31 $-1 $221 reversed single #
loop $-1 $-1 $222 $84 #
plane-surface $-1 -75.910519730216379 0 0 1 0 0 0 0 -1 forward_v I I I I #
coedge $-1 $223 $224 $225 $226 reversed $85 $-1 #
coedge $-1 $227 $87 $228 $229 reversed $54 $-1 #
coedge $-1 $87 $227 $223 $230 forward $54 $-1 #
coedge $-1 $225 $231 $87 $139 forward $232 $-1 #
edge $-1 $233 -23.22408899357206 $234 -7.8599258905003371 $138 $235 forward 7 unknown #
face $-1 $236 $237 $32 $-1 $238 forward single #
loop $-1 $-1 $239 $88 #
plane-surface $-1 -55.954716454198049 30.176257801896526 0 -1 0 0 0 0 1 forward_v I I I I #
coedge $-1 $240 $241 $242 $243 reversed $89 $-1 #
coedge $-1 $244 $91 $245 $246 reversed $57 $-1 #
coedge $-1 $91 $244 $247 $248 reversed $57 $-1 #
coedge $-1 $241 $240 $91 $147 reversed $89 $-1 #
edge $-1 $249 -14.873725528381208 $250 14.873725528381208 $146 $251 forward 7 unknown #
face $-1 $252 $253 $33 $-1 $254 reversed single #
loop $-1 $-1 $255 $92 #
plane-surface $-1 -186.94540017801518 -0.90775708217586804 111.66201217829305 0 -1 0 0.73135370988377701 0 -0.68199835119979291 forward_v I I I I #
coedge $-1 $256 $257 $258 $259 reversed $93 $-1 #
coedge $-1 $153 $95 $260 $261 reversed $60 $-1 #
coedge $-1 $95 $152 $256 $262 reversed $60 $-1 #
coedge $-1 $258 $263 $95 $155 forward $264 $-1 #
edge $-1 $265 17.56218035879121 $266 23.859838722310784 $154 $267 forward 7 unknown #
loop $-1 $-1 $161 $96 #
plane-surface $-1 -75.910519730216379 -5.1238094282136331 8.1203135888392097 -0.73135370988377701 0 0.68199835119979291 0.68199835119979291 0 0.73135370988377701 forward_v I I I I #
loop $-1 $-1 $268 $62 #
coedge $-1 $159 $159 $160 $269 reversed $97 $-1 #
coedge $-1 $160 $160 $159 $269 forward $99 $-1 #
coedge $-1 $161 $161 $100 $162 forward $156 $-1 #
edge $-1 $270 0 $270 6.2831853071796004 $161 $271 forward 7 unknown #
face $-1 $272 $273 $35 $-1 $274 forward single #
loop $-1 $-1 $275 $101 #
plane-surface $-1 -186.94540017801518 21.586419168184797 111.66201217829305 0 -1 0 0.73135370988377701 0 -0.68199835119979291 forward_v I I I I #
coedge $-1 $276 $277 $278 $279 reversed $102 $-1 #
coedge $-1 $168 $104 $280 $281 reversed $66 $-1 #
coedge $-1 $104 $167 $276 $282 reversed $66 $-1 #
coedge $-1 $278 $283 $104 $170 forward $273 $-1 #
edge $-1 $284 17.56218035879121 $285 23.859838722310784 $169 $286 forward 7 unknown #
loop $-1 $-1 $176 $105 #
plane-surface $-1 -75.910519730216379 17.370366822147034 8.1203135888392097 -0.73135370988377701 0 0.68199835119979291 0.68199835119979291 0 0.73135370988377701 forward_v I I I I #
loop $-1 $-1 $287 $68 #
coedge $-1 $174 $174 $175 $288 reversed $106 $-1 #
coedge $-1 $175 $175 $174 $288 forward $108 $-1 #
coedge $-1 $176 $176 $109 $177 forward $171 $-1 #
edge $-1 $289 0 $289 6.2831853071796004 $176 $290 forward 7 unknown #
face $-1 $291 $292 $37 $-1 $293 reversed single #
loop $-1 $-1 $294 $110 #
plane-surface $-1 42.322888653999314 0.093796125806523634 218.68444008180103 0 1 0 0.5877852598018023 0 0.80901698891910034 forward_v I I I I #
coedge $-1 $295 $296 $297 $298 reversed $111 $-1 #
coedge $-1 $183 $113 $299 $300 reversed $72 $-1 #
coedge $-1 $113 $182 $295 $301 reversed $72 $-1 #
coedge $-1 $297 $302 $113 $185 forward $303 $-1 #
edge $-1 $304 -54.749075403216722 $305 -43.389444977153346 $184 $306 forward 7 unknown #
loop $-1 $-1 $191 $114 #
plane-surface $-1 -46.915280468630826 3.7366740565938414 95.85863988295381 0.5877852598018023 0 0.80901698891910034 0.80901698891910034 0 -0.5877852598018023 forward_v I I I I #
loop $-1 $-1 $307 $74 #
coedge $-1 $189 $189 $190 $308 reversed $115 $-1 #
coedge $-1 $190 $190 $189 $308 forward $117 $-1 #
coedge $-1 $191 $191 $118 $192 forward $186 $-1 #
edge $-1 $309 0 $309 6.2831853071796004 $191 $310 forward 7 unknown #
loop $-1 $-1 $198 $119 #
plane-surface $-1 -46.915280468630826 3.7366740565938414 95.85863988295381 0.5877852598018023 0 0.80901698891910034 0.80901698891910034 0 -0.5877852598018023 forward_v I I I I #
loop $-1 $-1 $311 $77 #
coedge $-1 $196 $196 $197 $312 reversed $120 $-1 #
coedge $-1 $197 $197 $196 $312 forward $122 $-1 #
coedge $-1 $198 $198 $123 $199 forward $193 $-1 #
edge $-1 $313 0 $313 6.2831853071796004 $198 $314 forward 7 unknown #
face $-1 $315 $316 $30 $-1 $317 reversed single #
loop $-1 $-1 $318 $124 #
plane-surface $-1 -75.910519730216379 0 0 1 0 0 0 0 -1 forward_v I I I I #
coedge $-1 $319 $211 $320 $321 forward $125 $-1 #
coedge $-1 $322 $127 $319 $323 forward $81 $-1 #
coedge $-1 $127 $322 $324 $325 forward $81 $-1 #
coedge $-1 $214 $213 $127 $207 reversed $215 $-1 #
edge $-1 $326 -38.766096435608262 $327 38.766096435608262 $206 $328 forward 7 unknown #
coedge $-1 $129 $128 $329 $330 forward $51 $-1 #
coedge $-1 $331 $332 $128 $210 reversed $316 $-1 #
edge $-1 $217 -75.910519730216379 $333 75.910519730216379 $209 $334 forward 7 unknown #
coedge $-1 $203 $335 $129 $212 reversed $125 $-1 #
edge $-1 $336 -75.910519730216379 $216 75.910519730216379 $211 $337 forward 7 unknown #
coedge $-1 $206 $130 $335 $338 forward $215 $-1 #
coedge $-1 $130 $206 $331 $339 reversed $215 $-1 #
loop $-1 $-1 $213 $315 #
vertex $-1 $131 $340 #
vertex $-1 $131 $341 #
straight-curve $-1 75.910519730216379 0 14.873725528381208 0 1 0 I I #
face $-1 $342 $343 $31 $-1 $344 forward single #
loop $-1 $-1 $228 $132 #
plane-surface $-1 0 -38.766096435608262 0 0 1 0 0 0 1 forward_v I I I I #
coedge $-1 $345 $346 $347 $348 forward $133 $-1 #
coedge $-1 $347 $135 $137 $230 reversed $85 $-1 #
coedge $-1 $135 $347 $349 $350 reversed $85 $-1 #
coedge $-1 $351 $138 $135 $226 forward $232 $-1 #
edge $-1 $234 3.785475947070486 $352 8.653991703230643 $225 $353 forward 7 unknown #
coedge $-1 $137 $136 $345 $354 reversed $54 $-1 #
coedge $-1 $355 $356 $136 $229 forward $220 $-1 #
edge $-1 $357 -75.910519730216379 $233 75.910519730216379 $228 $358 forward 7 unknown #
edge $-1 $359 -75.910519730216379 $234 75.910519730216379 $223 $360 forward 7 unknown #
coedge $-1 $138 $351 $355 $361 forward $232 $-1 #
loop $-1 $-1 $225 $342 #
vertex $-1 $229 $362 #
vertex $-1 $139 $363 #
straight-curve $-1 75.910519730216379 -15.5420074420362 10.00520977222105 0 1 0 I I #
face $-1 $364 $365 $32 $-1 $366 reversed single #
loop $-1 $-1 $367 $140 #
plane-surface $-1 0 0 14.873725528381208 0 0 1 1 0 0 forward_v I I I I #
coedge $-1 $368 $369 $244 $370 forward $141 $-1 #
coedge $-1 $146 $143 $371 $372 reversed $89 $-1 #
coedge $-1 $143 $146 $367 $373 reversed $89 $-1 #
coedge $-1 $374 $375 $143 $243 forward $376 $-1 #
edge $-1 $377 -14.873725528381208 $378 14.873725528381208 $242 $379 forward 7 unknown #
coedge $-1 $145 $144 $239 $370 reversed $57 $-1 #
coedge $-1 $371 $380 $144 $246 forward $365 $-1 #
edge $-1 $381 26.70675704869489 $250 31.78916176231143 $245 $382 forward 7 unknown #
coedge $-1 $383 $367 $145 $248 forward $237 $-1 #
edge $-1 $249 -31.78916176231143 $384 -26.70675704869489 $247 $385 forward 7 unknown #
vertex $-1 $248 $386 #
vertex $-1 $246 $387 #
straight-curve $-1 -61.03712116781459 21.586419168184793 0 0 0 -1 I I #
face $-1 $-1 $264 $33 $-1 $388 forward single #
loop $-1 $-1 $389 $148 #
plane-surface $-1 -75.910519730216379 0 0 1 0 0 0 0 -1 forward_v I I I I #
coedge $-1 $390 $391 $392 $393 reversed $149 $-1 #
coedge $-1 $394 $151 $153 $262 forward $93 $-1 #
coedge $-1 $151 $394 $390 $395 forward $93 $-1 #
coedge $-1 $392 $154 $151 $259 forward $264 $-1 #
edge $-1 $266 -6.7779570601445815 $396 1.6541476319309485 $258 $397 forward 7 unknown #
coedge $-1 $398 $399 $152 $261 forward $253 $-1 #
edge $-1 $400 -47.710692500307317 $265 -40.957280560765319 $260 $401 forward 7 unknown #
edge $-1 $266 -9.23412549669737 $400 0 $153 $402 forward 7 unknown #
coedge $-1 $154 $392 $398 $403 forward $264 $-1 #
loop $-1 $-1 $392 $252 #
vertex $-1 $261 $404 #
vertex $-1 $155 $405 #
straight-curve $-1 -93.472700089007589 -9.3398617742513981 14.873725528381208 1 0 0 I I #
coedge $-1 $268 $268 $-1 $406 reversed $158 $-1 #
edge $-1 $407 0 $407 6.2831853071796004 $159 $408 forward 7 unknown #
vertex $-1 $162 $409 #
ellipse-curve $-1 -72.761690548456599 -5.1238094282136331 11.497019558610205 -0.73135370988377701 0 0.68199835119979291 1.0229975267996894 0 1.0970305648256655 1 I I #
face $-1 $-1 $410 $35 $-1 $411 reversed single #
loop $-1 $-1 $169 $163 #
plane-surface $-1 0 0 14.873725528381208 0 0 1 1 0 0 forward_v I I I I #
coedge $-1 $412 $413 $414 $415 reversed $164 $-1 #
coedge $-1 $416 $166 $168 $282 forward $102 $-1 #
coedge $-1 $166 $416 $412 $417 forward $102 $-1 #
coedge $-1 $414 $169 $166 $279 forward $273 $-1 #
edge $-1 $285 4.4691310650357519 $418 12.90123575711128 $278 $419 forward 7 unknown #
coedge $-1 $420 $421 $167 $281 forward $410 $-1 #
edge $-1 $422 -47.710692500307317 $284 -40.957280560765319 $280 $423 forward 7 unknown #
edge $-1 $285 -9.23412549669737 $422 0 $168 $424 forward 7 unknown #
coedge $-1 $169 $414 $420 $425 forward $273 $-1 #
vertex $-1 $170 $426 #
vertex $-1 $170 $427 #
straight-curve $-1 -93.472700089007589 13.154314476109269 14.873725528381208 1 0 0 I I #
coedge $-1 $287 $287 $-1 $428 reversed $173 $-1 #
edge $-1 $429 0 $429 6.2831853071796004 $174 $430 forward 7 unknown #
vertex $-1 $177 $431 #
ellipse-curve $-1 -72.761690548456599 17.370366822147034 11.497019558610205 -0.73135370988377701 0 0.68199835119979291 1.0229975267996894 0 1.0970305648256655 1 I I #
face $-1 $-1 $303 $37 $-1 $432 forward single #
loop $-1 $-1 $433 $178 #
plane-surface $-1 75.910519730216379 0 0 -1 0 0 0 0 1 forward_v I I I I #
coedge $-1 $434 $435 $436 $437 reversed $179 $-1 #
coedge $-1 $438 $181 $183 $301 forward $111 $-1 #
coedge $-1 $181 $438 $434 $439 forward $111 $-1 #
coedge $-1 $436 $184 $181 $298 forward $303 $-1 #
edge $-1 $305 -5.5112149590842385 $440 1.7745409024903971 $297 $441 forward 7 unknown #
coedge $-1 $442 $443 $182 $300 forward $292 $-1 #
edge $-1 $444 -102.72174928057683 $304 -94.4684945125193 $299 $445 forward 7 unknown #
edge $-1 $305 137.77976395985198 $444 151.82103946043273 $183 $446 forward 7 unknown #
coedge $-1 $184 $436 $442 $447 forward $303 $-1 #
loop $-1 $-1 $436 $291 #
vertex $-1 $300 $448 #
vertex $-1 $185 $449 #
straight-curve $-1 21.161444326999657 7.3795519873811593 14.873725528381215 -1 0 0 I I #
coedge $-1 $307 $307 $-1 $450 reversed $188 $-1 #
edge $-1 $451 0 $451 6.2831853071796004 $189 $452 forward 7 unknown #
vertex $-1 $192 $453 #
ellipse-curve $-1 70.230704517184677 2.1754406576849874 10.747098144352448 0.5877852598018023 0 0.80901698891910034 0.80901698891910034 0 -0.5877852598018023 1 I I #
coedge $-1 $311 $311 $-1 $454 reversed $195 $-1 #
edge $-1 $455 0 $455 6.2831853071796004 $196 $456 forward 7 unknown #
vertex $-1 $199 $457 #
ellipse-curve $-1 70.230704517184677 5.2979074555026884 10.747098144352448 0.5877852598018023 0 0.80901698891910034 0.80901698891910034 0 -0.5877852598018023 1 I I #
face $-1 $-1 $215 $30 $-1 $458 reversed single #
loop $-1 $-1 $331 $200 #
plane-surface $-1 0 38.766096435608262 0 0 -1 0 0 0 -1 forward_v I I I I #
coedge $-1 $459 $329 $332 $460 forward $201 $-1 #
coedge $-1 $335 $203 $204 $323 reversed $125 $-1 #
coedge $-1 $329 $459 $203 $321 reversed $201 $-1 #
edge $-1 $336 -14.873725528381208 $461 14.873725528381208 $320 $462 forward 7 unknown #
coedge $-1 $205 $204 $459 $463 forward $81 $-1 #
edge $-1 $327 -75.910519730216379 $461 75.910519730216379 $319 $464 forward 7 unknown #
coedge $-1 $332 $331 $205 $325 reversed $316 $-1 #
edge $-1 $465 -75.910519730216379 $326 75.910519730216379 $324 $466 forward 7 unknown #
vertex $-1 $207 $467 #
vertex $-1 $338 $468 #
straight-curve $-1 75.910519730216379 0 -14.873725528381208 0 -1 0 I I #
coedge $-1 $318 $320 $208 $330 reversed $201 $-1 #
edge $-1 $333 -38.766096435608262 $336 38.766096435608262 $329 $469 forward 7 unknown #
coedge $-1 $324 $209 $214 $339 forward $316 $-1 #
coedge $-1 $209 $324 $318 $460 reversed $316 $-1 #
vertex $-1 $210 $470 #
straight-curve $-1 0 38.766096435608262 14.873725528381208 -1 0 0 I I #
coedge $-1 $211 $319 $213 $338 reversed $125 $-1 #
vertex $-1 $330 $471 #
straight-curve $-1 0 -38.766096435608262 14.873725528381208 1 0 0 I I #
edge $-1 $216 -14.873725528381208 $327 14.873725528381208 $213 $472 forward 7 unknown #
edge $-1 $217 -14.873725528381208 $326 14.873725528381208 $214 $473 forward 7 unknown #
point $-1 75.910519730216379 -38.766096435608262 14.873725528381208 #
point $-1 75.910519730216379 38.766096435608262 14.873725528381208 #
face $-1 $-1 $232 $31 $-1 $474 reversed single #
loop $-1 $-1 $349 $219 #
plane-surface $-1 0 0 14.873725528381208 0 0 1 1 0 0 forward_v I I I I #
coedge $-1 $475 $222 $227 $354 forward $133 $-1 #
coedge $-1 $222 $475 $476 $477 reversed $133 $-1 #
coedge $-1 $224 $223 $222 $348 reversed $85 $-1 #
edge $-1 $478 -8.653991703230643 $359 -3.785475947070486 $222 $479 forward 7 unknown #
coedge $-1 $476 $480 $224 $350 forward $343 $-1 #
edge $-1 $352 -75.910519730216379 $478 75.910519730216379 $349 $481 forward 7 unknown #
coedge $-1 $231 $225 $480 $482 reversed $232 $-1 #
vertex $-1 $226 $483 #
straight-curve $-1 75.910519730216379 -23.401933332536537 6.2197338251505645 0 0 1 I I #
edge $-1 $359 7.8599258905003371 $357 23.22408899357206 $345 $484 forward 7 unknown #
coedge $-1 $485 $228 $231 $361 reversed $220 $-1 #
coedge $-1 $228 $485 $475 $486 forward $220 $-1 #
vertex $-1 $229 $487 #
straight-curve $-1 0 -38.766096435608262 10.00520977222105 1 0 0 I I #
vertex $-1 $354 $488 #
straight-curve $-1 0 -23.401933332536537 10.00520977222105 1 0 0 I I #
edge $-1 $489 -14.873725528381208 $233 -10.00520977222105 $231 $490 forward 7 unknown #
point $-1 75.910519730216379 -38.766096435608262 10.00520977222105 #
point $-1 75.910519730216379 -23.401933332536537 10.00520977222105 #
face $-1 $-1 $376 $32 $-1 $491 reversed single #
loop $-1 $-1 $371 $236 #
plane-surface $-1 0 0 -14.873725528381208 0 0 1 1 0 0 forward_v I I I I #
coedge $-1 $247 $492 $241 $373 forward $237 $-1 #
coedge $-1 $493 $239 $380 $494 reversed $141 $-1 #
coedge $-1 $239 $493 $383 $495 reversed $141 $-1 #
edge $-1 $384 -14.873725528381208 $381 14.873725528381208 $239 $496 forward 7 unknown #
coedge $-1 $497 $245 $240 $372 forward $365 $-1 #
edge $-1 $250 6.4982902672365306 $377 23.677967534659999 $371 $498 forward 7 unknown #
edge $-1 $378 -23.677967534659999 $249 -6.4982902672365306 $367 $499 forward 7 unknown #
coedge $-1 $500 $242 $492 $501 reversed $376 $-1 #
coedge $-1 $242 $500 $497 $502 reversed $376 $-1 #
loop $-1 $-1 $242 $364 #
vertex $-1 $502 $503 #
vertex $-1 $243 $504 #
straight-curve $-1 -61.03712116781459 38.766096435608262 0 0 0 1 I I #
coedge $-1 $245 $497 $368 $494 forward $365 $-1 #
vertex $-1 $246 $505 #
straight-curve $-1 -29.24795940550316 21.586419168184793 -14.873725528381208 -1 0 0 I I #
coedge $-1 $492 $247 $369 $495 forward $237 $-1 #
vertex $-1 $248 $506 #
straight-curve $-1 -29.24795940550316 21.586419168184793 14.873725528381208 1 0 0 I I #
point $-1 -61.03712116781459 21.586419168184793 14.873725528381208 #
point $-1 -61.03712116781459 21.586419168184793 -14.873725528381208 #
plane-surface $-1 0 0 14.873725528381208 0 0 1 1 0 0 forward_v I I I I #
coedge $-1 $399 $398 $391 $507 forward $253 $-1 #
coedge $-1 $391 $255 $257 $395 reversed $149 $-1 #
coedge $-1 $255 $390 $389 $507 reversed $149 $-1 #
coedge $-1 $263 $258 $255 $393 forward $264 $-1 #
edge $-1 $396 -23.859838722310784 $508 -17.56218035879121 $392 $509 forward 7 unknown #
coedge $-1 $257 $256 $399 $510 reversed $93 $-1 #
edge $-1 $511 0 $396 9.23412549669737 $390 $512 forward 7 unknown #
vertex $-1 $259 $513 #
straight-curve $-1 -69.612861366696805 -2.5619047141068165 14.873725528381206 0 1 0 I I #
coedge $-1 $389 $260 $263 $403 reversed $253 $-1 #
coedge $-1 $260 $389 $394 $510 forward $253 $-1 #
vertex $-1 $261 $514 #
straight-curve $-1 -75.910519730216379 -9.3398617742513981 55.831006089146527 0 0 1 I I #
straight-curve $-1 -75.910519730216379 -9.3398617742513981 8.1203135888392097 -0.68199835119979291 0 -0.73135370988377701 I I #
edge $-1 $508 0.90775708217586804 $265 9.3398617742513981 $398 $515 forward 7 unknown #
point $-1 -75.910519730216379 -9.3398617742513981 14.873725528381208 #
point $-1 -69.612861366696805 -9.3398617742513981 14.873725528381208 #
edge $-1 $516 1 $516 0 $268 $-1 forward 7 unknown #
vertex $-1 $269 $517 #
ellipse-curve $-1 -69.381375353040838 -5.1238094282136331 8.3448247195691803 -0.73135370988377701 0 0.68199835119979291 1.0229975267996894 0 1.0970305648256655 1 I I #
point $-1 -71.7386930216569 -5.1238094282136331 12.594050123435874 #
loop $-1 $-1 $280 $272 #
plane-surface $-1 -75.910519730216379 0 0 1 0 0 0 0 -1 forward_v I I I I #
coedge $-1 $413 $275 $277 $417 reversed $164 $-1 #
coedge $-1 $275 $412 $518 $519 reversed $164 $-1 #
coedge $-1 $283 $278 $275 $415 forward $273 $-1 #
edge $-1 $418 -23.859838722310784 $520 -17.56218035879121 $414 $521 forward 7 unknown #
coedge $-1 $277 $276 $421 $522 reversed $102 $-1 #
edge $-1 $523 0 $418 9.23412549669737 $412 $524 forward 7 unknown #
vertex $-1 $279 $525 #
straight-curve $-1 -69.612861366696805 8.6851834110735169 14.873725528381206 0 1 0 I I #
coedge $-1 $518 $280 $283 $425 reversed $410 $-1 #
coedge $-1 $280 $518 $416 $522 forward $410 $-1 #
vertex $-1 $281 $526 #
straight-curve $-1 -75.910519730216379 13.154314476109269 55.831006089146527 0 0 1 I I #
straight-curve $-1 -75.910519730216379 13.154314476109269 8.1203135888392097 -0.68199835119979291 0 -0.73135370988377701 I I #
edge $-1 $520 -21.586419168184797 $284 -13.154314476109269 $420 $527 forward 7 unknown #
point $-1 -75.910519730216379 13.154314476109269 14.873725528381208 #
point $-1 -69.612861366696805 13.154314476109269 14.873725528381208 #
edge $-1 $528 1 $528 0 $287 $-1 forward 7 unknown #
vertex $-1 $288 $529 #
ellipse-curve $-1 -69.381375353040838 17.370366822147034 8.3448247195691803 -0.73135370988377701 0 0.68199835119979291 1.0229975267996894 0 1.0970305648256655 1 I I #
point $-1 -71.7386930216569 17.370366822147034 12.594050123435874 #
plane-surface $-1 0 0 14.873725528381208 0 0 1 1 0 0 forward_v I I I I #
coedge $-1 $443 $442 $435 $530 forward $292 $-1 #
coedge $-1 $435 $294 $296 $439 reversed $179 $-1 #
coedge $-1 $294 $434 $433 $530 reversed $179 $-1 #
coedge $-1 $302 $297 $294 $437 forward $303 $-1 #
edge $-1 $440 43.389444977153346 $531 54.749075403216722 $436 $532 forward 7 unknown #
coedge $-1 $296 $295 $443 $533 reversed $111 $-1 #
edge $-1 $534 -151.82103946043273 $440 -137.77976395985198 $434 $535 forward 7 unknown #
vertex $-1 $298 $536 #
straight-curve $-1 64.550889304153017 1.8683370282969207 14.873725528381215 0 -1 0 I I #
coedge $-1 $433 $299 $302 $447 reversed $292 $-1 #
coedge $-1 $299 $433 $438 $533 forward $292 $-1 #
vertex $-1 $300 $537 #
straight-curve $-1 75.910519730216379 7.3795519873811593 109.34222004090051 0 0 1 I I #
straight-curve $-1 -46.915280468630826 7.3795519873811593 95.85863988295381 0.80901698891910034 0 -0.5877852598018023 I I #
edge $-1 $531 0.093796125806523634 $304 7.3795519873811593 $442 $538 forward 7 unknown #
point $-1 75.910519730216379 7.3795519873811593 14.873725528381208 #
point $-1 64.550889304153003 7.3795519873811593 14.873725528381215 #
edge $-1 $539 1 $539 0 $307 $-1 forward 7 unknown #
vertex $-1 $308 $540 #
ellipse-curve $-1 68.999991571096146 2.1754406576849874 9.0531671291309497 0.5877852598018023 0 0.80901698891910034 0.80901698891910034 0 -0.5877852598018023 1 I I #
point $-1 71.03972150610376 2.1754406576849874 10.15931288455061 #
edge $-1 $541 1 $541 0 $311 $-1 forward 7 unknown #
vertex $-1 $312 $542 #
ellipse-curve $-1 68.999991571096146 5.2979074555026884 9.0531671291309497 0.5877852598018023 0 0.80901698891910034 0.80901698891910034 0 -0.5877852598018023 1 I I #
point $-1 71.03972150610376 5.2979074555026884 10.15931288455061 #
plane-surface $-1 75.910519730216379 0 0 -1 0 0 0 0 1 forward_v I I I I #
coedge $-1 $320 $318 $322 $463 reversed $201 $-1 #
edge $-1 $333 -14.873725528381208 $465 14.873725528381208 $332 $543 forward 7 unknown #
vertex $-1 $463 $544 #
straight-curve $-1 -75.910519730216379 -38.766096435608262 0 0 0 -1 I I #
edge $-1 $461 -38.766096435608262 $465 38.766096435608262 $459 $545 forward 7 unknown #
straight-curve $-1 0 -38.766096435608262 -14.873725528381208 -1 0 0 I I #
vertex $-1 $325 $546 #
straight-curve $-1 0 38.766096435608262 -14.873725528381208 1 0 0 I I #
point $-1 75.910519730216379 38.766096435608262 -14.873725528381208 #
point $-1 75.910519730216379 -38.766096435608262 -14.873725528381208 #
straight-curve $-1 -75.910519730216379 0 14.873725528381208 0 -1 0 I I #
point $-1 -75.910519730216379 38.766096435608262 14.873725528381208 #
point $-1 -75.910519730216379 -38.766096435608262 14.873725528381208 #
straight-curve $-1 75.910519730216379 -38.766096435608262 0 0 0 -1 I I #
straight-curve $-1 75.910519730216379 38.766096435608262 0 0 0 -1 I I #
plane-surface $-1 75.910519730216379 0 0 -1 0 0 0 0 1 forward_v I I I I #
coedge $-1 $346 $345 $356 $486 reversed $133 $-1 #
coedge $-1 $547 $349 $346 $477 forward $343 $-1 #
edge $-1 $478 23.401933332536537 $548 38.766096435608262 $346 $549 forward 7 unknown #
vertex $-1 $477 $550 #
straight-curve $-1 -75.910519730216379 -23.401933332536537 6.2197338251505645 0 0 -1 I I #
coedge $-1 $349 $547 $351 $482 forward $343 $-1 #
straight-curve $-1 0 -23.401933332536537 14.873725528381208 -1 0 0 I I #
edge $-1 $489 -38.766096435608262 $352 -23.401933332536537 $351 $551 forward 7 unknown #
point $-1 75.910519730216379 -23.401933332536537 14.873725528381208 #
straight-curve $-1 -75.910519730216379 -15.5420074420362 10.00520977222105 0 -1 0 I I #
coedge $-1 $356 $355 $547 $552 reversed $220 $-1 #
edge $-1 $548 -14.873725528381208 $357 -10.00520977222105 $475 $553 forward 7 unknown #
point $-1 -75.910519730216379 -38.766096435608262 10.00520977222105 #
point $-1 -75.910519730216379 -23.401933332536537 10.00520977222105 #
vertex $-1 $482 $554 #
straight-curve $-1 75.910519730216379 -38.766096435608262 0 0 0 -1 I I #
plane-surface $-1 0 38.766096435608262 0 0 -1 0 0 0 -1 forward_v I I I I #
coedge $-1 $367 $383 $374 $501 forward $237 $-1 #
coedge $-1 $369 $368 $500 $555 reversed $141 $-1 #
edge $-1 $556 -23.677967534659999 $381 -6.4982902672365306 $380 $557 forward 7 unknown #
edge $-1 $384 6.4982902672365306 $558 23.677967534659999 $383 $559 forward 7 unknown #
straight-curve $-1 -55.954716454198049 21.586419168184793 0 0 0 -1 I I #
coedge $-1 $380 $371 $375 $502 forward $365 $-1 #
straight-curve $-1 -61.03712116781459 15.088128900948263 -14.873725528381208 0 1 0 I I #
straight-curve $-1 -61.03712116781459 15.088128900948263 14.873725528381208 0 -1 0 I I #
coedge $-1 $375 $374 $493 $555 forward $376 $-1 #
edge $-1 $558 55.954716454198049 $378 61.03712116781459 $374 $560 forward 7 unknown #
edge $-1 $377 -61.03712116781459 $556 -55.954716454198049 $375 $561 forward 7 unknown #
point $-1 -61.03712116781459 38.766096435608262 -14.873725528381208 #
point $-1 -61.03712116781459 38.766096435608262 14.873725528381208 #
point $-1 -55.954716454198049 21.586419168184793 -14.873725528381208 #
point $-1 -55.954716454198049 21.586419168184793 14.873725528381208 #
edge $-1 $508 40.957280560765319 $511 47.710692500307317 $389 $562 forward 7 unknown #
vertex $-1 $403 $563 #
straight-curve $-1 -93.472700089007589 -0.90775708217586804 14.873725528381208 -1 0 0 I I #
edge $-1 $511 -1.6541476319309485 $400 6.7779570601445815 $399 $564 forward 7 unknown #
vertex $-1 $510 $565 #
straight-curve $-1 -75.910519730216379 -0.90775708217586804 8.1203135888392097 0.68199835119979291 0 0.73135370988377701 I I #
point $-1 -69.612861366696805 -0.90775708217586804 14.873725528381208 #
point $-1 -75.910519730216379 -9.3398617742513981 8.1203135888392097 #
straight-curve $-1 -75.910519730216379 0 14.873725528381208 0 -1 0 I I #
vertex $-1 $406 $566 #
point $-1 -68.358377826241139 -5.1238094282136331 9.4418552843948458 #
coedge $-1 $421 $420 $413 $519 forward $410 $-1 #
edge $-1 $520 40.957280560765319 $523 47.710692500307317 $518 $567 forward 7 unknown #
vertex $-1 $425 $568 #
straight-curve $-1 -93.472700089007589 21.586419168184797 14.873725528381208 -1 0 0 I I #
edge $-1 $523 -12.90123575711128 $422 -4.4691310650357519 $421 $569 forward 7 unknown #
vertex $-1 $522 $570 #
straight-curve $-1 -75.910519730216379 21.586419168184797 8.1203135888392097 0.68199835119979291 0 0.73135370988377701 I I #
point $-1 -69.612861366696805 21.586419168184797 14.873725528381208 #
point $-1 -75.910519730216379 13.154314476109269 8.1203135888392097 #
straight-curve $-1 -75.910519730216379 0 14.873725528381208 0 -1 0 I I #
vertex $-1 $428 $571 #
point $-1 -68.358377826241139 17.370366822147034 9.4418552843948458 #
edge $-1 $531 94.4684945125193 $534 102.72174928057683 $433 $572 forward 7 unknown #
vertex $-1 $447 $573 #
straight-curve $-1 21.161444326999657 0.093796125806523634 14.873725528381215 1 0 0 I I #
edge $-1 $534 -1.7745409024903971 $444 5.5112149590842385 $443 $574 forward 7 unknown #
vertex $-1 $533 $575 #
straight-curve $-1 -46.915280468630826 0.093796125806523634 95.85863988295381 -0.80901698891910034 0 0.5877852598018023 I I #
point $-1 64.550889304153003 0.093796125806523634 14.873725528381215 #
point $-1 75.910519730216379 7.3795519873811593 6.6204707603236841 #
straight-curve $-1 75.910519730216379 0 14.873725528381208 0 1 0 I I #
vertex $-1 $450 $576 #
point $-1 69.809008560015258 2.1754406576849874 8.4653818693291463 #
vertex $-1 $454 $577 #
point $-1 69.809008560015258 5.2979074555026884 8.4653818693291463 #
straight-curve $-1 -75.910519730216379 38.766096435608262 0 0 0 -1 I I #
point $-1 -75.910519730216379 -38.766096435608262 -14.873725528381208 #
straight-curve $-1 -75.910519730216379 0 -14.873725528381208 0 1 0 I I #
point $-1 -75.910519730216379 38.766096435608262 -14.873725528381208 #
coedge $-1 $480 $476 $485 $552 forward $343 $-1 #
vertex $-1 $477 $578 #
straight-curve $-1 -75.910519730216379 0 14.873725528381208 0 -1 0 I I #
point $-1 -75.910519730216379 -23.401933332536537 14.873725528381208 #
straight-curve $-1 75.910519730216379 0 14.873725528381208 0 1 0 I I #
edge $-1 $548 -75.910519730216379 $489 75.910519730216379 $485 $579 forward 7 unknown #
straight-curve $-1 -75.910519730216379 -38.766096435608262 0 0 0 -1 I I #
point $-1 75.910519730216379 -38.766096435608262 14.873725528381208 #
edge $-1 $558 -14.873725528381208 $556 14.873725528381208 $500 $580 forward 7 unknown #
vertex $-1 $555 $581 #
straight-curve $-1 -55.954716454198049 15.088128900948263 -14.873725528381208 0 -1 0 I I #
vertex $-1 $501 $582 #
straight-curve $-1 -55.954716454198049 15.088128900948263 14.873725528381208 0 1 0 I I #
straight-curve $-1 0 38.766096435608262 14.873725528381208 -1 0 0 I I #
straight-curve $-1 0 38.766096435608262 -14.873725528381208 1 0 0 I I #
straight-curve $-1 -75.910519730216379 -0.90775708217586804 55.831006089146527 0 0 -1 I I #
point $-1 -75.910519730216379 -0.90775708217586804 14.873725528381208 #
straight-curve $-1 -75.910519730216379 -2.5619047141068165 8.1203135888392168 0 -1 0 I I #
point $-1 -75.910519730216379 -0.90775708217586804 8.1203135888392097 #
point $-1 -68.284344788215165 -5.1238094282136331 7.3218271927694918 #
straight-curve $-1 -75.910519730216379 21.586419168184797 55.831006089146527 0 0 -1 I I #
point $-1 -75.910519730216379 21.586419168184797 14.873725528381208 #
straight-curve $-1 -75.910519730216379 8.6851834110735169 8.1203135888392168 0 -1 0 I I #
point $-1 -75.910519730216379 21.586419168184797 8.1203135888392097 #
point $-1 -68.284344788215165 17.370366822147034 7.3218271927694918 #
straight-curve $-1 75.910519730216379 0.093796125806523634 109.34222004090051 0 0 -1 I I #
point $-1 75.910519730216379 0.093796125806523634 14.873725528381208 #
straight-curve $-1 75.910519730216379 1.8683370282969207 6.6204707603236841 0 1 0 I I #
point $-1 75.910519730216379 0.093796125806523634 6.6204707603236841 #
point $-1 68.412206311294355 2.1754406576849874 8.2441501402118487 #
point $-1 68.412206311294355 5.2979074555026884 8.2441501402118487 #
point $-1 -75.910519730216379 -38.766096435608262 14.873725528381208 #
straight-curve $-1 0 -38.766096435608262 14.873725528381208 1 0 0 I I #
straight-curve $-1 -55.954716454198049 38.766096435608262 0 0 0 -1 I I #
point $-1 -55.954716454198049 38.766096435608262 -14.873725528381208 #
point $-1 -55.954716454198049 38.766096435608262 14.873725528381208 #
End-of-ACIS-data 