500 0 9 0           
7 Unknown 11 ACIS 5.0 NT 24 Fri Mar 26 00:18:42 1999 
-1 9.9999999999999995e-007 1e-010 
body $-1 $9 $-1 $10 #
body $-1 $11 $-1 $12 #
body $-1 $13 $-1 $14 #
body $-1 $15 $-1 $16 #
body $-1 $17 $-1 $18 #
body $-1 $19 $-1 $20 #
body $-1 $21 $-1 $22 #
body $-1 $23 $-1 $24 #
body $-1 $25 $-1 $26 #
lump $-1 $-1 $27 $0 #
transform $-1 1 0 0 0 1 0 0 0 1 55.31174657429731 30.186233348029166 11.675504793936497 1 rotate no_reflect no_shear #
lump $-1 $-1 $28 $1 #
transform $-1 1 0 0 0 1 0 0 0 1 55.31174657429731 30.186233348029166 11.675504793936497 1 rotate no_reflect no_shear #
lump $-1 $-1 $29 $2 #
transform $-1 1 0 0 0 1 0 0 0 1 55.31174657429731 30.186233348029166 11.675504793936497 1 rotate no_reflect no_shear #
lump $-1 $-1 $30 $3 #
transform $-1 1 0 0 0 1 0 0 0 1 55.31174657429731 30.186233348029166 11.675504793936497 1 rotate no_reflect no_shear #
lump $-1 $-1 $31 $4 #
transform $-1 1 0 0 0 1 0 0 0 1 55.31174657429731 30.186233348029166 11.675504793936497 1 rotate no_reflect no_shear #
lump $-1 $-1 $32 $5 #
transform $-1 1 0 0 0 1 0 0 0 1 55.31174657429731 30.186233348029166 11.675504793936497 1 rotate no_reflect no_shear #
lump $-1 $-1 $33 $6 #
transform $-1 1 0 0 0 1 0 0 0 1 55.31174657429731 30.186233348029166 11.675504793936497 1 rotate no_reflect no_shear #
lump $-1 $-1 $34 $7 #
transform $-1 1 0 0 0 1 0 0 0 1 55.31174657429731 30.186233348029166 11.675504793936497 1 rotate no_reflect no_shear #
lump $-1 $-1 $35 $8 #
transform $-1 1 0 0 0 1 0 0 0 1 55.31174657429731 30.186233348029166 11.675504793936497 1 rotate no_reflect no_shear #
shell $-1 $-1 $-1 $36 $-1 $9 #
shell $-1 $-1 $-1 $37 $-1 $11 #
shell $-1 $-1 $-1 $38 $-1 $13 #
shell $-1 $-1 $-1 $39 $-1 $15 #
shell $-1 $-1 $-1 $40 $-1 $17 #
shell $-1 $-1 $-1 $41 $-1 $19 #
shell $-1 $-1 $-1 $42 $-1 $21 #
shell $-1 $-1 $-1 $43 $-1 $23 #
shell $-1 $-1 $-1 $44 $-1 $25 #
face $-1 $45 $46 $27 $-1 $47 forward single #
face $-1 $48 $49 $28 $-1 $50 reversed single #
face $-1 $51 $52 $29 $-1 $53 reversed single #
face $-1 $54 $55 $30 $-1 $56 reversed single #
face $-1 $57 $58 $31 $-1 $59 forward single #
face $-1 $60 $61 $32 $-1 $62 forward single #
face $-1 $63 $64 $33 $-1 $65 reversed single #
face $-1 $66 $67 $34 $-1 $68 forward single #
face $-1 $69 $70 $35 $-1 $71 forward single #
face $-1 $72 $73 $27 $-1 $74 reversed single #
loop $-1 $-1 $75 $36 #
plane-surface $-1 0 0 11.675504793936497 0 0 1 1 0 0 forward_v I I I I #
face $-1 $76 $77 $28 $-1 $78 reversed single #
loop $-1 $-1 $79 $37 #
plane-surface $-1 -50.544134167493716 -23.581575559417207 0 0 -1 0 0 0 -1 forward_v I I I I #
face $-1 $80 $81 $29 $-1 $82 reversed single #
loop $-1 $-1 $83 $38 #
plane-surface $-1 45.776521760690123 -26.883904453723186 0 1 0 0 0 0 -1 forward_v I I I I #
face $-1 $84 $85 $30 $-1 $86 reversed single #
loop $-1 $-1 $87 $39 #
plane-surface $-1 33.452191804683899 -104.20779928633148 86.630296217967356 1 0 0 0 0.66913061440640931 -0.74314481823134659 forward_v I I I I #
face $-1 $88 $89 $31 $-1 $90 forward single #
loop $-1 $91 $92 $40 #
cone-surface $-1 36.973428934971388 -25.625094550766367 7.456663403194363 0 0.66913061440640931 -0.74314481823134659 1.5 0 0 1 I I 0 1 1.5 forward I I I I #
face $-1 $93 $94 $32 $-1 $95 forward single #
loop $-1 $96 $97 $41 #
cone-surface $-1 42.255284630402635 -25.625094550766367 7.456663403194363 0 0.66913061440640931 -0.74314481823134659 1.5 0 0 1 I I 0 1 1.5 forward I I I I #
face $-1 $98 $99 $33 $-1 $100 reversed single #
loop $-1 $-1 $101 $42 #
plane-surface $-1 33.452191804683899 59.342313497311196 127.02736195153135 1 0 0 0 -0.66913061440640931 -0.74314481823134659 forward_v I I I I #
face $-1 $102 $103 $34 $-1 $104 forward single #
loop $-1 $105 $106 $43 #
cone-surface $-1 36.973428934971388 25.625094550766363 7.4566634031943702 0 -0.66913061440640931 -0.74314481823134659 1.5 0 0 1 I I 0 1 1.5 forward I I I I #
face $-1 $107 $108 $35 $-1 $109 forward single #
loop $-1 $110 $111 $44 #
cone-surface $-1 42.255284630402635 25.625094550766363 7.4566634031943702 0 -0.66913061440640931 -0.74314481823134659 1.5 0 0 1 I I 0 1 1.5 forward I I I I #
face $-1 $112 $113 $27 $-1 $114 reversed single #
loop $-1 $-1 $115 $45 #
plane-surface $-1 0 0 -11.675504793936497 0 0 1 1 0 0 forward_v I I I I #
coedge $-1 $116 $117 $118 $119 forward $46 $-1 #
face $-1 $120 $121 $28 $-1 $122 forward single #
loop $-1 $-1 $123 $48 #
plane-surface $-1 -45.776521760690123 -26.883904453723186 0 -1 0 0 0 0 1 forward_v I I I I #
coedge $-1 $124 $125 $126 $127 forward $49 $-1 #
face $-1 $128 $129 $29 $-1 $130 forward single #
loop $-1 $-1 $131 $51 #
plane-surface $-1 50.544134167493716 -23.581575559417207 0 0 -1 0 0 0 -1 forward_v I I I I #
coedge $-1 $132 $133 $134 $135 forward $52 $-1 #
face $-1 $136 $137 $30 $-1 $138 forward single #
loop $-1 $-1 $139 $54 #
plane-surface $-1 39.614356782687018 -30.186233348029148 4.421020509938387 0 -0.66913061440640931 0.74314481823134659 1 0 0 forward_v I I I I #
coedge $-1 $140 $141 $142 $143 reversed $55 $-1 #
face $-1 $-1 $144 $31 $-1 $145 forward single #
loop $-1 $146 $147 $57 #
cone-surface $-1 36.973428934971388 -24.590568222189376 6.3077055407777678 0 0.66913061440640931 -0.74314481823134659 0.75 0 0 1 I I -0.70710678118654757 0.70710678118654757 0.75 forward I I I I #
loop $-1 $-1 $148 $40 #
coedge $-1 $92 $92 $149 $150 reversed $58 $-1 #
face $-1 $-1 $151 $32 $-1 $152 forward single #
loop $-1 $153 $154 $60 #
cone-surface $-1 42.255284630402635 -24.590568222189376 6.3077055407777678 0 0.66913061440640931 -0.74314481823134659 0.75 0 0 1 I I -0.70710678118654757 0.70710678118654757 0.75 forward I I I I #
loop $-1 $-1 $155 $41 #
coedge $-1 $97 $97 $156 $157 reversed $61 $-1 #
face $-1 $158 $159 $33 $-1 $160 reversed single #
loop $-1 $-1 $161 $63 #
plane-surface $-1 39.614356782687018 -14.679252440991135 44.818086243502378 0 0.66913061440640931 0.74314481823134659 1 0 0 forward_v I I I I #
coedge $-1 $162 $163 $164 $165 reversed $64 $-1 #
face $-1 $-1 $166 $34 $-1 $167 forward single #
loop $-1 $168 $169 $66 #
cone-surface $-1 36.973428934971388 24.590568222189372 6.3077055407777749 0 -0.66913061440640931 -0.74314481823134659 0.75 0 0 1 I I -0.70710678118654757 0.70710678118654757 0.75 forward I I I I #
loop $-1 $-1 $170 $43 #
coedge $-1 $106 $106 $171 $172 reversed $67 $-1 #
face $-1 $-1 $173 $35 $-1 $174 forward single #
loop $-1 $175 $176 $69 #
cone-surface $-1 42.255284630402635 24.590568222189372 6.3077055407777749 0 -0.66913061440640931 -0.74314481823134659 0.75 0 0 1 I I -0.70710678118654757 0.70710678118654757 0.75 forward I I I I #
loop $-1 $-1 $177 $44 #
coedge $-1 $111 $111 $178 $179 reversed $70 $-1 #
face $-1 $180 $181 $27 $-1 $182 reversed single #
loop $-1 $-1 $183 $72 #
plane-surface $-1 0 -30.186233348029166 0 0 1 0 0 0 1 forward_v I I I I #
coedge $-1 $184 $185 $186 $187 forward $73 $-1 #
coedge $-1 $188 $75 $189 $190 forward $46 $-1 #
coedge $-1 $75 $188 $191 $192 forward $46 $-1 #
coedge $-1 $193 $194 $75 $119 reversed $195 $-1 #
edge $-1 $196 -30.186233348029166 $197 30.186233348029166 $118 $198 forward 7 unknown #
face $-1 $199 $200 $28 $-1 $201 reversed single #
loop $-1 $-1 $202 $76 #
plane-surface $-1 0 0 11.675504793936497 0 0 1 1 0 0 forward_v I I I I #
coedge $-1 $203 $204 $205 $206 reversed $77 $-1 #
coedge $-1 $207 $79 $208 $209 reversed $49 $-1 #
coedge $-1 $79 $207 $210 $211 reversed $49 $-1 #
coedge $-1 $204 $203 $79 $127 reversed $77 $-1 #
edge $-1 $212 -11.675504793936497 $213 11.675504793936497 $126 $214 forward 7 unknown #
face $-1 $215 $216 $29 $-1 $217 reversed single #
loop $-1 $-1 $218 $80 #
plane-surface $-1 0 0 11.675504793936497 0 0 1 1 0 0 forward_v I I I I #
coedge $-1 $219 $220 $221 $222 reversed $81 $-1 #
coedge $-1 $223 $83 $224 $225 reversed $52 $-1 #
coedge $-1 $83 $223 $226 $227 reversed $52 $-1 #
coedge $-1 $220 $219 $83 $135 reversed $81 $-1 #
edge $-1 $228 -11.675504793936497 $229 11.675504793936497 $134 $230 forward 7 unknown #
face $-1 $231 $232 $30 $-1 $233 reversed single #
loop $-1 $-1 $234 $84 #
plane-surface $-1 0 0 11.675504793936497 0 0 1 1 0 0 forward_v I I I I #
coedge $-1 $235 $236 $237 $238 reversed $85 $-1 #
coedge $-1 $141 $87 $239 $240 reversed $55 $-1 #
coedge $-1 $87 $140 $235 $241 reversed $55 $-1 #
coedge $-1 $237 $242 $87 $143 forward $232 $-1 #
edge $-1 $243 31.639643315047181 $244 38.894127599045305 $142 $245 forward 7 unknown #
loop $-1 $-1 $149 $88 #
plane-surface $-1 39.614356782687018 -30.186233348029148 4.421020509938387 0 -0.66913061440640931 0.74314481823134659 1 0 0 forward_v I I I I #
loop $-1 $-1 $246 $57 #
coedge $-1 $147 $147 $148 $247 reversed $89 $-1 #
coedge $-1 $148 $148 $147 $247 forward $91 $-1 #
coedge $-1 $149 $149 $92 $150 forward $144 $-1 #
edge $-1 $248 -8.7650424784794433e-016 $248 6.2831853071795996 $149 $249 forward 7 unknown #
loop $-1 $-1 $156 $93 #
plane-surface $-1 39.614356782687018 -30.186233348029148 4.421020509938387 0 -0.66913061440640931 0.74314481823134659 1 0 0 forward_v I I I I #
loop $-1 $-1 $250 $60 #
coedge $-1 $154 $154 $155 $251 reversed $94 $-1 #
coedge $-1 $155 $155 $154 $251 forward $96 $-1 #
coedge $-1 $156 $156 $97 $157 forward $151 $-1 #
edge $-1 $252 -8.7650424784794433e-016 $252 6.2831853071795996 $156 $253 forward 7 unknown #
face $-1 $254 $255 $33 $-1 $256 reversed single #
loop $-1 $-1 $257 $98 #
plane-surface $-1 45.776521760690137 59.342313497311196 127.02736195153135 -1 0 0 0 0.66913061440640931 0.74314481823134659 forward_v I I I I #
coedge $-1 $258 $259 $260 $261 reversed $99 $-1 #
coedge $-1 $163 $101 $262 $263 reversed $64 $-1 #
coedge $-1 $101 $162 $258 $264 reversed $64 $-1 #
coedge $-1 $260 $265 $101 $165 forward $266 $-1 #
edge $-1 $267 -0.5150765993735682 $268 7.5418442596076858 $164 $269 forward 7 unknown #
loop $-1 $-1 $171 $102 #
plane-surface $-1 39.614356782687018 -14.679252440991135 44.818086243502378 0 0.66913061440640931 0.74314481823134659 1 0 0 forward_v I I I I #
loop $-1 $-1 $270 $66 #
coedge $-1 $169 $169 $170 $271 reversed $103 $-1 #
coedge $-1 $170 $170 $169 $271 forward $105 $-1 #
coedge $-1 $171 $171 $106 $172 forward $166 $-1 #
edge $-1 $272 7.0120339827835448e-016 $272 6.2831853071796013 $171 $273 forward 7 unknown #
loop $-1 $-1 $178 $107 #
plane-surface $-1 39.614356782687018 -14.679252440991135 44.818086243502378 0 0.66913061440640931 0.74314481823134659 1 0 0 forward_v I I I I #
loop $-1 $-1 $274 $69 #
coedge $-1 $176 $176 $177 $275 reversed $108 $-1 #
coedge $-1 $177 $177 $176 $275 forward $110 $-1 #
coedge $-1 $178 $178 $111 $179 forward $173 $-1 #
edge $-1 $276 7.0120339827835448e-016 $276 6.2831853071796013 $178 $277 forward 7 unknown #
face $-1 $278 $279 $27 $-1 $280 reversed single #
loop $-1 $-1 $281 $112 #
plane-surface $-1 -55.31174657429731 0 0 1 0 0 0 0 -1 forward_v I I I I #
coedge $-1 $282 $191 $283 $284 forward $113 $-1 #
coedge $-1 $285 $115 $282 $286 forward $73 $-1 #
coedge $-1 $115 $285 $287 $288 forward $73 $-1 #
coedge $-1 $194 $193 $115 $187 reversed $195 $-1 #
edge $-1 $289 -30.186233348029166 $290 30.186233348029166 $186 $291 forward 7 unknown #
coedge $-1 $117 $116 $292 $293 forward $46 $-1 #
coedge $-1 $294 $295 $116 $190 reversed $279 $-1 #
edge $-1 $197 -55.31174657429731 $296 55.31174657429731 $189 $297 forward 7 unknown #
coedge $-1 $183 $298 $117 $192 reversed $113 $-1 #
edge $-1 $299 -55.31174657429731 $196 55.31174657429731 $191 $300 forward 7 unknown #
coedge $-1 $186 $118 $298 $301 forward $195 $-1 #
coedge $-1 $118 $186 $294 $302 reversed $195 $-1 #
loop $-1 $-1 $193 $278 #
vertex $-1 $119 $303 #
vertex $-1 $119 $304 #
straight-curve $-1 55.31174657429731 0 11.675504793936497 0 1 0 I I #
face $-1 $305 $306 $28 $-1 $307 reversed single #
loop $-1 $-1 $308 $120 #
plane-surface $-1 -55.31174657429731 0 0 1 0 0 0 0 -1 forward_v I I I I #
coedge $-1 $210 $309 $204 $310 forward $121 $-1 #
coedge $-1 $126 $123 $311 $312 reversed $77 $-1 #
coedge $-1 $123 $126 $202 $310 reversed $77 $-1 #
coedge $-1 $313 $314 $123 $206 forward $315 $-1 #
edge $-1 $316 -11.675504793936497 $317 11.675504793936497 $205 $318 forward 7 unknown #
coedge $-1 $125 $124 $308 $319 reversed $49 $-1 #
coedge $-1 $311 $320 $124 $209 forward $306 $-1 #
edge $-1 $321 -30.039679490550451 $213 -20.504454676943265 $208 $322 forward 7 unknown #
coedge $-1 $323 $202 $125 $211 forward $121 $-1 #
edge $-1 $212 20.504454676943265 $324 30.039679490550451 $210 $325 forward 7 unknown #
vertex $-1 $211 $326 #
vertex $-1 $209 $327 #
straight-curve $-1 -45.776521760690123 -23.581575559417207 0 0 0 -1 I I #
face $-1 $328 $329 $29 $-1 $330 reversed single #
loop $-1 $-1 $331 $128 #
plane-surface $-1 0 -30.186233348029166 0 0 1 0 0 0 1 forward_v I I I I #
coedge $-1 $226 $332 $220 $333 forward $129 $-1 #
coedge $-1 $134 $131 $334 $335 reversed $81 $-1 #
coedge $-1 $131 $134 $218 $333 reversed $81 $-1 #
coedge $-1 $336 $337 $131 $222 forward $338 $-1 #
edge $-1 $339 -11.675504793936497 $340 11.675504793936497 $221 $341 forward 7 unknown #
coedge $-1 $133 $132 $331 $342 reversed $52 $-1 #
coedge $-1 $334 $343 $132 $225 forward $329 $-1 #
edge $-1 $344 -16.744281121167575 $229 -10.139623332555614 $224 $345 forward 7 unknown #
coedge $-1 $346 $218 $133 $227 forward $129 $-1 #
edge $-1 $228 10.139623332555614 $347 16.744281121167575 $226 $348 forward 7 unknown #
vertex $-1 $227 $349 #
vertex $-1 $225 $350 #
straight-curve $-1 45.776521760690123 -23.581575559417207 0 0 0 -1 I I #
face $-1 $-1 $351 $30 $-1 $352 forward single #
loop $-1 $-1 $142 $136 #
plane-surface $-1 0 -30.186233348029166 0 0 1 0 0 0 1 forward_v I I I I #
coedge $-1 $353 $354 $355 $356 forward $137 $-1 #
coedge $-1 $357 $139 $141 $241 forward $85 $-1 #
coedge $-1 $139 $357 $358 $359 reversed $85 $-1 #
coedge $-1 $360 $142 $139 $238 forward $232 $-1 #
edge $-1 $244 13.64501341334039 $361 25.969343369346614 $237 $362 forward 7 unknown #
coedge $-1 $354 $353 $140 $240 forward $137 $-1 #
edge $-1 $363 -29.974587154117835 $243 -21.917666295136573 $239 $364 forward 7 unknown #
edge $-1 $244 -2.3898436495477339e-014 $363 10.841656513405258 $141 $365 forward 7 unknown #
coedge $-1 $142 $360 $354 $366 reversed $232 $-1 #
vertex $-1 $366 $367 #
vertex $-1 $143 $368 #
straight-curve $-1 33.452191804683899 -30.186233348029162 43.315148108983678 0 0 -1 I I #
coedge $-1 $246 $246 $-1 $369 reversed $146 $-1 #
edge $-1 $370 0 $370 6.2831853071796004 $147 $371 forward 7 unknown #
vertex $-1 $150 $372 #
ellipse-curve $-1 36.973428934971388 -26.157772918538537 8.0482626519374314 0 -0.66913061440640931 0.74314481823134659 1.5 0 0 1 I I #
coedge $-1 $250 $250 $-1 $373 reversed $153 $-1 #
edge $-1 $374 0 $374 6.2831853071796004 $154 $375 forward 7 unknown #
vertex $-1 $157 $376 #
ellipse-curve $-1 42.255284630402635 -26.157772918538537 8.0482626519374314 0 -0.66913061440640931 0.74314481823134659 1.5 0 0 1 I I #
face $-1 $-1 $266 $33 $-1 $377 forward single #
loop $-1 $-1 $378 $158 #
plane-surface $-1 0 30.186233348029166 0 0 -1 0 0 0 -1 forward_v I I I I #
coedge $-1 $379 $380 $381 $382 reversed $159 $-1 #
coedge $-1 $383 $161 $163 $264 forward $99 $-1 #
coedge $-1 $161 $383 $379 $384 forward $99 $-1 #
coedge $-1 $381 $164 $161 $261 forward $266 $-1 #
edge $-1 $268 13.64501341334039 $385 25.969343369346628 $260 $386 forward 7 unknown #
coedge $-1 $387 $388 $162 $263 forward $255 $-1 #
edge $-1 $389 -59.092660465827294 $267 -51.838176181829176 $262 $390 forward 7 unknown #
edge $-1 $268 49.53081018265307 $389 60.372466696058339 $163 $391 forward 7 unknown #
coedge $-1 $164 $381 $387 $392 forward $266 $-1 #
loop $-1 $-1 $381 $254 #
vertex $-1 $263 $393 #
vertex $-1 $165 $394 #
straight-curve $-1 33.452191804683899 29.671156748655598 11.675504793936497 0 -1 0 I I #
coedge $-1 $270 $270 $-1 $395 reversed $168 $-1 #
edge $-1 $396 0 $396 6.2831853071796004 $169 $397 forward 7 unknown #
vertex $-1 $172 $398 #
ellipse-curve $-1 36.973428934971388 26.157772918538534 8.0482626519374421 0 0.66913061440640931 0.74314481823134659 1.5 0 0 1 I I #
coedge $-1 $274 $274 $-1 $399 reversed $175 $-1 #
edge $-1 $400 0 $400 6.2831853071796004 $176 $401 forward 7 unknown #
vertex $-1 $179 $402 #
ellipse-curve $-1 42.255284630402635 26.157772918538534 8.0482626519374421 0 0.66913061440640931 0.74314481823134659 1.5 0 0 1 I I #
face $-1 $-1 $195 $27 $-1 $403 reversed single #
loop $-1 $-1 $294 $180 #
plane-surface $-1 0 30.186233348029166 0 0 -1 0 0 0 -1 forward_v I I I I #
coedge $-1 $404 $292 $295 $405 forward $181 $-1 #
coedge $-1 $298 $183 $184 $286 reversed $113 $-1 #
coedge $-1 $292 $404 $183 $284 reversed $181 $-1 #
edge $-1 $299 -11.675504793936497 $406 11.675504793936497 $283 $407 forward 7 unknown #
coedge $-1 $185 $184 $404 $408 forward $73 $-1 #
edge $-1 $290 -55.31174657429731 $406 55.31174657429731 $282 $409 forward 7 unknown #
coedge $-1 $295 $294 $185 $288 reversed $279 $-1 #
edge $-1 $410 -55.31174657429731 $289 55.31174657429731 $287 $411 forward 7 unknown #
vertex $-1 $187 $412 #
vertex $-1 $301 $413 #
straight-curve $-1 55.31174657429731 0 -11.675504793936497 0 -1 0 I I #
coedge $-1 $281 $283 $188 $293 reversed $181 $-1 #
edge $-1 $296 -30.186233348029166 $299 30.186233348029166 $292 $414 forward 7 unknown #
coedge $-1 $287 $189 $194 $302 forward $279 $-1 #
coedge $-1 $189 $287 $281 $405 reversed $279 $-1 #
vertex $-1 $190 $415 #
straight-curve $-1 0 30.186233348029166 11.675504793936497 -1 0 0 I I #
coedge $-1 $191 $282 $193 $301 reversed $113 $-1 #
vertex $-1 $293 $416 #
straight-curve $-1 0 -30.186233348029166 11.675504793936497 1 0 0 I I #
edge $-1 $196 -11.675504793936497 $290 11.675504793936497 $193 $417 forward 7 unknown #
edge $-1 $197 -11.675504793936497 $289 11.675504793936497 $194 $418 forward 7 unknown #
point $-1 55.31174657429731 -30.186233348029166 11.675504793936497 #
point $-1 55.31174657429731 30.186233348029166 11.675504793936497 #
face $-1 $-1 $315 $28 $-1 $419 reversed single #
loop $-1 $-1 $311 $199 #
plane-surface $-1 0 0 -11.675504793936497 0 0 1 1 0 0 forward_v I I I I #
coedge $-1 $420 $421 $207 $319 forward $200 $-1 #
coedge $-1 $202 $323 $313 $422 forward $121 $-1 #
edge $-1 $317 -16.744281121167575 $212 -10.139623332555614 $202 $423 forward 7 unknown #
coedge $-1 $424 $208 $203 $312 forward $306 $-1 #
edge $-1 $213 10.139623332555614 $316 16.744281121167575 $311 $425 forward 7 unknown #
coedge $-1 $426 $205 $309 $422 reversed $315 $-1 #
coedge $-1 $205 $426 $424 $427 reversed $315 $-1 #
loop $-1 $-1 $205 $305 #
vertex $-1 $427 $428 #
vertex $-1 $206 $429 #
straight-curve $-1 -45.776521760690123 -30.186233348029166 0 0 0 1 I I #
edge $-1 $324 -11.675504793936497 $321 11.675504793936497 $308 $430 forward 7 unknown #
coedge $-1 $208 $424 $420 $431 forward $306 $-1 #
vertex $-1 $209 $432 #
straight-curve $-1 -25.272067083746858 -23.581575559417207 -11.675504793936497 1 0 0 I I #
coedge $-1 $309 $210 $421 $433 forward $121 $-1 #
vertex $-1 $433 $434 #
straight-curve $-1 -25.272067083746858 -23.581575559417207 11.675504793936497 -1 0 0 I I #
point $-1 -45.776521760690123 -23.581575559417207 11.675504793936497 #
point $-1 -45.776521760690123 -23.581575559417207 -11.675504793936497 #
face $-1 $-1 $338 $29 $-1 $435 reversed single #
loop $-1 $-1 $334 $215 #
plane-surface $-1 0 0 -11.675504793936497 0 0 1 1 0 0 forward_v I I I I #
coedge $-1 $436 $437 $223 $342 forward $216 $-1 #
coedge $-1 $218 $346 $336 $438 forward $129 $-1 #
edge $-1 $340 -30.039679490550451 $228 -20.504454676943265 $218 $439 forward 7 unknown #
coedge $-1 $440 $224 $219 $335 forward $329 $-1 #
edge $-1 $229 20.504454676943265 $339 30.039679490550451 $334 $441 forward 7 unknown #
coedge $-1 $442 $221 $332 $438 reversed $338 $-1 #
coedge $-1 $221 $442 $440 $443 reversed $338 $-1 #
loop $-1 $-1 $221 $328 #
vertex $-1 $443 $444 #
vertex $-1 $222 $445 #
straight-curve $-1 55.31174657429731 -23.581575559417207 0 0 0 1 I I #
edge $-1 $347 -11.675504793936497 $344 11.675504793936497 $331 $446 forward 7 unknown #
coedge $-1 $224 $440 $436 $447 forward $329 $-1 #
vertex $-1 $225 $448 #
straight-curve $-1 45.776521760690123 -13.441952226861593 -11.675504793936497 0 1 0 I I #
coedge $-1 $332 $226 $437 $449 forward $129 $-1 #
vertex $-1 $449 $450 #
straight-curve $-1 45.776521760690123 -13.441952226861593 11.675504793936497 0 -1 0 I I #
point $-1 45.776521760690123 -23.581575559417207 11.675504793936497 #
point $-1 45.776521760690123 -23.581575559417207 -11.675504793936497 #
loop $-1 $-1 $358 $231 #
plane-surface $-1 45.776521760690123 -26.883904453723186 0 1 0 0 0 0 -1 forward_v I I I I #
coedge $-1 $239 $234 $357 $451 forward $137 $-1 #
coedge $-1 $234 $239 $242 $366 forward $137 $-1 #
coedge $-1 $452 $358 $234 $356 reversed $351 $-1 #
edge $-1 $453 -16.744281121167575 $454 -8.6873602621863117 $234 $455 forward 7 unknown #
coedge $-1 $236 $235 $353 $451 reversed $85 $-1 #
coedge $-1 $355 $452 $236 $359 forward $351 $-1 #
edge $-1 $361 0.25206578210961766 $454 11.093722295514898 $358 $456 forward 7 unknown #
coedge $-1 $242 $237 $452 $457 forward $232 $-1 #
vertex $-1 $457 $458 #
straight-curve $-1 19.807178391343509 -30.186233348029166 4.421020509938371 1 0 0 I I #
vertex $-1 $240 $459 #
straight-curve $-1 33.452191804683899 -52.10389964316574 11.675504793936497 0 -1 0 I I #
straight-curve $-1 33.452191804683899 -30.186233348029148 4.421020509938387 0 0.74314481823134659 0.66913061440640931 I I #
edge $-1 $243 33.452191804683899 $453 45.776521760690123 $242 $460 forward 7 unknown #
point $-1 33.452191804683899 -30.186233348029166 11.675504793936497 #
point $-1 33.452191804683899 -30.186233348029166 4.421020509938371 #
edge $-1 $461 1 $461 0 $246 $-1 forward 7 unknown #
vertex $-1 $247 $462 #
ellipse-curve $-1 36.973428934971388 -25.092416182994182 6.8650641544512778 0 -0.66913061440640931 0.74314481823134659 1.5 0 0 1 I I #
point $-1 38.473428934971388 -26.157772918538555 8.0482626519374492 #
edge $-1 $463 1 $463 0 $250 $-1 forward 7 unknown #
vertex $-1 $251 $464 #
ellipse-curve $-1 42.255284630402635 -25.092416182994182 6.8650641544512778 0 -0.66913061440640931 0.74314481823134659 1.5 0 0 1 I I #
point $-1 43.755284630402635 -26.157772918538555 8.0482626519374492 #
plane-surface $-1 0 0 11.675504793936497 0 0 1 1 0 0 forward_v I I I I #
coedge $-1 $388 $387 $380 $465 forward $255 $-1 #
coedge $-1 $380 $257 $259 $384 reversed $159 $-1 #
coedge $-1 $257 $379 $378 $465 reversed $159 $-1 #
coedge $-1 $265 $260 $257 $382 forward $266 $-1 #
edge $-1 $385 -7.5418442596076858 $466 0.5150765993735682 $381 $467 forward 7 unknown #
coedge $-1 $259 $258 $388 $468 reversed $99 $-1 #
edge $-1 $469 -60.372466696058339 $385 -49.53081018265307 $379 $470 forward 7 unknown #
vertex $-1 $261 $471 #
straight-curve $-1 19.807178391343509 22.129312489047912 11.675504793936494 1 0 0 I I #
coedge $-1 $378 $262 $265 $392 reversed $255 $-1 #
coedge $-1 $262 $378 $383 $468 forward $255 $-1 #
vertex $-1 $263 $472 #
straight-curve $-1 33.452191804683899 30.186233348029166 63.513680975765674 0 0 1 I I #
straight-curve $-1 33.452191804683899 -14.679252440991135 44.818086243502378 0 0.74314481823134659 -0.66913061440640931 I I #
edge $-1 $466 -45.776521760690137 $267 -33.452191804683899 $387 $473 forward 7 unknown #
point $-1 33.452191804683899 30.186233348029166 11.675504793936497 #
point $-1 33.452191804683899 22.129312489047912 11.675504793936497 #
edge $-1 $474 1 $474 0 $270 $-1 forward 7 unknown #
vertex $-1 $271 $475 #
ellipse-curve $-1 36.973428934971388 25.092416182994178 6.8650641544512849 0 0.66913061440640931 0.74314481823134659 1.5 0 0 1 I I #
point $-1 38.473428934971388 26.157772918538548 8.0482626519374563 #
edge $-1 $476 1 $476 0 $274 $-1 forward 7 unknown #
vertex $-1 $275 $477 #
ellipse-curve $-1 42.255284630402635 25.092416182994178 6.8650641544512849 0 0.66913061440640931 0.74314481823134659 1.5 0 0 1 I I #
point $-1 43.755284630402635 26.157772918538548 8.0482626519374563 #
plane-surface $-1 55.31174657429731 0 0 -1 0 0 0 0 1 forward_v I I I I #
coedge $-1 $283 $281 $285 $408 reversed $181 $-1 #
edge $-1 $296 -11.675504793936497 $410 11.675504793936497 $295 $478 forward 7 unknown #
vertex $-1 $408 $479 #
straight-curve $-1 -55.31174657429731 -30.186233348029166 0 0 0 -1 I I #
edge $-1 $406 -30.186233348029166 $410 30.186233348029166 $404 $480 forward 7 unknown #
straight-curve $-1 0 -30.186233348029166 -11.675504793936497 -1 0 0 I I #
vertex $-1 $288 $481 #
straight-curve $-1 0 30.186233348029166 -11.675504793936497 1 0 0 I I #
point $-1 55.31174657429731 30.186233348029166 -11.675504793936497 #
point $-1 55.31174657429731 -30.186233348029166 -11.675504793936497 #
straight-curve $-1 -55.31174657429731 0 11.675504793936497 0 -1 0 I I #
point $-1 -55.31174657429731 30.186233348029166 11.675504793936497 #
point $-1 -55.31174657429731 -30.186233348029166 11.675504793936497 #
straight-curve $-1 55.31174657429731 -30.186233348029166 0 0 0 -1 I I #
straight-curve $-1 55.31174657429731 30.186233348029166 0 0 0 -1 I I #
plane-surface $-1 0 -30.186233348029166 0 0 1 0 0 0 1 forward_v I I I I #
coedge $-1 $482 $308 $320 $431 reversed $200 $-1 #
coedge $-1 $308 $482 $323 $433 reversed $200 $-1 #
edge $-1 $483 -55.31174657429731 $317 -45.776521760690123 $313 $484 forward 7 unknown #
straight-curve $-1 -45.776521760690123 -13.441952226861593 11.675504793936497 0 1 0 I I #
coedge $-1 $320 $311 $314 $427 forward $306 $-1 #
straight-curve $-1 -45.776521760690123 -13.441952226861593 -11.675504793936497 0 -1 0 I I #
coedge $-1 $314 $313 $482 $485 forward $315 $-1 #
edge $-1 $316 45.776521760690123 $486 55.31174657429731 $314 $487 forward 7 unknown #
point $-1 -45.776521760690123 -30.186233348029166 -11.675504793936497 #
point $-1 -45.776521760690123 -30.186233348029166 11.675504793936497 #
straight-curve $-1 -55.31174657429731 -23.581575559417207 0 0 0 -1 I I #
edge $-1 $486 -30.186233348029166 $321 -23.581575559417207 $420 $488 forward 7 unknown #
point $-1 -55.31174657429731 -23.581575559417207 -11.675504793936497 #
edge $-1 $324 23.581575559417207 $483 30.186233348029166 $421 $489 forward 7 unknown #
point $-1 -55.31174657429731 -23.581575559417207 11.675504793936497 #
plane-surface $-1 55.31174657429731 0 0 -1 0 0 0 0 1 forward_v I I I I #
coedge $-1 $490 $331 $343 $447 reversed $216 $-1 #
coedge $-1 $331 $490 $346 $449 reversed $216 $-1 #
edge $-1 $491 -30.186233348029166 $340 -23.581575559417207 $336 $492 forward 7 unknown #
straight-curve $-1 25.272067083746858 -23.581575559417207 11.675504793936497 -1 0 0 I I #
coedge $-1 $343 $334 $337 $443 forward $329 $-1 #
straight-curve $-1 25.272067083746858 -23.581575559417207 -11.675504793936497 1 0 0 I I #
coedge $-1 $337 $336 $490 $493 forward $338 $-1 #
edge $-1 $339 23.581575559417207 $494 30.186233348029166 $337 $495 forward 7 unknown #
point $-1 55.31174657429731 -23.581575559417207 -11.675504793936497 #
point $-1 55.31174657429731 -23.581575559417207 11.675504793936497 #
straight-curve $-1 45.776521760690123 -30.186233348029166 0 0 0 -1 I I #
edge $-1 $494 -55.31174657429731 $344 -45.776521760690123 $436 $496 forward 7 unknown #
point $-1 45.776521760690123 -30.186233348029166 -11.675504793936497 #
edge $-1 $347 45.776521760690123 $491 55.31174657429731 $437 $497 forward 7 unknown #
point $-1 45.776521760690123 -30.186233348029166 11.675504793936497 #
edge $-1 $454 -25.969343369346628 $363 -13.64501341334039 $353 $498 forward 7 unknown #
coedge $-1 $358 $355 $360 $457 reversed $351 $-1 #
vertex $-1 $457 $499 #
vertex $-1 $356 $500 #
straight-curve $-1 45.776521760690123 -13.441952226861593 11.675504793936497 0 1 0 I I #
straight-curve $-1 45.776521760690123 -30.373554727857361 4.252355578284531 0 0.74314481823134659 0.66913061440640931 I I #
edge $-1 $361 4.421020509938371 $453 11.675504793936497 $360 $501 forward 7 unknown #
point $-1 45.776521760690123 -30.186233348029166 4.421020509938371 #
point $-1 33.452191804683899 -22.129312489047905 11.675504793936497 #
straight-curve $-1 0 -30.186233348029166 11.675504793936497 1 0 0 I I #
vertex $-1 $369 $502 #
point $-1 38.473428934971388 -25.092416182994182 6.8650641544512778 #
vertex $-1 $373 $503 #
point $-1 43.755284630402635 -25.092416182994182 6.8650641544512778 #
edge $-1 $466 51.838176181829176 $469 59.092660465827294 $378 $504 forward 7 unknown #
vertex $-1 $392 $505 #
straight-curve $-1 45.776521760690137 29.671156748655598 11.675504793936497 0 1 0 I I #
edge $-1 $469 -25.969343369346628 $389 -13.64501341334039 $388 $506 forward 7 unknown #
vertex $-1 $468 $507 #
straight-curve $-1 45.776521760690137 -14.679252440991135 44.818086243502378 0 -0.74314481823134659 0.66913061440640931 I I #
point $-1 45.776521760690137 22.129312489047912 11.675504793936497 #
point $-1 33.452191804683899 30.186233348029162 4.4210205099383799 #
straight-curve $-1 0 30.186233348029166 11.675504793936497 -1 0 0 I I #
vertex $-1 $395 $508 #
point $-1 38.473428934971388 25.092416182994178 6.8650641544512849 #
vertex $-1 $399 $509 #
point $-1 43.755284630402635 25.092416182994178 6.8650641544512849 #
straight-curve $-1 -55.31174657429731 30.186233348029166 0 0 0 -1 I I #
point $-1 -55.31174657429731 -30.186233348029166 -11.675504793936497 #
straight-curve $-1 -55.31174657429731 0 -11.675504793936497 0 1 0 I I #
point $-1 -55.31174657429731 30.186233348029166 -11.675504793936497 #
coedge $-1 $421 $420 $426 $485 reversed $200 $-1 #
vertex $-1 $433 $510 #
straight-curve $-1 0 -30.186233348029166 11.675504793936497 1 0 0 I I #
edge $-1 $483 -11.675504793936497 $486 11.675504793936497 $482 $511 forward 7 unknown #
vertex $-1 $431 $512 #
straight-curve $-1 0 -30.186233348029166 -11.675504793936497 -1 0 0 I I #
straight-curve $-1 -55.31174657429731 0 -11.675504793936497 0 1 0 I I #
straight-curve $-1 -55.31174657429731 0 11.675504793936497 0 -1 0 I I #
coedge $-1 $437 $436 $442 $493 reversed $216 $-1 #
vertex $-1 $438 $513 #
straight-curve $-1 55.31174657429731 0 11.675504793936497 0 1 0 I I #
edge $-1 $491 -11.675504793936497 $494 11.675504793936497 $442 $514 forward 7 unknown #
vertex $-1 $493 $515 #
straight-curve $-1 55.31174657429731 0 -11.675504793936497 0 -1 0 I I #
straight-curve $-1 0 -30.186233348029166 -11.675504793936497 -1 0 0 I I #
straight-curve $-1 0 -30.186233348029166 11.675504793936497 1 0 0 I I #
straight-curve $-1 19.807178391343509 -22.129312489047901 11.675504793936497 -1 0 0 I I #
point $-1 45.776521760690123 -30.186233348029166 11.675504793936497 #
point $-1 45.776521760690137 -22.129312489047905 11.675504793936497 #
straight-curve $-1 45.776521760690123 -30.186233348029166 0 0 0 1 I I #
point $-1 36.973428934971388 -24.088720261384569 5.7503469271042578 #
point $-1 42.255284630402635 -24.088720261384569 5.7503469271042578 #
straight-curve $-1 45.776521760690137 30.186233348029166 63.513680975765674 0 0 -1 I I #
point $-1 45.776521760690137 30.186233348029166 11.675504793936497 #
straight-curve $-1 19.807178391343509 30.186233348029162 4.4210205099383799 -1 0 0 I I #
point $-1 45.776521760690137 30.186233348029162 4.4210205099383799 #
point $-1 36.973428934971388 24.088720261384566 5.7503469271042649 #
point $-1 42.255284630402635 24.088720261384566 5.7503469271042649 #
point $-1 -55.31174657429731 -30.186233348029166 11.675504793936497 #
straight-curve $-1 -55.31174657429731 -30.186233348029166 0 0 0 -1 I I #
point $-1 -55.31174657429731 -30.186233348029166 -11.675504793936497 #
point $-1 55.31174657429731 -30.186233348029166 11.675504793936497 #
straight-curve $-1 55.31174657429731 -30.186233348029166 0 0 0 -1 I I #
point $-1 55.31174657429731 -30.186233348029166 -11.675504793936497 #
End-of-ACIS-data 