500 0 7 0           
7 Unknown 11 ACIS 5.0 NT 24 Thu Mar 25 23:00:08 1999 
-1 9.9999999999999995e-007 1e-010 
body $-1 $7 $-1 $8 #
body $-1 $9 $-1 $10 #
body $-1 $11 $-1 $12 #
body $-1 $13 $-1 $14 #
body $-1 $15 $-1 $16 #
body $-1 $17 $-1 $18 #
body $-1 $19 $-1 $20 #
lump $-1 $-1 $21 $0 #
transform $-1 1 0 0 0 1 0 0 0 1 78.554643391216771 36.852621041722564 14.089967075063207 1 rotate no_reflect no_shear #
lump $-1 $-1 $22 $1 #
transform $-1 1 0 0 0 1 0 0 0 1 78.554643391216771 36.852621041722564 14.089967075063207 1 rotate no_reflect no_shear #
lump $-1 $-1 $23 $2 #
transform $-1 1 0 0 0 1 0 0 0 1 78.554643391216771 36.852621041722564 14.089967075063207 1 rotate no_reflect no_shear #
lump $-1 $-1 $24 $3 #
transform $-1 1 0 0 0 1 0 0 0 1 78.554643391216771 36.852621041722564 14.089967075063207 1 rotate no_reflect no_shear #
lump $-1 $-1 $25 $4 #
transform $-1 1 0 0 0 1 0 0 0 1 78.554643391216771 36.852621041722564 14.089967075063207 1 rotate no_reflect no_shear #
lump $-1 $-1 $26 $5 #
transform $-1 1 0 0 0 1 0 0 0 1 78.554643391216771 36.852621041722564 14.089967075063207 1 rotate no_reflect no_shear #
lump $-1 $-1 $27 $6 #
transform $-1 1 0 0 0 1 0 0 0 1 78.554643391216771 36.852621041722564 14.089967075063207 1 rotate no_reflect no_shear #
shell $-1 $-1 $-1 $28 $-1 $7 #
shell $-1 $-1 $-1 $29 $-1 $9 #
shell $-1 $-1 $-1 $30 $-1 $11 #
shell $-1 $-1 $-1 $31 $-1 $13 #
shell $-1 $-1 $-1 $32 $-1 $15 #
shell $-1 $-1 $-1 $33 $-1 $17 #
shell $-1 $-1 $-1 $34 $-1 $19 #
face $-1 $35 $36 $21 $-1 $37 forward single #
face $-1 $38 $39 $22 $-1 $40 reversed single #
face $-1 $41 $42 $23 $-1 $43 reversed single #
face $-1 $44 $45 $24 $-1 $46 reversed single #
face $-1 $47 $48 $25 $-1 $49 forward single #
face $-1 $50 $51 $26 $-1 $52 reversed single #
face $-1 $53 $54 $27 $-1 $55 forward single #
face $-1 $56 $57 $21 $-1 $58 reversed single #
loop $-1 $-1 $59 $28 #
plane-surface $-1 0 0 14.089967075063207 0 0 1 1 0 0 forward_v I I I I #
face $-1 $60 $61 $22 $-1 $62 reversed single #
loop $-1 $-1 $63 $29 #
plane-surface $-1 -69.565603881333971 0 7.9530246603811463 0 0 1 1 0 0 forward_v I I I I #
face $-1 $64 $65 $23 $-1 $66 reversed single #
loop $-1 $-1 $67 $30 #
plane-surface $-1 69.9363927148908 0 8.6862688345929371 0 0 1 1 0 0 forward_v I I I I #
face $-1 $68 $69 $24 $-1 $70 reversed single #
loop $-1 $-1 $71 $31 #
plane-surface $-1 -10.38822206086688 92.970789920737644 175.18034345419505 1 0 0 0 -0.69465837861970381 -0.71933979245794832 forward_v I I I I #
face $-1 $72 $73 $25 $-1 $74 forward single #
loop $-1 $75 $76 $32 #
cone-surface $-1 5.9965290499334714 34.626071476019547 11.897295919567197 0 -0.69465837861970381 -0.71933979245794832 0.5 0 0 1 I I 0 1 0.5 forward I I I I #
face $-1 $77 $78 $26 $-1 $79 reversed single #
loop $-1 $-1 $80 $33 #
plane-surface $-1 22.381280160733823 -145.98990346410588 123.98037949273629 -1 0 0 0 -0.69465837861970381 0.71933979245794832 forward_v I I I I #
face $-1 $81 $82 $27 $-1 $83 forward single #
loop $-1 $84 $85 $34 #
cone-surface $-1 5.9965290499334714 -34.626071476019547 11.897295919567194 0 0.69465837861970381 -0.71933979245794832 0.5 0 0 1 I I 0 1 0.5 forward I I I I #
face $-1 $86 $87 $21 $-1 $88 reversed single #
loop $-1 $-1 $89 $35 #
plane-surface $-1 0 0 -14.089967075063207 0 0 1 1 0 0 forward_v I I I I #
coedge $-1 $90 $91 $92 $93 forward $36 $-1 #
face $-1 $94 $95 $22 $-1 $96 reversed single #
loop $-1 $-1 $97 $38 #
plane-surface $-1 -60.576564371451177 0 11.021495867722177 -1 0 0 0 0 1 forward_v I I I I #
coedge $-1 $98 $99 $100 $101 forward $39 $-1 #
face $-1 $102 $103 $23 $-1 $104 forward single #
loop $-1 $-1 $105 $41 #
plane-surface $-1 61.318142038564829 0 11.388117954828072 1 0 0 0 0 -1 forward_v I I I I #
coedge $-1 $106 $107 $108 $109 reversed $42 $-1 #
face $-1 $110 $111 $24 $-1 $112 reversed single #
loop $-1 $-1 $113 $44 #
plane-surface $-1 5.9965290499334714 -16.166492501645706 62.16538170690302 0 0.69465837861970381 0.71933979245794832 1 0 0 forward_v I I I I #
coedge $-1 $114 $115 $116 $117 reversed $45 $-1 #
face $-1 $-1 $118 $25 $-1 $119 forward single #
loop $-1 $120 $121 $47 #
cone-surface $-1 5.9965290499334714 33.843640052809853 11.087064480766159 0 -0.69465837861970381 -0.71933979245794832 0.25 0 0 1 I I -0.70710678118654746 0.70710678118654746 0.25 forward I I I I #
loop $-1 $-1 $122 $32 #
coedge $-1 $76 $76 $123 $124 reversed $48 $-1 #
face $-1 $125 $126 $26 $-1 $127 reversed single #
loop $-1 $-1 $128 $50 #
plane-surface $-1 5.9965290499334714 -36.852621041722529 10.965417745444256 0 -0.69465837861970381 0.71933979245794832 1 0 0 forward_v I I I I #
coedge $-1 $129 $130 $131 $132 reversed $51 $-1 #
face $-1 $-1 $133 $27 $-1 $134 forward single #
loop $-1 $135 $136 $53 #
cone-surface $-1 5.9965290499334714 -33.843640052809853 11.087064480766156 0 0.69465837861970381 -0.71933979245794832 0.25 0 0 1 I I -0.70710678118654746 0.70710678118654746 0.25 forward I I I I #
loop $-1 $-1 $137 $34 #
coedge $-1 $85 $85 $138 $139 reversed $54 $-1 #
face $-1 $140 $141 $21 $-1 $142 reversed single #
loop $-1 $-1 $143 $56 #
plane-surface $-1 0 -36.852621041722564 0 0 1 0 0 0 1 forward_v I I I I #
coedge $-1 $144 $145 $146 $147 forward $57 $-1 #
coedge $-1 $148 $59 $149 $150 forward $36 $-1 #
coedge $-1 $59 $148 $151 $152 forward $36 $-1 #
coedge $-1 $153 $154 $59 $93 reversed $155 $-1 #
edge $-1 $156 -36.852621041722564 $157 36.852621041722564 $92 $158 forward 7 unknown #
face $-1 $159 $160 $22 $-1 $161 reversed single #
loop $-1 $-1 $162 $60 #
plane-surface $-1 0 36.852621041722564 0 0 -1 0 0 0 -1 forward_v I I I I #
coedge $-1 $100 $163 $164 $165 reversed $61 $-1 #
coedge $-1 $166 $63 $167 $168 reversed $39 $-1 #
coedge $-1 $63 $166 $169 $170 reversed $39 $-1 #
coedge $-1 $171 $97 $63 $101 reversed $61 $-1 #
edge $-1 $172 -36.852621041722564 $173 36.852621041722564 $100 $174 forward 7 unknown #
face $-1 $175 $176 $23 $-1 $177 reversed single #
loop $-1 $-1 $178 $64 #
plane-surface $-1 0 0 14.089967075063207 0 0 1 1 0 0 forward_v I I I I #
coedge $-1 $179 $180 $181 $182 reversed $65 $-1 #
coedge $-1 $183 $67 $184 $185 reversed $42 $-1 #
coedge $-1 $67 $183 $186 $187 reversed $42 $-1 #
coedge $-1 $188 $189 $67 $109 forward $190 $-1 #
edge $-1 $191 -36.852621041722564 $192 36.852621041722564 $108 $193 forward 7 unknown #
face $-1 $194 $195 $24 $-1 $196 reversed single #
loop $-1 $-1 $197 $68 #
plane-surface $-1 22.381280160733823 92.970789920737644 175.18034345419505 -1 0 0 0 0.69465837861970381 0.71933979245794832 forward_v I I I I #
coedge $-1 $198 $199 $200 $201 reversed $69 $-1 #
coedge $-1 $115 $71 $202 $203 reversed $45 $-1 #
coedge $-1 $71 $114 $198 $204 reversed $45 $-1 #
coedge $-1 $200 $205 $71 $117 forward $206 $-1 #
edge $-1 $207 9.632773918646258 $208 12.868339392942787 $116 $209 forward 7 unknown #
loop $-1 $-1 $123 $72 #
plane-surface $-1 5.9965290499334714 -16.166492501645706 62.16538170690302 0 0.69465837861970381 0.71933979245794832 1 0 0 forward_v I I I I #
loop $-1 $-1 $210 $47 #
coedge $-1 $121 $121 $122 $211 reversed $73 $-1 #
coedge $-1 $122 $122 $121 $211 forward $75 $-1 #
coedge $-1 $123 $123 $76 $124 forward $118 $-1 #
edge $-1 $212 5.9880766062944039e-015 $212 6.2831853071796067 $123 $213 forward 7 unknown #
face $-1 $214 $215 $26 $-1 $216 forward single #
loop $-1 $-1 $217 $77 #
plane-surface $-1 -10.38822206086688 -145.98990346410588 123.98037949273629 1 0 0 0 0.69465837861970381 -0.71933979245794832 forward_v I I I I #
coedge $-1 $218 $219 $220 $221 reversed $78 $-1 #
coedge $-1 $130 $80 $222 $223 reversed $51 $-1 #
coedge $-1 $80 $129 $218 $224 reversed $51 $-1 #
coedge $-1 $220 $225 $80 $132 forward $215 $-1 #
edge $-1 $226 36.142330690330375 $227 39.377896164626939 $131 $228 forward 7 unknown #
loop $-1 $-1 $138 $81 #
plane-surface $-1 5.9965290499334714 -36.852621041722529 10.965417745444256 0 -0.69465837861970381 0.71933979245794832 1 0 0 forward_v I I I I #
loop $-1 $-1 $229 $53 #
coedge $-1 $136 $136 $137 $230 reversed $82 $-1 #
coedge $-1 $137 $137 $136 $230 forward $84 $-1 #
coedge $-1 $138 $138 $85 $139 forward $133 $-1 #
edge $-1 $231 -9.1574869025521451e-015 $231 6.2831853071795916 $138 $232 forward 7 unknown #
face $-1 $233 $234 $21 $-1 $235 reversed single #
loop $-1 $-1 $236 $86 #
plane-surface $-1 -78.554643391216771 0 0 1 0 0 0 0 -1 forward_v I I I I #
coedge $-1 $237 $151 $238 $239 forward $87 $-1 #
coedge $-1 $240 $89 $237 $241 forward $57 $-1 #
coedge $-1 $89 $240 $242 $243 forward $57 $-1 #
coedge $-1 $154 $153 $89 $147 reversed $155 $-1 #
edge $-1 $244 -36.852621041722564 $245 36.852621041722564 $146 $246 forward 7 unknown #
coedge $-1 $91 $90 $247 $248 forward $36 $-1 #
coedge $-1 $249 $250 $90 $150 reversed $234 $-1 #
edge $-1 $157 -78.554643391216771 $251 78.554643391216771 $149 $252 forward 7 unknown #
coedge $-1 $143 $253 $91 $152 reversed $87 $-1 #
edge $-1 $254 -78.554643391216771 $156 78.554643391216771 $151 $255 forward 7 unknown #
coedge $-1 $146 $92 $253 $256 forward $155 $-1 #
coedge $-1 $92 $146 $249 $257 reversed $155 $-1 #
loop $-1 $-1 $153 $233 #
vertex $-1 $93 $258 #
vertex $-1 $93 $259 #
straight-curve $-1 78.554643391216771 0 14.089967075063207 0 1 0 I I #
face $-1 $260 $261 $22 $-1 $262 forward single #
loop $-1 $-1 $263 $94 #
plane-surface $-1 -78.554643391216771 0 0 1 0 0 0 0 -1 forward_v I I I I #
coedge $-1 $169 $264 $171 $265 forward $95 $-1 #
coedge $-1 $97 $171 $266 $267 reversed $61 $-1 #
coedge $-1 $268 $167 $97 $165 forward $269 $-1 #
edge $-1 $173 2.442276726520058 $270 8.5792191412021186 $164 $271 forward 7 unknown #
coedge $-1 $99 $98 $263 $272 reversed $39 $-1 #
coedge $-1 $164 $273 $98 $168 forward $269 $-1 #
edge $-1 $274 -43.771841450549786 $173 -25.793762430784192 $167 $275 forward 7 unknown #
coedge $-1 $276 $162 $99 $170 forward $95 $-1 #
edge $-1 $172 25.793762430784192 $277 43.771841450549786 $169 $278 forward 7 unknown #
coedge $-1 $163 $100 $162 $265 reversed $61 $-1 #
vertex $-1 $170 $279 #
vertex $-1 $168 $280 #
straight-curve $-1 -60.576564371451177 0 7.9530246603811463 0 -1 0 I I #
face $-1 $281 $282 $23 $-1 $283 reversed single #
loop $-1 $-1 $284 $102 #
plane-surface $-1 0 -36.852621041722564 0 0 1 0 0 0 1 forward_v I I I I #
coedge $-1 $285 $286 $180 $287 forward $103 $-1 #
coedge $-1 $288 $105 $183 $289 reversed $65 $-1 #
coedge $-1 $105 $288 $178 $287 reversed $65 $-1 #
coedge $-1 $290 $186 $105 $182 forward $282 $-1 #
edge $-1 $291 2.9922098571789011 $292 8.3959080976491709 $181 $293 forward 7 unknown #
coedge $-1 $107 $106 $179 $289 forward $42 $-1 #
coedge $-1 $294 $284 $106 $185 forward $176 $-1 #
edge $-1 $295 26.349945681119429 $191 43.586447033771371 $184 $296 forward 7 unknown #
coedge $-1 $181 $297 $107 $187 forward $282 $-1 #
edge $-1 $192 -43.586447033771371 $291 -26.349945681119429 $186 $298 forward 7 unknown #
coedge $-1 $299 $108 $297 $300 reversed $190 $-1 #
coedge $-1 $108 $299 $294 $301 forward $190 $-1 #
loop $-1 $-1 $108 $281 #
vertex $-1 $185 $302 #
vertex $-1 $109 $303 #
straight-curve $-1 78.554643391216771 0 8.6862688345929371 0 1 0 I I #
face $-1 $-1 $206 $24 $-1 $304 forward single #
loop $-1 $-1 $305 $110 #
plane-surface $-1 0 36.852621041722564 0 0 -1 0 0 0 -1 forward_v I I I I #
coedge $-1 $306 $307 $308 $309 reversed $111 $-1 #
coedge $-1 $310 $113 $115 $204 forward $69 $-1 #
coedge $-1 $113 $310 $306 $311 forward $69 $-1 #
coedge $-1 $308 $116 $113 $201 forward $206 $-1 #
edge $-1 $208 -13.386486585833616 $312 19.383015635767087 $200 $313 forward 7 unknown #
coedge $-1 $314 $315 $114 $203 forward $195 $-1 #
edge $-1 $316 -76.624753981653271 $207 -73.500204652034313 $202 $317 forward 7 unknown #
edge $-1 $208 69.207276715450192 $316 73.705242083445142 $115 $318 forward 7 unknown #
coedge $-1 $116 $308 $314 $319 forward $206 $-1 #
loop $-1 $-1 $308 $194 #
vertex $-1 $203 $320 #
vertex $-1 $117 $321 #
straight-curve $-1 -10.38822206086688 46.485394960368822 14.089967075063214 0 -1 0 I I #
coedge $-1 $210 $210 $-1 $322 reversed $120 $-1 #
edge $-1 $323 0 $323 6.2831853071796004 $121 $324 forward 7 unknown #
vertex $-1 $124 $325 #
ellipse-curve $-1 5.9965290499334714 35.234838304574296 12.52769241025373 0 0.69465837861970381 0.71933979245794832 0.5 0 0 1 I I #
face $-1 $-1 $326 $26 $-1 $327 reversed single #
loop $-1 $-1 $131 $125 #
plane-surface $-1 0 0 14.089967075063207 0 0 1 1 0 0 forward_v I I I I #
coedge $-1 $328 $329 $330 $331 reversed $126 $-1 #
coedge $-1 $332 $128 $130 $224 forward $78 $-1 #
coedge $-1 $128 $332 $328 $333 forward $78 $-1 #
coedge $-1 $330 $131 $128 $221 forward $215 $-1 #
edge $-1 $227 -19.383015635767087 $334 13.386486585833616 $220 $335 forward 7 unknown #
coedge $-1 $336 $337 $129 $223 forward $326 $-1 #
edge $-1 $338 -51.024772000923925 $226 -47.900222671304938 $222 $339 forward 7 unknown #
edge $-1 $227 -4.4979653679949507 $338 4.9001345279956856e-014 $130 $340 forward 7 unknown #
coedge $-1 $131 $330 $336 $341 forward $215 $-1 #
vertex $-1 $223 $342 #
vertex $-1 $132 $343 #
straight-curve $-1 22.381280160733823 -72.99495173205294 14.089967075063207 0 1 0 I I #
coedge $-1 $229 $229 $-1 $344 reversed $135 $-1 #
edge $-1 $345 0 $345 6.2831853071796004 $136 $346 forward 7 unknown #
vertex $-1 $139 $347 #
ellipse-curve $-1 5.9965290499334714 -35.234838304574282 12.527692410253714 0 -0.69465837861970381 0.71933979245794832 0.5 0 0 1 I I #
face $-1 $-1 $155 $21 $-1 $348 reversed single #
loop $-1 $-1 $249 $140 #
plane-surface $-1 0 36.852621041722564 0 0 -1 0 0 0 -1 forward_v I I I I #
coedge $-1 $349 $247 $250 $350 forward $141 $-1 #
coedge $-1 $253 $143 $144 $241 reversed $87 $-1 #
coedge $-1 $247 $349 $143 $239 reversed $141 $-1 #
edge $-1 $254 -14.089967075063207 $351 14.089967075063207 $238 $352 forward 7 unknown #
coedge $-1 $145 $144 $349 $353 forward $57 $-1 #
edge $-1 $245 -78.554643391216771 $351 78.554643391216771 $237 $354 forward 7 unknown #
coedge $-1 $250 $249 $145 $243 reversed $234 $-1 #
edge $-1 $355 -78.554643391216771 $244 78.554643391216771 $242 $356 forward 7 unknown #
vertex $-1 $147 $357 #
vertex $-1 $256 $358 #
straight-curve $-1 78.554643391216771 0 -14.089967075063207 0 -1 0 I I #
coedge $-1 $236 $238 $148 $248 reversed $141 $-1 #
edge $-1 $251 -36.852621041722564 $254 36.852621041722564 $247 $359 forward 7 unknown #
coedge $-1 $242 $149 $154 $257 forward $234 $-1 #
coedge $-1 $149 $242 $236 $350 reversed $234 $-1 #
vertex $-1 $150 $360 #
straight-curve $-1 0 36.852621041722564 14.089967075063207 -1 0 0 I I #
coedge $-1 $151 $237 $153 $256 reversed $87 $-1 #
vertex $-1 $248 $361 #
straight-curve $-1 0 -36.852621041722564 14.089967075063207 1 0 0 I I #
edge $-1 $156 -14.089967075063207 $245 14.089967075063207 $153 $362 forward 7 unknown #
edge $-1 $157 -14.089967075063207 $244 14.089967075063207 $154 $363 forward 7 unknown #
point $-1 78.554643391216771 -36.852621041722564 14.089967075063207 #
point $-1 78.554643391216771 36.852621041722564 14.089967075063207 #
face $-1 $-1 $269 $22 $-1 $364 reversed single #
loop $-1 $-1 $266 $159 #
plane-surface $-1 0 0 14.089967075063207 0 0 1 1 0 0 forward_v I I I I #
coedge $-1 $365 $366 $166 $272 forward $160 $-1 #
coedge $-1 $162 $276 $367 $368 reversed $95 $-1 #
edge $-1 $369 -8.5792191412021186 $172 -2.442276726520058 $162 $370 forward 7 unknown #
coedge $-1 $367 $371 $163 $267 forward $261 $-1 #
edge $-1 $270 -36.852621041722564 $369 36.852621041722564 $266 $372 forward 7 unknown #
coedge $-1 $273 $164 $371 $373 reversed $269 $-1 #
loop $-1 $-1 $164 $260 #
vertex $-1 $165 $374 #
straight-curve $-1 -60.576564371451177 -36.852621041722564 5.5107479338610883 0 0 1 I I #
edge $-1 $277 -36.852621041722564 $274 36.852621041722564 $263 $375 forward 7 unknown #
coedge $-1 $167 $268 $365 $376 forward $269 $-1 #
vertex $-1 $272 $377 #
straight-curve $-1 -34.782801940666985 -36.852621041722564 7.9530246603811463 1 0 0 I I #
coedge $-1 $264 $169 $366 $378 reversed $95 $-1 #
vertex $-1 $272 $379 #
straight-curve $-1 -34.782801940666985 36.852621041722564 7.9530246603811463 -1 0 0 I I #
point $-1 -60.576564371451177 36.852621041722564 7.9530246603811463 #
point $-1 -60.576564371451177 -36.852621041722564 7.9530246603811463 #
face $-1 $-1 $190 $23 $-1 $380 reversed single #
loop $-1 $-1 $181 $175 #
plane-surface $-1 0 36.852621041722564 0 0 -1 0 0 0 -1 forward_v I I I I #
coedge $-1 $184 $381 $288 $382 forward $176 $-1 #
coedge $-1 $383 $178 $381 $384 forward $103 $-1 #
coedge $-1 $178 $383 $290 $385 forward $103 $-1 #
edge $-1 $292 -36.852621041722564 $386 36.852621041722564 $178 $387 forward 7 unknown #
coedge $-1 $180 $179 $284 $382 reversed $65 $-1 #
edge $-1 $295 -36.852621041722564 $291 36.852621041722564 $179 $388 forward 7 unknown #
coedge $-1 $297 $181 $286 $385 reversed $282 $-1 #
vertex $-1 $187 $389 #
vertex $-1 $182 $390 #
straight-curve $-1 61.318142038564829 36.852621041722564 5.694058977414036 0 0 1 I I #
coedge $-1 $381 $184 $189 $301 reversed $176 $-1 #
vertex $-1 $185 $391 #
straight-curve $-1 34.9681963574454 -36.852621041722564 8.6862688345929371 1 0 0 I I #
coedge $-1 $186 $290 $188 $300 forward $282 $-1 #
straight-curve $-1 34.9681963574454 36.852621041722564 8.6862688345929371 -1 0 0 I I #
coedge $-1 $189 $188 $383 $392 reversed $190 $-1 #
edge $-1 $393 -14.089967075063207 $192 -8.6862688345929371 $188 $394 forward 7 unknown #
edge $-1 $395 -14.089967075063207 $191 -8.6862688345929371 $189 $396 forward 7 unknown #
point $-1 78.554643391216771 -36.852621041722564 8.6862688345929371 #
point $-1 78.554643391216771 36.852621041722564 8.6862688345929371 #
plane-surface $-1 0 0 14.089967075063207 0 0 1 1 0 0 forward_v I I I I #
coedge $-1 $315 $314 $307 $397 forward $195 $-1 #
coedge $-1 $307 $197 $199 $311 reversed $111 $-1 #
coedge $-1 $197 $306 $305 $397 reversed $111 $-1 #
coedge $-1 $205 $200 $197 $309 forward $206 $-1 #
edge $-1 $312 -12.868339392942787 $398 -9.632773918646258 $308 $399 forward 7 unknown #
coedge $-1 $199 $198 $315 $400 reversed $69 $-1 #
edge $-1 $401 -73.705242083445142 $312 -69.207276715450192 $306 $402 forward 7 unknown #
vertex $-1 $201 $403 #
straight-curve $-1 2.9982645249667357 33.617055567426036 14.089967075063207 1 0 0 I I #
coedge $-1 $305 $202 $205 $319 reversed $195 $-1 #
coedge $-1 $202 $305 $310 $400 forward $195 $-1 #
vertex $-1 $203 $404 #
straight-curve $-1 -10.38822206086688 36.852621041722564 87.590171727097527 0 0 1 I I #
straight-curve $-1 -10.38822206086688 -16.166492501645706 62.16538170690302 0 0.71933979245794832 -0.69465837861970381 I I #
edge $-1 $398 -22.381280160733823 $207 10.38822206086688 $314 $405 forward 7 unknown #
point $-1 -10.38822206086688 36.852621041722564 14.089967075063207 #
point $-1 -10.38822206086688 33.617055567426036 14.089967075063207 #
edge $-1 $406 1 $406 0 $210 $-1 forward 7 unknown #
vertex $-1 $211 $407 #
ellipse-curve $-1 5.9965290499334714 34.017304647464776 11.266899428880647 0 0.69465837861970381 0.71933979245794832 0.5 0 0 1 I I #
point $-1 6.4965290499334714 35.234838304574318 12.527692410253747 #
loop $-1 $-1 $222 $214 #
plane-surface $-1 0 -36.852621041722564 0 0 1 0 0 0 1 forward_v I I I I #
coedge $-1 $329 $217 $219 $333 reversed $126 $-1 #
coedge $-1 $217 $328 $408 $409 reversed $126 $-1 #
coedge $-1 $225 $220 $217 $331 forward $215 $-1 #
edge $-1 $334 -39.377896164626939 $410 -36.142330690330375 $330 $411 forward 7 unknown #
coedge $-1 $219 $218 $337 $412 reversed $78 $-1 #
edge $-1 $413 -4.9001345279956856e-014 $334 4.4979653679949507 $328 $414 forward 7 unknown #
vertex $-1 $221 $415 #
straight-curve $-1 2.9982645249667357 -33.617055567426 14.089967075063207 -1 0 0 I I #
coedge $-1 $408 $222 $225 $341 reversed $326 $-1 #
coedge $-1 $222 $408 $332 $412 forward $326 $-1 #
vertex $-1 $223 $416 #
straight-curve $-1 22.381280160733823 -36.852621041722564 61.990189746368145 0 0 1 I I #
straight-curve $-1 22.381280160733823 -36.852621041722529 10.965417745444256 0 -0.71933979245794832 -0.69465837861970381 I I #
edge $-1 $410 -10.38822206086688 $226 22.381280160733823 $336 $417 forward 7 unknown #
point $-1 22.381280160733823 -36.852621041722564 14.089967075063207 #
point $-1 22.381280160733823 -33.617055567426 14.089967075063207 #
edge $-1 $418 1 $418 0 $229 $-1 forward 7 unknown #
vertex $-1 $230 $419 #
ellipse-curve $-1 5.9965290499334714 -34.017304647464776 11.266899428880643 0 -0.69465837861970381 0.71933979245794832 0.5 0 0 1 I I #
point $-1 6.4965290499334714 -35.234838304574318 12.527692410253744 #
plane-surface $-1 78.554643391216771 0 0 -1 0 0 0 0 1 forward_v I I I I #
coedge $-1 $238 $236 $240 $353 reversed $141 $-1 #
edge $-1 $251 -14.089967075063207 $355 14.089967075063207 $250 $420 forward 7 unknown #
vertex $-1 $353 $421 #
straight-curve $-1 -78.554643391216771 -36.852621041722564 0 0 0 -1 I I #
edge $-1 $351 -36.852621041722564 $355 36.852621041722564 $349 $422 forward 7 unknown #
straight-curve $-1 0 -36.852621041722564 -14.089967075063207 -1 0 0 I I #
vertex $-1 $243 $423 #
straight-curve $-1 0 36.852621041722564 -14.089967075063207 1 0 0 I I #
point $-1 78.554643391216771 36.852621041722564 -14.089967075063207 #
point $-1 78.554643391216771 -36.852621041722564 -14.089967075063207 #
straight-curve $-1 -78.554643391216771 0 14.089967075063207 0 -1 0 I I #
point $-1 -78.554643391216771 36.852621041722564 14.089967075063207 #
point $-1 -78.554643391216771 -36.852621041722564 14.089967075063207 #
straight-curve $-1 78.554643391216771 -36.852621041722564 0 0 0 -1 I I #
straight-curve $-1 78.554643391216771 36.852621041722564 0 0 0 -1 I I #
plane-surface $-1 0 -36.852621041722564 0 0 1 0 0 0 1 forward_v I I I I #
coedge $-1 $424 $263 $273 $376 reversed $160 $-1 #
coedge $-1 $263 $424 $276 $378 forward $160 $-1 #
coedge $-1 $425 $266 $264 $368 forward $261 $-1 #
edge $-1 $369 60.576564371451177 $426 78.554643391216771 $264 $427 forward 7 unknown #
vertex $-1 $368 $428 #
straight-curve $-1 -60.576564371451177 36.852621041722564 5.5107479338610883 0 0 -1 I I #
coedge $-1 $266 $425 $268 $373 forward $261 $-1 #
straight-curve $-1 -60.576564371451177 0 14.089967075063207 0 1 0 I I #
edge $-1 $429 -78.554643391216771 $270 -60.576564371451177 $268 $430 forward 7 unknown #
point $-1 -60.576564371451177 -36.852621041722564 14.089967075063207 #
straight-curve $-1 -78.554643391216771 0 7.9530246603811463 0 -1 0 I I #
edge $-1 $429 -14.089967075063207 $274 -7.9530246603811463 $365 $431 forward 7 unknown #
point $-1 -78.554643391216771 -36.852621041722564 7.9530246603811463 #
edge $-1 $426 -14.089967075063207 $277 -7.9530246603811463 $276 $432 forward 7 unknown #
point $-1 -78.554643391216771 36.852621041722564 7.9530246603811463 #
plane-surface $-1 78.554643391216771 0 0 -1 0 0 0 0 1 forward_v I I I I #
coedge $-1 $284 $294 $285 $384 reversed $176 $-1 #
edge $-1 $386 -8.3959080976491709 $295 -2.9922098571789011 $284 $433 forward 7 unknown #
coedge $-1 $286 $285 $299 $392 forward $103 $-1 #
edge $-1 $386 61.318142038564829 $395 78.554643391216771 $381 $434 forward 7 unknown #
edge $-1 $393 -78.554643391216771 $292 -61.318142038564829 $290 $435 forward 7 unknown #
vertex $-1 $384 $436 #
straight-curve $-1 61.318142038564829 0 14.089967075063207 0 -1 0 I I #
straight-curve $-1 61.318142038564829 0 8.6862688345929371 0 1 0 I I #
point $-1 61.318142038564829 36.852621041722564 8.6862688345929371 #
point $-1 61.318142038564829 36.852621041722564 14.089967075063207 #
point $-1 61.318142038564829 -36.852621041722564 8.6862688345929371 #
edge $-1 $395 -36.852621041722564 $393 36.852621041722564 $299 $437 forward 7 unknown #
vertex $-1 $392 $438 #
straight-curve $-1 78.554643391216771 36.852621041722564 0 0 0 -1 I I #
vertex $-1 $392 $439 #
straight-curve $-1 78.554643391216771 -36.852621041722564 0 0 0 -1 I I #
edge $-1 $398 73.500204652034313 $401 76.624753981653271 $305 $440 forward 7 unknown #
vertex $-1 $319 $441 #
straight-curve $-1 22.381280160733823 46.485394960368822 14.089967075063214 0 1 0 I I #
edge $-1 $401 -19.383015635767087 $316 13.386486585833616 $315 $442 forward 7 unknown #
vertex $-1 $400 $443 #
straight-curve $-1 22.381280160733823 -16.166492501645706 62.16538170690302 0 -0.71933979245794832 0.69465837861970381 I I #
point $-1 22.381280160733823 33.617055567426036 14.089967075063207 #
point $-1 -10.38822206086688 36.852621041722564 10.965417745444256 #
straight-curve $-1 0 36.852621041722564 14.089967075063207 -1 0 0 I I #
vertex $-1 $322 $444 #
point $-1 6.4965290499334714 34.017304647464776 11.266899428880647 #
coedge $-1 $337 $336 $329 $409 forward $326 $-1 #
edge $-1 $410 47.900222671304938 $413 51.024772000923925 $408 $445 forward 7 unknown #
vertex $-1 $341 $446 #
straight-curve $-1 -10.38822206086688 -72.99495173205294 14.089967075063207 0 -1 0 I I #
edge $-1 $413 -13.386486585833616 $338 19.383015635767087 $337 $447 forward 7 unknown #
vertex $-1 $412 $448 #
straight-curve $-1 -10.38822206086688 -36.852621041722529 10.965417745444256 0 0.71933979245794832 0.69465837861970381 I I #
point $-1 -10.38822206086688 -33.617055567426 14.089967075063207 #
point $-1 22.381280160733823 -36.852621041722564 10.965417745444222 #
straight-curve $-1 0 -36.852621041722564 14.089967075063207 1 0 0 I I #
vertex $-1 $344 $449 #
point $-1 6.4965290499334714 -34.017304647464776 11.266899428880643 #
straight-curve $-1 -78.554643391216771 36.852621041722564 0 0 0 -1 I I #
point $-1 -78.554643391216771 -36.852621041722564 -14.089967075063207 #
straight-curve $-1 -78.554643391216771 0 -14.089967075063207 0 1 0 I I #
point $-1 -78.554643391216771 36.852621041722564 -14.089967075063207 #
coedge $-1 $366 $365 $425 $450 reversed $160 $-1 #
coedge $-1 $371 $367 $424 $450 forward $261 $-1 #
vertex $-1 $368 $451 #
straight-curve $-1 0 36.852621041722564 14.089967075063207 -1 0 0 I I #
point $-1 -60.576564371451177 36.852621041722564 14.089967075063207 #
vertex $-1 $450 $452 #
straight-curve $-1 0 -36.852621041722564 14.089967075063207 1 0 0 I I #
straight-curve $-1 -78.554643391216771 -36.852621041722564 0 0 0 -1 I I #
straight-curve $-1 -78.554643391216771 36.852621041722564 0 0 0 -1 I I #
straight-curve $-1 61.318142038564829 -36.852621041722564 5.694058977414036 0 0 -1 I I #
straight-curve $-1 0 -36.852621041722564 14.089967075063207 1 0 0 I I #
straight-curve $-1 0 36.852621041722564 14.089967075063207 -1 0 0 I I #
point $-1 61.318142038564829 -36.852621041722564 14.089967075063207 #
straight-curve $-1 78.554643391216771 0 14.089967075063207 0 1 0 I I #
point $-1 78.554643391216771 36.852621041722564 14.089967075063207 #
point $-1 78.554643391216771 -36.852621041722564 14.089967075063207 #
straight-curve $-1 22.381280160733823 36.852621041722564 87.590171727097527 0 0 -1 I I #
point $-1 22.381280160733823 36.852621041722564 14.089967075063207 #
straight-curve $-1 2.9982645249667357 36.852621041722564 10.965417745444253 -1 0 0 I I #
point $-1 22.381280160733823 36.852621041722564 10.965417745444256 #
point $-1 5.9965290499334714 33.66997545815493 10.907229532651671 #
straight-curve $-1 -10.38822206086688 -36.852621041722564 61.990189746368145 0 0 -1 I I #
point $-1 -10.38822206086688 -36.852621041722564 14.089967075063207 #
straight-curve $-1 2.9982645249667357 -36.852621041722564 10.965417745444221 1 0 0 I I #
point $-1 -10.38822206086688 -36.852621041722564 10.965417745444222 #
point $-1 5.9965290499334714 -33.66997545815493 10.907229532651668 #
edge $-1 $426 -36.852621041722564 $429 36.852621041722564 $424 $453 forward 7 unknown #
point $-1 -78.554643391216771 36.852621041722564 14.089967075063207 #
point $-1 -78.554643391216771 -36.852621041722564 14.089967075063207 #
straight-curve $-1 -78.554643391216771 0 14.089967075063207 0 -1 0 I I #
End-of-ACIS-data 