500 0 14 0           
7 Unknown 11 ACIS 5.0 NT 24 Fri Mar 26 02:26:09 1999 
-1 9.9999999999999995e-007 1e-010 
body $-1 $14 $-1 $15 #
body $-1 $16 $-1 $17 #
body $-1 $18 $-1 $19 #
body $-1 $20 $-1 $21 #
body $-1 $22 $-1 $23 #
body $-1 $24 $-1 $25 #
body $-1 $26 $-1 $27 #
body $-1 $28 $-1 $29 #
body $-1 $30 $-1 $31 #
body $-1 $32 $-1 $33 #
body $-1 $34 $-1 $35 #
body $-1 $36 $-1 $37 #
body $-1 $38 $-1 $39 #
body $-1 $40 $-1 $41 #
lump $-1 $-1 $42 $0 #
transform $-1 1 0 0 0 1 0 0 0 1 51.43223364970855 32.843829859411187 13.644618144084191 1 rotate no_reflect no_shear #
lump $-1 $-1 $43 $1 #
transform $-1 1 0 0 0 1 0 0 0 1 51.43223364970855 32.843829859411187 13.644618144084191 1 rotate no_reflect no_shear #
lump $-1 $-1 $44 $2 #
transform $-1 1 0 0 0 1 0 0 0 1 51.43223364970855 32.843829859411187 13.644618144084191 1 rotate no_reflect no_shear #
lump $-1 $-1 $45 $3 #
transform $-1 1 0 0 0 1 0 0 0 1 51.43223364970855 32.843829859411187 13.644618144084191 1 rotate no_reflect no_shear #
lump $-1 $-1 $46 $4 #
transform $-1 1 0 0 0 1 0 0 0 1 51.43223364970855 32.843829859411187 13.644618144084191 1 rotate no_reflect no_shear #
lump $-1 $-1 $47 $5 #
transform $-1 1 0 0 0 1 0 0 0 1 51.43223364970855 32.843829859411187 13.644618144084191 1 rotate no_reflect no_shear #
lump $-1 $-1 $48 $6 #
transform $-1 1 0 0 0 1 0 0 0 1 51.43223364970855 32.843829859411187 13.644618144084191 1 rotate no_reflect no_shear #
lump $-1 $-1 $49 $7 #
transform $-1 1 0 0 0 1 0 0 0 1 51.43223364970855 32.843829859411187 13.644618144084191 1 rotate no_reflect no_shear #
lump $-1 $-1 $50 $8 #
transform $-1 1 0 0 0 1 0 0 0 1 51.43223364970855 32.843829859411187 13.644618144084191 1 rotate no_reflect no_shear #
lump $-1 $-1 $51 $9 #
transform $-1 1 0 0 0 1 0 0 0 1 51.43223364970855 32.843829859411187 13.644618144084191 1 rotate no_reflect no_shear #
lump $-1 $-1 $52 $10 #
transform $-1 1 0 0 0 1 0 0 0 1 51.43223364970855 32.843829859411187 13.644618144084191 1 rotate no_reflect no_shear #
lump $-1 $-1 $53 $11 #
transform $-1 1 0 0 0 1 0 0 0 1 51.43223364970855 32.843829859411187 13.644618144084191 1 rotate no_reflect no_shear #
lump $-1 $-1 $54 $12 #
transform $-1 1 0 0 0 1 0 0 0 1 51.43223364970855 32.843829859411187 13.644618144084191 1 rotate no_reflect no_shear #
lump $-1 $-1 $55 $13 #
transform $-1 1 0 0 0 1 0 0 0 1 51.43223364970855 32.843829859411187 13.644618144084191 1 rotate no_reflect no_shear #
shell $-1 $-1 $-1 $56 $-1 $14 #
shell $-1 $-1 $-1 $57 $-1 $16 #
shell $-1 $-1 $-1 $58 $-1 $18 #
shell $-1 $-1 $-1 $59 $-1 $20 #
shell $-1 $-1 $-1 $60 $-1 $22 #
shell $-1 $-1 $-1 $61 $-1 $24 #
shell $-1 $-1 $-1 $62 $-1 $26 #
shell $-1 $-1 $-1 $63 $-1 $28 #
shell $-1 $-1 $-1 $64 $-1 $30 #
shell $-1 $-1 $-1 $65 $-1 $32 #
shell $-1 $-1 $-1 $66 $-1 $34 #
shell $-1 $-1 $-1 $67 $-1 $36 #
shell $-1 $-1 $-1 $68 $-1 $38 #
shell $-1 $-1 $-1 $69 $-1 $40 #
face $-1 $70 $71 $42 $-1 $72 forward single #
face $-1 $73 $74 $43 $-1 $75 forward single #
face $-1 $76 $77 $44 $-1 $78 reversed single #
face $-1 $79 $80 $45 $-1 $81 forward single #
face $-1 $82 $83 $46 $-1 $84 forward single #
face $-1 $85 $86 $47 $-1 $87 reversed single #
face $-1 $88 $89 $48 $-1 $90 forward single #
face $-1 $91 $92 $49 $-1 $93 forward single #
face $-1 $94 $95 $50 $-1 $96 reversed single #
face $-1 $97 $98 $51 $-1 $99 forward single #
face $-1 $100 $101 $52 $-1 $102 forward single #
face $-1 $103 $104 $53 $-1 $105 reversed single #
face $-1 $106 $107 $54 $-1 $108 forward single #
face $-1 $109 $110 $55 $-1 $111 forward single #
face $-1 $112 $113 $42 $-1 $114 reversed single #
loop $-1 $-1 $115 $56 #
plane-surface $-1 0 0 13.644618144084191 0 0 1 1 0 0 forward_v I I I I #
face $-1 $116 $117 $43 $-1 $118 reversed single #
loop $-1 $-1 $119 $57 #
plane-surface $-1 0 -24.820771904365643 4.070558138532788 0 0 1 1 0 0 forward_v I I I I #
face $-1 $120 $121 $44 $-1 $122 reversed single #
loop $-1 $-1 $123 $58 #
plane-surface $-1 86.625176355595343 -7.5821121524093655 142.6828793551577 0 1 0 0.85716730853699208 0 0.51503806187062418 forward_v I I I I #
face $-1 $124 $125 $45 $-1 $126 forward single #
loop $-1 $127 $128 $59 #
cone-surface $-1 46.305811672851057 -4.5596961987370328 6.6944800278797274 -0.85716730853699208 0 -0.51503806187062418 0.51503806187062418 0 -0.85716730853699208 1 I I 0 1 1 forward I I I I #
face $-1 $129 $130 $46 $-1 $131 forward single #
loop $-1 $132 $133 $60 #
cone-surface $-1 46.305811672851057 -0.026072268228531925 6.6944800278797274 -0.85716730853699208 0 -0.51503806187062418 0.51503806187062418 0 -0.85716730853699208 1 I I 0 1 1 forward I I I I #
face $-1 $134 $135 $47 $-1 $136 reversed single #
loop $-1 $-1 $137 $61 #
plane-surface $-1 86.625176355595343 13.049772224647288 142.6828793551577 0 1 0 0.85716730853699208 0 0.51503806187062418 forward_v I I I I #
face $-1 $138 $139 $48 $-1 $140 forward single #
loop $-1 $141 $142 $62 #
cone-surface $-1 46.305811672851057 16.072188178319621 6.6944800278797274 -0.85716730853699208 0 -0.51503806187062418 0.51503806187062418 0 -0.85716730853699208 1 I I 0 1 1 forward I I I I #
face $-1 $143 $144 $49 $-1 $145 forward single #
loop $-1 $146 $147 $63 #
cone-surface $-1 46.305811672851057 20.605812108828118 6.6944800278797274 -0.85716730853699208 0 -0.51503806187062418 0.51503806187062418 0 -0.85716730853699208 1 I I 0 1 1 forward I I I I #
face $-1 $148 $149 $50 $-1 $150 reversed single #
loop $-1 $-1 $151 $64 #
plane-surface $-1 -139.60429222884133 -7.5821121524093655 54.5108207760249 0 1 0 -0.85716730853699208 0 0.51503806187062418 forward_v I I I I #
face $-1 $152 $153 $51 $-1 $154 forward single #
loop $-1 $155 $156 $65 #
cone-surface $-1 -46.305811672851064 -4.5596961987370328 6.6944800278797167 0.85716730853699208 0 -0.51503806187062418 0.51503806187062418 0 0.85716730853699208 1 I I 0 1 1 forward I I I I #
face $-1 $157 $158 $52 $-1 $159 forward single #
loop $-1 $160 $161 $66 #
cone-surface $-1 -46.305811672851064 -0.026072268228531925 6.6944800278797167 0.85716730853699208 0 -0.51503806187062418 0.51503806187062418 0 0.85716730853699208 1 I I 0 1 1 forward I I I I #
face $-1 $162 $163 $53 $-1 $164 reversed single #
loop $-1 $-1 $165 $67 #
plane-surface $-1 -139.60429222884133 13.049772224647288 54.5108207760249 0 1 0 -0.85716730853699208 0 0.51503806187062418 forward_v I I I I #
face $-1 $166 $167 $54 $-1 $168 forward single #
loop $-1 $169 $170 $68 #
cone-surface $-1 -46.305811672851064 16.072188178319621 6.6944800278797167 0.85716730853699208 0 -0.51503806187062418 0.51503806187062418 0 0.85716730853699208 1 I I 0 1 1 forward I I I I #
face $-1 $171 $172 $55 $-1 $173 forward single #
loop $-1 $174 $175 $69 #
cone-surface $-1 -46.305811672851064 20.605812108828118 6.6944800278797167 0.85716730853699208 0 -0.51503806187062418 0.51503806187062418 0 0.85716730853699208 1 I I 0 1 1 forward I I I I #
face $-1 $176 $177 $42 $-1 $178 reversed single #
loop $-1 $-1 $179 $70 #
plane-surface $-1 0 0 -13.644618144084191 0 0 1 1 0 0 forward_v I I I I #
coedge $-1 $180 $181 $182 $183 forward $71 $-1 #
face $-1 $184 $185 $43 $-1 $186 reversed single #
loop $-1 $-1 $187 $73 #
plane-surface $-1 0 -24.820771904365643 -2.0533007240585652 0 0 1 1 0 0 forward_v I I I I #
coedge $-1 $188 $189 $190 $191 reversed $74 $-1 #
face $-1 $192 $193 $44 $-1 $194 reversed single #
loop $-1 $-1 $195 $76 #
plane-surface $-1 -1.5468822235374518 -2.2928842334827841 89.703763481911722 0.85716730853699208 0 0.51503806187062418 0.51503806187062418 0 -0.85716730853699208 forward_v I I I I #
coedge $-1 $196 $197 $198 $199 reversed $77 $-1 #
face $-1 $-1 $200 $45 $-1 $201 forward single #
loop $-1 $202 $203 $79 #
cone-surface $-1 44.389892190528926 -4.5596961987370328 5.5432795013925755 -0.85716730853699208 0 -0.51503806187062418 0.25751903093531209 0 -0.42858365426849604 1 I I -0.70710678118654746 0.70710678118654746 0.5 forward I I I I #
loop $-1 $-1 $204 $59 #
coedge $-1 $128 $128 $205 $206 reversed $80 $-1 #
face $-1 $-1 $207 $46 $-1 $208 forward single #
loop $-1 $209 $210 $82 #
cone-surface $-1 44.389892190528926 -0.026072268228531925 5.5432795013925755 -0.85716730853699208 0 -0.51503806187062418 0.25751903093531209 0 -0.42858365426849604 1 I I -0.70710678118654746 0.70710678118654746 0.5 forward I I I I #
loop $-1 $-1 $211 $60 #
coedge $-1 $133 $133 $212 $213 reversed $83 $-1 #
face $-1 $214 $215 $47 $-1 $216 reversed single #
loop $-1 $-1 $217 $85 #
plane-surface $-1 -1.5468822235374518 18.33900014357387 89.703763481911722 0.85716730853699208 0 0.51503806187062418 0.51503806187062418 0 -0.85716730853699208 forward_v I I I I #
coedge $-1 $218 $219 $220 $221 reversed $86 $-1 #
face $-1 $-1 $222 $48 $-1 $223 forward single #
loop $-1 $224 $225 $88 #
cone-surface $-1 44.389892190528926 16.072188178319621 5.5432795013925755 -0.85716730853699208 0 -0.51503806187062418 0.25751903093531209 0 -0.42858365426849604 1 I I -0.70710678118654746 0.70710678118654746 0.5 forward I I I I #
loop $-1 $-1 $226 $62 #
coedge $-1 $142 $142 $227 $228 reversed $89 $-1 #
face $-1 $-1 $229 $49 $-1 $230 forward single #
loop $-1 $231 $232 $91 #
cone-surface $-1 44.389892190528926 20.605812108828118 5.5432795013925755 -0.85716730853699208 0 -0.51503806187062418 0.25751903093531209 0 -0.42858365426849604 1 I I -0.70710678118654746 0.70710678118654746 0.5 forward I I I I #
loop $-1 $-1 $233 $63 #
coedge $-1 $147 $147 $234 $235 reversed $92 $-1 #
face $-1 $236 $237 $50 $-1 $238 reversed single #
loop $-1 $-1 $239 $94 #
plane-surface $-1 -51.432233649708536 -2.2928842334827841 1.5317049027789196 -0.85716730853699208 0 0.51503806187062418 0.51503806187062418 0 0.85716730853699208 forward_v I I I I #
coedge $-1 $240 $241 $242 $243 reversed $95 $-1 #
face $-1 $-1 $244 $51 $-1 $245 forward single #
loop $-1 $246 $247 $97 #
cone-surface $-1 -44.389892190528933 -4.5596961987370328 5.5432795013925649 0.85716730853699208 0 -0.51503806187062418 0.25751903093531209 0 0.42858365426849604 1 I I -0.70710678118654746 0.70710678118654746 0.5 forward I I I I #
loop $-1 $-1 $248 $65 #
coedge $-1 $156 $156 $249 $250 reversed $98 $-1 #
face $-1 $-1 $251 $52 $-1 $252 forward single #
loop $-1 $253 $254 $100 #
cone-surface $-1 -44.389892190528933 -0.026072268228531925 5.5432795013925649 0.85716730853699208 0 -0.51503806187062418 0.25751903093531209 0 0.42858365426849604 1 I I -0.70710678118654746 0.70710678118654746 0.5 forward I I I I #
loop $-1 $-1 $255 $66 #
coedge $-1 $161 $161 $256 $257 reversed $101 $-1 #
face $-1 $258 $259 $53 $-1 $260 reversed single #
loop $-1 $-1 $261 $103 #
plane-surface $-1 -51.432233649708536 18.33900014357387 1.5317049027789196 -0.85716730853699208 0 0.51503806187062418 0.51503806187062418 0 0.85716730853699208 forward_v I I I I #
coedge $-1 $262 $263 $264 $265 reversed $104 $-1 #
face $-1 $-1 $266 $54 $-1 $267 forward single #
loop $-1 $268 $269 $106 #
cone-surface $-1 -44.389892190528933 16.072188178319621 5.5432795013925649 0.85716730853699208 0 -0.51503806187062418 0.25751903093531209 0 0.42858365426849604 1 I I -0.70710678118654746 0.70710678118654746 0.5 forward I I I I #
loop $-1 $-1 $270 $68 #
coedge $-1 $170 $170 $271 $272 reversed $107 $-1 #
face $-1 $-1 $273 $55 $-1 $274 forward single #
loop $-1 $275 $276 $109 #
cone-surface $-1 -44.389892190528933 20.605812108828118 5.5432795013925649 0.85716730853699208 0 -0.51503806187062418 0.25751903093531209 0 0.42858365426849604 1 I I -0.70710678118654746 0.70710678118654746 0.5 forward I I I I #
loop $-1 $-1 $277 $69 #
coedge $-1 $175 $175 $278 $279 reversed $110 $-1 #
face $-1 $280 $281 $42 $-1 $282 reversed single #
loop $-1 $-1 $283 $112 #
plane-surface $-1 0 -32.843829859411187 0 0 1 0 0 0 1 forward_v I I I I #
coedge $-1 $284 $285 $286 $287 forward $113 $-1 #
coedge $-1 $288 $115 $289 $290 forward $71 $-1 #
coedge $-1 $115 $288 $291 $292 forward $71 $-1 #
coedge $-1 $293 $294 $115 $183 reversed $295 $-1 #
edge $-1 $296 -32.843829859411187 $297 32.843829859411187 $182 $298 forward 7 unknown #
face $-1 $299 $300 $43 $-1 $301 reversed single #
loop $-1 $-1 $302 $116 #
plane-surface $-1 0 -16.797713949320098 1.0086287072371114 0 -1 0 0 0 -1 forward_v I I I I #
coedge $-1 $303 $304 $305 $306 reversed $117 $-1 #
coedge $-1 $307 $119 $308 $309 forward $74 $-1 #
coedge $-1 $119 $307 $310 $311 reversed $74 $-1 #
coedge $-1 $312 $313 $119 $191 forward $314 $-1 #
edge $-1 $315 4.3873279971372767 $316 20.433443907228366 $190 $317 forward 7 unknown #
face $-1 $318 $319 $44 $-1 $320 forward single #
loop $-1 $-1 $321 $120 #
plane-surface $-1 86.625176355595343 2.9963436854437973 142.6828793551577 0 -1 0 -0.85716730853699208 0 -0.51503806187062418 forward_v I I I I #
coedge $-1 $322 $323 $324 $325 reversed $121 $-1 #
coedge $-1 $197 $123 $326 $327 reversed $77 $-1 #
coedge $-1 $123 $196 $322 $328 reversed $77 $-1 #
coedge $-1 $324 $329 $123 $199 forward $330 $-1 #
edge $-1 $331 57.696821533494656 $332 69.809734774799935 $198 $333 forward 7 unknown #
loop $-1 $-1 $205 $124 #
plane-surface $-1 -1.5468822235374518 -2.2928842334827841 89.703763481911722 0.85716730853699208 0 0.51503806187062418 0.51503806187062418 0 -0.85716730853699208 forward_v I I I I #
loop $-1 $-1 $334 $79 #
coedge $-1 $203 $203 $204 $335 reversed $125 $-1 #
coedge $-1 $204 $204 $203 $335 forward $127 $-1 #
coedge $-1 $205 $205 $128 $206 forward $200 $-1 #
edge $-1 $336 0 $336 6.2831853071796004 $205 $337 forward 7 unknown #
loop $-1 $-1 $212 $129 #
plane-surface $-1 -1.5468822235374518 -2.2928842334827841 89.703763481911722 0.85716730853699208 0 0.51503806187062418 0.51503806187062418 0 -0.85716730853699208 forward_v I I I I #
loop $-1 $-1 $338 $82 #
coedge $-1 $210 $210 $211 $339 reversed $130 $-1 #
coedge $-1 $211 $211 $210 $339 forward $132 $-1 #
coedge $-1 $212 $212 $133 $213 forward $207 $-1 #
edge $-1 $340 0 $340 6.2831853071796004 $212 $341 forward 7 unknown #
face $-1 $342 $343 $47 $-1 $344 reversed single #
loop $-1 $-1 $345 $134 #
plane-surface $-1 86.625176355595343 23.628228062500451 142.6828793551577 0 -1 0 -0.85716730853699208 0 -0.51503806187062418 forward_v I I I I #
coedge $-1 $346 $347 $348 $349 reversed $135 $-1 #
coedge $-1 $219 $137 $350 $351 reversed $86 $-1 #
coedge $-1 $137 $218 $346 $352 reversed $86 $-1 #
coedge $-1 $348 $353 $137 $221 forward $343 $-1 #
edge $-1 $354 57.696821533494656 $355 69.809734774799935 $220 $356 forward 7 unknown #
loop $-1 $-1 $227 $138 #
plane-surface $-1 -1.5468822235374518 18.33900014357387 89.703763481911722 0.85716730853699208 0 0.51503806187062418 0.51503806187062418 0 -0.85716730853699208 forward_v I I I I #
loop $-1 $-1 $357 $88 #
coedge $-1 $225 $225 $226 $358 reversed $139 $-1 #
coedge $-1 $226 $226 $225 $358 forward $141 $-1 #
coedge $-1 $227 $227 $142 $228 forward $222 $-1 #
edge $-1 $359 0 $359 6.2831853071796004 $227 $360 forward 7 unknown #
loop $-1 $-1 $234 $143 #
plane-surface $-1 -1.5468822235374518 18.33900014357387 89.703763481911722 0.85716730853699208 0 0.51503806187062418 0.51503806187062418 0 -0.85716730853699208 forward_v I I I I #
loop $-1 $-1 $361 $91 #
coedge $-1 $232 $232 $233 $362 reversed $144 $-1 #
coedge $-1 $233 $233 $232 $362 forward $146 $-1 #
coedge $-1 $234 $234 $147 $235 forward $229 $-1 #
edge $-1 $363 0 $363 6.2831853071796004 $234 $364 forward 7 unknown #
face $-1 $365 $366 $50 $-1 $367 reversed single #
loop $-1 $-1 $368 $148 #
plane-surface $-1 -139.60429222884133 2.9963436854437973 54.5108207760249 0 -1 0 0.85716730853699208 0 -0.51503806187062418 forward_v I I I I #
coedge $-1 $369 $370 $371 $372 reversed $149 $-1 #
coedge $-1 $241 $151 $373 $374 reversed $95 $-1 #
coedge $-1 $151 $240 $369 $375 reversed $95 $-1 #
coedge $-1 $371 $376 $151 $243 forward $377 $-1 #
edge $-1 $378 18.369912464712115 $379 25.648084762319826 $242 $380 forward 7 unknown #
loop $-1 $-1 $249 $152 #
plane-surface $-1 -51.432233649708536 -2.2928842334827841 1.5317049027789196 -0.85716730853699208 0 0.51503806187062418 0.51503806187062418 0 0.85716730853699208 forward_v I I I I #
loop $-1 $-1 $381 $97 #
coedge $-1 $247 $247 $248 $382 reversed $153 $-1 #
coedge $-1 $248 $248 $247 $382 forward $155 $-1 #
coedge $-1 $249 $249 $156 $250 forward $244 $-1 #
edge $-1 $383 0 $383 6.2831853071796004 $249 $384 forward 7 unknown #
loop $-1 $-1 $256 $157 #
plane-surface $-1 -51.432233649708536 -2.2928842334827841 1.5317049027789196 -0.85716730853699208 0 0.51503806187062418 0.51503806187062418 0 0.85716730853699208 forward_v I I I I #
loop $-1 $-1 $385 $100 #
coedge $-1 $254 $254 $255 $386 reversed $158 $-1 #
coedge $-1 $255 $255 $254 $386 forward $160 $-1 #
coedge $-1 $256 $256 $161 $257 forward $251 $-1 #
edge $-1 $387 0 $387 6.2831853071796004 $256 $388 forward 7 unknown #
face $-1 $389 $390 $53 $-1 $391 forward single #
loop $-1 $-1 $392 $162 #
plane-surface $-1 -139.60429222884133 23.628228062500451 54.5108207760249 0 -1 0 0.85716730853699208 0 -0.51503806187062418 forward_v I I I I #
coedge $-1 $393 $394 $395 $396 reversed $163 $-1 #
coedge $-1 $263 $165 $397 $398 reversed $104 $-1 #
coedge $-1 $165 $262 $393 $399 reversed $104 $-1 #
coedge $-1 $395 $400 $165 $265 forward $390 $-1 #
edge $-1 $401 18.369912464712115 $402 25.648084762319826 $264 $403 forward 7 unknown #
loop $-1 $-1 $271 $166 #
plane-surface $-1 -51.432233649708536 18.33900014357387 1.5317049027789196 -0.85716730853699208 0 0.51503806187062418 0.51503806187062418 0 0.85716730853699208 forward_v I I I I #
loop $-1 $-1 $404 $106 #
coedge $-1 $269 $269 $270 $405 reversed $167 $-1 #
coedge $-1 $270 $270 $269 $405 forward $169 $-1 #
coedge $-1 $271 $271 $170 $272 forward $266 $-1 #
edge $-1 $406 0 $406 6.2831853071796004 $271 $407 forward 7 unknown #
loop $-1 $-1 $278 $171 #
plane-surface $-1 -51.432233649708536 18.33900014357387 1.5317049027789196 -0.85716730853699208 0 0.51503806187062418 0.51503806187062418 0 0.85716730853699208 forward_v I I I I #
loop $-1 $-1 $408 $109 #
coedge $-1 $276 $276 $277 $409 reversed $172 $-1 #
coedge $-1 $277 $277 $276 $409 forward $174 $-1 #
coedge $-1 $278 $278 $175 $279 forward $273 $-1 #
edge $-1 $410 0 $410 6.2831853071796004 $278 $411 forward 7 unknown #
face $-1 $412 $413 $42 $-1 $414 reversed single #
loop $-1 $-1 $415 $176 #
plane-surface $-1 -51.43223364970855 0 0 1 0 0 0 0 -1 forward_v I I I I #
coedge $-1 $416 $291 $417 $418 forward $177 $-1 #
coedge $-1 $419 $179 $416 $420 forward $113 $-1 #
coedge $-1 $179 $419 $421 $422 forward $113 $-1 #
coedge $-1 $294 $293 $179 $287 reversed $295 $-1 #
edge $-1 $423 -32.843829859411187 $424 32.843829859411187 $286 $425 forward 7 unknown #
coedge $-1 $181 $180 $426 $427 forward $71 $-1 #
coedge $-1 $428 $429 $180 $290 reversed $413 $-1 #
edge $-1 $297 -51.43223364970855 $430 51.43223364970855 $289 $431 forward 7 unknown #
coedge $-1 $283 $432 $181 $292 reversed $177 $-1 #
edge $-1 $433 -51.43223364970855 $296 51.43223364970855 $291 $434 forward 7 unknown #
coedge $-1 $286 $182 $432 $435 forward $295 $-1 #
coedge $-1 $182 $286 $428 $436 reversed $295 $-1 #
loop $-1 $-1 $293 $412 #
vertex $-1 $183 $437 #
vertex $-1 $183 $438 #
straight-curve $-1 51.43223364970855 0 13.644618144084191 0 1 0 I I #
face $-1 $439 $440 $43 $-1 $441 reversed single #
loop $-1 $-1 $442 $184 #
plane-surface $-1 -51.43223364970855 0 0 1 0 0 0 0 -1 forward_v I I I I #
coedge $-1 $443 $308 $313 $444 reversed $185 $-1 #
coedge $-1 $445 $187 $446 $447 reversed $117 $-1 #
coedge $-1 $187 $445 $443 $448 forward $117 $-1 #
coedge $-1 $313 $312 $187 $306 forward $314 $-1 #
edge $-1 $449 -20.433443907228366 $450 -4.3873279971372767 $305 $451 forward 7 unknown #
coedge $-1 $189 $188 $442 $452 reversed $74 $-1 #
coedge $-1 $302 $453 $188 $309 reversed $185 $-1 #
edge $-1 $315 -51.43223364970855 $454 51.43223364970855 $308 $455 forward 7 unknown #
coedge $-1 $456 $457 $189 $311 forward $440 $-1 #
edge $-1 $316 -51.43223364970855 $458 51.43223364970855 $310 $459 forward 7 unknown #
coedge $-1 $305 $190 $457 $460 forward $314 $-1 #
coedge $-1 $190 $305 $302 $444 forward $314 $-1 #
loop $-1 $-1 $190 $439 #
vertex $-1 $191 $461 #
vertex $-1 $460 $462 #
straight-curve $-1 51.43223364970855 -12.410385952182821 4.070558138532788 0 -1 0 I I #
face $-1 $-1 $330 $44 $-1 $463 reversed single #
loop $-1 $-1 $464 $192 #
plane-surface $-1 0 0 13.644618144084191 0 0 1 1 0 0 forward_v I I I I #
coedge $-1 $465 $466 $467 $468 reversed $193 $-1 #
coedge $-1 $469 $195 $197 $328 forward $121 $-1 #
coedge $-1 $195 $469 $465 $470 forward $121 $-1 #
coedge $-1 $467 $198 $195 $325 forward $330 $-1 #
edge $-1 $332 -6.4356700356679735 $471 4.1427858021851893 $324 $472 forward 7 unknown #
coedge $-1 $473 $474 $196 $327 forward $319 $-1 #
edge $-1 $475 0.84147317430316804 $331 8.1196454719108786 $326 $476 forward 7 unknown #
edge $-1 $332 -102.86446729941714 $475 -88.733138303705061 $197 $477 forward 7 unknown #
coedge $-1 $198 $467 $473 $478 reversed $330 $-1 #
loop $-1 $-1 $467 $318 #
vertex $-1 $478 $479 #
vertex $-1 $199 $480 #
straight-curve $-1 51.43223364970855 -7.5821121524093655 71.341439677578848 0 0 -1 I I #
coedge $-1 $334 $334 $-1 $481 reversed $202 $-1 #
edge $-1 $482 0 $482 6.2831853071796004 $203 $483 forward 7 unknown #
vertex $-1 $206 $484 #
ellipse-curve $-1 47.793147500904681 -4.5596961987370328 7.5881615234315607 0.85716730853699208 0 0.51503806187062418 0.51503806187062418 0 -0.85716730853699208 1 I I #
coedge $-1 $338 $338 $-1 $485 reversed $209 $-1 #
edge $-1 $486 0 $486 6.2831853071796004 $210 $487 forward 7 unknown #
vertex $-1 $213 $488 #
ellipse-curve $-1 47.793147500904681 -0.026072268228531925 7.5881615234315607 0.85716730853699208 0 0.51503806187062418 0.51503806187062418 0 -0.85716730853699208 1 I I #
face $-1 $-1 $489 $47 $-1 $490 forward single #
loop $-1 $-1 $220 $214 #
plane-surface $-1 51.43223364970855 0 0 -1 0 0 0 0 1 forward_v I I I I #
coedge $-1 $491 $492 $493 $494 reversed $215 $-1 #
coedge $-1 $495 $217 $219 $352 forward $135 $-1 #
coedge $-1 $217 $495 $491 $496 forward $135 $-1 #
coedge $-1 $493 $220 $217 $349 forward $343 $-1 #
edge $-1 $355 3.8802721528603534 $497 14.458727990713516 $348 $498 forward 7 unknown #
coedge $-1 $499 $500 $218 $351 forward $489 $-1 #
edge $-1 $501 0.84147317430316804 $354 8.1196454719108786 $350 $502 forward 7 unknown #
edge $-1 $355 -102.86446729941714 $501 -88.733138303705061 $219 $503 forward 7 unknown #
coedge $-1 $220 $493 $499 $504 reversed $343 $-1 #
vertex $-1 $504 $505 #
vertex $-1 $221 $506 #
straight-curve $-1 51.43223364970855 13.049772224647288 71.341439677578848 0 0 -1 I I #
coedge $-1 $357 $357 $-1 $507 reversed $224 $-1 #
edge $-1 $508 0 $508 6.2831853071796004 $225 $509 forward 7 unknown #
vertex $-1 $228 $510 #
ellipse-curve $-1 47.793147500904681 16.072188178319621 7.5881615234315607 0.85716730853699208 0 0.51503806187062418 0.51503806187062418 0 -0.85716730853699208 1 I I #
coedge $-1 $361 $361 $-1 $511 reversed $231 $-1 #
edge $-1 $512 0 $512 6.2831853071796004 $232 $513 forward 7 unknown #
vertex $-1 $235 $514 #
ellipse-curve $-1 47.793147500904681 20.605812108828118 7.5881615234315607 0.85716730853699208 0 0.51503806187062418 0.51503806187062418 0 -0.85716730853699208 1 I I #
face $-1 $-1 $377 $50 $-1 $515 forward single #
loop $-1 $-1 $516 $236 #
plane-surface $-1 -51.43223364970855 0 0 1 0 0 0 0 -1 forward_v I I I I #
coedge $-1 $517 $518 $519 $520 reversed $237 $-1 #
coedge $-1 $521 $239 $241 $375 forward $149 $-1 #
coedge $-1 $239 $521 $517 $522 forward $149 $-1 #
coedge $-1 $519 $242 $239 $372 forward $377 $-1 #
edge $-1 $379 -6.4356700356679735 $523 4.1427858021851893 $371 $524 forward 7 unknown #
coedge $-1 $525 $526 $240 $374 forward $366 $-1 #
edge $-1 $527 -25.723705485233555 $378 -13.610792243928259 $373 $528 forward 7 unknown #
edge $-1 $379 -14.131328995712073 $527 2.7684374342568793e-014 $241 $529 forward 7 unknown #
coedge $-1 $242 $519 $525 $530 forward $377 $-1 #
loop $-1 $-1 $519 $365 #
vertex $-1 $374 $531 #
vertex $-1 $243 $532 #
straight-curve $-1 -69.802146114420665 -7.5821121524093655 13.644618144084191 1 0 0 I I #
coedge $-1 $381 $381 $-1 $533 reversed $246 $-1 #
edge $-1 $534 0 $534 6.2831853071796004 $247 $535 forward 7 unknown #
vertex $-1 $250 $536 #
ellipse-curve $-1 -47.793147500904688 -4.5596961987370328 7.58816152343155 -0.85716730853699208 0 0.51503806187062418 0.51503806187062418 0 0.85716730853699208 1 I I #
coedge $-1 $385 $385 $-1 $537 reversed $253 $-1 #
edge $-1 $538 0 $538 6.2831853071796004 $254 $539 forward 7 unknown #
vertex $-1 $257 $540 #
ellipse-curve $-1 -47.793147500904688 -0.026072268228531925 7.58816152343155 -0.85716730853699208 0 0.51503806187062418 0.51503806187062418 0 0.85716730853699208 1 I I #
face $-1 $-1 $541 $53 $-1 $542 reversed single #
loop $-1 $-1 $264 $258 #
plane-surface $-1 0 0 13.644618144084191 0 0 1 1 0 0 forward_v I I I I #
coedge $-1 $543 $544 $545 $546 reversed $259 $-1 #
coedge $-1 $547 $261 $263 $399 forward $163 $-1 #
coedge $-1 $261 $547 $543 $548 forward $163 $-1 #
coedge $-1 $545 $264 $261 $396 forward $390 $-1 #
edge $-1 $402 3.8802721528603534 $549 14.458727990713516 $395 $550 forward 7 unknown #
coedge $-1 $551 $552 $262 $398 forward $541 $-1 #
edge $-1 $553 -25.723705485233555 $401 -13.610792243928259 $397 $554 forward 7 unknown #
edge $-1 $402 -14.131328995712073 $553 2.7684374342568793e-014 $263 $555 forward 7 unknown #
coedge $-1 $264 $545 $551 $556 forward $390 $-1 #
vertex $-1 $265 $557 #
vertex $-1 $265 $558 #
straight-curve $-1 -69.802146114420665 13.049772224647288 13.644618144084191 1 0 0 I I #
coedge $-1 $404 $404 $-1 $559 reversed $268 $-1 #
edge $-1 $560 0 $560 6.2831853071796004 $269 $561 forward 7 unknown #
vertex $-1 $272 $562 #
ellipse-curve $-1 -47.793147500904688 16.072188178319621 7.58816152343155 -0.85716730853699208 0 0.51503806187062418 0.51503806187062418 0 0.85716730853699208 1 I I #
coedge $-1 $408 $408 $-1 $563 reversed $275 $-1 #
edge $-1 $564 0 $564 6.2831853071796004 $276 $565 forward 7 unknown #
vertex $-1 $279 $566 #
ellipse-curve $-1 -47.793147500904688 20.605812108828118 7.58816152343155 -0.85716730853699208 0 0.51503806187062418 0.51503806187062418 0 0.85716730853699208 1 I I #
face $-1 $-1 $295 $42 $-1 $567 reversed single #
loop $-1 $-1 $428 $280 #
plane-surface $-1 0 32.843829859411187 0 0 -1 0 0 0 -1 forward_v I I I I #
coedge $-1 $568 $426 $429 $569 forward $281 $-1 #
coedge $-1 $432 $283 $284 $420 reversed $177 $-1 #
coedge $-1 $426 $568 $283 $418 reversed $281 $-1 #
edge $-1 $433 -13.644618144084191 $570 13.644618144084191 $417 $571 forward 7 unknown #
coedge $-1 $285 $284 $568 $572 forward $113 $-1 #
edge $-1 $424 -51.43223364970855 $570 51.43223364970855 $416 $573 forward 7 unknown #
coedge $-1 $429 $428 $285 $422 reversed $413 $-1 #
edge $-1 $574 -51.43223364970855 $423 51.43223364970855 $421 $575 forward 7 unknown #
vertex $-1 $287 $576 #
vertex $-1 $435 $577 #
straight-curve $-1 51.43223364970855 0 -13.644618144084191 0 -1 0 I I #
coedge $-1 $415 $417 $288 $427 reversed $281 $-1 #
edge $-1 $430 -32.843829859411187 $433 32.843829859411187 $426 $578 forward 7 unknown #
coedge $-1 $421 $289 $294 $436 forward $413 $-1 #
coedge $-1 $289 $421 $415 $569 reversed $413 $-1 #
vertex $-1 $290 $579 #
straight-curve $-1 0 32.843829859411187 13.644618144084191 -1 0 0 I I #
coedge $-1 $291 $416 $293 $435 reversed $177 $-1 #
vertex $-1 $427 $580 #
straight-curve $-1 0 -32.843829859411187 13.644618144084191 1 0 0 I I #
edge $-1 $296 -13.644618144084191 $424 13.644618144084191 $293 $581 forward 7 unknown #
edge $-1 $297 -13.644618144084191 $423 13.644618144084191 $294 $582 forward 7 unknown #
point $-1 51.43223364970855 -32.843829859411187 13.644618144084191 #
point $-1 51.43223364970855 32.843829859411187 13.644618144084191 #
face $-1 $-1 $314 $43 $-1 $583 reversed single #
loop $-1 $-1 $310 $299 #
plane-surface $-1 0 -32.843829859411187 0 0 1 0 0 0 1 forward_v I I I I #
coedge $-1 $584 $585 $307 $452 forward $300 $-1 #
coedge $-1 $453 $302 $304 $448 reversed $185 $-1 #
edge $-1 $450 -2.5576150776771209 $315 3.5662437849142323 $313 $586 forward 7 unknown #
coedge $-1 $304 $303 $587 $588 reversed $117 $-1 #
coedge $-1 $457 $456 $303 $447 forward $440 $-1 #
edge $-1 $589 -51.43223364970855 $449 51.43223364970855 $446 $590 forward 7 unknown #
edge $-1 $591 -51.43223364970855 $450 51.43223364970855 $443 $592 forward 7 unknown #
vertex $-1 $447 $593 #
vertex $-1 $306 $594 #
straight-curve $-1 51.43223364970855 -12.410385952182821 -2.0533007240585652 0 1 0 I I #
edge $-1 $458 -20.433443907228366 $454 -4.3873279971372767 $442 $595 forward 7 unknown #
coedge $-1 $308 $443 $584 $596 reversed $185 $-1 #
vertex $-1 $452 $597 #
straight-curve $-1 0 -16.797713949320098 4.070558138532788 -1 0 0 I I #
coedge $-1 $446 $310 $585 $598 forward $440 $-1 #
coedge $-1 $310 $446 $312 $460 reversed $440 $-1 #
vertex $-1 $598 $599 #
straight-curve $-1 0 -32.843829859411187 4.070558138532788 -1 0 0 I I #
edge $-1 $316 -4.070558138532788 $449 2.0533007240585652 $312 $600 forward 7 unknown #
point $-1 51.43223364970855 -16.797713949320098 4.070558138532788 #
point $-1 51.43223364970855 -32.843829859411187 4.070558138532788 #
plane-surface $-1 51.43223364970855 0 0 -1 0 0 0 0 1 forward_v I I I I #
coedge $-1 $474 $473 $466 $601 forward $319 $-1 #
coedge $-1 $466 $321 $323 $470 reversed $193 $-1 #
coedge $-1 $321 $465 $464 $601 reversed $193 $-1 #
coedge $-1 $329 $324 $321 $468 forward $330 $-1 #
edge $-1 $471 -69.809734774799935 $602 -57.696821533494656 $467 $603 forward 7 unknown #
coedge $-1 $323 $322 $474 $604 reversed $121 $-1 #
edge $-1 $605 88.733138303705061 $471 102.86446729941714 $465 $606 forward 7 unknown #
vertex $-1 $325 $607 #
straight-curve $-1 51.43223364970855 -1.1464421167413921 1.5317049027788983 0 1 0 I I #
coedge $-1 $464 $326 $329 $478 forward $319 $-1 #
coedge $-1 $326 $464 $469 $604 forward $319 $-1 #
vertex $-1 $327 $608 #
straight-curve $-1 43.312588177797672 -7.5821121524093655 13.644618144084191 1 0 0 I I #
straight-curve $-1 -1.5468822235374518 -7.5821121524093655 89.703763481911722 -0.51503806187062418 0 0.85716730853699208 I I #
edge $-1 $331 -7.5821121524093655 $602 2.9963436854437973 $329 $609 forward 7 unknown #
point $-1 51.43223364970855 -7.5821121524093655 13.644618144084191 #
point $-1 51.43223364970855 -7.5821121524093655 1.5317049027789125 #
edge $-1 $610 1 $610 0 $334 $-1 forward 7 unknown #
vertex $-1 $335 $611 #
ellipse-curve $-1 44.818475844797419 -4.5596961987370328 5.8007985323278879 0.85716730853699208 0 0.51503806187062418 0.51503806187062418 0 -0.85716730853699208 1 I I #
point $-1 48.308185562775321 -4.5596961987370328 6.7309942148945758 #
edge $-1 $612 1 $612 0 $338 $-1 forward 7 unknown #
vertex $-1 $339 $613 #
ellipse-curve $-1 44.818475844797419 -0.026072268228531925 5.8007985323278879 0.85716730853699208 0 0.51503806187062418 0.51503806187062418 0 -0.85716730853699208 1 I I #
point $-1 48.308185562775321 -0.026072268228531925 6.7309942148945758 #
loop $-1 $-1 $350 $342 #
plane-surface $-1 0 0 13.644618144084191 0 0 1 1 0 0 forward_v I I I I #
coedge $-1 $492 $345 $347 $496 reversed $215 $-1 #
coedge $-1 $345 $491 $614 $615 reversed $215 $-1 #
coedge $-1 $353 $348 $345 $494 forward $343 $-1 #
edge $-1 $497 -69.809734774799935 $616 -57.696821533494656 $493 $617 forward 7 unknown #
coedge $-1 $347 $346 $500 $618 reversed $135 $-1 #
edge $-1 $619 88.733138303705061 $497 102.86446729941714 $491 $620 forward 7 unknown #
vertex $-1 $349 $621 #
straight-curve $-1 51.43223364970855 9.1695000717869348 1.5317049027788983 0 1 0 I I #
coedge $-1 $614 $350 $353 $504 forward $489 $-1 #
coedge $-1 $350 $614 $495 $618 forward $489 $-1 #
vertex $-1 $351 $622 #
straight-curve $-1 43.312588177797672 13.049772224647288 13.644618144084191 1 0 0 I I #
straight-curve $-1 -1.5468822235374518 13.049772224647288 89.703763481911722 -0.51503806187062418 0 0.85716730853699208 I I #
edge $-1 $354 13.049772224647288 $616 23.628228062500451 $353 $623 forward 7 unknown #
point $-1 51.43223364970855 13.049772224647288 13.644618144084191 #
point $-1 51.43223364970855 13.049772224647288 1.5317049027789125 #
edge $-1 $624 1 $624 0 $357 $-1 forward 7 unknown #
vertex $-1 $358 $625 #
ellipse-curve $-1 44.818475844797419 16.072188178319621 5.8007985323278879 0.85716730853699208 0 0.51503806187062418 0.51503806187062418 0 -0.85716730853699208 1 I I #
point $-1 48.308185562775321 16.072188178319621 6.7309942148945758 #
edge $-1 $626 1 $626 0 $361 $-1 forward 7 unknown #
vertex $-1 $362 $627 #
ellipse-curve $-1 44.818475844797419 20.605812108828118 5.8007985323278879 0.85716730853699208 0 0.51503806187062418 0.51503806187062418 0 -0.85716730853699208 1 I I #
point $-1 48.308185562775321 20.605812108828118 6.7309942148945758 #
plane-surface $-1 0 0 13.644618144084191 0 0 1 1 0 0 forward_v I I I I #
coedge $-1 $526 $525 $518 $628 forward $366 $-1 #
coedge $-1 $518 $368 $370 $522 reversed $237 $-1 #
coedge $-1 $368 $517 $516 $628 reversed $237 $-1 #
coedge $-1 $376 $371 $368 $520 forward $377 $-1 #
edge $-1 $523 -25.648084762319826 $629 -18.369912464712115 $519 $630 forward 7 unknown #
coedge $-1 $370 $369 $526 $631 reversed $149 $-1 #
edge $-1 $632 -2.7684374342568793e-014 $523 14.131328995712073 $517 $633 forward 7 unknown #
vertex $-1 $372 $634 #
straight-curve $-1 -44.154061352100832 -1.1464421167413921 13.644618144084191 0 1 0 I I #
coedge $-1 $516 $373 $376 $530 reversed $366 $-1 #
coedge $-1 $373 $516 $521 $631 forward $366 $-1 #
vertex $-1 $374 $635 #
straight-curve $-1 -51.43223364970855 -7.5821121524093655 27.25541038801245 0 0 1 I I #
straight-curve $-1 -51.432233649708536 -7.5821121524093655 1.5317049027789196 -0.51503806187062418 0 -0.85716730853699208 I I #
edge $-1 $629 -2.9963436854437973 $378 7.5821121524093655 $525 $636 forward 7 unknown #
point $-1 -51.43223364970855 -7.5821121524093655 13.644618144084191 #
point $-1 -44.15406135210084 -7.5821121524093655 13.644618144084191 #
edge $-1 $637 1 $637 0 $381 $-1 forward 7 unknown #
vertex $-1 $382 $638 #
ellipse-curve $-1 -44.818475844797426 -4.5596961987370328 5.8007985323278772 -0.85716730853699208 0 0.51503806187062418 0.51503806187062418 0 0.85716730853699208 1 I I #
point $-1 -47.278109439034075 -4.5596961987370328 8.4453288319685491 #
edge $-1 $639 1 $639 0 $385 $-1 forward 7 unknown #
vertex $-1 $386 $640 #
ellipse-curve $-1 -44.818475844797426 -0.026072268228531925 5.8007985323278772 -0.85716730853699208 0 0.51503806187062418 0.51503806187062418 0 0.85716730853699208 1 I I #
point $-1 -47.278109439034075 -0.026072268228531925 8.4453288319685491 #
loop $-1 $-1 $397 $389 #
plane-surface $-1 -51.43223364970855 0 0 1 0 0 0 0 -1 forward_v I I I I #
coedge $-1 $544 $392 $394 $548 reversed $259 $-1 #
coedge $-1 $392 $543 $641 $642 reversed $259 $-1 #
coedge $-1 $400 $395 $392 $546 forward $390 $-1 #
edge $-1 $549 -25.648084762319826 $643 -18.369912464712115 $545 $644 forward 7 unknown #
coedge $-1 $394 $393 $552 $645 reversed $163 $-1 #
edge $-1 $646 -2.7684374342568793e-014 $549 14.131328995712073 $543 $647 forward 7 unknown #
vertex $-1 $396 $648 #
straight-curve $-1 -44.154061352100832 9.1695000717869348 13.644618144084191 0 1 0 I I #
coedge $-1 $641 $397 $400 $556 reversed $541 $-1 #
coedge $-1 $397 $641 $547 $645 forward $541 $-1 #
vertex $-1 $398 $649 #
straight-curve $-1 -51.43223364970855 13.049772224647288 27.25541038801245 0 0 1 I I #
straight-curve $-1 -51.432233649708536 13.049772224647288 1.5317049027789196 -0.51503806187062418 0 -0.85716730853699208 I I #
edge $-1 $643 -23.628228062500451 $401 -13.049772224647288 $551 $650 forward 7 unknown #
point $-1 -51.43223364970855 13.049772224647288 13.644618144084191 #
point $-1 -44.15406135210084 13.049772224647288 13.644618144084191 #
edge $-1 $651 1 $651 0 $404 $-1 forward 7 unknown #
vertex $-1 $405 $652 #
ellipse-curve $-1 -44.818475844797426 16.072188178319621 5.8007985323278772 -0.85716730853699208 0 0.51503806187062418 0.51503806187062418 0 0.85716730853699208 1 I I #
point $-1 -47.278109439034075 16.072188178319621 8.4453288319685491 #
edge $-1 $653 1 $653 0 $408 $-1 forward 7 unknown #
vertex $-1 $409 $654 #
ellipse-curve $-1 -44.818475844797426 20.605812108828118 5.8007985323278772 -0.85716730853699208 0 0.51503806187062418 0.51503806187062418 0 0.85716730853699208 1 I I #
point $-1 -47.278109439034075 20.605812108828118 8.4453288319685491 #
plane-surface $-1 51.43223364970855 0 0 -1 0 0 0 0 1 forward_v I I I I #
coedge $-1 $417 $415 $419 $572 reversed $281 $-1 #
edge $-1 $430 -13.644618144084191 $574 13.644618144084191 $429 $655 forward 7 unknown #
vertex $-1 $572 $656 #
straight-curve $-1 -51.43223364970855 -32.843829859411187 0 0 0 -1 I I #
edge $-1 $570 -32.843829859411187 $574 32.843829859411187 $568 $657 forward 7 unknown #
straight-curve $-1 0 -32.843829859411187 -13.644618144084191 -1 0 0 I I #
vertex $-1 $422 $658 #
straight-curve $-1 0 32.843829859411187 -13.644618144084191 1 0 0 I I #
point $-1 51.43223364970855 32.843829859411187 -13.644618144084191 #
point $-1 51.43223364970855 -32.843829859411187 -13.644618144084191 #
straight-curve $-1 -51.43223364970855 0 13.644618144084191 0 -1 0 I I #
point $-1 -51.43223364970855 32.843829859411187 13.644618144084191 #
point $-1 -51.43223364970855 -32.843829859411187 13.644618144084191 #
straight-curve $-1 51.43223364970855 -32.843829859411187 0 0 0 -1 I I #
straight-curve $-1 51.43223364970855 32.843829859411187 0 0 0 -1 I I #
plane-surface $-1 51.43223364970855 0 0 -1 0 0 0 0 1 forward_v I I I I #
coedge $-1 $587 $442 $453 $596 forward $300 $-1 #
coedge $-1 $442 $587 $456 $598 reversed $300 $-1 #
straight-curve $-1 51.43223364970855 -16.797713949320098 0.5043143536185557 0 0 1 I I #
coedge $-1 $585 $584 $445 $588 forward $300 $-1 #
edge $-1 $591 4.3873279971372767 $589 20.433443907228366 $587 $659 forward 7 unknown #
vertex $-1 $447 $660 #
straight-curve $-1 0 -32.843829859411187 -2.0533007240585652 1 0 0 I I #
vertex $-1 $588 $661 #
straight-curve $-1 0 -16.797713949320098 -2.0533007240585652 1 0 0 I I #
point $-1 51.43223364970855 -32.843829859411187 -2.0533007240585652 #
point $-1 51.43223364970855 -16.797713949320098 -2.0533007240585652 #
straight-curve $-1 -51.43223364970855 -12.410385952182821 4.070558138532788 0 1 0 I I #
edge $-1 $454 -3.5662437849142323 $591 2.5576150776771209 $584 $662 forward 7 unknown #
point $-1 -51.43223364970855 -16.797713949320098 4.070558138532788 #
edge $-1 $458 -4.070558138532788 $589 2.0533007240585652 $585 $663 forward 7 unknown #
point $-1 -51.43223364970855 -32.843829859411187 4.070558138532788 #
straight-curve $-1 51.43223364970855 -32.843829859411187 0 0 0 -1 I I #
edge $-1 $602 -8.1196454719108786 $605 -0.84147317430316804 $464 $664 forward 7 unknown #
vertex $-1 $601 $665 #
straight-curve $-1 51.43223364970855 2.9963436854437973 71.341439677578848 0 0 1 I I #
edge $-1 $605 -4.1427858021851893 $475 6.4356700356679735 $474 $666 forward 7 unknown #
vertex $-1 $604 $667 #
straight-curve $-1 -1.5468822235374518 2.9963436854437973 89.703763481911722 0.51503806187062418 0 -0.85716730853699208 I I #
point $-1 51.43223364970855 2.9963436854437973 1.5317049027789125 #
point $-1 44.15406135210084 -7.5821121524093655 13.644618144084191 #
straight-curve $-1 51.43223364970855 0 13.644618144084191 0 1 0 I I #
vertex $-1 $481 $668 #
point $-1 45.333513906668045 -4.5596961987370328 4.943631223790895 #
vertex $-1 $485 $669 #
point $-1 45.333513906668045 -0.026072268228531925 4.943631223790895 #
coedge $-1 $500 $499 $492 $615 forward $489 $-1 #
edge $-1 $616 -8.1196454719108786 $619 -0.84147317430316804 $614 $670 forward 7 unknown #
vertex $-1 $615 $671 #
straight-curve $-1 51.43223364970855 23.628228062500451 71.341439677578848 0 0 1 I I #
edge $-1 $619 -14.458727990713516 $501 -3.8802721528603534 $500 $672 forward 7 unknown #
vertex $-1 $618 $673 #
straight-curve $-1 -1.5468822235374518 23.628228062500451 89.703763481911722 0.51503806187062418 0 -0.85716730853699208 I I #
point $-1 51.43223364970855 23.628228062500451 1.5317049027789125 #
point $-1 44.15406135210084 13.049772224647288 13.644618144084191 #
straight-curve $-1 51.43223364970855 0 13.644618144084191 0 1 0 I I #
vertex $-1 $507 $674 #
point $-1 45.333513906668045 16.072188178319621 4.943631223790895 #
vertex $-1 $511 $675 #
point $-1 45.333513906668045 20.605812108828118 4.943631223790895 #
edge $-1 $629 13.610792243928259 $632 25.723705485233555 $516 $676 forward 7 unknown #
vertex $-1 $530 $677 #
straight-curve $-1 -69.802146114420665 2.9963436854437973 13.644618144084191 -1 0 0 I I #
edge $-1 $632 -4.1427858021851893 $527 6.4356700356679735 $526 $678 forward 7 unknown #
vertex $-1 $631 $679 #
straight-curve $-1 -51.432233649708536 2.9963436854437973 1.5317049027789196 0.51503806187062418 0 0.85716730853699208 I I #
point $-1 -44.15406135210084 2.9963436854437973 13.644618144084191 #
point $-1 -51.43223364970855 -7.5821121524093655 1.5317049027788958 #
straight-curve $-1 -51.43223364970855 0 13.644618144084191 0 -1 0 I I #
vertex $-1 $533 $680 #
point $-1 -44.303437782926807 -4.5596961987370328 6.6579658408648692 #
vertex $-1 $537 $681 #
point $-1 -44.303437782926807 -0.026072268228531925 6.6579658408648692 #
coedge $-1 $552 $551 $544 $642 forward $541 $-1 #
edge $-1 $643 13.610792243928259 $646 25.723705485233555 $641 $682 forward 7 unknown #
vertex $-1 $556 $683 #
straight-curve $-1 -69.802146114420665 23.628228062500451 13.644618144084191 -1 0 0 I I #
edge $-1 $646 -14.458727990713516 $553 -3.8802721528603534 $552 $684 forward 7 unknown #
vertex $-1 $645 $685 #
straight-curve $-1 -51.432233649708536 23.628228062500451 1.5317049027789196 0.51503806187062418 0 0.85716730853699208 I I #
point $-1 -44.15406135210084 23.628228062500451 13.644618144084191 #
point $-1 -51.43223364970855 13.049772224647288 1.5317049027788958 #
straight-curve $-1 -51.43223364970855 0 13.644618144084191 0 -1 0 I I #
vertex $-1 $559 $686 #
point $-1 -44.303437782926807 16.072188178319621 6.6579658408648692 #
vertex $-1 $563 $687 #
point $-1 -44.303437782926807 20.605812108828118 6.6579658408648692 #
straight-curve $-1 -51.43223364970855 32.843829859411187 0 0 0 -1 I I #
point $-1 -51.43223364970855 -32.843829859411187 -13.644618144084191 #
straight-curve $-1 -51.43223364970855 0 -13.644618144084191 0 1 0 I I #
point $-1 -51.43223364970855 32.843829859411187 -13.644618144084191 #
straight-curve $-1 -51.43223364970855 -12.410385952182821 -2.0533007240585652 0 -1 0 I I #
point $-1 -51.43223364970855 -32.843829859411187 -2.0533007240585652 #
point $-1 -51.43223364970855 -16.797713949320098 -2.0533007240585652 #
straight-curve $-1 -51.43223364970855 -16.797713949320098 0.5043143536185557 0 0 -1 I I #
straight-curve $-1 -51.43223364970855 -32.843829859411187 0 0 0 -1 I I #
straight-curve $-1 43.312588177797672 2.9963436854437973 13.644618144084191 -1 0 0 I I #
point $-1 51.43223364970855 2.9963436854437973 13.644618144084191 #
straight-curve $-1 44.15406135210084 -1.1464421167413921 13.644618144084191 0 -1 0 I I #
point $-1 44.15406135210084 2.9963436854437973 13.644618144084191 #
point $-1 43.961308536260432 -4.5596961987370328 5.2857604704572632 #
point $-1 43.961308536260432 -0.026072268228531925 5.2857604704572632 #
straight-curve $-1 43.312588177797672 23.628228062500451 13.644618144084191 -1 0 0 I I #
point $-1 51.43223364970855 23.628228062500451 13.644618144084191 #
straight-curve $-1 44.15406135210084 9.1695000717869348 13.644618144084191 0 -1 0 I I #
point $-1 44.15406135210084 23.628228062500451 13.644618144084191 #
point $-1 43.961308536260432 16.072188178319621 5.2857604704572632 #
point $-1 43.961308536260432 20.605812108828118 5.2857604704572632 #
straight-curve $-1 -51.43223364970855 2.9963436854437973 27.25541038801245 0 0 -1 I I #
point $-1 -51.43223364970855 2.9963436854437973 13.644618144084191 #
straight-curve $-1 -51.43223364970855 -1.1464421167413921 1.531704902778896 0 -1 0 I I #
point $-1 -51.43223364970855 2.9963436854437973 1.5317049027788958 #
point $-1 -43.961308536260439 -4.5596961987370328 5.2857604704572525 #
point $-1 -43.961308536260439 -0.026072268228531925 5.2857604704572525 #
straight-curve $-1 -51.43223364970855 23.628228062500451 27.25541038801245 0 0 -1 I I #
point $-1 -51.43223364970855 23.628228062500451 13.644618144084191 #
straight-curve $-1 -51.43223364970855 9.1695000717869348 1.531704902778896 0 -1 0 I I #
point $-1 -51.43223364970855 23.628228062500451 1.5317049027788958 #
point $-1 -43.961308536260439 16.072188178319621 5.2857604704572525 #
point $-1 -43.961308536260439 20.605812108828118 5.2857604704572525 #
End-of-ACIS-data 