500 0 9 0           
7 Unknown 11 ACIS 5.0 NT 24 Thu Mar 25 22:23:09 1999 
-1 9.9999999999999995e-007 1e-010 
body $-1 $9 $-1 $10 #
body $-1 $11 $-1 $12 #
body $-1 $13 $-1 $14 #
body $-1 $15 $-1 $16 #
body $-1 $17 $-1 $18 #
body $-1 $19 $-1 $20 #
body $-1 $21 $-1 $22 #
body $-1 $23 $-1 $24 #
body $-1 $25 $-1 $26 #
lump $-1 $-1 $27 $0 #
transform $-1 1 0 0 0 1 0 0 0 1 73.370159001434374 30.042647276901914 9.9833788080691512 1 rotate no_reflect no_shear #
lump $-1 $-1 $28 $1 #
transform $-1 1 0 0 0 1 0 0 0 1 73.370159001434374 30.042647276901914 9.9833788080691512 1 rotate no_reflect no_shear #
lump $-1 $-1 $29 $2 #
transform $-1 1 0 0 0 1 0 0 0 1 73.370159001434374 30.042647276901914 9.9833788080691512 1 rotate no_reflect no_shear #
lump $-1 $-1 $30 $3 #
transform $-1 1 0 0 0 1 0 0 0 1 73.370159001434374 30.042647276901914 9.9833788080691512 1 rotate no_reflect no_shear #
lump $-1 $-1 $31 $4 #
transform $-1 1 0 0 0 1 0 0 0 1 73.370159001434374 30.042647276901914 9.9833788080691512 1 rotate no_reflect no_shear #
lump $-1 $-1 $32 $5 #
transform $-1 1 0 0 0 1 0 0 0 1 73.370159001434374 30.042647276901914 9.9833788080691512 1 rotate no_reflect no_shear #
lump $-1 $-1 $33 $6 #
transform $-1 1 0 0 0 1 0 0 0 1 73.370159001434374 30.042647276901914 9.9833788080691512 1 rotate no_reflect no_shear #
lump $-1 $-1 $34 $7 #
transform $-1 1 0 0 0 1 0 0 0 1 73.370159001434374 30.042647276901914 9.9833788080691512 1 rotate no_reflect no_shear #
lump $-1 $-1 $35 $8 #
transform $-1 1 0 0 0 1 0 0 0 1 73.370159001434374 30.042647276901914 9.9833788080691512 1 rotate no_reflect no_shear #
shell $-1 $-1 $-1 $36 $-1 $9 #
shell $-1 $-1 $-1 $37 $-1 $11 #
shell $-1 $-1 $-1 $38 $-1 $13 #
shell $-1 $-1 $-1 $39 $-1 $15 #
shell $-1 $-1 $-1 $40 $-1 $17 #
shell $-1 $-1 $-1 $41 $-1 $19 #
shell $-1 $-1 $-1 $42 $-1 $21 #
shell $-1 $-1 $-1 $43 $-1 $23 #
shell $-1 $-1 $-1 $44 $-1 $25 #
face $-1 $45 $46 $27 $-1 $47 forward single #
face $-1 $48 $49 $28 $-1 $50 reversed single #
face $-1 $51 $52 $29 $-1 $53 forward single #
face $-1 $54 $55 $30 $-1 $56 reversed single #
face $-1 $57 $58 $31 $-1 $59 forward single #
face $-1 $60 $61 $32 $-1 $62 reversed single #
face $-1 $63 $64 $33 $-1 $65 forward single #
face $-1 $66 $67 $34 $-1 $68 reversed single #
face $-1 $69 $70 $35 $-1 $71 forward single #
face $-1 $72 $73 $27 $-1 $74 reversed single #
loop $-1 $-1 $75 $36 #
plane-surface $-1 0 0 9.9833788080691512 0 0 1 1 0 0 forward_v I I I I #
face $-1 $76 $77 $28 $-1 $78 reversed single #
loop $-1 $-1 $79 $37 #
plane-surface $-1 -30.861055831698636 67.684419139381603 160.45019976212441 1 0 0 0 -0.5877852598018023 -0.80901698891910034 forward_v I I I I #
face $-1 $80 $81 $29 $-1 $82 forward single #
loop $-1 $83 $84 $38 #
cone-surface $-1 -15.430527915849318 26.358848136443754 6.5077562503655297 0 -0.5877852598018023 -0.80901698891910034 1.5 0 0 1 I I 0 1 1.5 forward I I I I #
face $-1 $85 $86 $30 $-1 $87 reversed single #
loop $-1 $-1 $88 $39 #
plane-surface $-1 -15.430527915849318 -18.567376801333694 41.734789538412286 0 0.5877852598018023 0.80901698891910034 1 0 0 forward_v I I I I #
face $-1 $89 $90 $31 $-1 $91 forward single #
loop $-1 $92 $93 $40 #
cone-surface $-1 15.430527915849311 26.358848136443754 6.5077562503655297 0 -0.5877852598018023 -0.80901698891910034 1.5 0 0 1 I I 0 1 1.5 forward I I I I #
face $-1 $94 $95 $32 $-1 $96 reversed single #
loop $-1 $-1 $97 $41 #
plane-surface $-1 0 -116.2944432176172 125.132949292549 -1 0 0 0 -0.5877852598018023 0.80901698891910034 forward_v I I I I #
face $-1 $98 $99 $33 $-1 $100 forward single #
loop $-1 $101 $102 $42 #
cone-surface $-1 -15.430527915849318 -26.358848136443758 6.5077562503655244 0 0.5877852598018023 -0.80901698891910034 1.5 0 0 1 I I 0 1 1.5 forward I I I I #
face $-1 $103 $104 $34 $-1 $105 reversed single #
loop $-1 $-1 $106 $43 #
plane-surface $-1 30.861055831698629 -116.2944432176172 125.132949292549 -1 0 0 0 -0.5877852598018023 0.80901698891910034 forward_v I I I I #
face $-1 $107 $108 $35 $-1 $109 forward single #
loop $-1 $110 $111 $44 #
cone-surface $-1 15.430527915849311 -26.358848136443758 6.5077562503655244 0 0.5877852598018023 -0.80901698891910034 1.5 0 0 1 I I 0 1 1.5 forward I I I I #
face $-1 $112 $113 $27 $-1 $114 reversed single #
loop $-1 $-1 $115 $45 #
plane-surface $-1 0 0 -9.9833788080691512 0 0 1 1 0 0 forward_v I I I I #
coedge $-1 $116 $117 $118 $119 forward $46 $-1 #
face $-1 $120 $121 $28 $-1 $122 reversed single #
loop $-1 $-1 $123 $48 #
plane-surface $-1 -15.430527915849318 -18.567376801333694 41.734789538412286 0 0.5877852598018023 0.80901698891910034 1 0 0 forward_v I I I I #
coedge $-1 $124 $125 $126 $127 reversed $49 $-1 #
face $-1 $-1 $128 $29 $-1 $129 forward single #
loop $-1 $130 $131 $51 #
cone-surface $-1 -15.430527915849318 24.688188677422449 4.2082908205887115 0 -0.5877852598018023 -0.80901698891910034 0.75 0 0 1 I I -0.70710678118654757 0.70710678118654757 0.75 forward I I I I #
loop $-1 $-1 $132 $38 #
coedge $-1 $84 $84 $133 $134 reversed $52 $-1 #
face $-1 $135 $136 $30 $-1 $137 forward single #
loop $-1 $-1 $138 $54 #
plane-surface $-1 30.861055831698629 67.684419139381603 160.45019976212441 -1 0 0 0 0.5877852598018023 0.80901698891910034 forward_v I I I I #
coedge $-1 $139 $140 $141 $142 reversed $55 $-1 #
face $-1 $-1 $143 $31 $-1 $144 forward single #
loop $-1 $145 $146 $57 #
cone-surface $-1 15.430527915849311 24.688188677422449 4.2082908205887115 0 -0.5877852598018023 -0.80901698891910034 0.75 0 0 1 I I -0.70710678118654757 0.70710678118654757 0.75 forward I I I I #
loop $-1 $-1 $147 $40 #
coedge $-1 $93 $93 $148 $149 reversed $58 $-1 #
face $-1 $150 $151 $32 $-1 $152 reversed single #
loop $-1 $-1 $153 $60 #
plane-surface $-1 -15.430527915849318 -30.042647276901903 6.4175390688368736 0 -0.5877852598018023 0.80901698891910034 1 0 0 forward_v I I I I #
coedge $-1 $154 $155 $156 $157 reversed $61 $-1 #
face $-1 $-1 $158 $33 $-1 $159 forward single #
loop $-1 $160 $161 $63 #
cone-surface $-1 -15.430527915849318 -24.688188677422453 4.2082908205887062 0 0.5877852598018023 -0.80901698891910034 0.75 0 0 1 I I -0.70710678118654757 0.70710678118654757 0.75 forward I I I I #
loop $-1 $-1 $162 $42 #
coedge $-1 $102 $102 $163 $164 reversed $64 $-1 #
face $-1 $165 $166 $34 $-1 $167 reversed single #
loop $-1 $-1 $168 $66 #
plane-surface $-1 -15.430527915849318 -30.042647276901903 6.4175390688368736 0 -0.5877852598018023 0.80901698891910034 1 0 0 forward_v I I I I #
coedge $-1 $169 $170 $171 $172 reversed $67 $-1 #
face $-1 $-1 $173 $35 $-1 $174 forward single #
loop $-1 $175 $176 $69 #
cone-surface $-1 15.430527915849311 -24.688188677422453 4.2082908205887062 0 0.5877852598018023 -0.80901698891910034 0.75 0 0 1 I I -0.70710678118654757 0.70710678118654757 0.75 forward I I I I #
loop $-1 $-1 $177 $44 #
coedge $-1 $111 $111 $178 $179 reversed $70 $-1 #
face $-1 $180 $181 $27 $-1 $182 reversed single #
loop $-1 $-1 $183 $72 #
plane-surface $-1 0 -30.042647276901914 0 0 1 0 0 0 1 forward_v I I I I #
coedge $-1 $184 $185 $186 $187 forward $73 $-1 #
coedge $-1 $188 $75 $189 $190 forward $46 $-1 #
coedge $-1 $75 $188 $191 $192 forward $46 $-1 #
coedge $-1 $193 $194 $75 $119 reversed $195 $-1 #
edge $-1 $196 -30.042647276901914 $197 30.042647276901914 $118 $198 forward 7 unknown #
face $-1 $199 $200 $28 $-1 $201 reversed single #
loop $-1 $-1 $202 $76 #
plane-surface $-1 0 67.684419139381603 160.45019976212441 -1 0 0 0 0.5877852598018023 0.80901698891910034 forward_v I I I I #
coedge $-1 $203 $204 $205 $206 reversed $77 $-1 #
coedge $-1 $125 $79 $207 $208 reversed $49 $-1 #
coedge $-1 $79 $124 $203 $209 reversed $49 $-1 #
coedge $-1 $205 $210 $79 $127 forward $211 $-1 #
edge $-1 $212 3.7995622927888881 $213 8.7075195453653009 $126 $214 forward 7 unknown #
loop $-1 $-1 $133 $80 #
plane-surface $-1 -15.430527915849318 -18.567376801333694 41.734789538412286 0 0.5877852598018023 0.80901698891910034 1 0 0 forward_v I I I I #
loop $-1 $-1 $215 $51 #
coedge $-1 $131 $131 $132 $216 reversed $81 $-1 #
coedge $-1 $132 $132 $131 $216 forward $83 $-1 #
coedge $-1 $133 $133 $84 $134 forward $128 $-1 #
edge $-1 $217 3.5188640939455945e-016 $217 6.2831853071796004 $133 $218 forward 7 unknown #
face $-1 $219 $220 $30 $-1 $221 forward single #
loop $-1 $-1 $222 $85 #
plane-surface $-1 0 0 9.9833788080691512 0 0 1 1 0 0 forward_v I I I I #
coedge $-1 $223 $224 $225 $226 reversed $86 $-1 #
coedge $-1 $227 $88 $228 $229 reversed $55 $-1 #
coedge $-1 $88 $227 $222 $230 reversed $55 $-1 #
coedge $-1 $231 $232 $88 $142 forward $220 $-1 #
edge $-1 $233 -60.085294553803848 $234 -54.018725718044578 $141 $235 forward 7 unknown #
loop $-1 $-1 $148 $89 #
plane-surface $-1 -15.430527915849318 -18.567376801333694 41.734789538412286 0 0.5877852598018023 0.80901698891910034 1 0 0 forward_v I I I I #
loop $-1 $-1 $236 $57 #
coedge $-1 $146 $146 $147 $237 reversed $90 $-1 #
coedge $-1 $147 $147 $146 $237 forward $92 $-1 #
coedge $-1 $148 $148 $93 $149 forward $143 $-1 #
edge $-1 $238 3.5188640939455945e-016 $238 6.2831853071796004 $148 $239 forward 7 unknown #
face $-1 $240 $241 $32 $-1 $242 reversed single #
loop $-1 $-1 $243 $94 #
plane-surface $-1 -30.861055831698636 -116.2944432176172 125.132949292549 1 0 0 0 0.5877852598018023 -0.80901698891910034 forward_v I I I I #
coedge $-1 $244 $245 $246 $247 reversed $95 $-1 #
coedge $-1 $155 $97 $248 $249 reversed $61 $-1 #
coedge $-1 $97 $154 $244 $250 reversed $61 $-1 #
coedge $-1 $246 $251 $97 $157 forward $252 $-1 #
edge $-1 $253 28.104574331906687 $254 33.012531584483114 $156 $255 forward 7 unknown #
loop $-1 $-1 $163 $98 #
plane-surface $-1 -15.430527915849318 -30.042647276901903 6.4175390688368736 0 -0.5877852598018023 0.80901698891910034 1 0 0 forward_v I I I I #
loop $-1 $-1 $256 $63 #
coedge $-1 $161 $161 $162 $257 reversed $99 $-1 #
coedge $-1 $162 $162 $161 $257 forward $101 $-1 #
coedge $-1 $163 $163 $102 $164 forward $158 $-1 #
edge $-1 $258 3.4419116817049722e-016 $258 6.2831853071796004 $163 $259 forward 7 unknown #
face $-1 $260 $261 $34 $-1 $262 forward single #
loop $-1 $-1 $263 $103 #
plane-surface $-1 0 -30.042647276901914 0 0 1 0 0 0 1 forward_v I I I I #
coedge $-1 $264 $265 $266 $267 reversed $104 $-1 #
coedge $-1 $170 $106 $268 $269 reversed $67 $-1 #
coedge $-1 $106 $169 $270 $271 reversed $67 $-1 #
coedge $-1 $272 $263 $106 $172 forward $166 $-1 #
edge $-1 $273 -56.148935577437634 $274 -52.583095838205352 $171 $275 forward 7 unknown #
loop $-1 $-1 $178 $107 #
plane-surface $-1 -15.430527915849318 -30.042647276901903 6.4175390688368736 0 -0.5877852598018023 0.80901698891910034 1 0 0 forward_v I I I I #
loop $-1 $-1 $276 $69 #
coedge $-1 $176 $176 $177 $277 reversed $108 $-1 #
coedge $-1 $177 $177 $176 $277 forward $110 $-1 #
coedge $-1 $178 $178 $111 $179 forward $173 $-1 #
edge $-1 $278 3.4419116817049722e-016 $278 6.2831853071796004 $178 $279 forward 7 unknown #
face $-1 $280 $281 $27 $-1 $282 reversed single #
loop $-1 $-1 $283 $112 #
plane-surface $-1 -73.370159001434374 0 0 1 0 0 0 0 -1 forward_v I I I I #
coedge $-1 $284 $191 $285 $286 forward $113 $-1 #
coedge $-1 $287 $115 $284 $288 forward $73 $-1 #
coedge $-1 $115 $287 $289 $290 forward $73 $-1 #
coedge $-1 $194 $193 $115 $187 reversed $195 $-1 #
edge $-1 $291 -30.042647276901914 $292 30.042647276901914 $186 $293 forward 7 unknown #
coedge $-1 $117 $116 $294 $295 forward $46 $-1 #
coedge $-1 $296 $297 $116 $190 reversed $281 $-1 #
edge $-1 $197 -73.370159001434374 $298 73.370159001434374 $189 $299 forward 7 unknown #
coedge $-1 $183 $300 $117 $192 reversed $113 $-1 #
edge $-1 $301 -73.370159001434374 $196 73.370159001434374 $191 $302 forward 7 unknown #
coedge $-1 $186 $118 $300 $303 forward $195 $-1 #
coedge $-1 $118 $186 $296 $304 reversed $195 $-1 #
loop $-1 $-1 $193 $280 #
vertex $-1 $119 $305 #
vertex $-1 $119 $306 #
straight-curve $-1 73.370159001434374 0 9.9833788080691512 0 1 0 I I #
face $-1 $-1 $211 $28 $-1 $307 forward single #
loop $-1 $-1 $308 $120 #
plane-surface $-1 0 30.042647276901914 0 0 -1 0 0 0 -1 forward_v I I I I #
coedge $-1 $309 $310 $311 $312 reversed $121 $-1 #
coedge $-1 $313 $123 $125 $209 forward $77 $-1 #
coedge $-1 $123 $313 $309 $314 forward $77 $-1 #
coedge $-1 $311 $126 $123 $206 forward $211 $-1 #
edge $-1 $213 -23.145791873773977 $315 7.7152639579246589 $205 $316 forward 7 unknown #
coedge $-1 $317 $318 $124 $208 forward $200 $-1 #
edge $-1 $319 -73.807560812225333 $212 -70.241721072993059 $207 $320 forward 7 unknown #
edge $-1 $213 54.018725718044578 $319 60.085294553803848 $125 $321 forward 7 unknown #
coedge $-1 $126 $311 $317 $322 forward $211 $-1 #
loop $-1 $-1 $311 $199 #
vertex $-1 $208 $323 #
vertex $-1 $127 $324 #
straight-curve $-1 -30.861055831698636 33.842209569690802 9.9833788080691477 0 -1 0 I I #
coedge $-1 $215 $215 $-1 $325 reversed $130 $-1 #
edge $-1 $326 0 $326 6.2831853071796004 $131 $327 forward 7 unknown #
vertex $-1 $134 $328 #
ellipse-curve $-1 -15.430527915849318 27.588668650613702 8.200458938453016 0 0.5877852598018023 0.80901698891910034 1.5 0 0 1 I I #
face $-1 $-1 $329 $30 $-1 $330 reversed single #
loop $-1 $-1 $231 $135 #
plane-surface $-1 0 67.684419139381603 160.45019976212441 -1 0 0 0 0.5877852598018023 0.80901698891910034 forward_v I I I I #
coedge $-1 $225 $331 $140 $230 forward $136 $-1 #
coedge $-1 $224 $138 $227 $332 reversed $86 $-1 #
coedge $-1 $138 $223 $333 $334 reversed $86 $-1 #
coedge $-1 $335 $222 $138 $226 forward $136 $-1 #
edge $-1 $336 -8.7075195453653009 $337 -3.7995622927888881 $225 $338 forward 7 unknown #
coedge $-1 $140 $139 $223 $332 forward $55 $-1 #
coedge $-1 $339 $333 $139 $229 forward $329 $-1 #
edge $-1 $340 -38.576319789623284 $233 -7.7152639579246589 $228 $341 forward 7 unknown #
edge $-1 $234 7.7152639579246589 $336 38.576319789623284 $222 $342 forward 7 unknown #
coedge $-1 $232 $141 $331 $343 reversed $220 $-1 #
coedge $-1 $141 $231 $339 $344 reversed $220 $-1 #
vertex $-1 $229 $345 #
vertex $-1 $230 $346 #
straight-curve $-1 0 -18.567376801333694 41.734789538412286 0 -0.80901698891910034 0.5877852598018023 I I #
coedge $-1 $236 $236 $-1 $347 reversed $145 $-1 #
edge $-1 $348 0 $348 6.2831853071796004 $146 $349 forward 7 unknown #
vertex $-1 $149 $350 #
ellipse-curve $-1 15.430527915849311 27.588668650613702 8.200458938453016 0 0.5877852598018023 0.80901698891910034 1.5 0 0 1 I I #
face $-1 $-1 $252 $32 $-1 $351 forward single #
loop $-1 $-1 $352 $150 #
plane-surface $-1 0 -30.042647276901914 0 0 1 0 0 0 1 forward_v I I I I #
coedge $-1 $353 $354 $355 $356 reversed $151 $-1 #
coedge $-1 $357 $153 $155 $250 forward $95 $-1 #
coedge $-1 $153 $357 $353 $358 forward $95 $-1 #
coedge $-1 $355 $156 $153 $247 forward $252 $-1 #
edge $-1 $254 -7.7152639579246589 $359 23.145791873773977 $246 $360 forward 7 unknown #
coedge $-1 $361 $362 $154 $249 forward $241 $-1 #
edge $-1 $363 -56.148935577437634 $253 -52.583095838205352 $248 $364 forward 7 unknown #
edge $-1 $254 -6.0665688357592646 $363 1.3321140817308776e-014 $155 $365 forward 7 unknown #
coedge $-1 $156 $355 $361 $366 forward $252 $-1 #
loop $-1 $-1 $355 $240 #
vertex $-1 $249 $367 #
vertex $-1 $157 $368 #
straight-curve $-1 0 -58.1472216088086 9.9833788080691477 0 1 0 I I #
coedge $-1 $256 $256 $-1 $369 reversed $160 $-1 #
edge $-1 $370 0 $370 6.2831853071796004 $161 $371 forward 7 unknown #
vertex $-1 $164 $372 #
ellipse-curve $-1 -15.430527915849318 -27.588668650613705 8.2004589384530071 0 -0.5877852598018023 0.80901698891910034 1.5 0 0 1 I I #
face $-1 $-1 $373 $34 $-1 $374 forward single #
loop $-1 $-1 $375 $165 #
plane-surface $-1 0 -116.2944432176172 125.132949292549 -1 0 0 0 -0.5877852598018023 0.80901698891910034 forward_v I I I I #
coedge $-1 $171 $376 $265 $377 forward $166 $-1 #
coedge $-1 $268 $168 $378 $379 reversed $104 $-1 #
coedge $-1 $168 $268 $263 $377 reversed $104 $-1 #
coedge $-1 $380 $375 $168 $267 forward $261 $-1 #
edge $-1 $381 -6.0665688357592646 $382 1.3321140817308776e-014 $266 $383 forward 7 unknown #
coedge $-1 $265 $264 $169 $269 forward $104 $-1 #
edge $-1 $384 -6.0665688357592646 $273 1.3321140817308776e-014 $169 $385 forward 7 unknown #
coedge $-1 $378 $386 $170 $271 forward $373 $-1 #
edge $-1 $274 28.104574331906687 $384 33.012531584483114 $270 $387 forward 7 unknown #
coedge $-1 $376 $171 $386 $388 reversed $166 $-1 #
vertex $-1 $172 $389 #
vertex $-1 $172 $390 #
straight-curve $-1 30.861055831698629 -30.042647276901917 62.5664746462745 0 0 1 I I #
coedge $-1 $276 $276 $-1 $391 reversed $175 $-1 #
edge $-1 $392 0 $392 6.2831853071796004 $176 $393 forward 7 unknown #
vertex $-1 $179 $394 #
ellipse-curve $-1 15.430527915849311 -27.588668650613705 8.2004589384530071 0 -0.5877852598018023 0.80901698891910034 1.5 0 0 1 I I #
face $-1 $-1 $195 $27 $-1 $395 reversed single #
loop $-1 $-1 $296 $180 #
plane-surface $-1 0 30.042647276901914 0 0 -1 0 0 0 -1 forward_v I I I I #
coedge $-1 $396 $294 $297 $397 forward $181 $-1 #
coedge $-1 $300 $183 $184 $288 reversed $113 $-1 #
coedge $-1 $294 $396 $183 $286 reversed $181 $-1 #
edge $-1 $301 -9.9833788080691512 $398 9.9833788080691512 $285 $399 forward 7 unknown #
coedge $-1 $185 $184 $396 $400 forward $73 $-1 #
edge $-1 $292 -73.370159001434374 $398 73.370159001434374 $284 $401 forward 7 unknown #
coedge $-1 $297 $296 $185 $290 reversed $281 $-1 #
edge $-1 $402 -73.370159001434374 $291 73.370159001434374 $289 $403 forward 7 unknown #
vertex $-1 $187 $404 #
vertex $-1 $303 $405 #
straight-curve $-1 73.370159001434374 0 -9.9833788080691512 0 -1 0 I I #
coedge $-1 $283 $285 $188 $295 reversed $181 $-1 #
edge $-1 $298 -30.042647276901914 $301 30.042647276901914 $294 $406 forward 7 unknown #
coedge $-1 $289 $189 $194 $304 forward $281 $-1 #
coedge $-1 $189 $289 $283 $397 reversed $281 $-1 #
vertex $-1 $190 $407 #
straight-curve $-1 0 30.042647276901914 9.9833788080691512 -1 0 0 I I #
coedge $-1 $191 $284 $193 $303 reversed $113 $-1 #
vertex $-1 $295 $408 #
straight-curve $-1 0 -30.042647276901914 9.9833788080691512 1 0 0 I I #
edge $-1 $196 -9.9833788080691512 $292 9.9833788080691512 $193 $409 forward 7 unknown #
edge $-1 $197 -9.9833788080691512 $291 9.9833788080691512 $194 $410 forward 7 unknown #
point $-1 73.370159001434374 -30.042647276901914 9.9833788080691512 #
point $-1 73.370159001434374 30.042647276901914 9.9833788080691512 #
plane-surface $-1 0 0 9.9833788080691512 0 0 1 1 0 0 forward_v I I I I #
coedge $-1 $318 $317 $310 $411 forward $200 $-1 #
coedge $-1 $310 $202 $204 $314 reversed $121 $-1 #
coedge $-1 $202 $309 $308 $411 reversed $121 $-1 #
coedge $-1 $210 $205 $202 $312 forward $211 $-1 #
edge $-1 $315 -8.7075195453653009 $412 -3.7995622927888881 $311 $413 forward 7 unknown #
coedge $-1 $204 $203 $318 $414 reversed $77 $-1 #
edge $-1 $415 -60.085294553803848 $315 -54.018725718044578 $309 $416 forward 7 unknown #
vertex $-1 $206 $417 #
straight-curve $-1 -7.7152639579246589 25.134690024325497 9.9833788080691512 1 0 0 I I #
coedge $-1 $308 $207 $210 $322 reversed $200 $-1 #
coedge $-1 $207 $308 $313 $414 forward $200 $-1 #
vertex $-1 $208 $418 #
straight-curve $-1 -30.861055831698636 30.042647276901914 80.225099881062206 0 0 1 I I #
straight-curve $-1 -30.861055831698636 -18.567376801333694 41.734789538412286 0 0.80901698891910034 -0.5877852598018023 I I #
edge $-1 $412 0 $212 30.861055831698636 $317 $419 forward 7 unknown #
point $-1 -30.861055831698636 30.042647276901914 9.9833788080691512 #
point $-1 -30.861055831698636 25.134690024325501 9.9833788080691512 #
edge $-1 $420 1 $420 0 $215 $-1 forward 7 unknown #
vertex $-1 $216 $421 #
ellipse-curve $-1 -15.430527915849318 25.129027622273799 4.8150535622780364 0 0.5877852598018023 0.80901698891910034 1.5 0 0 1 I I #
point $-1 -13.930527915849318 27.588668650613709 8.2004589384530249 #
loop $-1 $-1 $228 $219 #
plane-surface $-1 0 30.042647276901914 0 0 -1 0 0 0 -1 forward_v I I I I #
coedge $-1 $222 $335 $231 $343 forward $136 $-1 #
edge $-1 $340 -60.085294553803848 $336 -54.018725718044578 $223 $422 forward 7 unknown #
coedge $-1 $228 $423 $224 $334 forward $329 $-1 #
edge $-1 $337 70.241721072993059 $340 73.807560812225333 $333 $424 forward 7 unknown #
coedge $-1 $331 $225 $423 $425 forward $136 $-1 #
vertex $-1 $226 $426 #
vertex $-1 $425 $427 #
straight-curve $-1 30.861055831698629 33.842209569690802 9.9833788080691477 0 1 0 I I #
coedge $-1 $423 $228 $232 $344 forward $329 $-1 #
vertex $-1 $334 $428 #
straight-curve $-1 -7.7152639579246589 30.042647276901914 6.4175390688368736 -1 0 0 I I #
straight-curve $-1 -7.7152639579246589 25.134690024325497 9.9833788080691512 1 0 0 I I #
edge $-1 $429 3.7995622927888881 $234 8.7075195453653009 $331 $430 forward 7 unknown #
edge $-1 $233 -73.807560812225333 $429 -70.241721072993059 $339 $431 forward 7 unknown #
point $-1 0 30.042647276901917 6.4175390688368736 #
point $-1 0 25.134690024325501 9.9833788080691512 #
edge $-1 $432 1 $432 0 $236 $-1 forward 7 unknown #
vertex $-1 $237 $433 #
ellipse-curve $-1 15.430527915849311 25.129027622273799 4.8150535622780364 0 0.5877852598018023 0.80901698891910034 1.5 0 0 1 I I #
point $-1 16.930527915849311 27.588668650613709 8.2004589384530249 #
plane-surface $-1 0 0 9.9833788080691512 0 0 1 1 0 0 forward_v I I I I #
coedge $-1 $362 $361 $354 $434 forward $241 $-1 #
coedge $-1 $354 $243 $245 $358 reversed $151 $-1 #
coedge $-1 $243 $353 $352 $434 reversed $151 $-1 #
coedge $-1 $251 $246 $243 $356 forward $252 $-1 #
edge $-1 $359 -33.012531584483114 $435 -28.104574331906687 $355 $436 forward 7 unknown #
coedge $-1 $245 $244 $362 $437 reversed $95 $-1 #
edge $-1 $438 -1.3321140817308776e-014 $359 6.0665688357592646 $353 $439 forward 7 unknown #
vertex $-1 $247 $440 #
straight-curve $-1 -7.7152639579246589 -25.13469002432549 9.9833788080691512 -1 0 0 I I #
coedge $-1 $352 $248 $251 $366 reversed $241 $-1 #
coedge $-1 $248 $352 $357 $437 forward $241 $-1 #
vertex $-1 $249 $441 #
straight-curve $-1 0 -30.042647276901917 62.5664746462745 0 0 1 I I #
straight-curve $-1 0 -30.042647276901903 6.4175390688368736 0 -0.80901698891910034 -0.5877852598018023 I I #
edge $-1 $435 -30.861055831698636 $253 0 $361 $442 forward 7 unknown #
point $-1 0 -30.042647276901914 9.9833788080691512 #
point $-1 0 -25.13469002432549 9.9833788080691512 #
edge $-1 $443 1 $443 0 $256 $-1 forward 7 unknown #
vertex $-1 $257 $444 #
ellipse-curve $-1 -15.430527915849318 -25.129027622273803 4.8150535622780311 0 -0.5877852598018023 0.80901698891910034 1.5 0 0 1 I I #
point $-1 -13.930527915849318 -27.588668650613712 8.2004589384530178 #
loop $-1 $-1 $378 $260 #
plane-surface $-1 0 0 9.9833788080691512 0 0 1 1 0 0 forward_v I I I I #
coedge $-1 $266 $380 $445 $446 reversed $261 $-1 #
coedge $-1 $263 $272 $380 $447 forward $166 $-1 #
edge $-1 $382 7.7152639579246589 $273 38.576319789623284 $263 $448 forward 7 unknown #
coedge $-1 $445 $270 $264 $379 forward $373 $-1 #
edge $-1 $384 -38.576319789623284 $381 -7.7152639579246589 $378 $449 forward 7 unknown #
coedge $-1 $375 $266 $376 $447 reversed $261 $-1 #
vertex $-1 $379 $450 #
vertex $-1 $377 $451 #
straight-curve $-1 0 -30.042647276901903 6.4175390688368736 0 -0.80901698891910034 -0.5877852598018023 I I #
vertex $-1 $271 $452 #
straight-curve $-1 30.861055831698629 -30.042647276901903 6.4175390688368736 0 -0.80901698891910034 -0.5877852598018023 I I #
coedge $-1 $270 $445 $272 $388 forward $373 $-1 #
straight-curve $-1 30.861055831698629 -58.1472216088086 9.9833788080691477 0 1 0 I I #
edge $-1 $453 0 $274 30.861055831698629 $272 $454 forward 7 unknown #
point $-1 30.861055831698629 -30.042647276901914 6.4175390688368656 #
point $-1 30.861055831698629 -30.042647276901914 9.9833788080691512 #
edge $-1 $455 1 $455 0 $276 $-1 forward 7 unknown #
vertex $-1 $277 $456 #
ellipse-curve $-1 15.430527915849311 -25.129027622273803 4.8150535622780311 0 -0.5877852598018023 0.80901698891910034 1.5 0 0 1 I I #
point $-1 16.930527915849311 -27.588668650613712 8.2004589384530178 #
plane-surface $-1 73.370159001434374 0 0 -1 0 0 0 0 1 forward_v I I I I #
coedge $-1 $285 $283 $287 $400 reversed $181 $-1 #
edge $-1 $298 -9.9833788080691512 $402 9.9833788080691512 $297 $457 forward 7 unknown #
vertex $-1 $400 $458 #
straight-curve $-1 -73.370159001434374 -30.042647276901914 0 0 0 -1 I I #
edge $-1 $398 -30.042647276901914 $402 30.042647276901914 $396 $459 forward 7 unknown #
straight-curve $-1 0 -30.042647276901914 -9.9833788080691512 -1 0 0 I I #
vertex $-1 $290 $460 #
straight-curve $-1 0 30.042647276901914 -9.9833788080691512 1 0 0 I I #
point $-1 73.370159001434374 30.042647276901914 -9.9833788080691512 #
point $-1 73.370159001434374 -30.042647276901914 -9.9833788080691512 #
straight-curve $-1 -73.370159001434374 0 9.9833788080691512 0 -1 0 I I #
point $-1 -73.370159001434374 30.042647276901914 9.9833788080691512 #
point $-1 -73.370159001434374 -30.042647276901914 9.9833788080691512 #
straight-curve $-1 73.370159001434374 -30.042647276901914 0 0 0 -1 I I #
straight-curve $-1 73.370159001434374 30.042647276901914 0 0 0 -1 I I #
edge $-1 $412 70.241721072993059 $415 73.807560812225333 $308 $461 forward 7 unknown #
vertex $-1 $322 $462 #
straight-curve $-1 0 33.842209569690802 9.9833788080691477 0 1 0 I I #
edge $-1 $415 -7.7152639579246589 $319 23.145791873773977 $318 $463 forward 7 unknown #
vertex $-1 $414 $464 #
straight-curve $-1 0 -18.567376801333694 41.734789538412286 0 -0.80901698891910034 0.5877852598018023 I I #
point $-1 0 25.134690024325501 9.9833788080691512 #
point $-1 -30.861055831698636 30.042647276901917 6.4175390688368736 #
straight-curve $-1 0 30.042647276901914 9.9833788080691512 -1 0 0 I I #
vertex $-1 $325 $465 #
point $-1 -13.930527915849318 25.129027622273799 4.8150535622780364 #
straight-curve $-1 30.861055831698629 -18.567376801333694 41.734789538412286 0 -0.80901698891910034 0.5877852598018023 I I #
coedge $-1 $333 $339 $335 $425 reversed $329 $-1 #
straight-curve $-1 30.861055831698629 30.042647276901914 80.225099881062206 0 0 -1 I I #
edge $-1 $337 -30.861055831698629 $429 0 $423 $466 forward 7 unknown #
point $-1 30.861055831698629 25.134690024325501 9.9833788080691512 #
point $-1 30.861055831698629 30.042647276901914 9.9833788080691512 #
point $-1 30.861055831698629 30.042647276901917 6.4175390688368736 #
vertex $-1 $344 $467 #
straight-curve $-1 0 33.842209569690802 9.9833788080691477 0 -1 0 I I #
straight-curve $-1 0 30.042647276901914 80.225099881062206 0 0 1 I I #
vertex $-1 $347 $468 #
point $-1 16.930527915849311 25.129027622273799 4.8150535622780364 #
edge $-1 $435 52.583095838205352 $438 56.148935577437634 $352 $469 forward 7 unknown #
vertex $-1 $366 $470 #
straight-curve $-1 -30.861055831698636 -58.1472216088086 9.9833788080691477 0 -1 0 I I #
edge $-1 $438 -23.145791873773977 $363 7.7152639579246589 $362 $471 forward 7 unknown #
vertex $-1 $437 $472 #
straight-curve $-1 -30.861055831698636 -30.042647276901903 6.4175390688368736 0 0.80901698891910034 0.5877852598018023 I I #
point $-1 -30.861055831698636 -25.13469002432549 9.9833788080691512 #
point $-1 0 -30.042647276901914 6.4175390688368656 #
straight-curve $-1 0 -30.042647276901914 9.9833788080691512 1 0 0 I I #
vertex $-1 $369 $473 #
point $-1 -13.930527915849318 -25.129027622273803 4.8150535622780311 #
coedge $-1 $386 $378 $375 $446 forward $373 $-1 #
edge $-1 $381 -33.012531584483114 $453 -28.104574331906687 $445 $474 forward 7 unknown #
edge $-1 $453 52.583095838205352 $382 56.148935577437634 $376 $475 forward 7 unknown #
straight-curve $-1 -7.7152639579246589 -30.042647276901914 6.4175390688368665 1 0 0 I I #
straight-curve $-1 -7.7152639579246589 -25.13469002432549 9.9833788080691512 -1 0 0 I I #
point $-1 0 -25.13469002432549 9.9833788080691512 #
point $-1 0 -30.042647276901914 6.4175390688368656 #
point $-1 30.861055831698629 -25.13469002432549 9.9833788080691512 #
vertex $-1 $388 $476 #
straight-curve $-1 0 -30.042647276901914 9.9833788080691512 1 0 0 I I #
vertex $-1 $391 $477 #
point $-1 16.930527915849311 -25.129027622273803 4.8150535622780311 #
straight-curve $-1 -73.370159001434374 30.042647276901914 0 0 0 -1 I I #
point $-1 -73.370159001434374 -30.042647276901914 -9.9833788080691512 #
straight-curve $-1 -73.370159001434374 0 -9.9833788080691512 0 1 0 I I #
point $-1 -73.370159001434374 30.042647276901914 -9.9833788080691512 #
straight-curve $-1 0 30.042647276901914 80.225099881062206 0 0 -1 I I #
point $-1 0 30.042647276901914 9.9833788080691512 #
straight-curve $-1 -7.7152639579246589 30.042647276901914 6.4175390688368736 -1 0 0 I I #
point $-1 0 30.042647276901917 6.4175390688368736 #
point $-1 -15.430527915849318 24.247349732571099 3.6015280788993862 #
straight-curve $-1 0 30.042647276901914 9.9833788080691512 -1 0 0 I I #
point $-1 0 30.042647276901914 9.9833788080691512 #
point $-1 15.430527915849311 24.247349732571099 3.6015280788993862 #
straight-curve $-1 -30.861055831698636 -30.042647276901917 62.5664746462745 0 0 -1 I I #
point $-1 -30.861055831698636 -30.042647276901914 9.9833788080691512 #
straight-curve $-1 -7.7152639579246589 -30.042647276901914 6.4175390688368665 1 0 0 I I #
point $-1 -30.861055831698636 -30.042647276901914 6.4175390688368656 #
point $-1 -15.430527915849318 -24.247349732571102 3.6015280788993809 #
straight-curve $-1 0 -58.1472216088086 9.9833788080691477 0 -1 0 I I #
straight-curve $-1 0 -30.042647276901917 62.5664746462745 0 0 -1 I I #
point $-1 0 -30.042647276901914 9.9833788080691512 #
point $-1 15.430527915849311 -24.247349732571102 3.6015280788993809 #
End-of-ACIS-data 