500 0 8 0           
7 Unknown 11 ACIS 5.0 NT 24 Fri Mar 26 02:36:52 1999 
-1 9.9999999999999995e-007 1e-010 
body $-1 $8 $-1 $9 #
body $-1 $10 $-1 $11 #
body $-1 $12 $-1 $13 #
body $-1 $14 $-1 $15 #
body $-1 $16 $-1 $17 #
body $-1 $18 $-1 $19 #
body $-1 $20 $-1 $21 #
body $-1 $22 $-1 $23 #
lump $-1 $-1 $24 $0 #
transform $-1 1 0 0 0 1 0 0 0 1 41.728568376720482 24.222741798855168 5.6730907654888867 1 rotate no_reflect no_shear #
lump $-1 $-1 $25 $1 #
transform $-1 1 0 0 0 1 0 0 0 1 41.728568376720482 24.222741798855168 5.6730907654888867 1 rotate no_reflect no_shear #
lump $-1 $-1 $26 $2 #
transform $-1 1 0 0 0 1 0 0 0 1 41.728568376720482 24.222741798855168 5.6730907654888867 1 rotate no_reflect no_shear #
lump $-1 $-1 $27 $3 #
transform $-1 1 0 0 0 1 0 0 0 1 41.728568376720482 24.222741798855168 5.6730907654888867 1 rotate no_reflect no_shear #
lump $-1 $-1 $28 $4 #
transform $-1 1 0 0 0 1 0 0 0 1 41.728568376720482 24.222741798855168 5.6730907654888867 1 rotate no_reflect no_shear #
lump $-1 $-1 $29 $5 #
transform $-1 1 0 0 0 1 0 0 0 1 41.728568376720482 24.222741798855168 5.6730907654888867 1 rotate no_reflect no_shear #
lump $-1 $-1 $30 $6 #
transform $-1 1 0 0 0 1 0 0 0 1 41.728568376720482 24.222741798855168 5.6730907654888867 1 rotate no_reflect no_shear #
lump $-1 $-1 $31 $7 #
transform $-1 1 0 0 0 1 0 0 0 1 41.728568376720482 24.222741798855168 5.6730907654888867 1 rotate no_reflect no_shear #
shell $-1 $-1 $-1 $32 $-1 $8 #
shell $-1 $-1 $-1 $33 $-1 $10 #
shell $-1 $-1 $-1 $34 $-1 $12 #
shell $-1 $-1 $-1 $35 $-1 $14 #
shell $-1 $-1 $-1 $36 $-1 $16 #
shell $-1 $-1 $-1 $37 $-1 $18 #
shell $-1 $-1 $-1 $38 $-1 $20 #
shell $-1 $-1 $-1 $39 $-1 $22 #
face $-1 $40 $41 $24 $-1 $42 forward single #
face $-1 $43 $44 $25 $-1 $45 forward single #
face $-1 $46 $47 $26 $-1 $48 reversed single #
face $-1 $49 $50 $27 $-1 $51 forward single #
face $-1 $52 $53 $28 $-1 $54 forward single #
face $-1 $55 $56 $29 $-1 $57 reversed single #
face $-1 $58 $59 $30 $-1 $60 forward single #
face $-1 $61 $62 $31 $-1 $63 forward single #
face $-1 $64 $65 $24 $-1 $66 reversed single #
loop $-1 $-1 $67 $32 #
plane-surface $-1 0 0 5.6730907654888867 0 0 1 1 0 0 forward_v I I I I #
face $-1 $68 $69 $25 $-1 $70 reversed single #
loop $-1 $-1 $71 $33 #
plane-surface $-1 -39.328241723407473 0 4.8210757131154427 0 0 1 1 0 0 forward_v I I I I #
face $-1 $72 $73 $26 $-1 $74 reversed single #
loop $-1 $-1 $75 $34 #
plane-surface $-1 -25.215379688220271 -5.6032755939413903 38.983844652511848 0 0.78801076186113728 0.61566146476048833 1 0 0 forward_v I I I I #
face $-1 $76 $77 $27 $-1 $78 forward single #
loop $-1 $79 $80 $35 #
cone-surface $-1 -30.235037709023498 21.387016968887266 2.5099325751647044 0 -0.78801076186113728 -0.61566146476048833 1 0 0 1 I I 0 1 1 forward I I I I #
face $-1 $81 $82 $28 $-1 $83 forward single #
loop $-1 $84 $85 $36 #
cone-surface $-1 -20.195721667417043 21.387016968887266 2.5099325751647044 0 -0.78801076186113728 -0.61566146476048833 1 0 0 1 I I 0 1 1 forward I I I I #
face $-1 $86 $87 $29 $-1 $88 reversed single #
loop $-1 $-1 $89 $37 #
plane-surface $-1 0.32979041714047952 -84.256782575507259 59.970511398153185 1 0 0 0 0.71933980857756763 -0.69465836192734942 forward_v I I I I #
face $-1 $90 $91 $30 $-1 $92 forward single #
loop $-1 $93 $94 $38 #
cone-surface $-1 5.9659084977955885 -21.020934966782026 2.4571513692998814 0 0.71933980857756763 -0.69465836192734942 1 0 0 1 I I 0 1 1 forward I I I I #
face $-1 $95 $96 $31 $-1 $97 forward single #
loop $-1 $98 $99 $39 #
cone-surface $-1 14.420085618778252 -21.020934966782026 2.4571513692998814 0 0.71933980857756763 -0.69465836192734942 1 0 0 1 I I 0 1 1 forward I I I I #
face $-1 $100 $101 $24 $-1 $102 reversed single #
loop $-1 $-1 $103 $40 #
plane-surface $-1 0 0 -5.6730907654888867 0 0 1 1 0 0 forward_v I I I I #
coedge $-1 $104 $105 $106 $107 forward $41 $-1 #
face $-1 $108 $109 $25 $-1 $110 reversed single #
loop $-1 $-1 $111 $43 #
plane-surface $-1 -39.328241723407473 0 1.8210757131154427 0 0 1 1 0 0 forward_v I I I I #
coedge $-1 $112 $113 $114 $115 forward $44 $-1 #
face $-1 $116 $117 $26 $-1 $118 forward single #
loop $-1 $-1 $119 $46 #
plane-surface $-1 -13.502844306346073 60.161846321886742 90.3651877108517 -1 0 0 0 0.78801076186113728 0.61566146476048833 forward_v I I I I #
coedge $-1 $120 $121 $122 $123 reversed $47 $-1 #
face $-1 $-1 $124 $27 $-1 $125 forward single #
loop $-1 $126 $127 $49 #
cone-surface $-1 -30.235037709023498 20.057689203982449 1.4713479282302657 0 -0.78801076186113728 -0.61566146476048833 0.5 0 0 1 I I -0.70710678118654746 0.70710678118654746 0.5 forward I I I I #
loop $-1 $-1 $128 $35 #
coedge $-1 $80 $80 $129 $130 reversed $50 $-1 #
face $-1 $-1 $131 $28 $-1 $132 forward single #
loop $-1 $133 $134 $52 #
cone-surface $-1 -20.195721667417043 20.057689203982449 1.4713479282302657 0 -0.78801076186113728 -0.61566146476048833 0.5 0 0 1 I I -0.70710678118654746 0.70710678118654746 0.5 forward I I I I #
loop $-1 $-1 $135 $36 #
coedge $-1 $85 $85 $136 $137 reversed $53 $-1 #
face $-1 $138 $139 $29 $-1 $140 reversed single #
loop $-1 $-1 $141 $55 #
plane-surface $-1 10.192997058286927 -24.222741798855154 1.9963134898610946 0 -0.71933980857756763 0.69465836192734942 1 0 0 forward_v I I I I #
coedge $-1 $142 $143 $144 $145 reversed $56 $-1 #
face $-1 $-1 $146 $30 $-1 $147 forward single #
loop $-1 $148 $149 $58 #
cone-surface $-1 5.9659084977955885 -19.234769459552425 0.73227142996109684 0 0.71933980857756763 -0.69465836192734942 0.5 0 0 1 I I -0.70710678118654746 0.70710678118654746 0.5 forward I I I I #
loop $-1 $-1 $150 $38 #
coedge $-1 $94 $94 $151 $152 reversed $59 $-1 #
face $-1 $-1 $153 $31 $-1 $154 forward single #
loop $-1 $155 $156 $61 #
cone-surface $-1 14.420085618778252 -19.234769459552425 0.73227142996109684 0 0.71933980857756763 -0.69465836192734942 0.5 0 0 1 I I -0.70710678118654746 0.70710678118654746 0.5 forward I I I I #
loop $-1 $-1 $157 $39 #
coedge $-1 $99 $99 $158 $159 reversed $62 $-1 #
face $-1 $160 $161 $24 $-1 $162 reversed single #
loop $-1 $-1 $163 $64 #
plane-surface $-1 0 -24.222741798855168 0 0 1 0 0 0 1 forward_v I I I I #
coedge $-1 $164 $165 $166 $167 forward $65 $-1 #
coedge $-1 $168 $67 $169 $170 forward $41 $-1 #
coedge $-1 $67 $168 $171 $172 forward $41 $-1 #
coedge $-1 $173 $174 $67 $107 reversed $175 $-1 #
edge $-1 $176 -24.222741798855168 $177 24.222741798855168 $106 $178 forward 7 unknown #
face $-1 $179 $180 $25 $-1 $181 reversed single #
loop $-1 $-1 $182 $68 #
plane-surface $-1 -36.927915070094464 0 3.3210757131154427 -1 0 0 0 0 1 forward_v I I I I #
coedge $-1 $183 $184 $185 $186 forward $69 $-1 #
coedge $-1 $187 $71 $188 $189 reversed $44 $-1 #
coedge $-1 $71 $187 $190 $191 reversed $44 $-1 #
coedge $-1 $182 $192 $71 $115 reversed $109 $-1 #
edge $-1 $193 -24.222741798855168 $194 24.222741798855168 $114 $195 forward 7 unknown #
face $-1 $196 $197 $26 $-1 $198 forward single #
loop $-1 $-1 $199 $72 #
plane-surface $-1 -36.927915070094464 0 3.3210757131154427 -1 0 0 0 0 1 forward_v I I I I #
coedge $-1 $200 $201 $202 $203 reversed $73 $-1 #
coedge $-1 $204 $75 $199 $205 forward $47 $-1 #
coedge $-1 $75 $204 $200 $206 forward $47 $-1 #
coedge $-1 $202 $207 $75 $123 forward $197 $-1 #
edge $-1 $208 -24.320225225984338 $209 -0.8951544622359382 $122 $210 forward 7 unknown #
loop $-1 $-1 $129 $76 #
plane-surface $-1 -25.215379688220271 -5.6032755939413903 38.983844652511848 0 0.78801076186113728 0.61566146476048833 1 0 0 forward_v I I I I #
loop $-1 $-1 $211 $49 #
coedge $-1 $127 $127 $128 $212 reversed $77 $-1 #
coedge $-1 $128 $128 $127 $212 forward $79 $-1 #
coedge $-1 $129 $129 $80 $130 forward $124 $-1 #
edge $-1 $213 6.1270642009442734e-016 $213 6.2831853071796013 $129 $214 forward 7 unknown #
loop $-1 $-1 $136 $81 #
plane-surface $-1 -25.215379688220271 -5.6032755939413903 38.983844652511848 0 0.78801076186113728 0.61566146476048833 1 0 0 forward_v I I I I #
loop $-1 $-1 $215 $52 #
coedge $-1 $134 $134 $135 $216 reversed $82 $-1 #
coedge $-1 $135 $135 $134 $216 forward $84 $-1 #
coedge $-1 $136 $136 $85 $137 forward $131 $-1 #
edge $-1 $217 6.1270642009442734e-016 $217 6.2831853071796013 $136 $218 forward 7 unknown #
face $-1 $219 $220 $29 $-1 $221 reversed single #
loop $-1 $-1 $222 $86 #
plane-surface $-1 20.056203699433375 -84.256782575507259 59.970511398153185 -1 0 0 0 -0.71933980857756763 0.69465836192734942 forward_v I I I I #
coedge $-1 $223 $224 $225 $226 reversed $87 $-1 #
coedge $-1 $143 $89 $227 $228 reversed $56 $-1 #
coedge $-1 $89 $142 $223 $229 reversed $56 $-1 #
coedge $-1 $225 $230 $89 $145 forward $220 $-1 #
edge $-1 $231 24.312164933587706 $232 27.988942209215512 $144 $233 forward 7 unknown #
loop $-1 $-1 $151 $90 #
plane-surface $-1 10.192997058286927 -24.222741798855154 1.9963134898610946 0 -0.71933980857756763 0.69465836192734942 1 0 0 forward_v I I I I #
loop $-1 $-1 $234 $58 #
coedge $-1 $149 $149 $150 $235 reversed $91 $-1 #
coedge $-1 $150 $150 $149 $235 forward $93 $-1 #
coedge $-1 $151 $151 $94 $152 forward $146 $-1 #
edge $-1 $236 1.7537222625362957e-016 $236 6.2831853071796004 $151 $237 forward 7 unknown #
loop $-1 $-1 $158 $95 #
plane-surface $-1 10.192997058286927 -24.222741798855154 1.9963134898610946 0 -0.71933980857756763 0.69465836192734942 1 0 0 forward_v I I I I #
loop $-1 $-1 $238 $61 #
coedge $-1 $156 $156 $157 $239 reversed $96 $-1 #
coedge $-1 $157 $157 $156 $239 forward $98 $-1 #
coedge $-1 $158 $158 $99 $159 forward $153 $-1 #
edge $-1 $240 1.7537222625362957e-016 $240 6.2831853071796004 $158 $241 forward 7 unknown #
face $-1 $242 $243 $24 $-1 $244 reversed single #
loop $-1 $-1 $245 $100 #
plane-surface $-1 -41.728568376720482 0 0 1 0 0 0 0 -1 forward_v I I I I #
coedge $-1 $246 $171 $247 $248 forward $101 $-1 #
coedge $-1 $249 $103 $246 $250 forward $65 $-1 #
coedge $-1 $103 $249 $251 $252 forward $65 $-1 #
coedge $-1 $174 $173 $103 $167 reversed $175 $-1 #
edge $-1 $253 -24.222741798855168 $254 24.222741798855168 $166 $255 forward 7 unknown #
coedge $-1 $105 $104 $256 $257 forward $41 $-1 #
coedge $-1 $258 $259 $104 $170 reversed $243 $-1 #
edge $-1 $177 -41.728568376720482 $260 41.728568376720482 $169 $261 forward 7 unknown #
coedge $-1 $163 $262 $105 $172 reversed $101 $-1 #
edge $-1 $263 -41.728568376720482 $176 41.728568376720482 $171 $264 forward 7 unknown #
coedge $-1 $166 $106 $262 $265 forward $175 $-1 #
coedge $-1 $106 $166 $258 $266 reversed $175 $-1 #
loop $-1 $-1 $173 $242 #
vertex $-1 $107 $267 #
vertex $-1 $107 $268 #
straight-curve $-1 41.728568376720482 0 5.6730907654888867 0 1 0 I I #
face $-1 $269 $270 $25 $-1 $271 reversed single #
loop $-1 $-1 $272 $108 #
plane-surface $-1 0 -24.222741798855168 0 0 1 0 0 0 1 forward_v I I I I #
coedge $-1 $185 $114 $273 $274 reversed $109 $-1 #
coedge $-1 $275 $111 $272 $276 reversed $69 $-1 #
coedge $-1 $111 $275 $277 $278 reversed $69 $-1 #
coedge $-1 $192 $182 $111 $186 reversed $109 $-1 #
edge $-1 $279 -24.222741798855168 $280 24.222741798855168 $185 $281 forward 7 unknown #
coedge $-1 $113 $112 $282 $283 reversed $44 $-1 #
coedge $-1 $284 $285 $112 $189 forward $286 $-1 #
edge $-1 $287 -22.064447515016745 $194 -17.263794208390728 $188 $288 forward 7 unknown #
coedge $-1 $289 $273 $113 $191 forward $180 $-1 #
edge $-1 $193 17.263794208390728 $290 22.064447515016745 $190 $291 forward 7 unknown #
coedge $-1 $114 $185 $284 $292 reversed $109 $-1 #
vertex $-1 $191 $293 #
vertex $-1 $189 $294 #
straight-curve $-1 -36.927915070094464 0 4.8210757131154427 0 1 0 I I #
face $-1 $-1 $295 $26 $-1 $296 reversed single #
loop $-1 $-1 $202 $116 #
plane-surface $-1 0 0 5.6730907654888867 0 0 1 1 0 0 forward_v I I I I #
coedge $-1 $297 $298 $120 $205 reversed $117 $-1 #
coedge $-1 $201 $119 $121 $206 reversed $73 $-1 #
coedge $-1 $119 $200 $299 $300 reversed $73 $-1 #
coedge $-1 $301 $122 $119 $203 forward $197 $-1 #
edge $-1 $209 -9.6589862540755185 $302 -5.8581813620882031 $202 $303 forward 7 unknown #
coedge $-1 $121 $120 $304 $305 reversed $47 $-1 #
edge $-1 $208 42.271952997632994 $306 48.445483597710336 $199 $307 forward 7 unknown #
edge $-1 $308 -48.445483597710336 $209 -42.271952997632994 $200 $309 forward 7 unknown #
coedge $-1 $122 $301 $297 $310 forward $197 $-1 #
vertex $-1 $310 $311 #
vertex $-1 $123 $312 #
straight-curve $-1 -12.607689844110135 20.421936906867856 5.6730907654888867 1 0 0 I I #
coedge $-1 $211 $211 $-1 $313 reversed $126 $-1 #
edge $-1 $314 0 $314 6.2831853071796004 $127 $315 forward 7 unknown #
vertex $-1 $130 $316 #
ellipse-curve $-1 -30.235037709023498 22.322339352861508 3.2406864897188914 0 0.78801076186113728 0.61566146476048833 1 0 0 1 I I #
coedge $-1 $215 $215 $-1 $317 reversed $133 $-1 #
edge $-1 $318 0 $318 6.2831853071796004 $134 $319 forward 7 unknown #
vertex $-1 $137 $320 #
ellipse-curve $-1 -20.195721667417043 22.322339352861508 3.2406864897188914 0 0.78801076186113728 0.61566146476048833 1 0 0 1 I I #
face $-1 $-1 $321 $29 $-1 $322 forward single #
loop $-1 $-1 $144 $138 #
plane-surface $-1 0 -24.222741798855168 0 0 1 0 0 0 1 forward_v I I I I #
coedge $-1 $323 $324 $325 $326 reversed $139 $-1 #
coedge $-1 $327 $141 $143 $229 forward $87 $-1 #
coedge $-1 $141 $327 $323 $328 forward $87 $-1 #
coedge $-1 $325 $144 $141 $226 forward $220 $-1 #
edge $-1 $232 -4.7667081120029842 $329 14.959705170289912 $225 $330 forward 7 unknown #
coedge $-1 $331 $332 $142 $228 forward $321 $-1 #
edge $-1 $333 -21.456271947163124 $231 -17.905649488898462 $227 $334 forward 7 unknown #
edge $-1 $232 -2.0413573615811715e-014 $333 5.1113218423130258 $143 $335 forward 7 unknown #
coedge $-1 $144 $325 $331 $336 reversed $220 $-1 #
vertex $-1 $336 $337 #
vertex $-1 $145 $338 #
straight-curve $-1 0.32979041714047952 -24.222741798855168 29.985255699076593 0 0 -1 I I #
coedge $-1 $234 $234 $-1 $339 reversed $148 $-1 #
edge $-1 $340 0 $340 6.2831853071796004 $149 $341 forward 7 unknown #
vertex $-1 $152 $342 #
ellipse-curve $-1 5.9659084977955885 -22.447430569722837 3.8347021276749844 0 -0.71933980857756763 0.69465836192734942 1 0 0 1 I I #
coedge $-1 $238 $238 $-1 $343 reversed $155 $-1 #
edge $-1 $344 0 $344 6.2831853071796004 $156 $345 forward 7 unknown #
vertex $-1 $159 $346 #
ellipse-curve $-1 14.420085618778252 -22.447430569722837 3.8347021276749844 0 -0.71933980857756763 0.69465836192734942 1 0 0 1 I I #
face $-1 $-1 $175 $24 $-1 $347 reversed single #
loop $-1 $-1 $258 $160 #
plane-surface $-1 0 24.222741798855168 0 0 -1 0 0 0 -1 forward_v I I I I #
coedge $-1 $348 $256 $259 $349 forward $161 $-1 #
coedge $-1 $262 $163 $164 $250 reversed $101 $-1 #
coedge $-1 $256 $348 $163 $248 reversed $161 $-1 #
edge $-1 $263 -5.6730907654888867 $350 5.6730907654888867 $247 $351 forward 7 unknown #
coedge $-1 $165 $164 $348 $352 forward $65 $-1 #
edge $-1 $254 -41.728568376720482 $350 41.728568376720482 $246 $353 forward 7 unknown #
coedge $-1 $259 $258 $165 $252 reversed $243 $-1 #
edge $-1 $354 -41.728568376720482 $253 41.728568376720482 $251 $355 forward 7 unknown #
vertex $-1 $167 $356 #
vertex $-1 $265 $357 #
straight-curve $-1 41.728568376720482 0 -5.6730907654888867 0 -1 0 I I #
coedge $-1 $245 $247 $168 $257 reversed $161 $-1 #
edge $-1 $260 -24.222741798855168 $263 24.222741798855168 $256 $358 forward 7 unknown #
coedge $-1 $251 $169 $174 $266 forward $243 $-1 #
coedge $-1 $169 $251 $245 $349 reversed $243 $-1 #
vertex $-1 $170 $359 #
straight-curve $-1 0 24.222741798855168 5.6730907654888867 -1 0 0 I I #
coedge $-1 $171 $246 $173 $265 reversed $101 $-1 #
vertex $-1 $257 $360 #
straight-curve $-1 0 -24.222741798855168 5.6730907654888867 1 0 0 I I #
edge $-1 $176 -5.6730907654888867 $254 5.6730907654888867 $173 $361 forward 7 unknown #
edge $-1 $177 -5.6730907654888867 $253 5.6730907654888867 $174 $362 forward 7 unknown #
point $-1 41.728568376720482 -24.222741798855168 5.6730907654888867 #
point $-1 41.728568376720482 24.222741798855168 5.6730907654888867 #
face $-1 $-1 $286 $25 $-1 $363 reversed single #
loop $-1 $-1 $364 $179 #
plane-surface $-1 -41.728568376720482 0 0 1 0 0 0 0 -1 forward_v I I I I #
coedge $-1 $273 $289 $183 $276 forward $180 $-1 #
coedge $-1 $190 $272 $182 $274 forward $180 $-1 #
edge $-1 $280 0.16053785655772135 $193 3.1605378565577213 $273 $365 forward 7 unknown #
coedge $-1 $184 $183 $364 $366 reversed $69 $-1 #
edge $-1 $367 -22.064447515016745 $280 -17.263794208390728 $272 $368 forward 7 unknown #
coedge $-1 $285 $284 $184 $278 forward $286 $-1 #
edge $-1 $279 17.263794208390728 $369 22.064447515016745 $277 $370 forward 7 unknown #
vertex $-1 $278 $371 #
vertex $-1 $276 $372 #
straight-curve $-1 -36.927915070094464 0 1.8210757131154427 0 -1 0 I I #
coedge $-1 $373 $374 $187 $283 forward $270 $-1 #
edge $-1 $290 -24.222741798855168 $287 24.222741798855168 $282 $375 forward 7 unknown #
coedge $-1 $277 $188 $192 $292 forward $286 $-1 #
coedge $-1 $188 $277 $373 $376 reversed $286 $-1 #
loop $-1 $-1 $277 $269 #
vertex $-1 $376 $377 #
straight-curve $-1 -19.664120861703736 24.222741798855168 4.8210757131154427 1 0 0 I I #
coedge $-1 $272 $190 $374 $378 forward $180 $-1 #
vertex $-1 $378 $379 #
straight-curve $-1 -19.664120861703736 -24.222741798855168 4.8210757131154427 -1 0 0 I I #
edge $-1 $194 -3.1605378565577213 $279 -0.16053785655772135 $284 $380 forward 7 unknown #
point $-1 -36.927915070094464 -24.222741798855168 4.8210757131154427 #
point $-1 -36.927915070094464 24.222741798855168 4.8210757131154427 #
loop $-1 $-1 $381 $196 #
plane-surface $-1 0 24.222741798855168 0 0 -1 0 0 0 -1 forward_v I I I I #
coedge $-1 $298 $199 $207 $310 reversed $117 $-1 #
coedge $-1 $199 $297 $381 $382 reversed $117 $-1 #
coedge $-1 $304 $383 $201 $300 forward $295 $-1 #
edge $-1 $302 39.509503089936963 $308 44.37431164147695 $299 $384 forward 7 unknown #
coedge $-1 $207 $202 $383 $385 forward $197 $-1 #
vertex $-1 $385 $386 #
straight-curve $-1 -13.502844306346073 30.080923160943371 5.6730907654888867 0 1 0 I I #
coedge $-1 $381 $299 $204 $305 forward $295 $-1 #
edge $-1 $308 0.8951544622359382 $306 24.320225225984338 $304 $387 forward 7 unknown #
vertex $-1 $382 $388 #
straight-curve $-1 -36.927915070094471 -5.6032755939413903 38.983844652511848 0 0.61566146476048833 -0.78801076186113728 I I #
vertex $-1 $305 $389 #
straight-curve $-1 -13.502844306346073 -5.6032755939413903 38.983844652511848 0 -0.61566146476048833 0.78801076186113728 I I #
edge $-1 $390 5.8581813620882031 $208 9.6589862540755185 $207 $391 forward 7 unknown #
point $-1 -36.927915070094471 20.421936906867852 5.6730907654888867 #
point $-1 -13.502844306346073 20.421936906867852 5.6730907654888867 #
edge $-1 $392 1 $392 0 $211 $-1 forward 7 unknown #
vertex $-1 $212 $393 #
ellipse-curve $-1 -30.235037709023498 20.451694584913017 1.7791786606105098 0 0.78801076186113728 0.61566146476048833 1 0 0 1 I I #
point $-1 -29.235037709023498 22.322339352861519 3.2406864897188989 #
edge $-1 $394 1 $394 0 $215 $-1 forward 7 unknown #
vertex $-1 $216 $395 #
ellipse-curve $-1 -20.195721667417043 20.451694584913017 1.7791786606105098 0 0.78801076186113728 0.61566146476048833 1 0 0 1 I I #
point $-1 -19.195721667417043 22.322339352861519 3.2406864897188989 #
loop $-1 $-1 $227 $219 #
plane-surface $-1 0 0 5.6730907654888867 0 0 1 1 0 0 forward_v I I I I #
coedge $-1 $324 $222 $224 $328 reversed $139 $-1 #
coedge $-1 $222 $323 $396 $397 reversed $139 $-1 #
coedge $-1 $230 $225 $222 $326 forward $220 $-1 #
edge $-1 $329 -27.988942209215512 $398 -24.312164933587706 $325 $399 forward 7 unknown #
coedge $-1 $224 $223 $332 $400 reversed $87 $-1 #
edge $-1 $401 -5.1113218423130258 $329 2.0413573615811715e-014 $323 $402 forward 7 unknown #
vertex $-1 $226 $403 #
straight-curve $-1 5.0964985291434637 -24.222741798855168 1.9963134898610808 1 0 0 I I #
coedge $-1 $396 $227 $230 $336 forward $321 $-1 #
coedge $-1 $227 $396 $327 $400 forward $321 $-1 #
vertex $-1 $228 $404 #
straight-curve $-1 0.32979041714047952 -42.12839128775363 5.6730907654888867 0 -1 0 I I #
straight-curve $-1 0.32979041714047952 -24.222741798855154 1.9963134898610946 0 0.69465836192734942 0.71933980857756763 I I #
edge $-1 $231 0.32979041714047952 $398 20.056203699433375 $230 $405 forward 7 unknown #
point $-1 0.32979041714047952 -24.222741798855168 5.6730907654888867 #
point $-1 0.32979041714047952 -24.222741798855168 1.9963134898610799 #
edge $-1 $406 1 $406 0 $234 $-1 forward 7 unknown #
vertex $-1 $235 $407 #
ellipse-curve $-1 5.9659084977955885 -19.594439363841207 1.0796006109247716 0 -0.71933980857756763 0.69465836192734942 1 0 0 1 I I #
point $-1 6.9659084977955885 -22.447430569722844 3.8347021276749915 #
edge $-1 $408 1 $408 0 $238 $-1 forward 7 unknown #
vertex $-1 $239 $409 #
ellipse-curve $-1 14.420085618778252 -19.594439363841207 1.0796006109247716 0 -0.71933980857756763 0.69465836192734942 1 0 0 1 I I #
point $-1 15.420085618778252 -22.447430569722844 3.8347021276749915 #
plane-surface $-1 41.728568376720482 0 0 -1 0 0 0 0 1 forward_v I I I I #
coedge $-1 $247 $245 $249 $352 reversed $161 $-1 #
edge $-1 $260 -5.6730907654888867 $354 5.6730907654888867 $259 $410 forward 7 unknown #
vertex $-1 $352 $411 #
straight-curve $-1 -41.728568376720482 -24.222741798855168 0 0 0 -1 I I #
edge $-1 $350 -24.222741798855168 $354 24.222741798855168 $348 $412 forward 7 unknown #
straight-curve $-1 0 -24.222741798855168 -5.6730907654888867 -1 0 0 I I #
vertex $-1 $252 $413 #
straight-curve $-1 0 24.222741798855168 -5.6730907654888867 1 0 0 I I #
point $-1 41.728568376720482 24.222741798855168 -5.6730907654888867 #
point $-1 41.728568376720482 -24.222741798855168 -5.6730907654888867 #
straight-curve $-1 -41.728568376720482 0 5.6730907654888867 0 -1 0 I I #
point $-1 -41.728568376720482 24.222741798855168 5.6730907654888867 #
point $-1 -41.728568376720482 -24.222741798855168 5.6730907654888867 #
straight-curve $-1 41.728568376720482 -24.222741798855168 0 0 0 -1 I I #
straight-curve $-1 41.728568376720482 24.222741798855168 0 0 0 -1 I I #
plane-surface $-1 0 24.222741798855168 0 0 -1 0 0 0 -1 forward_v I I I I #
coedge $-1 $374 $373 $275 $366 forward $270 $-1 #
straight-curve $-1 -36.927915070094464 -24.222741798855168 1.6605378565577213 0 0 1 I I #
edge $-1 $369 -24.222741798855168 $367 24.222741798855168 $364 $414 forward 7 unknown #
vertex $-1 $276 $415 #
straight-curve $-1 -19.664120861703736 -24.222741798855168 1.8210757131154427 1 0 0 I I #
vertex $-1 $278 $416 #
straight-curve $-1 -19.664120861703736 24.222741798855168 1.8210757131154427 -1 0 0 I I #
point $-1 -36.927915070094464 24.222741798855168 1.8210757131154427 #
point $-1 -36.927915070094464 -24.222741798855168 1.8210757131154427 #
coedge $-1 $364 $282 $285 $376 forward $270 $-1 #
coedge $-1 $282 $364 $289 $378 reversed $270 $-1 #
straight-curve $-1 -41.728568376720482 0 4.8210757131154427 0 1 0 I I #
edge $-1 $287 -4.8210757131154427 $369 -1.8210757131154427 $285 $417 forward 7 unknown #
point $-1 -41.728568376720482 24.222741798855168 4.8210757131154427 #
edge $-1 $290 -4.8210757131154427 $367 -1.8210757131154427 $374 $418 forward 7 unknown #
point $-1 -41.728568376720482 -24.222741798855168 4.8210757131154427 #
straight-curve $-1 -36.927915070094464 24.222741798855168 1.6605378565577213 0 0 -1 I I #
coedge $-1 $383 $304 $298 $382 forward $295 $-1 #
edge $-1 $306 -44.37431164147695 $390 -39.509503089936963 $381 $419 forward 7 unknown #
coedge $-1 $299 $381 $301 $385 reversed $295 $-1 #
straight-curve $-1 -13.502844306346073 24.222741798855168 45.18259385542585 0 0 -1 I I #
edge $-1 $302 13.502844306346073 $390 36.927915070094471 $383 $420 forward 7 unknown #
point $-1 -13.502844306346073 24.222741798855168 5.6730907654888867 #
straight-curve $-1 -12.607689844110135 24.222741798855168 0.8082822139488961 -1 0 0 I I #
point $-1 -36.927915070094471 24.222741798855168 0.80828221394889965 #
point $-1 -13.502844306346073 24.222741798855168 0.80828221394889965 #
vertex $-1 $310 $421 #
straight-curve $-1 -36.927915070094471 30.080923160943371 5.6730907654888867 0 -1 0 I I #
vertex $-1 $313 $422 #
point $-1 -29.235037709023498 20.451694584913017 1.7791786606105098 #
vertex $-1 $317 $423 #
point $-1 -19.195721667417043 20.451694584913017 1.7791786606105098 #
coedge $-1 $332 $331 $324 $397 forward $321 $-1 #
edge $-1 $398 17.905649488898462 $401 21.456271947163124 $396 $424 forward 7 unknown #
vertex $-1 $397 $425 #
straight-curve $-1 20.056203699433375 -24.222741798855168 29.985255699076593 0 0 1 I I #
edge $-1 $401 -14.959705170289912 $333 4.7667081120029842 $332 $426 forward 7 unknown #
vertex $-1 $400 $427 #
straight-curve $-1 20.056203699433375 -24.222741798855154 1.9963134898610946 0 -0.69465836192734942 -0.71933980857756763 I I #
point $-1 20.056203699433375 -24.222741798855168 1.9963134898610799 #
point $-1 0.32979041714047952 -20.672119340590505 5.6730907654888867 #
straight-curve $-1 0 -24.222741798855168 5.6730907654888867 1 0 0 I I #
vertex $-1 $339 $428 #
point $-1 6.9659084977955885 -19.594439363841207 1.0796006109247716 #
vertex $-1 $343 $429 #
point $-1 15.420085618778252 -19.594439363841207 1.0796006109247716 #
straight-curve $-1 -41.728568376720482 24.222741798855168 0 0 0 -1 I I #
point $-1 -41.728568376720482 -24.222741798855168 -5.6730907654888867 #
straight-curve $-1 -41.728568376720482 0 -5.6730907654888867 0 1 0 I I #
point $-1 -41.728568376720482 24.222741798855168 -5.6730907654888867 #
straight-curve $-1 -41.728568376720482 0 1.8210757131154427 0 -1 0 I I #
point $-1 -41.728568376720482 -24.222741798855168 1.8210757131154427 #
point $-1 -41.728568376720482 24.222741798855168 1.8210757131154427 #
straight-curve $-1 -41.728568376720482 24.222741798855168 0 0 0 -1 I I #
straight-curve $-1 -41.728568376720482 -24.222741798855168 0 0 0 -1 I I #
straight-curve $-1 -36.927915070094471 24.222741798855168 45.18259385542585 0 0 1 I I #
straight-curve $-1 0 24.222741798855168 5.6730907654888867 -1 0 0 I I #
point $-1 -36.927915070094471 24.222741798855168 5.6730907654888867 #
point $-1 -30.235037709023498 19.66368382305188 1.1635171958500217 #
point $-1 -20.195721667417043 19.66368382305188 1.1635171958500217 #
straight-curve $-1 20.056203699433375 -42.12839128775363 5.6730907654888867 0 1 0 I I #
point $-1 20.056203699433375 -24.222741798855168 5.6730907654888867 #
straight-curve $-1 5.0964985291434637 -20.672119340590505 5.6730907654888867 -1 0 0 I I #
point $-1 20.056203699433375 -20.672119340590505 5.6730907654888867 #
point $-1 5.9659084977955885 -18.875099555263642 0.38494224899742213 #
point $-1 14.420085618778252 -18.875099555263642 0.38494224899742213 #
End-of-ACIS-data 