500 0 9 0           
7 Unknown 11 ACIS 5.0 NT 24 Thu Mar 25 23:12:00 1999 
-1 9.9999999999999995e-007 1e-010 
body $-1 $9 $-1 $10 #
body $-1 $11 $-1 $12 #
body $-1 $13 $-1 $14 #
body $-1 $15 $-1 $16 #
body $-1 $17 $-1 $18 #
body $-1 $19 $-1 $20 #
body $-1 $21 $-1 $22 #
body $-1 $23 $-1 $24 #
body $-1 $25 $-1 $26 #
lump $-1 $-1 $27 $0 #
transform $-1 1 0 0 0 1 0 0 0 1 59.251075777459029 37.624713398136706 8.8635727305794507 1 rotate no_reflect no_shear #
lump $-1 $-1 $28 $1 #
transform $-1 1 0 0 0 1 0 0 0 1 59.251075777459029 37.624713398136706 8.8635727305794507 1 rotate no_reflect no_shear #
lump $-1 $-1 $29 $2 #
transform $-1 1 0 0 0 1 0 0 0 1 59.251075777459029 37.624713398136706 8.8635727305794507 1 rotate no_reflect no_shear #
lump $-1 $-1 $30 $3 #
transform $-1 1 0 0 0 1 0 0 0 1 59.251075777459029 37.624713398136706 8.8635727305794507 1 rotate no_reflect no_shear #
lump $-1 $-1 $31 $4 #
transform $-1 1 0 0 0 1 0 0 0 1 59.251075777459029 37.624713398136706 8.8635727305794507 1 rotate no_reflect no_shear #
lump $-1 $-1 $32 $5 #
transform $-1 1 0 0 0 1 0 0 0 1 59.251075777459029 37.624713398136706 8.8635727305794507 1 rotate no_reflect no_shear #
lump $-1 $-1 $33 $6 #
transform $-1 1 0 0 0 1 0 0 0 1 59.251075777459029 37.624713398136706 8.8635727305794507 1 rotate no_reflect no_shear #
lump $-1 $-1 $34 $7 #
transform $-1 1 0 0 0 1 0 0 0 1 59.251075777459029 37.624713398136706 8.8635727305794507 1 rotate no_reflect no_shear #
lump $-1 $-1 $35 $8 #
transform $-1 1 0 0 0 1 0 0 0 1 59.251075777459029 37.624713398136706 8.8635727305794507 1 rotate no_reflect no_shear #
shell $-1 $-1 $-1 $36 $-1 $9 #
shell $-1 $-1 $-1 $37 $-1 $11 #
shell $-1 $-1 $-1 $38 $-1 $13 #
shell $-1 $-1 $-1 $39 $-1 $15 #
shell $-1 $-1 $-1 $40 $-1 $17 #
shell $-1 $-1 $-1 $41 $-1 $19 #
shell $-1 $-1 $-1 $42 $-1 $21 #
shell $-1 $-1 $-1 $43 $-1 $23 #
shell $-1 $-1 $-1 $44 $-1 $25 #
face $-1 $45 $46 $27 $-1 $47 forward single #
face $-1 $48 $49 $28 $-1 $50 forward single #
face $-1 $51 $52 $29 $-1 $53 forward single #
face $-1 $54 $55 $30 $-1 $56 reversed single #
face $-1 $57 $58 $31 $-1 $59 forward single #
face $-1 $60 $61 $32 $-1 $62 forward single #
face $-1 $63 $64 $33 $-1 $65 reversed single #
face $-1 $66 $67 $34 $-1 $68 forward single #
face $-1 $69 $70 $35 $-1 $71 forward single #
face $-1 $72 $73 $27 $-1 $74 reversed single #
loop $-1 $-1 $75 $36 #
plane-surface $-1 0 0 8.8635727305794507 0 0 1 1 0 0 forward_v I I I I #
face $-1 $76 $77 $28 $-1 $78 reversed single #
loop $-1 $-1 $79 $37 #
plane-surface $-1 -54.431604471910312 0 -3.5470521104019972 0 0 1 1 0 0 forward_v I I I I #
face $-1 $80 $81 $29 $-1 $82 reversed single #
loop $-1 $-1 $83 $38 #
plane-surface $-1 55.149124574781233 0 3.7933213207056884 0 0 1 1 0 0 forward_v I I I I #
face $-1 $84 $85 $30 $-1 $86 reversed single #
loop $-1 $-1 $87 $39 #
plane-surface $-1 -14.31671086728954 -121.41838932003567 85.681391154339792 1 0 0 0 0.70710678939079041 -0.70710677298230451 forward_v I I I I #
face $-1 $88 $89 $31 $-1 $90 forward single #
loop $-1 $91 $92 $40 #
cone-surface $-1 -10.021216304386549 -32.395114156620238 3.6339734485409303 0 0.70710678939079041 -0.70710677298230451 1.5 0 0 1 I I 0 1 1.5 forward I I I I #
face $-1 $93 $94 $32 $-1 $95 forward single #
loop $-1 $96 $97 $41 #
cone-surface $-1 -3.5779744600320669 -32.395114156620238 3.6339734485409303 0 0.70710678939079041 -0.70710677298230451 1.5 0 0 1 I I 0 1 1.5 forward I I I I #
face $-1 $98 $99 $33 $-1 $100 reversed single #
loop $-1 $-1 $101 $42 #
plane-surface $-1 36.012942401942965 -121.41838932003567 85.681391154339792 1 0 0 0 0.70710678939079041 -0.70710677298230451 forward_v I I I I #
face $-1 $102 $103 $34 $-1 $104 forward single #
loop $-1 $105 $106 $43 #
cone-surface $-1 40.30843696484596 -32.395114156620238 3.6339734485409303 0 0.70710678939079041 -0.70710677298230451 1.5 0 0 1 I I 0 1 1.5 forward I I I I #
face $-1 $107 $108 $35 $-1 $109 forward single #
loop $-1 $110 $111 $44 #
cone-surface $-1 46.751678809200449 -32.395114156620238 3.6339734485409303 0 0.70710678939079041 -0.70710677298230451 1.5 0 0 1 I I 0 1 1.5 forward I I I I #
face $-1 $112 $113 $27 $-1 $114 reversed single #
loop $-1 $-1 $115 $45 #
plane-surface $-1 0 0 -8.8635727305794507 0 0 1 1 0 0 forward_v I I I I #
coedge $-1 $116 $117 $118 $119 forward $46 $-1 #
face $-1 $120 $121 $28 $-1 $122 reversed single #
loop $-1 $-1 $123 $48 #
plane-surface $-1 -49.612133166361595 0 -6.2053124204907242 -1 0 0 0 0 1 forward_v I I I I #
coedge $-1 $124 $125 $126 $127 forward $49 $-1 #
face $-1 $128 $129 $29 $-1 $130 reversed single #
loop $-1 $-1 $131 $51 #
plane-surface $-1 55.149124574781233 0 0.79332132070568839 0 0 1 1 0 0 forward_v I I I I #
coedge $-1 $132 $133 $134 $135 reversed $52 $-1 #
face $-1 $136 $137 $30 $-1 $138 reversed single #
loop $-1 $-1 $139 $54 #
plane-surface $-1 -6.7995953822093114 -37.624713398136706 1.8877171768817078 0 -0.70710678939079041 0.70710677298230451 1 0 0 forward_v I I I I #
coedge $-1 $140 $141 $142 $143 reversed $55 $-1 #
face $-1 $-1 $144 $31 $-1 $145 forward single #
loop $-1 $146 $147 $57 #
cone-surface $-1 -10.021216304386549 -30.123112518971837 1.3619718636145581 0 0.70710678939079041 -0.70710677298230451 0.75 0 0 1 I I -0.70710678118654757 0.70710678118654757 0.75 forward I I I I #
loop $-1 $-1 $148 $40 #
coedge $-1 $92 $92 $149 $150 reversed $58 $-1 #
face $-1 $-1 $151 $32 $-1 $152 forward single #
loop $-1 $153 $154 $60 #
cone-surface $-1 -3.5779744600320669 -30.123112518971837 1.3619718636145581 0 0.70710678939079041 -0.70710677298230451 0.75 0 0 1 I I -0.70710678118654757 0.70710678118654757 0.75 forward I I I I #
loop $-1 $-1 $155 $41 #
coedge $-1 $97 $97 $156 $157 reversed $61 $-1 #
face $-1 $158 $159 $33 $-1 $160 forward single #
loop $-1 $-1 $161 $63 #
plane-surface $-1 43.530057887023197 -37.624713398136706 1.8877171768817078 0 -0.70710678939079041 0.70710677298230451 1 0 0 forward_v I I I I #
coedge $-1 $162 $163 $164 $165 reversed $64 $-1 #
face $-1 $-1 $166 $34 $-1 $167 forward single #
loop $-1 $168 $169 $66 #
cone-surface $-1 40.30843696484596 -30.123112518971837 1.3619718636145581 0 0.70710678939079041 -0.70710677298230451 0.75 0 0 1 I I -0.70710678118654757 0.70710678118654757 0.75 forward I I I I #
loop $-1 $-1 $170 $43 #
coedge $-1 $106 $106 $171 $172 reversed $67 $-1 #
face $-1 $-1 $173 $35 $-1 $174 forward single #
loop $-1 $175 $176 $69 #
cone-surface $-1 46.751678809200449 -30.123112518971837 1.3619718636145581 0 0.70710678939079041 -0.70710677298230451 0.75 0 0 1 I I -0.70710678118654757 0.70710678118654757 0.75 forward I I I I #
loop $-1 $-1 $177 $44 #
coedge $-1 $111 $111 $178 $179 reversed $70 $-1 #
face $-1 $180 $181 $27 $-1 $182 reversed single #
loop $-1 $-1 $183 $72 #
plane-surface $-1 0 -37.624713398136706 0 0 1 0 0 0 1 forward_v I I I I #
coedge $-1 $184 $185 $186 $187 forward $73 $-1 #
coedge $-1 $188 $75 $189 $190 forward $46 $-1 #
coedge $-1 $75 $188 $191 $192 forward $46 $-1 #
coedge $-1 $193 $194 $75 $119 reversed $195 $-1 #
edge $-1 $196 -37.624713398136706 $197 37.624713398136706 $118 $198 forward 7 unknown #
face $-1 $199 $200 $28 $-1 $201 reversed single #
loop $-1 $-1 $202 $76 #
plane-surface $-1 0 0 -8.8635727305794507 0 0 1 1 0 0 forward_v I I I I #
coedge $-1 $203 $126 $204 $205 reversed $77 $-1 #
coedge $-1 $206 $79 $207 $208 reversed $49 $-1 #
coedge $-1 $79 $206 $209 $210 reversed $49 $-1 #
coedge $-1 $123 $211 $79 $127 reversed $77 $-1 #
edge $-1 $212 -37.624713398136706 $213 37.624713398136706 $126 $214 forward 7 unknown #
face $-1 $215 $216 $29 $-1 $217 reversed single #
loop $-1 $-1 $218 $80 #
plane-surface $-1 51.04717337210343 0 2.2933213207056884 1 0 0 0 0 -1 forward_v I I I I #
coedge $-1 $219 $220 $221 $222 reversed $81 $-1 #
coedge $-1 $223 $83 $224 $225 reversed $52 $-1 #
coedge $-1 $83 $223 $226 $227 reversed $52 $-1 #
coedge $-1 $228 $229 $83 $135 forward $230 $-1 #
edge $-1 $231 -37.624713398136706 $232 37.624713398136706 $134 $233 forward 7 unknown #
face $-1 $234 $235 $30 $-1 $236 forward single #
loop $-1 $-1 $237 $84 #
plane-surface $-1 0.7175201028709175 -121.41838932003567 85.681391154339792 -1 0 0 0 -0.70710678939079041 0.70710677298230451 forward_v I I I I #
coedge $-1 $238 $239 $240 $241 reversed $85 $-1 #
coedge $-1 $141 $87 $242 $243 reversed $55 $-1 #
coedge $-1 $87 $140 $238 $244 reversed $55 $-1 #
coedge $-1 $240 $245 $87 $143 forward $246 $-1 #
edge $-1 $247 33.977122846590447 $248 40.952978400288188 $142 $249 forward 7 unknown #
loop $-1 $-1 $149 $88 #
plane-surface $-1 -6.7995953822093114 -37.624713398136706 1.8877171768817078 0 -0.70710678939079041 0.70710677298230451 1 0 0 forward_v I I I I #
loop $-1 $-1 $250 $57 #
coedge $-1 $147 $147 $148 $251 reversed $89 $-1 #
coedge $-1 $148 $148 $147 $251 forward $91 $-1 #
coedge $-1 $149 $149 $92 $150 forward $144 $-1 #
edge $-1 $252 4.186912494473577e-016 $252 6.2831853071796004 $149 $253 forward 7 unknown #
loop $-1 $-1 $156 $93 #
plane-surface $-1 -6.7995953822093114 -37.624713398136706 1.8877171768817078 0 -0.70710678939079041 0.70710677298230451 1 0 0 forward_v I I I I #
loop $-1 $-1 $254 $60 #
coedge $-1 $154 $154 $155 $255 reversed $94 $-1 #
coedge $-1 $155 $155 $154 $255 forward $96 $-1 #
coedge $-1 $156 $156 $97 $157 forward $151 $-1 #
edge $-1 $256 4.186912494473577e-016 $256 6.2831853071796004 $156 $257 forward 7 unknown #
face $-1 $258 $259 $33 $-1 $260 reversed single #
loop $-1 $-1 $261 $98 #
plane-surface $-1 51.04717337210343 0 2.2933213207056884 1 0 0 0 0 -1 forward_v I I I I #
coedge $-1 $262 $263 $264 $265 reversed $99 $-1 #
coedge $-1 $163 $101 $266 $267 reversed $64 $-1 #
coedge $-1 $101 $162 $262 $268 reversed $64 $-1 #
coedge $-1 $264 $269 $101 $165 forward $259 $-1 #
edge $-1 $270 33.977122846590447 $271 40.952978400288188 $164 $272 forward 7 unknown #
loop $-1 $-1 $171 $102 #
plane-surface $-1 43.530057887023197 -37.624713398136706 1.8877171768817078 0 -0.70710678939079041 0.70710677298230451 1 0 0 forward_v I I I I #
loop $-1 $-1 $273 $66 #
coedge $-1 $169 $169 $170 $274 reversed $103 $-1 #
coedge $-1 $170 $170 $169 $274 forward $105 $-1 #
coedge $-1 $171 $171 $106 $172 forward $166 $-1 #
edge $-1 $275 4.186912494473577e-016 $275 6.2831853071796004 $171 $276 forward 7 unknown #
loop $-1 $-1 $178 $107 #
plane-surface $-1 43.530057887023197 -37.624713398136706 1.8877171768817078 0 -0.70710678939079041 0.70710677298230451 1 0 0 forward_v I I I I #
loop $-1 $-1 $277 $69 #
coedge $-1 $176 $176 $177 $278 reversed $108 $-1 #
coedge $-1 $177 $177 $176 $278 forward $110 $-1 #
coedge $-1 $178 $178 $111 $179 forward $173 $-1 #
edge $-1 $279 4.186912494473577e-016 $279 6.2831853071796004 $178 $280 forward 7 unknown #
face $-1 $281 $282 $27 $-1 $283 reversed single #
loop $-1 $-1 $284 $112 #
plane-surface $-1 -59.251075777459029 0 0 1 0 0 0 0 -1 forward_v I I I I #
coedge $-1 $285 $191 $286 $287 forward $113 $-1 #
coedge $-1 $288 $115 $285 $289 forward $73 $-1 #
coedge $-1 $115 $288 $290 $291 forward $73 $-1 #
coedge $-1 $194 $193 $115 $187 reversed $195 $-1 #
edge $-1 $292 -37.624713398136706 $293 37.624713398136706 $186 $294 forward 7 unknown #
coedge $-1 $117 $116 $295 $296 forward $46 $-1 #
coedge $-1 $297 $298 $116 $190 reversed $282 $-1 #
edge $-1 $197 -59.251075777459029 $299 59.251075777459029 $189 $300 forward 7 unknown #
coedge $-1 $183 $301 $117 $192 reversed $113 $-1 #
edge $-1 $302 -59.251075777459029 $196 59.251075777459029 $191 $303 forward 7 unknown #
coedge $-1 $186 $118 $301 $304 forward $195 $-1 #
coedge $-1 $118 $186 $297 $305 reversed $195 $-1 #
loop $-1 $-1 $193 $281 #
vertex $-1 $119 $306 #
vertex $-1 $119 $307 #
straight-curve $-1 59.251075777459029 0 8.8635727305794507 0 1 0 I I #
face $-1 $308 $309 $28 $-1 $310 reversed single #
loop $-1 $-1 $204 $120 #
plane-surface $-1 0 -37.624713398136706 0 0 1 0 0 0 1 forward_v I I I I #
coedge $-1 $311 $312 $203 $313 forward $121 $-1 #
coedge $-1 $211 $123 $202 $313 reversed $77 $-1 #
coedge $-1 $209 $314 $123 $205 forward $200 $-1 #
edge $-1 $315 -5.7609165203340886 $212 -0.4443959001566351 $204 $316 forward 7 unknown #
coedge $-1 $125 $124 $317 $318 reversed $49 $-1 #
coedge $-1 $319 $320 $124 $208 forward $321 $-1 #
edge $-1 $322 -32.035273541503869 $213 -22.396330930406439 $207 $323 forward 7 unknown #
coedge $-1 $324 $204 $125 $210 forward $200 $-1 #
edge $-1 $212 22.396330930406439 $325 32.035273541503869 $209 $326 forward 7 unknown #
coedge $-1 $126 $203 $319 $327 reversed $77 $-1 #
vertex $-1 $210 $328 #
vertex $-1 $208 $329 #
straight-curve $-1 -49.612133166361595 0 -3.5470521104019972 0 1 0 I I #
face $-1 $330 $331 $29 $-1 $332 reversed single #
loop $-1 $-1 $226 $128 #
plane-surface $-1 0 -37.624713398136706 0 0 1 0 0 0 1 forward_v I I I I #
coedge $-1 $333 $334 $223 $335 reversed $129 $-1 #
coedge $-1 $336 $131 $337 $338 reversed $81 $-1 #
coedge $-1 $131 $336 $339 $340 reversed $81 $-1 #
coedge $-1 $229 $228 $131 $222 forward $230 $-1 #
edge $-1 $341 -37.624713398136706 $342 37.624713398136706 $221 $343 forward 7 unknown #
coedge $-1 $133 $132 $218 $335 forward $52 $-1 #
coedge $-1 $344 $345 $132 $225 forward $331 $-1 #
edge $-1 $346 23.472611084712813 $231 31.67651349006842 $224 $347 forward 7 unknown #
coedge $-1 $348 $349 $133 $227 forward $216 $-1 #
edge $-1 $232 -31.67651349006842 $350 -23.472611084712813 $226 $351 forward 7 unknown #
coedge $-1 $221 $134 $349 $352 forward $230 $-1 #
coedge $-1 $134 $221 $344 $353 reversed $230 $-1 #
loop $-1 $-1 $134 $330 #
vertex $-1 $353 $354 #
vertex $-1 $352 $355 #
straight-curve $-1 59.251075777459029 0 3.7933213207056884 0 -1 0 I I #
face $-1 $-1 $246 $30 $-1 $356 reversed single #
loop $-1 $-1 $357 $136 #
plane-surface $-1 0 0 8.8635727305794507 0 0 1 1 0 0 forward_v I I I I #
coedge $-1 $358 $359 $360 $361 reversed $137 $-1 #
coedge $-1 $362 $139 $141 $244 forward $85 $-1 #
coedge $-1 $139 $362 $358 $363 forward $85 $-1 #
coedge $-1 $360 $142 $139 $241 forward $246 $-1 #
edge $-1 $248 -10.916913176184885 $364 4.1173177939755732 $240 $365 forward 7 unknown #
coedge $-1 $366 $367 $140 $243 forward $235 $-1 #
edge $-1 $368 -30.060336653703427 $247 -23.08448126188113 $242 $369 forward 7 unknown #
edge $-1 $248 0 $368 9.8653494187318014 $141 $370 forward 7 unknown #
coedge $-1 $142 $360 $366 $371 reversed $246 $-1 #
loop $-1 $-1 $360 $234 #
vertex $-1 $371 $372 #
vertex $-1 $143 $373 #
straight-curve $-1 -14.31671086728954 -37.624713398136706 42.840695577169896 0 0 -1 I I #
coedge $-1 $250 $250 $-1 $374 reversed $146 $-1 #
edge $-1 $375 0 $375 6.2831853071796004 $147 $376 forward 7 unknown #
vertex $-1 $150 $377 #
ellipse-curve $-1 -10.021216304386549 -34.136785702225559 5.375644953730581 0 -0.70710678939079041 0.70710677298230451 1.5 0 0 1 I I #
coedge $-1 $254 $254 $-1 $378 reversed $153 $-1 #
edge $-1 $379 0 $379 6.2831853071796004 $154 $380 forward 7 unknown #
vertex $-1 $157 $381 #
ellipse-curve $-1 -3.5779744600320669 -34.136785702225559 5.375644953730581 0 -0.70710678939079041 0.70710677298230451 1.5 0 0 1 I I #
face $-1 $-1 $382 $33 $-1 $383 forward single #
loop $-1 $-1 $164 $158 #
plane-surface $-1 0 -37.624713398136706 0 0 1 0 0 0 1 forward_v I I I I #
coedge $-1 $384 $385 $263 $386 reversed $159 $-1 #
coedge $-1 $387 $161 $163 $268 forward $99 $-1 #
coedge $-1 $161 $387 $261 $386 forward $99 $-1 #
coedge $-1 $388 $164 $161 $265 forward $259 $-1 #
edge $-1 $271 14.247913458431366 $389 29.282144428591831 $264 $390 forward 7 unknown #
coedge $-1 $391 $392 $162 $267 forward $382 $-1 #
edge $-1 $393 -30.060336653703427 $270 -23.08448126188113 $266 $394 forward 7 unknown #
edge $-1 $271 0 $393 9.8653494187318014 $163 $395 forward 7 unknown #
coedge $-1 $164 $388 $391 $396 reversed $259 $-1 #
vertex $-1 $396 $397 #
vertex $-1 $165 $398 #
straight-curve $-1 36.012942401942965 -37.624713398136706 42.840695577169896 0 0 -1 I I #
coedge $-1 $273 $273 $-1 $399 reversed $168 $-1 #
edge $-1 $400 0 $400 6.2831853071796004 $169 $401 forward 7 unknown #
vertex $-1 $172 $402 #
ellipse-curve $-1 40.30843696484596 -34.136785702225559 5.375644953730581 0 -0.70710678939079041 0.70710677298230451 1.5 0 0 1 I I #
coedge $-1 $277 $277 $-1 $403 reversed $175 $-1 #
edge $-1 $404 0 $404 6.2831853071796004 $176 $405 forward 7 unknown #
vertex $-1 $179 $406 #
ellipse-curve $-1 46.751678809200449 -34.136785702225559 5.375644953730581 0 -0.70710678939079041 0.70710677298230451 1.5 0 0 1 I I #
face $-1 $-1 $195 $27 $-1 $407 reversed single #
loop $-1 $-1 $297 $180 #
plane-surface $-1 0 37.624713398136706 0 0 -1 0 0 0 -1 forward_v I I I I #
coedge $-1 $408 $295 $298 $409 forward $181 $-1 #
coedge $-1 $301 $183 $184 $289 reversed $113 $-1 #
coedge $-1 $295 $408 $183 $287 reversed $181 $-1 #
edge $-1 $302 -8.8635727305794507 $410 8.8635727305794507 $286 $411 forward 7 unknown #
coedge $-1 $185 $184 $408 $412 forward $73 $-1 #
edge $-1 $293 -59.251075777459029 $410 59.251075777459029 $285 $413 forward 7 unknown #
coedge $-1 $298 $297 $185 $291 reversed $282 $-1 #
edge $-1 $414 -59.251075777459029 $292 59.251075777459029 $290 $415 forward 7 unknown #
vertex $-1 $187 $416 #
vertex $-1 $304 $417 #
straight-curve $-1 59.251075777459029 0 -8.8635727305794507 0 -1 0 I I #
coedge $-1 $284 $286 $188 $296 reversed $181 $-1 #
edge $-1 $299 -37.624713398136706 $302 37.624713398136706 $295 $418 forward 7 unknown #
coedge $-1 $290 $189 $194 $305 forward $282 $-1 #
coedge $-1 $189 $290 $284 $409 reversed $282 $-1 #
vertex $-1 $190 $419 #
straight-curve $-1 0 37.624713398136706 8.8635727305794507 -1 0 0 I I #
coedge $-1 $191 $285 $193 $304 reversed $113 $-1 #
vertex $-1 $296 $420 #
straight-curve $-1 0 -37.624713398136706 8.8635727305794507 1 0 0 I I #
edge $-1 $196 -8.8635727305794507 $293 8.8635727305794507 $193 $421 forward 7 unknown #
edge $-1 $197 -8.8635727305794507 $292 8.8635727305794507 $194 $422 forward 7 unknown #
point $-1 59.251075777459029 -37.624713398136706 8.8635727305794507 #
point $-1 59.251075777459029 37.624713398136706 8.8635727305794507 #
face $-1 $-1 $321 $28 $-1 $423 reversed single #
loop $-1 $-1 $317 $199 #
plane-surface $-1 -59.251075777459029 0 0 1 0 0 0 0 -1 forward_v I I I I #
coedge $-1 $424 $202 $314 $425 forward $121 $-1 #
coedge $-1 $202 $424 $426 $427 forward $121 $-1 #
edge $-1 $428 -37.624713398136706 $315 37.624713398136706 $202 $429 forward 7 unknown #
coedge $-1 $204 $324 $311 $425 reversed $200 $-1 #
vertex $-1 $425 $430 #
straight-curve $-1 -49.612133166361595 -37.624713398136706 -3.1026562102453621 0 0 1 I I #
coedge $-1 $431 $432 $206 $318 forward $309 $-1 #
edge $-1 $325 -37.624713398136706 $322 37.624713398136706 $317 $433 forward 7 unknown #
coedge $-1 $426 $207 $211 $327 forward $321 $-1 #
coedge $-1 $207 $426 $431 $434 reversed $321 $-1 #
loop $-1 $-1 $319 $308 #
vertex $-1 $434 $435 #
straight-curve $-1 -27.215802235955156 37.624713398136706 -3.5470521104019972 1 0 0 I I #
coedge $-1 $314 $209 $432 $436 forward $200 $-1 #
vertex $-1 $436 $437 #
straight-curve $-1 -27.215802235955156 -37.624713398136706 -3.5470521104019972 -1 0 0 I I #
edge $-1 $213 0.4443959001566351 $428 5.7609165203340886 $319 $438 forward 7 unknown #
point $-1 -49.612133166361595 -37.624713398136706 -3.5470521104019972 #
point $-1 -49.612133166361595 37.624713398136706 -3.5470521104019972 #
face $-1 $-1 $230 $29 $-1 $439 reversed single #
loop $-1 $-1 $224 $215 #
plane-surface $-1 0 37.624713398136706 0 0 -1 0 0 0 -1 forward_v I I I I #
coedge $-1 $440 $218 $345 $441 reversed $129 $-1 #
coedge $-1 $218 $440 $348 $442 reversed $129 $-1 #
edge $-1 $346 -37.624713398136706 $350 37.624713398136706 $218 $443 forward 7 unknown #
coedge $-1 $220 $219 $440 $444 forward $81 $-1 #
coedge $-1 $349 $348 $219 $338 forward $216 $-1 #
edge $-1 $445 23.472611084712813 $341 31.67651349006842 $337 $446 forward 7 unknown #
coedge $-1 $345 $344 $220 $340 forward $331 $-1 #
edge $-1 $342 -31.67651349006842 $447 -23.472611084712813 $339 $448 forward 7 unknown #
vertex $-1 $222 $449 #
vertex $-1 $222 $450 #
straight-curve $-1 59.251075777459029 0 0.79332132070568839 0 1 0 I I #
coedge $-1 $339 $224 $229 $353 forward $331 $-1 #
coedge $-1 $224 $339 $333 $441 forward $331 $-1 #
vertex $-1 $225 $451 #
straight-curve $-1 27.574562287390616 37.624713398136706 3.7933213207056884 1 0 0 I I #
coedge $-1 $337 $226 $334 $442 forward $216 $-1 #
coedge $-1 $226 $337 $228 $352 reversed $216 $-1 #
vertex $-1 $227 $452 #
straight-curve $-1 27.574562287390616 -37.624713398136706 3.7933213207056884 -1 0 0 I I #
edge $-1 $232 -3.7933213207056884 $341 -0.79332132070568839 $228 $453 forward 7 unknown #
edge $-1 $231 -3.7933213207056884 $342 -0.79332132070568839 $229 $454 forward 7 unknown #
point $-1 59.251075777459036 37.624713398136706 3.7933213207056884 #
point $-1 59.251075777459036 -37.624713398136706 3.7933213207056884 #
plane-surface $-1 0 -37.624713398136706 0 0 1 0 0 0 1 forward_v I I I I #
coedge $-1 $367 $366 $359 $455 forward $235 $-1 #
coedge $-1 $359 $237 $239 $363 reversed $137 $-1 #
coedge $-1 $237 $358 $357 $455 reversed $137 $-1 #
coedge $-1 $245 $240 $237 $361 forward $246 $-1 #
edge $-1 $364 -40.952978400288188 $456 -33.977122846590447 $360 $457 forward 7 unknown #
coedge $-1 $239 $238 $367 $458 reversed $85 $-1 #
edge $-1 $459 -9.8653494187318014 $364 0 $358 $460 forward 7 unknown #
vertex $-1 $241 $461 #
straight-curve $-1 -3.3997976911046557 -37.624713398136706 1.8877171768817045 1 0 0 I I #
coedge $-1 $357 $242 $245 $371 forward $235 $-1 #
coedge $-1 $242 $357 $362 $458 forward $235 $-1 #
vertex $-1 $243 $462 #
straight-curve $-1 -14.31671086728954 -60.709194660017836 8.8635727305794489 0 -1 0 I I #
straight-curve $-1 -14.31671086728954 -37.624713398136706 1.8877171768817078 0 0.70710677298230451 0.70710678939079041 I I #
edge $-1 $247 -14.31671086728954 $456 0.7175201028709175 $245 $463 forward 7 unknown #
point $-1 -14.31671086728954 -37.624713398136706 8.8635727305794507 #
point $-1 -14.31671086728954 -37.624713398136706 1.8877171768817078 #
edge $-1 $464 1 $464 0 $250 $-1 forward 7 unknown #
vertex $-1 $251 $465 #
ellipse-curve $-1 -10.021216304386549 -30.653442611014931 1.8923019433512867 0 -0.70710678939079041 0.70710677298230451 1.5 0 0 1 I I #
point $-1 -8.5212163043865488 -34.136785702225552 5.3756449537305748 #
edge $-1 $466 1 $466 0 $254 $-1 forward 7 unknown #
vertex $-1 $255 $467 #
ellipse-curve $-1 -3.5779744600320669 -30.653442611014931 1.8923019433512867 0 -0.70710678939079041 0.70710677298230451 1.5 0 0 1 I I #
point $-1 -2.0779744600320669 -34.136785702225552 5.3756449537305748 #
loop $-1 $-1 $266 $258 #
plane-surface $-1 0 0 8.8635727305794507 0 0 1 1 0 0 forward_v I I I I #
coedge $-1 $385 $261 $468 $469 reversed $159 $-1 #
coedge $-1 $261 $384 $388 $470 reversed $159 $-1 #
edge $-1 $471 -9.8653494187318014 $389 0 $261 $472 forward 7 unknown #
coedge $-1 $263 $262 $392 $473 reversed $99 $-1 #
coedge $-1 $269 $264 $385 $470 forward $259 $-1 #
vertex $-1 $470 $474 #
straight-curve $-1 21.765028943511599 -37.624713398136706 1.8877171768817045 1 0 0 I I #
coedge $-1 $468 $266 $269 $396 forward $382 $-1 #
coedge $-1 $266 $468 $387 $473 forward $382 $-1 #
vertex $-1 $267 $475 #
straight-curve $-1 36.012942401942965 -60.709194660017836 8.8635727305794489 0 -1 0 I I #
straight-curve $-1 36.012942401942965 -37.624713398136706 1.8877171768817078 0 0.70710677298230451 0.70710678939079041 I I #
edge $-1 $270 36.012942401942965 $476 51.04717337210343 $269 $477 forward 7 unknown #
point $-1 36.012942401942965 -37.624713398136706 8.8635727305794507 #
point $-1 36.012942401942965 -37.624713398136706 1.8877171768817078 #
edge $-1 $478 1 $478 0 $273 $-1 forward 7 unknown #
vertex $-1 $274 $479 #
ellipse-curve $-1 40.30843696484596 -30.653442611014931 1.8923019433512867 0 -0.70710678939079041 0.70710677298230451 1.5 0 0 1 I I #
point $-1 41.80843696484596 -34.136785702225552 5.3756449537305748 #
edge $-1 $480 1 $480 0 $277 $-1 forward 7 unknown #
vertex $-1 $278 $481 #
ellipse-curve $-1 46.751678809200449 -30.653442611014931 1.8923019433512867 0 -0.70710678939079041 0.70710677298230451 1.5 0 0 1 I I #
point $-1 48.251678809200449 -34.136785702225552 5.3756449537305748 #
plane-surface $-1 59.251075777459029 0 0 -1 0 0 0 0 1 forward_v I I I I #
coedge $-1 $286 $284 $288 $412 reversed $181 $-1 #
edge $-1 $299 -8.8635727305794507 $414 8.8635727305794507 $298 $482 forward 7 unknown #
vertex $-1 $412 $483 #
straight-curve $-1 -59.251075777459029 -37.624713398136706 0 0 0 -1 I I #
edge $-1 $410 -37.624713398136706 $414 37.624713398136706 $408 $484 forward 7 unknown #
straight-curve $-1 0 -37.624713398136706 -8.8635727305794507 -1 0 0 I I #
vertex $-1 $291 $485 #
straight-curve $-1 0 37.624713398136706 -8.8635727305794507 1 0 0 I I #
point $-1 59.251075777459029 37.624713398136706 -8.8635727305794507 #
point $-1 59.251075777459029 -37.624713398136706 -8.8635727305794507 #
straight-curve $-1 -59.251075777459029 0 8.8635727305794507 0 -1 0 I I #
point $-1 -59.251075777459029 37.624713398136706 8.8635727305794507 #
point $-1 -59.251075777459029 -37.624713398136706 8.8635727305794507 #
straight-curve $-1 59.251075777459029 -37.624713398136706 0 0 0 -1 I I #
straight-curve $-1 59.251075777459029 37.624713398136706 0 0 0 -1 I I #
plane-surface $-1 0 37.624713398136706 0 0 -1 0 0 0 -1 forward_v I I I I #
coedge $-1 $312 $311 $486 $487 forward $121 $-1 #
edge $-1 $315 49.612133166361595 $488 59.251075777459029 $314 $489 forward 7 unknown #
coedge $-1 $320 $319 $312 $427 reversed $321 $-1 #
edge $-1 $490 -59.251075777459029 $428 -49.612133166361595 $426 $491 forward 7 unknown #
vertex $-1 $327 $492 #
straight-curve $-1 -49.612133166361595 0 -8.8635727305794507 0 -1 0 I I #
point $-1 -49.612133166361595 -37.624713398136706 -8.8635727305794507 #
coedge $-1 $486 $317 $320 $434 forward $309 $-1 #
coedge $-1 $317 $486 $324 $436 reversed $309 $-1 #
straight-curve $-1 -59.251075777459029 0 -3.5470521104019972 0 1 0 I I #
edge $-1 $322 3.5470521104019972 $490 8.8635727305794507 $320 $493 forward 7 unknown #
point $-1 -59.251075777459029 37.624713398136706 -3.5470521104019972 #
edge $-1 $325 3.5470521104019972 $488 8.8635727305794507 $432 $494 forward 7 unknown #
point $-1 -59.251075777459029 -37.624713398136706 -3.5470521104019972 #
straight-curve $-1 -49.612133166361595 37.624713398136706 -3.1026562102453621 0 0 -1 I I #
plane-surface $-1 59.251075777459029 0 0 -1 0 0 0 0 1 forward_v I I I I #
coedge $-1 $334 $333 $336 $444 reversed $129 $-1 #
edge $-1 $447 -0.3533393396471558 $346 2.6466606603528442 $345 $495 forward 7 unknown #
edge $-1 $350 -2.6466606603528442 $445 0.3533393396471558 $348 $496 forward 7 unknown #
straight-curve $-1 51.04717337210343 0 3.7933213207056884 0 -1 0 I I #
edge $-1 $445 -37.624713398136706 $447 37.624713398136706 $440 $497 forward 7 unknown #
vertex $-1 $338 $498 #
straight-curve $-1 27.574562287390616 -37.624713398136706 0.79332132070568839 1 0 0 I I #
vertex $-1 $340 $499 #
straight-curve $-1 27.574562287390616 37.624713398136706 0.79332132070568839 -1 0 0 I I #
point $-1 59.251075777459036 -37.624713398136706 0.79332132070568839 #
point $-1 59.251075777459036 37.624713398136706 0.79332132070568839 #
point $-1 51.04717337210343 37.624713398136706 3.7933213207056884 #
point $-1 51.04717337210343 -37.624713398136706 3.7933213207056884 #
straight-curve $-1 59.251075777459029 -37.624713398136706 0 0 0 -1 I I #
straight-curve $-1 59.251075777459029 37.624713398136706 0 0 0 -1 I I #
edge $-1 $456 23.08448126188113 $459 30.060336653703427 $357 $500 forward 7 unknown #
vertex $-1 $455 $501 #
straight-curve $-1 0.7175201028709175 -37.624713398136706 42.840695577169896 0 0 1 I I #
edge $-1 $459 -4.1173177939755732 $368 10.916913176184885 $367 $502 forward 7 unknown #
vertex $-1 $458 $503 #
straight-curve $-1 0.7175201028709175 -37.624713398136706 1.8877171768817078 0 -0.70710677298230451 -0.70710678939079041 I I #
point $-1 0.7175201028709175 -37.624713398136706 1.8877171768817078 #
point $-1 -14.31671086728954 -30.648858006314409 8.8635727305794507 #
straight-curve $-1 0 -37.624713398136706 8.8635727305794507 1 0 0 I I #
vertex $-1 $374 $504 #
point $-1 -8.5212163043865488 -30.653442611014931 1.8923019433512867 #
vertex $-1 $378 $505 #
point $-1 -2.0779744600320669 -30.653442611014931 1.8923019433512867 #
coedge $-1 $392 $391 $384 $469 forward $382 $-1 #
edge $-1 $476 23.08448126188113 $471 30.060336653703427 $468 $506 forward 7 unknown #
edge $-1 $389 -40.952978400288188 $476 -33.977122846590447 $388 $507 forward 7 unknown #
vertex $-1 $469 $508 #
straight-curve $-1 51.04717337210343 -37.624713398136706 1.8877171768817078 0 -0.70710677298230451 -0.70710678939079041 I I #
edge $-1 $471 -29.282144428591831 $393 -14.247913458431366 $392 $509 forward 7 unknown #
point $-1 51.04717337210343 -37.624713398136706 1.8877171768817078 #
point $-1 36.012942401942965 -30.648858006314409 8.8635727305794507 #
vertex $-1 $469 $510 #
straight-curve $-1 0 -37.624713398136706 8.8635727305794507 1 0 0 I I #
vertex $-1 $399 $511 #
point $-1 41.80843696484596 -30.653442611014931 1.8923019433512867 #
vertex $-1 $403 $512 #
point $-1 48.251678809200449 -30.653442611014931 1.8923019433512867 #
straight-curve $-1 -59.251075777459029 37.624713398136706 0 0 0 -1 I I #
point $-1 -59.251075777459029 -37.624713398136706 -8.8635727305794507 #
straight-curve $-1 -59.251075777459029 0 -8.8635727305794507 0 1 0 I I #
point $-1 -59.251075777459029 37.624713398136706 -8.8635727305794507 #
coedge $-1 $432 $431 $424 $487 reversed $309 $-1 #
edge $-1 $488 -37.624713398136706 $490 37.624713398136706 $486 $513 forward 7 unknown #
vertex $-1 $487 $514 #
straight-curve $-1 0 -37.624713398136706 -8.8635727305794507 -1 0 0 I I #
vertex $-1 $427 $515 #
straight-curve $-1 0 37.624713398136706 -8.8635727305794507 1 0 0 I I #
point $-1 -49.612133166361595 37.624713398136706 -8.8635727305794507 #
straight-curve $-1 -59.251075777459029 37.624713398136706 0 0 0 -1 I I #
straight-curve $-1 -59.251075777459029 -37.624713398136706 0 0 0 -1 I I #
straight-curve $-1 51.04717337210343 37.624713398136706 1.1466606603528442 0 0 1 I I #
straight-curve $-1 51.04717337210343 -37.624713398136706 1.1466606603528442 0 0 -1 I I #
straight-curve $-1 51.04717337210343 0 0.79332132070568839 0 1 0 I I #
point $-1 51.04717337210343 -37.624713398136706 0.79332132070568839 #
point $-1 51.04717337210343 37.624713398136706 0.79332132070568839 #
straight-curve $-1 0.7175201028709175 -60.709194660017836 8.8635727305794489 0 1 0 I I #
point $-1 0.7175201028709175 -37.624713398136706 8.8635727305794507 #
straight-curve $-1 -3.3997976911046557 -30.648858006314406 8.8635727305794507 -1 0 0 I I #
point $-1 0.7175201028709175 -30.648858006314409 8.8635727305794507 #
point $-1 -10.021216304386549 -29.592782426928743 0.83164178387782972 #
point $-1 -3.5779744600320669 -29.592782426928743 0.83164178387782972 #
straight-curve $-1 51.04717337210343 -60.709194660017836 8.8635727305794489 0 1 0 I I #
straight-curve $-1 51.04717337210343 -37.624713398136706 42.840695577169896 0 0 1 I I #
point $-1 51.04717337210343 -30.648858006314409 8.8635727305794507 #
straight-curve $-1 21.765028943511599 -30.648858006314406 8.8635727305794507 -1 0 0 I I #
point $-1 51.04717337210343 -37.624713398136706 8.8635727305794507 #
point $-1 40.30843696484596 -29.592782426928743 0.83164178387782972 #
point $-1 46.751678809200449 -29.592782426928743 0.83164178387782972 #
straight-curve $-1 -59.251075777459029 0 -8.8635727305794507 0 1 0 I I #
point $-1 -59.251075777459029 -37.624713398136706 -8.8635727305794507 #
point $-1 -59.251075777459029 37.624713398136706 -8.8635727305794507 #
End-of-ACIS-data 