500 0 12 0           
7 Unknown 11 ACIS 5.0 NT 24 Fri Mar 26 01:48:44 1999 
-1 9.9999999999999995e-007 1e-010 
body $-1 $12 $-1 $13 #
body $-1 $14 $-1 $15 #
body $-1 $16 $-1 $17 #
body $-1 $18 $-1 $19 #
body $-1 $20 $-1 $21 #
body $-1 $22 $-1 $23 #
body $-1 $24 $-1 $25 #
body $-1 $26 $-1 $27 #
body $-1 $28 $-1 $29 #
body $-1 $30 $-1 $31 #
body $-1 $32 $-1 $33 #
body $-1 $34 $-1 $35 #
lump $-1 $-1 $36 $0 #
transform $-1 1 0 0 0 1 0 0 0 1 43.841669972838524 27.207872521062999 11.632036005304581 1 rotate no_reflect no_shear #
lump $-1 $-1 $37 $1 #
transform $-1 1 0 0 0 1 0 0 0 1 43.841669972838524 27.207872521062999 11.632036005304581 1 rotate no_reflect no_shear #
lump $-1 $-1 $38 $2 #
transform $-1 1 0 0 0 1 0 0 0 1 43.841669972838524 27.207872521062999 11.632036005304581 1 rotate no_reflect no_shear #
lump $-1 $-1 $39 $3 #
transform $-1 1 0 0 0 1 0 0 0 1 43.841669972838524 27.207872521062999 11.632036005304581 1 rotate no_reflect no_shear #
lump $-1 $-1 $40 $4 #
transform $-1 1 0 0 0 1 0 0 0 1 43.841669972838524 27.207872521062999 11.632036005304581 1 rotate no_reflect no_shear #
lump $-1 $-1 $41 $5 #
transform $-1 1 0 0 0 1 0 0 0 1 43.841669972838524 27.207872521062999 11.632036005304581 1 rotate no_reflect no_shear #
lump $-1 $-1 $42 $6 #
transform $-1 1 0 0 0 1 0 0 0 1 43.841669972838524 27.207872521062999 11.632036005304581 1 rotate no_reflect no_shear #
lump $-1 $-1 $43 $7 #
transform $-1 1 0 0 0 1 0 0 0 1 43.841669972838524 27.207872521062999 11.632036005304581 1 rotate no_reflect no_shear #
lump $-1 $-1 $44 $8 #
transform $-1 1 0 0 0 1 0 0 0 1 43.841669972838524 27.207872521062999 11.632036005304581 1 rotate no_reflect no_shear #
lump $-1 $-1 $45 $9 #
transform $-1 1 0 0 0 1 0 0 0 1 43.841669972838524 27.207872521062999 11.632036005304581 1 rotate no_reflect no_shear #
lump $-1 $-1 $46 $10 #
transform $-1 1 0 0 0 1 0 0 0 1 43.841669972838524 27.207872521062999 11.632036005304581 1 rotate no_reflect no_shear #
lump $-1 $-1 $47 $11 #
transform $-1 1 0 0 0 1 0 0 0 1 43.841669972838524 27.207872521062999 11.632036005304581 1 rotate no_reflect no_shear #
shell $-1 $-1 $-1 $48 $-1 $12 #
shell $-1 $-1 $-1 $49 $-1 $14 #
shell $-1 $-1 $-1 $50 $-1 $16 #
shell $-1 $-1 $-1 $51 $-1 $18 #
shell $-1 $-1 $-1 $52 $-1 $20 #
shell $-1 $-1 $-1 $53 $-1 $22 #
shell $-1 $-1 $-1 $54 $-1 $24 #
shell $-1 $-1 $-1 $55 $-1 $26 #
shell $-1 $-1 $-1 $56 $-1 $28 #
shell $-1 $-1 $-1 $57 $-1 $30 #
shell $-1 $-1 $-1 $58 $-1 $32 #
shell $-1 $-1 $-1 $59 $-1 $34 #
face $-1 $60 $61 $36 $-1 $62 forward single #
face $-1 $63 $64 $37 $-1 $65 forward single #
face $-1 $66 $67 $38 $-1 $68 reversed single #
face $-1 $69 $70 $39 $-1 $71 forward single #
face $-1 $72 $73 $40 $-1 $74 forward single #
face $-1 $75 $76 $41 $-1 $77 reversed single #
face $-1 $78 $79 $42 $-1 $80 forward single #
face $-1 $81 $82 $43 $-1 $83 forward single #
face $-1 $84 $85 $44 $-1 $86 reversed single #
face $-1 $87 $88 $45 $-1 $89 forward single #
face $-1 $90 $91 $46 $-1 $92 reversed single #
face $-1 $93 $94 $47 $-1 $95 forward single #
face $-1 $96 $97 $36 $-1 $98 reversed single #
loop $-1 $-1 $99 $48 #
plane-surface $-1 0 0 11.632036005304581 0 0 1 1 0 0 forward_v I I I I #
face $-1 $100 $101 $37 $-1 $102 reversed single #
loop $-1 $-1 $103 $49 #
plane-surface $-1 0 -27.207872521062999 0 0 1 0 0 0 1 forward_v I I I I #
face $-1 $104 $105 $38 $-1 $106 reversed single #
loop $-1 $-1 $107 $50 #
plane-surface $-1 -95.380644723098058 -12.679632226155366 72.249754160639455 0 1 0 -0.5877852598018023 0 0.80901698891910034 forward_v I I I I #
face $-1 $108 $109 $39 $-1 $110 forward single #
loop $-1 $111 $112 $51 #
cone-surface $-1 -36.44592651750466 -9.5238636413972273 6.067730757901705 0.5877852598018023 0 -0.80901698891910034 0.40450849445955017 0 0.29389262990090115 1 I I 0 1 0.5 forward I I I I #
face $-1 $113 $114 $40 $-1 $115 forward single #
loop $-1 $116 $117 $52 #
cone-surface $-1 -36.44592651750466 -4.7902107642600207 6.067730757901705 0.5877852598018023 0 -0.80901698891910034 0.40450849445955017 0 0.29389262990090115 1 I I 0 1 0.5 forward I I I I #
face $-1 $118 $119 $41 $-1 $120 reversed single #
loop $-1 $-1 $121 $53 #
plane-surface $-1 -95.380644723098058 9.5027300206922547 72.249754160639455 0 1 0 -0.5877852598018023 0 0.80901698891910034 forward_v I I I I #
face $-1 $122 $123 $42 $-1 $124 forward single #
loop $-1 $125 $126 $54 #
cone-surface $-1 -36.44592651750466 12.658498605450401 6.067730757901705 0.5877852598018023 0 -0.80901698891910034 0.40450849445955017 0 0.29389262990090115 1 I I 0 1 0.5 forward I I I I #
face $-1 $127 $128 $43 $-1 $129 forward single #
loop $-1 $130 $131 $55 #
cone-surface $-1 -36.44592651750466 17.392151482587604 6.067730757901705 0.5877852598018023 0 -0.80901698891910034 0.40450849445955017 0 0.29389262990090115 1 I I 0 1 0.5 forward I I I I #
face $-1 $132 $133 $44 $-1 $134 reversed single #
loop $-1 $-1 $135 $56 #
plane-surface $-1 33.034100420377406 -4.0105910341852438 128.06563881246956 0 -1 0 -0.64278761758704617 0 -0.76604443648966558 forward_v I I I I #
face $-1 $136 $137 $45 $-1 $138 forward single #
loop $-1 $139 $140 $57 #
cone-surface $-1 38.996298185957848 -8.8240533737964704 7.349002749384308 -0.64278761758704617 0 -0.76604443648966558 1.1490666547344983 0 -0.96418142638056925 1 I I 0 1 1.5 forward I I I I #
face $-1 $141 $142 $46 $-1 $143 reversed single #
loop $-1 $-1 $144 $58 #
plane-surface $-1 33.034100420377406 23.688536261838447 128.06563881246956 0 -1 0 -0.64278761758704617 0 -0.76604443648966558 forward_v I I I I #
face $-1 $145 $146 $47 $-1 $147 forward single #
loop $-1 $148 $149 $59 #
cone-surface $-1 38.996298185957848 18.875073922227219 7.349002749384308 -0.64278761758704617 0 -0.76604443648966558 1.1490666547344983 0 -0.96418142638056925 1 I I 0 1 1.5 forward I I I I #
face $-1 $150 $151 $36 $-1 $152 reversed single #
loop $-1 $-1 $153 $60 #
plane-surface $-1 0 0 -11.632036005304581 0 0 1 1 0 0 forward_v I I I I #
coedge $-1 $154 $155 $156 $157 forward $61 $-1 #
face $-1 $158 $159 $37 $-1 $160 forward single #
loop $-1 $-1 $161 $63 #
plane-surface $-1 -43.841669972838524 0 0 1 0 0 0 0 -1 forward_v I I I I #
coedge $-1 $162 $163 $164 $165 forward $64 $-1 #
face $-1 $166 $167 $38 $-1 $168 reversed single #
loop $-1 $-1 $169 $66 #
plane-surface $-1 -43.841669972838524 -7.1570372028286258 1.3124424994179407 -0.5877852598018023 0 0.80901698891910034 0.80901698891910034 0 0.5877852598018023 forward_v I I I I #
coedge $-1 $170 $171 $172 $173 reversed $67 $-1 #
face $-1 $-1 $174 $39 $-1 $175 forward single #
loop $-1 $176 $177 $69 #
cone-surface $-1 -36.005087572653309 -9.5238636413972273 5.4609680162123801 0.5877852598018023 0 -0.80901698891910034 0.20225424722977509 0 0.14694631495045057 1 I I -0.70710678118654746 0.70710678118654746 0.25 forward I I I I #
loop $-1 $-1 $178 $51 #
coedge $-1 $112 $112 $179 $180 reversed $70 $-1 #
face $-1 $-1 $181 $40 $-1 $182 forward single #
loop $-1 $183 $184 $72 #
cone-surface $-1 -36.005087572653309 -4.7902107642600207 5.4609680162123801 0.5877852598018023 0 -0.80901698891910034 0.20225424722977509 0 0.14694631495045057 1 I I -0.70710678118654746 0.70710678118654746 0.25 forward I I I I #
loop $-1 $-1 $185 $52 #
coedge $-1 $117 $117 $186 $187 reversed $73 $-1 #
face $-1 $188 $189 $41 $-1 $190 reversed single #
loop $-1 $-1 $191 $75 #
plane-surface $-1 -43.841669972838524 15.025325044018995 1.3124424994179407 -0.5877852598018023 0 0.80901698891910034 0.80901698891910034 0 0.5877852598018023 forward_v I I I I #
coedge $-1 $192 $193 $194 $195 reversed $76 $-1 #
face $-1 $-1 $196 $42 $-1 $197 forward single #
loop $-1 $198 $199 $78 #
cone-surface $-1 -36.005087572653309 12.658498605450401 5.4609680162123801 0.5877852598018023 0 -0.80901698891910034 0.20225424722977509 0 0.14694631495045057 1 I I -0.70710678118654746 0.70710678118654746 0.25 forward I I I I #
loop $-1 $-1 $200 $54 #
coedge $-1 $126 $126 $201 $202 reversed $79 $-1 #
face $-1 $-1 $203 $43 $-1 $204 forward single #
loop $-1 $205 $206 $81 #
cone-surface $-1 -36.005087572653309 17.392151482587604 5.4609680162123801 0.5877852598018023 0 -0.80901698891910034 0.20225424722977509 0 0.14694631495045057 1 I I -0.70710678118654746 0.70710678118654746 0.25 forward I I I I #
loop $-1 $-1 $207 $55 #
coedge $-1 $131 $131 $208 $209 reversed $82 $-1 #
face $-1 $210 $211 $44 $-1 $212 reversed single #
loop $-1 $-1 $213 $84 #
plane-surface $-1 -23.327664765379424 -8.8240533737964704 60.896304074251603 0.64278761758704617 0 0.76604443648966558 0.76604443648966558 0 -0.64278761758704617 forward_v I I I I #
coedge $-1 $214 $215 $216 $217 reversed $85 $-1 #
face $-1 $-1 $218 $45 $-1 $219 forward single #
loop $-1 $220 $221 $87 #
cone-surface $-1 37.89806944099832 -8.8240533737964704 6.0401847245017031 -0.64278761758704617 0 -0.76604443648966558 0.57453332736724916 0 -0.48209071319028463 1 I I -0.70710678118654757 0.70710678118654757 0.75 forward I I I I #
loop $-1 $-1 $222 $57 #
coedge $-1 $140 $140 $223 $224 reversed $88 $-1 #
face $-1 $225 $226 $46 $-1 $227 reversed single #
loop $-1 $-1 $228 $90 #
plane-surface $-1 -23.327664765379424 18.875073922227219 60.896304074251603 0.64278761758704617 0 0.76604443648966558 0.76604443648966558 0 -0.64278761758704617 forward_v I I I I #
coedge $-1 $229 $230 $231 $232 reversed $91 $-1 #
face $-1 $-1 $233 $47 $-1 $234 forward single #
loop $-1 $235 $236 $93 #
cone-surface $-1 37.89806944099832 18.875073922227219 6.0401847245017031 -0.64278761758704617 0 -0.76604443648966558 0.57453332736724916 0 -0.48209071319028463 1 I I -0.70710678118654757 0.70710678118654757 0.75 forward I I I I #
loop $-1 $-1 $237 $59 #
coedge $-1 $149 $149 $238 $239 reversed $94 $-1 #
face $-1 $240 $241 $36 $-1 $242 reversed single #
loop $-1 $-1 $243 $96 #
plane-surface $-1 0 -27.207872521062999 0 0 1 0 0 0 1 forward_v I I I I #
coedge $-1 $244 $245 $246 $247 forward $97 $-1 #
coedge $-1 $248 $99 $249 $250 forward $61 $-1 #
coedge $-1 $99 $248 $251 $252 forward $61 $-1 #
coedge $-1 $253 $254 $99 $157 reversed $255 $-1 #
edge $-1 $256 -27.207872521062999 $257 27.207872521062999 $156 $258 forward 7 unknown #
face $-1 $259 $260 $37 $-1 $261 reversed single #
loop $-1 $-1 $262 $100 #
plane-surface $-1 0 -32.233382795278374 3.275225361004046 0 0 1 1 0 0 forward_v I I I I #
coedge $-1 $263 $264 $163 $265 forward $101 $-1 #
coedge $-1 $266 $103 $267 $268 reversed $64 $-1 #
coedge $-1 $103 $266 $161 $265 reversed $64 $-1 #
coedge $-1 $269 $262 $103 $165 reversed $159 $-1 #
edge $-1 $270 -43.841669972838524 $271 43.841669972838524 $164 $272 forward 7 unknown #
face $-1 $273 $274 $38 $-1 $275 forward single #
loop $-1 $-1 $276 $104 #
plane-surface $-1 -95.380644723098058 -1.6344421795018853 72.249754160639455 0 -1 0 0.5877852598018023 0 -0.80901698891910034 forward_v I I I I #
coedge $-1 $277 $278 $279 $280 reversed $105 $-1 #
coedge $-1 $171 $107 $281 $282 reversed $67 $-1 #
coedge $-1 $107 $170 $277 $283 reversed $67 $-1 #
coedge $-1 $279 $284 $107 $173 forward $274 $-1 #
edge $-1 $285 3.8486523887105051 $286 18.052354039576421 $172 $287 forward 7 unknown #
loop $-1 $-1 $179 $108 #
plane-surface $-1 -43.841669972838524 -7.1570372028286258 1.3124424994179407 -0.5877852598018023 0 0.80901698891910034 0.80901698891910034 0 0.5877852598018023 forward_v I I I I #
loop $-1 $-1 $288 $69 #
coedge $-1 $177 $177 $178 $289 reversed $109 $-1 #
coedge $-1 $178 $178 $177 $289 forward $111 $-1 #
coedge $-1 $179 $179 $112 $180 forward $174 $-1 #
edge $-1 $290 0 $290 6.2831853071796004 $179 $291 forward 7 unknown #
loop $-1 $-1 $186 $113 #
plane-surface $-1 -43.841669972838524 -7.1570372028286258 1.3124424994179407 -0.5877852598018023 0 0.80901698891910034 0.80901698891910034 0 0.5877852598018023 forward_v I I I I #
loop $-1 $-1 $292 $72 #
coedge $-1 $184 $184 $185 $293 reversed $114 $-1 #
coedge $-1 $185 $185 $184 $293 forward $116 $-1 #
coedge $-1 $186 $186 $117 $187 forward $181 $-1 #
edge $-1 $294 0 $294 6.2831853071796004 $186 $295 forward 7 unknown #
face $-1 $296 $297 $41 $-1 $298 forward single #
loop $-1 $-1 $299 $118 #
plane-surface $-1 -95.380644723098058 20.547920067345736 72.249754160639455 0 -1 0 0.5877852598018023 0 -0.80901698891910034 forward_v I I I I #
coedge $-1 $300 $301 $302 $303 reversed $119 $-1 #
coedge $-1 $193 $121 $304 $305 reversed $76 $-1 #
coedge $-1 $121 $192 $300 $306 reversed $76 $-1 #
coedge $-1 $302 $307 $121 $195 forward $297 $-1 #
edge $-1 $308 3.8486523887105051 $309 18.052354039576421 $194 $310 forward 7 unknown #
loop $-1 $-1 $201 $122 #
plane-surface $-1 -43.841669972838524 15.025325044018995 1.3124424994179407 -0.5877852598018023 0 0.80901698891910034 0.80901698891910034 0 0.5877852598018023 forward_v I I I I #
loop $-1 $-1 $311 $78 #
coedge $-1 $199 $199 $200 $312 reversed $123 $-1 #
coedge $-1 $200 $200 $199 $312 forward $125 $-1 #
coedge $-1 $201 $201 $126 $202 forward $196 $-1 #
edge $-1 $313 0 $313 6.2831853071796004 $201 $314 forward 7 unknown #
loop $-1 $-1 $208 $127 #
plane-surface $-1 -43.841669972838524 15.025325044018995 1.3124424994179407 -0.5877852598018023 0 0.80901698891910034 0.80901698891910034 0 0.5877852598018023 forward_v I I I I #
loop $-1 $-1 $315 $81 #
coedge $-1 $206 $206 $207 $316 reversed $128 $-1 #
coedge $-1 $207 $207 $206 $316 forward $130 $-1 #
coedge $-1 $208 $208 $131 $209 forward $203 $-1 #
edge $-1 $317 0 $317 6.2831853071796004 $208 $318 forward 7 unknown #
face $-1 $319 $320 $44 $-1 $321 reversed single #
loop $-1 $-1 $322 $132 #
plane-surface $-1 33.034100420377406 -13.637515713407698 128.06563881246956 0 1 0 0.64278761758704617 0 0.76604443648966558 forward_v I I I I #
coedge $-1 $323 $324 $325 $326 reversed $133 $-1 #
coedge $-1 $215 $135 $327 $328 reversed $85 $-1 #
coedge $-1 $135 $214 $323 $329 reversed $85 $-1 #
coedge $-1 $325 $330 $135 $217 forward $331 $-1 #
edge $-1 $332 -27.324619762649821 $333 -18.866152252426954 $216 $334 forward 7 unknown #
loop $-1 $-1 $223 $136 #
plane-surface $-1 -23.327664765379424 -8.8240533737964704 60.896304074251603 0.64278761758704617 0 0.76604443648966558 0.76604443648966558 0 -0.64278761758704617 forward_v I I I I #
loop $-1 $-1 $335 $87 #
coedge $-1 $221 $221 $222 $336 reversed $137 $-1 #
coedge $-1 $222 $222 $221 $336 forward $139 $-1 #
coedge $-1 $223 $223 $140 $224 forward $218 $-1 #
edge $-1 $337 0 $337 6.2831853071796004 $223 $338 forward 7 unknown #
face $-1 $339 $340 $46 $-1 $341 reversed single #
loop $-1 $-1 $342 $141 #
plane-surface $-1 33.034100420377406 14.061611582615992 128.06563881246956 0 1 0 0.64278761758704617 0 0.76604443648966558 forward_v I I I I #
coedge $-1 $343 $344 $345 $346 reversed $142 $-1 #
coedge $-1 $230 $144 $347 $348 reversed $91 $-1 #
coedge $-1 $144 $229 $343 $349 reversed $91 $-1 #
coedge $-1 $345 $350 $144 $232 forward $351 $-1 #
edge $-1 $352 -27.324619762649821 $353 -18.866152252426954 $231 $354 forward 7 unknown #
loop $-1 $-1 $238 $145 #
plane-surface $-1 -23.327664765379424 18.875073922227219 60.896304074251603 0.64278761758704617 0 0.76604443648966558 0.76604443648966558 0 -0.64278761758704617 forward_v I I I I #
loop $-1 $-1 $355 $93 #
coedge $-1 $236 $236 $237 $356 reversed $146 $-1 #
coedge $-1 $237 $237 $236 $356 forward $148 $-1 #
coedge $-1 $238 $238 $149 $239 forward $233 $-1 #
edge $-1 $357 0 $357 6.2831853071796004 $238 $358 forward 7 unknown #
face $-1 $359 $360 $36 $-1 $361 reversed single #
loop $-1 $-1 $362 $150 #
plane-surface $-1 -43.841669972838524 0 0 1 0 0 0 0 -1 forward_v I I I I #
coedge $-1 $363 $251 $364 $365 forward $151 $-1 #
coedge $-1 $366 $153 $363 $367 forward $97 $-1 #
coedge $-1 $153 $366 $368 $369 forward $97 $-1 #
coedge $-1 $254 $253 $153 $247 reversed $255 $-1 #
edge $-1 $370 -27.207872521062999 $371 27.207872521062999 $246 $372 forward 7 unknown #
coedge $-1 $155 $154 $373 $374 forward $61 $-1 #
coedge $-1 $375 $376 $154 $250 reversed $360 $-1 #
edge $-1 $257 -43.841669972838524 $377 43.841669972838524 $249 $378 forward 7 unknown #
coedge $-1 $243 $379 $155 $252 reversed $151 $-1 #
edge $-1 $380 -43.841669972838524 $256 43.841669972838524 $251 $381 forward 7 unknown #
coedge $-1 $246 $156 $379 $382 forward $255 $-1 #
coedge $-1 $156 $246 $375 $383 reversed $255 $-1 #
loop $-1 $-1 $253 $359 #
vertex $-1 $157 $384 #
vertex $-1 $157 $385 #
straight-curve $-1 43.841669972838524 0 11.632036005304581 0 1 0 I I #
face $-1 $386 $387 $37 $-1 $388 reversed single #
loop $-1 $-1 $389 $158 #
plane-surface $-1 0 -32.233382795278374 -2.0681912581263466 0 0 1 1 0 0 forward_v I I I I #
coedge $-1 $164 $390 $391 $392 forward $159 $-1 #
coedge $-1 $393 $161 $394 $395 reversed $101 $-1 #
coedge $-1 $161 $393 $269 $396 reversed $101 $-1 #
edge $-1 $270 -3.275225361004046 $397 2.0681912581263466 $161 $398 forward 7 unknown #
coedge $-1 $163 $162 $399 $400 forward $64 $-1 #
coedge $-1 $391 $401 $162 $268 forward $402 $-1 #
edge $-1 $403 -2.0681912581263466 $271 3.275225361004046 $267 $404 forward 7 unknown #
coedge $-1 $390 $164 $264 $396 forward $159 $-1 #
vertex $-1 $265 $405 #
vertex $-1 $392 $406 #
straight-curve $-1 0 -27.207872521062999 3.275225361004046 1 0 0 I I #
face $-1 $-1 $407 $38 $-1 $408 reversed single #
loop $-1 $-1 $172 $166 #
plane-surface $-1 0 0 11.632036005304581 0 0 1 1 0 0 forward_v I I I I #
coedge $-1 $409 $410 $411 $412 reversed $167 $-1 #
coedge $-1 $413 $169 $171 $283 forward $105 $-1 #
coedge $-1 $169 $413 $409 $414 forward $105 $-1 #
coedge $-1 $411 $172 $169 $280 forward $274 $-1 #
edge $-1 $286 -9.1011136247410533 $415 1.9440764219124276 $279 $416 forward 7 unknown #
coedge $-1 $417 $418 $170 $282 forward $407 $-1 #
edge $-1 $419 -34.812434580901787 $285 -24.492841075015146 $281 $420 forward 7 unknown #
edge $-1 $286 -17.556740890995368 $419 0 $171 $421 forward 7 unknown #
coedge $-1 $172 $411 $417 $422 forward $274 $-1 #
vertex $-1 $282 $423 #
vertex $-1 $173 $424 #
straight-curve $-1 -47.690322361549029 -12.679632226155366 11.632036005304581 1 0 0 I I #
coedge $-1 $288 $288 $-1 $425 reversed $176 $-1 #
edge $-1 $426 0 $426 6.2831853071796004 $177 $427 forward 7 unknown #
vertex $-1 $180 $428 #
ellipse-curve $-1 -36.739819147405562 -9.5238636413972273 6.4722392523612609 -0.5877852598018023 0 0.80901698891910034 0.40450849445955017 0 0.29389262990090115 1 I I #
coedge $-1 $292 $292 $-1 $429 reversed $183 $-1 #
edge $-1 $430 0 $430 6.2831853071796004 $184 $431 forward 7 unknown #
vertex $-1 $187 $432 #
ellipse-curve $-1 -36.739819147405562 -4.7902107642600207 6.4722392523612609 -0.5877852598018023 0 0.80901698891910034 0.40450849445955017 0 0.29389262990090115 1 I I #
face $-1 $-1 $433 $41 $-1 $434 reversed single #
loop $-1 $-1 $194 $188 #
plane-surface $-1 0 0 11.632036005304581 0 0 1 1 0 0 forward_v I I I I #
coedge $-1 $435 $436 $437 $438 reversed $189 $-1 #
coedge $-1 $439 $191 $193 $306 forward $119 $-1 #
coedge $-1 $191 $439 $435 $440 forward $119 $-1 #
coedge $-1 $437 $194 $191 $303 forward $297 $-1 #
edge $-1 $309 1.9900674986827571 $441 13.035257545336238 $302 $442 forward 7 unknown #
coedge $-1 $443 $444 $192 $305 forward $433 $-1 #
edge $-1 $445 -34.812434580901787 $308 -24.492841075015146 $304 $446 forward 7 unknown #
edge $-1 $309 -17.556740890995368 $445 0 $193 $447 forward 7 unknown #
coedge $-1 $194 $437 $443 $448 forward $297 $-1 #
vertex $-1 $195 $449 #
vertex $-1 $195 $450 #
straight-curve $-1 -47.690322361549029 9.5027300206922547 11.632036005304581 1 0 0 I I #
coedge $-1 $311 $311 $-1 $451 reversed $198 $-1 #
edge $-1 $452 0 $452 6.2831853071796004 $199 $453 forward 7 unknown #
vertex $-1 $202 $454 #
ellipse-curve $-1 -36.739819147405562 12.658498605450401 6.4722392523612609 -0.5877852598018023 0 0.80901698891910034 0.40450849445955017 0 0.29389262990090115 1 I I #
coedge $-1 $315 $315 $-1 $455 reversed $205 $-1 #
edge $-1 $456 0 $456 6.2831853071796004 $206 $457 forward 7 unknown #
vertex $-1 $209 $458 #
ellipse-curve $-1 -36.739819147405562 17.392151482587604 6.4722392523612609 -0.5877852598018023 0 0.80901698891910034 0.40450849445955017 0 0.29389262990090115 1 I I #
face $-1 $-1 $331 $44 $-1 $459 forward single #
loop $-1 $-1 $460 $210 #
plane-surface $-1 43.841669972838524 0 0 -1 0 0 0 0 1 forward_v I I I I #
coedge $-1 $461 $462 $463 $464 reversed $211 $-1 #
coedge $-1 $465 $213 $215 $329 forward $133 $-1 #
coedge $-1 $213 $465 $461 $466 forward $133 $-1 #
coedge $-1 $463 $216 $213 $326 forward $331 $-1 #
edge $-1 $333 -0.40143565271299142 $467 9.2254890265094627 $325 $468 forward 7 unknown #
coedge $-1 $469 $470 $214 $328 forward $320 $-1 #
edge $-1 $471 -59.498280517739985 $332 -52.400783400930194 $327 $472 forward 7 unknown #
edge $-1 $333 76.641594705697116 $471 87.683339945677034 $215 $473 forward 7 unknown #
coedge $-1 $216 $463 $469 $474 forward $331 $-1 #
loop $-1 $-1 $463 $319 #
vertex $-1 $328 $475 #
vertex $-1 $217 $476 #
straight-curve $-1 16.517050210188703 -4.0105910341852438 11.632036005304585 -1 0 0 I I #
coedge $-1 $335 $335 $-1 $477 reversed $220 $-1 #
edge $-1 $478 0 $478 6.2831853071796004 $221 $479 forward 7 unknown #
vertex $-1 $224 $480 #
ellipse-curve $-1 39.612436217727101 -8.8240533737964704 8.0832874468996749 0.64278761758704617 0 0.76604443648966558 1.1490666547344983 0 -0.96418142638056925 1 I I #
face $-1 $-1 $351 $46 $-1 $481 forward single #
loop $-1 $-1 $482 $225 #
plane-surface $-1 43.841669972838524 0 0 -1 0 0 0 0 1 forward_v I I I I #
coedge $-1 $483 $484 $485 $486 reversed $226 $-1 #
coedge $-1 $487 $228 $230 $349 forward $142 $-1 #
coedge $-1 $228 $487 $483 $488 forward $142 $-1 #
coedge $-1 $485 $231 $228 $346 forward $351 $-1 #
edge $-1 $353 -14.250999300724837 $489 -4.6240746215023822 $345 $490 forward 7 unknown #
coedge $-1 $491 $492 $229 $348 forward $340 $-1 #
edge $-1 $493 -59.498280517739985 $352 -52.400783400930194 $347 $494 forward 7 unknown #
edge $-1 $353 76.641594705697116 $493 87.683339945677034 $230 $495 forward 7 unknown #
coedge $-1 $231 $485 $491 $496 forward $351 $-1 #
loop $-1 $-1 $485 $339 #
vertex $-1 $348 $497 #
vertex $-1 $232 $498 #
straight-curve $-1 16.517050210188703 23.688536261838447 11.632036005304585 -1 0 0 I I #
coedge $-1 $355 $355 $-1 $499 reversed $235 $-1 #
edge $-1 $500 0 $500 6.2831853071796004 $236 $501 forward 7 unknown #
vertex $-1 $239 $502 #
ellipse-curve $-1 39.612436217727101 18.875073922227219 8.0832874468996749 0.64278761758704617 0 0.76604443648966558 1.1490666547344983 0 -0.96418142638056925 1 I I #
face $-1 $-1 $255 $36 $-1 $503 reversed single #
loop $-1 $-1 $375 $240 #
plane-surface $-1 0 27.207872521062999 0 0 -1 0 0 0 -1 forward_v I I I I #
coedge $-1 $504 $373 $376 $505 forward $241 $-1 #
coedge $-1 $379 $243 $244 $367 reversed $151 $-1 #
coedge $-1 $373 $504 $243 $365 reversed $241 $-1 #
edge $-1 $380 -11.632036005304581 $506 11.632036005304581 $364 $507 forward 7 unknown #
coedge $-1 $245 $244 $504 $508 forward $97 $-1 #
edge $-1 $371 -43.841669972838524 $506 43.841669972838524 $363 $509 forward 7 unknown #
coedge $-1 $376 $375 $245 $369 reversed $360 $-1 #
edge $-1 $510 -43.841669972838524 $370 43.841669972838524 $368 $511 forward 7 unknown #
vertex $-1 $247 $512 #
vertex $-1 $382 $513 #
straight-curve $-1 43.841669972838524 0 -11.632036005304581 0 -1 0 I I #
coedge $-1 $362 $364 $248 $374 reversed $241 $-1 #
edge $-1 $377 -27.207872521062999 $380 27.207872521062999 $373 $514 forward 7 unknown #
coedge $-1 $368 $249 $254 $383 forward $360 $-1 #
coedge $-1 $249 $368 $362 $505 reversed $360 $-1 #
vertex $-1 $250 $515 #
straight-curve $-1 0 27.207872521062999 11.632036005304581 -1 0 0 I I #
coedge $-1 $251 $363 $253 $382 reversed $151 $-1 #
vertex $-1 $374 $516 #
straight-curve $-1 0 -27.207872521062999 11.632036005304581 1 0 0 I I #
edge $-1 $256 -11.632036005304581 $371 11.632036005304581 $253 $517 forward 7 unknown #
edge $-1 $257 -11.632036005304581 $370 11.632036005304581 $254 $518 forward 7 unknown #
point $-1 43.841669972838524 -27.207872521062999 11.632036005304581 #
point $-1 43.841669972838524 27.207872521062999 11.632036005304581 #
face $-1 $-1 $402 $37 $-1 $519 reversed single #
loop $-1 $-1 $520 $259 #
plane-surface $-1 0 -37.258893069493752 0.60351705143884971 0 1 0 0 0 1 forward_v I I I I #
coedge $-1 $521 $399 $401 $522 forward $260 $-1 #
coedge $-1 $262 $269 $523 $524 forward $159 $-1 #
coedge $-1 $525 $267 $262 $392 reversed $402 $-1 #
edge $-1 $526 -5.0255102742153781 $271 5.0255102742153746 $391 $527 forward 7 unknown #
coedge $-1 $264 $263 $520 $528 reversed $101 $-1 #
coedge $-1 $399 $521 $263 $395 forward $260 $-1 #
edge $-1 $529 -5.0255102742153781 $397 5.0255102742153746 $263 $530 forward 7 unknown #
edge $-1 $270 -5.0255102742153746 $531 5.0255102742153781 $264 $532 forward 7 unknown #
vertex $-1 $265 $533 #
straight-curve $-1 -43.841669972838524 -27.207872521062999 0 0 0 -1 I I #
coedge $-1 $389 $394 $266 $400 reversed $260 $-1 #
edge $-1 $403 -43.841669972838524 $397 43.841669972838524 $399 $534 forward 7 unknown #
coedge $-1 $267 $525 $389 $522 reversed $402 $-1 #
loop $-1 $-1 $267 $386 #
vertex $-1 $268 $535 #
straight-curve $-1 43.841669972838524 -27.207872521062999 0 0 0 1 I I #
point $-1 -43.841669972838524 -27.207872521062999 3.275225361004046 #
point $-1 43.841669972838524 -27.207872521062999 3.275225361004046 #
loop $-1 $-1 $281 $273 #
plane-surface $-1 -43.841669972838524 0 0 1 0 0 0 0 -1 forward_v I I I I #
coedge $-1 $410 $276 $278 $414 reversed $167 $-1 #
coedge $-1 $276 $409 $536 $537 reversed $167 $-1 #
coedge $-1 $284 $279 $276 $412 forward $274 $-1 #
edge $-1 $415 -18.052354039576421 $538 -3.8486523887105051 $411 $539 forward 7 unknown #
coedge $-1 $278 $277 $418 $540 reversed $105 $-1 #
edge $-1 $541 0 $415 17.556740890995368 $409 $542 forward 7 unknown #
vertex $-1 $280 $543 #
straight-curve $-1 -29.637968321972604 -3.5785186014143129 11.632036005304581 0 1 0 I I #
coedge $-1 $536 $281 $284 $422 reversed $407 $-1 #
coedge $-1 $281 $536 $413 $540 forward $407 $-1 #
vertex $-1 $282 $544 #
straight-curve $-1 -43.841669972838524 -12.679632226155366 36.124877080319727 0 0 1 I I #
straight-curve $-1 -43.841669972838524 -12.679632226155366 1.3124424994179407 -0.80901698891910034 0 -0.5877852598018023 I I #
edge $-1 $538 1.6344421795018853 $285 12.679632226155366 $417 $545 forward 7 unknown #
point $-1 -43.841669972838524 -12.679632226155366 11.632036005304581 #
point $-1 -29.637968321972608 -12.679632226155366 11.632036005304581 #
edge $-1 $546 1 $546 0 $288 $-1 forward 7 unknown #
vertex $-1 $289 $547 #
ellipse-curve $-1 -36.152033887603757 -9.5238636413972273 5.6632222634421554 -0.5877852598018023 0 0.80901698891910034 0.40450849445955017 0 0.29389262990090115 1 I I #
point $-1 -36.335310652946013 -9.5238636413972273 6.7661318822621563 #
edge $-1 $548 1 $548 0 $292 $-1 forward 7 unknown #
vertex $-1 $293 $549 #
ellipse-curve $-1 -36.152033887603757 -4.7902107642600207 5.6632222634421554 -0.5877852598018023 0 0.80901698891910034 0.40450849445955017 0 0.29389262990090115 1 I I #
point $-1 -36.335310652946013 -4.7902107642600207 6.7661318822621563 #
loop $-1 $-1 $304 $296 #
plane-surface $-1 -43.841669972838524 0 0 1 0 0 0 0 -1 forward_v I I I I #
coedge $-1 $436 $299 $301 $440 reversed $189 $-1 #
coedge $-1 $299 $435 $550 $551 reversed $189 $-1 #
coedge $-1 $307 $302 $299 $438 forward $297 $-1 #
edge $-1 $441 -18.052354039576421 $552 -3.8486523887105051 $437 $553 forward 7 unknown #
coedge $-1 $301 $300 $444 $554 reversed $119 $-1 #
edge $-1 $555 0 $441 17.556740890995368 $435 $556 forward 7 unknown #
vertex $-1 $303 $557 #
straight-curve $-1 -29.637968321972604 7.5126625220094976 11.632036005304581 0 1 0 I I #
coedge $-1 $550 $304 $307 $448 reversed $433 $-1 #
coedge $-1 $304 $550 $439 $554 forward $433 $-1 #
vertex $-1 $305 $558 #
straight-curve $-1 -43.841669972838524 9.5027300206922547 36.124877080319727 0 0 1 I I #
straight-curve $-1 -43.841669972838524 9.5027300206922547 1.3124424994179407 -0.80901698891910034 0 -0.5877852598018023 I I #
edge $-1 $552 -20.547920067345736 $308 -9.5027300206922547 $443 $559 forward 7 unknown #
point $-1 -43.841669972838524 9.5027300206922547 11.632036005304581 #
point $-1 -29.637968321972608 9.5027300206922547 11.632036005304581 #
edge $-1 $560 1 $560 0 $311 $-1 forward 7 unknown #
vertex $-1 $312 $561 #
ellipse-curve $-1 -36.152033887603757 12.658498605450401 5.6632222634421554 -0.5877852598018023 0 0.80901698891910034 0.40450849445955017 0 0.29389262990090115 1 I I #
point $-1 -36.335310652946013 12.658498605450401 6.7661318822621563 #
edge $-1 $562 1 $562 0 $315 $-1 forward 7 unknown #
vertex $-1 $316 $563 #
ellipse-curve $-1 -36.152033887603757 17.392151482587604 5.6632222634421554 -0.5877852598018023 0 0.80901698891910034 0.40450849445955017 0 0.29389262990090115 1 I I #
point $-1 -36.335310652946013 17.392151482587604 6.7661318822621563 #
plane-surface $-1 0 0 11.632036005304581 0 0 1 1 0 0 forward_v I I I I #
coedge $-1 $470 $469 $462 $564 forward $320 $-1 #
coedge $-1 $462 $322 $324 $466 reversed $211 $-1 #
coedge $-1 $322 $461 $460 $564 reversed $211 $-1 #
coedge $-1 $330 $325 $322 $464 forward $331 $-1 #
edge $-1 $467 18.866152252426954 $565 27.324619762649821 $463 $566 forward 7 unknown #
coedge $-1 $324 $323 $470 $567 reversed $133 $-1 #
edge $-1 $568 -87.683339945677034 $467 -76.641594705697116 $461 $569 forward 7 unknown #
vertex $-1 $326 $570 #
straight-curve $-1 35.383202462615664 -4.4120266868982352 11.632036005304585 0 -1 0 I I #
coedge $-1 $460 $327 $330 $474 reversed $320 $-1 #
coedge $-1 $327 $460 $465 $567 forward $320 $-1 #
vertex $-1 $328 $571 #
straight-curve $-1 43.841669972838524 -4.0105910341852438 64.032819406234779 0 0 1 I I #
straight-curve $-1 -23.327664765379424 -4.0105910341852438 60.896304074251603 0.76604443648966558 0 -0.64278761758704617 I I #
edge $-1 $565 -13.637515713407698 $332 -4.0105910341852438 $469 $572 forward 7 unknown #
point $-1 43.841669972838524 -4.0105910341852438 11.632036005304581 #
point $-1 35.383202462615657 -4.0105910341852438 11.632036005304585 #
edge $-1 $573 1 $573 0 $335 $-1 forward 7 unknown #
vertex $-1 $336 $574 #
ellipse-curve $-1 38.380160154188601 -8.8240533737964704 6.6147180518689526 0.64278761758704617 0 0.76604443648966558 1.1490666547344983 0 -0.96418142638056925 1 I I #
point $-1 40.761502872461584 -8.8240533737964704 7.1191060205190944 #
plane-surface $-1 0 0 11.632036005304581 0 0 1 1 0 0 forward_v I I I I #
coedge $-1 $492 $491 $484 $575 forward $340 $-1 #
coedge $-1 $484 $342 $344 $488 reversed $226 $-1 #
coedge $-1 $342 $483 $482 $575 reversed $226 $-1 #
coedge $-1 $350 $345 $342 $486 forward $351 $-1 #
edge $-1 $489 18.866152252426954 $576 27.324619762649821 $485 $577 forward 7 unknown #
coedge $-1 $344 $343 $492 $578 reversed $142 $-1 #
edge $-1 $579 -87.683339945677034 $489 -76.641594705697116 $483 $580 forward 7 unknown #
vertex $-1 $346 $581 #
straight-curve $-1 35.383202462615664 9.4375369611136097 11.632036005304585 0 -1 0 I I #
coedge $-1 $482 $347 $350 $496 reversed $340 $-1 #
coedge $-1 $347 $482 $487 $578 forward $340 $-1 #
vertex $-1 $348 $582 #
straight-curve $-1 43.841669972838524 23.688536261838447 64.032819406234779 0 0 1 I I #
straight-curve $-1 -23.327664765379424 23.688536261838447 60.896304074251603 0.76604443648966558 0 -0.64278761758704617 I I #
edge $-1 $576 14.061611582615992 $352 23.688536261838447 $491 $583 forward 7 unknown #
point $-1 43.841669972838524 23.688536261838447 11.632036005304581 #
point $-1 35.383202462615657 23.688536261838447 11.632036005304585 #
edge $-1 $584 1 $584 0 $355 $-1 forward 7 unknown #
vertex $-1 $356 $585 #
ellipse-curve $-1 38.380160154188601 18.875073922227219 6.6147180518689526 0.64278761758704617 0 0.76604443648966558 1.1490666547344983 0 -0.96418142638056925 1 I I #
point $-1 40.761502872461584 18.875073922227219 7.1191060205190944 #
plane-surface $-1 43.841669972838524 0 0 -1 0 0 0 0 1 forward_v I I I I #
coedge $-1 $364 $362 $366 $508 reversed $241 $-1 #
edge $-1 $377 -11.632036005304581 $510 11.632036005304581 $376 $586 forward 7 unknown #
vertex $-1 $508 $587 #
straight-curve $-1 -43.841669972838524 -27.207872521062999 0 0 0 -1 I I #
edge $-1 $506 -27.207872521062999 $510 27.207872521062999 $504 $588 forward 7 unknown #
straight-curve $-1 0 -27.207872521062999 -11.632036005304581 -1 0 0 I I #
vertex $-1 $369 $589 #
straight-curve $-1 0 27.207872521062999 -11.632036005304581 1 0 0 I I #
point $-1 43.841669972838524 27.207872521062999 -11.632036005304581 #
point $-1 43.841669972838524 -27.207872521062999 -11.632036005304581 #
straight-curve $-1 -43.841669972838524 0 11.632036005304581 0 -1 0 I I #
point $-1 -43.841669972838524 27.207872521062999 11.632036005304581 #
point $-1 -43.841669972838524 -27.207872521062999 11.632036005304581 #
straight-curve $-1 43.841669972838524 -27.207872521062999 0 0 0 -1 I I #
straight-curve $-1 43.841669972838524 27.207872521062999 0 0 0 -1 I I #
plane-surface $-1 43.841669972838524 0 0 -1 0 0 0 0 1 forward_v I I I I #
coedge $-1 $590 $523 $393 $528 forward $387 $-1 #
coedge $-1 $394 $389 $590 $591 forward $260 $-1 #
edge $-1 $403 -5.0255102742153746 $592 5.0255102742153781 $401 $593 forward 7 unknown #
coedge $-1 $520 $594 $390 $524 reversed $387 $-1 #
edge $-1 $531 -43.841669972838524 $526 43.841669972838524 $523 $595 forward 7 unknown #
coedge $-1 $401 $391 $594 $596 forward $402 $-1 #
vertex $-1 $392 $597 #
straight-curve $-1 43.841669972838524 -32.233382795278374 3.275225361004046 0 1 0 I I #
edge $-1 $531 -2.6717083095651963 $529 2.6717083095651963 $393 $598 forward 7 unknown #
vertex $-1 $395 $599 #
straight-curve $-1 -43.841669972838524 -32.233382795278374 -2.0681912581263466 0 1 0 I I #
vertex $-1 $396 $600 #
straight-curve $-1 -43.841669972838524 -32.233382795278374 3.275225361004046 0 -1 0 I I #
point $-1 -43.841669972838524 -27.207872521062999 -2.0681912581263466 #
straight-curve $-1 0 -27.207872521062999 -2.0681912581263466 -1 0 0 I I #
point $-1 43.841669972838524 -27.207872521062999 -2.0681912581263466 #
coedge $-1 $418 $417 $410 $537 forward $407 $-1 #
edge $-1 $538 24.492841075015146 $541 34.812434580901787 $536 $601 forward 7 unknown #
vertex $-1 $422 $602 #
straight-curve $-1 -47.690322361549029 -1.6344421795018853 11.632036005304581 -1 0 0 I I #
edge $-1 $541 -1.9440764219124276 $419 9.1011136247410533 $418 $603 forward 7 unknown #
vertex $-1 $540 $604 #
straight-curve $-1 -43.841669972838524 -1.6344421795018853 1.3124424994179407 0.80901698891910034 0 0.5877852598018023 I I #
point $-1 -29.637968321972608 -1.6344421795018853 11.632036005304581 #
point $-1 -43.841669972838524 -12.679632226155366 1.3124424994179407 #
straight-curve $-1 -43.841669972838524 0 11.632036005304581 0 -1 0 I I #
vertex $-1 $425 $605 #
point $-1 -35.747525393144208 -9.5238636413972273 5.9571148933430562 #
vertex $-1 $429 $606 #
point $-1 -35.747525393144208 -4.7902107642600207 5.9571148933430562 #
coedge $-1 $444 $443 $436 $551 forward $433 $-1 #
edge $-1 $552 24.492841075015146 $555 34.812434580901787 $550 $607 forward 7 unknown #
vertex $-1 $448 $608 #
straight-curve $-1 -47.690322361549029 20.547920067345736 11.632036005304581 -1 0 0 I I #
edge $-1 $555 -13.035257545336238 $445 -1.9900674986827571 $444 $609 forward 7 unknown #
vertex $-1 $554 $610 #
straight-curve $-1 -43.841669972838524 20.547920067345736 1.3124424994179407 0.80901698891910034 0 0.5877852598018023 I I #
point $-1 -29.637968321972608 20.547920067345736 11.632036005304581 #
point $-1 -43.841669972838524 9.5027300206922547 1.3124424994179407 #
straight-curve $-1 -43.841669972838524 0 11.632036005304581 0 -1 0 I I #
vertex $-1 $451 $611 #
point $-1 -35.747525393144208 12.658498605450401 5.9571148933430562 #
vertex $-1 $455 $612 #
point $-1 -35.747525393144208 17.392151482587604 5.9571148933430562 #
edge $-1 $565 52.400783400930194 $568 59.498280517739985 $460 $613 forward 7 unknown #
vertex $-1 $474 $614 #
straight-curve $-1 16.517050210188703 -13.637515713407698 11.632036005304585 1 0 0 I I #
edge $-1 $568 -9.2254890265094627 $471 0.40143565271299142 $470 $615 forward 7 unknown #
vertex $-1 $567 $616 #
straight-curve $-1 -23.327664765379424 -13.637515713407698 60.896304074251603 -0.76604443648966558 0 0.64278761758704617 I I #
point $-1 35.383202462615657 -13.637515713407698 11.632036005304585 #
point $-1 43.841669972838517 -4.0105910341852438 4.5345388884947937 #
straight-curve $-1 43.841669972838524 0 11.632036005304581 0 1 0 I I #
vertex $-1 $477 $617 #
point $-1 39.529226808923106 -8.8240533737964704 5.6505366254883826 #
edge $-1 $576 52.400783400930194 $579 59.498280517739985 $482 $618 forward 7 unknown #
vertex $-1 $496 $619 #
straight-curve $-1 16.517050210188703 14.061611582615992 11.632036005304585 1 0 0 I I #
edge $-1 $579 4.6240746215023822 $493 14.250999300724837 $492 $620 forward 7 unknown #
vertex $-1 $578 $621 #
straight-curve $-1 -23.327664765379424 14.061611582615992 60.896304074251603 -0.76604443648966558 0 0.64278761758704617 I I #
point $-1 35.383202462615657 14.061611582615992 11.632036005304585 #
point $-1 43.841669972838517 23.688536261838447 4.5345388884947937 #
straight-curve $-1 43.841669972838524 0 11.632036005304581 0 1 0 I I #
vertex $-1 $499 $622 #
point $-1 39.529226808923106 18.875073922227219 5.6505366254883826 #
straight-curve $-1 -43.841669972838524 27.207872521062999 0 0 0 -1 I I #
point $-1 -43.841669972838524 -27.207872521062999 -11.632036005304581 #
straight-curve $-1 -43.841669972838524 0 -11.632036005304581 0 1 0 I I #
point $-1 -43.841669972838524 27.207872521062999 -11.632036005304581 #
coedge $-1 $594 $520 $521 $591 reversed $387 $-1 #
edge $-1 $592 -43.841669972838524 $529 43.841669972838524 $590 $623 forward 7 unknown #
vertex $-1 $596 $624 #
straight-curve $-1 43.841669972838524 -32.233382795278374 -2.0681912581263466 0 -1 0 I I #
coedge $-1 $523 $590 $525 $596 reversed $387 $-1 #
straight-curve $-1 0 -37.258893069493752 3.275225361004046 1 0 0 I I #
edge $-1 $526 -2.6717083095651963 $592 2.6717083095651963 $525 $625 forward 7 unknown #
point $-1 43.841669972838524 -37.258893069493752 3.275225361004046 #
straight-curve $-1 -43.841669972838524 -37.258893069493752 0.60351705143884971 0 0 -1 I I #
point $-1 -43.841669972838524 -37.258893069493752 -2.0681912581263466 #
point $-1 -43.841669972838524 -37.258893069493752 3.275225361004046 #
straight-curve $-1 -43.841669972838524 -1.6344421795018853 36.124877080319727 0 0 -1 I I #
point $-1 -43.841669972838524 -1.6344421795018853 11.632036005304581 #
straight-curve $-1 -43.841669972838524 -3.5785186014143129 1.3124424994179407 0 -1 0 I I #
point $-1 -43.841669972838524 -1.6344421795018853 1.3124424994179407 #
point $-1 -35.858141257702862 -9.5238636413972273 5.2587137689826049 #
point $-1 -35.858141257702862 -4.7902107642600207 5.2587137689826049 #
straight-curve $-1 -43.841669972838524 20.547920067345736 36.124877080319727 0 0 -1 I I #
point $-1 -43.841669972838524 20.547920067345736 11.632036005304581 #
straight-curve $-1 -43.841669972838524 7.5126625220094976 1.3124424994179407 0 -1 0 I I #
point $-1 -43.841669972838524 20.547920067345736 1.3124424994179407 #
point $-1 -35.858141257702862 12.658498605450401 5.2587137689826049 #
point $-1 -35.858141257702862 17.392151482587604 5.2587137689826049 #
straight-curve $-1 43.841669972838524 -13.637515713407698 64.032819406234779 0 0 -1 I I #
point $-1 43.841669972838524 -13.637515713407698 11.632036005304581 #
straight-curve $-1 43.841669972838517 -4.4120266868982352 4.5345388884947937 0 1 0 I I #
point $-1 43.841669972838517 -13.637515713407698 4.5345388884947937 #
point $-1 37.415978727808039 -8.8240533737964704 5.4656513971344536 #
straight-curve $-1 43.841669972838524 14.061611582615992 64.032819406234779 0 0 -1 I I #
point $-1 43.841669972838524 14.061611582615992 11.632036005304581 #
straight-curve $-1 43.841669972838517 9.4375369611136097 4.5345388884947937 0 1 0 I I #
point $-1 43.841669972838517 14.061611582615992 4.5345388884947937 #
point $-1 37.415978727808039 18.875073922227219 5.4656513971344536 #
straight-curve $-1 0 -37.258893069493752 -2.0681912581263466 -1 0 0 I I #
point $-1 43.841669972838524 -37.258893069493752 -2.0681912581263466 #
straight-curve $-1 43.841669972838524 -37.258893069493752 0.60351705143884971 0 0 -1 I I #
End-of-ACIS-data 