500 0 14 0           
7 Unknown 11 ACIS 5.0 NT 24 Fri Mar 26 00:33:10 1999 
-1 9.9999999999999995e-007 1e-010 
body $-1 $14 $-1 $15 #
body $-1 $16 $-1 $17 #
body $-1 $18 $-1 $19 #
body $-1 $20 $-1 $21 #
body $-1 $22 $-1 $23 #
body $-1 $24 $-1 $25 #
body $-1 $26 $-1 $27 #
body $-1 $28 $-1 $29 #
body $-1 $30 $-1 $31 #
body $-1 $32 $-1 $33 #
body $-1 $34 $-1 $35 #
body $-1 $36 $-1 $37 #
body $-1 $38 $-1 $39 #
body $-1 $40 $-1 $41 #
lump $-1 $-1 $42 $0 #
transform $-1 1 0 0 0 1 0 0 0 1 55.936765648365736 33.056755802120541 6.9327685132045156 1 rotate no_reflect no_shear #
lump $-1 $-1 $43 $1 #
transform $-1 1 0 0 0 1 0 0 0 1 55.936765648365736 -4.2532652254167376 12.365537026409031 1 rotate no_reflect no_shear #
lump $-1 $-1 $44 $2 #
transform $-1 1 0 0 0 1 0 0 0 1 55.936765648365736 70.366776829657823 12.365537026409031 1 rotate no_reflect no_shear #
lump $-1 $-1 $45 $3 #
transform $-1 0.84804809178421925 0 0.52991927123019833 0 1 0 -0.52991927123019833 0 0.84804809178421925 -59.283940174712725 19.37464678485901 102.7206325114328 1 rotate no_reflect no_shear #
lump $-1 $-1 $46 $4 #
transform $-1 0.84804809178421925 0 0.52991927123019833 0 -1 0 0.52991927123019833 0 -0.84804809178421925 6.0150698578965498 17.574131267098107 8.9374855550384549 1 rotate no_reflect no_shear #
lump $-1 $-1 $47 $5 #
transform $-1 0.84804809178421925 0 0.52991927123019833 0 -1 0 0.52991927123019833 0 -0.84804809178421925 6.0150698578965498 21.175162302619906 8.9374855550384549 1 rotate no_reflect no_shear #
lump $-1 $-1 $48 $6 #
transform $-1 0.71933979245794832 0 -0.69465837861970381 0 1 0 0.69465837861970381 0 0.71933979245794832 109.11233437325103 17.303075844856075 165.58334266742671 1 rotate no_reflect no_shear #
lump $-1 $-1 $49 $7 #
transform $-1 0.71933979245794832 0 -0.69465837861970381 0 -1 0 -0.69465837861970381 0 -0.71933979245794832 105.68373390637159 17.303075844856078 7.6898212410272322 1 rotate no_reflect no_shear #
lump $-1 $-1 $50 $8 #
transform $-1 0.71933979245794832 0 -0.69465837861970381 0 1 0 0.69465837861970381 0 0.71933979245794832 109.11233437325103 29.578188520499609 165.58334266742671 1 rotate no_reflect no_shear #
lump $-1 $-1 $51 $9 #
transform $-1 0.71933979245794832 0 -0.69465837861970381 0 -1 0 -0.69465837861970381 0 -0.71933979245794832 105.68373390637159 29.578188520499612 7.6898212410272322 1 rotate no_reflect no_shear #
lump $-1 $-1 $52 $10 #
transform $-1 0.71933979245794832 0 -0.69465837861970381 0 1 0 0.69465837861970381 0 0.71933979245794832 109.11233437325103 41.853301196143143 165.58334266742671 1 rotate no_reflect no_shear #
lump $-1 $-1 $53 $11 #
transform $-1 0.71933979245794832 0 -0.69465837861970381 0 -1 0 -0.69465837861970381 0 -0.71933979245794832 105.68373390637159 41.85330119614315 7.6898212410272322 1 rotate no_reflect no_shear #
lump $-1 $-1 $54 $12 #
transform $-1 0.71933979245794832 0 -0.69465837861970381 0 1 0 0.69465837861970381 0 0.71933979245794832 109.11233437325103 54.128413871786677 165.58334266742671 1 rotate no_reflect no_shear #
lump $-1 $-1 $55 $13 #
transform $-1 0.71933979245794832 0 -0.69465837861970381 0 -1 0 -0.69465837861970381 0 -0.71933979245794832 105.68373390637159 54.128413871786684 7.6898212410272322 1 rotate no_reflect no_shear #
shell $-1 $-1 $-1 $56 $-1 $14 #
shell $-1 $-1 $-1 $57 $-1 $16 #
shell $-1 $-1 $-1 $58 $-1 $18 #
shell $-1 $-1 $-1 $59 $-1 $20 #
shell $-1 $-1 $-1 $60 $-1 $22 #
shell $-1 $-1 $-1 $61 $-1 $24 #
shell $-1 $-1 $-1 $62 $-1 $26 #
shell $-1 $-1 $-1 $63 $-1 $28 #
shell $-1 $-1 $-1 $64 $-1 $30 #
shell $-1 $-1 $-1 $65 $-1 $32 #
shell $-1 $-1 $-1 $66 $-1 $34 #
shell $-1 $-1 $-1 $67 $-1 $36 #
shell $-1 $-1 $-1 $68 $-1 $38 #
shell $-1 $-1 $-1 $69 $-1 $40 #
face $-1 $70 $71 $42 $-1 $72 forward single #
face $-1 $73 $74 $43 $-1 $75 forward single #
face $-1 $76 $77 $44 $-1 $78 forward single #
face $-1 $79 $80 $45 $-1 $81 forward single #
face $-1 $82 $83 $46 $-1 $84 forward single #
face $-1 $85 $86 $47 $-1 $87 forward single #
face $-1 $88 $89 $48 $-1 $90 forward single #
face $-1 $91 $92 $49 $-1 $93 forward single #
face $-1 $94 $95 $50 $-1 $96 forward single #
face $-1 $97 $98 $51 $-1 $99 forward single #
face $-1 $100 $101 $52 $-1 $102 forward single #
face $-1 $103 $104 $53 $-1 $105 forward single #
face $-1 $106 $107 $54 $-1 $108 forward single #
face $-1 $109 $110 $55 $-1 $111 forward single #
face $-1 $112 $113 $42 $-1 $114 reversed single #
loop $-1 $-1 $115 $56 #
plane-surface $-1 0 0 6.9327685132045156 0 0 1 1 0 0 forward_v I I I I #
face $-1 $116 $117 $43 $-1 $118 reversed single #
loop $-1 $-1 $119 $57 #
plane-surface $-1 0 0 1.5 0 0 1 1 0 0 forward_v I I I I #
face $-1 $120 $121 $44 $-1 $122 reversed single #
loop $-1 $-1 $123 $58 #
plane-surface $-1 0 0 1.5 0 0 1 1 0 0 forward_v I I I I #
face $-1 $124 $125 $45 $-1 $126 reversed single #
loop $-1 $-1 $127 $59 #
plane-surface $-1 0 0 111.87353129673147 0 0 1 1 0 0 forward_v I I I I #
face $-1 $128 $129 $46 $-1 $130 forward single #
loop $-1 $131 $132 $60 #
cone-surface $-1 0 0 -1.3811456648457288 0 0 1 1 0 0 1 I I 0 1 1 forward I I I I #
face $-1 $133 $134 $47 $-1 $135 forward single #
loop $-1 $136 $137 $61 #
cone-surface $-1 0 0 -1.3811456648457288 0 0 1 1 0 0 1 I I 0 1 1 forward I I I I #
face $-1 $138 $139 $48 $-1 $140 reversed single #
loop $-1 $-1 $141 $62 #
plane-surface $-1 0 0 111.87353129673147 0 0 1 1 0 0 forward_v I I I I #
face $-1 $142 $143 $49 $-1 $144 forward single #
loop $-1 $145 $146 $63 #
cone-surface $-1 0 0 -2.2936338389233066 0 0 1 1 0 0 1 I I 0 1 1 forward I I I I #
face $-1 $147 $148 $50 $-1 $149 reversed single #
loop $-1 $-1 $150 $64 #
plane-surface $-1 0 0 111.87353129673147 0 0 1 1 0 0 forward_v I I I I #
face $-1 $151 $152 $51 $-1 $153 forward single #
loop $-1 $154 $155 $65 #
cone-surface $-1 0 0 -2.2936338389233066 0 0 1 1 0 0 1 I I 0 1 1 forward I I I I #
face $-1 $156 $157 $52 $-1 $158 reversed single #
loop $-1 $-1 $159 $66 #
plane-surface $-1 0 0 111.87353129673147 0 0 1 1 0 0 forward_v I I I I #
face $-1 $160 $161 $53 $-1 $162 forward single #
loop $-1 $163 $164 $67 #
cone-surface $-1 0 0 -2.2936338389233066 0 0 1 1 0 0 1 I I 0 1 1 forward I I I I #
face $-1 $165 $166 $54 $-1 $167 reversed single #
loop $-1 $-1 $168 $68 #
plane-surface $-1 0 0 111.87353129673147 0 0 1 1 0 0 forward_v I I I I #
face $-1 $169 $170 $55 $-1 $171 forward single #
loop $-1 $172 $173 $69 #
cone-surface $-1 0 0 -2.2936338389233066 0 0 1 1 0 0 1 I I 0 1 1 forward I I I I #
face $-1 $174 $175 $42 $-1 $176 reversed single #
loop $-1 $-1 $177 $70 #
plane-surface $-1 0 0 -6.9327685132045156 0 0 1 1 0 0 forward_v I I I I #
coedge $-1 $178 $179 $180 $181 forward $71 $-1 #
face $-1 $182 $183 $43 $-1 $184 reversed single #
loop $-1 $-1 $185 $73 #
plane-surface $-1 0 0 -1.5 0 0 1 1 0 0 forward_v I I I I #
coedge $-1 $186 $187 $188 $189 forward $74 $-1 #
face $-1 $190 $191 $44 $-1 $192 reversed single #
loop $-1 $-1 $193 $76 #
plane-surface $-1 0 0 -1.5 0 0 1 1 0 0 forward_v I I I I #
coedge $-1 $194 $195 $196 $197 forward $77 $-1 #
face $-1 $198 $199 $45 $-1 $200 reversed single #
loop $-1 $-1 $201 $79 #
plane-surface $-1 0 0 -111.87353129673147 0 0 1 1 0 0 forward_v I I I I #
coedge $-1 $202 $203 $204 $205 forward $80 $-1 #
face $-1 $-1 $206 $46 $-1 $207 forward single #
loop $-1 $-1 $208 $82 #
plane-surface $-1 0 0 -2.262291329691458 0 0 -1 -1 0 0 forward_v I I I I #
loop $-1 $-1 $209 $60 #
coedge $-1 $132 $132 $208 $210 reversed $83 $-1 #
face $-1 $-1 $211 $47 $-1 $212 forward single #
loop $-1 $-1 $213 $85 #
plane-surface $-1 0 0 -2.262291329691458 0 0 -1 -1 0 0 forward_v I I I I #
loop $-1 $-1 $214 $61 #
coedge $-1 $137 $137 $213 $215 reversed $86 $-1 #
face $-1 $216 $217 $48 $-1 $218 reversed single #
loop $-1 $-1 $219 $88 #
plane-surface $-1 0 0 -111.87353129673147 0 0 1 1 0 0 forward_v I I I I #
coedge $-1 $220 $221 $222 $223 forward $89 $-1 #
face $-1 $-1 $224 $49 $-1 $225 forward single #
loop $-1 $-1 $226 $91 #
plane-surface $-1 0 0 -4.0872676778466133 0 0 -1 -1 0 0 forward_v I I I I #
loop $-1 $-1 $227 $63 #
coedge $-1 $146 $146 $226 $228 reversed $92 $-1 #
face $-1 $229 $230 $50 $-1 $231 reversed single #
loop $-1 $-1 $232 $94 #
plane-surface $-1 0 0 -111.87353129673147 0 0 1 1 0 0 forward_v I I I I #
coedge $-1 $233 $234 $235 $236 forward $95 $-1 #
face $-1 $-1 $237 $51 $-1 $238 forward single #
loop $-1 $-1 $239 $97 #
plane-surface $-1 0 0 -4.0872676778466133 0 0 -1 -1 0 0 forward_v I I I I #
loop $-1 $-1 $240 $65 #
coedge $-1 $155 $155 $239 $241 reversed $98 $-1 #
face $-1 $242 $243 $52 $-1 $244 reversed single #
loop $-1 $-1 $245 $100 #
plane-surface $-1 0 0 -111.87353129673147 0 0 1 1 0 0 forward_v I I I I #
coedge $-1 $246 $247 $248 $249 forward $101 $-1 #
face $-1 $-1 $250 $53 $-1 $251 forward single #
loop $-1 $-1 $252 $103 #
plane-surface $-1 0 0 -4.0872676778466133 0 0 -1 -1 0 0 forward_v I I I I #
loop $-1 $-1 $253 $67 #
coedge $-1 $164 $164 $252 $254 reversed $104 $-1 #
face $-1 $255 $256 $54 $-1 $257 reversed single #
loop $-1 $-1 $258 $106 #
plane-surface $-1 0 0 -111.87353129673147 0 0 1 1 0 0 forward_v I I I I #
coedge $-1 $259 $260 $261 $262 forward $107 $-1 #
face $-1 $-1 $263 $55 $-1 $264 forward single #
loop $-1 $-1 $265 $109 #
plane-surface $-1 0 0 -4.0872676778466133 0 0 -1 -1 0 0 forward_v I I I I #
loop $-1 $-1 $266 $69 #
coedge $-1 $173 $173 $265 $267 reversed $110 $-1 #
face $-1 $268 $269 $42 $-1 $270 reversed single #
loop $-1 $-1 $271 $112 #
plane-surface $-1 0 -33.056755802120541 0 0 1 0 0 0 1 forward_v I I I I #
coedge $-1 $272 $273 $274 $275 forward $113 $-1 #
coedge $-1 $276 $115 $277 $278 forward $71 $-1 #
coedge $-1 $115 $276 $279 $280 forward $71 $-1 #
coedge $-1 $281 $282 $115 $181 reversed $283 $-1 #
edge $-1 $284 -33.056755802120541 $285 33.056755802120541 $180 $286 forward 7 unknown #
face $-1 $287 $288 $43 $-1 $289 reversed single #
loop $-1 $-1 $290 $116 #
plane-surface $-1 0 -4.2532652254167376 0 0 1 0 0 0 1 forward_v I I I I #
coedge $-1 $291 $292 $293 $294 forward $117 $-1 #
coedge $-1 $295 $119 $296 $297 forward $74 $-1 #
coedge $-1 $119 $295 $298 $299 forward $74 $-1 #
coedge $-1 $300 $301 $119 $189 reversed $302 $-1 #
edge $-1 $303 -4.2532652254167376 $304 4.2532652254167376 $188 $305 forward 7 unknown #
face $-1 $306 $307 $44 $-1 $308 reversed single #
loop $-1 $-1 $309 $120 #
plane-surface $-1 0 -4.2532652254167402 0 0 1 0 0 0 1 forward_v I I I I #
coedge $-1 $310 $311 $312 $313 forward $121 $-1 #
coedge $-1 $314 $123 $315 $316 forward $77 $-1 #
coedge $-1 $123 $314 $317 $318 forward $77 $-1 #
coedge $-1 $319 $320 $123 $197 reversed $321 $-1 #
edge $-1 $322 -4.2532652254167402 $323 4.2532652254167402 $196 $324 forward 7 unknown #
face $-1 $325 $326 $45 $-1 $327 reversed single #
loop $-1 $-1 $328 $124 #
plane-surface $-1 0 -4.2012028747754346 0 0 1 0 0 0 1 forward_v I I I I #
coedge $-1 $329 $330 $331 $332 forward $125 $-1 #
coedge $-1 $333 $127 $334 $335 forward $80 $-1 #
coedge $-1 $127 $333 $336 $337 forward $80 $-1 #
coedge $-1 $338 $339 $127 $205 reversed $340 $-1 #
edge $-1 $341 -4.2012028747754346 $342 4.2012028747754346 $204 $343 forward 7 unknown #
loop $-1 $344 $345 $128 #
cone-surface $-1 0 0 0 0 0 1 0.5 0 0 1 I I -0.70710678118654746 0.70710678118654746 0.5 forward I I I I #
coedge $-1 $208 $208 $132 $210 forward $129 $-1 #
coedge $-1 $209 $209 $345 $346 forward $131 $-1 #
edge $-1 $347 0 $347 6.2831853071796004 $208 $348 forward 7 unknown #
loop $-1 $349 $350 $133 #
cone-surface $-1 0 0 0 0 0 1 0.5 0 0 1 I I -0.70710678118654746 0.70710678118654746 0.5 forward I I I I #
coedge $-1 $213 $213 $137 $215 forward $134 $-1 #
coedge $-1 $214 $214 $350 $351 forward $136 $-1 #
edge $-1 $352 0 $352 6.2831853071796004 $213 $353 forward 7 unknown #
face $-1 $354 $355 $48 $-1 $356 reversed single #
loop $-1 $-1 $357 $138 #
plane-surface $-1 0 -3.478567281620931 0 0 1 0 0 0 1 forward_v I I I I #
coedge $-1 $358 $359 $360 $361 forward $139 $-1 #
coedge $-1 $362 $141 $363 $364 forward $89 $-1 #
coedge $-1 $141 $362 $365 $366 forward $89 $-1 #
coedge $-1 $367 $368 $141 $223 reversed $369 $-1 #
edge $-1 $370 -3.478567281620931 $371 3.478567281620931 $222 $372 forward 7 unknown #
loop $-1 $373 $374 $142 #
cone-surface $-1 0 0 0 0 0 1 0.5 0 0 1 I I -0.70710678118654746 0.70710678118654746 0.5 forward I I I I #
coedge $-1 $226 $226 $146 $228 forward $143 $-1 #
coedge $-1 $227 $227 $374 $375 forward $145 $-1 #
edge $-1 $376 0 $376 6.2831853071796004 $226 $377 forward 7 unknown #
face $-1 $378 $379 $50 $-1 $380 reversed single #
loop $-1 $-1 $381 $147 #
plane-surface $-1 0 -3.478567281620931 0 0 1 0 0 0 1 forward_v I I I I #
coedge $-1 $382 $383 $384 $385 forward $148 $-1 #
coedge $-1 $386 $150 $387 $388 forward $95 $-1 #
coedge $-1 $150 $386 $389 $390 forward $95 $-1 #
coedge $-1 $391 $392 $150 $236 reversed $393 $-1 #
edge $-1 $394 -3.478567281620931 $395 3.478567281620931 $235 $396 forward 7 unknown #
loop $-1 $397 $398 $151 #
cone-surface $-1 0 0 0 0 0 1 0.5 0 0 1 I I -0.70710678118654746 0.70710678118654746 0.5 forward I I I I #
coedge $-1 $239 $239 $155 $241 forward $152 $-1 #
coedge $-1 $240 $240 $398 $399 forward $154 $-1 #
edge $-1 $400 0 $400 6.2831853071796004 $239 $401 forward 7 unknown #
face $-1 $402 $403 $52 $-1 $404 reversed single #
loop $-1 $-1 $405 $156 #
plane-surface $-1 0 -3.478567281620931 0 0 1 0 0 0 1 forward_v I I I I #
coedge $-1 $406 $407 $408 $409 forward $157 $-1 #
coedge $-1 $410 $159 $411 $412 forward $101 $-1 #
coedge $-1 $159 $410 $413 $414 forward $101 $-1 #
coedge $-1 $415 $416 $159 $249 reversed $417 $-1 #
edge $-1 $418 -3.478567281620931 $419 3.478567281620931 $248 $420 forward 7 unknown #
loop $-1 $421 $422 $160 #
cone-surface $-1 0 0 0 0 0 1 0.5 0 0 1 I I -0.70710678118654746 0.70710678118654746 0.5 forward I I I I #
coedge $-1 $252 $252 $164 $254 forward $161 $-1 #
coedge $-1 $253 $253 $422 $423 forward $163 $-1 #
edge $-1 $424 0 $424 6.2831853071796004 $252 $425 forward 7 unknown #
face $-1 $426 $427 $54 $-1 $428 reversed single #
loop $-1 $-1 $429 $165 #
plane-surface $-1 0 -3.478567281620931 0 0 1 0 0 0 1 forward_v I I I I #
coedge $-1 $430 $431 $432 $433 forward $166 $-1 #
coedge $-1 $434 $168 $435 $436 forward $107 $-1 #
coedge $-1 $168 $434 $437 $438 forward $107 $-1 #
coedge $-1 $439 $440 $168 $262 reversed $441 $-1 #
edge $-1 $442 -3.478567281620931 $443 3.478567281620931 $261 $444 forward 7 unknown #
loop $-1 $445 $446 $169 #
cone-surface $-1 0 0 0 0 0 1 0.5 0 0 1 I I -0.70710678118654746 0.70710678118654746 0.5 forward I I I I #
coedge $-1 $265 $265 $173 $267 forward $170 $-1 #
coedge $-1 $266 $266 $446 $447 forward $172 $-1 #
edge $-1 $448 0 $448 6.2831853071796004 $265 $449 forward 7 unknown #
face $-1 $450 $451 $42 $-1 $452 reversed single #
loop $-1 $-1 $453 $174 #
plane-surface $-1 -55.936765648365736 0 0 1 0 0 0 0 -1 forward_v I I I I #
coedge $-1 $454 $279 $455 $456 forward $175 $-1 #
coedge $-1 $457 $177 $454 $458 forward $113 $-1 #
coedge $-1 $177 $457 $459 $460 forward $113 $-1 #
coedge $-1 $282 $281 $177 $275 reversed $283 $-1 #
edge $-1 $461 -33.056755802120541 $462 33.056755802120541 $274 $463 forward 7 unknown #
coedge $-1 $179 $178 $464 $465 forward $71 $-1 #
coedge $-1 $466 $467 $178 $278 reversed $451 $-1 #
edge $-1 $285 -55.936765648365736 $468 55.936765648365736 $277 $469 forward 7 unknown #
coedge $-1 $271 $470 $179 $280 reversed $175 $-1 #
edge $-1 $471 -55.936765648365736 $284 55.936765648365736 $279 $472 forward 7 unknown #
coedge $-1 $274 $180 $470 $473 forward $283 $-1 #
coedge $-1 $180 $274 $466 $474 reversed $283 $-1 #
loop $-1 $-1 $281 $450 #
vertex $-1 $181 $475 #
vertex $-1 $181 $476 #
straight-curve $-1 55.936765648365736 0 6.9327685132045156 0 1 0 I I #
face $-1 $477 $478 $43 $-1 $479 reversed single #
loop $-1 $-1 $480 $182 #
plane-surface $-1 -55.936765648365736 0 0 1 0 0 0 0 -1 forward_v I I I I #
coedge $-1 $481 $298 $482 $483 forward $183 $-1 #
coedge $-1 $484 $185 $481 $485 forward $117 $-1 #
coedge $-1 $185 $484 $486 $487 forward $117 $-1 #
coedge $-1 $301 $300 $185 $294 reversed $302 $-1 #
edge $-1 $488 -4.2532652254167376 $489 4.2532652254167376 $293 $490 forward 7 unknown #
coedge $-1 $187 $186 $491 $492 forward $74 $-1 #
coedge $-1 $493 $494 $186 $297 reversed $478 $-1 #
edge $-1 $304 -55.936765648365736 $495 55.936765648365736 $296 $496 forward 7 unknown #
coedge $-1 $290 $497 $187 $299 reversed $183 $-1 #
edge $-1 $498 -55.936765648365736 $303 55.936765648365736 $298 $499 forward 7 unknown #
coedge $-1 $293 $188 $497 $500 forward $302 $-1 #
coedge $-1 $188 $293 $493 $501 reversed $302 $-1 #
loop $-1 $-1 $300 $477 #
vertex $-1 $189 $502 #
vertex $-1 $189 $503 #
straight-curve $-1 55.936765648365736 0 1.5 0 1 0 I I #
face $-1 $504 $505 $44 $-1 $506 reversed single #
loop $-1 $-1 $507 $190 #
plane-surface $-1 -55.936765648365736 0 0 1 0 0 0 0 -1 forward_v I I I I #
coedge $-1 $508 $317 $509 $510 forward $191 $-1 #
coedge $-1 $511 $193 $508 $512 forward $121 $-1 #
coedge $-1 $193 $511 $513 $514 forward $121 $-1 #
coedge $-1 $320 $319 $193 $313 reversed $321 $-1 #
edge $-1 $515 -4.2532652254167402 $516 4.2532652254167402 $312 $517 forward 7 unknown #
coedge $-1 $195 $194 $518 $519 forward $77 $-1 #
coedge $-1 $520 $521 $194 $316 reversed $505 $-1 #
edge $-1 $323 -55.936765648365736 $522 55.936765648365736 $315 $523 forward 7 unknown #
coedge $-1 $309 $524 $195 $318 reversed $191 $-1 #
edge $-1 $525 -55.936765648365736 $322 55.936765648365736 $317 $526 forward 7 unknown #
coedge $-1 $312 $196 $524 $527 forward $321 $-1 #
coedge $-1 $196 $312 $520 $528 reversed $321 $-1 #
loop $-1 $-1 $319 $504 #
vertex $-1 $197 $529 #
vertex $-1 $197 $530 #
straight-curve $-1 55.936765648365736 0 1.5 0 1 0 I I #
face $-1 $531 $532 $45 $-1 $533 reversed single #
loop $-1 $-1 $534 $198 #
plane-surface $-1 -223.74706259346294 0 0 1 0 0 0 0 -1 forward_v I I I I #
coedge $-1 $535 $336 $536 $537 forward $199 $-1 #
coedge $-1 $538 $201 $535 $539 forward $125 $-1 #
coedge $-1 $201 $538 $540 $541 forward $125 $-1 #
coedge $-1 $339 $338 $201 $332 reversed $340 $-1 #
edge $-1 $542 -4.2012028747754346 $543 4.2012028747754346 $331 $544 forward 7 unknown #
coedge $-1 $203 $202 $545 $546 forward $80 $-1 #
coedge $-1 $547 $548 $202 $335 reversed $532 $-1 #
edge $-1 $342 -223.74706259346294 $549 223.74706259346294 $334 $550 forward 7 unknown #
coedge $-1 $328 $551 $203 $337 reversed $199 $-1 #
edge $-1 $552 -223.74706259346294 $341 223.74706259346294 $336 $553 forward 7 unknown #
coedge $-1 $331 $204 $551 $554 forward $340 $-1 #
coedge $-1 $204 $331 $547 $555 reversed $340 $-1 #
loop $-1 $-1 $338 $531 #
vertex $-1 $205 $556 #
vertex $-1 $205 $557 #
straight-curve $-1 223.74706259346294 0 111.87353129673147 0 1 0 I I #
loop $-1 $-1 $558 $128 #
coedge $-1 $345 $345 $209 $346 reversed $206 $-1 #
edge $-1 $559 0 $559 6.2831853071796004 $345 $560 forward 7 unknown #
vertex $-1 $210 $561 #
ellipse-curve $-1 0 0 -2.262291329691458 0 0 -1 1 0 0 1 I I #
loop $-1 $-1 $562 $133 #
coedge $-1 $350 $350 $214 $351 reversed $211 $-1 #
edge $-1 $563 0 $563 6.2831853071796004 $350 $564 forward 7 unknown #
vertex $-1 $215 $565 #
ellipse-curve $-1 0 0 -2.262291329691458 0 0 -1 1 0 0 1 I I #
face $-1 $566 $567 $48 $-1 $568 reversed single #
loop $-1 $-1 $569 $216 #
plane-surface $-1 -223.74706259346294 0 0 1 0 0 0 0 -1 forward_v I I I I #
coedge $-1 $570 $365 $571 $572 forward $217 $-1 #
coedge $-1 $573 $219 $570 $574 forward $139 $-1 #
coedge $-1 $219 $573 $575 $576 forward $139 $-1 #
coedge $-1 $368 $367 $219 $361 reversed $369 $-1 #
edge $-1 $577 -3.478567281620931 $578 3.478567281620931 $360 $579 forward 7 unknown #
coedge $-1 $221 $220 $580 $581 forward $89 $-1 #
coedge $-1 $582 $583 $220 $364 reversed $567 $-1 #
edge $-1 $371 -223.74706259346294 $584 223.74706259346294 $363 $585 forward 7 unknown #
coedge $-1 $357 $586 $221 $366 reversed $217 $-1 #
edge $-1 $587 -223.74706259346294 $370 223.74706259346294 $365 $588 forward 7 unknown #
coedge $-1 $360 $222 $586 $589 forward $369 $-1 #
coedge $-1 $222 $360 $582 $590 reversed $369 $-1 #
loop $-1 $-1 $367 $566 #
vertex $-1 $223 $591 #
vertex $-1 $223 $592 #
straight-curve $-1 223.74706259346294 0 111.87353129673147 0 1 0 I I #
loop $-1 $-1 $593 $142 #
coedge $-1 $374 $374 $227 $375 reversed $224 $-1 #
edge $-1 $594 0 $594 6.2831853071796004 $374 $595 forward 7 unknown #
vertex $-1 $228 $596 #
ellipse-curve $-1 0 0 -4.0872676778466133 0 0 -1 1 0 0 1 I I #
face $-1 $597 $598 $50 $-1 $599 reversed single #
loop $-1 $-1 $600 $229 #
plane-surface $-1 -223.74706259346294 0 0 1 0 0 0 0 -1 forward_v I I I I #
coedge $-1 $601 $389 $602 $603 forward $230 $-1 #
coedge $-1 $604 $232 $601 $605 forward $148 $-1 #
coedge $-1 $232 $604 $606 $607 forward $148 $-1 #
coedge $-1 $392 $391 $232 $385 reversed $393 $-1 #
edge $-1 $608 -3.478567281620931 $609 3.478567281620931 $384 $610 forward 7 unknown #
coedge $-1 $234 $233 $611 $612 forward $95 $-1 #
coedge $-1 $613 $614 $233 $388 reversed $598 $-1 #
edge $-1 $395 -223.74706259346294 $615 223.74706259346294 $387 $616 forward 7 unknown #
coedge $-1 $381 $617 $234 $390 reversed $230 $-1 #
edge $-1 $618 -223.74706259346294 $394 223.74706259346294 $389 $619 forward 7 unknown #
coedge $-1 $384 $235 $617 $620 forward $393 $-1 #
coedge $-1 $235 $384 $613 $621 reversed $393 $-1 #
loop $-1 $-1 $391 $597 #
vertex $-1 $236 $622 #
vertex $-1 $236 $623 #
straight-curve $-1 223.74706259346294 0 111.87353129673147 0 1 0 I I #
loop $-1 $-1 $624 $151 #
coedge $-1 $398 $398 $240 $399 reversed $237 $-1 #
edge $-1 $625 0 $625 6.2831853071796004 $398 $626 forward 7 unknown #
vertex $-1 $241 $627 #
ellipse-curve $-1 0 0 -4.0872676778466133 0 0 -1 1 0 0 1 I I #
face $-1 $628 $629 $52 $-1 $630 reversed single #
loop $-1 $-1 $631 $242 #
plane-surface $-1 -223.74706259346294 0 0 1 0 0 0 0 -1 forward_v I I I I #
coedge $-1 $632 $413 $633 $634 forward $243 $-1 #
coedge $-1 $635 $245 $632 $636 forward $157 $-1 #
coedge $-1 $245 $635 $637 $638 forward $157 $-1 #
coedge $-1 $416 $415 $245 $409 reversed $417 $-1 #
edge $-1 $639 -3.478567281620931 $640 3.478567281620931 $408 $641 forward 7 unknown #
coedge $-1 $247 $246 $642 $643 forward $101 $-1 #
coedge $-1 $644 $645 $246 $412 reversed $629 $-1 #
edge $-1 $419 -223.74706259346294 $646 223.74706259346294 $411 $647 forward 7 unknown #
coedge $-1 $405 $648 $247 $414 reversed $243 $-1 #
edge $-1 $649 -223.74706259346294 $418 223.74706259346294 $413 $650 forward 7 unknown #
coedge $-1 $408 $248 $648 $651 forward $417 $-1 #
coedge $-1 $248 $408 $644 $652 reversed $417 $-1 #
loop $-1 $-1 $415 $628 #
vertex $-1 $249 $653 #
vertex $-1 $249 $654 #
straight-curve $-1 223.74706259346294 0 111.87353129673147 0 1 0 I I #
loop $-1 $-1 $655 $160 #
coedge $-1 $422 $422 $253 $423 reversed $250 $-1 #
edge $-1 $656 0 $656 6.2831853071796004 $422 $657 forward 7 unknown #
vertex $-1 $254 $658 #
ellipse-curve $-1 0 0 -4.0872676778466133 0 0 -1 1 0 0 1 I I #
face $-1 $659 $660 $54 $-1 $661 reversed single #
loop $-1 $-1 $662 $255 #
plane-surface $-1 -223.74706259346294 0 0 1 0 0 0 0 -1 forward_v I I I I #
coedge $-1 $663 $437 $664 $665 forward $256 $-1 #
coedge $-1 $666 $258 $663 $667 forward $166 $-1 #
coedge $-1 $258 $666 $668 $669 forward $166 $-1 #
coedge $-1 $440 $439 $258 $433 reversed $441 $-1 #
edge $-1 $670 -3.478567281620931 $671 3.478567281620931 $432 $672 forward 7 unknown #
coedge $-1 $260 $259 $673 $674 forward $107 $-1 #
coedge $-1 $675 $676 $259 $436 reversed $660 $-1 #
edge $-1 $443 -223.74706259346294 $677 223.74706259346294 $435 $678 forward 7 unknown #
coedge $-1 $429 $679 $260 $438 reversed $256 $-1 #
edge $-1 $680 -223.74706259346294 $442 223.74706259346294 $437 $681 forward 7 unknown #
coedge $-1 $432 $261 $679 $682 forward $441 $-1 #
coedge $-1 $261 $432 $675 $683 reversed $441 $-1 #
loop $-1 $-1 $439 $659 #
vertex $-1 $262 $684 #
vertex $-1 $262 $685 #
straight-curve $-1 223.74706259346294 0 111.87353129673147 0 1 0 I I #
loop $-1 $-1 $686 $169 #
coedge $-1 $446 $446 $266 $447 reversed $263 $-1 #
edge $-1 $687 0 $687 6.2831853071796004 $446 $688 forward 7 unknown #
vertex $-1 $267 $689 #
ellipse-curve $-1 0 0 -4.0872676778466133 0 0 -1 1 0 0 1 I I #
face $-1 $-1 $283 $42 $-1 $690 reversed single #
loop $-1 $-1 $466 $268 #
plane-surface $-1 0 33.056755802120541 0 0 -1 0 0 0 -1 forward_v I I I I #
coedge $-1 $691 $464 $467 $692 forward $269 $-1 #
coedge $-1 $470 $271 $272 $458 reversed $175 $-1 #
coedge $-1 $464 $691 $271 $456 reversed $269 $-1 #
edge $-1 $471 -6.9327685132045156 $693 6.9327685132045156 $455 $694 forward 7 unknown #
coedge $-1 $273 $272 $691 $695 forward $113 $-1 #
edge $-1 $462 -55.936765648365736 $693 55.936765648365736 $454 $696 forward 7 unknown #
coedge $-1 $467 $466 $273 $460 reversed $451 $-1 #
edge $-1 $697 -55.936765648365736 $461 55.936765648365736 $459 $698 forward 7 unknown #
vertex $-1 $275 $699 #
vertex $-1 $473 $700 #
straight-curve $-1 55.936765648365736 0 -6.9327685132045156 0 -1 0 I I #
coedge $-1 $453 $455 $276 $465 reversed $269 $-1 #
edge $-1 $468 -33.056755802120541 $471 33.056755802120541 $464 $701 forward 7 unknown #
coedge $-1 $459 $277 $282 $474 forward $451 $-1 #
coedge $-1 $277 $459 $453 $692 reversed $451 $-1 #
vertex $-1 $278 $702 #
straight-curve $-1 0 33.056755802120541 6.9327685132045156 -1 0 0 I I #
coedge $-1 $279 $454 $281 $473 reversed $175 $-1 #
vertex $-1 $465 $703 #
straight-curve $-1 0 -33.056755802120541 6.9327685132045156 1 0 0 I I #
edge $-1 $284 -6.9327685132045156 $462 6.9327685132045156 $281 $704 forward 7 unknown #
edge $-1 $285 -6.9327685132045156 $461 6.9327685132045156 $282 $705 forward 7 unknown #
point $-1 55.936765648365736 -33.056755802120541 6.9327685132045156 #
point $-1 55.936765648365736 33.056755802120541 6.9327685132045156 #
face $-1 $-1 $302 $43 $-1 $706 reversed single #
loop $-1 $-1 $493 $287 #
plane-surface $-1 0 4.2532652254167376 0 0 -1 0 0 0 -1 forward_v I I I I #
coedge $-1 $707 $491 $494 $708 forward $288 $-1 #
coedge $-1 $497 $290 $291 $485 reversed $183 $-1 #
coedge $-1 $491 $707 $290 $483 reversed $288 $-1 #
edge $-1 $498 -1.5 $709 1.5 $482 $710 forward 7 unknown #
coedge $-1 $292 $291 $707 $711 forward $117 $-1 #
edge $-1 $489 -55.936765648365736 $709 55.936765648365736 $481 $712 forward 7 unknown #
coedge $-1 $494 $493 $292 $487 reversed $478 $-1 #
edge $-1 $713 -55.936765648365736 $488 55.936765648365736 $486 $714 forward 7 unknown #
vertex $-1 $294 $715 #
vertex $-1 $500 $716 #
straight-curve $-1 55.936765648365736 0 -1.5 0 -1 0 I I #
coedge $-1 $480 $482 $295 $492 reversed $288 $-1 #
edge $-1 $495 -4.2532652254167376 $498 4.2532652254167376 $491 $717 forward 7 unknown #
coedge $-1 $486 $296 $301 $501 forward $478 $-1 #
coedge $-1 $296 $486 $480 $708 reversed $478 $-1 #
vertex $-1 $297 $718 #
straight-curve $-1 0 4.2532652254167376 1.5 -1 0 0 I I #
coedge $-1 $298 $481 $300 $500 reversed $183 $-1 #
vertex $-1 $492 $719 #
straight-curve $-1 0 -4.2532652254167376 1.5 1 0 0 I I #
edge $-1 $303 -1.5 $489 1.5 $300 $720 forward 7 unknown #
edge $-1 $304 -1.5 $488 1.5 $301 $721 forward 7 unknown #
point $-1 55.936765648365736 -4.2532652254167376 1.5 #
point $-1 55.936765648365736 4.2532652254167376 1.5 #
face $-1 $-1 $321 $44 $-1 $722 reversed single #
loop $-1 $-1 $520 $306 #
plane-surface $-1 0 4.2532652254167402 0 0 -1 0 0 0 -1 forward_v I I I I #
coedge $-1 $723 $518 $521 $724 forward $307 $-1 #
coedge $-1 $524 $309 $310 $512 reversed $191 $-1 #
coedge $-1 $518 $723 $309 $510 reversed $307 $-1 #
edge $-1 $525 -1.5 $725 1.5 $509 $726 forward 7 unknown #
coedge $-1 $311 $310 $723 $727 forward $121 $-1 #
edge $-1 $516 -55.936765648365736 $725 55.936765648365736 $508 $728 forward 7 unknown #
coedge $-1 $521 $520 $311 $514 reversed $505 $-1 #
edge $-1 $729 -55.936765648365736 $515 55.936765648365736 $513 $730 forward 7 unknown #
vertex $-1 $313 $731 #
vertex $-1 $527 $732 #
straight-curve $-1 55.936765648365736 0 -1.5 0 -1 0 I I #
coedge $-1 $507 $509 $314 $519 reversed $307 $-1 #
edge $-1 $522 -4.2532652254167402 $525 4.2532652254167402 $518 $733 forward 7 unknown #
coedge $-1 $513 $315 $320 $528 forward $505 $-1 #
coedge $-1 $315 $513 $507 $724 reversed $505 $-1 #
vertex $-1 $316 $734 #
straight-curve $-1 0 4.2532652254167402 1.5 -1 0 0 I I #
coedge $-1 $317 $508 $319 $527 reversed $191 $-1 #
vertex $-1 $519 $735 #
straight-curve $-1 0 -4.2532652254167402 1.5 1 0 0 I I #
edge $-1 $322 -1.5 $516 1.5 $319 $736 forward 7 unknown #
edge $-1 $323 -1.5 $515 1.5 $320 $737 forward 7 unknown #
point $-1 55.936765648365736 -4.2532652254167402 1.5 #
point $-1 55.936765648365736 4.2532652254167402 1.5 #
face $-1 $-1 $340 $45 $-1 $738 reversed single #
loop $-1 $-1 $547 $325 #
plane-surface $-1 0 4.2012028747754346 0 0 -1 0 0 0 -1 forward_v I I I I #
coedge $-1 $739 $545 $548 $740 forward $326 $-1 #
coedge $-1 $551 $328 $329 $539 reversed $199 $-1 #
coedge $-1 $545 $739 $328 $537 reversed $326 $-1 #
edge $-1 $552 -111.87353129673147 $741 111.87353129673147 $536 $742 forward 7 unknown #
coedge $-1 $330 $329 $739 $743 forward $125 $-1 #
edge $-1 $543 -223.74706259346294 $741 223.74706259346294 $535 $744 forward 7 unknown #
coedge $-1 $548 $547 $330 $541 reversed $532 $-1 #
edge $-1 $745 -223.74706259346294 $542 223.74706259346294 $540 $746 forward 7 unknown #
vertex $-1 $332 $747 #
vertex $-1 $554 $748 #
straight-curve $-1 223.74706259346294 0 -111.87353129673147 0 -1 0 I I #
coedge $-1 $534 $536 $333 $546 reversed $326 $-1 #
edge $-1 $549 -4.2012028747754346 $552 4.2012028747754346 $545 $749 forward 7 unknown #
coedge $-1 $540 $334 $339 $555 forward $532 $-1 #
coedge $-1 $334 $540 $534 $740 reversed $532 $-1 #
vertex $-1 $335 $750 #
straight-curve $-1 0 4.2012028747754346 111.87353129673147 -1 0 0 I I #
coedge $-1 $336 $535 $338 $554 reversed $199 $-1 #
vertex $-1 $546 $751 #
straight-curve $-1 0 -4.2012028747754346 111.87353129673147 1 0 0 I I #
edge $-1 $341 -111.87353129673147 $543 111.87353129673147 $338 $752 forward 7 unknown #
edge $-1 $342 -111.87353129673147 $542 111.87353129673147 $339 $753 forward 7 unknown #
point $-1 223.74706259346294 -4.2012028747754346 111.87353129673147 #
point $-1 223.74706259346294 4.2012028747754346 111.87353129673147 #
coedge $-1 $558 $558 $-1 $754 reversed $344 $-1 #
vertex $-1 $346 $755 #
ellipse-curve $-1 0 0 -0.5 0 0 -1 1 0 0 1 I I #
point $-1 1 0 -2.262291329691458 #
coedge $-1 $562 $562 $-1 $756 reversed $349 $-1 #
vertex $-1 $351 $757 #
ellipse-curve $-1 0 0 -0.5 0 0 -1 1 0 0 1 I I #
point $-1 1 0 -2.262291329691458 #
face $-1 $-1 $369 $48 $-1 $758 reversed single #
loop $-1 $-1 $582 $354 #
plane-surface $-1 0 3.478567281620931 0 0 -1 0 0 0 -1 forward_v I I I I #
coedge $-1 $759 $580 $583 $760 forward $355 $-1 #
coedge $-1 $586 $357 $358 $574 reversed $217 $-1 #
coedge $-1 $580 $759 $357 $572 reversed $355 $-1 #
edge $-1 $587 -111.87353129673147 $761 111.87353129673147 $571 $762 forward 7 unknown #
coedge $-1 $359 $358 $759 $763 forward $139 $-1 #
edge $-1 $578 -223.74706259346294 $761 223.74706259346294 $570 $764 forward 7 unknown #
coedge $-1 $583 $582 $359 $576 reversed $567 $-1 #
edge $-1 $765 -223.74706259346294 $577 223.74706259346294 $575 $766 forward 7 unknown #
vertex $-1 $361 $767 #
vertex $-1 $589 $768 #
straight-curve $-1 223.74706259346294 0 -111.87353129673147 0 -1 0 I I #
coedge $-1 $569 $571 $362 $581 reversed $355 $-1 #
edge $-1 $584 -3.478567281620931 $587 3.478567281620931 $580 $769 forward 7 unknown #
coedge $-1 $575 $363 $368 $590 forward $567 $-1 #
coedge $-1 $363 $575 $569 $760 reversed $567 $-1 #
vertex $-1 $364 $770 #
straight-curve $-1 0 3.478567281620931 111.87353129673147 -1 0 0 I I #
coedge $-1 $365 $570 $367 $589 reversed $217 $-1 #
vertex $-1 $581 $771 #
straight-curve $-1 0 -3.478567281620931 111.87353129673147 1 0 0 I I #
edge $-1 $370 -111.87353129673147 $578 111.87353129673147 $367 $772 forward 7 unknown #
edge $-1 $371 -111.87353129673147 $577 111.87353129673147 $368 $773 forward 7 unknown #
point $-1 223.74706259346294 -3.478567281620931 111.87353129673147 #
point $-1 223.74706259346294 3.478567281620931 111.87353129673147 #
coedge $-1 $593 $593 $-1 $774 reversed $373 $-1 #
vertex $-1 $375 $775 #
ellipse-curve $-1 0 0 -0.5 0 0 -1 1 0 0 1 I I #
point $-1 1 0 -4.0872676778466133 #
face $-1 $-1 $393 $50 $-1 $776 reversed single #
loop $-1 $-1 $613 $378 #
plane-surface $-1 0 3.478567281620931 0 0 -1 0 0 0 -1 forward_v I I I I #
coedge $-1 $777 $611 $614 $778 forward $379 $-1 #
coedge $-1 $617 $381 $382 $605 reversed $230 $-1 #
coedge $-1 $611 $777 $381 $603 reversed $379 $-1 #
edge $-1 $618 -111.87353129673147 $779 111.87353129673147 $602 $780 forward 7 unknown #
coedge $-1 $383 $382 $777 $781 forward $148 $-1 #
edge $-1 $609 -223.74706259346294 $779 223.74706259346294 $601 $782 forward 7 unknown #
coedge $-1 $614 $613 $383 $607 reversed $598 $-1 #
edge $-1 $783 -223.74706259346294 $608 223.74706259346294 $606 $784 forward 7 unknown #
vertex $-1 $385 $785 #
vertex $-1 $620 $786 #
straight-curve $-1 223.74706259346294 0 -111.87353129673147 0 -1 0 I I #
coedge $-1 $600 $602 $386 $612 reversed $379 $-1 #
edge $-1 $615 -3.478567281620931 $618 3.478567281620931 $611 $787 forward 7 unknown #
coedge $-1 $606 $387 $392 $621 forward $598 $-1 #
coedge $-1 $387 $606 $600 $778 reversed $598 $-1 #
vertex $-1 $388 $788 #
straight-curve $-1 0 3.478567281620931 111.87353129673147 -1 0 0 I I #
coedge $-1 $389 $601 $391 $620 reversed $230 $-1 #
vertex $-1 $612 $789 #
straight-curve $-1 0 -3.478567281620931 111.87353129673147 1 0 0 I I #
edge $-1 $394 -111.87353129673147 $609 111.87353129673147 $391 $790 forward 7 unknown #
edge $-1 $395 -111.87353129673147 $608 111.87353129673147 $392 $791 forward 7 unknown #
point $-1 223.74706259346294 -3.478567281620931 111.87353129673147 #
point $-1 223.74706259346294 3.478567281620931 111.87353129673147 #
coedge $-1 $624 $624 $-1 $792 reversed $397 $-1 #
vertex $-1 $399 $793 #
ellipse-curve $-1 0 0 -0.5 0 0 -1 1 0 0 1 I I #
point $-1 1 0 -4.0872676778466133 #
face $-1 $-1 $417 $52 $-1 $794 reversed single #
loop $-1 $-1 $644 $402 #
plane-surface $-1 0 3.478567281620931 0 0 -1 0 0 0 -1 forward_v I I I I #
coedge $-1 $795 $642 $645 $796 forward $403 $-1 #
coedge $-1 $648 $405 $406 $636 reversed $243 $-1 #
coedge $-1 $642 $795 $405 $634 reversed $403 $-1 #
edge $-1 $649 -111.87353129673147 $797 111.87353129673147 $633 $798 forward 7 unknown #
coedge $-1 $407 $406 $795 $799 forward $157 $-1 #
edge $-1 $640 -223.74706259346294 $797 223.74706259346294 $632 $800 forward 7 unknown #
coedge $-1 $645 $644 $407 $638 reversed $629 $-1 #
edge $-1 $801 -223.74706259346294 $639 223.74706259346294 $637 $802 forward 7 unknown #
vertex $-1 $409 $803 #
vertex $-1 $651 $804 #
straight-curve $-1 223.74706259346294 0 -111.87353129673147 0 -1 0 I I #
coedge $-1 $631 $633 $410 $643 reversed $403 $-1 #
edge $-1 $646 -3.478567281620931 $649 3.478567281620931 $642 $805 forward 7 unknown #
coedge $-1 $637 $411 $416 $652 forward $629 $-1 #
coedge $-1 $411 $637 $631 $796 reversed $629 $-1 #
vertex $-1 $412 $806 #
straight-curve $-1 0 3.478567281620931 111.87353129673147 -1 0 0 I I #
coedge $-1 $413 $632 $415 $651 reversed $243 $-1 #
vertex $-1 $643 $807 #
straight-curve $-1 0 -3.478567281620931 111.87353129673147 1 0 0 I I #
edge $-1 $418 -111.87353129673147 $640 111.87353129673147 $415 $808 forward 7 unknown #
edge $-1 $419 -111.87353129673147 $639 111.87353129673147 $416 $809 forward 7 unknown #
point $-1 223.74706259346294 -3.478567281620931 111.87353129673147 #
point $-1 223.74706259346294 3.478567281620931 111.87353129673147 #
coedge $-1 $655 $655 $-1 $810 reversed $421 $-1 #
vertex $-1 $423 $811 #
ellipse-curve $-1 0 0 -0.5 0 0 -1 1 0 0 1 I I #
point $-1 1 0 -4.0872676778466133 #
face $-1 $-1 $441 $54 $-1 $812 reversed single #
loop $-1 $-1 $675 $426 #
plane-surface $-1 0 3.478567281620931 0 0 -1 0 0 0 -1 forward_v I I I I #
coedge $-1 $813 $673 $676 $814 forward $427 $-1 #
coedge $-1 $679 $429 $430 $667 reversed $256 $-1 #
coedge $-1 $673 $813 $429 $665 reversed $427 $-1 #
edge $-1 $680 -111.87353129673147 $815 111.87353129673147 $664 $816 forward 7 unknown #
coedge $-1 $431 $430 $813 $817 forward $166 $-1 #
edge $-1 $671 -223.74706259346294 $815 223.74706259346294 $663 $818 forward 7 unknown #
coedge $-1 $676 $675 $431 $669 reversed $660 $-1 #
edge $-1 $819 -223.74706259346294 $670 223.74706259346294 $668 $820 forward 7 unknown #
vertex $-1 $433 $821 #
vertex $-1 $682 $822 #
straight-curve $-1 223.74706259346294 0 -111.87353129673147 0 -1 0 I I #
coedge $-1 $662 $664 $434 $674 reversed $427 $-1 #
edge $-1 $677 -3.478567281620931 $680 3.478567281620931 $673 $823 forward 7 unknown #
coedge $-1 $668 $435 $440 $683 forward $660 $-1 #
coedge $-1 $435 $668 $662 $814 reversed $660 $-1 #
vertex $-1 $436 $824 #
straight-curve $-1 0 3.478567281620931 111.87353129673147 -1 0 0 I I #
coedge $-1 $437 $663 $439 $682 reversed $256 $-1 #
vertex $-1 $674 $825 #
straight-curve $-1 0 -3.478567281620931 111.87353129673147 1 0 0 I I #
edge $-1 $442 -111.87353129673147 $671 111.87353129673147 $439 $826 forward 7 unknown #
edge $-1 $443 -111.87353129673147 $670 111.87353129673147 $440 $827 forward 7 unknown #
point $-1 223.74706259346294 -3.478567281620931 111.87353129673147 #
point $-1 223.74706259346294 3.478567281620931 111.87353129673147 #
coedge $-1 $686 $686 $-1 $828 reversed $445 $-1 #
vertex $-1 $447 $829 #
ellipse-curve $-1 0 0 -0.5 0 0 -1 1 0 0 1 I I #
point $-1 1 0 -4.0872676778466133 #
plane-surface $-1 55.936765648365736 0 0 -1 0 0 0 0 1 forward_v I I I I #
coedge $-1 $455 $453 $457 $695 reversed $269 $-1 #
edge $-1 $468 -6.9327685132045156 $697 6.9327685132045156 $467 $830 forward 7 unknown #
vertex $-1 $695 $831 #
straight-curve $-1 -55.936765648365736 -33.056755802120541 0 0 0 -1 I I #
edge $-1 $693 -33.056755802120541 $697 33.056755802120541 $691 $832 forward 7 unknown #
straight-curve $-1 0 -33.056755802120541 -6.9327685132045156 -1 0 0 I I #
vertex $-1 $460 $833 #
straight-curve $-1 0 33.056755802120541 -6.9327685132045156 1 0 0 I I #
point $-1 55.936765648365736 33.056755802120541 -6.9327685132045156 #
point $-1 55.936765648365736 -33.056755802120541 -6.9327685132045156 #
straight-curve $-1 -55.936765648365736 0 6.9327685132045156 0 -1 0 I I #
point $-1 -55.936765648365736 33.056755802120541 6.9327685132045156 #
point $-1 -55.936765648365736 -33.056755802120541 6.9327685132045156 #
straight-curve $-1 55.936765648365736 -33.056755802120541 0 0 0 -1 I I #
straight-curve $-1 55.936765648365736 33.056755802120541 0 0 0 -1 I I #
plane-surface $-1 55.936765648365736 0 0 -1 0 0 0 0 1 forward_v I I I I #
coedge $-1 $482 $480 $484 $711 reversed $288 $-1 #
edge $-1 $495 -1.5 $713 1.5 $494 $834 forward 7 unknown #
vertex $-1 $711 $835 #
straight-curve $-1 -55.936765648365736 -4.2532652254167376 0 0 0 -1 I I #
edge $-1 $709 -4.2532652254167376 $713 4.2532652254167376 $707 $836 forward 7 unknown #
straight-curve $-1 0 -4.2532652254167376 -1.5 -1 0 0 I I #
vertex $-1 $487 $837 #
straight-curve $-1 0 4.2532652254167376 -1.5 1 0 0 I I #
point $-1 55.936765648365736 4.2532652254167376 -1.5 #
point $-1 55.936765648365736 -4.2532652254167376 -1.5 #
straight-curve $-1 -55.936765648365736 0 1.5 0 -1 0 I I #
point $-1 -55.936765648365736 4.2532652254167376 1.5 #
point $-1 -55.936765648365736 -4.2532652254167376 1.5 #
straight-curve $-1 55.936765648365736 -4.2532652254167376 0 0 0 -1 I I #
straight-curve $-1 55.936765648365736 4.2532652254167376 0 0 0 -1 I I #
plane-surface $-1 55.936765648365736 0 0 -1 0 0 0 0 1 forward_v I I I I #
coedge $-1 $509 $507 $511 $727 reversed $307 $-1 #
edge $-1 $522 -1.5 $729 1.5 $521 $838 forward 7 unknown #
vertex $-1 $727 $839 #
straight-curve $-1 -55.936765648365736 -4.2532652254167402 0 0 0 -1 I I #
edge $-1 $725 -4.2532652254167402 $729 4.2532652254167402 $723 $840 forward 7 unknown #
straight-curve $-1 0 -4.2532652254167402 -1.5 -1 0 0 I I #
vertex $-1 $514 $841 #
straight-curve $-1 0 4.2532652254167402 -1.5 1 0 0 I I #
point $-1 55.936765648365736 4.2532652254167402 -1.5 #
point $-1 55.936765648365736 -4.2532652254167402 -1.5 #
straight-curve $-1 -55.936765648365736 0 1.5 0 -1 0 I I #
point $-1 -55.936765648365736 4.2532652254167402 1.5 #
point $-1 -55.936765648365736 -4.2532652254167402 1.5 #
straight-curve $-1 55.936765648365736 -4.2532652254167402 0 0 0 -1 I I #
straight-curve $-1 55.936765648365736 4.2532652254167402 0 0 0 -1 I I #
plane-surface $-1 223.74706259346294 0 0 -1 0 0 0 0 1 forward_v I I I I #
coedge $-1 $536 $534 $538 $743 reversed $326 $-1 #
edge $-1 $549 -111.87353129673147 $745 111.87353129673147 $548 $842 forward 7 unknown #
vertex $-1 $743 $843 #
straight-curve $-1 -223.74706259346294 -4.2012028747754346 0 0 0 -1 I I #
edge $-1 $741 -4.2012028747754346 $745 4.2012028747754346 $739 $844 forward 7 unknown #
straight-curve $-1 0 -4.2012028747754346 -111.87353129673147 -1 0 0 I I #
vertex $-1 $541 $845 #
straight-curve $-1 0 4.2012028747754346 -111.87353129673147 1 0 0 I I #
point $-1 223.74706259346294 4.2012028747754346 -111.87353129673147 #
point $-1 223.74706259346294 -4.2012028747754346 -111.87353129673147 #
straight-curve $-1 -223.74706259346294 0 111.87353129673147 0 -1 0 I I #
point $-1 -223.74706259346294 4.2012028747754346 111.87353129673147 #
point $-1 -223.74706259346294 -4.2012028747754346 111.87353129673147 #
straight-curve $-1 223.74706259346294 -4.2012028747754346 0 0 0 -1 I I #
straight-curve $-1 223.74706259346294 4.2012028747754346 0 0 0 -1 I I #
edge $-1 $846 1 $846 0 $558 $-1 forward 7 unknown #
point $-1 1 0 -0.5 #
edge $-1 $847 1 $847 0 $562 $-1 forward 7 unknown #
point $-1 1 0 -0.5 #
plane-surface $-1 223.74706259346294 0 0 -1 0 0 0 0 1 forward_v I I I I #
coedge $-1 $571 $569 $573 $763 reversed $355 $-1 #
edge $-1 $584 -111.87353129673147 $765 111.87353129673147 $583 $848 forward 7 unknown #
vertex $-1 $763 $849 #
straight-curve $-1 -223.74706259346294 -3.478567281620931 0 0 0 -1 I I #
edge $-1 $761 -3.478567281620931 $765 3.478567281620931 $759 $850 forward 7 unknown #
straight-curve $-1 0 -3.478567281620931 -111.87353129673147 -1 0 0 I I #
vertex $-1 $576 $851 #
straight-curve $-1 0 3.478567281620931 -111.87353129673147 1 0 0 I I #
point $-1 223.74706259346294 3.478567281620931 -111.87353129673147 #
point $-1 223.74706259346294 -3.478567281620931 -111.87353129673147 #
straight-curve $-1 -223.74706259346294 0 111.87353129673147 0 -1 0 I I #
point $-1 -223.74706259346294 3.478567281620931 111.87353129673147 #
point $-1 -223.74706259346294 -3.478567281620931 111.87353129673147 #
straight-curve $-1 223.74706259346294 -3.478567281620931 0 0 0 -1 I I #
straight-curve $-1 223.74706259346294 3.478567281620931 0 0 0 -1 I I #
edge $-1 $852 1 $852 0 $593 $-1 forward 7 unknown #
point $-1 1 0 -0.5 #
plane-surface $-1 223.74706259346294 0 0 -1 0 0 0 0 1 forward_v I I I I #
coedge $-1 $602 $600 $604 $781 reversed $379 $-1 #
edge $-1 $615 -111.87353129673147 $783 111.87353129673147 $614 $853 forward 7 unknown #
vertex $-1 $781 $854 #
straight-curve $-1 -223.74706259346294 -3.478567281620931 0 0 0 -1 I I #
edge $-1 $779 -3.478567281620931 $783 3.478567281620931 $777 $855 forward 7 unknown #
straight-curve $-1 0 -3.478567281620931 -111.87353129673147 -1 0 0 I I #
vertex $-1 $607 $856 #
straight-curve $-1 0 3.478567281620931 -111.87353129673147 1 0 0 I I #
point $-1 223.74706259346294 3.478567281620931 -111.87353129673147 #
point $-1 223.74706259346294 -3.478567281620931 -111.87353129673147 #
straight-curve $-1 -223.74706259346294 0 111.87353129673147 0 -1 0 I I #
point $-1 -223.74706259346294 3.478567281620931 111.87353129673147 #
point $-1 -223.74706259346294 -3.478567281620931 111.87353129673147 #
straight-curve $-1 223.74706259346294 -3.478567281620931 0 0 0 -1 I I #
straight-curve $-1 223.74706259346294 3.478567281620931 0 0 0 -1 I I #
edge $-1 $857 1 $857 0 $624 $-1 forward 7 unknown #
point $-1 1 0 -0.5 #
plane-surface $-1 223.74706259346294 0 0 -1 0 0 0 0 1 forward_v I I I I #
coedge $-1 $633 $631 $635 $799 reversed $403 $-1 #
edge $-1 $646 -111.87353129673147 $801 111.87353129673147 $645 $858 forward 7 unknown #
vertex $-1 $799 $859 #
straight-curve $-1 -223.74706259346294 -3.478567281620931 0 0 0 -1 I I #
edge $-1 $797 -3.478567281620931 $801 3.478567281620931 $795 $860 forward 7 unknown #
straight-curve $-1 0 -3.478567281620931 -111.87353129673147 -1 0 0 I I #
vertex $-1 $638 $861 #
straight-curve $-1 0 3.478567281620931 -111.87353129673147 1 0 0 I I #
point $-1 223.74706259346294 3.478567281620931 -111.87353129673147 #
point $-1 223.74706259346294 -3.478567281620931 -111.87353129673147 #
straight-curve $-1 -223.74706259346294 0 111.87353129673147 0 -1 0 I I #
point $-1 -223.74706259346294 3.478567281620931 111.87353129673147 #
point $-1 -223.74706259346294 -3.478567281620931 111.87353129673147 #
straight-curve $-1 223.74706259346294 -3.478567281620931 0 0 0 -1 I I #
straight-curve $-1 223.74706259346294 3.478567281620931 0 0 0 -1 I I #
edge $-1 $862 1 $862 0 $655 $-1 forward 7 unknown #
point $-1 1 0 -0.5 #
plane-surface $-1 223.74706259346294 0 0 -1 0 0 0 0 1 forward_v I I I I #
coedge $-1 $664 $662 $666 $817 reversed $427 $-1 #
edge $-1 $677 -111.87353129673147 $819 111.87353129673147 $676 $863 forward 7 unknown #
vertex $-1 $817 $864 #
straight-curve $-1 -223.74706259346294 -3.478567281620931 0 0 0 -1 I I #
edge $-1 $815 -3.478567281620931 $819 3.478567281620931 $813 $865 forward 7 unknown #
straight-curve $-1 0 -3.478567281620931 -111.87353129673147 -1 0 0 I I #
vertex $-1 $669 $866 #
straight-curve $-1 0 3.478567281620931 -111.87353129673147 1 0 0 I I #
point $-1 223.74706259346294 3.478567281620931 -111.87353129673147 #
point $-1 223.74706259346294 -3.478567281620931 -111.87353129673147 #
straight-curve $-1 -223.74706259346294 0 111.87353129673147 0 -1 0 I I #
point $-1 -223.74706259346294 3.478567281620931 111.87353129673147 #
point $-1 -223.74706259346294 -3.478567281620931 111.87353129673147 #
straight-curve $-1 223.74706259346294 -3.478567281620931 0 0 0 -1 I I #
straight-curve $-1 223.74706259346294 3.478567281620931 0 0 0 -1 I I #
edge $-1 $867 1 $867 0 $686 $-1 forward 7 unknown #
point $-1 1 0 -0.5 #
straight-curve $-1 -55.936765648365736 33.056755802120541 0 0 0 -1 I I #
point $-1 -55.936765648365736 -33.056755802120541 -6.9327685132045156 #
straight-curve $-1 -55.936765648365736 0 -6.9327685132045156 0 1 0 I I #
point $-1 -55.936765648365736 33.056755802120541 -6.9327685132045156 #
straight-curve $-1 -55.936765648365736 4.2532652254167376 0 0 0 -1 I I #
point $-1 -55.936765648365736 -4.2532652254167376 -1.5 #
straight-curve $-1 -55.936765648365736 0 -1.5 0 1 0 I I #
point $-1 -55.936765648365736 4.2532652254167376 -1.5 #
straight-curve $-1 -55.936765648365736 4.2532652254167402 0 0 0 -1 I I #
point $-1 -55.936765648365736 -4.2532652254167402 -1.5 #
straight-curve $-1 -55.936765648365736 0 -1.5 0 1 0 I I #
point $-1 -55.936765648365736 4.2532652254167402 -1.5 #
straight-curve $-1 -223.74706259346294 4.2012028747754346 0 0 0 -1 I I #
point $-1 -223.74706259346294 -4.2012028747754346 -111.87353129673147 #
straight-curve $-1 -223.74706259346294 0 -111.87353129673147 0 1 0 I I #
point $-1 -223.74706259346294 4.2012028747754346 -111.87353129673147 #
vertex $-1 $754 $868 #
vertex $-1 $756 $869 #
straight-curve $-1 -223.74706259346294 3.478567281620931 0 0 0 -1 I I #
point $-1 -223.74706259346294 -3.478567281620931 -111.87353129673147 #
straight-curve $-1 -223.74706259346294 0 -111.87353129673147 0 1 0 I I #
point $-1 -223.74706259346294 3.478567281620931 -111.87353129673147 #
vertex $-1 $774 $870 #
straight-curve $-1 -223.74706259346294 3.478567281620931 0 0 0 -1 I I #
point $-1 -223.74706259346294 -3.478567281620931 -111.87353129673147 #
straight-curve $-1 -223.74706259346294 0 -111.87353129673147 0 1 0 I I #
point $-1 -223.74706259346294 3.478567281620931 -111.87353129673147 #
vertex $-1 $792 $871 #
straight-curve $-1 -223.74706259346294 3.478567281620931 0 0 0 -1 I I #
point $-1 -223.74706259346294 -3.478567281620931 -111.87353129673147 #
straight-curve $-1 -223.74706259346294 0 -111.87353129673147 0 1 0 I I #
point $-1 -223.74706259346294 3.478567281620931 -111.87353129673147 #
vertex $-1 $810 $872 #
straight-curve $-1 -223.74706259346294 3.478567281620931 0 0 0 -1 I I #
point $-1 -223.74706259346294 -3.478567281620931 -111.87353129673147 #
straight-curve $-1 -223.74706259346294 0 -111.87353129673147 0 1 0 I I #
point $-1 -223.74706259346294 3.478567281620931 -111.87353129673147 #
vertex $-1 $828 $873 #
point $-1 0 0 0.5 #
point $-1 0 0 0.5 #
point $-1 0 0 0.5 #
point $-1 0 0 0.5 #
point $-1 0 0 0.5 #
point $-1 0 0 0.5 #
End-of-ACIS-data 