500 0 9 0           
7 Unknown 11 ACIS 5.0 NT 24 Fri Mar 26 03:01:16 1999 
-1 9.9999999999999995e-007 1e-010 
body $-1 $9 $-1 $10 #
body $-1 $11 $-1 $12 #
body $-1 $13 $-1 $14 #
body $-1 $15 $-1 $16 #
body $-1 $17 $-1 $18 #
body $-1 $19 $-1 $20 #
body $-1 $21 $-1 $22 #
body $-1 $23 $-1 $24 #
body $-1 $25 $-1 $26 #
lump $-1 $-1 $27 $0 #
transform $-1 1 0 0 0 1 0 0 0 1 69.167149876400032 28.852962477967136 12.812962502308652 1 rotate no_reflect no_shear #
lump $-1 $-1 $28 $1 #
transform $-1 1 0 0 0 1 0 0 0 1 69.167149876400032 28.852962477967136 12.812962502308652 1 rotate no_reflect no_shear #
lump $-1 $-1 $29 $2 #
transform $-1 1 0 0 0 1 0 0 0 1 69.167149876400032 28.852962477967136 12.812962502308652 1 rotate no_reflect no_shear #
lump $-1 $-1 $30 $3 #
transform $-1 1 0 0 0 1 0 0 0 1 69.167149876400032 28.852962477967136 12.812962502308652 1 rotate no_reflect no_shear #
lump $-1 $-1 $31 $4 #
transform $-1 1 0 0 0 1 0 0 0 1 69.167149876400032 28.852962477967136 12.812962502308652 1 rotate no_reflect no_shear #
lump $-1 $-1 $32 $5 #
transform $-1 1 0 0 0 1 0 0 0 1 69.167149876400032 28.852962477967136 12.812962502308652 1 rotate no_reflect no_shear #
lump $-1 $-1 $33 $6 #
transform $-1 1 0 0 0 1 0 0 0 1 69.167149876400032 28.852962477967136 12.812962502308652 1 rotate no_reflect no_shear #
lump $-1 $-1 $34 $7 #
transform $-1 1 0 0 0 1 0 0 0 1 69.167149876400032 28.852962477967136 12.812962502308652 1 rotate no_reflect no_shear #
lump $-1 $-1 $35 $8 #
transform $-1 1 0 0 0 1 0 0 0 1 69.167149876400032 28.852962477967136 12.812962502308652 1 rotate no_reflect no_shear #
shell $-1 $-1 $-1 $36 $-1 $9 #
shell $-1 $-1 $-1 $37 $-1 $11 #
shell $-1 $-1 $-1 $38 $-1 $13 #
shell $-1 $-1 $-1 $39 $-1 $15 #
shell $-1 $-1 $-1 $40 $-1 $17 #
shell $-1 $-1 $-1 $41 $-1 $19 #
shell $-1 $-1 $-1 $42 $-1 $21 #
shell $-1 $-1 $-1 $43 $-1 $23 #
shell $-1 $-1 $-1 $44 $-1 $25 #
face $-1 $45 $46 $27 $-1 $47 forward single #
face $-1 $48 $49 $28 $-1 $50 forward single #
face $-1 $51 $52 $29 $-1 $53 reversed single #
face $-1 $54 $55 $30 $-1 $56 forward single #
face $-1 $57 $58 $31 $-1 $59 forward single #
face $-1 $60 $61 $32 $-1 $62 reversed single #
face $-1 $63 $64 $33 $-1 $65 forward single #
face $-1 $66 $67 $34 $-1 $68 forward single #
face $-1 $69 $70 $35 $-1 $71 forward single #
face $-1 $72 $73 $27 $-1 $74 reversed single #
loop $-1 $-1 $75 $36 #
plane-surface $-1 0 0 12.812962502308652 0 0 1 1 0 0 forward_v I I I I #
face $-1 $76 $77 $28 $-1 $78 forward single #
loop $-1 $-1 $79 $37 #
plane-surface $-1 0 -28.852962477967136 0 0 1 0 0 0 1 forward_v I I I I #
face $-1 $80 $81 $29 $-1 $82 reversed single #
loop $-1 $-1 $83 $38 #
plane-surface $-1 109.84179890189137 9.9201428365816202 200.13144463421668 0 -1 0 -0.83867057594974714 0 -0.54463902268945019 forward_v I I I I #
face $-1 $84 $85 $30 $-1 $86 forward single #
loop $-1 $87 $88 $39 #
cone-surface $-1 67.165993028803172 0.054065715360266609 10.345093740622712 -0.83867057594974714 0 -0.54463902268945019 0.2723195113447251 0 -0.41933528797487357 1 I I 0 1 0.5 forward I I I I #
face $-1 $89 $90 $31 $-1 $91 forward single #
loop $-1 $92 $93 $40 #
cone-surface $-1 67.165993028803172 5.9737119880930756 10.345093740622712 -0.83867057594974714 0 -0.54463902268945019 0.2723195113447251 0 -0.41933528797487357 1 I I 0 1 0.5 forward I I I I #
face $-1 $94 $95 $32 $-1 $96 reversed single #
loop $-1 $-1 $97 $41 #
plane-surface $-1 -159.92261735196203 -8.3692976017325016 110.14858480457684 0 1 0 -0.6560590369687036 0 0.75470957328743171 forward_v I I I I #
face $-1 $98 $99 $33 $-1 $100 forward single #
loop $-1 $101 $102 $42 #
cone-surface $-1 -64.774524881593194 -6.189714944778931 8.9023086980733162 0.6560590369687036 0 -0.75470957328743171 0.37735478664371586 0 0.3280295184843518 1 I I 0 1 0.5 forward I I I I #
face $-1 $103 $104 $34 $-1 $105 forward single #
loop $-1 $106 $107 $43 #
cone-surface $-1 -64.774524881593194 -2.9203409593485752 8.9023086980733162 0.6560590369687036 0 -0.75470957328743171 0.37735478664371586 0 0.3280295184843518 1 I I 0 1 0.5 forward I I I I #
face $-1 $108 $109 $35 $-1 $110 forward single #
loop $-1 $111 $112 $44 #
cone-surface $-1 -64.774524881593194 0.34903302608178066 8.9023086980733162 0.6560590369687036 0 -0.75470957328743171 0.37735478664371586 0 0.3280295184843518 1 I I 0 1 0.5 forward I I I I #
face $-1 $113 $114 $27 $-1 $115 reversed single #
loop $-1 $-1 $116 $45 #
plane-surface $-1 0 0 -12.812962502308652 0 0 1 1 0 0 forward_v I I I I #
coedge $-1 $117 $118 $119 $120 forward $46 $-1 #
face $-1 $121 $122 $28 $-1 $123 reversed single #
loop $-1 $-1 $124 $48 #
plane-surface $-1 0 0 12.812962502308652 0 0 1 1 0 0 forward_v I I I I #
coedge $-1 $125 $126 $127 $128 forward $49 $-1 #
face $-1 $129 $130 $29 $-1 $131 reversed single #
loop $-1 $-1 $132 $51 #
plane-surface $-1 -6.17510794539443 3.0138888517266729 124.7891868124222 0.83867057594974714 0 0.54463902268945019 0.54463902268945019 0 -0.83867057594974714 forward_v I I I I #
coedge $-1 $133 $134 $135 $136 reversed $52 $-1 #
face $-1 $-1 $137 $30 $-1 $138 forward single #
loop $-1 $139 $140 $54 #
cone-surface $-1 66.267193455674857 0.054065715360266609 9.7614064918505203 -0.83867057594974714 0 -0.54463902268945019 0.13615975567236255 0 -0.20966764398743679 1 I I -0.70710678118654746 0.70710678118654746 0.25 forward I I I I #
loop $-1 $-1 $141 $39 #
coedge $-1 $88 $88 $142 $143 reversed $55 $-1 #
face $-1 $-1 $144 $31 $-1 $145 forward single #
loop $-1 $146 $147 $57 #
cone-surface $-1 66.267193455674857 5.9737119880930756 9.7614064918505203 -0.83867057594974714 0 -0.54463902268945019 0.13615975567236255 0 -0.20966764398743679 1 I I -0.70710678118654746 0.70710678118654746 0.25 forward I I I I #
loop $-1 $-1 $148 $40 #
coedge $-1 $93 $93 $149 $150 reversed $58 $-1 #
face $-1 $151 $152 $32 $-1 $153 reversed single #
loop $-1 $-1 $154 $60 #
plane-surface $-1 -69.167149876400046 -2.9203409593485752 5.7463644671254315 -0.6560590369687036 0 0.75470957328743171 0.75470957328743171 0 0.6560590369687036 forward_v I I I I #
coedge $-1 $155 $156 $157 $158 reversed $61 $-1 #
face $-1 $-1 $159 $33 $-1 $160 forward single #
loop $-1 $161 $162 $63 #
cone-surface $-1 -64.282480603866674 -6.189714944778931 8.3362765181077432 0.6560590369687036 0 -0.75470957328743171 0.18867739332185793 0 0.1640147592421759 1 I I -0.70710678118654746 0.70710678118654746 0.25 forward I I I I #
loop $-1 $-1 $163 $42 #
coedge $-1 $102 $102 $164 $165 reversed $64 $-1 #
face $-1 $-1 $166 $34 $-1 $167 forward single #
loop $-1 $168 $169 $66 #
cone-surface $-1 -64.282480603866674 -2.9203409593485752 8.3362765181077432 0.6560590369687036 0 -0.75470957328743171 0.18867739332185793 0 0.1640147592421759 1 I I -0.70710678118654746 0.70710678118654746 0.25 forward I I I I #
loop $-1 $-1 $170 $43 #
coedge $-1 $107 $107 $171 $172 reversed $67 $-1 #
face $-1 $-1 $173 $35 $-1 $174 forward single #
loop $-1 $175 $176 $69 #
cone-surface $-1 -64.282480603866674 0.34903302608178066 8.3362765181077432 0.6560590369687036 0 -0.75470957328743171 0.18867739332185793 0 0.1640147592421759 1 I I -0.70710678118654746 0.70710678118654746 0.25 forward I I I I #
loop $-1 $-1 $177 $44 #
coedge $-1 $112 $112 $178 $179 reversed $70 $-1 #
face $-1 $180 $181 $27 $-1 $182 reversed single #
loop $-1 $-1 $183 $72 #
plane-surface $-1 0 -28.852962477967136 0 0 1 0 0 0 1 forward_v I I I I #
coedge $-1 $184 $185 $186 $187 forward $73 $-1 #
coedge $-1 $188 $75 $189 $190 forward $46 $-1 #
coedge $-1 $75 $188 $191 $192 forward $46 $-1 #
coedge $-1 $193 $194 $75 $120 reversed $195 $-1 #
edge $-1 $196 -28.852962477967136 $197 28.852962477967136 $119 $198 forward 7 unknown #
face $-1 $199 $200 $28 $-1 $201 reversed single #
loop $-1 $-1 $202 $76 #
plane-surface $-1 -69.167149876400032 0 0 1 0 0 0 0 -1 forward_v I I I I #
coedge $-1 $203 $204 $126 $205 forward $77 $-1 #
coedge $-1 $206 $79 $207 $208 reversed $49 $-1 #
coedge $-1 $79 $206 $124 $205 reversed $49 $-1 #
coedge $-1 $209 $210 $79 $128 reversed $211 $-1 #
edge $-1 $212 -12.812962502308652 $213 12.812962502308652 $127 $214 forward 7 unknown #
face $-1 $215 $216 $29 $-1 $217 forward single #
loop $-1 $-1 $218 $80 #
plane-surface $-1 109.84179890189137 -3.8923651331282745 200.13144463421668 0 1 0 0.83867057594974714 0 0.54463902268945019 forward_v I I I I #
coedge $-1 $219 $220 $221 $222 reversed $81 $-1 #
coedge $-1 $134 $83 $223 $224 reversed $52 $-1 #
coedge $-1 $83 $133 $219 $225 reversed $52 $-1 #
coedge $-1 $221 $226 $83 $136 forward $216 $-1 #
edge $-1 $227 -14.246250425454349 $228 -11.62220058854237 $135 $229 forward 7 unknown #
loop $-1 $-1 $142 $84 #
plane-surface $-1 -6.17510794539443 3.0138888517266729 124.7891868124222 0.83867057594974714 0 0.54463902268945019 0.54463902268945019 0 -0.83867057594974714 forward_v I I I I #
loop $-1 $-1 $230 $54 #
coedge $-1 $140 $140 $141 $231 reversed $85 $-1 #
coedge $-1 $141 $141 $140 $231 forward $87 $-1 #
coedge $-1 $142 $142 $88 $143 forward $137 $-1 #
edge $-1 $232 0 $232 6.2831853071796004 $142 $233 forward 7 unknown #
loop $-1 $-1 $149 $89 #
plane-surface $-1 -6.17510794539443 3.0138888517266729 124.7891868124222 0.83867057594974714 0 0.54463902268945019 0.54463902268945019 0 -0.83867057594974714 forward_v I I I I #
loop $-1 $-1 $234 $57 #
coedge $-1 $147 $147 $148 $235 reversed $90 $-1 #
coedge $-1 $148 $148 $147 $235 forward $92 $-1 #
coedge $-1 $149 $149 $93 $150 forward $144 $-1 #
edge $-1 $236 0 $236 6.2831853071796004 $149 $237 forward 7 unknown #
face $-1 $238 $239 $32 $-1 $240 reversed single #
loop $-1 $-1 $241 $94 #
plane-surface $-1 -159.92261735196203 2.5286156830353512 110.14858480457684 0 -1 0 0.6560590369687036 0 -0.75470957328743171 forward_v I I I I #
coedge $-1 $242 $243 $244 $245 reversed $95 $-1 #
coedge $-1 $156 $97 $246 $247 reversed $61 $-1 #
coedge $-1 $97 $155 $242 $248 reversed $61 $-1 #
coedge $-1 $244 $249 $97 $158 forward $250 $-1 #
edge $-1 $251 10.794158799580984 $252 18.923349752225903 $157 $253 forward 7 unknown #
loop $-1 $-1 $164 $98 #
plane-surface $-1 -69.167149876400046 -2.9203409593485752 5.7463644671254315 -0.6560590369687036 0 0.75470957328743171 0.75470957328743171 0 0.6560590369687036 forward_v I I I I #
loop $-1 $-1 $254 $63 #
coedge $-1 $162 $162 $163 $255 reversed $99 $-1 #
coedge $-1 $163 $163 $162 $255 forward $101 $-1 #
coedge $-1 $164 $164 $102 $165 forward $159 $-1 #
edge $-1 $256 0 $256 6.2831853071796004 $164 $257 forward 7 unknown #
loop $-1 $-1 $171 $103 #
plane-surface $-1 -69.167149876400046 -2.9203409593485752 5.7463644671254315 -0.6560590369687036 0 0.75470957328743171 0.75470957328743171 0 0.6560590369687036 forward_v I I I I #
loop $-1 $-1 $258 $66 #
coedge $-1 $169 $169 $170 $259 reversed $104 $-1 #
coedge $-1 $170 $170 $169 $259 forward $106 $-1 #
coedge $-1 $171 $171 $107 $172 forward $166 $-1 #
edge $-1 $260 0 $260 6.2831853071796004 $171 $261 forward 7 unknown #
loop $-1 $-1 $178 $108 #
plane-surface $-1 -69.167149876400046 -2.9203409593485752 5.7463644671254315 -0.6560590369687036 0 0.75470957328743171 0.75470957328743171 0 0.6560590369687036 forward_v I I I I #
loop $-1 $-1 $262 $69 #
coedge $-1 $176 $176 $177 $263 reversed $109 $-1 #
coedge $-1 $177 $177 $176 $263 forward $111 $-1 #
coedge $-1 $178 $178 $112 $179 forward $173 $-1 #
edge $-1 $264 0 $264 6.2831853071796004 $178 $265 forward 7 unknown #
face $-1 $266 $267 $27 $-1 $268 reversed single #
loop $-1 $-1 $269 $113 #
plane-surface $-1 -69.167149876400032 0 0 1 0 0 0 0 -1 forward_v I I I I #
coedge $-1 $270 $191 $271 $272 forward $114 $-1 #
coedge $-1 $273 $116 $270 $274 forward $73 $-1 #
coedge $-1 $116 $273 $275 $276 forward $73 $-1 #
coedge $-1 $194 $193 $116 $187 reversed $195 $-1 #
edge $-1 $277 -28.852962477967136 $278 28.852962477967136 $186 $279 forward 7 unknown #
coedge $-1 $118 $117 $280 $281 forward $46 $-1 #
coedge $-1 $282 $283 $117 $190 reversed $267 $-1 #
edge $-1 $197 -69.167149876400032 $284 69.167149876400032 $189 $285 forward 7 unknown #
coedge $-1 $183 $286 $118 $192 reversed $114 $-1 #
edge $-1 $287 -69.167149876400032 $196 69.167149876400032 $191 $288 forward 7 unknown #
coedge $-1 $186 $119 $286 $289 forward $195 $-1 #
coedge $-1 $119 $186 $282 $290 reversed $195 $-1 #
loop $-1 $-1 $193 $266 #
vertex $-1 $120 $291 #
vertex $-1 $120 $292 #
straight-curve $-1 69.167149876400032 0 12.812962502308652 0 1 0 I I #
face $-1 $293 $211 $28 $-1 $294 reversed single #
loop $-1 $-1 $295 $121 #
plane-surface $-1 -67.287339254818917 -39.74890370432535 0 0 1 0 0 0 1 forward_v I I I I #
coedge $-1 $296 $297 $206 $298 forward $122 $-1 #
coedge $-1 $299 $124 $297 $300 forward $77 $-1 #
coedge $-1 $124 $299 $209 $301 forward $77 $-1 #
edge $-1 $212 65.407528633237803 $302 69.167149876400032 $124 $303 forward 7 unknown #
coedge $-1 $126 $125 $202 $298 reversed $49 $-1 #
coedge $-1 $304 $305 $125 $208 forward $306 $-1 #
edge $-1 $307 -69.167149876400032 $213 -65.407528633237803 $207 $308 forward 7 unknown #
coedge $-1 $309 $127 $204 $301 reversed $211 $-1 #
coedge $-1 $127 $309 $304 $310 reversed $211 $-1 #
loop $-1 $-1 $309 $199 #
vertex $-1 $205 $311 #
vertex $-1 $310 $312 #
straight-curve $-1 -65.407528633237803 -28.852962477967136 0 0 0 -1 I I #
face $-1 $-1 $313 $29 $-1 $314 reversed single #
loop $-1 $-1 $135 $129 #
plane-surface $-1 0 0 12.812962502308652 0 0 1 1 0 0 forward_v I I I I #
coedge $-1 $315 $316 $317 $318 reversed $130 $-1 #
coedge $-1 $319 $132 $134 $225 forward $81 $-1 #
coedge $-1 $132 $319 $315 $320 forward $81 $-1 #
coedge $-1 $317 $135 $132 $222 forward $216 $-1 #
edge $-1 $228 -8.4131984107182838 $321 5.3993095589916109 $221 $322 forward 7 unknown #
coedge $-1 $323 $324 $133 $224 forward $313 $-1 #
edge $-1 $325 -91.293442351971905 $227 -87.252759814799688 $223 $326 forward 7 unknown #
edge $-1 $228 133.51633826345557 $325 138.33429975280004 $134 $327 forward 7 unknown #
coedge $-1 $135 $317 $323 $328 forward $216 $-1 #
vertex $-1 $224 $329 #
vertex $-1 $136 $330 #
straight-curve $-1 54.920899450945683 9.9201428365816202 12.81296250230865 -1 0 0 I I #
coedge $-1 $230 $230 $-1 $331 reversed $139 $-1 #
edge $-1 $332 0 $332 6.2831853071796004 $140 $333 forward 7 unknown #
vertex $-1 $143 $334 #
ellipse-curve $-1 67.855124957944042 0.054065715360266609 10.792621233722544 0.83867057594974714 0 0.54463902268945019 0.2723195113447251 0 -0.41933528797487357 1 I I #
coedge $-1 $234 $234 $-1 $335 reversed $146 $-1 #
edge $-1 $336 0 $336 6.2831853071796004 $147 $337 forward 7 unknown #
vertex $-1 $150 $338 #
ellipse-curve $-1 67.855124957944042 5.9737119880930756 10.792621233722544 0.83867057594974714 0 0.54463902268945019 0.2723195113447251 0 -0.41933528797487357 1 I I #
face $-1 $-1 $250 $32 $-1 $339 forward single #
loop $-1 $-1 $340 $151 #
plane-surface $-1 -69.167149876400032 0 0 1 0 0 0 0 -1 forward_v I I I I #
coedge $-1 $341 $342 $343 $344 reversed $152 $-1 #
coedge $-1 $345 $154 $156 $248 forward $95 $-1 #
coedge $-1 $154 $345 $341 $346 forward $95 $-1 #
coedge $-1 $343 $157 $154 $245 forward $250 $-1 #
edge $-1 $252 -6.909127122058214 $347 3.9887861627096388 $244 $348 forward 7 unknown #
coedge $-1 $349 $350 $155 $247 forward $239 $-1 #
edge $-1 $351 -49.327927935162975 $251 -42.261329899979771 $246 $352 forward 7 unknown #
edge $-1 $252 -10.771283736649945 $351 -1.888283279974768e-014 $156 $353 forward 7 unknown #
coedge $-1 $157 $343 $349 $354 forward $250 $-1 #
loop $-1 $-1 $343 $238 #
vertex $-1 $247 $355 #
vertex $-1 $158 $356 #
straight-curve $-1 -79.961308675981016 -8.3692976017325016 12.81296250230865 1 0 0 I I #
coedge $-1 $254 $254 $-1 $357 reversed $161 $-1 #
edge $-1 $358 0 $358 6.2831853071796004 $162 $359 forward 7 unknown #
vertex $-1 $165 $360 #
ellipse-curve $-1 -65.102554400077565 -6.189714944778931 9.2796634847170552 -0.6560590369687036 0 0.75470957328743171 0.37735478664371586 0 0.3280295184843518 1 I I #
coedge $-1 $258 $258 $-1 $361 reversed $168 $-1 #
edge $-1 $362 0 $362 6.2831853071796004 $169 $363 forward 7 unknown #
vertex $-1 $172 $364 #
ellipse-curve $-1 -65.102554400077565 -2.9203409593485752 9.2796634847170552 -0.6560590369687036 0 0.75470957328743171 0.37735478664371586 0 0.3280295184843518 1 I I #
coedge $-1 $262 $262 $-1 $365 reversed $175 $-1 #
edge $-1 $366 0 $366 6.2831853071796004 $176 $367 forward 7 unknown #
vertex $-1 $179 $368 #
ellipse-curve $-1 -65.102554400077565 0.34903302608178066 9.2796634847170552 -0.6560590369687036 0 0.75470957328743171 0.37735478664371586 0 0.3280295184843518 1 I I #
face $-1 $-1 $195 $27 $-1 $369 reversed single #
loop $-1 $-1 $282 $180 #
plane-surface $-1 0 28.852962477967136 0 0 -1 0 0 0 -1 forward_v I I I I #
coedge $-1 $370 $280 $283 $371 forward $181 $-1 #
coedge $-1 $286 $183 $184 $274 reversed $114 $-1 #
coedge $-1 $280 $370 $183 $272 reversed $181 $-1 #
edge $-1 $287 -12.812962502308652 $372 12.812962502308652 $271 $373 forward 7 unknown #
coedge $-1 $185 $184 $370 $374 forward $73 $-1 #
edge $-1 $278 -69.167149876400032 $372 69.167149876400032 $270 $375 forward 7 unknown #
coedge $-1 $283 $282 $185 $276 reversed $267 $-1 #
edge $-1 $376 -69.167149876400032 $277 69.167149876400032 $275 $377 forward 7 unknown #
vertex $-1 $187 $378 #
vertex $-1 $289 $379 #
straight-curve $-1 69.167149876400032 0 -12.812962502308652 0 -1 0 I I #
coedge $-1 $269 $271 $188 $281 reversed $181 $-1 #
edge $-1 $284 -28.852962477967136 $287 28.852962477967136 $280 $380 forward 7 unknown #
coedge $-1 $275 $189 $194 $290 forward $267 $-1 #
coedge $-1 $189 $275 $269 $371 reversed $267 $-1 #
vertex $-1 $190 $381 #
straight-curve $-1 0 28.852962477967136 12.812962502308652 -1 0 0 I I #
coedge $-1 $191 $270 $193 $289 reversed $114 $-1 #
vertex $-1 $281 $382 #
straight-curve $-1 0 -28.852962477967136 12.812962502308652 1 0 0 I I #
edge $-1 $196 -12.812962502308652 $278 12.812962502308652 $193 $383 forward 7 unknown #
edge $-1 $197 -12.812962502308652 $277 12.812962502308652 $194 $384 forward 7 unknown #
point $-1 69.167149876400032 -28.852962477967136 12.812962502308652 #
point $-1 69.167149876400032 28.852962477967136 12.812962502308652 #
face $-1 $-1 $306 $28 $-1 $385 reversed single #
plane-surface $-1 -65.407528633237803 -34.300933091146241 0 -1 0 0 0 0 1 forward_v I I I I #
coedge $-1 $386 $387 $388 $389 forward $200 $-1 #
coedge $-1 $388 $202 $305 $390 reversed $122 $-1 #
coedge $-1 $202 $388 $203 $300 reversed $122 $-1 #
edge $-1 $302 -12.812962502308652 $307 12.812962502308652 $202 $391 forward 7 unknown #
coedge $-1 $204 $203 $387 $392 forward $77 $-1 #
edge $-1 $302 28.852962477967136 $393 39.74890370432535 $297 $394 forward 7 unknown #
edge $-1 $395 -5.447970613179109 $212 5.4479706131791055 $209 $396 forward 7 unknown #
vertex $-1 $300 $397 #
straight-curve $-1 0 -28.852962477967136 12.812962502308652 -1 0 0 I I #
coedge $-1 $398 $207 $210 $310 forward $306 $-1 #
coedge $-1 $207 $398 $296 $390 forward $306 $-1 #
loop $-1 $-1 $207 $293 #
vertex $-1 $298 $399 #
straight-curve $-1 0 -28.852962477967136 -12.812962502308652 1 0 0 I I #
coedge $-1 $210 $209 $400 $401 forward $211 $-1 #
edge $-1 $213 -5.4479706131791055 $402 5.447970613179109 $210 $403 forward 7 unknown #
point $-1 -65.407528633237803 -28.852962477967136 12.812962502308652 #
point $-1 -65.407528633237803 -28.852962477967136 -12.812962502308652 #
loop $-1 $-1 $223 $215 #
plane-surface $-1 69.167149876400032 0 0 -1 0 0 0 0 1 forward_v I I I I #
coedge $-1 $316 $218 $220 $320 reversed $130 $-1 #
coedge $-1 $218 $315 $404 $405 reversed $130 $-1 #
coedge $-1 $226 $221 $218 $318 forward $216 $-1 #
edge $-1 $321 11.62220058854237 $406 14.246250425454349 $317 $407 forward 7 unknown #
coedge $-1 $220 $219 $324 $408 reversed $81 $-1 #
edge $-1 $409 -138.33429975280004 $321 -133.51633826345557 $315 $410 forward 7 unknown #
vertex $-1 $222 $411 #
straight-curve $-1 66.543100039488067 1.5069444258633364 12.81296250230865 0 -1 0 I I #
coedge $-1 $404 $223 $226 $328 reversed $313 $-1 #
coedge $-1 $223 $404 $319 $408 forward $313 $-1 #
vertex $-1 $224 $412 #
straight-curve $-1 69.167149876400032 9.9201428365816202 100.06572231710834 0 0 1 I I #
straight-curve $-1 -6.17510794539443 9.9201428365816202 124.7891868124222 0.54463902268945019 0 -0.83867057594974714 I I #
edge $-1 $406 -3.8923651331282745 $227 9.9201428365816202 $323 $413 forward 7 unknown #
point $-1 69.167149876400032 9.9201428365816202 12.812962502308652 #
point $-1 66.543100039488053 9.9201428365816202 12.812962502308665 #
edge $-1 $414 1 $414 0 $230 $-1 forward 7 unknown #
vertex $-1 $231 $415 #
ellipse-curve $-1 66.476861099662287 0.054065715360266609 9.8975662475228834 0.83867057594974714 0 0.54463902268945019 0.2723195113447251 0 -0.41933528797487357 1 I I #
point $-1 68.127444469288761 0.054065715360266609 10.373285945747668 #
edge $-1 $416 1 $416 0 $234 $-1 forward 7 unknown #
vertex $-1 $235 $417 #
ellipse-curve $-1 66.476861099662287 5.9737119880930756 9.8975662475228834 0.83867057594974714 0 0.54463902268945019 0.2723195113447251 0 -0.41933528797487357 1 I I #
point $-1 68.127444469288761 5.9737119880930756 10.373285945747668 #
plane-surface $-1 0 0 12.812962502308652 0 0 1 1 0 0 forward_v I I I I #
coedge $-1 $350 $349 $342 $418 forward $239 $-1 #
coedge $-1 $342 $241 $243 $346 reversed $152 $-1 #
coedge $-1 $241 $341 $340 $418 reversed $152 $-1 #
coedge $-1 $249 $244 $241 $344 forward $250 $-1 #
edge $-1 $347 -18.923349752225903 $419 -10.794158799580984 $343 $420 forward 7 unknown #
coedge $-1 $243 $242 $350 $421 reversed $95 $-1 #
edge $-1 $422 1.888283279974768e-014 $347 10.771283736649945 $341 $423 forward 7 unknown #
vertex $-1 $245 $424 #
straight-curve $-1 -61.037958923755113 -1.4601704796742876 12.812962502308654 0 1 0 I I #
coedge $-1 $340 $246 $249 $354 reversed $239 $-1 #
coedge $-1 $246 $340 $345 $421 forward $239 $-1 #
vertex $-1 $247 $425 #
straight-curve $-1 -69.167149876400032 -8.3692976017325016 55.074292402288421 0 0 1 I I #
straight-curve $-1 -69.167149876400046 -8.3692976017325016 5.7463644671254315 -0.75470957328743171 0 -0.6560590369687036 I I #
edge $-1 $419 -2.5286156830353512 $251 8.3692976017325016 $349 $426 forward 7 unknown #
point $-1 -69.167149876400032 -8.3692976017325016 12.812962502308652 #
point $-1 -61.037958923755113 -8.3692976017325016 12.812962502308652 #
edge $-1 $427 1 $427 0 $254 $-1 forward 7 unknown #
vertex $-1 $255 $428 #
ellipse-curve $-1 -64.446495363108852 -6.189714944778931 8.5249539114296002 -0.6560590369687036 0 0.75470957328743171 0.37735478664371586 0 0.3280295184843518 1 I I #
point $-1 -64.725199613433844 -6.189714944778931 9.6076930032013852 #
edge $-1 $429 1 $429 0 $258 $-1 forward 7 unknown #
vertex $-1 $259 $430 #
ellipse-curve $-1 -64.446495363108852 -2.9203409593485752 8.5249539114296002 -0.6560590369687036 0 0.75470957328743171 0.37735478664371586 0 0.3280295184843518 1 I I #
point $-1 -64.725199613433844 -2.9203409593485752 9.6076930032013852 #
edge $-1 $431 1 $431 0 $262 $-1 forward 7 unknown #
vertex $-1 $263 $432 #
ellipse-curve $-1 -64.446495363108852 0.34903302608178066 8.5249539114296002 -0.6560590369687036 0 0.75470957328743171 0.37735478664371586 0 0.3280295184843518 1 I I #
point $-1 -64.725199613433844 0.34903302608178066 9.6076930032013852 #
plane-surface $-1 69.167149876400032 0 0 -1 0 0 0 0 1 forward_v I I I I #
coedge $-1 $271 $269 $273 $374 reversed $181 $-1 #
edge $-1 $284 -12.812962502308652 $376 12.812962502308652 $283 $433 forward 7 unknown #
vertex $-1 $374 $434 #
straight-curve $-1 -69.167149876400032 -28.852962477967136 0 0 0 -1 I I #
edge $-1 $372 -28.852962477967136 $376 28.852962477967136 $370 $435 forward 7 unknown #
straight-curve $-1 0 -28.852962477967136 -12.812962502308652 -1 0 0 I I #
vertex $-1 $276 $436 #
straight-curve $-1 0 28.852962477967136 -12.812962502308652 1 0 0 I I #
point $-1 69.167149876400032 28.852962477967136 -12.812962502308652 #
point $-1 69.167149876400032 -28.852962477967136 -12.812962502308652 #
straight-curve $-1 -69.167149876400032 0 12.812962502308652 0 -1 0 I I #
point $-1 -69.167149876400032 28.852962477967136 12.812962502308652 #
point $-1 -69.167149876400032 -28.852962477967136 12.812962502308652 #
straight-curve $-1 69.167149876400032 -28.852962477967136 0 0 0 -1 I I #
straight-curve $-1 69.167149876400032 28.852962477967136 0 0 0 -1 I I #
plane-surface $-1 0 0 -12.812962502308652 0 0 1 1 0 0 forward_v I I I I #
coedge $-1 $400 $295 $398 $437 reversed $200 $-1 #
coedge $-1 $295 $400 $299 $392 reversed $200 $-1 #
coedge $-1 $297 $296 $295 $389 reversed $122 $-1 #
edge $-1 $393 -12.812962502308652 $438 12.812962502308652 $388 $439 forward 7 unknown #
edge $-1 $438 -39.74890370432535 $307 -28.852962477967136 $296 $440 forward 7 unknown #
straight-curve $-1 -69.167149876400032 -28.852962477967136 0 0 0 -1 I I #
edge $-1 $393 -1.8798106215811146 $395 1.8798106215811146 $387 $441 forward 7 unknown #
vertex $-1 $300 $442 #
straight-curve $-1 -69.167149876400032 0 12.812962502308652 0 -1 0 I I #
vertex $-1 $301 $443 #
straight-curve $-1 -65.407528633237803 -34.300933091146241 12.812962502308652 0 1 0 I I #
point $-1 -69.167149876400032 -28.852962477967136 12.812962502308652 #
coedge $-1 $305 $304 $386 $437 forward $306 $-1 #
point $-1 -69.167149876400032 -28.852962477967136 -12.812962502308652 #
coedge $-1 $387 $386 $309 $401 reversed $200 $-1 #
edge $-1 $395 -12.812962502308652 $402 12.812962502308652 $309 $444 forward 7 unknown #
vertex $-1 $401 $445 #
straight-curve $-1 -65.407528633237803 -34.300933091146241 -12.812962502308652 0 -1 0 I I #
coedge $-1 $324 $323 $316 $405 forward $313 $-1 #
edge $-1 $406 87.252759814799688 $409 91.293442351971905 $404 $446 forward 7 unknown #
vertex $-1 $328 $447 #
straight-curve $-1 54.920899450945683 -3.8923651331282745 12.81296250230865 1 0 0 I I #
edge $-1 $409 -5.3993095589916109 $325 8.4131984107182838 $324 $448 forward 7 unknown #
vertex $-1 $408 $449 #
straight-curve $-1 -6.17510794539443 -3.8923651331282745 124.7891868124222 -0.54463902268945019 0 0.83867057594974714 I I #
point $-1 66.543100039488053 -3.8923651331282745 12.812962502308665 #
point $-1 69.167149876400032 9.9201428365816202 8.772279965136434 #
straight-curve $-1 69.167149876400032 0 12.812962502308652 0 1 0 I I #
vertex $-1 $331 $450 #
point $-1 66.74918061100702 0.054065715360266609 9.478230959548009 #
vertex $-1 $335 $451 #
point $-1 66.74918061100702 5.9737119880930756 9.478230959548009 #
edge $-1 $419 42.261329899979771 $422 49.327927935162975 $340 $452 forward 7 unknown #
vertex $-1 $354 $453 #
straight-curve $-1 -79.961308675981016 2.5286156830353512 12.81296250230865 -1 0 0 I I #
edge $-1 $422 -3.9887861627096388 $351 6.909127122058214 $350 $454 forward 7 unknown #
vertex $-1 $421 $455 #
straight-curve $-1 -69.167149876400046 2.5286156830353512 5.7463644671254315 0.75470957328743171 0 0.6560590369687036 I I #
point $-1 -61.037958923755113 2.5286156830353512 12.812962502308652 #
point $-1 -69.167149876400032 -8.3692976017325016 5.7463644671254439 #
straight-curve $-1 -69.167149876400032 0 12.812962502308652 0 -1 0 I I #
vertex $-1 $357 $456 #
point $-1 -64.069140576465131 -6.189714944778931 8.8529834299139534 #
vertex $-1 $361 $457 #
point $-1 -64.069140576465131 -2.9203409593485752 8.8529834299139534 #
vertex $-1 $365 $458 #
point $-1 -64.069140576465131 0.34903302608178066 8.8529834299139534 #
straight-curve $-1 -69.167149876400032 28.852962477967136 0 0 0 -1 I I #
point $-1 -69.167149876400032 -28.852962477967136 -12.812962502308652 #
straight-curve $-1 -69.167149876400032 0 -12.812962502308652 0 1 0 I I #
point $-1 -69.167149876400032 28.852962477967136 -12.812962502308652 #
edge $-1 $402 -1.8798106215811146 $438 1.8798106215811146 $386 $459 forward 7 unknown #
vertex $-1 $390 $460 #
straight-curve $-1 -69.167149876400032 -39.74890370432535 0 0 0 -1 I I #
straight-curve $-1 -69.167149876400032 0 -12.812962502308652 0 1 0 I I #
straight-curve $-1 -67.287339254818917 -39.74890370432535 12.812962502308652 1 0 0 I I #
point $-1 -69.167149876400032 -39.74890370432535 12.812962502308652 #
point $-1 -65.407528633237803 -39.74890370432535 12.812962502308652 #
straight-curve $-1 -65.407528633237803 -39.74890370432535 0 0 0 -1 I I #
point $-1 -65.407528633237803 -39.74890370432535 -12.812962502308652 #
straight-curve $-1 69.167149876400032 -3.8923651331282745 100.06572231710834 0 0 -1 I I #
point $-1 69.167149876400032 -3.8923651331282745 12.812962502308652 #
straight-curve $-1 69.167149876400032 1.5069444258633364 8.772279965136434 0 1 0 I I #
point $-1 69.167149876400032 -3.8923651331282745 8.772279965136434 #
point $-1 66.057525811687427 0.054065715360266609 9.6252467361781573 #
point $-1 66.057525811687427 5.9737119880930756 9.6252467361781573 #
straight-curve $-1 -69.167149876400032 2.5286156830353512 55.074292402288421 0 0 -1 I I #
point $-1 -69.167149876400032 2.5286156830353512 12.812962502308652 #
straight-curve $-1 -69.167149876400032 -1.4601704796742876 5.7463644671254421 0 -1 0 I I #
point $-1 -69.167149876400032 2.5286156830353512 5.7463644671254439 #
point $-1 -64.118465844624495 -6.189714944778931 8.1475991247858861 #
point $-1 -64.118465844624495 -2.9203409593485752 8.1475991247858861 #
point $-1 -64.118465844624495 0.34903302608178066 8.1475991247858861 #
straight-curve $-1 -67.287339254818917 -39.74890370432535 -12.812962502308652 -1 0 0 I I #
point $-1 -69.167149876400032 -39.74890370432535 -12.812962502308652 #
End-of-ACIS-data 