500 0 7 0           
7 Unknown 11 ACIS 5.0 NT 24 Fri Mar 26 17:33:51 1999 
-1 9.9999999999999995e-007 1e-010 
body $-1 $7 $-1 $8 #
body $-1 $9 $-1 $10 #
body $-1 $11 $-1 $12 #
body $-1 $13 $-1 $14 #
body $-1 $15 $-1 $16 #
body $-1 $17 $-1 $18 #
body $-1 $19 $-1 $20 #
lump $-1 $-1 $21 $0 #
transform $-1 1 0 0 0 1 0 0 0 1 62.274849696340837 40.176562170499793 9.8443428557545314 1 rotate no_reflect no_shear #
lump $-1 $-1 $22 $1 #
transform $-1 1 0 0 0 1 0 0 0 1 62.274849696340837 40.176562170499793 9.8443428557545314 1 rotate no_reflect no_shear #
lump $-1 $-1 $23 $2 #
transform $-1 1 0 0 0 1 0 0 0 1 62.274849696340837 40.176562170499793 9.8443428557545314 1 rotate no_reflect no_shear #
lump $-1 $-1 $24 $3 #
transform $-1 1 0 0 0 1 0 0 0 1 62.274849696340837 40.176562170499793 9.8443428557545314 1 rotate no_reflect no_shear #
lump $-1 $-1 $25 $4 #
transform $-1 1 0 0 0 1 0 0 0 1 62.274849696340837 40.176562170499793 9.8443428557545314 1 rotate no_reflect no_shear #
lump $-1 $-1 $26 $5 #
transform $-1 1 0 0 0 1 0 0 0 1 62.274849696340837 40.176562170499793 9.8443428557545314 1 rotate no_reflect no_shear #
lump $-1 $-1 $27 $6 #
transform $-1 1 0 0 0 1 0 0 0 1 62.274849696340837 40.176562170499793 9.8443428557545314 1 rotate no_reflect no_shear #
shell $-1 $-1 $-1 $28 $-1 $7 #
shell $-1 $-1 $-1 $29 $-1 $9 #
shell $-1 $-1 $-1 $30 $-1 $11 #
shell $-1 $-1 $-1 $31 $-1 $13 #
shell $-1 $-1 $-1 $32 $-1 $15 #
shell $-1 $-1 $-1 $33 $-1 $17 #
shell $-1 $-1 $-1 $34 $-1 $19 #
face $-1 $35 $36 $21 $-1 $37 forward single #
face $-1 $38 $39 $22 $-1 $40 forward single #
face $-1 $41 $42 $23 $-1 $43 forward single #
face $-1 $44 $45 $24 $-1 $46 reversed single #
face $-1 $47 $48 $25 $-1 $49 forward single #
face $-1 $50 $51 $26 $-1 $52 reversed single #
face $-1 $53 $54 $27 $-1 $55 forward single #
face $-1 $56 $57 $21 $-1 $58 reversed single #
loop $-1 $-1 $59 $28 #
plane-surface $-1 0 0 9.8443428557545314 0 0 1 1 0 0 forward_v I I I I #
face $-1 $60 $61 $22 $-1 $62 reversed single #
loop $-1 $-1 $63 $29 #
plane-surface $-1 0 -40.176562170499793 0 0 1 0 0 0 1 forward_v I I I I #
face $-1 $64 $65 $23 $-1 $66 reversed single #
loop $-1 $-1 $67 $30 #
plane-surface $-1 0 40.176562170499793 0 0 -1 0 0 0 -1 forward_v I I I I #
face $-1 $68 $69 $24 $-1 $70 reversed single #
loop $-1 $-1 $71 $31 #
plane-surface $-1 -169.03478030385722 -9.2589027092881473 66.966450927976112 0 1 0 -0.85716730853699208 0 0.51503806187062418 forward_v I I I I #
face $-1 $72 $73 $25 $-1 $74 forward single #
loop $-1 $75 $76 $32 #
cone-surface $-1 -57.593783469208866 -4.6294513546440754 4.7870721340943669 0.85716730853699208 0 -0.51503806187062418 0.77255709280593621 0 1.2857509628054882 1 I I 0 1 1.5 forward I I I I #
face $-1 $77 $78 $26 $-1 $79 reversed single #
loop $-1 $-1 $80 $33 #
plane-surface $-1 -62.274849696340837 -4.6294513546440754 2.8186151462004858 -0.85716730853699208 0 0.51503806187062418 0.51503806187062418 0 0.85716730853699208 forward_v I I I I #
face $-1 $81 $82 $27 $-1 $83 forward single #
loop $-1 $84 $85 $34 #
cone-surface $-1 -57.593783469208866 4.6294513546440612 4.7870721340943669 0.85716730853699208 0 -0.51503806187062418 0.77255709280593621 0 1.2857509628054882 1 I I 0 1 1.5 forward I I I I #
face $-1 $86 $87 $21 $-1 $88 reversed single #
loop $-1 $-1 $89 $35 #
plane-surface $-1 0 0 -9.8443428557545314 0 0 1 1 0 0 forward_v I I I I #
coedge $-1 $90 $91 $92 $93 forward $36 $-1 #
face $-1 $94 $95 $22 $-1 $96 reversed single #
loop $-1 $-1 $97 $38 #
plane-surface $-1 0 0 -9.8443428557545314 0 0 1 1 0 0 forward_v I I I I #
coedge $-1 $98 $99 $100 $101 forward $39 $-1 #
face $-1 $102 $103 $23 $-1 $104 reversed single #
loop $-1 $-1 $105 $41 #
plane-surface $-1 0 0 -9.8443428557545314 0 0 1 1 0 0 forward_v I I I I #
coedge $-1 $106 $107 $108 $109 forward $42 $-1 #
face $-1 $110 $111 $24 $-1 $112 reversed single #
loop $-1 $-1 $113 $44 #
plane-surface $-1 -62.274849696340837 -4.6294513546440754 2.8186151462004858 -0.85716730853699208 0 0.51503806187062418 0.51503806187062418 0 0.85716730853699208 forward_v I I I I #
coedge $-1 $114 $115 $116 $117 reversed $45 $-1 #
face $-1 $-1 $118 $25 $-1 $119 forward single #
loop $-1 $120 $121 $47 #
cone-surface $-1 -54.380583238283407 -4.6294513546440754 2.8563867208082527 0.85716730853699208 0 -0.51503806187062418 0.3862785464029681 0 0.64287548140274409 1 I I -0.70710678118654757 0.70710678118654757 0.75 forward I I I I #
loop $-1 $-1 $122 $32 #
coedge $-1 $76 $76 $123 $124 reversed $48 $-1 #
face $-1 $125 $126 $26 $-1 $127 reversed single #
loop $-1 $-1 $128 $50 #
plane-surface $-1 -169.03478030385722 9.2589027092881331 66.966450927976112 0 -1 0 0.85716730853699208 0 -0.51503806187062418 forward_v I I I I #
coedge $-1 $129 $130 $131 $132 reversed $51 $-1 #
face $-1 $-1 $133 $27 $-1 $134 forward single #
loop $-1 $135 $136 $53 #
cone-surface $-1 -54.380583238283407 4.6294513546440612 2.8563867208082527 0.85716730853699208 0 -0.51503806187062418 0.3862785464029681 0 0.64287548140274409 1 I I -0.70710678118654757 0.70710678118654757 0.75 forward I I I I #
loop $-1 $-1 $137 $34 #
coedge $-1 $85 $85 $138 $139 reversed $54 $-1 #
face $-1 $140 $141 $21 $-1 $142 reversed single #
loop $-1 $-1 $143 $56 #
plane-surface $-1 0 -40.176562170499793 0 0 1 0 0 0 1 forward_v I I I I #
coedge $-1 $144 $145 $146 $147 forward $57 $-1 #
coedge $-1 $148 $59 $149 $150 forward $36 $-1 #
coedge $-1 $59 $148 $151 $152 forward $36 $-1 #
coedge $-1 $153 $154 $59 $93 reversed $155 $-1 #
edge $-1 $156 -40.176562170499793 $157 40.176562170499793 $92 $158 forward 7 unknown #
face $-1 $159 $160 $22 $-1 $161 reversed single #
loop $-1 $-1 $162 $60 #
plane-surface $-1 -45.538745798348387 -50.034791116735391 0 0 1 0 0 0 1 forward_v I I I I #
coedge $-1 $163 $164 $99 $165 forward $61 $-1 #
coedge $-1 $166 $63 $167 $168 reversed $39 $-1 #
coedge $-1 $63 $166 $97 $165 reversed $39 $-1 #
coedge $-1 $169 $170 $63 $101 reversed $160 $-1 #
edge $-1 $171 -9.8443428557545314 $172 9.8443428557545314 $100 $173 forward 7 unknown #
face $-1 $174 $175 $23 $-1 $176 reversed single #
loop $-1 $-1 $177 $64 #
plane-surface $-1 -48.491327611864996 45.105676643617599 0 1 0 0 0 0 -1 forward_v I I I I #
coedge $-1 $178 $179 $107 $180 forward $65 $-1 #
coedge $-1 $181 $67 $182 $183 reversed $42 $-1 #
coedge $-1 $67 $181 $105 $180 reversed $42 $-1 #
coedge $-1 $184 $185 $67 $109 reversed $186 $-1 #
edge $-1 $187 -9.8443428557545314 $188 9.8443428557545314 $108 $189 forward 7 unknown #
face $-1 $190 $191 $24 $-1 $192 reversed single #
loop $-1 $-1 $193 $68 #
plane-surface $-1 -169.03478030385722 -3.5527136788005009e-015 66.966450927976112 0 -1 0 0.85716730853699208 0 -0.51503806187062418 forward_v I I I I #
coedge $-1 $194 $195 $196 $197 reversed $69 $-1 #
coedge $-1 $115 $71 $198 $199 reversed $45 $-1 #
coedge $-1 $71 $114 $194 $200 reversed $45 $-1 #
coedge $-1 $196 $201 $71 $117 forward $202 $-1 #
edge $-1 $203 22.242540455587772 $204 26.464023410806305 $116 $205 forward 7 unknown #
loop $-1 $-1 $123 $72 #
plane-surface $-1 -62.274849696340837 -4.6294513546440754 2.8186151462004858 -0.85716730853699208 0 0.51503806187062418 0.51503806187062418 0 0.85716730853699208 forward_v I I I I #
loop $-1 $-1 $206 $47 #
coedge $-1 $121 $121 $122 $207 reversed $73 $-1 #
coedge $-1 $122 $122 $121 $207 forward $75 $-1 #
coedge $-1 $123 $123 $76 $124 forward $118 $-1 #
edge $-1 $208 0 $208 6.2831853071796004 $123 $209 forward 7 unknown #
face $-1 $210 $211 $26 $-1 $212 forward single #
loop $-1 $-1 $213 $77 #
plane-surface $-1 -62.274849696340837 0 0 1 0 0 0 0 -1 forward_v I I I I #
coedge $-1 $214 $215 $216 $217 reversed $78 $-1 #
coedge $-1 $218 $80 $219 $220 reversed $51 $-1 #
coedge $-1 $80 $218 $221 $222 reversed $51 $-1 #
coedge $-1 $223 $224 $80 $132 forward $211 $-1 #
edge $-1 $225 0 $226 8.1964485107878371 $131 $227 forward 7 unknown #
loop $-1 $-1 $138 $81 #
plane-surface $-1 -62.274849696340837 -4.6294513546440754 2.8186151462004858 -0.85716730853699208 0 0.51503806187062418 0.51503806187062418 0 0.85716730853699208 forward_v I I I I #
loop $-1 $-1 $228 $53 #
coedge $-1 $136 $136 $137 $229 reversed $82 $-1 #
coedge $-1 $137 $137 $136 $229 forward $84 $-1 #
coedge $-1 $138 $138 $85 $139 forward $133 $-1 #
edge $-1 $230 0 $230 6.2831853071796004 $138 $231 forward 7 unknown #
face $-1 $232 $233 $21 $-1 $234 reversed single #
loop $-1 $-1 $235 $86 #
plane-surface $-1 -62.274849696340837 0 0 1 0 0 0 0 -1 forward_v I I I I #
coedge $-1 $236 $151 $237 $238 forward $87 $-1 #
coedge $-1 $239 $89 $236 $240 forward $57 $-1 #
coedge $-1 $89 $239 $241 $242 forward $57 $-1 #
coedge $-1 $154 $153 $89 $147 reversed $155 $-1 #
edge $-1 $243 -40.176562170499793 $244 40.176562170499793 $146 $245 forward 7 unknown #
coedge $-1 $91 $90 $246 $247 forward $36 $-1 #
coedge $-1 $248 $249 $90 $150 reversed $233 $-1 #
edge $-1 $157 -62.274849696340837 $250 62.274849696340837 $149 $251 forward 7 unknown #
coedge $-1 $143 $252 $91 $152 reversed $87 $-1 #
edge $-1 $253 -62.274849696340837 $156 62.274849696340837 $151 $254 forward 7 unknown #
coedge $-1 $146 $92 $252 $255 forward $155 $-1 #
coedge $-1 $92 $146 $248 $256 reversed $155 $-1 #
loop $-1 $-1 $153 $232 #
vertex $-1 $93 $257 #
vertex $-1 $93 $258 #
straight-curve $-1 62.274849696340837 0 9.8443428557545314 0 1 0 I I #
face $-1 $259 $260 $22 $-1 $261 reversed single #
loop $-1 $-1 $100 $94 #
plane-surface $-1 -48.491327611864996 -45.105676643617592 0 1 0 0 0 0 -1 forward_v I I I I #
coedge $-1 $262 $263 $264 $265 forward $95 $-1 #
coedge $-1 $266 $97 $267 $268 forward $61 $-1 #
coedge $-1 $97 $266 $169 $269 forward $61 $-1 #
edge $-1 $171 -48.491327611864996 $270 -42.586163984831778 $97 $271 forward 7 unknown #
coedge $-1 $99 $98 $272 $273 forward $39 $-1 #
coedge $-1 $274 $275 $98 $168 forward $276 $-1 #
edge $-1 $277 42.586163984831778 $172 48.491327611864996 $167 $278 forward 7 unknown #
coedge $-1 $264 $100 $164 $269 reversed $160 $-1 #
coedge $-1 $100 $264 $274 $279 reversed $160 $-1 #
vertex $-1 $165 $280 #
vertex $-1 $279 $281 #
straight-curve $-1 -48.491327611864996 -40.176562170499793 0 0 0 1 I I #
face $-1 $282 $186 $23 $-1 $283 reversed single #
loop $-1 $-1 $284 $102 #
plane-surface $-1 -45.538745798348387 50.034791116735398 0 0 -1 0 0 0 -1 forward_v I I I I #
coedge $-1 $285 $286 $287 $288 forward $103 $-1 #
coedge $-1 $289 $105 $285 $290 forward $65 $-1 #
coedge $-1 $105 $289 $184 $291 forward $65 $-1 #
edge $-1 $187 42.586163984831778 $292 48.491327611864996 $105 $293 forward 7 unknown #
coedge $-1 $107 $106 $294 $295 forward $42 $-1 #
coedge $-1 $296 $297 $106 $183 forward $298 $-1 #
edge $-1 $299 -48.491327611864996 $188 -42.586163984831778 $182 $300 forward 7 unknown #
coedge $-1 $301 $108 $179 $291 reversed $186 $-1 #
coedge $-1 $108 $301 $296 $302 reversed $186 $-1 #
loop $-1 $-1 $108 $174 #
vertex $-1 $180 $303 #
vertex $-1 $302 $304 #
straight-curve $-1 -42.586163984831778 40.176562170499793 0 0 0 1 I I #
face $-1 $-1 $202 $24 $-1 $305 forward single #
loop $-1 $-1 $306 $110 #
plane-surface $-1 -62.274849696340837 0 0 1 0 0 0 0 -1 forward_v I I I I #
coedge $-1 $307 $308 $309 $310 reversed $111 $-1 #
coedge $-1 $311 $113 $115 $200 forward $69 $-1 #
coedge $-1 $113 $311 $307 $312 forward $69 $-1 #
coedge $-1 $309 $116 $113 $197 forward $202 $-1 #
edge $-1 $204 -6.9441770319661096 $313 2.3147256773220342 $196 $314 forward 7 unknown #
coedge $-1 $315 $316 $114 $199 forward $191 $-1 #
edge $-1 $317 -30.66461031778757 $203 -23.638882608233523 $198 $318 forward 7 unknown #
edge $-1 $204 -8.1964485107878371 $317 0 $115 $319 forward 7 unknown #
coedge $-1 $116 $309 $315 $320 forward $202 $-1 #
loop $-1 $-1 $309 $190 #
vertex $-1 $199 $321 #
vertex $-1 $117 $322 #
straight-curve $-1 -84.517390151928609 -9.2589027092881473 9.8443428557545332 1 0 0 I I #
coedge $-1 $206 $206 $-1 $323 reversed $120 $-1 #
edge $-1 $324 0 $324 6.2831853071796004 $121 $325 forward 7 unknown #
vertex $-1 $124 $326 #
ellipse-curve $-1 -60.16410821873157 -4.6294513546440754 6.3314790009775095 -0.85716730853699208 0 0.51503806187062418 0.77255709280593621 0 1.2857509628054882 1 I I #
face $-1 $-1 $327 $26 $-1 $328 forward single #
loop $-1 $-1 $223 $125 #
plane-surface $-1 -169.03478030385722 -3.5527136788005009e-015 66.966450927976112 0 -1 0 0.85716730853699208 0 -0.51503806187062418 forward_v I I I I #
coedge $-1 $219 $329 $215 $330 forward $126 $-1 #
coedge $-1 $215 $128 $218 $331 reversed $78 $-1 #
coedge $-1 $128 $214 $213 $330 reversed $78 $-1 #
coedge $-1 $332 $221 $128 $217 forward $327 $-1 #
edge $-1 $333 -26.464023410806305 $334 -22.242540455587772 $216 $335 forward 7 unknown #
coedge $-1 $130 $129 $214 $331 forward $51 $-1 #
coedge $-1 $336 $213 $129 $220 forward $126 $-1 #
edge $-1 $337 -11.573628386610171 $225 -2.3147256773220342 $219 $338 forward 7 unknown #
coedge $-1 $216 $339 $130 $222 forward $327 $-1 #
edge $-1 $226 2.3147256773220342 $333 11.573628386610171 $221 $340 forward 7 unknown #
coedge $-1 $224 $131 $339 $341 reversed $211 $-1 #
coedge $-1 $131 $223 $336 $342 reversed $211 $-1 #
vertex $-1 $220 $343 #
vertex $-1 $222 $344 #
straight-curve $-1 -62.274849696340837 -3.5527136788005009e-015 2.8186151462004858 0.51503806187062418 0 0.85716730853699208 I I #
coedge $-1 $228 $228 $-1 $345 reversed $135 $-1 #
edge $-1 $346 0 $346 6.2831853071796004 $136 $347 forward 7 unknown #
vertex $-1 $139 $348 #
ellipse-curve $-1 -60.16410821873157 4.6294513546440612 6.3314790009775095 -0.85716730853699208 0 0.51503806187062418 0.77255709280593621 0 1.2857509628054882 1 I I #
face $-1 $-1 $155 $21 $-1 $349 reversed single #
loop $-1 $-1 $248 $140 #
plane-surface $-1 0 40.176562170499793 0 0 -1 0 0 0 -1 forward_v I I I I #
coedge $-1 $350 $246 $249 $351 forward $141 $-1 #
coedge $-1 $252 $143 $144 $240 reversed $87 $-1 #
coedge $-1 $246 $350 $143 $238 reversed $141 $-1 #
edge $-1 $253 -9.8443428557545314 $352 9.8443428557545314 $237 $353 forward 7 unknown #
coedge $-1 $145 $144 $350 $354 forward $57 $-1 #
edge $-1 $244 -62.274849696340837 $352 62.274849696340837 $236 $355 forward 7 unknown #
coedge $-1 $249 $248 $145 $242 reversed $233 $-1 #
edge $-1 $356 -62.274849696340837 $243 62.274849696340837 $241 $357 forward 7 unknown #
vertex $-1 $147 $358 #
vertex $-1 $255 $359 #
straight-curve $-1 62.274849696340837 0 -9.8443428557545314 0 -1 0 I I #
coedge $-1 $235 $237 $148 $247 reversed $141 $-1 #
edge $-1 $250 -40.176562170499793 $253 40.176562170499793 $246 $360 forward 7 unknown #
coedge $-1 $241 $149 $154 $256 forward $233 $-1 #
coedge $-1 $149 $241 $235 $351 reversed $233 $-1 #
vertex $-1 $150 $361 #
straight-curve $-1 0 40.176562170499793 9.8443428557545314 -1 0 0 I I #
coedge $-1 $151 $236 $153 $255 reversed $87 $-1 #
vertex $-1 $247 $362 #
straight-curve $-1 0 -40.176562170499793 9.8443428557545314 1 0 0 I I #
edge $-1 $156 -9.8443428557545314 $244 9.8443428557545314 $153 $363 forward 7 unknown #
edge $-1 $157 -9.8443428557545314 $243 9.8443428557545314 $154 $364 forward 7 unknown #
point $-1 62.274849696340837 -40.176562170499793 9.8443428557545314 #
point $-1 62.274849696340837 40.176562170499793 9.8443428557545314 #
face $-1 $-1 $276 $22 $-1 $365 forward single #
loop $-1 $-1 $366 $159 #
plane-surface $-1 -42.586163984831778 -45.105676643617592 0 -1 0 0 0 0 1 forward_v I I I I #
coedge $-1 $367 $162 $266 $368 reversed $95 $-1 #
coedge $-1 $162 $367 $369 $370 reversed $95 $-1 #
coedge $-1 $170 $169 $162 $265 reversed $160 $-1 #
edge $-1 $371 -9.8443428557545314 $372 9.8443428557545314 $264 $373 forward 7 unknown #
coedge $-1 $164 $163 $262 $368 forward $61 $-1 #
coedge $-1 $272 $366 $163 $268 reversed $260 $-1 #
edge $-1 $270 -4.9291144731177994 $374 4.9291144731177994 $267 $375 forward 7 unknown #
edge $-1 $372 -4.9291144731177994 $171 4.9291144731177994 $169 $376 forward 7 unknown #
vertex $-1 $268 $377 #
straight-curve $-1 0 -40.176562170499793 -9.8443428557545314 1 0 0 I I #
coedge $-1 $378 $267 $166 $273 reversed $260 $-1 #
edge $-1 $277 -9.8443428557545314 $270 9.8443428557545314 $272 $379 forward 7 unknown #
coedge $-1 $369 $167 $170 $279 forward $276 $-1 #
coedge $-1 $167 $369 $378 $380 forward $276 $-1 #
loop $-1 $-1 $167 $259 #
vertex $-1 $168 $381 #
straight-curve $-1 0 -40.176562170499793 9.8443428557545314 -1 0 0 I I #
edge $-1 $172 -4.9291144731177994 $371 4.9291144731177994 $170 $382 forward 7 unknown #
point $-1 -48.491327611864996 -40.176562170499793 -9.8443428557545314 #
point $-1 -48.491327611864996 -40.176562170499793 9.8443428557545314 #
face $-1 $-1 $298 $23 $-1 $383 forward single #
plane-surface $-1 -42.586163984831778 45.105676643617599 0 -1 0 0 0 0 1 forward_v I I I I #
coedge $-1 $384 $385 $301 $386 forward $175 $-1 #
coedge $-1 $294 $177 $178 $290 reversed $103 $-1 #
coedge $-1 $177 $294 $297 $387 reversed $103 $-1 #
coedge $-1 $385 $384 $177 $288 reversed $175 $-1 #
edge $-1 $388 -9.8443428557545314 $389 9.8443428557545314 $287 $390 forward 7 unknown #
coedge $-1 $179 $178 $384 $391 forward $65 $-1 #
edge $-1 $292 -4.9291144731177994 $389 4.9291144731177994 $285 $392 forward 7 unknown #
edge $-1 $393 -4.9291144731177994 $187 4.9291144731177994 $184 $394 forward 7 unknown #
vertex $-1 $290 $395 #
straight-curve $-1 0 40.176562170499793 -9.8443428557545314 -1 0 0 I I #
coedge $-1 $286 $285 $181 $295 reversed $103 $-1 #
edge $-1 $299 -9.8443428557545314 $292 9.8443428557545314 $294 $396 forward 7 unknown #
coedge $-1 $397 $182 $185 $302 forward $298 $-1 #
coedge $-1 $182 $397 $286 $387 forward $298 $-1 #
loop $-1 $-1 $182 $282 #
vertex $-1 $183 $398 #
straight-curve $-1 0 40.176562170499793 9.8443428557545314 1 0 0 I I #
coedge $-1 $185 $184 $284 $386 reversed $186 $-1 #
edge $-1 $188 -4.9291144731177994 $399 4.9291144731177994 $185 $400 forward 7 unknown #
point $-1 -42.586163984831778 40.1765621704998 -9.8443428557545314 #
point $-1 -42.586163984831778 40.1765621704998 9.8443428557545314 #
plane-surface $-1 0 0 9.8443428557545314 0 0 1 1 0 0 forward_v I I I I #
coedge $-1 $316 $315 $308 $401 forward $191 $-1 #
coedge $-1 $308 $193 $195 $312 reversed $111 $-1 #
coedge $-1 $193 $307 $306 $401 reversed $111 $-1 #
coedge $-1 $201 $196 $193 $310 forward $202 $-1 #
edge $-1 $313 -26.464023410806305 $402 -22.242540455587772 $309 $403 forward 7 unknown #
coedge $-1 $195 $194 $316 $404 reversed $69 $-1 #
edge $-1 $405 0 $313 8.1964485107878371 $307 $406 forward 7 unknown #
vertex $-1 $197 $407 #
straight-curve $-1 -58.053366741122304 -2.3147256773220377 9.8443428557545314 0 1 0 I I #
coedge $-1 $306 $198 $201 $320 reversed $191 $-1 #
coedge $-1 $198 $306 $311 $404 forward $191 $-1 #
vertex $-1 $199 $408 #
straight-curve $-1 -62.274849696340837 -9.2589027092881473 33.483225463988056 0 0 1 I I #
straight-curve $-1 -62.274849696340837 -9.2589027092881473 2.8186151462004858 -0.51503806187062418 0 -0.85716730853699208 I I #
edge $-1 $402 3.5527136788005009e-015 $203 9.2589027092881473 $315 $409 forward 7 unknown #
point $-1 -62.274849696340837 -9.2589027092881473 9.8443428557545314 #
point $-1 -58.053366741122304 -9.2589027092881473 9.8443428557545296 #
edge $-1 $410 1 $410 0 $206 $-1 forward 7 unknown #
vertex $-1 $207 $411 #
ellipse-curve $-1 -55.023458719686154 -4.6294513546440754 3.2426652672112208 -0.85716730853699208 0 0.51503806187062418 0.77255709280593621 0 1.2857509628054882 1 I I #
point $-1 -59.391551125925638 -4.6294513546440754 7.617229963783001 #
loop $-1 $-1 $216 $210 #
plane-surface $-1 0 0 9.8443428557545314 0 0 1 1 0 0 forward_v I I I I #
coedge $-1 $213 $336 $332 $412 reversed $126 $-1 #
edge $-1 $334 23.638882608233523 $337 30.66461031778757 $213 $413 forward 7 unknown #
edge $-1 $337 0 $333 8.1964485107878371 $214 $414 forward 7 unknown #
coedge $-1 $339 $216 $329 $412 forward $327 $-1 #
vertex $-1 $217 $415 #
vertex $-1 $412 $416 #
straight-curve $-1 -84.517390151928609 9.2589027092881331 9.8443428557545332 -1 0 0 I I #
coedge $-1 $329 $219 $224 $342 forward $126 $-1 #
vertex $-1 $330 $417 #
straight-curve $-1 -62.274849696340837 -2.3147256773220377 2.818615146200488 0 -1 0 I I #
coedge $-1 $221 $332 $223 $341 forward $327 $-1 #
straight-curve $-1 -58.053366741122304 -2.3147256773220377 9.8443428557545314 0 1 0 I I #
edge $-1 $418 22.242540455587772 $226 26.464023410806305 $339 $419 forward 7 unknown #
edge $-1 $225 -30.66461031778757 $418 -23.638882608233523 $336 $420 forward 7 unknown #
point $-1 -62.274849696340837 -3.5527136788005009e-015 2.8186151462004858 #
point $-1 -58.053366741122304 -3.5527136788005009e-015 9.8443428557545296 #
edge $-1 $421 1 $421 0 $228 $-1 forward 7 unknown #
vertex $-1 $229 $422 #
ellipse-curve $-1 -55.023458719686154 4.6294513546440612 3.2426652672112208 -0.85716730853699208 0 0.51503806187062418 0.77255709280593621 0 1.2857509628054882 1 I I #
point $-1 -59.391551125925638 4.6294513546440612 7.617229963783001 #
plane-surface $-1 62.274849696340837 0 0 -1 0 0 0 0 1 forward_v I I I I #
coedge $-1 $237 $235 $239 $354 reversed $141 $-1 #
edge $-1 $250 -9.8443428557545314 $356 9.8443428557545314 $249 $423 forward 7 unknown #
vertex $-1 $354 $424 #
straight-curve $-1 -62.274849696340837 -40.176562170499793 0 0 0 -1 I I #
edge $-1 $352 -40.176562170499793 $356 40.176562170499793 $350 $425 forward 7 unknown #
straight-curve $-1 0 -40.176562170499793 -9.8443428557545314 -1 0 0 I I #
vertex $-1 $242 $426 #
straight-curve $-1 0 40.176562170499793 -9.8443428557545314 1 0 0 I I #
point $-1 62.274849696340837 40.176562170499793 -9.8443428557545314 #
point $-1 62.274849696340837 -40.176562170499793 -9.8443428557545314 #
straight-curve $-1 -62.274849696340837 0 9.8443428557545314 0 -1 0 I I #
point $-1 -62.274849696340837 40.176562170499793 9.8443428557545314 #
point $-1 -62.274849696340837 -40.176562170499793 9.8443428557545314 #
straight-curve $-1 62.274849696340837 -40.176562170499793 0 0 0 -1 I I #
straight-curve $-1 62.274849696340837 40.176562170499793 0 0 0 -1 I I #
plane-surface $-1 0 0 9.8443428557545314 0 0 1 1 0 0 forward_v I I I I #
coedge $-1 $267 $378 $367 $427 forward $260 $-1 #
coedge $-1 $263 $262 $366 $427 reversed $95 $-1 #
edge $-1 $374 -2.9525818135166091 $372 2.9525818135166091 $262 $428 forward 7 unknown #
coedge $-1 $275 $274 $263 $370 forward $276 $-1 #
edge $-1 $371 -2.9525818135166091 $429 2.9525818135166091 $263 $430 forward 7 unknown #
vertex $-1 $279 $431 #
vertex $-1 $269 $432 #
straight-curve $-1 -48.491327611864996 -50.034791116735391 0 0 0 -1 I I #
vertex $-1 $427 $433 #
straight-curve $-1 -42.586163984831778 -45.105676643617592 -9.8443428557545314 0 -1 0 I I #
straight-curve $-1 -48.491327611864996 -45.105676643617592 -9.8443428557545314 0 1 0 I I #
point $-1 -42.586163984831778 -40.176562170499793 -9.8443428557545314 #
coedge $-1 $366 $272 $275 $380 reversed $260 $-1 #
straight-curve $-1 -42.586163984831778 -40.176562170499793 0 0 0 -1 I I #
edge $-1 $429 -4.9291144731177994 $277 4.9291144731177994 $378 $434 forward 7 unknown #
point $-1 -42.586163984831778 -40.176562170499793 9.8443428557545314 #
straight-curve $-1 -48.491327611864996 -45.105676643617592 9.8443428557545314 0 -1 0 I I #
plane-surface $-1 0 0 9.8443428557545314 0 0 1 1 0 0 forward_v I I I I #
coedge $-1 $287 $284 $289 $391 reversed $175 $-1 #
coedge $-1 $284 $287 $397 $435 reversed $175 $-1 #
edge $-1 $399 -9.8443428557545314 $393 9.8443428557545314 $301 $436 forward 7 unknown #
edge $-1 $388 -4.9291144731177994 $299 4.9291144731177994 $286 $437 forward 7 unknown #
vertex $-1 $435 $438 #
vertex $-1 $391 $439 #
straight-curve $-1 -48.491327611864996 50.034791116735398 0 0 0 -1 I I #
edge $-1 $389 -2.9525818135166091 $393 2.9525818135166091 $384 $440 forward 7 unknown #
straight-curve $-1 -48.491327611864996 45.105676643617599 -9.8443428557545314 0 1 0 I I #
vertex $-1 $291 $441 #
straight-curve $-1 -42.586163984831778 45.105676643617599 -9.8443428557545314 0 -1 0 I I #
point $-1 -48.491327611864996 40.1765621704998 -9.8443428557545314 #
straight-curve $-1 -48.491327611864996 40.176562170499793 0 0 0 -1 I I #
coedge $-1 $297 $296 $385 $435 forward $298 $-1 #
point $-1 -48.491327611864996 40.1765621704998 9.8443428557545314 #
vertex $-1 $302 $442 #
straight-curve $-1 -42.586163984831778 45.105676643617599 9.8443428557545314 0 1 0 I I #
edge $-1 $402 23.638882608233523 $405 30.66461031778757 $306 $443 forward 7 unknown #
vertex $-1 $320 $444 #
straight-curve $-1 -84.517390151928609 -3.5527136788005009e-015 9.8443428557545332 -1 0 0 I I #
edge $-1 $405 -2.3147256773220342 $317 6.9441770319661096 $316 $445 forward 7 unknown #
vertex $-1 $404 $446 #
straight-curve $-1 -62.274849696340837 -3.5527136788005009e-015 2.8186151462004858 0.51503806187062418 0 0.85716730853699208 I I #
point $-1 -58.053366741122304 -3.5527136788005009e-015 9.8443428557545296 #
point $-1 -62.274849696340837 -9.2589027092881473 2.8186151462004858 #
straight-curve $-1 -62.274849696340837 0 9.8443428557545314 0 -1 0 I I #
vertex $-1 $323 $447 #
point $-1 -54.250901626880214 -4.6294513546440754 4.5284162300167088 #
edge $-1 $334 -9.2589027092881331 $418 3.5527136788005009e-015 $329 $448 forward 7 unknown #
straight-curve $-1 -62.274849696340837 9.2589027092881331 33.483225463988056 0 0 -1 I I #
straight-curve $-1 -62.274849696340837 9.2589027092881331 2.8186151462004858 0.51503806187062418 0 0.85716730853699208 I I #
point $-1 -58.053366741122304 9.2589027092881331 9.8443428557545296 #
point $-1 -62.274849696340837 9.2589027092881331 9.8443428557545314 #
point $-1 -62.274849696340837 9.2589027092881331 2.8186151462004858 #
vertex $-1 $342 $449 #
straight-curve $-1 -84.517390151928609 -3.5527136788005009e-015 9.8443428557545332 1 0 0 I I #
straight-curve $-1 -62.274849696340837 -3.5527136788005009e-015 33.483225463988056 0 0 1 I I #
vertex $-1 $345 $450 #
point $-1 -54.250901626880214 4.6294513546440612 4.5284162300167088 #
straight-curve $-1 -62.274849696340837 40.176562170499793 0 0 0 -1 I I #
point $-1 -62.274849696340837 -40.176562170499793 -9.8443428557545314 #
straight-curve $-1 -62.274849696340837 0 -9.8443428557545314 0 1 0 I I #
point $-1 -62.274849696340837 40.176562170499793 -9.8443428557545314 #
edge $-1 $429 -9.8443428557545314 $374 9.8443428557545314 $366 $451 forward 7 unknown #
straight-curve $-1 -45.538745798348387 -50.034791116735391 -9.8443428557545314 -1 0 0 I I #
vertex $-1 $380 $452 #
straight-curve $-1 -45.538745798348387 -50.034791116735391 9.8443428557545314 1 0 0 I I #
point $-1 -48.491327611864996 -50.034791116735391 9.8443428557545314 #
point $-1 -48.491327611864996 -50.034791116735391 -9.8443428557545314 #
point $-1 -42.586163984831778 -50.034791116735391 -9.8443428557545314 #
straight-curve $-1 -42.586163984831778 -45.105676643617592 9.8443428557545314 0 1 0 I I #
edge $-1 $399 -2.9525818135166091 $388 2.9525818135166091 $385 $453 forward 7 unknown #
straight-curve $-1 -42.586163984831778 50.034791116735398 0 0 0 -1 I I #
straight-curve $-1 -48.491327611864996 45.105676643617599 9.8443428557545314 0 -1 0 I I #
point $-1 -48.491327611864996 50.034791116735398 9.8443428557545314 #
point $-1 -48.491327611864996 50.034791116735398 -9.8443428557545314 #
straight-curve $-1 -45.538745798348387 50.034791116735398 -9.8443428557545314 1 0 0 I I #
point $-1 -42.586163984831778 50.034791116735398 -9.8443428557545314 #
point $-1 -42.586163984831778 50.034791116735398 9.8443428557545314 #
straight-curve $-1 -62.274849696340837 -3.5527136788005009e-015 33.483225463988056 0 0 -1 I I #
point $-1 -62.274849696340837 -3.5527136788005009e-015 9.8443428557545314 #
straight-curve $-1 -62.274849696340837 -2.3147256773220377 2.818615146200488 0 -1 0 I I #
point $-1 -62.274849696340837 -3.5527136788005009e-015 2.8186151462004858 #
point $-1 -53.73770775688066 -4.6294513546440754 2.4701081744052846 #
straight-curve $-1 -62.274849696340837 0 9.8443428557545314 0 -1 0 I I #
point $-1 -62.274849696340837 -3.5527136788005009e-015 9.8443428557545314 #
point $-1 -53.73770775688066 4.6294513546440612 2.4701081744052846 #
straight-curve $-1 -42.586163984831778 -50.034791116735391 0 0 0 -1 I I #
point $-1 -42.586163984831778 -50.034791116735391 9.8443428557545314 #
straight-curve $-1 -45.538745798348387 50.034791116735398 9.8443428557545314 -1 0 0 I I #
End-of-ACIS-data 