500 0 11 0           
7 Unknown 11 ACIS 5.0 NT 24 Fri Mar 26 18:35:26 1999 
-1 9.9999999999999995e-007 1e-010 
body $-1 $11 $-1 $12 #
body $-1 $13 $-1 $14 #
body $-1 $15 $-1 $16 #
body $-1 $17 $-1 $18 #
body $-1 $19 $-1 $20 #
body $-1 $21 $-1 $22 #
body $-1 $23 $-1 $24 #
body $-1 $25 $-1 $26 #
body $-1 $27 $-1 $28 #
body $-1 $29 $-1 $30 #
body $-1 $31 $-1 $32 #
lump $-1 $-1 $33 $0 #
transform $-1 1 0 0 0 1 0 0 0 1 78.425244911038547 49.682645157119609 15.787093764333916 1 rotate no_reflect no_shear #
lump $-1 $-1 $34 $1 #
transform $-1 1 0 0 0 1 0 0 0 1 78.425244911038547 49.682645157119609 15.787093764333916 1 rotate no_reflect no_shear #
lump $-1 $-1 $35 $2 #
transform $-1 1 0 0 0 1 0 0 0 1 78.425244911038547 49.682645157119609 15.787093764333916 1 rotate no_reflect no_shear #
lump $-1 $-1 $36 $3 #
transform $-1 1 0 0 0 1 0 0 0 1 78.425244911038547 49.682645157119609 15.787093764333916 1 rotate no_reflect no_shear #
lump $-1 $-1 $37 $4 #
transform $-1 1 0 0 0 1 0 0 0 1 78.425244911038547 49.682645157119609 15.787093764333916 1 rotate no_reflect no_shear #
lump $-1 $-1 $38 $5 #
transform $-1 1 0 0 0 1 0 0 0 1 78.425244911038547 49.682645157119609 15.787093764333916 1 rotate no_reflect no_shear #
lump $-1 $-1 $39 $6 #
transform $-1 1 0 0 0 1 0 0 0 1 78.425244911038547 49.682645157119609 15.787093764333916 1 rotate no_reflect no_shear #
lump $-1 $-1 $40 $7 #
transform $-1 1 0 0 0 1 0 0 0 1 78.425244911038547 49.682645157119609 15.787093764333916 1 rotate no_reflect no_shear #
lump $-1 $-1 $41 $8 #
transform $-1 1 0 0 0 1 0 0 0 1 78.425244911038547 49.682645157119609 15.787093764333916 1 rotate no_reflect no_shear #
lump $-1 $-1 $42 $9 #
transform $-1 1 0 0 0 1 0 0 0 1 78.425244911038547 49.682645157119609 15.787093764333916 1 rotate no_reflect no_shear #
lump $-1 $-1 $43 $10 #
transform $-1 1 0 0 0 1 0 0 0 1 78.425244911038547 49.682645157119609 15.787093764333916 1 rotate no_reflect no_shear #
shell $-1 $-1 $-1 $44 $-1 $11 #
shell $-1 $-1 $-1 $45 $-1 $13 #
shell $-1 $-1 $-1 $46 $-1 $15 #
shell $-1 $-1 $-1 $47 $-1 $17 #
shell $-1 $-1 $-1 $48 $-1 $19 #
shell $-1 $-1 $-1 $49 $-1 $21 #
shell $-1 $-1 $-1 $50 $-1 $23 #
shell $-1 $-1 $-1 $51 $-1 $25 #
shell $-1 $-1 $-1 $52 $-1 $27 #
shell $-1 $-1 $-1 $53 $-1 $29 #
shell $-1 $-1 $-1 $54 $-1 $31 #
face $-1 $55 $56 $33 $-1 $57 forward single #
face $-1 $58 $59 $34 $-1 $60 forward single #
face $-1 $61 $62 $35 $-1 $63 forward single #
face $-1 $64 $65 $36 $-1 $66 reversed single #
face $-1 $67 $68 $37 $-1 $69 forward single #
face $-1 $70 $71 $38 $-1 $72 reversed single #
face $-1 $73 $74 $39 $-1 $75 forward single #
face $-1 $76 $77 $40 $-1 $78 reversed single #
face $-1 $79 $80 $41 $-1 $81 forward single #
face $-1 $82 $83 $42 $-1 $84 reversed single #
face $-1 $85 $86 $43 $-1 $87 forward single #
face $-1 $88 $89 $33 $-1 $90 reversed single #
loop $-1 $-1 $91 $44 #
plane-surface $-1 0 0 15.787093764333916 0 0 1 1 0 0 forward_v I I I I #
face $-1 $92 $93 $34 $-1 $94 reversed single #
loop $-1 $-1 $95 $45 #
plane-surface $-1 -78.425244911038547 0 0 1 0 0 0 0 -1 forward_v I I I I #
face $-1 $96 $97 $35 $-1 $98 forward single #
loop $-1 $-1 $99 $46 #
plane-surface $-1 78.425244911038547 0 0 -1 0 0 0 0 1 forward_v I I I I #
face $-1 $100 $101 $36 $-1 $102 reversed single #
loop $-1 $-1 $103 $47 #
plane-surface $-1 -1.4210854715202004e-014 -130.46662055839937 138.89510052409091 -1 0 0 0 -0.51503808176128008 0.85716729658548041 forward_v I I I I #
face $-1 $104 $105 $37 $-1 $106 forward single #
loop $-1 $107 $108 $48 #
cone-surface $-1 -15.686709468466503 -38.12100150650852 6.5794084984733416 0 0.51503808176128008 -0.85716729658548041 2.5 0 0 1 I I 0 1 2.5 forward I I I I #
face $-1 $109 $110 $38 $-1 $111 reversed single #
loop $-1 $-1 $112 $49 #
plane-surface $-1 66.882632742575495 -130.46662055839937 138.89510052409091 -1 0 0 0 -0.51503808176128008 0.85716729658548041 forward_v I I I I #
face $-1 $113 $114 $39 $-1 $115 forward single #
loop $-1 $116 $117 $50 #
cone-surface $-1 51.195923274109006 -38.12100150650852 6.5794084984733416 0 0.51503808176128008 -0.85716729658548041 2.5 0 0 1 I I 0 1 2.5 forward I I I I #
face $-1 $118 $119 $40 $-1 $120 reversed single #
loop $-1 $-1 $121 $51 #
plane-surface $-1 -31.373418936932993 45.293943285311514 190.07200904118938 1 0 0 0 -0.51503808176128008 -0.85716729658548041 forward_v I I I I #
face $-1 $122 $123 $41 $-1 $124 forward single #
loop $-1 $125 $126 $52 #
cone-surface $-1 -15.686709468466503 38.121001506508506 6.5794084984733416 0 -0.51503808176128008 -0.85716729658548041 2.5 0 0 1 I I 0 1 2.5 forward I I I I #
face $-1 $127 $128 $42 $-1 $129 reversed single #
loop $-1 $-1 $130 $53 #
plane-surface $-1 35.509213805642517 45.293943285311514 190.07200904118938 1 0 0 0 -0.51503808176128008 -0.85716729658548041 forward_v I I I I #
face $-1 $131 $132 $43 $-1 $133 forward single #
loop $-1 $134 $135 $54 #
cone-surface $-1 51.195923274109006 38.121001506508506 6.5794084984733416 0 -0.51503808176128008 -0.85716729658548041 2.5 0 0 1 I I 0 1 2.5 forward I I I I #
face $-1 $136 $137 $33 $-1 $138 reversed single #
loop $-1 $-1 $139 $55 #
plane-surface $-1 0 0 -15.787093764333916 0 0 1 1 0 0 forward_v I I I I #
coedge $-1 $140 $141 $142 $143 forward $56 $-1 #
face $-1 $144 $145 $34 $-1 $146 reversed single #
loop $-1 $-1 $147 $58 #
plane-surface $-1 0 49.682645157119609 0 0 -1 0 0 0 -1 forward_v I I I I #
coedge $-1 $148 $149 $150 $151 forward $59 $-1 #
face $-1 $152 $153 $35 $-1 $154 reversed single #
loop $-1 $-1 $155 $61 #
plane-surface $-1 0 0 15.787093764333916 0 0 1 1 0 0 forward_v I I I I #
coedge $-1 $156 $157 $158 $159 forward $62 $-1 #
face $-1 $160 $161 $36 $-1 $162 reversed single #
loop $-1 $-1 $163 $64 #
plane-surface $-1 -15.686709468466503 -49.682645157119609 4.4479901951926877 0 -0.51503808176128008 0.85716729658548041 1 0 0 forward_v I I I I #
coedge $-1 $164 $165 $166 $167 reversed $65 $-1 #
face $-1 $-1 $168 $37 $-1 $169 forward single #
loop $-1 $170 $171 $67 #
cone-surface $-1 -15.686709468466503 -35.351278792047097 1.9698158964515446 0 0.51503808176128008 -0.85716729658548041 1.25 0 0 1 I I -0.70710678118654746 0.70710678118654746 1.25 forward I I I I #
loop $-1 $-1 $172 $48 #
coedge $-1 $108 $108 $173 $174 reversed $68 $-1 #
face $-1 $175 $176 $38 $-1 $177 reversed single #
loop $-1 $-1 $178 $70 #
plane-surface $-1 51.195923274109006 -49.682645157119609 4.4479901951926877 0 -0.51503808176128008 0.85716729658548041 1 0 0 forward_v I I I I #
coedge $-1 $179 $180 $181 $182 reversed $71 $-1 #
face $-1 $-1 $183 $39 $-1 $184 forward single #
loop $-1 $185 $186 $73 #
cone-surface $-1 51.195923274109006 -35.351278792047097 1.9698158964515446 0 0.51503808176128008 -0.85716729658548041 1.25 0 0 1 I I -0.70710678118654746 0.70710678118654746 1.25 forward I I I I #
loop $-1 $-1 $187 $50 #
coedge $-1 $117 $117 $188 $189 reversed $74 $-1 #
face $-1 $190 $191 $40 $-1 $192 reversed single #
loop $-1 $-1 $193 $76 #
plane-surface $-1 -15.686709468466503 -35.490032115968248 55.624898712291156 0 0.51503808176128008 0.85716729658548041 1 0 0 forward_v I I I I #
coedge $-1 $194 $195 $196 $197 reversed $77 $-1 #
face $-1 $-1 $198 $41 $-1 $199 forward single #
loop $-1 $200 $201 $79 #
cone-surface $-1 -15.686709468466503 35.351278792047083 1.9698158964515446 0 -0.51503808176128008 -0.85716729658548041 1.25 0 0 1 I I -0.70710678118654746 0.70710678118654746 1.25 forward I I I I #
loop $-1 $-1 $202 $52 #
coedge $-1 $126 $126 $203 $204 reversed $80 $-1 #
face $-1 $205 $206 $42 $-1 $207 reversed single #
loop $-1 $-1 $208 $82 #
plane-surface $-1 51.195923274109006 -35.490032115968248 55.624898712291156 0 0.51503808176128008 0.85716729658548041 1 0 0 forward_v I I I I #
coedge $-1 $209 $210 $211 $212 reversed $83 $-1 #
face $-1 $-1 $213 $43 $-1 $214 forward single #
loop $-1 $215 $216 $85 #
cone-surface $-1 51.195923274109006 35.351278792047083 1.9698158964515446 0 -0.51503808176128008 -0.85716729658548041 1.25 0 0 1 I I -0.70710678118654746 0.70710678118654746 1.25 forward I I I I #
loop $-1 $-1 $217 $54 #
coedge $-1 $135 $135 $218 $219 reversed $86 $-1 #
face $-1 $220 $221 $33 $-1 $222 reversed single #
loop $-1 $-1 $223 $88 #
plane-surface $-1 0 -49.682645157119609 0 0 1 0 0 0 1 forward_v I I I I #
coedge $-1 $224 $225 $226 $227 forward $89 $-1 #
coedge $-1 $228 $91 $229 $230 forward $56 $-1 #
coedge $-1 $91 $228 $231 $232 forward $56 $-1 #
coedge $-1 $233 $234 $91 $143 reversed $235 $-1 #
edge $-1 $236 -49.682645157119609 $237 49.682645157119609 $142 $238 forward 7 unknown #
face $-1 $239 $240 $34 $-1 $241 reversed single #
loop $-1 $-1 $150 $92 #
plane-surface $-1 -84.196550995270059 0 10.636956123278251 0 0 1 1 0 0 forward_v I I I I #
coedge $-1 $242 $243 $148 $244 forward $93 $-1 #
coedge $-1 $245 $95 $147 $244 reversed $59 $-1 #
coedge $-1 $95 $245 $246 $247 reversed $59 $-1 #
coedge $-1 $248 $249 $95 $151 reversed $145 $-1 #
edge $-1 $250 -49.682645157119609 $251 49.682645157119609 $150 $252 forward 7 unknown #
face $-1 $253 $254 $35 $-1 $255 reversed single #
loop $-1 $-1 $256 $96 #
plane-surface $-1 0 -49.682645157119609 0 0 1 0 0 0 1 forward_v I I I I #
coedge $-1 $257 $258 $259 $260 forward $97 $-1 #
coedge $-1 $259 $99 $256 $261 reversed $62 $-1 #
coedge $-1 $99 $259 $262 $263 reversed $62 $-1 #
coedge $-1 $264 $265 $99 $159 reversed $254 $-1 #
edge $-1 $266 -49.682645157119609 $267 49.682645157119609 $158 $268 forward 7 unknown #
face $-1 $269 $270 $36 $-1 $271 reversed single #
loop $-1 $-1 $272 $100 #
plane-surface $-1 -31.373418936932993 -130.46662055839937 138.89510052409091 1 0 0 0 0.51503808176128008 -0.85716729658548041 forward_v I I I I #
coedge $-1 $273 $274 $275 $276 reversed $101 $-1 #
coedge $-1 $165 $103 $277 $278 reversed $65 $-1 #
coedge $-1 $103 $164 $273 $279 reversed $65 $-1 #
coedge $-1 $275 $280 $103 $167 forward $281 $-1 #
edge $-1 $282 15.550665122080076 $283 34.422102198782582 $166 $284 forward 7 unknown #
loop $-1 $-1 $173 $104 #
plane-surface $-1 -15.686709468466503 -49.682645157119609 4.4479901951926877 0 -0.51503808176128008 0.85716729658548041 1 0 0 forward_v I I I I #
loop $-1 $-1 $285 $67 #
coedge $-1 $171 $171 $172 $286 reversed $105 $-1 #
coedge $-1 $172 $172 $171 $286 forward $107 $-1 #
coedge $-1 $173 $173 $108 $174 forward $168 $-1 #
edge $-1 $287 -8.5739312503790116e-016 $287 6.2831853071795996 $173 $288 forward 7 unknown #
face $-1 $289 $290 $38 $-1 $291 reversed single #
loop $-1 $-1 $292 $109 #
plane-surface $-1 35.509213805642517 -130.46662055839937 138.89510052409091 1 0 0 0 0.51503808176128008 -0.85716729658548041 forward_v I I I I #
coedge $-1 $293 $294 $295 $296 reversed $110 $-1 #
coedge $-1 $180 $112 $297 $298 reversed $71 $-1 #
coedge $-1 $112 $179 $293 $299 reversed $71 $-1 #
coedge $-1 $295 $300 $112 $182 forward $301 $-1 #
edge $-1 $302 15.550665122080076 $303 34.422102198782582 $181 $304 forward 7 unknown #
loop $-1 $-1 $188 $113 #
plane-surface $-1 51.195923274109006 -49.682645157119609 4.4479901951926877 0 -0.51503808176128008 0.85716729658548041 1 0 0 forward_v I I I I #
loop $-1 $-1 $305 $73 #
coedge $-1 $186 $186 $187 $306 reversed $114 $-1 #
coedge $-1 $187 $187 $186 $306 forward $116 $-1 #
coedge $-1 $188 $188 $117 $189 forward $183 $-1 #
edge $-1 $307 -8.5739312503790116e-016 $307 6.2831853071795996 $188 $308 forward 7 unknown #
face $-1 $309 $310 $40 $-1 $311 reversed single #
loop $-1 $-1 $312 $118 #
plane-surface $-1 -1.4210854715202004e-014 45.293943285311514 190.07200904118938 -1 0 0 0 0.51503808176128008 0.85716729658548041 forward_v I I I I #
coedge $-1 $313 $314 $315 $316 reversed $119 $-1 #
coedge $-1 $195 $121 $317 $318 reversed $77 $-1 #
coedge $-1 $121 $194 $313 $319 reversed $77 $-1 #
coedge $-1 $315 $320 $121 $197 forward $321 $-1 #
edge $-1 $322 -27.035673514463852 $323 -8.1642364377613319 $196 $324 forward 7 unknown #
loop $-1 $-1 $203 $122 #
plane-surface $-1 -15.686709468466503 -35.490032115968248 55.624898712291156 0 0.51503808176128008 0.85716729658548041 1 0 0 forward_v I I I I #
loop $-1 $-1 $325 $79 #
coedge $-1 $201 $201 $202 $326 reversed $123 $-1 #
coedge $-1 $202 $202 $201 $326 forward $125 $-1 #
coedge $-1 $203 $203 $126 $204 forward $198 $-1 #
edge $-1 $327 -4.8095315573596184e-016 $327 6.2831853071795996 $203 $328 forward 7 unknown #
face $-1 $329 $330 $42 $-1 $331 forward single #
loop $-1 $-1 $332 $127 #
plane-surface $-1 66.882632742575495 45.293943285311514 190.07200904118938 -1 0 0 0 0.51503808176128008 0.85716729658548041 forward_v I I I I #
coedge $-1 $333 $334 $335 $336 reversed $128 $-1 #
coedge $-1 $210 $130 $337 $338 reversed $83 $-1 #
coedge $-1 $130 $209 $333 $339 reversed $83 $-1 #
coedge $-1 $335 $340 $130 $212 forward $330 $-1 #
edge $-1 $341 -27.035673514463852 $342 -8.1642364377613319 $211 $343 forward 7 unknown #
loop $-1 $-1 $218 $131 #
plane-surface $-1 51.195923274109006 -35.490032115968248 55.624898712291156 0 0.51503808176128008 0.85716729658548041 1 0 0 forward_v I I I I #
loop $-1 $-1 $344 $85 #
coedge $-1 $216 $216 $217 $345 reversed $132 $-1 #
coedge $-1 $217 $217 $216 $345 forward $134 $-1 #
coedge $-1 $218 $218 $135 $219 forward $213 $-1 #
edge $-1 $346 -4.8095315573596184e-016 $346 6.2831853071795996 $218 $347 forward 7 unknown #
face $-1 $348 $349 $33 $-1 $350 reversed single #
loop $-1 $-1 $351 $136 #
plane-surface $-1 -78.425244911038547 0 0 1 0 0 0 0 -1 forward_v I I I I #
coedge $-1 $352 $231 $353 $354 forward $137 $-1 #
coedge $-1 $355 $139 $352 $356 forward $89 $-1 #
coedge $-1 $139 $355 $357 $358 forward $89 $-1 #
coedge $-1 $234 $233 $139 $227 reversed $235 $-1 #
edge $-1 $359 -49.682645157119609 $360 49.682645157119609 $226 $361 forward 7 unknown #
coedge $-1 $141 $140 $362 $363 forward $56 $-1 #
coedge $-1 $364 $365 $140 $230 reversed $349 $-1 #
edge $-1 $237 -78.425244911038547 $366 78.425244911038547 $229 $367 forward 7 unknown #
coedge $-1 $223 $368 $141 $232 reversed $137 $-1 #
edge $-1 $369 -78.425244911038547 $236 78.425244911038547 $231 $370 forward 7 unknown #
coedge $-1 $226 $142 $368 $371 forward $235 $-1 #
coedge $-1 $142 $226 $364 $372 reversed $235 $-1 #
loop $-1 $-1 $233 $348 #
vertex $-1 $143 $373 #
vertex $-1 $143 $374 #
straight-curve $-1 78.425244911038547 0 15.787093764333916 0 1 0 I I #
face $-1 $375 $376 $34 $-1 $377 forward single #
loop $-1 $-1 $378 $144 #
plane-surface $-1 -89.96785707950157 0 13.212024943806083 1 0 0 0 0 -1 forward_v I I I I #
coedge $-1 $379 $147 $249 $380 reversed $93 $-1 #
coedge $-1 $147 $379 $381 $382 reversed $93 $-1 #
edge $-1 $383 -15.787093764333916 $251 -10.636956123278251 $147 $384 forward 7 unknown #
coedge $-1 $149 $148 $385 $386 reversed $59 $-1 #
coedge $-1 $387 $388 $149 $247 forward $389 $-1 #
edge $-1 $250 10.636956123278251 $390 15.787093764333916 $246 $391 forward 7 unknown #
coedge $-1 $392 $150 $388 $393 forward $145 $-1 #
coedge $-1 $150 $392 $242 $380 forward $145 $-1 #
vertex $-1 $247 $394 #
vertex $-1 $244 $395 #
straight-curve $-1 -78.425244911038547 0 10.636956123278251 0 1 0 I I #
face $-1 $396 $397 $35 $-1 $398 reversed single #
loop $-1 $-1 $399 $152 #
plane-surface $-1 84.196550995270044 0 10.636956123278251 0 0 1 1 0 0 forward_v I I I I #
coedge $-1 $400 $401 $156 $261 forward $153 $-1 #
coedge $-1 $402 $155 $401 $403 forward $97 $-1 #
coedge $-1 $155 $402 $404 $405 forward $97 $-1 #
coedge $-1 $157 $156 $155 $260 reversed $62 $-1 #
edge $-1 $406 -49.682645157119609 $407 49.682645157119609 $155 $408 forward 7 unknown #
edge $-1 $407 -15.787093764333916 $267 -10.636956123278251 $256 $409 forward 7 unknown #
coedge $-1 $404 $410 $157 $263 forward $411 $-1 #
edge $-1 $266 10.636956123278251 $406 15.787093764333916 $262 $412 forward 7 unknown #
coedge $-1 $399 $158 $410 $413 forward $254 $-1 #
coedge $-1 $158 $399 $400 $414 forward $254 $-1 #
vertex $-1 $263 $415 #
vertex $-1 $261 $416 #
straight-curve $-1 78.425244911038547 0 10.636956123278251 0 -1 0 I I #
face $-1 $-1 $281 $36 $-1 $417 forward single #
loop $-1 $-1 $418 $160 #
plane-surface $-1 0 -49.682645157119609 0 0 1 0 0 0 1 forward_v I I I I #
coedge $-1 $419 $420 $421 $422 reversed $161 $-1 #
coedge $-1 $423 $163 $165 $279 forward $101 $-1 #
coedge $-1 $163 $423 $419 $424 forward $101 $-1 #
coedge $-1 $421 $166 $163 $276 forward $281 $-1 #
edge $-1 $283 -7.8433547342332375 $425 23.530064202699741 $275 $426 forward 7 unknown #
coedge $-1 $427 $428 $164 $278 forward $270 $-1 #
edge $-1 $429 -64.999560066852766 $282 -53.660456497711536 $277 $430 forward 7 unknown #
edge $-1 $283 -22.016048852863069 $429 0 $165 $431 forward 7 unknown #
coedge $-1 $166 $421 $427 $432 forward $281 $-1 #
loop $-1 $-1 $421 $269 #
vertex $-1 $278 $433 #
vertex $-1 $167 $434 #
straight-curve $-1 -1.4210854715202004e-014 -65.233310279199685 15.787093764333918 0 1 0 I I #
coedge $-1 $285 $285 $-1 $435 reversed $170 $-1 #
edge $-1 $436 0 $436 6.2831853071796004 $171 $437 forward 7 unknown #
vertex $-1 $174 $438 #
ellipse-curve $-1 -15.686709468466503 -40.246926618768349 10.117541979763304 0 -0.51503808176128008 0.85716729658548041 2.5 0 0 1 I I #
face $-1 $-1 $301 $38 $-1 $439 forward single #
loop $-1 $-1 $440 $175 #
plane-surface $-1 0 -49.682645157119609 0 0 1 0 0 0 1 forward_v I I I I #
coedge $-1 $441 $442 $443 $444 reversed $176 $-1 #
coedge $-1 $445 $178 $180 $299 forward $110 $-1 #
coedge $-1 $178 $445 $441 $446 forward $110 $-1 #
coedge $-1 $443 $181 $178 $296 forward $301 $-1 #
edge $-1 $303 -41.284671105520992 $447 -9.9112521685880139 $295 $448 forward 7 unknown #
coedge $-1 $449 $450 $179 $298 forward $290 $-1 #
edge $-1 $451 -64.999560066852766 $302 -53.660456497711536 $297 $452 forward 7 unknown #
edge $-1 $303 -22.016048852863069 $451 0 $180 $453 forward 7 unknown #
coedge $-1 $181 $443 $449 $454 forward $301 $-1 #
loop $-1 $-1 $443 $289 #
vertex $-1 $298 $455 #
vertex $-1 $182 $456 #
straight-curve $-1 66.882632742575495 -65.233310279199685 15.787093764333918 0 1 0 I I #
coedge $-1 $305 $305 $-1 $457 reversed $185 $-1 #
edge $-1 $458 0 $458 6.2831853071796004 $186 $459 forward 7 unknown #
vertex $-1 $189 $460 #
ellipse-curve $-1 51.195923274109006 -40.246926618768349 10.117541979763304 0 -0.51503808176128008 0.85716729658548041 2.5 0 0 1 I I #
face $-1 $-1 $321 $40 $-1 $461 forward single #
loop $-1 $-1 $462 $190 #
plane-surface $-1 0 49.682645157119609 0 0 -1 0 0 0 -1 forward_v I I I I #
coedge $-1 $463 $464 $465 $466 reversed $191 $-1 #
coedge $-1 $467 $193 $195 $319 forward $119 $-1 #
coedge $-1 $193 $467 $463 $468 forward $119 $-1 #
coedge $-1 $465 $196 $193 $316 forward $321 $-1 #
edge $-1 $323 -23.530064202699741 $469 7.8433547342332375 $315 $470 forward 7 unknown #
coedge $-1 $471 $472 $194 $318 forward $310 $-1 #
edge $-1 $473 -90.588014325402 $322 -79.24891075626077 $317 $474 forward 7 unknown #
edge $-1 $323 77.349241461376138 $473 99.365290314239218 $195 $475 forward 7 unknown #
coedge $-1 $196 $465 $471 $476 forward $321 $-1 #
loop $-1 $-1 $465 $309 #
vertex $-1 $318 $477 #
vertex $-1 $197 $478 #
straight-curve $-1 -31.373418936932993 22.646971642655757 15.787093764333918 0 -1 0 I I #
coedge $-1 $325 $325 $-1 $479 reversed $200 $-1 #
edge $-1 $480 0 $480 6.2831853071796004 $201 $481 forward 7 unknown #
vertex $-1 $204 $482 #
ellipse-curve $-1 -15.686709468466503 40.246926618768342 10.11754197976331 0 0.51503808176128008 0.85716729658548041 2.5 0 0 1 I I #
face $-1 $-1 $483 $42 $-1 $484 reversed single #
loop $-1 $-1 $211 $205 #
plane-surface $-1 0 0 15.787093764333916 0 0 1 1 0 0 forward_v I I I I #
coedge $-1 $485 $486 $487 $488 reversed $206 $-1 #
coedge $-1 $489 $208 $210 $339 forward $128 $-1 #
coedge $-1 $208 $489 $485 $490 forward $128 $-1 #
coedge $-1 $487 $211 $208 $336 forward $330 $-1 #
edge $-1 $342 9.9112521685880139 $491 41.284671105520992 $335 $492 forward 7 unknown #
coedge $-1 $493 $494 $209 $338 forward $483 $-1 #
edge $-1 $495 -90.588014325402 $341 -79.24891075626077 $337 $496 forward 7 unknown #
edge $-1 $342 77.349241461376138 $495 99.365290314239218 $210 $497 forward 7 unknown #
coedge $-1 $211 $487 $493 $498 forward $330 $-1 #
vertex $-1 $212 $499 #
vertex $-1 $212 $500 #
straight-curve $-1 35.509213805642517 22.646971642655757 15.787093764333918 0 -1 0 I I #
coedge $-1 $344 $344 $-1 $501 reversed $215 $-1 #
edge $-1 $502 0 $502 6.2831853071796004 $216 $503 forward 7 unknown #
vertex $-1 $219 $504 #
ellipse-curve $-1 51.195923274109006 40.246926618768342 10.11754197976331 0 0.51503808176128008 0.85716729658548041 2.5 0 0 1 I I #
face $-1 $-1 $235 $33 $-1 $505 reversed single #
loop $-1 $-1 $364 $220 #
plane-surface $-1 0 49.682645157119609 0 0 -1 0 0 0 -1 forward_v I I I I #
coedge $-1 $506 $362 $365 $507 forward $221 $-1 #
coedge $-1 $368 $223 $224 $356 reversed $137 $-1 #
coedge $-1 $362 $506 $223 $354 reversed $221 $-1 #
edge $-1 $369 -15.787093764333916 $508 15.787093764333916 $353 $509 forward 7 unknown #
coedge $-1 $225 $224 $506 $510 forward $89 $-1 #
edge $-1 $360 -78.425244911038547 $508 78.425244911038547 $352 $511 forward 7 unknown #
coedge $-1 $365 $364 $225 $358 reversed $349 $-1 #
edge $-1 $512 -78.425244911038547 $359 78.425244911038547 $357 $513 forward 7 unknown #
vertex $-1 $227 $514 #
vertex $-1 $371 $515 #
straight-curve $-1 78.425244911038547 0 -15.787093764333916 0 -1 0 I I #
coedge $-1 $351 $353 $228 $363 reversed $221 $-1 #
edge $-1 $366 -49.682645157119609 $369 49.682645157119609 $362 $516 forward 7 unknown #
coedge $-1 $357 $229 $234 $372 forward $349 $-1 #
coedge $-1 $229 $357 $351 $507 reversed $349 $-1 #
vertex $-1 $230 $517 #
straight-curve $-1 0 49.682645157119609 15.787093764333916 -1 0 0 I I #
coedge $-1 $231 $352 $233 $371 reversed $137 $-1 #
vertex $-1 $363 $518 #
straight-curve $-1 0 -49.682645157119609 15.787093764333916 1 0 0 I I #
edge $-1 $236 -15.787093764333916 $360 15.787093764333916 $233 $519 forward 7 unknown #
edge $-1 $237 -15.787093764333916 $359 15.787093764333916 $234 $520 forward 7 unknown #
point $-1 78.425244911038547 -49.682645157119609 15.787093764333916 #
point $-1 78.425244911038547 49.682645157119609 15.787093764333916 #
face $-1 $-1 $389 $34 $-1 $521 reversed single #
loop $-1 $-1 $385 $239 #
plane-surface $-1 0 0 15.787093764333916 0 0 1 1 0 0 forward_v I I I I #
coedge $-1 $522 $523 $379 $524 forward $240 $-1 #
coedge $-1 $243 $242 $378 $524 reversed $93 $-1 #
edge $-1 $525 -5.7713060842315116 $251 5.7713060842315116 $242 $526 forward 7 unknown #
coedge $-1 $527 $385 $243 $382 forward $376 $-1 #
edge $-1 $383 78.425244911038547 $528 89.96785707950157 $243 $529 forward 7 unknown #
vertex $-1 $382 $530 #
straight-curve $-1 -78.425244911038547 49.682645157119609 0 0 0 -1 I I #
coedge $-1 $381 $531 $245 $386 forward $376 $-1 #
edge $-1 $390 -49.682645157119609 $383 49.682645157119609 $385 $532 forward 7 unknown #
coedge $-1 $533 $246 $531 $534 reversed $389 $-1 #
coedge $-1 $246 $533 $248 $393 reversed $389 $-1 #
loop $-1 $-1 $246 $375 #
vertex $-1 $247 $535 #
straight-curve $-1 -78.425244911038547 -49.682645157119609 0 0 0 1 I I #
coedge $-1 $249 $248 $522 $536 forward $145 $-1 #
edge $-1 $250 -5.7713060842315116 $537 5.7713060842315116 $388 $538 forward 7 unknown #
point $-1 -78.425244911038547 -49.682645157119609 10.636956123278251 #
point $-1 -78.425244911038547 49.682645157119609 10.636956123278251 #
face $-1 $-1 $411 $35 $-1 $539 reversed single #
loop $-1 $-1 $540 $253 #
plane-surface $-1 89.967857079501556 0 13.212024943806083 -1 0 0 0 0 1 forward_v I I I I #
coedge $-1 $265 $264 $541 $542 forward $254 $-1 #
coedge $-1 $543 $256 $265 $414 reversed $153 $-1 #
coedge $-1 $256 $543 $257 $403 reversed $153 $-1 #
coedge $-1 $258 $257 $544 $545 forward $97 $-1 #
edge $-1 $407 -5.7713060842314974 $546 5.7713060842315116 $401 $547 forward 7 unknown #
coedge $-1 $548 $262 $258 $405 reversed $411 $-1 #
edge $-1 $549 -89.967857079501556 $406 -78.425244911038547 $404 $550 forward 7 unknown #
vertex $-1 $263 $551 #
vertex $-1 $403 $552 #
straight-curve $-1 78.425244911038547 0 15.787093764333916 0 -1 0 I I #
straight-curve $-1 78.425244911038547 -49.682645157119609 0 0 0 -1 I I #
coedge $-1 $262 $548 $264 $413 reversed $411 $-1 #
loop $-1 $-1 $262 $396 #
straight-curve $-1 78.425244911038547 49.682645157119609 0 0 0 1 I I #
edge $-1 $266 -5.7713060842315116 $553 5.7713060842315116 $410 $554 forward 7 unknown #
edge $-1 $555 -5.7713060842315116 $267 5.7713060842315116 $400 $556 forward 7 unknown #
point $-1 78.425244911038533 49.682645157119609 10.636956123278251 #
point $-1 78.425244911038533 -49.682645157119609 10.636956123278251 #
plane-surface $-1 0 0 15.787093764333916 0 0 1 1 0 0 forward_v I I I I #
coedge $-1 $428 $427 $420 $557 forward $270 $-1 #
coedge $-1 $420 $272 $274 $424 reversed $161 $-1 #
coedge $-1 $272 $419 $418 $557 reversed $161 $-1 #
coedge $-1 $280 $275 $272 $422 forward $281 $-1 #
edge $-1 $425 -34.422102198782582 $558 -15.550665122080076 $421 $559 forward 7 unknown #
coedge $-1 $274 $273 $428 $560 reversed $101 $-1 #
edge $-1 $561 0 $425 22.016048852863069 $419 $562 forward 7 unknown #
vertex $-1 $276 $563 #
straight-curve $-1 -7.8433547342332517 -30.811208080417099 15.787093764333916 -1 0 0 I I #
coedge $-1 $418 $277 $280 $432 reversed $270 $-1 #
coedge $-1 $277 $418 $423 $560 forward $270 $-1 #
vertex $-1 $278 $564 #
straight-curve $-1 -1.4210854715202004e-014 -49.682645157119609 69.447550262045453 0 0 1 I I #
straight-curve $-1 -1.4210854715202004e-014 -49.682645157119609 4.4479901951926877 0 -0.85716729658548041 -0.51503808176128008 I I #
edge $-1 $558 -115.56996993220304 $282 -84.196550995270059 $427 $565 forward 7 unknown #
point $-1 -1.4210854715202004e-014 -49.682645157119609 15.787093764333916 #
point $-1 -1.4210854715202004e-014 -30.811208080417103 15.787093764333916 #
edge $-1 $566 1 $566 0 $285 $-1 forward 7 unknown #
vertex $-1 $286 $567 #
ellipse-curve $-1 -15.686709468466503 -35.995076394248699 3.0412750171833949 0 -0.51503808176128008 0.85716729658548041 2.5 0 0 1 I I #
point $-1 -13.186709468466503 -40.246926618768342 10.117541979763288 #
plane-surface $-1 0 0 15.787093764333916 0 0 1 1 0 0 forward_v I I I I #
coedge $-1 $450 $449 $442 $568 forward $290 $-1 #
coedge $-1 $442 $292 $294 $446 reversed $176 $-1 #
coedge $-1 $292 $441 $440 $568 reversed $176 $-1 #
coedge $-1 $300 $295 $292 $444 forward $301 $-1 #
edge $-1 $447 -34.422102198782582 $569 -15.550665122080076 $443 $570 forward 7 unknown #
coedge $-1 $294 $293 $450 $571 reversed $110 $-1 #
edge $-1 $572 0 $447 22.016048852863069 $441 $573 forward 7 unknown #
vertex $-1 $296 $574 #
straight-curve $-1 25.597961637054503 -30.811208080417099 15.787093764333916 -1 0 0 I I #
coedge $-1 $440 $297 $300 $454 reversed $290 $-1 #
coedge $-1 $297 $440 $445 $571 forward $290 $-1 #
vertex $-1 $298 $575 #
straight-curve $-1 66.882632742575495 -49.682645157119609 69.447550262045453 0 0 1 I I #
straight-curve $-1 66.882632742575495 -49.682645157119609 4.4479901951926877 0 -0.85716729658548041 -0.51503808176128008 I I #
edge $-1 $569 -48.687337189627527 $302 -17.313918252694549 $449 $576 forward 7 unknown #
point $-1 66.882632742575495 -49.682645157119609 15.787093764333916 #
point $-1 66.882632742575495 -30.811208080417103 15.787093764333916 #
edge $-1 $577 1 $577 0 $305 $-1 forward 7 unknown #
vertex $-1 $306 $578 #
ellipse-curve $-1 51.195923274109006 -35.995076394248699 3.0412750171833949 0 -0.51503808176128008 0.85716729658548041 2.5 0 0 1 I I #
point $-1 53.695923274109006 -40.246926618768342 10.117541979763288 #
plane-surface $-1 0 0 15.787093764333916 0 0 1 1 0 0 forward_v I I I I #
coedge $-1 $472 $471 $464 $579 forward $310 $-1 #
coedge $-1 $464 $312 $314 $468 reversed $191 $-1 #
coedge $-1 $312 $463 $462 $579 reversed $191 $-1 #
coedge $-1 $320 $315 $312 $466 forward $321 $-1 #
edge $-1 $469 8.1642364377613319 $580 27.035673514463852 $465 $581 forward 7 unknown #
coedge $-1 $314 $313 $472 $582 reversed $119 $-1 #
edge $-1 $583 -99.365290314239218 $469 -77.349241461376138 $463 $584 forward 7 unknown #
vertex $-1 $316 $585 #
straight-curve $-1 -7.8433547342332517 30.811208080417089 15.787093764333918 1 0 0 I I #
coedge $-1 $462 $317 $320 $476 reversed $310 $-1 #
coedge $-1 $317 $462 $467 $582 forward $310 $-1 #
vertex $-1 $318 $586 #
straight-curve $-1 -31.373418936932993 49.682645157119609 95.036004520594688 0 0 1 I I #
straight-curve $-1 -31.373418936932993 -35.490032115968248 55.624898712291156 0 0.85716729658548041 -0.51503808176128008 I I #
edge $-1 $580 1.4210854715202004e-014 $322 31.373418936932993 $471 $587 forward 7 unknown #
point $-1 -31.373418936932993 49.682645157119609 15.787093764333916 #
point $-1 -31.373418936932993 30.811208080417089 15.787093764333918 #
edge $-1 $588 1 $588 0 $325 $-1 forward 7 unknown #
vertex $-1 $326 $589 #
ellipse-curve $-1 -15.686709468466503 35.995076394248684 3.0412750171833949 0 0.51503808176128008 0.85716729658548041 2.5 0 0 1 I I #
point $-1 -13.186709468466503 40.246926618768327 10.117541979763288 #
loop $-1 $-1 $337 $329 #
plane-surface $-1 0 49.682645157119609 0 0 -1 0 0 0 -1 forward_v I I I I #
coedge $-1 $486 $332 $334 $490 reversed $206 $-1 #
coedge $-1 $332 $485 $590 $591 reversed $206 $-1 #
coedge $-1 $340 $335 $332 $488 forward $330 $-1 #
edge $-1 $491 8.1642364377613319 $592 27.035673514463852 $487 $593 forward 7 unknown #
coedge $-1 $334 $333 $494 $594 reversed $128 $-1 #
edge $-1 $595 -99.365290314239218 $491 -77.349241461376138 $485 $596 forward 7 unknown #
vertex $-1 $336 $597 #
straight-curve $-1 25.597961637054503 30.811208080417089 15.787093764333918 1 0 0 I I #
coedge $-1 $590 $337 $340 $498 reversed $483 $-1 #
coedge $-1 $337 $590 $489 $594 forward $483 $-1 #
vertex $-1 $338 $598 #
straight-curve $-1 35.509213805642517 49.682645157119609 95.036004520594688 0 0 1 I I #
straight-curve $-1 35.509213805642517 -35.490032115968248 55.624898712291156 0 0.85716729658548041 -0.51503808176128008 I I #
edge $-1 $592 -66.882632742575495 $341 -35.509213805642517 $493 $599 forward 7 unknown #
point $-1 35.509213805642517 49.682645157119609 15.787093764333916 #
point $-1 35.509213805642517 30.811208080417089 15.787093764333918 #
edge $-1 $600 1 $600 0 $344 $-1 forward 7 unknown #
vertex $-1 $345 $601 #
ellipse-curve $-1 51.195923274109006 35.995076394248684 3.0412750171833949 0 0.51503808176128008 0.85716729658548041 2.5 0 0 1 I I #
point $-1 53.695923274109006 40.246926618768327 10.117541979763288 #
plane-surface $-1 78.425244911038547 0 0 -1 0 0 0 0 1 forward_v I I I I #
coedge $-1 $353 $351 $355 $510 reversed $221 $-1 #
edge $-1 $366 -15.787093764333916 $512 15.787093764333916 $365 $602 forward 7 unknown #
vertex $-1 $510 $603 #
straight-curve $-1 -78.425244911038547 -49.682645157119609 0 0 0 -1 I I #
edge $-1 $508 -49.682645157119609 $512 49.682645157119609 $506 $604 forward 7 unknown #
straight-curve $-1 0 -49.682645157119609 -15.787093764333916 -1 0 0 I I #
vertex $-1 $358 $605 #
straight-curve $-1 0 49.682645157119609 -15.787093764333916 1 0 0 I I #
point $-1 78.425244911038547 49.682645157119609 -15.787093764333916 #
point $-1 78.425244911038547 -49.682645157119609 -15.787093764333916 #
straight-curve $-1 -78.425244911038547 0 15.787093764333916 0 -1 0 I I #
point $-1 -78.425244911038547 49.682645157119609 15.787093764333916 #
point $-1 -78.425244911038547 -49.682645157119609 15.787093764333916 #
straight-curve $-1 78.425244911038547 -49.682645157119609 0 0 0 -1 I I #
straight-curve $-1 78.425244911038547 49.682645157119609 0 0 0 -1 I I #
plane-surface $-1 0 -49.682645157119609 0 0 1 0 0 0 1 forward_v I I I I #
coedge $-1 $606 $378 $392 $536 reversed $240 $-1 #
coedge $-1 $378 $606 $527 $607 reversed $240 $-1 #
edge $-1 $528 -2.5750688205278323 $525 2.5750688205278323 $379 $608 forward 7 unknown #
vertex $-1 $380 $609 #
straight-curve $-1 -84.196550995270059 49.682645157119609 10.636956123278251 1 0 0 I I #
coedge $-1 $531 $381 $523 $607 forward $376 $-1 #
vertex $-1 $382 $610 #
straight-curve $-1 0 49.682645157119609 15.787093764333916 -1 0 0 I I #
point $-1 -78.425244911038547 49.682645157119609 15.787093764333916 #
coedge $-1 $385 $527 $387 $534 forward $376 $-1 #
straight-curve $-1 -78.425244911038547 0 15.787093764333916 0 1 0 I I #
coedge $-1 $388 $387 $606 $611 forward $389 $-1 #
edge $-1 $612 -89.96785707950157 $390 -78.425244911038547 $387 $613 forward 7 unknown #
point $-1 -78.425244911038547 -49.682645157119609 15.787093764333916 #
edge $-1 $537 -49.682645157119609 $525 49.682645157119609 $522 $614 forward 7 unknown #
vertex $-1 $536 $615 #
straight-curve $-1 -84.196550995270059 -49.682645157119609 10.636956123278251 -1 0 0 I I #
plane-surface $-1 0 49.682645157119609 0 0 -1 0 0 0 -1 forward_v I I I I #
coedge $-1 $541 $544 $543 $616 forward $397 $-1 #
coedge $-1 $617 $540 $399 $542 reversed $397 $-1 #
edge $-1 $553 -49.682645157119609 $555 49.682645157119609 $541 $618 forward 7 unknown #
coedge $-1 $401 $400 $540 $616 reversed $153 $-1 #
coedge $-1 $540 $617 $402 $545 reversed $397 $-1 #
edge $-1 $546 -49.682645157119609 $549 49.682645157119609 $544 $619 forward 7 unknown #
vertex $-1 $545 $620 #
straight-curve $-1 84.196550995270044 -49.682645157119609 15.787093764333916 1 0 0 I I #
coedge $-1 $410 $404 $617 $621 forward $411 $-1 #
vertex $-1 $545 $622 #
straight-curve $-1 0 49.682645157119609 15.787093764333916 -1 0 0 I I #
point $-1 78.425244911038547 49.682645157119609 15.787093764333916 #
point $-1 78.425244911038547 -49.682645157119609 15.787093764333916 #
vertex $-1 $542 $623 #
straight-curve $-1 84.196550995270044 49.682645157119609 10.636956123278251 1 0 0 I I #
vertex $-1 $616 $624 #
straight-curve $-1 84.196550995270044 -49.682645157119609 10.636956123278251 -1 0 0 I I #
edge $-1 $558 53.660456497711536 $561 64.999560066852766 $418 $625 forward 7 unknown #
vertex $-1 $432 $626 #
straight-curve $-1 -31.373418936932993 -65.233310279199685 15.787093764333918 0 -1 0 I I #
edge $-1 $561 -23.530064202699741 $429 7.8433547342332375 $428 $627 forward 7 unknown #
vertex $-1 $560 $628 #
straight-curve $-1 -31.373418936932993 -49.682645157119609 4.4479901951926877 0 0.85716729658548041 0.51503808176128008 I I #
point $-1 -31.373418936932993 -30.811208080417103 15.787093764333916 #
point $-1 -1.4210854715202004e-014 -49.682645157119609 4.4479901951926877 #
straight-curve $-1 84.196550995270044 -49.682645157119609 15.787093764333916 1 0 0 I I #
vertex $-1 $435 $629 #
point $-1 -13.186709468466503 -35.995076394248699 3.0412750171833949 #
edge $-1 $569 53.660456497711536 $572 64.999560066852766 $440 $630 forward 7 unknown #
vertex $-1 $454 $631 #
straight-curve $-1 35.509213805642517 -65.233310279199685 15.787093764333918 0 -1 0 I I #
edge $-1 $572 9.9112521685880139 $451 41.284671105520992 $450 $632 forward 7 unknown #
vertex $-1 $571 $633 #
straight-curve $-1 35.509213805642517 -49.682645157119609 4.4479901951926877 0 0.85716729658548041 0.51503808176128008 I I #
point $-1 35.509213805642517 -30.811208080417103 15.787093764333916 #
point $-1 66.882632742575495 -49.682645157119609 4.4479901951926877 #
straight-curve $-1 84.196550995270044 -49.682645157119609 15.787093764333916 1 0 0 I I #
vertex $-1 $457 $634 #
point $-1 53.695923274109006 -35.995076394248699 3.0412750171833949 #
edge $-1 $580 79.24891075626077 $583 90.588014325402 $462 $635 forward 7 unknown #
vertex $-1 $476 $636 #
straight-curve $-1 -1.4210854715202004e-014 22.646971642655757 15.787093764333918 0 1 0 I I #
edge $-1 $583 -7.8433547342332375 $473 23.530064202699741 $472 $637 forward 7 unknown #
vertex $-1 $582 $638 #
straight-curve $-1 -1.4210854715202004e-014 -35.490032115968248 55.624898712291156 0 -0.85716729658548041 0.51503808176128008 I I #
point $-1 -1.4210854715202004e-014 30.811208080417089 15.787093764333918 #
point $-1 -31.373418936932993 49.682645157119609 4.4479901951926877 #
straight-curve $-1 0 49.682645157119609 15.787093764333916 -1 0 0 I I #
vertex $-1 $479 $639 #
point $-1 -13.186709468466503 35.995076394248684 3.0412750171833949 #
coedge $-1 $494 $493 $486 $591 forward $483 $-1 #
edge $-1 $592 79.24891075626077 $595 90.588014325402 $590 $640 forward 7 unknown #
vertex $-1 $498 $641 #
straight-curve $-1 66.882632742575495 22.646971642655757 15.787093764333918 0 1 0 I I #
edge $-1 $595 -41.284671105520992 $495 -9.9112521685880139 $494 $642 forward 7 unknown #
vertex $-1 $594 $643 #
straight-curve $-1 66.882632742575495 -35.490032115968248 55.624898712291156 0 -0.85716729658548041 0.51503808176128008 I I #
point $-1 66.882632742575495 30.811208080417089 15.787093764333918 #
point $-1 35.509213805642517 49.682645157119609 4.4479901951926877 #
straight-curve $-1 0 49.682645157119609 15.787093764333916 -1 0 0 I I #
vertex $-1 $501 $644 #
point $-1 53.695923274109006 35.995076394248684 3.0412750171833949 #
straight-curve $-1 -78.425244911038547 49.682645157119609 0 0 0 -1 I I #
point $-1 -78.425244911038547 -49.682645157119609 -15.787093764333916 #
straight-curve $-1 -78.425244911038547 0 -15.787093764333916 0 1 0 I I #
point $-1 -78.425244911038547 49.682645157119609 -15.787093764333916 #
coedge $-1 $523 $522 $533 $611 reversed $240 $-1 #
edge $-1 $528 -49.682645157119609 $612 49.682645157119609 $523 $645 forward 7 unknown #
straight-curve $-1 -89.96785707950157 49.682645157119609 13.212024943806083 0 0 -1 I I #
point $-1 -89.96785707950157 49.682645157119609 10.636956123278251 #
point $-1 -89.96785707950157 49.682645157119609 15.787093764333916 #
edge $-1 $612 -2.5750688205278323 $537 2.5750688205278323 $606 $646 forward 7 unknown #
vertex $-1 $607 $647 #
straight-curve $-1 0 -49.682645157119609 15.787093764333916 1 0 0 I I #
straight-curve $-1 -89.96785707950157 0 10.636956123278251 0 1 0 I I #
point $-1 -89.96785707950157 -49.682645157119609 10.636956123278251 #
edge $-1 $546 -2.5750688205278323 $555 2.5750688205278323 $540 $648 forward 7 unknown #
coedge $-1 $544 $541 $548 $621 reversed $397 $-1 #
straight-curve $-1 89.967857079501556 0 10.636956123278251 0 -1 0 I I #
straight-curve $-1 89.967857079501556 0 15.787093764333916 0 1 0 I I #
point $-1 89.967857079501556 -49.682645157119609 15.787093764333916 #
edge $-1 $549 -2.5750688205278323 $553 2.5750688205278323 $617 $649 forward 7 unknown #
point $-1 89.967857079501556 49.682645157119609 15.787093764333916 #
point $-1 89.967857079501556 49.682645157119609 10.636956123278251 #
point $-1 89.967857079501556 -49.682645157119609 10.636956123278251 #
straight-curve $-1 -31.373418936932993 -49.682645157119609 69.447550262045453 0 0 -1 I I #
point $-1 -31.373418936932993 -49.682645157119609 15.787093764333916 #
straight-curve $-1 -7.8433547342332517 -49.682645157119609 4.4479901951926859 1 0 0 I I #
point $-1 -31.373418936932993 -49.682645157119609 4.4479901951926877 #
point $-1 -15.686709468466503 -34.707481189845495 0.89835677571969419 #
straight-curve $-1 35.509213805642517 -49.682645157119609 69.447550262045453 0 0 -1 I I #
point $-1 35.509213805642517 -49.682645157119609 15.787093764333916 #
straight-curve $-1 25.597961637054503 -49.682645157119609 4.4479901951926859 1 0 0 I I #
point $-1 35.509213805642517 -49.682645157119609 4.4479901951926877 #
point $-1 51.195923274109006 -34.707481189845495 0.89835677571969419 #
straight-curve $-1 -1.4210854715202004e-014 49.682645157119609 95.036004520594688 0 0 -1 I I #
point $-1 -1.4210854715202004e-014 49.682645157119609 15.787093764333916 #
straight-curve $-1 -7.8433547342332517 49.682645157119602 4.4479901951926841 -1 0 0 I I #
point $-1 -1.4210854715202004e-014 49.682645157119609 4.4479901951926877 #
point $-1 -15.686709468466503 34.707481189845481 0.89835677571969419 #
straight-curve $-1 66.882632742575495 49.682645157119609 95.036004520594688 0 0 -1 I I #
point $-1 66.882632742575495 49.682645157119609 15.787093764333916 #
straight-curve $-1 25.597961637054503 49.682645157119602 4.4479901951926841 -1 0 0 I I #
point $-1 66.882632742575495 49.682645157119609 4.4479901951926877 #
point $-1 51.195923274109006 34.707481189845481 0.89835677571969419 #
straight-curve $-1 -89.96785707950157 0 15.787093764333916 0 -1 0 I I #
straight-curve $-1 -89.96785707950157 -49.682645157119609 13.212024943806083 0 0 -1 I I #
point $-1 -89.96785707950157 -49.682645157119609 15.787093764333916 #
straight-curve $-1 89.967857079501556 -49.682645157119609 13.212024943806083 0 0 -1 I I #
straight-curve $-1 89.967857079501556 49.682645157119609 13.212024943806083 0 0 -1 I I #
End-of-ACIS-data 