500 0 18 0           
7 Unknown 11 ACIS 5.0 NT 24 Thu Mar 25 16:10:49 1999 
-1 9.9999999999999995e-007 1e-010 
body $-1 $18 $-1 $19 #
body $-1 $20 $-1 $21 #
body $-1 $22 $-1 $23 #
body $-1 $24 $-1 $25 #
body $-1 $26 $-1 $27 #
body $-1 $28 $-1 $29 #
body $-1 $30 $-1 $31 #
body $-1 $32 $-1 $33 #
body $-1 $34 $-1 $35 #
body $-1 $36 $-1 $37 #
body $-1 $38 $-1 $39 #
body $-1 $40 $-1 $41 #
body $-1 $42 $-1 $43 #
body $-1 $44 $-1 $45 #
body $-1 $46 $-1 $47 #
body $-1 $48 $-1 $49 #
body $-1 $50 $-1 $51 #
body $-1 $52 $-1 $53 #
lump $-1 $-1 $54 $0 #
transform $-1 1 0 0 0 1 0 0 0 1 68.028199102755821 41.503492093975076 20.618370464313031 1 rotate no_reflect no_shear #
lump $-1 $-1 $55 $1 #
transform $-1 1 0 0 0 1 0 0 0 1 68.028199102755821 41.503492093975076 20.618370464313031 1 rotate no_reflect no_shear #
lump $-1 $-1 $56 $2 #
transform $-1 1 0 0 0 1 0 0 0 1 68.028199102755821 41.503492093975076 20.618370464313031 1 rotate no_reflect no_shear #
lump $-1 $-1 $57 $3 #
transform $-1 1 0 0 0 1 0 0 0 1 68.028199102755821 41.503492093975076 20.618370464313031 1 rotate no_reflect no_shear #
lump $-1 $-1 $58 $4 #
transform $-1 1 0 0 0 1 0 0 0 1 68.028199102755821 41.503492093975076 20.618370464313031 1 rotate no_reflect no_shear #
lump $-1 $-1 $59 $5 #
transform $-1 1 0 0 0 1 0 0 0 1 68.028199102755821 41.503492093975076 20.618370464313031 1 rotate no_reflect no_shear #
lump $-1 $-1 $60 $6 #
transform $-1 1 0 0 0 1 0 0 0 1 68.028199102755821 41.503492093975076 20.618370464313031 1 rotate no_reflect no_shear #
lump $-1 $-1 $61 $7 #
transform $-1 1 0 0 0 1 0 0 0 1 68.028199102755821 41.503492093975076 20.618370464313031 1 rotate no_reflect no_shear #
lump $-1 $-1 $62 $8 #
transform $-1 1 0 0 0 1 0 0 0 1 68.028199102755821 41.503492093975076 20.618370464313031 1 rotate no_reflect no_shear #
lump $-1 $-1 $63 $9 #
transform $-1 1 0 0 0 1 0 0 0 1 68.028199102755821 41.503492093975076 20.618370464313031 1 rotate no_reflect no_shear #
lump $-1 $-1 $64 $10 #
transform $-1 1 0 0 0 1 0 0 0 1 68.028199102755821 41.503492093975076 20.618370464313031 1 rotate no_reflect no_shear #
lump $-1 $-1 $65 $11 #
transform $-1 1 0 0 0 1 0 0 0 1 68.028199102755821 41.503492093975076 20.618370464313031 1 rotate no_reflect no_shear #
lump $-1 $-1 $66 $12 #
transform $-1 1 0 0 0 1 0 0 0 1 68.028199102755821 41.503492093975076 20.618370464313031 1 rotate no_reflect no_shear #
lump $-1 $-1 $67 $13 #
transform $-1 1 0 0 0 1 0 0 0 1 68.028199102755821 41.503492093975076 20.618370464313031 1 rotate no_reflect no_shear #
lump $-1 $-1 $68 $14 #
transform $-1 1 0 0 0 1 0 0 0 1 68.028199102755821 41.503492093975076 20.618370464313031 1 rotate no_reflect no_shear #
lump $-1 $-1 $69 $15 #
transform $-1 1 0 0 0 1 0 0 0 1 68.028199102755821 41.503492093975076 20.618370464313031 1 rotate no_reflect no_shear #
lump $-1 $-1 $70 $16 #
transform $-1 1 0 0 0 1 0 0 0 1 68.028199102755821 41.503492093975076 20.618370464313031 1 rotate no_reflect no_shear #
lump $-1 $-1 $71 $17 #
transform $-1 1 0 0 0 1 0 0 0 1 68.028199102755821 41.503492093975076 20.618370464313031 1 rotate no_reflect no_shear #
shell $-1 $-1 $-1 $72 $-1 $18 #
shell $-1 $-1 $-1 $73 $-1 $20 #
shell $-1 $-1 $-1 $74 $-1 $22 #
shell $-1 $-1 $-1 $75 $-1 $24 #
shell $-1 $-1 $-1 $76 $-1 $26 #
shell $-1 $-1 $-1 $77 $-1 $28 #
shell $-1 $-1 $-1 $78 $-1 $30 #
shell $-1 $-1 $-1 $79 $-1 $32 #
shell $-1 $-1 $-1 $80 $-1 $34 #
shell $-1 $-1 $-1 $81 $-1 $36 #
shell $-1 $-1 $-1 $82 $-1 $38 #
shell $-1 $-1 $-1 $83 $-1 $40 #
shell $-1 $-1 $-1 $84 $-1 $42 #
shell $-1 $-1 $-1 $85 $-1 $44 #
shell $-1 $-1 $-1 $86 $-1 $46 #
shell $-1 $-1 $-1 $87 $-1 $48 #
shell $-1 $-1 $-1 $88 $-1 $50 #
shell $-1 $-1 $-1 $89 $-1 $52 #
face $-1 $90 $91 $54 $-1 $92 forward single #
face $-1 $93 $94 $55 $-1 $95 reversed single #
face $-1 $96 $97 $56 $-1 $98 reversed single #
face $-1 $99 $100 $57 $-1 $101 reversed single #
face $-1 $102 $103 $58 $-1 $104 forward single #
face $-1 $105 $106 $59 $-1 $107 forward single #
face $-1 $108 $109 $60 $-1 $110 forward single #
face $-1 $111 $112 $61 $-1 $113 reversed single #
face $-1 $114 $115 $62 $-1 $116 forward single #
face $-1 $117 $118 $63 $-1 $119 forward single #
face $-1 $120 $121 $64 $-1 $122 forward single #
face $-1 $123 $124 $65 $-1 $125 reversed single #
face $-1 $126 $127 $66 $-1 $128 forward single #
face $-1 $129 $130 $67 $-1 $131 forward single #
face $-1 $132 $133 $68 $-1 $134 forward single #
face $-1 $135 $136 $69 $-1 $137 reversed single #
face $-1 $138 $139 $70 $-1 $140 forward single #
face $-1 $141 $142 $71 $-1 $143 forward single #
face $-1 $144 $145 $54 $-1 $146 reversed single #
loop $-1 $-1 $147 $72 #
plane-surface $-1 0 0 20.618370464313031 0 0 1 1 0 0 forward_v I I I I #
face $-1 $148 $149 $55 $-1 $150 reversed single #
loop $-1 $-1 $151 $73 #
plane-surface $-1 0 -28.140186746943442 15.070847722301966 0 0 1 1 0 0 forward_v I I I I #
face $-1 $152 $153 $56 $-1 $154 reversed single #
loop $-1 $-1 $155 $74 #
plane-surface $-1 0 28.140186746943435 15.070847722301966 0 0 1 1 0 0 forward_v I I I I #
face $-1 $156 $157 $57 $-1 $158 reversed single #
loop $-1 $-1 $159 $75 #
plane-surface $-1 -68.028199102755835 -11.847674872376491 9.1503472567424211 -0.54463904215088732 0 0.83867056331134215 0.83867056331134215 0 0.54463904215088732 forward_v I I I I #
face $-1 $160 $161 $58 $-1 $162 forward single #
loop $-1 $163 $164 $76 #
cone-surface $-1 -58.8571304368201 -13.605198788897681 14.358548480652042 0.54463904215088732 0 -0.83867056331134215 0.41933528165567108 0 0.27231952107544366 1 I I 0 1 0.5 forward I I I I #
face $-1 $165 $166 $59 $-1 $167 forward single #
loop $-1 $168 $169 $77 #
cone-surface $-1 -58.8571304368201 -11.847674872376491 14.358548480652042 0.54463904215088732 0 -0.83867056331134215 0.41933528165567108 0 0.27231952107544366 1 I I 0 1 0.5 forward I I I I #
face $-1 $170 $171 $60 $-1 $172 forward single #
loop $-1 $173 $174 $78 #
cone-surface $-1 -58.8571304368201 -10.0901509558553 14.358548480652042 0.54463904215088732 0 -0.83867056331134215 0.41933528165567108 0 0.27231952107544366 1 I I 0 1 0.5 forward I I I I #
face $-1 $175 $176 $61 $-1 $177 reversed single #
loop $-1 $-1 $178 $79 #
plane-surface $-1 -142.12982549990539 -4.9256271333039372 123.25684338187115 0 1 0 -0.54463904215088732 0 0.83867056331134215 forward_v I I I I #
face $-1 $179 $180 $62 $-1 $181 forward single #
loop $-1 $182 $183 $80 #
cone-surface $-1 -58.8571304368201 -3.7539445222898067 14.358548480652042 0.54463904215088732 0 -0.83867056331134215 0.41933528165567108 0 0.27231952107544366 1 I I 0 1 0.5 forward I I I I #
face $-1 $184 $185 $63 $-1 $186 forward single #
loop $-1 $187 $188 $81 #
cone-surface $-1 -58.8571304368201 -1.9964206057686198 14.358548480652042 0.54463904215088732 0 -0.83867056331134215 0.41933528165567108 0 0.27231952107544366 1 I I 0 1 0.5 forward I I I I #
face $-1 $189 $190 $64 $-1 $191 forward single #
loop $-1 $192 $193 $82 #
cone-surface $-1 -58.8571304368201 -0.2388966892474258 14.358548480652042 0.54463904215088732 0 -0.83867056331134215 0.41933528165567108 0 0.27231952107544366 1 I I 0 1 0.5 forward I I I I #
face $-1 $194 $195 $65 $-1 $196 reversed single #
loop $-1 $-1 $197 $83 #
plane-surface $-1 -142.12982549990539 4.9256271333039372 123.25684338187115 0 1 0 -0.54463904215088732 0 0.83867056331134215 forward_v I I I I #
face $-1 $198 $199 $66 $-1 $200 forward single #
loop $-1 $201 $202 $84 #
cone-surface $-1 -58.8571304368201 6.0973097443180677 14.358548480652042 0.54463904215088732 0 -0.83867056331134215 0.41933528165567108 0 0.27231952107544366 1 I I 0 1 0.5 forward I I I I #
face $-1 $203 $204 $67 $-1 $205 forward single #
loop $-1 $206 $207 $85 #
cone-surface $-1 -58.8571304368201 7.8548336608392546 14.358548480652042 0.54463904215088732 0 -0.83867056331134215 0.41933528165567108 0 0.27231952107544366 1 I I 0 1 0.5 forward I I I I #
face $-1 $208 $209 $68 $-1 $210 forward single #
loop $-1 $211 $212 $86 #
cone-surface $-1 -58.8571304368201 9.6123575773604486 14.358548480652042 0.54463904215088732 0 -0.83867056331134215 0.41933528165567108 0 0.27231952107544366 1 I I 0 1 0.5 forward I I I I #
face $-1 $213 $214 $69 $-1 $215 reversed single #
loop $-1 $-1 $216 $87 #
plane-surface $-1 -49.800097564428299 10.703318598401431 70.444562722576407 0.50000000669873634 0 0.8660253999169214 0.8660253999169214 0 -0.50000000669873634 forward_v I I I I #
face $-1 $217 $218 $70 $-1 $219 forward single #
loop $-1 $220 $221 $88 #
cone-surface $-1 52.014798264503391 8.9575059691826979 11.084353886405369 -0.50000000669873634 0 -0.8660253999169214 0.21650634997923035 0 -0.12500000167468409 1 I I 0 1 0.25 forward I I I I #
face $-1 $222 $223 $71 $-1 $224 forward single #
loop $-1 $225 $226 $89 #
cone-surface $-1 52.014798264503391 12.449131227620164 11.084353886405369 -0.50000000669873634 0 -0.8660253999169214 0.21650634997923035 0 -0.12500000167468409 1 I I 0 1 0.25 forward I I I I #
face $-1 $227 $228 $54 $-1 $229 reversed single #
loop $-1 $-1 $230 $90 #
plane-surface $-1 0 0 -20.618370464313031 0 0 1 1 0 0 forward_v I I I I #
coedge $-1 $231 $232 $233 $234 forward $91 $-1 #
face $-1 $235 $236 $55 $-1 $237 reversed single #
loop $-1 $-1 $238 $93 #
plane-surface $-1 0 -14.776881399911808 17.844609093307497 0 -1 0 0 0 -1 forward_v I I I I #
coedge $-1 $239 $240 $241 $242 reversed $94 $-1 #
face $-1 $243 $244 $56 $-1 $245 forward single #
loop $-1 $-1 $246 $96 #
plane-surface $-1 0 14.776881399911801 17.844609093307497 0 1 0 0 0 1 forward_v I I I I #
coedge $-1 $247 $248 $249 $250 reversed $97 $-1 #
face $-1 $251 $252 $57 $-1 $253 reversed single #
loop $-1 $-1 $254 $99 #
plane-surface $-1 -142.12982549990539 -8.9184683448411732 123.25684338187115 0 -1 0 0.54463904215088732 0 -0.83867056331134215 forward_v I I I I #
coedge $-1 $255 $256 $257 $258 reversed $100 $-1 #
face $-1 $-1 $259 $58 $-1 $260 forward single #
loop $-1 $261 $262 $102 #
cone-surface $-1 -58.379505416648392 -13.605198788897681 13.623070459948522 0.54463904215088732 0 -0.83867056331134215 0.20966764082783554 0 0.13615976053772183 1 I I -0.70710678118654746 0.70710678118654746 0.25 forward I I I I #
loop $-1 $-1 $263 $76 #
coedge $-1 $164 $164 $264 $265 reversed $103 $-1 #
face $-1 $-1 $266 $59 $-1 $267 forward single #
loop $-1 $268 $269 $105 #
cone-surface $-1 -58.379505416648392 -11.847674872376491 13.623070459948522 0.54463904215088732 0 -0.83867056331134215 0.20966764082783554 0 0.13615976053772183 1 I I -0.70710678118654746 0.70710678118654746 0.25 forward I I I I #
loop $-1 $-1 $270 $77 #
coedge $-1 $169 $169 $271 $272 reversed $106 $-1 #
face $-1 $-1 $273 $60 $-1 $274 forward single #
loop $-1 $275 $276 $108 #
cone-surface $-1 -58.379505416648392 -10.0901509558553 13.623070459948522 0.54463904215088732 0 -0.83867056331134215 0.20966764082783554 0 0.13615976053772183 1 I I -0.70710678118654746 0.70710678118654746 0.25 forward I I I I #
loop $-1 $-1 $277 $78 #
coedge $-1 $174 $174 $278 $279 reversed $109 $-1 #
face $-1 $280 $281 $61 $-1 $282 reversed single #
loop $-1 $-1 $283 $111 #
plane-surface $-1 -68.028199102755835 -1.9964206057686198 9.1503472567424211 -0.54463904215088732 0 0.83867056331134215 0.83867056331134215 0 0.54463904215088732 forward_v I I I I #
coedge $-1 $284 $285 $286 $287 reversed $112 $-1 #
face $-1 $-1 $288 $62 $-1 $289 forward single #
loop $-1 $290 $291 $114 #
cone-surface $-1 -58.379505416648392 -3.7539445222898067 13.623070459948522 0.54463904215088732 0 -0.83867056331134215 0.20966764082783554 0 0.13615976053772183 1 I I -0.70710678118654746 0.70710678118654746 0.25 forward I I I I #
loop $-1 $-1 $292 $80 #
coedge $-1 $183 $183 $293 $294 reversed $115 $-1 #
face $-1 $-1 $295 $63 $-1 $296 forward single #
loop $-1 $297 $298 $117 #
cone-surface $-1 -58.379505416648392 -1.9964206057686198 13.623070459948522 0.54463904215088732 0 -0.83867056331134215 0.20966764082783554 0 0.13615976053772183 1 I I -0.70710678118654746 0.70710678118654746 0.25 forward I I I I #
loop $-1 $-1 $299 $81 #
coedge $-1 $188 $188 $300 $301 reversed $118 $-1 #
face $-1 $-1 $302 $64 $-1 $303 forward single #
loop $-1 $304 $305 $120 #
cone-surface $-1 -58.379505416648392 -0.2388966892474258 13.623070459948522 0.54463904215088732 0 -0.83867056331134215 0.20966764082783554 0 0.13615976053772183 1 I I -0.70710678118654746 0.70710678118654746 0.25 forward I I I I #
loop $-1 $-1 $306 $82 #
coedge $-1 $193 $193 $307 $308 reversed $121 $-1 #
face $-1 $309 $310 $65 $-1 $311 reversed single #
loop $-1 $-1 $312 $123 #
plane-surface $-1 -68.028199102755835 7.8548336608392546 9.1503472567424211 -0.54463904215088732 0 0.83867056331134215 0.83867056331134215 0 0.54463904215088732 forward_v I I I I #
coedge $-1 $313 $314 $315 $316 reversed $124 $-1 #
face $-1 $-1 $317 $66 $-1 $318 forward single #
loop $-1 $319 $320 $126 #
cone-surface $-1 -58.379505416648392 6.0973097443180677 13.623070459948522 0.54463904215088732 0 -0.83867056331134215 0.20966764082783554 0 0.13615976053772183 1 I I -0.70710678118654746 0.70710678118654746 0.25 forward I I I I #
loop $-1 $-1 $321 $84 #
coedge $-1 $202 $202 $322 $323 reversed $127 $-1 #
face $-1 $-1 $324 $67 $-1 $325 forward single #
loop $-1 $326 $327 $129 #
cone-surface $-1 -58.379505416648392 7.8548336608392546 13.623070459948522 0.54463904215088732 0 -0.83867056331134215 0.20966764082783554 0 0.13615976053772183 1 I I -0.70710678118654746 0.70710678118654746 0.25 forward I I I I #
loop $-1 $-1 $328 $85 #
coedge $-1 $207 $207 $329 $330 reversed $130 $-1 #
face $-1 $-1 $331 $68 $-1 $332 forward single #
loop $-1 $333 $334 $132 #
cone-surface $-1 -58.379505416648392 9.6123575773604486 13.623070459948522 0.54463904215088732 0 -0.83867056331134215 0.20966764082783554 0 0.13615976053772183 1 I I -0.70710678118654746 0.70710678118654746 0.25 forward I I I I #
loop $-1 $-1 $335 $86 #
coedge $-1 $212 $212 $336 $337 reversed $133 $-1 #
face $-1 $338 $339 $69 $-1 $340 forward single #
loop $-1 $-1 $341 $135 #
plane-surface $-1 18.228102449733456 6.6297557968910539 188.27285938976053 0 1 0 0.50000000669873634 0 0.8660253999169214 forward_v I I I I #
coedge $-1 $342 $343 $344 $345 reversed $136 $-1 #
face $-1 $-1 $346 $70 $-1 $347 forward single #
loop $-1 $348 $349 $138 #
cone-surface $-1 51.702298260316681 8.9575059691826979 10.543088011457293 -0.50000000669873634 0 -0.8660253999169214 0.10825317498961518 0 -0.062500000837342043 1 I I -0.70710678118654746 0.70710678118654746 0.125 forward I I I I #
loop $-1 $-1 $350 $88 #
coedge $-1 $221 $221 $351 $352 reversed $139 $-1 #
face $-1 $-1 $353 $71 $-1 $354 forward single #
loop $-1 $355 $356 $141 #
cone-surface $-1 51.702298260316681 12.449131227620164 10.543088011457293 -0.50000000669873634 0 -0.8660253999169214 0.10825317498961518 0 -0.062500000837342043 1 I I -0.70710678118654746 0.70710678118654746 0.125 forward I I I I #
loop $-1 $-1 $357 $89 #
coedge $-1 $226 $226 $358 $359 reversed $142 $-1 #
face $-1 $360 $361 $54 $-1 $362 reversed single #
loop $-1 $-1 $363 $144 #
plane-surface $-1 0 -41.503492093975076 0 0 1 0 0 0 1 forward_v I I I I #
coedge $-1 $364 $365 $366 $367 forward $145 $-1 #
coedge $-1 $368 $147 $369 $370 forward $91 $-1 #
coedge $-1 $147 $368 $371 $372 forward $91 $-1 #
coedge $-1 $373 $374 $147 $234 reversed $375 $-1 #
edge $-1 $376 -41.503492093975076 $377 41.503492093975076 $233 $378 forward 7 unknown #
face $-1 $379 $380 $55 $-1 $381 reversed single #
loop $-1 $-1 $382 $148 #
plane-surface $-1 -68.028199102755821 0 0 1 0 0 0 0 -1 forward_v I I I I #
coedge $-1 $383 $384 $385 $386 reversed $149 $-1 #
coedge $-1 $387 $151 $388 $389 reversed $94 $-1 #
coedge $-1 $151 $387 $383 $390 forward $94 $-1 #
coedge $-1 $385 $391 $151 $242 forward $392 $-1 #
edge $-1 $393 -27.433398720503355 $394 -0.70678802644008698 $241 $395 forward 7 unknown #
face $-1 $396 $397 $56 $-1 $398 reversed single #
loop $-1 $-1 $399 $152 #
plane-surface $-1 0 0 20.618370464313031 0 0 1 1 0 0 forward_v I I I I #
coedge $-1 $400 $401 $402 $403 reversed $153 $-1 #
coedge $-1 $404 $155 $400 $405 forward $97 $-1 #
coedge $-1 $155 $404 $406 $407 reversed $97 $-1 #
coedge $-1 $408 $409 $155 $250 forward $397 $-1 #
edge $-1 $410 0.70678802644008343 $411 27.433398720503352 $249 $412 forward 7 unknown #
face $-1 $413 $414 $57 $-1 $415 forward single #
loop $-1 $-1 $416 $156 #
plane-surface $-1 -68.028199102755821 0 0 1 0 0 0 0 -1 forward_v I I I I #
coedge $-1 $417 $418 $419 $420 reversed $157 $-1 #
coedge $-1 $421 $159 $422 $423 reversed $100 $-1 #
coedge $-1 $159 $421 $417 $424 forward $100 $-1 #
coedge $-1 $419 $425 $159 $258 forward $414 $-1 #
edge $-1 $426 -8.8530439637235627 $427 -2.9946309086529279 $257 $428 forward 7 unknown #
loop $-1 $-1 $264 $160 #
plane-surface $-1 -68.028199102755835 -11.847674872376491 9.1503472567424211 -0.54463904215088732 0 0.83867056331134215 0.83867056331134215 0 0.54463904215088732 forward_v I I I I #
loop $-1 $-1 $429 $102 #
coedge $-1 $262 $262 $263 $430 reversed $161 $-1 #
coedge $-1 $263 $263 $262 $430 forward $163 $-1 #
coedge $-1 $264 $264 $164 $265 forward $259 $-1 #
edge $-1 $431 0 $431 6.2831853071796004 $264 $432 forward 7 unknown #
loop $-1 $-1 $271 $165 #
plane-surface $-1 -68.028199102755835 -11.847674872376491 9.1503472567424211 -0.54463904215088732 0 0.83867056331134215 0.83867056331134215 0 0.54463904215088732 forward_v I I I I #
loop $-1 $-1 $433 $105 #
coedge $-1 $269 $269 $270 $434 reversed $166 $-1 #
coedge $-1 $270 $270 $269 $434 forward $168 $-1 #
coedge $-1 $271 $271 $169 $272 forward $266 $-1 #
edge $-1 $435 0 $435 6.2831853071796004 $271 $436 forward 7 unknown #
loop $-1 $-1 $278 $170 #
plane-surface $-1 -68.028199102755835 -11.847674872376491 9.1503472567424211 -0.54463904215088732 0 0.83867056331134215 0.83867056331134215 0 0.54463904215088732 forward_v I I I I #
loop $-1 $-1 $437 $108 #
coedge $-1 $276 $276 $277 $438 reversed $171 $-1 #
coedge $-1 $277 $277 $276 $438 forward $173 $-1 #
coedge $-1 $278 $278 $174 $279 forward $273 $-1 #
edge $-1 $439 0 $439 6.2831853071796004 $278 $440 forward 7 unknown #
face $-1 $441 $442 $61 $-1 $443 forward single #
loop $-1 $-1 $444 $175 #
plane-surface $-1 -142.12982549990539 0.93278592176669761 123.25684338187115 0 -1 0 0.54463904215088732 0 -0.83867056331134215 forward_v I I I I #
coedge $-1 $445 $446 $447 $448 reversed $176 $-1 #
coedge $-1 $285 $178 $449 $450 reversed $112 $-1 #
coedge $-1 $178 $284 $445 $451 reversed $112 $-1 #
coedge $-1 $447 $452 $178 $287 forward $442 $-1 #
edge $-1 $453 3.0367136471968763 $454 20.695920459800348 $286 $455 forward 7 unknown #
loop $-1 $-1 $293 $179 #
plane-surface $-1 -68.028199102755835 -1.9964206057686198 9.1503472567424211 -0.54463904215088732 0 0.83867056331134215 0.83867056331134215 0 0.54463904215088732 forward_v I I I I #
loop $-1 $-1 $456 $114 #
coedge $-1 $291 $291 $292 $457 reversed $180 $-1 #
coedge $-1 $292 $292 $291 $457 forward $182 $-1 #
coedge $-1 $293 $293 $183 $294 forward $288 $-1 #
edge $-1 $458 0 $458 6.2831853071796004 $293 $459 forward 7 unknown #
loop $-1 $-1 $300 $184 #
plane-surface $-1 -68.028199102755835 -1.9964206057686198 9.1503472567424211 -0.54463904215088732 0 0.83867056331134215 0.83867056331134215 0 0.54463904215088732 forward_v I I I I #
loop $-1 $-1 $460 $117 #
coedge $-1 $298 $298 $299 $461 reversed $185 $-1 #
coedge $-1 $299 $299 $298 $461 forward $187 $-1 #
coedge $-1 $300 $300 $188 $301 forward $295 $-1 #
edge $-1 $462 0 $462 6.2831853071796004 $300 $463 forward 7 unknown #
loop $-1 $-1 $307 $189 #
plane-surface $-1 -68.028199102755835 -1.9964206057686198 9.1503472567424211 -0.54463904215088732 0 0.83867056331134215 0.83867056331134215 0 0.54463904215088732 forward_v I I I I #
loop $-1 $-1 $464 $120 #
coedge $-1 $305 $305 $306 $465 reversed $190 $-1 #
coedge $-1 $306 $306 $305 $465 forward $192 $-1 #
coedge $-1 $307 $307 $193 $308 forward $302 $-1 #
edge $-1 $466 0 $466 6.2831853071796004 $307 $467 forward 7 unknown #
face $-1 $468 $469 $65 $-1 $470 forward single #
loop $-1 $-1 $471 $194 #
plane-surface $-1 -142.12982549990539 10.784040188374572 123.25684338187115 0 -1 0 0.54463904215088732 0 -0.83867056331134215 forward_v I I I I #
coedge $-1 $472 $473 $474 $475 reversed $195 $-1 #
coedge $-1 $314 $197 $476 $477 reversed $124 $-1 #
coedge $-1 $197 $313 $472 $478 reversed $124 $-1 #
coedge $-1 $474 $479 $197 $316 forward $469 $-1 #
edge $-1 $480 3.0367136471968763 $481 20.695920459800348 $315 $482 forward 7 unknown #
loop $-1 $-1 $322 $198 #
plane-surface $-1 -68.028199102755835 7.8548336608392546 9.1503472567424211 -0.54463904215088732 0 0.83867056331134215 0.83867056331134215 0 0.54463904215088732 forward_v I I I I #
loop $-1 $-1 $483 $126 #
coedge $-1 $320 $320 $321 $484 reversed $199 $-1 #
coedge $-1 $321 $321 $320 $484 forward $201 $-1 #
coedge $-1 $322 $322 $202 $323 forward $317 $-1 #
edge $-1 $485 0 $485 6.2831853071796004 $322 $486 forward 7 unknown #
loop $-1 $-1 $329 $203 #
plane-surface $-1 -68.028199102755835 7.8548336608392546 9.1503472567424211 -0.54463904215088732 0 0.83867056331134215 0.83867056331134215 0 0.54463904215088732 forward_v I I I I #
loop $-1 $-1 $487 $129 #
coedge $-1 $327 $327 $328 $488 reversed $204 $-1 #
coedge $-1 $328 $328 $327 $488 forward $206 $-1 #
coedge $-1 $329 $329 $207 $330 forward $324 $-1 #
edge $-1 $489 0 $489 6.2831853071796004 $329 $490 forward 7 unknown #
loop $-1 $-1 $336 $208 #
plane-surface $-1 -68.028199102755835 7.8548336608392546 9.1503472567424211 -0.54463904215088732 0 0.83867056331134215 0.83867056331134215 0 0.54463904215088732 forward_v I I I I #
loop $-1 $-1 $491 $132 #
coedge $-1 $334 $334 $335 $492 reversed $209 $-1 #
coedge $-1 $335 $335 $334 $492 forward $211 $-1 #
coedge $-1 $336 $336 $212 $337 forward $331 $-1 #
edge $-1 $493 0 $493 6.2831853071796004 $336 $494 forward 7 unknown #
face $-1 $495 $496 $69 $-1 $497 reversed single #
loop $-1 $-1 $344 $213 #
plane-surface $-1 0 0 20.618370464313031 0 0 1 1 0 0 forward_v I I I I #
coedge $-1 $498 $499 $500 $501 reversed $214 $-1 #
coedge $-1 $502 $216 $503 $504 reversed $136 $-1 #
coedge $-1 $216 $502 $498 $505 forward $136 $-1 #
coedge $-1 $500 $506 $216 $345 forward $339 $-1 #
edge $-1 $507 -9.4252221007110926 $508 -1.2780964976903384 $344 $509 forward 7 unknown #
loop $-1 $-1 $351 $217 #
plane-surface $-1 -49.800097564428299 10.703318598401431 70.444562722576407 0.50000000669873634 0 0.8660253999169214 0.8660253999169214 0 -0.50000000669873634 forward_v I I I I #
loop $-1 $-1 $510 $138 #
coedge $-1 $349 $349 $350 $511 reversed $218 $-1 #
coedge $-1 $350 $350 $349 $511 forward $220 $-1 #
coedge $-1 $351 $351 $221 $352 forward $346 $-1 #
edge $-1 $512 0 $512 6.2831853071796004 $351 $513 forward 7 unknown #
loop $-1 $-1 $358 $222 #
plane-surface $-1 -49.800097564428299 10.703318598401431 70.444562722576407 0.50000000669873634 0 0.8660253999169214 0.8660253999169214 0 -0.50000000669873634 forward_v I I I I #
loop $-1 $-1 $514 $141 #
coedge $-1 $356 $356 $357 $515 reversed $223 $-1 #
coedge $-1 $357 $357 $356 $515 forward $225 $-1 #
coedge $-1 $358 $358 $226 $359 forward $353 $-1 #
edge $-1 $516 0 $516 6.2831853071796004 $358 $517 forward 7 unknown #
face $-1 $518 $519 $54 $-1 $520 reversed single #
loop $-1 $-1 $521 $227 #
plane-surface $-1 -68.028199102755821 0 0 1 0 0 0 0 -1 forward_v I I I I #
coedge $-1 $522 $371 $523 $524 forward $228 $-1 #
coedge $-1 $525 $230 $522 $526 forward $145 $-1 #
coedge $-1 $230 $525 $527 $528 forward $145 $-1 #
coedge $-1 $374 $373 $230 $367 reversed $375 $-1 #
edge $-1 $529 -41.503492093975076 $530 41.503492093975076 $366 $531 forward 7 unknown #
coedge $-1 $232 $231 $532 $533 forward $91 $-1 #
coedge $-1 $534 $535 $231 $370 reversed $519 $-1 #
edge $-1 $377 -68.028199102755821 $536 68.028199102755821 $369 $537 forward 7 unknown #
coedge $-1 $363 $538 $232 $372 reversed $228 $-1 #
edge $-1 $539 -68.028199102755821 $376 68.028199102755821 $371 $540 forward 7 unknown #
coedge $-1 $366 $233 $538 $541 forward $375 $-1 #
coedge $-1 $233 $366 $534 $542 reversed $375 $-1 #
loop $-1 $-1 $373 $518 #
vertex $-1 $234 $543 #
vertex $-1 $234 $544 #
straight-curve $-1 68.028199102755821 0 20.618370464313031 0 1 0 I I #
face $-1 $545 $546 $55 $-1 $547 forward single #
loop $-1 $-1 $388 $235 #
plane-surface $-1 0 -41.503492093975076 0 0 1 0 0 0 1 forward_v I I I I #
coedge $-1 $548 $549 $550 $551 forward $236 $-1 #
coedge $-1 $550 $238 $240 $390 reversed $149 $-1 #
coedge $-1 $238 $550 $552 $553 reversed $149 $-1 #
coedge $-1 $554 $241 $238 $386 forward $392 $-1 #
edge $-1 $394 6.1485431756482178 $555 11.696065917659279 $385 $556 forward 7 unknown #
coedge $-1 $240 $239 $548 $557 reversed $94 $-1 #
coedge $-1 $558 $559 $239 $389 forward $380 $-1 #
edge $-1 $560 -68.028199102755821 $393 68.028199102755821 $388 $561 forward 7 unknown #
edge $-1 $562 -68.028199102755821 $394 68.028199102755821 $383 $563 forward 7 unknown #
coedge $-1 $241 $554 $558 $564 forward $392 $-1 #
loop $-1 $-1 $385 $545 #
vertex $-1 $389 $565 #
vertex $-1 $242 $566 #
straight-curve $-1 68.028199102755821 -14.070093373471721 15.070847722301966 0 1 0 I I #
face $-1 $567 $568 $56 $-1 $569 reversed single #
loop $-1 $-1 $409 $243 #
plane-surface $-1 68.028199102755821 0 0 -1 0 0 0 0 1 forward_v I I I I #
coedge $-1 $570 $571 $401 $572 forward $244 $-1 #
coedge $-1 $573 $246 $247 $405 reversed $153 $-1 #
coedge $-1 $246 $573 $399 $572 reversed $153 $-1 #
coedge $-1 $574 $575 $246 $403 forward $568 $-1 #
edge $-1 $576 6.1485431756482178 $577 11.696065917659279 $402 $578 forward 7 unknown #
coedge $-1 $248 $247 $575 $579 reversed $97 $-1 #
edge $-1 $410 -68.028199102755821 $576 68.028199102755821 $400 $580 forward 7 unknown #
coedge $-1 $581 $582 $248 $407 forward $583 $-1 #
edge $-1 $411 -68.028199102755821 $584 68.028199102755821 $406 $585 forward 7 unknown #
coedge $-1 $586 $249 $582 $587 reversed $397 $-1 #
coedge $-1 $249 $586 $573 $588 forward $397 $-1 #
vertex $-1 $250 $589 #
vertex $-1 $407 $590 #
straight-curve $-1 68.028199102755821 14.070093373471718 15.070847722301966 0 1 0 I I #
face $-1 $-1 $591 $57 $-1 $592 forward single #
loop $-1 $-1 $419 $251 #
plane-surface $-1 0 0 20.618370464313031 0 0 1 1 0 0 forward_v I I I I #
coedge $-1 $593 $594 $418 $595 forward $252 $-1 #
coedge $-1 $418 $254 $256 $424 reversed $157 $-1 #
coedge $-1 $254 $417 $416 $595 reversed $157 $-1 #
coedge $-1 $596 $257 $254 $420 forward $414 $-1 #
edge $-1 $427 -20.695920459800348 $597 -3.0367136471968763 $419 $598 forward 7 unknown #
coedge $-1 $256 $255 $593 $599 reversed $100 $-1 #
coedge $-1 $600 $601 $255 $423 forward $591 $-1 #
edge $-1 $602 -30.894241250720082 $426 -9.8380511504270398 $422 $603 forward 7 unknown #
edge $-1 $604 1.6755591966779756e-014 $427 21.056190100293058 $417 $605 forward 7 unknown #
coedge $-1 $257 $596 $600 $606 forward $414 $-1 #
vertex $-1 $423 $607 #
vertex $-1 $258 $608 #
straight-curve $-1 -50.368992290152342 -5.9238374361882453 20.618370464313031 0 1 0 I I #
coedge $-1 $429 $429 $-1 $609 reversed $261 $-1 #
edge $-1 $610 0 $610 6.2831853071796004 $262 $611 forward 7 unknown #
vertex $-1 $265 $612 #
ellipse-curve $-1 -59.198595696454085 -13.605198788897681 14.884358860527728 -0.54463904215088732 0 0.83867056331134215 0.41933528165567108 0 0.27231952107544366 1 I I #
coedge $-1 $433 $433 $-1 $613 reversed $268 $-1 #
edge $-1 $614 0 $614 6.2831853071796004 $269 $615 forward 7 unknown #
vertex $-1 $272 $616 #
ellipse-curve $-1 -59.198595696454085 -11.847674872376491 14.884358860527728 -0.54463904215088732 0 0.83867056331134215 0.41933528165567108 0 0.27231952107544366 1 I I #
coedge $-1 $437 $437 $-1 $617 reversed $275 $-1 #
edge $-1 $618 0 $618 6.2831853071796004 $276 $619 forward 7 unknown #
vertex $-1 $279 $620 #
ellipse-curve $-1 -59.198595696454085 -10.0901509558553 14.884358860527728 -0.54463904215088732 0 0.83867056331134215 0.41933528165567108 0 0.27231952107544366 1 I I #
face $-1 $-1 $621 $61 $-1 $622 reversed single #
loop $-1 $-1 $286 $280 #
plane-surface $-1 0 0 20.618370464313031 0 0 1 1 0 0 forward_v I I I I #
coedge $-1 $623 $624 $625 $626 reversed $281 $-1 #
coedge $-1 $627 $283 $285 $451 forward $176 $-1 #
coedge $-1 $283 $627 $623 $628 forward $176 $-1 #
coedge $-1 $625 $286 $283 $448 forward $442 $-1 #
edge $-1 $454 -3.9274168304196273 $629 1.9309962246510075 $447 $630 forward 7 unknown #
coedge $-1 $631 $632 $284 $450 forward $621 $-1 #
edge $-1 $633 -52.478074434193147 $453 -41.010051226622544 $449 $634 forward 7 unknown #
edge $-1 $454 -21.056190100293058 $633 -1.6755591966779756e-014 $285 $635 forward 7 unknown #
coedge $-1 $286 $625 $631 $636 forward $442 $-1 #
vertex $-1 $450 $637 #
vertex $-1 $287 $638 #
straight-curve $-1 -71.064912749952697 -4.9256271333039372 20.618370464313031 1 0 0 I I #
coedge $-1 $456 $456 $-1 $639 reversed $290 $-1 #
edge $-1 $640 0 $640 6.2831853071796004 $291 $641 forward 7 unknown #
vertex $-1 $294 $642 #
ellipse-curve $-1 -59.198595696454085 -3.7539445222898067 14.884358860527728 -0.54463904215088732 0 0.83867056331134215 0.41933528165567108 0 0.27231952107544366 1 I I #
coedge $-1 $460 $460 $-1 $643 reversed $297 $-1 #
edge $-1 $644 0 $644 6.2831853071796004 $298 $645 forward 7 unknown #
vertex $-1 $301 $646 #
ellipse-curve $-1 -59.198595696454085 -1.9964206057686198 14.884358860527728 -0.54463904215088732 0 0.83867056331134215 0.41933528165567108 0 0.27231952107544366 1 I I #
coedge $-1 $464 $464 $-1 $647 reversed $304 $-1 #
edge $-1 $648 0 $648 6.2831853071796004 $305 $649 forward 7 unknown #
vertex $-1 $308 $650 #
ellipse-curve $-1 -59.198595696454085 -0.2388966892474258 14.884358860527728 -0.54463904215088732 0 0.83867056331134215 0.41933528165567108 0 0.27231952107544366 1 I I #
face $-1 $-1 $651 $65 $-1 $652 reversed single #
loop $-1 $-1 $315 $309 #
plane-surface $-1 0 0 20.618370464313031 0 0 1 1 0 0 forward_v I I I I #
coedge $-1 $653 $654 $655 $656 reversed $310 $-1 #
coedge $-1 $657 $312 $314 $478 forward $195 $-1 #
coedge $-1 $312 $657 $653 $658 forward $195 $-1 #
coedge $-1 $655 $315 $312 $475 forward $469 $-1 #
edge $-1 $481 0.9982103028843099 $659 6.8566233579549447 $474 $660 forward 7 unknown #
coedge $-1 $661 $662 $313 $477 forward $651 $-1 #
edge $-1 $663 -52.478074434193147 $480 -41.010051226622544 $476 $664 forward 7 unknown #
edge $-1 $481 -21.056190100293058 $663 -1.6755591966779756e-014 $314 $665 forward 7 unknown #
coedge $-1 $315 $655 $661 $666 forward $469 $-1 #
vertex $-1 $316 $667 #
vertex $-1 $316 $668 #
straight-curve $-1 -71.064912749952697 4.9256271333039372 20.618370464313031 1 0 0 I I #
coedge $-1 $483 $483 $-1 $669 reversed $319 $-1 #
edge $-1 $670 0 $670 6.2831853071796004 $320 $671 forward 7 unknown #
vertex $-1 $323 $672 #
ellipse-curve $-1 -59.198595696454085 6.0973097443180677 14.884358860527728 -0.54463904215088732 0 0.83867056331134215 0.41933528165567108 0 0.27231952107544366 1 I I #
coedge $-1 $487 $487 $-1 $673 reversed $326 $-1 #
edge $-1 $674 0 $674 6.2831853071796004 $327 $675 forward 7 unknown #
vertex $-1 $330 $676 #
ellipse-curve $-1 -59.198595696454085 7.8548336608392546 14.884358860527728 -0.54463904215088732 0 0.83867056331134215 0.41933528165567108 0 0.27231952107544366 1 I I #
coedge $-1 $491 $491 $-1 $677 reversed $333 $-1 #
edge $-1 $678 0 $678 6.2831853071796004 $334 $679 forward 7 unknown #
vertex $-1 $337 $680 #
ellipse-curve $-1 -59.198595696454085 9.6123575773604486 14.884358860527728 -0.54463904215088732 0 0.83867056331134215 0.41933528165567108 0 0.27231952107544366 1 I I #
face $-1 $-1 $681 $69 $-1 $682 forward single #
loop $-1 $-1 $683 $338 #
plane-surface $-1 68.028199102755821 0 0 -1 0 0 0 0 1 forward_v I I I I #
coedge $-1 $499 $341 $343 $505 reversed $214 $-1 #
coedge $-1 $341 $498 $683 $684 reversed $214 $-1 #
coedge $-1 $685 $344 $341 $501 forward $339 $-1 #
edge $-1 $508 27.38734620808296 $686 58.914147877889093 $500 $687 forward 7 unknown #
coedge $-1 $343 $342 $688 $689 reversed $136 $-1 #
coedge $-1 $690 $691 $342 $504 forward $681 $-1 #
edge $-1 $692 -101.34233491744993 $507 -64.938319893374967 $503 $693 forward 7 unknown #
edge $-1 $694 -136.05639820551164 $508 -99.652383181436676 $498 $695 forward 7 unknown #
coedge $-1 $344 $685 $690 $696 forward $339 $-1 #
vertex $-1 $504 $697 #
vertex $-1 $345 $698 #
straight-curve $-1 36.501397432949688 5.3516592992007155 20.618370464313031 0 -1 0 I I #
coedge $-1 $510 $510 $-1 $699 reversed $348 $-1 #
edge $-1 $700 0 $700 6.2831853071796004 $349 $701 forward 7 unknown #
vertex $-1 $352 $702 #
ellipse-curve $-1 52.264798267852761 8.9575059691826979 11.517366586363835 0.50000000669873634 0 0.8660253999169214 0.21650634997923035 0 -0.12500000167468409 1 I I #
coedge $-1 $514 $514 $-1 $703 reversed $355 $-1 #
edge $-1 $704 0 $704 6.2831853071796004 $356 $705 forward 7 unknown #
vertex $-1 $359 $706 #
ellipse-curve $-1 52.264798267852761 12.449131227620164 11.517366586363835 0.50000000669873634 0 0.8660253999169214 0.21650634997923035 0 -0.12500000167468409 1 I I #
face $-1 $-1 $375 $54 $-1 $707 reversed single #
loop $-1 $-1 $534 $360 #
plane-surface $-1 0 41.503492093975076 0 0 -1 0 0 0 -1 forward_v I I I I #
coedge $-1 $708 $532 $535 $709 forward $361 $-1 #
coedge $-1 $538 $363 $364 $526 reversed $228 $-1 #
coedge $-1 $532 $708 $363 $524 reversed $361 $-1 #
edge $-1 $539 -20.618370464313031 $710 20.618370464313031 $523 $711 forward 7 unknown #
coedge $-1 $365 $364 $708 $712 forward $145 $-1 #
edge $-1 $530 -68.028199102755821 $710 68.028199102755821 $522 $713 forward 7 unknown #
coedge $-1 $535 $534 $365 $528 reversed $519 $-1 #
edge $-1 $714 -68.028199102755821 $529 68.028199102755821 $527 $715 forward 7 unknown #
vertex $-1 $367 $716 #
vertex $-1 $541 $717 #
straight-curve $-1 68.028199102755821 0 -20.618370464313031 0 -1 0 I I #
coedge $-1 $521 $523 $368 $533 reversed $361 $-1 #
edge $-1 $536 -41.503492093975076 $539 41.503492093975076 $532 $718 forward 7 unknown #
coedge $-1 $527 $369 $374 $542 forward $519 $-1 #
coedge $-1 $369 $527 $521 $709 reversed $519 $-1 #
vertex $-1 $370 $719 #
straight-curve $-1 0 41.503492093975076 20.618370464313031 -1 0 0 I I #
coedge $-1 $371 $522 $373 $541 reversed $228 $-1 #
vertex $-1 $533 $720 #
straight-curve $-1 0 -41.503492093975076 20.618370464313031 1 0 0 I I #
edge $-1 $376 -20.618370464313031 $530 20.618370464313031 $373 $721 forward 7 unknown #
edge $-1 $377 -20.618370464313031 $529 20.618370464313031 $374 $722 forward 7 unknown #
point $-1 68.028199102755821 -41.503492093975076 20.618370464313031 #
point $-1 68.028199102755821 41.503492093975076 20.618370464313031 #
face $-1 $-1 $392 $55 $-1 $723 reversed single #
loop $-1 $-1 $552 $379 #
plane-surface $-1 0 0 20.618370464313031 0 0 1 1 0 0 forward_v I I I I #
coedge $-1 $724 $382 $387 $557 forward $236 $-1 #
coedge $-1 $382 $724 $725 $726 reversed $236 $-1 #
coedge $-1 $384 $383 $382 $551 reversed $149 $-1 #
edge $-1 $727 -11.696065917659279 $562 -6.1485431756482178 $382 $728 forward 7 unknown #
coedge $-1 $725 $729 $384 $553 forward $546 $-1 #
edge $-1 $555 -68.028199102755821 $727 68.028199102755821 $552 $730 forward 7 unknown #
coedge $-1 $391 $385 $729 $731 reversed $392 $-1 #
vertex $-1 $386 $732 #
straight-curve $-1 68.028199102755821 -14.776881399911808 8.9223045466537485 0 0 1 I I #
edge $-1 $562 0.70678802644008698 $560 27.433398720503355 $548 $733 forward 7 unknown #
coedge $-1 $734 $388 $391 $564 reversed $380 $-1 #
coedge $-1 $388 $734 $724 $735 forward $380 $-1 #
vertex $-1 $389 $736 #
straight-curve $-1 0 -41.503492093975076 15.070847722301966 1 0 0 I I #
vertex $-1 $557 $737 #
straight-curve $-1 0 -14.776881399911808 15.070847722301966 1 0 0 I I #
edge $-1 $738 -20.618370464313031 $393 -15.070847722301966 $391 $739 forward 7 unknown #
point $-1 68.028199102755821 -41.503492093975076 15.070847722301966 #
point $-1 68.028199102755821 -14.776881399911808 15.070847722301966 #
face $-1 $-1 $583 $56 $-1 $740 reversed single #
loop $-1 $-1 $402 $396 #
plane-surface $-1 -68.028199102755821 0 0 1 0 0 0 0 -1 forward_v I I I I #
coedge $-1 $741 $399 $586 $742 forward $244 $-1 #
coedge $-1 $399 $741 $574 $743 forward $244 $-1 #
edge $-1 $577 -68.028199102755821 $744 68.028199102755821 $399 $745 forward 7 unknown #
coedge $-1 $401 $400 $409 $588 reversed $153 $-1 #
coedge $-1 $746 $402 $571 $743 reversed $568 $-1 #
coedge $-1 $402 $746 $404 $579 forward $568 $-1 #
vertex $-1 $579 $747 #
vertex $-1 $403 $748 #
straight-curve $-1 -68.028199102755821 14.776881399911801 8.9223045466537485 0 0 1 I I #
edge $-1 $584 -27.433398720503352 $576 -0.70678802644008343 $575 $749 forward 7 unknown #
straight-curve $-1 0 14.776881399911801 15.070847722301966 -1 0 0 I I #
coedge $-1 $750 $406 $746 $751 reversed $583 $-1 #
coedge $-1 $406 $750 $408 $587 forward $583 $-1 #
loop $-1 $-1 $406 $567 #
vertex $-1 $407 $752 #
straight-curve $-1 0 41.503492093975076 15.070847722301966 -1 0 0 I I #
coedge $-1 $409 $408 $570 $742 reversed $397 $-1 #
edge $-1 $753 -20.618370464313031 $411 -15.070847722301966 $408 $754 forward 7 unknown #
edge $-1 $744 -11.696065917659279 $410 -6.1485431756482178 $409 $755 forward 7 unknown #
point $-1 68.028199102755821 14.776881399911801 15.070847722301966 #
point $-1 68.028199102755821 41.503492093975069 15.070847722301966 #
loop $-1 $-1 $422 $413 #
plane-surface $-1 0 -14.776881399911808 17.844609093307497 0 -1 0 0 0 -1 forward_v I I I I #
coedge $-1 $756 $416 $421 $599 forward $252 $-1 #
coedge $-1 $416 $756 $596 $757 reversed $252 $-1 #
edge $-1 $597 41.010051226622544 $604 52.478074434193147 $416 $758 forward 7 unknown #
coedge $-1 $425 $419 $594 $757 forward $414 $-1 #
vertex $-1 $757 $759 #
straight-curve $-1 -71.064912749952697 -8.9184683448411732 20.618370464313031 -1 0 0 I I #
edge $-1 $604 2.9946309086529279 $602 8.8530439637235627 $593 $760 forward 7 unknown #
coedge $-1 $601 $422 $425 $606 reversed $591 $-1 #
coedge $-1 $422 $600 $756 $761 reversed $591 $-1 #
vertex $-1 $761 $762 #
straight-curve $-1 -42.118108389937902 -14.776881399911808 25.976557219513044 0.83867056331134215 0 0.54463904215088732 I I #
vertex $-1 $599 $763 #
straight-curve $-1 -68.028199102755835 -8.9184683448411732 9.1503472567424211 0.83867056331134215 0 0.54463904215088732 I I #
edge $-1 $764 -68.028199102755821 $426 -50.368992290152349 $425 $765 forward 7 unknown #
point $-1 -50.368992290152349 -14.776881399911808 20.618370464313031 #
point $-1 -50.368992290152349 -8.9184683448411732 20.618370464313031 #
edge $-1 $766 1 $766 0 $429 $-1 forward 7 unknown #
vertex $-1 $430 $767 #
ellipse-curve $-1 -58.515665177186115 -13.605198788897681 13.832738100776357 -0.54463904215088732 0 0.83867056331134215 0.41933528165567108 0 0.27231952107544366 1 I I #
point $-1 -58.779260414798408 -13.605198788897681 15.15667838160317 #
edge $-1 $768 1 $768 0 $433 $-1 forward 7 unknown #
vertex $-1 $434 $769 #
ellipse-curve $-1 -58.515665177186115 -11.847674872376491 13.832738100776357 -0.54463904215088732 0 0.83867056331134215 0.41933528165567108 0 0.27231952107544366 1 I I #
point $-1 -58.779260414798408 -11.847674872376491 15.15667838160317 #
edge $-1 $770 1 $770 0 $437 $-1 forward 7 unknown #
vertex $-1 $438 $771 #
ellipse-curve $-1 -58.515665177186115 -10.0901509558553 13.832738100776357 -0.54463904215088732 0 0.83867056331134215 0.41933528165567108 0 0.27231952107544366 1 I I #
point $-1 -58.779260414798408 -10.0901509558553 15.15667838160317 #
loop $-1 $-1 $449 $441 #
plane-surface $-1 -68.028199102755821 0 0 1 0 0 0 0 -1 forward_v I I I I #
coedge $-1 $624 $444 $446 $628 reversed $281 $-1 #
coedge $-1 $444 $623 $772 $773 reversed $281 $-1 #
coedge $-1 $452 $447 $444 $626 forward $442 $-1 #
edge $-1 $629 -20.695920459800348 $774 -3.0367136471968763 $625 $775 forward 7 unknown #
coedge $-1 $446 $445 $632 $776 reversed $176 $-1 #
edge $-1 $777 1.6755591966779756e-014 $629 21.056190100293058 $623 $778 forward 7 unknown #
vertex $-1 $448 $779 #
straight-curve $-1 -50.368992290152342 -0.9982103028843099 20.618370464313031 0 1 0 I I #
coedge $-1 $772 $449 $452 $636 reversed $621 $-1 #
coedge $-1 $449 $772 $627 $776 forward $621 $-1 #
vertex $-1 $450 $780 #
straight-curve $-1 -68.028199102755821 -4.9256271333039372 61.628421690935575 0 0 1 I I #
straight-curve $-1 -68.028199102755835 -4.9256271333039372 9.1503472567424211 -0.83867056331134215 0 -0.54463904215088732 I I #
edge $-1 $774 -0.93278592176669761 $453 4.9256271333039372 $631 $781 forward 7 unknown #
point $-1 -68.028199102755821 -4.9256271333039372 20.618370464313031 #
point $-1 -50.368992290152349 -4.9256271333039372 20.618370464313031 #
edge $-1 $782 1 $782 0 $456 $-1 forward 7 unknown #
vertex $-1 $457 $783 #
ellipse-curve $-1 -58.515665177186115 -3.7539445222898067 13.832738100776357 -0.54463904215088732 0 0.83867056331134215 0.41933528165567108 0 0.27231952107544366 1 I I #
point $-1 -58.779260414798408 -3.7539445222898067 15.15667838160317 #
edge $-1 $784 1 $784 0 $460 $-1 forward 7 unknown #
vertex $-1 $461 $785 #
ellipse-curve $-1 -58.515665177186115 -1.9964206057686198 13.832738100776357 -0.54463904215088732 0 0.83867056331134215 0.41933528165567108 0 0.27231952107544366 1 I I #
point $-1 -58.779260414798408 -1.9964206057686198 15.15667838160317 #
edge $-1 $786 1 $786 0 $464 $-1 forward 7 unknown #
vertex $-1 $465 $787 #
ellipse-curve $-1 -58.515665177186115 -0.2388966892474258 13.832738100776357 -0.54463904215088732 0 0.83867056331134215 0.41933528165567108 0 0.27231952107544366 1 I I #
point $-1 -58.779260414798408 -0.2388966892474258 15.15667838160317 #
loop $-1 $-1 $476 $468 #
plane-surface $-1 -68.028199102755821 0 0 1 0 0 0 0 -1 forward_v I I I I #
coedge $-1 $654 $471 $473 $658 reversed $310 $-1 #
coedge $-1 $471 $653 $788 $789 reversed $310 $-1 #
coedge $-1 $479 $474 $471 $656 forward $469 $-1 #
edge $-1 $659 -20.695920459800348 $790 -3.0367136471968763 $655 $791 forward 7 unknown #
coedge $-1 $473 $472 $662 $792 reversed $195 $-1 #
edge $-1 $793 1.6755591966779756e-014 $659 21.056190100293058 $653 $794 forward 7 unknown #
vertex $-1 $475 $795 #
straight-curve $-1 -50.368992290152342 3.9274168304196273 20.618370464313031 0 1 0 I I #
coedge $-1 $788 $476 $479 $666 reversed $651 $-1 #
coedge $-1 $476 $788 $657 $792 forward $651 $-1 #
vertex $-1 $477 $796 #
straight-curve $-1 -68.028199102755821 4.9256271333039372 61.628421690935575 0 0 1 I I #
straight-curve $-1 -68.028199102755835 4.9256271333039372 9.1503472567424211 -0.83867056331134215 0 -0.54463904215088732 I I #
edge $-1 $790 -10.784040188374572 $480 -4.9256271333039372 $661 $797 forward 7 unknown #
point $-1 -68.028199102755821 4.9256271333039372 20.618370464313031 #
point $-1 -50.368992290152349 4.9256271333039372 20.618370464313031 #
edge $-1 $798 1 $798 0 $483 $-1 forward 7 unknown #
vertex $-1 $484 $799 #
ellipse-curve $-1 -58.515665177186115 6.0973097443180677 13.832738100776357 -0.54463904215088732 0 0.83867056331134215 0.41933528165567108 0 0.27231952107544366 1 I I #
point $-1 -58.779260414798408 6.0973097443180677 15.15667838160317 #
edge $-1 $800 1 $800 0 $487 $-1 forward 7 unknown #
vertex $-1 $488 $801 #
ellipse-curve $-1 -58.515665177186115 7.8548336608392546 13.832738100776357 -0.54463904215088732 0 0.83867056331134215 0.41933528165567108 0 0.27231952107544366 1 I I #
point $-1 -58.779260414798408 7.8548336608392546 15.15667838160317 #
edge $-1 $802 1 $802 0 $491 $-1 forward 7 unknown #
vertex $-1 $492 $803 #
ellipse-curve $-1 -58.515665177186115 9.6123575773604486 13.832738100776357 -0.54463904215088732 0 0.83867056331134215 0.41933528165567108 0 0.27231952107544366 1 I I #
point $-1 -58.779260414798408 9.6123575773604486 15.15667838160317 #
loop $-1 $-1 $503 $495 #
plane-surface $-1 0 14.776881399911801 17.844609093307497 0 1 0 0 0 1 forward_v I I I I #
coedge $-1 $688 $804 $499 $684 forward $496 $-1 #
edge $-1 $686 73.518059230567232 $694 91.720066986465611 $683 $805 forward 7 unknown #
coedge $-1 $506 $500 $804 $806 forward $339 $-1 #
vertex $-1 $806 $807 #
straight-curve $-1 9.1140512248667278 6.6297557968910539 20.618370464313031 1 0 0 I I #
coedge $-1 $808 $683 $502 $689 forward $496 $-1 #
edge $-1 $694 1.2780964976903384 $692 9.4252221007110926 $688 $809 forward 7 unknown #
coedge $-1 $691 $503 $506 $696 reversed $681 $-1 #
coedge $-1 $503 $690 $808 $810 reversed $681 $-1 #
vertex $-1 $810 $811 #
straight-curve $-1 -19.736837022643346 14.776881399911801 53.087530846005201 -0.8660253999169214 0 0.50000000669873634 I I #
vertex $-1 $689 $812 #
straight-curve $-1 -49.800097564428299 6.6297557968910539 70.444562722576407 -0.8660253999169214 0 0.50000000669873634 I I #
edge $-1 $813 -68.028199102755821 $507 -36.501397432949688 $506 $814 forward 7 unknown #
point $-1 36.501397432949688 14.776881399911808 20.618370464313031 #
point $-1 36.501397432949688 6.6297557968910539 20.618370464313031 #
edge $-1 $815 1 $815 0 $510 $-1 forward 7 unknown #
vertex $-1 $511 $816 #
ellipse-curve $-1 51.76479826115402 8.9575059691826979 10.651341186446908 0.50000000669873634 0 0.8660253999169214 0.21650634997923035 0 -0.12500000167468409 1 I I #
point $-1 52.481304617831988 8.9575059691826979 11.392366584689146 #
edge $-1 $817 1 $817 0 $514 $-1 forward 7 unknown #
vertex $-1 $515 $818 #
ellipse-curve $-1 51.76479826115402 12.449131227620164 10.651341186446908 0.50000000669873634 0 0.8660253999169214 0.21650634997923035 0 -0.12500000167468409 1 I I #
point $-1 52.481304617831988 12.449131227620164 11.392366584689146 #
plane-surface $-1 68.028199102755821 0 0 -1 0 0 0 0 1 forward_v I I I I #
coedge $-1 $523 $521 $525 $712 reversed $361 $-1 #
edge $-1 $536 -20.618370464313031 $714 20.618370464313031 $535 $819 forward 7 unknown #
vertex $-1 $712 $820 #
straight-curve $-1 -68.028199102755821 -41.503492093975076 0 0 0 -1 I I #
edge $-1 $710 -41.503492093975076 $714 41.503492093975076 $708 $821 forward 7 unknown #
straight-curve $-1 0 -41.503492093975076 -20.618370464313031 -1 0 0 I I #
vertex $-1 $528 $822 #
straight-curve $-1 0 41.503492093975076 -20.618370464313031 1 0 0 I I #
point $-1 68.028199102755821 41.503492093975076 -20.618370464313031 #
point $-1 68.028199102755821 -41.503492093975076 -20.618370464313031 #
straight-curve $-1 -68.028199102755821 0 20.618370464313031 0 -1 0 I I #
point $-1 -68.028199102755821 41.503492093975076 20.618370464313031 #
point $-1 -68.028199102755821 -41.503492093975076 20.618370464313031 #
straight-curve $-1 68.028199102755821 -41.503492093975076 0 0 0 -1 I I #
straight-curve $-1 68.028199102755821 41.503492093975076 0 0 0 -1 I I #
plane-surface $-1 68.028199102755821 0 0 -1 0 0 0 0 1 forward_v I I I I #
coedge $-1 $549 $548 $559 $735 reversed $236 $-1 #
coedge $-1 $823 $552 $549 $726 forward $546 $-1 #
edge $-1 $727 14.776881399911808 $824 41.503492093975076 $549 $825 forward 7 unknown #
vertex $-1 $726 $826 #
straight-curve $-1 -68.028199102755821 -14.776881399911808 8.9223045466537485 0 0 -1 I I #
coedge $-1 $552 $823 $554 $731 forward $546 $-1 #
straight-curve $-1 0 -14.776881399911808 20.618370464313031 -1 0 0 I I #
edge $-1 $738 -41.503492093975076 $555 -14.776881399911808 $554 $827 forward 7 unknown #
point $-1 68.028199102755821 -14.776881399911808 20.618370464313028 #
straight-curve $-1 -68.028199102755821 -14.070093373471721 15.070847722301966 0 -1 0 I I #
coedge $-1 $559 $558 $823 $828 reversed $380 $-1 #
edge $-1 $824 -20.618370464313031 $560 -15.070847722301966 $724 $829 forward 7 unknown #
point $-1 -68.028199102755821 -41.503492093975076 15.070847722301966 #
point $-1 -68.028199102755821 -14.776881399911808 15.070847722301966 #
vertex $-1 $731 $830 #
straight-curve $-1 68.028199102755821 -41.503492093975076 0 0 0 -1 I I #
plane-surface $-1 0 41.503492093975076 0 0 -1 0 0 0 -1 forward_v I I I I #
coedge $-1 $571 $570 $750 $831 forward $244 $-1 #
edge $-1 $744 14.776881399911801 $753 41.503492093975076 $586 $832 forward 7 unknown #
edge $-1 $833 -41.503492093975076 $577 -14.776881399911801 $574 $834 forward 7 unknown #
vertex $-1 $742 $835 #
straight-curve $-1 0 14.776881399911801 20.618370464313031 1 0 0 I I #
coedge $-1 $575 $574 $581 $751 forward $568 $-1 #
point $-1 -68.028199102755821 14.776881399911801 15.070847722301966 #
point $-1 -68.028199102755821 14.776881399911801 20.618370464313028 #
straight-curve $-1 -68.028199102755821 14.070093373471718 15.070847722301966 0 -1 0 I I #
coedge $-1 $582 $581 $741 $831 reversed $583 $-1 #
edge $-1 $833 -20.618370464313031 $584 -15.070847722301966 $581 $836 forward 7 unknown #
point $-1 -68.028199102755821 41.503492093975069 15.070847722301966 #
vertex $-1 $742 $837 #
straight-curve $-1 68.028199102755821 41.503492093975076 0 0 0 -1 I I #
straight-curve $-1 68.028199102755821 14.776881399911801 8.9223045466537485 0 0 -1 I I #
coedge $-1 $594 $593 $601 $761 forward $252 $-1 #
edge $-1 $597 8.9184683448411732 $764 14.776881399911808 $594 $838 forward 7 unknown #
straight-curve $-1 -68.028199102755821 -8.9184683448411732 61.628421690935575 0 0 -1 I I #
point $-1 -68.028199102755821 -8.9184683448411732 20.618370464313031 #
straight-curve $-1 -68.028199102755821 -5.9238374361882453 9.1503472567424211 0 -1 0 I I #
edge $-1 $602 -52.478074434193147 $764 -41.010051226622551 $756 $839 forward 7 unknown #
point $-1 -68.028199102755821 -14.776881399911808 9.15034725674243 #
point $-1 -68.028199102755821 -8.9184683448411732 9.15034725674243 #
vertex $-1 $761 $840 #
straight-curve $-1 0 -14.776881399911808 20.618370464313031 1 0 0 I I #
vertex $-1 $609 $841 #
point $-1 -58.096329895530445 -13.605198788897681 14.105057621851801 #
vertex $-1 $613 $842 #
point $-1 -58.096329895530445 -11.847674872376491 14.105057621851801 #
vertex $-1 $617 $843 #
point $-1 -58.096329895530445 -10.0901509558553 14.105057621851801 #
coedge $-1 $632 $631 $624 $773 forward $621 $-1 #
edge $-1 $774 41.010051226622544 $777 52.478074434193147 $772 $844 forward 7 unknown #
vertex $-1 $636 $845 #
straight-curve $-1 -71.064912749952697 0.93278592176669761 20.618370464313031 -1 0 0 I I #
edge $-1 $777 -1.9309962246510075 $633 3.9274168304196273 $632 $846 forward 7 unknown #
vertex $-1 $776 $847 #
straight-curve $-1 -68.028199102755835 0.93278592176669761 9.1503472567424211 0.83867056331134215 0 0.54463904215088732 I I #
point $-1 -50.368992290152349 0.93278592176669761 20.618370464313031 #
point $-1 -68.028199102755821 -4.9256271333039372 9.15034725674243 #
straight-curve $-1 -68.028199102755821 0 20.618370464313031 0 -1 0 I I #
vertex $-1 $639 $848 #
point $-1 -58.096329895530445 -3.7539445222898067 14.105057621851801 #
vertex $-1 $643 $849 #
point $-1 -58.096329895530445 -1.9964206057686198 14.105057621851801 #
vertex $-1 $647 $850 #
point $-1 -58.096329895530445 -0.2388966892474258 14.105057621851801 #
coedge $-1 $662 $661 $654 $789 forward $651 $-1 #
edge $-1 $790 41.010051226622544 $793 52.478074434193147 $788 $851 forward 7 unknown #
vertex $-1 $666 $852 #
straight-curve $-1 -71.064912749952697 10.784040188374572 20.618370464313031 -1 0 0 I I #
edge $-1 $793 -6.8566233579549447 $663 -0.9982103028843099 $662 $853 forward 7 unknown #
vertex $-1 $792 $854 #
straight-curve $-1 -68.028199102755835 10.784040188374572 9.1503472567424211 0.83867056331134215 0 0.54463904215088732 I I #
point $-1 -50.368992290152349 10.784040188374572 20.618370464313031 #
point $-1 -68.028199102755821 4.9256271333039372 9.15034725674243 #
straight-curve $-1 -68.028199102755821 0 20.618370464313031 0 -1 0 I I #
vertex $-1 $669 $855 #
point $-1 -58.096329895530445 6.0973097443180677 14.105057621851801 #
vertex $-1 $673 $856 #
point $-1 -58.096329895530445 7.8548336608392546 14.105057621851801 #
vertex $-1 $677 $857 #
point $-1 -58.096329895530445 9.6123575773604486 14.105057621851801 #
coedge $-1 $683 $808 $685 $806 reversed $496 $-1 #
straight-curve $-1 68.028199102755821 6.6297557968910539 94.136429694880263 0 0 -1 I I #
edge $-1 $686 6.6297557968910539 $813 14.776881399911801 $804 $858 forward 7 unknown #
point $-1 68.028199102755821 6.6297557968910539 20.618370464313031 #
coedge $-1 $804 $688 $691 $810 forward $496 $-1 #
straight-curve $-1 68.028199102755806 5.3516592992007155 2.4163627084146597 0 1 0 I I #
edge $-1 $692 -91.720066986465611 $813 -73.518059230567232 $808 $859 forward 7 unknown #
point $-1 68.028199102755821 14.776881399911808 2.4163627084146526 #
point $-1 68.028199102755821 6.6297557968910539 2.4163627084146526 #
vertex $-1 $696 $860 #
straight-curve $-1 0 14.776881399911801 20.618370464313031 -1 0 0 I I #
vertex $-1 $699 $861 #
point $-1 51.981304611133254 8.9575059691826979 10.526341184772225 #
vertex $-1 $703 $862 #
point $-1 51.981304611133254 12.449131227620164 10.526341184772225 #
straight-curve $-1 -68.028199102755821 41.503492093975076 0 0 0 -1 I I #
point $-1 -68.028199102755821 -41.503492093975076 -20.618370464313031 #
straight-curve $-1 -68.028199102755821 0 -20.618370464313031 0 1 0 I I #
point $-1 -68.028199102755821 41.503492093975076 -20.618370464313031 #
coedge $-1 $729 $725 $734 $828 forward $546 $-1 #
vertex $-1 $726 $863 #
straight-curve $-1 -68.028199102755821 0 20.618370464313031 0 -1 0 I I #
point $-1 -68.028199102755821 -14.776881399911808 20.618370464313028 #
straight-curve $-1 68.028199102755821 0 20.618370464313031 0 1 0 I I #
edge $-1 $824 -68.028199102755821 $738 68.028199102755821 $734 $864 forward 7 unknown #
straight-curve $-1 -68.028199102755821 -41.503492093975076 0 0 0 -1 I I #
point $-1 68.028199102755821 -41.503492093975076 20.618370464313031 #
edge $-1 $753 -68.028199102755821 $833 68.028199102755821 $750 $865 forward 7 unknown #
straight-curve $-1 68.028199102755821 0 20.618370464313031 0 1 0 I I #
vertex $-1 $831 $866 #
straight-curve $-1 -68.028199102755821 0 20.618370464313031 0 -1 0 I I #
point $-1 68.028199102755821 14.776881399911801 20.618370464313028 #
straight-curve $-1 -68.028199102755821 41.503492093975076 0 0 0 -1 I I #
point $-1 68.028199102755821 41.503492093975076 20.618370464313031 #
straight-curve $-1 -68.028199102755821 0 20.618370464313031 0 -1 0 I I #
straight-curve $-1 -68.028199102755821 -14.776881399911808 61.628421690935575 0 0 1 I I #
point $-1 -68.028199102755821 -14.776881399911808 20.618370464313028 #
point $-1 -58.243345656110669 -13.605198788897681 13.413402819120687 #
point $-1 -58.243345656110669 -11.847674872376491 13.413402819120687 #
point $-1 -58.243345656110669 -10.0901509558553 13.413402819120687 #
straight-curve $-1 -68.028199102755821 0.93278592176669761 61.628421690935575 0 0 -1 I I #
point $-1 -68.028199102755821 0.93278592176669761 20.618370464313031 #
straight-curve $-1 -68.028199102755821 -0.9982103028843099 9.1503472567424211 0 -1 0 I I #
point $-1 -68.028199102755821 0.93278592176669761 9.15034725674243 #
point $-1 -58.243345656110669 -3.7539445222898067 13.413402819120687 #
point $-1 -58.243345656110669 -1.9964206057686198 13.413402819120687 #
point $-1 -58.243345656110669 -0.2388966892474258 13.413402819120687 #
straight-curve $-1 -68.028199102755821 10.784040188374572 61.628421690935575 0 0 -1 I I #
point $-1 -68.028199102755821 10.784040188374572 20.618370464313031 #
straight-curve $-1 -68.028199102755821 3.9274168304196273 9.1503472567424211 0 -1 0 I I #
point $-1 -68.028199102755821 10.784040188374572 9.15034725674243 #
point $-1 -58.243345656110669 6.0973097443180677 13.413402819120687 #
point $-1 -58.243345656110669 7.8548336608392546 13.413402819120687 #
point $-1 -58.243345656110669 9.6123575773604486 13.413402819120687 #
straight-curve $-1 68.028199102755821 0 20.618370464313031 0 1 0 I I #
straight-curve $-1 68.028199102755821 14.776881399911808 94.136429694880263 0 0 1 I I #
point $-1 68.028199102755821 14.776881399911801 20.618370464313028 #
point $-1 51.639798259479342 8.9575059691826979 10.434834836467678 #
point $-1 51.639798259479342 12.449131227620164 10.434834836467678 #
point $-1 -68.028199102755821 -41.503492093975076 20.618370464313031 #
straight-curve $-1 0 -41.503492093975076 20.618370464313031 1 0 0 I I #
straight-curve $-1 0 41.503492093975076 20.618370464313031 -1 0 0 I I #
point $-1 -68.028199102755821 41.503492093975076 20.618370464313031 #
End-of-ACIS-data 