500 0 8 0           
7 Unknown 11 ACIS 5.0 NT 24 Fri Mar 26 19:04:49 1999 
-1 9.9999999999999995e-007 1e-010 
body $-1 $8 $-1 $9 #
body $-1 $10 $-1 $11 #
body $-1 $12 $-1 $13 #
body $-1 $14 $-1 $15 #
body $-1 $16 $-1 $17 #
body $-1 $18 $-1 $19 #
body $-1 $20 $-1 $21 #
body $-1 $22 $-1 $23 #
lump $-1 $-1 $24 $0 #
transform $-1 1 0 0 0 1 0 0 0 1 73.963438825647756 29.840670947330569 9.2608350738061027 1 rotate no_reflect no_shear #
lump $-1 $-1 $25 $1 #
transform $-1 1 0 0 0 1 0 0 0 1 73.963438825647756 29.840670947330569 9.2608350738061027 1 rotate no_reflect no_shear #
lump $-1 $-1 $26 $2 #
transform $-1 1 0 0 0 1 0 0 0 1 73.963438825647756 29.840670947330569 9.2608350738061027 1 rotate no_reflect no_shear #
lump $-1 $-1 $27 $3 #
transform $-1 1 0 0 0 1 0 0 0 1 73.963438825647756 29.840670947330569 9.2608350738061027 1 rotate no_reflect no_shear #
lump $-1 $-1 $28 $4 #
transform $-1 1 0 0 0 1 0 0 0 1 73.963438825647756 29.840670947330569 9.2608350738061027 1 rotate no_reflect no_shear #
lump $-1 $-1 $29 $5 #
transform $-1 1 0 0 0 1 0 0 0 1 73.963438825647756 29.840670947330569 9.2608350738061027 1 rotate no_reflect no_shear #
lump $-1 $-1 $30 $6 #
transform $-1 1 0 0 0 1 0 0 0 1 73.963438825647756 29.840670947330569 9.2608350738061027 1 rotate no_reflect no_shear #
lump $-1 $-1 $31 $7 #
transform $-1 1 0 0 0 1 0 0 0 1 73.963438825647756 29.840670947330569 9.2608350738061027 1 rotate no_reflect no_shear #
shell $-1 $-1 $-1 $32 $-1 $8 #
shell $-1 $-1 $-1 $33 $-1 $10 #
shell $-1 $-1 $-1 $34 $-1 $12 #
shell $-1 $-1 $-1 $35 $-1 $14 #
shell $-1 $-1 $-1 $36 $-1 $16 #
shell $-1 $-1 $-1 $37 $-1 $18 #
shell $-1 $-1 $-1 $38 $-1 $20 #
shell $-1 $-1 $-1 $39 $-1 $22 #
face $-1 $40 $41 $24 $-1 $42 forward single #
face $-1 $43 $44 $25 $-1 $45 forward single #
face $-1 $46 $47 $26 $-1 $48 reversed single #
face $-1 $49 $50 $27 $-1 $51 forward single #
face $-1 $52 $53 $28 $-1 $54 forward single #
face $-1 $55 $56 $29 $-1 $57 reversed single #
face $-1 $58 $59 $30 $-1 $60 forward single #
face $-1 $61 $62 $31 $-1 $63 forward single #
face $-1 $64 $65 $24 $-1 $66 reversed single #
loop $-1 $-1 $67 $32 #
plane-surface $-1 0 0 9.2608350738061027 0 0 1 1 0 0 forward_v I I I I #
face $-1 $68 $69 $25 $-1 $70 reversed single #
loop $-1 $-1 $71 $33 #
plane-surface $-1 -73.963438825647756 0 0 1 0 0 0 0 -1 forward_v I I I I #
face $-1 $72 $73 $26 $-1 $74 reversed single #
loop $-1 $-1 $75 $34 #
plane-surface $-1 -62.683929935255975 104.79680827590001 146.56836406723343 1 0 0 0 -0.7660444514056185 -0.64278759981090561 forward_v I I I I #
face $-1 $76 $77 $27 $-1 $78 forward single #
loop $-1 $79 $80 $35 #
cone-surface $-1 -52.284100588170745 26.883422414178963 6.2620671263419689 0 -0.7660444514056185 -0.64278759981090561 1 0 0 1 I I 0 1 1 forward I I I I #
face $-1 $81 $82 $28 $-1 $83 forward single #
loop $-1 $84 $85 $36 #
cone-surface $-1 -36.684356567542892 26.883422414178963 6.2620671263419689 0 -0.7660444514056185 -0.64278759981090561 1 0 0 1 I I 0 1 1 forward I I I I #
face $-1 $86 $87 $29 $-1 $88 reversed single #
loop $-1 $-1 $89 $37 #
plane-surface $-1 55.715779317037004 -29.840670947330565 2.5594007938972823 0 -0.69465837861970381 0.71933979245794832 1 0 0 forward_v I I I I #
face $-1 $90 $91 $30 $-1 $92 forward single #
loop $-1 $93 $94 $38 #
cone-surface $-1 47.895353813346688 -23.663436533174721 3.1064555834809884 0 0.69465837861970381 -0.71933979245794832 2 0 0 1 I I 0 1 2 forward I I I I #
face $-1 $95 $96 $31 $-1 $97 forward single #
loop $-1 $98 $99 $39 #
cone-surface $-1 63.536204820727335 -23.663436533174721 3.1064555834809884 0 0.69465837861970381 -0.71933979245794832 2 0 0 1 I I 0 1 2 forward I I I I #
face $-1 $100 $101 $24 $-1 $102 reversed single #
loop $-1 $-1 $103 $40 #
plane-surface $-1 0 0 -9.2608350738061027 0 0 1 1 0 0 forward_v I I I I #
coedge $-1 $104 $105 $106 $107 forward $41 $-1 #
face $-1 $108 $109 $25 $-1 $110 forward single #
loop $-1 $-1 $111 $43 #
plane-surface $-1 0 29.840670947330569 0 0 -1 0 0 0 -1 forward_v I I I I #
coedge $-1 $112 $113 $114 $115 forward $44 $-1 #
face $-1 $116 $117 $26 $-1 $118 reversed single #
loop $-1 $-1 $119 $46 #
plane-surface $-1 -44.484228577856818 -8.5217555626327197 51.482801434235697 0 0.7660444514056185 0.64278759981090561 1 0 0 forward_v I I I I #
coedge $-1 $120 $121 $122 $123 reversed $47 $-1 #
face $-1 $-1 $124 $27 $-1 $125 forward single #
loop $-1 $126 $127 $49 #
cone-surface $-1 -52.284100588170745 25.010147173777664 4.6902026041810068 0 -0.7660444514056185 -0.64278759981090561 0.5 0 0 1 I I -0.70710678118654746 0.70710678118654746 0.5 forward I I I I #
loop $-1 $-1 $128 $35 #
coedge $-1 $80 $80 $129 $130 reversed $50 $-1 #
face $-1 $-1 $131 $28 $-1 $132 forward single #
loop $-1 $133 $134 $52 #
cone-surface $-1 -36.684356567542892 25.010147173777664 4.6902026041810068 0 -0.7660444514056185 -0.64278759981090561 0.5 0 0 1 I I -0.70710678118654746 0.70710678118654746 0.5 forward I I I I #
loop $-1 $-1 $135 $36 #
coedge $-1 $85 $85 $136 $137 reversed $53 $-1 #
face $-1 $138 $139 $29 $-1 $140 reversed single #
loop $-1 $-1 $141 $55 #
plane-surface $-1 37.468119808426252 -132.5993159308548 108.9690902625325 1 0 0 0 0.69465837861970381 -0.71933979245794832 forward_v I I I I #
coedge $-1 $142 $143 $144 $145 reversed $56 $-1 #
face $-1 $-1 $146 $30 $-1 $147 forward single #
loop $-1 $148 $149 $58 #
cone-surface $-1 47.895353813346688 -20.261312832984505 -0.41654655934766893 0 0.69465837861970381 -0.71933979245794832 1 0 0 1 I I -0.70710678118654768 0.70710678118654735 1 forward I I I I #
loop $-1 $-1 $150 $38 #
coedge $-1 $94 $94 $151 $152 reversed $59 $-1 #
face $-1 $-1 $153 $31 $-1 $154 forward single #
loop $-1 $155 $156 $61 #
cone-surface $-1 63.536204820727335 -20.261312832984505 -0.41654655934766893 0 0.69465837861970381 -0.71933979245794832 1 0 0 1 I I -0.70710678118654768 0.70710678118654735 1 forward I I I I #
loop $-1 $-1 $157 $39 #
coedge $-1 $99 $99 $158 $159 reversed $62 $-1 #
face $-1 $160 $161 $24 $-1 $162 reversed single #
loop $-1 $-1 $163 $64 #
plane-surface $-1 0 -29.840670947330569 0 0 1 0 0 0 1 forward_v I I I I #
coedge $-1 $164 $165 $166 $167 forward $65 $-1 #
coedge $-1 $168 $67 $169 $170 forward $41 $-1 #
coedge $-1 $67 $168 $171 $172 forward $41 $-1 #
coedge $-1 $173 $174 $67 $107 reversed $175 $-1 #
edge $-1 $176 -29.840670947330569 $177 29.840670947330569 $106 $178 forward 7 unknown #
face $-1 $179 $180 $25 $-1 $181 reversed single #
loop $-1 $-1 $114 $68 #
plane-surface $-1 -79.603193270843647 0 -5.2651127279564385 0 0 1 1 0 0 forward_v I I I I #
coedge $-1 $182 $183 $113 $184 forward $69 $-1 #
coedge $-1 $185 $71 $186 $187 reversed $44 $-1 #
coedge $-1 $71 $185 $111 $184 reversed $44 $-1 #
coedge $-1 $188 $189 $71 $115 reversed $109 $-1 #
edge $-1 $190 -29.840670947330569 $191 29.840670947330569 $114 $192 forward 7 unknown #
face $-1 $193 $194 $26 $-1 $195 forward single #
loop $-1 $-1 $196 $72 #
plane-surface $-1 -26.284527220457662 104.79680827590001 146.56836406723343 -1 0 0 0 0.7660444514056185 0.64278759981090561 forward_v I I I I #
coedge $-1 $197 $198 $199 $200 reversed $73 $-1 #
coedge $-1 $121 $75 $201 $202 reversed $47 $-1 #
coedge $-1 $75 $120 $197 $203 reversed $47 $-1 #
coedge $-1 $199 $204 $75 $123 forward $194 $-1 #
edge $-1 $205 22.557733190619434 $206 25.49172422752568 $122 $207 forward 7 unknown #
loop $-1 $-1 $129 $76 #
plane-surface $-1 -44.484228577856818 -8.5217555626327197 51.482801434235697 0 0.7660444514056185 0.64278759981090561 1 0 0 forward_v I I I I #
loop $-1 $-1 $208 $49 #
coedge $-1 $127 $127 $128 $209 reversed $77 $-1 #
coedge $-1 $128 $128 $127 $209 forward $79 $-1 #
coedge $-1 $129 $129 $80 $130 forward $124 $-1 #
edge $-1 $210 7.2746354280921567e-016 $210 6.2831853071796013 $129 $211 forward 7 unknown #
loop $-1 $-1 $136 $81 #
plane-surface $-1 -44.484228577856818 -8.5217555626327197 51.482801434235697 0 0.7660444514056185 0.64278759981090561 1 0 0 forward_v I I I I #
loop $-1 $-1 $212 $52 #
coedge $-1 $134 $134 $135 $213 reversed $82 $-1 #
coedge $-1 $135 $135 $134 $213 forward $84 $-1 #
coedge $-1 $136 $136 $85 $137 forward $131 $-1 #
edge $-1 $214 7.2746354280921567e-016 $214 6.2831853071796013 $136 $215 forward 7 unknown #
face $-1 $216 $217 $29 $-1 $218 forward single #
loop $-1 $-1 $219 $86 #
plane-surface $-1 0 -29.840670947330569 0 0 1 0 0 0 1 forward_v I I I I #
coedge $-1 $220 $221 $222 $223 reversed $87 $-1 #
coedge $-1 $224 $89 $225 $226 reversed $56 $-1 #
coedge $-1 $89 $224 $220 $227 forward $56 $-1 #
coedge $-1 $222 $228 $89 $145 forward $217 $-1 #
edge $-1 $229 -46.105549167129254 $230 -9.6102301499077498 $144 $231 forward 7 unknown #
loop $-1 $-1 $151 $90 #
plane-surface $-1 55.715779317037004 -29.840670947330565 2.5594007938972823 0 -0.69465837861970381 0.71933979245794832 1 0 0 forward_v I I I I #
loop $-1 $-1 $232 $58 #
coedge $-1 $149 $149 $150 $233 reversed $91 $-1 #
coedge $-1 $150 $150 $149 $233 forward $93 $-1 #
coedge $-1 $151 $151 $94 $152 forward $146 $-1 #
edge $-1 $234 5.2929458439863253e-016 $234 6.2831853071796013 $151 $235 forward 7 unknown #
loop $-1 $-1 $158 $95 #
plane-surface $-1 55.715779317037004 -29.840670947330565 2.5594007938972823 0 -0.69465837861970381 0.71933979245794832 1 0 0 forward_v I I I I #
loop $-1 $-1 $236 $61 #
coedge $-1 $156 $156 $157 $237 reversed $96 $-1 #
coedge $-1 $157 $157 $156 $237 forward $98 $-1 #
coedge $-1 $158 $158 $99 $159 forward $153 $-1 #
edge $-1 $238 5.2929458439863253e-016 $238 6.2831853071796013 $158 $239 forward 7 unknown #
face $-1 $240 $241 $24 $-1 $242 reversed single #
loop $-1 $-1 $243 $100 #
plane-surface $-1 -73.963438825647756 0 0 1 0 0 0 0 -1 forward_v I I I I #
coedge $-1 $244 $171 $245 $246 forward $101 $-1 #
coedge $-1 $247 $103 $244 $248 forward $65 $-1 #
coedge $-1 $103 $247 $249 $250 forward $65 $-1 #
coedge $-1 $174 $173 $103 $167 reversed $175 $-1 #
edge $-1 $251 -29.840670947330569 $252 29.840670947330569 $166 $253 forward 7 unknown #
coedge $-1 $105 $104 $254 $255 forward $41 $-1 #
coedge $-1 $256 $257 $104 $170 reversed $241 $-1 #
edge $-1 $177 -73.963438825647756 $258 73.963438825647756 $169 $259 forward 7 unknown #
coedge $-1 $163 $260 $105 $172 reversed $101 $-1 #
edge $-1 $261 -73.963438825647756 $176 73.963438825647756 $171 $262 forward 7 unknown #
coedge $-1 $166 $106 $260 $263 forward $175 $-1 #
coedge $-1 $106 $166 $256 $264 reversed $175 $-1 #
loop $-1 $-1 $173 $240 #
vertex $-1 $107 $265 #
vertex $-1 $107 $266 #
straight-curve $-1 73.963438825647756 0 9.2608350738061027 0 1 0 I I #
face $-1 $267 $268 $25 $-1 $269 reversed single #
loop $-1 $-1 $270 $108 #
plane-surface $-1 -85.242947716039538 0 -7.2629739008812706 1 0 0 0 0 -1 forward_v I I I I #
coedge $-1 $271 $111 $272 $273 reversed $69 $-1 #
coedge $-1 $111 $271 $188 $274 reversed $69 $-1 #
edge $-1 $190 5.2651127279564385 $275 9.2608350738061027 $111 $276 forward 7 unknown #
coedge $-1 $113 $112 $277 $278 reversed $44 $-1 #
coedge $-1 $279 $280 $112 $187 forward $281 $-1 #
edge $-1 $282 -9.2608350738061027 $191 -5.2651127279564385 $186 $283 forward 7 unknown #
coedge $-1 $284 $114 $183 $274 forward $109 $-1 #
coedge $-1 $114 $284 $279 $285 forward $109 $-1 #
vertex $-1 $184 $286 #
vertex $-1 $285 $287 #
straight-curve $-1 -73.963438825647756 0 -5.2651127279564385 0 -1 0 I I #
face $-1 $-1 $288 $26 $-1 $289 reversed single #
loop $-1 $-1 $122 $116 #
plane-surface $-1 0 0 9.2608350738061027 0 0 1 1 0 0 forward_v I I I I #
coedge $-1 $290 $291 $292 $293 reversed $117 $-1 #
coedge $-1 $294 $119 $121 $203 forward $73 $-1 #
coedge $-1 $119 $294 $290 $295 forward $73 $-1 #
coedge $-1 $292 $122 $119 $200 forward $194 $-1 #
edge $-1 $206 -40.441815646327569 $296 -4.0424129315292525 $199 $297 forward 7 unknown #
coedge $-1 $298 $299 $120 $202 forward $288 $-1 #
edge $-1 $300 -67.519941410227872 $205 -64.02334695981061 $201 $301 forward 7 unknown #
edge $-1 $206 55.116862060623667 $300 59.681341894661159 $121 $302 forward 7 unknown #
coedge $-1 $122 $292 $298 $303 forward $194 $-1 #
vertex $-1 $202 $304 #
vertex $-1 $123 $305 #
straight-curve $-1 -62.683929935255975 52.398404137950003 9.2608350738061063 0 -1 0 I I #
coedge $-1 $208 $208 $-1 $306 reversed $126 $-1 #
edge $-1 $307 0 $307 6.2831853071796004 $127 $308 forward 7 unknown #
vertex $-1 $130 $309 #
ellipse-curve $-1 -52.284100588170745 28.373675428877444 7.5125378485974696 0 0.7660444514056185 0.64278759981090561 1 0 0 1 I I #
coedge $-1 $212 $212 $-1 $310 reversed $133 $-1 #
edge $-1 $311 0 $311 6.2831853071796004 $134 $312 forward 7 unknown #
vertex $-1 $137 $313 #
ellipse-curve $-1 -36.684356567542892 28.373675428877444 7.5125378485974696 0 0.7660444514056185 0.64278759981090561 1 0 0 1 I I #
face $-1 $-1 $314 $29 $-1 $315 reversed single #
loop $-1 $-1 $222 $138 #
plane-surface $-1 0 0 9.2608350738061027 0 0 1 1 0 0 forward_v I I I I #
coedge $-1 $316 $317 $221 $318 forward $139 $-1 #
coedge $-1 $221 $141 $143 $227 reversed $87 $-1 #
coedge $-1 $141 $220 $219 $318 reversed $87 $-1 #
coedge $-1 $319 $144 $141 $223 forward $217 $-1 #
edge $-1 $230 -43.398525203267525 $320 -36.458987018096835 $222 $321 forward 7 unknown #
coedge $-1 $143 $142 $316 $322 reversed $56 $-1 #
coedge $-1 $323 $324 $142 $226 forward $314 $-1 #
edge $-1 $325 -9.8438364201660207 $229 -0.19674299098336351 $225 $326 forward 7 unknown #
edge $-1 $327 -5.0235306441864656e-015 $230 9.647093429182652 $220 $328 forward 7 unknown #
coedge $-1 $144 $319 $323 $329 forward $217 $-1 #
vertex $-1 $226 $330 #
vertex $-1 $145 $331 #
straight-curve $-1 27.857889658518502 -22.901132762159879 9.2608350738061027 -1 0 0 I I #
coedge $-1 $232 $232 $-1 $332 reversed $148 $-1 #
edge $-1 $333 0 $333 6.2831853071796004 $149 $334 forward 7 unknown #
vertex $-1 $152 $335 #
ellipse-curve $-1 47.895353813346688 -26.370901854745227 5.9101179338516889 0 -0.69465837861970381 0.71933979245794832 2 0 0 1 I I #
coedge $-1 $236 $236 $-1 $336 reversed $155 $-1 #
edge $-1 $337 0 $337 6.2831853071796004 $156 $338 forward 7 unknown #
vertex $-1 $159 $339 #
ellipse-curve $-1 63.536204820727335 -26.370901854745227 5.9101179338516889 0 -0.69465837861970381 0.71933979245794832 2 0 0 1 I I #
face $-1 $-1 $175 $24 $-1 $340 reversed single #
loop $-1 $-1 $256 $160 #
plane-surface $-1 0 29.840670947330569 0 0 -1 0 0 0 -1 forward_v I I I I #
coedge $-1 $341 $254 $257 $342 forward $161 $-1 #
coedge $-1 $260 $163 $164 $248 reversed $101 $-1 #
coedge $-1 $254 $341 $163 $246 reversed $161 $-1 #
edge $-1 $261 -9.2608350738061027 $343 9.2608350738061027 $245 $344 forward 7 unknown #
coedge $-1 $165 $164 $341 $345 forward $65 $-1 #
edge $-1 $252 -73.963438825647756 $343 73.963438825647756 $244 $346 forward 7 unknown #
coedge $-1 $257 $256 $165 $250 reversed $241 $-1 #
edge $-1 $347 -73.963438825647756 $251 73.963438825647756 $249 $348 forward 7 unknown #
vertex $-1 $167 $349 #
vertex $-1 $263 $350 #
straight-curve $-1 73.963438825647756 0 -9.2608350738061027 0 -1 0 I I #
coedge $-1 $243 $245 $168 $255 reversed $161 $-1 #
edge $-1 $258 -29.840670947330569 $261 29.840670947330569 $254 $351 forward 7 unknown #
coedge $-1 $249 $169 $174 $264 forward $241 $-1 #
coedge $-1 $169 $249 $243 $342 reversed $241 $-1 #
vertex $-1 $170 $352 #
straight-curve $-1 0 29.840670947330569 9.2608350738061027 -1 0 0 I I #
coedge $-1 $171 $244 $173 $263 reversed $101 $-1 #
vertex $-1 $255 $353 #
straight-curve $-1 0 -29.840670947330569 9.2608350738061027 1 0 0 I I #
edge $-1 $176 -9.2608350738061027 $252 9.2608350738061027 $173 $354 forward 7 unknown #
edge $-1 $177 -9.2608350738061027 $251 9.2608350738061027 $174 $355 forward 7 unknown #
point $-1 73.963438825647756 -29.840670947330569 9.2608350738061027 #
point $-1 73.963438825647756 29.840670947330569 9.2608350738061027 #
face $-1 $-1 $281 $25 $-1 $356 reversed single #
loop $-1 $-1 $277 $179 #
plane-surface $-1 0 0 -9.2608350738061027 0 0 1 1 0 0 forward_v I I I I #
coedge $-1 $357 $358 $271 $359 forward $180 $-1 #
coedge $-1 $183 $182 $270 $359 reversed $69 $-1 #
coedge $-1 $277 $360 $182 $273 forward $268 $-1 #
edge $-1 $361 -85.242947716039538 $275 -73.963438825647756 $182 $362 forward 7 unknown #
edge $-1 $190 -5.6397544451958908 $363 5.6397544451958908 $183 $364 forward 7 unknown #
vertex $-1 $184 $365 #
straight-curve $-1 -73.963438825647756 29.840670947330569 0 0 0 -1 I I #
coedge $-1 $366 $272 $185 $278 forward $268 $-1 #
edge $-1 $275 -29.840670947330569 $282 29.840670947330569 $277 $367 forward 7 unknown #
coedge $-1 $368 $186 $189 $285 reversed $281 $-1 #
coedge $-1 $186 $368 $366 $369 reversed $281 $-1 #
loop $-1 $-1 $186 $267 #
vertex $-1 $369 $370 #
straight-curve $-1 -73.963438825647756 -29.840670947330569 0 0 0 1 I I #
coedge $-1 $189 $188 $358 $371 forward $109 $-1 #
edge $-1 $372 -5.6397544451958908 $191 5.6397544451958908 $279 $373 forward 7 unknown #
point $-1 -73.963438825647756 29.840670947330569 -5.2651127279564385 #
point $-1 -73.963438825647756 -29.840670947330569 -5.2651127279564385 #
loop $-1 $-1 $201 $193 #
plane-surface $-1 0 29.840670947330569 0 0 -1 0 0 0 -1 forward_v I I I I #
coedge $-1 $291 $196 $198 $295 reversed $117 $-1 #
coedge $-1 $196 $290 $374 $375 reversed $117 $-1 #
coedge $-1 $204 $199 $196 $293 forward $194 $-1 #
edge $-1 $296 -25.49172422752568 $376 -22.557733190619434 $292 $377 forward 7 unknown #
coedge $-1 $198 $197 $299 $378 reversed $73 $-1 #
edge $-1 $379 -59.681341894661159 $296 -55.116862060623667 $290 $380 forward 7 unknown #
vertex $-1 $200 $381 #
straight-curve $-1 -22.242114288928409 26.906679910424323 9.2608350738061027 1 0 0 I I #
coedge $-1 $374 $201 $204 $303 reversed $288 $-1 #
coedge $-1 $201 $374 $294 $378 forward $288 $-1 #
vertex $-1 $202 $382 #
straight-curve $-1 -62.683929935255975 29.840670947330565 73.284182033616716 0 0 1 I I #
straight-curve $-1 -62.683929935255975 -8.5217555626327197 51.482801434235697 0 0.64278759981090561 -0.7660444514056185 I I #
edge $-1 $376 26.284527220457662 $205 62.683929935255975 $298 $383 forward 7 unknown #
point $-1 -62.683929935255975 29.840670947330569 9.2608350738061027 #
point $-1 -62.683929935255975 26.906679910424323 9.2608350738061063 #
edge $-1 $384 1 $384 0 $208 $-1 forward 7 unknown #
vertex $-1 $209 $385 #
ellipse-curve $-1 -52.284100588170745 25.393169399480474 5.0115964040864593 0 0.7660444514056185 0.64278759981090561 1 0 0 1 I I #
point $-1 -51.284100588170745 28.373675428877455 7.5125378485974776 #
edge $-1 $386 1 $386 0 $212 $-1 forward 7 unknown #
vertex $-1 $213 $387 #
ellipse-curve $-1 -36.684356567542892 25.393169399480474 5.0115964040864593 0 0.7660444514056185 0.64278759981090561 1 0 0 1 I I #
point $-1 -35.684356567542892 28.373675428877455 7.5125378485974776 #
loop $-1 $-1 $225 $216 #
plane-surface $-1 73.963438825647756 0 0 -1 0 0 0 0 1 forward_v I I I I #
coedge $-1 $388 $219 $224 $322 forward $139 $-1 #
coedge $-1 $219 $388 $319 $389 reversed $139 $-1 #
edge $-1 $320 45.223710057460153 $327 51.925144337368977 $219 $390 forward 7 unknown #
coedge $-1 $228 $222 $317 $389 forward $217 $-1 #
vertex $-1 $389 $391 #
straight-curve $-1 37.468119808426252 -66.2996579654274 9.2608350738060992 0 -1 0 I I #
edge $-1 $327 9.6102301499077498 $325 46.105549167129254 $316 $392 forward 7 unknown #
coedge $-1 $324 $225 $228 $329 reversed $314 $-1 #
coedge $-1 $225 $323 $388 $393 forward $314 $-1 #
vertex $-1 $322 $394 #
straight-curve $-1 73.963438825647756 -22.75960769985835 9.3975042409273968 0 0.71933979245794832 0.69465837861970381 I I #
vertex $-1 $322 $395 #
straight-curve $-1 37.468119808426252 -29.840670947330565 2.5594007938972823 0 0.71933979245794832 0.69465837861970381 I I #
edge $-1 $396 -29.840670947330569 $229 -22.901132762159879 $323 $397 forward 7 unknown #
point $-1 73.963438825647756 -22.901132762159879 9.2608350738061027 #
point $-1 37.468119808426252 -22.901132762159879 9.2608350738061027 #
edge $-1 $398 1 $398 0 $232 $-1 forward 7 unknown #
vertex $-1 $233 $399 #
ellipse-curve $-1 47.895353813346688 -20.955971211604208 0.30279323311027906 0 -0.69465837861970381 0.71933979245794832 2 0 0 1 I I #
point $-1 49.895353813346688 -26.370901854745235 5.9101179338516978 #
edge $-1 $400 1 $400 0 $236 $-1 forward 7 unknown #
vertex $-1 $237 $401 #
ellipse-curve $-1 63.536204820727335 -20.955971211604208 0.30279323311027906 0 -0.69465837861970381 0.71933979245794832 2 0 0 1 I I #
point $-1 65.536204820727335 -26.370901854745235 5.9101179338516978 #
plane-surface $-1 73.963438825647756 0 0 -1 0 0 0 0 1 forward_v I I I I #
coedge $-1 $245 $243 $247 $345 reversed $161 $-1 #
edge $-1 $258 -9.2608350738061027 $347 9.2608350738061027 $257 $402 forward 7 unknown #
vertex $-1 $345 $403 #
straight-curve $-1 -73.963438825647756 -29.840670947330569 0 0 0 -1 I I #
edge $-1 $343 -29.840670947330569 $347 29.840670947330569 $341 $404 forward 7 unknown #
straight-curve $-1 0 -29.840670947330569 -9.2608350738061027 -1 0 0 I I #
vertex $-1 $250 $405 #
straight-curve $-1 0 29.840670947330569 -9.2608350738061027 1 0 0 I I #
point $-1 73.963438825647756 29.840670947330569 -9.2608350738061027 #
point $-1 73.963438825647756 -29.840670947330569 -9.2608350738061027 #
straight-curve $-1 -73.963438825647756 0 9.2608350738061027 0 -1 0 I I #
point $-1 -73.963438825647756 29.840670947330569 9.2608350738061027 #
point $-1 -73.963438825647756 -29.840670947330569 9.2608350738061027 #
straight-curve $-1 73.963438825647756 -29.840670947330569 0 0 0 -1 I I #
straight-curve $-1 73.963438825647756 29.840670947330569 0 0 0 -1 I I #
plane-surface $-1 0 -29.840670947330569 0 0 1 0 0 0 1 forward_v I I I I #
coedge $-1 $406 $270 $360 $407 reversed $180 $-1 #
coedge $-1 $270 $406 $284 $371 reversed $180 $-1 #
edge $-1 $363 -1.9978611729248321 $361 1.9978611729248321 $271 $408 forward 7 unknown #
coedge $-1 $272 $366 $357 $407 forward $268 $-1 #
vertex $-1 $273 $409 #
straight-curve $-1 0 29.840670947330569 -9.2608350738061027 1 0 0 I I #
vertex $-1 $274 $410 #
straight-curve $-1 -79.603193270843647 29.840670947330569 -5.2651127279564385 -1 0 0 I I #
point $-1 -73.963438825647756 29.840670947330569 -9.2608350738061027 #
coedge $-1 $360 $277 $280 $369 forward $268 $-1 #
straight-curve $-1 -73.963438825647756 0 -9.2608350738061027 0 -1 0 I I #
coedge $-1 $280 $279 $406 $411 forward $281 $-1 #
edge $-1 $282 -5.6397544451958908 $412 5.6397544451958908 $280 $413 forward 7 unknown #
point $-1 -73.963438825647756 -29.840670947330569 -9.2608350738061027 #
edge $-1 $363 -29.840670947330569 $372 29.840670947330569 $358 $414 forward 7 unknown #
vertex $-1 $371 $415 #
straight-curve $-1 -79.603193270843647 -29.840670947330569 -5.2651127279564385 1 0 0 I I #
coedge $-1 $299 $298 $291 $375 forward $288 $-1 #
edge $-1 $376 64.02334695981061 $379 67.519941410227872 $374 $416 forward 7 unknown #
vertex $-1 $303 $417 #
straight-curve $-1 -26.284527220457662 52.398404137950003 9.2608350738061063 0 1 0 I I #
edge $-1 $379 4.0424129315292525 $300 40.441815646327569 $299 $418 forward 7 unknown #
vertex $-1 $378 $419 #
straight-curve $-1 -26.284527220457662 -8.5217555626327197 51.482801434235697 0 -0.64278759981090561 0.7660444514056185 I I #
point $-1 -26.284527220457662 26.906679910424323 9.2608350738061063 #
point $-1 -62.683929935255975 29.840670947330565 5.7642406233888437 #
straight-curve $-1 0 29.840670947330569 9.2608350738061027 -1 0 0 I I #
vertex $-1 $306 $420 #
point $-1 -51.284100588170745 25.393169399480474 5.0115964040864593 #
vertex $-1 $310 $421 #
point $-1 -35.684356567542892 25.393169399480474 5.0115964040864593 #
coedge $-1 $317 $316 $324 $393 reversed $139 $-1 #
edge $-1 $320 37.468119808426252 $396 73.963438825647756 $317 $422 forward 7 unknown #
straight-curve $-1 37.468119808426252 -29.840670947330565 54.484545131266252 0 0 -1 I I #
point $-1 37.468119808426252 -29.840670947330569 9.2608350738061027 #
straight-curve $-1 27.857889658518502 -29.840670947330569 2.5594007938972774 1 0 0 I I #
edge $-1 $396 -9.2608350738061027 $325 -2.5594007938972787 $324 $423 forward 7 unknown #
point $-1 73.963438825647756 -29.840670947330569 2.5594007938972787 #
point $-1 37.468119808426252 -29.840670947330569 2.5594007938972787 #
vertex $-1 $329 $424 #
straight-curve $-1 73.963438825647756 0 9.2608350738061027 0 1 0 I I #
vertex $-1 $332 $425 #
point $-1 49.895353813346688 -20.955971211604208 0.30279323311027906 #
vertex $-1 $336 $426 #
point $-1 65.536204820727335 -20.955971211604208 0.30279323311027906 #
straight-curve $-1 -73.963438825647756 29.840670947330569 0 0 0 -1 I I #
point $-1 -73.963438825647756 -29.840670947330569 -9.2608350738061027 #
straight-curve $-1 -73.963438825647756 0 -9.2608350738061027 0 1 0 I I #
point $-1 -73.963438825647756 29.840670947330569 -9.2608350738061027 #
coedge $-1 $358 $357 $368 $411 reversed $180 $-1 #
edge $-1 $412 -29.840670947330569 $361 29.840670947330569 $357 $427 forward 7 unknown #
straight-curve $-1 -85.242947716039538 29.840670947330569 -7.2629739008812706 0 0 -1 I I #
point $-1 -85.242947716039538 29.840670947330569 -9.2608350738061027 #
point $-1 -85.242947716039538 29.840670947330569 -5.2651127279564385 #
edge $-1 $372 -1.9978611729248321 $412 1.9978611729248321 $406 $428 forward 7 unknown #
vertex $-1 $407 $429 #
straight-curve $-1 -79.603193270843647 -29.840670947330569 -9.2608350738061027 -1 0 0 I I #
straight-curve $-1 -85.242947716039538 0 -5.2651127279564385 0 -1 0 I I #
point $-1 -85.242947716039538 -29.840670947330569 -5.2651127279564385 #
straight-curve $-1 -26.284527220457662 29.840670947330565 73.284182033616716 0 0 -1 I I #
point $-1 -26.284527220457662 29.840670947330569 9.2608350738061027 #
straight-curve $-1 -22.242114288928409 29.840670947330569 5.7642406233888437 -1 0 0 I I #
point $-1 -26.284527220457662 29.840670947330565 5.7642406233888437 #
point $-1 -52.284100588170745 24.627124948074854 4.3688088042755542 #
point $-1 -36.684356567542892 24.627124948074854 4.3688088042755542 #
straight-curve $-1 0 -29.840670947330569 9.2608350738061027 1 0 0 I I #
straight-curve $-1 73.963438825647756 -29.840670947330569 0 0 0 -1 I I #
point $-1 73.963438825647756 -29.840670947330569 9.2608350738061027 #
point $-1 47.895353813346688 -19.566654454364802 -1.1358863518056168 #
point $-1 63.536204820727335 -19.566654454364802 -1.1358863518056168 #
straight-curve $-1 -85.242947716039538 0 -9.2608350738061027 0 1 0 I I #
straight-curve $-1 -85.242947716039538 -29.840670947330569 -7.2629739008812706 0 0 -1 I I #
point $-1 -85.242947716039538 -29.840670947330569 -9.2608350738061027 #
End-of-ACIS-data 