500 0 6 0           
7 Unknown 11 ACIS 5.0 NT 24 Thu Mar 25 16:49:52 1999 
-1 9.9999999999999995e-007 1e-010 
body $-1 $6 $-1 $7 #
body $-1 $8 $-1 $9 #
body $-1 $10 $-1 $11 #
body $-1 $12 $-1 $13 #
body $-1 $14 $-1 $15 #
body $-1 $16 $-1 $17 #
lump $-1 $-1 $18 $0 #
transform $-1 1 0 0 0 1 0 0 0 1 43.691518906216622 29.560412028434015 12.340098514155718 1 rotate no_reflect no_shear #
lump $-1 $-1 $19 $1 #
transform $-1 1 0 0 0 1 0 0 0 1 43.691518906216622 29.560412028434015 12.340098514155718 1 rotate no_reflect no_shear #
lump $-1 $-1 $20 $2 #
transform $-1 1 0 0 0 1 0 0 0 1 43.691518906216622 29.560412028434015 12.340098514155718 1 rotate no_reflect no_shear #
lump $-1 $-1 $21 $3 #
transform $-1 1 0 0 0 1 0 0 0 1 43.691518906216622 29.560412028434015 12.340098514155718 1 rotate no_reflect no_shear #
lump $-1 $-1 $22 $4 #
transform $-1 1 0 0 0 1 0 0 0 1 43.691518906216622 29.560412028434015 12.340098514155718 1 rotate no_reflect no_shear #
lump $-1 $-1 $23 $5 #
transform $-1 1 0 0 0 1 0 0 0 1 43.691518906216622 29.560412028434015 12.340098514155718 1 rotate no_reflect no_shear #
shell $-1 $-1 $-1 $24 $-1 $6 #
shell $-1 $-1 $-1 $25 $-1 $8 #
shell $-1 $-1 $-1 $26 $-1 $10 #
shell $-1 $-1 $-1 $27 $-1 $12 #
shell $-1 $-1 $-1 $28 $-1 $14 #
shell $-1 $-1 $-1 $29 $-1 $16 #
face $-1 $30 $31 $18 $-1 $32 forward single #
face $-1 $33 $34 $19 $-1 $35 reversed single #
face $-1 $36 $37 $20 $-1 $38 forward single #
face $-1 $39 $40 $21 $-1 $41 reversed single #
face $-1 $42 $43 $22 $-1 $44 forward single #
face $-1 $45 $46 $23 $-1 $47 forward single #
face $-1 $48 $49 $18 $-1 $50 reversed single #
loop $-1 $-1 $51 $24 #
plane-surface $-1 0 0 12.340098514155718 0 0 1 1 0 0 forward_v I I I I #
face $-1 $52 $53 $19 $-1 $54 reversed single #
loop $-1 $-1 $55 $25 #
plane-surface $-1 -38.762262092010374 0 7.0953212697561394 0 0 1 1 0 0 forward_v I I I I #
face $-1 $56 $57 $20 $-1 $58 reversed single #
loop $-1 $-1 $59 $26 #
plane-surface $-1 39.386015715046973 0 3.1676885520142708 0 0 1 1 0 0 forward_v I I I I #
face $-1 $60 $61 $21 $-1 $62 reversed single #
loop $-1 $-1 $63 $27 #
plane-surface $-1 -16.83794143105488 27.569731227628168 108.69812774735753 -1 0 0 0 0.54463904215088732 0.83867056331134215 forward_v I I I I #
face $-1 $64 $65 $22 $-1 $66 forward single #
loop $-1 $67 $68 $28 #
cone-surface $-1 -23.477397386918394 22.260871680329128 7.3572325833442278 0 -0.54463904215088732 -0.83867056331134215 0.5 0 0 1 I I 0 1 0.5 forward I I I I #
face $-1 $69 $70 $23 $-1 $71 forward single #
loop $-1 $72 $73 $29 #
cone-surface $-1 -19.493723813400287 22.260871680329128 7.3572325833442278 0 -0.54463904215088732 -0.83867056331134215 0.5 0 0 1 I I 0 1 0.5 forward I I I I #
face $-1 $74 $75 $18 $-1 $76 reversed single #
loop $-1 $-1 $77 $30 #
plane-surface $-1 0 0 -12.340098514155718 0 0 1 1 0 0 forward_v I I I I #
coedge $-1 $78 $79 $80 $81 forward $31 $-1 #
face $-1 $82 $83 $19 $-1 $84 reversed single #
loop $-1 $-1 $85 $33 #
plane-surface $-1 -33.833005277804119 0 9.7177098919559288 -1 0 0 0 0 1 forward_v I I I I #
coedge $-1 $86 $87 $88 $89 forward $34 $-1 #
face $-1 $90 $91 $20 $-1 $92 reversed single #
loop $-1 $-1 $93 $36 #
plane-surface $-1 39.386015715046973 0 -2.1881107890671263 0 0 1 1 0 0 forward_v I I I I #
coedge $-1 $94 $95 $96 $97 reversed $37 $-1 #
face $-1 $98 $99 $21 $-1 $100 reversed single #
loop $-1 $-1 $101 $39 #
plane-surface $-1 -21.485560600159339 -20.02248278677024 35.412546201347837 0 0.54463904215088732 0.83867056331134215 1 0 0 forward_v I I I I #
coedge $-1 $102 $103 $104 $105 reversed $40 $-1 #
face $-1 $-1 $106 $22 $-1 $107 forward single #
loop $-1 $108 $109 $42 #
cone-surface $-1 -23.477397386918394 21.852392398715963 6.7282296608607215 0 -0.54463904215088732 -0.83867056331134215 0.25 0 0 1 I I -0.70710678118654746 0.70710678118654746 0.25 forward I I I I #
loop $-1 $-1 $110 $28 #
coedge $-1 $68 $68 $111 $112 reversed $43 $-1 #
face $-1 $-1 $113 $23 $-1 $114 forward single #
loop $-1 $115 $116 $45 #
cone-surface $-1 -19.493723813400287 21.852392398715963 6.7282296608607215 0 -0.54463904215088732 -0.83867056331134215 0.25 0 0 1 I I -0.70710678118654746 0.70710678118654746 0.25 forward I I I I #
loop $-1 $-1 $117 $29 #
coedge $-1 $73 $73 $118 $119 reversed $46 $-1 #
face $-1 $120 $121 $18 $-1 $122 reversed single #
loop $-1 $-1 $123 $48 #
plane-surface $-1 0 -29.560412028434015 0 0 1 0 0 0 1 forward_v I I I I #
coedge $-1 $124 $125 $126 $127 forward $49 $-1 #
coedge $-1 $128 $51 $129 $130 forward $31 $-1 #
coedge $-1 $51 $128 $131 $132 forward $31 $-1 #
coedge $-1 $133 $134 $51 $81 reversed $135 $-1 #
edge $-1 $136 -29.560412028434015 $137 29.560412028434015 $80 $138 forward 7 unknown #
face $-1 $139 $140 $19 $-1 $141 reversed single #
loop $-1 $-1 $142 $52 #
plane-surface $-1 0 29.560412028434015 0 0 -1 0 0 0 -1 forward_v I I I I #
coedge $-1 $88 $143 $144 $145 reversed $53 $-1 #
coedge $-1 $146 $55 $147 $148 reversed $34 $-1 #
coedge $-1 $55 $146 $149 $150 reversed $34 $-1 #
coedge $-1 $151 $85 $55 $89 reversed $53 $-1 #
edge $-1 $152 -29.560412028434015 $153 29.560412028434015 $88 $154 forward 7 unknown #
face $-1 $155 $156 $20 $-1 $157 reversed single #
loop $-1 $-1 $158 $56 #
plane-surface $-1 35.080512523877331 0 0.48978888147357225 1 0 0 0 0 -1 forward_v I I I I #
coedge $-1 $159 $160 $161 $162 reversed $57 $-1 #
coedge $-1 $163 $59 $164 $165 reversed $37 $-1 #
coedge $-1 $59 $163 $166 $167 reversed $37 $-1 #
coedge $-1 $168 $169 $59 $97 forward $170 $-1 #
edge $-1 $171 -29.560412028434015 $172 29.560412028434015 $96 $173 forward 7 unknown #
face $-1 $174 $175 $21 $-1 $176 reversed single #
loop $-1 $-1 $177 $60 #
plane-surface $-1 -26.133179769263798 27.569731227628168 108.69812774735753 1 0 0 0 -0.54463904215088732 -0.83867056331134215 forward_v I I I I #
coedge $-1 $178 $179 $180 $181 reversed $61 $-1 #
coedge $-1 $103 $63 $182 $183 reversed $40 $-1 #
coedge $-1 $63 $102 $178 $184 reversed $40 $-1 #
coedge $-1 $180 $185 $63 $105 forward $175 $-1 #
edge $-1 $186 42.008965359523046 $187 51.136026657834663 $104 $188 forward 7 unknown #
loop $-1 $-1 $111 $64 #
plane-surface $-1 -21.485560600159339 -20.02248278677024 35.412546201347837 0 0.54463904215088732 0.83867056331134215 1 0 0 forward_v I I I I #
loop $-1 $-1 $189 $42 #
coedge $-1 $109 $109 $110 $190 reversed $65 $-1 #
coedge $-1 $110 $110 $109 $190 forward $67 $-1 #
coedge $-1 $111 $111 $68 $112 forward $106 $-1 #
edge $-1 $191 3.7156201107242455e-015 $191 6.283185307179604 $111 $192 forward 7 unknown #
loop $-1 $-1 $118 $69 #
plane-surface $-1 -21.485560600159339 -20.02248278677024 35.412546201347837 0 0.54463904215088732 0.83867056331134215 1 0 0 forward_v I I I I #
loop $-1 $-1 $193 $45 #
coedge $-1 $116 $116 $117 $194 reversed $70 $-1 #
coedge $-1 $117 $117 $116 $194 forward $72 $-1 #
coedge $-1 $118 $118 $73 $119 forward $113 $-1 #
edge $-1 $195 3.7156201107242455e-015 $195 6.283185307179604 $118 $196 forward 7 unknown #
face $-1 $197 $198 $18 $-1 $199 reversed single #
loop $-1 $-1 $200 $74 #
plane-surface $-1 -43.691518906216622 0 0 1 0 0 0 0 -1 forward_v I I I I #
coedge $-1 $201 $131 $202 $203 forward $75 $-1 #
coedge $-1 $204 $77 $201 $205 forward $49 $-1 #
coedge $-1 $77 $204 $206 $207 forward $49 $-1 #
coedge $-1 $134 $133 $77 $127 reversed $135 $-1 #
edge $-1 $208 -29.560412028434015 $209 29.560412028434015 $126 $210 forward 7 unknown #
coedge $-1 $79 $78 $211 $212 forward $31 $-1 #
coedge $-1 $213 $214 $78 $130 reversed $198 $-1 #
edge $-1 $137 -43.691518906216622 $215 43.691518906216622 $129 $216 forward 7 unknown #
coedge $-1 $123 $217 $79 $132 reversed $75 $-1 #
edge $-1 $218 -43.691518906216622 $136 43.691518906216622 $131 $219 forward 7 unknown #
coedge $-1 $126 $80 $217 $220 forward $135 $-1 #
coedge $-1 $80 $126 $213 $221 reversed $135 $-1 #
loop $-1 $-1 $133 $197 #
vertex $-1 $81 $222 #
vertex $-1 $81 $223 #
straight-curve $-1 43.691518906216622 0 12.340098514155718 0 1 0 I I #
face $-1 $224 $225 $19 $-1 $226 forward single #
loop $-1 $-1 $227 $82 #
plane-surface $-1 -43.691518906216622 0 0 1 0 0 0 0 -1 forward_v I I I I #
coedge $-1 $149 $228 $151 $229 forward $83 $-1 #
coedge $-1 $85 $151 $230 $231 reversed $53 $-1 #
coedge $-1 $232 $147 $85 $145 forward $233 $-1 #
edge $-1 $153 2.236466323778175 $234 7.4812435681777538 $144 $235 forward 7 unknown #
coedge $-1 $87 $86 $227 $236 reversed $34 $-1 #
coedge $-1 $144 $237 $86 $148 forward $233 $-1 #
edge $-1 $238 -24.310387860211442 $153 -14.451874231798932 $147 $239 forward 7 unknown #
coedge $-1 $240 $142 $87 $150 forward $83 $-1 #
edge $-1 $152 14.451874231798932 $241 24.310387860211442 $149 $242 forward 7 unknown #
coedge $-1 $143 $88 $142 $229 reversed $53 $-1 #
vertex $-1 $150 $243 #
vertex $-1 $148 $244 #
straight-curve $-1 -33.833005277804119 0 7.0953212697561394 0 -1 0 I I #
face $-1 $245 $246 $20 $-1 $247 reversed single #
loop $-1 $-1 $166 $90 #
plane-surface $-1 0 -29.560412028434015 0 0 1 0 0 0 1 forward_v I I I I #
coedge $-1 $248 $249 $250 $251 reversed $91 $-1 #
coedge $-1 $252 $93 $253 $254 reversed $57 $-1 #
coedge $-1 $93 $252 $255 $256 reversed $57 $-1 #
coedge $-1 $169 $168 $93 $162 forward $170 $-1 #
edge $-1 $257 -29.560412028434015 $258 29.560412028434015 $161 $259 forward 7 unknown #
coedge $-1 $95 $94 $249 $260 forward $37 $-1 #
coedge $-1 $261 $250 $94 $165 forward $246 $-1 #
edge $-1 $262 15.387504666353845 $171 23.998511048693128 $164 $263 forward 7 unknown #
coedge $-1 $264 $265 $95 $167 forward $156 $-1 #
edge $-1 $172 -23.998511048693128 $266 -15.387504666353845 $166 $267 forward 7 unknown #
coedge $-1 $161 $96 $265 $268 forward $170 $-1 #
coedge $-1 $96 $161 $261 $269 reversed $170 $-1 #
loop $-1 $-1 $96 $245 #
vertex $-1 $269 $270 #
vertex $-1 $268 $271 #
straight-curve $-1 43.691518906216622 0 3.1676885520142708 0 -1 0 I I #
face $-1 $-1 $272 $21 $-1 $273 forward single #
loop $-1 $-1 $104 $98 #
plane-surface $-1 0 29.560412028434015 0 0 -1 0 0 0 -1 forward_v I I I I #
coedge $-1 $274 $275 $276 $277 reversed $99 $-1 #
coedge $-1 $278 $101 $103 $184 forward $61 $-1 #
coedge $-1 $101 $278 $274 $279 forward $61 $-1 #
coedge $-1 $276 $104 $101 $181 forward $175 $-1 #
edge $-1 $187 6.0951611309752103 $280 15.390399469184128 $180 $281 forward 7 unknown #
coedge $-1 $282 $283 $102 $183 forward $272 $-1 #
edge $-1 $284 1.7211047605610545 $186 15.775546414619932 $182 $285 forward 7 unknown #
edge $-1 $187 -59.120824056868017 $284 -42.362823634667201 $103 $286 forward 7 unknown #
coedge $-1 $104 $276 $282 $287 reversed $175 $-1 #
vertex $-1 $287 $288 #
vertex $-1 $105 $289 #
straight-curve $-1 -16.83794143105488 29.560412028434015 54.349063873678766 0 0 -1 I I #
coedge $-1 $189 $189 $-1 $290 reversed $108 $-1 #
edge $-1 $291 0 $291 6.2831853071796004 $109 $292 forward 7 unknown #
vertex $-1 $112 $293 #
ellipse-curve $-1 -23.477397386918394 22.533191201404577 7.7765678649999082 0 0.54463904215088732 0.83867056331134215 0.5 0 0 1 I I #
coedge $-1 $193 $193 $-1 $294 reversed $115 $-1 #
edge $-1 $295 0 $295 6.2831853071796004 $116 $296 forward 7 unknown #
vertex $-1 $119 $297 #
ellipse-curve $-1 -19.493723813400287 22.533191201404577 7.7765678649999082 0 0.54463904215088732 0.83867056331134215 0.5 0 0 1 I I #
face $-1 $-1 $135 $18 $-1 $298 reversed single #
loop $-1 $-1 $213 $120 #
plane-surface $-1 0 29.560412028434015 0 0 -1 0 0 0 -1 forward_v I I I I #
coedge $-1 $299 $211 $214 $300 forward $121 $-1 #
coedge $-1 $217 $123 $124 $205 reversed $75 $-1 #
coedge $-1 $211 $299 $123 $203 reversed $121 $-1 #
edge $-1 $218 -12.340098514155718 $301 12.340098514155718 $202 $302 forward 7 unknown #
coedge $-1 $125 $124 $299 $303 forward $49 $-1 #
edge $-1 $209 -43.691518906216622 $301 43.691518906216622 $201 $304 forward 7 unknown #
coedge $-1 $214 $213 $125 $207 reversed $198 $-1 #
edge $-1 $305 -43.691518906216622 $208 43.691518906216622 $206 $306 forward 7 unknown #
vertex $-1 $127 $307 #
vertex $-1 $220 $308 #
straight-curve $-1 43.691518906216622 0 -12.340098514155718 0 -1 0 I I #
coedge $-1 $200 $202 $128 $212 reversed $121 $-1 #
edge $-1 $215 -29.560412028434015 $218 29.560412028434015 $211 $309 forward 7 unknown #
coedge $-1 $206 $129 $134 $221 forward $198 $-1 #
coedge $-1 $129 $206 $200 $300 reversed $198 $-1 #
vertex $-1 $130 $310 #
straight-curve $-1 0 29.560412028434015 12.340098514155718 -1 0 0 I I #
coedge $-1 $131 $201 $133 $220 reversed $75 $-1 #
vertex $-1 $212 $311 #
straight-curve $-1 0 -29.560412028434015 12.340098514155718 1 0 0 I I #
edge $-1 $136 -12.340098514155718 $209 12.340098514155718 $133 $312 forward 7 unknown #
edge $-1 $137 -12.340098514155718 $208 12.340098514155718 $134 $313 forward 7 unknown #
point $-1 43.691518906216622 -29.560412028434015 12.340098514155718 #
point $-1 43.691518906216622 29.560412028434015 12.340098514155718 #
face $-1 $-1 $233 $19 $-1 $314 reversed single #
loop $-1 $-1 $230 $139 #
plane-surface $-1 0 0 12.340098514155718 0 0 1 1 0 0 forward_v I I I I #
coedge $-1 $315 $316 $146 $236 forward $140 $-1 #
coedge $-1 $142 $240 $317 $318 reversed $83 $-1 #
edge $-1 $319 -7.4812435681777538 $152 -2.236466323778175 $142 $320 forward 7 unknown #
coedge $-1 $317 $321 $143 $231 forward $225 $-1 #
edge $-1 $234 -29.560412028434015 $319 29.560412028434015 $230 $322 forward 7 unknown #
coedge $-1 $237 $144 $321 $323 reversed $233 $-1 #
loop $-1 $-1 $144 $224 #
vertex $-1 $145 $324 #
straight-curve $-1 -33.833005277804119 -29.560412028434015 4.8588549459779644 0 0 1 I I #
edge $-1 $241 -29.560412028434015 $238 29.560412028434015 $227 $325 forward 7 unknown #
coedge $-1 $147 $232 $315 $326 forward $233 $-1 #
vertex $-1 $236 $327 #
straight-curve $-1 -19.381131046005187 -29.560412028434015 7.0953212697561394 1 0 0 I I #
coedge $-1 $228 $149 $316 $328 reversed $83 $-1 #
vertex $-1 $236 $329 #
straight-curve $-1 -19.381131046005187 29.560412028434015 7.0953212697561394 -1 0 0 I I #
point $-1 -33.833005277804119 29.560412028434015 7.0953212697561394 #
point $-1 -33.833005277804119 -29.560412028434015 7.0953212697561394 #
face $-1 $-1 $170 $20 $-1 $330 reversed single #
loop $-1 $-1 $164 $155 #
plane-surface $-1 0 29.560412028434015 0 0 -1 0 0 0 -1 forward_v I I I I #
coedge $-1 $331 $158 $252 $332 reversed $91 $-1 #
coedge $-1 $158 $331 $163 $260 reversed $91 $-1 #
coedge $-1 $164 $255 $158 $251 forward $246 $-1 #
edge $-1 $333 -2.4330052298039124 $262 2.9227941112774847 $250 $334 forward 7 unknown #
coedge $-1 $160 $159 $248 $332 forward $57 $-1 #
coedge $-1 $265 $264 $159 $254 forward $156 $-1 #
edge $-1 $335 15.387504666353845 $257 23.998511048693128 $253 $336 forward 7 unknown #
coedge $-1 $250 $261 $160 $256 forward $246 $-1 #
edge $-1 $258 -23.998511048693128 $333 -15.387504666353845 $255 $337 forward 7 unknown #
vertex $-1 $162 $338 #
vertex $-1 $162 $339 #
straight-curve $-1 43.691518906216622 0 -2.1881107890671263 0 1 0 I I #
edge $-1 $262 -29.560412028434015 $266 29.560412028434015 $249 $340 forward 7 unknown #
coedge $-1 $255 $164 $169 $269 forward $246 $-1 #
vertex $-1 $165 $341 #
straight-curve $-1 19.693007857523487 29.560412028434015 3.1676885520142708 1 0 0 I I #
coedge $-1 $253 $166 $331 $342 forward $156 $-1 #
coedge $-1 $166 $253 $168 $268 reversed $156 $-1 #
vertex $-1 $167 $343 #
straight-curve $-1 19.693007857523487 -29.560412028434015 3.1676885520142708 -1 0 0 I I #
edge $-1 $172 -3.1676885520142708 $257 2.1881107890671263 $168 $344 forward 7 unknown #
edge $-1 $171 -3.1676885520142708 $258 2.1881107890671263 $169 $345 forward 7 unknown #
point $-1 43.691518906216615 29.560412028434015 3.1676885520142708 #
point $-1 43.691518906216615 -29.560412028434015 3.1676885520142708 #
loop $-1 $-1 $182 $174 #
plane-surface $-1 0 0 12.340098514155718 0 0 1 1 0 0 forward_v I I I I #
coedge $-1 $275 $177 $179 $279 reversed $99 $-1 #
coedge $-1 $177 $274 $346 $347 reversed $99 $-1 #
coedge $-1 $185 $180 $177 $277 forward $175 $-1 #
edge $-1 $280 -51.136026657834663 $348 -42.008965359523046 $276 $349 forward 7 unknown #
coedge $-1 $179 $178 $283 $350 reversed $61 $-1 #
edge $-1 $351 42.362823634667201 $280 59.120824056868017 $274 $352 forward 7 unknown #
vertex $-1 $181 $353 #
straight-curve $-1 -10.742780300079669 29.560412028434012 3.2130372158440998 -1 0 0 I I #
coedge $-1 $346 $182 $185 $287 forward $272 $-1 #
coedge $-1 $182 $346 $278 $350 forward $272 $-1 #
vertex $-1 $183 $354 #
straight-curve $-1 -16.83794143105488 13.784865613814084 12.34009851415572 0 1 0 I I #
straight-curve $-1 -16.83794143105488 -20.02248278677024 35.412546201347837 0 -0.83867056331134215 0.54463904215088732 I I #
edge $-1 $186 16.83794143105488 $348 26.133179769263798 $185 $355 forward 7 unknown #
point $-1 -16.83794143105488 29.560412028434015 12.340098514155718 #
point $-1 -16.83794143105488 29.560412028434015 3.2130372158441034 #
edge $-1 $356 1 $356 0 $189 $-1 forward 7 unknown #
vertex $-1 $190 $357 #
ellipse-curve $-1 -23.477397386918394 21.988552159253686 6.9378973016885572 0 0.54463904215088732 0.83867056331134215 0.5 0 0 1 I I #
point $-1 -22.977397386918394 22.533191201404573 7.7765678649998993 #
edge $-1 $358 1 $358 0 $193 $-1 forward 7 unknown #
vertex $-1 $194 $359 #
ellipse-curve $-1 -19.493723813400287 21.988552159253686 6.9378973016885572 0 0.54463904215088732 0.83867056331134215 0.5 0 0 1 I I #
point $-1 -18.993723813400287 22.533191201404573 7.7765678649998993 #
plane-surface $-1 43.691518906216622 0 0 -1 0 0 0 0 1 forward_v I I I I #
coedge $-1 $202 $200 $204 $303 reversed $121 $-1 #
edge $-1 $215 -12.340098514155718 $305 12.340098514155718 $214 $360 forward 7 unknown #
vertex $-1 $303 $361 #
straight-curve $-1 -43.691518906216622 -29.560412028434015 0 0 0 -1 I I #
edge $-1 $301 -29.560412028434015 $305 29.560412028434015 $299 $362 forward 7 unknown #
straight-curve $-1 0 -29.560412028434015 -12.340098514155718 -1 0 0 I I #
vertex $-1 $207 $363 #
straight-curve $-1 0 29.560412028434015 -12.340098514155718 1 0 0 I I #
point $-1 43.691518906216622 29.560412028434015 -12.340098514155718 #
point $-1 43.691518906216622 -29.560412028434015 -12.340098514155718 #
straight-curve $-1 -43.691518906216622 0 12.340098514155718 0 -1 0 I I #
point $-1 -43.691518906216622 29.560412028434015 12.340098514155718 #
point $-1 -43.691518906216622 -29.560412028434015 12.340098514155718 #
straight-curve $-1 43.691518906216622 -29.560412028434015 0 0 0 -1 I I #
straight-curve $-1 43.691518906216622 29.560412028434015 0 0 0 -1 I I #
plane-surface $-1 0 -29.560412028434015 0 0 1 0 0 0 1 forward_v I I I I #
coedge $-1 $364 $227 $237 $326 reversed $140 $-1 #
coedge $-1 $227 $364 $240 $328 forward $140 $-1 #
coedge $-1 $365 $230 $228 $318 forward $225 $-1 #
edge $-1 $319 33.833005277804119 $366 43.691518906216622 $228 $367 forward 7 unknown #
vertex $-1 $318 $368 #
straight-curve $-1 -33.833005277804119 29.560412028434015 4.8588549459779644 0 0 -1 I I #
coedge $-1 $230 $365 $232 $323 forward $225 $-1 #
straight-curve $-1 -33.833005277804119 0 12.340098514155718 0 1 0 I I #
edge $-1 $369 -43.691518906216622 $234 -33.833005277804119 $232 $370 forward 7 unknown #
point $-1 -33.833005277804119 -29.560412028434015 12.340098514155718 #
straight-curve $-1 -43.691518906216622 0 7.0953212697561394 0 -1 0 I I #
edge $-1 $369 -12.340098514155718 $238 -7.0953212697561394 $315 $371 forward 7 unknown #
point $-1 -43.691518906216629 -29.560412028434015 7.0953212697561394 #
edge $-1 $366 -12.340098514155718 $241 -7.0953212697561394 $240 $372 forward 7 unknown #
point $-1 -43.691518906216629 29.560412028434015 7.0953212697561394 #
plane-surface $-1 43.691518906216622 0 0 -1 0 0 0 0 1 forward_v I I I I #
coedge $-1 $249 $248 $264 $342 reversed $91 $-1 #
edge $-1 $335 -29.560412028434015 $333 29.560412028434015 $248 $373 forward 7 unknown #
vertex $-1 $256 $374 #
straight-curve $-1 35.080512523877331 29.560412028434015 0.24489444073678612 0 0 1 I I #
vertex $-1 $254 $375 #
straight-curve $-1 19.693007857523487 -29.560412028434015 -2.1881107890671263 1 0 0 I I #
straight-curve $-1 19.693007857523487 29.560412028434015 -2.1881107890671263 -1 0 0 I I #
point $-1 43.691518906216615 -29.560412028434015 -2.1881107890671263 #
point $-1 43.691518906216615 29.560412028434015 -2.1881107890671263 #
straight-curve $-1 35.080512523877331 0 3.1676885520142708 0 -1 0 I I #
point $-1 35.080512523877331 29.560412028434015 3.1676885520142708 #
edge $-1 $266 -2.9227941112774847 $335 2.4330052298039124 $264 $376 forward 7 unknown #
point $-1 35.080512523877331 -29.560412028434015 3.1676885520142708 #
straight-curve $-1 43.691518906216622 -29.560412028434015 0 0 0 -1 I I #
straight-curve $-1 43.691518906216622 29.560412028434015 0 0 0 -1 I I #
coedge $-1 $283 $282 $275 $347 forward $272 $-1 #
edge $-1 $348 -15.775546414619932 $351 -1.7211047605610545 $346 $377 forward 7 unknown #
vertex $-1 $347 $378 #
straight-curve $-1 -26.133179769263798 29.560412028434015 54.349063873678766 0 0 1 I I #
edge $-1 $351 -15.390399469184128 $284 -6.0951611309752103 $283 $379 forward 7 unknown #
vertex $-1 $350 $380 #
straight-curve $-1 -26.133179769263798 -20.02248278677024 35.412546201347837 0 0.83867056331134215 -0.54463904215088732 I I #
point $-1 -26.133179769263798 29.560412028434015 3.2130372158441034 #
point $-1 -16.83794143105488 15.505970374375138 12.34009851415572 #
straight-curve $-1 0 29.560412028434015 12.340098514155718 -1 0 0 I I #
vertex $-1 $290 $381 #
point $-1 -22.977397386918394 21.988552159253686 6.9378973016885572 #
vertex $-1 $294 $382 #
point $-1 -18.993723813400287 21.988552159253686 6.9378973016885572 #
straight-curve $-1 -43.691518906216622 29.560412028434015 0 0 0 -1 I I #
point $-1 -43.691518906216622 -29.560412028434015 -12.340098514155718 #
straight-curve $-1 -43.691518906216622 0 -12.340098514155718 0 1 0 I I #
point $-1 -43.691518906216622 29.560412028434015 -12.340098514155718 #
coedge $-1 $316 $315 $365 $383 reversed $140 $-1 #
coedge $-1 $321 $317 $364 $383 forward $225 $-1 #
vertex $-1 $318 $384 #
straight-curve $-1 0 29.560412028434015 12.340098514155718 -1 0 0 I I #
point $-1 -33.833005277804119 29.560412028434015 12.340098514155718 #
vertex $-1 $383 $385 #
straight-curve $-1 0 -29.560412028434015 12.340098514155718 1 0 0 I I #
straight-curve $-1 -43.691518906216622 -29.560412028434015 0 0 0 -1 I I #
straight-curve $-1 -43.691518906216622 29.560412028434015 0 0 0 -1 I I #
straight-curve $-1 35.080512523877331 0 -2.1881107890671263 0 1 0 I I #
point $-1 35.080512523877331 29.560412028434015 -2.1881107890671263 #
point $-1 35.080512523877331 -29.560412028434015 -2.1881107890671263 #
straight-curve $-1 35.080512523877331 -29.560412028434015 0.24489444073678612 0 0 -1 I I #
straight-curve $-1 -26.133179769263798 13.784865613814084 12.34009851415572 0 -1 0 I I #
point $-1 -26.133179769263798 29.560412028434015 12.340098514155718 #
straight-curve $-1 -10.742780300079669 15.505970374375147 12.340098514155718 1 0 0 I I #
point $-1 -26.133179769263798 15.505970374375138 12.34009851415572 #
point $-1 -23.477397386918394 21.716232638178241 6.5185620200328858 #
point $-1 -19.493723813400287 21.716232638178241 6.5185620200328858 #
edge $-1 $366 -29.560412028434015 $369 29.560412028434015 $364 $386 forward 7 unknown #
point $-1 -43.691518906216622 29.560412028434015 12.340098514155718 #
point $-1 -43.691518906216622 -29.560412028434015 12.340098514155718 #
straight-curve $-1 -43.691518906216622 0 12.340098514155718 0 -1 0 I I #
End-of-ACIS-data 