500 0 10 0           
7 Unknown 11 ACIS 5.0 NT 24 Thu Mar 25 17:23:14 1999 
-1 9.9999999999999995e-007 1e-010 
body $-1 $10 $-1 $11 #
body $-1 $12 $-1 $13 #
body $-1 $14 $-1 $15 #
body $-1 $16 $-1 $17 #
body $-1 $18 $-1 $19 #
body $-1 $20 $-1 $21 #
body $-1 $22 $-1 $23 #
body $-1 $24 $-1 $25 #
body $-1 $26 $-1 $27 #
body $-1 $28 $-1 $29 #
lump $-1 $-1 $30 $0 #
transform $-1 1 0 0 0 1 0 0 0 1 68.68617816705833 36.476601218861418 10.508382596077949 1 rotate no_reflect no_shear #
lump $-1 $-1 $31 $1 #
transform $-1 1 0 0 0 1 0 0 0 1 68.68617816705833 36.476601218861418 10.508382596077949 1 rotate no_reflect no_shear #
lump $-1 $-1 $32 $2 #
transform $-1 1 0 0 0 1 0 0 0 1 68.68617816705833 36.476601218861418 10.508382596077949 1 rotate no_reflect no_shear #
lump $-1 $-1 $33 $3 #
transform $-1 1 0 0 0 1 0 0 0 1 68.68617816705833 36.476601218861418 10.508382596077949 1 rotate no_reflect no_shear #
lump $-1 $-1 $34 $4 #
transform $-1 1 0 0 0 1 0 0 0 1 68.68617816705833 36.476601218861418 10.508382596077949 1 rotate no_reflect no_shear #
lump $-1 $-1 $35 $5 #
transform $-1 1 0 0 0 1 0 0 0 1 68.68617816705833 36.476601218861418 10.508382596077949 1 rotate no_reflect no_shear #
lump $-1 $-1 $36 $6 #
transform $-1 1 0 0 0 1 0 0 0 1 68.68617816705833 36.476601218861418 10.508382596077949 1 rotate no_reflect no_shear #
lump $-1 $-1 $37 $7 #
transform $-1 1 0 0 0 1 0 0 0 1 68.68617816705833 36.476601218861418 10.508382596077949 1 rotate no_reflect no_shear #
lump $-1 $-1 $38 $8 #
transform $-1 1 0 0 0 1 0 0 0 1 68.68617816705833 36.476601218861418 10.508382596077949 1 rotate no_reflect no_shear #
lump $-1 $-1 $39 $9 #
transform $-1 1 0 0 0 1 0 0 0 1 68.68617816705833 36.476601218861418 10.508382596077949 1 rotate no_reflect no_shear #
shell $-1 $-1 $-1 $40 $-1 $10 #
shell $-1 $-1 $-1 $41 $-1 $12 #
shell $-1 $-1 $-1 $42 $-1 $14 #
shell $-1 $-1 $-1 $43 $-1 $16 #
shell $-1 $-1 $-1 $44 $-1 $18 #
shell $-1 $-1 $-1 $45 $-1 $20 #
shell $-1 $-1 $-1 $46 $-1 $22 #
shell $-1 $-1 $-1 $47 $-1 $24 #
shell $-1 $-1 $-1 $48 $-1 $26 #
shell $-1 $-1 $-1 $49 $-1 $28 #
face $-1 $50 $51 $30 $-1 $52 forward single #
face $-1 $53 $54 $31 $-1 $55 reversed single #
face $-1 $56 $57 $32 $-1 $58 reversed single #
face $-1 $59 $60 $33 $-1 $61 reversed single #
face $-1 $62 $63 $34 $-1 $64 forward single #
face $-1 $65 $66 $35 $-1 $67 forward single #
face $-1 $68 $69 $36 $-1 $70 reversed single #
face $-1 $71 $72 $37 $-1 $73 forward single #
face $-1 $74 $75 $38 $-1 $76 reversed single #
face $-1 $77 $78 $39 $-1 $79 forward single #
face $-1 $80 $81 $30 $-1 $82 reversed single #
loop $-1 $-1 $83 $40 #
plane-surface $-1 0 0 10.508382596077949 0 0 1 1 0 0 forward_v I I I I #
face $-1 $84 $85 $31 $-1 $86 reversed single #
loop $-1 $-1 $87 $41 #
plane-surface $-1 -66.57465615250598 -29.320940106129072 0 0 -1 0 0 0 -1 forward_v I I I I #
face $-1 $88 $89 $32 $-1 $90 reversed single #
loop $-1 $-1 $91 $42 #
plane-surface $-1 -66.57465615250598 29.320940106129079 0 0 1 0 0 0 1 forward_v I I I I #
face $-1 $92 $93 $33 $-1 $94 reversed single #
loop $-1 $-1 $95 $43 #
plane-surface $-1 109.07798547500565 -18.191724926369083 196.64688389798172 0 -1 0 -0.83867057594974714 0 -0.54463902268945019 forward_v I I I I #
face $-1 $96 $97 $34 $-1 $98 forward single #
loop $-1 $99 $100 $44 #
cone-surface $-1 66.859473383891597 -26.14116434048336 8.1973725420308803 -0.83867057594974714 0 -0.54463902268945019 0.2723195113447251 0 -0.41933528797487357 1 I I 0 1 0.5 forward I I I I #
face $-1 $101 $102 $35 $-1 $103 forward single #
loop $-1 $104 $105 $45 #
cone-surface $-1 66.859473383891597 -21.371500692014795 8.1973725420308803 -0.83867057594974714 0 -0.54463902268945019 0.2723195113447251 0 -0.41933528797487357 1 I I 0 1 0.5 forward I I I I #
face $-1 $106 $107 $36 $-1 $108 reversed single #
loop $-1 $-1 $109 $46 #
plane-surface $-1 -141.48243712280853 -8.6768773673951749 117.45435611369084 0 1 0 -0.52991927123019833 0 0.84804809178421925 forward_v I I I I #
face $-1 $110 $111 $37 $-1 $112 forward single #
loop $-1 $113 $114 $47 #
cone-surface $-1 -60.392676766578326 -4.3384386836975821 4.6919842364975821 0.52991927123019833 0 -0.84804809178421925 0.84804809178421925 0 0.52991927123019833 1 I I 0 1 1 forward I I I I #
face $-1 $115 $116 $38 $-1 $117 reversed single #
loop $-1 $-1 $118 $48 #
plane-surface $-1 -68.686178167058316 -4.3384386836975892 0.95599146064139973 -0.52991927123019833 0 0.84804809178421925 0.84804809178421925 0 0.52991927123019833 forward_v I I I I #
face $-1 $119 $120 $39 $-1 $121 forward single #
loop $-1 $122 $123 $49 #
cone-surface $-1 -60.392676766578326 4.3384386836975892 4.6919842364975821 0.52991927123019833 0 -0.84804809178421925 0.84804809178421925 0 0.52991927123019833 1 I I 0 1 1 forward I I I I #
face $-1 $124 $125 $30 $-1 $126 reversed single #
loop $-1 $-1 $127 $50 #
plane-surface $-1 0 0 -10.508382596077949 0 0 1 1 0 0 forward_v I I I I #
coedge $-1 $128 $129 $130 $131 forward $51 $-1 #
face $-1 $132 $133 $31 $-1 $134 forward single #
loop $-1 $-1 $135 $53 #
plane-surface $-1 -64.463134137953631 -32.898770662495245 0 -1 0 0 0 0 1 forward_v I I I I #
coedge $-1 $136 $137 $138 $139 forward $54 $-1 #
face $-1 $140 $141 $32 $-1 $142 reversed single #
loop $-1 $-1 $143 $56 #
plane-surface $-1 -64.463134137953631 32.898770662495252 0 -1 0 0 0 0 1 forward_v I I I I #
coedge $-1 $144 $145 $146 $147 reversed $57 $-1 #
face $-1 $148 $149 $33 $-1 $150 reversed single #
loop $-1 $-1 $151 $59 #
plane-surface $-1 -6.1321677313018625 -23.756332516249078 121.82853799962152 0.83867057594974714 0 0.54463902268945019 0.54463902268945019 0 -0.83867057594974714 forward_v I I I I #
coedge $-1 $152 $153 $154 $155 reversed $60 $-1 #
face $-1 $-1 $156 $34 $-1 $157 forward single #
loop $-1 $158 $159 $62 #
cone-surface $-1 66.086197971415828 -26.14116434048336 7.6952016336934168 -0.83867057594974714 0 -0.54463902268945019 0.13615975567236255 0 -0.20966764398743679 1 I I -0.70710678118654746 0.70710678118654746 0.25 forward I I I I #
loop $-1 $-1 $160 $44 #
coedge $-1 $100 $100 $161 $162 reversed $63 $-1 #
face $-1 $-1 $163 $35 $-1 $164 forward single #
loop $-1 $165 $166 $65 #
cone-surface $-1 66.086197971415828 -21.371500692014795 7.6952016336934168 -0.83867057594974714 0 -0.54463902268945019 0.13615975567236255 0 -0.20966764398743679 1 I I -0.70710678118654746 0.70710678118654746 0.25 forward I I I I #
loop $-1 $-1 $167 $45 #
coedge $-1 $105 $105 $168 $169 reversed $66 $-1 #
face $-1 $170 $171 $36 $-1 $172 reversed single #
loop $-1 $-1 $173 $68 #
plane-surface $-1 -68.686178167058316 -4.3384386836975892 0.95599146064139973 -0.52991927123019833 0 0.84804809178421925 0.84804809178421925 0 0.52991927123019833 forward_v I I I I #
coedge $-1 $174 $175 $176 $177 reversed $69 $-1 #
face $-1 $-1 $178 $37 $-1 $179 forward single #
loop $-1 $180 $181 $71 #
cone-surface $-1 -59.47772627462458 -4.3384386836975821 3.2277573987433712 0.52991927123019833 0 -0.84804809178421925 0.42402404589210962 0 0.26495963561509916 1 I I -0.70710678118654746 0.70710678118654746 0.5 forward I I I I #
loop $-1 $-1 $182 $47 #
coedge $-1 $114 $114 $183 $184 reversed $72 $-1 #
face $-1 $185 $186 $38 $-1 $187 forward single #
loop $-1 $-1 $188 $74 #
plane-surface $-1 -141.48243712280853 8.6768773673951678 117.45435611369084 0 -1 0 0.52991927123019833 0 -0.84804809178421925 forward_v I I I I #
coedge $-1 $189 $190 $191 $192 reversed $75 $-1 #
face $-1 $-1 $193 $39 $-1 $194 forward single #
loop $-1 $195 $196 $77 #
cone-surface $-1 -59.47772627462458 4.3384386836975892 3.2277573987433712 0.52991927123019833 0 -0.84804809178421925 0.42402404589210962 0 0.26495963561509916 1 I I -0.70710678118654746 0.70710678118654746 0.5 forward I I I I #
loop $-1 $-1 $197 $49 #
coedge $-1 $123 $123 $198 $199 reversed $78 $-1 #
face $-1 $200 $201 $30 $-1 $202 reversed single #
loop $-1 $-1 $203 $80 #
plane-surface $-1 0 -36.476601218861418 0 0 1 0 0 0 1 forward_v I I I I #
coedge $-1 $204 $205 $206 $207 forward $81 $-1 #
coedge $-1 $208 $83 $209 $210 forward $51 $-1 #
coedge $-1 $83 $208 $211 $212 forward $51 $-1 #
coedge $-1 $213 $214 $83 $131 reversed $215 $-1 #
edge $-1 $216 -36.476601218861418 $217 36.476601218861418 $130 $218 forward 7 unknown #
face $-1 $219 $220 $31 $-1 $221 reversed single #
loop $-1 $-1 $222 $84 #
plane-surface $-1 0 0 10.508382596077949 0 0 1 1 0 0 forward_v I I I I #
coedge $-1 $223 $224 $225 $226 reversed $85 $-1 #
coedge $-1 $227 $87 $228 $229 reversed $54 $-1 #
coedge $-1 $87 $227 $230 $231 reversed $54 $-1 #
coedge $-1 $224 $223 $87 $139 reversed $85 $-1 #
edge $-1 $232 -10.508382596077949 $233 10.508382596077949 $138 $234 forward 7 unknown #
face $-1 $235 $236 $32 $-1 $237 reversed single #
loop $-1 $-1 $238 $88 #
plane-surface $-1 0 0 -10.508382596077949 0 0 1 1 0 0 forward_v I I I I #
coedge $-1 $239 $240 $241 $242 forward $89 $-1 #
coedge $-1 $241 $91 $243 $244 reversed $57 $-1 #
coedge $-1 $91 $241 $245 $246 reversed $57 $-1 #
coedge $-1 $247 $248 $91 $147 forward $236 $-1 #
edge $-1 $249 -10.508382596077949 $250 10.508382596077949 $146 $251 forward 7 unknown #
face $-1 $252 $253 $33 $-1 $254 reversed single #
loop $-1 $-1 $255 $92 #
plane-surface $-1 109.07798547500565 -29.320940106129072 196.64688389798172 0 1 0 0.83867057594974714 0 0.54463902268945019 forward_v I I I I #
coedge $-1 $256 $257 $258 $259 reversed $93 $-1 #
coedge $-1 $153 $95 $260 $261 reversed $60 $-1 #
coedge $-1 $95 $152 $256 $262 reversed $60 $-1 #
coedge $-1 $258 $263 $95 $155 forward $264 $-1 #
edge $-1 $265 -14.147185429555506 $266 -11.620991400198733 $154 $267 forward 7 unknown #
loop $-1 $-1 $161 $96 #
plane-surface $-1 -6.1321677313018625 -23.756332516249078 121.82853799962152 0.83867057594974714 0 0.54463902268945019 0.54463902268945019 0 -0.83867057594974714 forward_v I I I I #
loop $-1 $-1 $268 $62 #
coedge $-1 $159 $159 $160 $269 reversed $97 $-1 #
coedge $-1 $160 $160 $159 $269 forward $99 $-1 #
coedge $-1 $161 $161 $100 $162 forward $156 $-1 #
edge $-1 $270 0 $270 6.2831853071796004 $161 $271 forward 7 unknown #
loop $-1 $-1 $168 $101 #
plane-surface $-1 -6.1321677313018625 -23.756332516249078 121.82853799962152 0.83867057594974714 0 0.54463902268945019 0.54463902268945019 0 -0.83867057594974714 forward_v I I I I #
loop $-1 $-1 $272 $65 #
coedge $-1 $166 $166 $167 $273 reversed $102 $-1 #
coedge $-1 $167 $167 $166 $273 forward $104 $-1 #
coedge $-1 $168 $168 $105 $169 forward $163 $-1 #
edge $-1 $274 0 $274 6.2831853071796004 $168 $275 forward 7 unknown #
face $-1 $276 $277 $36 $-1 $278 forward single #
loop $-1 $-1 $279 $106 #
plane-surface $-1 -141.48243712280853 -3.5527136788005009e-015 117.45435611369084 0 -1 0 0.52991927123019833 0 -0.84804809178421925 forward_v I I I I #
coedge $-1 $280 $281 $282 $283 reversed $107 $-1 #
coedge $-1 $175 $109 $284 $285 reversed $69 $-1 #
coedge $-1 $109 $174 $280 $286 reversed $69 $-1 #
coedge $-1 $282 $287 $109 $177 forward $277 $-1 #
edge $-1 $288 2.0550403943459372 $289 17.342061482628679 $176 $290 forward 7 unknown #
loop $-1 $-1 $183 $110 #
plane-surface $-1 -68.686178167058316 -4.3384386836975892 0.95599146064139973 -0.52991927123019833 0 0.84804809178421925 0.84804809178421925 0 0.52991927123019833 forward_v I I I I #
loop $-1 $-1 $291 $71 #
coedge $-1 $181 $181 $182 $292 reversed $111 $-1 #
coedge $-1 $182 $182 $181 $292 forward $113 $-1 #
coedge $-1 $183 $183 $114 $184 forward $178 $-1 #
edge $-1 $293 0 $293 6.2831853071796004 $183 $294 forward 7 unknown #
face $-1 $295 $296 $38 $-1 $297 forward single #
loop $-1 $-1 $298 $115 #
plane-surface $-1 0 0 10.508382596077949 0 0 1 1 0 0 forward_v I I I I #
coedge $-1 $299 $300 $301 $302 reversed $116 $-1 #
coedge $-1 $303 $118 $304 $305 reversed $75 $-1 #
coedge $-1 $118 $303 $298 $306 reversed $75 $-1 #
coedge $-1 $307 $308 $118 $192 forward $296 $-1 #
edge $-1 $309 -1.675811683274863e-014 $310 18.026125211979629 $191 $311 forward 7 unknown #
loop $-1 $-1 $198 $119 #
plane-surface $-1 -68.686178167058316 -4.3384386836975892 0.95599146064139973 -0.52991927123019833 0 0.84804809178421925 0.84804809178421925 0 0.52991927123019833 forward_v I I I I #
loop $-1 $-1 $312 $77 #
coedge $-1 $196 $196 $197 $313 reversed $120 $-1 #
coedge $-1 $197 $197 $196 $313 forward $122 $-1 #
coedge $-1 $198 $198 $123 $199 forward $193 $-1 #
edge $-1 $314 0 $314 6.2831853071796004 $198 $315 forward 7 unknown #
face $-1 $316 $317 $30 $-1 $318 reversed single #
loop $-1 $-1 $319 $124 #
plane-surface $-1 -68.68617816705833 0 0 1 0 0 0 0 -1 forward_v I I I I #
coedge $-1 $320 $211 $321 $322 forward $125 $-1 #
coedge $-1 $323 $127 $320 $324 forward $81 $-1 #
coedge $-1 $127 $323 $325 $326 forward $81 $-1 #
coedge $-1 $214 $213 $127 $207 reversed $215 $-1 #
edge $-1 $327 -36.476601218861418 $328 36.476601218861418 $206 $329 forward 7 unknown #
coedge $-1 $129 $128 $330 $331 forward $51 $-1 #
coedge $-1 $332 $333 $128 $210 reversed $317 $-1 #
edge $-1 $217 -68.68617816705833 $334 68.68617816705833 $209 $335 forward 7 unknown #
coedge $-1 $203 $336 $129 $212 reversed $125 $-1 #
edge $-1 $337 -68.68617816705833 $216 68.68617816705833 $211 $338 forward 7 unknown #
coedge $-1 $206 $130 $336 $339 forward $215 $-1 #
coedge $-1 $130 $206 $332 $340 reversed $215 $-1 #
loop $-1 $-1 $213 $316 #
vertex $-1 $131 $341 #
vertex $-1 $131 $342 #
straight-curve $-1 68.68617816705833 0 10.508382596077949 0 1 0 I I #
face $-1 $343 $344 $31 $-1 $345 reversed single #
loop $-1 $-1 $346 $132 #
plane-surface $-1 -68.68617816705833 0 0 1 0 0 0 0 -1 forward_v I I I I #
coedge $-1 $230 $347 $224 $348 forward $133 $-1 #
coedge $-1 $138 $135 $349 $350 reversed $85 $-1 #
coedge $-1 $135 $138 $222 $348 reversed $85 $-1 #
coedge $-1 $351 $352 $135 $226 forward $353 $-1 #
edge $-1 $354 -10.508382596077949 $355 10.508382596077949 $225 $356 forward 7 unknown #
coedge $-1 $137 $136 $346 $357 reversed $54 $-1 #
coedge $-1 $349 $358 $136 $229 forward $344 $-1 #
edge $-1 $359 -35.39885009080534 $233 -31.175806061700641 $228 $360 forward 7 unknown #
coedge $-1 $361 $222 $137 $231 forward $133 $-1 #
edge $-1 $232 31.175806061700641 $362 35.39885009080534 $230 $363 forward 7 unknown #
vertex $-1 $231 $364 #
vertex $-1 $229 $365 #
straight-curve $-1 -64.463134137953631 -29.320940106129072 0 0 0 -1 I I #
face $-1 $366 $367 $32 $-1 $368 forward single #
loop $-1 $-1 $146 $140 #
plane-surface $-1 -68.68617816705833 0 0 1 0 0 0 0 -1 forward_v I I I I #
coedge $-1 $243 $369 $239 $370 forward $141 $-1 #
coedge $-1 $371 $143 $238 $370 reversed $89 $-1 #
coedge $-1 $143 $371 $372 $373 reversed $89 $-1 #
coedge $-1 $145 $144 $143 $242 reversed $57 $-1 #
edge $-1 $374 -10.508382596077949 $375 10.508382596077949 $143 $376 forward 7 unknown #
coedge $-1 $377 $238 $144 $244 forward $141 $-1 #
edge $-1 $375 31.175806061700641 $249 35.39885009080534 $243 $378 forward 7 unknown #
coedge $-1 $372 $379 $145 $246 forward $367 $-1 #
edge $-1 $250 -35.39885009080534 $374 -31.175806061700641 $245 $380 forward 7 unknown #
coedge $-1 $381 $146 $379 $382 reversed $236 $-1 #
coedge $-1 $146 $381 $377 $383 reversed $236 $-1 #
vertex $-1 $383 $384 #
vertex $-1 $147 $385 #
straight-curve $-1 -68.68617816705833 29.320940106129079 0 0 0 1 I I #
face $-1 $-1 $264 $33 $-1 $386 forward single #
loop $-1 $-1 $387 $148 #
plane-surface $-1 68.68617816705833 0 0 -1 0 0 0 0 1 forward_v I I I I #
coedge $-1 $388 $389 $390 $391 reversed $149 $-1 #
coedge $-1 $392 $151 $153 $262 forward $93 $-1 #
coedge $-1 $151 $392 $388 $393 forward $93 $-1 #
coedge $-1 $390 $154 $151 $259 forward $264 $-1 #
edge $-1 $266 6.3135586682445446 $394 17.442773848004535 $258 $395 forward 7 unknown #
coedge $-1 $396 $397 $152 $261 forward $253 $-1 #
edge $-1 $398 -91.70505715567684 $265 -87.815059352912911 $260 $399 forward 7 unknown #
edge $-1 $266 132.73406578915657 $398 137.37235633411666 $153 $400 forward 7 unknown #
coedge $-1 $154 $390 $396 $401 forward $264 $-1 #
loop $-1 $-1 $390 $252 #
vertex $-1 $261 $402 #
vertex $-1 $155 $403 #
straight-curve $-1 54.538992737502824 -18.191724926369083 10.508382596077951 -1 0 0 I I #
coedge $-1 $268 $268 $-1 $404 reversed $158 $-1 #
edge $-1 $405 0 $405 6.2831853071796004 $159 $406 forward 7 unknown #
vertex $-1 $162 $407 #
ellipse-curve $-1 67.42308115237995 -26.14116434048336 8.563383694695986 0.83867057594974714 0 0.54463902268945019 0.2723195113447251 0 -0.41933528797487357 1 I I #
coedge $-1 $272 $272 $-1 $408 reversed $165 $-1 #
edge $-1 $409 0 $409 6.2831853071796004 $166 $410 forward 7 unknown #
vertex $-1 $169 $411 #
ellipse-curve $-1 67.42308115237995 -21.371500692014795 8.563383694695986 0.83867057594974714 0 0.54463902268945019 0.2723195113447251 0 -0.41933528797487357 1 I I #
face $-1 $-1 $412 $36 $-1 $413 reversed single #
loop $-1 $-1 $176 $170 #
plane-surface $-1 0 0 10.508382596077949 0 0 1 1 0 0 forward_v I I I I #
coedge $-1 $414 $415 $416 $417 reversed $171 $-1 #
coedge $-1 $418 $173 $175 $286 forward $107 $-1 #
coedge $-1 $173 $418 $414 $419 forward $107 $-1 #
coedge $-1 $416 $176 $173 $283 forward $277 $-1 #
edge $-1 $289 -6.5076580255463803 $420 2.1692193418487911 $282 $421 forward 7 unknown #
coedge $-1 $422 $423 $174 $285 forward $412 $-1 #
edge $-1 $424 -57.771186596204025 $288 -48.218795460767467 $284 $425 forward 7 unknown #
edge $-1 $289 -18.026125211979629 $424 1.675811683274863e-014 $175 $426 forward 7 unknown #
coedge $-1 $176 $416 $422 $427 forward $277 $-1 #
vertex $-1 $177 $428 #
vertex $-1 $177 $429 #
straight-curve $-1 -70.741218561404267 -8.6768773673951749 10.508382596077951 1 0 0 I I #
coedge $-1 $291 $291 $-1 $430 reversed $180 $-1 #
edge $-1 $431 0 $431 6.2831853071796004 $181 $432 forward 7 unknown #
vertex $-1 $184 $433 #
ellipse-curve $-1 -61.042667622916966 -4.3384386836975821 5.7321870283596663 -0.52991927123019833 0 0.84804809178421925 0.84804809178421925 0 0.52991927123019833 1 I I #
face $-1 $-1 $434 $38 $-1 $435 reversed single #
loop $-1 $-1 $307 $185 #
plane-surface $-1 -141.48243712280853 -3.5527136788005009e-015 117.45435611369084 0 -1 0 0.52991927123019833 0 -0.84804809178421925 forward_v I I I I #
coedge $-1 $301 $436 $190 $306 forward $186 $-1 #
coedge $-1 $300 $188 $303 $437 reversed $116 $-1 #
coedge $-1 $188 $299 $438 $439 reversed $116 $-1 #
coedge $-1 $440 $298 $188 $302 forward $186 $-1 #
edge $-1 $441 -17.342061482628679 $442 -2.0550403943459372 $301 $443 forward 7 unknown #
coedge $-1 $190 $189 $299 $437 forward $75 $-1 #
coedge $-1 $444 $438 $189 $305 forward $434 $-1 #
edge $-1 $445 -10.846096709243962 $309 -2.1692193418487911 $304 $446 forward 7 unknown #
edge $-1 $310 2.1692193418487911 $441 10.846096709243962 $298 $447 forward 7 unknown #
coedge $-1 $308 $191 $436 $448 reversed $296 $-1 #
coedge $-1 $191 $307 $444 $449 reversed $296 $-1 #
vertex $-1 $305 $450 #
vertex $-1 $306 $451 #
straight-curve $-1 -68.686178167058316 -3.5527136788005009e-015 0.95599146064139973 0.84804809178421925 0 0.52991927123019833 I I #
coedge $-1 $312 $312 $-1 $452 reversed $195 $-1 #
edge $-1 $453 0 $453 6.2831853071796004 $196 $454 forward 7 unknown #
vertex $-1 $199 $455 #
ellipse-curve $-1 -61.042667622916966 4.3384386836975892 5.7321870283596663 -0.52991927123019833 0 0.84804809178421925 0.84804809178421925 0 0.52991927123019833 1 I I #
face $-1 $-1 $215 $30 $-1 $456 reversed single #
loop $-1 $-1 $332 $200 #
plane-surface $-1 0 36.476601218861418 0 0 -1 0 0 0 -1 forward_v I I I I #
coedge $-1 $457 $330 $333 $458 forward $201 $-1 #
coedge $-1 $336 $203 $204 $324 reversed $125 $-1 #
coedge $-1 $330 $457 $203 $322 reversed $201 $-1 #
edge $-1 $337 -10.508382596077949 $459 10.508382596077949 $321 $460 forward 7 unknown #
coedge $-1 $205 $204 $457 $461 forward $81 $-1 #
edge $-1 $328 -68.68617816705833 $459 68.68617816705833 $320 $462 forward 7 unknown #
coedge $-1 $333 $332 $205 $326 reversed $317 $-1 #
edge $-1 $463 -68.68617816705833 $327 68.68617816705833 $325 $464 forward 7 unknown #
vertex $-1 $207 $465 #
vertex $-1 $339 $466 #
straight-curve $-1 68.68617816705833 0 -10.508382596077949 0 -1 0 I I #
coedge $-1 $319 $321 $208 $331 reversed $201 $-1 #
edge $-1 $334 -36.476601218861418 $337 36.476601218861418 $330 $467 forward 7 unknown #
coedge $-1 $325 $209 $214 $340 forward $317 $-1 #
coedge $-1 $209 $325 $319 $458 reversed $317 $-1 #
vertex $-1 $210 $468 #
straight-curve $-1 0 36.476601218861418 10.508382596077949 -1 0 0 I I #
coedge $-1 $211 $320 $213 $339 reversed $125 $-1 #
vertex $-1 $331 $469 #
straight-curve $-1 0 -36.476601218861418 10.508382596077949 1 0 0 I I #
edge $-1 $216 -10.508382596077949 $328 10.508382596077949 $213 $470 forward 7 unknown #
edge $-1 $217 -10.508382596077949 $327 10.508382596077949 $214 $471 forward 7 unknown #
point $-1 68.68617816705833 -36.476601218861418 10.508382596077949 #
point $-1 68.68617816705833 36.476601218861418 10.508382596077949 #
face $-1 $-1 $353 $31 $-1 $472 reversed single #
loop $-1 $-1 $349 $219 #
plane-surface $-1 0 0 -10.508382596077949 0 0 1 1 0 0 forward_v I I I I #
coedge $-1 $473 $474 $227 $357 forward $220 $-1 #
coedge $-1 $222 $361 $351 $475 forward $133 $-1 #
edge $-1 $355 -20.027215887613796 $232 -12.871554774881449 $222 $476 forward 7 unknown #
coedge $-1 $477 $228 $223 $350 forward $344 $-1 #
edge $-1 $233 12.871554774881449 $354 20.027215887613796 $349 $478 forward 7 unknown #
coedge $-1 $479 $225 $347 $475 reversed $353 $-1 #
coedge $-1 $225 $479 $477 $480 reversed $353 $-1 #
loop $-1 $-1 $225 $343 #
vertex $-1 $480 $481 #
vertex $-1 $226 $482 #
straight-curve $-1 -64.463134137953631 -36.476601218861418 0 0 0 1 I I #
edge $-1 $362 -10.508382596077949 $359 10.508382596077949 $346 $483 forward 7 unknown #
coedge $-1 $228 $477 $473 $484 forward $344 $-1 #
vertex $-1 $229 $485 #
straight-curve $-1 -33.28732807625299 -29.320940106129072 -10.508382596077949 1 0 0 I I #
coedge $-1 $347 $230 $474 $486 forward $133 $-1 #
vertex $-1 $486 $487 #
straight-curve $-1 -33.28732807625299 -29.320940106129072 10.508382596077949 -1 0 0 I I #
point $-1 -64.463134137953631 -29.320940106129072 10.508382596077949 #
point $-1 -64.463134137953631 -29.320940106129072 -10.508382596077949 #
face $-1 $-1 $488 $32 $-1 $489 reversed single #
loop $-1 $-1 $372 $235 #
plane-surface $-1 0 0 10.508382596077949 0 0 1 1 0 0 forward_v I I I I #
coedge $-1 $238 $377 $490 $491 forward $141 $-1 #
edge $-1 $492 -20.027215887613799 $375 -12.871554774881453 $238 $493 forward 7 unknown #
coedge $-1 $240 $239 $494 $495 reversed $89 $-1 #
coedge $-1 $496 $245 $240 $373 forward $367 $-1 #
edge $-1 $374 12.871554774881453 $497 20.027215887613799 $372 $498 forward 7 unknown #
vertex $-1 $246 $499 #
vertex $-1 $244 $500 #
straight-curve $-1 -64.463134137953631 29.320940106129079 0 0 0 -1 I I #
coedge $-1 $369 $243 $248 $383 forward $141 $-1 #
straight-curve $-1 -33.28732807625299 29.320940106129079 -10.508382596077949 -1 0 0 I I #
coedge $-1 $245 $496 $247 $382 forward $367 $-1 #
straight-curve $-1 -33.28732807625299 29.320940106129079 10.508382596077949 1 0 0 I I #
coedge $-1 $248 $247 $501 $502 forward $236 $-1 #
edge $-1 $503 -36.476601218861418 $250 -29.320940106129079 $247 $504 forward 7 unknown #
edge $-1 $249 29.320940106129079 $505 36.476601218861418 $248 $506 forward 7 unknown #
point $-1 -68.68617816705833 29.320940106129079 -10.508382596077949 #
point $-1 -68.68617816705833 29.320940106129079 10.508382596077949 #
plane-surface $-1 0 0 10.508382596077949 0 0 1 1 0 0 forward_v I I I I #
coedge $-1 $397 $396 $389 $507 forward $253 $-1 #
coedge $-1 $389 $255 $257 $393 reversed $149 $-1 #
coedge $-1 $255 $388 $387 $507 reversed $149 $-1 #
coedge $-1 $263 $258 $255 $391 forward $264 $-1 #
edge $-1 $394 11.620991400198733 $508 14.147185429555506 $390 $509 forward 7 unknown #
coedge $-1 $257 $256 $397 $510 reversed $93 $-1 #
edge $-1 $511 -137.37235633411666 $394 -132.73406578915657 $388 $512 forward 7 unknown #
vertex $-1 $259 $513 #
straight-curve $-1 66.159984137701557 -11.878166258124539 10.508382596077951 0 -1 0 I I #
coedge $-1 $387 $260 $263 $401 reversed $253 $-1 #
coedge $-1 $260 $387 $392 $510 forward $253 $-1 #
vertex $-1 $261 $514 #
straight-curve $-1 68.68617816705833 -18.191724926369083 98.323441948990862 0 0 1 I I #
straight-curve $-1 -6.1321677313018625 -18.191724926369083 121.82853799962152 0.54463902268945019 0 -0.83867057594974714 I I #
edge $-1 $508 -29.320940106129072 $265 -18.191724926369083 $396 $515 forward 7 unknown #
point $-1 68.68617816705833 -18.191724926369083 10.508382596077949 #
point $-1 66.159984137701557 -18.191724926369083 10.508382596077951 #
edge $-1 $516 1 $516 0 $268 $-1 forward 7 unknown #
vertex $-1 $269 $517 #
ellipse-curve $-1 66.295865615403258 -26.14116434048336 7.831361389365779 0.83867057594974714 0 0.54463902268945019 0.2723195113447251 0 -0.41933528797487357 1 I I #
point $-1 67.695400663724669 -26.14116434048336 8.1440484067211081 #
edge $-1 $518 1 $518 0 $272 $-1 forward 7 unknown #
vertex $-1 $273 $519 #
ellipse-curve $-1 66.295865615403258 -21.371500692014795 7.831361389365779 0.83867057594974714 0 0.54463902268945019 0.2723195113447251 0 -0.41933528797487357 1 I I #
point $-1 67.695400663724669 -21.371500692014795 8.1440484067211081 #
loop $-1 $-1 $284 $276 #
plane-surface $-1 -68.68617816705833 0 0 1 0 0 0 0 -1 forward_v I I I I #
coedge $-1 $415 $279 $281 $419 reversed $171 $-1 #
coedge $-1 $279 $414 $520 $521 reversed $171 $-1 #
coedge $-1 $287 $282 $279 $417 forward $277 $-1 #
edge $-1 $420 -17.342061482628679 $522 -2.0550403943459372 $416 $523 forward 7 unknown #
coedge $-1 $281 $280 $423 $524 reversed $107 $-1 #
edge $-1 $525 -1.675811683274863e-014 $420 18.026125211979629 $414 $526 forward 7 unknown #
vertex $-1 $283 $527 #
straight-curve $-1 -53.399157078775595 -2.1692193418487946 10.508382596077947 0 1 0 I I #
coedge $-1 $520 $284 $287 $427 reversed $412 $-1 #
coedge $-1 $284 $520 $418 $524 forward $412 $-1 #
vertex $-1 $285 $528 #
straight-curve $-1 -68.68617816705833 -8.6768773673951749 58.727178056845418 0 0 1 I I #
straight-curve $-1 -68.686178167058316 -8.6768773673951749 0.95599146064139973 -0.84804809178421925 0 -0.52991927123019833 I I #
edge $-1 $522 3.5527136788005009e-015 $288 8.6768773673951749 $422 $529 forward 7 unknown #
point $-1 -68.68617816705833 -8.6768773673951749 10.508382596077949 #
point $-1 -53.399157078775588 -8.6768773673951749 10.508382596077949 #
edge $-1 $530 1 $530 0 $291 $-1 forward 7 unknown #
vertex $-1 $292 $531 #
ellipse-curve $-1 -59.742685910239679 -4.3384386836975821 3.651781444635481 -0.52991927123019833 0 0.84804809178421925 0.84804809178421925 0 0.52991927123019833 1 I I #
point $-1 -60.194619531132759 -4.3384386836975821 6.2621062995898811 #
loop $-1 $-1 $304 $295 #
plane-surface $-1 -68.68617816705833 0 0 1 0 0 0 0 -1 forward_v I I I I #
coedge $-1 $298 $440 $307 $448 forward $186 $-1 #
edge $-1 $445 -1.675811683274863e-014 $441 18.026125211979629 $299 $532 forward 7 unknown #
coedge $-1 $304 $533 $300 $439 forward $434 $-1 #
edge $-1 $442 48.218795460767467 $445 57.771186596204025 $438 $534 forward 7 unknown #
coedge $-1 $436 $301 $533 $535 forward $186 $-1 #
vertex $-1 $302 $536 #
vertex $-1 $535 $537 #
straight-curve $-1 -70.741218561404267 8.6768773673951678 10.508382596077951 -1 0 0 I I #
coedge $-1 $533 $304 $308 $449 forward $434 $-1 #
vertex $-1 $439 $538 #
straight-curve $-1 -68.68617816705833 -2.1692193418487946 0.95599146064139262 0 -1 0 I I #
straight-curve $-1 -53.399157078775595 -2.1692193418487946 10.508382596077947 0 1 0 I I #
edge $-1 $539 2.0550403943459372 $310 17.342061482628679 $436 $540 forward 7 unknown #
edge $-1 $309 -57.771186596204025 $539 -48.218795460767467 $444 $541 forward 7 unknown #
point $-1 -68.68617816705833 -3.5527136788005009e-015 0.95599146064139084 #
point $-1 -53.399157078775588 -3.5527136788005009e-015 10.508382596077949 #
edge $-1 $542 1 $542 0 $312 $-1 forward 7 unknown #
vertex $-1 $313 $543 #
ellipse-curve $-1 -59.742685910239679 4.3384386836975892 3.651781444635481 -0.52991927123019833 0 0.84804809178421925 0.84804809178421925 0 0.52991927123019833 1 I I #
point $-1 -60.194619531132759 4.3384386836975892 6.2621062995898811 #
plane-surface $-1 68.68617816705833 0 0 -1 0 0 0 0 1 forward_v I I I I #
coedge $-1 $321 $319 $323 $461 reversed $201 $-1 #
edge $-1 $334 -10.508382596077949 $463 10.508382596077949 $333 $544 forward 7 unknown #
vertex $-1 $461 $545 #
straight-curve $-1 -68.68617816705833 -36.476601218861418 0 0 0 -1 I I #
edge $-1 $459 -36.476601218861418 $463 36.476601218861418 $457 $546 forward 7 unknown #
straight-curve $-1 0 -36.476601218861418 -10.508382596077949 -1 0 0 I I #
vertex $-1 $326 $547 #
straight-curve $-1 0 36.476601218861418 -10.508382596077949 1 0 0 I I #
point $-1 68.68617816705833 36.476601218861418 -10.508382596077949 #
point $-1 68.68617816705833 -36.476601218861418 -10.508382596077949 #
straight-curve $-1 -68.68617816705833 0 10.508382596077949 0 -1 0 I I #
point $-1 -68.68617816705833 36.476601218861418 10.508382596077949 #
point $-1 -68.68617816705833 -36.476601218861418 10.508382596077949 #
straight-curve $-1 68.68617816705833 -36.476601218861418 0 0 0 -1 I I #
straight-curve $-1 68.68617816705833 36.476601218861418 0 0 0 -1 I I #
plane-surface $-1 0 -36.476601218861418 0 0 1 0 0 0 1 forward_v I I I I #
coedge $-1 $548 $346 $358 $484 reversed $220 $-1 #
coedge $-1 $346 $548 $361 $486 reversed $220 $-1 #
edge $-1 $549 -68.68617816705833 $355 -64.463134137953631 $351 $550 forward 7 unknown #
straight-curve $-1 -64.463134137953631 -16.449385331247623 10.508382596077949 0 1 0 I I #
coedge $-1 $358 $349 $352 $480 forward $344 $-1 #
straight-curve $-1 -64.463134137953631 -16.449385331247623 -10.508382596077949 0 -1 0 I I #
coedge $-1 $352 $351 $548 $551 forward $353 $-1 #
edge $-1 $354 64.463134137953631 $552 68.68617816705833 $352 $553 forward 7 unknown #
point $-1 -64.463134137953631 -36.476601218861418 -10.508382596077949 #
point $-1 -64.463134137953631 -36.476601218861418 10.508382596077949 #
straight-curve $-1 -68.68617816705833 -29.320940106129072 0 0 0 -1 I I #
edge $-1 $552 -36.476601218861418 $359 -29.320940106129072 $473 $554 forward 7 unknown #
point $-1 -68.68617816705833 -29.320940106129072 -10.508382596077949 #
edge $-1 $362 29.320940106129072 $549 36.476601218861418 $474 $555 forward 7 unknown #
point $-1 -68.68617816705833 -29.320940106129072 10.508382596077949 #
loop $-1 $-1 $494 $366 #
plane-surface $-1 0 36.476601218861418 0 0 -1 0 0 0 -1 forward_v I I I I #
coedge $-1 $501 $494 $369 $491 reversed $488 $-1 #
edge $-1 $505 -68.68617816705833 $492 -64.463134137953631 $490 $556 forward 7 unknown #
vertex $-1 $370 $557 #
straight-curve $-1 -64.463134137953631 16.449385331247626 -10.508382596077949 0 -1 0 I I #
coedge $-1 $490 $558 $371 $495 forward $488 $-1 #
edge $-1 $497 -10.508382596077949 $492 10.508382596077949 $494 $559 forward 7 unknown #
coedge $-1 $379 $372 $558 $560 forward $367 $-1 #
vertex $-1 $560 $561 #
straight-curve $-1 -64.463134137953631 16.449385331247626 10.508382596077949 0 1 0 I I #
point $-1 -64.463134137953631 29.320940106129079 10.508382596077949 #
point $-1 -64.463134137953631 29.320940106129079 -10.508382596077949 #
coedge $-1 $558 $490 $381 $502 reversed $488 $-1 #
edge $-1 $503 -10.508382596077949 $505 10.508382596077949 $501 $562 forward 7 unknown #
vertex $-1 $560 $563 #
straight-curve $-1 -68.68617816705833 0 10.508382596077949 0 -1 0 I I #
vertex $-1 $491 $564 #
straight-curve $-1 -68.68617816705833 0 -10.508382596077949 0 1 0 I I #
edge $-1 $508 87.815059352912911 $511 91.70505715567684 $387 $565 forward 7 unknown #
vertex $-1 $401 $566 #
straight-curve $-1 54.538992737502824 -29.320940106129072 10.508382596077951 1 0 0 I I #
edge $-1 $511 -17.442773848004535 $398 -6.3135586682445446 $397 $567 forward 7 unknown #
vertex $-1 $510 $568 #
straight-curve $-1 -6.1321677313018625 -29.320940106129072 121.82853799962152 -0.54463902268945019 0 0.83867057594974714 I I #
point $-1 66.159984137701557 -29.320940106129072 10.508382596077951 #
point $-1 68.686178167058316 -18.191724926369083 6.6183847933140214 #
straight-curve $-1 68.68617816705833 0 10.508382596077949 0 1 0 I I #
vertex $-1 $404 $569 #
point $-1 66.568185126747991 -26.14116434048336 7.4120261013909055 #
vertex $-1 $408 $570 #
point $-1 66.568185126747991 -21.371500692014795 7.4120261013909055 #
coedge $-1 $423 $422 $415 $521 forward $412 $-1 #
edge $-1 $522 48.218795460767467 $525 57.771186596204025 $520 $571 forward 7 unknown #
vertex $-1 $427 $572 #
straight-curve $-1 -70.741218561404267 -3.5527136788005009e-015 10.508382596077951 -1 0 0 I I #
edge $-1 $525 -2.1692193418487911 $424 6.5076580255463803 $423 $573 forward 7 unknown #
vertex $-1 $524 $574 #
straight-curve $-1 -68.686178167058316 -3.5527136788005009e-015 0.95599146064139973 0.84804809178421925 0 0.52991927123019833 I I #
point $-1 -53.399157078775588 -3.5527136788005009e-015 10.508382596077949 #
point $-1 -68.68617816705833 -8.6768773673951749 0.95599146064139084 #
straight-curve $-1 -68.68617816705833 0 10.508382596077949 0 -1 0 I I #
vertex $-1 $430 $575 #
point $-1 -58.894637818455458 -4.3384386836975821 4.1817007158656789 #
straight-curve $-1 -68.686178167058316 8.6768773673951678 0.95599146064139973 0.84804809178421925 0 0.52991927123019833 I I #
coedge $-1 $438 $444 $440 $535 reversed $434 $-1 #
straight-curve $-1 -68.68617816705833 8.6768773673951678 58.727178056845418 0 0 -1 I I #
edge $-1 $442 -8.6768773673951678 $539 3.5527136788005009e-015 $533 $576 forward 7 unknown #
point $-1 -53.399157078775588 8.6768773673951678 10.508382596077949 #
point $-1 -68.68617816705833 8.6768773673951678 10.508382596077949 #
point $-1 -68.68617816705833 8.6768773673951678 0.95599146064139084 #
vertex $-1 $449 $577 #
straight-curve $-1 -70.741218561404267 -3.5527136788005009e-015 10.508382596077951 1 0 0 I I #
straight-curve $-1 -68.68617816705833 -3.5527136788005009e-015 58.727178056845418 0 0 1 I I #
vertex $-1 $452 $578 #
point $-1 -58.894637818455458 4.3384386836975892 4.1817007158656789 #
straight-curve $-1 -68.68617816705833 36.476601218861418 0 0 0 -1 I I #
point $-1 -68.68617816705833 -36.476601218861418 -10.508382596077949 #
straight-curve $-1 -68.68617816705833 0 -10.508382596077949 0 1 0 I I #
point $-1 -68.68617816705833 36.476601218861418 -10.508382596077949 #
coedge $-1 $474 $473 $479 $551 reversed $220 $-1 #
vertex $-1 $486 $579 #
straight-curve $-1 0 -36.476601218861418 10.508382596077949 1 0 0 I I #
edge $-1 $549 -10.508382596077949 $552 10.508382596077949 $548 $580 forward 7 unknown #
vertex $-1 $484 $581 #
straight-curve $-1 0 -36.476601218861418 -10.508382596077949 -1 0 0 I I #
straight-curve $-1 -68.68617816705833 0 -10.508382596077949 0 1 0 I I #
straight-curve $-1 -68.68617816705833 0 10.508382596077949 0 -1 0 I I #
straight-curve $-1 0 36.476601218861418 -10.508382596077949 1 0 0 I I #
point $-1 -64.463134137953631 36.476601218861425 -10.508382596077949 #
coedge $-1 $494 $501 $496 $560 reversed $488 $-1 #
straight-curve $-1 -64.463134137953631 36.476601218861418 0 0 0 -1 I I #
edge $-1 $497 64.463134137953631 $503 68.68617816705833 $558 $582 forward 7 unknown #
point $-1 -64.463134137953631 36.476601218861425 10.508382596077949 #
straight-curve $-1 -68.68617816705833 36.476601218861418 0 0 0 -1 I I #
point $-1 -68.68617816705833 36.476601218861418 10.508382596077949 #
point $-1 -68.68617816705833 36.476601218861418 -10.508382596077949 #
straight-curve $-1 68.68617816705833 -29.320940106129072 98.323441948990862 0 0 -1 I I #
point $-1 68.68617816705833 -29.320940106129072 10.508382596077949 #
straight-curve $-1 68.68617816705833 -11.878166258124539 6.6183847933140143 0 1 0 I I #
point $-1 68.686178167058316 -29.320940106129072 6.6183847933140214 #
point $-1 65.876530327428398 -26.14116434048336 7.5590418780210547 #
point $-1 65.876530327428398 -21.371500692014795 7.5590418780210547 #
straight-curve $-1 -68.68617816705833 -3.5527136788005009e-015 58.727178056845418 0 0 -1 I I #
point $-1 -68.68617816705833 -3.5527136788005009e-015 10.508382596077949 #
straight-curve $-1 -68.68617816705833 -2.1692193418487946 0.95599146064139262 0 -1 0 I I #
point $-1 -68.68617816705833 -3.5527136788005009e-015 0.95599146064139084 #
point $-1 -59.21276663900948 -4.3384386836975821 2.8037333528512614 #
straight-curve $-1 -68.68617816705833 0 10.508382596077949 0 -1 0 I I #
point $-1 -68.68617816705833 -3.5527136788005009e-015 10.508382596077949 #
point $-1 -59.21276663900948 4.3384386836975892 2.8037333528512614 #
point $-1 -68.68617816705833 -36.476601218861418 10.508382596077949 #
straight-curve $-1 -68.68617816705833 -36.476601218861418 0 0 0 -1 I I #
point $-1 -68.68617816705833 -36.476601218861418 -10.508382596077949 #
straight-curve $-1 0 36.476601218861418 10.508382596077949 -1 0 0 I I #
End-of-ACIS-data 