500 0 9 0           
7 Unknown 11 ACIS 5.0 NT 24 Fri Mar 26 02:40:14 1999 
-1 9.9999999999999995e-007 1e-010 
body $-1 $9 $-1 $10 #
body $-1 $11 $-1 $12 #
body $-1 $13 $-1 $14 #
body $-1 $15 $-1 $16 #
body $-1 $17 $-1 $18 #
body $-1 $19 $-1 $20 #
body $-1 $21 $-1 $22 #
body $-1 $23 $-1 $24 #
body $-1 $25 $-1 $26 #
lump $-1 $-1 $27 $0 #
transform $-1 1 0 0 0 1 0 0 0 1 58.626056703390603 34.74855678777125 8.8054350894467319 1 rotate no_reflect no_shear #
lump $-1 $-1 $28 $1 #
transform $-1 1 0 0 0 1 0 0 0 1 58.626056703390603 34.74855678777125 8.8054350894467319 1 rotate no_reflect no_shear #
lump $-1 $-1 $29 $2 #
transform $-1 1 0 0 0 1 0 0 0 1 58.626056703390603 34.74855678777125 8.8054350894467319 1 rotate no_reflect no_shear #
lump $-1 $-1 $30 $3 #
transform $-1 1 0 0 0 1 0 0 0 1 58.626056703390603 34.74855678777125 8.8054350894467319 1 rotate no_reflect no_shear #
lump $-1 $-1 $31 $4 #
transform $-1 1 0 0 0 1 0 0 0 1 58.626056703390603 34.74855678777125 8.8054350894467319 1 rotate no_reflect no_shear #
lump $-1 $-1 $32 $5 #
transform $-1 1 0 0 0 1 0 0 0 1 58.626056703390603 34.74855678777125 8.8054350894467319 1 rotate no_reflect no_shear #
lump $-1 $-1 $33 $6 #
transform $-1 1 0 0 0 1 0 0 0 1 58.626056703390603 34.74855678777125 8.8054350894467319 1 rotate no_reflect no_shear #
lump $-1 $-1 $34 $7 #
transform $-1 1 0 0 0 1 0 0 0 1 58.626056703390603 34.74855678777125 8.8054350894467319 1 rotate no_reflect no_shear #
lump $-1 $-1 $35 $8 #
transform $-1 1 0 0 0 1 0 0 0 1 58.626056703390603 34.74855678777125 8.8054350894467319 1 rotate no_reflect no_shear #
shell $-1 $-1 $-1 $36 $-1 $9 #
shell $-1 $-1 $-1 $37 $-1 $11 #
shell $-1 $-1 $-1 $38 $-1 $13 #
shell $-1 $-1 $-1 $39 $-1 $15 #
shell $-1 $-1 $-1 $40 $-1 $17 #
shell $-1 $-1 $-1 $41 $-1 $19 #
shell $-1 $-1 $-1 $42 $-1 $21 #
shell $-1 $-1 $-1 $43 $-1 $23 #
shell $-1 $-1 $-1 $44 $-1 $25 #
face $-1 $45 $46 $27 $-1 $47 forward single #
face $-1 $48 $49 $28 $-1 $50 reversed single #
face $-1 $51 $52 $29 $-1 $53 reversed single #
face $-1 $54 $55 $30 $-1 $56 reversed single #
face $-1 $57 $58 $31 $-1 $59 forward single #
face $-1 $60 $61 $32 $-1 $62 forward single #
face $-1 $63 $64 $33 $-1 $65 reversed single #
face $-1 $66 $67 $34 $-1 $68 forward single #
face $-1 $69 $70 $35 $-1 $71 forward single #
face $-1 $72 $73 $27 $-1 $74 reversed single #
loop $-1 $-1 $75 $36 #
plane-surface $-1 0 0 8.8054350894467319 0 0 1 1 0 0 forward_v I I I I #
face $-1 $76 $77 $28 $-1 $78 reversed single #
loop $-1 $-1 $79 $37 #
plane-surface $-1 -55.316234816482165 0 5.8054350894467319 0 0 1 1 0 0 forward_v I I I I #
face $-1 $80 $81 $29 $-1 $82 reversed single #
loop $-1 $-1 $83 $38 #
plane-surface $-1 55.316234816482165 0 5.8054350894467319 0 0 1 1 0 0 forward_v I I I I #
face $-1 $84 $85 $30 $-1 $86 reversed single #
loop $-1 $-1 $87 $39 #
plane-surface $-1 -37.987044497708602 -114.714306795789 87.893727536590433 -1 0 0 0 -0.68199836817093118 0.7313536940579346 forward_v I I I I #
face $-1 $88 $89 $31 $-1 $90 forward single #
loop $-1 $91 $92 $40 #
cone-surface $-1 -48.000879091897978 -30.771262055220397 5.0400596579332664 0 0.68199836817093118 -0.7313536940579346 1 0 0 1 I I 0 1 1 forward I I I I #
face $-1 $93 $94 $32 $-1 $95 forward single #
loop $-1 $96 $97 $41 #
cone-surface $-1 -41.992578335384351 -30.771262055220397 5.0400596579332664 0 0.68199836817093118 -0.7313536940579346 1 0 0 1 I I 0 1 1 forward I I I I #
face $-1 $98 $99 $33 $-1 $100 reversed single #
loop $-1 $-1 $101 $42 #
plane-surface $-1 -44.996728713641168 -16.078413952065603 49.537879311550967 0 0.68199836817093118 0.7313536940579346 1 0 0 forward_v I I I I #
face $-1 $102 $103 $34 $-1 $104 forward single #
loop $-1 $105 $106 $43 #
cone-surface $-1 -48.000879091897978 30.771262055220397 5.0400596579332628 0 -0.68199836817093118 -0.7313536940579346 1 0 0 1 I I 0 1 1 forward I I I I #
face $-1 $107 $108 $35 $-1 $109 forward single #
loop $-1 $110 $111 $44 #
cone-surface $-1 -41.992578335384351 30.771262055220397 5.0400596579332628 0 -0.68199836817093118 -0.7313536940579346 1 0 0 1 I I 0 1 1 forward I I I I #
face $-1 $112 $113 $27 $-1 $114 reversed single #
loop $-1 $-1 $115 $45 #
plane-surface $-1 0 0 -8.8054350894467319 0 0 1 1 0 0 forward_v I I I I #
coedge $-1 $116 $117 $118 $119 forward $46 $-1 #
face $-1 $120 $121 $28 $-1 $122 reversed single #
loop $-1 $-1 $123 $48 #
plane-surface $-1 -52.006412929573727 0 7.3054350894467319 -1 0 0 0 0 1 forward_v I I I I #
coedge $-1 $124 $125 $126 $127 forward $49 $-1 #
face $-1 $128 $129 $29 $-1 $130 forward single #
loop $-1 $-1 $131 $51 #
plane-surface $-1 52.006412929573727 0 7.3054350894467319 1 0 0 0 0 -1 forward_v I I I I #
coedge $-1 $132 $133 $134 $135 reversed $52 $-1 #
face $-1 $136 $137 $30 $-1 $138 forward single #
loop $-1 $-1 $139 $54 #
plane-surface $-1 -44.996728713641168 -34.74855678777125 2.1409612604411166 0 -0.68199836817093118 0.7313536940579346 1 0 0 forward_v I I I I #
coedge $-1 $140 $141 $142 $143 reversed $55 $-1 #
face $-1 $-1 $144 $31 $-1 $145 forward single #
loop $-1 $146 $147 $57 #
cone-surface $-1 -48.000879091897978 -30.026354660657162 4.2412442938936401 0 0.68199836817093118 -0.7313536940579346 0.5 0 0 1 I I -0.70710678118654746 0.70710678118654746 0.5 forward I I I I #
loop $-1 $-1 $148 $40 #
coedge $-1 $92 $92 $149 $150 reversed $58 $-1 #
face $-1 $-1 $151 $32 $-1 $152 forward single #
loop $-1 $153 $154 $60 #
cone-surface $-1 -41.992578335384351 -30.026354660657162 4.2412442938936401 0 0.68199836817093118 -0.7313536940579346 0.5 0 0 1 I I -0.70710678118654746 0.70710678118654746 0.5 forward I I I I #
loop $-1 $-1 $155 $41 #
coedge $-1 $97 $97 $156 $157 reversed $61 $-1 #
face $-1 $158 $159 $33 $-1 $160 reversed single #
loop $-1 $-1 $161 $63 #
plane-surface $-1 -37.987044497708602 63.887336055952147 135.29064558770028 -1 0 0 0 0.68199836817093118 0.7313536940579346 forward_v I I I I #
coedge $-1 $162 $163 $164 $165 reversed $64 $-1 #
face $-1 $-1 $166 $34 $-1 $167 forward single #
loop $-1 $168 $169 $66 #
cone-surface $-1 -48.000879091897978 30.026354660657162 4.2412442938936366 0 -0.68199836817093118 -0.7313536940579346 0.5 0 0 1 I I -0.70710678118654746 0.70710678118654746 0.5 forward I I I I #
loop $-1 $-1 $170 $43 #
coedge $-1 $106 $106 $171 $172 reversed $67 $-1 #
face $-1 $-1 $173 $35 $-1 $174 forward single #
loop $-1 $175 $176 $69 #
cone-surface $-1 -41.992578335384351 30.026354660657162 4.2412442938936366 0 -0.68199836817093118 -0.7313536940579346 0.5 0 0 1 I I -0.70710678118654746 0.70710678118654746 0.5 forward I I I I #
loop $-1 $-1 $177 $44 #
coedge $-1 $111 $111 $178 $179 reversed $70 $-1 #
face $-1 $180 $181 $27 $-1 $182 reversed single #
loop $-1 $-1 $183 $72 #
plane-surface $-1 0 -34.74855678777125 0 0 1 0 0 0 1 forward_v I I I I #
coedge $-1 $184 $185 $186 $187 forward $73 $-1 #
coedge $-1 $188 $75 $189 $190 forward $46 $-1 #
coedge $-1 $75 $188 $191 $192 forward $46 $-1 #
coedge $-1 $193 $194 $75 $119 reversed $195 $-1 #
edge $-1 $196 -34.74855678777125 $197 34.74855678777125 $118 $198 forward 7 unknown #
face $-1 $199 $200 $28 $-1 $201 reversed single #
loop $-1 $-1 $202 $76 #
plane-surface $-1 0 34.74855678777125 0 0 -1 0 0 0 -1 forward_v I I I I #
coedge $-1 $126 $203 $204 $205 reversed $77 $-1 #
coedge $-1 $206 $79 $207 $208 reversed $49 $-1 #
coedge $-1 $79 $206 $209 $210 reversed $49 $-1 #
coedge $-1 $211 $123 $79 $127 reversed $77 $-1 #
edge $-1 $212 -34.74855678777125 $213 34.74855678777125 $126 $214 forward 7 unknown #
face $-1 $215 $216 $29 $-1 $217 reversed single #
loop $-1 $-1 $218 $80 #
plane-surface $-1 0 0 8.8054350894467319 0 0 1 1 0 0 forward_v I I I I #
coedge $-1 $219 $220 $221 $222 reversed $81 $-1 #
coedge $-1 $223 $83 $224 $225 reversed $52 $-1 #
coedge $-1 $83 $223 $226 $227 reversed $52 $-1 #
coedge $-1 $228 $229 $83 $135 forward $230 $-1 #
edge $-1 $231 -34.74855678777125 $232 34.74855678777125 $134 $233 forward 7 unknown #
face $-1 $234 $235 $30 $-1 $236 forward single #
loop $-1 $-1 $142 $84 #
plane-surface $-1 0 0 8.8054350894467319 0 0 1 1 0 0 forward_v I I I I #
coedge $-1 $237 $238 $239 $240 reversed $85 $-1 #
coedge $-1 $141 $87 $241 $242 reversed $55 $-1 #
coedge $-1 $87 $140 $237 $243 reversed $55 $-1 #
coedge $-1 $239 $244 $87 $143 forward $137 $-1 #
edge $-1 $245 22.60859661012325 $246 29.755369654269415 $142 $247 forward 7 unknown #
loop $-1 $-1 $149 $88 #
plane-surface $-1 -44.996728713641168 -34.74855678777125 2.1409612604411166 0 -0.68199836817093118 0.7313536940579346 1 0 0 forward_v I I I I #
loop $-1 $-1 $248 $57 #
coedge $-1 $147 $147 $148 $249 reversed $89 $-1 #
coedge $-1 $148 $148 $147 $249 forward $91 $-1 #
coedge $-1 $149 $149 $92 $150 forward $144 $-1 #
edge $-1 $250 1.2114724657602437e-015 $250 6.2831853071796013 $149 $251 forward 7 unknown #
loop $-1 $-1 $156 $93 #
plane-surface $-1 -44.996728713641168 -34.74855678777125 2.1409612604411166 0 -0.68199836817093118 0.7313536940579346 1 0 0 forward_v I I I I #
loop $-1 $-1 $252 $60 #
coedge $-1 $154 $154 $155 $253 reversed $94 $-1 #
coedge $-1 $155 $155 $154 $253 forward $96 $-1 #
coedge $-1 $156 $156 $97 $157 forward $151 $-1 #
edge $-1 $254 1.2114724657602437e-015 $254 6.2831853071796013 $156 $255 forward 7 unknown #
face $-1 $256 $257 $33 $-1 $258 forward single #
loop $-1 $-1 $259 $98 #
plane-surface $-1 0 34.74855678777125 0 0 -1 0 0 0 -1 forward_v I I I I #
coedge $-1 $260 $261 $262 $263 reversed $99 $-1 #
coedge $-1 $264 $101 $265 $266 reversed $64 $-1 #
coedge $-1 $101 $264 $260 $267 forward $64 $-1 #
coedge $-1 $262 $268 $101 $165 forward $257 $-1 #
edge $-1 $269 -29.50804857275315 $270 -15.488680140888018 $164 $271 forward 7 unknown #
loop $-1 $-1 $171 $102 #
plane-surface $-1 -44.996728713641168 -16.078413952065603 49.537879311550967 0 0.68199836817093118 0.7313536940579346 1 0 0 forward_v I I I I #
loop $-1 $-1 $272 $66 #
coedge $-1 $169 $169 $170 $273 reversed $103 $-1 #
coedge $-1 $170 $170 $169 $273 forward $105 $-1 #
coedge $-1 $171 $171 $106 $172 forward $166 $-1 #
edge $-1 $274 -4.3039089147970852e-016 $274 6.2831853071796004 $171 $275 forward 7 unknown #
loop $-1 $-1 $178 $107 #
plane-surface $-1 -44.996728713641168 -16.078413952065603 49.537879311550967 0 0.68199836817093118 0.7313536940579346 1 0 0 forward_v I I I I #
loop $-1 $-1 $276 $69 #
coedge $-1 $176 $176 $177 $277 reversed $108 $-1 #
coedge $-1 $177 $177 $176 $277 forward $110 $-1 #
coedge $-1 $178 $178 $111 $179 forward $173 $-1 #
edge $-1 $278 -4.3039089147970852e-016 $278 6.2831853071796004 $178 $279 forward 7 unknown #
face $-1 $280 $281 $27 $-1 $282 reversed single #
loop $-1 $-1 $283 $112 #
plane-surface $-1 -58.626056703390603 0 0 1 0 0 0 0 -1 forward_v I I I I #
coedge $-1 $284 $191 $285 $286 forward $113 $-1 #
coedge $-1 $287 $115 $284 $288 forward $73 $-1 #
coedge $-1 $115 $287 $289 $290 forward $73 $-1 #
coedge $-1 $194 $193 $115 $187 reversed $195 $-1 #
edge $-1 $291 -34.74855678777125 $292 34.74855678777125 $186 $293 forward 7 unknown #
coedge $-1 $117 $116 $294 $295 forward $46 $-1 #
coedge $-1 $296 $297 $116 $190 reversed $281 $-1 #
edge $-1 $197 -58.626056703390603 $298 58.626056703390603 $189 $299 forward 7 unknown #
coedge $-1 $183 $300 $117 $192 reversed $113 $-1 #
edge $-1 $301 -58.626056703390603 $196 58.626056703390603 $191 $302 forward 7 unknown #
coedge $-1 $186 $118 $300 $303 forward $195 $-1 #
coedge $-1 $118 $186 $296 $304 reversed $195 $-1 #
loop $-1 $-1 $193 $280 #
vertex $-1 $119 $305 #
vertex $-1 $119 $306 #
straight-curve $-1 58.626056703390603 0 8.8054350894467319 0 1 0 I I #
face $-1 $307 $308 $28 $-1 $309 forward single #
loop $-1 $-1 $310 $120 #
plane-surface $-1 -58.626056703390603 0 0 1 0 0 0 0 -1 forward_v I I I I #
coedge $-1 $209 $311 $211 $312 forward $121 $-1 #
coedge $-1 $123 $211 $313 $314 reversed $77 $-1 #
coedge $-1 $315 $207 $123 $205 forward $316 $-1 #
edge $-1 $213 2.152717544723366 $317 5.152717544723366 $204 $318 forward 7 unknown #
coedge $-1 $125 $124 $310 $319 reversed $49 $-1 #
coedge $-1 $204 $320 $124 $208 forward $316 $-1 #
edge $-1 $321 -30.96793929514952 $213 -24.348295521332645 $207 $322 forward 7 unknown #
coedge $-1 $323 $202 $125 $210 forward $121 $-1 #
edge $-1 $212 24.348295521332645 $324 30.96793929514952 $209 $325 forward 7 unknown #
coedge $-1 $203 $126 $202 $312 reversed $77 $-1 #
vertex $-1 $210 $326 #
vertex $-1 $208 $327 #
straight-curve $-1 -52.006412929573727 0 5.8054350894467319 0 -1 0 I I #
face $-1 $328 $329 $29 $-1 $330 reversed single #
loop $-1 $-1 $331 $128 #
plane-surface $-1 0 -34.74855678777125 0 0 1 0 0 0 1 forward_v I I I I #
coedge $-1 $332 $333 $220 $334 forward $129 $-1 #
coedge $-1 $335 $131 $223 $336 reversed $81 $-1 #
coedge $-1 $131 $335 $218 $334 reversed $81 $-1 #
coedge $-1 $337 $226 $131 $222 forward $329 $-1 #
edge $-1 $338 2.152717544723366 $339 5.152717544723366 $221 $340 forward 7 unknown #
coedge $-1 $133 $132 $219 $336 forward $52 $-1 #
coedge $-1 $341 $331 $132 $225 forward $216 $-1 #
edge $-1 $342 24.348295521332645 $231 30.96793929514952 $224 $343 forward 7 unknown #
coedge $-1 $221 $344 $133 $227 forward $329 $-1 #
edge $-1 $232 -30.96793929514952 $338 -24.348295521332645 $226 $345 forward 7 unknown #
coedge $-1 $346 $134 $344 $347 reversed $230 $-1 #
coedge $-1 $134 $346 $341 $348 forward $230 $-1 #
loop $-1 $-1 $134 $328 #
vertex $-1 $225 $349 #
vertex $-1 $135 $350 #
straight-curve $-1 58.626056703390603 0 5.8054350894467319 0 1 0 I I #
face $-1 $-1 $351 $30 $-1 $352 reversed single #
loop $-1 $-1 $353 $136 #
plane-surface $-1 -52.006412929573727 0 7.3054350894467319 -1 0 0 0 0 1 forward_v I I I I #
coedge $-1 $354 $139 $141 $243 forward $85 $-1 #
coedge $-1 $139 $354 $353 $355 forward $85 $-1 #
coedge $-1 $356 $142 $139 $240 forward $137 $-1 #
edge $-1 $246 15.488680140888018 $357 29.50804857275315 $239 $358 forward 7 unknown #
coedge $-1 $359 $360 $140 $242 forward $351 $-1 #
edge $-1 $361 -41.8059025078541 $245 -35.141428678848484 $241 $362 forward 7 unknown #
edge $-1 $246 -9.7719791425296751 $361 0 $141 $363 forward 7 unknown #
coedge $-1 $142 $356 $359 $364 forward $137 $-1 #
vertex $-1 $242 $365 #
vertex $-1 $143 $366 #
straight-curve $-1 -37.987044497708602 -57.3571533978945 8.8054350894467319 0 1 0 I I #
coedge $-1 $248 $248 $-1 $367 reversed $146 $-1 #
edge $-1 $368 0 $368 6.2831853071796004 $147 $369 forward 7 unknown #
vertex $-1 $150 $370 #
ellipse-curve $-1 -48.000879091897978 -31.175170265698167 5.4731981749439242 0 -0.68199836817093118 0.7313536940579346 1 0 0 1 I I #
coedge $-1 $252 $252 $-1 $371 reversed $153 $-1 #
edge $-1 $372 0 $372 6.2831853071796004 $154 $373 forward 7 unknown #
vertex $-1 $157 $374 #
ellipse-curve $-1 -41.992578335384351 -31.175170265698167 5.4731981749439242 0 -0.68199836817093118 0.7313536940579346 1 0 0 1 I I #
face $-1 $-1 $375 $33 $-1 $376 forward single #
loop $-1 $-1 $262 $158 #
plane-surface $-1 0 0 8.8054350894467319 0 0 1 1 0 0 forward_v I I I I #
coedge $-1 $377 $378 $261 $379 forward $159 $-1 #
coedge $-1 $261 $161 $163 $267 reversed $99 $-1 #
coedge $-1 $161 $260 $259 $379 reversed $99 $-1 #
coedge $-1 $380 $164 $161 $263 forward $257 $-1 #
edge $-1 $270 -4.3418842843510035 $381 2.8048887597951762 $262 $382 forward 7 unknown #
coedge $-1 $163 $162 $377 $383 reversed $64 $-1 #
coedge $-1 $384 $385 $162 $266 forward $375 $-1 #
edge $-1 $386 -49.216380834652128 $269 -39.444401692122433 $265 $387 forward 7 unknown #
edge $-1 $388 -69.497113575542514 $270 -59.725134433012819 $260 $389 forward 7 unknown #
coedge $-1 $164 $380 $384 $390 forward $257 $-1 #
vertex $-1 $266 $391 #
vertex $-1 $165 $392 #
straight-curve $-1 -22.498364356820584 27.60178374362507 8.8054350894467355 1 0 0 I I #
coedge $-1 $272 $272 $-1 $393 reversed $168 $-1 #
edge $-1 $394 0 $394 6.2831853071796004 $169 $395 forward 7 unknown #
vertex $-1 $172 $396 #
ellipse-curve $-1 -48.000879091897978 31.175170265698164 5.473198174943918 0 0.68199836817093118 0.7313536940579346 1 0 0 1 I I #
coedge $-1 $276 $276 $-1 $397 reversed $175 $-1 #
edge $-1 $398 0 $398 6.2831853071796004 $176 $399 forward 7 unknown #
vertex $-1 $179 $400 #
ellipse-curve $-1 -41.992578335384351 31.175170265698164 5.473198174943918 0 0.68199836817093118 0.7313536940579346 1 0 0 1 I I #
face $-1 $-1 $195 $27 $-1 $401 reversed single #
loop $-1 $-1 $296 $180 #
plane-surface $-1 0 34.74855678777125 0 0 -1 0 0 0 -1 forward_v I I I I #
coedge $-1 $402 $294 $297 $403 forward $181 $-1 #
coedge $-1 $300 $183 $184 $288 reversed $113 $-1 #
coedge $-1 $294 $402 $183 $286 reversed $181 $-1 #
edge $-1 $301 -8.8054350894467319 $404 8.8054350894467319 $285 $405 forward 7 unknown #
coedge $-1 $185 $184 $402 $406 forward $73 $-1 #
edge $-1 $292 -58.626056703390603 $404 58.626056703390603 $284 $407 forward 7 unknown #
coedge $-1 $297 $296 $185 $290 reversed $281 $-1 #
edge $-1 $408 -58.626056703390603 $291 58.626056703390603 $289 $409 forward 7 unknown #
vertex $-1 $187 $410 #
vertex $-1 $303 $411 #
straight-curve $-1 58.626056703390603 0 -8.8054350894467319 0 -1 0 I I #
coedge $-1 $283 $285 $188 $295 reversed $181 $-1 #
edge $-1 $298 -34.74855678777125 $301 34.74855678777125 $294 $412 forward 7 unknown #
coedge $-1 $289 $189 $194 $304 forward $281 $-1 #
coedge $-1 $189 $289 $283 $403 reversed $281 $-1 #
vertex $-1 $190 $413 #
straight-curve $-1 0 34.74855678777125 8.8054350894467319 -1 0 0 I I #
coedge $-1 $191 $284 $193 $303 reversed $113 $-1 #
vertex $-1 $295 $414 #
straight-curve $-1 0 -34.74855678777125 8.8054350894467319 1 0 0 I I #
edge $-1 $196 -8.8054350894467319 $292 8.8054350894467319 $193 $415 forward 7 unknown #
edge $-1 $197 -8.8054350894467319 $291 8.8054350894467319 $194 $416 forward 7 unknown #
point $-1 58.626056703390603 -34.74855678777125 8.8054350894467319 #
point $-1 58.626056703390603 34.74855678777125 8.8054350894467319 #
face $-1 $-1 $316 $28 $-1 $417 reversed single #
loop $-1 $-1 $313 $199 #
plane-surface $-1 0 0 8.8054350894467319 0 0 1 1 0 0 forward_v I I I I #
coedge $-1 $418 $419 $206 $319 forward $200 $-1 #
coedge $-1 $202 $323 $420 $421 reversed $121 $-1 #
edge $-1 $422 -5.152717544723366 $212 -2.152717544723366 $202 $423 forward 7 unknown #
coedge $-1 $420 $424 $203 $314 forward $308 $-1 #
edge $-1 $317 -34.74855678777125 $422 34.74855678777125 $313 $425 forward 7 unknown #
coedge $-1 $320 $204 $424 $426 reversed $316 $-1 #
loop $-1 $-1 $204 $307 #
vertex $-1 $205 $427 #
straight-curve $-1 -52.006412929573727 -34.74855678777125 3.652717544723366 0 0 1 I I #
edge $-1 $324 -34.74855678777125 $321 34.74855678777125 $310 $428 forward 7 unknown #
coedge $-1 $207 $315 $418 $429 forward $316 $-1 #
vertex $-1 $319 $430 #
straight-curve $-1 -27.658117408241083 -34.74855678777125 5.8054350894467319 1 0 0 I I #
coedge $-1 $311 $209 $419 $431 reversed $121 $-1 #
vertex $-1 $319 $432 #
straight-curve $-1 -27.658117408241083 34.74855678777125 5.8054350894467319 -1 0 0 I I #
point $-1 -52.006412929573727 34.74855678777125 5.8054350894467319 #
point $-1 -52.006412929573727 -34.74855678777125 5.8054350894467319 #
face $-1 $-1 $230 $29 $-1 $433 reversed single #
loop $-1 $-1 $221 $215 #
plane-surface $-1 0 34.74855678777125 0 0 -1 0 0 0 -1 forward_v I I I I #
coedge $-1 $224 $434 $335 $435 forward $216 $-1 #
coedge $-1 $436 $218 $434 $437 forward $129 $-1 #
coedge $-1 $218 $436 $337 $438 forward $129 $-1 #
edge $-1 $339 -34.74855678777125 $439 34.74855678777125 $218 $440 forward 7 unknown #
coedge $-1 $220 $219 $331 $435 reversed $81 $-1 #
edge $-1 $342 -34.74855678777125 $338 34.74855678777125 $219 $441 forward 7 unknown #
coedge $-1 $344 $221 $333 $438 reversed $329 $-1 #
vertex $-1 $227 $442 #
vertex $-1 $222 $443 #
straight-curve $-1 52.006412929573727 34.74855678777125 3.652717544723366 0 0 1 I I #
coedge $-1 $434 $224 $229 $348 reversed $216 $-1 #
vertex $-1 $225 $444 #
straight-curve $-1 27.658117408241083 -34.74855678777125 5.8054350894467319 1 0 0 I I #
coedge $-1 $226 $337 $228 $347 forward $329 $-1 #
straight-curve $-1 27.658117408241083 34.74855678777125 5.8054350894467319 -1 0 0 I I #
coedge $-1 $229 $228 $436 $445 reversed $230 $-1 #
edge $-1 $446 -8.8054350894467319 $232 -5.8054350894467319 $228 $447 forward 7 unknown #
edge $-1 $448 -8.8054350894467319 $231 -5.8054350894467319 $229 $449 forward 7 unknown #
point $-1 58.626056703390603 -34.74855678777125 5.8054350894467319 #
point $-1 58.626056703390603 34.74855678777125 5.8054350894467319 #
loop $-1 $-1 $241 $234 #
plane-surface $-1 0 -34.74855678777125 0 0 1 0 0 0 1 forward_v I I I I #
coedge $-1 $450 $451 $238 $355 reversed $235 $-1 #
coedge $-1 $238 $237 $360 $452 reversed $85 $-1 #
edge $-1 $453 0 $357 9.7719791425296751 $353 $454 forward 7 unknown #
coedge $-1 $244 $239 $451 $455 forward $137 $-1 #
vertex $-1 $455 $456 #
straight-curve $-1 -22.498364356820584 -27.601783743625077 8.8054350894467319 -1 0 0 I I #
coedge $-1 $457 $241 $244 $364 reversed $351 $-1 #
coedge $-1 $241 $457 $354 $452 forward $351 $-1 #
vertex $-1 $242 $458 #
straight-curve $-1 -37.987044497708602 -34.74855678777125 43.946863768295216 0 0 1 I I #
straight-curve $-1 -37.987044497708602 -34.74855678777125 2.1409612604411166 0 -0.7313536940579346 -0.68199836817093118 I I #
edge $-1 $459 -52.006412929573727 $245 -37.987044497708602 $359 $460 forward 7 unknown #
point $-1 -37.987044497708602 -34.74855678777125 8.8054350894467319 #
point $-1 -37.987044497708602 -27.601783743625084 8.8054350894467319 #
edge $-1 $461 1 $461 0 $248 $-1 forward 7 unknown #
vertex $-1 $249 $462 #
ellipse-curve $-1 -48.000879091897978 -30.367353844742627 4.6069211409226076 0 -0.68199836817093118 0.7313536940579346 1 0 0 1 I I #
point $-1 -47.000879091897978 -31.175170265698167 5.473198174943926 #
edge $-1 $463 1 $463 0 $252 $-1 forward 7 unknown #
vertex $-1 $253 $464 #
ellipse-curve $-1 -41.992578335384351 -30.367353844742627 4.6069211409226076 0 -0.68199836817093118 0.7313536940579346 1 0 0 1 I I #
point $-1 -40.992578335384351 -31.175170265698167 5.473198174943926 #
loop $-1 $-1 $265 $256 #
plane-surface $-1 -52.006412929573727 0 7.3054350894467319 -1 0 0 0 0 1 forward_v I I I I #
coedge $-1 $465 $259 $264 $383 forward $159 $-1 #
coedge $-1 $259 $465 $380 $466 reversed $159 $-1 #
edge $-1 $381 58.839887704403409 $388 65.504361533409039 $259 $467 forward 7 unknown #
coedge $-1 $268 $262 $378 $466 forward $257 $-1 #
vertex $-1 $466 $468 #
straight-curve $-1 -37.987044497708602 31.943668027976074 8.8054350894467319 0 1 0 I I #
edge $-1 $388 15.488680140888018 $386 29.50804857275315 $377 $469 forward 7 unknown #
coedge $-1 $385 $265 $268 $390 reversed $375 $-1 #
coedge $-1 $265 $384 $465 $470 reversed $375 $-1 #
vertex $-1 $470 $471 #
straight-curve $-1 -52.006412929573727 -1.2460251438137178 35.706452676952949 0 -0.7313536940579346 0.68199836817093118 I I #
vertex $-1 $383 $472 #
straight-curve $-1 -37.987044497708602 -16.078413952065603 49.537879311550967 0 -0.7313536940579346 0.68199836817093118 I I #
edge $-1 $473 -34.74855678777125 $269 -27.60178374362507 $268 $474 forward 7 unknown #
point $-1 -52.006412929573735 27.60178374362507 8.8054350894467319 #
point $-1 -37.987044497708602 27.60178374362507 8.8054350894467319 #
edge $-1 $475 1 $475 0 $272 $-1 forward 7 unknown #
vertex $-1 $273 $476 #
ellipse-curve $-1 -48.000879091897978 30.367353844742627 4.6069211409226041 0 0.68199836817093118 0.7313536940579346 1 0 0 1 I I #
point $-1 -47.000879091897978 31.175170265698167 5.4731981749439225 #
edge $-1 $477 1 $477 0 $276 $-1 forward 7 unknown #
vertex $-1 $277 $478 #
ellipse-curve $-1 -41.992578335384351 30.367353844742627 4.6069211409226041 0 0.68199836817093118 0.7313536940579346 1 0 0 1 I I #
point $-1 -40.992578335384351 31.175170265698167 5.4731981749439225 #
plane-surface $-1 58.626056703390603 0 0 -1 0 0 0 0 1 forward_v I I I I #
coedge $-1 $285 $283 $287 $406 reversed $181 $-1 #
edge $-1 $298 -8.8054350894467319 $408 8.8054350894467319 $297 $479 forward 7 unknown #
vertex $-1 $406 $480 #
straight-curve $-1 -58.626056703390603 -34.74855678777125 0 0 0 -1 I I #
edge $-1 $404 -34.74855678777125 $408 34.74855678777125 $402 $481 forward 7 unknown #
straight-curve $-1 0 -34.74855678777125 -8.8054350894467319 -1 0 0 I I #
vertex $-1 $290 $482 #
straight-curve $-1 0 34.74855678777125 -8.8054350894467319 1 0 0 I I #
point $-1 58.626056703390603 34.74855678777125 -8.8054350894467319 #
point $-1 58.626056703390603 -34.74855678777125 -8.8054350894467319 #
straight-curve $-1 -58.626056703390603 0 8.8054350894467319 0 -1 0 I I #
point $-1 -58.626056703390603 34.74855678777125 8.8054350894467319 #
point $-1 -58.626056703390603 -34.74855678777125 8.8054350894467319 #
straight-curve $-1 58.626056703390603 -34.74855678777125 0 0 0 -1 I I #
straight-curve $-1 58.626056703390603 34.74855678777125 0 0 0 -1 I I #
plane-surface $-1 0 -34.74855678777125 0 0 1 0 0 0 1 forward_v I I I I #
coedge $-1 $483 $310 $320 $429 reversed $200 $-1 #
coedge $-1 $310 $483 $323 $431 forward $200 $-1 #
coedge $-1 $484 $313 $311 $421 forward $308 $-1 #
edge $-1 $422 52.006412929573727 $485 58.626056703390603 $311 $486 forward 7 unknown #
vertex $-1 $421 $487 #
straight-curve $-1 -52.006412929573727 34.74855678777125 3.652717544723366 0 0 -1 I I #
coedge $-1 $313 $484 $315 $426 forward $308 $-1 #
straight-curve $-1 -52.006412929573727 0 8.8054350894467319 0 1 0 I I #
edge $-1 $488 -58.626056703390603 $317 -52.006412929573727 $315 $489 forward 7 unknown #
point $-1 -52.006412929573727 -34.74855678777125 8.8054350894467319 #
straight-curve $-1 -58.626056703390603 0 5.8054350894467319 0 -1 0 I I #
edge $-1 $488 -8.8054350894467319 $321 -5.8054350894467319 $418 $490 forward 7 unknown #
point $-1 -58.626056703390603 -34.74855678777125 5.8054350894467319 #
edge $-1 $485 -8.8054350894467319 $324 -5.8054350894467319 $323 $491 forward 7 unknown #
point $-1 -58.626056703390603 34.74855678777125 5.8054350894467319 #
plane-surface $-1 58.626056703390603 0 0 -1 0 0 0 0 1 forward_v I I I I #
coedge $-1 $331 $341 $332 $437 reversed $216 $-1 #
edge $-1 $439 -5.152717544723366 $342 -2.152717544723366 $331 $492 forward 7 unknown #
coedge $-1 $333 $332 $346 $445 forward $129 $-1 #
edge $-1 $439 52.006412929573727 $448 58.626056703390603 $434 $493 forward 7 unknown #
edge $-1 $446 -58.626056703390603 $339 -52.006412929573727 $337 $494 forward 7 unknown #
vertex $-1 $437 $495 #
straight-curve $-1 52.006412929573727 0 8.8054350894467319 0 -1 0 I I #
straight-curve $-1 52.006412929573727 0 5.8054350894467319 0 1 0 I I #
point $-1 52.006412929573727 34.74855678777125 5.8054350894467319 #
point $-1 52.006412929573727 34.74855678777125 8.8054350894467319 #
point $-1 52.006412929573727 -34.74855678777125 5.8054350894467319 #
edge $-1 $448 -34.74855678777125 $446 34.74855678777125 $346 $496 forward 7 unknown #
vertex $-1 $445 $497 #
straight-curve $-1 58.626056703390603 34.74855678777125 0 0 0 -1 I I #
vertex $-1 $445 $498 #
straight-curve $-1 58.626056703390603 -34.74855678777125 0 0 0 -1 I I #
coedge $-1 $451 $353 $457 $499 reversed $235 $-1 #
coedge $-1 $353 $450 $356 $455 reversed $235 $-1 #
edge $-1 $453 -29.50804857275315 $361 -15.488680140888018 $360 $500 forward 7 unknown #
vertex $-1 $499 $501 #
straight-curve $-1 -52.006412929573735 -34.74855678777125 2.1409612604411166 0 0.7313536940579346 0.68199836817093118 I I #
edge $-1 $357 27.601783743625084 $459 34.74855678777125 $356 $502 forward 7 unknown #
point $-1 -52.006412929573735 -27.601783743625084 8.8054350894467319 #
coedge $-1 $360 $359 $450 $499 forward $351 $-1 #
point $-1 -37.987044497708602 -34.74855678777125 2.1409612604411166 #
vertex $-1 $364 $503 #
straight-curve $-1 0 -34.74855678777125 8.8054350894467319 1 0 0 I I #
vertex $-1 $367 $504 #
point $-1 -47.000879091897978 -30.367353844742627 4.6069211409226076 #
vertex $-1 $371 $505 #
point $-1 -40.992578335384351 -30.367353844742627 4.6069211409226076 #
coedge $-1 $378 $377 $385 $470 forward $159 $-1 #
edge $-1 $381 37.987044497708602 $473 52.006412929573727 $378 $506 forward 7 unknown #
straight-curve $-1 -37.987044497708602 34.74855678777125 67.645322793850141 0 0 -1 I I #
point $-1 -37.987044497708602 34.74855678777125 8.8054350894467319 #
straight-curve $-1 -22.498364356820584 34.74855678777125 2.1409612604411059 -1 0 0 I I #
edge $-1 $386 -65.504361533409039 $473 -58.839887704403409 $465 $507 forward 7 unknown #
point $-1 -52.006412929573735 34.74855678777125 2.1409612604411024 #
point $-1 -37.987044497708602 34.74855678777125 2.1409612604411024 #
vertex $-1 $390 $508 #
straight-curve $-1 -52.006412929573727 0 8.8054350894467319 0 -1 0 I I #
vertex $-1 $393 $509 #
point $-1 -47.000879091897978 30.367353844742627 4.6069211409226041 #
vertex $-1 $397 $510 #
point $-1 -40.992578335384351 30.367353844742627 4.6069211409226041 #
straight-curve $-1 -58.626056703390603 34.74855678777125 0 0 0 -1 I I #
point $-1 -58.626056703390603 -34.74855678777125 -8.8054350894467319 #
straight-curve $-1 -58.626056703390603 0 -8.8054350894467319 0 1 0 I I #
point $-1 -58.626056703390603 34.74855678777125 -8.8054350894467319 #
coedge $-1 $419 $418 $484 $511 reversed $200 $-1 #
coedge $-1 $424 $420 $483 $511 forward $308 $-1 #
vertex $-1 $421 $512 #
straight-curve $-1 0 34.74855678777125 8.8054350894467319 -1 0 0 I I #
point $-1 -52.006412929573727 34.74855678777125 8.8054350894467319 #
vertex $-1 $511 $513 #
straight-curve $-1 0 -34.74855678777125 8.8054350894467319 1 0 0 I I #
straight-curve $-1 -58.626056703390603 -34.74855678777125 0 0 0 -1 I I #
straight-curve $-1 -58.626056703390603 34.74855678777125 0 0 0 -1 I I #
straight-curve $-1 52.006412929573727 -34.74855678777125 3.652717544723366 0 0 -1 I I #
straight-curve $-1 0 -34.74855678777125 8.8054350894467319 1 0 0 I I #
straight-curve $-1 0 34.74855678777125 8.8054350894467319 -1 0 0 I I #
point $-1 52.006412929573727 -34.74855678777125 8.8054350894467319 #
straight-curve $-1 58.626056703390603 0 8.8054350894467319 0 1 0 I I #
point $-1 58.626056703390603 34.74855678777125 8.8054350894467319 #
point $-1 58.626056703390603 -34.74855678777125 8.8054350894467319 #
edge $-1 $459 35.141428678848484 $453 41.8059025078541 $457 $514 forward 7 unknown #
straight-curve $-1 -22.498364356820584 -34.74855678777125 2.1409612604411183 1 0 0 I I #
point $-1 -52.006412929573735 -34.74855678777125 2.1409612604411166 #
straight-curve $-1 -52.006412929573727 0 8.8054350894467319 0 -1 0 I I #
point $-1 -52.006412929573727 -34.74855678777125 8.8054350894467319 #
point $-1 -48.000879091897978 -29.685355476571697 3.8755674468646726 #
point $-1 -41.992578335384351 -29.685355476571697 3.8755674468646726 #
straight-curve $-1 0 34.74855678777125 8.8054350894467319 -1 0 0 I I #
straight-curve $-1 -52.006412929573735 34.74855678777125 67.645322793850141 0 0 1 I I #
point $-1 -52.006412929573727 34.74855678777125 8.8054350894467319 #
point $-1 -48.000879091897978 29.685355476571697 3.875567446864669 #
point $-1 -41.992578335384351 29.685355476571697 3.875567446864669 #
edge $-1 $485 -34.74855678777125 $488 34.74855678777125 $483 $515 forward 7 unknown #
point $-1 -58.626056703390603 34.74855678777125 8.8054350894467319 #
point $-1 -58.626056703390603 -34.74855678777125 8.8054350894467319 #
straight-curve $-1 -52.006412929573735 -34.74855678777125 43.946863768295216 0 0 -1 I I #
straight-curve $-1 -58.626056703390603 0 8.8054350894467319 0 -1 0 I I #
End-of-ACIS-data 