500 0 13 0           
7 Unknown 11 ACIS 5.0 NT 24 Thu Mar 25 23:17:50 1999 
-1 9.9999999999999995e-007 1e-010 
body $-1 $13 $-1 $14 #
body $-1 $15 $-1 $16 #
body $-1 $17 $-1 $18 #
body $-1 $19 $-1 $20 #
body $-1 $21 $-1 $22 #
body $-1 $23 $-1 $24 #
body $-1 $25 $-1 $26 #
body $-1 $27 $-1 $28 #
body $-1 $29 $-1 $30 #
body $-1 $31 $-1 $32 #
body $-1 $33 $-1 $34 #
body $-1 $35 $-1 $36 #
body $-1 $37 $-1 $38 #
lump $-1 $-1 $39 $0 #
transform $-1 1 0 0 0 1 0 0 0 1 79.809564500869783 48.816164239610963 10.409506600390934 1 rotate no_reflect no_shear #
lump $-1 $-1 $40 $1 #
transform $-1 1 0 0 0 1 0 0 0 1 79.809564500869783 48.816164239610963 10.409506600390934 1 rotate no_reflect no_shear #
lump $-1 $-1 $41 $2 #
transform $-1 1 0 0 0 1 0 0 0 1 79.809564500869783 48.816164239610963 10.409506600390934 1 rotate no_reflect no_shear #
lump $-1 $-1 $42 $3 #
transform $-1 1 0 0 0 1 0 0 0 1 79.809564500869783 48.816164239610963 10.409506600390934 1 rotate no_reflect no_shear #
lump $-1 $-1 $43 $4 #
transform $-1 1 0 0 0 1 0 0 0 1 79.809564500869783 48.816164239610963 10.409506600390934 1 rotate no_reflect no_shear #
lump $-1 $-1 $44 $5 #
transform $-1 1 0 0 0 1 0 0 0 1 79.809564500869783 48.816164239610963 10.409506600390934 1 rotate no_reflect no_shear #
lump $-1 $-1 $45 $6 #
transform $-1 1 0 0 0 1 0 0 0 1 79.809564500869783 48.816164239610963 10.409506600390934 1 rotate no_reflect no_shear #
lump $-1 $-1 $46 $7 #
transform $-1 1 0 0 0 1 0 0 0 1 79.809564500869783 48.816164239610963 10.409506600390934 1 rotate no_reflect no_shear #
lump $-1 $-1 $47 $8 #
transform $-1 1 0 0 0 1 0 0 0 1 79.809564500869783 48.816164239610963 10.409506600390934 1 rotate no_reflect no_shear #
lump $-1 $-1 $48 $9 #
transform $-1 1 0 0 0 1 0 0 0 1 79.809564500869783 48.816164239610963 10.409506600390934 1 rotate no_reflect no_shear #
lump $-1 $-1 $49 $10 #
transform $-1 1 0 0 0 1 0 0 0 1 79.809564500869783 48.816164239610963 10.409506600390934 1 rotate no_reflect no_shear #
lump $-1 $-1 $50 $11 #
transform $-1 1 0 0 0 1 0 0 0 1 79.809564500869783 48.816164239610963 10.409506600390934 1 rotate no_reflect no_shear #
lump $-1 $-1 $51 $12 #
transform $-1 1 0 0 0 1 0 0 0 1 79.809564500869783 48.816164239610963 10.409506600390934 1 rotate no_reflect no_shear #
shell $-1 $-1 $-1 $52 $-1 $13 #
shell $-1 $-1 $-1 $53 $-1 $15 #
shell $-1 $-1 $-1 $54 $-1 $17 #
shell $-1 $-1 $-1 $55 $-1 $19 #
shell $-1 $-1 $-1 $56 $-1 $21 #
shell $-1 $-1 $-1 $57 $-1 $23 #
shell $-1 $-1 $-1 $58 $-1 $25 #
shell $-1 $-1 $-1 $59 $-1 $27 #
shell $-1 $-1 $-1 $60 $-1 $29 #
shell $-1 $-1 $-1 $61 $-1 $31 #
shell $-1 $-1 $-1 $62 $-1 $33 #
shell $-1 $-1 $-1 $63 $-1 $35 #
shell $-1 $-1 $-1 $64 $-1 $37 #
face $-1 $65 $66 $39 $-1 $67 forward single #
face $-1 $68 $69 $40 $-1 $70 reversed single #
face $-1 $71 $72 $41 $-1 $73 forward single #
face $-1 $74 $75 $42 $-1 $76 forward single #
face $-1 $77 $78 $43 $-1 $79 reversed single #
face $-1 $80 $81 $44 $-1 $82 forward single #
face $-1 $83 $84 $45 $-1 $85 forward single #
face $-1 $86 $87 $46 $-1 $88 reversed single #
face $-1 $89 $90 $47 $-1 $91 forward single #
face $-1 $92 $93 $48 $-1 $94 forward single #
face $-1 $95 $96 $49 $-1 $97 reversed single #
face $-1 $98 $99 $50 $-1 $100 forward single #
face $-1 $101 $102 $51 $-1 $103 forward single #
face $-1 $104 $105 $39 $-1 $106 reversed single #
loop $-1 $-1 $107 $52 #
plane-surface $-1 0 0 10.409506600390934 0 0 1 1 0 0 forward_v I I I I #
face $-1 $108 $109 $40 $-1 $110 reversed single #
loop $-1 $-1 $111 $53 #
plane-surface $-1 -61.585036929133487 -157.67614974766272 120.34114880764801 -1 0 0 0 -0.68199836817093118 0.7313536940579346 forward_v I I I I #
face $-1 $112 $113 $41 $-1 $114 forward single #
loop $-1 $115 $116 $54 #
cone-surface $-1 -74.602556623230839 -43.106240779880395 4.7967568446776996 0 0.68199836817093118 -0.7313536940579346 2 0 0 1 I I 0 1 2 forward I I I I #
face $-1 $117 $118 $42 $-1 $119 forward single #
loop $-1 $120 $121 $55 #
cone-surface $-1 -66.792044806772438 -43.106240779880395 4.7967568446776996 0 0.68199836817093118 -0.7313536940579346 2 0 0 1 I I 0 1 2 forward I I I I #
face $-1 $122 $123 $43 $-1 $124 reversed single #
loop $-1 $-1 $125 $56 #
plane-surface $-1 -14.453503119132407 -157.67614974766272 120.34114880764801 -1 0 0 0 -0.68199836817093118 0.7313536940579346 forward_v I I I I #
face $-1 $126 $127 $44 $-1 $128 forward single #
loop $-1 $129 $130 $57 #
cone-surface $-1 -27.471022813229759 -43.106240779880395 4.7967568446776996 0 0.68199836817093118 -0.7313536940579346 2 0 0 1 I I 0 1 2 forward I I I I #
face $-1 $131 $132 $45 $-1 $133 forward single #
loop $-1 $134 $135 $58 #
cone-surface $-1 -19.66051099677135 -43.106240779880395 4.7967568446776996 0 0.68199836817093118 -0.7313536940579346 2 0 0 1 I I 0 1 2 forward I I I I #
face $-1 $136 $137 $46 $-1 $138 reversed single #
loop $-1 $-1 $139 $59 #
plane-surface $-1 32.678030690868688 -157.67614974766272 120.34114880764801 -1 0 0 0 -0.68199836817093118 0.7313536940579346 forward_v I I I I #
face $-1 $140 $141 $47 $-1 $142 forward single #
loop $-1 $143 $144 $60 #
cone-surface $-1 19.660510996771336 -43.106240779880395 4.7967568446776996 0 0.68199836817093118 -0.7313536940579346 2 0 0 1 I I 0 1 2 forward I I I I #
face $-1 $145 $146 $48 $-1 $147 forward single #
loop $-1 $148 $149 $61 #
cone-surface $-1 27.471022813229737 -43.106240779880395 4.7967568446776996 0 0.68199836817093118 -0.7313536940579346 2 0 0 1 I I 0 1 2 forward I I I I #
face $-1 $150 $151 $49 $-1 $152 reversed single #
loop $-1 $-1 $153 $62 #
plane-surface $-1 70.697300715001631 -48.816164239610984 3.6031091699157827 0 -0.68199836817093118 0.7313536940579346 1 0 0 forward_v I I I I #
face $-1 $154 $155 $50 $-1 $156 forward single #
loop $-1 $157 $158 $63 #
cone-surface $-1 66.792044806772424 -43.106240779880395 4.7967568446776996 0 0.68199836817093118 -0.7313536940579346 2 0 0 1 I I 0 1 2 forward I I I I #
face $-1 $159 $160 $51 $-1 $161 forward single #
loop $-1 $162 $163 $64 #
cone-surface $-1 74.602556623230839 -43.106240779880395 4.7967568446776996 0 0.68199836817093118 -0.7313536940579346 2 0 0 1 I I 0 1 2 forward I I I I #
face $-1 $164 $165 $39 $-1 $166 reversed single #
loop $-1 $-1 $167 $65 #
plane-surface $-1 0 0 -10.409506600390934 0 0 1 1 0 0 forward_v I I I I #
coedge $-1 $168 $169 $170 $171 forward $66 $-1 #
face $-1 $172 $173 $40 $-1 $174 forward single #
loop $-1 $-1 $175 $68 #
plane-surface $-1 -70.697300715001631 -48.816164239610984 3.6031091699157827 0 -0.68199836817093118 0.7313536940579346 1 0 0 forward_v I I I I #
coedge $-1 $176 $177 $178 $179 reversed $69 $-1 #
face $-1 $-1 $180 $41 $-1 $181 forward single #
loop $-1 $182 $183 $71 #
cone-surface $-1 -74.602556623230839 -40.363802687075491 1.8558521101441272 0 0.68199836817093118 -0.7313536940579346 1 0 0 1 I I -0.70710678118654768 0.70710678118654735 1 forward I I I I #
loop $-1 $-1 $184 $54 #
coedge $-1 $116 $116 $185 $186 reversed $72 $-1 #
face $-1 $-1 $187 $42 $-1 $188 forward single #
loop $-1 $189 $190 $74 #
cone-surface $-1 -66.792044806772438 -40.363802687075491 1.8558521101441272 0 0.68199836817093118 -0.7313536940579346 1 0 0 1 I I -0.70710678118654768 0.70710678118654735 1 forward I I I I #
loop $-1 $-1 $191 $55 #
coedge $-1 $121 $121 $192 $193 reversed $75 $-1 #
face $-1 $194 $195 $43 $-1 $196 reversed single #
loop $-1 $-1 $197 $77 #
plane-surface $-1 -23.565766905000551 -48.816164239610984 3.6031091699157827 0 -0.68199836817093118 0.7313536940579346 1 0 0 forward_v I I I I #
coedge $-1 $198 $199 $200 $201 reversed $78 $-1 #
face $-1 $-1 $202 $44 $-1 $203 forward single #
loop $-1 $204 $205 $80 #
cone-surface $-1 -27.471022813229759 -40.363802687075491 1.8558521101441272 0 0.68199836817093118 -0.7313536940579346 1 0 0 1 I I -0.70710678118654768 0.70710678118654735 1 forward I I I I #
loop $-1 $-1 $206 $57 #
coedge $-1 $130 $130 $207 $208 reversed $81 $-1 #
face $-1 $-1 $209 $45 $-1 $210 forward single #
loop $-1 $211 $212 $83 #
cone-surface $-1 -19.66051099677135 -40.363802687075491 1.8558521101441272 0 0.68199836817093118 -0.7313536940579346 1 0 0 1 I I -0.70710678118654768 0.70710678118654735 1 forward I I I I #
loop $-1 $-1 $213 $58 #
coedge $-1 $135 $135 $214 $215 reversed $84 $-1 #
face $-1 $216 $217 $46 $-1 $218 reversed single #
loop $-1 $-1 $219 $86 #
plane-surface $-1 23.565766905000544 -48.816164239610984 3.6031091699157827 0 -0.68199836817093118 0.7313536940579346 1 0 0 forward_v I I I I #
coedge $-1 $220 $221 $222 $223 reversed $87 $-1 #
face $-1 $-1 $224 $47 $-1 $225 forward single #
loop $-1 $226 $227 $89 #
cone-surface $-1 19.660510996771336 -40.363802687075491 1.8558521101441272 0 0.68199836817093118 -0.7313536940579346 1 0 0 1 I I -0.70710678118654768 0.70710678118654735 1 forward I I I I #
loop $-1 $-1 $228 $60 #
coedge $-1 $144 $144 $229 $230 reversed $90 $-1 #
face $-1 $-1 $231 $48 $-1 $232 forward single #
loop $-1 $233 $234 $92 #
cone-surface $-1 27.471022813229737 -40.363802687075491 1.8558521101441272 0 0.68199836817093118 -0.7313536940579346 1 0 0 1 I I -0.70710678118654768 0.70710678118654735 1 forward I I I I #
loop $-1 $-1 $235 $61 #
coedge $-1 $149 $149 $236 $237 reversed $93 $-1 #
face $-1 $238 $239 $49 $-1 $240 reversed single #
loop $-1 $-1 $241 $95 #
plane-surface $-1 61.585036929133487 -157.67614974766272 120.34114880764801 1 0 0 0 0.68199836817093118 -0.7313536940579346 forward_v I I I I #
coedge $-1 $242 $243 $244 $245 reversed $96 $-1 #
face $-1 $-1 $246 $50 $-1 $247 forward single #
loop $-1 $248 $249 $98 #
cone-surface $-1 66.792044806772424 -40.363802687075491 1.8558521101441272 0 0.68199836817093118 -0.7313536940579346 1 0 0 1 I I -0.70710678118654768 0.70710678118654735 1 forward I I I I #
loop $-1 $-1 $250 $63 #
coedge $-1 $158 $158 $251 $252 reversed $99 $-1 #
face $-1 $-1 $253 $51 $-1 $254 forward single #
loop $-1 $255 $256 $101 #
cone-surface $-1 74.602556623230839 -40.363802687075491 1.8558521101441272 0 0.68199836817093118 -0.7313536940579346 1 0 0 1 I I -0.70710678118654768 0.70710678118654735 1 forward I I I I #
loop $-1 $-1 $257 $64 #
coedge $-1 $163 $163 $258 $259 reversed $102 $-1 #
face $-1 $260 $261 $39 $-1 $262 reversed single #
loop $-1 $-1 $263 $104 #
plane-surface $-1 0 -48.816164239610963 0 0 1 0 0 0 1 forward_v I I I I #
coedge $-1 $264 $265 $266 $267 forward $105 $-1 #
coedge $-1 $268 $107 $269 $270 forward $66 $-1 #
coedge $-1 $107 $268 $271 $272 forward $66 $-1 #
coedge $-1 $273 $274 $107 $171 reversed $275 $-1 #
edge $-1 $276 -48.816164239610963 $277 48.816164239610963 $170 $278 forward 7 unknown #
face $-1 $279 $280 $40 $-1 $281 reversed single #
loop $-1 $-1 $178 $108 #
plane-surface $-1 0 0 10.409506600390934 0 0 1 1 0 0 forward_v I I I I #
coedge $-1 $282 $283 $284 $285 reversed $109 $-1 #
coedge $-1 $177 $111 $286 $287 reversed $69 $-1 #
coedge $-1 $111 $176 $282 $288 reversed $69 $-1 #
coedge $-1 $284 $289 $111 $179 forward $173 $-1 #
edge $-1 $290 30.021910634220397 $291 37.320878104413524 $178 $292 forward 7 unknown #
loop $-1 $-1 $185 $112 #
plane-surface $-1 -70.697300715001631 -48.816164239610984 3.6031091699157827 0 -0.68199836817093118 0.7313536940579346 1 0 0 forward_v I I I I #
loop $-1 $-1 $293 $71 #
coedge $-1 $183 $183 $184 $294 reversed $113 $-1 #
coedge $-1 $184 $184 $183 $294 forward $115 $-1 #
coedge $-1 $185 $185 $116 $186 forward $180 $-1 #
edge $-1 $295 1.4824629398821881e-015 $295 6.2831853071796022 $185 $296 forward 7 unknown #
loop $-1 $-1 $192 $117 #
plane-surface $-1 -70.697300715001631 -48.816164239610984 3.6031091699157827 0 -0.68199836817093118 0.7313536940579346 1 0 0 forward_v I I I I #
loop $-1 $-1 $297 $74 #
coedge $-1 $190 $190 $191 $298 reversed $118 $-1 #
coedge $-1 $191 $191 $190 $298 forward $120 $-1 #
coedge $-1 $192 $192 $121 $193 forward $187 $-1 #
edge $-1 $299 1.4824629398821881e-015 $299 6.2831853071796022 $192 $300 forward 7 unknown #
face $-1 $301 $302 $43 $-1 $303 reversed single #
loop $-1 $-1 $304 $122 #
plane-surface $-1 -32.678030690868695 -157.67614974766272 120.34114880764801 1 0 0 0 0.68199836817093118 -0.7313536940579346 forward_v I I I I #
coedge $-1 $305 $306 $307 $308 reversed $123 $-1 #
coedge $-1 $199 $125 $309 $310 reversed $78 $-1 #
coedge $-1 $125 $198 $305 $311 reversed $78 $-1 #
coedge $-1 $307 $312 $125 $201 forward $313 $-1 #
edge $-1 $314 30.021910634220397 $315 37.320878104413524 $200 $316 forward 7 unknown #
loop $-1 $-1 $207 $126 #
plane-surface $-1 -23.565766905000551 -48.816164239610984 3.6031091699157827 0 -0.68199836817093118 0.7313536940579346 1 0 0 forward_v I I I I #
loop $-1 $-1 $317 $80 #
coedge $-1 $205 $205 $206 $318 reversed $127 $-1 #
coedge $-1 $206 $206 $205 $318 forward $129 $-1 #
coedge $-1 $207 $207 $130 $208 forward $202 $-1 #
edge $-1 $319 1.4824629398821881e-015 $319 6.2831853071796022 $207 $320 forward 7 unknown #
loop $-1 $-1 $214 $131 #
plane-surface $-1 -23.565766905000551 -48.816164239610984 3.6031091699157827 0 -0.68199836817093118 0.7313536940579346 1 0 0 forward_v I I I I #
loop $-1 $-1 $321 $83 #
coedge $-1 $212 $212 $213 $322 reversed $132 $-1 #
coedge $-1 $213 $213 $212 $322 forward $134 $-1 #
coedge $-1 $214 $214 $135 $215 forward $209 $-1 #
edge $-1 $323 1.4824629398821881e-015 $323 6.2831853071796022 $214 $324 forward 7 unknown #
face $-1 $325 $326 $46 $-1 $327 reversed single #
loop $-1 $-1 $328 $136 #
plane-surface $-1 14.453503119132399 -157.67614974766272 120.34114880764801 1 0 0 0 0.68199836817093118 -0.7313536940579346 forward_v I I I I #
coedge $-1 $329 $330 $331 $332 reversed $137 $-1 #
coedge $-1 $221 $139 $333 $334 reversed $87 $-1 #
coedge $-1 $139 $220 $329 $335 reversed $87 $-1 #
coedge $-1 $331 $336 $139 $223 forward $337 $-1 #
edge $-1 $338 30.021910634220397 $339 37.320878104413524 $222 $340 forward 7 unknown #
loop $-1 $-1 $229 $140 #
plane-surface $-1 23.565766905000544 -48.816164239610984 3.6031091699157827 0 -0.68199836817093118 0.7313536940579346 1 0 0 forward_v I I I I #
loop $-1 $-1 $341 $89 #
coedge $-1 $227 $227 $228 $342 reversed $141 $-1 #
coedge $-1 $228 $228 $227 $342 forward $143 $-1 #
coedge $-1 $229 $229 $144 $230 forward $224 $-1 #
edge $-1 $343 1.4824629398821881e-015 $343 6.2831853071796022 $229 $344 forward 7 unknown #
loop $-1 $-1 $236 $145 #
plane-surface $-1 23.565766905000544 -48.816164239610984 3.6031091699157827 0 -0.68199836817093118 0.7313536940579346 1 0 0 forward_v I I I I #
loop $-1 $-1 $345 $92 #
coedge $-1 $234 $234 $235 $346 reversed $146 $-1 #
coedge $-1 $235 $235 $234 $346 forward $148 $-1 #
coedge $-1 $236 $236 $149 $237 forward $231 $-1 #
edge $-1 $347 1.4824629398821881e-015 $347 6.2831853071796022 $236 $348 forward 7 unknown #
face $-1 $349 $350 $49 $-1 $351 reversed single #
loop $-1 $-1 $352 $150 #
plane-surface $-1 0 -48.816164239610963 0 0 1 0 0 0 1 forward_v I I I I #
coedge $-1 $353 $354 $355 $356 reversed $151 $-1 #
coedge $-1 $357 $153 $358 $359 reversed $96 $-1 #
coedge $-1 $153 $357 $353 $360 forward $96 $-1 #
coedge $-1 $355 $361 $153 $245 forward $362 $-1 #
edge $-1 $363 -44.460914143368967 $364 -26.236386571632671 $244 $365 forward 7 unknown #
loop $-1 $-1 $251 $154 #
plane-surface $-1 70.697300715001631 -48.816164239610984 3.6031091699157827 0 -0.68199836817093118 0.7313536940579346 1 0 0 forward_v I I I I #
loop $-1 $-1 $366 $98 #
coedge $-1 $249 $249 $250 $367 reversed $155 $-1 #
coedge $-1 $250 $250 $249 $367 forward $157 $-1 #
coedge $-1 $251 $251 $158 $252 forward $246 $-1 #
edge $-1 $368 1.4824629398821881e-015 $368 6.2831853071796022 $251 $369 forward 7 unknown #
loop $-1 $-1 $258 $159 #
plane-surface $-1 70.697300715001631 -48.816164239610984 3.6031091699157827 0 -0.68199836817093118 0.7313536940579346 1 0 0 forward_v I I I I #
loop $-1 $-1 $370 $101 #
coedge $-1 $256 $256 $257 $371 reversed $160 $-1 #
coedge $-1 $257 $257 $256 $371 forward $162 $-1 #
coedge $-1 $258 $258 $163 $259 forward $253 $-1 #
edge $-1 $372 1.4824629398821881e-015 $372 6.2831853071796022 $258 $373 forward 7 unknown #
face $-1 $374 $375 $39 $-1 $376 reversed single #
loop $-1 $-1 $377 $164 #
plane-surface $-1 -79.809564500869783 0 0 1 0 0 0 0 -1 forward_v I I I I #
coedge $-1 $378 $271 $379 $380 forward $165 $-1 #
coedge $-1 $381 $167 $378 $382 forward $105 $-1 #
coedge $-1 $167 $381 $383 $384 forward $105 $-1 #
coedge $-1 $274 $273 $167 $267 reversed $275 $-1 #
edge $-1 $385 -48.816164239610963 $386 48.816164239610963 $266 $387 forward 7 unknown #
coedge $-1 $169 $168 $388 $389 forward $66 $-1 #
coedge $-1 $390 $391 $168 $270 reversed $375 $-1 #
edge $-1 $277 -79.809564500869783 $392 79.809564500869783 $269 $393 forward 7 unknown #
coedge $-1 $263 $394 $169 $272 reversed $165 $-1 #
edge $-1 $395 -79.809564500869783 $276 79.809564500869783 $271 $396 forward 7 unknown #
coedge $-1 $266 $170 $394 $397 forward $275 $-1 #
coedge $-1 $170 $266 $390 $398 reversed $275 $-1 #
loop $-1 $-1 $273 $374 #
vertex $-1 $171 $399 #
vertex $-1 $171 $400 #
straight-curve $-1 79.809564500869783 0 10.409506600390934 0 1 0 I I #
face $-1 $-1 $401 $40 $-1 $402 reversed single #
loop $-1 $-1 $403 $172 #
plane-surface $-1 -79.809564500869783 0 0 1 0 0 0 0 -1 forward_v I I I I #
coedge $-1 $404 $175 $177 $288 forward $109 $-1 #
coedge $-1 $175 $404 $403 $405 reversed $109 $-1 #
coedge $-1 $406 $178 $175 $285 forward $173 $-1 #
edge $-1 $291 26.236386571632671 $407 44.460914143368967 $284 $408 forward 7 unknown #
coedge $-1 $409 $410 $176 $287 forward $401 $-1 #
edge $-1 $411 -56.567465233908202 $290 -49.761067803433072 $286 $412 forward 7 unknown #
edge $-1 $291 -9.9800787628413286 $411 -2.9218806877328148e-014 $177 $413 forward 7 unknown #
coedge $-1 $178 $406 $409 $414 forward $173 $-1 #
vertex $-1 $287 $415 #
vertex $-1 $179 $416 #
straight-curve $-1 -61.585036929133487 -78.83807487383136 10.409506600390934 0 1 0 I I #
coedge $-1 $293 $293 $-1 $417 reversed $182 $-1 #
edge $-1 $418 0 $418 6.2831853071796004 $183 $419 forward 7 unknown #
vertex $-1 $186 $420 #
ellipse-curve $-1 -74.602556623230839 -45.166680504514396 7.0063078851533707 0 -0.68199836817093118 0.7313536940579346 2 0 0 1 I I #
coedge $-1 $297 $297 $-1 $421 reversed $189 $-1 #
edge $-1 $422 0 $422 6.2831853071796004 $190 $423 forward 7 unknown #
vertex $-1 $193 $424 #
ellipse-curve $-1 -66.792044806772438 -45.166680504514396 7.0063078851533707 0 -0.68199836817093118 0.7313536940579346 2 0 0 1 I I #
face $-1 $-1 $313 $43 $-1 $425 forward single #
loop $-1 $-1 $426 $194 #
plane-surface $-1 0 -48.816164239610963 0 0 1 0 0 0 1 forward_v I I I I #
coedge $-1 $427 $428 $429 $430 reversed $195 $-1 #
coedge $-1 $431 $197 $199 $311 forward $123 $-1 #
coedge $-1 $197 $431 $427 $432 forward $123 $-1 #
coedge $-1 $429 $200 $197 $308 forward $313 $-1 #
edge $-1 $315 2.6706196666321311 $433 20.89514723836842 $307 $434 forward 7 unknown #
coedge $-1 $435 $436 $198 $310 forward $302 $-1 #
edge $-1 $437 -56.567465233908202 $314 -49.761067803433072 $309 $438 forward 7 unknown #
edge $-1 $315 -9.9800787628413286 $437 -2.9218806877328148e-014 $199 $439 forward 7 unknown #
coedge $-1 $200 $429 $435 $440 forward $313 $-1 #
loop $-1 $-1 $429 $301 #
vertex $-1 $310 $441 #
vertex $-1 $201 $442 #
straight-curve $-1 -14.453503119132407 -78.83807487383136 10.409506600390934 0 1 0 I I #
coedge $-1 $317 $317 $-1 $443 reversed $204 $-1 #
edge $-1 $444 0 $444 6.2831853071796004 $205 $445 forward 7 unknown #
vertex $-1 $208 $446 #
ellipse-curve $-1 -27.471022813229759 -45.166680504514396 7.0063078851533707 0 -0.68199836817093118 0.7313536940579346 2 0 0 1 I I #
coedge $-1 $321 $321 $-1 $447 reversed $211 $-1 #
edge $-1 $448 0 $448 6.2831853071796004 $212 $449 forward 7 unknown #
vertex $-1 $215 $450 #
ellipse-curve $-1 -19.66051099677135 -45.166680504514396 7.0063078851533707 0 -0.68199836817093118 0.7313536940579346 2 0 0 1 I I #
face $-1 $-1 $337 $46 $-1 $451 forward single #
loop $-1 $-1 $452 $216 #
plane-surface $-1 0 -48.816164239610963 0 0 1 0 0 0 1 forward_v I I I I #
coedge $-1 $453 $454 $455 $456 reversed $217 $-1 #
coedge $-1 $457 $219 $221 $335 forward $137 $-1 #
coedge $-1 $219 $457 $453 $458 forward $137 $-1 #
coedge $-1 $455 $222 $219 $332 forward $337 $-1 #
edge $-1 $339 -20.895147238368416 $459 -2.6706196666321276 $331 $460 forward 7 unknown #
coedge $-1 $461 $462 $220 $334 forward $326 $-1 #
edge $-1 $463 -56.567465233908202 $338 -49.761067803433072 $333 $464 forward 7 unknown #
edge $-1 $339 -9.9800787628413286 $463 -2.9218806877328148e-014 $221 $465 forward 7 unknown #
coedge $-1 $222 $455 $461 $466 forward $337 $-1 #
loop $-1 $-1 $455 $325 #
vertex $-1 $334 $467 #
vertex $-1 $223 $468 #
straight-curve $-1 32.678030690868688 -78.83807487383136 10.409506600390934 0 1 0 I I #
coedge $-1 $341 $341 $-1 $469 reversed $226 $-1 #
edge $-1 $470 0 $470 6.2831853071796004 $227 $471 forward 7 unknown #
vertex $-1 $230 $472 #
ellipse-curve $-1 19.660510996771336 -45.166680504514396 7.0063078851533707 0 -0.68199836817093118 0.7313536940579346 2 0 0 1 I I #
coedge $-1 $345 $345 $-1 $473 reversed $233 $-1 #
edge $-1 $474 0 $474 6.2831853071796004 $234 $475 forward 7 unknown #
vertex $-1 $237 $476 #
ellipse-curve $-1 27.471022813229737 -45.166680504514396 7.0063078851533707 0 -0.68199836817093118 0.7313536940579346 2 0 0 1 I I #
face $-1 $-1 $362 $49 $-1 $477 forward single #
loop $-1 $-1 $358 $238 #
plane-surface $-1 79.809564500869783 0 0 -1 0 0 0 0 1 forward_v I I I I #
coedge $-1 $478 $479 $354 $480 forward $239 $-1 #
coedge $-1 $354 $241 $243 $360 reversed $151 $-1 #
coedge $-1 $241 $353 $352 $480 reversed $151 $-1 #
coedge $-1 $481 $244 $241 $356 forward $362 $-1 #
edge $-1 $364 -37.320878104413524 $482 -30.021910634220397 $355 $483 forward 7 unknown #
coedge $-1 $243 $242 $478 $484 reversed $96 $-1 #
coedge $-1 $485 $486 $242 $359 forward $350 $-1 #
edge $-1 $487 -16.622283736077001 $363 -6.6422049732357014 $358 $488 forward 7 unknown #
edge $-1 $489 2.9218806877328148e-014 $364 9.9800787628413286 $353 $490 forward 7 unknown #
coedge $-1 $244 $481 $485 $491 forward $362 $-1 #
loop $-1 $-1 $355 $349 #
vertex $-1 $359 $492 #
vertex $-1 $245 $493 #
straight-curve $-1 35.348650357500816 -41.517196769417836 10.409506600390934 -1 0 0 I I #
coedge $-1 $366 $366 $-1 $494 reversed $248 $-1 #
edge $-1 $495 0 $495 6.2831853071796004 $249 $496 forward 7 unknown #
vertex $-1 $252 $497 #
ellipse-curve $-1 66.792044806772424 -45.166680504514396 7.0063078851533707 0 -0.68199836817093118 0.7313536940579346 2 0 0 1 I I #
coedge $-1 $370 $370 $-1 $498 reversed $255 $-1 #
edge $-1 $499 0 $499 6.2831853071796004 $256 $500 forward 7 unknown #
vertex $-1 $259 $501 #
ellipse-curve $-1 74.602556623230839 -45.166680504514396 7.0063078851533707 0 -0.68199836817093118 0.7313536940579346 2 0 0 1 I I #
face $-1 $-1 $275 $39 $-1 $502 reversed single #
loop $-1 $-1 $390 $260 #
plane-surface $-1 0 48.816164239610963 0 0 -1 0 0 0 -1 forward_v I I I I #
coedge $-1 $503 $388 $391 $504 forward $261 $-1 #
coedge $-1 $394 $263 $264 $382 reversed $165 $-1 #
coedge $-1 $388 $503 $263 $380 reversed $261 $-1 #
edge $-1 $395 -10.409506600390934 $505 10.409506600390934 $379 $506 forward 7 unknown #
coedge $-1 $265 $264 $503 $507 forward $105 $-1 #
edge $-1 $386 -79.809564500869783 $505 79.809564500869783 $378 $508 forward 7 unknown #
coedge $-1 $391 $390 $265 $384 reversed $375 $-1 #
edge $-1 $509 -79.809564500869783 $385 79.809564500869783 $383 $510 forward 7 unknown #
vertex $-1 $267 $511 #
vertex $-1 $397 $512 #
straight-curve $-1 79.809564500869783 0 -10.409506600390934 0 -1 0 I I #
coedge $-1 $377 $379 $268 $389 reversed $261 $-1 #
edge $-1 $392 -48.816164239610963 $395 48.816164239610963 $388 $513 forward 7 unknown #
coedge $-1 $383 $269 $274 $398 forward $375 $-1 #
coedge $-1 $269 $383 $377 $504 reversed $375 $-1 #
vertex $-1 $270 $514 #
straight-curve $-1 0 48.816164239610963 10.409506600390934 -1 0 0 I I #
coedge $-1 $271 $378 $273 $397 reversed $165 $-1 #
vertex $-1 $389 $515 #
straight-curve $-1 0 -48.816164239610963 10.409506600390934 1 0 0 I I #
edge $-1 $276 -10.409506600390934 $386 10.409506600390934 $273 $516 forward 7 unknown #
edge $-1 $277 -10.409506600390934 $385 10.409506600390934 $274 $517 forward 7 unknown #
point $-1 79.809564500869783 -48.816164239610963 10.409506600390934 #
point $-1 79.809564500869783 48.816164239610963 10.409506600390934 #
loop $-1 $-1 $286 $279 #
plane-surface $-1 0 -48.816164239610963 0 0 1 0 0 0 1 forward_v I I I I #
coedge $-1 $518 $519 $283 $405 forward $280 $-1 #
coedge $-1 $283 $282 $410 $520 reversed $109 $-1 #
edge $-1 $407 6.6422049732357014 $521 16.622283736077001 $403 $522 forward 7 unknown #
coedge $-1 $289 $284 $519 $523 forward $173 $-1 #
vertex $-1 $523 $524 #
straight-curve $-1 -35.348650357500816 -41.517196769417836 10.409506600390934 -1 0 0 I I #
coedge $-1 $525 $286 $289 $414 reversed $401 $-1 #
coedge $-1 $286 $525 $404 $520 forward $401 $-1 #
vertex $-1 $287 $526 #
straight-curve $-1 -61.585036929133487 -48.816164239610963 60.170574403824006 0 0 1 I I #
straight-curve $-1 -61.585036929133487 -48.816164239610984 3.6031091699157827 0 -0.7313536940579346 -0.68199836817093118 I I #
edge $-1 $527 -79.809564500869783 $290 -61.585036929133487 $409 $528 forward 7 unknown #
point $-1 -61.585036929133487 -48.816164239610963 10.409506600390934 #
point $-1 -61.585036929133487 -41.517196769417836 10.409506600390934 #
edge $-1 $529 1 $529 0 $293 $-1 forward 7 unknown #
vertex $-1 $294 $530 #
ellipse-curve $-1 -74.602556623230839 -41.045801055246422 2.5872058042020614 0 -0.68199836817093118 0.7313536940579346 2 0 0 1 I I #
point $-1 -72.602556623230839 -45.16668050451436 7.0063078851533369 #
edge $-1 $531 1 $531 0 $297 $-1 forward 7 unknown #
vertex $-1 $298 $532 #
ellipse-curve $-1 -66.792044806772438 -41.045801055246422 2.5872058042020614 0 -0.68199836817093118 0.7313536940579346 2 0 0 1 I I #
point $-1 -64.792044806772438 -45.16668050451436 7.0063078851533369 #
plane-surface $-1 0 0 10.409506600390934 0 0 1 1 0 0 forward_v I I I I #
coedge $-1 $436 $435 $428 $533 forward $302 $-1 #
coedge $-1 $428 $304 $306 $432 reversed $195 $-1 #
coedge $-1 $304 $427 $426 $533 reversed $195 $-1 #
coedge $-1 $312 $307 $304 $430 forward $313 $-1 #
edge $-1 $433 -37.320878104413524 $534 -30.021910634220397 $429 $535 forward 7 unknown #
coedge $-1 $306 $305 $436 $536 reversed $123 $-1 #
edge $-1 $537 2.9218806877328148e-014 $433 9.9800787628413286 $427 $538 forward 7 unknown #
vertex $-1 $308 $539 #
straight-curve $-1 -11.782883452500275 -41.517196769417836 10.409506600390934 -1 0 0 I I #
coedge $-1 $426 $309 $312 $440 reversed $302 $-1 #
coedge $-1 $309 $426 $431 $536 forward $302 $-1 #
vertex $-1 $310 $540 #
straight-curve $-1 -14.453503119132407 -48.816164239610963 60.170574403824006 0 0 1 I I #
straight-curve $-1 -14.453503119132407 -48.816164239610984 3.6031091699157827 0 -0.7313536940579346 -0.68199836817093118 I I #
edge $-1 $534 -32.678030690868695 $314 -14.453503119132407 $435 $541 forward 7 unknown #
point $-1 -14.453503119132407 -48.816164239610963 10.409506600390934 #
point $-1 -14.453503119132407 -41.517196769417836 10.409506600390934 #
edge $-1 $542 1 $542 0 $317 $-1 forward 7 unknown #
vertex $-1 $318 $543 #
ellipse-curve $-1 -27.471022813229759 -41.045801055246422 2.5872058042020614 0 -0.68199836817093118 0.7313536940579346 2 0 0 1 I I #
point $-1 -25.471022813229759 -45.16668050451436 7.0063078851533369 #
edge $-1 $544 1 $544 0 $321 $-1 forward 7 unknown #
vertex $-1 $322 $545 #
ellipse-curve $-1 -19.66051099677135 -41.045801055246422 2.5872058042020614 0 -0.68199836817093118 0.7313536940579346 2 0 0 1 I I #
point $-1 -17.66051099677135 -45.16668050451436 7.0063078851533369 #
plane-surface $-1 0 0 10.409506600390934 0 0 1 1 0 0 forward_v I I I I #
coedge $-1 $462 $461 $454 $546 forward $326 $-1 #
coedge $-1 $454 $328 $330 $458 reversed $217 $-1 #
coedge $-1 $328 $453 $452 $546 reversed $217 $-1 #
coedge $-1 $336 $331 $328 $456 forward $337 $-1 #
edge $-1 $459 -37.320878104413524 $547 -30.021910634220397 $455 $548 forward 7 unknown #
coedge $-1 $330 $329 $462 $549 reversed $137 $-1 #
edge $-1 $550 2.9218806877328148e-014 $459 9.9800787628413286 $453 $551 forward 7 unknown #
vertex $-1 $332 $552 #
straight-curve $-1 11.782883452500272 -41.517196769417836 10.409506600390934 -1 0 0 I I #
coedge $-1 $452 $333 $336 $466 reversed $326 $-1 #
coedge $-1 $333 $452 $457 $549 forward $326 $-1 #
vertex $-1 $334 $553 #
straight-curve $-1 32.678030690868688 -48.816164239610963 60.170574403824006 0 0 1 I I #
straight-curve $-1 32.678030690868688 -48.816164239610984 3.6031091699157827 0 -0.7313536940579346 -0.68199836817093118 I I #
edge $-1 $547 14.453503119132399 $338 32.678030690868688 $461 $554 forward 7 unknown #
point $-1 32.678030690868688 -48.816164239610963 10.409506600390934 #
point $-1 32.678030690868688 -41.517196769417836 10.409506600390934 #
edge $-1 $555 1 $555 0 $341 $-1 forward 7 unknown #
vertex $-1 $342 $556 #
ellipse-curve $-1 19.660510996771336 -41.045801055246422 2.5872058042020614 0 -0.68199836817093118 0.7313536940579346 2 0 0 1 I I #
point $-1 21.660510996771336 -45.16668050451436 7.0063078851533369 #
edge $-1 $557 1 $557 0 $345 $-1 forward 7 unknown #
vertex $-1 $346 $558 #
ellipse-curve $-1 27.471022813229737 -41.045801055246422 2.5872058042020614 0 -0.68199836817093118 0.7313536940579346 2 0 0 1 I I #
point $-1 29.471022813229737 -45.16668050451436 7.0063078851533369 #
plane-surface $-1 0 0 10.409506600390934 0 0 1 1 0 0 forward_v I I I I #
coedge $-1 $559 $352 $357 $484 forward $239 $-1 #
coedge $-1 $352 $559 $481 $560 reversed $239 $-1 #
edge $-1 $482 49.761067803433072 $489 56.567465233908202 $352 $561 forward 7 unknown #
coedge $-1 $361 $355 $479 $560 forward $362 $-1 #
vertex $-1 $560 $562 #
straight-curve $-1 61.585036929133487 -78.83807487383136 10.409506600390934 0 -1 0 I I #
edge $-1 $489 26.236386571632671 $487 44.460914143368967 $478 $563 forward 7 unknown #
coedge $-1 $486 $358 $361 $491 reversed $350 $-1 #
coedge $-1 $358 $485 $559 $564 forward $350 $-1 #
vertex $-1 $359 $565 #
straight-curve $-1 79.809564500869783 -36.659395625551923 14.939479553194527 0 0.7313536940579346 0.68199836817093118 I I #
vertex $-1 $484 $566 #
straight-curve $-1 61.585036929133487 -48.816164239610984 3.6031091699157827 0 0.7313536940579346 0.68199836817093118 I I #
edge $-1 $567 -48.816164239610963 $363 -41.517196769417836 $485 $568 forward 7 unknown #
point $-1 79.809564500869783 -41.517196769417836 10.409506600390934 #
point $-1 61.585036929133487 -41.517196769417836 10.409506600390934 #
edge $-1 $569 1 $569 0 $366 $-1 forward 7 unknown #
vertex $-1 $367 $570 #
ellipse-curve $-1 66.792044806772424 -41.045801055246422 2.5872058042020614 0 -0.68199836817093118 0.7313536940579346 2 0 0 1 I I #
point $-1 68.792044806772424 -45.16668050451436 7.0063078851533369 #
edge $-1 $571 1 $571 0 $370 $-1 forward 7 unknown #
vertex $-1 $371 $572 #
ellipse-curve $-1 74.602556623230839 -41.045801055246422 2.5872058042020614 0 -0.68199836817093118 0.7313536940579346 2 0 0 1 I I #
point $-1 76.602556623230839 -45.16668050451436 7.0063078851533369 #
plane-surface $-1 79.809564500869783 0 0 -1 0 0 0 0 1 forward_v I I I I #
coedge $-1 $379 $377 $381 $507 reversed $261 $-1 #
edge $-1 $392 -10.409506600390934 $509 10.409506600390934 $391 $573 forward 7 unknown #
vertex $-1 $507 $574 #
straight-curve $-1 -79.809564500869783 -48.816164239610963 0 0 0 -1 I I #
edge $-1 $505 -48.816164239610963 $509 48.816164239610963 $503 $575 forward 7 unknown #
straight-curve $-1 0 -48.816164239610963 -10.409506600390934 -1 0 0 I I #
vertex $-1 $384 $576 #
straight-curve $-1 0 48.816164239610963 -10.409506600390934 1 0 0 I I #
point $-1 79.809564500869783 48.816164239610963 -10.409506600390934 #
point $-1 79.809564500869783 -48.816164239610963 -10.409506600390934 #
straight-curve $-1 -79.809564500869783 0 10.409506600390934 0 -1 0 I I #
point $-1 -79.809564500869783 48.816164239610963 10.409506600390934 #
point $-1 -79.809564500869783 -48.816164239610963 10.409506600390934 #
straight-curve $-1 79.809564500869783 -48.816164239610963 0 0 0 -1 I I #
straight-curve $-1 79.809564500869783 48.816164239610963 0 0 0 -1 I I #
coedge $-1 $519 $403 $525 $577 reversed $280 $-1 #
coedge $-1 $403 $518 $406 $523 reversed $280 $-1 #
edge $-1 $521 -44.460914143368967 $411 -26.236386571632671 $410 $578 forward 7 unknown #
vertex $-1 $405 $579 #
straight-curve $-1 -79.809564500869783 -36.659395625551923 14.939479553194527 0 -0.7313536940579346 -0.68199836817093118 I I #
edge $-1 $407 41.517196769417836 $527 48.816164239610963 $519 $580 forward 7 unknown #
point $-1 -79.809564500869783 -41.517196769417836 10.409506600390934 #
coedge $-1 $410 $409 $518 $577 forward $401 $-1 #
point $-1 -61.585036929133487 -48.816164239610963 3.6031091699158027 #
vertex $-1 $523 $581 #
straight-curve $-1 0 -48.816164239610963 10.409506600390934 1 0 0 I I #
vertex $-1 $417 $582 #
point $-1 -72.602556623230839 -41.045801055246422 2.5872058042020614 #
vertex $-1 $421 $583 #
point $-1 -64.792044806772438 -41.045801055246422 2.5872058042020614 #
edge $-1 $534 49.761067803433072 $537 56.567465233908202 $426 $584 forward 7 unknown #
vertex $-1 $440 $585 #
straight-curve $-1 -32.678030690868695 -78.83807487383136 10.409506600390934 0 -1 0 I I #
edge $-1 $537 -20.89514723836842 $437 -2.6706196666321311 $436 $586 forward 7 unknown #
vertex $-1 $536 $587 #
straight-curve $-1 -32.678030690868695 -48.816164239610984 3.6031091699157827 0 0.7313536940579346 0.68199836817093118 I I #
point $-1 -32.678030690868695 -41.517196769417836 10.409506600390934 #
point $-1 -14.453503119132407 -48.816164239610963 3.6031091699158027 #
straight-curve $-1 0 -48.816164239610963 10.409506600390934 1 0 0 I I #
vertex $-1 $443 $588 #
point $-1 -25.471022813229759 -41.045801055246422 2.5872058042020614 #
vertex $-1 $447 $589 #
point $-1 -17.66051099677135 -41.045801055246422 2.5872058042020614 #
edge $-1 $547 49.761067803433072 $550 56.567465233908202 $452 $590 forward 7 unknown #
vertex $-1 $466 $591 #
straight-curve $-1 14.453503119132399 -78.83807487383136 10.409506600390934 0 -1 0 I I #
edge $-1 $550 2.6706196666321276 $463 20.895147238368416 $462 $592 forward 7 unknown #
vertex $-1 $549 $593 #
straight-curve $-1 14.453503119132399 -48.816164239610984 3.6031091699157827 0 0.7313536940579346 0.68199836817093118 I I #
point $-1 14.453503119132399 -41.517196769417836 10.409506600390934 #
point $-1 32.678030690868688 -48.816164239610963 3.6031091699158027 #
straight-curve $-1 0 -48.816164239610963 10.409506600390934 1 0 0 I I #
vertex $-1 $469 $594 #
point $-1 21.660510996771336 -41.045801055246422 2.5872058042020614 #
vertex $-1 $473 $595 #
point $-1 29.471022813229737 -41.045801055246422 2.5872058042020614 #
coedge $-1 $479 $478 $486 $564 reversed $239 $-1 #
edge $-1 $482 61.585036929133487 $567 79.809564500869783 $479 $596 forward 7 unknown #
straight-curve $-1 61.585036929133487 -48.816164239610963 60.170574403824006 0 0 -1 I I #
point $-1 61.585036929133487 -48.816164239610963 10.409506600390934 #
straight-curve $-1 35.348650357500816 -48.816164239610963 3.6031091699158013 1 0 0 I I #
edge $-1 $567 -10.409506600390934 $487 -3.6031091699158027 $486 $597 forward 7 unknown #
point $-1 79.809564500869783 -48.816164239610963 3.6031091699158027 #
point $-1 61.585036929133487 -48.816164239610963 3.6031091699158027 #
vertex $-1 $491 $598 #
straight-curve $-1 79.809564500869783 0 10.409506600390934 0 1 0 I I #
vertex $-1 $494 $599 #
point $-1 68.792044806772424 -41.045801055246422 2.5872058042020614 #
vertex $-1 $498 $600 #
point $-1 76.602556623230839 -41.045801055246422 2.5872058042020614 #
straight-curve $-1 -79.809564500869783 48.816164239610963 0 0 0 -1 I I #
point $-1 -79.809564500869783 -48.816164239610963 -10.409506600390934 #
straight-curve $-1 -79.809564500869783 0 -10.409506600390934 0 1 0 I I #
point $-1 -79.809564500869783 48.816164239610963 -10.409506600390934 #
edge $-1 $527 -10.409506600390934 $521 -3.6031091699158027 $518 $601 forward 7 unknown #
straight-curve $-1 -35.348650357500816 -48.816164239610963 3.6031091699158013 1 0 0 I I #
point $-1 -79.809564500869783 -48.816164239610963 3.6031091699158027 #
straight-curve $-1 -79.809564500869783 0 10.409506600390934 0 -1 0 I I #
point $-1 -79.809564500869783 -48.816164239610963 10.409506600390934 #
point $-1 -74.602556623230839 -39.681804318904561 1.1244984160861931 #
point $-1 -66.792044806772438 -39.681804318904561 1.1244984160861931 #
straight-curve $-1 -32.678030690868695 -48.816164239610963 60.170574403824006 0 0 -1 I I #
point $-1 -32.678030690868695 -48.816164239610963 10.409506600390934 #
straight-curve $-1 -11.782883452500275 -48.816164239610963 3.6031091699158013 1 0 0 I I #
point $-1 -32.678030690868695 -48.816164239610963 3.6031091699158027 #
point $-1 -27.471022813229759 -39.681804318904561 1.1244984160861931 #
point $-1 -19.66051099677135 -39.681804318904561 1.1244984160861931 #
straight-curve $-1 14.453503119132399 -48.816164239610963 60.170574403824006 0 0 -1 I I #
point $-1 14.453503119132399 -48.816164239610963 10.409506600390934 #
straight-curve $-1 11.782883452500272 -48.816164239610963 3.6031091699158013 1 0 0 I I #
point $-1 14.453503119132399 -48.816164239610963 3.6031091699158027 #
point $-1 19.660510996771336 -39.681804318904561 1.1244984160861931 #
point $-1 27.471022813229737 -39.681804318904561 1.1244984160861931 #
straight-curve $-1 0 -48.816164239610963 10.409506600390934 1 0 0 I I #
straight-curve $-1 79.809564500869783 -48.816164239610963 0 0 0 -1 I I #
point $-1 79.809564500869783 -48.816164239610963 10.409506600390934 #
point $-1 66.792044806772424 -39.681804318904561 1.1244984160861931 #
point $-1 74.602556623230839 -39.681804318904561 1.1244984160861931 #
straight-curve $-1 -79.809564500869783 -48.816164239610963 0 0 0 -1 I I #
End-of-ACIS-data 