500 0 18 0           
7 Unknown 11 ACIS 5.0 NT 24 Fri Mar 26 17:14:12 1999 
-1 9.9999999999999995e-007 1e-010 
body $-1 $18 $-1 $19 #
body $-1 $20 $-1 $21 #
body $-1 $22 $-1 $23 #
body $-1 $24 $-1 $25 #
body $-1 $26 $-1 $27 #
body $-1 $28 $-1 $29 #
body $-1 $30 $-1 $31 #
body $-1 $32 $-1 $33 #
body $-1 $34 $-1 $35 #
body $-1 $36 $-1 $37 #
body $-1 $38 $-1 $39 #
body $-1 $40 $-1 $41 #
body $-1 $42 $-1 $43 #
body $-1 $44 $-1 $45 #
body $-1 $46 $-1 $47 #
body $-1 $48 $-1 $49 #
body $-1 $50 $-1 $51 #
body $-1 $52 $-1 $53 #
lump $-1 $-1 $54 $0 #
transform $-1 1 0 0 0 1 0 0 0 1 73.224890896328617 44.237514884712141 11.767284264248772 1 rotate no_reflect no_shear #
lump $-1 $-1 $55 $1 #
transform $-1 1 0 0 0 1 0 0 0 1 73.224890896328617 44.237514884712141 11.767284264248772 1 rotate no_reflect no_shear #
lump $-1 $-1 $56 $2 #
transform $-1 1 0 0 0 1 0 0 0 1 73.224890896328617 44.237514884712141 11.767284264248772 1 rotate no_reflect no_shear #
lump $-1 $-1 $57 $3 #
transform $-1 1 0 0 0 1 0 0 0 1 73.224890896328617 44.237514884712141 11.767284264248772 1 rotate no_reflect no_shear #
lump $-1 $-1 $58 $4 #
transform $-1 1 0 0 0 1 0 0 0 1 73.224890896328617 44.237514884712141 11.767284264248772 1 rotate no_reflect no_shear #
lump $-1 $-1 $59 $5 #
transform $-1 1 0 0 0 1 0 0 0 1 73.224890896328617 44.237514884712141 11.767284264248772 1 rotate no_reflect no_shear #
lump $-1 $-1 $60 $6 #
transform $-1 1 0 0 0 1 0 0 0 1 73.224890896328617 44.237514884712141 11.767284264248772 1 rotate no_reflect no_shear #
lump $-1 $-1 $61 $7 #
transform $-1 1 0 0 0 1 0 0 0 1 73.224890896328617 44.237514884712141 11.767284264248772 1 rotate no_reflect no_shear #
lump $-1 $-1 $62 $8 #
transform $-1 1 0 0 0 1 0 0 0 1 73.224890896328617 44.237514884712141 11.767284264248772 1 rotate no_reflect no_shear #
lump $-1 $-1 $63 $9 #
transform $-1 1 0 0 0 1 0 0 0 1 73.224890896328617 44.237514884712141 11.767284264248772 1 rotate no_reflect no_shear #
lump $-1 $-1 $64 $10 #
transform $-1 1 0 0 0 1 0 0 0 1 73.224890896328617 44.237514884712141 11.767284264248772 1 rotate no_reflect no_shear #
lump $-1 $-1 $65 $11 #
transform $-1 1 0 0 0 1 0 0 0 1 73.224890896328617 44.237514884712141 11.767284264248772 1 rotate no_reflect no_shear #
lump $-1 $-1 $66 $12 #
transform $-1 1 0 0 0 1 0 0 0 1 73.224890896328617 44.237514884712141 11.767284264248772 1 rotate no_reflect no_shear #
lump $-1 $-1 $67 $13 #
transform $-1 1 0 0 0 1 0 0 0 1 73.224890896328617 44.237514884712141 11.767284264248772 1 rotate no_reflect no_shear #
lump $-1 $-1 $68 $14 #
transform $-1 1 0 0 0 1 0 0 0 1 73.224890896328617 44.237514884712141 11.767284264248772 1 rotate no_reflect no_shear #
lump $-1 $-1 $69 $15 #
transform $-1 1 0 0 0 1 0 0 0 1 73.224890896328617 44.237514884712141 11.767284264248772 1 rotate no_reflect no_shear #
lump $-1 $-1 $70 $16 #
transform $-1 1 0 0 0 1 0 0 0 1 73.224890896328617 44.237514884712141 11.767284264248772 1 rotate no_reflect no_shear #
lump $-1 $-1 $71 $17 #
transform $-1 1 0 0 0 1 0 0 0 1 73.224890896328617 44.237514884712141 11.767284264248772 1 rotate no_reflect no_shear #
shell $-1 $-1 $-1 $72 $-1 $18 #
shell $-1 $-1 $-1 $73 $-1 $20 #
shell $-1 $-1 $-1 $74 $-1 $22 #
shell $-1 $-1 $-1 $75 $-1 $24 #
shell $-1 $-1 $-1 $76 $-1 $26 #
shell $-1 $-1 $-1 $77 $-1 $28 #
shell $-1 $-1 $-1 $78 $-1 $30 #
shell $-1 $-1 $-1 $79 $-1 $32 #
shell $-1 $-1 $-1 $80 $-1 $34 #
shell $-1 $-1 $-1 $81 $-1 $36 #
shell $-1 $-1 $-1 $82 $-1 $38 #
shell $-1 $-1 $-1 $83 $-1 $40 #
shell $-1 $-1 $-1 $84 $-1 $42 #
shell $-1 $-1 $-1 $85 $-1 $44 #
shell $-1 $-1 $-1 $86 $-1 $46 #
shell $-1 $-1 $-1 $87 $-1 $48 #
shell $-1 $-1 $-1 $88 $-1 $50 #
shell $-1 $-1 $-1 $89 $-1 $52 #
face $-1 $90 $91 $54 $-1 $92 forward single #
face $-1 $93 $94 $55 $-1 $95 forward single #
face $-1 $96 $97 $56 $-1 $98 reversed single #
face $-1 $99 $100 $57 $-1 $101 forward single #
face $-1 $102 $103 $58 $-1 $104 forward single #
face $-1 $105 $106 $59 $-1 $107 reversed single #
face $-1 $108 $109 $60 $-1 $110 forward single #
face $-1 $111 $112 $61 $-1 $113 forward single #
face $-1 $114 $115 $62 $-1 $116 reversed single #
face $-1 $117 $118 $63 $-1 $119 forward single #
face $-1 $120 $121 $64 $-1 $122 forward single #
face $-1 $123 $124 $65 $-1 $125 reversed single #
face $-1 $126 $127 $66 $-1 $128 forward single #
face $-1 $129 $130 $67 $-1 $131 forward single #
face $-1 $132 $133 $68 $-1 $134 reversed single #
face $-1 $135 $136 $69 $-1 $137 forward single #
face $-1 $138 $139 $70 $-1 $140 forward single #
face $-1 $141 $142 $71 $-1 $143 forward single #
face $-1 $144 $145 $54 $-1 $146 reversed single #
loop $-1 $-1 $147 $72 #
plane-surface $-1 0 0 11.767284264248772 0 0 1 1 0 0 forward_v I I I I #
face $-1 $148 $149 $55 $-1 $150 reversed single #
loop $-1 $-1 $151 $73 #
plane-surface $-1 -73.224890896328617 0 0 1 0 0 0 0 -1 forward_v I I I I #
face $-1 $152 $153 $56 $-1 $154 reversed single #
loop $-1 $-1 $155 $74 #
plane-surface $-1 -43.360721082483934 -161.19751226739982 96.105351866942556 -1 0 0 0 -0.79863551827123203 0.60181501223851219 forward_v I I I I #
face $-1 $156 $157 $57 $-1 $158 forward single #
loop $-1 $159 $160 $75 #
cone-surface $-1 -58.553643373629797 -42.407345111636467 9.567571948538685 0 0.79863551827123203 -0.60181501223851219 0.5 0 0 1 I I 0 1 0.5 forward I I I I #
face $-1 $161 $162 $58 $-1 $163 forward single #
loop $-1 $164 $165 $76 #
cone-surface $-1 -49.437889998942282 -42.407345111636467 9.567571948538685 0 0.79863551827123203 -0.60181501223851219 0.5 0 0 1 I I 0 1 0.5 forward I I I I #
face $-1 $166 $167 $59 $-1 $168 reversed single #
loop $-1 $-1 $169 $77 #
plane-surface $-1 -8.8967952858797403 -161.19751226739982 96.105351866942556 -1 0 0 0 -0.79863551827123203 0.60181501223851219 forward_v I I I I #
face $-1 $170 $171 $60 $-1 $172 forward single #
loop $-1 $173 $174 $78 #
cone-surface $-1 -24.08971757702561 -42.407345111636467 9.567571948538685 0 0.79863551827123203 -0.60181501223851219 0.5 0 0 1 I I 0 1 0.5 forward I I I I #
face $-1 $175 $176 $61 $-1 $177 forward single #
loop $-1 $178 $179 $79 #
cone-surface $-1 -14.973964202338088 -42.407345111636467 9.567571948538685 0 0.79863551827123203 -0.60181501223851219 0.5 0 0 1 I I 0 1 0.5 forward I I I I #
face $-1 $180 $181 $62 $-1 $182 reversed single #
loop $-1 $-1 $183 $80 #
plane-surface $-1 25.567130510724446 -161.19751226739982 96.105351866942556 -1 0 0 0 -0.79863551827123203 0.60181501223851219 forward_v I I I I #
face $-1 $184 $185 $63 $-1 $186 forward single #
loop $-1 $187 $188 $81 #
cone-surface $-1 10.374208219578577 -42.407345111636467 9.567571948538685 0 0.79863551827123203 -0.60181501223851219 0.5 0 0 1 I I 0 1 0.5 forward I I I I #
face $-1 $189 $190 $64 $-1 $191 forward single #
loop $-1 $192 $193 $82 #
cone-surface $-1 19.489961594266106 -42.407345111636467 9.567571948538685 0 0.79863551827123203 -0.60181501223851219 0.5 0 0 1 I I 0 1 0.5 forward I I I I #
face $-1 $194 $195 $65 $-1 $196 reversed single #
loop $-1 $-1 $197 $83 #
plane-surface $-1 60.031056307328647 -161.19751226739982 96.105351866942556 -1 0 0 0 -0.79863551827123203 0.60181501223851219 forward_v I I I I #
face $-1 $198 $199 $66 $-1 $200 forward single #
loop $-1 $201 $202 $84 #
cone-surface $-1 44.838134016182778 -42.407345111636467 9.567571948538685 0 0.79863551827123203 -0.60181501223851219 0.5 0 0 1 I I 0 1 0.5 forward I I I I #
face $-1 $203 $204 $67 $-1 $205 forward single #
loop $-1 $206 $207 $85 #
cone-surface $-1 53.953887390870307 -42.407345111636467 9.567571948538685 0 0.79863551827123203 -0.60181501223851219 0.5 0 0 1 I I 0 1 0.5 forward I I I I #
face $-1 $208 $209 $68 $-1 $210 reversed single #
loop $-1 $-1 $211 $86 #
plane-surface $-1 -64.630812290088144 107.95191114391099 165.70456277834057 1 0 0 0 -0.79863551827123203 -0.60181501223851219 forward_v I I I I #
face $-1 $212 $213 $69 $-1 $214 forward single #
loop $-1 $215 $216 $87 #
cone-surface $-1 -57.202919647986448 40.358473453272801 7.79457408237095 0 -0.79863551827123203 -0.60181501223851219 1.5 0 0 1 I I 0 1 1.5 forward I I I I #
face $-1 $217 $218 $70 $-1 $219 forward single #
loop $-1 $220 $221 $88 #
cone-surface $-1 -46.061080684833904 40.358473453272801 7.79457408237095 0 -0.79863551827123203 -0.60181501223851219 1.5 0 0 1 I I 0 1 1.5 forward I I I I #
face $-1 $222 $223 $71 $-1 $224 forward single #
loop $-1 $225 $226 $89 #
cone-surface $-1 -34.91924172168136 40.358473453272801 7.79457408237095 0 -0.79863551827123203 -0.60181501223851219 1.5 0 0 1 I I 0 1 1.5 forward I I I I #
face $-1 $227 $228 $54 $-1 $229 reversed single #
loop $-1 $-1 $230 $90 #
plane-surface $-1 0 0 -11.767284264248772 0 0 1 1 0 0 forward_v I I I I #
coedge $-1 $231 $232 $233 $234 forward $91 $-1 #
face $-1 $235 $236 $55 $-1 $237 reversed single #
loop $-1 $-1 $238 $93 #
plane-surface $-1 0 44.237514884712141 0 0 -1 0 0 0 -1 forward_v I I I I #
coedge $-1 $239 $240 $241 $242 forward $94 $-1 #
face $-1 $243 $244 $56 $-1 $245 reversed single #
loop $-1 $-1 $246 $96 #
plane-surface $-1 -53.995766686286039 -44.237514884712169 7.9696746450671014 0 -0.79863551827123203 0.60181501223851219 1 0 0 forward_v I I I I #
coedge $-1 $247 $248 $249 $250 reversed $97 $-1 #
face $-1 $-1 $251 $57 $-1 $252 forward single #
loop $-1 $253 $254 $99 #
cone-surface $-1 -58.553643373629797 -41.80836847293304 9.1162106893598001 0 0.79863551827123203 -0.60181501223851219 0.25 0 0 1 I I -0.70710678118654746 0.70710678118654746 0.25 forward I I I I #
loop $-1 $-1 $255 $75 #
coedge $-1 $160 $160 $256 $257 reversed $100 $-1 #
face $-1 $-1 $258 $58 $-1 $259 forward single #
loop $-1 $260 $261 $102 #
cone-surface $-1 -49.437889998942282 -41.80836847293304 9.1162106893598001 0 0.79863551827123203 -0.60181501223851219 0.25 0 0 1 I I -0.70710678118654746 0.70710678118654746 0.25 forward I I I I #
loop $-1 $-1 $262 $76 #
coedge $-1 $165 $165 $263 $264 reversed $103 $-1 #
face $-1 $265 $266 $59 $-1 $267 reversed single #
loop $-1 $-1 $268 $105 #
plane-surface $-1 -19.531840889681845 -44.237514884712169 7.9696746450671014 0 -0.79863551827123203 0.60181501223851219 1 0 0 forward_v I I I I #
coedge $-1 $269 $270 $271 $272 reversed $106 $-1 #
face $-1 $-1 $273 $60 $-1 $274 forward single #
loop $-1 $275 $276 $108 #
cone-surface $-1 -24.08971757702561 -41.80836847293304 9.1162106893598001 0 0.79863551827123203 -0.60181501223851219 0.25 0 0 1 I I -0.70710678118654746 0.70710678118654746 0.25 forward I I I I #
loop $-1 $-1 $277 $78 #
coedge $-1 $174 $174 $278 $279 reversed $109 $-1 #
face $-1 $-1 $280 $61 $-1 $281 forward single #
loop $-1 $282 $283 $111 #
cone-surface $-1 -14.973964202338088 -41.80836847293304 9.1162106893598001 0 0.79863551827123203 -0.60181501223851219 0.25 0 0 1 I I -0.70710678118654746 0.70710678118654746 0.25 forward I I I I #
loop $-1 $-1 $284 $79 #
coedge $-1 $179 $179 $285 $286 reversed $112 $-1 #
face $-1 $287 $288 $62 $-1 $289 reversed single #
loop $-1 $-1 $290 $114 #
plane-surface $-1 14.932084906922341 -44.237514884712169 7.9696746450671014 0 -0.79863551827123203 0.60181501223851219 1 0 0 forward_v I I I I #
coedge $-1 $291 $292 $293 $294 reversed $115 $-1 #
face $-1 $-1 $295 $63 $-1 $296 forward single #
loop $-1 $297 $298 $117 #
cone-surface $-1 10.374208219578577 -41.80836847293304 9.1162106893598001 0 0.79863551827123203 -0.60181501223851219 0.25 0 0 1 I I -0.70710678118654746 0.70710678118654746 0.25 forward I I I I #
loop $-1 $-1 $299 $81 #
coedge $-1 $188 $188 $300 $301 reversed $118 $-1 #
face $-1 $-1 $302 $64 $-1 $303 forward single #
loop $-1 $304 $305 $120 #
cone-surface $-1 19.489961594266106 -41.80836847293304 9.1162106893598001 0 0.79863551827123203 -0.60181501223851219 0.25 0 0 1 I I -0.70710678118654746 0.70710678118654746 0.25 forward I I I I #
loop $-1 $-1 $306 $82 #
coedge $-1 $193 $193 $307 $308 reversed $121 $-1 #
face $-1 $309 $310 $65 $-1 $311 reversed single #
loop $-1 $-1 $312 $123 #
plane-surface $-1 49.396010703526542 -44.237514884712169 7.9696746450671014 0 -0.79863551827123203 0.60181501223851219 1 0 0 forward_v I I I I #
coedge $-1 $313 $314 $315 $316 reversed $124 $-1 #
face $-1 $-1 $317 $66 $-1 $318 forward single #
loop $-1 $319 $320 $126 #
cone-surface $-1 44.838134016182778 -41.80836847293304 9.1162106893598001 0 0.79863551827123203 -0.60181501223851219 0.25 0 0 1 I I -0.70710678118654746 0.70710678118654746 0.25 forward I I I I #
loop $-1 $-1 $321 $84 #
coedge $-1 $202 $202 $322 $323 reversed $127 $-1 #
face $-1 $-1 $324 $67 $-1 $325 forward single #
loop $-1 $326 $327 $129 #
cone-surface $-1 53.953887390870307 -41.80836847293304 9.1162106893598001 0 0.79863551827123203 -0.60181501223851219 0.25 0 0 1 I I -0.70710678118654746 0.70710678118654746 0.25 forward I I I I #
loop $-1 $-1 $328 $85 #
coedge $-1 $207 $207 $329 $330 reversed $130 $-1 #
face $-1 $331 $332 $68 $-1 $333 reversed single #
loop $-1 $-1 $334 $132 #
plane-surface $-1 -46.061080684833904 -9.0080862387766558 77.568885556465119 0 0.79863551827123203 0.60181501223851219 1 0 0 forward_v I I I I #
coedge $-1 $335 $336 $337 $338 reversed $133 $-1 #
face $-1 $-1 $339 $69 $-1 $340 forward single #
loop $-1 $341 $342 $135 #
cone-surface $-1 -57.202919647986448 37.710725071272691 5.7993526221895024 0 -0.79863551827123203 -0.60181501223851219 0.75 0 0 1 I I -0.70710678118654757 0.70710678118654757 0.75 forward I I I I #
loop $-1 $-1 $343 $87 #
coedge $-1 $216 $216 $344 $345 reversed $136 $-1 #
face $-1 $-1 $346 $70 $-1 $347 forward single #
loop $-1 $348 $349 $138 #
cone-surface $-1 -46.061080684833904 37.710725071272691 5.7993526221895024 0 -0.79863551827123203 -0.60181501223851219 0.75 0 0 1 I I -0.70710678118654757 0.70710678118654757 0.75 forward I I I I #
loop $-1 $-1 $350 $88 #
coedge $-1 $221 $221 $351 $352 reversed $139 $-1 #
face $-1 $-1 $353 $71 $-1 $354 forward single #
loop $-1 $355 $356 $141 #
cone-surface $-1 -34.91924172168136 37.710725071272691 5.7993526221895024 0 -0.79863551827123203 -0.60181501223851219 0.75 0 0 1 I I -0.70710678118654757 0.70710678118654757 0.75 forward I I I I #
loop $-1 $-1 $357 $89 #
coedge $-1 $226 $226 $358 $359 reversed $142 $-1 #
face $-1 $360 $361 $54 $-1 $362 reversed single #
loop $-1 $-1 $363 $144 #
plane-surface $-1 0 -44.237514884712141 0 0 1 0 0 0 1 forward_v I I I I #
coedge $-1 $364 $365 $366 $367 forward $145 $-1 #
coedge $-1 $368 $147 $369 $370 forward $91 $-1 #
coedge $-1 $147 $368 $371 $372 forward $91 $-1 #
coedge $-1 $373 $374 $147 $234 reversed $375 $-1 #
edge $-1 $376 -44.237514884712141 $377 44.237514884712141 $233 $378 forward 7 unknown #
face $-1 $379 $380 $55 $-1 $381 reversed single #
loop $-1 $-1 $241 $148 #
plane-surface $-1 -77.521930199448846 0 8.7672842642487723 0 0 1 1 0 0 forward_v I I I I #
coedge $-1 $382 $383 $239 $384 forward $149 $-1 #
coedge $-1 $385 $151 $238 $384 reversed $94 $-1 #
coedge $-1 $151 $385 $386 $387 reversed $94 $-1 #
coedge $-1 $388 $389 $151 $242 reversed $236 $-1 #
edge $-1 $390 -44.237514884712141 $391 44.237514884712141 $241 $392 forward 7 unknown #
face $-1 $393 $394 $56 $-1 $395 reversed single #
loop $-1 $-1 $396 $152 #
plane-surface $-1 -64.630812290088144 -161.19751226739982 96.105351866942556 1 0 0 0 0.79863551827123203 -0.60181501223851219 forward_v I I I I #
coedge $-1 $397 $398 $399 $400 reversed $153 $-1 #
coedge $-1 $248 $155 $401 $402 reversed $97 $-1 #
coedge $-1 $155 $247 $397 $403 reversed $97 $-1 #
coedge $-1 $399 $404 $155 $250 forward $405 $-1 #
edge $-1 $406 36.361241248987767 $407 39.222945276867854 $249 $408 forward 7 unknown #
loop $-1 $-1 $256 $156 #
plane-surface $-1 -53.995766686286039 -44.237514884712169 7.9696746450671014 0 -0.79863551827123203 0.60181501223851219 1 0 0 forward_v I I I I #
loop $-1 $-1 $409 $99 #
coedge $-1 $254 $254 $255 $410 reversed $157 $-1 #
coedge $-1 $255 $255 $254 $410 forward $159 $-1 #
coedge $-1 $256 $256 $160 $257 forward $251 $-1 #
edge $-1 $411 5.7956538020801074e-015 $411 6.2831853071796067 $256 $412 forward 7 unknown #
loop $-1 $-1 $263 $161 #
plane-surface $-1 -53.995766686286039 -44.237514884712169 7.9696746450671014 0 -0.79863551827123203 0.60181501223851219 1 0 0 forward_v I I I I #
loop $-1 $-1 $413 $102 #
coedge $-1 $261 $261 $262 $414 reversed $162 $-1 #
coedge $-1 $262 $262 $261 $414 forward $164 $-1 #
coedge $-1 $263 $263 $165 $264 forward $258 $-1 #
edge $-1 $415 5.7956538020801074e-015 $415 6.2831853071796067 $263 $416 forward 7 unknown #
face $-1 $417 $418 $59 $-1 $419 reversed single #
loop $-1 $-1 $420 $166 #
plane-surface $-1 -30.16688649348395 -161.19751226739982 96.105351866942556 1 0 0 0 0.79863551827123203 -0.60181501223851219 forward_v I I I I #
coedge $-1 $421 $422 $423 $424 reversed $167 $-1 #
coedge $-1 $270 $169 $425 $426 reversed $106 $-1 #
coedge $-1 $169 $269 $421 $427 reversed $106 $-1 #
coedge $-1 $423 $428 $169 $272 forward $429 $-1 #
edge $-1 $430 36.361241248987767 $431 39.222945276867854 $271 $432 forward 7 unknown #
loop $-1 $-1 $278 $170 #
plane-surface $-1 -19.531840889681845 -44.237514884712169 7.9696746450671014 0 -0.79863551827123203 0.60181501223851219 1 0 0 forward_v I I I I #
loop $-1 $-1 $433 $108 #
coedge $-1 $276 $276 $277 $434 reversed $171 $-1 #
coedge $-1 $277 $277 $276 $434 forward $173 $-1 #
coedge $-1 $278 $278 $174 $279 forward $273 $-1 #
edge $-1 $435 5.7956538020801074e-015 $435 6.2831853071796067 $278 $436 forward 7 unknown #
loop $-1 $-1 $285 $175 #
plane-surface $-1 -19.531840889681845 -44.237514884712169 7.9696746450671014 0 -0.79863551827123203 0.60181501223851219 1 0 0 forward_v I I I I #
loop $-1 $-1 $437 $111 #
coedge $-1 $283 $283 $284 $438 reversed $176 $-1 #
coedge $-1 $284 $284 $283 $438 forward $178 $-1 #
coedge $-1 $285 $285 $179 $286 forward $280 $-1 #
edge $-1 $439 5.7956538020801074e-015 $439 6.2831853071796067 $285 $440 forward 7 unknown #
face $-1 $441 $442 $62 $-1 $443 reversed single #
loop $-1 $-1 $444 $180 #
plane-surface $-1 4.2970393031202363 -161.19751226739982 96.105351866942556 1 0 0 0 0.79863551827123203 -0.60181501223851219 forward_v I I I I #
coedge $-1 $445 $446 $447 $448 reversed $181 $-1 #
coedge $-1 $292 $183 $449 $450 reversed $115 $-1 #
coedge $-1 $183 $291 $445 $451 reversed $115 $-1 #
coedge $-1 $447 $452 $183 $294 forward $453 $-1 #
edge $-1 $454 36.361241248987767 $455 39.222945276867854 $293 $456 forward 7 unknown #
loop $-1 $-1 $300 $184 #
plane-surface $-1 14.932084906922341 -44.237514884712169 7.9696746450671014 0 -0.79863551827123203 0.60181501223851219 1 0 0 forward_v I I I I #
loop $-1 $-1 $457 $117 #
coedge $-1 $298 $298 $299 $458 reversed $185 $-1 #
coedge $-1 $299 $299 $298 $458 forward $187 $-1 #
coedge $-1 $300 $300 $188 $301 forward $295 $-1 #
edge $-1 $459 5.7956538020801074e-015 $459 6.2831853071796067 $300 $460 forward 7 unknown #
loop $-1 $-1 $307 $189 #
plane-surface $-1 14.932084906922341 -44.237514884712169 7.9696746450671014 0 -0.79863551827123203 0.60181501223851219 1 0 0 forward_v I I I I #
loop $-1 $-1 $461 $120 #
coedge $-1 $305 $305 $306 $462 reversed $190 $-1 #
coedge $-1 $306 $306 $305 $462 forward $192 $-1 #
coedge $-1 $307 $307 $193 $308 forward $302 $-1 #
edge $-1 $463 5.7956538020801074e-015 $463 6.2831853071796067 $307 $464 forward 7 unknown #
face $-1 $465 $466 $65 $-1 $467 reversed single #
loop $-1 $-1 $468 $194 #
plane-surface $-1 38.760965099724437 -161.19751226739982 96.105351866942556 1 0 0 0 0.79863551827123203 -0.60181501223851219 forward_v I I I I #
coedge $-1 $469 $470 $471 $472 reversed $195 $-1 #
coedge $-1 $314 $197 $473 $474 reversed $124 $-1 #
coedge $-1 $197 $313 $469 $475 reversed $124 $-1 #
coedge $-1 $471 $476 $197 $316 forward $477 $-1 #
edge $-1 $478 36.361241248987767 $479 39.222945276867854 $315 $480 forward 7 unknown #
loop $-1 $-1 $322 $198 #
plane-surface $-1 49.396010703526542 -44.237514884712169 7.9696746450671014 0 -0.79863551827123203 0.60181501223851219 1 0 0 forward_v I I I I #
loop $-1 $-1 $481 $126 #
coedge $-1 $320 $320 $321 $482 reversed $199 $-1 #
coedge $-1 $321 $321 $320 $482 forward $201 $-1 #
coedge $-1 $322 $322 $202 $323 forward $317 $-1 #
edge $-1 $483 5.7956538020801074e-015 $483 6.2831853071796067 $322 $484 forward 7 unknown #
loop $-1 $-1 $329 $203 #
plane-surface $-1 49.396010703526542 -44.237514884712169 7.9696746450671014 0 -0.79863551827123203 0.60181501223851219 1 0 0 forward_v I I I I #
loop $-1 $-1 $485 $129 #
coedge $-1 $327 $327 $328 $486 reversed $204 $-1 #
coedge $-1 $328 $328 $327 $486 forward $206 $-1 #
coedge $-1 $329 $329 $207 $330 forward $324 $-1 #
edge $-1 $487 5.7956538020801074e-015 $487 6.2831853071796067 $329 $488 forward 7 unknown #
face $-1 $489 $490 $68 $-1 $491 forward single #
loop $-1 $-1 $492 $208 #
plane-surface $-1 -27.491349079579663 107.95191114391099 165.70456277834057 -1 0 0 0 0.79863551827123203 0.60181501223851219 forward_v I I I I #
coedge $-1 $493 $494 $495 $496 reversed $209 $-1 #
coedge $-1 $336 $211 $497 $498 reversed $133 $-1 #
coedge $-1 $211 $335 $493 $499 reversed $133 $-1 #
coedge $-1 $495 $500 $211 $338 forward $490 $-1 #
edge $-1 $501 9.7384406872433544 $502 13.398980063528683 $337 $503 forward 7 unknown #
loop $-1 $-1 $344 $212 #
plane-surface $-1 -46.061080684833904 -9.0080862387766558 77.568885556465119 0 0.79863551827123203 0.60181501223851219 1 0 0 forward_v I I I I #
loop $-1 $-1 $504 $135 #
coedge $-1 $342 $342 $343 $505 reversed $213 $-1 #
coedge $-1 $343 $343 $342 $505 forward $215 $-1 #
coedge $-1 $344 $344 $216 $345 forward $339 $-1 #
edge $-1 $506 -9.5921968135758198e-016 $506 6.2831853071795996 $344 $507 forward 7 unknown #
loop $-1 $-1 $351 $217 #
plane-surface $-1 -46.061080684833904 -9.0080862387766558 77.568885556465119 0 0.79863551827123203 0.60181501223851219 1 0 0 forward_v I I I I #
loop $-1 $-1 $508 $138 #
coedge $-1 $349 $349 $350 $509 reversed $218 $-1 #
coedge $-1 $350 $350 $349 $509 forward $220 $-1 #
coedge $-1 $351 $351 $221 $352 forward $346 $-1 #
edge $-1 $510 -9.5921968135758198e-016 $510 6.2831853071795996 $351 $511 forward 7 unknown #
loop $-1 $-1 $358 $222 #
plane-surface $-1 -46.061080684833904 -9.0080862387766558 77.568885556465119 0 0.79863551827123203 0.60181501223851219 1 0 0 forward_v I I I I #
loop $-1 $-1 $512 $141 #
coedge $-1 $356 $356 $357 $513 reversed $223 $-1 #
coedge $-1 $357 $357 $356 $513 forward $225 $-1 #
coedge $-1 $358 $358 $226 $359 forward $353 $-1 #
edge $-1 $514 -9.5921968135758198e-016 $514 6.2831853071795996 $358 $515 forward 7 unknown #
face $-1 $516 $517 $54 $-1 $518 reversed single #
loop $-1 $-1 $519 $227 #
plane-surface $-1 -73.224890896328617 0 0 1 0 0 0 0 -1 forward_v I I I I #
coedge $-1 $520 $371 $521 $522 forward $228 $-1 #
coedge $-1 $523 $230 $520 $524 forward $145 $-1 #
coedge $-1 $230 $523 $525 $526 forward $145 $-1 #
coedge $-1 $374 $373 $230 $367 reversed $375 $-1 #
edge $-1 $527 -44.237514884712141 $528 44.237514884712141 $366 $529 forward 7 unknown #
coedge $-1 $232 $231 $530 $531 forward $91 $-1 #
coedge $-1 $532 $533 $231 $370 reversed $517 $-1 #
edge $-1 $377 -73.224890896328617 $534 73.224890896328617 $369 $535 forward 7 unknown #
coedge $-1 $363 $536 $232 $372 reversed $228 $-1 #
edge $-1 $537 -73.224890896328617 $376 73.224890896328617 $371 $538 forward 7 unknown #
coedge $-1 $366 $233 $536 $539 forward $375 $-1 #
coedge $-1 $233 $366 $532 $540 reversed $375 $-1 #
loop $-1 $-1 $373 $516 #
vertex $-1 $234 $541 #
vertex $-1 $234 $542 #
straight-curve $-1 73.224890896328617 0 11.767284264248772 0 1 0 I I #
face $-1 $543 $544 $55 $-1 $545 forward single #
loop $-1 $-1 $546 $235 #
plane-surface $-1 -81.818969502569075 0 10.267284264248772 1 0 0 0 0 -1 forward_v I I I I #
coedge $-1 $547 $238 $389 $548 reversed $149 $-1 #
coedge $-1 $238 $547 $549 $550 reversed $149 $-1 #
edge $-1 $551 -11.767284264248772 $391 -8.7672842642487723 $238 $552 forward 7 unknown #
coedge $-1 $240 $239 $553 $554 reversed $94 $-1 #
coedge $-1 $555 $556 $240 $387 forward $557 $-1 #
edge $-1 $390 8.7672842642487723 $558 11.767284264248772 $386 $559 forward 7 unknown #
coedge $-1 $560 $241 $556 $561 forward $236 $-1 #
coedge $-1 $241 $560 $382 $548 forward $236 $-1 #
vertex $-1 $387 $562 #
vertex $-1 $384 $563 #
straight-curve $-1 -73.224890896328617 0 8.7672842642487723 0 1 0 I I #
face $-1 $-1 $405 $56 $-1 $564 forward single #
loop $-1 $-1 $565 $243 #
plane-surface $-1 0 -44.237514884712141 0 0 1 0 0 0 1 forward_v I I I I #
coedge $-1 $566 $567 $568 $569 reversed $244 $-1 #
coedge $-1 $570 $246 $248 $403 forward $153 $-1 #
coedge $-1 $246 $570 $566 $571 forward $153 $-1 #
coedge $-1 $568 $249 $246 $400 forward $405 $-1 #
edge $-1 $407 16.362837739340915 $572 37.632928946945128 $399 $573 forward 7 unknown #
coedge $-1 $574 $575 $247 $402 forward $394 $-1 #
edge $-1 $576 -40.083001288404141 $406 -36.285391669222506 $401 $577 forward 7 unknown #
edge $-1 $407 -4.7551223709686408 $576 -4.6896506375148425e-014 $248 $578 forward 7 unknown #
coedge $-1 $249 $568 $574 $579 forward $405 $-1 #
loop $-1 $-1 $568 $393 #
vertex $-1 $402 $580 #
vertex $-1 $250 $581 #
straight-curve $-1 -43.360721082483934 -80.598756133699908 11.767284264248772 0 1 0 I I #
coedge $-1 $409 $409 $-1 $582 reversed $253 $-1 #
edge $-1 $583 0 $583 6.2831853071796004 $254 $584 forward 7 unknown #
vertex $-1 $257 $585 #
ellipse-curve $-1 -58.553643373629797 -42.806662870772101 9.8684794546579528 0 -0.79863551827123203 0.60181501223851219 0.5 0 0 1 I I #
coedge $-1 $413 $413 $-1 $586 reversed $260 $-1 #
edge $-1 $587 0 $587 6.2831853071796004 $261 $588 forward 7 unknown #
vertex $-1 $264 $589 #
ellipse-curve $-1 -49.437889998942282 -42.806662870772101 9.8684794546579528 0 -0.79863551827123203 0.60181501223851219 0.5 0 0 1 I I #
face $-1 $-1 $429 $59 $-1 $590 forward single #
loop $-1 $-1 $591 $265 #
plane-surface $-1 0 -44.237514884712141 0 0 1 0 0 0 1 forward_v I I I I #
coedge $-1 $592 $593 $594 $595 reversed $266 $-1 #
coedge $-1 $596 $268 $270 $427 forward $167 $-1 #
coedge $-1 $268 $596 $592 $597 forward $167 $-1 #
coedge $-1 $594 $271 $268 $424 forward $429 $-1 #
edge $-1 $431 -0.86912515896118236 $598 20.400966048643028 $423 $599 forward 7 unknown #
coedge $-1 $600 $601 $269 $426 forward $418 $-1 #
edge $-1 $602 -40.083001288404141 $430 -36.285391669222506 $425 $603 forward 7 unknown #
edge $-1 $431 -4.7551223709686408 $602 -4.6896506375148425e-014 $270 $604 forward 7 unknown #
coedge $-1 $271 $594 $600 $605 forward $429 $-1 #
loop $-1 $-1 $594 $417 #
vertex $-1 $426 $606 #
vertex $-1 $272 $607 #
straight-curve $-1 -8.8967952858797403 -80.598756133699908 11.767284264248772 0 1 0 I I #
coedge $-1 $433 $433 $-1 $608 reversed $275 $-1 #
edge $-1 $609 0 $609 6.2831853071796004 $276 $610 forward 7 unknown #
vertex $-1 $279 $611 #
ellipse-curve $-1 -24.08971757702561 -42.806662870772101 9.8684794546579528 0 -0.79863551827123203 0.60181501223851219 0.5 0 0 1 I I #
coedge $-1 $437 $437 $-1 $612 reversed $282 $-1 #
edge $-1 $613 0 $613 6.2831853071796004 $283 $614 forward 7 unknown #
vertex $-1 $286 $615 #
ellipse-curve $-1 -14.973964202338088 -42.806662870772101 9.8684794546579528 0 -0.79863551827123203 0.60181501223851219 0.5 0 0 1 I I #
face $-1 $-1 $453 $62 $-1 $616 forward single #
loop $-1 $-1 $617 $287 #
plane-surface $-1 0 -44.237514884712141 0 0 1 0 0 0 1 forward_v I I I I #
coedge $-1 $618 $619 $620 $621 reversed $288 $-1 #
coedge $-1 $622 $290 $292 $451 forward $181 $-1 #
coedge $-1 $290 $622 $618 $623 forward $181 $-1 #
coedge $-1 $620 $293 $290 $448 forward $453 $-1 #
edge $-1 $455 -18.101088057263276 $624 3.1690031503409344 $447 $625 forward 7 unknown #
coedge $-1 $626 $627 $291 $450 forward $442 $-1 #
edge $-1 $628 -40.083001288404141 $454 -36.285391669222506 $449 $629 forward 7 unknown #
edge $-1 $455 -4.7551223709686408 $628 -4.6896506375148425e-014 $292 $630 forward 7 unknown #
coedge $-1 $293 $620 $626 $631 forward $453 $-1 #
loop $-1 $-1 $620 $441 #
vertex $-1 $450 $632 #
vertex $-1 $294 $633 #
straight-curve $-1 25.567130510724446 -80.598756133699908 11.767284264248772 0 1 0 I I #
coedge $-1 $457 $457 $-1 $634 reversed $297 $-1 #
edge $-1 $635 0 $635 6.2831853071796004 $298 $636 forward 7 unknown #
vertex $-1 $301 $637 #
ellipse-curve $-1 10.374208219578577 -42.806662870772101 9.8684794546579528 0 -0.79863551827123203 0.60181501223851219 0.5 0 0 1 I I #
coedge $-1 $461 $461 $-1 $638 reversed $304 $-1 #
edge $-1 $639 0 $639 6.2831853071796004 $305 $640 forward 7 unknown #
vertex $-1 $308 $641 #
ellipse-curve $-1 19.489961594266106 -42.806662870772101 9.8684794546579528 0 -0.79863551827123203 0.60181501223851219 0.5 0 0 1 I I #
face $-1 $-1 $477 $65 $-1 $642 forward single #
loop $-1 $-1 $643 $309 #
plane-surface $-1 0 -44.237514884712141 0 0 1 0 0 0 1 forward_v I I I I #
coedge $-1 $644 $645 $646 $647 reversed $310 $-1 #
coedge $-1 $648 $312 $314 $475 forward $195 $-1 #
coedge $-1 $312 $648 $644 $649 forward $195 $-1 #
coedge $-1 $646 $315 $312 $472 forward $477 $-1 #
edge $-1 $479 -35.333050955565376 $650 -14.062959747961166 $471 $651 forward 7 unknown #
coedge $-1 $652 $653 $313 $474 forward $466 $-1 #
edge $-1 $654 -40.083001288404141 $478 -36.285391669222506 $473 $655 forward 7 unknown #
edge $-1 $479 -4.7551223709686408 $654 -4.6896506375148425e-014 $314 $656 forward 7 unknown #
coedge $-1 $315 $646 $652 $657 forward $477 $-1 #
loop $-1 $-1 $646 $465 #
vertex $-1 $474 $658 #
vertex $-1 $316 $659 #
straight-curve $-1 60.031056307328647 -80.598756133699908 11.767284264248772 0 1 0 I I #
coedge $-1 $481 $481 $-1 $660 reversed $319 $-1 #
edge $-1 $661 0 $661 6.2831853071796004 $320 $662 forward 7 unknown #
vertex $-1 $323 $663 #
ellipse-curve $-1 44.838134016182778 -42.806662870772101 9.8684794546579528 0 -0.79863551827123203 0.60181501223851219 0.5 0 0 1 I I #
coedge $-1 $485 $485 $-1 $664 reversed $326 $-1 #
edge $-1 $665 0 $665 6.2831853071796004 $327 $666 forward 7 unknown #
vertex $-1 $330 $667 #
ellipse-curve $-1 53.953887390870307 -42.806662870772101 9.8684794546579528 0 -0.79863551827123203 0.60181501223851219 0.5 0 0 1 I I #
face $-1 $-1 $668 $68 $-1 $669 reversed single #
loop $-1 $-1 $337 $331 #
plane-surface $-1 0 0 11.767284264248772 0 0 1 1 0 0 forward_v I I I I #
coedge $-1 $670 $671 $672 $673 reversed $332 $-1 #
coedge $-1 $674 $334 $336 $499 forward $209 $-1 #
coedge $-1 $334 $674 $670 $675 forward $209 $-1 #
coedge $-1 $672 $337 $334 $496 forward $490 $-1 #
edge $-1 $502 -41.600271947671189 $676 -4.4608087371627114 $495 $677 forward 7 unknown #
coedge $-1 $678 $679 $335 $498 forward $668 $-1 #
edge $-1 $680 -75.942697086671998 $501 -71.084997124921514 $497 $681 forward 7 unknown #
edge $-1 $502 82.392530493326817 $680 88.475029769424253 $336 $682 forward 7 unknown #
coedge $-1 $337 $672 $678 $683 forward $490 $-1 #
vertex $-1 $498 $684 #
vertex $-1 $338 $685 #
straight-curve $-1 -64.630812290088144 53.975955571955495 11.767284264248772 0 -1 0 I I #
coedge $-1 $504 $504 $-1 $686 reversed $341 $-1 #
edge $-1 $687 0 $687 6.2831853071796004 $342 $688 forward 7 unknown #
vertex $-1 $345 $689 #
ellipse-curve $-1 -57.202919647986448 42.407245196569484 9.3384342833735161 0 0.79863551827123203 0.60181501223851219 1.5 0 0 1 I I #
coedge $-1 $508 $508 $-1 $690 reversed $348 $-1 #
edge $-1 $691 0 $691 6.2831853071796004 $349 $692 forward 7 unknown #
vertex $-1 $352 $693 #
ellipse-curve $-1 -46.061080684833904 42.407245196569484 9.3384342833735161 0 0.79863551827123203 0.60181501223851219 1.5 0 0 1 I I #
coedge $-1 $512 $512 $-1 $694 reversed $355 $-1 #
edge $-1 $695 0 $695 6.2831853071796004 $356 $696 forward 7 unknown #
vertex $-1 $359 $697 #
ellipse-curve $-1 -34.91924172168136 42.407245196569484 9.3384342833735161 0 0.79863551827123203 0.60181501223851219 1.5 0 0 1 I I #
face $-1 $-1 $375 $54 $-1 $698 reversed single #
loop $-1 $-1 $532 $360 #
plane-surface $-1 0 44.237514884712141 0 0 -1 0 0 0 -1 forward_v I I I I #
coedge $-1 $699 $530 $533 $700 forward $361 $-1 #
coedge $-1 $536 $363 $364 $524 reversed $228 $-1 #
coedge $-1 $530 $699 $363 $522 reversed $361 $-1 #
edge $-1 $537 -11.767284264248772 $701 11.767284264248772 $521 $702 forward 7 unknown #
coedge $-1 $365 $364 $699 $703 forward $145 $-1 #
edge $-1 $528 -73.224890896328617 $701 73.224890896328617 $520 $704 forward 7 unknown #
coedge $-1 $533 $532 $365 $526 reversed $517 $-1 #
edge $-1 $705 -73.224890896328617 $527 73.224890896328617 $525 $706 forward 7 unknown #
vertex $-1 $367 $707 #
vertex $-1 $539 $708 #
straight-curve $-1 73.224890896328617 0 -11.767284264248772 0 -1 0 I I #
coedge $-1 $519 $521 $368 $531 reversed $361 $-1 #
edge $-1 $534 -44.237514884712141 $537 44.237514884712141 $530 $709 forward 7 unknown #
coedge $-1 $525 $369 $374 $540 forward $517 $-1 #
coedge $-1 $369 $525 $519 $700 reversed $517 $-1 #
vertex $-1 $370 $710 #
straight-curve $-1 0 44.237514884712141 11.767284264248772 -1 0 0 I I #
coedge $-1 $371 $520 $373 $539 reversed $228 $-1 #
vertex $-1 $531 $711 #
straight-curve $-1 0 -44.237514884712141 11.767284264248772 1 0 0 I I #
edge $-1 $376 -11.767284264248772 $528 11.767284264248772 $373 $712 forward 7 unknown #
edge $-1 $377 -11.767284264248772 $527 11.767284264248772 $374 $713 forward 7 unknown #
point $-1 73.224890896328617 -44.237514884712141 11.767284264248772 #
point $-1 73.224890896328617 44.237514884712141 11.767284264248772 #
face $-1 $-1 $557 $55 $-1 $714 reversed single #
loop $-1 $-1 $553 $379 #
plane-surface $-1 0 0 11.767284264248772 0 0 1 1 0 0 forward_v I I I I #
coedge $-1 $715 $716 $547 $717 forward $380 $-1 #
coedge $-1 $383 $382 $546 $717 reversed $149 $-1 #
edge $-1 $718 -4.2970393031202292 $391 4.2970393031202292 $382 $719 forward 7 unknown #
coedge $-1 $720 $553 $383 $550 forward $544 $-1 #
edge $-1 $551 73.224890896328617 $721 81.818969502569075 $383 $722 forward 7 unknown #
vertex $-1 $550 $723 #
straight-curve $-1 -73.224890896328617 44.237514884712141 0 0 0 -1 I I #
coedge $-1 $549 $724 $385 $554 forward $544 $-1 #
edge $-1 $558 -44.237514884712141 $551 44.237514884712141 $553 $725 forward 7 unknown #
coedge $-1 $726 $386 $724 $727 reversed $557 $-1 #
coedge $-1 $386 $726 $388 $561 reversed $557 $-1 #
loop $-1 $-1 $386 $543 #
vertex $-1 $387 $728 #
straight-curve $-1 -73.224890896328617 -44.237514884712141 0 0 0 1 I I #
coedge $-1 $389 $388 $715 $729 forward $236 $-1 #
edge $-1 $390 -4.2970393031202292 $730 4.2970393031202292 $556 $731 forward 7 unknown #
point $-1 -73.224890896328617 -44.237514884712141 8.7672842642487723 #
point $-1 -73.224890896328617 44.237514884712141 8.7672842642487723 #
plane-surface $-1 0 0 11.767284264248772 0 0 1 1 0 0 forward_v I I I I #
coedge $-1 $575 $574 $567 $732 forward $394 $-1 #
coedge $-1 $567 $396 $398 $571 reversed $244 $-1 #
coedge $-1 $396 $566 $565 $732 reversed $244 $-1 #
coedge $-1 $404 $399 $396 $569 forward $405 $-1 #
edge $-1 $572 -39.222945276867854 $733 -36.361241248987767 $568 $734 forward 7 unknown #
coedge $-1 $398 $397 $575 $735 reversed $153 $-1 #
edge $-1 $736 4.6896506375148425e-014 $572 4.7551223709686408 $566 $737 forward 7 unknown #
vertex $-1 $400 $738 #
straight-curve $-1 -26.99788334314302 -41.375810856832054 11.767284264248772 -1 0 0 I I #
coedge $-1 $565 $401 $404 $579 reversed $394 $-1 #
coedge $-1 $401 $565 $570 $735 forward $394 $-1 #
vertex $-1 $402 $739 #
straight-curve $-1 -43.360721082483934 -44.237514884712141 48.052675933471278 0 0 1 I I #
straight-curve $-1 -43.360721082483934 -44.237514884712169 7.9696746450671014 0 -0.60181501223851219 -0.79863551827123203 I I #
edge $-1 $733 -64.630812290088144 $406 -43.360721082483934 $574 $740 forward 7 unknown #
point $-1 -43.360721082483934 -44.237514884712141 11.767284264248772 #
point $-1 -43.360721082483934 -41.375810856832054 11.767284264248772 #
edge $-1 $741 1 $741 0 $409 $-1 forward 7 unknown #
vertex $-1 $410 $742 #
ellipse-curve $-1 -58.553643373629797 -42.008027352500847 9.2666644424194278 0 -0.79863551827123203 0.60181501223851219 0.5 0 0 1 I I #
point $-1 -58.053643373629797 -42.80666287077208 9.8684794546579404 #
edge $-1 $743 1 $743 0 $413 $-1 forward 7 unknown #
vertex $-1 $414 $744 #
ellipse-curve $-1 -49.437889998942282 -42.008027352500847 9.2666644424194278 0 -0.79863551827123203 0.60181501223851219 0.5 0 0 1 I I #
point $-1 -48.937889998942282 -42.80666287077208 9.8684794546579404 #
plane-surface $-1 0 0 11.767284264248772 0 0 1 1 0 0 forward_v I I I I #
coedge $-1 $601 $600 $593 $745 forward $418 $-1 #
coedge $-1 $593 $420 $422 $597 reversed $266 $-1 #
coedge $-1 $420 $592 $591 $745 reversed $266 $-1 #
coedge $-1 $428 $423 $420 $595 forward $429 $-1 #
edge $-1 $598 -39.222945276867854 $746 -36.361241248987767 $594 $747 forward 7 unknown #
coedge $-1 $422 $421 $601 $748 reversed $167 $-1 #
edge $-1 $749 4.6896506375148425e-014 $598 4.7551223709686408 $592 $750 forward 7 unknown #
vertex $-1 $424 $751 #
straight-curve $-1 -9.7659204448409227 -41.375810856832054 11.767284264248772 -1 0 0 I I #
coedge $-1 $591 $425 $428 $605 reversed $418 $-1 #
coedge $-1 $425 $591 $596 $748 forward $418 $-1 #
vertex $-1 $426 $752 #
straight-curve $-1 -8.8967952858797403 -44.237514884712141 48.052675933471278 0 0 1 I I #
straight-curve $-1 -8.8967952858797403 -44.237514884712169 7.9696746450671014 0 -0.60181501223851219 -0.79863551827123203 I I #
edge $-1 $746 -30.16688649348395 $430 -8.8967952858797403 $600 $753 forward 7 unknown #
point $-1 -8.8967952858797403 -44.237514884712141 11.767284264248772 #
point $-1 -8.8967952858797403 -41.375810856832054 11.767284264248772 #
edge $-1 $754 1 $754 0 $433 $-1 forward 7 unknown #
vertex $-1 $434 $755 #
ellipse-curve $-1 -24.08971757702561 -42.008027352500847 9.2666644424194278 0 -0.79863551827123203 0.60181501223851219 0.5 0 0 1 I I #
point $-1 -23.58971757702561 -42.80666287077208 9.8684794546579404 #
edge $-1 $756 1 $756 0 $437 $-1 forward 7 unknown #
vertex $-1 $438 $757 #
ellipse-curve $-1 -14.973964202338088 -42.008027352500847 9.2666644424194278 0 -0.79863551827123203 0.60181501223851219 0.5 0 0 1 I I #
point $-1 -14.473964202338088 -42.80666287077208 9.8684794546579404 #
plane-surface $-1 0 0 11.767284264248772 0 0 1 1 0 0 forward_v I I I I #
coedge $-1 $627 $626 $619 $758 forward $442 $-1 #
coedge $-1 $619 $444 $446 $623 reversed $288 $-1 #
coedge $-1 $444 $618 $617 $758 reversed $288 $-1 #
coedge $-1 $452 $447 $444 $621 forward $453 $-1 #
edge $-1 $624 -39.222945276867854 $759 -36.361241248987767 $620 $760 forward 7 unknown #
coedge $-1 $446 $445 $627 $761 reversed $181 $-1 #
edge $-1 $762 4.6896506375148425e-014 $624 4.7551223709686408 $618 $763 forward 7 unknown #
vertex $-1 $448 $764 #
straight-curve $-1 7.4660424534611707 -41.375810856832054 11.767284264248772 -1 0 0 I I #
coedge $-1 $617 $449 $452 $631 reversed $442 $-1 #
coedge $-1 $449 $617 $622 $761 forward $442 $-1 #
vertex $-1 $450 $765 #
straight-curve $-1 25.567130510724446 -44.237514884712141 48.052675933471278 0 0 1 I I #
straight-curve $-1 25.567130510724446 -44.237514884712169 7.9696746450671014 0 -0.60181501223851219 -0.79863551827123203 I I #
edge $-1 $759 4.2970393031202363 $454 25.567130510724446 $626 $766 forward 7 unknown #
point $-1 25.567130510724446 -44.237514884712141 11.767284264248772 #
point $-1 25.567130510724446 -41.375810856832054 11.767284264248772 #
edge $-1 $767 1 $767 0 $457 $-1 forward 7 unknown #
vertex $-1 $458 $768 #
ellipse-curve $-1 10.374208219578577 -42.008027352500847 9.2666644424194278 0 -0.79863551827123203 0.60181501223851219 0.5 0 0 1 I I #
point $-1 10.874208219578577 -42.80666287077208 9.8684794546579404 #
edge $-1 $769 1 $769 0 $461 $-1 forward 7 unknown #
vertex $-1 $462 $770 #
ellipse-curve $-1 19.489961594266106 -42.008027352500847 9.2666644424194278 0 -0.79863551827123203 0.60181501223851219 0.5 0 0 1 I I #
point $-1 19.989961594266106 -42.80666287077208 9.8684794546579404 #
plane-surface $-1 0 0 11.767284264248772 0 0 1 1 0 0 forward_v I I I I #
coedge $-1 $653 $652 $645 $771 forward $466 $-1 #
coedge $-1 $645 $468 $470 $649 reversed $310 $-1 #
coedge $-1 $468 $644 $643 $771 reversed $310 $-1 #
coedge $-1 $476 $471 $468 $647 forward $477 $-1 #
edge $-1 $650 -39.222945276867854 $772 -36.361241248987767 $646 $773 forward 7 unknown #
coedge $-1 $470 $469 $653 $774 reversed $195 $-1 #
edge $-1 $775 4.6896506375148425e-014 $650 4.7551223709686408 $644 $776 forward 7 unknown #
vertex $-1 $472 $777 #
straight-curve $-1 24.698005351763271 -41.375810856832054 11.767284264248772 -1 0 0 I I #
coedge $-1 $643 $473 $476 $657 reversed $466 $-1 #
coedge $-1 $473 $643 $648 $774 forward $466 $-1 #
vertex $-1 $474 $778 #
straight-curve $-1 60.031056307328647 -44.237514884712141 48.052675933471278 0 0 1 I I #
straight-curve $-1 60.031056307328647 -44.237514884712169 7.9696746450671014 0 -0.60181501223851219 -0.79863551827123203 I I #
edge $-1 $772 38.760965099724437 $478 60.031056307328647 $652 $779 forward 7 unknown #
point $-1 60.031056307328647 -44.237514884712141 11.767284264248772 #
point $-1 60.031056307328647 -41.375810856832054 11.767284264248772 #
edge $-1 $780 1 $780 0 $481 $-1 forward 7 unknown #
vertex $-1 $482 $781 #
ellipse-curve $-1 44.838134016182778 -42.008027352500847 9.2666644424194278 0 -0.79863551827123203 0.60181501223851219 0.5 0 0 1 I I #
point $-1 45.338134016182778 -42.80666287077208 9.8684794546579404 #
edge $-1 $782 1 $782 0 $485 $-1 forward 7 unknown #
vertex $-1 $486 $783 #
ellipse-curve $-1 53.953887390870307 -42.008027352500847 9.2666644424194278 0 -0.79863551827123203 0.60181501223851219 0.5 0 0 1 I I #
point $-1 54.453887390870307 -42.80666287077208 9.8684794546579404 #
loop $-1 $-1 $497 $489 #
plane-surface $-1 0 44.237514884712141 0 0 -1 0 0 0 -1 forward_v I I I I #
coedge $-1 $671 $492 $494 $675 reversed $332 $-1 #
coedge $-1 $492 $670 $784 $785 reversed $332 $-1 #
coedge $-1 $500 $495 $492 $673 forward $490 $-1 #
edge $-1 $676 -13.398980063528683 $786 -9.7384406872433544 $672 $787 forward 7 unknown #
coedge $-1 $494 $493 $679 $788 reversed $209 $-1 #
edge $-1 $789 -88.475029769424253 $676 -82.392530493326817 $670 $790 forward 7 unknown #
vertex $-1 $496 $791 #
straight-curve $-1 -23.030540342416952 40.576975508426806 11.767284264248779 1 0 0 I I #
coedge $-1 $784 $497 $500 $683 reversed $668 $-1 #
coedge $-1 $497 $784 $674 $788 forward $668 $-1 #
vertex $-1 $498 $792 #
straight-curve $-1 -64.630812290088144 44.237514884712141 82.852281389170287 0 0 1 I I #
straight-curve $-1 -64.630812290088144 -9.0080862387766558 77.568885556465119 0 0.60181501223851219 -0.79863551827123203 I I #
edge $-1 $786 27.491349079579663 $501 64.630812290088144 $678 $793 forward 7 unknown #
point $-1 -64.630812290088144 44.237514884712141 11.767284264248772 #
point $-1 -64.630812290088144 40.576975508426813 11.767284264248772 #
edge $-1 $794 1 $794 0 $504 $-1 forward 7 unknown #
vertex $-1 $505 $795 #
ellipse-curve $-1 -57.202919647986448 38.309701709976117 6.2507138813683865 0 0.79863551827123203 0.60181501223851219 1.5 0 0 1 I I #
point $-1 -55.702919647986448 42.407245196569477 9.3384342833735126 #
edge $-1 $796 1 $796 0 $508 $-1 forward 7 unknown #
vertex $-1 $509 $797 #
ellipse-curve $-1 -46.061080684833904 38.309701709976117 6.2507138813683865 0 0.79863551827123203 0.60181501223851219 1.5 0 0 1 I I #
point $-1 -44.561080684833904 42.407245196569477 9.3384342833735126 #
edge $-1 $798 1 $798 0 $512 $-1 forward 7 unknown #
vertex $-1 $513 $799 #
ellipse-curve $-1 -34.91924172168136 38.309701709976117 6.2507138813683865 0 0.79863551827123203 0.60181501223851219 1.5 0 0 1 I I #
point $-1 -33.41924172168136 42.407245196569477 9.3384342833735126 #
plane-surface $-1 73.224890896328617 0 0 -1 0 0 0 0 1 forward_v I I I I #
coedge $-1 $521 $519 $523 $703 reversed $361 $-1 #
edge $-1 $534 -11.767284264248772 $705 11.767284264248772 $533 $800 forward 7 unknown #
vertex $-1 $703 $801 #
straight-curve $-1 -73.224890896328617 -44.237514884712141 0 0 0 -1 I I #
edge $-1 $701 -44.237514884712141 $705 44.237514884712141 $699 $802 forward 7 unknown #
straight-curve $-1 0 -44.237514884712141 -11.767284264248772 -1 0 0 I I #
vertex $-1 $526 $803 #
straight-curve $-1 0 44.237514884712141 -11.767284264248772 1 0 0 I I #
point $-1 73.224890896328617 44.237514884712141 -11.767284264248772 #
point $-1 73.224890896328617 -44.237514884712141 -11.767284264248772 #
straight-curve $-1 -73.224890896328617 0 11.767284264248772 0 -1 0 I I #
point $-1 -73.224890896328617 44.237514884712141 11.767284264248772 #
point $-1 -73.224890896328617 -44.237514884712141 11.767284264248772 #
straight-curve $-1 73.224890896328617 -44.237514884712141 0 0 0 -1 I I #
straight-curve $-1 73.224890896328617 44.237514884712141 0 0 0 -1 I I #
plane-surface $-1 0 -44.237514884712141 0 0 1 0 0 0 1 forward_v I I I I #
coedge $-1 $804 $546 $560 $729 reversed $380 $-1 #
coedge $-1 $546 $804 $720 $805 reversed $380 $-1 #
edge $-1 $721 -1.5 $718 1.5 $547 $806 forward 7 unknown #
vertex $-1 $548 $807 #
straight-curve $-1 -77.521930199448846 44.237514884712141 8.7672842642487723 1 0 0 I I #
coedge $-1 $724 $549 $716 $805 forward $544 $-1 #
vertex $-1 $550 $808 #
straight-curve $-1 0 44.237514884712141 11.767284264248772 -1 0 0 I I #
point $-1 -73.224890896328617 44.237514884712141 11.767284264248772 #
coedge $-1 $553 $720 $555 $727 forward $544 $-1 #
straight-curve $-1 -73.224890896328617 0 11.767284264248772 0 1 0 I I #
coedge $-1 $556 $555 $804 $809 forward $557 $-1 #
edge $-1 $810 -81.818969502569075 $558 -73.224890896328617 $555 $811 forward 7 unknown #
point $-1 -73.224890896328617 -44.237514884712141 11.767284264248772 #
edge $-1 $730 -44.237514884712141 $718 44.237514884712141 $715 $812 forward 7 unknown #
vertex $-1 $729 $813 #
straight-curve $-1 -77.521930199448846 -44.237514884712141 8.7672842642487723 -1 0 0 I I #
edge $-1 $733 36.285391669222506 $736 40.083001288404141 $565 $814 forward 7 unknown #
vertex $-1 $579 $815 #
straight-curve $-1 -64.630812290088144 -80.598756133699908 11.767284264248772 0 -1 0 I I #
edge $-1 $736 -37.632928946945128 $576 -16.362837739340915 $575 $816 forward 7 unknown #
vertex $-1 $735 $817 #
straight-curve $-1 -64.630812290088144 -44.237514884712169 7.9696746450671014 0 0.60181501223851219 0.79863551827123203 I I #
point $-1 -64.630812290088144 -41.375810856832054 11.767284264248772 #
point $-1 -43.360721082483934 -44.237514884712141 7.9696746450671387 #
straight-curve $-1 0 -44.237514884712141 11.767284264248772 1 0 0 I I #
vertex $-1 $582 $818 #
point $-1 -58.053643373629797 -42.008027352500847 9.2666644424194278 #
vertex $-1 $586 $819 #
point $-1 -48.937889998942282 -42.008027352500847 9.2666644424194278 #
edge $-1 $746 36.285391669222506 $749 40.083001288404141 $591 $820 forward 7 unknown #
vertex $-1 $605 $821 #
straight-curve $-1 -30.16688649348395 -80.598756133699908 11.767284264248772 0 -1 0 I I #
edge $-1 $749 -20.400966048643028 $602 0.86912515896118236 $601 $822 forward 7 unknown #
vertex $-1 $748 $823 #
straight-curve $-1 -30.16688649348395 -44.237514884712169 7.9696746450671014 0 0.60181501223851219 0.79863551827123203 I I #
point $-1 -30.16688649348395 -41.375810856832054 11.767284264248772 #
point $-1 -8.8967952858797403 -44.237514884712141 7.9696746450671387 #
straight-curve $-1 0 -44.237514884712141 11.767284264248772 1 0 0 I I #
vertex $-1 $608 $824 #
point $-1 -23.58971757702561 -42.008027352500847 9.2666644424194278 #
vertex $-1 $612 $825 #
point $-1 -14.473964202338088 -42.008027352500847 9.2666644424194278 #
edge $-1 $759 36.285391669222506 $762 40.083001288404141 $617 $826 forward 7 unknown #
vertex $-1 $631 $827 #
straight-curve $-1 4.2970393031202363 -80.598756133699908 11.767284264248772 0 -1 0 I I #
edge $-1 $762 -3.1690031503409344 $628 18.101088057263276 $627 $828 forward 7 unknown #
vertex $-1 $761 $829 #
straight-curve $-1 4.2970393031202363 -44.237514884712169 7.9696746450671014 0 0.60181501223851219 0.79863551827123203 I I #
point $-1 4.2970393031202363 -41.375810856832054 11.767284264248772 #
point $-1 25.567130510724446 -44.237514884712141 7.9696746450671387 #
straight-curve $-1 0 -44.237514884712141 11.767284264248772 1 0 0 I I #
vertex $-1 $634 $830 #
point $-1 10.874208219578577 -42.008027352500847 9.2666644424194278 #
vertex $-1 $638 $831 #
point $-1 19.989961594266106 -42.008027352500847 9.2666644424194278 #
edge $-1 $772 36.285391669222506 $775 40.083001288404141 $643 $832 forward 7 unknown #
vertex $-1 $657 $833 #
straight-curve $-1 38.760965099724437 -80.598756133699908 11.767284264248772 0 -1 0 I I #
edge $-1 $775 14.062959747961166 $654 35.333050955565376 $653 $834 forward 7 unknown #
vertex $-1 $774 $835 #
straight-curve $-1 38.760965099724437 -44.237514884712169 7.9696746450671014 0 0.60181501223851219 0.79863551827123203 I I #
point $-1 38.760965099724437 -41.375810856832054 11.767284264248772 #
point $-1 60.031056307328647 -44.237514884712141 7.9696746450671387 #
straight-curve $-1 0 -44.237514884712141 11.767284264248772 1 0 0 I I #
vertex $-1 $660 $836 #
point $-1 45.338134016182778 -42.008027352500847 9.2666644424194278 #
vertex $-1 $664 $837 #
point $-1 54.453887390870307 -42.008027352500847 9.2666644424194278 #
coedge $-1 $679 $678 $671 $785 forward $668 $-1 #
edge $-1 $786 71.084997124921514 $789 75.942697086671998 $784 $838 forward 7 unknown #
vertex $-1 $683 $839 #
straight-curve $-1 -27.491349079579663 53.975955571955495 11.767284264248772 0 1 0 I I #
edge $-1 $789 4.4608087371627114 $680 41.600271947671189 $679 $840 forward 7 unknown #
vertex $-1 $788 $841 #
straight-curve $-1 -27.491349079579663 -9.0080862387766558 77.568885556465119 0 -0.60181501223851219 0.79863551827123203 I I #
point $-1 -27.491349079579663 40.576975508426813 11.767284264248772 #
point $-1 -64.630812290088144 44.237514884712141 6.9095843024982884 #
straight-curve $-1 0 44.237514884712141 11.767284264248772 -1 0 0 I I #
vertex $-1 $686 $842 #
point $-1 -55.702919647986448 38.309701709976117 6.2507138813683865 #
vertex $-1 $690 $843 #
point $-1 -44.561080684833904 38.309701709976117 6.2507138813683865 #
vertex $-1 $694 $844 #
point $-1 -33.41924172168136 38.309701709976117 6.2507138813683865 #
straight-curve $-1 -73.224890896328617 44.237514884712141 0 0 0 -1 I I #
point $-1 -73.224890896328617 -44.237514884712141 -11.767284264248772 #
straight-curve $-1 -73.224890896328617 0 -11.767284264248772 0 1 0 I I #
point $-1 -73.224890896328617 44.237514884712141 -11.767284264248772 #
coedge $-1 $716 $715 $726 $809 reversed $380 $-1 #
edge $-1 $721 -44.237514884712141 $810 44.237514884712141 $716 $845 forward 7 unknown #
straight-curve $-1 -81.818969502569075 44.237514884712141 10.267284264248772 0 0 -1 I I #
point $-1 -81.818969502569075 44.237514884712141 8.7672842642487723 #
point $-1 -81.818969502569075 44.237514884712141 11.767284264248772 #
edge $-1 $810 -1.5 $730 1.5 $804 $846 forward 7 unknown #
vertex $-1 $805 $847 #
straight-curve $-1 0 -44.237514884712141 11.767284264248772 1 0 0 I I #
straight-curve $-1 -81.818969502569075 0 8.7672842642487723 0 1 0 I I #
point $-1 -81.818969502569075 -44.237514884712141 8.7672842642487723 #
straight-curve $-1 -64.630812290088144 -44.237514884712141 48.052675933471278 0 0 -1 I I #
point $-1 -64.630812290088144 -44.237514884712141 11.767284264248772 #
straight-curve $-1 -26.99788334314302 -44.237514884712141 7.9696746450671352 1 0 0 I I #
point $-1 -64.630812290088144 -44.237514884712141 7.9696746450671387 #
point $-1 -58.553643373629797 -41.608709593365234 8.9657569363001723 #
point $-1 -49.437889998942282 -41.608709593365234 8.9657569363001723 #
straight-curve $-1 -30.16688649348395 -44.237514884712141 48.052675933471278 0 0 -1 I I #
point $-1 -30.16688649348395 -44.237514884712141 11.767284264248772 #
straight-curve $-1 -9.7659204448409227 -44.237514884712141 7.9696746450671352 1 0 0 I I #
point $-1 -30.16688649348395 -44.237514884712141 7.9696746450671387 #
point $-1 -24.08971757702561 -41.608709593365234 8.9657569363001723 #
point $-1 -14.973964202338088 -41.608709593365234 8.9657569363001723 #
straight-curve $-1 4.2970393031202363 -44.237514884712141 48.052675933471278 0 0 -1 I I #
point $-1 4.2970393031202363 -44.237514884712141 11.767284264248772 #
straight-curve $-1 7.4660424534611707 -44.237514884712141 7.9696746450671352 1 0 0 I I #
point $-1 4.2970393031202363 -44.237514884712141 7.9696746450671387 #
point $-1 10.374208219578577 -41.608709593365234 8.9657569363001723 #
point $-1 19.489961594266106 -41.608709593365234 8.9657569363001723 #
straight-curve $-1 38.760965099724437 -44.237514884712141 48.052675933471278 0 0 -1 I I #
point $-1 38.760965099724437 -44.237514884712141 11.767284264248772 #
straight-curve $-1 24.698005351763271 -44.237514884712141 7.9696746450671352 1 0 0 I I #
point $-1 38.760965099724437 -44.237514884712141 7.9696746450671387 #
point $-1 44.838134016182778 -41.608709593365234 8.9657569363001723 #
point $-1 53.953887390870307 -41.608709593365234 8.9657569363001723 #
straight-curve $-1 -27.491349079579663 44.237514884712141 82.852281389170287 0 0 -1 I I #
point $-1 -27.491349079579663 44.237514884712141 11.767284264248772 #
straight-curve $-1 -23.030540342416952 44.237514884712141 6.9095843024982813 -1 0 0 I I #
point $-1 -27.491349079579663 44.237514884712141 6.9095843024982884 #
point $-1 -57.202919647986448 37.111748432569264 5.3479913630106184 #
point $-1 -46.061080684833904 37.111748432569264 5.3479913630106184 #
point $-1 -34.91924172168136 37.111748432569264 5.3479913630106184 #
straight-curve $-1 -81.818969502569075 0 11.767284264248772 0 -1 0 I I #
straight-curve $-1 -81.818969502569075 -44.237514884712141 10.267284264248772 0 0 -1 I I #
point $-1 -81.818969502569075 -44.237514884712141 11.767284264248772 #
End-of-ACIS-data 