500 0 10 0           
7 Unknown 11 ACIS 5.0 NT 24 Fri Mar 26 18:32:47 1999 
-1 9.9999999999999995e-007 1e-010 
body $-1 $10 $-1 $11 #
body $-1 $12 $-1 $13 #
body $-1 $14 $-1 $15 #
body $-1 $16 $-1 $17 #
body $-1 $18 $-1 $19 #
body $-1 $20 $-1 $21 #
body $-1 $22 $-1 $23 #
body $-1 $24 $-1 $25 #
body $-1 $26 $-1 $27 #
body $-1 $28 $-1 $29 #
lump $-1 $-1 $30 $0 #
transform $-1 1 0 0 0 1 0 0 0 1 54.120303964354378 26.417817126629309 6.3993084468884796 1 rotate no_reflect no_shear #
lump $-1 $-1 $31 $1 #
transform $-1 1 0 0 0 1 0 0 0 1 54.120303964354378 26.417817126629309 6.3993084468884796 1 rotate no_reflect no_shear #
lump $-1 $-1 $32 $2 #
transform $-1 1 0 0 0 1 0 0 0 1 54.120303964354378 26.417817126629309 6.3993084468884796 1 rotate no_reflect no_shear #
lump $-1 $-1 $33 $3 #
transform $-1 1 0 0 0 1 0 0 0 1 54.120303964354378 26.417817126629309 6.3993084468884796 1 rotate no_reflect no_shear #
lump $-1 $-1 $34 $4 #
transform $-1 1 0 0 0 1 0 0 0 1 54.120303964354378 26.417817126629309 6.3993084468884796 1 rotate no_reflect no_shear #
lump $-1 $-1 $35 $5 #
transform $-1 1 0 0 0 1 0 0 0 1 54.120303964354378 26.417817126629309 6.3993084468884796 1 rotate no_reflect no_shear #
lump $-1 $-1 $36 $6 #
transform $-1 1 0 0 0 1 0 0 0 1 54.120303964354378 26.417817126629309 6.3993084468884796 1 rotate no_reflect no_shear #
lump $-1 $-1 $37 $7 #
transform $-1 1 0 0 0 1 0 0 0 1 54.120303964354378 26.417817126629309 6.3993084468884796 1 rotate no_reflect no_shear #
lump $-1 $-1 $38 $8 #
transform $-1 1 0 0 0 1 0 0 0 1 54.120303964354378 26.417817126629309 6.3993084468884796 1 rotate no_reflect no_shear #
lump $-1 $-1 $39 $9 #
transform $-1 1 0 0 0 1 0 0 0 1 54.120303964354378 26.417817126629309 6.3993084468884796 1 rotate no_reflect no_shear #
shell $-1 $-1 $-1 $40 $-1 $10 #
shell $-1 $-1 $-1 $41 $-1 $12 #
shell $-1 $-1 $-1 $42 $-1 $14 #
shell $-1 $-1 $-1 $43 $-1 $16 #
shell $-1 $-1 $-1 $44 $-1 $18 #
shell $-1 $-1 $-1 $45 $-1 $20 #
shell $-1 $-1 $-1 $46 $-1 $22 #
shell $-1 $-1 $-1 $47 $-1 $24 #
shell $-1 $-1 $-1 $48 $-1 $26 #
shell $-1 $-1 $-1 $49 $-1 $28 #
face $-1 $50 $51 $30 $-1 $52 forward single #
face $-1 $53 $54 $31 $-1 $55 forward single #
face $-1 $56 $57 $32 $-1 $58 reversed single #
face $-1 $59 $60 $33 $-1 $61 forward single #
face $-1 $62 $63 $34 $-1 $64 forward single #
face $-1 $65 $66 $35 $-1 $67 forward single #
face $-1 $68 $69 $36 $-1 $70 reversed single #
face $-1 $71 $72 $37 $-1 $73 forward single #
face $-1 $74 $75 $38 $-1 $76 forward single #
face $-1 $77 $78 $39 $-1 $79 forward single #
face $-1 $80 $81 $30 $-1 $82 reversed single #
loop $-1 $-1 $83 $40 #
plane-surface $-1 0 0 6.3993084468884796 0 0 1 1 0 0 forward_v I I I I #
face $-1 $84 $85 $31 $-1 $86 reversed single #
loop $-1 $-1 $87 $41 #
plane-surface $-1 -50.346672766139157 0 -3.3993084468884796 0 0 1 1 0 0 forward_v I I I I #
face $-1 $88 $89 $32 $-1 $90 reversed single #
loop $-1 $-1 $91 $42 #
plane-surface $-1 -12.343829815871061 -86.945197734377771 89.950794609618157 1 0 0 0 0.55919291073839883 -0.82903756765294845 forward_v I I I I #
face $-1 $92 $93 $33 $-1 $94 forward single #
loop $-1 $95 $96 $43 #
cone-surface $-1 -6.7165938628757473 -20.666132433149215 1.5762874527820108 0 0.55919291073839883 -0.82903756765294845 2.5 0 0 1 I I 0 1 2.5 forward I I I I #
face $-1 $97 $98 $34 $-1 $99 forward single #
loop $-1 $100 $101 $44 #
cone-surface $-1 1.7242600666172194 -20.666132433149215 1.5762874527820108 0 0.55919291073839883 -0.82903756765294845 2.5 0 0 1 I I 0 1 2.5 forward I I I I #
face $-1 $102 $103 $35 $-1 $104 forward single #
loop $-1 $105 $106 $45 #
cone-surface $-1 10.165113996110193 -20.666132433149215 1.5762874527820108 0 0.55919291073839883 -0.82903756765294845 2.5 0 0 1 I I 0 1 2.5 forward I I I I #
face $-1 $107 $108 $36 $-1 $109 reversed single #
loop $-1 $-1 $110 $46 #
plane-surface $-1 -12.343829815871061 43.142472027655437 119.49610671840729 1 0 0 0 -0.55919291073839883 -0.82903756765294845 forward_v I I I I #
face $-1 $111 $112 $37 $-1 $113 forward single #
loop $-1 $114 $115 $47 #
cone-surface $-1 -6.7165938628757473 20.666132433149208 1.5762874527820117 0 -0.55919291073839883 -0.82903756765294845 2.5 0 0 1 I I 0 1 2.5 forward I I I I #
face $-1 $116 $117 $38 $-1 $118 forward single #
loop $-1 $119 $120 $48 #
cone-surface $-1 1.7242600666172194 20.666132433149208 1.5762874527820117 0 -0.55919291073839883 -0.82903756765294845 2.5 0 0 1 I I 0 1 2.5 forward I I I I #
face $-1 $121 $122 $39 $-1 $123 forward single #
loop $-1 $124 $125 $49 #
cone-surface $-1 10.165113996110193 20.666132433149208 1.5762874527820117 0 -0.55919291073839883 -0.82903756765294845 2.5 0 0 1 I I 0 1 2.5 forward I I I I #
face $-1 $126 $127 $30 $-1 $128 reversed single #
loop $-1 $-1 $129 $50 #
plane-surface $-1 0 0 -6.3993084468884796 0 0 1 1 0 0 forward_v I I I I #
coedge $-1 $130 $131 $132 $133 forward $51 $-1 #
face $-1 $134 $135 $31 $-1 $136 reversed single #
loop $-1 $-1 $137 $53 #
plane-surface $-1 -46.573041567923937 0 -4.8993084468884796 -1 0 0 0 0 1 forward_v I I I I #
coedge $-1 $138 $139 $140 $141 forward $54 $-1 #
face $-1 $142 $143 $32 $-1 $144 reversed single #
loop $-1 $-1 $145 $56 #
plane-surface $-1 1.7242600666172194 -26.417817126629309 0.21526429112500978 0 -0.55919291073839883 0.82903756765294845 1 0 0 forward_v I I I I #
coedge $-1 $146 $147 $148 $149 reversed $57 $-1 #
face $-1 $-1 $150 $33 $-1 $151 forward single #
loop $-1 $152 $153 $59 #
cone-surface $-1 -6.7165938628757473 -18.799567761009186 -1.1910084230089142 0 0.55919291073839883 -0.82903756765294845 1.25 0 0 1 I I -0.70710678118654746 0.70710678118654746 1.25 forward I I I I #
loop $-1 $-1 $154 $43 #
coedge $-1 $96 $96 $155 $156 reversed $60 $-1 #
face $-1 $-1 $157 $34 $-1 $158 forward single #
loop $-1 $159 $160 $62 #
cone-surface $-1 1.7242600666172194 -18.799567761009186 -1.1910084230089142 0 0.55919291073839883 -0.82903756765294845 1.25 0 0 1 I I -0.70710678118654746 0.70710678118654746 1.25 forward I I I I #
loop $-1 $-1 $161 $44 #
coedge $-1 $101 $101 $162 $163 reversed $63 $-1 #
face $-1 $-1 $164 $35 $-1 $165 forward single #
loop $-1 $166 $167 $65 #
cone-surface $-1 10.165113996110193 -18.799567761009186 -1.1910084230089142 0 0.55919291073839883 -0.82903756765294845 1.25 0 0 1 I I -0.70710678118654746 0.70710678118654746 1.25 forward I I I I #
loop $-1 $-1 $168 $45 #
coedge $-1 $106 $106 $169 $170 reversed $66 $-1 #
face $-1 $171 $172 $36 $-1 $173 reversed single #
loop $-1 $-1 $174 $68 #
plane-surface $-1 1.7242600666172194 -17.384908580093025 29.760576399914143 0 0.55919291073839883 0.82903756765294845 1 0 0 forward_v I I I I #
coedge $-1 $175 $176 $177 $178 reversed $69 $-1 #
face $-1 $-1 $179 $37 $-1 $180 forward single #
loop $-1 $181 $182 $71 #
cone-surface $-1 -6.7165938628757473 18.799567761009179 -1.1910084230089133 0 -0.55919291073839883 -0.82903756765294845 1.25 0 0 1 I I -0.70710678118654746 0.70710678118654746 1.25 forward I I I I #
loop $-1 $-1 $183 $47 #
coedge $-1 $115 $115 $184 $185 reversed $72 $-1 #
face $-1 $-1 $186 $38 $-1 $187 forward single #
loop $-1 $188 $189 $74 #
cone-surface $-1 1.7242600666172194 18.799567761009179 -1.1910084230089133 0 -0.55919291073839883 -0.82903756765294845 1.25 0 0 1 I I -0.70710678118654746 0.70710678118654746 1.25 forward I I I I #
loop $-1 $-1 $190 $48 #
coedge $-1 $120 $120 $191 $192 reversed $75 $-1 #
face $-1 $-1 $193 $39 $-1 $194 forward single #
loop $-1 $195 $196 $77 #
cone-surface $-1 10.165113996110193 18.799567761009179 -1.1910084230089133 0 -0.55919291073839883 -0.82903756765294845 1.25 0 0 1 I I -0.70710678118654746 0.70710678118654746 1.25 forward I I I I #
loop $-1 $-1 $197 $49 #
coedge $-1 $125 $125 $198 $199 reversed $78 $-1 #
face $-1 $200 $201 $30 $-1 $202 reversed single #
loop $-1 $-1 $203 $80 #
plane-surface $-1 0 -26.417817126629309 0 0 1 0 0 0 1 forward_v I I I I #
coedge $-1 $204 $205 $206 $207 forward $81 $-1 #
coedge $-1 $208 $83 $209 $210 forward $51 $-1 #
coedge $-1 $83 $208 $211 $212 forward $51 $-1 #
coedge $-1 $213 $214 $83 $133 reversed $215 $-1 #
edge $-1 $216 -26.417817126629309 $217 26.417817126629309 $132 $218 forward 7 unknown #
face $-1 $219 $220 $31 $-1 $221 reversed single #
loop $-1 $-1 $222 $84 #
plane-surface $-1 0 0 -6.3993084468884796 0 0 1 1 0 0 forward_v I I I I #
coedge $-1 $223 $140 $224 $225 reversed $85 $-1 #
coedge $-1 $226 $87 $227 $228 reversed $54 $-1 #
coedge $-1 $87 $226 $229 $230 reversed $54 $-1 #
coedge $-1 $137 $231 $87 $141 reversed $85 $-1 #
edge $-1 $232 -26.417817126629309 $233 26.417817126629309 $140 $234 forward 7 unknown #
face $-1 $235 $236 $32 $-1 $237 forward single #
loop $-1 $-1 $238 $88 #
plane-surface $-1 15.7923499491055 -86.945197734377771 89.950794609618157 -1 0 0 0 -0.55919291073839883 0.82903756765294845 forward_v I I I I #
coedge $-1 $239 $240 $241 $242 reversed $89 $-1 #
coedge $-1 $147 $91 $243 $244 reversed $57 $-1 #
coedge $-1 $91 $146 $239 $245 reversed $57 $-1 #
coedge $-1 $241 $246 $91 $149 forward $247 $-1 #
edge $-1 $248 38.576088857920595 $249 44.760133013684069 $148 $250 forward 7 unknown #
loop $-1 $-1 $155 $92 #
plane-surface $-1 1.7242600666172194 -26.417817126629309 0.21526429112500978 0 -0.55919291073839883 0.82903756765294845 1 0 0 forward_v I I I I #
loop $-1 $-1 $251 $59 #
coedge $-1 $153 $153 $154 $252 reversed $93 $-1 #
coedge $-1 $154 $154 $153 $252 forward $95 $-1 #
coedge $-1 $155 $155 $96 $156 forward $150 $-1 #
edge $-1 $253 -5.6827941271038126e-016 $253 6.2831853071795996 $155 $254 forward 7 unknown #
loop $-1 $-1 $162 $97 #
plane-surface $-1 1.7242600666172194 -26.417817126629309 0.21526429112500978 0 -0.55919291073839883 0.82903756765294845 1 0 0 forward_v I I I I #
loop $-1 $-1 $255 $62 #
coedge $-1 $160 $160 $161 $256 reversed $98 $-1 #
coedge $-1 $161 $161 $160 $256 forward $100 $-1 #
coedge $-1 $162 $162 $101 $163 forward $157 $-1 #
edge $-1 $257 -5.6827941271038126e-016 $257 6.2831853071795996 $162 $258 forward 7 unknown #
loop $-1 $-1 $169 $102 #
plane-surface $-1 1.7242600666172194 -26.417817126629309 0.21526429112500978 0 -0.55919291073839883 0.82903756765294845 1 0 0 forward_v I I I I #
loop $-1 $-1 $259 $65 #
coedge $-1 $167 $167 $168 $260 reversed $103 $-1 #
coedge $-1 $168 $168 $167 $260 forward $105 $-1 #
coedge $-1 $169 $169 $106 $170 forward $164 $-1 #
edge $-1 $261 -5.6827941271038126e-016 $261 6.2831853071795996 $169 $262 forward 7 unknown #
face $-1 $263 $264 $36 $-1 $265 reversed single #
loop $-1 $-1 $266 $107 #
plane-surface $-1 15.7923499491055 43.142472027655437 119.49610671840729 -1 0 0 0 0.55919291073839883 0.82903756765294845 forward_v I I I I #
coedge $-1 $267 $268 $269 $270 reversed $108 $-1 #
coedge $-1 $176 $110 $271 $272 reversed $69 $-1 #
coedge $-1 $110 $175 $267 $273 reversed $69 $-1 #
coedge $-1 $269 $274 $110 $178 forward $275 $-1 #
edge $-1 $276 -4.8465811128015908 $277 4.3216412067245535 $177 $278 forward 7 unknown #
loop $-1 $-1 $184 $111 #
plane-surface $-1 1.7242600666172194 -17.384908580093025 29.760576399914143 0 0.55919291073839883 0.82903756765294845 1 0 0 forward_v I I I I #
loop $-1 $-1 $279 $71 #
coedge $-1 $182 $182 $183 $280 reversed $112 $-1 #
coedge $-1 $183 $183 $182 $280 forward $114 $-1 #
coedge $-1 $184 $184 $115 $185 forward $179 $-1 #
edge $-1 $281 5.6827941271038126e-016 $281 6.2831853071796013 $184 $282 forward 7 unknown #
loop $-1 $-1 $191 $116 #
plane-surface $-1 1.7242600666172194 -17.384908580093025 29.760576399914143 0 0.55919291073839883 0.82903756765294845 1 0 0 forward_v I I I I #
loop $-1 $-1 $283 $74 #
coedge $-1 $189 $189 $190 $284 reversed $117 $-1 #
coedge $-1 $190 $190 $189 $284 forward $119 $-1 #
coedge $-1 $191 $191 $120 $192 forward $186 $-1 #
edge $-1 $285 5.6827941271038126e-016 $285 6.2831853071796013 $191 $286 forward 7 unknown #
loop $-1 $-1 $198 $121 #
plane-surface $-1 1.7242600666172194 -17.384908580093025 29.760576399914143 0 0.55919291073839883 0.82903756765294845 1 0 0 forward_v I I I I #
loop $-1 $-1 $287 $77 #
coedge $-1 $196 $196 $197 $288 reversed $122 $-1 #
coedge $-1 $197 $197 $196 $288 forward $124 $-1 #
coedge $-1 $198 $198 $125 $199 forward $193 $-1 #
edge $-1 $289 5.6827941271038126e-016 $289 6.2831853071796013 $198 $290 forward 7 unknown #
face $-1 $291 $292 $30 $-1 $293 reversed single #
loop $-1 $-1 $294 $126 #
plane-surface $-1 -54.120303964354378 0 0 1 0 0 0 0 -1 forward_v I I I I #
coedge $-1 $295 $211 $296 $297 forward $127 $-1 #
coedge $-1 $298 $129 $295 $299 forward $81 $-1 #
coedge $-1 $129 $298 $300 $301 forward $81 $-1 #
coedge $-1 $214 $213 $129 $207 reversed $215 $-1 #
edge $-1 $302 -26.417817126629309 $303 26.417817126629309 $206 $304 forward 7 unknown #
coedge $-1 $131 $130 $305 $306 forward $51 $-1 #
coedge $-1 $307 $308 $130 $210 reversed $292 $-1 #
edge $-1 $217 -54.120303964354378 $309 54.120303964354378 $209 $310 forward 7 unknown #
coedge $-1 $203 $311 $131 $212 reversed $127 $-1 #
edge $-1 $312 -54.120303964354378 $216 54.120303964354378 $211 $313 forward 7 unknown #
coedge $-1 $206 $132 $311 $314 forward $215 $-1 #
coedge $-1 $132 $206 $307 $315 reversed $215 $-1 #
loop $-1 $-1 $213 $291 #
vertex $-1 $133 $316 #
vertex $-1 $133 $317 #
straight-curve $-1 54.120303964354378 0 6.3993084468884796 0 1 0 I I #
face $-1 $318 $319 $31 $-1 $320 reversed single #
loop $-1 $-1 $224 $134 #
plane-surface $-1 0 -26.417817126629309 0 0 1 0 0 0 1 forward_v I I I I #
coedge $-1 $321 $322 $223 $323 forward $135 $-1 #
coedge $-1 $231 $137 $222 $323 reversed $85 $-1 #
coedge $-1 $229 $324 $137 $225 forward $220 $-1 #
edge $-1 $325 -3.9496542234442398 $232 -0.94965422344423978 $224 $326 forward 7 unknown #
coedge $-1 $139 $138 $327 $328 reversed $54 $-1 #
coedge $-1 $329 $330 $138 $228 forward $331 $-1 #
edge $-1 $332 -28.946967581284799 $233 -21.399705184854358 $227 $333 forward 7 unknown #
coedge $-1 $334 $224 $139 $230 forward $220 $-1 #
edge $-1 $232 21.399705184854358 $335 28.946967581284799 $229 $336 forward 7 unknown #
coedge $-1 $140 $223 $329 $337 reversed $85 $-1 #
vertex $-1 $230 $338 #
vertex $-1 $228 $339 #
straight-curve $-1 -46.573041567923937 0 -3.3993084468884796 0 1 0 I I #
face $-1 $-1 $247 $32 $-1 $340 reversed single #
loop $-1 $-1 $341 $142 #
plane-surface $-1 0 0 6.3993084468884796 0 0 1 1 0 0 forward_v I I I I #
coedge $-1 $342 $343 $344 $345 reversed $143 $-1 #
coedge $-1 $346 $145 $147 $245 forward $89 $-1 #
coedge $-1 $145 $346 $342 $347 forward $89 $-1 #
coedge $-1 $344 $148 $145 $242 forward $247 $-1 #
edge $-1 $249 -13.205959849179671 $348 14.93021991579689 $241 $349 forward 7 unknown #
coedge $-1 $350 $351 $146 $244 forward $236 $-1 #
edge $-1 $352 -26.223004060085721 $248 -17.054781740559577 $243 $353 forward 7 unknown #
edge $-1 $249 0 $352 11.058874383077587 $147 $354 forward 7 unknown #
coedge $-1 $148 $344 $350 $355 reversed $247 $-1 #
loop $-1 $-1 $344 $235 #
vertex $-1 $355 $356 #
vertex $-1 $149 $357 #
straight-curve $-1 -12.343829815871061 -26.417817126629309 44.975397304809078 0 0 -1 I I #
coedge $-1 $251 $251 $-1 $358 reversed $152 $-1 #
edge $-1 $359 0 $359 6.2831853071796004 $153 $360 forward 7 unknown #
vertex $-1 $156 $361 #
ellipse-curve $-1 -6.7165938628757473 -21.833705966866241 3.307286369006742 0 -0.55919291073839883 0.82903756765294845 2.5 0 0 1 I I #
coedge $-1 $255 $255 $-1 $362 reversed $159 $-1 #
edge $-1 $363 0 $363 6.2831853071796004 $160 $364 forward 7 unknown #
vertex $-1 $163 $365 #
ellipse-curve $-1 1.7242600666172194 -21.833705966866241 3.307286369006742 0 -0.55919291073839883 0.82903756765294845 2.5 0 0 1 I I #
coedge $-1 $259 $259 $-1 $366 reversed $166 $-1 #
edge $-1 $367 0 $367 6.2831853071796004 $167 $368 forward 7 unknown #
vertex $-1 $170 $369 #
ellipse-curve $-1 10.165113996110193 -21.833705966866241 3.307286369006742 0 -0.55919291073839883 0.82903756765294845 2.5 0 0 1 I I #
face $-1 $-1 $275 $36 $-1 $370 forward single #
loop $-1 $-1 $371 $171 #
plane-surface $-1 0 26.417817126629309 0 0 -1 0 0 0 -1 forward_v I I I I #
coedge $-1 $372 $373 $374 $375 reversed $172 $-1 #
coedge $-1 $376 $174 $176 $273 forward $108 $-1 #
coedge $-1 $174 $376 $372 $377 forward $108 $-1 #
coedge $-1 $374 $177 $174 $270 forward $275 $-1 #
edge $-1 $277 -13.205959849179671 $378 14.93021991579689 $269 $379 forward 7 unknown #
coedge $-1 $380 $381 $175 $272 forward $264 $-1 #
edge $-1 $382 -59.532789068078635 $276 -53.348744912315169 $271 $383 forward 7 unknown #
edge $-1 $277 41.776759870181031 $382 52.835634253258618 $176 $384 forward 7 unknown #
coedge $-1 $177 $374 $380 $385 forward $275 $-1 #
loop $-1 $-1 $374 $263 #
vertex $-1 $272 $386 #
vertex $-1 $178 $387 #
straight-curve $-1 -12.343829815871061 21.571236013827718 6.399308446888476 0 -1 0 I I #
coedge $-1 $279 $279 $-1 $388 reversed $181 $-1 #
edge $-1 $389 0 $389 6.2831853071796004 $182 $390 forward 7 unknown #
vertex $-1 $185 $391 #
ellipse-curve $-1 -6.7165938628757473 21.833705966866233 3.3072863690067429 0 0.55919291073839883 0.82903756765294845 2.5 0 0 1 I I #
coedge $-1 $283 $283 $-1 $392 reversed $188 $-1 #
edge $-1 $393 0 $393 6.2831853071796004 $189 $394 forward 7 unknown #
vertex $-1 $192 $395 #
ellipse-curve $-1 1.7242600666172194 21.833705966866233 3.3072863690067429 0 0.55919291073839883 0.82903756765294845 2.5 0 0 1 I I #
coedge $-1 $287 $287 $-1 $396 reversed $195 $-1 #
edge $-1 $397 0 $397 6.2831853071796004 $196 $398 forward 7 unknown #
vertex $-1 $199 $399 #
ellipse-curve $-1 10.165113996110193 21.833705966866233 3.3072863690067429 0 0.55919291073839883 0.82903756765294845 2.5 0 0 1 I I #
face $-1 $-1 $215 $30 $-1 $400 reversed single #
loop $-1 $-1 $307 $200 #
plane-surface $-1 0 26.417817126629309 0 0 -1 0 0 0 -1 forward_v I I I I #
coedge $-1 $401 $305 $308 $402 forward $201 $-1 #
coedge $-1 $311 $203 $204 $299 reversed $127 $-1 #
coedge $-1 $305 $401 $203 $297 reversed $201 $-1 #
edge $-1 $312 -6.3993084468884796 $403 6.3993084468884796 $296 $404 forward 7 unknown #
coedge $-1 $205 $204 $401 $405 forward $81 $-1 #
edge $-1 $303 -54.120303964354378 $403 54.120303964354378 $295 $406 forward 7 unknown #
coedge $-1 $308 $307 $205 $301 reversed $292 $-1 #
edge $-1 $407 -54.120303964354378 $302 54.120303964354378 $300 $408 forward 7 unknown #
vertex $-1 $207 $409 #
vertex $-1 $314 $410 #
straight-curve $-1 54.120303964354378 0 -6.3993084468884796 0 -1 0 I I #
coedge $-1 $294 $296 $208 $306 reversed $201 $-1 #
edge $-1 $309 -26.417817126629309 $312 26.417817126629309 $305 $411 forward 7 unknown #
coedge $-1 $300 $209 $214 $315 forward $292 $-1 #
coedge $-1 $209 $300 $294 $402 reversed $292 $-1 #
vertex $-1 $210 $412 #
straight-curve $-1 0 26.417817126629309 6.3993084468884796 -1 0 0 I I #
coedge $-1 $211 $295 $213 $314 reversed $127 $-1 #
vertex $-1 $306 $413 #
straight-curve $-1 0 -26.417817126629309 6.3993084468884796 1 0 0 I I #
edge $-1 $216 -6.3993084468884796 $303 6.3993084468884796 $213 $414 forward 7 unknown #
edge $-1 $217 -6.3993084468884796 $302 6.3993084468884796 $214 $415 forward 7 unknown #
point $-1 54.120303964354378 -26.417817126629309 6.3993084468884796 #
point $-1 54.120303964354378 26.417817126629309 6.3993084468884796 #
face $-1 $-1 $331 $31 $-1 $416 reversed single #
loop $-1 $-1 $327 $219 #
plane-surface $-1 -54.120303964354378 0 0 1 0 0 0 0 -1 forward_v I I I I #
coedge $-1 $417 $222 $324 $418 forward $135 $-1 #
coedge $-1 $222 $417 $419 $420 forward $135 $-1 #
edge $-1 $421 -26.417817126629309 $325 26.417817126629309 $222 $422 forward 7 unknown #
coedge $-1 $224 $334 $321 $418 reversed $220 $-1 #
vertex $-1 $418 $423 #
straight-curve $-1 -46.573041567923937 -26.417817126629309 -2.4496542234442398 0 0 1 I I #
coedge $-1 $424 $425 $226 $328 forward $319 $-1 #
edge $-1 $335 -26.417817126629309 $332 26.417817126629309 $327 $426 forward 7 unknown #
coedge $-1 $419 $227 $231 $337 forward $331 $-1 #
coedge $-1 $227 $419 $424 $427 reversed $331 $-1 #
loop $-1 $-1 $329 $318 #
vertex $-1 $427 $428 #
straight-curve $-1 -25.173336383069579 26.417817126629309 -3.3993084468884796 1 0 0 I I #
coedge $-1 $324 $229 $425 $429 forward $220 $-1 #
vertex $-1 $429 $430 #
straight-curve $-1 -25.173336383069579 -26.417817126629309 -3.3993084468884796 -1 0 0 I I #
edge $-1 $233 0.94965422344423978 $421 3.9496542234442398 $329 $431 forward 7 unknown #
point $-1 -46.573041567923937 -26.417817126629309 -3.3993084468884796 #
point $-1 -46.573041567923937 26.417817126629309 -3.3993084468884796 #
plane-surface $-1 0 -26.417817126629309 0 0 1 0 0 0 1 forward_v I I I I #
coedge $-1 $351 $350 $343 $432 forward $236 $-1 #
coedge $-1 $343 $238 $240 $347 reversed $143 $-1 #
coedge $-1 $238 $342 $341 $432 reversed $143 $-1 #
coedge $-1 $246 $241 $238 $345 forward $247 $-1 #
edge $-1 $348 -44.760133013684069 $433 -38.576088857920595 $344 $434 forward 7 unknown #
coedge $-1 $240 $239 $351 $435 reversed $89 $-1 #
edge $-1 $436 -11.058874383077587 $348 0 $342 $437 forward 7 unknown #
vertex $-1 $242 $438 #
straight-curve $-1 0.86213003330860971 -26.417817126629309 0.21526429112501089 1 0 0 I I #
coedge $-1 $341 $243 $246 $355 forward $236 $-1 #
coedge $-1 $243 $341 $346 $435 forward $236 $-1 #
vertex $-1 $244 $439 #
straight-curve $-1 -12.343829815871061 -43.472598867188886 6.3993084468884831 0 -1 0 I I #
straight-curve $-1 -12.343829815871061 -26.417817126629309 0.21526429112500978 0 0.82903756765294845 0.55919291073839883 I I #
edge $-1 $248 -12.343829815871061 $433 15.7923499491055 $246 $440 forward 7 unknown #
point $-1 -12.343829815871061 -26.417817126629309 6.3993084468884796 #
point $-1 -12.343829815871061 -26.417817126629309 0.21526429112500978 #
edge $-1 $441 1 $441 0 $251 $-1 forward 7 unknown #
vertex $-1 $252 $442 #
ellipse-curve $-1 -6.7165938628757473 -19.498558899432183 -0.15471146344272868 0 -0.55919291073839883 0.82903756765294845 2.5 0 0 1 I I #
point $-1 -4.2165938628757473 -21.833705966866248 3.30728636900675 #
edge $-1 $443 1 $443 0 $255 $-1 forward 7 unknown #
vertex $-1 $256 $444 #
ellipse-curve $-1 1.7242600666172194 -19.498558899432183 -0.15471146344272868 0 -0.55919291073839883 0.82903756765294845 2.5 0 0 1 I I #
point $-1 4.2242600666172194 -21.833705966866248 3.30728636900675 #
edge $-1 $445 1 $445 0 $259 $-1 forward 7 unknown #
vertex $-1 $260 $446 #
ellipse-curve $-1 10.165113996110193 -19.498558899432183 -0.15471146344272868 0 -0.55919291073839883 0.82903756765294845 2.5 0 0 1 I I #
point $-1 12.665113996110193 -21.833705966866248 3.30728636900675 #
plane-surface $-1 0 0 6.3993084468884796 0 0 1 1 0 0 forward_v I I I I #
coedge $-1 $381 $380 $373 $447 forward $264 $-1 #
coedge $-1 $373 $266 $268 $377 reversed $172 $-1 #
coedge $-1 $266 $372 $371 $447 reversed $172 $-1 #
coedge $-1 $274 $269 $266 $375 forward $275 $-1 #
edge $-1 $378 -4.3216412067245535 $448 4.8465811128015908 $374 $449 forward 7 unknown #
coedge $-1 $268 $267 $381 $450 reversed $108 $-1 #
edge $-1 $451 -52.835634253258618 $378 -41.776759870181031 $372 $452 forward 7 unknown #
vertex $-1 $270 $453 #
straight-curve $-1 0.86213003330860971 17.249594807103165 6.3993084468884778 1 0 0 I I #
coedge $-1 $371 $271 $274 $385 reversed $264 $-1 #
coedge $-1 $271 $371 $376 $450 forward $264 $-1 #
vertex $-1 $272 $454 #
straight-curve $-1 -12.343829815871061 26.417817126629309 59.748053359203645 0 0 1 I I #
straight-curve $-1 -12.343829815871061 -17.384908580093025 29.760576399914143 0 0.82903756765294845 -0.55919291073839883 I I #
edge $-1 $448 -15.7923499491055 $276 12.343829815871061 $380 $455 forward 7 unknown #
point $-1 -12.343829815871061 26.417817126629309 6.3993084468884796 #
point $-1 -12.343829815871061 17.249594807103165 6.3993084468884796 #
edge $-1 $456 1 $456 0 $279 $-1 forward 7 unknown #
vertex $-1 $280 $457 #
ellipse-curve $-1 -6.7165938628757473 19.498558899432176 -0.15471146344272779 0 0.55919291073839883 0.82903756765294845 2.5 0 0 1 I I #
point $-1 -4.2165938628757473 21.833705966866241 3.3072863690067509 #
edge $-1 $458 1 $458 0 $283 $-1 forward 7 unknown #
vertex $-1 $284 $459 #
ellipse-curve $-1 1.7242600666172194 19.498558899432176 -0.15471146344272779 0 0.55919291073839883 0.82903756765294845 2.5 0 0 1 I I #
point $-1 4.2242600666172194 21.833705966866241 3.3072863690067509 #
edge $-1 $460 1 $460 0 $287 $-1 forward 7 unknown #
vertex $-1 $288 $461 #
ellipse-curve $-1 10.165113996110193 19.498558899432176 -0.15471146344272779 0 0.55919291073839883 0.82903756765294845 2.5 0 0 1 I I #
point $-1 12.665113996110193 21.833705966866241 3.3072863690067509 #
plane-surface $-1 54.120303964354378 0 0 -1 0 0 0 0 1 forward_v I I I I #
coedge $-1 $296 $294 $298 $405 reversed $201 $-1 #
edge $-1 $309 -6.3993084468884796 $407 6.3993084468884796 $308 $462 forward 7 unknown #
vertex $-1 $405 $463 #
straight-curve $-1 -54.120303964354378 -26.417817126629309 0 0 0 -1 I I #
edge $-1 $403 -26.417817126629309 $407 26.417817126629309 $401 $464 forward 7 unknown #
straight-curve $-1 0 -26.417817126629309 -6.3993084468884796 -1 0 0 I I #
vertex $-1 $301 $465 #
straight-curve $-1 0 26.417817126629309 -6.3993084468884796 1 0 0 I I #
point $-1 54.120303964354378 26.417817126629309 -6.3993084468884796 #
point $-1 54.120303964354378 -26.417817126629309 -6.3993084468884796 #
straight-curve $-1 -54.120303964354378 0 6.3993084468884796 0 -1 0 I I #
point $-1 -54.120303964354378 26.417817126629309 6.3993084468884796 #
point $-1 -54.120303964354378 -26.417817126629309 6.3993084468884796 #
straight-curve $-1 54.120303964354378 -26.417817126629309 0 0 0 -1 I I #
straight-curve $-1 54.120303964354378 26.417817126629309 0 0 0 -1 I I #
plane-surface $-1 0 26.417817126629309 0 0 -1 0 0 0 -1 forward_v I I I I #
coedge $-1 $322 $321 $466 $467 forward $135 $-1 #
edge $-1 $325 46.573041567923937 $468 54.120303964354378 $324 $469 forward 7 unknown #
coedge $-1 $330 $329 $322 $420 reversed $331 $-1 #
edge $-1 $470 -54.120303964354378 $421 -46.573041567923937 $419 $471 forward 7 unknown #
vertex $-1 $337 $472 #
straight-curve $-1 -46.573041567923937 0 -6.3993084468884796 0 -1 0 I I #
point $-1 -46.573041567923937 -26.417817126629309 -6.3993084468884796 #
coedge $-1 $466 $327 $330 $427 forward $319 $-1 #
coedge $-1 $327 $466 $334 $429 reversed $319 $-1 #
straight-curve $-1 -54.120303964354378 0 -3.3993084468884796 0 1 0 I I #
edge $-1 $332 3.3993084468884796 $470 6.3993084468884796 $330 $473 forward 7 unknown #
point $-1 -54.120303964354378 26.417817126629309 -3.3993084468884796 #
edge $-1 $335 3.3993084468884796 $468 6.3993084468884796 $425 $474 forward 7 unknown #
point $-1 -54.120303964354378 -26.417817126629309 -3.3993084468884796 #
straight-curve $-1 -46.573041567923937 26.417817126629309 -2.4496542234442398 0 0 -1 I I #
edge $-1 $433 17.054781740559577 $436 26.223004060085721 $341 $475 forward 7 unknown #
vertex $-1 $345 $476 #
straight-curve $-1 15.7923499491055 -26.417817126629309 44.975397304809078 0 0 1 I I #
edge $-1 $436 -14.93021991579689 $352 13.205959849179671 $351 $477 forward 7 unknown #
vertex $-1 $435 $478 #
straight-curve $-1 15.7923499491055 -26.417817126629309 0.21526429112500978 0 -0.82903756765294845 -0.55919291073839883 I I #
point $-1 15.7923499491055 -26.417817126629309 0.21526429112500978 #
point $-1 -12.343829815871061 -17.249594807103165 6.3993084468884796 #
straight-curve $-1 0 -26.417817126629309 6.3993084468884796 1 0 0 I I #
vertex $-1 $358 $479 #
point $-1 -4.2165938628757473 -19.498558899432183 -0.15471146344272868 #
vertex $-1 $362 $480 #
point $-1 4.2242600666172194 -19.498558899432183 -0.15471146344272868 #
vertex $-1 $366 $481 #
point $-1 12.665113996110193 -19.498558899432183 -0.15471146344272868 #
edge $-1 $448 53.348744912315169 $451 59.532789068078635 $371 $482 forward 7 unknown #
vertex $-1 $385 $483 #
straight-curve $-1 15.7923499491055 21.571236013827718 6.399308446888476 0 1 0 I I #
edge $-1 $451 -14.93021991579689 $382 13.205959849179671 $381 $484 forward 7 unknown #
vertex $-1 $450 $485 #
straight-curve $-1 15.7923499491055 -17.384908580093025 29.760576399914143 0 -0.82903756765294845 0.55919291073839883 I I #
point $-1 15.7923499491055 17.249594807103165 6.3993084468884796 #
point $-1 -12.343829815871061 26.417817126629309 0.21526429112500978 #
straight-curve $-1 0 26.417817126629309 6.3993084468884796 -1 0 0 I I #
vertex $-1 $388 $486 #
point $-1 -4.2165938628757473 19.498558899432176 -0.15471146344272779 #
vertex $-1 $392 $487 #
point $-1 4.2242600666172194 19.498558899432176 -0.15471146344272779 #
vertex $-1 $396 $488 #
point $-1 12.665113996110193 19.498558899432176 -0.15471146344272779 #
straight-curve $-1 -54.120303964354378 26.417817126629309 0 0 0 -1 I I #
point $-1 -54.120303964354378 -26.417817126629309 -6.3993084468884796 #
straight-curve $-1 -54.120303964354378 0 -6.3993084468884796 0 1 0 I I #
point $-1 -54.120303964354378 26.417817126629309 -6.3993084468884796 #
coedge $-1 $425 $424 $417 $467 reversed $319 $-1 #
edge $-1 $468 -26.417817126629309 $470 26.417817126629309 $466 $489 forward 7 unknown #
vertex $-1 $467 $490 #
straight-curve $-1 0 -26.417817126629309 -6.3993084468884796 -1 0 0 I I #
vertex $-1 $420 $491 #
straight-curve $-1 0 26.417817126629309 -6.3993084468884796 1 0 0 I I #
point $-1 -46.573041567923937 26.417817126629309 -6.3993084468884796 #
straight-curve $-1 -54.120303964354378 26.417817126629309 0 0 0 -1 I I #
straight-curve $-1 -54.120303964354378 -26.417817126629309 0 0 0 -1 I I #
straight-curve $-1 15.7923499491055 -43.472598867188886 6.3993084468884831 0 1 0 I I #
point $-1 15.7923499491055 -26.417817126629309 6.3993084468884796 #
straight-curve $-1 0.86213003330860971 -17.249594807103165 6.3993084468884796 -1 0 0 I I #
point $-1 15.7923499491055 -17.249594807103165 6.3993084468884796 #
point $-1 -6.7165938628757473 -18.100576622586189 -2.2273053825750999 #
point $-1 1.7242600666172194 -18.100576622586189 -2.2273053825750999 #
point $-1 10.165113996110193 -18.100576622586189 -2.2273053825750999 #
straight-curve $-1 15.7923499491055 26.417817126629309 59.748053359203645 0 0 -1 I I #
point $-1 15.7923499491055 26.417817126629309 6.3993084468884796 #
straight-curve $-1 0.86213003330860971 26.417817126629309 0.21526429112501155 -1 0 0 I I #
point $-1 15.7923499491055 26.417817126629309 0.21526429112500978 #
point $-1 -6.7165938628757473 18.100576622586182 -2.227305382575099 #
point $-1 1.7242600666172194 18.100576622586182 -2.227305382575099 #
point $-1 10.165113996110193 18.100576622586182 -2.227305382575099 #
straight-curve $-1 -54.120303964354378 0 -6.3993084468884796 0 1 0 I I #
point $-1 -54.120303964354378 -26.417817126629309 -6.3993084468884796 #
point $-1 -54.120303964354378 26.417817126629309 -6.3993084468884796 #
End-of-ACIS-data 