500 0 9 0           
7 Unknown 11 ACIS 5.0 NT 24 Thu Mar 25 20:26:46 1999 
-1 9.9999999999999995e-007 1e-010 
body $-1 $9 $-1 $10 #
body $-1 $11 $-1 $12 #
body $-1 $13 $-1 $14 #
body $-1 $15 $-1 $16 #
body $-1 $17 $-1 $18 #
body $-1 $19 $-1 $20 #
body $-1 $21 $-1 $22 #
body $-1 $23 $-1 $24 #
body $-1 $25 $-1 $26 #
lump $-1 $-1 $27 $0 #
transform $-1 1 0 0 0 1 0 0 0 1 49.262977996154667 30.383321671733405 8.9399310047817409 1 rotate no_reflect no_shear #
lump $-1 $-1 $28 $1 #
transform $-1 1 0 0 0 1 0 0 0 1 49.262977996154667 30.383321671733405 8.9399310047817409 1 rotate no_reflect no_shear #
lump $-1 $-1 $29 $2 #
transform $-1 1 0 0 0 1 0 0 0 1 49.262977996154667 30.383321671733405 8.9399310047817409 1 rotate no_reflect no_shear #
lump $-1 $-1 $30 $3 #
transform $-1 1 0 0 0 1 0 0 0 1 49.262977996154667 30.383321671733405 8.9399310047817409 1 rotate no_reflect no_shear #
lump $-1 $-1 $31 $4 #
transform $-1 1 0 0 0 1 0 0 0 1 49.262977996154667 30.383321671733405 8.9399310047817409 1 rotate no_reflect no_shear #
lump $-1 $-1 $32 $5 #
transform $-1 1 0 0 0 1 0 0 0 1 49.262977996154667 30.383321671733405 8.9399310047817409 1 rotate no_reflect no_shear #
lump $-1 $-1 $33 $6 #
transform $-1 1 0 0 0 1 0 0 0 1 49.262977996154667 30.383321671733405 8.9399310047817409 1 rotate no_reflect no_shear #
lump $-1 $-1 $34 $7 #
transform $-1 1 0 0 0 1 0 0 0 1 49.262977996154667 30.383321671733405 8.9399310047817409 1 rotate no_reflect no_shear #
lump $-1 $-1 $35 $8 #
transform $-1 1 0 0 0 1 0 0 0 1 49.262977996154667 30.383321671733405 8.9399310047817409 1 rotate no_reflect no_shear #
shell $-1 $-1 $-1 $36 $-1 $9 #
shell $-1 $-1 $-1 $37 $-1 $11 #
shell $-1 $-1 $-1 $38 $-1 $13 #
shell $-1 $-1 $-1 $39 $-1 $15 #
shell $-1 $-1 $-1 $40 $-1 $17 #
shell $-1 $-1 $-1 $41 $-1 $19 #
shell $-1 $-1 $-1 $42 $-1 $21 #
shell $-1 $-1 $-1 $43 $-1 $23 #
shell $-1 $-1 $-1 $44 $-1 $25 #
face $-1 $45 $46 $27 $-1 $47 forward single #
face $-1 $48 $49 $28 $-1 $50 forward single #
face $-1 $51 $52 $29 $-1 $53 reversed single #
face $-1 $54 $55 $30 $-1 $56 forward single #
face $-1 $57 $58 $31 $-1 $59 forward single #
face $-1 $60 $61 $32 $-1 $62 reversed single #
face $-1 $63 $64 $33 $-1 $65 forward single #
face $-1 $66 $67 $34 $-1 $68 reversed single #
face $-1 $69 $70 $35 $-1 $71 forward single #
face $-1 $72 $73 $27 $-1 $74 reversed single #
loop $-1 $-1 $75 $36 #
plane-surface $-1 0 0 8.9399310047817409 0 0 1 1 0 0 forward_v I I I I #
face $-1 $76 $77 $28 $-1 $78 reversed single #
loop $-1 $-1 $79 $37 #
plane-surface $-1 0 -30.383321671733405 0 0 1 0 0 0 1 forward_v I I I I #
face $-1 $80 $81 $29 $-1 $82 reversed single #
loop $-1 $-1 $83 $38 #
plane-surface $-1 41.970657807293072 11.049826047223945 140.60181074123778 0 -1 0 -0.66913061440640931 0 -0.74314481823134659 forward_v I I I I #
face $-1 $84 $85 $30 $-1 $86 forward single #
loop $-1 $87 $88 $39 #
cone-surface $-1 43.857829981244947 0.60687117952634395 3.8105030056796685 -0.66913061440640931 0 -0.74314481823134659 1.4862896364626932 0 -1.3382612288128186 1 I I 0 1 2 forward I I I I #
face $-1 $89 $90 $31 $-1 $91 forward single #
loop $-1 $92 $93 $40 #
cone-surface $-1 43.857829981244947 6.8726441001449032 3.8105030056796685 -0.66913061440640931 0 -0.74314481823134659 1.4862896364626932 0 -1.3382612288128186 1 I I 0 1 2 forward I I I I #
face $-1 $94 $95 $32 $-1 $96 reversed single #
loop $-1 $-1 $97 $41 #
plane-surface $-1 -117.70485883772855 -9.6572145236727938 72.995679137950233 0 1 0 -0.69465837861970381 0 0.71933979245794832 forward_v I I I I #
face $-1 $98 $99 $33 $-1 $100 forward single #
loop $-1 $101 $102 $42 #
cone-surface $-1 -44.371154006062014 -4.9300557929261899 4.1208442505900837 0.69465837861970381 0 -0.71933979245794832 1.4386795849158966 0 1.3893167572394076 1 I I 0 1 2 forward I I I I #
face $-1 $103 $104 $34 $-1 $105 reversed single #
loop $-1 $-1 $106 $43 #
plane-surface $-1 -117.70485883772855 16.919426849250328 72.995679137950233 0 1 0 -0.69465837861970381 0 0.71933979245794832 forward_v I I I I #
face $-1 $107 $108 $35 $-1 $109 forward single #
loop $-1 $110 $111 $44 #
cone-surface $-1 -44.371154006062014 21.64658557999693 4.1208442505900837 0.69465837861970381 0 -0.71933979245794832 1.4386795849158966 0 1.3893167572394076 1 I I 0 1 2 forward I I I I #
face $-1 $112 $113 $27 $-1 $114 reversed single #
loop $-1 $-1 $115 $45 #
plane-surface $-1 0 0 -8.9399310047817409 0 0 1 1 0 0 forward_v I I I I #
coedge $-1 $116 $117 $118 $119 forward $46 $-1 #
face $-1 $120 $121 $28 $-1 $122 reversed single #
loop $-1 $-1 $123 $48 #
plane-surface $-1 0 0 -8.9399310047817409 0 0 1 1 0 0 forward_v I I I I #
coedge $-1 $124 $125 $126 $127 forward $49 $-1 #
face $-1 $128 $129 $29 $-1 $130 reversed single #
loop $-1 $-1 $131 $51 #
plane-surface $-1 -23.956075660819714 3.7397576398356236 67.382757084263403 0.66913061440640931 0 0.74314481823134659 0.74314481823134659 0 -0.66913061440640931 forward_v I I I I #
coedge $-1 $132 $133 $134 $135 reversed $52 $-1 #
face $-1 $-1 $136 $30 $-1 $137 forward single #
loop $-1 $138 $139 $54 #
cone-surface $-1 41.939411864243219 0.60687117952634395 1.6798838826618265 -0.66913061440640931 0 -0.74314481823134659 0.74314481823134659 0 -0.66913061440640931 1 I I -0.70710678118654746 0.70710678118654746 1 forward I I I I #
loop $-1 $-1 $140 $39 #
coedge $-1 $88 $88 $141 $142 reversed $55 $-1 #
face $-1 $-1 $143 $31 $-1 $144 forward single #
loop $-1 $145 $146 $57 #
cone-surface $-1 41.939411864243219 6.8726441001449032 1.6798838826618265 -0.66913061440640931 0 -0.74314481823134659 0.74314481823134659 0 -0.66913061440640931 1 I I -0.70710678118654746 0.70710678118654746 1 forward I I I I #
loop $-1 $-1 $147 $40 #
coedge $-1 $93 $93 $148 $149 reversed $58 $-1 #
face $-1 $150 $151 $32 $-1 $152 reversed single #
loop $-1 $-1 $153 $60 #
plane-surface $-1 -49.26297799615466 -4.9300557929261899 2.1220384027214862 -0.69465837861970381 0 0.71933979245794832 0.71933979245794832 0 0.69465837861970381 forward_v I I I I #
coedge $-1 $154 $155 $156 $157 reversed $61 $-1 #
face $-1 $-1 $158 $33 $-1 $159 forward single #
loop $-1 $160 $161 $63 #
cone-surface $-1 -42.314738790006537 -4.9300557929261899 1.9913640049706061 0.69465837861970381 0 -0.71933979245794832 0.71933979245794832 0 0.69465837861970381 1 I I -0.70710678118654746 0.70710678118654746 1 forward I I I I #
loop $-1 $-1 $162 $42 #
coedge $-1 $102 $102 $163 $164 reversed $64 $-1 #
face $-1 $165 $166 $34 $-1 $167 reversed single #
loop $-1 $-1 $168 $66 #
plane-surface $-1 -49.26297799615466 21.64658557999693 2.1220384027214862 -0.69465837861970381 0 0.71933979245794832 0.71933979245794832 0 0.69465837861970381 forward_v I I I I #
coedge $-1 $169 $170 $171 $172 reversed $67 $-1 #
face $-1 $-1 $173 $35 $-1 $174 forward single #
loop $-1 $175 $176 $69 #
cone-surface $-1 -42.314738790006537 21.64658557999693 1.9913640049706061 0.69465837861970381 0 -0.71933979245794832 0.71933979245794832 0 0.69465837861970381 1 I I -0.70710678118654746 0.70710678118654746 1 forward I I I I #
loop $-1 $-1 $177 $44 #
coedge $-1 $111 $111 $178 $179 reversed $70 $-1 #
face $-1 $180 $181 $27 $-1 $182 reversed single #
loop $-1 $-1 $183 $72 #
plane-surface $-1 0 -30.383321671733405 0 0 1 0 0 0 1 forward_v I I I I #
coedge $-1 $184 $185 $186 $187 forward $73 $-1 #
coedge $-1 $188 $75 $189 $190 forward $46 $-1 #
coedge $-1 $75 $188 $191 $192 forward $46 $-1 #
coedge $-1 $193 $194 $75 $119 reversed $195 $-1 #
edge $-1 $196 -30.383321671733405 $197 30.383321671733405 $118 $198 forward 7 unknown #
face $-1 $199 $200 $28 $-1 $201 reversed single #
loop $-1 $-1 $202 $76 #
plane-surface $-1 -33.376245597761937 -37.99668226935399 0 0 1 0 0 0 1 forward_v I I I I #
coedge $-1 $203 $204 $125 $205 forward $77 $-1 #
coedge $-1 $206 $79 $207 $208 reversed $49 $-1 #
coedge $-1 $79 $206 $123 $205 reversed $49 $-1 #
coedge $-1 $209 $210 $79 $127 reversed $200 $-1 #
edge $-1 $211 -8.9399310047817409 $212 8.9399310047817409 $126 $213 forward 7 unknown #
face $-1 $214 $215 $29 $-1 $216 forward single #
loop $-1 $-1 $217 $80 #
plane-surface $-1 41.970657807293072 -3.5703107675526979 140.60181074123778 0 1 0 0.66913061440640931 0 0.74314481823134659 forward_v I I I I #
coedge $-1 $218 $219 $220 $221 reversed $81 $-1 #
coedge $-1 $133 $83 $222 $223 reversed $52 $-1 #
coedge $-1 $83 $132 $218 $224 reversed $52 $-1 #
coedge $-1 $220 $225 $83 $135 forward $215 $-1 #
edge $-1 $226 -28.277649092508131 $227 -19.965928067879364 $134 $228 forward 7 unknown #
loop $-1 $-1 $141 $84 #
plane-surface $-1 -23.956075660819714 3.7397576398356236 67.382757084263403 0.66913061440640931 0 0.74314481823134659 0.74314481823134659 0 -0.66913061440640931 forward_v I I I I #
loop $-1 $-1 $229 $54 #
coedge $-1 $139 $139 $140 $230 reversed $85 $-1 #
coedge $-1 $140 $140 $139 $230 forward $87 $-1 #
coedge $-1 $141 $141 $88 $142 forward $136 $-1 #
edge $-1 $231 0 $231 6.2831853071796004 $141 $232 forward 7 unknown #
loop $-1 $-1 $148 $89 #
plane-surface $-1 -23.956075660819714 3.7397576398356236 67.382757084263403 0.66913061440640931 0 0.74314481823134659 0.74314481823134659 0 -0.66913061440640931 forward_v I I I I #
loop $-1 $-1 $233 $57 #
coedge $-1 $146 $146 $147 $234 reversed $90 $-1 #
coedge $-1 $147 $147 $146 $234 forward $92 $-1 #
coedge $-1 $148 $148 $93 $149 forward $143 $-1 #
edge $-1 $235 0 $235 6.2831853071796004 $148 $236 forward 7 unknown #
face $-1 $237 $238 $32 $-1 $239 reversed single #
loop $-1 $-1 $240 $94 #
plane-surface $-1 -117.70485883772855 -0.20289706217958603 72.995679137950233 0 -1 0 0.69465837861970381 0 -0.71933979245794832 forward_v I I I I #
coedge $-1 $241 $242 $243 $244 reversed $95 $-1 #
coedge $-1 $155 $97 $245 $246 reversed $61 $-1 #
coedge $-1 $97 $154 $241 $247 reversed $61 $-1 #
coedge $-1 $243 $248 $97 $157 forward $249 $-1 #
edge $-1 $250 9.5894514227096082 $251 16.649585728023375 $156 $252 forward 7 unknown #
loop $-1 $-1 $163 $98 #
plane-surface $-1 -49.26297799615466 -4.9300557929261899 2.1220384027214862 -0.69465837861970381 0 0.71933979245794832 0.71933979245794832 0 0.69465837861970381 forward_v I I I I #
loop $-1 $-1 $253 $63 #
coedge $-1 $161 $161 $162 $254 reversed $99 $-1 #
coedge $-1 $162 $162 $161 $254 forward $101 $-1 #
coedge $-1 $163 $163 $102 $164 forward $158 $-1 #
edge $-1 $255 0 $255 6.2831853071796004 $163 $256 forward 7 unknown #
face $-1 $257 $258 $34 $-1 $259 forward single #
loop $-1 $-1 $260 $103 #
plane-surface $-1 -117.70485883772855 26.373744310743533 72.995679137950233 0 -1 0 0.69465837861970381 0 -0.71933979245794832 forward_v I I I I #
coedge $-1 $261 $262 $263 $264 reversed $104 $-1 #
coedge $-1 $170 $106 $265 $266 reversed $67 $-1 #
coedge $-1 $106 $169 $261 $267 reversed $67 $-1 #
coedge $-1 $263 $268 $106 $172 forward $258 $-1 #
edge $-1 $269 9.5894514227096082 $270 16.649585728023375 $171 $271 forward 7 unknown #
loop $-1 $-1 $178 $107 #
plane-surface $-1 -49.26297799615466 21.64658557999693 2.1220384027214862 -0.69465837861970381 0 0.71933979245794832 0.71933979245794832 0 0.69465837861970381 forward_v I I I I #
loop $-1 $-1 $272 $69 #
coedge $-1 $176 $176 $177 $273 reversed $108 $-1 #
coedge $-1 $177 $177 $176 $273 forward $110 $-1 #
coedge $-1 $178 $178 $111 $179 forward $173 $-1 #
edge $-1 $274 0 $274 6.2831853071796004 $178 $275 forward 7 unknown #
face $-1 $276 $277 $27 $-1 $278 reversed single #
loop $-1 $-1 $279 $112 #
plane-surface $-1 -49.262977996154667 0 0 1 0 0 0 0 -1 forward_v I I I I #
coedge $-1 $280 $191 $281 $282 forward $113 $-1 #
coedge $-1 $283 $115 $280 $284 forward $73 $-1 #
coedge $-1 $115 $283 $285 $286 forward $73 $-1 #
coedge $-1 $194 $193 $115 $187 reversed $195 $-1 #
edge $-1 $287 -30.383321671733405 $288 30.383321671733405 $186 $289 forward 7 unknown #
coedge $-1 $117 $116 $290 $291 forward $46 $-1 #
coedge $-1 $292 $293 $116 $190 reversed $277 $-1 #
edge $-1 $197 -49.262977996154667 $294 49.262977996154667 $189 $295 forward 7 unknown #
coedge $-1 $183 $296 $117 $192 reversed $113 $-1 #
edge $-1 $297 -49.262977996154667 $196 49.262977996154667 $191 $298 forward 7 unknown #
coedge $-1 $186 $118 $296 $299 forward $195 $-1 #
coedge $-1 $118 $186 $292 $300 reversed $195 $-1 #
loop $-1 $-1 $193 $276 #
vertex $-1 $119 $301 #
vertex $-1 $119 $302 #
straight-curve $-1 49.262977996154667 0 8.9399310047817409 0 1 0 I I #
face $-1 $303 $304 $28 $-1 $305 reversed single #
loop $-1 $-1 $126 $120 #
plane-surface $-1 -35.369375208932688 -34.190001970543697 0 1 0 0 0 0 -1 forward_v I I I I #
coedge $-1 $306 $307 $308 $309 forward $121 $-1 #
coedge $-1 $310 $123 $311 $312 forward $77 $-1 #
coedge $-1 $123 $310 $209 $313 forward $77 $-1 #
edge $-1 $211 -35.369375208932688 $314 -31.383115986591186 $123 $315 forward 7 unknown #
coedge $-1 $125 $124 $316 $317 forward $49 $-1 #
coedge $-1 $318 $319 $124 $208 forward $320 $-1 #
edge $-1 $321 31.383115986591186 $212 35.369375208932688 $207 $322 forward 7 unknown #
coedge $-1 $308 $126 $204 $313 reversed $200 $-1 #
coedge $-1 $126 $308 $318 $323 reversed $200 $-1 #
vertex $-1 $205 $324 #
vertex $-1 $323 $325 #
straight-curve $-1 -35.369375208932688 -30.383321671733405 0 0 0 1 I I #
face $-1 $-1 $326 $29 $-1 $327 reversed single #
loop $-1 $-1 $134 $128 #
plane-surface $-1 0 0 8.9399310047817409 0 0 1 1 0 0 forward_v I I I I #
coedge $-1 $328 $329 $330 $331 reversed $129 $-1 #
coedge $-1 $332 $131 $133 $224 forward $81 $-1 #
coedge $-1 $131 $332 $328 $333 forward $81 $-1 #
coedge $-1 $330 $134 $131 $221 forward $215 $-1 #
edge $-1 $227 -9.1799472273061333 $334 5.4401895874705097 $220 $335 forward 7 unknown #
coedge $-1 $336 $337 $132 $223 forward $326 $-1 #
edge $-1 $338 -68.84488175446829 $226 -61.360974365837151 $222 $339 forward 7 unknown #
edge $-1 $227 87.341432033156508 $338 98.525955992309349 $133 $340 forward 7 unknown #
coedge $-1 $134 $330 $336 $341 forward $215 $-1 #
vertex $-1 $135 $342 #
vertex $-1 $135 $343 #
straight-curve $-1 20.985328903646536 11.049826047223945 8.9399310047817409 -1 0 0 I I #
coedge $-1 $229 $229 $-1 $344 reversed $138 $-1 #
edge $-1 $345 0 $345 6.2831853071796004 $139 $346 forward 7 unknown #
vertex $-1 $142 $347 #
ellipse-curve $-1 45.107117483840277 0.60687117952634395 5.1979773104661717 0.66913061440640931 0 0.74314481823134659 1.4862896364626932 0 -1.3382612288128186 1 I I #
coedge $-1 $233 $233 $-1 $348 reversed $145 $-1 #
edge $-1 $349 0 $349 6.2831853071796004 $146 $350 forward 7 unknown #
vertex $-1 $149 $351 #
ellipse-curve $-1 45.107117483840277 6.8726441001449032 5.1979773104661717 0.66913061440640931 0 0.74314481823134659 1.4862896364626932 0 -1.3382612288128186 1 I I #
face $-1 $-1 $249 $32 $-1 $352 forward single #
loop $-1 $-1 $353 $150 #
plane-surface $-1 -49.262977996154667 0 0 1 0 0 0 0 -1 forward_v I I I I #
coedge $-1 $354 $355 $356 $357 reversed $151 $-1 #
coedge $-1 $358 $153 $155 $247 forward $95 $-1 #
coedge $-1 $153 $358 $354 $359 forward $95 $-1 #
coedge $-1 $356 $156 $153 $244 forward $249 $-1 #
edge $-1 $251 -7.1921866272096988 $360 2.2621308342835089 $243 $361 forward 7 unknown #
coedge $-1 $362 $363 $154 $246 forward $238 $-1 #
edge $-1 $364 -34.375801166253638 $250 -27.557908564193376 $245 $365 forward 7 unknown #
edge $-1 $251 -9.8147417664600916 $364 9.7385709978959816e-015 $155 $366 forward 7 unknown #
coedge $-1 $156 $356 $362 $367 forward $249 $-1 #
loop $-1 $-1 $356 $237 #
vertex $-1 $246 $368 #
vertex $-1 $157 $369 #
straight-curve $-1 -58.852429418864276 -9.6572145236727938 8.9399310047817409 1 0 0 I I #
coedge $-1 $253 $253 $-1 $370 reversed $160 $-1 #
edge $-1 $371 0 $371 6.2831853071796004 $161 $372 forward 7 unknown #
vertex $-1 $164 $373 #
ellipse-curve $-1 -45.732910843497784 -4.9300557929261899 5.5309847037516091 -0.69465837861970381 0 0.71933979245794832 1.4386795849158966 0 1.3893167572394076 1 I I #
face $-1 $-1 $374 $34 $-1 $375 reversed single #
loop $-1 $-1 $171 $165 #
plane-surface $-1 0 0 8.9399310047817409 0 0 1 1 0 0 forward_v I I I I #
coedge $-1 $376 $377 $378 $379 reversed $166 $-1 #
coedge $-1 $380 $168 $170 $267 forward $104 $-1 #
coedge $-1 $168 $380 $376 $381 forward $104 $-1 #
coedge $-1 $378 $171 $168 $264 forward $258 $-1 #
edge $-1 $270 6.0961340592518631 $382 15.550451520745067 $263 $383 forward 7 unknown #
coedge $-1 $384 $385 $169 $266 forward $374 $-1 #
edge $-1 $386 -34.375801166253638 $269 -27.557908564193376 $265 $387 forward 7 unknown #
edge $-1 $270 -9.8147417664600916 $386 9.7385709978959816e-015 $170 $388 forward 7 unknown #
coedge $-1 $171 $378 $384 $389 forward $258 $-1 #
vertex $-1 $266 $390 #
vertex $-1 $172 $391 #
straight-curve $-1 -58.852429418864276 16.919426849250328 8.9399310047817409 1 0 0 I I #
coedge $-1 $272 $272 $-1 $392 reversed $175 $-1 #
edge $-1 $393 0 $393 6.2831853071796004 $176 $394 forward 7 unknown #
vertex $-1 $179 $395 #
ellipse-curve $-1 -45.732910843497784 21.64658557999693 5.5309847037516091 -0.69465837861970381 0 0.71933979245794832 1.4386795849158966 0 1.3893167572394076 1 I I #
face $-1 $-1 $195 $27 $-1 $396 reversed single #
loop $-1 $-1 $292 $180 #
plane-surface $-1 0 30.383321671733405 0 0 -1 0 0 0 -1 forward_v I I I I #
coedge $-1 $397 $290 $293 $398 forward $181 $-1 #
coedge $-1 $296 $183 $184 $284 reversed $113 $-1 #
coedge $-1 $290 $397 $183 $282 reversed $181 $-1 #
edge $-1 $297 -8.9399310047817409 $399 8.9399310047817409 $281 $400 forward 7 unknown #
coedge $-1 $185 $184 $397 $401 forward $73 $-1 #
edge $-1 $288 -49.262977996154667 $399 49.262977996154667 $280 $402 forward 7 unknown #
coedge $-1 $293 $292 $185 $286 reversed $277 $-1 #
edge $-1 $403 -49.262977996154667 $287 49.262977996154667 $285 $404 forward 7 unknown #
vertex $-1 $187 $405 #
vertex $-1 $299 $406 #
straight-curve $-1 49.262977996154667 0 -8.9399310047817409 0 -1 0 I I #
coedge $-1 $279 $281 $188 $291 reversed $181 $-1 #
edge $-1 $294 -30.383321671733405 $297 30.383321671733405 $290 $407 forward 7 unknown #
coedge $-1 $285 $189 $194 $300 forward $277 $-1 #
coedge $-1 $189 $285 $279 $398 reversed $277 $-1 #
vertex $-1 $190 $408 #
straight-curve $-1 0 30.383321671733405 8.9399310047817409 -1 0 0 I I #
coedge $-1 $191 $280 $193 $299 reversed $113 $-1 #
vertex $-1 $291 $409 #
straight-curve $-1 0 -30.383321671733405 8.9399310047817409 1 0 0 I I #
edge $-1 $196 -8.9399310047817409 $288 8.9399310047817409 $193 $410 forward 7 unknown #
edge $-1 $197 -8.9399310047817409 $287 8.9399310047817409 $194 $411 forward 7 unknown #
point $-1 49.262977996154667 -30.383321671733405 8.9399310047817409 #
point $-1 49.262977996154667 30.383321671733405 8.9399310047817409 #
face $-1 $-1 $320 $28 $-1 $412 forward single #
loop $-1 $-1 $413 $199 #
plane-surface $-1 -31.383115986591186 -34.190001970543697 0 -1 0 0 0 0 1 forward_v I I I I #
coedge $-1 $414 $202 $310 $415 reversed $121 $-1 #
coedge $-1 $202 $414 $416 $417 reversed $121 $-1 #
coedge $-1 $210 $209 $202 $309 reversed $200 $-1 #
edge $-1 $418 -8.9399310047817409 $419 8.9399310047817409 $308 $420 forward 7 unknown #
coedge $-1 $204 $203 $306 $415 forward $77 $-1 #
coedge $-1 $316 $413 $203 $312 reversed $304 $-1 #
edge $-1 $314 -3.8066802988102886 $421 3.8066802988102921 $311 $422 forward 7 unknown #
edge $-1 $419 -3.8066802988102921 $211 3.8066802988102886 $209 $423 forward 7 unknown #
vertex $-1 $312 $424 #
straight-curve $-1 0 -30.383321671733405 -8.9399310047817409 1 0 0 I I #
coedge $-1 $425 $311 $206 $317 reversed $304 $-1 #
edge $-1 $321 -8.9399310047817409 $314 8.9399310047817409 $316 $426 forward 7 unknown #
coedge $-1 $416 $207 $210 $323 forward $320 $-1 #
coedge $-1 $207 $416 $425 $427 forward $320 $-1 #
loop $-1 $-1 $207 $303 #
vertex $-1 $208 $428 #
straight-curve $-1 0 -30.383321671733405 8.9399310047817409 -1 0 0 I I #
edge $-1 $212 -3.8066802988102886 $418 3.8066802988102921 $210 $429 forward 7 unknown #
point $-1 -35.369375208932688 -30.383321671733409 -8.9399310047817409 #
point $-1 -35.369375208932688 -30.383321671733409 8.9399310047817409 #
loop $-1 $-1 $222 $214 #
plane-surface $-1 49.262977996154667 0 0 -1 0 0 0 0 1 forward_v I I I I #
coedge $-1 $329 $217 $219 $333 reversed $129 $-1 #
coedge $-1 $217 $328 $430 $431 reversed $129 $-1 #
coedge $-1 $225 $220 $217 $331 forward $215 $-1 #
edge $-1 $334 19.965928067879364 $432 28.277649092508131 $330 $433 forward 7 unknown #
coedge $-1 $219 $218 $337 $434 reversed $81 $-1 #
edge $-1 $435 -98.525955992309349 $334 -87.341432033156508 $328 $436 forward 7 unknown #
vertex $-1 $221 $437 #
straight-curve $-1 40.951256971525908 1.8698788199178118 8.9399310047817337 0 -1 0 I I #
coedge $-1 $430 $222 $225 $341 reversed $326 $-1 #
coedge $-1 $222 $430 $332 $434 forward $326 $-1 #
vertex $-1 $223 $438 #
straight-curve $-1 49.262977996154667 11.049826047223945 70.300905370618892 0 0 1 I I #
straight-curve $-1 -23.956075660819714 11.049826047223945 67.382757084263403 0.74314481823134659 0 -0.66913061440640931 I I #
edge $-1 $432 -3.5703107675526979 $226 11.049826047223945 $336 $439 forward 7 unknown #
point $-1 49.262977996154667 11.049826047223945 8.9399310047817409 #
point $-1 40.9512569715259 11.049826047223945 8.9399310047817409 #
edge $-1 $440 1 $440 0 $229 $-1 forward 7 unknown #
vertex $-1 $230 $441 #
ellipse-curve $-1 42.608542478649625 0.60687117952634395 2.4230287008931732 0.66913061440640931 0 0.74314481823134659 1.4862896364626932 0 -1.3382612288128186 1 I I #
point $-1 46.593407120302963 0.60687117952634395 3.8597160816533456 #
edge $-1 $442 1 $442 0 $233 $-1 forward 7 unknown #
vertex $-1 $234 $443 #
ellipse-curve $-1 42.608542478649625 6.8726441001449032 2.4230287008931732 0.66913061440640931 0 0.74314481823134659 1.4862896364626932 0 -1.3382612288128186 1 I I #
point $-1 46.593407120302963 6.8726441001449032 3.8597160816533456 #
plane-surface $-1 0 0 8.9399310047817409 0 0 1 1 0 0 forward_v I I I I #
coedge $-1 $363 $362 $355 $444 forward $238 $-1 #
coedge $-1 $355 $240 $242 $359 reversed $151 $-1 #
coedge $-1 $240 $354 $353 $444 reversed $151 $-1 #
coedge $-1 $248 $243 $240 $357 forward $249 $-1 #
edge $-1 $360 -16.649585728023375 $445 -9.5894514227096082 $356 $446 forward 7 unknown #
coedge $-1 $242 $241 $363 $447 reversed $95 $-1 #
edge $-1 $448 -9.7385709978959816e-015 $360 9.8147417664600916 $354 $449 forward 7 unknown #
vertex $-1 $244 $450 #
straight-curve $-1 -42.202843690840893 -2.4650278964630949 8.9399310047817409 0 1 0 I I #
coedge $-1 $353 $245 $248 $367 reversed $238 $-1 #
coedge $-1 $245 $353 $358 $447 forward $238 $-1 #
vertex $-1 $246 $451 #
straight-curve $-1 -49.262977996154667 -9.6572145236727938 36.497839568975117 0 0 1 I I #
straight-curve $-1 -49.26297799615466 -9.6572145236727938 2.1220384027214862 -0.71933979245794832 0 -0.69465837861970381 I I #
edge $-1 $445 0.20289706217958603 $250 9.6572145236727938 $362 $452 forward 7 unknown #
point $-1 -49.262977996154667 -9.6572145236727938 8.9399310047817409 #
point $-1 -42.202843690840901 -9.6572145236727938 8.9399310047817409 #
edge $-1 $453 1 $453 0 $253 $-1 forward 7 unknown #
vertex $-1 $254 $454 #
ellipse-curve $-1 -43.009397168626244 -4.9300557929261899 2.7107037974285544 -0.69465837861970381 0 0.71933979245794832 1.4386795849158966 0 1.3893167572394076 1 I I #
point $-1 -44.294231258581895 -4.9300557929261899 6.9203014609910216 #
loop $-1 $-1 $265 $257 #
plane-surface $-1 -49.262977996154667 0 0 1 0 0 0 0 -1 forward_v I I I I #
coedge $-1 $377 $260 $262 $381 reversed $166 $-1 #
coedge $-1 $260 $376 $455 $456 reversed $166 $-1 #
coedge $-1 $268 $263 $260 $379 forward $258 $-1 #
edge $-1 $382 -16.649585728023375 $457 -9.5894514227096082 $378 $458 forward 7 unknown #
coedge $-1 $262 $261 $385 $459 reversed $104 $-1 #
edge $-1 $460 -9.7385709978959816e-015 $382 9.8147417664600916 $376 $461 forward 7 unknown #
vertex $-1 $264 $462 #
straight-curve $-1 -42.202843690840893 10.823292789998465 8.9399310047817409 0 1 0 I I #
coedge $-1 $455 $265 $268 $389 reversed $374 $-1 #
coedge $-1 $265 $455 $380 $459 forward $374 $-1 #
vertex $-1 $266 $463 #
straight-curve $-1 -49.262977996154667 16.919426849250328 36.497839568975117 0 0 1 I I #
straight-curve $-1 -49.26297799615466 16.919426849250328 2.1220384027214862 -0.71933979245794832 0 -0.69465837861970381 I I #
edge $-1 $457 -26.373744310743533 $269 -16.919426849250328 $384 $464 forward 7 unknown #
point $-1 -49.262977996154667 16.919426849250328 8.9399310047817409 #
point $-1 -42.202843690840901 16.919426849250328 8.9399310047817409 #
edge $-1 $465 1 $465 0 $272 $-1 forward 7 unknown #
vertex $-1 $273 $466 #
ellipse-curve $-1 -43.009397168626244 21.64658557999693 2.7107037974285544 -0.69465837861970381 0 0.71933979245794832 1.4386795849158966 0 1.3893167572394076 1 I I #
point $-1 -44.294231258581895 21.64658557999693 6.9203014609910216 #
plane-surface $-1 49.262977996154667 0 0 -1 0 0 0 0 1 forward_v I I I I #
coedge $-1 $281 $279 $283 $401 reversed $181 $-1 #
edge $-1 $294 -8.9399310047817409 $403 8.9399310047817409 $293 $467 forward 7 unknown #
vertex $-1 $401 $468 #
straight-curve $-1 -49.262977996154667 -30.383321671733405 0 0 0 -1 I I #
edge $-1 $399 -30.383321671733405 $403 30.383321671733405 $397 $469 forward 7 unknown #
straight-curve $-1 0 -30.383321671733405 -8.9399310047817409 -1 0 0 I I #
vertex $-1 $286 $470 #
straight-curve $-1 0 30.383321671733405 -8.9399310047817409 1 0 0 I I #
point $-1 49.262977996154667 30.383321671733405 -8.9399310047817409 #
point $-1 49.262977996154667 -30.383321671733405 -8.9399310047817409 #
straight-curve $-1 -49.262977996154667 0 8.9399310047817409 0 -1 0 I I #
point $-1 -49.262977996154667 30.383321671733405 8.9399310047817409 #
point $-1 -49.262977996154667 -30.383321671733405 8.9399310047817409 #
straight-curve $-1 49.262977996154667 -30.383321671733405 0 0 0 -1 I I #
straight-curve $-1 49.262977996154667 30.383321671733405 0 0 0 -1 I I #
plane-surface $-1 0 0 8.9399310047817409 0 0 1 1 0 0 forward_v I I I I #
coedge $-1 $311 $425 $414 $471 forward $304 $-1 #
coedge $-1 $307 $306 $413 $471 reversed $121 $-1 #
edge $-1 $421 -1.993129611170751 $419 1.993129611170751 $306 $472 forward 7 unknown #
coedge $-1 $319 $318 $307 $417 forward $320 $-1 #
edge $-1 $418 -1.993129611170751 $473 1.993129611170751 $307 $474 forward 7 unknown #
vertex $-1 $323 $475 #
vertex $-1 $313 $476 #
straight-curve $-1 -35.369375208932688 -37.99668226935399 0 0 0 -1 I I #
vertex $-1 $471 $477 #
straight-curve $-1 -31.383115986591186 -34.190001970543697 -8.9399310047817409 0 -1 0 I I #
straight-curve $-1 -35.369375208932688 -34.190001970543697 -8.9399310047817409 0 1 0 I I #
point $-1 -31.383115986591186 -30.383321671733409 -8.9399310047817409 #
coedge $-1 $413 $316 $319 $427 reversed $304 $-1 #
straight-curve $-1 -31.383115986591186 -30.383321671733405 0 0 0 -1 I I #
edge $-1 $473 -3.8066802988102921 $321 3.8066802988102886 $425 $478 forward 7 unknown #
point $-1 -31.383115986591186 -30.383321671733409 8.9399310047817409 #
straight-curve $-1 -35.369375208932688 -34.190001970543697 8.9399310047817409 0 -1 0 I I #
coedge $-1 $337 $336 $329 $431 forward $326 $-1 #
edge $-1 $432 61.360974365837151 $435 68.84488175446829 $430 $479 forward 7 unknown #
vertex $-1 $341 $480 #
straight-curve $-1 20.985328903646536 -3.5703107675526979 8.9399310047817409 1 0 0 I I #
edge $-1 $435 -5.4401895874705097 $338 9.1799472273061333 $337 $481 forward 7 unknown #
vertex $-1 $434 $482 #
straight-curve $-1 -23.956075660819714 -3.5703107675526979 67.382757084263403 -0.74314481823134659 0 0.66913061440640931 I I #
point $-1 40.9512569715259 -3.5703107675526979 8.9399310047817409 #
point $-1 49.262977996154667 11.049826047223945 1.4560236161506026 #
straight-curve $-1 49.262977996154667 0 8.9399310047817409 0 1 0 I I #
vertex $-1 $344 $483 #
point $-1 44.094832115112325 0.60687117952634395 1.0847674720803546 #
vertex $-1 $348 $484 #
point $-1 44.094832115112325 6.8726441001449032 1.0847674720803546 #
edge $-1 $445 27.557908564193376 $448 34.375801166253638 $353 $485 forward 7 unknown #
vertex $-1 $367 $486 #
straight-curve $-1 -58.852429418864276 -0.20289706217958603 8.9399310047817409 -1 0 0 I I #
edge $-1 $448 -2.2621308342835089 $364 7.1921866272096988 $363 $487 forward 7 unknown #
vertex $-1 $447 $488 #
straight-curve $-1 -49.26297799615466 -0.20289706217958603 2.1220384027214862 0.71933979245794832 0 0.69465837861970381 I I #
point $-1 -42.202843690840901 -0.20289706217958603 8.9399310047817409 #
point $-1 -49.262977996154667 -9.6572145236727938 2.1220384027214796 #
straight-curve $-1 -49.262977996154667 0 8.9399310047817409 0 -1 0 I I #
vertex $-1 $370 $489 #
point $-1 -41.570717583710341 -4.9300557929261899 4.100020554667962 #
coedge $-1 $385 $384 $377 $456 forward $374 $-1 #
edge $-1 $457 27.557908564193376 $460 34.375801166253638 $455 $490 forward 7 unknown #
vertex $-1 $389 $491 #
straight-curve $-1 -58.852429418864276 26.373744310743533 8.9399310047817409 -1 0 0 I I #
edge $-1 $460 -15.550451520745067 $386 -6.0961340592518631 $385 $492 forward 7 unknown #
vertex $-1 $459 $493 #
straight-curve $-1 -49.26297799615466 26.373744310743533 2.1220384027214862 0.71933979245794832 0 0.69465837861970381 I I #
point $-1 -42.202843690840901 26.373744310743533 8.9399310047817409 #
point $-1 -49.262977996154667 16.919426849250328 2.1220384027214796 #
straight-curve $-1 -49.262977996154667 0 8.9399310047817409 0 -1 0 I I #
vertex $-1 $392 $494 #
point $-1 -41.570717583710341 21.64658557999693 4.100020554667962 #
straight-curve $-1 -49.262977996154667 30.383321671733405 0 0 0 -1 I I #
point $-1 -49.262977996154667 -30.383321671733405 -8.9399310047817409 #
straight-curve $-1 -49.262977996154667 0 -8.9399310047817409 0 1 0 I I #
point $-1 -49.262977996154667 30.383321671733405 -8.9399310047817409 #
edge $-1 $473 -8.9399310047817409 $421 8.9399310047817409 $413 $495 forward 7 unknown #
straight-curve $-1 -33.376245597761937 -37.99668226935399 -8.9399310047817409 -1 0 0 I I #
vertex $-1 $427 $496 #
straight-curve $-1 -33.376245597761937 -37.99668226935399 8.9399310047817409 1 0 0 I I #
point $-1 -35.369375208932688 -37.99668226935399 8.9399310047817409 #
point $-1 -35.369375208932688 -37.99668226935399 -8.9399310047817409 #
point $-1 -31.383115986591186 -37.99668226935399 -8.9399310047817409 #
straight-curve $-1 -31.383115986591186 -34.190001970543697 8.9399310047817409 0 1 0 I I #
straight-curve $-1 49.262977996154667 -3.5703107675526979 70.300905370618892 0 0 -1 I I #
point $-1 49.262977996154667 -3.5703107675526979 8.9399310047817409 #
straight-curve $-1 49.262977996154667 1.8698788199178118 1.4560236161506026 0 1 0 I I #
point $-1 49.262977996154667 -3.5703107675526979 1.4560236161506026 #
point $-1 41.270281249836813 0.60687117952634395 0.93673906443047994 #
point $-1 41.270281249836813 6.8726441001449032 0.93673906443047994 #
straight-curve $-1 -49.262977996154667 -0.20289706217958603 36.497839568975117 0 0 -1 I I #
point $-1 -49.262977996154667 -0.20289706217958603 8.9399310047817409 #
straight-curve $-1 -49.262977996154667 -2.4650278964630949 2.1220384027214756 0 -1 0 I I #
point $-1 -49.262977996154667 -0.20289706217958603 2.1220384027214796 #
point $-1 -41.62008041138683 -4.9300557929261899 1.2720242125126577 #
straight-curve $-1 -49.262977996154667 26.373744310743533 36.497839568975117 0 0 -1 I I #
point $-1 -49.262977996154667 26.373744310743533 8.9399310047817409 #
straight-curve $-1 -49.262977996154667 10.823292789998465 2.1220384027214756 0 -1 0 I I #
point $-1 -49.262977996154667 26.373744310743533 2.1220384027214796 #
point $-1 -41.62008041138683 21.64658557999693 1.2720242125126577 #
straight-curve $-1 -31.383115986591186 -37.99668226935399 0 0 0 -1 I I #
point $-1 -31.383115986591186 -37.99668226935399 8.9399310047817409 #
End-of-ACIS-data 