500 0 4 0           
7 Unknown 11 ACIS 5.0 NT 24 Thu Mar 25 22:35:22 1999 
-1 9.9999999999999995e-007 1e-010 
body $-1 $4 $-1 $5 #
body $-1 $6 $-1 $7 #
body $-1 $8 $-1 $9 #
body $-1 $10 $-1 $11 #
lump $-1 $-1 $12 $0 #
transform $-1 1 0 0 0 1 0 0 0 1 52.50404370250557 28.667877641842939 13.353874837816745 1 rotate no_reflect no_shear #
lump $-1 $-1 $13 $1 #
transform $-1 1 0 0 0 1 0 0 0 1 52.50404370250557 28.667877641842939 13.353874837816745 1 rotate no_reflect no_shear #
lump $-1 $-1 $14 $2 #
transform $-1 1 0 0 0 1 0 0 0 1 52.50404370250557 28.667877641842939 13.353874837816745 1 rotate no_reflect no_shear #
lump $-1 $-1 $15 $3 #
transform $-1 1 0 0 0 1 0 0 0 1 52.50404370250557 28.667877641842939 13.353874837816745 1 rotate no_reflect no_shear #
shell $-1 $-1 $-1 $16 $-1 $4 #
shell $-1 $-1 $-1 $17 $-1 $6 #
shell $-1 $-1 $-1 $18 $-1 $8 #
shell $-1 $-1 $-1 $19 $-1 $10 #
face $-1 $20 $21 $12 $-1 $22 forward single #
face $-1 $23 $24 $13 $-1 $25 reversed single #
face $-1 $26 $27 $14 $-1 $28 reversed single #
face $-1 $29 $30 $15 $-1 $31 forward single #
face $-1 $32 $33 $12 $-1 $34 reversed single #
loop $-1 $-1 $35 $16 #
plane-surface $-1 0 0 13.353874837816745 0 0 1 1 0 0 forward_v I I I I #
face $-1 $36 $37 $13 $-1 $38 reversed single #
loop $-1 $-1 $39 $17 #
plane-surface $-1 0 -23.492094746429427 10.353874837816745 0 0 1 1 0 0 forward_v I I I I #
face $-1 $40 $41 $14 $-1 $42 reversed single #
loop $-1 $-1 $43 $18 #
plane-surface $-1 14.068417218996828 11.084751854464901 147.56889721643279 0 -1 0 -0.50000000669873634 0 -0.8660253999169214 forward_v I I I I #
face $-1 $44 $45 $15 $-1 $46 forward single #
loop $-1 $47 $48 $19 #
cone-surface $-1 42.771672198285337 4.7497540765410626 5.7256056376748976 -0.50000000669873634 0 -0.8660253999169214 2.1650634997923035 0 -1.2500000167468408 1 I I 0 1 2.5 forward I I I I #
face $-1 $49 $50 $12 $-1 $51 reversed single #
loop $-1 $-1 $52 $20 #
plane-surface $-1 0 0 -13.353874837816745 0 0 1 1 0 0 forward_v I I I I #
coedge $-1 $53 $54 $55 $56 forward $21 $-1 #
face $-1 $57 $58 $13 $-1 $59 reversed single #
loop $-1 $-1 $60 $23 #
plane-surface $-1 0 -18.316311851015914 11.853874837816745 0 -1 0 0 0 -1 forward_v I I I I #
coedge $-1 $61 $62 $63 $64 reversed $24 $-1 #
face $-1 $65 $66 $14 $-1 $67 reversed single #
loop $-1 $-1 $68 $26 #
plane-surface $-1 -38.435627186930233 4.7497540765410626 56.629226326996985 0.50000000669873634 0 0.8660253999169214 0.8660253999169214 0 -0.50000000669873634 forward_v I I I I #
coedge $-1 $69 $70 $71 $72 reversed $27 $-1 #
face $-1 $-1 $73 $15 $-1 $74 forward single #
loop $-1 $75 $76 $29 #
cone-surface $-1 40.406583052551454 4.7497540765410626 1.629151146010317 -0.50000000669873634 0 -0.8660253999169214 1.0825317498961518 0 -0.6250000083734204 1 I I -0.70710678118654746 0.70710678118654746 1.25 forward I I I I #
loop $-1 $-1 $77 $19 #
coedge $-1 $48 $48 $78 $79 reversed $30 $-1 #
face $-1 $80 $81 $12 $-1 $82 reversed single #
loop $-1 $-1 $83 $32 #
plane-surface $-1 0 -28.667877641842939 0 0 1 0 0 0 1 forward_v I I I I #
coedge $-1 $84 $85 $86 $87 forward $33 $-1 #
coedge $-1 $88 $35 $89 $90 forward $21 $-1 #
coedge $-1 $35 $88 $91 $92 forward $21 $-1 #
coedge $-1 $93 $94 $35 $56 reversed $95 $-1 #
edge $-1 $96 -28.667877641842939 $97 28.667877641842939 $55 $98 forward 7 unknown #
face $-1 $99 $100 $13 $-1 $101 reversed single #
loop $-1 $-1 $102 $36 #
plane-surface $-1 -52.50404370250557 0 0 1 0 0 0 0 -1 forward_v I I I I #
coedge $-1 $103 $104 $105 $106 reversed $37 $-1 #
coedge $-1 $107 $39 $108 $109 reversed $24 $-1 #
coedge $-1 $39 $107 $103 $110 forward $24 $-1 #
coedge $-1 $105 $111 $39 $64 forward $112 $-1 #
edge $-1 $113 -16.921830268628227 $114 -6.5702644778012012 $63 $115 forward 7 unknown #
face $-1 $116 $117 $14 $-1 $118 reversed single #
loop $-1 $-1 $119 $40 #
plane-surface $-1 14.068417218996828 -1.585243701382776 147.56889721643279 0 1 0 0.50000000669873634 0 0.8660253999169214 forward_v I I I I #
coedge $-1 $120 $121 $122 $123 reversed $41 $-1 #
coedge $-1 $70 $43 $124 $125 reversed $27 $-1 #
coedge $-1 $43 $69 $120 $126 reversed $27 $-1 #
coedge $-1 $122 $127 $43 $72 forward $128 $-1 #
edge $-1 $129 -45.469835093007156 $130 -29.485270359287675 $71 $131 forward 7 unknown #
loop $-1 $-1 $78 $44 #
plane-surface $-1 -38.435627186930233 4.7497540765410626 56.629226326996985 0.50000000669873634 0 0.8660253999169214 0.8660253999169214 0 -0.50000000669873634 forward_v I I I I #
loop $-1 $-1 $132 $29 #
coedge $-1 $76 $76 $77 $133 reversed $45 $-1 #
coedge $-1 $77 $77 $76 $133 forward $47 $-1 #
coedge $-1 $78 $78 $48 $79 forward $73 $-1 #
edge $-1 $134 0 $134 6.2831853071796004 $78 $135 forward 7 unknown #
face $-1 $136 $137 $12 $-1 $138 reversed single #
loop $-1 $-1 $139 $49 #
plane-surface $-1 -52.50404370250557 0 0 1 0 0 0 0 -1 forward_v I I I I #
coedge $-1 $140 $91 $141 $142 forward $50 $-1 #
coedge $-1 $143 $52 $140 $144 forward $33 $-1 #
coedge $-1 $52 $143 $145 $146 forward $33 $-1 #
coedge $-1 $94 $93 $52 $87 reversed $95 $-1 #
edge $-1 $147 -28.667877641842939 $148 28.667877641842939 $86 $149 forward 7 unknown #
coedge $-1 $54 $53 $150 $151 forward $21 $-1 #
coedge $-1 $152 $153 $53 $90 reversed $137 $-1 #
edge $-1 $97 -52.50404370250557 $154 52.50404370250557 $89 $155 forward 7 unknown #
coedge $-1 $83 $156 $54 $92 reversed $50 $-1 #
edge $-1 $157 -52.50404370250557 $96 52.50404370250557 $91 $158 forward 7 unknown #
coedge $-1 $86 $55 $156 $159 forward $95 $-1 #
coedge $-1 $55 $86 $152 $160 reversed $95 $-1 #
loop $-1 $-1 $93 $136 #
vertex $-1 $56 $161 #
vertex $-1 $56 $162 #
straight-curve $-1 52.50404370250557 0 13.353874837816745 0 1 0 I I #
face $-1 $163 $164 $13 $-1 $165 forward single #
loop $-1 $-1 $108 $57 #
plane-surface $-1 0 -28.667877641842939 0 0 1 0 0 0 1 forward_v I I I I #
coedge $-1 $166 $167 $168 $169 forward $58 $-1 #
coedge $-1 $168 $60 $62 $110 reversed $37 $-1 #
coedge $-1 $60 $168 $170 $171 reversed $37 $-1 #
coedge $-1 $172 $63 $60 $106 forward $112 $-1 #
edge $-1 $114 4.4269374189083726 $173 7.4269374189083726 $105 $174 forward 7 unknown #
coedge $-1 $62 $61 $166 $175 reversed $24 $-1 #
coedge $-1 $176 $177 $61 $109 forward $100 $-1 #
edge $-1 $178 -52.50404370250557 $113 52.50404370250557 $108 $179 forward 7 unknown #
edge $-1 $180 -52.50404370250557 $114 52.50404370250557 $103 $181 forward 7 unknown #
coedge $-1 $63 $172 $176 $182 forward $112 $-1 #
loop $-1 $-1 $105 $163 #
vertex $-1 $109 $183 #
vertex $-1 $64 $184 #
straight-curve $-1 52.50404370250557 -11.746047373214713 10.353874837816745 0 1 0 I I #
face $-1 $-1 $128 $14 $-1 $185 forward single #
loop $-1 $-1 $186 $65 #
plane-surface $-1 52.50404370250557 0 0 -1 0 0 0 0 1 forward_v I I I I #
coedge $-1 $187 $188 $189 $190 reversed $66 $-1 #
coedge $-1 $191 $68 $70 $126 forward $41 $-1 #
coedge $-1 $68 $191 $187 $192 forward $41 $-1 #
coedge $-1 $189 $71 $68 $123 forward $128 $-1 #
edge $-1 $130 -8.70987481619437 $193 3.9601207396533074 $122 $194 forward 7 unknown #
coedge $-1 $195 $196 $69 $125 forward $117 $-1 #
edge $-1 $197 -69.65926668714647 $129 -60.430573770399647 $124 $198 forward 7 unknown #
edge $-1 $130 86.550701818799823 $197 105.00808740501114 $70 $199 forward 7 unknown #
coedge $-1 $71 $189 $195 $200 forward $128 $-1 #
loop $-1 $-1 $189 $116 #
vertex $-1 $125 $201 #
vertex $-1 $72 $202 #
straight-curve $-1 7.034208609498414 11.084751854464901 13.353874837816747 -1 0 0 I I #
coedge $-1 $132 $132 $-1 $203 reversed $75 $-1 #
edge $-1 $204 0 $204 6.2831853071796004 $76 $205 forward 7 unknown #
vertex $-1 $79 $206 #
ellipse-curve $-1 44.511761335645815 4.7497540765410626 8.739528379443346 0.50000000669873634 0 0.8660253999169214 2.1650634997923035 0 -1.2500000167468408 1 I I #
face $-1 $-1 $95 $12 $-1 $207 reversed single #
loop $-1 $-1 $152 $80 #
plane-surface $-1 0 28.667877641842939 0 0 -1 0 0 0 -1 forward_v I I I I #
coedge $-1 $208 $150 $153 $209 forward $81 $-1 #
coedge $-1 $156 $83 $84 $144 reversed $50 $-1 #
coedge $-1 $150 $208 $83 $142 reversed $81 $-1 #
edge $-1 $157 -13.353874837816745 $210 13.353874837816745 $141 $211 forward 7 unknown #
coedge $-1 $85 $84 $208 $212 forward $33 $-1 #
edge $-1 $148 -52.50404370250557 $210 52.50404370250557 $140 $213 forward 7 unknown #
coedge $-1 $153 $152 $85 $146 reversed $137 $-1 #
edge $-1 $214 -52.50404370250557 $147 52.50404370250557 $145 $215 forward 7 unknown #
vertex $-1 $87 $216 #
vertex $-1 $159 $217 #
straight-curve $-1 52.50404370250557 0 -13.353874837816745 0 -1 0 I I #
coedge $-1 $139 $141 $88 $151 reversed $81 $-1 #
edge $-1 $154 -28.667877641842939 $157 28.667877641842939 $150 $218 forward 7 unknown #
coedge $-1 $145 $89 $94 $160 forward $137 $-1 #
coedge $-1 $89 $145 $139 $209 reversed $137 $-1 #
vertex $-1 $90 $219 #
straight-curve $-1 0 28.667877641842939 13.353874837816745 -1 0 0 I I #
coedge $-1 $91 $140 $93 $159 reversed $50 $-1 #
vertex $-1 $151 $220 #
straight-curve $-1 0 -28.667877641842939 13.353874837816745 1 0 0 I I #
edge $-1 $96 -13.353874837816745 $148 13.353874837816745 $93 $221 forward 7 unknown #
edge $-1 $97 -13.353874837816745 $147 13.353874837816745 $94 $222 forward 7 unknown #
point $-1 52.50404370250557 -28.667877641842939 13.353874837816745 #
point $-1 52.50404370250557 28.667877641842939 13.353874837816745 #
face $-1 $-1 $112 $13 $-1 $223 reversed single #
loop $-1 $-1 $170 $99 #
plane-surface $-1 0 0 13.353874837816745 0 0 1 1 0 0 forward_v I I I I #
coedge $-1 $224 $102 $107 $175 forward $58 $-1 #
coedge $-1 $102 $224 $225 $226 reversed $58 $-1 #
coedge $-1 $104 $103 $102 $169 reversed $37 $-1 #
edge $-1 $227 -7.4269374189083726 $180 -4.4269374189083726 $102 $228 forward 7 unknown #
coedge $-1 $225 $229 $104 $171 forward $164 $-1 #
edge $-1 $173 -52.50404370250557 $227 52.50404370250557 $170 $230 forward 7 unknown #
coedge $-1 $111 $105 $229 $231 reversed $112 $-1 #
vertex $-1 $106 $232 #
straight-curve $-1 52.50404370250557 -18.316311851015914 5.9269374189083726 0 0 1 I I #
edge $-1 $180 6.5702644778012012 $178 16.921830268628227 $166 $233 forward 7 unknown #
coedge $-1 $234 $108 $111 $182 reversed $100 $-1 #
coedge $-1 $108 $234 $224 $235 forward $100 $-1 #
vertex $-1 $109 $236 #
straight-curve $-1 0 -28.667877641842939 10.353874837816745 1 0 0 I I #
vertex $-1 $175 $237 #
straight-curve $-1 0 -18.316311851015914 10.353874837816745 1 0 0 I I #
edge $-1 $238 -13.353874837816745 $113 -10.353874837816745 $111 $239 forward 7 unknown #
point $-1 52.50404370250557 -28.667877641842939 10.353874837816745 #
point $-1 52.50404370250557 -18.316311851015914 10.353874837816745 #
plane-surface $-1 0 0 13.353874837816745 0 0 1 1 0 0 forward_v I I I I #
coedge $-1 $196 $195 $188 $240 forward $117 $-1 #
coedge $-1 $188 $119 $121 $192 reversed $66 $-1 #
coedge $-1 $119 $187 $186 $240 reversed $66 $-1 #
coedge $-1 $127 $122 $119 $190 forward $128 $-1 #
edge $-1 $193 29.485270359287675 $241 45.469835093007156 $189 $242 forward 7 unknown #
coedge $-1 $121 $120 $196 $243 reversed $41 $-1 #
edge $-1 $244 -105.00808740501114 $193 -86.550701818799823 $187 $245 forward 7 unknown #
vertex $-1 $123 $246 #
straight-curve $-1 36.519478968786082 2.3748770382705313 13.35387483781675 0 -1 0 I I #
coedge $-1 $186 $124 $127 $200 reversed $117 $-1 #
coedge $-1 $124 $186 $191 $243 forward $117 $-1 #
vertex $-1 $125 $247 #
straight-curve $-1 52.50404370250557 11.084751854464901 73.784448608216394 0 0 1 I I #
straight-curve $-1 -38.435627186930233 11.084751854464901 56.629226326996985 0.8660253999169214 0 -0.50000000669873634 I I #
edge $-1 $241 -1.585243701382776 $129 11.084751854464901 $195 $248 forward 7 unknown #
point $-1 52.50404370250557 11.084751854464901 13.353874837816745 #
point $-1 36.519478968786089 11.084751854464901 13.353874837816747 #
edge $-1 $249 1 $249 0 $132 $-1 forward 7 unknown #
vertex $-1 $133 $250 #
ellipse-curve $-1 41.031583060924874 4.7497540765410626 2.7116828959064687 0.50000000669873634 0 0.8660253999169214 2.1650634997923035 0 -1.2500000167468408 1 I I #
point $-1 46.676824835438111 4.7497540765410626 7.4895283626964844 #
plane-surface $-1 52.50404370250557 0 0 -1 0 0 0 0 1 forward_v I I I I #
coedge $-1 $141 $139 $143 $212 reversed $81 $-1 #
edge $-1 $154 -13.353874837816745 $214 13.353874837816745 $153 $251 forward 7 unknown #
vertex $-1 $212 $252 #
straight-curve $-1 -52.50404370250557 -28.667877641842939 0 0 0 -1 I I #
edge $-1 $210 -28.667877641842939 $214 28.667877641842939 $208 $253 forward 7 unknown #
straight-curve $-1 0 -28.667877641842939 -13.353874837816745 -1 0 0 I I #
vertex $-1 $146 $254 #
straight-curve $-1 0 28.667877641842939 -13.353874837816745 1 0 0 I I #
point $-1 52.50404370250557 28.667877641842939 -13.353874837816745 #
point $-1 52.50404370250557 -28.667877641842939 -13.353874837816745 #
straight-curve $-1 -52.50404370250557 0 13.353874837816745 0 -1 0 I I #
point $-1 -52.50404370250557 28.667877641842939 13.353874837816745 #
point $-1 -52.50404370250557 -28.667877641842939 13.353874837816745 #
straight-curve $-1 52.50404370250557 -28.667877641842939 0 0 0 -1 I I #
straight-curve $-1 52.50404370250557 28.667877641842939 0 0 0 -1 I I #
plane-surface $-1 52.50404370250557 0 0 -1 0 0 0 0 1 forward_v I I I I #
coedge $-1 $167 $166 $177 $235 reversed $58 $-1 #
coedge $-1 $255 $170 $167 $226 forward $164 $-1 #
edge $-1 $227 18.316311851015914 $256 28.667877641842939 $167 $257 forward 7 unknown #
vertex $-1 $226 $258 #
straight-curve $-1 -52.50404370250557 -18.316311851015914 5.9269374189083726 0 0 -1 I I #
coedge $-1 $170 $255 $172 $231 forward $164 $-1 #
straight-curve $-1 0 -18.316311851015914 13.353874837816745 -1 0 0 I I #
edge $-1 $238 -28.667877641842939 $173 -18.316311851015914 $172 $259 forward 7 unknown #
point $-1 52.50404370250557 -18.316311851015914 13.353874837816745 #
straight-curve $-1 -52.50404370250557 -11.746047373214713 10.353874837816745 0 -1 0 I I #
coedge $-1 $177 $176 $255 $260 reversed $100 $-1 #
edge $-1 $256 -13.353874837816745 $178 -10.353874837816745 $224 $261 forward 7 unknown #
point $-1 -52.50404370250557 -28.667877641842939 10.353874837816745 #
point $-1 -52.50404370250557 -18.316311851015914 10.353874837816745 #
vertex $-1 $231 $262 #
straight-curve $-1 52.50404370250557 -28.667877641842939 0 0 0 -1 I I #
edge $-1 $241 60.430573770399647 $244 69.65926668714647 $186 $263 forward 7 unknown #
vertex $-1 $200 $264 #
straight-curve $-1 7.034208609498414 -1.585243701382776 13.353874837816747 1 0 0 I I #
edge $-1 $244 -3.9601207396533074 $197 8.70987481619437 $196 $265 forward 7 unknown #
vertex $-1 $243 $266 #
straight-curve $-1 -38.435627186930233 -1.585243701382776 56.629226326996985 -0.8660253999169214 0 0.50000000669873634 I I #
point $-1 36.519478968786089 -1.585243701382776 13.353874837816747 #
point $-1 52.50404370250557 11.084751854464901 4.1251819210699239 #
straight-curve $-1 52.50404370250557 0 13.353874837816745 0 1 0 I I #
vertex $-1 $203 $267 #
point $-1 43.196646560717177 4.7497540765410626 1.4616828791596279 #
straight-curve $-1 -52.50404370250557 28.667877641842939 0 0 0 -1 I I #
point $-1 -52.50404370250557 -28.667877641842939 -13.353874837816745 #
straight-curve $-1 -52.50404370250557 0 -13.353874837816745 0 1 0 I I #
point $-1 -52.50404370250557 28.667877641842939 -13.353874837816745 #
coedge $-1 $229 $225 $234 $260 forward $164 $-1 #
vertex $-1 $226 $268 #
straight-curve $-1 -52.50404370250557 0 13.353874837816745 0 -1 0 I I #
point $-1 -52.50404370250557 -18.316311851015914 13.353874837816745 #
straight-curve $-1 52.50404370250557 0 13.353874837816745 0 1 0 I I #
edge $-1 $256 -52.50404370250557 $238 52.50404370250557 $234 $269 forward 7 unknown #
straight-curve $-1 -52.50404370250557 -28.667877641842939 0 0 0 -1 I I #
point $-1 52.50404370250557 -28.667877641842939 13.353874837816745 #
straight-curve $-1 52.50404370250557 -1.585243701382776 73.784448608216394 0 0 -1 I I #
point $-1 52.50404370250557 -1.585243701382776 13.353874837816745 #
straight-curve $-1 52.50404370250557 2.3748770382705313 4.125181921069931 0 1 0 I I #
point $-1 52.50404370250557 -1.585243701382776 4.1251819210699239 #
point $-1 39.781583044178035 4.7497540765410626 0.54661939611416521 #
point $-1 -52.50404370250557 -28.667877641842939 13.353874837816745 #
straight-curve $-1 0 -28.667877641842939 13.353874837816745 1 0 0 I I #
End-of-ACIS-data 