500 0 8 0           
7 Unknown 11 ACIS 5.0 NT 24 Fri Mar 26 17:36:32 1999 
-1 9.9999999999999995e-007 1e-010 
body $-1 $8 $-1 $9 #
body $-1 $10 $-1 $11 #
body $-1 $12 $-1 $13 #
body $-1 $14 $-1 $15 #
body $-1 $16 $-1 $17 #
body $-1 $18 $-1 $19 #
body $-1 $20 $-1 $21 #
body $-1 $22 $-1 $23 #
lump $-1 $-1 $24 $0 #
transform $-1 1 0 0 0 1 0 0 0 1 76.59901730399487 42.683140881022098 8.9332777443147524 1 rotate no_reflect no_shear #
lump $-1 $-1 $25 $1 #
transform $-1 1 0 0 0 1 0 0 0 1 76.59901730399487 42.683140881022098 8.9332777443147524 1 rotate no_reflect no_shear #
lump $-1 $-1 $26 $2 #
transform $-1 1 0 0 0 1 0 0 0 1 76.59901730399487 42.683140881022098 8.9332777443147524 1 rotate no_reflect no_shear #
lump $-1 $-1 $27 $3 #
transform $-1 1 0 0 0 1 0 0 0 1 76.59901730399487 42.683140881022098 8.9332777443147524 1 rotate no_reflect no_shear #
lump $-1 $-1 $28 $4 #
transform $-1 1 0 0 0 1 0 0 0 1 76.59901730399487 42.683140881022098 8.9332777443147524 1 rotate no_reflect no_shear #
lump $-1 $-1 $29 $5 #
transform $-1 1 0 0 0 1 0 0 0 1 76.59901730399487 42.683140881022098 8.9332777443147524 1 rotate no_reflect no_shear #
lump $-1 $-1 $30 $6 #
transform $-1 1 0 0 0 1 0 0 0 1 76.59901730399487 42.683140881022098 8.9332777443147524 1 rotate no_reflect no_shear #
lump $-1 $-1 $31 $7 #
transform $-1 1 0 0 0 1 0 0 0 1 76.59901730399487 42.683140881022098 8.9332777443147524 1 rotate no_reflect no_shear #
shell $-1 $-1 $-1 $32 $-1 $8 #
shell $-1 $-1 $-1 $33 $-1 $10 #
shell $-1 $-1 $-1 $34 $-1 $12 #
shell $-1 $-1 $-1 $35 $-1 $14 #
shell $-1 $-1 $-1 $36 $-1 $16 #
shell $-1 $-1 $-1 $37 $-1 $18 #
shell $-1 $-1 $-1 $38 $-1 $20 #
shell $-1 $-1 $-1 $39 $-1 $22 #
face $-1 $40 $41 $24 $-1 $42 forward single #
face $-1 $43 $44 $25 $-1 $45 forward single #
face $-1 $46 $47 $26 $-1 $48 reversed single #
face $-1 $49 $50 $27 $-1 $51 forward single #
face $-1 $52 $53 $28 $-1 $54 forward single #
face $-1 $55 $56 $29 $-1 $57 reversed single #
face $-1 $58 $59 $30 $-1 $60 forward single #
face $-1 $61 $62 $31 $-1 $63 forward single #
face $-1 $64 $65 $24 $-1 $66 reversed single #
loop $-1 $-1 $67 $32 #
plane-surface $-1 0 0 8.9332777443147524 0 0 1 1 0 0 forward_v I I I I #
face $-1 $68 $69 $25 $-1 $70 reversed single #
loop $-1 $-1 $71 $33 #
plane-surface $-1 0 -42.683140881022098 0 0 1 0 0 0 1 forward_v I I I I #
face $-1 $72 $73 $26 $-1 $74 reversed single #
loop $-1 $-1 $75 $34 #
plane-surface $-1 91.712090596297017 -12.969271032943261 218.8784095077859 0 -1 0 -0.75470958851134928 0 -0.65605901945558964 forward_v I I I I #
face $-1 $76 $77 $27 $-1 $78 forward single #
loop $-1 $79 $80 $35 #
cone-surface $-1 72.952257825243535 -23.150386121542439 5.0079601431201857 -0.75470958851134928 0 -0.65605901945558964 1.3121180389111793 0 -1.5094191770226986 1 I I 0 1 2 forward I I I I #
face $-1 $81 $82 $28 $-1 $83 forward single #
loop $-1 $84 $85 $36 #
cone-surface $-1 72.952257825243535 -17.041717068382933 5.0079601431201857 -0.75470958851134928 0 -0.65605901945558964 1.3121180389111793 0 -1.5094191770226986 1 I I 0 1 2 forward I I I I #
face $-1 $86 $87 $29 $-1 $88 reversed single #
loop $-1 $-1 $89 $37 #
plane-surface $-1 91.712090596297017 25.074669613933356 218.8784095077859 0 -1 0 -0.75470958851134928 0 -0.65605901945558964 forward_v I I I I #
face $-1 $90 $91 $30 $-1 $92 forward single #
loop $-1 $93 $94 $38 #
cone-surface $-1 72.952257825243535 14.893554525334181 5.0079601431201857 -0.75470958851134928 0 -0.65605901945558964 1.3121180389111793 0 -1.5094191770226986 1 I I 0 1 2 forward I I I I #
face $-1 $95 $96 $31 $-1 $97 forward single #
loop $-1 $98 $99 $39 #
cone-surface $-1 72.952257825243535 21.002223578493684 5.0079601431201857 -0.75470958851134928 0 -0.65605901945558964 1.3121180389111793 0 -1.5094191770226986 1 I I 0 1 2 forward I I I I #
face $-1 $100 $101 $24 $-1 $102 reversed single #
loop $-1 $-1 $103 $40 #
plane-surface $-1 0 0 -8.9332777443147524 0 0 1 1 0 0 forward_v I I I I #
coedge $-1 $104 $105 $106 $107 forward $41 $-1 #
face $-1 $108 $109 $25 $-1 $110 reversed single #
loop $-1 $-1 $111 $43 #
plane-surface $-1 0 0 -8.9332777443147524 0 0 1 1 0 0 forward_v I I I I #
coedge $-1 $112 $113 $114 $115 forward $44 $-1 #
face $-1 $116 $117 $26 $-1 $118 reversed single #
loop $-1 $-1 $119 $46 #
plane-surface $-1 -23.907935063446359 -20.096051594962685 118.37145714034467 0.75470958851134928 0 0.65605901945558964 0.65605901945558964 0 -0.75470958851134928 forward_v I I I I #
coedge $-1 $120 $121 $122 $123 reversed $47 $-1 #
face $-1 $-1 $124 $27 $-1 $125 forward single #
loop $-1 $126 $127 $49 #
cone-surface $-1 71.237687175554115 -23.150386121542439 3.5175066543267786 -0.75470958851134928 0 -0.65605901945558964 0.65605901945558964 0 -0.75470958851134928 1 I I -0.70710678118654746 0.70710678118654746 1 forward I I I I #
loop $-1 $-1 $128 $35 #
coedge $-1 $80 $80 $129 $130 reversed $50 $-1 #
face $-1 $-1 $131 $28 $-1 $132 forward single #
loop $-1 $133 $134 $52 #
cone-surface $-1 71.237687175554115 -17.041717068382933 3.5175066543267786 -0.75470958851134928 0 -0.65605901945558964 0.65605901945558964 0 -0.75470958851134928 1 I I -0.70710678118654746 0.70710678118654746 1 forward I I I I #
loop $-1 $-1 $135 $36 #
coedge $-1 $85 $85 $136 $137 reversed $53 $-1 #
face $-1 $138 $139 $29 $-1 $140 reversed single #
loop $-1 $-1 $141 $55 #
plane-surface $-1 -23.907935063446359 17.947889051913933 118.37145714034467 0.75470958851134928 0 0.65605901945558964 0.65605901945558964 0 -0.75470958851134928 forward_v I I I I #
coedge $-1 $142 $143 $144 $145 reversed $56 $-1 #
face $-1 $-1 $146 $30 $-1 $147 forward single #
loop $-1 $148 $149 $58 #
cone-surface $-1 71.237687175554115 14.893554525334181 3.5175066543267786 -0.75470958851134928 0 -0.65605901945558964 0.65605901945558964 0 -0.75470958851134928 1 I I -0.70710678118654746 0.70710678118654746 1 forward I I I I #
loop $-1 $-1 $150 $38 #
coedge $-1 $94 $94 $151 $152 reversed $59 $-1 #
face $-1 $-1 $153 $31 $-1 $154 forward single #
loop $-1 $155 $156 $61 #
cone-surface $-1 71.237687175554115 21.002223578493684 3.5175066543267786 -0.75470958851134928 0 -0.65605901945558964 0.65605901945558964 0 -0.75470958851134928 1 I I -0.70710678118654746 0.70710678118654746 1 forward I I I I #
loop $-1 $-1 $157 $39 #
coedge $-1 $99 $99 $158 $159 reversed $62 $-1 #
face $-1 $160 $161 $24 $-1 $162 reversed single #
loop $-1 $-1 $163 $64 #
plane-surface $-1 0 -42.683140881022098 0 0 1 0 0 0 1 forward_v I I I I #
coedge $-1 $164 $165 $166 $167 forward $65 $-1 #
coedge $-1 $168 $67 $169 $170 forward $41 $-1 #
coedge $-1 $67 $168 $171 $172 forward $41 $-1 #
coedge $-1 $173 $174 $67 $107 reversed $175 $-1 #
edge $-1 $176 -42.683140881022098 $177 42.683140881022098 $106 $178 forward 7 unknown #
face $-1 $179 $180 $25 $-1 $181 forward single #
loop $-1 $-1 $182 $68 #
plane-surface $-1 76.59901730399487 0 0 -1 0 0 0 0 1 forward_v I I I I #
coedge $-1 $183 $184 $185 $186 forward $69 $-1 #
coedge $-1 $185 $71 $182 $187 reversed $44 $-1 #
coedge $-1 $71 $185 $188 $189 reversed $44 $-1 #
coedge $-1 $190 $191 $71 $115 reversed $180 $-1 #
edge $-1 $192 -76.59901730399487 $193 76.59901730399487 $114 $194 forward 7 unknown #
face $-1 $195 $196 $26 $-1 $197 reversed single #
loop $-1 $-1 $198 $72 #
plane-surface $-1 91.712090596297017 -27.222832156982108 218.8784095077859 0 1 0 0.75470958851134928 0 0.65605901945558964 forward_v I I I I #
coedge $-1 $199 $200 $201 $202 reversed $73 $-1 #
coedge $-1 $121 $75 $203 $204 reversed $47 $-1 #
coedge $-1 $75 $120 $199 $205 reversed $47 $-1 #
coedge $-1 $201 $206 $75 $123 forward $207 $-1 #
edge $-1 $208 -30.742972005846362 $209 -25.369175170699812 $122 $210 forward 7 unknown #
loop $-1 $-1 $129 $76 #
plane-surface $-1 -23.907935063446359 -20.096051594962685 118.37145714034467 0.75470958851134928 0 0.65605901945558964 0.65605901945558964 0 -0.75470958851134928 forward_v I I I I #
loop $-1 $-1 $211 $49 #
coedge $-1 $127 $127 $128 $212 reversed $77 $-1 #
coedge $-1 $128 $128 $127 $212 forward $79 $-1 #
coedge $-1 $129 $129 $80 $130 forward $124 $-1 #
edge $-1 $213 0 $213 6.2831853071796004 $129 $214 forward 7 unknown #
loop $-1 $-1 $136 $81 #
plane-surface $-1 -23.907935063446359 -20.096051594962685 118.37145714034467 0.75470958851134928 0 0.65605901945558964 0.65605901945558964 0 -0.75470958851134928 forward_v I I I I #
loop $-1 $-1 $215 $52 #
coedge $-1 $134 $134 $135 $216 reversed $82 $-1 #
coedge $-1 $135 $135 $134 $216 forward $84 $-1 #
coedge $-1 $136 $136 $85 $137 forward $131 $-1 #
edge $-1 $217 0 $217 6.2831853071796004 $136 $218 forward 7 unknown #
face $-1 $219 $220 $29 $-1 $221 reversed single #
loop $-1 $-1 $222 $86 #
plane-surface $-1 91.712090596297017 10.82110848989451 218.8784095077859 0 1 0 0.75470958851134928 0 0.65605901945558964 forward_v I I I I #
coedge $-1 $223 $224 $225 $226 reversed $87 $-1 #
coedge $-1 $143 $89 $227 $228 reversed $56 $-1 #
coedge $-1 $89 $142 $223 $229 reversed $56 $-1 #
coedge $-1 $225 $230 $89 $145 forward $231 $-1 #
edge $-1 $232 -30.742972005846362 $233 -25.369175170699812 $144 $234 forward 7 unknown #
loop $-1 $-1 $151 $90 #
plane-surface $-1 -23.907935063446359 17.947889051913933 118.37145714034467 0.75470958851134928 0 0.65605901945558964 0.65605901945558964 0 -0.75470958851134928 forward_v I I I I #
loop $-1 $-1 $235 $58 #
coedge $-1 $149 $149 $150 $236 reversed $91 $-1 #
coedge $-1 $150 $150 $149 $236 forward $93 $-1 #
coedge $-1 $151 $151 $94 $152 forward $146 $-1 #
edge $-1 $237 0 $237 6.2831853071796004 $151 $238 forward 7 unknown #
loop $-1 $-1 $158 $95 #
plane-surface $-1 -23.907935063446359 17.947889051913933 118.37145714034467 0.75470958851134928 0 0.65605901945558964 0.65605901945558964 0 -0.75470958851134928 forward_v I I I I #
loop $-1 $-1 $239 $61 #
coedge $-1 $156 $156 $157 $240 reversed $96 $-1 #
coedge $-1 $157 $157 $156 $240 forward $98 $-1 #
coedge $-1 $158 $158 $99 $159 forward $153 $-1 #
edge $-1 $241 0 $241 6.2831853071796004 $158 $242 forward 7 unknown #
face $-1 $243 $244 $24 $-1 $245 reversed single #
loop $-1 $-1 $246 $100 #
plane-surface $-1 -76.59901730399487 0 0 1 0 0 0 0 -1 forward_v I I I I #
coedge $-1 $171 $247 $173 $248 reversed $101 $-1 #
coedge $-1 $249 $103 $247 $250 forward $65 $-1 #
coedge $-1 $103 $249 $251 $252 forward $65 $-1 #
coedge $-1 $174 $173 $103 $167 reversed $175 $-1 #
edge $-1 $253 -42.683140881022098 $254 42.683140881022098 $166 $255 forward 7 unknown #
coedge $-1 $105 $104 $256 $257 forward $41 $-1 #
coedge $-1 $258 $259 $104 $170 reversed $244 $-1 #
edge $-1 $177 -76.59901730399487 $260 76.59901730399487 $169 $261 forward 7 unknown #
coedge $-1 $262 $163 $105 $172 reversed $101 $-1 #
edge $-1 $263 -76.59901730399487 $176 76.59901730399487 $171 $264 forward 7 unknown #
coedge $-1 $166 $106 $163 $248 forward $175 $-1 #
coedge $-1 $106 $166 $258 $265 reversed $175 $-1 #
loop $-1 $-1 $173 $243 #
vertex $-1 $107 $266 #
vertex $-1 $107 $267 #
straight-curve $-1 76.59901730399487 0 8.9332777443147524 0 1 0 I I #
face $-1 $268 $269 $25 $-1 $270 reversed single #
loop $-1 $-1 $191 $108 #
plane-surface $-1 0 -47.322341115167575 -5.1868463924416961 0 0 1 1 0 0 forward_v I I I I #
coedge $-1 $271 $272 $112 $187 forward $109 $-1 #
coedge $-1 $273 $111 $272 $274 forward $69 $-1 #
coedge $-1 $111 $273 $275 $276 forward $69 $-1 #
coedge $-1 $113 $112 $111 $186 reversed $44 $-1 #
edge $-1 $277 -76.59901730399487 $278 76.59901730399487 $111 $279 forward 7 unknown #
edge $-1 $278 -8.9332777443147524 $193 -5.1868463924416961 $182 $280 forward 7 unknown #
coedge $-1 $275 $281 $113 $189 forward $282 $-1 #
edge $-1 $192 5.1868463924416961 $277 8.9332777443147524 $188 $283 forward 7 unknown #
coedge $-1 $284 $114 $281 $285 forward $180 $-1 #
coedge $-1 $114 $284 $271 $286 forward $180 $-1 #
vertex $-1 $189 $287 #
vertex $-1 $286 $288 #
straight-curve $-1 0 -42.683140881022098 -5.1868463924416961 1 0 0 I I #
face $-1 $-1 $207 $26 $-1 $289 forward single #
loop $-1 $-1 $290 $116 #
plane-surface $-1 76.59901730399487 0 0 -1 0 0 0 0 1 forward_v I I I I #
coedge $-1 $291 $292 $293 $294 reversed $117 $-1 #
coedge $-1 $295 $119 $121 $205 forward $73 $-1 #
coedge $-1 $119 $295 $291 $296 forward $73 $-1 #
coedge $-1 $293 $122 $119 $202 forward $207 $-1 #
edge $-1 $209 2.9212452354619192 $297 17.174806359500764 $201 $298 forward 7 unknown #
coedge $-1 $299 $300 $120 $204 forward $196 $-1 #
edge $-1 $301 -106.68777327329165 $208 -100.5059270095782 $203 $302 forward 7 unknown #
edge $-1 $209 145.00700807564237 $301 153.19803460798977 $121 $303 forward 7 unknown #
coedge $-1 $122 $293 $299 $304 forward $207 $-1 #
loop $-1 $-1 $293 $195 #
vertex $-1 $204 $305 #
vertex $-1 $123 $306 #
straight-curve $-1 45.856045298148508 -12.969271032943261 8.9332777443147506 -1 0 0 I I #
coedge $-1 $211 $211 $-1 $307 reversed $126 $-1 #
edge $-1 $308 0 $308 6.2831853071796004 $127 $309 forward 7 unknown #
vertex $-1 $130 $310 #
ellipse-curve $-1 73.912118886421609 -23.150386121542439 5.8423546124580064 0.75470958851134928 0 0.65605901945558964 1.3121180389111793 0 -1.5094191770226986 1 I I #
coedge $-1 $215 $215 $-1 $311 reversed $133 $-1 #
edge $-1 $312 0 $312 6.2831853071796004 $134 $313 forward 7 unknown #
vertex $-1 $137 $314 #
ellipse-curve $-1 73.912118886421609 -17.041717068382933 5.8423546124580064 0.75470958851134928 0 0.65605901945558964 1.3121180389111793 0 -1.5094191770226986 1 I I #
face $-1 $-1 $231 $29 $-1 $315 forward single #
loop $-1 $-1 $316 $138 #
plane-surface $-1 76.59901730399487 0 0 -1 0 0 0 0 1 forward_v I I I I #
coedge $-1 $317 $318 $319 $320 reversed $139 $-1 #
coedge $-1 $321 $141 $143 $229 forward $87 $-1 #
coedge $-1 $141 $321 $317 $322 forward $87 $-1 #
coedge $-1 $319 $144 $141 $226 forward $231 $-1 #
edge $-1 $233 -16.100725087976389 $323 -1.8471639639375432 $225 $324 forward 7 unknown #
coedge $-1 $325 $326 $142 $228 forward $220 $-1 #
edge $-1 $327 -106.68777327329165 $232 -100.5059270095782 $227 $328 forward 7 unknown #
edge $-1 $233 145.00700807564237 $327 153.19803460798977 $143 $329 forward 7 unknown #
coedge $-1 $144 $319 $325 $330 forward $231 $-1 #
loop $-1 $-1 $319 $219 #
vertex $-1 $228 $331 #
vertex $-1 $145 $332 #
straight-curve $-1 45.856045298148508 25.074669613933356 8.9332777443147506 -1 0 0 I I #
coedge $-1 $235 $235 $-1 $333 reversed $148 $-1 #
edge $-1 $334 0 $334 6.2831853071796004 $149 $335 forward 7 unknown #
vertex $-1 $152 $336 #
ellipse-curve $-1 73.912118886421609 14.893554525334181 5.8423546124580064 0.75470958851134928 0 0.65605901945558964 1.3121180389111793 0 -1.5094191770226986 1 I I #
coedge $-1 $239 $239 $-1 $337 reversed $155 $-1 #
edge $-1 $338 0 $338 6.2831853071796004 $156 $339 forward 7 unknown #
vertex $-1 $159 $340 #
ellipse-curve $-1 73.912118886421609 21.002223578493684 5.8423546124580064 0.75470958851134928 0 0.65605901945558964 1.3121180389111793 0 -1.5094191770226986 1 I I #
face $-1 $-1 $175 $24 $-1 $341 reversed single #
loop $-1 $-1 $258 $160 #
plane-surface $-1 0 42.683140881022098 0 0 -1 0 0 0 -1 forward_v I I I I #
coedge $-1 $342 $256 $259 $343 forward $161 $-1 #
coedge $-1 $163 $262 $164 $250 reversed $101 $-1 #
edge $-1 $176 -8.9332777443147524 $254 8.9332777443147524 $173 $344 forward 7 unknown #
coedge $-1 $165 $164 $342 $345 forward $65 $-1 #
edge $-1 $254 -76.59901730399487 $346 76.59901730399487 $247 $347 forward 7 unknown #
coedge $-1 $259 $258 $165 $252 reversed $244 $-1 #
edge $-1 $348 -76.59901730399487 $253 76.59901730399487 $251 $349 forward 7 unknown #
vertex $-1 $167 $350 #
vertex $-1 $248 $351 #
straight-curve $-1 76.59901730399487 0 -8.9332777443147524 0 -1 0 I I #
coedge $-1 $246 $352 $168 $257 reversed $161 $-1 #
edge $-1 $260 -42.683140881022098 $263 42.683140881022098 $256 $353 forward 7 unknown #
coedge $-1 $251 $169 $174 $265 forward $244 $-1 #
coedge $-1 $169 $251 $246 $343 reversed $244 $-1 #
vertex $-1 $170 $354 #
straight-curve $-1 0 42.683140881022098 8.9332777443147524 -1 0 0 I I #
coedge $-1 $247 $171 $352 $355 forward $101 $-1 #
vertex $-1 $257 $356 #
straight-curve $-1 0 -42.683140881022098 8.9332777443147524 1 0 0 I I #
edge $-1 $177 -8.9332777443147524 $253 8.9332777443147524 $174 $357 forward 7 unknown #
point $-1 76.59901730399487 -42.683140881022098 8.9332777443147524 #
point $-1 76.59901730399487 42.683140881022098 8.9332777443147524 #
face $-1 $-1 $282 $25 $-1 $358 reversed single #
loop $-1 $-1 $359 $179 #
plane-surface $-1 0 -51.961541349313052 -7.0600620683782243 0 1 0 0 0 1 forward_v I I I I #
coedge $-1 $360 $182 $191 $286 reversed $109 $-1 #
coedge $-1 $182 $360 $183 $274 reversed $109 $-1 #
coedge $-1 $184 $183 $361 $362 forward $69 $-1 #
edge $-1 $278 42.683140881022098 $363 51.961541349313052 $272 $364 forward 7 unknown #
coedge $-1 $365 $188 $184 $276 reversed $282 $-1 #
edge $-1 $366 -51.961541349313052 $277 -42.683140881022098 $275 $367 forward 7 unknown #
vertex $-1 $189 $368 #
vertex $-1 $274 $369 #
straight-curve $-1 0 -42.683140881022098 -8.9332777443147524 1 0 0 I I #
straight-curve $-1 76.59901730399487 -42.683140881022098 0 0 0 1 I I #
coedge $-1 $188 $365 $190 $285 reversed $282 $-1 #
loop $-1 $-1 $188 $268 #
straight-curve $-1 -76.59901730399487 -42.683140881022098 0 0 0 -1 I I #
coedge $-1 $191 $190 $370 $371 forward $180 $-1 #
edge $-1 $192 -4.639200234145477 $372 4.639200234145477 $281 $373 forward 7 unknown #
edge $-1 $374 -4.639200234145477 $193 4.639200234145477 $271 $375 forward 7 unknown #
point $-1 -76.59901730399487 -42.683140881022098 -5.1868463924416961 #
point $-1 76.59901730399487 -42.683140881022098 -5.1868463924416961 #
plane-surface $-1 0 0 8.9332777443147524 0 0 1 1 0 0 forward_v I I I I #
coedge $-1 $300 $299 $292 $376 forward $196 $-1 #
coedge $-1 $292 $198 $200 $296 reversed $117 $-1 #
coedge $-1 $198 $291 $290 $376 reversed $117 $-1 #
coedge $-1 $206 $201 $198 $294 forward $207 $-1 #
edge $-1 $297 25.369175170699812 $377 30.742972005846362 $293 $378 forward 7 unknown #
coedge $-1 $200 $199 $300 $379 reversed $73 $-1 #
edge $-1 $380 -153.19803460798977 $297 -145.00700807564237 $291 $381 forward 7 unknown #
vertex $-1 $202 $382 #
straight-curve $-1 71.22522046884832 -10.048025797481342 8.9332777443147364 0 -1 0 I I #
coedge $-1 $290 $203 $206 $304 reversed $196 $-1 #
coedge $-1 $203 $290 $295 $379 forward $196 $-1 #
vertex $-1 $204 $383 #
straight-curve $-1 76.59901730399487 -12.969271032943261 109.43920475389295 0 0 1 I I #
straight-curve $-1 -23.907935063446359 -12.969271032943261 118.37145714034467 0.65605901945558964 0 -0.75470958851134928 I I #
edge $-1 $377 -27.222832156982108 $208 -12.969271032943261 $299 $384 forward 7 unknown #
point $-1 76.59901730399487 -12.969271032943261 8.9332777443147524 #
point $-1 71.22522046884832 -12.969271032943261 8.9332777443147364 #
edge $-1 $385 1 $385 0 $211 $-1 forward 7 unknown #
vertex $-1 $212 $386 #
ellipse-curve $-1 71.992396764065461 -23.150386121542439 4.1735656737823685 0.75470958851134928 0 0.65605901945558964 1.3121180389111793 0 -1.5094191770226986 1 I I #
point $-1 75.224236925332789 -23.150386121542439 4.3329354354353047 #
edge $-1 $387 1 $387 0 $215 $-1 forward 7 unknown #
vertex $-1 $216 $388 #
ellipse-curve $-1 71.992396764065461 -17.041717068382933 4.1735656737823685 0.75470958851134928 0 0.65605901945558964 1.3121180389111793 0 -1.5094191770226986 1 I I #
point $-1 75.224236925332789 -17.041717068382933 4.3329354354353047 #
plane-surface $-1 0 0 8.9332777443147524 0 0 1 1 0 0 forward_v I I I I #
coedge $-1 $326 $325 $318 $389 forward $220 $-1 #
coedge $-1 $318 $222 $224 $322 reversed $139 $-1 #
coedge $-1 $222 $317 $316 $389 reversed $139 $-1 #
coedge $-1 $230 $225 $222 $320 forward $231 $-1 #
edge $-1 $323 25.369175170699812 $390 30.742972005846362 $319 $391 forward 7 unknown #
coedge $-1 $224 $223 $326 $392 reversed $87 $-1 #
edge $-1 $393 -153.19803460798977 $323 -145.00700807564237 $317 $394 forward 7 unknown #
vertex $-1 $226 $395 #
straight-curve $-1 71.22522046884832 8.9739445259569663 8.9332777443147364 0 -1 0 I I #
coedge $-1 $316 $227 $230 $330 reversed $220 $-1 #
coedge $-1 $227 $316 $321 $392 forward $220 $-1 #
vertex $-1 $228 $396 #
straight-curve $-1 76.59901730399487 25.074669613933356 109.43920475389295 0 0 1 I I #
straight-curve $-1 -23.907935063446359 25.074669613933356 118.37145714034467 0.65605901945558964 0 -0.75470958851134928 I I #
edge $-1 $390 10.82110848989451 $232 25.074669613933356 $325 $397 forward 7 unknown #
point $-1 76.59901730399487 25.074669613933356 8.9332777443147524 #
point $-1 71.22522046884832 25.074669613933356 8.9332777443147364 #
edge $-1 $398 1 $398 0 $235 $-1 forward 7 unknown #
vertex $-1 $236 $399 #
ellipse-curve $-1 71.992396764065461 14.893554525334181 4.1735656737823685 0.75470958851134928 0 0.65605901945558964 1.3121180389111793 0 -1.5094191770226986 1 I I #
point $-1 75.224236925332789 14.893554525334181 4.3329354354353047 #
edge $-1 $400 1 $400 0 $239 $-1 forward 7 unknown #
vertex $-1 $240 $401 #
ellipse-curve $-1 71.992396764065461 21.002223578493684 4.1735656737823685 0.75470958851134928 0 0.65605901945558964 1.3121180389111793 0 -1.5094191770226986 1 I I #
point $-1 75.224236925332789 21.002223578493684 4.3329354354353047 #
plane-surface $-1 76.59901730399487 0 0 -1 0 0 0 0 1 forward_v I I I I #
coedge $-1 $352 $246 $249 $345 reversed $161 $-1 #
edge $-1 $260 -8.9332777443147524 $348 8.9332777443147524 $259 $402 forward 7 unknown #
straight-curve $-1 76.59901730399487 -42.683140881022098 0 0 0 -1 I I #
edge $-1 $346 -42.683140881022098 $348 42.683140881022098 $342 $403 forward 7 unknown #
vertex $-1 $345 $404 #
straight-curve $-1 0 -42.683140881022098 -8.9332777443147524 -1 0 0 I I #
vertex $-1 $252 $405 #
straight-curve $-1 0 42.683140881022098 -8.9332777443147524 1 0 0 I I #
point $-1 76.59901730399487 42.683140881022098 -8.9332777443147524 #
point $-1 76.59901730399487 -42.683140881022098 -8.9332777443147524 #
coedge $-1 $256 $342 $262 $355 reversed $161 $-1 #
straight-curve $-1 -76.59901730399487 0 8.9332777443147524 0 -1 0 I I #
point $-1 -76.59901730399487 42.683140881022098 8.9332777443147524 #
edge $-1 $263 -8.9332777443147524 $346 8.9332777443147524 $352 $406 forward 7 unknown #
point $-1 -76.59901730399487 -42.683140881022098 8.9332777443147524 #
straight-curve $-1 76.59901730399487 42.683140881022098 0 0 0 -1 I I #
plane-surface $-1 -76.59901730399487 0 0 1 0 0 0 0 -1 forward_v I I I I #
coedge $-1 $361 $370 $365 $407 forward $269 $-1 #
coedge $-1 $272 $271 $408 $409 forward $109 $-1 #
coedge $-1 $408 $359 $273 $362 reversed $269 $-1 #
edge $-1 $363 -76.59901730399487 $366 76.59901730399487 $361 $410 forward 7 unknown #
vertex $-1 $409 $411 #
straight-curve $-1 76.59901730399487 0 -8.9332777443147524 0 -1 0 I I #
coedge $-1 $281 $275 $359 $407 reversed $282 $-1 #
vertex $-1 $276 $412 #
straight-curve $-1 -76.59901730399487 0 -8.9332777443147524 0 1 0 I I #
point $-1 -76.59901730399487 -42.683140881022098 -8.9332777443147524 #
point $-1 76.59901730399487 -42.683140881022098 -8.9332777443147524 #
coedge $-1 $359 $408 $284 $371 reversed $269 $-1 #
edge $-1 $372 -76.59901730399487 $374 76.59901730399487 $370 $413 forward 7 unknown #
vertex $-1 $285 $414 #
straight-curve $-1 -76.59901730399487 -47.322341115167575 -5.1868463924416961 0 -1 0 I I #
vertex $-1 $286 $415 #
straight-curve $-1 76.59901730399487 -47.322341115167575 -5.1868463924416961 0 1 0 I I #
edge $-1 $377 100.5059270095782 $380 106.68777327329165 $290 $416 forward 7 unknown #
vertex $-1 $304 $417 #
straight-curve $-1 45.856045298148508 -27.222832156982108 8.9332777443147506 1 0 0 I I #
edge $-1 $380 -17.174806359500764 $301 -2.9212452354619192 $300 $418 forward 7 unknown #
vertex $-1 $379 $419 #
straight-curve $-1 -23.907935063446359 -27.222832156982108 118.37145714034467 -0.65605901945558964 0 0.75470958851134928 I I #
point $-1 71.22522046884832 -27.222832156982108 8.9332777443147364 #
point $-1 76.59901730399487 -12.969271032943261 2.7514314806012976 #
straight-curve $-1 76.59901730399487 0 8.9332777443147524 0 1 0 I I #
vertex $-1 $307 $420 #
point $-1 73.304514802976641 -23.150386121542439 2.6641464967596695 #
vertex $-1 $311 $421 #
point $-1 73.304514802976641 -17.041717068382933 2.6641464967596695 #
edge $-1 $390 100.5059270095782 $393 106.68777327329165 $316 $422 forward 7 unknown #
vertex $-1 $330 $423 #
straight-curve $-1 45.856045298148508 10.82110848989451 8.9332777443147506 1 0 0 I I #
edge $-1 $393 1.8471639639375432 $327 16.100725087976389 $326 $424 forward 7 unknown #
vertex $-1 $392 $425 #
straight-curve $-1 -23.907935063446359 10.82110848989451 118.37145714034467 -0.65605901945558964 0 0.75470958851134928 I I #
point $-1 71.22522046884832 10.82110848989451 8.9332777443147364 #
point $-1 76.59901730399487 25.074669613933356 2.7514314806012976 #
straight-curve $-1 76.59901730399487 0 8.9332777443147524 0 1 0 I I #
vertex $-1 $333 $426 #
point $-1 73.304514802976641 14.893554525334181 2.6641464967596695 #
vertex $-1 $337 $427 #
point $-1 73.304514802976641 21.002223578493684 2.6641464967596695 #
straight-curve $-1 -76.59901730399487 42.683140881022098 0 0 0 -1 I I #
straight-curve $-1 -76.59901730399487 0 -8.9332777443147524 0 1 0 I I #
point $-1 -76.59901730399487 -42.683140881022098 -8.9332777443147524 #
point $-1 -76.59901730399487 42.683140881022098 -8.9332777443147524 #
straight-curve $-1 -76.59901730399487 -42.683140881022098 0 0 0 -1 I I #
edge $-1 $372 -1.8732156759365282 $366 1.8732156759365282 $365 $428 forward 7 unknown #
coedge $-1 $370 $361 $360 $409 reversed $269 $-1 #
edge $-1 $374 -1.8732156759365282 $363 1.8732156759365282 $360 $429 forward 7 unknown #
straight-curve $-1 0 -51.961541349313052 -8.9332777443147524 -1 0 0 I I #
point $-1 76.59901730399487 -51.961541349313052 -8.9332777443147524 #
point $-1 -76.59901730399487 -51.961541349313052 -8.9332777443147524 #
straight-curve $-1 0 -51.961541349313052 -5.1868463924416961 1 0 0 I I #
point $-1 -76.59901730399487 -51.961541349313052 -5.1868463924416961 #
point $-1 76.59901730399487 -51.961541349313052 -5.1868463924416961 #
straight-curve $-1 76.59901730399487 -27.222832156982108 109.43920475389295 0 0 -1 I I #
point $-1 76.59901730399487 -27.222832156982108 8.9332777443147524 #
straight-curve $-1 76.599017303994884 -10.048025797481342 2.7514314806012905 0 1 0 I I #
point $-1 76.59901730399487 -27.222832156982108 2.7514314806012976 #
point $-1 70.482977587042768 -23.150386121542439 2.861447634871189 #
point $-1 70.482977587042768 -17.041717068382933 2.861447634871189 #
straight-curve $-1 76.59901730399487 10.82110848989451 109.43920475389295 0 0 -1 I I #
point $-1 76.59901730399487 10.82110848989451 8.9332777443147524 #
straight-curve $-1 76.599017303994884 8.9739445259569663 2.7514314806012905 0 1 0 I I #
point $-1 76.59901730399487 10.82110848989451 2.7514314806012976 #
point $-1 70.482977587042768 14.893554525334181 2.861447634871189 #
point $-1 70.482977587042768 21.002223578493684 2.861447634871189 #
straight-curve $-1 -76.59901730399487 -51.961541349313052 -7.0600620683782243 0 0 -1 I I #
straight-curve $-1 76.59901730399487 -51.961541349313052 -7.0600620683782243 0 0 -1 I I #
End-of-ACIS-data 