500 0 8 0           
7 Unknown 11 ACIS 5.0 NT 24 Thu Mar 25 19:02:42 1999 
-1 9.9999999999999995e-007 1e-010 
body $-1 $8 $-1 $9 #
body $-1 $10 $-1 $11 #
body $-1 $12 $-1 $13 #
body $-1 $14 $-1 $15 #
body $-1 $16 $-1 $17 #
body $-1 $18 $-1 $19 #
body $-1 $20 $-1 $21 #
body $-1 $22 $-1 $23 #
lump $-1 $-1 $24 $0 #
transform $-1 1 0 0 0 1 0 0 0 1 56.501968443861202 31.086687432658767 11.65463791116794 1 rotate no_reflect no_shear #
lump $-1 $-1 $25 $1 #
transform $-1 1 0 0 0 1 0 0 0 1 56.501968443861202 31.086687432658767 11.65463791116794 1 rotate no_reflect no_shear #
lump $-1 $-1 $26 $2 #
transform $-1 1 0 0 0 1 0 0 0 1 56.501968443861202 31.086687432658767 11.65463791116794 1 rotate no_reflect no_shear #
lump $-1 $-1 $27 $3 #
transform $-1 1 0 0 0 1 0 0 0 1 56.501968443861202 31.086687432658767 11.65463791116794 1 rotate no_reflect no_shear #
lump $-1 $-1 $28 $4 #
transform $-1 1 0 0 0 1 0 0 0 1 56.501968443861202 31.086687432658767 11.65463791116794 1 rotate no_reflect no_shear #
lump $-1 $-1 $29 $5 #
transform $-1 1 0 0 0 1 0 0 0 1 56.501968443861202 31.086687432658767 11.65463791116794 1 rotate no_reflect no_shear #
lump $-1 $-1 $30 $6 #
transform $-1 1 0 0 0 1 0 0 0 1 56.501968443861202 31.086687432658767 11.65463791116794 1 rotate no_reflect no_shear #
lump $-1 $-1 $31 $7 #
transform $-1 1 0 0 0 1 0 0 0 1 56.501968443861202 31.086687432658767 11.65463791116794 1 rotate no_reflect no_shear #
shell $-1 $-1 $-1 $32 $-1 $8 #
shell $-1 $-1 $-1 $33 $-1 $10 #
shell $-1 $-1 $-1 $34 $-1 $12 #
shell $-1 $-1 $-1 $35 $-1 $14 #
shell $-1 $-1 $-1 $36 $-1 $16 #
shell $-1 $-1 $-1 $37 $-1 $18 #
shell $-1 $-1 $-1 $38 $-1 $20 #
shell $-1 $-1 $-1 $39 $-1 $22 #
face $-1 $40 $41 $24 $-1 $42 forward single #
face $-1 $43 $44 $25 $-1 $45 forward single #
face $-1 $46 $47 $26 $-1 $48 reversed single #
face $-1 $49 $50 $27 $-1 $51 forward single #
face $-1 $52 $53 $28 $-1 $54 forward single #
face $-1 $55 $56 $29 $-1 $57 reversed single #
face $-1 $58 $59 $30 $-1 $60 forward single #
face $-1 $61 $62 $31 $-1 $63 forward single #
face $-1 $64 $65 $24 $-1 $66 reversed single #
loop $-1 $-1 $67 $32 #
plane-surface $-1 0 0 11.65463791116794 0 0 1 1 0 0 forward_v I I I I #
face $-1 $68 $69 $25 $-1 $70 reversed single #
loop $-1 $-1 $71 $33 #
plane-surface $-1 -56.501968443861202 0 0 1 0 0 0 0 -1 forward_v I I I I #
face $-1 $72 $73 $26 $-1 $74 reversed single #
loop $-1 $-1 $75 $34 #
plane-surface $-1 23.231719313568327 -89.288018318784054 103.92444092269295 -1 0 0 0 -0.51503808176128008 0.85716729658548041 forward_v I I I I #
face $-1 $76 $77 $27 $-1 $78 forward single #
loop $-1 $79 $80 $35 #
cone-surface $-1 11.680137812138483 -26.26203426959324 7.6898936992712699 0 0.51503808176128008 -0.85716729658548041 2 0 0 1 I I 0 1 2 forward I I I I #
face $-1 $81 $82 $28 $-1 $83 forward single #
loop $-1 $84 $85 $36 #
cone-surface $-1 18.611086712996382 -26.26203426959324 7.6898936992712699 0 0.51503808176128008 -0.85716729658548041 2 0 0 1 I I 0 1 2 forward I I I I #
face $-1 $86 $87 $29 $-1 $88 reversed single #
loop $-1 $-1 $89 $37 #
plane-surface $-1 43.785475278778627 53.884583274806047 127.34450788851866 1 0 0 0 -0.62932039886446345 -0.77714595512881146 forward_v I I I I #
face $-1 $90 $91 $30 $-1 $92 forward single #
loop $-1 $93 $94 $38 #
cone-surface $-1 47.418759040230782 22.644098756175854 4.1838802980784902 0 -0.62932039886446345 -0.77714595512881146 1.5 0 0 1 I I 0 1 1.5 forward I I I I #
face $-1 $95 $96 $31 $-1 $97 forward single #
loop $-1 $98 $99 $39 #
cone-surface $-1 52.868684682409025 22.644098756175854 4.1838802980784902 0 -0.62932039886446345 -0.77714595512881146 1.5 0 0 1 I I 0 1 1.5 forward I I I I #
face $-1 $100 $101 $24 $-1 $102 reversed single #
loop $-1 $-1 $103 $40 #
plane-surface $-1 0 0 -11.65463791116794 0 0 1 1 0 0 forward_v I I I I #
coedge $-1 $104 $105 $106 $107 forward $41 $-1 #
face $-1 $108 $109 $25 $-1 $110 reversed single #
loop $-1 $-1 $111 $43 #
plane-surface $-1 0 0 -11.65463791116794 0 0 1 1 0 0 forward_v I I I I #
coedge $-1 $112 $113 $114 $115 forward $44 $-1 #
face $-1 $116 $117 $26 $-1 $118 reversed single #
loop $-1 $-1 $119 $46 #
plane-surface $-1 15.14561226256744 -31.086687432658749 7.061161837127699 0 -0.51503808176128008 0.85716729658548041 1 0 0 forward_v I I I I #
coedge $-1 $120 $121 $122 $123 reversed $47 $-1 #
face $-1 $-1 $124 $27 $-1 $125 forward single #
loop $-1 $126 $127 $49 #
cone-surface $-1 11.680137812138483 -24.744756946908332 5.164720227809239 0 0.51503808176128008 -0.85716729658548041 1 0 0 1 I I -0.70710678118654746 0.70710678118654746 1 forward I I I I #
loop $-1 $-1 $128 $35 #
coedge $-1 $80 $80 $129 $130 reversed $50 $-1 #
face $-1 $-1 $131 $28 $-1 $132 forward single #
loop $-1 $133 $134 $52 #
cone-surface $-1 18.611086712996382 -24.744756946908332 5.164720227809239 0 0.51503808176128008 -0.85716729658548041 1 0 0 1 I I -0.70710678118654746 0.70710678118654746 1 forward I I I I #
loop $-1 $-1 $135 $36 #
coedge $-1 $85 $85 $136 $137 reversed $53 $-1 #
face $-1 $138 $139 $29 $-1 $140 reversed single #
loop $-1 $-1 $141 $55 #
plane-surface $-1 50.143721861319918 -17.231099360630068 39.523955422593701 0 0.62932039886446345 0.77714595512881146 1 0 0 forward_v I I I I #
coedge $-1 $142 $143 $144 $145 reversed $56 $-1 #
face $-1 $-1 $146 $30 $-1 $147 forward single #
loop $-1 $148 $149 $58 #
cone-surface $-1 47.418759040230782 20.680543056273326 1.7590909974252629 0 -0.62932039886446345 -0.77714595512881146 0.75 0 0 1 I I -0.70710678118654757 0.70710678118654757 0.75 forward I I I I #
loop $-1 $-1 $150 $38 #
coedge $-1 $94 $94 $151 $152 reversed $59 $-1 #
face $-1 $-1 $153 $31 $-1 $154 forward single #
loop $-1 $155 $156 $61 #
cone-surface $-1 52.868684682409025 20.680543056273326 1.7590909974252629 0 -0.62932039886446345 -0.77714595512881146 0.75 0 0 1 I I -0.70710678118654757 0.70710678118654757 0.75 forward I I I I #
loop $-1 $-1 $157 $39 #
coedge $-1 $99 $99 $158 $159 reversed $62 $-1 #
face $-1 $160 $161 $24 $-1 $162 reversed single #
loop $-1 $-1 $163 $64 #
plane-surface $-1 0 -31.086687432658767 0 0 1 0 0 0 1 forward_v I I I I #
coedge $-1 $164 $165 $166 $167 forward $65 $-1 #
coedge $-1 $168 $67 $169 $170 forward $41 $-1 #
coedge $-1 $67 $168 $171 $172 forward $41 $-1 #
coedge $-1 $173 $174 $67 $107 reversed $175 $-1 #
edge $-1 $176 -31.086687432658767 $177 31.086687432658767 $106 $178 forward 7 unknown #
face $-1 $179 $180 $25 $-1 $181 reversed single #
loop $-1 $-1 $182 $68 #
plane-surface $-1 -62.043717292748845 -18.920708400735826 0 0 1 0 0 0 1 forward_v I I I I #
coedge $-1 $183 $184 $113 $185 forward $69 $-1 #
coedge $-1 $186 $71 $187 $188 reversed $44 $-1 #
coedge $-1 $71 $186 $111 $185 reversed $44 $-1 #
coedge $-1 $189 $190 $71 $115 reversed $191 $-1 #
edge $-1 $192 -11.65463791116794 $193 11.65463791116794 $114 $194 forward 7 unknown #
face $-1 $195 $196 $26 $-1 $197 forward single #
loop $-1 $-1 $198 $72 #
plane-surface $-1 7.0595052115665524 -89.288018318784054 103.92444092269295 1 0 0 0 0.51503808176128008 -0.85716729658548041 forward_v I I I I #
coedge $-1 $199 $200 $201 $202 reversed $73 $-1 #
coedge $-1 $121 $75 $203 $204 reversed $47 $-1 #
coedge $-1 $75 $120 $199 $205 reversed $47 $-1 #
coedge $-1 $201 $206 $75 $123 forward $196 $-1 #
edge $-1 $207 13.55732172673326 $208 21.202149571017095 $122 $209 forward 7 unknown #
loop $-1 $-1 $129 $76 #
plane-surface $-1 15.14561226256744 -31.086687432658749 7.061161837127699 0 -0.51503808176128008 0.85716729658548041 1 0 0 forward_v I I I I #
loop $-1 $-1 $210 $49 #
coedge $-1 $127 $127 $128 $211 reversed $77 $-1 #
coedge $-1 $128 $128 $127 $211 forward $79 $-1 #
coedge $-1 $129 $129 $80 $130 forward $124 $-1 #
edge $-1 $212 6.1429569675325867e-016 $212 6.2831853071796013 $129 $213 forward 7 unknown #
loop $-1 $-1 $136 $81 #
plane-surface $-1 15.14561226256744 -31.086687432658749 7.061161837127699 0 -0.51503808176128008 0.85716729658548041 1 0 0 forward_v I I I I #
loop $-1 $-1 $214 $52 #
coedge $-1 $134 $134 $135 $215 reversed $82 $-1 #
coedge $-1 $135 $135 $134 $215 forward $84 $-1 #
coedge $-1 $136 $136 $85 $137 forward $131 $-1 #
edge $-1 $216 6.1429569675325867e-016 $216 6.2831853071796013 $136 $217 forward 7 unknown #
face $-1 $218 $219 $29 $-1 $220 forward single #
loop $-1 $-1 $221 $86 #
plane-surface $-1 0 31.086687432658767 0 0 -1 0 0 0 -1 forward_v I I I I #
coedge $-1 $222 $223 $224 $225 reversed $87 $-1 #
coedge $-1 $143 $89 $226 $227 reversed $56 $-1 #
coedge $-1 $89 $142 $222 $228 reversed $56 $-1 #
coedge $-1 $224 $229 $89 $145 forward $219 $-1 #
edge $-1 $230 -4.1443957952557433 $231 9.7576507562017198 $144 $232 forward 7 unknown #
loop $-1 $-1 $151 $90 #
plane-surface $-1 50.143721861319918 -17.231099360630068 39.523955422593701 0 0.62932039886446345 0.77714595512881146 1 0 0 forward_v I I I I #
loop $-1 $-1 $233 $58 #
coedge $-1 $149 $149 $150 $234 reversed $91 $-1 #
coedge $-1 $150 $150 $149 $234 forward $93 $-1 #
coedge $-1 $151 $151 $94 $152 forward $146 $-1 #
edge $-1 $235 -1.1178975946969835e-015 $235 6.2831853071795996 $151 $236 forward 7 unknown #
loop $-1 $-1 $158 $95 #
plane-surface $-1 50.143721861319918 -17.231099360630068 39.523955422593701 0 0.62932039886446345 0.77714595512881146 1 0 0 forward_v I I I I #
loop $-1 $-1 $237 $61 #
coedge $-1 $156 $156 $157 $238 reversed $96 $-1 #
coedge $-1 $157 $157 $156 $238 forward $98 $-1 #
coedge $-1 $158 $158 $99 $159 forward $153 $-1 #
edge $-1 $239 -1.1178975946969835e-015 $239 6.2831853071795996 $158 $240 forward 7 unknown #
face $-1 $241 $242 $24 $-1 $243 reversed single #
loop $-1 $-1 $244 $100 #
plane-surface $-1 -56.501968443861202 0 0 1 0 0 0 0 -1 forward_v I I I I #
coedge $-1 $245 $171 $246 $247 forward $101 $-1 #
coedge $-1 $248 $103 $245 $249 forward $65 $-1 #
coedge $-1 $103 $248 $250 $251 forward $65 $-1 #
coedge $-1 $174 $173 $103 $167 reversed $175 $-1 #
edge $-1 $252 -31.086687432658767 $253 31.086687432658767 $166 $254 forward 7 unknown #
coedge $-1 $105 $104 $255 $256 forward $41 $-1 #
coedge $-1 $257 $258 $104 $170 reversed $242 $-1 #
edge $-1 $177 -56.501968443861202 $259 56.501968443861202 $169 $260 forward 7 unknown #
coedge $-1 $163 $261 $105 $172 reversed $101 $-1 #
edge $-1 $262 -56.501968443861202 $176 56.501968443861202 $171 $263 forward 7 unknown #
coedge $-1 $166 $106 $261 $264 forward $175 $-1 #
coedge $-1 $106 $166 $257 $265 reversed $175 $-1 #
loop $-1 $-1 $173 $241 #
vertex $-1 $107 $266 #
vertex $-1 $107 $267 #
straight-curve $-1 56.501968443861202 0 11.65463791116794 0 1 0 I I #
face $-1 $268 $191 $25 $-1 $269 reversed single #
loop $-1 $-1 $270 $108 #
plane-surface $-1 -67.585466141636488 -16.821721166470397 0 1 0 0 0 0 -1 forward_v I I I I #
coedge $-1 $271 $272 $273 $274 forward $109 $-1 #
coedge $-1 $275 $111 $271 $276 forward $69 $-1 #
coedge $-1 $111 $275 $189 $277 forward $69 $-1 #
edge $-1 $192 14.722733932204966 $278 18.920708400735826 $111 $279 forward 7 unknown #
coedge $-1 $113 $112 $280 $281 forward $44 $-1 #
coedge $-1 $282 $283 $112 $188 forward $284 $-1 #
edge $-1 $285 -18.920708400735826 $193 -14.722733932204966 $187 $286 forward 7 unknown #
coedge $-1 $287 $114 $184 $277 reversed $191 $-1 #
coedge $-1 $114 $287 $282 $288 reversed $191 $-1 #
loop $-1 $-1 $114 $179 #
vertex $-1 $185 $289 #
vertex $-1 $288 $290 #
straight-curve $-1 -56.501968443861202 -14.722733932204966 0 0 0 1 I I #
face $-1 $-1 $291 $26 $-1 $292 reversed single #
loop $-1 $-1 $122 $116 #
plane-surface $-1 0 0 11.65463791116794 0 0 1 1 0 0 forward_v I I I I #
coedge $-1 $293 $294 $295 $296 reversed $117 $-1 #
coedge $-1 $297 $119 $121 $205 forward $73 $-1 #
coedge $-1 $119 $297 $293 $298 forward $73 $-1 #
coedge $-1 $295 $122 $119 $202 forward $196 $-1 #
edge $-1 $208 -15.658913182284607 $299 0.5133009197171674 $201 $300 forward 7 unknown #
coedge $-1 $301 $302 $120 $204 forward $291 $-1 #
edge $-1 $303 -44.901058624218791 $207 -40.307582550178537 $203 $304 forward 7 unknown #
edge $-1 $208 -8.9187115219361885 $303 2.0715698412527822e-014 $121 $305 forward 7 unknown #
coedge $-1 $122 $295 $301 $306 forward $196 $-1 #
vertex $-1 $123 $307 #
vertex $-1 $123 $308 #
straight-curve $-1 23.231719313568327 -44.644009159392027 11.654637911167939 0 1 0 I I #
coedge $-1 $210 $210 $-1 $309 reversed $126 $-1 #
edge $-1 $310 0 $310 6.2831853071796004 $127 $311 forward 7 unknown #
vertex $-1 $130 $312 #
ellipse-curve $-1 11.680137812138483 -27.264273510516858 9.3578998741478081 0 -0.51503808176128008 0.85716729658548041 2 0 0 1 I I #
coedge $-1 $214 $214 $-1 $313 reversed $133 $-1 #
edge $-1 $314 0 $314 6.2831853071796004 $134 $315 forward 7 unknown #
vertex $-1 $137 $316 #
ellipse-curve $-1 18.611086712996382 -27.264273510516858 9.3578998741478081 0 -0.51503808176128008 0.85716729658548041 2 0 0 1 I I #
face $-1 $-1 $317 $29 $-1 $318 reversed single #
loop $-1 $-1 $224 $138 #
plane-surface $-1 0 0 11.65463791116794 0 0 1 1 0 0 forward_v I I I I #
coedge $-1 $226 $319 $320 $321 forward $139 $-1 #
coedge $-1 $320 $141 $143 $228 forward $87 $-1 #
coedge $-1 $141 $320 $322 $323 reversed $87 $-1 #
coedge $-1 $324 $144 $141 $225 forward $219 $-1 #
edge $-1 $231 18.713614348118668 $325 31.43010751320125 $224 $326 forward 7 unknown #
coedge $-1 $327 $221 $142 $227 forward $139 $-1 #
edge $-1 $328 -63.27527159065707 $230 -52.017616033091393 $226 $329 forward 7 unknown #
edge $-1 $231 44.28478333407395 $328 62.173374865317541 $143 $330 forward 7 unknown #
coedge $-1 $144 $324 $327 $331 forward $219 $-1 #
vertex $-1 $227 $332 #
vertex $-1 $145 $333 #
straight-curve $-1 43.785475278778627 26.942291637403024 11.654637911167939 0 -1 0 I I #
coedge $-1 $233 $233 $-1 $334 reversed $148 $-1 #
edge $-1 $335 0 $335 6.2831853071796004 $149 $336 forward 7 unknown #
vertex $-1 $152 $337 #
ellipse-curve $-1 47.418759040230782 24.135664156930034 6.0258101323851063 0 0.62932039886446345 0.77714595512881146 1.5 0 0 1 I I #
coedge $-1 $237 $237 $-1 $338 reversed $155 $-1 #
edge $-1 $339 0 $339 6.2831853071796004 $156 $340 forward 7 unknown #
vertex $-1 $159 $341 #
ellipse-curve $-1 52.868684682409025 24.135664156930034 6.0258101323851063 0 0.62932039886446345 0.77714595512881146 1.5 0 0 1 I I #
face $-1 $-1 $175 $24 $-1 $342 reversed single #
loop $-1 $-1 $257 $160 #
plane-surface $-1 0 31.086687432658767 0 0 -1 0 0 0 -1 forward_v I I I I #
coedge $-1 $343 $255 $258 $344 forward $161 $-1 #
coedge $-1 $261 $163 $164 $249 reversed $101 $-1 #
coedge $-1 $255 $343 $163 $247 reversed $161 $-1 #
edge $-1 $262 -11.65463791116794 $345 11.65463791116794 $246 $346 forward 7 unknown #
coedge $-1 $165 $164 $343 $347 forward $65 $-1 #
edge $-1 $253 -56.501968443861202 $345 56.501968443861202 $245 $348 forward 7 unknown #
coedge $-1 $258 $257 $165 $251 reversed $242 $-1 #
edge $-1 $349 -56.501968443861202 $252 56.501968443861202 $250 $350 forward 7 unknown #
vertex $-1 $167 $351 #
vertex $-1 $264 $352 #
straight-curve $-1 56.501968443861202 0 -11.65463791116794 0 -1 0 I I #
coedge $-1 $244 $246 $168 $256 reversed $161 $-1 #
edge $-1 $259 -31.086687432658767 $262 31.086687432658767 $255 $353 forward 7 unknown #
coedge $-1 $250 $169 $174 $265 forward $242 $-1 #
coedge $-1 $169 $250 $244 $344 reversed $242 $-1 #
vertex $-1 $170 $354 #
straight-curve $-1 0 31.086687432658767 11.65463791116794 -1 0 0 I I #
coedge $-1 $171 $245 $173 $264 reversed $101 $-1 #
vertex $-1 $256 $355 #
straight-curve $-1 0 -31.086687432658767 11.65463791116794 1 0 0 I I #
edge $-1 $176 -11.65463791116794 $253 11.65463791116794 $173 $356 forward 7 unknown #
edge $-1 $177 -11.65463791116794 $252 11.65463791116794 $174 $357 forward 7 unknown #
point $-1 56.501968443861202 -31.086687432658767 11.65463791116794 #
point $-1 56.501968443861202 31.086687432658767 11.65463791116794 #
face $-1 $-1 $284 $25 $-1 $358 forward single #
plane-surface $-1 -62.043717292748845 -14.722733932204966 0 0 -1 0 0 0 -1 forward_v I I I I #
coedge $-1 $359 $360 $287 $361 forward $180 $-1 #
coedge $-1 $280 $182 $183 $276 reversed $109 $-1 #
coedge $-1 $182 $280 $283 $362 reversed $109 $-1 #
coedge $-1 $360 $359 $182 $274 reversed $180 $-1 #
edge $-1 $363 -11.65463791116794 $364 11.65463791116794 $273 $365 forward 7 unknown #
coedge $-1 $184 $183 $359 $366 forward $69 $-1 #
edge $-1 $278 -5.541748848887643 $364 5.541748848887643 $271 $367 forward 7 unknown #
edge $-1 $368 -5.541748848887643 $192 5.541748848887643 $189 $369 forward 7 unknown #
vertex $-1 $276 $370 #
straight-curve $-1 -56.501968443861202 0 -11.65463791116794 0 -1 0 I I #
coedge $-1 $272 $271 $186 $281 reversed $109 $-1 #
edge $-1 $285 -11.65463791116794 $278 11.65463791116794 $280 $371 forward 7 unknown #
coedge $-1 $372 $187 $190 $288 forward $284 $-1 #
coedge $-1 $187 $372 $272 $362 forward $284 $-1 #
loop $-1 $-1 $187 $268 #
vertex $-1 $188 $373 #
straight-curve $-1 -56.501968443861202 0 11.65463791116794 0 1 0 I I #
coedge $-1 $190 $189 $270 $361 reversed $191 $-1 #
edge $-1 $193 -5.541748848887643 $374 5.541748848887643 $190 $375 forward 7 unknown #
point $-1 -56.501968443861202 -14.722733932204966 -11.65463791116794 #
point $-1 -56.501968443861202 -14.722733932204966 11.65463791116794 #
loop $-1 $-1 $203 $195 #
plane-surface $-1 0 -31.086687432658767 0 0 1 0 0 0 1 forward_v I I I I #
coedge $-1 $294 $198 $200 $298 reversed $117 $-1 #
coedge $-1 $198 $293 $376 $377 reversed $117 $-1 #
coedge $-1 $206 $201 $198 $296 forward $196 $-1 #
edge $-1 $299 -21.202149571017095 $378 -13.55732172673326 $295 $379 forward 7 unknown #
coedge $-1 $200 $199 $302 $380 reversed $73 $-1 #
edge $-1 $381 -2.0715698412527822e-014 $299 8.9187115219361885 $293 $382 forward 7 unknown #
vertex $-1 $202 $383 #
straight-curve $-1 7.5728061312837198 -23.441859588374928 11.65463791116794 -1 0 0 I I #
coedge $-1 $376 $203 $206 $306 reversed $291 $-1 #
coedge $-1 $203 $376 $297 $380 forward $291 $-1 #
vertex $-1 $204 $384 #
straight-curve $-1 23.231719313568327 -31.086687432658767 51.962220461346476 0 0 1 I I #
straight-curve $-1 23.231719313568327 -31.086687432658749 7.061161837127699 0 -0.85716729658548041 -0.51503808176128008 I I #
edge $-1 $378 7.0595052115665524 $207 23.231719313568327 $301 $385 forward 7 unknown #
point $-1 23.231719313568327 -31.086687432658767 11.65463791116794 #
point $-1 23.231719313568327 -23.441859588374932 11.65463791116794 #
edge $-1 $386 1 $386 0 $210 $-1 forward 7 unknown #
vertex $-1 $211 $387 #
ellipse-curve $-1 11.680137812138483 -25.259795028669611 6.0218875243947192 0 -0.51503808176128008 0.85716729658548041 2 0 0 1 I I #
point $-1 13.680137812138483 -27.264273510516865 9.3578998741478223 #
edge $-1 $388 1 $388 0 $214 $-1 forward 7 unknown #
vertex $-1 $215 $389 #
ellipse-curve $-1 18.611086712996382 -25.259795028669611 6.0218875243947192 0 -0.51503808176128008 0.85716729658548041 2 0 0 1 I I #
point $-1 20.611086712996382 -27.264273510516865 9.3578998741478223 #
loop $-1 $-1 $322 $218 #
plane-surface $-1 56.501968443861202 0 0 -1 0 0 0 0 1 forward_v I I I I #
coedge $-1 $221 $327 $390 $391 forward $139 $-1 #
coedge $-1 $223 $222 $221 $321 reversed $87 $-1 #
edge $-1 $392 -31.43010751320125 $328 -18.713614348118668 $221 $393 forward 7 unknown #
coedge $-1 $390 $394 $223 $323 forward $317 $-1 #
edge $-1 $325 25.152628053181829 $392 43.041219584425413 $322 $395 forward 7 unknown #
coedge $-1 $229 $224 $394 $396 forward $219 $-1 #
vertex $-1 $396 $397 #
straight-curve $-1 25.071860930659959 17.184640881201304 11.654637911167935 1 0 0 I I #
coedge $-1 $319 $226 $229 $331 reversed $139 $-1 #
vertex $-1 $227 $398 #
straight-curve $-1 43.785475278778627 31.086687432658767 63.672253944259332 0 0 1 I I #
straight-curve $-1 43.785475278778627 -17.231099360630068 39.523955422593701 0 0.77714595512881146 -0.62932039886446345 I I #
edge $-1 $399 -56.501968443861202 $230 -43.785475278778627 $327 $400 forward 7 unknown #
point $-1 43.785475278778627 31.086687432658767 11.65463791116794 #
point $-1 43.785475278778627 17.184640881201304 11.654637911167939 #
edge $-1 $401 1 $401 0 $233 $-1 forward 7 unknown #
vertex $-1 $234 $402 #
ellipse-curve $-1 47.418759040230782 21.152533355421674 2.3419504637718713 0 0.62932039886446345 0.77714595512881146 1.5 0 0 1 I I #
point $-1 48.918759040230782 24.135664156930034 6.025810132385109 #
edge $-1 $403 1 $403 0 $237 $-1 forward 7 unknown #
vertex $-1 $238 $404 #
ellipse-curve $-1 52.868684682409025 21.152533355421674 2.3419504637718713 0 0.62932039886446345 0.77714595512881146 1.5 0 0 1 I I #
point $-1 54.368684682409025 24.135664156930034 6.025810132385109 #
plane-surface $-1 56.501968443861202 0 0 -1 0 0 0 0 1 forward_v I I I I #
coedge $-1 $246 $244 $248 $347 reversed $161 $-1 #
edge $-1 $259 -11.65463791116794 $349 11.65463791116794 $258 $405 forward 7 unknown #
vertex $-1 $347 $406 #
straight-curve $-1 -56.501968443861202 -31.086687432658767 0 0 0 -1 I I #
edge $-1 $345 -31.086687432658767 $349 31.086687432658767 $343 $407 forward 7 unknown #
straight-curve $-1 0 -31.086687432658767 -11.65463791116794 -1 0 0 I I #
vertex $-1 $251 $408 #
straight-curve $-1 0 31.086687432658767 -11.65463791116794 1 0 0 I I #
point $-1 56.501968443861202 31.086687432658767 -11.65463791116794 #
point $-1 56.501968443861202 -31.086687432658767 -11.65463791116794 #
straight-curve $-1 -56.501968443861202 0 11.65463791116794 0 -1 0 I I #
point $-1 -56.501968443861202 31.086687432658767 11.65463791116794 #
point $-1 -56.501968443861202 -31.086687432658767 11.65463791116794 #
straight-curve $-1 56.501968443861202 -31.086687432658767 0 0 0 -1 I I #
straight-curve $-1 56.501968443861202 31.086687432658767 0 0 0 -1 I I #
plane-surface $-1 0 0 11.65463791116794 0 0 1 1 0 0 forward_v I I I I #
coedge $-1 $273 $270 $275 $366 reversed $180 $-1 #
coedge $-1 $270 $273 $372 $409 reversed $180 $-1 #
edge $-1 $374 -11.65463791116794 $368 11.65463791116794 $287 $410 forward 7 unknown #
edge $-1 $363 -5.541748848887643 $285 5.541748848887643 $272 $411 forward 7 unknown #
vertex $-1 $409 $412 #
vertex $-1 $366 $413 #
straight-curve $-1 -67.585466141636488 -18.920708400735826 0 0 0 -1 I I #
edge $-1 $364 -2.0989872342654294 $368 2.0989872342654312 $359 $414 forward 7 unknown #
straight-curve $-1 -62.043717292748845 -18.920708400735826 -11.65463791116794 -1 0 0 I I #
vertex $-1 $277 $415 #
straight-curve $-1 -62.043717292748845 -14.722733932204966 -11.65463791116794 1 0 0 I I #
point $-1 -56.501968443861202 -18.920708400735826 -11.65463791116794 #
straight-curve $-1 -56.501968443861202 -18.920708400735826 0 0 0 -1 I I #
coedge $-1 $283 $282 $360 $409 forward $284 $-1 #
point $-1 -56.501968443861202 -18.920708400735826 11.65463791116794 #
vertex $-1 $288 $416 #
straight-curve $-1 -62.043717292748845 -14.722733932204966 11.65463791116794 -1 0 0 I I #
coedge $-1 $302 $301 $294 $377 forward $291 $-1 #
edge $-1 $378 40.307582550178537 $381 44.901058624218791 $376 $417 forward 7 unknown #
vertex $-1 $306 $418 #
straight-curve $-1 7.0595052115665524 -44.644009159392027 11.654637911167939 0 -1 0 I I #
edge $-1 $381 -0.5133009197171674 $303 15.658913182284607 $302 $419 forward 7 unknown #
vertex $-1 $380 $420 #
straight-curve $-1 7.0595052115665524 -31.086687432658749 7.061161837127699 0 0.85716729658548041 0.51503808176128008 I I #
point $-1 7.0595052115665524 -23.441859588374932 11.65463791116794 #
point $-1 23.231719313568327 -31.086687432658767 7.0611618371276883 #
straight-curve $-1 0 -31.086687432658767 11.65463791116794 1 0 0 I I #
vertex $-1 $309 $421 #
point $-1 13.680137812138483 -25.259795028669611 6.0218875243947192 #
vertex $-1 $313 $422 #
point $-1 20.611086712996382 -25.259795028669611 6.0218875243947192 #
coedge $-1 $394 $322 $319 $391 reversed $317 $-1 #
edge $-1 $399 -11.65463791116794 $392 -0.39698235360226164 $390 $423 forward 7 unknown #
vertex $-1 $323 $424 #
straight-curve $-1 25.071860930659959 31.086687432658763 0.3969823536022723 -1 0 0 I I #
coedge $-1 $322 $390 $324 $396 reversed $317 $-1 #
straight-curve $-1 56.501968443861202 -2.3626222711884246 27.483699830085818 0 0.77714595512881146 -0.62932039886446345 I I #
edge $-1 $325 17.184640881201304 $399 31.086687432658767 $394 $425 forward 7 unknown #
point $-1 56.501968443861209 17.184640881201304 11.654637911167939 #
point $-1 43.785475278778627 31.086687432658763 0.39698235360226164 #
vertex $-1 $396 $426 #
straight-curve $-1 0 31.086687432658767 11.65463791116794 -1 0 0 I I #
vertex $-1 $334 $427 #
point $-1 48.918759040230782 21.152533355421674 2.3419504637718713 #
vertex $-1 $338 $428 #
point $-1 54.368684682409025 21.152533355421674 2.3419504637718713 #
straight-curve $-1 -56.501968443861202 31.086687432658767 0 0 0 -1 I I #
point $-1 -56.501968443861202 -31.086687432658767 -11.65463791116794 #
straight-curve $-1 -56.501968443861202 0 -11.65463791116794 0 1 0 I I #
point $-1 -56.501968443861202 31.086687432658767 -11.65463791116794 #
edge $-1 $374 -2.0989872342654312 $363 2.0989872342654294 $360 $429 forward 7 unknown #
straight-curve $-1 -67.585466141636488 -14.722733932204966 0 0 0 -1 I I #
straight-curve $-1 -62.043717292748845 -18.920708400735826 11.65463791116794 1 0 0 I I #
point $-1 -67.585466141636488 -18.920708400735826 11.65463791116794 #
point $-1 -67.585466141636488 -18.920708400735826 -11.65463791116794 #
straight-curve $-1 -67.585466141636488 -16.821721166470397 -11.65463791116794 0 1 0 I I #
point $-1 -67.585466141636488 -14.722733932204966 -11.65463791116794 #
point $-1 -67.585466141636488 -14.722733932204966 11.65463791116794 #
straight-curve $-1 7.0595052115665524 -31.086687432658767 51.962220461346476 0 0 -1 I I #
point $-1 7.0595052115665524 -31.086687432658767 11.65463791116794 #
straight-curve $-1 7.5728061312837198 -31.086687432658767 7.0611618371276865 1 0 0 I I #
point $-1 7.0595052115665524 -31.086687432658767 7.0611618371276883 #
point $-1 11.680137812138483 -24.229718865147053 4.3075529312237588 #
point $-1 18.611086712996382 -24.229718865147053 4.3075529312237588 #
straight-curve $-1 56.501968443861202 31.086687432658767 0 0 0 -1 I I #
point $-1 56.501968443861209 31.086687432658763 0.39698235360226164 #
straight-curve $-1 56.501968443861202 0 11.65463791116794 0 1 0 I I #
point $-1 56.501968443861202 31.086687432658767 11.65463791116794 #
point $-1 47.418759040230782 20.208552757124977 1.1762315310786544 #
point $-1 52.868684682409025 20.208552757124977 1.1762315310786544 #
straight-curve $-1 -67.585466141636488 -16.821721166470397 11.65463791116794 0 -1 0 I I #
End-of-ACIS-data 