500 0 7 0           
7 Unknown 11 ACIS 5.0 NT 24 Thu Mar 25 23:00:45 1999 
-1 9.9999999999999995e-007 1e-010 
body $-1 $7 $-1 $8 #
body $-1 $9 $-1 $10 #
body $-1 $11 $-1 $12 #
body $-1 $13 $-1 $14 #
body $-1 $15 $-1 $16 #
body $-1 $17 $-1 $18 #
body $-1 $19 $-1 $20 #
lump $-1 $-1 $21 $0 #
transform $-1 1 0 0 0 1 0 0 0 1 43.144627216406754 23.836395962358818 6.1676956439972921 1 rotate no_reflect no_shear #
lump $-1 $-1 $22 $1 #
transform $-1 1 0 0 0 1 0 0 0 1 43.144627216406754 23.836395962358818 6.1676956439972921 1 rotate no_reflect no_shear #
lump $-1 $-1 $23 $2 #
transform $-1 1 0 0 0 1 0 0 0 1 43.144627216406754 23.836395962358818 6.1676956439972921 1 rotate no_reflect no_shear #
lump $-1 $-1 $24 $3 #
transform $-1 1 0 0 0 1 0 0 0 1 43.144627216406754 23.836395962358818 6.1676956439972921 1 rotate no_reflect no_shear #
lump $-1 $-1 $25 $4 #
transform $-1 1 0 0 0 1 0 0 0 1 43.144627216406754 23.836395962358818 6.1676956439972921 1 rotate no_reflect no_shear #
lump $-1 $-1 $26 $5 #
transform $-1 1 0 0 0 1 0 0 0 1 43.144627216406754 23.836395962358818 6.1676956439972921 1 rotate no_reflect no_shear #
lump $-1 $-1 $27 $6 #
transform $-1 1 0 0 0 1 0 0 0 1 43.144627216406754 23.836395962358818 6.1676956439972921 1 rotate no_reflect no_shear #
shell $-1 $-1 $-1 $28 $-1 $7 #
shell $-1 $-1 $-1 $29 $-1 $9 #
shell $-1 $-1 $-1 $30 $-1 $11 #
shell $-1 $-1 $-1 $31 $-1 $13 #
shell $-1 $-1 $-1 $32 $-1 $15 #
shell $-1 $-1 $-1 $33 $-1 $17 #
shell $-1 $-1 $-1 $34 $-1 $19 #
face $-1 $35 $36 $21 $-1 $37 forward single #
face $-1 $38 $39 $22 $-1 $40 forward single #
face $-1 $41 $42 $23 $-1 $43 reversed single #
face $-1 $44 $45 $24 $-1 $46 forward single #
face $-1 $47 $48 $25 $-1 $49 forward single #
face $-1 $50 $51 $26 $-1 $52 reversed single #
face $-1 $53 $54 $27 $-1 $55 forward single #
face $-1 $56 $57 $21 $-1 $58 reversed single #
loop $-1 $-1 $59 $28 #
plane-surface $-1 0 0 6.1676956439972921 0 0 1 1 0 0 forward_v I I I I #
face $-1 $60 $61 $22 $-1 $62 reversed single #
loop $-1 $-1 $63 $29 #
plane-surface $-1 0 -23.836395962358818 0 0 1 0 0 0 1 forward_v I I I I #
face $-1 $64 $65 $23 $-1 $66 reversed single #
loop $-1 $-1 $67 $30 #
plane-surface $-1 -97.448215233782122 -5.5610001303037002 68.869263503412697 0 1 0 -0.62932039886446345 0 0.77714595512881146 forward_v I I I I #
face $-1 $68 $69 $24 $-1 $70 forward single #
loop $-1 $71 $72 $31 #
cone-surface $-1 -39.908120485482712 -3.7446803238359223 3.314795928252821 0.62932039886446345 0 -0.77714595512881146 0.38857297756440573 0 0.31466019943223172 1 I I 0 1 0.5 forward I I I I #
face $-1 $73 $74 $25 $-1 $75 forward single #
loop $-1 $76 $77 $32 #
cone-surface $-1 -39.908120485482712 -1.0202006141342537 3.314795928252821 0.62932039886446345 0 -0.77714595512881146 0.38857297756440573 0 0.31466019943223172 1 I I 0 1 0.5 forward I I I I #
face $-1 $78 $79 $26 $-1 $80 reversed single #
loop $-1 $-1 $81 $33 #
plane-surface $-1 60.12812193905922 9.2529156031894946 121.78987754620897 0 -1 0 -0.79863551827123203 0 -0.60181501223851219 forward_v I I I I #
face $-1 $82 $83 $27 $-1 $84 forward single #
loop $-1 $85 $86 $34 #
cone-surface $-1 40.134216363497735 5.241264105102232 2.770903825290076 -0.79863551827123203 0 -0.60181501223851219 0.90272251835776829 0 -1.197953277406848 1 I I 0 1 1.5 forward I I I I #
face $-1 $87 $88 $21 $-1 $89 reversed single #
loop $-1 $-1 $90 $35 #
plane-surface $-1 0 0 -6.1676956439972921 0 0 1 1 0 0 forward_v I I I I #
coedge $-1 $91 $92 $93 $94 forward $36 $-1 #
face $-1 $95 $96 $22 $-1 $97 forward single #
loop $-1 $-1 $98 $38 #
plane-surface $-1 -43.144627216406754 0 0 1 0 0 0 0 -1 forward_v I I I I #
coedge $-1 $99 $100 $101 $102 forward $39 $-1 #
face $-1 $103 $104 $23 $-1 $105 reversed single #
loop $-1 $-1 $106 $41 #
plane-surface $-1 -43.144627216406754 -2.382440468985088 1.8099184498708212 -0.62932039886446345 0 0.77714595512881146 0.77714595512881146 0 0.62932039886446345 forward_v I I I I #
coedge $-1 $107 $108 $109 $110 reversed $42 $-1 #
face $-1 $-1 $111 $24 $-1 $112 forward single #
loop $-1 $113 $114 $44 #
cone-surface $-1 -39.204986932440697 -3.7446803238359223 2.44649832078938 0.62932039886446345 0 -0.77714595512881146 0.19428648878220287 0 0.15733009971611586 1 I I -0.70710678118654746 0.70710678118654746 0.25 forward I I I I #
loop $-1 $-1 $115 $31 #
coedge $-1 $72 $72 $116 $117 reversed $45 $-1 #
face $-1 $-1 $118 $25 $-1 $119 forward single #
loop $-1 $120 $121 $47 #
cone-surface $-1 -39.204986932440697 -1.0202006141342537 2.44649832078938 0.62932039886446345 0 -0.77714595512881146 0.19428648878220287 0 0.15733009971611586 1 I I -0.70710678118654746 0.70710678118654746 0.25 forward I I I I #
loop $-1 $-1 $122 $32 #
coedge $-1 $77 $77 $123 $124 reversed $48 $-1 #
face $-1 $125 $126 $26 $-1 $127 reversed single #
loop $-1 $-1 $128 $50 #
plane-surface $-1 -8.7855414961290066 5.2412641051022284 69.85970883367321 0.79863551827123203 0 0.60181501223851219 0.60181501223851219 0 -0.79863551827123203 forward_v I I I I #
coedge $-1 $129 $130 $131 $132 reversed $51 $-1 #
face $-1 $-1 $133 $27 $-1 $134 forward single #
loop $-1 $135 $136 $53 #
cone-surface $-1 38.492226661311541 5.241264105102232 1.5335758701601199 -0.79863551827123203 0 -0.60181501223851219 0.45136125917888414 0 -0.59897663870342399 1 I I -0.70710678118654724 0.70710678118654768 0.75 forward I I I I #
loop $-1 $-1 $137 $34 #
coedge $-1 $86 $86 $138 $139 reversed $54 $-1 #
face $-1 $140 $141 $21 $-1 $142 reversed single #
loop $-1 $-1 $143 $56 #
plane-surface $-1 0 -23.836395962358818 0 0 1 0 0 0 1 forward_v I I I I #
coedge $-1 $144 $145 $146 $147 forward $57 $-1 #
coedge $-1 $148 $59 $149 $150 forward $36 $-1 #
coedge $-1 $59 $148 $151 $152 forward $36 $-1 #
coedge $-1 $153 $154 $59 $94 reversed $155 $-1 #
edge $-1 $156 -23.836395962358818 $157 23.836395962358818 $93 $158 forward 7 unknown #
face $-1 $159 $160 $22 $-1 $161 reversed single #
loop $-1 $-1 $162 $60 #
plane-surface $-1 0 -27.483198712549459 4.9748100175184158 0 0 1 1 0 0 forward_v I I I I #
coedge $-1 $163 $164 $100 $165 forward $61 $-1 #
coedge $-1 $166 $63 $167 $168 reversed $39 $-1 #
coedge $-1 $63 $166 $98 $165 reversed $39 $-1 #
coedge $-1 $169 $162 $63 $102 reversed $96 $-1 #
edge $-1 $170 -43.144627216406754 $171 43.144627216406754 $101 $172 forward 7 unknown #
face $-1 $173 $174 $23 $-1 $175 forward single #
loop $-1 $-1 $176 $64 #
plane-surface $-1 -97.448215233782122 0.79611919233352424 68.869263503412697 0 -1 0 0.62932039886446345 0 -0.77714595512881146 forward_v I I I I #
coedge $-1 $177 $178 $179 $180 reversed $65 $-1 #
coedge $-1 $108 $67 $181 $182 reversed $42 $-1 #
coedge $-1 $67 $107 $177 $183 reversed $42 $-1 #
coedge $-1 $179 $184 $67 $110 forward $174 $-1 #
edge $-1 $185 5.5794804004843073 $186 10.9608869556806 $109 $187 forward 7 unknown #
loop $-1 $-1 $116 $68 #
plane-surface $-1 -43.144627216406754 -2.382440468985088 1.8099184498708212 -0.62932039886446345 0 0.77714595512881146 0.77714595512881146 0 0.62932039886446345 forward_v I I I I #
loop $-1 $-1 $188 $44 #
coedge $-1 $114 $114 $115 $189 reversed $69 $-1 #
coedge $-1 $115 $115 $114 $189 forward $71 $-1 #
coedge $-1 $116 $116 $72 $117 forward $111 $-1 #
edge $-1 $190 0 $190 6.2831853071796004 $116 $191 forward 7 unknown #
loop $-1 $-1 $123 $73 #
plane-surface $-1 -43.144627216406754 -2.382440468985088 1.8099184498708212 -0.62932039886446345 0 0.77714595512881146 0.77714595512881146 0 0.62932039886446345 forward_v I I I I #
loop $-1 $-1 $192 $47 #
coedge $-1 $121 $121 $122 $193 reversed $74 $-1 #
coedge $-1 $122 $122 $121 $193 forward $76 $-1 #
coedge $-1 $123 $123 $77 $124 forward $118 $-1 #
edge $-1 $194 0 $194 6.2831853071796004 $123 $195 forward 7 unknown #
face $-1 $196 $197 $26 $-1 $198 reversed single #
loop $-1 $-1 $199 $78 #
plane-surface $-1 60.12812193905922 1.2296126070149622 121.78987754620897 0 1 0 0.79863551827123203 0 0.60181501223851219 forward_v I I I I #
coedge $-1 $200 $201 $202 $203 reversed $79 $-1 #
coedge $-1 $130 $81 $204 $205 reversed $51 $-1 #
coedge $-1 $81 $129 $200 $206 reversed $51 $-1 #
coedge $-1 $202 $207 $81 $132 forward $208 $-1 #
edge $-1 $209 -13.080566246877144 $210 -9.1457706680246424 $131 $211 forward 7 unknown #
loop $-1 $-1 $138 $82 #
plane-surface $-1 -8.7855414961290066 5.2412641051022284 69.85970883367321 0.79863551827123203 0 0.60181501223851219 0.60181501223851219 0 -0.79863551827123203 forward_v I I I I #
loop $-1 $-1 $212 $53 #
coedge $-1 $136 $136 $137 $213 reversed $83 $-1 #
coedge $-1 $137 $137 $136 $213 forward $85 $-1 #
coedge $-1 $138 $138 $86 $139 forward $133 $-1 #
edge $-1 $214 0 $214 6.2831853071796004 $138 $215 forward 7 unknown #
face $-1 $216 $217 $21 $-1 $218 reversed single #
loop $-1 $-1 $219 $87 #
plane-surface $-1 -43.144627216406754 0 0 1 0 0 0 0 -1 forward_v I I I I #
coedge $-1 $220 $151 $221 $222 forward $88 $-1 #
coedge $-1 $223 $90 $220 $224 forward $57 $-1 #
coedge $-1 $90 $223 $225 $226 forward $57 $-1 #
coedge $-1 $154 $153 $90 $147 reversed $155 $-1 #
edge $-1 $227 -23.836395962358818 $228 23.836395962358818 $146 $229 forward 7 unknown #
coedge $-1 $92 $91 $230 $231 forward $36 $-1 #
coedge $-1 $232 $233 $91 $150 reversed $217 $-1 #
edge $-1 $157 -43.144627216406754 $234 43.144627216406754 $149 $235 forward 7 unknown #
coedge $-1 $143 $236 $92 $152 reversed $88 $-1 #
edge $-1 $237 -43.144627216406754 $156 43.144627216406754 $151 $238 forward 7 unknown #
coedge $-1 $146 $93 $236 $239 forward $155 $-1 #
coedge $-1 $93 $146 $232 $240 reversed $155 $-1 #
loop $-1 $-1 $153 $216 #
vertex $-1 $94 $241 #
vertex $-1 $94 $242 #
straight-curve $-1 43.144627216406754 0 6.1676956439972921 0 1 0 I I #
face $-1 $243 $244 $22 $-1 $245 reversed single #
loop $-1 $-1 $246 $95 #
plane-surface $-1 0 -27.483198712549459 1.9748100175184158 0 0 1 1 0 0 forward_v I I I I #
coedge $-1 $101 $247 $248 $249 forward $96 $-1 #
coedge $-1 $250 $98 $251 $252 reversed $61 $-1 #
coedge $-1 $98 $250 $169 $253 reversed $61 $-1 #
edge $-1 $170 -4.9748100175184158 $254 -1.9748100175184158 $98 $255 forward 7 unknown #
coedge $-1 $100 $99 $256 $257 forward $39 $-1 #
coedge $-1 $248 $258 $99 $168 forward $259 $-1 #
edge $-1 $260 1.9748100175184158 $171 4.9748100175184158 $167 $261 forward 7 unknown #
coedge $-1 $247 $101 $164 $253 forward $96 $-1 #
vertex $-1 $165 $262 #
vertex $-1 $249 $263 #
straight-curve $-1 0 -23.836395962358818 4.9748100175184158 1 0 0 I I #
face $-1 $-1 $264 $23 $-1 $265 reversed single #
loop $-1 $-1 $109 $103 #
plane-surface $-1 0 0 6.1676956439972921 0 0 1 1 0 0 forward_v I I I I #
coedge $-1 $266 $267 $268 $269 reversed $104 $-1 #
coedge $-1 $270 $106 $108 $183 forward $65 $-1 #
coedge $-1 $106 $270 $266 $271 forward $65 $-1 #
coedge $-1 $268 $109 $106 $180 forward $174 $-1 #
edge $-1 $186 -4.3697798958111562 $272 1.9873394268260682 $179 $273 forward 7 unknown #
coedge $-1 $274 $275 $107 $182 forward $264 $-1 #
edge $-1 $276 -32.624713301835527 $185 -28.266936107709057 $181 $277 forward 7 unknown #
edge $-1 $186 -6.9245764192446027 $276 0 $108 $278 forward 7 unknown #
coedge $-1 $109 $268 $274 $279 forward $174 $-1 #
vertex $-1 $182 $280 #
vertex $-1 $110 $281 #
straight-curve $-1 -48.724107616891061 -5.5610001303037002 6.1676956439972912 1 0 0 I I #
coedge $-1 $188 $188 $-1 $282 reversed $113 $-1 #
edge $-1 $283 0 $283 6.2831853071796004 $114 $284 forward 7 unknown #
vertex $-1 $117 $285 #
ellipse-curve $-1 -40.453923938808607 -3.7446803238359223 3.9888070469340557 -0.62932039886446345 0 0.77714595512881146 0.38857297756440573 0 0.31466019943223172 1 I I #
coedge $-1 $192 $192 $-1 $286 reversed $120 $-1 #
edge $-1 $287 0 $287 6.2831853071796004 $121 $288 forward 7 unknown #
vertex $-1 $124 $289 #
ellipse-curve $-1 -40.453923938808607 -1.0202006141342537 3.9888070469340557 -0.62932039886446345 0 0.77714595512881146 0.38857297756440573 0 0.31466019943223172 1 I I #
face $-1 $-1 $208 $26 $-1 $290 forward single #
loop $-1 $-1 $291 $125 #
plane-surface $-1 43.144627216406754 0 0 -1 0 0 0 0 1 forward_v I I I I #
coedge $-1 $292 $293 $294 $295 reversed $126 $-1 #
coedge $-1 $296 $128 $130 $206 forward $79 $-1 #
coedge $-1 $128 $296 $292 $297 forward $79 $-1 #
coedge $-1 $294 $131 $128 $203 forward $208 $-1 #
edge $-1 $210 -6.6322835506383804 $298 1.391019445536152 $202 $299 forward 7 unknown #
coedge $-1 $300 $301 $129 $205 forward $197 $-1 #
edge $-1 $302 -59.948893374619502 $209 -54.727243129107194 $204 $303 forward 7 unknown #
edge $-1 $210 79.751040033314524 $302 86.289254432813522 $130 $304 forward 7 unknown #
coedge $-1 $131 $294 $300 $305 forward $208 $-1 #
loop $-1 $-1 $294 $196 #
vertex $-1 $205 $306 #
vertex $-1 $132 $307 #
straight-curve $-1 30.06406096952961 9.2529156031894946 6.1676956439972912 -1 0 0 I I #
coedge $-1 $212 $212 $-1 $308 reversed $135 $-1 #
edge $-1 $309 0 $309 6.2831853071796004 $136 $310 forward 7 unknown #
vertex $-1 $139 $311 #
ellipse-curve $-1 41.177229426980503 5.241264105102232 3.5568705212411427 0.79863551827123203 0 0.60181501223851219 0.90272251835776829 0 -1.197953277406848 1 I I #
face $-1 $-1 $155 $21 $-1 $312 reversed single #
loop $-1 $-1 $232 $140 #
plane-surface $-1 0 23.836395962358818 0 0 -1 0 0 0 -1 forward_v I I I I #
coedge $-1 $313 $230 $233 $314 forward $141 $-1 #
coedge $-1 $236 $143 $144 $224 reversed $88 $-1 #
coedge $-1 $230 $313 $143 $222 reversed $141 $-1 #
edge $-1 $237 -6.1676956439972921 $315 6.1676956439972921 $221 $316 forward 7 unknown #
coedge $-1 $145 $144 $313 $317 forward $57 $-1 #
edge $-1 $228 -43.144627216406754 $315 43.144627216406754 $220 $318 forward 7 unknown #
coedge $-1 $233 $232 $145 $226 reversed $217 $-1 #
edge $-1 $319 -43.144627216406754 $227 43.144627216406754 $225 $320 forward 7 unknown #
vertex $-1 $147 $321 #
vertex $-1 $239 $322 #
straight-curve $-1 43.144627216406754 0 -6.1676956439972921 0 -1 0 I I #
coedge $-1 $219 $221 $148 $231 reversed $141 $-1 #
edge $-1 $234 -23.836395962358818 $237 23.836395962358818 $230 $323 forward 7 unknown #
coedge $-1 $225 $149 $154 $240 forward $217 $-1 #
coedge $-1 $149 $225 $219 $314 reversed $217 $-1 #
vertex $-1 $150 $324 #
straight-curve $-1 0 23.836395962358818 6.1676956439972921 -1 0 0 I I #
coedge $-1 $151 $220 $153 $239 reversed $88 $-1 #
vertex $-1 $231 $325 #
straight-curve $-1 0 -23.836395962358818 6.1676956439972921 1 0 0 I I #
edge $-1 $156 -6.1676956439972921 $228 6.1676956439972921 $153 $326 forward 7 unknown #
edge $-1 $157 -6.1676956439972921 $227 6.1676956439972921 $154 $327 forward 7 unknown #
point $-1 43.144627216406754 -23.836395962358818 6.1676956439972921 #
point $-1 43.144627216406754 23.836395962358818 6.1676956439972921 #
face $-1 $-1 $259 $22 $-1 $328 reversed single #
loop $-1 $-1 $329 $159 #
plane-surface $-1 0 -31.1300014627401 3.4748100175184158 0 1 0 0 0 1 forward_v I I I I #
coedge $-1 $330 $256 $258 $331 forward $160 $-1 #
coedge $-1 $162 $169 $332 $333 forward $96 $-1 #
coedge $-1 $334 $167 $162 $249 reversed $259 $-1 #
edge $-1 $335 -3.6468027501906413 $171 3.6468027501906413 $248 $336 forward 7 unknown #
coedge $-1 $164 $163 $329 $337 reversed $61 $-1 #
coedge $-1 $256 $330 $163 $252 forward $160 $-1 #
edge $-1 $338 -3.6468027501906413 $254 3.6468027501906413 $163 $339 forward 7 unknown #
edge $-1 $170 -3.6468027501906413 $340 3.6468027501906413 $164 $341 forward 7 unknown #
vertex $-1 $165 $342 #
straight-curve $-1 -43.144627216406754 -23.836395962358818 0 0 0 -1 I I #
coedge $-1 $246 $251 $166 $257 reversed $160 $-1 #
edge $-1 $260 -43.144627216406754 $254 43.144627216406754 $256 $343 forward 7 unknown #
coedge $-1 $167 $334 $246 $331 reversed $259 $-1 #
loop $-1 $-1 $167 $243 #
vertex $-1 $168 $344 #
straight-curve $-1 43.144627216406754 -23.836395962358818 0 0 0 1 I I #
point $-1 -43.144627216406754 -23.836395962358818 4.9748100175184158 #
point $-1 43.144627216406754 -23.836395962358818 4.9748100175184158 #
loop $-1 $-1 $181 $173 #
plane-surface $-1 -43.144627216406754 0 0 1 0 0 0 0 -1 forward_v I I I I #
coedge $-1 $267 $176 $178 $271 reversed $104 $-1 #
coedge $-1 $176 $266 $345 $346 reversed $104 $-1 #
coedge $-1 $184 $179 $176 $269 forward $174 $-1 #
edge $-1 $272 -10.9608869556806 $347 -5.5794804004843073 $268 $348 forward 7 unknown #
coedge $-1 $178 $177 $275 $349 reversed $65 $-1 #
edge $-1 $350 0 $272 6.9245764192446027 $266 $351 forward 7 unknown #
vertex $-1 $180 $352 #
straight-curve $-1 -37.763220661210468 -1.191220234492544 6.1676956439972912 0 1 0 I I #
coedge $-1 $345 $181 $184 $279 reversed $264 $-1 #
coedge $-1 $181 $345 $270 $349 forward $264 $-1 #
vertex $-1 $182 $353 #
straight-curve $-1 -43.144627216406754 -5.5610001303037002 34.434631751706348 0 0 1 I I #
straight-curve $-1 -43.144627216406754 -5.5610001303037002 1.8099184498708212 -0.77714595512881146 0 -0.62932039886446345 I I #
edge $-1 $347 -0.79611919233352424 $185 5.5610001303037002 $274 $354 forward 7 unknown #
point $-1 -43.144627216406754 -5.5610001303037002 6.1676956439972921 #
point $-1 -37.763220661210461 -5.5610001303037002 6.1676956439972921 #
edge $-1 $355 1 $355 0 $188 $-1 forward 7 unknown #
vertex $-1 $189 $356 #
ellipse-curve $-1 -39.36231703215681 -3.7446803238359223 2.6407848095715827 -0.62932039886446345 0 0.77714595512881146 0.38857297756440573 0 0.31466019943223172 1 I I #
point $-1 -40.065350961244206 -3.7446803238359223 4.3034672463662904 #
edge $-1 $357 1 $357 0 $192 $-1 forward 7 unknown #
vertex $-1 $193 $358 #
ellipse-curve $-1 -39.36231703215681 -1.0202006141342537 2.6407848095715827 -0.62932039886446345 0 0.77714595512881146 0.38857297756440573 0 0.31466019943223172 1 I I #
point $-1 -40.065350961244206 -1.0202006141342537 4.3034672463662904 #
plane-surface $-1 0 0 6.1676956439972921 0 0 1 1 0 0 forward_v I I I I #
coedge $-1 $301 $300 $293 $359 forward $197 $-1 #
coedge $-1 $293 $199 $201 $297 reversed $126 $-1 #
coedge $-1 $199 $292 $291 $359 reversed $126 $-1 #
coedge $-1 $207 $202 $199 $295 forward $208 $-1 #
edge $-1 $298 9.1457706680246424 $360 13.080566246877144 $294 $361 forward 7 unknown #
coedge $-1 $201 $200 $301 $362 reversed $79 $-1 #
edge $-1 $363 -86.289254432813522 $298 -79.751040033314524 $292 $364 forward 7 unknown #
vertex $-1 $203 $365 #
straight-curve $-1 39.209831637554245 2.6206320525511142 6.1676956439972983 0 -1 0 I I #
coedge $-1 $291 $204 $207 $305 reversed $197 $-1 #
coedge $-1 $204 $291 $296 $362 forward $197 $-1 #
vertex $-1 $205 $366 #
straight-curve $-1 43.144627216406754 9.2529156031894946 60.894938773104485 0 0 1 I I #
straight-curve $-1 -8.7855414961290066 9.2529156031894946 69.85970883367321 0.60181501223851219 0 -0.79863551827123203 I I #
edge $-1 $360 1.2296126070149622 $209 9.2529156031894946 $300 $367 forward 7 unknown #
point $-1 43.144627216406754 9.2529156031894946 6.1676956439972921 #
point $-1 39.209831637554252 9.2529156031894946 6.1676956439972912 #
edge $-1 $368 1 $368 0 $212 $-1 forward 7 unknown #
vertex $-1 $213 $369 #
ellipse-curve $-1 39.091203300014968 5.241264105102232 1.9849371293390043 0.79863551827123203 0 0.60181501223851219 0.90272251835776829 0 -1.197953277406848 1 I I #
point $-1 42.07995194533828 5.241264105102232 2.3589172438343002 #
plane-surface $-1 43.144627216406754 0 0 -1 0 0 0 0 1 forward_v I I I I #
coedge $-1 $221 $219 $223 $317 reversed $141 $-1 #
edge $-1 $234 -6.1676956439972921 $319 6.1676956439972921 $233 $370 forward 7 unknown #
vertex $-1 $317 $371 #
straight-curve $-1 -43.144627216406754 -23.836395962358818 0 0 0 -1 I I #
edge $-1 $315 -23.836395962358818 $319 23.836395962358818 $313 $372 forward 7 unknown #
straight-curve $-1 0 -23.836395962358818 -6.1676956439972921 -1 0 0 I I #
vertex $-1 $226 $373 #
straight-curve $-1 0 23.836395962358818 -6.1676956439972921 1 0 0 I I #
point $-1 43.144627216406754 23.836395962358818 -6.1676956439972921 #
point $-1 43.144627216406754 -23.836395962358818 -6.1676956439972921 #
straight-curve $-1 -43.144627216406754 0 6.1676956439972921 0 -1 0 I I #
point $-1 -43.144627216406754 23.836395962358818 6.1676956439972921 #
point $-1 -43.144627216406754 -23.836395962358818 6.1676956439972921 #
straight-curve $-1 43.144627216406754 -23.836395962358818 0 0 0 -1 I I #
straight-curve $-1 43.144627216406754 23.836395962358818 0 0 0 -1 I I #
plane-surface $-1 43.144627216406754 0 0 -1 0 0 0 0 1 forward_v I I I I #
coedge $-1 $374 $332 $250 $337 forward $244 $-1 #
coedge $-1 $251 $246 $374 $375 forward $160 $-1 #
edge $-1 $260 -3.6468027501906413 $376 3.6468027501906413 $258 $377 forward 7 unknown #
coedge $-1 $329 $378 $247 $333 reversed $244 $-1 #
edge $-1 $340 -43.144627216406754 $335 43.144627216406754 $332 $379 forward 7 unknown #
coedge $-1 $258 $248 $378 $380 forward $259 $-1 #
vertex $-1 $249 $381 #
straight-curve $-1 43.144627216406754 -27.483198712549459 4.9748100175184158 0 1 0 I I #
edge $-1 $340 -1.5 $338 1.5 $250 $382 forward 7 unknown #
vertex $-1 $252 $383 #
straight-curve $-1 -43.144627216406754 -27.483198712549459 1.9748100175184158 0 1 0 I I #
vertex $-1 $253 $384 #
straight-curve $-1 -43.144627216406754 -27.483198712549459 4.9748100175184158 0 -1 0 I I #
point $-1 -43.144627216406754 -23.836395962358818 1.9748100175184158 #
straight-curve $-1 0 -23.836395962358818 1.9748100175184158 -1 0 0 I I #
point $-1 43.144627216406754 -23.836395962358818 1.9748100175184158 #
coedge $-1 $275 $274 $267 $346 forward $264 $-1 #
edge $-1 $347 28.266936107709057 $350 32.624713301835527 $345 $385 forward 7 unknown #
vertex $-1 $279 $386 #
straight-curve $-1 -48.724107616891061 0.79611919233352424 6.1676956439972912 -1 0 0 I I #
edge $-1 $350 -1.9873394268260682 $276 4.3697798958111562 $275 $387 forward 7 unknown #
vertex $-1 $349 $388 #
straight-curve $-1 -43.144627216406754 0.79611919233352424 1.8099184498708212 0.77714595512881146 0 0.62932039886446345 I I #
point $-1 -37.763220661210461 0.79611919233352424 6.1676956439972921 #
point $-1 -43.144627216406754 -5.5610001303037002 1.8099184498708212 #
straight-curve $-1 -43.144627216406754 0 6.1676956439972921 0 -1 0 I I #
vertex $-1 $282 $389 #
point $-1 -38.973744054592409 -3.7446803238359223 2.9554450090038147 #
vertex $-1 $286 $390 #
point $-1 -38.973744054592409 -1.0202006141342537 2.9554450090038147 #
edge $-1 $360 54.727243129107194 $363 59.948893374619502 $291 $391 forward 7 unknown #
vertex $-1 $305 $392 #
straight-curve $-1 30.06406096952961 1.2296126070149622 6.1676956439972912 1 0 0 I I #
edge $-1 $363 -1.391019445536152 $302 6.6322835506383804 $301 $393 forward 7 unknown #
vertex $-1 $362 $394 #
straight-curve $-1 -8.7855414961290066 1.2296126070149622 69.85970883367321 -0.60181501223851219 0 0.79863551827123203 I I #
point $-1 39.209831637554252 1.2296126070149622 6.1676956439972912 #
point $-1 43.144627216406754 9.2529156031894946 0.94604539848498348 #
straight-curve $-1 43.144627216406754 0 6.1676956439972921 0 1 0 I I #
vertex $-1 $308 $395 #
point $-1 39.99392581837273 5.241264105102232 0.78698385193215636 #
straight-curve $-1 -43.144627216406754 23.836395962358818 0 0 0 -1 I I #
point $-1 -43.144627216406754 -23.836395962358818 -6.1676956439972921 #
straight-curve $-1 -43.144627216406754 0 -6.1676956439972921 0 1 0 I I #
point $-1 -43.144627216406754 23.836395962358818 -6.1676956439972921 #
coedge $-1 $378 $329 $330 $375 reversed $244 $-1 #
edge $-1 $376 -43.144627216406754 $338 43.144627216406754 $374 $396 forward 7 unknown #
vertex $-1 $380 $397 #
straight-curve $-1 43.144627216406754 -27.483198712549459 1.9748100175184158 0 -1 0 I I #
coedge $-1 $332 $374 $334 $380 reversed $244 $-1 #
straight-curve $-1 0 -31.1300014627401 4.9748100175184158 1 0 0 I I #
edge $-1 $335 -1.5 $376 1.5 $334 $398 forward 7 unknown #
point $-1 43.144627216406754 -31.1300014627401 4.9748100175184158 #
straight-curve $-1 -43.144627216406754 -31.1300014627401 3.4748100175184158 0 0 -1 I I #
point $-1 -43.144627216406754 -31.1300014627401 1.9748100175184158 #
point $-1 -43.144627216406754 -31.1300014627401 4.9748100175184158 #
straight-curve $-1 -43.144627216406754 0.79611919233352424 34.434631751706348 0 0 -1 I I #
point $-1 -43.144627216406754 0.79611919233352424 6.1676956439972921 #
straight-curve $-1 -43.144627216406754 -1.191220234492544 1.8099184498708198 0 -1 0 I I #
point $-1 -43.144627216406754 0.79611919233352424 1.8099184498708212 #
point $-1 -39.047656832724584 -3.7446803238359223 2.2522118320071773 #
point $-1 -39.047656832724584 -1.0202006141342537 2.2522118320071773 #
straight-curve $-1 43.144627216406754 1.2296126070149622 60.894938773104485 0 0 -1 I I #
point $-1 43.144627216406754 1.2296126070149622 6.1676956439972921 #
straight-curve $-1 43.144627216406747 2.6206320525511142 0.94604539848497637 0 1 0 I I #
point $-1 43.144627216406754 1.2296126070149622 0.94604539848498348 #
point $-1 37.893250022608115 5.241264105102232 1.0822146109812354 #
straight-curve $-1 0 -31.1300014627401 1.9748100175184158 -1 0 0 I I #
point $-1 43.144627216406754 -31.1300014627401 1.9748100175184158 #
straight-curve $-1 43.144627216406754 -31.1300014627401 3.4748100175184158 0 0 -1 I I #
End-of-ACIS-data 