500 0 18 0           
7 Unknown 11 ACIS 5.0 NT 24 Thu Mar 25 23:55:12 1999 
-1 9.9999999999999995e-007 1e-010 
body $-1 $18 $-1 $19 #
body $-1 $20 $-1 $21 #
body $-1 $22 $-1 $23 #
body $-1 $24 $-1 $25 #
body $-1 $26 $-1 $27 #
body $-1 $28 $-1 $29 #
body $-1 $30 $-1 $31 #
body $-1 $32 $-1 $33 #
body $-1 $34 $-1 $35 #
body $-1 $36 $-1 $37 #
body $-1 $38 $-1 $39 #
body $-1 $40 $-1 $41 #
body $-1 $42 $-1 $43 #
body $-1 $44 $-1 $45 #
body $-1 $46 $-1 $47 #
body $-1 $48 $-1 $49 #
body $-1 $50 $-1 $51 #
body $-1 $52 $-1 $53 #
lump $-1 $-1 $54 $0 #
transform $-1 1 0 0 0 1 0 0 0 1 67.156590472121337 40.907785236561175 16.895076352057213 1 rotate no_reflect no_shear #
lump $-1 $-1 $55 $1 #
transform $-1 1 0 0 0 1 0 0 0 1 67.156590472121337 40.907785236561175 16.895076352057213 1 rotate no_reflect no_shear #
lump $-1 $-1 $56 $2 #
transform $-1 1 0 0 0 1 0 0 0 1 67.156590472121337 40.907785236561175 16.895076352057213 1 rotate no_reflect no_shear #
lump $-1 $-1 $57 $3 #
transform $-1 1 0 0 0 1 0 0 0 1 67.156590472121337 40.907785236561175 16.895076352057213 1 rotate no_reflect no_shear #
lump $-1 $-1 $58 $4 #
transform $-1 1 0 0 0 1 0 0 0 1 67.156590472121337 40.907785236561175 16.895076352057213 1 rotate no_reflect no_shear #
lump $-1 $-1 $59 $5 #
transform $-1 1 0 0 0 1 0 0 0 1 67.156590472121337 40.907785236561175 16.895076352057213 1 rotate no_reflect no_shear #
lump $-1 $-1 $60 $6 #
transform $-1 1 0 0 0 1 0 0 0 1 67.156590472121337 40.907785236561175 16.895076352057213 1 rotate no_reflect no_shear #
lump $-1 $-1 $61 $7 #
transform $-1 1 0 0 0 1 0 0 0 1 67.156590472121337 40.907785236561175 16.895076352057213 1 rotate no_reflect no_shear #
lump $-1 $-1 $62 $8 #
transform $-1 1 0 0 0 1 0 0 0 1 67.156590472121337 40.907785236561175 16.895076352057213 1 rotate no_reflect no_shear #
lump $-1 $-1 $63 $9 #
transform $-1 1 0 0 0 1 0 0 0 1 67.156590472121337 40.907785236561175 16.895076352057213 1 rotate no_reflect no_shear #
lump $-1 $-1 $64 $10 #
transform $-1 1 0 0 0 1 0 0 0 1 67.156590472121337 40.907785236561175 16.895076352057213 1 rotate no_reflect no_shear #
lump $-1 $-1 $65 $11 #
transform $-1 1 0 0 0 1 0 0 0 1 67.156590472121337 40.907785236561175 16.895076352057213 1 rotate no_reflect no_shear #
lump $-1 $-1 $66 $12 #
transform $-1 1 0 0 0 1 0 0 0 1 67.156590472121337 40.907785236561175 16.895076352057213 1 rotate no_reflect no_shear #
lump $-1 $-1 $67 $13 #
transform $-1 1 0 0 0 1 0 0 0 1 67.156590472121337 40.907785236561175 16.895076352057213 1 rotate no_reflect no_shear #
lump $-1 $-1 $68 $14 #
transform $-1 1 0 0 0 1 0 0 0 1 67.156590472121337 40.907785236561175 16.895076352057213 1 rotate no_reflect no_shear #
lump $-1 $-1 $69 $15 #
transform $-1 1 0 0 0 1 0 0 0 1 67.156590472121337 40.907785236561175 16.895076352057213 1 rotate no_reflect no_shear #
lump $-1 $-1 $70 $16 #
transform $-1 1 0 0 0 1 0 0 0 1 67.156590472121337 40.907785236561175 16.895076352057213 1 rotate no_reflect no_shear #
lump $-1 $-1 $71 $17 #
transform $-1 1 0 0 0 1 0 0 0 1 67.156590472121337 40.907785236561175 16.895076352057213 1 rotate no_reflect no_shear #
shell $-1 $-1 $-1 $72 $-1 $18 #
shell $-1 $-1 $-1 $73 $-1 $20 #
shell $-1 $-1 $-1 $74 $-1 $22 #
shell $-1 $-1 $-1 $75 $-1 $24 #
shell $-1 $-1 $-1 $76 $-1 $26 #
shell $-1 $-1 $-1 $77 $-1 $28 #
shell $-1 $-1 $-1 $78 $-1 $30 #
shell $-1 $-1 $-1 $79 $-1 $32 #
shell $-1 $-1 $-1 $80 $-1 $34 #
shell $-1 $-1 $-1 $81 $-1 $36 #
shell $-1 $-1 $-1 $82 $-1 $38 #
shell $-1 $-1 $-1 $83 $-1 $40 #
shell $-1 $-1 $-1 $84 $-1 $42 #
shell $-1 $-1 $-1 $85 $-1 $44 #
shell $-1 $-1 $-1 $86 $-1 $46 #
shell $-1 $-1 $-1 $87 $-1 $48 #
shell $-1 $-1 $-1 $88 $-1 $50 #
shell $-1 $-1 $-1 $89 $-1 $52 #
face $-1 $90 $91 $54 $-1 $92 forward single #
face $-1 $93 $94 $55 $-1 $95 reversed single #
face $-1 $96 $97 $56 $-1 $98 reversed single #
face $-1 $99 $100 $57 $-1 $101 forward single #
face $-1 $102 $103 $58 $-1 $104 forward single #
face $-1 $105 $106 $59 $-1 $107 forward single #
face $-1 $108 $109 $60 $-1 $110 reversed single #
face $-1 $111 $112 $61 $-1 $113 forward single #
face $-1 $114 $115 $62 $-1 $116 forward single #
face $-1 $117 $118 $63 $-1 $119 reversed single #
face $-1 $120 $121 $64 $-1 $122 forward single #
face $-1 $123 $124 $65 $-1 $125 forward single #
face $-1 $126 $127 $66 $-1 $128 reversed single #
face $-1 $129 $130 $67 $-1 $131 forward single #
face $-1 $132 $133 $68 $-1 $134 forward single #
face $-1 $135 $136 $69 $-1 $137 reversed single #
face $-1 $138 $139 $70 $-1 $140 forward single #
face $-1 $141 $142 $71 $-1 $143 forward single #
face $-1 $144 $145 $54 $-1 $146 reversed single #
loop $-1 $-1 $147 $72 #
plane-surface $-1 0 0 16.895076352057213 0 0 1 1 0 0 forward_v I I I I #
face $-1 $148 $149 $55 $-1 $150 reversed single #
loop $-1 $-1 $151 $73 #
plane-surface $-1 -60.416183568180479 -16.269445887444284 0 0 1 0 0 0 1 forward_v I I I I #
face $-1 $152 $153 $56 $-1 $154 reversed single #
loop $-1 $-1 $155 $74 #
plane-surface $-1 -53.675776664239613 45.443676877939971 170.86546193554861 1 0 0 0 -0.54463904215088732 -0.83867056331134215 forward_v I I I I #
face $-1 $156 $157 $57 $-1 $158 forward single #
loop $-1 $159 $160 $75 #
cone-surface $-1 -50.269076099405694 37.926711351562105 14.521884252534083 0 -0.54463904215088732 -0.83867056331134215 1 0 0 1 I I 0 1 1 forward I I I I #
face $-1 $161 $162 $58 $-1 $163 forward single #
loop $-1 $164 $165 $76 #
cone-surface $-1 -45.159025252154819 37.926711351562105 14.521884252534083 0 -0.54463904215088732 -0.83867056331134215 1 0 0 1 I I 0 1 1 forward I I I I #
face $-1 $166 $167 $59 $-1 $168 forward single #
loop $-1 $169 $170 $77 #
cone-surface $-1 -40.048974404903944 37.926711351562105 14.521884252534083 0 -0.54463904215088732 -0.83867056331134215 1 0 0 1 I I 0 1 1 forward I I I I #
face $-1 $171 $172 $60 $-1 $173 reversed single #
loop $-1 $-1 $174 $78 #
plane-surface $-1 -27.437149871680319 -116.01476383930546 122.00340921608206 -1 0 0 0 -0.55919291073839883 0.82903756765294845 forward_v I I I I #
face $-1 $175 $176 $61 $-1 $177 forward single #
loop $-1 $178 $179 $79 #
cone-surface $-1 -41.376038362272553 -34.832885228142935 11.627787768612755 0 0.55919291073839883 -0.82903756765294845 1.5 0 0 1 I I 0 1 1.5 forward I I I I #
face $-1 $180 $181 $62 $-1 $182 forward single #
loop $-1 $183 $184 $80 #
cone-surface $-1 -33.012705267917212 -34.832885228142935 11.627787768612755 0 0.55919291073839883 -0.82903756765294845 1.5 0 0 1 I I 0 1 1.5 forward I I I I #
face $-1 $185 $186 $63 $-1 $187 reversed single #
loop $-1 $-1 $188 $81 #
plane-surface $-1 1.8527026076768482 -116.01476383930546 122.00340921608206 -1 0 0 0 -0.55919291073839883 0.82903756765294845 forward_v I I I I #
face $-1 $189 $190 $64 $-1 $191 forward single #
loop $-1 $192 $193 $82 #
cone-surface $-1 -12.086185882915387 -34.832885228142935 11.627787768612755 0 0.55919291073839883 -0.82903756765294845 1.5 0 0 1 I I 0 1 1.5 forward I I I I #
face $-1 $194 $195 $65 $-1 $196 forward single #
loop $-1 $197 $198 $83 #
cone-surface $-1 -3.7228527885600471 -34.832885228142935 11.627787768612755 0 0.55919291073839883 -0.82903756765294845 1.5 0 0 1 I I 0 1 1.5 forward I I I I #
face $-1 $199 $200 $66 $-1 $201 reversed single #
loop $-1 $-1 $202 $84 #
plane-surface $-1 31.142555087034012 -116.01476383930546 122.00340921608206 -1 0 0 0 -0.55919291073839883 0.82903756765294845 forward_v I I I I #
face $-1 $203 $204 $67 $-1 $205 forward single #
loop $-1 $206 $207 $85 #
cone-surface $-1 17.203666596441778 -34.832885228142935 11.627787768612755 0 0.55919291073839883 -0.82903756765294845 1.5 0 0 1 I I 0 1 1.5 forward I I I I #
face $-1 $208 $209 $68 $-1 $210 forward single #
loop $-1 $211 $212 $86 #
cone-surface $-1 25.566999690797118 -34.832885228142935 11.627787768612755 0 0.55919291073839883 -0.82903756765294845 1.5 0 0 1 I I 0 1 1.5 forward I I I I #
face $-1 $213 $214 $69 $-1 $215 reversed single #
loop $-1 $-1 $216 $87 #
plane-surface $-1 60.432407566391177 -116.01476383930546 122.00340921608206 -1 0 0 0 -0.55919291073839883 0.82903756765294845 forward_v I I I I #
face $-1 $217 $218 $70 $-1 $219 forward single #
loop $-1 $220 $221 $88 #
cone-surface $-1 46.493519075798943 -34.832885228142935 11.627787768612755 0 0.55919291073839883 -0.82903756765294845 1.5 0 0 1 I I 0 1 1.5 forward I I I I #
face $-1 $222 $223 $71 $-1 $224 forward single #
loop $-1 $225 $226 $89 #
cone-surface $-1 54.856852170154283 -34.832885228142935 11.627787768612755 0 0.55919291073839883 -0.82903756765294845 1.5 0 0 1 I I 0 1 1.5 forward I I I I #
face $-1 $227 $228 $54 $-1 $229 reversed single #
loop $-1 $-1 $230 $90 #
plane-surface $-1 0 0 -16.895076352057213 0 0 1 1 0 0 forward_v I I I I #
coedge $-1 $231 $232 $233 $234 forward $91 $-1 #
face $-1 $235 $236 $55 $-1 $237 reversed single #
loop $-1 $-1 $238 $93 #
plane-surface $-1 -60.416183568180479 -7.1176325324467484 0 0 -1 0 0 0 -1 forward_v I I I I #
coedge $-1 $239 $240 $241 $242 reversed $94 $-1 #
face $-1 $243 $244 $56 $-1 $245 reversed single #
loop $-1 $-1 $246 $96 #
plane-surface $-1 -45.159025252154819 -27.708525339771164 58.220950812902373 0 0.54463904215088732 0.83867056331134215 1 0 0 forward_v I I I I #
coedge $-1 $247 $248 $249 $250 reversed $97 $-1 #
face $-1 $-1 $251 $57 $-1 $252 forward single #
loop $-1 $253 $254 $99 #
cone-surface $-1 -50.269076099405694 37.163340735718641 13.346396608687581 0 -0.54463904215088732 -0.83867056331134215 0.5 0 0 1 I I -0.70710678118654746 0.70710678118654746 0.5 forward I I I I #
loop $-1 $-1 $255 $75 #
coedge $-1 $160 $160 $256 $257 reversed $100 $-1 #
face $-1 $-1 $258 $58 $-1 $259 forward single #
loop $-1 $260 $261 $102 #
cone-surface $-1 -45.159025252154819 37.163340735718641 13.346396608687581 0 -0.54463904215088732 -0.83867056331134215 0.5 0 0 1 I I -0.70710678118654746 0.70710678118654746 0.5 forward I I I I #
loop $-1 $-1 $262 $76 #
coedge $-1 $165 $165 $263 $264 reversed $103 $-1 #
face $-1 $-1 $265 $59 $-1 $266 forward single #
loop $-1 $267 $268 $105 #
cone-surface $-1 -40.048974404903944 37.163340735718641 13.346396608687581 0 -0.54463904215088732 -0.83867056331134215 0.5 0 0 1 I I -0.70710678118654746 0.70710678118654746 0.5 forward I I I I #
loop $-1 $-1 $269 $77 #
coedge $-1 $170 $170 $270 $271 reversed $106 $-1 #
face $-1 $272 $273 $60 $-1 $274 reversed single #
loop $-1 $-1 $275 $108 #
plane-surface $-1 -37.194371815094883 -40.907785236561153 10.652736382336769 0 -0.55919291073839883 0.82903756765294845 1 0 0 forward_v I I I I #
coedge $-1 $276 $277 $278 $279 reversed $109 $-1 #
face $-1 $-1 $280 $61 $-1 $281 forward single #
loop $-1 $282 $283 $111 #
cone-surface $-1 -41.376038362272553 -32.965915244816955 8.8598909942888007 0 0.55919291073839883 -0.82903756765294845 0.75 0 0 1 I I -0.70710678118654757 0.70710678118654757 0.75 forward I I I I #
loop $-1 $-1 $284 $79 #
coedge $-1 $179 $179 $285 $286 reversed $112 $-1 #
face $-1 $-1 $287 $62 $-1 $288 forward single #
loop $-1 $289 $290 $114 #
cone-surface $-1 -33.012705267917212 -32.965915244816955 8.8598909942888007 0 0.55919291073839883 -0.82903756765294845 0.75 0 0 1 I I -0.70710678118654757 0.70710678118654757 0.75 forward I I I I #
loop $-1 $-1 $291 $80 #
coedge $-1 $184 $184 $292 $293 reversed $115 $-1 #
face $-1 $294 $295 $63 $-1 $296 reversed single #
loop $-1 $-1 $297 $117 #
plane-surface $-1 -7.9045193357377173 -40.907785236561153 10.652736382336769 0 -0.55919291073839883 0.82903756765294845 1 0 0 forward_v I I I I #
coedge $-1 $298 $299 $300 $301 reversed $118 $-1 #
face $-1 $-1 $302 $64 $-1 $303 forward single #
loop $-1 $304 $305 $120 #
cone-surface $-1 -12.086185882915387 -32.965915244816955 8.8598909942888007 0 0.55919291073839883 -0.82903756765294845 0.75 0 0 1 I I -0.70710678118654757 0.70710678118654757 0.75 forward I I I I #
loop $-1 $-1 $306 $82 #
coedge $-1 $193 $193 $307 $308 reversed $121 $-1 #
face $-1 $-1 $309 $65 $-1 $310 forward single #
loop $-1 $311 $312 $123 #
cone-surface $-1 -3.7228527885600471 -32.965915244816955 8.8598909942888007 0 0.55919291073839883 -0.82903756765294845 0.75 0 0 1 I I -0.70710678118654757 0.70710678118654757 0.75 forward I I I I #
loop $-1 $-1 $313 $83 #
coedge $-1 $198 $198 $314 $315 reversed $124 $-1 #
face $-1 $316 $317 $66 $-1 $318 reversed single #
loop $-1 $-1 $319 $126 #
plane-surface $-1 21.385333143619448 -40.907785236561153 10.652736382336769 0 -0.55919291073839883 0.82903756765294845 1 0 0 forward_v I I I I #
coedge $-1 $320 $321 $322 $323 reversed $127 $-1 #
face $-1 $-1 $324 $67 $-1 $325 forward single #
loop $-1 $326 $327 $129 #
cone-surface $-1 17.203666596441778 -32.965915244816955 8.8598909942888007 0 0.55919291073839883 -0.82903756765294845 0.75 0 0 1 I I -0.70710678118654757 0.70710678118654757 0.75 forward I I I I #
loop $-1 $-1 $328 $85 #
coedge $-1 $207 $207 $329 $330 reversed $130 $-1 #
face $-1 $-1 $331 $68 $-1 $332 forward single #
loop $-1 $333 $334 $132 #
cone-surface $-1 25.566999690797118 -32.965915244816955 8.8598909942888007 0 0.55919291073839883 -0.82903756765294845 0.75 0 0 1 I I -0.70710678118654757 0.70710678118654757 0.75 forward I I I I #
loop $-1 $-1 $335 $86 #
coedge $-1 $212 $212 $336 $337 reversed $133 $-1 #
face $-1 $338 $339 $69 $-1 $340 reversed single #
loop $-1 $-1 $341 $135 #
plane-surface $-1 50.675185622976613 -40.907785236561153 10.652736382336769 0 -0.55919291073839883 0.82903756765294845 1 0 0 forward_v I I I I #
coedge $-1 $342 $343 $344 $345 reversed $136 $-1 #
face $-1 $-1 $346 $70 $-1 $347 forward single #
loop $-1 $348 $349 $138 #
cone-surface $-1 46.493519075798943 -32.965915244816955 8.8598909942888007 0 0.55919291073839883 -0.82903756765294845 0.75 0 0 1 I I -0.70710678118654757 0.70710678118654757 0.75 forward I I I I #
loop $-1 $-1 $350 $88 #
coedge $-1 $221 $221 $351 $352 reversed $139 $-1 #
face $-1 $-1 $353 $71 $-1 $354 forward single #
loop $-1 $355 $356 $141 #
cone-surface $-1 54.856852170154283 -32.965915244816955 8.8598909942888007 0 0.55919291073839883 -0.82903756765294845 0.75 0 0 1 I I -0.70710678118654757 0.70710678118654757 0.75 forward I I I I #
loop $-1 $-1 $357 $89 #
coedge $-1 $226 $226 $358 $359 reversed $142 $-1 #
face $-1 $360 $361 $54 $-1 $362 reversed single #
loop $-1 $-1 $363 $144 #
plane-surface $-1 0 -40.907785236561175 0 0 1 0 0 0 1 forward_v I I I I #
coedge $-1 $364 $365 $366 $367 forward $145 $-1 #
coedge $-1 $368 $147 $369 $370 forward $91 $-1 #
coedge $-1 $147 $368 $371 $372 forward $91 $-1 #
coedge $-1 $373 $374 $147 $234 reversed $375 $-1 #
edge $-1 $376 -40.907785236561175 $377 40.907785236561175 $233 $378 forward 7 unknown #
face $-1 $379 $380 $55 $-1 $381 reversed single #
loop $-1 $-1 $382 $148 #
plane-surface $-1 -53.675776664239621 -11.693539209945516 0 -1 0 0 0 0 1 forward_v I I I I #
coedge $-1 $383 $384 $385 $386 forward $149 $-1 #
coedge $-1 $387 $151 $388 $389 reversed $94 $-1 #
coedge $-1 $151 $387 $390 $391 reversed $94 $-1 #
coedge $-1 $392 $393 $151 $242 forward $394 $-1 #
edge $-1 $395 -16.895076352057213 $396 16.895076352057213 $241 $397 forward 7 unknown #
face $-1 $398 $399 $56 $-1 $400 reversed single #
loop $-1 $-1 $401 $152 #
plane-surface $-1 -36.642273840070025 45.443676877939971 170.86546193554861 -1 0 0 0 0.54463904215088732 0.83867056331134215 forward_v I I I I #
coedge $-1 $402 $403 $404 $405 reversed $153 $-1 #
coedge $-1 $248 $155 $406 $407 reversed $97 $-1 #
coedge $-1 $155 $247 $402 $408 reversed $97 $-1 #
coedge $-1 $404 $409 $155 $250 forward $410 $-1 #
edge $-1 $411 -18.185946797591189 $412 -13.205901217129114 $249 $413 forward 7 unknown #
loop $-1 $-1 $256 $156 #
plane-surface $-1 -45.159025252154819 -27.708525339771164 58.220950812902373 0 0.54463904215088732 0.83867056331134215 1 0 0 forward_v I I I I #
loop $-1 $-1 $414 $99 #
coedge $-1 $254 $254 $255 $415 reversed $157 $-1 #
coedge $-1 $255 $255 $254 $415 forward $159 $-1 #
coedge $-1 $256 $256 $160 $257 forward $251 $-1 #
edge $-1 $416 -2.0892196144505337e-015 $416 6.2831853071795987 $256 $417 forward 7 unknown #
loop $-1 $-1 $263 $161 #
plane-surface $-1 -45.159025252154819 -27.708525339771164 58.220950812902373 0 0.54463904215088732 0.83867056331134215 1 0 0 forward_v I I I I #
loop $-1 $-1 $418 $102 #
coedge $-1 $261 $261 $262 $419 reversed $162 $-1 #
coedge $-1 $262 $262 $261 $419 forward $164 $-1 #
coedge $-1 $263 $263 $165 $264 forward $258 $-1 #
edge $-1 $420 -2.0892196144505337e-015 $420 6.2831853071795987 $263 $421 forward 7 unknown #
loop $-1 $-1 $270 $166 #
plane-surface $-1 -45.159025252154819 -27.708525339771164 58.220950812902373 0 0.54463904215088732 0.83867056331134215 1 0 0 forward_v I I I I #
loop $-1 $-1 $422 $105 #
coedge $-1 $268 $268 $269 $423 reversed $167 $-1 #
coedge $-1 $269 $269 $268 $423 forward $169 $-1 #
coedge $-1 $270 $270 $170 $271 forward $265 $-1 #
edge $-1 $424 -2.0892196144505337e-015 $424 6.2831853071795987 $270 $425 forward 7 unknown #
face $-1 $426 $427 $60 $-1 $428 forward single #
loop $-1 $-1 $429 $171 #
plane-surface $-1 -46.951593758509446 -116.01476383930546 122.00340921608206 1 0 0 0 0.55919291073839883 -0.82903756765294845 forward_v I I I I #
coedge $-1 $430 $431 $432 $433 reversed $172 $-1 #
coedge $-1 $277 $174 $434 $435 reversed $109 $-1 #
coedge $-1 $174 $276 $430 $436 reversed $109 $-1 #
coedge $-1 $432 $437 $174 $279 forward $427 $-1 #
edge $-1 $438 17.099596683091555 $439 26.354246099383701 $278 $440 forward 7 unknown #
loop $-1 $-1 $285 $175 #
plane-surface $-1 -37.194371815094883 -40.907785236561153 10.652736382336769 0 -0.55919291073839883 0.82903756765294845 1 0 0 forward_v I I I I #
loop $-1 $-1 $441 $111 #
coedge $-1 $283 $283 $284 $442 reversed $176 $-1 #
coedge $-1 $284 $284 $283 $442 forward $178 $-1 #
coedge $-1 $285 $285 $179 $286 forward $280 $-1 #
edge $-1 $443 -1.8942647090346043e-015 $443 6.2831853071795987 $285 $444 forward 7 unknown #
loop $-1 $-1 $292 $180 #
plane-surface $-1 -37.194371815094883 -40.907785236561153 10.652736382336769 0 -0.55919291073839883 0.82903756765294845 1 0 0 forward_v I I I I #
loop $-1 $-1 $445 $114 #
coedge $-1 $290 $290 $291 $446 reversed $181 $-1 #
coedge $-1 $291 $291 $290 $446 forward $183 $-1 #
coedge $-1 $292 $292 $184 $293 forward $287 $-1 #
edge $-1 $447 -1.8942647090346043e-015 $447 6.2831853071795987 $292 $448 forward 7 unknown #
face $-1 $449 $450 $63 $-1 $451 reversed single #
loop $-1 $-1 $452 $185 #
plane-surface $-1 -17.661741279152281 -116.01476383930546 122.00340921608206 1 0 0 0 0.55919291073839883 -0.82903756765294845 forward_v I I I I #
coedge $-1 $453 $454 $455 $456 reversed $186 $-1 #
coedge $-1 $299 $188 $457 $458 reversed $118 $-1 #
coedge $-1 $188 $298 $453 $459 reversed $118 $-1 #
coedge $-1 $455 $460 $188 $301 forward $461 $-1 #
edge $-1 $462 17.099596683091555 $463 26.354246099383701 $300 $464 forward 7 unknown #
loop $-1 $-1 $307 $189 #
plane-surface $-1 -7.9045193357377173 -40.907785236561153 10.652736382336769 0 -0.55919291073839883 0.82903756765294845 1 0 0 forward_v I I I I #
loop $-1 $-1 $465 $120 #
coedge $-1 $305 $305 $306 $466 reversed $190 $-1 #
coedge $-1 $306 $306 $305 $466 forward $192 $-1 #
coedge $-1 $307 $307 $193 $308 forward $302 $-1 #
edge $-1 $467 -1.8942647090346043e-015 $467 6.2831853071795987 $307 $468 forward 7 unknown #
loop $-1 $-1 $314 $194 #
plane-surface $-1 -7.9045193357377173 -40.907785236561153 10.652736382336769 0 -0.55919291073839883 0.82903756765294845 1 0 0 forward_v I I I I #
loop $-1 $-1 $469 $123 #
coedge $-1 $312 $312 $313 $470 reversed $195 $-1 #
coedge $-1 $313 $313 $312 $470 forward $197 $-1 #
coedge $-1 $314 $314 $198 $315 forward $309 $-1 #
edge $-1 $471 -1.8942647090346043e-015 $471 6.2831853071795987 $314 $472 forward 7 unknown #
face $-1 $473 $474 $66 $-1 $475 reversed single #
loop $-1 $-1 $476 $199 #
plane-surface $-1 11.628111200204883 -116.01476383930546 122.00340921608206 1 0 0 0 0.55919291073839883 -0.82903756765294845 forward_v I I I I #
coedge $-1 $477 $478 $479 $480 reversed $200 $-1 #
coedge $-1 $321 $202 $481 $482 reversed $127 $-1 #
coedge $-1 $202 $320 $477 $483 reversed $127 $-1 #
coedge $-1 $479 $484 $202 $323 forward $485 $-1 #
edge $-1 $486 17.099596683091555 $487 26.354246099383701 $322 $488 forward 7 unknown #
loop $-1 $-1 $329 $203 #
plane-surface $-1 21.385333143619448 -40.907785236561153 10.652736382336769 0 -0.55919291073839883 0.82903756765294845 1 0 0 forward_v I I I I #
loop $-1 $-1 $489 $129 #
coedge $-1 $327 $327 $328 $490 reversed $204 $-1 #
coedge $-1 $328 $328 $327 $490 forward $206 $-1 #
coedge $-1 $329 $329 $207 $330 forward $324 $-1 #
edge $-1 $491 -1.8942647090346043e-015 $491 6.2831853071795987 $329 $492 forward 7 unknown #
loop $-1 $-1 $336 $208 #
plane-surface $-1 21.385333143619448 -40.907785236561153 10.652736382336769 0 -0.55919291073839883 0.82903756765294845 1 0 0 forward_v I I I I #
loop $-1 $-1 $493 $132 #
coedge $-1 $334 $334 $335 $494 reversed $209 $-1 #
coedge $-1 $335 $335 $334 $494 forward $211 $-1 #
coedge $-1 $336 $336 $212 $337 forward $331 $-1 #
edge $-1 $495 -1.8942647090346043e-015 $495 6.2831853071795987 $336 $496 forward 7 unknown #
face $-1 $497 $498 $69 $-1 $499 reversed single #
loop $-1 $-1 $500 $213 #
plane-surface $-1 40.91796367956205 -116.01476383930546 122.00340921608206 1 0 0 0 0.55919291073839883 -0.82903756765294845 forward_v I I I I #
coedge $-1 $501 $502 $503 $504 reversed $214 $-1 #
coedge $-1 $343 $216 $505 $506 reversed $136 $-1 #
coedge $-1 $216 $342 $501 $507 reversed $136 $-1 #
coedge $-1 $503 $508 $216 $345 forward $509 $-1 #
edge $-1 $510 17.099596683091555 $511 26.354246099383701 $344 $512 forward 7 unknown #
loop $-1 $-1 $351 $217 #
plane-surface $-1 50.675185622976613 -40.907785236561153 10.652736382336769 0 -0.55919291073839883 0.82903756765294845 1 0 0 forward_v I I I I #
loop $-1 $-1 $513 $138 #
coedge $-1 $349 $349 $350 $514 reversed $218 $-1 #
coedge $-1 $350 $350 $349 $514 forward $220 $-1 #
coedge $-1 $351 $351 $221 $352 forward $346 $-1 #
edge $-1 $515 -1.8942647090346043e-015 $515 6.2831853071795987 $351 $516 forward 7 unknown #
loop $-1 $-1 $358 $222 #
plane-surface $-1 50.675185622976613 -40.907785236561153 10.652736382336769 0 -0.55919291073839883 0.82903756765294845 1 0 0 forward_v I I I I #
loop $-1 $-1 $517 $141 #
coedge $-1 $356 $356 $357 $518 reversed $223 $-1 #
coedge $-1 $357 $357 $356 $518 forward $225 $-1 #
coedge $-1 $358 $358 $226 $359 forward $353 $-1 #
edge $-1 $519 -1.8942647090346043e-015 $519 6.2831853071795987 $358 $520 forward 7 unknown #
face $-1 $521 $522 $54 $-1 $523 reversed single #
loop $-1 $-1 $524 $227 #
plane-surface $-1 -67.156590472121337 0 0 1 0 0 0 0 -1 forward_v I I I I #
coedge $-1 $525 $371 $526 $527 forward $228 $-1 #
coedge $-1 $528 $230 $525 $529 forward $145 $-1 #
coedge $-1 $230 $528 $530 $531 forward $145 $-1 #
coedge $-1 $374 $373 $230 $367 reversed $375 $-1 #
edge $-1 $532 -40.907785236561175 $533 40.907785236561175 $366 $534 forward 7 unknown #
coedge $-1 $232 $231 $535 $536 forward $91 $-1 #
coedge $-1 $537 $538 $231 $370 reversed $522 $-1 #
edge $-1 $377 -67.156590472121337 $539 67.156590472121337 $369 $540 forward 7 unknown #
coedge $-1 $363 $541 $232 $372 reversed $228 $-1 #
edge $-1 $542 -67.156590472121337 $376 67.156590472121337 $371 $543 forward 7 unknown #
coedge $-1 $366 $233 $541 $544 forward $375 $-1 #
coedge $-1 $233 $366 $537 $545 reversed $375 $-1 #
loop $-1 $-1 $373 $521 #
vertex $-1 $234 $546 #
vertex $-1 $234 $547 #
straight-curve $-1 67.156590472121337 0 16.895076352057213 0 1 0 I I #
face $-1 $548 $549 $55 $-1 $550 forward single #
loop $-1 $-1 $551 $235 #
plane-surface $-1 0 0 -16.895076352057213 0 0 1 1 0 0 forward_v I I I I #
coedge $-1 $552 $553 $387 $554 forward $236 $-1 #
coedge $-1 $555 $238 $551 $556 reversed $149 $-1 #
coedge $-1 $238 $555 $557 $558 reversed $149 $-1 #
coedge $-1 $553 $552 $238 $386 reversed $236 $-1 #
edge $-1 $559 -16.895076352057213 $560 16.895076352057213 $385 $561 forward 7 unknown #
coedge $-1 $240 $239 $382 $554 reversed $94 $-1 #
coedge $-1 $562 $563 $239 $389 forward $380 $-1 #
edge $-1 $564 23.467684880149381 $395 36.948498688031094 $388 $565 forward 7 unknown #
coedge $-1 $566 $567 $240 $391 forward $549 $-1 #
edge $-1 $396 -36.948498688031094 $568 -23.467684880149381 $390 $569 forward 7 unknown #
coedge $-1 $570 $241 $567 $571 reversed $394 $-1 #
coedge $-1 $241 $570 $562 $572 reversed $394 $-1 #
loop $-1 $-1 $570 $548 #
vertex $-1 $572 $573 #
vertex $-1 $242 $574 #
straight-curve $-1 -67.156590472121337 -16.269445887444284 0 0 0 1 I I #
face $-1 $-1 $410 $56 $-1 $575 forward single #
loop $-1 $-1 $576 $243 #
plane-surface $-1 0 40.907785236561175 0 0 -1 0 0 0 -1 forward_v I I I I #
coedge $-1 $577 $578 $579 $580 reversed $244 $-1 #
coedge $-1 $581 $246 $248 $408 forward $153 $-1 #
coedge $-1 $246 $581 $577 $582 forward $153 $-1 #
coedge $-1 $579 $249 $246 $405 forward $410 $-1 #
edge $-1 $412 -31.096264038162204 $583 -14.062761213992616 $404 $584 forward 7 unknown #
coedge $-1 $585 $586 $247 $407 forward $399 $-1 #
edge $-1 $587 -71.771734090381699 $411 -68.537654615717088 $406 $588 forward 7 unknown #
edge $-1 $412 75.877546893518883 $587 81.815570473122364 $248 $589 forward 7 unknown #
coedge $-1 $249 $579 $585 $590 forward $410 $-1 #
loop $-1 $-1 $579 $398 #
vertex $-1 $407 $591 #
vertex $-1 $250 $592 #
straight-curve $-1 -53.675776664239613 22.721838438969986 16.895076352057217 0 -1 0 I I #
coedge $-1 $414 $414 $-1 $593 reversed $253 $-1 #
edge $-1 $594 0 $594 6.2831853071796004 $254 $595 forward 7 unknown #
vertex $-1 $257 $596 #
ellipse-curve $-1 -50.269076099405694 38.41776244633013 15.278036614724922 0 0.54463904215088732 0.83867056331134215 1 0 0 1 I I #
coedge $-1 $418 $418 $-1 $597 reversed $260 $-1 #
edge $-1 $598 0 $598 6.2831853071796004 $261 $599 forward 7 unknown #
vertex $-1 $264 $600 #
ellipse-curve $-1 -45.159025252154819 38.41776244633013 15.278036614724922 0 0.54463904215088732 0.83867056331134215 1 0 0 1 I I #
coedge $-1 $422 $422 $-1 $601 reversed $267 $-1 #
edge $-1 $602 0 $602 6.2831853071796004 $268 $603 forward 7 unknown #
vertex $-1 $271 $604 #
ellipse-curve $-1 -40.048974404903944 38.41776244633013 15.278036614724922 0 0.54463904215088732 0.83867056331134215 1 0 0 1 I I #
face $-1 $-1 $605 $60 $-1 $606 reversed single #
loop $-1 $-1 $278 $272 #
plane-surface $-1 0 0 16.895076352057213 0 0 1 1 0 0 forward_v I I I I #
coedge $-1 $607 $608 $609 $610 reversed $273 $-1 #
coedge $-1 $611 $275 $277 $436 forward $172 $-1 #
coedge $-1 $275 $611 $607 $612 forward $172 $-1 #
coedge $-1 $609 $278 $275 $433 forward $427 $-1 #
edge $-1 $439 8.8399639641328775 $613 28.354407850962005 $432 $614 forward 7 unknown #
coedge $-1 $615 $616 $276 $435 forward $605 $-1 #
edge $-1 $617 -50.348968225704276 $438 -44.106628255983821 $434 $618 forward 7 unknown #
edge $-1 $439 -11.163124299050226 $617 2.5618607853315064e-014 $277 $619 forward 7 unknown #
coedge $-1 $278 $609 $615 $620 forward $427 $-1 #
vertex $-1 $435 $621 #
vertex $-1 $279 $622 #
straight-curve $-1 -27.437149871680319 -58.00738191965273 16.895076352057217 0 1 0 I I #
coedge $-1 $441 $441 $-1 $623 reversed $282 $-1 #
edge $-1 $624 0 $624 6.2831853071796004 $283 $625 forward 7 unknown #
vertex $-1 $286 $626 #
ellipse-curve $-1 -41.376038362272553 -36.280460528415105 13.773906367196982 0 -0.55919291073839883 0.82903756765294845 1.5 0 0 1 I I #
coedge $-1 $445 $445 $-1 $627 reversed $289 $-1 #
edge $-1 $628 0 $628 6.2831853071796004 $290 $629 forward 7 unknown #
vertex $-1 $293 $630 #
ellipse-curve $-1 -33.012705267917212 -36.280460528415105 13.773906367196982 0 -0.55919291073839883 0.82903756765294845 1.5 0 0 1 I I #
face $-1 $-1 $461 $63 $-1 $631 forward single #
loop $-1 $-1 $632 $294 #
plane-surface $-1 0 -40.907785236561175 0 0 1 0 0 0 1 forward_v I I I I #
coedge $-1 $633 $634 $635 $636 reversed $295 $-1 #
coedge $-1 $637 $297 $299 $459 forward $186 $-1 #
coedge $-1 $297 $637 $633 $638 forward $186 $-1 #
coedge $-1 $635 $300 $297 $456 forward $461 $-1 #
edge $-1 $463 -5.8049622755457069 $639 13.709481611283422 $455 $640 forward 7 unknown #
coedge $-1 $641 $642 $298 $458 forward $450 $-1 #
edge $-1 $643 -50.348968225704276 $462 -44.106628255983821 $457 $644 forward 7 unknown #
edge $-1 $463 -11.163124299050226 $643 2.5618607853315064e-014 $299 $645 forward 7 unknown #
coedge $-1 $300 $635 $641 $646 forward $461 $-1 #
loop $-1 $-1 $635 $449 #
vertex $-1 $458 $647 #
vertex $-1 $301 $648 #
straight-curve $-1 1.8527026076768482 -58.00738191965273 16.895076352057217 0 1 0 I I #
coedge $-1 $465 $465 $-1 $649 reversed $304 $-1 #
edge $-1 $650 0 $650 6.2831853071796004 $305 $651 forward 7 unknown #
vertex $-1 $308 $652 #
ellipse-curve $-1 -12.086185882915387 -36.280460528415105 13.773906367196982 0 -0.55919291073839883 0.82903756765294845 1.5 0 0 1 I I #
coedge $-1 $469 $469 $-1 $653 reversed $311 $-1 #
edge $-1 $654 0 $654 6.2831853071796004 $312 $655 forward 7 unknown #
vertex $-1 $315 $656 #
ellipse-curve $-1 -3.7228527885600471 -36.280460528415105 13.773906367196982 0 -0.55919291073839883 0.82903756765294845 1.5 0 0 1 I I #
face $-1 $-1 $485 $66 $-1 $657 forward single #
loop $-1 $-1 $658 $316 #
plane-surface $-1 0 -40.907785236561175 0 0 1 0 0 0 1 forward_v I I I I #
coedge $-1 $659 $660 $661 $662 reversed $317 $-1 #
coedge $-1 $663 $319 $321 $483 forward $200 $-1 #
coedge $-1 $319 $663 $659 $664 forward $200 $-1 #
coedge $-1 $661 $322 $319 $480 forward $485 $-1 #
edge $-1 $487 -20.449888515224288 $665 -0.93544462839515852 $479 $666 forward 7 unknown #
coedge $-1 $667 $668 $320 $482 forward $474 $-1 #
edge $-1 $669 -50.348968225704276 $486 -44.106628255983821 $481 $670 forward 7 unknown #
edge $-1 $487 -11.163124299050226 $669 2.5618607853315064e-014 $321 $671 forward 7 unknown #
coedge $-1 $322 $661 $667 $672 forward $485 $-1 #
loop $-1 $-1 $661 $473 #
vertex $-1 $482 $673 #
vertex $-1 $323 $674 #
straight-curve $-1 31.142555087034012 -58.00738191965273 16.895076352057217 0 1 0 I I #
coedge $-1 $489 $489 $-1 $675 reversed $326 $-1 #
edge $-1 $676 0 $676 6.2831853071796004 $327 $677 forward 7 unknown #
vertex $-1 $330 $678 #
ellipse-curve $-1 17.203666596441778 -36.280460528415105 13.773906367196982 0 -0.55919291073839883 0.82903756765294845 1.5 0 0 1 I I #
coedge $-1 $493 $493 $-1 $679 reversed $333 $-1 #
edge $-1 $680 0 $680 6.2831853071796004 $334 $681 forward 7 unknown #
vertex $-1 $337 $682 #
ellipse-curve $-1 25.566999690797118 -36.280460528415105 13.773906367196982 0 -0.55919291073839883 0.82903756765294845 1.5 0 0 1 I I #
face $-1 $-1 $509 $69 $-1 $683 forward single #
loop $-1 $-1 $684 $338 #
plane-surface $-1 0 -40.907785236561175 0 0 1 0 0 0 1 forward_v I I I I #
coedge $-1 $685 $686 $687 $688 reversed $339 $-1 #
coedge $-1 $689 $341 $343 $507 forward $214 $-1 #
coedge $-1 $341 $689 $685 $690 forward $214 $-1 #
coedge $-1 $687 $344 $341 $504 forward $509 $-1 #
edge $-1 $511 -35.09481475490287 $691 -15.580370868073743 $503 $692 forward 7 unknown #
coedge $-1 $693 $694 $342 $506 forward $498 $-1 #
edge $-1 $695 -50.348968225704276 $510 -44.106628255983821 $505 $696 forward 7 unknown #
edge $-1 $511 -11.163124299050226 $695 2.5618607853315064e-014 $343 $697 forward 7 unknown #
coedge $-1 $344 $687 $693 $698 forward $509 $-1 #
loop $-1 $-1 $687 $497 #
vertex $-1 $506 $699 #
vertex $-1 $345 $700 #
straight-curve $-1 60.432407566391177 -58.00738191965273 16.895076352057217 0 1 0 I I #
coedge $-1 $513 $513 $-1 $701 reversed $348 $-1 #
edge $-1 $702 0 $702 6.2831853071796004 $349 $703 forward 7 unknown #
vertex $-1 $352 $704 #
ellipse-curve $-1 46.493519075798943 -36.280460528415105 13.773906367196982 0 -0.55919291073839883 0.82903756765294845 1.5 0 0 1 I I #
coedge $-1 $517 $517 $-1 $705 reversed $355 $-1 #
edge $-1 $706 0 $706 6.2831853071796004 $356 $707 forward 7 unknown #
vertex $-1 $359 $708 #
ellipse-curve $-1 54.856852170154283 -36.280460528415105 13.773906367196982 0 -0.55919291073839883 0.82903756765294845 1.5 0 0 1 I I #
face $-1 $-1 $375 $54 $-1 $709 reversed single #
loop $-1 $-1 $537 $360 #
plane-surface $-1 0 40.907785236561175 0 0 -1 0 0 0 -1 forward_v I I I I #
coedge $-1 $710 $535 $538 $711 forward $361 $-1 #
coedge $-1 $541 $363 $364 $529 reversed $228 $-1 #
coedge $-1 $535 $710 $363 $527 reversed $361 $-1 #
edge $-1 $542 -16.895076352057213 $712 16.895076352057213 $526 $713 forward 7 unknown #
coedge $-1 $365 $364 $710 $714 forward $145 $-1 #
edge $-1 $533 -67.156590472121337 $712 67.156590472121337 $525 $715 forward 7 unknown #
coedge $-1 $538 $537 $365 $531 reversed $522 $-1 #
edge $-1 $716 -67.156590472121337 $532 67.156590472121337 $530 $717 forward 7 unknown #
vertex $-1 $367 $718 #
vertex $-1 $544 $719 #
straight-curve $-1 67.156590472121337 0 -16.895076352057213 0 -1 0 I I #
coedge $-1 $524 $526 $368 $536 reversed $361 $-1 #
edge $-1 $539 -40.907785236561175 $542 40.907785236561175 $535 $720 forward 7 unknown #
coedge $-1 $530 $369 $374 $545 forward $522 $-1 #
coedge $-1 $369 $530 $524 $711 reversed $522 $-1 #
vertex $-1 $370 $721 #
straight-curve $-1 0 40.907785236561175 16.895076352057213 -1 0 0 I I #
coedge $-1 $371 $525 $373 $544 reversed $228 $-1 #
vertex $-1 $536 $722 #
straight-curve $-1 0 -40.907785236561175 16.895076352057213 1 0 0 I I #
edge $-1 $376 -16.895076352057213 $533 16.895076352057213 $373 $723 forward 7 unknown #
edge $-1 $377 -16.895076352057213 $532 16.895076352057213 $374 $724 forward 7 unknown #
point $-1 67.156590472121337 -40.907785236561175 16.895076352057213 #
point $-1 67.156590472121337 40.907785236561175 16.895076352057213 #
face $-1 $-1 $394 $55 $-1 $725 reversed single #
loop $-1 $-1 $557 $379 #
plane-surface $-1 0 0 16.895076352057213 0 0 1 1 0 0 forward_v I I I I #
coedge $-1 $563 $562 $383 $556 forward $380 $-1 #
coedge $-1 $385 $382 $563 $726 reversed $236 $-1 #
coedge $-1 $382 $385 $566 $727 reversed $236 $-1 #
edge $-1 $568 -16.895076352057213 $564 16.895076352057213 $382 $728 forward 7 unknown #
coedge $-1 $384 $383 $570 $729 reversed $149 $-1 #
edge $-1 $730 -36.948498688031094 $560 -23.467684880149381 $551 $731 forward 7 unknown #
coedge $-1 $567 $566 $384 $558 forward $549 $-1 #
edge $-1 $559 23.467684880149381 $732 36.948498688031094 $557 $733 forward 7 unknown #
vertex $-1 $558 $734 #
vertex $-1 $556 $735 #
straight-curve $-1 -53.675776664239621 -7.1176325324467484 0 0 0 -1 I I #
coedge $-1 $551 $388 $393 $572 forward $380 $-1 #
coedge $-1 $388 $551 $552 $726 forward $380 $-1 #
vertex $-1 $389 $736 #
straight-curve $-1 -30.208091784090239 -16.269445887444284 -16.895076352057213 -1 0 0 I I #
coedge $-1 $557 $390 $553 $727 forward $549 $-1 #
coedge $-1 $390 $557 $392 $571 forward $549 $-1 #
vertex $-1 $391 $737 #
straight-curve $-1 -30.208091784090239 -16.269445887444284 16.895076352057213 1 0 0 I I #
coedge $-1 $393 $392 $555 $729 forward $394 $-1 #
edge $-1 $732 7.1176325324467484 $396 16.269445887444284 $392 $738 forward 7 unknown #
edge $-1 $395 -16.269445887444284 $730 -7.1176325324467484 $393 $739 forward 7 unknown #
point $-1 -67.156590472121337 -16.269445887444284 -16.895076352057213 #
point $-1 -67.156590472121337 -16.269445887444284 16.895076352057213 #
plane-surface $-1 0 0 16.895076352057213 0 0 1 1 0 0 forward_v I I I I #
coedge $-1 $586 $585 $578 $740 forward $399 $-1 #
coedge $-1 $578 $401 $403 $582 reversed $244 $-1 #
coedge $-1 $401 $577 $576 $740 reversed $244 $-1 #
coedge $-1 $409 $404 $401 $580 forward $410 $-1 #
edge $-1 $583 13.205901217129114 $741 18.185946797591189 $579 $742 forward 7 unknown #
coedge $-1 $403 $402 $586 $743 reversed $153 $-1 #
edge $-1 $744 -81.815570473122364 $583 -75.877546893518883 $577 $745 forward 7 unknown #
vertex $-1 $405 $746 #
straight-curve $-1 -22.57951262607741 35.927739656099099 16.895076352057213 1 0 0 I I #
coedge $-1 $576 $406 $409 $590 reversed $399 $-1 #
coedge $-1 $406 $576 $581 $743 forward $399 $-1 #
vertex $-1 $407 $747 #
straight-curve $-1 -53.675776664239613 40.907785236561175 85.432730967774305 0 0 1 I I #
straight-curve $-1 -53.675776664239613 -27.708525339771164 58.220950812902373 0 0.83867056331134215 -0.54463904215088732 I I #
edge $-1 $741 36.642273840070025 $411 53.675776664239613 $585 $748 forward 7 unknown #
point $-1 -53.675776664239613 40.907785236561175 16.895076352057213 #
point $-1 -53.675776664239613 35.927739656099099 16.895076352057217 #
edge $-1 $749 1 $749 0 $414 $-1 forward 7 unknown #
vertex $-1 $415 $750 #
ellipse-curve $-1 -50.269076099405694 37.435660256794087 13.765731890343252 0 0.54463904215088732 0.83867056331134215 1 0 0 1 I I #
point $-1 -49.269076099405694 38.417762446330123 15.278036614724915 #
edge $-1 $751 1 $751 0 $418 $-1 forward 7 unknown #
vertex $-1 $419 $752 #
ellipse-curve $-1 -45.159025252154819 37.435660256794087 13.765731890343252 0 0.54463904215088732 0.83867056331134215 1 0 0 1 I I #
point $-1 -44.159025252154819 38.417762446330123 15.278036614724915 #
edge $-1 $753 1 $753 0 $422 $-1 forward 7 unknown #
vertex $-1 $423 $754 #
ellipse-curve $-1 -40.048974404903944 37.435660256794087 13.765731890343252 0 0.54463904215088732 0.83867056331134215 1 0 0 1 I I #
point $-1 -39.048974404903944 38.417762446330123 15.278036614724915 #
loop $-1 $-1 $434 $426 #
plane-surface $-1 0 -40.907785236561175 0 0 1 0 0 0 1 forward_v I I I I #
coedge $-1 $608 $429 $431 $612 reversed $273 $-1 #
coedge $-1 $429 $607 $755 $756 reversed $273 $-1 #
coedge $-1 $437 $432 $429 $610 forward $427 $-1 #
edge $-1 $613 -26.354246099383701 $757 -17.099596683091555 $609 $758 forward 7 unknown #
coedge $-1 $431 $430 $616 $759 reversed $172 $-1 #
edge $-1 $760 -2.5618607853315064e-014 $613 11.163124299050226 $607 $761 forward 7 unknown #
vertex $-1 $433 $762 #
straight-curve $-1 -18.597185907547441 -31.653135820269032 16.895076352057213 -1 0 0 I I #
coedge $-1 $755 $434 $437 $620 reversed $605 $-1 #
coedge $-1 $434 $755 $611 $759 forward $605 $-1 #
vertex $-1 $435 $763 #
straight-curve $-1 -27.437149871680319 -40.907785236561175 61.001704608041031 0 0 1 I I #
straight-curve $-1 -27.437149871680319 -40.907785236561153 10.652736382336769 0 -0.82903756765294845 -0.55919291073839883 I I #
edge $-1 $757 -46.951593758509446 $438 -27.437149871680319 $615 $764 forward 7 unknown #
point $-1 -27.437149871680319 -40.907785236561175 16.895076352057213 #
point $-1 -27.437149871680319 -31.653135820269028 16.895076352057213 #
edge $-1 $765 1 $765 0 $441 $-1 forward 7 unknown #
vertex $-1 $442 $766 #
ellipse-curve $-1 -41.376038362272553 -33.385309927870757 9.4816691700285123 0 -0.55919291073839883 0.82903756765294845 1.5 0 0 1 I I #
point $-1 -39.876038362272553 -36.280460528415119 13.773906367196998 #
edge $-1 $767 1 $767 0 $445 $-1 forward 7 unknown #
vertex $-1 $446 $768 #
ellipse-curve $-1 -33.012705267917212 -33.385309927870757 9.4816691700285123 0 -0.55919291073839883 0.82903756765294845 1.5 0 0 1 I I #
point $-1 -31.512705267917212 -36.280460528415119 13.773906367196998 #
plane-surface $-1 0 0 16.895076352057213 0 0 1 1 0 0 forward_v I I I I #
coedge $-1 $642 $641 $634 $769 forward $450 $-1 #
coedge $-1 $634 $452 $454 $638 reversed $295 $-1 #
coedge $-1 $452 $633 $632 $769 reversed $295 $-1 #
coedge $-1 $460 $455 $452 $636 forward $461 $-1 #
edge $-1 $639 -26.354246099383701 $770 -17.099596683091555 $635 $771 forward 7 unknown #
coedge $-1 $454 $453 $642 $772 reversed $186 $-1 #
edge $-1 $773 -2.5618607853315064e-014 $639 11.163124299050226 $633 $774 forward 7 unknown #
vertex $-1 $456 $775 #
straight-curve $-1 -3.9522596678688586 -31.653135820269032 16.895076352057213 -1 0 0 I I #
coedge $-1 $632 $457 $460 $646 reversed $450 $-1 #
coedge $-1 $457 $632 $637 $772 forward $450 $-1 #
vertex $-1 $458 $776 #
straight-curve $-1 1.8527026076768482 -40.907785236561175 61.001704608041031 0 0 1 I I #
straight-curve $-1 1.8527026076768482 -40.907785236561153 10.652736382336769 0 -0.82903756765294845 -0.55919291073839883 I I #
edge $-1 $770 -17.661741279152281 $462 1.8527026076768482 $641 $777 forward 7 unknown #
point $-1 1.8527026076768482 -40.907785236561175 16.895076352057213 #
point $-1 1.8527026076768482 -31.653135820269028 16.895076352057213 #
edge $-1 $778 1 $778 0 $465 $-1 forward 7 unknown #
vertex $-1 $466 $779 #
ellipse-curve $-1 -12.086185882915387 -33.385309927870757 9.4816691700285123 0 -0.55919291073839883 0.82903756765294845 1.5 0 0 1 I I #
point $-1 -10.586185882915387 -36.280460528415119 13.773906367196998 #
edge $-1 $780 1 $780 0 $469 $-1 forward 7 unknown #
vertex $-1 $470 $781 #
ellipse-curve $-1 -3.7228527885600471 -33.385309927870757 9.4816691700285123 0 -0.55919291073839883 0.82903756765294845 1.5 0 0 1 I I #
point $-1 -2.2228527885600471 -36.280460528415119 13.773906367196998 #
plane-surface $-1 0 0 16.895076352057213 0 0 1 1 0 0 forward_v I I I I #
coedge $-1 $668 $667 $660 $782 forward $474 $-1 #
coedge $-1 $660 $476 $478 $664 reversed $317 $-1 #
coedge $-1 $476 $659 $658 $782 reversed $317 $-1 #
coedge $-1 $484 $479 $476 $662 forward $485 $-1 #
edge $-1 $665 -26.354246099383701 $783 -17.099596683091555 $661 $784 forward 7 unknown #
coedge $-1 $478 $477 $668 $785 reversed $200 $-1 #
edge $-1 $786 -2.5618607853315064e-014 $665 11.163124299050226 $659 $787 forward 7 unknown #
vertex $-1 $480 $788 #
straight-curve $-1 10.692666571809724 -31.653135820269032 16.895076352057213 -1 0 0 I I #
coedge $-1 $658 $481 $484 $672 reversed $474 $-1 #
coedge $-1 $481 $658 $663 $785 forward $474 $-1 #
vertex $-1 $482 $789 #
straight-curve $-1 31.142555087034012 -40.907785236561175 61.001704608041031 0 0 1 I I #
straight-curve $-1 31.142555087034012 -40.907785236561153 10.652736382336769 0 -0.82903756765294845 -0.55919291073839883 I I #
edge $-1 $783 11.628111200204883 $486 31.142555087034012 $667 $790 forward 7 unknown #
point $-1 31.142555087034012 -40.907785236561175 16.895076352057213 #
point $-1 31.142555087034012 -31.653135820269028 16.895076352057213 #
edge $-1 $791 1 $791 0 $489 $-1 forward 7 unknown #
vertex $-1 $490 $792 #
ellipse-curve $-1 17.203666596441778 -33.385309927870757 9.4816691700285123 0 -0.55919291073839883 0.82903756765294845 1.5 0 0 1 I I #
point $-1 18.703666596441778 -36.280460528415119 13.773906367196998 #
edge $-1 $793 1 $793 0 $493 $-1 forward 7 unknown #
vertex $-1 $494 $794 #
ellipse-curve $-1 25.566999690797118 -33.385309927870757 9.4816691700285123 0 -0.55919291073839883 0.82903756765294845 1.5 0 0 1 I I #
point $-1 27.066999690797118 -36.280460528415119 13.773906367196998 #
plane-surface $-1 0 0 16.895076352057213 0 0 1 1 0 0 forward_v I I I I #
coedge $-1 $694 $693 $686 $795 forward $498 $-1 #
coedge $-1 $686 $500 $502 $690 reversed $339 $-1 #
coedge $-1 $500 $685 $684 $795 reversed $339 $-1 #
coedge $-1 $508 $503 $500 $688 forward $509 $-1 #
edge $-1 $691 -26.354246099383701 $796 -17.099596683091555 $687 $797 forward 7 unknown #
coedge $-1 $502 $501 $694 $798 reversed $214 $-1 #
edge $-1 $799 -2.5618607853315064e-014 $691 11.163124299050226 $685 $800 forward 7 unknown #
vertex $-1 $504 $801 #
straight-curve $-1 25.337592811488307 -31.653135820269032 16.895076352057213 -1 0 0 I I #
coedge $-1 $684 $505 $508 $698 reversed $498 $-1 #
coedge $-1 $505 $684 $689 $798 forward $498 $-1 #
vertex $-1 $506 $802 #
straight-curve $-1 60.432407566391177 -40.907785236561175 61.001704608041031 0 0 1 I I #
straight-curve $-1 60.432407566391177 -40.907785236561153 10.652736382336769 0 -0.82903756765294845 -0.55919291073839883 I I #
edge $-1 $796 40.91796367956205 $510 60.432407566391177 $693 $803 forward 7 unknown #
point $-1 60.432407566391177 -40.907785236561175 16.895076352057213 #
point $-1 60.432407566391177 -31.653135820269028 16.895076352057213 #
edge $-1 $804 1 $804 0 $513 $-1 forward 7 unknown #
vertex $-1 $514 $805 #
ellipse-curve $-1 46.493519075798943 -33.385309927870757 9.4816691700285123 0 -0.55919291073839883 0.82903756765294845 1.5 0 0 1 I I #
point $-1 47.993519075798943 -36.280460528415119 13.773906367196998 #
edge $-1 $806 1 $806 0 $517 $-1 forward 7 unknown #
vertex $-1 $518 $807 #
ellipse-curve $-1 54.856852170154283 -33.385309927870757 9.4816691700285123 0 -0.55919291073839883 0.82903756765294845 1.5 0 0 1 I I #
point $-1 56.356852170154283 -36.280460528415119 13.773906367196998 #
plane-surface $-1 67.156590472121337 0 0 -1 0 0 0 0 1 forward_v I I I I #
coedge $-1 $526 $524 $528 $714 reversed $361 $-1 #
edge $-1 $539 -16.895076352057213 $716 16.895076352057213 $538 $808 forward 7 unknown #
vertex $-1 $714 $809 #
straight-curve $-1 -67.156590472121337 -40.907785236561175 0 0 0 -1 I I #
edge $-1 $712 -40.907785236561175 $716 40.907785236561175 $710 $810 forward 7 unknown #
straight-curve $-1 0 -40.907785236561175 -16.895076352057213 -1 0 0 I I #
vertex $-1 $531 $811 #
straight-curve $-1 0 40.907785236561175 -16.895076352057213 1 0 0 I I #
point $-1 67.156590472121337 40.907785236561175 -16.895076352057213 #
point $-1 67.156590472121337 -40.907785236561175 -16.895076352057213 #
straight-curve $-1 -67.156590472121337 0 16.895076352057213 0 -1 0 I I #
point $-1 -67.156590472121337 40.907785236561175 16.895076352057213 #
point $-1 -67.156590472121337 -40.907785236561175 16.895076352057213 #
straight-curve $-1 67.156590472121337 -40.907785236561175 0 0 0 -1 I I #
straight-curve $-1 67.156590472121337 40.907785236561175 0 0 0 -1 I I #
plane-surface $-1 -67.156590472121337 0 0 1 0 0 0 0 -1 forward_v I I I I #
edge $-1 $560 1.2708629274739902 $564 10.422676282471526 $563 $812 forward 7 unknown #
edge $-1 $568 -10.422676282471526 $559 -1.2708629274739902 $566 $813 forward 7 unknown #
straight-curve $-1 -53.675776664239621 -16.269445887444284 0 0 0 -1 I I #
edge $-1 $732 -16.895076352057213 $730 16.895076352057213 $570 $814 forward 7 unknown #
vertex $-1 $729 $815 #
straight-curve $-1 -30.208091784090239 -7.1176325324467484 -16.895076352057213 1 0 0 I I #
vertex $-1 $571 $816 #
straight-curve $-1 -30.208091784090239 -7.1176325324467484 16.895076352057213 -1 0 0 I I #
point $-1 -53.675776664239621 -7.1176325324467484 16.895076352057213 #
point $-1 -53.675776664239621 -7.1176325324467484 -16.895076352057213 #
point $-1 -53.675776664239621 -16.269445887444284 -16.895076352057213 #
point $-1 -53.675776664239621 -16.269445887444284 16.895076352057213 #
straight-curve $-1 -67.156590472121337 0 16.895076352057213 0 -1 0 I I #
straight-curve $-1 -67.156590472121337 0 -16.895076352057213 0 1 0 I I #
edge $-1 $741 68.537654615717088 $744 71.771734090381699 $576 $817 forward 7 unknown #
vertex $-1 $590 $818 #
straight-curve $-1 -36.642273840070025 22.721838438969986 16.895076352057217 0 1 0 I I #
edge $-1 $744 14.062761213992616 $587 31.096264038162204 $586 $819 forward 7 unknown #
vertex $-1 $743 $820 #
straight-curve $-1 -36.642273840070025 -27.708525339771164 58.220950812902373 0 -0.83867056331134215 0.54463904215088732 I I #
point $-1 -36.642273840070025 35.927739656099099 16.895076352057217 #
point $-1 -53.675776664239613 40.907785236561175 13.660996877392598 #
straight-curve $-1 0 40.907785236561175 16.895076352057213 -1 0 0 I I #
vertex $-1 $593 $821 #
point $-1 -49.269076099405694 37.435660256794087 13.765731890343252 #
vertex $-1 $597 $822 #
point $-1 -44.159025252154819 37.435660256794087 13.765731890343252 #
vertex $-1 $601 $823 #
point $-1 -39.048974404903944 37.435660256794087 13.765731890343252 #
coedge $-1 $616 $615 $608 $756 forward $605 $-1 #
edge $-1 $757 44.106628255983821 $760 50.348968225704276 $755 $824 forward 7 unknown #
vertex $-1 $620 $825 #
straight-curve $-1 -46.951593758509446 -58.00738191965273 16.895076352057217 0 -1 0 I I #
edge $-1 $760 -28.354407850962005 $617 -8.8399639641328775 $616 $826 forward 7 unknown #
vertex $-1 $759 $827 #
straight-curve $-1 -46.951593758509446 -40.907785236561153 10.652736382336769 0 0.82903756765294845 0.55919291073839883 I I #
point $-1 -46.951593758509446 -31.653135820269028 16.895076352057213 #
point $-1 -27.437149871680319 -40.907785236561175 10.652736382336755 #
straight-curve $-1 0 -40.907785236561175 16.895076352057213 1 0 0 I I #
vertex $-1 $623 $828 #
point $-1 -39.876038362272553 -33.385309927870757 9.4816691700285123 #
vertex $-1 $627 $829 #
point $-1 -31.512705267917212 -33.385309927870757 9.4816691700285123 #
edge $-1 $770 44.106628255983821 $773 50.348968225704276 $632 $830 forward 7 unknown #
vertex $-1 $646 $831 #
straight-curve $-1 -17.661741279152281 -58.00738191965273 16.895076352057217 0 -1 0 I I #
edge $-1 $773 -13.709481611283422 $643 5.8049622755457069 $642 $832 forward 7 unknown #
vertex $-1 $772 $833 #
straight-curve $-1 -17.661741279152281 -40.907785236561153 10.652736382336769 0 0.82903756765294845 0.55919291073839883 I I #
point $-1 -17.661741279152281 -31.653135820269028 16.895076352057213 #
point $-1 1.8527026076768482 -40.907785236561175 10.652736382336755 #
straight-curve $-1 0 -40.907785236561175 16.895076352057213 1 0 0 I I #
vertex $-1 $649 $834 #
point $-1 -10.586185882915387 -33.385309927870757 9.4816691700285123 #
vertex $-1 $653 $835 #
point $-1 -2.2228527885600471 -33.385309927870757 9.4816691700285123 #
edge $-1 $783 44.106628255983821 $786 50.348968225704276 $658 $836 forward 7 unknown #
vertex $-1 $672 $837 #
straight-curve $-1 11.628111200204883 -58.00738191965273 16.895076352057217 0 -1 0 I I #
edge $-1 $786 0.93544462839515852 $669 20.449888515224288 $668 $838 forward 7 unknown #
vertex $-1 $785 $839 #
straight-curve $-1 11.628111200204883 -40.907785236561153 10.652736382336769 0 0.82903756765294845 0.55919291073839883 I I #
point $-1 11.628111200204883 -31.653135820269028 16.895076352057213 #
point $-1 31.142555087034012 -40.907785236561175 10.652736382336755 #
straight-curve $-1 0 -40.907785236561175 16.895076352057213 1 0 0 I I #
vertex $-1 $675 $840 #
point $-1 18.703666596441778 -33.385309927870757 9.4816691700285123 #
vertex $-1 $679 $841 #
point $-1 27.066999690797118 -33.385309927870757 9.4816691700285123 #
edge $-1 $796 44.106628255983821 $799 50.348968225704276 $684 $842 forward 7 unknown #
vertex $-1 $698 $843 #
straight-curve $-1 40.91796367956205 -58.00738191965273 16.895076352057217 0 -1 0 I I #
edge $-1 $799 15.580370868073743 $695 35.09481475490287 $694 $844 forward 7 unknown #
vertex $-1 $798 $845 #
straight-curve $-1 40.91796367956205 -40.907785236561153 10.652736382336769 0 0.82903756765294845 0.55919291073839883 I I #
point $-1 40.91796367956205 -31.653135820269028 16.895076352057213 #
point $-1 60.432407566391177 -40.907785236561175 10.652736382336755 #
straight-curve $-1 0 -40.907785236561175 16.895076352057213 1 0 0 I I #
vertex $-1 $701 $846 #
point $-1 47.993519075798943 -33.385309927870757 9.4816691700285123 #
vertex $-1 $705 $847 #
point $-1 56.356852170154283 -33.385309927870757 9.4816691700285123 #
straight-curve $-1 -67.156590472121337 40.907785236561175 0 0 0 -1 I I #
point $-1 -67.156590472121337 -40.907785236561175 -16.895076352057213 #
straight-curve $-1 -67.156590472121337 0 -16.895076352057213 0 1 0 I I #
point $-1 -67.156590472121337 40.907785236561175 -16.895076352057213 #
straight-curve $-1 -53.675776664239621 -5.8467696049727582 -16.895076352057213 0 -1 0 I I #
straight-curve $-1 -53.675776664239621 -5.8467696049727582 16.895076352057213 0 1 0 I I #
straight-curve $-1 -67.156590472121337 -7.1176325324467484 0 0 0 -1 I I #
point $-1 -67.156590472121337 -7.1176325324467484 -16.895076352057213 #
point $-1 -67.156590472121337 -7.1176325324467484 16.895076352057213 #
straight-curve $-1 -36.642273840070025 40.907785236561175 85.432730967774305 0 0 -1 I I #
point $-1 -36.642273840070025 40.907785236561175 16.895076352057213 #
straight-curve $-1 -22.57951262607741 40.907785236561168 13.660996877392598 -1 0 0 I I #
point $-1 -36.642273840070025 40.907785236561175 13.660996877392598 #
point $-1 -50.269076099405694 36.891021214643196 12.927061327031909 #
point $-1 -45.159025252154819 36.891021214643196 12.927061327031909 #
point $-1 -40.048974404903944 36.891021214643196 12.927061327031909 #
straight-curve $-1 -46.951593758509446 -40.907785236561175 61.001704608041031 0 0 -1 I I #
point $-1 -46.951593758509446 -40.907785236561175 16.895076352057213 #
straight-curve $-1 -18.597185907547441 -40.907785236561175 10.652736382336755 1 0 0 I I #
point $-1 -46.951593758509446 -40.907785236561175 10.652736382336755 #
point $-1 -41.376038362272553 -32.546520561763153 8.2381128185490891 #
point $-1 -33.012705267917212 -32.546520561763153 8.2381128185490891 #
straight-curve $-1 -17.661741279152281 -40.907785236561175 61.001704608041031 0 0 -1 I I #
point $-1 -17.661741279152281 -40.907785236561175 16.895076352057213 #
straight-curve $-1 -3.9522596678688586 -40.907785236561175 10.652736382336755 1 0 0 I I #
point $-1 -17.661741279152281 -40.907785236561175 10.652736382336755 #
point $-1 -12.086185882915387 -32.546520561763153 8.2381128185490891 #
point $-1 -3.7228527885600471 -32.546520561763153 8.2381128185490891 #
straight-curve $-1 11.628111200204883 -40.907785236561175 61.001704608041031 0 0 -1 I I #
point $-1 11.628111200204883 -40.907785236561175 16.895076352057213 #
straight-curve $-1 10.692666571809724 -40.907785236561175 10.652736382336755 1 0 0 I I #
point $-1 11.628111200204883 -40.907785236561175 10.652736382336755 #
point $-1 17.203666596441778 -32.546520561763153 8.2381128185490891 #
point $-1 25.566999690797118 -32.546520561763153 8.2381128185490891 #
straight-curve $-1 40.91796367956205 -40.907785236561175 61.001704608041031 0 0 -1 I I #
point $-1 40.91796367956205 -40.907785236561175 16.895076352057213 #
straight-curve $-1 25.337592811488307 -40.907785236561175 10.652736382336755 1 0 0 I I #
point $-1 40.91796367956205 -40.907785236561175 10.652736382336755 #
point $-1 46.493519075798943 -32.546520561763153 8.2381128185490891 #
point $-1 54.856852170154283 -32.546520561763153 8.2381128185490891 #
End-of-ACIS-data 