500 0 9 0           
7 Unknown 11 ACIS 5.0 NT 24 Thu Mar 25 16:07:55 1999 
-1 9.9999999999999995e-007 1e-010 
body $-1 $9 $-1 $10 #
body $-1 $11 $-1 $12 #
body $-1 $13 $-1 $14 #
body $-1 $15 $-1 $16 #
body $-1 $17 $-1 $18 #
body $-1 $19 $-1 $20 #
body $-1 $21 $-1 $22 #
body $-1 $23 $-1 $24 #
body $-1 $25 $-1 $26 #
lump $-1 $-1 $27 $0 #
transform $-1 1 0 0 0 1 0 0 0 1 45.53361613818781 27.771378678550661 11.921512878581915 1 rotate no_reflect no_shear #
lump $-1 $-1 $28 $1 #
transform $-1 1 0 0 0 1 0 0 0 1 45.53361613818781 27.771378678550661 11.921512878581915 1 rotate no_reflect no_shear #
lump $-1 $-1 $29 $2 #
transform $-1 1 0 0 0 1 0 0 0 1 45.53361613818781 27.771378678550661 11.921512878581915 1 rotate no_reflect no_shear #
lump $-1 $-1 $30 $3 #
transform $-1 1 0 0 0 1 0 0 0 1 45.53361613818781 27.771378678550661 11.921512878581915 1 rotate no_reflect no_shear #
lump $-1 $-1 $31 $4 #
transform $-1 1 0 0 0 1 0 0 0 1 45.53361613818781 27.771378678550661 11.921512878581915 1 rotate no_reflect no_shear #
lump $-1 $-1 $32 $5 #
transform $-1 1 0 0 0 1 0 0 0 1 45.53361613818781 27.771378678550661 11.921512878581915 1 rotate no_reflect no_shear #
lump $-1 $-1 $33 $6 #
transform $-1 1 0 0 0 1 0 0 0 1 45.53361613818781 27.771378678550661 11.921512878581915 1 rotate no_reflect no_shear #
lump $-1 $-1 $34 $7 #
transform $-1 1 0 0 0 1 0 0 0 1 45.53361613818781 27.771378678550661 11.921512878581915 1 rotate no_reflect no_shear #
lump $-1 $-1 $35 $8 #
transform $-1 1 0 0 0 1 0 0 0 1 45.53361613818781 27.771378678550661 11.921512878581915 1 rotate no_reflect no_shear #
shell $-1 $-1 $-1 $36 $-1 $9 #
shell $-1 $-1 $-1 $37 $-1 $11 #
shell $-1 $-1 $-1 $38 $-1 $13 #
shell $-1 $-1 $-1 $39 $-1 $15 #
shell $-1 $-1 $-1 $40 $-1 $17 #
shell $-1 $-1 $-1 $41 $-1 $19 #
shell $-1 $-1 $-1 $42 $-1 $21 #
shell $-1 $-1 $-1 $43 $-1 $23 #
shell $-1 $-1 $-1 $44 $-1 $25 #
face $-1 $45 $46 $27 $-1 $47 reversed single #
face $-1 $48 $49 $28 $-1 $50 forward single #
face $-1 $51 $52 $29 $-1 $53 reversed single #
face $-1 $54 $55 $30 $-1 $56 forward single #
face $-1 $57 $58 $31 $-1 $59 forward single #
face $-1 $60 $61 $32 $-1 $62 forward single #
face $-1 $63 $64 $33 $-1 $65 reversed single #
face $-1 $66 $67 $34 $-1 $68 forward single #
face $-1 $69 $70 $35 $-1 $71 forward single #
face $-1 $72 $73 $27 $-1 $74 forward single #
loop $-1 $-1 $75 $36 #
plane-surface $-1 0 -27.771378678550661 0 0 1 0 0 0 1 forward_v I I I I #
face $-1 $76 $77 $28 $-1 $78 reversed single #
loop $-1 $-1 $79 $37 #
plane-surface $-1 0 -27.771378678550661 0 0 1 0 0 0 1 forward_v I I I I #
face $-1 $80 $81 $29 $-1 $82 reversed single #
loop $-1 $-1 $83 $38 #
plane-surface $-1 -102.84408307783926 4.4076592907514112 76.062489816655216 0 1 0 -0.62932039886446345 0 0.77714595512881146 forward_v I I I I #
face $-1 $84 $85 $30 $-1 $86 forward single #
loop $-1 $87 $88 $39 #
cone-surface $-1 -40.953562030345033 6.7973423690195602 8.006303788424491 0.62932039886446345 0 -0.77714595512881146 0.77714595512881146 0 0.62932039886446345 1 I I 0 1 1 forward I I I I #
face $-1 $89 $90 $31 $-1 $91 forward single #
loop $-1 $92 $93 $40 #
cone-surface $-1 -40.953562030345033 10.381866986421791 8.006303788424491 0.62932039886446345 0 -0.77714595512881146 0.77714595512881146 0 0.62932039886446345 1 I I 0 1 1 forward I I I I #
face $-1 $94 $95 $32 $-1 $96 forward single #
loop $-1 $97 $98 $41 #
cone-surface $-1 -40.953562030345033 13.966391603824022 8.006303788424491 0.62932039886446345 0 -0.77714595512881146 0.77714595512881146 0 0.62932039886446345 1 I I 0 1 1 forward I I I I #
face $-1 $99 $100 $33 $-1 $101 reversed single #
loop $-1 $-1 $102 $42 #
plane-surface $-1 14.376855463258345 15.349962917057173 125.67684120469909 0 -1 0 -0.51503808176128008 0 -0.85716729658548041 forward_v I I I I #
face $-1 $103 $104 $34 $-1 $105 forward single #
loop $-1 $106 $107 $43 #
cone-surface $-1 35.822428731060562 9.7636867826581337 5.6771502616115956 -0.51503808176128008 0 -0.85716729658548041 0.85716729658548041 0 -0.51503808176128008 1 I I 0 1 1 forward I I I I #
face $-1 $108 $109 $35 $-1 $110 forward single #
loop $-1 $111 $112 $44 #
cone-surface $-1 35.822428731060562 13.115452463297558 5.6771502616115956 -0.51503808176128008 0 -0.85716729658548041 0.85716729658548041 0 -0.51503808176128008 1 I I 0 1 1 forward I I I I #
face $-1 $113 $114 $27 $-1 $115 reversed single #
loop $-1 $-1 $116 $45 #
plane-surface $-1 0 0 11.921512878581915 0 0 1 1 0 0 forward_v I I I I #
coedge $-1 $117 $118 $119 $120 reversed $46 $-1 #
face $-1 $121 $122 $28 $-1 $123 reversed single #
loop $-1 $-1 $124 $48 #
plane-surface $-1 0 0 -11.921512878581915 0 0 1 1 0 0 forward_v I I I I #
coedge $-1 $125 $126 $127 $128 forward $49 $-1 #
face $-1 $129 $130 $29 $-1 $131 reversed single #
loop $-1 $-1 $132 $51 #
plane-surface $-1 -45.53361613818781 10.381866986421791 5.2899586082939578 -0.62932039886446345 0 0.77714595512881146 0.77714595512881146 0 0.62932039886446345 forward_v I I I I #
coedge $-1 $133 $134 $135 $136 reversed $52 $-1 #
face $-1 $-1 $137 $30 $-1 $138 forward single #
loop $-1 $139 $140 $54 #
cone-surface $-1 -40.15349139477582 6.7973423690195602 7.0182988558466377 0.62932039886446345 0 -0.77714595512881146 0.38857297756440573 0 0.31466019943223172 1 I I -0.70710678118654746 0.70710678118654746 0.5 forward I I I I #
loop $-1 $-1 $141 $39 #
coedge $-1 $88 $88 $142 $143 reversed $55 $-1 #
face $-1 $-1 $144 $31 $-1 $145 forward single #
loop $-1 $146 $147 $57 #
cone-surface $-1 -40.15349139477582 10.381866986421791 7.0182988558466377 0.62932039886446345 0 -0.77714595512881146 0.38857297756440573 0 0.31466019943223172 1 I I -0.70710678118654746 0.70710678118654746 0.5 forward I I I I #
loop $-1 $-1 $148 $40 #
coedge $-1 $93 $93 $149 $150 reversed $58 $-1 #
face $-1 $-1 $151 $32 $-1 $152 forward single #
loop $-1 $153 $154 $60 #
cone-surface $-1 -40.15349139477582 13.966391603824022 7.0182988558466377 0.62932039886446345 0 -0.77714595512881146 0.38857297756440573 0 0.31466019943223172 1 I I -0.70710678118654746 0.70710678118654746 0.5 forward I I I I #
loop $-1 $-1 $155 $41 #
coedge $-1 $98 $98 $156 $157 reversed $61 $-1 #
face $-1 $158 $159 $33 $-1 $160 reversed single #
loop $-1 $-1 $161 $63 #
plane-surface $-1 -32.526237159675084 11.439569622977842 47.616987906836187 0.51503808176128008 0 0.85716729658548041 0.85716729658548041 0 -0.51503808176128008 forward_v I I I I #
coedge $-1 $162 $163 $164 $165 reversed $64 $-1 #
face $-1 $-1 $166 $34 $-1 $167 forward single #
loop $-1 $168 $169 $66 #
cone-surface $-1 35.180026118627822 9.7636867826581337 4.6080127936881183 -0.51503808176128008 0 -0.85716729658548041 0.4285836482927402 0 -0.25751904088064004 1 I I -0.70710678118654746 0.70710678118654746 0.5 forward I I I I #
loop $-1 $-1 $170 $43 #
coedge $-1 $107 $107 $171 $172 reversed $67 $-1 #
face $-1 $-1 $173 $35 $-1 $174 forward single #
loop $-1 $175 $176 $69 #
cone-surface $-1 35.180026118627822 13.115452463297558 4.6080127936881183 -0.51503808176128008 0 -0.85716729658548041 0.4285836482927402 0 -0.25751904088064004 1 I I -0.70710678118654746 0.70710678118654746 0.5 forward I I I I #
loop $-1 $-1 $177 $44 #
coedge $-1 $112 $112 $178 $179 reversed $70 $-1 #
face $-1 $180 $181 $27 $-1 $182 reversed single #
loop $-1 $-1 $183 $72 #
plane-surface $-1 0 0 -11.921512878581915 0 0 1 1 0 0 forward_v I I I I #
coedge $-1 $184 $185 $186 $187 forward $73 $-1 #
coedge $-1 $188 $75 $189 $190 reversed $46 $-1 #
coedge $-1 $75 $188 $191 $192 forward $46 $-1 #
coedge $-1 $193 $183 $75 $120 forward $114 $-1 #
edge $-1 $194 -45.53361613818781 $195 45.53361613818781 $75 $196 forward 7 unknown #
face $-1 $197 $198 $28 $-1 $199 reversed single #
loop $-1 $-1 $200 $76 #
plane-surface $-1 -23.722381166583865 -39.988733684336466 0 0 1 0 0 0 1 forward_v I I I I #
coedge $-1 $201 $202 $126 $203 forward $77 $-1 #
coedge $-1 $204 $79 $205 $206 reversed $49 $-1 #
coedge $-1 $79 $204 $124 $203 reversed $49 $-1 #
coedge $-1 $207 $208 $79 $128 reversed $198 $-1 #
edge $-1 $209 -11.921512878581915 $210 11.921512878581915 $127 $211 forward 7 unknown #
face $-1 $212 $213 $29 $-1 $214 reversed single #
loop $-1 $-1 $215 $80 #
plane-surface $-1 -102.84408307783926 16.356074682092171 76.062489816655216 0 -1 0 0.62932039886446345 0 -0.77714595512881146 forward_v I I I I #
coedge $-1 $216 $217 $218 $219 reversed $81 $-1 #
coedge $-1 $134 $83 $220 $221 reversed $52 $-1 #
coedge $-1 $83 $133 $216 $222 reversed $52 $-1 #
coedge $-1 $218 $223 $83 $136 forward $224 $-1 #
edge $-1 $225 5.8884254007318191 $226 14.077712744143405 $135 $227 forward 7 unknown #
loop $-1 $-1 $142 $84 #
plane-surface $-1 -45.53361613818781 10.381866986421791 5.2899586082939578 -0.62932039886446345 0 0.77714595512881146 0.77714595512881146 0 0.62932039886446345 forward_v I I I I #
loop $-1 $-1 $228 $54 #
coedge $-1 $140 $140 $141 $229 reversed $85 $-1 #
coedge $-1 $141 $141 $140 $229 forward $87 $-1 #
coedge $-1 $142 $142 $88 $143 forward $137 $-1 #
edge $-1 $230 0 $230 6.2831853071796004 $142 $231 forward 7 unknown #
loop $-1 $-1 $149 $89 #
plane-surface $-1 -45.53361613818781 10.381866986421791 5.2899586082939578 -0.62932039886446345 0 0.77714595512881146 0.77714595512881146 0 0.62932039886446345 forward_v I I I I #
loop $-1 $-1 $232 $57 #
coedge $-1 $147 $147 $148 $233 reversed $90 $-1 #
coedge $-1 $148 $148 $147 $233 forward $92 $-1 #
coedge $-1 $149 $149 $93 $150 forward $144 $-1 #
edge $-1 $234 0 $234 6.2831853071796004 $149 $235 forward 7 unknown #
loop $-1 $-1 $156 $94 #
plane-surface $-1 -45.53361613818781 10.381866986421791 5.2899586082939578 -0.62932039886446345 0 0.77714595512881146 0.77714595512881146 0 0.62932039886446345 forward_v I I I I #
loop $-1 $-1 $236 $60 #
coedge $-1 $154 $154 $155 $237 reversed $95 $-1 #
coedge $-1 $155 $155 $154 $237 forward $97 $-1 #
coedge $-1 $156 $156 $98 $157 forward $151 $-1 #
edge $-1 $238 0 $238 6.2831853071796004 $156 $239 forward 7 unknown #
face $-1 $240 $241 $33 $-1 $242 forward single #
loop $-1 $-1 $243 $99 #
plane-surface $-1 14.376855463258345 7.5291763288985116 125.67684120469909 0 1 0 0.51503808176128008 0 0.85716729658548041 forward_v I I I I #
coedge $-1 $244 $245 $246 $247 reversed $100 $-1 #
coedge $-1 $163 $102 $248 $249 reversed $64 $-1 #
coedge $-1 $102 $162 $244 $250 reversed $64 $-1 #
coedge $-1 $246 $251 $102 $165 forward $241 $-1 #
edge $-1 $252 -38.345188406558634 $253 -19.692580735408317 $164 $254 forward 7 unknown #
loop $-1 $-1 $171 $103 #
plane-surface $-1 -32.526237159675084 11.439569622977842 47.616987906836187 0.51503808176128008 0 0.85716729658548041 0.85716729658548041 0 -0.51503808176128008 forward_v I I I I #
loop $-1 $-1 $255 $66 #
coedge $-1 $169 $169 $170 $256 reversed $104 $-1 #
coedge $-1 $170 $170 $169 $256 forward $106 $-1 #
coedge $-1 $171 $171 $107 $172 forward $166 $-1 #
edge $-1 $257 0 $257 6.2831853071796004 $171 $258 forward 7 unknown #
loop $-1 $-1 $178 $108 #
plane-surface $-1 -32.526237159675084 11.439569622977842 47.616987906836187 0.51503808176128008 0 0.85716729658548041 0.85716729658548041 0 -0.51503808176128008 forward_v I I I I #
loop $-1 $-1 $259 $69 #
coedge $-1 $176 $176 $177 $260 reversed $109 $-1 #
coedge $-1 $177 $177 $176 $260 forward $111 $-1 #
coedge $-1 $178 $178 $112 $179 forward $173 $-1 #
edge $-1 $261 0 $261 6.2831853071796004 $178 $262 forward 7 unknown #
face $-1 $263 $264 $27 $-1 $265 reversed single #
loop $-1 $-1 $266 $113 #
plane-surface $-1 -45.53361613818781 0 0 1 0 0 0 0 -1 forward_v I I I I #
coedge $-1 $119 $267 $268 $269 forward $114 $-1 #
coedge $-1 $270 $116 $271 $272 forward $73 $-1 #
coedge $-1 $116 $270 $188 $273 forward $73 $-1 #
coedge $-1 $189 $274 $116 $187 reversed $275 $-1 #
edge $-1 $276 -27.771378678550661 $277 27.771378678550661 $186 $278 forward 7 unknown #
coedge $-1 $118 $117 $185 $273 reversed $46 $-1 #
coedge $-1 $268 $186 $117 $190 forward $275 $-1 #
edge $-1 $276 -11.921512878581915 $194 11.921512878581915 $189 $279 forward 7 unknown #
coedge $-1 $280 $281 $118 $192 reversed $181 $-1 #
edge $-1 $282 -11.921512878581915 $195 11.921512878581915 $191 $283 forward 7 unknown #
coedge $-1 $267 $119 $281 $284 forward $114 $-1 #
vertex $-1 $190 $285 #
vertex $-1 $284 $286 #
straight-curve $-1 0 -27.771378678550661 -11.921512878581915 -1 0 0 I I #
face $-1 $287 $288 $28 $-1 $289 reversed single #
loop $-1 $-1 $127 $121 #
plane-surface $-1 -25.75417195214375 -33.880056181443564 0 1 0 0 0 0 -1 forward_v I I I I #
coedge $-1 $290 $291 $292 $293 forward $122 $-1 #
coedge $-1 $294 $124 $295 $296 forward $77 $-1 #
coedge $-1 $124 $294 $207 $297 forward $77 $-1 #
edge $-1 $209 -25.75417195214375 $298 -21.690590381023981 $124 $299 forward 7 unknown #
coedge $-1 $126 $125 $300 $301 forward $49 $-1 #
coedge $-1 $302 $303 $125 $206 forward $304 $-1 #
edge $-1 $305 21.690590381023981 $210 25.75417195214375 $205 $306 forward 7 unknown #
coedge $-1 $292 $127 $202 $297 reversed $198 $-1 #
coedge $-1 $127 $292 $302 $307 reversed $198 $-1 #
vertex $-1 $203 $308 #
vertex $-1 $307 $309 #
straight-curve $-1 -25.75417195214375 -27.771378678550661 0 0 0 1 I I #
face $-1 $-1 $224 $29 $-1 $310 forward single #
loop $-1 $-1 $311 $129 #
plane-surface $-1 -45.53361613818781 0 0 1 0 0 0 0 -1 forward_v I I I I #
coedge $-1 $312 $313 $314 $315 reversed $130 $-1 #
coedge $-1 $316 $132 $134 $222 forward $81 $-1 #
coedge $-1 $132 $316 $312 $317 forward $81 $-1 #
coedge $-1 $314 $135 $132 $219 forward $224 $-1 #
edge $-1 $226 -0.78327420245948431 $318 11.165141188881275 $218 $319 forward 7 unknown #
coedge $-1 $320 $321 $133 $221 forward $213 $-1 #
edge $-1 $322 -32.74128630003365 $225 -26.109732029745693 $220 $323 forward 7 unknown #
edge $-1 $226 -10.537643912788837 $322 0 $134 $324 forward 7 unknown #
coedge $-1 $135 $314 $320 $325 forward $224 $-1 #
loop $-1 $-1 $314 $212 #
vertex $-1 $221 $326 #
vertex $-1 $136 $327 #
straight-curve $-1 -51.422041538919629 4.4076592907514112 11.921512878581915 1 0 0 I I #
coedge $-1 $228 $228 $-1 $328 reversed $139 $-1 #
edge $-1 $329 0 $329 6.2831853071796004 $140 $330 forward 7 unknown #
vertex $-1 $143 $331 #
ellipse-curve $-1 -41.438972466482014 6.7973423690195602 8.605735743437938 -0.62932039886446345 0 0.77714595512881146 0.77714595512881146 0 0.62932039886446345 1 I I #
coedge $-1 $232 $232 $-1 $332 reversed $146 $-1 #
edge $-1 $333 0 $333 6.2831853071796004 $147 $334 forward 7 unknown #
vertex $-1 $150 $335 #
ellipse-curve $-1 -41.438972466482014 10.381866986421791 8.605735743437938 -0.62932039886446345 0 0.77714595512881146 0.77714595512881146 0 0.62932039886446345 1 I I #
coedge $-1 $236 $236 $-1 $336 reversed $153 $-1 #
edge $-1 $337 0 $337 6.2831853071796004 $154 $338 forward 7 unknown #
vertex $-1 $157 $339 #
ellipse-curve $-1 -41.438972466482014 13.966391603824022 8.605735743437938 -0.62932039886446345 0 0.77714595512881146 0.77714595512881146 0 0.62932039886446345 1 I I #
face $-1 $-1 $340 $33 $-1 $341 reversed single #
loop $-1 $-1 $164 $158 #
plane-surface $-1 0 0 11.921512878581915 0 0 1 1 0 0 forward_v I I I I #
coedge $-1 $342 $343 $344 $345 reversed $159 $-1 #
coedge $-1 $346 $161 $163 $250 forward $100 $-1 #
coedge $-1 $161 $346 $342 $347 forward $100 $-1 #
coedge $-1 $344 $164 $161 $247 forward $241 $-1 #
edge $-1 $253 -9.6301781055682518 $348 -1.8093915174095905 $246 $349 forward 7 unknown #
coedge $-1 $350 $351 $162 $249 forward $340 $-1 #
edge $-1 $352 -62.124525318446786 $252 -50.916907723767629 $248 $353 forward 7 unknown #
edge $-1 $253 69.306477117548567 $352 91.06723227637562 $163 $354 forward 7 unknown #
coedge $-1 $164 $344 $350 $355 forward $241 $-1 #
vertex $-1 $165 $356 #
vertex $-1 $165 $357 #
straight-curve $-1 7.1884277316291723 15.349962917057173 11.921512878581915 -1 0 0 I I #
coedge $-1 $255 $255 $-1 $358 reversed $168 $-1 #
edge $-1 $359 0 $359 6.2831853071796004 $169 $360 forward 7 unknown #
vertex $-1 $172 $361 #
ellipse-curve $-1 36.207312302612657 9.7636867826581337 6.3177040812423328 0.51503808176128008 0 0.85716729658548041 0.85716729658548041 0 -0.51503808176128008 1 I I #
coedge $-1 $259 $259 $-1 $362 reversed $175 $-1 #
edge $-1 $363 0 $363 6.2831853071796004 $176 $364 forward 7 unknown #
vertex $-1 $179 $365 #
ellipse-curve $-1 36.207312302612657 13.115452463297558 6.3177040812423328 0.51503808176128008 0 0.85716729658548041 0.85716729658548041 0 -0.51503808176128008 1 I I #
face $-1 $-1 $275 $27 $-1 $366 reversed single #
loop $-1 $-1 $367 $180 #
plane-surface $-1 0 27.771378678550661 0 0 -1 0 0 0 -1 forward_v I I I I #
coedge $-1 $281 $280 $368 $369 forward $181 $-1 #
coedge $-1 $183 $193 $370 $371 forward $114 $-1 #
coedge $-1 $274 $189 $183 $269 reversed $275 $-1 #
edge $-1 $372 -27.771378678550661 $194 27.771378678550661 $268 $373 forward 7 unknown #
coedge $-1 $185 $184 $280 $374 forward $73 $-1 #
coedge $-1 $367 $368 $184 $272 reversed $264 $-1 #
edge $-1 $277 -45.53361613818781 $375 45.53361613818781 $271 $376 forward 7 unknown #
edge $-1 $282 -45.53361613818781 $276 45.53361613818781 $188 $377 forward 7 unknown #
coedge $-1 $186 $268 $367 $378 reversed $275 $-1 #
loop $-1 $-1 $189 $263 #
vertex $-1 $187 $379 #
vertex $-1 $187 $380 #
straight-curve $-1 45.53361613818781 0 11.921512878581915 0 1 0 I I #
straight-curve $-1 45.53361613818781 -27.771378678550661 0 0 0 -1 I I #
coedge $-1 $266 $191 $270 $374 reversed $181 $-1 #
coedge $-1 $191 $266 $193 $284 reversed $181 $-1 #
vertex $-1 $374 $381 #
straight-curve $-1 -45.53361613818781 -27.771378678550661 0 0 0 -1 I I #
edge $-1 $195 -27.771378678550661 $382 27.771378678550661 $281 $383 forward 7 unknown #
point $-1 45.53361613818781 -27.771378678550661 -11.921512878581915 #
point $-1 -45.53361613818781 -27.771378678550661 -11.921512878581915 #
face $-1 $-1 $304 $28 $-1 $384 forward single #
loop $-1 $-1 $385 $197 #
plane-surface $-1 -21.690590381023981 -33.880056181443564 0 -1 0 0 0 0 1 forward_v I I I I #
coedge $-1 $386 $200 $294 $387 reversed $122 $-1 #
coedge $-1 $200 $386 $388 $389 reversed $122 $-1 #
coedge $-1 $208 $207 $200 $293 reversed $198 $-1 #
edge $-1 $390 -11.921512878581915 $391 11.921512878581915 $292 $392 forward 7 unknown #
coedge $-1 $202 $201 $290 $387 forward $77 $-1 #
coedge $-1 $300 $385 $201 $296 reversed $288 $-1 #
edge $-1 $298 -6.1086775028929061 $393 6.1086775028929026 $295 $394 forward 7 unknown #
edge $-1 $391 -6.1086775028929026 $209 6.1086775028929061 $207 $395 forward 7 unknown #
vertex $-1 $296 $396 #
straight-curve $-1 0 -27.771378678550661 -11.921512878581915 1 0 0 I I #
coedge $-1 $397 $295 $204 $301 reversed $288 $-1 #
edge $-1 $305 -11.921512878581915 $298 11.921512878581915 $300 $398 forward 7 unknown #
coedge $-1 $388 $205 $208 $307 forward $304 $-1 #
coedge $-1 $205 $388 $397 $399 forward $304 $-1 #
loop $-1 $-1 $205 $287 #
vertex $-1 $206 $400 #
straight-curve $-1 0 -27.771378678550661 11.921512878581915 -1 0 0 I I #
edge $-1 $210 -6.1086775028929061 $390 6.1086775028929026 $208 $401 forward 7 unknown #
point $-1 -25.75417195214375 -27.771378678550658 -11.921512878581915 #
point $-1 -25.75417195214375 -27.771378678550658 11.921512878581915 #
plane-surface $-1 0 0 11.921512878581915 0 0 1 1 0 0 forward_v I I I I #
coedge $-1 $321 $320 $313 $402 forward $213 $-1 #
coedge $-1 $313 $215 $217 $317 reversed $130 $-1 #
coedge $-1 $215 $312 $311 $402 reversed $130 $-1 #
coedge $-1 $223 $218 $215 $315 forward $224 $-1 #
edge $-1 $318 -14.077712744143405 $403 -5.8884254007318191 $314 $404 forward 7 unknown #
coedge $-1 $217 $216 $321 $405 reversed $81 $-1 #
edge $-1 $406 0 $318 10.537643912788837 $312 $407 forward 7 unknown #
vertex $-1 $219 $408 #
straight-curve $-1 -37.344328794776217 5.1909334932108955 11.921512878581915 0 1 0 I I #
coedge $-1 $311 $220 $223 $325 reversed $213 $-1 #
coedge $-1 $220 $311 $316 $405 forward $213 $-1 #
vertex $-1 $221 $409 #
straight-curve $-1 -45.53361613818781 4.4076592907514112 38.031244908327608 0 0 1 I I #
straight-curve $-1 -45.53361613818781 4.4076592907514112 5.2899586082939578 -0.77714595512881146 0 -0.62932039886446345 I I #
edge $-1 $403 -16.356074682092171 $225 -4.4076592907514112 $320 $410 forward 7 unknown #
point $-1 -45.53361613818781 4.4076592907514112 11.921512878581915 #
point $-1 -37.344328794776224 4.4076592907514112 11.921512878581915 #
edge $-1 $411 1 $411 0 $228 $-1 forward 7 unknown #
vertex $-1 $229 $412 #
ellipse-curve $-1 -40.468151594208052 6.7973423690195602 7.406871833411043 -0.62932039886446345 0 0.77714595512881146 0.77714595512881146 0 0.62932039886446345 1 I I #
point $-1 -40.661826511353205 6.7973423690195602 9.2350561423023994 #
edge $-1 $413 1 $413 0 $232 $-1 forward 7 unknown #
vertex $-1 $233 $414 #
ellipse-curve $-1 -40.468151594208052 10.381866986421791 7.406871833411043 -0.62932039886446345 0 0.77714595512881146 0.77714595512881146 0 0.62932039886446345 1 I I #
point $-1 -40.661826511353205 10.381866986421791 9.2350561423023994 #
edge $-1 $415 1 $415 0 $236 $-1 forward 7 unknown #
vertex $-1 $237 $416 #
ellipse-curve $-1 -40.468151594208052 13.966391603824022 7.406871833411043 -0.62932039886446345 0 0.77714595512881146 0.77714595512881146 0 0.62932039886446345 1 I I #
point $-1 -40.661826511353205 13.966391603824022 9.2350561423023994 #
loop $-1 $-1 $248 $240 #
plane-surface $-1 45.53361613818781 0 0 -1 0 0 0 0 1 forward_v I I I I #
coedge $-1 $343 $243 $245 $347 reversed $159 $-1 #
coedge $-1 $243 $342 $417 $418 reversed $159 $-1 #
coedge $-1 $251 $246 $243 $345 forward $241 $-1 #
edge $-1 $348 19.692580735408317 $419 38.345188406558634 $344 $420 forward 7 unknown #
coedge $-1 $245 $244 $351 $421 reversed $100 $-1 #
edge $-1 $422 -91.06723227637562 $348 -69.306477117548567 $342 $423 forward 7 unknown #
vertex $-1 $247 $424 #
straight-curve $-1 26.881008467037489 5.7197848114889212 11.921512878581915 0 -1 0 I I #
coedge $-1 $417 $248 $251 $355 reversed $340 $-1 #
coedge $-1 $248 $417 $346 $421 forward $340 $-1 #
vertex $-1 $249 $425 #
straight-curve $-1 45.53361613818781 15.349962917057173 62.838420602349544 0 0 1 I I #
straight-curve $-1 -32.526237159675084 15.349962917057173 47.616987906836187 0.85716729658548041 0 -0.51503808176128008 I I #
edge $-1 $419 7.5291763288985116 $252 15.349962917057173 $350 $426 forward 7 unknown #
point $-1 45.53361613818781 15.349962917057173 11.921512878581915 #
point $-1 26.881008467037489 15.349962917057173 11.921512878581915 #
edge $-1 $427 1 $427 0 $255 $-1 forward 7 unknown #
vertex $-1 $256 $428 #
ellipse-curve $-1 35.43754515950846 9.7636867826581337 5.0365964419808584 0.51503808176128008 0 0.85716729658548041 0.85716729658548041 0 -0.51503808176128008 1 I I #
point $-1 37.064479599198137 9.7636867826581337 5.8026659994810528 #
edge $-1 $429 1 $429 0 $259 $-1 forward 7 unknown #
vertex $-1 $260 $430 #
ellipse-curve $-1 35.43754515950846 13.115452463297558 5.0365964419808584 0.51503808176128008 0 0.85716729658548041 0.85716729658548041 0 -0.51503808176128008 1 I I #
point $-1 37.064479599198137 13.115452463297558 5.8026659994810528 #
plane-surface $-1 45.53361613818781 0 0 -1 0 0 0 0 1 forward_v I I I I #
coedge $-1 $370 $271 $274 $378 forward $264 $-1 #
coedge $-1 $271 $370 $266 $369 reversed $264 $-1 #
edge $-1 $375 -11.921512878581915 $382 11.921512878581915 $368 $431 forward 7 unknown #
coedge $-1 $368 $367 $267 $371 reversed $264 $-1 #
edge $-1 $382 -45.53361613818781 $372 45.53361613818781 $370 $432 forward 7 unknown #
vertex $-1 $269 $433 #
straight-curve $-1 45.53361613818781 0 -11.921512878581915 0 -1 0 I I #
edge $-1 $375 -27.771378678550661 $282 27.771378678550661 $280 $434 forward 7 unknown #
vertex $-1 $272 $435 #
straight-curve $-1 0 27.771378678550661 11.921512878581915 -1 0 0 I I #
straight-curve $-1 0 -27.771378678550661 11.921512878581915 1 0 0 I I #
edge $-1 $277 -11.921512878581915 $372 11.921512878581915 $274 $436 forward 7 unknown #
point $-1 45.53361613818781 -27.771378678550661 11.921512878581915 #
point $-1 45.53361613818781 27.771378678550661 11.921512878581915 #
point $-1 -45.53361613818781 -27.771378678550661 11.921512878581915 #
vertex $-1 $371 $437 #
straight-curve $-1 -45.53361613818781 0 -11.921512878581915 0 1 0 I I #
plane-surface $-1 0 0 11.921512878581915 0 0 1 1 0 0 forward_v I I I I #
coedge $-1 $295 $397 $386 $438 forward $288 $-1 #
coedge $-1 $291 $290 $385 $438 reversed $122 $-1 #
edge $-1 $393 -2.0317907855598847 $391 2.0317907855598847 $290 $439 forward 7 unknown #
coedge $-1 $303 $302 $291 $389 forward $304 $-1 #
edge $-1 $390 -2.0317907855598847 $440 2.0317907855598847 $291 $441 forward 7 unknown #
vertex $-1 $307 $442 #
vertex $-1 $297 $443 #
straight-curve $-1 -25.75417195214375 -39.988733684336466 0 0 0 -1 I I #
vertex $-1 $438 $444 #
straight-curve $-1 -21.690590381023981 -33.880056181443564 -11.921512878581915 0 -1 0 I I #
straight-curve $-1 -25.75417195214375 -33.880056181443564 -11.921512878581915 0 1 0 I I #
point $-1 -21.690590381023981 -27.771378678550658 -11.921512878581915 #
coedge $-1 $385 $300 $303 $399 reversed $288 $-1 #
straight-curve $-1 -21.690590381023981 -27.771378678550661 0 0 0 -1 I I #
edge $-1 $440 -6.1086775028929026 $305 6.1086775028929061 $397 $445 forward 7 unknown #
point $-1 -21.690590381023981 -27.771378678550658 11.921512878581915 #
straight-curve $-1 -25.75417195214375 -33.880056181443564 11.921512878581915 0 -1 0 I I #
edge $-1 $403 26.109732029745693 $406 32.74128630003365 $311 $446 forward 7 unknown #
vertex $-1 $325 $447 #
straight-curve $-1 -51.422041538919629 16.356074682092171 11.921512878581915 -1 0 0 I I #
edge $-1 $406 -11.165141188881275 $322 0.78327420245948431 $321 $448 forward 7 unknown #
vertex $-1 $405 $449 #
straight-curve $-1 -45.53361613818781 16.356074682092171 5.2899586082939578 0.77714595512881146 0 0.62932039886446345 I I #
point $-1 -37.344328794776224 16.356074682092171 11.921512878581915 #
point $-1 -45.53361613818781 4.4076592907514112 5.2899586082939578 #
straight-curve $-1 -45.53361613818781 0 11.921512878581915 0 -1 0 I I #
vertex $-1 $328 $450 #
point $-1 -39.691005639079243 6.7973423690195602 8.0361922322755071 #
vertex $-1 $332 $451 #
point $-1 -39.691005639079243 10.381866986421791 8.0361922322755071 #
vertex $-1 $336 $452 #
point $-1 -39.691005639079243 13.966391603824022 8.0361922322755071 #
coedge $-1 $351 $350 $343 $418 forward $340 $-1 #
edge $-1 $419 50.916907723767629 $422 62.124525318446786 $417 $453 forward 7 unknown #
vertex $-1 $355 $454 #
straight-curve $-1 7.1884277316291723 7.5291763288985116 11.921512878581915 1 0 0 I I #
edge $-1 $422 1.8093915174095905 $352 9.6301781055682518 $351 $455 forward 7 unknown #
vertex $-1 $421 $456 #
straight-curve $-1 -32.526237159675084 7.5291763288985116 47.616987906836187 -0.85716729658548041 0 0.51503808176128008 I I #
point $-1 26.881008467037489 7.5291763288985116 11.921512878581915 #
point $-1 45.533616138187817 15.349962917057173 0.71389528390275814 #
straight-curve $-1 45.53361613818781 0 11.921512878581915 0 1 0 I I #
vertex $-1 $358 $457 #
point $-1 36.29471245609394 9.7636867826581337 4.5215583602195784 #
vertex $-1 $362 $458 #
point $-1 36.29471245609394 13.115452463297558 4.5215583602195784 #
straight-curve $-1 -45.53361613818781 27.771378678550661 0 0 0 -1 I I #
straight-curve $-1 0 27.771378678550661 -11.921512878581915 1 0 0 I I #
point $-1 45.53361613818781 27.771378678550661 -11.921512878581915 #
straight-curve $-1 -45.53361613818781 0 11.921512878581915 0 -1 0 I I #
point $-1 -45.53361613818781 27.771378678550661 11.921512878581915 #
straight-curve $-1 45.53361613818781 27.771378678550661 0 0 0 -1 I I #
point $-1 -45.53361613818781 27.771378678550661 -11.921512878581915 #
edge $-1 $440 -11.921512878581915 $393 11.921512878581915 $385 $459 forward 7 unknown #
straight-curve $-1 -23.722381166583865 -39.988733684336466 -11.921512878581915 -1 0 0 I I #
vertex $-1 $399 $460 #
straight-curve $-1 -23.722381166583865 -39.988733684336466 11.921512878581915 1 0 0 I I #
point $-1 -25.75417195214375 -39.988733684336466 11.921512878581915 #
point $-1 -25.75417195214375 -39.988733684336466 -11.921512878581915 #
point $-1 -21.690590381023981 -39.988733684336466 -11.921512878581915 #
straight-curve $-1 -21.690590381023981 -33.880056181443564 11.921512878581915 0 1 0 I I #
straight-curve $-1 -45.53361613818781 16.356074682092171 38.031244908327608 0 0 -1 I I #
point $-1 -45.53361613818781 16.356074682092171 11.921512878581915 #
straight-curve $-1 -45.53361613818781 5.1909334932108955 5.2899586082939578 0 -1 0 I I #
point $-1 -45.53361613818781 16.356074682092171 5.2899586082939578 #
point $-1 -39.838831195343587 6.7973423690195602 6.6297258782822324 #
point $-1 -39.838831195343587 10.381866986421791 6.6297258782822324 #
point $-1 -39.838831195343587 13.966391603824022 6.6297258782822324 #
straight-curve $-1 45.53361613818781 7.5291763288985116 62.838420602349544 0 0 -1 I I #
point $-1 45.53361613818781 7.5291763288985116 11.921512878581915 #
straight-curve $-1 45.53361613818781 5.7197848114889212 0.71389528390275814 0 1 0 I I #
point $-1 45.533616138187817 7.5291763288985116 0.71389528390275814 #
point $-1 34.922507077747184 9.7636867826581337 4.1794291453953782 #
point $-1 34.922507077747184 13.115452463297558 4.1794291453953782 #
straight-curve $-1 -21.690590381023981 -39.988733684336466 0 0 0 -1 I I #
point $-1 -21.690590381023981 -39.988733684336466 11.921512878581915 #
End-of-ACIS-data 