500 0 6 0           
7 Unknown 11 ACIS 5.0 NT 24 Thu Mar 25 15:18:51 1999 
-1 9.9999999999999995e-007 1e-010 
body $-1 $6 $-1 $7 #
body $-1 $8 $-1 $9 #
body $-1 $10 $-1 $11 #
body $-1 $12 $-1 $13 #
body $-1 $14 $-1 $15 #
body $-1 $16 $-1 $17 #
lump $-1 $-1 $18 $0 #
transform $-1 1 0 0 0 1 0 0 0 1 54.000671407208472 30.781387994310077 6.775719331197843 1 rotate no_reflect no_shear #
lump $-1 $-1 $19 $1 #
transform $-1 1 0 0 0 1 0 0 0 1 54.000671407208472 30.781387994310077 6.775719331197843 1 rotate no_reflect no_shear #
lump $-1 $-1 $20 $2 #
transform $-1 1 0 0 0 1 0 0 0 1 54.000671407208472 30.781387994310077 6.775719331197843 1 rotate no_reflect no_shear #
lump $-1 $-1 $21 $3 #
transform $-1 1 0 0 0 1 0 0 0 1 54.000671407208472 30.781387994310077 6.775719331197843 1 rotate no_reflect no_shear #
lump $-1 $-1 $22 $4 #
transform $-1 1 0 0 0 1 0 0 0 1 54.000671407208472 30.781387994310077 6.775719331197843 1 rotate no_reflect no_shear #
lump $-1 $-1 $23 $5 #
transform $-1 1 0 0 0 1 0 0 0 1 54.000671407208472 30.781387994310077 6.775719331197843 1 rotate no_reflect no_shear #
shell $-1 $-1 $-1 $24 $-1 $6 #
shell $-1 $-1 $-1 $25 $-1 $8 #
shell $-1 $-1 $-1 $26 $-1 $10 #
shell $-1 $-1 $-1 $27 $-1 $12 #
shell $-1 $-1 $-1 $28 $-1 $14 #
shell $-1 $-1 $-1 $29 $-1 $16 #
face $-1 $30 $31 $18 $-1 $32 forward single #
face $-1 $33 $34 $19 $-1 $35 forward single #
face $-1 $36 $37 $20 $-1 $38 reversed single #
face $-1 $39 $40 $21 $-1 $41 reversed single #
face $-1 $42 $43 $22 $-1 $44 forward single #
face $-1 $45 $46 $23 $-1 $47 forward single #
face $-1 $48 $49 $18 $-1 $50 reversed single #
loop $-1 $-1 $51 $24 #
plane-surface $-1 0 0 6.775719331197843 0 0 1 1 0 0 forward_v I I I I #
face $-1 $52 $53 $19 $-1 $54 reversed single #
loop $-1 $-1 $55 $25 #
plane-surface $-1 0 -30.781387994310077 0 0 1 0 0 0 1 forward_v I I I I #
face $-1 $56 $57 $20 $-1 $58 reversed single #
loop $-1 $-1 $59 $26 #
plane-surface $-1 -42.01002414896783 25.162042655700855 0 0 1 0 0 0 1 forward_v I I I I #
face $-1 $60 $61 $21 $-1 $62 reversed single #
loop $-1 $-1 $63 $27 #
plane-surface $-1 96.100686543437149 -2.9082247230903011 147.72393576210527 0 -1 0 -0.87461971476443456 0 -0.48480960649040278 forward_v I I I I #
face $-1 $64 $65 $22 $-1 $66 forward single #
loop $-1 $67 $68 $28 #
cone-surface $-1 50.776973104792745 -9.6883285707244227 2.9549136182082538 -0.87461971476443456 0 -0.48480960649040278 0.48480960649040278 0 -0.87461971476443456 1 I I 0 1 1 forward I I I I #
face $-1 $69 $70 $23 $-1 $71 forward single #
loop $-1 $72 $73 $29 #
cone-surface $-1 50.776973104792745 -5.6202662621439501 2.9549136182082538 -0.87461971476443456 0 -0.48480960649040278 0.48480960649040278 0 -0.87461971476443456 1 I I 0 1 1 forward I I I I #
face $-1 $74 $75 $18 $-1 $76 reversed single #
loop $-1 $-1 $77 $30 #
plane-surface $-1 0 0 -6.775719331197843 0 0 1 1 0 0 forward_v I I I I #
coedge $-1 $78 $79 $80 $81 forward $31 $-1 #
face $-1 $82 $83 $19 $-1 $84 reversed single #
loop $-1 $-1 $85 $33 #
plane-surface $-1 0 0 -6.775719331197843 0 0 1 1 0 0 forward_v I I I I #
coedge $-1 $86 $87 $88 $89 forward $34 $-1 #
face $-1 $90 $91 $20 $-1 $92 reversed single #
loop $-1 $-1 $93 $36 #
plane-surface $-1 -43.57081555312287 27.971715325005466 0 1 0 0 0 0 -1 forward_v I I I I #
coedge $-1 $94 $95 $96 $97 forward $37 $-1 #
face $-1 $98 $99 $21 $-1 $100 reversed single #
loop $-1 $-1 $101 $39 #
plane-surface $-1 1.6405828969158875 -7.6542974164341864 95.3638472518127 0.87461971476443456 0 0.48480960649040278 0.48480960649040278 0 -0.87461971476443456 forward_v I I I I #
coedge $-1 $102 $103 $104 $105 reversed $40 $-1 #
face $-1 $-1 $106 $22 $-1 $107 forward single #
loop $-1 $108 $109 $42 #
cone-surface $-1 48.743409532020038 -9.6883285707244227 1.8276909649266653 -0.87461971476443456 0 -0.48480960649040278 0.24240480324520139 0 -0.43730985738221728 1 I I -0.70710678118654746 0.70710678118654746 0.5 forward I I I I #
loop $-1 $-1 $110 $28 #
coedge $-1 $68 $68 $111 $112 reversed $43 $-1 #
face $-1 $-1 $113 $23 $-1 $114 forward single #
loop $-1 $115 $116 $45 #
cone-surface $-1 48.743409532020038 -5.6202662621439501 1.8276909649266653 -0.87461971476443456 0 -0.48480960649040278 0.24240480324520139 0 -0.43730985738221728 1 I I -0.70710678118654746 0.70710678118654746 0.5 forward I I I I #
loop $-1 $-1 $117 $29 #
coedge $-1 $73 $73 $118 $119 reversed $46 $-1 #
face $-1 $120 $121 $18 $-1 $122 reversed single #
loop $-1 $-1 $123 $48 #
plane-surface $-1 0 -30.781387994310077 0 0 1 0 0 0 1 forward_v I I I I #
coedge $-1 $124 $125 $126 $127 forward $49 $-1 #
coedge $-1 $128 $51 $129 $130 forward $31 $-1 #
coedge $-1 $51 $128 $131 $132 forward $31 $-1 #
coedge $-1 $133 $134 $51 $81 reversed $135 $-1 #
edge $-1 $136 -30.781387994310077 $137 30.781387994310077 $80 $138 forward 7 unknown #
face $-1 $139 $140 $19 $-1 $141 forward single #
loop $-1 $-1 $142 $52 #
plane-surface $-1 54.000671407208472 0 0 -1 0 0 0 0 1 forward_v I I I I #
coedge $-1 $143 $144 $145 $146 forward $53 $-1 #
coedge $-1 $145 $55 $142 $147 reversed $34 $-1 #
coedge $-1 $55 $145 $148 $149 reversed $34 $-1 #
coedge $-1 $150 $151 $55 $89 reversed $140 $-1 #
edge $-1 $152 -54.000671407208472 $153 54.000671407208472 $88 $154 forward 7 unknown #
face $-1 $155 $156 $20 $-1 $157 forward single #
loop $-1 $-1 $158 $56 #
plane-surface $-1 -40.44923274481279 27.971715325005466 0 -1 0 0 0 0 1 forward_v I I I I #
coedge $-1 $159 $160 $161 $162 reversed $57 $-1 #
coedge $-1 $163 $59 $164 $165 reversed $37 $-1 #
coedge $-1 $59 $163 $166 $167 reversed $37 $-1 #
coedge $-1 $160 $159 $59 $97 reversed $57 $-1 #
edge $-1 $168 -6.775719331197843 $169 6.775719331197843 $96 $170 forward 7 unknown #
face $-1 $171 $172 $21 $-1 $173 reversed single #
loop $-1 $-1 $174 $60 #
plane-surface $-1 96.100686543437149 -12.400370109778072 147.72393576210527 0 1 0 0.87461971476443456 0 0.48480960649040278 forward_v I I I I #
coedge $-1 $175 $176 $177 $178 reversed $61 $-1 #
coedge $-1 $103 $63 $179 $180 reversed $40 $-1 #
coedge $-1 $63 $102 $175 $181 reversed $40 $-1 #
coedge $-1 $177 $182 $63 $105 forward $183 $-1 #
edge $-1 $184 -5.9503281354898974 $185 -2.6954389614393932 $104 $186 forward 7 unknown #
loop $-1 $-1 $111 $64 #
plane-surface $-1 1.6405828969158875 -7.6542974164341864 95.3638472518127 0.87461971476443456 0 0.48480960649040278 0.48480960649040278 0 -0.87461971476443456 forward_v I I I I #
loop $-1 $-1 $187 $42 #
coedge $-1 $109 $109 $110 $188 reversed $65 $-1 #
coedge $-1 $110 $110 $109 $188 forward $67 $-1 #
coedge $-1 $111 $111 $68 $112 forward $106 $-1 #
edge $-1 $189 0 $189 6.2831853071796004 $111 $190 forward 7 unknown #
loop $-1 $-1 $118 $69 #
plane-surface $-1 1.6405828969158875 -7.6542974164341864 95.3638472518127 0.87461971476443456 0 0.48480960649040278 0.48480960649040278 0 -0.87461971476443456 forward_v I I I I #
loop $-1 $-1 $191 $45 #
coedge $-1 $116 $116 $117 $192 reversed $70 $-1 #
coedge $-1 $117 $117 $116 $192 forward $72 $-1 #
coedge $-1 $118 $118 $73 $119 forward $113 $-1 #
edge $-1 $193 0 $193 6.2831853071796004 $118 $194 forward 7 unknown #
face $-1 $195 $196 $18 $-1 $197 reversed single #
loop $-1 $-1 $198 $74 #
plane-surface $-1 -54.000671407208472 0 0 1 0 0 0 0 -1 forward_v I I I I #
coedge $-1 $131 $199 $133 $200 reversed $75 $-1 #
coedge $-1 $201 $77 $199 $202 forward $49 $-1 #
coedge $-1 $77 $201 $203 $204 forward $49 $-1 #
coedge $-1 $134 $133 $77 $127 reversed $135 $-1 #
edge $-1 $205 -30.781387994310077 $206 30.781387994310077 $126 $207 forward 7 unknown #
coedge $-1 $79 $78 $208 $209 forward $31 $-1 #
coedge $-1 $210 $211 $78 $130 reversed $196 $-1 #
edge $-1 $137 -54.000671407208472 $212 54.000671407208472 $129 $213 forward 7 unknown #
coedge $-1 $214 $123 $79 $132 reversed $75 $-1 #
edge $-1 $215 -54.000671407208472 $136 54.000671407208472 $131 $216 forward 7 unknown #
coedge $-1 $126 $80 $123 $200 forward $135 $-1 #
coedge $-1 $80 $126 $210 $217 reversed $135 $-1 #
loop $-1 $-1 $133 $195 #
vertex $-1 $81 $218 #
vertex $-1 $81 $219 #
straight-curve $-1 54.000671407208472 0 6.775719331197843 0 1 0 I I #
face $-1 $220 $221 $19 $-1 $222 reversed single #
loop $-1 $-1 $151 $82 #
plane-surface $-1 0 -34.267923324683139 -3.775719331197843 0 0 1 1 0 0 forward_v I I I I #
coedge $-1 $223 $224 $86 $147 forward $83 $-1 #
coedge $-1 $225 $85 $224 $226 forward $53 $-1 #
coedge $-1 $85 $225 $227 $228 forward $53 $-1 #
coedge $-1 $87 $86 $85 $146 reversed $34 $-1 #
edge $-1 $229 -54.000671407208472 $230 54.000671407208472 $85 $231 forward 7 unknown #
edge $-1 $230 -6.775719331197843 $153 -3.775719331197843 $142 $232 forward 7 unknown #
coedge $-1 $227 $233 $87 $149 forward $234 $-1 #
edge $-1 $152 3.775719331197843 $229 6.775719331197843 $148 $235 forward 7 unknown #
coedge $-1 $236 $88 $233 $237 forward $140 $-1 #
coedge $-1 $88 $236 $223 $238 forward $140 $-1 #
vertex $-1 $149 $239 #
vertex $-1 $238 $240 #
straight-curve $-1 0 -30.781387994310077 -3.775719331197843 1 0 0 I I #
face $-1 $241 $242 $20 $-1 $243 reversed single #
loop $-1 $-1 $244 $90 #
plane-surface $-1 0 0 6.775719331197843 0 0 1 1 0 0 forward_v I I I I #
coedge $-1 $245 $246 $163 $247 forward $91 $-1 #
coedge $-1 $96 $93 $248 $249 reversed $57 $-1 #
coedge $-1 $93 $96 $244 $250 reversed $57 $-1 #
coedge $-1 $251 $252 $93 $162 forward $253 $-1 #
edge $-1 $254 -6.775719331197843 $255 6.775719331197843 $161 $256 forward 7 unknown #
coedge $-1 $95 $94 $158 $247 reversed $37 $-1 #
coedge $-1 $248 $257 $94 $165 forward $242 $-1 #
edge $-1 $258 19.444220670328875 $169 22.565803478638955 $164 $259 forward 7 unknown #
coedge $-1 $260 $244 $95 $167 forward $156 $-1 #
edge $-1 $168 -22.565803478638955 $261 -19.444220670328875 $166 $262 forward 7 unknown #
vertex $-1 $167 $263 #
vertex $-1 $165 $264 #
straight-curve $-1 -43.57081555312287 25.162042655700855 0 0 0 -1 I I #
face $-1 $-1 $183 $21 $-1 $265 forward single #
loop $-1 $-1 $266 $98 #
plane-surface $-1 54.000671407208472 0 0 -1 0 0 0 0 1 forward_v I I I I #
coedge $-1 $267 $268 $269 $270 reversed $99 $-1 #
coedge $-1 $271 $101 $103 $181 forward $61 $-1 #
coedge $-1 $101 $271 $267 $272 forward $61 $-1 #
coedge $-1 $269 $104 $101 $178 forward $183 $-1 #
edge $-1 $185 -0.91892398512679208 $273 8.5732214015609784 $177 $274 forward 7 unknown #
coedge $-1 $275 $276 $102 $180 forward $172 $-1 #
edge $-1 $277 -72.958224275761225 $184 -67.086248549854787 $179 $278 forward 7 unknown #
edge $-1 $185 101.28759554027971 $277 108.00134281441697 $103 $279 forward 7 unknown #
coedge $-1 $104 $269 $275 $280 forward $183 $-1 #
loop $-1 $-1 $269 $171 #
vertex $-1 $180 $281 #
vertex $-1 $105 $282 #
straight-curve $-1 48.050343271718575 -2.9082247230903011 6.7757193311978483 -1 0 0 I I #
coedge $-1 $187 $187 $-1 $283 reversed $108 $-1 #
edge $-1 $284 0 $284 6.2831853071796004 $109 $285 forward 7 unknown #
vertex $-1 $112 $286 #
ellipse-curve $-1 52.37322682018322 -9.6883285707244227 3.8397314682446337 0.87461971476443456 0 0.48480960649040278 0.48480960649040278 0 -0.87461971476443456 1 I I #
coedge $-1 $191 $191 $-1 $287 reversed $115 $-1 #
edge $-1 $288 0 $288 6.2831853071796004 $116 $289 forward 7 unknown #
vertex $-1 $119 $290 #
ellipse-curve $-1 52.37322682018322 -5.6202662621439501 3.8397314682446337 0.87461971476443456 0 0.48480960649040278 0.48480960649040278 0 -0.87461971476443456 1 I I #
face $-1 $-1 $135 $18 $-1 $291 reversed single #
loop $-1 $-1 $210 $120 #
plane-surface $-1 0 30.781387994310077 0 0 -1 0 0 0 -1 forward_v I I I I #
coedge $-1 $292 $208 $211 $293 forward $121 $-1 #
coedge $-1 $123 $214 $124 $202 reversed $75 $-1 #
edge $-1 $136 -6.775719331197843 $206 6.775719331197843 $133 $294 forward 7 unknown #
coedge $-1 $125 $124 $292 $295 forward $49 $-1 #
edge $-1 $206 -54.000671407208472 $296 54.000671407208472 $199 $297 forward 7 unknown #
coedge $-1 $211 $210 $125 $204 reversed $196 $-1 #
edge $-1 $298 -54.000671407208472 $205 54.000671407208472 $203 $299 forward 7 unknown #
vertex $-1 $127 $300 #
vertex $-1 $200 $301 #
straight-curve $-1 54.000671407208472 0 -6.775719331197843 0 -1 0 I I #
coedge $-1 $198 $302 $128 $209 reversed $121 $-1 #
edge $-1 $212 -30.781387994310077 $215 30.781387994310077 $208 $303 forward 7 unknown #
coedge $-1 $203 $129 $134 $217 forward $196 $-1 #
coedge $-1 $129 $203 $198 $293 reversed $196 $-1 #
vertex $-1 $130 $304 #
straight-curve $-1 0 30.781387994310077 6.775719331197843 -1 0 0 I I #
coedge $-1 $199 $131 $302 $305 forward $75 $-1 #
vertex $-1 $209 $306 #
straight-curve $-1 0 -30.781387994310077 6.775719331197843 1 0 0 I I #
edge $-1 $137 -6.775719331197843 $205 6.775719331197843 $134 $307 forward 7 unknown #
point $-1 54.000671407208472 -30.781387994310077 6.775719331197843 #
point $-1 54.000671407208472 30.781387994310077 6.775719331197843 #
face $-1 $-1 $234 $19 $-1 $308 reversed single #
loop $-1 $-1 $309 $139 #
plane-surface $-1 0 -37.754458655056204 -5.275719331197843 0 1 0 0 0 1 forward_v I I I I #
coedge $-1 $310 $142 $151 $238 reversed $83 $-1 #
coedge $-1 $142 $310 $143 $226 reversed $83 $-1 #
coedge $-1 $144 $143 $311 $312 forward $53 $-1 #
edge $-1 $230 30.781387994310077 $313 37.754458655056204 $224 $314 forward 7 unknown #
coedge $-1 $315 $148 $144 $228 reversed $234 $-1 #
edge $-1 $316 -37.754458655056204 $229 -30.781387994310077 $227 $317 forward 7 unknown #
vertex $-1 $149 $318 #
vertex $-1 $226 $319 #
straight-curve $-1 0 -30.781387994310077 -6.775719331197843 1 0 0 I I #
straight-curve $-1 54.000671407208472 -30.781387994310077 0 0 0 1 I I #
coedge $-1 $148 $315 $150 $237 reversed $234 $-1 #
loop $-1 $-1 $148 $220 #
straight-curve $-1 -54.000671407208472 -30.781387994310077 0 0 0 -1 I I #
coedge $-1 $151 $150 $320 $321 forward $140 $-1 #
edge $-1 $152 -3.4865353303730622 $322 3.4865353303730657 $233 $323 forward 7 unknown #
edge $-1 $324 -3.4865353303730657 $153 3.4865353303730622 $223 $325 forward 7 unknown #
point $-1 -54.000671407208472 -30.781387994310077 -3.775719331197843 #
point $-1 54.000671407208472 -30.781387994310077 -3.775719331197843 #
face $-1 $-1 $253 $20 $-1 $326 reversed single #
loop $-1 $-1 $248 $155 #
plane-surface $-1 0 0 -6.775719331197843 0 0 1 1 0 0 forward_v I I I I #
coedge $-1 $166 $327 $160 $250 forward $156 $-1 #
coedge $-1 $328 $158 $257 $329 reversed $91 $-1 #
coedge $-1 $158 $328 $260 $330 reversed $91 $-1 #
edge $-1 $261 -6.775719331197843 $258 6.775719331197843 $158 $331 forward 7 unknown #
coedge $-1 $332 $164 $159 $249 forward $242 $-1 #
edge $-1 $169 11.176184993198122 $254 16.795530331807342 $248 $333 forward 7 unknown #
edge $-1 $255 -16.795530331807342 $168 -11.176184993198122 $244 $334 forward 7 unknown #
coedge $-1 $335 $161 $327 $336 reversed $253 $-1 #
coedge $-1 $161 $335 $332 $337 reversed $253 $-1 #
loop $-1 $-1 $161 $241 #
vertex $-1 $337 $338 #
vertex $-1 $162 $339 #
straight-curve $-1 -43.57081555312287 30.781387994310077 0 0 0 1 I I #
coedge $-1 $164 $332 $245 $329 forward $242 $-1 #
vertex $-1 $165 $340 #
straight-curve $-1 -21.005012074483915 25.162042655700855 -6.775719331197843 -1 0 0 I I #
coedge $-1 $327 $166 $246 $330 forward $156 $-1 #
vertex $-1 $167 $341 #
straight-curve $-1 -21.005012074483915 25.162042655700855 6.775719331197843 1 0 0 I I #
point $-1 -43.57081555312287 25.162042655700855 6.775719331197843 #
point $-1 -43.57081555312287 25.162042655700855 -6.775719331197843 #
plane-surface $-1 0 0 6.775719331197843 0 0 1 1 0 0 forward_v I I I I #
coedge $-1 $276 $275 $268 $342 forward $172 $-1 #
coedge $-1 $268 $174 $176 $272 reversed $99 $-1 #
coedge $-1 $174 $267 $266 $342 reversed $99 $-1 #
coedge $-1 $182 $177 $174 $270 forward $183 $-1 #
edge $-1 $273 2.6954389614393932 $343 5.9503281354898974 $269 $344 forward 7 unknown #
coedge $-1 $176 $175 $276 $345 reversed $61 $-1 #
edge $-1 $346 -108.00134281441697 $273 -101.28759554027971 $267 $347 forward 7 unknown #
vertex $-1 $178 $348 #
straight-curve $-1 50.745782233157968 -3.8271487082170932 6.7757193311978412 0 -1 0 I I #
coedge $-1 $266 $179 $182 $280 reversed $172 $-1 #
coedge $-1 $179 $266 $271 $345 forward $172 $-1 #
vertex $-1 $180 $349 #
straight-curve $-1 54.000671407208472 -2.9082247230903011 73.861967881052635 0 0 1 I I #
straight-curve $-1 1.6405828969158875 -2.9082247230903011 95.3638472518127 0.48480960649040278 0 -0.87461971476443456 I I #
edge $-1 $343 -12.400370109778072 $184 -2.9082247230903011 $275 $350 forward 7 unknown #
point $-1 54.000671407208472 -2.9082247230903011 6.775719331197843 #
point $-1 50.745782233157968 -2.9082247230903011 6.7757193311978483 #
edge $-1 $351 1 $351 0 $187 $-1 forward 7 unknown #
vertex $-1 $188 $352 #
ellipse-curve $-1 49.180719389402256 -9.6883285707244227 2.0700957681718668 0.87461971476443456 0 0.48480960649040278 0.48480960649040278 0 -0.87461971476443456 1 I I #
point $-1 52.858036426673635 -9.6883285707244227 2.9651117534802065 #
edge $-1 $353 1 $353 0 $191 $-1 forward 7 unknown #
vertex $-1 $192 $354 #
ellipse-curve $-1 49.180719389402256 -5.6202662621439501 2.0700957681718668 0.87461971476443456 0 0.48480960649040278 0.48480960649040278 0 -0.87461971476443456 1 I I #
point $-1 52.858036426673635 -5.6202662621439501 2.9651117534802065 #
plane-surface $-1 54.000671407208472 0 0 -1 0 0 0 0 1 forward_v I I I I #
coedge $-1 $302 $198 $201 $295 reversed $121 $-1 #
edge $-1 $212 -6.775719331197843 $298 6.775719331197843 $211 $355 forward 7 unknown #
straight-curve $-1 54.000671407208472 -30.781387994310077 0 0 0 -1 I I #
edge $-1 $296 -30.781387994310077 $298 30.781387994310077 $292 $356 forward 7 unknown #
vertex $-1 $295 $357 #
straight-curve $-1 0 -30.781387994310077 -6.775719331197843 -1 0 0 I I #
vertex $-1 $204 $358 #
straight-curve $-1 0 30.781387994310077 -6.775719331197843 1 0 0 I I #
point $-1 54.000671407208472 30.781387994310077 -6.775719331197843 #
point $-1 54.000671407208472 -30.781387994310077 -6.775719331197843 #
coedge $-1 $208 $292 $214 $305 reversed $121 $-1 #
straight-curve $-1 -54.000671407208472 0 6.775719331197843 0 -1 0 I I #
point $-1 -54.000671407208472 30.781387994310077 6.775719331197843 #
edge $-1 $215 -6.775719331197843 $296 6.775719331197843 $302 $359 forward 7 unknown #
point $-1 -54.000671407208472 -30.781387994310077 6.775719331197843 #
straight-curve $-1 54.000671407208472 30.781387994310077 0 0 0 -1 I I #
plane-surface $-1 -54.000671407208472 0 0 1 0 0 0 0 -1 forward_v I I I I #
coedge $-1 $311 $320 $315 $360 forward $221 $-1 #
coedge $-1 $224 $223 $361 $362 forward $83 $-1 #
coedge $-1 $361 $309 $225 $312 reversed $221 $-1 #
edge $-1 $313 -54.000671407208472 $316 54.000671407208472 $311 $363 forward 7 unknown #
vertex $-1 $362 $364 #
straight-curve $-1 54.000671407208472 0 -6.775719331197843 0 -1 0 I I #
coedge $-1 $233 $227 $309 $360 reversed $234 $-1 #
vertex $-1 $228 $365 #
straight-curve $-1 -54.000671407208472 0 -6.775719331197843 0 1 0 I I #
point $-1 -54.000671407208472 -30.781387994310077 -6.775719331197843 #
point $-1 54.000671407208472 -30.781387994310077 -6.775719331197843 #
coedge $-1 $309 $361 $236 $321 reversed $221 $-1 #
edge $-1 $322 -54.000671407208472 $324 54.000671407208472 $320 $366 forward 7 unknown #
vertex $-1 $237 $367 #
straight-curve $-1 -54.000671407208472 -34.267923324683139 -3.775719331197843 0 -1 0 I I #
vertex $-1 $238 $368 #
straight-curve $-1 54.000671407208472 -34.267923324683139 -3.775719331197843 0 1 0 I I #
plane-surface $-1 0 30.781387994310077 0 0 -1 0 0 0 -1 forward_v I I I I #
coedge $-1 $244 $260 $251 $336 forward $156 $-1 #
coedge $-1 $246 $245 $335 $369 reversed $91 $-1 #
edge $-1 $370 -16.795530331807342 $258 -11.176184993198122 $257 $371 forward 7 unknown #
edge $-1 $261 11.176184993198122 $372 16.795530331807342 $260 $373 forward 7 unknown #
straight-curve $-1 -40.44923274481279 25.162042655700855 0 0 0 -1 I I #
coedge $-1 $257 $248 $252 $337 forward $242 $-1 #
straight-curve $-1 -43.57081555312287 13.985857662502733 -6.775719331197843 0 1 0 I I #
straight-curve $-1 -43.57081555312287 13.985857662502733 6.775719331197843 0 -1 0 I I #
coedge $-1 $252 $251 $328 $369 forward $253 $-1 #
edge $-1 $372 40.44923274481279 $255 43.57081555312287 $251 $374 forward 7 unknown #
edge $-1 $254 -43.57081555312287 $370 -40.44923274481279 $252 $375 forward 7 unknown #
point $-1 -43.57081555312287 30.781387994310077 -6.775719331197843 #
point $-1 -43.57081555312287 30.781387994310077 6.775719331197843 #
point $-1 -40.44923274481279 25.162042655700855 -6.775719331197843 #
point $-1 -40.44923274481279 25.162042655700855 6.775719331197843 #
edge $-1 $343 67.086248549854787 $346 72.958224275761225 $266 $376 forward 7 unknown #
vertex $-1 $280 $377 #
straight-curve $-1 48.050343271718575 -12.400370109778072 6.7757193311978483 1 0 0 I I #
edge $-1 $346 -8.5732214015609784 $277 0.91892398512679208 $276 $378 forward 7 unknown #
vertex $-1 $345 $379 #
straight-curve $-1 1.6405828969158875 -12.400370109778072 95.3638472518127 -0.48480960649040278 0 0.87461971476443456 I I #
point $-1 50.745782233157968 -12.400370109778072 6.7757193311978483 #
point $-1 54.000671407208472 -2.9082247230903011 0.90374360529141029 #
straight-curve $-1 54.000671407208472 0 6.775719331197843 0 1 0 I I #
vertex $-1 $283 $380 #
point $-1 49.665528995892657 -9.6883285707244227 1.195476053407432 #
vertex $-1 $287 $381 #
point $-1 49.665528995892657 -5.6202662621439501 1.195476053407432 #
straight-curve $-1 -54.000671407208472 30.781387994310077 0 0 0 -1 I I #
straight-curve $-1 -54.000671407208472 0 -6.775719331197843 0 1 0 I I #
point $-1 -54.000671407208472 -30.781387994310077 -6.775719331197843 #
point $-1 -54.000671407208472 30.781387994310077 -6.775719331197843 #
straight-curve $-1 -54.000671407208472 -30.781387994310077 0 0 0 -1 I I #
edge $-1 $322 -1.5 $316 1.5 $315 $382 forward 7 unknown #
coedge $-1 $320 $311 $310 $362 reversed $221 $-1 #
edge $-1 $324 -1.5 $313 1.5 $310 $383 forward 7 unknown #
straight-curve $-1 0 -37.754458655056204 -6.775719331197843 -1 0 0 I I #
point $-1 54.000671407208472 -37.754458655056204 -6.775719331197843 #
point $-1 -54.000671407208472 -37.754458655056204 -6.775719331197843 #
straight-curve $-1 0 -37.754458655056204 -3.775719331197843 1 0 0 I I #
point $-1 -54.000671407208472 -37.754458655056204 -3.775719331197843 #
point $-1 54.000671407208472 -37.754458655056204 -3.775719331197843 #
edge $-1 $372 -6.775719331197843 $370 6.775719331197843 $335 $384 forward 7 unknown #
vertex $-1 $369 $385 #
straight-curve $-1 -40.44923274481279 13.985857662502733 -6.775719331197843 0 -1 0 I I #
vertex $-1 $336 $386 #
straight-curve $-1 -40.44923274481279 13.985857662502733 6.775719331197843 0 1 0 I I #
straight-curve $-1 0 30.781387994310077 6.775719331197843 -1 0 0 I I #
straight-curve $-1 0 30.781387994310077 -6.775719331197843 1 0 0 I I #
straight-curve $-1 54.000671407208472 -12.400370109778072 73.861967881052635 0 0 -1 I I #
point $-1 54.000671407208472 -12.400370109778072 6.775719331197843 #
straight-curve $-1 54.000671407208472 -3.8271487082170932 0.90374360529140318 0 1 0 I I #
point $-1 54.000671407208472 -12.400370109778072 0.90374360529141029 #
point $-1 48.306099674637821 -9.6883285707244227 1.585286161681464 #
point $-1 48.306099674637821 -5.6202662621439501 1.585286161681464 #
straight-curve $-1 -54.000671407208472 -37.754458655056204 -5.275719331197843 0 0 -1 I I #
straight-curve $-1 54.000671407208472 -37.754458655056204 -5.275719331197843 0 0 -1 I I #
straight-curve $-1 -40.44923274481279 30.781387994310077 0 0 0 -1 I I #
point $-1 -40.44923274481279 30.781387994310077 -6.775719331197843 #
point $-1 -40.44923274481279 30.781387994310077 6.775719331197843 #
End-of-ACIS-data 