500 0 11 0           
7 Unknown 11 ACIS 5.0 NT 24 Fri Mar 26 19:19:17 1999 
-1 9.9999999999999995e-007 1e-010 
body $-1 $11 $-1 $12 #
body $-1 $13 $-1 $14 #
body $-1 $15 $-1 $16 #
body $-1 $17 $-1 $18 #
body $-1 $19 $-1 $20 #
body $-1 $21 $-1 $22 #
body $-1 $23 $-1 $24 #
body $-1 $25 $-1 $26 #
body $-1 $27 $-1 $28 #
body $-1 $29 $-1 $30 #
body $-1 $31 $-1 $32 #
lump $-1 $-1 $33 $0 #
transform $-1 1 0 0 0 1 0 0 0 1 69.091463972899561 43.6469461942267 12.466559936270261 1 rotate no_reflect no_shear #
lump $-1 $-1 $34 $1 #
transform $-1 1 0 0 0 1 0 0 0 1 69.091463972899561 43.6469461942267 12.466559936270261 1 rotate no_reflect no_shear #
lump $-1 $-1 $35 $2 #
transform $-1 1 0 0 0 1 0 0 0 1 69.091463972899561 43.6469461942267 12.466559936270261 1 rotate no_reflect no_shear #
lump $-1 $-1 $36 $3 #
transform $-1 1 0 0 0 1 0 0 0 1 69.091463972899561 43.6469461942267 12.466559936270261 1 rotate no_reflect no_shear #
lump $-1 $-1 $37 $4 #
transform $-1 1 0 0 0 1 0 0 0 1 69.091463972899561 43.6469461942267 12.466559936270261 1 rotate no_reflect no_shear #
lump $-1 $-1 $38 $5 #
transform $-1 1 0 0 0 1 0 0 0 1 69.091463972899561 43.6469461942267 12.466559936270261 1 rotate no_reflect no_shear #
lump $-1 $-1 $39 $6 #
transform $-1 1 0 0 0 1 0 0 0 1 69.091463972899561 43.6469461942267 12.466559936270261 1 rotate no_reflect no_shear #
lump $-1 $-1 $40 $7 #
transform $-1 1 0 0 0 1 0 0 0 1 69.091463972899561 43.6469461942267 12.466559936270261 1 rotate no_reflect no_shear #
lump $-1 $-1 $41 $8 #
transform $-1 1 0 0 0 1 0 0 0 1 69.091463972899561 43.6469461942267 12.466559936270261 1 rotate no_reflect no_shear #
lump $-1 $-1 $42 $9 #
transform $-1 1 0 0 0 1 0 0 0 1 69.091463972899561 43.6469461942267 12.466559936270261 1 rotate no_reflect no_shear #
lump $-1 $-1 $43 $10 #
transform $-1 1 0 0 0 1 0 0 0 1 69.091463972899561 43.6469461942267 12.466559936270261 1 rotate no_reflect no_shear #
shell $-1 $-1 $-1 $44 $-1 $11 #
shell $-1 $-1 $-1 $45 $-1 $13 #
shell $-1 $-1 $-1 $46 $-1 $15 #
shell $-1 $-1 $-1 $47 $-1 $17 #
shell $-1 $-1 $-1 $48 $-1 $19 #
shell $-1 $-1 $-1 $49 $-1 $21 #
shell $-1 $-1 $-1 $50 $-1 $23 #
shell $-1 $-1 $-1 $51 $-1 $25 #
shell $-1 $-1 $-1 $52 $-1 $27 #
shell $-1 $-1 $-1 $53 $-1 $29 #
shell $-1 $-1 $-1 $54 $-1 $31 #
face $-1 $55 $56 $33 $-1 $57 forward single #
face $-1 $58 $59 $34 $-1 $60 forward single #
face $-1 $61 $62 $35 $-1 $63 forward single #
face $-1 $64 $65 $36 $-1 $66 reversed single #
face $-1 $67 $68 $37 $-1 $69 forward single #
face $-1 $70 $71 $38 $-1 $72 forward single #
face $-1 $73 $74 $39 $-1 $75 forward single #
face $-1 $76 $77 $40 $-1 $78 reversed single #
face $-1 $79 $80 $41 $-1 $81 forward single #
face $-1 $82 $83 $42 $-1 $84 forward single #
face $-1 $85 $86 $43 $-1 $87 forward single #
face $-1 $88 $89 $33 $-1 $90 reversed single #
loop $-1 $-1 $91 $44 #
plane-surface $-1 0 0 12.466559936270261 0 0 1 1 0 0 forward_v I I I I #
face $-1 $92 $93 $34 $-1 $94 reversed single #
loop $-1 $-1 $95 $45 #
plane-surface $-1 0 -36.016142295908601 -9.4297977029464306 0 0 1 1 0 0 forward_v I I I I #
face $-1 $96 $97 $35 $-1 $98 reversed single #
loop $-1 $-1 $99 $46 #
plane-surface $-1 0 43.6469461942267 0 0 -1 0 0 0 -1 forward_v I I I I #
face $-1 $100 $101 $36 $-1 $102 reversed single #
loop $-1 $-1 $103 $47 #
plane-surface $-1 -177.98109829967137 -9.8918592678611788 92.337560854482746 0 1 0 -0.78801076186113728 0 0.61566146476048833 forward_v I I I I #
face $-1 $104 $105 $37 $-1 $106 forward single #
loop $-1 $107 $108 $48 #
cone-surface $-1 -66.35574906051319 -8.146501235516503 9.3156784912323722 0.78801076186113728 0 -0.61566146476048833 0.30783073238024417 0 0.39400538093056864 1 I I 0 1 0.5 forward I I I I #
face $-1 $109 $110 $38 $-1 $111 forward single #
loop $-1 $112 $113 $49 #
cone-surface $-1 -66.35574906051319 -5.5284641869994928 9.3156784912323722 0.78801076186113728 0 -0.61566146476048833 0.30783073238024417 0 0.39400538093056864 1 I I 0 1 0.5 forward I I I I #
face $-1 $114 $115 $39 $-1 $116 forward single #
loop $-1 $117 $118 $50 #
cone-surface $-1 -66.35574906051319 -2.9104271384824827 9.3156784912323722 0.78801076186113728 0 -0.61566146476048833 0.30783073238024417 0 0.39400538093056864 1 I I 0 1 0.5 forward I I I I #
face $-1 $119 $120 $40 $-1 $121 reversed single #
loop $-1 $-1 $122 $51 #
plane-surface $-1 25.131492084801224 -0.2056013605653213 193.75333243000694 0 -1 0 -0.52991927123019833 0 -0.84804809178421925 forward_v I I I I #
face $-1 $123 $124 $41 $-1 $125 forward single #
loop $-1 $126 $127 $52 #
cone-surface $-1 60.316168467282473 -13.772039423206195 5.5453739145529948 -0.52991927123019833 0 -0.84804809178421925 1.2720721376763289 0 -0.79487890684529749 1 I I 0 1 1.5 forward I I I I #
face $-1 $128 $129 $42 $-1 $130 forward single #
loop $-1 $131 $132 $53 #
cone-surface $-1 60.316168467282473 -8.6846251497158633 5.5453739145529948 -0.52991927123019833 0 -0.84804809178421925 1.2720721376763289 0 -0.79487890684529749 1 I I 0 1 1.5 forward I I I I #
face $-1 $133 $134 $43 $-1 $135 forward single #
loop $-1 $136 $137 $54 #
cone-surface $-1 60.316168467282473 -3.5972108762255317 5.5453739145529948 -0.52991927123019833 0 -0.84804809178421925 1.2720721376763289 0 -0.79487890684529749 1 I I 0 1 1.5 forward I I I I #
face $-1 $138 $139 $33 $-1 $140 reversed single #
loop $-1 $-1 $141 $55 #
plane-surface $-1 0 0 -12.466559936270261 0 0 1 1 0 0 forward_v I I I I #
coedge $-1 $142 $143 $144 $145 forward $56 $-1 #
face $-1 $146 $147 $34 $-1 $148 reversed single #
loop $-1 $-1 $149 $58 #
plane-surface $-1 0 -28.385338397590502 -10.948178819608346 0 -1 0 0 0 -1 forward_v I I I I #
coedge $-1 $150 $151 $152 $153 reversed $59 $-1 #
face $-1 $154 $155 $35 $-1 $156 reversed single #
loop $-1 $-1 $157 $61 #
plane-surface $-1 -69.091463972899561 0 0 1 0 0 0 0 -1 forward_v I I I I #
coedge $-1 $158 $159 $160 $161 forward $62 $-1 #
face $-1 $162 $163 $36 $-1 $164 reversed single #
loop $-1 $-1 $165 $64 #
plane-surface $-1 -69.091463972899575 -5.5284641869994928 7.2636570304790382 -0.78801076186113728 0 0.61566146476048833 0.61566146476048833 0 0.78801076186113728 forward_v I I I I #
coedge $-1 $166 $167 $168 $169 reversed $65 $-1 #
face $-1 $-1 $170 $37 $-1 $171 forward single #
loop $-1 $172 $173 $67 #
cone-surface $-1 -65.455508029695011 -8.146501235516503 8.6123331328999662 0.78801076186113728 0 -0.61566146476048833 0.15391536619012208 0 0.19700269046528432 1 I I -0.70710678118654746 0.70710678118654746 0.25 forward I I I I #
loop $-1 $-1 $174 $48 #
coedge $-1 $108 $108 $175 $176 reversed $68 $-1 #
face $-1 $-1 $177 $38 $-1 $178 forward single #
loop $-1 $179 $180 $70 #
cone-surface $-1 -65.455508029695011 -5.5284641869994928 8.6123331328999662 0.78801076186113728 0 -0.61566146476048833 0.15391536619012208 0 0.19700269046528432 1 I I -0.70710678118654746 0.70710678118654746 0.25 forward I I I I #
loop $-1 $-1 $181 $49 #
coedge $-1 $113 $113 $182 $183 reversed $71 $-1 #
face $-1 $-1 $184 $39 $-1 $185 forward single #
loop $-1 $186 $187 $73 #
cone-surface $-1 -65.455508029695011 -2.9104271384824827 8.6123331328999662 0.78801076186113728 0 -0.61566146476048833 0.15391536619012208 0 0.19700269046528432 1 I I -0.70710678118654746 0.70710678118654746 0.25 forward I I I I #
loop $-1 $-1 $188 $50 #
coedge $-1 $118 $118 $189 $190 reversed $74 $-1 #
face $-1 $191 $192 $40 $-1 $193 reversed single #
loop $-1 $-1 $194 $76 #
plane-surface $-1 -48.094304388691654 -8.6846251497158704 76.56756406841572 0.52991927123019833 0 0.84804809178421925 0.84804809178421925 0 -0.52991927123019833 forward_v I I I I #
coedge $-1 $195 $196 $197 $198 reversed $77 $-1 #
face $-1 $-1 $199 $41 $-1 $200 forward single #
loop $-1 $201 $202 $79 #
cone-surface $-1 58.444793501287208 -13.772039423206195 2.5505479946712519 -0.52991927123019833 0 -0.84804809178421925 0.63603606883816444 0 -0.39743945342264875 1 I I -0.70710678118654757 0.70710678118654757 0.75 forward I I I I #
loop $-1 $-1 $203 $52 #
coedge $-1 $127 $127 $204 $205 reversed $80 $-1 #
face $-1 $-1 $206 $42 $-1 $207 forward single #
loop $-1 $208 $209 $82 #
cone-surface $-1 58.444793501287208 -8.6846251497158633 2.5505479946712519 -0.52991927123019833 0 -0.84804809178421925 0.63603606883816444 0 -0.39743945342264875 1 I I -0.70710678118654757 0.70710678118654757 0.75 forward I I I I #
loop $-1 $-1 $210 $53 #
coedge $-1 $132 $132 $211 $212 reversed $83 $-1 #
face $-1 $-1 $213 $43 $-1 $214 forward single #
loop $-1 $215 $216 $85 #
cone-surface $-1 58.444793501287208 -3.5972108762255317 2.5505479946712519 -0.52991927123019833 0 -0.84804809178421925 0.63603606883816444 0 -0.39743945342264875 1 I I -0.70710678118654757 0.70710678118654757 0.75 forward I I I I #
loop $-1 $-1 $217 $54 #
coedge $-1 $137 $137 $218 $219 reversed $86 $-1 #
face $-1 $220 $221 $33 $-1 $222 reversed single #
loop $-1 $-1 $223 $88 #
plane-surface $-1 0 -43.6469461942267 0 0 1 0 0 0 1 forward_v I I I I #
coedge $-1 $224 $225 $226 $227 forward $89 $-1 #
coedge $-1 $228 $91 $229 $230 forward $56 $-1 #
coedge $-1 $91 $228 $231 $232 forward $56 $-1 #
coedge $-1 $233 $234 $91 $145 reversed $235 $-1 #
edge $-1 $236 -43.6469461942267 $237 43.6469461942267 $144 $238 forward 7 unknown #
face $-1 $239 $240 $34 $-1 $241 reversed single #
loop $-1 $-1 $242 $92 #
plane-surface $-1 0 0 -12.466559936270261 0 0 1 1 0 0 forward_v I I I I #
coedge $-1 $243 $244 $245 $246 reversed $93 $-1 #
coedge $-1 $247 $95 $244 $248 forward $59 $-1 #
coedge $-1 $95 $247 $249 $250 reversed $59 $-1 #
coedge $-1 $251 $245 $95 $153 forward $240 $-1 #
edge $-1 $252 10.377267249636201 $253 25.6388750462724 $152 $254 forward 7 unknown #
face $-1 $255 $256 $35 $-1 $257 reversed single #
loop $-1 $-1 $258 $96 #
plane-surface $-1 0 49.493780685996342 8.2674137826213219 0 0 1 1 0 0 forward_v I I I I #
coedge $-1 $259 $260 $159 $261 forward $97 $-1 #
coedge $-1 $262 $99 $263 $264 reversed $62 $-1 #
coedge $-1 $99 $262 $157 $261 reversed $62 $-1 #
coedge $-1 $265 $258 $99 $161 reversed $155 $-1 #
edge $-1 $266 -69.091463972899561 $267 69.091463972899561 $160 $268 forward 7 unknown #
face $-1 $269 $270 $36 $-1 $271 reversed single #
loop $-1 $-1 $272 $100 #
plane-surface $-1 -177.98109829967137 -1.1650691061378069 92.337560854482746 0 -1 0 0.78801076186113728 0 -0.61566146476048833 forward_v I I I I #
coedge $-1 $273 $274 $275 $276 reversed $101 $-1 #
coedge $-1 $167 $103 $277 $278 reversed $65 $-1 #
coedge $-1 $103 $166 $273 $279 reversed $65 $-1 #
coedge $-1 $275 $280 $103 $169 forward $281 $-1 #
edge $-1 $282 19.899085176936126 $283 23.964038321003059 $168 $284 forward 7 unknown #
loop $-1 $-1 $175 $104 #
plane-surface $-1 -69.091463972899575 -5.5284641869994928 7.2636570304790382 -0.78801076186113728 0 0.61566146476048833 0.61566146476048833 0 0.78801076186113728 forward_v I I I I #
loop $-1 $-1 $285 $67 #
coedge $-1 $173 $173 $174 $286 reversed $105 $-1 #
coedge $-1 $174 $174 $173 $286 forward $107 $-1 #
coedge $-1 $175 $175 $108 $176 forward $170 $-1 #
edge $-1 $287 0 $287 6.2831853071796004 $175 $288 forward 7 unknown #
loop $-1 $-1 $182 $109 #
plane-surface $-1 -69.091463972899575 -5.5284641869994928 7.2636570304790382 -0.78801076186113728 0 0.61566146476048833 0.61566146476048833 0 0.78801076186113728 forward_v I I I I #
loop $-1 $-1 $289 $70 #
coedge $-1 $180 $180 $181 $290 reversed $110 $-1 #
coedge $-1 $181 $181 $180 $290 forward $112 $-1 #
coedge $-1 $182 $182 $113 $183 forward $177 $-1 #
edge $-1 $291 0 $291 6.2831853071796004 $182 $292 forward 7 unknown #
loop $-1 $-1 $189 $114 #
plane-surface $-1 -69.091463972899575 -5.5284641869994928 7.2636570304790382 -0.78801076186113728 0 0.61566146476048833 0.61566146476048833 0 0.78801076186113728 forward_v I I I I #
loop $-1 $-1 $293 $73 #
coedge $-1 $187 $187 $188 $294 reversed $115 $-1 #
coedge $-1 $188 $188 $187 $294 forward $117 $-1 #
coedge $-1 $189 $189 $118 $190 forward $184 $-1 #
edge $-1 $295 0 $295 6.2831853071796004 $189 $296 forward 7 unknown #
face $-1 $297 $298 $40 $-1 $299 forward single #
loop $-1 $-1 $300 $119 #
plane-surface $-1 25.131492084801224 -17.16364893886642 193.75333243000694 0 1 0 0.52991927123019833 0 0.84804809178421925 forward_v I I I I #
coedge $-1 $301 $302 $303 $304 reversed $120 $-1 #
coedge $-1 $196 $122 $305 $306 reversed $77 $-1 #
coedge $-1 $122 $195 $301 $307 reversed $77 $-1 #
coedge $-1 $303 $308 $122 $198 forward $298 $-1 #
edge $-1 $309 -56.525717930498949 $310 -41.922997944409936 $197 $311 forward 7 unknown #
loop $-1 $-1 $204 $123 #
plane-surface $-1 -48.094304388691654 -8.6846251497158704 76.56756406841572 0.52991927123019833 0 0.84804809178421925 0.84804809178421925 0 -0.52991927123019833 forward_v I I I I #
loop $-1 $-1 $312 $79 #
coedge $-1 $202 $202 $203 $313 reversed $124 $-1 #
coedge $-1 $203 $203 $202 $313 forward $126 $-1 #
coedge $-1 $204 $204 $127 $205 forward $199 $-1 #
edge $-1 $314 0 $314 6.2831853071796004 $204 $315 forward 7 unknown #
loop $-1 $-1 $211 $128 #
plane-surface $-1 -48.094304388691654 -8.6846251497158704 76.56756406841572 0.52991927123019833 0 0.84804809178421925 0.84804809178421925 0 -0.52991927123019833 forward_v I I I I #
loop $-1 $-1 $316 $82 #
coedge $-1 $209 $209 $210 $317 reversed $129 $-1 #
coedge $-1 $210 $210 $209 $317 forward $131 $-1 #
coedge $-1 $211 $211 $132 $212 forward $206 $-1 #
edge $-1 $318 0 $318 6.2831853071796004 $211 $319 forward 7 unknown #
loop $-1 $-1 $218 $133 #
plane-surface $-1 -48.094304388691654 -8.6846251497158704 76.56756406841572 0.52991927123019833 0 0.84804809178421925 0.84804809178421925 0 -0.52991927123019833 forward_v I I I I #
loop $-1 $-1 $320 $85 #
coedge $-1 $216 $216 $217 $321 reversed $134 $-1 #
coedge $-1 $217 $217 $216 $321 forward $136 $-1 #
coedge $-1 $218 $218 $137 $219 forward $213 $-1 #
edge $-1 $322 0 $322 6.2831853071796004 $218 $323 forward 7 unknown #
face $-1 $324 $325 $33 $-1 $326 reversed single #
loop $-1 $-1 $327 $138 #
plane-surface $-1 -69.091463972899561 0 0 1 0 0 0 0 -1 forward_v I I I I #
coedge $-1 $328 $231 $329 $330 forward $139 $-1 #
coedge $-1 $331 $141 $328 $332 forward $89 $-1 #
coedge $-1 $141 $331 $333 $334 forward $89 $-1 #
coedge $-1 $234 $233 $141 $227 reversed $235 $-1 #
edge $-1 $335 -43.6469461942267 $336 43.6469461942267 $226 $337 forward 7 unknown #
coedge $-1 $143 $142 $338 $339 forward $56 $-1 #
coedge $-1 $340 $341 $142 $230 reversed $325 $-1 #
edge $-1 $237 -69.091463972899561 $342 69.091463972899561 $229 $343 forward 7 unknown #
coedge $-1 $223 $344 $143 $232 reversed $139 $-1 #
edge $-1 $345 -69.091463972899561 $236 69.091463972899561 $231 $346 forward 7 unknown #
coedge $-1 $226 $144 $344 $347 forward $235 $-1 #
coedge $-1 $144 $226 $340 $348 reversed $235 $-1 #
loop $-1 $-1 $233 $324 #
vertex $-1 $145 $349 #
vertex $-1 $145 $350 #
straight-curve $-1 69.091463972899561 0 12.466559936270261 0 1 0 I I #
face $-1 $351 $352 $34 $-1 $353 reversed single #
loop $-1 $-1 $245 $146 #
plane-surface $-1 69.091463972899561 0 0 -1 0 0 0 0 1 forward_v I I I I #
coedge $-1 $354 $355 $243 $356 forward $147 $-1 #
coedge $-1 $357 $149 $242 $356 reversed $93 $-1 #
coedge $-1 $149 $357 $150 $248 reversed $93 $-1 #
coedge $-1 $152 $358 $149 $246 forward $240 $-1 #
edge $-1 $359 -6.9924705264660885 $252 -3.9557082931422576 $245 $360 forward 7 unknown #
coedge $-1 $151 $150 $361 $362 reversed $59 $-1 #
edge $-1 $252 -69.091463972899561 $363 69.091463972899561 $244 $364 forward 7 unknown #
coedge $-1 $365 $366 $151 $250 forward $352 $-1 #
edge $-1 $253 -69.091463972899561 $367 69.091463972899561 $249 $368 forward 7 unknown #
coedge $-1 $358 $152 $366 $369 forward $240 $-1 #
vertex $-1 $153 $370 #
vertex $-1 $369 $371 #
straight-curve $-1 69.091463972899561 -18.008071147954301 -9.4297977029464306 0 -1 0 I I #
face $-1 $372 $373 $35 $-1 $374 forward single #
loop $-1 $-1 $375 $154 #
plane-surface $-1 0 55.34061517776599 10.366986859445792 0 -1 0 0 0 -1 forward_v I I I I #
coedge $-1 $160 $376 $377 $378 forward $155 $-1 #
coedge $-1 $379 $157 $380 $381 reversed $97 $-1 #
coedge $-1 $157 $379 $265 $382 reversed $97 $-1 #
edge $-1 $266 8.2674137826213219 $383 12.466559936270261 $157 $384 forward 7 unknown #
coedge $-1 $159 $158 $385 $386 reversed $62 $-1 #
coedge $-1 $377 $387 $158 $264 forward $388 $-1 #
edge $-1 $389 -12.466559936270261 $267 -8.2674137826213219 $263 $390 forward 7 unknown #
coedge $-1 $376 $160 $260 $382 forward $155 $-1 #
vertex $-1 $261 $391 #
vertex $-1 $264 $392 #
straight-curve $-1 0 43.6469461942267 8.2674137826213219 1 0 0 I I #
face $-1 $-1 $281 $36 $-1 $393 forward single #
loop $-1 $-1 $394 $162 #
plane-surface $-1 -69.091463972899561 0 0 1 0 0 0 0 -1 forward_v I I I I #
coedge $-1 $395 $396 $397 $398 reversed $163 $-1 #
coedge $-1 $399 $165 $167 $279 forward $101 $-1 #
coedge $-1 $165 $399 $395 $400 forward $101 $-1 #
coedge $-1 $397 $168 $165 $276 forward $281 $-1 #
edge $-1 $283 -7.1276271743614323 $401 1.5991629873619395 $275 $402 forward 7 unknown #
coedge $-1 $403 $404 $166 $278 forward $270 $-1 #
edge $-1 $405 -38.90512339676232 $282 -33.702220490971115 $277 $406 forward 7 unknown #
edge $-1 $283 -6.6025784895410755 $405 -2.274695869299009e-014 $167 $407 forward 7 unknown #
coedge $-1 $168 $397 $403 $408 forward $281 $-1 #
loop $-1 $-1 $397 $269 #
vertex $-1 $278 $409 #
vertex $-1 $169 $410 #
straight-curve $-1 -88.990549149835687 -9.8918592678611788 12.466559936270265 1 0 0 I I #
coedge $-1 $285 $285 $-1 $411 reversed $172 $-1 #
edge $-1 $412 0 $412 6.2831853071796004 $173 $413 forward 7 unknown #
vertex $-1 $176 $414 #
ellipse-curve $-1 -67.058987400866087 -8.146501235516503 9.8651084833746587 -0.78801076186113728 0 0.61566146476048833 0.30783073238024417 0 0.39400538093056864 1 I I #
coedge $-1 $289 $289 $-1 $415 reversed $179 $-1 #
edge $-1 $416 0 $416 6.2831853071796004 $180 $417 forward 7 unknown #
vertex $-1 $183 $418 #
ellipse-curve $-1 -67.058987400866087 -5.5284641869994928 9.8651084833746587 -0.78801076186113728 0 0.61566146476048833 0.30783073238024417 0 0.39400538093056864 1 I I #
coedge $-1 $293 $293 $-1 $419 reversed $186 $-1 #
edge $-1 $420 0 $420 6.2831853071796004 $187 $421 forward 7 unknown #
vertex $-1 $190 $422 #
ellipse-curve $-1 -67.058987400866087 -2.9104271384824827 9.8651084833746587 -0.78801076186113728 0 0.61566146476048833 0.30783073238024417 0 0.39400538093056864 1 I I #
face $-1 $-1 $423 $40 $-1 $424 reversed single #
loop $-1 $-1 $197 $191 #
plane-surface $-1 0 0 12.466559936270261 0 0 1 1 0 0 forward_v I I I I #
coedge $-1 $425 $426 $427 $428 reversed $192 $-1 #
coedge $-1 $429 $194 $196 $307 forward $120 $-1 #
coedge $-1 $194 $429 $425 $430 forward $120 $-1 #
coedge $-1 $427 $197 $194 $304 forward $298 $-1 #
edge $-1 $310 -4.1367112142926139 $431 12.821336364008484 $303 $432 forward 7 unknown #
coedge $-1 $433 $434 $195 $306 forward $423 $-1 #
edge $-1 $435 -93.534898620080625 $309 -84.41010627873321 $305 $436 forward 7 unknown #
edge $-1 $310 120.96371581908335 $435 138.18292794579912 $196 $437 forward 7 unknown #
coedge $-1 $197 $427 $433 $438 forward $298 $-1 #
vertex $-1 $306 $439 #
vertex $-1 $198 $440 #
straight-curve $-1 12.565746042400612 -0.2056013605653213 12.466559936270258 -1 0 0 I I #
coedge $-1 $312 $312 $-1 $441 reversed $201 $-1 #
edge $-1 $442 0 $442 6.2831853071796004 $202 $443 forward 7 unknown #
vertex $-1 $205 $444 #
ellipse-curve $-1 61.790103979855068 -13.772039423206195 7.9041637655965413 0.52991927123019833 0 0.84804809178421925 1.2720721376763289 0 -0.79487890684529749 1 I I #
coedge $-1 $316 $316 $-1 $445 reversed $208 $-1 #
edge $-1 $446 0 $446 6.2831853071796004 $209 $447 forward 7 unknown #
vertex $-1 $212 $448 #
ellipse-curve $-1 61.790103979855068 -8.6846251497158633 7.9041637655965413 0.52991927123019833 0 0.84804809178421925 1.2720721376763289 0 -0.79487890684529749 1 I I #
coedge $-1 $320 $320 $-1 $449 reversed $215 $-1 #
edge $-1 $450 0 $450 6.2831853071796004 $216 $451 forward 7 unknown #
vertex $-1 $219 $452 #
ellipse-curve $-1 61.790103979855068 -3.5972108762255317 7.9041637655965413 0.52991927123019833 0 0.84804809178421925 1.2720721376763289 0 -0.79487890684529749 1 I I #
face $-1 $-1 $235 $33 $-1 $453 reversed single #
loop $-1 $-1 $340 $220 #
plane-surface $-1 0 43.6469461942267 0 0 -1 0 0 0 -1 forward_v I I I I #
coedge $-1 $454 $338 $341 $455 forward $221 $-1 #
coedge $-1 $344 $223 $224 $332 reversed $139 $-1 #
coedge $-1 $338 $454 $223 $330 reversed $221 $-1 #
edge $-1 $345 -12.466559936270261 $456 12.466559936270261 $329 $457 forward 7 unknown #
coedge $-1 $225 $224 $454 $458 forward $89 $-1 #
edge $-1 $336 -69.091463972899561 $456 69.091463972899561 $328 $459 forward 7 unknown #
coedge $-1 $341 $340 $225 $334 reversed $325 $-1 #
edge $-1 $460 -69.091463972899561 $335 69.091463972899561 $333 $461 forward 7 unknown #
vertex $-1 $227 $462 #
vertex $-1 $347 $463 #
straight-curve $-1 69.091463972899561 0 -12.466559936270261 0 -1 0 I I #
coedge $-1 $327 $329 $228 $339 reversed $221 $-1 #
edge $-1 $342 -43.6469461942267 $345 43.6469461942267 $338 $464 forward 7 unknown #
coedge $-1 $333 $229 $234 $348 forward $325 $-1 #
coedge $-1 $229 $333 $327 $455 reversed $325 $-1 #
vertex $-1 $230 $465 #
straight-curve $-1 0 43.6469461942267 12.466559936270261 -1 0 0 I I #
coedge $-1 $231 $328 $233 $347 reversed $139 $-1 #
vertex $-1 $339 $466 #
straight-curve $-1 0 -43.6469461942267 12.466559936270261 1 0 0 I I #
edge $-1 $236 -12.466559936270261 $336 12.466559936270261 $233 $467 forward 7 unknown #
edge $-1 $237 -12.466559936270261 $335 12.466559936270261 $234 $468 forward 7 unknown #
point $-1 69.091463972899561 -43.6469461942267 12.466559936270261 #
point $-1 69.091463972899561 43.6469461942267 12.466559936270261 #
face $-1 $-1 $469 $34 $-1 $470 reversed single #
loop $-1 $-1 $249 $239 #
plane-surface $-1 0 -43.6469461942267 0 0 1 0 0 0 1 forward_v I I I I #
coedge $-1 $471 $242 $358 $472 forward $147 $-1 #
coedge $-1 $242 $471 $473 $474 forward $147 $-1 #
edge $-1 $475 -69.091463972899561 $359 69.091463972899561 $242 $476 forward 7 unknown #
coedge $-1 $244 $243 $477 $478 reversed $93 $-1 #
coedge $-1 $245 $251 $354 $472 reversed $240 $-1 #
vertex $-1 $472 $479 #
straight-curve $-1 69.091463972899561 -28.385338397590502 -5.474089409804173 0 0 1 I I #
coedge $-1 $477 $480 $247 $362 forward $469 $-1 #
edge $-1 $367 -25.6388750462724 $363 -10.377267249636201 $361 $481 forward 7 unknown #
vertex $-1 $362 $482 #
straight-curve $-1 0 -28.385338397590502 -9.4297977029464306 -1 0 0 I I #
coedge $-1 $483 $249 $480 $484 forward $352 $-1 #
coedge $-1 $249 $483 $251 $369 reversed $352 $-1 #
vertex $-1 $484 $485 #
straight-curve $-1 0 -43.6469461942267 -9.4297977029464306 -1 0 0 I I #
edge $-1 $253 9.4297977029464306 $486 12.466559936270261 $251 $487 forward 7 unknown #
point $-1 69.091463972899561 -28.385338397590502 -9.4297977029464306 #
point $-1 69.091463972899561 -43.6469461942267 -9.4297977029464306 #
face $-1 $-1 $388 $35 $-1 $488 reversed single #
loop $-1 $-1 $385 $255 #
plane-surface $-1 0 0 12.466559936270261 0 0 1 1 0 0 forward_v I I I I #
coedge $-1 $489 $490 $491 $492 forward $256 $-1 #
coedge $-1 $258 $265 $489 $493 forward $155 $-1 #
coedge $-1 $491 $263 $258 $378 reversed $388 $-1 #
edge $-1 $494 -5.8468344917696484 $267 5.8468344917696484 $377 $495 forward 7 unknown #
coedge $-1 $260 $259 $496 $497 forward $97 $-1 #
coedge $-1 $385 $498 $259 $381 forward $373 $-1 #
edge $-1 $499 -55.34061517776599 $383 -43.6469461942267 $259 $500 forward 7 unknown #
edge $-1 $266 -5.8468344917696484 $501 5.8468344917696484 $260 $502 forward 7 unknown #
vertex $-1 $261 $503 #
straight-curve $-1 -69.091463972899561 43.6469461942267 0 0 0 1 I I #
coedge $-1 $504 $380 $262 $386 forward $373 $-1 #
edge $-1 $383 -69.091463972899561 $389 69.091463972899561 $385 $505 forward 7 unknown #
coedge $-1 $263 $491 $504 $506 reversed $388 $-1 #
loop $-1 $-1 $263 $372 #
vertex $-1 $506 $507 #
straight-curve $-1 69.091463972899561 43.6469461942267 0 0 0 -1 I I #
point $-1 -69.091463972899561 43.646946194226693 8.2674137826213219 #
point $-1 69.091463972899561 43.646946194226693 8.2674137826213219 #
plane-surface $-1 0 0 12.466559936270261 0 0 1 1 0 0 forward_v I I I I #
coedge $-1 $404 $403 $396 $508 forward $270 $-1 #
coedge $-1 $396 $272 $274 $400 reversed $163 $-1 #
coedge $-1 $272 $395 $394 $508 reversed $163 $-1 #
coedge $-1 $280 $275 $272 $398 forward $281 $-1 #
edge $-1 $401 -23.964038321003059 $509 -19.899085176936126 $397 $510 forward 7 unknown #
coedge $-1 $274 $273 $404 $511 reversed $101 $-1 #
edge $-1 $512 2.274695869299009e-014 $401 6.6025784895410755 $395 $513 forward 7 unknown #
vertex $-1 $276 $514 #
straight-curve $-1 -65.026510828832627 -2.7642320934997464 12.46655993627026 0 1 0 I I #
coedge $-1 $394 $277 $280 $408 reversed $270 $-1 #
coedge $-1 $277 $394 $399 $511 forward $270 $-1 #
vertex $-1 $278 $515 #
straight-curve $-1 -69.091463972899561 -9.8918592678611788 46.168780427241373 0 0 1 I I #
straight-curve $-1 -69.091463972899575 -9.8918592678611788 7.2636570304790382 -0.61566146476048833 0 -0.78801076186113728 I I #
edge $-1 $509 1.1650691061378069 $282 9.8918592678611788 $403 $516 forward 7 unknown #
point $-1 -69.091463972899561 -9.8918592678611788 12.466559936270261 #
point $-1 -65.026510828832627 -9.8918592678611788 12.466559936270261 #
edge $-1 $517 1 $517 0 $285 $-1 forward 7 unknown #
vertex $-1 $286 $518 #
ellipse-curve $-1 -65.652510720160294 -8.146501235516503 8.7662484990900875 -0.78801076186113728 0 0.61566146476048833 0.30783073238024417 0 0.39400538093056864 1 I I #
point $-1 -66.751156668485848 -8.146501235516503 10.259113864305224 #
edge $-1 $519 1 $519 0 $289 $-1 forward 7 unknown #
vertex $-1 $290 $520 #
ellipse-curve $-1 -65.652510720160294 -5.5284641869994928 8.7662484990900875 -0.78801076186113728 0 0.61566146476048833 0.30783073238024417 0 0.39400538093056864 1 I I #
point $-1 -66.751156668485848 -5.5284641869994928 10.259113864305224 #
edge $-1 $521 1 $521 0 $293 $-1 forward 7 unknown #
vertex $-1 $294 $522 #
ellipse-curve $-1 -65.652510720160294 -2.9104271384824827 8.7662484990900875 -0.78801076186113728 0 0.61566146476048833 0.30783073238024417 0 0.39400538093056864 1 I I #
point $-1 -66.751156668485848 -2.9104271384824827 10.259113864305224 #
loop $-1 $-1 $305 $297 #
plane-surface $-1 69.091463972899561 0 0 -1 0 0 0 0 1 forward_v I I I I #
coedge $-1 $426 $300 $302 $430 reversed $192 $-1 #
coedge $-1 $300 $425 $523 $524 reversed $192 $-1 #
coedge $-1 $308 $303 $300 $428 forward $298 $-1 #
edge $-1 $431 41.922997944409936 $525 56.525717930498949 $427 $526 forward 7 unknown #
coedge $-1 $302 $301 $434 $527 reversed $120 $-1 #
edge $-1 $528 -138.18292794579912 $431 -120.96371581908335 $425 $529 forward 7 unknown #
vertex $-1 $304 $530 #
straight-curve $-1 54.488743986810562 -4.3423125748579352 12.466559936270265 0 -1 0 I I #
coedge $-1 $523 $305 $308 $438 reversed $423 $-1 #
coedge $-1 $305 $523 $429 $527 forward $423 $-1 #
vertex $-1 $306 $531 #
straight-curve $-1 69.091463972899561 -0.2056013605653213 96.876666215003468 0 0 1 I I #
straight-curve $-1 -48.094304388691654 -0.2056013605653213 76.56756406841572 0.84804809178421925 0 -0.52991927123019833 I I #
edge $-1 $525 -17.16364893886642 $309 -0.2056013605653213 $433 $532 forward 7 unknown #
point $-1 69.091463972899561 -0.2056013605653213 12.466559936270261 #
point $-1 54.488743986810547 -0.2056013605653213 12.466559936270258 #
edge $-1 $533 1 $533 0 $312 $-1 forward 7 unknown #
vertex $-1 $313 $534 #
ellipse-curve $-1 58.842232954709857 -13.772039423206195 3.1865840635094163 0.52991927123019833 0 0.84804809178421925 1.2720721376763289 0 -0.79487890684529749 1 I I #
point $-1 63.062176117531415 -13.772039423206195 7.1092848587512751 #
edge $-1 $535 1 $535 0 $316 $-1 forward 7 unknown #
vertex $-1 $317 $536 #
ellipse-curve $-1 58.842232954709857 -8.6846251497158633 3.1865840635094163 0.52991927123019833 0 0.84804809178421925 1.2720721376763289 0 -0.79487890684529749 1 I I #
point $-1 63.062176117531415 -8.6846251497158633 7.1092848587512751 #
edge $-1 $537 1 $537 0 $320 $-1 forward 7 unknown #
vertex $-1 $321 $538 #
ellipse-curve $-1 58.842232954709857 -3.5972108762255317 3.1865840635094163 0.52991927123019833 0 0.84804809178421925 1.2720721376763289 0 -0.79487890684529749 1 I I #
point $-1 63.062176117531415 -3.5972108762255317 7.1092848587512751 #
plane-surface $-1 69.091463972899561 0 0 -1 0 0 0 0 1 forward_v I I I I #
coedge $-1 $329 $327 $331 $458 reversed $221 $-1 #
edge $-1 $342 -12.466559936270261 $460 12.466559936270261 $341 $539 forward 7 unknown #
vertex $-1 $458 $540 #
straight-curve $-1 -69.091463972899561 -43.6469461942267 0 0 0 -1 I I #
edge $-1 $456 -43.6469461942267 $460 43.6469461942267 $454 $541 forward 7 unknown #
straight-curve $-1 0 -43.6469461942267 -12.466559936270261 -1 0 0 I I #
vertex $-1 $334 $542 #
straight-curve $-1 0 43.6469461942267 -12.466559936270261 1 0 0 I I #
point $-1 69.091463972899561 43.6469461942267 -12.466559936270261 #
point $-1 69.091463972899561 -43.6469461942267 -12.466559936270261 #
straight-curve $-1 -69.091463972899561 0 12.466559936270261 0 -1 0 I I #
point $-1 -69.091463972899561 43.6469461942267 12.466559936270261 #
point $-1 -69.091463972899561 -43.6469461942267 12.466559936270261 #
straight-curve $-1 69.091463972899561 -43.6469461942267 0 0 0 -1 I I #
straight-curve $-1 69.091463972899561 43.6469461942267 0 0 0 -1 I I #
loop $-1 $-1 $477 $351 #
plane-surface $-1 -69.091463972899561 0 0 1 0 0 0 0 -1 forward_v I I I I #
coedge $-1 $355 $354 $483 $543 forward $147 $-1 #
edge $-1 $359 28.385338397590502 $486 43.6469461942267 $358 $544 forward 7 unknown #
coedge $-1 $480 $477 $355 $474 reversed $469 $-1 #
edge $-1 $545 -43.6469461942267 $475 -28.385338397590502 $473 $546 forward 7 unknown #
vertex $-1 $478 $547 #
straight-curve $-1 0 -28.385338397590502 -12.466559936270261 1 0 0 I I #
coedge $-1 $473 $361 $357 $478 forward $469 $-1 #
edge $-1 $363 3.9557082931422576 $475 6.9924705264660885 $477 $548 forward 7 unknown #
point $-1 69.091463972899561 -28.385338397590502 -12.466559936270261 #
coedge $-1 $361 $473 $365 $484 reversed $469 $-1 #
straight-curve $-1 -69.091463972899561 -18.008071147954301 -9.4297977029464306 0 1 0 I I #
point $-1 -69.091463972899561 -28.385338397590502 -9.4297977029464306 #
coedge $-1 $366 $365 $471 $543 reversed $352 $-1 #
edge $-1 $367 9.4297977029464306 $545 12.466559936270261 $480 $549 forward 7 unknown #
point $-1 -69.091463972899561 -43.6469461942267 -9.4297977029464306 #
vertex $-1 $369 $550 #
straight-curve $-1 69.091463972899561 -43.6469461942267 0 0 0 -1 I I #
plane-surface $-1 69.091463972899561 0 0 -1 0 0 0 0 1 forward_v I I I I #
coedge $-1 $496 $375 $376 $493 reversed $256 $-1 #
coedge $-1 $375 $496 $498 $551 reversed $256 $-1 #
coedge $-1 $387 $377 $375 $492 reversed $388 $-1 #
edge $-1 $552 -2.0995730768244698 $494 2.0995730768244698 $491 $553 forward 7 unknown #
edge $-1 $501 -69.091463972899561 $494 69.091463972899561 $489 $554 forward 7 unknown #
vertex $-1 $378 $555 #
straight-curve $-1 69.091463972899561 49.493780685996342 8.2674137826213219 0 -1 0 I I #
coedge $-1 $490 $489 $379 $497 reversed $256 $-1 #
edge $-1 $499 -2.0995730768244698 $501 2.0995730768244698 $496 $556 forward 7 unknown #
coedge $-1 $380 $504 $490 $551 forward $373 $-1 #
vertex $-1 $551 $557 #
straight-curve $-1 -69.091463972899561 0 12.466559936270261 0 -1 0 I I #
vertex $-1 $493 $558 #
straight-curve $-1 -69.091463972899561 49.493780685996342 8.2674137826213219 0 1 0 I I #
point $-1 -69.091463972899561 43.6469461942267 12.466559936270261 #
coedge $-1 $498 $385 $387 $506 forward $373 $-1 #
straight-curve $-1 0 43.6469461942267 12.466559936270261 1 0 0 I I #
edge $-1 $389 43.6469461942267 $552 55.34061517776599 $387 $559 forward 7 unknown #
point $-1 69.091463972899561 43.6469461942267 12.466559936270261 #
edge $-1 $509 33.702220490971115 $512 38.90512339676232 $394 $560 forward 7 unknown #
vertex $-1 $408 $561 #
straight-curve $-1 -88.990549149835687 -1.1650691061378069 12.466559936270265 -1 0 0 I I #
edge $-1 $512 -1.5991629873619395 $405 7.1276271743614323 $404 $562 forward 7 unknown #
vertex $-1 $511 $563 #
straight-curve $-1 -69.091463972899575 -1.1650691061378069 7.2636570304790382 0.61566146476048833 0 0.78801076186113728 I I #
point $-1 -65.026510828832627 -1.1650691061378069 12.466559936270261 #
point $-1 -69.091463972899561 -9.8918592678611788 7.263657030479056 #
straight-curve $-1 -69.091463972899561 0 12.466559936270261 0 -1 0 I I #
vertex $-1 $411 $564 #
point $-1 -65.344679987780054 -8.146501235516503 9.1602538800206563 #
vertex $-1 $415 $565 #
point $-1 -65.344679987780054 -5.5284641869994928 9.1602538800206563 #
vertex $-1 $419 $566 #
point $-1 -65.344679987780054 -2.9104271384824827 9.1602538800206563 #
coedge $-1 $434 $433 $426 $524 forward $423 $-1 #
edge $-1 $525 84.41010627873321 $528 93.534898620080625 $523 $567 forward 7 unknown #
vertex $-1 $438 $568 #
straight-curve $-1 12.565746042400612 -17.16364893886642 12.466559936270258 1 0 0 I I #
edge $-1 $528 -12.821336364008484 $435 4.1367112142926139 $434 $569 forward 7 unknown #
vertex $-1 $527 $570 #
straight-curve $-1 -48.094304388691654 -17.16364893886642 76.56756406841572 -0.84804809178421925 0 0.52991927123019833 I I #
point $-1 54.488743986810547 -17.16364893886642 12.466559936270258 #
point $-1 69.091463972899561 -0.2056013605653213 3.3417675949228425 #
straight-curve $-1 69.091463972899561 0 12.466559936270261 0 1 0 I I #
vertex $-1 $441 $571 #
point $-1 60.114305092386189 -13.772039423206195 2.391705156664119 #
vertex $-1 $445 $572 #
point $-1 60.114305092386189 -8.6846251497158633 2.391705156664119 #
vertex $-1 $449 $573 #
point $-1 60.114305092386189 -3.5972108762255317 2.391705156664119 #
straight-curve $-1 -69.091463972899561 43.6469461942267 0 0 0 -1 I I #
point $-1 -69.091463972899561 -43.6469461942267 -12.466559936270261 #
straight-curve $-1 -69.091463972899561 0 -12.466559936270261 0 1 0 I I #
point $-1 -69.091463972899561 43.6469461942267 -12.466559936270261 #
edge $-1 $486 -69.091463972899561 $545 69.091463972899561 $483 $574 forward 7 unknown #
straight-curve $-1 69.091463972899561 0 -12.466559936270261 0 -1 0 I I #
vertex $-1 $474 $575 #
straight-curve $-1 -69.091463972899561 0 -12.466559936270261 0 1 0 I I #
point $-1 -69.091463972899561 -28.385338397590502 -12.466559936270261 #
straight-curve $-1 -69.091463972899561 -28.385338397590502 -5.474089409804173 0 0 -1 I I #
straight-curve $-1 -69.091463972899561 -43.6469461942267 0 0 0 -1 I I #
point $-1 69.091463972899561 -43.6469461942267 -12.466559936270261 #
edge $-1 $552 -69.091463972899561 $499 69.091463972899561 $490 $576 forward 7 unknown #
vertex $-1 $506 $577 #
straight-curve $-1 69.091463972899561 55.34061517776599 10.366986859445792 0 0 -1 I I #
straight-curve $-1 0 55.34061517776599 8.2674137826213219 1 0 0 I I #
point $-1 69.091463972899561 55.34061517776599 8.2674137826213219 #
straight-curve $-1 -69.091463972899561 55.34061517776599 10.366986859445792 0 0 -1 I I #
point $-1 -69.091463972899561 55.34061517776599 12.466559936270261 #
point $-1 -69.091463972899561 55.34061517776599 8.2674137826213219 #
straight-curve $-1 69.091463972899561 0 12.466559936270261 0 1 0 I I #
straight-curve $-1 -69.091463972899561 -1.1650691061378069 46.168780427241373 0 0 -1 I I #
point $-1 -69.091463972899561 -1.1650691061378069 12.466559936270261 #
straight-curve $-1 -69.091463972899561 -2.7642320934997464 7.2636570304790542 0 -1 0 I I #
point $-1 -69.091463972899561 -1.1650691061378069 7.263657030479056 #
point $-1 -65.258505339229728 -8.146501235516503 8.4584177667098448 #
point $-1 -65.258505339229728 -5.5284641869994928 8.4584177667098448 #
point $-1 -65.258505339229728 -2.9104271384824827 8.4584177667098448 #
straight-curve $-1 69.091463972899561 -17.16364893886642 96.876666215003468 0 0 -1 I I #
point $-1 69.091463972899561 -17.16364893886642 12.466559936270261 #
straight-curve $-1 69.091463972899561 -4.3423125748579352 3.3417675949228354 0 1 0 I I #
point $-1 69.091463972899561 -17.16364893886642 3.3417675949228425 #
point $-1 58.047354047864559 -13.772039423206195 1.9145119258330876 #
point $-1 58.047354047864559 -8.6846251497158633 1.9145119258330876 #
point $-1 58.047354047864559 -3.5972108762255317 1.9145119258330876 #
straight-curve $-1 0 -43.6469461942267 -12.466559936270261 -1 0 0 I I #
point $-1 -69.091463972899561 -43.6469461942267 -12.466559936270261 #
straight-curve $-1 0 55.34061517776599 12.466559936270261 -1 0 0 I I #
point $-1 69.091463972899561 55.34061517776599 12.466559936270261 #
End-of-ACIS-data 