500 0 19 0           
7 Unknown 11 ACIS 5.0 NT 24 Fri Mar 26 16:21:55 1999 
-1 9.9999999999999995e-007 1e-010 
body $-1 $19 $-1 $20 #
body $-1 $21 $-1 $22 #
body $-1 $23 $-1 $24 #
body $-1 $25 $-1 $26 #
body $-1 $27 $-1 $28 #
body $-1 $29 $-1 $30 #
body $-1 $31 $-1 $32 #
body $-1 $33 $-1 $34 #
body $-1 $35 $-1 $36 #
body $-1 $37 $-1 $38 #
body $-1 $39 $-1 $40 #
body $-1 $41 $-1 $42 #
body $-1 $43 $-1 $44 #
body $-1 $45 $-1 $46 #
body $-1 $47 $-1 $48 #
body $-1 $49 $-1 $50 #
body $-1 $51 $-1 $52 #
body $-1 $53 $-1 $54 #
body $-1 $55 $-1 $56 #
lump $-1 $-1 $57 $0 #
transform $-1 1 0 0 0 1 0 0 0 1 53.264564958647419 36.806794596169006 15.539011598440624 1 rotate no_reflect no_shear #
lump $-1 $-1 $58 $1 #
transform $-1 1 0 0 0 1 0 0 0 1 53.264564958647419 36.806794596169006 15.539011598440624 1 rotate no_reflect no_shear #
lump $-1 $-1 $59 $2 #
transform $-1 1 0 0 0 1 0 0 0 1 53.264564958647419 36.806794596169006 15.539011598440624 1 rotate no_reflect no_shear #
lump $-1 $-1 $60 $3 #
transform $-1 1 0 0 0 1 0 0 0 1 53.264564958647419 36.806794596169006 15.539011598440624 1 rotate no_reflect no_shear #
lump $-1 $-1 $61 $4 #
transform $-1 1 0 0 0 1 0 0 0 1 53.264564958647419 36.806794596169006 15.539011598440624 1 rotate no_reflect no_shear #
lump $-1 $-1 $62 $5 #
transform $-1 1 0 0 0 1 0 0 0 1 53.264564958647419 36.806794596169006 15.539011598440624 1 rotate no_reflect no_shear #
lump $-1 $-1 $63 $6 #
transform $-1 1 0 0 0 1 0 0 0 1 53.264564958647419 36.806794596169006 15.539011598440624 1 rotate no_reflect no_shear #
lump $-1 $-1 $64 $7 #
transform $-1 1 0 0 0 1 0 0 0 1 53.264564958647419 36.806794596169006 15.539011598440624 1 rotate no_reflect no_shear #
lump $-1 $-1 $65 $8 #
transform $-1 1 0 0 0 1 0 0 0 1 53.264564958647419 36.806794596169006 15.539011598440624 1 rotate no_reflect no_shear #
lump $-1 $-1 $66 $9 #
transform $-1 1 0 0 0 1 0 0 0 1 53.264564958647419 36.806794596169006 15.539011598440624 1 rotate no_reflect no_shear #
lump $-1 $-1 $67 $10 #
transform $-1 1 0 0 0 1 0 0 0 1 53.264564958647419 36.806794596169006 15.539011598440624 1 rotate no_reflect no_shear #
lump $-1 $-1 $68 $11 #
transform $-1 1 0 0 0 1 0 0 0 1 53.264564958647419 36.806794596169006 15.539011598440624 1 rotate no_reflect no_shear #
lump $-1 $-1 $69 $12 #
transform $-1 1 0 0 0 1 0 0 0 1 53.264564958647419 36.806794596169006 15.539011598440624 1 rotate no_reflect no_shear #
lump $-1 $-1 $70 $13 #
transform $-1 1 0 0 0 1 0 0 0 1 53.264564958647419 36.806794596169006 15.539011598440624 1 rotate no_reflect no_shear #
lump $-1 $-1 $71 $14 #
transform $-1 1 0 0 0 1 0 0 0 1 53.264564958647419 36.806794596169006 15.539011598440624 1 rotate no_reflect no_shear #
lump $-1 $-1 $72 $15 #
transform $-1 1 0 0 0 1 0 0 0 1 53.264564958647419 36.806794596169006 15.539011598440624 1 rotate no_reflect no_shear #
lump $-1 $-1 $73 $16 #
transform $-1 1 0 0 0 1 0 0 0 1 53.264564958647419 36.806794596169006 15.539011598440624 1 rotate no_reflect no_shear #
lump $-1 $-1 $74 $17 #
transform $-1 1 0 0 0 1 0 0 0 1 53.264564958647419 36.806794596169006 15.539011598440624 1 rotate no_reflect no_shear #
lump $-1 $-1 $75 $18 #
transform $-1 1 0 0 0 1 0 0 0 1 53.264564958647419 36.806794596169006 15.539011598440624 1 rotate no_reflect no_shear #
shell $-1 $-1 $-1 $76 $-1 $19 #
shell $-1 $-1 $-1 $77 $-1 $21 #
shell $-1 $-1 $-1 $78 $-1 $23 #
shell $-1 $-1 $-1 $79 $-1 $25 #
shell $-1 $-1 $-1 $80 $-1 $27 #
shell $-1 $-1 $-1 $81 $-1 $29 #
shell $-1 $-1 $-1 $82 $-1 $31 #
shell $-1 $-1 $-1 $83 $-1 $33 #
shell $-1 $-1 $-1 $84 $-1 $35 #
shell $-1 $-1 $-1 $85 $-1 $37 #
shell $-1 $-1 $-1 $86 $-1 $39 #
shell $-1 $-1 $-1 $87 $-1 $41 #
shell $-1 $-1 $-1 $88 $-1 $43 #
shell $-1 $-1 $-1 $89 $-1 $45 #
shell $-1 $-1 $-1 $90 $-1 $47 #
shell $-1 $-1 $-1 $91 $-1 $49 #
shell $-1 $-1 $-1 $92 $-1 $51 #
shell $-1 $-1 $-1 $93 $-1 $53 #
shell $-1 $-1 $-1 $94 $-1 $55 #
face $-1 $95 $96 $57 $-1 $97 forward single #
face $-1 $98 $99 $58 $-1 $100 reversed single #
face $-1 $101 $102 $59 $-1 $103 forward single #
face $-1 $104 $105 $60 $-1 $106 forward single #
face $-1 $107 $108 $61 $-1 $109 reversed single #
face $-1 $110 $111 $62 $-1 $112 forward single #
face $-1 $113 $114 $63 $-1 $115 forward single #
face $-1 $116 $117 $64 $-1 $118 reversed single #
face $-1 $119 $120 $65 $-1 $121 forward single #
face $-1 $122 $123 $66 $-1 $124 forward single #
face $-1 $125 $126 $67 $-1 $127 reversed single #
face $-1 $128 $129 $68 $-1 $130 forward single #
face $-1 $131 $132 $69 $-1 $133 forward single #
face $-1 $134 $135 $70 $-1 $136 reversed single #
face $-1 $137 $138 $71 $-1 $139 forward single #
face $-1 $140 $141 $72 $-1 $142 forward single #
face $-1 $143 $144 $73 $-1 $145 reversed single #
face $-1 $146 $147 $74 $-1 $148 forward single #
face $-1 $149 $150 $75 $-1 $151 forward single #
face $-1 $152 $153 $57 $-1 $154 reversed single #
loop $-1 $-1 $155 $76 #
plane-surface $-1 0 0 15.539011598440624 0 0 1 1 0 0 forward_v I I I I #
face $-1 $156 $157 $58 $-1 $158 reversed single #
loop $-1 $-1 $159 $77 #
plane-surface $-1 -31.809339814636104 -94.826717875491909 99.802034978047502 -1 0 0 0 -0.54463904215088732 0.83867056331134215 forward_v I I I I #
face $-1 $160 $161 $59 $-1 $162 forward single #
loop $-1 $163 $164 $78 #
cone-surface $-1 -43.690173929672746 -30.875438998169948 9.8882104785543756 0 0.54463904215088732 -0.83867056331134215 2 0 0 1 I I 0 1 2 forward I I I I #
face $-1 $165 $166 $60 $-1 $167 forward single #
loop $-1 $168 $169 $79 #
cone-surface $-1 -36.561673460650759 -30.875438998169948 9.8882104785543756 0 0.54463904215088732 -0.83867056331134215 2 0 0 1 I I 0 1 2 forward I I I I #
face $-1 $170 $171 $61 $-1 $172 reversed single #
loop $-1 $-1 $173 $80 #
plane-surface $-1 -5.177057335312389 -94.826717875491909 99.802034978047502 -1 0 0 0 -0.54463904215088732 0.83867056331134215 forward_v I I I I #
face $-1 $174 $175 $62 $-1 $176 forward single #
loop $-1 $177 $178 $81 #
cone-surface $-1 -17.057891450349032 -30.875438998169948 9.8882104785543756 0 0.54463904215088732 -0.83867056331134215 2 0 0 1 I I 0 1 2 forward I I I I #
face $-1 $179 $180 $63 $-1 $181 forward single #
loop $-1 $182 $183 $82 #
cone-surface $-1 -9.9293909813270531 -30.875438998169948 9.8882104785543756 0 0.54463904215088732 -0.83867056331134215 2 0 0 1 I I 0 1 2 forward I I I I #
face $-1 $184 $185 $64 $-1 $186 reversed single #
loop $-1 $-1 $187 $83 #
plane-surface $-1 21.455225144011322 -94.826717875491909 99.802034978047502 -1 0 0 0 -0.54463904215088732 0.83867056331134215 forward_v I I I I #
face $-1 $188 $189 $65 $-1 $190 forward single #
loop $-1 $191 $192 $84 #
cone-surface $-1 9.5743910289746808 -30.875438998169948 9.8882104785543756 0 0.54463904215088732 -0.83867056331134215 2 0 0 1 I I 0 1 2 forward I I I I #
face $-1 $193 $194 $66 $-1 $195 forward single #
loop $-1 $196 $197 $85 #
cone-surface $-1 16.702891497996653 -30.875438998169948 9.8882104785543756 0 0.54463904215088732 -0.83867056331134215 2 0 0 1 I I 0 1 2 forward I I I I #
face $-1 $198 $199 $67 $-1 $200 reversed single #
loop $-1 $-1 $201 $86 #
plane-surface $-1 48.087507623335028 -94.826717875491909 99.802034978047502 -1 0 0 0 -0.54463904215088732 0.83867056331134215 forward_v I I I I #
face $-1 $202 $203 $68 $-1 $204 forward single #
loop $-1 $205 $206 $87 #
cone-surface $-1 36.206673508298387 -30.875438998169948 9.8882104785543756 0 0.54463904215088732 -0.83867056331134215 2 0 0 1 I I 0 1 2 forward I I I I #
face $-1 $207 $208 $69 $-1 $209 forward single #
loop $-1 $210 $211 $88 #
cone-surface $-1 43.335173977320359 -30.875438998169948 9.8882104785543756 0 0.54463904215088732 -0.83867056331134215 2 0 0 1 I I 0 1 2 forward I I I I #
face $-1 $212 $213 $70 $-1 $214 reversed single #
loop $-1 $-1 $215 $89 #
plane-surface $-1 -37.203035784430554 62.301143234868356 137.96094650579053 1 0 0 0 -0.71933980857756763 -0.69465836192734942 forward_v I I I I #
face $-1 $216 $217 $71 $-1 $218 forward single #
loop $-1 $219 $220 $90 #
cone-surface $-1 -29.728129517114926 33.883645384430615 12.563308111338623 0 -0.71933980857756763 -0.69465836192734942 1 0 0 1 I I 0 1 1 forward I I I I #
face $-1 $221 $222 $72 $-1 $223 forward single #
loop $-1 $224 $225 $91 #
cone-surface $-1 -18.515770116141489 33.883645384430615 12.563308111338623 0 -0.71933980857756763 -0.69465836192734942 1 0 0 1 I I 0 1 1 forward I I I I #
face $-1 $226 $227 $73 $-1 $228 reversed single #
loop $-1 $-1 $229 $92 #
plane-surface $-1 11.040863848825861 62.301143234868356 137.96094650579053 1 0 0 0 -0.71933980857756763 -0.69465836192734942 forward_v I I I I #
face $-1 $230 $231 $74 $-1 $232 forward single #
loop $-1 $233 $234 $93 #
cone-surface $-1 18.515770116141489 33.883645384430615 12.563308111338623 0 -0.71933980857756763 -0.69465836192734942 1 0 0 1 I I 0 1 1 forward I I I I #
face $-1 $235 $236 $75 $-1 $237 forward single #
loop $-1 $238 $239 $94 #
cone-surface $-1 29.72812951711493 33.883645384430615 12.563308111338623 0 -0.71933980857756763 -0.69465836192734942 1 0 0 1 I I 0 1 1 forward I I I I #
face $-1 $240 $241 $57 $-1 $242 reversed single #
loop $-1 $-1 $243 $95 #
plane-surface $-1 0 0 -15.539011598440624 0 0 1 1 0 0 forward_v I I I I #
coedge $-1 $244 $245 $246 $247 forward $96 $-1 #
face $-1 $248 $249 $58 $-1 $250 reversed single #
loop $-1 $-1 $251 $98 #
plane-surface $-1 -40.125923695161752 -36.806794596169013 10.459189581242683 0 -0.54463904215088732 0.83867056331134215 1 0 0 forward_v I I I I #
coedge $-1 $252 $253 $254 $255 reversed $99 $-1 #
face $-1 $-1 $256 $59 $-1 $257 forward single #
loop $-1 $258 $259 $101 #
cone-surface $-1 -43.690173929672746 -28.310564258514091 5.938649803955748 0 0.54463904215088732 -0.83867056331134215 1 0 0 1 I I -0.70710678118654746 0.70710678118654746 1 forward I I I I #
loop $-1 $-1 $260 $78 #
coedge $-1 $164 $164 $261 $262 reversed $102 $-1 #
face $-1 $-1 $263 $60 $-1 $264 forward single #
loop $-1 $265 $266 $104 #
cone-surface $-1 -36.561673460650759 -28.310564258514091 5.938649803955748 0 0.54463904215088732 -0.83867056331134215 1 0 0 1 I I -0.70710678118654746 0.70710678118654746 1 forward I I I I #
loop $-1 $-1 $267 $79 #
coedge $-1 $169 $169 $268 $269 reversed $105 $-1 #
face $-1 $270 $271 $61 $-1 $272 reversed single #
loop $-1 $-1 $273 $107 #
plane-surface $-1 -13.493641215838039 -36.806794596169013 10.459189581242683 0 -0.54463904215088732 0.83867056331134215 1 0 0 forward_v I I I I #
coedge $-1 $274 $275 $276 $277 reversed $108 $-1 #
face $-1 $-1 $278 $62 $-1 $279 forward single #
loop $-1 $280 $281 $110 #
cone-surface $-1 -17.057891450349032 -28.310564258514091 5.938649803955748 0 0.54463904215088732 -0.83867056331134215 1 0 0 1 I I -0.70710678118654746 0.70710678118654746 1 forward I I I I #
loop $-1 $-1 $282 $81 #
coedge $-1 $178 $178 $283 $284 reversed $111 $-1 #
face $-1 $-1 $285 $63 $-1 $286 forward single #
loop $-1 $287 $288 $113 #
cone-surface $-1 -9.9293909813270531 -28.310564258514091 5.938649803955748 0 0.54463904215088732 -0.83867056331134215 1 0 0 1 I I -0.70710678118654746 0.70710678118654746 1 forward I I I I #
loop $-1 $-1 $289 $82 #
coedge $-1 $183 $183 $290 $291 reversed $114 $-1 #
face $-1 $292 $293 $64 $-1 $294 reversed single #
loop $-1 $-1 $295 $116 #
plane-surface $-1 13.138641263485674 -36.806794596169013 10.459189581242683 0 -0.54463904215088732 0.83867056331134215 1 0 0 forward_v I I I I #
coedge $-1 $296 $297 $298 $299 reversed $117 $-1 #
face $-1 $-1 $300 $65 $-1 $301 forward single #
loop $-1 $302 $303 $119 #
cone-surface $-1 9.5743910289746808 -28.310564258514091 5.938649803955748 0 0.54463904215088732 -0.83867056331134215 1 0 0 1 I I -0.70710678118654746 0.70710678118654746 1 forward I I I I #
loop $-1 $-1 $304 $84 #
coedge $-1 $192 $192 $305 $306 reversed $120 $-1 #
face $-1 $-1 $307 $66 $-1 $308 forward single #
loop $-1 $309 $310 $122 #
cone-surface $-1 16.702891497996653 -28.310564258514091 5.938649803955748 0 0.54463904215088732 -0.83867056331134215 1 0 0 1 I I -0.70710678118654746 0.70710678118654746 1 forward I I I I #
loop $-1 $-1 $311 $85 #
coedge $-1 $197 $197 $312 $313 reversed $123 $-1 #
face $-1 $314 $315 $67 $-1 $316 reversed single #
loop $-1 $-1 $317 $125 #
plane-surface $-1 39.77092374280938 -36.806794596169013 10.459189581242683 0 -0.54463904215088732 0.83867056331134215 1 0 0 forward_v I I I I #
coedge $-1 $318 $319 $320 $321 reversed $126 $-1 #
face $-1 $-1 $322 $68 $-1 $323 forward single #
loop $-1 $324 $325 $128 #
cone-surface $-1 36.206673508298387 -28.310564258514091 5.938649803955748 0 0.54463904215088732 -0.83867056331134215 1 0 0 1 I I -0.70710678118654746 0.70710678118654746 1 forward I I I I #
loop $-1 $-1 $326 $87 #
coedge $-1 $206 $206 $327 $328 reversed $129 $-1 #
face $-1 $-1 $329 $69 $-1 $330 forward single #
loop $-1 $331 $332 $131 #
cone-surface $-1 43.335173977320359 -28.310564258514091 5.938649803955748 0 0.54463904215088732 -0.83867056331134215 1 0 0 1 I I -0.70710678118654746 0.70710678118654746 1 forward I I I I #
loop $-1 $-1 $333 $88 #
coedge $-1 $211 $211 $334 $335 reversed $132 $-1 #
face $-1 $336 $337 $70 $-1 $338 reversed single #
loop $-1 $-1 $339 $134 #
plane-surface $-1 -24.121949816628206 -14.32950068777334 63.959595619896703 0 0.71933980857756763 0.69465836192734942 1 0 0 forward_v I I I I #
coedge $-1 $340 $341 $342 $343 reversed $135 $-1 #
face $-1 $-1 $344 $71 $-1 $345 forward single #
loop $-1 $346 $347 $137 #
cone-surface $-1 -29.728129517114926 32.789367235733529 11.506576011706962 0 -0.71933980857756763 -0.69465836192734942 0.5 0 0 1 I I -0.70710678118654746 0.70710678118654746 0.5 forward I I I I #
loop $-1 $-1 $348 $90 #
coedge $-1 $220 $220 $349 $350 reversed $138 $-1 #
face $-1 $-1 $351 $72 $-1 $352 forward single #
loop $-1 $353 $354 $140 #
cone-surface $-1 -18.515770116141489 32.789367235733529 11.506576011706962 0 -0.71933980857756763 -0.69465836192734942 0.5 0 0 1 I I -0.70710678118654746 0.70710678118654746 0.5 forward I I I I #
loop $-1 $-1 $355 $91 #
coedge $-1 $225 $225 $356 $357 reversed $141 $-1 #
face $-1 $358 $359 $73 $-1 $360 reversed single #
loop $-1 $-1 $361 $143 #
plane-surface $-1 24.121949816628209 -14.32950068777334 63.959595619896703 0 0.71933980857756763 0.69465836192734942 1 0 0 forward_v I I I I #
coedge $-1 $362 $363 $364 $365 reversed $144 $-1 #
face $-1 $-1 $366 $74 $-1 $367 forward single #
loop $-1 $368 $369 $146 #
cone-surface $-1 18.515770116141489 32.789367235733529 11.506576011706962 0 -0.71933980857756763 -0.69465836192734942 0.5 0 0 1 I I -0.70710678118654746 0.70710678118654746 0.5 forward I I I I #
loop $-1 $-1 $370 $93 #
coedge $-1 $234 $234 $371 $372 reversed $147 $-1 #
face $-1 $-1 $373 $75 $-1 $374 forward single #
loop $-1 $375 $376 $149 #
cone-surface $-1 29.72812951711493 32.789367235733529 11.506576011706962 0 -0.71933980857756763 -0.69465836192734942 0.5 0 0 1 I I -0.70710678118654746 0.70710678118654746 0.5 forward I I I I #
loop $-1 $-1 $377 $94 #
coedge $-1 $239 $239 $378 $379 reversed $150 $-1 #
face $-1 $380 $381 $57 $-1 $382 reversed single #
loop $-1 $-1 $383 $152 #
plane-surface $-1 0 -36.806794596169006 0 0 1 0 0 0 1 forward_v I I I I #
coedge $-1 $384 $385 $386 $387 forward $153 $-1 #
coedge $-1 $388 $155 $389 $390 forward $96 $-1 #
coedge $-1 $155 $388 $391 $392 forward $96 $-1 #
coedge $-1 $393 $394 $155 $247 reversed $395 $-1 #
edge $-1 $396 -36.806794596169006 $397 36.806794596169006 $246 $398 forward 7 unknown #
face $-1 $399 $400 $58 $-1 $401 reversed single #
loop $-1 $-1 $402 $156 #
plane-surface $-1 -48.442507575687401 -94.826717875491909 99.802034978047502 1 0 0 0 0.54463904215088732 -0.83867056331134215 forward_v I I I I #
coedge $-1 $403 $404 $405 $406 reversed $157 $-1 #
coedge $-1 $253 $159 $407 $408 reversed $99 $-1 #
coedge $-1 $159 $252 $403 $409 reversed $99 $-1 #
coedge $-1 $405 $410 $159 $255 forward $411 $-1 #
edge $-1 $412 10.606564341576949 $413 18.428804142565134 $254 $414 forward 7 unknown #
loop $-1 $-1 $261 $160 #
plane-surface $-1 -40.125923695161752 -36.806794596169013 10.459189581242683 0 -0.54463904215088732 0.83867056331134215 1 0 0 forward_v I I I I #
loop $-1 $-1 $415 $101 #
coedge $-1 $259 $259 $260 $416 reversed $161 $-1 #
coedge $-1 $260 $260 $259 $416 forward $163 $-1 #
coedge $-1 $261 $261 $164 $262 forward $256 $-1 #
edge $-1 $417 9.6747328752912999e-016 $417 6.2831853071796013 $261 $418 forward 7 unknown #
loop $-1 $-1 $268 $165 #
plane-surface $-1 -40.125923695161752 -36.806794596169013 10.459189581242683 0 -0.54463904215088732 0.83867056331134215 1 0 0 forward_v I I I I #
loop $-1 $-1 $419 $104 #
coedge $-1 $266 $266 $267 $420 reversed $166 $-1 #
coedge $-1 $267 $267 $266 $420 forward $168 $-1 #
coedge $-1 $268 $268 $169 $269 forward $263 $-1 #
edge $-1 $421 9.6747328752912999e-016 $421 6.2831853071796013 $268 $422 forward 7 unknown #
face $-1 $423 $424 $61 $-1 $425 reversed single #
loop $-1 $-1 $426 $170 #
plane-surface $-1 -21.810225096363688 -94.826717875491909 99.802034978047502 1 0 0 0 0.54463904215088732 -0.83867056331134215 forward_v I I I I #
coedge $-1 $427 $428 $429 $430 reversed $171 $-1 #
coedge $-1 $275 $173 $431 $432 reversed $108 $-1 #
coedge $-1 $173 $274 $427 $433 reversed $108 $-1 #
coedge $-1 $429 $434 $173 $277 forward $435 $-1 #
edge $-1 $436 10.606564341576949 $437 18.428804142565134 $276 $438 forward 7 unknown #
loop $-1 $-1 $283 $174 #
plane-surface $-1 -13.493641215838039 -36.806794596169013 10.459189581242683 0 -0.54463904215088732 0.83867056331134215 1 0 0 forward_v I I I I #
loop $-1 $-1 $439 $110 #
coedge $-1 $281 $281 $282 $440 reversed $175 $-1 #
coedge $-1 $282 $282 $281 $440 forward $177 $-1 #
coedge $-1 $283 $283 $178 $284 forward $278 $-1 #
edge $-1 $441 9.6747328752912999e-016 $441 6.2831853071796013 $283 $442 forward 7 unknown #
loop $-1 $-1 $290 $179 #
plane-surface $-1 -13.493641215838039 -36.806794596169013 10.459189581242683 0 -0.54463904215088732 0.83867056331134215 1 0 0 forward_v I I I I #
loop $-1 $-1 $443 $113 #
coedge $-1 $288 $288 $289 $444 reversed $180 $-1 #
coedge $-1 $289 $289 $288 $444 forward $182 $-1 #
coedge $-1 $290 $290 $183 $291 forward $285 $-1 #
edge $-1 $445 9.6747328752912999e-016 $445 6.2831853071796013 $290 $446 forward 7 unknown #
face $-1 $447 $448 $64 $-1 $449 reversed single #
loop $-1 $-1 $450 $184 #
plane-surface $-1 4.8220573829600237 -94.826717875491909 99.802034978047502 1 0 0 0 0.54463904215088732 -0.83867056331134215 forward_v I I I I #
coedge $-1 $451 $452 $453 $454 reversed $185 $-1 #
coedge $-1 $297 $187 $455 $456 reversed $117 $-1 #
coedge $-1 $187 $296 $451 $457 reversed $117 $-1 #
coedge $-1 $453 $458 $187 $299 forward $459 $-1 #
edge $-1 $460 10.606564341576949 $461 18.428804142565134 $298 $462 forward 7 unknown #
loop $-1 $-1 $305 $188 #
plane-surface $-1 13.138641263485674 -36.806794596169013 10.459189581242683 0 -0.54463904215088732 0.83867056331134215 1 0 0 forward_v I I I I #
loop $-1 $-1 $463 $119 #
coedge $-1 $303 $303 $304 $464 reversed $189 $-1 #
coedge $-1 $304 $304 $303 $464 forward $191 $-1 #
coedge $-1 $305 $305 $192 $306 forward $300 $-1 #
edge $-1 $465 9.6747328752912999e-016 $465 6.2831853071796013 $305 $466 forward 7 unknown #
loop $-1 $-1 $312 $193 #
plane-surface $-1 13.138641263485674 -36.806794596169013 10.459189581242683 0 -0.54463904215088732 0.83867056331134215 1 0 0 forward_v I I I I #
loop $-1 $-1 $467 $122 #
coedge $-1 $310 $310 $311 $468 reversed $194 $-1 #
coedge $-1 $311 $311 $310 $468 forward $196 $-1 #
coedge $-1 $312 $312 $197 $313 forward $307 $-1 #
edge $-1 $469 9.6747328752912999e-016 $469 6.2831853071796013 $312 $470 forward 7 unknown #
face $-1 $471 $472 $67 $-1 $473 reversed single #
loop $-1 $-1 $474 $198 #
plane-surface $-1 31.454339862283732 -94.826717875491909 99.802034978047502 1 0 0 0 0.54463904215088732 -0.83867056331134215 forward_v I I I I #
coedge $-1 $475 $476 $477 $478 reversed $199 $-1 #
coedge $-1 $319 $201 $479 $480 reversed $126 $-1 #
coedge $-1 $201 $318 $475 $481 reversed $126 $-1 #
coedge $-1 $477 $482 $201 $321 forward $483 $-1 #
edge $-1 $484 10.606564341576949 $485 18.428804142565134 $320 $486 forward 7 unknown #
loop $-1 $-1 $327 $202 #
plane-surface $-1 39.77092374280938 -36.806794596169013 10.459189581242683 0 -0.54463904215088732 0.83867056331134215 1 0 0 forward_v I I I I #
loop $-1 $-1 $487 $128 #
coedge $-1 $325 $325 $326 $488 reversed $203 $-1 #
coedge $-1 $326 $326 $325 $488 forward $205 $-1 #
coedge $-1 $327 $327 $206 $328 forward $322 $-1 #
edge $-1 $489 9.6747328752912999e-016 $489 6.2831853071796013 $327 $490 forward 7 unknown #
loop $-1 $-1 $334 $207 #
plane-surface $-1 39.77092374280938 -36.806794596169013 10.459189581242683 0 -0.54463904215088732 0.83867056331134215 1 0 0 forward_v I I I I #
loop $-1 $-1 $491 $131 #
coedge $-1 $332 $332 $333 $492 reversed $208 $-1 #
coedge $-1 $333 $333 $332 $492 forward $210 $-1 #
coedge $-1 $334 $334 $211 $335 forward $329 $-1 #
edge $-1 $493 9.6747328752912999e-016 $493 6.2831853071796013 $334 $494 forward 7 unknown #
face $-1 $495 $496 $70 $-1 $497 reversed single #
loop $-1 $-1 $498 $212 #
plane-surface $-1 -11.040863848825857 62.301143234868356 137.96094650579053 -1 0 0 0 0.71933980857756763 0.69465836192734942 forward_v I I I I #
coedge $-1 $499 $500 $501 $502 reversed $213 $-1 #
coedge $-1 $341 $215 $503 $504 reversed $135 $-1 #
coedge $-1 $215 $340 $499 $505 reversed $135 $-1 #
coedge $-1 $501 $506 $215 $343 forward $507 $-1 #
edge $-1 $508 -5.6562229787348279 $509 -1.2791410440746382 $342 $510 forward 7 unknown #
loop $-1 $-1 $349 $216 #
plane-surface $-1 -24.121949816628206 -14.32950068777334 63.959595619896703 0 0.71933980857756763 0.69465836192734942 1 0 0 forward_v I I I I #
loop $-1 $-1 $511 $137 #
coedge $-1 $347 $347 $348 $512 reversed $217 $-1 #
coedge $-1 $348 $348 $347 $512 forward $219 $-1 #
coedge $-1 $349 $349 $220 $350 forward $344 $-1 #
edge $-1 $513 -3.8334125664588874e-015 $513 6.2831853071795969 $349 $514 forward 7 unknown #
loop $-1 $-1 $356 $221 #
plane-surface $-1 -24.121949816628206 -14.32950068777334 63.959595619896703 0 0.71933980857756763 0.69465836192734942 1 0 0 forward_v I I I I #
loop $-1 $-1 $515 $140 #
coedge $-1 $354 $354 $355 $516 reversed $222 $-1 #
coedge $-1 $355 $355 $354 $516 forward $224 $-1 #
coedge $-1 $356 $356 $225 $357 forward $351 $-1 #
edge $-1 $517 -3.8334125664588874e-015 $517 6.2831853071795969 $356 $518 forward 7 unknown #
face $-1 $519 $520 $73 $-1 $521 forward single #
loop $-1 $-1 $522 $226 #
plane-surface $-1 37.203035784430554 62.301143234868356 137.96094650579053 -1 0 0 0 0.71933980857756763 0.69465836192734942 forward_v I I I I #
coedge $-1 $523 $524 $525 $526 reversed $227 $-1 #
coedge $-1 $363 $229 $527 $528 reversed $144 $-1 #
coedge $-1 $229 $362 $523 $529 reversed $144 $-1 #
coedge $-1 $525 $530 $229 $365 forward $520 $-1 #
edge $-1 $531 -5.6562229787348279 $532 -1.2791410440746382 $364 $533 forward 7 unknown #
loop $-1 $-1 $371 $230 #
plane-surface $-1 24.121949816628209 -14.32950068777334 63.959595619896703 0 0.71933980857756763 0.69465836192734942 1 0 0 forward_v I I I I #
loop $-1 $-1 $534 $146 #
coedge $-1 $369 $369 $370 $535 reversed $231 $-1 #
coedge $-1 $370 $370 $369 $535 forward $233 $-1 #
coedge $-1 $371 $371 $234 $372 forward $366 $-1 #
edge $-1 $536 -3.8334125664588874e-015 $536 6.2831853071795969 $371 $537 forward 7 unknown #
loop $-1 $-1 $378 $235 #
plane-surface $-1 24.121949816628209 -14.32950068777334 63.959595619896703 0 0.71933980857756763 0.69465836192734942 1 0 0 forward_v I I I I #
loop $-1 $-1 $538 $149 #
coedge $-1 $376 $376 $377 $539 reversed $236 $-1 #
coedge $-1 $377 $377 $376 $539 forward $238 $-1 #
coedge $-1 $378 $378 $239 $379 forward $373 $-1 #
edge $-1 $540 -3.8334125664588874e-015 $540 6.2831853071795969 $378 $541 forward 7 unknown #
face $-1 $542 $543 $57 $-1 $544 reversed single #
loop $-1 $-1 $545 $240 #
plane-surface $-1 -53.264564958647419 0 0 1 0 0 0 0 -1 forward_v I I I I #
coedge $-1 $546 $391 $547 $548 forward $241 $-1 #
coedge $-1 $549 $243 $546 $550 forward $153 $-1 #
coedge $-1 $243 $549 $551 $552 forward $153 $-1 #
coedge $-1 $394 $393 $243 $387 reversed $395 $-1 #
edge $-1 $553 -36.806794596169006 $554 36.806794596169006 $386 $555 forward 7 unknown #
coedge $-1 $245 $244 $556 $557 forward $96 $-1 #
coedge $-1 $558 $559 $244 $390 reversed $543 $-1 #
edge $-1 $397 -53.264564958647419 $560 53.264564958647419 $389 $561 forward 7 unknown #
coedge $-1 $383 $562 $245 $392 reversed $241 $-1 #
edge $-1 $563 -53.264564958647419 $396 53.264564958647419 $391 $564 forward 7 unknown #
coedge $-1 $386 $246 $562 $565 forward $395 $-1 #
coedge $-1 $246 $386 $558 $566 reversed $395 $-1 #
loop $-1 $-1 $393 $542 #
vertex $-1 $247 $567 #
vertex $-1 $247 $568 #
straight-curve $-1 53.264564958647419 0 15.539011598440624 0 1 0 I I #
face $-1 $-1 $411 $58 $-1 $569 forward single #
loop $-1 $-1 $570 $248 #
plane-surface $-1 0 -36.806794596169006 0 0 1 0 0 0 1 forward_v I I I I #
coedge $-1 $571 $572 $573 $574 reversed $249 $-1 #
coedge $-1 $575 $251 $253 $409 forward $157 $-1 #
coedge $-1 $251 $575 $571 $576 forward $157 $-1 #
coedge $-1 $573 $254 $251 $406 forward $411 $-1 #
edge $-1 $413 11.746377967055228 $577 28.379545728106525 $405 $578 forward 7 unknown #
coedge $-1 $579 $580 $252 $408 forward $400 $-1 #
edge $-1 $581 -39.441827907781061 $412 -34.362005890583127 $407 $582 forward 7 unknown #
edge $-1 $413 -9.3269516579948437 $581 -8.8615326271544428e-015 $253 $583 forward 7 unknown #
coedge $-1 $254 $573 $579 $584 forward $411 $-1 #
loop $-1 $-1 $573 $399 #
vertex $-1 $408 $585 #
vertex $-1 $255 $586 #
straight-curve $-1 -31.809339814636104 -47.413358937745954 15.539011598440624 0 1 0 I I #
coedge $-1 $415 $415 $-1 $587 reversed $258 $-1 #
edge $-1 $588 0 $588 6.2831853071796004 $259 $589 forward 7 unknown #
vertex $-1 $262 $590 #
ellipse-curve $-1 -43.690173929672746 -32.895674695674913 12.999100589841657 0 -0.54463904215088732 0.83867056331134215 2 0 0 1 I I #
coedge $-1 $419 $419 $-1 $591 reversed $265 $-1 #
edge $-1 $592 0 $592 6.2831853071796004 $266 $593 forward 7 unknown #
vertex $-1 $269 $594 #
ellipse-curve $-1 -36.561673460650759 -32.895674695674913 12.999100589841657 0 -0.54463904215088732 0.83867056331134215 2 0 0 1 I I #
face $-1 $-1 $435 $61 $-1 $595 forward single #
loop $-1 $-1 $596 $270 #
plane-surface $-1 0 -36.806794596169006 0 0 1 0 0 0 1 forward_v I I I I #
coedge $-1 $597 $598 $599 $600 reversed $271 $-1 #
coedge $-1 $601 $273 $275 $433 forward $171 $-1 #
coedge $-1 $273 $601 $597 $602 forward $171 $-1 #
coedge $-1 $599 $276 $273 $430 forward $435 $-1 #
edge $-1 $437 -1.5697632726066306 $603 15.063404488444668 $429 $604 forward 7 unknown #
coedge $-1 $605 $606 $274 $432 forward $424 $-1 #
edge $-1 $607 -39.441827907781061 $436 -34.362005890583127 $431 $608 forward 7 unknown #
edge $-1 $437 -9.3269516579948437 $607 -8.8615326271544428e-015 $275 $609 forward 7 unknown #
coedge $-1 $276 $599 $605 $610 forward $435 $-1 #
loop $-1 $-1 $599 $423 #
vertex $-1 $432 $611 #
vertex $-1 $277 $612 #
straight-curve $-1 -5.177057335312389 -47.413358937745954 15.539011598440624 0 1 0 I I #
coedge $-1 $439 $439 $-1 $613 reversed $280 $-1 #
edge $-1 $614 0 $614 6.2831853071796004 $281 $615 forward 7 unknown #
vertex $-1 $284 $616 #
ellipse-curve $-1 -17.057891450349032 -32.895674695674913 12.999100589841657 0 -0.54463904215088732 0.83867056331134215 2 0 0 1 I I #
coedge $-1 $443 $443 $-1 $617 reversed $287 $-1 #
edge $-1 $618 0 $618 6.2831853071796004 $288 $619 forward 7 unknown #
vertex $-1 $291 $620 #
ellipse-curve $-1 -9.9293909813270531 -32.895674695674913 12.999100589841657 0 -0.54463904215088732 0.83867056331134215 2 0 0 1 I I #
face $-1 $-1 $459 $64 $-1 $621 forward single #
loop $-1 $-1 $622 $292 #
plane-surface $-1 0 -36.806794596169006 0 0 1 0 0 0 1 forward_v I I I I #
coedge $-1 $623 $624 $625 $626 reversed $293 $-1 #
coedge $-1 $627 $295 $297 $457 forward $185 $-1 #
coedge $-1 $295 $627 $623 $628 forward $185 $-1 #
coedge $-1 $625 $298 $295 $454 forward $459 $-1 #
edge $-1 $461 -14.885904512268485 $629 1.7472632487828132 $453 $630 forward 7 unknown #
coedge $-1 $631 $632 $296 $456 forward $448 $-1 #
edge $-1 $633 -39.441827907781061 $460 -34.362005890583127 $455 $634 forward 7 unknown #
edge $-1 $461 -9.3269516579948437 $633 -8.8615326271544428e-015 $297 $635 forward 7 unknown #
coedge $-1 $298 $625 $631 $636 forward $459 $-1 #
loop $-1 $-1 $625 $447 #
vertex $-1 $456 $637 #
vertex $-1 $299 $638 #
straight-curve $-1 21.455225144011322 -47.413358937745954 15.539011598440624 0 1 0 I I #
coedge $-1 $463 $463 $-1 $639 reversed $302 $-1 #
edge $-1 $640 0 $640 6.2831853071796004 $303 $641 forward 7 unknown #
vertex $-1 $306 $642 #
ellipse-curve $-1 9.5743910289746808 -32.895674695674913 12.999100589841657 0 -0.54463904215088732 0.83867056331134215 2 0 0 1 I I #
coedge $-1 $467 $467 $-1 $643 reversed $309 $-1 #
edge $-1 $644 0 $644 6.2831853071796004 $310 $645 forward 7 unknown #
vertex $-1 $313 $646 #
ellipse-curve $-1 16.702891497996653 -32.895674695674913 12.999100589841657 0 -0.54463904215088732 0.83867056331134215 2 0 0 1 I I #
face $-1 $-1 $483 $67 $-1 $647 forward single #
loop $-1 $-1 $648 $314 #
plane-surface $-1 0 -36.806794596169006 0 0 1 0 0 0 1 forward_v I I I I #
coedge $-1 $649 $650 $651 $652 reversed $315 $-1 #
coedge $-1 $653 $317 $319 $481 forward $199 $-1 #
coedge $-1 $317 $653 $649 $654 forward $199 $-1 #
coedge $-1 $651 $320 $317 $478 forward $483 $-1 #
edge $-1 $485 -28.202045751930338 $655 -11.568877990879042 $477 $656 forward 7 unknown #
coedge $-1 $657 $658 $318 $480 forward $472 $-1 #
edge $-1 $659 -39.441827907781061 $484 -34.362005890583127 $479 $660 forward 7 unknown #
edge $-1 $485 -9.3269516579948437 $659 -8.8615326271544428e-015 $319 $661 forward 7 unknown #
coedge $-1 $320 $651 $657 $662 forward $483 $-1 #
loop $-1 $-1 $651 $471 #
vertex $-1 $480 $663 #
vertex $-1 $321 $664 #
straight-curve $-1 48.087507623335028 -47.413358937745954 15.539011598440624 0 1 0 I I #
coedge $-1 $487 $487 $-1 $665 reversed $324 $-1 #
edge $-1 $666 0 $666 6.2831853071796004 $325 $667 forward 7 unknown #
vertex $-1 $328 $668 #
ellipse-curve $-1 36.206673508298387 -32.895674695674913 12.999100589841657 0 -0.54463904215088732 0.83867056331134215 2 0 0 1 I I #
coedge $-1 $491 $491 $-1 $669 reversed $331 $-1 #
edge $-1 $670 0 $670 6.2831853071796004 $332 $671 forward 7 unknown #
vertex $-1 $335 $672 #
ellipse-curve $-1 43.335173977320359 -32.895674695674913 12.999100589841657 0 -0.54463904215088732 0.83867056331134215 2 0 0 1 I I #
face $-1 $-1 $507 $70 $-1 $673 forward single #
loop $-1 $-1 $674 $336 #
plane-surface $-1 0 36.806794596169006 0 0 -1 0 0 0 -1 forward_v I I I I #
coedge $-1 $675 $676 $677 $678 reversed $337 $-1 #
coedge $-1 $679 $339 $341 $505 forward $213 $-1 #
coedge $-1 $339 $679 $675 $680 forward $213 $-1 #
coedge $-1 $677 $342 $339 $502 forward $507 $-1 #
edge $-1 $509 -25.142060876116453 $681 1.0201110594882454 $501 $682 forward 7 unknown #
coedge $-1 $683 $684 $340 $504 forward $496 $-1 #
edge $-1 $685 -57.97406279132268 $508 -53.441461654454642 $503 $686 forward 7 unknown #
edge $-1 $509 67.312532191432041 $685 73.613589192337997 $341 $687 forward 7 unknown #
coedge $-1 $342 $677 $683 $688 forward $507 $-1 #
loop $-1 $-1 $677 $495 #
vertex $-1 $504 $689 #
vertex $-1 $343 $690 #
straight-curve $-1 -37.203035784430554 31.150571617434178 15.539011598440624 0 -1 0 I I #
coedge $-1 $511 $511 $-1 $691 reversed $346 $-1 #
edge $-1 $692 0 $692 6.2831853071796004 $347 $693 forward 7 unknown #
vertex $-1 $350 $694 #
ellipse-curve $-1 -29.728129517114926 34.618253628838914 13.272711030006604 0 0.71933980857756763 0.69465836192734942 1 0 0 1 I I #
coedge $-1 $515 $515 $-1 $695 reversed $353 $-1 #
edge $-1 $696 0 $696 6.2831853071796004 $354 $697 forward 7 unknown #
vertex $-1 $357 $698 #
ellipse-curve $-1 -18.515770116141489 34.618253628838914 13.272711030006604 0 0.71933980857756763 0.69465836192734942 1 0 0 1 I I #
face $-1 $-1 $699 $73 $-1 $700 reversed single #
loop $-1 $-1 $364 $358 #
plane-surface $-1 0 0 15.539011598440624 0 0 1 1 0 0 forward_v I I I I #
coedge $-1 $701 $702 $703 $704 reversed $359 $-1 #
coedge $-1 $705 $361 $363 $529 forward $227 $-1 #
coedge $-1 $361 $705 $701 $706 forward $227 $-1 #
coedge $-1 $703 $364 $361 $526 forward $520 $-1 #
edge $-1 $532 -1.0201110594882437 $707 25.142060876116449 $525 $708 forward 7 unknown #
coedge $-1 $709 $710 $362 $528 forward $699 $-1 #
edge $-1 $711 -57.97406279132268 $531 -53.441461654454642 $527 $712 forward 7 unknown #
edge $-1 $532 67.312532191432041 $711 73.613589192337997 $363 $713 forward 7 unknown #
coedge $-1 $364 $703 $709 $714 forward $520 $-1 #
vertex $-1 $365 $715 #
vertex $-1 $365 $716 #
straight-curve $-1 11.040863848825861 31.150571617434178 15.539011598440624 0 -1 0 I I #
coedge $-1 $534 $534 $-1 $717 reversed $368 $-1 #
edge $-1 $718 0 $718 6.2831853071796004 $369 $719 forward 7 unknown #
vertex $-1 $372 $720 #
ellipse-curve $-1 18.515770116141489 34.618253628838914 13.272711030006604 0 0.71933980857756763 0.69465836192734942 1 0 0 1 I I #
coedge $-1 $538 $538 $-1 $721 reversed $375 $-1 #
edge $-1 $722 0 $722 6.2831853071796004 $376 $723 forward 7 unknown #
vertex $-1 $379 $724 #
ellipse-curve $-1 29.72812951711493 34.618253628838914 13.272711030006604 0 0.71933980857756763 0.69465836192734942 1 0 0 1 I I #
face $-1 $-1 $395 $57 $-1 $725 reversed single #
loop $-1 $-1 $558 $380 #
plane-surface $-1 0 36.806794596169006 0 0 -1 0 0 0 -1 forward_v I I I I #
coedge $-1 $726 $556 $559 $727 forward $381 $-1 #
coedge $-1 $562 $383 $384 $550 reversed $241 $-1 #
coedge $-1 $556 $726 $383 $548 reversed $381 $-1 #
edge $-1 $563 -15.539011598440624 $728 15.539011598440624 $547 $729 forward 7 unknown #
coedge $-1 $385 $384 $726 $730 forward $153 $-1 #
edge $-1 $554 -53.264564958647419 $728 53.264564958647419 $546 $731 forward 7 unknown #
coedge $-1 $559 $558 $385 $552 reversed $543 $-1 #
edge $-1 $732 -53.264564958647419 $553 53.264564958647419 $551 $733 forward 7 unknown #
vertex $-1 $387 $734 #
vertex $-1 $565 $735 #
straight-curve $-1 53.264564958647419 0 -15.539011598440624 0 -1 0 I I #
coedge $-1 $545 $547 $388 $557 reversed $381 $-1 #
edge $-1 $560 -36.806794596169006 $563 36.806794596169006 $556 $736 forward 7 unknown #
coedge $-1 $551 $389 $394 $566 forward $543 $-1 #
coedge $-1 $389 $551 $545 $727 reversed $543 $-1 #
vertex $-1 $390 $737 #
straight-curve $-1 0 36.806794596169006 15.539011598440624 -1 0 0 I I #
coedge $-1 $391 $546 $393 $565 reversed $241 $-1 #
vertex $-1 $557 $738 #
straight-curve $-1 0 -36.806794596169006 15.539011598440624 1 0 0 I I #
edge $-1 $396 -15.539011598440624 $554 15.539011598440624 $393 $739 forward 7 unknown #
edge $-1 $397 -15.539011598440624 $553 15.539011598440624 $394 $740 forward 7 unknown #
point $-1 53.264564958647419 -36.806794596169006 15.539011598440624 #
point $-1 53.264564958647419 36.806794596169006 15.539011598440624 #
plane-surface $-1 0 0 15.539011598440624 0 0 1 1 0 0 forward_v I I I I #
coedge $-1 $580 $579 $572 $741 forward $400 $-1 #
coedge $-1 $572 $402 $404 $576 reversed $249 $-1 #
coedge $-1 $402 $571 $570 $741 reversed $249 $-1 #
coedge $-1 $410 $405 $402 $574 forward $411 $-1 #
edge $-1 $577 -18.428804142565134 $742 -10.606564341576949 $573 $743 forward 7 unknown #
coedge $-1 $404 $403 $580 $744 reversed $157 $-1 #
edge $-1 $745 8.8615326271544428e-015 $577 9.3269516579948437 $571 $746 forward 7 unknown #
vertex $-1 $406 $747 #
straight-curve $-1 -20.062961847580876 -28.98455479518082 15.539011598440624 -1 0 0 I I #
coedge $-1 $570 $407 $410 $584 reversed $400 $-1 #
coedge $-1 $407 $570 $575 $744 forward $400 $-1 #
vertex $-1 $408 $748 #
straight-curve $-1 -31.809339814636104 -36.806794596169006 49.901017489023751 0 0 1 I I #
straight-curve $-1 -31.809339814636104 -36.806794596169013 10.459189581242683 0 -0.83867056331134215 -0.54463904215088732 I I #
edge $-1 $742 -48.442507575687401 $412 -31.809339814636104 $579 $749 forward 7 unknown #
point $-1 -31.809339814636104 -36.806794596169006 15.539011598440624 #
point $-1 -31.809339814636104 -28.98455479518082 15.539011598440624 #
edge $-1 $750 1 $750 0 $415 $-1 forward 7 unknown #
vertex $-1 $416 $751 #
ellipse-curve $-1 -43.690173929672746 -28.855203300664979 6.7773203672670901 0 -0.54463904215088732 0.83867056331134215 2 0 0 1 I I #
point $-1 -41.690173929672746 -32.895674695674913 12.99910058984166 #
edge $-1 $752 1 $752 0 $419 $-1 forward 7 unknown #
vertex $-1 $420 $753 #
ellipse-curve $-1 -36.561673460650759 -28.855203300664979 6.7773203672670901 0 -0.54463904215088732 0.83867056331134215 2 0 0 1 I I #
point $-1 -34.561673460650759 -32.895674695674913 12.99910058984166 #
plane-surface $-1 0 0 15.539011598440624 0 0 1 1 0 0 forward_v I I I I #
coedge $-1 $606 $605 $598 $754 forward $424 $-1 #
coedge $-1 $598 $426 $428 $602 reversed $271 $-1 #
coedge $-1 $426 $597 $596 $754 reversed $271 $-1 #
coedge $-1 $434 $429 $426 $600 forward $435 $-1 #
edge $-1 $603 -18.428804142565134 $755 -10.606564341576949 $599 $756 forward 7 unknown #
coedge $-1 $428 $427 $606 $757 reversed $171 $-1 #
edge $-1 $758 8.8615326271544428e-015 $603 9.3269516579948437 $597 $759 forward 7 unknown #
vertex $-1 $430 $760 #
straight-curve $-1 -6.7468206079190196 -28.98455479518082 15.539011598440624 -1 0 0 I I #
coedge $-1 $596 $431 $434 $610 reversed $424 $-1 #
coedge $-1 $431 $596 $601 $757 forward $424 $-1 #
vertex $-1 $432 $761 #
straight-curve $-1 -5.177057335312389 -36.806794596169006 49.901017489023751 0 0 1 I I #
straight-curve $-1 -5.177057335312389 -36.806794596169013 10.459189581242683 0 -0.83867056331134215 -0.54463904215088732 I I #
edge $-1 $755 -21.810225096363688 $436 -5.177057335312389 $605 $762 forward 7 unknown #
point $-1 -5.177057335312389 -36.806794596169006 15.539011598440624 #
point $-1 -5.177057335312389 -28.98455479518082 15.539011598440624 #
edge $-1 $763 1 $763 0 $439 $-1 forward 7 unknown #
vertex $-1 $440 $764 #
ellipse-curve $-1 -17.057891450349032 -28.855203300664979 6.7773203672670901 0 -0.54463904215088732 0.83867056331134215 2 0 0 1 I I #
point $-1 -15.057891450349032 -32.895674695674913 12.99910058984166 #
edge $-1 $765 1 $765 0 $443 $-1 forward 7 unknown #
vertex $-1 $444 $766 #
ellipse-curve $-1 -9.9293909813270531 -28.855203300664979 6.7773203672670901 0 -0.54463904215088732 0.83867056331134215 2 0 0 1 I I #
point $-1 -7.9293909813270531 -32.895674695674913 12.99910058984166 #
plane-surface $-1 0 0 15.539011598440624 0 0 1 1 0 0 forward_v I I I I #
coedge $-1 $632 $631 $624 $767 forward $448 $-1 #
coedge $-1 $624 $450 $452 $628 reversed $293 $-1 #
coedge $-1 $450 $623 $622 $767 reversed $293 $-1 #
coedge $-1 $458 $453 $450 $626 forward $459 $-1 #
edge $-1 $629 -18.428804142565134 $768 -10.606564341576949 $625 $769 forward 7 unknown #
coedge $-1 $452 $451 $632 $770 reversed $185 $-1 #
edge $-1 $771 8.8615326271544428e-015 $629 9.3269516579948437 $623 $772 forward 7 unknown #
vertex $-1 $454 $773 #
straight-curve $-1 6.569320631742837 -28.98455479518082 15.539011598440624 -1 0 0 I I #
coedge $-1 $622 $455 $458 $636 reversed $448 $-1 #
coedge $-1 $455 $622 $627 $770 forward $448 $-1 #
vertex $-1 $456 $774 #
straight-curve $-1 21.455225144011322 -36.806794596169006 49.901017489023751 0 0 1 I I #
straight-curve $-1 21.455225144011322 -36.806794596169013 10.459189581242683 0 -0.83867056331134215 -0.54463904215088732 I I #
edge $-1 $768 4.8220573829600237 $460 21.455225144011322 $631 $775 forward 7 unknown #
point $-1 21.455225144011322 -36.806794596169006 15.539011598440624 #
point $-1 21.455225144011322 -28.98455479518082 15.539011598440624 #
edge $-1 $776 1 $776 0 $463 $-1 forward 7 unknown #
vertex $-1 $464 $777 #
ellipse-curve $-1 9.5743910289746808 -28.855203300664979 6.7773203672670901 0 -0.54463904215088732 0.83867056331134215 2 0 0 1 I I #
point $-1 11.574391028974681 -32.895674695674913 12.99910058984166 #
edge $-1 $778 1 $778 0 $467 $-1 forward 7 unknown #
vertex $-1 $468 $779 #
ellipse-curve $-1 16.702891497996653 -28.855203300664979 6.7773203672670901 0 -0.54463904215088732 0.83867056331134215 2 0 0 1 I I #
point $-1 18.702891497996653 -32.895674695674913 12.99910058984166 #
plane-surface $-1 0 0 15.539011598440624 0 0 1 1 0 0 forward_v I I I I #
coedge $-1 $658 $657 $650 $780 forward $472 $-1 #
coedge $-1 $650 $474 $476 $654 reversed $315 $-1 #
coedge $-1 $474 $649 $648 $780 reversed $315 $-1 #
coedge $-1 $482 $477 $474 $652 forward $483 $-1 #
edge $-1 $655 -18.428804142565134 $781 -10.606564341576949 $651 $782 forward 7 unknown #
coedge $-1 $476 $475 $658 $783 reversed $199 $-1 #
edge $-1 $784 8.8615326271544428e-015 $655 9.3269516579948437 $649 $785 forward 7 unknown #
vertex $-1 $478 $786 #
straight-curve $-1 19.88546187140469 -28.98455479518082 15.539011598440624 -1 0 0 I I #
coedge $-1 $648 $479 $482 $662 reversed $472 $-1 #
coedge $-1 $479 $648 $653 $783 forward $472 $-1 #
vertex $-1 $480 $787 #
straight-curve $-1 48.087507623335028 -36.806794596169006 49.901017489023751 0 0 1 I I #
straight-curve $-1 48.087507623335028 -36.806794596169013 10.459189581242683 0 -0.83867056331134215 -0.54463904215088732 I I #
edge $-1 $781 31.454339862283732 $484 48.087507623335028 $657 $788 forward 7 unknown #
point $-1 48.087507623335028 -36.806794596169006 15.539011598440624 #
point $-1 48.087507623335028 -28.98455479518082 15.539011598440624 #
edge $-1 $789 1 $789 0 $487 $-1 forward 7 unknown #
vertex $-1 $488 $790 #
ellipse-curve $-1 36.206673508298387 -28.855203300664979 6.7773203672670901 0 -0.54463904215088732 0.83867056331134215 2 0 0 1 I I #
point $-1 38.206673508298387 -32.895674695674913 12.99910058984166 #
edge $-1 $791 1 $791 0 $491 $-1 forward 7 unknown #
vertex $-1 $492 $792 #
ellipse-curve $-1 43.335173977320359 -28.855203300664979 6.7773203672670901 0 -0.54463904215088732 0.83867056331134215 2 0 0 1 I I #
point $-1 45.335173977320359 -32.895674695674913 12.99910058984166 #
plane-surface $-1 0 0 15.539011598440624 0 0 1 1 0 0 forward_v I I I I #
coedge $-1 $684 $683 $676 $793 forward $496 $-1 #
coedge $-1 $676 $498 $500 $680 reversed $337 $-1 #
coedge $-1 $498 $675 $674 $793 reversed $337 $-1 #
coedge $-1 $506 $501 $498 $678 forward $507 $-1 #
edge $-1 $681 1.2791410440746382 $794 5.6562229787348279 $677 $795 forward 7 unknown #
coedge $-1 $500 $499 $684 $796 reversed $213 $-1 #
edge $-1 $797 -73.613589192337997 $681 -67.312532191432041 $675 $798 forward 7 unknown #
vertex $-1 $502 $799 #
straight-curve $-1 -12.060974908314103 32.429712661508809 15.539011598440631 1 0 0 I I #
coedge $-1 $674 $503 $506 $688 reversed $496 $-1 #
coedge $-1 $503 $674 $679 $796 forward $496 $-1 #
vertex $-1 $504 $800 #
straight-curve $-1 -37.203035784430554 36.806794596169006 68.980473252895266 0 0 1 I I #
straight-curve $-1 -37.203035784430554 -14.32950068777334 63.959595619896703 0 0.69465836192734942 -0.71933980857756763 I I #
edge $-1 $794 11.040863848825857 $508 37.203035784430554 $683 $801 forward 7 unknown #
point $-1 -37.203035784430554 36.806794596169006 15.539011598440624 #
point $-1 -37.203035784430554 32.429712661508816 15.539011598440617 #
edge $-1 $802 1 $802 0 $511 $-1 forward 7 unknown #
vertex $-1 $512 $803 #
ellipse-curve $-1 -29.728129517114926 33.149037140022315 11.853905192670636 0 0.71933980857756763 0.69465836192734942 1 0 0 1 I I #
point $-1 -28.728129517114926 34.618253628838914 13.27271103000661 #
edge $-1 $804 1 $804 0 $515 $-1 forward 7 unknown #
vertex $-1 $516 $805 #
ellipse-curve $-1 -18.515770116141489 33.149037140022315 11.853905192670636 0 0.71933980857756763 0.69465836192734942 1 0 0 1 I I #
point $-1 -17.515770116141489 34.618253628838914 13.27271103000661 #
loop $-1 $-1 $527 $519 #
plane-surface $-1 0 36.806794596169006 0 0 -1 0 0 0 -1 forward_v I I I I #
coedge $-1 $702 $522 $524 $706 reversed $359 $-1 #
coedge $-1 $522 $701 $806 $807 reversed $359 $-1 #
coedge $-1 $530 $525 $522 $704 forward $520 $-1 #
edge $-1 $707 1.2791410440746382 $808 5.6562229787348279 $703 $809 forward 7 unknown #
coedge $-1 $524 $523 $710 $810 reversed $227 $-1 #
edge $-1 $811 -73.613589192337997 $707 -67.312532191432041 $701 $812 forward 7 unknown #
vertex $-1 $526 $813 #
straight-curve $-1 12.060974908314105 32.429712661508809 15.539011598440631 1 0 0 I I #
coedge $-1 $806 $527 $530 $714 reversed $699 $-1 #
coedge $-1 $527 $806 $705 $810 forward $699 $-1 #
vertex $-1 $528 $814 #
straight-curve $-1 11.040863848825861 36.806794596169006 68.980473252895266 0 0 1 I I #
straight-curve $-1 11.040863848825861 -14.32950068777334 63.959595619896703 0 0.69465836192734942 -0.71933980857756763 I I #
edge $-1 $808 -37.203035784430554 $531 -11.040863848825861 $709 $815 forward 7 unknown #
point $-1 11.040863848825861 36.806794596169006 15.539011598440624 #
point $-1 11.040863848825861 32.429712661508816 15.539011598440617 #
edge $-1 $816 1 $816 0 $534 $-1 forward 7 unknown #
vertex $-1 $535 $817 #
ellipse-curve $-1 18.515770116141489 33.149037140022315 11.853905192670636 0 0.71933980857756763 0.69465836192734942 1 0 0 1 I I #
point $-1 19.515770116141489 34.618253628838914 13.27271103000661 #
edge $-1 $818 1 $818 0 $538 $-1 forward 7 unknown #
vertex $-1 $539 $819 #
ellipse-curve $-1 29.72812951711493 33.149037140022315 11.853905192670636 0 0.71933980857756763 0.69465836192734942 1 0 0 1 I I #
point $-1 30.72812951711493 34.618253628838914 13.27271103000661 #
plane-surface $-1 53.264564958647419 0 0 -1 0 0 0 0 1 forward_v I I I I #
coedge $-1 $547 $545 $549 $730 reversed $381 $-1 #
edge $-1 $560 -15.539011598440624 $732 15.539011598440624 $559 $820 forward 7 unknown #
vertex $-1 $730 $821 #
straight-curve $-1 -53.264564958647419 -36.806794596169006 0 0 0 -1 I I #
edge $-1 $728 -36.806794596169006 $732 36.806794596169006 $726 $822 forward 7 unknown #
straight-curve $-1 0 -36.806794596169006 -15.539011598440624 -1 0 0 I I #
vertex $-1 $552 $823 #
straight-curve $-1 0 36.806794596169006 -15.539011598440624 1 0 0 I I #
point $-1 53.264564958647419 36.806794596169006 -15.539011598440624 #
point $-1 53.264564958647419 -36.806794596169006 -15.539011598440624 #
straight-curve $-1 -53.264564958647419 0 15.539011598440624 0 -1 0 I I #
point $-1 -53.264564958647419 36.806794596169006 15.539011598440624 #
point $-1 -53.264564958647419 -36.806794596169006 15.539011598440624 #
straight-curve $-1 53.264564958647419 -36.806794596169006 0 0 0 -1 I I #
straight-curve $-1 53.264564958647419 36.806794596169006 0 0 0 -1 I I #
edge $-1 $742 34.362005890583127 $745 39.441827907781061 $570 $824 forward 7 unknown #
vertex $-1 $584 $825 #
straight-curve $-1 -48.442507575687401 -47.413358937745954 15.539011598440624 0 -1 0 I I #
edge $-1 $745 -28.379545728106525 $581 -11.746377967055228 $580 $826 forward 7 unknown #
vertex $-1 $744 $827 #
straight-curve $-1 -48.442507575687401 -36.806794596169013 10.459189581242683 0 0.83867056331134215 0.54463904215088732 I I #
point $-1 -48.442507575687401 -28.98455479518082 15.539011598440624 #
point $-1 -31.809339814636104 -36.806794596169006 10.459189581242688 #
straight-curve $-1 0 -36.806794596169006 15.539011598440624 1 0 0 I I #
vertex $-1 $587 $828 #
point $-1 -41.690173929672746 -28.855203300664979 6.7773203672670901 #
vertex $-1 $591 $829 #
point $-1 -34.561673460650759 -28.855203300664979 6.7773203672670901 #
edge $-1 $755 34.362005890583127 $758 39.441827907781061 $596 $830 forward 7 unknown #
vertex $-1 $610 $831 #
straight-curve $-1 -21.810225096363688 -47.413358937745954 15.539011598440624 0 -1 0 I I #
edge $-1 $758 -15.063404488444668 $607 1.5697632726066306 $606 $832 forward 7 unknown #
vertex $-1 $757 $833 #
straight-curve $-1 -21.810225096363688 -36.806794596169013 10.459189581242683 0 0.83867056331134215 0.54463904215088732 I I #
point $-1 -21.810225096363688 -28.98455479518082 15.539011598440624 #
point $-1 -5.177057335312389 -36.806794596169006 10.459189581242688 #
straight-curve $-1 0 -36.806794596169006 15.539011598440624 1 0 0 I I #
vertex $-1 $613 $834 #
point $-1 -15.057891450349032 -28.855203300664979 6.7773203672670901 #
vertex $-1 $617 $835 #
point $-1 -7.9293909813270531 -28.855203300664979 6.7773203672670901 #
edge $-1 $768 34.362005890583127 $771 39.441827907781061 $622 $836 forward 7 unknown #
vertex $-1 $636 $837 #
straight-curve $-1 4.8220573829600237 -47.413358937745954 15.539011598440624 0 -1 0 I I #
edge $-1 $771 -1.7472632487828132 $633 14.885904512268485 $632 $838 forward 7 unknown #
vertex $-1 $770 $839 #
straight-curve $-1 4.8220573829600237 -36.806794596169013 10.459189581242683 0 0.83867056331134215 0.54463904215088732 I I #
point $-1 4.8220573829600237 -28.98455479518082 15.539011598440624 #
point $-1 21.455225144011322 -36.806794596169006 10.459189581242688 #
straight-curve $-1 0 -36.806794596169006 15.539011598440624 1 0 0 I I #
vertex $-1 $639 $840 #
point $-1 11.574391028974681 -28.855203300664979 6.7773203672670901 #
vertex $-1 $643 $841 #
point $-1 18.702891497996653 -28.855203300664979 6.7773203672670901 #
edge $-1 $781 34.362005890583127 $784 39.441827907781061 $648 $842 forward 7 unknown #
vertex $-1 $662 $843 #
straight-curve $-1 31.454339862283732 -47.413358937745954 15.539011598440624 0 -1 0 I I #
edge $-1 $784 11.568877990879042 $659 28.202045751930338 $658 $844 forward 7 unknown #
vertex $-1 $783 $845 #
straight-curve $-1 31.454339862283732 -36.806794596169013 10.459189581242683 0 0.83867056331134215 0.54463904215088732 I I #
point $-1 31.454339862283732 -28.98455479518082 15.539011598440624 #
point $-1 48.087507623335028 -36.806794596169006 10.459189581242688 #
straight-curve $-1 0 -36.806794596169006 15.539011598440624 1 0 0 I I #
vertex $-1 $665 $846 #
point $-1 38.206673508298387 -28.855203300664979 6.7773203672670901 #
vertex $-1 $669 $847 #
point $-1 45.335173977320359 -28.855203300664979 6.7773203672670901 #
edge $-1 $794 53.441461654454642 $797 57.97406279132268 $674 $848 forward 7 unknown #
vertex $-1 $688 $849 #
straight-curve $-1 -11.040863848825857 31.150571617434178 15.539011598440624 0 1 0 I I #
edge $-1 $797 -1.0201110594882454 $685 25.142060876116453 $684 $850 forward 7 unknown #
vertex $-1 $796 $851 #
straight-curve $-1 -11.040863848825857 -14.32950068777334 63.959595619896703 0 -0.69465836192734942 0.71933980857756763 I I #
point $-1 -11.040863848825857 32.429712661508816 15.539011598440617 #
point $-1 -37.203035784430554 36.806794596169006 11.006410461572585 #
straight-curve $-1 0 36.806794596169006 15.539011598440624 -1 0 0 I I #
vertex $-1 $691 $852 #
point $-1 -28.728129517114926 33.149037140022315 11.853905192670636 #
vertex $-1 $695 $853 #
point $-1 -17.515770116141489 33.149037140022315 11.853905192670636 #
coedge $-1 $710 $709 $702 $807 forward $699 $-1 #
edge $-1 $808 53.441461654454642 $811 57.97406279132268 $806 $854 forward 7 unknown #
vertex $-1 $714 $855 #
straight-curve $-1 37.203035784430554 31.150571617434178 15.539011598440624 0 1 0 I I #
edge $-1 $811 -25.142060876116449 $711 1.0201110594882437 $710 $856 forward 7 unknown #
vertex $-1 $810 $857 #
straight-curve $-1 37.203035784430554 -14.32950068777334 63.959595619896703 0 -0.69465836192734942 0.71933980857756763 I I #
point $-1 37.203035784430554 32.429712661508816 15.539011598440617 #
point $-1 11.040863848825861 36.806794596169006 11.006410461572585 #
straight-curve $-1 0 36.806794596169006 15.539011598440624 -1 0 0 I I #
vertex $-1 $717 $858 #
point $-1 19.515770116141489 33.149037140022315 11.853905192670636 #
vertex $-1 $721 $859 #
point $-1 30.72812951711493 33.149037140022315 11.853905192670636 #
straight-curve $-1 -53.264564958647419 36.806794596169006 0 0 0 -1 I I #
point $-1 -53.264564958647419 -36.806794596169006 -15.539011598440624 #
straight-curve $-1 -53.264564958647419 0 -15.539011598440624 0 1 0 I I #
point $-1 -53.264564958647419 36.806794596169006 -15.539011598440624 #
straight-curve $-1 -48.442507575687401 -36.806794596169006 49.901017489023751 0 0 -1 I I #
point $-1 -48.442507575687401 -36.806794596169006 15.539011598440624 #
straight-curve $-1 -20.062961847580876 -36.806794596169006 10.459189581242688 1 0 0 I I #
point $-1 -48.442507575687401 -36.806794596169006 10.459189581242688 #
point $-1 -43.690173929672746 -27.765925216363204 5.099979240644406 #
point $-1 -36.561673460650759 -27.765925216363204 5.099979240644406 #
straight-curve $-1 -21.810225096363688 -36.806794596169006 49.901017489023751 0 0 -1 I I #
point $-1 -21.810225096363688 -36.806794596169006 15.539011598440624 #
straight-curve $-1 -6.7468206079190196 -36.806794596169006 10.459189581242688 1 0 0 I I #
point $-1 -21.810225096363688 -36.806794596169006 10.459189581242688 #
point $-1 -17.057891450349032 -27.765925216363204 5.099979240644406 #
point $-1 -9.9293909813270531 -27.765925216363204 5.099979240644406 #
straight-curve $-1 4.8220573829600237 -36.806794596169006 49.901017489023751 0 0 -1 I I #
point $-1 4.8220573829600237 -36.806794596169006 15.539011598440624 #
straight-curve $-1 6.569320631742837 -36.806794596169006 10.459189581242688 1 0 0 I I #
point $-1 4.8220573829600237 -36.806794596169006 10.459189581242688 #
point $-1 9.5743910289746808 -27.765925216363204 5.099979240644406 #
point $-1 16.702891497996653 -27.765925216363204 5.099979240644406 #
straight-curve $-1 31.454339862283732 -36.806794596169006 49.901017489023751 0 0 -1 I I #
point $-1 31.454339862283732 -36.806794596169006 15.539011598440624 #
straight-curve $-1 19.88546187140469 -36.806794596169006 10.459189581242688 1 0 0 I I #
point $-1 31.454339862283732 -36.806794596169006 10.459189581242688 #
point $-1 36.206673508298387 -27.765925216363204 5.099979240644406 #
point $-1 43.335173977320359 -27.765925216363204 5.099979240644406 #
straight-curve $-1 -11.040863848825857 36.806794596169006 68.980473252895266 0 0 -1 I I #
point $-1 -11.040863848825857 36.806794596169006 15.539011598440624 #
straight-curve $-1 -12.060974908314103 36.806794596169006 11.006410461572596 -1 0 0 I I #
point $-1 -11.040863848825857 36.806794596169006 11.006410461572585 #
point $-1 -29.728129517114926 32.429697331444743 11.159246830743287 #
point $-1 -18.515770116141489 32.429697331444743 11.159246830743287 #
straight-curve $-1 37.203035784430554 36.806794596169006 68.980473252895266 0 0 -1 I I #
point $-1 37.203035784430554 36.806794596169006 15.539011598440624 #
straight-curve $-1 12.060974908314105 36.806794596169006 11.006410461572596 -1 0 0 I I #
point $-1 37.203035784430554 36.806794596169006 11.006410461572585 #
point $-1 18.515770116141489 32.429697331444743 11.159246830743287 #
point $-1 29.72812951711493 32.429697331444743 11.159246830743287 #
End-of-ACIS-data 