500 0 18 0           
7 Unknown 11 ACIS 5.0 NT 24 Fri Mar 26 20:29:21 1999 
-1 9.9999999999999995e-007 1e-010 
body $-1 $18 $-1 $19 #
body $-1 $20 $-1 $21 #
body $-1 $22 $-1 $23 #
body $-1 $24 $-1 $25 #
body $-1 $26 $-1 $27 #
body $-1 $28 $-1 $29 #
body $-1 $30 $-1 $31 #
body $-1 $32 $-1 $33 #
body $-1 $34 $-1 $35 #
body $-1 $36 $-1 $37 #
body $-1 $38 $-1 $39 #
body $-1 $40 $-1 $41 #
body $-1 $42 $-1 $43 #
body $-1 $44 $-1 $45 #
body $-1 $46 $-1 $47 #
body $-1 $48 $-1 $49 #
body $-1 $50 $-1 $51 #
body $-1 $52 $-1 $53 #
lump $-1 $-1 $54 $0 #
transform $-1 1 0 0 0 1 0 0 0 1 54.740440076906644 21.978870564403422 9.9058186741267047 1 rotate no_reflect no_shear #
lump $-1 $-1 $55 $1 #
transform $-1 1 0 0 0 1 0 0 0 1 54.740440076906644 21.978870564403422 9.9058186741267047 1 rotate no_reflect no_shear #
lump $-1 $-1 $56 $2 #
transform $-1 1 0 0 0 1 0 0 0 1 54.740440076906644 21.978870564403422 9.9058186741267047 1 rotate no_reflect no_shear #
lump $-1 $-1 $57 $3 #
transform $-1 1 0 0 0 1 0 0 0 1 54.740440076906644 21.978870564403422 9.9058186741267047 1 rotate no_reflect no_shear #
lump $-1 $-1 $58 $4 #
transform $-1 1 0 0 0 1 0 0 0 1 54.740440076906644 21.978870564403422 9.9058186741267047 1 rotate no_reflect no_shear #
lump $-1 $-1 $59 $5 #
transform $-1 1 0 0 0 1 0 0 0 1 54.740440076906644 21.978870564403422 9.9058186741267047 1 rotate no_reflect no_shear #
lump $-1 $-1 $60 $6 #
transform $-1 1 0 0 0 1 0 0 0 1 54.740440076906644 21.978870564403422 9.9058186741267047 1 rotate no_reflect no_shear #
lump $-1 $-1 $61 $7 #
transform $-1 1 0 0 0 1 0 0 0 1 54.740440076906644 21.978870564403422 9.9058186741267047 1 rotate no_reflect no_shear #
lump $-1 $-1 $62 $8 #
transform $-1 1 0 0 0 1 0 0 0 1 54.740440076906644 21.978870564403422 9.9058186741267047 1 rotate no_reflect no_shear #
lump $-1 $-1 $63 $9 #
transform $-1 1 0 0 0 1 0 0 0 1 54.740440076906644 21.978870564403422 9.9058186741267047 1 rotate no_reflect no_shear #
lump $-1 $-1 $64 $10 #
transform $-1 1 0 0 0 1 0 0 0 1 54.740440076906644 21.978870564403422 9.9058186741267047 1 rotate no_reflect no_shear #
lump $-1 $-1 $65 $11 #
transform $-1 1 0 0 0 1 0 0 0 1 54.740440076906644 21.978870564403422 9.9058186741267047 1 rotate no_reflect no_shear #
lump $-1 $-1 $66 $12 #
transform $-1 1 0 0 0 1 0 0 0 1 54.740440076906644 21.978870564403422 9.9058186741267047 1 rotate no_reflect no_shear #
lump $-1 $-1 $67 $13 #
transform $-1 1 0 0 0 1 0 0 0 1 54.740440076906644 21.978870564403422 9.9058186741267047 1 rotate no_reflect no_shear #
lump $-1 $-1 $68 $14 #
transform $-1 1 0 0 0 1 0 0 0 1 54.740440076906644 21.978870564403422 9.9058186741267047 1 rotate no_reflect no_shear #
lump $-1 $-1 $69 $15 #
transform $-1 1 0 0 0 1 0 0 0 1 54.740440076906644 21.978870564403422 9.9058186741267047 1 rotate no_reflect no_shear #
lump $-1 $-1 $70 $16 #
transform $-1 1 0 0 0 1 0 0 0 1 54.740440076906644 21.978870564403422 9.9058186741267047 1 rotate no_reflect no_shear #
lump $-1 $-1 $71 $17 #
transform $-1 1 0 0 0 1 0 0 0 1 54.740440076906644 21.978870564403422 9.9058186741267047 1 rotate no_reflect no_shear #
shell $-1 $-1 $-1 $72 $-1 $18 #
shell $-1 $-1 $-1 $73 $-1 $20 #
shell $-1 $-1 $-1 $74 $-1 $22 #
shell $-1 $-1 $-1 $75 $-1 $24 #
shell $-1 $-1 $-1 $76 $-1 $26 #
shell $-1 $-1 $-1 $77 $-1 $28 #
shell $-1 $-1 $-1 $78 $-1 $30 #
shell $-1 $-1 $-1 $79 $-1 $32 #
shell $-1 $-1 $-1 $80 $-1 $34 #
shell $-1 $-1 $-1 $81 $-1 $36 #
shell $-1 $-1 $-1 $82 $-1 $38 #
shell $-1 $-1 $-1 $83 $-1 $40 #
shell $-1 $-1 $-1 $84 $-1 $42 #
shell $-1 $-1 $-1 $85 $-1 $44 #
shell $-1 $-1 $-1 $86 $-1 $46 #
shell $-1 $-1 $-1 $87 $-1 $48 #
shell $-1 $-1 $-1 $88 $-1 $50 #
shell $-1 $-1 $-1 $89 $-1 $52 #
face $-1 $90 $91 $54 $-1 $92 forward single #
face $-1 $93 $94 $55 $-1 $95 forward single #
face $-1 $96 $97 $56 $-1 $98 reversed single #
face $-1 $99 $100 $57 $-1 $101 forward single #
face $-1 $102 $103 $58 $-1 $104 forward single #
face $-1 $105 $106 $59 $-1 $107 reversed single #
face $-1 $108 $109 $60 $-1 $110 forward single #
face $-1 $111 $112 $61 $-1 $113 forward single #
face $-1 $114 $115 $62 $-1 $116 reversed single #
face $-1 $117 $118 $63 $-1 $119 forward single #
face $-1 $120 $121 $64 $-1 $122 forward single #
face $-1 $123 $124 $65 $-1 $125 reversed single #
face $-1 $126 $127 $66 $-1 $128 forward single #
face $-1 $129 $130 $67 $-1 $131 forward single #
face $-1 $132 $133 $68 $-1 $134 reversed single #
face $-1 $135 $136 $69 $-1 $137 forward single #
face $-1 $138 $139 $70 $-1 $140 forward single #
face $-1 $141 $142 $71 $-1 $143 forward single #
face $-1 $144 $145 $54 $-1 $146 reversed single #
loop $-1 $-1 $147 $72 #
plane-surface $-1 0 0 9.9058186741267047 0 0 1 1 0 0 forward_v I I I I #
face $-1 $148 $149 $55 $-1 $150 reversed single #
loop $-1 $-1 $151 $73 #
plane-surface $-1 -54.740440076906644 0 0 1 0 0 0 0 -1 forward_v I I I I #
face $-1 $152 $153 $56 $-1 $154 reversed single #
loop $-1 $-1 $155 $74 #
plane-surface $-1 -39.013428658170128 52.759897068439727 120.13526960583194 1 0 0 0 -0.6018150307709319 -0.79863550430605224 forward_v I I I I #
face $-1 $156 $157 $57 $-1 $158 forward single #
loop $-1 $159 $160 $75 #
cone-surface $-1 -34.648123566315384 19.24103707660187 7.6654213914490379 0 -0.6018150307709319 -0.79863550430605224 1 0 0 1 I I 0 1 1 forward I I I I #
face $-1 $161 $162 $58 $-1 $163 forward single #
loop $-1 $164 $165 $76 #
cone-surface $-1 -28.100165928533272 19.24103707660187 7.6654213914490379 0 -0.6018150307709319 -0.79863550430605224 1 0 0 1 I I 0 1 1 forward I I I I #
face $-1 $166 $167 $59 $-1 $168 reversed single #
loop $-1 $-1 $169 $77 #
plane-surface $-1 -14.416657973533749 52.759897068439727 120.13526960583194 1 0 0 0 -0.6018150307709319 -0.79863550430605224 forward_v I I I I #
face $-1 $170 $171 $60 $-1 $172 forward single #
loop $-1 $173 $174 $78 #
cone-surface $-1 -10.051352881679001 19.24103707660187 7.6654213914490379 0 -0.6018150307709319 -0.79863550430605224 1 0 0 1 I I 0 1 1 forward I I I I #
face $-1 $175 $176 $61 $-1 $177 forward single #
loop $-1 $178 $179 $79 #
cone-surface $-1 -3.5033952438968896 19.24103707660187 7.6654213914490379 0 -0.6018150307709319 -0.79863550430605224 1 0 0 1 I I 0 1 1 forward I I I I #
face $-1 $180 $181 $62 $-1 $182 reversed single #
loop $-1 $-1 $183 $80 #
plane-surface $-1 10.180112711102634 52.759897068439727 120.13526960583194 1 0 0 0 -0.6018150307709319 -0.79863550430605224 forward_v I I I I #
face $-1 $184 $185 $63 $-1 $186 forward single #
loop $-1 $187 $188 $81 #
cone-surface $-1 14.545417802957381 19.24103707660187 7.6654213914490379 0 -0.6018150307709319 -0.79863550430605224 1 0 0 1 I I 0 1 1 forward I I I I #
face $-1 $189 $190 $64 $-1 $191 forward single #
loop $-1 $192 $193 $82 #
cone-surface $-1 21.0933754407395 19.24103707660187 7.6654213914490379 0 -0.6018150307709319 -0.79863550430605224 1 0 0 1 I I 0 1 1 forward I I I I #
face $-1 $194 $195 $65 $-1 $196 reversed single #
loop $-1 $-1 $197 $83 #
plane-surface $-1 34.77688339573902 52.759897068439727 120.13526960583194 1 0 0 0 -0.6018150307709319 -0.79863550430605224 forward_v I I I I #
face $-1 $198 $199 $66 $-1 $200 forward single #
loop $-1 $201 $202 $84 #
cone-surface $-1 39.142188487593764 19.24103707660187 7.6654213914490379 0 -0.6018150307709319 -0.79863550430605224 1 0 0 1 I I 0 1 1 forward I I I I #
face $-1 $203 $204 $67 $-1 $205 forward single #
loop $-1 $206 $207 $85 #
cone-surface $-1 45.690146125375882 19.24103707660187 7.6654213914490379 0 -0.6018150307709319 -0.79863550430605224 1 0 0 1 I I 0 1 1 forward I I I I #
face $-1 $208 $209 $68 $-1 $210 reversed single #
loop $-1 $-1 $211 $86 #
plane-surface $-1 13.046420261314129 -89.382031605120829 90.904933058078143 -1 0 0 0 -0.61566148304635926 0.78801074757464917 forward_v I I I I #
face $-1 $212 $213 $69 $-1 $214 forward single #
loop $-1 $215 $216 $87 #
cone-surface $-1 -1.4533861911455261 -17.520393876099174 5.8819750139903357 0 0.61566148304635926 -0.78801074757464917 1.5 0 0 1 I I 0 1 1.5 forward I I I I #
face $-1 $217 $218 $70 $-1 $219 forward single #
loop $-1 $220 $221 $88 #
cone-surface $-1 3.9840412285268485 -17.520393876099174 5.8819750139903357 0 0.61566148304635926 -0.78801074757464917 1.5 0 0 1 I I 0 1 1.5 forward I I I I #
face $-1 $222 $223 $71 $-1 $224 forward single #
loop $-1 $225 $226 $89 #
cone-surface $-1 9.421468648199216 -17.520393876099174 5.8819750139903357 0 0.61566148304635926 -0.78801074757464917 1.5 0 0 1 I I 0 1 1.5 forward I I I I #
face $-1 $227 $228 $54 $-1 $229 reversed single #
loop $-1 $-1 $230 $90 #
plane-surface $-1 0 0 -9.9058186741267047 0 0 1 1 0 0 forward_v I I I I #
coedge $-1 $231 $232 $233 $234 forward $91 $-1 #
face $-1 $235 $236 $55 $-1 $237 forward single #
loop $-1 $-1 $238 $93 #
plane-surface $-1 0 21.978870564403422 0 0 -1 0 0 0 -1 forward_v I I I I #
coedge $-1 $239 $240 $241 $242 forward $94 $-1 #
face $-1 $243 $244 $56 $-1 $245 reversed single #
loop $-1 $-1 $246 $96 #
plane-surface $-1 -31.374144747424328 -13.127342190156128 32.699951672320793 0 0.6018150307709319 0.79863550430605224 1 0 0 forward_v I I I I #
coedge $-1 $247 $248 $249 $250 reversed $97 $-1 #
face $-1 $-1 $251 $57 $-1 $252 forward single #
loop $-1 $253 $254 $99 #
cone-surface $-1 -34.648123566315384 18.630984671603798 6.8558545225480803 0 -0.6018150307709319 -0.79863550430605224 0.5 0 0 1 I I -0.70710678118654746 0.70710678118654746 0.5 forward I I I I #
loop $-1 $-1 $255 $75 #
coedge $-1 $160 $160 $256 $257 reversed $100 $-1 #
face $-1 $-1 $258 $58 $-1 $259 forward single #
loop $-1 $260 $261 $102 #
cone-surface $-1 -28.100165928533272 18.630984671603798 6.8558545225480803 0 -0.6018150307709319 -0.79863550430605224 0.5 0 0 1 I I -0.70710678118654746 0.70710678118654746 0.5 forward I I I I #
loop $-1 $-1 $262 $76 #
coedge $-1 $165 $165 $263 $264 reversed $103 $-1 #
face $-1 $265 $266 $59 $-1 $267 reversed single #
loop $-1 $-1 $268 $105 #
plane-surface $-1 -6.7773740627879491 -13.127342190156128 32.699951672320793 0 0.6018150307709319 0.79863550430605224 1 0 0 forward_v I I I I #
coedge $-1 $269 $270 $271 $272 reversed $106 $-1 #
face $-1 $-1 $273 $60 $-1 $274 forward single #
loop $-1 $275 $276 $108 #
cone-surface $-1 -10.051352881679001 18.630984671603798 6.8558545225480803 0 -0.6018150307709319 -0.79863550430605224 0.5 0 0 1 I I -0.70710678118654746 0.70710678118654746 0.5 forward I I I I #
loop $-1 $-1 $277 $78 #
coedge $-1 $174 $174 $278 $279 reversed $109 $-1 #
face $-1 $-1 $280 $61 $-1 $281 forward single #
loop $-1 $282 $283 $111 #
cone-surface $-1 -3.5033952438968896 18.630984671603798 6.8558545225480803 0 -0.6018150307709319 -0.79863550430605224 0.5 0 0 1 I I -0.70710678118654746 0.70710678118654746 0.5 forward I I I I #
loop $-1 $-1 $284 $79 #
coedge $-1 $179 $179 $285 $286 reversed $112 $-1 #
face $-1 $287 $288 $62 $-1 $289 reversed single #
loop $-1 $-1 $290 $114 #
plane-surface $-1 17.819396621848433 -13.127342190156128 32.699951672320793 0 0.6018150307709319 0.79863550430605224 1 0 0 forward_v I I I I #
coedge $-1 $291 $292 $293 $294 reversed $115 $-1 #
face $-1 $-1 $295 $63 $-1 $296 forward single #
loop $-1 $297 $298 $117 #
cone-surface $-1 14.545417802957381 18.630984671603798 6.8558545225480803 0 -0.6018150307709319 -0.79863550430605224 0.5 0 0 1 I I -0.70710678118654746 0.70710678118654746 0.5 forward I I I I #
loop $-1 $-1 $299 $81 #
coedge $-1 $188 $188 $300 $301 reversed $118 $-1 #
face $-1 $-1 $302 $64 $-1 $303 forward single #
loop $-1 $304 $305 $120 #
cone-surface $-1 21.0933754407395 18.630984671603798 6.8558545225480803 0 -0.6018150307709319 -0.79863550430605224 0.5 0 0 1 I I -0.70710678118654746 0.70710678118654746 0.5 forward I I I I #
loop $-1 $-1 $306 $82 #
coedge $-1 $193 $193 $307 $308 reversed $121 $-1 #
face $-1 $309 $310 $65 $-1 $311 reversed single #
loop $-1 $-1 $312 $123 #
plane-surface $-1 42.416167306484816 -13.127342190156128 32.699951672320793 0 0.6018150307709319 0.79863550430605224 1 0 0 forward_v I I I I #
coedge $-1 $313 $314 $315 $316 reversed $124 $-1 #
face $-1 $-1 $317 $66 $-1 $318 forward single #
loop $-1 $319 $320 $126 #
cone-surface $-1 39.142188487593764 18.630984671603798 6.8558545225480803 0 -0.6018150307709319 -0.79863550430605224 0.5 0 0 1 I I -0.70710678118654746 0.70710678118654746 0.5 forward I I I I #
loop $-1 $-1 $321 $84 #
coedge $-1 $202 $202 $322 $323 reversed $127 $-1 #
face $-1 $-1 $324 $67 $-1 $325 forward single #
loop $-1 $326 $327 $129 #
cone-surface $-1 45.690146125375882 18.630984671603798 6.8558545225480803 0 -0.6018150307709319 -0.79863550430605224 0.5 0 0 1 I I -0.70710678118654746 0.70710678118654746 0.5 forward I I I I #
loop $-1 $-1 $328 $85 #
coedge $-1 $207 $207 $329 $330 reversed $130 $-1 #
face $-1 $331 $332 $68 $-1 $333 reversed single #
loop $-1 $-1 $334 $132 #
plane-surface $-1 3.9840412285268414 -21.978870564403422 4.6328228429411666 0 -0.61566148304635926 0.78801074757464917 1 0 0 forward_v I I I I #
coedge $-1 $335 $336 $337 $338 reversed $133 $-1 #
face $-1 $-1 $339 $69 $-1 $340 forward single #
loop $-1 $341 $342 $135 #
cone-surface $-1 -1.4533861911455261 -15.974734452717266 3.9036212087657489 0 0.61566148304635926 -0.78801074757464917 0.75 0 0 1 I I -0.70710678118654757 0.70710678118654757 0.75 forward I I I I #
loop $-1 $-1 $343 $87 #
coedge $-1 $216 $216 $344 $345 reversed $136 $-1 #
face $-1 $-1 $346 $70 $-1 $347 forward single #
loop $-1 $348 $349 $138 #
cone-surface $-1 3.9840412285268485 -15.974734452717266 3.9036212087657489 0 0.61566148304635926 -0.78801074757464917 0.75 0 0 1 I I -0.70710678118654757 0.70710678118654757 0.75 forward I I I I #
loop $-1 $-1 $350 $88 #
coedge $-1 $221 $221 $351 $352 reversed $139 $-1 #
face $-1 $-1 $353 $71 $-1 $354 forward single #
loop $-1 $355 $356 $141 #
cone-surface $-1 9.421468648199216 -15.974734452717266 3.9036212087657489 0 0.61566148304635926 -0.78801074757464917 0.75 0 0 1 I I -0.70710678118654757 0.70710678118654757 0.75 forward I I I I #
loop $-1 $-1 $357 $89 #
coedge $-1 $226 $226 $358 $359 reversed $142 $-1 #
face $-1 $360 $361 $54 $-1 $362 reversed single #
loop $-1 $-1 $363 $144 #
plane-surface $-1 0 -21.978870564403422 0 0 1 0 0 0 1 forward_v I I I I #
coedge $-1 $364 $365 $366 $367 forward $145 $-1 #
coedge $-1 $368 $147 $369 $370 forward $91 $-1 #
coedge $-1 $147 $368 $371 $372 forward $91 $-1 #
coedge $-1 $373 $374 $147 $234 reversed $375 $-1 #
edge $-1 $376 -21.978870564403422 $377 21.978870564403422 $233 $378 forward 7 unknown #
face $-1 $379 $380 $55 $-1 $381 reversed single #
loop $-1 $-1 $241 $148 #
plane-surface $-1 -60.287338784540523 0 4.4428534933117421 0 0 1 1 0 0 forward_v I I I I #
coedge $-1 $382 $383 $240 $384 forward $149 $-1 #
coedge $-1 $385 $151 $386 $387 reversed $94 $-1 #
coedge $-1 $151 $385 $238 $384 reversed $94 $-1 #
coedge $-1 $388 $389 $151 $242 reversed $236 $-1 #
edge $-1 $390 -21.978870564403422 $391 21.978870564403422 $241 $392 forward 7 unknown #
face $-1 $393 $394 $56 $-1 $395 forward single #
loop $-1 $-1 $396 $152 #
plane-surface $-1 -23.734860836678529 52.759897068439727 120.13526960583194 -1 0 0 0 0.6018150307709319 0.79863550430605224 forward_v I I I I #
coedge $-1 $397 $398 $399 $400 reversed $153 $-1 #
coedge $-1 $248 $155 $401 $402 reversed $97 $-1 #
coedge $-1 $155 $247 $397 $403 reversed $97 $-1 #
coedge $-1 $399 $404 $155 $250 forward $394 $-1 #
edge $-1 $405 4.4010779698164413 $406 9.2584551661943202 $249 $407 forward 7 unknown #
loop $-1 $-1 $256 $156 #
plane-surface $-1 -31.374144747424328 -13.127342190156128 32.699951672320793 0 0.6018150307709319 0.79863550430605224 1 0 0 forward_v I I I I #
loop $-1 $-1 $408 $99 #
coedge $-1 $254 $254 $255 $409 reversed $157 $-1 #
coedge $-1 $255 $255 $254 $409 forward $159 $-1 #
coedge $-1 $256 $256 $160 $257 forward $251 $-1 #
edge $-1 $410 4.2761529838552683e-015 $410 6.2831853071796049 $256 $411 forward 7 unknown #
loop $-1 $-1 $263 $161 #
plane-surface $-1 -31.374144747424328 -13.127342190156128 32.699951672320793 0 0.6018150307709319 0.79863550430605224 1 0 0 forward_v I I I I #
loop $-1 $-1 $412 $102 #
coedge $-1 $261 $261 $262 $413 reversed $162 $-1 #
coedge $-1 $262 $262 $261 $413 forward $164 $-1 #
coedge $-1 $263 $263 $165 $264 forward $258 $-1 #
edge $-1 $414 4.2761529838552683e-015 $414 6.2831853071796049 $263 $415 forward 7 unknown #
face $-1 $416 $417 $59 $-1 $418 forward single #
loop $-1 $-1 $419 $166 #
plane-surface $-1 0.86190984795784953 52.759897068439727 120.13526960583194 -1 0 0 0 0.6018150307709319 0.79863550430605224 forward_v I I I I #
coedge $-1 $420 $421 $422 $423 reversed $167 $-1 #
coedge $-1 $270 $169 $424 $425 reversed $106 $-1 #
coedge $-1 $169 $269 $420 $426 reversed $106 $-1 #
coedge $-1 $422 $427 $169 $272 forward $417 $-1 #
edge $-1 $428 4.4010779698164413 $429 9.2584551661943202 $271 $430 forward 7 unknown #
loop $-1 $-1 $278 $170 #
plane-surface $-1 -6.7773740627879491 -13.127342190156128 32.699951672320793 0 0.6018150307709319 0.79863550430605224 1 0 0 forward_v I I I I #
loop $-1 $-1 $431 $108 #
coedge $-1 $276 $276 $277 $432 reversed $171 $-1 #
coedge $-1 $277 $277 $276 $432 forward $173 $-1 #
coedge $-1 $278 $278 $174 $279 forward $273 $-1 #
edge $-1 $433 4.2761529838552683e-015 $433 6.2831853071796049 $278 $434 forward 7 unknown #
loop $-1 $-1 $285 $175 #
plane-surface $-1 -6.7773740627879491 -13.127342190156128 32.699951672320793 0 0.6018150307709319 0.79863550430605224 1 0 0 forward_v I I I I #
loop $-1 $-1 $435 $111 #
coedge $-1 $283 $283 $284 $436 reversed $176 $-1 #
coedge $-1 $284 $284 $283 $436 forward $178 $-1 #
coedge $-1 $285 $285 $179 $286 forward $280 $-1 #
edge $-1 $437 4.2761529838552683e-015 $437 6.2831853071796049 $285 $438 forward 7 unknown #
face $-1 $439 $440 $62 $-1 $441 forward single #
loop $-1 $-1 $442 $180 #
plane-surface $-1 25.458680532594233 52.759897068439727 120.13526960583194 -1 0 0 0 0.6018150307709319 0.79863550430605224 forward_v I I I I #
coedge $-1 $443 $444 $445 $446 reversed $181 $-1 #
coedge $-1 $292 $183 $447 $448 reversed $115 $-1 #
coedge $-1 $183 $291 $443 $449 reversed $115 $-1 #
coedge $-1 $445 $450 $183 $294 forward $440 $-1 #
edge $-1 $451 4.4010779698164413 $452 9.2584551661943202 $293 $453 forward 7 unknown #
loop $-1 $-1 $300 $184 #
plane-surface $-1 17.819396621848433 -13.127342190156128 32.699951672320793 0 0.6018150307709319 0.79863550430605224 1 0 0 forward_v I I I I #
loop $-1 $-1 $454 $117 #
coedge $-1 $298 $298 $299 $455 reversed $185 $-1 #
coedge $-1 $299 $299 $298 $455 forward $187 $-1 #
coedge $-1 $300 $300 $188 $301 forward $295 $-1 #
edge $-1 $456 4.2761529838552683e-015 $456 6.2831853071796049 $300 $457 forward 7 unknown #
loop $-1 $-1 $307 $189 #
plane-surface $-1 17.819396621848433 -13.127342190156128 32.699951672320793 0 0.6018150307709319 0.79863550430605224 1 0 0 forward_v I I I I #
loop $-1 $-1 $458 $120 #
coedge $-1 $305 $305 $306 $459 reversed $190 $-1 #
coedge $-1 $306 $306 $305 $459 forward $192 $-1 #
coedge $-1 $307 $307 $193 $308 forward $302 $-1 #
edge $-1 $460 4.2761529838552683e-015 $460 6.2831853071796049 $307 $461 forward 7 unknown #
face $-1 $462 $463 $65 $-1 $464 forward single #
loop $-1 $-1 $465 $194 #
plane-surface $-1 50.055451217230612 52.759897068439727 120.13526960583194 -1 0 0 0 0.6018150307709319 0.79863550430605224 forward_v I I I I #
coedge $-1 $466 $467 $468 $469 reversed $195 $-1 #
coedge $-1 $314 $197 $470 $471 reversed $124 $-1 #
coedge $-1 $197 $313 $466 $472 reversed $124 $-1 #
coedge $-1 $468 $473 $197 $316 forward $463 $-1 #
edge $-1 $474 4.4010779698164413 $475 9.2584551661943202 $315 $476 forward 7 unknown #
loop $-1 $-1 $322 $198 #
plane-surface $-1 42.416167306484816 -13.127342190156128 32.699951672320793 0 0.6018150307709319 0.79863550430605224 1 0 0 forward_v I I I I #
loop $-1 $-1 $477 $126 #
coedge $-1 $320 $320 $321 $478 reversed $199 $-1 #
coedge $-1 $321 $321 $320 $478 forward $201 $-1 #
coedge $-1 $322 $322 $202 $323 forward $317 $-1 #
edge $-1 $479 4.2761529838552683e-015 $479 6.2831853071796049 $322 $480 forward 7 unknown #
loop $-1 $-1 $329 $203 #
plane-surface $-1 42.416167306484816 -13.127342190156128 32.699951672320793 0 0.6018150307709319 0.79863550430605224 1 0 0 forward_v I I I I #
loop $-1 $-1 $481 $129 #
coedge $-1 $327 $327 $328 $482 reversed $204 $-1 #
coedge $-1 $328 $328 $327 $482 forward $206 $-1 #
coedge $-1 $329 $329 $207 $330 forward $324 $-1 #
edge $-1 $483 4.2761529838552683e-015 $483 6.2831853071796049 $329 $484 forward 7 unknown #
face $-1 $485 $486 $68 $-1 $487 reversed single #
loop $-1 $-1 $488 $208 #
plane-surface $-1 -5.0783378042604461 -89.382031605120829 90.904933058078143 1 0 0 0 0.61566148304635926 -0.78801074757464917 forward_v I I I I #
coedge $-1 $489 $490 $491 $492 reversed $209 $-1 #
coedge $-1 $336 $211 $493 $494 reversed $133 $-1 #
coedge $-1 $211 $335 $489 $495 reversed $133 $-1 #
coedge $-1 $491 $496 $211 $338 forward $497 $-1 #
edge $-1 $498 22.712145238156992 $499 29.46127199257122 $337 $500 forward 7 unknown #
loop $-1 $-1 $344 $212 #
plane-surface $-1 3.9840412285268414 -21.978870564403422 4.6328228429411666 0 -0.61566148304635926 0.78801074757464917 1 0 0 forward_v I I I I #
loop $-1 $-1 $501 $135 #
coedge $-1 $342 $342 $343 $502 reversed $213 $-1 #
coedge $-1 $343 $343 $342 $502 forward $215 $-1 #
coedge $-1 $344 $344 $216 $345 forward $339 $-1 #
edge $-1 $503 3.6454482872156721e-016 $503 6.2831853071796004 $344 $504 forward 7 unknown #
loop $-1 $-1 $351 $217 #
plane-surface $-1 3.9840412285268414 -21.978870564403422 4.6328228429411666 0 -0.61566148304635926 0.78801074757464917 1 0 0 forward_v I I I I #
loop $-1 $-1 $505 $138 #
coedge $-1 $349 $349 $350 $506 reversed $218 $-1 #
coedge $-1 $350 $350 $349 $506 forward $220 $-1 #
coedge $-1 $351 $351 $221 $352 forward $346 $-1 #
edge $-1 $507 3.6454482872156721e-016 $507 6.2831853071796004 $351 $508 forward 7 unknown #
loop $-1 $-1 $358 $222 #
plane-surface $-1 3.9840412285268414 -21.978870564403422 4.6328228429411666 0 -0.61566148304635926 0.78801074757464917 1 0 0 forward_v I I I I #
loop $-1 $-1 $509 $141 #
coedge $-1 $356 $356 $357 $510 reversed $223 $-1 #
coedge $-1 $357 $357 $356 $510 forward $225 $-1 #
coedge $-1 $358 $358 $226 $359 forward $353 $-1 #
edge $-1 $511 3.6454482872156721e-016 $511 6.2831853071796004 $358 $512 forward 7 unknown #
face $-1 $513 $514 $54 $-1 $515 reversed single #
loop $-1 $-1 $516 $227 #
plane-surface $-1 -54.740440076906644 0 0 1 0 0 0 0 -1 forward_v I I I I #
coedge $-1 $517 $371 $516 $518 forward $228 $-1 #
coedge $-1 $519 $230 $517 $520 forward $145 $-1 #
coedge $-1 $230 $519 $521 $522 forward $145 $-1 #
coedge $-1 $374 $373 $230 $367 reversed $375 $-1 #
edge $-1 $523 -21.978870564403422 $524 21.978870564403422 $366 $525 forward 7 unknown #
coedge $-1 $232 $231 $526 $527 forward $91 $-1 #
coedge $-1 $528 $529 $231 $370 reversed $514 $-1 #
edge $-1 $377 -54.740440076906644 $530 54.740440076906644 $369 $531 forward 7 unknown #
coedge $-1 $363 $532 $232 $372 reversed $228 $-1 #
edge $-1 $533 -54.740440076906644 $376 54.740440076906644 $371 $534 forward 7 unknown #
coedge $-1 $366 $233 $532 $535 forward $375 $-1 #
coedge $-1 $233 $366 $528 $536 reversed $375 $-1 #
loop $-1 $-1 $373 $513 #
vertex $-1 $234 $537 #
vertex $-1 $234 $538 #
straight-curve $-1 54.740440076906644 0 9.9058186741267047 0 1 0 I I #
face $-1 $539 $540 $55 $-1 $541 reversed single #
loop $-1 $-1 $542 $235 #
plane-surface $-1 -60.287338784540523 0 1.0491726781009652 0 0 1 1 0 0 forward_v I I I I #
coedge $-1 $543 $238 $544 $545 reversed $149 $-1 #
coedge $-1 $238 $543 $388 $546 reversed $149 $-1 #
edge $-1 $390 -4.4428534933117421 $547 -1.0491726781009652 $238 $548 forward 7 unknown #
coedge $-1 $240 $239 $542 $549 forward $94 $-1 #
coedge $-1 $550 $551 $239 $387 forward $552 $-1 #
edge $-1 $553 1.0491726781009652 $391 4.4428534933117421 $386 $554 forward 7 unknown #
coedge $-1 $555 $241 $383 $546 forward $236 $-1 #
coedge $-1 $241 $555 $550 $556 forward $236 $-1 #
vertex $-1 $384 $557 #
vertex $-1 $556 $558 #
straight-curve $-1 -54.740440076906644 0 4.4428534933117421 0 -1 0 I I #
face $-1 $-1 $559 $56 $-1 $560 reversed single #
loop $-1 $-1 $249 $243 #
plane-surface $-1 0 0 9.9058186741267047 0 0 1 1 0 0 forward_v I I I I #
coedge $-1 $561 $562 $563 $564 reversed $244 $-1 #
coedge $-1 $565 $246 $248 $403 forward $153 $-1 #
coedge $-1 $246 $565 $561 $566 forward $153 $-1 #
coedge $-1 $563 $249 $246 $400 forward $394 $-1 #
edge $-1 $406 -23.326356284457965 $567 -8.0477884629663645 $399 $568 forward 7 unknown #
coedge $-1 $569 $570 $247 $402 forward $559 $-1 #
edge $-1 $571 -53.822112460648725 $405 -50.161816128789262 $401 $572 forward 7 unknown #
edge $-1 $406 37.875645892384156 $571 43.957741128806852 $248 $573 forward 7 unknown #
coedge $-1 $249 $563 $569 $574 forward $394 $-1 #
vertex $-1 $402 $575 #
vertex $-1 $250 $576 #
straight-curve $-1 -39.013428658170128 26.379948534219864 9.9058186741267065 0 -1 0 I I #
coedge $-1 $408 $408 $-1 $577 reversed $253 $-1 #
edge $-1 $578 0 $578 6.2831853071796004 $254 $579 forward 7 unknown #
vertex $-1 $257 $580 #
ellipse-curve $-1 -34.648123566315384 19.550181966214481 8.0756705081969749 0 0.6018150307709319 0.79863550430605224 1 0 0 1 I I #
coedge $-1 $412 $412 $-1 $581 reversed $260 $-1 #
edge $-1 $582 0 $582 6.2831853071796004 $261 $583 forward 7 unknown #
vertex $-1 $264 $584 #
ellipse-curve $-1 -28.100165928533272 19.550181966214481 8.0756705081969749 0 0.6018150307709319 0.79863550430605224 1 0 0 1 I I #
face $-1 $-1 $585 $59 $-1 $586 reversed single #
loop $-1 $-1 $271 $265 #
plane-surface $-1 0 0 9.9058186741267047 0 0 1 1 0 0 forward_v I I I I #
coedge $-1 $587 $588 $589 $590 reversed $266 $-1 #
coedge $-1 $591 $268 $270 $426 forward $167 $-1 #
coedge $-1 $268 $591 $587 $592 forward $167 $-1 #
coedge $-1 $589 $271 $268 $423 forward $417 $-1 #
edge $-1 $429 -11.027970942139774 $593 4.2505968793518241 $422 $594 forward 7 unknown #
coedge $-1 $595 $596 $269 $425 forward $585 $-1 #
edge $-1 $597 -53.822112460648725 $428 -50.161816128789262 $424 $598 forward 7 unknown #
edge $-1 $429 37.875645892384156 $597 43.957741128806852 $270 $599 forward 7 unknown #
coedge $-1 $271 $589 $595 $600 forward $417 $-1 #
vertex $-1 $272 $601 #
vertex $-1 $272 $602 #
straight-curve $-1 -14.416657973533749 26.379948534219864 9.9058186741267065 0 -1 0 I I #
coedge $-1 $431 $431 $-1 $603 reversed $275 $-1 #
edge $-1 $604 0 $604 6.2831853071796004 $276 $605 forward 7 unknown #
vertex $-1 $279 $606 #
ellipse-curve $-1 -10.051352881679001 19.550181966214481 8.0756705081969749 0 0.6018150307709319 0.79863550430605224 1 0 0 1 I I #
coedge $-1 $435 $435 $-1 $607 reversed $282 $-1 #
edge $-1 $608 0 $608 6.2831853071796004 $283 $609 forward 7 unknown #
vertex $-1 $286 $610 #
ellipse-curve $-1 -3.5033952438968896 19.550181966214481 8.0756705081969749 0 0.6018150307709319 0.79863550430605224 1 0 0 1 I I #
face $-1 $-1 $611 $62 $-1 $612 reversed single #
loop $-1 $-1 $293 $287 #
plane-surface $-1 0 0 9.9058186741267047 0 0 1 1 0 0 forward_v I I I I #
coedge $-1 $613 $614 $615 $616 reversed $288 $-1 #
coedge $-1 $617 $290 $292 $449 forward $181 $-1 #
coedge $-1 $290 $617 $613 $618 forward $181 $-1 #
coedge $-1 $615 $293 $290 $446 forward $440 $-1 #
edge $-1 $452 1.2704144001784172 $619 16.548982221670016 $445 $620 forward 7 unknown #
coedge $-1 $621 $622 $291 $448 forward $611 $-1 #
edge $-1 $623 -53.822112460648725 $451 -50.161816128789262 $447 $624 forward 7 unknown #
edge $-1 $452 37.875645892384156 $623 43.957741128806852 $292 $625 forward 7 unknown #
coedge $-1 $293 $615 $621 $626 forward $440 $-1 #
vertex $-1 $294 $627 #
vertex $-1 $294 $628 #
straight-curve $-1 10.180112711102634 26.379948534219864 9.9058186741267065 0 -1 0 I I #
coedge $-1 $454 $454 $-1 $629 reversed $297 $-1 #
edge $-1 $630 0 $630 6.2831853071796004 $298 $631 forward 7 unknown #
vertex $-1 $301 $632 #
ellipse-curve $-1 14.545417802957381 19.550181966214481 8.0756705081969749 0 0.6018150307709319 0.79863550430605224 1 0 0 1 I I #
coedge $-1 $458 $458 $-1 $633 reversed $304 $-1 #
edge $-1 $634 0 $634 6.2831853071796004 $305 $635 forward 7 unknown #
vertex $-1 $308 $636 #
ellipse-curve $-1 21.0933754407395 19.550181966214481 8.0756705081969749 0 0.6018150307709319 0.79863550430605224 1 0 0 1 I I #
face $-1 $-1 $637 $65 $-1 $638 reversed single #
loop $-1 $-1 $315 $309 #
plane-surface $-1 0 0 9.9058186741267047 0 0 1 1 0 0 forward_v I I I I #
coedge $-1 $639 $640 $641 $642 reversed $310 $-1 #
coedge $-1 $643 $312 $314 $472 forward $195 $-1 #
coedge $-1 $312 $643 $639 $644 forward $195 $-1 #
coedge $-1 $641 $315 $312 $469 forward $463 $-1 #
edge $-1 $475 13.568799742496612 $645 28.847367563988204 $468 $646 forward 7 unknown #
coedge $-1 $647 $648 $313 $471 forward $637 $-1 #
edge $-1 $649 -53.822112460648725 $474 -50.161816128789262 $470 $650 forward 7 unknown #
edge $-1 $475 37.875645892384156 $649 43.957741128806852 $314 $651 forward 7 unknown #
coedge $-1 $315 $641 $647 $652 forward $463 $-1 #
vertex $-1 $316 $653 #
vertex $-1 $316 $654 #
straight-curve $-1 34.77688339573902 26.379948534219864 9.9058186741267065 0 -1 0 I I #
coedge $-1 $477 $477 $-1 $655 reversed $319 $-1 #
edge $-1 $656 0 $656 6.2831853071796004 $320 $657 forward 7 unknown #
vertex $-1 $323 $658 #
ellipse-curve $-1 39.142188487593764 19.550181966214481 8.0756705081969749 0 0.6018150307709319 0.79863550430605224 1 0 0 1 I I #
coedge $-1 $481 $481 $-1 $659 reversed $326 $-1 #
edge $-1 $660 0 $660 6.2831853071796004 $327 $661 forward 7 unknown #
vertex $-1 $330 $662 #
ellipse-curve $-1 45.690146125375882 19.550181966214481 8.0756705081969749 0 0.6018150307709319 0.79863550430605224 1 0 0 1 I I #
face $-1 $-1 $497 $68 $-1 $663 forward single #
loop $-1 $-1 $664 $331 #
plane-surface $-1 0 -21.978870564403422 0 0 1 0 0 0 1 forward_v I I I I #
coedge $-1 $665 $666 $667 $668 reversed $332 $-1 #
coedge $-1 $669 $334 $336 $495 forward $209 $-1 #
coedge $-1 $334 $669 $665 $670 forward $209 $-1 #
coedge $-1 $667 $337 $334 $492 forward $497 $-1 #
edge $-1 $499 -11.054399647050708 $671 7.0703584185238668 $491 $672 forward 7 unknown #
coedge $-1 $673 $674 $335 $494 forward $486 $-1 #
edge $-1 $675 -40.819643686097905 $498 -35.546647854912365 $493 $676 forward 7 unknown #
edge $-1 $499 -8.5647648527469791 $675 0 $336 $677 forward 7 unknown #
coedge $-1 $337 $667 $673 $678 forward $497 $-1 #
loop $-1 $-1 $667 $485 #
vertex $-1 $494 $679 #
vertex $-1 $338 $680 #
straight-curve $-1 13.046420261314129 -44.691015802560415 9.9058186741267065 0 1 0 I I #
coedge $-1 $501 $501 $-1 $681 reversed $341 $-1 #
edge $-1 $682 0 $682 6.2831853071796004 $342 $683 forward 7 unknown #
vertex $-1 $345 $684 #
ellipse-curve $-1 -1.4533861911455261 -18.604307187196309 7.2693207585339348 0 -0.61566148304635926 0.78801074757464917 1.5 0 0 1 I I #
coedge $-1 $505 $505 $-1 $685 reversed $348 $-1 #
edge $-1 $686 0 $686 6.2831853071796004 $349 $687 forward 7 unknown #
vertex $-1 $352 $688 #
ellipse-curve $-1 3.9840412285268485 -18.604307187196309 7.2693207585339348 0 -0.61566148304635926 0.78801074757464917 1.5 0 0 1 I I #
coedge $-1 $509 $509 $-1 $689 reversed $355 $-1 #
edge $-1 $690 0 $690 6.2831853071796004 $356 $691 forward 7 unknown #
vertex $-1 $359 $692 #
ellipse-curve $-1 9.421468648199216 -18.604307187196309 7.2693207585339348 0 -0.61566148304635926 0.78801074757464917 1.5 0 0 1 I I #
face $-1 $-1 $375 $54 $-1 $693 reversed single #
loop $-1 $-1 $528 $360 #
plane-surface $-1 0 21.978870564403422 0 0 -1 0 0 0 -1 forward_v I I I I #
coedge $-1 $526 $694 $363 $518 reversed $361 $-1 #
coedge $-1 $532 $363 $364 $520 reversed $228 $-1 #
edge $-1 $533 -9.9058186741267047 $695 9.9058186741267047 $516 $696 forward 7 unknown #
coedge $-1 $365 $364 $694 $697 forward $145 $-1 #
edge $-1 $524 -54.740440076906644 $695 54.740440076906644 $517 $698 forward 7 unknown #
coedge $-1 $529 $528 $365 $522 reversed $514 $-1 #
edge $-1 $699 -54.740440076906644 $523 54.740440076906644 $521 $700 forward 7 unknown #
vertex $-1 $367 $701 #
vertex $-1 $535 $702 #
straight-curve $-1 54.740440076906644 0 -9.9058186741267047 0 -1 0 I I #
coedge $-1 $703 $516 $368 $527 reversed $361 $-1 #
edge $-1 $530 -21.978870564403422 $533 21.978870564403422 $526 $704 forward 7 unknown #
coedge $-1 $521 $369 $374 $536 forward $514 $-1 #
coedge $-1 $369 $521 $703 $705 reversed $514 $-1 #
vertex $-1 $370 $706 #
straight-curve $-1 0 21.978870564403422 9.9058186741267047 -1 0 0 I I #
coedge $-1 $371 $517 $373 $535 reversed $228 $-1 #
vertex $-1 $527 $707 #
straight-curve $-1 0 -21.978870564403422 9.9058186741267047 1 0 0 I I #
edge $-1 $376 -9.9058186741267047 $524 9.9058186741267047 $373 $708 forward 7 unknown #
edge $-1 $377 -9.9058186741267047 $523 9.9058186741267047 $374 $709 forward 7 unknown #
point $-1 54.740440076906644 -21.978870564403422 9.9058186741267047 #
point $-1 54.740440076906644 21.978870564403422 9.9058186741267047 #
face $-1 $-1 $552 $55 $-1 $710 reversed single #
loop $-1 $-1 $711 $379 #
plane-surface $-1 -65.834237492174395 0 2.7460130857063536 1 0 0 0 0 -1 forward_v I I I I #
coedge $-1 $712 $544 $385 $549 reversed $380 $-1 #
coedge $-1 $383 $382 $711 $713 reversed $149 $-1 #
coedge $-1 $542 $714 $382 $545 forward $380 $-1 #
edge $-1 $715 -5.546898707633872 $547 5.5468987076338792 $382 $716 forward 7 unknown #
edge $-1 $390 -5.5468987076338792 $717 5.546898707633872 $383 $718 forward 7 unknown #
vertex $-1 $384 $719 #
straight-curve $-1 -54.740440076906644 21.978870564403422 0 0 0 -1 I I #
edge $-1 $553 -21.978870564403422 $547 21.978870564403422 $542 $720 forward 7 unknown #
coedge $-1 $721 $386 $389 $556 reversed $552 $-1 #
coedge $-1 $386 $721 $712 $722 reversed $552 $-1 #
loop $-1 $-1 $386 $539 #
vertex $-1 $387 $723 #
straight-curve $-1 -54.740440076906644 -21.978870564403422 0 0 0 1 I I #
coedge $-1 $389 $388 $724 $725 forward $236 $-1 #
edge $-1 $726 -5.546898707633872 $391 5.5468987076338792 $550 $727 forward 7 unknown #
point $-1 -54.740440076906644 21.978870564403422 4.4428534933117421 #
point $-1 -54.740440076906644 -21.978870564403422 4.4428534933117421 #
loop $-1 $-1 $401 $393 #
plane-surface $-1 0 21.978870564403422 0 0 -1 0 0 0 -1 forward_v I I I I #
coedge $-1 $562 $396 $398 $566 reversed $244 $-1 #
coedge $-1 $396 $561 $728 $729 reversed $244 $-1 #
coedge $-1 $404 $399 $396 $564 forward $394 $-1 #
edge $-1 $567 -9.2584551661943202 $730 -4.4010779698164413 $563 $731 forward 7 unknown #
coedge $-1 $398 $397 $570 $732 reversed $153 $-1 #
edge $-1 $733 -43.957741128806852 $567 -37.875645892384156 $561 $734 forward 7 unknown #
vertex $-1 $400 $735 #
straight-curve $-1 -15.687072373712164 17.121493368025543 9.9058186741267047 1 0 0 I I #
coedge $-1 $728 $401 $404 $574 reversed $559 $-1 #
coedge $-1 $401 $728 $565 $732 forward $559 $-1 #
vertex $-1 $402 $736 #
straight-curve $-1 -39.013428658170128 21.978870564403422 60.067634802915968 0 0 1 I I #
straight-curve $-1 -39.013428658170128 -13.127342190156128 32.699951672320793 0 0.79863550430605224 -0.6018150307709319 I I #
edge $-1 $730 23.734860836678529 $405 39.013428658170128 $569 $737 forward 7 unknown #
point $-1 -39.013428658170128 21.978870564403422 9.9058186741267047 #
point $-1 -39.013428658170128 17.121493368025543 9.9058186741267065 #
edge $-1 $738 1 $738 0 $408 $-1 forward 7 unknown #
vertex $-1 $409 $739 #
ellipse-curve $-1 -34.648123566315384 18.931892186989263 7.2551722747011063 0 0.6018150307709319 0.79863550430605224 1 0 0 1 I I #
point $-1 -33.648123566315384 19.550181966214481 8.0756705081969677 #
edge $-1 $740 1 $740 0 $412 $-1 forward 7 unknown #
vertex $-1 $413 $741 #
ellipse-curve $-1 -28.100165928533272 18.931892186989263 7.2551722747011063 0 0.6018150307709319 0.79863550430605224 1 0 0 1 I I #
point $-1 -27.100165928533272 19.550181966214481 8.0756705081969677 #
loop $-1 $-1 $424 $416 #
plane-surface $-1 0 21.978870564403422 0 0 -1 0 0 0 -1 forward_v I I I I #
coedge $-1 $588 $419 $421 $592 reversed $266 $-1 #
coedge $-1 $419 $587 $742 $743 reversed $266 $-1 #
coedge $-1 $427 $422 $419 $590 forward $417 $-1 #
edge $-1 $593 -9.2584551661943202 $744 -4.4010779698164413 $589 $745 forward 7 unknown #
coedge $-1 $421 $420 $596 $746 reversed $167 $-1 #
edge $-1 $747 -43.957741128806852 $593 -37.875645892384156 $587 $748 forward 7 unknown #
vertex $-1 $423 $749 #
straight-curve $-1 -3.3886870313939745 17.121493368025543 9.9058186741267047 1 0 0 I I #
coedge $-1 $742 $424 $427 $600 reversed $585 $-1 #
coedge $-1 $424 $742 $591 $746 forward $585 $-1 #
vertex $-1 $425 $750 #
straight-curve $-1 -14.416657973533749 21.978870564403422 60.067634802915968 0 0 1 I I #
straight-curve $-1 -14.416657973533749 -13.127342190156128 32.699951672320793 0 0.79863550430605224 -0.6018150307709319 I I #
edge $-1 $744 -0.86190984795784953 $428 14.416657973533749 $595 $751 forward 7 unknown #
point $-1 -14.416657973533749 21.978870564403422 9.9058186741267047 #
point $-1 -14.416657973533749 17.121493368025543 9.9058186741267065 #
edge $-1 $752 1 $752 0 $431 $-1 forward 7 unknown #
vertex $-1 $432 $753 #
ellipse-curve $-1 -10.051352881679001 18.931892186989263 7.2551722747011063 0 0.6018150307709319 0.79863550430605224 1 0 0 1 I I #
point $-1 -9.0513528816790014 19.550181966214481 8.0756705081969677 #
edge $-1 $754 1 $754 0 $435 $-1 forward 7 unknown #
vertex $-1 $436 $755 #
ellipse-curve $-1 -3.5033952438968896 18.931892186989263 7.2551722747011063 0 0.6018150307709319 0.79863550430605224 1 0 0 1 I I #
point $-1 -2.5033952438968896 19.550181966214481 8.0756705081969677 #
loop $-1 $-1 $447 $439 #
plane-surface $-1 0 21.978870564403422 0 0 -1 0 0 0 -1 forward_v I I I I #
coedge $-1 $614 $442 $444 $618 reversed $288 $-1 #
coedge $-1 $442 $613 $756 $757 reversed $288 $-1 #
coedge $-1 $450 $445 $442 $616 forward $440 $-1 #
edge $-1 $619 -9.2584551661943202 $758 -4.4010779698164413 $615 $759 forward 7 unknown #
coedge $-1 $444 $443 $622 $760 reversed $181 $-1 #
edge $-1 $761 -43.957741128806852 $619 -37.875645892384156 $613 $762 forward 7 unknown #
vertex $-1 $446 $763 #
straight-curve $-1 8.9096983109242167 17.121493368025543 9.9058186741267047 1 0 0 I I #
coedge $-1 $756 $447 $450 $626 reversed $611 $-1 #
coedge $-1 $447 $756 $617 $760 forward $611 $-1 #
vertex $-1 $448 $764 #
straight-curve $-1 10.180112711102634 21.978870564403422 60.067634802915968 0 0 1 I I #
straight-curve $-1 10.180112711102634 -13.127342190156128 32.699951672320793 0 0.79863550430605224 -0.6018150307709319 I I #
edge $-1 $758 -25.458680532594233 $451 -10.180112711102634 $621 $765 forward 7 unknown #
point $-1 10.180112711102634 21.978870564403422 9.9058186741267047 #
point $-1 10.180112711102634 17.121493368025543 9.9058186741267065 #
edge $-1 $766 1 $766 0 $454 $-1 forward 7 unknown #
vertex $-1 $455 $767 #
ellipse-curve $-1 14.545417802957381 18.931892186989263 7.2551722747011063 0 0.6018150307709319 0.79863550430605224 1 0 0 1 I I #
point $-1 15.545417802957381 19.550181966214481 8.0756705081969677 #
edge $-1 $768 1 $768 0 $458 $-1 forward 7 unknown #
vertex $-1 $459 $769 #
ellipse-curve $-1 21.0933754407395 18.931892186989263 7.2551722747011063 0 0.6018150307709319 0.79863550430605224 1 0 0 1 I I #
point $-1 22.0933754407395 19.550181966214481 8.0756705081969677 #
loop $-1 $-1 $470 $462 #
plane-surface $-1 0 21.978870564403422 0 0 -1 0 0 0 -1 forward_v I I I I #
coedge $-1 $640 $465 $467 $644 reversed $310 $-1 #
coedge $-1 $465 $639 $770 $771 reversed $310 $-1 #
coedge $-1 $473 $468 $465 $642 forward $463 $-1 #
edge $-1 $645 -9.2584551661943202 $772 -4.4010779698164413 $641 $773 forward 7 unknown #
coedge $-1 $467 $466 $648 $774 reversed $195 $-1 #
edge $-1 $775 -43.957741128806852 $645 -37.875645892384156 $639 $776 forward 7 unknown #
vertex $-1 $469 $777 #
straight-curve $-1 21.208083653242408 17.121493368025543 9.9058186741267047 1 0 0 I I #
coedge $-1 $770 $470 $473 $652 reversed $637 $-1 #
coedge $-1 $470 $770 $643 $774 forward $637 $-1 #
vertex $-1 $471 $778 #
straight-curve $-1 34.77688339573902 21.978870564403422 60.067634802915968 0 0 1 I I #
straight-curve $-1 34.77688339573902 -13.127342190156128 32.699951672320793 0 0.79863550430605224 -0.6018150307709319 I I #
edge $-1 $772 -50.055451217230612 $474 -34.77688339573902 $647 $779 forward 7 unknown #
point $-1 34.77688339573902 21.978870564403422 9.9058186741267047 #
point $-1 34.77688339573902 17.121493368025543 9.9058186741267065 #
edge $-1 $780 1 $780 0 $477 $-1 forward 7 unknown #
vertex $-1 $478 $781 #
ellipse-curve $-1 39.142188487593764 18.931892186989263 7.2551722747011063 0 0.6018150307709319 0.79863550430605224 1 0 0 1 I I #
point $-1 40.142188487593764 19.550181966214481 8.0756705081969677 #
edge $-1 $782 1 $782 0 $481 $-1 forward 7 unknown #
vertex $-1 $482 $783 #
ellipse-curve $-1 45.690146125375882 18.931892186989263 7.2551722747011063 0 0.6018150307709319 0.79863550430605224 1 0 0 1 I I #
point $-1 46.690146125375882 19.550181966214481 8.0756705081969677 #
plane-surface $-1 0 0 9.9058186741267047 0 0 1 1 0 0 forward_v I I I I #
coedge $-1 $674 $673 $666 $784 forward $486 $-1 #
coedge $-1 $666 $488 $490 $670 reversed $332 $-1 #
coedge $-1 $488 $665 $664 $784 reversed $332 $-1 #
coedge $-1 $496 $491 $488 $668 forward $497 $-1 #
edge $-1 $671 -29.46127199257122 $785 -22.712145238156992 $667 $786 forward 7 unknown #
coedge $-1 $490 $489 $674 $787 reversed $209 $-1 #
edge $-1 $788 0 $671 8.5647648527469791 $665 $789 forward 7 unknown #
vertex $-1 $492 $790 #
straight-curve $-1 1.9920206142634207 -15.229743809989197 9.9058186741267047 -1 0 0 I I #
coedge $-1 $664 $493 $496 $678 reversed $486 $-1 #
coedge $-1 $493 $664 $669 $787 forward $486 $-1 #
vertex $-1 $494 $791 #
straight-curve $-1 13.046420261314129 -21.978870564403422 45.452466529039071 0 0 1 I I #
straight-curve $-1 13.046420261314129 -21.978870564403422 4.6328228429411666 0 -0.78801074757464917 -0.61566148304635926 I I #
edge $-1 $785 -5.0783378042604461 $498 13.046420261314129 $673 $792 forward 7 unknown #
point $-1 13.046420261314129 -21.978870564403422 9.9058186741267047 #
point $-1 13.046420261314129 -15.229743809989195 9.9058186741267047 #
edge $-1 $793 1 $793 0 $501 $-1 forward 7 unknown #
vertex $-1 $502 $794 #
ellipse-curve $-1 -1.4533861911455261 -16.436480565002036 4.4946292694467358 0 -0.61566148304635926 0.78801074757464917 1.5 0 0 1 I I #
point $-1 0.046613808854473859 -18.604307187196309 7.2693207585339357 #
edge $-1 $795 1 $795 0 $505 $-1 forward 7 unknown #
vertex $-1 $506 $796 #
ellipse-curve $-1 3.9840412285268485 -16.436480565002036 4.4946292694467358 0 -0.61566148304635926 0.78801074757464917 1.5 0 0 1 I I #
point $-1 5.4840412285268485 -18.604307187196309 7.2693207585339357 #
edge $-1 $797 1 $797 0 $509 $-1 forward 7 unknown #
vertex $-1 $510 $798 #
ellipse-curve $-1 9.421468648199216 -16.436480565002036 4.4946292694467358 0 -0.61566148304635926 0.78801074757464917 1.5 0 0 1 I I #
point $-1 10.921468648199216 -18.604307187196309 7.2693207585339357 #
plane-surface $-1 54.740440076906644 0 0 -1 0 0 0 0 1 forward_v I I I I #
coedge $-1 $516 $703 $519 $697 reversed $361 $-1 #
vertex $-1 $697 $799 #
straight-curve $-1 -54.740440076906644 -21.978870564403422 0 0 0 -1 I I #
edge $-1 $695 -21.978870564403422 $699 21.978870564403422 $694 $800 forward 7 unknown #
straight-curve $-1 0 -21.978870564403422 -9.9058186741267047 -1 0 0 I I #
vertex $-1 $522 $801 #
straight-curve $-1 0 21.978870564403422 -9.9058186741267047 1 0 0 I I #
point $-1 54.740440076906644 21.978870564403422 -9.9058186741267047 #
point $-1 54.740440076906644 -21.978870564403422 -9.9058186741267047 #
coedge $-1 $694 $526 $529 $705 forward $361 $-1 #
straight-curve $-1 -54.740440076906644 0 9.9058186741267047 0 -1 0 I I #
edge $-1 $530 -9.9058186741267047 $699 9.9058186741267047 $529 $802 forward 7 unknown #
point $-1 -54.740440076906644 21.978870564403422 9.9058186741267047 #
point $-1 -54.740440076906644 -21.978870564403422 9.9058186741267047 #
straight-curve $-1 54.740440076906644 -21.978870564403422 0 0 0 -1 I I #
straight-curve $-1 54.740440076906644 21.978870564403422 0 0 0 -1 I I #
plane-surface $-1 0 -21.978870564403422 0 0 1 0 0 0 1 forward_v I I I I #
coedge $-1 $803 $724 $543 $713 forward $540 $-1 #
coedge $-1 $714 $542 $551 $722 forward $380 $-1 #
edge $-1 $717 -1.6968404076053885 $715 1.6968404076053885 $543 $804 forward 7 unknown #
coedge $-1 $544 $712 $803 $805 forward $380 $-1 #
vertex $-1 $545 $806 #
straight-curve $-1 -60.287338784540523 21.978870564403422 1.0491726781009652 1 0 0 I I #
vertex $-1 $546 $807 #
straight-curve $-1 -60.287338784540523 21.978870564403422 4.4428534933117421 -1 0 0 I I #
point $-1 -54.740440076906644 21.978870564403422 1.0491726781009652 #
straight-curve $-1 -54.740440076906644 0 1.0491726781009652 0 1 0 I I #
coedge $-1 $551 $550 $808 $809 forward $552 $-1 #
edge $-1 $553 -5.5468987076338792 $810 5.546898707633872 $551 $811 forward 7 unknown #
point $-1 -54.740440076906644 -21.978870564403422 1.0491726781009652 #
coedge $-1 $711 $808 $555 $725 reversed $540 $-1 #
edge $-1 $717 -21.978870564403422 $726 21.978870564403422 $724 $812 forward 7 unknown #
vertex $-1 $725 $813 #
straight-curve $-1 -60.287338784540523 -21.978870564403422 4.4428534933117421 1 0 0 I I #
coedge $-1 $570 $569 $562 $729 forward $559 $-1 #
edge $-1 $730 50.161816128789262 $733 53.822112460648725 $728 $814 forward 7 unknown #
vertex $-1 $574 $815 #
straight-curve $-1 -23.734860836678529 26.379948534219864 9.9058186741267065 0 1 0 I I #
edge $-1 $733 8.0477884629663645 $571 23.326356284457965 $570 $816 forward 7 unknown #
vertex $-1 $732 $817 #
straight-curve $-1 -23.734860836678529 -13.127342190156128 32.699951672320793 0 -0.79863550430605224 0.6018150307709319 I I #
point $-1 -23.734860836678529 17.121493368025543 9.9058186741267065 #
point $-1 -39.013428658170128 21.978870564403422 6.2455223422672432 #
straight-curve $-1 0 21.978870564403422 9.9058186741267047 -1 0 0 I I #
vertex $-1 $577 $818 #
point $-1 -33.648123566315384 18.931892186989263 7.2551722747011063 #
vertex $-1 $581 $819 #
point $-1 -27.100165928533272 18.931892186989263 7.2551722747011063 #
coedge $-1 $596 $595 $588 $743 forward $585 $-1 #
edge $-1 $744 50.161816128789262 $747 53.822112460648725 $742 $820 forward 7 unknown #
vertex $-1 $600 $821 #
straight-curve $-1 0.86190984795784953 26.379948534219864 9.9058186741267065 0 1 0 I I #
edge $-1 $747 -4.2505968793518241 $597 11.027970942139774 $596 $822 forward 7 unknown #
vertex $-1 $746 $823 #
straight-curve $-1 0.86190984795784953 -13.127342190156128 32.699951672320793 0 -0.79863550430605224 0.6018150307709319 I I #
point $-1 0.86190984795784953 17.121493368025543 9.9058186741267065 #
point $-1 -14.416657973533749 21.978870564403422 6.2455223422672432 #
straight-curve $-1 0 21.978870564403422 9.9058186741267047 -1 0 0 I I #
vertex $-1 $603 $824 #
point $-1 -9.0513528816790014 18.931892186989263 7.2551722747011063 #
vertex $-1 $607 $825 #
point $-1 -2.5033952438968896 18.931892186989263 7.2551722747011063 #
coedge $-1 $622 $621 $614 $757 forward $611 $-1 #
edge $-1 $758 50.161816128789262 $761 53.822112460648725 $756 $826 forward 7 unknown #
vertex $-1 $626 $827 #
straight-curve $-1 25.458680532594233 26.379948534219864 9.9058186741267065 0 1 0 I I #
edge $-1 $761 -16.548982221670016 $623 -1.2704144001784172 $622 $828 forward 7 unknown #
vertex $-1 $760 $829 #
straight-curve $-1 25.458680532594233 -13.127342190156128 32.699951672320793 0 -0.79863550430605224 0.6018150307709319 I I #
point $-1 25.458680532594233 17.121493368025543 9.9058186741267065 #
point $-1 10.180112711102634 21.978870564403422 6.2455223422672432 #
straight-curve $-1 0 21.978870564403422 9.9058186741267047 -1 0 0 I I #
vertex $-1 $629 $830 #
point $-1 15.545417802957381 18.931892186989263 7.2551722747011063 #
vertex $-1 $633 $831 #
point $-1 22.0933754407395 18.931892186989263 7.2551722747011063 #
coedge $-1 $648 $647 $640 $771 forward $637 $-1 #
edge $-1 $772 50.161816128789262 $775 53.822112460648725 $770 $832 forward 7 unknown #
vertex $-1 $652 $833 #
straight-curve $-1 50.055451217230612 26.379948534219864 9.9058186741267065 0 1 0 I I #
edge $-1 $775 -28.847367563988204 $649 -13.568799742496612 $648 $834 forward 7 unknown #
vertex $-1 $774 $835 #
straight-curve $-1 50.055451217230612 -13.127342190156128 32.699951672320793 0 -0.79863550430605224 0.6018150307709319 I I #
point $-1 50.055451217230612 17.121493368025543 9.9058186741267065 #
point $-1 34.77688339573902 21.978870564403422 6.2455223422672432 #
straight-curve $-1 0 21.978870564403422 9.9058186741267047 -1 0 0 I I #
vertex $-1 $655 $836 #
point $-1 40.142188487593764 18.931892186989263 7.2551722747011063 #
vertex $-1 $659 $837 #
point $-1 46.690146125375882 18.931892186989263 7.2551722747011063 #
edge $-1 $785 35.546647854912365 $788 40.819643686097905 $664 $838 forward 7 unknown #
vertex $-1 $678 $839 #
straight-curve $-1 -5.0783378042604461 -44.691015802560415 9.9058186741267065 0 -1 0 I I #
edge $-1 $788 -7.0703584185238668 $675 11.054399647050708 $674 $840 forward 7 unknown #
vertex $-1 $787 $841 #
straight-curve $-1 -5.0783378042604461 -21.978870564403422 4.6328228429411666 0 0.78801074757464917 0.61566148304635926 I I #
point $-1 -5.0783378042604461 -15.229743809989195 9.9058186741267047 #
point $-1 13.046420261314129 -21.978870564403422 4.6328228429411666 #
straight-curve $-1 0 -21.978870564403422 9.9058186741267047 1 0 0 I I #
vertex $-1 $681 $842 #
point $-1 0.046613808854473859 -16.436480565002036 4.4946292694467358 #
vertex $-1 $685 $843 #
point $-1 5.4840412285268485 -16.436480565002036 4.4946292694467358 #
vertex $-1 $689 $844 #
point $-1 10.921468648199216 -16.436480565002036 4.4946292694467358 #
point $-1 -54.740440076906644 -21.978870564403422 -9.9058186741267047 #
straight-curve $-1 -54.740440076906644 0 -9.9058186741267047 0 1 0 I I #
point $-1 -54.740440076906644 21.978870564403422 -9.9058186741267047 #
straight-curve $-1 -54.740440076906644 21.978870564403422 0 0 0 -1 I I #
coedge $-1 $808 $711 $714 $805 reversed $540 $-1 #
straight-curve $-1 -65.834237492174395 21.978870564403422 2.7460130857063536 0 0 -1 I I #
edge $-1 $810 -21.978870564403422 $715 21.978870564403422 $803 $845 forward 7 unknown #
point $-1 -65.834237492174395 21.978870564403422 1.0491726781009652 #
point $-1 -65.834237492174395 21.978870564403422 4.4428534933117421 #
coedge $-1 $724 $803 $721 $809 reversed $540 $-1 #
edge $-1 $726 -1.6968404076053885 $810 1.6968404076053885 $808 $846 forward 7 unknown #
vertex $-1 $805 $847 #
straight-curve $-1 -60.287338784540523 -21.978870564403422 1.0491726781009652 -1 0 0 I I #
straight-curve $-1 -65.834237492174395 0 4.4428534933117421 0 -1 0 I I #
point $-1 -65.834237492174395 -21.978870564403422 4.4428534933117421 #
straight-curve $-1 -23.734860836678529 21.978870564403422 60.067634802915968 0 0 -1 I I #
point $-1 -23.734860836678529 21.978870564403422 9.9058186741267047 #
straight-curve $-1 -15.687072373712164 21.978870564403422 6.2455223422672432 -1 0 0 I I #
point $-1 -23.734860836678529 21.978870564403422 6.2455223422672432 #
point $-1 -34.648123566315384 18.330077156218334 6.4565367703950542 #
point $-1 -28.100165928533272 18.330077156218334 6.4565367703950542 #
straight-curve $-1 0.86190984795784953 21.978870564403422 60.067634802915968 0 0 -1 I I #
point $-1 0.86190984795784953 21.978870564403422 9.9058186741267047 #
straight-curve $-1 -3.3886870313939745 21.978870564403422 6.2455223422672432 -1 0 0 I I #
point $-1 0.86190984795784953 21.978870564403422 6.2455223422672432 #
point $-1 -10.051352881679001 18.330077156218334 6.4565367703950542 #
point $-1 -3.5033952438968896 18.330077156218334 6.4565367703950542 #
straight-curve $-1 25.458680532594233 21.978870564403422 60.067634802915968 0 0 -1 I I #
point $-1 25.458680532594233 21.978870564403422 9.9058186741267047 #
straight-curve $-1 8.9096983109242167 21.978870564403422 6.2455223422672432 -1 0 0 I I #
point $-1 25.458680532594233 21.978870564403422 6.2455223422672432 #
point $-1 14.545417802957381 18.330077156218334 6.4565367703950542 #
point $-1 21.0933754407395 18.330077156218334 6.4565367703950542 #
straight-curve $-1 50.055451217230612 21.978870564403422 60.067634802915968 0 0 -1 I I #
point $-1 50.055451217230612 21.978870564403422 9.9058186741267047 #
straight-curve $-1 21.208083653242408 21.978870564403422 6.2455223422672432 -1 0 0 I I #
point $-1 50.055451217230612 21.978870564403422 6.2455223422672432 #
point $-1 39.142188487593764 18.330077156218334 6.4565367703950542 #
point $-1 45.690146125375882 18.330077156218334 6.4565367703950542 #
straight-curve $-1 -5.0783378042604461 -21.978870564403422 45.452466529039071 0 0 -1 I I #
point $-1 -5.0783378042604461 -21.978870564403422 9.9058186741267047 #
straight-curve $-1 1.9920206142634207 -21.978870564403422 4.6328228429411675 1 0 0 I I #
point $-1 -5.0783378042604461 -21.978870564403422 4.6328228429411666 #
point $-1 -1.4533861911455261 -15.512988340432496 3.312613148084762 #
point $-1 3.9840412285268485 -15.512988340432496 3.312613148084762 #
point $-1 9.421468648199216 -15.512988340432496 3.312613148084762 #
straight-curve $-1 -65.834237492174395 0 1.0491726781009652 0 1 0 I I #
straight-curve $-1 -65.834237492174395 -21.978870564403422 2.7460130857063536 0 0 -1 I I #
point $-1 -65.834237492174395 -21.978870564403422 1.0491726781009652 #
End-of-ACIS-data 