500 0 9 0           
7 Unknown 11 ACIS 5.0 NT 24 Fri Mar 26 19:24:58 1999 
-1 9.9999999999999995e-007 1e-010 
body $-1 $9 $-1 $10 #
body $-1 $11 $-1 $12 #
body $-1 $13 $-1 $14 #
body $-1 $15 $-1 $16 #
body $-1 $17 $-1 $18 #
body $-1 $19 $-1 $20 #
body $-1 $21 $-1 $22 #
body $-1 $23 $-1 $24 #
body $-1 $25 $-1 $26 #
lump $-1 $-1 $27 $0 #
transform $-1 1 0 0 0 1 0 0 0 1 67.191991943113493 39.87862254449022 19.467222961291782 1 rotate no_reflect no_shear #
lump $-1 $-1 $28 $1 #
transform $-1 1 0 0 0 1 0 0 0 1 67.191991943113493 39.87862254449022 19.467222961291782 1 rotate no_reflect no_shear #
lump $-1 $-1 $29 $2 #
transform $-1 1 0 0 0 1 0 0 0 1 67.191991943113493 39.87862254449022 19.467222961291782 1 rotate no_reflect no_shear #
lump $-1 $-1 $30 $3 #
transform $-1 1 0 0 0 1 0 0 0 1 67.191991943113493 39.87862254449022 19.467222961291782 1 rotate no_reflect no_shear #
lump $-1 $-1 $31 $4 #
transform $-1 1 0 0 0 1 0 0 0 1 67.191991943113493 39.87862254449022 19.467222961291782 1 rotate no_reflect no_shear #
lump $-1 $-1 $32 $5 #
transform $-1 1 0 0 0 1 0 0 0 1 67.191991943113493 39.87862254449022 19.467222961291782 1 rotate no_reflect no_shear #
lump $-1 $-1 $33 $6 #
transform $-1 1 0 0 0 1 0 0 0 1 67.191991943113493 39.87862254449022 19.467222961291782 1 rotate no_reflect no_shear #
lump $-1 $-1 $34 $7 #
transform $-1 1 0 0 0 1 0 0 0 1 67.191991943113493 39.87862254449022 19.467222961291782 1 rotate no_reflect no_shear #
lump $-1 $-1 $35 $8 #
transform $-1 1 0 0 0 1 0 0 0 1 67.191991943113493 39.87862254449022 19.467222961291782 1 rotate no_reflect no_shear #
shell $-1 $-1 $-1 $36 $-1 $9 #
shell $-1 $-1 $-1 $37 $-1 $11 #
shell $-1 $-1 $-1 $38 $-1 $13 #
shell $-1 $-1 $-1 $39 $-1 $15 #
shell $-1 $-1 $-1 $40 $-1 $17 #
shell $-1 $-1 $-1 $41 $-1 $19 #
shell $-1 $-1 $-1 $42 $-1 $21 #
shell $-1 $-1 $-1 $43 $-1 $23 #
shell $-1 $-1 $-1 $44 $-1 $25 #
face $-1 $45 $46 $27 $-1 $47 forward single #
face $-1 $48 $49 $28 $-1 $50 forward single #
face $-1 $51 $52 $29 $-1 $53 reversed single #
face $-1 $54 $55 $30 $-1 $56 forward single #
face $-1 $57 $58 $31 $-1 $59 forward single #
face $-1 $60 $61 $32 $-1 $62 reversed single #
face $-1 $63 $64 $33 $-1 $65 forward single #
face $-1 $66 $67 $34 $-1 $68 forward single #
face $-1 $69 $70 $35 $-1 $71 forward single #
face $-1 $72 $73 $27 $-1 $74 reversed single #
loop $-1 $-1 $75 $36 #
plane-surface $-1 0 0 19.467222961291782 0 0 1 1 0 0 forward_v I I I I #
face $-1 $76 $77 $28 $-1 $78 reversed single #
loop $-1 $-1 $79 $37 #
plane-surface $-1 0 -39.87862254449022 0 0 1 0 0 0 1 forward_v I I I I #
face $-1 $80 $81 $29 $-1 $82 reversed single #
loop $-1 $-1 $83 $38 #
plane-surface $-1 21.215305051170674 26.870470111030414 199.74191476926481 0 1 0 0.51503808176128008 0 0.85716729658548041 forward_v I I I I #
face $-1 $84 $85 $30 $-1 $86 forward single #
loop $-1 $87 $88 $39 #
cone-surface $-1 62.318902417587452 30.587085092018917 15.009725553806016 -0.51503808176128008 0 -0.85716729658548041 1.2857509448782207 0 -0.77255712264192011 1 I I 0 1 1.5 forward I I I I #
face $-1 $89 $90 $31 $-1 $91 forward single #
loop $-1 $92 $93 $40 #
cone-surface $-1 62.318902417587452 36.162007563501696 15.009725553806016 -0.51503808176128008 0 -0.85716729658548041 1.2857509448782207 0 -0.77255712264192011 1 I I 0 1 1.5 forward I I I I #
face $-1 $94 $95 $32 $-1 $96 reversed single #
loop $-1 $-1 $97 $41 #
plane-surface $-1 -160.54295230197636 -8.132642924714494 112.11227041120793 0 1 0 -0.69465837861970381 0 0.71933979245794832 forward_v I I I I #
face $-1 $98 $99 $33 $-1 $100 forward single #
loop $-1 $101 $102 $42 #
cone-surface $-1 -64.120921961838761 -4.9423891086332503 16.432503788699421 0.69465837861970381 0 -0.71933979245794832 0.71933979245794832 0 0.69465837861970381 1 I I 0 1 1 forward I I I I #
face $-1 $103 $104 $34 $-1 $105 forward single #
loop $-1 $106 $107 $43 #
cone-surface $-1 -64.120921961838761 -0.15700838451139276 16.432503788699421 0.69465837861970381 0 -0.71933979245794832 0.71933979245794832 0 0.69465837861970381 1 I I 0 1 1 forward I I I I #
face $-1 $108 $109 $35 $-1 $110 forward single #
loop $-1 $111 $112 $44 #
cone-surface $-1 -64.120921961838761 4.6283723396104648 16.432503788699421 0.69465837861970381 0 -0.71933979245794832 0.71933979245794832 0 0.69465837861970381 1 I I 0 1 1 forward I I I I #
face $-1 $113 $114 $27 $-1 $115 reversed single #
loop $-1 $-1 $116 $45 #
plane-surface $-1 0 0 -19.467222961291782 0 0 1 1 0 0 forward_v I I I I #
coedge $-1 $117 $118 $119 $120 forward $46 $-1 #
face $-1 $121 $122 $28 $-1 $123 reversed single #
loop $-1 $-1 $124 $48 #
plane-surface $-1 0 0 -19.467222961291782 0 0 1 1 0 0 forward_v I I I I #
coedge $-1 $125 $126 $127 $128 forward $49 $-1 #
face $-1 $129 $130 $29 $-1 $131 forward single #
loop $-1 $-1 $132 $51 #
plane-surface $-1 -47.997564229030445 33.374546327760321 84.552358597120858 0.51503808176128008 0 0.85716729658548041 0.85716729658548041 0 -0.51503808176128008 forward_v I I I I #
coedge $-1 $133 $134 $135 $136 reversed $52 $-1 #
face $-1 $-1 $137 $30 $-1 $138 forward single #
loop $-1 $139 $140 $54 #
cone-surface $-1 60.494385475020735 30.587085092018917 11.973219496067173 -0.51503808176128008 0 -0.85716729658548041 0.64287547243911036 0 -0.38627856132096006 1 I I -0.70710678118654757 0.70710678118654757 0.75 forward I I I I #
loop $-1 $-1 $141 $39 #
coedge $-1 $88 $88 $142 $143 reversed $55 $-1 #
face $-1 $-1 $144 $31 $-1 $145 forward single #
loop $-1 $146 $147 $57 #
cone-surface $-1 60.494385475020735 36.162007563501696 11.973219496067173 -0.51503808176128008 0 -0.85716729658548041 0.64287547243911036 0 -0.38627856132096006 1 I I -0.70710678118654757 0.70710678118654757 0.75 forward I I I I #
loop $-1 $-1 $148 $40 #
coedge $-1 $93 $93 $149 $150 reversed $58 $-1 #
face $-1 $151 $152 $32 $-1 $153 reversed single #
loop $-1 $-1 $154 $60 #
plane-surface $-1 -67.191991943113521 -0.15700838451139276 15.444523332817141 -0.69465837861970381 0 0.71933979245794832 0.71933979245794832 0 0.69465837861970381 forward_v I I I I #
coedge $-1 $155 $156 $157 $158 reversed $61 $-1 #
face $-1 $-1 $159 $33 $-1 $160 forward single #
loop $-1 $161 $162 $63 #
cone-surface $-1 -62.785336448247278 -4.9423891086332503 15.049464534115401 0.69465837861970381 0 -0.71933979245794832 0.35966989622897416 0 0.3473291893098519 1 I I -0.70710678118654624 0.70710678118654879 0.5 forward I I I I #
loop $-1 $-1 $163 $42 #
coedge $-1 $102 $102 $164 $165 reversed $64 $-1 #
face $-1 $-1 $166 $34 $-1 $167 forward single #
loop $-1 $168 $169 $66 #
cone-surface $-1 -62.785336448247278 -0.15700838451139276 15.049464534115401 0.69465837861970381 0 -0.71933979245794832 0.35966989622897416 0 0.3473291893098519 1 I I -0.70710678118654624 0.70710678118654879 0.5 forward I I I I #
loop $-1 $-1 $170 $43 #
coedge $-1 $107 $107 $171 $172 reversed $67 $-1 #
face $-1 $-1 $173 $35 $-1 $174 forward single #
loop $-1 $175 $176 $69 #
cone-surface $-1 -62.785336448247278 4.6283723396104648 15.049464534115401 0.69465837861970381 0 -0.71933979245794832 0.35966989622897416 0 0.3473291893098519 1 I I -0.70710678118654624 0.70710678118654879 0.5 forward I I I I #
loop $-1 $-1 $177 $44 #
coedge $-1 $112 $112 $178 $179 reversed $70 $-1 #
face $-1 $180 $181 $27 $-1 $182 reversed single #
loop $-1 $-1 $183 $72 #
plane-surface $-1 0 -39.87862254449022 0 0 1 0 0 0 1 forward_v I I I I #
coedge $-1 $184 $185 $186 $187 forward $73 $-1 #
coedge $-1 $188 $75 $189 $190 forward $46 $-1 #
coedge $-1 $75 $188 $191 $192 forward $46 $-1 #
coedge $-1 $193 $194 $75 $120 reversed $195 $-1 #
edge $-1 $196 -39.87862254449022 $197 39.87862254449022 $119 $198 forward 7 unknown #
face $-1 $199 $200 $28 $-1 $201 forward single #
loop $-1 $-1 $202 $76 #
plane-surface $-1 67.191991943113493 0 0 -1 0 0 0 0 1 forward_v I I I I #
coedge $-1 $203 $204 $205 $206 forward $77 $-1 #
coedge $-1 $205 $79 $202 $207 reversed $49 $-1 #
coedge $-1 $79 $205 $208 $209 reversed $49 $-1 #
coedge $-1 $210 $211 $79 $128 reversed $200 $-1 #
edge $-1 $212 -67.191991943113493 $213 67.191991943113493 $127 $214 forward 7 unknown #
face $-1 $215 $216 $29 $-1 $217 reversed single #
loop $-1 $-1 $218 $80 #
plane-surface $-1 0 0 19.467222961291782 0 0 1 1 0 0 forward_v I I I I #
coedge $-1 $219 $220 $221 $222 reversed $81 $-1 #
coedge $-1 $134 $83 $223 $224 reversed $52 $-1 #
coedge $-1 $83 $133 $219 $225 reversed $52 $-1 #
coedge $-1 $221 $226 $83 $136 forward $227 $-1 #
edge $-1 $228 80.403734423340623 $229 84.531468067712666 $135 $230 forward 7 unknown #
loop $-1 $-1 $142 $84 #
plane-surface $-1 -47.997564229030445 33.374546327760321 84.552358597120858 0.51503808176128008 0 0.85716729658548041 0.85716729658548041 0 -0.51503808176128008 forward_v I I I I #
loop $-1 $-1 $231 $54 #
coedge $-1 $140 $140 $141 $232 reversed $85 $-1 #
coedge $-1 $141 $141 $140 $232 forward $87 $-1 #
coedge $-1 $142 $142 $88 $143 forward $137 $-1 #
edge $-1 $233 0 $233 6.2831853071796004 $142 $234 forward 7 unknown #
loop $-1 $-1 $149 $89 #
plane-surface $-1 -47.997564229030445 33.374546327760321 84.552358597120858 0.51503808176128008 0 0.85716729658548041 0.85716729658548041 0 -0.51503808176128008 forward_v I I I I #
loop $-1 $-1 $235 $57 #
coedge $-1 $147 $147 $148 $236 reversed $90 $-1 #
coedge $-1 $148 $148 $147 $236 forward $92 $-1 #
coedge $-1 $149 $149 $93 $150 forward $144 $-1 #
edge $-1 $237 0 $237 6.2831853071796004 $149 $238 forward 7 unknown #
face $-1 $239 $240 $32 $-1 $241 reversed single #
loop $-1 $-1 $242 $94 #
plane-surface $-1 -160.54295230197636 7.8186261556917085 112.11227041120793 0 -1 0 0.69465837861970381 0 -0.71933979245794832 forward_v I I I I #
coedge $-1 $243 $244 $245 $246 reversed $95 $-1 #
coedge $-1 $156 $97 $247 $248 reversed $61 $-1 #
coedge $-1 $97 $155 $243 $249 reversed $61 $-1 #
coedge $-1 $245 $250 $97 $158 forward $251 $-1 #
edge $-1 $252 13.079484207874685 $253 17.245111521860871 $157 $254 forward 7 unknown #
loop $-1 $-1 $164 $98 #
plane-surface $-1 -67.191991943113521 -0.15700838451139276 15.444523332817141 -0.69465837861970381 0 0.71933979245794832 0.71933979245794832 0 0.69465837861970381 forward_v I I I I #
loop $-1 $-1 $255 $63 #
coedge $-1 $162 $162 $163 $256 reversed $99 $-1 #
coedge $-1 $163 $163 $162 $256 forward $101 $-1 #
coedge $-1 $164 $164 $102 $165 forward $159 $-1 #
edge $-1 $257 0 $257 6.2831853071796004 $164 $258 forward 7 unknown #
loop $-1 $-1 $171 $103 #
plane-surface $-1 -67.191991943113521 -0.15700838451139276 15.444523332817141 -0.69465837861970381 0 0.71933979245794832 0.71933979245794832 0 0.69465837861970381 forward_v I I I I #
loop $-1 $-1 $259 $66 #
coedge $-1 $169 $169 $170 $260 reversed $104 $-1 #
coedge $-1 $170 $170 $169 $260 forward $106 $-1 #
coedge $-1 $171 $171 $107 $172 forward $166 $-1 #
edge $-1 $261 0 $261 6.2831853071796004 $171 $262 forward 7 unknown #
loop $-1 $-1 $178 $108 #
plane-surface $-1 -67.191991943113521 -0.15700838451139276 15.444523332817141 -0.69465837861970381 0 0.71933979245794832 0.71933979245794832 0 0.69465837861970381 forward_v I I I I #
loop $-1 $-1 $263 $69 #
coedge $-1 $176 $176 $177 $264 reversed $109 $-1 #
coedge $-1 $177 $177 $176 $264 forward $111 $-1 #
coedge $-1 $178 $178 $112 $179 forward $173 $-1 #
edge $-1 $265 0 $265 6.2831853071796004 $178 $266 forward 7 unknown #
face $-1 $267 $268 $27 $-1 $269 reversed single #
loop $-1 $-1 $270 $113 #
plane-surface $-1 -67.191991943113493 0 0 1 0 0 0 0 -1 forward_v I I I I #
coedge $-1 $191 $271 $193 $272 reversed $114 $-1 #
coedge $-1 $273 $116 $271 $274 forward $73 $-1 #
coedge $-1 $116 $273 $275 $276 forward $73 $-1 #
coedge $-1 $194 $193 $116 $187 reversed $195 $-1 #
edge $-1 $277 -39.87862254449022 $278 39.87862254449022 $186 $279 forward 7 unknown #
coedge $-1 $118 $117 $280 $281 forward $46 $-1 #
coedge $-1 $282 $283 $117 $190 reversed $268 $-1 #
edge $-1 $197 -67.191991943113493 $284 67.191991943113493 $189 $285 forward 7 unknown #
coedge $-1 $286 $183 $118 $192 reversed $114 $-1 #
edge $-1 $287 -67.191991943113493 $196 67.191991943113493 $191 $288 forward 7 unknown #
coedge $-1 $186 $119 $183 $272 forward $195 $-1 #
coedge $-1 $119 $186 $282 $289 reversed $195 $-1 #
loop $-1 $-1 $193 $267 #
vertex $-1 $120 $290 #
vertex $-1 $120 $291 #
straight-curve $-1 67.191991943113493 0 19.467222961291782 0 1 0 I I #
face $-1 $292 $293 $28 $-1 $294 reversed single #
loop $-1 $-1 $211 $121 #
plane-surface $-1 0 -52.27155043230573 -9.3220710483424511 0 0 1 1 0 0 forward_v I I I I #
coedge $-1 $295 $296 $125 $207 forward $122 $-1 #
coedge $-1 $297 $124 $296 $298 forward $77 $-1 #
coedge $-1 $124 $297 $299 $300 forward $77 $-1 #
coedge $-1 $126 $125 $124 $206 reversed $49 $-1 #
edge $-1 $301 -67.191991943113493 $302 67.191991943113493 $124 $303 forward 7 unknown #
edge $-1 $302 -19.467222961291782 $213 -9.3220710483424511 $202 $304 forward 7 unknown #
coedge $-1 $299 $305 $126 $209 forward $306 $-1 #
edge $-1 $212 9.3220710483424511 $301 19.467222961291782 $208 $307 forward 7 unknown #
coedge $-1 $308 $127 $305 $309 forward $200 $-1 #
coedge $-1 $127 $308 $295 $310 forward $200 $-1 #
vertex $-1 $209 $311 #
vertex $-1 $310 $312 #
straight-curve $-1 0 -39.87862254449022 -9.3220710483424511 1 0 0 I I #
face $-1 $-1 $227 $29 $-1 $313 reversed single #
loop $-1 $-1 $314 $129 #
plane-surface $-1 0 39.87862254449022 0 0 -1 0 0 0 -1 forward_v I I I I #
coedge $-1 $223 $315 $316 $317 forward $130 $-1 #
coedge $-1 $316 $132 $134 $225 forward $81 $-1 #
coedge $-1 $132 $316 $314 $318 reversed $81 $-1 #
coedge $-1 $319 $135 $132 $222 forward $227 $-1 #
edge $-1 $229 10.183196947150254 $320 23.19134938061006 $221 $321 forward 7 unknown #
coedge $-1 $322 $218 $133 $224 forward $130 $-1 #
edge $-1 $323 49.714637128967581 $228 56.584339417528156 $223 $324 forward 7 unknown #
edge $-1 $229 -134.38398388622699 $323 -126.36955972897555 $134 $325 forward 7 unknown #
coedge $-1 $135 $319 $322 $326 reversed $227 $-1 #
loop $-1 $-1 $221 $215 #
vertex $-1 $326 $327 #
vertex $-1 $136 $328 #
straight-curve $-1 67.191991943113493 26.870470111030414 99.870957384632405 0 0 -1 I I #
coedge $-1 $231 $231 $-1 $329 reversed $139 $-1 #
edge $-1 $330 0 $330 6.2831853071796004 $140 $331 forward 7 unknown #
vertex $-1 $143 $332 #
ellipse-curve $-1 63.757140798833213 30.587085092018917 17.403356139105753 0.51503808176128008 0 0.85716729658548041 1.2857509448782207 0 -0.77255712264192011 1 I I #
coedge $-1 $235 $235 $-1 $333 reversed $146 $-1 #
edge $-1 $334 0 $334 6.2831853071796004 $147 $335 forward 7 unknown #
vertex $-1 $150 $336 #
ellipse-curve $-1 63.757140798833213 36.162007563501696 17.403356139105753 0.51503808176128008 0 0.85716729658548041 1.2857509448782207 0 -0.77255712264192011 1 I I #
face $-1 $-1 $251 $32 $-1 $337 forward single #
loop $-1 $-1 $338 $151 #
plane-surface $-1 -67.191991943113493 0 0 1 0 0 0 0 -1 forward_v I I I I #
coedge $-1 $339 $340 $341 $342 reversed $152 $-1 #
coedge $-1 $343 $154 $156 $249 forward $95 $-1 #
coedge $-1 $154 $343 $339 $344 forward $95 $-1 #
coedge $-1 $341 $157 $154 $246 forward $251 $-1 #
edge $-1 $253 -8.0541387324587976 $345 7.8971303479474049 $245 $346 forward 7 unknown #
coedge $-1 $347 $348 $155 $248 forward $240 $-1 #
edge $-1 $349 -40.611611872786796 $252 -36.588912244312183 $247 $350 forward 7 unknown #
edge $-1 $253 -5.7909034890902831 $349 -3.8954283991583926e-014 $156 $351 forward 7 unknown #
coedge $-1 $157 $341 $347 $352 forward $251 $-1 #
loop $-1 $-1 $341 $239 #
vertex $-1 $248 $353 #
vertex $-1 $158 $354 #
straight-curve $-1 -80.271476150988178 -8.132642924714494 19.467222961291782 1 0 0 I I #
coedge $-1 $255 $255 $-1 $355 reversed $161 $-1 #
edge $-1 $356 0 $356 6.2831853071796004 $162 $357 forward 7 unknown #
vertex $-1 $165 $358 #
ellipse-curve $-1 -65.109178286120397 -4.9423891086332503 17.455873147054476 -0.69465837861970381 0 0.71933979245794832 0.71933979245794832 0 0.69465837861970381 1 I I #
coedge $-1 $259 $259 $-1 $359 reversed $168 $-1 #
edge $-1 $360 0 $360 6.2831853071796004 $169 $361 forward 7 unknown #
vertex $-1 $172 $362 #
ellipse-curve $-1 -65.109178286120397 -0.15700838451139276 17.455873147054476 -0.69465837861970381 0 0.71933979245794832 0.71933979245794832 0 0.69465837861970381 1 I I #
coedge $-1 $263 $263 $-1 $363 reversed $175 $-1 #
edge $-1 $364 0 $364 6.2831853071796004 $176 $365 forward 7 unknown #
vertex $-1 $179 $366 #
ellipse-curve $-1 -65.109178286120397 4.6283723396104648 17.455873147054476 -0.69465837861970381 0 0.71933979245794832 0.71933979245794832 0 0.69465837861970381 1 I I #
face $-1 $-1 $195 $27 $-1 $367 reversed single #
loop $-1 $-1 $282 $180 #
plane-surface $-1 0 39.87862254449022 0 0 -1 0 0 0 -1 forward_v I I I I #
coedge $-1 $368 $280 $283 $369 forward $181 $-1 #
coedge $-1 $183 $286 $184 $274 reversed $114 $-1 #
edge $-1 $196 -19.467222961291782 $278 19.467222961291782 $193 $370 forward 7 unknown #
coedge $-1 $185 $184 $368 $371 forward $73 $-1 #
edge $-1 $278 -67.191991943113493 $372 67.191991943113493 $271 $373 forward 7 unknown #
coedge $-1 $283 $282 $185 $276 reversed $268 $-1 #
edge $-1 $374 -67.191991943113493 $277 67.191991943113493 $275 $375 forward 7 unknown #
vertex $-1 $187 $376 #
vertex $-1 $272 $377 #
straight-curve $-1 67.191991943113493 0 -19.467222961291782 0 -1 0 I I #
coedge $-1 $270 $378 $188 $281 reversed $181 $-1 #
edge $-1 $284 -39.87862254449022 $287 39.87862254449022 $280 $379 forward 7 unknown #
coedge $-1 $275 $189 $194 $289 forward $268 $-1 #
coedge $-1 $189 $275 $270 $369 reversed $268 $-1 #
vertex $-1 $190 $380 #
straight-curve $-1 0 39.87862254449022 19.467222961291782 -1 0 0 I I #
coedge $-1 $271 $191 $378 $381 forward $114 $-1 #
vertex $-1 $281 $382 #
straight-curve $-1 0 -39.87862254449022 19.467222961291782 1 0 0 I I #
edge $-1 $197 -19.467222961291782 $277 19.467222961291782 $194 $383 forward 7 unknown #
point $-1 67.191991943113493 -39.87862254449022 19.467222961291782 #
point $-1 67.191991943113493 39.87862254449022 19.467222961291782 #
face $-1 $-1 $306 $28 $-1 $384 reversed single #
loop $-1 $-1 $385 $199 #
plane-surface $-1 0 -64.664478320121248 -14.394647004817116 0 1 0 0 0 1 forward_v I I I I #
coedge $-1 $386 $202 $211 $310 reversed $122 $-1 #
coedge $-1 $202 $386 $203 $298 reversed $122 $-1 #
coedge $-1 $204 $203 $387 $388 forward $77 $-1 #
edge $-1 $302 39.87862254449022 $389 64.664478320121248 $296 $390 forward 7 unknown #
coedge $-1 $391 $208 $204 $300 reversed $306 $-1 #
edge $-1 $392 -64.664478320121248 $301 -39.87862254449022 $299 $393 forward 7 unknown #
vertex $-1 $209 $394 #
vertex $-1 $298 $395 #
straight-curve $-1 0 -39.87862254449022 -19.467222961291782 1 0 0 I I #
straight-curve $-1 67.191991943113493 -39.87862254449022 0 0 0 1 I I #
coedge $-1 $208 $391 $210 $309 reversed $306 $-1 #
loop $-1 $-1 $208 $292 #
straight-curve $-1 -67.191991943113493 -39.87862254449022 0 0 0 -1 I I #
coedge $-1 $211 $210 $396 $397 forward $200 $-1 #
edge $-1 $212 -12.39292788781551 $398 12.392927887815517 $305 $399 forward 7 unknown #
edge $-1 $400 -12.392927887815517 $213 12.39292788781551 $295 $401 forward 7 unknown #
point $-1 -67.191991943113493 -39.87862254449022 -9.3220710483424511 #
point $-1 67.191991943113493 -39.87862254449022 -9.3220710483424511 #
plane-surface $-1 67.191991943113493 0 0 -1 0 0 0 0 1 forward_v I I I I #
coedge $-1 $402 $403 $220 $318 forward $216 $-1 #
coedge $-1 $218 $322 $402 $404 forward $130 $-1 #
coedge $-1 $220 $219 $218 $317 reversed $81 $-1 #
edge $-1 $405 -23.191349380610067 $323 -10.183196947150254 $218 $406 forward 7 unknown #
edge $-1 $320 -92.039170409657487 $405 -84.024746252406061 $314 $407 forward 7 unknown #
coedge $-1 $226 $221 $403 $408 reversed $227 $-1 #
vertex $-1 $222 $409 #
straight-curve $-1 67.191991943113493 16.68727316388016 15.339489316919746 0 1 0 I I #
coedge $-1 $315 $223 $226 $326 forward $130 $-1 #
vertex $-1 $224 $410 #
straight-curve $-1 10.607652525585337 26.870470111030414 19.467222961291782 1 0 0 I I #
straight-curve $-1 -47.997564229030445 26.870470111030414 84.552358597120858 -0.85716729658548041 0 0.51503808176128008 I I #
edge $-1 $228 26.870470111030414 $411 39.87862254449022 $226 $412 forward 7 unknown #
point $-1 67.191991943113493 26.870470111030414 19.467222961291782 #
point $-1 67.191991943113507 26.870470111030414 15.339489316919739 #
edge $-1 $413 1 $413 0 $231 $-1 forward 7 unknown #
vertex $-1 $232 $414 #
ellipse-curve $-1 60.880664036341692 30.587085092018917 12.616094968506284 0.51503808176128008 0 0.85716729658548041 1.2857509448782207 0 -0.77255712264192011 1 I I #
point $-1 65.042891743711436 30.587085092018917 16.630799016463826 #
edge $-1 $415 1 $415 0 $235 $-1 forward 7 unknown #
vertex $-1 $236 $416 #
ellipse-curve $-1 60.880664036341692 36.162007563501696 12.616094968506284 0.51503808176128008 0 0.85716729658548041 1.2857509448782207 0 -0.77255712264192011 1 I I #
point $-1 65.042891743711436 36.162007563501696 16.630799016463826 #
plane-surface $-1 0 0 19.467222961291782 0 0 1 1 0 0 forward_v I I I I #
coedge $-1 $348 $347 $340 $417 forward $240 $-1 #
coedge $-1 $340 $242 $244 $344 reversed $152 $-1 #
coedge $-1 $242 $339 $338 $417 reversed $152 $-1 #
coedge $-1 $250 $245 $242 $342 forward $251 $-1 #
edge $-1 $345 -17.245111521860871 $418 -13.079484207874685 $341 $419 forward 7 unknown #
coedge $-1 $244 $243 $348 $420 reversed $95 $-1 #
edge $-1 $421 3.8954283991583926e-014 $345 5.7909034890902831 $339 $422 forward 7 unknown #
vertex $-1 $246 $423 #
straight-curve $-1 -63.026364629127308 -0.078504192255696381 19.467222961291782 0 1 0 I I #
coedge $-1 $338 $247 $250 $352 reversed $240 $-1 #
coedge $-1 $247 $338 $343 $420 forward $240 $-1 #
vertex $-1 $248 $424 #
straight-curve $-1 -67.191991943113493 -8.132642924714494 56.056135205603965 0 0 1 I I #
straight-curve $-1 -67.191991943113521 -8.132642924714494 15.444523332817141 -0.71933979245794832 0 -0.69465837861970381 I I #
edge $-1 $418 -7.8186261556917085 $252 8.132642924714494 $347 $425 forward 7 unknown #
point $-1 -67.191991943113493 -8.132642924714494 19.467222961291782 #
point $-1 -63.026364629127308 -8.132642924714494 19.467222961291782 #
edge $-1 $426 1 $426 0 $255 $-1 forward 7 unknown #
vertex $-1 $256 $427 #
ellipse-curve $-1 -63.132665637557132 -4.9423891086332503 15.409134430344377 -0.69465837861970381 0 0.71933979245794832 0.71933979245794832 0 0.69465837861970381 1 I I #
point $-1 -64.389838493662438 -4.9423891086332503 18.150531525674168 #
edge $-1 $428 1 $428 0 $259 $-1 forward 7 unknown #
vertex $-1 $260 $429 #
ellipse-curve $-1 -63.132665637557132 -0.15700838451139276 15.409134430344377 -0.69465837861970381 0 0.71933979245794832 0.71933979245794832 0 0.69465837861970381 1 I I #
point $-1 -64.389838493662438 -0.15700838451139276 18.150531525674168 #
edge $-1 $430 1 $430 0 $263 $-1 forward 7 unknown #
vertex $-1 $264 $431 #
ellipse-curve $-1 -63.132665637557132 4.6283723396104648 15.409134430344377 -0.69465837861970381 0 0.71933979245794832 0.71933979245794832 0 0.69465837861970381 1 I I #
point $-1 -64.389838493662438 4.6283723396104648 18.150531525674168 #
plane-surface $-1 67.191991943113493 0 0 -1 0 0 0 0 1 forward_v I I I I #
coedge $-1 $378 $270 $273 $371 reversed $181 $-1 #
edge $-1 $284 -19.467222961291782 $374 19.467222961291782 $283 $432 forward 7 unknown #
straight-curve $-1 67.191991943113493 -39.87862254449022 0 0 0 -1 I I #
edge $-1 $372 -39.87862254449022 $374 39.87862254449022 $368 $433 forward 7 unknown #
vertex $-1 $371 $434 #
straight-curve $-1 0 -39.87862254449022 -19.467222961291782 -1 0 0 I I #
vertex $-1 $276 $435 #
straight-curve $-1 0 39.87862254449022 -19.467222961291782 1 0 0 I I #
point $-1 67.191991943113493 39.87862254449022 -19.467222961291782 #
point $-1 67.191991943113493 -39.87862254449022 -19.467222961291782 #
coedge $-1 $280 $368 $286 $381 reversed $181 $-1 #
straight-curve $-1 -67.191991943113493 0 19.467222961291782 0 -1 0 I I #
point $-1 -67.191991943113493 39.87862254449022 19.467222961291782 #
edge $-1 $287 -19.467222961291782 $372 19.467222961291782 $378 $436 forward 7 unknown #
point $-1 -67.191991943113493 -39.87862254449022 19.467222961291782 #
straight-curve $-1 67.191991943113493 39.87862254449022 0 0 0 -1 I I #
plane-surface $-1 -67.191991943113493 0 0 1 0 0 0 0 -1 forward_v I I I I #
coedge $-1 $387 $396 $391 $437 forward $293 $-1 #
coedge $-1 $296 $295 $438 $439 forward $122 $-1 #
coedge $-1 $438 $385 $297 $388 reversed $293 $-1 #
edge $-1 $389 -67.191991943113493 $392 67.191991943113493 $387 $440 forward 7 unknown #
vertex $-1 $439 $441 #
straight-curve $-1 67.191991943113493 0 -19.467222961291782 0 -1 0 I I #
coedge $-1 $305 $299 $385 $437 reversed $306 $-1 #
vertex $-1 $300 $442 #
straight-curve $-1 -67.191991943113493 0 -19.467222961291782 0 1 0 I I #
point $-1 -67.191991943113493 -39.87862254449022 -19.467222961291782 #
point $-1 67.191991943113493 -39.87862254449022 -19.467222961291782 #
coedge $-1 $385 $438 $308 $397 reversed $293 $-1 #
edge $-1 $398 -67.191991943113493 $400 67.191991943113493 $396 $443 forward 7 unknown #
vertex $-1 $309 $444 #
straight-curve $-1 -67.191991943113493 -52.27155043230573 -9.3220710483424511 0 -1 0 I I #
vertex $-1 $310 $445 #
straight-curve $-1 67.191991943113493 -52.27155043230573 -9.3220710483424511 0 1 0 I I #
coedge $-1 $403 $314 $315 $404 reversed $216 $-1 #
coedge $-1 $314 $402 $319 $408 forward $216 $-1 #
edge $-1 $411 -67.191991943113493 $405 -60.322289654552918 $402 $446 forward 7 unknown #
vertex $-1 $317 $447 #
straight-curve $-1 60.322289654552932 16.68727316388016 19.467222961291782 0 -1 0 I I #
straight-curve $-1 -11.70097493690295 39.87862254449022 62.743167091609308 -0.85716729658548041 0 0.51503808176128008 I I #
edge $-1 $411 -19.467222961291782 $320 -15.339489316919748 $319 $448 forward 7 unknown #
point $-1 67.191991943113493 39.87862254449022 15.339489316919748 #
point $-1 60.322289654552918 26.870470111030414 19.467222961291782 #
vertex $-1 $326 $449 #
straight-curve $-1 67.191991943113493 0 19.467222961291782 0 1 0 I I #
vertex $-1 $329 $450 #
point $-1 62.166414981219916 30.587085092018917 11.843537845864363 #
vertex $-1 $333 $451 #
point $-1 62.166414981219916 36.162007563501696 11.843537845864363 #
edge $-1 $418 36.588912244312183 $421 40.611611872786796 $338 $452 forward 7 unknown #
vertex $-1 $352 $453 #
straight-curve $-1 -80.271476150988178 7.8186261556917085 19.467222961291782 -1 0 0 I I #
edge $-1 $421 -7.8971303479474049 $349 8.0541387324587976 $348 $454 forward 7 unknown #
vertex $-1 $420 $455 #
straight-curve $-1 -67.191991943113521 7.8186261556917085 15.444523332817141 0.71933979245794832 0 0.69465837861970381 I I #
point $-1 -63.026364629127308 7.8186261556917085 19.467222961291782 #
point $-1 -67.191991943113493 -8.132642924714494 15.444523332817168 #
straight-curve $-1 -67.191991943113493 0 19.467222961291782 0 -1 0 I I #
vertex $-1 $355 $456 #
point $-1 -62.41332584509918 -4.9423891086332503 16.10379280896408 #
vertex $-1 $359 $457 #
point $-1 -62.41332584509918 -0.15700838451139276 16.10379280896408 #
vertex $-1 $363 $458 #
point $-1 -62.41332584509918 4.6283723396104648 16.10379280896408 #
straight-curve $-1 -67.191991943113493 39.87862254449022 0 0 0 -1 I I #
straight-curve $-1 -67.191991943113493 0 -19.467222961291782 0 1 0 I I #
point $-1 -67.191991943113493 -39.87862254449022 -19.467222961291782 #
point $-1 -67.191991943113493 39.87862254449022 -19.467222961291782 #
straight-curve $-1 -67.191991943113493 -39.87862254449022 0 0 0 -1 I I #
edge $-1 $398 -5.0725759564746653 $392 5.0725759564746653 $391 $459 forward 7 unknown #
coedge $-1 $396 $387 $386 $439 reversed $293 $-1 #
edge $-1 $400 -5.0725759564746653 $389 5.0725759564746653 $386 $460 forward 7 unknown #
straight-curve $-1 0 -64.664478320121248 -19.467222961291782 -1 0 0 I I #
point $-1 67.191991943113493 -64.664478320121248 -19.467222961291782 #
point $-1 -67.191991943113493 -64.664478320121248 -19.467222961291782 #
straight-curve $-1 0 -64.664478320121248 -9.3220710483424511 1 0 0 I I #
point $-1 -67.191991943113493 -64.664478320121248 -9.3220710483424511 #
point $-1 67.191991943113493 -64.664478320121248 -9.3220710483424511 #
straight-curve $-1 0 39.87862254449022 19.467222961291782 -1 0 0 I I #
point $-1 60.322289654552918 39.878622544490227 19.467222961291782 #
straight-curve $-1 67.191991943113493 39.87862254449022 0 0 0 -1 I I #
point $-1 67.191991943113493 39.87862254449022 19.467222961291782 #
point $-1 60.108106913699778 30.587085092018917 11.330344023628063 #
point $-1 60.108106913699778 36.162007563501696 11.330344023628063 #
straight-curve $-1 -67.191991943113493 7.8186261556917085 56.056135205603965 0 0 -1 I I #
point $-1 -67.191991943113493 7.8186261556917085 19.467222961291782 #
straight-curve $-1 -67.191991943113493 -0.078504192255696381 15.444523332817171 0 -1 0 I I #
point $-1 -67.191991943113493 7.8186261556917085 15.444523332817168 #
point $-1 -62.438007258937425 -4.9423891086332503 14.689794637886425 #
point $-1 -62.438007258937425 -0.15700838451139276 14.689794637886425 #
point $-1 -62.438007258937425 4.6283723396104648 14.689794637886425 #
straight-curve $-1 -67.191991943113493 -64.664478320121248 -14.394647004817116 0 0 -1 I I #
straight-curve $-1 67.191991943113493 -64.664478320121248 -14.394647004817116 0 0 -1 I I #
End-of-ACIS-data 