500 0 18 0           
7 Unknown 11 ACIS 5.0 NT 24 Fri Mar 26 19:11:32 1999 
-1 9.9999999999999995e-007 1e-010 
body $-1 $18 $-1 $19 #
body $-1 $20 $-1 $21 #
body $-1 $22 $-1 $23 #
body $-1 $24 $-1 $25 #
body $-1 $26 $-1 $27 #
body $-1 $28 $-1 $29 #
body $-1 $30 $-1 $31 #
body $-1 $32 $-1 $33 #
body $-1 $34 $-1 $35 #
body $-1 $36 $-1 $37 #
body $-1 $38 $-1 $39 #
body $-1 $40 $-1 $41 #
body $-1 $42 $-1 $43 #
body $-1 $44 $-1 $45 #
body $-1 $46 $-1 $47 #
body $-1 $48 $-1 $49 #
body $-1 $50 $-1 $51 #
body $-1 $52 $-1 $53 #
lump $-1 $-1 $54 $0 #
transform $-1 1 0 0 0 1 0 0 0 1 74.587237159337135 40.889475952653733 19.754781884703519 1 rotate no_reflect no_shear #
lump $-1 $-1 $55 $1 #
transform $-1 1 0 0 0 1 0 0 0 1 74.587237159337135 40.889475952653733 19.754781884703519 1 rotate no_reflect no_shear #
lump $-1 $-1 $56 $2 #
transform $-1 1 0 0 0 1 0 0 0 1 74.587237159337135 40.889475952653733 19.754781884703519 1 rotate no_reflect no_shear #
lump $-1 $-1 $57 $3 #
transform $-1 1 0 0 0 1 0 0 0 1 74.587237159337135 40.889475952653733 19.754781884703519 1 rotate no_reflect no_shear #
lump $-1 $-1 $58 $4 #
transform $-1 1 0 0 0 1 0 0 0 1 74.587237159337135 40.889475952653733 19.754781884703519 1 rotate no_reflect no_shear #
lump $-1 $-1 $59 $5 #
transform $-1 1 0 0 0 1 0 0 0 1 74.587237159337135 40.889475952653733 19.754781884703519 1 rotate no_reflect no_shear #
lump $-1 $-1 $60 $6 #
transform $-1 1 0 0 0 1 0 0 0 1 74.587237159337135 40.889475952653733 19.754781884703519 1 rotate no_reflect no_shear #
lump $-1 $-1 $61 $7 #
transform $-1 1 0 0 0 1 0 0 0 1 74.587237159337135 40.889475952653733 19.754781884703519 1 rotate no_reflect no_shear #
lump $-1 $-1 $62 $8 #
transform $-1 1 0 0 0 1 0 0 0 1 74.587237159337135 40.889475952653733 19.754781884703519 1 rotate no_reflect no_shear #
lump $-1 $-1 $63 $9 #
transform $-1 1 0 0 0 1 0 0 0 1 74.587237159337135 40.889475952653733 19.754781884703519 1 rotate no_reflect no_shear #
lump $-1 $-1 $64 $10 #
transform $-1 1 0 0 0 1 0 0 0 1 74.587237159337135 40.889475952653733 19.754781884703519 1 rotate no_reflect no_shear #
lump $-1 $-1 $65 $11 #
transform $-1 1 0 0 0 1 0 0 0 1 74.587237159337135 40.889475952653733 19.754781884703519 1 rotate no_reflect no_shear #
lump $-1 $-1 $66 $12 #
transform $-1 1 0 0 0 1 0 0 0 1 74.587237159337135 40.889475952653733 19.754781884703519 1 rotate no_reflect no_shear #
lump $-1 $-1 $67 $13 #
transform $-1 1 0 0 0 1 0 0 0 1 74.587237159337135 40.889475952653733 19.754781884703519 1 rotate no_reflect no_shear #
lump $-1 $-1 $68 $14 #
transform $-1 1 0 0 0 1 0 0 0 1 74.587237159337135 40.889475952653733 19.754781884703519 1 rotate no_reflect no_shear #
lump $-1 $-1 $69 $15 #
transform $-1 1 0 0 0 1 0 0 0 1 74.587237159337135 40.889475952653733 19.754781884703519 1 rotate no_reflect no_shear #
lump $-1 $-1 $70 $16 #
transform $-1 1 0 0 0 1 0 0 0 1 74.587237159337135 40.889475952653733 19.754781884703519 1 rotate no_reflect no_shear #
lump $-1 $-1 $71 $17 #
transform $-1 1 0 0 0 1 0 0 0 1 74.587237159337135 40.889475952653733 19.754781884703519 1 rotate no_reflect no_shear #
shell $-1 $-1 $-1 $72 $-1 $18 #
shell $-1 $-1 $-1 $73 $-1 $20 #
shell $-1 $-1 $-1 $74 $-1 $22 #
shell $-1 $-1 $-1 $75 $-1 $24 #
shell $-1 $-1 $-1 $76 $-1 $26 #
shell $-1 $-1 $-1 $77 $-1 $28 #
shell $-1 $-1 $-1 $78 $-1 $30 #
shell $-1 $-1 $-1 $79 $-1 $32 #
shell $-1 $-1 $-1 $80 $-1 $34 #
shell $-1 $-1 $-1 $81 $-1 $36 #
shell $-1 $-1 $-1 $82 $-1 $38 #
shell $-1 $-1 $-1 $83 $-1 $40 #
shell $-1 $-1 $-1 $84 $-1 $42 #
shell $-1 $-1 $-1 $85 $-1 $44 #
shell $-1 $-1 $-1 $86 $-1 $46 #
shell $-1 $-1 $-1 $87 $-1 $48 #
shell $-1 $-1 $-1 $88 $-1 $50 #
shell $-1 $-1 $-1 $89 $-1 $52 #
face $-1 $90 $91 $54 $-1 $92 forward single #
face $-1 $93 $94 $55 $-1 $95 reversed single #
face $-1 $96 $97 $56 $-1 $98 reversed single #
face $-1 $99 $100 $57 $-1 $101 forward single #
face $-1 $102 $103 $58 $-1 $104 forward single #
face $-1 $105 $106 $59 $-1 $107 forward single #
face $-1 $108 $109 $60 $-1 $110 reversed single #
face $-1 $111 $112 $61 $-1 $113 forward single #
face $-1 $114 $115 $62 $-1 $116 forward single #
face $-1 $117 $118 $63 $-1 $119 forward single #
face $-1 $120 $121 $64 $-1 $122 reversed single #
face $-1 $123 $124 $65 $-1 $125 forward single #
face $-1 $126 $127 $66 $-1 $128 forward single #
face $-1 $129 $130 $67 $-1 $131 forward single #
face $-1 $132 $133 $68 $-1 $134 reversed single #
face $-1 $135 $136 $69 $-1 $137 forward single #
face $-1 $138 $139 $70 $-1 $140 forward single #
face $-1 $141 $142 $71 $-1 $143 forward single #
face $-1 $144 $145 $54 $-1 $146 reversed single #
loop $-1 $-1 $147 $72 #
plane-surface $-1 0 0 19.754781884703519 0 0 1 1 0 0 forward_v I I I I #
face $-1 $148 $149 $55 $-1 $150 reversed single #
loop $-1 $-1 $151 $73 #
plane-surface $-1 -61.800557131538881 0 12.945661197358977 0 0 1 1 0 0 forward_v I I I I #
face $-1 $152 $153 $56 $-1 $154 reversed single #
loop $-1 $-1 $155 $74 #
plane-surface $-1 -28.901206698541472 -119.93990466975356 134.32282216098383 -1 0 0 0 -0.52991927123019833 0.84804809178421925 forward_v I I I I #
face $-1 $156 $157 $57 $-1 $158 forward single #
loop $-1 $159 $160 $75 #
cone-surface $-1 -44.991343022700796 -30.763060779255063 12.868009435989075 0 0.52991927123019833 -0.84804809178421925 2 0 0 1 I I 0 1 2 forward I I I I #
face $-1 $161 $162 $58 $-1 $163 forward single #
loop $-1 $164 $165 $76 #
cone-surface $-1 -38.957541901141049 -30.763060779255063 12.868009435989075 0 0.52991927123019833 -0.84804809178421925 2 0 0 1 I I 0 1 2 forward I I I I #
face $-1 $166 $167 $59 $-1 $168 forward single #
loop $-1 $169 $170 $77 #
cone-surface $-1 -32.923740779581301 -30.763060779255063 12.868009435989075 0 0.52991927123019833 -0.84804809178421925 2 0 0 1 I I 0 1 2 forward I I I I #
face $-1 $171 $172 $60 $-1 $173 reversed single #
loop $-1 $-1 $174 $78 #
plane-surface $-1 5.5949412540847252 -119.93990466975356 134.32282216098383 -1 0 0 0 -0.52991927123019833 0.84804809178421925 forward_v I I I I #
face $-1 $175 $176 $61 $-1 $177 forward single #
loop $-1 $178 $179 $79 #
cone-surface $-1 -10.495195070074601 -30.763060779255063 12.868009435989075 0 0.52991927123019833 -0.84804809178421925 2 0 0 1 I I 0 1 2 forward I I I I #
face $-1 $180 $181 $62 $-1 $182 forward single #
loop $-1 $183 $184 $80 #
cone-surface $-1 -4.4613939485148535 -30.763060779255063 12.868009435989075 0 0.52991927123019833 -0.84804809178421925 2 0 0 1 I I 0 1 2 forward I I I I #
face $-1 $185 $186 $63 $-1 $187 forward single #
loop $-1 $188 $189 $81 #
cone-surface $-1 1.5724071730448941 -30.763060779255063 12.868009435989075 0 0.52991927123019833 -0.84804809178421925 2 0 0 1 I I 0 1 2 forward I I I I #
face $-1 $190 $191 $64 $-1 $192 reversed single #
loop $-1 $-1 $193 $82 #
plane-surface $-1 40.091089206710926 -119.93990466975356 134.32282216098383 -1 0 0 0 -0.52991927123019833 0.84804809178421925 forward_v I I I I #
face $-1 $194 $195 $65 $-1 $196 forward single #
loop $-1 $197 $198 $83 #
cone-surface $-1 24.000952882551601 -30.763060779255063 12.868009435989075 0 0.52991927123019833 -0.84804809178421925 2 0 0 1 I I 0 1 2 forward I I I I #
face $-1 $199 $200 $66 $-1 $201 forward single #
loop $-1 $202 $203 $84 #
cone-surface $-1 30.034754004111349 -30.763060779255063 12.868009435989075 0 0.52991927123019833 -0.84804809178421925 2 0 0 1 I I 0 1 2 forward I I I I #
face $-1 $204 $205 $67 $-1 $206 forward single #
loop $-1 $207 $208 $85 #
cone-surface $-1 36.068555125671097 -30.763060779255063 12.868009435989075 0 0.52991927123019833 -0.84804809178421925 2 0 0 1 I I 0 1 2 forward I I I I #
face $-1 $209 $210 $68 $-1 $211 reversed single #
loop $-1 $-1 $212 $86 #
plane-surface $-1 64.530901956737537 -40.889475952653754 7.8156938721181035 0 -0.52991927123019833 0.84804809178421925 1 0 0 forward_v I I I I #
face $-1 $213 $214 $69 $-1 $215 forward single #
loop $-1 $216 $217 $87 #
cone-surface $-1 58.49710083517779 -30.763060779255063 12.868009435989075 0 0.52991927123019833 -0.84804809178421925 2 0 0 1 I I 0 1 2 forward I I I I #
face $-1 $218 $219 $70 $-1 $220 forward single #
loop $-1 $221 $222 $88 #
cone-surface $-1 64.530901956737537 -30.763060779255063 12.868009435989075 0 0.52991927123019833 -0.84804809178421925 2 0 0 1 I I 0 1 2 forward I I I I #
face $-1 $223 $224 $71 $-1 $225 forward single #
loop $-1 $226 $227 $89 #
cone-surface $-1 70.564703078297285 -30.763060779255063 12.868009435989075 0 0.52991927123019833 -0.84804809178421925 2 0 0 1 I I 0 1 2 forward I I I I #
face $-1 $228 $229 $54 $-1 $230 reversed single #
loop $-1 $-1 $231 $90 #
plane-surface $-1 0 0 -19.754781884703519 0 0 1 1 0 0 forward_v I I I I #
coedge $-1 $232 $233 $234 $235 forward $91 $-1 #
face $-1 $236 $237 $55 $-1 $238 reversed single #
loop $-1 $-1 $239 $93 #
plane-surface $-1 -49.013877103740626 0 16.350221541031246 -1 0 0 0 0 1 forward_v I I I I #
coedge $-1 $240 $241 $239 $242 forward $94 $-1 #
face $-1 $243 $244 $56 $-1 $245 forward single #
loop $-1 $-1 $246 $96 #
plane-surface $-1 -38.957541901141049 -40.889475952653754 7.8156938721181035 0 -0.52991927123019833 0.84804809178421925 1 0 0 forward_v I I I I #
coedge $-1 $247 $248 $249 $250 reversed $97 $-1 #
face $-1 $-1 $251 $57 $-1 $252 forward single #
loop $-1 $253 $254 $99 #
cone-surface $-1 -44.991343022700796 -29.65999355513329 11.102732901783128 0 0.52991927123019833 -0.84804809178421925 1 0 0 1 I I -0.70710678118654746 0.70710678118654746 1 forward I I I I #
loop $-1 $-1 $255 $75 #
coedge $-1 $160 $160 $256 $257 reversed $100 $-1 #
face $-1 $-1 $258 $58 $-1 $259 forward single #
loop $-1 $260 $261 $102 #
cone-surface $-1 -38.957541901141049 -29.65999355513329 11.102732901783128 0 0.52991927123019833 -0.84804809178421925 1 0 0 1 I I -0.70710678118654746 0.70710678118654746 1 forward I I I I #
loop $-1 $-1 $262 $76 #
coedge $-1 $165 $165 $263 $264 reversed $103 $-1 #
face $-1 $-1 $265 $59 $-1 $266 forward single #
loop $-1 $267 $268 $105 #
cone-surface $-1 -32.923740779581301 -29.65999355513329 11.102732901783128 0 0.52991927123019833 -0.84804809178421925 1 0 0 1 I I -0.70710678118654746 0.70710678118654746 1 forward I I I I #
loop $-1 $-1 $269 $77 #
coedge $-1 $170 $170 $270 $271 reversed $106 $-1 #
face $-1 $272 $273 $60 $-1 $274 reversed single #
loop $-1 $-1 $275 $108 #
plane-surface $-1 -4.4613939485148535 -40.889475952653754 7.8156938721181035 0 -0.52991927123019833 0.84804809178421925 1 0 0 forward_v I I I I #
coedge $-1 $276 $277 $278 $279 reversed $109 $-1 #
face $-1 $-1 $280 $61 $-1 $281 forward single #
loop $-1 $282 $283 $111 #
cone-surface $-1 -10.495195070074601 -29.65999355513329 11.102732901783128 0 0.52991927123019833 -0.84804809178421925 1 0 0 1 I I -0.70710678118654746 0.70710678118654746 1 forward I I I I #
loop $-1 $-1 $284 $79 #
coedge $-1 $179 $179 $285 $286 reversed $112 $-1 #
face $-1 $-1 $287 $62 $-1 $288 forward single #
loop $-1 $289 $290 $114 #
cone-surface $-1 -4.4613939485148535 -29.65999355513329 11.102732901783128 0 0.52991927123019833 -0.84804809178421925 1 0 0 1 I I -0.70710678118654746 0.70710678118654746 1 forward I I I I #
loop $-1 $-1 $291 $80 #
coedge $-1 $184 $184 $292 $293 reversed $115 $-1 #
face $-1 $-1 $294 $63 $-1 $295 forward single #
loop $-1 $296 $297 $117 #
cone-surface $-1 1.5724071730448941 -29.65999355513329 11.102732901783128 0 0.52991927123019833 -0.84804809178421925 1 0 0 1 I I -0.70710678118654746 0.70710678118654746 1 forward I I I I #
loop $-1 $-1 $298 $81 #
coedge $-1 $189 $189 $299 $300 reversed $118 $-1 #
face $-1 $301 $302 $64 $-1 $303 reversed single #
loop $-1 $-1 $304 $120 #
plane-surface $-1 30.034754004111349 -40.889475952653754 7.8156938721181035 0 -0.52991927123019833 0.84804809178421925 1 0 0 forward_v I I I I #
coedge $-1 $305 $306 $307 $308 reversed $121 $-1 #
face $-1 $-1 $309 $65 $-1 $310 forward single #
loop $-1 $311 $312 $123 #
cone-surface $-1 24.000952882551601 -29.65999355513329 11.102732901783128 0 0.52991927123019833 -0.84804809178421925 1 0 0 1 I I -0.70710678118654746 0.70710678118654746 1 forward I I I I #
loop $-1 $-1 $313 $83 #
coedge $-1 $198 $198 $314 $315 reversed $124 $-1 #
face $-1 $-1 $316 $66 $-1 $317 forward single #
loop $-1 $318 $319 $126 #
cone-surface $-1 30.034754004111349 -29.65999355513329 11.102732901783128 0 0.52991927123019833 -0.84804809178421925 1 0 0 1 I I -0.70710678118654746 0.70710678118654746 1 forward I I I I #
loop $-1 $-1 $320 $84 #
coedge $-1 $203 $203 $321 $322 reversed $127 $-1 #
face $-1 $-1 $323 $67 $-1 $324 forward single #
loop $-1 $325 $326 $129 #
cone-surface $-1 36.068555125671097 -29.65999355513329 11.102732901783128 0 0.52991927123019833 -0.84804809178421925 1 0 0 1 I I -0.70710678118654746 0.70710678118654746 1 forward I I I I #
loop $-1 $-1 $327 $85 #
coedge $-1 $208 $208 $328 $329 reversed $130 $-1 #
face $-1 $330 $331 $68 $-1 $332 reversed single #
loop $-1 $-1 $333 $132 #
plane-surface $-1 54.47456675413796 -119.93990466975356 134.32282216098383 1 0 0 0 0.52991927123019833 -0.84804809178421925 forward_v I I I I #
coedge $-1 $334 $335 $336 $337 reversed $133 $-1 #
face $-1 $-1 $338 $69 $-1 $339 forward single #
loop $-1 $340 $341 $135 #
cone-surface $-1 58.49710083517779 -29.65999355513329 11.102732901783128 0 0.52991927123019833 -0.84804809178421925 1 0 0 1 I I -0.70710678118654746 0.70710678118654746 1 forward I I I I #
loop $-1 $-1 $342 $87 #
coedge $-1 $217 $217 $343 $344 reversed $136 $-1 #
face $-1 $-1 $345 $70 $-1 $346 forward single #
loop $-1 $347 $348 $138 #
cone-surface $-1 64.530901956737537 -29.65999355513329 11.102732901783128 0 0.52991927123019833 -0.84804809178421925 1 0 0 1 I I -0.70710678118654746 0.70710678118654746 1 forward I I I I #
loop $-1 $-1 $349 $88 #
coedge $-1 $222 $222 $350 $351 reversed $139 $-1 #
face $-1 $-1 $352 $71 $-1 $353 forward single #
loop $-1 $354 $355 $141 #
cone-surface $-1 70.564703078297285 -29.65999355513329 11.102732901783128 0 0.52991927123019833 -0.84804809178421925 1 0 0 1 I I -0.70710678118654746 0.70710678118654746 1 forward I I I I #
loop $-1 $-1 $356 $89 #
coedge $-1 $227 $227 $357 $358 reversed $142 $-1 #
face $-1 $359 $360 $54 $-1 $361 reversed single #
loop $-1 $-1 $362 $144 #
plane-surface $-1 0 -40.889475952653733 0 0 1 0 0 0 1 forward_v I I I I #
coedge $-1 $363 $364 $365 $366 forward $145 $-1 #
coedge $-1 $367 $147 $368 $369 forward $91 $-1 #
coedge $-1 $147 $367 $370 $371 forward $91 $-1 #
coedge $-1 $372 $373 $147 $235 reversed $374 $-1 #
edge $-1 $375 -40.889475952653733 $376 40.889475952653733 $234 $377 forward 7 unknown #
face $-1 $378 $379 $55 $-1 $380 reversed single #
loop $-1 $-1 $381 $148 #
plane-surface $-1 0 40.889475952653733 0 0 -1 0 0 0 -1 forward_v I I I I #
coedge $-1 $382 $383 $151 $242 reversed $149 $-1 #
coedge $-1 $384 $151 $385 $386 reversed $94 $-1 #
coedge $-1 $151 $384 $387 $388 reversed $94 $-1 #
edge $-1 $389 -40.889475952653733 $390 40.889475952653733 $239 $391 forward 7 unknown #
face $-1 $392 $393 $56 $-1 $394 forward single #
loop $-1 $-1 $395 $152 #
plane-surface $-1 -49.013877103740626 0 16.350221541031246 -1 0 0 0 0 1 forward_v I I I I #
coedge $-1 $396 $397 $398 $399 reversed $153 $-1 #
coedge $-1 $248 $155 $400 $401 reversed $97 $-1 #
coedge $-1 $155 $247 $396 $402 reversed $97 $-1 #
coedge $-1 $398 $403 $155 $250 forward $393 $-1 #
edge $-1 $404 19.080476382223047 $405 38.187010823237188 $249 $406 forward 7 unknown #
loop $-1 $-1 $256 $156 #
plane-surface $-1 -38.957541901141049 -40.889475952653754 7.8156938721181035 0 -0.52991927123019833 0.84804809178421925 1 0 0 forward_v I I I I #
loop $-1 $-1 $407 $99 #
coedge $-1 $254 $254 $255 $408 reversed $157 $-1 #
coedge $-1 $255 $255 $254 $408 forward $159 $-1 #
coedge $-1 $256 $256 $160 $257 forward $251 $-1 #
edge $-1 $409 -9.2873079643517867e-017 $409 6.2831853071796004 $256 $410 forward 7 unknown #
loop $-1 $-1 $263 $161 #
plane-surface $-1 -38.957541901141049 -40.889475952653754 7.8156938721181035 0 -0.52991927123019833 0.84804809178421925 1 0 0 forward_v I I I I #
loop $-1 $-1 $411 $102 #
coedge $-1 $261 $261 $262 $412 reversed $162 $-1 #
coedge $-1 $262 $262 $261 $412 forward $164 $-1 #
coedge $-1 $263 $263 $165 $264 forward $258 $-1 #
edge $-1 $413 -9.2873079643517867e-017 $413 6.2831853071796004 $263 $414 forward 7 unknown #
loop $-1 $-1 $270 $166 #
plane-surface $-1 -38.957541901141049 -40.889475952653754 7.8156938721181035 0 -0.52991927123019833 0.84804809178421925 1 0 0 forward_v I I I I #
loop $-1 $-1 $415 $105 #
coedge $-1 $268 $268 $269 $416 reversed $167 $-1 #
coedge $-1 $269 $269 $268 $416 forward $169 $-1 #
coedge $-1 $270 $270 $170 $271 forward $265 $-1 #
edge $-1 $417 -9.2873079643517867e-017 $417 6.2831853071796004 $270 $418 forward 7 unknown #
face $-1 $419 $420 $60 $-1 $421 reversed single #
loop $-1 $-1 $422 $171 #
plane-surface $-1 -14.517729151114432 -119.93990466975356 134.32282216098383 1 0 0 0 0.52991927123019833 -0.84804809178421925 forward_v I I I I #
coedge $-1 $423 $424 $425 $426 reversed $172 $-1 #
coedge $-1 $277 $174 $427 $428 reversed $109 $-1 #
coedge $-1 $174 $276 $423 $429 reversed $109 $-1 #
coedge $-1 $425 $430 $174 $279 forward $431 $-1 #
edge $-1 $432 19.080476382223047 $433 38.187010823237188 $278 $434 forward 7 unknown #
loop $-1 $-1 $285 $175 #
plane-surface $-1 -4.4613939485148535 -40.889475952653754 7.8156938721181035 0 -0.52991927123019833 0.84804809178421925 1 0 0 forward_v I I I I #
loop $-1 $-1 $435 $111 #
coedge $-1 $283 $283 $284 $436 reversed $176 $-1 #
coedge $-1 $284 $284 $283 $436 forward $178 $-1 #
coedge $-1 $285 $285 $179 $286 forward $280 $-1 #
edge $-1 $437 -9.2873079643517867e-017 $437 6.2831853071796004 $285 $438 forward 7 unknown #
loop $-1 $-1 $292 $180 #
plane-surface $-1 -4.4613939485148535 -40.889475952653754 7.8156938721181035 0 -0.52991927123019833 0.84804809178421925 1 0 0 forward_v I I I I #
loop $-1 $-1 $439 $114 #
coedge $-1 $290 $290 $291 $440 reversed $181 $-1 #
coedge $-1 $291 $291 $290 $440 forward $183 $-1 #
coedge $-1 $292 $292 $184 $293 forward $287 $-1 #
edge $-1 $441 -9.2873079643517867e-017 $441 6.2831853071796004 $292 $442 forward 7 unknown #
loop $-1 $-1 $299 $185 #
plane-surface $-1 -4.4613939485148535 -40.889475952653754 7.8156938721181035 0 -0.52991927123019833 0.84804809178421925 1 0 0 forward_v I I I I #
loop $-1 $-1 $443 $117 #
coedge $-1 $297 $297 $298 $444 reversed $186 $-1 #
coedge $-1 $298 $298 $297 $444 forward $188 $-1 #
coedge $-1 $299 $299 $189 $300 forward $294 $-1 #
edge $-1 $445 -9.2873079643517867e-017 $445 6.2831853071796004 $299 $446 forward 7 unknown #
face $-1 $447 $448 $64 $-1 $449 reversed single #
loop $-1 $-1 $450 $190 #
plane-surface $-1 19.978418801511772 -119.93990466975356 134.32282216098383 1 0 0 0 0.52991927123019833 -0.84804809178421925 forward_v I I I I #
coedge $-1 $451 $452 $453 $454 reversed $191 $-1 #
coedge $-1 $306 $193 $455 $456 reversed $121 $-1 #
coedge $-1 $193 $305 $451 $457 reversed $121 $-1 #
coedge $-1 $453 $458 $193 $308 forward $459 $-1 #
edge $-1 $460 19.080476382223047 $461 38.187010823237188 $307 $462 forward 7 unknown #
loop $-1 $-1 $314 $194 #
plane-surface $-1 30.034754004111349 -40.889475952653754 7.8156938721181035 0 -0.52991927123019833 0.84804809178421925 1 0 0 forward_v I I I I #
loop $-1 $-1 $463 $123 #
coedge $-1 $312 $312 $313 $464 reversed $195 $-1 #
coedge $-1 $313 $313 $312 $464 forward $197 $-1 #
coedge $-1 $314 $314 $198 $315 forward $309 $-1 #
edge $-1 $465 -9.2873079643517867e-017 $465 6.2831853071796004 $314 $466 forward 7 unknown #
loop $-1 $-1 $321 $199 #
plane-surface $-1 30.034754004111349 -40.889475952653754 7.8156938721181035 0 -0.52991927123019833 0.84804809178421925 1 0 0 forward_v I I I I #
loop $-1 $-1 $467 $126 #
coedge $-1 $319 $319 $320 $468 reversed $200 $-1 #
coedge $-1 $320 $320 $319 $468 forward $202 $-1 #
coedge $-1 $321 $321 $203 $322 forward $316 $-1 #
edge $-1 $469 -9.2873079643517867e-017 $469 6.2831853071796004 $321 $470 forward 7 unknown #
loop $-1 $-1 $328 $204 #
plane-surface $-1 30.034754004111349 -40.889475952653754 7.8156938721181035 0 -0.52991927123019833 0.84804809178421925 1 0 0 forward_v I I I I #
loop $-1 $-1 $471 $129 #
coedge $-1 $326 $326 $327 $472 reversed $205 $-1 #
coedge $-1 $327 $327 $326 $472 forward $207 $-1 #
coedge $-1 $328 $328 $208 $329 forward $323 $-1 #
edge $-1 $473 -9.2873079643517867e-017 $473 6.2831853071796004 $328 $474 forward 7 unknown #
face $-1 $475 $476 $68 $-1 $477 reversed single #
loop $-1 $-1 $478 $209 #
plane-surface $-1 0 -40.889475952653733 0 0 1 0 0 0 1 forward_v I I I I #
coedge $-1 $479 $480 $481 $482 reversed $210 $-1 #
coedge $-1 $483 $212 $484 $485 reversed $133 $-1 #
coedge $-1 $212 $483 $479 $486 forward $133 $-1 #
coedge $-1 $481 $487 $212 $337 forward $488 $-1 #
edge $-1 $489 -42.321786180968353 $490 -22.209115775769192 $336 $491 forward 7 unknown #
loop $-1 $-1 $343 $213 #
plane-surface $-1 64.530901956737537 -40.889475952653754 7.8156938721181035 0 -0.52991927123019833 0.84804809178421925 1 0 0 forward_v I I I I #
loop $-1 $-1 $492 $135 #
coedge $-1 $341 $341 $342 $493 reversed $214 $-1 #
coedge $-1 $342 $342 $341 $493 forward $216 $-1 #
coedge $-1 $343 $343 $217 $344 forward $338 $-1 #
edge $-1 $494 -9.2873079643517867e-017 $494 6.2831853071796004 $343 $495 forward 7 unknown #
loop $-1 $-1 $350 $218 #
plane-surface $-1 64.530901956737537 -40.889475952653754 7.8156938721181035 0 -0.52991927123019833 0.84804809178421925 1 0 0 forward_v I I I I #
loop $-1 $-1 $496 $138 #
coedge $-1 $348 $348 $349 $497 reversed $219 $-1 #
coedge $-1 $349 $349 $348 $497 forward $221 $-1 #
coedge $-1 $350 $350 $222 $351 forward $345 $-1 #
edge $-1 $498 -9.2873079643517867e-017 $498 6.2831853071796004 $350 $499 forward 7 unknown #
loop $-1 $-1 $357 $223 #
plane-surface $-1 64.530901956737537 -40.889475952653754 7.8156938721181035 0 -0.52991927123019833 0.84804809178421925 1 0 0 forward_v I I I I #
loop $-1 $-1 $500 $141 #
coedge $-1 $355 $355 $356 $501 reversed $224 $-1 #
coedge $-1 $356 $356 $355 $501 forward $226 $-1 #
coedge $-1 $357 $357 $227 $358 forward $352 $-1 #
edge $-1 $502 -9.2873079643517867e-017 $502 6.2831853071796004 $357 $503 forward 7 unknown #
face $-1 $504 $505 $54 $-1 $506 reversed single #
loop $-1 $-1 $507 $228 #
plane-surface $-1 -74.587237159337135 0 0 1 0 0 0 0 -1 forward_v I I I I #
coedge $-1 $508 $370 $509 $510 forward $229 $-1 #
coedge $-1 $511 $231 $508 $512 forward $145 $-1 #
coedge $-1 $231 $511 $513 $514 forward $145 $-1 #
coedge $-1 $373 $372 $231 $366 reversed $374 $-1 #
edge $-1 $515 -40.889475952653733 $516 40.889475952653733 $365 $517 forward 7 unknown #
coedge $-1 $233 $232 $518 $519 forward $91 $-1 #
coedge $-1 $520 $521 $232 $369 reversed $505 $-1 #
edge $-1 $376 -74.587237159337135 $522 74.587237159337135 $368 $523 forward 7 unknown #
coedge $-1 $362 $524 $233 $371 reversed $229 $-1 #
edge $-1 $525 -74.587237159337135 $375 74.587237159337135 $370 $526 forward 7 unknown #
coedge $-1 $365 $234 $524 $527 forward $374 $-1 #
coedge $-1 $234 $365 $520 $528 reversed $374 $-1 #
loop $-1 $-1 $372 $504 #
vertex $-1 $235 $529 #
vertex $-1 $235 $530 #
straight-curve $-1 74.587237159337135 0 19.754781884703519 0 1 0 I I #
face $-1 $531 $532 $55 $-1 $533 forward single #
loop $-1 $-1 $534 $236 #
plane-surface $-1 -74.587237159337135 0 0 1 0 0 0 0 -1 forward_v I I I I #
coedge $-1 $387 $535 $382 $536 forward $237 $-1 #
coedge $-1 $537 $239 $381 $536 reversed $149 $-1 #
coedge $-1 $239 $537 $538 $539 reversed $149 $-1 #
coedge $-1 $241 $240 $534 $540 reversed $94 $-1 #
coedge $-1 $538 $541 $240 $386 forward $542 $-1 #
edge $-1 $543 -43.686958593567695 $390 -18.113598537971185 $385 $544 forward 7 unknown #
coedge $-1 $545 $381 $241 $388 forward $237 $-1 #
edge $-1 $389 18.113598537971185 $546 43.686958593567695 $387 $547 forward 7 unknown #
vertex $-1 $388 $548 #
vertex $-1 $386 $549 #
straight-curve $-1 -49.013877103740626 0 12.945661197358977 0 -1 0 I I #
face $-1 $-1 $550 $56 $-1 $551 reversed single #
loop $-1 $-1 $398 $243 #
plane-surface $-1 0 0 19.754781884703519 0 0 1 1 0 0 forward_v I I I I #
coedge $-1 $552 $553 $397 $554 reversed $244 $-1 #
coedge $-1 $555 $246 $248 $402 forward $153 $-1 #
coedge $-1 $246 $555 $395 $554 forward $153 $-1 #
coedge $-1 $556 $249 $246 $399 forward $393 $-1 #
edge $-1 $405 9.4224357479709475 $557 29.535106153170101 $398 $558 forward 7 unknown #
coedge $-1 $559 $560 $247 $401 forward $550 $-1 #
edge $-1 $561 -59.345717208373799 $404 -47.406629195788398 $400 $562 forward 7 unknown #
edge $-1 $405 -22.530012892093982 $561 -2.5137175249122944e-014 $248 $563 forward 7 unknown #
coedge $-1 $249 $556 $559 $564 forward $393 $-1 #
vertex $-1 $401 $565 #
vertex $-1 $250 $566 #
straight-curve $-1 -28.901206698541472 -59.96995233487678 19.754781884703519 0 1 0 I I #
coedge $-1 $407 $407 $-1 $567 reversed $253 $-1 #
edge $-1 $568 0 $568 6.2831853071796004 $254 $569 forward 7 unknown #
vertex $-1 $257 $570 #
ellipse-curve $-1 -44.991343022700796 -31.336208732146652 13.785237878410825 0 -0.52991927123019833 0.84804809178421925 2 0 0 1 I I #
coedge $-1 $411 $411 $-1 $571 reversed $260 $-1 #
edge $-1 $572 0 $572 6.2831853071796004 $261 $573 forward 7 unknown #
vertex $-1 $264 $574 #
ellipse-curve $-1 -38.957541901141049 -31.336208732146652 13.785237878410825 0 -0.52991927123019833 0.84804809178421925 2 0 0 1 I I #
coedge $-1 $415 $415 $-1 $575 reversed $267 $-1 #
edge $-1 $576 0 $576 6.2831853071796004 $268 $577 forward 7 unknown #
vertex $-1 $271 $578 #
ellipse-curve $-1 -32.923740779581301 -31.336208732146652 13.785237878410825 0 -0.52991927123019833 0.84804809178421925 2 0 0 1 I I #
face $-1 $-1 $431 $60 $-1 $579 forward single #
loop $-1 $-1 $580 $272 #
plane-surface $-1 0 -40.889475952653733 0 0 1 0 0 0 1 forward_v I I I I #
coedge $-1 $581 $582 $583 $584 reversed $273 $-1 #
coedge $-1 $585 $275 $277 $429 forward $172 $-1 #
coedge $-1 $275 $585 $581 $586 forward $172 $-1 #
coedge $-1 $583 $278 $275 $426 forward $431 $-1 #
edge $-1 $433 -7.8256382283421519 $587 12.287032176857005 $425 $588 forward 7 unknown #
coedge $-1 $589 $590 $276 $428 forward $420 $-1 #
edge $-1 $591 -59.345717208373799 $432 -47.406629195788398 $427 $592 forward 7 unknown #
edge $-1 $433 -22.530012892093982 $591 -2.5137175249122944e-014 $277 $593 forward 7 unknown #
coedge $-1 $278 $583 $589 $594 forward $431 $-1 #
loop $-1 $-1 $583 $419 #
vertex $-1 $428 $595 #
vertex $-1 $279 $596 #
straight-curve $-1 5.5949412540847252 -59.96995233487678 19.754781884703519 0 1 0 I I #
coedge $-1 $435 $435 $-1 $597 reversed $282 $-1 #
edge $-1 $598 0 $598 6.2831853071796004 $283 $599 forward 7 unknown #
vertex $-1 $286 $600 #
ellipse-curve $-1 -10.495195070074601 -31.336208732146652 13.785237878410825 0 -0.52991927123019833 0.84804809178421925 2 0 0 1 I I #
coedge $-1 $439 $439 $-1 $601 reversed $289 $-1 #
edge $-1 $602 0 $602 6.2831853071796004 $290 $603 forward 7 unknown #
vertex $-1 $293 $604 #
ellipse-curve $-1 -4.4613939485148535 -31.336208732146652 13.785237878410825 0 -0.52991927123019833 0.84804809178421925 2 0 0 1 I I #
coedge $-1 $443 $443 $-1 $605 reversed $296 $-1 #
edge $-1 $606 0 $606 6.2831853071796004 $297 $607 forward 7 unknown #
vertex $-1 $300 $608 #
ellipse-curve $-1 1.5724071730448941 -31.336208732146652 13.785237878410825 0 -0.52991927123019833 0.84804809178421925 2 0 0 1 I I #
face $-1 $-1 $459 $64 $-1 $609 forward single #
loop $-1 $-1 $610 $301 #
plane-surface $-1 0 -40.889475952653733 0 0 1 0 0 0 1 forward_v I I I I #
coedge $-1 $611 $612 $613 $614 reversed $302 $-1 #
coedge $-1 $615 $304 $306 $457 forward $191 $-1 #
coedge $-1 $304 $615 $611 $616 forward $191 $-1 #
coedge $-1 $613 $307 $304 $454 forward $459 $-1 #
edge $-1 $461 -25.073712204655251 $617 -4.9610417994560976 $453 $618 forward 7 unknown #
coedge $-1 $619 $620 $305 $456 forward $448 $-1 #
edge $-1 $621 -59.345717208373799 $460 -47.406629195788398 $455 $622 forward 7 unknown #
edge $-1 $461 -22.530012892093982 $621 -2.5137175249122944e-014 $306 $623 forward 7 unknown #
coedge $-1 $307 $613 $619 $624 forward $459 $-1 #
loop $-1 $-1 $613 $447 #
vertex $-1 $456 $625 #
vertex $-1 $308 $626 #
straight-curve $-1 40.091089206710926 -59.96995233487678 19.754781884703519 0 1 0 I I #
coedge $-1 $463 $463 $-1 $627 reversed $311 $-1 #
edge $-1 $628 0 $628 6.2831853071796004 $312 $629 forward 7 unknown #
vertex $-1 $315 $630 #
ellipse-curve $-1 24.000952882551601 -31.336208732146652 13.785237878410825 0 -0.52991927123019833 0.84804809178421925 2 0 0 1 I I #
coedge $-1 $467 $467 $-1 $631 reversed $318 $-1 #
edge $-1 $632 0 $632 6.2831853071796004 $319 $633 forward 7 unknown #
vertex $-1 $322 $634 #
ellipse-curve $-1 30.034754004111349 -31.336208732146652 13.785237878410825 0 -0.52991927123019833 0.84804809178421925 2 0 0 1 I I #
coedge $-1 $471 $471 $-1 $635 reversed $325 $-1 #
edge $-1 $636 0 $636 6.2831853071796004 $326 $637 forward 7 unknown #
vertex $-1 $329 $638 #
ellipse-curve $-1 36.068555125671097 -31.336208732146652 13.785237878410825 0 -0.52991927123019833 0.84804809178421925 2 0 0 1 I I #
face $-1 $-1 $488 $68 $-1 $639 forward single #
loop $-1 $-1 $484 $330 #
plane-surface $-1 74.587237159337135 0 0 -1 0 0 0 0 1 forward_v I I I I #
coedge $-1 $640 $641 $480 $642 forward $331 $-1 #
coedge $-1 $480 $333 $335 $486 reversed $210 $-1 #
coedge $-1 $333 $479 $478 $642 reversed $210 $-1 #
coedge $-1 $643 $336 $333 $482 forward $488 $-1 #
edge $-1 $490 -38.187010823237188 $644 -19.080476382223047 $481 $645 forward 7 unknown #
coedge $-1 $335 $334 $640 $646 reversed $133 $-1 #
coedge $-1 $647 $648 $334 $485 forward $476 $-1 #
edge $-1 $649 -15.267277627416767 $489 7.2627352646771888 $484 $650 forward 7 unknown #
edge $-1 $651 2.5137175249122944e-014 $490 22.530012892093982 $479 $652 forward 7 unknown #
coedge $-1 $336 $643 $647 $653 forward $488 $-1 #
loop $-1 $-1 $481 $475 #
vertex $-1 $485 $654 #
vertex $-1 $337 $655 #
straight-curve $-1 32.265450978368769 -21.782941511639596 19.754781884703519 -1 0 0 I I #
coedge $-1 $492 $492 $-1 $656 reversed $340 $-1 #
edge $-1 $657 0 $657 6.2831853071796004 $341 $658 forward 7 unknown #
vertex $-1 $344 $659 #
ellipse-curve $-1 58.49710083517779 -31.336208732146652 13.785237878410825 0 -0.52991927123019833 0.84804809178421925 2 0 0 1 I I #
coedge $-1 $496 $496 $-1 $660 reversed $347 $-1 #
edge $-1 $661 0 $661 6.2831853071796004 $348 $662 forward 7 unknown #
vertex $-1 $351 $663 #
ellipse-curve $-1 64.530901956737537 -31.336208732146652 13.785237878410825 0 -0.52991927123019833 0.84804809178421925 2 0 0 1 I I #
coedge $-1 $500 $500 $-1 $664 reversed $354 $-1 #
edge $-1 $665 0 $665 6.2831853071796004 $355 $666 forward 7 unknown #
vertex $-1 $358 $667 #
ellipse-curve $-1 70.564703078297285 -31.336208732146652 13.785237878410825 0 -0.52991927123019833 0.84804809178421925 2 0 0 1 I I #
face $-1 $-1 $374 $54 $-1 $668 reversed single #
loop $-1 $-1 $520 $359 #
plane-surface $-1 0 40.889475952653733 0 0 -1 0 0 0 -1 forward_v I I I I #
coedge $-1 $669 $518 $521 $670 forward $360 $-1 #
coedge $-1 $524 $362 $363 $512 reversed $229 $-1 #
coedge $-1 $518 $669 $362 $510 reversed $360 $-1 #
edge $-1 $525 -19.754781884703519 $671 19.754781884703519 $509 $672 forward 7 unknown #
coedge $-1 $364 $363 $669 $673 forward $145 $-1 #
edge $-1 $516 -74.587237159337135 $671 74.587237159337135 $508 $674 forward 7 unknown #
coedge $-1 $521 $520 $364 $514 reversed $505 $-1 #
edge $-1 $675 -74.587237159337135 $515 74.587237159337135 $513 $676 forward 7 unknown #
vertex $-1 $366 $677 #
vertex $-1 $527 $678 #
straight-curve $-1 74.587237159337135 0 -19.754781884703519 0 -1 0 I I #
coedge $-1 $507 $509 $367 $519 reversed $360 $-1 #
edge $-1 $522 -40.889475952653733 $525 40.889475952653733 $518 $679 forward 7 unknown #
coedge $-1 $513 $368 $373 $528 forward $505 $-1 #
coedge $-1 $368 $513 $507 $670 reversed $505 $-1 #
vertex $-1 $369 $680 #
straight-curve $-1 0 40.889475952653733 19.754781884703519 -1 0 0 I I #
coedge $-1 $370 $508 $372 $527 reversed $229 $-1 #
vertex $-1 $519 $681 #
straight-curve $-1 0 -40.889475952653733 19.754781884703519 1 0 0 I I #
edge $-1 $375 -19.754781884703519 $516 19.754781884703519 $372 $682 forward 7 unknown #
edge $-1 $376 -19.754781884703519 $515 19.754781884703519 $373 $683 forward 7 unknown #
point $-1 74.587237159337135 -40.889475952653733 19.754781884703519 #
point $-1 74.587237159337135 40.889475952653733 19.754781884703519 #
face $-1 $-1 $542 $55 $-1 $684 reversed single #
loop $-1 $-1 $685 $378 #
plane-surface $-1 0 0 19.754781884703519 0 0 1 1 0 0 forward_v I I I I #
coedge $-1 $686 $687 $384 $540 forward $379 $-1 #
coedge $-1 $381 $545 $688 $689 reversed $237 $-1 #
edge $-1 $690 -11.579671114187892 $389 -4.7705504268433536 $381 $691 forward 7 unknown #
coedge $-1 $383 $382 $685 $692 reversed $149 $-1 #
coedge $-1 $693 $385 $383 $539 forward $542 $-1 #
edge $-1 $390 4.7705504268433536 $694 11.579671114187892 $538 $695 forward 7 unknown #
edge $-1 $546 -40.889475952653733 $543 40.889475952653733 $534 $696 forward 7 unknown #
coedge $-1 $385 $693 $686 $697 forward $542 $-1 #
loop $-1 $-1 $538 $531 #
vertex $-1 $540 $698 #
straight-curve $-1 -30.90027856576944 -40.889475952653733 12.945661197358977 1 0 0 I I #
coedge $-1 $535 $387 $687 $699 reversed $237 $-1 #
vertex $-1 $540 $700 #
straight-curve $-1 -30.90027856576944 40.889475952653733 12.945661197358977 -1 0 0 I I #
point $-1 -49.013877103740626 40.889475952653733 12.945661197358977 #
point $-1 -49.013877103740626 -40.889475952653733 12.945661197358977 #
loop $-1 $-1 $400 $392 #
plane-surface $-1 0 -40.889475952653733 0 0 1 0 0 0 1 forward_v I I I I #
coedge $-1 $553 $395 $701 $702 reversed $244 $-1 #
coedge $-1 $395 $552 $556 $703 reversed $244 $-1 #
edge $-1 $704 2.5137175249122944e-014 $557 22.530012892093978 $395 $705 forward 7 unknown #
coedge $-1 $397 $396 $560 $706 reversed $153 $-1 #
coedge $-1 $403 $398 $553 $703 forward $393 $-1 #
vertex $-1 $703 $707 #
straight-curve $-1 -19.478770950570524 -21.782941511639596 19.754781884703519 -1 0 0 I I #
coedge $-1 $701 $400 $403 $564 reversed $550 $-1 #
coedge $-1 $400 $701 $555 $706 forward $550 $-1 #
vertex $-1 $401 $708 #
straight-curve $-1 -28.901206698541472 -40.889475952653733 67.161411080491916 0 0 1 I I #
straight-curve $-1 -28.901206698541472 -40.889475952653754 7.8156938721181035 0 -0.84804809178421925 -0.52991927123019833 I I #
edge $-1 $709 -49.013877103740626 $404 -28.901206698541472 $559 $710 forward 7 unknown #
point $-1 -28.901206698541472 -40.889475952653733 19.754781884703519 #
point $-1 -28.901206698541472 -21.782941511639596 19.754781884703519 #
edge $-1 $711 1 $711 0 $407 $-1 forward 7 unknown #
vertex $-1 $408 $712 #
ellipse-curve $-1 -44.991343022700796 -30.189912826363489 11.950780993567347 0 -0.52991927123019833 0.84804809178421925 2 0 0 1 I I #
point $-1 -42.991343022700796 -31.336208732146638 13.785237878410802 #
edge $-1 $713 1 $713 0 $411 $-1 forward 7 unknown #
vertex $-1 $412 $714 #
ellipse-curve $-1 -38.957541901141049 -30.189912826363489 11.950780993567347 0 -0.52991927123019833 0.84804809178421925 2 0 0 1 I I #
point $-1 -36.957541901141049 -31.336208732146638 13.785237878410802 #
edge $-1 $715 1 $715 0 $415 $-1 forward 7 unknown #
vertex $-1 $416 $716 #
ellipse-curve $-1 -32.923740779581301 -30.189912826363489 11.950780993567347 0 -0.52991927123019833 0.84804809178421925 2 0 0 1 I I #
point $-1 -30.923740779581301 -31.336208732146638 13.785237878410802 #
plane-surface $-1 0 0 19.754781884703519 0 0 1 1 0 0 forward_v I I I I #
coedge $-1 $590 $589 $582 $717 forward $420 $-1 #
coedge $-1 $582 $422 $424 $586 reversed $273 $-1 #
coedge $-1 $422 $581 $580 $717 reversed $273 $-1 #
coedge $-1 $430 $425 $422 $584 forward $431 $-1 #
edge $-1 $587 -38.187010823237188 $718 -19.080476382223047 $583 $719 forward 7 unknown #
coedge $-1 $424 $423 $590 $720 reversed $172 $-1 #
edge $-1 $721 2.5137175249122944e-014 $587 22.530012892093982 $581 $722 forward 7 unknown #
vertex $-1 $426 $723 #
straight-curve $-1 -2.2306969742574267 -21.782941511639596 19.754781884703519 -1 0 0 I I #
coedge $-1 $580 $427 $430 $594 reversed $420 $-1 #
coedge $-1 $427 $580 $585 $720 forward $420 $-1 #
vertex $-1 $428 $724 #
straight-curve $-1 5.5949412540847252 -40.889475952653733 67.161411080491916 0 0 1 I I #
straight-curve $-1 5.5949412540847252 -40.889475952653754 7.8156938721181035 0 -0.84804809178421925 -0.52991927123019833 I I #
edge $-1 $718 -14.517729151114432 $432 5.5949412540847252 $589 $725 forward 7 unknown #
point $-1 5.5949412540847252 -40.889475952653733 19.754781884703519 #
point $-1 5.5949412540847252 -21.782941511639596 19.754781884703519 #
edge $-1 $726 1 $726 0 $435 $-1 forward 7 unknown #
vertex $-1 $436 $727 #
ellipse-curve $-1 -10.495195070074601 -30.189912826363489 11.950780993567347 0 -0.52991927123019833 0.84804809178421925 2 0 0 1 I I #
point $-1 -8.4951950700746011 -31.336208732146638 13.785237878410802 #
edge $-1 $728 1 $728 0 $439 $-1 forward 7 unknown #
vertex $-1 $440 $729 #
ellipse-curve $-1 -4.4613939485148535 -30.189912826363489 11.950780993567347 0 -0.52991927123019833 0.84804809178421925 2 0 0 1 I I #
point $-1 -2.4613939485148535 -31.336208732146638 13.785237878410802 #
edge $-1 $730 1 $730 0 $443 $-1 forward 7 unknown #
vertex $-1 $444 $731 #
ellipse-curve $-1 1.5724071730448941 -30.189912826363489 11.950780993567347 0 -0.52991927123019833 0.84804809178421925 2 0 0 1 I I #
point $-1 3.5724071730448941 -31.336208732146638 13.785237878410802 #
plane-surface $-1 0 0 19.754781884703519 0 0 1 1 0 0 forward_v I I I I #
coedge $-1 $620 $619 $612 $732 forward $448 $-1 #
coedge $-1 $612 $450 $452 $616 reversed $302 $-1 #
coedge $-1 $450 $611 $610 $732 reversed $302 $-1 #
coedge $-1 $458 $453 $450 $614 forward $459 $-1 #
edge $-1 $617 -38.187010823237188 $733 -19.080476382223047 $613 $734 forward 7 unknown #
coedge $-1 $452 $451 $620 $735 reversed $191 $-1 #
edge $-1 $736 2.5137175249122944e-014 $617 22.530012892093982 $611 $737 forward 7 unknown #
vertex $-1 $454 $738 #
straight-curve $-1 15.017377002055674 -21.782941511639596 19.754781884703519 -1 0 0 I I #
coedge $-1 $610 $455 $458 $624 reversed $448 $-1 #
coedge $-1 $455 $610 $615 $735 forward $448 $-1 #
vertex $-1 $456 $739 #
straight-curve $-1 40.091089206710926 -40.889475952653733 67.161411080491916 0 0 1 I I #
straight-curve $-1 40.091089206710926 -40.889475952653754 7.8156938721181035 0 -0.84804809178421925 -0.52991927123019833 I I #
edge $-1 $733 19.978418801511772 $460 40.091089206710926 $619 $740 forward 7 unknown #
point $-1 40.091089206710926 -40.889475952653733 19.754781884703519 #
point $-1 40.091089206710926 -21.782941511639596 19.754781884703519 #
edge $-1 $741 1 $741 0 $463 $-1 forward 7 unknown #
vertex $-1 $464 $742 #
ellipse-curve $-1 24.000952882551601 -30.189912826363489 11.950780993567347 0 -0.52991927123019833 0.84804809178421925 2 0 0 1 I I #
point $-1 26.000952882551601 -31.336208732146638 13.785237878410802 #
edge $-1 $743 1 $743 0 $467 $-1 forward 7 unknown #
vertex $-1 $468 $744 #
ellipse-curve $-1 30.034754004111349 -30.189912826363489 11.950780993567347 0 -0.52991927123019833 0.84804809178421925 2 0 0 1 I I #
point $-1 32.034754004111349 -31.336208732146638 13.785237878410802 #
edge $-1 $745 1 $745 0 $471 $-1 forward 7 unknown #
vertex $-1 $472 $746 #
ellipse-curve $-1 36.068555125671097 -30.189912826363489 11.950780993567347 0 -0.52991927123019833 0.84804809178421925 2 0 0 1 I I #
point $-1 38.068555125671097 -31.336208732146638 13.785237878410802 #
plane-surface $-1 0 0 19.754781884703519 0 0 1 1 0 0 forward_v I I I I #
coedge $-1 $747 $478 $483 $646 forward $331 $-1 #
coedge $-1 $478 $747 $643 $748 reversed $331 $-1 #
edge $-1 $644 47.406629195788398 $651 59.345717208373799 $478 $749 forward 7 unknown #
coedge $-1 $487 $481 $641 $748 forward $488 $-1 #
vertex $-1 $748 $750 #
straight-curve $-1 54.47456675413796 -59.96995233487678 19.754781884703519 0 -1 0 I I #
edge $-1 $651 22.209115775769192 $649 42.321786180968353 $640 $751 forward 7 unknown #
coedge $-1 $648 $484 $487 $653 reversed $476 $-1 #
coedge $-1 $484 $647 $747 $752 forward $476 $-1 #
vertex $-1 $485 $753 #
straight-curve $-1 74.587237159337135 -27.942090293983043 15.906118506107923 0 0.84804809178421925 0.52991927123019833 I I #
vertex $-1 $646 $754 #
straight-curve $-1 54.47456675413796 -40.889475952653754 7.8156938721181035 0 0.84804809178421925 0.52991927123019833 I I #
edge $-1 $755 -40.889475952653733 $489 -21.782941511639596 $647 $756 forward 7 unknown #
point $-1 74.587237159337121 -21.782941511639596 19.754781884703519 #
point $-1 54.47456675413796 -21.782941511639596 19.754781884703519 #
edge $-1 $757 1 $757 0 $492 $-1 forward 7 unknown #
vertex $-1 $493 $758 #
ellipse-curve $-1 58.49710083517779 -30.189912826363489 11.950780993567347 0 -0.52991927123019833 0.84804809178421925 2 0 0 1 I I #
point $-1 60.49710083517779 -31.336208732146638 13.785237878410802 #
edge $-1 $759 1 $759 0 $496 $-1 forward 7 unknown #
vertex $-1 $497 $760 #
ellipse-curve $-1 64.530901956737537 -30.189912826363489 11.950780993567347 0 -0.52991927123019833 0.84804809178421925 2 0 0 1 I I #
point $-1 66.530901956737537 -31.336208732146638 13.785237878410802 #
edge $-1 $761 1 $761 0 $500 $-1 forward 7 unknown #
vertex $-1 $501 $762 #
ellipse-curve $-1 70.564703078297285 -30.189912826363489 11.950780993567347 0 -0.52991927123019833 0.84804809178421925 2 0 0 1 I I #
point $-1 72.564703078297285 -31.336208732146638 13.785237878410802 #
plane-surface $-1 74.587237159337135 0 0 -1 0 0 0 0 1 forward_v I I I I #
coedge $-1 $509 $507 $511 $673 reversed $360 $-1 #
edge $-1 $522 -19.754781884703519 $675 19.754781884703519 $521 $763 forward 7 unknown #
vertex $-1 $673 $764 #
straight-curve $-1 -74.587237159337135 -40.889475952653733 0 0 0 -1 I I #
edge $-1 $671 -40.889475952653733 $675 40.889475952653733 $669 $765 forward 7 unknown #
straight-curve $-1 0 -40.889475952653733 -19.754781884703519 -1 0 0 I I #
vertex $-1 $514 $766 #
straight-curve $-1 0 40.889475952653733 -19.754781884703519 1 0 0 I I #
point $-1 74.587237159337135 40.889475952653733 -19.754781884703519 #
point $-1 74.587237159337135 -40.889475952653733 -19.754781884703519 #
straight-curve $-1 -74.587237159337135 0 19.754781884703519 0 -1 0 I I #
point $-1 -74.587237159337135 40.889475952653733 19.754781884703519 #
point $-1 -74.587237159337135 -40.889475952653733 19.754781884703519 #
straight-curve $-1 74.587237159337135 -40.889475952653733 0 0 0 -1 I I #
straight-curve $-1 74.587237159337135 40.889475952653733 0 0 0 -1 I I #
plane-surface $-1 0 -40.889475952653733 0 0 1 0 0 0 1 forward_v I I I I #
coedge $-1 $688 $767 $537 $692 forward $532 $-1 #
coedge $-1 $768 $534 $541 $697 reversed $379 $-1 #
coedge $-1 $534 $768 $545 $699 forward $379 $-1 #
coedge $-1 $769 $685 $535 $689 forward $532 $-1 #
edge $-1 $690 49.013877103740626 $770 74.587237159337135 $535 $771 forward 7 unknown #
vertex $-1 $689 $772 #
straight-curve $-1 -49.013877103740626 40.889475952653733 8.175110770515623 0 0 -1 I I #
edge $-1 $694 -40.889475952653733 $690 40.889475952653733 $685 $773 forward 7 unknown #
coedge $-1 $541 $538 $767 $774 reversed $542 $-1 #
vertex $-1 $539 $775 #
straight-curve $-1 -49.013877103740626 -40.889475952653733 8.175110770515623 0 0 1 I I #
straight-curve $-1 -74.587237159337135 0 12.945661197358977 0 -1 0 I I #
edge $-1 $776 -19.754781884703519 $543 -12.945661197358977 $686 $777 forward 7 unknown #
point $-1 -74.587237159337135 -40.889475952653733 12.945661197358977 #
edge $-1 $770 -19.754781884703519 $546 -12.945661197358977 $545 $778 forward 7 unknown #
point $-1 -74.587237159337135 40.889475952653733 12.945661197358977 #
coedge $-1 $560 $559 $552 $702 forward $550 $-1 #
edge $-1 $709 47.406629195788398 $704 59.345717208373799 $701 $779 forward 7 unknown #
edge $-1 $557 21.782941511639599 $709 40.889475952653733 $556 $780 forward 7 unknown #
vertex $-1 $702 $781 #
straight-curve $-1 -49.013877103740626 -40.889475952653754 7.8156938721181035 0 0.84804809178421925 0.52991927123019833 I I #
edge $-1 $704 -29.535106153170101 $561 -9.4224357479709475 $560 $782 forward 7 unknown #
point $-1 -49.013877103740626 -21.782941511639599 19.754781884703519 #
point $-1 -28.901206698541472 -40.889475952653733 7.8156938721181168 #
vertex $-1 $564 $783 #
straight-curve $-1 0 -40.889475952653733 19.754781884703519 1 0 0 I I #
vertex $-1 $567 $784 #
point $-1 -42.991343022700796 -30.189912826363489 11.950780993567347 #
vertex $-1 $571 $785 #
point $-1 -36.957541901141049 -30.189912826363489 11.950780993567347 #
vertex $-1 $575 $786 #
point $-1 -30.923740779581301 -30.189912826363489 11.950780993567347 #
edge $-1 $718 47.406629195788398 $721 59.345717208373799 $580 $787 forward 7 unknown #
vertex $-1 $594 $788 #
straight-curve $-1 -14.517729151114432 -59.96995233487678 19.754781884703519 0 -1 0 I I #
edge $-1 $721 -12.287032176857005 $591 7.8256382283421519 $590 $789 forward 7 unknown #
vertex $-1 $720 $790 #
straight-curve $-1 -14.517729151114432 -40.889475952653754 7.8156938721181035 0 0.84804809178421925 0.52991927123019833 I I #
point $-1 -14.517729151114432 -21.782941511639596 19.754781884703519 #
point $-1 5.5949412540847252 -40.889475952653733 7.8156938721181168 #
straight-curve $-1 0 -40.889475952653733 19.754781884703519 1 0 0 I I #
vertex $-1 $597 $791 #
point $-1 -8.4951950700746011 -30.189912826363489 11.950780993567347 #
vertex $-1 $601 $792 #
point $-1 -2.4613939485148535 -30.189912826363489 11.950780993567347 #
vertex $-1 $605 $793 #
point $-1 3.5724071730448941 -30.189912826363489 11.950780993567347 #
edge $-1 $733 47.406629195788398 $736 59.345717208373799 $610 $794 forward 7 unknown #
vertex $-1 $624 $795 #
straight-curve $-1 19.978418801511772 -59.96995233487678 19.754781884703519 0 -1 0 I I #
edge $-1 $736 4.9610417994560976 $621 25.073712204655251 $620 $796 forward 7 unknown #
vertex $-1 $735 $797 #
straight-curve $-1 19.978418801511772 -40.889475952653754 7.8156938721181035 0 0.84804809178421925 0.52991927123019833 I I #
point $-1 19.978418801511772 -21.782941511639596 19.754781884703519 #
point $-1 40.091089206710926 -40.889475952653733 7.8156938721181168 #
straight-curve $-1 0 -40.889475952653733 19.754781884703519 1 0 0 I I #
vertex $-1 $627 $798 #
point $-1 26.000952882551601 -30.189912826363489 11.950780993567347 #
vertex $-1 $631 $799 #
point $-1 32.034754004111349 -30.189912826363489 11.950780993567347 #
vertex $-1 $635 $800 #
point $-1 38.068555125671097 -30.189912826363489 11.950780993567347 #
coedge $-1 $641 $640 $648 $752 reversed $331 $-1 #
edge $-1 $644 54.47456675413796 $755 74.587237159337135 $641 $801 forward 7 unknown #
straight-curve $-1 54.47456675413796 -40.889475952653733 67.161411080491916 0 0 -1 I I #
point $-1 54.47456675413796 -40.889475952653733 19.754781884703519 #
straight-curve $-1 32.265450978368769 -40.889475952653733 7.8156938721181168 1 0 0 I I #
edge $-1 $755 -19.754781884703519 $649 -7.8156938721181168 $648 $802 forward 7 unknown #
point $-1 74.587237159337121 -40.889475952653733 7.8156938721181168 #
point $-1 54.47456675413796 -40.889475952653733 7.8156938721181168 #
vertex $-1 $653 $803 #
straight-curve $-1 74.587237159337135 0 19.754781884703519 0 1 0 I I #
vertex $-1 $656 $804 #
point $-1 60.49710083517779 -30.189912826363489 11.950780993567347 #
vertex $-1 $660 $805 #
point $-1 66.530901956737537 -30.189912826363489 11.950780993567347 #
vertex $-1 $664 $806 #
point $-1 72.564703078297285 -30.189912826363489 11.950780993567347 #
straight-curve $-1 -74.587237159337135 40.889475952653733 0 0 0 -1 I I #
point $-1 -74.587237159337135 -40.889475952653733 -19.754781884703519 #
straight-curve $-1 -74.587237159337135 0 -19.754781884703519 0 1 0 I I #
point $-1 -74.587237159337135 40.889475952653733 -19.754781884703519 #
coedge $-1 $685 $769 $693 $774 forward $532 $-1 #
coedge $-1 $687 $686 $769 $807 reversed $379 $-1 #
coedge $-1 $767 $688 $768 $807 forward $532 $-1 #
vertex $-1 $689 $808 #
straight-curve $-1 0 40.889475952653733 19.754781884703519 -1 0 0 I I #
point $-1 -49.013877103740626 40.889475952653733 19.754781884703515 #
straight-curve $-1 -49.013877103740626 0 19.754781884703519 0 1 0 I I #
edge $-1 $776 -74.587237159337135 $694 -49.013877103740626 $693 $809 forward 7 unknown #
point $-1 -49.013877103740626 -40.889475952653733 19.754781884703515 #
vertex $-1 $807 $810 #
straight-curve $-1 -74.587237159337135 -40.889475952653733 0 0 0 -1 I I #
straight-curve $-1 -74.587237159337135 40.889475952653733 0 0 0 -1 I I #
straight-curve $-1 -49.013877103740626 -40.889475952653733 67.161411080491916 0 0 -1 I I #
straight-curve $-1 -49.013877103740626 0 19.754781884703519 0 -1 0 I I #
point $-1 -49.013877103740626 -40.889475952653733 7.8156938721181168 #
straight-curve $-1 -19.478770950570524 -40.889475952653733 7.8156938721181168 1 0 0 I I #
point $-1 -49.013877103740626 -40.889475952653733 19.754781884703515 #
point $-1 -44.991343022700796 -29.130074283903092 10.254684809998908 #
point $-1 -38.957541901141049 -29.130074283903092 10.254684809998908 #
point $-1 -32.923740779581301 -29.130074283903092 10.254684809998908 #
straight-curve $-1 -14.517729151114432 -40.889475952653733 67.161411080491916 0 0 -1 I I #
point $-1 -14.517729151114432 -40.889475952653733 19.754781884703519 #
straight-curve $-1 -2.2306969742574267 -40.889475952653733 7.8156938721181168 1 0 0 I I #
point $-1 -14.517729151114432 -40.889475952653733 7.8156938721181168 #
point $-1 -10.495195070074601 -29.130074283903092 10.254684809998908 #
point $-1 -4.4613939485148535 -29.130074283903092 10.254684809998908 #
point $-1 1.5724071730448941 -29.130074283903092 10.254684809998908 #
straight-curve $-1 19.978418801511772 -40.889475952653733 67.161411080491916 0 0 -1 I I #
point $-1 19.978418801511772 -40.889475952653733 19.754781884703519 #
straight-curve $-1 15.017377002055674 -40.889475952653733 7.8156938721181168 1 0 0 I I #
point $-1 19.978418801511772 -40.889475952653733 7.8156938721181168 #
point $-1 24.000952882551601 -29.130074283903092 10.254684809998908 #
point $-1 30.034754004111349 -29.130074283903092 10.254684809998908 #
point $-1 36.068555125671097 -29.130074283903092 10.254684809998908 #
straight-curve $-1 0 -40.889475952653733 19.754781884703519 1 0 0 I I #
straight-curve $-1 74.587237159337135 -40.889475952653733 0 0 0 -1 I I #
point $-1 74.587237159337135 -40.889475952653733 19.754781884703519 #
point $-1 58.49710083517779 -29.130074283903092 10.254684809998908 #
point $-1 64.530901956737537 -29.130074283903092 10.254684809998908 #
point $-1 70.564703078297285 -29.130074283903092 10.254684809998908 #
edge $-1 $770 -40.889475952653733 $776 40.889475952653733 $768 $811 forward 7 unknown #
point $-1 -74.587237159337135 40.889475952653733 19.754781884703519 #
straight-curve $-1 0 -40.889475952653733 19.754781884703519 1 0 0 I I #
point $-1 -74.587237159337135 -40.889475952653733 19.754781884703519 #
straight-curve $-1 -74.587237159337135 0 19.754781884703519 0 -1 0 I I #
End-of-ACIS-data 