500 0 4 0           
7 Unknown 11 ACIS 5.0 NT 24 Fri Mar 26 19:58:18 1999 
-1 9.9999999999999995e-007 1e-010 
body $-1 $4 $-1 $5 #
body $-1 $6 $-1 $7 #
body $-1 $8 $-1 $9 #
body $-1 $10 $-1 $11 #
lump $-1 $-1 $12 $0 #
transform $-1 1 0 0 0 1 0 0 0 1 70.585650196844384 41.652362331343234 19.038029119664948 1 rotate no_reflect no_shear #
lump $-1 $-1 $13 $1 #
transform $-1 1 0 0 0 1 0 0 0 1 70.585650196844384 41.652362331343234 19.038029119664948 1 rotate no_reflect no_shear #
lump $-1 $-1 $14 $2 #
transform $-1 1 0 0 0 1 0 0 0 1 70.585650196844384 41.652362331343234 19.038029119664948 1 rotate no_reflect no_shear #
lump $-1 $-1 $15 $3 #
transform $-1 1 0 0 0 1 0 0 0 1 70.585650196844384 41.652362331343234 19.038029119664948 1 rotate no_reflect no_shear #
shell $-1 $-1 $-1 $16 $-1 $4 #
shell $-1 $-1 $-1 $17 $-1 $6 #
shell $-1 $-1 $-1 $18 $-1 $8 #
shell $-1 $-1 $-1 $19 $-1 $10 #
face $-1 $20 $21 $12 $-1 $22 forward single #
face $-1 $23 $24 $13 $-1 $25 forward single #
face $-1 $26 $27 $14 $-1 $28 reversed single #
face $-1 $29 $30 $15 $-1 $31 forward single #
face $-1 $32 $33 $12 $-1 $34 reversed single #
loop $-1 $-1 $35 $16 #
plane-surface $-1 0 0 19.038029119664948 0 0 1 1 0 0 forward_v I I I I #
face $-1 $36 $37 $13 $-1 $38 forward single #
loop $-1 $-1 $39 $17 #
plane-surface $-1 0 -41.652362331343234 0 0 1 0 0 0 1 forward_v I I I I #
face $-1 $40 $41 $14 $-1 $42 reversed single #
loop $-1 $-1 $43 $18 #
plane-surface $-1 81.034336224879823 26.356136862176172 208.05914792688804 0 1 0 0.74314483375859142 0 0.66913059716165679 forward_v I I I I #
face $-1 $44 $45 $15 $-1 $46 forward single #
loop $-1 $47 $48 $19 #
cone-surface $-1 64.581244141627607 34.004249596759699 12.651996836161004 -0.74314483375859142 0 -0.66913059716165679 1.0036958957424851 0 -1.1147172506378871 1 I I 0 1 1.5 forward I I I I #
face $-1 $49 $50 $12 $-1 $51 reversed single #
loop $-1 $-1 $52 $20 #
plane-surface $-1 0 0 -19.038029119664948 0 0 1 1 0 0 forward_v I I I I #
coedge $-1 $53 $54 $55 $56 forward $21 $-1 #
face $-1 $57 $58 $13 $-1 $59 reversed single #
loop $-1 $-1 $60 $23 #
plane-surface $-1 0 0 19.038029119664948 0 0 1 1 0 0 forward_v I I I I #
coedge $-1 $61 $62 $63 $64 forward $24 $-1 #
face $-1 $65 $66 $14 $-1 $67 reversed single #
loop $-1 $-1 $68 $26 #
plane-surface $-1 -23.876386337672187 34.004249596759699 113.59711139237145 0.74314483375859142 0 0.66913059716165679 0.66913059716165679 0 -0.74314483375859142 forward_v I I I I #
coedge $-1 $69 $70 $71 $72 reversed $27 $-1 #
face $-1 $-1 $73 $15 $-1 $74 forward single #
loop $-1 $75 $76 $29 #
cone-surface $-1 62.679808736150207 34.004249596759699 10.939936749708572 -0.74314483375859142 0 -0.66913059716165679 0.50184794787124254 0 -0.55735862531894353 1 I I -0.70710678118654757 0.70710678118654757 0.75 forward I I I I #
loop $-1 $-1 $77 $19 #
coedge $-1 $48 $48 $78 $79 reversed $30 $-1 #
face $-1 $80 $81 $12 $-1 $82 reversed single #
loop $-1 $-1 $83 $32 #
plane-surface $-1 0 -41.652362331343234 0 0 1 0 0 0 1 forward_v I I I I #
coedge $-1 $84 $85 $86 $87 forward $33 $-1 #
coedge $-1 $88 $35 $89 $90 forward $21 $-1 #
coedge $-1 $35 $88 $91 $92 forward $21 $-1 #
coedge $-1 $93 $94 $35 $56 reversed $95 $-1 #
edge $-1 $96 -41.652362331343234 $97 41.652362331343234 $55 $98 forward 7 unknown #
face $-1 $99 $100 $13 $-1 $101 reversed single #
loop $-1 $-1 $102 $36 #
plane-surface $-1 -70.585650196844384 0 0 1 0 0 0 0 -1 forward_v I I I I #
coedge $-1 $103 $104 $105 $106 forward $37 $-1 #
coedge $-1 $105 $39 $102 $107 reversed $24 $-1 #
coedge $-1 $39 $105 $108 $109 reversed $24 $-1 #
coedge $-1 $110 $111 $39 $64 reversed $100 $-1 #
edge $-1 $112 -70.585650196844384 $113 70.585650196844384 $63 $114 forward 7 unknown #
face $-1 $115 $116 $14 $-1 $117 forward single #
loop $-1 $-1 $71 $40 #
plane-surface $-1 70.585650196844384 0 0 -1 0 0 0 0 1 forward_v I I I I #
coedge $-1 $118 $119 $120 $121 reversed $41 $-1 #
coedge $-1 $70 $43 $122 $123 reversed $27 $-1 #
coedge $-1 $43 $69 $118 $124 reversed $27 $-1 #
coedge $-1 $120 $125 $43 $72 forward $66 $-1 #
edge $-1 $126 84.991544843779081 $127 95.343185133624544 $71 $128 forward 7 unknown #
loop $-1 $-1 $78 $44 #
plane-surface $-1 -23.876386337672187 34.004249596759699 113.59711139237145 0.74314483375859142 0 0.66913059716165679 0.66913059716165679 0 -0.74314483375859142 forward_v I I I I #
loop $-1 $-1 $129 $29 #
coedge $-1 $76 $76 $77 $130 reversed $45 $-1 #
coedge $-1 $77 $77 $76 $130 forward $47 $-1 #
coedge $-1 $78 $78 $48 $79 forward $73 $-1 #
edge $-1 $131 0 $131 6.2831853071796004 $78 $132 forward 7 unknown #
face $-1 $133 $134 $12 $-1 $135 reversed single #
loop $-1 $-1 $136 $49 #
plane-surface $-1 -70.585650196844384 0 0 1 0 0 0 0 -1 forward_v I I I I #
coedge $-1 $137 $91 $138 $139 forward $50 $-1 #
coedge $-1 $140 $52 $137 $141 forward $33 $-1 #
coedge $-1 $52 $140 $142 $143 forward $33 $-1 #
coedge $-1 $94 $93 $52 $87 reversed $95 $-1 #
edge $-1 $144 -41.652362331343234 $145 41.652362331343234 $86 $146 forward 7 unknown #
coedge $-1 $54 $53 $147 $148 forward $21 $-1 #
coedge $-1 $149 $150 $53 $90 reversed $134 $-1 #
edge $-1 $97 -70.585650196844384 $151 70.585650196844384 $89 $152 forward 7 unknown #
coedge $-1 $83 $153 $54 $92 reversed $50 $-1 #
edge $-1 $154 -70.585650196844384 $96 70.585650196844384 $91 $155 forward 7 unknown #
coedge $-1 $86 $55 $153 $156 forward $95 $-1 #
coedge $-1 $55 $86 $149 $157 reversed $95 $-1 #
loop $-1 $-1 $93 $133 #
vertex $-1 $56 $158 #
vertex $-1 $56 $159 #
straight-curve $-1 70.585650196844384 0 19.038029119664948 0 1 0 I I #
face $-1 $160 $161 $13 $-1 $162 reversed single #
loop $-1 $-1 $110 $57 #
plane-surface $-1 0 -49.882162950506263 9.1074835675091421 0 0 1 1 0 0 forward_v I I I I #
coedge $-1 $163 $164 $61 $107 forward $58 $-1 #
coedge $-1 $165 $60 $164 $166 forward $37 $-1 #
coedge $-1 $60 $165 $167 $168 forward $37 $-1 #
coedge $-1 $62 $61 $60 $106 reversed $24 $-1 #
edge $-1 $169 -70.585650196844384 $170 70.585650196844384 $60 $171 forward 7 unknown #
edge $-1 $170 -19.038029119664948 $113 -9.1074835675091421 $102 $172 forward 7 unknown #
coedge $-1 $167 $173 $62 $109 forward $174 $-1 #
edge $-1 $112 9.1074835675091421 $169 19.038029119664948 $108 $175 forward 7 unknown #
coedge $-1 $176 $63 $173 $177 forward $100 $-1 #
coedge $-1 $63 $176 $163 $178 forward $100 $-1 #
vertex $-1 $109 $179 #
vertex $-1 $107 $180 #
straight-curve $-1 0 -41.652362331343234 9.1074835675091421 -1 0 0 I I #
face $-1 $-1 $181 $14 $-1 $182 reversed single #
loop $-1 $-1 $122 $65 #
plane-surface $-1 0 0 19.038029119664948 0 0 1 1 0 0 forward_v I I I I #
coedge $-1 $183 $68 $70 $124 forward $41 $-1 #
coedge $-1 $68 $183 $184 $185 reversed $41 $-1 #
coedge $-1 $186 $71 $68 $121 forward $66 $-1 #
edge $-1 $127 9.354012063796322 $187 24.650237532963384 $120 $188 forward 7 unknown #
coedge $-1 $189 $190 $69 $123 forward $116 $-1 #
edge $-1 $191 20.747823534287896 $126 30.068482084404472 $122 $192 forward 7 unknown #
edge $-1 $127 -141.17130039368868 $191 -127.24179456978334 $70 $193 forward 7 unknown #
coedge $-1 $71 $186 $189 $194 reversed $66 $-1 #
vertex $-1 $194 $195 #
vertex $-1 $72 $196 #
straight-curve $-1 70.585650196844384 26.356136862176172 104.02957396344402 0 0 -1 I I #
coedge $-1 $129 $129 $-1 $197 reversed $75 $-1 #
edge $-1 $198 0 $198 6.2831853071796004 $76 $199 forward 7 unknown #
vertex $-1 $79 $200 #
ellipse-curve $-1 65.925320921786096 34.004249596759699 13.862208974742217 0.74314483375859142 0 0.66913059716165679 1.0036958957424851 0 -1.1147172506378871 1 I I #
face $-1 $-1 $95 $12 $-1 $201 reversed single #
loop $-1 $-1 $149 $80 #
plane-surface $-1 0 41.652362331343234 0 0 -1 0 0 0 -1 forward_v I I I I #
coedge $-1 $202 $147 $150 $203 forward $81 $-1 #
coedge $-1 $153 $83 $84 $141 reversed $50 $-1 #
coedge $-1 $147 $202 $83 $139 reversed $81 $-1 #
edge $-1 $154 -19.038029119664948 $204 19.038029119664948 $138 $205 forward 7 unknown #
coedge $-1 $85 $84 $202 $206 forward $33 $-1 #
edge $-1 $145 -70.585650196844384 $204 70.585650196844384 $137 $207 forward 7 unknown #
coedge $-1 $150 $149 $85 $143 reversed $134 $-1 #
edge $-1 $208 -70.585650196844384 $144 70.585650196844384 $142 $209 forward 7 unknown #
vertex $-1 $87 $210 #
vertex $-1 $156 $211 #
straight-curve $-1 70.585650196844384 0 -19.038029119664948 0 -1 0 I I #
coedge $-1 $136 $138 $88 $148 reversed $81 $-1 #
edge $-1 $151 -41.652362331343234 $154 41.652362331343234 $147 $212 forward 7 unknown #
coedge $-1 $142 $89 $94 $157 forward $134 $-1 #
coedge $-1 $89 $142 $136 $203 reversed $134 $-1 #
vertex $-1 $90 $213 #
straight-curve $-1 0 41.652362331343234 19.038029119664948 -1 0 0 I I #
coedge $-1 $91 $137 $93 $156 reversed $50 $-1 #
vertex $-1 $148 $214 #
straight-curve $-1 0 -41.652362331343234 19.038029119664948 1 0 0 I I #
edge $-1 $96 -19.038029119664948 $145 19.038029119664948 $93 $215 forward 7 unknown #
edge $-1 $97 -19.038029119664948 $144 19.038029119664948 $94 $216 forward 7 unknown #
point $-1 70.585650196844384 -41.652362331343234 19.038029119664948 #
point $-1 70.585650196844384 41.652362331343234 19.038029119664948 #
face $-1 $-1 $174 $13 $-1 $217 reversed single #
loop $-1 $-1 $218 $99 #
plane-surface $-1 0 -58.111963569669292 14.072756343587045 0 1 0 0 0 1 forward_v I I I I #
coedge $-1 $219 $102 $111 $178 reversed $58 $-1 #
coedge $-1 $102 $219 $103 $166 reversed $58 $-1 #
coedge $-1 $104 $103 $220 $221 forward $37 $-1 #
edge $-1 $170 41.652362331343234 $222 58.111963569669292 $164 $223 forward 7 unknown #
coedge $-1 $224 $108 $104 $168 reversed $174 $-1 #
edge $-1 $225 -58.111963569669292 $169 -41.652362331343234 $167 $226 forward 7 unknown #
vertex $-1 $109 $227 #
vertex $-1 $166 $228 #
straight-curve $-1 0 -41.652362331343234 19.038029119664948 -1 0 0 I I #
straight-curve $-1 -70.585650196844384 -41.652362331343234 0 0 0 -1 I I #
coedge $-1 $108 $224 $110 $177 reversed $174 $-1 #
loop $-1 $-1 $108 $160 #
straight-curve $-1 70.585650196844384 -41.652362331343234 0 0 0 1 I I #
coedge $-1 $111 $110 $229 $230 forward $100 $-1 #
edge $-1 $112 -8.2298006191630293 $231 8.2298006191630293 $173 $232 forward 7 unknown #
edge $-1 $233 -8.2298006191630293 $113 8.2298006191630293 $163 $234 forward 7 unknown #
point $-1 70.585650196844384 -41.652362331343234 9.1074835675091421 #
point $-1 -70.585650196844384 -41.652362331343234 9.1074835675091421 #
loop $-1 $-1 $184 $115 #
plane-surface $-1 0 41.652362331343234 0 0 -1 0 0 0 -1 forward_v I I I I #
coedge $-1 $119 $118 $190 $235 reversed $41 $-1 #
coedge $-1 $236 $237 $119 $185 forward $181 $-1 #
edge $-1 $187 -90.973536839024149 $238 -77.044031015118804 $184 $239 forward 7 unknown #
coedge $-1 $125 $120 $237 $240 reversed $66 $-1 #
vertex $-1 $121 $241 #
straight-curve $-1 70.585650196844384 17.00212479837985 8.686388829819478 0 1 0 I I #
coedge $-1 $242 $122 $125 $194 forward $116 $-1 #
coedge $-1 $122 $242 $183 $235 forward $116 $-1 #
vertex $-1 $123 $243 #
straight-curve $-1 40.517168112439911 26.356136862176172 19.038029119664941 1 0 0 I I #
straight-curve $-1 -23.876386337672187 26.356136862176172 113.59711139237145 -0.66913059716165679 0 0.74314483375859142 I I #
edge $-1 $126 26.356136862176172 $244 41.652362331343234 $125 $245 forward 7 unknown #
point $-1 70.585650196844384 26.356136862176172 19.038029119664948 #
point $-1 70.585650196844369 26.356136862176172 8.686388829819478 #
edge $-1 $246 1 $246 0 $129 $-1 forward 7 unknown #
vertex $-1 $130 $247 #
ellipse-curve $-1 63.237167361469147 34.004249596759699 11.441784697579815 0.74314483375859142 0 0.66913059716165679 1.0036958957424851 0 -1.1147172506378871 1 I I #
point $-1 66.929016817528549 34.004249596759699 12.747491724104306 #
plane-surface $-1 70.585650196844384 0 0 -1 0 0 0 0 1 forward_v I I I I #
coedge $-1 $138 $136 $140 $206 reversed $81 $-1 #
edge $-1 $151 -19.038029119664948 $208 19.038029119664948 $150 $248 forward 7 unknown #
vertex $-1 $206 $249 #
straight-curve $-1 -70.585650196844384 -41.652362331343234 0 0 0 -1 I I #
edge $-1 $204 -41.652362331343234 $208 41.652362331343234 $202 $250 forward 7 unknown #
straight-curve $-1 0 -41.652362331343234 -19.038029119664948 -1 0 0 I I #
vertex $-1 $143 $251 #
straight-curve $-1 0 41.652362331343234 -19.038029119664948 1 0 0 I I #
point $-1 70.585650196844384 41.652362331343234 -19.038029119664948 #
point $-1 70.585650196844384 -41.652362331343234 -19.038029119664948 #
straight-curve $-1 -70.585650196844384 0 19.038029119664948 0 -1 0 I I #
point $-1 -70.585650196844384 41.652362331343234 19.038029119664948 #
point $-1 -70.585650196844384 -41.652362331343234 19.038029119664948 #
straight-curve $-1 70.585650196844384 -41.652362331343234 0 0 0 -1 I I #
straight-curve $-1 70.585650196844384 41.652362331343234 0 0 0 -1 I I #
plane-surface $-1 70.585650196844384 0 0 -1 0 0 0 0 1 forward_v I I I I #
coedge $-1 $229 $220 $219 $252 forward $161 $-1 #
coedge $-1 $164 $163 $218 $252 reversed $58 $-1 #
coedge $-1 $218 $253 $165 $221 reversed $161 $-1 #
edge $-1 $222 -70.585650196844384 $225 70.585650196844384 $220 $254 forward 7 unknown #
vertex $-1 $166 $255 #
straight-curve $-1 -70.585650196844384 0 19.038029119664948 0 -1 0 I I #
coedge $-1 $173 $167 $253 $256 forward $174 $-1 #
vertex $-1 $168 $257 #
straight-curve $-1 70.585650196844384 0 19.038029119664948 0 1 0 I I #
point $-1 70.585650196844384 -41.652362331343234 19.038029119664948 #
point $-1 -70.585650196844384 -41.652362331343234 19.038029119664948 #
coedge $-1 $253 $218 $176 $230 reversed $161 $-1 #
edge $-1 $231 -70.585650196844384 $233 70.585650196844384 $229 $258 forward 7 unknown #
vertex $-1 $256 $259 #
straight-curve $-1 70.585650196844384 -49.882162950506263 9.1074835675091421 0 -1 0 I I #
vertex $-1 $178 $260 #
straight-curve $-1 -70.585650196844384 -49.882162950506263 9.1074835675091421 0 1 0 I I #
edge $-1 $238 -24.650237532963377 $191 -9.354012063796322 $190 $261 forward 7 unknown #
coedge $-1 $237 $184 $242 $262 reversed $181 $-1 #
coedge $-1 $184 $236 $186 $240 forward $181 $-1 #
vertex $-1 $185 $263 #
straight-curve $-1 9.7124731658401515 41.652362331343234 76.292902740487179 -0.66913059716165679 0 0.74314483375859142 I I #
edge $-1 $244 -19.038029119664948 $187 -8.6863888298194833 $186 $264 forward 7 unknown #
point $-1 70.585650196844384 41.652362331343234 8.6863888298194833 #
coedge $-1 $190 $189 $236 $262 forward $116 $-1 #
point $-1 61.264991646727808 26.356136862176172 19.038029119664955 #
vertex $-1 $194 $265 #
straight-curve $-1 70.585650196844384 0 19.038029119664948 0 1 0 I I #
vertex $-1 $197 $266 #
point $-1 64.240863257211629 34.004249596759699 10.327067446941928 #
straight-curve $-1 -70.585650196844384 41.652362331343234 0 0 0 -1 I I #
point $-1 -70.585650196844384 -41.652362331343234 -19.038029119664948 #
straight-curve $-1 -70.585650196844384 0 -19.038029119664948 0 1 0 I I #
point $-1 -70.585650196844384 41.652362331343234 -19.038029119664948 #
edge $-1 $222 -4.965272776077903 $233 4.965272776077903 $219 $267 forward 7 unknown #
coedge $-1 $220 $229 $224 $256 reversed $161 $-1 #
straight-curve $-1 0 -58.111963569669292 19.038029119664948 1 0 0 I I #
point $-1 -70.585650196844384 -58.111963569669292 19.038029119664948 #
edge $-1 $225 -4.965272776077903 $231 4.965272776077903 $224 $268 forward 7 unknown #
point $-1 70.585650196844384 -58.111963569669292 19.038029119664948 #
straight-curve $-1 0 -58.111963569669292 9.1074835675091421 -1 0 0 I I #
point $-1 70.585650196844384 -58.111963569669292 9.1074835675091421 #
point $-1 -70.585650196844384 -58.111963569669292 9.1074835675091421 #
straight-curve $-1 61.264991646727808 17.00212479837985 19.038029119664955 0 -1 0 I I #
edge $-1 $244 -70.585650196844384 $238 -61.264991646727808 $236 $269 forward 7 unknown #
point $-1 61.264991646727808 41.652362331343227 19.038029119664955 #
straight-curve $-1 70.585650196844384 41.652362331343234 0 0 0 -1 I I #
point $-1 70.585650196844384 41.652362331343234 19.038029119664948 #
point $-1 62.122450110831267 34.004249596759699 10.438088801837329 #
straight-curve $-1 -70.585650196844384 -58.111963569669292 14.072756343587045 0 0 -1 I I #
straight-curve $-1 70.585650196844384 -58.111963569669292 14.072756343587045 0 0 -1 I I #
straight-curve $-1 0 41.652362331343234 19.038029119664948 -1 0 0 I I #
End-of-ACIS-data 