500 0 11 0           
7 Unknown 11 ACIS 5.0 NT 24 Fri Mar 26 20:11:47 1999 
-1 9.9999999999999995e-007 1e-010 
body $-1 $11 $-1 $12 #
body $-1 $13 $-1 $14 #
body $-1 $15 $-1 $16 #
body $-1 $17 $-1 $18 #
body $-1 $19 $-1 $20 #
body $-1 $21 $-1 $22 #
body $-1 $23 $-1 $24 #
body $-1 $25 $-1 $26 #
body $-1 $27 $-1 $28 #
body $-1 $29 $-1 $30 #
body $-1 $31 $-1 $32 #
lump $-1 $-1 $33 $0 #
transform $-1 1 0 0 0 1 0 0 0 1 74.153874324777973 35.731770900642474 12.253728129231224 1 rotate no_reflect no_shear #
lump $-1 $-1 $34 $1 #
transform $-1 1 0 0 0 1 0 0 0 1 74.153874324777973 35.731770900642474 12.253728129231224 1 rotate no_reflect no_shear #
lump $-1 $-1 $35 $2 #
transform $-1 1 0 0 0 1 0 0 0 1 74.153874324777973 35.731770900642474 12.253728129231224 1 rotate no_reflect no_shear #
lump $-1 $-1 $36 $3 #
transform $-1 1 0 0 0 1 0 0 0 1 74.153874324777973 35.731770900642474 12.253728129231224 1 rotate no_reflect no_shear #
lump $-1 $-1 $37 $4 #
transform $-1 1 0 0 0 1 0 0 0 1 74.153874324777973 35.731770900642474 12.253728129231224 1 rotate no_reflect no_shear #
lump $-1 $-1 $38 $5 #
transform $-1 1 0 0 0 1 0 0 0 1 74.153874324777973 35.731770900642474 12.253728129231224 1 rotate no_reflect no_shear #
lump $-1 $-1 $39 $6 #
transform $-1 1 0 0 0 1 0 0 0 1 74.153874324777973 35.731770900642474 12.253728129231224 1 rotate no_reflect no_shear #
lump $-1 $-1 $40 $7 #
transform $-1 1 0 0 0 1 0 0 0 1 74.153874324777973 35.731770900642474 12.253728129231224 1 rotate no_reflect no_shear #
lump $-1 $-1 $41 $8 #
transform $-1 1 0 0 0 1 0 0 0 1 74.153874324777973 35.731770900642474 12.253728129231224 1 rotate no_reflect no_shear #
lump $-1 $-1 $42 $9 #
transform $-1 1 0 0 0 1 0 0 0 1 74.153874324777973 35.731770900642474 12.253728129231224 1 rotate no_reflect no_shear #
lump $-1 $-1 $43 $10 #
transform $-1 1 0 0 0 1 0 0 0 1 74.153874324777973 35.731770900642474 12.253728129231224 1 rotate no_reflect no_shear #
shell $-1 $-1 $-1 $44 $-1 $11 #
shell $-1 $-1 $-1 $45 $-1 $13 #
shell $-1 $-1 $-1 $46 $-1 $15 #
shell $-1 $-1 $-1 $47 $-1 $17 #
shell $-1 $-1 $-1 $48 $-1 $19 #
shell $-1 $-1 $-1 $49 $-1 $21 #
shell $-1 $-1 $-1 $50 $-1 $23 #
shell $-1 $-1 $-1 $51 $-1 $25 #
shell $-1 $-1 $-1 $52 $-1 $27 #
shell $-1 $-1 $-1 $53 $-1 $29 #
shell $-1 $-1 $-1 $54 $-1 $31 #
face $-1 $55 $56 $33 $-1 $57 forward single #
face $-1 $58 $59 $34 $-1 $60 forward single #
face $-1 $61 $62 $35 $-1 $63 reversed single #
face $-1 $64 $65 $36 $-1 $66 forward single #
face $-1 $67 $68 $37 $-1 $69 forward single #
face $-1 $70 $71 $38 $-1 $72 reversed single #
face $-1 $73 $74 $39 $-1 $75 forward single #
face $-1 $76 $77 $40 $-1 $78 forward single #
face $-1 $79 $80 $41 $-1 $81 reversed single #
face $-1 $82 $83 $42 $-1 $84 forward single #
face $-1 $85 $86 $43 $-1 $87 forward single #
face $-1 $88 $89 $33 $-1 $90 reversed single #
loop $-1 $-1 $91 $44 #
plane-surface $-1 0 0 12.253728129231224 0 0 1 1 0 0 forward_v I I I I #
face $-1 $92 $93 $34 $-1 $94 reversed single #
loop $-1 $-1 $95 $45 #
plane-surface $-1 0 -35.731770900642474 0 0 1 0 0 0 1 forward_v I I I I #
face $-1 $96 $97 $35 $-1 $98 reversed single #
loop $-1 $-1 $99 $46 #
plane-surface $-1 -150.53801269957935 -4.1666632948163524 136.27350599570835 0 1 0 -0.51503808176128008 0 0.85716729658548041 forward_v I I I I #
face $-1 $100 $101 $36 $-1 $102 forward single #
loop $-1 $103 $104 $47 #
cone-surface $-1 -70.62959737770295 -1.4487066768272783 9.1358015384714051 0.51503808176128008 0 -0.85716729658548041 0.85716729658548041 0 0.51503808176128008 1 I I 0 1 1 forward I I I I #
face $-1 $105 $106 $37 $-1 $107 forward single #
loop $-1 $108 $109 $48 #
cone-surface $-1 -70.62959737770295 2.628228250156333 9.1358015384714051 0.51503808176128008 0 -0.85716729658548041 0.85716729658548041 0 0.51503808176128008 1 I I 0 1 1 forward I I I I #
face $-1 $110 $111 $38 $-1 $112 reversed single #
loop $-1 $-1 $113 $49 #
plane-surface $-1 -150.53801269957935 26.218922737680721 136.27350599570835 0 1 0 -0.51503808176128008 0 0.85716729658548041 forward_v I I I I #
face $-1 $114 $115 $39 $-1 $116 forward single #
loop $-1 $117 $118 $50 #
cone-surface $-1 -70.62959737770295 28.936879355669788 9.1358015384714051 0.51503808176128008 0 -0.85716729658548041 0.85716729658548041 0 0.51503808176128008 1 I I 0 1 1 forward I I I I #
face $-1 $119 $120 $40 $-1 $121 forward single #
loop $-1 $122 $123 $51 #
cone-surface $-1 -70.62959737770295 33.013814282653399 9.1358015384714051 0.51503808176128008 0 -0.85716729658548041 0.85716729658548041 0 0.51503808176128008 1 I I 0 1 1 forward I I I I #
face $-1 $124 $125 $41 $-1 $126 reversed single #
loop $-1 $-1 $127 $52 #
plane-surface $-1 34.13382077266931 -13.275947104906642 206.13301041779616 0 -1 0 -0.55919291073839883 0 -0.82903756765294845 forward_v I I I I #
face $-1 $128 $129 $42 $-1 $130 forward single #
loop $-1 $131 $132 $53 #
cone-surface $-1 64.435829523640876 -19.558559042837107 5.0376827895492111 -0.55919291073839883 0 -0.82903756765294845 0.82903756765294845 0 -0.55919291073839883 1 I I 0 1 1 forward I I I I #
face $-1 $133 $134 $43 $-1 $135 forward single #
loop $-1 $136 $137 $54 #
cone-surface $-1 64.435829523640876 -15.788991880078825 5.0376827895492111 -0.55919291073839883 0 -0.82903756765294845 0.82903756765294845 0 -0.55919291073839883 1 I I 0 1 1 forward I I I I #
face $-1 $138 $139 $33 $-1 $140 reversed single #
loop $-1 $-1 $141 $55 #
plane-surface $-1 0 0 -12.253728129231224 0 0 1 1 0 0 forward_v I I I I #
coedge $-1 $142 $143 $144 $145 forward $56 $-1 #
face $-1 $146 $147 $34 $-1 $148 reversed single #
loop $-1 $-1 $149 $58 #
plane-surface $-1 0 0 -12.253728129231224 0 0 1 1 0 0 forward_v I I I I #
coedge $-1 $150 $151 $152 $153 forward $59 $-1 #
face $-1 $154 $155 $35 $-1 $156 reversed single #
loop $-1 $-1 $157 $61 #
plane-surface $-1 -74.153874324777988 0.58976078666452736 9.1489540230895443 -0.51503808176128008 0 0.85716729658548041 0.85716729658548041 0 0.51503808176128008 forward_v I I I I #
coedge $-1 $158 $159 $160 $161 reversed $62 $-1 #
face $-1 $-1 $162 $36 $-1 $163 forward single #
loop $-1 $164 $165 $64 #
cone-surface $-1 -69.431407264063566 -1.4487066768272783 7.1416783524896879 0.51503808176128008 0 -0.85716729658548041 0.4285836482927402 0 0.25751904088064004 1 I I -0.70710678118654746 0.70710678118654746 0.5 forward I I I I #
loop $-1 $-1 $166 $47 #
coedge $-1 $104 $104 $167 $168 reversed $65 $-1 #
face $-1 $-1 $169 $37 $-1 $170 forward single #
loop $-1 $171 $172 $67 #
cone-surface $-1 -69.431407264063566 2.628228250156333 7.1416783524896879 0.51503808176128008 0 -0.85716729658548041 0.4285836482927402 0 0.25751904088064004 1 I I -0.70710678118654746 0.70710678118654746 0.5 forward I I I I #
loop $-1 $-1 $173 $48 #
coedge $-1 $109 $109 $174 $175 reversed $68 $-1 #
face $-1 $176 $177 $38 $-1 $178 forward single #
loop $-1 $-1 $179 $70 #
plane-surface $-1 -74.153874324777988 30.975346819161601 9.1489540230895443 -0.51503808176128008 0 0.85716729658548041 0.85716729658548041 0 0.51503808176128008 forward_v I I I I #
coedge $-1 $180 $181 $182 $183 reversed $71 $-1 #
face $-1 $-1 $184 $39 $-1 $185 forward single #
loop $-1 $186 $187 $73 #
cone-surface $-1 -69.431407264063566 28.936879355669788 7.1416783524896879 0.51503808176128008 0 -0.85716729658548041 0.4285836482927402 0 0.25751904088064004 1 I I -0.70710678118654746 0.70710678118654746 0.5 forward I I I I #
loop $-1 $-1 $188 $50 #
coedge $-1 $118 $118 $189 $190 reversed $74 $-1 #
face $-1 $-1 $191 $40 $-1 $192 forward single #
loop $-1 $193 $194 $76 #
cone-surface $-1 -69.431407264063566 33.013814282653399 7.1416783524896879 0.51503808176128008 0 -0.85716729658548041 0.4285836482927402 0 0.25751904088064004 1 I I -0.70710678118654746 0.70710678118654746 0.5 forward I I I I #
loop $-1 $-1 $195 $51 #
coedge $-1 $123 $123 $196 $197 reversed $77 $-1 #
face $-1 $198 $199 $41 $-1 $200 reversed single #
loop $-1 $-1 $201 $79 #
plane-surface $-1 -48.79882087973472 -17.673775461457968 83.18031521328345 0.55919291073839883 0 0.82903756765294845 0.82903756765294845 0 -0.55919291073839883 forward_v I I I I #
coedge $-1 $202 $203 $204 $205 reversed $80 $-1 #
face $-1 $-1 $206 $42 $-1 $207 forward single #
loop $-1 $208 $209 $82 #
cone-surface $-1 63.338042043277426 -19.558559042837107 3.4101459502166129 -0.55919291073839883 0 -0.82903756765294845 0.41451878382647422 0 -0.27959645536919941 1 I I -0.70710678118654746 0.70710678118654746 0.5 forward I I I I #
loop $-1 $-1 $210 $53 #
coedge $-1 $132 $132 $211 $212 reversed $83 $-1 #
face $-1 $-1 $213 $43 $-1 $214 forward single #
loop $-1 $215 $216 $85 #
cone-surface $-1 63.338042043277426 -15.788991880078825 3.4101459502166129 -0.55919291073839883 0 -0.82903756765294845 0.41451878382647422 0 -0.27959645536919941 1 I I -0.70710678118654746 0.70710678118654746 0.5 forward I I I I #
loop $-1 $-1 $217 $54 #
coedge $-1 $137 $137 $218 $219 reversed $86 $-1 #
face $-1 $220 $221 $33 $-1 $222 reversed single #
loop $-1 $-1 $223 $88 #
plane-surface $-1 0 -35.731770900642474 0 0 1 0 0 0 1 forward_v I I I I #
coedge $-1 $224 $225 $226 $227 forward $89 $-1 #
coedge $-1 $228 $91 $229 $230 forward $56 $-1 #
coedge $-1 $91 $228 $231 $232 forward $56 $-1 #
coedge $-1 $233 $234 $91 $145 reversed $235 $-1 #
edge $-1 $236 -35.731770900642474 $237 35.731770900642474 $144 $238 forward 7 unknown #
face $-1 $239 $240 $34 $-1 $241 forward single #
loop $-1 $-1 $242 $92 #
plane-surface $-1 74.153874324777973 0 0 -1 0 0 0 0 1 forward_v I I I I #
coedge $-1 $243 $244 $245 $246 forward $93 $-1 #
coedge $-1 $245 $95 $242 $247 reversed $59 $-1 #
coedge $-1 $95 $245 $248 $249 reversed $59 $-1 #
coedge $-1 $250 $251 $95 $153 reversed $240 $-1 #
edge $-1 $252 -74.153874324777973 $253 74.153874324777973 $152 $254 forward 7 unknown #
face $-1 $255 $256 $35 $-1 $257 forward single #
loop $-1 $-1 $258 $96 #
plane-surface $-1 -150.53801269957935 5.3461848681454072 136.27350599570835 0 -1 0 0.51503808176128008 0 -0.85716729658548041 forward_v I I I I #
coedge $-1 $259 $260 $261 $262 reversed $97 $-1 #
coedge $-1 $159 $99 $263 $264 reversed $62 $-1 #
coedge $-1 $99 $158 $259 $265 reversed $62 $-1 #
coedge $-1 $261 $266 $99 $161 forward $256 $-1 #
edge $-1 $267 1.1151320250117038 $268 6.2823437736442571 $160 $269 forward 7 unknown #
loop $-1 $-1 $167 $100 #
plane-surface $-1 -74.153874324777988 0.58976078666452736 9.1489540230895443 -0.51503808176128008 0 0.85716729658548041 0.85716729658548041 0 0.51503808176128008 forward_v I I I I #
loop $-1 $-1 $270 $64 #
coedge $-1 $165 $165 $166 $271 reversed $101 $-1 #
coedge $-1 $166 $166 $165 $271 forward $103 $-1 #
coedge $-1 $167 $167 $104 $168 forward $162 $-1 #
edge $-1 $272 0 $272 6.2831853071796004 $167 $273 forward 7 unknown #
loop $-1 $-1 $174 $105 #
plane-surface $-1 -74.153874324777988 0.58976078666452736 9.1489540230895443 -0.51503808176128008 0 0.85716729658548041 0.85716729658548041 0 0.51503808176128008 forward_v I I I I #
loop $-1 $-1 $274 $67 #
coedge $-1 $172 $172 $173 $275 reversed $106 $-1 #
coedge $-1 $173 $173 $172 $275 forward $108 $-1 #
coedge $-1 $174 $174 $109 $175 forward $169 $-1 #
edge $-1 $276 0 $276 6.2831853071796004 $174 $277 forward 7 unknown #
face $-1 $278 $279 $38 $-1 $280 reversed single #
loop $-1 $-1 $182 $110 #
plane-surface $-1 0 0 12.253728129231224 0 0 1 1 0 0 forward_v I I I I #
coedge $-1 $281 $282 $283 $284 reversed $111 $-1 #
coedge $-1 $181 $113 $285 $286 reversed $71 $-1 #
coedge $-1 $113 $180 $281 $287 reversed $71 $-1 #
coedge $-1 $283 $288 $113 $183 forward $177 $-1 #
edge $-1 $289 1.1151320250117038 $290 6.2823437736442571 $182 $291 forward 7 unknown #
loop $-1 $-1 $189 $114 #
plane-surface $-1 -74.153874324777988 30.975346819161601 9.1489540230895443 -0.51503808176128008 0 0.85716729658548041 0.85716729658548041 0 0.51503808176128008 forward_v I I I I #
loop $-1 $-1 $292 $73 #
coedge $-1 $187 $187 $188 $293 reversed $115 $-1 #
coedge $-1 $188 $188 $187 $293 forward $117 $-1 #
coedge $-1 $189 $189 $118 $190 forward $184 $-1 #
edge $-1 $294 0 $294 6.2831853071796004 $189 $295 forward 7 unknown #
loop $-1 $-1 $196 $119 #
plane-surface $-1 -74.153874324777988 30.975346819161601 9.1489540230895443 -0.51503808176128008 0 0.85716729658548041 0.85716729658548041 0 0.51503808176128008 forward_v I I I I #
loop $-1 $-1 $296 $76 #
coedge $-1 $194 $194 $195 $297 reversed $120 $-1 #
coedge $-1 $195 $195 $194 $297 forward $122 $-1 #
coedge $-1 $196 $196 $123 $197 forward $191 $-1 #
edge $-1 $298 0 $298 6.2831853071796004 $196 $299 forward 7 unknown #
face $-1 $300 $301 $41 $-1 $302 forward single #
loop $-1 $-1 $303 $124 #
plane-surface $-1 34.13382077266931 -22.071603818009294 206.13301041779616 0 1 0 0.55919291073839883 0 0.82903756765294845 forward_v I I I I #
coedge $-1 $304 $305 $306 $307 reversed $125 $-1 #
coedge $-1 $203 $127 $308 $309 reversed $80 $-1 #
coedge $-1 $127 $202 $304 $310 reversed $80 $-1 #
coedge $-1 $306 $311 $127 $205 forward $301 $-1 #
edge $-1 $312 -57.086963938443319 $313 -39.287256386157551 $204 $314 forward 7 unknown #
loop $-1 $-1 $211 $128 #
plane-surface $-1 -48.79882087973472 -17.673775461457968 83.18031521328345 0.55919291073839883 0 0.82903756765294845 0.82903756765294845 0 -0.55919291073839883 forward_v I I I I #
loop $-1 $-1 $315 $82 #
coedge $-1 $209 $209 $210 $316 reversed $129 $-1 #
coedge $-1 $210 $210 $209 $316 forward $131 $-1 #
coedge $-1 $211 $211 $132 $212 forward $206 $-1 #
edge $-1 $317 0 $317 6.2831853071796004 $211 $318 forward 7 unknown #
loop $-1 $-1 $218 $133 #
plane-surface $-1 -48.79882087973472 -17.673775461457968 83.18031521328345 0.55919291073839883 0 0.82903756765294845 0.82903756765294845 0 -0.55919291073839883 forward_v I I I I #
loop $-1 $-1 $319 $85 #
coedge $-1 $216 $216 $217 $320 reversed $134 $-1 #
coedge $-1 $217 $217 $216 $320 forward $136 $-1 #
coedge $-1 $218 $218 $137 $219 forward $213 $-1 #
edge $-1 $321 0 $321 6.2831853071796004 $218 $322 forward 7 unknown #
face $-1 $323 $324 $33 $-1 $325 reversed single #
loop $-1 $-1 $326 $138 #
plane-surface $-1 -74.153874324777973 0 0 1 0 0 0 0 -1 forward_v I I I I #
coedge $-1 $231 $327 $233 $328 reversed $139 $-1 #
coedge $-1 $329 $141 $327 $330 forward $89 $-1 #
coedge $-1 $141 $329 $331 $332 forward $89 $-1 #
coedge $-1 $234 $233 $141 $227 reversed $235 $-1 #
edge $-1 $333 -35.731770900642474 $334 35.731770900642474 $226 $335 forward 7 unknown #
coedge $-1 $143 $142 $336 $337 forward $56 $-1 #
coedge $-1 $338 $339 $142 $230 reversed $324 $-1 #
edge $-1 $237 -74.153874324777973 $340 74.153874324777973 $229 $341 forward 7 unknown #
coedge $-1 $342 $223 $143 $232 reversed $139 $-1 #
edge $-1 $343 -74.153874324777973 $236 74.153874324777973 $231 $344 forward 7 unknown #
coedge $-1 $226 $144 $223 $328 forward $235 $-1 #
coedge $-1 $144 $226 $338 $345 reversed $235 $-1 #
loop $-1 $-1 $233 $323 #
vertex $-1 $145 $346 #
vertex $-1 $145 $347 #
straight-curve $-1 74.153874324777973 0 12.253728129231224 0 1 0 I I #
face $-1 $348 $349 $34 $-1 $350 reversed single #
loop $-1 $-1 $251 $146 #
plane-surface $-1 0 -41.077955768787881 -9.2537281292312237 0 0 1 1 0 0 forward_v I I I I #
coedge $-1 $351 $352 $150 $247 forward $147 $-1 #
coedge $-1 $353 $149 $352 $354 forward $93 $-1 #
coedge $-1 $149 $353 $355 $356 forward $93 $-1 #
coedge $-1 $151 $150 $149 $246 reversed $59 $-1 #
edge $-1 $357 -74.153874324777973 $358 74.153874324777973 $149 $359 forward 7 unknown #
edge $-1 $358 -12.253728129231224 $253 -9.2537281292312237 $242 $360 forward 7 unknown #
coedge $-1 $355 $361 $151 $249 forward $362 $-1 #
edge $-1 $252 9.2537281292312237 $357 12.253728129231224 $248 $363 forward 7 unknown #
coedge $-1 $364 $152 $361 $365 forward $240 $-1 #
coedge $-1 $152 $364 $351 $366 forward $240 $-1 #
vertex $-1 $249 $367 #
vertex $-1 $366 $368 #
straight-curve $-1 0 -35.731770900642474 -9.2537281292312237 1 0 0 I I #
face $-1 $-1 $369 $35 $-1 $370 reversed single #
loop $-1 $-1 $160 $154 #
plane-surface $-1 0 0 12.253728129231224 0 0 1 1 0 0 forward_v I I I I #
coedge $-1 $371 $372 $373 $374 reversed $155 $-1 #
coedge $-1 $375 $157 $159 $265 forward $97 $-1 #
coedge $-1 $157 $375 $371 $376 forward $97 $-1 #
coedge $-1 $373 $160 $157 $262 forward $256 $-1 #
edge $-1 $268 -4.4615436881486161 $377 5.0513044748131435 $261 $378 forward 7 unknown #
coedge $-1 $379 $380 $158 $264 forward $369 $-1 #
edge $-1 $381 -58.987798974764623 $267 -55.883024868622954 $263 $382 forward 7 unknown #
edge $-1 $268 -6.0282418253894141 $381 -1.6755537013839907e-014 $159 $383 forward 7 unknown #
coedge $-1 $160 $373 $379 $384 forward $256 $-1 #
vertex $-1 $264 $385 #
vertex $-1 $161 $386 #
straight-curve $-1 -75.269006349789677 -4.1666632948163524 12.25372812923122 1 0 0 I I #
coedge $-1 $270 $270 $-1 $387 reversed $164 $-1 #
edge $-1 $388 0 $388 6.2831853071796004 $165 $389 forward 7 unknown #
vertex $-1 $168 $390 #
ellipse-curve $-1 -71.570268450461697 -1.4487066768272783 10.701341076160391 -0.51503808176128008 0 0.85716729658548041 0.85716729658548041 0 0.51503808176128008 1 I I #
coedge $-1 $274 $274 $-1 $391 reversed $171 $-1 #
edge $-1 $392 0 $392 6.2831853071796004 $172 $393 forward 7 unknown #
vertex $-1 $175 $394 #
ellipse-curve $-1 -71.570268450461697 2.628228250156333 10.701341076160391 -0.51503808176128008 0 0.85716729658548041 0.85716729658548041 0 0.51503808176128008 1 I I #
face $-1 $-1 $395 $38 $-1 $396 reversed single #
loop $-1 $-1 $397 $176 #
plane-surface $-1 0 35.731770900642474 0 0 -1 0 0 0 -1 forward_v I I I I #
coedge $-1 $398 $179 $181 $287 forward $111 $-1 #
coedge $-1 $179 $398 $397 $399 reversed $111 $-1 #
coedge $-1 $400 $182 $179 $284 forward $177 $-1 #
edge $-1 $290 10.731249328099921 $401 20.24409749106168 $283 $402 forward 7 unknown #
coedge $-1 $403 $404 $180 $286 forward $395 $-1 #
edge $-1 $405 -58.987798974764623 $289 -55.883024868622954 $285 $406 forward 7 unknown #
edge $-1 $290 -6.0282418253894141 $405 -1.6755537013839907e-014 $181 $407 forward 7 unknown #
coedge $-1 $182 $400 $403 $408 forward $177 $-1 #
vertex $-1 $286 $409 #
vertex $-1 $183 $410 #
straight-curve $-1 -75.269006349789677 26.218922737680721 12.25372812923122 1 0 0 I I #
coedge $-1 $292 $292 $-1 $411 reversed $186 $-1 #
edge $-1 $412 0 $412 6.2831853071796004 $187 $413 forward 7 unknown #
vertex $-1 $190 $414 #
ellipse-curve $-1 -71.570268450461697 28.936879355669788 10.701341076160391 -0.51503808176128008 0 0.85716729658548041 0.85716729658548041 0 0.51503808176128008 1 I I #
coedge $-1 $296 $296 $-1 $415 reversed $193 $-1 #
edge $-1 $416 0 $416 6.2831853071796004 $194 $417 forward 7 unknown #
vertex $-1 $197 $418 #
ellipse-curve $-1 -71.570268450461697 33.013814282653399 10.701341076160391 -0.51503808176128008 0 0.85716729658548041 0.85716729658548041 0 0.51503808176128008 1 I I #
face $-1 $-1 $419 $41 $-1 $420 reversed single #
loop $-1 $-1 $204 $198 #
plane-surface $-1 0 0 12.253728129231224 0 0 1 1 0 0 forward_v I I I I #
coedge $-1 $421 $422 $423 $424 reversed $199 $-1 #
coedge $-1 $425 $201 $203 $310 forward $125 $-1 #
coedge $-1 $201 $425 $421 $426 forward $125 $-1 #
coedge $-1 $423 $204 $201 $307 forward $301 $-1 #
edge $-1 $313 4.4390593741776581 $427 13.23471608728031 $306 $428 forward 7 unknown #
coedge $-1 $429 $430 $202 $309 forward $419 $-1 #
edge $-1 $431 -102.81883164801864 $312 -90.812777079666859 $308 $432 forward 7 unknown #
edge $-1 $313 126.83742179491442 $431 148.30774864955592 $203 $433 forward 7 unknown #
coedge $-1 $204 $423 $429 $434 forward $301 $-1 #
vertex $-1 $309 $435 #
vertex $-1 $205 $436 #
straight-curve $-1 17.066910386334655 -13.275947104906642 12.25372812923122 -1 0 0 I I #
coedge $-1 $315 $315 $-1 $437 reversed $208 $-1 #
edge $-1 $438 0 $438 6.2831853071796004 $209 $439 forward 7 unknown #
vertex $-1 $212 $440 #
ellipse-curve $-1 65.254020548635111 -19.558559042837107 6.2507008450553174 0.55919291073839883 0 0.82903756765294845 0.82903756765294845 0 -0.55919291073839883 1 I I #
coedge $-1 $319 $319 $-1 $441 reversed $215 $-1 #
edge $-1 $442 0 $442 6.2831853071796004 $216 $443 forward 7 unknown #
vertex $-1 $219 $444 #
ellipse-curve $-1 65.254020548635111 -15.788991880078825 6.2507008450553174 0.55919291073839883 0 0.82903756765294845 0.82903756765294845 0 -0.55919291073839883 1 I I #
face $-1 $-1 $235 $33 $-1 $445 reversed single #
loop $-1 $-1 $338 $220 #
plane-surface $-1 0 35.731770900642474 0 0 -1 0 0 0 -1 forward_v I I I I #
coedge $-1 $446 $336 $339 $447 forward $221 $-1 #
coedge $-1 $223 $342 $224 $330 reversed $139 $-1 #
edge $-1 $236 -12.253728129231224 $334 12.253728129231224 $233 $448 forward 7 unknown #
coedge $-1 $225 $224 $446 $449 forward $89 $-1 #
edge $-1 $334 -74.153874324777973 $450 74.153874324777973 $327 $451 forward 7 unknown #
coedge $-1 $339 $338 $225 $332 reversed $324 $-1 #
edge $-1 $452 -74.153874324777973 $333 74.153874324777973 $331 $453 forward 7 unknown #
vertex $-1 $227 $454 #
vertex $-1 $328 $455 #
straight-curve $-1 74.153874324777973 0 -12.253728129231224 0 -1 0 I I #
coedge $-1 $326 $456 $228 $337 reversed $221 $-1 #
edge $-1 $340 -35.731770900642474 $343 35.731770900642474 $336 $457 forward 7 unknown #
coedge $-1 $331 $229 $234 $345 forward $324 $-1 #
coedge $-1 $229 $331 $326 $447 reversed $324 $-1 #
vertex $-1 $230 $458 #
straight-curve $-1 0 35.731770900642474 12.253728129231224 -1 0 0 I I #
coedge $-1 $327 $231 $456 $459 forward $139 $-1 #
vertex $-1 $337 $460 #
straight-curve $-1 0 -35.731770900642474 12.253728129231224 1 0 0 I I #
edge $-1 $237 -12.253728129231224 $333 12.253728129231224 $234 $461 forward 7 unknown #
point $-1 74.153874324777973 -35.731770900642474 12.253728129231224 #
point $-1 74.153874324777973 35.731770900642474 12.253728129231224 #
face $-1 $-1 $362 $34 $-1 $462 reversed single #
loop $-1 $-1 $463 $239 #
plane-surface $-1 0 -46.424140636933288 -10.753728129231224 0 1 0 0 0 1 forward_v I I I I #
coedge $-1 $464 $242 $251 $366 reversed $147 $-1 #
coedge $-1 $242 $464 $243 $354 reversed $147 $-1 #
coedge $-1 $244 $243 $465 $466 forward $93 $-1 #
edge $-1 $358 35.731770900642474 $467 46.424140636933288 $352 $468 forward 7 unknown #
coedge $-1 $469 $248 $244 $356 reversed $362 $-1 #
edge $-1 $470 -46.424140636933288 $357 -35.731770900642474 $355 $471 forward 7 unknown #
vertex $-1 $249 $472 #
vertex $-1 $354 $473 #
straight-curve $-1 0 -35.731770900642474 -12.253728129231224 1 0 0 I I #
straight-curve $-1 74.153874324777973 -35.731770900642474 0 0 0 1 I I #
coedge $-1 $248 $469 $250 $365 reversed $362 $-1 #
loop $-1 $-1 $248 $348 #
straight-curve $-1 -74.153874324777973 -35.731770900642474 0 0 0 -1 I I #
coedge $-1 $251 $250 $474 $475 forward $240 $-1 #
edge $-1 $252 -5.3461848681454072 $476 5.3461848681454072 $361 $477 forward 7 unknown #
edge $-1 $478 -5.3461848681454072 $253 5.3461848681454072 $351 $479 forward 7 unknown #
point $-1 -74.153874324777973 -35.731770900642474 -9.2537281292312237 #
point $-1 74.153874324777973 -35.731770900642474 -9.2537281292312237 #
loop $-1 $-1 $263 $255 #
plane-surface $-1 -74.153874324777973 0 0 1 0 0 0 0 -1 forward_v I I I I #
coedge $-1 $372 $258 $260 $376 reversed $155 $-1 #
coedge $-1 $258 $371 $480 $481 reversed $155 $-1 #
coedge $-1 $266 $261 $258 $374 forward $256 $-1 #
edge $-1 $377 -6.2823437736442571 $482 -1.1151320250117038 $373 $483 forward 7 unknown #
coedge $-1 $260 $259 $380 $484 reversed $97 $-1 #
edge $-1 $485 1.6755537013839907e-014 $377 6.0282418253894141 $371 $486 forward 7 unknown #
vertex $-1 $262 $487 #
straight-curve $-1 -68.98666257614542 0.29488039333226368 12.253728129231224 0 1 0 I I #
coedge $-1 $480 $263 $266 $384 reversed $369 $-1 #
coedge $-1 $263 $480 $375 $484 forward $369 $-1 #
vertex $-1 $264 $488 #
straight-curve $-1 -74.153874324777973 -4.1666632948163524 68.136752997854174 0 0 1 I I #
straight-curve $-1 -74.153874324777988 -4.1666632948163524 9.1489540230895443 -0.85716729658548041 0 -0.51503808176128008 I I #
edge $-1 $482 -5.3461848681454072 $267 4.1666632948163524 $379 $489 forward 7 unknown #
point $-1 -74.153874324777973 -4.1666632948163524 12.253728129231224 #
point $-1 -68.98666257614542 -4.1666632948163524 12.253728129231224 #
edge $-1 $490 1 $490 0 $270 $-1 forward 7 unknown #
vertex $-1 $271 $491 #
ellipse-curve $-1 -69.688926304944204 -1.4487066768272783 7.5702620007824279 -0.51503808176128008 0 0.85716729658548041 0.85716729658548041 0 0.51503808176128008 1 I I #
point $-1 -70.713101153876195 -1.4487066768272783 11.21637915792166 #
edge $-1 $492 1 $492 0 $274 $-1 forward 7 unknown #
vertex $-1 $275 $493 #
ellipse-curve $-1 -69.688926304944204 2.628228250156333 7.5702620007824279 -0.51503808176128008 0 0.85716729658548041 0.85716729658548041 0 0.51503808176128008 1 I I #
point $-1 -70.713101153876195 2.628228250156333 11.21637915792166 #
loop $-1 $-1 $285 $278 #
plane-surface $-1 -74.153874324777973 0 0 1 0 0 0 0 -1 forward_v I I I I #
coedge $-1 $494 $495 $282 $399 forward $279 $-1 #
coedge $-1 $282 $281 $404 $496 reversed $111 $-1 #
edge $-1 $401 23.396866302678205 $497 29.425108128067599 $397 $498 forward 7 unknown #
coedge $-1 $288 $283 $495 $499 forward $177 $-1 #
vertex $-1 $499 $500 #
straight-curve $-1 -68.98666257614542 15.4876734095808 12.253728129231224 0 1 0 I I #
coedge $-1 $501 $285 $288 $408 reversed $395 $-1 #
coedge $-1 $285 $501 $398 $496 forward $395 $-1 #
vertex $-1 $286 $502 #
straight-curve $-1 -74.153874324777973 26.218922737680721 68.136752997854174 0 0 1 I I #
straight-curve $-1 -74.153874324777988 26.218922737680721 9.1489540230895443 -0.85716729658548041 0 -0.51503808176128008 I I #
edge $-1 $503 -35.731770900642474 $289 -26.218922737680721 $403 $504 forward 7 unknown #
point $-1 -74.153874324777973 26.218922737680721 12.253728129231224 #
point $-1 -68.98666257614542 26.218922737680721 12.253728129231224 #
edge $-1 $505 1 $505 0 $292 $-1 forward 7 unknown #
vertex $-1 $293 $506 #
ellipse-curve $-1 -69.688926304944204 28.936879355669788 7.5702620007824279 -0.51503808176128008 0 0.85716729658548041 0.85716729658548041 0 0.51503808176128008 1 I I #
point $-1 -70.713101153876195 28.936879355669788 11.21637915792166 #
edge $-1 $507 1 $507 0 $296 $-1 forward 7 unknown #
vertex $-1 $297 $508 #
ellipse-curve $-1 -69.688926304944204 33.013814282653399 7.5702620007824279 -0.51503808176128008 0 0.85716729658548041 0.85716729658548041 0 0.51503808176128008 1 I I #
point $-1 -70.713101153876195 33.013814282653399 11.21637915792166 #
loop $-1 $-1 $308 $300 #
plane-surface $-1 74.153874324777973 0 0 -1 0 0 0 0 1 forward_v I I I I #
coedge $-1 $422 $303 $305 $426 reversed $199 $-1 #
coedge $-1 $303 $421 $509 $510 reversed $199 $-1 #
coedge $-1 $311 $306 $303 $424 forward $301 $-1 #
edge $-1 $427 39.287256386157551 $511 57.086963938443319 $423 $512 forward 7 unknown #
coedge $-1 $305 $304 $430 $513 reversed $125 $-1 #
edge $-1 $514 -148.30774864955592 $427 -126.83742179491442 $421 $515 forward 7 unknown #
vertex $-1 $307 $516 #
straight-curve $-1 56.354166772492192 -8.8368877307289839 12.253728129231227 0 -1 0 I I #
coedge $-1 $509 $308 $311 $434 reversed $419 $-1 #
coedge $-1 $308 $509 $425 $513 forward $419 $-1 #
vertex $-1 $309 $517 #
straight-curve $-1 74.153874324777973 -13.275947104906642 103.06650520889808 0 0 1 I I #
straight-curve $-1 -48.79882087973472 -13.275947104906642 83.18031521328345 0.82903756765294845 0 -0.55919291073839883 I I #
edge $-1 $511 -22.071603818009294 $312 -13.275947104906642 $429 $518 forward 7 unknown #
point $-1 74.153874324777973 -13.275947104906642 12.253728129231224 #
point $-1 56.354166772492206 -13.275947104906642 12.25372812923122 #
edge $-1 $519 1 $519 0 $315 $-1 forward 7 unknown #
vertex $-1 $316 $520 #
ellipse-curve $-1 63.617638498646627 -19.558559042837107 3.824664734043087 0.55919291073839883 0 0.82903756765294845 0.82903756765294845 0 -0.55919291073839883 1 I I #
point $-1 66.083058116288058 -19.558559042837107 5.6915079343169355 #
edge $-1 $521 1 $521 0 $319 $-1 forward 7 unknown #
vertex $-1 $320 $522 #
ellipse-curve $-1 63.617638498646627 -15.788991880078825 3.824664734043087 0.55919291073839883 0 0.82903756765294845 0.82903756765294845 0 -0.55919291073839883 1 I I #
point $-1 66.083058116288058 -15.788991880078825 5.6915079343169355 #
plane-surface $-1 74.153874324777973 0 0 -1 0 0 0 0 1 forward_v I I I I #
coedge $-1 $456 $326 $329 $449 reversed $221 $-1 #
edge $-1 $340 -12.253728129231224 $452 12.253728129231224 $339 $523 forward 7 unknown #
straight-curve $-1 74.153874324777973 -35.731770900642474 0 0 0 -1 I I #
edge $-1 $450 -35.731770900642474 $452 35.731770900642474 $446 $524 forward 7 unknown #
vertex $-1 $449 $525 #
straight-curve $-1 0 -35.731770900642474 -12.253728129231224 -1 0 0 I I #
vertex $-1 $332 $526 #
straight-curve $-1 0 35.731770900642474 -12.253728129231224 1 0 0 I I #
point $-1 74.153874324777973 35.731770900642474 -12.253728129231224 #
point $-1 74.153874324777973 -35.731770900642474 -12.253728129231224 #
coedge $-1 $336 $446 $342 $459 reversed $221 $-1 #
straight-curve $-1 -74.153874324777973 0 12.253728129231224 0 -1 0 I I #
point $-1 -74.153874324777973 35.731770900642474 12.253728129231224 #
edge $-1 $343 -12.253728129231224 $450 12.253728129231224 $456 $527 forward 7 unknown #
point $-1 -74.153874324777973 -35.731770900642474 12.253728129231224 #
straight-curve $-1 74.153874324777973 35.731770900642474 0 0 0 -1 I I #
plane-surface $-1 -74.153874324777973 0 0 1 0 0 0 0 -1 forward_v I I I I #
coedge $-1 $465 $474 $469 $528 forward $349 $-1 #
coedge $-1 $352 $351 $529 $530 forward $147 $-1 #
coedge $-1 $529 $463 $353 $466 reversed $349 $-1 #
edge $-1 $467 -74.153874324777973 $470 74.153874324777973 $465 $531 forward 7 unknown #
vertex $-1 $530 $532 #
straight-curve $-1 74.153874324777973 0 -12.253728129231224 0 -1 0 I I #
coedge $-1 $361 $355 $463 $528 reversed $362 $-1 #
vertex $-1 $356 $533 #
straight-curve $-1 -74.153874324777973 0 -12.253728129231224 0 1 0 I I #
point $-1 -74.153874324777973 -35.731770900642474 -12.253728129231224 #
point $-1 74.153874324777973 -35.731770900642474 -12.253728129231224 #
coedge $-1 $463 $529 $364 $475 reversed $349 $-1 #
edge $-1 $476 -74.153874324777973 $478 74.153874324777973 $474 $534 forward 7 unknown #
vertex $-1 $365 $535 #
straight-curve $-1 -74.153874324777973 -41.077955768787881 -9.2537281292312237 0 -1 0 I I #
vertex $-1 $366 $536 #
straight-curve $-1 74.153874324777973 -41.077955768787881 -9.2537281292312237 0 1 0 I I #
coedge $-1 $380 $379 $372 $481 forward $369 $-1 #
edge $-1 $482 55.883024868622954 $485 58.987798974764623 $480 $537 forward 7 unknown #
vertex $-1 $384 $538 #
straight-curve $-1 -75.269006349789677 5.3461848681454072 12.25372812923122 -1 0 0 I I #
edge $-1 $485 -5.0513044748131435 $381 4.4615436881486161 $380 $539 forward 7 unknown #
vertex $-1 $484 $540 #
straight-curve $-1 -74.153874324777988 5.3461848681454072 9.1489540230895443 0.85716729658548041 0 0.51503808176128008 I I #
point $-1 -68.98666257614542 5.3461848681454072 12.253728129231224 #
point $-1 -74.153874324777973 -4.1666632948163524 9.1489540230895532 #
straight-curve $-1 -74.153874324777973 0 12.253728129231224 0 -1 0 I I #
vertex $-1 $387 $541 #
point $-1 -68.831759008358731 -1.4487066768272783 8.0853000825437089 #
vertex $-1 $391 $542 #
point $-1 -68.831759008358731 2.628228250156333 8.0853000825437089 #
coedge $-1 $495 $397 $501 $543 reversed $279 $-1 #
coedge $-1 $397 $494 $400 $499 reversed $279 $-1 #
edge $-1 $497 -20.24409749106168 $405 -10.731249328099921 $404 $544 forward 7 unknown #
vertex $-1 $399 $545 #
straight-curve $-1 -48.93163393890682 35.731770900642474 24.304005268987741 -0.85716729658548041 0 -0.51503808176128008 I I #
edge $-1 $401 68.98666257614542 $503 74.153874324777973 $495 $546 forward 7 unknown #
point $-1 -68.98666257614542 35.731770900642481 12.253728129231224 #
coedge $-1 $404 $403 $494 $543 forward $395 $-1 #
point $-1 -74.153874324777973 26.218922737680721 9.1489540230895532 #
vertex $-1 $499 $547 #
straight-curve $-1 -74.153874324777973 0 12.253728129231224 0 -1 0 I I #
vertex $-1 $411 $548 #
point $-1 -68.831759008358731 28.936879355669788 8.0853000825437089 #
vertex $-1 $415 $549 #
point $-1 -68.831759008358731 33.013814282653399 8.0853000825437089 #
coedge $-1 $430 $429 $422 $510 forward $419 $-1 #
edge $-1 $511 90.812777079666859 $514 102.81883164801864 $509 $550 forward 7 unknown #
vertex $-1 $434 $551 #
straight-curve $-1 17.066910386334655 -22.071603818009294 12.25372812923122 1 0 0 I I #
edge $-1 $514 -13.23471608728031 $431 -4.4390593741776581 $430 $552 forward 7 unknown #
vertex $-1 $513 $553 #
straight-curve $-1 -48.79882087973472 -22.071603818009294 83.18031521328345 -0.82903756765294845 0 0.55919291073839883 I I #
point $-1 56.354166772492206 -22.071603818009294 12.25372812923122 #
point $-1 74.153874324777973 -13.275947104906642 0.24767356087943426 #
straight-curve $-1 74.153874324777973 0 12.253728129231224 0 1 0 I I #
vertex $-1 $437 $554 #
point $-1 64.446676066299574 -19.558559042837107 3.2654718233046882 #
vertex $-1 $441 $555 #
point $-1 64.446676066299574 -15.788991880078825 3.2654718233046882 #
straight-curve $-1 -74.153874324777973 35.731770900642474 0 0 0 -1 I I #
straight-curve $-1 -74.153874324777973 0 -12.253728129231224 0 1 0 I I #
point $-1 -74.153874324777973 -35.731770900642474 -12.253728129231224 #
point $-1 -74.153874324777973 35.731770900642474 -12.253728129231224 #
straight-curve $-1 -74.153874324777973 -35.731770900642474 0 0 0 -1 I I #
edge $-1 $476 -1.5 $470 1.5 $469 $556 forward 7 unknown #
coedge $-1 $474 $465 $464 $530 reversed $349 $-1 #
edge $-1 $478 -1.5 $467 1.5 $464 $557 forward 7 unknown #
straight-curve $-1 0 -46.424140636933288 -12.253728129231224 -1 0 0 I I #
point $-1 74.153874324777973 -46.424140636933288 -12.253728129231224 #
point $-1 -74.153874324777973 -46.424140636933288 -12.253728129231224 #
straight-curve $-1 0 -46.424140636933288 -9.2537281292312237 1 0 0 I I #
point $-1 -74.153874324777973 -46.424140636933288 -9.2537281292312237 #
point $-1 74.153874324777973 -46.424140636933288 -9.2537281292312237 #
straight-curve $-1 -74.153874324777973 5.3461848681454072 68.136752997854174 0 0 -1 I I #
point $-1 -74.153874324777973 5.3461848681454072 12.253728129231224 #
straight-curve $-1 -74.153874324777973 0.29488039333226368 9.1489540230895479 0 -1 0 I I #
point $-1 -74.153874324777973 5.3461848681454072 9.1489540230895532 #
point $-1 -69.173888223182928 -1.4487066768272783 6.7130947041969478 #
point $-1 -69.173888223182928 2.628228250156333 6.7130947041969478 #
edge $-1 $503 -12.253728129231224 $497 -9.1489540230895532 $494 $558 forward 7 unknown #
straight-curve $-1 -74.153874324777973 15.4876734095808 9.1489540230895479 0 -1 0 I I #
point $-1 -74.153874324777973 35.731770900642481 9.1489540230895532 #
straight-curve $-1 0 35.731770900642474 12.253728129231224 -1 0 0 I I #
point $-1 -74.153874324777973 35.731770900642474 12.253728129231224 #
point $-1 -69.173888223182928 28.936879355669788 6.7130947041969478 #
point $-1 -69.173888223182928 33.013814282653399 6.7130947041969478 #
straight-curve $-1 74.153874324777973 -22.071603818009294 103.06650520889808 0 0 -1 I I #
point $-1 74.153874324777973 -22.071603818009294 12.253728129231224 #
straight-curve $-1 74.153874324777973 -8.8368877307289839 0.24767356087942716 0 1 0 I I #
point $-1 74.153874324777973 -22.071603818009294 0.24767356087943426 #
point $-1 63.058445587908224 -19.558559042837107 2.9956271663901388 #
point $-1 63.058445587908224 -15.788991880078825 2.9956271663901388 #
straight-curve $-1 -74.153874324777973 -46.424140636933288 -10.753728129231224 0 0 -1 I I #
straight-curve $-1 74.153874324777973 -46.424140636933288 -10.753728129231224 0 0 -1 I I #
straight-curve $-1 -74.153874324777973 35.731770900642474 0 0 0 -1 I I #
End-of-ACIS-data 