500 0 17 0           
7 Unknown 11 ACIS 5.0 NT 24 Fri Mar 26 03:35:29 1999 
-1 9.9999999999999995e-007 1e-010 
body $-1 $17 $-1 $18 #
body $-1 $19 $-1 $20 #
body $-1 $21 $-1 $22 #
body $-1 $23 $-1 $24 #
body $-1 $25 $-1 $26 #
body $-1 $27 $-1 $28 #
body $-1 $29 $-1 $30 #
body $-1 $31 $-1 $32 #
body $-1 $33 $-1 $34 #
body $-1 $35 $-1 $36 #
body $-1 $37 $-1 $38 #
body $-1 $39 $-1 $40 #
body $-1 $41 $-1 $42 #
body $-1 $43 $-1 $44 #
body $-1 $45 $-1 $46 #
body $-1 $47 $-1 $48 #
body $-1 $49 $-1 $50 #
lump $-1 $-1 $51 $0 #
transform $-1 1 0 0 0 1 0 0 0 1 69.526047547837763 29.150355510924392 7.3788199625922468 1 rotate no_reflect no_shear #
lump $-1 $-1 $52 $1 #
transform $-1 1 0 0 0 1 0 0 0 1 69.526047547837763 29.150355510924392 7.3788199625922468 1 rotate no_reflect no_shear #
lump $-1 $-1 $53 $2 #
transform $-1 1 0 0 0 1 0 0 0 1 69.526047547837763 29.150355510924392 7.3788199625922468 1 rotate no_reflect no_shear #
lump $-1 $-1 $54 $3 #
transform $-1 1 0 0 0 1 0 0 0 1 69.526047547837763 29.150355510924392 7.3788199625922468 1 rotate no_reflect no_shear #
lump $-1 $-1 $55 $4 #
transform $-1 1 0 0 0 1 0 0 0 1 69.526047547837763 29.150355510924392 7.3788199625922468 1 rotate no_reflect no_shear #
lump $-1 $-1 $56 $5 #
transform $-1 1 0 0 0 1 0 0 0 1 69.526047547837763 29.150355510924392 7.3788199625922468 1 rotate no_reflect no_shear #
lump $-1 $-1 $57 $6 #
transform $-1 1 0 0 0 1 0 0 0 1 69.526047547837763 29.150355510924392 7.3788199625922468 1 rotate no_reflect no_shear #
lump $-1 $-1 $58 $7 #
transform $-1 1 0 0 0 1 0 0 0 1 69.526047547837763 29.150355510924392 7.3788199625922468 1 rotate no_reflect no_shear #
lump $-1 $-1 $59 $8 #
transform $-1 1 0 0 0 1 0 0 0 1 69.526047547837763 29.150355510924392 7.3788199625922468 1 rotate no_reflect no_shear #
lump $-1 $-1 $60 $9 #
transform $-1 1 0 0 0 1 0 0 0 1 69.526047547837763 29.150355510924392 7.3788199625922468 1 rotate no_reflect no_shear #
lump $-1 $-1 $61 $10 #
transform $-1 1 0 0 0 1 0 0 0 1 69.526047547837763 29.150355510924392 7.3788199625922468 1 rotate no_reflect no_shear #
lump $-1 $-1 $62 $11 #
transform $-1 1 0 0 0 1 0 0 0 1 69.526047547837763 29.150355510924392 7.3788199625922468 1 rotate no_reflect no_shear #
lump $-1 $-1 $63 $12 #
transform $-1 1 0 0 0 1 0 0 0 1 69.526047547837763 29.150355510924392 7.3788199625922468 1 rotate no_reflect no_shear #
lump $-1 $-1 $64 $13 #
transform $-1 1 0 0 0 1 0 0 0 1 69.526047547837763 29.150355510924392 7.3788199625922468 1 rotate no_reflect no_shear #
lump $-1 $-1 $65 $14 #
transform $-1 1 0 0 0 1 0 0 0 1 69.526047547837763 29.150355510924392 7.3788199625922468 1 rotate no_reflect no_shear #
lump $-1 $-1 $66 $15 #
transform $-1 1 0 0 0 1 0 0 0 1 69.526047547837763 29.150355510924392 7.3788199625922468 1 rotate no_reflect no_shear #
lump $-1 $-1 $67 $16 #
transform $-1 1 0 0 0 1 0 0 0 1 69.526047547837763 29.150355510924392 7.3788199625922468 1 rotate no_reflect no_shear #
shell $-1 $-1 $-1 $68 $-1 $17 #
shell $-1 $-1 $-1 $69 $-1 $19 #
shell $-1 $-1 $-1 $70 $-1 $21 #
shell $-1 $-1 $-1 $71 $-1 $23 #
shell $-1 $-1 $-1 $72 $-1 $25 #
shell $-1 $-1 $-1 $73 $-1 $27 #
shell $-1 $-1 $-1 $74 $-1 $29 #
shell $-1 $-1 $-1 $75 $-1 $31 #
shell $-1 $-1 $-1 $76 $-1 $33 #
shell $-1 $-1 $-1 $77 $-1 $35 #
shell $-1 $-1 $-1 $78 $-1 $37 #
shell $-1 $-1 $-1 $79 $-1 $39 #
shell $-1 $-1 $-1 $80 $-1 $41 #
shell $-1 $-1 $-1 $81 $-1 $43 #
shell $-1 $-1 $-1 $82 $-1 $45 #
shell $-1 $-1 $-1 $83 $-1 $47 #
shell $-1 $-1 $-1 $84 $-1 $49 #
face $-1 $85 $86 $51 $-1 $87 forward single #
face $-1 $88 $89 $52 $-1 $90 forward single #
face $-1 $91 $92 $53 $-1 $93 forward single #
face $-1 $94 $95 $54 $-1 $96 reversed single #
face $-1 $97 $98 $55 $-1 $99 forward single #
face $-1 $100 $101 $56 $-1 $102 forward single #
face $-1 $103 $104 $57 $-1 $105 forward single #
face $-1 $106 $107 $58 $-1 $108 reversed single #
face $-1 $109 $110 $59 $-1 $111 forward single #
face $-1 $112 $113 $60 $-1 $114 forward single #
face $-1 $115 $116 $61 $-1 $117 forward single #
face $-1 $118 $119 $62 $-1 $120 reversed single #
face $-1 $121 $122 $63 $-1 $123 forward single #
face $-1 $124 $125 $64 $-1 $126 forward single #
face $-1 $127 $128 $65 $-1 $129 reversed single #
face $-1 $130 $131 $66 $-1 $132 forward single #
face $-1 $133 $134 $67 $-1 $135 forward single #
face $-1 $136 $137 $51 $-1 $138 reversed single #
loop $-1 $-1 $139 $68 #
plane-surface $-1 0 0 7.3788199625922468 0 0 1 1 0 0 forward_v I I I I #
face $-1 $140 $141 $52 $-1 $142 reversed single #
loop $-1 $-1 $143 $69 #
plane-surface $-1 -69.526047547837763 0 0 1 0 0 0 0 -1 forward_v I I I I #
face $-1 $144 $145 $53 $-1 $146 reversed single #
loop $-1 $-1 $147 $70 #
plane-surface $-1 69.526047547837763 0 0 -1 0 0 0 0 1 forward_v I I I I #
face $-1 $148 $149 $54 $-1 $150 reversed single #
loop $-1 $-1 $151 $71 #
plane-surface $-1 -9.7964460855529865 -112.8339963996909 112.39270063369975 -1 0 0 0 -0.6018150307709319 0.79863550430605224 forward_v I I I I #
face $-1 $152 $153 $55 $-1 $154 forward single #
loop $-1 $155 $156 $72 #
cone-surface $-1 -33.890027422922557 -23.335969811684095 1.9604958694902286 0 0.6018150307709319 -0.79863550430605224 2 0 0 1 I I 0 1 2 forward I I I I #
face $-1 $157 $158 $56 $-1 $159 forward single #
loop $-1 $160 $161 $73 #
cone-surface $-1 -24.85493442140897 -23.335969811684095 1.9604958694902286 0 0.6018150307709319 -0.79863550430605224 2 0 0 1 I I 0 1 2 forward I I I I #
face $-1 $162 $163 $57 $-1 $164 forward single #
loop $-1 $165 $166 $74 #
cone-surface $-1 -15.819841419895383 -23.335969811684095 1.9604958694902286 0 0.6018150307709319 -0.79863550430605224 2 0 0 1 I I 0 1 2 forward I I I I #
face $-1 $167 $168 $58 $-1 $169 reversed single #
loop $-1 $-1 $170 $75 #
plane-surface $-1 39.913422757264954 -112.8339963996909 112.39270063369975 -1 0 0 0 -0.6018150307709319 0.79863550430605224 forward_v I I I I #
face $-1 $171 $172 $59 $-1 $173 forward single #
loop $-1 $174 $175 $76 #
cone-surface $-1 15.819841419895383 -23.335969811684095 1.9604958694902286 0 0.6018150307709319 -0.79863550430605224 2 0 0 1 I I 0 1 2 forward I I I I #
face $-1 $176 $177 $60 $-1 $178 forward single #
loop $-1 $179 $180 $77 #
cone-surface $-1 24.85493442140897 -23.335969811684095 1.9604958694902286 0 0.6018150307709319 -0.79863550430605224 2 0 0 1 I I 0 1 2 forward I I I I #
face $-1 $181 $182 $61 $-1 $183 forward single #
loop $-1 $184 $185 $78 #
cone-surface $-1 33.890027422922557 -23.335969811684095 1.9604958694902286 0 0.6018150307709319 -0.79863550430605224 2 0 0 1 I I 0 1 2 forward I I I I #
face $-1 $186 $187 $62 $-1 $188 reversed single #
loop $-1 $-1 $189 $79 #
plane-surface $-1 -46.742484259108203 111.82842483760518 128.11312378605115 1 0 0 0 -0.82903758062907751 -0.55919289150049634 forward_v I I I I #
face $-1 $190 $191 $63 $-1 $192 forward single #
loop $-1 $193 $194 $80 #
cone-surface $-1 -41.758540558923386 26.025116612648951 3.8111746110044242 0 -0.82903758062907751 -0.55919289150049634 1 0 0 1 I I 0 1 1 forward I I I I #
face $-1 $195 $196 $64 $-1 $197 forward single #
loop $-1 $198 $199 $81 #
cone-surface $-1 -34.282625008646164 26.025116612648951 3.8111746110044242 0 -0.82903758062907751 -0.55919289150049634 1 0 0 1 I I 0 1 1 forward I I I I #
face $-1 $200 $201 $65 $-1 $202 reversed single #
loop $-1 $-1 $203 $82 #
plane-surface $-1 29.298681308461333 111.82842483760518 128.11312378605115 1 0 0 0 -0.82903758062907751 -0.55919289150049634 forward_v I I I I #
face $-1 $204 $205 $66 $-1 $206 forward single #
loop $-1 $207 $208 $83 #
cone-surface $-1 34.28262500864615 26.025116612648951 3.8111746110044242 0 -0.82903758062907751 -0.55919289150049634 1 0 0 1 I I 0 1 1 forward I I I I #
face $-1 $209 $210 $67 $-1 $211 forward single #
loop $-1 $212 $213 $84 #
cone-surface $-1 41.758540558923372 26.025116612648951 3.8111746110044242 0 -0.82903758062907751 -0.55919289150049634 1 0 0 1 I I 0 1 1 forward I I I I #
face $-1 $214 $215 $51 $-1 $216 reversed single #
loop $-1 $-1 $217 $85 #
plane-surface $-1 0 0 -7.3788199625922468 0 0 1 1 0 0 forward_v I I I I #
coedge $-1 $218 $219 $220 $221 forward $86 $-1 #
face $-1 $222 $223 $52 $-1 $224 forward single #
loop $-1 $-1 $225 $88 #
plane-surface $-1 0 29.150355510924392 0 0 -1 0 0 0 -1 forward_v I I I I #
coedge $-1 $226 $227 $228 $229 forward $89 $-1 #
face $-1 $230 $231 $53 $-1 $232 forward single #
loop $-1 $-1 $233 $91 #
plane-surface $-1 0 29.150355510924392 0 0 -1 0 0 0 -1 forward_v I I I I #
coedge $-1 $234 $235 $236 $237 forward $92 $-1 #
face $-1 $238 $239 $54 $-1 $240 reversed single #
loop $-1 $-1 $241 $94 #
plane-surface $-1 -24.85493442140897 -29.150355510924385 1.3407605421517843 0 -0.6018150307709319 0.79863550430605224 1 0 0 forward_v I I I I #
coedge $-1 $242 $243 $244 $245 reversed $95 $-1 #
face $-1 $-1 $246 $55 $-1 $247 forward single #
loop $-1 $248 $249 $97 #
cone-surface $-1 -33.890027422922557 -20.926156745417373 -1.2374340176976188 0 0.6018150307709319 -0.79863550430605224 1 0 0 1 I I -0.70710678118654746 0.70710678118654746 1 forward I I I I #
loop $-1 $-1 $250 $72 #
coedge $-1 $156 $156 $251 $252 reversed $98 $-1 #
face $-1 $-1 $253 $56 $-1 $254 forward single #
loop $-1 $255 $256 $100 #
cone-surface $-1 -24.85493442140897 -20.926156745417373 -1.2374340176976188 0 0.6018150307709319 -0.79863550430605224 1 0 0 1 I I -0.70710678118654746 0.70710678118654746 1 forward I I I I #
loop $-1 $-1 $257 $73 #
coedge $-1 $161 $161 $258 $259 reversed $101 $-1 #
face $-1 $-1 $260 $57 $-1 $261 forward single #
loop $-1 $262 $263 $103 #
cone-surface $-1 -15.819841419895383 -20.926156745417373 -1.2374340176976188 0 0.6018150307709319 -0.79863550430605224 1 0 0 1 I I -0.70710678118654746 0.70710678118654746 1 forward I I I I #
loop $-1 $-1 $264 $74 #
coedge $-1 $166 $166 $265 $266 reversed $104 $-1 #
face $-1 $267 $268 $58 $-1 $269 reversed single #
loop $-1 $-1 $270 $106 #
plane-surface $-1 24.85493442140897 -29.150355510924385 1.3407605421517843 0 -0.6018150307709319 0.79863550430605224 1 0 0 forward_v I I I I #
coedge $-1 $271 $272 $273 $274 reversed $107 $-1 #
face $-1 $-1 $275 $59 $-1 $276 forward single #
loop $-1 $277 $278 $109 #
cone-surface $-1 15.819841419895383 -20.926156745417373 -1.2374340176976188 0 0.6018150307709319 -0.79863550430605224 1 0 0 1 I I -0.70710678118654746 0.70710678118654746 1 forward I I I I #
loop $-1 $-1 $279 $76 #
coedge $-1 $175 $175 $280 $281 reversed $110 $-1 #
face $-1 $-1 $282 $60 $-1 $283 forward single #
loop $-1 $284 $285 $112 #
cone-surface $-1 24.85493442140897 -20.926156745417373 -1.2374340176976188 0 0.6018150307709319 -0.79863550430605224 1 0 0 1 I I -0.70710678118654746 0.70710678118654746 1 forward I I I I #
loop $-1 $-1 $286 $77 #
coedge $-1 $180 $180 $287 $288 reversed $113 $-1 #
face $-1 $-1 $289 $61 $-1 $290 forward single #
loop $-1 $291 $292 $115 #
cone-surface $-1 33.890027422922557 -20.926156745417373 -1.2374340176976188 0 0.6018150307709319 -0.79863550430605224 1 0 0 1 I I -0.70710678118654746 0.70710678118654746 1 forward I I I I #
loop $-1 $-1 $293 $78 #
coedge $-1 $185 $185 $294 $295 reversed $116 $-1 #
face $-1 $296 $297 $62 $-1 $298 reversed single #
loop $-1 $-1 $299 $118 #
plane-surface $-1 -38.020582783784775 -3.4509876619180631 50.356180660298364 0 0.82903758062907751 0.55919289150049634 1 0 0 forward_v I I I I #
coedge $-1 $300 $301 $302 $303 reversed $119 $-1 #
face $-1 $-1 $304 $63 $-1 $305 forward single #
loop $-1 $306 $307 $121 #
cone-surface $-1 -41.758540558923386 24.291733050904256 2.641992672067544 0 -0.82903758062907751 -0.55919289150049634 0.5 0 0 1 I I -0.70710678118654746 0.70710678118654746 0.5 forward I I I I #
loop $-1 $-1 $308 $80 #
coedge $-1 $194 $194 $309 $310 reversed $122 $-1 #
face $-1 $-1 $311 $64 $-1 $312 forward single #
loop $-1 $313 $314 $124 #
cone-surface $-1 -34.282625008646164 24.291733050904256 2.641992672067544 0 -0.82903758062907751 -0.55919289150049634 0.5 0 0 1 I I -0.70710678118654746 0.70710678118654746 0.5 forward I I I I #
loop $-1 $-1 $315 $81 #
coedge $-1 $199 $199 $316 $317 reversed $125 $-1 #
face $-1 $318 $319 $65 $-1 $320 reversed single #
loop $-1 $-1 $321 $127 #
plane-surface $-1 38.020582783784761 -3.4509876619180631 50.356180660298364 0 0.82903758062907751 0.55919289150049634 1 0 0 forward_v I I I I #
coedge $-1 $322 $323 $324 $325 reversed $128 $-1 #
face $-1 $-1 $326 $66 $-1 $327 forward single #
loop $-1 $328 $329 $130 #
cone-surface $-1 34.28262500864615 24.291733050904256 2.641992672067544 0 -0.82903758062907751 -0.55919289150049634 0.5 0 0 1 I I -0.70710678118654746 0.70710678118654746 0.5 forward I I I I #
loop $-1 $-1 $330 $83 #
coedge $-1 $208 $208 $331 $332 reversed $131 $-1 #
face $-1 $-1 $333 $67 $-1 $334 forward single #
loop $-1 $335 $336 $133 #
cone-surface $-1 41.758540558923372 24.291733050904256 2.641992672067544 0 -0.82903758062907751 -0.55919289150049634 0.5 0 0 1 I I -0.70710678118654746 0.70710678118654746 0.5 forward I I I I #
loop $-1 $-1 $337 $84 #
coedge $-1 $213 $213 $338 $339 reversed $134 $-1 #
face $-1 $340 $341 $51 $-1 $342 reversed single #
loop $-1 $-1 $343 $136 #
plane-surface $-1 0 -29.150355510924392 0 0 1 0 0 0 1 forward_v I I I I #
coedge $-1 $344 $345 $346 $347 forward $137 $-1 #
coedge $-1 $348 $139 $349 $350 forward $86 $-1 #
coedge $-1 $139 $348 $351 $352 forward $86 $-1 #
coedge $-1 $353 $354 $139 $221 reversed $355 $-1 #
edge $-1 $356 -29.150355510924392 $357 29.150355510924392 $220 $358 forward 7 unknown #
face $-1 $359 $360 $52 $-1 $361 reversed single #
loop $-1 $-1 $228 $140 #
plane-surface $-1 -73.408153114387048 0 -4.1290946023160933 0 0 1 1 0 0 forward_v I I I I #
coedge $-1 $362 $363 $227 $364 forward $141 $-1 #
coedge $-1 $365 $143 $366 $367 reversed $89 $-1 #
coedge $-1 $143 $365 $225 $364 reversed $89 $-1 #
coedge $-1 $368 $369 $143 $229 reversed $223 $-1 #
edge $-1 $370 -29.150355510924392 $371 29.150355510924392 $228 $372 forward 7 unknown #
face $-1 $373 $374 $53 $-1 $375 reversed single #
loop $-1 $-1 $376 $144 #
plane-surface $-1 73.408153114387048 0 -4.1290946023160933 0 0 1 1 0 0 forward_v I I I I #
coedge $-1 $377 $378 $234 $379 forward $145 $-1 #
coedge $-1 $380 $147 $233 $379 reversed $92 $-1 #
coedge $-1 $147 $380 $381 $382 reversed $92 $-1 #
coedge $-1 $383 $384 $147 $237 reversed $231 $-1 #
edge $-1 $385 -29.150355510924392 $386 29.150355510924392 $236 $387 forward 7 unknown #
face $-1 $388 $389 $54 $-1 $390 forward single #
loop $-1 $-1 $391 $148 #
plane-surface $-1 -39.913422757264954 -112.8339963996909 112.39270063369975 1 0 0 0 0.6018150307709319 -0.79863550430605224 forward_v I I I I #
coedge $-1 $392 $393 $394 $395 reversed $149 $-1 #
coedge $-1 $243 $151 $396 $397 reversed $95 $-1 #
coedge $-1 $151 $242 $392 $398 reversed $95 $-1 #
coedge $-1 $394 $399 $151 $245 forward $389 $-1 #
edge $-1 $400 27.26664268892106 $401 35.279418016410105 $244 $402 forward 7 unknown #
loop $-1 $-1 $251 $152 #
plane-surface $-1 -24.85493442140897 -29.150355510924385 1.3407605421517843 0 -0.6018150307709319 0.79863550430605224 1 0 0 forward_v I I I I #
loop $-1 $-1 $403 $97 #
coedge $-1 $249 $249 $250 $404 reversed $153 $-1 #
coedge $-1 $250 $250 $249 $404 forward $155 $-1 #
coedge $-1 $251 $251 $156 $252 forward $246 $-1 #
edge $-1 $405 -5.1435105991241275e-016 $405 6.2831853071795996 $251 $406 forward 7 unknown #
loop $-1 $-1 $258 $157 #
plane-surface $-1 -24.85493442140897 -29.150355510924385 1.3407605421517843 0 -0.6018150307709319 0.79863550430605224 1 0 0 forward_v I I I I #
loop $-1 $-1 $407 $100 #
coedge $-1 $256 $256 $257 $408 reversed $158 $-1 #
coedge $-1 $257 $257 $256 $408 forward $160 $-1 #
coedge $-1 $258 $258 $161 $259 forward $253 $-1 #
edge $-1 $409 -5.1435105991241275e-016 $409 6.2831853071795996 $258 $410 forward 7 unknown #
loop $-1 $-1 $265 $162 #
plane-surface $-1 -24.85493442140897 -29.150355510924385 1.3407605421517843 0 -0.6018150307709319 0.79863550430605224 1 0 0 forward_v I I I I #
loop $-1 $-1 $411 $103 #
coedge $-1 $263 $263 $264 $412 reversed $163 $-1 #
coedge $-1 $264 $264 $263 $412 forward $165 $-1 #
coedge $-1 $265 $265 $166 $266 forward $260 $-1 #
edge $-1 $413 -5.1435105991241275e-016 $413 6.2831853071795996 $265 $414 forward 7 unknown #
face $-1 $415 $416 $58 $-1 $417 reversed single #
loop $-1 $-1 $418 $167 #
plane-surface $-1 9.7964460855529865 -112.8339963996909 112.39270063369975 1 0 0 0 0.6018150307709319 -0.79863550430605224 forward_v I I I I #
coedge $-1 $419 $420 $421 $422 reversed $168 $-1 #
coedge $-1 $272 $170 $423 $424 reversed $107 $-1 #
coedge $-1 $170 $271 $419 $425 reversed $107 $-1 #
coedge $-1 $421 $426 $170 $274 forward $427 $-1 #
edge $-1 $428 27.26664268892106 $429 35.279418016410105 $273 $430 forward 7 unknown #
loop $-1 $-1 $280 $171 #
plane-surface $-1 24.85493442140897 -29.150355510924385 1.3407605421517843 0 -0.6018150307709319 0.79863550430605224 1 0 0 forward_v I I I I #
loop $-1 $-1 $431 $109 #
coedge $-1 $278 $278 $279 $432 reversed $172 $-1 #
coedge $-1 $279 $279 $278 $432 forward $174 $-1 #
coedge $-1 $280 $280 $175 $281 forward $275 $-1 #
edge $-1 $433 -5.1435105991241275e-016 $433 6.2831853071795996 $280 $434 forward 7 unknown #
loop $-1 $-1 $287 $176 #
plane-surface $-1 24.85493442140897 -29.150355510924385 1.3407605421517843 0 -0.6018150307709319 0.79863550430605224 1 0 0 forward_v I I I I #
loop $-1 $-1 $435 $112 #
coedge $-1 $285 $285 $286 $436 reversed $177 $-1 #
coedge $-1 $286 $286 $285 $436 forward $179 $-1 #
coedge $-1 $287 $287 $180 $288 forward $282 $-1 #
edge $-1 $437 -5.1435105991241275e-016 $437 6.2831853071795996 $287 $438 forward 7 unknown #
loop $-1 $-1 $294 $181 #
plane-surface $-1 24.85493442140897 -29.150355510924385 1.3407605421517843 0 -0.6018150307709319 0.79863550430605224 1 0 0 forward_v I I I I #
loop $-1 $-1 $439 $115 #
coedge $-1 $292 $292 $293 $440 reversed $182 $-1 #
coedge $-1 $293 $293 $292 $440 forward $184 $-1 #
coedge $-1 $294 $294 $185 $295 forward $289 $-1 #
edge $-1 $441 -5.1435105991241275e-016 $441 6.2831853071795996 $294 $442 forward 7 unknown #
face $-1 $443 $444 $62 $-1 $445 reversed single #
loop $-1 $-1 $446 $186 #
plane-surface $-1 -29.298681308461347 111.82842483760518 128.11312378605115 -1 0 0 0 0.82903758062907751 0.55919289150049634 forward_v I I I I #
coedge $-1 $447 $448 $449 $450 reversed $187 $-1 #
coedge $-1 $301 $189 $451 $452 reversed $119 $-1 #
coedge $-1 $189 $300 $447 $453 reversed $119 $-1 #
coedge $-1 $449 $454 $189 $303 forward $455 $-1 #
edge $-1 $456 26.7638569078782 $457 30.376605161568737 $302 $458 forward 7 unknown #
loop $-1 $-1 $309 $190 #
plane-surface $-1 -38.020582783784775 -3.4509876619180631 50.356180660298364 0 0.82903758062907751 0.55919289150049634 1 0 0 forward_v I I I I #
loop $-1 $-1 $459 $121 #
coedge $-1 $307 $307 $308 $460 reversed $191 $-1 #
coedge $-1 $308 $308 $307 $460 forward $193 $-1 #
coedge $-1 $309 $309 $194 $310 forward $304 $-1 #
edge $-1 $461 8.8939051993451917e-016 $461 6.2831853071796013 $309 $462 forward 7 unknown #
loop $-1 $-1 $316 $195 #
plane-surface $-1 -38.020582783784775 -3.4509876619180631 50.356180660298364 0 0.82903758062907751 0.55919289150049634 1 0 0 forward_v I I I I #
loop $-1 $-1 $463 $124 #
coedge $-1 $314 $314 $315 $464 reversed $196 $-1 #
coedge $-1 $315 $315 $314 $464 forward $198 $-1 #
coedge $-1 $316 $316 $199 $317 forward $311 $-1 #
edge $-1 $465 8.8939051993451917e-016 $465 6.2831853071796013 $316 $466 forward 7 unknown #
face $-1 $467 $468 $65 $-1 $469 forward single #
loop $-1 $-1 $470 $200 #
plane-surface $-1 46.742484259108188 111.82842483760518 128.11312378605115 -1 0 0 0 0.82903758062907751 0.55919289150049634 forward_v I I I I #
coedge $-1 $471 $472 $473 $474 reversed $201 $-1 #
coedge $-1 $323 $203 $475 $476 reversed $128 $-1 #
coedge $-1 $203 $322 $471 $477 reversed $128 $-1 #
coedge $-1 $473 $478 $203 $325 forward $468 $-1 #
edge $-1 $479 26.7638569078782 $480 30.376605161568737 $324 $481 forward 7 unknown #
loop $-1 $-1 $331 $204 #
plane-surface $-1 38.020582783784761 -3.4509876619180631 50.356180660298364 0 0.82903758062907751 0.55919289150049634 1 0 0 forward_v I I I I #
loop $-1 $-1 $482 $130 #
coedge $-1 $329 $329 $330 $483 reversed $205 $-1 #
coedge $-1 $330 $330 $329 $483 forward $207 $-1 #
coedge $-1 $331 $331 $208 $332 forward $326 $-1 #
edge $-1 $484 8.8939051993451917e-016 $484 6.2831853071796013 $331 $485 forward 7 unknown #
loop $-1 $-1 $338 $209 #
plane-surface $-1 38.020582783784761 -3.4509876619180631 50.356180660298364 0 0.82903758062907751 0.55919289150049634 1 0 0 forward_v I I I I #
loop $-1 $-1 $486 $133 #
coedge $-1 $336 $336 $337 $487 reversed $210 $-1 #
coedge $-1 $337 $337 $336 $487 forward $212 $-1 #
coedge $-1 $338 $338 $213 $339 forward $333 $-1 #
edge $-1 $488 8.8939051993451917e-016 $488 6.2831853071796013 $338 $489 forward 7 unknown #
face $-1 $490 $491 $51 $-1 $492 reversed single #
loop $-1 $-1 $493 $214 #
plane-surface $-1 -69.526047547837763 0 0 1 0 0 0 0 -1 forward_v I I I I #
coedge $-1 $494 $351 $493 $495 forward $215 $-1 #
coedge $-1 $496 $217 $494 $497 forward $137 $-1 #
coedge $-1 $217 $496 $498 $499 forward $137 $-1 #
coedge $-1 $354 $353 $217 $347 reversed $355 $-1 #
edge $-1 $500 -29.150355510924392 $501 29.150355510924392 $346 $502 forward 7 unknown #
coedge $-1 $219 $218 $503 $504 forward $86 $-1 #
coedge $-1 $505 $506 $218 $350 reversed $491 $-1 #
edge $-1 $357 -69.526047547837763 $507 69.526047547837763 $349 $508 forward 7 unknown #
coedge $-1 $343 $509 $219 $352 reversed $215 $-1 #
edge $-1 $510 -69.526047547837763 $356 69.526047547837763 $351 $511 forward 7 unknown #
coedge $-1 $346 $220 $509 $512 forward $355 $-1 #
coedge $-1 $220 $346 $505 $513 reversed $355 $-1 #
loop $-1 $-1 $354 $490 #
vertex $-1 $221 $514 #
vertex $-1 $221 $515 #
straight-curve $-1 69.526047547837763 0 7.3788199625922468 0 1 0 I I #
face $-1 $516 $517 $52 $-1 $518 reversed single #
loop $-1 $-1 $519 $222 #
plane-surface $-1 -77.290258680936333 0 -5.75395728245417 1 0 0 0 0 -1 forward_v I I I I #
coedge $-1 $520 $225 $521 $522 reversed $141 $-1 #
coedge $-1 $225 $520 $368 $523 reversed $141 $-1 #
edge $-1 $370 4.1290946023160933 $524 7.3788199625922468 $225 $525 forward 7 unknown #
coedge $-1 $227 $226 $526 $527 reversed $89 $-1 #
coedge $-1 $528 $529 $226 $367 forward $530 $-1 #
edge $-1 $531 -7.3788199625922468 $371 -4.1290946023160933 $366 $532 forward 7 unknown #
coedge $-1 $533 $228 $363 $523 forward $223 $-1 #
coedge $-1 $228 $533 $528 $534 forward $223 $-1 #
vertex $-1 $364 $535 #
vertex $-1 $534 $536 #
straight-curve $-1 -69.526047547837763 0 -4.1290946023160933 0 -1 0 I I #
face $-1 $537 $538 $53 $-1 $539 reversed single #
loop $-1 $-1 $540 $230 #
plane-surface $-1 77.290258680936333 0 -5.75395728245417 -1 0 0 0 0 1 forward_v I I I I #
coedge $-1 $384 $383 $541 $542 forward $231 $-1 #
coedge $-1 $543 $233 $384 $544 reversed $145 $-1 #
coedge $-1 $233 $543 $545 $546 reversed $145 $-1 #
edge $-1 $547 -7.3788199625922468 $386 -4.1290946023160933 $233 $548 forward 7 unknown #
coedge $-1 $235 $234 $549 $550 reversed $92 $-1 #
coedge $-1 $551 $552 $235 $382 forward $553 $-1 #
edge $-1 $385 4.1290946023160933 $554 7.3788199625922468 $381 $555 forward 7 unknown #
coedge $-1 $376 $236 $552 $556 forward $231 $-1 #
coedge $-1 $236 $376 $377 $544 forward $231 $-1 #
vertex $-1 $382 $557 #
vertex $-1 $544 $558 #
straight-curve $-1 69.526047547837763 0 -4.1290946023160933 0 1 0 I I #
face $-1 $-1 $559 $54 $-1 $560 reversed single #
loop $-1 $-1 $244 $238 #
plane-surface $-1 0 0 7.3788199625922468 0 0 1 1 0 0 forward_v I I I I #
coedge $-1 $561 $562 $563 $564 reversed $239 $-1 #
coedge $-1 $565 $241 $243 $398 forward $149 $-1 #
coedge $-1 $241 $565 $561 $566 forward $149 $-1 #
coedge $-1 $563 $244 $241 $395 forward $389 $-1 #
edge $-1 $401 -2.6310211251514986 $567 27.485955546560469 $394 $568 forward 7 unknown #
coedge $-1 $569 $570 $242 $397 forward $559 $-1 #
edge $-1 $571 -54.855589774698096 $400 -48.817530354257627 $396 $572 forward 7 unknown #
edge $-1 $401 -10.033081780469391 $571 8.8817612989391469e-015 $243 $573 forward 7 unknown #
coedge $-1 $244 $563 $569 $574 forward $389 $-1 #
vertex $-1 $397 $575 #
vertex $-1 $245 $576 #
straight-curve $-1 -9.7964460855529865 -56.416998199845452 7.3788199625922459 0 1 0 I I #
coedge $-1 $403 $403 $-1 $577 reversed $248 $-1 #
edge $-1 $578 0 $578 6.2831853071796004 $249 $579 forward 7 unknown #
vertex $-1 $252 $580 #
ellipse-curve $-1 -33.890027422922557 -25.143967847179873 4.3597902523720107 0 -0.6018150307709319 0.79863550430605224 2 0 0 1 I I #
coedge $-1 $407 $407 $-1 $581 reversed $255 $-1 #
edge $-1 $582 0 $582 6.2831853071796004 $256 $583 forward 7 unknown #
vertex $-1 $259 $584 #
ellipse-curve $-1 -24.85493442140897 -25.143967847179873 4.3597902523720107 0 -0.6018150307709319 0.79863550430605224 2 0 0 1 I I #
coedge $-1 $411 $411 $-1 $585 reversed $262 $-1 #
edge $-1 $586 0 $586 6.2831853071796004 $263 $587 forward 7 unknown #
vertex $-1 $266 $588 #
ellipse-curve $-1 -15.819841419895383 -25.143967847179873 4.3597902523720107 0 -0.6018150307709319 0.79863550430605224 2 0 0 1 I I #
face $-1 $-1 $427 $58 $-1 $589 forward single #
loop $-1 $-1 $590 $267 #
plane-surface $-1 0 -29.150355510924392 0 0 1 0 0 0 1 forward_v I I I I #
coedge $-1 $591 $592 $593 $594 reversed $268 $-1 #
coedge $-1 $595 $270 $272 $425 forward $168 $-1 #
coedge $-1 $270 $595 $591 $596 forward $168 $-1 #
coedge $-1 $593 $273 $270 $422 forward $427 $-1 #
edge $-1 $429 -27.485955546560469 $597 2.6310211251514986 $421 $598 forward 7 unknown #
coedge $-1 $599 $600 $271 $424 forward $416 $-1 #
edge $-1 $601 -54.855589774698096 $428 -48.817530354257627 $423 $602 forward 7 unknown #
edge $-1 $429 -10.033081780469391 $601 8.8817612989391469e-015 $272 $603 forward 7 unknown #
coedge $-1 $273 $593 $599 $604 forward $427 $-1 #
loop $-1 $-1 $593 $415 #
vertex $-1 $424 $605 #
vertex $-1 $274 $606 #
straight-curve $-1 39.913422757264954 -56.416998199845452 7.3788199625922459 0 1 0 I I #
coedge $-1 $431 $431 $-1 $607 reversed $277 $-1 #
edge $-1 $608 0 $608 6.2831853071796004 $278 $609 forward 7 unknown #
vertex $-1 $281 $610 #
ellipse-curve $-1 15.819841419895383 -25.143967847179873 4.3597902523720107 0 -0.6018150307709319 0.79863550430605224 2 0 0 1 I I #
coedge $-1 $435 $435 $-1 $611 reversed $284 $-1 #
edge $-1 $612 0 $612 6.2831853071796004 $285 $613 forward 7 unknown #
vertex $-1 $288 $614 #
ellipse-curve $-1 24.85493442140897 -25.143967847179873 4.3597902523720107 0 -0.6018150307709319 0.79863550430605224 2 0 0 1 I I #
coedge $-1 $439 $439 $-1 $615 reversed $291 $-1 #
edge $-1 $616 0 $616 6.2831853071796004 $292 $617 forward 7 unknown #
vertex $-1 $295 $618 #
ellipse-curve $-1 33.890027422922557 -25.143967847179873 4.3597902523720107 0 -0.6018150307709319 0.79863550430605224 2 0 0 1 I I #
face $-1 $-1 $455 $62 $-1 $619 forward single #
loop $-1 $-1 $620 $296 #
plane-surface $-1 0 29.150355510924392 0 0 -1 0 0 0 -1 forward_v I I I I #
coedge $-1 $621 $622 $623 $624 reversed $297 $-1 #
coedge $-1 $625 $299 $301 $453 forward $187 $-1 #
coedge $-1 $299 $625 $621 $626 forward $187 $-1 #
coedge $-1 $623 $302 $299 $450 forward $455 $-1 #
edge $-1 $457 -27.732192867215815 $627 -10.28838991656896 $449 $628 forward 7 unknown #
coedge $-1 $629 $630 $300 $452 forward $444 $-1 #
edge $-1 $631 -62.033861647235682 $456 -56.677741930433328 $451 $632 forward 7 unknown #
edge $-1 $457 51.840063348026639 $631 58.300711021848741 $301 $633 forward 7 unknown #
coedge $-1 $302 $623 $629 $634 forward $455 $-1 #
loop $-1 $-1 $623 $443 #
vertex $-1 $452 $635 #
vertex $-1 $303 $636 #
straight-curve $-1 -46.742484259108203 55.914212418802592 7.3788199625922459 0 -1 0 I I #
coedge $-1 $459 $459 $-1 $637 reversed $306 $-1 #
edge $-1 $638 0 $638 6.2831853071796004 $307 $639 forward 7 unknown #
vertex $-1 $310 $640 #
ellipse-curve $-1 -41.758540558923386 27.343981384079122 4.7007601041910672 0 0.82903758062907751 0.55919289150049634 1 0 0 1 I I #
coedge $-1 $463 $463 $-1 $641 reversed $313 $-1 #
edge $-1 $642 0 $642 6.2831853071796004 $314 $643 forward 7 unknown #
vertex $-1 $317 $644 #
ellipse-curve $-1 -34.282625008646164 27.343981384079122 4.7007601041910672 0 0.82903758062907751 0.55919289150049634 1 0 0 1 I I #
face $-1 $-1 $645 $65 $-1 $646 reversed single #
loop $-1 $-1 $324 $318 #
plane-surface $-1 0 0 7.3788199625922468 0 0 1 1 0 0 forward_v I I I I #
coedge $-1 $647 $648 $649 $650 reversed $319 $-1 #
coedge $-1 $651 $321 $323 $477 forward $201 $-1 #
coedge $-1 $321 $651 $647 $652 forward $201 $-1 #
coedge $-1 $649 $324 $321 $474 forward $468 $-1 #
edge $-1 $480 10.288389916568953 $653 27.732192867215808 $473 $654 forward 7 unknown #
coedge $-1 $655 $656 $322 $476 forward $645 $-1 #
edge $-1 $657 -62.033861647235682 $479 -56.677741930433328 $475 $658 forward 7 unknown #
edge $-1 $480 51.840063348026639 $657 58.300711021848741 $323 $659 forward 7 unknown #
coedge $-1 $324 $649 $655 $660 forward $468 $-1 #
vertex $-1 $325 $661 #
vertex $-1 $325 $662 #
straight-curve $-1 29.298681308461333 55.914212418802592 7.3788199625922459 0 -1 0 I I #
coedge $-1 $482 $482 $-1 $663 reversed $328 $-1 #
edge $-1 $664 0 $664 6.2831853071796004 $329 $665 forward 7 unknown #
vertex $-1 $332 $666 #
ellipse-curve $-1 34.28262500864615 27.343981384079122 4.7007601041910672 0 0.82903758062907751 0.55919289150049634 1 0 0 1 I I #
coedge $-1 $486 $486 $-1 $667 reversed $335 $-1 #
edge $-1 $668 0 $668 6.2831853071796004 $336 $669 forward 7 unknown #
vertex $-1 $339 $670 #
ellipse-curve $-1 41.758540558923372 27.343981384079122 4.7007601041910672 0 0.82903758062907751 0.55919289150049634 1 0 0 1 I I #
face $-1 $-1 $355 $51 $-1 $671 reversed single #
loop $-1 $-1 $505 $340 #
plane-surface $-1 0 29.150355510924392 0 0 -1 0 0 0 -1 forward_v I I I I #
coedge $-1 $503 $672 $343 $495 reversed $341 $-1 #
coedge $-1 $509 $343 $344 $497 reversed $215 $-1 #
edge $-1 $510 -7.3788199625922468 $673 7.3788199625922468 $493 $674 forward 7 unknown #
coedge $-1 $345 $344 $672 $675 forward $137 $-1 #
edge $-1 $501 -69.526047547837763 $673 69.526047547837763 $494 $676 forward 7 unknown #
coedge $-1 $506 $505 $345 $499 reversed $491 $-1 #
edge $-1 $677 -69.526047547837763 $500 69.526047547837763 $498 $678 forward 7 unknown #
vertex $-1 $347 $679 #
vertex $-1 $512 $680 #
straight-curve $-1 69.526047547837763 0 -7.3788199625922468 0 -1 0 I I #
coedge $-1 $681 $493 $348 $504 reversed $341 $-1 #
edge $-1 $507 -29.150355510924392 $510 29.150355510924392 $503 $682 forward 7 unknown #
coedge $-1 $498 $349 $354 $513 forward $491 $-1 #
coedge $-1 $349 $498 $681 $683 reversed $491 $-1 #
vertex $-1 $350 $684 #
straight-curve $-1 0 29.150355510924392 7.3788199625922468 -1 0 0 I I #
coedge $-1 $351 $494 $353 $512 reversed $215 $-1 #
vertex $-1 $504 $685 #
straight-curve $-1 0 -29.150355510924392 7.3788199625922468 1 0 0 I I #
edge $-1 $356 -7.3788199625922468 $501 7.3788199625922468 $353 $686 forward 7 unknown #
edge $-1 $357 -7.3788199625922468 $500 7.3788199625922468 $354 $687 forward 7 unknown #
point $-1 69.526047547837763 -29.150355510924392 7.3788199625922468 #
point $-1 69.526047547837763 29.150355510924392 7.3788199625922468 #
face $-1 $-1 $530 $52 $-1 $688 reversed single #
loop $-1 $-1 $526 $359 #
plane-surface $-1 0 0 -7.3788199625922468 0 0 1 1 0 0 forward_v I I I I #
coedge $-1 $689 $690 $520 $691 forward $360 $-1 #
coedge $-1 $363 $362 $519 $691 reversed $141 $-1 #
coedge $-1 $526 $692 $362 $522 forward $517 $-1 #
edge $-1 $693 -77.290258680936333 $524 -69.526047547837763 $362 $694 forward 7 unknown #
edge $-1 $370 -3.882105566549285 $695 3.882105566549285 $363 $696 forward 7 unknown #
vertex $-1 $364 $697 #
straight-curve $-1 -69.526047547837763 29.150355510924392 0 0 0 -1 I I #
coedge $-1 $698 $521 $365 $527 forward $517 $-1 #
edge $-1 $524 -29.150355510924392 $531 29.150355510924392 $526 $699 forward 7 unknown #
coedge $-1 $700 $366 $369 $534 reversed $530 $-1 #
coedge $-1 $366 $700 $698 $701 reversed $530 $-1 #
loop $-1 $-1 $366 $516 #
vertex $-1 $701 $702 #
straight-curve $-1 -69.526047547837763 -29.150355510924392 0 0 0 1 I I #
coedge $-1 $369 $368 $690 $703 forward $223 $-1 #
edge $-1 $704 -3.882105566549285 $371 3.882105566549285 $528 $705 forward 7 unknown #
point $-1 -69.526047547837763 29.150355510924392 -4.1290946023160933 #
point $-1 -69.526047547837763 -29.150355510924392 -4.1290946023160933 #
face $-1 $-1 $553 $53 $-1 $706 reversed single #
loop $-1 $-1 $549 $373 #
plane-surface $-1 0 0 -7.3788199625922468 0 0 1 1 0 0 forward_v I I I I #
coedge $-1 $707 $541 $708 $709 forward $374 $-1 #
coedge $-1 $540 $710 $376 $542 reversed $374 $-1 #
edge $-1 $711 -29.150355510924392 $712 29.150355510924392 $541 $713 forward 7 unknown #
coedge $-1 $378 $377 $710 $714 forward $145 $-1 #
edge $-1 $712 -3.882105566549285 $386 3.882105566549285 $377 $715 forward 7 unknown #
coedge $-1 $716 $549 $378 $546 forward $538 $-1 #
edge $-1 $547 -3.882105566549285 $717 3.882105566549285 $378 $718 forward 7 unknown #
vertex $-1 $546 $719 #
straight-curve $-1 69.526047547837763 29.150355510924392 0 0 0 1 I I #
coedge $-1 $545 $720 $380 $550 forward $538 $-1 #
edge $-1 $554 -29.150355510924392 $547 29.150355510924392 $549 $721 forward 7 unknown #
coedge $-1 $708 $381 $720 $722 reversed $553 $-1 #
coedge $-1 $381 $708 $383 $556 reversed $553 $-1 #
loop $-1 $-1 $381 $537 #
vertex $-1 $382 $723 #
straight-curve $-1 69.526047547837763 -29.150355510924392 0 0 0 -1 I I #
edge $-1 $385 -3.882105566549285 $711 3.882105566549285 $552 $724 forward 7 unknown #
point $-1 69.526047547837763 -29.150355510924392 -4.1290946023160933 #
point $-1 69.526047547837763 29.150355510924392 -4.1290946023160933 #
loop $-1 $-1 $396 $388 #
plane-surface $-1 0 -29.150355510924392 0 0 1 0 0 0 1 forward_v I I I I #
coedge $-1 $562 $391 $393 $566 reversed $239 $-1 #
coedge $-1 $391 $561 $725 $726 reversed $239 $-1 #
coedge $-1 $399 $394 $391 $564 forward $389 $-1 #
edge $-1 $567 -35.279418016410105 $727 -27.26664268892106 $563 $728 forward 7 unknown #
coedge $-1 $393 $392 $570 $729 reversed $149 $-1 #
edge $-1 $730 -8.8817612989391469e-015 $567 10.033081780469391 $561 $731 forward 7 unknown #
vertex $-1 $395 $732 #
straight-curve $-1 -12.427467210704485 -21.13758018343535 7.3788199625922468 -1 0 0 I I #
coedge $-1 $725 $396 $399 $574 reversed $559 $-1 #
coedge $-1 $396 $725 $565 $729 forward $559 $-1 #
vertex $-1 $397 $733 #
straight-curve $-1 -9.7964460855529865 -29.150355510924392 56.196350316849873 0 0 1 I I #
straight-curve $-1 -9.7964460855529865 -29.150355510924385 1.3407605421517843 0 -0.79863550430605224 -0.6018150307709319 I I #
edge $-1 $727 -39.913422757264954 $400 -9.7964460855529865 $569 $734 forward 7 unknown #
point $-1 -9.7964460855529865 -29.150355510924392 7.3788199625922468 #
point $-1 -9.7964460855529865 -21.137580183435347 7.3788199625922459 #
edge $-1 $735 1 $735 0 $403 $-1 forward 7 unknown #
vertex $-1 $404 $736 #
ellipse-curve $-1 -33.890027422922557 -21.527971776188306 -0.43879851339156661 0 -0.6018150307709319 0.79863550430605224 2 0 0 1 I I #
point $-1 -31.890027422922557 -25.143967847179884 4.3597902523720231 #
edge $-1 $737 1 $737 0 $407 $-1 forward 7 unknown #
vertex $-1 $408 $738 #
ellipse-curve $-1 -24.85493442140897 -21.527971776188306 -0.43879851339156661 0 -0.6018150307709319 0.79863550430605224 2 0 0 1 I I #
point $-1 -22.85493442140897 -25.143967847179884 4.3597902523720231 #
edge $-1 $739 1 $739 0 $411 $-1 forward 7 unknown #
vertex $-1 $412 $740 #
ellipse-curve $-1 -15.819841419895383 -21.527971776188306 -0.43879851339156661 0 -0.6018150307709319 0.79863550430605224 2 0 0 1 I I #
point $-1 -13.819841419895383 -25.143967847179884 4.3597902523720231 #
plane-surface $-1 0 0 7.3788199625922468 0 0 1 1 0 0 forward_v I I I I #
coedge $-1 $600 $599 $592 $741 forward $416 $-1 #
coedge $-1 $592 $418 $420 $596 reversed $268 $-1 #
coedge $-1 $418 $591 $590 $741 reversed $268 $-1 #
coedge $-1 $426 $421 $418 $594 forward $427 $-1 #
edge $-1 $597 -35.279418016410105 $742 -27.26664268892106 $593 $743 forward 7 unknown #
coedge $-1 $420 $419 $600 $744 reversed $168 $-1 #
edge $-1 $745 -8.8817612989391469e-015 $597 10.033081780469391 $591 $746 forward 7 unknown #
vertex $-1 $422 $747 #
straight-curve $-1 12.427467210704485 -21.13758018343535 7.3788199625922468 -1 0 0 I I #
coedge $-1 $590 $423 $426 $604 reversed $416 $-1 #
coedge $-1 $423 $590 $595 $744 forward $416 $-1 #
vertex $-1 $424 $748 #
straight-curve $-1 39.913422757264954 -29.150355510924392 56.196350316849873 0 0 1 I I #
straight-curve $-1 39.913422757264954 -29.150355510924385 1.3407605421517843 0 -0.79863550430605224 -0.6018150307709319 I I #
edge $-1 $742 9.7964460855529865 $428 39.913422757264954 $599 $749 forward 7 unknown #
point $-1 39.913422757264954 -29.150355510924392 7.3788199625922468 #
point $-1 39.913422757264954 -21.137580183435347 7.3788199625922459 #
edge $-1 $750 1 $750 0 $431 $-1 forward 7 unknown #
vertex $-1 $432 $751 #
ellipse-curve $-1 15.819841419895383 -21.527971776188306 -0.43879851339156661 0 -0.6018150307709319 0.79863550430605224 2 0 0 1 I I #
point $-1 17.819841419895383 -25.143967847179884 4.3597902523720231 #
edge $-1 $752 1 $752 0 $435 $-1 forward 7 unknown #
vertex $-1 $436 $753 #
ellipse-curve $-1 24.85493442140897 -21.527971776188306 -0.43879851339156661 0 -0.6018150307709319 0.79863550430605224 2 0 0 1 I I #
point $-1 26.85493442140897 -25.143967847179884 4.3597902523720231 #
edge $-1 $754 1 $754 0 $439 $-1 forward 7 unknown #
vertex $-1 $440 $755 #
ellipse-curve $-1 33.890027422922557 -21.527971776188306 -0.43879851339156661 0 -0.6018150307709319 0.79863550430605224 2 0 0 1 I I #
point $-1 35.890027422922557 -25.143967847179884 4.3597902523720231 #
plane-surface $-1 0 0 7.3788199625922468 0 0 1 1 0 0 forward_v I I I I #
coedge $-1 $630 $629 $622 $756 forward $444 $-1 #
coedge $-1 $622 $446 $448 $626 reversed $297 $-1 #
coedge $-1 $446 $621 $620 $756 reversed $297 $-1 #
coedge $-1 $454 $449 $446 $624 forward $455 $-1 #
edge $-1 $627 -30.376605161568737 $757 -26.7638569078782 $623 $758 forward 7 unknown #
coedge $-1 $448 $447 $630 $759 reversed $187 $-1 #
edge $-1 $760 -58.300711021848741 $627 -51.840063348026639 $621 $761 forward 7 unknown #
vertex $-1 $450 $762 #
straight-curve $-1 -19.010291391892387 25.537607257233851 7.3788199625922424 1 0 0 I I #
coedge $-1 $620 $451 $454 $634 reversed $444 $-1 #
coedge $-1 $451 $620 $625 $759 forward $444 $-1 #
vertex $-1 $452 $763 #
straight-curve $-1 -46.742484259108203 29.150355510924392 64.056561893025574 0 0 1 I I #
straight-curve $-1 -46.742484259108203 -3.4509876619180631 50.356180660298364 0 0.55919289150049634 -0.82903758062907751 I I #
edge $-1 $757 29.298681308461347 $456 46.742484259108203 $629 $764 forward 7 unknown #
point $-1 -46.742484259108203 29.150355510924392 7.3788199625922468 #
point $-1 -46.742484259108203 25.537607257233855 7.3788199625922459 #
edge $-1 $765 1 $765 0 $459 $-1 forward 7 unknown #
vertex $-1 $460 $766 #
ellipse-curve $-1 -41.758540558923386 24.706251841218794 2.921589117817792 0 0.82903758062907751 0.55919289150049634 1 0 0 1 I I #
point $-1 -40.758540558923386 27.343981384079107 4.7007601041910565 #
edge $-1 $767 1 $767 0 $463 $-1 forward 7 unknown #
vertex $-1 $464 $768 #
ellipse-curve $-1 -34.282625008646164 24.706251841218794 2.921589117817792 0 0.82903758062907751 0.55919289150049634 1 0 0 1 I I #
point $-1 -33.282625008646164 27.343981384079107 4.7007601041910565 #
loop $-1 $-1 $475 $467 #
plane-surface $-1 0 29.150355510924392 0 0 -1 0 0 0 -1 forward_v I I I I #
coedge $-1 $648 $470 $472 $652 reversed $319 $-1 #
coedge $-1 $470 $647 $769 $770 reversed $319 $-1 #
coedge $-1 $478 $473 $470 $650 forward $468 $-1 #
edge $-1 $653 -30.376605161568737 $771 -26.7638569078782 $649 $772 forward 7 unknown #
coedge $-1 $472 $471 $656 $773 reversed $201 $-1 #
edge $-1 $774 -58.300711021848741 $653 -51.840063348026639 $647 $775 forward 7 unknown #
vertex $-1 $474 $776 #
straight-curve $-1 19.01029139189238 25.537607257233851 7.3788199625922424 1 0 0 I I #
coedge $-1 $769 $475 $478 $660 reversed $645 $-1 #
coedge $-1 $475 $769 $651 $773 forward $645 $-1 #
vertex $-1 $476 $777 #
straight-curve $-1 29.298681308461333 29.150355510924392 64.056561893025574 0 0 1 I I #
straight-curve $-1 29.298681308461333 -3.4509876619180631 50.356180660298364 0 0.55919289150049634 -0.82903758062907751 I I #
edge $-1 $771 -46.742484259108188 $479 -29.298681308461333 $655 $778 forward 7 unknown #
point $-1 29.298681308461333 29.150355510924392 7.3788199625922468 #
point $-1 29.298681308461333 25.537607257233855 7.3788199625922459 #
edge $-1 $779 1 $779 0 $482 $-1 forward 7 unknown #
vertex $-1 $483 $780 #
ellipse-curve $-1 34.28262500864615 24.706251841218794 2.921589117817792 0 0.82903758062907751 0.55919289150049634 1 0 0 1 I I #
point $-1 35.28262500864615 27.343981384079107 4.7007601041910565 #
edge $-1 $781 1 $781 0 $486 $-1 forward 7 unknown #
vertex $-1 $487 $782 #
ellipse-curve $-1 41.758540558923372 24.706251841218794 2.921589117817792 0 0.82903758062907751 0.55919289150049634 1 0 0 1 I I #
point $-1 42.758540558923372 27.343981384079107 4.7007601041910565 #
plane-surface $-1 69.526047547837763 0 0 -1 0 0 0 0 1 forward_v I I I I #
coedge $-1 $493 $681 $496 $675 reversed $341 $-1 #
vertex $-1 $675 $783 #
straight-curve $-1 -69.526047547837763 -29.150355510924392 0 0 0 -1 I I #
edge $-1 $673 -29.150355510924392 $677 29.150355510924392 $672 $784 forward 7 unknown #
straight-curve $-1 0 -29.150355510924392 -7.3788199625922468 -1 0 0 I I #
vertex $-1 $499 $785 #
straight-curve $-1 0 29.150355510924392 -7.3788199625922468 1 0 0 I I #
point $-1 69.526047547837763 29.150355510924392 -7.3788199625922468 #
point $-1 69.526047547837763 -29.150355510924392 -7.3788199625922468 #
coedge $-1 $672 $503 $506 $683 forward $341 $-1 #
straight-curve $-1 -69.526047547837763 0 7.3788199625922468 0 -1 0 I I #
edge $-1 $507 -7.3788199625922468 $677 7.3788199625922468 $506 $786 forward 7 unknown #
point $-1 -69.526047547837763 29.150355510924392 7.3788199625922468 #
point $-1 -69.526047547837763 -29.150355510924392 7.3788199625922468 #
straight-curve $-1 69.526047547837763 -29.150355510924392 0 0 0 -1 I I #
straight-curve $-1 69.526047547837763 29.150355510924392 0 0 0 -1 I I #
plane-surface $-1 0 -29.150355510924392 0 0 1 0 0 0 1 forward_v I I I I #
coedge $-1 $787 $519 $692 $788 reversed $360 $-1 #
coedge $-1 $519 $787 $533 $703 reversed $360 $-1 #
edge $-1 $695 -1.6248626801380768 $693 1.6248626801380768 $520 $789 forward 7 unknown #
coedge $-1 $521 $698 $689 $788 forward $517 $-1 #
vertex $-1 $522 $790 #
straight-curve $-1 0 29.150355510924392 -7.3788199625922468 1 0 0 I I #
vertex $-1 $523 $791 #
straight-curve $-1 -73.408153114387048 29.150355510924392 -4.1290946023160933 -1 0 0 I I #
point $-1 -69.526047547837763 29.150355510924392 -7.3788199625922468 #
coedge $-1 $692 $526 $529 $701 forward $517 $-1 #
straight-curve $-1 -69.526047547837763 0 -7.3788199625922468 0 -1 0 I I #
coedge $-1 $529 $528 $787 $792 forward $530 $-1 #
edge $-1 $531 -3.882105566549285 $793 3.882105566549285 $529 $794 forward 7 unknown #
point $-1 -69.526047547837763 -29.150355510924392 -7.3788199625922468 #
edge $-1 $695 -29.150355510924392 $704 29.150355510924392 $690 $795 forward 7 unknown #
vertex $-1 $703 $796 #
straight-curve $-1 -73.408153114387048 -29.150355510924392 -4.1290946023160933 1 0 0 I I #
plane-surface $-1 0 -29.150355510924392 0 0 1 0 0 0 1 forward_v I I I I #
coedge $-1 $710 $540 $716 $797 reversed $374 $-1 #
coedge $-1 $552 $551 $540 $709 reversed $553 $-1 #
edge $-1 $711 -1.6248626801380768 $798 1.6248626801380768 $540 $799 forward 7 unknown #
coedge $-1 $541 $707 $543 $714 reversed $374 $-1 #
vertex $-1 $542 $800 #
vertex $-1 $542 $801 #
straight-curve $-1 77.290258680936333 0 -4.1290946023160933 0 1 0 I I #
edge $-1 $712 -1.6248626801380768 $717 1.6248626801380768 $710 $802 forward 7 unknown #
straight-curve $-1 73.408153114387048 29.150355510924392 -4.1290946023160933 -1 0 0 I I #
coedge $-1 $720 $545 $707 $797 forward $538 $-1 #
vertex $-1 $797 $803 #
straight-curve $-1 73.408153114387048 29.150355510924392 -7.3788199625922468 1 0 0 I I #
point $-1 69.526047547837763 29.150355510924392 -7.3788199625922468 #
coedge $-1 $549 $716 $551 $722 forward $538 $-1 #
straight-curve $-1 69.526047547837763 0 -7.3788199625922468 0 1 0 I I #
edge $-1 $798 -3.882105566549285 $554 3.882105566549285 $551 $804 forward 7 unknown #
point $-1 69.526047547837763 -29.150355510924392 -7.3788199625922468 #
straight-curve $-1 73.408153114387048 -29.150355510924392 -4.1290946023160933 1 0 0 I I #
coedge $-1 $570 $569 $562 $726 forward $559 $-1 #
edge $-1 $727 48.817530354257627 $730 54.855589774698096 $725 $805 forward 7 unknown #
vertex $-1 $574 $806 #
straight-curve $-1 -39.913422757264954 -56.416998199845452 7.3788199625922459 0 -1 0 I I #
edge $-1 $730 -27.485955546560469 $571 2.6310211251514986 $570 $807 forward 7 unknown #
vertex $-1 $729 $808 #
straight-curve $-1 -39.913422757264954 -29.150355510924385 1.3407605421517843 0 0.79863550430605224 0.6018150307709319 I I #
point $-1 -39.913422757264954 -21.137580183435347 7.3788199625922459 #
point $-1 -9.7964460855529865 -29.150355510924392 1.340760542151779 #
straight-curve $-1 0 -29.150355510924392 7.3788199625922468 1 0 0 I I #
vertex $-1 $577 $809 #
point $-1 -31.890027422922557 -21.527971776188306 -0.43879851339156661 #
vertex $-1 $581 $810 #
point $-1 -22.85493442140897 -21.527971776188306 -0.43879851339156661 #
vertex $-1 $585 $811 #
point $-1 -13.819841419895383 -21.527971776188306 -0.43879851339156661 #
edge $-1 $742 48.817530354257627 $745 54.855589774698096 $590 $812 forward 7 unknown #
vertex $-1 $604 $813 #
straight-curve $-1 9.7964460855529865 -56.416998199845452 7.3788199625922459 0 -1 0 I I #
edge $-1 $745 -2.6310211251514986 $601 27.485955546560469 $600 $814 forward 7 unknown #
vertex $-1 $744 $815 #
straight-curve $-1 9.7964460855529865 -29.150355510924385 1.3407605421517843 0 0.79863550430605224 0.6018150307709319 I I #
point $-1 9.7964460855529865 -21.137580183435347 7.3788199625922459 #
point $-1 39.913422757264954 -29.150355510924392 1.340760542151779 #
straight-curve $-1 0 -29.150355510924392 7.3788199625922468 1 0 0 I I #
vertex $-1 $607 $816 #
point $-1 17.819841419895383 -21.527971776188306 -0.43879851339156661 #
vertex $-1 $611 $817 #
point $-1 26.85493442140897 -21.527971776188306 -0.43879851339156661 #
vertex $-1 $615 $818 #
point $-1 35.890027422922557 -21.527971776188306 -0.43879851339156661 #
edge $-1 $757 56.677741930433328 $760 62.033861647235682 $620 $819 forward 7 unknown #
vertex $-1 $634 $820 #
straight-curve $-1 -29.298681308461347 55.914212418802592 7.3788199625922459 0 1 0 I I #
edge $-1 $760 10.28838991656896 $631 27.732192867215815 $630 $821 forward 7 unknown #
vertex $-1 $759 $822 #
straight-curve $-1 -29.298681308461347 -3.4509876619180631 50.356180660298364 0 -0.55919289150049634 0.82903758062907751 I I #
point $-1 -29.298681308461347 25.537607257233855 7.3788199625922459 #
point $-1 -46.742484259108203 29.150355510924392 2.0227002457898919 #
straight-curve $-1 0 29.150355510924392 7.3788199625922468 -1 0 0 I I #
vertex $-1 $637 $823 #
point $-1 -40.758540558923386 24.706251841218794 2.921589117817792 #
vertex $-1 $641 $824 #
point $-1 -33.282625008646164 24.706251841218794 2.921589117817792 #
coedge $-1 $656 $655 $648 $770 forward $645 $-1 #
edge $-1 $771 56.677741930433328 $774 62.033861647235682 $769 $825 forward 7 unknown #
vertex $-1 $660 $826 #
straight-curve $-1 46.742484259108188 55.914212418802592 7.3788199625922459 0 1 0 I I #
edge $-1 $774 -27.732192867215808 $657 -10.288389916568953 $656 $827 forward 7 unknown #
vertex $-1 $773 $828 #
straight-curve $-1 46.742484259108188 -3.4509876619180631 50.356180660298364 0 -0.55919289150049634 0.82903758062907751 I I #
point $-1 46.742484259108188 25.537607257233855 7.3788199625922459 #
point $-1 29.298681308461333 29.150355510924392 2.0227002457898919 #
straight-curve $-1 0 29.150355510924392 7.3788199625922468 -1 0 0 I I #
vertex $-1 $663 $829 #
point $-1 35.28262500864615 24.706251841218794 2.921589117817792 #
vertex $-1 $667 $830 #
point $-1 42.758540558923372 24.706251841218794 2.921589117817792 #
point $-1 -69.526047547837763 -29.150355510924392 -7.3788199625922468 #
straight-curve $-1 -69.526047547837763 0 -7.3788199625922468 0 1 0 I I #
point $-1 -69.526047547837763 29.150355510924392 -7.3788199625922468 #
straight-curve $-1 -69.526047547837763 29.150355510924392 0 0 0 -1 I I #
coedge $-1 $690 $689 $700 $792 reversed $360 $-1 #
edge $-1 $793 -29.150355510924392 $693 29.150355510924392 $689 $831 forward 7 unknown #
straight-curve $-1 -77.290258680936333 29.150355510924392 -5.75395728245417 0 0 -1 I I #
point $-1 -77.290258680936333 29.150355510924392 -7.3788199625922468 #
point $-1 -77.290258680936333 29.150355510924392 -4.1290946023160933 #
edge $-1 $704 -1.6248626801380768 $793 1.6248626801380768 $787 $832 forward 7 unknown #
vertex $-1 $788 $833 #
straight-curve $-1 -73.408153114387048 -29.150355510924392 -7.3788199625922468 -1 0 0 I I #
straight-curve $-1 -77.290258680936333 0 -4.1290946023160933 0 -1 0 I I #
point $-1 -77.290258680936333 -29.150355510924392 -4.1290946023160933 #
edge $-1 $717 -29.150355510924392 $798 29.150355510924392 $707 $834 forward 7 unknown #
vertex $-1 $709 $835 #
straight-curve $-1 77.290258680936333 -29.150355510924392 -5.75395728245417 0 0 -1 I I #
point $-1 77.290258680936333 -29.150355510924392 -4.1290946023160933 #
point $-1 77.290258680936333 29.150355510924392 -4.1290946023160933 #
straight-curve $-1 77.290258680936333 29.150355510924392 -5.75395728245417 0 0 -1 I I #
point $-1 77.290258680936333 29.150355510924392 -7.3788199625922468 #
straight-curve $-1 73.408153114387048 -29.150355510924392 -7.3788199625922468 -1 0 0 I I #
straight-curve $-1 -39.913422757264954 -29.150355510924392 56.196350316849873 0 0 -1 I I #
point $-1 -39.913422757264954 -29.150355510924392 7.3788199625922468 #
straight-curve $-1 -12.427467210704485 -29.150355510924392 1.3407605421517781 1 0 0 I I #
point $-1 -39.913422757264954 -29.150355510924392 1.340760542151779 #
point $-1 -33.890027422922557 -20.32434171464644 -2.0360695220036709 #
point $-1 -24.85493442140897 -20.32434171464644 -2.0360695220036709 #
point $-1 -15.819841419895383 -20.32434171464644 -2.0360695220036709 #
straight-curve $-1 9.7964460855529865 -29.150355510924392 56.196350316849873 0 0 -1 I I #
point $-1 9.7964460855529865 -29.150355510924392 7.3788199625922468 #
straight-curve $-1 12.427467210704485 -29.150355510924392 1.3407605421517781 1 0 0 I I #
point $-1 9.7964460855529865 -29.150355510924392 1.340760542151779 #
point $-1 15.819841419895383 -20.32434171464644 -2.0360695220036709 #
point $-1 24.85493442140897 -20.32434171464644 -2.0360695220036709 #
point $-1 33.890027422922557 -20.32434171464644 -2.0360695220036709 #
straight-curve $-1 -29.298681308461347 29.150355510924392 64.056561893025574 0 0 -1 I I #
point $-1 -29.298681308461347 29.150355510924392 7.3788199625922468 #
straight-curve $-1 -19.010291391892387 29.150355510924392 2.0227002457898848 -1 0 0 I I #
point $-1 -29.298681308461347 29.150355510924392 2.0227002457898919 #
point $-1 -41.758540558923386 23.877214260589717 2.362396226317296 #
point $-1 -34.282625008646164 23.877214260589717 2.362396226317296 #
straight-curve $-1 46.742484259108188 29.150355510924392 64.056561893025574 0 0 -1 I I #
point $-1 46.742484259108188 29.150355510924392 7.3788199625922468 #
straight-curve $-1 19.01029139189238 29.150355510924392 2.0227002457898848 -1 0 0 I I #
point $-1 46.742484259108188 29.150355510924392 2.0227002457898919 #
point $-1 34.28262500864615 23.877214260589717 2.362396226317296 #
point $-1 41.758540558923372 23.877214260589717 2.362396226317296 #
straight-curve $-1 -77.290258680936333 0 -7.3788199625922468 0 1 0 I I #
straight-curve $-1 -77.290258680936333 -29.150355510924392 -5.75395728245417 0 0 -1 I I #
point $-1 -77.290258680936333 -29.150355510924392 -7.3788199625922468 #
straight-curve $-1 77.290258680936333 0 -7.3788199625922468 0 -1 0 I I #
point $-1 77.290258680936333 -29.150355510924392 -7.3788199625922468 #
End-of-ACIS-data 