500 0 18 0           
7 Unknown 11 ACIS 5.0 NT 24 Fri Mar 26 19:48:58 1999 
-1 9.9999999999999995e-007 1e-010 
body $-1 $18 $-1 $19 #
body $-1 $20 $-1 $21 #
body $-1 $22 $-1 $23 #
body $-1 $24 $-1 $25 #
body $-1 $26 $-1 $27 #
body $-1 $28 $-1 $29 #
body $-1 $30 $-1 $31 #
body $-1 $32 $-1 $33 #
body $-1 $34 $-1 $35 #
body $-1 $36 $-1 $37 #
body $-1 $38 $-1 $39 #
body $-1 $40 $-1 $41 #
body $-1 $42 $-1 $43 #
body $-1 $44 $-1 $45 #
body $-1 $46 $-1 $47 #
body $-1 $48 $-1 $49 #
body $-1 $50 $-1 $51 #
body $-1 $52 $-1 $53 #
lump $-1 $-1 $54 $0 #
transform $-1 1 0 0 0 1 0 0 0 1 45.98651081881161 31.454593759777062 9.27673888899605 1 rotate no_reflect no_shear #
lump $-1 $-1 $55 $1 #
transform $-1 1 0 0 0 1 0 0 0 1 45.98651081881161 31.454593759777062 9.27673888899605 1 rotate no_reflect no_shear #
lump $-1 $-1 $56 $2 #
transform $-1 1 0 0 0 1 0 0 0 1 45.98651081881161 31.454593759777062 9.27673888899605 1 rotate no_reflect no_shear #
lump $-1 $-1 $57 $3 #
transform $-1 1 0 0 0 1 0 0 0 1 45.98651081881161 31.454593759777062 9.27673888899605 1 rotate no_reflect no_shear #
lump $-1 $-1 $58 $4 #
transform $-1 1 0 0 0 1 0 0 0 1 45.98651081881161 31.454593759777062 9.27673888899605 1 rotate no_reflect no_shear #
lump $-1 $-1 $59 $5 #
transform $-1 1 0 0 0 1 0 0 0 1 45.98651081881161 31.454593759777062 9.27673888899605 1 rotate no_reflect no_shear #
lump $-1 $-1 $60 $6 #
transform $-1 1 0 0 0 1 0 0 0 1 45.98651081881161 31.454593759777062 9.27673888899605 1 rotate no_reflect no_shear #
lump $-1 $-1 $61 $7 #
transform $-1 1 0 0 0 1 0 0 0 1 45.98651081881161 31.454593759777062 9.27673888899605 1 rotate no_reflect no_shear #
lump $-1 $-1 $62 $8 #
transform $-1 1 0 0 0 1 0 0 0 1 45.98651081881161 31.454593759777062 9.27673888899605 1 rotate no_reflect no_shear #
lump $-1 $-1 $63 $9 #
transform $-1 1 0 0 0 1 0 0 0 1 45.98651081881161 31.454593759777062 9.27673888899605 1 rotate no_reflect no_shear #
lump $-1 $-1 $64 $10 #
transform $-1 1 0 0 0 1 0 0 0 1 45.98651081881161 31.454593759777062 9.27673888899605 1 rotate no_reflect no_shear #
lump $-1 $-1 $65 $11 #
transform $-1 1 0 0 0 1 0 0 0 1 45.98651081881161 31.454593759777062 9.27673888899605 1 rotate no_reflect no_shear #
lump $-1 $-1 $66 $12 #
transform $-1 1 0 0 0 1 0 0 0 1 45.98651081881161 31.454593759777062 9.27673888899605 1 rotate no_reflect no_shear #
lump $-1 $-1 $67 $13 #
transform $-1 1 0 0 0 1 0 0 0 1 45.98651081881161 31.454593759777062 9.27673888899605 1 rotate no_reflect no_shear #
lump $-1 $-1 $68 $14 #
transform $-1 1 0 0 0 1 0 0 0 1 45.98651081881161 31.454593759777062 9.27673888899605 1 rotate no_reflect no_shear #
lump $-1 $-1 $69 $15 #
transform $-1 1 0 0 0 1 0 0 0 1 45.98651081881161 31.454593759777062 9.27673888899605 1 rotate no_reflect no_shear #
lump $-1 $-1 $70 $16 #
transform $-1 1 0 0 0 1 0 0 0 1 45.98651081881161 31.454593759777062 9.27673888899605 1 rotate no_reflect no_shear #
lump $-1 $-1 $71 $17 #
transform $-1 1 0 0 0 1 0 0 0 1 45.98651081881161 31.454593759777062 9.27673888899605 1 rotate no_reflect no_shear #
shell $-1 $-1 $-1 $72 $-1 $18 #
shell $-1 $-1 $-1 $73 $-1 $20 #
shell $-1 $-1 $-1 $74 $-1 $22 #
shell $-1 $-1 $-1 $75 $-1 $24 #
shell $-1 $-1 $-1 $76 $-1 $26 #
shell $-1 $-1 $-1 $77 $-1 $28 #
shell $-1 $-1 $-1 $78 $-1 $30 #
shell $-1 $-1 $-1 $79 $-1 $32 #
shell $-1 $-1 $-1 $80 $-1 $34 #
shell $-1 $-1 $-1 $81 $-1 $36 #
shell $-1 $-1 $-1 $82 $-1 $38 #
shell $-1 $-1 $-1 $83 $-1 $40 #
shell $-1 $-1 $-1 $84 $-1 $42 #
shell $-1 $-1 $-1 $85 $-1 $44 #
shell $-1 $-1 $-1 $86 $-1 $46 #
shell $-1 $-1 $-1 $87 $-1 $48 #
shell $-1 $-1 $-1 $88 $-1 $50 #
shell $-1 $-1 $-1 $89 $-1 $52 #
face $-1 $90 $91 $54 $-1 $92 forward single #
face $-1 $93 $94 $55 $-1 $95 forward single #
face $-1 $96 $97 $56 $-1 $98 reversed single #
face $-1 $99 $100 $57 $-1 $101 forward single #
face $-1 $102 $103 $58 $-1 $104 forward single #
face $-1 $105 $106 $59 $-1 $107 forward single #
face $-1 $108 $109 $60 $-1 $110 reversed single #
face $-1 $111 $112 $61 $-1 $113 forward single #
face $-1 $114 $115 $62 $-1 $116 forward single #
face $-1 $117 $118 $63 $-1 $119 forward single #
face $-1 $120 $121 $64 $-1 $122 reversed single #
face $-1 $123 $124 $65 $-1 $125 forward single #
face $-1 $126 $127 $66 $-1 $128 forward single #
face $-1 $129 $130 $67 $-1 $131 forward single #
face $-1 $132 $133 $68 $-1 $134 reversed single #
face $-1 $135 $136 $69 $-1 $137 forward single #
face $-1 $138 $139 $70 $-1 $140 forward single #
face $-1 $141 $142 $71 $-1 $143 forward single #
face $-1 $144 $145 $54 $-1 $146 reversed single #
loop $-1 $-1 $147 $72 #
plane-surface $-1 0 0 9.27673888899605 0 0 1 1 0 0 forward_v I I I I #
face $-1 $148 $149 $55 $-1 $150 reversed single #
loop $-1 $-1 $151 $73 #
plane-surface $-1 0 -26.622080094168496 -0.7308533075322039 0 0 1 1 0 0 forward_v I I I I #
face $-1 $152 $153 $56 $-1 $154 reversed single #
loop $-1 $-1 $155 $74 #
plane-surface $-1 -122.23560216041255 -16.72286887835422 51.864344312933838 0 1 0 -0.82903758062907751 0 0.55919289150049634 forward_v I I I I #
face $-1 $156 $157 $57 $-1 $158 forward single #
loop $-1 $159 $160 $75 #
cone-surface $-1 -41.866203095541671 -14.111934314868336 4.0876546807958691 0.82903758062907751 0 -0.55919289150049634 0.55919289150049634 0 0.82903758062907751 1 I I 0 1 1 forward I I I I #
face $-1 $161 $162 $58 $-1 $163 forward single #
loop $-1 $164 $165 $76 #
cone-surface $-1 -41.866203095541671 -10.19553246963951 4.0876546807958691 0.82903758062907751 0 -0.55919289150049634 0.55919289150049634 0 0.82903758062907751 1 I I 0 1 1 forward I I I I #
face $-1 $166 $167 $59 $-1 $168 forward single #
loop $-1 $169 $170 $77 #
cone-surface $-1 -41.866203095541671 -6.2791306244106835 4.0876546807958691 0.82903758062907751 0 -0.55919289150049634 0.55919289150049634 0 0.82903758062907751 1 I I 0 1 1 forward I I I I #
face $-1 $171 $172 $60 $-1 $173 reversed single #
loop $-1 $-1 $174 $78 #
plane-surface $-1 -122.23560216041255 9.8992112158142778 51.864344312933838 0 1 0 -0.82903758062907751 0 0.55919289150049634 forward_v I I I I #
face $-1 $175 $176 $61 $-1 $177 forward single #
loop $-1 $178 $179 $79 #
cone-surface $-1 -41.866203095541671 12.51014577930016 4.0876546807958691 0.82903758062907751 0 -0.55919289150049634 0.55919289150049634 0 0.82903758062907751 1 I I 0 1 1 forward I I I I #
face $-1 $180 $181 $62 $-1 $182 forward single #
loop $-1 $183 $184 $80 #
cone-surface $-1 -41.866203095541671 16.426547624528986 4.0876546807958691 0.82903758062907751 0 -0.55919289150049634 0.55919289150049634 0 0.82903758062907751 1 I I 0 1 1 forward I I I I #
face $-1 $185 $186 $63 $-1 $187 forward single #
loop $-1 $188 $189 $81 #
cone-surface $-1 -41.866203095541671 20.342949469757812 4.0876546807958691 0.82903758062907751 0 -0.55919289150049634 0.55919289150049634 0 0.82903758062907751 1 I I 0 1 1 forward I I I I #
face $-1 $190 $191 $64 $-1 $192 reversed single #
loop $-1 $-1 $193 $82 #
plane-surface $-1 70.804942250832312 -3.6681960609248012 128.11343565453478 0 -1 0 -0.82903758062907751 0 -0.55919289150049634 forward_v I I I I #
face $-1 $194 $195 $65 $-1 $196 forward single #
loop $-1 $197 $198 $83 #
cone-surface $-1 41.866203095541678 -14.111934314868336 4.087654680795862 -0.82903758062907751 0 -0.55919289150049634 0.55919289150049634 0 -0.82903758062907751 1 I I 0 1 1 forward I I I I #
face $-1 $199 $200 $66 $-1 $201 forward single #
loop $-1 $202 $203 $84 #
cone-surface $-1 41.866203095541678 -10.19553246963951 4.087654680795862 -0.82903758062907751 0 -0.55919289150049634 0.55919289150049634 0 -0.82903758062907751 1 I I 0 1 1 forward I I I I #
face $-1 $204 $205 $67 $-1 $206 forward single #
loop $-1 $207 $208 $85 #
cone-surface $-1 41.866203095541678 -6.2791306244106835 4.087654680795862 -0.82903758062907751 0 -0.55919289150049634 0.55919289150049634 0 -0.82903758062907751 1 I I 0 1 1 forward I I I I #
face $-1 $209 $210 $68 $-1 $211 reversed single #
loop $-1 $-1 $212 $86 #
plane-surface $-1 70.804942250832312 22.953884033243696 128.11343565453478 0 -1 0 -0.82903758062907751 0 -0.55919289150049634 forward_v I I I I #
face $-1 $213 $214 $69 $-1 $215 forward single #
loop $-1 $216 $217 $87 #
cone-surface $-1 41.866203095541678 12.51014577930016 4.087654680795862 -0.82903758062907751 0 -0.55919289150049634 0.55919289150049634 0 -0.82903758062907751 1 I I 0 1 1 forward I I I I #
face $-1 $218 $219 $70 $-1 $220 forward single #
loop $-1 $221 $222 $88 #
cone-surface $-1 41.866203095541678 16.426547624528986 4.087654680795862 -0.82903758062907751 0 -0.55919289150049634 0.55919289150049634 0 -0.82903758062907751 1 I I 0 1 1 forward I I I I #
face $-1 $223 $224 $71 $-1 $225 forward single #
loop $-1 $226 $227 $89 #
cone-surface $-1 41.866203095541678 20.342949469757812 4.087654680795862 -0.82903758062907751 0 -0.55919289150049634 0.55919289150049634 0 -0.82903758062907751 1 I I 0 1 1 forward I I I I #
face $-1 $228 $229 $54 $-1 $230 reversed single #
loop $-1 $-1 $231 $90 #
plane-surface $-1 0 0 -9.27673888899605 0 0 1 1 0 0 forward_v I I I I #
coedge $-1 $232 $233 $234 $235 forward $91 $-1 #
face $-1 $236 $237 $55 $-1 $238 reversed single #
loop $-1 $-1 $239 $93 #
plane-surface $-1 0 -26.622080094168496 -4.8791837694269002 0 0 1 1 0 0 forward_v I I I I #
coedge $-1 $240 $241 $242 $243 reversed $94 $-1 #
face $-1 $244 $245 $56 $-1 $246 reversed single #
loop $-1 $-1 $247 $96 #
plane-surface $-1 -45.98651081881161 -10.19553246963951 0.43368440335359537 -0.82903758062907751 0 0.55919289150049634 0.55919289150049634 0 0.82903758062907751 forward_v I I I I #
coedge $-1 $248 $249 $250 $251 reversed $97 $-1 #
face $-1 $-1 $252 $57 $-1 $253 forward single #
loop $-1 $254 $255 $99 #
cone-surface $-1 -40.313734271804371 -14.111934314868336 3.0405012696666702 0.82903758062907751 0 -0.55919289150049634 0.27959644575024817 0 0.41451879031453875 1 I I -0.70710678118654746 0.70710678118654746 0.5 forward I I I I #
loop $-1 $-1 $256 $75 #
coedge $-1 $160 $160 $257 $258 reversed $100 $-1 #
face $-1 $-1 $259 $58 $-1 $260 forward single #
loop $-1 $261 $262 $102 #
cone-surface $-1 -40.313734271804371 -10.19553246963951 3.0405012696666702 0.82903758062907751 0 -0.55919289150049634 0.27959644575024817 0 0.41451879031453875 1 I I -0.70710678118654746 0.70710678118654746 0.5 forward I I I I #
loop $-1 $-1 $263 $76 #
coedge $-1 $165 $165 $264 $265 reversed $103 $-1 #
face $-1 $-1 $266 $59 $-1 $267 forward single #
loop $-1 $268 $269 $105 #
cone-surface $-1 -40.313734271804371 -6.2791306244106835 3.0405012696666702 0.82903758062907751 0 -0.55919289150049634 0.27959644575024817 0 0.41451879031453875 1 I I -0.70710678118654746 0.70710678118654746 0.5 forward I I I I #
loop $-1 $-1 $270 $77 #
coedge $-1 $170 $170 $271 $272 reversed $106 $-1 #
face $-1 $273 $274 $60 $-1 $275 reversed single #
loop $-1 $-1 $276 $108 #
plane-surface $-1 -45.98651081881161 16.426547624528986 0.43368440335359537 -0.82903758062907751 0 0.55919289150049634 0.55919289150049634 0 0.82903758062907751 forward_v I I I I #
coedge $-1 $277 $278 $279 $280 reversed $109 $-1 #
face $-1 $-1 $281 $61 $-1 $282 forward single #
loop $-1 $283 $284 $111 #
cone-surface $-1 -40.313734271804371 12.51014577930016 3.0405012696666702 0.82903758062907751 0 -0.55919289150049634 0.27959644575024817 0 0.41451879031453875 1 I I -0.70710678118654746 0.70710678118654746 0.5 forward I I I I #
loop $-1 $-1 $285 $79 #
coedge $-1 $179 $179 $286 $287 reversed $112 $-1 #
face $-1 $-1 $288 $62 $-1 $289 forward single #
loop $-1 $290 $291 $114 #
cone-surface $-1 -40.313734271804371 16.426547624528986 3.0405012696666702 0.82903758062907751 0 -0.55919289150049634 0.27959644575024817 0 0.41451879031453875 1 I I -0.70710678118654746 0.70710678118654746 0.5 forward I I I I #
loop $-1 $-1 $292 $80 #
coedge $-1 $184 $184 $293 $294 reversed $115 $-1 #
face $-1 $-1 $295 $63 $-1 $296 forward single #
loop $-1 $297 $298 $117 #
cone-surface $-1 -40.313734271804371 20.342949469757812 3.0405012696666702 0.82903758062907751 0 -0.55919289150049634 0.27959644575024817 0 0.41451879031453875 1 I I -0.70710678118654746 0.70710678118654746 0.5 forward I I I I #
loop $-1 $-1 $299 $81 #
coedge $-1 $189 $189 $300 $301 reversed $118 $-1 #
face $-1 $302 $303 $64 $-1 $304 reversed single #
loop $-1 $-1 $305 $120 #
plane-surface $-1 -5.444149090768633 -10.19553246963951 76.68277574495454 0.82903758062907751 0 0.55919289150049634 0.55919289150049634 0 -0.82903758062907751 forward_v I I I I #
coedge $-1 $306 $307 $308 $309 reversed $121 $-1 #
face $-1 $-1 $310 $65 $-1 $311 forward single #
loop $-1 $312 $313 $123 #
cone-surface $-1 40.313734271804378 -14.111934314868336 3.0405012696666631 -0.82903758062907751 0 -0.55919289150049634 0.27959644575024817 0 -0.41451879031453875 1 I I -0.70710678118654746 0.70710678118654746 0.5 forward I I I I #
loop $-1 $-1 $314 $83 #
coedge $-1 $198 $198 $315 $316 reversed $124 $-1 #
face $-1 $-1 $317 $66 $-1 $318 forward single #
loop $-1 $319 $320 $126 #
cone-surface $-1 40.313734271804378 -10.19553246963951 3.0405012696666631 -0.82903758062907751 0 -0.55919289150049634 0.27959644575024817 0 -0.41451879031453875 1 I I -0.70710678118654746 0.70710678118654746 0.5 forward I I I I #
loop $-1 $-1 $321 $84 #
coedge $-1 $203 $203 $322 $323 reversed $127 $-1 #
face $-1 $-1 $324 $67 $-1 $325 forward single #
loop $-1 $326 $327 $129 #
cone-surface $-1 40.313734271804378 -6.2791306244106835 3.0405012696666631 -0.82903758062907751 0 -0.55919289150049634 0.27959644575024817 0 -0.41451879031453875 1 I I -0.70710678118654746 0.70710678118654746 0.5 forward I I I I #
loop $-1 $-1 $328 $85 #
coedge $-1 $208 $208 $329 $330 reversed $130 $-1 #
face $-1 $331 $332 $68 $-1 $333 reversed single #
loop $-1 $-1 $334 $132 #
plane-surface $-1 -5.444149090768633 16.426547624528986 76.68277574495454 0.82903758062907751 0 0.55919289150049634 0.55919289150049634 0 -0.82903758062907751 forward_v I I I I #
coedge $-1 $335 $336 $337 $338 reversed $133 $-1 #
face $-1 $-1 $339 $69 $-1 $340 forward single #
loop $-1 $341 $342 $135 #
cone-surface $-1 40.313734271804378 12.51014577930016 3.0405012696666631 -0.82903758062907751 0 -0.55919289150049634 0.27959644575024817 0 -0.41451879031453875 1 I I -0.70710678118654746 0.70710678118654746 0.5 forward I I I I #
loop $-1 $-1 $343 $87 #
coedge $-1 $217 $217 $344 $345 reversed $136 $-1 #
face $-1 $-1 $346 $70 $-1 $347 forward single #
loop $-1 $348 $349 $138 #
cone-surface $-1 40.313734271804378 16.426547624528986 3.0405012696666631 -0.82903758062907751 0 -0.55919289150049634 0.27959644575024817 0 -0.41451879031453875 1 I I -0.70710678118654746 0.70710678118654746 0.5 forward I I I I #
loop $-1 $-1 $350 $88 #
coedge $-1 $222 $222 $351 $352 reversed $139 $-1 #
face $-1 $-1 $353 $71 $-1 $354 forward single #
loop $-1 $355 $356 $141 #
cone-surface $-1 40.313734271804378 20.342949469757812 3.0405012696666631 -0.82903758062907751 0 -0.55919289150049634 0.27959644575024817 0 -0.41451879031453875 1 I I -0.70710678118654746 0.70710678118654746 0.5 forward I I I I #
loop $-1 $-1 $357 $89 #
coedge $-1 $227 $227 $358 $359 reversed $142 $-1 #
face $-1 $360 $361 $54 $-1 $362 reversed single #
loop $-1 $-1 $363 $144 #
plane-surface $-1 0 -31.454593759777062 0 0 1 0 0 0 1 forward_v I I I I #
coedge $-1 $364 $365 $366 $367 forward $145 $-1 #
coedge $-1 $368 $147 $369 $370 forward $91 $-1 #
coedge $-1 $147 $368 $371 $372 forward $91 $-1 #
coedge $-1 $373 $374 $147 $235 reversed $375 $-1 #
edge $-1 $376 -31.454593759777062 $377 31.454593759777062 $234 $378 forward 7 unknown #
face $-1 $379 $380 $55 $-1 $381 reversed single #
loop $-1 $-1 $382 $148 #
plane-surface $-1 0 -21.78956642855993 -2.8050185384795521 0 -1 0 0 0 -1 forward_v I I I I #
coedge $-1 $383 $384 $385 $386 reversed $149 $-1 #
coedge $-1 $387 $151 $388 $389 forward $94 $-1 #
coedge $-1 $151 $387 $390 $391 reversed $94 $-1 #
coedge $-1 $392 $393 $151 $243 forward $394 $-1 #
edge $-1 $395 8.4785263814756817 $396 18.143553712692814 $242 $397 forward 7 unknown #
face $-1 $398 $399 $56 $-1 $400 reversed single #
loop $-1 $-1 $401 $152 #
plane-surface $-1 -122.23560216041255 -3.6681960609248012 51.864344312933838 0 -1 0 0.82903758062907751 0 -0.55919289150049634 forward_v I I I I #
coedge $-1 $402 $403 $404 $405 reversed $153 $-1 #
coedge $-1 $249 $155 $406 $407 reversed $97 $-1 #
coedge $-1 $155 $248 $402 $408 reversed $97 $-1 #
coedge $-1 $404 $409 $155 $251 forward $410 $-1 #
edge $-1 $411 15.131290261394668 $412 21.096005641089 $250 $413 forward 7 unknown #
loop $-1 $-1 $257 $156 #
plane-surface $-1 -45.98651081881161 -10.19553246963951 0.43368440335359537 -0.82903758062907751 0 0.55919289150049634 0.55919289150049634 0 0.82903758062907751 forward_v I I I I #
loop $-1 $-1 $414 $99 #
coedge $-1 $255 $255 $256 $415 reversed $157 $-1 #
coedge $-1 $256 $256 $255 $415 forward $159 $-1 #
coedge $-1 $257 $257 $160 $258 forward $252 $-1 #
edge $-1 $416 0 $416 6.2831853071796004 $257 $417 forward 7 unknown #
loop $-1 $-1 $264 $161 #
plane-surface $-1 -45.98651081881161 -10.19553246963951 0.43368440335359537 -0.82903758062907751 0 0.55919289150049634 0.55919289150049634 0 0.82903758062907751 forward_v I I I I #
loop $-1 $-1 $418 $102 #
coedge $-1 $262 $262 $263 $419 reversed $162 $-1 #
coedge $-1 $263 $263 $262 $419 forward $164 $-1 #
coedge $-1 $264 $264 $165 $265 forward $259 $-1 #
edge $-1 $420 0 $420 6.2831853071796004 $264 $421 forward 7 unknown #
loop $-1 $-1 $271 $166 #
plane-surface $-1 -45.98651081881161 -10.19553246963951 0.43368440335359537 -0.82903758062907751 0 0.55919289150049634 0.55919289150049634 0 0.82903758062907751 forward_v I I I I #
loop $-1 $-1 $422 $105 #
coedge $-1 $269 $269 $270 $423 reversed $167 $-1 #
coedge $-1 $270 $270 $269 $423 forward $169 $-1 #
coedge $-1 $271 $271 $170 $272 forward $266 $-1 #
edge $-1 $424 0 $424 6.2831853071796004 $271 $425 forward 7 unknown #
face $-1 $426 $427 $60 $-1 $428 forward single #
loop $-1 $-1 $429 $171 #
plane-surface $-1 -122.23560216041255 22.953884033243696 51.864344312933838 0 -1 0 0.82903758062907751 0 -0.55919289150049634 forward_v I I I I #
coedge $-1 $430 $431 $432 $433 reversed $172 $-1 #
coedge $-1 $278 $174 $434 $435 reversed $109 $-1 #
coedge $-1 $174 $277 $430 $436 reversed $109 $-1 #
coedge $-1 $432 $437 $174 $280 forward $427 $-1 #
edge $-1 $438 15.131290261394668 $439 21.096005641089 $279 $440 forward 7 unknown #
loop $-1 $-1 $286 $175 #
plane-surface $-1 -45.98651081881161 16.426547624528986 0.43368440335359537 -0.82903758062907751 0 0.55919289150049634 0.55919289150049634 0 0.82903758062907751 forward_v I I I I #
loop $-1 $-1 $441 $111 #
coedge $-1 $284 $284 $285 $442 reversed $176 $-1 #
coedge $-1 $285 $285 $284 $442 forward $178 $-1 #
coedge $-1 $286 $286 $179 $287 forward $281 $-1 #
edge $-1 $443 0 $443 6.2831853071796004 $286 $444 forward 7 unknown #
loop $-1 $-1 $293 $180 #
plane-surface $-1 -45.98651081881161 16.426547624528986 0.43368440335359537 -0.82903758062907751 0 0.55919289150049634 0.55919289150049634 0 0.82903758062907751 forward_v I I I I #
loop $-1 $-1 $445 $114 #
coedge $-1 $291 $291 $292 $446 reversed $181 $-1 #
coedge $-1 $292 $292 $291 $446 forward $183 $-1 #
coedge $-1 $293 $293 $184 $294 forward $288 $-1 #
edge $-1 $447 0 $447 6.2831853071796004 $293 $448 forward 7 unknown #
loop $-1 $-1 $300 $185 #
plane-surface $-1 -45.98651081881161 16.426547624528986 0.43368440335359537 -0.82903758062907751 0 0.55919289150049634 0.55919289150049634 0 0.82903758062907751 forward_v I I I I #
loop $-1 $-1 $449 $117 #
coedge $-1 $298 $298 $299 $450 reversed $186 $-1 #
coedge $-1 $299 $299 $298 $450 forward $188 $-1 #
coedge $-1 $300 $300 $189 $301 forward $295 $-1 #
edge $-1 $451 0 $451 6.2831853071796004 $300 $452 forward 7 unknown #
face $-1 $453 $454 $64 $-1 $455 forward single #
loop $-1 $-1 $456 $190 #
plane-surface $-1 70.804942250832312 -16.72286887835422 128.11343565453478 0 1 0 0.82903758062907751 0 0.55919289150049634 forward_v I I I I #
coedge $-1 $457 $458 $459 $460 reversed $191 $-1 #
coedge $-1 $307 $193 $461 $462 reversed $121 $-1 #
coedge $-1 $193 $306 $457 $463 reversed $121 $-1 #
coedge $-1 $459 $464 $193 $309 forward $454 $-1 #
edge $-1 $465 -10.584039693395454 $466 -4.6193243137011208 $308 $467 forward 7 unknown #
loop $-1 $-1 $315 $194 #
plane-surface $-1 -5.444149090768633 -10.19553246963951 76.68277574495454 0.82903758062907751 0 0.55919289150049634 0.55919289150049634 0 -0.82903758062907751 forward_v I I I I #
loop $-1 $-1 $468 $123 #
coedge $-1 $313 $313 $314 $469 reversed $195 $-1 #
coedge $-1 $314 $314 $313 $469 forward $197 $-1 #
coedge $-1 $315 $315 $198 $316 forward $310 $-1 #
edge $-1 $470 0 $470 6.2831853071796004 $315 $471 forward 7 unknown #
loop $-1 $-1 $322 $199 #
plane-surface $-1 -5.444149090768633 -10.19553246963951 76.68277574495454 0.82903758062907751 0 0.55919289150049634 0.55919289150049634 0 -0.82903758062907751 forward_v I I I I #
loop $-1 $-1 $472 $126 #
coedge $-1 $320 $320 $321 $473 reversed $200 $-1 #
coedge $-1 $321 $321 $320 $473 forward $202 $-1 #
coedge $-1 $322 $322 $203 $323 forward $317 $-1 #
edge $-1 $474 0 $474 6.2831853071796004 $322 $475 forward 7 unknown #
loop $-1 $-1 $329 $204 #
plane-surface $-1 -5.444149090768633 -10.19553246963951 76.68277574495454 0.82903758062907751 0 0.55919289150049634 0.55919289150049634 0 -0.82903758062907751 forward_v I I I I #
loop $-1 $-1 $476 $129 #
coedge $-1 $327 $327 $328 $477 reversed $205 $-1 #
coedge $-1 $328 $328 $327 $477 forward $207 $-1 #
coedge $-1 $329 $329 $208 $330 forward $324 $-1 #
edge $-1 $478 0 $478 6.2831853071796004 $329 $479 forward 7 unknown #
face $-1 $480 $481 $68 $-1 $482 reversed single #
loop $-1 $-1 $483 $209 #
plane-surface $-1 70.804942250832312 9.8992112158142778 128.11343565453478 0 1 0 0.82903758062907751 0 0.55919289150049634 forward_v I I I I #
coedge $-1 $484 $485 $486 $487 reversed $210 $-1 #
coedge $-1 $336 $212 $488 $489 reversed $133 $-1 #
coedge $-1 $212 $335 $484 $490 reversed $133 $-1 #
coedge $-1 $486 $491 $212 $338 forward $492 $-1 #
edge $-1 $493 -10.584039693395454 $494 -4.6193243137011208 $337 $495 forward 7 unknown #
loop $-1 $-1 $344 $213 #
plane-surface $-1 -5.444149090768633 16.426547624528986 76.68277574495454 0.82903758062907751 0 0.55919289150049634 0.55919289150049634 0 -0.82903758062907751 forward_v I I I I #
loop $-1 $-1 $496 $135 #
coedge $-1 $342 $342 $343 $497 reversed $214 $-1 #
coedge $-1 $343 $343 $342 $497 forward $216 $-1 #
coedge $-1 $344 $344 $217 $345 forward $339 $-1 #
edge $-1 $498 0 $498 6.2831853071796004 $344 $499 forward 7 unknown #
loop $-1 $-1 $351 $218 #
plane-surface $-1 -5.444149090768633 16.426547624528986 76.68277574495454 0.82903758062907751 0 0.55919289150049634 0.55919289150049634 0 -0.82903758062907751 forward_v I I I I #
loop $-1 $-1 $500 $138 #
coedge $-1 $349 $349 $350 $501 reversed $219 $-1 #
coedge $-1 $350 $350 $349 $501 forward $221 $-1 #
coedge $-1 $351 $351 $222 $352 forward $346 $-1 #
edge $-1 $502 0 $502 6.2831853071796004 $351 $503 forward 7 unknown #
loop $-1 $-1 $358 $223 #
plane-surface $-1 -5.444149090768633 16.426547624528986 76.68277574495454 0.82903758062907751 0 0.55919289150049634 0.55919289150049634 0 -0.82903758062907751 forward_v I I I I #
loop $-1 $-1 $504 $141 #
coedge $-1 $356 $356 $357 $505 reversed $224 $-1 #
coedge $-1 $357 $357 $356 $505 forward $226 $-1 #
coedge $-1 $358 $358 $227 $359 forward $353 $-1 #
edge $-1 $506 0 $506 6.2831853071796004 $358 $507 forward 7 unknown #
face $-1 $508 $509 $54 $-1 $510 reversed single #
loop $-1 $-1 $511 $228 #
plane-surface $-1 -45.98651081881161 0 0 1 0 0 0 0 -1 forward_v I I I I #
coedge $-1 $512 $371 $513 $514 forward $229 $-1 #
coedge $-1 $515 $231 $512 $516 forward $145 $-1 #
coedge $-1 $231 $515 $517 $518 forward $145 $-1 #
coedge $-1 $374 $373 $231 $367 reversed $375 $-1 #
edge $-1 $519 -31.454593759777062 $520 31.454593759777062 $366 $521 forward 7 unknown #
coedge $-1 $233 $232 $522 $523 forward $91 $-1 #
coedge $-1 $524 $525 $232 $370 reversed $509 $-1 #
edge $-1 $377 -45.98651081881161 $526 45.98651081881161 $369 $527 forward 7 unknown #
coedge $-1 $363 $528 $233 $372 reversed $229 $-1 #
edge $-1 $529 -45.98651081881161 $376 45.98651081881161 $371 $530 forward 7 unknown #
coedge $-1 $366 $234 $528 $531 forward $375 $-1 #
coedge $-1 $234 $366 $524 $532 reversed $375 $-1 #
loop $-1 $-1 $373 $508 #
vertex $-1 $235 $533 #
vertex $-1 $235 $534 #
straight-curve $-1 45.98651081881161 0 9.27673888899605 0 1 0 I I #
face $-1 $535 $536 $55 $-1 $537 reversed single #
loop $-1 $-1 $538 $236 #
plane-surface $-1 -45.98651081881161 0 0 1 0 0 0 0 -1 forward_v I I I I #
coedge $-1 $539 $388 $393 $540 reversed $237 $-1 #
coedge $-1 $541 $239 $542 $543 reversed $149 $-1 #
coedge $-1 $239 $541 $539 $544 forward $149 $-1 #
coedge $-1 $393 $392 $239 $386 forward $394 $-1 #
edge $-1 $545 -18.143553712692814 $546 -8.4785263814756817 $385 $547 forward 7 unknown #
coedge $-1 $241 $240 $538 $548 reversed $94 $-1 #
coedge $-1 $382 $549 $240 $389 reversed $237 $-1 #
edge $-1 $395 -45.98651081881161 $550 45.98651081881161 $388 $551 forward 7 unknown #
coedge $-1 $552 $553 $241 $391 forward $536 $-1 #
edge $-1 $396 -45.98651081881161 $554 45.98651081881161 $390 $555 forward 7 unknown #
coedge $-1 $385 $242 $553 $556 forward $394 $-1 #
coedge $-1 $242 $385 $382 $540 forward $394 $-1 #
loop $-1 $-1 $242 $535 #
vertex $-1 $243 $557 #
vertex $-1 $556 $558 #
straight-curve $-1 45.98651081881161 -13.311040047084248 -0.7308533075322039 0 -1 0 I I #
face $-1 $-1 $410 $56 $-1 $559 forward single #
loop $-1 $-1 $560 $244 #
plane-surface $-1 -45.98651081881161 0 0 1 0 0 0 0 -1 forward_v I I I I #
coedge $-1 $561 $562 $563 $564 reversed $245 $-1 #
coedge $-1 $565 $247 $249 $408 forward $153 $-1 #
coedge $-1 $247 $565 $561 $566 forward $153 $-1 #
coedge $-1 $563 $250 $247 $405 forward $410 $-1 #
edge $-1 $412 -11.625102643534465 $567 1.4295701738949536 $404 $568 forward 7 unknown #
coedge $-1 $569 $570 $248 $407 forward $399 $-1 #
edge $-1 $571 -25.498487753113324 $411 -16.655433267470869 $406 $572 forward 7 unknown #
edge $-1 $412 -10.666650936296886 $571 0 $249 $573 forward 7 unknown #
coedge $-1 $250 $563 $569 $574 forward $410 $-1 #
loop $-1 $-1 $563 $398 #
vertex $-1 $407 $575 #
vertex $-1 $251 $576 #
straight-curve $-1 -61.117801080206277 -16.72286887835422 9.27673888899605 1 0 0 I I #
coedge $-1 $414 $414 $-1 $577 reversed $254 $-1 #
edge $-1 $578 0 $578 6.2831853071796004 $255 $579 forward 7 unknown #
vertex $-1 $258 $580 #
ellipse-curve $-1 -43.00415312896444 -14.111934314868336 4.8552116461748245 -0.82903758062907751 0 0.55919289150049634 0.55919289150049634 0 0.82903758062907751 1 I I #
coedge $-1 $418 $418 $-1 $581 reversed $261 $-1 #
edge $-1 $582 0 $582 6.2831853071796004 $262 $583 forward 7 unknown #
vertex $-1 $265 $584 #
ellipse-curve $-1 -43.00415312896444 -10.19553246963951 4.8552116461748245 -0.82903758062907751 0 0.55919289150049634 0.55919289150049634 0 0.82903758062907751 1 I I #
coedge $-1 $422 $422 $-1 $585 reversed $268 $-1 #
edge $-1 $586 0 $586 6.2831853071796004 $269 $587 forward 7 unknown #
vertex $-1 $272 $588 #
ellipse-curve $-1 -43.00415312896444 -6.2791306244106835 4.8552116461748245 -0.82903758062907751 0 0.55919289150049634 0.55919289150049634 0 0.82903758062907751 1 I I #
face $-1 $-1 $589 $60 $-1 $590 reversed single #
loop $-1 $-1 $279 $273 #
plane-surface $-1 0 0 9.27673888899605 0 0 1 1 0 0 forward_v I I I I #
coedge $-1 $591 $592 $593 $594 reversed $274 $-1 #
coedge $-1 $595 $276 $278 $436 forward $172 $-1 #
coedge $-1 $276 $595 $591 $596 forward $172 $-1 #
coedge $-1 $593 $279 $276 $433 forward $427 $-1 #
edge $-1 $439 1.6859374035497847 $597 14.740610220979203 $432 $598 forward 7 unknown #
coedge $-1 $599 $600 $277 $435 forward $589 $-1 #
edge $-1 $601 -25.498487753113324 $438 -16.655433267470869 $434 $602 forward 7 unknown #
edge $-1 $439 -10.666650936296886 $601 0 $278 $603 forward 7 unknown #
coedge $-1 $279 $593 $599 $604 forward $427 $-1 #
vertex $-1 $280 $605 #
vertex $-1 $280 $606 #
straight-curve $-1 -61.117801080206277 9.8992112158142778 9.27673888899605 1 0 0 I I #
coedge $-1 $441 $441 $-1 $607 reversed $283 $-1 #
edge $-1 $608 0 $608 6.2831853071796004 $284 $609 forward 7 unknown #
vertex $-1 $287 $610 #
ellipse-curve $-1 -43.00415312896444 12.51014577930016 4.8552116461748245 -0.82903758062907751 0 0.55919289150049634 0.55919289150049634 0 0.82903758062907751 1 I I #
coedge $-1 $445 $445 $-1 $611 reversed $290 $-1 #
edge $-1 $612 0 $612 6.2831853071796004 $291 $613 forward 7 unknown #
vertex $-1 $294 $614 #
ellipse-curve $-1 -43.00415312896444 16.426547624528986 4.8552116461748245 -0.82903758062907751 0 0.55919289150049634 0.55919289150049634 0 0.82903758062907751 1 I I #
coedge $-1 $449 $449 $-1 $615 reversed $297 $-1 #
edge $-1 $616 0 $616 6.2831853071796004 $298 $617 forward 7 unknown #
vertex $-1 $301 $618 #
ellipse-curve $-1 -43.00415312896444 20.342949469757812 4.8552116461748245 -0.82903758062907751 0 0.55919289150049634 0.55919289150049634 0 0.82903758062907751 1 I I #
face $-1 $-1 $619 $64 $-1 $620 reversed single #
loop $-1 $-1 $308 $302 #
plane-surface $-1 0 0 9.27673888899605 0 0 1 1 0 0 forward_v I I I I #
coedge $-1 $621 $622 $623 $624 reversed $303 $-1 #
coedge $-1 $625 $305 $307 $463 forward $191 $-1 #
coedge $-1 $305 $625 $621 $626 forward $191 $-1 #
coedge $-1 $623 $308 $305 $460 forward $454 $-1 #
edge $-1 $466 -1.4295701738949536 $627 11.625102643534465 $459 $628 forward 7 unknown #
coedge $-1 $629 $630 $306 $462 forward $619 $-1 #
edge $-1 $631 -63.623033423913796 $465 -54.779978938271341 $461 $632 forward 7 unknown #
edge $-1 $466 81.30637070132633 $631 91.973021637623219 $307 $633 forward 7 unknown #
coedge $-1 $308 $623 $629 $634 forward $454 $-1 #
vertex $-1 $462 $635 #
vertex $-1 $309 $636 #
straight-curve $-1 35.402471125416156 -3.6681960609248012 9.27673888899605 -1 0 0 I I #
coedge $-1 $468 $468 $-1 $637 reversed $312 $-1 #
edge $-1 $638 0 $638 6.2831853071796004 $313 $639 forward 7 unknown #
vertex $-1 $316 $640 #
ellipse-curve $-1 43.004153128964447 -14.111934314868336 4.8552116461748147 0.82903758062907751 0 0.55919289150049634 0.55919289150049634 0 -0.82903758062907751 1 I I #
coedge $-1 $472 $472 $-1 $641 reversed $319 $-1 #
edge $-1 $642 0 $642 6.2831853071796004 $320 $643 forward 7 unknown #
vertex $-1 $323 $644 #
ellipse-curve $-1 43.004153128964447 -10.19553246963951 4.8552116461748147 0.82903758062907751 0 0.55919289150049634 0.55919289150049634 0 -0.82903758062907751 1 I I #
coedge $-1 $476 $476 $-1 $645 reversed $326 $-1 #
edge $-1 $646 0 $646 6.2831853071796004 $327 $647 forward 7 unknown #
vertex $-1 $330 $648 #
ellipse-curve $-1 43.004153128964447 -6.2791306244106835 4.8552116461748147 0.82903758062907751 0 0.55919289150049634 0.55919289150049634 0 -0.82903758062907751 1 I I #
face $-1 $-1 $492 $68 $-1 $649 forward single #
loop $-1 $-1 $650 $331 #
plane-surface $-1 45.98651081881161 0 0 -1 0 0 0 0 1 forward_v I I I I #
coedge $-1 $651 $652 $653 $654 reversed $332 $-1 #
coedge $-1 $655 $334 $336 $490 forward $210 $-1 #
coedge $-1 $334 $655 $651 $656 forward $210 $-1 #
coedge $-1 $653 $337 $334 $487 forward $492 $-1 #
edge $-1 $494 -14.740610220979203 $657 -1.6859374035497847 $486 $658 forward 7 unknown #
coedge $-1 $659 $660 $335 $489 forward $481 $-1 #
edge $-1 $661 -63.623033423913796 $493 -54.779978938271341 $488 $662 forward 7 unknown #
edge $-1 $494 81.30637070132633 $661 91.973021637623219 $336 $663 forward 7 unknown #
coedge $-1 $337 $653 $659 $664 forward $492 $-1 #
loop $-1 $-1 $653 $480 #
vertex $-1 $489 $665 #
vertex $-1 $338 $666 #
straight-curve $-1 35.402471125416156 22.953884033243696 9.27673888899605 -1 0 0 I I #
coedge $-1 $496 $496 $-1 $667 reversed $341 $-1 #
edge $-1 $668 0 $668 6.2831853071796004 $342 $669 forward 7 unknown #
vertex $-1 $345 $670 #
ellipse-curve $-1 43.004153128964447 12.51014577930016 4.8552116461748147 0.82903758062907751 0 0.55919289150049634 0.55919289150049634 0 -0.82903758062907751 1 I I #
coedge $-1 $500 $500 $-1 $671 reversed $348 $-1 #
edge $-1 $672 0 $672 6.2831853071796004 $349 $673 forward 7 unknown #
vertex $-1 $352 $674 #
ellipse-curve $-1 43.004153128964447 16.426547624528986 4.8552116461748147 0.82903758062907751 0 0.55919289150049634 0.55919289150049634 0 -0.82903758062907751 1 I I #
coedge $-1 $504 $504 $-1 $675 reversed $355 $-1 #
edge $-1 $676 0 $676 6.2831853071796004 $356 $677 forward 7 unknown #
vertex $-1 $359 $678 #
ellipse-curve $-1 43.004153128964447 20.342949469757812 4.8552116461748147 0.82903758062907751 0 0.55919289150049634 0.55919289150049634 0 -0.82903758062907751 1 I I #
face $-1 $-1 $375 $54 $-1 $679 reversed single #
loop $-1 $-1 $524 $360 #
plane-surface $-1 0 31.454593759777062 0 0 -1 0 0 0 -1 forward_v I I I I #
coedge $-1 $680 $522 $525 $681 forward $361 $-1 #
coedge $-1 $528 $363 $364 $516 reversed $229 $-1 #
coedge $-1 $522 $680 $363 $514 reversed $361 $-1 #
edge $-1 $529 -9.27673888899605 $682 9.27673888899605 $513 $683 forward 7 unknown #
coedge $-1 $365 $364 $680 $684 forward $145 $-1 #
edge $-1 $520 -45.98651081881161 $682 45.98651081881161 $512 $685 forward 7 unknown #
coedge $-1 $525 $524 $365 $518 reversed $509 $-1 #
edge $-1 $686 -45.98651081881161 $519 45.98651081881161 $517 $687 forward 7 unknown #
vertex $-1 $367 $688 #
vertex $-1 $531 $689 #
straight-curve $-1 45.98651081881161 0 -9.27673888899605 0 -1 0 I I #
coedge $-1 $511 $513 $368 $523 reversed $361 $-1 #
edge $-1 $526 -31.454593759777062 $529 31.454593759777062 $522 $690 forward 7 unknown #
coedge $-1 $517 $369 $374 $532 forward $509 $-1 #
coedge $-1 $369 $517 $511 $681 reversed $509 $-1 #
vertex $-1 $370 $691 #
straight-curve $-1 0 31.454593759777062 9.27673888899605 -1 0 0 I I #
coedge $-1 $371 $512 $373 $531 reversed $229 $-1 #
vertex $-1 $523 $692 #
straight-curve $-1 0 -31.454593759777062 9.27673888899605 1 0 0 I I #
edge $-1 $376 -9.27673888899605 $520 9.27673888899605 $373 $693 forward 7 unknown #
edge $-1 $377 -9.27673888899605 $519 9.27673888899605 $374 $694 forward 7 unknown #
point $-1 45.98651081881161 -31.454593759777062 9.27673888899605 #
point $-1 45.98651081881161 31.454593759777062 9.27673888899605 #
face $-1 $-1 $394 $55 $-1 $695 reversed single #
loop $-1 $-1 $390 $379 #
plane-surface $-1 0 -31.454593759777062 0 0 1 0 0 0 1 forward_v I I I I #
coedge $-1 $696 $697 $387 $548 forward $380 $-1 #
coedge $-1 $549 $382 $384 $544 reversed $237 $-1 #
edge $-1 $546 -3.4766745001871242 $395 0.67165596170757214 $393 $698 forward 7 unknown #
coedge $-1 $384 $383 $699 $700 reversed $149 $-1 #
coedge $-1 $553 $552 $383 $543 forward $536 $-1 #
edge $-1 $701 -45.98651081881161 $545 45.98651081881161 $542 $702 forward 7 unknown #
edge $-1 $703 -45.98651081881161 $546 45.98651081881161 $539 $704 forward 7 unknown #
vertex $-1 $543 $705 #
vertex $-1 $386 $706 #
straight-curve $-1 45.98651081881161 -13.311040047084248 -4.8791837694269002 0 1 0 I I #
edge $-1 $554 -18.143553712692814 $550 -8.4785263814756817 $538 $707 forward 7 unknown #
coedge $-1 $388 $539 $696 $708 reversed $237 $-1 #
vertex $-1 $548 $709 #
straight-curve $-1 0 -21.78956642855993 -0.7308533075322039 -1 0 0 I I #
coedge $-1 $542 $390 $697 $710 forward $536 $-1 #
coedge $-1 $390 $542 $392 $556 reversed $536 $-1 #
vertex $-1 $710 $711 #
straight-curve $-1 0 -31.454593759777062 -0.7308533075322039 -1 0 0 I I #
edge $-1 $396 0.7308533075322039 $545 4.8791837694269002 $392 $712 forward 7 unknown #
point $-1 45.98651081881161 -21.78956642855993 -0.7308533075322039 #
point $-1 45.98651081881161 -31.454593759777062 -0.7308533075322039 #
plane-surface $-1 0 0 9.27673888899605 0 0 1 1 0 0 forward_v I I I I #
coedge $-1 $570 $569 $562 $713 forward $399 $-1 #
coedge $-1 $562 $401 $403 $566 reversed $245 $-1 #
coedge $-1 $401 $561 $560 $713 reversed $245 $-1 #
coedge $-1 $409 $404 $401 $564 forward $410 $-1 #
edge $-1 $567 -21.096005641089 $714 -15.131290261394668 $563 $715 forward 7 unknown #
coedge $-1 $403 $402 $570 $716 reversed $153 $-1 #
edge $-1 $717 0 $567 10.666650936296886 $561 $718 forward 7 unknown #
vertex $-1 $405 $719 #
straight-curve $-1 -40.021795439117277 -5.0977662348197548 9.27673888899605 0 1 0 I I #
coedge $-1 $560 $406 $409 $574 reversed $399 $-1 #
coedge $-1 $406 $560 $565 $716 forward $399 $-1 #
vertex $-1 $407 $720 #
straight-curve $-1 -45.98651081881161 -16.72286887835422 25.932172156466919 0 0 1 I I #
straight-curve $-1 -45.98651081881161 -16.72286887835422 0.43368440335359537 -0.55919289150049634 0 -0.82903758062907751 I I #
edge $-1 $714 3.6681960609248012 $411 16.72286887835422 $569 $721 forward 7 unknown #
point $-1 -45.98651081881161 -16.72286887835422 9.27673888899605 #
point $-1 -40.021795439117277 -16.72286887835422 9.27673888899605 #
edge $-1 $722 1 $722 0 $414 $-1 forward 7 unknown #
vertex $-1 $415 $723 #
ellipse-curve $-1 -40.72825306211891 -14.111934314868336 3.3200977154169182 -0.82903758062907751 0 0.55919289150049634 0.55919289150049634 0 0.82903758062907751 1 I I #
point $-1 -42.444960237463938 -14.111934314868336 5.6842492268038969 #
edge $-1 $724 1 $724 0 $418 $-1 forward 7 unknown #
vertex $-1 $419 $725 #
ellipse-curve $-1 -40.72825306211891 -10.19553246963951 3.3200977154169182 -0.82903758062907751 0 0.55919289150049634 0.55919289150049634 0 0.82903758062907751 1 I I #
point $-1 -42.444960237463938 -10.19553246963951 5.6842492268038969 #
edge $-1 $726 1 $726 0 $422 $-1 forward 7 unknown #
vertex $-1 $423 $727 #
ellipse-curve $-1 -40.72825306211891 -6.2791306244106835 3.3200977154169182 -0.82903758062907751 0 0.55919289150049634 0.55919289150049634 0 0.82903758062907751 1 I I #
point $-1 -42.444960237463938 -6.2791306244106835 5.6842492268038969 #
loop $-1 $-1 $434 $426 #
plane-surface $-1 -45.98651081881161 0 0 1 0 0 0 0 -1 forward_v I I I I #
coedge $-1 $592 $429 $431 $596 reversed $274 $-1 #
coedge $-1 $429 $591 $728 $729 reversed $274 $-1 #
coedge $-1 $437 $432 $429 $594 forward $427 $-1 #
edge $-1 $597 -21.096005641089 $730 -15.131290261394668 $593 $731 forward 7 unknown #
coedge $-1 $431 $430 $600 $732 reversed $172 $-1 #
edge $-1 $733 0 $597 10.666650936296886 $591 $734 forward 7 unknown #
vertex $-1 $433 $735 #
straight-curve $-1 -40.021795439117277 8.213273812264493 9.27673888899605 0 1 0 I I #
coedge $-1 $728 $434 $437 $604 reversed $589 $-1 #
coedge $-1 $434 $728 $595 $732 forward $589 $-1 #
vertex $-1 $435 $736 #
straight-curve $-1 -45.98651081881161 9.8992112158142778 25.932172156466919 0 0 1 I I #
straight-curve $-1 -45.98651081881161 9.8992112158142778 0.43368440335359537 -0.55919289150049634 0 -0.82903758062907751 I I #
edge $-1 $730 -22.953884033243696 $438 -9.8992112158142778 $599 $737 forward 7 unknown #
point $-1 -45.98651081881161 9.8992112158142778 9.27673888899605 #
point $-1 -40.021795439117277 9.8992112158142778 9.27673888899605 #
edge $-1 $738 1 $738 0 $441 $-1 forward 7 unknown #
vertex $-1 $442 $739 #
ellipse-curve $-1 -40.72825306211891 12.51014577930016 3.3200977154169182 -0.82903758062907751 0 0.55919289150049634 0.55919289150049634 0 0.82903758062907751 1 I I #
point $-1 -42.444960237463938 12.51014577930016 5.6842492268038969 #
edge $-1 $740 1 $740 0 $445 $-1 forward 7 unknown #
vertex $-1 $446 $741 #
ellipse-curve $-1 -40.72825306211891 16.426547624528986 3.3200977154169182 -0.82903758062907751 0 0.55919289150049634 0.55919289150049634 0 0.82903758062907751 1 I I #
point $-1 -42.444960237463938 16.426547624528986 5.6842492268038969 #
edge $-1 $742 1 $742 0 $449 $-1 forward 7 unknown #
vertex $-1 $450 $743 #
ellipse-curve $-1 -40.72825306211891 20.342949469757812 3.3200977154169182 -0.82903758062907751 0 0.55919289150049634 0.55919289150049634 0 0.82903758062907751 1 I I #
point $-1 -42.444960237463938 20.342949469757812 5.6842492268038969 #
loop $-1 $-1 $461 $453 #
plane-surface $-1 45.98651081881161 0 0 -1 0 0 0 0 1 forward_v I I I I #
coedge $-1 $622 $456 $458 $626 reversed $303 $-1 #
coedge $-1 $456 $621 $744 $745 reversed $303 $-1 #
coedge $-1 $464 $459 $456 $624 forward $454 $-1 #
edge $-1 $627 4.6193243137011208 $746 10.584039693395454 $623 $747 forward 7 unknown #
coedge $-1 $458 $457 $630 $748 reversed $191 $-1 #
edge $-1 $749 -91.973021637623219 $627 -81.30637070132633 $621 $750 forward 7 unknown #
vertex $-1 $460 $751 #
straight-curve $-1 40.021795439117277 -5.0977662348197548 9.27673888899605 0 -1 0 I I #
coedge $-1 $744 $461 $464 $634 reversed $619 $-1 #
coedge $-1 $461 $744 $625 $748 forward $619 $-1 #
vertex $-1 $462 $752 #
straight-curve $-1 45.98651081881161 -3.6681960609248012 64.056717827267391 0 0 1 I I #
straight-curve $-1 -5.444149090768633 -3.6681960609248012 76.68277574495454 0.55919289150049634 0 -0.82903758062907751 I I #
edge $-1 $746 -16.72286887835422 $465 -3.6681960609248012 $629 $753 forward 7 unknown #
point $-1 45.98651081881161 -3.6681960609248012 9.27673888899605 #
point $-1 40.021795439117277 -3.6681960609248012 9.27673888899605 #
edge $-1 $754 1 $754 0 $468 $-1 forward 7 unknown #
vertex $-1 $469 $755 #
ellipse-curve $-1 40.728253062118917 -14.111934314868336 3.3200977154169111 0.82903758062907751 0 0.55919289150049634 0.55919289150049634 0 -0.82903758062907751 1 I I #
point $-1 43.563346020464941 -14.111934314868336 4.0261740655457352 #
edge $-1 $756 1 $756 0 $472 $-1 forward 7 unknown #
vertex $-1 $473 $757 #
ellipse-curve $-1 40.728253062118917 -10.19553246963951 3.3200977154169111 0.82903758062907751 0 0.55919289150049634 0.55919289150049634 0 -0.82903758062907751 1 I I #
point $-1 43.563346020464941 -10.19553246963951 4.0261740655457352 #
edge $-1 $758 1 $758 0 $476 $-1 forward 7 unknown #
vertex $-1 $477 $759 #
ellipse-curve $-1 40.728253062118917 -6.2791306244106835 3.3200977154169111 0.82903758062907751 0 0.55919289150049634 0.55919289150049634 0 -0.82903758062907751 1 I I #
point $-1 43.563346020464941 -6.2791306244106835 4.0261740655457352 #
plane-surface $-1 0 0 9.27673888899605 0 0 1 1 0 0 forward_v I I I I #
coedge $-1 $660 $659 $652 $760 forward $481 $-1 #
coedge $-1 $652 $483 $485 $656 reversed $332 $-1 #
coedge $-1 $483 $651 $650 $760 reversed $332 $-1 #
coedge $-1 $491 $486 $483 $654 forward $492 $-1 #
edge $-1 $657 4.6193243137011208 $761 10.584039693395454 $653 $762 forward 7 unknown #
coedge $-1 $485 $484 $660 $763 reversed $210 $-1 #
edge $-1 $764 -91.973021637623219 $657 -81.30637070132633 $651 $765 forward 7 unknown #
vertex $-1 $487 $766 #
straight-curve $-1 40.021795439117277 8.213273812264493 9.27673888899605 0 -1 0 I I #
coedge $-1 $650 $488 $491 $664 reversed $481 $-1 #
coedge $-1 $488 $650 $655 $763 forward $481 $-1 #
vertex $-1 $489 $767 #
straight-curve $-1 45.98651081881161 22.953884033243696 64.056717827267391 0 0 1 I I #
straight-curve $-1 -5.444149090768633 22.953884033243696 76.68277574495454 0.55919289150049634 0 -0.82903758062907751 I I #
edge $-1 $761 9.8992112158142778 $493 22.953884033243696 $659 $768 forward 7 unknown #
point $-1 45.98651081881161 22.953884033243696 9.27673888899605 #
point $-1 40.021795439117277 22.953884033243696 9.27673888899605 #
edge $-1 $769 1 $769 0 $496 $-1 forward 7 unknown #
vertex $-1 $497 $770 #
ellipse-curve $-1 40.728253062118917 12.51014577930016 3.3200977154169111 0.82903758062907751 0 0.55919289150049634 0.55919289150049634 0 -0.82903758062907751 1 I I #
point $-1 43.563346020464941 12.51014577930016 4.0261740655457352 #
edge $-1 $771 1 $771 0 $500 $-1 forward 7 unknown #
vertex $-1 $501 $772 #
ellipse-curve $-1 40.728253062118917 16.426547624528986 3.3200977154169111 0.82903758062907751 0 0.55919289150049634 0.55919289150049634 0 -0.82903758062907751 1 I I #
point $-1 43.563346020464941 16.426547624528986 4.0261740655457352 #
edge $-1 $773 1 $773 0 $504 $-1 forward 7 unknown #
vertex $-1 $505 $774 #
ellipse-curve $-1 40.728253062118917 20.342949469757812 3.3200977154169111 0.82903758062907751 0 0.55919289150049634 0.55919289150049634 0 -0.82903758062907751 1 I I #
point $-1 43.563346020464941 20.342949469757812 4.0261740655457352 #
plane-surface $-1 45.98651081881161 0 0 -1 0 0 0 0 1 forward_v I I I I #
coedge $-1 $513 $511 $515 $684 reversed $361 $-1 #
edge $-1 $526 -9.27673888899605 $686 9.27673888899605 $525 $775 forward 7 unknown #
vertex $-1 $684 $776 #
straight-curve $-1 -45.98651081881161 -31.454593759777062 0 0 0 -1 I I #
edge $-1 $682 -31.454593759777062 $686 31.454593759777062 $680 $777 forward 7 unknown #
straight-curve $-1 0 -31.454593759777062 -9.27673888899605 -1 0 0 I I #
vertex $-1 $518 $778 #
straight-curve $-1 0 31.454593759777062 -9.27673888899605 1 0 0 I I #
point $-1 45.98651081881161 31.454593759777062 -9.27673888899605 #
point $-1 45.98651081881161 -31.454593759777062 -9.27673888899605 #
straight-curve $-1 -45.98651081881161 0 9.27673888899605 0 -1 0 I I #
point $-1 -45.98651081881161 31.454593759777062 9.27673888899605 #
point $-1 -45.98651081881161 -31.454593759777062 9.27673888899605 #
straight-curve $-1 45.98651081881161 -31.454593759777062 0 0 0 -1 I I #
straight-curve $-1 45.98651081881161 31.454593759777062 0 0 0 -1 I I #
plane-surface $-1 45.98651081881161 0 0 -1 0 0 0 0 1 forward_v I I I I #
coedge $-1 $699 $538 $549 $708 forward $380 $-1 #
coedge $-1 $538 $699 $552 $710 reversed $380 $-1 #
straight-curve $-1 45.98651081881161 -21.78956642855993 -1.402509269239776 0 0 1 I I #
coedge $-1 $697 $696 $541 $700 forward $380 $-1 #
edge $-1 $703 8.4785263814756817 $701 18.143553712692814 $699 $779 forward 7 unknown #
vertex $-1 $543 $780 #
straight-curve $-1 0 -31.454593759777062 -4.8791837694269002 1 0 0 I I #
vertex $-1 $700 $781 #
straight-curve $-1 0 -21.78956642855993 -4.8791837694269002 1 0 0 I I #
point $-1 45.98651081881161 -31.454593759777062 -4.8791837694269002 #
point $-1 45.98651081881161 -21.78956642855993 -4.8791837694269002 #
straight-curve $-1 -45.98651081881161 -13.311040047084248 -0.7308533075322039 0 1 0 I I #
edge $-1 $550 -0.67165596170757214 $703 3.4766745001871242 $696 $782 forward 7 unknown #
point $-1 -45.98651081881161 -21.78956642855993 -0.7308533075322039 #
edge $-1 $554 0.7308533075322039 $701 4.8791837694269002 $697 $783 forward 7 unknown #
point $-1 -45.98651081881161 -31.454593759777062 -0.7308533075322039 #
straight-curve $-1 45.98651081881161 -31.454593759777062 0 0 0 -1 I I #
edge $-1 $714 16.655433267470869 $717 25.498487753113324 $560 $784 forward 7 unknown #
vertex $-1 $574 $785 #
straight-curve $-1 -61.117801080206277 -3.6681960609248012 9.27673888899605 -1 0 0 I I #
edge $-1 $717 -1.4295701738949536 $571 11.625102643534465 $570 $786 forward 7 unknown #
vertex $-1 $716 $787 #
straight-curve $-1 -45.98651081881161 -3.6681960609248012 0.43368440335359537 0.55919289150049634 0 0.82903758062907751 I I #
point $-1 -40.021795439117277 -3.6681960609248012 9.27673888899605 #
point $-1 -45.98651081881161 -16.72286887835422 0.43368440335359537 #
straight-curve $-1 -45.98651081881161 0 9.27673888899605 0 -1 0 I I #
vertex $-1 $577 $788 #
point $-1 -40.169060170618415 -14.111934314868336 4.149135296045996 #
vertex $-1 $581 $789 #
point $-1 -40.169060170618415 -10.19553246963951 4.149135296045996 #
vertex $-1 $585 $790 #
point $-1 -40.169060170618415 -6.2791306244106835 4.149135296045996 #
coedge $-1 $600 $599 $592 $729 forward $589 $-1 #
edge $-1 $730 16.655433267470869 $733 25.498487753113324 $728 $791 forward 7 unknown #
vertex $-1 $604 $792 #
straight-curve $-1 -61.117801080206277 22.953884033243696 9.27673888899605 -1 0 0 I I #
edge $-1 $733 -14.740610220979203 $601 -1.6859374035497847 $600 $793 forward 7 unknown #
vertex $-1 $732 $794 #
straight-curve $-1 -45.98651081881161 22.953884033243696 0.43368440335359537 0.55919289150049634 0 0.82903758062907751 I I #
point $-1 -40.021795439117277 22.953884033243696 9.27673888899605 #
point $-1 -45.98651081881161 9.8992112158142778 0.43368440335359537 #
straight-curve $-1 -45.98651081881161 0 9.27673888899605 0 -1 0 I I #
vertex $-1 $607 $795 #
point $-1 -40.169060170618415 12.51014577930016 4.149135296045996 #
vertex $-1 $611 $796 #
point $-1 -40.169060170618415 16.426547624528986 4.149135296045996 #
vertex $-1 $615 $797 #
point $-1 -40.169060170618415 20.342949469757812 4.149135296045996 #
coedge $-1 $630 $629 $622 $745 forward $619 $-1 #
edge $-1 $746 54.779978938271341 $749 63.623033423913796 $744 $798 forward 7 unknown #
vertex $-1 $634 $799 #
straight-curve $-1 35.402471125416156 -16.72286887835422 9.27673888899605 1 0 0 I I #
edge $-1 $749 -11.625102643534465 $631 1.4295701738949536 $630 $800 forward 7 unknown #
vertex $-1 $748 $801 #
straight-curve $-1 -5.444149090768633 -16.72286887835422 76.68277574495454 -0.55919289150049634 0 0.82903758062907751 I I #
point $-1 40.021795439117277 -16.72286887835422 9.27673888899605 #
point $-1 45.98651081881161 -3.6681960609248012 0.43368440335359537 #
straight-curve $-1 45.98651081881161 0 9.27673888899605 0 1 0 I I #
vertex $-1 $637 $802 #
point $-1 41.287445953619411 -14.111934314868336 2.4910601347878338 #
vertex $-1 $641 $803 #
point $-1 41.287445953619411 -10.19553246963951 2.4910601347878338 #
vertex $-1 $645 $804 #
point $-1 41.287445953619411 -6.2791306244106835 2.4910601347878338 #
edge $-1 $761 54.779978938271341 $764 63.623033423913796 $650 $805 forward 7 unknown #
vertex $-1 $664 $806 #
straight-curve $-1 35.402471125416156 9.8992112158142778 9.27673888899605 1 0 0 I I #
edge $-1 $764 1.6859374035497847 $661 14.740610220979203 $660 $807 forward 7 unknown #
vertex $-1 $763 $808 #
straight-curve $-1 -5.444149090768633 9.8992112158142778 76.68277574495454 -0.55919289150049634 0 0.82903758062907751 I I #
point $-1 40.021795439117277 9.8992112158142778 9.27673888899605 #
point $-1 45.98651081881161 22.953884033243696 0.43368440335359537 #
straight-curve $-1 45.98651081881161 0 9.27673888899605 0 1 0 I I #
vertex $-1 $667 $809 #
point $-1 41.287445953619411 12.51014577930016 2.4910601347878338 #
vertex $-1 $671 $810 #
point $-1 41.287445953619411 16.426547624528986 2.4910601347878338 #
vertex $-1 $675 $811 #
point $-1 41.287445953619411 20.342949469757812 2.4910601347878338 #
straight-curve $-1 -45.98651081881161 31.454593759777062 0 0 0 -1 I I #
point $-1 -45.98651081881161 -31.454593759777062 -9.27673888899605 #
straight-curve $-1 -45.98651081881161 0 -9.27673888899605 0 1 0 I I #
point $-1 -45.98651081881161 31.454593759777062 -9.27673888899605 #
straight-curve $-1 -45.98651081881161 -13.311040047084248 -4.8791837694269002 0 -1 0 I I #
point $-1 -45.98651081881161 -31.454593759777062 -4.8791837694269002 #
point $-1 -45.98651081881161 -21.78956642855993 -4.8791837694269002 #
straight-curve $-1 -45.98651081881161 -21.78956642855993 -1.402509269239776 0 0 -1 I I #
straight-curve $-1 -45.98651081881161 -31.454593759777062 0 0 0 -1 I I #
straight-curve $-1 -45.98651081881161 -3.6681960609248012 25.932172156466919 0 0 -1 I I #
point $-1 -45.98651081881161 -3.6681960609248012 9.27673888899605 #
straight-curve $-1 -45.98651081881161 -5.0977662348197548 0.43368440335359071 0 -1 0 I I #
point $-1 -45.98651081881161 -3.6681960609248012 0.43368440335359537 #
point $-1 -39.899215481489833 -14.111934314868336 2.7609048239164222 #
point $-1 -39.899215481489833 -10.19553246963951 2.7609048239164222 #
point $-1 -39.899215481489833 -6.2791306244106835 2.7609048239164222 #
straight-curve $-1 -45.98651081881161 22.953884033243696 25.932172156466919 0 0 -1 I I #
point $-1 -45.98651081881161 22.953884033243696 9.27673888899605 #
straight-curve $-1 -45.98651081881161 8.213273812264493 0.43368440335359071 0 -1 0 I I #
point $-1 -45.98651081881161 22.953884033243696 0.43368440335359537 #
point $-1 -39.899215481489833 12.51014577930016 2.7609048239164222 #
point $-1 -39.899215481489833 16.426547624528986 2.7609048239164222 #
point $-1 -39.899215481489833 20.342949469757812 2.7609048239164222 #
straight-curve $-1 45.98651081881161 -16.72286887835422 64.056717827267391 0 0 -1 I I #
point $-1 45.98651081881161 -16.72286887835422 9.27673888899605 #
straight-curve $-1 45.98651081881161 -5.0977662348197548 0.43368440335358116 0 1 0 I I #
point $-1 45.98651081881161 -16.72286887835422 0.43368440335359537 #
point $-1 39.89921548148984 -14.111934314868336 2.7609048239164151 #
point $-1 39.89921548148984 -10.19553246963951 2.7609048239164151 #
point $-1 39.89921548148984 -6.2791306244106835 2.7609048239164151 #
straight-curve $-1 45.98651081881161 9.8992112158142778 64.056717827267391 0 0 -1 I I #
point $-1 45.98651081881161 9.8992112158142778 9.27673888899605 #
straight-curve $-1 45.98651081881161 8.213273812264493 0.43368440335358116 0 1 0 I I #
point $-1 45.98651081881161 9.8992112158142778 0.43368440335359537 #
point $-1 39.89921548148984 12.51014577930016 2.7609048239164151 #
point $-1 39.89921548148984 16.426547624528986 2.7609048239164151 #
point $-1 39.89921548148984 20.342949469757812 2.7609048239164151 #
End-of-ACIS-data 