500 0 10 0           
7 Unknown 11 ACIS 5.0 NT 24 Fri Mar 26 02:25:18 1999 
-1 9.9999999999999995e-007 1e-010 
body $-1 $10 $-1 $11 #
body $-1 $12 $-1 $13 #
body $-1 $14 $-1 $15 #
body $-1 $16 $-1 $17 #
body $-1 $18 $-1 $19 #
body $-1 $20 $-1 $21 #
body $-1 $22 $-1 $23 #
body $-1 $24 $-1 $25 #
body $-1 $26 $-1 $27 #
body $-1 $28 $-1 $29 #
lump $-1 $-1 $30 $0 #
transform $-1 1 0 0 0 1 0 0 0 1 40.189214758751184 22.766202203055261 8.3505487544810499 1 rotate no_reflect no_shear #
lump $-1 $-1 $31 $1 #
transform $-1 1 0 0 0 1 0 0 0 1 40.189214758751184 22.766202203055261 8.3505487544810499 1 rotate no_reflect no_shear #
lump $-1 $-1 $32 $2 #
transform $-1 1 0 0 0 1 0 0 0 1 40.189214758751184 22.766202203055261 8.3505487544810499 1 rotate no_reflect no_shear #
lump $-1 $-1 $33 $3 #
transform $-1 1 0 0 0 1 0 0 0 1 40.189214758751184 22.766202203055261 8.3505487544810499 1 rotate no_reflect no_shear #
lump $-1 $-1 $34 $4 #
transform $-1 1 0 0 0 1 0 0 0 1 40.189214758751184 22.766202203055261 8.3505487544810499 1 rotate no_reflect no_shear #
lump $-1 $-1 $35 $5 #
transform $-1 1 0 0 0 1 0 0 0 1 40.189214758751184 22.766202203055261 8.3505487544810499 1 rotate no_reflect no_shear #
lump $-1 $-1 $36 $6 #
transform $-1 1 0 0 0 1 0 0 0 1 40.189214758751184 22.766202203055261 8.3505487544810499 1 rotate no_reflect no_shear #
lump $-1 $-1 $37 $7 #
transform $-1 1 0 0 0 1 0 0 0 1 40.189214758751184 22.766202203055261 8.3505487544810499 1 rotate no_reflect no_shear #
lump $-1 $-1 $38 $8 #
transform $-1 1 0 0 0 1 0 0 0 1 40.189214758751184 22.766202203055261 8.3505487544810499 1 rotate no_reflect no_shear #
lump $-1 $-1 $39 $9 #
transform $-1 1 0 0 0 1 0 0 0 1 40.189214758751184 22.766202203055261 8.3505487544810499 1 rotate no_reflect no_shear #
shell $-1 $-1 $-1 $40 $-1 $10 #
shell $-1 $-1 $-1 $41 $-1 $12 #
shell $-1 $-1 $-1 $42 $-1 $14 #
shell $-1 $-1 $-1 $43 $-1 $16 #
shell $-1 $-1 $-1 $44 $-1 $18 #
shell $-1 $-1 $-1 $45 $-1 $20 #
shell $-1 $-1 $-1 $46 $-1 $22 #
shell $-1 $-1 $-1 $47 $-1 $24 #
shell $-1 $-1 $-1 $48 $-1 $26 #
shell $-1 $-1 $-1 $49 $-1 $28 #
face $-1 $50 $51 $30 $-1 $52 forward single #
face $-1 $53 $54 $31 $-1 $55 forward single #
face $-1 $56 $57 $32 $-1 $58 reversed single #
face $-1 $59 $60 $33 $-1 $61 reversed single #
face $-1 $62 $63 $34 $-1 $64 forward single #
face $-1 $65 $66 $35 $-1 $67 forward single #
face $-1 $68 $69 $36 $-1 $70 reversed single #
face $-1 $71 $72 $37 $-1 $73 forward single #
face $-1 $74 $75 $38 $-1 $76 forward single #
face $-1 $77 $78 $39 $-1 $79 forward single #
face $-1 $80 $81 $30 $-1 $82 reversed single #
loop $-1 $-1 $83 $40 #
plane-surface $-1 0 0 8.3505487544810499 0 0 1 1 0 0 forward_v I I I I #
face $-1 $84 $85 $31 $-1 $86 reversed single #
loop $-1 $-1 $87 $41 #
plane-surface $-1 0 -22.766202203055261 0 0 1 0 0 0 1 forward_v I I I I #
face $-1 $88 $89 $32 $-1 $90 reversed single #
loop $-1 $-1 $91 $42 #
plane-surface $-1 -24.988117249789084 12.067428271492403 0 0 1 0 0 0 1 forward_v I I I I #
face $-1 $92 $93 $33 $-1 $94 reversed single #
loop $-1 $-1 $95 $43 #
plane-surface $-1 -93.972882686819815 0.26157217834601099 64.63480239492516 0 1 0 -0.66913061440640931 0 0.74314481823134659 forward_v I I I I #
face $-1 $96 $97 $34 $-1 $98 forward single #
loop $-1 $99 $100 $44 #
cone-surface $-1 -37.699437106520868 2.0463063905279562 5.9879211549319988 0.66913061440640931 0 -0.74314481823134659 0.3715724091156733 0 0.33456530720320465 1 I I 0 1 0.5 forward I I I I #
face $-1 $101 $102 $35 $-1 $103 forward single #
loop $-1 $104 $105 $45 #
cone-surface $-1 -37.699437106520868 4.7234077088008739 5.9879211549319988 0.66913061440640931 0 -0.74314481823134659 0.3715724091156733 0 0.33456530720320465 1 I I 0 1 0.5 forward I I I I #
face $-1 $106 $107 $36 $-1 $108 reversed single #
loop $-1 $-1 $109 $46 #
plane-surface $-1 65.759912309309328 7.6088346450111537 113.94122584447635 0 -1 0 -0.84804810408105047 0 -0.52991925155115449 forward_v I I I I #
face $-1 $110 $111 $37 $-1 $112 forward single #
loop $-1 $113 $114 $47 #
cone-surface $-1 37.873487027380236 2.5612443811204066 5.3284212008843923 -0.84804810408105047 0 -0.52991925155115449 0.26495962577557725 0 -0.42402405204052523 1 I I 0 1 0.5 forward I I I I #
face $-1 $115 $116 $38 $-1 $117 forward single #
loop $-1 $118 $119 $48 #
cone-surface $-1 37.873487027380236 4.4540907300794395 5.3284212008843923 -0.84804810408105047 0 -0.52991925155115449 0.26495962577557725 0 -0.42402405204052523 1 I I 0 1 0.5 forward I I I I #
face $-1 $120 $121 $39 $-1 $122 forward single #
loop $-1 $123 $124 $49 #
cone-surface $-1 37.873487027380236 6.3469370790384723 5.3284212008843923 -0.84804810408105047 0 -0.52991925155115449 0.26495962577557725 0 -0.42402405204052523 1 I I 0 1 0.5 forward I I I I #
face $-1 $125 $126 $30 $-1 $127 reversed single #
loop $-1 $-1 $128 $50 #
plane-surface $-1 0 0 -8.3505487544810499 0 0 1 1 0 0 forward_v I I I I #
coedge $-1 $129 $130 $131 $132 forward $51 $-1 #
face $-1 $133 $134 $31 $-1 $135 reversed single #
loop $-1 $-1 $136 $53 #
plane-surface $-1 0 0 -8.3505487544810499 0 0 1 1 0 0 forward_v I I I I #
coedge $-1 $137 $138 $139 $140 forward $54 $-1 #
face $-1 $141 $142 $32 $-1 $143 reversed single #
loop $-1 $-1 $144 $56 #
plane-surface $-1 -26.488117249789084 17.416815237273834 0 1 0 0 0 0 -1 forward_v I I I I #
coedge $-1 $145 $146 $147 $148 forward $57 $-1 #
face $-1 $149 $150 $33 $-1 $151 reversed single #
loop $-1 $-1 $152 $59 #
plane-surface $-1 -40.189214758751191 3.384857049664415 4.9019890014197571 -0.66913061440640931 0 0.74314481823134659 0.74314481823134659 0 0.66913061440640931 forward_v I I I I #
coedge $-1 $153 $154 $155 $156 reversed $60 $-1 #
face $-1 $-1 $157 $34 $-1 $158 forward single #
loop $-1 $159 $160 $62 #
cone-surface $-1 -36.957383568928165 2.0463063905279562 5.1637872273557583 0.66913061440640931 0 -0.74314481823134659 0.18578620455783665 0 0.16728265360160233 1 I I -0.70710678118654746 0.70710678118654746 0.25 forward I I I I #
loop $-1 $-1 $161 $44 #
coedge $-1 $100 $100 $162 $163 reversed $63 $-1 #
face $-1 $-1 $164 $35 $-1 $165 forward single #
loop $-1 $166 $167 $65 #
cone-surface $-1 -36.957383568928165 4.7234077088008739 5.1637872273557583 0.66913061440640931 0 -0.74314481823134659 0.18578620455783665 0 0.16728265360160233 1 I I -0.70710678118654746 0.70710678118654746 0.25 forward I I I I #
loop $-1 $-1 $168 $45 #
coedge $-1 $105 $105 $169 $170 reversed $66 $-1 #
face $-1 $171 $172 $36 $-1 $173 reversed single #
loop $-1 $-1 $174 $68 #
plane-surface $-1 -2.4048624520208932 4.4540907300794359 71.347148633704279 0.84804810408105047 0 0.52991925155115449 0.52991925155115449 0 -0.84804810408105047 forward_v I I I I #
coedge $-1 $175 $176 $177 $178 reversed $69 $-1 #
face $-1 $-1 $179 $37 $-1 $180 forward single #
loop $-1 $181 $182 $71 #
cone-surface $-1 36.960464260824885 2.5612443811204066 4.7579012754534453 -0.84804810408105047 0 -0.52991925155115449 0.13247981288778862 0 -0.21201202602026262 1 I I -0.70710678118654746 0.70710678118654746 0.25 forward I I I I #
loop $-1 $-1 $183 $47 #
coedge $-1 $114 $114 $184 $185 reversed $72 $-1 #
face $-1 $-1 $186 $38 $-1 $187 forward single #
loop $-1 $188 $189 $74 #
cone-surface $-1 36.960464260824885 4.4540907300794395 4.7579012754534453 -0.84804810408105047 0 -0.52991925155115449 0.13247981288778862 0 -0.21201202602026262 1 I I -0.70710678118654746 0.70710678118654746 0.25 forward I I I I #
loop $-1 $-1 $190 $48 #
coedge $-1 $119 $119 $191 $192 reversed $75 $-1 #
face $-1 $-1 $193 $39 $-1 $194 forward single #
loop $-1 $195 $196 $77 #
cone-surface $-1 36.960464260824885 6.3469370790384723 4.7579012754534453 -0.84804810408105047 0 -0.52991925155115449 0.13247981288778862 0 -0.21201202602026262 1 I I -0.70710678118654746 0.70710678118654746 0.25 forward I I I I #
loop $-1 $-1 $197 $49 #
coedge $-1 $124 $124 $198 $199 reversed $78 $-1 #
face $-1 $200 $201 $30 $-1 $202 reversed single #
loop $-1 $-1 $203 $80 #
plane-surface $-1 0 -22.766202203055261 0 0 1 0 0 0 1 forward_v I I I I #
coedge $-1 $204 $205 $206 $207 forward $81 $-1 #
coedge $-1 $208 $83 $209 $210 forward $51 $-1 #
coedge $-1 $83 $208 $211 $212 forward $51 $-1 #
coedge $-1 $213 $214 $83 $132 reversed $215 $-1 #
edge $-1 $216 -22.766202203055261 $217 22.766202203055261 $131 $218 forward 7 unknown #
face $-1 $219 $220 $31 $-1 $221 forward single #
loop $-1 $-1 $222 $84 #
plane-surface $-1 40.189214758751184 0 0 -1 0 0 0 0 1 forward_v I I I I #
coedge $-1 $223 $224 $225 $226 forward $85 $-1 #
coedge $-1 $225 $87 $222 $227 reversed $54 $-1 #
coedge $-1 $87 $225 $228 $229 reversed $54 $-1 #
coedge $-1 $230 $231 $87 $140 reversed $220 $-1 #
edge $-1 $232 -40.189214758751184 $233 40.189214758751184 $139 $234 forward 7 unknown #
face $-1 $235 $236 $32 $-1 $237 forward single #
loop $-1 $-1 $238 $88 #
plane-surface $-1 -23.488117249789084 17.416815237273834 0 -1 0 0 0 0 1 forward_v I I I I #
coedge $-1 $239 $240 $241 $242 reversed $89 $-1 #
coedge $-1 $243 $91 $244 $245 reversed $57 $-1 #
coedge $-1 $91 $243 $246 $247 reversed $57 $-1 #
coedge $-1 $240 $239 $91 $148 reversed $89 $-1 #
edge $-1 $248 -8.3505487544810499 $249 8.3505487544810499 $147 $250 forward 7 unknown #
face $-1 $251 $252 $33 $-1 $253 forward single #
loop $-1 $-1 $254 $92 #
plane-surface $-1 -93.972882686819815 6.5081419209828191 64.63480239492516 0 -1 0 0.66913061440640931 0 -0.74314481823134659 forward_v I I I I #
coedge $-1 $255 $256 $257 $258 reversed $93 $-1 #
coedge $-1 $154 $95 $259 $260 reversed $60 $-1 #
coedge $-1 $95 $153 $255 $261 reversed $60 $-1 #
coedge $-1 $257 $262 $95 $156 forward $252 $-1 #
edge $-1 $263 6.7972265846587234 $264 10.627240121137142 $155 $265 forward 7 unknown #
loop $-1 $-1 $162 $96 #
plane-surface $-1 -40.189214758751191 3.384857049664415 4.9019890014197571 -0.66913061440640931 0 0.74314481823134659 0.74314481823134659 0 0.66913061440640931 forward_v I I I I #
loop $-1 $-1 $266 $62 #
coedge $-1 $160 $160 $161 $267 reversed $97 $-1 #
coedge $-1 $161 $161 $160 $267 forward $99 $-1 #
coedge $-1 $162 $162 $100 $163 forward $157 $-1 #
edge $-1 $268 0 $268 6.2831853071796004 $162 $269 forward 7 unknown #
loop $-1 $-1 $169 $101 #
plane-surface $-1 -40.189214758751191 3.384857049664415 4.9019890014197571 -0.66913061440640931 0 0.74314481823134659 0.74314481823134659 0 0.66913061440640931 forward_v I I I I #
loop $-1 $-1 $270 $65 #
coedge $-1 $167 $167 $168 $271 reversed $102 $-1 #
coedge $-1 $168 $168 $167 $271 forward $104 $-1 #
coedge $-1 $169 $169 $105 $170 forward $164 $-1 #
edge $-1 $272 0 $272 6.2831853071796004 $169 $273 forward 7 unknown #
face $-1 $274 $275 $36 $-1 $276 reversed single #
loop $-1 $-1 $277 $106 #
plane-surface $-1 65.759912309309328 1.2993468151477181 113.94122584447635 0 1 0 0.84804810408105047 0 0.52991925155115449 forward_v I I I I #
coedge $-1 $278 $279 $280 $281 reversed $107 $-1 #
coedge $-1 $176 $109 $282 $283 reversed $69 $-1 #
coedge $-1 $109 $175 $278 $284 reversed $69 $-1 #
coedge $-1 $280 $285 $109 $178 forward $286 $-1 #
edge $-1 $287 -7.3092586040965202 $288 -4.0798246224248018 $177 $289 forward 7 unknown #
loop $-1 $-1 $184 $110 #
plane-surface $-1 -2.4048624520208932 4.4540907300794359 71.347148633704279 0.84804810408105047 0 0.52991925155115449 0.52991925155115449 0 -0.84804810408105047 forward_v I I I I #
loop $-1 $-1 $290 $71 #
coedge $-1 $182 $182 $183 $291 reversed $111 $-1 #
coedge $-1 $183 $183 $182 $291 forward $113 $-1 #
coedge $-1 $184 $184 $114 $185 forward $179 $-1 #
edge $-1 $292 0 $292 6.2831853071796004 $184 $293 forward 7 unknown #
loop $-1 $-1 $191 $115 #
plane-surface $-1 -2.4048624520208932 4.4540907300794359 71.347148633704279 0.84804810408105047 0 0.52991925155115449 0.52991925155115449 0 -0.84804810408105047 forward_v I I I I #
loop $-1 $-1 $294 $74 #
coedge $-1 $189 $189 $190 $295 reversed $116 $-1 #
coedge $-1 $190 $190 $189 $295 forward $118 $-1 #
coedge $-1 $191 $191 $119 $192 forward $186 $-1 #
edge $-1 $296 0 $296 6.2831853071796004 $191 $297 forward 7 unknown #
loop $-1 $-1 $198 $120 #
plane-surface $-1 -2.4048624520208932 4.4540907300794359 71.347148633704279 0.84804810408105047 0 0.52991925155115449 0.52991925155115449 0 -0.84804810408105047 forward_v I I I I #
loop $-1 $-1 $298 $77 #
coedge $-1 $196 $196 $197 $299 reversed $121 $-1 #
coedge $-1 $197 $197 $196 $299 forward $123 $-1 #
coedge $-1 $198 $198 $124 $199 forward $193 $-1 #
edge $-1 $300 0 $300 6.2831853071796004 $198 $301 forward 7 unknown #
face $-1 $302 $303 $30 $-1 $304 reversed single #
loop $-1 $-1 $305 $125 #
plane-surface $-1 -40.189214758751184 0 0 1 0 0 0 0 -1 forward_v I I I I #
coedge $-1 $211 $306 $213 $307 reversed $126 $-1 #
coedge $-1 $308 $128 $306 $309 forward $81 $-1 #
coedge $-1 $128 $308 $310 $311 forward $81 $-1 #
coedge $-1 $214 $213 $128 $207 reversed $215 $-1 #
edge $-1 $312 -22.766202203055261 $313 22.766202203055261 $206 $314 forward 7 unknown #
coedge $-1 $130 $129 $315 $316 forward $51 $-1 #
coedge $-1 $317 $318 $129 $210 reversed $303 $-1 #
edge $-1 $217 -40.189214758751184 $319 40.189214758751184 $209 $320 forward 7 unknown #
coedge $-1 $321 $203 $130 $212 reversed $126 $-1 #
edge $-1 $322 -40.189214758751184 $216 40.189214758751184 $211 $323 forward 7 unknown #
coedge $-1 $206 $131 $203 $307 forward $215 $-1 #
coedge $-1 $131 $206 $317 $324 reversed $215 $-1 #
loop $-1 $-1 $213 $302 #
vertex $-1 $132 $325 #
vertex $-1 $132 $326 #
straight-curve $-1 40.189214758751184 0 8.3505487544810499 0 1 0 I I #
face $-1 $327 $328 $31 $-1 $329 reversed single #
loop $-1 $-1 $231 $133 #
plane-surface $-1 0 -27.880027087162158 -5.3458598929715286 0 0 1 1 0 0 forward_v I I I I #
coedge $-1 $330 $331 $137 $227 forward $134 $-1 #
coedge $-1 $332 $136 $331 $333 forward $85 $-1 #
coedge $-1 $136 $332 $334 $335 forward $85 $-1 #
coedge $-1 $138 $137 $136 $226 reversed $54 $-1 #
edge $-1 $336 -40.189214758751184 $337 40.189214758751184 $136 $338 forward 7 unknown #
edge $-1 $337 -8.3505487544810499 $233 -5.3458598929715286 $222 $339 forward 7 unknown #
coedge $-1 $334 $340 $138 $229 forward $341 $-1 #
edge $-1 $232 5.3458598929715286 $336 8.3505487544810499 $228 $342 forward 7 unknown #
coedge $-1 $343 $139 $340 $344 forward $220 $-1 #
coedge $-1 $139 $343 $330 $345 forward $220 $-1 #
vertex $-1 $229 $346 #
vertex $-1 $345 $347 #
straight-curve $-1 0 -22.766202203055261 -5.3458598929715286 1 0 0 I I #
face $-1 $348 $349 $32 $-1 $350 reversed single #
loop $-1 $-1 $351 $141 #
plane-surface $-1 0 0 8.3505487544810499 0 0 1 1 0 0 forward_v I I I I #
coedge $-1 $352 $353 $243 $354 forward $142 $-1 #
coedge $-1 $147 $144 $355 $356 reversed $89 $-1 #
coedge $-1 $144 $147 $351 $357 reversed $89 $-1 #
coedge $-1 $358 $359 $144 $242 forward $360 $-1 #
edge $-1 $361 -8.3505487544810499 $362 8.3505487544810499 $241 $363 forward 7 unknown #
coedge $-1 $146 $145 $238 $354 reversed $57 $-1 #
coedge $-1 $355 $364 $145 $245 forward $349 $-1 #
edge $-1 $365 10.994058624894542 $249 13.994058624894542 $244 $366 forward 7 unknown #
coedge $-1 $367 $351 $146 $247 forward $236 $-1 #
edge $-1 $248 -13.994058624894542 $368 -10.994058624894542 $246 $369 forward 7 unknown #
vertex $-1 $247 $370 #
vertex $-1 $245 $371 #
straight-curve $-1 -26.488117249789084 12.067428271492403 0 0 0 -1 I I #
face $-1 $-1 $372 $33 $-1 $373 reversed single #
loop $-1 $-1 $155 $149 #
plane-surface $-1 0 0 8.3505487544810499 0 0 1 1 0 0 forward_v I I I I #
coedge $-1 $374 $375 $376 $377 reversed $150 $-1 #
coedge $-1 $378 $152 $154 $261 forward $93 $-1 #
coedge $-1 $152 $378 $374 $379 forward $93 $-1 #
coedge $-1 $376 $155 $152 $258 forward $252 $-1 #
edge $-1 $264 -1.4308563464861965 $380 4.8157133961506116 $257 $381 forward 7 unknown #
coedge $-1 $382 $383 $153 $260 forward $372 $-1 #
edge $-1 $384 -27.415412196042816 $263 -23.96685244298153 $259 $385 forward 7 unknown #
edge $-1 $264 -5.1537916197729743 $384 -9.4405131238556439e-015 $154 $386 forward 7 unknown #
coedge $-1 $155 $376 $382 $387 forward $252 $-1 #
vertex $-1 $260 $388 #
vertex $-1 $156 $389 #
straight-curve $-1 -46.986441343409908 0.26157217834601099 8.3505487544810499 1 0 0 I I #
coedge $-1 $266 $266 $-1 $390 reversed $159 $-1 #
edge $-1 $391 0 $391 6.2831853071796004 $160 $392 forward 7 unknown #
vertex $-1 $163 $393 #
ellipse-curve $-1 -38.274207990511975 2.0463063905279562 6.6262688779504089 -0.66913061440640931 0 0.74314481823134659 0.3715724091156733 0 0.33456530720320465 1 I I #
coedge $-1 $270 $270 $-1 $394 reversed $166 $-1 #
edge $-1 $395 0 $395 6.2831853071796004 $167 $396 forward 7 unknown #
vertex $-1 $170 $397 #
ellipse-curve $-1 -38.274207990511975 4.7234077088008739 6.6262688779504089 -0.66913061440640931 0 0.74314481823134659 0.3715724091156733 0 0.33456530720320465 1 I I #
face $-1 $-1 $286 $36 $-1 $398 forward single #
loop $-1 $-1 $399 $171 #
plane-surface $-1 40.189214758751184 0 0 -1 0 0 0 0 1 forward_v I I I I #
coedge $-1 $400 $401 $402 $403 reversed $172 $-1 #
coedge $-1 $404 $174 $176 $284 forward $107 $-1 #
coedge $-1 $174 $404 $400 $405 forward $107 $-1 #
coedge $-1 $402 $177 $174 $281 forward $286 $-1 #
edge $-1 $288 -5.3817892799714357 $406 0.92769854989199985 $280 $407 forward 7 unknown #
coedge $-1 $408 $409 $175 $283 forward $275 $-1 #
edge $-1 $410 -53.788239049864117 $287 -48.620064167757121 $282 $411 forward 7 unknown #
edge $-1 $288 74.284229368670879 $410 80.378429517502354 $176 $412 forward 7 unknown #
coedge $-1 $177 $402 $408 $413 forward $286 $-1 #
loop $-1 $-1 $402 $274 #
vertex $-1 $283 $414 #
vertex $-1 $178 $415 #
straight-curve $-1 32.879956154654664 7.6088346450111537 8.3505487544810535 -1 0 0 I I #
coedge $-1 $290 $290 $-1 $416 reversed $181 $-1 #
edge $-1 $417 0 $417 6.2831853071796004 $182 $418 forward 7 unknown #
vertex $-1 $185 $419 #
ellipse-curve $-1 38.574497767915332 2.5612443811204066 5.7664613134275537 0.84804810408105047 0 0.52991925155115449 0.26495962577557725 0 -0.42402405204052523 1 I I #
coedge $-1 $294 $294 $-1 $420 reversed $188 $-1 #
edge $-1 $421 0 $421 6.2831853071796004 $189 $422 forward 7 unknown #
vertex $-1 $192 $423 #
ellipse-curve $-1 38.574497767915332 4.4540907300794395 5.7664613134275537 0.84804810408105047 0 0.52991925155115449 0.26495962577557725 0 -0.42402405204052523 1 I I #
coedge $-1 $298 $298 $-1 $424 reversed $195 $-1 #
edge $-1 $425 0 $425 6.2831853071796004 $196 $426 forward 7 unknown #
vertex $-1 $199 $427 #
ellipse-curve $-1 38.574497767915332 6.3469370790384723 5.7664613134275537 0.84804810408105047 0 0.52991925155115449 0.26495962577557725 0 -0.42402405204052523 1 I I #
face $-1 $-1 $215 $30 $-1 $428 reversed single #
loop $-1 $-1 $317 $200 #
plane-surface $-1 0 22.766202203055261 0 0 -1 0 0 0 -1 forward_v I I I I #
coedge $-1 $429 $315 $318 $430 forward $201 $-1 #
coedge $-1 $203 $321 $204 $309 reversed $126 $-1 #
edge $-1 $216 -8.3505487544810499 $313 8.3505487544810499 $213 $431 forward 7 unknown #
coedge $-1 $205 $204 $429 $432 forward $81 $-1 #
edge $-1 $313 -40.189214758751184 $433 40.189214758751184 $306 $434 forward 7 unknown #
coedge $-1 $318 $317 $205 $311 reversed $303 $-1 #
edge $-1 $435 -40.189214758751184 $312 40.189214758751184 $310 $436 forward 7 unknown #
vertex $-1 $207 $437 #
vertex $-1 $307 $438 #
straight-curve $-1 40.189214758751184 0 -8.3505487544810499 0 -1 0 I I #
coedge $-1 $305 $439 $208 $316 reversed $201 $-1 #
edge $-1 $319 -22.766202203055261 $322 22.766202203055261 $315 $440 forward 7 unknown #
coedge $-1 $310 $209 $214 $324 forward $303 $-1 #
coedge $-1 $209 $310 $305 $430 reversed $303 $-1 #
vertex $-1 $210 $441 #
straight-curve $-1 0 22.766202203055261 8.3505487544810499 -1 0 0 I I #
coedge $-1 $306 $211 $439 $442 forward $126 $-1 #
vertex $-1 $316 $443 #
straight-curve $-1 0 -22.766202203055261 8.3505487544810499 1 0 0 I I #
edge $-1 $217 -8.3505487544810499 $312 8.3505487544810499 $214 $444 forward 7 unknown #
point $-1 40.189214758751184 -22.766202203055261 8.3505487544810499 #
point $-1 40.189214758751184 22.766202203055261 8.3505487544810499 #
face $-1 $-1 $341 $31 $-1 $445 reversed single #
loop $-1 $-1 $446 $219 #
plane-surface $-1 0 -32.993851971269052 -6.8482043237262893 0 1 0 0 0 1 forward_v I I I I #
coedge $-1 $447 $222 $231 $345 reversed $134 $-1 #
coedge $-1 $222 $447 $223 $333 reversed $134 $-1 #
coedge $-1 $224 $223 $448 $449 forward $85 $-1 #
edge $-1 $337 22.766202203055261 $450 32.993851971269052 $331 $451 forward 7 unknown #
coedge $-1 $452 $228 $224 $335 reversed $341 $-1 #
edge $-1 $453 -32.993851971269052 $336 -22.766202203055261 $334 $454 forward 7 unknown #
vertex $-1 $229 $455 #
vertex $-1 $333 $456 #
straight-curve $-1 0 -22.766202203055261 -8.3505487544810499 1 0 0 I I #
straight-curve $-1 40.189214758751184 -22.766202203055261 0 0 0 1 I I #
coedge $-1 $228 $452 $230 $344 reversed $341 $-1 #
loop $-1 $-1 $228 $327 #
straight-curve $-1 -40.189214758751184 -22.766202203055261 0 0 0 -1 I I #
coedge $-1 $231 $230 $457 $458 forward $220 $-1 #
edge $-1 $232 -5.1138248841068972 $459 5.1138248841068936 $340 $460 forward 7 unknown #
edge $-1 $461 -5.1138248841068936 $233 5.1138248841068972 $330 $462 forward 7 unknown #
point $-1 -40.189214758751184 -22.766202203055261 -5.3458598929715286 #
point $-1 40.189214758751184 -22.766202203055261 -5.3458598929715286 #
face $-1 $-1 $360 $32 $-1 $463 reversed single #
loop $-1 $-1 $355 $235 #
plane-surface $-1 0 0 -8.3505487544810499 0 0 1 1 0 0 forward_v I I I I #
coedge $-1 $246 $464 $240 $357 forward $236 $-1 #
coedge $-1 $465 $238 $364 $466 reversed $142 $-1 #
coedge $-1 $238 $465 $367 $467 reversed $142 $-1 #
edge $-1 $368 -8.3505487544810499 $365 8.3505487544810499 $238 $468 forward 7 unknown #
coedge $-1 $469 $244 $239 $356 forward $349 $-1 #
edge $-1 $249 3.3590206528554862 $361 14.057794584418348 $355 $470 forward 7 unknown #
edge $-1 $362 -14.057794584418348 $248 -3.3590206528554862 $351 $471 forward 7 unknown #
coedge $-1 $472 $241 $464 $473 reversed $360 $-1 #
coedge $-1 $241 $472 $469 $474 reversed $360 $-1 #
loop $-1 $-1 $241 $348 #
vertex $-1 $474 $475 #
vertex $-1 $242 $476 #
straight-curve $-1 -26.488117249789084 22.766202203055261 0 0 0 1 I I #
coedge $-1 $244 $469 $352 $466 forward $349 $-1 #
vertex $-1 $245 $477 #
straight-curve $-1 -12.494058624894542 12.067428271492403 -8.3505487544810499 -1 0 0 I I #
coedge $-1 $464 $246 $353 $467 forward $236 $-1 #
vertex $-1 $247 $478 #
straight-curve $-1 -12.494058624894542 12.067428271492403 8.3505487544810499 1 0 0 I I #
point $-1 -26.488117249789084 12.067428271492403 8.3505487544810499 #
point $-1 -26.488117249789084 12.067428271492403 -8.3505487544810499 #
loop $-1 $-1 $259 $251 #
plane-surface $-1 -40.189214758751184 0 0 1 0 0 0 0 -1 forward_v I I I I #
coedge $-1 $375 $254 $256 $379 reversed $150 $-1 #
coedge $-1 $254 $374 $479 $480 reversed $150 $-1 #
coedge $-1 $262 $257 $254 $377 forward $252 $-1 #
edge $-1 $380 -10.627240121137142 $481 -6.7972265846587234 $376 $482 forward 7 unknown #
coedge $-1 $256 $255 $383 $483 reversed $93 $-1 #
edge $-1 $484 9.4405131238556439e-015 $380 5.1537916197729743 $374 $485 forward 7 unknown #
vertex $-1 $258 $486 #
straight-curve $-1 -36.359201222272773 1.6924285248322075 8.3505487544810499 0 1 0 I I #
coedge $-1 $479 $259 $262 $387 reversed $372 $-1 #
coedge $-1 $259 $479 $378 $483 forward $372 $-1 #
vertex $-1 $260 $487 #
straight-curve $-1 -40.189214758751184 0.26157217834601099 32.31740119746258 0 0 1 I I #
straight-curve $-1 -40.189214758751191 0.26157217834601099 4.9019890014197571 -0.74314481823134659 0 -0.66913061440640931 I I #
edge $-1 $481 -6.5081419209828191 $263 -0.26157217834601099 $382 $488 forward 7 unknown #
point $-1 -40.189214758751184 0.26157217834601099 8.3505487544810499 #
point $-1 -36.359201222272766 0.26157217834601099 8.3505487544810499 #
edge $-1 $489 1 $489 0 $266 $-1 forward 7 unknown #
vertex $-1 $267 $490 #
ellipse-curve $-1 -37.124666222529768 2.0463063905279562 5.349573431913595 -0.66913061440640931 0 0.74314481823134659 0.3715724091156733 0 0.33456530720320465 1 I I #
point $-1 -37.902635581396297 2.0463063905279562 6.9608341851536073 #
edge $-1 $491 1 $491 0 $270 $-1 forward 7 unknown #
vertex $-1 $271 $492 #
ellipse-curve $-1 -37.124666222529768 4.7234077088008739 5.349573431913595 -0.66913061440640931 0 0.74314481823134659 0.3715724091156733 0 0.33456530720320465 1 I I #
point $-1 -37.902635581396297 4.7234077088008739 6.9608341851536073 #
plane-surface $-1 0 0 8.3505487544810499 0 0 1 1 0 0 forward_v I I I I #
coedge $-1 $409 $408 $401 $493 forward $275 $-1 #
coedge $-1 $401 $277 $279 $405 reversed $172 $-1 #
coedge $-1 $277 $400 $399 $493 reversed $172 $-1 #
coedge $-1 $285 $280 $277 $403 forward $286 $-1 #
edge $-1 $406 4.0798246224248018 $494 7.3092586040965202 $402 $495 forward 7 unknown #
coedge $-1 $279 $278 $409 $496 reversed $107 $-1 #
edge $-1 $497 -80.378429517502354 $406 -74.284229368670879 $400 $498 forward 7 unknown #
vertex $-1 $281 $499 #
straight-curve $-1 36.959780777079466 2.227045365039718 8.3505487544810535 0 -1 0 I I #
coedge $-1 $399 $282 $285 $413 reversed $275 $-1 #
coedge $-1 $282 $399 $404 $496 forward $275 $-1 #
vertex $-1 $283 $500 #
straight-curve $-1 40.189214758751184 7.6088346450111537 56.970612922238175 0 0 1 I I #
straight-curve $-1 -2.4048624520208932 7.6088346450111537 71.347148633704279 0.52991925155115449 0 -0.84804810408105047 I I #
edge $-1 $494 1.2993468151477181 $287 7.6088346450111537 $408 $501 forward 7 unknown #
point $-1 40.189214758751184 7.6088346450111537 8.3505487544810499 #
point $-1 36.959780777079466 7.6088346450111537 8.3505487544810535 #
edge $-1 $502 1 $502 0 $290 $-1 forward 7 unknown #
vertex $-1 $291 $503 #
ellipse-curve $-1 37.172476286845146 2.5612443811204066 4.8903810883412335 0.84804810408105047 0 0.52991925155115449 0.26495962577557725 0 -0.42402405204052523 1 I I #
point $-1 38.839457393690907 2.5612443811204066 5.3424372613870261 #
edge $-1 $504 1 $504 0 $294 $-1 forward 7 unknown #
vertex $-1 $295 $505 #
ellipse-curve $-1 37.172476286845146 4.4540907300794395 4.8903810883412335 0.84804810408105047 0 0.52991925155115449 0.26495962577557725 0 -0.42402405204052523 1 I I #
point $-1 38.839457393690907 4.4540907300794395 5.3424372613870261 #
edge $-1 $506 1 $506 0 $298 $-1 forward 7 unknown #
vertex $-1 $299 $507 #
ellipse-curve $-1 37.172476286845146 6.3469370790384723 4.8903810883412335 0.84804810408105047 0 0.52991925155115449 0.26495962577557725 0 -0.42402405204052523 1 I I #
point $-1 38.839457393690907 6.3469370790384723 5.3424372613870261 #
plane-surface $-1 40.189214758751184 0 0 -1 0 0 0 0 1 forward_v I I I I #
coedge $-1 $439 $305 $308 $432 reversed $201 $-1 #
edge $-1 $319 -8.3505487544810499 $435 8.3505487544810499 $318 $508 forward 7 unknown #
straight-curve $-1 40.189214758751184 -22.766202203055261 0 0 0 -1 I I #
edge $-1 $433 -22.766202203055261 $435 22.766202203055261 $429 $509 forward 7 unknown #
vertex $-1 $432 $510 #
straight-curve $-1 0 -22.766202203055261 -8.3505487544810499 -1 0 0 I I #
vertex $-1 $311 $511 #
straight-curve $-1 0 22.766202203055261 -8.3505487544810499 1 0 0 I I #
point $-1 40.189214758751184 22.766202203055261 -8.3505487544810499 #
point $-1 40.189214758751184 -22.766202203055261 -8.3505487544810499 #
coedge $-1 $315 $429 $321 $442 reversed $201 $-1 #
straight-curve $-1 -40.189214758751184 0 8.3505487544810499 0 -1 0 I I #
point $-1 -40.189214758751184 22.766202203055261 8.3505487544810499 #
edge $-1 $322 -8.3505487544810499 $433 8.3505487544810499 $439 $512 forward 7 unknown #
point $-1 -40.189214758751184 -22.766202203055261 8.3505487544810499 #
straight-curve $-1 40.189214758751184 22.766202203055261 0 0 0 -1 I I #
plane-surface $-1 -40.189214758751184 0 0 1 0 0 0 0 -1 forward_v I I I I #
coedge $-1 $448 $457 $452 $513 forward $328 $-1 #
coedge $-1 $331 $330 $514 $515 forward $134 $-1 #
coedge $-1 $514 $446 $332 $449 reversed $328 $-1 #
edge $-1 $450 -40.189214758751184 $453 40.189214758751184 $448 $516 forward 7 unknown #
vertex $-1 $515 $517 #
straight-curve $-1 40.189214758751184 0 -8.3505487544810499 0 -1 0 I I #
coedge $-1 $340 $334 $446 $513 reversed $341 $-1 #
vertex $-1 $335 $518 #
straight-curve $-1 -40.189214758751184 0 -8.3505487544810499 0 1 0 I I #
point $-1 -40.189214758751184 -22.766202203055261 -8.3505487544810499 #
point $-1 40.189214758751184 -22.766202203055261 -8.3505487544810499 #
coedge $-1 $446 $514 $343 $458 reversed $328 $-1 #
edge $-1 $459 -40.189214758751184 $461 40.189214758751184 $457 $519 forward 7 unknown #
vertex $-1 $344 $520 #
straight-curve $-1 -40.189214758751184 -27.880027087162158 -5.3458598929715286 0 -1 0 I I #
vertex $-1 $345 $521 #
straight-curve $-1 40.189214758751184 -27.880027087162158 -5.3458598929715286 0 1 0 I I #
plane-surface $-1 0 22.766202203055261 0 0 -1 0 0 0 -1 forward_v I I I I #
coedge $-1 $351 $367 $358 $473 forward $236 $-1 #
coedge $-1 $353 $352 $472 $522 reversed $142 $-1 #
edge $-1 $523 -14.057794584418348 $365 -3.3590206528554862 $364 $524 forward 7 unknown #
edge $-1 $368 3.3590206528554862 $525 14.057794584418348 $367 $526 forward 7 unknown #
straight-curve $-1 -23.488117249789084 12.067428271492403 0 0 0 -1 I I #
coedge $-1 $364 $355 $359 $474 forward $349 $-1 #
straight-curve $-1 -26.488117249789084 8.708407618636917 -8.3505487544810499 0 1 0 I I #
straight-curve $-1 -26.488117249789084 8.708407618636917 8.3505487544810499 0 -1 0 I I #
coedge $-1 $359 $358 $465 $522 forward $360 $-1 #
edge $-1 $525 23.488117249789084 $362 26.488117249789084 $358 $527 forward 7 unknown #
edge $-1 $361 -26.488117249789084 $523 -23.488117249789084 $359 $528 forward 7 unknown #
point $-1 -26.488117249789084 22.766202203055265 -8.3505487544810499 #
point $-1 -26.488117249789084 22.766202203055265 8.3505487544810499 #
point $-1 -23.488117249789084 12.067428271492403 -8.3505487544810499 #
point $-1 -23.488117249789084 12.067428271492403 8.3505487544810499 #
coedge $-1 $383 $382 $375 $480 forward $372 $-1 #
edge $-1 $481 23.96685244298153 $484 27.415412196042816 $479 $529 forward 7 unknown #
vertex $-1 $387 $530 #
straight-curve $-1 -46.986441343409908 6.5081419209828191 8.3505487544810499 -1 0 0 I I #
edge $-1 $484 -4.8157133961506116 $384 1.4308563464861965 $383 $531 forward 7 unknown #
vertex $-1 $483 $532 #
straight-curve $-1 -40.189214758751191 6.5081419209828191 4.9019890014197571 0.74314481823134659 0 0.66913061440640931 I I #
point $-1 -36.359201222272766 6.5081419209828191 8.3505487544810499 #
point $-1 -40.189214758751184 0.26157217834601099 4.9019890014197633 #
straight-curve $-1 -40.189214758751184 0 8.3505487544810499 0 -1 0 I I #
vertex $-1 $390 $533 #
point $-1 -36.753093813414097 2.0463063905279562 5.6841387391167997 #
vertex $-1 $394 $534 #
point $-1 -36.753093813414097 4.7234077088008739 5.6841387391167997 #
edge $-1 $494 48.620064167757121 $497 53.788239049864117 $399 $535 forward 7 unknown #
vertex $-1 $413 $536 #
straight-curve $-1 32.879956154654664 1.2993468151477181 8.3505487544810535 1 0 0 I I #
edge $-1 $497 -0.92769854989199985 $410 5.3817892799714357 $409 $537 forward 7 unknown #
vertex $-1 $496 $538 #
straight-curve $-1 -2.4048624520208932 1.2993468151477181 71.347148633704279 -0.52991925155115449 0 0.84804810408105047 I I #
point $-1 36.959780777079466 1.2993468151477181 8.3505487544810535 #
point $-1 40.189214758751184 7.6088346450111537 3.1823738723740576 #
straight-curve $-1 40.189214758751184 0 8.3505487544810499 0 1 0 I I #
vertex $-1 $416 $539 #
point $-1 37.437435912620728 2.5612443811204066 4.4663570363007086 #
vertex $-1 $420 $540 #
point $-1 37.437435912620728 4.4540907300794395 4.4663570363007086 #
vertex $-1 $424 $541 #
point $-1 37.437435912620728 6.3469370790384723 4.4663570363007086 #
straight-curve $-1 -40.189214758751184 22.766202203055261 0 0 0 -1 I I #
straight-curve $-1 -40.189214758751184 0 -8.3505487544810499 0 1 0 I I #
point $-1 -40.189214758751184 -22.766202203055261 -8.3505487544810499 #
point $-1 -40.189214758751184 22.766202203055261 -8.3505487544810499 #
straight-curve $-1 -40.189214758751184 -22.766202203055261 0 0 0 -1 I I #
edge $-1 $459 -1.5023444307547607 $453 1.5023444307547607 $452 $542 forward 7 unknown #
coedge $-1 $457 $448 $447 $515 reversed $328 $-1 #
edge $-1 $461 -1.5023444307547607 $450 1.5023444307547607 $447 $543 forward 7 unknown #
straight-curve $-1 0 -32.993851971269052 -8.3505487544810499 -1 0 0 I I #
point $-1 40.189214758751184 -32.993851971269052 -8.3505487544810499 #
point $-1 -40.189214758751184 -32.993851971269052 -8.3505487544810499 #
straight-curve $-1 0 -32.993851971269052 -5.3458598929715286 1 0 0 I I #
point $-1 -40.189214758751184 -32.993851971269052 -5.3458598929715286 #
point $-1 40.189214758751184 -32.993851971269052 -5.3458598929715286 #
edge $-1 $525 -8.3505487544810499 $523 8.3505487544810499 $472 $544 forward 7 unknown #
vertex $-1 $522 $545 #
straight-curve $-1 -23.488117249789084 8.708407618636917 -8.3505487544810499 0 -1 0 I I #
vertex $-1 $473 $546 #
straight-curve $-1 -23.488117249789084 8.708407618636917 8.3505487544810499 0 1 0 I I #
straight-curve $-1 0 22.766202203055261 8.3505487544810499 -1 0 0 I I #
straight-curve $-1 0 22.766202203055261 -8.3505487544810499 1 0 0 I I #
straight-curve $-1 -40.189214758751184 6.5081419209828191 32.31740119746258 0 0 -1 I I #
point $-1 -40.189214758751184 6.5081419209828191 8.3505487544810499 #
straight-curve $-1 -40.189214758751184 1.6924285248322075 4.9019890014197669 0 -1 0 I I #
point $-1 -40.189214758751184 6.5081419209828191 4.9019890014197633 #
point $-1 -36.790100915326562 2.0463063905279562 4.9780010227979217 #
point $-1 -36.790100915326562 4.7234077088008739 4.9780010227979217 #
straight-curve $-1 40.189214758751184 1.2993468151477181 56.970612922238175 0 0 -1 I I #
point $-1 40.189214758751184 1.2993468151477181 8.3505487544810499 #
straight-curve $-1 40.189214758751177 2.227045365039718 3.1823738723740576 0 1 0 I I #
point $-1 40.189214758751184 1.2993468151477181 3.1823738723740576 #
point $-1 36.748452234804624 2.5612443811204066 4.6254214625656571 #
point $-1 36.748452234804624 4.4540907300794395 4.6254214625656571 #
point $-1 36.748452234804624 6.3469370790384723 4.6254214625656571 #
straight-curve $-1 -40.189214758751184 -32.993851971269052 -6.8482043237262893 0 0 -1 I I #
straight-curve $-1 40.189214758751184 -32.993851971269052 -6.8482043237262893 0 0 -1 I I #
straight-curve $-1 -23.488117249789084 22.766202203055261 0 0 0 -1 I I #
point $-1 -23.488117249789084 22.766202203055265 -8.3505487544810499 #
point $-1 -23.488117249789084 22.766202203055265 8.3505487544810499 #
End-of-ACIS-data 