500 0 2 0           
7 Unknown 11 ACIS 5.0 NT 24 Fri Mar 26 03:04:08 1999 
-1 9.9999999999999995e-007 1e-010 
body $-1 $2 $-1 $3 #
body $-1 $4 $-1 $5 #
lump $-1 $-1 $6 $0 #
transform $-1 1 0 0 0 1 0 0 0 1 48.12036500137333 22.755512183989378 6.5315757680854789 1 rotate no_reflect no_shear #
lump $-1 $-1 $7 $1 #
transform $-1 1 0 0 0 1 0 0 0 1 48.12036500137333 22.755512183989378 6.5315757680854789 1 rotate no_reflect no_shear #
shell $-1 $-1 $-1 $8 $-1 $2 #
shell $-1 $-1 $-1 $9 $-1 $4 #
face $-1 $10 $11 $6 $-1 $12 forward single #
face $-1 $13 $14 $7 $-1 $15 reversed single #
face $-1 $16 $17 $6 $-1 $18 reversed single #
loop $-1 $-1 $19 $8 #
plane-surface $-1 0 0 6.5315757680854789 0 0 1 1 0 0 forward_v I I I I #
face $-1 $20 $21 $7 $-1 $22 reversed single #
loop $-1 $-1 $23 $9 #
plane-surface $-1 -38.057213465202373 -18.676744743117474 0 1 0 0 0 0 -1 forward_v I I I I #
face $-1 $24 $25 $6 $-1 $26 reversed single #
loop $-1 $-1 $27 $10 #
plane-surface $-1 0 0 -6.5315757680854789 0 0 1 1 0 0 forward_v I I I I #
coedge $-1 $28 $29 $30 $31 forward $11 $-1 #
face $-1 $32 $33 $7 $-1 $34 reversed single #
loop $-1 $-1 $35 $13 #
plane-surface $-1 -36.557213465202373 -14.597977302245569 0 0 -1 0 0 0 -1 forward_v I I I I #
coedge $-1 $36 $37 $38 $39 forward $14 $-1 #
face $-1 $40 $41 $6 $-1 $42 reversed single #
loop $-1 $-1 $43 $16 #
plane-surface $-1 0 -22.755512183989378 0 0 1 0 0 0 1 forward_v I I I I #
coedge $-1 $44 $45 $46 $47 forward $17 $-1 #
coedge $-1 $48 $19 $49 $50 forward $11 $-1 #
coedge $-1 $19 $48 $51 $52 forward $11 $-1 #
coedge $-1 $53 $54 $19 $31 reversed $55 $-1 #
edge $-1 $56 -22.755512183989378 $57 22.755512183989378 $30 $58 forward 7 unknown #
face $-1 $59 $60 $7 $-1 $61 forward single #
loop $-1 $-1 $62 $20 #
plane-surface $-1 -35.057213465202373 -18.676744743117474 0 -1 0 0 0 0 1 forward_v I I I I #
coedge $-1 $63 $64 $65 $66 forward $21 $-1 #
coedge $-1 $67 $23 $68 $69 reversed $14 $-1 #
coedge $-1 $23 $67 $70 $71 reversed $14 $-1 #
coedge $-1 $64 $63 $23 $39 reversed $21 $-1 #
edge $-1 $72 -6.5315757680854789 $73 6.5315757680854789 $38 $74 forward 7 unknown #
face $-1 $75 $76 $6 $-1 $77 reversed single #
loop $-1 $-1 $78 $24 #
plane-surface $-1 -48.12036500137333 0 0 1 0 0 0 0 -1 forward_v I I I I #
coedge $-1 $79 $51 $80 $81 forward $25 $-1 #
coedge $-1 $82 $27 $79 $83 forward $17 $-1 #
coedge $-1 $27 $82 $84 $85 forward $17 $-1 #
coedge $-1 $54 $53 $27 $47 reversed $55 $-1 #
edge $-1 $86 -22.755512183989378 $87 22.755512183989378 $46 $88 forward 7 unknown #
coedge $-1 $29 $28 $89 $90 forward $11 $-1 #
coedge $-1 $91 $92 $28 $50 reversed $76 $-1 #
edge $-1 $57 -48.12036500137333 $93 48.12036500137333 $49 $94 forward 7 unknown #
coedge $-1 $43 $95 $29 $52 reversed $25 $-1 #
edge $-1 $96 -48.12036500137333 $56 48.12036500137333 $51 $97 forward 7 unknown #
coedge $-1 $46 $30 $95 $98 forward $55 $-1 #
coedge $-1 $30 $46 $91 $99 reversed $55 $-1 #
loop $-1 $-1 $53 $75 #
vertex $-1 $31 $100 #
vertex $-1 $31 $101 #
straight-curve $-1 48.12036500137333 0 6.5315757680854789 0 1 0 I I #
face $-1 $102 $103 $7 $-1 $104 reversed single #
loop $-1 $-1 $105 $32 #
plane-surface $-1 0 0 6.5315757680854789 0 0 1 1 0 0 forward_v I I I I #
coedge $-1 $106 $107 $108 $109 reversed $33 $-1 #
coedge $-1 $38 $35 $110 $111 reversed $21 $-1 #
coedge $-1 $35 $38 $112 $113 reversed $21 $-1 #
coedge $-1 $107 $106 $35 $66 reversed $33 $-1 #
edge $-1 $114 -6.5315757680854789 $115 6.5315757680854789 $65 $116 forward 7 unknown #
coedge $-1 $37 $36 $117 $118 reversed $14 $-1 #
coedge $-1 $110 $119 $36 $69 forward $103 $-1 #
edge $-1 $120 -13.417139812430644 $73 -5.259604930686832 $68 $121 forward 7 unknown #
coedge $-1 $122 $112 $37 $71 forward $60 $-1 #
edge $-1 $72 5.259604930686832 $123 13.417139812430644 $70 $124 forward 7 unknown #
vertex $-1 $71 $125 #
vertex $-1 $69 $126 #
straight-curve $-1 -38.057213465202373 -14.597977302245569 0 0 0 -1 I I #
face $-1 $-1 $55 $6 $-1 $127 reversed single #
loop $-1 $-1 $91 $40 #
plane-surface $-1 0 22.755512183989378 0 0 -1 0 0 0 -1 forward_v I I I I #
coedge $-1 $128 $89 $92 $129 forward $41 $-1 #
coedge $-1 $95 $43 $44 $83 reversed $25 $-1 #
coedge $-1 $89 $128 $43 $81 reversed $41 $-1 #
edge $-1 $96 -6.5315757680854789 $130 6.5315757680854789 $80 $131 forward 7 unknown #
coedge $-1 $45 $44 $128 $132 forward $17 $-1 #
edge $-1 $87 -48.12036500137333 $130 48.12036500137333 $79 $133 forward 7 unknown #
coedge $-1 $92 $91 $45 $85 reversed $76 $-1 #
edge $-1 $134 -48.12036500137333 $86 48.12036500137333 $84 $135 forward 7 unknown #
vertex $-1 $47 $136 #
vertex $-1 $98 $137 #
straight-curve $-1 48.12036500137333 0 -6.5315757680854789 0 -1 0 I I #
coedge $-1 $78 $80 $48 $90 reversed $41 $-1 #
edge $-1 $93 -22.755512183989378 $96 22.755512183989378 $89 $138 forward 7 unknown #
coedge $-1 $84 $49 $54 $99 forward $76 $-1 #
coedge $-1 $49 $84 $78 $129 reversed $76 $-1 #
vertex $-1 $50 $139 #
straight-curve $-1 0 22.755512183989378 6.5315757680854789 -1 0 0 I I #
coedge $-1 $51 $79 $53 $98 reversed $25 $-1 #
vertex $-1 $90 $140 #
straight-curve $-1 0 -22.755512183989378 6.5315757680854789 1 0 0 I I #
edge $-1 $56 -6.5315757680854789 $87 6.5315757680854789 $53 $141 forward 7 unknown #
edge $-1 $57 -6.5315757680854789 $86 6.5315757680854789 $54 $142 forward 7 unknown #
point $-1 48.12036500137333 -22.755512183989378 6.5315757680854789 #
point $-1 48.12036500137333 22.755512183989378 6.5315757680854789 #
face $-1 $-1 $143 $7 $-1 $144 reversed single #
loop $-1 $-1 $145 $59 #
plane-surface $-1 0 0 -6.5315757680854789 0 0 1 1 0 0 forward_v I I I I #
coedge $-1 $112 $122 $107 $146 forward $60 $-1 #
coedge $-1 $65 $62 $145 $147 reversed $33 $-1 #
coedge $-1 $62 $65 $105 $146 reversed $33 $-1 #
coedge $-1 $148 $149 $62 $109 forward $143 $-1 #
edge $-1 $150 -6.5315757680854789 $151 6.5315757680854789 $108 $152 forward 7 unknown #
coedge $-1 $145 $68 $63 $111 forward $103 $-1 #
edge $-1 $73 -19.778606732601187 $115 -16.778606732601187 $110 $153 forward 7 unknown #
coedge $-1 $70 $105 $64 $113 forward $60 $-1 #
edge $-1 $114 16.778606732601187 $72 19.778606732601187 $112 $154 forward 7 unknown #
vertex $-1 $113 $155 #
vertex $-1 $111 $156 #
straight-curve $-1 -35.057213465202373 -14.597977302245569 0 0 0 -1 I I #
coedge $-1 $149 $148 $67 $118 forward $143 $-1 #
edge $-1 $123 -6.5315757680854789 $120 6.5315757680854789 $117 $157 forward 7 unknown #
coedge $-1 $68 $145 $149 $158 forward $103 $-1 #
vertex $-1 $69 $159 #
straight-curve $-1 -38.057213465202373 -9.3383723715587372 -6.5315757680854789 0 1 0 I I #
coedge $-1 $105 $70 $148 $160 forward $60 $-1 #
vertex $-1 $160 $161 #
straight-curve $-1 -38.057213465202373 -9.3383723715587372 6.5315757680854789 0 -1 0 I I #
point $-1 -38.057213465202373 -14.597977302245569 6.5315757680854789 #
point $-1 -38.057213465202373 -14.597977302245569 -6.5315757680854789 #
plane-surface $-1 48.12036500137333 0 0 -1 0 0 0 0 1 forward_v I I I I #
coedge $-1 $80 $78 $82 $132 reversed $41 $-1 #
edge $-1 $93 -6.5315757680854789 $134 6.5315757680854789 $92 $162 forward 7 unknown #
vertex $-1 $132 $163 #
straight-curve $-1 -48.12036500137333 -22.755512183989378 0 0 0 -1 I I #
edge $-1 $130 -22.755512183989378 $134 22.755512183989378 $128 $164 forward 7 unknown #
straight-curve $-1 0 -22.755512183989378 -6.5315757680854789 -1 0 0 I I #
vertex $-1 $85 $165 #
straight-curve $-1 0 22.755512183989378 -6.5315757680854789 1 0 0 I I #
point $-1 48.12036500137333 22.755512183989378 -6.5315757680854789 #
point $-1 48.12036500137333 -22.755512183989378 -6.5315757680854789 #
straight-curve $-1 -48.12036500137333 0 6.5315757680854789 0 -1 0 I I #
point $-1 -48.12036500137333 22.755512183989378 6.5315757680854789 #
point $-1 -48.12036500137333 -22.755512183989378 6.5315757680854789 #
straight-curve $-1 48.12036500137333 -22.755512183989378 0 0 0 -1 I I #
straight-curve $-1 48.12036500137333 22.755512183989378 0 0 0 -1 I I #
loop $-1 $-1 $108 $102 #
plane-surface $-1 0 -22.755512183989378 0 0 1 0 0 0 1 forward_v I I I I #
coedge $-1 $119 $110 $106 $147 forward $103 $-1 #
edge $-1 $151 -13.417139812430644 $114 -5.259604930686832 $105 $166 forward 7 unknown #
edge $-1 $115 5.259604930686832 $150 13.417139812430644 $145 $167 forward 7 unknown #
coedge $-1 $117 $108 $122 $160 reversed $143 $-1 #
coedge $-1 $108 $117 $119 $158 reversed $143 $-1 #
vertex $-1 $158 $168 #
vertex $-1 $109 $169 #
straight-curve $-1 -35.057213465202373 -22.755512183989378 0 0 0 1 I I #
straight-curve $-1 -18.278606732601187 -14.597977302245569 -6.5315757680854789 1 0 0 I I #
straight-curve $-1 -18.278606732601187 -14.597977302245569 6.5315757680854789 -1 0 0 I I #
point $-1 -35.057213465202373 -14.597977302245569 6.5315757680854789 #
point $-1 -35.057213465202373 -14.597977302245569 -6.5315757680854789 #
straight-curve $-1 -38.057213465202373 -22.755512183989378 0 0 0 -1 I I #
edge $-1 $150 35.057213465202373 $120 38.057213465202373 $149 $170 forward 7 unknown #
point $-1 -38.057213465202373 -22.755512183989381 -6.5315757680854789 #
edge $-1 $123 -38.057213465202373 $151 -35.057213465202373 $148 $171 forward 7 unknown #
point $-1 -38.057213465202373 -22.755512183989381 6.5315757680854789 #
straight-curve $-1 -48.12036500137333 22.755512183989378 0 0 0 -1 I I #
point $-1 -48.12036500137333 -22.755512183989378 -6.5315757680854789 #
straight-curve $-1 -48.12036500137333 0 -6.5315757680854789 0 1 0 I I #
point $-1 -48.12036500137333 22.755512183989378 -6.5315757680854789 #
straight-curve $-1 -35.057213465202373 -9.3383723715587372 6.5315757680854789 0 1 0 I I #
straight-curve $-1 -35.057213465202373 -9.3383723715587372 -6.5315757680854789 0 -1 0 I I #
point $-1 -35.057213465202373 -22.755512183989381 -6.5315757680854789 #
point $-1 -35.057213465202373 -22.755512183989381 6.5315757680854789 #
straight-curve $-1 0 -22.755512183989378 -6.5315757680854789 -1 0 0 I I #
straight-curve $-1 0 -22.755512183989378 6.5315757680854789 1 0 0 I I #
End-of-ACIS-data 