500 0 9 0           
7 Unknown 11 ACIS 5.0 NT 24 Fri Mar 26 00:20:40 1999 
-1 9.9999999999999995e-007 1e-010 
body $-1 $9 $-1 $10 #
body $-1 $11 $-1 $12 #
body $-1 $13 $-1 $14 #
body $-1 $15 $-1 $16 #
body $-1 $17 $-1 $18 #
body $-1 $19 $-1 $20 #
body $-1 $21 $-1 $22 #
body $-1 $23 $-1 $24 #
body $-1 $25 $-1 $26 #
lump $-1 $-1 $27 $0 #
transform $-1 1 0 0 0 1 0 0 0 1 52.456434827723015 30.263266212447764 14.113652454368053 1 rotate no_reflect no_shear #
lump $-1 $-1 $28 $1 #
transform $-1 1 0 0 0 1 0 0 0 1 52.456434827723015 30.263266212447764 14.113652454368053 1 rotate no_reflect no_shear #
lump $-1 $-1 $29 $2 #
transform $-1 1 0 0 0 1 0 0 0 1 52.456434827723015 30.263266212447764 14.113652454368053 1 rotate no_reflect no_shear #
lump $-1 $-1 $30 $3 #
transform $-1 1 0 0 0 1 0 0 0 1 52.456434827723015 30.263266212447764 14.113652454368053 1 rotate no_reflect no_shear #
lump $-1 $-1 $31 $4 #
transform $-1 1 0 0 0 1 0 0 0 1 52.456434827723015 30.263266212447764 14.113652454368053 1 rotate no_reflect no_shear #
lump $-1 $-1 $32 $5 #
transform $-1 1 0 0 0 1 0 0 0 1 52.456434827723015 30.263266212447764 14.113652454368053 1 rotate no_reflect no_shear #
lump $-1 $-1 $33 $6 #
transform $-1 1 0 0 0 1 0 0 0 1 52.456434827723015 30.263266212447764 14.113652454368053 1 rotate no_reflect no_shear #
lump $-1 $-1 $34 $7 #
transform $-1 1 0 0 0 1 0 0 0 1 52.456434827723015 30.263266212447764 14.113652454368053 1 rotate no_reflect no_shear #
lump $-1 $-1 $35 $8 #
transform $-1 1 0 0 0 1 0 0 0 1 52.456434827723015 30.263266212447764 14.113652454368053 1 rotate no_reflect no_shear #
shell $-1 $-1 $-1 $36 $-1 $9 #
shell $-1 $-1 $-1 $37 $-1 $11 #
shell $-1 $-1 $-1 $38 $-1 $13 #
shell $-1 $-1 $-1 $39 $-1 $15 #
shell $-1 $-1 $-1 $40 $-1 $17 #
shell $-1 $-1 $-1 $41 $-1 $19 #
shell $-1 $-1 $-1 $42 $-1 $21 #
shell $-1 $-1 $-1 $43 $-1 $23 #
shell $-1 $-1 $-1 $44 $-1 $25 #
face $-1 $45 $46 $27 $-1 $47 forward single #
face $-1 $48 $49 $28 $-1 $50 forward single #
face $-1 $51 $52 $29 $-1 $53 forward single #
face $-1 $54 $55 $30 $-1 $56 reversed single #
face $-1 $57 $58 $31 $-1 $59 forward single #
face $-1 $60 $61 $32 $-1 $62 reversed single #
face $-1 $63 $64 $33 $-1 $65 forward single #
face $-1 $66 $67 $34 $-1 $68 forward single #
face $-1 $69 $70 $35 $-1 $71 forward single #
face $-1 $72 $73 $27 $-1 $74 reversed single #
loop $-1 $-1 $75 $36 #
plane-surface $-1 0 0 14.113652454368053 0 0 1 1 0 0 forward_v I I I I #
face $-1 $76 $77 $28 $-1 $78 reversed single #
loop $-1 $-1 $79 $37 #
plane-surface $-1 0 -30.263266212447764 0 0 1 0 0 0 1 forward_v I I I I #
face $-1 $80 $81 $29 $-1 $82 reversed single #
loop $-1 $-1 $83 $38 #
plane-surface $-1 0 30.263266212447764 0 0 -1 0 0 0 -1 forward_v I I I I #
face $-1 $84 $85 $30 $-1 $86 reversed single #
loop $-1 $-1 $87 $39 #
plane-surface $-1 57.634447140133631 2.1604081939160498 152.4336788815508 0 -1 0 -0.73135370988377701 0 -0.68199835119979291 forward_v I I I I #
face $-1 $88 $89 $31 $-1 $90 forward single #
loop $-1 $91 $92 $40 #
cone-surface $-1 46.005701896086507 -1.5164567260351518 7.4488554882164673 -0.73135370988377701 0 -0.68199835119979291 1.0229975267996894 0 -1.0970305648256655 1 I I 0 1 1.5 forward I I I I #
face $-1 $93 $94 $32 $-1 $95 reversed single #
loop $-1 $-1 $96 $41 #
plane-surface $-1 -118.48024380530377 -14.012670580409829 83.228812004501705 0 1 0 -0.62932039886446345 0 0.77714595512881146 forward_v I I I I #
face $-1 $97 $98 $33 $-1 $99 forward single #
loop $-1 $100 $101 $42 #
cone-surface $-1 -44.383763430607857 -12.668862501672475 7.4041345288168472 0.62932039886446345 0 -0.77714595512881146 0.38857297756440573 0 0.31466019943223172 1 I I 0 1 0.5 forward I I I I #
face $-1 $102 $103 $34 $-1 $104 forward single #
loop $-1 $105 $106 $43 #
cone-surface $-1 -44.383763430607857 -10.653150383566445 7.4041345288168472 0.62932039886446345 0 -0.77714595512881146 0.38857297756440573 0 0.31466019943223172 1 I I 0 1 0.5 forward I I I I #
face $-1 $107 $108 $35 $-1 $109 forward single #
loop $-1 $110 $111 $44 #
cone-surface $-1 -44.383763430607857 -8.637438265460414 7.4041345288168472 0.62932039886446345 0 -0.77714595512881146 0.38857297756440573 0 0.31466019943223172 1 I I 0 1 0.5 forward I I I I #
face $-1 $112 $113 $27 $-1 $114 reversed single #
loop $-1 $-1 $115 $45 #
plane-surface $-1 0 0 -14.113652454368053 0 0 1 1 0 0 forward_v I I I I #
coedge $-1 $116 $117 $118 $119 forward $46 $-1 #
face $-1 $120 $121 $28 $-1 $122 reversed single #
loop $-1 $-1 $123 $48 #
plane-surface $-1 0 0 -14.113652454368053 0 0 1 1 0 0 forward_v I I I I #
coedge $-1 $124 $125 $126 $127 forward $49 $-1 #
face $-1 $128 $129 $29 $-1 $130 forward single #
loop $-1 $-1 $131 $51 #
plane-surface $-1 -52.456434827723015 0 0 1 0 0 0 0 -1 forward_v I I I I #
coedge $-1 $132 $133 $134 $135 forward $52 $-1 #
face $-1 $136 $137 $30 $-1 $138 reversed single #
loop $-1 $-1 $139 $54 #
plane-surface $-1 -19.093969296929956 -1.5164567260351554 80.883274756897819 0.73135370988377701 0 0.68199835119979291 0.68199835119979291 0 -0.73135370988377701 forward_v I I I I #
coedge $-1 $140 $141 $142 $143 reversed $55 $-1 #
face $-1 $-1 $144 $31 $-1 $145 forward single #
loop $-1 $146 $147 $57 #
cone-surface $-1 43.64981645431979 -1.5164567260351518 5.2519568259319396 -0.73135370988377701 0 -0.68199835119979291 0.51149876339984468 0 -0.54851528241283276 1 I I -0.70710678118654757 0.70710678118654757 0.75 forward I I I I #
loop $-1 $-1 $148 $40 #
coedge $-1 $92 $92 $149 $150 reversed $58 $-1 #
face $-1 $151 $152 $32 $-1 $153 reversed single #
loop $-1 $-1 $154 $60 #
plane-surface $-1 -52.456434827723015 -10.653150383566445 1.6961997108156055 -0.62932039886446345 0 0.77714595512881146 0.77714595512881146 0 0.62932039886446345 forward_v I I I I #
coedge $-1 $155 $156 $157 $158 reversed $61 $-1 #
face $-1 $-1 $159 $33 $-1 $160 forward single #
loop $-1 $161 $162 $63 #
cone-surface $-1 -43.820900318347924 -12.668862501672475 6.7090564862596604 0.62932039886446345 0 -0.77714595512881146 0.19428648878220287 0 0.15733009971611586 1 I I -0.70710678118654746 0.70710678118654746 0.25 forward I I I I #
loop $-1 $-1 $163 $42 #
coedge $-1 $101 $101 $164 $165 reversed $64 $-1 #
face $-1 $-1 $166 $34 $-1 $167 forward single #
loop $-1 $168 $169 $66 #
cone-surface $-1 -43.820900318347924 -10.653150383566445 6.7090564862596604 0.62932039886446345 0 -0.77714595512881146 0.19428648878220287 0 0.15733009971611586 1 I I -0.70710678118654746 0.70710678118654746 0.25 forward I I I I #
loop $-1 $-1 $170 $43 #
coedge $-1 $106 $106 $171 $172 reversed $67 $-1 #
face $-1 $-1 $173 $35 $-1 $174 forward single #
loop $-1 $175 $176 $69 #
cone-surface $-1 -43.820900318347924 -8.637438265460414 6.7090564862596604 0.62932039886446345 0 -0.77714595512881146 0.19428648878220287 0 0.15733009971611586 1 I I -0.70710678118654746 0.70710678118654746 0.25 forward I I I I #
loop $-1 $-1 $177 $44 #
coedge $-1 $111 $111 $178 $179 reversed $70 $-1 #
face $-1 $180 $181 $27 $-1 $182 reversed single #
loop $-1 $-1 $183 $72 #
plane-surface $-1 0 -30.263266212447764 0 0 1 0 0 0 1 forward_v I I I I #
coedge $-1 $184 $185 $186 $187 forward $73 $-1 #
coedge $-1 $188 $75 $189 $190 forward $46 $-1 #
coedge $-1 $75 $188 $191 $192 forward $46 $-1 #
coedge $-1 $193 $194 $75 $119 reversed $195 $-1 #
edge $-1 $196 -30.263266212447764 $197 30.263266212447764 $118 $198 forward 7 unknown #
face $-1 $199 $200 $28 $-1 $201 forward single #
loop $-1 $-1 $202 $76 #
plane-surface $-1 52.456434827723015 0 0 -1 0 0 0 0 1 forward_v I I I I #
coedge $-1 $203 $204 $205 $206 forward $77 $-1 #
coedge $-1 $205 $79 $202 $207 reversed $49 $-1 #
coedge $-1 $79 $205 $208 $209 reversed $49 $-1 #
coedge $-1 $210 $211 $79 $127 reversed $200 $-1 #
edge $-1 $212 -52.456434827723015 $213 52.456434827723015 $126 $214 forward 7 unknown #
face $-1 $215 $216 $29 $-1 $217 reversed single #
loop $-1 $-1 $218 $80 #
plane-surface $-1 0 38.388564028466732 -8.9033125306793242 0 0 1 1 0 0 forward_v I I I I #
coedge $-1 $219 $220 $132 $221 forward $81 $-1 #
coedge $-1 $222 $83 $131 $221 reversed $52 $-1 #
coedge $-1 $83 $222 $223 $224 reversed $52 $-1 #
coedge $-1 $218 $225 $83 $135 reversed $129 $-1 #
edge $-1 $226 -52.456434827723015 $227 52.456434827723015 $134 $228 forward 7 unknown #
face $-1 $229 $230 $30 $-1 $231 forward single #
loop $-1 $-1 $232 $84 #
plane-surface $-1 57.634447140133631 -5.1933216459863605 152.4336788815508 0 1 0 0.73135370988377701 0 0.68199835119979291 forward_v I I I I #
coedge $-1 $233 $234 $235 $236 reversed $85 $-1 #
coedge $-1 $141 $87 $237 $238 reversed $55 $-1 #
coedge $-1 $87 $140 $233 $239 reversed $55 $-1 #
coedge $-1 $235 $240 $87 $143 forward $230 $-1 #
edge $-1 $241 -23.6392112576562 $242 -14.352485713090964 $142 $243 forward 7 unknown #
loop $-1 $-1 $149 $88 #
plane-surface $-1 -19.093969296929956 -1.5164567260351554 80.883274756897819 0.73135370988377701 0 0.68199835119979291 0.68199835119979291 0 -0.73135370988377701 forward_v I I I I #
loop $-1 $-1 $244 $57 #
coedge $-1 $147 $147 $148 $245 reversed $89 $-1 #
coedge $-1 $148 $148 $147 $245 forward $91 $-1 #
coedge $-1 $149 $149 $92 $150 forward $144 $-1 #
edge $-1 $246 0 $246 6.2831853071796004 $149 $247 forward 7 unknown #
face $-1 $248 $249 $32 $-1 $250 reversed single #
loop $-1 $-1 $251 $93 #
plane-surface $-1 -118.48024380530377 -7.2936301867230604 83.228812004501705 0 -1 0 0.62932039886446345 0 -0.77714595512881146 forward_v I I I I #
coedge $-1 $252 $253 $254 $255 reversed $94 $-1 #
coedge $-1 $156 $96 $256 $257 reversed $61 $-1 #
coedge $-1 $96 $155 $252 $258 reversed $61 $-1 #
coedge $-1 $254 $259 $96 $158 forward $260 $-1 #
edge $-1 $261 6.7836870749288707 $262 22.117963844071546 $157 $263 forward 7 unknown #
loop $-1 $-1 $164 $97 #
plane-surface $-1 -52.456434827723015 -10.653150383566445 1.6961997108156055 -0.62932039886446345 0 0.77714595512881146 0.77714595512881146 0 0.62932039886446345 forward_v I I I I #
loop $-1 $-1 $264 $63 #
coedge $-1 $162 $162 $163 $265 reversed $98 $-1 #
coedge $-1 $163 $163 $162 $265 forward $100 $-1 #
coedge $-1 $164 $164 $101 $165 forward $159 $-1 #
edge $-1 $266 0 $266 6.2831853071796004 $164 $267 forward 7 unknown #
loop $-1 $-1 $171 $102 #
plane-surface $-1 -52.456434827723015 -10.653150383566445 1.6961997108156055 -0.62932039886446345 0 0.77714595512881146 0.77714595512881146 0 0.62932039886446345 forward_v I I I I #
loop $-1 $-1 $268 $66 #
coedge $-1 $169 $169 $170 $269 reversed $103 $-1 #
coedge $-1 $170 $170 $169 $269 forward $105 $-1 #
coedge $-1 $171 $171 $106 $172 forward $166 $-1 #
edge $-1 $270 0 $270 6.2831853071796004 $171 $271 forward 7 unknown #
loop $-1 $-1 $178 $107 #
plane-surface $-1 -52.456434827723015 -10.653150383566445 1.6961997108156055 -0.62932039886446345 0 0.77714595512881146 0.77714595512881146 0 0.62932039886446345 forward_v I I I I #
loop $-1 $-1 $272 $69 #
coedge $-1 $176 $176 $177 $273 reversed $108 $-1 #
coedge $-1 $177 $177 $176 $273 forward $110 $-1 #
coedge $-1 $178 $178 $111 $179 forward $173 $-1 #
edge $-1 $274 0 $274 6.2831853071796004 $178 $275 forward 7 unknown #
face $-1 $276 $277 $27 $-1 $278 reversed single #
loop $-1 $-1 $279 $112 #
plane-surface $-1 -52.456434827723015 0 0 1 0 0 0 0 -1 forward_v I I I I #
coedge $-1 $191 $280 $193 $281 reversed $113 $-1 #
coedge $-1 $282 $115 $280 $283 forward $73 $-1 #
coedge $-1 $115 $282 $284 $285 forward $73 $-1 #
coedge $-1 $194 $193 $115 $187 reversed $195 $-1 #
edge $-1 $286 -30.263266212447764 $287 30.263266212447764 $186 $288 forward 7 unknown #
coedge $-1 $117 $116 $289 $290 forward $46 $-1 #
coedge $-1 $291 $292 $116 $190 reversed $277 $-1 #
edge $-1 $197 -52.456434827723015 $293 52.456434827723015 $189 $294 forward 7 unknown #
coedge $-1 $295 $183 $117 $192 reversed $113 $-1 #
edge $-1 $296 -52.456434827723015 $196 52.456434827723015 $191 $297 forward 7 unknown #
coedge $-1 $186 $118 $183 $281 forward $195 $-1 #
coedge $-1 $118 $186 $291 $298 reversed $195 $-1 #
loop $-1 $-1 $193 $276 #
vertex $-1 $119 $299 #
vertex $-1 $119 $300 #
straight-curve $-1 52.456434827723015 0 14.113652454368053 0 1 0 I I #
face $-1 $301 $302 $28 $-1 $303 reversed single #
loop $-1 $-1 $211 $120 #
plane-surface $-1 0 -38.388564028466732 -8.9033125306793242 0 0 1 1 0 0 forward_v I I I I #
coedge $-1 $304 $305 $124 $207 forward $121 $-1 #
coedge $-1 $306 $123 $305 $307 forward $77 $-1 #
coedge $-1 $123 $306 $308 $309 forward $77 $-1 #
coedge $-1 $125 $124 $123 $206 reversed $49 $-1 #
edge $-1 $310 -52.456434827723015 $311 52.456434827723015 $123 $312 forward 7 unknown #
edge $-1 $311 -14.113652454368053 $213 -8.9033125306793242 $202 $313 forward 7 unknown #
coedge $-1 $308 $314 $125 $209 forward $315 $-1 #
edge $-1 $212 8.9033125306793242 $310 14.113652454368053 $208 $316 forward 7 unknown #
coedge $-1 $317 $126 $314 $318 forward $200 $-1 #
coedge $-1 $126 $317 $304 $319 forward $200 $-1 #
vertex $-1 $209 $320 #
vertex $-1 $319 $321 #
straight-curve $-1 0 -30.263266212447764 -8.9033125306793242 1 0 0 I I #
face $-1 $322 $323 $29 $-1 $324 reversed single #
loop $-1 $-1 $325 $128 #
plane-surface $-1 0 46.513861844485703 -11.508482492523688 0 -1 0 0 0 -1 forward_v I I I I #
coedge $-1 $326 $134 $327 $328 forward $129 $-1 #
coedge $-1 $329 $131 $225 $330 reversed $81 $-1 #
coedge $-1 $131 $329 $331 $332 reversed $81 $-1 #
edge $-1 $333 -14.113652454368053 $227 -8.9033125306793242 $131 $334 forward 7 unknown #
coedge $-1 $133 $132 $335 $336 reversed $52 $-1 #
coedge $-1 $337 $327 $133 $224 forward $338 $-1 #
edge $-1 $226 8.9033125306793242 $339 14.113652454368053 $223 $340 forward 7 unknown #
coedge $-1 $134 $326 $219 $330 forward $129 $-1 #
vertex $-1 $224 $341 #
vertex $-1 $330 $342 #
straight-curve $-1 0 30.263266212447764 -8.9033125306793242 -1 0 0 I I #
face $-1 $-1 $343 $30 $-1 $344 reversed single #
loop $-1 $-1 $142 $136 #
plane-surface $-1 0 0 14.113652454368053 0 0 1 1 0 0 forward_v I I I I #
coedge $-1 $345 $346 $347 $348 reversed $137 $-1 #
coedge $-1 $349 $139 $141 $239 forward $85 $-1 #
coedge $-1 $139 $349 $345 $350 forward $85 $-1 #
coedge $-1 $347 $142 $139 $236 forward $230 $-1 #
edge $-1 $242 -2.9186365569336274 $351 4.4350932829687828 $235 $352 forward 7 unknown #
coedge $-1 $353 $354 $140 $238 forward $343 $-1 #
edge $-1 $355 -72.061981120941155 $241 -62.103186986407351 $237 $356 forward 7 unknown #
edge $-1 $242 91.295937109747427 $355 104.912869655446 $141 $357 forward 7 unknown #
coedge $-1 $142 $347 $353 $358 forward $230 $-1 #
vertex $-1 $238 $359 #
vertex $-1 $143 $360 #
straight-curve $-1 28.817223570066815 2.1604081939160498 14.113652454368051 -1 0 0 I I #
coedge $-1 $244 $244 $-1 $361 reversed $146 $-1 #
edge $-1 $362 0 $362 6.2831853071796004 $147 $363 forward 7 unknown #
vertex $-1 $150 $364 #
ellipse-curve $-1 47.813072055440394 -1.5164567260351518 9.1342553871011525 0.73135370988377701 0 0.68199835119979291 1.0229975267996894 0 -1.0970305648256655 1 I I #
face $-1 $-1 $260 $32 $-1 $365 forward single #
loop $-1 $-1 $366 $151 #
plane-surface $-1 -52.456434827723015 0 0 1 0 0 0 0 -1 forward_v I I I I #
coedge $-1 $367 $368 $369 $370 reversed $152 $-1 #
coedge $-1 $371 $154 $156 $258 forward $94 $-1 #
coedge $-1 $154 $371 $367 $372 forward $94 $-1 #
coedge $-1 $369 $157 $154 $255 forward $260 $-1 #
edge $-1 $262 -8.6860953886266064 $373 -1.9670549949398382 $254 $374 forward 7 unknown #
coedge $-1 $375 $376 $155 $257 forward $249 $-1 #
edge $-1 $377 -39.918206291435247 $261 -27.500753547882802 $256 $378 forward 7 unknown #
edge $-1 $262 -19.731527479417981 $377 0 $156 $379 forward 7 unknown #
coedge $-1 $157 $369 $375 $380 forward $260 $-1 #
loop $-1 $-1 $369 $248 #
vertex $-1 $257 $381 #
vertex $-1 $158 $382 #
straight-curve $-1 -59.240121902651886 -14.012670580409829 14.113652454368051 1 0 0 I I #
coedge $-1 $264 $264 $-1 $383 reversed $161 $-1 #
edge $-1 $384 0 $384 6.2831853071796004 $162 $385 forward 7 unknown #
vertex $-1 $165 $386 #
ellipse-curve $-1 -44.78929644315167 -12.668862501672475 7.9049260825918317 -0.62932039886446345 0 0.77714595512881146 0.38857297756440573 0 0.31466019943223172 1 I I #
coedge $-1 $268 $268 $-1 $387 reversed $168 $-1 #
edge $-1 $388 0 $388 6.2831853071796004 $169 $389 forward 7 unknown #
vertex $-1 $172 $390 #
ellipse-curve $-1 -44.78929644315167 -10.653150383566445 7.9049260825918317 -0.62932039886446345 0 0.77714595512881146 0.38857297756440573 0 0.31466019943223172 1 I I #
coedge $-1 $272 $272 $-1 $391 reversed $175 $-1 #
edge $-1 $392 0 $392 6.2831853071796004 $176 $393 forward 7 unknown #
vertex $-1 $179 $394 #
ellipse-curve $-1 -44.78929644315167 -8.637438265460414 7.9049260825918317 -0.62932039886446345 0 0.77714595512881146 0.38857297756440573 0 0.31466019943223172 1 I I #
face $-1 $-1 $195 $27 $-1 $395 reversed single #
loop $-1 $-1 $292 $180 #
plane-surface $-1 0 30.263266212447764 0 0 -1 0 0 0 -1 forward_v I I I I #
coedge $-1 $396 $289 $292 $397 forward $181 $-1 #
coedge $-1 $183 $295 $184 $283 reversed $113 $-1 #
edge $-1 $196 -14.113652454368053 $287 14.113652454368053 $193 $398 forward 7 unknown #
coedge $-1 $185 $184 $396 $399 forward $73 $-1 #
edge $-1 $287 -52.456434827723015 $400 52.456434827723015 $280 $401 forward 7 unknown #
coedge $-1 $292 $291 $185 $285 reversed $277 $-1 #
edge $-1 $402 -52.456434827723015 $286 52.456434827723015 $284 $403 forward 7 unknown #
vertex $-1 $187 $404 #
vertex $-1 $281 $405 #
straight-curve $-1 52.456434827723015 0 -14.113652454368053 0 -1 0 I I #
coedge $-1 $279 $406 $188 $290 reversed $181 $-1 #
edge $-1 $293 -30.263266212447764 $296 30.263266212447764 $289 $407 forward 7 unknown #
coedge $-1 $284 $189 $194 $298 forward $277 $-1 #
coedge $-1 $189 $284 $279 $397 reversed $277 $-1 #
vertex $-1 $190 $408 #
straight-curve $-1 0 30.263266212447764 14.113652454368053 -1 0 0 I I #
coedge $-1 $280 $191 $406 $409 forward $113 $-1 #
vertex $-1 $290 $410 #
straight-curve $-1 0 -30.263266212447764 14.113652454368053 1 0 0 I I #
edge $-1 $197 -14.113652454368053 $286 14.113652454368053 $194 $411 forward 7 unknown #
point $-1 52.456434827723015 -30.263266212447764 14.113652454368053 #
point $-1 52.456434827723015 30.263266212447764 14.113652454368053 #
face $-1 $-1 $315 $28 $-1 $412 reversed single #
loop $-1 $-1 $413 $199 #
plane-surface $-1 0 -46.513861844485703 -11.508482492523688 0 1 0 0 0 1 forward_v I I I I #
coedge $-1 $414 $202 $211 $319 reversed $121 $-1 #
coedge $-1 $202 $414 $203 $307 reversed $121 $-1 #
coedge $-1 $204 $203 $415 $416 forward $77 $-1 #
edge $-1 $311 30.263266212447764 $417 46.513861844485703 $305 $418 forward 7 unknown #
coedge $-1 $419 $208 $204 $309 reversed $315 $-1 #
edge $-1 $420 -46.513861844485703 $310 -30.263266212447764 $308 $421 forward 7 unknown #
vertex $-1 $209 $422 #
vertex $-1 $307 $423 #
straight-curve $-1 0 -30.263266212447764 -14.113652454368053 1 0 0 I I #
straight-curve $-1 52.456434827723015 -30.263266212447764 0 0 0 1 I I #
coedge $-1 $208 $419 $210 $318 reversed $315 $-1 #
loop $-1 $-1 $208 $301 #
straight-curve $-1 -52.456434827723015 -30.263266212447764 0 0 0 -1 I I #
coedge $-1 $211 $210 $424 $425 forward $200 $-1 #
edge $-1 $212 -8.1252978160189677 $426 8.1252978160189713 $314 $427 forward 7 unknown #
edge $-1 $428 -8.1252978160189713 $213 8.1252978160189677 $304 $429 forward 7 unknown #
point $-1 -52.456434827723015 -30.263266212447764 -8.9033125306793242 #
point $-1 52.456434827723015 -30.263266212447764 -8.9033125306793242 #
face $-1 $-1 $338 $29 $-1 $430 reversed single #
loop $-1 $-1 $335 $215 #
plane-surface $-1 0 0 -14.113652454368053 0 0 1 1 0 0 forward_v I I I I #
coedge $-1 $431 $432 $433 $434 forward $216 $-1 #
coedge $-1 $225 $218 $432 $435 forward $129 $-1 #
coedge $-1 $223 $433 $218 $328 reversed $338 $-1 #
edge $-1 $226 -8.1252978160189677 $436 8.1252978160189713 $327 $437 forward 7 unknown #
coedge $-1 $220 $219 $438 $439 forward $81 $-1 #
edge $-1 $440 -8.1252978160189713 $227 8.1252978160189677 $219 $441 forward 7 unknown #
coedge $-1 $442 $335 $220 $332 forward $323 $-1 #
edge $-1 $333 -8.1252978160189677 $443 8.1252978160189713 $220 $444 forward 7 unknown #
vertex $-1 $332 $445 #
straight-curve $-1 -52.456434827723015 30.263266212447764 0 0 0 1 I I #
coedge $-1 $331 $446 $222 $336 forward $323 $-1 #
edge $-1 $339 -52.456434827723015 $333 52.456434827723015 $335 $447 forward 7 unknown #
coedge $-1 $433 $223 $446 $448 reversed $338 $-1 #
loop $-1 $-1 $223 $322 #
vertex $-1 $224 $449 #
straight-curve $-1 52.456434827723015 30.263266212447764 0 0 0 -1 I I #
point $-1 52.456434827723015 30.263266212447764 -8.9033125306793242 #
point $-1 -52.456434827723015 30.263266212447764 -8.9033125306793242 #
loop $-1 $-1 $237 $229 #
plane-surface $-1 52.456434827723015 0 0 -1 0 0 0 0 1 forward_v I I I I #
coedge $-1 $346 $232 $234 $350 reversed $137 $-1 #
coedge $-1 $232 $345 $450 $451 reversed $137 $-1 #
coedge $-1 $240 $235 $232 $348 forward $230 $-1 #
edge $-1 $351 14.352485713090964 $452 23.6392112576562 $347 $453 forward 7 unknown #
coedge $-1 $234 $233 $354 $454 reversed $85 $-1 #
edge $-1 $455 -104.912869655446 $351 -91.295937109747427 $345 $456 forward 7 unknown #
vertex $-1 $236 $457 #
straight-curve $-1 43.169709283157772 -0.75822836301757768 14.113652454368044 0 -1 0 I I #
coedge $-1 $450 $237 $240 $358 reversed $343 $-1 #
coedge $-1 $237 $450 $349 $454 forward $343 $-1 #
vertex $-1 $238 $458 #
straight-curve $-1 52.456434827723015 2.1604081939160498 76.216839440775402 0 0 1 I I #
straight-curve $-1 -19.093969296929956 2.1604081939160498 80.883274756897819 0.68199835119979291 0 -0.73135370988377701 I I #
edge $-1 $452 -5.1933216459863605 $241 2.1604081939160498 $353 $459 forward 7 unknown #
point $-1 52.456434827723015 2.1604081939160498 14.113652454368053 #
point $-1 43.169709283157779 2.1604081939160498 14.113652454368051 #
edge $-1 $460 1 $460 0 $244 $-1 forward 7 unknown #
vertex $-1 $245 $461 #
ellipse-curve $-1 44.198331736732626 -1.5164567260351518 5.7634555893317838 0.73135370988377701 0 0.68199835119979291 1.0229975267996894 0 -1.0970305648256655 1 I I #
point $-1 48.836069582240079 -1.5164567260351518 8.0372248222754852 #
plane-surface $-1 0 0 14.113652454368053 0 0 1 1 0 0 forward_v I I I I #
coedge $-1 $376 $375 $368 $462 forward $249 $-1 #
coedge $-1 $368 $251 $253 $372 reversed $152 $-1 #
coedge $-1 $251 $367 $366 $462 reversed $152 $-1 #
coedge $-1 $259 $254 $251 $370 forward $260 $-1 #
edge $-1 $373 -22.117963844071546 $463 -6.7836870749288707 $369 $464 forward 7 unknown #
coedge $-1 $253 $252 $376 $465 reversed $94 $-1 #
edge $-1 $466 0 $373 19.731527479417981 $367 $467 forward 7 unknown #
vertex $-1 $255 $468 #
straight-curve $-1 -37.122158058580332 -5.3265751917832223 14.113652454368053 0 1 0 I I #
coedge $-1 $366 $256 $259 $380 reversed $249 $-1 #
coedge $-1 $256 $366 $371 $465 forward $249 $-1 #
vertex $-1 $257 $469 #
straight-curve $-1 -52.456434827723015 -14.012670580409829 41.614406002250853 0 0 1 I I #
straight-curve $-1 -52.456434827723015 -14.012670580409829 1.6961997108156055 -0.77714595512881146 0 -0.62932039886446345 I I #
edge $-1 $463 7.2936301867230604 $261 14.012670580409829 $375 $470 forward 7 unknown #
point $-1 -52.456434827723015 -14.012670580409829 14.113652454368053 #
point $-1 -37.122158058580339 -14.012670580409829 14.113652454368053 #
edge $-1 $471 1 $471 0 $264 $-1 forward 7 unknown #
vertex $-1 $265 $472 #
ellipse-curve $-1 -43.978230418064037 -12.668862501672475 6.9033429750418636 -0.62932039886446345 0 0.77714595512881146 0.38857297756440573 0 0.31466019943223172 1 I I #
point $-1 -44.400723465587262 -12.668862501672475 8.2195862820240606 #
edge $-1 $473 1 $473 0 $268 $-1 forward 7 unknown #
vertex $-1 $269 $474 #
ellipse-curve $-1 -43.978230418064037 -10.653150383566445 6.9033429750418636 -0.62932039886446345 0 0.77714595512881146 0.38857297756440573 0 0.31466019943223172 1 I I #
point $-1 -44.400723465587262 -10.653150383566445 8.2195862820240606 #
edge $-1 $475 1 $475 0 $272 $-1 forward 7 unknown #
vertex $-1 $273 $476 #
ellipse-curve $-1 -43.978230418064037 -8.637438265460414 6.9033429750418636 -0.62932039886446345 0 0.77714595512881146 0.38857297756440573 0 0.31466019943223172 1 I I #
point $-1 -44.400723465587262 -8.637438265460414 8.2195862820240606 #
plane-surface $-1 52.456434827723015 0 0 -1 0 0 0 0 1 forward_v I I I I #
coedge $-1 $406 $279 $282 $399 reversed $181 $-1 #
edge $-1 $293 -14.113652454368053 $402 14.113652454368053 $292 $477 forward 7 unknown #
straight-curve $-1 52.456434827723015 -30.263266212447764 0 0 0 -1 I I #
edge $-1 $400 -30.263266212447764 $402 30.263266212447764 $396 $478 forward 7 unknown #
vertex $-1 $399 $479 #
straight-curve $-1 0 -30.263266212447764 -14.113652454368053 -1 0 0 I I #
vertex $-1 $285 $480 #
straight-curve $-1 0 30.263266212447764 -14.113652454368053 1 0 0 I I #
point $-1 52.456434827723015 30.263266212447764 -14.113652454368053 #
point $-1 52.456434827723015 -30.263266212447764 -14.113652454368053 #
coedge $-1 $289 $396 $295 $409 reversed $181 $-1 #
straight-curve $-1 -52.456434827723015 0 14.113652454368053 0 -1 0 I I #
point $-1 -52.456434827723015 30.263266212447764 14.113652454368053 #
edge $-1 $296 -14.113652454368053 $400 14.113652454368053 $406 $481 forward 7 unknown #
point $-1 -52.456434827723015 -30.263266212447764 14.113652454368053 #
straight-curve $-1 52.456434827723015 30.263266212447764 0 0 0 -1 I I #
plane-surface $-1 -52.456434827723015 0 0 1 0 0 0 0 -1 forward_v I I I I #
coedge $-1 $415 $424 $419 $482 forward $302 $-1 #
coedge $-1 $305 $304 $483 $484 forward $121 $-1 #
coedge $-1 $483 $413 $306 $416 reversed $302 $-1 #
edge $-1 $417 -52.456434827723015 $420 52.456434827723015 $415 $485 forward 7 unknown #
vertex $-1 $484 $486 #
straight-curve $-1 52.456434827723015 0 -14.113652454368053 0 -1 0 I I #
coedge $-1 $314 $308 $413 $482 reversed $315 $-1 #
vertex $-1 $309 $487 #
straight-curve $-1 -52.456434827723015 0 -14.113652454368053 0 1 0 I I #
point $-1 -52.456434827723015 -30.263266212447764 -14.113652454368053 #
point $-1 52.456434827723015 -30.263266212447764 -14.113652454368053 #
coedge $-1 $413 $483 $317 $425 reversed $302 $-1 #
edge $-1 $426 -52.456434827723015 $428 52.456434827723015 $424 $488 forward 7 unknown #
vertex $-1 $318 $489 #
straight-curve $-1 -52.456434827723015 -38.388564028466732 -8.9033125306793242 0 -1 0 I I #
vertex $-1 $319 $490 #
straight-curve $-1 52.456434827723015 -38.388564028466732 -8.9033125306793242 0 1 0 I I #
plane-surface $-1 52.456434827723015 0 0 -1 0 0 0 0 1 forward_v I I I I #
coedge $-1 $438 $325 $442 $491 reversed $216 $-1 #
coedge $-1 $325 $438 $326 $435 reversed $216 $-1 #
coedge $-1 $327 $337 $325 $434 reversed $338 $-1 #
edge $-1 $436 -2.6051699618443642 $492 2.6051699618443642 $433 $493 forward 7 unknown #
edge $-1 $436 -52.456434827723015 $440 52.456434827723015 $432 $494 forward 7 unknown #
vertex $-1 $328 $495 #
straight-curve $-1 52.456434827723015 38.388564028466732 -8.9033125306793242 0 1 0 I I #
coedge $-1 $432 $431 $329 $439 reversed $216 $-1 #
edge $-1 $440 -2.6051699618443642 $443 2.6051699618443642 $438 $496 forward 7 unknown #
vertex $-1 $435 $497 #
straight-curve $-1 -52.456434827723015 38.388564028466732 -8.9033125306793242 0 -1 0 I I #
coedge $-1 $446 $331 $431 $491 forward $323 $-1 #
vertex $-1 $491 $498 #
straight-curve $-1 -52.456434827723015 38.388564028466732 -14.113652454368053 0 1 0 I I #
point $-1 -52.456434827723015 30.263266212447764 -14.113652454368053 #
coedge $-1 $335 $442 $337 $448 forward $323 $-1 #
straight-curve $-1 0 30.263266212447764 -14.113652454368053 -1 0 0 I I #
edge $-1 $492 -46.513861844485703 $339 -30.263266212447764 $337 $499 forward 7 unknown #
point $-1 52.456434827723015 30.263266212447764 -14.113652454368053 #
coedge $-1 $354 $353 $346 $451 forward $343 $-1 #
edge $-1 $452 62.103186986407351 $455 72.061981120941155 $450 $500 forward 7 unknown #
vertex $-1 $358 $501 #
straight-curve $-1 28.817223570066815 -5.1933216459863605 14.113652454368051 1 0 0 I I #
edge $-1 $455 -4.4350932829687828 $355 2.9186365569336274 $354 $502 forward 7 unknown #
vertex $-1 $454 $503 #
straight-curve $-1 -19.093969296929956 -5.1933216459863605 80.883274756897819 -0.68199835119979291 0 0.73135370988377701 I I #
point $-1 43.169709283157779 -5.1933216459863605 14.113652454368051 #
point $-1 52.456434827723015 2.1604081939160498 4.154858319834247 #
straight-curve $-1 52.456434827723015 0 14.113652454368053 0 1 0 I I #
vertex $-1 $361 $504 #
point $-1 45.221329263532311 -1.5164567260351518 4.6664250245061183 #
edge $-1 $463 27.500753547882802 $466 39.918206291435247 $366 $505 forward 7 unknown #
vertex $-1 $380 $506 #
straight-curve $-1 -59.240121902651886 -7.2936301867230604 14.113652454368051 -1 0 0 I I #
edge $-1 $466 1.9670549949398382 $377 8.6860953886266064 $376 $507 forward 7 unknown #
vertex $-1 $465 $508 #
straight-curve $-1 -52.456434827723015 -7.2936301867230604 1.6961997108156055 0.77714595512881146 0 0.62932039886446345 I I #
point $-1 -37.122158058580339 -7.2936301867230604 14.113652454368053 #
point $-1 -52.456434827723015 -14.012670580409829 1.6961997108156055 #
straight-curve $-1 -52.456434827723015 0 14.113652454368053 0 -1 0 I I #
vertex $-1 $383 $509 #
point $-1 -43.589657440499636 -12.668862501672475 7.2180031744740951 #
vertex $-1 $387 $510 #
point $-1 -43.589657440499636 -10.653150383566445 7.2180031744740951 #
vertex $-1 $391 $511 #
point $-1 -43.589657440499636 -8.637438265460414 7.2180031744740951 #
straight-curve $-1 -52.456434827723015 30.263266212447764 0 0 0 -1 I I #
straight-curve $-1 -52.456434827723015 0 -14.113652454368053 0 1 0 I I #
point $-1 -52.456434827723015 -30.263266212447764 -14.113652454368053 #
point $-1 -52.456434827723015 30.263266212447764 -14.113652454368053 #
straight-curve $-1 -52.456434827723015 -30.263266212447764 0 0 0 -1 I I #
edge $-1 $426 -2.6051699618443642 $420 2.6051699618443642 $419 $512 forward 7 unknown #
coedge $-1 $424 $415 $414 $484 reversed $302 $-1 #
edge $-1 $428 -2.6051699618443642 $417 2.6051699618443642 $414 $513 forward 7 unknown #
straight-curve $-1 0 -46.513861844485703 -14.113652454368053 -1 0 0 I I #
point $-1 52.456434827723015 -46.513861844485703 -14.113652454368053 #
point $-1 -52.456434827723015 -46.513861844485703 -14.113652454368053 #
straight-curve $-1 0 -46.513861844485703 -8.9033125306793242 1 0 0 I I #
point $-1 -52.456434827723015 -46.513861844485703 -8.9033125306793242 #
point $-1 52.456434827723015 -46.513861844485703 -8.9033125306793242 #
edge $-1 $443 -52.456434827723015 $492 52.456434827723015 $431 $514 forward 7 unknown #
vertex $-1 $448 $515 #
straight-curve $-1 52.456434827723015 46.513861844485703 -11.508482492523688 0 0 -1 I I #
straight-curve $-1 0 46.513861844485703 -8.9033125306793242 -1 0 0 I I #
point $-1 52.456434827723015 46.513861844485703 -8.9033125306793242 #
straight-curve $-1 -52.456434827723015 46.513861844485703 -11.508482492523688 0 0 -1 I I #
point $-1 -52.456434827723015 46.513861844485703 -8.9033125306793242 #
point $-1 -52.456434827723015 46.513861844485703 -14.113652454368053 #
straight-curve $-1 52.456434827723015 0 -14.113652454368053 0 -1 0 I I #
straight-curve $-1 52.456434827723015 -5.1933216459863605 76.216839440775402 0 0 -1 I I #
point $-1 52.456434827723015 -5.1933216459863605 14.113652454368053 #
straight-curve $-1 52.456434827723015 -0.75822836301757768 4.1548583198342399 0 1 0 I I #
point $-1 52.456434827723015 -5.1933216459863605 4.154858319834247 #
point $-1 43.101301171906954 -1.5164567260351518 4.7404580625320953 #
straight-curve $-1 -52.456434827723015 -7.2936301867230604 41.614406002250853 0 0 -1 I I #
point $-1 -52.456434827723015 -7.2936301867230604 14.113652454368053 #
straight-curve $-1 -52.456434827723015 -5.3265751917832223 1.6961997108156064 0 -1 0 I I #
point $-1 -52.456434827723015 -7.2936301867230604 1.6961997108156055 #
point $-1 -43.663570218631811 -12.668862501672475 6.5147699974774573 #
point $-1 -43.663570218631811 -10.653150383566445 6.5147699974774573 #
point $-1 -43.663570218631811 -8.637438265460414 6.5147699974774573 #
straight-curve $-1 -52.456434827723015 -46.513861844485703 -11.508482492523688 0 0 -1 I I #
straight-curve $-1 52.456434827723015 -46.513861844485703 -11.508482492523688 0 0 -1 I I #
straight-curve $-1 0 46.513861844485703 -14.113652454368053 1 0 0 I I #
point $-1 52.456434827723015 46.513861844485703 -14.113652454368053 #
End-of-ACIS-data 