500 0 9 0           
7 Unknown 11 ACIS 5.0 NT 24 Thu Mar 25 17:36:57 1999 
-1 9.9999999999999995e-007 1e-010 
body $-1 $9 $-1 $10 #
body $-1 $11 $-1 $12 #
body $-1 $13 $-1 $14 #
body $-1 $15 $-1 $16 #
body $-1 $17 $-1 $18 #
body $-1 $19 $-1 $20 #
body $-1 $21 $-1 $22 #
body $-1 $23 $-1 $24 #
body $-1 $25 $-1 $26 #
lump $-1 $-1 $27 $0 #
transform $-1 1 0 0 0 1 0 0 0 1 74.620197149571226 41.320874392523727 20.640386477464261 1 rotate no_reflect no_shear #
lump $-1 $-1 $28 $1 #
transform $-1 1 0 0 0 1 0 0 0 1 74.620197149571226 41.320874392523727 20.640386477464261 1 rotate no_reflect no_shear #
lump $-1 $-1 $29 $2 #
transform $-1 1 0 0 0 1 0 0 0 1 74.620197149571226 41.320874392523727 20.640386477464261 1 rotate no_reflect no_shear #
lump $-1 $-1 $30 $3 #
transform $-1 1 0 0 0 1 0 0 0 1 74.620197149571226 41.320874392523727 20.640386477464261 1 rotate no_reflect no_shear #
lump $-1 $-1 $31 $4 #
transform $-1 1 0 0 0 1 0 0 0 1 74.620197149571226 41.320874392523727 20.640386477464261 1 rotate no_reflect no_shear #
lump $-1 $-1 $32 $5 #
transform $-1 1 0 0 0 1 0 0 0 1 74.620197149571226 41.320874392523727 20.640386477464261 1 rotate no_reflect no_shear #
lump $-1 $-1 $33 $6 #
transform $-1 1 0 0 0 1 0 0 0 1 74.620197149571226 41.320874392523727 20.640386477464261 1 rotate no_reflect no_shear #
lump $-1 $-1 $34 $7 #
transform $-1 1 0 0 0 1 0 0 0 1 74.620197149571226 41.320874392523727 20.640386477464261 1 rotate no_reflect no_shear #
lump $-1 $-1 $35 $8 #
transform $-1 1 0 0 0 1 0 0 0 1 74.620197149571226 41.320874392523727 20.640386477464261 1 rotate no_reflect no_shear #
shell $-1 $-1 $-1 $36 $-1 $9 #
shell $-1 $-1 $-1 $37 $-1 $11 #
shell $-1 $-1 $-1 $38 $-1 $13 #
shell $-1 $-1 $-1 $39 $-1 $15 #
shell $-1 $-1 $-1 $40 $-1 $17 #
shell $-1 $-1 $-1 $41 $-1 $19 #
shell $-1 $-1 $-1 $42 $-1 $21 #
shell $-1 $-1 $-1 $43 $-1 $23 #
shell $-1 $-1 $-1 $44 $-1 $25 #
face $-1 $45 $46 $27 $-1 $47 forward single #
face $-1 $48 $49 $28 $-1 $50 forward single #
face $-1 $51 $52 $29 $-1 $53 forward single #
face $-1 $54 $55 $30 $-1 $56 reversed single #
face $-1 $57 $58 $31 $-1 $59 forward single #
face $-1 $60 $61 $32 $-1 $62 forward single #
face $-1 $63 $64 $33 $-1 $65 reversed single #
face $-1 $66 $67 $34 $-1 $68 forward single #
face $-1 $69 $70 $35 $-1 $71 forward single #
face $-1 $72 $73 $27 $-1 $74 reversed single #
loop $-1 $-1 $75 $36 #
plane-surface $-1 0 0 20.640386477464261 0 0 1 1 0 0 forward_v I I I I #
face $-1 $76 $77 $28 $-1 $78 reversed single #
loop $-1 $-1 $79 $37 #
plane-surface $-1 0 -41.320874392523727 0 0 1 0 0 0 1 forward_v I I I I #
face $-1 $80 $81 $29 $-1 $82 reversed single #
loop $-1 $-1 $83 $38 #
plane-surface $-1 0 41.320874392523727 0 0 -1 0 0 0 -1 forward_v I I I I #
face $-1 $84 $85 $30 $-1 $86 reversed single #
loop $-1 $-1 $87 $39 #
plane-surface $-1 -162.34150108561607 -10.929670255142941 137.78351497488637 0 1 0 -0.5877852598018023 0 0.80901698891910034 forward_v I I I I #
face $-1 $88 $89 $31 $-1 $90 forward single #
loop $-1 $91 $92 $40 #
cone-surface $-1 -71.195789208926939 -6.3384817091447374 17.53477511800379 0.5877852598018023 0 -0.80901698891910034 1.2135254833786506 0 0.88167788970270344 1 I I 0 1 1.5 forward I I I I #
face $-1 $93 $94 $32 $-1 $95 forward single #
loop $-1 $96 $97 $41 #
cone-surface $-1 -71.195789208926939 0.54830110985257363 17.53477511800379 0.5877852598018023 0 -0.80901698891910034 1.2135254833786506 0 0.88167788970270344 1 I I 0 1 1.5 forward I I I I #
face $-1 $98 $99 $33 $-1 $100 reversed single #
loop $-1 $-1 $101 $42 #
plane-surface $-1 107.63691247183786 -20.475091982768472 210.35649224667966 0 -1 0 -0.80901700255871778 0 -0.5877852410284794 forward_v I I I I #
face $-1 $102 $103 $34 $-1 $104 forward single #
loop $-1 $105 $106 $43 #
cone-surface $-1 67.406818597723657 -25.12399548105379 10.974887946117672 -0.80901700255871778 0 -0.5877852410284794 0.2938926205142397 0 -0.40450850127935889 1 I I 0 1 0.5 forward I I I I #
face $-1 $107 $108 $35 $-1 $109 forward single #
loop $-1 $110 $111 $44 #
cone-surface $-1 67.406818597723657 -22.3346533820826 10.974887946117672 -0.80901700255871778 0 -0.5877852410284794 0.2938926205142397 0 -0.40450850127935889 1 I I 0 1 0.5 forward I I I I #
face $-1 $112 $113 $27 $-1 $114 reversed single #
loop $-1 $-1 $115 $45 #
plane-surface $-1 0 0 -20.640386477464261 0 0 1 1 0 0 forward_v I I I I #
coedge $-1 $116 $117 $118 $119 forward $46 $-1 #
face $-1 $120 $121 $28 $-1 $122 reversed single #
loop $-1 $-1 $123 $48 #
plane-surface $-1 0 0 -20.640386477464261 0 0 1 1 0 0 forward_v I I I I #
coedge $-1 $124 $125 $126 $127 forward $49 $-1 #
face $-1 $128 $129 $29 $-1 $130 forward single #
loop $-1 $-1 $131 $51 #
plane-surface $-1 -74.620197149571226 0 0 1 0 0 0 0 -1 forward_v I I I I #
coedge $-1 $132 $133 $134 $135 forward $52 $-1 #
face $-1 $136 $137 $30 $-1 $138 reversed single #
loop $-1 $-1 $139 $54 #
plane-surface $-1 -74.620197149571212 -2.8950902996460783 17.045500553894883 -0.5877852598018023 0 0.80901698891910034 0.80901698891910034 0 0.5877852598018023 forward_v I I I I #
coedge $-1 $140 $141 $142 $143 reversed $55 $-1 #
face $-1 $-1 $144 $31 $-1 $145 forward single #
loop $-1 $146 $147 $57 #
cone-surface $-1 -69.804510270819449 -6.3384817091447374 15.619843978638677 0.5877852598018023 0 -0.80901698891910034 0.60676274168932531 0 0.44083894485135172 1 I I -0.70710678118654757 0.70710678118654757 0.75 forward I I I I #
loop $-1 $-1 $148 $40 #
coedge $-1 $92 $92 $149 $150 reversed $58 $-1 #
face $-1 $-1 $151 $32 $-1 $152 forward single #
loop $-1 $153 $154 $60 #
cone-surface $-1 -69.804510270819449 0.54830110985257363 15.619843978638677 0.5877852598018023 0 -0.80901698891910034 0.60676274168932531 0 0.44083894485135172 1 I I -0.70710678118654757 0.70710678118654757 0.75 forward I I I I #
loop $-1 $-1 $155 $41 #
coedge $-1 $97 $97 $156 $157 reversed $61 $-1 #
face $-1 $158 $159 $33 $-1 $160 reversed single #
loop $-1 $-1 $161 $63 #
plane-surface $-1 -13.101103984735516 -23.729324431568195 122.63519111237292 0.80901700255871778 0 0.5877852410284794 0.5877852410284794 0 -0.80901700255871778 forward_v I I I I #
coedge $-1 $162 $163 $164 $165 reversed $64 $-1 #
face $-1 $-1 $166 $34 $-1 $167 forward single #
loop $-1 $168 $169 $66 #
cone-surface $-1 66.800055845804621 -25.12399548105379 10.534049015346312 -0.80901700255871778 0 -0.5877852410284794 0.14694631025711985 0 -0.20225425063967944 1 I I -0.70710678118654746 0.70710678118654746 0.25 forward I I I I #
loop $-1 $-1 $170 $43 #
coedge $-1 $106 $106 $171 $172 reversed $67 $-1 #
face $-1 $-1 $173 $35 $-1 $174 forward single #
loop $-1 $175 $176 $69 #
cone-surface $-1 66.800055845804621 -22.3346533820826 10.534049015346312 -0.80901700255871778 0 -0.5877852410284794 0.14694631025711985 0 -0.20225425063967944 1 I I -0.70710678118654746 0.70710678118654746 0.25 forward I I I I #
loop $-1 $-1 $177 $44 #
coedge $-1 $111 $111 $178 $179 reversed $70 $-1 #
face $-1 $180 $181 $27 $-1 $182 reversed single #
loop $-1 $-1 $183 $72 #
plane-surface $-1 0 -41.320874392523727 0 0 1 0 0 0 1 forward_v I I I I #
coedge $-1 $184 $185 $186 $187 forward $73 $-1 #
coedge $-1 $188 $75 $189 $190 forward $46 $-1 #
coedge $-1 $75 $188 $191 $192 forward $46 $-1 #
coedge $-1 $193 $194 $75 $119 reversed $195 $-1 #
edge $-1 $196 -41.320874392523727 $197 41.320874392523727 $118 $198 forward 7 unknown #
face $-1 $199 $200 $28 $-1 $201 forward single #
loop $-1 $-1 $202 $76 #
plane-surface $-1 74.620197149571226 0 0 -1 0 0 0 0 1 forward_v I I I I #
coedge $-1 $203 $204 $205 $206 forward $77 $-1 #
coedge $-1 $205 $79 $202 $207 reversed $49 $-1 #
coedge $-1 $79 $205 $208 $209 reversed $49 $-1 #
coedge $-1 $210 $211 $79 $127 reversed $200 $-1 #
edge $-1 $212 -74.620197149571226 $213 74.620197149571226 $126 $214 forward 7 unknown #
face $-1 $215 $216 $29 $-1 $217 reversed single #
loop $-1 $-1 $218 $80 #
plane-surface $-1 0 48.48953314860163 -14.066731727211824 0 0 1 1 0 0 forward_v I I I I #
coedge $-1 $219 $220 $132 $221 forward $81 $-1 #
coedge $-1 $222 $83 $131 $221 reversed $52 $-1 #
coedge $-1 $83 $222 $223 $224 reversed $52 $-1 #
coedge $-1 $218 $225 $83 $135 reversed $129 $-1 #
edge $-1 $226 -74.620197149571226 $227 74.620197149571226 $134 $228 forward 7 unknown #
face $-1 $229 $230 $30 $-1 $231 reversed single #
loop $-1 $-1 $232 $84 #
plane-surface $-1 -162.34150108561607 5.1394896558507845 137.78351497488637 0 -1 0 0.5877852598018023 0 -0.80901698891910034 forward_v I I I I #
coedge $-1 $233 $234 $235 $236 reversed $85 $-1 #
coedge $-1 $141 $87 $237 $238 reversed $55 $-1 #
coedge $-1 $87 $140 $233 $239 reversed $55 $-1 #
coedge $-1 $235 $240 $87 $143 forward $241 $-1 #
edge $-1 $242 6.550553393236811 $243 11.498489288013133 $142 $244 forward 7 unknown #
loop $-1 $-1 $149 $88 #
plane-surface $-1 -74.620197149571212 -2.8950902996460783 17.045500553894883 -0.5877852598018023 0 0.80901698891910034 0.80901698891910034 0 0.5877852598018023 forward_v I I I I #
loop $-1 $-1 $245 $57 #
coedge $-1 $147 $147 $148 $246 reversed $89 $-1 #
coedge $-1 $148 $148 $147 $246 forward $91 $-1 #
coedge $-1 $149 $149 $92 $150 forward $144 $-1 #
edge $-1 $247 0 $247 6.2831853071796004 $149 $248 forward 7 unknown #
loop $-1 $-1 $156 $93 #
plane-surface $-1 -74.620197149571212 -2.8950902996460783 17.045500553894883 -0.5877852598018023 0 0.80901698891910034 0.80901698891910034 0 0.5877852598018023 forward_v I I I I #
loop $-1 $-1 $249 $60 #
coedge $-1 $154 $154 $155 $250 reversed $94 $-1 #
coedge $-1 $155 $155 $154 $250 forward $96 $-1 #
coedge $-1 $156 $156 $97 $157 forward $151 $-1 #
edge $-1 $251 0 $251 6.2831853071796004 $156 $252 forward 7 unknown #
face $-1 $253 $254 $33 $-1 $255 forward single #
loop $-1 $-1 $256 $98 #
plane-surface $-1 107.63691247183786 -26.983556880367917 210.35649224667966 0 1 0 0.80901700255871778 0 0.5877852410284794 forward_v I I I I #
coedge $-1 $257 $258 $259 $260 reversed $99 $-1 #
coedge $-1 $163 $101 $261 $262 reversed $64 $-1 #
coedge $-1 $101 $162 $257 $263 reversed $64 $-1 #
coedge $-1 $259 $264 $101 $165 forward $254 $-1 #
edge $-1 $265 -20.801740913652296 $266 -7.1840008125158761 $164 $267 forward 7 unknown #
loop $-1 $-1 $171 $102 #
plane-surface $-1 -13.101103984735516 -23.729324431568195 122.63519111237292 0.80901700255871778 0 0.5877852410284794 0.5877852410284794 0 -0.80901700255871778 forward_v I I I I #
loop $-1 $-1 $268 $66 #
coedge $-1 $169 $169 $170 $269 reversed $103 $-1 #
coedge $-1 $170 $170 $169 $269 forward $105 $-1 #
coedge $-1 $171 $171 $106 $172 forward $166 $-1 #
edge $-1 $270 0 $270 6.2831853071796004 $171 $271 forward 7 unknown #
loop $-1 $-1 $178 $107 #
plane-surface $-1 -13.101103984735516 -23.729324431568195 122.63519111237292 0.80901700255871778 0 0.5877852410284794 0.5877852410284794 0 -0.80901700255871778 forward_v I I I I #
loop $-1 $-1 $272 $69 #
coedge $-1 $176 $176 $177 $273 reversed $108 $-1 #
coedge $-1 $177 $177 $176 $273 forward $110 $-1 #
coedge $-1 $178 $178 $111 $179 forward $173 $-1 #
edge $-1 $274 0 $274 6.2831853071796004 $178 $275 forward 7 unknown #
face $-1 $276 $277 $27 $-1 $278 reversed single #
loop $-1 $-1 $279 $112 #
plane-surface $-1 -74.620197149571226 0 0 1 0 0 0 0 -1 forward_v I I I I #
coedge $-1 $280 $191 $281 $282 forward $113 $-1 #
coedge $-1 $283 $115 $280 $284 forward $73 $-1 #
coedge $-1 $115 $283 $285 $286 forward $73 $-1 #
coedge $-1 $194 $193 $115 $187 reversed $195 $-1 #
edge $-1 $287 -41.320874392523727 $288 41.320874392523727 $186 $289 forward 7 unknown #
coedge $-1 $117 $116 $290 $291 forward $46 $-1 #
coedge $-1 $292 $293 $116 $190 reversed $277 $-1 #
edge $-1 $197 -74.620197149571226 $294 74.620197149571226 $189 $295 forward 7 unknown #
coedge $-1 $183 $296 $117 $192 reversed $113 $-1 #
edge $-1 $297 -74.620197149571226 $196 74.620197149571226 $191 $298 forward 7 unknown #
coedge $-1 $186 $118 $296 $299 forward $195 $-1 #
coedge $-1 $118 $186 $292 $300 reversed $195 $-1 #
loop $-1 $-1 $193 $276 #
vertex $-1 $119 $301 #
vertex $-1 $119 $302 #
straight-curve $-1 74.620197149571226 0 20.640386477464261 0 1 0 I I #
face $-1 $303 $304 $28 $-1 $305 reversed single #
loop $-1 $-1 $211 $120 #
plane-surface $-1 0 -48.48953314860163 -14.066731727211824 0 0 1 1 0 0 forward_v I I I I #
coedge $-1 $306 $307 $124 $207 forward $121 $-1 #
coedge $-1 $308 $123 $307 $309 forward $77 $-1 #
coedge $-1 $123 $308 $310 $311 forward $77 $-1 #
coedge $-1 $125 $124 $123 $206 reversed $49 $-1 #
edge $-1 $312 -74.620197149571226 $313 74.620197149571226 $123 $314 forward 7 unknown #
edge $-1 $313 -20.640386477464261 $213 -14.066731727211824 $202 $315 forward 7 unknown #
coedge $-1 $310 $316 $125 $209 forward $317 $-1 #
edge $-1 $212 14.066731727211824 $312 20.640386477464261 $208 $318 forward 7 unknown #
coedge $-1 $319 $126 $316 $320 forward $200 $-1 #
coedge $-1 $126 $319 $306 $321 forward $200 $-1 #
vertex $-1 $209 $322 #
vertex $-1 $321 $323 #
straight-curve $-1 0 -41.320874392523727 -14.066731727211824 1 0 0 I I #
face $-1 $324 $325 $29 $-1 $326 reversed single #
loop $-1 $-1 $327 $128 #
plane-surface $-1 0 55.658191904679533 -17.353559102338043 0 -1 0 0 0 -1 forward_v I I I I #
coedge $-1 $328 $134 $329 $330 forward $129 $-1 #
coedge $-1 $331 $131 $225 $332 reversed $81 $-1 #
coedge $-1 $131 $331 $333 $334 reversed $81 $-1 #
edge $-1 $335 -20.640386477464261 $227 -14.066731727211824 $131 $336 forward 7 unknown #
coedge $-1 $133 $132 $337 $338 reversed $52 $-1 #
coedge $-1 $339 $329 $133 $224 forward $340 $-1 #
edge $-1 $226 14.066731727211824 $341 20.640386477464261 $223 $342 forward 7 unknown #
coedge $-1 $134 $328 $219 $332 forward $129 $-1 #
vertex $-1 $224 $343 #
vertex $-1 $332 $344 #
straight-curve $-1 0 41.320874392523727 -14.066731727211824 -1 0 0 I I #
face $-1 $-1 $241 $30 $-1 $345 forward single #
loop $-1 $-1 $346 $136 #
plane-surface $-1 -74.620197149571226 0 0 1 0 0 0 0 -1 forward_v I I I I #
coedge $-1 $347 $348 $349 $350 reversed $137 $-1 #
coedge $-1 $351 $139 $141 $239 forward $85 $-1 #
coedge $-1 $139 $351 $347 $352 forward $85 $-1 #
coedge $-1 $349 $142 $139 $236 forward $241 $-1 #
edge $-1 $243 -9.482125105319902 $353 6.5870348056738237 $235 $354 forward 7 unknown #
coedge $-1 $355 $356 $140 $238 forward $230 $-1 #
edge $-1 $357 -51.846256933548318 $242 -48.251371009978925 $237 $358 forward 7 unknown #
edge $-1 $243 -6.1159851554997324 $357 1.7761521089745031e-014 $141 $359 forward 7 unknown #
coedge $-1 $142 $349 $355 $360 forward $241 $-1 #
loop $-1 $-1 $349 $229 #
vertex $-1 $238 $361 #
vertex $-1 $143 $362 #
straight-curve $-1 -81.170750542808037 -10.929670255142941 20.640386477464261 1 0 0 I I #
coedge $-1 $245 $245 $-1 $363 reversed $146 $-1 #
edge $-1 $364 0 $364 6.2831853071796004 $147 $365 forward 7 unknown #
vertex $-1 $150 $366 #
ellipse-curve $-1 -72.146229202183065 -6.3384817091447374 18.842943515679565 -0.5877852598018023 0 0.80901698891910034 1.2135254833786506 0 0.88167788970270344 1 I I #
coedge $-1 $249 $249 $-1 $367 reversed $153 $-1 #
edge $-1 $368 0 $368 6.2831853071796004 $154 $369 forward 7 unknown #
vertex $-1 $157 $370 #
ellipse-curve $-1 -72.146229202183065 0.54830110985257363 18.842943515679565 -0.5877852598018023 0 0.80901698891910034 1.2135254833786506 0 0.88167788970270344 1 I I #
face $-1 $-1 $371 $33 $-1 $372 reversed single #
loop $-1 $-1 $164 $158 #
plane-surface $-1 0 0 20.640386477464261 0 0 1 1 0 0 forward_v I I I I #
coedge $-1 $373 $374 $375 $376 reversed $159 $-1 #
coedge $-1 $377 $161 $163 $263 forward $99 $-1 #
coedge $-1 $161 $377 $373 $378 forward $99 $-1 #
coedge $-1 $375 $164 $161 $260 forward $254 $-1 #
edge $-1 $266 8.6104297669843746 $379 15.11889466458382 $259 $380 forward 7 unknown #
coedge $-1 $381 $382 $162 $262 forward $371 $-1 #
edge $-1 $383 -103.28107146754029 $265 -84.537859645875571 $261 $384 forward 7 unknown #
edge $-1 $266 126.07251060524648 $383 149.24039429914245 $163 $385 forward 7 unknown #
coedge $-1 $164 $375 $381 $386 forward $254 $-1 #
vertex $-1 $262 $387 #
vertex $-1 $165 $388 #
straight-curve $-1 53.81845623591893 -20.475091982768472 20.640386477464261 -1 0 0 I I #
coedge $-1 $268 $268 $-1 $389 reversed $168 $-1 #
edge $-1 $390 0 $390 6.2831853071796004 $169 $391 forward 7 unknown #
vertex $-1 $172 $392 #
ellipse-curve $-1 67.811327099003009 -25.12399548105379 11.268780566631904 0.80901700255871778 0 0.5877852410284794 0.2938926205142397 0 -0.40450850127935889 1 I I #
coedge $-1 $272 $272 $-1 $393 reversed $175 $-1 #
edge $-1 $394 0 $394 6.2831853071796004 $176 $395 forward 7 unknown #
vertex $-1 $179 $396 #
ellipse-curve $-1 67.811327099003009 -22.3346533820826 11.268780566631904 0.80901700255871778 0 0.5877852410284794 0.2938926205142397 0 -0.40450850127935889 1 I I #
face $-1 $-1 $195 $27 $-1 $397 reversed single #
loop $-1 $-1 $292 $180 #
plane-surface $-1 0 41.320874392523727 0 0 -1 0 0 0 -1 forward_v I I I I #
coedge $-1 $398 $290 $293 $399 forward $181 $-1 #
coedge $-1 $296 $183 $184 $284 reversed $113 $-1 #
coedge $-1 $290 $398 $183 $282 reversed $181 $-1 #
edge $-1 $297 -20.640386477464261 $400 20.640386477464261 $281 $401 forward 7 unknown #
coedge $-1 $185 $184 $398 $402 forward $73 $-1 #
edge $-1 $288 -74.620197149571226 $400 74.620197149571226 $280 $403 forward 7 unknown #
coedge $-1 $293 $292 $185 $286 reversed $277 $-1 #
edge $-1 $404 -74.620197149571226 $287 74.620197149571226 $285 $405 forward 7 unknown #
vertex $-1 $187 $406 #
vertex $-1 $299 $407 #
straight-curve $-1 74.620197149571226 0 -20.640386477464261 0 -1 0 I I #
coedge $-1 $279 $281 $188 $291 reversed $181 $-1 #
edge $-1 $294 -41.320874392523727 $297 41.320874392523727 $290 $408 forward 7 unknown #
coedge $-1 $285 $189 $194 $300 forward $277 $-1 #
coedge $-1 $189 $285 $279 $399 reversed $277 $-1 #
vertex $-1 $190 $409 #
straight-curve $-1 0 41.320874392523727 20.640386477464261 -1 0 0 I I #
coedge $-1 $191 $280 $193 $299 reversed $113 $-1 #
vertex $-1 $291 $410 #
straight-curve $-1 0 -41.320874392523727 20.640386477464261 1 0 0 I I #
edge $-1 $196 -20.640386477464261 $288 20.640386477464261 $193 $411 forward 7 unknown #
edge $-1 $197 -20.640386477464261 $287 20.640386477464261 $194 $412 forward 7 unknown #
point $-1 74.620197149571226 -41.320874392523727 20.640386477464261 #
point $-1 74.620197149571226 41.320874392523727 20.640386477464261 #
face $-1 $-1 $317 $28 $-1 $413 reversed single #
loop $-1 $-1 $414 $199 #
plane-surface $-1 0 -55.658191904679533 -17.353559102338043 0 1 0 0 0 1 forward_v I I I I #
coedge $-1 $415 $202 $211 $321 reversed $121 $-1 #
coedge $-1 $202 $415 $203 $309 reversed $121 $-1 #
coedge $-1 $204 $203 $416 $417 forward $77 $-1 #
edge $-1 $313 41.320874392523727 $418 55.658191904679533 $307 $419 forward 7 unknown #
coedge $-1 $420 $208 $204 $311 reversed $317 $-1 #
edge $-1 $421 -55.658191904679533 $312 -41.320874392523727 $310 $422 forward 7 unknown #
vertex $-1 $209 $423 #
vertex $-1 $309 $424 #
straight-curve $-1 0 -41.320874392523727 -20.640386477464261 1 0 0 I I #
straight-curve $-1 74.620197149571226 -41.320874392523727 0 0 0 1 I I #
coedge $-1 $208 $420 $210 $320 reversed $317 $-1 #
loop $-1 $-1 $208 $303 #
straight-curve $-1 -74.620197149571226 -41.320874392523727 0 0 0 -1 I I #
coedge $-1 $211 $210 $425 $426 forward $200 $-1 #
edge $-1 $212 -7.1686587560779031 $427 7.1686587560779031 $316 $428 forward 7 unknown #
edge $-1 $429 -7.1686587560779031 $213 7.1686587560779031 $306 $430 forward 7 unknown #
point $-1 -74.620197149571226 -41.320874392523727 -14.066731727211824 #
point $-1 74.620197149571226 -41.320874392523727 -14.066731727211824 #
face $-1 $-1 $340 $29 $-1 $431 reversed single #
loop $-1 $-1 $337 $215 #
plane-surface $-1 0 0 -20.640386477464261 0 0 1 1 0 0 forward_v I I I I #
coedge $-1 $432 $433 $434 $435 forward $216 $-1 #
coedge $-1 $225 $218 $433 $436 forward $129 $-1 #
coedge $-1 $223 $434 $218 $330 reversed $340 $-1 #
edge $-1 $226 -7.1686587560779031 $437 7.1686587560779031 $329 $438 forward 7 unknown #
coedge $-1 $220 $219 $439 $440 forward $81 $-1 #
edge $-1 $441 -7.1686587560779031 $227 7.1686587560779031 $219 $442 forward 7 unknown #
coedge $-1 $443 $337 $220 $334 forward $325 $-1 #
edge $-1 $335 -7.1686587560779031 $444 7.1686587560779031 $220 $445 forward 7 unknown #
vertex $-1 $334 $446 #
straight-curve $-1 -74.620197149571226 41.320874392523727 0 0 0 1 I I #
coedge $-1 $333 $447 $222 $338 forward $325 $-1 #
edge $-1 $341 -74.620197149571226 $335 74.620197149571226 $337 $448 forward 7 unknown #
coedge $-1 $434 $223 $447 $449 reversed $340 $-1 #
loop $-1 $-1 $223 $324 #
vertex $-1 $224 $450 #
straight-curve $-1 74.620197149571226 41.320874392523727 0 0 0 -1 I I #
point $-1 74.620197149571226 41.320874392523727 -14.066731727211824 #
point $-1 -74.620197149571226 41.320874392523727 -14.066731727211824 #
plane-surface $-1 0 0 20.640386477464261 0 0 1 1 0 0 forward_v I I I I #
coedge $-1 $356 $355 $348 $451 forward $230 $-1 #
coedge $-1 $348 $232 $234 $352 reversed $137 $-1 #
coedge $-1 $232 $347 $346 $451 reversed $137 $-1 #
coedge $-1 $240 $235 $232 $350 forward $241 $-1 #
edge $-1 $353 -11.498489288013133 $452 -6.550553393236811 $349 $453 forward 7 unknown #
coedge $-1 $234 $233 $356 $454 reversed $85 $-1 #
edge $-1 $455 -1.7761521089745031e-014 $353 6.1159851554997324 $347 $456 forward 7 unknown #
vertex $-1 $236 $457 #
straight-curve $-1 -69.672261254794904 -1.4475451498230392 20.640386477464261 0 1 0 I I #
coedge $-1 $346 $237 $240 $360 reversed $230 $-1 #
coedge $-1 $237 $346 $351 $454 forward $230 $-1 #
vertex $-1 $238 $458 #
straight-curve $-1 -74.620197149571226 -10.929670255142941 68.891757487443186 0 0 1 I I #
straight-curve $-1 -74.620197149571212 -10.929670255142941 17.045500553894883 -0.80901698891910034 0 -0.5877852598018023 I I #
edge $-1 $452 -5.1394896558507845 $242 10.929670255142941 $355 $459 forward 7 unknown #
point $-1 -74.620197149571226 -10.929670255142941 20.640386477464261 #
point $-1 -69.672261254794904 -10.929670255142941 20.640386477464261 #
edge $-1 $460 1 $460 0 $245 $-1 forward 7 unknown #
vertex $-1 $246 $461 #
ellipse-curve $-1 -70.245349215670799 -6.3384817091447374 16.226606720328004 -0.5877852598018023 0 0.80901698891910034 1.2135254833786506 0 0.88167788970270344 1 I I #
point $-1 -70.932703718804419 -6.3384817091447374 19.724621405382276 #
edge $-1 $462 1 $462 0 $249 $-1 forward 7 unknown #
vertex $-1 $250 $463 #
ellipse-curve $-1 -70.245349215670799 0.54830110985257363 16.226606720328004 -0.5877852598018023 0 0.80901698891910034 1.2135254833786506 0 0.88167788970270344 1 I I #
point $-1 -70.932703718804419 0.54830110985257363 19.724621405382276 #
loop $-1 $-1 $261 $253 #
plane-surface $-1 74.620197149571226 0 0 -1 0 0 0 0 1 forward_v I I I I #
coedge $-1 $374 $256 $258 $378 reversed $159 $-1 #
coedge $-1 $256 $373 $464 $465 reversed $159 $-1 #
coedge $-1 $264 $259 $256 $376 forward $254 $-1 #
edge $-1 $379 7.1840008125158761 $466 20.801740913652296 $375 $467 forward 7 unknown #
coedge $-1 $258 $257 $382 $468 reversed $99 $-1 #
edge $-1 $469 -149.24039429914245 $379 -126.07251060524648 $373 $470 forward 7 unknown #
vertex $-1 $260 $471 #
straight-curve $-1 61.002457048434799 -11.864662215784097 20.640386477464276 0 -1 0 I I #
coedge $-1 $464 $261 $264 $386 reversed $371 $-1 #
coedge $-1 $261 $464 $377 $468 forward $371 $-1 #
vertex $-1 $262 $472 #
straight-curve $-1 74.620197149571226 -20.475091982768472 105.17824612333983 0 0 1 I I #
straight-curve $-1 -13.101103984735516 -20.475091982768472 122.63519111237292 0.5877852410284794 0 -0.80901700255871778 I I #
edge $-1 $466 -26.983556880367917 $265 -20.475091982768472 $381 $473 forward 7 unknown #
point $-1 74.620197149571226 -20.475091982768472 20.640386477464261 #
point $-1 61.002457048434806 -20.475091982768472 20.640386477464261 #
edge $-1 $474 1 $474 0 $268 $-1 forward 7 unknown #
vertex $-1 $269 $475 #
ellipse-curve $-1 67.002310096444305 -25.12399548105379 10.680995325603432 0.80901700255871778 0 0.5877852410284794 0.2938926205142397 0 -0.40450850127935889 1 I I #
point $-1 68.105219719517265 -25.12399548105379 10.864272065352553 #
edge $-1 $476 1 $476 0 $272 $-1 forward 7 unknown #
vertex $-1 $273 $477 #
ellipse-curve $-1 67.002310096444305 -22.3346533820826 10.680995325603432 0.80901700255871778 0 0.5877852410284794 0.2938926205142397 0 -0.40450850127935889 1 I I #
point $-1 68.105219719517265 -22.3346533820826 10.864272065352553 #
plane-surface $-1 74.620197149571226 0 0 -1 0 0 0 0 1 forward_v I I I I #
coedge $-1 $281 $279 $283 $402 reversed $181 $-1 #
edge $-1 $294 -20.640386477464261 $404 20.640386477464261 $293 $478 forward 7 unknown #
vertex $-1 $402 $479 #
straight-curve $-1 -74.620197149571226 -41.320874392523727 0 0 0 -1 I I #
edge $-1 $400 -41.320874392523727 $404 41.320874392523727 $398 $480 forward 7 unknown #
straight-curve $-1 0 -41.320874392523727 -20.640386477464261 -1 0 0 I I #
vertex $-1 $286 $481 #
straight-curve $-1 0 41.320874392523727 -20.640386477464261 1 0 0 I I #
point $-1 74.620197149571226 41.320874392523727 -20.640386477464261 #
point $-1 74.620197149571226 -41.320874392523727 -20.640386477464261 #
straight-curve $-1 -74.620197149571226 0 20.640386477464261 0 -1 0 I I #
point $-1 -74.620197149571226 41.320874392523727 20.640386477464261 #
point $-1 -74.620197149571226 -41.320874392523727 20.640386477464261 #
straight-curve $-1 74.620197149571226 -41.320874392523727 0 0 0 -1 I I #
straight-curve $-1 74.620197149571226 41.320874392523727 0 0 0 -1 I I #
plane-surface $-1 -74.620197149571226 0 0 1 0 0 0 0 -1 forward_v I I I I #
coedge $-1 $416 $425 $420 $482 forward $304 $-1 #
coedge $-1 $307 $306 $483 $484 forward $121 $-1 #
coedge $-1 $483 $414 $308 $417 reversed $304 $-1 #
edge $-1 $418 -74.620197149571226 $421 74.620197149571226 $416 $485 forward 7 unknown #
vertex $-1 $484 $486 #
straight-curve $-1 74.620197149571226 0 -20.640386477464261 0 -1 0 I I #
coedge $-1 $316 $310 $414 $482 reversed $317 $-1 #
vertex $-1 $311 $487 #
straight-curve $-1 -74.620197149571226 0 -20.640386477464261 0 1 0 I I #
point $-1 -74.620197149571226 -41.320874392523727 -20.640386477464261 #
point $-1 74.620197149571226 -41.320874392523727 -20.640386477464261 #
coedge $-1 $414 $483 $319 $426 reversed $304 $-1 #
edge $-1 $427 -74.620197149571226 $429 74.620197149571226 $425 $488 forward 7 unknown #
vertex $-1 $320 $489 #
straight-curve $-1 -74.620197149571226 -48.48953314860163 -14.066731727211824 0 -1 0 I I #
vertex $-1 $321 $490 #
straight-curve $-1 74.620197149571226 -48.48953314860163 -14.066731727211824 0 1 0 I I #
plane-surface $-1 74.620197149571226 0 0 -1 0 0 0 0 1 forward_v I I I I #
coedge $-1 $439 $327 $443 $491 reversed $216 $-1 #
coedge $-1 $327 $439 $328 $436 reversed $216 $-1 #
coedge $-1 $329 $339 $327 $435 reversed $340 $-1 #
edge $-1 $437 -3.2868273751262187 $492 3.2868273751262187 $434 $493 forward 7 unknown #
edge $-1 $437 -74.620197149571226 $441 74.620197149571226 $433 $494 forward 7 unknown #
vertex $-1 $330 $495 #
straight-curve $-1 74.620197149571226 48.48953314860163 -14.066731727211824 0 1 0 I I #
coedge $-1 $433 $432 $331 $440 reversed $216 $-1 #
edge $-1 $441 -3.2868273751262187 $444 3.2868273751262187 $439 $496 forward 7 unknown #
vertex $-1 $436 $497 #
straight-curve $-1 -74.620197149571226 48.48953314860163 -14.066731727211824 0 -1 0 I I #
coedge $-1 $447 $333 $432 $491 forward $325 $-1 #
vertex $-1 $491 $498 #
straight-curve $-1 -74.620197149571226 48.48953314860163 -20.640386477464261 0 1 0 I I #
point $-1 -74.620197149571226 41.320874392523727 -20.640386477464261 #
coedge $-1 $337 $443 $339 $449 forward $325 $-1 #
straight-curve $-1 0 41.320874392523727 -20.640386477464261 -1 0 0 I I #
edge $-1 $492 -55.658191904679533 $341 -41.320874392523727 $339 $499 forward 7 unknown #
point $-1 74.620197149571226 41.320874392523727 -20.640386477464261 #
edge $-1 $452 48.251371009978925 $455 51.846256933548318 $346 $500 forward 7 unknown #
vertex $-1 $360 $501 #
straight-curve $-1 -81.170750542808037 5.1394896558507845 20.640386477464261 -1 0 0 I I #
edge $-1 $455 -6.5870348056738237 $357 9.482125105319902 $356 $502 forward 7 unknown #
vertex $-1 $454 $503 #
straight-curve $-1 -74.620197149571212 5.1394896558507845 17.045500553894883 0.80901698891910034 0 0.5877852598018023 I I #
point $-1 -69.672261254794904 5.1394896558507845 20.640386477464261 #
point $-1 -74.620197149571226 -10.929670255142941 17.045500553894872 #
straight-curve $-1 -74.620197149571226 0 20.640386477464261 0 -1 0 I I #
vertex $-1 $363 $504 #
point $-1 -69.031823732292153 -6.3384817091447374 17.108284610030704 #
vertex $-1 $367 $505 #
point $-1 -69.031823732292153 0.54830110985257363 17.108284610030704 #
coedge $-1 $382 $381 $374 $465 forward $371 $-1 #
edge $-1 $466 84.537859645875571 $469 103.28107146754029 $464 $506 forward 7 unknown #
vertex $-1 $386 $507 #
straight-curve $-1 53.81845623591893 -26.983556880367917 20.640386477464261 1 0 0 I I #
edge $-1 $469 -15.11889466458382 $383 -8.6104297669843746 $382 $508 forward 7 unknown #
vertex $-1 $468 $509 #
straight-curve $-1 -13.101103984735516 -26.983556880367917 122.63519111237292 -0.5877852410284794 0 0.80901700255871778 I I #
point $-1 61.002457048434806 -26.983556880367917 20.640386477464261 #
point $-1 74.620197149571226 -20.475091982768472 1.8971746557995459 #
straight-curve $-1 74.620197149571226 0 20.640386477464261 0 1 0 I I #
vertex $-1 $389 $510 #
point $-1 67.296202716958547 -25.12399548105379 10.276486824324072 #
vertex $-1 $393 $511 #
point $-1 67.296202716958547 -22.3346533820826 10.276486824324072 #
straight-curve $-1 -74.620197149571226 41.320874392523727 0 0 0 -1 I I #
point $-1 -74.620197149571226 -41.320874392523727 -20.640386477464261 #
straight-curve $-1 -74.620197149571226 0 -20.640386477464261 0 1 0 I I #
point $-1 -74.620197149571226 41.320874392523727 -20.640386477464261 #
edge $-1 $427 -3.2868273751262187 $421 3.2868273751262187 $420 $512 forward 7 unknown #
coedge $-1 $425 $416 $415 $484 reversed $304 $-1 #
edge $-1 $429 -3.2868273751262187 $418 3.2868273751262187 $415 $513 forward 7 unknown #
straight-curve $-1 0 -55.658191904679533 -20.640386477464261 -1 0 0 I I #
point $-1 74.620197149571226 -55.658191904679533 -20.640386477464261 #
point $-1 -74.620197149571226 -55.658191904679533 -20.640386477464261 #
straight-curve $-1 0 -55.658191904679533 -14.066731727211824 1 0 0 I I #
point $-1 -74.620197149571226 -55.658191904679533 -14.066731727211824 #
point $-1 74.620197149571226 -55.658191904679533 -14.066731727211824 #
edge $-1 $444 -74.620197149571226 $492 74.620197149571226 $432 $514 forward 7 unknown #
vertex $-1 $449 $515 #
straight-curve $-1 74.620197149571226 55.658191904679533 -17.353559102338043 0 0 -1 I I #
straight-curve $-1 0 55.658191904679533 -14.066731727211824 -1 0 0 I I #
point $-1 74.620197149571226 55.658191904679533 -14.066731727211824 #
straight-curve $-1 -74.620197149571226 55.658191904679533 -17.353559102338043 0 0 -1 I I #
point $-1 -74.620197149571226 55.658191904679533 -14.066731727211824 #
point $-1 -74.620197149571226 55.658191904679533 -20.640386477464261 #
straight-curve $-1 74.620197149571226 0 -20.640386477464261 0 -1 0 I I #
straight-curve $-1 -74.620197149571226 5.1394896558507845 68.891757487443186 0 0 -1 I I #
point $-1 -74.620197149571226 5.1394896558507845 20.640386477464261 #
straight-curve $-1 -74.620197149571226 -1.4475451498230392 17.045500553894875 0 -1 0 I I #
point $-1 -74.620197149571226 5.1394896558507845 17.045500553894872 #
point $-1 -69.363671325968099 -6.3384817091447374 15.013081236949352 #
point $-1 -69.363671325968099 0.54830110985257363 15.013081236949352 #
straight-curve $-1 74.620197149571226 -26.983556880367917 105.17824612333983 0 0 -1 I I #
point $-1 74.620197149571226 -26.983556880367917 20.640386477464261 #
straight-curve $-1 74.620197149571226 -11.864662215784097 1.897174655799553 0 1 0 I I #
point $-1 74.620197149571226 -26.983556880367917 1.8971746557995459 #
point $-1 66.597801595164938 -25.12399548105379 10.387102705089193 #
point $-1 66.597801595164938 -22.3346533820826 10.387102705089193 #
straight-curve $-1 -74.620197149571226 -55.658191904679533 -17.353559102338043 0 0 -1 I I #
straight-curve $-1 74.620197149571226 -55.658191904679533 -17.353559102338043 0 0 -1 I I #
straight-curve $-1 0 55.658191904679533 -20.640386477464261 1 0 0 I I #
point $-1 74.620197149571226 55.658191904679533 -20.640386477464261 #
End-of-ACIS-data 