500 0 9 0           
7 Unknown 11 ACIS 5.0 NT 24 Fri Mar 26 03:31:42 1999 
-1 9.9999999999999995e-007 1e-010 
body $-1 $9 $-1 $10 #
body $-1 $11 $-1 $12 #
body $-1 $13 $-1 $14 #
body $-1 $15 $-1 $16 #
body $-1 $17 $-1 $18 #
body $-1 $19 $-1 $20 #
body $-1 $21 $-1 $22 #
body $-1 $23 $-1 $24 #
body $-1 $25 $-1 $26 #
lump $-1 $-1 $27 $0 #
transform $-1 1 0 0 0 1 0 0 0 1 79.926755577257609 46.571781554915205 10.557710737822234 1 rotate no_reflect no_shear #
lump $-1 $-1 $28 $1 #
transform $-1 1 0 0 0 1 0 0 0 1 79.926755577257609 46.571781554915205 10.557710737822234 1 rotate no_reflect no_shear #
lump $-1 $-1 $29 $2 #
transform $-1 1 0 0 0 1 0 0 0 1 79.926755577257609 46.571781554915205 10.557710737822234 1 rotate no_reflect no_shear #
lump $-1 $-1 $30 $3 #
transform $-1 1 0 0 0 1 0 0 0 1 79.926755577257609 46.571781554915205 10.557710737822234 1 rotate no_reflect no_shear #
lump $-1 $-1 $31 $4 #
transform $-1 1 0 0 0 1 0 0 0 1 79.926755577257609 46.571781554915205 10.557710737822234 1 rotate no_reflect no_shear #
lump $-1 $-1 $32 $5 #
transform $-1 1 0 0 0 1 0 0 0 1 79.926755577257609 46.571781554915205 10.557710737822234 1 rotate no_reflect no_shear #
lump $-1 $-1 $33 $6 #
transform $-1 1 0 0 0 1 0 0 0 1 79.926755577257609 46.571781554915205 10.557710737822234 1 rotate no_reflect no_shear #
lump $-1 $-1 $34 $7 #
transform $-1 1 0 0 0 1 0 0 0 1 79.926755577257609 46.571781554915205 10.557710737822234 1 rotate no_reflect no_shear #
lump $-1 $-1 $35 $8 #
transform $-1 1 0 0 0 1 0 0 0 1 79.926755577257609 46.571781554915205 10.557710737822234 1 rotate no_reflect no_shear #
shell $-1 $-1 $-1 $36 $-1 $9 #
shell $-1 $-1 $-1 $37 $-1 $11 #
shell $-1 $-1 $-1 $38 $-1 $13 #
shell $-1 $-1 $-1 $39 $-1 $15 #
shell $-1 $-1 $-1 $40 $-1 $17 #
shell $-1 $-1 $-1 $41 $-1 $19 #
shell $-1 $-1 $-1 $42 $-1 $21 #
shell $-1 $-1 $-1 $43 $-1 $23 #
shell $-1 $-1 $-1 $44 $-1 $25 #
face $-1 $45 $46 $27 $-1 $47 forward single #
face $-1 $48 $49 $28 $-1 $50 forward single #
face $-1 $51 $52 $29 $-1 $53 forward single #
face $-1 $54 $55 $30 $-1 $56 reversed single #
face $-1 $57 $58 $31 $-1 $59 forward single #
face $-1 $60 $61 $32 $-1 $62 forward single #
face $-1 $63 $64 $33 $-1 $65 reversed single #
face $-1 $66 $67 $34 $-1 $68 forward single #
face $-1 $69 $70 $35 $-1 $71 forward single #
face $-1 $72 $73 $27 $-1 $74 reversed single #
loop $-1 $-1 $75 $36 #
plane-surface $-1 0 0 10.557710737822234 0 0 1 1 0 0 forward_v I I I I #
face $-1 $76 $77 $28 $-1 $78 reversed single #
loop $-1 $-1 $79 $37 #
plane-surface $-1 -79.926755577257609 0 0 1 0 0 0 0 -1 forward_v I I I I #
face $-1 $80 $81 $29 $-1 $82 reversed single #
loop $-1 $-1 $83 $38 #
plane-surface $-1 79.926755577257609 0 0 -1 0 0 0 0 1 forward_v I I I I #
face $-1 $84 $85 $30 $-1 $86 reversed single #
loop $-1 $-1 $87 $39 #
plane-surface $-1 -7.2898152659405682 65.176594174791035 187.62878243319454 1 0 0 0 -0.5877852598018023 -0.80901698891910034 forward_v I I I I #
face $-1 $88 $89 $31 $-1 $90 forward single #
loop $-1 $91 $92 $40 #
cone-surface $-1 -2.9355525143435557 41.404138254766337 6.5762472668757139 0 -0.5877852598018023 -0.80901698891910034 1 0 0 1 I I 0 1 1 forward I I I I #
face $-1 $93 $94 $32 $-1 $95 forward single #
loop $-1 $96 $97 $41 #
cone-surface $-1 3.5958416130519595 41.404138254766337 6.5762472668757139 0 -0.5877852598018023 -0.80901698891910034 1 0 0 1 I I 0 1 1 forward I I I I #
face $-1 $98 $99 $33 $-1 $100 reversed single #
loop $-1 $-1 $101 $42 #
plane-surface $-1 68.094805483885708 -177.51611330413044 98.344766336256498 -1 0 0 0 -0.81915205242281985 0.57357642473473569 forward_v I I I I #
face $-1 $102 $103 $34 $-1 $104 forward single #
loop $-1 $105 $106 $43 #
cone-surface $-1 53.786729195041659 -44.796398317299428 8.3203476200214812 0 0.81915205242281985 -0.57357642473473569 0.5 0 0 1 I I 0 1 0.5 forward I I I I #
face $-1 $107 $108 $35 $-1 $109 forward single #
loop $-1 $110 $111 $44 #
cone-surface $-1 62.371574968348085 -44.796398317299428 8.3203476200214812 0 0.81915205242281985 -0.57357642473473569 0.5 0 0 1 I I 0 1 0.5 forward I I I I #
face $-1 $112 $113 $27 $-1 $114 reversed single #
loop $-1 $-1 $115 $45 #
plane-surface $-1 0 0 -10.557710737822234 0 0 1 1 0 0 forward_v I I I I #
coedge $-1 $116 $117 $118 $119 forward $46 $-1 #
face $-1 $120 $121 $28 $-1 $122 forward single #
loop $-1 $-1 $123 $48 #
plane-surface $-1 0 46.571781554915205 0 0 -1 0 0 0 -1 forward_v I I I I #
coedge $-1 $124 $125 $126 $127 forward $49 $-1 #
face $-1 $128 $129 $29 $-1 $130 forward single #
loop $-1 $-1 $131 $51 #
plane-surface $-1 0 -46.571781554915205 0 0 1 0 0 0 1 forward_v I I I I #
coedge $-1 $132 $133 $134 $135 forward $52 $-1 #
face $-1 $136 $137 $30 $-1 $138 reversed single #
loop $-1 $-1 $139 $54 #
plane-surface $-1 0.3301445493542019 -28.782943409395997 58.304576170822827 0 0.5877852598018023 0.80901698891910034 1 0 0 forward_v I I I I #
coedge $-1 $140 $141 $142 $143 reversed $55 $-1 #
face $-1 $-1 $144 $31 $-1 $145 forward single #
loop $-1 $146 $147 $57 #
cone-surface $-1 -2.9355525143435557 40.761004277684393 5.6910493056579625 0 -0.5877852598018023 -0.80901698891910034 0.5 0 0 1 I I -0.70710678118654746 0.70710678118654746 0.5 forward I I I I #
loop $-1 $-1 $148 $40 #
coedge $-1 $92 $92 $149 $150 reversed $58 $-1 #
face $-1 $-1 $151 $32 $-1 $152 forward single #
loop $-1 $153 $154 $60 #
cone-surface $-1 3.5958416130519595 40.761004277684393 5.6910493056579625 0 -0.5877852598018023 -0.80901698891910034 0.5 0 0 1 I I -0.70710678118654746 0.70710678118654746 0.5 forward I I I I #
loop $-1 $-1 $155 $41 #
coedge $-1 $97 $97 $156 $157 reversed $61 $-1 #
face $-1 $158 $159 $33 $-1 $160 reversed single #
loop $-1 $-1 $161 $63 #
plane-surface $-1 58.079152081694872 -46.571781554915162 6.6565609269554642 0 -0.81915205242281985 0.57357642473473569 1 0 0 forward_v I I I I #
coedge $-1 $162 $163 $164 $165 reversed $64 $-1 #
face $-1 $-1 $166 $34 $-1 $167 forward single #
loop $-1 $168 $169 $66 #
cone-surface $-1 53.786729195041659 -44.182034277982311 7.8901653014704287 0 0.81915205242281985 -0.57357642473473569 0.25 0 0 1 I I -0.70710678118654746 0.70710678118654746 0.25 forward I I I I #
loop $-1 $-1 $170 $43 #
coedge $-1 $106 $106 $171 $172 reversed $67 $-1 #
face $-1 $-1 $173 $35 $-1 $174 forward single #
loop $-1 $175 $176 $69 #
cone-surface $-1 62.371574968348085 -44.182034277982311 7.8901653014704287 0 0.81915205242281985 -0.57357642473473569 0.25 0 0 1 I I -0.70710678118654746 0.70710678118654746 0.25 forward I I I I #
loop $-1 $-1 $177 $44 #
coedge $-1 $111 $111 $178 $179 reversed $70 $-1 #
face $-1 $180 $181 $27 $-1 $182 reversed single #
loop $-1 $-1 $183 $72 #
plane-surface $-1 0 -46.571781554915205 0 0 1 0 0 0 1 forward_v I I I I #
coedge $-1 $184 $185 $186 $187 forward $73 $-1 #
coedge $-1 $188 $75 $189 $190 forward $46 $-1 #
coedge $-1 $75 $188 $191 $192 forward $46 $-1 #
coedge $-1 $193 $194 $75 $119 reversed $195 $-1 #
edge $-1 $196 -46.571781554915205 $197 46.571781554915205 $118 $198 forward 7 unknown #
face $-1 $199 $200 $28 $-1 $201 reversed single #
loop $-1 $-1 $126 $76 #
plane-surface $-1 -85.842730623943552 0 3.2020855514379853 0 0 1 1 0 0 forward_v I I I I #
coedge $-1 $202 $203 $125 $204 forward $77 $-1 #
coedge $-1 $205 $79 $206 $207 reversed $49 $-1 #
coedge $-1 $79 $205 $123 $204 reversed $49 $-1 #
coedge $-1 $208 $209 $79 $127 reversed $121 $-1 #
edge $-1 $210 -46.571781554915205 $211 46.571781554915205 $126 $212 forward 7 unknown #
face $-1 $213 $214 $29 $-1 $215 reversed single #
loop $-1 $-1 $216 $80 #
plane-surface $-1 85.842730623943567 0 3.2020855514379853 0 0 1 1 0 0 forward_v I I I I #
coedge $-1 $217 $218 $133 $219 forward $81 $-1 #
coedge $-1 $220 $83 $221 $222 reversed $52 $-1 #
coedge $-1 $83 $220 $131 $219 reversed $52 $-1 #
coedge $-1 $223 $224 $83 $135 reversed $129 $-1 #
edge $-1 $225 -46.571781554915205 $226 46.571781554915205 $134 $227 forward 7 unknown #
face $-1 $228 $229 $30 $-1 $230 reversed single #
loop $-1 $-1 $231 $84 #
plane-surface $-1 7.950104364648972 65.176594174791035 187.62878243319454 -1 0 0 0 0.5877852598018023 0.80901698891910034 forward_v I I I I #
coedge $-1 $232 $233 $234 $235 reversed $85 $-1 #
coedge $-1 $141 $87 $236 $237 reversed $55 $-1 #
coedge $-1 $87 $140 $232 $238 reversed $55 $-1 #
coedge $-1 $234 $239 $87 $143 forward $240 $-1 #
edge $-1 $241 -13.983484467519688 $242 -4.3466805615840514 $142 $243 forward 7 unknown #
loop $-1 $-1 $149 $88 #
plane-surface $-1 0.3301445493542019 -28.782943409395997 58.304576170822827 0 0.5877852598018023 0.80901698891910034 1 0 0 forward_v I I I I #
loop $-1 $-1 $244 $57 #
coedge $-1 $147 $147 $148 $245 reversed $89 $-1 #
coedge $-1 $148 $148 $147 $245 forward $91 $-1 #
coedge $-1 $149 $149 $92 $150 forward $144 $-1 #
edge $-1 $246 2.0882327326951692e-015 $246 6.2831853071796022 $149 $247 forward 7 unknown #
loop $-1 $-1 $156 $93 #
plane-surface $-1 0.3301445493542019 -28.782943409395997 58.304576170822827 0 0.5877852598018023 0.80901698891910034 1 0 0 forward_v I I I I #
loop $-1 $-1 $248 $60 #
coedge $-1 $154 $154 $155 $249 reversed $94 $-1 #
coedge $-1 $155 $155 $154 $249 forward $96 $-1 #
coedge $-1 $156 $156 $97 $157 forward $151 $-1 #
edge $-1 $250 2.0882327326951692e-015 $250 6.2831853071796022 $156 $251 forward 7 unknown #
face $-1 $252 $253 $33 $-1 $254 forward single #
loop $-1 $-1 $255 $98 #
plane-surface $-1 48.063498679504036 -177.51611330413044 98.344766336256498 1 0 0 0 0.81915205242281985 -0.57357642473473569 forward_v I I I I #
coedge $-1 $256 $257 $258 $259 reversed $99 $-1 #
coedge $-1 $163 $101 $260 $261 reversed $64 $-1 #
coedge $-1 $101 $162 $256 $262 reversed $64 $-1 #
coedge $-1 $258 $263 $101 $165 forward $253 $-1 #
edge $-1 $264 42.186275097150016 $265 44.917889519958791 $164 $266 forward 7 unknown #
loop $-1 $-1 $171 $102 #
plane-surface $-1 58.079152081694872 -46.571781554915162 6.6565609269554642 0 -0.81915205242281985 0.57357642473473569 1 0 0 forward_v I I I I #
loop $-1 $-1 $267 $66 #
coedge $-1 $169 $169 $170 $268 reversed $103 $-1 #
coedge $-1 $170 $170 $169 $268 forward $105 $-1 #
coedge $-1 $171 $171 $106 $172 forward $166 $-1 #
edge $-1 $269 -5.9170524162067625e-016 $269 6.2831853071795996 $171 $270 forward 7 unknown #
loop $-1 $-1 $178 $107 #
plane-surface $-1 58.079152081694872 -46.571781554915162 6.6565609269554642 0 -0.81915205242281985 0.57357642473473569 1 0 0 forward_v I I I I #
loop $-1 $-1 $271 $69 #
coedge $-1 $176 $176 $177 $272 reversed $108 $-1 #
coedge $-1 $177 $177 $176 $272 forward $110 $-1 #
coedge $-1 $178 $178 $111 $179 forward $173 $-1 #
edge $-1 $273 -5.9170524162067625e-016 $273 6.2831853071795996 $178 $274 forward 7 unknown #
face $-1 $275 $276 $27 $-1 $277 reversed single #
loop $-1 $-1 $278 $112 #
plane-surface $-1 -79.926755577257609 0 0 1 0 0 0 0 -1 forward_v I I I I #
coedge $-1 $279 $191 $280 $281 forward $113 $-1 #
coedge $-1 $282 $115 $279 $283 forward $73 $-1 #
coedge $-1 $115 $282 $284 $285 forward $73 $-1 #
coedge $-1 $194 $193 $115 $187 reversed $195 $-1 #
edge $-1 $286 -46.571781554915205 $287 46.571781554915205 $186 $288 forward 7 unknown #
coedge $-1 $117 $116 $289 $290 forward $46 $-1 #
coedge $-1 $291 $292 $116 $190 reversed $276 $-1 #
edge $-1 $197 -79.926755577257609 $293 79.926755577257609 $189 $294 forward 7 unknown #
coedge $-1 $183 $295 $117 $192 reversed $113 $-1 #
edge $-1 $296 -79.926755577257609 $196 79.926755577257609 $191 $297 forward 7 unknown #
coedge $-1 $186 $118 $295 $298 forward $195 $-1 #
coedge $-1 $118 $186 $291 $299 reversed $195 $-1 #
loop $-1 $-1 $193 $275 #
vertex $-1 $119 $300 #
vertex $-1 $119 $301 #
straight-curve $-1 79.926755577257609 0 10.557710737822234 0 1 0 I I #
face $-1 $302 $303 $28 $-1 $304 reversed single #
loop $-1 $-1 $305 $120 #
plane-surface $-1 -85.842730623943552 0 -0.41248125660172974 0 0 1 1 0 0 forward_v I I I I #
coedge $-1 $306 $123 $307 $308 reversed $77 $-1 #
coedge $-1 $123 $306 $208 $309 reversed $77 $-1 #
edge $-1 $210 -3.2020855514379853 $310 0.41248125660172974 $123 $311 forward 7 unknown #
coedge $-1 $125 $124 $305 $312 forward $49 $-1 #
coedge $-1 $313 $314 $124 $207 forward $315 $-1 #
edge $-1 $316 -0.41248125660172974 $211 3.2020855514379853 $206 $317 forward 7 unknown #
coedge $-1 $318 $126 $203 $309 forward $121 $-1 #
coedge $-1 $126 $318 $313 $319 forward $121 $-1 #
vertex $-1 $204 $320 #
vertex $-1 $319 $321 #
straight-curve $-1 -79.926755577257609 0 3.2020855514379853 0 -1 0 I I #
face $-1 $322 $323 $29 $-1 $324 reversed single #
loop $-1 $-1 $325 $128 #
plane-surface $-1 85.842730623943567 0 -0.41248125660172974 0 0 1 1 0 0 forward_v I I I I #
coedge $-1 $224 $223 $326 $327 forward $129 $-1 #
coedge $-1 $328 $131 $329 $330 reversed $81 $-1 #
coedge $-1 $131 $328 $223 $331 reversed $81 $-1 #
edge $-1 $225 -3.2020855514379853 $332 0.41248125660172974 $131 $333 forward 7 unknown #
coedge $-1 $133 $132 $334 $335 forward $52 $-1 #
coedge $-1 $336 $337 $132 $222 forward $338 $-1 #
edge $-1 $339 -0.41248125660172974 $226 3.2020855514379853 $221 $340 forward 7 unknown #
coedge $-1 $216 $134 $218 $331 forward $129 $-1 #
coedge $-1 $134 $216 $336 $341 forward $129 $-1 #
vertex $-1 $219 $342 #
vertex $-1 $341 $343 #
straight-curve $-1 79.926755577257609 0 3.2020855514379853 0 1 0 I I #
face $-1 $-1 $240 $30 $-1 $344 forward single #
loop $-1 $-1 $345 $136 #
plane-surface $-1 0 46.571781554915205 0 0 -1 0 0 0 -1 forward_v I I I I #
coedge $-1 $346 $347 $348 $349 reversed $137 $-1 #
coedge $-1 $350 $139 $141 $238 forward $85 $-1 #
coedge $-1 $139 $350 $346 $351 forward $85 $-1 #
coedge $-1 $348 $142 $139 $235 forward $240 $-1 #
edge $-1 $242 -7.4548875406176691 $352 7.785032089971871 $234 $353 forward 7 unknown #
coedge $-1 $354 $355 $140 $237 forward $229 $-1 #
edge $-1 $356 -90.258228487151683 $241 -83.256680478775039 $236 $357 forward 7 unknown #
edge $-1 $242 81.231818315928081 $356 93.14356310983041 $141 $358 forward 7 unknown #
coedge $-1 $142 $348 $354 $359 forward $240 $-1 #
loop $-1 $-1 $348 $228 #
vertex $-1 $237 $360 #
vertex $-1 $143 $361 #
straight-curve $-1 -7.2898152659405682 32.588297087395517 10.557710737822234 0 -1 0 I I #
coedge $-1 $244 $244 $-1 $362 reversed $146 $-1 #
edge $-1 $363 0 $363 6.2831853071796004 $147 $364 forward 7 unknown #
vertex $-1 $150 $365 #
ellipse-curve $-1 -2.9355525143435557 41.753379601947387 7.0569367336339184 0 0.5877852598018023 0.80901698891910034 1 0 0 1 I I #
coedge $-1 $248 $248 $-1 $366 reversed $153 $-1 #
edge $-1 $367 0 $367 6.2831853071796004 $154 $368 forward 7 unknown #
vertex $-1 $157 $369 #
ellipse-curve $-1 3.5958416130519595 41.753379601947387 7.0569367336339184 0 0.5877852598018023 0.80901698891910034 1 0 0 1 I I #
face $-1 $-1 $370 $33 $-1 $371 reversed single #
loop $-1 $-1 $164 $158 #
plane-surface $-1 0 0 10.557710737822234 0 0 1 1 0 0 forward_v I I I I #
coedge $-1 $372 $373 $374 $375 reversed $159 $-1 #
coedge $-1 $376 $161 $163 $262 forward $99 $-1 #
coedge $-1 $161 $376 $372 $377 forward $99 $-1 #
coedge $-1 $374 $164 $161 $259 forward $253 $-1 #
edge $-1 $265 -39.055229443038272 $378 -19.0239226386566 $258 $379 forward 7 unknown #
coedge $-1 $380 $381 $162 $261 forward $370 $-1 #
edge $-1 $382 -42.515822241172849 $264 -38.614672430306015 $260 $383 forward 7 unknown #
edge $-1 $265 -4.7624245087688806 $382 7.4654202823546958e-014 $163 $384 forward 7 unknown #
coedge $-1 $164 $374 $380 $385 forward $253 $-1 #
vertex $-1 $261 $386 #
vertex $-1 $165 $387 #
straight-curve $-1 68.094805483885708 -88.758056652065221 10.557710737822234 0 1 0 I I #
coedge $-1 $267 $267 $-1 $388 reversed $168 $-1 #
edge $-1 $389 0 $389 6.2831853071796004 $169 $390 forward 7 unknown #
vertex $-1 $172 $391 #
ellipse-curve $-1 53.786729195041659 -45.20597434351081 8.6071358323888294 0 -0.81915205242281985 0.57357642473473569 0.5 0 0 1 I I #
coedge $-1 $271 $271 $-1 $392 reversed $175 $-1 #
edge $-1 $393 0 $393 6.2831853071796004 $176 $394 forward 7 unknown #
vertex $-1 $179 $395 #
ellipse-curve $-1 62.371574968348085 -45.20597434351081 8.6071358323888294 0 -0.81915205242281985 0.57357642473473569 0.5 0 0 1 I I #
face $-1 $-1 $195 $27 $-1 $396 reversed single #
loop $-1 $-1 $291 $180 #
plane-surface $-1 0 46.571781554915205 0 0 -1 0 0 0 -1 forward_v I I I I #
coedge $-1 $397 $289 $292 $398 forward $181 $-1 #
coedge $-1 $295 $183 $184 $283 reversed $113 $-1 #
coedge $-1 $289 $397 $183 $281 reversed $181 $-1 #
edge $-1 $296 -10.557710737822234 $399 10.557710737822234 $280 $400 forward 7 unknown #
coedge $-1 $185 $184 $397 $401 forward $73 $-1 #
edge $-1 $287 -79.926755577257609 $399 79.926755577257609 $279 $402 forward 7 unknown #
coedge $-1 $292 $291 $185 $285 reversed $276 $-1 #
edge $-1 $403 -79.926755577257609 $286 79.926755577257609 $284 $404 forward 7 unknown #
vertex $-1 $187 $405 #
vertex $-1 $298 $406 #
straight-curve $-1 79.926755577257609 0 -10.557710737822234 0 -1 0 I I #
coedge $-1 $278 $280 $188 $290 reversed $181 $-1 #
edge $-1 $293 -46.571781554915205 $296 46.571781554915205 $289 $407 forward 7 unknown #
coedge $-1 $284 $189 $194 $299 forward $276 $-1 #
coedge $-1 $189 $284 $278 $398 reversed $276 $-1 #
vertex $-1 $190 $408 #
straight-curve $-1 0 46.571781554915205 10.557710737822234 -1 0 0 I I #
coedge $-1 $191 $279 $193 $298 reversed $113 $-1 #
vertex $-1 $290 $409 #
straight-curve $-1 0 -46.571781554915205 10.557710737822234 1 0 0 I I #
edge $-1 $196 -10.557710737822234 $287 10.557710737822234 $193 $410 forward 7 unknown #
edge $-1 $197 -10.557710737822234 $286 10.557710737822234 $194 $411 forward 7 unknown #
point $-1 79.926755577257609 -46.571781554915205 10.557710737822234 #
point $-1 79.926755577257609 46.571781554915205 10.557710737822234 #
face $-1 $-1 $315 $28 $-1 $412 reversed single #
loop $-1 $-1 $413 $199 #
plane-surface $-1 -91.758705670629496 0 1.3948021474181278 1 0 0 0 0 -1 forward_v I I I I #
coedge $-1 $414 $307 $205 $312 reversed $200 $-1 #
coedge $-1 $203 $202 $413 $415 reversed $77 $-1 #
coedge $-1 $305 $416 $202 $308 forward $200 $-1 #
edge $-1 $417 -5.9159750466859435 $310 5.9159750466859435 $202 $418 forward 7 unknown #
edge $-1 $210 -5.9159750466859435 $419 5.9159750466859435 $203 $420 forward 7 unknown #
vertex $-1 $204 $421 #
straight-curve $-1 -79.926755577257609 46.571781554915205 0 0 0 -1 I I #
edge $-1 $316 -46.571781554915205 $310 46.571781554915205 $305 $422 forward 7 unknown #
coedge $-1 $423 $206 $209 $319 reversed $315 $-1 #
coedge $-1 $206 $423 $414 $424 reversed $315 $-1 #
loop $-1 $-1 $206 $302 #
vertex $-1 $207 $425 #
straight-curve $-1 -79.926755577257609 -46.571781554915205 0 0 0 1 I I #
coedge $-1 $209 $208 $426 $427 forward $121 $-1 #
edge $-1 $428 -5.9159750466859435 $211 5.9159750466859435 $313 $429 forward 7 unknown #
point $-1 -79.926755577257609 46.571781554915205 3.2020855514379853 #
point $-1 -79.926755577257609 -46.571781554915205 3.2020855514379853 #
face $-1 $-1 $338 $29 $-1 $430 reversed single #
loop $-1 $-1 $431 $213 #
plane-surface $-1 91.75870567062951 0 1.3948021474181278 -1 0 0 0 0 1 forward_v I I I I #
coedge $-1 $329 $432 $433 $434 forward $214 $-1 #
coedge $-1 $431 $435 $216 $327 reversed $323 $-1 #
edge $-1 $436 -46.571781554915205 $437 46.571781554915205 $326 $438 forward 7 unknown #
coedge $-1 $218 $217 $431 $439 reversed $81 $-1 #
coedge $-1 $334 $325 $217 $330 forward $214 $-1 #
edge $-1 $440 -5.9159750466859435 $332 5.9159750466859435 $217 $441 forward 7 unknown #
edge $-1 $225 -5.9159750466859435 $436 5.9159750466859435 $218 $442 forward 7 unknown #
vertex $-1 $219 $443 #
straight-curve $-1 79.926755577257609 -46.571781554915205 0 0 0 -1 I I #
coedge $-1 $432 $329 $220 $335 reversed $214 $-1 #
edge $-1 $339 -46.571781554915205 $332 46.571781554915205 $334 $444 forward 7 unknown #
coedge $-1 $445 $221 $224 $341 reversed $338 $-1 #
coedge $-1 $221 $445 $432 $446 reversed $338 $-1 #
loop $-1 $-1 $221 $322 #
vertex $-1 $222 $447 #
straight-curve $-1 79.926755577257609 46.571781554915205 0 0 0 1 I I #
edge $-1 $437 -5.9159750466859435 $226 5.9159750466859435 $336 $448 forward 7 unknown #
point $-1 79.926755577257623 -46.571781554915205 3.2020855514379853 #
point $-1 79.926755577257623 46.571781554915205 3.2020855514379853 #
plane-surface $-1 0 0 10.557710737822234 0 0 1 1 0 0 forward_v I I I I #
coedge $-1 $355 $354 $347 $449 forward $229 $-1 #
coedge $-1 $347 $231 $233 $351 reversed $137 $-1 #
coedge $-1 $231 $346 $345 $449 reversed $137 $-1 #
coedge $-1 $239 $234 $231 $349 forward $240 $-1 #
edge $-1 $352 4.3466805615840514 $450 13.983484467519688 $348 $451 forward 7 unknown #
coedge $-1 $233 $232 $355 $452 reversed $85 $-1 #
edge $-1 $453 -93.14356310983041 $352 -81.231818315928081 $346 $454 forward 7 unknown #
vertex $-1 $235 $455 #
straight-curve $-1 0.16507227467710095 36.934977648979569 10.557710737822234 1 0 0 I I #
coedge $-1 $345 $236 $239 $359 reversed $229 $-1 #
coedge $-1 $236 $345 $350 $452 forward $229 $-1 #
vertex $-1 $237 $456 #
straight-curve $-1 -7.2898152659405682 46.571781554915205 93.814391216597272 0 0 1 I I #
straight-curve $-1 -7.2898152659405682 -28.782943409395997 58.304576170822827 0 0.80901698891910034 -0.5877852598018023 I I #
edge $-1 $450 -7.950104364648972 $241 7.2898152659405682 $354 $457 forward 7 unknown #
point $-1 -7.2898152659405682 46.571781554915205 10.557710737822234 #
point $-1 -7.2898152659405682 36.934977648979569 10.557710737822241 #
edge $-1 $458 1 $458 0 $244 $-1 forward 7 unknown #
vertex $-1 $245 $459 #
ellipse-curve $-1 -2.9355525143435557 41.054896907585295 6.095557800117513 0 0.5877852598018023 0.80901698891910034 1 0 0 1 I I #
point $-1 -1.9355525143435557 41.753379601947387 7.0569367336339148 #
edge $-1 $460 1 $460 0 $248 $-1 forward 7 unknown #
vertex $-1 $249 $461 #
ellipse-curve $-1 3.5958416130519595 41.054896907585295 6.095557800117513 0 0.5877852598018023 0.80901698891910034 1 0 0 1 I I #
point $-1 4.5958416130519595 41.753379601947387 7.0569367336339148 #
loop $-1 $-1 $260 $252 #
plane-surface $-1 0 -46.571781554915205 0 0 1 0 0 0 1 forward_v I I I I #
coedge $-1 $373 $255 $257 $377 reversed $159 $-1 #
coedge $-1 $255 $372 $462 $463 reversed $159 $-1 #
coedge $-1 $263 $258 $255 $375 forward $253 $-1 #
edge $-1 $378 -44.917889519958791 $464 -42.186275097150016 $374 $465 forward 7 unknown #
coedge $-1 $257 $256 $381 $466 reversed $99 $-1 #
edge $-1 $467 -7.4654202823546958e-014 $378 4.7624245087688806 $372 $468 forward 7 unknown #
vertex $-1 $259 $469 #
straight-curve $-1 29.039576040847436 -43.84016713210643 10.557710737822234 -1 0 0 I I #
coedge $-1 $462 $260 $263 $385 reversed $370 $-1 #
coedge $-1 $260 $462 $376 $466 forward $370 $-1 #
vertex $-1 $261 $470 #
straight-curve $-1 68.094805483885708 -46.571781554915205 49.172383168128249 0 0 1 I I #
straight-curve $-1 68.094805483885708 -46.571781554915162 6.6565609269554642 0 -0.57357642473473569 -0.81915205242281985 I I #
edge $-1 $464 48.063498679504036 $264 68.094805483885708 $380 $471 forward 7 unknown #
point $-1 68.094805483885708 -46.571781554915205 10.557710737822234 #
point $-1 68.094805483885708 -43.84016713210643 10.557710737822234 #
edge $-1 $472 1 $472 0 $267 $-1 forward 7 unknown #
vertex $-1 $268 $473 #
ellipse-curve $-1 53.786729195041659 -44.386822291088016 8.0335594076541135 0 -0.81915205242281985 0.57357642473473569 0.5 0 0 1 I I #
point $-1 54.286729195041659 -45.205974343510839 8.6071358323888489 #
edge $-1 $474 1 $474 0 $271 $-1 forward 7 unknown #
vertex $-1 $272 $475 #
ellipse-curve $-1 62.371574968348085 -44.386822291088016 8.0335594076541135 0 -0.81915205242281985 0.57357642473473569 0.5 0 0 1 I I #
point $-1 62.871574968348085 -45.205974343510839 8.6071358323888489 #
plane-surface $-1 79.926755577257609 0 0 -1 0 0 0 0 1 forward_v I I I I #
coedge $-1 $280 $278 $282 $401 reversed $181 $-1 #
edge $-1 $293 -10.557710737822234 $403 10.557710737822234 $292 $476 forward 7 unknown #
vertex $-1 $401 $477 #
straight-curve $-1 -79.926755577257609 -46.571781554915205 0 0 0 -1 I I #
edge $-1 $399 -46.571781554915205 $403 46.571781554915205 $397 $478 forward 7 unknown #
straight-curve $-1 0 -46.571781554915205 -10.557710737822234 -1 0 0 I I #
vertex $-1 $285 $479 #
straight-curve $-1 0 46.571781554915205 -10.557710737822234 1 0 0 I I #
point $-1 79.926755577257609 46.571781554915205 -10.557710737822234 #
point $-1 79.926755577257609 -46.571781554915205 -10.557710737822234 #
straight-curve $-1 -79.926755577257609 0 10.557710737822234 0 -1 0 I I #
point $-1 -79.926755577257609 46.571781554915205 10.557710737822234 #
point $-1 -79.926755577257609 -46.571781554915205 10.557710737822234 #
straight-curve $-1 79.926755577257609 -46.571781554915205 0 0 0 -1 I I #
straight-curve $-1 79.926755577257609 46.571781554915205 0 0 0 -1 I I #
plane-surface $-1 0 -46.571781554915205 0 0 1 0 0 0 1 forward_v I I I I #
coedge $-1 $480 $426 $306 $415 forward $303 $-1 #
coedge $-1 $416 $305 $314 $424 forward $200 $-1 #
edge $-1 $419 -1.8072834040198575 $417 1.8072834040198575 $306 $481 forward 7 unknown #
coedge $-1 $307 $414 $480 $482 forward $200 $-1 #
vertex $-1 $308 $483 #
straight-curve $-1 -85.842730623943552 46.571781554915205 -0.41248125660172974 1 0 0 I I #
vertex $-1 $309 $484 #
straight-curve $-1 -85.842730623943552 46.571781554915205 3.2020855514379853 -1 0 0 I I #
point $-1 -79.926755577257609 46.571781554915205 -0.41248125660172974 #
straight-curve $-1 -79.926755577257609 0 -0.41248125660172974 0 1 0 I I #
coedge $-1 $314 $313 $485 $486 forward $315 $-1 #
edge $-1 $316 -5.9159750466859435 $487 5.9159750466859435 $314 $488 forward 7 unknown #
point $-1 -79.926755577257609 -46.571781554915205 -0.41248125660172974 #
coedge $-1 $413 $485 $318 $427 reversed $303 $-1 #
edge $-1 $419 -46.571781554915205 $428 46.571781554915205 $426 $489 forward 7 unknown #
vertex $-1 $427 $490 #
straight-curve $-1 -85.842730623943552 -46.571781554915205 3.2020855514379853 1 0 0 I I #
plane-surface $-1 0 46.571781554915205 0 0 -1 0 0 0 -1 forward_v I I I I #
coedge $-1 $433 $326 $328 $439 forward $323 $-1 #
coedge $-1 $325 $334 $337 $446 forward $214 $-1 #
coedge $-1 $435 $431 $325 $434 reversed $323 $-1 #
edge $-1 $491 -46.571781554915205 $440 46.571781554915205 $433 $492 forward 7 unknown #
coedge $-1 $326 $433 $445 $493 reversed $323 $-1 #
vertex $-1 $327 $494 #
vertex $-1 $327 $495 #
straight-curve $-1 91.75870567062951 0 3.2020855514379853 0 1 0 I I #
edge $-1 $436 -1.8072834040198575 $440 1.8072834040198575 $431 $496 forward 7 unknown #
vertex $-1 $439 $497 #
straight-curve $-1 85.842730623943567 -46.571781554915205 -0.41248125660172974 -1 0 0 I I #
straight-curve $-1 85.842730623943567 -46.571781554915205 3.2020855514379853 1 0 0 I I #
point $-1 79.926755577257623 -46.571781554915205 -0.41248125660172974 #
straight-curve $-1 79.926755577257609 0 -0.41248125660172974 0 -1 0 I I #
coedge $-1 $337 $336 $435 $493 forward $338 $-1 #
edge $-1 $339 -5.9159750466859435 $491 5.9159750466859435 $337 $498 forward 7 unknown #
point $-1 79.926755577257623 46.571781554915205 -0.41248125660172974 #
straight-curve $-1 85.842730623943567 46.571781554915205 3.2020855514379853 -1 0 0 I I #
edge $-1 $450 83.256680478775039 $453 90.258228487151683 $345 $499 forward 7 unknown #
vertex $-1 $359 $500 #
straight-curve $-1 7.950104364648972 32.588297087395517 10.557710737822234 0 1 0 I I #
edge $-1 $453 -7.785032089971871 $356 7.4548875406176691 $355 $501 forward 7 unknown #
vertex $-1 $452 $502 #
straight-curve $-1 7.950104364648972 -28.782943409395997 58.304576170822827 0 -0.80901698891910034 0.5877852598018023 I I #
point $-1 7.950104364648972 36.934977648979569 10.557710737822241 #
point $-1 -7.2898152659405682 46.571781554915205 3.5561627294455818 #
straight-curve $-1 0 46.571781554915205 10.557710737822234 -1 0 0 I I #
vertex $-1 $362 $503 #
point $-1 -1.9355525143435557 41.054896907585295 6.095557800117513 #
vertex $-1 $366 $504 #
point $-1 4.5958416130519595 41.054896907585295 6.095557800117513 #
coedge $-1 $381 $380 $373 $463 forward $370 $-1 #
edge $-1 $464 38.614672430306015 $467 42.515822241172849 $462 $505 forward 7 unknown #
vertex $-1 $385 $506 #
straight-curve $-1 48.063498679504036 -88.758056652065221 10.557710737822234 0 -1 0 I I #
edge $-1 $467 19.0239226386566 $382 39.055229443038272 $381 $507 forward 7 unknown #
vertex $-1 $466 $508 #
straight-curve $-1 48.063498679504036 -46.571781554915162 6.6565609269554642 0 0.57357642473473569 0.81915205242281985 I I #
point $-1 48.063498679504036 -43.84016713210643 10.557710737822234 #
point $-1 68.094805483885708 -46.571781554915205 6.6565609269554029 #
straight-curve $-1 0 -46.571781554915205 10.557710737822234 1 0 0 I I #
vertex $-1 $388 $509 #
point $-1 54.286729195041659 -44.386822291088016 8.0335594076541135 #
vertex $-1 $392 $510 #
point $-1 62.871574968348085 -44.386822291088016 8.0335594076541135 #
straight-curve $-1 -79.926755577257609 46.571781554915205 0 0 0 -1 I I #
point $-1 -79.926755577257609 -46.571781554915205 -10.557710737822234 #
straight-curve $-1 -79.926755577257609 0 -10.557710737822234 0 1 0 I I #
point $-1 -79.926755577257609 46.571781554915205 -10.557710737822234 #
coedge $-1 $485 $413 $416 $482 reversed $303 $-1 #
straight-curve $-1 -91.758705670629496 46.571781554915205 1.3948021474181278 0 0 -1 I I #
edge $-1 $487 -46.571781554915205 $417 46.571781554915205 $480 $511 forward 7 unknown #
point $-1 -91.758705670629496 46.571781554915205 -0.41248125660172974 #
point $-1 -91.758705670629496 46.571781554915205 3.2020855514379853 #
coedge $-1 $426 $480 $423 $486 reversed $303 $-1 #
edge $-1 $428 -1.8072834040198575 $487 1.8072834040198575 $485 $512 forward 7 unknown #
vertex $-1 $482 $513 #
straight-curve $-1 -85.842730623943552 -46.571781554915205 -0.41248125660172974 -1 0 0 I I #
straight-curve $-1 -91.758705670629496 0 3.2020855514379853 0 -1 0 I I #
point $-1 -91.758705670629496 -46.571781554915205 3.2020855514379853 #
vertex $-1 $434 $514 #
straight-curve $-1 91.75870567062951 0 -0.41248125660172974 0 -1 0 I I #
edge $-1 $437 -1.8072834040198575 $491 1.8072834040198575 $435 $515 forward 7 unknown #
point $-1 91.75870567062951 -46.571781554915205 3.2020855514379853 #
point $-1 91.75870567062951 46.571781554915205 3.2020855514379853 #
straight-curve $-1 91.75870567062951 -46.571781554915205 1.3948021474181278 0 0 -1 I I #
point $-1 91.75870567062951 -46.571781554915205 -0.41248125660172974 #
straight-curve $-1 85.842730623943567 46.571781554915205 -0.41248125660172974 1 0 0 I I #
straight-curve $-1 7.950104364648972 46.571781554915205 93.814391216597272 0 0 -1 I I #
point $-1 7.950104364648972 46.571781554915205 10.557710737822234 #
straight-curve $-1 0.16507227467710095 46.571781554915205 3.5561627294455818 -1 0 0 I I #
point $-1 7.950104364648972 46.571781554915205 3.5561627294455818 #
point $-1 -2.9355525143435557 40.46711164778349 5.286540811198412 #
point $-1 3.5958416130519595 40.46711164778349 5.286540811198412 #
straight-curve $-1 48.063498679504036 -46.571781554915205 49.172383168128249 0 0 -1 I I #
point $-1 48.063498679504036 -46.571781554915205 10.557710737822234 #
straight-curve $-1 29.039576040847436 -46.571781554915205 6.6565609269554056 1 0 0 I I #
point $-1 48.063498679504036 -46.571781554915205 6.6565609269554029 #
point $-1 53.786729195041659 -43.977246264876605 7.7467711952867448 #
point $-1 62.371574968348085 -43.977246264876605 7.7467711952867448 #
straight-curve $-1 -91.758705670629496 0 -0.41248125660172974 0 1 0 I I #
straight-curve $-1 -91.758705670629496 -46.571781554915205 1.3948021474181278 0 0 -1 I I #
point $-1 -91.758705670629496 -46.571781554915205 -0.41248125660172974 #
point $-1 91.75870567062951 46.571781554915205 -0.41248125660172974 #
straight-curve $-1 91.75870567062951 46.571781554915205 1.3948021474181278 0 0 -1 I I #
End-of-ACIS-data 