500 0 9 0           
7 Unknown 11 ACIS 5.0 NT 24 Fri Mar 26 14:29:17 1999 
-1 9.9999999999999995e-007 1e-010 
body $-1 $9 $-1 $10 #
body $-1 $11 $-1 $12 #
body $-1 $13 $-1 $14 #
body $-1 $15 $-1 $16 #
body $-1 $17 $-1 $18 #
body $-1 $19 $-1 $20 #
body $-1 $21 $-1 $22 #
body $-1 $23 $-1 $24 #
body $-1 $25 $-1 $26 #
lump $-1 $-1 $27 $0 #
transform $-1 1 0 0 0 1 0 0 0 1 75.362407300027456 49.927508588205384 14.062043862997218 1 rotate no_reflect no_shear #
lump $-1 $-1 $28 $1 #
transform $-1 1 0 0 0 1 0 0 0 1 75.362407300027456 49.927508588205384 14.062043862997218 1 rotate no_reflect no_shear #
lump $-1 $-1 $29 $2 #
transform $-1 1 0 0 0 1 0 0 0 1 75.362407300027456 49.927508588205384 14.062043862997218 1 rotate no_reflect no_shear #
lump $-1 $-1 $30 $3 #
transform $-1 1 0 0 0 1 0 0 0 1 75.362407300027456 49.927508588205384 14.062043862997218 1 rotate no_reflect no_shear #
lump $-1 $-1 $31 $4 #
transform $-1 1 0 0 0 1 0 0 0 1 75.362407300027456 49.927508588205384 14.062043862997218 1 rotate no_reflect no_shear #
lump $-1 $-1 $32 $5 #
transform $-1 1 0 0 0 1 0 0 0 1 75.362407300027456 49.927508588205384 14.062043862997218 1 rotate no_reflect no_shear #
lump $-1 $-1 $33 $6 #
transform $-1 1 0 0 0 1 0 0 0 1 75.362407300027456 49.927508588205384 14.062043862997218 1 rotate no_reflect no_shear #
lump $-1 $-1 $34 $7 #
transform $-1 1 0 0 0 1 0 0 0 1 75.362407300027456 49.927508588205384 14.062043862997218 1 rotate no_reflect no_shear #
lump $-1 $-1 $35 $8 #
transform $-1 1 0 0 0 1 0 0 0 1 75.362407300027456 49.927508588205384 14.062043862997218 1 rotate no_reflect no_shear #
shell $-1 $-1 $-1 $36 $-1 $9 #
shell $-1 $-1 $-1 $37 $-1 $11 #
shell $-1 $-1 $-1 $38 $-1 $13 #
shell $-1 $-1 $-1 $39 $-1 $15 #
shell $-1 $-1 $-1 $40 $-1 $17 #
shell $-1 $-1 $-1 $41 $-1 $19 #
shell $-1 $-1 $-1 $42 $-1 $21 #
shell $-1 $-1 $-1 $43 $-1 $23 #
shell $-1 $-1 $-1 $44 $-1 $25 #
face $-1 $45 $46 $27 $-1 $47 forward single #
face $-1 $48 $49 $28 $-1 $50 reversed single #
face $-1 $51 $52 $29 $-1 $53 reversed single #
face $-1 $54 $55 $30 $-1 $56 forward single #
face $-1 $57 $58 $31 $-1 $59 forward single #
face $-1 $60 $61 $32 $-1 $62 forward single #
face $-1 $63 $64 $33 $-1 $65 reversed single #
face $-1 $66 $67 $34 $-1 $68 forward single #
face $-1 $69 $70 $35 $-1 $71 forward single #
face $-1 $72 $73 $27 $-1 $74 reversed single #
loop $-1 $-1 $75 $36 #
plane-surface $-1 0 0 14.062043862997218 0 0 1 1 0 0 forward_v I I I I #
face $-1 $76 $77 $28 $-1 $78 reversed single #
loop $-1 $-1 $79 $37 #
plane-surface $-1 -67.423452921911476 0 9.0425890019971877 0 0 1 1 0 0 forward_v I I I I #
face $-1 $80 $81 $29 $-1 $82 reversed single #
loop $-1 $-1 $83 $38 #
plane-surface $-1 50.695551349305987 119.04582843929229 168.86449846609844 1 0 0 0 -0.82903758062907751 -0.55919289150049634 forward_v I I I I #
face $-1 $84 $85 $30 $-1 $86 forward single #
loop $-1 $87 $88 $39 #
cone-surface $-1 55.628922539450286 44.6389743906579 7.1523393417003511 0 -0.82903758062907751 -0.55919289150049634 1 0 0 1 I I 0 1 1 forward I I I I #
face $-1 $89 $90 $31 $-1 $91 forward single #
loop $-1 $92 $93 $40 #
cone-surface $-1 63.028979324666722 44.6389743906579 7.1523393417003511 0 -0.82903758062907751 -0.55919289150049634 1 0 0 1 I I 0 1 1 forward I I I I #
face $-1 $94 $95 $32 $-1 $96 forward single #
loop $-1 $97 $98 $41 #
cone-surface $-1 70.429036109883157 44.6389743906579 7.1523393417003511 0 -0.82903758062907751 -0.55919289150049634 1 0 0 1 I I 0 1 1 forward I I I I #
face $-1 $99 $100 $33 $-1 $101 reversed single #
loop $-1 $-1 $102 $42 #
plane-surface $-1 65.49076768111604 -49.927508588205384 8.6883987199956323 0 -0.84804810408105047 0.52991925155115449 1 0 0 forward_v I I I I #
face $-1 $103 $104 $34 $-1 $105 forward single #
loop $-1 $106 $107 $43 #
cone-surface $-1 61.260064987296857 -47.01410285927718 10.603824660126055 0 0.84804810408105047 -0.52991925155115449 1.5 0 0 1 I I 0 1 1.5 forward I I I I #
face $-1 $108 $109 $35 $-1 $110 forward single #
loop $-1 $111 $112 $44 #
cone-surface $-1 69.721470374935222 -47.01410285927718 10.603824660126055 0 0.84804810408105047 -0.52991925155115449 1.5 0 0 1 I I 0 1 1.5 forward I I I I #
face $-1 $113 $114 $27 $-1 $115 reversed single #
loop $-1 $-1 $116 $45 #
plane-surface $-1 0 0 -14.062043862997218 0 0 1 1 0 0 forward_v I I I I #
coedge $-1 $117 $118 $119 $120 forward $46 $-1 #
face $-1 $121 $122 $28 $-1 $123 reversed single #
loop $-1 $-1 $124 $48 #
plane-surface $-1 -59.484498543795496 0 11.552316432497204 -1 0 0 0 0 1 forward_v I I I I #
coedge $-1 $125 $126 $127 $128 forward $49 $-1 #
face $-1 $129 $130 $29 $-1 $131 forward single #
loop $-1 $-1 $132 $51 #
plane-surface $-1 63.028979324666722 -5.9107071975034842 84.580253569017501 0 0.82903758062907751 0.55919289150049634 1 0 0 forward_v I I I I #
coedge $-1 $133 $134 $135 $136 reversed $52 $-1 #
face $-1 $-1 $137 $30 $-1 $138 forward single #
loop $-1 $139 $140 $54 #
cone-surface $-1 55.628922539450286 43.07246351677108 6.095714448446369 0 -0.82903758062907751 -0.55919289150049634 0.5 0 0 1 I I -0.70710678118654746 0.70710678118654746 0.5 forward I I I I #
loop $-1 $-1 $141 $39 #
coedge $-1 $88 $88 $142 $143 reversed $55 $-1 #
face $-1 $-1 $144 $31 $-1 $145 forward single #
loop $-1 $146 $147 $57 #
cone-surface $-1 63.028979324666722 43.07246351677108 6.095714448446369 0 -0.82903758062907751 -0.55919289150049634 0.5 0 0 1 I I -0.70710678118654746 0.70710678118654746 0.5 forward I I I I #
loop $-1 $-1 $148 $40 #
coedge $-1 $93 $93 $149 $150 reversed $58 $-1 #
face $-1 $-1 $151 $32 $-1 $152 forward single #
loop $-1 $153 $154 $60 #
cone-surface $-1 70.429036109883157 43.07246351677108 6.095714448446369 0 -0.82903758062907751 -0.55919289150049634 0.5 0 0 1 I I -0.70710678118654746 0.70710678118654746 0.5 forward I I I I #
loop $-1 $-1 $155 $41 #
coedge $-1 $98 $98 $156 $157 reversed $61 $-1 #
face $-1 $158 $159 $33 $-1 $160 forward single #
loop $-1 $-1 $161 $63 #
plane-surface $-1 55.619128062204624 -177.74940184774979 88.56037966304325 1 0 0 0 0.84804810408105047 -0.52991925155115449 forward_v I I I I #
coedge $-1 $162 $163 $164 $165 reversed $64 $-1 #
face $-1 $-1 $166 $34 $-1 $167 forward single #
loop $-1 $168 $169 $66 #
cone-surface $-1 61.260064987296857 -45.14357407536874 9.434988590092324 0 0.84804810408105047 -0.52991925155115449 0.75 0 0 1 I I -0.70710678118654757 0.70710678118654757 0.75 forward I I I I #
loop $-1 $-1 $170 $43 #
coedge $-1 $107 $107 $171 $172 reversed $67 $-1 #
face $-1 $-1 $173 $35 $-1 $174 forward single #
loop $-1 $175 $176 $69 #
cone-surface $-1 69.721470374935222 -45.14357407536874 9.434988590092324 0 0.84804810408105047 -0.52991925155115449 0.75 0 0 1 I I -0.70710678118654757 0.70710678118654757 0.75 forward I I I I #
loop $-1 $-1 $177 $44 #
coedge $-1 $112 $112 $178 $179 reversed $70 $-1 #
face $-1 $180 $181 $27 $-1 $182 reversed single #
loop $-1 $-1 $183 $72 #
plane-surface $-1 0 -49.927508588205384 0 0 1 0 0 0 1 forward_v I I I I #
coedge $-1 $184 $185 $186 $187 forward $73 $-1 #
coedge $-1 $188 $75 $189 $190 forward $46 $-1 #
coedge $-1 $75 $188 $191 $192 forward $46 $-1 #
coedge $-1 $193 $194 $75 $120 reversed $195 $-1 #
edge $-1 $196 -49.927508588205384 $197 49.927508588205384 $119 $198 forward 7 unknown #
face $-1 $199 $200 $28 $-1 $201 reversed single #
loop $-1 $-1 $202 $76 #
plane-surface $-1 0 49.927508588205384 0 0 -1 0 0 0 -1 forward_v I I I I #
coedge $-1 $127 $203 $204 $205 reversed $77 $-1 #
coedge $-1 $206 $79 $207 $208 reversed $49 $-1 #
coedge $-1 $79 $206 $209 $210 reversed $49 $-1 #
coedge $-1 $211 $124 $79 $128 reversed $77 $-1 #
edge $-1 $212 -49.927508588205384 $213 49.927508588205384 $127 $214 forward 7 unknown #
face $-1 $215 $216 $29 $-1 $217 reversed single #
loop $-1 $-1 $135 $80 #
plane-surface $-1 0 0 14.062043862997218 0 0 1 1 0 0 forward_v I I I I #
coedge $-1 $218 $219 $220 $221 reversed $81 $-1 #
coedge $-1 $134 $83 $222 $223 reversed $52 $-1 #
coedge $-1 $83 $133 $218 $224 reversed $52 $-1 #
coedge $-1 $220 $225 $83 $136 forward $130 $-1 #
edge $-1 $226 9.5954056314407623 $227 17.868489859391175 $135 $228 forward 7 unknown #
loop $-1 $-1 $142 $84 #
plane-surface $-1 63.028979324666722 -5.9107071975034842 84.580253569017501 0 0.82903758062907751 0.55919289150049634 1 0 0 forward_v I I I I #
loop $-1 $-1 $229 $54 #
coedge $-1 $140 $140 $141 $230 reversed $85 $-1 #
coedge $-1 $141 $141 $140 $230 forward $87 $-1 #
coedge $-1 $142 $142 $88 $143 forward $137 $-1 #
edge $-1 $231 -4.4469525996725958e-016 $231 6.2831853071795996 $142 $232 forward 7 unknown #
loop $-1 $-1 $149 $89 #
plane-surface $-1 63.028979324666722 -5.9107071975034842 84.580253569017501 0 0.82903758062907751 0.55919289150049634 1 0 0 forward_v I I I I #
loop $-1 $-1 $233 $57 #
coedge $-1 $147 $147 $148 $234 reversed $90 $-1 #
coedge $-1 $148 $148 $147 $234 forward $92 $-1 #
coedge $-1 $149 $149 $93 $150 forward $144 $-1 #
edge $-1 $235 -4.4469525996725958e-016 $235 6.2831853071795996 $149 $236 forward 7 unknown #
loop $-1 $-1 $156 $94 #
plane-surface $-1 63.028979324666722 -5.9107071975034842 84.580253569017501 0 0.82903758062907751 0.55919289150049634 1 0 0 forward_v I I I I #
loop $-1 $-1 $237 $60 #
coedge $-1 $154 $154 $155 $238 reversed $95 $-1 #
coedge $-1 $155 $155 $154 $238 forward $97 $-1 #
coedge $-1 $156 $156 $98 $157 forward $151 $-1 #
edge $-1 $239 -4.4469525996725958e-016 $239 6.2831853071795996 $156 $240 forward 7 unknown #
face $-1 $241 $242 $33 $-1 $243 reversed single #
loop $-1 $-1 $164 $99 #
plane-surface $-1 0 0 14.062043862997218 0 0 1 1 0 0 forward_v I I I I #
coedge $-1 $244 $245 $246 $247 reversed $100 $-1 #
coedge $-1 $248 $102 $249 $250 reversed $64 $-1 #
coedge $-1 $102 $248 $244 $251 forward $64 $-1 #
coedge $-1 $246 $252 $102 $165 forward $159 $-1 #
edge $-1 $253 -42.617023459469436 $254 -22.873744221646604 $164 $255 forward 7 unknown #
loop $-1 $-1 $171 $103 #
plane-surface $-1 65.49076768111604 -49.927508588205384 8.6883987199956323 0 -0.84804810408105047 0.52991925155115449 1 0 0 forward_v I I I I #
loop $-1 $-1 $256 $66 #
coedge $-1 $169 $169 $170 $257 reversed $104 $-1 #
coedge $-1 $170 $170 $169 $257 forward $106 $-1 #
coedge $-1 $171 $171 $107 $172 forward $166 $-1 #
edge $-1 $258 0 $258 6.2831853071796004 $171 $259 forward 7 unknown #
loop $-1 $-1 $178 $108 #
plane-surface $-1 65.49076768111604 -49.927508588205384 8.6883987199956323 0 -0.84804810408105047 0.52991925155115449 1 0 0 forward_v I I I I #
loop $-1 $-1 $260 $69 #
coedge $-1 $176 $176 $177 $261 reversed $109 $-1 #
coedge $-1 $177 $177 $176 $261 forward $111 $-1 #
coedge $-1 $178 $178 $112 $179 forward $173 $-1 #
edge $-1 $262 0 $262 6.2831853071796004 $178 $263 forward 7 unknown #
face $-1 $264 $265 $27 $-1 $266 reversed single #
loop $-1 $-1 $267 $113 #
plane-surface $-1 -75.362407300027456 0 0 1 0 0 0 0 -1 forward_v I I I I #
coedge $-1 $268 $191 $269 $270 forward $114 $-1 #
coedge $-1 $271 $116 $268 $272 forward $73 $-1 #
coedge $-1 $116 $271 $273 $274 forward $73 $-1 #
coedge $-1 $194 $193 $116 $187 reversed $195 $-1 #
edge $-1 $275 -49.927508588205384 $276 49.927508588205384 $186 $277 forward 7 unknown #
coedge $-1 $118 $117 $278 $279 forward $46 $-1 #
coedge $-1 $280 $281 $117 $190 reversed $265 $-1 #
edge $-1 $197 -75.362407300027456 $282 75.362407300027456 $189 $283 forward 7 unknown #
coedge $-1 $183 $284 $118 $192 reversed $114 $-1 #
edge $-1 $285 -75.362407300027456 $196 75.362407300027456 $191 $286 forward 7 unknown #
coedge $-1 $186 $119 $284 $287 forward $195 $-1 #
coedge $-1 $119 $186 $280 $288 reversed $195 $-1 #
loop $-1 $-1 $193 $264 #
vertex $-1 $120 $289 #
vertex $-1 $120 $290 #
straight-curve $-1 75.362407300027456 0 14.062043862997218 0 1 0 I I #
face $-1 $291 $292 $28 $-1 $293 forward single #
loop $-1 $-1 $294 $121 #
plane-surface $-1 -75.362407300027456 0 0 1 0 0 0 0 -1 forward_v I I I I #
coedge $-1 $209 $295 $211 $296 forward $122 $-1 #
coedge $-1 $124 $211 $297 $298 reversed $77 $-1 #
coedge $-1 $299 $207 $124 $205 forward $300 $-1 #
edge $-1 $213 3.2664307857485859 $301 8.2858856467486177 $204 $302 forward 7 unknown #
coedge $-1 $126 $125 $294 $303 reversed $49 $-1 #
coedge $-1 $204 $304 $125 $208 forward $300 $-1 #
edge $-1 $305 -41.650680839071718 $213 -25.772772082839758 $207 $306 forward 7 unknown #
coedge $-1 $307 $202 $126 $210 forward $122 $-1 #
edge $-1 $212 25.772772082839758 $308 41.650680839071718 $209 $309 forward 7 unknown #
coedge $-1 $203 $127 $202 $296 reversed $77 $-1 #
vertex $-1 $210 $310 #
vertex $-1 $208 $311 #
straight-curve $-1 -59.484498543795496 0 9.0425890019971877 0 -1 0 I I #
face $-1 $-1 $312 $29 $-1 $313 reversed single #
loop $-1 $-1 $314 $129 #
plane-surface $-1 75.362407300027456 0 0 -1 0 0 0 0 1 forward_v I I I I #
coedge $-1 $315 $132 $134 $224 forward $81 $-1 #
coedge $-1 $132 $315 $314 $316 reversed $81 $-1 #
coedge $-1 $317 $135 $132 $221 forward $130 $-1 #
edge $-1 $227 19.181061686972626 $318 43.847917637694096 $220 $319 forward 7 unknown #
coedge $-1 $320 $321 $133 $223 forward $312 $-1 #
edge $-1 $322 -82.635557517638276 $226 -70.370205370052005 $222 $323 forward 7 unknown #
edge $-1 $227 85.060329415357444 $322 99.855017176410783 $134 $324 forward 7 unknown #
coedge $-1 $135 $317 $320 $325 forward $130 $-1 #
vertex $-1 $223 $326 #
vertex $-1 $136 $327 #
straight-curve $-1 50.695551349305987 59.522914219646147 14.062043862997214 0 -1 0 I I #
coedge $-1 $229 $229 $-1 $328 reversed $139 $-1 #
edge $-1 $329 0 $329 6.2831853071796004 $140 $330 forward 7 unknown #
vertex $-1 $143 $331 #
ellipse-curve $-1 55.628922539450286 45.790966474230167 7.929367789204079 0 0.82903758062907751 0.55919289150049634 1 0 0 1 I I #
coedge $-1 $233 $233 $-1 $332 reversed $146 $-1 #
edge $-1 $333 0 $333 6.2831853071796004 $147 $334 forward 7 unknown #
vertex $-1 $150 $335 #
ellipse-curve $-1 63.028979324666722 45.790966474230167 7.929367789204079 0 0.82903758062907751 0.55919289150049634 1 0 0 1 I I #
coedge $-1 $237 $237 $-1 $336 reversed $153 $-1 #
edge $-1 $337 0 $337 6.2831853071796004 $154 $338 forward 7 unknown #
vertex $-1 $157 $339 #
ellipse-curve $-1 70.429036109883157 45.790966474230167 7.929367789204079 0 0.82903758062907751 0.55919289150049634 1 0 0 1 I I #
face $-1 $-1 $340 $33 $-1 $341 reversed single #
loop $-1 $-1 $342 $158 #
plane-surface $-1 0 -49.927508588205384 0 0 1 0 0 0 1 forward_v I I I I #
coedge $-1 $245 $161 $163 $251 reversed $100 $-1 #
coedge $-1 $161 $244 $343 $344 reversed $100 $-1 #
coedge $-1 $345 $164 $161 $247 forward $159 $-1 #
edge $-1 $254 -42.305018381830621 $346 -38.947192335669513 $246 $347 forward 7 unknown #
coedge $-1 $163 $162 $342 $348 reversed $64 $-1 #
coedge $-1 $349 $350 $162 $250 forward $340 $-1 #
edge $-1 $351 -9.5446839604415548 $253 -3.2081977196940481 $249 $352 forward 7 unknown #
edge $-1 $353 0 $254 6.3364862407475062 $244 $354 forward 7 unknown #
coedge $-1 $164 $345 $349 $355 forward $159 $-1 #
vertex $-1 $250 $356 #
vertex $-1 $165 $357 #
straight-curve $-1 32.74538384055802 -46.569682542044276 14.062043862997218 -1 0 0 I I #
coedge $-1 $256 $256 $-1 $358 reversed $168 $-1 #
edge $-1 $359 0 $359 6.2831853071796004 $169 $360 forward 7 unknown #
vertex $-1 $172 $361 #
ellipse-curve $-1 61.260064987296857 -48.24859556512483 11.37522129149642 0 -0.84804810408105047 0.52991925155115449 1.5 0 0 1 I I #
coedge $-1 $260 $260 $-1 $362 reversed $175 $-1 #
edge $-1 $363 0 $363 6.2831853071796004 $176 $364 forward 7 unknown #
vertex $-1 $179 $365 #
ellipse-curve $-1 69.721470374935222 -48.24859556512483 11.37522129149642 0 -0.84804810408105047 0.52991925155115449 1.5 0 0 1 I I #
face $-1 $-1 $195 $27 $-1 $366 reversed single #
loop $-1 $-1 $280 $180 #
plane-surface $-1 0 49.927508588205384 0 0 -1 0 0 0 -1 forward_v I I I I #
coedge $-1 $367 $278 $281 $368 forward $181 $-1 #
coedge $-1 $284 $183 $184 $272 reversed $114 $-1 #
coedge $-1 $278 $367 $183 $270 reversed $181 $-1 #
edge $-1 $285 -14.062043862997218 $369 14.062043862997218 $269 $370 forward 7 unknown #
coedge $-1 $185 $184 $367 $371 forward $73 $-1 #
edge $-1 $276 -75.362407300027456 $369 75.362407300027456 $268 $372 forward 7 unknown #
coedge $-1 $281 $280 $185 $274 reversed $265 $-1 #
edge $-1 $373 -75.362407300027456 $275 75.362407300027456 $273 $374 forward 7 unknown #
vertex $-1 $187 $375 #
vertex $-1 $287 $376 #
straight-curve $-1 75.362407300027456 0 -14.062043862997218 0 -1 0 I I #
coedge $-1 $267 $269 $188 $279 reversed $181 $-1 #
edge $-1 $282 -49.927508588205384 $285 49.927508588205384 $278 $377 forward 7 unknown #
coedge $-1 $273 $189 $194 $288 forward $265 $-1 #
coedge $-1 $189 $273 $267 $368 reversed $265 $-1 #
vertex $-1 $190 $378 #
straight-curve $-1 0 49.927508588205384 14.062043862997218 -1 0 0 I I #
coedge $-1 $191 $268 $193 $287 reversed $114 $-1 #
vertex $-1 $279 $379 #
straight-curve $-1 0 -49.927508588205384 14.062043862997218 1 0 0 I I #
edge $-1 $196 -14.062043862997218 $276 14.062043862997218 $193 $380 forward 7 unknown #
edge $-1 $197 -14.062043862997218 $275 14.062043862997218 $194 $381 forward 7 unknown #
point $-1 75.362407300027456 -49.927508588205384 14.062043862997218 #
point $-1 75.362407300027456 49.927508588205384 14.062043862997218 #
face $-1 $-1 $300 $28 $-1 $382 reversed single #
loop $-1 $-1 $297 $199 #
plane-surface $-1 0 0 14.062043862997218 0 0 1 1 0 0 forward_v I I I I #
coedge $-1 $383 $384 $206 $303 forward $200 $-1 #
coedge $-1 $202 $307 $385 $386 reversed $122 $-1 #
edge $-1 $387 -8.2858856467486177 $212 -3.2664307857485859 $202 $388 forward 7 unknown #
coedge $-1 $385 $389 $203 $298 forward $292 $-1 #
edge $-1 $301 -49.927508588205384 $387 49.927508588205384 $297 $390 forward 7 unknown #
coedge $-1 $304 $204 $389 $391 reversed $300 $-1 #
loop $-1 $-1 $204 $291 #
vertex $-1 $205 $392 #
straight-curve $-1 -59.484498543795496 -49.927508588205384 5.7761582162486018 0 0 1 I I #
edge $-1 $308 -49.927508588205384 $305 49.927508588205384 $294 $393 forward 7 unknown #
coedge $-1 $207 $299 $383 $394 forward $300 $-1 #
vertex $-1 $303 $395 #
straight-curve $-1 -33.711726460955738 -49.927508588205384 9.0425890019971877 1 0 0 I I #
coedge $-1 $295 $209 $384 $396 reversed $122 $-1 #
vertex $-1 $303 $397 #
straight-curve $-1 -33.711726460955738 49.927508588205384 9.0425890019971877 -1 0 0 I I #
point $-1 -59.484498543795496 49.927508588205384 9.0425890019971877 #
point $-1 -59.484498543795496 -49.927508588205384 9.0425890019971877 #
loop $-1 $-1 $222 $215 #
plane-surface $-1 0 49.927508588205384 0 0 -1 0 0 0 -1 forward_v I I I I #
coedge $-1 $398 $399 $219 $316 forward $216 $-1 #
coedge $-1 $219 $218 $321 $400 reversed $81 $-1 #
edge $-1 $318 48.34761229713898 $401 63.142300058192305 $314 $402 forward 7 unknown #
coedge $-1 $225 $220 $399 $403 forward $130 $-1 #
vertex $-1 $403 $404 #
straight-curve $-1 31.514489662333361 41.654424360254964 14.062043862997221 1 0 0 I I #
coedge $-1 $405 $222 $225 $325 reversed $312 $-1 #
coedge $-1 $222 $405 $315 $400 forward $312 $-1 #
vertex $-1 $223 $406 #
straight-curve $-1 50.695551349305987 49.927508588205384 84.43224923304922 0 0 1 I I #
straight-curve $-1 50.695551349305987 -5.9107071975034842 84.580253569017501 0 0.55919289150049634 -0.82903758062907751 I I #
edge $-1 $407 -75.362407300027456 $226 -50.695551349305987 $320 $408 forward 7 unknown #
point $-1 50.695551349305987 49.927508588205384 14.062043862997218 #
point $-1 50.695551349305987 41.654424360254971 14.062043862997214 #
edge $-1 $409 1 $409 0 $229 $-1 forward 7 unknown #
vertex $-1 $230 $410 #
ellipse-curve $-1 55.628922539450286 43.486982307085619 6.375310894196617 0 0.82903758062907751 0.55919289150049634 1 0 0 1 I I #
point $-1 56.628922539450286 45.790966474230174 7.9293677892040844 #
edge $-1 $411 1 $411 0 $233 $-1 forward 7 unknown #
vertex $-1 $234 $412 #
ellipse-curve $-1 63.028979324666722 43.486982307085619 6.375310894196617 0 0.82903758062907751 0.55919289150049634 1 0 0 1 I I #
point $-1 64.028979324666722 45.790966474230174 7.9293677892040844 #
edge $-1 $413 1 $413 0 $237 $-1 forward 7 unknown #
vertex $-1 $238 $414 #
ellipse-curve $-1 70.429036109883157 43.486982307085619 6.375310894196617 0 0.82903758062907751 0.55919289150049634 1 0 0 1 I I #
point $-1 71.429036109883157 45.790966474230174 7.9293677892040844 #
loop $-1 $-1 $249 $241 #
plane-surface $-1 75.362407300027456 0 0 -1 0 0 0 0 1 forward_v I I I I #
coedge $-1 $415 $343 $248 $348 forward $242 $-1 #
coedge $-1 $342 $416 $245 $344 forward $242 $-1 #
edge $-1 $346 30.218145968524407 $353 35.591791111525993 $343 $417 forward 7 unknown #
coedge $-1 $252 $246 $416 $418 forward $159 $-1 #
vertex $-1 $418 $419 #
straight-curve $-1 55.619128062204624 -88.874700923874897 14.062043862997221 0 -1 0 I I #
edge $-1 $353 22.873744221646604 $351 42.617023459469436 $342 $420 forward 7 unknown #
coedge $-1 $350 $249 $252 $355 reversed $340 $-1 #
coedge $-1 $249 $349 $415 $421 forward $340 $-1 #
vertex $-1 $348 $422 #
straight-curve $-1 75.362407300027456 -44.869596807595883 16.782749856700903 0 0.52991925155115449 0.84804810408105047 I I #
vertex $-1 $348 $423 #
straight-curve $-1 55.619128062204624 -49.927508588205384 8.6883987199956323 0 0.52991925155115449 0.84804810408105047 I I #
edge $-1 $424 -49.927508588205384 $253 -46.569682542044276 $349 $425 forward 7 unknown #
point $-1 75.362407300027456 -46.569682542044276 14.062043862997218 #
point $-1 55.619128062204624 -46.569682542044276 14.062043862997218 #
edge $-1 $426 1 $426 0 $256 $-1 forward 7 unknown #
vertex $-1 $257 $427 #
ellipse-curve $-1 61.260064987296857 -45.77961015342953 9.8324280287556896 0 -0.84804810408105047 0.52991925155115449 1.5 0 0 1 I I #
point $-1 62.760064987296857 -48.24859556512483 11.37522129149642 #
edge $-1 $428 1 $428 0 $260 $-1 forward 7 unknown #
vertex $-1 $261 $429 #
ellipse-curve $-1 69.721470374935222 -45.77961015342953 9.8324280287556896 0 -0.84804810408105047 0.52991925155115449 1.5 0 0 1 I I #
point $-1 71.221470374935222 -48.24859556512483 11.37522129149642 #
plane-surface $-1 75.362407300027456 0 0 -1 0 0 0 0 1 forward_v I I I I #
coedge $-1 $269 $267 $271 $371 reversed $181 $-1 #
edge $-1 $282 -14.062043862997218 $373 14.062043862997218 $281 $430 forward 7 unknown #
vertex $-1 $371 $431 #
straight-curve $-1 -75.362407300027456 -49.927508588205384 0 0 0 -1 I I #
edge $-1 $369 -49.927508588205384 $373 49.927508588205384 $367 $432 forward 7 unknown #
straight-curve $-1 0 -49.927508588205384 -14.062043862997218 -1 0 0 I I #
vertex $-1 $274 $433 #
straight-curve $-1 0 49.927508588205384 -14.062043862997218 1 0 0 I I #
point $-1 75.362407300027456 49.927508588205384 -14.062043862997218 #
point $-1 75.362407300027456 -49.927508588205384 -14.062043862997218 #
straight-curve $-1 -75.362407300027456 0 14.062043862997218 0 -1 0 I I #
point $-1 -75.362407300027456 49.927508588205384 14.062043862997218 #
point $-1 -75.362407300027456 -49.927508588205384 14.062043862997218 #
straight-curve $-1 75.362407300027456 -49.927508588205384 0 0 0 -1 I I #
straight-curve $-1 75.362407300027456 49.927508588205384 0 0 0 -1 I I #
plane-surface $-1 0 -49.927508588205384 0 0 1 0 0 0 1 forward_v I I I I #
coedge $-1 $434 $294 $304 $394 reversed $200 $-1 #
coedge $-1 $294 $434 $307 $396 forward $200 $-1 #
coedge $-1 $435 $297 $295 $386 forward $292 $-1 #
edge $-1 $387 59.484498543795496 $436 75.362407300027456 $295 $437 forward 7 unknown #
vertex $-1 $386 $438 #
straight-curve $-1 -59.484498543795496 49.927508588205384 5.7761582162486018 0 0 -1 I I #
coedge $-1 $297 $435 $299 $391 forward $292 $-1 #
straight-curve $-1 -59.484498543795496 0 14.062043862997218 0 1 0 I I #
edge $-1 $439 -75.362407300027456 $301 -59.484498543795496 $299 $440 forward 7 unknown #
point $-1 -59.484498543795496 -49.927508588205384 14.06204386299722 #
straight-curve $-1 -75.362407300027456 0 9.0425890019971877 0 -1 0 I I #
edge $-1 $439 -14.062043862997218 $305 -9.0425890019971877 $383 $441 forward 7 unknown #
point $-1 -75.362407300027456 -49.927508588205384 9.0425890019971877 #
edge $-1 $436 -14.062043862997218 $308 -9.0425890019971877 $307 $442 forward 7 unknown #
point $-1 -75.362407300027456 49.927508588205384 9.0425890019971877 #
coedge $-1 $399 $314 $405 $443 reversed $216 $-1 #
coedge $-1 $314 $398 $317 $403 reversed $216 $-1 #
edge $-1 $401 -43.847917637694096 $322 -19.181061686972626 $321 $444 forward 7 unknown #
vertex $-1 $316 $445 #
straight-curve $-1 75.362407300027456 14.618783242672873 54.144031391009946 0 0.55919289150049634 -0.82903758062907751 I I #
edge $-1 $318 41.654424360254971 $407 49.927508588205384 $399 $446 forward 7 unknown #
point $-1 75.362407300027456 41.654424360254971 14.062043862997214 #
coedge $-1 $321 $320 $398 $443 forward $312 $-1 #
point $-1 50.695551349305987 49.927508588205384 1.7966917154109439 #
vertex $-1 $403 $447 #
straight-curve $-1 0 49.927508588205384 14.062043862997218 -1 0 0 I I #
vertex $-1 $328 $448 #
point $-1 56.628922539450286 43.486982307085619 6.375310894196617 #
vertex $-1 $332 $449 #
point $-1 64.028979324666722 43.486982307085619 6.375310894196617 #
vertex $-1 $336 $450 #
point $-1 71.429036109883157 43.486982307085619 6.375310894196617 #
coedge $-1 $416 $342 $350 $421 reversed $242 $-1 #
coedge $-1 $343 $415 $345 $418 reversed $242 $-1 #
straight-curve $-1 55.619128062204624 -49.927508588205384 44.280189831521625 0 0 -1 I I #
edge $-1 $346 55.619128062204624 $424 75.362407300027456 $416 $451 forward 7 unknown #
point $-1 55.619128062204624 -49.927508588205384 14.062043862997218 #
straight-curve $-1 32.74538384055802 -49.927508588205384 8.6883987199956358 1 0 0 I I #
edge $-1 $424 -14.062043862997218 $351 -8.6883987199956323 $350 $452 forward 7 unknown #
point $-1 75.362407300027456 -49.927508588205384 8.6883987199956323 #
point $-1 55.619128062204624 -49.927508588205384 8.6883987199956323 #
vertex $-1 $355 $453 #
straight-curve $-1 75.362407300027456 0 14.062043862997218 0 1 0 I I #
vertex $-1 $358 $454 #
point $-1 62.760064987296857 -45.77961015342953 9.8324280287556896 #
vertex $-1 $362 $455 #
point $-1 71.221470374935222 -45.77961015342953 9.8324280287556896 #
straight-curve $-1 -75.362407300027456 49.927508588205384 0 0 0 -1 I I #
point $-1 -75.362407300027456 -49.927508588205384 -14.062043862997218 #
straight-curve $-1 -75.362407300027456 0 -14.062043862997218 0 1 0 I I #
point $-1 -75.362407300027456 49.927508588205384 -14.062043862997218 #
coedge $-1 $384 $383 $435 $456 reversed $200 $-1 #
coedge $-1 $389 $385 $434 $456 forward $292 $-1 #
vertex $-1 $386 $457 #
straight-curve $-1 0 49.927508588205384 14.062043862997218 -1 0 0 I I #
point $-1 -59.484498543795496 49.927508588205384 14.06204386299722 #
vertex $-1 $456 $458 #
straight-curve $-1 0 -49.927508588205384 14.062043862997218 1 0 0 I I #
straight-curve $-1 -75.362407300027456 -49.927508588205384 0 0 0 -1 I I #
straight-curve $-1 -75.362407300027456 49.927508588205384 0 0 0 -1 I I #
edge $-1 $407 -14.062043862997218 $401 -1.7966917154109439 $398 $459 forward 7 unknown #
straight-curve $-1 31.514489662333361 49.927508588205384 1.7966917154109225 -1 0 0 I I #
point $-1 75.362407300027456 49.927508588205384 1.7966917154109439 #
straight-curve $-1 75.362407300027456 0 14.062043862997218 0 1 0 I I #
point $-1 75.362407300027456 49.927508588205384 14.062043862997218 #
point $-1 55.628922539450286 42.657944726456542 5.816118002696121 #
point $-1 63.028979324666722 42.657944726456542 5.816118002696121 #
point $-1 70.429036109883157 42.657944726456542 5.816118002696121 #
straight-curve $-1 0 -49.927508588205384 14.062043862997218 1 0 0 I I #
straight-curve $-1 75.362407300027456 -49.927508588205384 0 0 0 -1 I I #
point $-1 75.362407300027456 -49.927508588205384 14.062043862997218 #
point $-1 61.260064987296857 -44.507537997307949 9.0375491514289585 #
point $-1 69.721470374935222 -44.507537997307949 9.0375491514289585 #
edge $-1 $436 -49.927508588205384 $439 49.927508588205384 $434 $460 forward 7 unknown #
point $-1 -75.362407300027456 49.927508588205384 14.062043862997218 #
point $-1 -75.362407300027456 -49.927508588205384 14.062043862997218 #
straight-curve $-1 75.362407300027456 49.927508588205384 0 0 0 -1 I I #
straight-curve $-1 -75.362407300027456 0 14.062043862997218 0 -1 0 I I #
End-of-ACIS-data 