500 0 14 0           
7 Unknown 11 ACIS 5.0 NT 24 Fri Mar 26 03:14:14 1999 
-1 9.9999999999999995e-007 1e-010 
body $-1 $14 $-1 $15 #
body $-1 $16 $-1 $17 #
body $-1 $18 $-1 $19 #
body $-1 $20 $-1 $21 #
body $-1 $22 $-1 $23 #
body $-1 $24 $-1 $25 #
body $-1 $26 $-1 $27 #
body $-1 $28 $-1 $29 #
body $-1 $30 $-1 $31 #
body $-1 $32 $-1 $33 #
body $-1 $34 $-1 $35 #
body $-1 $36 $-1 $37 #
body $-1 $38 $-1 $39 #
body $-1 $40 $-1 $41 #
lump $-1 $-1 $42 $0 #
transform $-1 1 0 0 0 1 0 0 0 1 41.054719687490461 27.776430301703343 11.859595644793556 1 rotate no_reflect no_shear #
lump $-1 $-1 $43 $1 #
transform $-1 1 0 0 0 1 0 0 0 1 41.054719687490461 27.776430301703343 11.859595644793556 1 rotate no_reflect no_shear #
lump $-1 $-1 $44 $2 #
transform $-1 1 0 0 0 1 0 0 0 1 41.054719687490461 27.776430301703343 11.859595644793556 1 rotate no_reflect no_shear #
lump $-1 $-1 $45 $3 #
transform $-1 1 0 0 0 1 0 0 0 1 41.054719687490461 27.776430301703343 11.859595644793556 1 rotate no_reflect no_shear #
lump $-1 $-1 $46 $4 #
transform $-1 1 0 0 0 1 0 0 0 1 41.054719687490461 27.776430301703343 11.859595644793556 1 rotate no_reflect no_shear #
lump $-1 $-1 $47 $5 #
transform $-1 1 0 0 0 1 0 0 0 1 41.054719687490461 27.776430301703343 11.859595644793556 1 rotate no_reflect no_shear #
lump $-1 $-1 $48 $6 #
transform $-1 1 0 0 0 1 0 0 0 1 41.054719687490461 27.776430301703343 11.859595644793556 1 rotate no_reflect no_shear #
lump $-1 $-1 $49 $7 #
transform $-1 1 0 0 0 1 0 0 0 1 41.054719687490461 27.776430301703343 11.859595644793556 1 rotate no_reflect no_shear #
lump $-1 $-1 $50 $8 #
transform $-1 1 0 0 0 1 0 0 0 1 41.054719687490461 27.776430301703343 11.859595644793556 1 rotate no_reflect no_shear #
lump $-1 $-1 $51 $9 #
transform $-1 1 0 0 0 1 0 0 0 1 41.054719687490461 27.776430301703343 11.859595644793556 1 rotate no_reflect no_shear #
lump $-1 $-1 $52 $10 #
transform $-1 1 0 0 0 1 0 0 0 1 41.054719687490461 27.776430301703343 11.859595644793556 1 rotate no_reflect no_shear #
lump $-1 $-1 $53 $11 #
transform $-1 1 0 0 0 1 0 0 0 1 41.054719687490461 27.776430301703343 11.859595644793556 1 rotate no_reflect no_shear #
lump $-1 $-1 $54 $12 #
transform $-1 1 0 0 0 1 0 0 0 1 41.054719687490461 27.776430301703343 11.859595644793556 1 rotate no_reflect no_shear #
lump $-1 $-1 $55 $13 #
transform $-1 1 0 0 0 1 0 0 0 1 41.054719687490461 27.776430301703343 11.859595644793556 1 rotate no_reflect no_shear #
shell $-1 $-1 $-1 $56 $-1 $14 #
shell $-1 $-1 $-1 $57 $-1 $16 #
shell $-1 $-1 $-1 $58 $-1 $18 #
shell $-1 $-1 $-1 $59 $-1 $20 #
shell $-1 $-1 $-1 $60 $-1 $22 #
shell $-1 $-1 $-1 $61 $-1 $24 #
shell $-1 $-1 $-1 $62 $-1 $26 #
shell $-1 $-1 $-1 $63 $-1 $28 #
shell $-1 $-1 $-1 $64 $-1 $30 #
shell $-1 $-1 $-1 $65 $-1 $32 #
shell $-1 $-1 $-1 $66 $-1 $34 #
shell $-1 $-1 $-1 $67 $-1 $36 #
shell $-1 $-1 $-1 $68 $-1 $38 #
shell $-1 $-1 $-1 $69 $-1 $40 #
face $-1 $70 $71 $42 $-1 $72 forward single #
face $-1 $73 $74 $43 $-1 $75 forward single #
face $-1 $76 $77 $44 $-1 $78 reversed single #
face $-1 $79 $80 $45 $-1 $81 forward single #
face $-1 $82 $83 $46 $-1 $84 reversed single #
face $-1 $85 $86 $47 $-1 $87 forward single #
face $-1 $88 $89 $48 $-1 $90 reversed single #
face $-1 $91 $92 $49 $-1 $93 forward single #
face $-1 $94 $95 $50 $-1 $96 forward single #
face $-1 $97 $98 $51 $-1 $99 forward single #
face $-1 $100 $101 $52 $-1 $102 reversed single #
face $-1 $103 $104 $53 $-1 $105 forward single #
face $-1 $106 $107 $54 $-1 $108 forward single #
face $-1 $109 $110 $55 $-1 $111 forward single #
face $-1 $112 $113 $42 $-1 $114 reversed single #
loop $-1 $-1 $115 $56 #
plane-surface $-1 0 0 11.859595644793556 0 0 1 1 0 0 forward_v I I I I #
face $-1 $116 $117 $43 $-1 $118 reversed single #
loop $-1 $-1 $119 $57 #
plane-surface $-1 0 -21.34414785069913 8.6283906546360836 0 0 1 1 0 0 forward_v I I I I #
face $-1 $120 $121 $44 $-1 $122 reversed single #
loop $-1 $-1 $123 $58 #
plane-surface $-1 -105.75784156536004 -10.739504819012033 57.36117966316489 0 1 0 -0.78801076186113728 0 0.61566146476048833 forward_v I I I I #
face $-1 $124 $125 $45 $-1 $126 forward single #
loop $-1 $127 $128 $59 #
cone-surface $-1 -37.852351427834414 -7.7051418985124691 8.3739030286894334 0.78801076186113728 0 -0.61566146476048833 0.61566146476048833 0 0.78801076186113728 1 I I 0 1 1 forward I I I I #
face $-1 $129 $130 $46 $-1 $131 reversed single #
loop $-1 $-1 $132 $60 #
plane-surface $-1 -105.75784156536004 10.6046430316871 57.36117966316489 0 1 0 -0.78801076186113728 0 0.61566146476048833 forward_v I I I I #
face $-1 $133 $134 $47 $-1 $135 forward single #
loop $-1 $136 $137 $61 #
cone-surface $-1 -37.852351427834414 13.639005952186665 8.3739030286894334 0.78801076186113728 0 -0.61566146476048833 0.61566146476048833 0 0.78801076186113728 1 I I 0 1 1 forward I I I I #
face $-1 $138 $139 $48 $-1 $140 reversed single #
loop $-1 $-1 $141 $62 #
plane-surface $-1 30.93417138825285 -4.3236312969749946 119.2190578881461 0 -1 0 -0.64278761758704617 0 -0.76604443648966558 forward_v I I I I #
face $-1 $142 $143 $49 $-1 $144 forward single #
loop $-1 $145 $146 $63 #
cone-surface $-1 35.776257965034937 -12.794218579150932 7.3170994813541865 -0.64278761758704617 0 -0.76604443648966558 0.1915111091224164 0 -0.16069690439676154 1 I I 0 1 0.25 forward I I I I #
face $-1 $147 $148 $50 $-1 $149 forward single #
loop $-1 $150 $151 $64 #
cone-surface $-1 35.776257965034937 -9.6177483483349562 7.3170994813541865 -0.64278761758704617 0 -0.76604443648966558 0.1915111091224164 0 -0.16069690439676154 1 I I 0 1 0.25 forward I I I I #
face $-1 $152 $153 $51 $-1 $154 forward single #
loop $-1 $155 $156 $65 #
cone-surface $-1 35.776257965034937 -6.4412781175189799 7.3170994813541865 -0.64278761758704617 0 -0.76604443648966558 0.1915111091224164 0 -0.16069690439676154 1 I I 0 1 0.25 forward I I I I #
face $-1 $157 $158 $52 $-1 $159 reversed single #
loop $-1 $-1 $160 $66 #
plane-surface $-1 30.93417138825285 17.020516553724136 119.2190578881461 0 -1 0 -0.64278761758704617 0 -0.76604443648966558 forward_v I I I I #
face $-1 $161 $162 $53 $-1 $163 forward single #
loop $-1 $164 $165 $67 #
cone-surface $-1 35.776257965034937 8.5499292715481943 7.3170994813541865 -0.64278761758704617 0 -0.76604443648966558 0.1915111091224164 0 -0.16069690439676154 1 I I 0 1 0.25 forward I I I I #
face $-1 $166 $167 $54 $-1 $168 forward single #
loop $-1 $169 $170 $68 #
cone-surface $-1 35.776257965034937 11.726399502364174 7.3170994813541865 -0.64278761758704617 0 -0.76604443648966558 0.1915111091224164 0 -0.16069690439676154 1 I I 0 1 0.25 forward I I I I #
face $-1 $171 $172 $55 $-1 $173 forward single #
loop $-1 $174 $175 $69 #
cone-surface $-1 35.776257965034937 14.902869733180154 7.3170994813541865 -0.64278761758704617 0 -0.76604443648966558 0.1915111091224164 0 -0.16069690439676154 1 I I 0 1 0.25 forward I I I I #
face $-1 $176 $177 $42 $-1 $178 reversed single #
loop $-1 $-1 $179 $70 #
plane-surface $-1 0 0 -11.859595644793556 0 0 1 1 0 0 forward_v I I I I #
coedge $-1 $180 $181 $182 $183 forward $71 $-1 #
face $-1 $184 $185 $43 $-1 $186 reversed single #
loop $-1 $-1 $187 $73 #
plane-surface $-1 0 -21.34414785069913 4.6992729935517641 0 0 1 1 0 0 forward_v I I I I #
coedge $-1 $188 $189 $190 $191 reversed $74 $-1 #
face $-1 $192 $193 $44 $-1 $194 reversed single #
loop $-1 $-1 $195 $76 #
plane-surface $-1 -41.054719687490461 -7.7051418985124691 6.8095619469016171 -0.78801076186113728 0 0.61566146476048833 0.61566146476048833 0 0.78801076186113728 forward_v I I I I #
coedge $-1 $196 $197 $198 $199 reversed $77 $-1 #
face $-1 $-1 $200 $45 $-1 $201 forward single #
loop $-1 $202 $203 $79 #
cone-surface $-1 -36.228737103498013 -7.7051418985124691 7.1053965291510313 0.78801076186113728 0 -0.61566146476048833 0.30783073238024417 0 0.39400538093056864 1 I I -0.70710678118654746 0.70710678118654746 0.5 forward I I I I #
loop $-1 $-1 $204 $59 #
coedge $-1 $128 $128 $205 $206 reversed $80 $-1 #
face $-1 $207 $208 $46 $-1 $209 reversed single #
loop $-1 $-1 $210 $82 #
plane-surface $-1 -41.054719687490461 13.639005952186665 6.8095619469016171 -0.78801076186113728 0 0.61566146476048833 0.61566146476048833 0 0.78801076186113728 forward_v I I I I #
coedge $-1 $211 $212 $213 $214 reversed $83 $-1 #
face $-1 $-1 $215 $47 $-1 $216 forward single #
loop $-1 $217 $218 $85 #
cone-surface $-1 -36.228737103498013 13.639005952186665 7.1053965291510313 0.78801076186113728 0 -0.61566146476048833 0.30783073238024417 0 0.39400538093056864 1 I I -0.70710678118654746 0.70710678118654746 0.5 forward I I I I #
loop $-1 $-1 $219 $61 #
coedge $-1 $137 $137 $220 $221 reversed $86 $-1 #
face $-1 $222 $223 $48 $-1 $224 forward single #
loop $-1 $-1 $225 $88 #
plane-surface $-1 -21.844759528999141 -9.6177483483349562 56.31957867165648 0.64278761758704617 0 0.76604443648966558 0.76604443648966558 0 -0.64278761758704617 forward_v I I I I #
coedge $-1 $226 $227 $228 $229 reversed $89 $-1 #
face $-1 $-1 $230 $49 $-1 $231 forward single #
loop $-1 $232 $233 $91 #
cone-surface $-1 35.374515704043034 -12.794218579150932 6.8383217085481451 -0.64278761758704617 0 -0.76604443648966558 0.095755554561208198 0 -0.080348452198380771 1 I I -0.70710678118654746 0.70710678118654746 0.125 forward I I I I #
loop $-1 $-1 $234 $63 #
coedge $-1 $146 $146 $235 $236 reversed $92 $-1 #
face $-1 $-1 $237 $50 $-1 $238 forward single #
loop $-1 $239 $240 $94 #
cone-surface $-1 35.374515704043034 -9.6177483483349562 6.8383217085481451 -0.64278761758704617 0 -0.76604443648966558 0.095755554561208198 0 -0.080348452198380771 1 I I -0.70710678118654746 0.70710678118654746 0.125 forward I I I I #
loop $-1 $-1 $241 $64 #
coedge $-1 $151 $151 $242 $243 reversed $95 $-1 #
face $-1 $-1 $244 $51 $-1 $245 forward single #
loop $-1 $246 $247 $97 #
cone-surface $-1 35.374515704043034 -6.4412781175189799 6.8383217085481451 -0.64278761758704617 0 -0.76604443648966558 0.095755554561208198 0 -0.080348452198380771 1 I I -0.70710678118654746 0.70710678118654746 0.125 forward I I I I #
loop $-1 $-1 $248 $65 #
coedge $-1 $156 $156 $249 $250 reversed $98 $-1 #
face $-1 $251 $252 $52 $-1 $253 reversed single #
loop $-1 $-1 $254 $100 #
plane-surface $-1 -21.844759528999141 11.726399502364174 56.31957867165648 0.64278761758704617 0 0.76604443648966558 0.76604443648966558 0 -0.64278761758704617 forward_v I I I I #
coedge $-1 $255 $256 $257 $258 reversed $101 $-1 #
face $-1 $-1 $259 $53 $-1 $260 forward single #
loop $-1 $261 $262 $103 #
cone-surface $-1 35.374515704043034 8.5499292715481943 6.8383217085481451 -0.64278761758704617 0 -0.76604443648966558 0.095755554561208198 0 -0.080348452198380771 1 I I -0.70710678118654746 0.70710678118654746 0.125 forward I I I I #
loop $-1 $-1 $263 $67 #
coedge $-1 $165 $165 $264 $265 reversed $104 $-1 #
face $-1 $-1 $266 $54 $-1 $267 forward single #
loop $-1 $268 $269 $106 #
cone-surface $-1 35.374515704043034 11.726399502364174 6.8383217085481451 -0.64278761758704617 0 -0.76604443648966558 0.095755554561208198 0 -0.080348452198380771 1 I I -0.70710678118654746 0.70710678118654746 0.125 forward I I I I #
loop $-1 $-1 $270 $68 #
coedge $-1 $170 $170 $271 $272 reversed $107 $-1 #
face $-1 $-1 $273 $55 $-1 $274 forward single #
loop $-1 $275 $276 $109 #
cone-surface $-1 35.374515704043034 14.902869733180154 6.8383217085481451 -0.64278761758704617 0 -0.76604443648966558 0.095755554561208198 0 -0.080348452198380771 1 I I -0.70710678118654746 0.70710678118654746 0.125 forward I I I I #
loop $-1 $-1 $277 $69 #
coedge $-1 $175 $175 $278 $279 reversed $110 $-1 #
face $-1 $280 $281 $42 $-1 $282 reversed single #
loop $-1 $-1 $283 $112 #
plane-surface $-1 0 -27.776430301703343 0 0 1 0 0 0 1 forward_v I I I I #
coedge $-1 $284 $285 $286 $287 forward $113 $-1 #
coedge $-1 $288 $115 $289 $290 forward $71 $-1 #
coedge $-1 $115 $288 $291 $292 forward $71 $-1 #
coedge $-1 $293 $294 $115 $183 reversed $295 $-1 #
edge $-1 $296 -27.776430301703343 $297 27.776430301703343 $182 $298 forward 7 unknown #
face $-1 $299 $300 $43 $-1 $301 reversed single #
loop $-1 $-1 $302 $116 #
plane-surface $-1 0 -14.911865399694918 6.6638318240939238 0 -1 0 0 0 -1 forward_v I I I I #
coedge $-1 $303 $304 $305 $306 reversed $117 $-1 #
coedge $-1 $307 $119 $308 $309 forward $74 $-1 #
coedge $-1 $119 $307 $310 $311 reversed $74 $-1 #
coedge $-1 $312 $313 $119 $191 forward $314 $-1 #
edge $-1 $315 4.2397914743453526 $316 17.104356376353778 $190 $317 forward 7 unknown #
face $-1 $318 $319 $44 $-1 $320 reversed single #
loop $-1 $-1 $321 $120 #
plane-surface $-1 -105.75784156536004 -4.6707789780129048 57.36117966316489 0 -1 0 0.78801076186113728 0 -0.61566146476048833 forward_v I I I I #
coedge $-1 $322 $323 $324 $325 reversed $121 $-1 #
coedge $-1 $197 $123 $326 $327 reversed $77 $-1 #
coedge $-1 $123 $196 $322 $328 reversed $77 $-1 #
coedge $-1 $324 $329 $123 $199 forward $330 $-1 #
edge $-1 $331 11.824201095189558 $332 15.769719727689989 $198 $333 forward 7 unknown #
loop $-1 $-1 $205 $124 #
plane-surface $-1 -41.054719687490461 -7.7051418985124691 6.8095619469016171 -0.78801076186113728 0 0.61566146476048833 0.61566146476048833 0 0.78801076186113728 forward_v I I I I #
loop $-1 $-1 $334 $79 #
coedge $-1 $203 $203 $204 $335 reversed $125 $-1 #
coedge $-1 $204 $204 $203 $335 forward $127 $-1 #
coedge $-1 $205 $205 $128 $206 forward $200 $-1 #
edge $-1 $336 0 $336 6.2831853071796004 $205 $337 forward 7 unknown #
face $-1 $338 $339 $46 $-1 $340 forward single #
loop $-1 $-1 $341 $129 #
plane-surface $-1 -105.75784156536004 16.673368872686229 57.36117966316489 0 -1 0 0.78801076186113728 0 -0.61566146476048833 forward_v I I I I #
coedge $-1 $342 $343 $344 $345 reversed $130 $-1 #
coedge $-1 $212 $132 $346 $347 reversed $83 $-1 #
coedge $-1 $132 $211 $342 $348 reversed $83 $-1 #
coedge $-1 $344 $349 $132 $214 forward $339 $-1 #
edge $-1 $350 11.824201095189558 $351 15.769719727689989 $213 $352 forward 7 unknown #
loop $-1 $-1 $220 $133 #
plane-surface $-1 -41.054719687490461 13.639005952186665 6.8095619469016171 -0.78801076186113728 0 0.61566146476048833 0.61566146476048833 0 0.78801076186113728 forward_v I I I I #
loop $-1 $-1 $353 $85 #
coedge $-1 $218 $218 $219 $354 reversed $134 $-1 #
coedge $-1 $219 $219 $218 $354 forward $136 $-1 #
coedge $-1 $220 $220 $137 $221 forward $215 $-1 #
edge $-1 $355 0 $355 6.2831853071796004 $220 $356 forward 7 unknown #
face $-1 $357 $358 $48 $-1 $359 forward single #
loop $-1 $-1 $228 $138 #
plane-surface $-1 0 0 11.859595644793556 0 0 1 1 0 0 forward_v I I I I #
coedge $-1 $360 $361 $362 $363 reversed $139 $-1 #
coedge $-1 $227 $141 $364 $365 reversed $89 $-1 #
coedge $-1 $141 $226 $360 $366 reversed $89 $-1 #
coedge $-1 $362 $367 $141 $229 forward $223 $-1 #
edge $-1 $368 -25.587633993364037 $369 -15.673498166040034 $228 $370 forward 7 unknown #
loop $-1 $-1 $235 $142 #
plane-surface $-1 -21.844759528999141 -9.6177483483349562 56.31957867165648 0.64278761758704617 0 0.76604443648966558 0.76604443648966558 0 -0.64278761758704617 forward_v I I I I #
loop $-1 $-1 $371 $91 #
coedge $-1 $233 $233 $234 $372 reversed $143 $-1 #
coedge $-1 $234 $234 $233 $372 forward $145 $-1 #
coedge $-1 $235 $235 $146 $236 forward $230 $-1 #
edge $-1 $373 0 $373 6.2831853071796004 $235 $374 forward 7 unknown #
loop $-1 $-1 $242 $147 #
plane-surface $-1 -21.844759528999141 -9.6177483483349562 56.31957867165648 0.64278761758704617 0 0.76604443648966558 0.76604443648966558 0 -0.64278761758704617 forward_v I I I I #
loop $-1 $-1 $375 $94 #
coedge $-1 $240 $240 $241 $376 reversed $148 $-1 #
coedge $-1 $241 $241 $240 $376 forward $150 $-1 #
coedge $-1 $242 $242 $151 $243 forward $237 $-1 #
edge $-1 $377 0 $377 6.2831853071796004 $242 $378 forward 7 unknown #
loop $-1 $-1 $249 $152 #
plane-surface $-1 -21.844759528999141 -9.6177483483349562 56.31957867165648 0.64278761758704617 0 0.76604443648966558 0.76604443648966558 0 -0.64278761758704617 forward_v I I I I #
loop $-1 $-1 $379 $97 #
coedge $-1 $247 $247 $248 $380 reversed $153 $-1 #
coedge $-1 $248 $248 $247 $380 forward $155 $-1 #
coedge $-1 $249 $249 $156 $250 forward $244 $-1 #
edge $-1 $381 0 $381 6.2831853071796004 $249 $382 forward 7 unknown #
face $-1 $383 $384 $52 $-1 $385 forward single #
loop $-1 $-1 $386 $157 #
plane-surface $-1 30.93417138825285 6.4322824510042125 119.2190578881461 0 1 0 0.64278761758704617 0 0.76604443648966558 forward_v I I I I #
coedge $-1 $387 $388 $389 $390 reversed $158 $-1 #
coedge $-1 $256 $160 $391 $392 reversed $101 $-1 #
coedge $-1 $160 $255 $387 $393 reversed $101 $-1 #
coedge $-1 $389 $394 $160 $258 forward $384 $-1 #
edge $-1 $395 -25.587633993364037 $396 -15.673498166040034 $257 $397 forward 7 unknown #
loop $-1 $-1 $264 $161 #
plane-surface $-1 -21.844759528999141 11.726399502364174 56.31957867165648 0.64278761758704617 0 0.76604443648966558 0.76604443648966558 0 -0.64278761758704617 forward_v I I I I #
loop $-1 $-1 $398 $103 #
coedge $-1 $262 $262 $263 $399 reversed $162 $-1 #
coedge $-1 $263 $263 $262 $399 forward $164 $-1 #
coedge $-1 $264 $264 $165 $265 forward $259 $-1 #
edge $-1 $400 0 $400 6.2831853071796004 $264 $401 forward 7 unknown #
loop $-1 $-1 $271 $166 #
plane-surface $-1 -21.844759528999141 11.726399502364174 56.31957867165648 0.64278761758704617 0 0.76604443648966558 0.76604443648966558 0 -0.64278761758704617 forward_v I I I I #
loop $-1 $-1 $402 $106 #
coedge $-1 $269 $269 $270 $403 reversed $167 $-1 #
coedge $-1 $270 $270 $269 $403 forward $169 $-1 #
coedge $-1 $271 $271 $170 $272 forward $266 $-1 #
edge $-1 $404 0 $404 6.2831853071796004 $271 $405 forward 7 unknown #
loop $-1 $-1 $278 $171 #
plane-surface $-1 -21.844759528999141 11.726399502364174 56.31957867165648 0.64278761758704617 0 0.76604443648966558 0.76604443648966558 0 -0.64278761758704617 forward_v I I I I #
loop $-1 $-1 $406 $109 #
coedge $-1 $276 $276 $277 $407 reversed $172 $-1 #
coedge $-1 $277 $277 $276 $407 forward $174 $-1 #
coedge $-1 $278 $278 $175 $279 forward $273 $-1 #
edge $-1 $408 0 $408 6.2831853071796004 $278 $409 forward 7 unknown #
face $-1 $410 $411 $42 $-1 $412 reversed single #
loop $-1 $-1 $413 $176 #
plane-surface $-1 -41.054719687490461 0 0 1 0 0 0 0 -1 forward_v I I I I #
coedge $-1 $414 $291 $415 $416 forward $177 $-1 #
coedge $-1 $417 $179 $414 $418 forward $113 $-1 #
coedge $-1 $179 $417 $419 $420 forward $113 $-1 #
coedge $-1 $294 $293 $179 $287 reversed $295 $-1 #
edge $-1 $421 -27.776430301703343 $422 27.776430301703343 $286 $423 forward 7 unknown #
coedge $-1 $181 $180 $424 $425 forward $71 $-1 #
coedge $-1 $426 $427 $180 $290 reversed $411 $-1 #
edge $-1 $297 -41.054719687490461 $428 41.054719687490461 $289 $429 forward 7 unknown #
coedge $-1 $283 $430 $181 $292 reversed $177 $-1 #
edge $-1 $431 -41.054719687490461 $296 41.054719687490461 $291 $432 forward 7 unknown #
coedge $-1 $286 $182 $430 $433 forward $295 $-1 #
coedge $-1 $182 $286 $426 $434 reversed $295 $-1 #
loop $-1 $-1 $293 $410 #
vertex $-1 $183 $435 #
vertex $-1 $183 $436 #
straight-curve $-1 41.054719687490461 0 11.859595644793556 0 1 0 I I #
face $-1 $437 $438 $43 $-1 $439 reversed single #
loop $-1 $-1 $440 $184 #
plane-surface $-1 -41.054719687490461 0 0 1 0 0 0 0 -1 forward_v I I I I #
coedge $-1 $441 $442 $304 $443 reversed $185 $-1 #
coedge $-1 $444 $187 $445 $446 reversed $117 $-1 #
coedge $-1 $187 $444 $302 $443 forward $117 $-1 #
coedge $-1 $313 $312 $187 $306 forward $314 $-1 #
edge $-1 $447 -17.104356376353778 $448 -4.2397914743453526 $305 $449 forward 7 unknown #
coedge $-1 $189 $188 $440 $450 reversed $74 $-1 #
coedge $-1 $442 $441 $188 $309 reversed $185 $-1 #
edge $-1 $315 -41.054719687490461 $451 41.054719687490461 $308 $452 forward 7 unknown #
coedge $-1 $453 $454 $189 $311 forward $438 $-1 #
edge $-1 $316 -41.054719687490461 $455 41.054719687490461 $310 $456 forward 7 unknown #
coedge $-1 $305 $190 $454 $457 forward $314 $-1 #
coedge $-1 $190 $305 $442 $458 forward $314 $-1 #
loop $-1 $-1 $190 $437 #
vertex $-1 $191 $459 #
vertex $-1 $457 $460 #
straight-curve $-1 41.054719687490461 -10.672073925349565 8.6283906546360836 0 -1 0 I I #
face $-1 $-1 $330 $44 $-1 $461 forward single #
loop $-1 $-1 $462 $192 #
plane-surface $-1 -41.054719687490461 0 0 1 0 0 0 0 -1 forward_v I I I I #
coedge $-1 $463 $464 $465 $466 reversed $193 $-1 #
coedge $-1 $467 $195 $197 $328 forward $121 $-1 #
coedge $-1 $195 $467 $463 $468 forward $121 $-1 #
coedge $-1 $465 $198 $195 $325 forward $330 $-1 #
edge $-1 $332 -6.8869338697557989 $469 -0.8182080287566702 $324 $470 forward 7 unknown #
coedge $-1 $471 $472 $196 $327 forward $319 $-1 #
edge $-1 $473 -21.871027884680828 $331 -16.820994186788887 $326 $474 forward 7 unknown #
edge $-1 $332 -6.408584682225257 $473 0 $197 $475 forward 7 unknown #
coedge $-1 $198 $465 $471 $476 forward $330 $-1 #
loop $-1 $-1 $465 $318 #
vertex $-1 $327 $477 #
vertex $-1 $199 $478 #
straight-curve $-1 -52.878920782680019 -10.739504819012033 11.859595644793558 1 0 0 I I #
coedge $-1 $334 $334 $-1 $479 reversed $202 $-1 #
edge $-1 $480 0 $480 6.2831853071796004 $203 $481 forward 7 unknown #
vertex $-1 $206 $482 #
ellipse-curve $-1 -39.081960371240243 -7.7051418985124691 9.3345787958475892 -0.78801076186113728 0 0.61566146476048833 0.61566146476048833 0 0.78801076186113728 1 I I #
face $-1 $-1 $483 $46 $-1 $484 reversed single #
loop $-1 $-1 $213 $207 #
plane-surface $-1 0 0 11.859595644793556 0 0 1 1 0 0 forward_v I I I I #
coedge $-1 $485 $486 $487 $488 reversed $208 $-1 #
coedge $-1 $489 $210 $212 $348 forward $130 $-1 #
coedge $-1 $210 $489 $485 $490 forward $130 $-1 #
coedge $-1 $487 $213 $210 $345 forward $339 $-1 #
edge $-1 $351 3.785140055593768 $491 9.8538658965928967 $344 $492 forward 7 unknown #
coedge $-1 $493 $494 $211 $347 forward $483 $-1 #
edge $-1 $495 -21.871027884680828 $350 -16.820994186788887 $346 $496 forward 7 unknown #
edge $-1 $351 -6.408584682225257 $495 0 $212 $497 forward 7 unknown #
coedge $-1 $213 $487 $493 $498 forward $339 $-1 #
vertex $-1 $214 $499 #
vertex $-1 $214 $500 #
straight-curve $-1 -52.878920782680019 10.6046430316871 11.859595644793558 1 0 0 I I #
coedge $-1 $353 $353 $-1 $501 reversed $217 $-1 #
edge $-1 $502 0 $502 6.2831853071796004 $218 $503 forward 7 unknown #
vertex $-1 $221 $504 #
ellipse-curve $-1 -39.081960371240243 13.639005952186665 9.3345787958475892 -0.78801076186113728 0 0.61566146476048833 0.61566146476048833 0 0.78801076186113728 1 I I #
face $-1 $-1 $505 $48 $-1 $506 reversed single #
loop $-1 $-1 $507 $222 #
plane-surface $-1 0 -14.911865399694918 6.6638318240939238 0 -1 0 0 0 -1 forward_v I I I I #
coedge $-1 $508 $225 $227 $366 forward $139 $-1 #
coedge $-1 $225 $508 $507 $509 forward $139 $-1 #
coedge $-1 $510 $228 $225 $363 forward $223 $-1 #
edge $-1 $369 -0.48524287719248349 $511 10.10299122552744 $362 $512 forward 7 unknown #
coedge $-1 $513 $514 $226 $365 forward $505 $-1 #
edge $-1 $515 -56.068881189668538 $368 -47.74993329927949 $364 $516 forward 7 unknown #
edge $-1 $369 69.167454086562515 $515 82.109439374980894 $227 $517 forward 7 unknown #
coedge $-1 $228 $510 $513 $518 forward $223 $-1 #
vertex $-1 $229 $519 #
vertex $-1 $229 $520 #
straight-curve $-1 15.467085694126425 -4.3236312969749946 11.859595644793558 -1 0 0 I I #
coedge $-1 $371 $371 $-1 $521 reversed $232 $-1 #
edge $-1 $522 0 $522 6.2831853071796004 $233 $523 forward 7 unknown #
vertex $-1 $236 $524 #
ellipse-curve $-1 36.097651773828467 -12.794218579150932 7.7001216995990305 0.64278761758704617 0 0.76604443648966558 0.1915111091224164 0 -0.16069690439676154 1 I I #
coedge $-1 $375 $375 $-1 $525 reversed $239 $-1 #
edge $-1 $526 0 $526 6.2831853071796004 $240 $527 forward 7 unknown #
vertex $-1 $243 $528 #
ellipse-curve $-1 36.097651773828467 -9.6177483483349562 7.7001216995990305 0.64278761758704617 0 0.76604443648966558 0.1915111091224164 0 -0.16069690439676154 1 I I #
coedge $-1 $379 $379 $-1 $529 reversed $246 $-1 #
edge $-1 $530 0 $530 6.2831853071796004 $247 $531 forward 7 unknown #
vertex $-1 $250 $532 #
ellipse-curve $-1 36.097651773828467 -6.4412781175189799 7.7001216995990305 0.64278761758704617 0 0.76604443648966558 0.1915111091224164 0 -0.16069690439676154 1 I I #
face $-1 $-1 $533 $52 $-1 $534 reversed single #
loop $-1 $-1 $257 $251 #
plane-surface $-1 0 0 11.859595644793556 0 0 1 1 0 0 forward_v I I I I #
coedge $-1 $535 $536 $537 $538 reversed $252 $-1 #
coedge $-1 $539 $254 $256 $393 forward $158 $-1 #
coedge $-1 $254 $539 $535 $540 forward $158 $-1 #
coedge $-1 $537 $257 $254 $390 forward $384 $-1 #
edge $-1 $396 -11.157316802542049 $541 -0.56908269982212545 $389 $542 forward 7 unknown #
coedge $-1 $543 $544 $255 $392 forward $533 $-1 #
edge $-1 $545 -56.068881189668538 $395 -47.74993329927949 $391 $546 forward 7 unknown #
edge $-1 $396 69.167454086562515 $545 82.109439374980894 $256 $547 forward 7 unknown #
coedge $-1 $257 $537 $543 $548 forward $384 $-1 #
vertex $-1 $258 $549 #
vertex $-1 $258 $550 #
straight-curve $-1 15.467085694126425 17.020516553724136 11.859595644793558 -1 0 0 I I #
coedge $-1 $398 $398 $-1 $551 reversed $261 $-1 #
edge $-1 $552 0 $552 6.2831853071796004 $262 $553 forward 7 unknown #
vertex $-1 $265 $554 #
ellipse-curve $-1 36.097651773828467 8.5499292715481943 7.7001216995990305 0.64278761758704617 0 0.76604443648966558 0.1915111091224164 0 -0.16069690439676154 1 I I #
coedge $-1 $402 $402 $-1 $555 reversed $268 $-1 #
edge $-1 $556 0 $556 6.2831853071796004 $269 $557 forward 7 unknown #
vertex $-1 $272 $558 #
ellipse-curve $-1 36.097651773828467 11.726399502364174 7.7001216995990305 0.64278761758704617 0 0.76604443648966558 0.1915111091224164 0 -0.16069690439676154 1 I I #
coedge $-1 $406 $406 $-1 $559 reversed $275 $-1 #
edge $-1 $560 0 $560 6.2831853071796004 $276 $561 forward 7 unknown #
vertex $-1 $279 $562 #
ellipse-curve $-1 36.097651773828467 14.902869733180154 7.7001216995990305 0.64278761758704617 0 0.76604443648966558 0.1915111091224164 0 -0.16069690439676154 1 I I #
face $-1 $-1 $295 $42 $-1 $563 reversed single #
loop $-1 $-1 $426 $280 #
plane-surface $-1 0 27.776430301703343 0 0 -1 0 0 0 -1 forward_v I I I I #
coedge $-1 $564 $424 $427 $565 forward $281 $-1 #
coedge $-1 $430 $283 $284 $418 reversed $177 $-1 #
coedge $-1 $424 $564 $283 $416 reversed $281 $-1 #
edge $-1 $431 -11.859595644793556 $566 11.859595644793556 $415 $567 forward 7 unknown #
coedge $-1 $285 $284 $564 $568 forward $113 $-1 #
edge $-1 $422 -41.054719687490461 $566 41.054719687490461 $414 $569 forward 7 unknown #
coedge $-1 $427 $426 $285 $420 reversed $411 $-1 #
edge $-1 $570 -41.054719687490461 $421 41.054719687490461 $419 $571 forward 7 unknown #
vertex $-1 $287 $572 #
vertex $-1 $433 $573 #
straight-curve $-1 41.054719687490461 0 -11.859595644793556 0 -1 0 I I #
coedge $-1 $413 $415 $288 $425 reversed $281 $-1 #
edge $-1 $428 -27.776430301703343 $431 27.776430301703343 $424 $574 forward 7 unknown #
coedge $-1 $419 $289 $294 $434 forward $411 $-1 #
coedge $-1 $289 $419 $413 $565 reversed $411 $-1 #
vertex $-1 $290 $575 #
straight-curve $-1 0 27.776430301703343 11.859595644793556 -1 0 0 I I #
coedge $-1 $291 $414 $293 $433 reversed $177 $-1 #
vertex $-1 $425 $576 #
straight-curve $-1 0 -27.776430301703343 11.859595644793556 1 0 0 I I #
edge $-1 $296 -11.859595644793556 $422 11.859595644793556 $293 $577 forward 7 unknown #
edge $-1 $297 -11.859595644793556 $421 11.859595644793556 $294 $578 forward 7 unknown #
point $-1 41.054719687490461 -27.776430301703343 11.859595644793556 #
point $-1 41.054719687490461 27.776430301703343 11.859595644793556 #
face $-1 $-1 $314 $43 $-1 $579 reversed single #
loop $-1 $-1 $310 $299 #
plane-surface $-1 0 -27.776430301703343 0 0 1 0 0 0 1 forward_v I I I I #
coedge $-1 $580 $581 $307 $450 forward $300 $-1 #
coedge $-1 $308 $302 $580 $582 reversed $185 $-1 #
coedge $-1 $302 $308 $313 $458 reversed $185 $-1 #
edge $-1 $583 -41.054719687490461 $448 41.054719687490461 $302 $584 forward 7 unknown #
coedge $-1 $304 $303 $585 $586 reversed $117 $-1 #
coedge $-1 $454 $453 $303 $446 forward $438 $-1 #
edge $-1 $587 -41.054719687490461 $447 41.054719687490461 $445 $588 forward 7 unknown #
vertex $-1 $446 $589 #
vertex $-1 $306 $590 #
straight-curve $-1 41.054719687490461 -10.672073925349565 4.6992729935517641 0 1 0 I I #
edge $-1 $455 -17.104356376353778 $451 -4.2397914743453526 $440 $591 forward 7 unknown #
vertex $-1 $450 $592 #
straight-curve $-1 0 -14.911865399694918 8.6283906546360836 -1 0 0 I I #
coedge $-1 $445 $310 $581 $593 forward $438 $-1 #
coedge $-1 $310 $445 $312 $457 reversed $438 $-1 #
vertex $-1 $593 $594 #
straight-curve $-1 0 -27.776430301703343 8.6283906546360836 -1 0 0 I I #
edge $-1 $316 -8.6283906546360836 $447 -4.6992729935517641 $312 $595 forward 7 unknown #
edge $-1 $448 1.3673570815048022 $315 5.2964747425891217 $313 $596 forward 7 unknown #
point $-1 41.054719687490461 -14.911865399694918 8.6283906546360836 #
point $-1 41.054719687490461 -27.776430301703343 8.6283906546360836 #
plane-surface $-1 0 0 11.859595644793556 0 0 1 1 0 0 forward_v I I I I #
coedge $-1 $472 $471 $464 $597 forward $319 $-1 #
coedge $-1 $464 $321 $323 $468 reversed $193 $-1 #
coedge $-1 $321 $463 $462 $597 reversed $193 $-1 #
coedge $-1 $329 $324 $321 $466 forward $330 $-1 #
edge $-1 $469 -15.769719727689989 $598 -11.824201095189558 $465 $599 forward 7 unknown #
coedge $-1 $323 $322 $472 $600 reversed $121 $-1 #
edge $-1 $601 0 $469 6.408584682225257 $463 $602 forward 7 unknown #
vertex $-1 $325 $603 #
straight-curve $-1 -37.109201054990031 -3.8525709492562346 11.859595644793554 0 1 0 I I #
coedge $-1 $462 $326 $329 $476 reversed $319 $-1 #
coedge $-1 $326 $462 $467 $600 forward $319 $-1 #
vertex $-1 $327 $604 #
straight-curve $-1 -41.054719687490461 -10.739504819012033 28.680589831582445 0 0 1 I I #
straight-curve $-1 -41.054719687490461 -10.739504819012033 6.8095619469016171 -0.61566146476048833 0 -0.78801076186113728 I I #
edge $-1 $598 4.6707789780129048 $331 10.739504819012033 $471 $605 forward 7 unknown #
point $-1 -41.054719687490461 -10.739504819012033 11.859595644793556 #
point $-1 -37.109201054990031 -10.739504819012033 11.859595644793556 #
edge $-1 $606 1 $606 0 $334 $-1 forward 7 unknown #
vertex $-1 $335 $607 #
ellipse-curve $-1 -36.622742484428578 -7.7051418985124691 7.4132272615312758 -0.78801076186113728 0 0.61566146476048833 0.61566146476048833 0 0.78801076186113728 1 I I #
point $-1 -38.466298906479764 -7.7051418985124691 10.122589557708729 #
loop $-1 $-1 $346 $338 #
plane-surface $-1 -41.054719687490461 0 0 1 0 0 0 0 -1 forward_v I I I I #
coedge $-1 $486 $341 $343 $490 reversed $208 $-1 #
coedge $-1 $341 $485 $608 $609 reversed $208 $-1 #
coedge $-1 $349 $344 $341 $488 forward $339 $-1 #
edge $-1 $491 -15.769719727689989 $610 -11.824201095189558 $487 $611 forward 7 unknown #
coedge $-1 $343 $342 $494 $612 reversed $130 $-1 #
edge $-1 $613 0 $491 6.408584682225257 $485 $614 forward 7 unknown #
vertex $-1 $345 $615 #
straight-curve $-1 -37.109201054990031 6.8195029760933323 11.859595644793554 0 1 0 I I #
coedge $-1 $608 $346 $349 $498 reversed $483 $-1 #
coedge $-1 $346 $608 $489 $612 forward $483 $-1 #
vertex $-1 $347 $616 #
straight-curve $-1 -41.054719687490461 10.6046430316871 28.680589831582445 0 0 1 I I #
straight-curve $-1 -41.054719687490461 10.6046430316871 6.8095619469016171 -0.61566146476048833 0 -0.78801076186113728 I I #
edge $-1 $610 -16.673368872686229 $350 -10.6046430316871 $493 $617 forward 7 unknown #
point $-1 -41.054719687490461 10.6046430316871 11.859595644793556 #
point $-1 -37.109201054990031 10.6046430316871 11.859595644793556 #
edge $-1 $618 1 $618 0 $353 $-1 forward 7 unknown #
vertex $-1 $354 $619 #
ellipse-curve $-1 -36.622742484428578 13.639005952186665 7.4132272615312758 -0.78801076186113728 0 0.61566146476048833 0.61566146476048833 0 0.78801076186113728 1 I I #
point $-1 -38.466298906479764 13.639005952186665 10.122589557708729 #
loop $-1 $-1 $364 $357 #
plane-surface $-1 41.054719687490461 0 0 -1 0 0 0 0 1 forward_v I I I I #
coedge $-1 $620 $621 $361 $509 reversed $358 $-1 #
coedge $-1 $361 $360 $514 $622 reversed $139 $-1 #
edge $-1 $623 -82.109439374980894 $511 -69.167454086562515 $507 $624 forward 7 unknown #
coedge $-1 $367 $362 $621 $625 forward $223 $-1 #
vertex $-1 $625 $626 #
straight-curve $-1 31.140583860166451 -4.8088741741674781 11.859595644793558 0 -1 0 I I #
coedge $-1 $627 $364 $367 $518 reversed $505 $-1 #
coedge $-1 $364 $627 $508 $622 forward $505 $-1 #
vertex $-1 $365 $628 #
straight-curve $-1 41.054719687490461 -4.3236312969749946 59.609528944073048 0 0 1 I I #
straight-curve $-1 -21.844759528999141 -4.3236312969749946 56.31957867165648 0.76604443648966558 0 -0.64278761758704617 I I #
edge $-1 $629 -14.911865399694918 $368 -4.3236312969749946 $513 $630 forward 7 unknown #
point $-1 41.054719687490461 -4.3236312969749946 11.859595644793556 #
point $-1 31.140583860166458 -4.3236312969749946 11.859595644793558 #
edge $-1 $631 1 $631 0 $371 $-1 forward 7 unknown #
vertex $-1 $372 $632 #
ellipse-curve $-1 35.454864156241413 -12.794218579150932 6.9340772631093532 0.64278761758704617 0 0.76604443648966558 0.1915111091224164 0 -0.16069690439676154 1 I I #
point $-1 36.289162882950876 -12.794218579150932 7.5394247952022573 #
edge $-1 $633 1 $633 0 $375 $-1 forward 7 unknown #
vertex $-1 $376 $634 #
ellipse-curve $-1 35.454864156241413 -9.6177483483349562 6.9340772631093532 0.64278761758704617 0 0.76604443648966558 0.1915111091224164 0 -0.16069690439676154 1 I I #
point $-1 36.289162882950876 -9.6177483483349562 7.5394247952022573 #
edge $-1 $635 1 $635 0 $379 $-1 forward 7 unknown #
vertex $-1 $380 $636 #
ellipse-curve $-1 35.454864156241413 -6.4412781175189799 6.9340772631093532 0.64278761758704617 0 0.76604443648966558 0.1915111091224164 0 -0.16069690439676154 1 I I #
point $-1 36.289162882950876 -6.4412781175189799 7.5394247952022573 #
loop $-1 $-1 $391 $383 #
plane-surface $-1 41.054719687490461 0 0 -1 0 0 0 0 1 forward_v I I I I #
coedge $-1 $536 $386 $388 $540 reversed $252 $-1 #
coedge $-1 $386 $535 $637 $638 reversed $252 $-1 #
coedge $-1 $394 $389 $386 $538 forward $384 $-1 #
edge $-1 $541 15.673498166040034 $639 25.587633993364037 $537 $640 forward 7 unknown #
coedge $-1 $388 $387 $544 $641 reversed $158 $-1 #
edge $-1 $642 -82.109439374980894 $541 -69.167454086562515 $535 $643 forward 7 unknown #
vertex $-1 $390 $644 #
straight-curve $-1 31.140583860166451 5.863199751182087 11.859595644793558 0 -1 0 I I #
coedge $-1 $637 $391 $394 $548 reversed $533 $-1 #
coedge $-1 $391 $637 $539 $641 forward $533 $-1 #
vertex $-1 $392 $645 #
straight-curve $-1 41.054719687490461 17.020516553724136 59.609528944073048 0 0 1 I I #
straight-curve $-1 -21.844759528999141 17.020516553724136 56.31957867165648 0.76604443648966558 0 -0.64278761758704617 I I #
edge $-1 $639 6.4322824510042125 $395 17.020516553724136 $543 $646 forward 7 unknown #
point $-1 41.054719687490461 17.020516553724136 11.859595644793556 #
point $-1 31.140583860166458 17.020516553724136 11.859595644793558 #
edge $-1 $647 1 $647 0 $398 $-1 forward 7 unknown #
vertex $-1 $399 $648 #
ellipse-curve $-1 35.454864156241413 8.5499292715481943 6.9340772631093532 0.64278761758704617 0 0.76604443648966558 0.1915111091224164 0 -0.16069690439676154 1 I I #
point $-1 36.289162882950876 8.5499292715481943 7.5394247952022573 #
edge $-1 $649 1 $649 0 $402 $-1 forward 7 unknown #
vertex $-1 $403 $650 #
ellipse-curve $-1 35.454864156241413 11.726399502364174 6.9340772631093532 0.64278761758704617 0 0.76604443648966558 0.1915111091224164 0 -0.16069690439676154 1 I I #
point $-1 36.289162882950876 11.726399502364174 7.5394247952022573 #
edge $-1 $651 1 $651 0 $406 $-1 forward 7 unknown #
vertex $-1 $407 $652 #
ellipse-curve $-1 35.454864156241413 14.902869733180154 6.9340772631093532 0.64278761758704617 0 0.76604443648966558 0.1915111091224164 0 -0.16069690439676154 1 I I #
point $-1 36.289162882950876 14.902869733180154 7.5394247952022573 #
plane-surface $-1 41.054719687490461 0 0 -1 0 0 0 0 1 forward_v I I I I #
coedge $-1 $415 $413 $417 $568 reversed $281 $-1 #
edge $-1 $428 -11.859595644793556 $570 11.859595644793556 $427 $653 forward 7 unknown #
vertex $-1 $568 $654 #
straight-curve $-1 -41.054719687490461 -27.776430301703343 0 0 0 -1 I I #
edge $-1 $566 -27.776430301703343 $570 27.776430301703343 $564 $655 forward 7 unknown #
straight-curve $-1 0 -27.776430301703343 -11.859595644793556 -1 0 0 I I #
vertex $-1 $420 $656 #
straight-curve $-1 0 27.776430301703343 -11.859595644793556 1 0 0 I I #
point $-1 41.054719687490461 27.776430301703343 -11.859595644793556 #
point $-1 41.054719687490461 -27.776430301703343 -11.859595644793556 #
straight-curve $-1 -41.054719687490461 0 11.859595644793556 0 -1 0 I I #
point $-1 -41.054719687490461 27.776430301703343 11.859595644793556 #
point $-1 -41.054719687490461 -27.776430301703343 11.859595644793556 #
straight-curve $-1 41.054719687490461 -27.776430301703343 0 0 0 -1 I I #
straight-curve $-1 41.054719687490461 27.776430301703343 0 0 0 -1 I I #
plane-surface $-1 41.054719687490461 0 0 -1 0 0 0 0 1 forward_v I I I I #
coedge $-1 $585 $440 $441 $582 forward $300 $-1 #
coedge $-1 $440 $585 $453 $593 reversed $300 $-1 #
edge $-1 $451 -5.2964747425891217 $583 -1.3673570815048022 $580 $657 forward 7 unknown #
vertex $-1 $586 $658 #
straight-curve $-1 0 -14.911865399694918 4.6992729935517641 1 0 0 I I #
coedge $-1 $581 $580 $444 $586 forward $300 $-1 #
edge $-1 $583 4.2397914743453526 $587 17.104356376353778 $585 $659 forward 7 unknown #
vertex $-1 $446 $660 #
straight-curve $-1 0 -27.776430301703343 4.6992729935517641 1 0 0 I I #
point $-1 41.054719687490461 -27.776430301703343 4.6992729935517641 #
point $-1 41.054719687490461 -14.911865399694918 4.6992729935517641 #
straight-curve $-1 -41.054719687490461 -10.672073925349565 8.6283906546360836 0 1 0 I I #
point $-1 -41.054719687490461 -14.911865399694918 8.6283906546360836 #
edge $-1 $455 -8.6283906546360836 $587 -4.6992729935517641 $581 $661 forward 7 unknown #
point $-1 -41.054719687490461 -27.776430301703343 8.6283906546360836 #
straight-curve $-1 41.054719687490461 -27.776430301703343 0 0 0 -1 I I #
straight-curve $-1 41.054719687490461 -14.911865399694918 3.3319159120469619 0 0 1 I I #
edge $-1 $598 16.820994186788887 $601 21.871027884680828 $462 $662 forward 7 unknown #
vertex $-1 $476 $663 #
straight-curve $-1 -52.878920782680019 -4.6707789780129048 11.859595644793558 -1 0 0 I I #
edge $-1 $601 0.8182080287566702 $473 6.8869338697557989 $472 $664 forward 7 unknown #
vertex $-1 $600 $665 #
straight-curve $-1 -41.054719687490461 -4.6707789780129048 6.8095619469016171 0.61566146476048833 0 0.78801076186113728 I I #
point $-1 -37.109201054990031 -4.6707789780129048 11.859595644793556 #
point $-1 -41.054719687490461 -10.739504819012033 6.8095619469016171 #
straight-curve $-1 -41.054719687490461 0 11.859595644793556 0 -1 0 I I #
vertex $-1 $479 $666 #
point $-1 -36.007081019668092 -7.7051418985124691 8.2012380233924134 #
coedge $-1 $494 $493 $486 $609 forward $483 $-1 #
edge $-1 $610 16.820994186788887 $613 21.871027884680828 $608 $667 forward 7 unknown #
vertex $-1 $498 $668 #
straight-curve $-1 -52.878920782680019 16.673368872686229 11.859595644793558 -1 0 0 I I #
edge $-1 $613 -9.8538658965928967 $495 -3.785140055593768 $494 $669 forward 7 unknown #
vertex $-1 $612 $670 #
straight-curve $-1 -41.054719687490461 16.673368872686229 6.8095619469016171 0.61566146476048833 0 0.78801076186113728 I I #
point $-1 -37.109201054990031 16.673368872686229 11.859595644793556 #
point $-1 -41.054719687490461 10.6046430316871 6.8095619469016171 #
straight-curve $-1 -41.054719687490461 0 11.859595644793556 0 -1 0 I I #
vertex $-1 $501 $671 #
point $-1 -36.007081019668092 13.639005952186665 8.2012380233924134 #
coedge $-1 $621 $507 $627 $672 reversed $358 $-1 #
coedge $-1 $507 $620 $510 $625 reversed $358 $-1 #
edge $-1 $623 -10.10299122552744 $515 0.48524287719248349 $514 $673 forward 7 unknown #
vertex $-1 $672 $674 #
straight-curve $-1 -21.844759528999141 -14.911865399694918 56.31957867165648 -0.76604443648966558 0 0.64278761758704617 I I #
edge $-1 $511 15.673498166040034 $629 25.587633993364037 $510 $675 forward 7 unknown #
point $-1 31.140583860166458 -14.911865399694918 11.859595644793558 #
coedge $-1 $514 $513 $620 $672 forward $505 $-1 #
point $-1 41.054719687490454 -4.3236312969749946 3.5406477544045103 #
vertex $-1 $518 $676 #
straight-curve $-1 41.054719687490461 0 11.859595644793556 0 1 0 I I #
vertex $-1 $521 $677 #
point $-1 35.646375265363829 -12.794218579150932 6.7733803587125916 #
vertex $-1 $525 $678 #
point $-1 35.646375265363829 -9.6177483483349562 6.7733803587125916 #
vertex $-1 $529 $679 #
point $-1 35.646375265363829 -6.4412781175189799 6.7733803587125916 #
coedge $-1 $544 $543 $536 $638 forward $533 $-1 #
edge $-1 $639 47.74993329927949 $642 56.068881189668538 $637 $680 forward 7 unknown #
vertex $-1 $548 $681 #
straight-curve $-1 15.467085694126425 6.4322824510042125 11.859595644793558 1 0 0 I I #
edge $-1 $642 0.56908269982212545 $545 11.157316802542049 $544 $682 forward 7 unknown #
vertex $-1 $641 $683 #
straight-curve $-1 -21.844759528999141 6.4322824510042125 56.31957867165648 -0.76604443648966558 0 0.64278761758704617 I I #
point $-1 31.140583860166458 6.4322824510042125 11.859595644793558 #
point $-1 41.054719687490454 17.020516553724136 3.5406477544045103 #
straight-curve $-1 41.054719687490461 0 11.859595644793556 0 1 0 I I #
vertex $-1 $551 $684 #
point $-1 35.646375265363829 8.5499292715481943 6.7733803587125916 #
vertex $-1 $555 $685 #
point $-1 35.646375265363829 11.726399502364174 6.7733803587125916 #
vertex $-1 $559 $686 #
point $-1 35.646375265363829 14.902869733180154 6.7733803587125916 #
straight-curve $-1 -41.054719687490461 27.776430301703343 0 0 0 -1 I I #
point $-1 -41.054719687490461 -27.776430301703343 -11.859595644793556 #
straight-curve $-1 -41.054719687490461 0 -11.859595644793556 0 1 0 I I #
point $-1 -41.054719687490461 27.776430301703343 -11.859595644793556 #
straight-curve $-1 -41.054719687490461 -14.911865399694918 3.3319159120469619 0 0 -1 I I #
point $-1 -41.054719687490461 -14.911865399694918 4.6992729935517641 #
straight-curve $-1 -41.054719687490461 -10.672073925349565 4.6992729935517641 0 -1 0 I I #
point $-1 -41.054719687490461 -27.776430301703343 4.6992729935517641 #
straight-curve $-1 -41.054719687490461 -27.776430301703343 0 0 0 -1 I I #
straight-curve $-1 -41.054719687490461 -4.6707789780129048 28.680589831582445 0 0 -1 I I #
point $-1 -41.054719687490461 -4.6707789780129048 11.859595644793556 #
straight-curve $-1 -41.054719687490461 -3.8525709492562346 6.8095619469016153 0 -1 0 I I #
point $-1 -41.054719687490461 -4.6707789780129048 6.8095619469016171 #
point $-1 -35.834731722567447 -7.7051418985124691 6.7975657967707868 #
straight-curve $-1 -41.054719687490461 16.673368872686229 28.680589831582445 0 0 -1 I I #
point $-1 -41.054719687490461 16.673368872686229 11.859595644793556 #
straight-curve $-1 -41.054719687490461 6.8195029760933323 6.8095619469016153 0 -1 0 I I #
point $-1 -41.054719687490461 16.673368872686229 6.8095619469016171 #
point $-1 -35.834731722567447 13.639005952186665 6.7975657967707868 #
edge $-1 $629 47.74993329927949 $623 56.068881189668538 $627 $687 forward 7 unknown #
straight-curve $-1 41.054719687490454 -4.8088741741674781 3.5406477544045067 0 1 0 I I #
point $-1 41.054719687490454 -14.911865399694918 3.5406477544045103 #
straight-curve $-1 15.467085694126425 -14.911865399694918 11.859595644793558 1 0 0 I I #
point $-1 41.054719687490461 -14.911865399694918 11.859595644793556 #
point $-1 35.294167251844655 -12.794218579150932 6.742566153986937 #
point $-1 35.294167251844655 -9.6177483483349562 6.742566153986937 #
point $-1 35.294167251844655 -6.4412781175189799 6.742566153986937 #
straight-curve $-1 41.054719687490461 6.4322824510042125 59.609528944073048 0 0 -1 I I #
point $-1 41.054719687490461 6.4322824510042125 11.859595644793556 #
straight-curve $-1 41.054719687490454 5.863199751182087 3.5406477544045067 0 1 0 I I #
point $-1 41.054719687490454 6.4322824510042125 3.5406477544045103 #
point $-1 35.294167251844655 8.5499292715481943 6.742566153986937 #
point $-1 35.294167251844655 11.726399502364174 6.742566153986937 #
point $-1 35.294167251844655 14.902869733180154 6.742566153986937 #
straight-curve $-1 41.054719687490461 -14.911865399694918 59.609528944073048 0 0 -1 I I #
End-of-ACIS-data 