500 0 8 0           
7 Unknown 11 ACIS 5.0 NT 24 Thu Mar 25 16:53:33 1999 
-1 9.9999999999999995e-007 1e-010 
body $-1 $8 $-1 $9 #
body $-1 $10 $-1 $11 #
body $-1 $12 $-1 $13 #
body $-1 $14 $-1 $15 #
body $-1 $16 $-1 $17 #
body $-1 $18 $-1 $19 #
body $-1 $20 $-1 $21 #
body $-1 $22 $-1 $23 #
lump $-1 $-1 $24 $0 #
transform $-1 1 0 0 0 1 0 0 0 1 79.822992645039221 55.067803919808831 22.263244082976275 1 rotate no_reflect no_shear #
lump $-1 $-1 $25 $1 #
transform $-1 1 0 0 0 1 0 0 0 1 79.822992645039221 55.067803919808831 22.263244082976275 1 rotate no_reflect no_shear #
lump $-1 $-1 $26 $2 #
transform $-1 1 0 0 0 1 0 0 0 1 79.822992645039221 55.067803919808831 22.263244082976275 1 rotate no_reflect no_shear #
lump $-1 $-1 $27 $3 #
transform $-1 1 0 0 0 1 0 0 0 1 79.822992645039221 55.067803919808831 22.263244082976275 1 rotate no_reflect no_shear #
lump $-1 $-1 $28 $4 #
transform $-1 1 0 0 0 1 0 0 0 1 79.822992645039221 55.067803919808831 22.263244082976275 1 rotate no_reflect no_shear #
lump $-1 $-1 $29 $5 #
transform $-1 1 0 0 0 1 0 0 0 1 79.822992645039221 55.067803919808831 22.263244082976275 1 rotate no_reflect no_shear #
lump $-1 $-1 $30 $6 #
transform $-1 1 0 0 0 1 0 0 0 1 79.822992645039221 55.067803919808831 22.263244082976275 1 rotate no_reflect no_shear #
lump $-1 $-1 $31 $7 #
transform $-1 1 0 0 0 1 0 0 0 1 79.822992645039221 55.067803919808831 22.263244082976275 1 rotate no_reflect no_shear #
shell $-1 $-1 $-1 $32 $-1 $8 #
shell $-1 $-1 $-1 $33 $-1 $10 #
shell $-1 $-1 $-1 $34 $-1 $12 #
shell $-1 $-1 $-1 $35 $-1 $14 #
shell $-1 $-1 $-1 $36 $-1 $16 #
shell $-1 $-1 $-1 $37 $-1 $18 #
shell $-1 $-1 $-1 $38 $-1 $20 #
shell $-1 $-1 $-1 $39 $-1 $22 #
face $-1 $40 $41 $24 $-1 $42 forward single #
face $-1 $43 $44 $25 $-1 $45 forward single #
face $-1 $46 $47 $26 $-1 $48 reversed single #
face $-1 $49 $50 $27 $-1 $51 forward single #
face $-1 $52 $53 $28 $-1 $54 forward single #
face $-1 $55 $56 $29 $-1 $57 reversed single #
face $-1 $58 $59 $30 $-1 $60 forward single #
face $-1 $61 $62 $31 $-1 $63 forward single #
face $-1 $64 $65 $24 $-1 $66 reversed single #
loop $-1 $-1 $67 $32 #
plane-surface $-1 0 0 22.263244082976275 0 0 1 1 0 0 forward_v I I I I #
face $-1 $68 $69 $25 $-1 $70 reversed single #
loop $-1 $-1 $71 $33 #
plane-surface $-1 0 -47.181022355913207 18.962501785805742 0 0 1 1 0 0 forward_v I I I I #
face $-1 $72 $73 $26 $-1 $74 reversed single #
loop $-1 $-1 $75 $34 #
plane-surface $-1 -20.645479615807048 -32.101535906782644 131.03938027655056 0.77714596973225614 0 0.62932038083071107 0.62932038083071107 0 -0.77714596973225614 forward_v I I I I #
face $-1 $76 $77 $27 $-1 $78 forward single #
loop $-1 $79 $80 $35 #
cone-surface $-1 72.401173654637503 -35.18412371474048 13.621022494841787 -0.77714596973225614 0 -0.62932038083071107 1.2586407616614221 0 -1.5542919394645123 1 I I 0 1 2 forward I I I I #
face $-1 $81 $82 $28 $-1 $83 forward single #
loop $-1 $84 $85 $36 #
cone-surface $-1 72.401173654637503 -29.018948098824819 13.621022494841787 -0.77714596973225614 0 -0.62932038083071107 1.2586407616614221 0 -1.5542919394645123 1 I I 0 1 2 forward I I I I #
face $-1 $86 $87 $29 $-1 $88 reversed single #
loop $-1 $-1 $89 $37 #
plane-surface $-1 -200.30934851080326 -34.667366282548251 120.61009699071884 0 1 0 -0.75470958851134928 0 0.65605901945558964 forward_v I I I I #
face $-1 $90 $91 $30 $-1 $92 forward single #
loop $-1 $93 $94 $38 #
cone-surface $-1 -76.134921697840923 -29.377852208380265 18.27654375813254 0.75470958851134928 0 -0.65605901945558964 0.98408852918338452 0 1.132064382767024 1 I I 0 1 1.5 forward I I I I #
face $-1 $95 $96 $31 $-1 $97 forward single #
loop $-1 $98 $99 $39 #
cone-surface $-1 -76.134921697840923 -21.443581097128281 18.27654375813254 0.75470958851134928 0 -0.65605901945558964 0.98408852918338452 0 1.132064382767024 1 I I 0 1 1.5 forward I I I I #
face $-1 $100 $101 $24 $-1 $102 reversed single #
loop $-1 $-1 $103 $40 #
plane-surface $-1 0 0 -22.263244082976275 0 0 1 1 0 0 forward_v I I I I #
coedge $-1 $104 $105 $106 $107 forward $41 $-1 #
face $-1 $108 $109 $25 $-1 $110 reversed single #
loop $-1 $-1 $111 $43 #
plane-surface $-1 0 -47.181022355913207 8.0978321232415649 0 0 1 1 0 0 forward_v I I I I #
coedge $-1 $112 $113 $114 $115 reversed $44 $-1 #
face $-1 $116 $117 $26 $-1 $118 forward single #
loop $-1 $-1 $119 $46 #
plane-surface $-1 103.42275443631246 -24.908831021547705 231.50785253739684 0 -1 0 -0.77714596973225614 0 -0.62932038083071107 forward_v I I I I #
coedge $-1 $120 $121 $122 $123 reversed $47 $-1 #
face $-1 $-1 $124 $27 $-1 $125 forward single #
loop $-1 $126 $127 $49 #
cone-surface $-1 70.393856867983573 -35.18412371474048 11.995529455149192 -0.77714596973225614 0 -0.62932038083071107 0.62932038083071107 0 -0.77714596973225614 1 I I -0.70710678118654746 0.70710678118654746 1 forward I I I I #
loop $-1 $-1 $128 $35 #
coedge $-1 $80 $80 $129 $130 reversed $50 $-1 #
face $-1 $-1 $131 $28 $-1 $132 forward single #
loop $-1 $133 $134 $52 #
cone-surface $-1 70.393856867983573 -29.018948098824819 11.995529455149192 -0.77714596973225614 0 -0.62932038083071107 0.62932038083071107 0 -0.77714596973225614 1 I I -0.70710678118654746 0.70710678118654746 1 forward I I I I #
loop $-1 $-1 $135 $36 #
coedge $-1 $85 $85 $136 $137 reversed $53 $-1 #
face $-1 $138 $139 $29 $-1 $140 reversed single #
loop $-1 $-1 $141 $55 #
plane-surface $-1 -79.822992645039236 -25.410716652754274 15.8729084212885 -0.75470958851134928 0 0.65605901945558964 0.65605901945558964 0 0.75470958851134928 forward_v I I I I #
coedge $-1 $142 $143 $144 $145 reversed $56 $-1 #
face $-1 $-1 $146 $30 $-1 $147 forward single #
loop $-1 $148 $149 $58 #
cone-surface $-1 -74.658335508837354 -29.377852208380265 16.992966999541007 0.75470958851134928 0 -0.65605901945558964 0.49204426459169226 0 0.56603219138351202 1 I I -0.70710678118654757 0.70710678118654757 0.75 forward I I I I #
loop $-1 $-1 $150 $38 #
coedge $-1 $94 $94 $151 $152 reversed $59 $-1 #
face $-1 $-1 $153 $31 $-1 $154 forward single #
loop $-1 $155 $156 $61 #
cone-surface $-1 -74.658335508837354 -21.443581097128281 16.992966999541007 0.75470958851134928 0 -0.65605901945558964 0.49204426459169226 0 0.56603219138351202 1 I I -0.70710678118654757 0.70710678118654757 0.75 forward I I I I #
loop $-1 $-1 $157 $39 #
coedge $-1 $99 $99 $158 $159 reversed $62 $-1 #
face $-1 $160 $161 $24 $-1 $162 reversed single #
loop $-1 $-1 $163 $64 #
plane-surface $-1 0 -55.067803919808831 0 0 1 0 0 0 1 forward_v I I I I #
coedge $-1 $164 $165 $166 $167 forward $65 $-1 #
coedge $-1 $168 $67 $169 $170 forward $41 $-1 #
coedge $-1 $67 $168 $171 $172 forward $41 $-1 #
coedge $-1 $173 $174 $67 $107 reversed $175 $-1 #
edge $-1 $176 -55.067803919808831 $177 55.067803919808831 $106 $178 forward 7 unknown #
face $-1 $179 $180 $25 $-1 $181 reversed single #
loop $-1 $-1 $182 $68 #
plane-surface $-1 0 -39.294240792017582 13.530166954523654 0 -1 0 0 0 -1 forward_v I I I I #
coedge $-1 $183 $184 $185 $186 reversed $69 $-1 #
coedge $-1 $187 $71 $188 $189 forward $44 $-1 #
coedge $-1 $71 $187 $190 $191 reversed $44 $-1 #
coedge $-1 $192 $193 $71 $115 forward $194 $-1 #
edge $-1 $195 15.703729614060979 $196 31.477292741852228 $114 $197 forward 7 unknown #
face $-1 $198 $199 $26 $-1 $200 reversed single #
loop $-1 $-1 $201 $72 #
plane-surface $-1 0 -39.294240792017582 13.530166954523654 0 -1 0 0 0 -1 forward_v I I I I #
coedge $-1 $202 $203 $204 $205 reversed $73 $-1 #
coedge $-1 $206 $75 $201 $207 forward $47 $-1 #
coedge $-1 $75 $206 $202 $208 forward $47 $-1 #
coedge $-1 $204 $209 $75 $123 forward $199 $-1 #
edge $-1 $210 -23.243472838626261 $211 -8.8580630681563832 $122 $212 forward 7 unknown #
loop $-1 $-1 $129 $76 #
plane-surface $-1 -20.645479615807048 -32.101535906782644 131.03938027655056 0.77714596973225614 0 0.62932038083071107 0.62932038083071107 0 -0.77714596973225614 forward_v I I I I #
loop $-1 $-1 $213 $49 #
coedge $-1 $127 $127 $128 $214 reversed $77 $-1 #
coedge $-1 $128 $128 $127 $214 forward $79 $-1 #
coedge $-1 $129 $129 $80 $130 forward $124 $-1 #
edge $-1 $215 0 $215 6.2831853071796004 $129 $216 forward 7 unknown #
loop $-1 $-1 $136 $81 #
plane-surface $-1 -20.645479615807048 -32.101535906782644 131.03938027655056 0.77714596973225614 0 0.62932038083071107 0.62932038083071107 0 -0.77714596973225614 forward_v I I I I #
loop $-1 $-1 $217 $52 #
coedge $-1 $134 $134 $135 $218 reversed $82 $-1 #
coedge $-1 $135 $135 $134 $218 forward $84 $-1 #
coedge $-1 $136 $136 $85 $137 forward $131 $-1 #
edge $-1 $219 0 $219 6.2831853071796004 $136 $220 forward 7 unknown #
face $-1 $221 $222 $29 $-1 $223 forward single #
loop $-1 $-1 $224 $86 #
plane-surface $-1 -200.30934851080326 -16.154067022960298 120.61009699071884 0 -1 0 0.75470958851134928 0 -0.65605901945558964 forward_v I I I I #
coedge $-1 $225 $226 $227 $228 reversed $87 $-1 #
coedge $-1 $143 $89 $229 $230 reversed $56 $-1 #
coedge $-1 $89 $142 $225 $231 reversed $56 $-1 #
coedge $-1 $227 $232 $89 $145 forward $222 $-1 #
edge $-1 $233 20.331681610362409 $234 25.886715509518851 $144 $235 forward 7 unknown #
loop $-1 $-1 $151 $90 #
plane-surface $-1 -79.822992645039236 -25.410716652754274 15.8729084212885 -0.75470958851134928 0 0.65605901945558964 0.65605901945558964 0 0.75470958851134928 forward_v I I I I #
loop $-1 $-1 $236 $58 #
coedge $-1 $149 $149 $150 $237 reversed $91 $-1 #
coedge $-1 $150 $150 $149 $237 forward $93 $-1 #
coedge $-1 $151 $151 $94 $152 forward $146 $-1 #
edge $-1 $238 0 $238 6.2831853071796004 $151 $239 forward 7 unknown #
loop $-1 $-1 $158 $95 #
plane-surface $-1 -79.822992645039236 -25.410716652754274 15.8729084212885 -0.75470958851134928 0 0.65605901945558964 0.65605901945558964 0 0.75470958851134928 forward_v I I I I #
loop $-1 $-1 $240 $61 #
coedge $-1 $156 $156 $157 $241 reversed $96 $-1 #
coedge $-1 $157 $157 $156 $241 forward $98 $-1 #
coedge $-1 $158 $158 $99 $159 forward $153 $-1 #
edge $-1 $242 0 $242 6.2831853071796004 $158 $243 forward 7 unknown #
face $-1 $244 $245 $24 $-1 $246 reversed single #
loop $-1 $-1 $247 $100 #
plane-surface $-1 -79.822992645039221 0 0 1 0 0 0 0 -1 forward_v I I I I #
coedge $-1 $248 $171 $249 $250 forward $101 $-1 #
coedge $-1 $251 $103 $248 $252 forward $65 $-1 #
coedge $-1 $103 $251 $253 $254 forward $65 $-1 #
coedge $-1 $174 $173 $103 $167 reversed $175 $-1 #
edge $-1 $255 -55.067803919808831 $256 55.067803919808831 $166 $257 forward 7 unknown #
coedge $-1 $105 $104 $258 $259 forward $41 $-1 #
coedge $-1 $260 $261 $104 $170 reversed $245 $-1 #
edge $-1 $177 -79.822992645039221 $262 79.822992645039221 $169 $263 forward 7 unknown #
coedge $-1 $163 $264 $105 $172 reversed $101 $-1 #
edge $-1 $265 -79.822992645039221 $176 79.822992645039221 $171 $266 forward 7 unknown #
coedge $-1 $166 $106 $264 $267 forward $175 $-1 #
coedge $-1 $106 $166 $260 $268 reversed $175 $-1 #
loop $-1 $-1 $173 $244 #
vertex $-1 $107 $269 #
vertex $-1 $107 $270 #
straight-curve $-1 79.822992645039221 0 22.263244082976275 0 1 0 I I #
face $-1 $271 $272 $25 $-1 $273 reversed single #
loop $-1 $-1 $274 $108 #
plane-surface $-1 -79.822992645039221 0 0 1 0 0 0 0 -1 forward_v I I I I #
coedge $-1 $275 $188 $193 $276 reversed $109 $-1 #
coedge $-1 $277 $111 $278 $279 reversed $69 $-1 #
coedge $-1 $111 $277 $275 $280 forward $69 $-1 #
coedge $-1 $193 $192 $111 $186 forward $194 $-1 #
edge $-1 $281 -31.477292741852228 $282 -15.703729614060979 $185 $283 forward 7 unknown #
coedge $-1 $113 $112 $274 $284 reversed $44 $-1 #
coedge $-1 $182 $285 $112 $189 reversed $109 $-1 #
edge $-1 $195 -79.822992645039221 $286 79.822992645039221 $188 $287 forward 7 unknown #
coedge $-1 $288 $289 $113 $191 forward $272 $-1 #
edge $-1 $196 -79.822992645039221 $290 79.822992645039221 $190 $291 forward 7 unknown #
coedge $-1 $185 $114 $289 $292 forward $194 $-1 #
coedge $-1 $114 $185 $182 $276 forward $194 $-1 #
loop $-1 $-1 $114 $271 #
vertex $-1 $115 $293 #
vertex $-1 $292 $294 #
straight-curve $-1 79.822992645039221 -23.590511177956603 18.962501785805742 0 -1 0 I I #
face $-1 $-1 $295 $26 $-1 $296 forward single #
loop $-1 $-1 $209 $116 #
plane-surface $-1 79.822992645039221 0 0 -1 0 0 0 0 1 forward_v I I I I #
coedge $-1 $297 $298 $120 $207 reversed $117 $-1 #
coedge $-1 $203 $119 $121 $208 reversed $73 $-1 #
coedge $-1 $119 $202 $299 $300 reversed $73 $-1 #
coedge $-1 $301 $122 $119 $205 forward $199 $-1 #
edge $-1 $211 -108.78278004426737 $302 -93.49068218572215 $204 $303 forward 7 unknown #
coedge $-1 $121 $120 $304 $305 reversed $47 $-1 #
edge $-1 $210 -159.64598529007844 $306 -139.9687322975503 $201 $307 forward 7 unknown #
edge $-1 $308 139.9687322975503 $211 159.64598529007844 $202 $309 forward 7 unknown #
coedge $-1 $122 $301 $297 $310 forward $199 $-1 #
vertex $-1 $123 $311 #
vertex $-1 $123 $312 #
straight-curve $-1 79.822992645039221 -16.050767953391322 6.9711462244310383 0 1 0 I I #
coedge $-1 $213 $213 $-1 $313 reversed $126 $-1 #
edge $-1 $314 0 $314 6.2831853071796004 $127 $315 forward 7 unknown #
vertex $-1 $130 $316 #
ellipse-curve $-1 73.631344471559174 -35.18412371474048 14.617195153703669 0.77714596973225614 0 0.62932038083071107 1.2586407616614221 0 -1.5542919394645123 1 I I #
coedge $-1 $217 $217 $-1 $317 reversed $133 $-1 #
edge $-1 $318 0 $318 6.2831853071796004 $134 $319 forward 7 unknown #
vertex $-1 $137 $320 #
ellipse-curve $-1 73.631344471559174 -29.018948098824819 14.617195153703669 0.77714596973225614 0 0.62932038083071107 1.2586407616614221 0 -1.5542919394645123 1 I I #
face $-1 $-1 $321 $29 $-1 $322 reversed single #
loop $-1 $-1 $144 $138 #
plane-surface $-1 0 0 22.263244082976275 0 0 1 1 0 0 forward_v I I I I #
coedge $-1 $323 $324 $325 $326 reversed $139 $-1 #
coedge $-1 $327 $141 $143 $231 forward $87 $-1 #
coedge $-1 $141 $327 $323 $328 forward $87 $-1 #
coedge $-1 $325 $144 $141 $228 forward $222 $-1 #
edge $-1 $234 -21.962007956171114 $329 -3.4487086965831608 $227 $330 forward 7 unknown #
coedge $-1 $331 $332 $142 $230 forward $321 $-1 #
edge $-1 $333 -44.432140074070908 $233 -38.041804412383144 $229 $334 forward 7 unknown #
edge $-1 $234 -8.4672776906049307 $333 -2.1388861263899031e-014 $143 $335 forward 7 unknown #
coedge $-1 $144 $325 $331 $336 forward $222 $-1 #
vertex $-1 $230 $337 #
vertex $-1 $145 $338 #
straight-curve $-1 -100.15467425540163 -34.667366282548251 22.263244082976271 1 0 0 I I #
coedge $-1 $236 $236 $-1 $339 reversed $148 $-1 #
edge $-1 $340 0 $340 6.2831853071796004 $149 $341 forward 7 unknown #
vertex $-1 $152 $342 #
ellipse-curve $-1 -77.045475695460993 -29.377852208380265 19.068076252132396 -0.75470958851134928 0 0.65605901945558964 0.98408852918338452 0 1.132064382767024 1 I I #
coedge $-1 $240 $240 $-1 $343 reversed $155 $-1 #
edge $-1 $344 0 $344 6.2831853071796004 $156 $345 forward 7 unknown #
vertex $-1 $159 $346 #
ellipse-curve $-1 -77.045475695460993 -21.443581097128281 19.068076252132396 -0.75470958851134928 0 0.65605901945558964 0.98408852918338452 0 1.132064382767024 1 I I #
face $-1 $-1 $175 $24 $-1 $347 reversed single #
loop $-1 $-1 $260 $160 #
plane-surface $-1 0 55.067803919808831 0 0 -1 0 0 0 -1 forward_v I I I I #
coedge $-1 $348 $258 $261 $349 forward $161 $-1 #
coedge $-1 $264 $163 $164 $252 reversed $101 $-1 #
coedge $-1 $258 $348 $163 $250 reversed $161 $-1 #
edge $-1 $265 -22.263244082976275 $350 22.263244082976275 $249 $351 forward 7 unknown #
coedge $-1 $165 $164 $348 $352 forward $65 $-1 #
edge $-1 $256 -79.822992645039221 $350 79.822992645039221 $248 $353 forward 7 unknown #
coedge $-1 $261 $260 $165 $254 reversed $245 $-1 #
edge $-1 $354 -79.822992645039221 $255 79.822992645039221 $253 $355 forward 7 unknown #
vertex $-1 $167 $356 #
vertex $-1 $267 $357 #
straight-curve $-1 79.822992645039221 0 -22.263244082976275 0 -1 0 I I #
coedge $-1 $247 $249 $168 $259 reversed $161 $-1 #
edge $-1 $262 -55.067803919808831 $265 55.067803919808831 $258 $358 forward 7 unknown #
coedge $-1 $253 $169 $174 $268 forward $245 $-1 #
coedge $-1 $169 $253 $247 $349 reversed $245 $-1 #
vertex $-1 $170 $359 #
straight-curve $-1 0 55.067803919808831 22.263244082976275 -1 0 0 I I #
coedge $-1 $171 $248 $173 $267 reversed $101 $-1 #
vertex $-1 $259 $360 #
straight-curve $-1 0 -55.067803919808831 22.263244082976275 1 0 0 I I #
edge $-1 $176 -22.263244082976275 $256 22.263244082976275 $173 $361 forward 7 unknown #
edge $-1 $177 -22.263244082976275 $255 22.263244082976275 $174 $362 forward 7 unknown #
point $-1 79.822992645039221 -55.067803919808831 22.263244082976275 #
point $-1 79.822992645039221 55.067803919808831 22.263244082976275 #
face $-1 $-1 $194 $25 $-1 $363 reversed single #
loop $-1 $-1 $190 $179 #
plane-surface $-1 0 -55.067803919808831 0 0 1 0 0 0 1 forward_v I I I I #
coedge $-1 $364 $365 $187 $284 forward $180 $-1 #
coedge $-1 $285 $182 $184 $280 reversed $109 $-1 #
edge $-1 $282 1.3327486459797377 $195 12.197418308543915 $193 $366 forward 7 unknown #
coedge $-1 $184 $183 $367 $368 reversed $69 $-1 #
coedge $-1 $289 $288 $183 $279 forward $272 $-1 #
edge $-1 $369 -79.822992645039221 $281 79.822992645039221 $278 $370 forward 7 unknown #
edge $-1 $371 -79.822992645039221 $282 79.822992645039221 $275 $372 forward 7 unknown #
vertex $-1 $279 $373 #
vertex $-1 $186 $374 #
straight-curve $-1 79.822992645039221 -23.590511177956603 8.0978321232415649 0 1 0 I I #
edge $-1 $290 -31.477292741852228 $286 -15.703729614060979 $274 $375 forward 7 unknown #
coedge $-1 $188 $275 $364 $376 reversed $109 $-1 #
vertex $-1 $284 $377 #
straight-curve $-1 0 -39.294240792017582 18.962501785805742 -1 0 0 I I #
coedge $-1 $278 $190 $365 $378 forward $272 $-1 #
coedge $-1 $190 $278 $192 $292 reversed $272 $-1 #
vertex $-1 $378 $379 #
straight-curve $-1 0 -55.067803919808831 18.962501785805742 -1 0 0 I I #
edge $-1 $196 -18.962501785805742 $281 -8.0978321232415649 $192 $380 forward 7 unknown #
point $-1 79.822992645039221 -39.294240792017582 18.962501785805742 #
point $-1 79.822992645039221 -55.067803919808831 18.962501785805742 #
loop $-1 $-1 $381 $198 #
plane-surface $-1 0 0 22.263244082976275 0 0 1 1 0 0 forward_v I I I I #
coedge $-1 $298 $201 $209 $310 reversed $117 $-1 #
coedge $-1 $201 $297 $381 $382 reversed $117 $-1 #
coedge $-1 $304 $383 $203 $300 forward $295 $-1 #
edge $-1 $302 -28.111615426882992 $308 -15.728319079922926 $299 $384 forward 7 unknown #
coedge $-1 $209 $204 $383 $385 reversed $199 $-1 #
vertex $-1 $205 $386 #
straight-curve $-1 79.822992645039221 -24.908831021547705 115.75392626869842 0 0 1 I I #
coedge $-1 $381 $299 $206 $305 forward $295 $-1 #
edge $-1 $308 8.8580630681563832 $306 23.243472838626261 $304 $387 forward 7 unknown #
vertex $-1 $382 $388 #
straight-curve $-1 -20.645479615807048 -39.294240792017582 131.03938027655056 -0.62932038083071107 0 0.77714596973225614 I I #
vertex $-1 $305 $389 #
straight-curve $-1 -20.645479615807048 -24.908831021547705 131.03938027655056 0.62932038083071107 0 -0.77714596973225614 I I #
edge $-1 $390 93.49068218572215 $210 108.78278004426737 $209 $391 forward 7 unknown #
point $-1 79.822992645039221 -39.294240792017582 6.9711462244310525 #
point $-1 79.822992645039221 -24.908831021547705 6.9711462244310525 #
edge $-1 $392 1 $392 0 $213 $-1 forward 7 unknown #
vertex $-1 $214 $393 #
ellipse-curve $-1 71.171002837715832 -35.18412371474048 12.624849835979903 0.77714596973225614 0 0.62932038083071107 1.2586407616614221 0 -1.5542919394645123 1 I I #
point $-1 74.889985233220614 -35.18412371474048 13.062903214239158 #
edge $-1 $394 1 $394 0 $217 $-1 forward 7 unknown #
vertex $-1 $218 $395 #
ellipse-curve $-1 71.171002837715832 -29.018948098824819 12.624849835979903 0.77714596973225614 0 0.62932038083071107 1.2586407616614221 0 -1.5542919394645123 1 I I #
point $-1 74.889985233220614 -29.018948098824819 13.062903214239158 #
loop $-1 $-1 $229 $221 #
plane-surface $-1 -79.822992645039221 0 0 1 0 0 0 0 -1 forward_v I I I I #
coedge $-1 $324 $224 $226 $328 reversed $139 $-1 #
coedge $-1 $224 $323 $396 $397 reversed $139 $-1 #
coedge $-1 $232 $227 $224 $326 forward $222 $-1 #
edge $-1 $329 -25.886715509518851 $398 -20.331681610362409 $325 $399 forward 7 unknown #
coedge $-1 $226 $225 $332 $400 reversed $87 $-1 #
edge $-1 $401 2.1388861263899031e-014 $329 8.4672776906049307 $323 $402 forward 7 unknown #
vertex $-1 $228 $403 #
straight-curve $-1 -74.26795874588278 -12.705358326377137 22.263244082976271 0 1 0 I I #
coedge $-1 $396 $229 $232 $336 reversed $321 $-1 #
coedge $-1 $229 $396 $327 $400 forward $321 $-1 #
vertex $-1 $230 $404 #
straight-curve $-1 -79.822992645039221 -34.667366282548251 60.305048495359422 0 0 1 I I #
straight-curve $-1 -79.822992645039236 -34.667366282548251 15.8729084212885 -0.65605901945558964 0 -0.75470958851134928 I I #
edge $-1 $398 16.154067022960298 $233 34.667366282548251 $331 $405 forward 7 unknown #
point $-1 -79.822992645039221 -34.667366282548251 22.263244082976275 #
point $-1 -74.26795874588278 -34.667366282548251 22.263244082976275 #
edge $-1 $406 1 $406 0 $236 $-1 forward 7 unknown #
vertex $-1 $237 $407 #
ellipse-curve $-1 -75.224367700220867 -29.377852208380265 17.485011264132698 -0.75470958851134928 0 0.65605901945558964 0.98408852918338452 0 1.132064382767024 1 I I #
point $-1 -76.061387166277584 -29.377852208380265 20.200140634899402 #
edge $-1 $408 1 $408 0 $240 $-1 forward 7 unknown #
vertex $-1 $241 $409 #
ellipse-curve $-1 -75.224367700220867 -21.443581097128281 17.485011264132698 -0.75470958851134928 0 0.65605901945558964 0.98408852918338452 0 1.132064382767024 1 I I #
point $-1 -76.061387166277584 -21.443581097128281 20.200140634899402 #
plane-surface $-1 79.822992645039221 0 0 -1 0 0 0 0 1 forward_v I I I I #
coedge $-1 $249 $247 $251 $352 reversed $161 $-1 #
edge $-1 $262 -22.263244082976275 $354 22.263244082976275 $261 $410 forward 7 unknown #
vertex $-1 $352 $411 #
straight-curve $-1 -79.822992645039221 -55.067803919808831 0 0 0 -1 I I #
edge $-1 $350 -55.067803919808831 $354 55.067803919808831 $348 $412 forward 7 unknown #
straight-curve $-1 0 -55.067803919808831 -22.263244082976275 -1 0 0 I I #
vertex $-1 $254 $413 #
straight-curve $-1 0 55.067803919808831 -22.263244082976275 1 0 0 I I #
point $-1 79.822992645039221 55.067803919808831 -22.263244082976275 #
point $-1 79.822992645039221 -55.067803919808831 -22.263244082976275 #
straight-curve $-1 -79.822992645039221 0 22.263244082976275 0 -1 0 I I #
point $-1 -79.822992645039221 55.067803919808831 22.263244082976275 #
point $-1 -79.822992645039221 -55.067803919808831 22.263244082976275 #
straight-curve $-1 79.822992645039221 -55.067803919808831 0 0 0 -1 I I #
straight-curve $-1 79.822992645039221 55.067803919808831 0 0 0 -1 I I #
plane-surface $-1 79.822992645039221 0 0 -1 0 0 0 0 1 forward_v I I I I #
coedge $-1 $367 $274 $285 $376 forward $180 $-1 #
coedge $-1 $274 $367 $288 $378 reversed $180 $-1 #
straight-curve $-1 79.822992645039221 -39.294240792017582 6.7650834772618271 0 0 1 I I #
coedge $-1 $365 $364 $277 $368 forward $180 $-1 #
edge $-1 $371 15.703729614060979 $369 31.477292741852228 $367 $414 forward 7 unknown #
vertex $-1 $279 $415 #
straight-curve $-1 0 -55.067803919808831 8.0978321232415649 1 0 0 I I #
vertex $-1 $368 $416 #
straight-curve $-1 0 -39.294240792017582 8.0978321232415649 1 0 0 I I #
point $-1 79.822992645039221 -55.067803919808831 8.0978321232415649 #
point $-1 79.822992645039221 -39.294240792017582 8.0978321232415649 #
straight-curve $-1 -79.822992645039221 -23.590511177956603 18.962501785805742 0 1 0 I I #
edge $-1 $286 -12.197418308543915 $371 -1.3327486459797377 $364 $417 forward 7 unknown #
point $-1 -79.822992645039221 -39.294240792017582 18.962501785805742 #
edge $-1 $290 -18.962501785805742 $369 -8.0978321232415649 $365 $418 forward 7 unknown #
point $-1 -79.822992645039221 -55.067803919808831 18.962501785805742 #
straight-curve $-1 79.822992645039221 -55.067803919808831 0 0 0 -1 I I #
coedge $-1 $383 $304 $298 $382 forward $295 $-1 #
edge $-1 $306 15.728319079922926 $390 28.111615426882992 $381 $419 forward 7 unknown #
coedge $-1 $299 $381 $301 $385 forward $295 $-1 #
straight-curve $-1 51.71137721815623 -24.908831021547705 22.263244082976271 -1 0 0 I I #
edge $-1 $390 -39.294240792017582 $302 -24.908831021547705 $301 $420 forward 7 unknown #
point $-1 79.822992645039221 -24.908831021547705 22.263244082976275 #
straight-curve $-1 67.439696298079156 -16.050767953391322 22.263244082976271 0 -1 0 I I #
point $-1 67.439696298079156 -39.294240792017582 22.263244082976271 #
point $-1 67.439696298079156 -24.908831021547705 22.263244082976271 #
vertex $-1 $385 $421 #
straight-curve $-1 79.822992645039221 -39.294240792017582 115.75392626869842 0 0 -1 I I #
vertex $-1 $313 $422 #
point $-1 72.429643599377258 -35.18412371474048 11.070557896515391 #
vertex $-1 $317 $423 #
point $-1 72.429643599377258 -29.018948098824819 11.070557896515391 #
coedge $-1 $332 $331 $324 $397 forward $321 $-1 #
edge $-1 $398 38.041804412383144 $401 44.432140074070908 $396 $424 forward 7 unknown #
vertex $-1 $336 $425 #
straight-curve $-1 -100.15467425540163 -16.154067022960298 22.263244082976271 -1 0 0 I I #
edge $-1 $401 3.4487086965831608 $333 21.962007956171114 $332 $426 forward 7 unknown #
vertex $-1 $400 $427 #
straight-curve $-1 -79.822992645039236 -16.154067022960298 15.8729084212885 0.65605901945558964 0 0.75470958851134928 I I #
point $-1 -74.26795874588278 -16.154067022960298 22.263244082976275 #
point $-1 -79.822992645039221 -34.667366282548251 15.872908421288516 #
straight-curve $-1 -79.822992645039221 0 22.263244082976275 0 -1 0 I I #
vertex $-1 $339 $428 #
point $-1 -74.240279171037486 -29.377852208380265 18.617075646899725 #
vertex $-1 $343 $429 #
point $-1 -74.240279171037486 -21.443581097128281 18.617075646899725 #
straight-curve $-1 -79.822992645039221 55.067803919808831 0 0 0 -1 I I #
point $-1 -79.822992645039221 -55.067803919808831 -22.263244082976275 #
straight-curve $-1 -79.822992645039221 0 -22.263244082976275 0 1 0 I I #
point $-1 -79.822992645039221 55.067803919808831 -22.263244082976275 #
straight-curve $-1 -79.822992645039221 -23.590511177956603 8.0978321232415649 0 -1 0 I I #
point $-1 -79.822992645039221 -55.067803919808831 8.0978321232415649 #
point $-1 -79.822992645039221 -39.294240792017582 8.0978321232415649 #
straight-curve $-1 -79.822992645039221 -39.294240792017582 6.7650834772618271 0 0 -1 I I #
straight-curve $-1 -79.822992645039221 -55.067803919808831 0 0 0 -1 I I #
straight-curve $-1 51.71137721815623 -39.294240792017582 22.263244082976271 1 0 0 I I #
straight-curve $-1 79.822992645039221 0 22.263244082976275 0 1 0 I I #
point $-1 79.822992645039221 -39.294240792017582 22.263244082976275 #
point $-1 69.616710898251313 -35.18412371474048 11.366209074318482 #
point $-1 69.616710898251313 -29.018948098824819 11.366209074318482 #
straight-curve $-1 -79.822992645039221 -16.154067022960298 60.305048495359422 0 0 -1 I I #
point $-1 -79.822992645039221 -16.154067022960298 22.263244082976275 #
straight-curve $-1 -79.822992645039221 -12.705358326377137 15.872908421288511 0 -1 0 I I #
point $-1 -79.822992645039221 -16.154067022960298 15.872908421288516 #
point $-1 -74.09230331745384 -29.377852208380265 16.500922734949317 #
point $-1 -74.09230331745384 -21.443581097128281 16.500922734949317 #
End-of-ACIS-data 