500 0 6 0           
7 Unknown 11 ACIS 5.0 NT 24 Thu Mar 25 19:34:46 1999 
-1 9.9999999999999995e-007 1e-010 
body $-1 $6 $-1 $7 #
body $-1 $8 $-1 $9 #
body $-1 $10 $-1 $11 #
body $-1 $12 $-1 $13 #
body $-1 $14 $-1 $15 #
body $-1 $16 $-1 $17 #
lump $-1 $-1 $18 $0 #
transform $-1 1 0 0 0 1 0 0 0 1 65.945616016113775 27.113032758796447 12.452119735727285 1 rotate no_reflect no_shear #
lump $-1 $-1 $19 $1 #
transform $-1 1 0 0 0 1 0 0 0 1 65.945616016113775 27.113032758796447 12.452119735727285 1 rotate no_reflect no_shear #
lump $-1 $-1 $20 $2 #
transform $-1 1 0 0 0 1 0 0 0 1 65.945616016113775 27.113032758796447 12.452119735727285 1 rotate no_reflect no_shear #
lump $-1 $-1 $21 $3 #
transform $-1 1 0 0 0 1 0 0 0 1 65.945616016113775 27.113032758796447 12.452119735727285 1 rotate no_reflect no_shear #
lump $-1 $-1 $22 $4 #
transform $-1 1 0 0 0 1 0 0 0 1 65.945616016113775 27.113032758796447 12.452119735727285 1 rotate no_reflect no_shear #
lump $-1 $-1 $23 $5 #
transform $-1 1 0 0 0 1 0 0 0 1 65.945616016113775 27.113032758796447 12.452119735727285 1 rotate no_reflect no_shear #
shell $-1 $-1 $-1 $24 $-1 $6 #
shell $-1 $-1 $-1 $25 $-1 $8 #
shell $-1 $-1 $-1 $26 $-1 $10 #
shell $-1 $-1 $-1 $27 $-1 $12 #
shell $-1 $-1 $-1 $28 $-1 $14 #
shell $-1 $-1 $-1 $29 $-1 $16 #
face $-1 $30 $31 $18 $-1 $32 forward single #
face $-1 $33 $34 $19 $-1 $35 forward single #
face $-1 $36 $37 $20 $-1 $38 reversed single #
face $-1 $39 $40 $21 $-1 $41 reversed single #
face $-1 $42 $43 $22 $-1 $44 forward single #
face $-1 $45 $46 $23 $-1 $47 forward single #
face $-1 $48 $49 $18 $-1 $50 reversed single #
loop $-1 $-1 $51 $24 #
plane-surface $-1 0 0 12.452119735727285 0 0 1 1 0 0 forward_v I I I I #
face $-1 $52 $53 $19 $-1 $54 reversed single #
loop $-1 $-1 $55 $25 #
plane-surface $-1 0 -27.113032758796447 0 0 1 0 0 0 1 forward_v I I I I #
face $-1 $56 $57 $20 $-1 $58 reversed single #
loop $-1 $-1 $59 $26 #
plane-surface $-1 0 22.600023851457539 7.6323243742895812 0 0 1 1 0 0 forward_v I I I I #
face $-1 $60 $61 $21 $-1 $62 reversed single #
loop $-1 $-1 $63 $27 #
plane-surface $-1 75.707444868808267 -1.1920401485299941 194.8029911654732 0 -1 0 -0.74314483375859142 0 -0.66913059716165679 forward_v I I I I #
face $-1 $64 $65 $22 $-1 $66 forward single #
loop $-1 $67 $68 $28 #
cone-surface $-1 63.670783939566597 -5.7924339869626529 10.033267857119124 -0.74314483375859142 0 -0.66913059716165679 0.3345652985808284 0 -0.37157241687929571 1 I I 0 1 0.5 forward I I I I #
face $-1 $69 $70 $23 $-1 $71 forward single #
loop $-1 $72 $73 $29 #
cone-surface $-1 63.670783939566597 -3.0321976839030569 10.033267857119124 -0.74314483375859142 0 -0.66913059716165679 0.3345652985808284 0 -0.37157241687929571 1 I I 0 1 0.5 forward I I I I #
face $-1 $74 $75 $18 $-1 $76 reversed single #
loop $-1 $-1 $77 $30 #
plane-surface $-1 0 0 -12.452119735727285 0 0 1 1 0 0 forward_v I I I I #
coedge $-1 $78 $79 $80 $81 forward $31 $-1 #
face $-1 $82 $83 $19 $-1 $84 forward single #
loop $-1 $-1 $85 $33 #
plane-surface $-1 -65.945616016113775 0 0 1 0 0 0 0 -1 forward_v I I I I #
coedge $-1 $86 $87 $88 $89 forward $34 $-1 #
face $-1 $90 $91 $20 $-1 $92 reversed single #
loop $-1 $-1 $93 $36 #
plane-surface $-1 0 18.087014944118636 10.042222055008432 0 1 0 0 0 1 forward_v I I I I #
coedge $-1 $94 $95 $96 $97 reversed $37 $-1 #
face $-1 $98 $99 $21 $-1 $100 reversed single #
loop $-1 $-1 $101 $39 #
plane-surface $-1 -22.30684283399728 -4.4123158354328567 106.55053231536215 0.74314483375859142 0 0.66913059716165679 0.66913059716165679 0 -0.74314483375859142 forward_v I I I I #
coedge $-1 $102 $103 $104 $105 reversed $40 $-1 #
face $-1 $-1 $106 $22 $-1 $107 forward single #
loop $-1 $108 $109 $42 #
cone-surface $-1 62.973100509637135 -5.7924339869626529 9.4050708908058969 -0.74314483375859142 0 -0.66913059716165679 0.1672826492904142 0 -0.18578620843964785 1 I I -0.70710678118654746 0.70710678118654746 0.25 forward I I I I #
loop $-1 $-1 $110 $28 #
coedge $-1 $68 $68 $111 $112 reversed $43 $-1 #
face $-1 $-1 $113 $23 $-1 $114 forward single #
loop $-1 $115 $116 $45 #
cone-surface $-1 62.973100509637135 -3.0321976839030569 9.4050708908058969 -0.74314483375859142 0 -0.66913059716165679 0.1672826492904142 0 -0.18578620843964785 1 I I -0.70710678118654746 0.70710678118654746 0.25 forward I I I I #
loop $-1 $-1 $117 $29 #
coedge $-1 $73 $73 $118 $119 reversed $46 $-1 #
face $-1 $120 $121 $18 $-1 $122 reversed single #
loop $-1 $-1 $123 $48 #
plane-surface $-1 0 -27.113032758796447 0 0 1 0 0 0 1 forward_v I I I I #
coedge $-1 $124 $125 $126 $127 forward $49 $-1 #
coedge $-1 $128 $51 $129 $130 forward $31 $-1 #
coedge $-1 $51 $128 $131 $132 forward $31 $-1 #
coedge $-1 $133 $134 $51 $81 reversed $135 $-1 #
edge $-1 $136 -27.113032758796447 $137 27.113032758796447 $80 $138 forward 7 unknown #
face $-1 $139 $140 $19 $-1 $141 reversed single #
loop $-1 $-1 $142 $52 #
plane-surface $-1 0 -34.221332169299792 3.5031474414949031 0 0 1 1 0 0 forward_v I I I I #
coedge $-1 $143 $144 $87 $145 forward $53 $-1 #
coedge $-1 $146 $55 $147 $148 reversed $34 $-1 #
coedge $-1 $55 $146 $85 $145 reversed $34 $-1 #
coedge $-1 $149 $142 $55 $89 reversed $83 $-1 #
edge $-1 $150 -65.945616016113775 $151 65.945616016113775 $88 $152 forward 7 unknown #
face $-1 $153 $154 $20 $-1 $155 reversed single #
loop $-1 $-1 $156 $56 #
plane-surface $-1 65.945616016113775 0 0 -1 0 0 0 0 1 forward_v I I I I #
coedge $-1 $157 $158 $159 $160 reversed $57 $-1 #
coedge $-1 $161 $59 $157 $162 forward $37 $-1 #
coedge $-1 $59 $161 $163 $164 reversed $37 $-1 #
coedge $-1 $165 $156 $59 $97 forward $91 $-1 #
edge $-1 $166 6.787003018389866 $167 15.813020833067673 $96 $168 forward 7 unknown #
face $-1 $169 $170 $21 $-1 $171 forward single #
loop $-1 $-1 $172 $60 #
plane-surface $-1 75.707444868808267 -7.6325915223357192 194.8029911654732 0 1 0 0.74314483375859142 0 0.66913059716165679 forward_v I I I I #
coedge $-1 $173 $174 $175 $176 reversed $61 $-1 #
coedge $-1 $103 $63 $177 $178 reversed $40 $-1 #
coedge $-1 $63 $102 $173 $179 reversed $40 $-1 #
coedge $-1 $175 $180 $63 $105 forward $170 $-1 #
edge $-1 $181 -28.091893581709641 $182 -24.566023871594908 $104 $183 forward 7 unknown #
loop $-1 $-1 $111 $64 #
plane-surface $-1 -22.30684283399728 -4.4123158354328567 106.55053231536215 0.74314483375859142 0 0.66913059716165679 0.66913059716165679 0 -0.74314483375859142 forward_v I I I I #
loop $-1 $-1 $184 $42 #
coedge $-1 $109 $109 $110 $185 reversed $65 $-1 #
coedge $-1 $110 $110 $109 $185 forward $67 $-1 #
coedge $-1 $111 $111 $68 $112 forward $106 $-1 #
edge $-1 $186 0 $186 6.2831853071796004 $111 $187 forward 7 unknown #
loop $-1 $-1 $118 $69 #
plane-surface $-1 -22.30684283399728 -4.4123158354328567 106.55053231536215 0.74314483375859142 0 0.66913059716165679 0.66913059716165679 0 -0.74314483375859142 forward_v I I I I #
loop $-1 $-1 $188 $45 #
coedge $-1 $116 $116 $117 $189 reversed $70 $-1 #
coedge $-1 $117 $117 $116 $189 forward $72 $-1 #
coedge $-1 $118 $118 $73 $119 forward $113 $-1 #
edge $-1 $190 0 $190 6.2831853071796004 $118 $191 forward 7 unknown #
face $-1 $192 $193 $18 $-1 $194 reversed single #
loop $-1 $-1 $195 $74 #
plane-surface $-1 -65.945616016113775 0 0 1 0 0 0 0 -1 forward_v I I I I #
coedge $-1 $196 $131 $197 $198 forward $75 $-1 #
coedge $-1 $199 $77 $196 $200 forward $49 $-1 #
coedge $-1 $77 $199 $201 $202 forward $49 $-1 #
coedge $-1 $134 $133 $77 $127 reversed $135 $-1 #
edge $-1 $203 -27.113032758796447 $204 27.113032758796447 $126 $205 forward 7 unknown #
coedge $-1 $79 $78 $206 $207 forward $31 $-1 #
coedge $-1 $208 $209 $78 $130 reversed $193 $-1 #
edge $-1 $137 -65.945616016113775 $210 65.945616016113775 $129 $211 forward 7 unknown #
coedge $-1 $123 $212 $79 $132 reversed $75 $-1 #
edge $-1 $213 -65.945616016113775 $136 65.945616016113775 $131 $214 forward 7 unknown #
coedge $-1 $126 $80 $212 $215 forward $135 $-1 #
coedge $-1 $80 $126 $208 $216 reversed $135 $-1 #
loop $-1 $-1 $133 $192 #
vertex $-1 $81 $217 #
vertex $-1 $81 $218 #
straight-curve $-1 65.945616016113775 0 12.452119735727285 0 1 0 I I #
face $-1 $219 $220 $19 $-1 $221 reversed single #
loop $-1 $-1 $222 $82 #
plane-surface $-1 0 -34.221332169299792 -2.1665249479581945 0 0 1 1 0 0 forward_v I I I I #
coedge $-1 $88 $223 $224 $225 forward $83 $-1 #
coedge $-1 $226 $85 $227 $228 reversed $53 $-1 #
coedge $-1 $85 $226 $149 $229 reversed $53 $-1 #
edge $-1 $150 -3.5031474414949031 $230 2.1665249479581945 $85 $231 forward 7 unknown #
coedge $-1 $87 $86 $232 $233 forward $34 $-1 #
coedge $-1 $224 $234 $86 $148 forward $235 $-1 #
edge $-1 $236 -2.1665249479581945 $151 3.5031474414949031 $147 $237 forward 7 unknown #
coedge $-1 $223 $88 $144 $229 forward $83 $-1 #
vertex $-1 $145 $238 #
vertex $-1 $225 $239 #
straight-curve $-1 0 -27.113032758796447 3.5031474414949031 1 0 0 I I #
face $-1 $240 $241 $20 $-1 $242 forward single #
loop $-1 $-1 $163 $90 #
plane-surface $-1 0 27.113032758796447 0 0 -1 0 0 0 -1 forward_v I I I I #
coedge $-1 $96 $243 $244 $245 forward $91 $-1 #
coedge $-1 $244 $93 $94 $162 reversed $57 $-1 #
coedge $-1 $93 $244 $246 $247 reversed $57 $-1 #
coedge $-1 $248 $249 $93 $160 forward $250 $-1 #
edge $-1 $251 2.6112133467853651 $252 7.4310087082230671 $159 $253 forward 7 unknown #
coedge $-1 $95 $94 $249 $254 reversed $37 $-1 #
edge $-1 $166 -65.945616016113775 $251 65.945616016113775 $157 $255 forward 7 unknown #
coedge $-1 $256 $257 $95 $164 forward $154 $-1 #
edge $-1 $167 -65.945616016113775 $258 65.945616016113775 $163 $259 forward 7 unknown #
coedge $-1 $243 $96 $257 $260 reversed $91 $-1 #
vertex $-1 $97 $261 #
vertex $-1 $164 $262 #
straight-curve $-1 65.945616016113775 11.30001192572877 7.6323243742895812 0 1 0 I I #
face $-1 $-1 $263 $21 $-1 $264 reversed single #
loop $-1 $-1 $104 $98 #
plane-surface $-1 0 0 12.452119735727285 0 0 1 1 0 0 forward_v I I I I #
coedge $-1 $265 $266 $267 $268 reversed $99 $-1 #
coedge $-1 $269 $101 $103 $179 forward $61 $-1 #
coedge $-1 $101 $269 $265 $270 forward $61 $-1 #
coedge $-1 $267 $104 $101 $176 forward $170 $-1 #
edge $-1 $182 -1.0141177691864343 $271 5.4264336046192909 $175 $272 forward 7 unknown #
coedge $-1 $273 $274 $102 $178 forward $263 $-1 #
edge $-1 $275 -88.86525097018 $181 -84.949375847009321 $177 $276 forward 7 unknown #
edge $-1 $182 126.62190236015618 $275 131.89123203222752 $103 $277 forward 7 unknown #
coedge $-1 $104 $267 $273 $278 forward $170 $-1 #
vertex $-1 $178 $279 #
vertex $-1 $105 $280 #
straight-curve $-1 37.853722434404133 -1.1920401485299941 12.45211973572728 -1 0 0 I I #
coedge $-1 $184 $184 $-1 $281 reversed $108 $-1 #
edge $-1 $282 0 $282 6.2831853071796004 $109 $283 forward 7 unknown #
vertex $-1 $112 $284 #
ellipse-curve $-1 64.182681161056408 -5.7924339869626529 10.494182174141928 0.74314483375859142 0 0.66913059716165679 0.3345652985808284 0 -0.37157241687929571 1 I I #
coedge $-1 $188 $188 $-1 $285 reversed $115 $-1 #
edge $-1 $286 0 $286 6.2831853071796004 $116 $287 forward 7 unknown #
vertex $-1 $119 $288 #
ellipse-curve $-1 64.182681161056408 -3.0321976839030569 10.494182174141928 0.74314483375859142 0 0.66913059716165679 0.3345652985808284 0 -0.37157241687929571 1 I I #
face $-1 $-1 $135 $18 $-1 $289 reversed single #
loop $-1 $-1 $208 $120 #
plane-surface $-1 0 27.113032758796447 0 0 -1 0 0 0 -1 forward_v I I I I #
coedge $-1 $290 $206 $209 $291 forward $121 $-1 #
coedge $-1 $212 $123 $124 $200 reversed $75 $-1 #
coedge $-1 $206 $290 $123 $198 reversed $121 $-1 #
edge $-1 $213 -12.452119735727285 $292 12.452119735727285 $197 $293 forward 7 unknown #
coedge $-1 $125 $124 $290 $294 forward $49 $-1 #
edge $-1 $204 -65.945616016113775 $292 65.945616016113775 $196 $295 forward 7 unknown #
coedge $-1 $209 $208 $125 $202 reversed $193 $-1 #
edge $-1 $296 -65.945616016113775 $203 65.945616016113775 $201 $297 forward 7 unknown #
vertex $-1 $127 $298 #
vertex $-1 $215 $299 #
straight-curve $-1 65.945616016113775 0 -12.452119735727285 0 -1 0 I I #
coedge $-1 $195 $197 $128 $207 reversed $121 $-1 #
edge $-1 $210 -27.113032758796447 $213 27.113032758796447 $206 $300 forward 7 unknown #
coedge $-1 $201 $129 $134 $216 forward $193 $-1 #
coedge $-1 $129 $201 $195 $291 reversed $193 $-1 #
vertex $-1 $130 $301 #
straight-curve $-1 0 27.113032758796447 12.452119735727285 -1 0 0 I I #
coedge $-1 $131 $196 $133 $215 reversed $75 $-1 #
vertex $-1 $207 $302 #
straight-curve $-1 0 -27.113032758796447 12.452119735727285 1 0 0 I I #
edge $-1 $136 -12.452119735727285 $204 12.452119735727285 $133 $303 forward 7 unknown #
edge $-1 $137 -12.452119735727285 $203 12.452119735727285 $134 $304 forward 7 unknown #
point $-1 65.945616016113775 -27.113032758796447 12.452119735727285 #
point $-1 65.945616016113775 27.113032758796447 12.452119735727285 #
face $-1 $-1 $235 $19 $-1 $305 reversed single #
loop $-1 $-1 $306 $139 #
plane-surface $-1 0 -41.329631579803134 0.66831124676835429 0 1 0 0 0 1 forward_v I I I I #
coedge $-1 $307 $232 $234 $308 forward $140 $-1 #
coedge $-1 $142 $149 $309 $310 forward $83 $-1 #
coedge $-1 $311 $147 $142 $225 reversed $235 $-1 #
edge $-1 $312 -7.1082994105033421 $151 7.1082994105033421 $224 $313 forward 7 unknown #
coedge $-1 $144 $143 $306 $314 reversed $53 $-1 #
coedge $-1 $232 $307 $143 $228 forward $140 $-1 #
edge $-1 $315 -7.1082994105033421 $230 7.1082994105033421 $143 $316 forward 7 unknown #
edge $-1 $150 -7.1082994105033421 $317 7.1082994105033421 $144 $318 forward 7 unknown #
vertex $-1 $145 $319 #
straight-curve $-1 -65.945616016113775 -27.113032758796447 0 0 0 -1 I I #
coedge $-1 $222 $227 $146 $233 reversed $140 $-1 #
edge $-1 $236 -65.945616016113775 $230 65.945616016113775 $232 $320 forward 7 unknown #
coedge $-1 $147 $311 $222 $308 reversed $235 $-1 #
loop $-1 $-1 $147 $219 #
vertex $-1 $148 $321 #
straight-curve $-1 65.945616016113775 -27.113032758796447 0 0 0 1 I I #
point $-1 -65.945616016113775 -27.11303275879645 3.5031474414949031 #
point $-1 65.945616016113775 -27.11303275879645 3.5031474414949031 #
face $-1 $-1 $250 $20 $-1 $322 reversed single #
loop $-1 $-1 $246 $153 #
plane-surface $-1 0 0 12.452119735727285 0 0 1 1 0 0 forward_v I I I I #
coedge $-1 $156 $165 $323 $324 reversed $91 $-1 #
coedge $-1 $158 $157 $156 $245 reversed $57 $-1 #
edge $-1 $325 -7.4310087082230671 $166 -2.6112133467853651 $156 $326 forward 7 unknown #
coedge $-1 $323 $327 $158 $247 forward $241 $-1 #
edge $-1 $252 -65.945616016113775 $325 65.945616016113775 $246 $328 forward 7 unknown #
coedge $-1 $329 $159 $327 $330 reversed $250 $-1 #
coedge $-1 $159 $329 $161 $254 forward $250 $-1 #
loop $-1 $-1 $159 $240 #
vertex $-1 $254 $331 #
vertex $-1 $160 $332 #
straight-curve $-1 -65.945616016113775 18.087014944118636 5.0211110275042161 0 0 1 I I #
edge $-1 $258 -15.813020833067673 $251 -6.787003018389866 $249 $333 forward 7 unknown #
straight-curve $-1 0 18.087014944118636 7.6323243742895812 -1 0 0 I I #
coedge $-1 $334 $163 $329 $335 reversed $154 $-1 #
coedge $-1 $163 $334 $165 $260 forward $154 $-1 #
vertex $-1 $164 $336 #
straight-curve $-1 0 27.113032758796447 7.6323243742895812 -1 0 0 I I #
edge $-1 $337 -12.452119735727285 $167 -7.6323243742895812 $165 $338 forward 7 unknown #
point $-1 65.945616016113775 18.087014944118636 7.6323243742895812 #
point $-1 65.945616016113775 27.113032758796443 7.6323243742895812 #
loop $-1 $-1 $177 $169 #
plane-surface $-1 65.945616016113775 0 0 -1 0 0 0 0 1 forward_v I I I I #
coedge $-1 $266 $172 $174 $270 reversed $99 $-1 #
coedge $-1 $172 $265 $339 $340 reversed $99 $-1 #
coedge $-1 $180 $175 $172 $268 forward $170 $-1 #
edge $-1 $271 24.566023871594908 $341 28.091893581709641 $267 $342 forward 7 unknown #
coedge $-1 $174 $173 $274 $343 reversed $61 $-1 #
edge $-1 $344 -131.89123203222752 $271 -126.62190236015618 $265 $345 forward 7 unknown #
vertex $-1 $176 $346 #
straight-curve $-1 62.41974630599902 -2.2061579177164283 12.452119735727294 0 -1 0 I I #
coedge $-1 $339 $177 $180 $278 reversed $263 $-1 #
coedge $-1 $177 $339 $269 $343 forward $263 $-1 #
vertex $-1 $178 $347 #
straight-curve $-1 65.945616016113775 -1.1920401485299941 97.401495582736601 0 0 1 I I #
straight-curve $-1 -22.30684283399728 -1.1920401485299941 106.55053231536215 0.66913059716165679 0 -0.74314483375859142 I I #
edge $-1 $341 -7.6325915223357192 $181 -1.1920401485299941 $273 $348 forward 7 unknown #
point $-1 65.945616016113775 -1.1920401485299941 12.452119735727285 #
point $-1 62.419746305999041 -1.1920401485299941 12.45211973572728 #
edge $-1 $349 1 $349 0 $184 $-1 forward 7 unknown #
vertex $-1 $185 $350 #
ellipse-curve $-1 63.158886718076779 -5.7924339869626529 9.5723535400963105 0.74314483375859142 0 0.66913059716165679 0.3345652985808284 0 -0.37157241687929571 1 I I #
point $-1 64.517246459637235 -5.7924339869626529 10.122609757262639 #
edge $-1 $351 1 $351 0 $188 $-1 forward 7 unknown #
vertex $-1 $189 $352 #
ellipse-curve $-1 63.158886718076779 -3.0321976839030569 9.5723535400963105 0.74314483375859142 0 0.66913059716165679 0.3345652985808284 0 -0.37157241687929571 1 I I #
point $-1 64.517246459637235 -3.0321976839030569 10.122609757262639 #
plane-surface $-1 65.945616016113775 0 0 -1 0 0 0 0 1 forward_v I I I I #
coedge $-1 $197 $195 $199 $294 reversed $121 $-1 #
edge $-1 $210 -12.452119735727285 $296 12.452119735727285 $209 $353 forward 7 unknown #
vertex $-1 $294 $354 #
straight-curve $-1 -65.945616016113775 -27.113032758796447 0 0 0 -1 I I #
edge $-1 $292 -27.113032758796447 $296 27.113032758796447 $290 $355 forward 7 unknown #
straight-curve $-1 0 -27.113032758796447 -12.452119735727285 -1 0 0 I I #
vertex $-1 $202 $356 #
straight-curve $-1 0 27.113032758796447 -12.452119735727285 1 0 0 I I #
point $-1 65.945616016113775 27.113032758796447 -12.452119735727285 #
point $-1 65.945616016113775 -27.113032758796447 -12.452119735727285 #
straight-curve $-1 -65.945616016113775 0 12.452119735727285 0 -1 0 I I #
point $-1 -65.945616016113775 27.113032758796447 12.452119735727285 #
point $-1 -65.945616016113775 -27.113032758796447 12.452119735727285 #
straight-curve $-1 65.945616016113775 -27.113032758796447 0 0 0 -1 I I #
straight-curve $-1 65.945616016113775 27.113032758796447 0 0 0 -1 I I #
plane-surface $-1 65.945616016113775 0 0 -1 0 0 0 0 1 forward_v I I I I #
coedge $-1 $357 $309 $226 $314 forward $220 $-1 #
coedge $-1 $227 $222 $357 $358 forward $140 $-1 #
edge $-1 $236 -7.1082994105033421 $359 7.1082994105033421 $234 $360 forward 7 unknown #
coedge $-1 $306 $361 $223 $310 reversed $220 $-1 #
edge $-1 $317 -65.945616016113775 $312 65.945616016113775 $309 $362 forward 7 unknown #
coedge $-1 $234 $224 $361 $363 forward $235 $-1 #
vertex $-1 $225 $364 #
straight-curve $-1 65.945616016113775 -34.221332169299792 3.5031474414949031 0 1 0 I I #
edge $-1 $317 -2.8348361947265488 $315 2.8348361947265488 $226 $365 forward 7 unknown #
vertex $-1 $228 $366 #
straight-curve $-1 -65.945616016113775 -34.221332169299792 -2.1665249479581945 0 1 0 I I #
vertex $-1 $229 $367 #
straight-curve $-1 -65.945616016113775 -34.221332169299792 3.5031474414949031 0 -1 0 I I #
point $-1 -65.945616016113775 -27.11303275879645 -2.1665249479581945 #
straight-curve $-1 0 -27.113032758796447 -2.1665249479581945 -1 0 0 I I #
point $-1 65.945616016113775 -27.11303275879645 -2.1665249479581945 #
plane-surface $-1 -65.945616016113775 0 0 1 0 0 0 0 -1 forward_v I I I I #
coedge $-1 $368 $246 $243 $324 forward $241 $-1 #
edge $-1 $325 18.087014944118636 $337 27.113032758796447 $243 $369 forward 7 unknown #
vertex $-1 $324 $370 #
straight-curve $-1 65.945616016113775 18.087014944118636 5.0211110275042161 0 0 -1 I I #
coedge $-1 $246 $368 $248 $330 forward $241 $-1 #
straight-curve $-1 0 18.087014944118636 12.452119735727285 1 0 0 I I #
coedge $-1 $249 $248 $256 $335 forward $250 $-1 #
edge $-1 $371 -27.113032758796447 $252 -18.087014944118636 $248 $372 forward 7 unknown #
point $-1 -65.945616016113775 18.087014944118636 7.6323243742895812 #
point $-1 -65.945616016113775 18.087014944118636 12.452119735727283 #
straight-curve $-1 -65.945616016113775 11.30001192572877 7.6323243742895812 0 -1 0 I I #
coedge $-1 $257 $256 $368 $373 reversed $154 $-1 #
edge $-1 $371 -12.452119735727285 $258 -7.6323243742895812 $256 $374 forward 7 unknown #
point $-1 -65.945616016113775 27.113032758796443 7.6323243742895812 #
vertex $-1 $324 $375 #
straight-curve $-1 65.945616016113775 27.113032758796447 0 0 0 -1 I I #
coedge $-1 $274 $273 $266 $340 forward $263 $-1 #
edge $-1 $341 84.949375847009321 $344 88.86525097018 $339 $376 forward 7 unknown #
vertex $-1 $278 $377 #
straight-curve $-1 37.853722434404133 -7.6325915223357192 12.45211973572728 1 0 0 I I #
edge $-1 $344 -5.4264336046192909 $275 1.0141177691864343 $274 $378 forward 7 unknown #
vertex $-1 $343 $379 #
straight-curve $-1 -22.30684283399728 -7.6325915223357192 106.55053231536215 -0.66913059716165679 0 0.74314483375859142 I I #
point $-1 62.419746305999041 -7.6325915223357192 12.45211973572728 #
point $-1 65.945616016113775 -1.1920401485299941 8.5362446125566009 #
straight-curve $-1 65.945616016113775 0 12.452119735727285 0 1 0 I I #
vertex $-1 $281 $380 #
point $-1 63.493452016657614 -5.7924339869626529 9.2007811232170162 #
vertex $-1 $285 $381 #
point $-1 63.493452016657614 -3.0321976839030569 9.2007811232170162 #
straight-curve $-1 -65.945616016113775 27.113032758796447 0 0 0 -1 I I #
point $-1 -65.945616016113775 -27.113032758796447 -12.452119735727285 #
straight-curve $-1 -65.945616016113775 0 -12.452119735727285 0 1 0 I I #
point $-1 -65.945616016113775 27.113032758796447 -12.452119735727285 #
coedge $-1 $361 $306 $307 $358 reversed $220 $-1 #
edge $-1 $359 -65.945616016113775 $315 65.945616016113775 $357 $382 forward 7 unknown #
vertex $-1 $363 $383 #
straight-curve $-1 65.945616016113775 -34.221332169299792 -2.1665249479581945 0 -1 0 I I #
coedge $-1 $309 $357 $311 $363 reversed $220 $-1 #
straight-curve $-1 0 -41.329631579803134 3.5031474414949031 1 0 0 I I #
edge $-1 $312 -2.8348361947265488 $359 2.8348361947265488 $311 $384 forward 7 unknown #
point $-1 65.945616016113775 -41.329631579803134 3.5031474414949031 #
straight-curve $-1 -65.945616016113775 -41.329631579803134 0.66831124676835429 0 0 -1 I I #
point $-1 -65.945616016113775 -41.329631579803134 -2.1665249479581945 #
point $-1 -65.945616016113775 -41.329631579803134 3.5031474414949031 #
coedge $-1 $327 $323 $334 $373 forward $241 $-1 #
straight-curve $-1 65.945616016113775 0 12.452119735727285 0 1 0 I I #
point $-1 65.945616016113775 18.087014944118636 12.452119735727283 #
vertex $-1 $373 $385 #
straight-curve $-1 -65.945616016113775 0 12.452119735727285 0 -1 0 I I #
edge $-1 $337 -65.945616016113775 $371 65.945616016113775 $334 $386 forward 7 unknown #
straight-curve $-1 -65.945616016113775 27.113032758796447 0 0 0 -1 I I #
point $-1 65.945616016113775 27.113032758796447 12.452119735727285 #
straight-curve $-1 65.945616016113775 -7.6325915223357192 97.401495582736601 0 0 -1 I I #
point $-1 65.945616016113775 -7.6325915223357192 12.452119735727285 #
straight-curve $-1 65.945616016113775 -2.2061579177164283 8.5362446125566009 0 1 0 I I #
point $-1 65.945616016113775 -7.6325915223357192 8.5362446125566009 #
point $-1 62.78731430119749 -5.7924339869626529 9.2377882415154833 #
point $-1 62.78731430119749 -3.0321976839030569 9.2377882415154833 #
straight-curve $-1 0 -41.329631579803134 -2.1665249479581945 -1 0 0 I I #
point $-1 65.945616016113775 -41.329631579803134 -2.1665249479581945 #
straight-curve $-1 65.945616016113775 -41.329631579803134 0.66831124676835429 0 0 -1 I I #
point $-1 -65.945616016113775 27.113032758796447 12.452119735727285 #
straight-curve $-1 0 27.113032758796447 12.452119735727285 -1 0 0 I I #
End-of-ACIS-data 