500 0 15 0           
7 Unknown 11 ACIS 5.0 NT 24 Fri Mar 26 18:01:55 1999 
-1 9.9999999999999995e-007 1e-010 
body $-1 $15 $-1 $16 #
body $-1 $17 $-1 $18 #
body $-1 $19 $-1 $20 #
body $-1 $21 $-1 $22 #
body $-1 $23 $-1 $24 #
body $-1 $25 $-1 $26 #
body $-1 $27 $-1 $28 #
body $-1 $29 $-1 $30 #
body $-1 $31 $-1 $32 #
body $-1 $33 $-1 $34 #
body $-1 $35 $-1 $36 #
body $-1 $37 $-1 $38 #
body $-1 $39 $-1 $40 #
body $-1 $41 $-1 $42 #
body $-1 $43 $-1 $44 #
lump $-1 $-1 $45 $0 #
transform $-1 1 0 0 0 1 0 0 0 1 50.823084200567649 32.231485983760976 15.227205704697306 1 rotate no_reflect no_shear #
lump $-1 $-1 $46 $1 #
transform $-1 1 0 0 0 1 0 0 0 1 50.823084200567649 32.231485983760976 15.227205704697306 1 rotate no_reflect no_shear #
lump $-1 $-1 $47 $2 #
transform $-1 1 0 0 0 1 0 0 0 1 50.823084200567649 32.231485983760976 15.227205704697306 1 rotate no_reflect no_shear #
lump $-1 $-1 $48 $3 #
transform $-1 1 0 0 0 1 0 0 0 1 50.823084200567649 32.231485983760976 15.227205704697306 1 rotate no_reflect no_shear #
lump $-1 $-1 $49 $4 #
transform $-1 1 0 0 0 1 0 0 0 1 50.823084200567649 32.231485983760976 15.227205704697306 1 rotate no_reflect no_shear #
lump $-1 $-1 $50 $5 #
transform $-1 1 0 0 0 1 0 0 0 1 50.823084200567649 32.231485983760976 15.227205704697306 1 rotate no_reflect no_shear #
lump $-1 $-1 $51 $6 #
transform $-1 1 0 0 0 1 0 0 0 1 50.823084200567649 32.231485983760976 15.227205704697306 1 rotate no_reflect no_shear #
lump $-1 $-1 $52 $7 #
transform $-1 1 0 0 0 1 0 0 0 1 50.823084200567649 32.231485983760976 15.227205704697306 1 rotate no_reflect no_shear #
lump $-1 $-1 $53 $8 #
transform $-1 1 0 0 0 1 0 0 0 1 50.823084200567649 32.231485983760976 15.227205704697306 1 rotate no_reflect no_shear #
lump $-1 $-1 $54 $9 #
transform $-1 1 0 0 0 1 0 0 0 1 50.823084200567649 32.231485983760976 15.227205704697306 1 rotate no_reflect no_shear #
lump $-1 $-1 $55 $10 #
transform $-1 1 0 0 0 1 0 0 0 1 50.823084200567649 32.231485983760976 15.227205704697306 1 rotate no_reflect no_shear #
lump $-1 $-1 $56 $11 #
transform $-1 1 0 0 0 1 0 0 0 1 50.823084200567649 32.231485983760976 15.227205704697306 1 rotate no_reflect no_shear #
lump $-1 $-1 $57 $12 #
transform $-1 1 0 0 0 1 0 0 0 1 50.823084200567649 32.231485983760976 15.227205704697306 1 rotate no_reflect no_shear #
lump $-1 $-1 $58 $13 #
transform $-1 1 0 0 0 1 0 0 0 1 50.823084200567649 32.231485983760976 15.227205704697306 1 rotate no_reflect no_shear #
lump $-1 $-1 $59 $14 #
transform $-1 1 0 0 0 1 0 0 0 1 50.823084200567649 32.231485983760976 15.227205704697306 1 rotate no_reflect no_shear #
shell $-1 $-1 $-1 $60 $-1 $15 #
shell $-1 $-1 $-1 $61 $-1 $17 #
shell $-1 $-1 $-1 $62 $-1 $19 #
shell $-1 $-1 $-1 $63 $-1 $21 #
shell $-1 $-1 $-1 $64 $-1 $23 #
shell $-1 $-1 $-1 $65 $-1 $25 #
shell $-1 $-1 $-1 $66 $-1 $27 #
shell $-1 $-1 $-1 $67 $-1 $29 #
shell $-1 $-1 $-1 $68 $-1 $31 #
shell $-1 $-1 $-1 $69 $-1 $33 #
shell $-1 $-1 $-1 $70 $-1 $35 #
shell $-1 $-1 $-1 $71 $-1 $37 #
shell $-1 $-1 $-1 $72 $-1 $39 #
shell $-1 $-1 $-1 $73 $-1 $41 #
shell $-1 $-1 $-1 $74 $-1 $43 #
face $-1 $75 $76 $45 $-1 $77 forward single #
face $-1 $78 $79 $46 $-1 $80 forward single #
face $-1 $81 $82 $47 $-1 $83 forward single #
face $-1 $84 $85 $48 $-1 $86 reversed single #
face $-1 $87 $88 $49 $-1 $89 forward single #
face $-1 $90 $91 $50 $-1 $92 reversed single #
face $-1 $93 $94 $51 $-1 $95 forward single #
face $-1 $96 $97 $52 $-1 $98 reversed single #
face $-1 $99 $100 $53 $-1 $101 forward single #
face $-1 $102 $103 $54 $-1 $104 reversed single #
face $-1 $105 $106 $55 $-1 $107 forward single #
face $-1 $108 $109 $56 $-1 $110 reversed single #
face $-1 $111 $112 $57 $-1 $113 forward single #
face $-1 $114 $115 $58 $-1 $116 reversed single #
face $-1 $117 $118 $59 $-1 $119 forward single #
face $-1 $120 $121 $45 $-1 $122 reversed single #
loop $-1 $-1 $123 $60 #
plane-surface $-1 0 0 15.227205704697306 0 0 1 1 0 0 forward_v I I I I #
face $-1 $124 $125 $46 $-1 $126 reversed single #
loop $-1 $-1 $127 $61 #
plane-surface $-1 0 -32.231485983760976 0 0 1 0 0 0 1 forward_v I I I I #
face $-1 $128 $129 $47 $-1 $130 reversed single #
loop $-1 $-1 $131 $62 #
plane-surface $-1 0 32.231485983760976 0 0 -1 0 0 0 -1 forward_v I I I I #
face $-1 $132 $133 $48 $-1 $134 reversed single #
loop $-1 $-1 $135 $63 #
plane-surface $-1 -107.66290097420395 -10.054958381869524 87.05410244798675 0 1 0 -0.55919291073839883 0 0.82903756765294845 forward_v I I I I #
face $-1 $136 $137 $49 $-1 $138 forward single #
loop $-1 $139 $140 $64 #
cone-surface $-1 -40.583229106953709 -7.0726159649104758 7.4984309630794375 0.55919291073839883 0 -0.82903756765294845 0.82903756765294845 0 0.55919291073839883 1 I I 0 1 1 forward I I I I #
face $-1 $141 $142 $50 $-1 $143 reversed single #
loop $-1 $-1 $144 $65 #
plane-surface $-1 -107.66290097420395 -2.9823424169590478 87.05410244798675 0 1 0 -0.55919291073839883 0 0.82903756765294845 forward_v I I I I #
face $-1 $145 $146 $51 $-1 $147 forward single #
loop $-1 $148 $149 $66 #
cone-surface $-1 -40.583229106953709 0 7.4984309630794375 0.55919291073839883 0 -0.82903756765294845 0.82903756765294845 0 0.55919291073839883 1 I I 0 1 1 forward I I I I #
face $-1 $150 $151 $52 $-1 $152 reversed single #
loop $-1 $-1 $153 $67 #
plane-surface $-1 -107.66290097420395 4.0902735479514281 87.05410244798675 0 1 0 -0.55919291073839883 0 0.82903756765294845 forward_v I I I I #
face $-1 $154 $155 $53 $-1 $156 forward single #
loop $-1 $157 $158 $68 #
cone-surface $-1 -40.583229106953709 7.0726159649104758 7.4984309630794375 0.55919291073839883 0 -0.82903756765294845 0.82903756765294845 0 0.55919291073839883 1 I I 0 1 1 forward I I I I #
face $-1 $159 $160 $54 $-1 $161 reversed single #
loop $-1 $-1 $162 $69 #
plane-surface $-1 23.394408761684758 -4.0902735479514281 143.89391922162307 0 -1 0 -0.55919291073839883 0 -0.82903756765294845 forward_v I I I I #
face $-1 $163 $164 $55 $-1 $165 forward single #
loop $-1 $166 $167 $70 #
cone-surface $-1 40.583229106953709 -7.0726159649104758 7.4984309630794339 -0.55919291073839883 0 -0.82903756765294845 0.82903756765294845 0 -0.55919291073839883 1 I I 0 1 1 forward I I I I #
face $-1 $168 $169 $56 $-1 $170 reversed single #
loop $-1 $-1 $171 $71 #
plane-surface $-1 23.394408761684758 2.9823424169590478 143.89391922162307 0 -1 0 -0.55919291073839883 0 -0.82903756765294845 forward_v I I I I #
face $-1 $172 $173 $57 $-1 $174 forward single #
loop $-1 $175 $176 $72 #
cone-surface $-1 40.583229106953709 0 7.4984309630794339 -0.55919291073839883 0 -0.82903756765294845 0.82903756765294845 0 -0.55919291073839883 1 I I 0 1 1 forward I I I I #
face $-1 $177 $178 $58 $-1 $179 reversed single #
loop $-1 $-1 $180 $73 #
plane-surface $-1 23.394408761684758 10.054958381869524 143.89391922162307 0 -1 0 -0.55919291073839883 0 -0.82903756765294845 forward_v I I I I #
face $-1 $181 $182 $59 $-1 $183 forward single #
loop $-1 $184 $185 $74 #
cone-surface $-1 40.583229106953709 7.0726159649104758 7.4984309630794339 -0.55919291073839883 0 -0.82903756765294845 0.82903756765294845 0 -0.55919291073839883 1 I I 0 1 1 forward I I I I #
face $-1 $186 $187 $45 $-1 $188 reversed single #
loop $-1 $-1 $189 $75 #
plane-surface $-1 0 0 -15.227205704697306 0 0 1 1 0 0 forward_v I I I I #
coedge $-1 $190 $191 $192 $193 forward $76 $-1 #
face $-1 $194 $195 $46 $-1 $196 reversed single #
loop $-1 $-1 $197 $78 #
plane-surface $-1 0 0 -15.227205704697306 0 0 1 1 0 0 forward_v I I I I #
coedge $-1 $198 $199 $200 $201 forward $79 $-1 #
face $-1 $202 $203 $47 $-1 $204 reversed single #
loop $-1 $-1 $205 $81 #
plane-surface $-1 0 0 -15.227205704697306 0 0 1 1 0 0 forward_v I I I I #
coedge $-1 $206 $207 $208 $209 forward $82 $-1 #
face $-1 $210 $211 $48 $-1 $212 reversed single #
loop $-1 $-1 $213 $84 #
plane-surface $-1 -50.823084200567642 -7.0726159649104758 2.7856102354675585 -0.55919291073839883 0 0.82903756765294845 0.82903756765294845 0 0.55919291073839883 forward_v I I I I #
coedge $-1 $214 $215 $216 $217 reversed $85 $-1 #
face $-1 $-1 $218 $49 $-1 $219 forward single #
loop $-1 $220 $221 $87 #
cone-surface $-1 -39.286489297924589 -7.0726159649104758 5.5759351722499648 0.55919291073839883 0 -0.82903756765294845 0.41451878382647422 0 0.27959645536919941 1 I I -0.70710678118654746 0.70710678118654746 0.5 forward I I I I #
loop $-1 $-1 $222 $64 #
coedge $-1 $140 $140 $223 $224 reversed $88 $-1 #
face $-1 $225 $226 $50 $-1 $227 reversed single #
loop $-1 $-1 $228 $90 #
plane-surface $-1 -50.823084200567642 0 2.7856102354675585 -0.55919291073839883 0 0.82903756765294845 0.82903756765294845 0 0.55919291073839883 forward_v I I I I #
coedge $-1 $229 $230 $231 $232 reversed $91 $-1 #
face $-1 $-1 $233 $51 $-1 $234 forward single #
loop $-1 $235 $236 $93 #
cone-surface $-1 -39.286489297924589 0 5.5759351722499648 0.55919291073839883 0 -0.82903756765294845 0.41451878382647422 0 0.27959645536919941 1 I I -0.70710678118654746 0.70710678118654746 0.5 forward I I I I #
loop $-1 $-1 $237 $66 #
coedge $-1 $149 $149 $238 $239 reversed $94 $-1 #
face $-1 $240 $241 $52 $-1 $242 reversed single #
loop $-1 $-1 $243 $96 #
plane-surface $-1 -50.823084200567642 7.0726159649104758 2.7856102354675585 -0.55919291073839883 0 0.82903756765294845 0.82903756765294845 0 0.55919291073839883 forward_v I I I I #
coedge $-1 $244 $245 $246 $247 reversed $97 $-1 #
face $-1 $-1 $248 $53 $-1 $249 forward single #
loop $-1 $250 $251 $99 #
cone-surface $-1 -39.286489297924589 7.0726159649104758 5.5759351722499648 0.55919291073839883 0 -0.82903756765294845 0.41451878382647422 0 0.27959645536919941 1 I I -0.70710678118654746 0.70710678118654746 0.5 forward I I I I #
loop $-1 $-1 $252 $68 #
coedge $-1 $158 $158 $253 $254 reversed $100 $-1 #
face $-1 $255 $256 $54 $-1 $257 reversed single #
loop $-1 $-1 $258 $102 #
plane-surface $-1 -33.44540801195155 -7.0726159649104758 59.625427009103873 0.55919291073839883 0 0.82903756765294845 0.82903756765294845 0 -0.55919291073839883 forward_v I I I I #
coedge $-1 $259 $260 $261 $262 reversed $103 $-1 #
face $-1 $-1 $263 $55 $-1 $264 forward single #
loop $-1 $265 $266 $105 #
cone-surface $-1 39.286489297924589 -7.0726159649104758 5.5759351722499613 -0.55919291073839883 0 -0.82903756765294845 0.41451878382647422 0 -0.27959645536919941 1 I I -0.70710678118654746 0.70710678118654746 0.5 forward I I I I #
loop $-1 $-1 $267 $70 #
coedge $-1 $167 $167 $268 $269 reversed $106 $-1 #
face $-1 $270 $271 $56 $-1 $272 reversed single #
loop $-1 $-1 $273 $108 #
plane-surface $-1 -33.44540801195155 0 59.625427009103873 0.55919291073839883 0 0.82903756765294845 0.82903756765294845 0 -0.55919291073839883 forward_v I I I I #
coedge $-1 $274 $275 $276 $277 reversed $109 $-1 #
face $-1 $-1 $278 $57 $-1 $279 forward single #
loop $-1 $280 $281 $111 #
cone-surface $-1 39.286489297924589 0 5.5759351722499613 -0.55919291073839883 0 -0.82903756765294845 0.41451878382647422 0 -0.27959645536919941 1 I I -0.70710678118654746 0.70710678118654746 0.5 forward I I I I #
loop $-1 $-1 $282 $72 #
coedge $-1 $176 $176 $283 $284 reversed $112 $-1 #
face $-1 $285 $286 $58 $-1 $287 reversed single #
loop $-1 $-1 $288 $114 #
plane-surface $-1 -33.44540801195155 7.0726159649104758 59.625427009103873 0.55919291073839883 0 0.82903756765294845 0.82903756765294845 0 -0.55919291073839883 forward_v I I I I #
coedge $-1 $289 $290 $291 $292 reversed $115 $-1 #
face $-1 $-1 $293 $59 $-1 $294 forward single #
loop $-1 $295 $296 $117 #
cone-surface $-1 39.286489297924589 7.0726159649104758 5.5759351722499613 -0.55919291073839883 0 -0.82903756765294845 0.41451878382647422 0 -0.27959645536919941 1 I I -0.70710678118654746 0.70710678118654746 0.5 forward I I I I #
loop $-1 $-1 $297 $74 #
coedge $-1 $185 $185 $298 $299 reversed $118 $-1 #
face $-1 $300 $301 $45 $-1 $302 reversed single #
loop $-1 $-1 $303 $120 #
plane-surface $-1 0 -32.231485983760976 0 0 1 0 0 0 1 forward_v I I I I #
coedge $-1 $304 $305 $306 $307 forward $121 $-1 #
coedge $-1 $308 $123 $309 $310 forward $76 $-1 #
coedge $-1 $123 $308 $311 $312 forward $76 $-1 #
coedge $-1 $313 $314 $123 $193 reversed $315 $-1 #
edge $-1 $316 -32.231485983760976 $317 32.231485983760976 $192 $318 forward 7 unknown #
face $-1 $319 $320 $46 $-1 $321 reversed single #
loop $-1 $-1 $322 $124 #
plane-surface $-1 -37.249477774364138 -52.192151323667659 0 0 1 0 0 0 1 forward_v I I I I #
coedge $-1 $323 $324 $199 $325 forward $125 $-1 #
coedge $-1 $326 $127 $327 $328 reversed $79 $-1 #
coedge $-1 $127 $326 $197 $325 reversed $79 $-1 #
coedge $-1 $329 $330 $127 $201 reversed $320 $-1 #
edge $-1 $331 -15.227205704697306 $332 15.227205704697306 $200 $333 forward 7 unknown #
face $-1 $334 $335 $47 $-1 $336 reversed single #
loop $-1 $-1 $337 $128 #
plane-surface $-1 -39.902191123896401 42.211818653714317 0 1 0 0 0 0 -1 forward_v I I I I #
coedge $-1 $338 $339 $207 $340 forward $129 $-1 #
coedge $-1 $341 $131 $342 $343 reversed $82 $-1 #
coedge $-1 $131 $341 $205 $340 reversed $82 $-1 #
coedge $-1 $344 $345 $131 $209 reversed $346 $-1 #
edge $-1 $347 -15.227205704697306 $348 15.227205704697306 $208 $349 forward 7 unknown #
face $-1 $350 $351 $48 $-1 $352 reversed single #
loop $-1 $-1 $353 $132 #
plane-surface $-1 -107.66290097420395 -4.0902735479514281 87.05410244798675 0 -1 0 0.55919291073839883 0 -0.82903756765294845 forward_v I I I I #
coedge $-1 $354 $355 $356 $357 reversed $133 $-1 #
coedge $-1 $215 $135 $358 $359 reversed $85 $-1 #
coedge $-1 $135 $214 $354 $360 reversed $85 $-1 #
coedge $-1 $356 $361 $135 $217 forward $362 $-1 #
edge $-1 $363 3.0083662865343257 $364 21.453789766442355 $216 $365 forward 7 unknown #
loop $-1 $-1 $223 $136 #
plane-surface $-1 -50.823084200567642 -7.0726159649104758 2.7856102354675585 -0.55919291073839883 0 0.82903756765294845 0.82903756765294845 0 0.55919291073839883 forward_v I I I I #
loop $-1 $-1 $366 $87 #
coedge $-1 $221 $221 $222 $367 reversed $137 $-1 #
coedge $-1 $222 $222 $221 $367 forward $139 $-1 #
coedge $-1 $223 $223 $140 $224 forward $218 $-1 #
edge $-1 $368 0 $368 6.2831853071796004 $223 $369 forward 7 unknown #
face $-1 $370 $371 $50 $-1 $372 forward single #
loop $-1 $-1 $373 $141 #
plane-surface $-1 -107.66290097420395 2.9823424169590478 87.05410244798675 0 -1 0 0.55919291073839883 0 -0.82903756765294845 forward_v I I I I #
coedge $-1 $374 $375 $376 $377 reversed $142 $-1 #
coedge $-1 $230 $144 $378 $379 reversed $91 $-1 #
coedge $-1 $144 $229 $374 $380 reversed $91 $-1 #
coedge $-1 $376 $381 $144 $232 forward $371 $-1 #
edge $-1 $382 3.0083662865343257 $383 21.453789766442355 $231 $384 forward 7 unknown #
loop $-1 $-1 $238 $145 #
plane-surface $-1 -50.823084200567642 0 2.7856102354675585 -0.55919291073839883 0 0.82903756765294845 0.82903756765294845 0 0.55919291073839883 forward_v I I I I #
loop $-1 $-1 $385 $93 #
coedge $-1 $236 $236 $237 $386 reversed $146 $-1 #
coedge $-1 $237 $237 $236 $386 forward $148 $-1 #
coedge $-1 $238 $238 $149 $239 forward $233 $-1 #
edge $-1 $387 0 $387 6.2831853071796004 $238 $388 forward 7 unknown #
face $-1 $389 $390 $52 $-1 $391 forward single #
loop $-1 $-1 $392 $150 #
plane-surface $-1 -107.66290097420395 10.054958381869524 87.05410244798675 0 -1 0 0.55919291073839883 0 -0.82903756765294845 forward_v I I I I #
coedge $-1 $393 $394 $395 $396 reversed $151 $-1 #
coedge $-1 $245 $153 $397 $398 reversed $97 $-1 #
coedge $-1 $153 $244 $393 $399 reversed $97 $-1 #
coedge $-1 $395 $400 $153 $247 forward $390 $-1 #
edge $-1 $401 3.0083662865343257 $402 21.453789766442355 $246 $403 forward 7 unknown #
loop $-1 $-1 $253 $154 #
plane-surface $-1 -50.823084200567642 7.0726159649104758 2.7856102354675585 -0.55919291073839883 0 0.82903756765294845 0.82903756765294845 0 0.55919291073839883 forward_v I I I I #
loop $-1 $-1 $404 $99 #
coedge $-1 $251 $251 $252 $405 reversed $155 $-1 #
coedge $-1 $252 $252 $251 $405 forward $157 $-1 #
coedge $-1 $253 $253 $158 $254 forward $248 $-1 #
edge $-1 $406 0 $406 6.2831853071796004 $253 $407 forward 7 unknown #
face $-1 $408 $409 $54 $-1 $410 forward single #
loop $-1 $-1 $411 $159 #
plane-surface $-1 23.394408761684758 -10.054958381869524 143.89391922162307 0 1 0 0.55919291073839883 0 0.82903756765294845 forward_v I I I I #
coedge $-1 $412 $413 $414 $415 reversed $160 $-1 #
coedge $-1 $260 $162 $416 $417 reversed $103 $-1 #
coedge $-1 $162 $259 $412 $418 reversed $103 $-1 #
coedge $-1 $414 $419 $162 $262 forward $409 $-1 #
edge $-1 $420 -39.12587981972527 $421 -20.680456339817248 $261 $422 forward 7 unknown #
loop $-1 $-1 $268 $163 #
plane-surface $-1 -33.44540801195155 -7.0726159649104758 59.625427009103873 0.55919291073839883 0 0.82903756765294845 0.82903756765294845 0 -0.55919291073839883 forward_v I I I I #
loop $-1 $-1 $423 $105 #
coedge $-1 $266 $266 $267 $424 reversed $164 $-1 #
coedge $-1 $267 $267 $266 $424 forward $166 $-1 #
coedge $-1 $268 $268 $167 $269 forward $263 $-1 #
edge $-1 $425 0 $425 6.2831853071796004 $268 $426 forward 7 unknown #
face $-1 $427 $428 $56 $-1 $429 reversed single #
loop $-1 $-1 $430 $168 #
plane-surface $-1 23.394408761684758 -2.9823424169590478 143.89391922162307 0 1 0 0.55919291073839883 0 0.82903756765294845 forward_v I I I I #
coedge $-1 $431 $432 $433 $434 reversed $169 $-1 #
coedge $-1 $275 $171 $435 $436 reversed $109 $-1 #
coedge $-1 $171 $274 $431 $437 reversed $109 $-1 #
coedge $-1 $433 $438 $171 $277 forward $439 $-1 #
edge $-1 $440 -39.12587981972527 $441 -20.680456339817248 $276 $442 forward 7 unknown #
loop $-1 $-1 $283 $172 #
plane-surface $-1 -33.44540801195155 0 59.625427009103873 0.55919291073839883 0 0.82903756765294845 0.82903756765294845 0 -0.55919291073839883 forward_v I I I I #
loop $-1 $-1 $443 $111 #
coedge $-1 $281 $281 $282 $444 reversed $173 $-1 #
coedge $-1 $282 $282 $281 $444 forward $175 $-1 #
coedge $-1 $283 $283 $176 $284 forward $278 $-1 #
edge $-1 $445 0 $445 6.2831853071796004 $283 $446 forward 7 unknown #
face $-1 $447 $448 $58 $-1 $449 reversed single #
loop $-1 $-1 $450 $177 #
plane-surface $-1 23.394408761684758 4.0902735479514281 143.89391922162307 0 1 0 0.55919291073839883 0 0.82903756765294845 forward_v I I I I #
coedge $-1 $451 $452 $453 $454 reversed $178 $-1 #
coedge $-1 $290 $180 $455 $456 reversed $115 $-1 #
coedge $-1 $180 $289 $451 $457 reversed $115 $-1 #
coedge $-1 $453 $458 $180 $292 forward $459 $-1 #
edge $-1 $460 -39.12587981972527 $461 -20.680456339817248 $291 $462 forward 7 unknown #
loop $-1 $-1 $298 $181 #
plane-surface $-1 -33.44540801195155 7.0726159649104758 59.625427009103873 0.55919291073839883 0 0.82903756765294845 0.82903756765294845 0 -0.55919291073839883 forward_v I I I I #
loop $-1 $-1 $463 $117 #
coedge $-1 $296 $296 $297 $464 reversed $182 $-1 #
coedge $-1 $297 $297 $296 $464 forward $184 $-1 #
coedge $-1 $298 $298 $185 $299 forward $293 $-1 #
edge $-1 $465 0 $465 6.2831853071796004 $298 $466 forward 7 unknown #
face $-1 $467 $468 $45 $-1 $469 reversed single #
loop $-1 $-1 $470 $186 #
plane-surface $-1 -50.823084200567649 0 0 1 0 0 0 0 -1 forward_v I I I I #
coedge $-1 $471 $311 $472 $473 forward $187 $-1 #
coedge $-1 $474 $189 $471 $475 forward $121 $-1 #
coedge $-1 $189 $474 $476 $477 forward $121 $-1 #
coedge $-1 $314 $313 $189 $307 reversed $315 $-1 #
edge $-1 $478 -32.231485983760976 $479 32.231485983760976 $306 $480 forward 7 unknown #
coedge $-1 $191 $190 $481 $482 forward $76 $-1 #
coedge $-1 $483 $484 $190 $310 reversed $468 $-1 #
edge $-1 $317 -50.823084200567649 $485 50.823084200567649 $309 $486 forward 7 unknown #
coedge $-1 $303 $487 $191 $312 reversed $187 $-1 #
edge $-1 $488 -50.823084200567649 $316 50.823084200567649 $311 $489 forward 7 unknown #
coedge $-1 $306 $192 $487 $490 forward $315 $-1 #
coedge $-1 $192 $306 $483 $491 reversed $315 $-1 #
loop $-1 $-1 $313 $467 #
vertex $-1 $193 $492 #
vertex $-1 $193 $493 #
straight-curve $-1 50.823084200567649 0 15.227205704697306 0 1 0 I I #
face $-1 $494 $495 $46 $-1 $496 reversed single #
loop $-1 $-1 $200 $194 #
plane-surface $-1 -39.902191123896401 -42.211818653714317 0 1 0 0 0 0 -1 forward_v I I I I #
coedge $-1 $497 $498 $499 $500 forward $195 $-1 #
coedge $-1 $501 $197 $502 $503 forward $125 $-1 #
coedge $-1 $197 $501 $329 $504 forward $125 $-1 #
edge $-1 $331 -39.902191123896401 $505 -34.596764424831875 $197 $506 forward 7 unknown #
coedge $-1 $199 $198 $507 $508 forward $79 $-1 #
coedge $-1 $509 $510 $198 $328 forward $511 $-1 #
edge $-1 $512 34.596764424831875 $332 39.902191123896401 $327 $513 forward 7 unknown #
coedge $-1 $499 $200 $324 $504 reversed $320 $-1 #
coedge $-1 $200 $499 $509 $514 reversed $320 $-1 #
vertex $-1 $325 $515 #
vertex $-1 $514 $516 #
straight-curve $-1 -39.902191123896401 -32.231485983760976 0 0 0 1 I I #
face $-1 $517 $346 $47 $-1 $518 reversed single #
loop $-1 $-1 $519 $202 #
plane-surface $-1 -37.249477774364138 52.192151323667659 0 0 -1 0 0 0 -1 forward_v I I I I #
coedge $-1 $520 $521 $522 $523 forward $203 $-1 #
coedge $-1 $524 $205 $520 $525 forward $129 $-1 #
coedge $-1 $205 $524 $344 $526 forward $129 $-1 #
edge $-1 $347 34.596764424831875 $527 39.902191123896401 $205 $528 forward 7 unknown #
coedge $-1 $207 $206 $529 $530 forward $82 $-1 #
coedge $-1 $531 $532 $206 $343 forward $533 $-1 #
edge $-1 $534 -39.902191123896401 $348 -34.596764424831875 $342 $535 forward 7 unknown #
coedge $-1 $536 $208 $339 $526 reversed $346 $-1 #
coedge $-1 $208 $536 $531 $537 reversed $346 $-1 #
loop $-1 $-1 $208 $334 #
vertex $-1 $340 $538 #
vertex $-1 $537 $539 #
straight-curve $-1 -34.596764424831875 32.231485983760976 0 0 0 1 I I #
face $-1 $-1 $362 $48 $-1 $540 forward single #
loop $-1 $-1 $541 $210 #
plane-surface $-1 -50.823084200567649 0 0 1 0 0 0 0 -1 forward_v I I I I #
coedge $-1 $542 $543 $544 $545 reversed $211 $-1 #
coedge $-1 $546 $213 $215 $360 forward $133 $-1 #
coedge $-1 $213 $546 $542 $547 forward $133 $-1 #
coedge $-1 $544 $216 $213 $357 forward $362 $-1 #
edge $-1 $364 -6.5186503994142857 $548 -0.55396556549619014 $356 $549 forward 7 unknown #
coedge $-1 $550 $551 $214 $359 forward $351 $-1 #
edge $-1 $552 -40.741440988525824 $363 -28.299845519296071 $358 $553 forward 7 unknown #
edge $-1 $364 -22.249201000779788 $552 8.6223131303995443e-015 $215 $554 forward 7 unknown #
coedge $-1 $216 $544 $550 $555 forward $362 $-1 #
loop $-1 $-1 $544 $350 #
vertex $-1 $359 $556 #
vertex $-1 $217 $557 #
straight-curve $-1 -53.831450487101975 -10.054958381869524 15.227205704697305 1 0 0 I I #
coedge $-1 $366 $366 $-1 $558 reversed $220 $-1 #
edge $-1 $559 0 $559 6.2831853071796004 $221 $560 forward 7 unknown #
vertex $-1 $224 $561 #
ellipse-curve $-1 -41.600372460613627 -7.0726159649104758 9.0064079700824315 -0.55919291073839883 0 0.82903756765294845 0.82903756765294845 0 0.55919291073839883 1 I I #
face $-1 $-1 $562 $50 $-1 $563 reversed single #
loop $-1 $-1 $231 $225 #
plane-surface $-1 0 0 15.227205704697306 0 0 1 1 0 0 forward_v I I I I #
coedge $-1 $564 $565 $566 $567 reversed $226 $-1 #
coedge $-1 $568 $228 $230 $380 forward $142 $-1 #
coedge $-1 $228 $568 $564 $569 forward $142 $-1 #
coedge $-1 $566 $231 $228 $377 forward $371 $-1 #
edge $-1 $383 -2.9823424169590478 $570 2.9823424169590478 $376 $571 forward 7 unknown #
coedge $-1 $572 $573 $229 $379 forward $562 $-1 #
edge $-1 $574 -40.741440988525824 $382 -28.299845519296071 $378 $575 forward 7 unknown #
edge $-1 $383 -22.249201000779788 $574 8.6223131303995443e-015 $230 $576 forward 7 unknown #
coedge $-1 $231 $566 $572 $577 forward $371 $-1 #
vertex $-1 $379 $578 #
vertex $-1 $232 $579 #
straight-curve $-1 -53.831450487101975 -2.9823424169590478 15.227205704697305 1 0 0 I I #
coedge $-1 $385 $385 $-1 $580 reversed $235 $-1 #
edge $-1 $581 0 $581 6.2831853071796004 $236 $582 forward 7 unknown #
vertex $-1 $239 $583 #
ellipse-curve $-1 -41.600372460613627 0 9.0064079700824315 -0.55919291073839883 0 0.82903756765294845 0.82903756765294845 0 0.55919291073839883 1 I I #
face $-1 $-1 $584 $52 $-1 $585 reversed single #
loop $-1 $-1 $246 $240 #
plane-surface $-1 0 0 15.227205704697306 0 0 1 1 0 0 forward_v I I I I #
coedge $-1 $586 $587 $588 $589 reversed $241 $-1 #
coedge $-1 $590 $243 $245 $399 forward $151 $-1 #
coedge $-1 $243 $590 $586 $591 forward $151 $-1 #
coedge $-1 $588 $246 $243 $396 forward $390 $-1 #
edge $-1 $402 0.55396556549619014 $592 6.5186503994142857 $395 $593 forward 7 unknown #
coedge $-1 $594 $595 $244 $398 forward $584 $-1 #
edge $-1 $596 -40.741440988525824 $401 -28.299845519296071 $397 $597 forward 7 unknown #
edge $-1 $402 -22.249201000779788 $596 8.6223131303995443e-015 $245 $598 forward 7 unknown #
coedge $-1 $246 $588 $594 $599 forward $390 $-1 #
vertex $-1 $247 $600 #
vertex $-1 $247 $601 #
straight-curve $-1 -53.831450487101975 4.0902735479514281 15.227205704697305 1 0 0 I I #
coedge $-1 $404 $404 $-1 $602 reversed $250 $-1 #
edge $-1 $603 0 $603 6.2831853071796004 $251 $604 forward 7 unknown #
vertex $-1 $254 $605 #
ellipse-curve $-1 -41.600372460613627 7.0726159649104758 9.0064079700824315 -0.55919291073839883 0 0.82903756765294845 0.82903756765294845 0 0.55919291073839883 1 I I #
face $-1 $-1 $606 $54 $-1 $607 reversed single #
loop $-1 $-1 $261 $255 #
plane-surface $-1 0 0 15.227205704697306 0 0 1 1 0 0 forward_v I I I I #
coedge $-1 $608 $609 $610 $611 reversed $256 $-1 #
coedge $-1 $612 $258 $260 $418 forward $160 $-1 #
coedge $-1 $258 $612 $608 $613 forward $160 $-1 #
coedge $-1 $610 $261 $258 $415 forward $409 $-1 #
edge $-1 $421 0.55396556549619014 $614 6.5186503994142857 $414 $615 forward 7 unknown #
coedge $-1 $616 $617 $259 $417 forward $606 $-1 #
edge $-1 $618 -69.161349375343974 $420 -56.719753906114228 $416 $619 forward 7 unknown #
edge $-1 $421 79.396967400355521 $618 101.6461684011353 $260 $620 forward 7 unknown #
coedge $-1 $261 $610 $616 $621 forward $409 $-1 #
vertex $-1 $262 $622 #
vertex $-1 $262 $623 #
straight-curve $-1 11.697204380842379 -4.0902735479514281 15.227205704697312 -1 0 0 I I #
coedge $-1 $423 $423 $-1 $624 reversed $265 $-1 #
edge $-1 $625 0 $625 6.2831853071796004 $266 $626 forward 7 unknown #
vertex $-1 $269 $627 #
ellipse-curve $-1 41.600372460613634 -7.0726159649104758 9.0064079700824351 0.55919291073839883 0 0.82903756765294845 0.82903756765294845 0 -0.55919291073839883 1 I I #
face $-1 $-1 $439 $56 $-1 $628 forward single #
loop $-1 $-1 $629 $270 #
plane-surface $-1 50.823084200567649 0 0 -1 0 0 0 0 1 forward_v I I I I #
coedge $-1 $630 $631 $632 $633 reversed $271 $-1 #
coedge $-1 $634 $273 $275 $437 forward $169 $-1 #
coedge $-1 $273 $634 $630 $635 forward $169 $-1 #
coedge $-1 $632 $276 $273 $434 forward $439 $-1 #
edge $-1 $441 -2.9823424169590478 $636 2.9823424169590478 $433 $637 forward 7 unknown #
coedge $-1 $638 $639 $274 $436 forward $428 $-1 #
edge $-1 $640 -69.161349375343974 $440 -56.719753906114228 $435 $641 forward 7 unknown #
edge $-1 $441 79.396967400355521 $640 101.6461684011353 $275 $642 forward 7 unknown #
coedge $-1 $276 $632 $638 $643 forward $439 $-1 #
loop $-1 $-1 $632 $427 #
vertex $-1 $436 $644 #
vertex $-1 $277 $645 #
straight-curve $-1 11.697204380842379 2.9823424169590478 15.227205704697312 -1 0 0 I I #
coedge $-1 $443 $443 $-1 $646 reversed $280 $-1 #
edge $-1 $647 0 $647 6.2831853071796004 $281 $648 forward 7 unknown #
vertex $-1 $284 $649 #
ellipse-curve $-1 41.600372460613634 0 9.0064079700824351 0.55919291073839883 0 0.82903756765294845 0.82903756765294845 0 -0.55919291073839883 1 I I #
face $-1 $-1 $459 $58 $-1 $650 forward single #
loop $-1 $-1 $651 $285 #
plane-surface $-1 50.823084200567649 0 0 -1 0 0 0 0 1 forward_v I I I I #
coedge $-1 $652 $653 $654 $655 reversed $286 $-1 #
coedge $-1 $656 $288 $290 $457 forward $178 $-1 #
coedge $-1 $288 $656 $652 $657 forward $178 $-1 #
coedge $-1 $654 $291 $288 $454 forward $459 $-1 #
edge $-1 $461 -6.5186503994142857 $658 -0.55396556549619014 $453 $659 forward 7 unknown #
coedge $-1 $660 $661 $289 $456 forward $448 $-1 #
edge $-1 $662 -69.161349375343974 $460 -56.719753906114228 $455 $663 forward 7 unknown #
edge $-1 $461 79.396967400355521 $662 101.6461684011353 $290 $664 forward 7 unknown #
coedge $-1 $291 $654 $660 $665 forward $459 $-1 #
loop $-1 $-1 $654 $447 #
vertex $-1 $456 $666 #
vertex $-1 $292 $667 #
straight-curve $-1 11.697204380842379 10.054958381869524 15.227205704697312 -1 0 0 I I #
coedge $-1 $463 $463 $-1 $668 reversed $295 $-1 #
edge $-1 $669 0 $669 6.2831853071796004 $296 $670 forward 7 unknown #
vertex $-1 $299 $671 #
ellipse-curve $-1 41.600372460613634 7.0726159649104758 9.0064079700824351 0.55919291073839883 0 0.82903756765294845 0.82903756765294845 0 -0.55919291073839883 1 I I #
face $-1 $-1 $315 $45 $-1 $672 reversed single #
loop $-1 $-1 $483 $300 #
plane-surface $-1 0 32.231485983760976 0 0 -1 0 0 0 -1 forward_v I I I I #
coedge $-1 $673 $481 $484 $674 forward $301 $-1 #
coedge $-1 $487 $303 $304 $475 reversed $187 $-1 #
coedge $-1 $481 $673 $303 $473 reversed $301 $-1 #
edge $-1 $488 -15.227205704697306 $675 15.227205704697306 $472 $676 forward 7 unknown #
coedge $-1 $305 $304 $673 $677 forward $121 $-1 #
edge $-1 $479 -50.823084200567649 $675 50.823084200567649 $471 $678 forward 7 unknown #
coedge $-1 $484 $483 $305 $477 reversed $468 $-1 #
edge $-1 $679 -50.823084200567649 $478 50.823084200567649 $476 $680 forward 7 unknown #
vertex $-1 $307 $681 #
vertex $-1 $490 $682 #
straight-curve $-1 50.823084200567649 0 -15.227205704697306 0 -1 0 I I #
coedge $-1 $470 $472 $308 $482 reversed $301 $-1 #
edge $-1 $485 -32.231485983760976 $488 32.231485983760976 $481 $683 forward 7 unknown #
coedge $-1 $476 $309 $314 $491 forward $468 $-1 #
coedge $-1 $309 $476 $470 $674 reversed $468 $-1 #
vertex $-1 $310 $684 #
straight-curve $-1 0 32.231485983760976 15.227205704697306 -1 0 0 I I #
coedge $-1 $311 $471 $313 $490 reversed $187 $-1 #
vertex $-1 $482 $685 #
straight-curve $-1 0 -32.231485983760976 15.227205704697306 1 0 0 I I #
edge $-1 $316 -15.227205704697306 $479 15.227205704697306 $313 $686 forward 7 unknown #
edge $-1 $317 -15.227205704697306 $478 15.227205704697306 $314 $687 forward 7 unknown #
point $-1 50.823084200567649 -32.231485983760976 15.227205704697306 #
point $-1 50.823084200567649 32.231485983760976 15.227205704697306 #
face $-1 $-1 $511 $46 $-1 $688 forward single #
loop $-1 $-1 $689 $319 #
plane-surface $-1 -34.596764424831875 -42.211818653714317 0 -1 0 0 0 0 1 forward_v I I I I #
coedge $-1 $690 $322 $501 $691 reversed $195 $-1 #
coedge $-1 $322 $690 $692 $693 reversed $195 $-1 #
coedge $-1 $330 $329 $322 $500 reversed $320 $-1 #
edge $-1 $694 -15.227205704697306 $695 15.227205704697306 $499 $696 forward 7 unknown #
coedge $-1 $324 $323 $497 $691 forward $125 $-1 #
coedge $-1 $507 $689 $323 $503 reversed $495 $-1 #
edge $-1 $505 -9.9803326699533415 $697 9.9803326699533415 $502 $698 forward 7 unknown #
edge $-1 $695 -9.9803326699533415 $331 9.9803326699533415 $329 $699 forward 7 unknown #
vertex $-1 $503 $700 #
straight-curve $-1 0 -32.231485983760976 -15.227205704697306 1 0 0 I I #
coedge $-1 $701 $502 $326 $508 reversed $495 $-1 #
edge $-1 $512 -15.227205704697306 $505 15.227205704697306 $507 $702 forward 7 unknown #
coedge $-1 $692 $327 $330 $514 forward $511 $-1 #
coedge $-1 $327 $692 $701 $703 forward $511 $-1 #
loop $-1 $-1 $327 $494 #
vertex $-1 $328 $704 #
straight-curve $-1 0 -32.231485983760976 15.227205704697306 -1 0 0 I I #
edge $-1 $332 -9.9803326699533415 $694 9.9803326699533415 $330 $705 forward 7 unknown #
point $-1 -39.902191123896401 -32.231485983760976 -15.227205704697306 #
point $-1 -39.902191123896401 -32.231485983760976 15.227205704697306 #
face $-1 $-1 $533 $47 $-1 $706 forward single #
plane-surface $-1 -34.596764424831875 42.211818653714317 0 -1 0 0 0 0 1 forward_v I I I I #
coedge $-1 $707 $708 $536 $709 forward $335 $-1 #
coedge $-1 $529 $337 $338 $525 reversed $203 $-1 #
coedge $-1 $337 $529 $532 $710 reversed $203 $-1 #
coedge $-1 $708 $707 $337 $523 reversed $335 $-1 #
edge $-1 $711 -15.227205704697306 $712 15.227205704697306 $522 $713 forward 7 unknown #
coedge $-1 $339 $338 $707 $714 forward $129 $-1 #
edge $-1 $527 -9.9803326699533415 $712 9.9803326699533415 $520 $715 forward 7 unknown #
edge $-1 $716 -9.9803326699533415 $347 9.9803326699533415 $344 $717 forward 7 unknown #
vertex $-1 $525 $718 #
straight-curve $-1 0 32.231485983760976 -15.227205704697306 -1 0 0 I I #
coedge $-1 $521 $520 $341 $530 reversed $203 $-1 #
edge $-1 $534 -15.227205704697306 $527 15.227205704697306 $529 $719 forward 7 unknown #
coedge $-1 $720 $342 $345 $537 forward $533 $-1 #
coedge $-1 $342 $720 $521 $710 forward $533 $-1 #
loop $-1 $-1 $342 $517 #
vertex $-1 $343 $721 #
straight-curve $-1 0 32.231485983760976 15.227205704697306 1 0 0 I I #
coedge $-1 $345 $344 $519 $709 reversed $346 $-1 #
edge $-1 $348 -9.9803326699533415 $722 9.9803326699533415 $345 $723 forward 7 unknown #
point $-1 -34.596764424831875 32.231485983760976 -15.227205704697306 #
point $-1 -34.596764424831875 32.231485983760976 15.227205704697306 #
plane-surface $-1 0 0 15.227205704697306 0 0 1 1 0 0 forward_v I I I I #
coedge $-1 $551 $550 $543 $724 forward $351 $-1 #
coedge $-1 $543 $353 $355 $547 reversed $211 $-1 #
coedge $-1 $353 $542 $541 $724 reversed $211 $-1 #
coedge $-1 $361 $356 $353 $545 forward $362 $-1 #
edge $-1 $548 -21.453789766442355 $725 -3.0083662865343257 $544 $726 forward 7 unknown #
coedge $-1 $355 $354 $551 $727 reversed $133 $-1 #
edge $-1 $728 -8.6223131303995443e-015 $548 22.249201000779788 $542 $729 forward 7 unknown #
vertex $-1 $357 $730 #
straight-curve $-1 -32.377660720659613 -3.5363079824552379 15.227205704697306 0 1 0 I I #
coedge $-1 $541 $358 $361 $555 reversed $351 $-1 #
coedge $-1 $358 $541 $546 $727 forward $351 $-1 #
vertex $-1 $359 $731 #
straight-curve $-1 -50.823084200567649 -10.054958381869524 43.527051223993375 0 0 1 I I #
straight-curve $-1 -50.823084200567642 -10.054958381869524 2.7856102354675585 -0.82903756765294845 0 -0.55919291073839883 I I #
edge $-1 $725 4.0902735479514281 $363 10.054958381869524 $550 $732 forward 7 unknown #
point $-1 -50.823084200567649 -10.054958381869524 15.227205704697306 #
point $-1 -32.37766072065962 -10.054958381869524 15.227205704697306 #
edge $-1 $733 1 $733 0 $366 $-1 forward 7 unknown #
vertex $-1 $367 $734 #
ellipse-curve $-1 -39.566085753293791 -7.0726159649104758 5.9904539560764389 -0.55919291073839883 0 0.82903756765294845 0.82903756765294845 0 0.55919291073839883 1 I I #
point $-1 -40.771334892960688 -7.0726159649104758 9.565600880820833 #
loop $-1 $-1 $378 $370 #
plane-surface $-1 -50.823084200567649 0 0 1 0 0 0 0 -1 forward_v I I I I #
coedge $-1 $565 $373 $375 $569 reversed $226 $-1 #
coedge $-1 $373 $564 $735 $736 reversed $226 $-1 #
coedge $-1 $381 $376 $373 $567 forward $371 $-1 #
edge $-1 $570 -21.453789766442355 $737 -3.0083662865343257 $566 $738 forward 7 unknown #
coedge $-1 $375 $374 $573 $739 reversed $142 $-1 #
edge $-1 $740 -8.6223131303995443e-015 $570 22.249201000779788 $564 $741 forward 7 unknown #
vertex $-1 $377 $742 #
straight-curve $-1 -32.377660720659613 0 15.227205704697306 0 1 0 I I #
coedge $-1 $735 $378 $381 $577 reversed $562 $-1 #
coedge $-1 $378 $735 $568 $739 forward $562 $-1 #
vertex $-1 $379 $743 #
straight-curve $-1 -50.823084200567649 -2.9823424169590478 43.527051223993375 0 0 1 I I #
straight-curve $-1 -50.823084200567642 -2.9823424169590478 2.7856102354675585 -0.82903756765294845 0 -0.55919291073839883 I I #
edge $-1 $737 -2.9823424169590478 $382 2.9823424169590478 $572 $744 forward 7 unknown #
point $-1 -50.823084200567649 -2.9823424169590478 15.227205704697306 #
point $-1 -32.37766072065962 -2.9823424169590478 15.227205704697306 #
edge $-1 $745 1 $745 0 $385 $-1 forward 7 unknown #
vertex $-1 $386 $746 #
ellipse-curve $-1 -39.566085753293791 0 5.9904539560764389 -0.55919291073839883 0 0.82903756765294845 0.82903756765294845 0 0.55919291073839883 1 I I #
point $-1 -40.771334892960688 0 9.565600880820833 #
loop $-1 $-1 $397 $389 #
plane-surface $-1 -50.823084200567649 0 0 1 0 0 0 0 -1 forward_v I I I I #
coedge $-1 $587 $392 $394 $591 reversed $241 $-1 #
coedge $-1 $392 $586 $747 $748 reversed $241 $-1 #
coedge $-1 $400 $395 $392 $589 forward $390 $-1 #
edge $-1 $592 -21.453789766442355 $749 -3.0083662865343257 $588 $750 forward 7 unknown #
coedge $-1 $394 $393 $595 $751 reversed $151 $-1 #
edge $-1 $752 -8.6223131303995443e-015 $592 22.249201000779788 $586 $753 forward 7 unknown #
vertex $-1 $396 $754 #
straight-curve $-1 -32.377660720659613 3.5363079824552379 15.227205704697306 0 1 0 I I #
coedge $-1 $747 $397 $400 $599 reversed $584 $-1 #
coedge $-1 $397 $747 $590 $751 forward $584 $-1 #
vertex $-1 $398 $755 #
straight-curve $-1 -50.823084200567649 4.0902735479514281 43.527051223993375 0 0 1 I I #
straight-curve $-1 -50.823084200567642 4.0902735479514281 2.7856102354675585 -0.82903756765294845 0 -0.55919291073839883 I I #
edge $-1 $749 -10.054958381869524 $401 -4.0902735479514281 $594 $756 forward 7 unknown #
point $-1 -50.823084200567649 4.0902735479514281 15.227205704697306 #
point $-1 -32.37766072065962 4.0902735479514281 15.227205704697306 #
edge $-1 $757 1 $757 0 $404 $-1 forward 7 unknown #
vertex $-1 $405 $758 #
ellipse-curve $-1 -39.566085753293791 7.0726159649104758 5.9904539560764389 -0.55919291073839883 0 0.82903756765294845 0.82903756765294845 0 0.55919291073839883 1 I I #
point $-1 -40.771334892960688 7.0726159649104758 9.565600880820833 #
loop $-1 $-1 $416 $408 #
plane-surface $-1 50.823084200567649 0 0 -1 0 0 0 0 1 forward_v I I I I #
coedge $-1 $609 $411 $413 $613 reversed $256 $-1 #
coedge $-1 $411 $608 $759 $760 reversed $256 $-1 #
coedge $-1 $419 $414 $411 $611 forward $409 $-1 #
edge $-1 $614 20.680456339817248 $761 39.12587981972527 $610 $762 forward 7 unknown #
coedge $-1 $413 $412 $617 $763 reversed $160 $-1 #
edge $-1 $764 -101.6461684011353 $614 -79.396967400355521 $608 $765 forward 7 unknown #
vertex $-1 $415 $766 #
straight-curve $-1 32.377660720659648 -3.5363079824552379 15.227205704697305 0 -1 0 I I #
coedge $-1 $759 $416 $419 $621 reversed $606 $-1 #
coedge $-1 $416 $759 $612 $763 forward $606 $-1 #
vertex $-1 $417 $767 #
straight-curve $-1 50.823084200567649 -4.0902735479514281 71.946959610811533 0 0 1 I I #
straight-curve $-1 -33.44540801195155 -4.0902735479514281 59.625427009103873 0.82903756765294845 0 -0.55919291073839883 I I #
edge $-1 $761 -10.054958381869524 $420 -4.0902735479514281 $616 $768 forward 7 unknown #
point $-1 50.823084200567649 -4.0902735479514281 15.227205704697306 #
point $-1 32.377660720659627 -4.0902735479514281 15.227205704697305 #
edge $-1 $769 1 $769 0 $423 $-1 forward 7 unknown #
vertex $-1 $424 $770 #
ellipse-curve $-1 39.566085753293791 -7.0726159649104758 5.9904539560764354 0.55919291073839883 0 0.82903756765294845 0.82903756765294845 0 -0.55919291073839883 1 I I #
point $-1 42.429410028266581 -7.0726159649104758 8.4472150593440318 #
plane-surface $-1 0 0 15.227205704697306 0 0 1 1 0 0 forward_v I I I I #
coedge $-1 $639 $638 $631 $771 forward $428 $-1 #
coedge $-1 $631 $430 $432 $635 reversed $271 $-1 #
coedge $-1 $430 $630 $629 $771 reversed $271 $-1 #
coedge $-1 $438 $433 $430 $633 forward $439 $-1 #
edge $-1 $636 20.680456339817248 $772 39.12587981972527 $632 $773 forward 7 unknown #
coedge $-1 $432 $431 $639 $774 reversed $169 $-1 #
edge $-1 $775 -101.6461684011353 $636 -79.396967400355521 $630 $776 forward 7 unknown #
vertex $-1 $434 $777 #
straight-curve $-1 32.377660720659648 0 15.227205704697305 0 -1 0 I I #
coedge $-1 $629 $435 $438 $643 reversed $428 $-1 #
coedge $-1 $435 $629 $634 $774 forward $428 $-1 #
vertex $-1 $436 $778 #
straight-curve $-1 50.823084200567649 2.9823424169590478 71.946959610811533 0 0 1 I I #
straight-curve $-1 -33.44540801195155 2.9823424169590478 59.625427009103873 0.82903756765294845 0 -0.55919291073839883 I I #
edge $-1 $772 -2.9823424169590478 $440 2.9823424169590478 $638 $779 forward 7 unknown #
point $-1 50.823084200567649 2.9823424169590478 15.227205704697306 #
point $-1 32.377660720659627 2.9823424169590478 15.227205704697305 #
edge $-1 $780 1 $780 0 $443 $-1 forward 7 unknown #
vertex $-1 $444 $781 #
ellipse-curve $-1 39.566085753293791 0 5.9904539560764354 0.55919291073839883 0 0.82903756765294845 0.82903756765294845 0 -0.55919291073839883 1 I I #
point $-1 42.429410028266581 0 8.4472150593440318 #
plane-surface $-1 0 0 15.227205704697306 0 0 1 1 0 0 forward_v I I I I #
coedge $-1 $661 $660 $653 $782 forward $448 $-1 #
coedge $-1 $653 $450 $452 $657 reversed $286 $-1 #
coedge $-1 $450 $652 $651 $782 reversed $286 $-1 #
coedge $-1 $458 $453 $450 $655 forward $459 $-1 #
edge $-1 $658 20.680456339817248 $783 39.12587981972527 $654 $784 forward 7 unknown #
coedge $-1 $452 $451 $661 $785 reversed $178 $-1 #
edge $-1 $786 -101.6461684011353 $658 -79.396967400355521 $652 $787 forward 7 unknown #
vertex $-1 $454 $788 #
straight-curve $-1 32.377660720659648 3.5363079824552379 15.227205704697305 0 -1 0 I I #
coedge $-1 $651 $455 $458 $665 reversed $448 $-1 #
coedge $-1 $455 $651 $656 $785 forward $448 $-1 #
vertex $-1 $456 $789 #
straight-curve $-1 50.823084200567649 10.054958381869524 71.946959610811533 0 0 1 I I #
straight-curve $-1 -33.44540801195155 10.054958381869524 59.625427009103873 0.82903756765294845 0 -0.55919291073839883 I I #
edge $-1 $783 4.0902735479514281 $460 10.054958381869524 $660 $790 forward 7 unknown #
point $-1 50.823084200567649 10.054958381869524 15.227205704697306 #
point $-1 32.377660720659627 10.054958381869524 15.227205704697305 #
edge $-1 $791 1 $791 0 $463 $-1 forward 7 unknown #
vertex $-1 $464 $792 #
ellipse-curve $-1 39.566085753293791 7.0726159649104758 5.9904539560764354 0.55919291073839883 0 0.82903756765294845 0.82903756765294845 0 -0.55919291073839883 1 I I #
point $-1 42.429410028266581 7.0726159649104758 8.4472150593440318 #
plane-surface $-1 50.823084200567649 0 0 -1 0 0 0 0 1 forward_v I I I I #
coedge $-1 $472 $470 $474 $677 reversed $301 $-1 #
edge $-1 $485 -15.227205704697306 $679 15.227205704697306 $484 $793 forward 7 unknown #
vertex $-1 $677 $794 #
straight-curve $-1 -50.823084200567649 -32.231485983760976 0 0 0 -1 I I #
edge $-1 $675 -32.231485983760976 $679 32.231485983760976 $673 $795 forward 7 unknown #
straight-curve $-1 0 -32.231485983760976 -15.227205704697306 -1 0 0 I I #
vertex $-1 $477 $796 #
straight-curve $-1 0 32.231485983760976 -15.227205704697306 1 0 0 I I #
point $-1 50.823084200567649 32.231485983760976 -15.227205704697306 #
point $-1 50.823084200567649 -32.231485983760976 -15.227205704697306 #
straight-curve $-1 -50.823084200567649 0 15.227205704697306 0 -1 0 I I #
point $-1 -50.823084200567649 32.231485983760976 15.227205704697306 #
point $-1 -50.823084200567649 -32.231485983760976 15.227205704697306 #
straight-curve $-1 50.823084200567649 -32.231485983760976 0 0 0 -1 I I #
straight-curve $-1 50.823084200567649 32.231485983760976 0 0 0 -1 I I #
plane-surface $-1 0 0 15.227205704697306 0 0 1 1 0 0 forward_v I I I I #
coedge $-1 $502 $701 $690 $797 forward $495 $-1 #
coedge $-1 $498 $497 $689 $797 reversed $195 $-1 #
edge $-1 $697 -2.652713349532263 $695 2.652713349532263 $497 $798 forward 7 unknown #
coedge $-1 $510 $509 $498 $693 forward $511 $-1 #
edge $-1 $694 -2.652713349532263 $799 2.652713349532263 $498 $800 forward 7 unknown #
vertex $-1 $514 $801 #
vertex $-1 $504 $802 #
straight-curve $-1 -39.902191123896401 -52.192151323667659 0 0 0 -1 I I #
vertex $-1 $797 $803 #
straight-curve $-1 -34.596764424831875 -42.211818653714317 -15.227205704697306 0 -1 0 I I #
straight-curve $-1 -39.902191123896401 -42.211818653714317 -15.227205704697306 0 1 0 I I #
point $-1 -34.596764424831875 -32.231485983760976 -15.227205704697306 #
coedge $-1 $689 $507 $510 $703 reversed $495 $-1 #
straight-curve $-1 -34.596764424831875 -32.231485983760976 0 0 0 -1 I I #
edge $-1 $799 -9.9803326699533415 $512 9.9803326699533415 $701 $804 forward 7 unknown #
point $-1 -34.596764424831875 -32.231485983760976 15.227205704697306 #
straight-curve $-1 -39.902191123896401 -42.211818653714317 15.227205704697306 0 -1 0 I I #
plane-surface $-1 0 0 15.227205704697306 0 0 1 1 0 0 forward_v I I I I #
coedge $-1 $522 $519 $524 $714 reversed $335 $-1 #
coedge $-1 $519 $522 $720 $805 reversed $335 $-1 #
edge $-1 $722 -15.227205704697306 $716 15.227205704697306 $536 $806 forward 7 unknown #
edge $-1 $711 -9.9803326699533415 $534 9.9803326699533415 $521 $807 forward 7 unknown #
vertex $-1 $805 $808 #
vertex $-1 $714 $809 #
straight-curve $-1 -39.902191123896401 52.192151323667659 0 0 0 -1 I I #
edge $-1 $712 -2.652713349532263 $716 2.652713349532263 $707 $810 forward 7 unknown #
straight-curve $-1 -39.902191123896401 42.211818653714317 -15.227205704697306 0 1 0 I I #
vertex $-1 $526 $811 #
straight-curve $-1 -34.596764424831875 42.211818653714317 -15.227205704697306 0 -1 0 I I #
point $-1 -39.902191123896401 32.231485983760976 -15.227205704697306 #
straight-curve $-1 -39.902191123896401 32.231485983760976 0 0 0 -1 I I #
coedge $-1 $532 $531 $708 $805 forward $533 $-1 #
point $-1 -39.902191123896401 32.231485983760976 15.227205704697306 #
vertex $-1 $537 $812 #
straight-curve $-1 -34.596764424831875 42.211818653714317 15.227205704697306 0 1 0 I I #
edge $-1 $725 28.299845519296071 $728 40.741440988525824 $541 $813 forward 7 unknown #
vertex $-1 $555 $814 #
straight-curve $-1 -53.831450487101975 -4.0902735479514281 15.227205704697305 -1 0 0 I I #
edge $-1 $728 0.55396556549619014 $552 6.5186503994142857 $551 $815 forward 7 unknown #
vertex $-1 $727 $816 #
straight-curve $-1 -50.823084200567642 -4.0902735479514281 2.7856102354675585 0.82903756765294845 0 0.55919291073839883 I I #
point $-1 -32.37766072065962 -4.0902735479514281 15.227205704697306 #
point $-1 -50.823084200567649 -10.054958381869524 2.7856102354675536 #
straight-curve $-1 -50.823084200567649 0 15.227205704697306 0 -1 0 I I #
vertex $-1 $558 $817 #
point $-1 -38.737048185640838 -7.0726159649104758 6.5496468668148378 #
coedge $-1 $573 $572 $565 $736 forward $562 $-1 #
edge $-1 $737 28.299845519296071 $740 40.741440988525824 $735 $818 forward 7 unknown #
vertex $-1 $577 $819 #
straight-curve $-1 -53.831450487101975 2.9823424169590478 15.227205704697305 -1 0 0 I I #
edge $-1 $740 -2.9823424169590478 $574 2.9823424169590478 $573 $820 forward 7 unknown #
vertex $-1 $739 $821 #
straight-curve $-1 -50.823084200567642 2.9823424169590478 2.7856102354675585 0.82903756765294845 0 0.55919291073839883 I I #
point $-1 -32.37766072065962 2.9823424169590478 15.227205704697306 #
point $-1 -50.823084200567649 -2.9823424169590478 2.7856102354675536 #
straight-curve $-1 -50.823084200567649 0 15.227205704697306 0 -1 0 I I #
vertex $-1 $580 $822 #
point $-1 -38.737048185640838 0 6.5496468668148378 #
coedge $-1 $595 $594 $587 $748 forward $584 $-1 #
edge $-1 $749 28.299845519296071 $752 40.741440988525824 $747 $823 forward 7 unknown #
vertex $-1 $599 $824 #
straight-curve $-1 -53.831450487101975 10.054958381869524 15.227205704697305 -1 0 0 I I #
edge $-1 $752 -6.5186503994142857 $596 -0.55396556549619014 $595 $825 forward 7 unknown #
vertex $-1 $751 $826 #
straight-curve $-1 -50.823084200567642 10.054958381869524 2.7856102354675585 0.82903756765294845 0 0.55919291073839883 I I #
point $-1 -32.37766072065962 10.054958381869524 15.227205704697306 #
point $-1 -50.823084200567649 4.0902735479514281 2.7856102354675536 #
straight-curve $-1 -50.823084200567649 0 15.227205704697306 0 -1 0 I I #
vertex $-1 $602 $827 #
point $-1 -38.737048185640838 7.0726159649104758 6.5496468668148378 #
coedge $-1 $617 $616 $609 $760 forward $606 $-1 #
edge $-1 $761 56.719753906114228 $764 69.161349375343974 $759 $828 forward 7 unknown #
vertex $-1 $621 $829 #
straight-curve $-1 11.697204380842379 -10.054958381869524 15.227205704697312 1 0 0 I I #
edge $-1 $764 -6.5186503994142857 $618 -0.55396556549619014 $617 $830 forward 7 unknown #
vertex $-1 $763 $831 #
straight-curve $-1 -33.44540801195155 -10.054958381869524 59.625427009103873 -0.82903756765294845 0 0.55919291073839883 I I #
point $-1 32.377660720659627 -10.054958381869524 15.227205704697305 #
point $-1 50.823084200567642 -4.0902735479514281 2.7856102354675656 #
straight-curve $-1 50.823084200567649 0 15.227205704697306 0 1 0 I I #
vertex $-1 $624 $832 #
point $-1 40.395123320946738 -7.0726159649104758 5.4312610453380366 #
edge $-1 $772 56.719753906114228 $775 69.161349375343974 $629 $833 forward 7 unknown #
vertex $-1 $643 $834 #
straight-curve $-1 11.697204380842379 -2.9823424169590478 15.227205704697312 1 0 0 I I #
edge $-1 $775 -2.9823424169590478 $640 2.9823424169590478 $639 $835 forward 7 unknown #
vertex $-1 $774 $836 #
straight-curve $-1 -33.44540801195155 -2.9823424169590478 59.625427009103873 -0.82903756765294845 0 0.55919291073839883 I I #
point $-1 32.377660720659627 -2.9823424169590478 15.227205704697305 #
point $-1 50.823084200567642 2.9823424169590478 2.7856102354675656 #
straight-curve $-1 50.823084200567649 0 15.227205704697306 0 1 0 I I #
vertex $-1 $646 $837 #
point $-1 40.395123320946738 0 5.4312610453380366 #
edge $-1 $783 56.719753906114228 $786 69.161349375343974 $651 $838 forward 7 unknown #
vertex $-1 $665 $839 #
straight-curve $-1 11.697204380842379 4.0902735479514281 15.227205704697312 1 0 0 I I #
edge $-1 $786 0.55396556549619014 $662 6.5186503994142857 $661 $840 forward 7 unknown #
vertex $-1 $785 $841 #
straight-curve $-1 -33.44540801195155 4.0902735479514281 59.625427009103873 -0.82903756765294845 0 0.55919291073839883 I I #
point $-1 32.377660720659627 4.0902735479514281 15.227205704697305 #
point $-1 50.823084200567642 10.054958381869524 2.7856102354675656 #
straight-curve $-1 50.823084200567649 0 15.227205704697306 0 1 0 I I #
vertex $-1 $668 $842 #
point $-1 40.395123320946738 7.0726159649104758 5.4312610453380366 #
straight-curve $-1 -50.823084200567649 32.231485983760976 0 0 0 -1 I I #
point $-1 -50.823084200567649 -32.231485983760976 -15.227205704697306 #
straight-curve $-1 -50.823084200567649 0 -15.227205704697306 0 1 0 I I #
point $-1 -50.823084200567649 32.231485983760976 -15.227205704697306 #
edge $-1 $799 -15.227205704697306 $697 15.227205704697306 $689 $843 forward 7 unknown #
straight-curve $-1 -37.249477774364138 -52.192151323667659 -15.227205704697306 -1 0 0 I I #
vertex $-1 $703 $844 #
straight-curve $-1 -37.249477774364138 -52.192151323667659 15.227205704697306 1 0 0 I I #
point $-1 -39.902191123896401 -52.192151323667659 15.227205704697306 #
point $-1 -39.902191123896401 -52.192151323667659 -15.227205704697306 #
point $-1 -34.596764424831875 -52.192151323667659 -15.227205704697306 #
straight-curve $-1 -34.596764424831875 -42.211818653714317 15.227205704697306 0 1 0 I I #
edge $-1 $722 -2.652713349532263 $711 2.652713349532263 $708 $845 forward 7 unknown #
straight-curve $-1 -34.596764424831875 52.192151323667659 0 0 0 -1 I I #
straight-curve $-1 -39.902191123896401 42.211818653714317 15.227205704697306 0 -1 0 I I #
point $-1 -39.902191123896401 52.192151323667659 15.227205704697306 #
point $-1 -39.902191123896401 52.192151323667659 -15.227205704697306 #
straight-curve $-1 -37.249477774364138 52.192151323667659 -15.227205704697306 1 0 0 I I #
point $-1 -34.596764424831875 52.192151323667659 -15.227205704697306 #
point $-1 -34.596764424831875 52.192151323667659 15.227205704697306 #
straight-curve $-1 -50.823084200567649 -4.0902735479514281 43.527051223993375 0 0 -1 I I #
point $-1 -50.823084200567649 -4.0902735479514281 15.227205704697306 #
straight-curve $-1 -50.823084200567649 -3.5363079824552379 2.7856102354675549 0 -1 0 I I #
point $-1 -50.823084200567649 -4.0902735479514281 2.7856102354675536 #
point $-1 -39.006892842555388 -7.0726159649104758 5.1614163884234907 #
straight-curve $-1 -50.823084200567649 2.9823424169590478 43.527051223993375 0 0 -1 I I #
point $-1 -50.823084200567649 2.9823424169590478 15.227205704697306 #
straight-curve $-1 -50.823084200567649 0 2.7856102354675549 0 -1 0 I I #
point $-1 -50.823084200567649 2.9823424169590478 2.7856102354675536 #
point $-1 -39.006892842555388 0 5.1614163884234907 #
straight-curve $-1 -50.823084200567649 10.054958381869524 43.527051223993375 0 0 -1 I I #
point $-1 -50.823084200567649 10.054958381869524 15.227205704697306 #
straight-curve $-1 -50.823084200567649 3.5363079824552379 2.7856102354675549 0 -1 0 I I #
point $-1 -50.823084200567649 10.054958381869524 2.7856102354675536 #
point $-1 -39.006892842555388 7.0726159649104758 5.1614163884234907 #
straight-curve $-1 50.823084200567649 -10.054958381869524 71.946959610811533 0 0 -1 I I #
point $-1 50.823084200567649 -10.054958381869524 15.227205704697306 #
straight-curve $-1 50.823084200567656 -3.5363079824552379 2.7856102354675585 0 1 0 I I #
point $-1 50.823084200567642 -10.054958381869524 2.7856102354675656 #
point $-1 39.006892842555388 -7.0726159649104758 5.1614163884234872 #
straight-curve $-1 50.823084200567649 -2.9823424169590478 71.946959610811533 0 0 -1 I I #
point $-1 50.823084200567649 -2.9823424169590478 15.227205704697306 #
straight-curve $-1 50.823084200567656 0 2.7856102354675585 0 1 0 I I #
point $-1 50.823084200567642 -2.9823424169590478 2.7856102354675656 #
point $-1 39.006892842555388 0 5.1614163884234872 #
straight-curve $-1 50.823084200567649 4.0902735479514281 71.946959610811533 0 0 -1 I I #
point $-1 50.823084200567649 4.0902735479514281 15.227205704697306 #
straight-curve $-1 50.823084200567656 3.5363079824552379 2.7856102354675585 0 1 0 I I #
point $-1 50.823084200567642 4.0902735479514281 2.7856102354675656 #
point $-1 39.006892842555388 7.0726159649104758 5.1614163884234872 #
straight-curve $-1 -34.596764424831875 -52.192151323667659 0 0 0 -1 I I #
point $-1 -34.596764424831875 -52.192151323667659 15.227205704697306 #
straight-curve $-1 -37.249477774364138 52.192151323667659 15.227205704697306 -1 0 0 I I #
End-of-ACIS-data 