500 0 11 0           
7 Unknown 11 ACIS 5.0 NT 24 Thu Mar 25 21:45:59 1999 
-1 9.9999999999999995e-007 1e-010 
body $-1 $11 $-1 $12 #
body $-1 $13 $-1 $14 #
body $-1 $15 $-1 $16 #
body $-1 $17 $-1 $18 #
body $-1 $19 $-1 $20 #
body $-1 $21 $-1 $22 #
body $-1 $23 $-1 $24 #
body $-1 $25 $-1 $26 #
body $-1 $27 $-1 $28 #
body $-1 $29 $-1 $30 #
body $-1 $31 $-1 $32 #
lump $-1 $-1 $33 $0 #
transform $-1 1 0 0 0 1 0 0 0 1 42.72835474715415 20.153277681258359 6.3239849985188323 1 rotate no_reflect no_shear #
lump $-1 $-1 $34 $1 #
transform $-1 1 0 0 0 1 0 0 0 1 42.72835474715415 20.153277681258359 6.3239849985188323 1 rotate no_reflect no_shear #
lump $-1 $-1 $35 $2 #
transform $-1 1 0 0 0 1 0 0 0 1 42.72835474715415 20.153277681258359 6.3239849985188323 1 rotate no_reflect no_shear #
lump $-1 $-1 $36 $3 #
transform $-1 1 0 0 0 1 0 0 0 1 42.72835474715415 20.153277681258359 6.3239849985188323 1 rotate no_reflect no_shear #
lump $-1 $-1 $37 $4 #
transform $-1 1 0 0 0 1 0 0 0 1 42.72835474715415 20.153277681258359 6.3239849985188323 1 rotate no_reflect no_shear #
lump $-1 $-1 $38 $5 #
transform $-1 1 0 0 0 1 0 0 0 1 42.72835474715415 20.153277681258359 6.3239849985188323 1 rotate no_reflect no_shear #
lump $-1 $-1 $39 $6 #
transform $-1 1 0 0 0 1 0 0 0 1 42.72835474715415 20.153277681258359 6.3239849985188323 1 rotate no_reflect no_shear #
lump $-1 $-1 $40 $7 #
transform $-1 1 0 0 0 1 0 0 0 1 42.72835474715415 20.153277681258359 6.3239849985188323 1 rotate no_reflect no_shear #
lump $-1 $-1 $41 $8 #
transform $-1 1 0 0 0 1 0 0 0 1 42.72835474715415 20.153277681258359 6.3239849985188323 1 rotate no_reflect no_shear #
lump $-1 $-1 $42 $9 #
transform $-1 1 0 0 0 1 0 0 0 1 42.72835474715415 20.153277681258359 6.3239849985188323 1 rotate no_reflect no_shear #
lump $-1 $-1 $43 $10 #
transform $-1 1 0 0 0 1 0 0 0 1 42.72835474715415 20.153277681258359 6.3239849985188323 1 rotate no_reflect no_shear #
shell $-1 $-1 $-1 $44 $-1 $11 #
shell $-1 $-1 $-1 $45 $-1 $13 #
shell $-1 $-1 $-1 $46 $-1 $15 #
shell $-1 $-1 $-1 $47 $-1 $17 #
shell $-1 $-1 $-1 $48 $-1 $19 #
shell $-1 $-1 $-1 $49 $-1 $21 #
shell $-1 $-1 $-1 $50 $-1 $23 #
shell $-1 $-1 $-1 $51 $-1 $25 #
shell $-1 $-1 $-1 $52 $-1 $27 #
shell $-1 $-1 $-1 $53 $-1 $29 #
shell $-1 $-1 $-1 $54 $-1 $31 #
face $-1 $55 $56 $33 $-1 $57 reversed single #
face $-1 $58 $59 $34 $-1 $60 forward single #
face $-1 $61 $62 $35 $-1 $63 reversed single #
face $-1 $64 $65 $36 $-1 $66 forward single #
face $-1 $67 $68 $37 $-1 $69 forward single #
face $-1 $70 $71 $38 $-1 $72 reversed single #
face $-1 $73 $74 $39 $-1 $75 forward single #
face $-1 $76 $77 $40 $-1 $78 forward single #
face $-1 $79 $80 $41 $-1 $81 reversed single #
face $-1 $82 $83 $42 $-1 $84 forward single #
face $-1 $85 $86 $43 $-1 $87 forward single #
face $-1 $88 $89 $33 $-1 $90 forward single #
loop $-1 $-1 $91 $44 #
plane-surface $-1 -42.72835474715415 0 0 1 0 0 0 0 -1 forward_v I I I I #
face $-1 $92 $93 $34 $-1 $94 reversed single #
loop $-1 $-1 $95 $45 #
plane-surface $-1 -42.72835474715415 0 0 1 0 0 0 0 -1 forward_v I I I I #
face $-1 $96 $97 $35 $-1 $98 reversed single #
loop $-1 $-1 $99 $46 #
plane-surface $-1 -17.773015378300578 53.62640500750301 89.513169965004636 1 0 0 0 -0.71933980857756763 -0.69465836192734942 forward_v I I I I #
face $-1 $100 $101 $36 $-1 $102 forward single #
loop $-1 $103 $104 $47 #
cone-surface $-1 -13.738745855237802 17.019920653220986 3.123854063276073 0 -0.71933980857756763 -0.69465836192734942 1.5 0 0 1 I I 0 1 1.5 forward I I I I #
face $-1 $105 $106 $37 $-1 $107 forward single #
loop $-1 $108 $109 $48 #
cone-surface $-1 -7.687341570643639 17.019920653220986 3.123854063276073 0 -0.71933980857756763 -0.69465836192734942 1.5 0 0 1 I I 0 1 1.5 forward I I I I #
face $-1 $110 $111 $38 $-1 $112 reversed single #
loop $-1 $-1 $113 $49 #
plane-surface $-1 10.93062064975526 53.62640500750301 89.513169965004636 1 0 0 0 -0.71933980857756763 -0.69465836192734942 forward_v I I I I #
face $-1 $114 $115 $39 $-1 $116 forward single #
loop $-1 $117 $118 $50 #
cone-surface $-1 14.964890172818038 17.019920653220986 3.123854063276073 0 -0.71933980857756763 -0.69465836192734942 1.5 0 0 1 I I 0 1 1.5 forward I I I I #
face $-1 $119 $120 $40 $-1 $121 forward single #
loop $-1 $122 $123 $51 #
cone-surface $-1 21.016294457412201 17.019920653220986 3.123854063276073 0 -0.71933980857756763 -0.69465836192734942 1.5 0 0 1 I I 0 1 1.5 forward I I I I #
face $-1 $124 $125 $41 $-1 $126 reversed single #
loop $-1 $-1 $127 $52 #
plane-surface $-1 -26.179392792803991 -87.494084436014134 55.163391763709889 -1 0 0 0 -0.78801076186113728 0.61566146476048833 forward_v I I I I #
face $-1 $128 $129 $42 $-1 $130 forward single #
loop $-1 $131 $132 $53 #
cone-surface $-1 -32.801830901500963 -17.830421147377749 3.7742045473759402 0 0.78801076186113728 -0.61566146476048833 1 0 0 1 I I 0 1 1 forward I I I I #
face $-1 $133 $134 $43 $-1 $135 forward single #
loop $-1 $136 $137 $54 #
cone-surface $-1 -28.828368036282782 -17.830421147377749 3.7742045473759402 0 0.78801076186113728 -0.61566146476048833 1 0 0 1 I I 0 1 1 forward I I I I #
face $-1 $138 $139 $33 $-1 $140 reversed single #
loop $-1 $-1 $141 $55 #
plane-surface $-1 0 0 6.3239849985188323 0 0 1 1 0 0 forward_v I I I I #
coedge $-1 $142 $143 $144 $145 reversed $56 $-1 #
face $-1 $146 $147 $34 $-1 $148 reversed single #
loop $-1 $-1 $149 $58 #
plane-surface $-1 0 0 -6.3239849985188323 0 0 1 1 0 0 forward_v I I I I #
coedge $-1 $150 $151 $152 $153 forward $59 $-1 #
face $-1 $154 $155 $35 $-1 $156 reversed single #
loop $-1 $-1 $157 $61 #
plane-surface $-1 -10.713043712940717 -7.8460080418015252 30.149952131987064 0 0.71933980857756763 0.69465836192734942 1 0 0 forward_v I I I I #
coedge $-1 $158 $159 $160 $161 reversed $62 $-1 #
face $-1 $-1 $162 $36 $-1 $163 forward single #
loop $-1 $164 $165 $64 #
cone-surface $-1 -13.738745855237802 15.842467398479762 1.9868006993006437 0 -0.71933980857756763 -0.69465836192734942 0.75 0 0 1 I I -0.70710678118654757 0.70710678118654757 0.75 forward I I I I #
loop $-1 $-1 $166 $47 #
coedge $-1 $104 $104 $167 $168 reversed $65 $-1 #
face $-1 $-1 $169 $37 $-1 $170 forward single #
loop $-1 $171 $172 $67 #
cone-surface $-1 -7.687341570643639 15.842467398479762 1.9868006993006437 0 -0.71933980857756763 -0.69465836192734942 0.75 0 0 1 I I -0.70710678118654757 0.70710678118654757 0.75 forward I I I I #
loop $-1 $-1 $173 $48 #
coedge $-1 $109 $109 $174 $175 reversed $68 $-1 #
face $-1 $176 $177 $38 $-1 $178 reversed single #
loop $-1 $-1 $179 $70 #
plane-surface $-1 17.990592315115123 -7.8460080418015252 30.149952131987064 0 0.71933980857756763 0.69465836192734942 1 0 0 forward_v I I I I #
coedge $-1 $180 $181 $182 $183 reversed $71 $-1 #
face $-1 $-1 $184 $39 $-1 $185 forward single #
loop $-1 $186 $187 $73 #
cone-surface $-1 14.964890172818038 15.842467398479762 1.9868006993006437 0 -0.71933980857756763 -0.69465836192734942 0.75 0 0 1 I I -0.70710678118654757 0.70710678118654757 0.75 forward I I I I #
loop $-1 $-1 $188 $50 #
coedge $-1 $118 $118 $189 $190 reversed $74 $-1 #
face $-1 $-1 $191 $40 $-1 $192 forward single #
loop $-1 $193 $194 $76 #
cone-surface $-1 21.016294457412201 15.842467398479762 1.9868006993006437 0 -0.71933980857756763 -0.69465836192734942 0.75 0 0 1 I I -0.70710678118654757 0.70710678118654757 0.75 forward I I I I #
loop $-1 $-1 $195 $51 #
coedge $-1 $123 $123 $196 $197 reversed $77 $-1 #
face $-1 $198 $199 $41 $-1 $200 reversed single #
loop $-1 $-1 $201 $79 #
plane-surface $-1 -30.815099468891873 -20.153277681258373 2.5509888228325082 0 -0.78801076186113728 0.61566146476048833 1 0 0 forward_v I I I I #
coedge $-1 $202 $203 $204 $205 reversed $80 $-1 #
face $-1 $-1 $206 $42 $-1 $207 forward single #
loop $-1 $208 $209 $82 #
cone-surface $-1 -32.801830901500963 -16.587453032298768 2.8030914516959617 0 0.78801076186113728 -0.61566146476048833 0.5 0 0 1 I I -0.70710678118654746 0.70710678118654746 0.5 forward I I I I #
loop $-1 $-1 $210 $53 #
coedge $-1 $132 $132 $211 $212 reversed $83 $-1 #
face $-1 $-1 $213 $43 $-1 $214 forward single #
loop $-1 $215 $216 $85 #
cone-surface $-1 -28.828368036282782 -16.587453032298768 2.8030914516959617 0 0.78801076186113728 -0.61566146476048833 0.5 0 0 1 I I -0.70710678118654746 0.70710678118654746 0.5 forward I I I I #
loop $-1 $-1 $217 $54 #
coedge $-1 $137 $137 $218 $219 reversed $86 $-1 #
face $-1 $220 $221 $33 $-1 $222 reversed single #
loop $-1 $-1 $223 $88 #
plane-surface $-1 0 0 -6.3239849985188323 0 0 1 1 0 0 forward_v I I I I #
coedge $-1 $224 $225 $226 $227 forward $89 $-1 #
coedge $-1 $228 $91 $229 $230 reversed $56 $-1 #
coedge $-1 $91 $228 $231 $232 forward $56 $-1 #
coedge $-1 $233 $234 $91 $145 forward $139 $-1 #
edge $-1 $235 -20.153277681258359 $236 20.153277681258359 $91 $237 forward 7 unknown #
face $-1 $238 $239 $34 $-1 $240 reversed single #
loop $-1 $-1 $241 $92 #
plane-surface $-1 -46.367129048241345 -18.994023096191885 0 0 1 0 0 0 1 forward_v I I I I #
coedge $-1 $242 $243 $151 $244 forward $93 $-1 #
coedge $-1 $245 $95 $246 $247 reversed $59 $-1 #
coedge $-1 $95 $245 $149 $244 reversed $59 $-1 #
coedge $-1 $248 $249 $95 $153 reversed $250 $-1 #
edge $-1 $251 -6.3239849985188323 $252 6.3239849985188323 $152 $253 forward 7 unknown #
face $-1 $254 $255 $35 $-1 $256 forward single #
loop $-1 $-1 $257 $96 #
plane-surface $-1 -3.6530720475808547 53.62640500750301 89.513169965004636 -1 0 0 0 0.71933980857756763 0.69465836192734942 forward_v I I I I #
coedge $-1 $258 $259 $260 $261 reversed $97 $-1 #
coedge $-1 $159 $99 $262 $263 reversed $62 $-1 #
coedge $-1 $99 $158 $258 $264 reversed $62 $-1 #
coedge $-1 $260 $265 $99 $161 forward $255 $-1 #
edge $-1 $266 6.6599248224931458 $267 11.650742081951801 $160 $268 forward 7 unknown #
loop $-1 $-1 $167 $100 #
plane-surface $-1 -10.713043712940717 -7.8460080418015252 30.149952131987064 0 0.71933980857756763 0.69465836192734942 1 0 0 forward_v I I I I #
loop $-1 $-1 $269 $64 #
coedge $-1 $165 $165 $166 $270 reversed $101 $-1 #
coedge $-1 $166 $166 $165 $270 forward $103 $-1 #
coedge $-1 $167 $167 $104 $168 forward $162 $-1 #
edge $-1 $271 1.5450995605206164e-016 $271 6.2831853071796004 $167 $272 forward 7 unknown #
loop $-1 $-1 $174 $105 #
plane-surface $-1 -10.713043712940717 -7.8460080418015252 30.149952131987064 0 0.71933980857756763 0.69465836192734942 1 0 0 forward_v I I I I #
loop $-1 $-1 $273 $67 #
coedge $-1 $172 $172 $173 $274 reversed $106 $-1 #
coedge $-1 $173 $173 $172 $274 forward $108 $-1 #
coedge $-1 $174 $174 $109 $175 forward $169 $-1 #
edge $-1 $275 1.5450995605206164e-016 $275 6.2831853071796004 $174 $276 forward 7 unknown #
face $-1 $277 $278 $38 $-1 $279 forward single #
loop $-1 $-1 $280 $110 #
plane-surface $-1 25.050563980474983 53.62640500750301 89.513169965004636 -1 0 0 0 0.71933980857756763 0.69465836192734942 forward_v I I I I #
coedge $-1 $281 $282 $283 $284 reversed $111 $-1 #
coedge $-1 $181 $113 $285 $286 reversed $71 $-1 #
coedge $-1 $113 $180 $281 $287 reversed $71 $-1 #
coedge $-1 $283 $288 $113 $183 forward $278 $-1 #
edge $-1 $289 6.6599248224931458 $290 11.650742081951801 $182 $291 forward 7 unknown #
loop $-1 $-1 $189 $114 #
plane-surface $-1 17.990592315115123 -7.8460080418015252 30.149952131987064 0 0.71933980857756763 0.69465836192734942 1 0 0 forward_v I I I I #
loop $-1 $-1 $292 $73 #
coedge $-1 $187 $187 $188 $293 reversed $115 $-1 #
coedge $-1 $188 $188 $187 $293 forward $117 $-1 #
coedge $-1 $189 $189 $118 $190 forward $184 $-1 #
edge $-1 $294 1.5450995605206164e-016 $294 6.2831853071796004 $189 $295 forward 7 unknown #
loop $-1 $-1 $196 $119 #
plane-surface $-1 17.990592315115123 -7.8460080418015252 30.149952131987064 0 0.71933980857756763 0.69465836192734942 1 0 0 forward_v I I I I #
loop $-1 $-1 $296 $76 #
coedge $-1 $194 $194 $195 $297 reversed $120 $-1 #
coedge $-1 $195 $195 $194 $297 forward $122 $-1 #
coedge $-1 $196 $196 $123 $197 forward $191 $-1 #
edge $-1 $298 1.5450995605206164e-016 $298 6.2831853071796004 $196 $299 forward 7 unknown #
face $-1 $300 $301 $41 $-1 $302 forward single #
loop $-1 $-1 $303 $124 #
plane-surface $-1 -35.450806144979751 -87.494084436014134 55.163391763709889 1 0 0 0 0.78801076186113728 -0.61566146476048833 forward_v I I I I #
coedge $-1 $304 $305 $306 $307 reversed $125 $-1 #
coedge $-1 $203 $127 $308 $309 reversed $80 $-1 #
coedge $-1 $127 $202 $304 $310 reversed $80 $-1 #
coedge $-1 $306 $311 $127 $205 forward $301 $-1 #
edge $-1 $312 23.593764536748708 $313 26.541552136213106 $204 $314 forward 7 unknown #
loop $-1 $-1 $211 $128 #
plane-surface $-1 -30.815099468891873 -20.153277681258373 2.5509888228325082 0 -0.78801076186113728 0.61566146476048833 1 0 0 forward_v I I I I #
loop $-1 $-1 $315 $82 #
coedge $-1 $209 $209 $210 $316 reversed $129 $-1 #
coedge $-1 $210 $210 $209 $316 forward $131 $-1 #
coedge $-1 $211 $211 $132 $212 forward $206 $-1 #
edge $-1 $317 8.7506704884729591e-016 $317 6.2831853071796013 $211 $318 forward 7 unknown #
loop $-1 $-1 $218 $133 #
plane-surface $-1 -30.815099468891873 -20.153277681258373 2.5509888228325082 0 -0.78801076186113728 0.61566146476048833 1 0 0 forward_v I I I I #
loop $-1 $-1 $319 $85 #
coedge $-1 $216 $216 $217 $320 reversed $134 $-1 #
coedge $-1 $217 $217 $216 $320 forward $136 $-1 #
coedge $-1 $218 $218 $137 $219 forward $213 $-1 #
edge $-1 $321 8.7506704884729591e-016 $321 6.2831853071796013 $218 $322 forward 7 unknown #
face $-1 $323 $324 $33 $-1 $325 reversed single #
loop $-1 $-1 $229 $138 #
plane-surface $-1 0 -20.153277681258359 0 0 1 0 0 0 1 forward_v I I I I #
coedge $-1 $234 $233 $326 $327 forward $139 $-1 #
coedge $-1 $328 $141 $329 $330 forward $89 $-1 #
coedge $-1 $141 $328 $331 $332 forward $89 $-1 #
coedge $-1 $333 $334 $141 $227 reversed $335 $-1 #
edge $-1 $336 -20.153277681258359 $337 20.153277681258359 $226 $338 forward 7 unknown #
coedge $-1 $143 $142 $328 $339 reversed $56 $-1 #
coedge $-1 $340 $331 $142 $230 forward $221 $-1 #
edge $-1 $341 -6.3239849985188323 $235 6.3239849985188323 $142 $342 forward 7 unknown #
coedge $-1 $329 $343 $143 $232 reversed $324 $-1 #
edge $-1 $344 -6.3239849985188323 $236 6.3239849985188323 $231 $345 forward 7 unknown #
coedge $-1 $223 $144 $343 $346 forward $139 $-1 #
coedge $-1 $144 $223 $340 $347 forward $139 $-1 #
vertex $-1 $145 $348 #
vertex $-1 $346 $349 #
straight-curve $-1 -42.72835474715415 0 -6.3239849985188323 0 1 0 I I #
face $-1 $350 $250 $34 $-1 $351 reversed single #
loop $-1 $-1 $352 $146 #
plane-surface $-1 -50.005903349328541 -17.277667281185085 0 1 0 0 0 0 -1 forward_v I I I I #
coedge $-1 $353 $354 $355 $356 forward $147 $-1 #
coedge $-1 $357 $149 $353 $358 forward $93 $-1 #
coedge $-1 $149 $357 $248 $359 forward $93 $-1 #
edge $-1 $251 15.561311466178285 $360 18.994023096191885 $149 $361 forward 7 unknown #
coedge $-1 $151 $150 $362 $363 forward $59 $-1 #
coedge $-1 $364 $365 $150 $247 forward $366 $-1 #
edge $-1 $367 -18.994023096191885 $252 -15.561311466178285 $246 $368 forward 7 unknown #
coedge $-1 $369 $152 $243 $359 reversed $250 $-1 #
coedge $-1 $152 $369 $364 $370 reversed $250 $-1 #
loop $-1 $-1 $152 $238 #
vertex $-1 $244 $371 #
vertex $-1 $370 $372 #
straight-curve $-1 -42.72835474715415 -15.561311466178285 0 0 0 1 I I #
face $-1 $-1 $373 $35 $-1 $374 reversed single #
loop $-1 $-1 $160 $154 #
plane-surface $-1 0 0 6.3239849985188323 0 0 1 1 0 0 forward_v I I I I #
coedge $-1 $375 $376 $377 $378 reversed $155 $-1 #
coedge $-1 $379 $157 $159 $264 forward $97 $-1 #
coedge $-1 $157 $379 $375 $380 forward $97 $-1 #
coedge $-1 $377 $160 $157 $261 forward $255 $-1 #
edge $-1 $267 -12.416493521830219 $381 1.7034498088895038 $260 $382 forward 7 unknown #
coedge $-1 $383 $384 $158 $263 forward $373 $-1 #
edge $-1 $385 -43.600742669409158 $266 -38.432599983983486 $262 $386 forward 7 unknown #
edge $-1 $267 33.121991650346764 $385 40.306555362516718 $159 $387 forward 7 unknown #
coedge $-1 $160 $377 $383 $388 forward $255 $-1 #
vertex $-1 $263 $389 #
vertex $-1 $161 $390 #
straight-curve $-1 -17.773015378300578 26.813202503751505 6.3239849985188314 0 -1 0 I I #
coedge $-1 $269 $269 $-1 $391 reversed $164 $-1 #
edge $-1 $392 0 $392 6.2831853071796004 $165 $393 forward 7 unknown #
vertex $-1 $168 $394 #
ellipse-curve $-1 -13.738745855237802 17.65786905152903 3.7399136558059878 0 0.71933980857756763 0.69465836192734942 1.5 0 0 1 I I #
coedge $-1 $273 $273 $-1 $395 reversed $171 $-1 #
edge $-1 $396 0 $396 6.2831853071796004 $172 $397 forward 7 unknown #
vertex $-1 $175 $398 #
ellipse-curve $-1 -7.687341570643639 17.65786905152903 3.7399136558059878 0 0.71933980857756763 0.69465836192734942 1.5 0 0 1 I I #
face $-1 $-1 $399 $38 $-1 $400 reversed single #
loop $-1 $-1 $182 $176 #
plane-surface $-1 0 0 6.3239849985188323 0 0 1 1 0 0 forward_v I I I I #
coedge $-1 $401 $402 $403 $404 reversed $177 $-1 #
coedge $-1 $405 $179 $181 $287 forward $111 $-1 #
coedge $-1 $179 $405 $401 $406 forward $111 $-1 #
coedge $-1 $403 $182 $179 $284 forward $278 $-1 #
edge $-1 $290 1.9353244921976991 $407 16.055267822917422 $283 $408 forward 7 unknown #
coedge $-1 $409 $410 $180 $286 forward $399 $-1 #
edge $-1 $411 -43.600742669409158 $289 -38.432599983983486 $285 $412 forward 7 unknown #
edge $-1 $290 33.121991650346764 $411 40.306555362516718 $181 $413 forward 7 unknown #
coedge $-1 $182 $403 $409 $414 forward $278 $-1 #
vertex $-1 $183 $415 #
vertex $-1 $183 $416 #
straight-curve $-1 10.93062064975526 26.813202503751505 6.3239849985188314 0 -1 0 I I #
coedge $-1 $292 $292 $-1 $417 reversed $186 $-1 #
edge $-1 $418 0 $418 6.2831853071796004 $187 $419 forward 7 unknown #
vertex $-1 $190 $420 #
ellipse-curve $-1 14.964890172818038 17.65786905152903 3.7399136558059878 0 0.71933980857756763 0.69465836192734942 1.5 0 0 1 I I #
coedge $-1 $296 $296 $-1 $421 reversed $193 $-1 #
edge $-1 $422 0 $422 6.2831853071796004 $194 $423 forward 7 unknown #
vertex $-1 $197 $424 #
ellipse-curve $-1 21.016294457412201 17.65786905152903 3.7399136558059878 0 0.71933980857756763 0.69465836192734942 1.5 0 0 1 I I #
face $-1 $-1 $425 $41 $-1 $426 reversed single #
loop $-1 $-1 $204 $198 #
plane-surface $-1 0 0 6.3239849985188323 0 0 1 1 0 0 forward_v I I I I #
coedge $-1 $427 $428 $429 $430 reversed $199 $-1 #
coedge $-1 $431 $201 $203 $310 forward $125 $-1 #
coedge $-1 $201 $431 $427 $432 forward $125 $-1 #
coedge $-1 $429 $204 $201 $307 forward $301 $-1 #
edge $-1 $313 10.771843058358055 $433 20.043256410533814 $306 $434 forward 7 unknown #
coedge $-1 $435 $436 $202 $309 forward $425 $-1 #
edge $-1 $437 -25.030707059022419 $312 -21.257710883336113 $308 $438 forward 7 unknown #
edge $-1 $313 -4.788000822190801 $437 -2.3096905769578348e-014 $203 $439 forward 7 unknown #
coedge $-1 $204 $429 $435 $440 forward $301 $-1 #
vertex $-1 $205 $441 #
vertex $-1 $205 $442 #
straight-curve $-1 -26.179392792803991 -43.747042218007067 6.3239849985188314 0 1 0 I I #
coedge $-1 $315 $315 $-1 $443 reversed $208 $-1 #
edge $-1 $444 0 $444 6.2831853071796004 $209 $445 forward 7 unknown #
vertex $-1 $212 $446 #
ellipse-curve $-1 -32.801830901500963 -18.679383881526164 4.4374869106756778 0 -0.78801076186113728 0.61566146476048833 1 0 0 1 I I #
coedge $-1 $319 $319 $-1 $447 reversed $215 $-1 #
edge $-1 $448 0 $448 6.2831853071796004 $216 $449 forward 7 unknown #
vertex $-1 $219 $450 #
ellipse-curve $-1 -28.828368036282782 -18.679383881526164 4.4374869106756778 0 -0.78801076186113728 0.61566146476048833 1 0 0 1 I I #
face $-1 $-1 $335 $33 $-1 $451 reversed single #
loop $-1 $-1 $452 $220 #
plane-surface $-1 0 20.153277681258359 0 0 -1 0 0 0 -1 forward_v I I I I #
coedge $-1 $334 $333 $223 $327 reversed $335 $-1 #
edge $-1 $453 -20.153277681258359 $454 20.153277681258359 $326 $455 forward 7 unknown #
coedge $-1 $225 $224 $228 $339 forward $89 $-1 #
coedge $-1 $452 $231 $224 $330 reversed $324 $-1 #
edge $-1 $337 -42.72835474715415 $344 42.72835474715415 $329 $456 forward 7 unknown #
coedge $-1 $229 $457 $225 $332 reversed $221 $-1 #
edge $-1 $341 -42.72835474715415 $336 42.72835474715415 $331 $458 forward 7 unknown #
coedge $-1 $326 $226 $457 $459 forward $335 $-1 #
coedge $-1 $226 $326 $452 $460 reversed $335 $-1 #
loop $-1 $-1 $333 $323 #
vertex $-1 $227 $461 #
vertex $-1 $227 $462 #
straight-curve $-1 42.72835474715415 0 6.3239849985188323 0 1 0 I I #
edge $-1 $344 -20.153277681258359 $341 20.153277681258359 $228 $463 forward 7 unknown #
coedge $-1 $457 $229 $234 $347 reversed $221 $-1 #
vertex $-1 $339 $464 #
straight-curve $-1 -42.72835474715415 -20.153277681258359 0 0 0 -1 I I #
coedge $-1 $231 $452 $233 $346 reversed $324 $-1 #
vertex $-1 $330 $465 #
straight-curve $-1 -42.72835474715415 20.153277681258359 0 0 0 -1 I I #
edge $-1 $236 -42.72835474715415 $453 42.72835474715415 $343 $466 forward 7 unknown #
edge $-1 $454 -42.72835474715415 $235 42.72835474715415 $340 $467 forward 7 unknown #
point $-1 -42.72835474715415 -20.153277681258359 -6.3239849985188323 #
point $-1 -42.72835474715415 20.153277681258359 -6.3239849985188323 #
face $-1 $-1 $366 $34 $-1 $468 forward single #
plane-surface $-1 -46.367129048241345 -15.561311466178285 0 0 -1 0 0 0 -1 forward_v I I I I #
coedge $-1 $469 $470 $369 $471 forward $239 $-1 #
coedge $-1 $362 $241 $242 $358 reversed $147 $-1 #
coedge $-1 $241 $362 $365 $472 reversed $147 $-1 #
coedge $-1 $470 $469 $241 $356 reversed $239 $-1 #
edge $-1 $473 -6.3239849985188323 $474 6.3239849985188323 $355 $475 forward 7 unknown #
coedge $-1 $243 $242 $469 $476 forward $93 $-1 #
edge $-1 $360 -3.6387743010871958 $474 3.6387743010871958 $353 $477 forward 7 unknown #
edge $-1 $478 -3.6387743010871958 $251 3.6387743010871958 $248 $479 forward 7 unknown #
vertex $-1 $358 $480 #
straight-curve $-1 -42.72835474715415 0 -6.3239849985188323 0 -1 0 I I #
coedge $-1 $354 $353 $245 $363 reversed $147 $-1 #
edge $-1 $367 -6.3239849985188323 $360 6.3239849985188323 $362 $481 forward 7 unknown #
coedge $-1 $482 $246 $249 $370 forward $366 $-1 #
coedge $-1 $246 $482 $354 $472 forward $366 $-1 #
loop $-1 $-1 $246 $350 #
vertex $-1 $247 $483 #
straight-curve $-1 -42.72835474715415 0 6.3239849985188323 0 1 0 I I #
coedge $-1 $249 $248 $352 $471 reversed $250 $-1 #
edge $-1 $252 -3.6387743010871958 $484 3.6387743010871958 $249 $485 forward 7 unknown #
point $-1 -42.72835474715415 -15.561311466178285 -6.3239849985188323 #
point $-1 -42.72835474715415 -15.561311466178285 6.3239849985188323 #
loop $-1 $-1 $262 $254 #
plane-surface $-1 0 20.153277681258359 0 0 -1 0 0 0 -1 forward_v I I I I #
coedge $-1 $376 $257 $259 $380 reversed $155 $-1 #
coedge $-1 $257 $375 $486 $487 reversed $155 $-1 #
coedge $-1 $265 $260 $257 $378 forward $255 $-1 #
edge $-1 $381 -11.650742081951801 $488 -6.6599248224931458 $377 $489 forward 7 unknown #
coedge $-1 $259 $258 $384 $490 reversed $97 $-1 #
edge $-1 $491 -40.306555362516718 $381 -33.121991650346764 $375 $492 forward 7 unknown #
vertex $-1 $261 $493 #
straight-curve $-1 -5.3565218564703585 15.1624604217997 6.323984998518835 1 0 0 I I #
coedge $-1 $486 $262 $265 $388 reversed $373 $-1 #
coedge $-1 $262 $486 $379 $490 forward $373 $-1 #
vertex $-1 $263 $494 #
straight-curve $-1 -17.773015378300578 20.153277681258359 44.756584982502318 0 0 1 I I #
straight-curve $-1 -17.773015378300578 -7.8460080418015252 30.149952131987064 0 0.69465836192734942 -0.71933980857756763 I I #
edge $-1 $488 3.6530720475808547 $266 17.773015378300578 $383 $495 forward 7 unknown #
point $-1 -17.773015378300578 20.153277681258359 6.3239849985188323 #
point $-1 -17.773015378300578 15.162460421799704 6.3239849985188279 #
edge $-1 $496 1 $496 0 $269 $-1 forward 7 unknown #
vertex $-1 $270 $497 #
ellipse-curve $-1 -13.738745855237802 16.381972254912938 2.5077944707461559 0 0.71933980857756763 0.69465836192734942 1.5 0 0 1 I I #
point $-1 -12.238745855237802 17.657869051529033 3.7399136558059909 #
edge $-1 $498 1 $498 0 $273 $-1 forward 7 unknown #
vertex $-1 $274 $499 #
ellipse-curve $-1 -7.687341570643639 16.381972254912938 2.5077944707461559 0 0.71933980857756763 0.69465836192734942 1.5 0 0 1 I I #
point $-1 -6.187341570643639 17.657869051529033 3.7399136558059909 #
loop $-1 $-1 $285 $277 #
plane-surface $-1 0 20.153277681258359 0 0 -1 0 0 0 -1 forward_v I I I I #
coedge $-1 $402 $280 $282 $406 reversed $177 $-1 #
coedge $-1 $280 $401 $500 $501 reversed $177 $-1 #
coedge $-1 $288 $283 $280 $404 forward $278 $-1 #
edge $-1 $407 -11.650742081951801 $502 -6.6599248224931458 $403 $503 forward 7 unknown #
coedge $-1 $282 $281 $410 $504 reversed $111 $-1 #
edge $-1 $505 -40.306555362516718 $407 -33.121991650346764 $401 $506 forward 7 unknown #
vertex $-1 $284 $507 #
straight-curve $-1 8.9952961575575614 15.1624604217997 6.323984998518835 1 0 0 I I #
coedge $-1 $500 $285 $288 $414 reversed $399 $-1 #
coedge $-1 $285 $500 $405 $504 forward $399 $-1 #
vertex $-1 $286 $508 #
straight-curve $-1 10.93062064975526 20.153277681258359 44.756584982502318 0 0 1 I I #
straight-curve $-1 10.93062064975526 -7.8460080418015252 30.149952131987064 0 0.69465836192734942 -0.71933980857756763 I I #
edge $-1 $502 -25.050563980474983 $289 -10.93062064975526 $409 $509 forward 7 unknown #
point $-1 10.93062064975526 20.153277681258359 6.3239849985188323 #
point $-1 10.93062064975526 15.162460421799704 6.3239849985188279 #
edge $-1 $510 1 $510 0 $292 $-1 forward 7 unknown #
vertex $-1 $293 $511 #
ellipse-curve $-1 14.964890172818038 16.381972254912938 2.5077944707461559 0 0.71933980857756763 0.69465836192734942 1.5 0 0 1 I I #
point $-1 16.464890172818038 17.657869051529033 3.7399136558059909 #
edge $-1 $512 1 $512 0 $296 $-1 forward 7 unknown #
vertex $-1 $297 $513 #
ellipse-curve $-1 21.016294457412201 16.381972254912938 2.5077944707461559 0 0.71933980857756763 0.69465836192734942 1.5 0 0 1 I I #
point $-1 22.516294457412201 17.657869051529033 3.7399136558059909 #
loop $-1 $-1 $308 $300 #
plane-surface $-1 0 -20.153277681258359 0 0 1 0 0 0 1 forward_v I I I I #
coedge $-1 $428 $303 $305 $432 reversed $199 $-1 #
coedge $-1 $303 $427 $514 $515 reversed $199 $-1 #
coedge $-1 $311 $306 $303 $430 forward $301 $-1 #
edge $-1 $433 -26.541552136213106 $516 -23.593764536748708 $429 $517 forward 7 unknown #
coedge $-1 $305 $304 $436 $518 reversed $125 $-1 #
edge $-1 $519 2.3096905769578348e-014 $433 4.788000822190801 $427 $520 forward 7 unknown #
vertex $-1 $307 $521 #
straight-curve $-1 -15.407549734445936 -17.205490081793961 6.3239849985188323 -1 0 0 I I #
coedge $-1 $514 $308 $311 $440 reversed $425 $-1 #
coedge $-1 $308 $514 $431 $518 forward $425 $-1 #
vertex $-1 $309 $522 #
straight-curve $-1 -26.179392792803991 -20.153277681258359 27.581695881854944 0 0 1 I I #
straight-curve $-1 -26.179392792803991 -20.153277681258373 2.5509888228325082 0 -0.61566146476048833 -0.78801076186113728 I I #
edge $-1 $516 -35.450806144979751 $312 -26.179392792803991 $435 $523 forward 7 unknown #
point $-1 -26.179392792803991 -20.153277681258359 6.3239849985188323 #
point $-1 -26.179392792803991 -17.205490081793961 6.3239849985188323 #
edge $-1 $524 1 $524 0 $315 $-1 forward 7 unknown #
vertex $-1 $316 $525 #
ellipse-curve $-1 -32.801830901500963 -16.981458413229337 3.1109221840762058 0 -0.78801076186113728 0.61566146476048833 1 0 0 1 I I #
point $-1 -31.801830901500963 -18.679383881526157 4.4374869106756734 #
edge $-1 $526 1 $526 0 $319 $-1 forward 7 unknown #
vertex $-1 $320 $527 #
ellipse-curve $-1 -28.828368036282782 -16.981458413229337 3.1109221840762058 0 -0.78801076186113728 0.61566146476048833 1 0 0 1 I I #
point $-1 -27.828368036282782 -18.679383881526157 4.4374869106756734 #
plane-surface $-1 42.72835474715415 0 0 -1 0 0 0 0 1 forward_v I I I I #
coedge $-1 $343 $329 $334 $460 forward $324 $-1 #
vertex $-1 $327 $528 #
vertex $-1 $459 $529 #
straight-curve $-1 42.72835474715415 0 -6.3239849985188323 0 -1 0 I I #
straight-curve $-1 0 20.153277681258359 6.3239849985188323 -1 0 0 I I #
coedge $-1 $331 $340 $333 $459 reversed $221 $-1 #
straight-curve $-1 0 -20.153277681258359 6.3239849985188323 1 0 0 I I #
edge $-1 $336 -6.3239849985188323 $454 6.3239849985188323 $333 $530 forward 7 unknown #
edge $-1 $337 -6.3239849985188323 $453 6.3239849985188323 $334 $531 forward 7 unknown #
point $-1 42.72835474715415 -20.153277681258359 6.3239849985188323 #
point $-1 42.72835474715415 20.153277681258359 6.3239849985188323 #
straight-curve $-1 -42.72835474715415 0 6.3239849985188323 0 -1 0 I I #
point $-1 -42.72835474715415 -20.153277681258359 6.3239849985188323 #
point $-1 -42.72835474715415 20.153277681258359 6.3239849985188323 #
straight-curve $-1 0 20.153277681258359 -6.3239849985188323 1 0 0 I I #
straight-curve $-1 0 -20.153277681258359 -6.3239849985188323 -1 0 0 I I #
plane-surface $-1 0 0 6.3239849985188323 0 0 1 1 0 0 forward_v I I I I #
coedge $-1 $355 $352 $357 $476 reversed $239 $-1 #
coedge $-1 $352 $355 $482 $532 reversed $239 $-1 #
edge $-1 $484 -6.3239849985188323 $478 6.3239849985188323 $369 $533 forward 7 unknown #
edge $-1 $473 -3.6387743010871958 $367 3.6387743010871958 $354 $534 forward 7 unknown #
vertex $-1 $532 $535 #
vertex $-1 $476 $536 #
straight-curve $-1 -50.005903349328541 -18.994023096191885 0 0 0 -1 I I #
edge $-1 $474 -1.7163558150067999 $478 1.7163558150067999 $469 $537 forward 7 unknown #
straight-curve $-1 -46.367129048241345 -18.994023096191885 -6.3239849985188323 -1 0 0 I I #
vertex $-1 $359 $538 #
straight-curve $-1 -46.367129048241345 -15.561311466178285 -6.3239849985188323 1 0 0 I I #
point $-1 -42.72835474715415 -18.994023096191885 -6.3239849985188323 #
straight-curve $-1 -42.72835474715415 -18.994023096191885 0 0 0 -1 I I #
coedge $-1 $365 $364 $470 $532 forward $366 $-1 #
point $-1 -42.72835474715415 -18.994023096191885 6.3239849985188323 #
vertex $-1 $370 $539 #
straight-curve $-1 -46.367129048241345 -15.561311466178285 6.3239849985188323 -1 0 0 I I #
coedge $-1 $384 $383 $376 $487 forward $373 $-1 #
edge $-1 $488 38.432599983983486 $491 43.600742669409158 $486 $540 forward 7 unknown #
vertex $-1 $388 $541 #
straight-curve $-1 -3.6530720475808547 26.813202503751505 6.3239849985188314 0 1 0 I I #
edge $-1 $491 -1.7034498088895038 $385 12.416493521830219 $384 $542 forward 7 unknown #
vertex $-1 $490 $543 #
straight-curve $-1 -3.6530720475808547 -7.8460080418015252 30.149952131987064 0 -0.69465836192734942 0.71933980857756763 I I #
point $-1 -3.6530720475808547 15.162460421799704 6.3239849985188279 #
point $-1 -17.773015378300578 20.153277681258359 1.1558423130931565 #
straight-curve $-1 0 20.153277681258359 6.3239849985188323 -1 0 0 I I #
vertex $-1 $391 $544 #
point $-1 -12.238745855237802 16.381972254912938 2.5077944707461559 #
vertex $-1 $395 $545 #
point $-1 -6.187341570643639 16.381972254912938 2.5077944707461559 #
coedge $-1 $410 $409 $402 $501 forward $399 $-1 #
edge $-1 $502 38.432599983983486 $505 43.600742669409158 $500 $546 forward 7 unknown #
vertex $-1 $414 $547 #
straight-curve $-1 25.050563980474983 26.813202503751505 6.3239849985188314 0 1 0 I I #
edge $-1 $505 -16.055267822917422 $411 -1.9353244921976991 $410 $548 forward 7 unknown #
vertex $-1 $504 $549 #
straight-curve $-1 25.050563980474983 -7.8460080418015252 30.149952131987064 0 -0.69465836192734942 0.71933980857756763 I I #
point $-1 25.050563980474983 15.162460421799704 6.3239849985188279 #
point $-1 10.93062064975526 20.153277681258359 1.1558423130931565 #
straight-curve $-1 0 20.153277681258359 6.3239849985188323 -1 0 0 I I #
vertex $-1 $417 $550 #
point $-1 16.464890172818038 16.381972254912938 2.5077944707461559 #
vertex $-1 $421 $551 #
point $-1 22.516294457412201 16.381972254912938 2.5077944707461559 #
coedge $-1 $436 $435 $428 $515 forward $425 $-1 #
edge $-1 $516 21.257710883336113 $519 25.030707059022419 $514 $552 forward 7 unknown #
vertex $-1 $440 $553 #
straight-curve $-1 -35.450806144979751 -43.747042218007067 6.3239849985188314 0 -1 0 I I #
edge $-1 $519 -20.043256410533814 $437 -10.771843058358055 $436 $554 forward 7 unknown #
vertex $-1 $518 $555 #
straight-curve $-1 -35.450806144979751 -20.153277681258373 2.5509888228325082 0 0.61566146476048833 0.78801076186113728 I I #
point $-1 -35.450806144979751 -17.205490081793961 6.3239849985188323 #
point $-1 -26.179392792803991 -20.153277681258359 2.5509888228325264 #
straight-curve $-1 0 -20.153277681258359 6.3239849985188323 1 0 0 I I #
vertex $-1 $443 $556 #
point $-1 -31.801830901500963 -16.981458413229337 3.1109221840762058 #
vertex $-1 $447 $557 #
point $-1 -27.828368036282782 -16.981458413229337 3.1109221840762058 #
point $-1 42.72835474715415 20.153277681258359 -6.3239849985188323 #
point $-1 42.72835474715415 -20.153277681258359 -6.3239849985188323 #
straight-curve $-1 42.72835474715415 -20.153277681258359 0 0 0 -1 I I #
straight-curve $-1 42.72835474715415 20.153277681258359 0 0 0 -1 I I #
edge $-1 $484 -1.7163558150067999 $473 1.7163558150067999 $470 $558 forward 7 unknown #
straight-curve $-1 -50.005903349328541 -15.561311466178285 0 0 0 -1 I I #
straight-curve $-1 -46.367129048241345 -18.994023096191885 6.3239849985188323 1 0 0 I I #
point $-1 -50.005903349328541 -18.994023096191885 6.3239849985188323 #
point $-1 -50.005903349328541 -18.994023096191885 -6.3239849985188323 #
straight-curve $-1 -50.005903349328541 -17.277667281185085 -6.3239849985188323 0 1 0 I I #
point $-1 -50.005903349328541 -15.561311466178285 -6.3239849985188323 #
point $-1 -50.005903349328541 -15.561311466178285 6.3239849985188323 #
straight-curve $-1 -3.6530720475808547 20.153277681258359 44.756584982502318 0 0 -1 I I #
point $-1 -3.6530720475808547 20.153277681258359 6.3239849985188323 #
straight-curve $-1 -5.3565218564703585 20.153277681258359 1.1558423130931548 -1 0 0 I I #
point $-1 -3.6530720475808547 20.153277681258359 1.1558423130931565 #
point $-1 -13.738745855237802 15.302962542046586 1.4658069278551316 #
point $-1 -7.687341570643639 15.302962542046586 1.4658069278551316 #
straight-curve $-1 25.050563980474983 20.153277681258359 44.756584982502318 0 0 -1 I I #
point $-1 25.050563980474983 20.153277681258359 6.3239849985188323 #
straight-curve $-1 8.9952961575575614 20.153277681258359 1.1558423130931548 -1 0 0 I I #
point $-1 25.050563980474983 20.153277681258359 1.1558423130931565 #
point $-1 14.964890172818038 15.302962542046586 1.4658069278551316 #
point $-1 21.016294457412201 15.302962542046586 1.4658069278551316 #
straight-curve $-1 -35.450806144979751 -20.153277681258359 27.581695881854944 0 0 -1 I I #
point $-1 -35.450806144979751 -20.153277681258359 6.3239849985188323 #
straight-curve $-1 -15.407549734445936 -20.153277681258359 2.5509888228325273 1 0 0 I I #
point $-1 -35.450806144979751 -20.153277681258359 2.5509888228325264 #
point $-1 -32.801830901500963 -16.193447651368199 2.4952607193157177 #
point $-1 -28.828368036282782 -16.193447651368199 2.4952607193157177 #
straight-curve $-1 -50.005903349328541 -17.277667281185085 6.3239849985188323 0 -1 0 I I #
End-of-ACIS-data 