500 0 8 0           
7 Unknown 11 ACIS 5.0 NT 24 Fri Mar 26 17:31:56 1999 
-1 9.9999999999999995e-007 1e-010 
body $-1 $8 $-1 $9 #
body $-1 $10 $-1 $11 #
body $-1 $12 $-1 $13 #
body $-1 $14 $-1 $15 #
body $-1 $16 $-1 $17 #
body $-1 $18 $-1 $19 #
body $-1 $20 $-1 $21 #
body $-1 $22 $-1 $23 #
lump $-1 $-1 $24 $0 #
transform $-1 1 0 0 0 1 0 0 0 1 74.983977782525102 35.210454852468104 10.929565030364033 1 rotate no_reflect no_shear #
lump $-1 $-1 $25 $1 #
transform $-1 1 0 0 0 1 0 0 0 1 74.983977782525102 35.210454852468104 10.929565030364033 1 rotate no_reflect no_shear #
lump $-1 $-1 $26 $2 #
transform $-1 1 0 0 0 1 0 0 0 1 74.983977782525102 35.210454852468104 10.929565030364033 1 rotate no_reflect no_shear #
lump $-1 $-1 $27 $3 #
transform $-1 1 0 0 0 1 0 0 0 1 74.983977782525102 35.210454852468104 10.929565030364033 1 rotate no_reflect no_shear #
lump $-1 $-1 $28 $4 #
transform $-1 1 0 0 0 1 0 0 0 1 74.983977782525102 35.210454852468104 10.929565030364033 1 rotate no_reflect no_shear #
lump $-1 $-1 $29 $5 #
transform $-1 1 0 0 0 1 0 0 0 1 74.983977782525102 35.210454852468104 10.929565030364033 1 rotate no_reflect no_shear #
lump $-1 $-1 $30 $6 #
transform $-1 1 0 0 0 1 0 0 0 1 74.983977782525102 35.210454852468104 10.929565030364033 1 rotate no_reflect no_shear #
lump $-1 $-1 $31 $7 #
transform $-1 1 0 0 0 1 0 0 0 1 74.983977782525102 35.210454852468104 10.929565030364033 1 rotate no_reflect no_shear #
shell $-1 $-1 $-1 $32 $-1 $8 #
shell $-1 $-1 $-1 $33 $-1 $10 #
shell $-1 $-1 $-1 $34 $-1 $12 #
shell $-1 $-1 $-1 $35 $-1 $14 #
shell $-1 $-1 $-1 $36 $-1 $16 #
shell $-1 $-1 $-1 $37 $-1 $18 #
shell $-1 $-1 $-1 $38 $-1 $20 #
shell $-1 $-1 $-1 $39 $-1 $22 #
face $-1 $40 $41 $24 $-1 $42 reversed single #
face $-1 $43 $44 $25 $-1 $45 forward single #
face $-1 $46 $47 $26 $-1 $48 forward single #
face $-1 $49 $50 $27 $-1 $51 reversed single #
face $-1 $52 $53 $28 $-1 $54 forward single #
face $-1 $55 $56 $29 $-1 $57 forward single #
face $-1 $58 $59 $30 $-1 $60 reversed single #
face $-1 $61 $62 $31 $-1 $63 forward single #
face $-1 $64 $65 $24 $-1 $66 reversed single #
loop $-1 $-1 $67 $32 #
plane-surface $-1 0 35.210454852468104 0 0 -1 0 0 0 -1 forward_v I I I I #
face $-1 $68 $69 $25 $-1 $70 reversed single #
loop $-1 $-1 $71 $33 #
plane-surface $-1 0 -35.210454852468104 0 0 1 0 0 0 1 forward_v I I I I #
face $-1 $72 $73 $26 $-1 $74 reversed single #
loop $-1 $-1 $75 $34 #
plane-surface $-1 0 35.210454852468104 0 0 -1 0 0 0 -1 forward_v I I I I #
face $-1 $76 $77 $27 $-1 $78 reversed single #
loop $-1 $-1 $79 $35 #
plane-surface $-1 89.778401939146164 -11.179330371780495 214.54593953452937 0 -1 0 -0.75470958851134928 0 -0.65605901945558964 forward_v I I I I #
face $-1 $80 $81 $28 $-1 $82 forward single #
loop $-1 $83 $84 $36 #
cone-surface $-1 71.099154604389426 -19.594415440448241 6.5808327605915764 -0.75470958851134928 0 -0.65605901945558964 0.65605901945558964 0 -0.75470958851134928 1 I I 0 1 1 forward I I I I #
face $-1 $85 $86 $29 $-1 $87 forward single #
loop $-1 $88 $89 $37 #
cone-surface $-1 71.099154604389426 -14.545364399247593 6.5808327605915764 -0.75470958851134928 0 -0.65605901945558964 0.65605901945558964 0 -0.75470958851134928 1 I I 0 1 1 forward I I I I #
face $-1 $90 $91 $30 $-1 $92 reversed single #
loop $-1 $-1 $93 $38 #
plane-surface $-1 -173.37181028669727 -6.7863599643690051 116.25974674598162 0 1 0 -0.6560590369687036 0 0.75470957328743171 forward_v I I I I #
face $-1 $94 $95 $31 $-1 $96 forward single #
loop $-1 $97 $98 $39 #
cone-surface $-1 -69.841480014464523 -0.74344087362019451 6.283271467539727 0.6560590369687036 0 -0.75470957328743171 1.1320643599311475 0 0.9840885554530554 1 I I 0 1 1.5 forward I I I I #
face $-1 $99 $100 $24 $-1 $101 forward single #
loop $-1 $-1 $102 $40 #
plane-surface $-1 0 -35.210454852468104 0 0 1 0 0 0 1 forward_v I I I I #
coedge $-1 $103 $104 $105 $106 reversed $41 $-1 #
face $-1 $107 $108 $25 $-1 $109 reversed single #
loop $-1 $-1 $110 $43 #
plane-surface $-1 0 0 -10.929565030364033 0 0 1 1 0 0 forward_v I I I I #
coedge $-1 $111 $112 $113 $114 forward $44 $-1 #
face $-1 $115 $116 $26 $-1 $117 reversed single #
loop $-1 $-1 $118 $46 #
plane-surface $-1 0 0 -10.929565030364033 0 0 1 1 0 0 forward_v I I I I #
coedge $-1 $119 $120 $121 $122 forward $47 $-1 #
face $-1 $123 $124 $27 $-1 $125 reversed single #
loop $-1 $-1 $126 $49 #
plane-surface $-1 -23.403852095241191 -17.069889919847917 116.15810965676309 0.75470958851134928 0 0.65605901945558964 0.65605901945558964 0 -0.75470958851134928 forward_v I I I I #
coedge $-1 $127 $128 $129 $130 reversed $50 $-1 #
face $-1 $-1 $131 $28 $-1 $132 forward single #
loop $-1 $133 $134 $52 #
cone-surface $-1 70.294003596192425 -19.594415440448241 5.8809256850854563 -0.75470958851134928 0 -0.65605901945558964 0.32802950972779482 0 -0.37735479425567464 1 I I -0.70710678118654746 0.70710678118654746 0.5 forward I I I I #
loop $-1 $-1 $135 $36 #
coedge $-1 $84 $84 $136 $137 reversed $53 $-1 #
face $-1 $-1 $138 $29 $-1 $139 forward single #
loop $-1 $140 $141 $55 #
cone-surface $-1 70.294003596192425 -14.545364399247593 5.8809256850854563 -0.75470958851134928 0 -0.65605901945558964 0.32802950972779482 0 -0.37735479425567464 1 I I -0.70710678118654746 0.70710678118654746 0.5 forward I I I I #
loop $-1 $-1 $142 $37 #
coedge $-1 $89 $89 $143 $144 reversed $56 $-1 #
face $-1 $145 $146 $30 $-1 $147 reversed single #
loop $-1 $-1 $148 $58 #
plane-surface $-1 -74.983977782525102 -0.74344087362019451 3.0774949946940495 -0.6560590369687036 0 0.75470957328743171 0.75470957328743171 0 0.6560590369687036 forward_v I I I I #
coedge $-1 $149 $150 $151 $152 reversed $59 $-1 #
face $-1 $-1 $153 $31 $-1 $154 forward single #
loop $-1 $155 $156 $61 #
cone-surface $-1 -68.723324522412369 -0.74344087362019451 4.9969807425848476 0.6560590369687036 0 -0.75470957328743171 0.56603217996557376 0 0.4920442777265277 1 I I -0.70710678118654757 0.70710678118654757 0.75 forward I I I I #
loop $-1 $-1 $157 $39 #
coedge $-1 $98 $98 $158 $159 reversed $62 $-1 #
face $-1 $160 $161 $24 $-1 $162 reversed single #
loop $-1 $-1 $163 $64 #
plane-surface $-1 0 0 10.929565030364033 0 0 1 1 0 0 forward_v I I I I #
coedge $-1 $164 $165 $166 $167 reversed $65 $-1 #
coedge $-1 $168 $67 $169 $170 reversed $41 $-1 #
coedge $-1 $67 $168 $171 $172 forward $41 $-1 #
coedge $-1 $173 $174 $67 $106 forward $161 $-1 #
edge $-1 $175 -74.983977782525102 $176 74.983977782525102 $67 $177 forward 7 unknown #
face $-1 $178 $179 $25 $-1 $180 reversed single #
loop $-1 $-1 $181 $68 #
plane-surface $-1 -54.738415361018994 -47.460460237020868 0 0 1 0 0 0 1 forward_v I I I I #
coedge $-1 $182 $183 $112 $184 forward $69 $-1 #
coedge $-1 $185 $71 $186 $187 reversed $44 $-1 #
coedge $-1 $71 $185 $110 $184 reversed $44 $-1 #
coedge $-1 $188 $189 $71 $114 reversed $179 $-1 #
edge $-1 $190 -10.929565030364033 $191 10.929565030364033 $113 $192 forward 7 unknown #
face $-1 $193 $194 $26 $-1 $195 reversed single #
loop $-1 $-1 $196 $72 #
plane-surface $-1 -56.351983000240956 41.335457544744486 0 1 0 0 0 0 -1 forward_v I I I I #
coedge $-1 $197 $198 $120 $199 forward $73 $-1 #
coedge $-1 $200 $75 $201 $202 reversed $47 $-1 #
coedge $-1 $75 $200 $118 $199 reversed $47 $-1 #
coedge $-1 $203 $204 $75 $122 reversed $205 $-1 #
edge $-1 $206 -10.929565030364033 $207 10.929565030364033 $121 $208 forward 7 unknown #
face $-1 $209 $210 $27 $-1 $211 forward single #
loop $-1 $-1 $212 $76 #
plane-surface $-1 89.778401939146164 -22.960449467915339 214.54593953452937 0 1 0 0.75470958851134928 0 0.65605901945558964 forward_v I I I I #
coedge $-1 $213 $214 $215 $216 reversed $77 $-1 #
coedge $-1 $128 $79 $217 $218 reversed $50 $-1 #
coedge $-1 $79 $127 $213 $219 reversed $50 $-1 #
coedge $-1 $215 $220 $79 $130 forward $210 $-1 #
edge $-1 $221 -30.09477681295202 $222 -23.180722884563309 $129 $223 forward 7 unknown #
loop $-1 $-1 $136 $80 #
plane-surface $-1 -23.403852095241191 -17.069889919847917 116.15810965676309 0.75470958851134928 0 0.65605901945558964 0.65605901945558964 0 -0.75470958851134928 forward_v I I I I #
loop $-1 $-1 $224 $52 #
coedge $-1 $134 $134 $135 $225 reversed $81 $-1 #
coedge $-1 $135 $135 $134 $225 forward $83 $-1 #
coedge $-1 $136 $136 $84 $137 forward $131 $-1 #
edge $-1 $226 0 $226 6.2831853071796004 $136 $227 forward 7 unknown #
loop $-1 $-1 $143 $85 #
plane-surface $-1 -23.403852095241191 -17.069889919847917 116.15810965676309 0.75470958851134928 0 0.65605901945558964 0.65605901945558964 0 -0.75470958851134928 forward_v I I I I #
loop $-1 $-1 $228 $55 #
coedge $-1 $141 $141 $142 $229 reversed $86 $-1 #
coedge $-1 $142 $142 $141 $229 forward $88 $-1 #
coedge $-1 $143 $143 $89 $144 forward $138 $-1 #
edge $-1 $230 0 $230 6.2831853071796004 $143 $231 forward 7 unknown #
face $-1 $232 $233 $30 $-1 $234 reversed single #
loop $-1 $-1 $235 $90 #
plane-surface $-1 -173.37181028669727 5.2994782171286161 116.25974674598162 0 -1 0 0.6560590369687036 0 -0.75470957328743171 forward_v I I I I #
coedge $-1 $236 $237 $238 $239 reversed $91 $-1 #
coedge $-1 $150 $93 $240 $241 reversed $59 $-1 #
coedge $-1 $93 $149 $236 $242 reversed $59 $-1 #
coedge $-1 $238 $243 $93 $152 forward $244 $-1 #
edge $-1 $245 11.701927360823532 $246 20.734700468293454 $151 $247 forward 7 unknown #
loop $-1 $-1 $158 $94 #
plane-surface $-1 -74.983977782525102 -0.74344087362019451 3.0774949946940495 -0.6560590369687036 0 0.75470957328743171 0.75470957328743171 0 0.6560590369687036 forward_v I I I I #
loop $-1 $-1 $248 $61 #
coedge $-1 $156 $156 $157 $249 reversed $95 $-1 #
coedge $-1 $157 $157 $156 $249 forward $97 $-1 #
coedge $-1 $158 $158 $98 $159 forward $153 $-1 #
edge $-1 $250 0 $250 6.2831853071796004 $158 $251 forward 7 unknown #
face $-1 $252 $253 $24 $-1 $254 reversed single #
loop $-1 $-1 $173 $99 #
plane-surface $-1 0 0 -10.929565030364033 0 0 1 1 0 0 forward_v I I I I #
coedge $-1 $255 $256 $257 $258 forward $100 $-1 #
coedge $-1 $259 $102 $260 $261 reversed $65 $-1 #
coedge $-1 $102 $259 $262 $263 forward $65 $-1 #
coedge $-1 $174 $173 $102 $167 forward $161 $-1 #
edge $-1 $264 -74.983977782525102 $265 74.983977782525102 $102 $266 forward 7 unknown #
coedge $-1 $104 $103 $255 $267 reversed $41 $-1 #
coedge $-1 $268 $269 $103 $170 forward $253 $-1 #
edge $-1 $270 -10.929565030364033 $175 10.929565030364033 $103 $271 forward 7 unknown #
coedge $-1 $257 $272 $104 $172 reversed $273 $-1 #
edge $-1 $274 -10.929565030364033 $176 10.929565030364033 $171 $275 forward 7 unknown #
coedge $-1 $166 $105 $272 $276 forward $161 $-1 #
coedge $-1 $105 $166 $268 $277 forward $161 $-1 #
vertex $-1 $106 $278 #
vertex $-1 $276 $279 #
straight-curve $-1 0 35.210454852468104 -10.929565030364033 1 0 0 I I #
face $-1 $280 $281 $25 $-1 $282 reversed single #
loop $-1 $-1 $113 $107 #
plane-surface $-1 -56.351983000240956 -41.335457544744486 0 1 0 0 0 0 -1 forward_v I I I I #
coedge $-1 $283 $284 $285 $286 forward $108 $-1 #
coedge $-1 $287 $110 $288 $289 forward $69 $-1 #
coedge $-1 $110 $287 $188 $290 forward $69 $-1 #
edge $-1 $190 -56.351983000240956 $291 -53.124847721797032 $110 $292 forward 7 unknown #
coedge $-1 $112 $111 $293 $294 forward $44 $-1 #
coedge $-1 $295 $296 $111 $187 forward $297 $-1 #
edge $-1 $298 53.124847721797032 $191 56.351983000240956 $186 $299 forward 7 unknown #
coedge $-1 $285 $113 $183 $290 reversed $179 $-1 #
coedge $-1 $113 $285 $295 $300 reversed $179 $-1 #
vertex $-1 $184 $301 #
vertex $-1 $300 $302 #
straight-curve $-1 -56.351983000240956 -35.210454852468104 0 0 0 1 I I #
face $-1 $303 $205 $26 $-1 $304 reversed single #
loop $-1 $-1 $305 $115 #
plane-surface $-1 -54.738415361018994 47.460460237020868 0 0 -1 0 0 0 -1 forward_v I I I I #
coedge $-1 $306 $307 $308 $309 forward $116 $-1 #
coedge $-1 $310 $118 $306 $311 forward $73 $-1 #
coedge $-1 $118 $310 $203 $312 forward $73 $-1 #
edge $-1 $206 53.124847721797032 $313 56.351983000240956 $118 $314 forward 7 unknown #
coedge $-1 $120 $119 $315 $316 forward $47 $-1 #
coedge $-1 $317 $318 $119 $202 forward $319 $-1 #
edge $-1 $320 -56.351983000240956 $207 -53.124847721797032 $201 $321 forward 7 unknown #
coedge $-1 $322 $121 $198 $312 reversed $205 $-1 #
coedge $-1 $121 $322 $317 $323 reversed $205 $-1 #
loop $-1 $-1 $121 $193 #
vertex $-1 $199 $324 #
vertex $-1 $323 $325 #
straight-curve $-1 -53.124847721797032 35.210454852468104 0 0 0 1 I I #
face $-1 $-1 $326 $27 $-1 $327 reversed single #
loop $-1 $-1 $129 $123 #
plane-surface $-1 0 0 10.929565030364033 0 0 1 1 0 0 forward_v I I I I #
coedge $-1 $328 $329 $330 $331 reversed $124 $-1 #
coedge $-1 $332 $126 $128 $219 forward $77 $-1 #
coedge $-1 $126 $332 $328 $333 forward $77 $-1 #
coedge $-1 $330 $129 $126 $216 forward $210 $-1 #
edge $-1 $222 2.6443854118565362 $334 14.425504507991381 $215 $335 forward 7 unknown #
coedge $-1 $336 $337 $127 $218 forward $326 $-1 #
edge $-1 $338 -104.29711414488897 $221 -96.343404736900652 $217 $339 forward 7 unknown #
edge $-1 $222 139.42918736988679 $338 149.96795556505029 $128 $340 forward 7 unknown #
coedge $-1 $129 $330 $336 $341 forward $210 $-1 #
vertex $-1 $130 $342 #
vertex $-1 $130 $343 #
straight-curve $-1 44.889200969573082 -11.179330371780495 10.929565030364031 -1 0 0 I I #
coedge $-1 $224 $224 $-1 $344 reversed $133 $-1 #
edge $-1 $345 0 $345 6.2831853071796004 $134 $346 forward 7 unknown #
vertex $-1 $137 $347 #
ellipse-curve $-1 71.526950818330732 -19.594415440448241 6.952710326369882 0.75470958851134928 0 0.65605901945558964 0.65605901945558964 0 -0.75470958851134928 1 I I #
coedge $-1 $228 $228 $-1 $348 reversed $140 $-1 #
edge $-1 $349 0 $349 6.2831853071796004 $141 $350 forward 7 unknown #
vertex $-1 $144 $351 #
ellipse-curve $-1 71.526950818330732 -14.545364399247593 6.952710326369882 0.75470958851134928 0 0.65605901945558964 0.65605901945558964 0 -0.75470958851134928 1 I I #
face $-1 $-1 $244 $30 $-1 $352 forward single #
loop $-1 $-1 $353 $145 #
plane-surface $-1 -74.983977782525102 0 0 1 0 0 0 0 -1 forward_v I I I I #
coedge $-1 $354 $355 $356 $357 reversed $146 $-1 #
coedge $-1 $358 $148 $150 $242 forward $91 $-1 #
coedge $-1 $148 $358 $354 $359 forward $91 $-1 #
coedge $-1 $356 $151 $148 $239 forward $244 $-1 #
edge $-1 $246 -6.4146395275589079 $360 5.6711986539387134 $238 $361 forward 7 unknown #
coedge $-1 $362 $363 $149 $241 forward $233 $-1 #
edge $-1 $364 -55.052378378296758 $245 -47.200308342626776 $240 $365 forward 7 unknown #
edge $-1 $246 -11.968541843353277 $364 0 $150 $366 forward 7 unknown #
coedge $-1 $151 $356 $362 $367 forward $244 $-1 #
loop $-1 $-1 $356 $232 #
vertex $-1 $241 $368 #
vertex $-1 $152 $369 #
straight-curve $-1 -86.685905143348634 -6.7863599643690051 10.929565030364031 1 0 0 I I #
coedge $-1 $248 $248 $-1 $370 reversed $155 $-1 #
edge $-1 $371 0 $371 6.2831853071796004 $156 $372 forward 7 unknown #
vertex $-1 $159 $373 #
ellipse-curve $-1 -70.467591228790141 -0.74344087362019451 7.003530012529037 -0.6560590369687036 0 0.75470957328743171 1.1320643599311475 0 0.9840885554530554 1 I I #
face $-1 $-1 $273 $24 $-1 $374 reversed single #
loop $-1 $-1 $169 $160 #
plane-surface $-1 -74.983977782525102 0 0 1 0 0 0 0 -1 forward_v I I I I #
coedge $-1 $375 $163 $168 $267 forward $100 $-1 #
coedge $-1 $163 $375 $259 $376 forward $100 $-1 #
coedge $-1 $260 $171 $163 $258 reversed $273 $-1 #
edge $-1 $377 -35.210454852468104 $274 35.210454852468104 $257 $378 forward 7 unknown #
coedge $-1 $165 $164 $256 $376 reversed $65 $-1 #
coedge $-1 $272 $257 $164 $261 forward $273 $-1 #
edge $-1 $377 -10.929565030364033 $264 10.929565030364033 $260 $379 forward 7 unknown #
coedge $-1 $269 $268 $165 $263 reversed $253 $-1 #
edge $-1 $380 -10.929565030364033 $265 10.929565030364033 $262 $381 forward 7 unknown #
vertex $-1 $261 $382 #
vertex $-1 $277 $383 #
straight-curve $-1 0 -35.210454852468104 -10.929565030364033 -1 0 0 I I #
edge $-1 $274 -74.983977782525102 $270 74.983977782525102 $168 $384 forward 7 unknown #
coedge $-1 $262 $169 $174 $277 reversed $253 $-1 #
coedge $-1 $169 $262 $375 $385 reversed $253 $-1 #
vertex $-1 $267 $386 #
straight-curve $-1 -74.983977782525102 35.210454852468104 0 0 0 -1 I I #
coedge $-1 $171 $260 $173 $276 reversed $273 $-1 #
loop $-1 $-1 $260 $252 #
vertex $-1 $258 $387 #
straight-curve $-1 74.983977782525102 35.210454852468104 0 0 0 -1 I I #
edge $-1 $176 -35.210454852468104 $264 35.210454852468104 $272 $388 forward 7 unknown #
edge $-1 $265 -35.210454852468104 $175 35.210454852468104 $268 $389 forward 7 unknown #
point $-1 -74.983977782525102 35.210454852468104 -10.929565030364033 #
point $-1 74.983977782525102 35.210454852468104 -10.929565030364033 #
face $-1 $-1 $297 $25 $-1 $390 forward single #
loop $-1 $-1 $391 $178 #
plane-surface $-1 -53.124847721797032 -41.335457544744486 0 -1 0 0 0 0 1 forward_v I I I I #
coedge $-1 $392 $181 $287 $393 reversed $108 $-1 #
coedge $-1 $181 $392 $394 $395 reversed $108 $-1 #
coedge $-1 $189 $188 $181 $286 reversed $179 $-1 #
edge $-1 $396 -10.929565030364033 $397 10.929565030364033 $285 $398 forward 7 unknown #
coedge $-1 $183 $182 $283 $393 forward $69 $-1 #
coedge $-1 $293 $391 $182 $289 reversed $281 $-1 #
edge $-1 $291 -6.1250026922763823 $399 6.1250026922763823 $288 $400 forward 7 unknown #
edge $-1 $397 -6.1250026922763823 $190 6.1250026922763823 $188 $401 forward 7 unknown #
vertex $-1 $289 $402 #
straight-curve $-1 0 -35.210454852468104 -10.929565030364033 1 0 0 I I #
coedge $-1 $403 $288 $185 $294 reversed $281 $-1 #
edge $-1 $298 -10.929565030364033 $291 10.929565030364033 $293 $404 forward 7 unknown #
coedge $-1 $394 $186 $189 $300 forward $297 $-1 #
coedge $-1 $186 $394 $403 $405 forward $297 $-1 #
loop $-1 $-1 $186 $280 #
vertex $-1 $187 $406 #
straight-curve $-1 0 -35.210454852468104 10.929565030364033 -1 0 0 I I #
edge $-1 $191 -6.1250026922763823 $396 6.1250026922763823 $189 $407 forward 7 unknown #
point $-1 -56.351983000240956 -35.210454852468104 -10.929565030364033 #
point $-1 -56.351983000240956 -35.210454852468104 10.929565030364033 #
face $-1 $-1 $319 $26 $-1 $408 forward single #
plane-surface $-1 -53.124847721797032 41.335457544744486 0 -1 0 0 0 0 1 forward_v I I I I #
coedge $-1 $409 $410 $322 $411 forward $194 $-1 #
coedge $-1 $315 $196 $197 $311 reversed $116 $-1 #
coedge $-1 $196 $315 $318 $412 reversed $116 $-1 #
coedge $-1 $410 $409 $196 $309 reversed $194 $-1 #
edge $-1 $413 -10.929565030364033 $414 10.929565030364033 $308 $415 forward 7 unknown #
coedge $-1 $198 $197 $409 $416 forward $73 $-1 #
edge $-1 $313 -6.1250026922763823 $414 6.1250026922763823 $306 $417 forward 7 unknown #
edge $-1 $418 -6.1250026922763823 $206 6.1250026922763823 $203 $419 forward 7 unknown #
vertex $-1 $311 $420 #
straight-curve $-1 0 35.210454852468104 -10.929565030364033 -1 0 0 I I #
coedge $-1 $307 $306 $200 $316 reversed $116 $-1 #
edge $-1 $320 -10.929565030364033 $313 10.929565030364033 $315 $421 forward 7 unknown #
coedge $-1 $422 $201 $204 $323 forward $319 $-1 #
coedge $-1 $201 $422 $307 $412 forward $319 $-1 #
loop $-1 $-1 $201 $303 #
vertex $-1 $202 $423 #
straight-curve $-1 0 35.210454852468104 10.929565030364033 1 0 0 I I #
coedge $-1 $204 $203 $305 $411 reversed $205 $-1 #
edge $-1 $207 -6.1250026922763823 $424 6.1250026922763823 $204 $425 forward 7 unknown #
point $-1 -53.124847721797032 35.210454852468104 -10.929565030364033 #
point $-1 -53.124847721797032 35.210454852468104 10.929565030364033 #
loop $-1 $-1 $217 $209 #
plane-surface $-1 74.983977782525102 0 0 -1 0 0 0 0 1 forward_v I I I I #
coedge $-1 $329 $212 $214 $333 reversed $124 $-1 #
coedge $-1 $212 $328 $426 $427 reversed $124 $-1 #
coedge $-1 $220 $215 $212 $331 forward $210 $-1 #
edge $-1 $334 23.180722884563309 $428 30.09477681295202 $330 $429 forward 7 unknown #
coedge $-1 $214 $213 $337 $430 reversed $77 $-1 #
edge $-1 $431 -149.96795556505029 $334 -139.42918736988679 $328 $432 forward 7 unknown #
vertex $-1 $216 $433 #
straight-curve $-1 68.069923854136405 -8.5349449599239584 10.929565030364017 0 -1 0 I I #
coedge $-1 $426 $217 $220 $341 reversed $326 $-1 #
coedge $-1 $217 $426 $332 $430 forward $326 $-1 #
vertex $-1 $218 $434 #
straight-curve $-1 74.983977782525102 -11.179330371780495 107.27296976726468 0 0 1 I I #
straight-curve $-1 -23.403852095241191 -11.179330371780495 116.15810965676309 0.65605901945558964 0 -0.75470958851134928 I I #
edge $-1 $428 -22.960449467915339 $221 -11.179330371780495 $336 $435 forward 7 unknown #
point $-1 74.983977782525102 -11.179330371780495 10.929565030364033 #
point $-1 68.069923854136391 -11.179330371780495 10.929565030364031 #
edge $-1 $436 1 $436 0 $224 $-1 forward 7 unknown #
vertex $-1 $225 $437 #
ellipse-curve $-1 70.671358390448106 -19.594415440448241 6.2089551948132513 0.75470958851134928 0 0.65605901945558964 0.65605901945558964 0 -0.75470958851134928 1 I I #
point $-1 72.183009837786344 -19.594415440448241 6.1980007378585533 #
edge $-1 $438 1 $438 0 $228 $-1 forward 7 unknown #
vertex $-1 $229 $439 #
ellipse-curve $-1 70.671358390448106 -14.545364399247593 6.2089551948132513 0.75470958851134928 0 0.65605901945558964 0.65605901945558964 0 -0.75470958851134928 1 I I #
point $-1 72.183009837786344 -14.545364399247593 6.1980007378585533 #
plane-surface $-1 0 0 10.929565030364033 0 0 1 1 0 0 forward_v I I I I #
coedge $-1 $363 $362 $355 $440 forward $233 $-1 #
coedge $-1 $355 $235 $237 $359 reversed $146 $-1 #
coedge $-1 $235 $354 $353 $440 reversed $146 $-1 #
coedge $-1 $243 $238 $235 $357 forward $244 $-1 #
edge $-1 $360 -20.734700468293454 $441 -11.701927360823532 $356 $442 forward 7 unknown #
coedge $-1 $237 $236 $363 $443 reversed $91 $-1 #
edge $-1 $444 0 $360 11.968541843353277 $354 $445 forward 7 unknown #
vertex $-1 $239 $446 #
straight-curve $-1 -65.95120467505518 -0.37172043681009725 10.929565030364035 0 1 0 I I #
coedge $-1 $353 $240 $243 $367 reversed $233 $-1 #
coedge $-1 $240 $353 $358 $443 forward $233 $-1 #
vertex $-1 $241 $447 #
straight-curve $-1 -74.983977782525102 -6.7863599643690051 58.129873372990808 0 0 1 I I #
straight-curve $-1 -74.983977782525102 -6.7863599643690051 3.0774949946940495 -0.75470957328743171 0 -0.6560590369687036 I I #
edge $-1 $441 -5.2994782171286161 $245 6.7863599643690051 $362 $448 forward 7 unknown #
point $-1 -74.983977782525102 -6.7863599643690051 10.929565030364033 #
point $-1 -65.95120467505518 -6.7863599643690051 10.929565030364033 #
edge $-1 $449 1 $449 0 $248 $-1 forward 7 unknown #
vertex $-1 $249 $450 #
ellipse-curve $-1 -69.21536880013889 -0.74344087362019451 5.5630129225504215 -0.6560590369687036 0 0.75470957328743171 1.1320643599311475 0 0.9840885554530554 1 I I #
point $-1 -69.335526868858992 -0.74344087362019451 7.9876185679820892 #
plane-surface $-1 74.983977782525102 0 0 -1 0 0 0 0 1 forward_v I I I I #
coedge $-1 $256 $255 $269 $385 forward $100 $-1 #
edge $-1 $380 -74.983977782525102 $377 74.983977782525102 $259 $451 forward 7 unknown #
vertex $-1 $258 $452 #
straight-curve $-1 74.983977782525102 0 10.929565030364033 0 1 0 I I #
straight-curve $-1 74.983977782525102 -35.210454852468104 0 0 0 -1 I I #
vertex $-1 $385 $453 #
straight-curve $-1 -74.983977782525102 -35.210454852468104 0 0 0 -1 I I #
point $-1 74.983977782525102 -35.210454852468104 -10.929565030364033 #
point $-1 -74.983977782525102 -35.210454852468104 -10.929565030364033 #
straight-curve $-1 0 35.210454852468104 10.929565030364033 -1 0 0 I I #
edge $-1 $270 -35.210454852468104 $380 35.210454852468104 $269 $454 forward 7 unknown #
point $-1 -74.983977782525102 35.210454852468104 10.929565030364033 #
point $-1 74.983977782525102 35.210454852468104 10.929565030364033 #
straight-curve $-1 74.983977782525102 0 -10.929565030364033 0 -1 0 I I #
straight-curve $-1 -74.983977782525102 0 -10.929565030364033 0 1 0 I I #
plane-surface $-1 0 0 10.929565030364033 0 0 1 1 0 0 forward_v I I I I #
coedge $-1 $288 $403 $392 $455 forward $281 $-1 #
coedge $-1 $284 $283 $391 $455 reversed $108 $-1 #
edge $-1 $399 -1.6135676392219622 $397 1.6135676392219622 $283 $456 forward 7 unknown #
coedge $-1 $296 $295 $284 $395 forward $297 $-1 #
edge $-1 $396 -1.6135676392219622 $457 1.6135676392219622 $284 $458 forward 7 unknown #
vertex $-1 $300 $459 #
vertex $-1 $290 $460 #
straight-curve $-1 -56.351983000240956 -47.460460237020868 0 0 0 -1 I I #
vertex $-1 $455 $461 #
straight-curve $-1 -53.124847721797032 -41.335457544744486 -10.929565030364033 0 -1 0 I I #
straight-curve $-1 -56.351983000240956 -41.335457544744486 -10.929565030364033 0 1 0 I I #
point $-1 -53.124847721797032 -35.210454852468104 -10.929565030364033 #
coedge $-1 $391 $293 $296 $405 reversed $281 $-1 #
straight-curve $-1 -53.124847721797032 -35.210454852468104 0 0 0 -1 I I #
edge $-1 $457 -6.1250026922763823 $298 6.1250026922763823 $403 $462 forward 7 unknown #
point $-1 -53.124847721797032 -35.210454852468104 10.929565030364033 #
straight-curve $-1 -56.351983000240956 -41.335457544744486 10.929565030364033 0 -1 0 I I #
plane-surface $-1 0 0 10.929565030364033 0 0 1 1 0 0 forward_v I I I I #
coedge $-1 $308 $305 $310 $416 reversed $194 $-1 #
coedge $-1 $305 $308 $422 $463 reversed $194 $-1 #
edge $-1 $424 -10.929565030364033 $418 10.929565030364033 $322 $464 forward 7 unknown #
edge $-1 $413 -6.1250026922763823 $320 6.1250026922763823 $307 $465 forward 7 unknown #
vertex $-1 $463 $466 #
vertex $-1 $416 $467 #
straight-curve $-1 -56.351983000240956 47.460460237020868 0 0 0 -1 I I #
edge $-1 $414 -1.6135676392219622 $418 1.6135676392219622 $409 $468 forward 7 unknown #
straight-curve $-1 -56.351983000240956 41.335457544744486 -10.929565030364033 0 1 0 I I #
vertex $-1 $312 $469 #
straight-curve $-1 -53.124847721797032 41.335457544744486 -10.929565030364033 0 -1 0 I I #
point $-1 -56.351983000240956 35.210454852468104 -10.929565030364033 #
straight-curve $-1 -56.351983000240956 35.210454852468104 0 0 0 -1 I I #
coedge $-1 $318 $317 $410 $463 forward $319 $-1 #
point $-1 -56.351983000240956 35.210454852468104 10.929565030364033 #
vertex $-1 $323 $470 #
straight-curve $-1 -53.124847721797032 41.335457544744486 10.929565030364033 0 1 0 I I #
coedge $-1 $337 $336 $329 $427 forward $326 $-1 #
edge $-1 $428 96.343404736900652 $431 104.29711414488897 $426 $471 forward 7 unknown #
vertex $-1 $341 $472 #
straight-curve $-1 44.889200969573082 -22.960449467915339 10.929565030364031 1 0 0 I I #
edge $-1 $431 -14.425504507991381 $338 -2.6443854118565362 $337 $473 forward 7 unknown #
vertex $-1 $430 $474 #
straight-curve $-1 -23.403852095241191 -22.960449467915339 116.15810965676309 -0.65605901945558964 0 0.75470958851134928 I I #
point $-1 68.069923854136391 -22.960449467915339 10.929565030364031 #
point $-1 74.983977782525102 -11.179330371780495 2.9758556223757182 #
straight-curve $-1 74.983977782525102 0 10.929565030364033 0 1 0 I I #
vertex $-1 $344 $475 #
point $-1 71.327417409903688 -19.594415440448241 5.4542456063019022 #
vertex $-1 $348 $476 #
point $-1 71.327417409903688 -14.545364399247593 5.4542456063019022 #
edge $-1 $441 47.200308342626776 $444 55.052378378296758 $353 $477 forward 7 unknown #
vertex $-1 $367 $478 #
straight-curve $-1 -86.685905143348634 5.2994782171286161 10.929565030364031 -1 0 0 I I #
edge $-1 $444 -5.6711986539387134 $364 6.4146395275589079 $363 $479 forward 7 unknown #
vertex $-1 $443 $480 #
straight-curve $-1 -74.983977782525102 5.2994782171286161 3.0774949946940495 0.75470957328743171 0 0.6560590369687036 I I #
point $-1 -65.95120467505518 5.2994782171286161 10.929565030364033 #
point $-1 -74.983977782525102 -6.7863599643690051 3.0774949946940495 #
straight-curve $-1 -74.983977782525102 0 10.929565030364033 0 -1 0 I I #
vertex $-1 $370 $481 #
point $-1 -68.083304440207755 -0.74344087362019451 6.5471014780034764 #
straight-curve $-1 0 -35.210454852468104 10.929565030364033 1 0 0 I I #
point $-1 74.983977782525102 -35.210454852468104 10.929565030364033 #
point $-1 -74.983977782525102 -35.210454852468104 10.929565030364033 #
straight-curve $-1 -74.983977782525102 0 10.929565030364033 0 -1 0 I I #
edge $-1 $457 -10.929565030364033 $399 10.929565030364033 $391 $482 forward 7 unknown #
straight-curve $-1 -54.738415361018994 -47.460460237020868 -10.929565030364033 -1 0 0 I I #
vertex $-1 $405 $483 #
straight-curve $-1 -54.738415361018994 -47.460460237020868 10.929565030364033 1 0 0 I I #
point $-1 -56.351983000240956 -47.460460237020868 10.929565030364033 #
point $-1 -56.351983000240956 -47.460460237020868 -10.929565030364033 #
point $-1 -53.124847721797032 -47.460460237020868 -10.929565030364033 #
straight-curve $-1 -53.124847721797032 -41.335457544744486 10.929565030364033 0 1 0 I I #
edge $-1 $424 -1.6135676392219622 $413 1.6135676392219622 $410 $484 forward 7 unknown #
straight-curve $-1 -53.124847721797032 47.460460237020868 0 0 0 -1 I I #
straight-curve $-1 -56.351983000240956 41.335457544744486 10.929565030364033 0 -1 0 I I #
point $-1 -56.351983000240956 47.460460237020868 10.929565030364033 #
point $-1 -56.351983000240956 47.460460237020868 -10.929565030364033 #
straight-curve $-1 -54.738415361018994 47.460460237020868 -10.929565030364033 1 0 0 I I #
point $-1 -53.124847721797032 47.460460237020868 -10.929565030364033 #
point $-1 -53.124847721797032 47.460460237020868 10.929565030364033 #
straight-curve $-1 74.983977782525102 -22.960449467915339 107.27296976726468 0 0 -1 I I #
point $-1 74.983977782525102 -22.960449467915339 10.929565030364033 #
straight-curve $-1 74.983977782525102 -8.5349449599239584 2.9758556223757111 0 1 0 I I #
point $-1 74.983977782525102 -22.960449467915339 2.9758556223757182 #
point $-1 69.916648801936745 -19.594415440448241 5.5528961753576613 #
point $-1 69.916648801936745 -14.545364399247593 5.5528961753576613 #
straight-curve $-1 -74.983977782525102 5.2994782171286161 58.129873372990808 0 0 -1 I I #
point $-1 -74.983977782525102 5.2994782171286161 10.929565030364033 #
straight-curve $-1 -74.983977782525102 -0.37172043681009725 3.0774949946940442 0 -1 0 I I #
point $-1 -74.983977782525102 5.2994782171286161 3.0774949946940495 #
point $-1 -68.231280244685848 -0.74344087362019451 4.4309485626192737 #
straight-curve $-1 -53.124847721797032 -47.460460237020868 0 0 0 -1 I I #
point $-1 -53.124847721797032 -47.460460237020868 10.929565030364033 #
straight-curve $-1 -54.738415361018994 47.460460237020868 10.929565030364033 -1 0 0 I I #
End-of-ACIS-data 