500 0 10 0           
7 Unknown 11 ACIS 5.0 NT 24 Fri Mar 26 18:20:24 1999 
-1 9.9999999999999995e-007 1e-010 
body $-1 $10 $-1 $11 #
body $-1 $12 $-1 $13 #
body $-1 $14 $-1 $15 #
body $-1 $16 $-1 $17 #
body $-1 $18 $-1 $19 #
body $-1 $20 $-1 $21 #
body $-1 $22 $-1 $23 #
body $-1 $24 $-1 $25 #
body $-1 $26 $-1 $27 #
body $-1 $28 $-1 $29 #
lump $-1 $-1 $30 $0 #
transform $-1 1 0 0 0 1 0 0 0 1 40.345469527268286 21.672684437944216 6.891645115547953 1 rotate no_reflect no_shear #
lump $-1 $-1 $31 $1 #
transform $-1 1 0 0 0 1 0 0 0 1 40.345469527268286 21.672684437944216 6.891645115547953 1 rotate no_reflect no_shear #
lump $-1 $-1 $32 $2 #
transform $-1 1 0 0 0 1 0 0 0 1 40.345469527268286 21.672684437944216 6.891645115547953 1 rotate no_reflect no_shear #
lump $-1 $-1 $33 $3 #
transform $-1 1 0 0 0 1 0 0 0 1 40.345469527268286 21.672684437944216 6.891645115547953 1 rotate no_reflect no_shear #
lump $-1 $-1 $34 $4 #
transform $-1 1 0 0 0 1 0 0 0 1 40.345469527268286 21.672684437944216 6.891645115547953 1 rotate no_reflect no_shear #
lump $-1 $-1 $35 $5 #
transform $-1 1 0 0 0 1 0 0 0 1 40.345469527268286 21.672684437944216 6.891645115547953 1 rotate no_reflect no_shear #
lump $-1 $-1 $36 $6 #
transform $-1 1 0 0 0 1 0 0 0 1 40.345469527268286 21.672684437944216 6.891645115547953 1 rotate no_reflect no_shear #
lump $-1 $-1 $37 $7 #
transform $-1 1 0 0 0 1 0 0 0 1 40.345469527268286 21.672684437944216 6.891645115547953 1 rotate no_reflect no_shear #
lump $-1 $-1 $38 $8 #
transform $-1 1 0 0 0 1 0 0 0 1 40.345469527268286 21.672684437944216 6.891645115547953 1 rotate no_reflect no_shear #
lump $-1 $-1 $39 $9 #
transform $-1 1 0 0 0 1 0 0 0 1 40.345469527268286 21.672684437944216 6.891645115547953 1 rotate no_reflect no_shear #
shell $-1 $-1 $-1 $40 $-1 $10 #
shell $-1 $-1 $-1 $41 $-1 $12 #
shell $-1 $-1 $-1 $42 $-1 $14 #
shell $-1 $-1 $-1 $43 $-1 $16 #
shell $-1 $-1 $-1 $44 $-1 $18 #
shell $-1 $-1 $-1 $45 $-1 $20 #
shell $-1 $-1 $-1 $46 $-1 $22 #
shell $-1 $-1 $-1 $47 $-1 $24 #
shell $-1 $-1 $-1 $48 $-1 $26 #
shell $-1 $-1 $-1 $49 $-1 $28 #
face $-1 $50 $51 $30 $-1 $52 forward single #
face $-1 $53 $54 $31 $-1 $55 forward single #
face $-1 $56 $57 $32 $-1 $58 reversed single #
face $-1 $59 $60 $33 $-1 $61 forward single #
face $-1 $62 $63 $34 $-1 $64 forward single #
face $-1 $65 $66 $35 $-1 $67 forward single #
face $-1 $68 $69 $36 $-1 $70 reversed single #
face $-1 $71 $72 $37 $-1 $73 forward single #
face $-1 $74 $75 $38 $-1 $76 forward single #
face $-1 $77 $78 $39 $-1 $79 forward single #
face $-1 $80 $81 $30 $-1 $82 reversed single #
loop $-1 $-1 $83 $40 #
plane-surface $-1 0 0 6.891645115547953 0 0 1 1 0 0 forward_v I I I I #
face $-1 $84 $85 $31 $-1 $86 reversed single #
loop $-1 $-1 $87 $41 #
plane-surface $-1 0 -17.516067778366629 5.6411033241674646 0 0 1 1 0 0 forward_v I I I I #
face $-1 $88 $89 $32 $-1 $90 reversed single #
loop $-1 $-1 $91 $42 #
plane-surface $-1 -97.402580375049581 5.9445485261360353 57.255688296103067 0 1 0 -0.70710678939079041 0 0.70710677298230451 forward_v I I I I #
face $-1 $92 $93 $33 $-1 $94 forward single #
loop $-1 $95 $96 $43 #
cone-surface $-1 -36.645383038624516 7.4196659214841887 3.1915585574517769 0.70710678939079041 0 -0.70710677298230451 0.35355338649115226 0 0.35355339469539521 1 I I 0 1 0.5 forward I I I I #
face $-1 $97 $98 $34 $-1 $99 forward single #
loop $-1 $100 $101 $44 #
cone-surface $-1 -36.645383038624516 9.6323420145064169 3.1915585574517769 0.70710678939079041 0 -0.70710677298230451 0.35355338649115226 0 0.35355339469539521 1 I I 0 1 0.5 forward I I I I #
face $-1 $102 $103 $35 $-1 $104 forward single #
loop $-1 $105 $106 $45 #
cone-surface $-1 -36.645383038624516 11.845018107528649 3.1915585574517769 0.70710678939079041 0 -0.70710677298230451 0.35355338649115226 0 0.35355339469539521 1 I I 0 1 0.5 forward I I I I #
face $-1 $107 $108 $36 $-1 $109 reversed single #
loop $-1 $-1 $110 $46 #
plane-surface $-1 -14.685617864688624 17.288495741739087 62.644093655958017 0.73135370988377701 0 0.68199835119979291 0.68199835119979291 0 -0.73135370988377701 forward_v I I I I #
face $-1 $111 $112 $37 $-1 $113 forward single #
loop $-1 $114 $115 $47 #
cone-surface $-1 38.124740802151948 14.65798252401601 4.6081283736778405 -0.73135370988377701 0 -0.68199835119979291 0.34099917559989645 0 -0.36567685494188851 1 I I 0 1 0.5 forward I I I I #
face $-1 $116 $117 $38 $-1 $118 forward single #
loop $-1 $119 $120 $48 #
cone-surface $-1 38.124740802151948 17.288495741739087 4.6081283736778405 -0.73135370988377701 0 -0.68199835119979291 0.34099917559989645 0 -0.36567685494188851 1 I I 0 1 0.5 forward I I I I #
face $-1 $121 $122 $39 $-1 $123 forward single #
loop $-1 $124 $125 $49 #
cone-surface $-1 38.124740802151948 19.919008959462165 4.6081283736778405 -0.73135370988377701 0 -0.68199835119979291 0.34099917559989645 0 -0.36567685494188851 1 I I 0 1 0.5 forward I I I I #
face $-1 $126 $127 $30 $-1 $128 reversed single #
loop $-1 $-1 $129 $50 #
plane-surface $-1 0 0 -6.891645115547953 0 0 1 1 0 0 forward_v I I I I #
coedge $-1 $130 $131 $132 $133 forward $51 $-1 #
face $-1 $134 $135 $31 $-1 $136 reversed single #
loop $-1 $-1 $137 $53 #
plane-surface $-1 0 -17.516067778366629 2.6411033241674646 0 0 1 1 0 0 forward_v I I I I #
coedge $-1 $138 $139 $140 $141 reversed $54 $-1 #
face $-1 $142 $143 $32 $-1 $144 reversed single #
loop $-1 $-1 $145 $56 #
plane-surface $-1 -40.345469527268286 9.6323420145064169 0.19857877233790333 -0.70710678939079041 0 0.70710677298230451 0.70710677298230451 0 0.70710678939079041 forward_v I I I I #
coedge $-1 $146 $147 $148 $149 reversed $57 $-1 #
face $-1 $-1 $150 $33 $-1 $151 forward single #
loop $-1 $152 $153 $59 #
cone-surface $-1 -36.115052946581422 7.4196659214841887 2.6612284777150483 0.70710678939079041 0 -0.70710677298230451 0.17677669324557613 0 0.1767766973476976 1 I I -0.70710678118654746 0.70710678118654746 0.25 forward I I I I #
loop $-1 $-1 $154 $43 #
coedge $-1 $96 $96 $155 $156 reversed $60 $-1 #
face $-1 $-1 $157 $34 $-1 $158 forward single #
loop $-1 $159 $160 $62 #
cone-surface $-1 -36.115052946581422 9.6323420145064169 2.6612284777150483 0.70710678939079041 0 -0.70710677298230451 0.17677669324557613 0 0.1767766973476976 1 I I -0.70710678118654746 0.70710678118654746 0.25 forward I I I I #
loop $-1 $-1 $161 $44 #
coedge $-1 $101 $101 $162 $163 reversed $63 $-1 #
face $-1 $-1 $164 $35 $-1 $165 forward single #
loop $-1 $166 $167 $65 #
cone-surface $-1 -36.115052946581422 11.845018107528649 2.6612284777150483 0.70710678939079041 0 -0.70710677298230451 0.17677669324557613 0 0.1767766973476976 1 I I -0.70710678118654746 0.70710678118654746 0.25 forward I I I I #
loop $-1 $-1 $168 $45 #
coedge $-1 $106 $106 $169 $170 reversed $66 $-1 #
face $-1 $171 $172 $36 $-1 $173 forward single #
loop $-1 $-1 $174 $68 #
plane-surface $-1 44.32799976685245 12.904307045533958 117.67518104791493 0 1 0 0.73135370988377701 0 0.68199835119979291 forward_v I I I I #
coedge $-1 $175 $176 $177 $178 reversed $69 $-1 #
face $-1 $-1 $179 $37 $-1 $180 forward single #
loop $-1 $181 $182 $71 #
cone-surface $-1 37.241718300584843 14.65798252401601 3.7846965895732856 -0.73135370988377701 0 -0.68199835119979291 0.17049958779994823 0 -0.18283842747094425 1 I I -0.70710678118654879 0.70710678118654635 0.25 forward I I I I #
loop $-1 $-1 $183 $47 #
coedge $-1 $115 $115 $184 $185 reversed $72 $-1 #
face $-1 $-1 $186 $38 $-1 $187 forward single #
loop $-1 $188 $189 $74 #
cone-surface $-1 37.241718300584843 17.288495741739087 3.7846965895732856 -0.73135370988377701 0 -0.68199835119979291 0.17049958779994823 0 -0.18283842747094425 1 I I -0.70710678118654879 0.70710678118654635 0.25 forward I I I I #
loop $-1 $-1 $190 $48 #
coedge $-1 $120 $120 $191 $192 reversed $75 $-1 #
face $-1 $-1 $193 $39 $-1 $194 forward single #
loop $-1 $195 $196 $77 #
cone-surface $-1 37.241718300584843 19.919008959462165 3.7846965895732856 -0.73135370988377701 0 -0.68199835119979291 0.17049958779994823 0 -0.18283842747094425 1 I I -0.70710678118654879 0.70710678118654635 0.25 forward I I I I #
loop $-1 $-1 $197 $49 #
coedge $-1 $125 $125 $198 $199 reversed $78 $-1 #
face $-1 $200 $201 $30 $-1 $202 reversed single #
loop $-1 $-1 $203 $80 #
plane-surface $-1 0 -21.672684437944216 0 0 1 0 0 0 1 forward_v I I I I #
coedge $-1 $204 $205 $206 $207 forward $81 $-1 #
coedge $-1 $208 $83 $209 $210 forward $51 $-1 #
coedge $-1 $83 $208 $211 $212 forward $51 $-1 #
coedge $-1 $213 $214 $83 $133 reversed $215 $-1 #
edge $-1 $216 -21.672684437944216 $217 21.672684437944216 $132 $218 forward 7 unknown #
face $-1 $219 $220 $31 $-1 $221 reversed single #
loop $-1 $-1 $222 $84 #
plane-surface $-1 0 -13.359451118789043 4.1411033241674646 0 -1 0 0 0 -1 forward_v I I I I #
coedge $-1 $223 $224 $225 $226 reversed $85 $-1 #
coedge $-1 $227 $87 $228 $229 forward $54 $-1 #
coedge $-1 $87 $227 $230 $231 reversed $54 $-1 #
coedge $-1 $232 $233 $87 $141 forward $234 $-1 #
edge $-1 $235 4.6014172296057279 $236 12.914650548760902 $140 $237 forward 7 unknown #
face $-1 $238 $239 $32 $-1 $240 reversed single #
loop $-1 $-1 $241 $88 #
plane-surface $-1 -97.402580375049581 13.320135502876798 57.255688296103067 0 -1 0 0.70710678939079041 0 -0.70710677298230451 forward_v I I I I #
coedge $-1 $242 $243 $244 $245 reversed $89 $-1 #
coedge $-1 $147 $91 $246 $247 reversed $57 $-1 #
coedge $-1 $91 $146 $242 $248 reversed $57 $-1 #
coedge $-1 $244 $249 $91 $149 forward $250 $-1 #
edge $-1 $251 8.3558206602565051 $252 15.048886848153259 $148 $253 forward 7 unknown #
loop $-1 $-1 $155 $92 #
plane-surface $-1 -40.345469527268286 9.6323420145064169 0.19857877233790333 -0.70710678939079041 0 0.70710677298230451 0.70710677298230451 0 0.70710678939079041 forward_v I I I I #
loop $-1 $-1 $254 $59 #
coedge $-1 $153 $153 $154 $255 reversed $93 $-1 #
coedge $-1 $154 $154 $153 $255 forward $95 $-1 #
coedge $-1 $155 $155 $96 $156 forward $150 $-1 #
edge $-1 $256 0 $256 6.2831853071796004 $155 $257 forward 7 unknown #
loop $-1 $-1 $162 $97 #
plane-surface $-1 -40.345469527268286 9.6323420145064169 0.19857877233790333 -0.70710678939079041 0 0.70710677298230451 0.70710677298230451 0 0.70710678939079041 forward_v I I I I #
loop $-1 $-1 $258 $62 #
coedge $-1 $160 $160 $161 $259 reversed $98 $-1 #
coedge $-1 $161 $161 $160 $259 forward $100 $-1 #
coedge $-1 $162 $162 $101 $163 forward $157 $-1 #
edge $-1 $260 0 $260 6.2831853071796004 $162 $261 forward 7 unknown #
loop $-1 $-1 $169 $102 #
plane-surface $-1 -40.345469527268286 9.6323420145064169 0.19857877233790333 -0.70710678939079041 0 0.70710677298230451 0.70710677298230451 0 0.70710678939079041 forward_v I I I I #
loop $-1 $-1 $262 $65 #
coedge $-1 $167 $167 $168 $263 reversed $103 $-1 #
coedge $-1 $168 $168 $167 $263 forward $105 $-1 #
coedge $-1 $169 $169 $106 $170 forward $164 $-1 #
edge $-1 $264 0 $264 6.2831853071796004 $169 $265 forward 7 unknown #
face $-1 $266 $267 $36 $-1 $268 reversed single #
loop $-1 $-1 $177 $107 #
plane-surface $-1 0 0 6.891645115547953 0 0 1 1 0 0 forward_v I I I I #
coedge $-1 $269 $270 $271 $272 reversed $108 $-1 #
coedge $-1 $273 $110 $274 $275 reversed $69 $-1 #
coedge $-1 $110 $273 $269 $276 forward $69 $-1 #
coedge $-1 $271 $277 $110 $178 forward $172 $-1 #
edge $-1 $278 -13.028436567074673 $279 -4.2600591746644145 $177 $280 forward 7 unknown #
loop $-1 $-1 $184 $111 #
plane-surface $-1 -14.685617864688624 17.288495741739087 62.644093655958017 0.73135370988377701 0 0.68199835119979291 0.68199835119979291 0 -0.73135370988377701 forward_v I I I I #
loop $-1 $-1 $281 $71 #
coedge $-1 $182 $182 $183 $282 reversed $112 $-1 #
coedge $-1 $183 $183 $182 $282 forward $114 $-1 #
coedge $-1 $184 $184 $115 $185 forward $179 $-1 #
edge $-1 $283 0 $283 6.2831853071796004 $184 $284 forward 7 unknown #
loop $-1 $-1 $191 $116 #
plane-surface $-1 -14.685617864688624 17.288495741739087 62.644093655958017 0.73135370988377701 0 0.68199835119979291 0.68199835119979291 0 -0.73135370988377701 forward_v I I I I #
loop $-1 $-1 $285 $74 #
coedge $-1 $189 $189 $190 $286 reversed $117 $-1 #
coedge $-1 $190 $190 $189 $286 forward $119 $-1 #
coedge $-1 $191 $191 $120 $192 forward $186 $-1 #
edge $-1 $287 0 $287 6.2831853071796004 $191 $288 forward 7 unknown #
loop $-1 $-1 $198 $121 #
plane-surface $-1 -14.685617864688624 17.288495741739087 62.644093655958017 0.73135370988377701 0 0.68199835119979291 0.68199835119979291 0 -0.73135370988377701 forward_v I I I I #
loop $-1 $-1 $289 $77 #
coedge $-1 $196 $196 $197 $290 reversed $122 $-1 #
coedge $-1 $197 $197 $196 $290 forward $124 $-1 #
coedge $-1 $198 $198 $125 $199 forward $193 $-1 #
edge $-1 $291 0 $291 6.2831853071796004 $198 $292 forward 7 unknown #
face $-1 $293 $294 $30 $-1 $295 reversed single #
loop $-1 $-1 $296 $126 #
plane-surface $-1 -40.345469527268286 0 0 1 0 0 0 0 -1 forward_v I I I I #
coedge $-1 $297 $211 $298 $299 forward $127 $-1 #
coedge $-1 $300 $129 $297 $301 forward $81 $-1 #
coedge $-1 $129 $300 $302 $303 forward $81 $-1 #
coedge $-1 $214 $213 $129 $207 reversed $215 $-1 #
edge $-1 $304 -21.672684437944216 $305 21.672684437944216 $206 $306 forward 7 unknown #
coedge $-1 $131 $130 $307 $308 forward $51 $-1 #
coedge $-1 $309 $310 $130 $210 reversed $294 $-1 #
edge $-1 $217 -40.345469527268286 $311 40.345469527268286 $209 $312 forward 7 unknown #
coedge $-1 $203 $313 $131 $212 reversed $127 $-1 #
edge $-1 $314 -40.345469527268286 $216 40.345469527268286 $211 $315 forward 7 unknown #
coedge $-1 $206 $132 $313 $316 forward $215 $-1 #
coedge $-1 $132 $206 $309 $317 reversed $215 $-1 #
loop $-1 $-1 $213 $293 #
vertex $-1 $133 $318 #
vertex $-1 $133 $319 #
straight-curve $-1 40.345469527268286 0 6.891645115547953 0 1 0 I I #
face $-1 $320 $321 $31 $-1 $322 reversed single #
loop $-1 $-1 $323 $134 #
plane-surface $-1 -40.345469527268286 0 0 1 0 0 0 0 -1 forward_v I I I I #
coedge $-1 $324 $228 $233 $325 reversed $135 $-1 #
coedge $-1 $326 $137 $327 $328 reversed $85 $-1 #
coedge $-1 $137 $326 $324 $329 forward $85 $-1 #
coedge $-1 $233 $232 $137 $226 forward $234 $-1 #
edge $-1 $330 -12.914650548760902 $331 -4.6014172296057279 $225 $332 forward 7 unknown #
coedge $-1 $139 $138 $323 $333 reversed $54 $-1 #
coedge $-1 $222 $334 $138 $229 reversed $135 $-1 #
edge $-1 $235 -40.345469527268286 $335 40.345469527268286 $228 $336 forward 7 unknown #
coedge $-1 $337 $338 $139 $231 forward $321 $-1 #
edge $-1 $236 -40.345469527268286 $339 40.345469527268286 $230 $340 forward 7 unknown #
coedge $-1 $225 $140 $338 $341 forward $234 $-1 #
coedge $-1 $140 $225 $222 $325 forward $234 $-1 #
loop $-1 $-1 $140 $320 #
vertex $-1 $141 $342 #
vertex $-1 $341 $343 #
straight-curve $-1 40.345469527268286 -8.7580338891833147 5.6411033241674646 0 -1 0 I I #
face $-1 $-1 $250 $32 $-1 $344 forward single #
loop $-1 $-1 $345 $142 #
plane-surface $-1 -40.345469527268286 0 0 1 0 0 0 0 -1 forward_v I I I I #
coedge $-1 $346 $347 $348 $349 reversed $143 $-1 #
coedge $-1 $350 $145 $147 $248 forward $89 $-1 #
coedge $-1 $145 $350 $346 $351 forward $89 $-1 #
coedge $-1 $348 $148 $145 $245 forward $250 $-1 #
edge $-1 $252 1.1283775188828269 $352 8.50396449562359 $244 $353 forward 7 unknown #
coedge $-1 $354 $355 $146 $247 forward $239 $-1 #
edge $-1 $356 -28.42926537571363 $251 -21.736199032503581 $246 $357 forward 7 unknown #
edge $-1 $252 -9.4654250866074676 $356 0 $147 $358 forward 7 unknown #
coedge $-1 $148 $348 $354 $359 forward $250 $-1 #
loop $-1 $-1 $348 $238 #
vertex $-1 $247 $360 #
vertex $-1 $149 $361 #
straight-curve $-1 -48.701290187524791 5.9445485261360353 6.8916451155479521 1 0 0 I I #
coedge $-1 $254 $254 $-1 $362 reversed $152 $-1 #
edge $-1 $363 0 $363 6.2831853071796004 $153 $364 forward 7 unknown #
vertex $-1 $156 $365 #
ellipse-curve $-1 -36.998936433319912 7.4196659214841887 3.5451119439429268 -0.70710678939079041 0 0.70710677298230451 0.35355338649115226 0 0.35355339469539521 1 I I #
coedge $-1 $258 $258 $-1 $366 reversed $159 $-1 #
edge $-1 $367 0 $367 6.2831853071796004 $160 $368 forward 7 unknown #
vertex $-1 $163 $369 #
ellipse-curve $-1 -36.998936433319912 9.6323420145064169 3.5451119439429268 -0.70710678939079041 0 0.70710677298230451 0.35355338649115226 0 0.35355339469539521 1 I I #
coedge $-1 $262 $262 $-1 $370 reversed $166 $-1 #
edge $-1 $371 0 $371 6.2831853071796004 $167 $372 forward 7 unknown #
vertex $-1 $170 $373 #
ellipse-curve $-1 -36.998936433319912 11.845018107528649 3.5451119439429268 -0.70710678939079041 0 0.70710677298230451 0.35355338649115226 0 0.35355339469539521 1 I I #
face $-1 $-1 $374 $36 $-1 $375 reversed single #
loop $-1 $-1 $376 $171 #
plane-surface $-1 40.345469527268286 0 0 -1 0 0 0 0 1 forward_v I I I I #
coedge $-1 $270 $174 $176 $276 reversed $108 $-1 #
coedge $-1 $174 $269 $377 $378 reversed $108 $-1 #
coedge $-1 $379 $177 $174 $272 forward $172 $-1 #
edge $-1 $279 15.14038034180172 $380 18.18146964384206 $271 $381 forward 7 unknown #
coedge $-1 $176 $175 $376 $382 reversed $69 $-1 #
coedge $-1 $383 $384 $175 $275 forward $374 $-1 #
edge $-1 $385 -52.775660320706777 $278 -48.316574317506976 $274 $386 forward 7 unknown #
edge $-1 $387 -80.690939054536557 $279 -76.231853051336756 $269 $388 forward 7 unknown #
coedge $-1 $177 $379 $383 $389 forward $172 $-1 #
vertex $-1 $275 $390 #
vertex $-1 $178 $391 #
straight-curve $-1 37.304380225227952 8.6442478708695436 6.8916451155479521 0 -1 0 I I #
coedge $-1 $281 $281 $-1 $392 reversed $181 $-1 #
edge $-1 $393 0 $393 6.2831853071796004 $182 $394 forward 7 unknown #
vertex $-1 $185 $395 #
ellipse-curve $-1 38.824924876248112 14.65798252401601 5.2610605699824493 0.73135370988377701 0 0.68199835119979291 0.34099917559989645 0 -0.36567685494188851 1 I I #
coedge $-1 $285 $285 $-1 $396 reversed $188 $-1 #
edge $-1 $397 0 $397 6.2831853071796004 $189 $398 forward 7 unknown #
vertex $-1 $192 $399 #
ellipse-curve $-1 38.824924876248112 17.288495741739087 5.2610605699824493 0.73135370988377701 0 0.68199835119979291 0.34099917559989645 0 -0.36567685494188851 1 I I #
coedge $-1 $289 $289 $-1 $400 reversed $195 $-1 #
edge $-1 $401 0 $401 6.2831853071796004 $196 $402 forward 7 unknown #
vertex $-1 $199 $403 #
ellipse-curve $-1 38.824924876248112 19.919008959462165 5.2610605699824493 0.73135370988377701 0 0.68199835119979291 0.34099917559989645 0 -0.36567685494188851 1 I I #
face $-1 $-1 $215 $30 $-1 $404 reversed single #
loop $-1 $-1 $309 $200 #
plane-surface $-1 0 21.672684437944216 0 0 -1 0 0 0 -1 forward_v I I I I #
coedge $-1 $405 $307 $310 $406 forward $201 $-1 #
coedge $-1 $313 $203 $204 $301 reversed $127 $-1 #
coedge $-1 $307 $405 $203 $299 reversed $201 $-1 #
edge $-1 $314 -6.891645115547953 $407 6.891645115547953 $298 $408 forward 7 unknown #
coedge $-1 $205 $204 $405 $409 forward $81 $-1 #
edge $-1 $305 -40.345469527268286 $407 40.345469527268286 $297 $410 forward 7 unknown #
coedge $-1 $310 $309 $205 $303 reversed $294 $-1 #
edge $-1 $411 -40.345469527268286 $304 40.345469527268286 $302 $412 forward 7 unknown #
vertex $-1 $207 $413 #
vertex $-1 $316 $414 #
straight-curve $-1 40.345469527268286 0 -6.891645115547953 0 -1 0 I I #
coedge $-1 $296 $298 $208 $308 reversed $201 $-1 #
edge $-1 $311 -21.672684437944216 $314 21.672684437944216 $307 $415 forward 7 unknown #
coedge $-1 $302 $209 $214 $317 forward $294 $-1 #
coedge $-1 $209 $302 $296 $406 reversed $294 $-1 #
vertex $-1 $210 $416 #
straight-curve $-1 0 21.672684437944216 6.891645115547953 -1 0 0 I I #
coedge $-1 $211 $297 $213 $316 reversed $127 $-1 #
vertex $-1 $308 $417 #
straight-curve $-1 0 -21.672684437944216 6.891645115547953 1 0 0 I I #
edge $-1 $216 -6.891645115547953 $305 6.891645115547953 $213 $418 forward 7 unknown #
edge $-1 $217 -6.891645115547953 $304 6.891645115547953 $214 $419 forward 7 unknown #
point $-1 40.345469527268286 -21.672684437944216 6.891645115547953 #
point $-1 40.345469527268286 21.672684437944216 6.891645115547953 #
face $-1 $-1 $234 $31 $-1 $420 reversed single #
loop $-1 $-1 $230 $219 #
plane-surface $-1 0 -21.672684437944216 0 0 1 0 0 0 1 forward_v I I I I #
coedge $-1 $421 $422 $227 $333 forward $220 $-1 #
coedge $-1 $334 $222 $224 $329 reversed $135 $-1 #
edge $-1 $331 0.57055166208373231 $235 3.5705516620837323 $233 $423 forward 7 unknown #
coedge $-1 $224 $223 $424 $425 reversed $85 $-1 #
coedge $-1 $338 $337 $223 $328 forward $321 $-1 #
edge $-1 $426 -40.345469527268286 $330 40.345469527268286 $327 $427 forward 7 unknown #
edge $-1 $428 -40.345469527268286 $331 40.345469527268286 $324 $429 forward 7 unknown #
vertex $-1 $328 $430 #
vertex $-1 $226 $431 #
straight-curve $-1 40.345469527268286 -8.7580338891833147 2.6411033241674646 0 1 0 I I #
edge $-1 $339 -12.914650548760902 $335 -4.6014172296057279 $323 $432 forward 7 unknown #
coedge $-1 $228 $324 $421 $433 reversed $135 $-1 #
vertex $-1 $333 $434 #
straight-curve $-1 0 -13.359451118789043 5.6411033241674646 -1 0 0 I I #
coedge $-1 $327 $230 $422 $435 forward $321 $-1 #
coedge $-1 $230 $327 $232 $341 reversed $321 $-1 #
vertex $-1 $435 $436 #
straight-curve $-1 0 -21.672684437944216 5.6411033241674646 -1 0 0 I I #
edge $-1 $236 -5.6411033241674646 $330 -2.6411033241674646 $232 $437 forward 7 unknown #
point $-1 40.345469527268286 -13.359451118789043 5.6411033241674646 #
point $-1 40.345469527268286 -21.672684437944216 5.6411033241674646 #
plane-surface $-1 0 0 6.891645115547953 0 0 1 1 0 0 forward_v I I I I #
coedge $-1 $355 $354 $347 $438 forward $239 $-1 #
coedge $-1 $347 $241 $243 $351 reversed $143 $-1 #
coedge $-1 $241 $346 $345 $438 reversed $143 $-1 #
coedge $-1 $249 $244 $241 $349 forward $250 $-1 #
edge $-1 $352 -15.048886848153259 $439 -8.3558206602565051 $348 $440 forward 7 unknown #
coedge $-1 $243 $242 $355 $441 reversed $89 $-1 #
edge $-1 $442 0 $352 9.4654250866074676 $346 $443 forward 7 unknown #
vertex $-1 $245 $444 #
straight-curve $-1 -33.652403339371531 4.8161710072532085 6.891645115547953 0 1 0 I I #
coedge $-1 $345 $246 $249 $359 reversed $239 $-1 #
coedge $-1 $246 $345 $350 $441 forward $239 $-1 #
vertex $-1 $247 $445 #
straight-curve $-1 -40.345469527268286 5.9445485261360353 28.627844148051533 0 0 1 I I #
straight-curve $-1 -40.345469527268286 5.9445485261360353 0.19857877233790333 -0.70710677298230451 0 -0.70710678939079041 I I #
edge $-1 $439 -13.320135502876798 $251 -5.9445485261360353 $354 $446 forward 7 unknown #
point $-1 -40.345469527268286 5.9445485261360353 6.891645115547953 #
point $-1 -33.652403339371531 5.9445485261360353 6.891645115547953 #
edge $-1 $447 1 $447 0 $254 $-1 forward 7 unknown #
vertex $-1 $255 $448 #
ellipse-curve $-1 -36.29182964392912 7.4196659214841887 2.8380051709606247 -0.70710678939079041 0 0.70710677298230451 0.35355338649115226 0 0.35355339469539521 1 I I #
point $-1 -36.645383046828755 7.4196659214841887 3.8986653386383239 #
edge $-1 $449 1 $449 0 $258 $-1 forward 7 unknown #
vertex $-1 $259 $450 #
ellipse-curve $-1 -36.29182964392912 9.6323420145064169 2.8380051709606247 -0.70710678939079041 0 0.70710677298230451 0.35355338649115226 0 0.35355339469539521 1 I I #
point $-1 -36.645383046828755 9.6323420145064169 3.8986653386383239 #
edge $-1 $451 1 $451 0 $262 $-1 forward 7 unknown #
vertex $-1 $263 $452 #
ellipse-curve $-1 -36.29182964392912 11.845018107528649 2.8380051709606247 -0.70710678939079041 0 0.70710677298230451 0.35355338649115226 0 0.35355339469539521 1 I I #
point $-1 -36.645383046828755 11.845018107528649 3.8986653386383239 #
loop $-1 $-1 $274 $266 #
plane-surface $-1 0 21.672684437944216 0 0 -1 0 0 0 -1 forward_v I I I I #
coedge $-1 $453 $377 $273 $382 forward $267 $-1 #
coedge $-1 $376 $454 $270 $378 forward $267 $-1 #
edge $-1 $380 51.945945408409514 $387 55.207114499540509 $377 $455 forward 7 unknown #
coedge $-1 $277 $271 $454 $456 forward $172 $-1 #
vertex $-1 $456 $457 #
straight-curve $-1 22.163999883426225 12.904307045533958 6.8916451155479521 1 0 0 I I #
edge $-1 $387 4.2600591746644145 $385 13.028436567074673 $376 $458 forward 7 unknown #
coedge $-1 $384 $274 $277 $389 reversed $374 $-1 #
coedge $-1 $274 $383 $453 $459 forward $374 $-1 #
vertex $-1 $275 $460 #
straight-curve $-1 4.3525562050659232 21.672684437944216 42.228150991531905 -0.68199835119979291 0 0.73135370988377701 I I #
vertex $-1 $382 $461 #
straight-curve $-1 -14.685617864688624 12.904307045533958 62.644093655958017 -0.68199835119979291 0 0.73135370988377701 I I #
edge $-1 $462 -40.345469527268286 $278 -37.304380225227945 $383 $463 forward 7 unknown #
point $-1 37.304380225227945 21.672684437944216 6.8916451155479521 #
point $-1 37.304380225227945 12.904307045533958 6.8916451155479521 #
edge $-1 $464 1 $464 0 $281 $-1 forward 7 unknown #
vertex $-1 $282 $465 #
ellipse-curve $-1 37.424556728055784 14.65798252401601 3.9551961773732334 0.73135370988377701 0 0.68199835119979291 0.34099917559989645 0 -0.36567685494188851 1 I I #
point $-1 39.165924051848009 14.65798252401601 4.8953837150405608 #
edge $-1 $466 1 $466 0 $285 $-1 forward 7 unknown #
vertex $-1 $286 $467 #
ellipse-curve $-1 37.424556728055784 17.288495741739087 3.9551961773732334 0.73135370988377701 0 0.68199835119979291 0.34099917559989645 0 -0.36567685494188851 1 I I #
point $-1 39.165924051848009 17.288495741739087 4.8953837150405608 #
edge $-1 $468 1 $468 0 $289 $-1 forward 7 unknown #
vertex $-1 $290 $469 #
ellipse-curve $-1 37.424556728055784 19.919008959462165 3.9551961773732334 0.73135370988377701 0 0.68199835119979291 0.34099917559989645 0 -0.36567685494188851 1 I I #
point $-1 39.165924051848009 19.919008959462165 4.8953837150405608 #
plane-surface $-1 40.345469527268286 0 0 -1 0 0 0 0 1 forward_v I I I I #
coedge $-1 $298 $296 $300 $409 reversed $201 $-1 #
edge $-1 $311 -6.891645115547953 $411 6.891645115547953 $310 $470 forward 7 unknown #
vertex $-1 $409 $471 #
straight-curve $-1 -40.345469527268286 -21.672684437944216 0 0 0 -1 I I #
edge $-1 $407 -21.672684437944216 $411 21.672684437944216 $405 $472 forward 7 unknown #
straight-curve $-1 0 -21.672684437944216 -6.891645115547953 -1 0 0 I I #
vertex $-1 $303 $473 #
straight-curve $-1 0 21.672684437944216 -6.891645115547953 1 0 0 I I #
point $-1 40.345469527268286 21.672684437944216 -6.891645115547953 #
point $-1 40.345469527268286 -21.672684437944216 -6.891645115547953 #
straight-curve $-1 -40.345469527268286 0 6.891645115547953 0 -1 0 I I #
point $-1 -40.345469527268286 21.672684437944216 6.891645115547953 #
point $-1 -40.345469527268286 -21.672684437944216 6.891645115547953 #
straight-curve $-1 40.345469527268286 -21.672684437944216 0 0 0 -1 I I #
straight-curve $-1 40.345469527268286 21.672684437944216 0 0 0 -1 I I #
plane-surface $-1 40.345469527268286 0 0 -1 0 0 0 0 1 forward_v I I I I #
coedge $-1 $424 $323 $334 $433 forward $220 $-1 #
coedge $-1 $323 $424 $337 $435 reversed $220 $-1 #
straight-curve $-1 40.345469527268286 -13.359451118789043 2.0705516620837323 0 0 1 I I #
coedge $-1 $422 $421 $326 $425 forward $220 $-1 #
edge $-1 $428 4.6014172296057279 $426 12.914650548760902 $424 $474 forward 7 unknown #
vertex $-1 $328 $475 #
straight-curve $-1 0 -21.672684437944216 2.6411033241674646 1 0 0 I I #
vertex $-1 $425 $476 #
straight-curve $-1 0 -13.359451118789043 2.6411033241674646 1 0 0 I I #
point $-1 40.345469527268286 -21.672684437944216 2.6411033241674646 #
point $-1 40.345469527268286 -13.359451118789043 2.6411033241674646 #
straight-curve $-1 -40.345469527268286 -8.7580338891833147 5.6411033241674646 0 1 0 I I #
edge $-1 $335 -3.5705516620837323 $428 -0.57055166208373231 $421 $477 forward 7 unknown #
point $-1 -40.345469527268286 -13.359451118789043 5.6411033241674646 #
edge $-1 $339 -5.6411033241674646 $426 -2.6411033241674646 $422 $478 forward 7 unknown #
point $-1 -40.345469527268286 -21.672684437944216 5.6411033241674646 #
straight-curve $-1 40.345469527268286 -21.672684437944216 0 0 0 -1 I I #
edge $-1 $439 21.736199032503581 $442 28.42926537571363 $345 $479 forward 7 unknown #
vertex $-1 $359 $480 #
straight-curve $-1 -48.701290187524791 13.320135502876798 6.8916451155479521 -1 0 0 I I #
edge $-1 $442 -8.50396449562359 $356 -1.1283775188828269 $355 $481 forward 7 unknown #
vertex $-1 $441 $482 #
straight-curve $-1 -40.345469527268286 13.320135502876798 0.19857877233790333 0.70710677298230451 0 0.70710678939079041 I I #
point $-1 -33.652403339371531 13.320135502876798 6.891645115547953 #
point $-1 -40.345469527268286 5.9445485261360353 0.19857877233790333 #
straight-curve $-1 -40.345469527268286 0 6.891645115547953 0 -1 0 I I #
vertex $-1 $362 $483 #
point $-1 -35.93827625743797 7.4196659214841887 3.1915585656560195 #
vertex $-1 $366 $484 #
point $-1 -35.93827625743797 9.6323420145064169 3.1915585656560195 #
vertex $-1 $370 $485 #
point $-1 -35.93827625743797 11.845018107528649 3.1915585656560195 #
coedge $-1 $454 $376 $384 $459 reversed $267 $-1 #
coedge $-1 $377 $453 $379 $456 reversed $267 $-1 #
straight-curve $-1 40.345469527268286 12.904307045533958 58.837590523957466 0 0 -1 I I #
edge $-1 $380 12.904307045533958 $462 21.672684437944216 $454 $486 forward 7 unknown #
point $-1 40.345469527268286 12.904307045533958 6.891645115547953 #
straight-curve $-1 40.345469527268286 8.6442478708695436 3.6304760244169572 0 1 0 I I #
edge $-1 $462 -6.891645115547953 $385 -3.6304760244169572 $453 $487 forward 7 unknown #
point $-1 40.345469527268286 21.672684437944216 3.6304760244169572 #
point $-1 40.345469527268286 12.904307045533958 3.6304760244169572 #
vertex $-1 $456 $488 #
straight-curve $-1 0 21.672684437944216 6.891645115547953 -1 0 0 I I #
vertex $-1 $392 $489 #
point $-1 37.765555903655681 14.65798252401601 3.5895193224313449 #
vertex $-1 $396 $490 #
point $-1 37.765555903655681 17.288495741739087 3.5895193224313449 #
vertex $-1 $400 $491 #
point $-1 37.765555903655681 19.919008959462165 3.5895193224313449 #
straight-curve $-1 -40.345469527268286 21.672684437944216 0 0 0 -1 I I #
point $-1 -40.345469527268286 -21.672684437944216 -6.891645115547953 #
straight-curve $-1 -40.345469527268286 0 -6.891645115547953 0 1 0 I I #
point $-1 -40.345469527268286 21.672684437944216 -6.891645115547953 #
straight-curve $-1 -40.345469527268286 -8.7580338891833147 2.6411033241674646 0 -1 0 I I #
point $-1 -40.345469527268286 -21.672684437944216 2.6411033241674646 #
point $-1 -40.345469527268286 -13.359451118789043 2.6411033241674646 #
straight-curve $-1 -40.345469527268286 -13.359451118789043 2.0705516620837323 0 0 -1 I I #
straight-curve $-1 -40.345469527268286 -21.672684437944216 0 0 0 -1 I I #
straight-curve $-1 -40.345469527268286 13.320135502876798 28.627844148051533 0 0 -1 I I #
point $-1 -40.345469527268286 13.320135502876798 6.891645115547953 #
straight-curve $-1 -40.345469527268286 4.8161710072532085 0.19857877233790155 0 -1 0 I I #
point $-1 -40.345469527268286 13.320135502876798 0.19857877233790333 #
point $-1 -35.938276249233724 7.4196659214841887 2.484451784469472 #
point $-1 -35.938276249233724 9.6323420145064169 2.484451784469472 #
point $-1 -35.938276249233724 11.845018107528649 2.484451784469472 #
straight-curve $-1 40.345469527268286 0 6.891645115547953 0 1 0 I I #
straight-curve $-1 40.345469527268286 21.672684437944216 0 0 0 -1 I I #
point $-1 40.345469527268286 21.672684437944216 6.891645115547953 #
point $-1 37.058879873113902 14.65798252401601 3.6141970017733378 #
point $-1 37.058879873113902 17.288495741739087 3.6141970017733378 #
point $-1 37.058879873113902 19.919008959462165 3.6141970017733378 #
End-of-ACIS-data 