500 0 10 0           
7 Unknown 11 ACIS 5.0 NT 24 Fri Mar 26 20:28:36 1999 
-1 9.9999999999999995e-007 1e-010 
body $-1 $10 $-1 $11 #
body $-1 $12 $-1 $13 #
body $-1 $14 $-1 $15 #
body $-1 $16 $-1 $17 #
body $-1 $18 $-1 $19 #
body $-1 $20 $-1 $21 #
body $-1 $22 $-1 $23 #
body $-1 $24 $-1 $25 #
body $-1 $26 $-1 $27 #
body $-1 $28 $-1 $29 #
lump $-1 $-1 $30 $0 #
transform $-1 1 0 0 0 1 0 0 0 1 72.629169591357169 47.944517042417431 15.698328636881255 1 rotate no_reflect no_shear #
lump $-1 $-1 $31 $1 #
transform $-1 1 0 0 0 1 0 0 0 1 72.629169591357169 47.944517042417431 15.698328636881255 1 rotate no_reflect no_shear #
lump $-1 $-1 $32 $2 #
transform $-1 1 0 0 0 1 0 0 0 1 72.629169591357169 47.944517042417431 15.698328636881255 1 rotate no_reflect no_shear #
lump $-1 $-1 $33 $3 #
transform $-1 1 0 0 0 1 0 0 0 1 72.629169591357169 47.944517042417431 15.698328636881255 1 rotate no_reflect no_shear #
lump $-1 $-1 $34 $4 #
transform $-1 1 0 0 0 1 0 0 0 1 72.629169591357169 47.944517042417431 15.698328636881255 1 rotate no_reflect no_shear #
lump $-1 $-1 $35 $5 #
transform $-1 1 0 0 0 1 0 0 0 1 72.629169591357169 47.944517042417431 15.698328636881255 1 rotate no_reflect no_shear #
lump $-1 $-1 $36 $6 #
transform $-1 1 0 0 0 1 0 0 0 1 72.629169591357169 47.944517042417431 15.698328636881255 1 rotate no_reflect no_shear #
lump $-1 $-1 $37 $7 #
transform $-1 1 0 0 0 1 0 0 0 1 72.629169591357169 47.944517042417431 15.698328636881255 1 rotate no_reflect no_shear #
lump $-1 $-1 $38 $8 #
transform $-1 1 0 0 0 1 0 0 0 1 72.629169591357169 47.944517042417431 15.698328636881255 1 rotate no_reflect no_shear #
lump $-1 $-1 $39 $9 #
transform $-1 1 0 0 0 1 0 0 0 1 72.629169591357169 47.944517042417431 15.698328636881255 1 rotate no_reflect no_shear #
shell $-1 $-1 $-1 $40 $-1 $10 #
shell $-1 $-1 $-1 $41 $-1 $12 #
shell $-1 $-1 $-1 $42 $-1 $14 #
shell $-1 $-1 $-1 $43 $-1 $16 #
shell $-1 $-1 $-1 $44 $-1 $18 #
shell $-1 $-1 $-1 $45 $-1 $20 #
shell $-1 $-1 $-1 $46 $-1 $22 #
shell $-1 $-1 $-1 $47 $-1 $24 #
shell $-1 $-1 $-1 $48 $-1 $26 #
shell $-1 $-1 $-1 $49 $-1 $28 #
face $-1 $50 $51 $30 $-1 $52 forward single #
face $-1 $53 $54 $31 $-1 $55 reversed single #
face $-1 $56 $57 $32 $-1 $58 reversed single #
face $-1 $59 $60 $33 $-1 $61 forward single #
face $-1 $62 $63 $34 $-1 $64 reversed single #
face $-1 $65 $66 $35 $-1 $67 forward single #
face $-1 $68 $69 $36 $-1 $70 reversed single #
face $-1 $71 $72 $37 $-1 $73 forward single #
face $-1 $74 $75 $38 $-1 $76 reversed single #
face $-1 $77 $78 $39 $-1 $79 forward single #
face $-1 $80 $81 $30 $-1 $82 reversed single #
loop $-1 $-1 $83 $40 #
plane-surface $-1 0 0 15.698328636881255 0 0 1 1 0 0 forward_v I I I I #
face $-1 $84 $85 $31 $-1 $86 reversed single #
loop $-1 $-1 $87 $41 #
plane-surface $-1 -45.548055537764313 -41.815313101982781 0 1 0 0 0 0 -1 forward_v I I I I #
face $-1 $88 $89 $32 $-1 $90 reversed single #
loop $-1 $-1 $91 $42 #
plane-surface $-1 -55.757688567154354 120.31713101408167 161.65904974072552 -1 0 0 0 0.84804810408105047 0.52991925155115449 forward_v I I I I #
face $-1 $92 $93 $33 $-1 $94 forward single #
loop $-1 $95 $96 $43 #
cone-surface $-1 -64.193429079255765 43.070460800508798 8.8939675601672938 0 -0.84804810408105047 -0.52991925155115449 2 0 0 1 I I 0 1 2 forward I I I I #
face $-1 $97 $98 $34 $-1 $99 reversed single #
loop $-1 $-1 $100 $44 #
plane-surface $-1 -12.962069180983841 120.31713101408167 161.65904974072552 -1 0 0 0 0.84804810408105047 0.52991925155115449 forward_v I I I I #
face $-1 $101 $102 $35 $-1 $103 forward single #
loop $-1 $104 $105 $45 #
cone-surface $-1 -21.39780969308525 43.070460800508798 8.8939675601672938 0 -0.84804810408105047 -0.52991925155115449 2 0 0 1 I I 0 1 2 forward I I I I #
face $-1 $106 $107 $36 $-1 $108 reversed single #
loop $-1 $-1 $109 $46 #
plane-surface $-1 29.833550205186675 120.31713101408167 161.65904974072552 -1 0 0 0 0.84804810408105047 0.52991925155115449 forward_v I I I I #
face $-1 $110 $111 $37 $-1 $112 forward single #
loop $-1 $113 $114 $47 #
cone-surface $-1 21.397809693085264 43.070460800508798 8.8939675601672938 0 -0.84804810408105047 -0.52991925155115449 2 0 0 1 I I 0 1 2 forward I I I I #
face $-1 $115 $116 $38 $-1 $117 reversed single #
loop $-1 $-1 $118 $48 #
plane-surface $-1 64.193429079255765 -2.8689281317813879 84.683859359457799 0 0.84804810408105047 0.52991925155115449 1 0 0 forward_v I I I I #
face $-1 $119 $120 $39 $-1 $121 forward single #
loop $-1 $122 $123 $49 #
cone-surface $-1 64.193429079255765 43.070460800508798 8.8939675601672938 0 -0.84804810408105047 -0.52991925155115449 2 0 0 1 I I 0 1 2 forward I I I I #
face $-1 $124 $125 $30 $-1 $126 reversed single #
loop $-1 $-1 $127 $50 #
plane-surface $-1 0 0 -15.698328636881255 0 0 1 1 0 0 forward_v I I I I #
coedge $-1 $128 $129 $130 $131 forward $51 $-1 #
face $-1 $132 $133 $31 $-1 $134 reversed single #
loop $-1 $-1 $135 $53 #
plane-surface $-1 -43.390283927679484 -35.686109161548131 0 0 -1 0 0 0 -1 forward_v I I I I #
coedge $-1 $136 $137 $138 $139 forward $54 $-1 #
face $-1 $140 $141 $32 $-1 $142 reversed single #
loop $-1 $-1 $143 $56 #
plane-surface $-1 -64.193429079255765 -2.8689281317813879 84.683859359457799 0 0.84804810408105047 0.52991925155115449 1 0 0 forward_v I I I I #
coedge $-1 $144 $145 $146 $147 reversed $57 $-1 #
face $-1 $-1 $148 $33 $-1 $149 forward single #
loop $-1 $150 $151 $59 #
cone-surface $-1 -64.193429079255765 41.20160782197587 7.726178649517637 0 -0.84804810408105047 -0.52991925155115449 1 0 0 1 I I -0.70710678118654746 0.70710678118654746 1 forward I I I I #
loop $-1 $-1 $152 $43 #
coedge $-1 $96 $96 $153 $154 reversed $60 $-1 #
face $-1 $155 $156 $34 $-1 $157 reversed single #
loop $-1 $-1 $158 $62 #
plane-surface $-1 -21.39780969308525 -2.8689281317813879 84.683859359457799 0 0.84804810408105047 0.52991925155115449 1 0 0 forward_v I I I I #
coedge $-1 $159 $160 $161 $162 reversed $63 $-1 #
face $-1 $-1 $163 $35 $-1 $164 forward single #
loop $-1 $165 $166 $65 #
cone-surface $-1 -21.39780969308525 41.20160782197587 7.726178649517637 0 -0.84804810408105047 -0.52991925155115449 1 0 0 1 I I -0.70710678118654746 0.70710678118654746 1 forward I I I I #
loop $-1 $-1 $167 $45 #
coedge $-1 $105 $105 $168 $169 reversed $66 $-1 #
face $-1 $170 $171 $36 $-1 $172 reversed single #
loop $-1 $-1 $173 $68 #
plane-surface $-1 21.397809693085264 -2.8689281317813879 84.683859359457799 0 0.84804810408105047 0.52991925155115449 1 0 0 forward_v I I I I #
coedge $-1 $174 $175 $176 $177 reversed $69 $-1 #
face $-1 $-1 $178 $37 $-1 $179 forward single #
loop $-1 $180 $181 $71 #
cone-surface $-1 21.397809693085264 41.20160782197587 7.726178649517637 0 -0.84804810408105047 -0.52991925155115449 1 0 0 1 I I -0.70710678118654746 0.70710678118654746 1 forward I I I I #
loop $-1 $-1 $182 $47 #
coedge $-1 $114 $114 $183 $184 reversed $72 $-1 #
face $-1 $185 $186 $38 $-1 $187 forward single #
loop $-1 $-1 $188 $74 #
plane-surface $-1 55.757688567154354 120.31713101408167 161.65904974072552 1 0 0 0 -0.84804810408105047 -0.52991925155115449 forward_v I I I I #
coedge $-1 $189 $190 $191 $192 reversed $75 $-1 #
face $-1 $-1 $193 $39 $-1 $194 forward single #
loop $-1 $195 $196 $77 #
cone-surface $-1 64.193429079255765 41.20160782197587 7.726178649517637 0 -0.84804810408105047 -0.52991925155115449 1 0 0 1 I I -0.70710678118654746 0.70710678118654746 1 forward I I I I #
loop $-1 $-1 $197 $49 #
coedge $-1 $123 $123 $198 $199 reversed $78 $-1 #
face $-1 $200 $201 $30 $-1 $202 reversed single #
loop $-1 $-1 $203 $80 #
plane-surface $-1 0 -47.944517042417431 0 0 1 0 0 0 1 forward_v I I I I #
coedge $-1 $204 $205 $206 $207 forward $81 $-1 #
coedge $-1 $208 $83 $209 $210 forward $51 $-1 #
coedge $-1 $83 $208 $211 $212 forward $51 $-1 #
coedge $-1 $213 $214 $83 $131 reversed $215 $-1 #
edge $-1 $216 -47.944517042417431 $217 47.944517042417431 $130 $218 forward 7 unknown #
face $-1 $219 $220 $31 $-1 $221 forward single #
loop $-1 $-1 $222 $84 #
plane-surface $-1 -41.232512317594654 -41.815313101982781 0 -1 0 0 0 0 1 forward_v I I I I #
coedge $-1 $223 $224 $225 $226 forward $85 $-1 #
coedge $-1 $227 $87 $228 $229 reversed $54 $-1 #
coedge $-1 $87 $227 $230 $231 reversed $54 $-1 #
coedge $-1 $224 $223 $87 $139 reversed $85 $-1 #
edge $-1 $232 -15.698328636881255 $233 15.698328636881255 $138 $234 forward 7 unknown #
face $-1 $235 $236 $32 $-1 $237 reversed single #
loop $-1 $-1 $146 $88 #
plane-surface $-1 0 47.944517042417431 0 0 -1 0 0 0 -1 forward_v I I I I #
coedge $-1 $238 $239 $240 $241 reversed $89 $-1 #
coedge $-1 $145 $91 $242 $243 reversed $57 $-1 #
coedge $-1 $91 $144 $238 $244 reversed $57 $-1 #
coedge $-1 $240 $245 $91 $147 forward $141 $-1 #
edge $-1 $246 65.131196233481504 $247 77.464179068712369 $146 $248 forward 7 unknown #
loop $-1 $-1 $153 $92 #
plane-surface $-1 -64.193429079255765 -2.8689281317813879 84.683859359457799 0 0.84804810408105047 0.52991925155115449 1 0 0 forward_v I I I I #
loop $-1 $-1 $249 $59 #
coedge $-1 $151 $151 $152 $250 reversed $93 $-1 #
coedge $-1 $152 $152 $151 $250 forward $95 $-1 #
coedge $-1 $153 $153 $96 $154 forward $148 $-1 #
edge $-1 $251 7.5479277945430101e-016 $251 6.2831853071796013 $153 $252 forward 7 unknown #
face $-1 $253 $254 $34 $-1 $255 reversed single #
loop $-1 $-1 $256 $97 #
plane-surface $-1 -29.833550205186661 120.31713101408167 161.65904974072552 1 0 0 0 -0.84804810408105047 -0.52991925155115449 forward_v I I I I #
coedge $-1 $257 $258 $259 $260 reversed $98 $-1 #
coedge $-1 $160 $100 $261 $262 reversed $63 $-1 #
coedge $-1 $100 $159 $257 $263 reversed $63 $-1 #
coedge $-1 $259 $264 $100 $162 forward $254 $-1 #
edge $-1 $265 65.131196233481504 $266 77.464179068712369 $161 $267 forward 7 unknown #
loop $-1 $-1 $168 $101 #
plane-surface $-1 -21.39780969308525 -2.8689281317813879 84.683859359457799 0 0.84804810408105047 0.52991925155115449 1 0 0 forward_v I I I I #
loop $-1 $-1 $268 $65 #
coedge $-1 $166 $166 $167 $269 reversed $102 $-1 #
coedge $-1 $167 $167 $166 $269 forward $104 $-1 #
coedge $-1 $168 $168 $105 $169 forward $163 $-1 #
edge $-1 $270 7.5479277945430101e-016 $270 6.2831853071796013 $168 $271 forward 7 unknown #
face $-1 $272 $273 $36 $-1 $274 forward single #
loop $-1 $-1 $275 $106 #
plane-surface $-1 12.962069180983855 120.31713101408167 161.65904974072552 1 0 0 0 -0.84804810408105047 -0.52991925155115449 forward_v I I I I #
coedge $-1 $276 $277 $278 $279 reversed $107 $-1 #
coedge $-1 $175 $109 $280 $281 reversed $69 $-1 #
coedge $-1 $109 $174 $276 $282 reversed $69 $-1 #
coedge $-1 $278 $283 $109 $177 forward $284 $-1 #
edge $-1 $285 65.131196233481504 $286 77.464179068712369 $176 $287 forward 7 unknown #
loop $-1 $-1 $183 $110 #
plane-surface $-1 21.397809693085264 -2.8689281317813879 84.683859359457799 0 0.84804810408105047 0.52991925155115449 1 0 0 forward_v I I I I #
loop $-1 $-1 $288 $71 #
coedge $-1 $181 $181 $182 $289 reversed $111 $-1 #
coedge $-1 $182 $182 $181 $289 forward $113 $-1 #
coedge $-1 $183 $183 $114 $184 forward $178 $-1 #
edge $-1 $290 7.5479277945430101e-016 $290 6.2831853071796013 $183 $291 forward 7 unknown #
face $-1 $292 $293 $38 $-1 $294 reversed single #
loop $-1 $-1 $295 $115 #
plane-surface $-1 0 0 15.698328636881255 0 0 1 1 0 0 forward_v I I I I #
coedge $-1 $296 $297 $298 $299 reversed $116 $-1 #
coedge $-1 $300 $118 $301 $302 reversed $75 $-1 #
coedge $-1 $118 $300 $296 $303 forward $75 $-1 #
coedge $-1 $298 $304 $118 $192 forward $293 $-1 #
edge $-1 $305 -40.532455051729286 $306 -23.660974027526471 $191 $307 forward 7 unknown #
loop $-1 $-1 $198 $119 #
plane-surface $-1 64.193429079255765 -2.8689281317813879 84.683859359457799 0 0.84804810408105047 0.52991925155115449 1 0 0 forward_v I I I I #
loop $-1 $-1 $308 $77 #
coedge $-1 $196 $196 $197 $309 reversed $120 $-1 #
coedge $-1 $197 $197 $196 $309 forward $122 $-1 #
coedge $-1 $198 $198 $123 $199 forward $193 $-1 #
edge $-1 $310 7.5479277945430101e-016 $310 6.2831853071796013 $198 $311 forward 7 unknown #
face $-1 $312 $313 $30 $-1 $314 reversed single #
loop $-1 $-1 $315 $124 #
plane-surface $-1 -72.629169591357169 0 0 1 0 0 0 0 -1 forward_v I I I I #
coedge $-1 $316 $211 $317 $318 forward $125 $-1 #
coedge $-1 $319 $127 $316 $320 forward $81 $-1 #
coedge $-1 $127 $319 $321 $322 forward $81 $-1 #
coedge $-1 $214 $213 $127 $207 reversed $215 $-1 #
edge $-1 $323 -47.944517042417431 $324 47.944517042417431 $206 $325 forward 7 unknown #
coedge $-1 $129 $128 $326 $327 forward $51 $-1 #
coedge $-1 $328 $329 $128 $210 reversed $313 $-1 #
edge $-1 $217 -72.629169591357169 $330 72.629169591357169 $209 $331 forward 7 unknown #
coedge $-1 $203 $332 $129 $212 reversed $125 $-1 #
edge $-1 $333 -72.629169591357169 $216 72.629169591357169 $211 $334 forward 7 unknown #
coedge $-1 $206 $130 $332 $335 forward $215 $-1 #
coedge $-1 $130 $206 $328 $336 reversed $215 $-1 #
loop $-1 $-1 $213 $312 #
vertex $-1 $131 $337 #
vertex $-1 $131 $338 #
straight-curve $-1 72.629169591357169 0 15.698328636881255 0 1 0 I I #
face $-1 $339 $340 $31 $-1 $341 reversed single #
loop $-1 $-1 $342 $132 #
plane-surface $-1 0 0 15.698328636881255 0 0 1 1 0 0 forward_v I I I I #
coedge $-1 $343 $344 $345 $346 reversed $133 $-1 #
coedge $-1 $138 $135 $347 $348 reversed $85 $-1 #
coedge $-1 $135 $138 $349 $350 reversed $85 $-1 #
coedge $-1 $344 $343 $135 $226 reversed $133 $-1 #
edge $-1 $351 -15.698328636881255 $352 15.698328636881255 $225 $353 forward 7 unknown #
coedge $-1 $137 $136 $354 $355 reversed $54 $-1 #
coedge $-1 $347 $356 $136 $229 forward $340 $-1 #
edge $-1 $357 -27.03686049142604 $233 -14.778452610556741 $228 $358 forward 7 unknown #
coedge $-1 $359 $349 $137 $231 forward $220 $-1 #
edge $-1 $232 14.778452610556741 $360 27.03686049142604 $230 $361 forward 7 unknown #
vertex $-1 $231 $362 #
vertex $-1 $229 $363 #
straight-curve $-1 -45.548055537764313 -35.686109161548131 0 0 0 -1 I I #
face $-1 $-1 $364 $32 $-1 $365 forward single #
loop $-1 $-1 $366 $140 #
plane-surface $-1 -72.629169591357169 0 0 1 0 0 0 0 -1 forward_v I I I I #
coedge $-1 $367 $143 $145 $244 forward $89 $-1 #
coedge $-1 $143 $367 $366 $368 reversed $89 $-1 #
coedge $-1 $369 $146 $143 $241 forward $141 $-1 #
edge $-1 $247 23.660974027526471 $370 40.532455051729286 $240 $371 forward 7 unknown #
coedge $-1 $372 $373 $144 $243 forward $364 $-1 #
edge $-1 $374 -19.920551199536845 $246 -12.214048464623403 $242 $375 forward 7 unknown #
edge $-1 $247 -95.889034084834833 $374 -81.346247212390892 $145 $376 forward 7 unknown #
coedge $-1 $146 $369 $372 $377 reversed $141 $-1 #
vertex $-1 $377 $378 #
vertex $-1 $147 $379 #
straight-curve $-1 -55.757688567154354 47.944517042417431 80.829524870362761 0 0 -1 I I #
coedge $-1 $249 $249 $-1 $380 reversed $150 $-1 #
edge $-1 $381 0 $381 6.2831853071796004 $151 $382 forward 7 unknown #
vertex $-1 $154 $383 #
ellipse-curve $-1 -64.193429079255765 44.091265674960709 9.5318372192658156 0 0.84804810408105047 0.52991925155115449 2 0 0 1 I I #
face $-1 $-1 $384 $34 $-1 $385 forward single #
loop $-1 $-1 $161 $155 #
plane-surface $-1 0 47.944517042417431 0 0 -1 0 0 0 -1 forward_v I I I I #
coedge $-1 $386 $387 $388 $389 reversed $156 $-1 #
coedge $-1 $390 $158 $160 $263 forward $98 $-1 #
coedge $-1 $158 $390 $386 $391 forward $98 $-1 #
coedge $-1 $388 $161 $158 $260 forward $254 $-1 #
edge $-1 $266 2.2631643344412158 $392 19.134645358644036 $259 $393 forward 7 unknown #
coedge $-1 $394 $395 $159 $262 forward $384 $-1 #
edge $-1 $396 -19.920551199536845 $265 -12.214048464623403 $261 $397 forward 7 unknown #
edge $-1 $266 -95.889034084834833 $396 -81.346247212390892 $160 $398 forward 7 unknown #
coedge $-1 $161 $388 $394 $399 reversed $254 $-1 #
vertex $-1 $399 $400 #
vertex $-1 $162 $401 #
straight-curve $-1 -12.962069180983841 47.944517042417431 80.829524870362761 0 0 -1 I I #
coedge $-1 $268 $268 $-1 $402 reversed $165 $-1 #
edge $-1 $403 0 $403 6.2831853071796004 $166 $404 forward 7 unknown #
vertex $-1 $169 $405 #
ellipse-curve $-1 -21.39780969308525 44.091265674960709 9.5318372192658156 0 0.84804810408105047 0.52991925155115449 2 0 0 1 I I #
face $-1 $-1 $284 $36 $-1 $406 reversed single #
loop $-1 $-1 $407 $170 #
plane-surface $-1 0 0 15.698328636881255 0 0 1 1 0 0 forward_v I I I I #
coedge $-1 $408 $409 $410 $411 reversed $171 $-1 #
coedge $-1 $412 $173 $175 $282 forward $107 $-1 #
coedge $-1 $173 $412 $408 $413 forward $107 $-1 #
coedge $-1 $410 $176 $173 $279 forward $284 $-1 #
edge $-1 $286 -19.134645358644043 $414 -2.2631643344412229 $278 $415 forward 7 unknown #
coedge $-1 $416 $417 $174 $281 forward $273 $-1 #
edge $-1 $418 -19.920551199536845 $285 -12.214048464623403 $280 $419 forward 7 unknown #
edge $-1 $286 -95.889034084834833 $418 -81.346247212390892 $175 $420 forward 7 unknown #
coedge $-1 $176 $410 $416 $421 reversed $284 $-1 #
loop $-1 $-1 $410 $272 #
vertex $-1 $421 $422 #
vertex $-1 $177 $423 #
straight-curve $-1 29.833550205186675 47.944517042417431 80.829524870362761 0 0 -1 I I #
coedge $-1 $288 $288 $-1 $424 reversed $180 $-1 #
edge $-1 $425 0 $425 6.2831853071796004 $181 $426 forward 7 unknown #
vertex $-1 $184 $427 #
ellipse-curve $-1 21.397809693085264 44.091265674960709 9.5318372192658156 0 0.84804810408105047 0.52991925155115449 2 0 0 1 I I #
face $-1 $-1 $428 $38 $-1 $429 reversed single #
loop $-1 $-1 $298 $185 #
plane-surface $-1 0 47.944517042417431 0 0 -1 0 0 0 -1 forward_v I I I I #
coedge $-1 $430 $431 $297 $432 forward $186 $-1 #
coedge $-1 $297 $188 $190 $303 reversed $116 $-1 #
coedge $-1 $188 $296 $295 $432 reversed $116 $-1 #
coedge $-1 $433 $191 $188 $299 forward $293 $-1 #
edge $-1 $306 -77.464179068712369 $434 -65.131196233481504 $298 $435 forward 7 unknown #
coedge $-1 $190 $189 $430 $436 reversed $75 $-1 #
coedge $-1 $437 $438 $189 $302 forward $428 $-1 #
edge $-1 $439 44.678103900189825 $305 59.220890772633751 $301 $440 forward 7 unknown #
edge $-1 $441 81.346247212390892 $306 95.889034084834833 $296 $442 forward 7 unknown #
coedge $-1 $191 $433 $437 $443 forward $293 $-1 #
vertex $-1 $302 $444 #
vertex $-1 $192 $445 #
straight-curve $-1 32.096714539627882 47.944517042417431 3.3653458016503919 -1 0 0 I I #
coedge $-1 $308 $308 $-1 $446 reversed $195 $-1 #
edge $-1 $447 0 $447 6.2831853071796004 $196 $448 forward 7 unknown #
vertex $-1 $199 $449 #
ellipse-curve $-1 64.193429079255765 44.091265674960709 9.5318372192658156 0 0.84804810408105047 0.52991925155115449 2 0 0 1 I I #
face $-1 $-1 $215 $30 $-1 $450 reversed single #
loop $-1 $-1 $328 $200 #
plane-surface $-1 0 47.944517042417431 0 0 -1 0 0 0 -1 forward_v I I I I #
coedge $-1 $451 $326 $329 $452 forward $201 $-1 #
coedge $-1 $332 $203 $204 $320 reversed $125 $-1 #
coedge $-1 $326 $451 $203 $318 reversed $201 $-1 #
edge $-1 $333 -15.698328636881255 $453 15.698328636881255 $317 $454 forward 7 unknown #
coedge $-1 $205 $204 $451 $455 forward $81 $-1 #
edge $-1 $324 -72.629169591357169 $453 72.629169591357169 $316 $456 forward 7 unknown #
coedge $-1 $329 $328 $205 $322 reversed $313 $-1 #
edge $-1 $457 -72.629169591357169 $323 72.629169591357169 $321 $458 forward 7 unknown #
vertex $-1 $207 $459 #
vertex $-1 $335 $460 #
straight-curve $-1 72.629169591357169 0 -15.698328636881255 0 -1 0 I I #
coedge $-1 $315 $317 $208 $327 reversed $201 $-1 #
edge $-1 $330 -47.944517042417431 $333 47.944517042417431 $326 $461 forward 7 unknown #
coedge $-1 $321 $209 $214 $336 forward $313 $-1 #
coedge $-1 $209 $321 $315 $452 reversed $313 $-1 #
vertex $-1 $210 $462 #
straight-curve $-1 0 47.944517042417431 15.698328636881255 -1 0 0 I I #
coedge $-1 $211 $316 $213 $335 reversed $125 $-1 #
vertex $-1 $327 $463 #
straight-curve $-1 0 -47.944517042417431 15.698328636881255 1 0 0 I I #
edge $-1 $216 -15.698328636881255 $324 15.698328636881255 $213 $464 forward 7 unknown #
edge $-1 $217 -15.698328636881255 $323 15.698328636881255 $214 $465 forward 7 unknown #
point $-1 72.629169591357169 -47.944517042417431 15.698328636881255 #
point $-1 72.629169591357169 47.944517042417431 15.698328636881255 #
face $-1 $-1 $466 $31 $-1 $467 reversed single #
loop $-1 $-1 $468 $219 #
plane-surface $-1 0 0 -15.698328636881255 0 0 1 1 0 0 forward_v I I I I #
coedge $-1 $349 $359 $344 $469 forward $220 $-1 #
coedge $-1 $225 $222 $468 $470 reversed $133 $-1 #
coedge $-1 $222 $225 $342 $469 reversed $133 $-1 #
coedge $-1 $471 $472 $222 $346 forward $466 $-1 #
edge $-1 $473 -15.698328636881255 $474 15.698328636881255 $345 $475 forward 7 unknown #
coedge $-1 $468 $228 $223 $348 forward $340 $-1 #
edge $-1 $233 -23.852913573924571 $352 -19.537370353754913 $347 $476 forward 7 unknown #
coedge $-1 $230 $342 $224 $350 forward $220 $-1 #
edge $-1 $351 19.537370353754913 $232 23.852913573924571 $349 $477 forward 7 unknown #
vertex $-1 $350 $478 #
vertex $-1 $348 $479 #
straight-curve $-1 -41.232512317594654 -35.686109161548131 0 0 0 -1 I I #
coedge $-1 $472 $471 $227 $355 forward $466 $-1 #
edge $-1 $360 -15.698328636881255 $357 15.698328636881255 $354 $480 forward 7 unknown #
coedge $-1 $228 $468 $472 $481 forward $340 $-1 #
vertex $-1 $229 $482 #
straight-curve $-1 -45.548055537764313 -20.907656550991391 -15.698328636881255 0 1 0 I I #
coedge $-1 $342 $230 $471 $483 forward $220 $-1 #
vertex $-1 $483 $484 #
straight-curve $-1 -45.548055537764313 -20.907656550991391 15.698328636881255 0 -1 0 I I #
point $-1 -45.548055537764313 -35.686109161548131 15.698328636881255 #
point $-1 -45.548055537764313 -35.686109161548131 -15.698328636881255 #
loop $-1 $-1 $242 $235 #
plane-surface $-1 0 0 15.698328636881255 0 0 1 1 0 0 forward_v I I I I #
coedge $-1 $485 $486 $239 $368 forward $236 $-1 #
coedge $-1 $239 $238 $373 $487 reversed $89 $-1 #
edge $-1 $370 -59.220890772633751 $488 -44.678103900189825 $366 $489 forward 7 unknown #
coedge $-1 $245 $240 $486 $490 reversed $141 $-1 #
vertex $-1 $368 $491 #
straight-curve $-1 -32.096714539627882 47.944517042417431 3.3653458016503919 -1 0 0 I I #
coedge $-1 $492 $242 $245 $377 forward $364 $-1 #
coedge $-1 $242 $492 $367 $487 forward $364 $-1 #
vertex $-1 $243 $493 #
straight-curve $-1 -55.757688567154354 60.158565507040834 15.698328636881257 0 1 0 I I #
straight-curve $-1 -55.757688567154354 -2.8689281317813879 84.683859359457799 0 -0.52991925155115449 0.84804810408105047 I I #
edge $-1 $246 55.757688567154354 $494 72.629169591357169 $245 $495 forward 7 unknown #
point $-1 -55.757688567154354 47.944517042417431 15.698328636881255 #
point $-1 -55.757688567154354 47.944517042417431 3.3653458016503919 #
edge $-1 $496 1 $496 0 $249 $-1 forward 7 unknown #
vertex $-1 $250 $497 #
ellipse-curve $-1 -64.193429079255765 42.049655926056921 8.2560979010687916 0 0.84804810408105047 0.52991925155115449 2 0 0 1 I I #
point $-1 -62.193429079255765 44.091265674960681 9.5318372192657961 #
loop $-1 $-1 $261 $253 #
plane-surface $-1 0 0 15.698328636881255 0 0 1 1 0 0 forward_v I I I I #
coedge $-1 $387 $256 $258 $391 reversed $156 $-1 #
coedge $-1 $256 $386 $498 $499 reversed $156 $-1 #
coedge $-1 $264 $259 $256 $389 forward $254 $-1 #
edge $-1 $392 -77.464179068712369 $500 -65.131196233481504 $388 $501 forward 7 unknown #
coedge $-1 $258 $257 $395 $502 reversed $98 $-1 #
edge $-1 $503 81.346247212390892 $392 95.889034084834833 $386 $504 forward 7 unknown #
vertex $-1 $260 $505 #
straight-curve $-1 -10.698904846542625 47.944517042417431 3.3653458016503919 -1 0 0 I I #
coedge $-1 $498 $261 $264 $399 forward $384 $-1 #
coedge $-1 $261 $498 $390 $502 forward $384 $-1 #
vertex $-1 $262 $506 #
straight-curve $-1 -12.962069180983841 60.158565507040834 15.698328636881257 0 1 0 I I #
straight-curve $-1 -12.962069180983841 -2.8689281317813879 84.683859359457799 0 -0.52991925155115449 0.84804810408105047 I I #
edge $-1 $265 12.962069180983841 $500 29.833550205186661 $264 $507 forward 7 unknown #
point $-1 -12.962069180983841 47.944517042417431 15.698328636881255 #
point $-1 -12.962069180983841 47.944517042417431 3.3653458016503919 #
edge $-1 $508 1 $508 0 $268 $-1 forward 7 unknown #
vertex $-1 $269 $509 #
ellipse-curve $-1 -21.39780969308525 42.049655926056921 8.2560979010687916 0 0.84804810408105047 0.52991925155115449 2 0 0 1 I I #
point $-1 -19.39780969308525 44.091265674960681 9.5318372192657961 #
plane-surface $-1 0 47.944517042417431 0 0 -1 0 0 0 -1 forward_v I I I I #
coedge $-1 $417 $416 $409 $510 forward $273 $-1 #
coedge $-1 $409 $275 $277 $413 reversed $171 $-1 #
coedge $-1 $275 $408 $407 $510 reversed $171 $-1 #
coedge $-1 $283 $278 $275 $411 forward $284 $-1 #
edge $-1 $414 -77.464179068712369 $511 -65.131196233481504 $410 $512 forward 7 unknown #
coedge $-1 $277 $276 $417 $513 reversed $107 $-1 #
edge $-1 $514 81.346247212390892 $414 95.889034084834833 $408 $515 forward 7 unknown #
vertex $-1 $279 $516 #
straight-curve $-1 10.698904846542632 47.944517042417431 3.3653458016503919 -1 0 0 I I #
coedge $-1 $407 $280 $283 $421 forward $273 $-1 #
coedge $-1 $280 $407 $412 $513 forward $273 $-1 #
vertex $-1 $281 $517 #
straight-curve $-1 29.833550205186675 60.158565507040834 15.698328636881257 0 1 0 I I #
straight-curve $-1 29.833550205186675 -2.8689281317813879 84.683859359457799 0 -0.52991925155115449 0.84804810408105047 I I #
edge $-1 $285 -29.833550205186675 $511 -12.962069180983855 $283 $518 forward 7 unknown #
point $-1 29.833550205186675 47.944517042417431 15.698328636881255 #
point $-1 29.833550205186675 47.944517042417431 3.3653458016503919 #
edge $-1 $519 1 $519 0 $288 $-1 forward 7 unknown #
vertex $-1 $289 $520 #
ellipse-curve $-1 21.397809693085264 42.049655926056921 8.2560979010687916 0 0.84804810408105047 0.52991925155115449 2 0 0 1 I I #
point $-1 23.397809693085264 44.091265674960681 9.5318372192657961 #
loop $-1 $-1 $301 $292 #
plane-surface $-1 72.629169591357169 0 0 -1 0 0 0 0 1 forward_v I I I I #
coedge $-1 $521 $295 $300 $436 forward $186 $-1 #
coedge $-1 $295 $521 $433 $522 forward $186 $-1 #
edge $-1 $434 12.214048464623403 $441 19.920551199536845 $295 $523 forward 7 unknown #
coedge $-1 $304 $298 $431 $522 reversed $293 $-1 #
vertex $-1 $432 $524 #
straight-curve $-1 55.757688567154354 47.944517042417431 80.829524870362761 0 0 1 I I #
edge $-1 $441 23.660974027526471 $439 40.532455051729286 $430 $525 forward 7 unknown #
coedge $-1 $438 $301 $304 $443 reversed $428 $-1 #
coedge $-1 $301 $437 $521 $526 reversed $428 $-1 #
vertex $-1 $526 $527 #
straight-curve $-1 72.629169591357169 16.562226927990679 53.587509943373426 0 0.52991925155115449 -0.84804810408105047 I I #
vertex $-1 $436 $528 #
straight-curve $-1 55.757688567154354 -2.8689281317813879 84.683859359457799 0 0.52991925155115449 -0.84804810408105047 I I #
edge $-1 $529 -15.698328636881255 $305 -3.3653458016503919 $437 $530 forward 7 unknown #
point $-1 72.629169591357169 47.944517042417431 3.3653458016503919 #
point $-1 55.757688567154354 47.944517042417431 3.3653458016503919 #
edge $-1 $531 1 $531 0 $308 $-1 forward 7 unknown #
vertex $-1 $309 $532 #
ellipse-curve $-1 64.193429079255765 42.049655926056921 8.2560979010687916 0 0.84804810408105047 0.52991925155115449 2 0 0 1 I I #
point $-1 66.193429079255765 44.091265674960681 9.5318372192657961 #
plane-surface $-1 72.629169591357169 0 0 -1 0 0 0 0 1 forward_v I I I I #
coedge $-1 $317 $315 $319 $455 reversed $201 $-1 #
edge $-1 $330 -15.698328636881255 $457 15.698328636881255 $329 $533 forward 7 unknown #
vertex $-1 $455 $534 #
straight-curve $-1 -72.629169591357169 -47.944517042417431 0 0 0 -1 I I #
edge $-1 $453 -47.944517042417431 $457 47.944517042417431 $451 $535 forward 7 unknown #
straight-curve $-1 0 -47.944517042417431 -15.698328636881255 -1 0 0 I I #
vertex $-1 $322 $536 #
straight-curve $-1 0 47.944517042417431 -15.698328636881255 1 0 0 I I #
point $-1 72.629169591357169 47.944517042417431 -15.698328636881255 #
point $-1 72.629169591357169 -47.944517042417431 -15.698328636881255 #
straight-curve $-1 -72.629169591357169 0 15.698328636881255 0 -1 0 I I #
point $-1 -72.629169591357169 47.944517042417431 15.698328636881255 #
point $-1 -72.629169591357169 -47.944517042417431 15.698328636881255 #
straight-curve $-1 72.629169591357169 -47.944517042417431 0 0 0 -1 I I #
straight-curve $-1 72.629169591357169 47.944517042417431 0 0 0 -1 I I #
loop $-1 $-1 $345 $339 #
plane-surface $-1 0 -47.944517042417431 0 0 1 0 0 0 1 forward_v I I I I #
coedge $-1 $356 $347 $343 $470 forward $340 $-1 #
edge $-1 $474 -27.03686049142604 $351 -14.778452610556741 $342 $537 forward 7 unknown #
edge $-1 $352 14.778452610556741 $473 27.03686049142604 $468 $538 forward 7 unknown #
coedge $-1 $354 $345 $359 $483 reversed $466 $-1 #
coedge $-1 $345 $354 $356 $481 reversed $466 $-1 #
vertex $-1 $481 $539 #
vertex $-1 $346 $540 #
straight-curve $-1 -41.232512317594654 -47.944517042417431 0 0 0 1 I I #
straight-curve $-1 -21.695141963839742 -35.686109161548131 -15.698328636881255 1 0 0 I I #
straight-curve $-1 -21.695141963839742 -35.686109161548131 15.698328636881255 -1 0 0 I I #
point $-1 -41.232512317594654 -35.686109161548131 15.698328636881255 #
point $-1 -41.232512317594654 -35.686109161548131 -15.698328636881255 #
straight-curve $-1 -45.548055537764313 -47.944517042417431 0 0 0 -1 I I #
edge $-1 $473 41.232512317594654 $357 45.548055537764313 $472 $541 forward 7 unknown #
point $-1 -45.548055537764313 -47.944517042417431 -15.698328636881255 #
edge $-1 $360 -45.548055537764313 $474 -41.232512317594654 $471 $542 forward 7 unknown #
point $-1 -45.548055537764313 -47.944517042417431 15.698328636881255 #
coedge $-1 $486 $366 $492 $543 reversed $236 $-1 #
coedge $-1 $366 $485 $369 $490 forward $236 $-1 #
edge $-1 $488 -40.532455051729286 $374 -23.660974027526471 $373 $544 forward 7 unknown #
vertex $-1 $368 $545 #
straight-curve $-1 -72.629169591357169 16.562226927990679 53.587509943373426 0 -0.52991925155115449 0.84804810408105047 I I #
edge $-1 $494 -15.698328636881255 $370 -3.3653458016503901 $369 $546 forward 7 unknown #
point $-1 -72.629169591357169 47.944517042417431 3.3653458016503901 #
coedge $-1 $373 $372 $485 $543 forward $364 $-1 #
point $-1 -55.757688567154354 40.238014307503988 15.698328636881257 #
vertex $-1 $377 $547 #
straight-curve $-1 0 47.944517042417431 15.698328636881255 -1 0 0 I I #
vertex $-1 $380 $548 #
point $-1 -62.193429079255765 42.049655926056921 8.2560979010687916 #
coedge $-1 $395 $394 $387 $499 forward $384 $-1 #
edge $-1 $500 12.214048464623403 $503 19.920551199536845 $498 $549 forward 7 unknown #
vertex $-1 $499 $550 #
straight-curve $-1 -29.833550205186661 47.944517042417431 80.829524870362761 0 0 1 I I #
edge $-1 $503 -19.134645358644036 $396 -2.2631643344412158 $395 $551 forward 7 unknown #
vertex $-1 $502 $552 #
straight-curve $-1 -29.833550205186661 -2.8689281317813879 84.683859359457799 0 0.52991925155115449 -0.84804810408105047 I I #
point $-1 -29.833550205186661 47.944517042417431 3.3653458016503919 #
point $-1 -12.962069180983841 40.238014307503988 15.698328636881257 #
straight-curve $-1 0 47.944517042417431 15.698328636881255 -1 0 0 I I #
vertex $-1 $402 $553 #
point $-1 -19.39780969308525 42.049655926056921 8.2560979010687916 #
edge $-1 $511 12.214048464623403 $514 19.920551199536845 $407 $554 forward 7 unknown #
vertex $-1 $411 $555 #
straight-curve $-1 12.962069180983855 47.944517042417431 80.829524870362761 0 0 1 I I #
edge $-1 $514 2.2631643344412229 $418 19.134645358644043 $417 $556 forward 7 unknown #
vertex $-1 $513 $557 #
straight-curve $-1 12.962069180983855 -2.8689281317813879 84.683859359457799 0 0.52991925155115449 -0.84804810408105047 I I #
point $-1 12.962069180983855 47.944517042417431 3.3653458016503919 #
point $-1 29.833550205186675 40.238014307503988 15.698328636881257 #
straight-curve $-1 0 47.944517042417431 15.698328636881255 -1 0 0 I I #
vertex $-1 $424 $558 #
point $-1 23.397809693085264 42.049655926056921 8.2560979010687916 #
coedge $-1 $431 $430 $438 $526 forward $186 $-1 #
edge $-1 $529 -72.629169591357169 $434 -55.757688567154354 $433 $559 forward 7 unknown #
straight-curve $-1 55.757688567154354 60.158565507040834 15.698328636881257 0 -1 0 I I #
point $-1 55.757688567154354 47.944517042417431 15.698328636881255 #
straight-curve $-1 32.096714539627882 40.238014307503988 15.698328636881257 1 0 0 I I #
edge $-1 $439 40.238014307503988 $529 47.944517042417431 $438 $560 forward 7 unknown #
point $-1 72.629169591357169 40.238014307503988 15.698328636881257 #
point $-1 55.757688567154354 40.238014307503988 15.698328636881257 #
vertex $-1 $526 $561 #
straight-curve $-1 72.629169591357169 47.944517042417431 0 0 0 -1 I I #
vertex $-1 $446 $562 #
point $-1 66.193429079255765 42.049655926056921 8.2560979010687916 #
straight-curve $-1 -72.629169591357169 47.944517042417431 0 0 0 -1 I I #
point $-1 -72.629169591357169 -47.944517042417431 -15.698328636881255 #
straight-curve $-1 -72.629169591357169 0 -15.698328636881255 0 1 0 I I #
point $-1 -72.629169591357169 47.944517042417431 -15.698328636881255 #
straight-curve $-1 -41.232512317594654 -20.907656550991391 15.698328636881255 0 1 0 I I #
straight-curve $-1 -41.232512317594654 -20.907656550991391 -15.698328636881255 0 -1 0 I I #
point $-1 -41.232512317594654 -47.944517042417431 -15.698328636881255 #
point $-1 -41.232512317594654 -47.944517042417431 15.698328636881255 #
straight-curve $-1 0 -47.944517042417431 -15.698328636881255 -1 0 0 I I #
straight-curve $-1 0 -47.944517042417431 15.698328636881255 1 0 0 I I #
edge $-1 $494 -47.944517042417431 $488 -40.238014307503988 $485 $563 forward 7 unknown #
straight-curve $-1 -32.096714539627882 40.238014307503988 15.698328636881257 1 0 0 I I #
point $-1 -72.629169591357169 40.238014307503988 15.698328636881257 #
straight-curve $-1 -72.629169591357169 47.944517042417431 0 0 0 -1 I I #
point $-1 -72.629169591357169 47.944517042417431 15.698328636881255 #
point $-1 -64.193429079255765 40.353559717894818 7.1962593979664824 #
straight-curve $-1 -29.833550205186661 60.158565507040834 15.698328636881257 0 -1 0 I I #
point $-1 -29.833550205186661 47.944517042417431 15.698328636881255 #
straight-curve $-1 -10.698904846542625 40.238014307503988 15.698328636881257 1 0 0 I I #
point $-1 -29.833550205186661 40.238014307503988 15.698328636881257 #
point $-1 -21.39780969308525 40.353559717894818 7.1962593979664824 #
straight-curve $-1 12.962069180983855 60.158565507040834 15.698328636881257 0 -1 0 I I #
point $-1 12.962069180983855 47.944517042417431 15.698328636881255 #
straight-curve $-1 10.698904846542632 40.238014307503988 15.698328636881257 1 0 0 I I #
point $-1 12.962069180983855 40.238014307503988 15.698328636881257 #
point $-1 21.397809693085264 40.353559717894818 7.1962593979664824 #
straight-curve $-1 0 47.944517042417431 15.698328636881255 -1 0 0 I I #
straight-curve $-1 72.629169591357169 0 15.698328636881255 0 1 0 I I #
point $-1 72.629169591357169 47.944517042417431 15.698328636881255 #
point $-1 64.193429079255765 40.353559717894818 7.1962593979664824 #
straight-curve $-1 -72.629169591357169 0 15.698328636881255 0 -1 0 I I #
End-of-ACIS-data 