500 0 10 0           
7 Unknown 11 ACIS 5.0 NT 24 Fri Mar 26 18:08:52 1999 
-1 9.9999999999999995e-007 1e-010 
body $-1 $10 $-1 $11 #
body $-1 $12 $-1 $13 #
body $-1 $14 $-1 $15 #
body $-1 $16 $-1 $17 #
body $-1 $18 $-1 $19 #
body $-1 $20 $-1 $21 #
body $-1 $22 $-1 $23 #
body $-1 $24 $-1 $25 #
body $-1 $26 $-1 $27 #
body $-1 $28 $-1 $29 #
lump $-1 $-1 $30 $0 #
transform $-1 1 0 0 0 1 0 0 0 1 71.165501876888328 34.715308040112639 15.066996727245641 1 rotate no_reflect no_shear #
lump $-1 $-1 $31 $1 #
transform $-1 1 0 0 0 1 0 0 0 1 71.165501876888328 34.715308040112639 15.066996727245641 1 rotate no_reflect no_shear #
lump $-1 $-1 $32 $2 #
transform $-1 1 0 0 0 1 0 0 0 1 71.165501876888328 34.715308040112639 15.066996727245641 1 rotate no_reflect no_shear #
lump $-1 $-1 $33 $3 #
transform $-1 1 0 0 0 1 0 0 0 1 71.165501876888328 34.715308040112639 15.066996727245641 1 rotate no_reflect no_shear #
lump $-1 $-1 $34 $4 #
transform $-1 1 0 0 0 1 0 0 0 1 71.165501876888328 34.715308040112639 15.066996727245641 1 rotate no_reflect no_shear #
lump $-1 $-1 $35 $5 #
transform $-1 1 0 0 0 1 0 0 0 1 71.165501876888328 34.715308040112639 15.066996727245641 1 rotate no_reflect no_shear #
lump $-1 $-1 $36 $6 #
transform $-1 1 0 0 0 1 0 0 0 1 71.165501876888328 34.715308040112639 15.066996727245641 1 rotate no_reflect no_shear #
lump $-1 $-1 $37 $7 #
transform $-1 1 0 0 0 1 0 0 0 1 71.165501876888328 34.715308040112639 15.066996727245641 1 rotate no_reflect no_shear #
lump $-1 $-1 $38 $8 #
transform $-1 1 0 0 0 1 0 0 0 1 71.165501876888328 34.715308040112639 15.066996727245641 1 rotate no_reflect no_shear #
lump $-1 $-1 $39 $9 #
transform $-1 1 0 0 0 1 0 0 0 1 71.165501876888328 34.715308040112639 15.066996727245641 1 rotate no_reflect no_shear #
shell $-1 $-1 $-1 $40 $-1 $10 #
shell $-1 $-1 $-1 $41 $-1 $12 #
shell $-1 $-1 $-1 $42 $-1 $14 #
shell $-1 $-1 $-1 $43 $-1 $16 #
shell $-1 $-1 $-1 $44 $-1 $18 #
shell $-1 $-1 $-1 $45 $-1 $20 #
shell $-1 $-1 $-1 $46 $-1 $22 #
shell $-1 $-1 $-1 $47 $-1 $24 #
shell $-1 $-1 $-1 $48 $-1 $26 #
shell $-1 $-1 $-1 $49 $-1 $28 #
face $-1 $50 $51 $30 $-1 $52 reversed single #
face $-1 $53 $54 $31 $-1 $55 forward single #
face $-1 $56 $57 $32 $-1 $58 reversed single #
face $-1 $59 $60 $33 $-1 $61 forward single #
face $-1 $62 $63 $34 $-1 $64 forward single #
face $-1 $65 $66 $35 $-1 $67 forward single #
face $-1 $68 $69 $36 $-1 $70 reversed single #
face $-1 $71 $72 $37 $-1 $73 forward single #
face $-1 $74 $75 $38 $-1 $76 forward single #
face $-1 $77 $78 $39 $-1 $79 forward single #
face $-1 $80 $81 $30 $-1 $82 forward single #
loop $-1 $-1 $83 $40 #
plane-surface $-1 -71.165501876888328 0 0 1 0 0 0 0 -1 forward_v I I I I #
face $-1 $84 $85 $31 $-1 $86 reversed single #
loop $-1 $-1 $87 $41 #
plane-surface $-1 -71.165501876888328 0 0 1 0 0 0 0 -1 forward_v I I I I #
face $-1 $88 $89 $32 $-1 $90 reversed single #
loop $-1 $-1 $91 $42 #
plane-surface $-1 9.2933611643210661 -138.809615666919 106.98067303420846 -1 0 0 0 -0.73135370988377701 0.68199835119979291 forward_v I I I I #
face $-1 $92 $93 $33 $-1 $94 forward single #
loop $-1 $95 $96 $43 #
cone-surface $-1 -5.3114765300141897 -30.709440053065531 10.995263776893268 0 0.73135370988377701 -0.68199835119979291 1.5 0 0 1 I I 0 1 1.5 forward I I I I #
face $-1 $97 $98 $34 $-1 $99 forward single #
loop $-1 $100 $101 $44 #
cone-surface $-1 0.16533760536152897 -30.709440053065531 10.995263776893268 0 0.73135370988377701 -0.68199835119979291 1.5 0 0 1 I I 0 1 1.5 forward I I I I #
face $-1 $102 $103 $35 $-1 $104 forward single #
loop $-1 $105 $106 $45 #
cone-surface $-1 5.6421517407372477 -30.709440053065531 10.995263776893268 0 0.73135370988377701 -0.68199835119979291 1.5 0 0 1 I I 0 1 1.5 forward I I I I #
face $-1 $107 $108 $36 $-1 $109 reversed single #
loop $-1 $-1 $110 $46 #
plane-surface $-1 45.146149430070203 64.922490356338727 158.01738138815384 1 0 0 0 -0.6018150307709319 -0.79863550430605224 forward_v I I I I #
face $-1 $111 $112 $37 $-1 $113 forward single #
loop $-1 $114 $115 $47 #
cone-surface $-1 50.350019919433819 24.775482615031272 6.6347015717344382 0 -0.6018150307709319 -0.79863550430605224 2.5 0 0 1 I I 0 1 2.5 forward I I I I #
face $-1 $116 $117 $38 $-1 $118 forward single #
loop $-1 $119 $120 $48 #
cone-surface $-1 58.155825653479269 24.775482615031272 6.6347015717344382 0 -0.6018150307709319 -0.79863550430605224 2.5 0 0 1 I I 0 1 2.5 forward I I I I #
face $-1 $121 $122 $39 $-1 $123 forward single #
loop $-1 $124 $125 $49 #
cone-surface $-1 65.961631387524704 24.775482615031272 6.6347015717344382 0 -0.6018150307709319 -0.79863550430605224 2.5 0 0 1 I I 0 1 2.5 forward I I I I #
face $-1 $126 $127 $30 $-1 $128 reversed single #
loop $-1 $-1 $129 $50 #
plane-surface $-1 0 0 15.066996727245641 0 0 1 1 0 0 forward_v I I I I #
coedge $-1 $130 $131 $132 $133 reversed $51 $-1 #
face $-1 $134 $135 $31 $-1 $136 reversed single #
loop $-1 $-1 $137 $53 #
plane-surface $-1 0 0 -15.066996727245641 0 0 1 1 0 0 forward_v I I I I #
coedge $-1 $138 $139 $140 $141 forward $54 $-1 #
face $-1 $142 $143 $32 $-1 $144 reversed single #
loop $-1 $-1 $145 $56 #
plane-surface $-1 0.16533760536152897 -34.715308040112646 9.9111631495212436 0 -0.73135370988377701 0.68199835119979291 1 0 0 forward_v I I I I #
coedge $-1 $146 $147 $148 $149 reversed $57 $-1 #
face $-1 $-1 $150 $33 $-1 $151 forward single #
loop $-1 $152 $153 $59 #
cone-surface $-1 -5.3114765300141897 -28.559003021621784 8.9899488520032627 0 0.73135370988377701 -0.68199835119979291 0.75 0 0 1 I I -0.70710678118654757 0.70710678118654757 0.75 forward I I I I #
loop $-1 $-1 $154 $43 #
coedge $-1 $96 $96 $155 $156 reversed $60 $-1 #
face $-1 $-1 $157 $34 $-1 $158 forward single #
loop $-1 $159 $160 $62 #
cone-surface $-1 0.16533760536152897 -28.559003021621784 8.9899488520032627 0 0.73135370988377701 -0.68199835119979291 0.75 0 0 1 I I -0.70710678118654757 0.70710678118654757 0.75 forward I I I I #
loop $-1 $-1 $161 $44 #
coedge $-1 $101 $101 $162 $163 reversed $63 $-1 #
face $-1 $-1 $164 $35 $-1 $165 forward single #
loop $-1 $166 $167 $65 #
cone-surface $-1 5.6421517407372477 -28.559003021621784 8.9899488520032627 0 0.73135370988377701 -0.68199835119979291 0.75 0 0 1 I I -0.70710678118654757 0.70710678118654757 0.75 forward I I I I #
loop $-1 $-1 $168 $45 #
coedge $-1 $106 $106 $169 $170 reversed $66 $-1 #
face $-1 $171 $172 $36 $-1 $173 reversed single #
loop $-1 $-1 $174 $68 #
plane-surface $-1 58.155825653479269 -20.734447047397992 44.346788426869807 0 0.6018150307709319 0.79863550430605224 1 0 0 forward_v I I I I #
coedge $-1 $175 $176 $177 $178 reversed $69 $-1 #
face $-1 $-1 $179 $37 $-1 $180 forward single #
loop $-1 $181 $182 $71 #
cone-surface $-1 50.350019919433819 22.380468354301939 3.4564103624113507 0 -0.6018150307709319 -0.79863550430605224 1.25 0 0 1 I I -0.70710678118654746 0.70710678118654746 1.25 forward I I I I #
loop $-1 $-1 $183 $47 #
coedge $-1 $115 $115 $184 $185 reversed $72 $-1 #
face $-1 $-1 $186 $38 $-1 $187 forward single #
loop $-1 $188 $189 $74 #
cone-surface $-1 58.155825653479269 22.380468354301939 3.4564103624113507 0 -0.6018150307709319 -0.79863550430605224 1.25 0 0 1 I I -0.70710678118654746 0.70710678118654746 1.25 forward I I I I #
loop $-1 $-1 $190 $48 #
coedge $-1 $120 $120 $191 $192 reversed $75 $-1 #
face $-1 $-1 $193 $39 $-1 $194 forward single #
loop $-1 $195 $196 $77 #
cone-surface $-1 65.961631387524704 22.380468354301939 3.4564103624113507 0 -0.6018150307709319 -0.79863550430605224 1.25 0 0 1 I I -0.70710678118654746 0.70710678118654746 1.25 forward I I I I #
loop $-1 $-1 $197 $49 #
coedge $-1 $125 $125 $198 $199 reversed $78 $-1 #
face $-1 $200 $201 $30 $-1 $202 reversed single #
loop $-1 $-1 $203 $80 #
plane-surface $-1 0 0 -15.066996727245641 0 0 1 1 0 0 forward_v I I I I #
coedge $-1 $204 $205 $206 $207 forward $81 $-1 #
coedge $-1 $208 $83 $209 $210 reversed $51 $-1 #
coedge $-1 $83 $208 $211 $212 forward $51 $-1 #
coedge $-1 $213 $214 $83 $133 forward $127 $-1 #
edge $-1 $215 -34.715308040112639 $216 34.715308040112639 $83 $217 forward 7 unknown #
face $-1 $218 $219 $31 $-1 $220 reversed single #
loop $-1 $-1 $221 $84 #
plane-surface $-1 -79.657251484131592 -7.9638592593774025 0 0 1 0 0 0 1 forward_v I I I I #
coedge $-1 $222 $223 $139 $224 forward $85 $-1 #
coedge $-1 $225 $87 $226 $227 reversed $54 $-1 #
coedge $-1 $87 $225 $137 $224 reversed $54 $-1 #
coedge $-1 $228 $229 $87 $141 reversed $230 $-1 #
edge $-1 $231 -15.066996727245641 $232 15.066996727245641 $140 $233 forward 7 unknown #
face $-1 $234 $235 $32 $-1 $236 forward single #
loop $-1 $-1 $237 $88 #
plane-surface $-1 -8.9626859535980081 -138.809615666919 106.98067303420846 1 0 0 0 0.73135370988377701 -0.68199835119979291 forward_v I I I I #
coedge $-1 $238 $239 $240 $241 reversed $89 $-1 #
coedge $-1 $147 $91 $242 $243 reversed $57 $-1 #
coedge $-1 $91 $146 $238 $244 reversed $57 $-1 #
coedge $-1 $240 $245 $91 $149 forward $235 $-1 #
edge $-1 $246 34.689499793346862 $247 39.497392269379219 $148 $248 forward 7 unknown #
loop $-1 $-1 $155 $92 #
plane-surface $-1 0.16533760536152897 -34.715308040112646 9.9111631495212436 0 -0.73135370988377701 0.68199835119979291 1 0 0 forward_v I I I I #
loop $-1 $-1 $249 $59 #
coedge $-1 $153 $153 $154 $250 reversed $93 $-1 #
coedge $-1 $154 $154 $153 $250 forward $95 $-1 #
coedge $-1 $155 $155 $96 $156 forward $150 $-1 #
edge $-1 $251 -4.6758788778318801e-016 $251 6.2831853071795996 $155 $252 forward 7 unknown #
loop $-1 $-1 $162 $97 #
plane-surface $-1 0.16533760536152897 -34.715308040112646 9.9111631495212436 0 -0.73135370988377701 0.68199835119979291 1 0 0 forward_v I I I I #
loop $-1 $-1 $253 $62 #
coedge $-1 $160 $160 $161 $254 reversed $98 $-1 #
coedge $-1 $161 $161 $160 $254 forward $100 $-1 #
coedge $-1 $162 $162 $101 $163 forward $157 $-1 #
edge $-1 $255 -4.6758788778318801e-016 $255 6.2831853071795996 $162 $256 forward 7 unknown #
loop $-1 $-1 $169 $102 #
plane-surface $-1 0.16533760536152897 -34.715308040112646 9.9111631495212436 0 -0.73135370988377701 0.68199835119979291 1 0 0 forward_v I I I I #
loop $-1 $-1 $257 $65 #
coedge $-1 $167 $167 $168 $258 reversed $103 $-1 #
coedge $-1 $168 $168 $167 $258 forward $105 $-1 #
coedge $-1 $169 $169 $106 $170 forward $164 $-1 #
edge $-1 $259 -4.6758788778318801e-016 $259 6.2831853071795996 $169 $260 forward 7 unknown #
face $-1 $261 $262 $36 $-1 $263 forward single #
loop $-1 $-1 $264 $107 #
plane-surface $-1 0 34.715308040112639 0 0 -1 0 0 0 -1 forward_v I I I I #
coedge $-1 $265 $266 $267 $268 reversed $108 $-1 #
coedge $-1 $176 $110 $269 $270 reversed $69 $-1 #
coedge $-1 $110 $175 $265 $271 reversed $69 $-1 #
coedge $-1 $267 $272 $110 $178 forward $262 $-1 #
edge $-1 $273 -2.2540628619432752 $274 14.340097043688147 $177 $275 forward 7 unknown #
loop $-1 $-1 $184 $111 #
plane-surface $-1 58.155825653479269 -20.734447047397992 44.346788426869807 0 0.6018150307709319 0.79863550430605224 1 0 0 forward_v I I I I #
loop $-1 $-1 $276 $71 #
coedge $-1 $182 $182 $183 $277 reversed $112 $-1 #
coedge $-1 $183 $183 $182 $277 forward $114 $-1 #
coedge $-1 $184 $184 $115 $185 forward $179 $-1 #
edge $-1 $278 -2.9583316589408251e-016 $278 6.2831853071796004 $184 $279 forward 7 unknown #
loop $-1 $-1 $191 $116 #
plane-surface $-1 58.155825653479269 -20.734447047397992 44.346788426869807 0 0.6018150307709319 0.79863550430605224 1 0 0 forward_v I I I I #
loop $-1 $-1 $280 $74 #
coedge $-1 $189 $189 $190 $281 reversed $117 $-1 #
coedge $-1 $190 $190 $189 $281 forward $119 $-1 #
coedge $-1 $191 $191 $120 $192 forward $186 $-1 #
edge $-1 $282 -2.9583316589408251e-016 $282 6.2831853071796004 $191 $283 forward 7 unknown #
loop $-1 $-1 $198 $121 #
plane-surface $-1 58.155825653479269 -20.734447047397992 44.346788426869807 0 0.6018150307709319 0.79863550430605224 1 0 0 forward_v I I I I #
loop $-1 $-1 $284 $77 #
coedge $-1 $196 $196 $197 $285 reversed $122 $-1 #
coedge $-1 $197 $197 $196 $285 forward $124 $-1 #
coedge $-1 $198 $198 $125 $199 forward $193 $-1 #
edge $-1 $286 -2.9583316589408251e-016 $286 6.2831853071796004 $198 $287 forward 7 unknown #
face $-1 $288 $289 $30 $-1 $290 reversed single #
loop $-1 $-1 $209 $126 #
plane-surface $-1 0 -34.715308040112639 0 0 1 0 0 0 1 forward_v I I I I #
coedge $-1 $214 $213 $291 $292 forward $127 $-1 #
coedge $-1 $293 $129 $294 $295 forward $81 $-1 #
coedge $-1 $129 $293 $296 $297 forward $81 $-1 #
coedge $-1 $298 $299 $129 $207 reversed $300 $-1 #
edge $-1 $301 -34.715308040112639 $302 34.715308040112639 $206 $303 forward 7 unknown #
coedge $-1 $131 $130 $293 $304 reversed $51 $-1 #
coedge $-1 $305 $296 $130 $210 forward $201 $-1 #
edge $-1 $306 -15.066996727245641 $215 15.066996727245641 $130 $307 forward 7 unknown #
coedge $-1 $294 $308 $131 $212 reversed $289 $-1 #
edge $-1 $309 -15.066996727245641 $216 15.066996727245641 $211 $310 forward 7 unknown #
coedge $-1 $203 $132 $308 $311 forward $127 $-1 #
coedge $-1 $132 $203 $305 $312 forward $127 $-1 #
vertex $-1 $133 $313 #
vertex $-1 $311 $314 #
straight-curve $-1 -71.165501876888328 0 -15.066996727245641 0 1 0 I I #
face $-1 $315 $230 $31 $-1 $316 reversed single #
loop $-1 $-1 $317 $134 #
plane-surface $-1 -88.149001091374856 -6.2725869224993787 0 1 0 0 0 0 -1 forward_v I I I I #
coedge $-1 $318 $319 $320 $321 forward $135 $-1 #
coedge $-1 $322 $137 $318 $323 forward $85 $-1 #
coedge $-1 $137 $322 $228 $324 forward $85 $-1 #
edge $-1 $231 4.5813145856213549 $325 7.9638592593774025 $137 $326 forward 7 unknown #
coedge $-1 $139 $138 $327 $328 forward $54 $-1 #
coedge $-1 $329 $330 $138 $227 forward $331 $-1 #
edge $-1 $332 -7.9638592593774025 $232 -4.5813145856213549 $226 $333 forward 7 unknown #
coedge $-1 $334 $140 $223 $324 reversed $230 $-1 #
coedge $-1 $140 $334 $329 $335 reversed $230 $-1 #
loop $-1 $-1 $140 $218 #
vertex $-1 $224 $336 #
vertex $-1 $335 $337 #
straight-curve $-1 -71.165501876888328 -4.5813145856213549 0 0 0 1 I I #
face $-1 $-1 $338 $32 $-1 $339 reversed single #
loop $-1 $-1 $148 $142 #
plane-surface $-1 0 0 15.066996727245641 0 0 1 1 0 0 forward_v I I I I #
coedge $-1 $340 $341 $342 $343 reversed $143 $-1 #
coedge $-1 $344 $145 $147 $244 forward $89 $-1 #
coedge $-1 $145 $344 $340 $345 forward $89 $-1 #
coedge $-1 $342 $148 $145 $241 forward $235 $-1 #
edge $-1 $247 -9.2106923616403016 $346 9.0453547562787726 $240 $347 forward 7 unknown #
coedge $-1 $348 $349 $146 $243 forward $338 $-1 #
edge $-1 $350 -43.579173367582982 $246 -38.423339789858588 $242 $351 forward 7 unknown #
edge $-1 $247 -7.0497127560120472 $350 -1.004247040074496e-014 $147 $352 forward 7 unknown #
coedge $-1 $148 $342 $348 $353 forward $235 $-1 #
vertex $-1 $149 $354 #
vertex $-1 $149 $355 #
straight-curve $-1 9.2933611643210661 -69.4048078334595 15.066996727245638 0 1 0 I I #
coedge $-1 $249 $249 $-1 $356 reversed $152 $-1 #
edge $-1 $357 0 $357 6.2831853071796004 $153 $358 forward 7 unknown #
vertex $-1 $156 $359 #
ellipse-curve $-1 -5.3114765300141897 -32.311361802096464 12.489079938383444 0 -0.73135370988377701 0.68199835119979291 1.5 0 0 1 I I #
coedge $-1 $253 $253 $-1 $360 reversed $159 $-1 #
edge $-1 $361 0 $361 6.2831853071796004 $160 $362 forward 7 unknown #
vertex $-1 $163 $363 #
ellipse-curve $-1 0.16533760536152897 -32.311361802096464 12.489079938383444 0 -0.73135370988377701 0.68199835119979291 1.5 0 0 1 I I #
coedge $-1 $257 $257 $-1 $364 reversed $166 $-1 #
edge $-1 $365 0 $365 6.2831853071796004 $167 $366 forward 7 unknown #
vertex $-1 $170 $367 #
ellipse-curve $-1 5.6421517407372477 -32.311361802096464 12.489079938383444 0 -0.73135370988377701 0.68199835119979291 1.5 0 0 1 I I #
face $-1 $-1 $368 $36 $-1 $369 reversed single #
loop $-1 $-1 $267 $171 #
plane-surface $-1 0 0 15.066996727245641 0 0 1 1 0 0 forward_v I I I I #
coedge $-1 $269 $370 $371 $372 forward $172 $-1 #
coedge $-1 $371 $174 $176 $271 forward $108 $-1 #
coedge $-1 $174 $371 $373 $374 reversed $108 $-1 #
coedge $-1 $375 $177 $174 $268 forward $262 $-1 #
edge $-1 $274 16.068236603330568 $376 42.087589050148694 $267 $377 forward 7 unknown #
coedge $-1 $378 $264 $175 $270 forward $172 $-1 #
edge $-1 $379 -76.446290619972672 $273 -63.941693966831281 $269 $380 forward 7 unknown #
edge $-1 $274 48.652476595867711 $379 69.43061608022532 $176 $381 forward 7 unknown #
coedge $-1 $177 $375 $378 $382 forward $262 $-1 #
vertex $-1 $270 $383 #
vertex $-1 $178 $384 #
straight-curve $-1 45.146149430070203 32.461245178169364 15.066996727245638 0 -1 0 I I #
coedge $-1 $276 $276 $-1 $385 reversed $181 $-1 #
edge $-1 $386 0 $386 6.2831853071796004 $182 $387 forward 7 unknown #
vertex $-1 $185 $388 #
ellipse-curve $-1 50.350019919433819 26.418228087296932 8.8146984006749491 0 0.6018150307709319 0.79863550430605224 2.5 0 0 1 I I #
coedge $-1 $280 $280 $-1 $389 reversed $188 $-1 #
edge $-1 $390 0 $390 6.2831853071796004 $189 $391 forward 7 unknown #
vertex $-1 $192 $392 #
ellipse-curve $-1 58.155825653479269 26.418228087296932 8.8146984006749491 0 0.6018150307709319 0.79863550430605224 2.5 0 0 1 I I #
coedge $-1 $284 $284 $-1 $393 reversed $195 $-1 #
edge $-1 $394 0 $394 6.2831853071796004 $196 $395 forward 7 unknown #
vertex $-1 $199 $396 #
ellipse-curve $-1 65.961631387524704 26.418228087296932 8.8146984006749491 0 0.6018150307709319 0.79863550430605224 2.5 0 0 1 I I #
face $-1 $-1 $300 $30 $-1 $397 reversed single #
loop $-1 $-1 $398 $200 #
plane-surface $-1 0 34.715308040112639 0 0 -1 0 0 0 -1 forward_v I I I I #
coedge $-1 $299 $298 $203 $292 reversed $300 $-1 #
edge $-1 $399 -34.715308040112639 $400 34.715308040112639 $291 $401 forward 7 unknown #
coedge $-1 $205 $204 $208 $304 forward $81 $-1 #
coedge $-1 $398 $211 $204 $295 reversed $289 $-1 #
edge $-1 $302 -71.165501876888328 $309 71.165501876888328 $294 $402 forward 7 unknown #
coedge $-1 $209 $403 $205 $297 reversed $201 $-1 #
edge $-1 $306 -71.165501876888328 $301 71.165501876888328 $296 $404 forward 7 unknown #
coedge $-1 $291 $206 $403 $405 forward $300 $-1 #
coedge $-1 $206 $291 $398 $406 reversed $300 $-1 #
loop $-1 $-1 $298 $288 #
vertex $-1 $207 $407 #
vertex $-1 $207 $408 #
straight-curve $-1 71.165501876888328 0 15.066996727245641 0 1 0 I I #
edge $-1 $309 -34.715308040112639 $306 34.715308040112639 $208 $409 forward 7 unknown #
coedge $-1 $403 $209 $214 $312 reversed $201 $-1 #
vertex $-1 $304 $410 #
straight-curve $-1 -71.165501876888328 -34.715308040112639 0 0 0 -1 I I #
coedge $-1 $211 $398 $213 $311 reversed $289 $-1 #
vertex $-1 $295 $411 #
straight-curve $-1 -71.165501876888328 34.715308040112639 0 0 0 -1 I I #
edge $-1 $216 -71.165501876888328 $399 71.165501876888328 $308 $412 forward 7 unknown #
edge $-1 $400 -71.165501876888328 $215 71.165501876888328 $305 $413 forward 7 unknown #
point $-1 -71.165501876888328 -34.715308040112639 -15.066996727245641 #
point $-1 -71.165501876888328 34.715308040112639 -15.066996727245641 #
face $-1 $-1 $331 $31 $-1 $414 forward single #
plane-surface $-1 -79.657251484131592 -4.5813145856213549 0 0 -1 0 0 0 -1 forward_v I I I I #
coedge $-1 $415 $416 $334 $417 forward $219 $-1 #
coedge $-1 $327 $221 $222 $323 reversed $135 $-1 #
coedge $-1 $221 $327 $330 $418 reversed $135 $-1 #
coedge $-1 $416 $415 $221 $321 reversed $219 $-1 #
edge $-1 $419 -15.066996727245641 $420 15.066996727245641 $320 $421 forward 7 unknown #
coedge $-1 $223 $222 $415 $422 forward $85 $-1 #
edge $-1 $325 -8.4917496072432641 $420 8.4917496072432641 $318 $423 forward 7 unknown #
edge $-1 $424 -8.4917496072432641 $231 8.4917496072432641 $228 $425 forward 7 unknown #
vertex $-1 $323 $426 #
straight-curve $-1 -71.165501876888328 0 -15.066996727245641 0 -1 0 I I #
coedge $-1 $319 $318 $225 $328 reversed $135 $-1 #
edge $-1 $332 -15.066996727245641 $325 15.066996727245641 $327 $427 forward 7 unknown #
coedge $-1 $428 $226 $229 $335 forward $331 $-1 #
coedge $-1 $226 $428 $319 $418 forward $331 $-1 #
loop $-1 $-1 $226 $315 #
vertex $-1 $227 $429 #
straight-curve $-1 -71.165501876888328 0 15.066996727245641 0 1 0 I I #
coedge $-1 $229 $228 $317 $417 reversed $230 $-1 #
edge $-1 $232 -8.4917496072432641 $430 8.4917496072432641 $229 $431 forward 7 unknown #
point $-1 -71.165501876888328 -4.5813145856213549 -15.066996727245641 #
point $-1 -71.165501876888328 -4.5813145856213549 15.066996727245641 #
loop $-1 $-1 $242 $234 #
plane-surface $-1 0 -34.715308040112639 0 0 1 0 0 0 1 forward_v I I I I #
coedge $-1 $341 $237 $239 $345 reversed $143 $-1 #
coedge $-1 $237 $340 $432 $433 reversed $143 $-1 #
coedge $-1 $245 $240 $237 $343 forward $235 $-1 #
edge $-1 $346 -39.497392269379219 $434 -34.689499793346862 $342 $435 forward 7 unknown #
coedge $-1 $239 $238 $349 $436 reversed $89 $-1 #
edge $-1 $437 1.004247040074496e-014 $346 7.0497127560120472 $340 $438 forward 7 unknown #
vertex $-1 $241 $439 #
straight-curve $-1 0.082668802680764486 -29.907415564080281 15.066996727245641 -1 0 0 I I #
coedge $-1 $432 $242 $245 $353 reversed $338 $-1 #
coedge $-1 $242 $432 $344 $436 forward $338 $-1 #
vertex $-1 $243 $440 #
straight-curve $-1 9.2933611643210661 -34.715308040112639 53.490336517104232 0 0 1 I I #
straight-curve $-1 9.2933611643210661 -34.715308040112646 9.9111631495212436 0 -0.68199835119979291 -0.73135370988377701 I I #
edge $-1 $434 -8.9626859535980081 $246 9.2933611643210661 $348 $441 forward 7 unknown #
point $-1 9.2933611643210661 -34.715308040112639 15.066996727245641 #
point $-1 9.2933611643210661 -29.907415564080281 15.066996727245641 #
edge $-1 $442 1 $442 0 $249 $-1 forward 7 unknown #
vertex $-1 $250 $443 #
ellipse-curve $-1 -5.3114765300141897 -29.107518304034617 9.5014476154031069 0 -0.73135370988377701 0.68199835119979291 1.5 0 0 1 I I #
point $-1 -3.8114765300141897 -32.311361802096449 12.48907993838343 #
edge $-1 $444 1 $444 0 $253 $-1 forward 7 unknown #
vertex $-1 $254 $445 #
ellipse-curve $-1 0.16533760536152897 -29.107518304034617 9.5014476154031069 0 -0.73135370988377701 0.68199835119979291 1.5 0 0 1 I I #
point $-1 1.665337605361529 -32.311361802096449 12.48907993838343 #
edge $-1 $446 1 $446 0 $257 $-1 forward 7 unknown #
vertex $-1 $258 $447 #
ellipse-curve $-1 5.6421517407372477 -29.107518304034617 9.5014476154031069 0 -0.73135370988377701 0.68199835119979291 1.5 0 0 1 I I #
point $-1 7.1421517407372477 -32.311361802096449 12.48907993838343 #
loop $-1 $-1 $373 $261 #
plane-surface $-1 71.165501876888328 0 0 -1 0 0 0 0 1 forward_v I I I I #
coedge $-1 $264 $378 $448 $449 forward $172 $-1 #
coedge $-1 $266 $265 $264 $372 reversed $108 $-1 #
edge $-1 $450 -42.087589050148694 $379 -16.068236603330568 $264 $451 forward 7 unknown #
coedge $-1 $448 $452 $266 $374 forward $368 $-1 #
edge $-1 $376 27.028561887910463 $450 47.806701372268066 $373 $453 forward 7 unknown #
coedge $-1 $272 $267 $452 $454 forward $262 $-1 #
vertex $-1 $454 $455 #
straight-curve $-1 29.077912826739635 18.12114813448121 15.066996727245641 1 0 0 I I #
coedge $-1 $370 $269 $272 $382 reversed $172 $-1 #
vertex $-1 $270 $456 #
straight-curve $-1 45.146149430070203 34.715308040112639 79.008690694076918 0 0 1 I I #
straight-curve $-1 45.146149430070203 -20.734447047397992 44.346788426869807 0 0.79863550430605224 -0.6018150307709319 I I #
edge $-1 $457 -71.165501876888328 $273 -45.146149430070203 $378 $458 forward 7 unknown #
point $-1 45.146149430070203 34.715308040112639 15.066996727245641 #
point $-1 45.146149430070203 18.121148134481217 15.066996727245641 #
edge $-1 $459 1 $459 0 $276 $-1 forward 7 unknown #
vertex $-1 $277 $460 #
ellipse-curve $-1 50.350019919433819 23.132737142765603 4.4547047427939157 0 0.6018150307709319 0.79863550430605224 2.5 0 0 1 I I #
point $-1 52.850019919433819 26.418228087296939 8.8146984006749598 #
edge $-1 $461 1 $461 0 $280 $-1 forward 7 unknown #
vertex $-1 $281 $462 #
ellipse-curve $-1 58.155825653479269 23.132737142765603 4.4547047427939157 0 0.6018150307709319 0.79863550430605224 2.5 0 0 1 I I #
point $-1 60.655825653479269 26.418228087296939 8.8146984006749598 #
edge $-1 $463 1 $463 0 $284 $-1 forward 7 unknown #
vertex $-1 $285 $464 #
ellipse-curve $-1 65.961631387524704 23.132737142765603 4.4547047427939157 0 0.6018150307709319 0.79863550430605224 2.5 0 0 1 I I #
point $-1 68.461631387524704 26.418228087296939 8.8146984006749598 #
plane-surface $-1 71.165501876888328 0 0 -1 0 0 0 0 1 forward_v I I I I #
coedge $-1 $308 $294 $299 $406 forward $289 $-1 #
vertex $-1 $292 $465 #
vertex $-1 $405 $466 #
straight-curve $-1 71.165501876888328 0 -15.066996727245641 0 -1 0 I I #
straight-curve $-1 0 34.715308040112639 15.066996727245641 -1 0 0 I I #
coedge $-1 $296 $305 $298 $405 reversed $201 $-1 #
straight-curve $-1 0 -34.715308040112639 15.066996727245641 1 0 0 I I #
edge $-1 $301 -15.066996727245641 $400 15.066996727245641 $298 $467 forward 7 unknown #
edge $-1 $302 -15.066996727245641 $399 15.066996727245641 $299 $468 forward 7 unknown #
point $-1 71.165501876888328 -34.715308040112639 15.066996727245641 #
point $-1 71.165501876888328 34.715308040112639 15.066996727245641 #
straight-curve $-1 -71.165501876888328 0 15.066996727245641 0 -1 0 I I #
point $-1 -71.165501876888328 -34.715308040112639 15.066996727245641 #
point $-1 -71.165501876888328 34.715308040112639 15.066996727245641 #
straight-curve $-1 0 34.715308040112639 -15.066996727245641 1 0 0 I I #
straight-curve $-1 0 -34.715308040112639 -15.066996727245641 -1 0 0 I I #
plane-surface $-1 0 0 15.066996727245641 0 0 1 1 0 0 forward_v I I I I #
coedge $-1 $320 $317 $322 $422 reversed $219 $-1 #
coedge $-1 $317 $320 $428 $469 reversed $219 $-1 #
edge $-1 $430 -15.066996727245641 $424 15.066996727245641 $334 $470 forward 7 unknown #
edge $-1 $419 -8.4917496072432641 $332 8.4917496072432641 $319 $471 forward 7 unknown #
vertex $-1 $469 $472 #
vertex $-1 $422 $473 #
straight-curve $-1 -88.149001091374856 -7.9638592593774025 0 0 0 -1 I I #
edge $-1 $420 -1.6912723368780238 $424 1.6912723368780238 $415 $474 forward 7 unknown #
straight-curve $-1 -79.657251484131592 -7.9638592593774025 -15.066996727245641 -1 0 0 I I #
vertex $-1 $324 $475 #
straight-curve $-1 -79.657251484131592 -4.5813145856213549 -15.066996727245641 1 0 0 I I #
point $-1 -71.165501876888328 -7.9638592593774025 -15.066996727245641 #
straight-curve $-1 -71.165501876888328 -7.9638592593774025 0 0 0 -1 I I #
coedge $-1 $330 $329 $416 $469 forward $331 $-1 #
point $-1 -71.165501876888328 -7.9638592593774025 15.066996727245641 #
vertex $-1 $335 $476 #
straight-curve $-1 -79.657251484131592 -4.5813145856213549 15.066996727245641 -1 0 0 I I #
coedge $-1 $349 $348 $341 $433 forward $338 $-1 #
edge $-1 $434 38.423339789858588 $437 43.579173367582982 $432 $477 forward 7 unknown #
vertex $-1 $353 $478 #
straight-curve $-1 -8.9626859535980081 -69.4048078334595 15.066996727245638 0 -1 0 I I #
edge $-1 $437 -9.0453547562787726 $350 9.2106923616403016 $349 $479 forward 7 unknown #
vertex $-1 $436 $480 #
straight-curve $-1 -8.9626859535980081 -34.715308040112646 9.9111631495212436 0 0.68199835119979291 0.73135370988377701 I I #
point $-1 -8.9626859535980081 -29.907415564080281 15.066996727245641 #
point $-1 9.2933611643210661 -34.715308040112639 9.9111631495212507 #
straight-curve $-1 0 -34.715308040112639 15.066996727245641 1 0 0 I I #
vertex $-1 $356 $481 #
point $-1 -3.8114765300141897 -29.107518304034617 9.5014476154031069 #
vertex $-1 $360 $482 #
point $-1 1.665337605361529 -29.107518304034617 9.5014476154031069 #
vertex $-1 $364 $483 #
point $-1 7.1421517407372477 -29.107518304034617 9.5014476154031069 #
coedge $-1 $452 $373 $370 $449 reversed $368 $-1 #
edge $-1 $457 -15.066996727245641 $450 -2.5624000741042536 $448 $484 forward 7 unknown #
vertex $-1 $374 $485 #
straight-curve $-1 29.077912826739635 34.715308040112639 2.5624000741042607 -1 0 0 I I #
coedge $-1 $373 $448 $375 $454 reversed $368 $-1 #
straight-curve $-1 71.165501876888328 -3.4648210195374984 31.333191531512512 0 0.79863550430605224 -0.6018150307709319 I I #
edge $-1 $376 18.121148134481217 $457 34.715308040112639 $452 $486 forward 7 unknown #
point $-1 71.165501876888328 18.121148134481217 15.066996727245641 #
point $-1 45.146149430070203 34.715308040112646 2.5624000741042536 #
vertex $-1 $454 $487 #
straight-curve $-1 0 34.715308040112639 15.066996727245641 -1 0 0 I I #
vertex $-1 $385 $488 #
point $-1 52.850019919433819 23.132737142765603 4.4547047427939157 #
vertex $-1 $389 $489 #
point $-1 60.655825653479269 23.132737142765603 4.4547047427939157 #
vertex $-1 $393 $490 #
point $-1 68.461631387524704 23.132737142765603 4.4547047427939157 #
point $-1 71.165501876888328 34.715308040112639 -15.066996727245641 #
point $-1 71.165501876888328 -34.715308040112639 -15.066996727245641 #
straight-curve $-1 71.165501876888328 -34.715308040112639 0 0 0 -1 I I #
straight-curve $-1 71.165501876888328 34.715308040112639 0 0 0 -1 I I #
edge $-1 $430 -1.6912723368780238 $419 1.6912723368780238 $416 $491 forward 7 unknown #
straight-curve $-1 -88.149001091374856 -4.5813145856213549 0 0 0 -1 I I #
straight-curve $-1 -79.657251484131592 -7.9638592593774025 15.066996727245641 1 0 0 I I #
point $-1 -88.149001091374856 -7.9638592593774025 15.066996727245641 #
point $-1 -88.149001091374856 -7.9638592593774025 -15.066996727245641 #
straight-curve $-1 -88.149001091374856 -6.2725869224993787 -15.066996727245641 0 1 0 I I #
point $-1 -88.149001091374856 -4.5813145856213549 -15.066996727245641 #
point $-1 -88.149001091374856 -4.5813145856213549 15.066996727245641 #
straight-curve $-1 -8.9626859535980081 -34.715308040112639 53.490336517104232 0 0 -1 I I #
point $-1 -8.9626859535980081 -34.715308040112639 15.066996727245641 #
straight-curve $-1 0.082668802680764486 -34.715308040112639 9.911163149521256 1 0 0 I I #
point $-1 -8.9626859535980081 -34.715308040112639 9.9111631495212507 #
point $-1 -5.3114765300141897 -28.010487739208951 8.4784500886034184 #
point $-1 0.16533760536152897 -28.010487739208951 8.4784500886034184 #
point $-1 5.6421517407372477 -28.010487739208951 8.4784500886034184 #
straight-curve $-1 71.165501876888328 34.715308040112639 0 0 0 -1 I I #
point $-1 71.165501876888328 34.715308040112646 2.5624000741042536 #
straight-curve $-1 71.165501876888328 0 15.066996727245641 0 1 0 I I #
point $-1 71.165501876888328 34.715308040112639 15.066996727245641 #
point $-1 50.350019919433819 21.628199565838276 2.4581159820287857 #
point $-1 58.155825653479269 21.628199565838276 2.4581159820287857 #
point $-1 65.961631387524704 21.628199565838276 2.4581159820287857 #
straight-curve $-1 -88.149001091374856 -6.2725869224993787 15.066996727245641 0 -1 0 I I #
End-of-ACIS-data 