500 0 6 0           
7 Unknown 11 ACIS 5.0 NT 24 Thu Mar 25 16:49:35 1999 
-1 9.9999999999999995e-007 1e-010 
body $-1 $6 $-1 $7 #
body $-1 $8 $-1 $9 #
body $-1 $10 $-1 $11 #
body $-1 $12 $-1 $13 #
body $-1 $14 $-1 $15 #
body $-1 $16 $-1 $17 #
lump $-1 $-1 $18 $0 #
transform $-1 1 0 0 0 1 0 0 0 1 61.242103335673086 34.585051331053471 10.038815934164942 1 rotate no_reflect no_shear #
lump $-1 $-1 $19 $1 #
transform $-1 1 0 0 0 1 0 0 0 1 61.242103335673086 34.585051331053471 10.038815934164942 1 rotate no_reflect no_shear #
lump $-1 $-1 $20 $2 #
transform $-1 1 0 0 0 1 0 0 0 1 61.242103335673086 34.585051331053471 10.038815934164942 1 rotate no_reflect no_shear #
lump $-1 $-1 $21 $3 #
transform $-1 1 0 0 0 1 0 0 0 1 61.242103335673086 34.585051331053471 10.038815934164942 1 rotate no_reflect no_shear #
lump $-1 $-1 $22 $4 #
transform $-1 1 0 0 0 1 0 0 0 1 61.242103335673086 34.585051331053471 10.038815934164942 1 rotate no_reflect no_shear #
lump $-1 $-1 $23 $5 #
transform $-1 1 0 0 0 1 0 0 0 1 61.242103335673086 34.585051331053471 10.038815934164942 1 rotate no_reflect no_shear #
shell $-1 $-1 $-1 $24 $-1 $6 #
shell $-1 $-1 $-1 $25 $-1 $8 #
shell $-1 $-1 $-1 $26 $-1 $10 #
shell $-1 $-1 $-1 $27 $-1 $12 #
shell $-1 $-1 $-1 $28 $-1 $14 #
shell $-1 $-1 $-1 $29 $-1 $16 #
face $-1 $30 $31 $18 $-1 $32 forward single #
face $-1 $33 $34 $19 $-1 $35 forward single #
face $-1 $36 $37 $20 $-1 $38 forward single #
face $-1 $39 $40 $21 $-1 $41 reversed single #
face $-1 $42 $43 $22 $-1 $44 forward single #
face $-1 $45 $46 $23 $-1 $47 forward single #
face $-1 $48 $49 $18 $-1 $50 reversed single #
loop $-1 $-1 $51 $24 #
plane-surface $-1 0 0 10.038815934164942 0 0 1 1 0 0 forward_v I I I I #
face $-1 $52 $53 $19 $-1 $54 reversed single #
loop $-1 $-1 $55 $25 #
plane-surface $-1 -57.633975133234721 0 3.1210662409627785 0 0 1 1 0 0 forward_v I I I I #
face $-1 $56 $57 $20 $-1 $58 reversed single #
loop $-1 $-1 $59 $26 #
plane-surface $-1 57.633975133234721 0 3.1210662409627785 0 0 1 1 0 0 forward_v I I I I #
face $-1 $60 $61 $21 $-1 $62 reversed single #
loop $-1 $-1 $63 $27 #
plane-surface $-1 27.470132466951874 -106.57946257098834 104.23746271841979 1 0 0 0 0.5877852598018023 -0.80901698891910034 forward_v I I I I #
face $-1 $64 $65 $22 $-1 $66 forward single #
loop $-1 $67 $68 $28 #
cone-surface $-1 35.057479456621728 -29.761050325377088 5.5874345780096668 0 0.5877852598018023 -0.80901698891910034 2 0 0 1 I I 0 1 2 forward I I I I #
face $-1 $69 $70 $23 $-1 $71 forward single #
loop $-1 $72 $73 $29 #
cone-surface $-1 46.438499941126501 -29.761050325377088 5.5874345780096668 0 0.5877852598018023 -0.80901698891910034 2 0 0 1 I I 0 1 2 forward I I I I #
face $-1 $74 $75 $18 $-1 $76 reversed single #
loop $-1 $-1 $77 $30 #
plane-surface $-1 0 0 -10.038815934164942 0 0 1 1 0 0 forward_v I I I I #
coedge $-1 $78 $79 $80 $81 forward $31 $-1 #
face $-1 $82 $83 $19 $-1 $84 reversed single #
loop $-1 $-1 $85 $33 #
plane-surface $-1 -57.633975133234721 0 -1.5124078160190555 0 0 1 1 0 0 forward_v I I I I #
coedge $-1 $86 $87 $88 $89 forward $34 $-1 #
face $-1 $90 $91 $20 $-1 $92 reversed single #
loop $-1 $-1 $93 $36 #
plane-surface $-1 57.633975133234721 0 -1.5124078160190555 0 0 1 1 0 0 forward_v I I I I #
coedge $-1 $94 $95 $96 $97 reversed $37 $-1 #
face $-1 $98 $99 $21 $-1 $100 reversed single #
loop $-1 $-1 $101 $39 #
plane-surface $-1 40.747989698874115 -34.585051331053478 5.145658647022529 0 -0.5877852598018023 0.80901698891910034 1 0 0 forward_v I I I I #
coedge $-1 $102 $103 $104 $105 reversed $40 $-1 #
face $-1 $-1 $106 $22 $-1 $107 forward single #
loop $-1 $108 $109 $42 #
cone-surface $-1 35.057479456621728 -27.716690606190951 2.7736148765065032 0 0.5877852598018023 -0.80901698891910034 1 0 0 1 I I -0.70710678118654746 0.70710678118654746 1 forward I I I I #
loop $-1 $-1 $110 $28 #
coedge $-1 $68 $68 $111 $112 reversed $43 $-1 #
face $-1 $-1 $113 $23 $-1 $114 forward single #
loop $-1 $115 $116 $45 #
cone-surface $-1 46.438499941126501 -27.716690606190951 2.7736148765065032 0 0.5877852598018023 -0.80901698891910034 1 0 0 1 I I -0.70710678118654746 0.70710678118654746 1 forward I I I I #
loop $-1 $-1 $117 $29 #
coedge $-1 $73 $73 $118 $119 reversed $46 $-1 #
face $-1 $120 $121 $18 $-1 $122 reversed single #
loop $-1 $-1 $123 $48 #
plane-surface $-1 0 -34.585051331053471 0 0 1 0 0 0 1 forward_v I I I I #
coedge $-1 $124 $125 $126 $127 forward $49 $-1 #
coedge $-1 $128 $51 $129 $130 forward $31 $-1 #
coedge $-1 $51 $128 $131 $132 forward $31 $-1 #
coedge $-1 $133 $134 $51 $81 reversed $135 $-1 #
edge $-1 $136 -34.585051331053471 $137 34.585051331053471 $80 $138 forward 7 unknown #
face $-1 $139 $140 $19 $-1 $141 reversed single #
loop $-1 $-1 $142 $52 #
plane-surface $-1 -54.025846930796355 0 0.80432921247186151 -1 0 0 0 0 1 forward_v I I I I #
coedge $-1 $143 $144 $145 $146 forward $53 $-1 #
coedge $-1 $147 $55 $148 $149 reversed $34 $-1 #
coedge $-1 $55 $147 $150 $151 reversed $34 $-1 #
coedge $-1 $142 $152 $55 $89 reversed $83 $-1 #
edge $-1 $153 -34.585051331053471 $154 34.585051331053471 $88 $155 forward 7 unknown #
face $-1 $156 $157 $20 $-1 $158 reversed single #
loop $-1 $-1 $159 $56 #
plane-surface $-1 54.025846930796355 0 0.80432921247186151 1 0 0 0 0 -1 forward_v I I I I #
coedge $-1 $160 $161 $162 $163 reversed $57 $-1 #
coedge $-1 $164 $59 $165 $166 reversed $37 $-1 #
coedge $-1 $59 $164 $167 $168 reversed $37 $-1 #
coedge $-1 $169 $170 $59 $97 forward $171 $-1 #
edge $-1 $172 -34.585051331053471 $173 34.585051331053471 $96 $174 forward 7 unknown #
face $-1 $175 $176 $21 $-1 $177 forward single #
loop $-1 $-1 $178 $60 #
plane-surface $-1 54.025846930796355 -106.57946257098834 104.23746271841979 -1 0 0 0 -0.5877852598018023 0.80901698891910034 forward_v I I I I #
coedge $-1 $179 $180 $181 $182 reversed $61 $-1 #
coedge $-1 $103 $63 $183 $184 reversed $40 $-1 #
coedge $-1 $63 $102 $179 $185 reversed $40 $-1 #
coedge $-1 $181 $186 $63 $105 forward $187 $-1 #
edge $-1 $188 42.079915425044952 $189 46.97307271218736 $104 $190 forward 7 unknown #
loop $-1 $-1 $111 $64 #
plane-surface $-1 40.747989698874115 -34.585051331053478 5.145658647022529 0 -0.5877852598018023 0.80901698891910034 1 0 0 forward_v I I I I #
loop $-1 $-1 $191 $42 #
coedge $-1 $109 $109 $110 $192 reversed $65 $-1 #
coedge $-1 $110 $110 $109 $192 forward $67 $-1 #
coedge $-1 $111 $111 $68 $112 forward $106 $-1 #
edge $-1 $193 -9.1215896282462475e-016 $193 6.2831853071795996 $111 $194 forward 7 unknown #
loop $-1 $-1 $118 $69 #
plane-surface $-1 40.747989698874115 -34.585051331053478 5.145658647022529 0 -0.5877852598018023 0.80901698891910034 1 0 0 forward_v I I I I #
loop $-1 $-1 $195 $45 #
coedge $-1 $116 $116 $117 $196 reversed $70 $-1 #
coedge $-1 $117 $117 $116 $196 forward $72 $-1 #
coedge $-1 $118 $118 $73 $119 forward $113 $-1 #
edge $-1 $197 -9.1215896282462475e-016 $197 6.2831853071795996 $118 $198 forward 7 unknown #
face $-1 $199 $200 $18 $-1 $201 reversed single #
loop $-1 $-1 $202 $74 #
plane-surface $-1 -61.242103335673086 0 0 1 0 0 0 0 -1 forward_v I I I I #
coedge $-1 $203 $131 $204 $205 forward $75 $-1 #
coedge $-1 $206 $77 $203 $207 forward $49 $-1 #
coedge $-1 $77 $206 $208 $209 forward $49 $-1 #
coedge $-1 $134 $133 $77 $127 reversed $135 $-1 #
edge $-1 $210 -34.585051331053471 $211 34.585051331053471 $126 $212 forward 7 unknown #
coedge $-1 $79 $78 $213 $214 forward $31 $-1 #
coedge $-1 $215 $216 $78 $130 reversed $200 $-1 #
edge $-1 $137 -61.242103335673086 $217 61.242103335673086 $129 $218 forward 7 unknown #
coedge $-1 $123 $219 $79 $132 reversed $75 $-1 #
edge $-1 $220 -61.242103335673086 $136 61.242103335673086 $131 $221 forward 7 unknown #
coedge $-1 $126 $80 $219 $222 forward $135 $-1 #
coedge $-1 $80 $126 $215 $223 reversed $135 $-1 #
loop $-1 $-1 $133 $199 #
vertex $-1 $81 $224 #
vertex $-1 $81 $225 #
straight-curve $-1 61.242103335673086 0 10.038815934164942 0 1 0 I I #
face $-1 $226 $227 $19 $-1 $228 reversed single #
loop $-1 $-1 $229 $82 #
plane-surface $-1 0 -34.585051331053471 0 0 1 0 0 0 1 forward_v I I I I #
coedge $-1 $145 $88 $230 $231 reversed $83 $-1 #
coedge $-1 $232 $85 $229 $233 reversed $53 $-1 #
coedge $-1 $85 $232 $234 $235 reversed $53 $-1 #
coedge $-1 $152 $142 $85 $146 reversed $83 $-1 #
edge $-1 $236 -34.585051331053471 $237 34.585051331053471 $145 $238 forward 7 unknown #
coedge $-1 $87 $86 $239 $240 reversed $34 $-1 #
coedge $-1 $241 $242 $86 $149 forward $243 $-1 #
edge $-1 $244 -32.425115769055722 $154 -25.208859364178995 $148 $245 forward 7 unknown #
coedge $-1 $246 $230 $87 $151 forward $140 $-1 #
edge $-1 $153 25.208859364178995 $247 32.425115769055722 $150 $248 forward 7 unknown #
coedge $-1 $88 $145 $241 $249 reversed $83 $-1 #
vertex $-1 $151 $250 #
vertex $-1 $149 $251 #
straight-curve $-1 -54.025846930796355 0 3.1210662409627785 0 1 0 I I #
face $-1 $252 $253 $20 $-1 $254 reversed single #
loop $-1 $-1 $167 $90 #
plane-surface $-1 0 -34.585051331053471 0 0 1 0 0 0 1 forward_v I I I I #
coedge $-1 $255 $256 $257 $258 reversed $91 $-1 #
coedge $-1 $259 $93 $260 $261 reversed $57 $-1 #
coedge $-1 $93 $259 $262 $263 reversed $57 $-1 #
coedge $-1 $170 $169 $93 $163 forward $171 $-1 #
edge $-1 $264 -34.585051331053471 $265 34.585051331053471 $162 $266 forward 7 unknown #
coedge $-1 $95 $94 $256 $267 forward $37 $-1 #
coedge $-1 $268 $257 $94 $166 forward $253 $-1 #
edge $-1 $269 25.208859364178995 $172 32.425115769055722 $165 $270 forward 7 unknown #
coedge $-1 $271 $272 $95 $168 forward $157 $-1 #
edge $-1 $173 -32.425115769055722 $273 -25.208859364178995 $167 $274 forward 7 unknown #
coedge $-1 $162 $96 $272 $275 forward $171 $-1 #
coedge $-1 $96 $162 $268 $276 reversed $171 $-1 #
loop $-1 $-1 $96 $252 #
vertex $-1 $276 $277 #
vertex $-1 $275 $278 #
straight-curve $-1 61.242103335673086 0 3.1210662409627785 0 -1 0 I I #
face $-1 $-1 $187 $21 $-1 $279 reversed single #
loop $-1 $-1 $280 $98 #
plane-surface $-1 0 0 10.038815934164942 0 0 1 1 0 0 forward_v I I I I #
coedge $-1 $281 $282 $283 $284 reversed $99 $-1 #
coedge $-1 $285 $101 $103 $185 forward $61 $-1 #
coedge $-1 $101 $285 $281 $286 forward $61 $-1 #
coedge $-1 $283 $104 $101 $182 forward $187 $-1 #
edge $-1 $189 7.0961376175148168 $287 33.651852081359294 $181 $288 forward 7 unknown #
coedge $-1 $289 $290 $102 $184 forward $176 $-1 #
edge $-1 $291 -25.439533047024778 $188 -18.704679954440699 $183 $292 forward 7 unknown #
edge $-1 $189 8.8807605448725156e-015 $291 8.324736297048954 $103 $293 forward 7 unknown #
coedge $-1 $104 $283 $289 $294 reversed $187 $-1 #
loop $-1 $-1 $283 $175 #
vertex $-1 $294 $295 #
vertex $-1 $105 $296 #
straight-curve $-1 27.470132466951874 -34.585051331053471 52.118731359209896 0 0 -1 I I #
coedge $-1 $191 $191 $-1 $297 reversed $108 $-1 #
edge $-1 $298 0 $298 6.2831853071796004 $109 $299 forward 7 unknown #
vertex $-1 $112 $300 #
ellipse-curve $-1 35.057479456621728 -31.21762478476143 7.5922372905937383 0 -0.5877852598018023 0.80901698891910034 2 0 0 1 I I #
coedge $-1 $195 $195 $-1 $301 reversed $115 $-1 #
edge $-1 $302 0 $302 6.2831853071796004 $116 $303 forward 7 unknown #
vertex $-1 $119 $304 #
ellipse-curve $-1 46.438499941126501 -31.21762478476143 7.5922372905937383 0 -0.5877852598018023 0.80901698891910034 2 0 0 1 I I #
face $-1 $-1 $135 $18 $-1 $305 reversed single #
loop $-1 $-1 $215 $120 #
plane-surface $-1 0 34.585051331053471 0 0 -1 0 0 0 -1 forward_v I I I I #
coedge $-1 $306 $213 $216 $307 forward $121 $-1 #
coedge $-1 $219 $123 $124 $207 reversed $75 $-1 #
coedge $-1 $213 $306 $123 $205 reversed $121 $-1 #
edge $-1 $220 -10.038815934164942 $308 10.038815934164942 $204 $309 forward 7 unknown #
coedge $-1 $125 $124 $306 $310 forward $49 $-1 #
edge $-1 $211 -61.242103335673086 $308 61.242103335673086 $203 $311 forward 7 unknown #
coedge $-1 $216 $215 $125 $209 reversed $200 $-1 #
edge $-1 $312 -61.242103335673086 $210 61.242103335673086 $208 $313 forward 7 unknown #
vertex $-1 $127 $314 #
vertex $-1 $222 $315 #
straight-curve $-1 61.242103335673086 0 -10.038815934164942 0 -1 0 I I #
coedge $-1 $202 $204 $128 $214 reversed $121 $-1 #
edge $-1 $217 -34.585051331053471 $220 34.585051331053471 $213 $316 forward 7 unknown #
coedge $-1 $208 $129 $134 $223 forward $200 $-1 #
coedge $-1 $129 $208 $202 $307 reversed $200 $-1 #
vertex $-1 $130 $317 #
straight-curve $-1 0 34.585051331053471 10.038815934164942 -1 0 0 I I #
coedge $-1 $131 $203 $133 $222 reversed $75 $-1 #
vertex $-1 $214 $318 #
straight-curve $-1 0 -34.585051331053471 10.038815934164942 1 0 0 I I #
edge $-1 $136 -10.038815934164942 $211 10.038815934164942 $133 $319 forward 7 unknown #
edge $-1 $137 -10.038815934164942 $210 10.038815934164942 $134 $320 forward 7 unknown #
point $-1 61.242103335673086 -34.585051331053471 10.038815934164942 #
point $-1 61.242103335673086 34.585051331053471 10.038815934164942 #
face $-1 $-1 $243 $19 $-1 $321 reversed single #
loop $-1 $-1 $322 $139 #
plane-surface $-1 -61.242103335673086 0 0 1 0 0 0 0 -1 forward_v I I I I #
coedge $-1 $230 $246 $143 $233 forward $140 $-1 #
coedge $-1 $150 $229 $142 $231 forward $140 $-1 #
edge $-1 $237 -1.9145724222549863 $153 2.7189016347268478 $230 $323 forward 7 unknown #
coedge $-1 $144 $143 $322 $324 reversed $53 $-1 #
edge $-1 $325 -32.425115769055722 $237 -25.208859364178995 $229 $326 forward 7 unknown #
coedge $-1 $242 $241 $144 $235 forward $243 $-1 #
edge $-1 $236 25.208859364178995 $327 32.425115769055722 $234 $328 forward 7 unknown #
vertex $-1 $235 $329 #
vertex $-1 $233 $330 #
straight-curve $-1 -54.025846930796355 0 -1.5124078160190555 0 -1 0 I I #
coedge $-1 $331 $332 $147 $240 forward $227 $-1 #
edge $-1 $247 -34.585051331053471 $244 34.585051331053471 $239 $333 forward 7 unknown #
coedge $-1 $234 $148 $152 $249 forward $243 $-1 #
coedge $-1 $148 $234 $331 $334 reversed $243 $-1 #
loop $-1 $-1 $234 $226 #
vertex $-1 $334 $335 #
straight-curve $-1 -28.81698756661736 34.585051331053471 3.1210662409627785 1 0 0 I I #
coedge $-1 $229 $150 $332 $336 forward $140 $-1 #
vertex $-1 $336 $337 #
straight-curve $-1 -28.81698756661736 -34.585051331053471 3.1210662409627785 -1 0 0 I I #
edge $-1 $154 -2.7189016347268478 $236 1.9145724222549863 $241 $338 forward 7 unknown #
point $-1 -54.025846930796355 -34.585051331053471 3.1210662409627785 #
point $-1 -54.025846930796355 34.585051331053471 3.1210662409627785 #
face $-1 $-1 $171 $20 $-1 $339 reversed single #
loop $-1 $-1 $165 $156 #
plane-surface $-1 0 34.585051331053471 0 0 -1 0 0 0 -1 forward_v I I I I #
coedge $-1 $340 $159 $259 $341 reversed $91 $-1 #
coedge $-1 $159 $340 $164 $267 reversed $91 $-1 #
coedge $-1 $165 $262 $159 $258 forward $253 $-1 #
edge $-1 $342 -1.9145724222549863 $269 2.7189016347268478 $257 $343 forward 7 unknown #
coedge $-1 $161 $160 $255 $341 forward $57 $-1 #
coedge $-1 $272 $271 $160 $261 forward $157 $-1 #
edge $-1 $344 25.208859364178995 $264 32.425115769055722 $260 $345 forward 7 unknown #
coedge $-1 $257 $268 $161 $263 forward $253 $-1 #
edge $-1 $265 -32.425115769055722 $342 -25.208859364178995 $262 $346 forward 7 unknown #
vertex $-1 $163 $347 #
vertex $-1 $163 $348 #
straight-curve $-1 61.242103335673086 0 -1.5124078160190555 0 1 0 I I #
edge $-1 $269 -34.585051331053471 $273 34.585051331053471 $256 $349 forward 7 unknown #
coedge $-1 $262 $165 $170 $276 forward $253 $-1 #
vertex $-1 $166 $350 #
straight-curve $-1 28.81698756661736 34.585051331053471 3.1210662409627785 1 0 0 I I #
coedge $-1 $260 $167 $340 $351 forward $157 $-1 #
coedge $-1 $167 $260 $169 $275 reversed $157 $-1 #
vertex $-1 $168 $352 #
straight-curve $-1 28.81698756661736 -34.585051331053471 3.1210662409627785 -1 0 0 I I #
edge $-1 $173 -3.1210662409627785 $264 1.5124078160190555 $169 $353 forward 7 unknown #
edge $-1 $172 -3.1210662409627785 $265 1.5124078160190555 $170 $354 forward 7 unknown #
point $-1 61.242103335673086 34.585051331053471 3.1210662409627785 #
point $-1 61.242103335673086 -34.585051331053471 3.1210662409627785 #
plane-surface $-1 0 -34.585051331053471 0 0 1 0 0 0 1 forward_v I I I I #
coedge $-1 $290 $289 $282 $355 forward $176 $-1 #
coedge $-1 $282 $178 $180 $286 reversed $99 $-1 #
coedge $-1 $178 $281 $280 $355 reversed $99 $-1 #
coedge $-1 $186 $181 $178 $284 forward $187 $-1 #
edge $-1 $287 -46.97307271218736 $356 -42.079915425044952 $283 $357 forward 7 unknown #
coedge $-1 $180 $179 $290 $358 reversed $61 $-1 #
edge $-1 $359 -8.324736297048954 $287 -8.8807605448725156e-015 $281 $360 forward 7 unknown #
vertex $-1 $182 $361 #
straight-curve $-1 20.373994849437057 -34.585051331053471 5.1456586470225387 1 0 0 I I #
coedge $-1 $280 $183 $186 $294 forward $176 $-1 #
coedge $-1 $183 $280 $285 $358 forward $176 $-1 #
vertex $-1 $184 $362 #
straight-curve $-1 27.470132466951874 -53.28973128549417 10.038815934164944 0 -1 0 I I #
straight-curve $-1 27.470132466951874 -34.585051331053478 5.145658647022529 0 0.80901698891910034 0.5877852598018023 I I #
edge $-1 $188 27.470132466951874 $356 54.025846930796355 $186 $363 forward 7 unknown #
point $-1 27.470132466951874 -34.585051331053471 10.038815934164942 #
point $-1 27.470132466951874 -34.585051331053471 5.1456586470225343 #
edge $-1 $364 1 $364 0 $191 $-1 forward 7 unknown #
vertex $-1 $192 $365 #
ellipse-curve $-1 35.057479456621728 -28.304475865992753 3.5826318654256033 0 -0.5877852598018023 0.80901698891910034 2 0 0 1 I I #
point $-1 37.057479456621728 -31.217624784761426 7.5922372905937303 #
edge $-1 $366 1 $366 0 $195 $-1 forward 7 unknown #
vertex $-1 $196 $367 #
ellipse-curve $-1 46.438499941126501 -28.304475865992753 3.5826318654256033 0 -0.5877852598018023 0.80901698891910034 2 0 0 1 I I #
point $-1 48.438499941126501 -31.217624784761426 7.5922372905937303 #
plane-surface $-1 61.242103335673086 0 0 -1 0 0 0 0 1 forward_v I I I I #
coedge $-1 $204 $202 $206 $310 reversed $121 $-1 #
edge $-1 $217 -10.038815934164942 $312 10.038815934164942 $216 $368 forward 7 unknown #
vertex $-1 $310 $369 #
straight-curve $-1 -61.242103335673086 -34.585051331053471 0 0 0 -1 I I #
edge $-1 $308 -34.585051331053471 $312 34.585051331053471 $306 $370 forward 7 unknown #
straight-curve $-1 0 -34.585051331053471 -10.038815934164942 -1 0 0 I I #
vertex $-1 $209 $371 #
straight-curve $-1 0 34.585051331053471 -10.038815934164942 1 0 0 I I #
point $-1 61.242103335673086 34.585051331053471 -10.038815934164942 #
point $-1 61.242103335673086 -34.585051331053471 -10.038815934164942 #
straight-curve $-1 -61.242103335673086 0 10.038815934164942 0 -1 0 I I #
point $-1 -61.242103335673086 34.585051331053471 10.038815934164942 #
point $-1 -61.242103335673086 -34.585051331053471 10.038815934164942 #
straight-curve $-1 61.242103335673086 -34.585051331053471 0 0 0 -1 I I #
straight-curve $-1 61.242103335673086 34.585051331053471 0 0 0 -1 I I #
plane-surface $-1 0 34.585051331053471 0 0 -1 0 0 0 -1 forward_v I I I I #
coedge $-1 $332 $331 $232 $324 forward $227 $-1 #
straight-curve $-1 -54.025846930796355 -34.585051331053471 0.40216460623593075 0 0 1 I I #
edge $-1 $327 -34.585051331053471 $325 34.585051331053471 $322 $372 forward 7 unknown #
vertex $-1 $233 $373 #
straight-curve $-1 -28.81698756661736 -34.585051331053471 -1.5124078160190555 1 0 0 I I #
vertex $-1 $235 $374 #
straight-curve $-1 -28.81698756661736 34.585051331053471 -1.5124078160190555 -1 0 0 I I #
point $-1 -54.025846930796355 34.585051331053471 -1.5124078160190555 #
point $-1 -54.025846930796355 -34.585051331053471 -1.5124078160190555 #
coedge $-1 $322 $239 $242 $334 forward $227 $-1 #
coedge $-1 $239 $322 $246 $336 reversed $227 $-1 #
straight-curve $-1 -61.242103335673086 0 3.1210662409627785 0 1 0 I I #
edge $-1 $244 -3.1210662409627785 $327 1.5124078160190555 $242 $375 forward 7 unknown #
point $-1 -61.242103335673086 34.585051331053471 3.1210662409627785 #
edge $-1 $247 -3.1210662409627785 $325 1.5124078160190555 $332 $376 forward 7 unknown #
point $-1 -61.242103335673086 -34.585051331053471 3.1210662409627785 #
straight-curve $-1 -54.025846930796355 34.585051331053471 0.40216460623593075 0 0 -1 I I #
plane-surface $-1 61.242103335673086 0 0 -1 0 0 0 0 1 forward_v I I I I #
coedge $-1 $256 $255 $271 $351 reversed $91 $-1 #
edge $-1 $344 -34.585051331053471 $342 34.585051331053471 $255 $377 forward 7 unknown #
vertex $-1 $263 $378 #
straight-curve $-1 54.025846930796355 34.585051331053471 0.40216460623593075 0 0 1 I I #
vertex $-1 $261 $379 #
straight-curve $-1 28.81698756661736 -34.585051331053471 -1.5124078160190555 1 0 0 I I #
straight-curve $-1 28.81698756661736 34.585051331053471 -1.5124078160190555 -1 0 0 I I #
point $-1 61.242103335673086 -34.585051331053471 -1.5124078160190555 #
point $-1 61.242103335673086 34.585051331053471 -1.5124078160190555 #
straight-curve $-1 54.025846930796355 0 3.1210662409627785 0 -1 0 I I #
point $-1 54.025846930796355 34.585051331053471 3.1210662409627785 #
edge $-1 $273 -2.7189016347268478 $344 1.9145724222549863 $271 $380 forward 7 unknown #
point $-1 54.025846930796355 -34.585051331053471 3.1210662409627785 #
straight-curve $-1 61.242103335673086 -34.585051331053471 0 0 0 -1 I I #
straight-curve $-1 61.242103335673086 34.585051331053471 0 0 0 -1 I I #
edge $-1 $356 18.704679954440699 $359 25.439533047024778 $280 $381 forward 7 unknown #
vertex $-1 $355 $382 #
straight-curve $-1 54.025846930796355 -34.585051331053471 52.118731359209896 0 0 1 I I #
edge $-1 $359 -33.651852081359294 $291 -7.0961376175148168 $290 $383 forward 7 unknown #
vertex $-1 $358 $384 #
straight-curve $-1 54.025846930796355 -34.585051331053478 5.145658647022529 0 -0.80901698891910034 -0.5877852598018023 I I #
point $-1 54.025846930796355 -34.585051331053471 5.1456586470225343 #
point $-1 27.470132466951874 -27.850198238469392 10.038815934164942 #
straight-curve $-1 0 -34.585051331053471 10.038815934164942 1 0 0 I I #
vertex $-1 $297 $385 #
point $-1 37.057479456621728 -28.304475865992753 3.5826318654256033 #
vertex $-1 $301 $386 #
point $-1 48.438499941126501 -28.304475865992753 3.5826318654256033 #
straight-curve $-1 -61.242103335673086 34.585051331053471 0 0 0 -1 I I #
point $-1 -61.242103335673086 -34.585051331053471 -10.038815934164942 #
straight-curve $-1 -61.242103335673086 0 -10.038815934164942 0 1 0 I I #
point $-1 -61.242103335673086 34.585051331053471 -10.038815934164942 #
straight-curve $-1 -61.242103335673086 0 -1.5124078160190555 0 -1 0 I I #
point $-1 -61.242103335673086 -34.585051331053471 -1.5124078160190555 #
point $-1 -61.242103335673086 34.585051331053471 -1.5124078160190555 #
straight-curve $-1 -61.242103335673086 34.585051331053471 0 0 0 -1 I I #
straight-curve $-1 -61.242103335673086 -34.585051331053471 0 0 0 -1 I I #
straight-curve $-1 54.025846930796355 0 -1.5124078160190555 0 1 0 I I #
point $-1 54.025846930796355 34.585051331053471 -1.5124078160190555 #
point $-1 54.025846930796355 -34.585051331053471 -1.5124078160190555 #
straight-curve $-1 54.025846930796355 -34.585051331053471 0.40216460623593075 0 0 -1 I I #
straight-curve $-1 54.025846930796355 -53.28973128549417 10.038815934164944 0 1 0 I I #
point $-1 54.025846930796355 -34.585051331053471 10.038815934164942 #
straight-curve $-1 20.373994849437057 -27.850198238469389 10.038815934164944 -1 0 0 I I #
point $-1 54.025846930796355 -27.850198238469392 10.038815934164942 #
point $-1 35.057479456621728 -27.12890534638915 1.9645978875874028 #
point $-1 46.438499941126501 -27.12890534638915 1.9645978875874028 #
End-of-ACIS-data 