500 0 7 0           
7 Unknown 11 ACIS 5.0 NT 24 Thu Mar 25 21:30:51 1999 
-1 9.9999999999999995e-007 1e-010 
body $-1 $7 $-1 $8 #
body $-1 $9 $-1 $10 #
body $-1 $11 $-1 $12 #
body $-1 $13 $-1 $14 #
body $-1 $15 $-1 $16 #
body $-1 $17 $-1 $18 #
body $-1 $19 $-1 $20 #
lump $-1 $-1 $21 $0 #
transform $-1 1 0 0 0 1 0 0 0 1 61.018707846308786 28.634863389443819 10.416371781685097 1 rotate no_reflect no_shear #
lump $-1 $-1 $22 $1 #
transform $-1 1 0 0 0 1 0 0 0 1 61.018707846308786 28.634863389443819 10.416371781685097 1 rotate no_reflect no_shear #
lump $-1 $-1 $23 $2 #
transform $-1 1 0 0 0 1 0 0 0 1 61.018707846308786 28.634863389443819 10.416371781685097 1 rotate no_reflect no_shear #
lump $-1 $-1 $24 $3 #
transform $-1 1 0 0 0 1 0 0 0 1 61.018707846308786 28.634863389443819 10.416371781685097 1 rotate no_reflect no_shear #
lump $-1 $-1 $25 $4 #
transform $-1 1 0 0 0 1 0 0 0 1 61.018707846308786 28.634863389443819 10.416371781685097 1 rotate no_reflect no_shear #
lump $-1 $-1 $26 $5 #
transform $-1 1 0 0 0 1 0 0 0 1 61.018707846308786 28.634863389443819 10.416371781685097 1 rotate no_reflect no_shear #
lump $-1 $-1 $27 $6 #
transform $-1 1 0 0 0 1 0 0 0 1 61.018707846308786 28.634863389443819 10.416371781685097 1 rotate no_reflect no_shear #
shell $-1 $-1 $-1 $28 $-1 $7 #
shell $-1 $-1 $-1 $29 $-1 $9 #
shell $-1 $-1 $-1 $30 $-1 $11 #
shell $-1 $-1 $-1 $31 $-1 $13 #
shell $-1 $-1 $-1 $32 $-1 $15 #
shell $-1 $-1 $-1 $33 $-1 $17 #
shell $-1 $-1 $-1 $34 $-1 $19 #
face $-1 $35 $36 $21 $-1 $37 forward single #
face $-1 $38 $39 $22 $-1 $40 forward single #
face $-1 $41 $42 $23 $-1 $43 reversed single #
face $-1 $44 $45 $24 $-1 $46 forward single #
face $-1 $47 $48 $25 $-1 $49 forward single #
face $-1 $50 $51 $26 $-1 $52 reversed single #
face $-1 $53 $54 $27 $-1 $55 forward single #
face $-1 $56 $57 $21 $-1 $58 reversed single #
loop $-1 $-1 $59 $28 #
plane-surface $-1 0 0 10.416371781685097 0 0 1 1 0 0 forward_v I I I I #
face $-1 $60 $61 $22 $-1 $62 reversed single #
loop $-1 $-1 $63 $29 #
plane-surface $-1 0 -28.634863389443819 0 0 1 0 0 0 1 forward_v I I I I #
face $-1 $64 $65 $23 $-1 $66 reversed single #
loop $-1 $-1 $67 $30 #
plane-surface $-1 -164.51230685138415 -15.722179992718022 71.665361667509941 0 1 0 -0.84804810408105047 0 0.52991925155115449 forward_v I I I I #
face $-1 $68 $69 $24 $-1 $70 forward single #
loop $-1 $71 $72 $31 #
cone-surface $-1 -59.169044947892168 -12.081665008924613 8.2179631053811146 0.84804810408105047 0 -0.52991925155115449 0.26495962577557725 0 0.42402405204052523 1 I I 0 1 0.5 forward I I I I #
face $-1 $73 $74 $25 $-1 $75 forward single #
loop $-1 $76 $77 $32 #
cone-surface $-1 -59.169044947892168 -6.6208925332344997 8.2179631053811146 0.84804810408105047 0 -0.52991925155115449 0.26495962577557725 0 0.42402405204052523 1 I I 0 1 0.5 forward I I I I #
face $-1 $78 $79 $26 $-1 $80 reversed single #
loop $-1 $-1 $81 $33 #
plane-surface $-1 85.038173757855162 -2.3889954876164445 171.88717474426346 0 -1 0 -0.79863551827123203 0 -0.60181501223851219 forward_v I I I I #
face $-1 $82 $83 $27 $-1 $84 forward single #
loop $-1 $85 $86 $34 #
cone-surface $-1 54.750282122950857 -8.0058147774627351 3.6537396485241942 -0.79863551827123203 0 -0.60181501223851219 1.5045375305962805 0 -1.9965887956780801 1 I I 0 1 2.5 forward I I I I #
face $-1 $87 $88 $21 $-1 $89 reversed single #
loop $-1 $-1 $90 $35 #
plane-surface $-1 0 0 -10.416371781685097 0 0 1 1 0 0 forward_v I I I I #
coedge $-1 $91 $92 $93 $94 forward $36 $-1 #
face $-1 $95 $96 $22 $-1 $97 reversed single #
loop $-1 $-1 $98 $38 #
plane-surface $-1 0 0 -10.416371781685097 0 0 1 1 0 0 forward_v I I I I #
coedge $-1 $99 $100 $101 $102 forward $39 $-1 #
face $-1 $103 $104 $23 $-1 $105 reversed single #
loop $-1 $-1 $106 $41 #
plane-surface $-1 -61.018707846308772 -9.35127877107956 6.9953856824409115 -0.84804810408105047 0 0.52991925155115449 0.52991925155115449 0 0.84804810408105047 forward_v I I I I #
coedge $-1 $107 $108 $109 $110 reversed $42 $-1 #
face $-1 $-1 $111 $24 $-1 $112 forward single #
loop $-1 $113 $114 $44 #
cone-surface $-1 -58.176204671250872 -12.081665008924613 7.5975676658114359 0.84804810408105047 0 -0.52991925155115449 0.13247981288778862 0 0.21201202602026262 1 I I -0.70710678118654746 0.70710678118654746 0.25 forward I I I I #
loop $-1 $-1 $115 $31 #
coedge $-1 $72 $72 $116 $117 reversed $45 $-1 #
face $-1 $-1 $118 $25 $-1 $119 forward single #
loop $-1 $120 $121 $47 #
cone-surface $-1 -58.176204671250872 -6.6208925332344997 7.5975676658114359 0.84804810408105047 0 -0.52991925155115449 0.13247981288778862 0 0.21201202602026262 1 I I -0.70710678118654746 0.70710678118654746 0.25 forward I I I I #
loop $-1 $-1 $122 $32 #
coedge $-1 $77 $77 $123 $124 reversed $48 $-1 #
face $-1 $125 $126 $26 $-1 $127 reversed single #
loop $-1 $-1 $128 $50 #
plane-surface $-1 -12.425240972300259 -8.0058147774627351 98.443225925654417 0.79863551827123203 0 0.60181501223851219 0.60181501223851219 0 -0.79863551827123203 forward_v I I I I #
coedge $-1 $129 $130 $131 $132 reversed $51 $-1 #
face $-1 $-1 $133 $27 $-1 $134 forward single #
loop $-1 $135 $136 $53 #
cone-surface $-1 51.0390411250455 -8.0058147774627351 0.85711904315819609 -0.79863551827123203 0 -0.60181501223851219 0.75226876529814024 0 -0.99829439783904006 1 I I -0.70710678118654746 0.70710678118654746 1.25 forward I I I I #
loop $-1 $-1 $137 $34 #
coedge $-1 $86 $86 $138 $139 reversed $54 $-1 #
face $-1 $140 $141 $21 $-1 $142 reversed single #
loop $-1 $-1 $143 $56 #
plane-surface $-1 0 -28.634863389443819 0 0 1 0 0 0 1 forward_v I I I I #
coedge $-1 $144 $145 $146 $147 forward $57 $-1 #
coedge $-1 $148 $59 $149 $150 forward $36 $-1 #
coedge $-1 $59 $148 $151 $152 forward $36 $-1 #
coedge $-1 $153 $154 $59 $94 reversed $155 $-1 #
edge $-1 $156 -28.634863389443819 $157 28.634863389443819 $93 $158 forward 7 unknown #
face $-1 $159 $160 $22 $-1 $161 reversed single #
loop $-1 $-1 $162 $60 #
plane-surface $-1 -43.305725964761137 -41.547546786169612 0 0 1 0 0 0 1 forward_v I I I I #
coedge $-1 $163 $164 $100 $165 forward $61 $-1 #
coedge $-1 $166 $63 $167 $168 reversed $39 $-1 #
coedge $-1 $63 $166 $98 $165 reversed $39 $-1 #
coedge $-1 $169 $170 $63 $102 reversed $160 $-1 #
edge $-1 $171 -10.416371781685097 $172 10.416371781685097 $101 $173 forward 7 unknown #
face $-1 $174 $175 $23 $-1 $176 reversed single #
loop $-1 $-1 $177 $64 #
plane-surface $-1 -164.51230685138415 -2.9803775494410978 71.665361667509941 0 -1 0 0.84804810408105047 0 -0.52991925155115449 forward_v I I I I #
coedge $-1 $178 $179 $180 $181 reversed $65 $-1 #
coedge $-1 $108 $67 $182 $183 reversed $42 $-1 #
coedge $-1 $67 $107 $178 $184 reversed $42 $-1 #
coedge $-1 $180 $185 $67 $110 forward $186 $-1 #
edge $-1 $187 21.237445579383291 $188 23.375114874974493 $109 $189 forward 7 unknown #
loop $-1 $-1 $116 $68 #
plane-surface $-1 -61.018707846308772 -9.35127877107956 6.9953856824409115 -0.84804810408105047 0 0.52991925155115449 0.52991925155115449 0 0.84804810408105047 forward_v I I I I #
loop $-1 $-1 $190 $44 #
coedge $-1 $114 $114 $115 $191 reversed $69 $-1 #
coedge $-1 $115 $115 $114 $191 forward $71 $-1 #
coedge $-1 $116 $116 $72 $117 forward $111 $-1 #
edge $-1 $192 0 $192 6.2831853071796004 $116 $193 forward 7 unknown #
loop $-1 $-1 $123 $73 #
plane-surface $-1 -61.018707846308772 -9.35127877107956 6.9953856824409115 -0.84804810408105047 0 0.52991925155115449 0.52991925155115449 0 0.84804810408105047 forward_v I I I I #
loop $-1 $-1 $194 $47 #
coedge $-1 $121 $121 $122 $195 reversed $74 $-1 #
coedge $-1 $122 $122 $121 $195 forward $76 $-1 #
coedge $-1 $123 $123 $77 $124 forward $118 $-1 #
edge $-1 $196 0 $196 6.2831853071796004 $123 $197 forward 7 unknown #
face $-1 $198 $199 $26 $-1 $200 forward single #
loop $-1 $-1 $201 $78 #
plane-surface $-1 85.038173757855162 -13.622634067309026 171.88717474426346 0 1 0 0.79863551827123203 0 0.60181501223851219 forward_v I I I I #
coedge $-1 $202 $203 $204 $205 reversed $79 $-1 #
coedge $-1 $130 $81 $206 $207 reversed $51 $-1 #
coedge $-1 $81 $129 $202 $208 reversed $51 $-1 #
coedge $-1 $204 $209 $81 $132 forward $199 $-1 #
edge $-1 $210 -18.499620967381205 $211 -11.388662720798024 $131 $212 forward 7 unknown #
loop $-1 $-1 $138 $82 #
plane-surface $-1 -12.425240972300259 -8.0058147774627351 98.443225925654417 0.79863551827123203 0 0.60181501223851219 0.60181501223851219 0 -0.79863551827123203 forward_v I I I I #
loop $-1 $-1 $213 $53 #
coedge $-1 $136 $136 $137 $214 reversed $83 $-1 #
coedge $-1 $137 $137 $136 $214 forward $85 $-1 #
coedge $-1 $138 $138 $86 $139 forward $133 $-1 #
edge $-1 $215 0 $215 6.2831853071796004 $138 $216 forward 7 unknown #
face $-1 $217 $218 $21 $-1 $219 reversed single #
loop $-1 $-1 $220 $87 #
plane-surface $-1 -61.018707846308786 0 0 1 0 0 0 0 -1 forward_v I I I I #
coedge $-1 $221 $151 $222 $223 forward $88 $-1 #
coedge $-1 $224 $90 $221 $225 forward $57 $-1 #
coedge $-1 $90 $224 $226 $227 forward $57 $-1 #
coedge $-1 $154 $153 $90 $147 reversed $155 $-1 #
edge $-1 $228 -28.634863389443819 $229 28.634863389443819 $146 $230 forward 7 unknown #
coedge $-1 $92 $91 $231 $232 forward $36 $-1 #
coedge $-1 $233 $234 $91 $150 reversed $218 $-1 #
edge $-1 $157 -61.018707846308786 $235 61.018707846308786 $149 $236 forward 7 unknown #
coedge $-1 $143 $237 $92 $152 reversed $88 $-1 #
edge $-1 $238 -61.018707846308786 $156 61.018707846308786 $151 $239 forward 7 unknown #
coedge $-1 $146 $93 $237 $240 forward $155 $-1 #
coedge $-1 $93 $146 $233 $241 reversed $155 $-1 #
loop $-1 $-1 $153 $217 #
vertex $-1 $94 $242 #
vertex $-1 $94 $243 #
straight-curve $-1 61.018707846308786 0 10.416371781685097 0 1 0 I I #
face $-1 $244 $245 $22 $-1 $246 reversed single #
loop $-1 $-1 $101 $95 #
plane-surface $-1 -46.425487646583683 -35.091205087806713 0 1 0 0 0 0 -1 forward_v I I I I #
coedge $-1 $247 $248 $249 $250 forward $96 $-1 #
coedge $-1 $251 $98 $252 $253 forward $61 $-1 #
coedge $-1 $98 $251 $169 $254 forward $61 $-1 #
edge $-1 $171 -46.425487646583683 $255 -40.185964282938592 $98 $256 forward 7 unknown #
coedge $-1 $100 $99 $257 $258 forward $39 $-1 #
coedge $-1 $259 $260 $99 $168 forward $261 $-1 #
edge $-1 $262 40.185964282938592 $172 46.425487646583683 $167 $263 forward 7 unknown #
coedge $-1 $249 $101 $164 $254 reversed $160 $-1 #
coedge $-1 $101 $249 $259 $264 reversed $160 $-1 #
vertex $-1 $165 $265 #
vertex $-1 $264 $266 #
straight-curve $-1 -46.425487646583683 -28.634863389443819 0 0 0 1 I I #
face $-1 $-1 $186 $23 $-1 $267 forward single #
loop $-1 $-1 $268 $103 #
plane-surface $-1 -61.018707846308786 0 0 1 0 0 0 0 -1 forward_v I I I I #
coedge $-1 $269 $270 $271 $272 reversed $104 $-1 #
coedge $-1 $273 $106 $108 $184 forward $65 $-1 #
coedge $-1 $106 $273 $269 $274 forward $65 $-1 #
coedge $-1 $271 $109 $106 $181 forward $186 $-1 #
edge $-1 $188 -11.046540607178242 $275 1.6952618360986822 $180 $276 forward 7 unknown #
coedge $-1 $277 $278 $107 $183 forward $175 $-1 #
edge $-1 $279 -28.83729515131408 $187 -25.416309052069874 $182 $280 forward 7 unknown #
edge $-1 $188 -4.0339528887352252 $279 2.7114274142304302e-014 $108 $281 forward 7 unknown #
coedge $-1 $109 $271 $277 $282 forward $186 $-1 #
loop $-1 $-1 $271 $174 #
vertex $-1 $183 $283 #
vertex $-1 $110 $284 #
straight-curve $-1 -82.256153425692077 -15.722179992718022 10.416371781685097 1 0 0 I I #
coedge $-1 $190 $190 $-1 $285 reversed $113 $-1 #
edge $-1 $286 0 $286 6.2831853071796004 $114 $287 forward 7 unknown #
vertex $-1 $117 $288 #
ellipse-curve $-1 -59.949873198513181 -12.081665008924613 8.7058787320629936 -0.84804810408105047 0 0.52991925155115449 0.26495962577557725 0 0.42402405204052523 1 I I #
coedge $-1 $194 $194 $-1 $289 reversed $120 $-1 #
edge $-1 $290 0 $290 6.2831853071796004 $121 $291 forward 7 unknown #
vertex $-1 $124 $292 #
ellipse-curve $-1 -59.949873198513181 -6.6208925332344997 8.7058787320629936 -0.84804810408105047 0 0.52991925155115449 0.26495962577557725 0 0.42402405204052523 1 I I #
face $-1 $-1 $293 $26 $-1 $294 reversed single #
loop $-1 $-1 $131 $125 #
plane-surface $-1 0 0 10.416371781685097 0 0 1 1 0 0 forward_v I I I I #
coedge $-1 $295 $296 $297 $298 reversed $126 $-1 #
coedge $-1 $299 $128 $130 $208 forward $79 $-1 #
coedge $-1 $128 $299 $295 $300 forward $79 $-1 #
coedge $-1 $297 $131 $128 $205 forward $199 $-1 #
edge $-1 $211 -1.613911901114923 $301 9.6197266785776581 $204 $302 forward 7 unknown #
coedge $-1 $303 $304 $129 $207 forward $293 $-1 #
edge $-1 $305 -84.963776176632734 $210 -75.52721559044663 $206 $306 forward 7 unknown #
edge $-1 $211 110.22156181397594 $305 122.03741569261757 $130 $307 forward 7 unknown #
coedge $-1 $131 $297 $303 $308 forward $199 $-1 #
vertex $-1 $132 $309 #
vertex $-1 $132 $310 #
straight-curve $-1 42.519086878927581 -2.3889954876164445 10.4163717816851 -1 0 0 I I #
coedge $-1 $213 $213 $-1 $311 reversed $135 $-1 #
edge $-1 $312 0 $312 6.2831853071796004 $136 $313 forward 7 unknown #
vertex $-1 $139 $314 #
ellipse-curve $-1 57.463228723017181 -8.0058147774627351 5.6980914885920582 0.79863551827123203 0 0.60181501223851219 1.5045375305962805 0 -1.9965887956780801 1 I I #
face $-1 $-1 $155 $21 $-1 $315 reversed single #
loop $-1 $-1 $233 $140 #
plane-surface $-1 0 28.634863389443819 0 0 -1 0 0 0 -1 forward_v I I I I #
coedge $-1 $316 $231 $234 $317 forward $141 $-1 #
coedge $-1 $237 $143 $144 $225 reversed $88 $-1 #
coedge $-1 $231 $316 $143 $223 reversed $141 $-1 #
edge $-1 $238 -10.416371781685097 $318 10.416371781685097 $222 $319 forward 7 unknown #
coedge $-1 $145 $144 $316 $320 forward $57 $-1 #
edge $-1 $229 -61.018707846308786 $318 61.018707846308786 $221 $321 forward 7 unknown #
coedge $-1 $234 $233 $145 $227 reversed $218 $-1 #
edge $-1 $322 -61.018707846308786 $228 61.018707846308786 $226 $323 forward 7 unknown #
vertex $-1 $147 $324 #
vertex $-1 $240 $325 #
straight-curve $-1 61.018707846308786 0 -10.416371781685097 0 -1 0 I I #
coedge $-1 $220 $222 $148 $232 reversed $141 $-1 #
edge $-1 $235 -28.634863389443819 $238 28.634863389443819 $231 $326 forward 7 unknown #
coedge $-1 $226 $149 $154 $241 forward $218 $-1 #
coedge $-1 $149 $226 $220 $317 reversed $218 $-1 #
vertex $-1 $150 $327 #
straight-curve $-1 0 28.634863389443819 10.416371781685097 -1 0 0 I I #
coedge $-1 $151 $221 $153 $240 reversed $88 $-1 #
vertex $-1 $232 $328 #
straight-curve $-1 0 -28.634863389443819 10.416371781685097 1 0 0 I I #
edge $-1 $156 -10.416371781685097 $229 10.416371781685097 $153 $329 forward 7 unknown #
edge $-1 $157 -10.416371781685097 $228 10.416371781685097 $154 $330 forward 7 unknown #
point $-1 61.018707846308786 -28.634863389443819 10.416371781685097 #
point $-1 61.018707846308786 28.634863389443819 10.416371781685097 #
face $-1 $-1 $261 $22 $-1 $331 forward single #
loop $-1 $-1 $332 $159 #
plane-surface $-1 -40.185964282938592 -35.091205087806713 0 -1 0 0 0 0 1 forward_v I I I I #
coedge $-1 $333 $162 $251 $334 reversed $96 $-1 #
coedge $-1 $162 $333 $335 $336 reversed $96 $-1 #
coedge $-1 $170 $169 $162 $250 reversed $160 $-1 #
edge $-1 $337 -10.416371781685097 $338 10.416371781685097 $249 $339 forward 7 unknown #
coedge $-1 $164 $163 $247 $334 forward $61 $-1 #
coedge $-1 $257 $332 $163 $253 reversed $245 $-1 #
edge $-1 $255 -6.4563416983628983 $340 6.4563416983628983 $252 $341 forward 7 unknown #
edge $-1 $338 -6.4563416983628983 $171 6.4563416983628983 $169 $342 forward 7 unknown #
vertex $-1 $253 $343 #
straight-curve $-1 0 -28.634863389443819 -10.416371781685097 1 0 0 I I #
coedge $-1 $344 $252 $166 $258 reversed $245 $-1 #
edge $-1 $262 -10.416371781685097 $255 10.416371781685097 $257 $345 forward 7 unknown #
coedge $-1 $335 $167 $170 $264 forward $261 $-1 #
coedge $-1 $167 $335 $344 $346 forward $261 $-1 #
loop $-1 $-1 $167 $244 #
vertex $-1 $168 $347 #
straight-curve $-1 0 -28.634863389443819 10.416371781685097 -1 0 0 I I #
edge $-1 $172 -6.4563416983628983 $337 6.4563416983628983 $170 $348 forward 7 unknown #
point $-1 -46.425487646583683 -28.634863389443815 -10.416371781685097 #
point $-1 -46.425487646583683 -28.634863389443815 10.416371781685097 #
plane-surface $-1 0 0 10.416371781685097 0 0 1 1 0 0 forward_v I I I I #
coedge $-1 $278 $277 $270 $349 forward $175 $-1 #
coedge $-1 $270 $177 $179 $274 reversed $104 $-1 #
coedge $-1 $177 $269 $268 $349 reversed $104 $-1 #
coedge $-1 $185 $180 $177 $272 forward $186 $-1 #
edge $-1 $275 -23.375114874974493 $350 -21.237445579383291 $271 $351 forward 7 unknown #
coedge $-1 $179 $178 $278 $352 reversed $65 $-1 #
edge $-1 $353 -2.7114274142304302e-014 $275 4.0339528887352252 $269 $354 forward 7 unknown #
vertex $-1 $181 $355 #
straight-curve $-1 -58.881038550717577 -4.67563938553978 10.416371781685097 0 1 0 I I #
coedge $-1 $268 $182 $185 $282 reversed $175 $-1 #
coedge $-1 $182 $268 $273 $352 forward $175 $-1 #
vertex $-1 $183 $356 #
straight-curve $-1 -61.018707846308786 -15.722179992718022 35.832680833754971 0 0 1 I I #
straight-curve $-1 -61.018707846308772 -15.722179992718022 6.9953856824409115 -0.52991925155115449 0 -0.84804810408105047 I I #
edge $-1 $350 2.9803775494410978 $187 15.722179992718022 $277 $357 forward 7 unknown #
point $-1 -61.018707846308786 -15.722179992718022 10.416371781685097 #
point $-1 -58.881038550717584 -15.722179992718022 10.416371781685097 #
edge $-1 $358 1 $358 0 $190 $-1 forward 7 unknown #
vertex $-1 $191 $359 #
ellipse-curve $-1 -58.388216697271133 -12.081665008924613 7.7300474786992242 -0.84804810408105047 0 0.52991925155115449 0.26495962577557725 0 0.42402405204052523 1 I I #
point $-1 -59.684913572737621 -12.081665008924613 9.1299027841035283 #
edge $-1 $360 1 $360 0 $194 $-1 forward 7 unknown #
vertex $-1 $195 $361 #
ellipse-curve $-1 -58.388216697271133 -6.6208925332344997 7.7300474786992242 -0.84804810408105047 0 0.52991925155115449 0.26495962577557725 0 0.42402405204052523 1 I I #
point $-1 -59.684913572737621 -6.6208925332344997 9.1299027841035283 #
loop $-1 $-1 $206 $198 #
plane-surface $-1 61.018707846308786 0 0 -1 0 0 0 0 1 forward_v I I I I #
coedge $-1 $296 $201 $203 $300 reversed $126 $-1 #
coedge $-1 $201 $295 $362 $363 reversed $126 $-1 #
coedge $-1 $209 $204 $201 $298 forward $199 $-1 #
edge $-1 $301 11.388662720798024 $364 18.499620967381205 $297 $365 forward 7 unknown #
coedge $-1 $203 $202 $304 $366 reversed $79 $-1 #
edge $-1 $367 -122.03741569261757 $301 -110.22156181397594 $295 $368 forward 7 unknown #
vertex $-1 $205 $369 #
straight-curve $-1 53.907749599725605 -4.0029073887313675 10.4163717816851 0 -1 0 I I #
coedge $-1 $362 $206 $209 $308 reversed $293 $-1 #
coedge $-1 $206 $362 $299 $366 forward $293 $-1 #
vertex $-1 $207 $370 #
straight-curve $-1 61.018707846308786 -2.3889954876164445 85.943587372131731 0 0 1 I I #
straight-curve $-1 -12.425240972300259 -2.3889954876164445 98.443225925654417 0.60181501223851219 0 -0.79863551827123203 I I #
edge $-1 $364 -13.622634067309026 $210 -2.3889954876164445 $303 $371 forward 7 unknown #
point $-1 61.018707846308786 -2.3889954876164445 10.416371781685097 #
point $-1 53.907749599725605 -2.3889954876164445 10.4163717816851 #
edge $-1 $372 1 $372 0 $213 $-1 forward 7 unknown #
vertex $-1 $214 $373 #
ellipse-curve $-1 52.03733552288454 -8.0058147774627351 1.6093878084563364 0.79863551827123203 0 0.60181501223851219 1.5045375305962805 0 -1.9965887956780801 1 I I #
point $-1 58.967766253613455 -8.0058147774627351 3.701502692913972 #
plane-surface $-1 61.018707846308786 0 0 -1 0 0 0 0 1 forward_v I I I I #
coedge $-1 $222 $220 $224 $320 reversed $141 $-1 #
edge $-1 $235 -10.416371781685097 $322 10.416371781685097 $234 $374 forward 7 unknown #
vertex $-1 $320 $375 #
straight-curve $-1 -61.018707846308786 -28.634863389443819 0 0 0 -1 I I #
edge $-1 $318 -28.634863389443819 $322 28.634863389443819 $316 $376 forward 7 unknown #
straight-curve $-1 0 -28.634863389443819 -10.416371781685097 -1 0 0 I I #
vertex $-1 $227 $377 #
straight-curve $-1 0 28.634863389443819 -10.416371781685097 1 0 0 I I #
point $-1 61.018707846308786 28.634863389443819 -10.416371781685097 #
point $-1 61.018707846308786 -28.634863389443819 -10.416371781685097 #
straight-curve $-1 -61.018707846308786 0 10.416371781685097 0 -1 0 I I #
point $-1 -61.018707846308786 28.634863389443819 10.416371781685097 #
point $-1 -61.018707846308786 -28.634863389443819 10.416371781685097 #
straight-curve $-1 61.018707846308786 -28.634863389443819 0 0 0 -1 I I #
straight-curve $-1 61.018707846308786 28.634863389443819 0 0 0 -1 I I #
plane-surface $-1 0 0 10.416371781685097 0 0 1 1 0 0 forward_v I I I I #
coedge $-1 $252 $344 $333 $378 forward $245 $-1 #
coedge $-1 $248 $247 $332 $378 reversed $96 $-1 #
edge $-1 $340 -3.1197616818225455 $338 3.1197616818225455 $247 $379 forward 7 unknown #
coedge $-1 $260 $259 $248 $336 forward $261 $-1 #
edge $-1 $337 -3.1197616818225455 $380 3.1197616818225455 $248 $381 forward 7 unknown #
vertex $-1 $264 $382 #
vertex $-1 $254 $383 #
straight-curve $-1 -46.425487646583683 -41.547546786169612 0 0 0 -1 I I #
vertex $-1 $378 $384 #
straight-curve $-1 -40.185964282938592 -35.091205087806713 -10.416371781685097 0 -1 0 I I #
straight-curve $-1 -46.425487646583683 -35.091205087806713 -10.416371781685097 0 1 0 I I #
point $-1 -40.185964282938592 -28.634863389443815 -10.416371781685097 #
coedge $-1 $332 $257 $260 $346 reversed $245 $-1 #
straight-curve $-1 -40.185964282938592 -28.634863389443819 0 0 0 -1 I I #
edge $-1 $380 -6.4563416983628983 $262 6.4563416983628983 $344 $385 forward 7 unknown #
point $-1 -40.185964282938592 -28.634863389443815 10.416371781685097 #
straight-curve $-1 -46.425487646583683 -35.091205087806713 10.416371781685097 0 -1 0 I I #
edge $-1 $350 25.416309052069874 $353 28.83729515131408 $268 $386 forward 7 unknown #
vertex $-1 $282 $387 #
straight-curve $-1 -82.256153425692077 -2.9803775494410978 10.416371781685097 -1 0 0 I I #
edge $-1 $353 -1.6952618360986822 $279 11.046540607178242 $278 $388 forward 7 unknown #
vertex $-1 $352 $389 #
straight-curve $-1 -61.018707846308772 -2.9803775494410978 6.9953856824409115 0.52991925155115449 0 0.84804810408105047 I I #
point $-1 -58.881038550717584 -2.9803775494410978 10.416371781685097 #
point $-1 -61.018707846308786 -15.722179992718022 6.9953856824408884 #
straight-curve $-1 -61.018707846308786 0 10.416371781685097 0 -1 0 I I #
vertex $-1 $285 $390 #
point $-1 -58.123257071495559 -12.081665008924613 8.1540715307397491 #
vertex $-1 $289 $391 #
point $-1 -58.123257071495559 -6.6208925332344997 8.1540715307397491 #
coedge $-1 $304 $303 $296 $363 forward $293 $-1 #
edge $-1 $364 75.52721559044663 $367 84.963776176632734 $362 $392 forward 7 unknown #
vertex $-1 $308 $393 #
straight-curve $-1 42.519086878927581 -13.622634067309026 10.4163717816851 1 0 0 I I #
edge $-1 $367 -9.6197266785776581 $305 1.613911901114923 $304 $394 forward 7 unknown #
vertex $-1 $366 $395 #
straight-curve $-1 -12.425240972300259 -13.622634067309026 98.443225925654417 -0.60181501223851219 0 0.79863551827123203 I I #
point $-1 53.907749599725605 -13.622634067309026 10.4163717816851 #
point $-1 61.018707846308786 -2.3889954876164445 0.97981119549899631 #
straight-curve $-1 61.018707846308786 0 10.416371781685097 0 1 0 I I #
vertex $-1 $311 $396 #
point $-1 53.54187305348082 -8.0058147774627351 -0.3872009872217439 #
straight-curve $-1 -61.018707846308786 28.634863389443819 0 0 0 -1 I I #
point $-1 -61.018707846308786 -28.634863389443819 -10.416371781685097 #
straight-curve $-1 -61.018707846308786 0 -10.416371781685097 0 1 0 I I #
point $-1 -61.018707846308786 28.634863389443819 -10.416371781685097 #
edge $-1 $380 -10.416371781685097 $340 10.416371781685097 $332 $397 forward 7 unknown #
straight-curve $-1 -43.305725964761137 -41.547546786169612 -10.416371781685097 -1 0 0 I I #
vertex $-1 $346 $398 #
straight-curve $-1 -43.305725964761137 -41.547546786169612 10.416371781685097 1 0 0 I I #
point $-1 -46.425487646583683 -41.547546786169612 10.416371781685097 #
point $-1 -46.425487646583683 -41.547546786169612 -10.416371781685097 #
point $-1 -40.185964282938592 -41.547546786169612 -10.416371781685097 #
straight-curve $-1 -40.185964282938592 -35.091205087806713 10.416371781685097 0 1 0 I I #
straight-curve $-1 -61.018707846308786 -2.9803775494410978 35.832680833754971 0 0 -1 I I #
point $-1 -61.018707846308786 -2.9803775494410978 10.416371781685097 #
straight-curve $-1 -61.018707846308786 -4.67563938553978 6.9953856824408867 0 -1 0 I I #
point $-1 -61.018707846308786 -2.9803775494410978 6.9953856824408884 #
point $-1 -57.964192645230611 -12.081665008924613 7.4650878529236477 #
point $-1 -57.964192645230611 -6.6208925332344997 7.4650878529236477 #
straight-curve $-1 61.018707846308786 -13.622634067309026 85.943587372131731 0 0 -1 I I #
point $-1 61.018707846308786 -13.622634067309026 10.416371781685097 #
straight-curve $-1 61.018707846308786 -4.0029073887313675 0.97981119549900342 0 1 0 I I #
point $-1 61.018707846308786 -13.622634067309026 0.97981119549899631 #
point $-1 50.040746727206461 -8.0058147774627351 0.10485027786005585 #
straight-curve $-1 -40.185964282938592 -41.547546786169612 0 0 0 -1 I I #
point $-1 -40.185964282938592 -41.547546786169612 10.416371781685097 #
End-of-ACIS-data 