500 0 10 0           
7 Unknown 11 ACIS 5.0 NT 24 Thu Mar 25 15:35:43 1999 
-1 9.9999999999999995e-007 1e-010 
body $-1 $10 $-1 $11 #
body $-1 $12 $-1 $13 #
body $-1 $14 $-1 $15 #
body $-1 $16 $-1 $17 #
body $-1 $18 $-1 $19 #
body $-1 $20 $-1 $21 #
body $-1 $22 $-1 $23 #
body $-1 $24 $-1 $25 #
body $-1 $26 $-1 $27 #
body $-1 $28 $-1 $29 #
lump $-1 $-1 $30 $0 #
transform $-1 1 0 0 0 1 0 0 0 1 78.980681783501694 51.242112919567326 25.2959355980637 1 rotate no_reflect no_shear #
lump $-1 $-1 $31 $1 #
transform $-1 1 0 0 0 1 0 0 0 1 78.980681783501694 51.242112919567326 25.2959355980637 1 rotate no_reflect no_shear #
lump $-1 $-1 $32 $2 #
transform $-1 1 0 0 0 1 0 0 0 1 78.980681783501694 51.242112919567326 25.2959355980637 1 rotate no_reflect no_shear #
lump $-1 $-1 $33 $3 #
transform $-1 1 0 0 0 1 0 0 0 1 78.980681783501694 51.242112919567326 25.2959355980637 1 rotate no_reflect no_shear #
lump $-1 $-1 $34 $4 #
transform $-1 1 0 0 0 1 0 0 0 1 78.980681783501694 51.242112919567326 25.2959355980637 1 rotate no_reflect no_shear #
lump $-1 $-1 $35 $5 #
transform $-1 1 0 0 0 1 0 0 0 1 78.980681783501694 51.242112919567326 25.2959355980637 1 rotate no_reflect no_shear #
lump $-1 $-1 $36 $6 #
transform $-1 1 0 0 0 1 0 0 0 1 78.980681783501694 51.242112919567326 25.2959355980637 1 rotate no_reflect no_shear #
lump $-1 $-1 $37 $7 #
transform $-1 1 0 0 0 1 0 0 0 1 78.980681783501694 51.242112919567326 25.2959355980637 1 rotate no_reflect no_shear #
lump $-1 $-1 $38 $8 #
transform $-1 1 0 0 0 1 0 0 0 1 78.980681783501694 51.242112919567326 25.2959355980637 1 rotate no_reflect no_shear #
lump $-1 $-1 $39 $9 #
transform $-1 1 0 0 0 1 0 0 0 1 78.980681783501694 51.242112919567326 25.2959355980637 1 rotate no_reflect no_shear #
shell $-1 $-1 $-1 $40 $-1 $10 #
shell $-1 $-1 $-1 $41 $-1 $12 #
shell $-1 $-1 $-1 $42 $-1 $14 #
shell $-1 $-1 $-1 $43 $-1 $16 #
shell $-1 $-1 $-1 $44 $-1 $18 #
shell $-1 $-1 $-1 $45 $-1 $20 #
shell $-1 $-1 $-1 $46 $-1 $22 #
shell $-1 $-1 $-1 $47 $-1 $24 #
shell $-1 $-1 $-1 $48 $-1 $26 #
shell $-1 $-1 $-1 $49 $-1 $28 #
face $-1 $50 $51 $30 $-1 $52 forward single #
face $-1 $53 $54 $31 $-1 $55 forward single #
face $-1 $56 $57 $32 $-1 $58 reversed single #
face $-1 $59 $60 $33 $-1 $61 forward single #
face $-1 $62 $63 $34 $-1 $64 forward single #
face $-1 $65 $66 $35 $-1 $67 forward single #
face $-1 $68 $69 $36 $-1 $70 reversed single #
face $-1 $71 $72 $37 $-1 $73 forward single #
face $-1 $74 $75 $38 $-1 $76 forward single #
face $-1 $77 $78 $39 $-1 $79 forward single #
face $-1 $80 $81 $30 $-1 $82 reversed single #
loop $-1 $-1 $83 $40 #
plane-surface $-1 0 0 25.2959355980637 0 0 1 1 0 0 forward_v I I I I #
face $-1 $84 $85 $31 $-1 $86 reversed single #
loop $-1 $-1 $87 $41 #
plane-surface $-1 -65.124133825870132 0 19.456782644830781 0 0 1 1 0 0 forward_v I I I I #
face $-1 $88 $89 $32 $-1 $90 reversed single #
loop $-1 $-1 $91 $42 #
plane-surface $-1 8.2158894003352216 80.778275792826491 205.04096226210976 1 0 0 0 -0.66913061440640931 -0.74314481823134659 forward_v I I I I #
face $-1 $92 $93 $33 $-1 $94 forward single #
loop $-1 $95 $96 $43 #
cone-surface $-1 13.963953303667097 46.627170751098262 20.896406111438793 0 -0.66913061440640931 -0.74314481823134659 1.5 0 0 1 I I 0 1 1.5 forward I I I I #
face $-1 $97 $98 $34 $-1 $99 forward single #
loop $-1 $100 $101 $44 #
cone-surface $-1 22.586049158664906 46.627170751098262 20.896406111438793 0 -0.66913061440640931 -0.74314481823134659 1.5 0 0 1 I I 0 1 1.5 forward I I I I #
face $-1 $102 $103 $35 $-1 $104 forward single #
loop $-1 $105 $106 $45 #
cone-surface $-1 31.208145013662715 46.627170751098262 20.896406111438793 0 -0.66913061440640931 -0.74314481823134659 1.5 0 0 1 I I 0 1 1.5 forward I I I I #
face $-1 $107 $108 $36 $-1 $109 reversed single #
loop $-1 $-1 $110 $46 #
plane-surface $-1 36.956208916994591 -156.93889717563047 136.46562925940441 -1 0 0 0 -0.66913061440640931 0.74314481823134659 forward_v I I I I #
face $-1 $111 $112 $37 $-1 $113 forward single #
loop $-1 $114 $115 $47 #
cone-surface $-1 13.963953303667097 -46.627170751098262 20.896406111438793 0 0.66913061440640931 -0.74314481823134659 1.5 0 0 1 I I 0 1 1.5 forward I I I I #
face $-1 $116 $117 $38 $-1 $118 forward single #
loop $-1 $119 $120 $48 #
cone-surface $-1 22.586049158664906 -46.627170751098262 20.896406111438793 0 0.66913061440640931 -0.74314481823134659 1.5 0 0 1 I I 0 1 1.5 forward I I I I #
face $-1 $121 $122 $39 $-1 $123 forward single #
loop $-1 $124 $125 $49 #
cone-surface $-1 31.208145013662715 -46.627170751098262 20.896406111438793 0 0.66913061440640931 -0.74314481823134659 1.5 0 0 1 I I 0 1 1.5 forward I I I I #
face $-1 $126 $127 $30 $-1 $128 reversed single #
loop $-1 $-1 $129 $50 #
plane-surface $-1 0 0 -25.2959355980637 0 0 1 1 0 0 forward_v I I I I #
coedge $-1 $130 $131 $132 $133 forward $51 $-1 #
face $-1 $134 $135 $31 $-1 $136 reversed single #
loop $-1 $-1 $137 $53 #
plane-surface $-1 -65.124133825870132 0 6.0961869533897186 0 0 1 1 0 0 forward_v I I I I #
coedge $-1 $138 $139 $140 $141 forward $54 $-1 #
face $-1 $142 $143 $32 $-1 $144 reversed single #
loop $-1 $-1 $145 $56 #
plane-surface $-1 22.586049158664906 -24.918508463236691 87.652793446533366 0 0.66913061440640931 0.74314481823134659 1 0 0 forward_v I I I I #
coedge $-1 $146 $147 $148 $149 reversed $57 $-1 #
face $-1 $-1 $150 $33 $-1 $151 forward single #
loop $-1 $152 $153 $59 #
cone-surface $-1 13.963953303667097 44.963538711347887 19.048755588258224 0 -0.66913061440640931 -0.74314481823134659 0.75 0 0 1 I I -0.70710678118654757 0.70710678118654757 0.75 forward I I I I #
loop $-1 $-1 $154 $43 #
coedge $-1 $96 $96 $155 $156 reversed $60 $-1 #
face $-1 $-1 $157 $34 $-1 $158 forward single #
loop $-1 $159 $160 $62 #
cone-surface $-1 22.586049158664906 44.963538711347887 19.048755588258224 0 -0.66913061440640931 -0.74314481823134659 0.75 0 0 1 I I -0.70710678118654757 0.70710678118654757 0.75 forward I I I I #
loop $-1 $-1 $161 $44 #
coedge $-1 $101 $101 $162 $163 reversed $63 $-1 #
face $-1 $-1 $164 $35 $-1 $165 forward single #
loop $-1 $166 $167 $65 #
cone-surface $-1 31.208145013662715 44.963538711347887 19.048755588258224 0 -0.66913061440640931 -0.74314481823134659 0.75 0 0 1 I I -0.70710678118654757 0.70710678118654757 0.75 forward I I I I #
loop $-1 $-1 $168 $45 #
coedge $-1 $106 $106 $169 $170 reversed $66 $-1 #
face $-1 $171 $172 $36 $-1 $173 reversed single #
loop $-1 $-1 $174 $68 #
plane-surface $-1 22.586049158664906 -51.24211291956729 19.077460443828016 0 -0.66913061440640931 0.74314481823134659 1 0 0 forward_v I I I I #
coedge $-1 $175 $176 $177 $178 reversed $69 $-1 #
face $-1 $-1 $179 $37 $-1 $180 forward single #
loop $-1 $181 $182 $71 #
cone-surface $-1 13.963953303667097 -44.963538711347887 19.048755588258224 0 0.66913061440640931 -0.74314481823134659 0.75 0 0 1 I I -0.70710678118654757 0.70710678118654757 0.75 forward I I I I #
loop $-1 $-1 $183 $47 #
coedge $-1 $115 $115 $184 $185 reversed $72 $-1 #
face $-1 $-1 $186 $38 $-1 $187 forward single #
loop $-1 $188 $189 $74 #
cone-surface $-1 22.586049158664906 -44.963538711347887 19.048755588258224 0 0.66913061440640931 -0.74314481823134659 0.75 0 0 1 I I -0.70710678118654757 0.70710678118654757 0.75 forward I I I I #
loop $-1 $-1 $190 $48 #
coedge $-1 $120 $120 $191 $192 reversed $75 $-1 #
face $-1 $-1 $193 $39 $-1 $194 forward single #
loop $-1 $195 $196 $77 #
cone-surface $-1 31.208145013662715 -44.963538711347887 19.048755588258224 0 0.66913061440640931 -0.74314481823134659 0.75 0 0 1 I I -0.70710678118654757 0.70710678118654757 0.75 forward I I I I #
loop $-1 $-1 $197 $49 #
coedge $-1 $125 $125 $198 $199 reversed $78 $-1 #
face $-1 $200 $201 $30 $-1 $202 reversed single #
loop $-1 $-1 $203 $80 #
plane-surface $-1 0 -51.242112919567326 0 0 1 0 0 0 1 forward_v I I I I #
coedge $-1 $204 $205 $206 $207 forward $81 $-1 #
coedge $-1 $208 $83 $209 $210 forward $51 $-1 #
coedge $-1 $83 $208 $211 $212 forward $51 $-1 #
coedge $-1 $213 $214 $83 $133 reversed $215 $-1 #
edge $-1 $216 -51.242112919567326 $217 51.242112919567326 $132 $218 forward 7 unknown #
face $-1 $219 $220 $31 $-1 $221 reversed single #
loop $-1 $-1 $222 $84 #
plane-surface $-1 -51.267585868238569 0 12.77648479911025 -1 0 0 0 0 1 forward_v I I I I #
coedge $-1 $223 $224 $225 $226 forward $85 $-1 #
coedge $-1 $227 $87 $228 $229 reversed $54 $-1 #
coedge $-1 $87 $227 $230 $231 reversed $54 $-1 #
coedge $-1 $222 $232 $87 $141 reversed $135 $-1 #
edge $-1 $233 -51.242112919567326 $234 51.242112919567326 $140 $235 forward 7 unknown #
face $-1 $236 $237 $32 $-1 $238 forward single #
loop $-1 $-1 $239 $88 #
plane-surface $-1 36.956208916994591 80.778275792826491 205.04096226210976 -1 0 0 0 0.66913061440640931 0.74314481823134659 forward_v I I I I #
coedge $-1 $240 $241 $242 $243 reversed $89 $-1 #
coedge $-1 $147 $91 $244 $245 reversed $57 $-1 #
coedge $-1 $91 $146 $240 $246 reversed $57 $-1 #
coedge $-1 $242 $247 $91 $149 forward $237 $-1 #
edge $-1 $248 -10.85297502315408 $249 -3.9466588441070627 $148 $250 forward 7 unknown #
loop $-1 $-1 $155 $92 #
plane-surface $-1 22.586049158664906 -24.918508463236691 87.652793446533366 0 0.66913061440640931 0.74314481823134659 1 0 0 forward_v I I I I #
loop $-1 $-1 $251 $59 #
coedge $-1 $153 $153 $154 $252 reversed $93 $-1 #
coedge $-1 $154 $154 $153 $252 forward $95 $-1 #
coedge $-1 $155 $155 $96 $156 forward $150 $-1 #
edge $-1 $253 4.221444413025311e-015 $253 6.2831853071796049 $155 $254 forward 7 unknown #
loop $-1 $-1 $162 $97 #
plane-surface $-1 22.586049158664906 -24.918508463236691 87.652793446533366 0 0.66913061440640931 0.74314481823134659 1 0 0 forward_v I I I I #
loop $-1 $-1 $255 $62 #
coedge $-1 $160 $160 $161 $256 reversed $98 $-1 #
coedge $-1 $161 $161 $160 $256 forward $100 $-1 #
coedge $-1 $162 $162 $101 $163 forward $157 $-1 #
edge $-1 $257 4.221444413025311e-015 $257 6.2831853071796049 $162 $258 forward 7 unknown #
loop $-1 $-1 $169 $102 #
plane-surface $-1 22.586049158664906 -24.918508463236691 87.652793446533366 0 0.66913061440640931 0.74314481823134659 1 0 0 forward_v I I I I #
loop $-1 $-1 $259 $65 #
coedge $-1 $167 $167 $168 $260 reversed $103 $-1 #
coedge $-1 $168 $168 $167 $260 forward $105 $-1 #
coedge $-1 $169 $169 $106 $170 forward $164 $-1 #
edge $-1 $261 4.221444413025311e-015 $261 6.2831853071796049 $169 $262 forward 7 unknown #
face $-1 $263 $264 $36 $-1 $265 reversed single #
loop $-1 $-1 $266 $107 #
plane-surface $-1 8.2158894003352216 -156.93889717563047 136.46562925940441 1 0 0 0 0.66913061440640931 -0.74314481823134659 forward_v I I I I #
coedge $-1 $267 $268 $269 $270 reversed $108 $-1 #
coedge $-1 $176 $110 $271 $272 reversed $69 $-1 #
coedge $-1 $110 $175 $267 $273 reversed $69 $-1 #
coedge $-1 $269 $274 $110 $178 forward $275 $-1 #
edge $-1 $276 27.22733566824791 $277 34.133651847294914 $177 $278 forward 7 unknown #
loop $-1 $-1 $184 $111 #
plane-surface $-1 22.586049158664906 -51.24211291956729 19.077460443828016 0 -0.66913061440640931 0.74314481823134659 1 0 0 forward_v I I I I #
loop $-1 $-1 $279 $71 #
coedge $-1 $182 $182 $183 $280 reversed $112 $-1 #
coedge $-1 $183 $183 $182 $280 forward $114 $-1 #
coedge $-1 $184 $184 $115 $185 forward $179 $-1 #
edge $-1 $281 -3.870842713886133e-015 $281 6.2831853071795969 $184 $282 forward 7 unknown #
loop $-1 $-1 $191 $116 #
plane-surface $-1 22.586049158664906 -51.24211291956729 19.077460443828016 0 -0.66913061440640931 0.74314481823134659 1 0 0 forward_v I I I I #
loop $-1 $-1 $283 $74 #
coedge $-1 $189 $189 $190 $284 reversed $117 $-1 #
coedge $-1 $190 $190 $189 $284 forward $119 $-1 #
coedge $-1 $191 $191 $120 $192 forward $186 $-1 #
edge $-1 $285 -3.870842713886133e-015 $285 6.2831853071795969 $191 $286 forward 7 unknown #
loop $-1 $-1 $198 $121 #
plane-surface $-1 22.586049158664906 -51.24211291956729 19.077460443828016 0 -0.66913061440640931 0.74314481823134659 1 0 0 forward_v I I I I #
loop $-1 $-1 $287 $77 #
coedge $-1 $196 $196 $197 $288 reversed $122 $-1 #
coedge $-1 $197 $197 $196 $288 forward $124 $-1 #
coedge $-1 $198 $198 $125 $199 forward $193 $-1 #
edge $-1 $289 -3.870842713886133e-015 $289 6.2831853071795969 $198 $290 forward 7 unknown #
face $-1 $291 $292 $30 $-1 $293 reversed single #
loop $-1 $-1 $294 $126 #
plane-surface $-1 -78.980681783501694 0 0 1 0 0 0 0 -1 forward_v I I I I #
coedge $-1 $295 $211 $296 $297 forward $127 $-1 #
coedge $-1 $298 $129 $295 $299 forward $81 $-1 #
coedge $-1 $129 $298 $300 $301 forward $81 $-1 #
coedge $-1 $214 $213 $129 $207 reversed $215 $-1 #
edge $-1 $302 -51.242112919567326 $303 51.242112919567326 $206 $304 forward 7 unknown #
coedge $-1 $131 $130 $305 $306 forward $51 $-1 #
coedge $-1 $307 $308 $130 $210 reversed $292 $-1 #
edge $-1 $217 -78.980681783501694 $309 78.980681783501694 $209 $310 forward 7 unknown #
coedge $-1 $203 $311 $131 $212 reversed $127 $-1 #
edge $-1 $312 -78.980681783501694 $216 78.980681783501694 $211 $313 forward 7 unknown #
coedge $-1 $206 $132 $311 $314 forward $215 $-1 #
coedge $-1 $132 $206 $307 $315 reversed $215 $-1 #
loop $-1 $-1 $213 $291 #
vertex $-1 $133 $316 #
vertex $-1 $133 $317 #
straight-curve $-1 78.980681783501694 0 25.2959355980637 0 1 0 I I #
face $-1 $318 $319 $31 $-1 $320 reversed single #
loop $-1 $-1 $321 $134 #
plane-surface $-1 0 -51.242112919567326 0 0 1 0 0 0 1 forward_v I I I I #
coedge $-1 $225 $140 $322 $323 reversed $135 $-1 #
coedge $-1 $324 $137 $321 $325 reversed $85 $-1 #
coedge $-1 $137 $324 $326 $327 reversed $85 $-1 #
coedge $-1 $232 $222 $137 $226 reversed $135 $-1 #
edge $-1 $328 -51.242112919567326 $329 51.242112919567326 $225 $330 forward 7 unknown #
coedge $-1 $139 $138 $331 $332 reversed $54 $-1 #
coedge $-1 $333 $334 $138 $229 forward $335 $-1 #
edge $-1 $336 -46.418614870566628 $234 -18.705518955303504 $228 $337 forward 7 unknown #
coedge $-1 $338 $322 $139 $231 forward $220 $-1 #
edge $-1 $233 18.705518955303504 $339 46.418614870566628 $230 $340 forward 7 unknown #
coedge $-1 $140 $225 $333 $341 reversed $135 $-1 #
vertex $-1 $231 $342 #
vertex $-1 $229 $343 #
straight-curve $-1 -51.267585868238569 0 19.456782644830781 0 1 0 I I #
face $-1 $-1 $344 $32 $-1 $345 reversed single #
loop $-1 $-1 $148 $142 #
plane-surface $-1 0 0 25.2959355980637 0 0 1 1 0 0 forward_v I I I I #
coedge $-1 $346 $347 $348 $349 reversed $143 $-1 #
coedge $-1 $350 $145 $147 $246 forward $89 $-1 #
coedge $-1 $145 $350 $346 $351 forward $89 $-1 #
coedge $-1 $348 $148 $145 $243 forward $237 $-1 #
edge $-1 $249 -3.0771351789972314 $352 25.663184337662138 $242 $353 forward 7 unknown #
coedge $-1 $354 $355 $146 $245 forward $344 $-1 #
edge $-1 $356 -83.443020687226905 $248 -77.224545532991186 $244 $357 forward 7 unknown #
edge $-1 $249 93.19086065698383 $356 102.48422583913467 $147 $358 forward 7 unknown #
coedge $-1 $148 $348 $354 $359 forward $237 $-1 #
vertex $-1 $245 $360 #
vertex $-1 $149 $361 #
straight-curve $-1 8.2158894003352216 40.389137896413246 25.295935598063693 0 -1 0 I I #
coedge $-1 $251 $251 $-1 $362 reversed $152 $-1 #
edge $-1 $363 0 $363 6.2831853071796004 $153 $364 forward 7 unknown #
vertex $-1 $156 $365 #
ellipse-curve $-1 13.963953303667097 47.788954830043814 22.186698020945837 0 0.66913061440640931 0.74314481823134659 1.5 0 0 1 I I #
coedge $-1 $255 $255 $-1 $366 reversed $159 $-1 #
edge $-1 $367 0 $367 6.2831853071796004 $160 $368 forward 7 unknown #
vertex $-1 $163 $369 #
ellipse-curve $-1 22.586049158664906 47.788954830043814 22.186698020945837 0 0.66913061440640931 0.74314481823134659 1.5 0 0 1 I I #
coedge $-1 $259 $259 $-1 $370 reversed $166 $-1 #
edge $-1 $371 0 $371 6.2831853071796004 $167 $372 forward 7 unknown #
vertex $-1 $170 $373 #
ellipse-curve $-1 31.208145013662715 47.788954830043814 22.186698020945837 0 0.66913061440640931 0.74314481823134659 1.5 0 0 1 I I #
face $-1 $-1 $275 $36 $-1 $374 forward single #
loop $-1 $-1 $375 $171 #
plane-surface $-1 0 -51.242112919567326 0 0 1 0 0 0 1 forward_v I I I I #
coedge $-1 $376 $377 $378 $379 reversed $172 $-1 #
coedge $-1 $380 $174 $176 $273 forward $108 $-1 #
coedge $-1 $174 $380 $376 $381 forward $108 $-1 #
coedge $-1 $378 $177 $174 $270 forward $275 $-1 #
edge $-1 $277 -25.663184337662138 $382 3.0771351789972314 $269 $383 forward 7 unknown #
coedge $-1 $384 $385 $175 $272 forward $264 $-1 #
edge $-1 $386 -49.155354185874216 $276 -42.936879031638505 $271 $387 forward 7 unknown #
edge $-1 $277 -9.2933651821507812 $386 4.7796872990954678e-014 $176 $388 forward 7 unknown #
coedge $-1 $177 $378 $384 $389 forward $275 $-1 #
loop $-1 $-1 $378 $263 #
vertex $-1 $272 $390 #
vertex $-1 $178 $391 #
straight-curve $-1 36.956208916994591 -78.469448587815236 25.2959355980637 0 1 0 I I #
coedge $-1 $279 $279 $-1 $392 reversed $181 $-1 #
edge $-1 $393 0 $393 6.2831853071796004 $182 $394 forward 7 unknown #
vertex $-1 $185 $395 #
ellipse-curve $-1 13.963953303667097 -47.788954830043821 22.186698020945844 0 -0.66913061440640931 0.74314481823134659 1.5 0 0 1 I I #
coedge $-1 $283 $283 $-1 $396 reversed $188 $-1 #
edge $-1 $397 0 $397 6.2831853071796004 $189 $398 forward 7 unknown #
vertex $-1 $192 $399 #
ellipse-curve $-1 22.586049158664906 -47.788954830043821 22.186698020945844 0 -0.66913061440640931 0.74314481823134659 1.5 0 0 1 I I #
coedge $-1 $287 $287 $-1 $400 reversed $195 $-1 #
edge $-1 $401 0 $401 6.2831853071796004 $196 $402 forward 7 unknown #
vertex $-1 $199 $403 #
ellipse-curve $-1 31.208145013662715 -47.788954830043821 22.186698020945844 0 -0.66913061440640931 0.74314481823134659 1.5 0 0 1 I I #
face $-1 $-1 $215 $30 $-1 $404 reversed single #
loop $-1 $-1 $307 $200 #
plane-surface $-1 0 51.242112919567326 0 0 -1 0 0 0 -1 forward_v I I I I #
coedge $-1 $405 $305 $308 $406 forward $201 $-1 #
coedge $-1 $311 $203 $204 $299 reversed $127 $-1 #
coedge $-1 $305 $405 $203 $297 reversed $201 $-1 #
edge $-1 $312 -25.2959355980637 $407 25.2959355980637 $296 $408 forward 7 unknown #
coedge $-1 $205 $204 $405 $409 forward $81 $-1 #
edge $-1 $303 -78.980681783501694 $407 78.980681783501694 $295 $410 forward 7 unknown #
coedge $-1 $308 $307 $205 $301 reversed $292 $-1 #
edge $-1 $411 -78.980681783501694 $302 78.980681783501694 $300 $412 forward 7 unknown #
vertex $-1 $207 $413 #
vertex $-1 $314 $414 #
straight-curve $-1 78.980681783501694 0 -25.2959355980637 0 -1 0 I I #
coedge $-1 $294 $296 $208 $306 reversed $201 $-1 #
edge $-1 $309 -51.242112919567326 $312 51.242112919567326 $305 $415 forward 7 unknown #
coedge $-1 $300 $209 $214 $315 forward $292 $-1 #
coedge $-1 $209 $300 $294 $406 reversed $292 $-1 #
vertex $-1 $210 $416 #
straight-curve $-1 0 51.242112919567326 25.2959355980637 -1 0 0 I I #
coedge $-1 $211 $295 $213 $314 reversed $127 $-1 #
vertex $-1 $306 $417 #
straight-curve $-1 0 -51.242112919567326 25.2959355980637 1 0 0 I I #
edge $-1 $216 -25.2959355980637 $303 25.2959355980637 $213 $418 forward 7 unknown #
edge $-1 $217 -25.2959355980637 $302 25.2959355980637 $214 $419 forward 7 unknown #
point $-1 78.980681783501694 -51.242112919567326 25.2959355980637 #
point $-1 78.980681783501694 51.242112919567326 25.2959355980637 #
face $-1 $-1 $335 $31 $-1 $420 reversed single #
loop $-1 $-1 $421 $219 #
plane-surface $-1 -78.980681783501694 0 0 1 0 0 0 0 -1 forward_v I I I I #
coedge $-1 $322 $338 $223 $325 forward $220 $-1 #
coedge $-1 $230 $321 $222 $323 forward $220 $-1 #
edge $-1 $329 -0.29205544616540635 $233 13.068540245275656 $322 $422 forward 7 unknown #
coedge $-1 $224 $223 $421 $423 reversed $85 $-1 #
edge $-1 $424 -46.418614870566628 $329 -18.705518955303504 $321 $425 forward 7 unknown #
coedge $-1 $334 $333 $224 $327 forward $335 $-1 #
edge $-1 $328 18.705518955303504 $426 46.418614870566628 $326 $427 forward 7 unknown #
vertex $-1 $327 $428 #
vertex $-1 $325 $429 #
straight-curve $-1 -51.267585868238569 0 6.0961869533897186 0 -1 0 I I #
coedge $-1 $430 $431 $227 $332 forward $319 $-1 #
edge $-1 $339 -51.242112919567326 $336 51.242112919567326 $331 $432 forward 7 unknown #
coedge $-1 $326 $228 $232 $341 forward $335 $-1 #
coedge $-1 $228 $326 $430 $433 reversed $335 $-1 #
loop $-1 $-1 $326 $318 #
vertex $-1 $433 $434 #
straight-curve $-1 -32.562066912935066 51.242112919567326 19.456782644830781 1 0 0 I I #
coedge $-1 $321 $230 $431 $435 forward $220 $-1 #
vertex $-1 $435 $436 #
straight-curve $-1 -32.562066912935066 -51.242112919567326 19.456782644830781 -1 0 0 I I #
edge $-1 $234 -13.068540245275656 $328 0.29205544616540635 $333 $437 forward 7 unknown #
point $-1 -51.267585868238569 -51.242112919567326 19.456782644830781 #
point $-1 -51.267585868238569 51.242112919567326 19.456782644830781 #
loop $-1 $-1 $244 $236 #
plane-surface $-1 0 51.242112919567326 0 0 -1 0 0 0 -1 forward_v I I I I #
coedge $-1 $347 $239 $241 $351 reversed $143 $-1 #
coedge $-1 $239 $346 $438 $439 reversed $143 $-1 #
coedge $-1 $247 $242 $239 $349 forward $237 $-1 #
edge $-1 $352 3.9466588441070627 $440 10.85297502315408 $348 $441 forward 7 unknown #
coedge $-1 $241 $240 $355 $442 reversed $89 $-1 #
edge $-1 $443 -102.48422583913467 $352 -93.19086065698383 $346 $444 forward 7 unknown #
vertex $-1 $243 $445 #
straight-curve $-1 11.293024579332453 44.335796740520308 25.2959355980637 1 0 0 I I #
coedge $-1 $438 $244 $247 $359 reversed $344 $-1 #
coedge $-1 $244 $438 $350 $442 forward $344 $-1 #
vertex $-1 $245 $446 #
straight-curve $-1 8.2158894003352216 51.242112919567326 102.52048113105488 0 0 1 I I #
straight-curve $-1 8.2158894003352216 -24.918508463236691 87.652793446533366 0 0.74314481823134659 -0.66913061440640931 I I #
edge $-1 $440 -36.956208916994591 $248 -8.2158894003352216 $354 $447 forward 7 unknown #
point $-1 8.2158894003352216 51.242112919567326 25.2959355980637 #
point $-1 8.2158894003352216 44.335796740520308 25.2959355980637 #
edge $-1 $448 1 $448 0 $251 $-1 forward 7 unknown #
vertex $-1 $252 $449 #
ellipse-curve $-1 13.963953303667097 45.465386672152697 19.606114201931735 0 0.66913061440640931 0.74314481823134659 1.5 0 0 1 I I #
point $-1 15.463953303667097 47.788954830043835 22.186698020945851 #
edge $-1 $450 1 $450 0 $255 $-1 forward 7 unknown #
vertex $-1 $256 $451 #
ellipse-curve $-1 22.586049158664906 45.465386672152697 19.606114201931735 0 0.66913061440640931 0.74314481823134659 1.5 0 0 1 I I #
point $-1 24.086049158664906 47.788954830043835 22.186698020945851 #
edge $-1 $452 1 $452 0 $259 $-1 forward 7 unknown #
vertex $-1 $260 $453 #
ellipse-curve $-1 31.208145013662715 45.465386672152697 19.606114201931735 0 0.66913061440640931 0.74314481823134659 1.5 0 0 1 I I #
point $-1 32.708145013662715 47.788954830043835 22.186698020945851 #
plane-surface $-1 0 0 25.2959355980637 0 0 1 1 0 0 forward_v I I I I #
coedge $-1 $385 $384 $377 $454 forward $264 $-1 #
coedge $-1 $377 $266 $268 $381 reversed $172 $-1 #
coedge $-1 $266 $376 $375 $454 reversed $172 $-1 #
coedge $-1 $274 $269 $266 $379 forward $275 $-1 #
edge $-1 $382 -34.133651847294914 $455 -27.22733566824791 $378 $456 forward 7 unknown #
coedge $-1 $268 $267 $385 $457 reversed $108 $-1 #
edge $-1 $458 -4.7796872990954678e-014 $382 9.2933651821507812 $376 $459 forward 7 unknown #
vertex $-1 $270 $460 #
straight-curve $-1 11.293024579332453 -44.335796740520323 25.2959355980637 -1 0 0 I I #
coedge $-1 $375 $271 $274 $389 reversed $264 $-1 #
coedge $-1 $271 $375 $380 $457 forward $264 $-1 #
vertex $-1 $272 $461 #
straight-curve $-1 36.956208916994591 -51.242112919567326 68.232814629702204 0 0 1 I I #
straight-curve $-1 36.956208916994591 -51.24211291956729 19.077460443828016 0 -0.74314481823134659 -0.66913061440640931 I I #
edge $-1 $455 8.2158894003352216 $276 36.956208916994591 $384 $462 forward 7 unknown #
point $-1 36.956208916994591 -51.242112919567326 25.2959355980637 #
point $-1 36.956208916994591 -44.335796740520323 25.2959355980637 #
edge $-1 $463 1 $463 0 $279 $-1 forward 7 unknown #
vertex $-1 $280 $464 #
ellipse-curve $-1 13.963953303667097 -45.465386672152697 19.606114201931735 0 -0.66913061440640931 0.74314481823134659 1.5 0 0 1 I I #
point $-1 15.463953303667097 -47.788954830043835 22.186698020945851 #
edge $-1 $465 1 $465 0 $283 $-1 forward 7 unknown #
vertex $-1 $284 $466 #
ellipse-curve $-1 22.586049158664906 -45.465386672152697 19.606114201931735 0 -0.66913061440640931 0.74314481823134659 1.5 0 0 1 I I #
point $-1 24.086049158664906 -47.788954830043835 22.186698020945851 #
edge $-1 $467 1 $467 0 $287 $-1 forward 7 unknown #
vertex $-1 $288 $468 #
ellipse-curve $-1 31.208145013662715 -45.465386672152697 19.606114201931735 0 -0.66913061440640931 0.74314481823134659 1.5 0 0 1 I I #
point $-1 32.708145013662715 -47.788954830043835 22.186698020945851 #
plane-surface $-1 78.980681783501694 0 0 -1 0 0 0 0 1 forward_v I I I I #
coedge $-1 $296 $294 $298 $409 reversed $201 $-1 #
edge $-1 $309 -25.2959355980637 $411 25.2959355980637 $308 $469 forward 7 unknown #
vertex $-1 $409 $470 #
straight-curve $-1 -78.980681783501694 -51.242112919567326 0 0 0 -1 I I #
edge $-1 $407 -51.242112919567326 $411 51.242112919567326 $405 $471 forward 7 unknown #
straight-curve $-1 0 -51.242112919567326 -25.2959355980637 -1 0 0 I I #
vertex $-1 $301 $472 #
straight-curve $-1 0 51.242112919567326 -25.2959355980637 1 0 0 I I #
point $-1 78.980681783501694 51.242112919567326 -25.2959355980637 #
point $-1 78.980681783501694 -51.242112919567326 -25.2959355980637 #
straight-curve $-1 -78.980681783501694 0 25.2959355980637 0 -1 0 I I #
point $-1 -78.980681783501694 51.242112919567326 25.2959355980637 #
point $-1 -78.980681783501694 -51.242112919567326 25.2959355980637 #
straight-curve $-1 78.980681783501694 -51.242112919567326 0 0 0 -1 I I #
straight-curve $-1 78.980681783501694 51.242112919567326 0 0 0 -1 I I #
plane-surface $-1 0 51.242112919567326 0 0 -1 0 0 0 -1 forward_v I I I I #
coedge $-1 $431 $430 $324 $423 forward $319 $-1 #
straight-curve $-1 -51.267585868238569 -51.242112919567326 6.388242399555125 0 0 1 I I #
edge $-1 $426 -51.242112919567326 $424 51.242112919567326 $421 $473 forward 7 unknown #
vertex $-1 $325 $474 #
straight-curve $-1 -32.562066912935066 -51.242112919567326 6.0961869533897186 1 0 0 I I #
vertex $-1 $327 $475 #
straight-curve $-1 -32.562066912935066 51.242112919567326 6.0961869533897186 -1 0 0 I I #
point $-1 -51.267585868238569 51.242112919567326 6.0961869533897186 #
point $-1 -51.267585868238569 -51.242112919567326 6.0961869533897186 #
coedge $-1 $421 $331 $334 $433 forward $319 $-1 #
coedge $-1 $331 $421 $338 $435 reversed $319 $-1 #
straight-curve $-1 -78.980681783501694 0 19.456782644830781 0 1 0 I I #
edge $-1 $336 -19.456782644830781 $426 -6.0961869533897186 $334 $476 forward 7 unknown #
point $-1 -78.980681783501694 51.242112919567326 19.456782644830781 #
edge $-1 $339 -19.456782644830781 $424 -6.0961869533897186 $431 $477 forward 7 unknown #
point $-1 -78.980681783501694 -51.242112919567326 19.456782644830781 #
straight-curve $-1 -51.267585868238569 51.242112919567326 6.388242399555125 0 0 -1 I I #
coedge $-1 $355 $354 $347 $439 forward $344 $-1 #
edge $-1 $440 77.224545532991186 $443 83.443020687226905 $438 $478 forward 7 unknown #
vertex $-1 $359 $479 #
straight-curve $-1 36.956208916994591 40.389137896413246 25.295935598063693 0 1 0 I I #
edge $-1 $443 -25.663184337662138 $356 3.0771351789972314 $355 $480 forward 7 unknown #
vertex $-1 $442 $481 #
straight-curve $-1 36.956208916994591 -24.918508463236691 87.652793446533366 0 -0.74314481823134659 0.66913061440640931 I I #
point $-1 36.956208916994591 44.335796740520308 25.2959355980637 #
point $-1 8.2158894003352216 51.242112919567319 19.077460443827974 #
straight-curve $-1 0 51.242112919567326 25.2959355980637 -1 0 0 I I #
vertex $-1 $362 $482 #
point $-1 15.463953303667097 45.465386672152697 19.606114201931735 #
vertex $-1 $366 $483 #
point $-1 24.086049158664906 45.465386672152697 19.606114201931735 #
vertex $-1 $370 $484 #
point $-1 32.708145013662715 45.465386672152697 19.606114201931735 #
edge $-1 $455 42.936879031638505 $458 49.155354185874216 $375 $485 forward 7 unknown #
vertex $-1 $389 $486 #
straight-curve $-1 8.2158894003352216 -78.469448587815236 25.2959355980637 0 -1 0 I I #
edge $-1 $458 -3.0771351789972314 $386 25.663184337662138 $385 $487 forward 7 unknown #
vertex $-1 $457 $488 #
straight-curve $-1 8.2158894003352216 -51.24211291956729 19.077460443828016 0 0.74314481823134659 0.66913061440640931 I I #
point $-1 8.2158894003352216 -44.335796740520323 25.2959355980637 #
point $-1 36.956208916994591 -51.242112919567326 19.077460443827984 #
straight-curve $-1 0 -51.242112919567326 25.2959355980637 1 0 0 I I #
vertex $-1 $392 $489 #
point $-1 15.463953303667097 -45.465386672152697 19.606114201931735 #
vertex $-1 $396 $490 #
point $-1 24.086049158664906 -45.465386672152697 19.606114201931735 #
vertex $-1 $400 $491 #
point $-1 32.708145013662715 -45.465386672152697 19.606114201931735 #
straight-curve $-1 -78.980681783501694 51.242112919567326 0 0 0 -1 I I #
point $-1 -78.980681783501694 -51.242112919567326 -25.2959355980637 #
straight-curve $-1 -78.980681783501694 0 -25.2959355980637 0 1 0 I I #
point $-1 -78.980681783501694 51.242112919567326 -25.2959355980637 #
straight-curve $-1 -78.980681783501694 0 6.0961869533897186 0 -1 0 I I #
point $-1 -78.980681783501694 -51.242112919567326 6.0961869533897186 #
point $-1 -78.980681783501694 51.242112919567326 6.0961869533897186 #
straight-curve $-1 -78.980681783501694 51.242112919567326 0 0 0 -1 I I #
straight-curve $-1 -78.980681783501694 -51.242112919567326 0 0 0 -1 I I #
straight-curve $-1 36.956208916994591 51.242112919567326 102.52048113105488 0 0 -1 I I #
point $-1 36.956208916994591 51.242112919567326 25.2959355980637 #
straight-curve $-1 11.293024579332453 51.242112919567326 19.07746044382797 -1 0 0 I I #
point $-1 36.956208916994591 51.242112919567319 19.077460443827974 #
point $-1 13.963953303667097 44.461690750543077 18.491396974584713 #
point $-1 22.586049158664906 44.461690750543077 18.491396974584713 #
point $-1 31.208145013662715 44.461690750543077 18.491396974584713 #
straight-curve $-1 8.2158894003352216 -51.242112919567326 68.232814629702204 0 0 -1 I I #
point $-1 8.2158894003352216 -51.242112919567326 25.2959355980637 #
straight-curve $-1 11.293024579332453 -51.242112919567326 19.077460443827981 1 0 0 I I #
point $-1 8.2158894003352216 -51.242112919567326 19.077460443827984 #
point $-1 13.963953303667097 -44.461690750543077 18.491396974584713 #
point $-1 22.586049158664906 -44.461690750543077 18.491396974584713 #
point $-1 31.208145013662715 -44.461690750543077 18.491396974584713 #
End-of-ACIS-data 