500 0 9 0           
7 Unknown 11 ACIS 5.0 NT 24 Fri Mar 26 16:05:20 1999 
-1 9.9999999999999995e-007 1e-010 
body $-1 $9 $-1 $10 #
body $-1 $11 $-1 $12 #
body $-1 $13 $-1 $14 #
body $-1 $15 $-1 $16 #
body $-1 $17 $-1 $18 #
body $-1 $19 $-1 $20 #
body $-1 $21 $-1 $22 #
body $-1 $23 $-1 $24 #
body $-1 $25 $-1 $26 #
lump $-1 $-1 $27 $0 #
transform $-1 1 0 0 0 1 0 0 0 1 47.437971129490037 22.030201320763265 7.8694081667268225 1 rotate no_reflect no_shear #
lump $-1 $-1 $28 $1 #
transform $-1 1 0 0 0 1 0 0 0 1 47.437971129490037 22.030201320763265 7.8694081667268225 1 rotate no_reflect no_shear #
lump $-1 $-1 $29 $2 #
transform $-1 1 0 0 0 1 0 0 0 1 47.437971129490037 22.030201320763265 7.8694081667268225 1 rotate no_reflect no_shear #
lump $-1 $-1 $30 $3 #
transform $-1 1 0 0 0 1 0 0 0 1 47.437971129490037 22.030201320763265 7.8694081667268225 1 rotate no_reflect no_shear #
lump $-1 $-1 $31 $4 #
transform $-1 1 0 0 0 1 0 0 0 1 47.437971129490037 22.030201320763265 7.8694081667268225 1 rotate no_reflect no_shear #
lump $-1 $-1 $32 $5 #
transform $-1 1 0 0 0 1 0 0 0 1 47.437971129490037 22.030201320763265 7.8694081667268225 1 rotate no_reflect no_shear #
lump $-1 $-1 $33 $6 #
transform $-1 1 0 0 0 1 0 0 0 1 47.437971129490037 22.030201320763265 7.8694081667268225 1 rotate no_reflect no_shear #
lump $-1 $-1 $34 $7 #
transform $-1 1 0 0 0 1 0 0 0 1 47.437971129490037 22.030201320763265 7.8694081667268225 1 rotate no_reflect no_shear #
lump $-1 $-1 $35 $8 #
transform $-1 1 0 0 0 1 0 0 0 1 47.437971129490037 22.030201320763265 7.8694081667268225 1 rotate no_reflect no_shear #
shell $-1 $-1 $-1 $36 $-1 $9 #
shell $-1 $-1 $-1 $37 $-1 $11 #
shell $-1 $-1 $-1 $38 $-1 $13 #
shell $-1 $-1 $-1 $39 $-1 $15 #
shell $-1 $-1 $-1 $40 $-1 $17 #
shell $-1 $-1 $-1 $41 $-1 $19 #
shell $-1 $-1 $-1 $42 $-1 $21 #
shell $-1 $-1 $-1 $43 $-1 $23 #
shell $-1 $-1 $-1 $44 $-1 $25 #
face $-1 $45 $46 $27 $-1 $47 forward single #
face $-1 $48 $49 $28 $-1 $50 forward single #
face $-1 $51 $52 $29 $-1 $53 forward single #
face $-1 $54 $55 $30 $-1 $56 reversed single #
face $-1 $57 $58 $31 $-1 $59 forward single #
face $-1 $60 $61 $32 $-1 $62 forward single #
face $-1 $63 $64 $33 $-1 $65 reversed single #
face $-1 $66 $67 $34 $-1 $68 forward single #
face $-1 $69 $70 $35 $-1 $71 forward single #
face $-1 $72 $73 $27 $-1 $74 reversed single #
loop $-1 $-1 $75 $36 #
plane-surface $-1 0 0 7.8694081667268225 0 0 1 1 0 0 forward_v I I I I #
face $-1 $76 $77 $28 $-1 $78 reversed single #
loop $-1 $-1 $79 $37 #
plane-surface $-1 -44.47214064464147 0 -3.6541141252101719 0 0 1 1 0 0 forward_v I I I I #
face $-1 $80 $81 $29 $-1 $82 reversed single #
loop $-1 $-1 $83 $38 #
plane-surface $-1 44.741840851470059 0 -3.7159879965248819 0 0 1 1 0 0 forward_v I I I I #
face $-1 $84 $85 $30 $-1 $86 reversed single #
loop $-1 $-1 $87 $39 #
plane-surface $-1 5.7400288507032258 57.962215113785845 100.87124462672145 -1 0 0 0 0.70710678939079041 0.70710677298230451 forward_v I I I I #
face $-1 $88 $89 $31 $-1 $90 forward single #
loop $-1 $91 $92 $40 #
cone-surface $-1 -5.5113304890420878 18.465499454629676 4.304706261694685 0 -0.70710678939079041 -0.70710677298230451 1 0 0 1 I I 0 1 1 forward I I I I #
face $-1 $93 $94 $32 $-1 $95 forward single #
loop $-1 $96 $97 $41 #
cone-surface $-1 1.239485114805106 18.465499454629676 4.304706261694685 0 -0.70710678939079041 -0.70710677298230451 1 0 0 1 I I 0 1 1 forward I I I I #
face $-1 $98 $99 $33 $-1 $100 reversed single #
loop $-1 $-1 $101 $42 #
plane-surface $-1 21.548474980805864 -104.19517825889425 49.221997845133593 1 0 0 0 0.86602541151947299 -0.49999998660252726 forward_v I I I I #
face $-1 $102 $103 $34 $-1 $104 forward single #
loop $-1 $105 $106 $43 #
cone-surface $-1 27.404828007275654 -19.608410619930673 4.4427265711687784 0 0.86602541151947299 -0.49999998660252726 1 0 0 1 I I 0 1 1 forward I I I I #
face $-1 $107 $108 $35 $-1 $109 forward single #
loop $-1 $110 $111 $44 #
cone-surface $-1 36.189357546980332 -19.608410619930673 4.4427265711687784 0 0.86602541151947299 -0.49999998660252726 1 0 0 1 I I 0 1 1 forward I I I I #
face $-1 $112 $113 $27 $-1 $114 reversed single #
loop $-1 $-1 $115 $45 #
plane-surface $-1 0 0 -7.8694081667268225 0 0 1 1 0 0 forward_v I I I I #
coedge $-1 $116 $117 $118 $119 forward $46 $-1 #
face $-1 $120 $121 $28 $-1 $122 reversed single #
loop $-1 $-1 $123 $48 #
plane-surface $-1 -44.47214064464147 0 -6.6541141252101719 0 0 1 1 0 0 forward_v I I I I #
coedge $-1 $124 $125 $126 $127 forward $49 $-1 #
face $-1 $128 $129 $29 $-1 $130 reversed single #
loop $-1 $-1 $131 $51 #
plane-surface $-1 42.045710573450087 0 -5.7926980816258524 1 0 0 0 0 -1 forward_v I I I I #
coedge $-1 $132 $133 $134 $135 reversed $52 $-1 #
face $-1 $136 $137 $30 $-1 $138 reversed single #
loop $-1 $-1 $139 $54 #
plane-surface $-1 -2.1359226871184944 -9.125207807387568 33.783823262318592 0 0.70710678939079041 0.70710677298230451 1 0 0 forward_v I I I I #
coedge $-1 $140 $141 $142 $143 reversed $55 $-1 #
face $-1 $-1 $144 $31 $-1 $145 forward single #
loop $-1 $146 $147 $57 #
cone-surface $-1 -5.5113304890420878 17.167741510753562 3.0069483479331769 0 -0.70710678939079041 -0.70710677298230451 0.5 0 0 1 I I -0.70710678118654746 0.70710678118654746 0.5 forward I I I I #
loop $-1 $-1 $148 $40 #
coedge $-1 $92 $92 $149 $150 reversed $58 $-1 #
face $-1 $-1 $151 $32 $-1 $152 forward single #
loop $-1 $153 $154 $60 #
cone-surface $-1 1.239485114805106 17.167741510753562 3.0069483479331769 0 -0.70710678939079041 -0.70710677298230451 0.5 0 0 1 I I -0.70710678118654746 0.70710678118654746 0.5 forward I I I I #
loop $-1 $-1 $155 $41 #
coedge $-1 $97 $97 $156 $157 reversed $61 $-1 #
face $-1 $158 $159 $33 $-1 $160 reversed single #
loop $-1 $-1 $161 $63 #
plane-surface $-1 31.797092777127986 -22.030201320763268 1.7840279867414068 0 -0.86602541151947299 0.49999998660252726 1 0 0 forward_v I I I I #
coedge $-1 $162 $163 $164 $165 reversed $64 $-1 #
face $-1 $-1 $166 $34 $-1 $167 forward single #
loop $-1 $168 $169 $66 #
cone-surface $-1 27.404828007275654 -18.510305093095411 3.8087350723021807 0 0.86602541151947299 -0.49999998660252726 0.5 0 0 1 I I -0.70710678118654724 0.70710678118654791 0.5 forward I I I I #
loop $-1 $-1 $170 $43 #
coedge $-1 $106 $106 $171 $172 reversed $67 $-1 #
face $-1 $-1 $173 $35 $-1 $174 forward single #
loop $-1 $175 $176 $69 #
cone-surface $-1 36.189357546980332 -18.510305093095411 3.8087350723021807 0 0.86602541151947299 -0.49999998660252726 0.5 0 0 1 I I -0.70710678118654724 0.70710678118654791 0.5 forward I I I I #
loop $-1 $-1 $177 $44 #
coedge $-1 $111 $111 $178 $179 reversed $70 $-1 #
face $-1 $180 $181 $27 $-1 $182 reversed single #
loop $-1 $-1 $183 $72 #
plane-surface $-1 0 -22.030201320763265 0 0 1 0 0 0 1 forward_v I I I I #
coedge $-1 $184 $185 $186 $187 forward $73 $-1 #
coedge $-1 $188 $75 $189 $190 forward $46 $-1 #
coedge $-1 $75 $188 $191 $192 forward $46 $-1 #
coedge $-1 $193 $194 $75 $119 reversed $195 $-1 #
edge $-1 $196 -22.030201320763265 $197 22.030201320763265 $118 $198 forward 7 unknown #
face $-1 $199 $200 $28 $-1 $201 reversed single #
loop $-1 $-1 $202 $76 #
plane-surface $-1 -41.506310159792903 0 -5.1541141252101719 -1 0 0 0 0 1 forward_v I I I I #
coedge $-1 $203 $204 $205 $206 forward $77 $-1 #
coedge $-1 $207 $79 $208 $209 reversed $49 $-1 #
coedge $-1 $79 $207 $210 $211 reversed $49 $-1 #
coedge $-1 $202 $212 $79 $127 reversed $121 $-1 #
edge $-1 $213 -22.030201320763265 $214 22.030201320763265 $126 $215 forward 7 unknown #
face $-1 $216 $217 $29 $-1 $218 reversed single #
loop $-1 $-1 $219 $80 #
plane-surface $-1 0 -22.030201320763265 0 0 1 0 0 0 1 forward_v I I I I #
coedge $-1 $220 $221 $222 $223 reversed $81 $-1 #
coedge $-1 $224 $83 $225 $226 reversed $52 $-1 #
coedge $-1 $83 $224 $219 $227 reversed $52 $-1 #
coedge $-1 $228 $229 $83 $135 forward $230 $-1 #
edge $-1 $231 -22.030201320763265 $232 22.030201320763265 $134 $233 forward 7 unknown #
face $-1 $234 $235 $30 $-1 $236 reversed single #
loop $-1 $-1 $237 $84 #
plane-surface $-1 -10.011874224940215 57.962215113785845 100.87124462672145 1 0 0 0 -0.70710678939079041 -0.70710677298230451 forward_v I I I I #
coedge $-1 $238 $239 $240 $241 reversed $85 $-1 #
coedge $-1 $141 $87 $242 $243 reversed $55 $-1 #
coedge $-1 $87 $140 $238 $244 reversed $55 $-1 #
coedge $-1 $240 $245 $87 $143 forward $235 $-1 #
edge $-1 $246 42.566214146633904 $247 47.807208902157463 $142 $248 forward 7 unknown #
loop $-1 $-1 $149 $88 #
plane-surface $-1 -2.1359226871184944 -9.125207807387568 33.783823262318592 0 0.70710678939079041 0.70710677298230451 1 0 0 forward_v I I I I #
loop $-1 $-1 $249 $57 #
coedge $-1 $147 $147 $148 $250 reversed $89 $-1 #
coedge $-1 $148 $148 $147 $250 forward $91 $-1 #
coedge $-1 $149 $149 $92 $150 forward $144 $-1 #
edge $-1 $251 1.8841109722810244e-015 $251 6.2831853071796022 $149 $252 forward 7 unknown #
loop $-1 $-1 $156 $93 #
plane-surface $-1 -2.1359226871184944 -9.125207807387568 33.783823262318592 0 0.70710678939079041 0.70710677298230451 1 0 0 forward_v I I I I #
loop $-1 $-1 $253 $60 #
coedge $-1 $154 $154 $155 $254 reversed $94 $-1 #
coedge $-1 $155 $155 $154 $254 forward $96 $-1 #
coedge $-1 $156 $156 $97 $157 forward $151 $-1 #
edge $-1 $255 1.8841109722810244e-015 $255 6.2831853071796022 $156 $256 forward 7 unknown #
face $-1 $257 $258 $33 $-1 $259 forward single #
loop $-1 $-1 $260 $98 #
plane-surface $-1 42.045710573450108 -104.19517825889425 49.221997845133593 -1 0 0 0 -0.86602541151947299 0.49999998660252726 forward_v I I I I #
coedge $-1 $261 $262 $263 $264 reversed $99 $-1 #
coedge $-1 $163 $101 $265 $266 reversed $64 $-1 #
coedge $-1 $101 $162 $261 $267 reversed $64 $-1 #
coedge $-1 $263 $268 $101 $165 forward $269 $-1 #
edge $-1 $270 16.741590755839972 $271 22.826970935825383 $164 $272 forward 7 unknown #
loop $-1 $-1 $171 $102 #
plane-surface $-1 31.797092777127986 -22.030201320763268 1.7840279867414068 0 -0.86602541151947299 0.49999998660252726 1 0 0 forward_v I I I I #
loop $-1 $-1 $273 $66 #
coedge $-1 $169 $169 $170 $274 reversed $103 $-1 #
coedge $-1 $170 $170 $169 $274 forward $105 $-1 #
coedge $-1 $171 $171 $106 $172 forward $166 $-1 #
edge $-1 $275 4.7597325791166719e-016 $275 6.2831853071796013 $171 $276 forward 7 unknown #
loop $-1 $-1 $178 $107 #
plane-surface $-1 31.797092777127986 -22.030201320763268 1.7840279867414068 0 -0.86602541151947299 0.49999998660252726 1 0 0 forward_v I I I I #
loop $-1 $-1 $277 $69 #
coedge $-1 $176 $176 $177 $278 reversed $108 $-1 #
coedge $-1 $177 $177 $176 $278 forward $110 $-1 #
coedge $-1 $178 $178 $111 $179 forward $173 $-1 #
edge $-1 $279 4.7597325791166719e-016 $279 6.2831853071796013 $178 $280 forward 7 unknown #
face $-1 $281 $282 $27 $-1 $283 reversed single #
loop $-1 $-1 $284 $112 #
plane-surface $-1 -47.437971129490037 0 0 1 0 0 0 0 -1 forward_v I I I I #
coedge $-1 $285 $191 $286 $287 forward $113 $-1 #
coedge $-1 $288 $115 $285 $289 forward $73 $-1 #
coedge $-1 $115 $288 $290 $291 forward $73 $-1 #
coedge $-1 $194 $193 $115 $187 reversed $195 $-1 #
edge $-1 $292 -22.030201320763265 $293 22.030201320763265 $186 $294 forward 7 unknown #
coedge $-1 $117 $116 $295 $296 forward $46 $-1 #
coedge $-1 $297 $298 $116 $190 reversed $282 $-1 #
edge $-1 $197 -47.437971129490037 $299 47.437971129490037 $189 $300 forward 7 unknown #
coedge $-1 $183 $301 $117 $192 reversed $113 $-1 #
edge $-1 $302 -47.437971129490037 $196 47.437971129490037 $191 $303 forward 7 unknown #
coedge $-1 $186 $118 $301 $304 forward $195 $-1 #
coedge $-1 $118 $186 $297 $305 reversed $195 $-1 #
loop $-1 $-1 $193 $281 #
vertex $-1 $119 $306 #
vertex $-1 $119 $307 #
straight-curve $-1 47.437971129490037 0 7.8694081667268225 0 1 0 I I #
face $-1 $308 $309 $28 $-1 $310 reversed single #
loop $-1 $-1 $311 $120 #
plane-surface $-1 0 -22.030201320763265 0 0 1 0 0 0 1 forward_v I I I I #
coedge $-1 $205 $126 $312 $313 reversed $121 $-1 #
coedge $-1 $314 $123 $311 $315 reversed $77 $-1 #
coedge $-1 $123 $314 $316 $317 reversed $77 $-1 #
coedge $-1 $212 $202 $123 $206 reversed $121 $-1 #
edge $-1 $318 -22.030201320763265 $319 22.030201320763265 $205 $320 forward 7 unknown #
coedge $-1 $125 $124 $321 $322 reversed $49 $-1 #
coedge $-1 $323 $324 $124 $209 forward $325 $-1 #
edge $-1 $326 -25.201900807169302 $214 -19.270239837472168 $208 $327 forward 7 unknown #
coedge $-1 $328 $312 $125 $211 forward $200 $-1 #
edge $-1 $213 19.270239837472168 $329 25.201900807169302 $210 $330 forward 7 unknown #
coedge $-1 $126 $205 $323 $331 reversed $121 $-1 #
vertex $-1 $211 $332 #
vertex $-1 $209 $333 #
straight-curve $-1 -41.506310159792903 0 -3.6541141252101719 0 1 0 I I #
face $-1 $334 $335 $29 $-1 $336 reversed single #
loop $-1 $-1 $337 $128 #
plane-surface $-1 0 0 -7.8694081667268225 0 0 1 1 0 0 forward_v I I I I #
coedge $-1 $338 $339 $133 $227 forward $129 $-1 #
coedge $-1 $340 $131 $337 $341 reversed $81 $-1 #
coedge $-1 $131 $340 $224 $342 reversed $81 $-1 #
coedge $-1 $225 $343 $131 $223 forward $335 $-1 #
edge $-1 $344 -4.9730591259138963 $345 -0.81963895571195566 $222 $346 forward 7 unknown #
coedge $-1 $133 $132 $221 $342 forward $52 $-1 #
coedge $-1 $347 $222 $132 $226 forward $335 $-1 #
edge $-1 $345 19.674790147715058 $231 25.067050703755001 $225 $348 forward 7 unknown #
edge $-1 $232 -25.067050703755001 $349 -19.674790147715058 $219 $350 forward 7 unknown #
coedge $-1 $351 $134 $339 $352 forward $230 $-1 #
coedge $-1 $134 $351 $347 $353 reversed $230 $-1 #
loop $-1 $-1 $134 $334 #
vertex $-1 $353 $354 #
vertex $-1 $352 $355 #
straight-curve $-1 47.437971129490037 0 -3.7159879965248819 0 -1 0 I I #
face $-1 $-1 $356 $30 $-1 $357 forward single #
loop $-1 $-1 $142 $136 #
plane-surface $-1 0 22.030201320763265 0 0 -1 0 0 0 -1 forward_v I I I I #
coedge $-1 $358 $359 $360 $361 reversed $137 $-1 #
coedge $-1 $362 $139 $141 $244 forward $85 $-1 #
coedge $-1 $139 $362 $358 $363 forward $85 $-1 #
coedge $-1 $360 $142 $139 $241 forward $235 $-1 #
edge $-1 $247 -6.807990194262473 $364 8.9439128813809674 $240 $365 forward 7 unknown #
coedge $-1 $366 $367 $140 $243 forward $356 $-1 #
edge $-1 $368 -12.191900870035393 $246 -6.9509062361296579 $242 $369 forward 7 unknown #
edge $-1 $247 -44.060402641526544 $368 -36.648516863935647 $141 $370 forward 7 unknown #
coedge $-1 $142 $360 $366 $371 reversed $235 $-1 #
vertex $-1 $371 $372 #
vertex $-1 $143 $373 #
straight-curve $-1 5.7400288507032258 22.030201320763265 50.435622313360724 0 0 -1 I I #
coedge $-1 $249 $249 $-1 $374 reversed $146 $-1 #
edge $-1 $375 0 $375 6.2831853071796004 $147 $376 forward 7 unknown #
vertex $-1 $150 $377 #
ellipse-curve $-1 -5.5113304890420878 19.409704003810397 5.2489107889650439 0 0.70710678939079041 0.70710677298230451 1 0 0 1 I I #
coedge $-1 $253 $253 $-1 $378 reversed $153 $-1 #
edge $-1 $379 0 $379 6.2831853071796004 $154 $380 forward 7 unknown #
vertex $-1 $157 $381 #
ellipse-curve $-1 1.239485114805106 19.409704003810397 5.2489107889650439 0 0.70710678939079041 0.70710677298230451 1 0 0 1 I I #
face $-1 $-1 $269 $33 $-1 $382 reversed single #
loop $-1 $-1 $383 $158 #
plane-surface $-1 0 0 7.8694081667268225 0 0 1 1 0 0 forward_v I I I I #
coedge $-1 $384 $385 $386 $387 reversed $159 $-1 #
coedge $-1 $388 $161 $163 $267 forward $99 $-1 #
coedge $-1 $161 $388 $384 $389 forward $99 $-1 #
coedge $-1 $386 $164 $161 $264 forward $269 $-1 #
edge $-1 $271 5.6499285922418707 $390 26.147164184886115 $263 $391 forward 7 unknown #
coedge $-1 $392 $393 $162 $266 forward $258 $-1 #
edge $-1 $394 -33.58078356819798 $270 -30.067387808683858 $265 $395 forward 7 unknown #
edge $-1 $271 7.160652361767478e-015 $394 7.0267917073107533 $163 $396 forward 7 unknown #
coedge $-1 $164 $386 $392 $397 reversed $269 $-1 #
loop $-1 $-1 $386 $257 #
vertex $-1 $397 $398 #
vertex $-1 $165 $399 #
straight-curve $-1 21.548474980805864 -22.030201320763261 24.610998922566797 0 0 -1 I I #
coedge $-1 $273 $273 $-1 $400 reversed $168 $-1 #
edge $-1 $401 0 $401 6.2831853071796004 $169 $402 forward 7 unknown #
vertex $-1 $172 $403 #
ellipse-curve $-1 27.404828007275654 -20.273503441006206 4.8267180767341156 0 -0.86602541151947299 0.49999998660252726 1 0 0 1 I I #
coedge $-1 $277 $277 $-1 $404 reversed $175 $-1 #
edge $-1 $405 0 $405 6.2831853071796004 $176 $406 forward 7 unknown #
vertex $-1 $179 $407 #
ellipse-curve $-1 36.189357546980332 -20.273503441006206 4.8267180767341156 0 -0.86602541151947299 0.49999998660252726 1 0 0 1 I I #
face $-1 $-1 $195 $27 $-1 $408 reversed single #
loop $-1 $-1 $297 $180 #
plane-surface $-1 0 22.030201320763265 0 0 -1 0 0 0 -1 forward_v I I I I #
coedge $-1 $409 $295 $298 $410 forward $181 $-1 #
coedge $-1 $301 $183 $184 $289 reversed $113 $-1 #
coedge $-1 $295 $409 $183 $287 reversed $181 $-1 #
edge $-1 $302 -7.8694081667268225 $411 7.8694081667268225 $286 $412 forward 7 unknown #
coedge $-1 $185 $184 $409 $413 forward $73 $-1 #
edge $-1 $293 -47.437971129490037 $411 47.437971129490037 $285 $414 forward 7 unknown #
coedge $-1 $298 $297 $185 $291 reversed $282 $-1 #
edge $-1 $415 -47.437971129490037 $292 47.437971129490037 $290 $416 forward 7 unknown #
vertex $-1 $187 $417 #
vertex $-1 $304 $418 #
straight-curve $-1 47.437971129490037 0 -7.8694081667268225 0 -1 0 I I #
coedge $-1 $284 $286 $188 $296 reversed $181 $-1 #
edge $-1 $299 -22.030201320763265 $302 22.030201320763265 $295 $419 forward 7 unknown #
coedge $-1 $290 $189 $194 $305 forward $282 $-1 #
coedge $-1 $189 $290 $284 $410 reversed $282 $-1 #
vertex $-1 $190 $420 #
straight-curve $-1 0 22.030201320763265 7.8694081667268225 -1 0 0 I I #
coedge $-1 $191 $285 $193 $304 reversed $113 $-1 #
vertex $-1 $296 $421 #
straight-curve $-1 0 -22.030201320763265 7.8694081667268225 1 0 0 I I #
edge $-1 $196 -7.8694081667268225 $293 7.8694081667268225 $193 $422 forward 7 unknown #
edge $-1 $197 -7.8694081667268225 $292 7.8694081667268225 $194 $423 forward 7 unknown #
point $-1 47.437971129490037 -22.030201320763265 7.8694081667268225 #
point $-1 47.437971129490037 22.030201320763265 7.8694081667268225 #
face $-1 $-1 $325 $28 $-1 $424 reversed single #
loop $-1 $-1 $425 $199 #
plane-surface $-1 -47.437971129490037 0 0 1 0 0 0 0 -1 forward_v I I I I #
coedge $-1 $312 $328 $203 $315 forward $200 $-1 #
coedge $-1 $210 $311 $202 $313 forward $200 $-1 #
edge $-1 $319 -4.0770570626050855 $213 -1.0770570626050859 $312 $426 forward 7 unknown #
coedge $-1 $204 $203 $425 $427 reversed $77 $-1 #
edge $-1 $428 -25.201900807169302 $319 -19.270239837472168 $311 $429 forward 7 unknown #
coedge $-1 $324 $323 $204 $317 forward $325 $-1 #
edge $-1 $318 19.270239837472168 $430 25.201900807169302 $316 $431 forward 7 unknown #
vertex $-1 $317 $432 #
vertex $-1 $315 $433 #
straight-curve $-1 -41.506310159792903 0 -6.6541141252101719 0 -1 0 I I #
coedge $-1 $434 $435 $207 $322 forward $309 $-1 #
edge $-1 $329 -22.030201320763265 $326 22.030201320763265 $321 $436 forward 7 unknown #
coedge $-1 $316 $208 $212 $331 forward $325 $-1 #
coedge $-1 $208 $316 $434 $437 reversed $325 $-1 #
loop $-1 $-1 $316 $308 #
vertex $-1 $437 $438 #
straight-curve $-1 -22.236070322320735 22.030201320763265 -3.6541141252101719 1 0 0 I I #
coedge $-1 $311 $210 $435 $439 forward $200 $-1 #
vertex $-1 $439 $440 #
straight-curve $-1 -22.236070322320735 -22.030201320763265 -3.6541141252101719 -1 0 0 I I #
edge $-1 $214 1.0770570626050859 $318 4.0770570626050855 $323 $441 forward 7 unknown #
point $-1 -41.506310159792903 -22.030201320763265 -3.6541141252101719 #
point $-1 -41.506310159792903 22.030201320763265 -3.6541141252101719 #
face $-1 $-1 $230 $29 $-1 $442 reversed single #
loop $-1 $-1 $225 $216 #
plane-surface $-1 0 22.030201320763265 0 0 -1 0 0 0 -1 forward_v I I I I #
coedge $-1 $443 $444 $220 $341 forward $217 $-1 #
coedge $-1 $445 $219 $340 $446 forward $129 $-1 #
coedge $-1 $219 $445 $228 $352 reversed $129 $-1 #
coedge $-1 $221 $220 $338 $446 reversed $81 $-1 #
edge $-1 $447 -22.030201320763265 $344 22.030201320763265 $337 $448 forward 7 unknown #
edge $-1 $345 -22.030201320763265 $349 22.030201320763265 $221 $449 forward 7 unknown #
coedge $-1 $222 $347 $443 $450 reversed $335 $-1 #
vertex $-1 $450 $451 #
vertex $-1 $226 $452 #
straight-curve $-1 42.045710573450087 22.030201320763265 -2.8963490408129262 0 0 1 I I #
coedge $-1 $343 $225 $229 $353 forward $335 $-1 #
straight-curve $-1 22.370920425735029 22.030201320763265 -3.7159879965248819 1 0 0 I I #
vertex $-1 $227 $453 #
straight-curve $-1 22.370920425735029 -22.030201320763265 -3.7159879965248819 -1 0 0 I I #
coedge $-1 $229 $228 $454 $455 reversed $230 $-1 #
edge $-1 $232 3.7159879965248819 $456 7.8694081667268225 $228 $457 forward 7 unknown #
edge $-1 $231 3.7159879965248819 $458 7.8694081667268225 $229 $459 forward 7 unknown #
point $-1 47.43797112949003 22.030201320763265 -3.7159879965248819 #
point $-1 47.43797112949003 -22.030201320763265 -3.7159879965248819 #
loop $-1 $-1 $242 $234 #
plane-surface $-1 0 0 7.8694081667268225 0 0 1 1 0 0 forward_v I I I I #
coedge $-1 $359 $237 $239 $363 reversed $137 $-1 #
coedge $-1 $237 $358 $460 $461 reversed $137 $-1 #
coedge $-1 $245 $240 $237 $361 forward $235 $-1 #
edge $-1 $364 -47.807208902157463 $462 -42.566214146633904 $360 $463 forward 7 unknown #
coedge $-1 $239 $238 $367 $464 reversed $85 $-1 #
edge $-1 $465 36.648516863935647 $364 44.060402641526544 $358 $466 forward 7 unknown #
vertex $-1 $241 $467 #
straight-curve $-1 -1.0679613435592472 22.030201320763261 2.6284134112032618 -1 0 0 I I #
coedge $-1 $460 $242 $245 $371 forward $356 $-1 #
coedge $-1 $242 $460 $362 $464 forward $356 $-1 #
vertex $-1 $243 $468 #
straight-curve $-1 5.7400288507032258 28.981107556892923 7.8694081667268208 0 1 0 I I #
straight-curve $-1 5.7400288507032258 -9.125207807387568 33.783823262318592 0 -0.70710677298230451 0.70710678939079041 I I #
edge $-1 $246 -5.7400288507032258 $462 10.011874224940215 $245 $469 forward 7 unknown #
point $-1 5.7400288507032258 22.030201320763265 7.8694081667268225 #
point $-1 5.7400288507032258 22.030201320763268 2.6284134112032618 #
edge $-1 $470 1 $470 0 $249 $-1 forward 7 unknown #
vertex $-1 $250 $471 #
ellipse-curve $-1 -5.5113304890420878 17.521294905448958 3.3605017344243291 0 0.70710678939079041 0.70710677298230451 1 0 0 1 I I #
point $-1 -4.5113304890420878 19.409704003810397 5.2489107889650413 #
edge $-1 $472 1 $472 0 $253 $-1 forward 7 unknown #
vertex $-1 $254 $473 #
ellipse-curve $-1 1.239485114805106 17.521294905448958 3.3605017344243291 0 0.70710678939079041 0.70710677298230451 1 0 0 1 I I #
point $-1 2.239485114805106 19.409704003810397 5.2489107889650413 #
plane-surface $-1 0 -22.030201320763265 0 0 1 0 0 0 1 forward_v I I I I #
coedge $-1 $393 $392 $385 $474 forward $258 $-1 #
coedge $-1 $385 $260 $262 $389 reversed $159 $-1 #
coedge $-1 $260 $384 $383 $474 reversed $159 $-1 #
coedge $-1 $268 $263 $260 $387 forward $269 $-1 #
edge $-1 $390 -22.826970935825383 $475 -16.741590755839972 $386 $476 forward 7 unknown #
coedge $-1 $262 $261 $393 $477 reversed $99 $-1 #
edge $-1 $478 -7.0267917073107533 $390 -7.160652361767478e-015 $384 $479 forward 7 unknown #
vertex $-1 $264 $480 #
straight-curve $-1 15.898546388563993 -22.030201320763265 1.7840279867414148 1 0 0 I I #
coedge $-1 $383 $265 $268 $397 forward $258 $-1 #
coedge $-1 $265 $383 $388 $477 forward $258 $-1 #
vertex $-1 $266 $481 #
straight-curve $-1 21.548474980805864 -52.097589129447123 7.8694081667268208 0 -1 0 I I #
straight-curve $-1 21.548474980805864 -22.030201320763268 1.7840279867414068 0 0.49999998660252726 0.86602541151947299 I I #
edge $-1 $270 21.548474980805864 $475 42.045710573450108 $268 $482 forward 7 unknown #
point $-1 21.548474980805864 -22.030201320763265 7.8694081667268225 #
point $-1 21.548474980805864 -22.030201320763265 1.7840279867414131 #
edge $-1 $483 1 $483 0 $273 $-1 forward 7 unknown #
vertex $-1 $274 $484 #
ellipse-curve $-1 27.404828007275654 -18.943317798855148 4.0587350656034449 0 -0.86602541151947299 0.49999998660252726 1 0 0 1 I I #
point $-1 28.404828007275654 -20.273503441006198 4.826718076734112 #
edge $-1 $485 1 $485 0 $277 $-1 forward 7 unknown #
vertex $-1 $278 $486 #
ellipse-curve $-1 36.189357546980332 -18.943317798855148 4.0587350656034449 0 -0.86602541151947299 0.49999998660252726 1 0 0 1 I I #
point $-1 37.189357546980332 -20.273503441006198 4.826718076734112 #
plane-surface $-1 47.437971129490037 0 0 -1 0 0 0 0 1 forward_v I I I I #
coedge $-1 $286 $284 $288 $413 reversed $181 $-1 #
edge $-1 $299 -7.8694081667268225 $415 7.8694081667268225 $298 $487 forward 7 unknown #
vertex $-1 $413 $488 #
straight-curve $-1 -47.437971129490037 -22.030201320763265 0 0 0 -1 I I #
edge $-1 $411 -22.030201320763265 $415 22.030201320763265 $409 $489 forward 7 unknown #
straight-curve $-1 0 -22.030201320763265 -7.8694081667268225 -1 0 0 I I #
vertex $-1 $291 $490 #
straight-curve $-1 0 22.030201320763265 -7.8694081667268225 1 0 0 I I #
point $-1 47.437971129490037 22.030201320763265 -7.8694081667268225 #
point $-1 47.437971129490037 -22.030201320763265 -7.8694081667268225 #
straight-curve $-1 -47.437971129490037 0 7.8694081667268225 0 -1 0 I I #
point $-1 -47.437971129490037 22.030201320763265 7.8694081667268225 #
point $-1 -47.437971129490037 -22.030201320763265 7.8694081667268225 #
straight-curve $-1 47.437971129490037 -22.030201320763265 0 0 0 -1 I I #
straight-curve $-1 47.437971129490037 22.030201320763265 0 0 0 -1 I I #
plane-surface $-1 0 22.030201320763265 0 0 -1 0 0 0 -1 forward_v I I I I #
coedge $-1 $435 $434 $314 $427 forward $309 $-1 #
straight-curve $-1 -41.506310159792903 -22.030201320763265 -2.5770570626050859 0 0 1 I I #
edge $-1 $430 -22.030201320763265 $428 22.030201320763265 $425 $491 forward 7 unknown #
vertex $-1 $315 $492 #
straight-curve $-1 -22.236070322320735 -22.030201320763265 -6.6541141252101719 1 0 0 I I #
vertex $-1 $317 $493 #
straight-curve $-1 -22.236070322320735 22.030201320763265 -6.6541141252101719 -1 0 0 I I #
point $-1 -41.506310159792903 22.030201320763265 -6.6541141252101719 #
point $-1 -41.506310159792903 -22.030201320763265 -6.6541141252101719 #
coedge $-1 $425 $321 $324 $437 forward $309 $-1 #
coedge $-1 $321 $425 $328 $439 reversed $309 $-1 #
straight-curve $-1 -47.437971129490037 0 -3.6541141252101719 0 1 0 I I #
edge $-1 $326 3.6541141252101719 $430 6.6541141252101719 $324 $494 forward 7 unknown #
point $-1 -47.437971129490037 22.030201320763265 -3.6541141252101719 #
edge $-1 $329 3.6541141252101719 $428 6.6541141252101719 $435 $495 forward 7 unknown #
point $-1 -47.437971129490037 -22.030201320763265 -3.6541141252101719 #
straight-curve $-1 -41.506310159792903 22.030201320763265 -2.5770570626050859 0 0 -1 I I #
plane-surface $-1 47.437971129490037 0 0 -1 0 0 0 0 1 forward_v I I I I #
coedge $-1 $454 $337 $343 $450 forward $217 $-1 #
coedge $-1 $337 $454 $445 $496 forward $217 $-1 #
coedge $-1 $339 $338 $444 $496 reversed $129 $-1 #
edge $-1 $349 0.81963895571195566 $447 4.9730591259138963 $338 $497 forward 7 unknown #
vertex $-1 $341 $498 #
straight-curve $-1 42.045710573450087 0 -7.8694081667268225 0 1 0 I I #
straight-curve $-1 42.045710573450087 0 -3.7159879965248819 0 -1 0 I I #
edge $-1 $344 42.045710573450087 $458 47.437971129490037 $343 $499 forward 7 unknown #
point $-1 42.045710573450087 22.030201320763265 -7.8694081667268225 #
point $-1 42.045710573450087 22.030201320763265 -3.7159879965248819 #
point $-1 42.045710573450087 -22.030201320763265 -3.7159879965248819 #
coedge $-1 $444 $443 $351 $455 forward $217 $-1 #
edge $-1 $458 -22.030201320763265 $456 22.030201320763265 $351 $500 forward 7 unknown #
vertex $-1 $352 $501 #
straight-curve $-1 47.437971129490037 -22.030201320763265 0 0 0 -1 I I #
vertex $-1 $455 $502 #
straight-curve $-1 47.437971129490037 22.030201320763265 0 0 0 -1 I I #
coedge $-1 $367 $366 $359 $461 forward $356 $-1 #
edge $-1 $462 6.9509062361296579 $465 12.191900870035393 $460 $503 forward 7 unknown #
vertex $-1 $461 $504 #
straight-curve $-1 -10.011874224940215 22.030201320763265 50.435622313360724 0 0 1 I I #
edge $-1 $465 -8.9439128813809674 $368 6.807990194262473 $367 $505 forward 7 unknown #
vertex $-1 $464 $506 #
straight-curve $-1 -10.011874224940215 -9.125207807387568 33.783823262318592 0 0.70710677298230451 -0.70710678939079041 I I #
point $-1 -10.011874224940215 22.030201320763268 2.6284134112032618 #
point $-1 5.7400288507032258 16.789206686857529 7.8694081667268243 #
straight-curve $-1 0 22.030201320763265 7.8694081667268225 -1 0 0 I I #
vertex $-1 $374 $507 #
point $-1 -4.5113304890420878 17.521294905448958 3.3605017344243291 #
vertex $-1 $378 $508 #
point $-1 2.239485114805106 17.521294905448958 3.3605017344243291 #
edge $-1 $475 30.067387808683858 $478 33.58078356819798 $383 $509 forward 7 unknown #
vertex $-1 $474 $510 #
straight-curve $-1 42.045710573450108 -22.030201320763261 24.610998922566797 0 0 1 I I #
edge $-1 $478 -26.147164184886115 $394 -5.6499285922418707 $393 $511 forward 7 unknown #
vertex $-1 $477 $512 #
straight-curve $-1 42.045710573450108 -22.030201320763268 1.7840279867414068 0 -0.49999998660252726 -0.86602541151947299 I I #
point $-1 42.045710573450108 -22.030201320763265 1.7840279867414131 #
point $-1 21.548474980805864 -18.516805561249143 7.8694081667268225 #
straight-curve $-1 0 -22.030201320763265 7.8694081667268225 1 0 0 I I #
vertex $-1 $400 $513 #
point $-1 28.404828007275654 -18.943317798855148 4.0587350656034449 #
vertex $-1 $404 $514 #
point $-1 37.189357546980332 -18.943317798855148 4.0587350656034449 #
straight-curve $-1 -47.437971129490037 22.030201320763265 0 0 0 -1 I I #
point $-1 -47.437971129490037 -22.030201320763265 -7.8694081667268225 #
straight-curve $-1 -47.437971129490037 0 -7.8694081667268225 0 1 0 I I #
point $-1 -47.437971129490037 22.030201320763265 -7.8694081667268225 #
straight-curve $-1 -47.437971129490037 0 -6.6541141252101719 0 -1 0 I I #
point $-1 -47.437971129490037 -22.030201320763265 -6.6541141252101719 #
point $-1 -47.437971129490037 22.030201320763265 -6.6541141252101719 #
straight-curve $-1 -47.437971129490037 22.030201320763265 0 0 0 -1 I I #
straight-curve $-1 -47.437971129490037 -22.030201320763265 0 0 0 -1 I I #
edge $-1 $456 -47.437971129490037 $447 -42.045710573450087 $445 $515 forward 7 unknown #
straight-curve $-1 42.045710573450087 -22.030201320763265 -2.8963490408129262 0 0 -1 I I #
point $-1 42.045710573450087 -22.030201320763265 -7.8694081667268225 #
straight-curve $-1 0 22.030201320763265 -7.8694081667268225 1 0 0 I I #
straight-curve $-1 47.437971129490037 0 -7.8694081667268225 0 -1 0 I I #
point $-1 47.437971129490037 -22.030201320763265 -7.8694081667268225 #
point $-1 47.437971129490037 22.030201320763265 -7.8694081667268225 #
straight-curve $-1 -10.011874224940215 28.981107556892923 7.8694081667268208 0 -1 0 I I #
point $-1 -10.011874224940215 22.030201320763265 7.8694081667268225 #
straight-curve $-1 -1.0679613435592472 16.789206686857533 7.8694081667268208 1 0 0 I I #
point $-1 -10.011874224940215 16.789206686857529 7.8694081667268243 #
point $-1 -5.5113304890420878 16.814188116058165 2.6533949614420247 #
point $-1 1.239485114805106 16.814188116058165 2.6533949614420247 #
straight-curve $-1 42.045710573450108 -52.097589129447123 7.8694081667268208 0 1 0 I I #
point $-1 42.045710573450108 -22.030201320763265 7.8694081667268225 #
straight-curve $-1 15.898546388563993 -18.516805561249139 7.8694081667268225 -1 0 0 I I #
point $-1 42.045710573450108 -18.516805561249143 7.8694081667268225 #
point $-1 27.404828007275654 -18.077292387335675 3.5587350790009169 #
point $-1 36.189357546980332 -18.077292387335675 3.5587350790009169 #
straight-curve $-1 0 -22.030201320763265 -7.8694081667268225 -1 0 0 I I #
End-of-ACIS-data 