500 0 11 0           
7 Unknown 11 ACIS 5.0 NT 24 Fri Mar 26 20:21:46 1999 
-1 9.9999999999999995e-007 1e-010 
body $-1 $11 $-1 $12 #
body $-1 $13 $-1 $14 #
body $-1 $15 $-1 $16 #
body $-1 $17 $-1 $18 #
body $-1 $19 $-1 $20 #
body $-1 $21 $-1 $22 #
body $-1 $23 $-1 $24 #
body $-1 $25 $-1 $26 #
body $-1 $27 $-1 $28 #
body $-1 $29 $-1 $30 #
body $-1 $31 $-1 $32 #
lump $-1 $-1 $33 $0 #
transform $-1 1 0 0 0 1 0 0 0 1 66.946623126926482 31.823703619108237 8.5948377192803811 1 rotate no_reflect no_shear #
lump $-1 $-1 $34 $1 #
transform $-1 1 0 0 0 1 0 0 0 1 66.946623126926482 31.823703619108237 8.5948377192803811 1 rotate no_reflect no_shear #
lump $-1 $-1 $35 $2 #
transform $-1 1 0 0 0 1 0 0 0 1 66.946623126926482 31.823703619108237 8.5948377192803811 1 rotate no_reflect no_shear #
lump $-1 $-1 $36 $3 #
transform $-1 1 0 0 0 1 0 0 0 1 66.946623126926482 31.823703619108237 8.5948377192803811 1 rotate no_reflect no_shear #
lump $-1 $-1 $37 $4 #
transform $-1 1 0 0 0 1 0 0 0 1 66.946623126926482 31.823703619108237 8.5948377192803811 1 rotate no_reflect no_shear #
lump $-1 $-1 $38 $5 #
transform $-1 1 0 0 0 1 0 0 0 1 66.946623126926482 31.823703619108237 8.5948377192803811 1 rotate no_reflect no_shear #
lump $-1 $-1 $39 $6 #
transform $-1 1 0 0 0 1 0 0 0 1 66.946623126926482 31.823703619108237 8.5948377192803811 1 rotate no_reflect no_shear #
lump $-1 $-1 $40 $7 #
transform $-1 1 0 0 0 1 0 0 0 1 66.946623126926482 31.823703619108237 8.5948377192803811 1 rotate no_reflect no_shear #
lump $-1 $-1 $41 $8 #
transform $-1 1 0 0 0 1 0 0 0 1 66.946623126926482 31.823703619108237 8.5948377192803811 1 rotate no_reflect no_shear #
lump $-1 $-1 $42 $9 #
transform $-1 1 0 0 0 1 0 0 0 1 66.946623126926482 31.823703619108237 8.5948377192803811 1 rotate no_reflect no_shear #
lump $-1 $-1 $43 $10 #
transform $-1 1 0 0 0 1 0 0 0 1 66.946623126926482 31.823703619108237 8.5948377192803811 1 rotate no_reflect no_shear #
shell $-1 $-1 $-1 $44 $-1 $11 #
shell $-1 $-1 $-1 $45 $-1 $13 #
shell $-1 $-1 $-1 $46 $-1 $15 #
shell $-1 $-1 $-1 $47 $-1 $17 #
shell $-1 $-1 $-1 $48 $-1 $19 #
shell $-1 $-1 $-1 $49 $-1 $21 #
shell $-1 $-1 $-1 $50 $-1 $23 #
shell $-1 $-1 $-1 $51 $-1 $25 #
shell $-1 $-1 $-1 $52 $-1 $27 #
shell $-1 $-1 $-1 $53 $-1 $29 #
shell $-1 $-1 $-1 $54 $-1 $31 #
face $-1 $55 $56 $33 $-1 $57 forward single #
face $-1 $58 $59 $34 $-1 $60 forward single #
face $-1 $61 $62 $35 $-1 $63 forward single #
face $-1 $64 $65 $36 $-1 $66 reversed single #
face $-1 $67 $68 $37 $-1 $69 forward single #
face $-1 $70 $71 $38 $-1 $72 forward single #
face $-1 $73 $74 $39 $-1 $75 forward single #
face $-1 $76 $77 $40 $-1 $78 reversed single #
face $-1 $79 $80 $41 $-1 $81 forward single #
face $-1 $82 $83 $42 $-1 $84 forward single #
face $-1 $85 $86 $43 $-1 $87 forward single #
face $-1 $88 $89 $33 $-1 $90 reversed single #
loop $-1 $-1 $91 $44 #
plane-surface $-1 0 0 8.5948377192803811 0 0 1 1 0 0 forward_v I I I I #
face $-1 $92 $93 $34 $-1 $94 reversed single #
loop $-1 $-1 $95 $45 #
plane-surface $-1 -63.109265599399535 0 -3.4317197661048628 0 0 1 1 0 0 forward_v I I I I #
face $-1 $96 $97 $35 $-1 $98 reversed single #
loop $-1 $-1 $99 $46 #
plane-surface $-1 63.109265599399549 0 -3.4317197661048628 0 0 1 1 0 0 forward_v I I I I #
face $-1 $100 $101 $36 $-1 $102 reversed single #
loop $-1 $-1 $103 $47 #
plane-surface $-1 -22.996964900361277 -126.50052709878068 99.896871295011607 1 0 0 0 0.70710678939079041 -0.70710677298230451 forward_v I I I I #
face $-1 $104 $105 $37 $-1 $106 forward single #
loop $-1 $107 $108 $48 #
cone-surface $-1 -18.397571920289025 -29.464016700749397 6.2351507773660257 0 0.70710678939079041 -0.70710677298230451 0.5 0 0 1 I I 0 1 0.5 forward I I I I #
face $-1 $109 $110 $38 $-1 $111 forward single #
loop $-1 $112 $113 $49 #
cone-surface $-1 -11.498482450180646 -29.464016700749397 6.2351507773660257 0 0.70710678939079041 -0.70710677298230451 0.5 0 0 1 I I 0 1 0.5 forward I I I I #
face $-1 $114 $115 $39 $-1 $116 forward single #
loop $-1 $117 $118 $50 #
cone-surface $-1 -4.5993929800722668 -29.464016700749397 6.2351507773660257 0 0.70710678939079041 -0.70710677298230451 0.5 0 0 1 I I 0 1 0.5 forward I I I I #
face $-1 $119 $120 $40 $-1 $121 reversed single #
loop $-1 $-1 $122 $51 #
plane-surface $-1 36.274943171511318 -126.50052709878068 99.896871295011607 1 0 0 0 0.70710678939079041 -0.70710677298230451 forward_v I I I I #
face $-1 $123 $124 $41 $-1 $125 forward single #
loop $-1 $126 $127 $52 #
cone-surface $-1 40.874336151583563 -29.464016700749397 6.2351507773660257 0 0.70710678939079041 -0.70710677298230451 0.5 0 0 1 I I 0 1 0.5 forward I I I I #
face $-1 $128 $129 $42 $-1 $130 forward single #
loop $-1 $131 $132 $53 #
cone-surface $-1 47.773425621691942 -29.464016700749397 6.2351507773660257 0 0.70710678939079041 -0.70710677298230451 0.5 0 0 1 I I 0 1 0.5 forward I I I I #
face $-1 $133 $134 $43 $-1 $135 forward single #
loop $-1 $136 $137 $54 #
cone-surface $-1 54.672515091800321 -29.464016700749397 6.2351507773660257 0 0.70710678939079041 -0.70710677298230451 0.5 0 0 1 I I 0 1 0.5 forward I I I I #
face $-1 $138 $139 $33 $-1 $140 reversed single #
loop $-1 $-1 $141 $55 #
plane-surface $-1 0 0 -8.5948377192803811 0 0 1 1 0 0 forward_v I I I I #
coedge $-1 $142 $143 $144 $145 forward $56 $-1 #
face $-1 $146 $147 $34 $-1 $148 reversed single #
loop $-1 $-1 $149 $58 #
plane-surface $-1 -63.109265599399535 0 -6.8905865244001809 0 0 1 1 0 0 forward_v I I I I #
coedge $-1 $150 $151 $152 $153 forward $59 $-1 #
face $-1 $154 $155 $35 $-1 $156 reversed single #
loop $-1 $-1 $157 $61 #
plane-surface $-1 63.109265599399549 0 -6.8905865244001809 0 0 1 1 0 0 forward_v I I I I #
coedge $-1 $158 $159 $160 $161 reversed $62 $-1 #
face $-1 $162 $163 $36 $-1 $164 reversed single #
loop $-1 $-1 $165 $64 #
plane-surface $-1 -11.498482450180639 -31.82370361910823 5.2200500123246059 0 -0.70710678939079041 0.70710677298230451 1 0 0 forward_v I I I I #
coedge $-1 $166 $167 $168 $169 reversed $65 $-1 #
face $-1 $-1 $170 $37 $-1 $171 forward single #
loop $-1 $172 $173 $67 #
cone-surface $-1 -18.397571920289025 -28.614946899364611 5.3860809956839901 0 0.70710678939079041 -0.70710677298230451 0.25 0 0 1 I I -0.70710678118654746 0.70710678118654746 0.25 forward I I I I #
loop $-1 $-1 $174 $48 #
coedge $-1 $108 $108 $175 $176 reversed $68 $-1 #
face $-1 $-1 $177 $38 $-1 $178 forward single #
loop $-1 $179 $180 $70 #
cone-surface $-1 -11.498482450180646 -28.614946899364611 5.3860809956839901 0 0.70710678939079041 -0.70710677298230451 0.25 0 0 1 I I -0.70710678118654746 0.70710678118654746 0.25 forward I I I I #
loop $-1 $-1 $181 $49 #
coedge $-1 $113 $113 $182 $183 reversed $71 $-1 #
face $-1 $-1 $184 $39 $-1 $185 forward single #
loop $-1 $186 $187 $73 #
cone-surface $-1 -4.5993929800722668 -28.614946899364611 5.3860809956839901 0 0.70710678939079041 -0.70710677298230451 0.25 0 0 1 I I -0.70710678118654746 0.70710678118654746 0.25 forward I I I I #
loop $-1 $-1 $188 $50 #
coedge $-1 $118 $118 $189 $190 reversed $74 $-1 #
face $-1 $191 $192 $40 $-1 $193 reversed single #
loop $-1 $-1 $194 $76 #
plane-surface $-1 47.773425621691956 -31.82370361910823 5.2200500123246059 0 -0.70710678939079041 0.70710677298230451 1 0 0 forward_v I I I I #
coedge $-1 $195 $196 $197 $198 reversed $77 $-1 #
face $-1 $-1 $199 $41 $-1 $200 forward single #
loop $-1 $201 $202 $79 #
cone-surface $-1 40.874336151583563 -28.614946899364611 5.3860809956839901 0 0.70710678939079041 -0.70710677298230451 0.25 0 0 1 I I -0.70710678118654746 0.70710678118654746 0.25 forward I I I I #
loop $-1 $-1 $203 $52 #
coedge $-1 $127 $127 $204 $205 reversed $80 $-1 #
face $-1 $-1 $206 $42 $-1 $207 forward single #
loop $-1 $208 $209 $82 #
cone-surface $-1 47.773425621691942 -28.614946899364611 5.3860809956839901 0 0.70710678939079041 -0.70710677298230451 0.25 0 0 1 I I -0.70710678118654746 0.70710678118654746 0.25 forward I I I I #
loop $-1 $-1 $210 $53 #
coedge $-1 $132 $132 $211 $212 reversed $83 $-1 #
face $-1 $-1 $213 $43 $-1 $214 forward single #
loop $-1 $215 $216 $85 #
cone-surface $-1 54.672515091800321 -28.614946899364611 5.3860809956839901 0 0.70710678939079041 -0.70710677298230451 0.25 0 0 1 I I -0.70710678118654746 0.70710678118654746 0.25 forward I I I I #
loop $-1 $-1 $217 $54 #
coedge $-1 $137 $137 $218 $219 reversed $86 $-1 #
face $-1 $220 $221 $33 $-1 $222 reversed single #
loop $-1 $-1 $223 $88 #
plane-surface $-1 0 -31.823703619108237 0 0 1 0 0 0 1 forward_v I I I I #
coedge $-1 $224 $225 $226 $227 forward $89 $-1 #
coedge $-1 $228 $91 $229 $230 forward $56 $-1 #
coedge $-1 $91 $228 $231 $232 forward $56 $-1 #
coedge $-1 $233 $234 $91 $145 reversed $235 $-1 #
edge $-1 $236 -31.823703619108237 $237 31.823703619108237 $144 $238 forward 7 unknown #
face $-1 $239 $240 $34 $-1 $241 reversed single #
loop $-1 $-1 $242 $92 #
plane-surface $-1 -59.271908071872588 0 -5.1611531452525217 -1 0 0 0 0 1 forward_v I I I I #
coedge $-1 $243 $244 $245 $246 forward $93 $-1 #
coedge $-1 $247 $95 $248 $249 reversed $59 $-1 #
coedge $-1 $95 $247 $250 $251 reversed $59 $-1 #
coedge $-1 $242 $252 $95 $153 reversed $147 $-1 #
edge $-1 $253 -31.823703619108237 $254 31.823703619108237 $152 $255 forward 7 unknown #
face $-1 $256 $257 $35 $-1 $258 reversed single #
loop $-1 $-1 $259 $96 #
plane-surface $-1 59.271908071872602 0 -5.1611531452525217 1 0 0 0 0 -1 forward_v I I I I #
coedge $-1 $260 $261 $262 $263 reversed $97 $-1 #
coedge $-1 $264 $99 $265 $266 reversed $62 $-1 #
coedge $-1 $99 $264 $267 $268 reversed $62 $-1 #
coedge $-1 $269 $270 $99 $161 forward $271 $-1 #
edge $-1 $272 -31.823703619108237 $273 31.823703619108237 $160 $274 forward 7 unknown #
face $-1 $275 $276 $36 $-1 $277 forward single #
loop $-1 $-1 $278 $100 #
plane-surface $-1 0 -126.50052709878068 99.896871295011607 -1 0 0 0 -0.70710678939079041 0.70710677298230451 forward_v I I I I #
coedge $-1 $279 $280 $281 $282 reversed $101 $-1 #
coedge $-1 $167 $103 $283 $284 reversed $65 $-1 #
coedge $-1 $103 $166 $279 $285 reversed $65 $-1 #
coedge $-1 $281 $286 $103 $169 forward $287 $-1 #
edge $-1 $288 41.353597928225426 $289 44.728385635181205 $168 $290 forward 7 unknown #
loop $-1 $-1 $175 $104 #
plane-surface $-1 -11.498482450180639 -31.82370361910823 5.2200500123246059 0 -0.70710678939079041 0.70710677298230451 1 0 0 forward_v I I I I #
loop $-1 $-1 $291 $67 #
coedge $-1 $173 $173 $174 $292 reversed $105 $-1 #
coedge $-1 $174 $174 $173 $292 forward $107 $-1 #
coedge $-1 $175 $175 $108 $176 forward $170 $-1 #
edge $-1 $293 -3.7682220611513527e-015 $293 6.2831853071795969 $175 $294 forward 7 unknown #
loop $-1 $-1 $182 $109 #
plane-surface $-1 -11.498482450180639 -31.82370361910823 5.2200500123246059 0 -0.70710678939079041 0.70710677298230451 1 0 0 forward_v I I I I #
loop $-1 $-1 $295 $70 #
coedge $-1 $180 $180 $181 $296 reversed $110 $-1 #
coedge $-1 $181 $181 $180 $296 forward $112 $-1 #
coedge $-1 $182 $182 $113 $183 forward $177 $-1 #
edge $-1 $297 -3.7682220611513527e-015 $297 6.2831853071795969 $182 $298 forward 7 unknown #
loop $-1 $-1 $189 $114 #
plane-surface $-1 -11.498482450180639 -31.82370361910823 5.2200500123246059 0 -0.70710678939079041 0.70710677298230451 1 0 0 forward_v I I I I #
loop $-1 $-1 $299 $73 #
coedge $-1 $187 $187 $188 $300 reversed $115 $-1 #
coedge $-1 $188 $188 $187 $300 forward $117 $-1 #
coedge $-1 $189 $189 $118 $190 forward $184 $-1 #
edge $-1 $301 -3.7682220611513527e-015 $301 6.2831853071795969 $189 $302 forward 7 unknown #
face $-1 $303 $304 $40 $-1 $305 reversed single #
loop $-1 $-1 $306 $119 #
plane-surface $-1 59.271908071872595 -126.50052709878068 99.896871295011607 -1 0 0 0 -0.70710678939079041 0.70710677298230451 forward_v I I I I #
coedge $-1 $307 $308 $309 $310 reversed $120 $-1 #
coedge $-1 $196 $122 $311 $312 reversed $77 $-1 #
coedge $-1 $122 $195 $307 $313 reversed $77 $-1 #
coedge $-1 $309 $314 $122 $198 forward $304 $-1 #
edge $-1 $315 41.353597928225426 $316 44.728385635181205 $197 $317 forward 7 unknown #
loop $-1 $-1 $204 $123 #
plane-surface $-1 47.773425621691956 -31.82370361910823 5.2200500123246059 0 -0.70710678939079041 0.70710677298230451 1 0 0 forward_v I I I I #
loop $-1 $-1 $318 $79 #
coedge $-1 $202 $202 $203 $319 reversed $124 $-1 #
coedge $-1 $203 $203 $202 $319 forward $126 $-1 #
coedge $-1 $204 $204 $127 $205 forward $199 $-1 #
edge $-1 $320 -3.7682220611513527e-015 $320 6.2831853071795969 $204 $321 forward 7 unknown #
loop $-1 $-1 $211 $128 #
plane-surface $-1 47.773425621691956 -31.82370361910823 5.2200500123246059 0 -0.70710678939079041 0.70710677298230451 1 0 0 forward_v I I I I #
loop $-1 $-1 $322 $82 #
coedge $-1 $209 $209 $210 $323 reversed $129 $-1 #
coedge $-1 $210 $210 $209 $323 forward $131 $-1 #
coedge $-1 $211 $211 $132 $212 forward $206 $-1 #
edge $-1 $324 -3.7682220611513527e-015 $324 6.2831853071795969 $211 $325 forward 7 unknown #
loop $-1 $-1 $218 $133 #
plane-surface $-1 47.773425621691956 -31.82370361910823 5.2200500123246059 0 -0.70710678939079041 0.70710677298230451 1 0 0 forward_v I I I I #
loop $-1 $-1 $326 $85 #
coedge $-1 $216 $216 $217 $327 reversed $134 $-1 #
coedge $-1 $217 $217 $216 $327 forward $136 $-1 #
coedge $-1 $218 $218 $137 $219 forward $213 $-1 #
edge $-1 $328 -3.7682220611513527e-015 $328 6.2831853071795969 $218 $329 forward 7 unknown #
face $-1 $330 $331 $33 $-1 $332 reversed single #
loop $-1 $-1 $333 $138 #
plane-surface $-1 -66.946623126926482 0 0 1 0 0 0 0 -1 forward_v I I I I #
coedge $-1 $334 $231 $335 $336 forward $139 $-1 #
coedge $-1 $337 $141 $334 $338 forward $89 $-1 #
coedge $-1 $141 $337 $339 $340 forward $89 $-1 #
coedge $-1 $234 $233 $141 $227 reversed $235 $-1 #
edge $-1 $341 -31.823703619108237 $342 31.823703619108237 $226 $343 forward 7 unknown #
coedge $-1 $143 $142 $344 $345 forward $56 $-1 #
coedge $-1 $346 $347 $142 $230 reversed $331 $-1 #
edge $-1 $237 -66.946623126926482 $348 66.946623126926482 $229 $349 forward 7 unknown #
coedge $-1 $223 $350 $143 $232 reversed $139 $-1 #
edge $-1 $351 -66.946623126926482 $236 66.946623126926482 $231 $352 forward 7 unknown #
coedge $-1 $226 $144 $350 $353 forward $235 $-1 #
coedge $-1 $144 $226 $346 $354 reversed $235 $-1 #
loop $-1 $-1 $233 $330 #
vertex $-1 $145 $355 #
vertex $-1 $145 $356 #
straight-curve $-1 66.946623126926482 0 8.5948377192803811 0 1 0 I I #
face $-1 $357 $358 $34 $-1 $359 reversed single #
loop $-1 $-1 $360 $146 #
plane-surface $-1 0 -31.823703619108237 0 0 1 0 0 0 1 forward_v I I I I #
coedge $-1 $245 $152 $361 $362 reversed $147 $-1 #
coedge $-1 $363 $149 $360 $364 reversed $93 $-1 #
coedge $-1 $149 $363 $365 $366 reversed $93 $-1 #
coedge $-1 $252 $242 $149 $246 reversed $147 $-1 #
edge $-1 $367 -31.823703619108237 $368 31.823703619108237 $245 $369 forward 7 unknown #
coedge $-1 $151 $150 $370 $371 reversed $59 $-1 #
coedge $-1 $372 $373 $150 $249 forward $374 $-1 #
edge $-1 $375 -35.391990327226715 $254 -27.71727527217282 $248 $376 forward 7 unknown #
coedge $-1 $377 $361 $151 $251 forward $240 $-1 #
edge $-1 $253 27.71727527217282 $378 35.391990327226715 $250 $379 forward 7 unknown #
coedge $-1 $152 $245 $372 $380 reversed $147 $-1 #
vertex $-1 $251 $381 #
vertex $-1 $249 $382 #
straight-curve $-1 -59.271908071872588 0 -3.4317197661048628 0 1 0 I I #
face $-1 $383 $384 $35 $-1 $385 reversed single #
loop $-1 $-1 $267 $154 #
plane-surface $-1 0 -31.823703619108237 0 0 1 0 0 0 1 forward_v I I I I #
coedge $-1 $386 $387 $388 $389 reversed $155 $-1 #
coedge $-1 $390 $157 $391 $392 reversed $97 $-1 #
coedge $-1 $157 $390 $393 $394 reversed $97 $-1 #
coedge $-1 $270 $269 $157 $263 forward $271 $-1 #
edge $-1 $395 -31.823703619108237 $396 31.823703619108237 $262 $397 forward 7 unknown #
coedge $-1 $159 $158 $387 $398 forward $62 $-1 #
coedge $-1 $399 $388 $158 $266 forward $384 $-1 #
edge $-1 $400 27.717275272172827 $272 35.391990327226722 $265 $401 forward 7 unknown #
coedge $-1 $402 $403 $159 $268 forward $257 $-1 #
edge $-1 $273 -35.391990327226722 $404 -27.717275272172827 $267 $405 forward 7 unknown #
coedge $-1 $262 $160 $403 $406 forward $271 $-1 #
coedge $-1 $160 $262 $399 $407 reversed $271 $-1 #
loop $-1 $-1 $160 $383 #
vertex $-1 $407 $408 #
vertex $-1 $406 $409 #
straight-curve $-1 66.946623126926482 0 -3.4317197661048628 0 -1 0 I I #
face $-1 $-1 $287 $36 $-1 $410 reversed single #
loop $-1 $-1 $411 $162 #
plane-surface $-1 0 0 8.5948377192803811 0 0 1 1 0 0 forward_v I I I I #
coedge $-1 $412 $413 $414 $415 reversed $163 $-1 #
coedge $-1 $416 $165 $167 $285 forward $101 $-1 #
coedge $-1 $165 $416 $412 $417 forward $101 $-1 #
coedge $-1 $414 $168 $165 $282 forward $287 $-1 #
edge $-1 $289 -17.247723675270958 $418 5.7492412250903193 $281 $419 forward 7 unknown #
coedge $-1 $420 $421 $166 $284 forward $276 $-1 #
edge $-1 $422 -34.801347558925585 $288 -31.426559930282103 $283 $423 forward 7 unknown #
edge $-1 $289 -1.0048591735576163e-014 $422 4.7726704899317012 $167 $424 forward 7 unknown #
coedge $-1 $168 $414 $420 $425 reversed $287 $-1 #
loop $-1 $-1 $414 $275 #
vertex $-1 $425 $426 #
vertex $-1 $169 $427 #
straight-curve $-1 -22.996964900361277 -31.823703619108237 49.948435647505804 0 0 -1 I I #
coedge $-1 $291 $291 $-1 $428 reversed $172 $-1 #
edge $-1 $429 0 $429 6.2831853071796004 $173 $430 forward 7 unknown #
vertex $-1 $176 $431 #
ellipse-curve $-1 -18.397571920289025 -30.136309804786492 6.9074438658024908 0 -0.70710678939079041 0.70710677298230451 0.5 0 0 1 I I #
coedge $-1 $295 $295 $-1 $432 reversed $179 $-1 #
edge $-1 $433 0 $433 6.2831853071796004 $180 $434 forward 7 unknown #
vertex $-1 $183 $435 #
ellipse-curve $-1 -11.498482450180646 -30.136309804786492 6.9074438658024908 0 -0.70710678939079041 0.70710677298230451 0.5 0 0 1 I I #
coedge $-1 $299 $299 $-1 $436 reversed $186 $-1 #
edge $-1 $437 0 $437 6.2831853071796004 $187 $438 forward 7 unknown #
vertex $-1 $190 $439 #
ellipse-curve $-1 -4.5993929800722668 -30.136309804786492 6.9074438658024908 0 -0.70710678939079041 0.70710677298230451 0.5 0 0 1 I I #
face $-1 $-1 $440 $40 $-1 $441 forward single #
loop $-1 $-1 $197 $191 #
plane-surface $-1 0 -31.823703619108237 0 0 1 0 0 0 1 forward_v I I I I #
coedge $-1 $442 $443 $444 $445 reversed $192 $-1 #
coedge $-1 $446 $194 $196 $313 forward $120 $-1 #
coedge $-1 $194 $446 $442 $447 forward $120 $-1 #
coedge $-1 $444 $197 $194 $310 forward $304 $-1 #
edge $-1 $316 12.388230360665339 $448 35.385195261026617 $309 $449 forward 7 unknown #
coedge $-1 $450 $451 $195 $312 forward $440 $-1 #
edge $-1 $452 -34.801347558925585 $315 -31.426559930282103 $311 $453 forward 7 unknown #
edge $-1 $316 -1.0048591735576163e-014 $452 4.7726704899317012 $196 $454 forward 7 unknown #
coedge $-1 $197 $444 $450 $455 reversed $304 $-1 #
vertex $-1 $455 $456 #
vertex $-1 $198 $457 #
straight-curve $-1 36.274943171511318 -31.823703619108237 49.948435647505804 0 0 -1 I I #
coedge $-1 $318 $318 $-1 $458 reversed $201 $-1 #
edge $-1 $459 0 $459 6.2831853071796004 $202 $460 forward 7 unknown #
vertex $-1 $205 $461 #
ellipse-curve $-1 40.874336151583563 -30.136309804786492 6.9074438658024908 0 -0.70710678939079041 0.70710677298230451 0.5 0 0 1 I I #
coedge $-1 $322 $322 $-1 $462 reversed $208 $-1 #
edge $-1 $463 0 $463 6.2831853071796004 $209 $464 forward 7 unknown #
vertex $-1 $212 $465 #
ellipse-curve $-1 47.773425621691942 -30.136309804786492 6.9074438658024908 0 -0.70710678939079041 0.70710677298230451 0.5 0 0 1 I I #
coedge $-1 $326 $326 $-1 $466 reversed $215 $-1 #
edge $-1 $467 0 $467 6.2831853071796004 $216 $468 forward 7 unknown #
vertex $-1 $219 $469 #
ellipse-curve $-1 54.672515091800321 -30.136309804786492 6.9074438658024908 0 -0.70710678939079041 0.70710677298230451 0.5 0 0 1 I I #
face $-1 $-1 $235 $33 $-1 $470 reversed single #
loop $-1 $-1 $346 $220 #
plane-surface $-1 0 31.823703619108237 0 0 -1 0 0 0 -1 forward_v I I I I #
coedge $-1 $471 $344 $347 $472 forward $221 $-1 #
coedge $-1 $350 $223 $224 $338 reversed $139 $-1 #
coedge $-1 $344 $471 $223 $336 reversed $221 $-1 #
edge $-1 $351 -8.5948377192803811 $473 8.5948377192803811 $335 $474 forward 7 unknown #
coedge $-1 $225 $224 $471 $475 forward $89 $-1 #
edge $-1 $342 -66.946623126926482 $473 66.946623126926482 $334 $476 forward 7 unknown #
coedge $-1 $347 $346 $225 $340 reversed $331 $-1 #
edge $-1 $477 -66.946623126926482 $341 66.946623126926482 $339 $478 forward 7 unknown #
vertex $-1 $227 $479 #
vertex $-1 $353 $480 #
straight-curve $-1 66.946623126926482 0 -8.5948377192803811 0 -1 0 I I #
coedge $-1 $333 $335 $228 $345 reversed $221 $-1 #
edge $-1 $348 -31.823703619108237 $351 31.823703619108237 $344 $481 forward 7 unknown #
coedge $-1 $339 $229 $234 $354 forward $331 $-1 #
coedge $-1 $229 $339 $333 $472 reversed $331 $-1 #
vertex $-1 $230 $482 #
straight-curve $-1 0 31.823703619108237 8.5948377192803811 -1 0 0 I I #
coedge $-1 $231 $334 $233 $353 reversed $139 $-1 #
vertex $-1 $345 $483 #
straight-curve $-1 0 -31.823703619108237 8.5948377192803811 1 0 0 I I #
edge $-1 $236 -8.5948377192803811 $342 8.5948377192803811 $233 $484 forward 7 unknown #
edge $-1 $237 -8.5948377192803811 $341 8.5948377192803811 $234 $485 forward 7 unknown #
point $-1 66.946623126926482 -31.823703619108237 8.5948377192803811 #
point $-1 66.946623126926482 31.823703619108237 8.5948377192803811 #
face $-1 $-1 $374 $34 $-1 $486 reversed single #
loop $-1 $-1 $487 $239 #
plane-surface $-1 -66.946623126926482 0 0 1 0 0 0 0 -1 forward_v I I I I #
coedge $-1 $361 $377 $243 $364 forward $240 $-1 #
coedge $-1 $250 $360 $242 $362 forward $240 $-1 #
edge $-1 $368 -4.3100099517739201 $253 -0.85114319347860201 $361 $488 forward 7 unknown #
coedge $-1 $244 $243 $487 $489 reversed $93 $-1 #
edge $-1 $490 -35.391990327226715 $368 -27.71727527217282 $360 $491 forward 7 unknown #
coedge $-1 $373 $372 $244 $366 forward $374 $-1 #
edge $-1 $367 27.71727527217282 $492 35.391990327226715 $365 $493 forward 7 unknown #
vertex $-1 $366 $494 #
vertex $-1 $364 $495 #
straight-curve $-1 -59.271908071872588 0 -6.8905865244001809 0 -1 0 I I #
coedge $-1 $496 $497 $247 $371 forward $358 $-1 #
edge $-1 $378 -31.823703619108237 $375 31.823703619108237 $370 $498 forward 7 unknown #
coedge $-1 $365 $248 $252 $380 forward $374 $-1 #
coedge $-1 $248 $365 $496 $499 reversed $374 $-1 #
loop $-1 $-1 $365 $357 #
vertex $-1 $499 $500 #
straight-curve $-1 -31.554632799699768 31.823703619108237 -3.4317197661048628 1 0 0 I I #
coedge $-1 $360 $250 $497 $501 forward $240 $-1 #
vertex $-1 $501 $502 #
straight-curve $-1 -31.554632799699768 -31.823703619108237 -3.4317197661048628 -1 0 0 I I #
edge $-1 $254 0.85114319347860201 $367 4.3100099517739201 $372 $503 forward 7 unknown #
point $-1 -59.271908071872588 -31.823703619108237 -3.4317197661048628 #
point $-1 -59.271908071872588 31.823703619108237 -3.4317197661048628 #
face $-1 $-1 $271 $35 $-1 $504 reversed single #
loop $-1 $-1 $265 $256 #
plane-surface $-1 0 31.823703619108237 0 0 -1 0 0 0 -1 forward_v I I I I #
coedge $-1 $505 $259 $390 $506 reversed $155 $-1 #
coedge $-1 $259 $505 $264 $398 reversed $155 $-1 #
coedge $-1 $265 $393 $259 $389 forward $384 $-1 #
edge $-1 $507 -4.3100099517739201 $400 -0.85114319347860201 $388 $508 forward 7 unknown #
coedge $-1 $261 $260 $386 $506 forward $97 $-1 #
coedge $-1 $403 $402 $260 $392 forward $257 $-1 #
edge $-1 $509 27.717275272172827 $395 35.391990327226722 $391 $510 forward 7 unknown #
coedge $-1 $388 $399 $261 $394 forward $384 $-1 #
edge $-1 $396 -35.391990327226722 $507 -27.717275272172827 $393 $511 forward 7 unknown #
vertex $-1 $263 $512 #
vertex $-1 $263 $513 #
straight-curve $-1 66.946623126926482 0 -6.8905865244001809 0 1 0 I I #
edge $-1 $400 -31.823703619108237 $404 31.823703619108237 $387 $514 forward 7 unknown #
coedge $-1 $393 $265 $270 $407 forward $384 $-1 #
vertex $-1 $266 $515 #
straight-curve $-1 31.554632799699775 31.823703619108237 -3.4317197661048628 1 0 0 I I #
coedge $-1 $391 $267 $505 $516 forward $257 $-1 #
coedge $-1 $267 $391 $269 $406 reversed $257 $-1 #
vertex $-1 $268 $517 #
straight-curve $-1 31.554632799699775 -31.823703619108237 -3.4317197661048628 -1 0 0 I I #
edge $-1 $273 3.4317197661048628 $395 6.8905865244001809 $269 $518 forward 7 unknown #
edge $-1 $272 3.4317197661048628 $396 6.8905865244001809 $270 $519 forward 7 unknown #
point $-1 66.946623126926497 31.823703619108237 -3.4317197661048628 #
point $-1 66.946623126926497 -31.823703619108237 -3.4317197661048628 #
plane-surface $-1 0 -31.823703619108237 0 0 1 0 0 0 1 forward_v I I I I #
coedge $-1 $421 $420 $413 $520 forward $276 $-1 #
coedge $-1 $413 $278 $280 $417 reversed $163 $-1 #
coedge $-1 $278 $412 $411 $520 reversed $163 $-1 #
coedge $-1 $286 $281 $278 $415 forward $287 $-1 #
edge $-1 $418 -44.728385635181205 $521 -41.353597928225426 $414 $522 forward 7 unknown #
coedge $-1 $280 $279 $421 $523 reversed $101 $-1 #
edge $-1 $524 -4.7726704899317012 $418 1.0048591735576163e-014 $412 $525 forward 7 unknown #
vertex $-1 $282 $526 #
straight-curve $-1 -5.7492412250903193 -31.823703619108237 5.220050012324597 1 0 0 I I #
coedge $-1 $411 $283 $286 $425 forward $276 $-1 #
coedge $-1 $283 $411 $416 $523 forward $276 $-1 #
vertex $-1 $284 $527 #
straight-curve $-1 -22.996964900361277 -63.25026354939034 8.5948377192803775 0 -1 0 I I #
straight-curve $-1 -22.996964900361277 -31.82370361910823 5.2200500123246059 0 0.70710677298230451 0.70710678939079041 I I #
edge $-1 $288 -22.996964900361277 $521 0 $286 $528 forward 7 unknown #
point $-1 -22.996964900361277 -31.823703619108237 8.5948377192803811 #
point $-1 -22.996964900361277 -31.823703619108237 5.2200500123245988 #
edge $-1 $529 1 $529 0 $291 $-1 forward 7 unknown #
vertex $-1 $292 $530 #
ellipse-curve $-1 -18.397571920289025 -28.791723596712309 5.562857688929566 0 -0.70710678939079041 0.70710677298230451 0.5 0 0 1 I I #
point $-1 -17.897571920289025 -30.136309804786489 6.9074438658024846 #
edge $-1 $531 1 $531 0 $295 $-1 forward 7 unknown #
vertex $-1 $296 $532 #
ellipse-curve $-1 -11.498482450180646 -28.791723596712309 5.562857688929566 0 -0.70710678939079041 0.70710677298230451 0.5 0 0 1 I I #
point $-1 -10.998482450180646 -30.136309804786489 6.9074438658024846 #
edge $-1 $533 1 $533 0 $299 $-1 forward 7 unknown #
vertex $-1 $300 $534 #
ellipse-curve $-1 -4.5993929800722668 -28.791723596712309 5.562857688929566 0 -0.70710678939079041 0.70710677298230451 0.5 0 0 1 I I #
point $-1 -4.0993929800722668 -30.136309804786489 6.9074438658024846 #
loop $-1 $-1 $311 $303 #
plane-surface $-1 0 0 8.5948377192803811 0 0 1 1 0 0 forward_v I I I I #
coedge $-1 $443 $306 $308 $447 reversed $192 $-1 #
coedge $-1 $306 $442 $535 $536 reversed $192 $-1 #
coedge $-1 $314 $309 $306 $445 forward $304 $-1 #
edge $-1 $448 -44.728385635181205 $537 -41.353597928225426 $444 $538 forward 7 unknown #
coedge $-1 $308 $307 $451 $539 reversed $120 $-1 #
edge $-1 $540 -4.7726704899317012 $448 1.0048591735576163e-014 $442 $541 forward 7 unknown #
vertex $-1 $310 $542 #
straight-curve $-1 23.886712810845978 -31.823703619108237 5.220050012324597 1 0 0 I I #
coedge $-1 $535 $311 $314 $455 forward $440 $-1 #
coedge $-1 $311 $535 $446 $539 forward $440 $-1 #
vertex $-1 $312 $543 #
straight-curve $-1 36.274943171511318 -63.25026354939034 8.5948377192803775 0 -1 0 I I #
straight-curve $-1 36.274943171511318 -31.82370361910823 5.2200500123246059 0 0.70710677298230451 0.70710678939079041 I I #
edge $-1 $315 36.274943171511318 $537 59.271908071872595 $314 $544 forward 7 unknown #
point $-1 36.274943171511318 -31.823703619108237 8.5948377192803811 #
point $-1 36.274943171511318 -31.823703619108237 5.2200500123245988 #
edge $-1 $545 1 $545 0 $318 $-1 forward 7 unknown #
vertex $-1 $319 $546 #
ellipse-curve $-1 40.874336151583563 -28.791723596712309 5.562857688929566 0 -0.70710678939079041 0.70710677298230451 0.5 0 0 1 I I #
point $-1 41.374336151583563 -30.136309804786489 6.9074438658024846 #
edge $-1 $547 1 $547 0 $322 $-1 forward 7 unknown #
vertex $-1 $323 $548 #
ellipse-curve $-1 47.773425621691942 -28.791723596712309 5.562857688929566 0 -0.70710678939079041 0.70710677298230451 0.5 0 0 1 I I #
point $-1 48.273425621691942 -30.136309804786489 6.9074438658024846 #
edge $-1 $549 1 $549 0 $326 $-1 forward 7 unknown #
vertex $-1 $327 $550 #
ellipse-curve $-1 54.672515091800321 -28.791723596712309 5.562857688929566 0 -0.70710678939079041 0.70710677298230451 0.5 0 0 1 I I #
point $-1 55.172515091800321 -30.136309804786489 6.9074438658024846 #
plane-surface $-1 66.946623126926482 0 0 -1 0 0 0 0 1 forward_v I I I I #
coedge $-1 $335 $333 $337 $475 reversed $221 $-1 #
edge $-1 $348 -8.5948377192803811 $477 8.5948377192803811 $347 $551 forward 7 unknown #
vertex $-1 $475 $552 #
straight-curve $-1 -66.946623126926482 -31.823703619108237 0 0 0 -1 I I #
edge $-1 $473 -31.823703619108237 $477 31.823703619108237 $471 $553 forward 7 unknown #
straight-curve $-1 0 -31.823703619108237 -8.5948377192803811 -1 0 0 I I #
vertex $-1 $340 $554 #
straight-curve $-1 0 31.823703619108237 -8.5948377192803811 1 0 0 I I #
point $-1 66.946623126926482 31.823703619108237 -8.5948377192803811 #
point $-1 66.946623126926482 -31.823703619108237 -8.5948377192803811 #
straight-curve $-1 -66.946623126926482 0 8.5948377192803811 0 -1 0 I I #
point $-1 -66.946623126926482 31.823703619108237 8.5948377192803811 #
point $-1 -66.946623126926482 -31.823703619108237 8.5948377192803811 #
straight-curve $-1 66.946623126926482 -31.823703619108237 0 0 0 -1 I I #
straight-curve $-1 66.946623126926482 31.823703619108237 0 0 0 -1 I I #
plane-surface $-1 0 31.823703619108237 0 0 -1 0 0 0 -1 forward_v I I I I #
coedge $-1 $497 $496 $363 $489 forward $358 $-1 #
straight-curve $-1 -59.271908071872588 -31.823703619108237 -2.5805765726262608 0 0 1 I I #
edge $-1 $492 -31.823703619108237 $490 31.823703619108237 $487 $555 forward 7 unknown #
vertex $-1 $364 $556 #
straight-curve $-1 -31.554632799699768 -31.823703619108237 -6.8905865244001809 1 0 0 I I #
vertex $-1 $366 $557 #
straight-curve $-1 -31.554632799699768 31.823703619108237 -6.8905865244001809 -1 0 0 I I #
point $-1 -59.271908071872588 31.823703619108237 -6.8905865244001809 #
point $-1 -59.271908071872588 -31.823703619108237 -6.8905865244001809 #
coedge $-1 $487 $370 $373 $499 forward $358 $-1 #
coedge $-1 $370 $487 $377 $501 reversed $358 $-1 #
straight-curve $-1 -66.946623126926482 0 -3.4317197661048628 0 1 0 I I #
edge $-1 $375 3.4317197661048628 $492 6.8905865244001809 $373 $558 forward 7 unknown #
point $-1 -66.946623126926482 31.823703619108237 -3.4317197661048628 #
edge $-1 $378 3.4317197661048628 $490 6.8905865244001809 $497 $559 forward 7 unknown #
point $-1 -66.946623126926482 -31.823703619108237 -3.4317197661048628 #
straight-curve $-1 -59.271908071872588 31.823703619108237 -2.5805765726262608 0 0 -1 I I #
plane-surface $-1 66.946623126926482 0 0 -1 0 0 0 0 1 forward_v I I I I #
coedge $-1 $387 $386 $402 $516 reversed $155 $-1 #
edge $-1 $509 -31.823703619108237 $507 31.823703619108237 $386 $560 forward 7 unknown #
vertex $-1 $394 $561 #
straight-curve $-1 59.271908071872602 31.823703619108237 -2.5805765726262608 0 0 1 I I #
vertex $-1 $392 $562 #
straight-curve $-1 31.554632799699775 -31.823703619108237 -6.8905865244001809 1 0 0 I I #
straight-curve $-1 31.554632799699775 31.823703619108237 -6.8905865244001809 -1 0 0 I I #
point $-1 66.946623126926497 -31.823703619108237 -6.8905865244001809 #
point $-1 66.946623126926497 31.823703619108237 -6.8905865244001809 #
straight-curve $-1 59.271908071872602 0 -3.4317197661048628 0 -1 0 I I #
point $-1 59.271908071872602 31.823703619108237 -3.4317197661048628 #
edge $-1 $404 0.85114319347860201 $509 4.3100099517739201 $402 $563 forward 7 unknown #
point $-1 59.271908071872602 -31.823703619108237 -3.4317197661048628 #
straight-curve $-1 66.946623126926482 -31.823703619108237 0 0 0 -1 I I #
straight-curve $-1 66.946623126926482 31.823703619108237 0 0 0 -1 I I #
edge $-1 $521 31.426559930282103 $524 34.801347558925585 $411 $564 forward 7 unknown #
vertex $-1 $520 $565 #
straight-curve $-1 0 -31.823703619108237 49.948435647505804 0 0 1 I I #
edge $-1 $524 -5.7492412250903193 $422 17.247723675270958 $421 $566 forward 7 unknown #
vertex $-1 $523 $567 #
straight-curve $-1 0 -31.82370361910823 5.2200500123246059 0 -0.70710677298230451 -0.70710678939079041 I I #
point $-1 0 -31.823703619108237 5.2200500123245988 #
point $-1 -22.996964900361277 -28.448915990464752 8.5948377192803811 #
straight-curve $-1 0 -31.823703619108237 8.5948377192803811 1 0 0 I I #
vertex $-1 $428 $568 #
point $-1 -17.897571920289025 -28.791723596712309 5.562857688929566 #
vertex $-1 $432 $569 #
point $-1 -10.998482450180646 -28.791723596712309 5.562857688929566 #
vertex $-1 $436 $570 #
point $-1 -4.0993929800722668 -28.791723596712309 5.562857688929566 #
coedge $-1 $451 $450 $443 $536 forward $440 $-1 #
edge $-1 $537 31.426559930282103 $540 34.801347558925585 $535 $571 forward 7 unknown #
vertex $-1 $536 $572 #
straight-curve $-1 59.271908071872595 -31.823703619108237 49.948435647505804 0 0 1 I I #
edge $-1 $540 -35.385195261026617 $452 -12.388230360665339 $451 $573 forward 7 unknown #
vertex $-1 $539 $574 #
straight-curve $-1 59.271908071872595 -31.82370361910823 5.2200500123246059 0 -0.70710677298230451 -0.70710678939079041 I I #
point $-1 59.271908071872595 -31.823703619108237 5.2200500123245988 #
point $-1 36.274943171511318 -28.448915990464752 8.5948377192803811 #
straight-curve $-1 0 -31.823703619108237 8.5948377192803811 1 0 0 I I #
vertex $-1 $458 $575 #
point $-1 41.374336151583563 -28.791723596712309 5.562857688929566 #
vertex $-1 $462 $576 #
point $-1 48.273425621691942 -28.791723596712309 5.562857688929566 #
vertex $-1 $466 $577 #
point $-1 55.172515091800321 -28.791723596712309 5.562857688929566 #
straight-curve $-1 -66.946623126926482 31.823703619108237 0 0 0 -1 I I #
point $-1 -66.946623126926482 -31.823703619108237 -8.5948377192803811 #
straight-curve $-1 -66.946623126926482 0 -8.5948377192803811 0 1 0 I I #
point $-1 -66.946623126926482 31.823703619108237 -8.5948377192803811 #
straight-curve $-1 -66.946623126926482 0 -6.8905865244001809 0 -1 0 I I #
point $-1 -66.946623126926482 -31.823703619108237 -6.8905865244001809 #
point $-1 -66.946623126926482 31.823703619108237 -6.8905865244001809 #
straight-curve $-1 -66.946623126926482 31.823703619108237 0 0 0 -1 I I #
straight-curve $-1 -66.946623126926482 -31.823703619108237 0 0 0 -1 I I #
straight-curve $-1 59.271908071872602 0 -6.8905865244001809 0 1 0 I I #
point $-1 59.271908071872602 31.823703619108237 -6.8905865244001809 #
point $-1 59.271908071872602 -31.823703619108237 -6.8905865244001809 #
straight-curve $-1 59.271908071872602 -31.823703619108237 -2.5805765726262608 0 0 -1 I I #
straight-curve $-1 0 -63.25026354939034 8.5948377192803775 0 1 0 I I #
point $-1 0 -31.823703619108237 8.5948377192803811 #
straight-curve $-1 -5.7492412250903193 -28.448915990464752 8.5948377192803811 -1 0 0 I I #
point $-1 0 -28.448915990464752 8.5948377192803811 #
point $-1 -18.397571920289025 -28.438170202016913 5.2093043024384142 #
point $-1 -11.498482450180646 -28.438170202016913 5.2093043024384142 #
point $-1 -4.5993929800722668 -28.438170202016913 5.2093043024384142 #
straight-curve $-1 59.271908071872595 -63.25026354939034 8.5948377192803775 0 1 0 I I #
point $-1 59.271908071872595 -31.823703619108237 8.5948377192803811 #
straight-curve $-1 23.886712810845978 -28.448915990464752 8.5948377192803811 -1 0 0 I I #
point $-1 59.271908071872595 -28.448915990464752 8.5948377192803811 #
point $-1 40.874336151583563 -28.438170202016913 5.2093043024384142 #
point $-1 47.773425621691942 -28.438170202016913 5.2093043024384142 #
point $-1 54.672515091800321 -28.438170202016913 5.2093043024384142 #
End-of-ACIS-data 