500 0 6 0           
7 Unknown 11 ACIS 5.0 NT 24 Thu Mar 25 23:33:58 1999 
-1 9.9999999999999995e-007 1e-010 
body $-1 $6 $-1 $7 #
body $-1 $8 $-1 $9 #
body $-1 $10 $-1 $11 #
body $-1 $12 $-1 $13 #
body $-1 $14 $-1 $15 #
body $-1 $16 $-1 $17 #
lump $-1 $-1 $18 $0 #
transform $-1 1 0 0 0 1 0 0 0 1 44.495986816003906 18.340217253321498 4.3528001201095803 1 rotate no_reflect no_shear #
lump $-1 $-1 $19 $1 #
transform $-1 1 0 0 0 1 0 0 0 1 44.495986816003906 18.340217253321498 4.3528001201095803 1 rotate no_reflect no_shear #
lump $-1 $-1 $20 $2 #
transform $-1 1 0 0 0 1 0 0 0 1 44.495986816003906 18.340217253321498 4.3528001201095803 1 rotate no_reflect no_shear #
lump $-1 $-1 $21 $3 #
transform $-1 1 0 0 0 1 0 0 0 1 44.495986816003906 18.340217253321498 4.3528001201095803 1 rotate no_reflect no_shear #
lump $-1 $-1 $22 $4 #
transform $-1 1 0 0 0 1 0 0 0 1 44.495986816003906 18.340217253321498 4.3528001201095803 1 rotate no_reflect no_shear #
lump $-1 $-1 $23 $5 #
transform $-1 1 0 0 0 1 0 0 0 1 44.495986816003906 18.340217253321498 4.3528001201095803 1 rotate no_reflect no_shear #
shell $-1 $-1 $-1 $24 $-1 $6 #
shell $-1 $-1 $-1 $25 $-1 $8 #
shell $-1 $-1 $-1 $26 $-1 $10 #
shell $-1 $-1 $-1 $27 $-1 $12 #
shell $-1 $-1 $-1 $28 $-1 $14 #
shell $-1 $-1 $-1 $29 $-1 $16 #
face $-1 $30 $31 $18 $-1 $32 forward single #
face $-1 $33 $34 $19 $-1 $35 reversed single #
face $-1 $36 $37 $20 $-1 $38 reversed single #
face $-1 $39 $40 $21 $-1 $41 forward single #
face $-1 $42 $43 $22 $-1 $44 forward single #
face $-1 $45 $46 $23 $-1 $47 forward single #
face $-1 $48 $49 $18 $-1 $50 reversed single #
loop $-1 $-1 $51 $24 #
plane-surface $-1 0 0 4.3528001201095803 0 0 1 1 0 0 forward_v I I I I #
face $-1 $52 $53 $19 $-1 $54 reversed single #
loop $-1 $-1 $55 $25 #
plane-surface $-1 -41.708621902028696 -16.27438146579258 0 0 1 0 0 0 1 forward_v I I I I #
face $-1 $56 $57 $20 $-1 $58 reversed single #
loop $-1 $-1 $59 $26 #
plane-surface $-1 37.909316740821041 11.185053766201094 126.39698507810164 0 1 0 0.66913061440640931 0 0.74314481823134659 forward_v I I I I #
face $-1 $60 $61 $21 $-1 $62 forward single #
loop $-1 $63 $64 $27 #
cone-surface $-1 42.027649392110412 12.616086463625173 2.0359801408936362 -0.66913061440640931 0 -0.74314481823134659 0.3715724091156733 0 -0.33456530720320465 1 I I 0 1 0.5 forward I I I I #
face $-1 $65 $66 $22 $-1 $67 forward single #
loop $-1 $68 $69 $28 #
cone-surface $-1 42.027649392110412 14.762635509761296 2.0359801408936362 -0.66913061440640931 0 -0.74314481823134659 0.3715724091156733 0 -0.33456530720320465 1 I I 0 1 0.5 forward I I I I #
face $-1 $70 $71 $23 $-1 $72 forward single #
loop $-1 $73 $74 $29 #
cone-surface $-1 42.027649392110412 16.909184555897419 2.0359801408936362 -0.66913061440640931 0 -0.74314481823134659 0.3715724091156733 0 -0.33456530720320465 1 I I 0 1 0.5 forward I I I I #
face $-1 $75 $76 $18 $-1 $77 reversed single #
loop $-1 $-1 $78 $30 #
plane-surface $-1 0 0 -4.3528001201095803 0 0 1 1 0 0 forward_v I I I I #
coedge $-1 $79 $80 $81 $82 forward $31 $-1 #
face $-1 $83 $84 $19 $-1 $85 reversed single #
loop $-1 $-1 $86 $33 #
plane-surface $-1 -41.708621902028696 -13.274381465792578 0 0 -1 0 0 0 -1 forward_v I I I I #
coedge $-1 $87 $88 $89 $90 reversed $34 $-1 #
face $-1 $91 $92 $20 $-1 $93 reversed single #
loop $-1 $-1 $94 $36 #
plane-surface $-1 -21.637937252803326 14.762635509761296 60.263061009294404 0.66913061440640931 0 0.74314481823134659 0.74314481823134659 0 -0.66913061440640931 forward_v I I I I #
coedge $-1 $95 $96 $97 $98 reversed $37 $-1 #
face $-1 $-1 $99 $21 $-1 $100 forward single #
loop $-1 $101 $102 $39 #
cone-surface $-1 41.411674299701744 12.616086463625173 1.3518705093396237 -0.66913061440640931 0 -0.74314481823134659 0.18578620455783665 0 -0.16728265360160233 1 I I -0.70710678118654746 0.70710678118654746 0.25 forward I I I I #
loop $-1 $-1 $103 $27 #
coedge $-1 $64 $64 $104 $105 reversed $40 $-1 #
face $-1 $-1 $106 $22 $-1 $107 forward single #
loop $-1 $108 $109 $42 #
cone-surface $-1 41.411674299701744 14.762635509761296 1.3518705093396237 -0.66913061440640931 0 -0.74314481823134659 0.18578620455783665 0 -0.16728265360160233 1 I I -0.70710678118654746 0.70710678118654746 0.25 forward I I I I #
loop $-1 $-1 $110 $28 #
coedge $-1 $69 $69 $111 $112 reversed $43 $-1 #
face $-1 $-1 $113 $23 $-1 $114 forward single #
loop $-1 $115 $116 $45 #
cone-surface $-1 41.411674299701744 16.909184555897419 1.3518705093396237 -0.66913061440640931 0 -0.74314481823134659 0.18578620455783665 0 -0.16728265360160233 1 I I -0.70710678118654746 0.70710678118654746 0.25 forward I I I I #
loop $-1 $-1 $117 $29 #
coedge $-1 $74 $74 $118 $119 reversed $46 $-1 #
face $-1 $120 $121 $18 $-1 $122 reversed single #
loop $-1 $-1 $123 $48 #
plane-surface $-1 0 -18.340217253321498 0 0 1 0 0 0 1 forward_v I I I I #
coedge $-1 $124 $125 $126 $127 forward $49 $-1 #
coedge $-1 $128 $51 $129 $130 forward $31 $-1 #
coedge $-1 $51 $128 $131 $132 forward $31 $-1 #
coedge $-1 $133 $134 $51 $82 reversed $135 $-1 #
edge $-1 $136 -18.340217253321498 $137 18.340217253321498 $81 $138 forward 7 unknown #
face $-1 $139 $140 $19 $-1 $141 reversed single #
loop $-1 $-1 $142 $52 #
plane-surface $-1 -38.921256988053486 -14.774381465792578 0 -1 0 0 0 0 1 forward_v I I I I #
coedge $-1 $143 $144 $145 $146 forward $53 $-1 #
coedge $-1 $147 $55 $148 $149 reversed $34 $-1 #
coedge $-1 $55 $147 $150 $151 reversed $34 $-1 #
coedge $-1 $152 $153 $55 $90 forward $154 $-1 #
edge $-1 $155 -4.3528001201095803 $156 4.3528001201095803 $89 $157 forward 7 unknown #
face $-1 $158 $159 $20 $-1 $160 reversed single #
loop $-1 $-1 $97 $56 #
plane-surface $-1 44.495986816003906 0 0 -1 0 0 0 0 1 forward_v I I I I #
coedge $-1 $161 $162 $163 $164 reversed $57 $-1 #
coedge $-1 $96 $59 $165 $166 reversed $37 $-1 #
coedge $-1 $59 $95 $161 $167 reversed $37 $-1 #
coedge $-1 $163 $168 $59 $98 forward $92 $-1 #
edge $-1 $169 58.84569241894124 $170 62.482685523380781 $97 $171 forward 7 unknown #
loop $-1 $-1 $104 $60 #
plane-surface $-1 -21.637937252803326 14.762635509761296 60.263061009294404 0.66913061440640931 0 0.74314481823134659 0.74314481823134659 0 -0.66913061440640931 forward_v I I I I #
loop $-1 $-1 $172 $39 #
coedge $-1 $102 $102 $103 $173 reversed $61 $-1 #
coedge $-1 $103 $103 $102 $173 forward $63 $-1 #
coedge $-1 $104 $104 $64 $105 forward $99 $-1 #
edge $-1 $174 0 $174 6.2831853071796004 $104 $175 forward 7 unknown #
loop $-1 $-1 $111 $65 #
plane-surface $-1 -21.637937252803326 14.762635509761296 60.263061009294404 0.66913061440640931 0 0.74314481823134659 0.74314481823134659 0 -0.66913061440640931 forward_v I I I I #
loop $-1 $-1 $176 $42 #
coedge $-1 $109 $109 $110 $177 reversed $66 $-1 #
coedge $-1 $110 $110 $109 $177 forward $68 $-1 #
coedge $-1 $111 $111 $69 $112 forward $106 $-1 #
edge $-1 $178 0 $178 6.2831853071796004 $111 $179 forward 7 unknown #
loop $-1 $-1 $118 $70 #
plane-surface $-1 -21.637937252803326 14.762635509761296 60.263061009294404 0.66913061440640931 0 0.74314481823134659 0.74314481823134659 0 -0.66913061440640931 forward_v I I I I #
loop $-1 $-1 $180 $45 #
coedge $-1 $116 $116 $117 $181 reversed $71 $-1 #
coedge $-1 $117 $117 $116 $181 forward $73 $-1 #
coedge $-1 $118 $118 $74 $119 forward $113 $-1 #
edge $-1 $182 0 $182 6.2831853071796004 $118 $183 forward 7 unknown #
face $-1 $184 $185 $18 $-1 $186 reversed single #
loop $-1 $-1 $187 $75 #
plane-surface $-1 -44.495986816003906 0 0 1 0 0 0 0 -1 forward_v I I I I #
coedge $-1 $188 $131 $189 $190 forward $76 $-1 #
coedge $-1 $191 $78 $188 $192 forward $49 $-1 #
coedge $-1 $78 $191 $193 $194 forward $49 $-1 #
coedge $-1 $134 $133 $78 $127 reversed $135 $-1 #
edge $-1 $195 -18.340217253321498 $196 18.340217253321498 $126 $197 forward 7 unknown #
coedge $-1 $80 $79 $198 $199 forward $31 $-1 #
coedge $-1 $200 $201 $79 $130 reversed $185 $-1 #
edge $-1 $137 -44.495986816003906 $202 44.495986816003906 $129 $203 forward 7 unknown #
coedge $-1 $123 $204 $80 $132 reversed $76 $-1 #
edge $-1 $205 -44.495986816003906 $136 44.495986816003906 $131 $206 forward 7 unknown #
coedge $-1 $126 $81 $204 $207 forward $135 $-1 #
coedge $-1 $81 $126 $200 $208 reversed $135 $-1 #
loop $-1 $-1 $133 $184 #
vertex $-1 $82 $209 #
vertex $-1 $82 $210 #
straight-curve $-1 44.495986816003906 0 4.3528001201095803 0 1 0 I I #
face $-1 $211 $212 $19 $-1 $213 forward single #
loop $-1 $-1 $214 $83 #
plane-surface $-1 0 0 -4.3528001201095803 0 0 1 1 0 0 forward_v I I I I #
coedge $-1 $215 $216 $147 $217 forward $84 $-1 #
coedge $-1 $218 $86 $214 $219 reversed $53 $-1 #
coedge $-1 $86 $218 $220 $221 reversed $53 $-1 #
coedge $-1 $216 $215 $86 $146 reversed $84 $-1 #
edge $-1 $222 -4.3528001201095803 $223 4.3528001201095803 $145 $224 forward 7 unknown #
coedge $-1 $88 $87 $142 $217 reversed $34 $-1 #
coedge $-1 $225 $226 $87 $149 forward $140 $-1 #
edge $-1 $227 18.066946037039138 $155 23.641675864989558 $148 $228 forward 7 unknown #
coedge $-1 $229 $230 $88 $151 forward $212 $-1 #
edge $-1 $156 -23.641675864989558 $231 -18.066946037039138 $150 $232 forward 7 unknown #
coedge $-1 $233 $89 $230 $234 reversed $154 $-1 #
coedge $-1 $89 $233 $225 $235 reversed $154 $-1 #
loop $-1 $-1 $233 $211 #
vertex $-1 $235 $236 #
vertex $-1 $90 $237 #
straight-curve $-1 -44.495986816003906 -16.27438146579258 0 0 0 1 I I #
face $-1 $-1 $238 $20 $-1 $239 forward single #
loop $-1 $-1 $240 $91 #
plane-surface $-1 0 18.340217253321498 0 0 -1 0 0 0 -1 forward_v I I I I #
coedge $-1 $241 $94 $96 $167 forward $57 $-1 #
coedge $-1 $94 $241 $240 $242 reversed $57 $-1 #
coedge $-1 $243 $97 $94 $164 forward $92 $-1 #
edge $-1 $170 3.8037360113204457 $244 10.95889949844085 $163 $245 forward 7 unknown #
coedge $-1 $246 $247 $95 $166 forward $238 $-1 #
edge $-1 $248 21.502038475420576 $169 25.541328445593386 $165 $249 forward 7 unknown #
edge $-1 $170 -88.991973632007813 $248 -83.556572790774538 $96 $250 forward 7 unknown #
coedge $-1 $97 $243 $246 $251 reversed $92 $-1 #
vertex $-1 $251 $252 #
vertex $-1 $98 $253 #
straight-curve $-1 44.495986816003906 11.185053766201094 63.198492539050818 0 0 -1 I I #
coedge $-1 $172 $172 $-1 $254 reversed $101 $-1 #
edge $-1 $255 0 $255 6.2831853071796004 $102 $256 forward 7 unknown #
vertex $-1 $105 $257 #
ellipse-curve $-1 42.476341830917491 12.616086463625173 2.5343035678898245 0.66913061440640931 0 0.74314481823134659 0.3715724091156733 0 -0.33456530720320465 1 I I #
coedge $-1 $176 $176 $-1 $258 reversed $108 $-1 #
edge $-1 $259 0 $259 6.2831853071796004 $109 $260 forward 7 unknown #
vertex $-1 $112 $261 #
ellipse-curve $-1 42.476341830917491 14.762635509761296 2.5343035678898245 0.66913061440640931 0 0.74314481823134659 0.3715724091156733 0 -0.33456530720320465 1 I I #
coedge $-1 $180 $180 $-1 $262 reversed $115 $-1 #
edge $-1 $263 0 $263 6.2831853071796004 $116 $264 forward 7 unknown #
vertex $-1 $119 $265 #
ellipse-curve $-1 42.476341830917491 16.909184555897419 2.5343035678898245 0.66913061440640931 0 0.74314481823134659 0.3715724091156733 0 -0.33456530720320465 1 I I #
face $-1 $-1 $135 $18 $-1 $266 reversed single #
loop $-1 $-1 $200 $120 #
plane-surface $-1 0 18.340217253321498 0 0 -1 0 0 0 -1 forward_v I I I I #
coedge $-1 $267 $198 $201 $268 forward $121 $-1 #
coedge $-1 $204 $123 $124 $192 reversed $76 $-1 #
coedge $-1 $198 $267 $123 $190 reversed $121 $-1 #
edge $-1 $205 -4.3528001201095803 $269 4.3528001201095803 $189 $270 forward 7 unknown #
coedge $-1 $125 $124 $267 $271 forward $49 $-1 #
edge $-1 $196 -44.495986816003906 $269 44.495986816003906 $188 $272 forward 7 unknown #
coedge $-1 $201 $200 $125 $194 reversed $185 $-1 #
edge $-1 $273 -44.495986816003906 $195 44.495986816003906 $193 $274 forward 7 unknown #
vertex $-1 $127 $275 #
vertex $-1 $207 $276 #
straight-curve $-1 44.495986816003906 0 -4.3528001201095803 0 -1 0 I I #
coedge $-1 $187 $189 $128 $199 reversed $121 $-1 #
edge $-1 $202 -18.340217253321498 $205 18.340217253321498 $198 $277 forward 7 unknown #
coedge $-1 $193 $129 $134 $208 forward $185 $-1 #
coedge $-1 $129 $193 $187 $268 reversed $185 $-1 #
vertex $-1 $130 $278 #
straight-curve $-1 0 18.340217253321498 4.3528001201095803 -1 0 0 I I #
coedge $-1 $131 $188 $133 $207 reversed $76 $-1 #
vertex $-1 $199 $279 #
straight-curve $-1 0 -18.340217253321498 4.3528001201095803 1 0 0 I I #
edge $-1 $136 -4.3528001201095803 $196 4.3528001201095803 $133 $280 forward 7 unknown #
edge $-1 $137 -4.3528001201095803 $195 4.3528001201095803 $134 $281 forward 7 unknown #
point $-1 44.495986816003906 -18.340217253321498 4.3528001201095803 #
point $-1 44.495986816003906 18.340217253321498 4.3528001201095803 #
face $-1 $-1 $154 $19 $-1 $282 reversed single #
loop $-1 $-1 $220 $139 #
plane-surface $-1 0 0 4.3528001201095803 0 0 1 1 0 0 forward_v I I I I #
coedge $-1 $226 $225 $143 $219 forward $140 $-1 #
coedge $-1 $145 $142 $226 $283 reversed $84 $-1 #
coedge $-1 $142 $145 $229 $284 reversed $84 $-1 #
edge $-1 $231 -4.3528001201095803 $227 4.3528001201095803 $142 $285 forward 7 unknown #
coedge $-1 $144 $143 $233 $286 reversed $53 $-1 #
edge $-1 $287 -23.641675864989558 $223 -18.066946037039138 $214 $288 forward 7 unknown #
coedge $-1 $230 $229 $144 $221 forward $212 $-1 #
edge $-1 $222 18.066946037039138 $289 23.641675864989558 $220 $290 forward 7 unknown #
vertex $-1 $221 $291 #
vertex $-1 $219 $292 #
straight-curve $-1 -38.921256988053486 -13.274381465792578 0 0 0 -1 I I #
coedge $-1 $214 $148 $153 $235 forward $140 $-1 #
coedge $-1 $148 $214 $215 $283 forward $140 $-1 #
vertex $-1 $149 $293 #
straight-curve $-1 -20.854310951014348 -16.27438146579258 -4.3528001201095803 -1 0 0 I I #
coedge $-1 $220 $150 $216 $284 forward $212 $-1 #
coedge $-1 $150 $220 $152 $234 forward $212 $-1 #
vertex $-1 $151 $294 #
straight-curve $-1 -20.854310951014348 -16.27438146579258 4.3528001201095803 1 0 0 I I #
coedge $-1 $153 $152 $218 $286 forward $154 $-1 #
edge $-1 $289 13.274381465792578 $156 16.27438146579258 $152 $295 forward 7 unknown #
edge $-1 $155 -16.27438146579258 $287 -13.274381465792578 $153 $296 forward 7 unknown #
point $-1 -44.495986816003906 -16.27438146579258 -4.3528001201095803 #
point $-1 -44.495986816003906 -16.27438146579258 4.3528001201095803 #
loop $-1 $-1 $165 $158 #
plane-surface $-1 0 0 4.3528001201095803 0 0 1 1 0 0 forward_v I I I I #
coedge $-1 $297 $298 $162 $242 forward $159 $-1 #
coedge $-1 $162 $161 $247 $299 reversed $57 $-1 #
edge $-1 $244 -60.789983639109856 $300 -55.354582797876589 $240 $301 forward 7 unknown #
coedge $-1 $168 $163 $298 $302 reversed $92 $-1 #
vertex $-1 $242 $303 #
straight-curve $-1 44.495986816003906 7.3813177548806479 0.71580701567004823 0 1 0 I I #
coedge $-1 $304 $165 $168 $251 forward $238 $-1 #
coedge $-1 $165 $304 $241 $299 forward $238 $-1 #
vertex $-1 $166 $305 #
straight-curve $-1 18.95465837041052 11.185053766201094 4.3528001201095776 1 0 0 I I #
straight-curve $-1 -21.637937252803326 11.185053766201094 60.263061009294404 -0.74314481823134659 0 0.66913061440640931 I I #
edge $-1 $169 11.185053766201094 $306 18.340217253321498 $168 $307 forward 7 unknown #
point $-1 44.495986816003906 11.185053766201094 4.3528001201095803 #
point $-1 44.495986816003906 11.185053766201094 0.71580701567003757 #
edge $-1 $308 1 $308 0 $172 $-1 forward 7 unknown #
vertex $-1 $173 $309 #
ellipse-curve $-1 41.578956953303347 12.616086463625173 1.5376567138974604 0.66913061440640931 0 0.74314481823134659 0.3715724091156733 0 -0.33456530720320465 1 I I #
point $-1 42.847914240033155 12.616086463625173 2.1997382606866078 #
edge $-1 $310 1 $310 0 $176 $-1 forward 7 unknown #
vertex $-1 $177 $311 #
ellipse-curve $-1 41.578956953303347 14.762635509761296 1.5376567138974604 0.66913061440640931 0 0.74314481823134659 0.3715724091156733 0 -0.33456530720320465 1 I I #
point $-1 42.847914240033155 14.762635509761296 2.1997382606866078 #
edge $-1 $312 1 $312 0 $180 $-1 forward 7 unknown #
vertex $-1 $181 $313 #
ellipse-curve $-1 41.578956953303347 16.909184555897419 1.5376567138974604 0.66913061440640931 0 0.74314481823134659 0.3715724091156733 0 -0.33456530720320465 1 I I #
point $-1 42.847914240033155 16.909184555897419 2.1997382606866078 #
plane-surface $-1 44.495986816003906 0 0 -1 0 0 0 0 1 forward_v I I I I #
coedge $-1 $189 $187 $191 $271 reversed $121 $-1 #
edge $-1 $202 -4.3528001201095803 $273 4.3528001201095803 $201 $314 forward 7 unknown #
vertex $-1 $271 $315 #
straight-curve $-1 -44.495986816003906 -18.340217253321498 0 0 0 -1 I I #
edge $-1 $269 -18.340217253321498 $273 18.340217253321498 $267 $316 forward 7 unknown #
straight-curve $-1 0 -18.340217253321498 -4.3528001201095803 -1 0 0 I I #
vertex $-1 $194 $317 #
straight-curve $-1 0 18.340217253321498 -4.3528001201095803 1 0 0 I I #
point $-1 44.495986816003906 18.340217253321498 -4.3528001201095803 #
point $-1 44.495986816003906 -18.340217253321498 -4.3528001201095803 #
straight-curve $-1 -44.495986816003906 0 4.3528001201095803 0 -1 0 I I #
point $-1 -44.495986816003906 18.340217253321498 4.3528001201095803 #
point $-1 -44.495986816003906 -18.340217253321498 4.3528001201095803 #
straight-curve $-1 44.495986816003906 -18.340217253321498 0 0 0 -1 I I #
straight-curve $-1 44.495986816003906 18.340217253321498 0 0 0 -1 I I #
plane-surface $-1 -44.495986816003906 0 0 1 0 0 0 0 -1 forward_v I I I I #
edge $-1 $223 5.8871907328962889 $227 8.8871907328962898 $226 $318 forward 7 unknown #
edge $-1 $231 -8.8871907328962898 $222 -5.8871907328962889 $229 $319 forward 7 unknown #
straight-curve $-1 -38.921256988053486 -16.27438146579258 0 0 0 -1 I I #
edge $-1 $289 -4.3528001201095803 $287 4.3528001201095803 $233 $320 forward 7 unknown #
vertex $-1 $286 $321 #
straight-curve $-1 -20.854310951014348 -13.274381465792578 -4.3528001201095803 1 0 0 I I #
vertex $-1 $234 $322 #
straight-curve $-1 -20.854310951014348 -13.274381465792578 4.3528001201095803 -1 0 0 I I #
point $-1 -38.921256988053486 -13.274381465792578 4.3528001201095803 #
point $-1 -38.921256988053486 -13.274381465792578 -4.3528001201095803 #
point $-1 -38.921256988053486 -16.27438146579258 -4.3528001201095803 #
point $-1 -38.921256988053486 -16.27438146579258 4.3528001201095803 #
straight-curve $-1 -44.495986816003906 0 4.3528001201095803 0 -1 0 I I #
straight-curve $-1 -44.495986816003906 0 -4.3528001201095803 0 1 0 I I #
coedge $-1 $298 $240 $304 $323 reversed $159 $-1 #
coedge $-1 $240 $297 $243 $302 forward $159 $-1 #
edge $-1 $300 -10.95889949844085 $248 -3.8037360113204457 $247 $324 forward 7 unknown #
vertex $-1 $242 $325 #
straight-curve $-1 -0.67977452576892006 18.340217253321498 41.392246117863195 -0.74314481823134659 0 0.66913061440640931 I I #
edge $-1 $306 -4.3528001201095803 $244 -0.71580701567004557 $243 $326 forward 7 unknown #
point $-1 44.495986816003906 18.340217253321498 0.71580701567004557 #
coedge $-1 $247 $246 $297 $323 forward $238 $-1 #
point $-1 40.456696845831097 11.185053766201094 4.3528001201095776 #
vertex $-1 $251 $327 #
straight-curve $-1 44.495986816003906 0 4.3528001201095803 0 1 0 I I #
vertex $-1 $254 $328 #
point $-1 41.950529362419019 12.616086463625173 1.2030914066942557 #
vertex $-1 $258 $329 #
point $-1 41.950529362419019 14.762635509761296 1.2030914066942557 #
vertex $-1 $262 $330 #
point $-1 41.950529362419019 16.909184555897419 1.2030914066942557 #
straight-curve $-1 -44.495986816003906 18.340217253321498 0 0 0 -1 I I #
point $-1 -44.495986816003906 -18.340217253321498 -4.3528001201095803 #
straight-curve $-1 -44.495986816003906 0 -4.3528001201095803 0 1 0 I I #
point $-1 -44.495986816003906 18.340217253321498 -4.3528001201095803 #
straight-curve $-1 -38.921256988053486 -7.3871907328962889 -4.3528001201095803 0 -1 0 I I #
straight-curve $-1 -38.921256988053486 -7.3871907328962889 4.3528001201095803 0 1 0 I I #
straight-curve $-1 -44.495986816003906 -13.274381465792578 0 0 0 -1 I I #
point $-1 -44.495986816003906 -13.274381465792578 -4.3528001201095803 #
point $-1 -44.495986816003906 -13.274381465792578 4.3528001201095803 #
edge $-1 $306 -44.495986816003906 $300 -40.456696845831097 $297 $331 forward 7 unknown #
straight-curve $-1 40.456696845831097 7.3813177548806479 4.3528001201095705 0 -1 0 I I #
point $-1 40.456696845831097 18.340217253321498 4.3528001201095776 #
straight-curve $-1 44.495986816003906 18.340217253321498 0 0 0 -1 I I #
point $-1 44.495986816003906 18.340217253321498 4.3528001201095803 #
point $-1 41.244391646100141 12.616086463625173 1.166084304781787 #
point $-1 41.244391646100141 14.762635509761296 1.166084304781787 #
point $-1 41.244391646100141 16.909184555897419 1.166084304781787 #
straight-curve $-1 0 18.340217253321498 4.3528001201095803 -1 0 0 I I #
End-of-ACIS-data 