500 0 12 0           
7 Unknown 11 ACIS 5.0 NT 24 Thu Mar 25 15:49:19 1999 
-1 9.9999999999999995e-007 1e-010 
body $-1 $12 $-1 $13 #
body $-1 $14 $-1 $15 #
body $-1 $16 $-1 $17 #
body $-1 $18 $-1 $19 #
body $-1 $20 $-1 $21 #
body $-1 $22 $-1 $23 #
body $-1 $24 $-1 $25 #
body $-1 $26 $-1 $27 #
body $-1 $28 $-1 $29 #
body $-1 $30 $-1 $31 #
body $-1 $32 $-1 $33 #
body $-1 $34 $-1 $35 #
lump $-1 $-1 $36 $0 #
transform $-1 1 0 0 0 1 0 0 0 1 71.214331492049922 36.29025130124672 16.031304622346145 1 rotate no_reflect no_shear #
lump $-1 $-1 $37 $1 #
transform $-1 1 0 0 0 1 0 0 0 1 71.214331492049922 36.29025130124672 16.031304622346145 1 rotate no_reflect no_shear #
lump $-1 $-1 $38 $2 #
transform $-1 1 0 0 0 1 0 0 0 1 71.214331492049922 36.29025130124672 16.031304622346145 1 rotate no_reflect no_shear #
lump $-1 $-1 $39 $3 #
transform $-1 1 0 0 0 1 0 0 0 1 71.214331492049922 36.29025130124672 16.031304622346145 1 rotate no_reflect no_shear #
lump $-1 $-1 $40 $4 #
transform $-1 1 0 0 0 1 0 0 0 1 71.214331492049922 36.29025130124672 16.031304622346145 1 rotate no_reflect no_shear #
lump $-1 $-1 $41 $5 #
transform $-1 1 0 0 0 1 0 0 0 1 71.214331492049922 36.29025130124672 16.031304622346145 1 rotate no_reflect no_shear #
lump $-1 $-1 $42 $6 #
transform $-1 1 0 0 0 1 0 0 0 1 71.214331492049922 36.29025130124672 16.031304622346145 1 rotate no_reflect no_shear #
lump $-1 $-1 $43 $7 #
transform $-1 1 0 0 0 1 0 0 0 1 71.214331492049922 36.29025130124672 16.031304622346145 1 rotate no_reflect no_shear #
lump $-1 $-1 $44 $8 #
transform $-1 1 0 0 0 1 0 0 0 1 71.214331492049922 36.29025130124672 16.031304622346145 1 rotate no_reflect no_shear #
lump $-1 $-1 $45 $9 #
transform $-1 1 0 0 0 1 0 0 0 1 71.214331492049922 36.29025130124672 16.031304622346145 1 rotate no_reflect no_shear #
lump $-1 $-1 $46 $10 #
transform $-1 1 0 0 0 1 0 0 0 1 71.214331492049922 36.29025130124672 16.031304622346145 1 rotate no_reflect no_shear #
lump $-1 $-1 $47 $11 #
transform $-1 1 0 0 0 1 0 0 0 1 71.214331492049922 36.29025130124672 16.031304622346145 1 rotate no_reflect no_shear #
shell $-1 $-1 $-1 $48 $-1 $12 #
shell $-1 $-1 $-1 $49 $-1 $14 #
shell $-1 $-1 $-1 $50 $-1 $16 #
shell $-1 $-1 $-1 $51 $-1 $18 #
shell $-1 $-1 $-1 $52 $-1 $20 #
shell $-1 $-1 $-1 $53 $-1 $22 #
shell $-1 $-1 $-1 $54 $-1 $24 #
shell $-1 $-1 $-1 $55 $-1 $26 #
shell $-1 $-1 $-1 $56 $-1 $28 #
shell $-1 $-1 $-1 $57 $-1 $30 #
shell $-1 $-1 $-1 $58 $-1 $32 #
shell $-1 $-1 $-1 $59 $-1 $34 #
face $-1 $60 $61 $36 $-1 $62 forward single #
face $-1 $63 $64 $37 $-1 $65 forward single #
face $-1 $66 $67 $38 $-1 $68 reversed single #
face $-1 $69 $70 $39 $-1 $71 reversed single #
face $-1 $72 $73 $40 $-1 $74 forward single #
face $-1 $75 $76 $41 $-1 $77 forward single #
face $-1 $78 $79 $42 $-1 $80 reversed single #
face $-1 $81 $82 $43 $-1 $83 forward single #
face $-1 $84 $85 $44 $-1 $86 forward single #
face $-1 $87 $88 $45 $-1 $89 reversed single #
face $-1 $90 $91 $46 $-1 $92 forward single #
face $-1 $93 $94 $47 $-1 $95 forward single #
face $-1 $96 $97 $36 $-1 $98 reversed single #
loop $-1 $-1 $99 $48 #
plane-surface $-1 0 0 16.031304622346145 0 0 1 1 0 0 forward_v I I I I #
face $-1 $100 $101 $37 $-1 $102 reversed single #
loop $-1 $-1 $103 $49 #
plane-surface $-1 0 -36.29025130124672 0 0 1 0 0 0 1 forward_v I I I I #
face $-1 $104 $105 $38 $-1 $106 reversed single #
loop $-1 $-1 $107 $50 #
plane-surface $-1 -68.841119134140612 18.253690605679342 0 0 1 0 0 0 1 forward_v I I I I #
face $-1 $108 $109 $39 $-1 $110 reversed single #
loop $-1 $-1 $111 $51 #
plane-surface $-1 -164.6559429661385 -19.914719093030939 109.80408227543595 0 1 0 -0.6560590369687036 0 0.75470957328743171 forward_v I I I I #
face $-1 $112 $113 $40 $-1 $114 forward single #
loop $-1 $115 $116 $52 #
cone-surface $-1 -62.245226902497187 -16.789331828759639 7.9316123636374485 0.6560590369687036 0 -0.75470957328743171 1.1320643599311475 0 0.9840885554530554 1 I I 0 1 1.5 forward I I I I #
face $-1 $117 $118 $41 $-1 $119 forward single #
loop $-1 $120 $121 $53 #
cone-surface $-1 -62.245226902497187 -12.101250932352688 7.9316123636374485 0.6560590369687036 0 -0.75470957328743171 1.1320643599311475 0 0.9840885554530554 1 I I 0 1 1.5 forward I I I I #
face $-1 $122 $123 $42 $-1 $124 reversed single #
loop $-1 $-1 $125 $54 #
plane-surface $-1 29.335815057985286 -0.8305142436758004 205.76190936245129 0 -1 0 -0.54463904215088732 0 -0.83867056331134215 forward_v I I I I #
face $-1 $126 $127 $43 $-1 $128 forward single #
loop $-1 $129 $130 $55 #
cone-surface $-1 64.667199307920669 -6.0088230829102365 10.949170483022147 -0.54463904215088732 0 -0.83867056331134215 0.83867056331134215 0 -0.54463904215088732 1 I I 0 1 1 forward I I I I #
face $-1 $131 $132 $44 $-1 $133 forward single #
loop $-1 $134 $135 $56 #
cone-surface $-1 64.667199307920669 -2.901837779369572 10.949170483022147 -0.54463904215088732 0 -0.83867056331134215 0.83867056331134215 0 -0.54463904215088732 1 I I 0 1 1 forward I I I I #
face $-1 $136 $137 $45 $-1 $138 reversed single #
loop $-1 $-1 $139 $57 #
plane-surface $-1 29.335815057985286 18.253690605679338 205.76190936245129 0 -1 0 -0.54463904215088732 0 -0.83867056331134215 forward_v I I I I #
face $-1 $140 $141 $46 $-1 $142 forward single #
loop $-1 $143 $144 $58 #
cone-surface $-1 64.667199307920669 13.075381766444899 10.949170483022147 -0.54463904215088732 0 -0.83867056331134215 0.83867056331134215 0 -0.54463904215088732 1 I I 0 1 1 forward I I I I #
face $-1 $145 $146 $47 $-1 $147 forward single #
loop $-1 $148 $149 $59 #
cone-surface $-1 64.667199307920669 16.182367069985567 10.949170483022147 -0.54463904215088732 0 -0.83867056331134215 0.83867056331134215 0 -0.54463904215088732 1 I I 0 1 1 forward I I I I #
face $-1 $150 $151 $36 $-1 $152 reversed single #
loop $-1 $-1 $153 $60 #
plane-surface $-1 0 0 -16.031304622346145 0 0 1 1 0 0 forward_v I I I I #
coedge $-1 $154 $155 $156 $157 forward $61 $-1 #
face $-1 $158 $159 $37 $-1 $160 forward single #
loop $-1 $-1 $161 $63 #
plane-surface $-1 -71.214331492049922 0 0 1 0 0 0 0 -1 forward_v I I I I #
coedge $-1 $162 $163 $164 $165 forward $64 $-1 #
face $-1 $166 $167 $38 $-1 $168 reversed single #
loop $-1 $-1 $169 $66 #
plane-surface $-1 -66.467906776231303 27.271970953463033 0 -1 0 0 0 0 1 forward_v I I I I #
coedge $-1 $170 $171 $172 $173 reversed $67 $-1 #
face $-1 $174 $175 $39 $-1 $176 reversed single #
loop $-1 $-1 $177 $69 #
plane-surface $-1 -71.214331492049908 -14.445291380556164 2.3118068108065302 -0.6560590369687036 0 0.75470957328743171 0.75470957328743171 0 0.6560590369687036 forward_v I I I I #
coedge $-1 $178 $179 $180 $181 reversed $70 $-1 #
face $-1 $-1 $182 $40 $-1 $183 forward single #
loop $-1 $184 $185 $72 #
cone-surface $-1 -60.675316289404819 -16.789331828759639 6.1256368307329758 0.6560590369687036 0 -0.75470957328743171 0.56603217996557376 0 0.4920442777265277 1 I I -0.70710678118654757 0.70710678118654757 0.75 forward I I I I #
loop $-1 $-1 $186 $52 #
coedge $-1 $116 $116 $187 $188 reversed $73 $-1 #
face $-1 $-1 $189 $41 $-1 $190 forward single #
loop $-1 $191 $192 $75 #
cone-surface $-1 -60.675316289404819 -12.101250932352688 6.1256368307329758 0.6560590369687036 0 -0.75470957328743171 0.56603217996557376 0 0.4920442777265277 1 I I -0.70710678118654757 0.70710678118654757 0.75 forward I I I I #
loop $-1 $-1 $193 $53 #
coedge $-1 $121 $121 $194 $195 reversed $76 $-1 #
face $-1 $196 $197 $42 $-1 $198 reversed single #
loop $-1 $-1 $199 $78 #
plane-surface $-1 -48.236395524506392 -4.455330431139906 86.311182345894963 0.54463904215088732 0 0.83867056331134215 0.83867056331134215 0 -0.54463904215088732 forward_v I I I I #
coedge $-1 $200 $201 $202 $203 reversed $79 $-1 #
face $-1 $-1 $204 $43 $-1 $205 forward single #
loop $-1 $206 $207 $81 #
cone-surface $-1 63.462351435109866 -6.0088230829102365 9.0938674915139437 -0.54463904215088732 0 -0.83867056331134215 0.41933528165567108 0 -0.27231952107544366 1 I I -0.70710678118654624 0.70710678118654879 0.5 forward I I I I #
loop $-1 $-1 $208 $55 #
coedge $-1 $130 $130 $209 $210 reversed $82 $-1 #
face $-1 $-1 $211 $44 $-1 $212 forward single #
loop $-1 $213 $214 $84 #
cone-surface $-1 63.462351435109866 -2.901837779369572 9.0938674915139437 -0.54463904215088732 0 -0.83867056331134215 0.41933528165567108 0 -0.27231952107544366 1 I I -0.70710678118654624 0.70710678118654879 0.5 forward I I I I #
loop $-1 $-1 $215 $56 #
coedge $-1 $135 $135 $216 $217 reversed $85 $-1 #
face $-1 $218 $219 $45 $-1 $220 reversed single #
loop $-1 $-1 $221 $87 #
plane-surface $-1 -48.236395524506392 14.628874418215233 86.311182345894963 0.54463904215088732 0 0.83867056331134215 0.83867056331134215 0 -0.54463904215088732 forward_v I I I I #
coedge $-1 $222 $223 $224 $225 reversed $88 $-1 #
face $-1 $-1 $226 $46 $-1 $227 forward single #
loop $-1 $228 $229 $90 #
cone-surface $-1 63.462351435109866 13.075381766444899 9.0938674915139437 -0.54463904215088732 0 -0.83867056331134215 0.41933528165567108 0 -0.27231952107544366 1 I I -0.70710678118654624 0.70710678118654879 0.5 forward I I I I #
loop $-1 $-1 $230 $58 #
coedge $-1 $144 $144 $231 $232 reversed $91 $-1 #
face $-1 $-1 $233 $47 $-1 $234 forward single #
loop $-1 $235 $236 $93 #
cone-surface $-1 63.462351435109866 16.182367069985567 9.0938674915139437 -0.54463904215088732 0 -0.83867056331134215 0.41933528165567108 0 -0.27231952107544366 1 I I -0.70710678118654624 0.70710678118654879 0.5 forward I I I I #
loop $-1 $-1 $237 $59 #
coedge $-1 $149 $149 $238 $239 reversed $94 $-1 #
face $-1 $240 $241 $36 $-1 $242 reversed single #
loop $-1 $-1 $243 $96 #
plane-surface $-1 0 -36.29025130124672 0 0 1 0 0 0 1 forward_v I I I I #
coedge $-1 $244 $245 $246 $247 forward $97 $-1 #
coedge $-1 $248 $99 $249 $250 forward $61 $-1 #
coedge $-1 $99 $248 $251 $252 forward $61 $-1 #
coedge $-1 $253 $254 $99 $157 reversed $255 $-1 #
edge $-1 $256 -36.29025130124672 $257 36.29025130124672 $156 $258 forward 7 unknown #
face $-1 $259 $260 $37 $-1 $261 reversed single #
loop $-1 $-1 $262 $100 #
plane-surface $-1 0 -44.478017405354606 0.21813586767629634 0 0 1 1 0 0 forward_v I I I I #
coedge $-1 $263 $264 $163 $265 forward $101 $-1 #
coedge $-1 $266 $103 $267 $268 reversed $64 $-1 #
coedge $-1 $103 $266 $161 $265 reversed $64 $-1 #
coedge $-1 $269 $262 $103 $165 reversed $159 $-1 #
edge $-1 $270 -71.214331492049922 $271 71.214331492049922 $164 $272 forward 7 unknown #
face $-1 $273 $274 $38 $-1 $275 reversed single #
loop $-1 $-1 $276 $104 #
plane-surface $-1 0 36.29025130124672 0 0 -1 0 0 0 -1 forward_v I I I I #
coedge $-1 $277 $278 $279 $280 forward $105 $-1 #
coedge $-1 $279 $107 $281 $282 reversed $67 $-1 #
coedge $-1 $107 $279 $283 $284 reversed $67 $-1 #
coedge $-1 $285 $286 $107 $173 forward $287 $-1 #
edge $-1 $288 -16.031304622346145 $289 16.031304622346145 $172 $290 forward 7 unknown #
face $-1 $291 $292 $39 $-1 $293 forward single #
loop $-1 $-1 $294 $108 #
plane-surface $-1 -164.6559429661385 -8.9758636680813861 109.80408227543595 0 -1 0 0.6560590369687036 0 -0.75470957328743171 forward_v I I I I #
coedge $-1 $295 $296 $297 $298 reversed $109 $-1 #
coedge $-1 $179 $111 $299 $300 reversed $70 $-1 #
coedge $-1 $111 $178 $295 $301 reversed $70 $-1 #
coedge $-1 $297 $302 $111 $181 forward $292 $-1 #
edge $-1 $303 11.113639991019326 $304 26.896116499393159 $180 $305 forward 7 unknown #
loop $-1 $-1 $187 $112 #
plane-surface $-1 -71.214331492049908 -14.445291380556164 2.3118068108065302 -0.6560590369687036 0 0.75470957328743171 0.75470957328743171 0 0.6560590369687036 forward_v I I I I #
loop $-1 $-1 $306 $72 #
coedge $-1 $185 $185 $186 $307 reversed $113 $-1 #
coedge $-1 $186 $186 $185 $307 forward $115 $-1 #
coedge $-1 $187 $187 $116 $188 forward $182 $-1 #
edge $-1 $308 0 $308 6.2831853071796004 $187 $309 forward 7 unknown #
loop $-1 $-1 $194 $117 #
plane-surface $-1 -71.214331492049908 -14.445291380556164 2.3118068108065302 -0.6560590369687036 0 0.75470957328743171 0.75470957328743171 0 0.6560590369687036 forward_v I I I I #
loop $-1 $-1 $310 $75 #
coedge $-1 $192 $192 $193 $311 reversed $118 $-1 #
coedge $-1 $193 $193 $192 $311 forward $120 $-1 #
coedge $-1 $194 $194 $121 $195 forward $189 $-1 #
edge $-1 $312 0 $312 6.2831853071796004 $194 $313 forward 7 unknown #
face $-1 $314 $315 $42 $-1 $316 reversed single #
loop $-1 $-1 $317 $122 #
plane-surface $-1 29.335815057985286 -8.0801466186040116 205.76190936245129 0 1 0 0.54463904215088732 0 0.83867056331134215 forward_v I I I I #
coedge $-1 $318 $319 $320 $321 reversed $123 $-1 #
coedge $-1 $201 $125 $322 $323 reversed $79 $-1 #
coedge $-1 $125 $200 $318 $324 reversed $79 $-1 #
coedge $-1 $320 $325 $125 $203 forward $326 $-1 #
edge $-1 $327 -56.546423963057279 $328 -45.317216298269514 $202 $329 forward 7 unknown #
loop $-1 $-1 $209 $126 #
plane-surface $-1 -48.236395524506392 -4.455330431139906 86.311182345894963 0.54463904215088732 0 0.83867056331134215 0.83867056331134215 0 -0.54463904215088732 forward_v I I I I #
loop $-1 $-1 $330 $81 #
coedge $-1 $207 $207 $208 $331 reversed $127 $-1 #
coedge $-1 $208 $208 $207 $331 forward $129 $-1 #
coedge $-1 $209 $209 $130 $210 forward $204 $-1 #
edge $-1 $332 0 $332 6.2831853071796004 $209 $333 forward 7 unknown #
loop $-1 $-1 $216 $131 #
plane-surface $-1 -48.236395524506392 -4.455330431139906 86.311182345894963 0.54463904215088732 0 0.83867056331134215 0.83867056331134215 0 -0.54463904215088732 forward_v I I I I #
loop $-1 $-1 $334 $84 #
coedge $-1 $214 $214 $215 $335 reversed $132 $-1 #
coedge $-1 $215 $215 $214 $335 forward $134 $-1 #
coedge $-1 $216 $216 $135 $217 forward $211 $-1 #
edge $-1 $336 0 $336 6.2831853071796004 $216 $337 forward 7 unknown #
face $-1 $338 $339 $45 $-1 $340 reversed single #
loop $-1 $-1 $341 $136 #
plane-surface $-1 29.335815057985286 11.004058230751127 205.76190936245129 0 1 0 0.54463904215088732 0 0.83867056331134215 forward_v I I I I #
coedge $-1 $342 $343 $344 $345 reversed $137 $-1 #
coedge $-1 $223 $139 $346 $347 reversed $88 $-1 #
coedge $-1 $139 $222 $342 $348 reversed $88 $-1 #
coedge $-1 $344 $349 $139 $225 forward $350 $-1 #
edge $-1 $351 -56.546423963057279 $352 -45.317216298269514 $224 $353 forward 7 unknown #
loop $-1 $-1 $231 $140 #
plane-surface $-1 -48.236395524506392 14.628874418215233 86.311182345894963 0.54463904215088732 0 0.83867056331134215 0.83867056331134215 0 -0.54463904215088732 forward_v I I I I #
loop $-1 $-1 $354 $90 #
coedge $-1 $229 $229 $230 $355 reversed $141 $-1 #
coedge $-1 $230 $230 $229 $355 forward $143 $-1 #
coedge $-1 $231 $231 $144 $232 forward $226 $-1 #
edge $-1 $356 0 $356 6.2831853071796004 $231 $357 forward 7 unknown #
loop $-1 $-1 $238 $145 #
plane-surface $-1 -48.236395524506392 14.628874418215233 86.311182345894963 0.54463904215088732 0 0.83867056331134215 0.83867056331134215 0 -0.54463904215088732 forward_v I I I I #
loop $-1 $-1 $358 $93 #
coedge $-1 $236 $236 $237 $359 reversed $146 $-1 #
coedge $-1 $237 $237 $236 $359 forward $148 $-1 #
coedge $-1 $238 $238 $149 $239 forward $233 $-1 #
edge $-1 $360 0 $360 6.2831853071796004 $238 $361 forward 7 unknown #
face $-1 $362 $363 $36 $-1 $364 reversed single #
loop $-1 $-1 $365 $150 #
plane-surface $-1 -71.214331492049922 0 0 1 0 0 0 0 -1 forward_v I I I I #
coedge $-1 $366 $251 $367 $368 forward $151 $-1 #
coedge $-1 $369 $153 $366 $370 forward $97 $-1 #
coedge $-1 $153 $369 $371 $372 forward $97 $-1 #
coedge $-1 $254 $253 $153 $247 reversed $255 $-1 #
edge $-1 $373 -36.29025130124672 $374 36.29025130124672 $246 $375 forward 7 unknown #
coedge $-1 $155 $154 $376 $377 forward $61 $-1 #
coedge $-1 $378 $379 $154 $250 reversed $363 $-1 #
edge $-1 $257 -71.214331492049922 $380 71.214331492049922 $249 $381 forward 7 unknown #
coedge $-1 $243 $382 $155 $252 reversed $151 $-1 #
edge $-1 $383 -71.214331492049922 $256 71.214331492049922 $251 $384 forward 7 unknown #
coedge $-1 $246 $156 $382 $385 forward $255 $-1 #
coedge $-1 $156 $246 $378 $386 reversed $255 $-1 #
loop $-1 $-1 $253 $362 #
vertex $-1 $157 $387 #
vertex $-1 $157 $388 #
straight-curve $-1 71.214331492049922 0 16.031304622346145 0 1 0 I I #
face $-1 $389 $390 $37 $-1 $391 reversed single #
loop $-1 $-1 $392 $158 #
plane-surface $-1 0 -44.478017405354606 -6.6866708627284135 0 0 1 1 0 0 forward_v I I I I #
coedge $-1 $164 $393 $394 $395 forward $159 $-1 #
coedge $-1 $396 $161 $397 $398 reversed $101 $-1 #
coedge $-1 $161 $396 $269 $399 reversed $101 $-1 #
edge $-1 $270 -0.21813586767629634 $400 6.6866708627284135 $161 $401 forward 7 unknown #
coedge $-1 $163 $162 $402 $403 forward $64 $-1 #
coedge $-1 $394 $404 $162 $268 forward $405 $-1 #
edge $-1 $406 -6.6866708627284135 $271 0.21813586767629634 $267 $407 forward 7 unknown #
coedge $-1 $393 $164 $264 $399 forward $159 $-1 #
vertex $-1 $265 $408 #
vertex $-1 $395 $409 #
straight-curve $-1 0 -36.29025130124672 0.21813586767629634 1 0 0 I I #
face $-1 $410 $411 $38 $-1 $412 forward single #
loop $-1 $-1 $413 $166 #
plane-surface $-1 0 0 -16.031304622346145 0 0 1 1 0 0 forward_v I I I I #
coedge $-1 $414 $415 $416 $417 forward $167 $-1 #
coedge $-1 $416 $169 $413 $418 reversed $105 $-1 #
coedge $-1 $169 $416 $419 $420 reversed $105 $-1 #
coedge $-1 $171 $170 $169 $280 reversed $67 $-1 #
edge $-1 $421 -16.031304622346145 $422 16.031304622346145 $169 $423 forward 7 unknown #
coedge $-1 $424 $413 $170 $282 forward $274 $-1 #
edge $-1 $422 32.047347209160996 $288 36.793771924979616 $281 $425 forward 7 unknown #
coedge $-1 $419 $426 $171 $284 forward $411 $-1 #
edge $-1 $289 -36.793771924979616 $421 -32.047347209160996 $283 $427 forward 7 unknown #
coedge $-1 $428 $172 $426 $429 reversed $287 $-1 #
coedge $-1 $172 $428 $424 $430 reversed $287 $-1 #
loop $-1 $-1 $172 $410 #
vertex $-1 $430 $431 #
vertex $-1 $173 $432 #
straight-curve $-1 -71.214331492049922 18.253690605679342 0 0 0 1 I I #
face $-1 $-1 $433 $39 $-1 $434 reversed single #
loop $-1 $-1 $180 $174 #
plane-surface $-1 0 0 16.031304622346145 0 0 1 1 0 0 forward_v I I I I #
coedge $-1 $435 $436 $437 $438 reversed $175 $-1 #
coedge $-1 $439 $177 $179 $301 forward $109 $-1 #
coedge $-1 $177 $439 $435 $440 forward $109 $-1 #
coedge $-1 $437 $180 $177 $298 forward $292 $-1 #
edge $-1 $304 -12.692073402752857 $441 -1.7532179778033044 $297 $442 forward 7 unknown #
coedge $-1 $443 $444 $178 $300 forward $433 $-1 #
edge $-1 $445 -52.590234326911457 $303 -38.870736515371831 $299 $446 forward 7 unknown #
edge $-1 $304 -20.911986632986636 $445 1.888283279974768e-014 $179 $447 forward 7 unknown #
coedge $-1 $180 $437 $443 $448 forward $292 $-1 #
vertex $-1 $300 $449 #
vertex $-1 $181 $450 #
straight-curve $-1 -82.327971483069248 -19.914719093030939 16.031304622346141 1 0 0 I I #
coedge $-1 $306 $306 $-1 $451 reversed $184 $-1 #
edge $-1 $452 0 $452 6.2831853071796004 $185 $453 forward 7 unknown #
vertex $-1 $188 $454 #
ellipse-curve $-1 -63.323093237863006 -16.789331828759639 9.1715557165763286 -0.6560590369687036 0 0.75470957328743171 1.1320643599311475 0 0.9840885554530554 1 I I #
coedge $-1 $310 $310 $-1 $455 reversed $191 $-1 #
edge $-1 $456 0 $456 6.2831853071796004 $192 $457 forward 7 unknown #
vertex $-1 $195 $458 #
ellipse-curve $-1 -63.323093237863006 -12.101250932352688 9.1715557165763286 -0.6560590369687036 0 0.75470957328743171 1.1320643599311475 0 0.9840885554530554 1 I I #
face $-1 $-1 $326 $42 $-1 $459 forward single #
loop $-1 $-1 $460 $196 #
plane-surface $-1 71.214331492049922 0 0 -1 0 0 0 0 1 forward_v I I I I #
coedge $-1 $461 $462 $463 $464 reversed $197 $-1 #
coedge $-1 $465 $199 $201 $324 forward $123 $-1 #
coedge $-1 $199 $465 $461 $466 forward $123 $-1 #
coedge $-1 $463 $202 $199 $321 forward $326 $-1 #
edge $-1 $328 -1.3971509718941526 $467 5.8524814030340586 $320 $468 forward 7 unknown #
coedge $-1 $469 $470 $200 $323 forward $315 $-1 #
edge $-1 $471 -94.141982917822361 $327 -86.849650058879504 $322 $472 forward 7 unknown #
edge $-1 $328 129.03936788299217 $471 142.42866298409984 $201 $473 forward 7 unknown #
coedge $-1 $202 $463 $469 $474 forward $326 $-1 #
loop $-1 $-1 $463 $314 #
vertex $-1 $323 $475 #
vertex $-1 $203 $476 #
straight-curve $-1 14.667907528992643 -0.8305142436758004 16.031304622346141 -1 0 0 I I #
coedge $-1 $330 $330 $-1 $477 reversed $206 $-1 #
edge $-1 $478 0 $478 6.2831853071796004 $207 $479 forward 7 unknown #
vertex $-1 $210 $480 #
ellipse-curve $-1 65.59972765965604 -6.0088230829102365 12.385138192874715 0.54463904215088732 0 0.83867056331134215 0.83867056331134215 0 -0.54463904215088732 1 I I #
coedge $-1 $334 $334 $-1 $481 reversed $213 $-1 #
edge $-1 $482 0 $482 6.2831853071796004 $214 $483 forward 7 unknown #
vertex $-1 $217 $484 #
ellipse-curve $-1 65.59972765965604 -2.901837779369572 12.385138192874715 0.54463904215088732 0 0.83867056331134215 0.83867056331134215 0 -0.54463904215088732 1 I I #
face $-1 $-1 $350 $45 $-1 $485 forward single #
loop $-1 $-1 $486 $218 #
plane-surface $-1 71.214331492049922 0 0 -1 0 0 0 0 1 forward_v I I I I #
coedge $-1 $487 $488 $489 $490 reversed $219 $-1 #
coedge $-1 $491 $221 $223 $348 forward $137 $-1 #
coedge $-1 $221 $491 $487 $492 forward $137 $-1 #
coedge $-1 $489 $224 $221 $345 forward $350 $-1 #
edge $-1 $352 -10.939253396571722 $493 -3.6896210216435108 $344 $494 forward 7 unknown #
coedge $-1 $495 $496 $222 $347 forward $339 $-1 #
edge $-1 $497 -94.141982917822361 $351 -86.849650058879504 $346 $498 forward 7 unknown #
edge $-1 $352 129.03936788299217 $497 142.42866298409984 $223 $499 forward 7 unknown #
coedge $-1 $224 $489 $495 $500 forward $350 $-1 #
loop $-1 $-1 $489 $338 #
vertex $-1 $347 $501 #
vertex $-1 $225 $502 #
straight-curve $-1 14.667907528992643 18.253690605679338 16.031304622346141 -1 0 0 I I #
coedge $-1 $354 $354 $-1 $503 reversed $228 $-1 #
edge $-1 $504 0 $504 6.2831853071796004 $229 $505 forward 7 unknown #
vertex $-1 $232 $506 #
ellipse-curve $-1 65.59972765965604 13.075381766444899 12.385138192874715 0.54463904215088732 0 0.83867056331134215 0.83867056331134215 0 -0.54463904215088732 1 I I #
coedge $-1 $358 $358 $-1 $507 reversed $235 $-1 #
edge $-1 $508 0 $508 6.2831853071796004 $236 $509 forward 7 unknown #
vertex $-1 $239 $510 #
ellipse-curve $-1 65.59972765965604 16.182367069985567 12.385138192874715 0.54463904215088732 0 0.83867056331134215 0.83867056331134215 0 -0.54463904215088732 1 I I #
face $-1 $-1 $255 $36 $-1 $511 reversed single #
loop $-1 $-1 $378 $240 #
plane-surface $-1 0 36.29025130124672 0 0 -1 0 0 0 -1 forward_v I I I I #
coedge $-1 $512 $376 $379 $513 forward $241 $-1 #
coedge $-1 $382 $243 $244 $370 reversed $151 $-1 #
coedge $-1 $376 $512 $243 $368 reversed $241 $-1 #
edge $-1 $383 -16.031304622346145 $514 16.031304622346145 $367 $515 forward 7 unknown #
coedge $-1 $245 $244 $512 $516 forward $97 $-1 #
edge $-1 $374 -71.214331492049922 $514 71.214331492049922 $366 $517 forward 7 unknown #
coedge $-1 $379 $378 $245 $372 reversed $363 $-1 #
edge $-1 $518 -71.214331492049922 $373 71.214331492049922 $371 $519 forward 7 unknown #
vertex $-1 $247 $520 #
vertex $-1 $385 $521 #
straight-curve $-1 71.214331492049922 0 -16.031304622346145 0 -1 0 I I #
coedge $-1 $365 $367 $248 $377 reversed $241 $-1 #
edge $-1 $380 -36.29025130124672 $383 36.29025130124672 $376 $522 forward 7 unknown #
coedge $-1 $371 $249 $254 $386 forward $363 $-1 #
coedge $-1 $249 $371 $365 $513 reversed $363 $-1 #
vertex $-1 $250 $523 #
straight-curve $-1 0 36.29025130124672 16.031304622346145 -1 0 0 I I #
coedge $-1 $251 $366 $253 $385 reversed $151 $-1 #
vertex $-1 $377 $524 #
straight-curve $-1 0 -36.29025130124672 16.031304622346145 1 0 0 I I #
edge $-1 $256 -16.031304622346145 $374 16.031304622346145 $253 $525 forward 7 unknown #
edge $-1 $257 -16.031304622346145 $373 16.031304622346145 $254 $526 forward 7 unknown #
point $-1 71.214331492049922 -36.29025130124672 16.031304622346145 #
point $-1 71.214331492049922 36.29025130124672 16.031304622346145 #
face $-1 $-1 $405 $37 $-1 $527 reversed single #
loop $-1 $-1 $528 $259 #
plane-surface $-1 0 -52.6657835094625 -3.2342674975260586 0 1 0 0 0 1 forward_v I I I I #
coedge $-1 $529 $402 $404 $530 forward $260 $-1 #
coedge $-1 $262 $269 $531 $532 forward $159 $-1 #
coedge $-1 $533 $267 $262 $395 reversed $405 $-1 #
edge $-1 $534 -8.1877661041078937 $271 8.1877661041078937 $394 $535 forward 7 unknown #
coedge $-1 $264 $263 $528 $536 reversed $101 $-1 #
coedge $-1 $402 $529 $263 $398 forward $260 $-1 #
edge $-1 $537 -8.1877661041078937 $400 8.1877661041078937 $263 $538 forward 7 unknown #
edge $-1 $270 -8.1877661041078937 $539 8.1877661041078937 $264 $540 forward 7 unknown #
vertex $-1 $265 $541 #
straight-curve $-1 -71.214331492049922 -36.29025130124672 0 0 0 -1 I I #
coedge $-1 $392 $397 $266 $403 reversed $260 $-1 #
edge $-1 $406 -71.214331492049922 $400 71.214331492049922 $402 $542 forward 7 unknown #
coedge $-1 $267 $533 $392 $530 reversed $405 $-1 #
loop $-1 $-1 $267 $389 #
vertex $-1 $268 $543 #
straight-curve $-1 71.214331492049922 -36.29025130124672 0 0 0 1 I I #
point $-1 -71.214331492049922 -36.290251301246713 0.21813586767629634 #
point $-1 71.214331492049922 -36.290251301246713 0.21813586767629634 #
face $-1 $-1 $287 $38 $-1 $544 reversed single #
loop $-1 $-1 $419 $273 #
plane-surface $-1 0 0 16.031304622346145 0 0 1 1 0 0 forward_v I I I I #
coedge $-1 $281 $545 $277 $418 forward $274 $-1 #
coedge $-1 $546 $276 $545 $547 reversed $167 $-1 #
coedge $-1 $276 $546 $548 $549 reversed $167 $-1 #
coedge $-1 $278 $277 $276 $417 reversed $105 $-1 #
edge $-1 $550 -16.031304622346145 $551 16.031304622346145 $276 $552 forward 7 unknown #
edge $-1 $551 -22.65426582451521 $422 -4.6177051289478257 $413 $553 forward 7 unknown #
coedge $-1 $548 $283 $278 $420 forward $411 $-1 #
edge $-1 $421 4.6177051289478257 $550 22.65426582451521 $419 $554 forward 7 unknown #
vertex $-1 $284 $555 #
vertex $-1 $282 $556 #
straight-curve $-1 -66.467906776231303 18.253690605679342 0 0 0 -1 I I #
coedge $-1 $545 $281 $286 $430 forward $274 $-1 #
straight-curve $-1 -34.420559567070306 18.253690605679342 -16.031304622346145 -1 0 0 I I #
coedge $-1 $283 $548 $285 $429 forward $411 $-1 #
straight-curve $-1 -34.420559567070306 18.253690605679342 16.031304622346145 1 0 0 I I #
coedge $-1 $286 $285 $546 $557 forward $287 $-1 #
edge $-1 $558 -36.29025130124672 $289 -18.253690605679342 $285 $559 forward 7 unknown #
edge $-1 $288 18.253690605679342 $560 36.29025130124672 $286 $561 forward 7 unknown #
point $-1 -71.214331492049922 18.253690605679342 -16.031304622346145 #
point $-1 -71.214331492049922 18.253690605679342 16.031304622346145 #
loop $-1 $-1 $299 $291 #
plane-surface $-1 -71.214331492049922 0 0 1 0 0 0 0 -1 forward_v I I I I #
coedge $-1 $436 $294 $296 $440 reversed $175 $-1 #
coedge $-1 $294 $435 $562 $563 reversed $175 $-1 #
coedge $-1 $302 $297 $294 $438 forward $292 $-1 #
edge $-1 $441 -26.896116499393159 $564 -11.113639991019326 $437 $565 forward 7 unknown #
coedge $-1 $296 $295 $444 $566 reversed $109 $-1 #
edge $-1 $567 -1.888283279974768e-014 $441 20.911986632986636 $435 $568 forward 7 unknown #
vertex $-1 $298 $569 #
straight-curve $-1 -55.431854983676082 -7.2226456902780818 16.031304622346145 0 1 0 I I #
coedge $-1 $562 $299 $302 $448 reversed $433 $-1 #
coedge $-1 $299 $562 $439 $566 forward $433 $-1 #
vertex $-1 $300 $570 #
straight-curve $-1 -71.214331492049922 -19.914719093030939 54.902041137717973 0 0 1 I I #
straight-curve $-1 -71.214331492049908 -19.914719093030939 2.3118068108065302 -0.75470957328743171 0 -0.6560590369687036 I I #
edge $-1 $564 8.9758636680813861 $303 19.914719093030939 $443 $571 forward 7 unknown #
point $-1 -71.214331492049922 -19.914719093030939 16.031304622346145 #
point $-1 -55.431854983676089 -19.914719093030939 16.031304622346145 #
edge $-1 $572 1 $572 0 $306 $-1 forward 7 unknown #
vertex $-1 $307 $573 #
ellipse-curve $-1 -61.167360567131347 -16.789331828759639 6.6916690106985497 -0.6560590369687036 0 0.75470957328743171 1.1320643599311475 0 0.9840885554530554 1 I I #
point $-1 -62.191028877931878 -16.789331828759639 10.155644272029402 #
edge $-1 $574 1 $574 0 $310 $-1 forward 7 unknown #
vertex $-1 $311 $575 #
ellipse-curve $-1 -61.167360567131347 -12.101250932352688 6.6916690106985497 -0.6560590369687036 0 0.75470957328743171 1.1320643599311475 0 0.9840885554530554 1 I I #
point $-1 -62.191028877931878 -12.101250932352688 10.155644272029402 #
plane-surface $-1 0 0 16.031304622346145 0 0 1 1 0 0 forward_v I I I I #
coedge $-1 $470 $469 $462 $576 forward $315 $-1 #
coedge $-1 $462 $317 $319 $466 reversed $197 $-1 #
coedge $-1 $317 $461 $460 $576 reversed $197 $-1 #
coedge $-1 $325 $320 $317 $464 forward $326 $-1 #
edge $-1 $467 45.317216298269514 $577 56.546423963057279 $463 $578 forward 7 unknown #
coedge $-1 $319 $318 $470 $579 reversed $123 $-1 #
edge $-1 $580 -142.42866298409984 $467 -129.03936788299217 $461 $581 forward 7 unknown #
vertex $-1 $321 $582 #
straight-curve $-1 59.985123827262157 -2.227665215569953 16.031304622346134 0 -1 0 I I #
coedge $-1 $460 $322 $325 $474 reversed $315 $-1 #
coedge $-1 $322 $460 $465 $579 forward $315 $-1 #
vertex $-1 $323 $583 #
straight-curve $-1 71.214331492049922 -0.8305142436758004 102.88095468122565 0 0 1 I I #
straight-curve $-1 -48.236395524506392 -0.8305142436758004 86.311182345894963 0.83867056331134215 0 -0.54463904215088732 I I #
edge $-1 $577 -8.0801466186040116 $327 -0.8305142436758004 $469 $584 forward 7 unknown #
point $-1 71.214331492049922 -0.8305142436758004 16.031304622346145 #
point $-1 59.985123827262157 -0.8305142436758004 16.031304622346141 #
edge $-1 $585 1 $585 0 $330 $-1 forward 7 unknown #
vertex $-1 $331 $586 #
ellipse-curve $-1 63.734670956185312 -6.0088230829102365 9.5132027731696169 0.54463904215088732 0 0.83867056331134215 0.83867056331134215 0 -0.54463904215088732 1 I I #
point $-1 66.438398222967351 -6.0088230829102365 11.84049915072379 #
edge $-1 $587 1 $587 0 $334 $-1 forward 7 unknown #
vertex $-1 $335 $588 #
ellipse-curve $-1 63.734670956185312 -2.901837779369572 9.5132027731696169 0.54463904215088732 0 0.83867056331134215 0.83867056331134215 0 -0.54463904215088732 1 I I #
point $-1 66.438398222967351 -2.901837779369572 11.84049915072379 #
plane-surface $-1 0 0 16.031304622346145 0 0 1 1 0 0 forward_v I I I I #
coedge $-1 $496 $495 $488 $589 forward $339 $-1 #
coedge $-1 $488 $341 $343 $492 reversed $219 $-1 #
coedge $-1 $341 $487 $486 $589 reversed $219 $-1 #
coedge $-1 $349 $344 $341 $490 forward $350 $-1 #
edge $-1 $493 45.317216298269514 $590 56.546423963057279 $489 $591 forward 7 unknown #
coedge $-1 $343 $342 $496 $592 reversed $137 $-1 #
edge $-1 $593 -142.42866298409984 $493 -129.03936788299217 $487 $594 forward 7 unknown #
vertex $-1 $345 $595 #
straight-curve $-1 59.985123827262157 7.3144372091076164 16.031304622346134 0 -1 0 I I #
coedge $-1 $486 $346 $349 $500 reversed $339 $-1 #
coedge $-1 $346 $486 $491 $592 forward $339 $-1 #
vertex $-1 $347 $596 #
straight-curve $-1 71.214331492049922 18.253690605679338 102.88095468122565 0 0 1 I I #
straight-curve $-1 -48.236395524506392 18.253690605679338 86.311182345894963 0.83867056331134215 0 -0.54463904215088732 I I #
edge $-1 $590 11.004058230751127 $351 18.253690605679338 $495 $597 forward 7 unknown #
point $-1 71.214331492049922 18.253690605679338 16.031304622346145 #
point $-1 59.985123827262157 18.253690605679338 16.031304622346141 #
edge $-1 $598 1 $598 0 $354 $-1 forward 7 unknown #
vertex $-1 $355 $599 #
ellipse-curve $-1 63.734670956185312 13.075381766444899 9.5132027731696169 0.54463904215088732 0 0.83867056331134215 0.83867056331134215 0 -0.54463904215088732 1 I I #
point $-1 66.438398222967351 13.075381766444899 11.84049915072379 #
edge $-1 $600 1 $600 0 $358 $-1 forward 7 unknown #
vertex $-1 $359 $601 #
ellipse-curve $-1 63.734670956185312 16.182367069985567 9.5132027731696169 0.54463904215088732 0 0.83867056331134215 0.83867056331134215 0 -0.54463904215088732 1 I I #
point $-1 66.438398222967351 16.182367069985567 11.84049915072379 #
plane-surface $-1 71.214331492049922 0 0 -1 0 0 0 0 1 forward_v I I I I #
coedge $-1 $367 $365 $369 $516 reversed $241 $-1 #
edge $-1 $380 -16.031304622346145 $518 16.031304622346145 $379 $602 forward 7 unknown #
vertex $-1 $516 $603 #
straight-curve $-1 -71.214331492049922 -36.29025130124672 0 0 0 -1 I I #
edge $-1 $514 -36.29025130124672 $518 36.29025130124672 $512 $604 forward 7 unknown #
straight-curve $-1 0 -36.29025130124672 -16.031304622346145 -1 0 0 I I #
vertex $-1 $372 $605 #
straight-curve $-1 0 36.29025130124672 -16.031304622346145 1 0 0 I I #
point $-1 71.214331492049922 36.29025130124672 -16.031304622346145 #
point $-1 71.214331492049922 -36.29025130124672 -16.031304622346145 #
straight-curve $-1 -71.214331492049922 0 16.031304622346145 0 -1 0 I I #
point $-1 -71.214331492049922 36.29025130124672 16.031304622346145 #
point $-1 -71.214331492049922 -36.29025130124672 16.031304622346145 #
straight-curve $-1 71.214331492049922 -36.29025130124672 0 0 0 -1 I I #
straight-curve $-1 71.214331492049922 36.29025130124672 0 0 0 -1 I I #
plane-surface $-1 71.214331492049922 0 0 -1 0 0 0 0 1 forward_v I I I I #
coedge $-1 $606 $531 $396 $536 forward $390 $-1 #
coedge $-1 $397 $392 $606 $607 forward $260 $-1 #
edge $-1 $406 -8.1877661041078937 $608 8.1877661041078937 $404 $609 forward 7 unknown #
coedge $-1 $528 $610 $393 $532 reversed $390 $-1 #
edge $-1 $539 -71.214331492049922 $534 71.214331492049922 $531 $611 forward 7 unknown #
coedge $-1 $404 $394 $610 $612 forward $405 $-1 #
vertex $-1 $395 $613 #
straight-curve $-1 71.214331492049922 -44.478017405354606 0.21813586767629634 0 1 0 I I #
edge $-1 $539 -3.4524033652023549 $537 3.4524033652023549 $396 $614 forward 7 unknown #
vertex $-1 $398 $615 #
straight-curve $-1 -71.214331492049922 -44.478017405354606 -6.6866708627284135 0 1 0 I I #
vertex $-1 $399 $616 #
straight-curve $-1 -71.214331492049922 -44.478017405354606 0.21813586767629634 0 -1 0 I I #
point $-1 -71.214331492049922 -36.290251301246713 -6.6866708627284135 #
straight-curve $-1 0 -36.29025130124672 -6.6866708627284135 -1 0 0 I I #
point $-1 71.214331492049922 -36.290251301246713 -6.6866708627284135 #
plane-surface $-1 -71.214331492049922 0 0 1 0 0 0 0 -1 forward_v I I I I #
coedge $-1 $413 $424 $414 $547 forward $274 $-1 #
coedge $-1 $415 $414 $428 $557 reversed $167 $-1 #
edge $-1 $560 -71.214331492049922 $551 -66.467906776231303 $414 $617 forward 7 unknown #
coedge $-1 $426 $419 $415 $549 forward $411 $-1 #
edge $-1 $550 66.467906776231303 $558 71.214331492049922 $415 $618 forward 7 unknown #
vertex $-1 $549 $619 #
vertex $-1 $418 $620 #
straight-curve $-1 -66.467906776231303 36.29025130124672 0 0 0 -1 I I #
straight-curve $-1 -66.467906776231303 13.635985476731516 -16.031304622346145 0 -1 0 I I #
straight-curve $-1 -66.467906776231303 13.635985476731516 16.031304622346145 0 1 0 I I #
point $-1 -66.467906776231303 18.253690605679342 16.031304622346145 #
point $-1 -66.467906776231303 18.253690605679342 -16.031304622346145 #
edge $-1 $558 -16.031304622346145 $560 16.031304622346145 $546 $621 forward 7 unknown #
vertex $-1 $549 $622 #
straight-curve $-1 -71.214331492049922 0 16.031304622346145 0 -1 0 I I #
vertex $-1 $547 $623 #
straight-curve $-1 -71.214331492049922 0 -16.031304622346145 0 1 0 I I #
coedge $-1 $444 $443 $436 $563 forward $433 $-1 #
edge $-1 $564 38.870736515371831 $567 52.590234326911457 $562 $624 forward 7 unknown #
vertex $-1 $448 $625 #
straight-curve $-1 -82.327971483069248 -8.9758636680813861 16.031304622346141 -1 0 0 I I #
edge $-1 $567 1.7532179778033044 $445 12.692073402752857 $444 $626 forward 7 unknown #
vertex $-1 $566 $627 #
straight-curve $-1 -71.214331492049908 -8.9758636680813861 2.3118068108065302 0.75470957328743171 0 0.6560590369687036 I I #
point $-1 -55.431854983676089 -8.9758636680813861 16.031304622346145 #
point $-1 -71.214331492049922 -19.914719093030939 2.3118068108065177 #
straight-curve $-1 -71.214331492049922 0 16.031304622346145 0 -1 0 I I #
vertex $-1 $451 $628 #
point $-1 -60.035296207200197 -16.789331828759639 7.6757575661516046 #
vertex $-1 $455 $629 #
point $-1 -60.035296207200197 -12.101250932352688 7.6757575661516046 #
edge $-1 $577 86.849650058879504 $580 94.141982917822361 $460 $630 forward 7 unknown #
vertex $-1 $474 $631 #
straight-curve $-1 14.667907528992643 -8.0801466186040116 16.031304622346141 1 0 0 I I #
edge $-1 $580 -5.8524814030340586 $471 1.3971509718941526 $470 $632 forward 7 unknown #
vertex $-1 $579 $633 #
straight-curve $-1 -48.236395524506392 -8.0801466186040116 86.311182345894963 -0.83867056331134215 0 0.54463904215088732 I I #
point $-1 59.985123827262157 -8.0801466186040116 16.031304622346141 #
point $-1 71.214331492049936 -0.8305142436758004 8.7389717634032849 #
straight-curve $-1 71.214331492049922 0 16.031304622346145 0 1 0 I I #
vertex $-1 $477 $634 #
point $-1 64.573341519496651 -6.0088230829102365 8.9685637310187296 #
vertex $-1 $481 $635 #
point $-1 64.573341519496651 -2.901837779369572 8.9685637310187296 #
edge $-1 $590 86.849650058879504 $593 94.141982917822361 $486 $636 forward 7 unknown #
vertex $-1 $500 $637 #
straight-curve $-1 14.667907528992643 11.004058230751127 16.031304622346141 1 0 0 I I #
edge $-1 $593 3.6896210216435108 $497 10.939253396571722 $496 $638 forward 7 unknown #
vertex $-1 $592 $639 #
straight-curve $-1 -48.236395524506392 11.004058230751127 86.311182345894963 -0.83867056331134215 0 0.54463904215088732 I I #
point $-1 59.985123827262157 11.004058230751127 16.031304622346141 #
point $-1 71.214331492049936 18.253690605679338 8.7389717634032849 #
straight-curve $-1 71.214331492049922 0 16.031304622346145 0 1 0 I I #
vertex $-1 $503 $640 #
point $-1 64.573341519496651 13.075381766444899 8.9685637310187296 #
vertex $-1 $507 $641 #
point $-1 64.573341519496651 16.182367069985567 8.9685637310187296 #
straight-curve $-1 -71.214331492049922 36.29025130124672 0 0 0 -1 I I #
point $-1 -71.214331492049922 -36.29025130124672 -16.031304622346145 #
straight-curve $-1 -71.214331492049922 0 -16.031304622346145 0 1 0 I I #
point $-1 -71.214331492049922 36.29025130124672 -16.031304622346145 #
coedge $-1 $610 $528 $529 $607 reversed $390 $-1 #
edge $-1 $608 -71.214331492049922 $537 71.214331492049922 $606 $642 forward 7 unknown #
vertex $-1 $612 $643 #
straight-curve $-1 71.214331492049922 -44.478017405354606 -6.6866708627284135 0 -1 0 I I #
coedge $-1 $531 $606 $533 $612 reversed $390 $-1 #
straight-curve $-1 0 -52.6657835094625 0.21813586767629634 1 0 0 I I #
edge $-1 $534 -3.4524033652023549 $608 3.4524033652023549 $533 $644 forward 7 unknown #
point $-1 71.214331492049922 -52.6657835094625 0.21813586767629634 #
straight-curve $-1 -71.214331492049922 -52.6657835094625 -3.2342674975260586 0 0 -1 I I #
point $-1 -71.214331492049922 -52.6657835094625 -6.6866708627284135 #
point $-1 -71.214331492049922 -52.6657835094625 0.21813586767629634 #
straight-curve $-1 0 36.29025130124672 -16.031304622346145 1 0 0 I I #
straight-curve $-1 0 36.29025130124672 16.031304622346145 -1 0 0 I I #
point $-1 -66.467906776231303 36.290251301246727 16.031304622346145 #
point $-1 -66.467906776231303 36.290251301246727 -16.031304622346145 #
straight-curve $-1 -71.214331492049922 36.29025130124672 0 0 0 -1 I I #
point $-1 -71.214331492049922 36.29025130124672 16.031304622346145 #
point $-1 -71.214331492049922 36.29025130124672 -16.031304622346145 #
straight-curve $-1 -71.214331492049922 -8.9758636680813861 54.902041137717973 0 0 -1 I I #
point $-1 -71.214331492049922 -8.9758636680813861 16.031304622346145 #
straight-curve $-1 -71.214331492049922 -7.2226456902780818 2.3118068108065239 0 -1 0 I I #
point $-1 -71.214331492049922 -8.9758636680813861 2.3118068108065177 #
point $-1 -60.183272011678291 -16.789331828759639 5.559604650767402 #
point $-1 -60.183272011678291 -12.101250932352688 5.559604650767402 #
straight-curve $-1 71.214331492049922 -8.0801466186040116 102.88095468122565 0 0 -1 I I #
point $-1 71.214331492049922 -8.0801466186040116 16.031304622346145 #
straight-curve $-1 71.214331492049922 -2.227665215569953 8.738971763403292 0 1 0 I I #
point $-1 71.214331492049936 -8.0801466186040116 8.7389717634032849 #
point $-1 63.190031914034421 -6.0088230829102365 8.6745322098582704 #
point $-1 63.190031914034421 -2.901837779369572 8.6745322098582704 #
straight-curve $-1 71.214331492049922 11.004058230751127 102.88095468122565 0 0 -1 I I #
point $-1 71.214331492049922 11.004058230751127 16.031304622346145 #
straight-curve $-1 71.214331492049922 7.3144372091076164 8.738971763403292 0 1 0 I I #
point $-1 71.214331492049936 11.004058230751127 8.7389717634032849 #
point $-1 63.190031914034421 13.075381766444899 8.6745322098582704 #
point $-1 63.190031914034421 16.182367069985567 8.6745322098582704 #
straight-curve $-1 0 -52.6657835094625 -6.6866708627284135 -1 0 0 I I #
point $-1 71.214331492049922 -52.6657835094625 -6.6866708627284135 #
straight-curve $-1 71.214331492049922 -52.6657835094625 -3.2342674975260586 0 0 -1 I I #
End-of-ACIS-data 