500 0 4 0           
7 Unknown 11 ACIS 5.0 NT 24 Thu Mar 25 15:10:10 1999 
-1 9.9999999999999995e-007 1e-010 
body $-1 $4 $-1 $5 #
body $-1 $6 $-1 $7 #
body $-1 $8 $-1 $9 #
body $-1 $10 $-1 $11 #
lump $-1 $-1 $12 $0 #
transform $-1 1 0 0 0 1 0 0 0 1 70.192571794793537 46.672801209639069 23.118469802943416 1 rotate no_reflect no_shear #
lump $-1 $-1 $13 $1 #
transform $-1 1 0 0 0 1 0 0 0 1 70.192571794793537 46.672801209639069 23.118469802943416 1 rotate no_reflect no_shear #
lump $-1 $-1 $14 $2 #
transform $-1 1 0 0 0 1 0 0 0 1 70.192571794793537 46.672801209639069 23.118469802943416 1 rotate no_reflect no_shear #
lump $-1 $-1 $15 $3 #
transform $-1 1 0 0 0 1 0 0 0 1 70.192571794793537 46.672801209639069 23.118469802943416 1 rotate no_reflect no_shear #
shell $-1 $-1 $-1 $16 $-1 $4 #
shell $-1 $-1 $-1 $17 $-1 $6 #
shell $-1 $-1 $-1 $18 $-1 $8 #
shell $-1 $-1 $-1 $19 $-1 $10 #
face $-1 $20 $21 $12 $-1 $22 forward single #
face $-1 $23 $24 $13 $-1 $25 forward single #
face $-1 $26 $27 $14 $-1 $28 reversed single #
face $-1 $29 $30 $15 $-1 $31 forward single #
face $-1 $32 $33 $12 $-1 $34 reversed single #
loop $-1 $-1 $35 $16 #
plane-surface $-1 0 0 23.118469802943416 0 0 1 1 0 0 forward_v I I I I #
face $-1 $36 $37 $13 $-1 $38 forward single #
loop $-1 $-1 $39 $17 #
plane-surface $-1 0 -46.672801209639069 0 0 1 0 0 0 1 forward_v I I I I #
face $-1 $40 $41 $14 $-1 $42 reversed single #
loop $-1 $-1 $43 $18 #
plane-surface $-1 45.426056717175015 59.545188964458994 178.72791250412857 1 0 0 0 -0.61566148304635926 -0.78801074757464917 forward_v I I I I #
face $-1 $44 $45 $15 $-1 $46 forward single #
loop $-1 $47 $48 $19 #
cone-surface $-1 57.809314255984276 37.01351773661505 14.739382378329436 0 -0.61566148304635926 -0.78801074757464917 1.5 0 0 1 I I 0 1 1.5 forward I I I I #
face $-1 $49 $50 $12 $-1 $51 reversed single #
loop $-1 $-1 $52 $20 #
plane-surface $-1 0 0 -23.118469802943416 0 0 1 1 0 0 forward_v I I I I #
coedge $-1 $53 $54 $55 $56 forward $21 $-1 #
face $-1 $57 $58 $13 $-1 $59 reversed single #
loop $-1 $-1 $60 $23 #
plane-surface $-1 0 0 23.118469802943416 0 0 1 1 0 0 forward_v I I I I #
coedge $-1 $61 $62 $63 $64 forward $24 $-1 #
face $-1 $65 $66 $14 $-1 $67 forward single #
loop $-1 $-1 $68 $26 #
plane-surface $-1 57.809314255984276 -26.88453673558228 68.102910555723597 0 0.61566148304635926 0.78801074757464917 1 0 0 forward_v I I I I #
coedge $-1 $69 $70 $71 $72 reversed $27 $-1 #
face $-1 $-1 $73 $15 $-1 $74 forward single #
loop $-1 $75 $76 $29 #
cone-surface $-1 57.809314255984276 34.882428445110996 12.011712527298677 0 -0.61566148304635926 -0.78801074757464917 0.75 0 0 1 I I -0.70710678118654757 0.70710678118654757 0.75 forward I I I I #
loop $-1 $-1 $77 $19 #
coedge $-1 $48 $48 $78 $79 reversed $30 $-1 #
face $-1 $80 $81 $12 $-1 $82 reversed single #
loop $-1 $-1 $83 $32 #
plane-surface $-1 0 -46.672801209639069 0 0 1 0 0 0 1 forward_v I I I I #
coedge $-1 $84 $85 $86 $87 forward $33 $-1 #
coedge $-1 $88 $35 $89 $90 forward $21 $-1 #
coedge $-1 $35 $88 $91 $92 forward $21 $-1 #
coedge $-1 $93 $94 $35 $56 reversed $95 $-1 #
edge $-1 $96 -46.672801209639069 $97 46.672801209639069 $55 $98 forward 7 unknown #
face $-1 $99 $100 $13 $-1 $101 reversed single #
loop $-1 $-1 $102 $36 #
plane-surface $-1 -70.192571794793537 0 0 1 0 0 0 0 -1 forward_v I I I I #
coedge $-1 $103 $104 $62 $105 forward $37 $-1 #
coedge $-1 $106 $39 $107 $108 reversed $24 $-1 #
coedge $-1 $39 $106 $60 $105 reversed $24 $-1 #
coedge $-1 $109 $110 $39 $64 reversed $111 $-1 #
edge $-1 $112 -23.118469802943416 $113 23.118469802943416 $63 $114 forward 7 unknown #
face $-1 $115 $116 $14 $-1 $117 reversed single #
loop $-1 $-1 $71 $40 #
plane-surface $-1 0 0 23.118469802943416 0 0 1 1 0 0 forward_v I I I I #
coedge $-1 $118 $119 $120 $121 reversed $41 $-1 #
coedge $-1 $70 $43 $122 $123 reversed $27 $-1 #
coedge $-1 $43 $69 $118 $124 reversed $27 $-1 #
coedge $-1 $120 $125 $43 $72 forward $66 $-1 #
edge $-1 $126 -16.900206727409572 $127 -0.92032613980007838 $71 $128 forward 7 unknown #
loop $-1 $-1 $78 $44 #
plane-surface $-1 57.809314255984276 -26.88453673558228 68.102910555723597 0 0.61566148304635926 0.78801074757464917 1 0 0 forward_v I I I I #
loop $-1 $-1 $129 $29 #
coedge $-1 $76 $76 $77 $130 reversed $45 $-1 #
coedge $-1 $77 $77 $76 $130 forward $47 $-1 #
coedge $-1 $78 $78 $48 $79 forward $73 $-1 #
edge $-1 $131 3.0909995538752327e-015 $131 6.2831853071796031 $78 $132 forward 7 unknown #
face $-1 $133 $134 $12 $-1 $135 reversed single #
loop $-1 $-1 $136 $49 #
plane-surface $-1 -70.192571794793537 0 0 1 0 0 0 0 -1 forward_v I I I I #
coedge $-1 $137 $91 $138 $139 forward $50 $-1 #
coedge $-1 $140 $52 $137 $141 forward $33 $-1 #
coedge $-1 $52 $140 $142 $143 forward $33 $-1 #
coedge $-1 $94 $93 $52 $87 reversed $95 $-1 #
edge $-1 $144 -46.672801209639069 $145 46.672801209639069 $86 $146 forward 7 unknown #
coedge $-1 $54 $53 $147 $148 forward $21 $-1 #
coedge $-1 $149 $150 $53 $90 reversed $134 $-1 #
edge $-1 $97 -70.192571794793537 $151 70.192571794793537 $89 $152 forward 7 unknown #
coedge $-1 $83 $153 $54 $92 reversed $50 $-1 #
edge $-1 $154 -70.192571794793537 $96 70.192571794793537 $91 $155 forward 7 unknown #
coedge $-1 $86 $55 $153 $156 forward $95 $-1 #
coedge $-1 $55 $86 $149 $157 reversed $95 $-1 #
loop $-1 $-1 $93 $133 #
vertex $-1 $56 $158 #
vertex $-1 $56 $159 #
straight-curve $-1 70.192571794793537 0 23.118469802943416 0 1 0 I I #
face $-1 $160 $111 $13 $-1 $161 reversed single #
loop $-1 $-1 $162 $57 #
plane-surface $-1 -65.758033440582281 -67.526794071125067 0 0 1 0 0 0 1 forward_v I I I I #
coedge $-1 $163 $164 $106 $165 forward $58 $-1 #
coedge $-1 $166 $60 $164 $167 forward $37 $-1 #
coedge $-1 $60 $166 $109 $168 forward $37 $-1 #
edge $-1 $112 61.323495086371025 $169 70.192571794793537 $60 $170 forward 7 unknown #
coedge $-1 $62 $61 $102 $165 reversed $24 $-1 #
coedge $-1 $171 $172 $61 $108 forward $173 $-1 #
edge $-1 $174 -70.192571794793537 $113 -61.323495086371025 $107 $175 forward 7 unknown #
coedge $-1 $176 $63 $104 $168 reversed $111 $-1 #
coedge $-1 $63 $176 $171 $177 reversed $111 $-1 #
loop $-1 $-1 $176 $99 #
vertex $-1 $105 $178 #
vertex $-1 $177 $179 #
straight-curve $-1 -61.323495086371025 -46.672801209639069 0 0 0 -1 I I #
face $-1 $-1 $180 $14 $-1 $181 reversed single #
loop $-1 $-1 $182 $65 #
plane-surface $-1 70.192571794793537 0 0 -1 0 0 0 0 1 forward_v I I I I #
coedge $-1 $183 $68 $70 $124 forward $41 $-1 #
coedge $-1 $68 $183 $182 $184 reversed $41 $-1 #
coedge $-1 $185 $71 $68 $121 forward $66 $-1 #
edge $-1 $127 16.521399589182877 $186 41.287914666801399 $120 $187 forward 7 unknown #
coedge $-1 $188 $189 $69 $123 forward $180 $-1 #
edge $-1 $190 -78.730337717649292 $126 -66.245486449120875 $122 $191 forward 7 unknown #
edge $-1 $127 73.066842723686932 $190 93.345602419278123 $70 $192 forward 7 unknown #
coedge $-1 $71 $185 $188 $193 forward $66 $-1 #
vertex $-1 $123 $194 #
vertex $-1 $72 $195 #
straight-curve $-1 45.426056717175015 29.772594482229497 23.118469802943409 0 -1 0 I I #
coedge $-1 $129 $129 $-1 $196 reversed $75 $-1 #
edge $-1 $197 0 $197 6.2831853071796004 $76 $198 forward 7 unknown #
vertex $-1 $79 $199 #
ellipse-curve $-1 57.809314255984276 38.682860915834326 16.876044168679201 0 0.61566148304635926 0.78801074757464917 1.5 0 0 1 I I #
face $-1 $-1 $95 $12 $-1 $200 reversed single #
loop $-1 $-1 $149 $80 #
plane-surface $-1 0 46.672801209639069 0 0 -1 0 0 0 -1 forward_v I I I I #
coedge $-1 $201 $147 $150 $202 forward $81 $-1 #
coedge $-1 $153 $83 $84 $141 reversed $50 $-1 #
coedge $-1 $147 $201 $83 $139 reversed $81 $-1 #
edge $-1 $154 -23.118469802943416 $203 23.118469802943416 $138 $204 forward 7 unknown #
coedge $-1 $85 $84 $201 $205 forward $33 $-1 #
edge $-1 $145 -70.192571794793537 $203 70.192571794793537 $137 $206 forward 7 unknown #
coedge $-1 $150 $149 $85 $143 reversed $134 $-1 #
edge $-1 $207 -70.192571794793537 $144 70.192571794793537 $142 $208 forward 7 unknown #
vertex $-1 $87 $209 #
vertex $-1 $156 $210 #
straight-curve $-1 70.192571794793537 0 -23.118469802943416 0 -1 0 I I #
coedge $-1 $136 $138 $88 $148 reversed $81 $-1 #
edge $-1 $151 -46.672801209639069 $154 46.672801209639069 $147 $211 forward 7 unknown #
coedge $-1 $142 $89 $94 $157 forward $134 $-1 #
coedge $-1 $89 $142 $136 $202 reversed $134 $-1 #
vertex $-1 $90 $212 #
straight-curve $-1 0 46.672801209639069 23.118469802943416 -1 0 0 I I #
coedge $-1 $91 $137 $93 $156 reversed $50 $-1 #
vertex $-1 $148 $213 #
straight-curve $-1 0 -46.672801209639069 23.118469802943416 1 0 0 I I #
edge $-1 $96 -23.118469802943416 $145 23.118469802943416 $93 $214 forward 7 unknown #
edge $-1 $97 -23.118469802943416 $144 23.118469802943416 $94 $215 forward 7 unknown #
point $-1 70.192571794793537 -46.672801209639069 23.118469802943416 #
point $-1 70.192571794793537 46.672801209639069 23.118469802943416 #
face $-1 $-1 $173 $13 $-1 $216 reversed single #
plane-surface $-1 -61.323495086371025 -57.099797640382072 0 -1 0 0 0 0 1 forward_v I I I I #
coedge $-1 $217 $218 $219 $220 forward $100 $-1 #
coedge $-1 $219 $102 $172 $221 reversed $58 $-1 #
coedge $-1 $102 $219 $103 $167 reversed $58 $-1 #
edge $-1 $169 -23.118469802943416 $174 23.118469802943416 $102 $222 forward 7 unknown #
coedge $-1 $104 $103 $218 $223 forward $37 $-1 #
edge $-1 $169 46.672801209639069 $224 67.526794071125067 $164 $225 forward 7 unknown #
edge $-1 $226 -10.426996430742996 $112 10.426996430743003 $109 $227 forward 7 unknown #
vertex $-1 $167 $228 #
straight-curve $-1 0 -46.672801209639069 23.118469802943416 -1 0 0 I I #
coedge $-1 $229 $107 $110 $177 forward $173 $-1 #
coedge $-1 $107 $229 $163 $221 forward $173 $-1 #
loop $-1 $-1 $107 $160 #
vertex $-1 $165 $230 #
straight-curve $-1 0 -46.672801209639069 -23.118469802943416 1 0 0 I I #
coedge $-1 $110 $109 $231 $232 forward $111 $-1 #
edge $-1 $113 -10.426996430743003 $233 10.426996430742996 $110 $234 forward 7 unknown #
point $-1 -61.323495086371025 -46.672801209639069 23.118469802943416 #
point $-1 -61.323495086371025 -46.672801209639069 -23.118469802943416 #
loop $-1 $-1 $122 $115 #
plane-surface $-1 0 46.672801209639069 0 0 -1 0 0 0 -1 forward_v I I I I #
coedge $-1 $235 $236 $119 $184 forward $116 $-1 #
coedge $-1 $119 $118 $189 $237 reversed $41 $-1 #
edge $-1 $186 41.510021321829598 $238 61.788781017420803 $182 $239 forward 7 unknown #
coedge $-1 $125 $120 $236 $240 forward $66 $-1 #
vertex $-1 $240 $241 #
straight-curve $-1 28.904657127992138 30.692920622029568 23.118469802943409 1 0 0 I I #
coedge $-1 $242 $122 $125 $193 reversed $180 $-1 #
coedge $-1 $122 $242 $183 $237 forward $180 $-1 #
vertex $-1 $123 $243 #
straight-curve $-1 45.426056717175015 46.672801209639069 89.363956252064284 0 0 1 I I #
straight-curve $-1 45.426056717175015 -26.88453673558228 68.102910555723597 0 0.78801074757464917 -0.61566148304635926 I I #
edge $-1 $244 -70.192571794793537 $126 -45.426056717175015 $188 $245 forward 7 unknown #
point $-1 45.426056717175015 46.672801209639069 23.118469802943416 #
point $-1 45.426056717175015 30.692920622029575 23.118469802943416 #
edge $-1 $246 1 $246 0 $129 $-1 forward 7 unknown #
vertex $-1 $130 $247 #
ellipse-curve $-1 57.809314255984276 35.344174557395768 12.602720587979665 0 0.61566148304635926 0.78801074757464917 1.5 0 0 1 I I #
point $-1 59.309314255984276 38.68286091583434 16.876044168679211 #
plane-surface $-1 70.192571794793537 0 0 -1 0 0 0 0 1 forward_v I I I I #
coedge $-1 $138 $136 $140 $205 reversed $81 $-1 #
edge $-1 $151 -23.118469802943416 $207 23.118469802943416 $150 $248 forward 7 unknown #
vertex $-1 $205 $249 #
straight-curve $-1 -70.192571794793537 -46.672801209639069 0 0 0 -1 I I #
edge $-1 $203 -46.672801209639069 $207 46.672801209639069 $201 $250 forward 7 unknown #
straight-curve $-1 0 -46.672801209639069 -23.118469802943416 -1 0 0 I I #
vertex $-1 $143 $251 #
straight-curve $-1 0 46.672801209639069 -23.118469802943416 1 0 0 I I #
point $-1 70.192571794793537 46.672801209639069 -23.118469802943416 #
point $-1 70.192571794793537 -46.672801209639069 -23.118469802943416 #
straight-curve $-1 -70.192571794793537 0 23.118469802943416 0 -1 0 I I #
point $-1 -70.192571794793537 46.672801209639069 23.118469802943416 #
point $-1 -70.192571794793537 -46.672801209639069 23.118469802943416 #
straight-curve $-1 70.192571794793537 -46.672801209639069 0 0 0 -1 I I #
straight-curve $-1 70.192571794793537 46.672801209639069 0 0 0 -1 I I #
plane-surface $-1 0 0 -23.118469802943416 0 0 1 1 0 0 forward_v I I I I #
coedge $-1 $231 $162 $229 $252 reversed $100 $-1 #
coedge $-1 $162 $231 $166 $223 reversed $100 $-1 #
coedge $-1 $164 $163 $162 $220 reversed $58 $-1 #
edge $-1 $224 -23.118469802943416 $253 23.118469802943416 $219 $254 forward 7 unknown #
edge $-1 $253 -67.526794071125067 $174 -46.672801209639069 $163 $255 forward 7 unknown #
straight-curve $-1 -70.192571794793537 -46.672801209639069 0 0 0 -1 I I #
edge $-1 $224 -4.4345383542112558 $226 4.4345383542112558 $218 $256 forward 7 unknown #
vertex $-1 $167 $257 #
straight-curve $-1 -70.192571794793537 0 23.118469802943416 0 -1 0 I I #
vertex $-1 $168 $258 #
straight-curve $-1 -61.323495086371025 -57.099797640382072 23.118469802943416 0 1 0 I I #
point $-1 -70.192571794793537 -46.672801209639069 23.118469802943416 #
coedge $-1 $172 $171 $217 $252 forward $173 $-1 #
point $-1 -70.192571794793537 -46.672801209639069 -23.118469802943416 #
coedge $-1 $218 $217 $176 $232 reversed $100 $-1 #
edge $-1 $226 -23.118469802943416 $233 23.118469802943416 $176 $259 forward 7 unknown #
vertex $-1 $232 $260 #
straight-curve $-1 -61.323495086371025 -57.099797640382072 -23.118469802943416 0 -1 0 I I #
coedge $-1 $236 $182 $242 $261 reversed $116 $-1 #
coedge $-1 $182 $235 $185 $240 reversed $116 $-1 #
edge $-1 $238 -41.287914666801399 $190 -16.521399589182877 $189 $262 forward 7 unknown #
vertex $-1 $184 $263 #
straight-curve $-1 70.192571794793537 -2.0174223116249994 48.674591091227022 0 0.78801074757464917 -0.61566148304635926 I I #
edge $-1 $186 30.692920622029575 $244 46.672801209639069 $236 $264 forward 7 unknown #
point $-1 70.192571794793537 30.692920622029575 23.118469802943416 #
coedge $-1 $189 $188 $235 $261 forward $180 $-1 #
point $-1 45.426056717175015 46.672801209639069 10.633618534415 #
vertex $-1 $240 $265 #
straight-curve $-1 0 46.672801209639069 23.118469802943416 -1 0 0 I I #
vertex $-1 $196 $266 #
point $-1 59.309314255984276 35.344174557395768 12.602720587979665 #
straight-curve $-1 -70.192571794793537 46.672801209639069 0 0 0 -1 I I #
point $-1 -70.192571794793537 -46.672801209639069 -23.118469802943416 #
straight-curve $-1 -70.192571794793537 0 -23.118469802943416 0 1 0 I I #
point $-1 -70.192571794793537 46.672801209639069 -23.118469802943416 #
edge $-1 $233 -4.4345383542112558 $253 4.4345383542112558 $217 $267 forward 7 unknown #
vertex $-1 $221 $268 #
straight-curve $-1 -70.192571794793537 -67.526794071125067 0 0 0 -1 I I #
straight-curve $-1 -70.192571794793537 0 -23.118469802943416 0 1 0 I I #
straight-curve $-1 -65.758033440582281 -67.526794071125067 23.118469802943416 1 0 0 I I #
point $-1 -70.192571794793537 -67.526794071125067 23.118469802943416 #
point $-1 -61.323495086371025 -67.526794071125067 23.118469802943416 #
straight-curve $-1 -61.323495086371025 -67.526794071125067 0 0 0 -1 I I #
point $-1 -61.323495086371025 -67.526794071125067 -23.118469802943416 #
edge $-1 $244 -23.118469802943416 $238 -10.633618534415 $235 $269 forward 7 unknown #
straight-curve $-1 28.904657127992138 46.672801209639069 10.633618534414989 -1 0 0 I I #
point $-1 70.192571794793537 46.672801209639069 10.633618534415 #
straight-curve $-1 70.192571794793537 0 23.118469802943416 0 1 0 I I #
point $-1 70.192571794793537 46.672801209639069 23.118469802943416 #
point $-1 57.809314255984276 34.420682332826225 11.420704466617689 #
straight-curve $-1 -65.758033440582281 -67.526794071125067 -23.118469802943416 -1 0 0 I I #
point $-1 -70.192571794793537 -67.526794071125067 -23.118469802943416 #
straight-curve $-1 70.192571794793537 46.672801209639069 0 0 0 -1 I I #
End-of-ACIS-data 