500 0 7 0           
7 Unknown 11 ACIS 5.0 NT 24 Thu Mar 25 17:26:45 1999 
-1 9.9999999999999995e-007 1e-010 
body $-1 $7 $-1 $8 #
body $-1 $9 $-1 $10 #
body $-1 $11 $-1 $12 #
body $-1 $13 $-1 $14 #
body $-1 $15 $-1 $16 #
body $-1 $17 $-1 $18 #
body $-1 $19 $-1 $20 #
lump $-1 $-1 $21 $0 #
transform $-1 1 0 0 0 1 0 0 0 1 65.325479903561501 39.555538017474085 17.732692042417181 1 rotate no_reflect no_shear #
lump $-1 $-1 $22 $1 #
transform $-1 1 0 0 0 1 0 0 0 1 65.325479903561501 39.555538017474085 17.732692042417181 1 rotate no_reflect no_shear #
lump $-1 $-1 $23 $2 #
transform $-1 1 0 0 0 1 0 0 0 1 65.325479903561501 39.555538017474085 17.732692042417181 1 rotate no_reflect no_shear #
lump $-1 $-1 $24 $3 #
transform $-1 1 0 0 0 1 0 0 0 1 65.325479903561501 39.555538017474085 17.732692042417181 1 rotate no_reflect no_shear #
lump $-1 $-1 $25 $4 #
transform $-1 1 0 0 0 1 0 0 0 1 65.325479903561501 39.555538017474085 17.732692042417181 1 rotate no_reflect no_shear #
lump $-1 $-1 $26 $5 #
transform $-1 1 0 0 0 1 0 0 0 1 65.325479903561501 39.555538017474085 17.732692042417181 1 rotate no_reflect no_shear #
lump $-1 $-1 $27 $6 #
transform $-1 1 0 0 0 1 0 0 0 1 65.325479903561501 39.555538017474085 17.732692042417181 1 rotate no_reflect no_shear #
shell $-1 $-1 $-1 $28 $-1 $7 #
shell $-1 $-1 $-1 $29 $-1 $9 #
shell $-1 $-1 $-1 $30 $-1 $11 #
shell $-1 $-1 $-1 $31 $-1 $13 #
shell $-1 $-1 $-1 $32 $-1 $15 #
shell $-1 $-1 $-1 $33 $-1 $17 #
shell $-1 $-1 $-1 $34 $-1 $19 #
face $-1 $35 $36 $21 $-1 $37 forward single #
face $-1 $38 $39 $22 $-1 $40 reversed single #
face $-1 $41 $42 $23 $-1 $43 reversed single #
face $-1 $44 $45 $24 $-1 $46 reversed single #
face $-1 $47 $48 $25 $-1 $49 forward single #
face $-1 $50 $51 $26 $-1 $52 forward single #
face $-1 $53 $54 $27 $-1 $55 forward single #
face $-1 $56 $57 $21 $-1 $58 reversed single #
loop $-1 $-1 $59 $28 #
plane-surface $-1 0 0 17.732692042417181 0 0 1 1 0 0 forward_v I I I I #
face $-1 $60 $61 $22 $-1 $62 reversed single #
loop $-1 $-1 $63 $29 #
plane-surface $-1 -54.916486545046709 0 13.623114820464988 0 0 1 1 0 0 forward_v I I I I #
face $-1 $64 $65 $23 $-1 $66 reversed single #
loop $-1 $-1 $67 $30 #
plane-surface $-1 54.916486545046709 0 13.623114820464988 0 0 1 1 0 0 forward_v I I I I #
face $-1 $68 $69 $24 $-1 $70 reversed single #
loop $-1 $-1 $71 $31 #
plane-surface $-1 37.242341393361869 -39.555538017474063 13.540300328299594 0 -0.66913061440640931 0.74314481823134659 1 0 0 forward_v I I I I #
face $-1 $72 $73 $25 $-1 $74 forward single #
loop $-1 $75 $76 $32 #
cone-surface $-1 32.883250317459826 -36.712247980575881 15.064276716490754 0 0.66913061440640931 -0.74314481823134659 1 0 0 1 I I 0 1 1 forward I I I I #
face $-1 $77 $78 $26 $-1 $79 forward single #
loop $-1 $80 $81 $33 #
cone-surface $-1 37.242341393361855 -36.712247980575881 15.064276716490754 0 0.66913061440640931 -0.74314481823134659 1 0 0 1 I I 0 1 1 forward I I I I #
face $-1 $82 $83 $27 $-1 $84 forward single #
loop $-1 $85 $86 $34 #
cone-surface $-1 41.601432469263884 -36.712247980575881 15.064276716490754 0 0.66913061440640931 -0.74314481823134659 1 0 0 1 I I 0 1 1 forward I I I I #
face $-1 $87 $88 $21 $-1 $89 reversed single #
loop $-1 $-1 $90 $35 #
plane-surface $-1 0 0 -17.732692042417181 0 0 1 1 0 0 forward_v I I I I #
coedge $-1 $91 $92 $93 $94 forward $36 $-1 #
face $-1 $95 $96 $22 $-1 $97 reversed single #
loop $-1 $-1 $98 $38 #
plane-surface $-1 -44.507493186531917 0 15.677903431441084 -1 0 0 0 0 1 forward_v I I I I #
coedge $-1 $99 $100 $101 $102 forward $39 $-1 #
face $-1 $103 $104 $23 $-1 $105 forward single #
loop $-1 $-1 $106 $41 #
plane-surface $-1 44.507493186531917 0 15.677903431441084 1 0 0 0 0 -1 forward_v I I I I #
coedge $-1 $107 $108 $109 $110 reversed $42 $-1 #
face $-1 $111 $112 $24 $-1 $113 forward single #
loop $-1 $-1 $114 $44 #
plane-surface $-1 29.977189600191814 -126.97809502600137 110.63288410591498 1 0 0 0 0.66913061440640931 -0.74314481823134659 forward_v I I I I #
coedge $-1 $115 $116 $117 $118 reversed $45 $-1 #
face $-1 $-1 $119 $25 $-1 $120 forward single #
loop $-1 $121 $122 $47 #
cone-surface $-1 32.883250317459826 -35.862453938157955 14.120484838507441 0 0.66913061440640931 -0.74314481823134659 0.5 0 0 1 I I -0.70710678118654746 0.70710678118654746 0.5 forward I I I I #
loop $-1 $-1 $123 $32 #
coedge $-1 $76 $76 $124 $125 reversed $48 $-1 #
face $-1 $-1 $126 $26 $-1 $127 forward single #
loop $-1 $128 $129 $50 #
cone-surface $-1 37.242341393361855 -35.862453938157955 14.120484838507441 0 0.66913061440640931 -0.74314481823134659 0.5 0 0 1 I I -0.70710678118654746 0.70710678118654746 0.5 forward I I I I #
loop $-1 $-1 $130 $33 #
coedge $-1 $81 $81 $131 $132 reversed $51 $-1 #
face $-1 $-1 $133 $27 $-1 $134 forward single #
loop $-1 $135 $136 $53 #
cone-surface $-1 41.601432469263884 -35.862453938157955 14.120484838507441 0 0.66913061440640931 -0.74314481823134659 0.5 0 0 1 I I -0.70710678118654746 0.70710678118654746 0.5 forward I I I I #
loop $-1 $-1 $137 $34 #
coedge $-1 $86 $86 $138 $139 reversed $54 $-1 #
face $-1 $140 $141 $21 $-1 $142 reversed single #
loop $-1 $-1 $143 $56 #
plane-surface $-1 0 -39.555538017474085 0 0 1 0 0 0 1 forward_v I I I I #
coedge $-1 $144 $145 $146 $147 forward $57 $-1 #
coedge $-1 $148 $59 $149 $150 forward $36 $-1 #
coedge $-1 $59 $148 $151 $152 forward $36 $-1 #
coedge $-1 $153 $154 $59 $94 reversed $155 $-1 #
edge $-1 $156 -39.555538017474085 $157 39.555538017474085 $93 $158 forward 7 unknown #
face $-1 $159 $160 $22 $-1 $161 reversed single #
loop $-1 $-1 $162 $60 #
plane-surface $-1 0 39.555538017474085 0 0 -1 0 0 0 -1 forward_v I I I I #
coedge $-1 $101 $163 $164 $165 reversed $61 $-1 #
coedge $-1 $166 $63 $167 $168 reversed $39 $-1 #
coedge $-1 $63 $166 $169 $170 reversed $39 $-1 #
coedge $-1 $171 $98 $63 $102 reversed $61 $-1 #
edge $-1 $172 -39.555538017474085 $173 39.555538017474085 $101 $174 forward 7 unknown #
face $-1 $175 $176 $23 $-1 $177 reversed single #
loop $-1 $-1 $178 $64 #
plane-surface $-1 0 0 17.732692042417181 0 0 1 1 0 0 forward_v I I I I #
coedge $-1 $179 $180 $181 $182 reversed $65 $-1 #
coedge $-1 $183 $67 $184 $185 reversed $42 $-1 #
coedge $-1 $67 $183 $186 $187 reversed $42 $-1 #
coedge $-1 $188 $189 $67 $110 forward $190 $-1 #
edge $-1 $191 -39.555538017474085 $192 39.555538017474085 $109 $193 forward 7 unknown #
face $-1 $194 $195 $24 $-1 $196 reversed single #
loop $-1 $-1 $117 $68 #
plane-surface $-1 0 0 17.732692042417181 0 0 1 1 0 0 forward_v I I I I #
coedge $-1 $197 $198 $199 $200 reversed $69 $-1 #
coedge $-1 $201 $71 $202 $203 reversed $45 $-1 #
coedge $-1 $71 $201 $197 $204 forward $45 $-1 #
coedge $-1 $199 $205 $71 $118 forward $112 $-1 #
edge $-1 $206 -25.886322489850983 $207 -11.356018903510879 $117 $208 forward 7 unknown #
loop $-1 $-1 $124 $72 #
plane-surface $-1 37.242341393361869 -39.555538017474063 13.540300328299594 0 -0.66913061440640931 0.74314481823134659 1 0 0 forward_v I I I I #
loop $-1 $-1 $209 $47 #
coedge $-1 $122 $122 $123 $210 reversed $73 $-1 #
coedge $-1 $123 $123 $122 $210 forward $75 $-1 #
coedge $-1 $124 $124 $76 $125 forward $119 $-1 #
edge $-1 $211 -1.5777076461262981e-015 $211 6.2831853071795987 $124 $212 forward 7 unknown #
loop $-1 $-1 $131 $77 #
plane-surface $-1 37.242341393361869 -39.555538017474063 13.540300328299594 0 -0.66913061440640931 0.74314481823134659 1 0 0 forward_v I I I I #
loop $-1 $-1 $213 $50 #
coedge $-1 $129 $129 $130 $214 reversed $78 $-1 #
coedge $-1 $130 $130 $129 $214 forward $80 $-1 #
coedge $-1 $131 $131 $81 $132 forward $126 $-1 #
edge $-1 $215 -1.5777076461262981e-015 $215 6.2831853071795987 $131 $216 forward 7 unknown #
loop $-1 $-1 $138 $82 #
plane-surface $-1 37.242341393361869 -39.555538017474063 13.540300328299594 0 -0.66913061440640931 0.74314481823134659 1 0 0 forward_v I I I I #
loop $-1 $-1 $217 $53 #
coedge $-1 $136 $136 $137 $218 reversed $83 $-1 #
coedge $-1 $137 $137 $136 $218 forward $85 $-1 #
coedge $-1 $138 $138 $86 $139 forward $133 $-1 #
edge $-1 $219 -1.5777076461262981e-015 $219 6.2831853071795987 $138 $220 forward 7 unknown #
face $-1 $221 $222 $21 $-1 $223 reversed single #
loop $-1 $-1 $224 $87 #
plane-surface $-1 -65.325479903561501 0 0 1 0 0 0 0 -1 forward_v I I I I #
coedge $-1 $225 $151 $226 $227 forward $88 $-1 #
coedge $-1 $228 $90 $225 $229 forward $57 $-1 #
coedge $-1 $90 $228 $230 $231 forward $57 $-1 #
coedge $-1 $154 $153 $90 $147 reversed $155 $-1 #
edge $-1 $232 -39.555538017474085 $233 39.555538017474085 $146 $234 forward 7 unknown #
coedge $-1 $92 $91 $235 $236 forward $36 $-1 #
coedge $-1 $237 $238 $91 $150 reversed $222 $-1 #
edge $-1 $157 -65.325479903561501 $239 65.325479903561501 $149 $240 forward 7 unknown #
coedge $-1 $143 $241 $92 $152 reversed $88 $-1 #
edge $-1 $242 -65.325479903561501 $156 65.325479903561501 $151 $243 forward 7 unknown #
coedge $-1 $146 $93 $241 $244 forward $155 $-1 #
coedge $-1 $93 $146 $237 $245 reversed $155 $-1 #
loop $-1 $-1 $153 $221 #
vertex $-1 $94 $246 #
vertex $-1 $94 $247 #
straight-curve $-1 65.325479903561501 0 17.732692042417181 0 1 0 I I #
face $-1 $248 $249 $22 $-1 $250 forward single #
loop $-1 $-1 $251 $95 #
plane-surface $-1 -65.325479903561501 0 0 1 0 0 0 0 -1 forward_v I I I I #
coedge $-1 $169 $252 $171 $253 forward $96 $-1 #
coedge $-1 $98 $171 $254 $255 reversed $61 $-1 #
coedge $-1 $256 $167 $98 $165 forward $257 $-1 #
edge $-1 $173 5.7841631047444455 $258 9.8937403266966388 $164 $259 forward 7 unknown #
coedge $-1 $100 $99 $251 $260 reversed $39 $-1 #
coedge $-1 $164 $261 $99 $168 forward $257 $-1 #
edge $-1 $262 -37.867236631038146 $173 -17.049249914008563 $167 $263 forward 7 unknown #
coedge $-1 $264 $162 $100 $170 forward $96 $-1 #
edge $-1 $172 17.049249914008563 $265 37.867236631038146 $169 $266 forward 7 unknown #
coedge $-1 $163 $101 $162 $253 reversed $61 $-1 #
vertex $-1 $170 $267 #
vertex $-1 $168 $268 #
straight-curve $-1 -44.507493186531917 0 13.623114820464988 0 -1 0 I I #
face $-1 $269 $270 $23 $-1 $271 reversed single #
loop $-1 $-1 $272 $103 #
plane-surface $-1 0 -39.555538017474085 0 0 1 0 0 0 1 forward_v I I I I #
coedge $-1 $273 $274 $180 $275 forward $104 $-1 #
coedge $-1 $276 $106 $183 $277 reversed $65 $-1 #
coedge $-1 $106 $276 $178 $275 reversed $65 $-1 #
coedge $-1 $278 $186 $106 $182 forward $270 $-1 #
edge $-1 $279 5.7841631047444455 $280 9.8937403266966388 $181 $281 forward 7 unknown #
coedge $-1 $108 $107 $179 $277 forward $42 $-1 #
coedge $-1 $282 $272 $107 $185 forward $176 $-1 #
edge $-1 $283 17.049249914008563 $191 37.867236631038146 $184 $284 forward 7 unknown #
coedge $-1 $181 $285 $108 $187 forward $270 $-1 #
edge $-1 $192 -37.867236631038146 $279 -17.049249914008563 $186 $286 forward 7 unknown #
coedge $-1 $287 $109 $285 $288 reversed $190 $-1 #
coedge $-1 $109 $287 $282 $289 forward $190 $-1 #
loop $-1 $-1 $109 $269 #
vertex $-1 $185 $290 #
vertex $-1 $110 $291 #
straight-curve $-1 65.325479903561501 0 13.623114820464988 0 1 0 I I #
face $-1 $-1 $292 $24 $-1 $293 forward single #
loop $-1 $-1 $294 $111 #
plane-surface $-1 0 -39.555538017474085 0 0 1 0 0 0 1 forward_v I I I I #
coedge $-1 $198 $114 $116 $204 reversed $69 $-1 #
coedge $-1 $114 $197 $294 $295 reversed $69 $-1 #
coedge $-1 $296 $117 $114 $200 forward $112 $-1 #
edge $-1 $207 -28.589632098893603 $297 -23.9335094955266 $199 $298 forward 7 unknown #
coedge $-1 $116 $115 $299 $300 reversed $45 $-1 #
coedge $-1 $301 $302 $115 $203 forward $292 $-1 #
edge $-1 $303 -15.412914393900527 $206 -9.1474833646586386 $202 $304 forward 7 unknown #
edge $-1 $305 -2.8915846743243384e-014 $207 6.26543102924186 $197 $306 forward 7 unknown #
coedge $-1 $117 $296 $301 $307 forward $112 $-1 #
vertex $-1 $203 $308 #
vertex $-1 $118 $309 #
straight-curve $-1 18.621170696680934 -34.899415414107082 17.732692042417181 -1 0 0 I I #
coedge $-1 $209 $209 $-1 $310 reversed $121 $-1 #
edge $-1 $311 0 $311 6.2831853071796004 $122 $312 forward 7 unknown #
vertex $-1 $125 $313 #
ellipse-curve $-1 32.883250317459826 -37.227476715790587 15.636496185358373 0 -0.66913061440640931 0.74314481823134659 1 0 0 1 I I #
coedge $-1 $213 $213 $-1 $314 reversed $128 $-1 #
edge $-1 $315 0 $315 6.2831853071796004 $129 $316 forward 7 unknown #
vertex $-1 $132 $317 #
ellipse-curve $-1 37.242341393361855 -37.227476715790587 15.636496185358373 0 -0.66913061440640931 0.74314481823134659 1 0 0 1 I I #
coedge $-1 $217 $217 $-1 $318 reversed $135 $-1 #
edge $-1 $319 0 $319 6.2831853071796004 $136 $320 forward 7 unknown #
vertex $-1 $139 $321 #
ellipse-curve $-1 41.601432469263884 -37.227476715790587 15.636496185358373 0 -0.66913061440640931 0.74314481823134659 1 0 0 1 I I #
face $-1 $-1 $155 $21 $-1 $322 reversed single #
loop $-1 $-1 $237 $140 #
plane-surface $-1 0 39.555538017474085 0 0 -1 0 0 0 -1 forward_v I I I I #
coedge $-1 $323 $235 $238 $324 forward $141 $-1 #
coedge $-1 $241 $143 $144 $229 reversed $88 $-1 #
coedge $-1 $235 $323 $143 $227 reversed $141 $-1 #
edge $-1 $242 -17.732692042417181 $325 17.732692042417181 $226 $326 forward 7 unknown #
coedge $-1 $145 $144 $323 $327 forward $57 $-1 #
edge $-1 $233 -65.325479903561501 $325 65.325479903561501 $225 $328 forward 7 unknown #
coedge $-1 $238 $237 $145 $231 reversed $222 $-1 #
edge $-1 $329 -65.325479903561501 $232 65.325479903561501 $230 $330 forward 7 unknown #
vertex $-1 $147 $331 #
vertex $-1 $244 $332 #
straight-curve $-1 65.325479903561501 0 -17.732692042417181 0 -1 0 I I #
coedge $-1 $224 $226 $148 $236 reversed $141 $-1 #
edge $-1 $239 -39.555538017474085 $242 39.555538017474085 $235 $333 forward 7 unknown #
coedge $-1 $230 $149 $154 $245 forward $222 $-1 #
coedge $-1 $149 $230 $224 $324 reversed $222 $-1 #
vertex $-1 $150 $334 #
straight-curve $-1 0 39.555538017474085 17.732692042417181 -1 0 0 I I #
coedge $-1 $151 $225 $153 $244 reversed $88 $-1 #
vertex $-1 $236 $335 #
straight-curve $-1 0 -39.555538017474085 17.732692042417181 1 0 0 I I #
edge $-1 $156 -17.732692042417181 $233 17.732692042417181 $153 $336 forward 7 unknown #
edge $-1 $157 -17.732692042417181 $232 17.732692042417181 $154 $337 forward 7 unknown #
point $-1 65.325479903561501 -39.555538017474085 17.732692042417181 #
point $-1 65.325479903561501 39.555538017474085 17.732692042417181 #
face $-1 $-1 $257 $22 $-1 $338 reversed single #
loop $-1 $-1 $254 $159 #
plane-surface $-1 0 0 17.732692042417181 0 0 1 1 0 0 forward_v I I I I #
coedge $-1 $339 $340 $166 $260 forward $160 $-1 #
coedge $-1 $162 $264 $341 $342 reversed $96 $-1 #
edge $-1 $343 -9.8937403266966388 $172 -5.7841631047444455 $162 $344 forward 7 unknown #
coedge $-1 $341 $345 $163 $255 forward $249 $-1 #
edge $-1 $258 -39.555538017474085 $343 39.555538017474085 $254 $346 forward 7 unknown #
coedge $-1 $261 $164 $345 $347 reversed $257 $-1 #
loop $-1 $-1 $164 $248 #
vertex $-1 $165 $348 #
straight-curve $-1 -44.507493186531917 -39.555538017474085 7.8389517157205422 0 0 1 I I #
edge $-1 $265 -39.555538017474085 $262 39.555538017474085 $251 $349 forward 7 unknown #
coedge $-1 $167 $256 $339 $350 forward $257 $-1 #
vertex $-1 $260 $351 #
straight-curve $-1 -27.458243272523355 -39.555538017474085 13.623114820464988 1 0 0 I I #
coedge $-1 $252 $169 $340 $352 reversed $96 $-1 #
vertex $-1 $260 $353 #
straight-curve $-1 -27.458243272523355 39.555538017474085 13.623114820464988 -1 0 0 I I #
point $-1 -44.507493186531917 39.555538017474085 13.623114820464988 #
point $-1 -44.507493186531917 -39.555538017474085 13.623114820464988 #
face $-1 $-1 $190 $23 $-1 $354 reversed single #
loop $-1 $-1 $181 $175 #
plane-surface $-1 0 39.555538017474085 0 0 -1 0 0 0 -1 forward_v I I I I #
coedge $-1 $184 $355 $276 $356 forward $176 $-1 #
coedge $-1 $357 $178 $355 $358 forward $104 $-1 #
coedge $-1 $178 $357 $278 $359 forward $104 $-1 #
edge $-1 $280 -39.555538017474085 $360 39.555538017474085 $178 $361 forward 7 unknown #
coedge $-1 $180 $179 $272 $356 reversed $65 $-1 #
edge $-1 $283 -39.555538017474085 $279 39.555538017474085 $179 $362 forward 7 unknown #
coedge $-1 $285 $181 $274 $359 reversed $270 $-1 #
vertex $-1 $187 $363 #
vertex $-1 $182 $364 #
straight-curve $-1 44.507493186531917 39.555538017474085 7.8389517157205422 0 0 1 I I #
coedge $-1 $355 $184 $189 $289 reversed $176 $-1 #
vertex $-1 $185 $365 #
straight-curve $-1 27.458243272523355 -39.555538017474085 13.623114820464988 1 0 0 I I #
coedge $-1 $186 $278 $188 $288 forward $270 $-1 #
straight-curve $-1 27.458243272523355 39.555538017474085 13.623114820464988 -1 0 0 I I #
coedge $-1 $189 $188 $357 $366 reversed $190 $-1 #
edge $-1 $367 -17.732692042417181 $192 -13.623114820464988 $188 $368 forward 7 unknown #
edge $-1 $369 -17.732692042417181 $191 -13.623114820464988 $189 $370 forward 7 unknown #
point $-1 65.325479903561501 -39.555538017474085 13.623114820464988 #
point $-1 65.325479903561501 39.555538017474085 13.623114820464988 #
loop $-1 $-1 $202 $194 #
plane-surface $-1 44.507493186531917 0 15.677903431441084 1 0 0 0 0 -1 forward_v I I I I #
coedge $-1 $299 $371 $198 $295 forward $195 $-1 #
edge $-1 $297 37.583750010540314 $305 41.776141724657919 $294 $372 forward 7 unknown #
coedge $-1 $205 $199 $371 $373 forward $112 $-1 #
vertex $-1 $373 $374 #
straight-curve $-1 29.977189600191814 -63.489047513000685 17.732692042417185 0 -1 0 I I #
coedge $-1 $375 $294 $201 $300 forward $195 $-1 #
edge $-1 $305 11.356018903510879 $303 25.88632248985099 $299 $376 forward 7 unknown #
coedge $-1 $302 $202 $205 $307 reversed $292 $-1 #
coedge $-1 $202 $301 $375 $377 reversed $292 $-1 #
vertex $-1 $377 $378 #
straight-curve $-1 44.507493186531917 -28.101510551803571 23.853553206483625 0 0.74314481823134659 0.66913061440640931 I I #
vertex $-1 $300 $379 #
straight-curve $-1 29.977189600191814 -39.555538017474063 13.540300328299594 0 0.74314481823134659 0.66913061440640931 I I #
edge $-1 $380 -39.555538017474085 $206 -34.899415414107082 $205 $381 forward 7 unknown #
point $-1 44.507493186531917 -34.899415414107082 17.732692042417181 #
point $-1 29.977189600191814 -34.899415414107082 17.732692042417181 #
edge $-1 $382 1 $382 0 $209 $-1 forward 7 unknown #
vertex $-1 $210 $383 #
ellipse-curve $-1 32.883250317459826 -36.197019245361162 14.492057247623114 0 -0.66913061440640931 0.74314481823134659 1 0 0 1 I I #
point $-1 33.883250317459826 -37.227476715790608 15.636496185358395 #
edge $-1 $384 1 $384 0 $213 $-1 forward 7 unknown #
vertex $-1 $214 $385 #
ellipse-curve $-1 37.242341393361855 -36.197019245361162 14.492057247623114 0 -0.66913061440640931 0.74314481823134659 1 0 0 1 I I #
point $-1 38.242341393361855 -37.227476715790608 15.636496185358395 #
edge $-1 $386 1 $386 0 $217 $-1 forward 7 unknown #
vertex $-1 $218 $387 #
ellipse-curve $-1 41.601432469263884 -36.197019245361162 14.492057247623114 0 -0.66913061440640931 0.74314481823134659 1 0 0 1 I I #
point $-1 42.601432469263884 -37.227476715790608 15.636496185358395 #
plane-surface $-1 65.325479903561501 0 0 -1 0 0 0 0 1 forward_v I I I I #
coedge $-1 $226 $224 $228 $327 reversed $141 $-1 #
edge $-1 $239 -17.732692042417181 $329 17.732692042417181 $238 $388 forward 7 unknown #
vertex $-1 $327 $389 #
straight-curve $-1 -65.325479903561501 -39.555538017474085 0 0 0 -1 I I #
edge $-1 $325 -39.555538017474085 $329 39.555538017474085 $323 $390 forward 7 unknown #
straight-curve $-1 0 -39.555538017474085 -17.732692042417181 -1 0 0 I I #
vertex $-1 $231 $391 #
straight-curve $-1 0 39.555538017474085 -17.732692042417181 1 0 0 I I #
point $-1 65.325479903561501 39.555538017474085 -17.732692042417181 #
point $-1 65.325479903561501 -39.555538017474085 -17.732692042417181 #
straight-curve $-1 -65.325479903561501 0 17.732692042417181 0 -1 0 I I #
point $-1 -65.325479903561501 39.555538017474085 17.732692042417181 #
point $-1 -65.325479903561501 -39.555538017474085 17.732692042417181 #
straight-curve $-1 65.325479903561501 -39.555538017474085 0 0 0 -1 I I #
straight-curve $-1 65.325479903561501 39.555538017474085 0 0 0 -1 I I #
plane-surface $-1 0 -39.555538017474085 0 0 1 0 0 0 1 forward_v I I I I #
coedge $-1 $392 $251 $261 $350 reversed $160 $-1 #
coedge $-1 $251 $392 $264 $352 forward $160 $-1 #
coedge $-1 $393 $254 $252 $342 forward $249 $-1 #
edge $-1 $343 44.507493186531917 $394 65.325479903561501 $252 $395 forward 7 unknown #
vertex $-1 $342 $396 #
straight-curve $-1 -44.507493186531917 39.555538017474085 7.8389517157205422 0 0 -1 I I #
coedge $-1 $254 $393 $256 $347 forward $249 $-1 #
straight-curve $-1 -44.507493186531917 0 17.732692042417181 0 1 0 I I #
edge $-1 $397 -65.325479903561501 $258 -44.507493186531917 $256 $398 forward 7 unknown #
point $-1 -44.507493186531917 -39.555538017474085 17.732692042417181 #
straight-curve $-1 -65.325479903561501 0 13.623114820464988 0 -1 0 I I #
edge $-1 $397 -17.732692042417181 $262 -13.623114820464988 $339 $399 forward 7 unknown #
point $-1 -65.325479903561501 -39.555538017474085 13.623114820464988 #
edge $-1 $394 -17.732692042417181 $265 -13.623114820464988 $264 $400 forward 7 unknown #
point $-1 -65.325479903561501 39.555538017474085 13.623114820464988 #
plane-surface $-1 65.325479903561501 0 0 -1 0 0 0 0 1 forward_v I I I I #
coedge $-1 $272 $282 $273 $358 reversed $176 $-1 #
edge $-1 $360 -9.8937403266966388 $283 -5.7841631047444455 $272 $401 forward 7 unknown #
coedge $-1 $274 $273 $287 $366 forward $104 $-1 #
edge $-1 $360 44.507493186531917 $369 65.325479903561501 $355 $402 forward 7 unknown #
edge $-1 $367 -65.325479903561501 $280 -44.507493186531917 $278 $403 forward 7 unknown #
vertex $-1 $358 $404 #
straight-curve $-1 44.507493186531917 0 17.732692042417181 0 -1 0 I I #
straight-curve $-1 44.507493186531917 0 13.623114820464988 0 1 0 I I #
point $-1 44.507493186531917 39.555538017474085 13.623114820464988 #
point $-1 44.507493186531917 39.555538017474085 17.732692042417181 #
point $-1 44.507493186531917 -39.555538017474085 13.623114820464988 #
edge $-1 $369 -39.555538017474085 $367 39.555538017474085 $287 $405 forward 7 unknown #
vertex $-1 $366 $406 #
straight-curve $-1 65.325479903561501 39.555538017474085 0 0 0 -1 I I #
vertex $-1 $366 $407 #
straight-curve $-1 65.325479903561501 -39.555538017474085 0 0 0 -1 I I #
coedge $-1 $294 $375 $296 $373 reversed $195 $-1 #
straight-curve $-1 29.977189600191814 -39.555538017474085 55.316442052957491 0 0 -1 I I #
edge $-1 $297 29.977189600191814 $380 44.507493186531917 $371 $408 forward 7 unknown #
point $-1 29.977189600191814 -39.555538017474085 17.732692042417181 #
coedge $-1 $371 $299 $302 $377 forward $195 $-1 #
straight-curve $-1 18.621170696680934 -39.555538017474085 13.54030032829958 1 0 0 I I #
edge $-1 $303 -41.776141724657919 $380 -37.583750010540314 $375 $409 forward 7 unknown #
point $-1 44.507493186531924 -39.555538017474085 13.540300328299574 #
point $-1 29.977189600191814 -39.555538017474085 13.540300328299574 #
vertex $-1 $307 $410 #
straight-curve $-1 44.507493186531917 0 17.732692042417181 0 1 0 I I #
vertex $-1 $310 $411 #
point $-1 33.883250317459826 -36.197019245361162 14.492057247623114 #
vertex $-1 $314 $412 #
point $-1 38.242341393361855 -36.197019245361162 14.492057247623114 #
vertex $-1 $318 $413 #
point $-1 42.601432469263884 -36.197019245361162 14.492057247623114 #
straight-curve $-1 -65.325479903561501 39.555538017474085 0 0 0 -1 I I #
point $-1 -65.325479903561501 -39.555538017474085 -17.732692042417181 #
straight-curve $-1 -65.325479903561501 0 -17.732692042417181 0 1 0 I I #
point $-1 -65.325479903561501 39.555538017474085 -17.732692042417181 #
coedge $-1 $340 $339 $393 $414 reversed $160 $-1 #
coedge $-1 $345 $341 $392 $414 forward $249 $-1 #
vertex $-1 $342 $415 #
straight-curve $-1 0 39.555538017474085 17.732692042417181 -1 0 0 I I #
point $-1 -44.507493186531917 39.555538017474085 17.732692042417181 #
vertex $-1 $414 $416 #
straight-curve $-1 0 -39.555538017474085 17.732692042417181 1 0 0 I I #
straight-curve $-1 -65.325479903561501 -39.555538017474085 0 0 0 -1 I I #
straight-curve $-1 -65.325479903561501 39.555538017474085 0 0 0 -1 I I #
straight-curve $-1 44.507493186531917 -39.555538017474085 7.8389517157205422 0 0 -1 I I #
straight-curve $-1 0 -39.555538017474085 17.732692042417181 1 0 0 I I #
straight-curve $-1 0 39.555538017474085 17.732692042417181 -1 0 0 I I #
point $-1 44.507493186531917 -39.555538017474085 17.732692042417181 #
straight-curve $-1 65.325479903561501 0 17.732692042417181 0 1 0 I I #
point $-1 65.325479903561501 39.555538017474085 17.732692042417181 #
point $-1 65.325479903561501 -39.555538017474085 17.732692042417181 #
straight-curve $-1 0 -39.555538017474085 17.732692042417181 1 0 0 I I #
straight-curve $-1 44.507493186531924 -39.555538017474085 55.316442052957491 0 0 1 I I #
point $-1 44.507493186531917 -39.555538017474085 17.732692042417181 #
point $-1 32.883250317459826 -35.527888630954749 13.748912429391767 #
point $-1 37.242341393361855 -35.527888630954749 13.748912429391767 #
point $-1 41.601432469263884 -35.527888630954749 13.748912429391767 #
edge $-1 $394 -39.555538017474085 $397 39.555538017474085 $392 $417 forward 7 unknown #
point $-1 -65.325479903561501 39.555538017474085 17.732692042417181 #
point $-1 -65.325479903561501 -39.555538017474085 17.732692042417181 #
straight-curve $-1 -65.325479903561501 0 17.732692042417181 0 -1 0 I I #
End-of-ACIS-data 