500 0 6 0           
7 Unknown 11 ACIS 5.0 NT 24 Thu Mar 25 19:05:47 1999 
-1 9.9999999999999995e-007 1e-010 
body $-1 $6 $-1 $7 #
body $-1 $8 $-1 $9 #
body $-1 $10 $-1 $11 #
body $-1 $12 $-1 $13 #
body $-1 $14 $-1 $15 #
body $-1 $16 $-1 $17 #
lump $-1 $-1 $18 $0 #
transform $-1 1 0 0 0 1 0 0 0 1 51.018402661214026 29.774618185686688 14.736832187067725 1 rotate no_reflect no_shear #
lump $-1 $-1 $19 $1 #
transform $-1 1 0 0 0 1 0 0 0 1 51.018402661214026 29.774618185686688 14.736832187067725 1 rotate no_reflect no_shear #
lump $-1 $-1 $20 $2 #
transform $-1 1 0 0 0 1 0 0 0 1 51.018402661214026 29.774618185686688 14.736832187067725 1 rotate no_reflect no_shear #
lump $-1 $-1 $21 $3 #
transform $-1 1 0 0 0 1 0 0 0 1 51.018402661214026 29.774618185686688 14.736832187067725 1 rotate no_reflect no_shear #
lump $-1 $-1 $22 $4 #
transform $-1 1 0 0 0 1 0 0 0 1 51.018402661214026 29.774618185686688 14.736832187067725 1 rotate no_reflect no_shear #
lump $-1 $-1 $23 $5 #
transform $-1 1 0 0 0 1 0 0 0 1 51.018402661214026 29.774618185686688 14.736832187067725 1 rotate no_reflect no_shear #
shell $-1 $-1 $-1 $24 $-1 $6 #
shell $-1 $-1 $-1 $25 $-1 $8 #
shell $-1 $-1 $-1 $26 $-1 $10 #
shell $-1 $-1 $-1 $27 $-1 $12 #
shell $-1 $-1 $-1 $28 $-1 $14 #
shell $-1 $-1 $-1 $29 $-1 $16 #
face $-1 $30 $31 $18 $-1 $32 forward single #
face $-1 $33 $34 $19 $-1 $35 reversed single #
face $-1 $36 $37 $20 $-1 $38 forward single #
face $-1 $39 $40 $21 $-1 $41 forward single #
face $-1 $42 $43 $22 $-1 $44 reversed single #
face $-1 $45 $46 $23 $-1 $47 forward single #
face $-1 $48 $49 $18 $-1 $50 reversed single #
loop $-1 $-1 $51 $24 #
plane-surface $-1 0 0 14.736832187067725 0 0 1 1 0 0 forward_v I I I I #
face $-1 $52 $53 $19 $-1 $54 reversed single #
loop $-1 $-1 $55 $25 #
plane-surface $-1 -140.26180422779018 4.415973744655318 55.811979392597472 0 1 0 -0.87461971476443456 0 0.48480960649040278 forward_v I I I I #
face $-1 $56 $57 $20 $-1 $58 forward single #
loop $-1 $59 $60 $26 #
cone-surface $-1 -48.166641039571616 6.5267018912883081 10.248889590622349 0.87461971476443456 0 -0.48480960649040278 0.24240480324520139 0 0.43730985738221728 1 I I 0 1 0.5 forward I I I I #
face $-1 $61 $62 $21 $-1 $63 forward single #
loop $-1 $64 $65 $27 #
cone-surface $-1 -48.166641039571616 9.6927941112377916 10.248889590622349 0.87461971476443456 0 -0.48480960649040278 0.24240480324520139 0 0.43730985738221728 1 I I 0 1 0.5 forward I I I I #
face $-1 $66 $67 $22 $-1 $68 reversed single #
loop $-1 $-1 $69 $28 #
plane-surface $-1 76.076155175556153 25.487926503848204 148.05875257004502 0 -1 0 -0.81915205242281985 0 -0.57357642473473569 forward_v I I I I #
face $-1 $70 $71 $23 $-1 $72 forward single #
loop $-1 $73 $74 $29 #
cone-surface $-1 46.522917679140768 19.776920314275106 9.349487261801384 -0.81915205242281985 0 -0.57357642473473569 1.4339410618368391 0 -2.0478801310570498 1 I I 0 1 2.5 forward I I I I #
face $-1 $75 $76 $18 $-1 $77 reversed single #
loop $-1 $-1 $78 $30 #
plane-surface $-1 0 0 -14.736832187067725 0 0 1 1 0 0 forward_v I I I I #
coedge $-1 $79 $80 $81 $82 forward $31 $-1 #
face $-1 $83 $84 $19 $-1 $85 reversed single #
loop $-1 $-1 $86 $33 #
plane-surface $-1 -51.018402661214012 8.1097480012630463 6.3435559566932938 -0.87461971476443456 0 0.48480960649040278 0.48480960649040278 0 0.87461971476443456 forward_v I I I I #
coedge $-1 $87 $88 $89 $90 reversed $34 $-1 #
face $-1 $-1 $91 $20 $-1 $92 forward single #
loop $-1 $93 $94 $36 #
cone-surface $-1 -47.422458895873348 6.5267018912883081 9.8363827077415831 0.87461971476443456 0 -0.48480960649040278 0.12120240162260069 0 0.21865492869110864 1 I I -0.70710678118654746 0.70710678118654746 0.25 forward I I I I #
loop $-1 $-1 $95 $26 #
coedge $-1 $60 $60 $96 $97 reversed $37 $-1 #
face $-1 $-1 $98 $21 $-1 $99 forward single #
loop $-1 $100 $101 $39 #
cone-surface $-1 -47.422458895873348 9.6927941112377916 9.8363827077415831 0.87461971476443456 0 -0.48480960649040278 0.12120240162260069 0 0.21865492869110864 1 I I -0.70710678118654746 0.70710678118654746 0.25 forward I I I I #
loop $-1 $-1 $102 $27 #
coedge $-1 $65 $65 $103 $104 reversed $40 $-1 #
face $-1 $105 $106 $22 $-1 $107 reversed single #
loop $-1 $-1 $108 $42 #
plane-surface $-1 -7.5075033269784939 19.776920314275106 89.532846581852482 0.81915205242281985 0 0.57357642473473569 0.57357642473473569 0 -0.81915205242281985 forward_v I I I I #
coedge $-1 $109 $110 $111 $112 reversed $43 $-1 #
face $-1 $-1 $113 $23 $-1 $114 forward single #
loop $-1 $115 $116 $45 #
cone-surface $-1 44.080079862356769 19.776920314275106 7.6389938594915723 -0.81915205242281985 0 -0.57357642473473569 0.71697053091841956 0 -1.0239400655285249 1 I I -0.70710678118654746 0.70710678118654746 1.25 forward I I I I #
loop $-1 $-1 $117 $29 #
coedge $-1 $74 $74 $118 $119 reversed $46 $-1 #
face $-1 $120 $121 $18 $-1 $122 reversed single #
loop $-1 $-1 $123 $48 #
plane-surface $-1 0 -29.774618185686688 0 0 1 0 0 0 1 forward_v I I I I #
coedge $-1 $124 $125 $126 $127 forward $49 $-1 #
coedge $-1 $128 $51 $129 $130 forward $31 $-1 #
coedge $-1 $51 $128 $131 $132 forward $31 $-1 #
coedge $-1 $133 $134 $51 $82 reversed $135 $-1 #
edge $-1 $136 -29.774618185686688 $137 29.774618185686688 $81 $138 forward 7 unknown #
face $-1 $139 $140 $19 $-1 $141 reversed single #
loop $-1 $-1 $142 $52 #
plane-surface $-1 -140.26180422779018 11.803522257870775 55.811979392597472 0 -1 0 0.87461971476443456 0 -0.48480960649040278 forward_v I I I I #
coedge $-1 $143 $144 $145 $146 reversed $53 $-1 #
coedge $-1 $88 $55 $147 $148 reversed $34 $-1 #
coedge $-1 $55 $87 $143 $149 reversed $34 $-1 #
coedge $-1 $145 $150 $55 $90 forward $151 $-1 #
edge $-1 $152 19.112499452681064 $153 23.764968265951588 $89 $154 forward 7 unknown #
loop $-1 $-1 $96 $56 #
plane-surface $-1 -51.018402661214012 8.1097480012630463 6.3435559566932938 -0.87461971476443456 0 0.48480960649040278 0.48480960649040278 0 0.87461971476443456 forward_v I I I I #
loop $-1 $-1 $155 $36 #
coedge $-1 $94 $94 $95 $156 reversed $57 $-1 #
coedge $-1 $95 $95 $94 $156 forward $59 $-1 #
coedge $-1 $96 $96 $60 $97 forward $91 $-1 #
edge $-1 $157 0 $157 6.2831853071796004 $96 $158 forward 7 unknown #
loop $-1 $-1 $103 $61 #
plane-surface $-1 -51.018402661214012 8.1097480012630463 6.3435559566932938 -0.87461971476443456 0 0.48480960649040278 0.48480960649040278 0 0.87461971476443456 forward_v I I I I #
loop $-1 $-1 $159 $39 #
coedge $-1 $101 $101 $102 $160 reversed $62 $-1 #
coedge $-1 $102 $102 $101 $160 forward $64 $-1 #
coedge $-1 $103 $103 $65 $104 forward $98 $-1 #
edge $-1 $161 0 $161 6.2831853071796004 $103 $162 forward 7 unknown #
face $-1 $163 $164 $22 $-1 $165 forward single #
loop $-1 $-1 $166 $66 #
plane-surface $-1 76.076155175556153 14.065914124702008 148.05875257004502 0 1 0 0.81915205242281985 0 0.57357642473473569 forward_v I I I I #
coedge $-1 $167 $168 $169 $170 reversed $67 $-1 #
coedge $-1 $110 $69 $171 $172 reversed $43 $-1 #
coedge $-1 $69 $109 $167 $173 reversed $43 $-1 #
coedge $-1 $169 $174 $69 $112 forward $164 $-1 #
edge $-1 $175 -12.980325073435949 $176 -6.8271506118003984 $111 $177 forward 7 unknown #
loop $-1 $-1 $118 $70 #
plane-surface $-1 -7.5075033269784939 19.776920314275106 89.532846581852482 0.81915205242281985 0 0.57357642473473569 0.57357642473473569 0 -0.81915205242281985 forward_v I I I I #
loop $-1 $-1 $178 $45 #
coedge $-1 $116 $116 $117 $179 reversed $71 $-1 #
coedge $-1 $117 $117 $116 $179 forward $73 $-1 #
coedge $-1 $118 $118 $74 $119 forward $113 $-1 #
edge $-1 $180 0 $180 6.2831853071796004 $118 $181 forward 7 unknown #
face $-1 $182 $183 $18 $-1 $184 reversed single #
loop $-1 $-1 $185 $75 #
plane-surface $-1 -51.018402661214026 0 0 1 0 0 0 0 -1 forward_v I I I I #
coedge $-1 $186 $131 $187 $188 forward $76 $-1 #
coedge $-1 $189 $78 $186 $190 forward $49 $-1 #
coedge $-1 $78 $189 $191 $192 forward $49 $-1 #
coedge $-1 $134 $133 $78 $127 reversed $135 $-1 #
edge $-1 $193 -29.774618185686688 $194 29.774618185686688 $126 $195 forward 7 unknown #
coedge $-1 $80 $79 $196 $197 forward $31 $-1 #
coedge $-1 $198 $199 $79 $130 reversed $183 $-1 #
edge $-1 $137 -51.018402661214026 $200 51.018402661214026 $129 $201 forward 7 unknown #
coedge $-1 $123 $202 $80 $132 reversed $76 $-1 #
edge $-1 $203 -51.018402661214026 $136 51.018402661214026 $131 $204 forward 7 unknown #
coedge $-1 $126 $81 $202 $205 forward $135 $-1 #
coedge $-1 $81 $126 $198 $206 reversed $135 $-1 #
loop $-1 $-1 $133 $182 #
vertex $-1 $82 $207 #
vertex $-1 $82 $208 #
straight-curve $-1 51.018402661214026 0 14.736832187067725 0 1 0 I I #
face $-1 $-1 $151 $19 $-1 $209 forward single #
loop $-1 $-1 $210 $83 #
plane-surface $-1 -51.018402661214026 0 0 1 0 0 0 0 -1 forward_v I I I I #
coedge $-1 $211 $212 $213 $214 reversed $84 $-1 #
coedge $-1 $215 $86 $88 $149 forward $53 $-1 #
coedge $-1 $86 $215 $211 $216 forward $53 $-1 #
coedge $-1 $213 $89 $86 $146 forward $151 $-1 #
edge $-1 $153 0.36109974402379486 $217 7.7486482572392514 $145 $218 forward 7 unknown #
coedge $-1 $219 $220 $87 $148 forward $140 $-1 #
edge $-1 $221 -21.562433739605467 $152 -13.169157509231011 $147 $222 forward 7 unknown #
edge $-1 $153 -9.59648643711974 $221 2.9417291209212814e-014 $88 $223 forward 7 unknown #
coedge $-1 $89 $213 $219 $224 forward $151 $-1 #
loop $-1 $-1 $213 $139 #
vertex $-1 $148 $225 #
vertex $-1 $90 $226 #
straight-curve $-1 -70.13090211389509 4.415973744655318 14.736832187067726 1 0 0 I I #
coedge $-1 $155 $155 $-1 $227 reversed $93 $-1 #
edge $-1 $228 0 $228 6.2831853071796004 $94 $229 forward 7 unknown #
vertex $-1 $97 $230 #
ellipse-curve $-1 -48.69216825457876 6.5267018912883081 10.540194071880506 -0.87461971476443456 0 0.48480960649040278 0.24240480324520139 0 0.43730985738221728 1 I I #
coedge $-1 $159 $159 $-1 $231 reversed $100 $-1 #
edge $-1 $232 0 $232 6.2831853071796004 $101 $233 forward 7 unknown #
vertex $-1 $104 $234 #
ellipse-curve $-1 -48.69216825457876 9.6927941112377916 10.540194071880506 -0.87461971476443456 0 0.48480960649040278 0.24240480324520139 0 0.43730985738221728 1 I I #
face $-1 $-1 $235 $22 $-1 $236 reversed single #
loop $-1 $-1 $111 $105 #
plane-surface $-1 0 0 14.736832187067725 0 0 1 1 0 0 forward_v I I I I #
coedge $-1 $237 $238 $239 $240 reversed $106 $-1 #
coedge $-1 $241 $108 $110 $173 forward $67 $-1 #
coedge $-1 $108 $241 $237 $242 forward $67 $-1 #
coedge $-1 $239 $111 $108 $170 forward $164 $-1 #
edge $-1 $176 -15.599466346710651 $243 -4.1774539675644551 $169 $244 forward 7 unknown #
coedge $-1 $245 $246 $109 $172 forward $235 $-1 #
edge $-1 $247 -68.080188205704658 $175 -59.292544097954782 $171 $248 forward 7 unknown #
edge $-1 $176 91.309072807129439 $247 102.03680532242805 $110 $249 forward 7 unknown #
coedge $-1 $111 $239 $245 $250 forward $164 $-1 #
vertex $-1 $172 $251 #
vertex $-1 $112 $252 #
straight-curve $-1 38.038077587778076 25.487926503848204 14.736832187067719 -1 0 0 I I #
coedge $-1 $178 $178 $-1 $253 reversed $115 $-1 #
edge $-1 $254 0 $254 6.2831853071796004 $116 $255 forward 7 unknown #
vertex $-1 $119 $256 #
ellipse-curve $-1 47.941815430396254 19.776920314275106 10.343010133192784 0.81915205242281985 0 0.57357642473473569 1.4339410618368391 0 -2.0478801310570498 1 I I #
face $-1 $-1 $135 $18 $-1 $257 reversed single #
loop $-1 $-1 $198 $120 #
plane-surface $-1 0 29.774618185686688 0 0 -1 0 0 0 -1 forward_v I I I I #
coedge $-1 $258 $196 $199 $259 forward $121 $-1 #
coedge $-1 $202 $123 $124 $190 reversed $76 $-1 #
coedge $-1 $196 $258 $123 $188 reversed $121 $-1 #
edge $-1 $203 -14.736832187067725 $260 14.736832187067725 $187 $261 forward 7 unknown #
coedge $-1 $125 $124 $258 $262 forward $49 $-1 #
edge $-1 $194 -51.018402661214026 $260 51.018402661214026 $186 $263 forward 7 unknown #
coedge $-1 $199 $198 $125 $192 reversed $183 $-1 #
edge $-1 $264 -51.018402661214026 $193 51.018402661214026 $191 $265 forward 7 unknown #
vertex $-1 $127 $266 #
vertex $-1 $205 $267 #
straight-curve $-1 51.018402661214026 0 -14.736832187067725 0 -1 0 I I #
coedge $-1 $185 $187 $128 $197 reversed $121 $-1 #
edge $-1 $200 -29.774618185686688 $203 29.774618185686688 $196 $268 forward 7 unknown #
coedge $-1 $191 $129 $134 $206 forward $183 $-1 #
coedge $-1 $129 $191 $185 $259 reversed $183 $-1 #
vertex $-1 $130 $269 #
straight-curve $-1 0 29.774618185686688 14.736832187067725 -1 0 0 I I #
coedge $-1 $131 $186 $133 $205 reversed $76 $-1 #
vertex $-1 $197 $270 #
straight-curve $-1 0 -29.774618185686688 14.736832187067725 1 0 0 I I #
edge $-1 $136 -14.736832187067725 $194 14.736832187067725 $133 $271 forward 7 unknown #
edge $-1 $137 -14.736832187067725 $193 14.736832187067725 $134 $272 forward 7 unknown #
point $-1 51.018402661214026 -29.774618185686688 14.736832187067725 #
point $-1 51.018402661214026 29.774618185686688 14.736832187067725 #
plane-surface $-1 0 0 14.736832187067725 0 0 1 1 0 0 forward_v I I I I #
coedge $-1 $220 $219 $212 $273 forward $140 $-1 #
coedge $-1 $212 $142 $144 $216 reversed $84 $-1 #
coedge $-1 $142 $211 $210 $273 reversed $84 $-1 #
coedge $-1 $150 $145 $142 $214 forward $151 $-1 #
edge $-1 $217 -23.764968265951588 $274 -19.112499452681064 $213 $275 forward 7 unknown #
coedge $-1 $144 $143 $220 $276 reversed $53 $-1 #
edge $-1 $277 -2.9417291209212814e-014 $217 9.59648643711974 $211 $278 forward 7 unknown #
vertex $-1 $146 $279 #
straight-curve $-1 -46.365933847943502 4.0548740006315231 14.736832187067725 0 1 0 I I #
coedge $-1 $210 $147 $150 $224 reversed $140 $-1 #
coedge $-1 $147 $210 $215 $276 forward $140 $-1 #
vertex $-1 $148 $280 #
straight-curve $-1 -51.018402661214026 4.415973744655318 27.905989696298736 0 0 1 I I #
straight-curve $-1 -51.018402661214012 4.415973744655318 6.3435559566932938 -0.48480960649040278 0 -0.87461971476443456 I I #
edge $-1 $274 -11.803522257870775 $152 -4.415973744655318 $219 $281 forward 7 unknown #
point $-1 -51.018402661214026 4.415973744655318 14.736832187067725 #
point $-1 -46.365933847943502 4.415973744655318 14.736832187067725 #
edge $-1 $282 1 $282 0 $155 $-1 forward 7 unknown #
vertex $-1 $156 $283 #
ellipse-curve $-1 -47.641113824564457 6.5267018912883081 9.9575851093641834 -0.87461971476443456 0 0.48480960649040278 0.24240480324520139 0 0.43730985738221728 1 I I #
point $-1 -48.449763451333574 6.5267018912883081 10.977503929262731 #
edge $-1 $284 1 $284 0 $159 $-1 forward 7 unknown #
vertex $-1 $160 $285 #
ellipse-curve $-1 -47.641113824564457 9.6927941112377916 9.9575851093641834 -0.87461971476443456 0 0.48480960649040278 0.24240480324520139 0 0.43730985738221728 1 I I #
point $-1 -48.449763451333574 9.6927941112377916 10.977503929262731 #
loop $-1 $-1 $171 $163 #
plane-surface $-1 51.018402661214026 0 0 -1 0 0 0 0 1 forward_v I I I I #
coedge $-1 $238 $166 $168 $242 reversed $106 $-1 #
coedge $-1 $166 $237 $286 $287 reversed $106 $-1 #
coedge $-1 $174 $169 $166 $240 forward $164 $-1 #
edge $-1 $243 6.8271506118003984 $288 12.980325073435949 $239 $289 forward 7 unknown #
coedge $-1 $168 $167 $246 $290 reversed $67 $-1 #
edge $-1 $291 -102.03680532242805 $243 -91.309072807129439 $237 $292 forward 7 unknown #
vertex $-1 $170 $293 #
straight-curve $-1 44.865228199578482 9.888460157137553 14.736832187067726 0 -1 0 I I #
coedge $-1 $286 $171 $174 $250 reversed $235 $-1 #
coedge $-1 $171 $286 $241 $290 forward $235 $-1 #
vertex $-1 $172 $294 #
straight-curve $-1 51.018402661214026 25.487926503848204 74.029376285022508 0 0 1 I I #
straight-curve $-1 -7.5075033269784939 25.487926503848204 89.532846581852482 0.57357642473473569 0 -0.81915205242281985 I I #
edge $-1 $288 14.065914124702008 $175 25.487926503848204 $245 $295 forward 7 unknown #
point $-1 51.018402661214026 25.487926503848204 14.736832187067725 #
point $-1 44.865228199578475 25.487926503848204 14.736832187067719 #
edge $-1 $296 1 $296 0 $178 $-1 forward 7 unknown #
vertex $-1 $179 $297 #
ellipse-curve $-1 45.104019927885297 19.776920314275106 8.3559643904099925 0.81915205242281985 0 0.57357642473473569 1.4339410618368391 0 -2.0478801310570498 1 I I #
point $-1 49.375756492233087 19.776920314275106 8.2951300021357284 #
plane-surface $-1 51.018402661214026 0 0 -1 0 0 0 0 1 forward_v I I I I #
coedge $-1 $187 $185 $189 $262 reversed $121 $-1 #
edge $-1 $200 -14.736832187067725 $264 14.736832187067725 $199 $298 forward 7 unknown #
vertex $-1 $262 $299 #
straight-curve $-1 -51.018402661214026 -29.774618185686688 0 0 0 -1 I I #
edge $-1 $260 -29.774618185686688 $264 29.774618185686688 $258 $300 forward 7 unknown #
straight-curve $-1 0 -29.774618185686688 -14.736832187067725 -1 0 0 I I #
vertex $-1 $192 $301 #
straight-curve $-1 0 29.774618185686688 -14.736832187067725 1 0 0 I I #
point $-1 51.018402661214026 29.774618185686688 -14.736832187067725 #
point $-1 51.018402661214026 -29.774618185686688 -14.736832187067725 #
straight-curve $-1 -51.018402661214026 0 14.736832187067725 0 -1 0 I I #
point $-1 -51.018402661214026 29.774618185686688 14.736832187067725 #
point $-1 -51.018402661214026 -29.774618185686688 14.736832187067725 #
straight-curve $-1 51.018402661214026 -29.774618185686688 0 0 0 -1 I I #
straight-curve $-1 51.018402661214026 29.774618185686688 0 0 0 -1 I I #
edge $-1 $274 13.169157509231011 $277 21.562433739605467 $210 $302 forward 7 unknown #
vertex $-1 $224 $303 #
straight-curve $-1 -70.13090211389509 11.803522257870775 14.736832187067726 -1 0 0 I I #
edge $-1 $277 -7.7486482572392514 $221 -0.36109974402379486 $220 $304 forward 7 unknown #
vertex $-1 $276 $305 #
straight-curve $-1 -51.018402661214012 11.803522257870775 6.3435559566932938 0.48480960649040278 0 0.87461971476443456 I I #
point $-1 -46.365933847943502 11.803522257870775 14.736832187067725 #
point $-1 -51.018402661214026 4.415973744655318 6.343555956693268 #
straight-curve $-1 -51.018402661214026 0 14.736832187067725 0 -1 0 I I #
vertex $-1 $227 $306 #
point $-1 -47.398709021319256 6.5267018912883081 10.394894966746401 #
vertex $-1 $231 $307 #
point $-1 -47.398709021319256 9.6927941112377916 10.394894966746401 #
coedge $-1 $246 $245 $238 $287 forward $235 $-1 #
edge $-1 $288 59.292544097954782 $291 68.080188205704658 $286 $308 forward 7 unknown #
vertex $-1 $250 $309 #
straight-curve $-1 38.038077587778076 14.065914124702008 14.736832187067719 1 0 0 I I #
edge $-1 $291 4.1774539675644551 $247 15.599466346710651 $246 $310 forward 7 unknown #
vertex $-1 $290 $311 #
straight-curve $-1 -7.5075033269784939 14.065914124702008 89.532846581852482 -0.57357642473473569 0 0.81915205242281985 I I #
point $-1 44.865228199578475 14.065914124702008 14.736832187067719 #
point $-1 51.018402661214033 25.487926503848204 5.9491880793178495 #
straight-curve $-1 51.018402661214026 0 14.736832187067725 0 1 0 I I #
vertex $-1 $253 $312 #
point $-1 46.53796098972213 19.776920314275106 6.3080842593529418 #
straight-curve $-1 -51.018402661214026 29.774618185686688 0 0 0 -1 I I #
point $-1 -51.018402661214026 -29.774618185686688 -14.736832187067725 #
straight-curve $-1 -51.018402661214026 0 -14.736832187067725 0 1 0 I I #
point $-1 -51.018402661214026 29.774618185686688 -14.736832187067725 #
straight-curve $-1 -51.018402661214026 11.803522257870775 27.905989696298736 0 0 -1 I I #
point $-1 -51.018402661214026 11.803522257870775 14.736832187067725 #
straight-curve $-1 -51.018402661214026 4.0548740006315231 6.3435559566932724 0 -1 0 I I #
point $-1 -51.018402661214026 11.803522257870775 6.343555956693268 #
point $-1 -47.203803967182239 6.5267018912883081 9.7151803061189828 #
point $-1 -47.203803967182239 9.6927941112377916 9.7151803061189828 #
straight-curve $-1 51.018402661214026 14.065914124702008 74.029376285022508 0 0 -1 I I #
point $-1 51.018402661214026 14.065914124702008 14.736832187067725 #
straight-curve $-1 51.018402661214033 9.888460157137553 5.9491880793178495 0 1 0 I I #
point $-1 51.018402661214033 14.065914124702008 5.9491880793178495 #
point $-1 43.056139796828241 19.776920314275106 6.9220233285731529 #
End-of-ACIS-data 