500 0 9 0           
7 Unknown 11 ACIS 5.0 NT 24 Fri Mar 26 14:59:48 1999 
-1 9.9999999999999995e-007 1e-010 
body $-1 $9 $-1 $10 #
body $-1 $11 $-1 $12 #
body $-1 $13 $-1 $14 #
body $-1 $15 $-1 $16 #
body $-1 $17 $-1 $18 #
body $-1 $19 $-1 $20 #
body $-1 $21 $-1 $22 #
body $-1 $23 $-1 $24 #
body $-1 $25 $-1 $26 #
lump $-1 $-1 $27 $0 #
transform $-1 1 0 0 0 1 0 0 0 1 71.446272164067508 49.041661416442061 24.502870567317157 1 rotate no_reflect no_shear #
lump $-1 $-1 $28 $1 #
transform $-1 1 0 0 0 1 0 0 0 1 71.446272164067508 49.041661416442061 24.502870567317157 1 rotate no_reflect no_shear #
lump $-1 $-1 $29 $2 #
transform $-1 1 0 0 0 1 0 0 0 1 71.446272164067508 49.041661416442061 24.502870567317157 1 rotate no_reflect no_shear #
lump $-1 $-1 $30 $3 #
transform $-1 1 0 0 0 1 0 0 0 1 71.446272164067508 49.041661416442061 24.502870567317157 1 rotate no_reflect no_shear #
lump $-1 $-1 $31 $4 #
transform $-1 1 0 0 0 1 0 0 0 1 71.446272164067508 49.041661416442061 24.502870567317157 1 rotate no_reflect no_shear #
lump $-1 $-1 $32 $5 #
transform $-1 1 0 0 0 1 0 0 0 1 71.446272164067508 49.041661416442061 24.502870567317157 1 rotate no_reflect no_shear #
lump $-1 $-1 $33 $6 #
transform $-1 1 0 0 0 1 0 0 0 1 71.446272164067508 49.041661416442061 24.502870567317157 1 rotate no_reflect no_shear #
lump $-1 $-1 $34 $7 #
transform $-1 1 0 0 0 1 0 0 0 1 71.446272164067508 49.041661416442061 24.502870567317157 1 rotate no_reflect no_shear #
lump $-1 $-1 $35 $8 #
transform $-1 1 0 0 0 1 0 0 0 1 71.446272164067508 49.041661416442061 24.502870567317157 1 rotate no_reflect no_shear #
shell $-1 $-1 $-1 $36 $-1 $9 #
shell $-1 $-1 $-1 $37 $-1 $11 #
shell $-1 $-1 $-1 $38 $-1 $13 #
shell $-1 $-1 $-1 $39 $-1 $15 #
shell $-1 $-1 $-1 $40 $-1 $17 #
shell $-1 $-1 $-1 $41 $-1 $19 #
shell $-1 $-1 $-1 $42 $-1 $21 #
shell $-1 $-1 $-1 $43 $-1 $23 #
shell $-1 $-1 $-1 $44 $-1 $25 #
face $-1 $45 $46 $27 $-1 $47 forward single #
face $-1 $48 $49 $28 $-1 $50 forward single #
face $-1 $51 $52 $29 $-1 $53 forward single #
face $-1 $54 $55 $30 $-1 $56 reversed single #
face $-1 $57 $58 $31 $-1 $59 forward single #
face $-1 $60 $61 $32 $-1 $62 forward single #
face $-1 $63 $64 $33 $-1 $65 reversed single #
face $-1 $66 $67 $34 $-1 $68 forward single #
face $-1 $69 $70 $35 $-1 $71 forward single #
face $-1 $72 $73 $27 $-1 $74 reversed single #
loop $-1 $-1 $75 $36 #
plane-surface $-1 0 0 24.502870567317157 0 0 1 1 0 0 forward_v I I I I #
face $-1 $76 $77 $28 $-1 $78 reversed single #
loop $-1 $-1 $79 $37 #
plane-surface $-1 0 -38.657535257623948 -17.74687720730606 0 0 1 1 0 0 forward_v I I I I #
face $-1 $80 $81 $29 $-1 $82 reversed single #
loop $-1 $-1 $83 $38 #
plane-surface $-1 0 49.041661416442061 0 0 -1 0 0 0 -1 forward_v I I I I #
face $-1 $84 $85 $30 $-1 $86 reversed single #
loop $-1 $-1 $87 $39 #
plane-surface $-1 25.988035570994782 21.239199169723168 212.72310183384511 0 -1 0 -0.52991927123019833 0 -0.84804809178421925 forward_v I I I I #
face $-1 $88 $89 $31 $-1 $90 forward single #
loop $-1 $91 $92 $40 #
cone-surface $-1 64.001110735804474 14.216007686954143 19.36397281085512 -0.52991927123019833 0 -0.84804809178421925 0.84804809178421925 0 -0.52991927123019833 1 I I 0 1 1 forward I I I I #
face $-1 $93 $94 $32 $-1 $95 forward single #
loop $-1 $96 $97 $41 #
cone-surface $-1 64.001110735804474 18.42992257661556 19.36397281085512 -0.52991927123019833 0 -0.84804809178421925 0.84804809178421925 0 -0.52991927123019833 1 I I 0 1 1 forward I I I I #
face $-1 $98 $99 $33 $-1 $100 reversed single #
loop $-1 $-1 $101 $42 #
plane-surface $-1 -147.16778511866164 11.406731093846528 137.00158887925099 0 1 0 -0.52991927123019833 0 0.84804809178421925 forward_v I I I I #
face $-1 $102 $103 $34 $-1 $104 forward single #
loop $-1 $105 $106 $43 #
cone-surface $-1 -64.001110735804474 14.216007686954143 19.363972810855113 0.52991927123019833 0 -0.84804809178421925 0.84804809178421925 0 0.52991927123019833 1 I I 0 1 1 forward I I I I #
face $-1 $107 $108 $35 $-1 $109 forward single #
loop $-1 $110 $111 $44 #
cone-surface $-1 -64.001110735804474 18.42992257661556 19.363972810855113 0.52991927123019833 0 -0.84804809178421925 0.84804809178421925 0 0.52991927123019833 1 I I 0 1 1 forward I I I I #
face $-1 $112 $113 $27 $-1 $114 reversed single #
loop $-1 $-1 $115 $45 #
plane-surface $-1 0 0 -24.502870567317157 0 0 1 1 0 0 forward_v I I I I #
coedge $-1 $116 $117 $118 $119 forward $46 $-1 #
face $-1 $120 $121 $28 $-1 $122 reversed single #
loop $-1 $-1 $123 $48 #
plane-surface $-1 0 -28.273409098805839 -21.124873887311608 0 -1 0 0 0 -1 forward_v I I I I #
coedge $-1 $124 $125 $126 $127 reversed $49 $-1 #
face $-1 $128 $129 $29 $-1 $130 reversed single #
loop $-1 $-1 $131 $51 #
plane-surface $-1 -71.446272164067508 0 0 1 0 0 0 0 -1 forward_v I I I I #
coedge $-1 $132 $133 $134 $135 forward $52 $-1 #
face $-1 $136 $137 $30 $-1 $138 reversed single #
loop $-1 $-1 $139 $54 #
plane-surface $-1 -49.733477383599336 16.322965131784848 91.543352286178248 0.52991927123019833 0 0.84804809178421925 0.84804809178421925 0 -0.52991927123019833 forward_v I I I I #
coedge $-1 $140 $141 $142 $143 reversed $55 $-1 #
face $-1 $-1 $144 $31 $-1 $145 forward single #
loop $-1 $146 $147 $57 #
cone-surface $-1 63.237266561509941 14.216007686954143 18.141566626367489 -0.52991927123019833 0 -0.84804809178421925 0.42402404589210962 0 -0.26495963561509916 1 I I -0.70710678118655002 0.70710678118654502 0.5 forward I I I I #
loop $-1 $-1 $148 $40 #
coedge $-1 $92 $92 $149 $150 reversed $58 $-1 #
face $-1 $-1 $151 $32 $-1 $152 forward single #
loop $-1 $153 $154 $60 #
cone-surface $-1 63.237266561509941 18.42992257661556 18.141566626367489 -0.52991927123019833 0 -0.84804809178421925 0.42402404589210962 0 -0.26495963561509916 1 I I -0.70710678118655002 0.70710678118654502 0.5 forward I I I I #
loop $-1 $-1 $155 $41 #
coedge $-1 $97 $97 $156 $157 reversed $61 $-1 #
face $-1 $158 $159 $33 $-1 $160 reversed single #
loop $-1 $-1 $161 $63 #
plane-surface $-1 -71.446272164067523 16.322965131784848 15.82183933158413 -0.52991927123019833 0 0.84804809178421925 0.84804809178421925 0 0.52991927123019833 forward_v I I I I #
coedge $-1 $162 $163 $164 $165 reversed $64 $-1 #
face $-1 $-1 $166 $34 $-1 $167 forward single #
loop $-1 $168 $169 $66 #
cone-surface $-1 -63.237266561509941 14.216007686954143 18.141566626367482 0.52991927123019833 0 -0.84804809178421925 0.42402404589210962 0 0.26495963561509916 1 I I -0.70710678118655002 0.70710678118654502 0.5 forward I I I I #
loop $-1 $-1 $170 $43 #
coedge $-1 $106 $106 $171 $172 reversed $67 $-1 #
face $-1 $-1 $173 $35 $-1 $174 forward single #
loop $-1 $175 $176 $69 #
cone-surface $-1 -63.237266561509941 18.42992257661556 18.141566626367482 0.52991927123019833 0 -0.84804809178421925 0.42402404589210962 0 0.26495963561509916 1 I I -0.70710678118655002 0.70710678118654502 0.5 forward I I I I #
loop $-1 $-1 $177 $44 #
coedge $-1 $111 $111 $178 $179 reversed $70 $-1 #
face $-1 $180 $181 $27 $-1 $182 reversed single #
loop $-1 $-1 $183 $72 #
plane-surface $-1 0 -49.041661416442061 0 0 1 0 0 0 1 forward_v I I I I #
coedge $-1 $184 $185 $186 $187 forward $73 $-1 #
coedge $-1 $188 $75 $189 $190 forward $46 $-1 #
coedge $-1 $75 $188 $191 $192 forward $46 $-1 #
coedge $-1 $193 $194 $75 $119 reversed $195 $-1 #
edge $-1 $196 -49.041661416442061 $197 49.041661416442061 $118 $198 forward 7 unknown #
face $-1 $199 $200 $28 $-1 $201 reversed single #
loop $-1 $-1 $202 $76 #
plane-surface $-1 0 0 -24.502870567317157 0 0 1 1 0 0 forward_v I I I I #
coedge $-1 $203 $204 $205 $206 reversed $77 $-1 #
coedge $-1 $207 $79 $204 $208 forward $49 $-1 #
coedge $-1 $79 $207 $209 $210 reversed $49 $-1 #
coedge $-1 $211 $205 $79 $127 forward $200 $-1 #
edge $-1 $212 8.944641469993865 $213 29.71289378763008 $126 $214 forward 7 unknown #
face $-1 $215 $216 $29 $-1 $217 reversed single #
loop $-1 $-1 $218 $80 #
plane-surface $-1 0 60.249015827774848 11.699042007250082 0 0 1 1 0 0 forward_v I I I I #
coedge $-1 $219 $220 $133 $221 forward $81 $-1 #
coedge $-1 $222 $83 $223 $224 reversed $52 $-1 #
coedge $-1 $83 $222 $131 $221 reversed $52 $-1 #
coedge $-1 $225 $218 $83 $135 reversed $129 $-1 #
edge $-1 $226 -71.446272164067508 $227 71.446272164067508 $134 $228 forward 7 unknown #
face $-1 $229 $230 $30 $-1 $231 forward single #
loop $-1 $-1 $232 $84 #
plane-surface $-1 25.988035570994782 11.406731093846528 212.72310183384511 0 1 0 0.52991927123019833 0 0.84804809178421925 forward_v I I I I #
coedge $-1 $233 $234 $235 $236 reversed $85 $-1 #
coedge $-1 $141 $87 $237 $238 reversed $55 $-1 #
coedge $-1 $87 $140 $233 $239 reversed $55 $-1 #
coedge $-1 $235 $240 $87 $143 forward $230 $-1 #
edge $-1 $241 -58.452254378570117 $242 -44.559700599402973 $142 $243 forward 7 unknown #
loop $-1 $-1 $149 $88 #
plane-surface $-1 -49.733477383599336 16.322965131784848 91.543352286178248 0.52991927123019833 0 0.84804809178421925 0.84804809178421925 0 -0.52991927123019833 forward_v I I I I #
loop $-1 $-1 $244 $57 #
coedge $-1 $147 $147 $148 $245 reversed $89 $-1 #
coedge $-1 $148 $148 $147 $245 forward $91 $-1 #
coedge $-1 $149 $149 $92 $150 forward $144 $-1 #
edge $-1 $246 0 $246 6.2831853071796004 $149 $247 forward 7 unknown #
loop $-1 $-1 $156 $93 #
plane-surface $-1 -49.733477383599336 16.322965131784848 91.543352286178248 0.52991927123019833 0 0.84804809178421925 0.84804809178421925 0 -0.52991927123019833 forward_v I I I I #
loop $-1 $-1 $248 $60 #
coedge $-1 $154 $154 $155 $249 reversed $94 $-1 #
coedge $-1 $155 $155 $154 $249 forward $96 $-1 #
coedge $-1 $156 $156 $97 $157 forward $151 $-1 #
edge $-1 $250 0 $250 6.2831853071796004 $156 $251 forward 7 unknown #
face $-1 $252 $253 $33 $-1 $254 reversed single #
loop $-1 $-1 $255 $98 #
plane-surface $-1 -147.16778511866164 21.239199169723168 137.00158887925099 0 -1 0 0.52991927123019833 0 -0.84804809178421925 forward_v I I I I #
coedge $-1 $256 $257 $258 $259 reversed $99 $-1 #
coedge $-1 $163 $101 $260 $261 reversed $64 $-1 #
coedge $-1 $101 $162 $256 $262 reversed $64 $-1 #
coedge $-1 $258 $263 $101 $165 forward $264 $-1 #
edge $-1 $265 2.1376203952633119 $266 16.030174174430456 $164 $267 forward 7 unknown #
loop $-1 $-1 $171 $102 #
plane-surface $-1 -71.446272164067523 16.322965131784848 15.82183933158413 -0.52991927123019833 0 0.84804809178421925 0.84804809178421925 0 0.52991927123019833 forward_v I I I I #
loop $-1 $-1 $268 $66 #
coedge $-1 $169 $169 $170 $269 reversed $103 $-1 #
coedge $-1 $170 $170 $169 $269 forward $105 $-1 #
coedge $-1 $171 $171 $106 $172 forward $166 $-1 #
edge $-1 $270 0 $270 6.2831853071796004 $171 $271 forward 7 unknown #
loop $-1 $-1 $178 $107 #
plane-surface $-1 -71.446272164067523 16.322965131784848 15.82183933158413 -0.52991927123019833 0 0.84804809178421925 0.84804809178421925 0 0.52991927123019833 forward_v I I I I #
loop $-1 $-1 $272 $69 #
coedge $-1 $176 $176 $177 $273 reversed $108 $-1 #
coedge $-1 $177 $177 $176 $273 forward $110 $-1 #
coedge $-1 $178 $178 $111 $179 forward $173 $-1 #
edge $-1 $274 0 $274 6.2831853071796004 $178 $275 forward 7 unknown #
face $-1 $276 $277 $27 $-1 $278 reversed single #
loop $-1 $-1 $279 $112 #
plane-surface $-1 -71.446272164067508 0 0 1 0 0 0 0 -1 forward_v I I I I #
coedge $-1 $280 $191 $281 $282 forward $113 $-1 #
coedge $-1 $283 $115 $280 $284 forward $73 $-1 #
coedge $-1 $115 $283 $285 $286 forward $73 $-1 #
coedge $-1 $194 $193 $115 $187 reversed $195 $-1 #
edge $-1 $287 -49.041661416442061 $288 49.041661416442061 $186 $289 forward 7 unknown #
coedge $-1 $117 $116 $290 $291 forward $46 $-1 #
coedge $-1 $292 $293 $116 $190 reversed $277 $-1 #
edge $-1 $197 -71.446272164067508 $294 71.446272164067508 $189 $295 forward 7 unknown #
coedge $-1 $183 $296 $117 $192 reversed $113 $-1 #
edge $-1 $297 -71.446272164067508 $196 71.446272164067508 $191 $298 forward 7 unknown #
coedge $-1 $186 $118 $296 $299 forward $195 $-1 #
coedge $-1 $118 $186 $292 $300 reversed $195 $-1 #
loop $-1 $-1 $193 $276 #
vertex $-1 $119 $301 #
vertex $-1 $119 $302 #
straight-curve $-1 71.446272164067508 0 24.502870567317157 0 1 0 I I #
face $-1 $303 $304 $28 $-1 $305 reversed single #
loop $-1 $-1 $205 $120 #
plane-surface $-1 71.446272164067508 0 0 -1 0 0 0 0 1 forward_v I I I I #
coedge $-1 $306 $307 $203 $308 forward $121 $-1 #
coedge $-1 $309 $123 $202 $308 reversed $77 $-1 #
coedge $-1 $123 $309 $124 $208 reversed $77 $-1 #
coedge $-1 $126 $310 $123 $206 forward $200 $-1 #
edge $-1 $311 -13.940433623661352 $212 -7.1844402636502558 $205 $312 forward 7 unknown #
coedge $-1 $125 $124 $313 $314 reversed $49 $-1 #
edge $-1 $212 -71.446272164067508 $315 71.446272164067508 $204 $316 forward 7 unknown #
coedge $-1 $317 $318 $125 $210 forward $304 $-1 #
edge $-1 $213 -71.446272164067508 $319 71.446272164067508 $209 $320 forward 7 unknown #
coedge $-1 $310 $126 $318 $321 forward $200 $-1 #
vertex $-1 $127 $322 #
vertex $-1 $321 $323 #
straight-curve $-1 71.446272164067508 -19.328767628811974 -17.74687720730606 0 -1 0 I I #
face $-1 $324 $325 $29 $-1 $326 forward single #
loop $-1 $-1 $327 $128 #
plane-surface $-1 0 71.456370239107628 18.100956287283619 0 -1 0 0 0 -1 forward_v I I I I #
coedge $-1 $134 $328 $329 $330 forward $129 $-1 #
coedge $-1 $331 $131 $332 $333 reversed $81 $-1 #
coedge $-1 $131 $331 $225 $334 reversed $81 $-1 #
edge $-1 $226 11.699042007250082 $335 24.502870567317157 $131 $336 forward 7 unknown #
coedge $-1 $133 $132 $337 $338 reversed $52 $-1 #
coedge $-1 $329 $339 $132 $224 forward $340 $-1 #
edge $-1 $341 -24.502870567317157 $227 -11.699042007250082 $223 $342 forward 7 unknown #
coedge $-1 $328 $134 $220 $334 forward $129 $-1 #
vertex $-1 $221 $343 #
vertex $-1 $224 $344 #
straight-curve $-1 0 49.041661416442061 11.699042007250082 1 0 0 I I #
face $-1 $-1 $345 $30 $-1 $346 reversed single #
loop $-1 $-1 $142 $136 #
plane-surface $-1 0 0 24.502870567317157 0 0 1 1 0 0 forward_v I I I I #
coedge $-1 $347 $348 $349 $350 reversed $137 $-1 #
coedge $-1 $351 $139 $141 $239 forward $85 $-1 #
coedge $-1 $139 $351 $347 $352 forward $85 $-1 #
coedge $-1 $349 $142 $139 $236 forward $230 $-1 #
edge $-1 $242 -13.077716603830744 $353 -3.2452485279541037 $235 $354 forward 7 unknown #
coedge $-1 $355 $356 $140 $238 forward $345 $-1 #
edge $-1 $357 -90.539711585338409 $241 -81.858680349605393 $237 $358 forward 7 unknown #
edge $-1 $242 126.51074485973643 $357 142.89254432813499 $141 $359 forward 7 unknown #
coedge $-1 $142 $349 $355 $360 forward $230 $-1 #
vertex $-1 $238 $361 #
vertex $-1 $143 $362 #
straight-curve $-1 12.994017785497391 21.239199169723168 24.50287056731716 -1 0 0 I I #
coedge $-1 $244 $244 $-1 $363 reversed $146 $-1 #
edge $-1 $364 0 $364 6.2831853071796004 $147 $365 forward 7 unknown #
vertex $-1 $150 $366 #
ellipse-curve $-1 64.499995274483922 14.216007686954143 20.162354949450666 0.52991927123019833 0 0.84804809178421925 0.84804809178421925 0 -0.52991927123019833 1 I I #
coedge $-1 $248 $248 $-1 $367 reversed $153 $-1 #
edge $-1 $368 0 $368 6.2831853071796004 $154 $369 forward 7 unknown #
vertex $-1 $157 $370 #
ellipse-curve $-1 64.499995274483922 18.42992257661556 20.162354949450666 0.52991927123019833 0 0.84804809178421925 0.84804809178421925 0 -0.52991927123019833 1 I I #
face $-1 $-1 $264 $33 $-1 $371 forward single #
loop $-1 $-1 $372 $158 #
plane-surface $-1 -71.446272164067508 0 0 1 0 0 0 0 -1 forward_v I I I I #
coedge $-1 $373 $374 $375 $376 reversed $159 $-1 #
coedge $-1 $377 $161 $163 $262 forward $99 $-1 #
coedge $-1 $161 $377 $373 $378 forward $99 $-1 #
coedge $-1 $375 $164 $161 $259 forward $264 $-1 #
edge $-1 $266 3.2452485279541037 $379 13.077716603830744 $258 $380 forward 7 unknown #
coedge $-1 $381 $382 $162 $261 forward $253 $-1 #
edge $-1 $383 -52.678955108041357 $265 -43.997923872308334 $260 $384 forward 7 unknown #
edge $-1 $266 -16.381799468398587 $383 -1.675811683274863e-014 $163 $385 forward 7 unknown #
coedge $-1 $164 $375 $381 $386 forward $264 $-1 #
loop $-1 $-1 $375 $252 #
vertex $-1 $261 $387 #
vertex $-1 $165 $388 #
straight-curve $-1 -73.58389255933082 11.406731093846528 24.50287056731716 1 0 0 I I #
coedge $-1 $268 $268 $-1 $389 reversed $168 $-1 #
edge $-1 $390 0 $390 6.2831853071796004 $169 $391 forward 7 unknown #
vertex $-1 $172 $392 #
ellipse-curve $-1 -64.499995274483922 14.216007686954143 20.162354949450656 -0.52991927123019833 0 0.84804809178421925 0.84804809178421925 0 0.52991927123019833 1 I I #
coedge $-1 $272 $272 $-1 $393 reversed $175 $-1 #
edge $-1 $394 0 $394 6.2831853071796004 $176 $395 forward 7 unknown #
vertex $-1 $179 $396 #
ellipse-curve $-1 -64.499995274483922 18.42992257661556 20.162354949450656 -0.52991927123019833 0 0.84804809178421925 0.84804809178421925 0 0.52991927123019833 1 I I #
face $-1 $-1 $195 $27 $-1 $397 reversed single #
loop $-1 $-1 $292 $180 #
plane-surface $-1 0 49.041661416442061 0 0 -1 0 0 0 -1 forward_v I I I I #
coedge $-1 $398 $290 $293 $399 forward $181 $-1 #
coedge $-1 $296 $183 $184 $284 reversed $113 $-1 #
coedge $-1 $290 $398 $183 $282 reversed $181 $-1 #
edge $-1 $297 -24.502870567317157 $400 24.502870567317157 $281 $401 forward 7 unknown #
coedge $-1 $185 $184 $398 $402 forward $73 $-1 #
edge $-1 $288 -71.446272164067508 $400 71.446272164067508 $280 $403 forward 7 unknown #
coedge $-1 $293 $292 $185 $286 reversed $277 $-1 #
edge $-1 $404 -71.446272164067508 $287 71.446272164067508 $285 $405 forward 7 unknown #
vertex $-1 $187 $406 #
vertex $-1 $299 $407 #
straight-curve $-1 71.446272164067508 0 -24.502870567317157 0 -1 0 I I #
coedge $-1 $279 $281 $188 $291 reversed $181 $-1 #
edge $-1 $294 -49.041661416442061 $297 49.041661416442061 $290 $408 forward 7 unknown #
coedge $-1 $285 $189 $194 $300 forward $277 $-1 #
coedge $-1 $189 $285 $279 $399 reversed $277 $-1 #
vertex $-1 $190 $409 #
straight-curve $-1 0 49.041661416442061 24.502870567317157 -1 0 0 I I #
coedge $-1 $191 $280 $193 $299 reversed $113 $-1 #
vertex $-1 $291 $410 #
straight-curve $-1 0 -49.041661416442061 24.502870567317157 1 0 0 I I #
edge $-1 $196 -24.502870567317157 $288 24.502870567317157 $193 $411 forward 7 unknown #
edge $-1 $197 -24.502870567317157 $287 24.502870567317157 $194 $412 forward 7 unknown #
point $-1 71.446272164067508 -49.041661416442061 24.502870567317157 #
point $-1 71.446272164067508 49.041661416442061 24.502870567317157 #
face $-1 $-1 $413 $28 $-1 $414 reversed single #
loop $-1 $-1 $209 $199 #
plane-surface $-1 0 -49.041661416442061 0 0 1 0 0 0 1 forward_v I I I I #
coedge $-1 $415 $202 $310 $416 forward $121 $-1 #
coedge $-1 $202 $415 $417 $418 forward $121 $-1 #
edge $-1 $419 -71.446272164067508 $311 71.446272164067508 $202 $420 forward 7 unknown #
coedge $-1 $204 $203 $421 $422 reversed $77 $-1 #
coedge $-1 $205 $211 $306 $416 reversed $200 $-1 #
vertex $-1 $416 $423 #
straight-curve $-1 71.446272164067508 -28.273409098805839 -10.562436943655804 0 0 1 I I #
coedge $-1 $421 $424 $207 $314 forward $413 $-1 #
edge $-1 $319 -29.71289378763008 $315 -8.944641469993865 $313 $425 forward 7 unknown #
vertex $-1 $314 $426 #
straight-curve $-1 0 -28.273409098805839 -17.74687720730606 -1 0 0 I I #
coedge $-1 $427 $209 $424 $428 forward $304 $-1 #
coedge $-1 $209 $427 $211 $321 reversed $304 $-1 #
vertex $-1 $428 $429 #
straight-curve $-1 0 -49.041661416442061 -17.74687720730606 -1 0 0 I I #
edge $-1 $213 17.74687720730606 $430 24.502870567317157 $211 $431 forward 7 unknown #
point $-1 71.446272164067508 -28.273409098805839 -17.74687720730606 #
point $-1 71.446272164067508 -49.041661416442054 -17.74687720730606 #
face $-1 $-1 $340 $29 $-1 $432 reversed single #
loop $-1 $-1 $337 $215 #
plane-surface $-1 0 0 24.502870567317157 0 0 1 1 0 0 forward_v I I I I #
coedge $-1 $433 $434 $435 $436 forward $216 $-1 #
coedge $-1 $218 $225 $433 $437 forward $129 $-1 #
coedge $-1 $435 $223 $218 $330 reversed $340 $-1 #
edge $-1 $438 -11.20735441133278 $227 11.20735441133278 $329 $439 forward 7 unknown #
coedge $-1 $220 $219 $440 $441 forward $81 $-1 #
coedge $-1 $337 $442 $219 $333 forward $325 $-1 #
edge $-1 $443 -71.456370239107628 $335 -49.041661416442061 $219 $444 forward 7 unknown #
edge $-1 $226 -11.20735441133278 $445 11.20735441133278 $220 $446 forward 7 unknown #
vertex $-1 $221 $447 #
straight-curve $-1 -71.446272164067508 49.041661416442061 0 0 0 1 I I #
coedge $-1 $448 $332 $222 $338 forward $325 $-1 #
edge $-1 $335 -71.446272164067508 $341 71.446272164067508 $337 $449 forward 7 unknown #
coedge $-1 $223 $435 $448 $450 reversed $340 $-1 #
loop $-1 $-1 $223 $324 #
vertex $-1 $450 $451 #
straight-curve $-1 71.446272164067508 49.041661416442061 0 0 0 -1 I I #
point $-1 -71.446272164067508 49.041661416442068 11.699042007250082 #
point $-1 71.446272164067508 49.041661416442068 11.699042007250082 #
loop $-1 $-1 $237 $229 #
plane-surface $-1 71.446272164067508 0 0 -1 0 0 0 0 1 forward_v I I I I #
coedge $-1 $348 $232 $234 $352 reversed $137 $-1 #
coedge $-1 $232 $347 $452 $453 reversed $137 $-1 #
coedge $-1 $240 $235 $232 $350 forward $230 $-1 #
edge $-1 $353 44.559700599402973 $454 58.452254378570117 $349 $455 forward 7 unknown #
coedge $-1 $234 $233 $356 $456 reversed $85 $-1 #
edge $-1 $457 -142.89254432813499 $353 -126.51074485973643 $347 $458 forward 7 unknown #
vertex $-1 $236 $459 #
straight-curve $-1 57.553718384900378 8.1614825658924239 24.502870567317153 0 -1 0 I I #
coedge $-1 $452 $237 $240 $360 reversed $345 $-1 #
coedge $-1 $237 $452 $351 $456 forward $345 $-1 #
vertex $-1 $238 $460 #
straight-curve $-1 71.446272164067508 21.239199169723168 106.36155091692255 0 0 1 I I #
straight-curve $-1 -49.733477383599336 21.239199169723168 91.543352286178248 0.84804809178421925 0 -0.52991927123019833 I I #
edge $-1 $454 11.406731093846528 $241 21.239199169723168 $355 $461 forward 7 unknown #
point $-1 71.446272164067508 21.239199169723168 24.502870567317157 #
point $-1 57.553718384900364 21.239199169723168 24.50287056731716 #
edge $-1 $462 1 $462 0 $244 $-1 forward 7 unknown #
vertex $-1 $245 $463 #
ellipse-curve $-1 63.50222619712504 14.216007686954143 18.565590672259596 0.52991927123019833 0 0.84804809178421925 0.84804809178421925 0 -0.52991927123019833 1 I I #
point $-1 65.348043366268129 14.216007686954143 19.63243567822045 #
edge $-1 $464 1 $464 0 $248 $-1 forward 7 unknown #
vertex $-1 $249 $465 #
ellipse-curve $-1 63.50222619712504 18.42992257661556 18.565590672259596 0.52991927123019833 0 0.84804809178421925 0.84804809178421925 0 -0.52991927123019833 1 I I #
point $-1 65.348043366268129 18.42992257661556 19.63243567822045 #
plane-surface $-1 0 0 24.502870567317157 0 0 1 1 0 0 forward_v I I I I #
coedge $-1 $382 $381 $374 $466 forward $253 $-1 #
coedge $-1 $374 $255 $257 $378 reversed $159 $-1 #
coedge $-1 $255 $373 $372 $466 reversed $159 $-1 #
coedge $-1 $263 $258 $255 $376 forward $264 $-1 #
edge $-1 $379 -16.030174174430456 $467 -2.1376203952633119 $375 $468 forward 7 unknown #
coedge $-1 $257 $256 $382 $469 reversed $99 $-1 #
edge $-1 $470 1.675811683274863e-014 $379 16.381799468398587 $373 $471 forward 7 unknown #
vertex $-1 $259 $472 #
straight-curve $-1 -57.553718384900371 8.1614825658924239 24.502870567317157 0 1 0 I I #
coedge $-1 $372 $260 $263 $386 reversed $253 $-1 #
coedge $-1 $260 $372 $377 $469 forward $253 $-1 #
vertex $-1 $261 $473 #
straight-curve $-1 -71.446272164067508 11.406731093846528 68.500794439625494 0 0 1 I I #
straight-curve $-1 -71.446272164067523 11.406731093846528 15.82183933158413 -0.84804809178421925 0 -0.52991927123019833 I I #
edge $-1 $467 -21.239199169723168 $265 -11.406731093846528 $381 $474 forward 7 unknown #
point $-1 -71.446272164067508 11.406731093846528 24.502870567317157 #
point $-1 -57.553718384900364 11.406731093846528 24.502870567317157 #
edge $-1 $475 1 $475 0 $268 $-1 forward 7 unknown #
vertex $-1 $269 $476 #
ellipse-curve $-1 -63.50222619712504 14.216007686954143 18.565590672259589 -0.52991927123019833 0 0.84804809178421925 0.84804809178421925 0 0.52991927123019833 1 I I #
point $-1 -63.651947182699693 14.216007686954143 20.692274220680837 #
edge $-1 $477 1 $477 0 $272 $-1 forward 7 unknown #
vertex $-1 $273 $478 #
ellipse-curve $-1 -63.50222619712504 18.42992257661556 18.565590672259589 -0.52991927123019833 0 0.84804809178421925 0.84804809178421925 0 0.52991927123019833 1 I I #
point $-1 -63.651947182699693 18.42992257661556 20.692274220680837 #
plane-surface $-1 71.446272164067508 0 0 -1 0 0 0 0 1 forward_v I I I I #
coedge $-1 $281 $279 $283 $402 reversed $181 $-1 #
edge $-1 $294 -24.502870567317157 $404 24.502870567317157 $293 $479 forward 7 unknown #
vertex $-1 $402 $480 #
straight-curve $-1 -71.446272164067508 -49.041661416442061 0 0 0 -1 I I #
edge $-1 $400 -49.041661416442061 $404 49.041661416442061 $398 $481 forward 7 unknown #
straight-curve $-1 0 -49.041661416442061 -24.502870567317157 -1 0 0 I I #
vertex $-1 $286 $482 #
straight-curve $-1 0 49.041661416442061 -24.502870567317157 1 0 0 I I #
point $-1 71.446272164067508 49.041661416442061 -24.502870567317157 #
point $-1 71.446272164067508 -49.041661416442061 -24.502870567317157 #
straight-curve $-1 -71.446272164067508 0 24.502870567317157 0 -1 0 I I #
point $-1 -71.446272164067508 49.041661416442061 24.502870567317157 #
point $-1 -71.446272164067508 -49.041661416442061 24.502870567317157 #
straight-curve $-1 71.446272164067508 -49.041661416442061 0 0 0 -1 I I #
straight-curve $-1 71.446272164067508 49.041661416442061 0 0 0 -1 I I #
loop $-1 $-1 $421 $303 #
plane-surface $-1 -71.446272164067508 0 0 1 0 0 0 0 -1 forward_v I I I I #
coedge $-1 $307 $306 $427 $483 forward $121 $-1 #
edge $-1 $311 28.273409098805839 $430 49.041661416442061 $310 $484 forward 7 unknown #
coedge $-1 $424 $421 $307 $418 reversed $413 $-1 #
edge $-1 $485 -49.041661416442061 $419 -28.273409098805839 $417 $486 forward 7 unknown #
vertex $-1 $422 $487 #
straight-curve $-1 0 -28.273409098805839 -24.502870567317157 1 0 0 I I #
coedge $-1 $417 $313 $309 $422 forward $413 $-1 #
edge $-1 $315 7.1844402636502558 $419 13.940433623661352 $421 $488 forward 7 unknown #
point $-1 71.446272164067508 -28.273409098805839 -24.502870567317157 #
coedge $-1 $313 $417 $317 $428 reversed $413 $-1 #
straight-curve $-1 -71.446272164067508 -19.328767628811974 -17.74687720730606 0 1 0 I I #
point $-1 -71.446272164067508 -28.273409098805839 -17.74687720730606 #
coedge $-1 $318 $317 $415 $483 reversed $304 $-1 #
edge $-1 $319 17.74687720730606 $485 24.502870567317157 $424 $489 forward 7 unknown #
point $-1 -71.446272164067508 -49.041661416442054 -17.74687720730606 #
vertex $-1 $321 $490 #
straight-curve $-1 71.446272164067508 -49.041661416442061 0 0 0 -1 I I #
plane-surface $-1 71.446272164067508 0 0 -1 0 0 0 0 1 forward_v I I I I #
coedge $-1 $440 $327 $328 $437 reversed $216 $-1 #
coedge $-1 $327 $440 $442 $491 reversed $216 $-1 #
coedge $-1 $339 $329 $327 $436 reversed $340 $-1 #
edge $-1 $492 -6.4019142800335374 $438 6.4019142800335374 $435 $493 forward 7 unknown #
edge $-1 $445 -71.446272164067508 $438 71.446272164067508 $433 $494 forward 7 unknown #
vertex $-1 $330 $495 #
straight-curve $-1 71.446272164067508 60.249015827774848 11.699042007250082 0 -1 0 I I #
coedge $-1 $434 $433 $331 $441 reversed $216 $-1 #
edge $-1 $443 -6.4019142800335374 $445 6.4019142800335374 $440 $496 forward 7 unknown #
coedge $-1 $332 $448 $434 $491 forward $325 $-1 #
vertex $-1 $491 $497 #
straight-curve $-1 -71.446272164067508 0 24.502870567317157 0 -1 0 I I #
vertex $-1 $437 $498 #
straight-curve $-1 -71.446272164067508 60.249015827774848 11.699042007250082 0 1 0 I I #
point $-1 -71.446272164067508 49.041661416442061 24.502870567317157 #
coedge $-1 $442 $337 $339 $450 forward $325 $-1 #
straight-curve $-1 0 49.041661416442061 24.502870567317157 1 0 0 I I #
edge $-1 $341 49.041661416442061 $492 71.456370239107628 $339 $499 forward 7 unknown #
point $-1 71.446272164067508 49.041661416442061 24.502870567317157 #
coedge $-1 $356 $355 $348 $453 forward $345 $-1 #
edge $-1 $454 81.858680349605393 $457 90.539711585338409 $452 $500 forward 7 unknown #
vertex $-1 $360 $501 #
straight-curve $-1 12.994017785497391 11.406731093846528 24.50287056731716 1 0 0 I I #
edge $-1 $457 3.2452485279541037 $357 13.077716603830744 $356 $502 forward 7 unknown #
vertex $-1 $456 $503 #
straight-curve $-1 -49.733477383599336 11.406731093846528 91.543352286178248 -0.84804809178421925 0 0.52991927123019833 I I #
point $-1 57.553718384900364 11.406731093846528 24.50287056731716 #
point $-1 71.446272164067508 21.239199169723168 15.821839331584144 #
straight-curve $-1 71.446272164067508 0 24.502870567317157 0 1 0 I I #
vertex $-1 $363 $504 #
point $-1 64.350274288909262 14.216007686954143 18.035671401029397 #
vertex $-1 $367 $505 #
point $-1 64.350274288909262 18.42992257661556 18.035671401029397 #
edge $-1 $467 43.997923872308334 $470 52.678955108041357 $372 $506 forward 7 unknown #
vertex $-1 $386 $507 #
straight-curve $-1 -73.58389255933082 21.239199169723168 24.50287056731716 -1 0 0 I I #
edge $-1 $470 -13.077716603830744 $383 -3.2452485279541037 $382 $508 forward 7 unknown #
vertex $-1 $469 $509 #
straight-curve $-1 -71.446272164067523 21.239199169723168 15.82183933158413 0.84804809178421925 0 0.52991927123019833 I I #
point $-1 -57.553718384900364 21.239199169723168 24.502870567317157 #
point $-1 -71.446272164067508 11.406731093846528 15.821839331584139 #
straight-curve $-1 -71.446272164067508 0 24.502870567317157 0 -1 0 I I #
vertex $-1 $389 $510 #
point $-1 -62.654178105340819 14.216007686954143 19.095509943489787 #
vertex $-1 $393 $511 #
point $-1 -62.654178105340819 18.42992257661556 19.095509943489787 #
straight-curve $-1 -71.446272164067508 49.041661416442061 0 0 0 -1 I I #
point $-1 -71.446272164067508 -49.041661416442061 -24.502870567317157 #
straight-curve $-1 -71.446272164067508 0 -24.502870567317157 0 1 0 I I #
point $-1 -71.446272164067508 49.041661416442061 -24.502870567317157 #
edge $-1 $430 -71.446272164067508 $485 71.446272164067508 $427 $512 forward 7 unknown #
straight-curve $-1 71.446272164067508 0 -24.502870567317157 0 -1 0 I I #
vertex $-1 $418 $513 #
straight-curve $-1 -71.446272164067508 0 -24.502870567317157 0 1 0 I I #
point $-1 -71.446272164067508 -28.273409098805839 -24.502870567317157 #
straight-curve $-1 -71.446272164067508 -28.273409098805839 -10.562436943655804 0 0 -1 I I #
straight-curve $-1 -71.446272164067508 -49.041661416442061 0 0 0 -1 I I #
point $-1 71.446272164067508 -49.041661416442061 -24.502870567317157 #
edge $-1 $492 -71.446272164067508 $443 71.446272164067508 $434 $514 forward 7 unknown #
vertex $-1 $450 $515 #
straight-curve $-1 71.446272164067508 71.456370239107628 18.100956287283619 0 0 -1 I I #
straight-curve $-1 0 71.456370239107628 11.699042007250082 1 0 0 I I #
point $-1 71.446272164067508 71.456370239107628 11.699042007250082 #
straight-curve $-1 -71.446272164067508 71.456370239107628 18.100956287283619 0 0 -1 I I #
point $-1 -71.446272164067508 71.456370239107628 24.502870567317157 #
point $-1 -71.446272164067508 71.456370239107628 11.699042007250082 #
straight-curve $-1 71.446272164067508 0 24.502870567317157 0 1 0 I I #
straight-curve $-1 71.446272164067508 11.406731093846528 106.36155091692255 0 0 -1 I I #
point $-1 71.446272164067508 11.406731093846528 24.502870567317157 #
straight-curve $-1 71.446272164067508 8.1614825658924239 15.821839331584137 0 1 0 I I #
point $-1 71.446272164067508 11.406731093846528 15.821839331584144 #
point $-1 62.972306925894841 14.216007686954143 17.717542580475381 #
point $-1 62.972306925894841 18.42992257661556 17.717542580475381 #
straight-curve $-1 -71.446272164067508 21.239199169723168 68.500794439625494 0 0 -1 I I #
point $-1 -71.446272164067508 21.239199169723168 24.502870567317157 #
straight-curve $-1 -71.446272164067508 8.1614825658924239 15.82183933158414 0 -1 0 I I #
point $-1 -71.446272164067508 21.239199169723168 15.821839331584139 #
point $-1 -62.972306925894841 14.216007686954143 17.717542580475374 #
point $-1 -62.972306925894841 18.42992257661556 17.717542580475374 #
straight-curve $-1 0 -49.041661416442061 -24.502870567317157 -1 0 0 I I #
point $-1 -71.446272164067508 -49.041661416442061 -24.502870567317157 #
straight-curve $-1 0 71.456370239107628 24.502870567317157 -1 0 0 I I #
point $-1 71.446272164067508 71.456370239107628 24.502870567317157 #
End-of-ACIS-data 