500 0 10 0           
7 Unknown 11 ACIS 5.0 NT 24 Fri Mar 26 00:55:58 1999 
-1 9.9999999999999995e-007 1e-010 
body $-1 $10 $-1 $11 #
body $-1 $12 $-1 $13 #
body $-1 $14 $-1 $15 #
body $-1 $16 $-1 $17 #
body $-1 $18 $-1 $19 #
body $-1 $20 $-1 $21 #
body $-1 $22 $-1 $23 #
body $-1 $24 $-1 $25 #
body $-1 $26 $-1 $27 #
body $-1 $28 $-1 $29 #
lump $-1 $-1 $30 $0 #
transform $-1 1 0 0 0 1 0 0 0 1 61.731620227668081 36.079472817714425 13.377824120185041 1 rotate no_reflect no_shear #
lump $-1 $-1 $31 $1 #
transform $-1 1 0 0 0 1 0 0 0 1 61.731620227668081 36.079472817714425 13.377824120185041 1 rotate no_reflect no_shear #
lump $-1 $-1 $32 $2 #
transform $-1 1 0 0 0 1 0 0 0 1 61.731620227668081 36.079472817714425 13.377824120185041 1 rotate no_reflect no_shear #
lump $-1 $-1 $33 $3 #
transform $-1 1 0 0 0 1 0 0 0 1 61.731620227668081 36.079472817714425 13.377824120185041 1 rotate no_reflect no_shear #
lump $-1 $-1 $34 $4 #
transform $-1 1 0 0 0 1 0 0 0 1 61.731620227668081 36.079472817714425 13.377824120185041 1 rotate no_reflect no_shear #
lump $-1 $-1 $35 $5 #
transform $-1 1 0 0 0 1 0 0 0 1 61.731620227668081 36.079472817714425 13.377824120185041 1 rotate no_reflect no_shear #
lump $-1 $-1 $36 $6 #
transform $-1 1 0 0 0 1 0 0 0 1 61.731620227668081 36.079472817714425 13.377824120185041 1 rotate no_reflect no_shear #
lump $-1 $-1 $37 $7 #
transform $-1 1 0 0 0 1 0 0 0 1 61.731620227668081 36.079472817714425 13.377824120185041 1 rotate no_reflect no_shear #
lump $-1 $-1 $38 $8 #
transform $-1 1 0 0 0 1 0 0 0 1 61.731620227668081 36.079472817714425 13.377824120185041 1 rotate no_reflect no_shear #
lump $-1 $-1 $39 $9 #
transform $-1 1 0 0 0 1 0 0 0 1 61.731620227668081 36.079472817714425 13.377824120185041 1 rotate no_reflect no_shear #
shell $-1 $-1 $-1 $40 $-1 $10 #
shell $-1 $-1 $-1 $41 $-1 $12 #
shell $-1 $-1 $-1 $42 $-1 $14 #
shell $-1 $-1 $-1 $43 $-1 $16 #
shell $-1 $-1 $-1 $44 $-1 $18 #
shell $-1 $-1 $-1 $45 $-1 $20 #
shell $-1 $-1 $-1 $46 $-1 $22 #
shell $-1 $-1 $-1 $47 $-1 $24 #
shell $-1 $-1 $-1 $48 $-1 $26 #
shell $-1 $-1 $-1 $49 $-1 $28 #
face $-1 $50 $51 $30 $-1 $52 forward single #
face $-1 $53 $54 $31 $-1 $55 forward single #
face $-1 $56 $57 $32 $-1 $58 reversed single #
face $-1 $59 $60 $33 $-1 $61 forward single #
face $-1 $62 $63 $34 $-1 $64 forward single #
face $-1 $65 $66 $35 $-1 $67 forward single #
face $-1 $68 $69 $36 $-1 $70 reversed single #
face $-1 $71 $72 $37 $-1 $73 forward single #
face $-1 $74 $75 $38 $-1 $76 forward single #
face $-1 $77 $78 $39 $-1 $79 forward single #
face $-1 $80 $81 $30 $-1 $82 reversed single #
loop $-1 $-1 $83 $40 #
plane-surface $-1 0 0 13.377824120185041 0 0 1 1 0 0 forward_v I I I I #
face $-1 $84 $85 $31 $-1 $86 reversed single #
loop $-1 $-1 $87 $41 #
plane-surface $-1 -56.665386342077852 0 -8.8109835475489788 0 0 1 1 0 0 forward_v I I I I #
face $-1 $88 $89 $32 $-1 $90 reversed single #
loop $-1 $-1 $91 $42 #
plane-surface $-1 29.513917943736864 -132.02843254766336 82.80909185185719 1 0 0 0 0.77714596973225614 -0.62932038083071107 forward_v I I I I #
face $-1 $92 $93 $33 $-1 $94 forward single #
loop $-1 $95 $96 $43 #
cone-surface $-1 34.510820331129885 -31.532244982046389 8.2726524768337057 0 0.77714596973225614 -0.62932038083071107 1.5 0 0 1 I I 0 1 1.5 forward I I I I #
face $-1 $97 $98 $34 $-1 $99 forward single #
loop $-1 $100 $101 $44 #
cone-surface $-1 42.006173912219417 -31.532244982046389 8.2726524768337057 0 0.77714596973225614 -0.62932038083071107 1.5 0 0 1 I I 0 1 1.5 forward I I I I #
face $-1 $102 $103 $35 $-1 $104 forward single #
loop $-1 $105 $106 $45 #
cone-surface $-1 49.501527493308949 -31.532244982046389 8.2726524768337057 0 0.77714596973225614 -0.62932038083071107 1.5 0 0 1 I I 0 1 1.5 forward I I I I #
face $-1 $107 $108 $36 $-1 $109 reversed single #
loop $-1 $-1 $110 $46 #
plane-surface $-1 29.513917943736864 86.61733740003271 138.8871256325597 1 0 0 0 -0.77714596973225614 -0.62932038083071107 forward_v I I I I #
face $-1 $111 $112 $37 $-1 $113 forward single #
loop $-1 $114 $115 $47 #
cone-surface $-1 34.510820331129885 31.532244982046393 8.2726524768337022 0 -0.77714596973225614 -0.62932038083071107 1.5 0 0 1 I I 0 1 1.5 forward I I I I #
face $-1 $116 $117 $38 $-1 $118 forward single #
loop $-1 $119 $120 $48 #
cone-surface $-1 42.006173912219417 31.532244982046393 8.2726524768337022 0 -0.77714596973225614 -0.62932038083071107 1.5 0 0 1 I I 0 1 1.5 forward I I I I #
face $-1 $121 $122 $39 $-1 $123 forward single #
loop $-1 $124 $125 $49 #
cone-surface $-1 49.501527493308949 31.532244982046393 8.2726524768337022 0 -0.77714596973225614 -0.62932038083071107 1.5 0 0 1 I I 0 1 1.5 forward I I I I #
face $-1 $126 $127 $30 $-1 $128 reversed single #
loop $-1 $-1 $129 $50 #
plane-surface $-1 0 0 -13.377824120185041 0 0 1 1 0 0 forward_v I I I I #
coedge $-1 $130 $131 $132 $133 forward $51 $-1 #
face $-1 $134 $135 $31 $-1 $136 reversed single #
loop $-1 $-1 $137 $53 #
plane-surface $-1 -51.599152456487623 0 -11.094403833867009 -1 0 0 0 0 1 forward_v I I I I #
coedge $-1 $138 $139 $140 $141 forward $54 $-1 #
face $-1 $142 $143 $32 $-1 $144 reversed single #
loop $-1 $-1 $145 $56 #
plane-surface $-1 42.006173912219417 -36.079472817714418 5.1111583499113777 0 -0.77714596973225614 0.62932038083071107 1 0 0 forward_v I I I I #
coedge $-1 $146 $147 $148 $149 reversed $57 $-1 #
face $-1 $-1 $150 $33 $-1 $151 forward single #
loop $-1 $152 $153 $59 #
cone-surface $-1 34.510820331129885 -29.749264553350304 6.8288234329961615 0 0.77714596973225614 -0.62932038083071107 0.75 0 0 1 I I -0.70710678118654757 0.70710678118654757 0.75 forward I I I I #
loop $-1 $-1 $154 $43 #
coedge $-1 $96 $96 $155 $156 reversed $60 $-1 #
face $-1 $-1 $157 $34 $-1 $158 forward single #
loop $-1 $159 $160 $62 #
cone-surface $-1 42.006173912219417 -29.749264553350304 6.8288234329961615 0 0.77714596973225614 -0.62932038083071107 0.75 0 0 1 I I -0.70710678118654757 0.70710678118654757 0.75 forward I I I I #
loop $-1 $-1 $161 $44 #
coedge $-1 $101 $101 $162 $163 reversed $63 $-1 #
face $-1 $-1 $164 $35 $-1 $165 forward single #
loop $-1 $166 $167 $65 #
cone-surface $-1 49.501527493308949 -29.749264553350304 6.8288234329961615 0 0.77714596973225614 -0.62932038083071107 0.75 0 0 1 I I -0.70710678118654757 0.70710678118654757 0.75 forward I I I I #
loop $-1 $-1 $168 $45 #
coedge $-1 $106 $106 $169 $170 reversed $66 $-1 #
face $-1 $171 $172 $36 $-1 $173 reversed single #
loop $-1 $-1 $174 $68 #
plane-surface $-1 42.006173912219417 -9.3316223299162289 61.18919213061389 0 0.77714596973225614 0.62932038083071107 1 0 0 forward_v I I I I #
coedge $-1 $175 $176 $177 $178 reversed $69 $-1 #
face $-1 $-1 $179 $37 $-1 $180 forward single #
loop $-1 $181 $182 $71 #
cone-surface $-1 34.510820331129885 29.749264553350308 6.8288234329961579 0 -0.77714596973225614 -0.62932038083071107 0.75 0 0 1 I I -0.70710678118654757 0.70710678118654757 0.75 forward I I I I #
loop $-1 $-1 $183 $47 #
coedge $-1 $115 $115 $184 $185 reversed $72 $-1 #
face $-1 $-1 $186 $38 $-1 $187 forward single #
loop $-1 $188 $189 $74 #
cone-surface $-1 42.006173912219417 29.749264553350308 6.8288234329961579 0 -0.77714596973225614 -0.62932038083071107 0.75 0 0 1 I I -0.70710678118654757 0.70710678118654757 0.75 forward I I I I #
loop $-1 $-1 $190 $48 #
coedge $-1 $120 $120 $191 $192 reversed $75 $-1 #
face $-1 $-1 $193 $39 $-1 $194 forward single #
loop $-1 $195 $196 $77 #
cone-surface $-1 49.501527493308949 29.749264553350308 6.8288234329961579 0 -0.77714596973225614 -0.62932038083071107 0.75 0 0 1 I I -0.70710678118654757 0.70710678118654757 0.75 forward I I I I #
loop $-1 $-1 $197 $49 #
coedge $-1 $125 $125 $198 $199 reversed $78 $-1 #
face $-1 $200 $201 $30 $-1 $202 reversed single #
loop $-1 $-1 $203 $80 #
plane-surface $-1 0 -36.079472817714425 0 0 1 0 0 0 1 forward_v I I I I #
coedge $-1 $204 $205 $206 $207 forward $81 $-1 #
coedge $-1 $208 $83 $209 $210 forward $51 $-1 #
coedge $-1 $83 $208 $211 $212 forward $51 $-1 #
coedge $-1 $213 $214 $83 $133 reversed $215 $-1 #
edge $-1 $216 -36.079472817714425 $217 36.079472817714425 $132 $218 forward 7 unknown #
face $-1 $219 $220 $31 $-1 $221 reversed single #
loop $-1 $-1 $222 $84 #
plane-surface $-1 0 0 -13.377824120185041 0 0 1 1 0 0 forward_v I I I I #
coedge $-1 $223 $140 $224 $225 reversed $85 $-1 #
coedge $-1 $226 $87 $227 $228 reversed $54 $-1 #
coedge $-1 $87 $226 $229 $230 reversed $54 $-1 #
coedge $-1 $137 $231 $87 $141 reversed $85 $-1 #
edge $-1 $232 -36.079472817714425 $233 36.079472817714425 $140 $234 forward 7 unknown #
face $-1 $235 $236 $32 $-1 $237 forward single #
loop $-1 $-1 $238 $88 #
plane-surface $-1 54.49842988070197 -132.02843254766336 82.80909185185719 -1 0 0 0 -0.77714596973225614 0.62932038083071107 forward_v I I I I #
coedge $-1 $239 $240 $241 $242 reversed $89 $-1 #
coedge $-1 $147 $91 $243 $244 reversed $57 $-1 #
coedge $-1 $91 $146 $239 $245 reversed $57 $-1 #
coedge $-1 $241 $246 $91 $149 forward $247 $-1 #
edge $-1 $248 28.026721805743556 $249 36.293387576017224 $148 $250 forward 7 unknown #
loop $-1 $-1 $155 $92 #
plane-surface $-1 42.006173912219417 -36.079472817714418 5.1111583499113777 0 -0.77714596973225614 0.62932038083071107 1 0 0 forward_v I I I I #
loop $-1 $-1 $251 $59 #
coedge $-1 $153 $153 $154 $252 reversed $93 $-1 #
coedge $-1 $154 $154 $153 $252 forward $95 $-1 #
coedge $-1 $155 $155 $96 $156 forward $150 $-1 #
edge $-1 $253 7.0024265568967864e-016 $253 6.2831853071796013 $155 $254 forward 7 unknown #
loop $-1 $-1 $162 $97 #
plane-surface $-1 42.006173912219417 -36.079472817714418 5.1111583499113777 0 -0.77714596973225614 0.62932038083071107 1 0 0 forward_v I I I I #
loop $-1 $-1 $255 $62 #
coedge $-1 $160 $160 $161 $256 reversed $98 $-1 #
coedge $-1 $161 $161 $160 $256 forward $100 $-1 #
coedge $-1 $162 $162 $101 $163 forward $157 $-1 #
edge $-1 $257 7.0024265568967864e-016 $257 6.2831853071796013 $162 $258 forward 7 unknown #
loop $-1 $-1 $169 $102 #
plane-surface $-1 42.006173912219417 -36.079472817714418 5.1111583499113777 0 -0.77714596973225614 0.62932038083071107 1 0 0 forward_v I I I I #
loop $-1 $-1 $259 $65 #
coedge $-1 $167 $167 $168 $260 reversed $103 $-1 #
coedge $-1 $168 $168 $167 $260 forward $105 $-1 #
coedge $-1 $169 $169 $106 $170 forward $164 $-1 #
edge $-1 $261 7.0024265568967864e-016 $261 6.2831853071796013 $169 $262 forward 7 unknown #
face $-1 $263 $264 $36 $-1 $265 reversed single #
loop $-1 $-1 $266 $107 #
plane-surface $-1 54.49842988070197 86.61733740003271 138.8871256325597 -1 0 0 0 0.77714596973225614 0.62932038083071107 forward_v I I I I #
coedge $-1 $267 $268 $269 $270 reversed $108 $-1 #
coedge $-1 $176 $110 $271 $272 reversed $69 $-1 #
coedge $-1 $110 $175 $267 $273 reversed $69 $-1 #
coedge $-1 $269 $274 $110 $178 forward $275 $-1 #
edge $-1 $276 7.22919588230193 $277 13.923409650844214 $177 $278 forward 7 unknown #
loop $-1 $-1 $184 $111 #
plane-surface $-1 42.006173912219417 -9.3316223299162289 61.18919213061389 0 0.77714596973225614 0.62932038083071107 1 0 0 forward_v I I I I #
loop $-1 $-1 $279 $71 #
coedge $-1 $182 $182 $183 $280 reversed $112 $-1 #
coedge $-1 $183 $183 $182 $280 forward $114 $-1 #
coedge $-1 $184 $184 $115 $185 forward $179 $-1 #
edge $-1 $281 9.2032570569748882e-016 $281 6.2831853071796013 $184 $282 forward 7 unknown #
loop $-1 $-1 $191 $116 #
plane-surface $-1 42.006173912219417 -9.3316223299162289 61.18919213061389 0 0.77714596973225614 0.62932038083071107 1 0 0 forward_v I I I I #
loop $-1 $-1 $283 $74 #
coedge $-1 $189 $189 $190 $284 reversed $117 $-1 #
coedge $-1 $190 $190 $189 $284 forward $119 $-1 #
coedge $-1 $191 $191 $120 $192 forward $186 $-1 #
edge $-1 $285 9.2032570569748882e-016 $285 6.2831853071796013 $191 $286 forward 7 unknown #
loop $-1 $-1 $198 $121 #
plane-surface $-1 42.006173912219417 -9.3316223299162289 61.18919213061389 0 0.77714596973225614 0.62932038083071107 1 0 0 forward_v I I I I #
loop $-1 $-1 $287 $77 #
coedge $-1 $196 $196 $197 $288 reversed $122 $-1 #
coedge $-1 $197 $197 $196 $288 forward $124 $-1 #
coedge $-1 $198 $198 $125 $199 forward $193 $-1 #
edge $-1 $289 9.2032570569748882e-016 $289 6.2831853071796013 $198 $290 forward 7 unknown #
face $-1 $291 $292 $30 $-1 $293 reversed single #
loop $-1 $-1 $294 $126 #
plane-surface $-1 -61.731620227668081 0 0 1 0 0 0 0 -1 forward_v I I I I #
coedge $-1 $295 $211 $296 $297 forward $127 $-1 #
coedge $-1 $298 $129 $295 $299 forward $81 $-1 #
coedge $-1 $129 $298 $300 $301 forward $81 $-1 #
coedge $-1 $214 $213 $129 $207 reversed $215 $-1 #
edge $-1 $302 -36.079472817714425 $303 36.079472817714425 $206 $304 forward 7 unknown #
coedge $-1 $131 $130 $305 $306 forward $51 $-1 #
coedge $-1 $307 $308 $130 $210 reversed $292 $-1 #
edge $-1 $217 -61.731620227668081 $309 61.731620227668081 $209 $310 forward 7 unknown #
coedge $-1 $203 $311 $131 $212 reversed $127 $-1 #
edge $-1 $312 -61.731620227668081 $216 61.731620227668081 $211 $313 forward 7 unknown #
coedge $-1 $206 $132 $311 $314 forward $215 $-1 #
coedge $-1 $132 $206 $307 $315 reversed $215 $-1 #
loop $-1 $-1 $213 $291 #
vertex $-1 $133 $316 #
vertex $-1 $133 $317 #
straight-curve $-1 61.731620227668081 0 13.377824120185041 0 1 0 I I #
face $-1 $318 $319 $31 $-1 $320 reversed single #
loop $-1 $-1 $224 $134 #
plane-surface $-1 0 -36.079472817714425 0 0 1 0 0 0 1 forward_v I I I I #
coedge $-1 $321 $322 $223 $323 forward $135 $-1 #
coedge $-1 $231 $137 $222 $323 reversed $85 $-1 #
coedge $-1 $229 $324 $137 $225 forward $220 $-1 #
edge $-1 $325 -7.8306222032515347 $232 -3.2637816306154743 $224 $326 forward 7 unknown #
coedge $-1 $139 $138 $327 $328 reversed $54 $-1 #
coedge $-1 $329 $330 $138 $228 forward $331 $-1 #
edge $-1 $332 -33.398927056629155 $233 -23.266459285448697 $227 $333 forward 7 unknown #
coedge $-1 $334 $224 $139 $230 forward $220 $-1 #
edge $-1 $232 23.266459285448697 $335 33.398927056629155 $229 $336 forward 7 unknown #
coedge $-1 $140 $223 $329 $337 reversed $85 $-1 #
vertex $-1 $230 $338 #
vertex $-1 $228 $339 #
straight-curve $-1 -51.599152456487623 0 -8.8109835475489788 0 1 0 I I #
face $-1 $-1 $247 $32 $-1 $340 reversed single #
loop $-1 $-1 $341 $142 #
plane-surface $-1 0 0 13.377824120185041 0 0 1 1 0 0 forward_v I I I I #
coedge $-1 $342 $343 $344 $345 reversed $143 $-1 #
coedge $-1 $346 $145 $147 $245 forward $89 $-1 #
coedge $-1 $145 $346 $342 $347 forward $89 $-1 #
coedge $-1 $344 $148 $145 $242 forward $247 $-1 #
edge $-1 $249 8.5108309876271555 $348 33.495342924592265 $241 $349 forward 7 unknown #
coedge $-1 $350 $351 $146 $244 forward $236 $-1 #
edge $-1 $352 -36.628957224659558 $248 -29.934743456117253 $243 $353 forward 7 unknown #
edge $-1 $249 -1.1374033043381581e-014 $352 10.637211144673003 $147 $354 forward 7 unknown #
coedge $-1 $148 $344 $350 $355 reversed $247 $-1 #
loop $-1 $-1 $344 $235 #
vertex $-1 $355 $356 #
vertex $-1 $149 $357 #
straight-curve $-1 29.513917943736864 -36.079472817714425 41.404545925928595 0 0 -1 I I #
coedge $-1 $251 $251 $-1 $358 reversed $152 $-1 #
edge $-1 $359 0 $359 6.2831853071796004 $153 $360 forward 7 unknown #
vertex $-1 $156 $361 #
ellipse-curve $-1 34.510820331129885 -32.732365933443269 9.2444912350482067 0 -0.77714596973225614 0.62932038083071107 1.5 0 0 1 I I #
coedge $-1 $255 $255 $-1 $362 reversed $159 $-1 #
edge $-1 $363 0 $363 6.2831853071796004 $160 $364 forward 7 unknown #
vertex $-1 $163 $365 #
ellipse-curve $-1 42.006173912219417 -32.732365933443269 9.2444912350482067 0 -0.77714596973225614 0.62932038083071107 1.5 0 0 1 I I #
coedge $-1 $259 $259 $-1 $366 reversed $166 $-1 #
edge $-1 $367 0 $367 6.2831853071796004 $167 $368 forward 7 unknown #
vertex $-1 $170 $369 #
ellipse-curve $-1 49.501527493308949 -32.732365933443269 9.2444912350482067 0 -0.77714596973225614 0.62932038083071107 1.5 0 0 1 I I #
face $-1 $-1 $275 $36 $-1 $370 forward single #
loop $-1 $-1 $371 $171 #
plane-surface $-1 0 36.079472817714425 0 0 -1 0 0 0 -1 forward_v I I I I #
coedge $-1 $372 $373 $374 $375 reversed $172 $-1 #
coedge $-1 $376 $174 $176 $273 forward $108 $-1 #
coedge $-1 $174 $376 $372 $377 forward $108 $-1 #
coedge $-1 $374 $177 $174 $270 forward $275 $-1 #
edge $-1 $277 8.5108309876271555 $378 33.495342924592265 $269 $379 forward 7 unknown #
coedge $-1 $380 $381 $175 $272 forward $264 $-1 #
edge $-1 $382 -64.332404466368445 $276 -56.065738696094812 $271 $383 forward 7 unknown #
edge $-1 $277 61.521734490755861 $382 72.158945635428836 $176 $384 forward 7 unknown #
coedge $-1 $177 $374 $380 $385 forward $275 $-1 #
loop $-1 $-1 $374 $263 #
vertex $-1 $272 $386 #
vertex $-1 $178 $387 #
straight-curve $-1 29.513917943736864 43.308668700016355 13.377824120185039 0 -1 0 I I #
coedge $-1 $279 $279 $-1 $388 reversed $181 $-1 #
edge $-1 $389 0 $389 6.2831853071796004 $182 $390 forward 7 unknown #
vertex $-1 $185 $391 #
ellipse-curve $-1 34.510820331129885 32.732365933443283 9.244491235048212 0 0.77714596973225614 0.62932038083071107 1.5 0 0 1 I I #
coedge $-1 $283 $283 $-1 $392 reversed $188 $-1 #
edge $-1 $393 0 $393 6.2831853071796004 $189 $394 forward 7 unknown #
vertex $-1 $192 $395 #
ellipse-curve $-1 42.006173912219417 32.732365933443283 9.244491235048212 0 0.77714596973225614 0.62932038083071107 1.5 0 0 1 I I #
coedge $-1 $287 $287 $-1 $396 reversed $195 $-1 #
edge $-1 $397 0 $397 6.2831853071796004 $196 $398 forward 7 unknown #
vertex $-1 $199 $399 #
ellipse-curve $-1 49.501527493308949 32.732365933443283 9.244491235048212 0 0.77714596973225614 0.62932038083071107 1.5 0 0 1 I I #
face $-1 $-1 $215 $30 $-1 $400 reversed single #
loop $-1 $-1 $307 $200 #
plane-surface $-1 0 36.079472817714425 0 0 -1 0 0 0 -1 forward_v I I I I #
coedge $-1 $401 $305 $308 $402 forward $201 $-1 #
coedge $-1 $311 $203 $204 $299 reversed $127 $-1 #
coedge $-1 $305 $401 $203 $297 reversed $201 $-1 #
edge $-1 $312 -13.377824120185041 $403 13.377824120185041 $296 $404 forward 7 unknown #
coedge $-1 $205 $204 $401 $405 forward $81 $-1 #
edge $-1 $303 -61.731620227668081 $403 61.731620227668081 $295 $406 forward 7 unknown #
coedge $-1 $308 $307 $205 $301 reversed $292 $-1 #
edge $-1 $407 -61.731620227668081 $302 61.731620227668081 $300 $408 forward 7 unknown #
vertex $-1 $207 $409 #
vertex $-1 $314 $410 #
straight-curve $-1 61.731620227668081 0 -13.377824120185041 0 -1 0 I I #
coedge $-1 $294 $296 $208 $306 reversed $201 $-1 #
edge $-1 $309 -36.079472817714425 $312 36.079472817714425 $305 $411 forward 7 unknown #
coedge $-1 $300 $209 $214 $315 forward $292 $-1 #
coedge $-1 $209 $300 $294 $402 reversed $292 $-1 #
vertex $-1 $210 $412 #
straight-curve $-1 0 36.079472817714425 13.377824120185041 -1 0 0 I I #
coedge $-1 $211 $295 $213 $314 reversed $127 $-1 #
vertex $-1 $306 $413 #
straight-curve $-1 0 -36.079472817714425 13.377824120185041 1 0 0 I I #
edge $-1 $216 -13.377824120185041 $303 13.377824120185041 $213 $414 forward 7 unknown #
edge $-1 $217 -13.377824120185041 $302 13.377824120185041 $214 $415 forward 7 unknown #
point $-1 61.731620227668081 -36.079472817714425 13.377824120185041 #
point $-1 61.731620227668081 36.079472817714425 13.377824120185041 #
face $-1 $-1 $331 $31 $-1 $416 reversed single #
loop $-1 $-1 $327 $219 #
plane-surface $-1 -61.731620227668081 0 0 1 0 0 0 0 -1 forward_v I I I I #
coedge $-1 $417 $222 $324 $418 forward $135 $-1 #
coedge $-1 $222 $417 $419 $420 forward $135 $-1 #
edge $-1 $421 -36.079472817714425 $325 36.079472817714425 $222 $422 forward 7 unknown #
coedge $-1 $224 $334 $321 $418 reversed $220 $-1 #
vertex $-1 $418 $423 #
straight-curve $-1 -51.599152456487623 -36.079472817714425 -5.5472019169335045 0 0 1 I I #
coedge $-1 $424 $425 $226 $328 forward $319 $-1 #
edge $-1 $335 -36.079472817714425 $332 36.079472817714425 $327 $426 forward 7 unknown #
coedge $-1 $419 $227 $231 $337 forward $331 $-1 #
coedge $-1 $227 $419 $424 $427 reversed $331 $-1 #
loop $-1 $-1 $329 $318 #
vertex $-1 $427 $428 #
straight-curve $-1 -28.332693171038926 36.079472817714425 -8.8109835475489788 1 0 0 I I #
coedge $-1 $324 $229 $425 $429 forward $220 $-1 #
vertex $-1 $429 $430 #
straight-curve $-1 -28.332693171038926 -36.079472817714425 -8.8109835475489788 -1 0 0 I I #
edge $-1 $233 3.2637816306154743 $421 7.8306222032515347 $329 $431 forward 7 unknown #
point $-1 -51.599152456487623 -36.079472817714425 -8.8109835475489788 #
point $-1 -51.599152456487623 36.079472817714425 -8.8109835475489788 #
plane-surface $-1 0 -36.079472817714425 0 0 1 0 0 0 1 forward_v I I I I #
coedge $-1 $351 $350 $343 $432 forward $236 $-1 #
coedge $-1 $343 $238 $240 $347 reversed $143 $-1 #
coedge $-1 $238 $342 $341 $432 reversed $143 $-1 #
coedge $-1 $246 $241 $238 $345 forward $247 $-1 #
edge $-1 $348 -36.293387576017224 $433 -28.026721805743556 $344 $434 forward 7 unknown #
coedge $-1 $240 $239 $351 $435 reversed $89 $-1 #
edge $-1 $436 -10.637211144673003 $348 1.1374033043381581e-014 $342 $437 forward 7 unknown #
vertex $-1 $242 $438 #
straight-curve $-1 21.003086956109708 -36.079472817714425 5.1111583499113609 1 0 0 I I #
coedge $-1 $341 $243 $246 $355 forward $236 $-1 #
coedge $-1 $243 $341 $346 $435 forward $236 $-1 #
vertex $-1 $244 $439 #
straight-curve $-1 29.513917943736864 -66.014216273831678 13.377824120185039 0 -1 0 I I #
straight-curve $-1 29.513917943736864 -36.079472817714418 5.1111583499113777 0 0.62932038083071107 0.77714596973225614 I I #
edge $-1 $248 29.513917943736864 $433 54.49842988070197 $246 $440 forward 7 unknown #
point $-1 29.513917943736864 -36.079472817714425 13.377824120185041 #
point $-1 29.513917943736864 -36.079472817714425 5.1111583499113689 #
edge $-1 $441 1 $441 0 $251 $-1 forward 7 unknown #
vertex $-1 $252 $442 #
ellipse-curve $-1 34.510820331129885 -30.332124030649496 7.300813718619195 0 -0.77714596973225614 0.62932038083071107 1.5 0 0 1 I I #
point $-1 36.010820331129885 -32.732365933443276 9.2444912350482138 #
edge $-1 $443 1 $443 0 $255 $-1 forward 7 unknown #
vertex $-1 $256 $444 #
ellipse-curve $-1 42.006173912219417 -30.332124030649496 7.300813718619195 0 -0.77714596973225614 0.62932038083071107 1.5 0 0 1 I I #
point $-1 43.506173912219417 -32.732365933443276 9.2444912350482138 #
edge $-1 $445 1 $445 0 $259 $-1 forward 7 unknown #
vertex $-1 $260 $446 #
ellipse-curve $-1 49.501527493308949 -30.332124030649496 7.300813718619195 0 -0.77714596973225614 0.62932038083071107 1.5 0 0 1 I I #
point $-1 51.001527493308949 -32.732365933443276 9.2444912350482138 #
plane-surface $-1 0 0 13.377824120185041 0 0 1 1 0 0 forward_v I I I I #
coedge $-1 $381 $380 $373 $447 forward $264 $-1 #
coedge $-1 $373 $266 $268 $377 reversed $172 $-1 #
coedge $-1 $266 $372 $371 $447 reversed $172 $-1 #
coedge $-1 $274 $269 $266 $375 forward $275 $-1 #
edge $-1 $378 -13.923409650844214 $448 -7.22919588230193 $374 $449 forward 7 unknown #
coedge $-1 $268 $267 $381 $450 reversed $108 $-1 #
edge $-1 $451 -72.158945635428836 $378 -61.521734490755861 $372 $452 forward 7 unknown #
vertex $-1 $270 $453 #
straight-curve $-1 21.003086956109708 29.385259049172134 13.377824120185039 1 0 0 I I #
coedge $-1 $371 $271 $274 $385 reversed $264 $-1 #
coedge $-1 $271 $371 $376 $450 forward $264 $-1 #
vertex $-1 $272 $454 #
straight-curve $-1 29.513917943736864 36.079472817714425 69.443562816279851 0 0 1 I I #
straight-curve $-1 29.513917943736864 -9.3316223299162289 61.18919213061389 0 0.62932038083071107 -0.77714596973225614 I I #
edge $-1 $448 -54.49842988070197 $276 -29.513917943736864 $380 $455 forward 7 unknown #
point $-1 29.513917943736864 36.079472817714425 13.377824120185041 #
point $-1 29.513917943736864 29.385259049172141 13.377824120185039 #
edge $-1 $456 1 $456 0 $279 $-1 forward 7 unknown #
vertex $-1 $280 $457 #
ellipse-curve $-1 34.510820331129885 30.332124030649499 7.3008137186191915 0 0.77714596973225614 0.62932038083071107 1.5 0 0 1 I I #
point $-1 36.010820331129885 32.732365933443283 9.2444912350482102 #
edge $-1 $458 1 $458 0 $283 $-1 forward 7 unknown #
vertex $-1 $284 $459 #
ellipse-curve $-1 42.006173912219417 30.332124030649499 7.3008137186191915 0 0.77714596973225614 0.62932038083071107 1.5 0 0 1 I I #
point $-1 43.506173912219417 32.732365933443283 9.2444912350482102 #
edge $-1 $460 1 $460 0 $287 $-1 forward 7 unknown #
vertex $-1 $288 $461 #
ellipse-curve $-1 49.501527493308949 30.332124030649499 7.3008137186191915 0 0.77714596973225614 0.62932038083071107 1.5 0 0 1 I I #
point $-1 51.001527493308949 32.732365933443283 9.2444912350482102 #
plane-surface $-1 61.731620227668081 0 0 -1 0 0 0 0 1 forward_v I I I I #
coedge $-1 $296 $294 $298 $405 reversed $201 $-1 #
edge $-1 $309 -13.377824120185041 $407 13.377824120185041 $308 $462 forward 7 unknown #
vertex $-1 $405 $463 #
straight-curve $-1 -61.731620227668081 -36.079472817714425 0 0 0 -1 I I #
edge $-1 $403 -36.079472817714425 $407 36.079472817714425 $401 $464 forward 7 unknown #
straight-curve $-1 0 -36.079472817714425 -13.377824120185041 -1 0 0 I I #
vertex $-1 $301 $465 #
straight-curve $-1 0 36.079472817714425 -13.377824120185041 1 0 0 I I #
point $-1 61.731620227668081 36.079472817714425 -13.377824120185041 #
point $-1 61.731620227668081 -36.079472817714425 -13.377824120185041 #
straight-curve $-1 -61.731620227668081 0 13.377824120185041 0 -1 0 I I #
point $-1 -61.731620227668081 36.079472817714425 13.377824120185041 #
point $-1 -61.731620227668081 -36.079472817714425 13.377824120185041 #
straight-curve $-1 61.731620227668081 -36.079472817714425 0 0 0 -1 I I #
straight-curve $-1 61.731620227668081 36.079472817714425 0 0 0 -1 I I #
plane-surface $-1 0 36.079472817714425 0 0 -1 0 0 0 -1 forward_v I I I I #
coedge $-1 $322 $321 $466 $467 forward $135 $-1 #
edge $-1 $325 51.599152456487623 $468 61.731620227668081 $324 $469 forward 7 unknown #
coedge $-1 $330 $329 $322 $420 reversed $331 $-1 #
edge $-1 $470 -61.731620227668081 $421 -51.599152456487623 $419 $471 forward 7 unknown #
vertex $-1 $337 $472 #
straight-curve $-1 -51.599152456487623 0 -13.377824120185041 0 -1 0 I I #
point $-1 -51.599152456487623 -36.079472817714425 -13.377824120185039 #
coedge $-1 $466 $327 $330 $427 forward $319 $-1 #
coedge $-1 $327 $466 $334 $429 reversed $319 $-1 #
straight-curve $-1 -61.731620227668081 0 -8.8109835475489788 0 1 0 I I #
edge $-1 $332 8.8109835475489788 $470 13.377824120185041 $330 $473 forward 7 unknown #
point $-1 -61.731620227668081 36.079472817714425 -8.8109835475489788 #
edge $-1 $335 8.8109835475489788 $468 13.377824120185041 $425 $474 forward 7 unknown #
point $-1 -61.731620227668081 -36.079472817714425 -8.8109835475489788 #
straight-curve $-1 -51.599152456487623 36.079472817714425 -5.5472019169335045 0 0 -1 I I #
edge $-1 $433 29.934743456117253 $436 36.628957224659558 $341 $475 forward 7 unknown #
vertex $-1 $345 $476 #
straight-curve $-1 54.49842988070197 -36.079472817714425 41.404545925928595 0 0 1 I I #
edge $-1 $436 -33.495342924592265 $352 -8.5108309876271555 $351 $477 forward 7 unknown #
vertex $-1 $435 $478 #
straight-curve $-1 54.49842988070197 -36.079472817714418 5.1111583499113777 0 -0.62932038083071107 -0.77714596973225614 I I #
point $-1 54.49842988070197 -36.079472817714425 5.1111583499113689 #
point $-1 29.513917943736864 -29.38525904917212 13.377824120185041 #
straight-curve $-1 0 -36.079472817714425 13.377824120185041 1 0 0 I I #
vertex $-1 $358 $479 #
point $-1 36.010820331129885 -30.332124030649496 7.300813718619195 #
vertex $-1 $362 $480 #
point $-1 43.506173912219417 -30.332124030649496 7.300813718619195 #
vertex $-1 $366 $481 #
point $-1 51.001527493308949 -30.332124030649496 7.300813718619195 #
edge $-1 $448 56.065738696094812 $451 64.332404466368445 $371 $482 forward 7 unknown #
vertex $-1 $385 $483 #
straight-curve $-1 54.49842988070197 43.308668700016355 13.377824120185039 0 1 0 I I #
edge $-1 $451 -33.495342924592265 $382 -8.5108309876271555 $381 $484 forward 7 unknown #
vertex $-1 $450 $485 #
straight-curve $-1 54.49842988070197 -9.3316223299162289 61.18919213061389 0 -0.62932038083071107 0.77714596973225614 I I #
point $-1 54.49842988070197 29.385259049172141 13.377824120185039 #
point $-1 29.513917943736864 36.079472817714425 5.1111583499113991 #
straight-curve $-1 0 36.079472817714425 13.377824120185041 -1 0 0 I I #
vertex $-1 $388 $486 #
point $-1 36.010820331129885 30.332124030649499 7.3008137186191915 #
vertex $-1 $392 $487 #
point $-1 43.506173912219417 30.332124030649499 7.3008137186191915 #
vertex $-1 $396 $488 #
point $-1 51.001527493308949 30.332124030649499 7.3008137186191915 #
straight-curve $-1 -61.731620227668081 36.079472817714425 0 0 0 -1 I I #
point $-1 -61.731620227668081 -36.079472817714425 -13.377824120185041 #
straight-curve $-1 -61.731620227668081 0 -13.377824120185041 0 1 0 I I #
point $-1 -61.731620227668081 36.079472817714425 -13.377824120185041 #
coedge $-1 $425 $424 $417 $467 reversed $319 $-1 #
edge $-1 $468 -36.079472817714425 $470 36.079472817714425 $466 $489 forward 7 unknown #
vertex $-1 $467 $490 #
straight-curve $-1 0 -36.079472817714425 -13.377824120185041 -1 0 0 I I #
vertex $-1 $420 $491 #
straight-curve $-1 0 36.079472817714425 -13.377824120185041 1 0 0 I I #
point $-1 -51.599152456487623 36.079472817714425 -13.377824120185039 #
straight-curve $-1 -61.731620227668081 36.079472817714425 0 0 0 -1 I I #
straight-curve $-1 -61.731620227668081 -36.079472817714425 0 0 0 -1 I I #
straight-curve $-1 54.49842988070197 -66.014216273831678 13.377824120185039 0 1 0 I I #
point $-1 54.49842988070197 -36.079472817714425 13.377824120185041 #
straight-curve $-1 21.003086956109708 -29.385259049172117 13.377824120185041 -1 0 0 I I #
point $-1 54.49842988070197 -29.38525904917212 13.377824120185041 #
point $-1 34.510820331129885 -29.166405076051113 6.3568331473731279 #
point $-1 42.006173912219417 -29.166405076051113 6.3568331473731279 #
point $-1 49.501527493308949 -29.166405076051113 6.3568331473731279 #
straight-curve $-1 54.49842988070197 36.079472817714425 69.443562816279851 0 0 -1 I I #
point $-1 54.49842988070197 36.079472817714425 13.377824120185041 #
straight-curve $-1 21.003086956109708 36.079472817714418 5.111158349911392 -1 0 0 I I #
point $-1 54.49842988070197 36.079472817714425 5.1111583499113991 #
point $-1 34.510820331129885 29.166405076051117 6.3568331473731243 #
point $-1 42.006173912219417 29.166405076051117 6.3568331473731243 #
point $-1 49.501527493308949 29.166405076051117 6.3568331473731243 #
straight-curve $-1 -61.731620227668081 0 -13.377824120185041 0 1 0 I I #
point $-1 -61.731620227668081 -36.079472817714425 -13.377824120185041 #
point $-1 -61.731620227668081 36.079472817714425 -13.377824120185041 #
End-of-ACIS-data 