500 0 12 0           
7 Unknown 11 ACIS 5.0 NT 24 Thu Mar 25 17:24:03 1999 
-1 9.9999999999999995e-007 1e-010 
body $-1 $12 $-1 $13 #
body $-1 $14 $-1 $15 #
body $-1 $16 $-1 $17 #
body $-1 $18 $-1 $19 #
body $-1 $20 $-1 $21 #
body $-1 $22 $-1 $23 #
body $-1 $24 $-1 $25 #
body $-1 $26 $-1 $27 #
body $-1 $28 $-1 $29 #
body $-1 $30 $-1 $31 #
body $-1 $32 $-1 $33 #
body $-1 $34 $-1 $35 #
lump $-1 $-1 $36 $0 #
transform $-1 1 0 0 0 1 0 0 0 1 60.405896176030765 41.900864106723333 16.70753318846381 1 rotate no_reflect no_shear #
lump $-1 $-1 $37 $1 #
transform $-1 1 0 0 0 1 0 0 0 1 60.405896176030765 41.900864106723333 16.70753318846381 1 rotate no_reflect no_shear #
lump $-1 $-1 $38 $2 #
transform $-1 1 0 0 0 1 0 0 0 1 60.405896176030765 41.900864106723333 16.70753318846381 1 rotate no_reflect no_shear #
lump $-1 $-1 $39 $3 #
transform $-1 1 0 0 0 1 0 0 0 1 60.405896176030765 41.900864106723333 16.70753318846381 1 rotate no_reflect no_shear #
lump $-1 $-1 $40 $4 #
transform $-1 1 0 0 0 1 0 0 0 1 60.405896176030765 41.900864106723333 16.70753318846381 1 rotate no_reflect no_shear #
lump $-1 $-1 $41 $5 #
transform $-1 1 0 0 0 1 0 0 0 1 60.405896176030765 41.900864106723333 16.70753318846381 1 rotate no_reflect no_shear #
lump $-1 $-1 $42 $6 #
transform $-1 1 0 0 0 1 0 0 0 1 60.405896176030765 41.900864106723333 16.70753318846381 1 rotate no_reflect no_shear #
lump $-1 $-1 $43 $7 #
transform $-1 1 0 0 0 1 0 0 0 1 60.405896176030765 41.900864106723333 16.70753318846381 1 rotate no_reflect no_shear #
lump $-1 $-1 $44 $8 #
transform $-1 1 0 0 0 1 0 0 0 1 60.405896176030765 41.900864106723333 16.70753318846381 1 rotate no_reflect no_shear #
lump $-1 $-1 $45 $9 #
transform $-1 1 0 0 0 1 0 0 0 1 60.405896176030765 41.900864106723333 16.70753318846381 1 rotate no_reflect no_shear #
lump $-1 $-1 $46 $10 #
transform $-1 1 0 0 0 1 0 0 0 1 60.405896176030765 41.900864106723333 16.70753318846381 1 rotate no_reflect no_shear #
lump $-1 $-1 $47 $11 #
transform $-1 1 0 0 0 1 0 0 0 1 60.405896176030765 41.900864106723333 16.70753318846381 1 rotate no_reflect no_shear #
shell $-1 $-1 $-1 $48 $-1 $12 #
shell $-1 $-1 $-1 $49 $-1 $14 #
shell $-1 $-1 $-1 $50 $-1 $16 #
shell $-1 $-1 $-1 $51 $-1 $18 #
shell $-1 $-1 $-1 $52 $-1 $20 #
shell $-1 $-1 $-1 $53 $-1 $22 #
shell $-1 $-1 $-1 $54 $-1 $24 #
shell $-1 $-1 $-1 $55 $-1 $26 #
shell $-1 $-1 $-1 $56 $-1 $28 #
shell $-1 $-1 $-1 $57 $-1 $30 #
shell $-1 $-1 $-1 $58 $-1 $32 #
shell $-1 $-1 $-1 $59 $-1 $34 #
face $-1 $60 $61 $36 $-1 $62 forward single #
face $-1 $63 $64 $37 $-1 $65 reversed single #
face $-1 $66 $67 $38 $-1 $68 reversed single #
face $-1 $69 $70 $39 $-1 $71 forward single #
face $-1 $72 $73 $40 $-1 $74 forward single #
face $-1 $75 $76 $41 $-1 $77 forward single #
face $-1 $78 $79 $42 $-1 $80 reversed single #
face $-1 $81 $82 $43 $-1 $83 forward single #
face $-1 $84 $85 $44 $-1 $86 forward single #
face $-1 $87 $88 $45 $-1 $89 reversed single #
face $-1 $90 $91 $46 $-1 $92 forward single #
face $-1 $93 $94 $47 $-1 $95 forward single #
face $-1 $96 $97 $36 $-1 $98 reversed single #
loop $-1 $-1 $99 $48 #
plane-surface $-1 0 0 16.70753318846381 0 0 1 1 0 0 forward_v I I I I #
face $-1 $100 $101 $37 $-1 $102 reversed single #
loop $-1 $-1 $103 $49 #
plane-surface $-1 -47.535741173670694 -33.151505223025268 0 1 0 0 0 0 -1 forward_v I I I I #
face $-1 $104 $105 $38 $-1 $106 reversed single #
loop $-1 $-1 $107 $50 #
plane-surface $-1 -154.29429369856558 21.911770619654227 87.680747298708468 0 1 0 -0.77714596973225614 0 0.62932038083071107 forward_v I I I I #
face $-1 $108 $109 $39 $-1 $110 forward single #
loop $-1 $111 $112 $51 #
cone-surface $-1 -57.747012348996797 24.7568895157318 13.684129171835945 0.77714596973225614 0 -0.62932038083071107 0.62932038083071107 0 0.77714596973225614 1 I I 0 1 1 forward I I I I #
face $-1 $113 $114 $40 $-1 $115 forward single #
loop $-1 $116 $117 $52 #
cone-surface $-1 -57.747012348996797 29.024567859848162 13.684129171835945 0.77714596973225614 0 -0.62932038083071107 0.62932038083071107 0 0.77714596973225614 1 I I 0 1 1 forward I I I I #
face $-1 $118 $119 $41 $-1 $120 forward single #
loop $-1 $121 $122 $53 #
cone-surface $-1 -57.747012348996797 33.292246203964524 13.684129171835945 0.77714596973225614 0 -0.62932038083071107 0.62932038083071107 0 0.77714596973225614 1 I I 0 1 1 forward I I I I #
face $-1 $123 $124 $42 $-1 $125 reversed single #
loop $-1 $-1 $126 $54 #
plane-surface $-1 57.424090332449481 5.3192199623481571 176.49063376955695 0 -1 0 -0.69465837861970381 0 -0.71933979245794832 forward_v I I I I #
face $-1 $127 $128 $43 $-1 $129 forward single #
loop $-1 $130 $131 $55 #
cone-surface $-1 53.736546733898329 -3.0368400238050839 10.200607323619558 -0.69465837861970381 0 -0.71933979245794832 1.0790096886869225 0 -1.0419875679295556 1 I I 0 1 1.5 forward I I I I #
face $-1 $132 $133 $44 $-1 $134 forward single #
loop $-1 $135 $136 $56 #
cone-surface $-1 53.736546733898329 1.9767959678868579 10.200607323619558 -0.69465837861970381 0 -0.71933979245794832 1.0790096886869225 0 -1.0419875679295556 1 I I 0 1 1.5 forward I I I I #
face $-1 $137 $138 $45 $-1 $139 reversed single #
loop $-1 $-1 $140 $57 #
plane-surface $-1 57.424090332449481 38.470725185373432 176.49063376955695 0 -1 0 -0.69465837861970381 0 -0.71933979245794832 forward_v I I I I #
face $-1 $141 $142 $46 $-1 $143 forward single #
loop $-1 $144 $145 $58 #
cone-surface $-1 53.736546733898329 30.114665199220184 10.200607323619558 -0.69465837861970381 0 -0.71933979245794832 1.0790096886869225 0 -1.0419875679295556 1 I I 0 1 1.5 forward I I I I #
face $-1 $146 $147 $47 $-1 $148 forward single #
loop $-1 $149 $150 $59 #
cone-surface $-1 53.736546733898329 35.128301190912126 10.200607323619558 -0.69465837861970381 0 -0.71933979245794832 1.0790096886869225 0 -1.0419875679295556 1 I I 0 1 1.5 forward I I I I #
face $-1 $151 $152 $36 $-1 $153 reversed single #
loop $-1 $-1 $154 $60 #
plane-surface $-1 0 0 -16.70753318846381 0 0 1 1 0 0 forward_v I I I I #
coedge $-1 $155 $156 $157 $158 forward $61 $-1 #
face $-1 $159 $160 $37 $-1 $161 reversed single #
loop $-1 $-1 $162 $63 #
plane-surface $-1 -43.633101680547028 -24.402146339327199 0 0 -1 0 0 0 -1 forward_v I I I I #
coedge $-1 $163 $164 $165 $166 forward $64 $-1 #
face $-1 $167 $168 $38 $-1 $169 reversed single #
loop $-1 $-1 $170 $66 #
plane-surface $-1 -60.405896176030765 29.024567859848162 11.651424126868321 -0.77714596973225614 0 0.62932038083071107 0.62932038083071107 0 0.77714596973225614 forward_v I I I I #
coedge $-1 $171 $172 $173 $174 reversed $67 $-1 #
face $-1 $-1 $175 $39 $-1 $176 forward single #
loop $-1 $177 $178 $69 #
cone-surface $-1 -56.746733676141247 24.7568895157318 12.874119495590477 0.77714596973225614 0 -0.62932038083071107 0.31466019041535553 0 0.38857298486612807 1 I I -0.70710678118654746 0.70710678118654746 0.5 forward I I I I #
loop $-1 $-1 $179 $51 #
coedge $-1 $112 $112 $180 $181 reversed $70 $-1 #
face $-1 $-1 $182 $40 $-1 $183 forward single #
loop $-1 $184 $185 $72 #
cone-surface $-1 -56.746733676141247 29.024567859848162 12.874119495590477 0.77714596973225614 0 -0.62932038083071107 0.31466019041535553 0 0.38857298486612807 1 I I -0.70710678118654746 0.70710678118654746 0.5 forward I I I I #
loop $-1 $-1 $186 $52 #
coedge $-1 $117 $117 $187 $188 reversed $73 $-1 #
face $-1 $-1 $189 $41 $-1 $190 forward single #
loop $-1 $191 $192 $75 #
cone-surface $-1 -56.746733676141247 33.292246203964524 12.874119495590477 0.77714596973225614 0 -0.62932038083071107 0.31466019041535553 0 0.38857298486612807 1 I I -0.70710678118654746 0.70710678118654746 0.5 forward I I I I #
loop $-1 $-1 $193 $53 #
coedge $-1 $122 $122 $194 $195 reversed $76 $-1 #
face $-1 $196 $197 $42 $-1 $198 reversed single #
loop $-1 $-1 $199 $78 #
plane-surface $-1 -26.498833460973913 -0.53002202795911302 89.585904132552258 0.69465837861970381 0 0.71933979245794832 0.71933979245794832 0 -0.69465837861970381 forward_v I I I I #
coedge $-1 $200 $201 $202 $203 reversed $79 $-1 #
face $-1 $-1 $204 $43 $-1 $205 forward single #
loop $-1 $206 $207 $81 #
cone-surface $-1 52.264688016847046 -3.0368400238050839 8.6764530390993322 -0.69465837861970381 0 -0.71933979245794832 0.53950484434346124 0 -0.5209937839647778 1 I I -0.70710678118654757 0.70710678118654757 0.75 forward I I I I #
loop $-1 $-1 $208 $55 #
coedge $-1 $131 $131 $209 $210 reversed $82 $-1 #
face $-1 $-1 $211 $44 $-1 $212 forward single #
loop $-1 $213 $214 $84 #
cone-surface $-1 52.264688016847046 1.9767959678868579 8.6764530390993322 -0.69465837861970381 0 -0.71933979245794832 0.53950484434346124 0 -0.5209937839647778 1 I I -0.70710678118654757 0.70710678118654757 0.75 forward I I I I #
loop $-1 $-1 $215 $56 #
coedge $-1 $136 $136 $216 $217 reversed $85 $-1 #
face $-1 $218 $219 $45 $-1 $220 reversed single #
loop $-1 $-1 $221 $87 #
plane-surface $-1 -26.498833460973913 32.621483195066162 89.585904132552258 0.69465837861970381 0 0.71933979245794832 0.71933979245794832 0 -0.69465837861970381 forward_v I I I I #
coedge $-1 $222 $223 $224 $225 reversed $88 $-1 #
face $-1 $-1 $226 $46 $-1 $227 forward single #
loop $-1 $228 $229 $90 #
cone-surface $-1 52.264688016847046 30.114665199220184 8.6764530390993322 -0.69465837861970381 0 -0.71933979245794832 0.53950484434346124 0 -0.5209937839647778 1 I I -0.70710678118654757 0.70710678118654757 0.75 forward I I I I #
loop $-1 $-1 $230 $58 #
coedge $-1 $145 $145 $231 $232 reversed $91 $-1 #
face $-1 $-1 $233 $47 $-1 $234 forward single #
loop $-1 $235 $236 $93 #
cone-surface $-1 52.264688016847046 35.128301190912126 8.6764530390993322 -0.69465837861970381 0 -0.71933979245794832 0.53950484434346124 0 -0.5209937839647778 1 I I -0.70710678118654757 0.70710678118654757 0.75 forward I I I I #
loop $-1 $-1 $237 $59 #
coedge $-1 $150 $150 $238 $239 reversed $94 $-1 #
face $-1 $240 $241 $36 $-1 $242 reversed single #
loop $-1 $-1 $243 $96 #
plane-surface $-1 0 -41.900864106723333 0 0 1 0 0 0 1 forward_v I I I I #
coedge $-1 $244 $245 $246 $247 forward $97 $-1 #
coedge $-1 $248 $99 $249 $250 forward $61 $-1 #
coedge $-1 $99 $248 $251 $252 forward $61 $-1 #
coedge $-1 $253 $254 $99 $158 reversed $255 $-1 #
edge $-1 $256 -41.900864106723333 $257 41.900864106723333 $157 $258 forward 7 unknown #
face $-1 $259 $260 $37 $-1 $261 forward single #
loop $-1 $-1 $262 $100 #
plane-surface $-1 -39.730462187423363 -33.151505223025268 0 -1 0 0 0 0 1 forward_v I I I I #
coedge $-1 $263 $264 $265 $266 forward $101 $-1 #
coedge $-1 $267 $103 $268 $269 reversed $64 $-1 #
coedge $-1 $103 $267 $270 $271 reversed $64 $-1 #
coedge $-1 $264 $263 $103 $166 reversed $101 $-1 #
edge $-1 $272 -16.70753318846381 $273 16.70753318846381 $165 $274 forward 7 unknown #
face $-1 $275 $276 $38 $-1 $277 reversed single #
loop $-1 $-1 $278 $104 #
plane-surface $-1 -154.29429369856558 36.137365100042096 87.680747298708468 0 -1 0 0.77714596973225614 0 -0.62932038083071107 forward_v I I I I #
coedge $-1 $279 $280 $281 $282 reversed $105 $-1 #
coedge $-1 $172 $107 $283 $284 reversed $67 $-1 #
coedge $-1 $107 $171 $279 $285 reversed $67 $-1 #
coedge $-1 $281 $286 $107 $174 forward $287 $-1 #
edge $-1 $288 16.741250673252026 $289 20.835606951341099 $173 $290 forward 7 unknown #
loop $-1 $-1 $180 $108 #
plane-surface $-1 -60.405896176030765 29.024567859848162 11.651424126868321 -0.77714596973225614 0 0.62932038083071107 0.62932038083071107 0 0.77714596973225614 forward_v I I I I #
loop $-1 $-1 $291 $69 #
coedge $-1 $178 $178 $179 $292 reversed $109 $-1 #
coedge $-1 $179 $179 $178 $292 forward $111 $-1 #
coedge $-1 $180 $180 $112 $181 forward $175 $-1 #
edge $-1 $293 0 $293 6.2831853071796004 $180 $294 forward 7 unknown #
loop $-1 $-1 $187 $113 #
plane-surface $-1 -60.405896176030765 29.024567859848162 11.651424126868321 -0.77714596973225614 0 0.62932038083071107 0.62932038083071107 0 0.77714596973225614 forward_v I I I I #
loop $-1 $-1 $295 $72 #
coedge $-1 $185 $185 $186 $296 reversed $114 $-1 #
coedge $-1 $186 $186 $185 $296 forward $116 $-1 #
coedge $-1 $187 $187 $117 $188 forward $182 $-1 #
edge $-1 $297 0 $297 6.2831853071796004 $187 $298 forward 7 unknown #
loop $-1 $-1 $194 $118 #
plane-surface $-1 -60.405896176030765 29.024567859848162 11.651424126868321 -0.77714596973225614 0 0.62932038083071107 0.62932038083071107 0 0.77714596973225614 forward_v I I I I #
loop $-1 $-1 $299 $75 #
coedge $-1 $192 $192 $193 $300 reversed $119 $-1 #
coedge $-1 $193 $193 $192 $300 forward $121 $-1 #
coedge $-1 $194 $194 $122 $195 forward $189 $-1 #
edge $-1 $301 0 $301 6.2831853071796004 $194 $302 forward 7 unknown #
face $-1 $303 $304 $42 $-1 $305 forward single #
loop $-1 $-1 $306 $123 #
plane-surface $-1 57.424090332449481 -6.3792640182663831 176.49063376955695 0 1 0 0.69465837861970381 0 0.71933979245794832 forward_v I I I I #
coedge $-1 $307 $308 $309 $310 reversed $124 $-1 #
coedge $-1 $201 $126 $311 $312 reversed $79 $-1 #
coedge $-1 $126 $200 $307 $313 reversed $79 $-1 #
coedge $-1 $309 $314 $126 $203 forward $304 $-1 #
edge $-1 $315 -31.693851009806025 $316 -20.256881991714224 $202 $317 forward 7 unknown #
loop $-1 $-1 $209 $127 #
plane-surface $-1 -26.498833460973913 -0.53002202795911302 89.585904132552258 0.69465837861970381 0 0.71933979245794832 0.71933979245794832 0 -0.69465837861970381 forward_v I I I I #
loop $-1 $-1 $318 $81 #
coedge $-1 $207 $207 $208 $319 reversed $128 $-1 #
coedge $-1 $208 $208 $207 $319 forward $130 $-1 #
coedge $-1 $209 $209 $131 $210 forward $204 $-1 #
edge $-1 $320 0 $320 6.2831853071796004 $209 $321 forward 7 unknown #
loop $-1 $-1 $216 $132 #
plane-surface $-1 -26.498833460973913 -0.53002202795911302 89.585904132552258 0.69465837861970381 0 0.71933979245794832 0.71933979245794832 0 -0.69465837861970381 forward_v I I I I #
loop $-1 $-1 $322 $84 #
coedge $-1 $214 $214 $215 $323 reversed $133 $-1 #
coedge $-1 $215 $215 $214 $323 forward $135 $-1 #
coedge $-1 $216 $216 $136 $217 forward $211 $-1 #
edge $-1 $324 0 $324 6.2831853071796004 $216 $325 forward 7 unknown #
face $-1 $326 $327 $45 $-1 $328 reversed single #
loop $-1 $-1 $329 $137 #
plane-surface $-1 57.424090332449481 26.772241204758892 176.49063376955695 0 1 0 0.69465837861970381 0 0.71933979245794832 forward_v I I I I #
coedge $-1 $330 $331 $332 $333 reversed $138 $-1 #
coedge $-1 $223 $140 $334 $335 reversed $88 $-1 #
coedge $-1 $140 $222 $330 $336 reversed $88 $-1 #
coedge $-1 $332 $337 $140 $225 forward $338 $-1 #
edge $-1 $339 -31.693851009806025 $340 -20.256881991714224 $224 $341 forward 7 unknown #
loop $-1 $-1 $231 $141 #
plane-surface $-1 -26.498833460973913 32.621483195066162 89.585904132552258 0.69465837861970381 0 0.71933979245794832 0.71933979245794832 0 -0.69465837861970381 forward_v I I I I #
loop $-1 $-1 $342 $90 #
coedge $-1 $229 $229 $230 $343 reversed $142 $-1 #
coedge $-1 $230 $230 $229 $343 forward $144 $-1 #
coedge $-1 $231 $231 $145 $232 forward $226 $-1 #
edge $-1 $344 0 $344 6.2831853071796004 $231 $345 forward 7 unknown #
loop $-1 $-1 $238 $146 #
plane-surface $-1 -26.498833460973913 32.621483195066162 89.585904132552258 0.69465837861970381 0 0.71933979245794832 0.71933979245794832 0 -0.69465837861970381 forward_v I I I I #
loop $-1 $-1 $346 $93 #
coedge $-1 $236 $236 $237 $347 reversed $147 $-1 #
coedge $-1 $237 $237 $236 $347 forward $149 $-1 #
coedge $-1 $238 $238 $150 $239 forward $233 $-1 #
edge $-1 $348 0 $348 6.2831853071796004 $238 $349 forward 7 unknown #
face $-1 $350 $351 $36 $-1 $352 reversed single #
loop $-1 $-1 $353 $151 #
plane-surface $-1 -60.405896176030765 0 0 1 0 0 0 0 -1 forward_v I I I I #
coedge $-1 $354 $251 $355 $356 forward $152 $-1 #
coedge $-1 $357 $154 $354 $358 forward $97 $-1 #
coedge $-1 $154 $357 $359 $360 forward $97 $-1 #
coedge $-1 $254 $253 $154 $247 reversed $255 $-1 #
edge $-1 $361 -41.900864106723333 $362 41.900864106723333 $246 $363 forward 7 unknown #
coedge $-1 $156 $155 $364 $365 forward $61 $-1 #
coedge $-1 $366 $367 $155 $250 reversed $351 $-1 #
edge $-1 $257 -60.405896176030765 $368 60.405896176030765 $249 $369 forward 7 unknown #
coedge $-1 $243 $370 $156 $252 reversed $152 $-1 #
edge $-1 $371 -60.405896176030765 $256 60.405896176030765 $251 $372 forward 7 unknown #
coedge $-1 $246 $157 $370 $373 forward $255 $-1 #
coedge $-1 $157 $246 $366 $374 reversed $255 $-1 #
loop $-1 $-1 $253 $350 #
vertex $-1 $158 $375 #
vertex $-1 $158 $376 #
straight-curve $-1 60.405896176030765 0 16.70753318846381 0 1 0 I I #
face $-1 $377 $378 $37 $-1 $379 reversed single #
loop $-1 $-1 $380 $159 #
plane-surface $-1 0 0 16.70753318846381 0 0 1 1 0 0 forward_v I I I I #
coedge $-1 $381 $382 $383 $384 reversed $160 $-1 #
coedge $-1 $165 $162 $385 $386 reversed $101 $-1 #
coedge $-1 $162 $165 $387 $388 reversed $101 $-1 #
coedge $-1 $382 $381 $162 $266 reversed $160 $-1 #
edge $-1 $389 -16.70753318846381 $390 16.70753318846381 $265 $391 forward 7 unknown #
coedge $-1 $164 $163 $392 $393 reversed $64 $-1 #
coedge $-1 $385 $394 $163 $269 forward $378 $-1 #
edge $-1 $395 -25.325111495210699 $273 -7.8263937278145654 $268 $396 forward 7 unknown #
coedge $-1 $397 $387 $164 $271 forward $260 $-1 #
edge $-1 $272 7.8263937278145654 $398 25.325111495210699 $270 $399 forward 7 unknown #
vertex $-1 $271 $400 #
vertex $-1 $269 $401 #
straight-curve $-1 -47.535741173670694 -24.402146339327199 0 0 0 -1 I I #
face $-1 $-1 $287 $38 $-1 $402 forward single #
loop $-1 $-1 $403 $167 #
plane-surface $-1 -60.405896176030765 0 0 1 0 0 0 0 -1 forward_v I I I I #
coedge $-1 $404 $405 $406 $407 reversed $168 $-1 #
coedge $-1 $408 $170 $172 $285 forward $105 $-1 #
coedge $-1 $170 $408 $404 $409 forward $105 $-1 #
coedge $-1 $406 $173 $170 $282 forward $287 $-1 #
edge $-1 $289 7.3994866897301463 $410 21.625081170118015 $281 $411 forward 7 unknown #
coedge $-1 $412 $413 $171 $284 forward $276 $-1 #
edge $-1 $414 -32.188949522485913 $288 -27.132840460890424 $283 $415 forward 7 unknown #
edge $-1 $289 -6.5059966319293014 $414 0 $172 $416 forward 7 unknown #
coedge $-1 $173 $406 $412 $417 forward $287 $-1 #
loop $-1 $-1 $406 $275 #
vertex $-1 $284 $418 #
vertex $-1 $174 $419 #
straight-curve $-1 -77.147146849282791 21.911770619654227 16.707533188463806 1 0 0 I I #
coedge $-1 $291 $291 $-1 $420 reversed $177 $-1 #
edge $-1 $421 0 $421 6.2831853071796004 $178 $422 forward 7 unknown #
vertex $-1 $181 $423 #
ellipse-curve $-1 -58.358718036986232 24.7568895157318 14.179478657666063 -0.77714596973225614 0 0.62932038083071107 0.62932038083071107 0 0.77714596973225614 1 I I #
coedge $-1 $295 $295 $-1 $424 reversed $184 $-1 #
edge $-1 $425 0 $425 6.2831853071796004 $185 $426 forward 7 unknown #
vertex $-1 $188 $427 #
ellipse-curve $-1 -58.358718036986232 29.024567859848162 14.179478657666063 -0.77714596973225614 0 0.62932038083071107 0.62932038083071107 0 0.77714596973225614 1 I I #
coedge $-1 $299 $299 $-1 $428 reversed $191 $-1 #
edge $-1 $429 0 $429 6.2831853071796004 $192 $430 forward 7 unknown #
vertex $-1 $195 $431 #
ellipse-curve $-1 -58.358718036986232 33.292246203964524 14.179478657666063 -0.77714596973225614 0 0.62932038083071107 0.62932038083071107 0 0.77714596973225614 1 I I #
face $-1 $-1 $432 $42 $-1 $433 reversed single #
loop $-1 $-1 $202 $196 #
plane-surface $-1 0 0 16.70753318846381 0 0 1 1 0 0 forward_v I I I I #
coedge $-1 $434 $435 $436 $437 reversed $197 $-1 #
coedge $-1 $438 $199 $201 $313 forward $124 $-1 #
coedge $-1 $199 $438 $434 $439 forward $124 $-1 #
coedge $-1 $436 $202 $199 $310 forward $304 $-1 #
edge $-1 $316 -5.5842309763277136 $440 6.1142530042868266 $309 $441 forward 7 unknown #
coedge $-1 $442 $443 $200 $312 forward $432 $-1 #
edge $-1 $444 -82.582336545649596 $315 -71.537783696314662 $311 $445 forward 7 unknown #
edge $-1 $316 104.91253425734072 $444 120.8117923520615 $201 $446 forward 7 unknown #
coedge $-1 $202 $436 $442 $447 forward $304 $-1 #
vertex $-1 $312 $448 #
vertex $-1 $203 $449 #
straight-curve $-1 28.71204516622474 5.3192199623481571 16.707533188463813 -1 0 0 I I #
coedge $-1 $318 $318 $-1 $450 reversed $206 $-1 #
edge $-1 $451 0 $451 6.2831853071796004 $207 $452 forward 7 unknown #
vertex $-1 $210 $453 #
ellipse-curve $-1 54.687411666984858 -3.0368400238050839 11.185256763796344 0.69465837861970381 0 0.71933979245794832 1.0790096886869225 0 -1.0419875679295556 1 I I #
coedge $-1 $322 $322 $-1 $454 reversed $213 $-1 #
edge $-1 $455 0 $455 6.2831853071796004 $214 $456 forward 7 unknown #
vertex $-1 $217 $457 #
ellipse-curve $-1 54.687411666984858 1.9767959678868579 11.185256763796344 0.69465837861970381 0 0.71933979245794832 1.0790096886869225 0 -1.0419875679295556 1 I I #
face $-1 $-1 $338 $45 $-1 $458 forward single #
loop $-1 $-1 $459 $218 #
plane-surface $-1 60.405896176030765 0 0 -1 0 0 0 0 1 forward_v I I I I #
coedge $-1 $460 $461 $462 $463 reversed $219 $-1 #
coedge $-1 $464 $221 $223 $336 forward $138 $-1 #
coedge $-1 $221 $464 $460 $465 forward $138 $-1 #
coedge $-1 $462 $224 $221 $333 forward $338 $-1 #
edge $-1 $340 -22.159983587840351 $466 -10.461499607225811 $332 $467 forward 7 unknown #
coedge $-1 $468 $469 $222 $335 forward $327 $-1 #
edge $-1 $470 -82.582336545649596 $339 -71.537783696314662 $334 $471 forward 7 unknown #
edge $-1 $340 104.91253425734072 $470 120.8117923520615 $223 $472 forward 7 unknown #
coedge $-1 $224 $462 $468 $473 forward $338 $-1 #
loop $-1 $-1 $462 $326 #
vertex $-1 $335 $474 #
vertex $-1 $225 $475 #
straight-curve $-1 28.71204516622474 38.470725185373432 16.707533188463813 -1 0 0 I I #
coedge $-1 $342 $342 $-1 $476 reversed $228 $-1 #
edge $-1 $477 0 $477 6.2831853071796004 $229 $478 forward 7 unknown #
vertex $-1 $232 $479 #
ellipse-curve $-1 54.687411666984858 30.114665199220184 11.185256763796344 0.69465837861970381 0 0.71933979245794832 1.0790096886869225 0 -1.0419875679295556 1 I I #
coedge $-1 $346 $346 $-1 $480 reversed $235 $-1 #
edge $-1 $481 0 $481 6.2831853071796004 $236 $482 forward 7 unknown #
vertex $-1 $239 $483 #
ellipse-curve $-1 54.687411666984858 35.128301190912126 11.185256763796344 0.69465837861970381 0 0.71933979245794832 1.0790096886869225 0 -1.0419875679295556 1 I I #
face $-1 $-1 $255 $36 $-1 $484 reversed single #
loop $-1 $-1 $366 $240 #
plane-surface $-1 0 41.900864106723333 0 0 -1 0 0 0 -1 forward_v I I I I #
coedge $-1 $485 $364 $367 $486 forward $241 $-1 #
coedge $-1 $370 $243 $244 $358 reversed $152 $-1 #
coedge $-1 $364 $485 $243 $356 reversed $241 $-1 #
edge $-1 $371 -16.70753318846381 $487 16.70753318846381 $355 $488 forward 7 unknown #
coedge $-1 $245 $244 $485 $489 forward $97 $-1 #
edge $-1 $362 -60.405896176030765 $487 60.405896176030765 $354 $490 forward 7 unknown #
coedge $-1 $367 $366 $245 $360 reversed $351 $-1 #
edge $-1 $491 -60.405896176030765 $361 60.405896176030765 $359 $492 forward 7 unknown #
vertex $-1 $247 $493 #
vertex $-1 $373 $494 #
straight-curve $-1 60.405896176030765 0 -16.70753318846381 0 -1 0 I I #
coedge $-1 $353 $355 $248 $365 reversed $241 $-1 #
edge $-1 $368 -41.900864106723333 $371 41.900864106723333 $364 $495 forward 7 unknown #
coedge $-1 $359 $249 $254 $374 forward $351 $-1 #
coedge $-1 $249 $359 $353 $486 reversed $351 $-1 #
vertex $-1 $250 $496 #
straight-curve $-1 0 41.900864106723333 16.70753318846381 -1 0 0 I I #
coedge $-1 $251 $354 $253 $373 reversed $152 $-1 #
vertex $-1 $365 $497 #
straight-curve $-1 0 -41.900864106723333 16.70753318846381 1 0 0 I I #
edge $-1 $256 -16.70753318846381 $362 16.70753318846381 $253 $498 forward 7 unknown #
edge $-1 $257 -16.70753318846381 $361 16.70753318846381 $254 $499 forward 7 unknown #
point $-1 60.405896176030765 -41.900864106723333 16.70753318846381 #
point $-1 60.405896176030765 41.900864106723333 16.70753318846381 #
face $-1 $-1 $500 $37 $-1 $501 reversed single #
loop $-1 $-1 $502 $259 #
plane-surface $-1 0 0 -16.70753318846381 0 0 1 1 0 0 forward_v I I I I #
coedge $-1 $387 $397 $382 $503 forward $260 $-1 #
coedge $-1 $265 $262 $502 $504 reversed $160 $-1 #
coedge $-1 $262 $265 $380 $503 reversed $160 $-1 #
coedge $-1 $505 $506 $262 $384 forward $500 $-1 #
edge $-1 $507 -16.70753318846381 $508 16.70753318846381 $383 $509 forward 7 unknown #
coedge $-1 $502 $268 $263 $386 forward $378 $-1 #
edge $-1 $273 -25.719190333397179 $390 -17.913911347149849 $385 $510 forward 7 unknown #
coedge $-1 $270 $380 $264 $388 forward $260 $-1 #
edge $-1 $389 17.913911347149849 $272 25.719190333397179 $387 $511 forward 7 unknown #
vertex $-1 $388 $512 #
vertex $-1 $386 $513 #
straight-curve $-1 -39.730462187423363 -24.402146339327199 0 0 0 -1 I I #
coedge $-1 $506 $505 $267 $393 forward $500 $-1 #
edge $-1 $398 -16.70753318846381 $395 16.70753318846381 $392 $514 forward 7 unknown #
coedge $-1 $268 $502 $506 $515 forward $378 $-1 #
vertex $-1 $269 $516 #
straight-curve $-1 -47.535741173670694 -16.575752611512634 -16.70753318846381 0 1 0 I I #
coedge $-1 $380 $270 $505 $517 forward $260 $-1 #
vertex $-1 $517 $518 #
straight-curve $-1 -47.535741173670694 -16.575752611512634 16.70753318846381 0 -1 0 I I #
point $-1 -47.535741173670694 -24.402146339327199 16.70753318846381 #
point $-1 -47.535741173670694 -24.402146339327199 -16.70753318846381 #
plane-surface $-1 0 0 16.70753318846381 0 0 1 1 0 0 forward_v I I I I #
coedge $-1 $413 $412 $405 $519 forward $276 $-1 #
coedge $-1 $405 $278 $280 $409 reversed $168 $-1 #
coedge $-1 $278 $404 $403 $519 reversed $168 $-1 #
coedge $-1 $286 $281 $278 $407 forward $287 $-1 #
edge $-1 $410 -20.835606951341099 $520 -16.741250673252026 $406 $521 forward 7 unknown #
coedge $-1 $280 $279 $413 $522 reversed $105 $-1 #
edge $-1 $523 0 $410 6.5059966319293014 $404 $524 forward 7 unknown #
vertex $-1 $282 $525 #
straight-curve $-1 -56.311539897941692 14.512283929924081 16.707533188463813 0 1 0 I I #
coedge $-1 $403 $283 $286 $417 reversed $276 $-1 #
coedge $-1 $283 $403 $408 $522 forward $276 $-1 #
vertex $-1 $284 $526 #
straight-curve $-1 -60.405896176030765 21.911770619654227 43.840373649354234 0 0 1 I I #
straight-curve $-1 -60.405896176030765 21.911770619654227 11.651424126868321 -0.62932038083071107 0 -0.77714596973225614 I I #
edge $-1 $520 -36.137365100042096 $288 -21.911770619654227 $412 $527 forward 7 unknown #
point $-1 -60.405896176030765 21.911770619654227 16.70753318846381 #
point $-1 -56.311539897941692 21.911770619654227 16.70753318846381 #
edge $-1 $528 1 $528 0 $291 $-1 forward 7 unknown #
vertex $-1 $292 $529 #
ellipse-curve $-1 -57.135306661007377 24.7568895157318 13.188779686005834 -0.77714596973225614 0 0.62932038083071107 0.62932038083071107 0 0.77714596973225614 1 I I #
point $-1 -57.729397656155513 24.7568895157318 14.956624627398313 #
edge $-1 $530 1 $530 0 $295 $-1 forward 7 unknown #
vertex $-1 $296 $531 #
ellipse-curve $-1 -57.135306661007377 29.024567859848162 13.188779686005834 -0.77714596973225614 0 0.62932038083071107 0.62932038083071107 0 0.77714596973225614 1 I I #
point $-1 -57.729397656155513 29.024567859848162 14.956624627398313 #
edge $-1 $532 1 $532 0 $299 $-1 forward 7 unknown #
vertex $-1 $300 $533 #
ellipse-curve $-1 -57.135306661007377 33.292246203964524 13.188779686005834 -0.77714596973225614 0 0.62932038083071107 0.62932038083071107 0 0.77714596973225614 1 I I #
point $-1 -57.729397656155513 33.292246203964524 14.956624627398313 #
loop $-1 $-1 $311 $303 #
plane-surface $-1 60.405896176030765 0 0 -1 0 0 0 0 1 forward_v I I I I #
coedge $-1 $435 $306 $308 $439 reversed $197 $-1 #
coedge $-1 $306 $434 $534 $535 reversed $197 $-1 #
coedge $-1 $314 $309 $306 $437 forward $304 $-1 #
edge $-1 $440 20.256881991714224 $536 31.693851009806025 $436 $537 forward 7 unknown #
coedge $-1 $308 $307 $443 $538 reversed $124 $-1 #
edge $-1 $539 -120.8117923520615 $440 -104.91253425734072 $434 $540 forward 7 unknown #
vertex $-1 $310 $541 #
straight-curve $-1 48.96892715793895 -0.26501101397955651 16.707533188463813 0 -1 0 I I #
coedge $-1 $534 $311 $314 $447 reversed $432 $-1 #
coedge $-1 $311 $534 $438 $538 forward $432 $-1 #
vertex $-1 $312 $542 #
straight-curve $-1 60.405896176030765 5.3192199623481571 88.245316884778475 0 0 1 I I #
straight-curve $-1 -26.498833460973913 5.3192199623481571 89.585904132552258 0.71933979245794832 0 -0.69465837861970381 I I #
edge $-1 $536 -6.3792640182663831 $315 5.3192199623481571 $442 $543 forward 7 unknown #
point $-1 60.405896176030765 5.3192199623481571 16.70753318846381 #
point $-1 48.968927157938964 5.3192199623481571 16.707533188463813 #
edge $-1 $544 1 $544 0 $318 $-1 forward 7 unknown #
vertex $-1 $319 $545 #
ellipse-curve $-1 52.785681800811822 -3.0368400238050839 9.215957883442794 0.69465837861970381 0 0.71933979245794832 1.0790096886869225 0 -1.0419875679295556 1 I I #
point $-1 55.76642135567176 -3.0368400238050839 10.143269195866765 #
edge $-1 $546 1 $546 0 $322 $-1 forward 7 unknown #
vertex $-1 $323 $547 #
ellipse-curve $-1 52.785681800811822 1.9767959678868579 9.215957883442794 0.69465837861970381 0 0.71933979245794832 1.0790096886869225 0 -1.0419875679295556 1 I I #
point $-1 55.76642135567176 1.9767959678868579 10.143269195866765 #
plane-surface $-1 0 0 16.70753318846381 0 0 1 1 0 0 forward_v I I I I #
coedge $-1 $469 $468 $461 $548 forward $327 $-1 #
coedge $-1 $461 $329 $331 $465 reversed $219 $-1 #
coedge $-1 $329 $460 $459 $548 reversed $219 $-1 #
coedge $-1 $337 $332 $329 $463 forward $338 $-1 #
edge $-1 $466 20.256881991714224 $549 31.693851009806025 $462 $550 forward 7 unknown #
coedge $-1 $331 $330 $469 $551 reversed $138 $-1 #
edge $-1 $552 -120.8117923520615 $466 -104.91253425734072 $460 $553 forward 7 unknown #
vertex $-1 $333 $554 #
straight-curve $-1 48.96892715793895 16.310741597533081 16.707533188463813 0 -1 0 I I #
coedge $-1 $459 $334 $337 $473 reversed $327 $-1 #
coedge $-1 $334 $459 $464 $551 forward $327 $-1 #
vertex $-1 $335 $555 #
straight-curve $-1 60.405896176030765 38.470725185373432 88.245316884778475 0 0 1 I I #
straight-curve $-1 -26.498833460973913 38.470725185373432 89.585904132552258 0.71933979245794832 0 -0.69465837861970381 I I #
edge $-1 $549 26.772241204758892 $339 38.470725185373432 $468 $556 forward 7 unknown #
point $-1 60.405896176030765 38.470725185373432 16.70753318846381 #
point $-1 48.968927157938964 38.470725185373432 16.707533188463813 #
edge $-1 $557 1 $557 0 $342 $-1 forward 7 unknown #
vertex $-1 $343 $558 #
ellipse-curve $-1 52.785681800811822 30.114665199220184 9.215957883442794 0.69465837861970381 0 0.71933979245794832 1.0790096886869225 0 -1.0419875679295556 1 I I #
point $-1 55.76642135567176 30.114665199220184 10.143269195866765 #
edge $-1 $559 1 $559 0 $346 $-1 forward 7 unknown #
vertex $-1 $347 $560 #
ellipse-curve $-1 52.785681800811822 35.128301190912126 9.215957883442794 0.69465837861970381 0 0.71933979245794832 1.0790096886869225 0 -1.0419875679295556 1 I I #
point $-1 55.76642135567176 35.128301190912126 10.143269195866765 #
plane-surface $-1 60.405896176030765 0 0 -1 0 0 0 0 1 forward_v I I I I #
coedge $-1 $355 $353 $357 $489 reversed $241 $-1 #
edge $-1 $368 -16.70753318846381 $491 16.70753318846381 $367 $561 forward 7 unknown #
vertex $-1 $489 $562 #
straight-curve $-1 -60.405896176030765 -41.900864106723333 0 0 0 -1 I I #
edge $-1 $487 -41.900864106723333 $491 41.900864106723333 $485 $563 forward 7 unknown #
straight-curve $-1 0 -41.900864106723333 -16.70753318846381 -1 0 0 I I #
vertex $-1 $360 $564 #
straight-curve $-1 0 41.900864106723333 -16.70753318846381 1 0 0 I I #
point $-1 60.405896176030765 41.900864106723333 -16.70753318846381 #
point $-1 60.405896176030765 -41.900864106723333 -16.70753318846381 #
straight-curve $-1 -60.405896176030765 0 16.70753318846381 0 -1 0 I I #
point $-1 -60.405896176030765 41.900864106723333 16.70753318846381 #
point $-1 -60.405896176030765 -41.900864106723333 16.70753318846381 #
straight-curve $-1 60.405896176030765 -41.900864106723333 0 0 0 -1 I I #
straight-curve $-1 60.405896176030765 41.900864106723333 0 0 0 -1 I I #
loop $-1 $-1 $383 $377 #
plane-surface $-1 0 -41.900864106723333 0 0 1 0 0 0 1 forward_v I I I I #
coedge $-1 $394 $385 $381 $504 forward $378 $-1 #
edge $-1 $508 -25.325111495210699 $389 -7.8263937278145654 $380 $565 forward 7 unknown #
edge $-1 $390 7.8263937278145654 $507 25.325111495210699 $502 $566 forward 7 unknown #
coedge $-1 $392 $383 $397 $517 reversed $500 $-1 #
coedge $-1 $383 $392 $394 $515 reversed $500 $-1 #
vertex $-1 $515 $567 #
vertex $-1 $384 $568 #
straight-curve $-1 -39.730462187423363 -41.900864106723333 0 0 0 1 I I #
straight-curve $-1 -21.816550840273514 -24.402146339327199 -16.70753318846381 1 0 0 I I #
straight-curve $-1 -21.816550840273514 -24.402146339327199 16.70753318846381 -1 0 0 I I #
point $-1 -39.730462187423363 -24.402146339327199 16.70753318846381 #
point $-1 -39.730462187423363 -24.402146339327199 -16.70753318846381 #
straight-curve $-1 -47.535741173670694 -41.900864106723333 0 0 0 -1 I I #
edge $-1 $507 39.730462187423363 $395 47.535741173670694 $506 $569 forward 7 unknown #
point $-1 -47.535741173670694 -41.900864106723333 -16.70753318846381 #
edge $-1 $398 -47.535741173670694 $508 -39.730462187423363 $505 $570 forward 7 unknown #
point $-1 -47.535741173670694 -41.900864106723333 16.70753318846381 #
edge $-1 $520 27.132840460890424 $523 32.188949522485913 $403 $571 forward 7 unknown #
vertex $-1 $417 $572 #
straight-curve $-1 -77.147146849282791 36.137365100042096 16.707533188463806 -1 0 0 I I #
edge $-1 $523 -21.625081170118015 $414 -7.3994866897301463 $413 $573 forward 7 unknown #
vertex $-1 $522 $574 #
straight-curve $-1 -60.405896176030765 36.137365100042096 11.651424126868321 0.62932038083071107 0 0.77714596973225614 I I #
point $-1 -56.311539897941692 36.137365100042096 16.70753318846381 #
point $-1 -60.405896176030765 21.911770619654227 11.651424126868321 #
straight-curve $-1 -60.405896176030765 0 16.70753318846381 0 -1 0 I I #
vertex $-1 $420 $575 #
point $-1 -56.505986280176664 24.7568895157318 13.96592565573809 #
vertex $-1 $424 $576 #
point $-1 -56.505986280176664 29.024567859848162 13.96592565573809 #
vertex $-1 $428 $577 #
point $-1 -56.505986280176664 33.292246203964524 13.96592565573809 #
coedge $-1 $443 $442 $435 $535 forward $432 $-1 #
edge $-1 $536 71.537783696314662 $539 82.582336545649596 $534 $578 forward 7 unknown #
vertex $-1 $447 $579 #
straight-curve $-1 28.71204516622474 -6.3792640182663831 16.707533188463813 1 0 0 I I #
edge $-1 $539 -6.1142530042868266 $444 5.5842309763277136 $443 $580 forward 7 unknown #
vertex $-1 $538 $581 #
straight-curve $-1 -26.498833460973913 -6.3792640182663831 89.585904132552258 -0.71933979245794832 0 0.69465837861970381 I I #
point $-1 48.968927157938964 -6.3792640182663831 16.707533188463813 #
point $-1 60.405896176030765 5.3192199623481571 5.6629803391288789 #
straight-curve $-1 60.405896176030765 0 16.70753318846381 0 1 0 I I #
vertex $-1 $450 $582 #
point $-1 53.864691489498746 -3.0368400238050839 8.1739703155132375 #
vertex $-1 $454 $583 #
point $-1 53.864691489498746 1.9767959678868579 8.1739703155132375 #
edge $-1 $549 71.537783696314662 $552 82.582336545649596 $459 $584 forward 7 unknown #
vertex $-1 $473 $585 #
straight-curve $-1 28.71204516622474 26.772241204758892 16.707533188463813 1 0 0 I I #
edge $-1 $552 10.461499607225811 $470 22.159983587840351 $469 $586 forward 7 unknown #
vertex $-1 $551 $587 #
straight-curve $-1 -26.498833460973913 26.772241204758892 89.585904132552258 -0.71933979245794832 0 0.69465837861970381 I I #
point $-1 48.968927157938964 26.772241204758892 16.707533188463813 #
point $-1 60.405896176030765 38.470725185373432 5.6629803391288789 #
straight-curve $-1 60.405896176030765 0 16.70753318846381 0 1 0 I I #
vertex $-1 $476 $588 #
point $-1 53.864691489498746 30.114665199220184 8.1739703155132375 #
vertex $-1 $480 $589 #
point $-1 53.864691489498746 35.128301190912126 8.1739703155132375 #
straight-curve $-1 -60.405896176030765 41.900864106723333 0 0 0 -1 I I #
point $-1 -60.405896176030765 -41.900864106723333 -16.70753318846381 #
straight-curve $-1 -60.405896176030765 0 -16.70753318846381 0 1 0 I I #
point $-1 -60.405896176030765 41.900864106723333 -16.70753318846381 #
straight-curve $-1 -39.730462187423363 -16.575752611512634 16.70753318846381 0 1 0 I I #
straight-curve $-1 -39.730462187423363 -16.575752611512634 -16.70753318846381 0 -1 0 I I #
point $-1 -39.730462187423363 -41.900864106723333 -16.70753318846381 #
point $-1 -39.730462187423363 -41.900864106723333 16.70753318846381 #
straight-curve $-1 0 -41.900864106723333 -16.70753318846381 -1 0 0 I I #
straight-curve $-1 0 -41.900864106723333 16.70753318846381 1 0 0 I I #
straight-curve $-1 -60.405896176030765 36.137365100042096 43.840373649354234 0 0 -1 I I #
point $-1 -60.405896176030765 36.137365100042096 16.70753318846381 #
straight-curve $-1 -60.405896176030765 14.512283929924081 11.651424126868324 0 -1 0 I I #
point $-1 -60.405896176030765 36.137365100042096 11.651424126868321 #
point $-1 -56.358160691275117 24.7568895157318 12.559459305175121 #
point $-1 -56.358160691275117 29.024567859848162 12.559459305175121 #
point $-1 -56.358160691275117 33.292246203964524 12.559459305175121 #
straight-curve $-1 60.405896176030765 -6.3792640182663831 88.245316884778475 0 0 -1 I I #
point $-1 60.405896176030765 -6.3792640182663831 16.70753318846381 #
straight-curve $-1 60.405896176030765 -0.26501101397955651 5.6629803391288789 0 1 0 I I #
point $-1 60.405896176030765 -6.3792640182663831 5.6629803391288789 #
point $-1 51.74369423288227 -3.0368400238050839 8.1369481947558704 #
point $-1 51.74369423288227 1.9767959678868579 8.1369481947558704 #
straight-curve $-1 60.405896176030765 26.772241204758892 88.245316884778475 0 0 -1 I I #
point $-1 60.405896176030765 26.772241204758892 16.70753318846381 #
straight-curve $-1 60.405896176030765 16.310741597533081 5.6629803391288789 0 1 0 I I #
point $-1 60.405896176030765 26.772241204758892 5.6629803391288789 #
point $-1 51.74369423288227 30.114665199220184 8.1369481947558704 #
point $-1 51.74369423288227 35.128301190912126 8.1369481947558704 #
End-of-ACIS-data 