500 0 8 0           
7 Unknown 11 ACIS 5.0 NT 24 Thu Mar 25 22:29:23 1999 
-1 9.9999999999999995e-007 1e-010 
body $-1 $8 $-1 $9 #
body $-1 $10 $-1 $11 #
body $-1 $12 $-1 $13 #
body $-1 $14 $-1 $15 #
body $-1 $16 $-1 $17 #
body $-1 $18 $-1 $19 #
body $-1 $20 $-1 $21 #
body $-1 $22 $-1 $23 #
lump $-1 $-1 $24 $0 #
transform $-1 1 0 0 0 1 0 0 0 1 67.552110354930264 45.301166348100281 12.213217673852286 1 rotate no_reflect no_shear #
lump $-1 $-1 $25 $1 #
transform $-1 1 0 0 0 1 0 0 0 1 67.552110354930264 45.301166348100281 12.213217673852286 1 rotate no_reflect no_shear #
lump $-1 $-1 $26 $2 #
transform $-1 1 0 0 0 1 0 0 0 1 67.552110354930264 45.301166348100281 12.213217673852286 1 rotate no_reflect no_shear #
lump $-1 $-1 $27 $3 #
transform $-1 1 0 0 0 1 0 0 0 1 67.552110354930264 45.301166348100281 12.213217673852286 1 rotate no_reflect no_shear #
lump $-1 $-1 $28 $4 #
transform $-1 1 0 0 0 1 0 0 0 1 67.552110354930264 45.301166348100281 12.213217673852286 1 rotate no_reflect no_shear #
lump $-1 $-1 $29 $5 #
transform $-1 1 0 0 0 1 0 0 0 1 67.552110354930264 45.301166348100281 12.213217673852286 1 rotate no_reflect no_shear #
lump $-1 $-1 $30 $6 #
transform $-1 1 0 0 0 1 0 0 0 1 67.552110354930264 45.301166348100281 12.213217673852286 1 rotate no_reflect no_shear #
lump $-1 $-1 $31 $7 #
transform $-1 1 0 0 0 1 0 0 0 1 67.552110354930264 45.301166348100281 12.213217673852286 1 rotate no_reflect no_shear #
shell $-1 $-1 $-1 $32 $-1 $8 #
shell $-1 $-1 $-1 $33 $-1 $10 #
shell $-1 $-1 $-1 $34 $-1 $12 #
shell $-1 $-1 $-1 $35 $-1 $14 #
shell $-1 $-1 $-1 $36 $-1 $16 #
shell $-1 $-1 $-1 $37 $-1 $18 #
shell $-1 $-1 $-1 $38 $-1 $20 #
shell $-1 $-1 $-1 $39 $-1 $22 #
face $-1 $40 $41 $24 $-1 $42 forward single #
face $-1 $43 $44 $25 $-1 $45 reversed single #
face $-1 $46 $47 $26 $-1 $48 reversed single #
face $-1 $49 $50 $27 $-1 $51 forward single #
face $-1 $52 $53 $28 $-1 $54 forward single #
face $-1 $55 $56 $29 $-1 $57 reversed single #
face $-1 $58 $59 $30 $-1 $60 forward single #
face $-1 $61 $62 $31 $-1 $63 forward single #
face $-1 $64 $65 $24 $-1 $66 reversed single #
loop $-1 $-1 $67 $32 #
plane-surface $-1 0 0 12.213217673852286 0 0 1 1 0 0 forward_v I I I I #
face $-1 $68 $69 $25 $-1 $70 reversed single #
loop $-1 $-1 $71 $33 #
plane-surface $-1 -60.404789411437456 0 5.2723290701063679 0 0 1 1 0 0 forward_v I I I I #
face $-1 $72 $73 $26 $-1 $74 reversed single #
loop $-1 $-1 $75 $34 #
plane-surface $-1 -31.270471693439365 -157.30764261817995 79.742743960230413 -1 0 0 0 -0.82903758062907751 0.55919289150049634 forward_v I I I I #
face $-1 $76 $77 $27 $-1 $78 forward single #
loop $-1 $79 $80 $35 #
cone-surface $-1 -46.975469389514565 -41.94193291378356 7.7618389064242486 0 0.82903758062907751 -0.55919289150049634 1 0 0 1 I I 0 1 1 forward I I I I #
face $-1 $81 $82 $28 $-1 $83 forward single #
loop $-1 $84 $85 $36 #
cone-surface $-1 -37.552470771869444 -41.94193291378356 7.7618389064242486 0 0.82903758062907751 -0.55919289150049634 1 0 0 1 I I 0 1 1 forward I I I I #
face $-1 $86 $87 $29 $-1 $88 reversed single #
loop $-1 $-1 $89 $37 #
plane-surface $-1 17.693852239329921 119.54110006727217 149.54598145066365 1 0 0 0 -0.87461971476443456 -0.48480960649040278 forward_v I I I I #
face $-1 $90 $91 $30 $-1 $92 forward single #
loop $-1 $93 $94 $38 #
cone-surface $-1 25.591568629153656 42.268443411470145 7.965667090338683 0 -0.87461971476443456 -0.48480960649040278 1 0 0 1 I I 0 1 1 forward I I I I #
face $-1 $95 $96 $31 $-1 $97 forward single #
loop $-1 $98 $99 $39 #
cone-surface $-1 37.438143213889262 42.268443411470145 7.965667090338683 0 -0.87461971476443456 -0.48480960649040278 1 0 0 1 I I 0 1 1 forward I I I I #
face $-1 $100 $101 $24 $-1 $102 reversed single #
loop $-1 $-1 $103 $40 #
plane-surface $-1 0 0 -12.213217673852286 0 0 1 1 0 0 forward_v I I I I #
coedge $-1 $104 $105 $106 $107 forward $41 $-1 #
face $-1 $108 $109 $25 $-1 $110 reversed single #
loop $-1 $-1 $111 $43 #
plane-surface $-1 -53.257468467944648 0 8.742773371979327 -1 0 0 0 0 1 forward_v I I I I #
coedge $-1 $112 $113 $111 $114 forward $44 $-1 #
face $-1 $115 $116 $26 $-1 $117 forward single #
loop $-1 $-1 $118 $46 #
plane-surface $-1 -42.263970080692005 -45.301166348100281 4.1934241275622668 0 -0.82903758062907751 0.55919289150049634 1 0 0 forward_v I I I I #
coedge $-1 $119 $120 $121 $122 reversed $47 $-1 #
face $-1 $-1 $123 $27 $-1 $124 forward single #
loop $-1 $125 $126 $49 #
cone-surface $-1 -46.975469389514565 -40.872890130058458 7.0407604663909691 0 0.82903758062907751 -0.55919289150049634 0.5 0 0 1 I I -0.70710678118654746 0.70710678118654746 0.5 forward I I I I #
loop $-1 $-1 $127 $35 #
coedge $-1 $80 $80 $128 $129 reversed $50 $-1 #
face $-1 $-1 $130 $28 $-1 $131 forward single #
loop $-1 $132 $133 $52 #
cone-surface $-1 -37.552470771869444 -40.872890130058458 7.0407604663909691 0 0.82903758062907751 -0.55919289150049634 0.5 0 0 1 I I -0.70710678118654746 0.70710678118654746 0.5 forward I I I I #
loop $-1 $-1 $134 $36 #
coedge $-1 $85 $85 $135 $136 reversed $53 $-1 #
face $-1 $137 $138 $29 $-1 $139 reversed single #
loop $-1 $-1 $140 $55 #
plane-surface $-1 31.514855921521459 1.3762850865427652 84.046157373123648 0 0.87461971476443456 0.48480960649040278 1 0 0 forward_v I I I I #
coedge $-1 $141 $142 $143 $144 reversed $56 $-1 #
face $-1 $-1 $145 $30 $-1 $146 forward single #
loop $-1 $147 $148 $58 #
cone-surface $-1 25.591568629153656 40.852027652811287 7.1805350438158637 0 -0.87461971476443456 -0.48480960649040278 0.5 0 0 1 I I -0.70710678118654746 0.70710678118654746 0.5 forward I I I I #
loop $-1 $-1 $149 $38 #
coedge $-1 $94 $94 $150 $151 reversed $59 $-1 #
face $-1 $-1 $152 $31 $-1 $153 forward single #
loop $-1 $154 $155 $61 #
cone-surface $-1 37.438143213889262 40.852027652811287 7.1805350438158637 0 -0.87461971476443456 -0.48480960649040278 0.5 0 0 1 I I -0.70710678118654746 0.70710678118654746 0.5 forward I I I I #
loop $-1 $-1 $156 $39 #
coedge $-1 $99 $99 $157 $158 reversed $62 $-1 #
face $-1 $159 $160 $24 $-1 $161 reversed single #
loop $-1 $-1 $162 $64 #
plane-surface $-1 0 -45.301166348100281 0 0 1 0 0 0 1 forward_v I I I I #
coedge $-1 $163 $164 $165 $166 forward $65 $-1 #
coedge $-1 $167 $67 $168 $169 forward $41 $-1 #
coedge $-1 $67 $167 $170 $171 forward $41 $-1 #
coedge $-1 $172 $173 $67 $107 reversed $174 $-1 #
edge $-1 $175 -45.301166348100281 $176 45.301166348100281 $106 $177 forward 7 unknown #
face $-1 $178 $179 $25 $-1 $180 reversed single #
loop $-1 $-1 $181 $68 #
plane-surface $-1 0 45.301166348100281 0 0 -1 0 0 0 -1 forward_v I I I I #
coedge $-1 $182 $183 $71 $114 reversed $69 $-1 #
coedge $-1 $184 $71 $185 $186 reversed $44 $-1 #
coedge $-1 $71 $184 $187 $188 reversed $44 $-1 #
edge $-1 $189 -45.301166348100281 $190 45.301166348100281 $111 $191 forward 7 unknown #
face $-1 $192 $193 $26 $-1 $194 forward single #
loop $-1 $-1 $195 $72 #
plane-surface $-1 -53.257468467944648 0 8.742773371979327 -1 0 0 0 0 1 forward_v I I I I #
coedge $-1 $196 $197 $198 $199 reversed $73 $-1 #
coedge $-1 $120 $75 $200 $201 reversed $47 $-1 #
coedge $-1 $75 $119 $196 $202 reversed $47 $-1 #
coedge $-1 $198 $203 $75 $122 forward $193 $-1 #
edge $-1 $204 33.352654960989696 $205 38.762073842802018 $121 $206 forward 7 unknown #
loop $-1 $-1 $128 $76 #
plane-surface $-1 -42.263970080692005 -45.301166348100281 4.1934241275622668 0 -0.82903758062907751 0.55919289150049634 1 0 0 forward_v I I I I #
loop $-1 $-1 $207 $49 #
coedge $-1 $126 $126 $127 $208 reversed $77 $-1 #
coedge $-1 $127 $127 $126 $208 forward $79 $-1 #
coedge $-1 $128 $128 $80 $129 forward $123 $-1 #
edge $-1 $209 -1.0279713165030387e-015 $209 6.2831853071795996 $128 $210 forward 7 unknown #
loop $-1 $-1 $135 $81 #
plane-surface $-1 -42.263970080692005 -45.301166348100281 4.1934241275622668 0 -0.82903758062907751 0.55919289150049634 1 0 0 forward_v I I I I #
loop $-1 $-1 $211 $52 #
coedge $-1 $133 $133 $134 $212 reversed $82 $-1 #
coedge $-1 $134 $134 $133 $212 forward $84 $-1 #
coedge $-1 $135 $135 $85 $136 forward $130 $-1 #
edge $-1 $213 -1.0279713165030387e-015 $213 6.2831853071795996 $135 $214 forward 7 unknown #
face $-1 $215 $216 $29 $-1 $217 forward single #
loop $-1 $-1 $218 $86 #
plane-surface $-1 45.335859603712997 119.54110006727217 149.54598145066365 -1 0 0 0 0.87461971476443456 0.48480960649040278 forward_v I I I I #
coedge $-1 $219 $220 $221 $222 reversed $87 $-1 #
coedge $-1 $142 $89 $223 $224 reversed $56 $-1 #
coedge $-1 $89 $141 $219 $225 reversed $56 $-1 #
coedge $-1 $221 $226 $89 $144 forward $216 $-1 #
edge $-1 $227 14.469383685535803 $228 18.576617756242783 $143 $229 forward 7 unknown #
loop $-1 $-1 $150 $90 #
plane-surface $-1 31.514855921521459 1.3762850865427652 84.046157373123648 0 0.87461971476443456 0.48480960649040278 1 0 0 forward_v I I I I #
loop $-1 $-1 $230 $58 #
coedge $-1 $148 $148 $149 $231 reversed $91 $-1 #
coedge $-1 $149 $149 $148 $231 forward $93 $-1 #
coedge $-1 $150 $150 $94 $151 forward $145 $-1 #
edge $-1 $232 -6.7501203358497052e-016 $232 6.2831853071795996 $150 $233 forward 7 unknown #
loop $-1 $-1 $157 $95 #
plane-surface $-1 31.514855921521459 1.3762850865427652 84.046157373123648 0 0.87461971476443456 0.48480960649040278 1 0 0 forward_v I I I I #
loop $-1 $-1 $234 $61 #
coedge $-1 $155 $155 $156 $235 reversed $96 $-1 #
coedge $-1 $156 $156 $155 $235 forward $98 $-1 #
coedge $-1 $157 $157 $99 $158 forward $152 $-1 #
edge $-1 $236 -6.7501203358497052e-016 $236 6.2831853071795996 $157 $237 forward 7 unknown #
face $-1 $238 $239 $24 $-1 $240 reversed single #
loop $-1 $-1 $241 $100 #
plane-surface $-1 -67.552110354930264 0 0 1 0 0 0 0 -1 forward_v I I I I #
coedge $-1 $242 $170 $243 $244 forward $101 $-1 #
coedge $-1 $245 $103 $242 $246 forward $65 $-1 #
coedge $-1 $103 $245 $247 $248 forward $65 $-1 #
coedge $-1 $173 $172 $103 $166 reversed $174 $-1 #
edge $-1 $249 -45.301166348100281 $250 45.301166348100281 $165 $251 forward 7 unknown #
coedge $-1 $105 $104 $252 $253 forward $41 $-1 #
coedge $-1 $254 $255 $104 $169 reversed $239 $-1 #
edge $-1 $176 -67.552110354930264 $256 67.552110354930264 $168 $257 forward 7 unknown #
coedge $-1 $162 $258 $105 $171 reversed $101 $-1 #
edge $-1 $259 -67.552110354930264 $175 67.552110354930264 $170 $260 forward 7 unknown #
coedge $-1 $165 $106 $258 $261 forward $174 $-1 #
coedge $-1 $106 $165 $254 $262 reversed $174 $-1 #
loop $-1 $-1 $172 $238 #
vertex $-1 $107 $263 #
vertex $-1 $107 $264 #
straight-curve $-1 67.552110354930264 0 12.213217673852286 0 1 0 I I #
face $-1 $265 $266 $25 $-1 $267 forward single #
loop $-1 $-1 $268 $108 #
plane-surface $-1 -67.552110354930264 0 0 1 0 0 0 0 -1 forward_v I I I I #
coedge $-1 $187 $269 $182 $270 forward $109 $-1 #
coedge $-1 $271 $111 $181 $270 reversed $69 $-1 #
coedge $-1 $111 $271 $272 $273 reversed $69 $-1 #
coedge $-1 $113 $112 $268 $274 reversed $44 $-1 #
coedge $-1 $272 $275 $112 $186 forward $276 $-1 #
edge $-1 $277 -37.349715649211532 $190 -23.05507376222592 $185 $278 forward 7 unknown #
coedge $-1 $279 $181 $113 $188 forward $109 $-1 #
edge $-1 $189 23.05507376222592 $280 37.349715649211532 $187 $281 forward 7 unknown #
vertex $-1 $188 $282 #
vertex $-1 $186 $283 #
straight-curve $-1 -53.257468467944648 0 5.2723290701063679 0 -1 0 I I #
face $-1 $-1 $284 $26 $-1 $285 reversed single #
loop $-1 $-1 $198 $115 #
plane-surface $-1 0 0 12.213217673852286 0 0 1 1 0 0 forward_v I I I I #
coedge $-1 $286 $287 $197 $288 reversed $116 $-1 #
coedge $-1 $289 $118 $120 $202 forward $73 $-1 #
coedge $-1 $118 $289 $195 $288 forward $73 $-1 #
coedge $-1 $290 $121 $118 $199 forward $193 $-1 #
edge $-1 $205 10.138486653093363 $291 32.125483427598645 $198 $292 forward 7 unknown #
coedge $-1 $293 $294 $119 $201 forward $284 $-1 #
edge $-1 $295 -35.67794785255294 $204 -27.658154306262922 $200 $296 forward 7 unknown #
edge $-1 $205 -9.6736188246189805 $295 0 $120 $297 forward 7 unknown #
coedge $-1 $121 $290 $293 $298 forward $193 $-1 #
vertex $-1 $201 $299 #
vertex $-1 $122 $300 #
straight-curve $-1 -31.270471693439365 -78.653821309089977 12.213217673852284 0 1 0 I I #
coedge $-1 $207 $207 $-1 $301 reversed $125 $-1 #
edge $-1 $302 0 $302 6.2831853071796004 $126 $303 forward 7 unknown #
vertex $-1 $129 $304 #
ellipse-curve $-1 -46.975469389514565 -42.596456907194117 8.2033209007072774 0 -0.82903758062907751 0.55919289150049634 1 0 0 1 I I #
coedge $-1 $211 $211 $-1 $305 reversed $132 $-1 #
edge $-1 $306 0 $306 6.2831853071796004 $133 $307 forward 7 unknown #
vertex $-1 $136 $308 #
ellipse-curve $-1 -37.552470771869444 -42.596456907194117 8.2033209007072774 0 -0.82903758062907751 0.55919289150049634 1 0 0 1 I I #
face $-1 $-1 $309 $29 $-1 $310 reversed single #
loop $-1 $-1 $143 $137 #
plane-surface $-1 0 0 12.213217673852286 0 0 1 1 0 0 forward_v I I I I #
coedge $-1 $311 $312 $313 $314 reversed $138 $-1 #
coedge $-1 $315 $140 $142 $225 forward $87 $-1 #
coedge $-1 $140 $315 $311 $316 forward $87 $-1 #
coedge $-1 $313 $143 $140 $222 forward $216 $-1 #
edge $-1 $228 1.9364242785691914 $317 29.578431642952268 $221 $318 forward 7 unknown #
coedge $-1 $319 $320 $141 $224 forward $309 $-1 #
edge $-1 $321 -69.969419731951447 $227 -62.559773051479539 $223 $322 forward 7 unknown #
edge $-1 $228 82.130483096437487 $321 90.602332696200492 $142 $323 forward 7 unknown #
coedge $-1 $143 $313 $319 $324 forward $216 $-1 #
vertex $-1 $224 $325 #
vertex $-1 $144 $326 #
straight-curve $-1 17.693852239329921 59.770550033636084 12.213217673852284 0 -1 0 I I #
coedge $-1 $230 $230 $-1 $327 reversed $147 $-1 #
edge $-1 $328 0 $328 6.2831853071796004 $148 $329 forward 7 unknown #
vertex $-1 $151 $330 #
ellipse-curve $-1 25.591568629153656 43.247549312746798 8.5083943336163088 0 0.87461971476443456 0.48480960649040278 1 0 0 1 I I #
coedge $-1 $234 $234 $-1 $331 reversed $154 $-1 #
edge $-1 $332 0 $332 6.2831853071796004 $155 $333 forward 7 unknown #
vertex $-1 $158 $334 #
ellipse-curve $-1 37.438143213889262 43.247549312746798 8.5083943336163088 0 0.87461971476443456 0.48480960649040278 1 0 0 1 I I #
face $-1 $-1 $174 $24 $-1 $335 reversed single #
loop $-1 $-1 $254 $159 #
plane-surface $-1 0 45.301166348100281 0 0 -1 0 0 0 -1 forward_v I I I I #
coedge $-1 $336 $252 $255 $337 forward $160 $-1 #
coedge $-1 $258 $162 $163 $246 reversed $101 $-1 #
coedge $-1 $252 $336 $162 $244 reversed $160 $-1 #
edge $-1 $259 -12.213217673852286 $338 12.213217673852286 $243 $339 forward 7 unknown #
coedge $-1 $164 $163 $336 $340 forward $65 $-1 #
edge $-1 $250 -67.552110354930264 $338 67.552110354930264 $242 $341 forward 7 unknown #
coedge $-1 $255 $254 $164 $248 reversed $239 $-1 #
edge $-1 $342 -67.552110354930264 $249 67.552110354930264 $247 $343 forward 7 unknown #
vertex $-1 $166 $344 #
vertex $-1 $261 $345 #
straight-curve $-1 67.552110354930264 0 -12.213217673852286 0 -1 0 I I #
coedge $-1 $241 $243 $167 $253 reversed $160 $-1 #
edge $-1 $256 -45.301166348100281 $259 45.301166348100281 $252 $346 forward 7 unknown #
coedge $-1 $247 $168 $173 $262 forward $239 $-1 #
coedge $-1 $168 $247 $241 $337 reversed $239 $-1 #
vertex $-1 $169 $347 #
straight-curve $-1 0 45.301166348100281 12.213217673852286 -1 0 0 I I #
coedge $-1 $170 $242 $172 $261 reversed $101 $-1 #
vertex $-1 $253 $348 #
straight-curve $-1 0 -45.301166348100281 12.213217673852286 1 0 0 I I #
edge $-1 $175 -12.213217673852286 $250 12.213217673852286 $172 $349 forward 7 unknown #
edge $-1 $176 -12.213217673852286 $249 12.213217673852286 $173 $350 forward 7 unknown #
point $-1 67.552110354930264 -45.301166348100281 12.213217673852286 #
point $-1 67.552110354930264 45.301166348100281 12.213217673852286 #
face $-1 $-1 $276 $25 $-1 $351 reversed single #
loop $-1 $-1 $352 $178 #
plane-surface $-1 0 0 12.213217673852286 0 0 1 1 0 0 forward_v I I I I #
coedge $-1 $353 $354 $184 $274 forward $179 $-1 #
coedge $-1 $181 $279 $355 $356 reversed $109 $-1 #
edge $-1 $357 -7.8418309878626227 $189 -0.90094238411670435 $181 $358 forward 7 unknown #
coedge $-1 $183 $182 $352 $359 reversed $69 $-1 #
coedge $-1 $360 $185 $183 $273 forward $276 $-1 #
edge $-1 $190 0.90094238411670435 $361 7.8418309878626227 $272 $362 forward 7 unknown #
edge $-1 $280 -45.301166348100281 $277 45.301166348100281 $268 $363 forward 7 unknown #
coedge $-1 $185 $360 $353 $364 forward $276 $-1 #
loop $-1 $-1 $272 $265 #
vertex $-1 $274 $365 #
straight-curve $-1 -30.202394705718728 -45.301166348100281 5.2723290701063679 1 0 0 I I #
coedge $-1 $269 $187 $354 $366 reversed $109 $-1 #
vertex $-1 $274 $367 #
straight-curve $-1 -30.202394705718728 45.301166348100281 5.2723290701063679 -1 0 0 I I #
point $-1 -53.257468467944648 45.301166348100281 5.2723290701063679 #
point $-1 -53.257468467944648 -45.301166348100281 5.2723290701063679 #
loop $-1 $-1 $200 $192 #
plane-surface $-1 0 -45.301166348100281 0 0 1 0 0 0 1 forward_v I I I I #
coedge $-1 $287 $195 $368 $369 reversed $116 $-1 #
coedge $-1 $195 $286 $290 $370 reversed $116 $-1 #
edge $-1 $371 0 $291 9.6736188246189805 $195 $372 forward 7 unknown #
coedge $-1 $197 $196 $294 $373 reversed $73 $-1 #
coedge $-1 $203 $198 $287 $370 forward $193 $-1 #
vertex $-1 $370 $374 #
straight-curve $-1 -21.131985040346002 -39.89174746628796 12.213217673852286 -1 0 0 I I #
coedge $-1 $368 $200 $203 $298 reversed $284 $-1 #
coedge $-1 $200 $368 $289 $373 forward $284 $-1 #
vertex $-1 $201 $375 #
straight-curve $-1 -31.270471693439365 -45.301166348100281 39.871371980115207 0 0 1 I I #
straight-curve $-1 -31.270471693439365 -45.301166348100281 4.1934241275622668 0 -0.55919289150049634 -0.82903758062907751 I I #
edge $-1 $376 -53.257468467944648 $204 -31.270471693439365 $293 $377 forward 7 unknown #
point $-1 -31.270471693439365 -45.301166348100281 12.213217673852286 #
point $-1 -31.270471693439365 -39.89174746628796 12.213217673852286 #
edge $-1 $378 1 $378 0 $207 $-1 forward 7 unknown #
vertex $-1 $208 $379 #
ellipse-curve $-1 -46.975469389514565 -41.287408920372997 7.3203569121412171 0 -0.82903758062907751 0.55919289150049634 1 0 0 1 I I #
point $-1 -45.975469389514565 -42.596456907194124 8.2033209007072809 #
edge $-1 $380 1 $380 0 $211 $-1 forward 7 unknown #
vertex $-1 $212 $381 #
ellipse-curve $-1 -37.552470771869444 -41.287408920372997 7.3203569121412171 0 -0.82903758062907751 0.55919289150049634 1 0 0 1 I I #
point $-1 -36.552470771869444 -42.596456907194124 8.2033209007072809 #
loop $-1 $-1 $223 $215 #
plane-surface $-1 0 45.301166348100281 0 0 -1 0 0 0 -1 forward_v I I I I #
coedge $-1 $312 $218 $220 $316 reversed $138 $-1 #
coedge $-1 $218 $311 $382 $383 reversed $138 $-1 #
coedge $-1 $226 $221 $218 $314 forward $216 $-1 #
edge $-1 $317 -18.576617756242783 $384 -14.469383685535803 $313 $385 forward 7 unknown #
coedge $-1 $220 $219 $320 $386 reversed $87 $-1 #
edge $-1 $387 -90.602332696200492 $317 -82.130483096437487 $311 $388 forward 7 unknown #
vertex $-1 $222 $389 #
straight-curve $-1 15.757427960760729 41.193932277393294 12.213217673852292 1 0 0 I I #
coedge $-1 $382 $223 $226 $324 reversed $309 $-1 #
coedge $-1 $223 $382 $315 $386 forward $309 $-1 #
vertex $-1 $224 $390 #
straight-curve $-1 17.693852239329921 45.301166348100281 74.772990725331823 0 0 1 I I #
straight-curve $-1 17.693852239329921 1.3762850865427652 84.046157373123648 0 0.48480960649040278 -0.87461971476443456 I I #
edge $-1 $384 -45.335859603712997 $227 -17.693852239329921 $319 $391 forward 7 unknown #
point $-1 17.693852239329921 45.301166348100281 12.213217673852286 #
point $-1 17.693852239329921 41.193932277393301 12.213217673852284 #
edge $-1 $392 1 $392 0 $230 $-1 forward 7 unknown #
vertex $-1 $231 $393 #
ellipse-curve $-1 25.591568629153656 41.289337510193505 7.4229398470610652 0 0.87461971476443456 0.48480960649040278 1 0 0 1 I I #
point $-1 26.591568629153656 43.247549312746784 8.5083943336163017 #
edge $-1 $394 1 $394 0 $234 $-1 forward 7 unknown #
vertex $-1 $235 $395 #
ellipse-curve $-1 37.438143213889262 41.289337510193505 7.4229398470610652 0 0.87461971476443456 0.48480960649040278 1 0 0 1 I I #
point $-1 38.438143213889262 43.247549312746784 8.5083943336163017 #
plane-surface $-1 67.552110354930264 0 0 -1 0 0 0 0 1 forward_v I I I I #
coedge $-1 $243 $241 $245 $340 reversed $160 $-1 #
edge $-1 $256 -12.213217673852286 $342 12.213217673852286 $255 $396 forward 7 unknown #
vertex $-1 $340 $397 #
straight-curve $-1 -67.552110354930264 -45.301166348100281 0 0 0 -1 I I #
edge $-1 $338 -45.301166348100281 $342 45.301166348100281 $336 $398 forward 7 unknown #
straight-curve $-1 0 -45.301166348100281 -12.213217673852286 -1 0 0 I I #
vertex $-1 $248 $399 #
straight-curve $-1 0 45.301166348100281 -12.213217673852286 1 0 0 I I #
point $-1 67.552110354930264 45.301166348100281 -12.213217673852286 #
point $-1 67.552110354930264 -45.301166348100281 -12.213217673852286 #
straight-curve $-1 -67.552110354930264 0 12.213217673852286 0 -1 0 I I #
point $-1 -67.552110354930264 45.301166348100281 12.213217673852286 #
point $-1 -67.552110354930264 -45.301166348100281 12.213217673852286 #
straight-curve $-1 67.552110354930264 -45.301166348100281 0 0 0 -1 I I #
straight-curve $-1 67.552110354930264 45.301166348100281 0 0 0 -1 I I #
plane-surface $-1 0 -45.301166348100281 0 0 1 0 0 0 1 forward_v I I I I #
coedge $-1 $355 $400 $271 $359 forward $266 $-1 #
coedge $-1 $401 $268 $275 $364 reversed $179 $-1 #
coedge $-1 $268 $401 $279 $366 forward $179 $-1 #
coedge $-1 $402 $352 $269 $356 forward $266 $-1 #
edge $-1 $357 53.257468467944648 $403 67.552110354930264 $269 $404 forward 7 unknown #
vertex $-1 $356 $405 #
straight-curve $-1 -53.257468467944648 45.301166348100281 4.3713866859896635 0 0 -1 I I #
edge $-1 $361 -45.301166348100281 $357 45.301166348100281 $352 $406 forward 7 unknown #
coedge $-1 $275 $272 $400 $407 reversed $276 $-1 #
vertex $-1 $273 $408 #
straight-curve $-1 -53.257468467944648 -45.301166348100281 4.3713866859896635 0 0 1 I I #
straight-curve $-1 -67.552110354930264 0 5.2723290701063679 0 -1 0 I I #
edge $-1 $409 -12.213217673852286 $277 -5.2723290701063679 $353 $410 forward 7 unknown #
point $-1 -67.552110354930264 -45.301166348100281 5.2723290701063679 #
edge $-1 $403 -12.213217673852286 $280 -5.2723290701063679 $279 $411 forward 7 unknown #
point $-1 -67.552110354930264 45.301166348100281 5.2723290701063679 #
coedge $-1 $294 $293 $286 $369 forward $284 $-1 #
edge $-1 $376 27.658154306262922 $371 35.67794785255294 $368 $412 forward 7 unknown #
edge $-1 $291 39.89174746628796 $376 45.301166348100281 $290 $413 forward 7 unknown #
vertex $-1 $369 $414 #
straight-curve $-1 -53.257468467944648 -45.301166348100281 4.1934241275622668 0 0.55919289150049634 0.82903758062907751 I I #
edge $-1 $371 -32.125483427598645 $295 -10.138486653093363 $294 $415 forward 7 unknown #
point $-1 -53.257468467944648 -39.89174746628796 12.213217673852286 #
point $-1 -31.270471693439365 -45.301166348100281 4.1934241275622668 #
vertex $-1 $298 $416 #
straight-curve $-1 0 -45.301166348100281 12.213217673852286 1 0 0 I I #
vertex $-1 $301 $417 #
point $-1 -45.975469389514565 -41.287408920372997 7.3203569121412171 #
vertex $-1 $305 $418 #
point $-1 -36.552470771869444 -41.287408920372997 7.3203569121412171 #
coedge $-1 $320 $319 $312 $383 forward $309 $-1 #
edge $-1 $384 62.559773051479539 $387 69.969419731951447 $382 $419 forward 7 unknown #
vertex $-1 $324 $420 #
straight-curve $-1 45.335859603712997 59.770550033636084 12.213217673852284 0 1 0 I I #
edge $-1 $387 -29.578431642952268 $321 -1.9364242785691914 $320 $421 forward 7 unknown #
vertex $-1 $386 $422 #
straight-curve $-1 45.335859603712997 1.3762850865427652 84.046157373123648 0 -0.48480960649040278 0.87461971476443456 I I #
point $-1 45.335859603712997 41.193932277393301 12.213217673852284 #
point $-1 17.693852239329921 45.301166348100281 4.8035709933803759 #
straight-curve $-1 0 45.301166348100281 12.213217673852286 -1 0 0 I I #
vertex $-1 $327 $423 #
point $-1 26.591568629153656 41.289337510193505 7.4229398470610652 #
vertex $-1 $331 $424 #
point $-1 38.438143213889262 41.289337510193505 7.4229398470610652 #
straight-curve $-1 -67.552110354930264 45.301166348100281 0 0 0 -1 I I #
point $-1 -67.552110354930264 -45.301166348100281 -12.213217673852286 #
straight-curve $-1 -67.552110354930264 0 -12.213217673852286 0 1 0 I I #
point $-1 -67.552110354930264 45.301166348100281 -12.213217673852286 #
coedge $-1 $352 $402 $360 $407 forward $266 $-1 #
coedge $-1 $354 $353 $402 $425 reversed $179 $-1 #
coedge $-1 $400 $355 $401 $425 forward $266 $-1 #
vertex $-1 $356 $426 #
straight-curve $-1 0 45.301166348100281 12.213217673852286 -1 0 0 I I #
point $-1 -53.257468467944648 45.301166348100281 12.213217673852286 #
straight-curve $-1 -53.257468467944648 0 12.213217673852286 0 1 0 I I #
edge $-1 $409 -67.552110354930264 $361 -53.257468467944648 $360 $427 forward 7 unknown #
point $-1 -53.257468467944648 -45.301166348100281 12.213217673852286 #
vertex $-1 $425 $428 #
straight-curve $-1 -67.552110354930264 -45.301166348100281 0 0 0 -1 I I #
straight-curve $-1 -67.552110354930264 45.301166348100281 0 0 0 -1 I I #
straight-curve $-1 -53.257468467944648 -45.301166348100281 39.871371980115207 0 0 -1 I I #
straight-curve $-1 -53.257468467944648 0 12.213217673852286 0 -1 0 I I #
point $-1 -53.257468467944648 -45.301166348100281 4.1934241275622668 #
straight-curve $-1 -21.131985040346002 -45.301166348100281 4.1934241275622712 1 0 0 I I #
point $-1 -53.257468467944648 -45.301166348100281 12.213217673852286 #
point $-1 -46.975469389514565 -40.45837133974392 6.7611640206407211 #
point $-1 -37.552470771869444 -40.45837133974392 6.7611640206407211 #
straight-curve $-1 45.335859603712997 45.301166348100281 74.772990725331823 0 0 -1 I I #
point $-1 45.335859603712997 45.301166348100281 12.213217673852286 #
straight-curve $-1 15.757427960760729 45.301166348100281 4.8035709933803616 -1 0 0 I I #
point $-1 45.335859603712997 45.301166348100281 4.8035709933803759 #
point $-1 25.591568629153656 40.41471779542907 6.9381302405706622 #
point $-1 37.438143213889262 40.41471779542907 6.9381302405706622 #
edge $-1 $403 -45.301166348100281 $409 45.301166348100281 $401 $429 forward 7 unknown #
point $-1 -67.552110354930264 45.301166348100281 12.213217673852286 #
straight-curve $-1 0 -45.301166348100281 12.213217673852286 1 0 0 I I #
point $-1 -67.552110354930264 -45.301166348100281 12.213217673852286 #
straight-curve $-1 -67.552110354930264 0 12.213217673852286 0 -1 0 I I #
End-of-ACIS-data 