500 0 10 0           
7 Unknown 11 ACIS 5.0 NT 24 Fri Mar 26 02:04:02 1999 
-1 9.9999999999999995e-007 1e-010 
body $-1 $10 $-1 $11 #
body $-1 $12 $-1 $13 #
body $-1 $14 $-1 $15 #
body $-1 $16 $-1 $17 #
body $-1 $18 $-1 $19 #
body $-1 $20 $-1 $21 #
body $-1 $22 $-1 $23 #
body $-1 $24 $-1 $25 #
body $-1 $26 $-1 $27 #
body $-1 $28 $-1 $29 #
lump $-1 $-1 $30 $0 #
transform $-1 1 0 0 0 1 0 0 0 1 76.810205389568779 31.032101229535488 9.7374144237140428 1 rotate no_reflect no_shear #
lump $-1 $-1 $31 $1 #
transform $-1 1 0 0 0 1 0 0 0 1 76.810205389568779 31.032101229535488 9.7374144237140428 1 rotate no_reflect no_shear #
lump $-1 $-1 $32 $2 #
transform $-1 1 0 0 0 1 0 0 0 1 76.810205389568779 31.032101229535488 9.7374144237140428 1 rotate no_reflect no_shear #
lump $-1 $-1 $33 $3 #
transform $-1 1 0 0 0 1 0 0 0 1 76.810205389568779 31.032101229535488 9.7374144237140428 1 rotate no_reflect no_shear #
lump $-1 $-1 $34 $4 #
transform $-1 1 0 0 0 1 0 0 0 1 76.810205389568779 31.032101229535488 9.7374144237140428 1 rotate no_reflect no_shear #
lump $-1 $-1 $35 $5 #
transform $-1 1 0 0 0 1 0 0 0 1 76.810205389568779 31.032101229535488 9.7374144237140428 1 rotate no_reflect no_shear #
lump $-1 $-1 $36 $6 #
transform $-1 1 0 0 0 1 0 0 0 1 76.810205389568779 31.032101229535488 9.7374144237140428 1 rotate no_reflect no_shear #
lump $-1 $-1 $37 $7 #
transform $-1 1 0 0 0 1 0 0 0 1 76.810205389568779 31.032101229535488 9.7374144237140428 1 rotate no_reflect no_shear #
lump $-1 $-1 $38 $8 #
transform $-1 1 0 0 0 1 0 0 0 1 76.810205389568779 31.032101229535488 9.7374144237140428 1 rotate no_reflect no_shear #
lump $-1 $-1 $39 $9 #
transform $-1 1 0 0 0 1 0 0 0 1 76.810205389568779 31.032101229535488 9.7374144237140428 1 rotate no_reflect no_shear #
shell $-1 $-1 $-1 $40 $-1 $10 #
shell $-1 $-1 $-1 $41 $-1 $12 #
shell $-1 $-1 $-1 $42 $-1 $14 #
shell $-1 $-1 $-1 $43 $-1 $16 #
shell $-1 $-1 $-1 $44 $-1 $18 #
shell $-1 $-1 $-1 $45 $-1 $20 #
shell $-1 $-1 $-1 $46 $-1 $22 #
shell $-1 $-1 $-1 $47 $-1 $24 #
shell $-1 $-1 $-1 $48 $-1 $26 #
shell $-1 $-1 $-1 $49 $-1 $28 #
face $-1 $50 $51 $30 $-1 $52 forward single #
face $-1 $53 $54 $31 $-1 $55 reversed single #
face $-1 $56 $57 $32 $-1 $58 reversed single #
face $-1 $59 $60 $33 $-1 $61 forward single #
face $-1 $62 $63 $34 $-1 $64 forward single #
face $-1 $65 $66 $35 $-1 $67 forward single #
face $-1 $68 $69 $36 $-1 $70 reversed single #
face $-1 $71 $72 $37 $-1 $73 forward single #
face $-1 $74 $75 $38 $-1 $76 forward single #
face $-1 $77 $78 $39 $-1 $79 forward single #
face $-1 $80 $81 $30 $-1 $82 reversed single #
loop $-1 $-1 $83 $40 #
plane-surface $-1 0 0 9.7374144237140428 0 0 1 1 0 0 forward_v I I I I #
face $-1 $84 $85 $31 $-1 $86 reversed single #
loop $-1 $-1 $87 $41 #
plane-surface $-1 0 -26.827105480319407 6.7374144237140428 0 0 1 1 0 0 forward_v I I I I #
face $-1 $88 $89 $32 $-1 $90 reversed single #
loop $-1 $-1 $91 $42 #
plane-surface $-1 -189.1610627267608 -5.0662441023673317 105.21752063783435 0 1 0 -0.73135370988377701 0 0.68199835119979291 forward_v I I I I #
face $-1 $92 $93 $33 $-1 $94 forward single #
loop $-1 $95 $96 $43 #
cone-surface $-1 -72.113573922012179 -3.3184015740185444 4.7520349241709408 0.73135370988377701 0 -0.68199835119979291 0.34099917559989645 0 0.36567685494188851 1 I I 0 1 0.5 forward I I I I #
face $-1 $97 $98 $34 $-1 $99 forward single #
loop $-1 $100 $101 $44 #
cone-surface $-1 -72.113573922012179 -0.69663778149536171 4.7520349241709408 0.73135370988377701 0 -0.68199835119979291 0.34099917559989645 0 0.36567685494188851 1 I I 0 1 0.5 forward I I I I #
face $-1 $102 $103 $35 $-1 $104 forward single #
loop $-1 $105 $106 $45 #
cone-surface $-1 -72.113573922012179 1.9251260110278245 4.7520349241709408 0.73135370988377701 0 -0.68199835119979291 0.34099917559989645 0 0.36567685494188851 1 I I 0 1 0.5 forward I I I I #
face $-1 $107 $108 $36 $-1 $109 reversed single #
loop $-1 $-1 $110 $46 #
plane-surface $-1 91.964946331510248 17.71202083660685 223.20612630833301 0 -1 0 -0.75470958851134928 0 -0.65605901945558964 forward_v I I I I #
face $-1 $111 $112 $37 $-1 $113 forward single #
loop $-1 $114 $115 $47 #
cone-surface $-1 75.018459743602236 10.221984610793424 7.7823143211991326 -0.75470958851134928 0 -0.65605901945558964 0.32802950972779482 0 -0.37735479425567464 1 I I 0 1 0.5 forward I I I I #
face $-1 $116 $117 $38 $-1 $118 forward single #
loop $-1 $119 $120 $48 #
cone-surface $-1 75.018459743602236 13.030748195473461 7.7823143211991326 -0.75470958851134928 0 -0.65605901945558964 0.32802950972779482 0 -0.37735479425567464 1 I I 0 1 0.5 forward I I I I #
face $-1 $121 $122 $39 $-1 $123 forward single #
loop $-1 $124 $125 $49 #
cone-surface $-1 75.018459743602236 15.839511780153497 7.7823143211991326 -0.75470958851134928 0 -0.65605901945558964 0.32802950972779482 0 -0.37735479425567464 1 I I 0 1 0.5 forward I I I I #
face $-1 $126 $127 $30 $-1 $128 reversed single #
loop $-1 $-1 $129 $50 #
plane-surface $-1 0 0 -9.7374144237140428 0 0 1 1 0 0 forward_v I I I I #
coedge $-1 $130 $131 $132 $133 forward $51 $-1 #
face $-1 $134 $135 $31 $-1 $136 reversed single #
loop $-1 $-1 $137 $53 #
plane-surface $-1 0 -22.622109731103325 8.2374144237140428 0 -1 0 0 0 -1 forward_v I I I I #
coedge $-1 $138 $139 $140 $141 reversed $54 $-1 #
face $-1 $142 $143 $32 $-1 $144 reversed single #
loop $-1 $-1 $145 $56 #
plane-surface $-1 -76.810205389568779 -0.69663778149536171 0.4486537758276512 -0.73135370988377701 0 0.68199835119979291 0.68199835119979291 0 0.73135370988377701 forward_v I I I I #
coedge $-1 $146 $147 $148 $149 reversed $57 $-1 #
face $-1 $-1 $150 $33 $-1 $151 forward single #
loop $-1 $152 $153 $59 #
cone-surface $-1 -71.565058639599343 -3.3184015740185444 4.2405361607710965 0.73135370988377701 0 -0.68199835119979291 0.17049958779994823 0 0.18283842747094425 1 I I -0.70710678118654746 0.70710678118654746 0.25 forward I I I I #
loop $-1 $-1 $154 $43 #
coedge $-1 $96 $96 $155 $156 reversed $60 $-1 #
face $-1 $-1 $157 $34 $-1 $158 forward single #
loop $-1 $159 $160 $62 #
cone-surface $-1 -71.565058639599343 -0.69663778149536171 4.2405361607710965 0.73135370988377701 0 -0.68199835119979291 0.17049958779994823 0 0.18283842747094425 1 I I -0.70710678118654746 0.70710678118654746 0.25 forward I I I I #
loop $-1 $-1 $161 $44 #
coedge $-1 $101 $101 $162 $163 reversed $63 $-1 #
face $-1 $-1 $164 $35 $-1 $165 forward single #
loop $-1 $166 $167 $65 #
cone-surface $-1 -71.565058639599343 1.9251260110278245 4.2405361607710965 0.73135370988377701 0 -0.68199835119979291 0.17049958779994823 0 0.18283842747094425 1 I I -0.70710678118654746 0.70710678118654746 0.25 forward I I I I #
loop $-1 $-1 $168 $45 #
coedge $-1 $106 $106 $169 $170 reversed $66 $-1 #
face $-1 $171 $172 $36 $-1 $173 reversed single #
loop $-1 $-1 $174 $68 #
plane-surface $-1 -23.973850674557099 13.030748195473461 122.42207024420713 0.75470958851134928 0 0.65605901945558964 0.65605901945558964 0 -0.75470958851134928 forward_v I I I I #
coedge $-1 $175 $176 $177 $178 reversed $69 $-1 #
face $-1 $-1 $179 $37 $-1 $180 forward single #
loop $-1 $181 $182 $71 #
cone-surface $-1 74.452427552218722 10.221984610793424 7.2902700566074401 -0.75470958851134928 0 -0.65605901945558964 0.16401475486389741 0 -0.18867739712783732 1 I I -0.70710678118654746 0.70710678118654746 0.25 forward I I I I #
loop $-1 $-1 $183 $47 #
coedge $-1 $115 $115 $184 $185 reversed $72 $-1 #
face $-1 $-1 $186 $38 $-1 $187 forward single #
loop $-1 $188 $189 $74 #
cone-surface $-1 74.452427552218722 13.030748195473461 7.2902700566074401 -0.75470958851134928 0 -0.65605901945558964 0.16401475486389741 0 -0.18867739712783732 1 I I -0.70710678118654746 0.70710678118654746 0.25 forward I I I I #
loop $-1 $-1 $190 $48 #
coedge $-1 $120 $120 $191 $192 reversed $75 $-1 #
face $-1 $-1 $193 $39 $-1 $194 forward single #
loop $-1 $195 $196 $77 #
cone-surface $-1 74.452427552218722 15.839511780153497 7.2902700566074401 -0.75470958851134928 0 -0.65605901945558964 0.16401475486389741 0 -0.18867739712783732 1 I I -0.70710678118654746 0.70710678118654746 0.25 forward I I I I #
loop $-1 $-1 $197 $49 #
coedge $-1 $125 $125 $198 $199 reversed $78 $-1 #
face $-1 $200 $201 $30 $-1 $202 reversed single #
loop $-1 $-1 $203 $80 #
plane-surface $-1 0 -31.032101229535488 0 0 1 0 0 0 1 forward_v I I I I #
coedge $-1 $204 $205 $206 $207 forward $81 $-1 #
coedge $-1 $208 $83 $209 $210 forward $51 $-1 #
coedge $-1 $83 $208 $211 $212 forward $51 $-1 #
coedge $-1 $213 $214 $83 $133 reversed $215 $-1 #
edge $-1 $216 -31.032101229535488 $217 31.032101229535488 $132 $218 forward 7 unknown #
face $-1 $219 $220 $31 $-1 $221 reversed single #
loop $-1 $-1 $222 $84 #
plane-surface $-1 -76.810205389568779 0 0 1 0 0 0 0 -1 forward_v I I I I #
coedge $-1 $223 $224 $225 $226 reversed $85 $-1 #
coedge $-1 $227 $87 $228 $229 reversed $54 $-1 #
coedge $-1 $87 $227 $223 $230 forward $54 $-1 #
coedge $-1 $225 $231 $87 $141 forward $232 $-1 #
edge $-1 $233 -17.618548489375783 $234 -9.208556990943622 $140 $235 forward 7 unknown #
face $-1 $236 $237 $32 $-1 $238 forward single #
loop $-1 $-1 $239 $88 #
plane-surface $-1 -189.1610627267608 3.6729685393766083 105.21752063783435 0 -1 0 0.73135370988377701 0 -0.68199835119979291 forward_v I I I I #
coedge $-1 $240 $241 $242 $243 reversed $89 $-1 #
coedge $-1 $147 $91 $244 $245 reversed $57 $-1 #
coedge $-1 $91 $146 $240 $246 reversed $57 $-1 #
coedge $-1 $242 $247 $91 $149 forward $237 $-1 #
edge $-1 $248 17.770325973811623 $249 26.432235199041031 $148 $250 forward 7 unknown #
loop $-1 $-1 $155 $92 #
plane-surface $-1 -76.810205389568779 -0.69663778149536171 0.4486537758276512 -0.73135370988377701 0 0.68199835119979291 0.68199835119979291 0 0.73135370988377701 forward_v I I I I #
loop $-1 $-1 $251 $59 #
coedge $-1 $153 $153 $154 $252 reversed $93 $-1 #
coedge $-1 $154 $154 $153 $252 forward $95 $-1 #
coedge $-1 $155 $155 $96 $156 forward $150 $-1 #
edge $-1 $253 0 $253 6.2831853071796004 $155 $254 forward 7 unknown #
loop $-1 $-1 $162 $97 #
plane-surface $-1 -76.810205389568779 -0.69663778149536171 0.4486537758276512 -0.73135370988377701 0 0.68199835119979291 0.68199835119979291 0 0.73135370988377701 forward_v I I I I #
loop $-1 $-1 $255 $62 #
coedge $-1 $160 $160 $161 $256 reversed $98 $-1 #
coedge $-1 $161 $161 $160 $256 forward $100 $-1 #
coedge $-1 $162 $162 $101 $163 forward $157 $-1 #
edge $-1 $257 0 $257 6.2831853071796004 $162 $258 forward 7 unknown #
loop $-1 $-1 $169 $102 #
plane-surface $-1 -76.810205389568779 -0.69663778149536171 0.4486537758276512 -0.73135370988377701 0 0.68199835119979291 0.68199835119979291 0 0.73135370988377701 forward_v I I I I #
loop $-1 $-1 $259 $65 #
coedge $-1 $167 $167 $168 $260 reversed $103 $-1 #
coedge $-1 $168 $168 $167 $260 forward $105 $-1 #
coedge $-1 $169 $169 $106 $170 forward $164 $-1 #
edge $-1 $261 0 $261 6.2831853071796004 $169 $262 forward 7 unknown #
face $-1 $263 $264 $36 $-1 $265 reversed single #
loop $-1 $-1 $266 $107 #
plane-surface $-1 91.964946331510248 8.3494755543400707 223.20612630833301 0 1 0 0.75470958851134928 0 0.65605901945558964 forward_v I I I I #
coedge $-1 $267 $268 $269 $270 reversed $108 $-1 #
coedge $-1 $176 $110 $271 $272 reversed $69 $-1 #
coedge $-1 $110 $175 $267 $273 reversed $69 $-1 #
coedge $-1 $269 $274 $110 $178 forward $275 $-1 #
edge $-1 $276 -30.827732223813655 $277 -27.998950520391858 $177 $278 forward 7 unknown #
loop $-1 $-1 $184 $111 #
plane-surface $-1 -23.973850674557099 13.030748195473461 122.42207024420713 0.75470958851134928 0 0.65605901945558964 0.65605901945558964 0 -0.75470958851134928 forward_v I I I I #
loop $-1 $-1 $279 $71 #
coedge $-1 $182 $182 $183 $280 reversed $112 $-1 #
coedge $-1 $183 $183 $182 $280 forward $114 $-1 #
coedge $-1 $184 $184 $115 $185 forward $179 $-1 #
edge $-1 $281 0 $281 6.2831853071796004 $184 $282 forward 7 unknown #
loop $-1 $-1 $191 $116 #
plane-surface $-1 -23.973850674557099 13.030748195473461 122.42207024420713 0.75470958851134928 0 0.65605901945558964 0.65605901945558964 0 -0.75470958851134928 forward_v I I I I #
loop $-1 $-1 $283 $74 #
coedge $-1 $189 $189 $190 $284 reversed $117 $-1 #
coedge $-1 $190 $190 $189 $284 forward $119 $-1 #
coedge $-1 $191 $191 $120 $192 forward $186 $-1 #
edge $-1 $285 0 $285 6.2831853071796004 $191 $286 forward 7 unknown #
loop $-1 $-1 $198 $121 #
plane-surface $-1 -23.973850674557099 13.030748195473461 122.42207024420713 0.75470958851134928 0 0.65605901945558964 0.65605901945558964 0 -0.75470958851134928 forward_v I I I I #
loop $-1 $-1 $287 $77 #
coedge $-1 $196 $196 $197 $288 reversed $122 $-1 #
coedge $-1 $197 $197 $196 $288 forward $124 $-1 #
coedge $-1 $198 $198 $125 $199 forward $193 $-1 #
edge $-1 $289 0 $289 6.2831853071796004 $198 $290 forward 7 unknown #
face $-1 $291 $292 $30 $-1 $293 reversed single #
loop $-1 $-1 $294 $126 #
plane-surface $-1 -76.810205389568779 0 0 1 0 0 0 0 -1 forward_v I I I I #
coedge $-1 $295 $211 $296 $297 forward $127 $-1 #
coedge $-1 $298 $129 $295 $299 forward $81 $-1 #
coedge $-1 $129 $298 $300 $301 forward $81 $-1 #
coedge $-1 $214 $213 $129 $207 reversed $215 $-1 #
edge $-1 $302 -31.032101229535488 $303 31.032101229535488 $206 $304 forward 7 unknown #
coedge $-1 $131 $130 $305 $306 forward $51 $-1 #
coedge $-1 $307 $308 $130 $210 reversed $292 $-1 #
edge $-1 $217 -76.810205389568779 $309 76.810205389568779 $209 $310 forward 7 unknown #
coedge $-1 $203 $311 $131 $212 reversed $127 $-1 #
edge $-1 $312 -76.810205389568779 $216 76.810205389568779 $211 $313 forward 7 unknown #
coedge $-1 $206 $132 $311 $314 forward $215 $-1 #
coedge $-1 $132 $206 $307 $315 reversed $215 $-1 #
loop $-1 $-1 $213 $291 #
vertex $-1 $133 $316 #
vertex $-1 $133 $317 #
straight-curve $-1 76.810205389568779 0 9.7374144237140428 0 1 0 I I #
face $-1 $318 $319 $31 $-1 $320 forward single #
loop $-1 $-1 $228 $134 #
plane-surface $-1 0 -31.032101229535488 0 0 1 0 0 0 1 forward_v I I I I #
coedge $-1 $321 $322 $323 $324 forward $135 $-1 #
coedge $-1 $323 $137 $139 $230 reversed $85 $-1 #
coedge $-1 $137 $323 $325 $326 reversed $85 $-1 #
coedge $-1 $327 $140 $137 $226 forward $232 $-1 #
edge $-1 $234 2.6187072118570214 $328 5.6187072118570214 $225 $329 forward 7 unknown #
coedge $-1 $139 $138 $321 $330 reversed $54 $-1 #
coedge $-1 $331 $332 $138 $229 forward $220 $-1 #
edge $-1 $333 -76.810205389568779 $233 76.810205389568779 $228 $334 forward 7 unknown #
edge $-1 $335 -76.810205389568779 $234 76.810205389568779 $223 $336 forward 7 unknown #
coedge $-1 $140 $327 $331 $337 forward $232 $-1 #
loop $-1 $-1 $225 $318 #
vertex $-1 $229 $338 #
vertex $-1 $141 $339 #
straight-curve $-1 76.810205389568779 -13.413552740159703 6.7374144237140428 0 1 0 I I #
face $-1 $-1 $340 $32 $-1 $341 reversed single #
loop $-1 $-1 $148 $142 #
plane-surface $-1 0 0 9.7374144237140428 0 0 1 1 0 0 forward_v I I I I #
coedge $-1 $342 $343 $344 $345 reversed $143 $-1 #
coedge $-1 $346 $145 $147 $246 forward $89 $-1 #
coedge $-1 $145 $346 $342 $347 forward $89 $-1 #
coedge $-1 $344 $148 $145 $243 forward $237 $-1 #
edge $-1 $249 -4.7179252116196508 $348 4.0212874301242891 $242 $349 forward 7 unknown #
coedge $-1 $350 $351 $146 $245 forward $340 $-1 #
edge $-1 $352 -52.160106543089526 $248 -42.871345895203135 $244 $353 forward 7 unknown #
edge $-1 $249 -12.70077736990288 $352 0 $147 $354 forward 7 unknown #
coedge $-1 $148 $344 $350 $355 forward $237 $-1 #
vertex $-1 $245 $356 #
vertex $-1 $149 $357 #
straight-curve $-1 -94.580531363380402 -5.0662441023673317 9.7374144237140428 1 0 0 I I #
coedge $-1 $251 $251 $-1 $358 reversed $152 $-1 #
edge $-1 $359 0 $359 6.2831853071796004 $153 $360 forward 7 unknown #
vertex $-1 $156 $361 #
ellipse-curve $-1 -72.479250776954075 -3.3184015740185444 5.0930340997708461 -0.73135370988377701 0 0.68199835119979291 0.34099917559989645 0 0.36567685494188851 1 I I #
coedge $-1 $255 $255 $-1 $362 reversed $159 $-1 #
edge $-1 $363 0 $363 6.2831853071796004 $160 $364 forward 7 unknown #
vertex $-1 $163 $365 #
ellipse-curve $-1 -72.479250776954075 -0.69663778149536171 5.0930340997708461 -0.73135370988377701 0 0.68199835119979291 0.34099917559989645 0 0.36567685494188851 1 I I #
coedge $-1 $259 $259 $-1 $366 reversed $166 $-1 #
edge $-1 $367 0 $367 6.2831853071796004 $167 $368 forward 7 unknown #
vertex $-1 $170 $369 #
ellipse-curve $-1 -72.479250776954075 1.9251260110278245 5.0930340997708461 -0.73135370988377701 0 0.68199835119979291 0.34099917559989645 0 0.36567685494188851 1 I I #
face $-1 $-1 $275 $36 $-1 $370 forward single #
loop $-1 $-1 $371 $171 #
plane-surface $-1 76.810205389568779 0 0 -1 0 0 0 0 1 forward_v I I I I #
coedge $-1 $372 $373 $374 $375 reversed $172 $-1 #
coedge $-1 $376 $174 $176 $273 forward $108 $-1 #
coedge $-1 $174 $376 $372 $377 forward $108 $-1 #
coedge $-1 $374 $177 $174 $270 forward $275 $-1 #
edge $-1 $277 -11.19664673887012 $378 -1.8341014566033405 $269 $379 forward 7 unknown #
coedge $-1 $380 $381 $175 $272 forward $264 $-1 #
edge $-1 $382 -105.11978991602672 $276 -101.86564873045246 $271 $383 forward 7 unknown #
edge $-1 $277 149.30863147341418 $382 153.62041077913759 $176 $384 forward 7 unknown #
coedge $-1 $177 $374 $380 $385 forward $275 $-1 #
loop $-1 $-1 $374 $263 #
vertex $-1 $272 $386 #
vertex $-1 $178 $387 #
straight-curve $-1 45.982473165755124 17.71202083660685 9.7374144237140428 -1 0 0 I I #
coedge $-1 $279 $279 $-1 $388 reversed $181 $-1 #
edge $-1 $389 0 $389 6.2831853071796004 $182 $390 forward 7 unknown #
vertex $-1 $185 $391 #
ellipse-curve $-1 75.395814537857888 10.221984610793424 8.110343830926908 0.75470958851134928 0 0.65605901945558964 0.32802950972779482 0 -0.37735479425567464 1 I I #
coedge $-1 $283 $283 $-1 $392 reversed $188 $-1 #
edge $-1 $393 0 $393 6.2831853071796004 $189 $394 forward 7 unknown #
vertex $-1 $192 $395 #
ellipse-curve $-1 75.395814537857888 13.030748195473461 8.110343830926908 0.75470958851134928 0 0.65605901945558964 0.32802950972779482 0 -0.37735479425567464 1 I I #
coedge $-1 $287 $287 $-1 $396 reversed $195 $-1 #
edge $-1 $397 0 $397 6.2831853071796004 $196 $398 forward 7 unknown #
vertex $-1 $199 $399 #
ellipse-curve $-1 75.395814537857888 15.839511780153497 8.110343830926908 0.75470958851134928 0 0.65605901945558964 0.32802950972779482 0 -0.37735479425567464 1 I I #
face $-1 $-1 $215 $30 $-1 $400 reversed single #
loop $-1 $-1 $307 $200 #
plane-surface $-1 0 31.032101229535488 0 0 -1 0 0 0 -1 forward_v I I I I #
coedge $-1 $401 $305 $308 $402 forward $201 $-1 #
coedge $-1 $311 $203 $204 $299 reversed $127 $-1 #
coedge $-1 $305 $401 $203 $297 reversed $201 $-1 #
edge $-1 $312 -9.7374144237140428 $403 9.7374144237140428 $296 $404 forward 7 unknown #
coedge $-1 $205 $204 $401 $405 forward $81 $-1 #
edge $-1 $303 -76.810205389568779 $403 76.810205389568779 $295 $406 forward 7 unknown #
coedge $-1 $308 $307 $205 $301 reversed $292 $-1 #
edge $-1 $407 -76.810205389568779 $302 76.810205389568779 $300 $408 forward 7 unknown #
vertex $-1 $207 $409 #
vertex $-1 $314 $410 #
straight-curve $-1 76.810205389568779 0 -9.7374144237140428 0 -1 0 I I #
coedge $-1 $294 $296 $208 $306 reversed $201 $-1 #
edge $-1 $309 -31.032101229535488 $312 31.032101229535488 $305 $411 forward 7 unknown #
coedge $-1 $300 $209 $214 $315 forward $292 $-1 #
coedge $-1 $209 $300 $294 $402 reversed $292 $-1 #
vertex $-1 $210 $412 #
straight-curve $-1 0 31.032101229535488 9.7374144237140428 -1 0 0 I I #
coedge $-1 $211 $295 $213 $314 reversed $127 $-1 #
vertex $-1 $306 $413 #
straight-curve $-1 0 -31.032101229535488 9.7374144237140428 1 0 0 I I #
edge $-1 $216 -9.7374144237140428 $303 9.7374144237140428 $213 $414 forward 7 unknown #
edge $-1 $217 -9.7374144237140428 $302 9.7374144237140428 $214 $415 forward 7 unknown #
point $-1 76.810205389568779 -31.032101229535488 9.7374144237140428 #
point $-1 76.810205389568779 31.032101229535488 9.7374144237140428 #
face $-1 $-1 $232 $31 $-1 $416 reversed single #
loop $-1 $-1 $325 $219 #
plane-surface $-1 0 0 9.7374144237140428 0 0 1 1 0 0 forward_v I I I I #
coedge $-1 $417 $222 $227 $330 forward $135 $-1 #
coedge $-1 $222 $417 $418 $419 reversed $135 $-1 #
coedge $-1 $224 $223 $222 $324 reversed $85 $-1 #
edge $-1 $420 -5.6187072118570214 $335 -2.6187072118570214 $222 $421 forward 7 unknown #
coedge $-1 $418 $422 $224 $326 forward $319 $-1 #
edge $-1 $328 -76.810205389568779 $420 76.810205389568779 $325 $423 forward 7 unknown #
coedge $-1 $231 $225 $422 $424 reversed $232 $-1 #
vertex $-1 $226 $425 #
straight-curve $-1 76.810205389568779 -22.622109731103325 4.1187072118570214 0 0 1 I I #
edge $-1 $335 9.208556990943622 $333 17.618548489375783 $321 $426 forward 7 unknown #
coedge $-1 $427 $228 $231 $337 reversed $220 $-1 #
coedge $-1 $228 $427 $417 $428 forward $220 $-1 #
vertex $-1 $229 $429 #
straight-curve $-1 0 -31.032101229535488 6.7374144237140428 1 0 0 I I #
vertex $-1 $330 $430 #
straight-curve $-1 0 -22.622109731103325 6.7374144237140428 1 0 0 I I #
edge $-1 $431 -9.7374144237140428 $233 -6.7374144237140428 $231 $432 forward 7 unknown #
point $-1 76.810205389568779 -31.032101229535488 6.7374144237140428 #
point $-1 76.810205389568779 -22.622109731103325 6.7374144237140428 #
loop $-1 $-1 $244 $236 #
plane-surface $-1 -76.810205389568779 0 0 1 0 0 0 0 -1 forward_v I I I I #
coedge $-1 $343 $239 $241 $347 reversed $143 $-1 #
coedge $-1 $239 $342 $433 $434 reversed $143 $-1 #
coedge $-1 $247 $242 $239 $345 forward $237 $-1 #
edge $-1 $348 -26.432235199041031 $435 -17.770325973811623 $344 $436 forward 7 unknown #
coedge $-1 $241 $240 $351 $437 reversed $89 $-1 #
edge $-1 $438 0 $348 12.70077736990288 $342 $439 forward 7 unknown #
vertex $-1 $243 $440 #
straight-curve $-1 -68.148296164339371 -0.34831889074768085 9.7374144237140428 0 1 0 I I #
coedge $-1 $433 $244 $247 $355 reversed $340 $-1 #
coedge $-1 $244 $433 $346 $437 forward $340 $-1 #
vertex $-1 $245 $441 #
straight-curve $-1 -76.810205389568779 -5.0662441023673317 52.608760318917177 0 0 1 I I #
straight-curve $-1 -76.810205389568779 -5.0662441023673317 0.4486537758276512 -0.68199835119979291 0 -0.73135370988377701 I I #
edge $-1 $435 -3.6729685393766083 $248 5.0662441023673317 $350 $442 forward 7 unknown #
point $-1 -76.810205389568779 -5.0662441023673317 9.7374144237140428 #
point $-1 -68.148296164339371 -5.0662441023673317 9.7374144237140428 #
edge $-1 $443 1 $443 0 $251 $-1 forward 7 unknown #
vertex $-1 $252 $444 #
ellipse-curve $-1 -71.747897067070284 -3.3184015740185444 4.4110357485710452 -0.73135370988377701 0 0.68199835119979291 0.34099917559989645 0 0.36567685494188851 1 I I #
point $-1 -72.13825160135417 -3.3184015740185444 5.4587109547127266 #
edge $-1 $445 1 $445 0 $255 $-1 forward 7 unknown #
vertex $-1 $256 $446 #
ellipse-curve $-1 -71.747897067070284 -0.69663778149536171 4.4110357485710452 -0.73135370988377701 0 0.68199835119979291 0.34099917559989645 0 0.36567685494188851 1 I I #
point $-1 -72.13825160135417 -0.69663778149536171 5.4587109547127266 #
edge $-1 $447 1 $447 0 $259 $-1 forward 7 unknown #
vertex $-1 $260 $448 #
ellipse-curve $-1 -71.747897067070284 1.9251260110278245 4.4110357485710452 -0.73135370988377701 0 0.68199835119979291 0.34099917559989645 0 0.36567685494188851 1 I I #
point $-1 -72.13825160135417 1.9251260110278245 5.4587109547127266 #
plane-surface $-1 0 0 9.7374144237140428 0 0 1 1 0 0 forward_v I I I I #
coedge $-1 $381 $380 $373 $449 forward $264 $-1 #
coedge $-1 $373 $266 $268 $377 reversed $172 $-1 #
coedge $-1 $266 $372 $371 $449 reversed $172 $-1 #
coedge $-1 $274 $269 $266 $375 forward $275 $-1 #
edge $-1 $378 27.998950520391858 $450 30.827732223813655 $374 $451 forward 7 unknown #
coedge $-1 $268 $267 $381 $452 reversed $108 $-1 #
edge $-1 $453 -153.62041077913759 $378 -149.30863147341418 $372 $454 forward 7 unknown #
vertex $-1 $270 $455 #
straight-curve $-1 73.981423686146982 6.5153740977367303 9.7374144237140285 0 -1 0 I I #
coedge $-1 $371 $271 $274 $385 reversed $264 $-1 #
coedge $-1 $271 $371 $376 $452 forward $264 $-1 #
vertex $-1 $272 $456 #
straight-curve $-1 76.810205389568779 17.71202083660685 111.60306315416651 0 0 1 I I #
straight-curve $-1 -23.973850674557099 17.71202083660685 122.42207024420713 0.65605901945558964 0 -0.75470958851134928 I I #
edge $-1 $450 8.3494755543400707 $276 17.71202083660685 $380 $457 forward 7 unknown #
point $-1 76.810205389568779 17.71202083660685 9.7374144237140428 #
point $-1 73.981423686146982 17.71202083660685 9.7374144237140428 #
edge $-1 $458 1 $458 0 $279 $-1 forward 7 unknown #
vertex $-1 $280 $459 #
ellipse-curve $-1 74.641104949346555 10.221984610793424 7.4542848114713376 0.75470958851134928 0 0.65605901945558964 0.32802950972779482 0 -0.37735479425567464 1 I I #
point $-1 75.7238440475857 10.221984610793424 7.7329890366712526 #
edge $-1 $460 1 $460 0 $283 $-1 forward 7 unknown #
vertex $-1 $284 $461 #
ellipse-curve $-1 74.641104949346555 13.030748195473461 7.4542848114713376 0.75470958851134928 0 0.65605901945558964 0.32802950972779482 0 -0.37735479425567464 1 I I #
point $-1 75.7238440475857 13.030748195473461 7.7329890366712526 #
edge $-1 $462 1 $462 0 $287 $-1 forward 7 unknown #
vertex $-1 $288 $463 #
ellipse-curve $-1 74.641104949346555 15.839511780153497 7.4542848114713376 0.75470958851134928 0 0.65605901945558964 0.32802950972779482 0 -0.37735479425567464 1 I I #
point $-1 75.7238440475857 15.839511780153497 7.7329890366712526 #
plane-surface $-1 76.810205389568779 0 0 -1 0 0 0 0 1 forward_v I I I I #
coedge $-1 $296 $294 $298 $405 reversed $201 $-1 #
edge $-1 $309 -9.7374144237140428 $407 9.7374144237140428 $308 $464 forward 7 unknown #
vertex $-1 $405 $465 #
straight-curve $-1 -76.810205389568779 -31.032101229535488 0 0 0 -1 I I #
edge $-1 $403 -31.032101229535488 $407 31.032101229535488 $401 $466 forward 7 unknown #
straight-curve $-1 0 -31.032101229535488 -9.7374144237140428 -1 0 0 I I #
vertex $-1 $301 $467 #
straight-curve $-1 0 31.032101229535488 -9.7374144237140428 1 0 0 I I #
point $-1 76.810205389568779 31.032101229535488 -9.7374144237140428 #
point $-1 76.810205389568779 -31.032101229535488 -9.7374144237140428 #
straight-curve $-1 -76.810205389568779 0 9.7374144237140428 0 -1 0 I I #
point $-1 -76.810205389568779 31.032101229535488 9.7374144237140428 #
point $-1 -76.810205389568779 -31.032101229535488 9.7374144237140428 #
straight-curve $-1 76.810205389568779 -31.032101229535488 0 0 0 -1 I I #
straight-curve $-1 76.810205389568779 31.032101229535488 0 0 0 -1 I I #
plane-surface $-1 76.810205389568779 0 0 -1 0 0 0 0 1 forward_v I I I I #
coedge $-1 $322 $321 $332 $428 reversed $135 $-1 #
coedge $-1 $468 $325 $322 $419 forward $319 $-1 #
edge $-1 $420 22.622109731103325 $469 31.032101229535488 $322 $470 forward 7 unknown #
vertex $-1 $419 $471 #
straight-curve $-1 -76.810205389568779 -22.622109731103325 4.1187072118570214 0 0 -1 I I #
coedge $-1 $325 $468 $327 $424 forward $319 $-1 #
straight-curve $-1 0 -22.622109731103325 9.7374144237140428 -1 0 0 I I #
edge $-1 $431 -31.032101229535488 $328 -22.622109731103325 $327 $472 forward 7 unknown #
point $-1 76.810205389568779 -22.622109731103325 9.7374144237140428 #
straight-curve $-1 -76.810205389568779 -13.413552740159703 6.7374144237140428 0 -1 0 I I #
coedge $-1 $332 $331 $468 $473 reversed $220 $-1 #
edge $-1 $469 -9.7374144237140428 $333 -6.7374144237140428 $417 $474 forward 7 unknown #
point $-1 -76.810205389568779 -31.032101229535488 6.7374144237140428 #
point $-1 -76.810205389568779 -22.622109731103325 6.7374144237140428 #
vertex $-1 $424 $475 #
straight-curve $-1 76.810205389568779 -31.032101229535488 0 0 0 -1 I I #
coedge $-1 $351 $350 $343 $434 forward $340 $-1 #
edge $-1 $435 42.871345895203135 $438 52.160106543089526 $433 $476 forward 7 unknown #
vertex $-1 $355 $477 #
straight-curve $-1 -94.580531363380402 3.6729685393766083 9.7374144237140428 -1 0 0 I I #
edge $-1 $438 -4.0212874301242891 $352 4.7179252116196508 $351 $478 forward 7 unknown #
vertex $-1 $437 $479 #
straight-curve $-1 -76.810205389568779 3.6729685393766083 0.4486537758276512 0.68199835119979291 0 0.73135370988377701 I I #
point $-1 -68.148296164339371 3.6729685393766083 9.7374144237140428 #
point $-1 -76.810205389568779 -5.0662441023673317 0.4486537758276512 #
straight-curve $-1 -76.810205389568779 0 9.7374144237140428 0 -1 0 I I #
vertex $-1 $358 $480 #
point $-1 -71.406897891470393 -3.3184015740185444 4.7767126035129337 #
vertex $-1 $362 $481 #
point $-1 -71.406897891470393 -0.69663778149536171 4.7767126035129337 #
vertex $-1 $366 $482 #
point $-1 -71.406897891470393 1.9251260110278245 4.7767126035129337 #
edge $-1 $450 101.86564873045246 $453 105.11978991602672 $371 $483 forward 7 unknown #
vertex $-1 $385 $484 #
straight-curve $-1 45.982473165755124 8.3494755543400707 9.7374144237140428 1 0 0 I I #
edge $-1 $453 1.8341014566033405 $382 11.19664673887012 $381 $485 forward 7 unknown #
vertex $-1 $452 $486 #
straight-curve $-1 -23.973850674557099 8.3494755543400707 122.42207024420713 -0.65605901945558964 0 0.75470958851134928 I I #
point $-1 73.981423686146982 8.3494755543400707 9.7374144237140428 #
point $-1 76.810205389568779 17.71202083660685 6.4832732381397875 #
straight-curve $-1 76.810205389568779 0 9.7374144237140428 0 1 0 I I #
vertex $-1 $388 $487 #
point $-1 74.969134459074354 10.221984610793424 7.0769300172156626 #
vertex $-1 $392 $488 #
point $-1 74.969134459074354 13.030748195473461 7.0769300172156626 #
vertex $-1 $396 $489 #
point $-1 74.969134459074354 15.839511780153497 7.0769300172156626 #
straight-curve $-1 -76.810205389568779 31.032101229535488 0 0 0 -1 I I #
point $-1 -76.810205389568779 -31.032101229535488 -9.7374144237140428 #
straight-curve $-1 -76.810205389568779 0 -9.7374144237140428 0 1 0 I I #
point $-1 -76.810205389568779 31.032101229535488 -9.7374144237140428 #
coedge $-1 $422 $418 $427 $473 forward $319 $-1 #
vertex $-1 $419 $490 #
straight-curve $-1 -76.810205389568779 0 9.7374144237140428 0 -1 0 I I #
point $-1 -76.810205389568779 -22.622109731103325 9.7374144237140428 #
straight-curve $-1 76.810205389568779 0 9.7374144237140428 0 1 0 I I #
edge $-1 $469 -76.810205389568779 $431 76.810205389568779 $427 $491 forward 7 unknown #
straight-curve $-1 -76.810205389568779 -31.032101229535488 0 0 0 -1 I I #
point $-1 76.810205389568779 -31.032101229535488 9.7374144237140428 #
straight-curve $-1 -76.810205389568779 3.6729685393766083 52.608760318917177 0 0 -1 I I #
point $-1 -76.810205389568779 3.6729685393766083 9.7374144237140428 #
straight-curve $-1 -76.810205389568779 -0.34831889074768085 0.44865377582764732 0 -1 0 I I #
point $-1 -76.810205389568779 3.6729685393766083 0.4486537758276512 #
point $-1 -71.382220212128402 -3.3184015740185444 4.0700365729711478 #
point $-1 -71.382220212128402 -0.69663778149536171 4.0700365729711478 #
point $-1 -71.382220212128402 1.9251260110278245 4.0700365729711478 #
straight-curve $-1 76.810205389568779 8.3494755543400707 111.60306315416651 0 0 -1 I I #
point $-1 76.810205389568779 8.3494755543400707 9.7374144237140428 #
straight-curve $-1 76.810205389568779 6.5153740977367303 6.4832732381397662 0 1 0 I I #
point $-1 76.810205389568779 8.3494755543400707 6.4832732381397875 #
point $-1 74.263750155090889 10.221984610793424 7.1262553017435426 #
point $-1 74.263750155090889 13.030748195473461 7.1262553017435426 #
point $-1 74.263750155090889 15.839511780153497 7.1262553017435426 #
point $-1 -76.810205389568779 -31.032101229535488 9.7374144237140428 #
straight-curve $-1 0 -31.032101229535488 9.7374144237140428 1 0 0 I I #
End-of-ACIS-data 