500 0 6 0           
7 Unknown 11 ACIS 5.0 NT 24 Thu Mar 25 17:17:06 1999 
-1 9.9999999999999995e-007 1e-010 
body $-1 $6 $-1 $7 #
body $-1 $8 $-1 $9 #
body $-1 $10 $-1 $11 #
body $-1 $12 $-1 $13 #
body $-1 $14 $-1 $15 #
body $-1 $16 $-1 $17 #
lump $-1 $-1 $18 $0 #
transform $-1 1 0 0 0 1 0 0 0 1 58.276924954985198 27.872152758325466 6.3088528879039378 1 rotate no_reflect no_shear #
lump $-1 $-1 $19 $1 #
transform $-1 1 0 0 0 1 0 0 0 1 58.276924954985198 27.872152758325466 6.3088528879039378 1 rotate no_reflect no_shear #
lump $-1 $-1 $20 $2 #
transform $-1 1 0 0 0 1 0 0 0 1 58.276924954985198 27.872152758325466 6.3088528879039378 1 rotate no_reflect no_shear #
lump $-1 $-1 $21 $3 #
transform $-1 1 0 0 0 1 0 0 0 1 58.276924954985198 27.872152758325466 6.3088528879039378 1 rotate no_reflect no_shear #
lump $-1 $-1 $22 $4 #
transform $-1 1 0 0 0 1 0 0 0 1 58.276924954985198 27.872152758325466 6.3088528879039378 1 rotate no_reflect no_shear #
lump $-1 $-1 $23 $5 #
transform $-1 1 0 0 0 1 0 0 0 1 58.276924954985198 27.872152758325466 6.3088528879039378 1 rotate no_reflect no_shear #
shell $-1 $-1 $-1 $24 $-1 $6 #
shell $-1 $-1 $-1 $25 $-1 $8 #
shell $-1 $-1 $-1 $26 $-1 $10 #
shell $-1 $-1 $-1 $27 $-1 $12 #
shell $-1 $-1 $-1 $28 $-1 $14 #
shell $-1 $-1 $-1 $29 $-1 $16 #
face $-1 $30 $31 $18 $-1 $32 forward single #
face $-1 $33 $34 $19 $-1 $35 forward single #
face $-1 $36 $37 $20 $-1 $38 forward single #
face $-1 $39 $40 $21 $-1 $41 reversed single #
face $-1 $42 $43 $22 $-1 $44 forward single #
face $-1 $45 $46 $23 $-1 $47 forward single #
face $-1 $48 $49 $18 $-1 $50 reversed single #
loop $-1 $-1 $51 $24 #
plane-surface $-1 0 0 6.3088528879039378 0 0 1 1 0 0 forward_v I I I I #
face $-1 $52 $53 $19 $-1 $54 reversed single #
loop $-1 $-1 $55 $25 #
plane-surface $-1 0 -25.225386134345037 3.5697424933045219 0 0 1 1 0 0 forward_v I I I I #
face $-1 $56 $57 $20 $-1 $58 reversed single #
loop $-1 $-1 $59 $26 #
plane-surface $-1 0 25.225386134345033 3.5697424933045219 0 0 1 1 0 0 forward_v I I I I #
face $-1 $60 $61 $21 $-1 $62 reversed single #
loop $-1 $-1 $63 $27 #
plane-surface $-1 -126.78555990521741 -0.3675334681535567 94.776735115356757 0 -1 0 0.5877852598018023 0 -0.80901698891910034 forward_v I I I I #
face $-1 $64 $65 $22 $-1 $66 forward single #
loop $-1 $67 $68 $28 #
cone-surface $-1 -53.706306207547726 -5.5702839507920849 2.6234748537224144 0.5877852598018023 0 -0.80901698891910034 0.40450849445955017 0 0.29389262990090115 1 I I 0 1 0.5 forward I I I I #
face $-1 $69 $70 $23 $-1 $71 forward single #
loop $-1 $72 $73 $29 #
cone-surface $-1 -53.706306207547726 -2.4486336612089659 2.6234748537224144 0.5877852598018023 0 -0.80901698891910034 0.40450849445955017 0 0.29389262990090115 1 I I 0 1 0.5 forward I I I I #
face $-1 $74 $75 $18 $-1 $76 reversed single #
loop $-1 $-1 $77 $30 #
plane-surface $-1 0 0 -6.3088528879039378 0 0 1 1 0 0 forward_v I I I I #
coedge $-1 $78 $79 $80 $81 forward $31 $-1 #
face $-1 $82 $83 $19 $-1 $84 reversed single #
loop $-1 $-1 $85 $33 #
plane-surface $-1 0 -25.225386134345037 0.56974249330452098 0 0 1 1 0 0 forward_v I I I I #
coedge $-1 $86 $87 $88 $89 reversed $34 $-1 #
face $-1 $90 $91 $20 $-1 $92 reversed single #
loop $-1 $-1 $93 $36 #
plane-surface $-1 0 25.225386134345033 0.56974249330452098 0 0 1 1 0 0 forward_v I I I I #
coedge $-1 $94 $95 $96 $97 reversed $37 $-1 #
face $-1 $98 $99 $21 $-1 $100 reversed single #
loop $-1 $-1 $101 $39 #
plane-surface $-1 -58.276924954985191 -4.0094588060005272 0.48269041426375736 -0.5877852598018023 0 0.80901698891910034 0.80901698891910034 0 0.5877852598018023 forward_v I I I I #
coedge $-1 $102 $103 $104 $105 reversed $40 $-1 #
face $-1 $-1 $106 $22 $-1 $107 forward single #
loop $-1 $108 $109 $42 #
cone-surface $-1 -52.998253414119375 -5.5702839507920849 1.648923809131202 0.5877852598018023 0 -0.80901698891910034 0.20225424722977509 0 0.14694631495045057 1 I I -0.70710678118654746 0.70710678118654746 0.25 forward I I I I #
loop $-1 $-1 $110 $28 #
coedge $-1 $68 $68 $111 $112 reversed $43 $-1 #
face $-1 $-1 $113 $23 $-1 $114 forward single #
loop $-1 $115 $116 $45 #
cone-surface $-1 -52.998253414119375 -2.4486336612089659 1.648923809131202 0.5877852598018023 0 -0.80901698891910034 0.20225424722977509 0 0.14694631495045057 1 I I -0.70710678118654746 0.70710678118654746 0.25 forward I I I I #
loop $-1 $-1 $117 $29 #
coedge $-1 $73 $73 $118 $119 reversed $46 $-1 #
face $-1 $120 $121 $18 $-1 $122 reversed single #
loop $-1 $-1 $123 $48 #
plane-surface $-1 0 -27.872152758325466 0 0 1 0 0 0 1 forward_v I I I I #
coedge $-1 $124 $125 $126 $127 forward $49 $-1 #
coedge $-1 $128 $51 $129 $130 forward $31 $-1 #
coedge $-1 $51 $128 $131 $132 forward $31 $-1 #
coedge $-1 $133 $134 $51 $81 reversed $135 $-1 #
edge $-1 $136 -27.872152758325466 $137 27.872152758325466 $80 $138 forward 7 unknown #
face $-1 $139 $140 $19 $-1 $141 reversed single #
loop $-1 $-1 $142 $52 #
plane-surface $-1 0 -22.578619510364607 2.0697424933045214 0 -1 0 0 0 -1 forward_v I I I I #
coedge $-1 $143 $144 $145 $146 reversed $53 $-1 #
coedge $-1 $147 $55 $148 $149 forward $34 $-1 #
coedge $-1 $55 $147 $150 $151 reversed $34 $-1 #
coedge $-1 $152 $153 $55 $89 forward $154 $-1 #
edge $-1 $155 9.9659264431920889 $156 15.259459691152948 $88 $157 forward 7 unknown #
face $-1 $158 $159 $20 $-1 $160 reversed single #
loop $-1 $-1 $161 $56 #
plane-surface $-1 0 22.578619510364604 2.0697424933045214 0 1 0 0 0 1 forward_v I I I I #
coedge $-1 $162 $163 $164 $165 reversed $57 $-1 #
coedge $-1 $166 $59 $167 $168 reversed $37 $-1 #
coedge $-1 $59 $166 $169 $170 forward $37 $-1 #
coedge $-1 $171 $172 $59 $97 forward $159 $-1 #
edge $-1 $173 -15.259459691152946 $174 -9.9659264431920871 $96 $175 forward 7 unknown #
face $-1 $176 $177 $21 $-1 $178 reversed single #
loop $-1 $-1 $179 $60 #
plane-surface $-1 -126.78555990521741 -7.6513841438474977 94.776735115356757 0 1 0 -0.5877852598018023 0 0.80901698891910034 forward_v I I I I #
coedge $-1 $180 $181 $182 $183 reversed $61 $-1 #
coedge $-1 $103 $63 $184 $185 reversed $40 $-1 #
coedge $-1 $63 $102 $180 $186 reversed $40 $-1 #
coedge $-1 $182 $187 $63 $105 forward $177 $-1 #
edge $-1 $188 41.07951466977444 $189 46.905677143414628 $104 $190 forward 7 unknown #
loop $-1 $-1 $111 $64 #
plane-surface $-1 -58.276924954985191 -4.0094588060005272 0.48269041426375736 -0.5877852598018023 0 0.80901698891910034 0.80901698891910034 0 0.5877852598018023 forward_v I I I I #
loop $-1 $-1 $191 $42 #
coedge $-1 $109 $109 $110 $192 reversed $65 $-1 #
coedge $-1 $110 $110 $109 $192 forward $67 $-1 #
coedge $-1 $111 $111 $68 $112 forward $106 $-1 #
edge $-1 $193 0 $193 6.2831853071796004 $111 $194 forward 7 unknown #
loop $-1 $-1 $118 $69 #
plane-surface $-1 -58.276924954985191 -4.0094588060005272 0.48269041426375736 -0.5877852598018023 0 0.80901698891910034 0.80901698891910034 0 0.5877852598018023 forward_v I I I I #
loop $-1 $-1 $195 $45 #
coedge $-1 $116 $116 $117 $196 reversed $70 $-1 #
coedge $-1 $117 $117 $116 $196 forward $72 $-1 #
coedge $-1 $118 $118 $73 $119 forward $113 $-1 #
edge $-1 $197 0 $197 6.2831853071796004 $118 $198 forward 7 unknown #
face $-1 $199 $200 $18 $-1 $201 reversed single #
loop $-1 $-1 $202 $74 #
plane-surface $-1 -58.276924954985198 0 0 1 0 0 0 0 -1 forward_v I I I I #
coedge $-1 $203 $131 $204 $205 forward $75 $-1 #
coedge $-1 $206 $77 $203 $207 forward $49 $-1 #
coedge $-1 $77 $206 $208 $209 forward $49 $-1 #
coedge $-1 $134 $133 $77 $127 reversed $135 $-1 #
edge $-1 $210 -27.872152758325466 $211 27.872152758325466 $126 $212 forward 7 unknown #
coedge $-1 $79 $78 $213 $214 forward $31 $-1 #
coedge $-1 $215 $216 $78 $130 reversed $200 $-1 #
edge $-1 $137 -58.276924954985198 $217 58.276924954985198 $129 $218 forward 7 unknown #
coedge $-1 $123 $219 $79 $132 reversed $75 $-1 #
edge $-1 $220 -58.276924954985198 $136 58.276924954985198 $131 $221 forward 7 unknown #
coedge $-1 $126 $80 $219 $222 forward $135 $-1 #
coedge $-1 $80 $126 $215 $223 reversed $135 $-1 #
loop $-1 $-1 $133 $199 #
vertex $-1 $81 $224 #
vertex $-1 $81 $225 #
straight-curve $-1 58.276924954985198 0 6.3088528879039378 0 1 0 I I #
face $-1 $226 $227 $19 $-1 $228 reversed single #
loop $-1 $-1 $229 $82 #
plane-surface $-1 -58.276924954985198 0 0 1 0 0 0 0 -1 forward_v I I I I #
coedge $-1 $230 $148 $153 $231 reversed $83 $-1 #
coedge $-1 $232 $85 $233 $234 reversed $53 $-1 #
coedge $-1 $85 $232 $230 $235 forward $53 $-1 #
coedge $-1 $153 $152 $85 $146 forward $154 $-1 #
edge $-1 $236 -15.259459691152948 $237 -9.9659264431920889 $145 $238 forward 7 unknown #
coedge $-1 $87 $86 $229 $239 reversed $34 $-1 #
coedge $-1 $142 $240 $86 $149 reversed $83 $-1 #
edge $-1 $155 -58.276924954985198 $241 58.276924954985198 $148 $242 forward 7 unknown #
coedge $-1 $243 $244 $87 $151 forward $227 $-1 #
edge $-1 $156 -58.276924954985198 $245 58.276924954985198 $150 $246 forward 7 unknown #
coedge $-1 $145 $88 $244 $247 forward $154 $-1 #
coedge $-1 $88 $145 $142 $231 forward $154 $-1 #
loop $-1 $-1 $88 $226 #
vertex $-1 $89 $248 #
vertex $-1 $247 $249 #
straight-curve $-1 58.276924954985198 -12.612693067172518 3.5697424933045219 0 -1 0 I I #
face $-1 $250 $251 $20 $-1 $252 reversed single #
loop $-1 $-1 $96 $90 #
plane-surface $-1 58.276924954985198 0 0 -1 0 0 0 0 1 forward_v I I I I #
coedge $-1 $253 $169 $254 $255 reversed $91 $-1 #
coedge $-1 $256 $93 $253 $257 forward $57 $-1 #
coedge $-1 $93 $256 $258 $259 reversed $57 $-1 #
coedge $-1 $172 $171 $93 $165 forward $159 $-1 #
edge $-1 $260 9.9659264431920871 $261 15.259459691152946 $164 $262 forward 7 unknown #
coedge $-1 $95 $94 $263 $264 reversed $37 $-1 #
coedge $-1 $265 $266 $94 $168 forward $267 $-1 #
edge $-1 $268 -58.276924954985198 $173 58.276924954985198 $167 $269 forward 7 unknown #
coedge $-1 $161 $270 $95 $170 reversed $91 $-1 #
edge $-1 $271 -58.276924954985198 $174 58.276924954985198 $169 $272 forward 7 unknown #
coedge $-1 $164 $96 $270 $273 forward $159 $-1 #
coedge $-1 $96 $164 $265 $274 reversed $159 $-1 #
vertex $-1 $274 $275 #
vertex $-1 $97 $276 #
straight-curve $-1 58.276924954985198 12.612693067172517 3.5697424933045219 0 -1 0 I I #
face $-1 $-1 $277 $21 $-1 $278 forward single #
loop $-1 $-1 $104 $98 #
plane-surface $-1 -58.276924954985198 0 0 1 0 0 0 0 -1 forward_v I I I I #
coedge $-1 $279 $280 $281 $282 reversed $99 $-1 #
coedge $-1 $283 $101 $103 $186 forward $61 $-1 #
coedge $-1 $101 $283 $279 $284 forward $61 $-1 #
coedge $-1 $281 $104 $101 $183 forward $177 $-1 #
edge $-1 $189 -1.6371959348467069 $285 5.6466547408472341 $182 $286 forward 7 unknown #
coedge $-1 $287 $288 $102 $185 forward $277 $-1 #
edge $-1 $289 -13.134879535542666 $188 -5.1158549976235079 $184 $290 forward 7 unknown #
edge $-1 $189 -8.7828746355274299e-015 $289 9.9120595089518364 $103 $291 forward 7 unknown #
coedge $-1 $104 $281 $287 $292 reversed $177 $-1 #
vertex $-1 $292 $293 #
vertex $-1 $105 $294 #
straight-curve $-1 -58.276924954985198 -0.3675334681535567 47.388367557678379 0 0 -1 I I #
coedge $-1 $191 $191 $-1 $295 reversed $108 $-1 #
edge $-1 $296 0 $296 6.2831853071796004 $109 $297 forward 7 unknown #
vertex $-1 $112 $298 #
ellipse-curve $-1 -54.267412686025622 -5.5702839507920849 3.3957716510838427 -0.5877852598018023 0 0.80901698891910034 0.40450849445955017 0 0.29389262990090115 1 I I #
coedge $-1 $195 $195 $-1 $299 reversed $115 $-1 #
edge $-1 $300 0 $300 6.2831853071796004 $116 $301 forward 7 unknown #
vertex $-1 $119 $302 #
ellipse-curve $-1 -54.267412686025622 -2.4486336612089659 3.3957716510838427 -0.5877852598018023 0 0.80901698891910034 0.40450849445955017 0 0.29389262990090115 1 I I #
face $-1 $-1 $135 $18 $-1 $303 reversed single #
loop $-1 $-1 $215 $120 #
plane-surface $-1 0 27.872152758325466 0 0 -1 0 0 0 -1 forward_v I I I I #
coedge $-1 $304 $213 $216 $305 forward $121 $-1 #
coedge $-1 $219 $123 $124 $207 reversed $75 $-1 #
coedge $-1 $213 $304 $123 $205 reversed $121 $-1 #
edge $-1 $220 -6.3088528879039378 $306 6.3088528879039378 $204 $307 forward 7 unknown #
coedge $-1 $125 $124 $304 $308 forward $49 $-1 #
edge $-1 $211 -58.276924954985198 $306 58.276924954985198 $203 $309 forward 7 unknown #
coedge $-1 $216 $215 $125 $209 reversed $200 $-1 #
edge $-1 $310 -58.276924954985198 $210 58.276924954985198 $208 $311 forward 7 unknown #
vertex $-1 $127 $312 #
vertex $-1 $222 $313 #
straight-curve $-1 58.276924954985198 0 -6.3088528879039378 0 -1 0 I I #
coedge $-1 $202 $204 $128 $214 reversed $121 $-1 #
edge $-1 $217 -27.872152758325466 $220 27.872152758325466 $213 $314 forward 7 unknown #
coedge $-1 $208 $129 $134 $223 forward $200 $-1 #
coedge $-1 $129 $208 $202 $305 reversed $200 $-1 #
vertex $-1 $130 $315 #
straight-curve $-1 0 27.872152758325466 6.3088528879039378 -1 0 0 I I #
coedge $-1 $131 $203 $133 $222 reversed $75 $-1 #
vertex $-1 $214 $316 #
straight-curve $-1 0 -27.872152758325466 6.3088528879039378 1 0 0 I I #
edge $-1 $136 -6.3088528879039378 $211 6.3088528879039378 $133 $317 forward 7 unknown #
edge $-1 $137 -6.3088528879039378 $210 6.3088528879039378 $134 $318 forward 7 unknown #
point $-1 58.276924954985198 -27.872152758325466 6.3088528879039378 #
point $-1 58.276924954985198 27.872152758325466 6.3088528879039378 #
face $-1 $-1 $154 $19 $-1 $319 reversed single #
loop $-1 $-1 $150 $139 #
plane-surface $-1 0 -27.872152758325466 0 0 1 0 0 0 1 forward_v I I I I #
coedge $-1 $320 $321 $147 $239 forward $140 $-1 #
coedge $-1 $240 $142 $144 $235 reversed $83 $-1 #
edge $-1 $237 -0.46512875334773973 $155 2.5348712466522612 $153 $322 forward 7 unknown #
coedge $-1 $144 $143 $323 $324 reversed $53 $-1 #
coedge $-1 $244 $243 $143 $234 forward $227 $-1 #
edge $-1 $325 -58.276924954985198 $236 58.276924954985198 $233 $326 forward 7 unknown #
edge $-1 $327 -58.276924954985198 $237 58.276924954985198 $230 $328 forward 7 unknown #
vertex $-1 $234 $329 #
vertex $-1 $146 $330 #
straight-curve $-1 58.276924954985198 -12.612693067172518 0.56974249330452098 0 1 0 I I #
edge $-1 $245 -15.259459691152948 $241 -9.9659264431920889 $229 $331 forward 7 unknown #
coedge $-1 $148 $230 $320 $332 reversed $83 $-1 #
vertex $-1 $239 $333 #
straight-curve $-1 0 -22.578619510364607 3.5697424933045219 -1 0 0 I I #
coedge $-1 $233 $150 $321 $334 forward $227 $-1 #
coedge $-1 $150 $233 $152 $247 reversed $227 $-1 #
vertex $-1 $334 $335 #
straight-curve $-1 0 -27.872152758325466 3.5697424933045219 -1 0 0 I I #
edge $-1 $156 -3.5697424933045219 $236 -0.56974249330452098 $152 $336 forward 7 unknown #
point $-1 58.276924954985198 -22.578619510364607 3.5697424933045219 #
point $-1 58.276924954985198 -27.872152758325466 3.5697424933045219 #
face $-1 $-1 $267 $20 $-1 $337 reversed single #
loop $-1 $-1 $263 $158 #
plane-surface $-1 -58.276924954985198 0 0 1 0 0 0 0 -1 forward_v I I I I #
coedge $-1 $270 $161 $162 $257 reversed $91 $-1 #
coedge $-1 $263 $338 $161 $255 forward $251 $-1 #
edge $-1 $339 -0.46512875334773973 $271 2.5348712466522612 $254 $340 forward 7 unknown #
coedge $-1 $163 $162 $338 $341 reversed $57 $-1 #
edge $-1 $260 -58.276924954985198 $339 58.276924954985198 $253 $342 forward 7 unknown #
coedge $-1 $266 $265 $163 $259 forward $267 $-1 #
edge $-1 $261 -58.276924954985198 $343 58.276924954985198 $258 $344 forward 7 unknown #
vertex $-1 $165 $345 #
vertex $-1 $259 $346 #
straight-curve $-1 58.276924954985198 12.612693067172517 0.56974249330452098 0 1 0 I I #
coedge $-1 $347 $254 $166 $264 forward $251 $-1 #
edge $-1 $271 9.9659264431920871 $268 15.259459691152946 $263 $348 forward 7 unknown #
coedge $-1 $258 $167 $172 $274 forward $267 $-1 #
coedge $-1 $167 $258 $347 $349 reversed $267 $-1 #
loop $-1 $-1 $167 $250 #
vertex $-1 $349 $350 #
straight-curve $-1 0 27.872152758325466 3.5697424933045219 1 0 0 I I #
coedge $-1 $169 $253 $171 $273 reversed $91 $-1 #
vertex $-1 $264 $351 #
straight-curve $-1 0 22.578619510364604 3.5697424933045219 1 0 0 I I #
edge $-1 $174 -2.5348712466522612 $260 0.46512875334773973 $171 $352 forward 7 unknown #
edge $-1 $173 -3.5697424933045219 $261 -0.56974249330452098 $172 $353 forward 7 unknown #
point $-1 58.276924954985198 27.872152758325463 3.5697424933045219 #
point $-1 58.276924954985198 22.578619510364604 3.5697424933045219 #
loop $-1 $-1 $184 $176 #
plane-surface $-1 0 0 6.3088528879039378 0 0 1 1 0 0 forward_v I I I I #
coedge $-1 $280 $179 $181 $284 reversed $99 $-1 #
coedge $-1 $179 $279 $354 $355 reversed $99 $-1 #
coedge $-1 $187 $182 $179 $282 forward $177 $-1 #
edge $-1 $285 -46.905677143414628 $356 -41.07951466977444 $281 $357 forward 7 unknown #
coedge $-1 $181 $180 $288 $358 reversed $61 $-1 #
edge $-1 $359 -9.9120595089518364 $285 8.7828746355274299e-015 $279 $360 forward 7 unknown #
vertex $-1 $183 $361 #
straight-curve $-1 -58.276924954985198 -2.0047294030002636 0.48269041426374704 0 -1 0 I I #
coedge $-1 $354 $184 $187 $292 forward $277 $-1 #
coedge $-1 $184 $354 $283 $358 forward $277 $-1 #
vertex $-1 $185 $362 #
straight-curve $-1 -63.392779952608706 -0.3675334681535567 6.3088528879039387 -1 0 0 I I #
straight-curve $-1 -58.276924954985191 -0.3675334681535567 0.48269041426375736 0.80901698891910034 0 0.5877852598018023 I I #
edge $-1 $188 0.3675334681535567 $356 7.6513841438474977 $187 $363 forward 7 unknown #
point $-1 -58.276924954985198 -0.3675334681535567 6.3088528879039378 #
point $-1 -58.276924954985198 -0.3675334681535567 0.4826904142637522 #
edge $-1 $364 1 $364 0 $191 $-1 forward 7 unknown #
vertex $-1 $192 $365 #
ellipse-curve $-1 -53.145199729069823 -5.5702839507920849 1.851178056360977 -0.5877852598018023 0 0.80901698891910034 0.40450849445955017 0 0.29389262990090115 1 I I #
point $-1 -53.862904191566081 -5.5702839507920849 3.6896642809847533 #
edge $-1 $366 1 $366 0 $195 $-1 forward 7 unknown #
vertex $-1 $196 $367 #
ellipse-curve $-1 -53.145199729069823 -2.4486336612089659 1.851178056360977 -0.5877852598018023 0 0.80901698891910034 0.40450849445955017 0 0.29389262990090115 1 I I #
point $-1 -53.862904191566081 -2.4486336612089659 3.6896642809847533 #
plane-surface $-1 58.276924954985198 0 0 -1 0 0 0 0 1 forward_v I I I I #
coedge $-1 $204 $202 $206 $308 reversed $121 $-1 #
edge $-1 $217 -6.3088528879039378 $310 6.3088528879039378 $216 $368 forward 7 unknown #
vertex $-1 $308 $369 #
straight-curve $-1 -58.276924954985198 -27.872152758325466 0 0 0 -1 I I #
edge $-1 $306 -27.872152758325466 $310 27.872152758325466 $304 $370 forward 7 unknown #
straight-curve $-1 0 -27.872152758325466 -6.3088528879039378 -1 0 0 I I #
vertex $-1 $209 $371 #
straight-curve $-1 0 27.872152758325466 -6.3088528879039378 1 0 0 I I #
point $-1 58.276924954985198 27.872152758325466 -6.3088528879039378 #
point $-1 58.276924954985198 -27.872152758325466 -6.3088528879039378 #
straight-curve $-1 -58.276924954985198 0 6.3088528879039378 0 -1 0 I I #
point $-1 -58.276924954985198 27.872152758325466 6.3088528879039378 #
point $-1 -58.276924954985198 -27.872152758325466 6.3088528879039378 #
straight-curve $-1 58.276924954985198 -27.872152758325466 0 0 0 -1 I I #
straight-curve $-1 58.276924954985198 27.872152758325466 0 0 0 -1 I I #
plane-surface $-1 58.276924954985198 0 0 -1 0 0 0 0 1 forward_v I I I I #
coedge $-1 $323 $229 $240 $332 forward $140 $-1 #
coedge $-1 $229 $323 $243 $334 reversed $140 $-1 #
straight-curve $-1 58.276924954985198 -22.578619510364607 1.0348712466522607 0 0 1 I I #
coedge $-1 $321 $320 $232 $324 forward $140 $-1 #
edge $-1 $327 9.9659264431920889 $325 15.259459691152948 $323 $372 forward 7 unknown #
vertex $-1 $234 $373 #
straight-curve $-1 0 -27.872152758325466 0.56974249330452098 1 0 0 I I #
vertex $-1 $324 $374 #
straight-curve $-1 0 -22.578619510364607 0.56974249330452098 1 0 0 I I #
point $-1 58.276924954985198 -27.872152758325466 0.56974249330452098 #
point $-1 58.276924954985198 -22.578619510364607 0.56974249330452098 #
straight-curve $-1 -58.276924954985198 -12.612693067172518 3.5697424933045219 0 1 0 I I #
edge $-1 $241 -2.5348712466522612 $327 0.46512875334773973 $320 $375 forward 7 unknown #
point $-1 -58.276924954985198 -22.578619510364607 3.5697424933045219 #
edge $-1 $245 -3.5697424933045219 $325 -0.56974249330452098 $321 $376 forward 7 unknown #
point $-1 -58.276924954985198 -27.872152758325466 3.5697424933045219 #
straight-curve $-1 58.276924954985198 -27.872152758325466 0 0 0 -1 I I #
plane-surface $-1 0 27.872152758325466 0 0 -1 0 0 0 -1 forward_v I I I I #
coedge $-1 $254 $347 $256 $341 forward $251 $-1 #
vertex $-1 $341 $377 #
straight-curve $-1 -58.276924954985198 22.578619510364604 1.0348712466522607 0 0 1 I I #
edge $-1 $343 -15.259459691152946 $339 -9.9659264431920871 $338 $378 forward 7 unknown #
straight-curve $-1 0 22.578619510364604 0.56974249330452098 -1 0 0 I I #
vertex $-1 $259 $379 #
straight-curve $-1 0 27.872152758325466 0.56974249330452098 -1 0 0 I I #
point $-1 58.276924954985198 22.578619510364604 0.56974249330452098 #
point $-1 58.276924954985198 27.872152758325463 0.56974249330452098 #
coedge $-1 $338 $263 $266 $349 forward $251 $-1 #
straight-curve $-1 -58.276924954985198 12.612693067172517 3.5697424933045219 0 1 0 I I #
edge $-1 $268 -3.5697424933045219 $343 -0.56974249330452098 $266 $380 forward 7 unknown #
point $-1 -58.276924954985198 27.872152758325463 3.5697424933045219 #
point $-1 -58.276924954985198 22.578619510364604 3.5697424933045219 #
straight-curve $-1 58.276924954985198 22.578619510364604 1.0348712466522607 0 0 -1 I I #
straight-curve $-1 58.276924954985198 27.872152758325466 0 0 0 -1 I I #
coedge $-1 $288 $287 $280 $355 forward $277 $-1 #
edge $-1 $356 5.1158549976235079 $359 13.134879535542666 $354 $381 forward 7 unknown #
vertex $-1 $355 $382 #
straight-curve $-1 -58.276924954985198 -7.6513841438474977 47.388367557678379 0 0 1 I I #
edge $-1 $359 -5.6466547408472341 $289 1.6371959348467069 $288 $383 forward 7 unknown #
vertex $-1 $358 $384 #
straight-curve $-1 -58.276924954985191 -7.6513841438474977 0.48269041426375736 -0.80901698891910034 0 -0.5877852598018023 I I #
point $-1 -58.276924954985198 -7.6513841438474977 0.4826904142637522 #
point $-1 -50.25790041706604 -0.3675334681535567 6.3088528879039378 #
straight-curve $-1 -58.276924954985198 0 6.3088528879039378 0 -1 0 I I #
vertex $-1 $295 $385 #
point $-1 -52.740691234610274 -5.5702839507920849 2.145070686261878 #
vertex $-1 $299 $386 #
point $-1 -52.740691234610274 -2.4486336612089659 2.145070686261878 #
straight-curve $-1 -58.276924954985198 27.872152758325466 0 0 0 -1 I I #
point $-1 -58.276924954985198 -27.872152758325466 -6.3088528879039378 #
straight-curve $-1 -58.276924954985198 0 -6.3088528879039378 0 1 0 I I #
point $-1 -58.276924954985198 27.872152758325466 -6.3088528879039378 #
straight-curve $-1 -58.276924954985198 -12.612693067172518 0.56974249330452098 0 -1 0 I I #
point $-1 -58.276924954985198 -27.872152758325466 0.56974249330452098 #
point $-1 -58.276924954985198 -22.578619510364607 0.56974249330452098 #
straight-curve $-1 -58.276924954985198 -22.578619510364607 1.0348712466522607 0 0 -1 I I #
straight-curve $-1 -58.276924954985198 -27.872152758325466 0 0 0 -1 I I #
point $-1 -58.276924954985198 22.578619510364604 0.56974249330452098 #
straight-curve $-1 -58.276924954985198 12.612693067172517 0.56974249330452098 0 -1 0 I I #
point $-1 -58.276924954985198 27.872152758325463 0.56974249330452098 #
straight-curve $-1 -58.276924954985198 27.872152758325466 0 0 0 -1 I I #
straight-curve $-1 -63.392779952608706 -7.6513841438474977 6.3088528879039387 1 0 0 I I #
point $-1 -58.276924954985198 -7.6513841438474977 6.3088528879039378 #
straight-curve $-1 -50.25790041706604 -2.0047294030002636 6.3088528879039369 0 1 0 I I #
point $-1 -50.25790041706604 -7.6513841438474977 6.3088528879039378 #
point $-1 -52.851307099168928 -5.5702839507920849 1.4466695619014269 #
point $-1 -52.851307099168928 -2.4486336612089659 1.4466695619014269 #
End-of-ACIS-data 