500 0 6 0           
7 Unknown 11 ACIS 5.0 NT 24 Fri Mar 26 01:19:31 1999 
-1 9.9999999999999995e-007 1e-010 
body $-1 $6 $-1 $7 #
body $-1 $8 $-1 $9 #
body $-1 $10 $-1 $11 #
body $-1 $12 $-1 $13 #
body $-1 $14 $-1 $15 #
body $-1 $16 $-1 $17 #
lump $-1 $-1 $18 $0 #
transform $-1 1 0 0 0 1 0 0 0 1 76.356089968565939 35.624064619722645 16.930101061363779 1 rotate no_reflect no_shear #
lump $-1 $-1 $19 $1 #
transform $-1 1 0 0 0 1 0 0 0 1 76.356089968565939 35.624064619722645 16.930101061363779 1 rotate no_reflect no_shear #
lump $-1 $-1 $20 $2 #
transform $-1 1 0 0 0 1 0 0 0 1 76.356089968565939 35.624064619722645 16.930101061363779 1 rotate no_reflect no_shear #
lump $-1 $-1 $21 $3 #
transform $-1 1 0 0 0 1 0 0 0 1 76.356089968565939 35.624064619722645 16.930101061363779 1 rotate no_reflect no_shear #
lump $-1 $-1 $22 $4 #
transform $-1 1 0 0 0 1 0 0 0 1 76.356089968565939 35.624064619722645 16.930101061363779 1 rotate no_reflect no_shear #
lump $-1 $-1 $23 $5 #
transform $-1 1 0 0 0 1 0 0 0 1 76.356089968565939 35.624064619722645 16.930101061363779 1 rotate no_reflect no_shear #
shell $-1 $-1 $-1 $24 $-1 $6 #
shell $-1 $-1 $-1 $25 $-1 $8 #
shell $-1 $-1 $-1 $26 $-1 $10 #
shell $-1 $-1 $-1 $27 $-1 $12 #
shell $-1 $-1 $-1 $28 $-1 $14 #
shell $-1 $-1 $-1 $29 $-1 $16 #
face $-1 $30 $31 $18 $-1 $32 forward single #
face $-1 $33 $34 $19 $-1 $35 reversed single #
face $-1 $36 $37 $20 $-1 $38 reversed single #
face $-1 $39 $40 $21 $-1 $41 reversed single #
face $-1 $42 $43 $22 $-1 $44 forward single #
face $-1 $45 $46 $23 $-1 $47 forward single #
face $-1 $48 $49 $18 $-1 $50 reversed single #
loop $-1 $-1 $51 $24 #
plane-surface $-1 0 0 16.930101061363779 0 0 1 1 0 0 forward_v I I I I #
face $-1 $52 $53 $19 $-1 $54 reversed single #
loop $-1 $-1 $55 $25 #
plane-surface $-1 -73.59354926161096 -23.125716023878383 0 0 -1 0 0 0 -1 forward_v I I I I #
face $-1 $56 $57 $20 $-1 $58 reversed single #
loop $-1 $-1 $59 $26 #
plane-surface $-1 -73.59354926161096 23.125716023878375 0 0 1 0 0 0 1 forward_v I I I I #
face $-1 $60 $61 $21 $-1 $62 reversed single #
loop $-1 $-1 $63 $27 #
plane-surface $-1 -180.50554748551548 1.9463503521697056 114.94350660730271 0 1 0 -0.68199836817093118 0 0.7313536940579346 forward_v I I I I #
face $-1 $64 $65 $22 $-1 $66 forward single #
loop $-1 $67 $68 $28 #
cone-surface $-1 -67.463148116367293 5.4576028941235819 8.4189058885562602 0.68199836817093118 0 -0.7313536940579346 1.0970305410869019 0 1.0229975522563968 1 I I 0 1 1.5 forward I I I I #
face $-1 $69 $70 $23 $-1 $71 forward single #
loop $-1 $72 $73 $29 #
cone-surface $-1 -67.463148116367293 10.724481707054402 8.4189058885562602 0.68199836817093118 0 -0.7313536940579346 1.0970305410869019 0 1.0229975522563968 1 I I 0 1 1.5 forward I I I I #
face $-1 $74 $75 $18 $-1 $76 reversed single #
loop $-1 $-1 $77 $30 #
plane-surface $-1 0 0 -16.930101061363779 0 0 1 1 0 0 forward_v I I I I #
coedge $-1 $78 $79 $80 $81 forward $31 $-1 #
face $-1 $82 $83 $19 $-1 $84 forward single #
loop $-1 $-1 $85 $33 #
plane-surface $-1 -70.83100855465598 -29.374890321800514 0 -1 0 0 0 0 1 forward_v I I I I #
coedge $-1 $86 $87 $88 $89 forward $34 $-1 #
face $-1 $90 $91 $20 $-1 $92 reversed single #
loop $-1 $-1 $93 $36 #
plane-surface $-1 -70.83100855465598 29.374890321800507 0 -1 0 0 0 0 1 forward_v I I I I #
coedge $-1 $94 $95 $96 $97 reversed $37 $-1 #
face $-1 $98 $99 $21 $-1 $100 reversed single #
loop $-1 $-1 $101 $39 #
plane-surface $-1 -76.356089968565925 8.0910423005889953 3.256889682641301 -0.68199836817093118 0 0.7313536940579346 0.7313536940579346 0 0.68199836817093118 forward_v I I I I #
coedge $-1 $102 $103 $104 $105 reversed $40 $-1 #
face $-1 $-1 $106 $22 $-1 $107 forward single #
loop $-1 $108 $109 $42 #
cone-surface $-1 -65.390069349127288 5.4576028941235819 6.1958011345665156 0.68199836817093118 0 -0.7313536940579346 0.54851527054345095 0 0.51149877612819838 1 I I -0.70710678118654757 0.70710678118654757 0.75 forward I I I I #
loop $-1 $-1 $110 $28 #
coedge $-1 $68 $68 $111 $112 reversed $43 $-1 #
face $-1 $-1 $113 $23 $-1 $114 forward single #
loop $-1 $115 $116 $45 #
cone-surface $-1 -65.390069349127288 10.724481707054402 6.1958011345665156 0.68199836817093118 0 -0.7313536940579346 0.54851527054345095 0 0.51149877612819838 1 I I -0.70710678118654757 0.70710678118654757 0.75 forward I I I I #
loop $-1 $-1 $117 $29 #
coedge $-1 $73 $73 $118 $119 reversed $46 $-1 #
face $-1 $120 $121 $18 $-1 $122 reversed single #
loop $-1 $-1 $123 $48 #
plane-surface $-1 0 -35.624064619722645 0 0 1 0 0 0 1 forward_v I I I I #
coedge $-1 $124 $125 $126 $127 forward $49 $-1 #
coedge $-1 $128 $51 $129 $130 forward $31 $-1 #
coedge $-1 $51 $128 $131 $132 forward $31 $-1 #
coedge $-1 $133 $134 $51 $81 reversed $135 $-1 #
edge $-1 $136 -35.624064619722645 $137 35.624064619722645 $80 $138 forward 7 unknown #
face $-1 $139 $140 $19 $-1 $141 reversed single #
loop $-1 $-1 $142 $52 #
plane-surface $-1 0 0 16.930101061363779 0 0 1 1 0 0 forward_v I I I I #
coedge $-1 $143 $144 $145 $146 reversed $53 $-1 #
coedge $-1 $147 $55 $148 $149 reversed $34 $-1 #
coedge $-1 $55 $147 $150 $151 reversed $34 $-1 #
coedge $-1 $144 $143 $55 $89 reversed $53 $-1 #
edge $-1 $152 -16.930101061363779 $153 16.930101061363779 $88 $154 forward 7 unknown #
face $-1 $155 $156 $20 $-1 $157 reversed single #
loop $-1 $-1 $158 $56 #
plane-surface $-1 0 0 -16.930101061363779 0 0 1 1 0 0 forward_v I I I I #
coedge $-1 $159 $160 $161 $162 forward $57 $-1 #
coedge $-1 $161 $59 $163 $164 reversed $37 $-1 #
coedge $-1 $59 $161 $165 $166 reversed $37 $-1 #
coedge $-1 $167 $168 $59 $97 forward $156 $-1 #
edge $-1 $169 -16.930101061363779 $170 16.930101061363779 $96 $171 forward 7 unknown #
face $-1 $172 $173 $21 $-1 $174 forward single #
loop $-1 $-1 $175 $60 #
plane-surface $-1 -180.50554748551548 14.235734249008285 114.94350660730271 0 -1 0 0.68199836817093118 0 -0.7313536940579346 forward_v I I I I #
coedge $-1 $176 $177 $178 $179 reversed $61 $-1 #
coedge $-1 $103 $63 $180 $181 reversed $40 $-1 #
coedge $-1 $63 $102 $176 $182 reversed $40 $-1 #
coedge $-1 $178 $183 $63 $105 forward $173 $-1 #
edge $-1 $184 13.8966837741918 $185 28.559407496365516 $104 $186 forward 7 unknown #
loop $-1 $-1 $111 $64 #
plane-surface $-1 -76.356089968565925 8.0910423005889953 3.256889682641301 -0.68199836817093118 0 0.7313536940579346 0.7313536940579346 0 0.68199836817093118 forward_v I I I I #
loop $-1 $-1 $187 $42 #
coedge $-1 $109 $109 $110 $188 reversed $65 $-1 #
coedge $-1 $110 $110 $109 $188 forward $67 $-1 #
coedge $-1 $111 $111 $68 $112 forward $106 $-1 #
edge $-1 $189 0 $189 6.2831853071796004 $111 $190 forward 7 unknown #
loop $-1 $-1 $118 $69 #
plane-surface $-1 -76.356089968565925 8.0910423005889953 3.256889682641301 -0.68199836817093118 0 0.7313536940579346 0.7313536940579346 0 0.68199836817093118 forward_v I I I I #
loop $-1 $-1 $191 $45 #
coedge $-1 $116 $116 $117 $192 reversed $70 $-1 #
coedge $-1 $117 $117 $116 $192 forward $72 $-1 #
coedge $-1 $118 $118 $73 $119 forward $113 $-1 #
edge $-1 $193 0 $193 6.2831853071796004 $118 $194 forward 7 unknown #
face $-1 $195 $196 $18 $-1 $197 reversed single #
loop $-1 $-1 $198 $74 #
plane-surface $-1 -76.356089968565939 0 0 1 0 0 0 0 -1 forward_v I I I I #
coedge $-1 $199 $131 $200 $201 forward $75 $-1 #
coedge $-1 $202 $77 $199 $203 forward $49 $-1 #
coedge $-1 $77 $202 $204 $205 forward $49 $-1 #
coedge $-1 $134 $133 $77 $127 reversed $135 $-1 #
edge $-1 $206 -35.624064619722645 $207 35.624064619722645 $126 $208 forward 7 unknown #
coedge $-1 $79 $78 $209 $210 forward $31 $-1 #
coedge $-1 $211 $212 $78 $130 reversed $196 $-1 #
edge $-1 $137 -76.356089968565939 $213 76.356089968565939 $129 $214 forward 7 unknown #
coedge $-1 $123 $215 $79 $132 reversed $75 $-1 #
edge $-1 $216 -76.356089968565939 $136 76.356089968565939 $131 $217 forward 7 unknown #
coedge $-1 $126 $80 $215 $218 forward $135 $-1 #
coedge $-1 $80 $126 $211 $219 reversed $135 $-1 #
loop $-1 $-1 $133 $195 #
vertex $-1 $81 $220 #
vertex $-1 $81 $221 #
straight-curve $-1 76.356089968565939 0 16.930101061363779 0 1 0 I I #
face $-1 $222 $223 $19 $-1 $224 reversed single #
loop $-1 $-1 $225 $82 #
plane-surface $-1 -76.356089968565939 0 0 1 0 0 0 0 -1 forward_v I I I I #
coedge $-1 $150 $226 $144 $227 forward $83 $-1 #
coedge $-1 $88 $85 $228 $229 reversed $53 $-1 #
coedge $-1 $85 $88 $142 $227 reversed $53 $-1 #
coedge $-1 $230 $231 $85 $146 forward $232 $-1 #
edge $-1 $233 -16.930101061363779 $234 16.930101061363779 $145 $235 forward 7 unknown #
coedge $-1 $87 $86 $225 $236 reversed $34 $-1 #
coedge $-1 $228 $237 $86 $149 forward $223 $-1 #
edge $-1 $238 -39.559315337760459 $153 -34.034233923850501 $148 $239 forward 7 unknown #
coedge $-1 $240 $142 $87 $151 forward $83 $-1 #
edge $-1 $152 34.034233923850501 $241 39.559315337760459 $150 $242 forward 7 unknown #
vertex $-1 $151 $243 #
vertex $-1 $149 $244 #
straight-curve $-1 -70.83100855465598 -23.125716023878383 0 0 0 -1 I I #
face $-1 $245 $246 $20 $-1 $247 forward single #
loop $-1 $-1 $96 $90 #
plane-surface $-1 -76.356089968565939 0 0 1 0 0 0 0 -1 forward_v I I I I #
coedge $-1 $163 $248 $159 $249 forward $91 $-1 #
coedge $-1 $250 $93 $158 $249 reversed $57 $-1 #
coedge $-1 $93 $250 $251 $252 reversed $57 $-1 #
coedge $-1 $95 $94 $93 $162 reversed $37 $-1 #
edge $-1 $253 -16.930101061363779 $254 16.930101061363779 $93 $255 forward 7 unknown #
coedge $-1 $256 $158 $94 $164 forward $91 $-1 #
edge $-1 $254 34.034233923850501 $169 39.559315337760459 $163 $257 forward 7 unknown #
coedge $-1 $251 $258 $95 $166 forward $246 $-1 #
edge $-1 $170 -39.559315337760459 $253 -34.034233923850501 $165 $259 forward 7 unknown #
coedge $-1 $260 $96 $258 $261 reversed $156 $-1 #
coedge $-1 $96 $260 $256 $262 reversed $156 $-1 #
vertex $-1 $262 $263 #
vertex $-1 $97 $264 #
straight-curve $-1 -76.356089968565939 23.125716023878375 0 0 0 1 I I #
face $-1 $-1 $265 $21 $-1 $266 reversed single #
loop $-1 $-1 $104 $98 #
plane-surface $-1 0 0 16.930101061363779 0 0 1 1 0 0 forward_v I I I I #
coedge $-1 $267 $268 $269 $270 reversed $99 $-1 #
coedge $-1 $271 $101 $103 $182 forward $61 $-1 #
coedge $-1 $101 $271 $267 $272 forward $61 $-1 #
coedge $-1 $269 $104 $101 $179 forward $173 $-1 #
edge $-1 $185 -2.099170798124792 $273 10.190213098713787 $178 $274 forward 7 unknown #
coedge $-1 $275 $276 $102 $181 forward $265 $-1 #
edge $-1 $277 -54.214863621010068 $184 -40.541652242287576 $180 $278 forward 7 unknown #
edge $-1 $185 -20.048745007107584 $277 1.9479204584885432e-014 $103 $279 forward 7 unknown #
coedge $-1 $104 $269 $275 $280 forward $173 $-1 #
vertex $-1 $105 $281 #
vertex $-1 $105 $282 #
straight-curve $-1 -90.252773742757739 1.9463503521697056 16.930101061363779 1 0 0 I I #
coedge $-1 $187 $187 $-1 $283 reversed $108 $-1 #
edge $-1 $284 0 $284 6.2831853071796004 $109 $285 forward 7 unknown #
vertex $-1 $112 $286 #
ellipse-curve $-1 -69.024728107479078 5.4576028941235819 10.093495372002534 -0.68199836817093118 0 0.7313536940579346 1.0970305410869019 0 1.0229975522563968 1 I I #
coedge $-1 $191 $191 $-1 $287 reversed $115 $-1 #
edge $-1 $288 0 $288 6.2831853071796004 $116 $289 forward 7 unknown #
vertex $-1 $119 $290 #
ellipse-curve $-1 -69.024728107479078 10.724481707054402 10.093495372002534 -0.68199836817093118 0 0.7313536940579346 1.0970305410869019 0 1.0229975522563968 1 I I #
face $-1 $-1 $135 $18 $-1 $291 reversed single #
loop $-1 $-1 $211 $120 #
plane-surface $-1 0 35.624064619722645 0 0 -1 0 0 0 -1 forward_v I I I I #
coedge $-1 $292 $209 $212 $293 forward $121 $-1 #
coedge $-1 $215 $123 $124 $203 reversed $75 $-1 #
coedge $-1 $209 $292 $123 $201 reversed $121 $-1 #
edge $-1 $216 -16.930101061363779 $294 16.930101061363779 $200 $295 forward 7 unknown #
coedge $-1 $125 $124 $292 $296 forward $49 $-1 #
edge $-1 $207 -76.356089968565939 $294 76.356089968565939 $199 $297 forward 7 unknown #
coedge $-1 $212 $211 $125 $205 reversed $196 $-1 #
edge $-1 $298 -76.356089968565939 $206 76.356089968565939 $204 $299 forward 7 unknown #
vertex $-1 $127 $300 #
vertex $-1 $218 $301 #
straight-curve $-1 76.356089968565939 0 -16.930101061363779 0 -1 0 I I #
coedge $-1 $198 $200 $128 $210 reversed $121 $-1 #
edge $-1 $213 -35.624064619722645 $216 35.624064619722645 $209 $302 forward 7 unknown #
coedge $-1 $204 $129 $134 $219 forward $196 $-1 #
coedge $-1 $129 $204 $198 $293 reversed $196 $-1 #
vertex $-1 $130 $303 #
straight-curve $-1 0 35.624064619722645 16.930101061363779 -1 0 0 I I #
coedge $-1 $131 $199 $133 $218 reversed $75 $-1 #
vertex $-1 $210 $304 #
straight-curve $-1 0 -35.624064619722645 16.930101061363779 1 0 0 I I #
edge $-1 $136 -16.930101061363779 $207 16.930101061363779 $133 $305 forward 7 unknown #
edge $-1 $137 -16.930101061363779 $206 16.930101061363779 $134 $306 forward 7 unknown #
point $-1 76.356089968565939 -35.624064619722645 16.930101061363779 #
point $-1 76.356089968565939 35.624064619722645 16.930101061363779 #
face $-1 $-1 $232 $19 $-1 $307 reversed single #
loop $-1 $-1 $228 $139 #
plane-surface $-1 0 0 -16.930101061363779 0 0 1 1 0 0 forward_v I I I I #
coedge $-1 $308 $309 $147 $236 forward $140 $-1 #
coedge $-1 $142 $240 $230 $310 forward $83 $-1 #
edge $-1 $234 -20.936619458822388 $152 -8.4382708629781256 $142 $311 forward 7 unknown #
coedge $-1 $312 $148 $143 $229 forward $223 $-1 #
edge $-1 $153 8.4382708629781256 $233 20.936619458822388 $228 $313 forward 7 unknown #
coedge $-1 $314 $145 $226 $310 reversed $232 $-1 #
coedge $-1 $145 $314 $312 $315 reversed $232 $-1 #
loop $-1 $-1 $145 $222 #
vertex $-1 $315 $316 #
vertex $-1 $146 $317 #
straight-curve $-1 -70.83100855465598 -35.624064619722645 0 0 0 1 I I #
edge $-1 $241 -16.930101061363779 $238 16.930101061363779 $225 $318 forward 7 unknown #
coedge $-1 $148 $312 $308 $319 forward $223 $-1 #
vertex $-1 $149 $320 #
straight-curve $-1 -36.79677463080548 -23.125716023878383 -16.930101061363779 1 0 0 I I #
coedge $-1 $226 $150 $309 $321 forward $83 $-1 #
vertex $-1 $321 $322 #
straight-curve $-1 -36.79677463080548 -23.125716023878383 16.930101061363779 -1 0 0 I I #
point $-1 -70.83100855465598 -23.125716023878383 16.930101061363779 #
point $-1 -70.83100855465598 -23.125716023878383 -16.930101061363779 #
face $-1 $-1 $323 $20 $-1 $324 reversed single #
loop $-1 $-1 $251 $155 #
plane-surface $-1 0 0 16.930101061363779 0 0 1 1 0 0 forward_v I I I I #
coedge $-1 $158 $256 $325 $326 forward $91 $-1 #
edge $-1 $327 -20.936619458822385 $254 -8.438270862978122 $158 $328 forward 7 unknown #
coedge $-1 $160 $159 $329 $330 reversed $57 $-1 #
coedge $-1 $331 $165 $160 $252 forward $246 $-1 #
edge $-1 $253 8.438270862978122 $332 20.936619458822385 $251 $333 forward 7 unknown #
vertex $-1 $166 $334 #
vertex $-1 $164 $335 #
straight-curve $-1 -70.83100855465598 23.125716023878375 0 0 0 -1 I I #
coedge $-1 $248 $163 $168 $262 forward $91 $-1 #
straight-curve $-1 -36.79677463080548 23.125716023878375 -16.930101061363779 -1 0 0 I I #
coedge $-1 $165 $331 $167 $261 forward $246 $-1 #
straight-curve $-1 -36.79677463080548 23.125716023878375 16.930101061363779 1 0 0 I I #
coedge $-1 $168 $167 $336 $337 forward $156 $-1 #
edge $-1 $338 -35.624064619722645 $170 -23.125716023878375 $167 $339 forward 7 unknown #
edge $-1 $169 23.125716023878375 $340 35.624064619722645 $168 $341 forward 7 unknown #
point $-1 -76.356089968565939 23.125716023878375 -16.930101061363779 #
point $-1 -76.356089968565939 23.125716023878375 16.930101061363779 #
loop $-1 $-1 $180 $172 #
plane-surface $-1 -76.356089968565939 0 0 1 0 0 0 0 -1 forward_v I I I I #
coedge $-1 $268 $175 $177 $272 reversed $99 $-1 #
coedge $-1 $175 $267 $342 $343 reversed $99 $-1 #
coedge $-1 $183 $178 $175 $270 forward $173 $-1 #
edge $-1 $273 -28.559407496365516 $344 -13.8966837741918 $269 $345 forward 7 unknown #
coedge $-1 $177 $176 $276 $346 reversed $61 $-1 #
edge $-1 $347 -1.9479204584885432e-014 $273 20.048745007107584 $267 $348 forward 7 unknown #
vertex $-1 $179 $349 #
straight-curve $-1 -61.693366246392223 4.0455211502944977 16.930101061363779 0 1 0 I I #
coedge $-1 $342 $180 $183 $280 reversed $265 $-1 #
coedge $-1 $180 $342 $271 $346 forward $265 $-1 #
vertex $-1 $181 $350 #
straight-curve $-1 -76.356089968565939 1.9463503521697056 57.471753303651354 0 0 1 I I #
straight-curve $-1 -76.356089968565925 1.9463503521697056 3.256889682641301 -0.7313536940579346 0 -0.68199836817093118 I I #
edge $-1 $344 -14.235734249008285 $184 -1.9463503521697056 $275 $351 forward 7 unknown #
point $-1 -76.356089968565939 1.9463503521697056 16.930101061363779 #
point $-1 -61.693366246392223 1.9463503521697056 16.930101061363779 #
edge $-1 $352 1 $352 0 $187 $-1 forward 7 unknown #
vertex $-1 $188 $353 #
ellipse-curve $-1 -65.90156812525548 5.4576028941235819 6.7443164051099664 -0.68199836817093118 0 0.7313536940579346 1.0970305410869019 0 1.0229975522563968 1 I I #
point $-1 -67.927697566392197 5.4576028941235819 11.116492924258948 #
edge $-1 $354 1 $354 0 $191 $-1 forward 7 unknown #
vertex $-1 $192 $355 #
ellipse-curve $-1 -65.90156812525548 10.724481707054402 6.7443164051099664 -0.68199836817093118 0 0.7313536940579346 1.0970305410869019 0 1.0229975522563968 1 I I #
point $-1 -67.927697566392197 10.724481707054402 11.116492924258948 #
plane-surface $-1 76.356089968565939 0 0 -1 0 0 0 0 1 forward_v I I I I #
coedge $-1 $200 $198 $202 $296 reversed $121 $-1 #
edge $-1 $213 -16.930101061363779 $298 16.930101061363779 $212 $356 forward 7 unknown #
vertex $-1 $296 $357 #
straight-curve $-1 -76.356089968565939 -35.624064619722645 0 0 0 -1 I I #
edge $-1 $294 -35.624064619722645 $298 35.624064619722645 $292 $358 forward 7 unknown #
straight-curve $-1 0 -35.624064619722645 -16.930101061363779 -1 0 0 I I #
vertex $-1 $205 $359 #
straight-curve $-1 0 35.624064619722645 -16.930101061363779 1 0 0 I I #
point $-1 76.356089968565939 35.624064619722645 -16.930101061363779 #
point $-1 76.356089968565939 -35.624064619722645 -16.930101061363779 #
straight-curve $-1 -76.356089968565939 0 16.930101061363779 0 -1 0 I I #
point $-1 -76.356089968565939 35.624064619722645 16.930101061363779 #
point $-1 -76.356089968565939 -35.624064619722645 16.930101061363779 #
straight-curve $-1 76.356089968565939 -35.624064619722645 0 0 0 -1 I I #
straight-curve $-1 76.356089968565939 35.624064619722645 0 0 0 -1 I I #
plane-surface $-1 0 -35.624064619722645 0 0 1 0 0 0 1 forward_v I I I I #
coedge $-1 $360 $225 $237 $319 reversed $140 $-1 #
coedge $-1 $225 $360 $240 $321 reversed $140 $-1 #
edge $-1 $361 -76.356089968565939 $234 -70.83100855465598 $230 $362 forward 7 unknown #
straight-curve $-1 -70.83100855465598 -14.687445160900257 16.930101061363779 0 1 0 I I #
coedge $-1 $237 $228 $231 $315 forward $223 $-1 #
straight-curve $-1 -70.83100855465598 -14.687445160900257 -16.930101061363779 0 -1 0 I I #
coedge $-1 $231 $230 $360 $363 forward $232 $-1 #
edge $-1 $233 70.83100855465598 $364 76.356089968565939 $231 $365 forward 7 unknown #
point $-1 -70.83100855465598 -35.624064619722645 -16.930101061363779 #
point $-1 -70.83100855465598 -35.624064619722645 16.930101061363779 #
straight-curve $-1 -76.356089968565939 -23.125716023878383 0 0 0 -1 I I #
edge $-1 $364 -35.624064619722645 $238 -23.125716023878383 $308 $366 forward 7 unknown #
point $-1 -76.356089968565939 -23.125716023878383 -16.930101061363779 #
edge $-1 $241 23.125716023878383 $361 35.624064619722645 $309 $367 forward 7 unknown #
point $-1 -76.356089968565939 -23.125716023878383 16.930101061363779 #
loop $-1 $-1 $329 $245 #
plane-surface $-1 0 35.624064619722645 0 0 -1 0 0 0 -1 forward_v I I I I #
coedge $-1 $336 $329 $248 $326 reversed $323 $-1 #
edge $-1 $340 -76.356089968565939 $327 -70.83100855465598 $325 $368 forward 7 unknown #
vertex $-1 $249 $369 #
straight-curve $-1 -70.83100855465598 14.687445160900253 -16.930101061363779 0 -1 0 I I #
coedge $-1 $325 $370 $250 $330 forward $323 $-1 #
edge $-1 $332 -16.930101061363779 $327 16.930101061363779 $329 $371 forward 7 unknown #
coedge $-1 $258 $251 $370 $372 forward $246 $-1 #
vertex $-1 $372 $373 #
straight-curve $-1 -70.83100855465598 14.687445160900253 16.930101061363779 0 1 0 I I #
point $-1 -70.83100855465598 23.125716023878375 16.930101061363779 #
point $-1 -70.83100855465598 23.125716023878375 -16.930101061363779 #
coedge $-1 $370 $325 $260 $337 reversed $323 $-1 #
edge $-1 $338 -16.930101061363779 $340 16.930101061363779 $336 $374 forward 7 unknown #
vertex $-1 $372 $375 #
straight-curve $-1 -76.356089968565939 0 16.930101061363779 0 -1 0 I I #
vertex $-1 $326 $376 #
straight-curve $-1 -76.356089968565939 0 -16.930101061363779 0 1 0 I I #
coedge $-1 $276 $275 $268 $343 forward $265 $-1 #
edge $-1 $344 40.541652242287576 $347 54.214863621010068 $342 $377 forward 7 unknown #
vertex $-1 $280 $378 #
straight-curve $-1 -90.252773742757739 14.235734249008285 16.930101061363779 -1 0 0 I I #
edge $-1 $347 -10.190213098713787 $277 2.099170798124792 $276 $379 forward 7 unknown #
vertex $-1 $346 $380 #
straight-curve $-1 -76.356089968565925 14.235734249008285 3.256889682641301 0.7313536940579346 0 0.68199836817093118 I I #
point $-1 -61.693366246392223 14.235734249008285 16.930101061363779 #
point $-1 -76.356089968565939 1.9463503521697056 3.2568896826412876 #
straight-curve $-1 -76.356089968565939 0 16.930101061363779 0 -1 0 I I #
vertex $-1 $283 $381 #
point $-1 -64.804537584168585 5.4576028941235819 7.7673139573663637 #
vertex $-1 $287 $382 #
point $-1 -64.804537584168585 10.724481707054402 7.7673139573663637 #
straight-curve $-1 -76.356089968565939 35.624064619722645 0 0 0 -1 I I #
point $-1 -76.356089968565939 -35.624064619722645 -16.930101061363779 #
straight-curve $-1 -76.356089968565939 0 -16.930101061363779 0 1 0 I I #
point $-1 -76.356089968565939 35.624064619722645 -16.930101061363779 #
coedge $-1 $309 $308 $314 $363 reversed $140 $-1 #
vertex $-1 $321 $383 #
straight-curve $-1 0 -35.624064619722645 16.930101061363779 1 0 0 I I #
edge $-1 $361 -16.930101061363779 $364 16.930101061363779 $360 $384 forward 7 unknown #
vertex $-1 $319 $385 #
straight-curve $-1 0 -35.624064619722645 -16.930101061363779 -1 0 0 I I #
straight-curve $-1 -76.356089968565939 0 -16.930101061363779 0 1 0 I I #
straight-curve $-1 -76.356089968565939 0 16.930101061363779 0 -1 0 I I #
straight-curve $-1 0 35.624064619722645 -16.930101061363779 1 0 0 I I #
point $-1 -70.83100855465598 35.624064619722638 -16.930101061363779 #
coedge $-1 $329 $336 $331 $372 reversed $323 $-1 #
straight-curve $-1 -70.83100855465598 35.624064619722645 0 0 0 -1 I I #
edge $-1 $332 70.83100855465598 $338 76.356089968565939 $370 $386 forward 7 unknown #
point $-1 -70.83100855465598 35.624064619722638 16.930101061363779 #
straight-curve $-1 -76.356089968565939 35.624064619722645 0 0 0 -1 I I #
point $-1 -76.356089968565939 35.624064619722645 16.930101061363779 #
point $-1 -76.356089968565939 35.624064619722645 -16.930101061363779 #
straight-curve $-1 -76.356089968565939 14.235734249008285 57.471753303651354 0 0 -1 I I #
point $-1 -76.356089968565939 14.235734249008285 16.930101061363779 #
straight-curve $-1 -76.356089968565939 4.0455211502944977 3.2568896826412779 0 -1 0 I I #
point $-1 -76.356089968565939 14.235734249008285 3.2568896826412876 #
point $-1 -64.878570572999095 5.4576028941235819 5.6472858640230648 #
point $-1 -64.878570572999095 10.724481707054402 5.6472858640230648 #
point $-1 -76.356089968565939 -35.624064619722645 16.930101061363779 #
straight-curve $-1 -76.356089968565939 -35.624064619722645 0 0 0 -1 I I #
point $-1 -76.356089968565939 -35.624064619722645 -16.930101061363779 #
straight-curve $-1 0 35.624064619722645 16.930101061363779 -1 0 0 I I #
End-of-ACIS-data 