500 0 6 0           
7 Unknown 11 ACIS 5.0 NT 24 Thu Mar 25 20:19:02 1999 
-1 9.9999999999999995e-007 1e-010 
body $-1 $6 $-1 $7 #
body $-1 $8 $-1 $9 #
body $-1 $10 $-1 $11 #
body $-1 $12 $-1 $13 #
body $-1 $14 $-1 $15 #
body $-1 $16 $-1 $17 #
lump $-1 $-1 $18 $0 #
transform $-1 1 0 0 0 1 0 0 0 1 49.211706900234994 30.914900306604423 12.40596353378713 1 rotate no_reflect no_shear #
lump $-1 $-1 $19 $1 #
transform $-1 1 0 0 0 1 0 0 0 1 49.211706900234994 30.914900306604423 12.40596353378713 1 rotate no_reflect no_shear #
lump $-1 $-1 $20 $2 #
transform $-1 1 0 0 0 1 0 0 0 1 49.211706900234994 30.914900306604423 12.40596353378713 1 rotate no_reflect no_shear #
lump $-1 $-1 $21 $3 #
transform $-1 1 0 0 0 1 0 0 0 1 49.211706900234994 30.914900306604423 12.40596353378713 1 rotate no_reflect no_shear #
lump $-1 $-1 $22 $4 #
transform $-1 1 0 0 0 1 0 0 0 1 49.211706900234994 30.914900306604423 12.40596353378713 1 rotate no_reflect no_shear #
lump $-1 $-1 $23 $5 #
transform $-1 1 0 0 0 1 0 0 0 1 49.211706900234994 30.914900306604423 12.40596353378713 1 rotate no_reflect no_shear #
shell $-1 $-1 $-1 $24 $-1 $6 #
shell $-1 $-1 $-1 $25 $-1 $8 #
shell $-1 $-1 $-1 $26 $-1 $10 #
shell $-1 $-1 $-1 $27 $-1 $12 #
shell $-1 $-1 $-1 $28 $-1 $14 #
shell $-1 $-1 $-1 $29 $-1 $16 #
face $-1 $30 $31 $18 $-1 $32 forward single #
face $-1 $33 $34 $19 $-1 $35 forward single #
face $-1 $36 $37 $20 $-1 $38 reversed single #
face $-1 $39 $40 $21 $-1 $41 forward single #
face $-1 $42 $43 $22 $-1 $44 forward single #
face $-1 $45 $46 $23 $-1 $47 forward single #
face $-1 $48 $49 $18 $-1 $50 reversed single #
loop $-1 $-1 $51 $24 #
plane-surface $-1 0 0 12.40596353378713 0 0 1 1 0 0 forward_v I I I I #
face $-1 $52 $53 $19 $-1 $54 forward single #
loop $-1 $-1 $55 $25 #
plane-surface $-1 0 -30.914900306604423 0 0 1 0 0 0 1 forward_v I I I I #
face $-1 $56 $57 $20 $-1 $58 reversed single #
loop $-1 $-1 $59 $26 #
plane-surface $-1 -24.511763876195005 64.63199607240297 118.99050333511742 1 0 0 0 -0.75470958851134928 -0.65605901945558964 forward_v I I I I #
face $-1 $60 $61 $21 $-1 $62 forward single #
loop $-1 $63 $64 $27 #
cone-surface $-1 -21.840902000432742 28.034800696653932 9.3341694217069815 0 -0.75470958851134928 -0.65605901945558964 1 0 0 1 I I 0 1 1 forward I I I I #
face $-1 $65 $66 $22 $-1 $67 forward single #
loop $-1 $68 $69 $28 #
cone-surface $-1 -17.834609186789354 28.034800696653932 9.3341694217069815 0 -0.75470958851134928 -0.65605901945558964 1 0 0 1 I I 0 1 1 forward I I I I #
face $-1 $70 $71 $23 $-1 $72 forward single #
loop $-1 $73 $74 $29 #
cone-surface $-1 -13.828316373145967 28.034800696653932 9.3341694217069815 0 -0.75470958851134928 -0.65605901945558964 1 0 0 1 I I 0 1 1 forward I I I I #
face $-1 $75 $76 $18 $-1 $77 reversed single #
loop $-1 $-1 $78 $30 #
plane-surface $-1 0 0 -12.40596353378713 0 0 1 1 0 0 forward_v I I I I #
coedge $-1 $79 $80 $81 $82 forward $31 $-1 #
face $-1 $83 $84 $19 $-1 $85 reversed single #
loop $-1 $-1 $86 $33 #
plane-surface $-1 0 0 12.40596353378713 0 0 1 1 0 0 forward_v I I I I #
coedge $-1 $87 $88 $89 $90 forward $34 $-1 #
face $-1 $91 $92 $20 $-1 $93 reversed single #
loop $-1 $-1 $94 $36 #
plane-surface $-1 -17.834609186789358 -9.6490980568319884 54.418934985709328 0 0.75470958851134928 0.65605901945558964 1 0 0 forward_v I I I I #
coedge $-1 $95 $96 $97 $98 reversed $37 $-1 #
face $-1 $-1 $99 $21 $-1 $100 forward single #
loop $-1 $101 $102 $39 #
cone-surface $-1 -21.840902000432742 26.798686490402915 8.2596317632047516 0 -0.75470958851134928 -0.65605901945558964 0.5 0 0 1 I I -0.70710678118654746 0.70710678118654746 0.5 forward I I I I #
loop $-1 $-1 $103 $27 #
coedge $-1 $64 $64 $104 $105 reversed $40 $-1 #
face $-1 $-1 $106 $22 $-1 $107 forward single #
loop $-1 $108 $109 $42 #
cone-surface $-1 -17.834609186789354 26.798686490402915 8.2596317632047516 0 -0.75470958851134928 -0.65605901945558964 0.5 0 0 1 I I -0.70710678118654746 0.70710678118654746 0.5 forward I I I I #
loop $-1 $-1 $110 $28 #
coedge $-1 $69 $69 $111 $112 reversed $43 $-1 #
face $-1 $-1 $113 $23 $-1 $114 forward single #
loop $-1 $115 $116 $45 #
cone-surface $-1 -13.828316373145967 26.798686490402915 8.2596317632047516 0 -0.75470958851134928 -0.65605901945558964 0.5 0 0 1 I I -0.70710678118654746 0.70710678118654746 0.5 forward I I I I #
loop $-1 $-1 $117 $29 #
coedge $-1 $74 $74 $118 $119 reversed $46 $-1 #
face $-1 $120 $121 $18 $-1 $122 reversed single #
loop $-1 $-1 $123 $48 #
plane-surface $-1 0 -30.914900306604423 0 0 1 0 0 0 1 forward_v I I I I #
coedge $-1 $124 $125 $126 $127 forward $49 $-1 #
coedge $-1 $128 $51 $129 $130 forward $31 $-1 #
coedge $-1 $51 $128 $131 $132 forward $31 $-1 #
coedge $-1 $133 $134 $51 $82 reversed $135 $-1 #
edge $-1 $136 -30.914900306604423 $137 30.914900306604423 $81 $138 forward 7 unknown #
face $-1 $139 $140 $19 $-1 $141 reversed single #
loop $-1 $-1 $142 $52 #
plane-surface $-1 -49.211706900234994 0 0 1 0 0 0 0 -1 forward_v I I I I #
coedge $-1 $143 $144 $145 $146 forward $53 $-1 #
coedge $-1 $145 $55 $142 $147 reversed $34 $-1 #
coedge $-1 $55 $145 $148 $149 reversed $34 $-1 #
coedge $-1 $150 $151 $55 $90 reversed $140 $-1 #
edge $-1 $152 -49.211706900234994 $153 49.211706900234994 $89 $154 forward 7 unknown #
face $-1 $155 $156 $20 $-1 $157 reversed single #
loop $-1 $-1 $158 $56 #
plane-surface $-1 -11.157454497383712 64.63199607240297 118.99050333511742 -1 0 0 0 0.75470958851134928 0.65605901945558964 forward_v I I I I #
coedge $-1 $159 $160 $161 $162 reversed $57 $-1 #
coedge $-1 $96 $59 $163 $164 reversed $37 $-1 #
coedge $-1 $59 $95 $159 $165 reversed $37 $-1 #
coedge $-1 $161 $166 $59 $98 forward $167 $-1 #
edge $-1 $168 1.4010977295970619 $169 5.4437781255073929 $97 $170 forward 7 unknown #
loop $-1 $-1 $104 $60 #
plane-surface $-1 -17.834609186789358 -9.6490980568319884 54.418934985709328 0 0.75470958851134928 0.65605901945558964 1 0 0 forward_v I I I I #
loop $-1 $-1 $171 $39 #
coedge $-1 $102 $102 $103 $172 reversed $61 $-1 #
coedge $-1 $103 $103 $102 $172 forward $63 $-1 #
coedge $-1 $104 $104 $64 $105 forward $99 $-1 #
edge $-1 $173 1.6298354003086155e-015 $173 6.2831853071796022 $104 $174 forward 7 unknown #
loop $-1 $-1 $111 $65 #
plane-surface $-1 -17.834609186789358 -9.6490980568319884 54.418934985709328 0 0.75470958851134928 0.65605901945558964 1 0 0 forward_v I I I I #
loop $-1 $-1 $175 $42 #
coedge $-1 $109 $109 $110 $176 reversed $66 $-1 #
coedge $-1 $110 $110 $109 $176 forward $68 $-1 #
coedge $-1 $111 $111 $69 $112 forward $106 $-1 #
edge $-1 $177 1.6298354003086155e-015 $177 6.2831853071796022 $111 $178 forward 7 unknown #
loop $-1 $-1 $118 $70 #
plane-surface $-1 -17.834609186789358 -9.6490980568319884 54.418934985709328 0 0.75470958851134928 0.65605901945558964 1 0 0 forward_v I I I I #
loop $-1 $-1 $179 $45 #
coedge $-1 $116 $116 $117 $180 reversed $71 $-1 #
coedge $-1 $117 $117 $116 $180 forward $73 $-1 #
coedge $-1 $118 $118 $74 $119 forward $113 $-1 #
edge $-1 $181 1.6298354003086155e-015 $181 6.2831853071796022 $118 $182 forward 7 unknown #
face $-1 $183 $184 $18 $-1 $185 reversed single #
loop $-1 $-1 $186 $75 #
plane-surface $-1 -49.211706900234994 0 0 1 0 0 0 0 -1 forward_v I I I I #
coedge $-1 $187 $131 $188 $189 forward $76 $-1 #
coedge $-1 $190 $78 $187 $191 forward $49 $-1 #
coedge $-1 $78 $190 $192 $193 forward $49 $-1 #
coedge $-1 $134 $133 $78 $127 reversed $135 $-1 #
edge $-1 $194 -30.914900306604423 $195 30.914900306604423 $126 $196 forward 7 unknown #
coedge $-1 $80 $79 $197 $198 forward $31 $-1 #
coedge $-1 $199 $200 $79 $130 reversed $184 $-1 #
edge $-1 $137 -49.211706900234994 $201 49.211706900234994 $129 $202 forward 7 unknown #
coedge $-1 $123 $203 $80 $132 reversed $76 $-1 #
edge $-1 $204 -49.211706900234994 $136 49.211706900234994 $131 $205 forward 7 unknown #
coedge $-1 $126 $81 $203 $206 forward $135 $-1 #
coedge $-1 $81 $126 $199 $207 reversed $135 $-1 #
loop $-1 $-1 $133 $183 #
vertex $-1 $82 $208 #
vertex $-1 $82 $209 #
straight-curve $-1 49.211706900234994 0 12.40596353378713 0 1 0 I I #
face $-1 $210 $211 $19 $-1 $212 reversed single #
loop $-1 $-1 $150 $83 #
plane-surface $-1 0 -38.906177845437341 5.8297086735996828 0 0 1 1 0 0 forward_v I I I I #
coedge $-1 $213 $214 $87 $147 forward $84 $-1 #
coedge $-1 $215 $86 $214 $216 forward $53 $-1 #
coedge $-1 $86 $215 $217 $218 forward $53 $-1 #
coedge $-1 $88 $87 $86 $146 reversed $34 $-1 #
edge $-1 $219 -49.211706900234994 $220 49.211706900234994 $86 $221 forward 7 unknown #
edge $-1 $220 -12.40596353378713 $153 -5.8297086735996828 $142 $222 forward 7 unknown #
coedge $-1 $217 $223 $88 $149 forward $224 $-1 #
edge $-1 $152 5.8297086735996828 $219 12.40596353378713 $148 $225 forward 7 unknown #
coedge $-1 $226 $89 $223 $227 forward $140 $-1 #
coedge $-1 $89 $226 $213 $228 forward $140 $-1 #
vertex $-1 $149 $229 #
vertex $-1 $147 $230 #
straight-curve $-1 0 -30.914900306604423 5.8297086735996828 -1 0 0 I I #
face $-1 $-1 $167 $20 $-1 $231 forward single #
loop $-1 $-1 $232 $91 #
plane-surface $-1 0 30.914900306604423 0 0 -1 0 0 0 -1 forward_v I I I I #
coedge $-1 $233 $234 $235 $236 reversed $92 $-1 #
coedge $-1 $237 $94 $96 $165 forward $57 $-1 #
coedge $-1 $94 $237 $233 $238 forward $57 $-1 #
coedge $-1 $235 $97 $94 $162 forward $167 $-1 #
edge $-1 $169 -15.594459282800326 $239 -2.2401499039890336 $161 $240 forward 7 unknown #
coedge $-1 $241 $242 $95 $164 forward $156 $-1 #
edge $-1 $243 -51.739860060383009 $168 -47.089288133771582 $163 $244 forward 7 unknown #
edge $-1 $169 55.667732451620253 $243 61.82980061320886 $96 $245 forward 7 unknown #
coedge $-1 $97 $235 $241 $246 forward $167 $-1 #
loop $-1 $-1 $235 $155 #
vertex $-1 $164 $247 #
vertex $-1 $98 $248 #
straight-curve $-1 -24.511763876195005 32.315998036201485 12.40596353378713 0 -1 0 I I #
coedge $-1 $171 $171 $-1 $249 reversed $101 $-1 #
edge $-1 $250 0 $250 6.2831853071796004 $102 $251 forward 7 unknown #
vertex $-1 $105 $252 #
ellipse-curve $-1 -21.840902000432742 28.893560108649265 10.080677570481409 0 0.75470958851134928 0.65605901945558964 1 0 0 1 I I #
coedge $-1 $175 $175 $-1 $253 reversed $108 $-1 #
edge $-1 $254 0 $254 6.2831853071796004 $109 $255 forward 7 unknown #
vertex $-1 $112 $256 #
ellipse-curve $-1 -17.834609186789354 28.893560108649265 10.080677570481409 0 0.75470958851134928 0.65605901945558964 1 0 0 1 I I #
coedge $-1 $179 $179 $-1 $257 reversed $115 $-1 #
edge $-1 $258 0 $258 6.2831853071796004 $116 $259 forward 7 unknown #
vertex $-1 $119 $260 #
ellipse-curve $-1 -13.828316373145967 28.893560108649265 10.080677570481409 0 0.75470958851134928 0.65605901945558964 1 0 0 1 I I #
face $-1 $-1 $135 $18 $-1 $261 reversed single #
loop $-1 $-1 $199 $120 #
plane-surface $-1 0 30.914900306604423 0 0 -1 0 0 0 -1 forward_v I I I I #
coedge $-1 $262 $197 $200 $263 forward $121 $-1 #
coedge $-1 $203 $123 $124 $191 reversed $76 $-1 #
coedge $-1 $197 $262 $123 $189 reversed $121 $-1 #
edge $-1 $204 -12.40596353378713 $264 12.40596353378713 $188 $265 forward 7 unknown #
coedge $-1 $125 $124 $262 $266 forward $49 $-1 #
edge $-1 $195 -49.211706900234994 $264 49.211706900234994 $187 $267 forward 7 unknown #
coedge $-1 $200 $199 $125 $193 reversed $184 $-1 #
edge $-1 $268 -49.211706900234994 $194 49.211706900234994 $192 $269 forward 7 unknown #
vertex $-1 $127 $270 #
vertex $-1 $206 $271 #
straight-curve $-1 49.211706900234994 0 -12.40596353378713 0 -1 0 I I #
coedge $-1 $186 $188 $128 $198 reversed $121 $-1 #
edge $-1 $201 -30.914900306604423 $204 30.914900306604423 $197 $272 forward 7 unknown #
coedge $-1 $192 $129 $134 $207 forward $184 $-1 #
coedge $-1 $129 $192 $186 $263 reversed $184 $-1 #
vertex $-1 $130 $273 #
straight-curve $-1 0 30.914900306604423 12.40596353378713 -1 0 0 I I #
coedge $-1 $131 $187 $133 $206 reversed $76 $-1 #
vertex $-1 $198 $274 #
straight-curve $-1 0 -30.914900306604423 12.40596353378713 1 0 0 I I #
edge $-1 $136 -12.40596353378713 $195 12.40596353378713 $133 $275 forward 7 unknown #
edge $-1 $137 -12.40596353378713 $194 12.40596353378713 $134 $276 forward 7 unknown #
point $-1 49.211706900234994 -30.914900306604423 12.40596353378713 #
point $-1 49.211706900234994 30.914900306604423 12.40596353378713 #
face $-1 $-1 $224 $19 $-1 $277 reversed single #
loop $-1 $-1 $278 $139 #
plane-surface $-1 0 -46.897455384270259 9.1178361036934064 0 1 0 0 0 1 forward_v I I I I #
coedge $-1 $279 $142 $151 $228 reversed $84 $-1 #
coedge $-1 $142 $279 $143 $216 reversed $84 $-1 #
coedge $-1 $144 $143 $280 $281 forward $53 $-1 #
edge $-1 $220 30.914900306604423 $282 46.897455384270259 $214 $283 forward 7 unknown #
coedge $-1 $284 $148 $144 $218 reversed $224 $-1 #
edge $-1 $285 -46.897455384270259 $219 -30.914900306604423 $217 $286 forward 7 unknown #
vertex $-1 $149 $287 #
vertex $-1 $216 $288 #
straight-curve $-1 0 -30.914900306604423 12.40596353378713 -1 0 0 I I #
straight-curve $-1 -49.211706900234994 -30.914900306604423 0 0 0 -1 I I #
coedge $-1 $148 $284 $150 $227 reversed $224 $-1 #
loop $-1 $-1 $148 $210 #
straight-curve $-1 49.211706900234994 -30.914900306604423 0 0 0 1 I I #
coedge $-1 $151 $150 $289 $290 forward $140 $-1 #
edge $-1 $152 -7.991277538832918 $291 7.991277538832918 $223 $292 forward 7 unknown #
edge $-1 $293 -7.991277538832918 $153 7.991277538832918 $213 $294 forward 7 unknown #
point $-1 49.211706900234994 -30.914900306604423 5.8297086735996828 #
point $-1 -49.211706900234994 -30.914900306604423 5.8297086735996828 #
plane-surface $-1 0 0 12.40596353378713 0 0 1 1 0 0 forward_v I I I I #
coedge $-1 $242 $241 $234 $295 forward $156 $-1 #
coedge $-1 $234 $158 $160 $238 reversed $92 $-1 #
coedge $-1 $158 $233 $232 $295 reversed $92 $-1 #
coedge $-1 $166 $161 $158 $236 forward $167 $-1 #
edge $-1 $239 -5.4437781255073929 $296 -1.4010977295970619 $235 $297 forward 7 unknown #
coedge $-1 $160 $159 $242 $298 reversed $57 $-1 #
edge $-1 $299 -61.82980061320886 $239 -55.667732451620253 $233 $300 forward 7 unknown #
vertex $-1 $162 $301 #
straight-curve $-1 -8.9173045933946788 26.872219910694096 12.40596353378713 1 0 0 I I #
coedge $-1 $232 $163 $166 $246 reversed $156 $-1 #
coedge $-1 $163 $232 $237 $298 forward $156 $-1 #
vertex $-1 $164 $302 #
straight-curve $-1 -24.511763876195005 30.914900306604423 59.495251667558712 0 0 1 I I #
straight-curve $-1 -24.511763876195005 -9.6490980568319884 54.418934985709328 0 0.65605901945558964 -0.75470958851134928 I I #
edge $-1 $296 11.157454497383712 $168 24.511763876195005 $241 $303 forward 7 unknown #
point $-1 -24.511763876195005 30.914900306604423 12.40596353378713 #
point $-1 -24.511763876195005 26.872219910694092 12.40596353378713 #
edge $-1 $304 1 $304 0 $171 $-1 forward 7 unknown #
vertex $-1 $172 $305 #
ellipse-curve $-1 -21.840902000432742 27.176041284658588 8.5876612729325466 0 0.75470958851134928 0.65605901945558964 1 0 0 1 I I #
point $-1 -20.840902000432742 28.893560108649275 10.080677570481416 #
edge $-1 $306 1 $306 0 $175 $-1 forward 7 unknown #
vertex $-1 $176 $307 #
ellipse-curve $-1 -17.834609186789354 27.176041284658588 8.5876612729325466 0 0.75470958851134928 0.65605901945558964 1 0 0 1 I I #
point $-1 -16.834609186789354 28.893560108649275 10.080677570481416 #
edge $-1 $308 1 $308 0 $179 $-1 forward 7 unknown #
vertex $-1 $180 $309 #
ellipse-curve $-1 -13.828316373145967 27.176041284658588 8.5876612729325466 0 0.75470958851134928 0.65605901945558964 1 0 0 1 I I #
point $-1 -12.828316373145967 28.893560108649275 10.080677570481416 #
plane-surface $-1 49.211706900234994 0 0 -1 0 0 0 0 1 forward_v I I I I #
coedge $-1 $188 $186 $190 $266 reversed $121 $-1 #
edge $-1 $201 -12.40596353378713 $268 12.40596353378713 $200 $310 forward 7 unknown #
vertex $-1 $266 $311 #
straight-curve $-1 -49.211706900234994 -30.914900306604423 0 0 0 -1 I I #
edge $-1 $264 -30.914900306604423 $268 30.914900306604423 $262 $312 forward 7 unknown #
straight-curve $-1 0 -30.914900306604423 -12.40596353378713 -1 0 0 I I #
vertex $-1 $193 $313 #
straight-curve $-1 0 30.914900306604423 -12.40596353378713 1 0 0 I I #
point $-1 49.211706900234994 30.914900306604423 -12.40596353378713 #
point $-1 49.211706900234994 -30.914900306604423 -12.40596353378713 #
straight-curve $-1 -49.211706900234994 0 12.40596353378713 0 -1 0 I I #
point $-1 -49.211706900234994 30.914900306604423 12.40596353378713 #
point $-1 -49.211706900234994 -30.914900306604423 12.40596353378713 #
straight-curve $-1 49.211706900234994 -30.914900306604423 0 0 0 -1 I I #
straight-curve $-1 49.211706900234994 30.914900306604423 0 0 0 -1 I I #
plane-surface $-1 49.211706900234994 0 0 -1 0 0 0 0 1 forward_v I I I I #
coedge $-1 $289 $280 $279 $314 forward $211 $-1 #
coedge $-1 $214 $213 $278 $314 reversed $84 $-1 #
coedge $-1 $278 $315 $215 $281 reversed $211 $-1 #
edge $-1 $282 -49.211706900234994 $285 49.211706900234994 $280 $316 forward 7 unknown #
vertex $-1 $216 $317 #
straight-curve $-1 -49.211706900234994 0 12.40596353378713 0 -1 0 I I #
coedge $-1 $223 $217 $315 $318 forward $224 $-1 #
vertex $-1 $218 $319 #
straight-curve $-1 49.211706900234994 0 12.40596353378713 0 1 0 I I #
point $-1 49.211706900234994 -30.914900306604423 12.40596353378713 #
point $-1 -49.211706900234994 -30.914900306604423 12.40596353378713 #
coedge $-1 $315 $278 $226 $290 reversed $211 $-1 #
edge $-1 $291 -49.211706900234994 $293 49.211706900234994 $289 $320 forward 7 unknown #
vertex $-1 $318 $321 #
straight-curve $-1 49.211706900234994 -38.906177845437341 5.8297086735996828 0 -1 0 I I #
vertex $-1 $228 $322 #
straight-curve $-1 -49.211706900234994 -38.906177845437341 5.8297086735996828 0 1 0 I I #
edge $-1 $296 47.089288133771582 $299 51.739860060383009 $232 $323 forward 7 unknown #
vertex $-1 $246 $324 #
straight-curve $-1 -11.157454497383712 32.315998036201485 12.40596353378713 0 1 0 I I #
edge $-1 $299 2.2401499039890336 $243 15.594459282800326 $242 $325 forward 7 unknown #
vertex $-1 $298 $326 #
straight-curve $-1 -11.157454497383712 -9.6490980568319884 54.418934985709328 0 -0.65605901945558964 0.75470958851134928 I I #
point $-1 -11.157454497383712 26.872219910694092 12.40596353378713 #
point $-1 -24.511763876195005 30.914900306604423 7.755391607175703 #
straight-curve $-1 0 30.914900306604423 12.40596353378713 -1 0 0 I I #
vertex $-1 $249 $327 #
point $-1 -20.840902000432742 27.176041284658588 8.5876612729325466 #
vertex $-1 $253 $328 #
point $-1 -16.834609186789354 27.176041284658588 8.5876612729325466 #
vertex $-1 $257 $329 #
point $-1 -12.828316373145967 27.176041284658588 8.5876612729325466 #
straight-curve $-1 -49.211706900234994 30.914900306604423 0 0 0 -1 I I #
point $-1 -49.211706900234994 -30.914900306604423 -12.40596353378713 #
straight-curve $-1 -49.211706900234994 0 -12.40596353378713 0 1 0 I I #
point $-1 -49.211706900234994 30.914900306604423 -12.40596353378713 #
edge $-1 $282 -3.2881274300937235 $293 3.2881274300937235 $279 $330 forward 7 unknown #
coedge $-1 $280 $289 $284 $318 reversed $211 $-1 #
straight-curve $-1 0 -46.897455384270259 12.40596353378713 1 0 0 I I #
point $-1 -49.211706900234994 -46.897455384270259 12.40596353378713 #
edge $-1 $285 -3.2881274300937235 $291 3.2881274300937235 $284 $331 forward 7 unknown #
point $-1 49.211706900234994 -46.897455384270259 12.40596353378713 #
straight-curve $-1 0 -46.897455384270259 5.8297086735996828 -1 0 0 I I #
point $-1 49.211706900234994 -46.897455384270259 5.8297086735996828 #
point $-1 -49.211706900234994 -46.897455384270259 5.8297086735996828 #
straight-curve $-1 -11.157454497383712 30.914900306604423 59.495251667558712 0 0 -1 I I #
point $-1 -11.157454497383712 30.914900306604423 12.40596353378713 #
straight-curve $-1 -8.9173045933946788 30.914900306604423 7.7553916071757065 -1 0 0 I I #
point $-1 -11.157454497383712 30.914900306604423 7.755391607175703 #
point $-1 -21.840902000432742 26.421331696147242 7.9316022534769566 #
point $-1 -17.834609186789354 26.421331696147242 7.9316022534769566 #
point $-1 -13.828316373145967 26.421331696147242 7.9316022534769566 #
straight-curve $-1 -49.211706900234994 -46.897455384270259 9.1178361036934064 0 0 -1 I I #
straight-curve $-1 49.211706900234994 -46.897455384270259 9.1178361036934064 0 0 -1 I I #
End-of-ACIS-data 