500 0 12 0           
7 Unknown 11 ACIS 5.0 NT 24 Thu Mar 25 17:15:55 1999 
-1 9.9999999999999995e-007 1e-010 
body $-1 $12 $-1 $13 #
body $-1 $14 $-1 $15 #
body $-1 $16 $-1 $17 #
body $-1 $18 $-1 $19 #
body $-1 $20 $-1 $21 #
body $-1 $22 $-1 $23 #
body $-1 $24 $-1 $25 #
body $-1 $26 $-1 $27 #
body $-1 $28 $-1 $29 #
body $-1 $30 $-1 $31 #
body $-1 $32 $-1 $33 #
body $-1 $34 $-1 $35 #
lump $-1 $-1 $36 $0 #
transform $-1 1 0 0 0 1 0 0 0 1 71.106906338694415 34.283090213609064 10.542204565334787 1 rotate no_reflect no_shear #
lump $-1 $-1 $37 $1 #
transform $-1 1 0 0 0 1 0 0 0 1 71.106906338694415 34.283090213609064 10.542204565334787 1 rotate no_reflect no_shear #
lump $-1 $-1 $38 $2 #
transform $-1 1 0 0 0 1 0 0 0 1 71.106906338694415 34.283090213609064 10.542204565334787 1 rotate no_reflect no_shear #
lump $-1 $-1 $39 $3 #
transform $-1 1 0 0 0 1 0 0 0 1 71.106906338694415 34.283090213609064 10.542204565334787 1 rotate no_reflect no_shear #
lump $-1 $-1 $40 $4 #
transform $-1 1 0 0 0 1 0 0 0 1 71.106906338694415 34.283090213609064 10.542204565334787 1 rotate no_reflect no_shear #
lump $-1 $-1 $41 $5 #
transform $-1 1 0 0 0 1 0 0 0 1 71.106906338694415 34.283090213609064 10.542204565334787 1 rotate no_reflect no_shear #
lump $-1 $-1 $42 $6 #
transform $-1 1 0 0 0 1 0 0 0 1 71.106906338694415 34.283090213609064 10.542204565334787 1 rotate no_reflect no_shear #
lump $-1 $-1 $43 $7 #
transform $-1 1 0 0 0 1 0 0 0 1 71.106906338694415 34.283090213609064 10.542204565334787 1 rotate no_reflect no_shear #
lump $-1 $-1 $44 $8 #
transform $-1 1 0 0 0 1 0 0 0 1 71.106906338694415 34.283090213609064 10.542204565334787 1 rotate no_reflect no_shear #
lump $-1 $-1 $45 $9 #
transform $-1 1 0 0 0 1 0 0 0 1 71.106906338694415 34.283090213609064 10.542204565334787 1 rotate no_reflect no_shear #
lump $-1 $-1 $46 $10 #
transform $-1 1 0 0 0 1 0 0 0 1 71.106906338694415 34.283090213609064 10.542204565334787 1 rotate no_reflect no_shear #
lump $-1 $-1 $47 $11 #
transform $-1 1 0 0 0 1 0 0 0 1 71.106906338694415 34.283090213609064 10.542204565334787 1 rotate no_reflect no_shear #
shell $-1 $-1 $-1 $48 $-1 $12 #
shell $-1 $-1 $-1 $49 $-1 $14 #
shell $-1 $-1 $-1 $50 $-1 $16 #
shell $-1 $-1 $-1 $51 $-1 $18 #
shell $-1 $-1 $-1 $52 $-1 $20 #
shell $-1 $-1 $-1 $53 $-1 $22 #
shell $-1 $-1 $-1 $54 $-1 $24 #
shell $-1 $-1 $-1 $55 $-1 $26 #
shell $-1 $-1 $-1 $56 $-1 $28 #
shell $-1 $-1 $-1 $57 $-1 $30 #
shell $-1 $-1 $-1 $58 $-1 $32 #
shell $-1 $-1 $-1 $59 $-1 $34 #
face $-1 $60 $61 $36 $-1 $62 forward single #
face $-1 $63 $64 $37 $-1 $65 forward single #
face $-1 $66 $67 $38 $-1 $68 reversed single #
face $-1 $69 $70 $39 $-1 $71 forward single #
face $-1 $72 $73 $40 $-1 $74 forward single #
face $-1 $75 $76 $41 $-1 $77 reversed single #
face $-1 $78 $79 $42 $-1 $80 forward single #
face $-1 $81 $82 $43 $-1 $83 forward single #
face $-1 $84 $85 $44 $-1 $86 reversed single #
face $-1 $87 $88 $45 $-1 $89 forward single #
face $-1 $90 $91 $46 $-1 $92 reversed single #
face $-1 $93 $94 $47 $-1 $95 forward single #
face $-1 $96 $97 $36 $-1 $98 reversed single #
loop $-1 $-1 $99 $48 #
plane-surface $-1 0 0 10.542204565334787 0 0 1 1 0 0 forward_v I I I I #
face $-1 $100 $101 $37 $-1 $102 reversed single #
loop $-1 $-1 $103 $49 #
plane-surface $-1 0 -34.283090213609064 0 0 1 0 0 0 1 forward_v I I I I #
face $-1 $104 $105 $38 $-1 $106 reversed single #
loop $-1 $-1 $107 $50 #
plane-surface $-1 -144.35243562001477 -19.104726436438604 128.5605057279848 0 1 0 -0.51503808176128008 0 0.85716729658548041 forward_v I I I I #
face $-1 $108 $109 $39 $-1 $110 forward single #
loop $-1 $111 $112 $51 #
cone-surface $-1 -67.421945354471944 -15.551050341481016 7.8452765499135442 0.51503808176128008 0 -0.85716729658548041 0.85716729658548041 0 0.51503808176128008 1 I I 0 1 1 forward I I I I #
face $-1 $113 $114 $40 $-1 $115 forward single #
loop $-1 $116 $117 $52 #
cone-surface $-1 -67.421945354471944 -10.220536199044638 7.8452765499135442 0.51503808176128008 0 -0.85716729658548041 0.85716729658548041 0 0.51503808176128008 1 I I 0 1 1 forward I I I I #
face $-1 $118 $119 $41 $-1 $120 reversed single #
loop $-1 $-1 $121 $53 #
plane-surface $-1 -144.35243562001477 9.4448806017415485 128.5605057279848 0 1 0 -0.51503808176128008 0 0.85716729658548041 forward_v I I I I #
face $-1 $122 $123 $42 $-1 $124 forward single #
loop $-1 $125 $126 $54 #
cone-surface $-1 -67.421945354471944 12.99855669669914 7.8452765499135442 0.51503808176128008 0 -0.85716729658548041 0.85716729658548041 0 0.51503808176128008 1 I I 0 1 1 forward I I I I #
face $-1 $127 $128 $43 $-1 $129 forward single #
loop $-1 $130 $131 $55 #
cone-surface $-1 -67.421945354471944 18.329070839135518 7.8452765499135442 0.51503808176128008 0 -0.85716729658548041 0.85716729658548041 0 0.51503808176128008 1 I I 0 1 1 forward I I I I #
face $-1 $132 $133 $44 $-1 $134 reversed single #
loop $-1 $-1 $135 $56 #
plane-surface $-1 36.182664620653114 -8.9379551433505355 198.93805815432725 0 -1 0 -0.57357644374324357 0 -0.81915203911291934 forward_v I I I I #
face $-1 $136 $137 $45 $-1 $138 forward single #
loop $-1 $139 $140 $57 #
cone-surface $-1 63.11850701077492 -14.426810579685636 4.159760957868551 -0.57357644374324357 0 -0.81915203911291934 1.6383040782258387 0 -1.1471528874864871 1 I I 0 1 2 forward I I I I #
face $-1 $141 $142 $46 $-1 $143 reversed single #
loop $-1 $-1 $144 $58 #
plane-surface $-1 36.182664620653114 31.382632366878553 198.93805815432725 0 -1 0 -0.57357644374324357 0 -0.81915203911291934 forward_v I I I I #
face $-1 $145 $146 $47 $-1 $147 forward single #
loop $-1 $148 $149 $59 #
cone-surface $-1 63.11850701077492 25.893776930543453 4.159760957868551 -0.57357644374324357 0 -0.81915203911291934 1.6383040782258387 0 -1.1471528874864871 1 I I 0 1 2 forward I I I I #
face $-1 $150 $151 $36 $-1 $152 reversed single #
loop $-1 $-1 $153 $60 #
plane-surface $-1 0 0 -10.542204565334787 0 0 1 1 0 0 forward_v I I I I #
coedge $-1 $154 $155 $156 $157 forward $61 $-1 #
face $-1 $158 $159 $37 $-1 $160 forward single #
loop $-1 $-1 $161 $63 #
plane-surface $-1 -71.106906338694415 0 0 1 0 0 0 0 -1 forward_v I I I I #
coedge $-1 $162 $163 $164 $165 forward $64 $-1 #
face $-1 $166 $167 $38 $-1 $168 reversed single #
loop $-1 $-1 $169 $66 #
plane-surface $-1 -71.106906338694415 -12.885793270262827 6.6594763781935029 -0.51503808176128008 0 0.85716729658548041 0.85716729658548041 0 0.51503808176128008 forward_v I I I I #
coedge $-1 $170 $171 $172 $173 reversed $67 $-1 #
face $-1 $-1 $174 $39 $-1 $175 forward single #
loop $-1 $176 $177 $69 #
cone-surface $-1 -66.710437699573816 -15.551050341481016 6.6611289797702096 0.51503808176128008 0 -0.85716729658548041 0.4285836482927402 0 0.25751904088064004 1 I I -0.70710678118654746 0.70710678118654746 0.5 forward I I I I #
loop $-1 $-1 $178 $51 #
coedge $-1 $112 $112 $179 $180 reversed $70 $-1 #
face $-1 $-1 $181 $40 $-1 $182 forward single #
loop $-1 $183 $184 $72 #
cone-surface $-1 -66.710437699573816 -10.220536199044638 6.6611289797702096 0.51503808176128008 0 -0.85716729658548041 0.4285836482927402 0 0.25751904088064004 1 I I -0.70710678118654746 0.70710678118654746 0.5 forward I I I I #
loop $-1 $-1 $185 $52 #
coedge $-1 $117 $117 $186 $187 reversed $73 $-1 #
face $-1 $188 $189 $41 $-1 $190 reversed single #
loop $-1 $-1 $191 $75 #
plane-surface $-1 -71.106906338694415 15.663813767917325 6.6594763781935029 -0.51503808176128008 0 0.85716729658548041 0.85716729658548041 0 0.51503808176128008 forward_v I I I I #
coedge $-1 $192 $193 $194 $195 reversed $76 $-1 #
face $-1 $-1 $196 $42 $-1 $197 forward single #
loop $-1 $198 $199 $78 #
cone-surface $-1 -66.710437699573816 12.99855669669914 6.6611289797702096 0.51503808176128008 0 -0.85716729658548041 0.4285836482927402 0 0.25751904088064004 1 I I -0.70710678118654746 0.70710678118654746 0.5 forward I I I I #
loop $-1 $-1 $200 $54 #
coedge $-1 $126 $126 $201 $202 reversed $79 $-1 #
face $-1 $-1 $203 $43 $-1 $204 forward single #
loop $-1 $205 $206 $81 #
cone-surface $-1 -66.710437699573816 18.329070839135518 6.6611289797702096 0.51503808176128008 0 -0.85716729658548041 0.4285836482927402 0 0.25751904088064004 1 I I -0.70710678118654746 0.70710678118654746 0.5 forward I I I I #
loop $-1 $-1 $207 $55 #
coedge $-1 $131 $131 $208 $209 reversed $82 $-1 #
face $-1 $210 $211 $44 $-1 $212 reversed single #
loop $-1 $-1 $213 $84 #
plane-surface $-1 -45.387828306011386 -14.426810579685636 82.44332350962145 0.57357644374324357 0 0.81915203911291934 0.81915203911291934 0 -0.57357644374324357 forward_v I I I I #
coedge $-1 $214 $215 $216 $217 reversed $85 $-1 #
face $-1 $-1 $218 $45 $-1 $219 forward single #
loop $-1 $220 $221 $87 #
cone-surface $-1 61.461179696185042 -14.426810579685636 1.7928523024783072 -0.57357644374324357 0 -0.81915203911291934 0.81915203911291934 0 -0.57357644374324357 1 I I -0.70710678118654746 0.70710678118654746 1 forward I I I I #
loop $-1 $-1 $222 $57 #
coedge $-1 $140 $140 $223 $224 reversed $88 $-1 #
face $-1 $225 $226 $46 $-1 $227 reversed single #
loop $-1 $-1 $228 $90 #
plane-surface $-1 -45.387828306011386 25.893776930543453 82.44332350962145 0.57357644374324357 0 0.81915203911291934 0.81915203911291934 0 -0.57357644374324357 forward_v I I I I #
coedge $-1 $229 $230 $231 $232 reversed $91 $-1 #
face $-1 $-1 $233 $47 $-1 $234 forward single #
loop $-1 $235 $236 $93 #
cone-surface $-1 61.461179696185042 25.893776930543453 1.7928523024783072 -0.57357644374324357 0 -0.81915203911291934 0.81915203911291934 0 -0.57357644374324357 1 I I -0.70710678118654746 0.70710678118654746 1 forward I I I I #
loop $-1 $-1 $237 $59 #
coedge $-1 $149 $149 $238 $239 reversed $94 $-1 #
face $-1 $240 $241 $36 $-1 $242 reversed single #
loop $-1 $-1 $243 $96 #
plane-surface $-1 0 -34.283090213609064 0 0 1 0 0 0 1 forward_v I I I I #
coedge $-1 $244 $245 $246 $247 forward $97 $-1 #
coedge $-1 $248 $99 $249 $250 forward $61 $-1 #
coedge $-1 $99 $248 $251 $252 forward $61 $-1 #
coedge $-1 $253 $254 $99 $157 reversed $255 $-1 #
edge $-1 $256 -34.283090213609064 $257 34.283090213609064 $156 $258 forward 7 unknown #
face $-1 $259 $260 $37 $-1 $261 reversed single #
loop $-1 $-1 $262 $100 #
plane-surface $-1 0 -40.016573389037973 2.6508095756218681 0 0 1 1 0 0 forward_v I I I I #
coedge $-1 $263 $264 $163 $265 forward $101 $-1 #
coedge $-1 $266 $103 $267 $268 reversed $64 $-1 #
coedge $-1 $103 $266 $161 $265 reversed $64 $-1 #
coedge $-1 $269 $262 $103 $165 reversed $159 $-1 #
edge $-1 $270 -71.106906338694415 $271 71.106906338694415 $164 $272 forward 7 unknown #
face $-1 $273 $274 $38 $-1 $275 forward single #
loop $-1 $-1 $276 $104 #
plane-surface $-1 -144.35243562001477 -6.6668601040870499 128.5605057279848 0 -1 0 0.51503808176128008 0 -0.85716729658548041 forward_v I I I I #
coedge $-1 $277 $278 $279 $280 reversed $105 $-1 #
coedge $-1 $171 $107 $281 $282 reversed $67 $-1 #
coedge $-1 $107 $170 $277 $283 reversed $67 $-1 #
coedge $-1 $279 $284 $107 $173 forward $274 $-1 #
edge $-1 $285 1.0693114713129717 $286 7.5312562117229334 $172 $287 forward 7 unknown #
loop $-1 $-1 $179 $108 #
plane-surface $-1 -71.106906338694415 -12.885793270262827 6.6594763781935029 -0.51503808176128008 0 0.85716729658548041 0.85716729658548041 0 0.51503808176128008 forward_v I I I I #
loop $-1 $-1 $288 $69 #
coedge $-1 $177 $177 $178 $289 reversed $109 $-1 #
coedge $-1 $178 $178 $177 $289 forward $111 $-1 #
coedge $-1 $179 $179 $112 $180 forward $174 $-1 #
edge $-1 $290 0 $290 6.2831853071796004 $179 $291 forward 7 unknown #
loop $-1 $-1 $186 $113 #
plane-surface $-1 -71.106906338694415 -12.885793270262827 6.6594763781935029 -0.51503808176128008 0 0.85716729658548041 0.85716729658548041 0 0.51503808176128008 forward_v I I I I #
loop $-1 $-1 $292 $72 #
coedge $-1 $184 $184 $185 $293 reversed $114 $-1 #
coedge $-1 $185 $185 $184 $293 forward $116 $-1 #
coedge $-1 $186 $186 $117 $187 forward $181 $-1 #
edge $-1 $294 0 $294 6.2831853071796004 $186 $295 forward 7 unknown #
face $-1 $296 $297 $41 $-1 $298 forward single #
loop $-1 $-1 $299 $118 #
plane-surface $-1 -144.35243562001477 21.882746934093102 128.5605057279848 0 -1 0 0.51503808176128008 0 -0.85716729658548041 forward_v I I I I #
coedge $-1 $300 $301 $302 $303 reversed $119 $-1 #
coedge $-1 $193 $121 $304 $305 reversed $76 $-1 #
coedge $-1 $121 $192 $300 $306 reversed $76 $-1 #
coedge $-1 $302 $307 $121 $195 forward $297 $-1 #
edge $-1 $308 1.0693114713129717 $309 7.5312562117229334 $194 $310 forward 7 unknown #
loop $-1 $-1 $201 $122 #
plane-surface $-1 -71.106906338694415 15.663813767917325 6.6594763781935029 -0.51503808176128008 0 0.85716729658548041 0.85716729658548041 0 0.51503808176128008 forward_v I I I I #
loop $-1 $-1 $311 $78 #
coedge $-1 $199 $199 $200 $312 reversed $123 $-1 #
coedge $-1 $200 $200 $199 $312 forward $125 $-1 #
coedge $-1 $201 $201 $126 $202 forward $196 $-1 #
edge $-1 $313 0 $313 6.2831853071796004 $201 $314 forward 7 unknown #
loop $-1 $-1 $208 $127 #
plane-surface $-1 -71.106906338694415 15.663813767917325 6.6594763781935029 -0.51503808176128008 0 0.85716729658548041 0.85716729658548041 0 0.51503808176128008 forward_v I I I I #
loop $-1 $-1 $315 $81 #
coedge $-1 $206 $206 $207 $316 reversed $128 $-1 #
coedge $-1 $207 $207 $206 $316 forward $130 $-1 #
coedge $-1 $208 $208 $131 $209 forward $203 $-1 #
edge $-1 $317 0 $317 6.2831853071796004 $208 $318 forward 7 unknown #
face $-1 $319 $320 $44 $-1 $321 reversed single #
loop $-1 $-1 $322 $132 #
plane-surface $-1 36.182664620653114 -19.915666016020737 198.93805815432725 0 1 0 0.57357644374324357 0 0.81915203911291934 forward_v I I I I #
coedge $-1 $323 $324 $325 $326 reversed $133 $-1 #
coedge $-1 $215 $135 $327 $328 reversed $85 $-1 #
coedge $-1 $135 $214 $323 $329 reversed $85 $-1 #
coedge $-1 $325 $330 $135 $217 forward $331 $-1 #
edge $-1 $332 -53.015574028367858 $333 -39.20627711422221 $216 $334 forward 7 unknown #
loop $-1 $-1 $223 $136 #
plane-surface $-1 -45.387828306011386 -14.426810579685636 82.44332350962145 0.57357644374324357 0 0.81915203911291934 0.81915203911291934 0 -0.57357644374324357 forward_v I I I I #
loop $-1 $-1 $335 $87 #
coedge $-1 $221 $221 $222 $336 reversed $137 $-1 #
coedge $-1 $222 $222 $221 $336 forward $139 $-1 #
coedge $-1 $223 $223 $140 $224 forward $218 $-1 #
edge $-1 $337 0 $337 6.2831853071796004 $223 $338 forward 7 unknown #
face $-1 $339 $340 $46 $-1 $341 reversed single #
loop $-1 $-1 $342 $141 #
plane-surface $-1 36.182664620653114 20.404921494208352 198.93805815432725 0 1 0 0.57357644374324357 0 0.81915203911291934 forward_v I I I I #
coedge $-1 $343 $344 $345 $346 reversed $142 $-1 #
coedge $-1 $230 $144 $347 $348 reversed $91 $-1 #
coedge $-1 $144 $229 $343 $349 reversed $91 $-1 #
coedge $-1 $345 $350 $144 $232 forward $351 $-1 #
edge $-1 $352 -53.015574028367858 $353 -39.20627711422221 $231 $354 forward 7 unknown #
loop $-1 $-1 $238 $145 #
plane-surface $-1 -45.387828306011386 25.893776930543453 82.44332350962145 0.57357644374324357 0 0.81915203911291934 0.81915203911291934 0 -0.57357644374324357 forward_v I I I I #
loop $-1 $-1 $355 $93 #
coedge $-1 $236 $236 $237 $356 reversed $146 $-1 #
coedge $-1 $237 $237 $236 $356 forward $148 $-1 #
coedge $-1 $238 $238 $149 $239 forward $233 $-1 #
edge $-1 $357 0 $357 6.2831853071796004 $238 $358 forward 7 unknown #
face $-1 $359 $360 $36 $-1 $361 reversed single #
loop $-1 $-1 $362 $150 #
plane-surface $-1 -71.106906338694415 0 0 1 0 0 0 0 -1 forward_v I I I I #
coedge $-1 $363 $251 $364 $365 forward $151 $-1 #
coedge $-1 $366 $153 $363 $367 forward $97 $-1 #
coedge $-1 $153 $366 $368 $369 forward $97 $-1 #
coedge $-1 $254 $253 $153 $247 reversed $255 $-1 #
edge $-1 $370 -34.283090213609064 $371 34.283090213609064 $246 $372 forward 7 unknown #
coedge $-1 $155 $154 $373 $374 forward $61 $-1 #
coedge $-1 $375 $376 $154 $250 reversed $360 $-1 #
edge $-1 $257 -71.106906338694415 $377 71.106906338694415 $249 $378 forward 7 unknown #
coedge $-1 $243 $379 $155 $252 reversed $151 $-1 #
edge $-1 $380 -71.106906338694415 $256 71.106906338694415 $251 $381 forward 7 unknown #
coedge $-1 $246 $156 $379 $382 forward $255 $-1 #
coedge $-1 $156 $246 $375 $383 reversed $255 $-1 #
loop $-1 $-1 $253 $359 #
vertex $-1 $157 $384 #
vertex $-1 $157 $385 #
straight-curve $-1 71.106906338694415 0 10.542204565334787 0 1 0 I I #
face $-1 $386 $387 $37 $-1 $388 reversed single #
loop $-1 $-1 $389 $158 #
plane-surface $-1 0 -40.016573389037973 -1.7339522011389485 0 0 1 1 0 0 forward_v I I I I #
coedge $-1 $164 $390 $391 $392 forward $159 $-1 #
coedge $-1 $393 $161 $394 $395 reversed $101 $-1 #
coedge $-1 $161 $393 $269 $396 reversed $101 $-1 #
edge $-1 $270 -2.6508095756218681 $397 1.7339522011389485 $161 $398 forward 7 unknown #
coedge $-1 $163 $162 $399 $400 forward $64 $-1 #
coedge $-1 $391 $401 $162 $268 forward $402 $-1 #
edge $-1 $403 -1.7339522011389485 $271 2.6508095756218681 $267 $404 forward 7 unknown #
coedge $-1 $390 $164 $264 $396 forward $159 $-1 #
vertex $-1 $265 $405 #
vertex $-1 $392 $406 #
straight-curve $-1 0 -34.283090213609064 2.6508095756218681 1 0 0 I I #
face $-1 $-1 $407 $38 $-1 $408 reversed single #
loop $-1 $-1 $172 $166 #
plane-surface $-1 0 0 10.542204565334787 0 0 1 1 0 0 forward_v I I I I #
coedge $-1 $409 $410 $411 $412 reversed $167 $-1 #
coedge $-1 $413 $169 $171 $283 forward $105 $-1 #
coedge $-1 $169 $413 $409 $414 forward $105 $-1 #
coedge $-1 $411 $172 $169 $280 forward $274 $-1 #
edge $-1 $286 -12.66182980130719 $415 -0.22396346895563646 $279 $416 forward 7 unknown #
coedge $-1 $417 $418 $170 $282 forward $407 $-1 #
edge $-1 $419 -57.620776485798899 $285 -53.738048298657617 $281 $420 forward 7 unknown #
edge $-1 $286 -7.5387205813276701 $419 0 $171 $421 forward 7 unknown #
coedge $-1 $172 $411 $417 $422 forward $274 $-1 #
vertex $-1 $282 $423 #
vertex $-1 $173 $424 #
straight-curve $-1 -72.176217810007387 -19.104726436438604 10.542204565334785 1 0 0 I I #
coedge $-1 $288 $288 $-1 $425 reversed $176 $-1 #
edge $-1 $426 0 $426 6.2831853071796004 $177 $427 forward 7 unknown #
vertex $-1 $180 $428 #
ellipse-curve $-1 -67.875933968489434 -15.551050341481016 8.600840471764144 -0.51503808176128008 0 0.85716729658548041 0.85716729658548041 0 0.51503808176128008 1 I I #
coedge $-1 $292 $292 $-1 $429 reversed $183 $-1 #
edge $-1 $430 0 $430 6.2831853071796004 $184 $431 forward 7 unknown #
vertex $-1 $187 $432 #
ellipse-curve $-1 -67.875933968489434 -10.220536199044638 8.600840471764144 -0.51503808176128008 0 0.85716729658548041 0.85716729658548041 0 0.51503808176128008 1 I I #
face $-1 $-1 $433 $41 $-1 $434 reversed single #
loop $-1 $-1 $194 $188 #
plane-surface $-1 0 0 10.542204565334787 0 0 1 1 0 0 forward_v I I I I #
coedge $-1 $435 $436 $437 $438 reversed $189 $-1 #
coedge $-1 $439 $191 $193 $306 forward $119 $-1 #
coedge $-1 $191 $439 $435 $440 forward $119 $-1 #
coedge $-1 $437 $194 $191 $303 forward $297 $-1 #
edge $-1 $309 1.6129737177828858 $441 14.05084005013444 $302 $442 forward 7 unknown #
coedge $-1 $443 $444 $192 $305 forward $433 $-1 #
edge $-1 $445 -57.620776485798899 $308 -53.738048298657617 $304 $446 forward 7 unknown #
edge $-1 $309 -7.5387205813276701 $445 0 $193 $447 forward 7 unknown #
coedge $-1 $194 $437 $443 $448 forward $297 $-1 #
vertex $-1 $195 $449 #
vertex $-1 $195 $450 #
straight-curve $-1 -72.176217810007387 9.4448806017415485 10.542204565334785 1 0 0 I I #
coedge $-1 $311 $311 $-1 $451 reversed $198 $-1 #
edge $-1 $452 0 $452 6.2831853071796004 $199 $453 forward 7 unknown #
vertex $-1 $202 $454 #
ellipse-curve $-1 -67.875933968489434 12.99855669669914 8.600840471764144 -0.51503808176128008 0 0.85716729658548041 0.85716729658548041 0 0.51503808176128008 1 I I #
coedge $-1 $315 $315 $-1 $455 reversed $205 $-1 #
edge $-1 $456 0 $456 6.2831853071796004 $206 $457 forward 7 unknown #
vertex $-1 $209 $458 #
ellipse-curve $-1 -67.875933968489434 18.329070839135518 8.600840471764144 -0.51503808176128008 0 0.85716729658548041 0.85716729658548041 0 0.51503808176128008 1 I I #
face $-1 $-1 $331 $44 $-1 $459 forward single #
loop $-1 $-1 $460 $210 #
plane-surface $-1 71.106906338694415 0 0 -1 0 0 0 0 1 forward_v I I I I #
coedge $-1 $461 $462 $463 $464 reversed $211 $-1 #
coedge $-1 $465 $213 $215 $329 forward $133 $-1 #
coedge $-1 $213 $465 $461 $466 forward $133 $-1 #
coedge $-1 $463 $216 $213 $326 forward $331 $-1 #
edge $-1 $333 1.7245498535077175 $467 12.702260726177919 $325 $468 forward 7 unknown #
coedge $-1 $469 $470 $214 $328 forward $320 $-1 #
edge $-1 $471 -98.596198494206675 $332 -88.926824511828841 $327 $472 forward 7 unknown #
edge $-1 $333 125.35577380941496 $471 142.21381267738883 $215 $473 forward 7 unknown #
coedge $-1 $216 $463 $469 $474 forward $331 $-1 #
loop $-1 $-1 $463 $319 #
vertex $-1 $328 $475 #
vertex $-1 $217 $476 #
straight-curve $-1 18.091332310326557 -8.9379551433505355 10.542204565334785 -1 0 0 I I #
coedge $-1 $335 $335 $-1 $477 reversed $220 $-1 #
edge $-1 $478 0 $478 6.2831853071796004 $221 $479 forward 7 unknown #
vertex $-1 $224 $480 #
ellipse-curve $-1 64.202257881621563 -14.426810579685636 5.7075175741458768 0.57357644374324357 0 0.81915203911291934 1.6383040782258387 0 -1.1471528874864871 1 I I #
face $-1 $-1 $351 $46 $-1 $481 forward single #
loop $-1 $-1 $482 $225 #
plane-surface $-1 71.106906338694415 0 0 -1 0 0 0 0 1 forward_v I I I I #
coedge $-1 $483 $484 $485 $486 reversed $226 $-1 #
coedge $-1 $487 $228 $230 $349 forward $142 $-1 #
coedge $-1 $228 $487 $483 $488 forward $142 $-1 #
coedge $-1 $485 $231 $228 $346 forward $351 $-1 #
edge $-1 $353 -18.435743901606827 $489 -7.4580330289366259 $345 $490 forward 7 unknown #
coedge $-1 $491 $492 $229 $348 forward $340 $-1 #
edge $-1 $493 -98.596198494206675 $352 -88.926824511828841 $347 $494 forward 7 unknown #
edge $-1 $353 125.35577380941496 $493 142.21381267738883 $230 $495 forward 7 unknown #
coedge $-1 $231 $485 $491 $496 forward $351 $-1 #
loop $-1 $-1 $485 $339 #
vertex $-1 $348 $497 #
vertex $-1 $232 $498 #
straight-curve $-1 18.091332310326557 31.382632366878553 10.542204565334785 -1 0 0 I I #
coedge $-1 $355 $355 $-1 $499 reversed $235 $-1 #
edge $-1 $500 0 $500 6.2831853071796004 $236 $501 forward 7 unknown #
vertex $-1 $239 $502 #
ellipse-curve $-1 64.202257881621563 25.893776930543453 5.7075175741458768 0.57357644374324357 0 0.81915203911291934 1.6383040782258387 0 -1.1471528874864871 1 I I #
face $-1 $-1 $255 $36 $-1 $503 reversed single #
loop $-1 $-1 $375 $240 #
plane-surface $-1 0 34.283090213609064 0 0 -1 0 0 0 -1 forward_v I I I I #
coedge $-1 $504 $373 $376 $505 forward $241 $-1 #
coedge $-1 $379 $243 $244 $367 reversed $151 $-1 #
coedge $-1 $373 $504 $243 $365 reversed $241 $-1 #
edge $-1 $380 -10.542204565334787 $506 10.542204565334787 $364 $507 forward 7 unknown #
coedge $-1 $245 $244 $504 $508 forward $97 $-1 #
edge $-1 $371 -71.106906338694415 $506 71.106906338694415 $363 $509 forward 7 unknown #
coedge $-1 $376 $375 $245 $369 reversed $360 $-1 #
edge $-1 $510 -71.106906338694415 $370 71.106906338694415 $368 $511 forward 7 unknown #
vertex $-1 $247 $512 #
vertex $-1 $382 $513 #
straight-curve $-1 71.106906338694415 0 -10.542204565334787 0 -1 0 I I #
coedge $-1 $362 $364 $248 $374 reversed $241 $-1 #
edge $-1 $377 -34.283090213609064 $380 34.283090213609064 $373 $514 forward 7 unknown #
coedge $-1 $368 $249 $254 $383 forward $360 $-1 #
coedge $-1 $249 $368 $362 $505 reversed $360 $-1 #
vertex $-1 $250 $515 #
straight-curve $-1 0 34.283090213609064 10.542204565334787 -1 0 0 I I #
coedge $-1 $251 $363 $253 $382 reversed $151 $-1 #
vertex $-1 $374 $516 #
straight-curve $-1 0 -34.283090213609064 10.542204565334787 1 0 0 I I #
edge $-1 $256 -10.542204565334787 $371 10.542204565334787 $253 $517 forward 7 unknown #
edge $-1 $257 -10.542204565334787 $370 10.542204565334787 $254 $518 forward 7 unknown #
point $-1 71.106906338694415 -34.283090213609064 10.542204565334787 #
point $-1 71.106906338694415 34.283090213609064 10.542204565334787 #
face $-1 $-1 $402 $37 $-1 $519 reversed single #
loop $-1 $-1 $520 $259 #
plane-surface $-1 0 -45.750056564466881 0.4584286872414598 0 1 0 0 0 1 forward_v I I I I #
coedge $-1 $521 $399 $401 $522 forward $260 $-1 #
coedge $-1 $262 $269 $523 $524 forward $159 $-1 #
coedge $-1 $525 $267 $262 $392 reversed $402 $-1 #
edge $-1 $526 -5.7334831754289084 $271 5.7334831754289084 $391 $527 forward 7 unknown #
coedge $-1 $264 $263 $520 $528 reversed $101 $-1 #
coedge $-1 $399 $521 $263 $395 forward $260 $-1 #
edge $-1 $529 -5.7334831754289084 $397 5.7334831754289084 $263 $530 forward 7 unknown #
edge $-1 $270 -5.7334831754289084 $531 5.7334831754289084 $264 $532 forward 7 unknown #
vertex $-1 $265 $533 #
straight-curve $-1 -71.106906338694415 -34.283090213609064 0 0 0 -1 I I #
coedge $-1 $389 $394 $266 $400 reversed $260 $-1 #
edge $-1 $403 -71.106906338694415 $397 71.106906338694415 $399 $534 forward 7 unknown #
coedge $-1 $267 $525 $389 $522 reversed $402 $-1 #
loop $-1 $-1 $267 $386 #
vertex $-1 $268 $535 #
straight-curve $-1 71.106906338694415 -34.283090213609064 0 0 0 1 I I #
point $-1 -71.106906338694415 -34.283090213609064 2.6508095756218681 #
point $-1 71.106906338694415 -34.283090213609064 2.6508095756218681 #
loop $-1 $-1 $281 $273 #
plane-surface $-1 -71.106906338694415 0 0 1 0 0 0 0 -1 forward_v I I I I #
coedge $-1 $410 $276 $278 $414 reversed $167 $-1 #
coedge $-1 $276 $409 $536 $537 reversed $167 $-1 #
coedge $-1 $284 $279 $276 $412 forward $274 $-1 #
edge $-1 $415 -7.5312562117229334 $538 -1.0693114713129717 $411 $539 forward 7 unknown #
coedge $-1 $278 $277 $418 $540 reversed $105 $-1 #
edge $-1 $541 0 $415 7.5387205813276701 $409 $542 forward 7 unknown #
vertex $-1 $280 $543 #
straight-curve $-1 -64.644961598284453 -6.4428966351314134 10.542204565334785 0 1 0 I I #
coedge $-1 $536 $281 $284 $422 reversed $407 $-1 #
coedge $-1 $281 $536 $413 $540 forward $407 $-1 #
vertex $-1 $282 $544 #
straight-curve $-1 -71.106906338694415 -19.104726436438604 64.280252863992402 0 0 1 I I #
straight-curve $-1 -71.106906338694415 -19.104726436438604 6.6594763781935029 -0.85716729658548041 0 -0.51503808176128008 I I #
edge $-1 $538 6.6668601040870499 $285 19.104726436438604 $417 $545 forward 7 unknown #
point $-1 -71.106906338694415 -19.104726436438604 10.542204565334787 #
point $-1 -64.644961598284453 -19.104726436438604 10.542204565334787 #
edge $-1 $546 1 $546 0 $288 $-1 forward 7 unknown #
vertex $-1 $289 $547 #
ellipse-curve $-1 -66.967956740454454 -15.551050341481016 7.0897126280629497 -0.51503808176128008 0 0.85716729658548041 0.85716729658548041 0 0.51503808176128008 1 I I #
point $-1 -67.018766671903947 -15.551050341481016 9.1158785535254196 #
edge $-1 $548 1 $548 0 $292 $-1 forward 7 unknown #
vertex $-1 $293 $549 #
ellipse-curve $-1 -66.967956740454454 -10.220536199044638 7.0897126280629497 -0.51503808176128008 0 0.85716729658548041 0.85716729658548041 0 0.51503808176128008 1 I I #
point $-1 -67.018766671903947 -10.220536199044638 9.1158785535254196 #
loop $-1 $-1 $304 $296 #
plane-surface $-1 -71.106906338694415 0 0 1 0 0 0 0 -1 forward_v I I I I #
coedge $-1 $436 $299 $301 $440 reversed $189 $-1 #
coedge $-1 $299 $435 $550 $551 reversed $189 $-1 #
coedge $-1 $307 $302 $299 $438 forward $297 $-1 #
edge $-1 $441 -7.5312562117229334 $552 -1.0693114713129717 $437 $553 forward 7 unknown #
coedge $-1 $301 $300 $444 $554 reversed $119 $-1 #
edge $-1 $555 0 $441 7.5387205813276701 $435 $556 forward 7 unknown #
vertex $-1 $303 $557 #
straight-curve $-1 -64.644961598284453 7.8319068839586627 10.542204565334785 0 1 0 I I #
coedge $-1 $550 $304 $307 $448 reversed $433 $-1 #
coedge $-1 $304 $550 $439 $554 forward $433 $-1 #
vertex $-1 $305 $558 #
straight-curve $-1 -71.106906338694415 9.4448806017415485 64.280252863992402 0 0 1 I I #
straight-curve $-1 -71.106906338694415 9.4448806017415485 6.6594763781935029 -0.85716729658548041 0 -0.51503808176128008 I I #
edge $-1 $552 -21.882746934093102 $308 -9.4448806017415485 $443 $559 forward 7 unknown #
point $-1 -71.106906338694415 9.4448806017415485 10.542204565334787 #
point $-1 -64.644961598284453 9.4448806017415485 10.542204565334787 #
edge $-1 $560 1 $560 0 $311 $-1 forward 7 unknown #
vertex $-1 $312 $561 #
ellipse-curve $-1 -66.967956740454454 12.99855669669914 7.0897126280629497 -0.51503808176128008 0 0.85716729658548041 0.85716729658548041 0 0.51503808176128008 1 I I #
point $-1 -67.018766671903947 12.99855669669914 9.1158785535254196 #
edge $-1 $562 1 $562 0 $315 $-1 forward 7 unknown #
vertex $-1 $316 $563 #
ellipse-curve $-1 -66.967956740454454 18.329070839135518 7.0897126280629497 -0.51503808176128008 0 0.85716729658548041 0.85716729658548041 0 0.51503808176128008 1 I I #
point $-1 -67.018766671903947 18.329070839135518 9.1158785535254196 #
plane-surface $-1 0 0 10.542204565334787 0 0 1 1 0 0 forward_v I I I I #
coedge $-1 $470 $469 $462 $564 forward $320 $-1 #
coedge $-1 $462 $322 $324 $466 reversed $211 $-1 #
coedge $-1 $322 $461 $460 $564 reversed $211 $-1 #
coedge $-1 $330 $325 $322 $464 forward $331 $-1 #
edge $-1 $467 39.20627711422221 $565 53.015574028367858 $463 $566 forward 7 unknown #
coedge $-1 $324 $323 $470 $567 reversed $133 $-1 #
edge $-1 $568 -142.21381267738883 $467 -125.35577380941496 $461 $569 forward 7 unknown #
vertex $-1 $326 $570 #
straight-curve $-1 57.297609424548767 -7.213405289842818 10.542204565334785 0 -1 0 I I #
coedge $-1 $460 $327 $330 $474 reversed $320 $-1 #
coedge $-1 $327 $460 $465 $567 forward $320 $-1 #
vertex $-1 $328 $571 #
straight-curve $-1 71.106906338694415 -8.9379551433505355 99.469029077163626 0 0 1 I I #
straight-curve $-1 -45.387828306011386 -8.9379551433505355 82.44332350962145 0.81915203911291934 0 -0.57357644374324357 I I #
edge $-1 $565 -19.915666016020737 $332 -8.9379551433505355 $469 $572 forward 7 unknown #
point $-1 71.106906338694415 -8.9379551433505355 10.542204565334787 #
point $-1 57.297609424548767 -8.9379551433505355 10.542204565334785 #
edge $-1 $573 1 $573 0 $335 $-1 forward 7 unknown #
vertex $-1 $336 $574 #
ellipse-curve $-1 62.034756139928284 -14.426810579685636 2.6120043415912266 0.57357644374324357 0 0.81915203911291934 1.6383040782258387 0 -1.1471528874864871 1 I I #
point $-1 65.840561959847392 -14.426810579685636 4.560364686659387 #
plane-surface $-1 0 0 10.542204565334787 0 0 1 1 0 0 forward_v I I I I #
coedge $-1 $492 $491 $484 $575 forward $340 $-1 #
coedge $-1 $484 $342 $344 $488 reversed $226 $-1 #
coedge $-1 $342 $483 $482 $575 reversed $226 $-1 #
coedge $-1 $350 $345 $342 $486 forward $351 $-1 #
edge $-1 $489 39.20627711422221 $576 53.015574028367858 $485 $577 forward 7 unknown #
coedge $-1 $344 $343 $492 $578 reversed $142 $-1 #
edge $-1 $579 -142.21381267738883 $489 -125.35577380941496 $483 $580 forward 7 unknown #
vertex $-1 $346 $581 #
straight-curve $-1 57.297609424548767 12.946888465271726 10.542204565334785 0 -1 0 I I #
coedge $-1 $482 $347 $350 $496 reversed $340 $-1 #
coedge $-1 $347 $482 $487 $578 forward $340 $-1 #
vertex $-1 $348 $582 #
straight-curve $-1 71.106906338694415 31.382632366878553 99.469029077163626 0 0 1 I I #
straight-curve $-1 -45.387828306011386 31.382632366878553 82.44332350962145 0.81915203911291934 0 -0.57357644374324357 I I #
edge $-1 $576 20.404921494208352 $352 31.382632366878553 $491 $583 forward 7 unknown #
point $-1 71.106906338694415 31.382632366878553 10.542204565334787 #
point $-1 57.297609424548767 31.382632366878553 10.542204565334785 #
edge $-1 $584 1 $584 0 $355 $-1 forward 7 unknown #
vertex $-1 $356 $585 #
ellipse-curve $-1 62.034756139928284 25.893776930543453 2.6120043415912266 0.57357644374324357 0 0.81915203911291934 1.6383040782258387 0 -1.1471528874864871 1 I I #
point $-1 65.840561959847392 25.893776930543453 4.560364686659387 #
plane-surface $-1 71.106906338694415 0 0 -1 0 0 0 0 1 forward_v I I I I #
coedge $-1 $364 $362 $366 $508 reversed $241 $-1 #
edge $-1 $377 -10.542204565334787 $510 10.542204565334787 $376 $586 forward 7 unknown #
vertex $-1 $508 $587 #
straight-curve $-1 -71.106906338694415 -34.283090213609064 0 0 0 -1 I I #
edge $-1 $506 -34.283090213609064 $510 34.283090213609064 $504 $588 forward 7 unknown #
straight-curve $-1 0 -34.283090213609064 -10.542204565334787 -1 0 0 I I #
vertex $-1 $369 $589 #
straight-curve $-1 0 34.283090213609064 -10.542204565334787 1 0 0 I I #
point $-1 71.106906338694415 34.283090213609064 -10.542204565334787 #
point $-1 71.106906338694415 -34.283090213609064 -10.542204565334787 #
straight-curve $-1 -71.106906338694415 0 10.542204565334787 0 -1 0 I I #
point $-1 -71.106906338694415 34.283090213609064 10.542204565334787 #
point $-1 -71.106906338694415 -34.283090213609064 10.542204565334787 #
straight-curve $-1 71.106906338694415 -34.283090213609064 0 0 0 -1 I I #
straight-curve $-1 71.106906338694415 34.283090213609064 0 0 0 -1 I I #
plane-surface $-1 71.106906338694415 0 0 -1 0 0 0 0 1 forward_v I I I I #
coedge $-1 $590 $523 $393 $528 forward $387 $-1 #
coedge $-1 $394 $389 $590 $591 forward $260 $-1 #
edge $-1 $403 -5.7334831754289084 $592 5.7334831754289084 $401 $593 forward 7 unknown #
coedge $-1 $520 $594 $390 $524 reversed $387 $-1 #
edge $-1 $531 -71.106906338694415 $526 71.106906338694415 $523 $595 forward 7 unknown #
coedge $-1 $401 $391 $594 $596 forward $402 $-1 #
vertex $-1 $392 $597 #
straight-curve $-1 71.106906338694415 -40.016573389037973 2.6508095756218681 0 1 0 I I #
edge $-1 $531 -2.1923808883804083 $529 2.1923808883804083 $393 $598 forward 7 unknown #
vertex $-1 $395 $599 #
straight-curve $-1 -71.106906338694415 -40.016573389037973 -1.7339522011389485 0 1 0 I I #
vertex $-1 $396 $600 #
straight-curve $-1 -71.106906338694415 -40.016573389037973 2.6508095756218681 0 -1 0 I I #
point $-1 -71.106906338694415 -34.283090213609064 -1.7339522011389485 #
straight-curve $-1 0 -34.283090213609064 -1.7339522011389485 -1 0 0 I I #
point $-1 71.106906338694415 -34.283090213609064 -1.7339522011389485 #
coedge $-1 $418 $417 $410 $537 forward $407 $-1 #
edge $-1 $538 53.738048298657617 $541 57.620776485798899 $536 $601 forward 7 unknown #
vertex $-1 $422 $602 #
straight-curve $-1 -72.176217810007387 -6.6668601040870499 10.542204565334785 -1 0 0 I I #
edge $-1 $541 0.22396346895563646 $419 12.66182980130719 $418 $603 forward 7 unknown #
vertex $-1 $540 $604 #
straight-curve $-1 -71.106906338694415 -6.6668601040870499 6.6594763781935029 0.85716729658548041 0 0.51503808176128008 I I #
point $-1 -64.644961598284453 -6.6668601040870499 10.542204565334787 #
point $-1 -71.106906338694415 -19.104726436438604 6.6594763781935029 #
straight-curve $-1 -71.106906338694415 0 10.542204565334787 0 -1 0 I I #
vertex $-1 $425 $605 #
point $-1 -66.110789443868981 -15.551050341481016 7.6047507098242297 #
vertex $-1 $429 $606 #
point $-1 -66.110789443868981 -10.220536199044638 7.6047507098242297 #
coedge $-1 $444 $443 $436 $551 forward $433 $-1 #
edge $-1 $552 53.738048298657617 $555 57.620776485798899 $550 $607 forward 7 unknown #
vertex $-1 $448 $608 #
straight-curve $-1 -72.176217810007387 21.882746934093102 10.542204565334785 -1 0 0 I I #
edge $-1 $555 -14.05084005013444 $445 -1.6129737177828858 $444 $609 forward 7 unknown #
vertex $-1 $554 $610 #
straight-curve $-1 -71.106906338694415 21.882746934093102 6.6594763781935029 0.85716729658548041 0 0.51503808176128008 I I #
point $-1 -64.644961598284453 21.882746934093102 10.542204565334787 #
point $-1 -71.106906338694415 9.4448806017415485 6.6594763781935029 #
straight-curve $-1 -71.106906338694415 0 10.542204565334787 0 -1 0 I I #
vertex $-1 $451 $611 #
point $-1 -66.110789443868981 12.99855669669914 7.6047507098242297 #
vertex $-1 $455 $612 #
point $-1 -66.110789443868981 18.329070839135518 7.6047507098242297 #
edge $-1 $565 88.926824511828841 $568 98.596198494206675 $460 $613 forward 7 unknown #
vertex $-1 $474 $614 #
straight-curve $-1 18.091332310326557 -19.915666016020737 10.542204565334785 1 0 0 I I #
edge $-1 $568 -12.702260726177919 $471 -1.7245498535077175 $470 $615 forward 7 unknown #
vertex $-1 $567 $616 #
straight-curve $-1 -45.387828306011386 -19.915666016020737 82.44332350962145 -0.81915203911291934 0 0.57357644374324357 I I #
point $-1 57.297609424548767 -19.915666016020737 10.542204565334785 #
point $-1 71.106906338694415 -8.9379551433505355 0.87283058295695071 #
straight-curve $-1 71.106906338694415 0 10.542204565334787 0 1 0 I I #
vertex $-1 $477 $617 #
point $-1 63.67306021815412 -14.426810579685636 1.4648514541047395 #
edge $-1 $576 88.926824511828841 $579 98.596198494206675 $482 $618 forward 7 unknown #
vertex $-1 $496 $619 #
straight-curve $-1 18.091332310326557 20.404921494208352 10.542204565334785 1 0 0 I I #
edge $-1 $579 7.4580330289366259 $493 18.435743901606827 $492 $620 forward 7 unknown #
vertex $-1 $578 $621 #
straight-curve $-1 -45.387828306011386 20.404921494208352 82.44332350962145 -0.81915203911291934 0 0.57357644374324357 I I #
point $-1 57.297609424548767 20.404921494208352 10.542204565334785 #
point $-1 71.106906338694415 31.382632366878553 0.87283058295695071 #
straight-curve $-1 71.106906338694415 0 10.542204565334787 0 1 0 I I #
vertex $-1 $499 $622 #
point $-1 63.67306021815412 25.893776930543453 1.4648514541047395 #
straight-curve $-1 -71.106906338694415 34.283090213609064 0 0 0 -1 I I #
point $-1 -71.106906338694415 -34.283090213609064 -10.542204565334787 #
straight-curve $-1 -71.106906338694415 0 -10.542204565334787 0 1 0 I I #
point $-1 -71.106906338694415 34.283090213609064 -10.542204565334787 #
coedge $-1 $594 $520 $521 $591 reversed $387 $-1 #
edge $-1 $592 -71.106906338694415 $529 71.106906338694415 $590 $623 forward 7 unknown #
vertex $-1 $596 $624 #
straight-curve $-1 71.106906338694415 -40.016573389037973 -1.7339522011389485 0 -1 0 I I #
coedge $-1 $523 $590 $525 $596 reversed $387 $-1 #
straight-curve $-1 0 -45.750056564466881 2.6508095756218681 1 0 0 I I #
edge $-1 $526 -2.1923808883804083 $592 2.1923808883804083 $525 $625 forward 7 unknown #
point $-1 71.106906338694415 -45.750056564466881 2.6508095756218681 #
straight-curve $-1 -71.106906338694415 -45.750056564466881 0.4584286872414598 0 0 -1 I I #
point $-1 -71.106906338694415 -45.750056564466881 -1.7339522011389485 #
point $-1 -71.106906338694415 -45.750056564466881 2.6508095756218681 #
straight-curve $-1 -71.106906338694415 -6.6668601040870499 64.280252863992402 0 0 -1 I I #
point $-1 -71.106906338694415 -6.6668601040870499 10.542204565334787 #
straight-curve $-1 -71.106906338694415 -6.4428966351314134 6.6594763781935038 0 -1 0 I I #
point $-1 -71.106906338694415 -6.6668601040870499 6.6594763781935029 #
point $-1 -66.452918658693179 -15.551050341481016 6.2325453314774695 #
point $-1 -66.452918658693179 -10.220536199044638 6.2325453314774695 #
straight-curve $-1 -71.106906338694415 21.882746934093102 64.280252863992402 0 0 -1 I I #
point $-1 -71.106906338694415 21.882746934093102 10.542204565334787 #
straight-curve $-1 -71.106906338694415 7.8319068839586627 6.6594763781935038 0 -1 0 I I #
point $-1 -71.106906338694415 21.882746934093102 6.6594763781935029 #
point $-1 -66.452918658693179 12.99855669669914 6.2325453314774695 #
point $-1 -66.452918658693179 18.329070839135518 6.2325453314774695 #
straight-curve $-1 71.106906338694415 -19.915666016020737 99.469029077163626 0 0 -1 I I #
point $-1 71.106906338694415 -19.915666016020737 10.542204565334787 #
straight-curve $-1 71.106906338694415 -7.213405289842818 0.87283058295695781 0 1 0 I I #
point $-1 71.106906338694415 -19.915666016020737 0.87283058295695071 #
point $-1 60.887603252441799 -14.426810579685636 0.97370026336538784 #
straight-curve $-1 71.106906338694415 20.404921494208352 99.469029077163626 0 0 -1 I I #
point $-1 71.106906338694415 20.404921494208352 10.542204565334787 #
straight-curve $-1 71.106906338694415 12.946888465271726 0.87283058295695781 0 1 0 I I #
point $-1 71.106906338694415 20.404921494208352 0.87283058295695071 #
point $-1 60.887603252441799 25.893776930543453 0.97370026336538784 #
straight-curve $-1 0 -45.750056564466881 -1.7339522011389485 -1 0 0 I I #
point $-1 71.106906338694415 -45.750056564466881 -1.7339522011389485 #
straight-curve $-1 71.106906338694415 -45.750056564466881 0.4584286872414598 0 0 -1 I I #
End-of-ACIS-data 