500 0 11 0           
7 Unknown 11 ACIS 5.0 NT 24 Fri Mar 26 14:58:19 1999 
-1 9.9999999999999995e-007 1e-010 
body $-1 $11 $-1 $12 #
body $-1 $13 $-1 $14 #
body $-1 $15 $-1 $16 #
body $-1 $17 $-1 $18 #
body $-1 $19 $-1 $20 #
body $-1 $21 $-1 $22 #
body $-1 $23 $-1 $24 #
body $-1 $25 $-1 $26 #
body $-1 $27 $-1 $28 #
body $-1 $29 $-1 $30 #
body $-1 $31 $-1 $32 #
lump $-1 $-1 $33 $0 #
transform $-1 1 0 0 0 1 0 0 0 1 62.609332560197757 30.576481928809734 7.3957629680768591 1 rotate no_reflect no_shear #
lump $-1 $-1 $34 $1 #
transform $-1 1 0 0 0 1 0 0 0 1 62.609332560197757 30.576481928809734 7.3957629680768591 1 rotate no_reflect no_shear #
lump $-1 $-1 $35 $2 #
transform $-1 1 0 0 0 1 0 0 0 1 62.609332560197757 30.576481928809734 7.3957629680768591 1 rotate no_reflect no_shear #
lump $-1 $-1 $36 $3 #
transform $-1 1 0 0 0 1 0 0 0 1 62.609332560197757 30.576481928809734 7.3957629680768591 1 rotate no_reflect no_shear #
lump $-1 $-1 $37 $4 #
transform $-1 1 0 0 0 1 0 0 0 1 62.609332560197757 30.576481928809734 7.3957629680768591 1 rotate no_reflect no_shear #
lump $-1 $-1 $38 $5 #
transform $-1 1 0 0 0 1 0 0 0 1 62.609332560197757 30.576481928809734 7.3957629680768591 1 rotate no_reflect no_shear #
lump $-1 $-1 $39 $6 #
transform $-1 1 0 0 0 1 0 0 0 1 62.609332560197757 30.576481928809734 7.3957629680768591 1 rotate no_reflect no_shear #
lump $-1 $-1 $40 $7 #
transform $-1 1 0 0 0 1 0 0 0 1 62.609332560197757 30.576481928809734 7.3957629680768591 1 rotate no_reflect no_shear #
lump $-1 $-1 $41 $8 #
transform $-1 1 0 0 0 1 0 0 0 1 62.609332560197757 30.576481928809734 7.3957629680768591 1 rotate no_reflect no_shear #
lump $-1 $-1 $42 $9 #
transform $-1 1 0 0 0 1 0 0 0 1 62.609332560197757 30.576481928809734 7.3957629680768591 1 rotate no_reflect no_shear #
lump $-1 $-1 $43 $10 #
transform $-1 1 0 0 0 1 0 0 0 1 62.609332560197757 30.576481928809734 7.3957629680768591 1 rotate no_reflect no_shear #
shell $-1 $-1 $-1 $44 $-1 $11 #
shell $-1 $-1 $-1 $45 $-1 $13 #
shell $-1 $-1 $-1 $46 $-1 $15 #
shell $-1 $-1 $-1 $47 $-1 $17 #
shell $-1 $-1 $-1 $48 $-1 $19 #
shell $-1 $-1 $-1 $49 $-1 $21 #
shell $-1 $-1 $-1 $50 $-1 $23 #
shell $-1 $-1 $-1 $51 $-1 $25 #
shell $-1 $-1 $-1 $52 $-1 $27 #
shell $-1 $-1 $-1 $53 $-1 $29 #
shell $-1 $-1 $-1 $54 $-1 $31 #
face $-1 $55 $56 $33 $-1 $57 forward single #
face $-1 $58 $59 $34 $-1 $60 forward single #
face $-1 $61 $62 $35 $-1 $63 forward single #
face $-1 $64 $65 $36 $-1 $66 reversed single #
face $-1 $67 $68 $37 $-1 $69 forward single #
face $-1 $70 $71 $38 $-1 $72 forward single #
face $-1 $73 $74 $39 $-1 $75 forward single #
face $-1 $76 $77 $40 $-1 $78 reversed single #
face $-1 $79 $80 $41 $-1 $81 forward single #
face $-1 $82 $83 $42 $-1 $84 reversed single #
face $-1 $85 $86 $43 $-1 $87 forward single #
face $-1 $88 $89 $33 $-1 $90 reversed single #
loop $-1 $-1 $91 $44 #
plane-surface $-1 0 0 7.3957629680768591 0 0 1 1 0 0 forward_v I I I I #
face $-1 $92 $93 $34 $-1 $94 reversed single #
loop $-1 $-1 $95 $45 #
plane-surface $-1 -59.75519823031302 0 -3.8957629680768591 0 0 1 1 0 0 forward_v I I I I #
face $-1 $96 $97 $35 $-1 $98 reversed single #
loop $-1 $-1 $99 $46 #
plane-surface $-1 59.755198230313013 0 -3.8957629680768591 0 0 1 1 0 0 forward_v I I I I #
face $-1 $100 $101 $36 $-1 $102 reversed single #
loop $-1 $-1 $103 $47 #
plane-surface $-1 51.807732943926439 106.41372410578143 117.60225428224661 -1 0 0 0 0.85716730853699208 0.51503806187062418 forward_v I I I I #
face $-1 $104 $105 $37 $-1 $106 forward single #
loop $-1 $107 $108 $48 #
cone-surface $-1 28.784048578026642 27.277747631459164 3.2718009757221171 0 -0.85716730853699208 -0.51503806187062418 1 0 0 1 I I 0 1 1 forward I I I I #
face $-1 $109 $110 $38 $-1 $111 forward single #
loop $-1 $112 $113 $49 #
cone-surface $-1 37.417930215239068 27.277747631459164 3.2718009757221171 0 -0.85716730853699208 -0.51503806187062418 1 0 0 1 I I 0 1 1 forward I I I I #
face $-1 $114 $115 $39 $-1 $116 forward single #
loop $-1 $117 $118 $50 #
cone-surface $-1 46.051811852451493 27.277747631459164 3.2718009757221171 0 -0.85716730853699208 -0.51503806187062418 1 0 0 1 I I 0 1 1 forward I I I I #
face $-1 $119 $120 $40 $-1 $121 reversed single #
loop $-1 $-1 $122 $51 #
plane-surface $-1 -38.133694138442287 -139.01902791961933 66.794072544200645 1 0 0 0 0.86602541151947299 -0.49999998660252726 forward_v I I I I #
face $-1 $123 $124 $41 $-1 $125 forward single #
loop $-1 $126 $127 $52 #
cone-surface $-1 -29.041193433994444 -28.85965220254743 5.3342104251528131 0 0.86602541151947299 -0.49999998660252726 0.5 0 0 1 I I 0 1 0.5 forward I I I I #
face $-1 $128 $129 $42 $-1 $130 reversed single #
loop $-1 $-1 $131 $53 #
plane-surface $-1 18.767369761985989 -139.01902791961933 66.794072544200645 1 0 0 0 0.86602541151947299 -0.49999998660252726 forward_v I I I I #
face $-1 $132 $133 $43 $-1 $134 forward single #
loop $-1 $135 $136 $54 #
cone-surface $-1 27.859870466433833 -28.85965220254743 5.3342104251528131 0 0.86602541151947299 -0.49999998660252726 0.5 0 0 1 I I 0 1 0.5 forward I I I I #
face $-1 $137 $138 $33 $-1 $139 reversed single #
loop $-1 $-1 $140 $55 #
plane-surface $-1 0 0 -7.3957629680768591 0 0 1 1 0 0 forward_v I I I I #
coedge $-1 $141 $142 $143 $144 forward $56 $-1 #
face $-1 $145 $146 $34 $-1 $147 reversed single #
loop $-1 $-1 $148 $58 #
plane-surface $-1 -59.75519823031302 0 -6.8957629680768591 0 0 1 1 0 0 forward_v I I I I #
coedge $-1 $149 $150 $151 $152 forward $59 $-1 #
face $-1 $153 $154 $35 $-1 $155 reversed single #
loop $-1 $-1 $156 $61 #
plane-surface $-1 59.755198230313013 0 -6.8957629680768591 0 0 1 1 0 0 forward_v I I I I #
coedge $-1 $157 $158 $159 $160 reversed $62 $-1 #
face $-1 $161 $162 $36 $-1 $163 reversed single #
loop $-1 $-1 $164 $64 #
plane-surface $-1 37.417930215239068 -0.91962205406294117 53.109875688611368 0 0.85716730853699208 0.51503806187062418 1 0 0 forward_v I I I I #
coedge $-1 $165 $166 $167 $168 reversed $65 $-1 #
face $-1 $-1 $169 $37 $-1 $170 forward single #
loop $-1 $171 $172 $67 #
cone-surface $-1 28.784048578026642 25.56457711073913 2.2424243116126092 0 -0.85716730853699208 -0.51503806187062418 0.5 0 0 1 I I -0.70710678118654746 0.70710678118654746 0.5 forward I I I I #
loop $-1 $-1 $173 $48 #
coedge $-1 $108 $108 $174 $175 reversed $68 $-1 #
face $-1 $-1 $176 $38 $-1 $177 forward single #
loop $-1 $178 $179 $70 #
cone-surface $-1 37.417930215239068 25.56457711073913 2.2424243116126092 0 -0.85716730853699208 -0.51503806187062418 0.5 0 0 1 I I -0.70710678118654746 0.70710678118654746 0.5 forward I I I I #
loop $-1 $-1 $180 $49 #
coedge $-1 $113 $113 $181 $182 reversed $71 $-1 #
face $-1 $-1 $183 $39 $-1 $184 forward single #
loop $-1 $185 $186 $73 #
cone-surface $-1 46.051811852451493 25.56457711073913 2.2424243116126092 0 -0.85716730853699208 -0.51503806187062418 0.5 0 0 1 I I -0.70710678118654746 0.70710678118654746 0.5 forward I I I I #
loop $-1 $-1 $187 $50 #
coedge $-1 $118 $118 $188 $189 reversed $74 $-1 #
face $-1 $190 $191 $40 $-1 $192 reversed single #
loop $-1 $-1 $193 $76 #
plane-surface $-1 -29.041193433994444 -30.576481928809741 4.1847416616165489 0 -0.86602541151947299 0.49999998660252726 1 0 0 forward_v I I I I #
coedge $-1 $194 $195 $196 $197 reversed $77 $-1 #
face $-1 $-1 $198 $41 $-1 $199 forward single #
loop $-1 $200 $201 $79 #
cone-surface $-1 -29.041193433994444 -27.853258098118019 4.7531685388082892 0 0.86602541151947299 -0.49999998660252726 0.25 0 0 1 I I -0.70710678118654746 0.70710678118654746 0.25 forward I I I I #
loop $-1 $-1 $202 $52 #
coedge $-1 $127 $127 $203 $204 reversed $80 $-1 #
face $-1 $205 $206 $42 $-1 $207 reversed single #
loop $-1 $-1 $208 $82 #
plane-surface $-1 27.859870466433833 -30.576481928809741 4.1847416616165489 0 -0.86602541151947299 0.49999998660252726 1 0 0 forward_v I I I I #
coedge $-1 $209 $210 $211 $212 reversed $83 $-1 #
face $-1 $-1 $213 $43 $-1 $214 forward single #
loop $-1 $215 $216 $85 #
cone-surface $-1 27.859870466433833 -27.853258098118019 4.7531685388082892 0 0.86602541151947299 -0.49999998660252726 0.25 0 0 1 I I -0.70710678118654746 0.70710678118654746 0.25 forward I I I I #
loop $-1 $-1 $217 $54 #
coedge $-1 $136 $136 $218 $219 reversed $86 $-1 #
face $-1 $220 $221 $33 $-1 $222 reversed single #
loop $-1 $-1 $223 $88 #
plane-surface $-1 0 -30.576481928809734 0 0 1 0 0 0 1 forward_v I I I I #
coedge $-1 $224 $225 $226 $227 forward $89 $-1 #
coedge $-1 $228 $91 $229 $230 forward $56 $-1 #
coedge $-1 $91 $228 $231 $232 forward $56 $-1 #
coedge $-1 $233 $234 $91 $144 reversed $235 $-1 #
edge $-1 $236 -30.576481928809734 $237 30.576481928809734 $143 $238 forward 7 unknown #
face $-1 $239 $240 $34 $-1 $241 reversed single #
loop $-1 $-1 $242 $92 #
plane-surface $-1 -56.901063900428284 0 -5.3957629680768591 -1 0 0 0 0 1 forward_v I I I I #
coedge $-1 $243 $244 $245 $246 forward $93 $-1 #
coedge $-1 $247 $95 $248 $249 reversed $59 $-1 #
coedge $-1 $95 $247 $250 $251 reversed $59 $-1 #
coedge $-1 $242 $252 $95 $152 reversed $146 $-1 #
edge $-1 $253 -30.576481928809734 $254 30.576481928809734 $151 $255 forward 7 unknown #
face $-1 $256 $257 $35 $-1 $258 reversed single #
loop $-1 $-1 $259 $96 #
plane-surface $-1 56.901063900428277 0 -5.3957629680768591 1 0 0 0 0 -1 forward_v I I I I #
coedge $-1 $260 $261 $262 $263 reversed $97 $-1 #
coedge $-1 $264 $99 $265 $266 reversed $62 $-1 #
coedge $-1 $99 $264 $267 $268 reversed $62 $-1 #
coedge $-1 $269 $270 $99 $160 forward $271 $-1 #
edge $-1 $272 -30.576481928809734 $273 30.576481928809734 $159 $274 forward 7 unknown #
face $-1 $275 $276 $36 $-1 $277 reversed single #
loop $-1 $-1 $278 $100 #
plane-surface $-1 23.028127486551696 106.41372410578143 117.60225428224661 1 0 0 0 -0.85716730853699208 -0.51503806187062418 forward_v I I I I #
coedge $-1 $279 $280 $281 $282 reversed $101 $-1 #
coedge $-1 $166 $103 $283 $284 reversed $65 $-1 #
coedge $-1 $103 $165 $279 $285 reversed $65 $-1 #
coedge $-1 $281 $286 $103 $168 forward $276 $-1 #
edge $-1 $287 51.405364173046443 $288 58.109572891407588 $167 $289 forward 7 unknown #
loop $-1 $-1 $174 $104 #
plane-surface $-1 37.417930215239068 -0.91962205406294117 53.109875688611368 0 0.85716730853699208 0.51503806187062418 1 0 0 forward_v I I I I #
loop $-1 $-1 $290 $67 #
coedge $-1 $172 $172 $173 $291 reversed $105 $-1 #
coedge $-1 $173 $173 $172 $291 forward $107 $-1 #
coedge $-1 $174 $174 $108 $175 forward $169 $-1 #
edge $-1 $292 3.2025152785405749e-016 $292 6.2831853071796004 $174 $293 forward 7 unknown #
loop $-1 $-1 $181 $109 #
plane-surface $-1 37.417930215239068 -0.91962205406294117 53.109875688611368 0 0.85716730853699208 0.51503806187062418 1 0 0 forward_v I I I I #
loop $-1 $-1 $294 $70 #
coedge $-1 $179 $179 $180 $295 reversed $110 $-1 #
coedge $-1 $180 $180 $179 $295 forward $112 $-1 #
coedge $-1 $181 $181 $113 $182 forward $176 $-1 #
edge $-1 $296 3.2025152785405749e-016 $296 6.2831853071796004 $181 $297 forward 7 unknown #
loop $-1 $-1 $188 $114 #
plane-surface $-1 37.417930215239068 -0.91962205406294117 53.109875688611368 0 0.85716730853699208 0.51503806187062418 1 0 0 forward_v I I I I #
loop $-1 $-1 $298 $73 #
coedge $-1 $186 $186 $187 $299 reversed $115 $-1 #
coedge $-1 $187 $187 $186 $299 forward $117 $-1 #
coedge $-1 $188 $188 $118 $189 forward $183 $-1 #
edge $-1 $300 3.2025152785405749e-016 $300 6.2831853071796004 $188 $301 forward 7 unknown #
face $-1 $302 $303 $40 $-1 $304 forward single #
loop $-1 $-1 $305 $119 #
plane-surface $-1 -19.9486927295466 -139.01902791961933 66.794072544200645 -1 0 0 0 -0.86602541151947299 0.49999998660252726 forward_v I I I I #
coedge $-1 $306 $307 $308 $309 reversed $120 $-1 #
coedge $-1 $195 $122 $310 $311 reversed $77 $-1 #
coedge $-1 $122 $194 $306 $312 reversed $77 $-1 #
coedge $-1 $308 $313 $122 $197 forward $314 $-1 #
edge $-1 $315 26.001273304023464 $316 29.21229461048376 $196 $317 forward 7 unknown #
loop $-1 $-1 $203 $123 #
plane-surface $-1 -29.041193433994444 -30.576481928809741 4.1847416616165489 0 -0.86602541151947299 0.49999998660252726 1 0 0 forward_v I I I I #
loop $-1 $-1 $318 $79 #
coedge $-1 $201 $201 $202 $319 reversed $124 $-1 #
coedge $-1 $202 $202 $201 $319 forward $126 $-1 #
coedge $-1 $203 $203 $127 $204 forward $198 $-1 #
edge $-1 $320 2.4903166786703659e-015 $320 6.2831853071796031 $203 $321 forward 7 unknown #
face $-1 $322 $323 $42 $-1 $324 reversed single #
loop $-1 $-1 $325 $128 #
plane-surface $-1 36.952371170881676 -139.01902791961933 66.794072544200645 -1 0 0 0 -0.86602541151947299 0.49999998660252726 forward_v I I I I #
coedge $-1 $326 $327 $328 $329 reversed $129 $-1 #
coedge $-1 $210 $131 $330 $331 reversed $83 $-1 #
coedge $-1 $131 $209 $326 $332 reversed $83 $-1 #
coedge $-1 $328 $333 $131 $212 forward $323 $-1 #
edge $-1 $334 26.001273304023464 $335 29.21229461048376 $211 $336 forward 7 unknown #
loop $-1 $-1 $218 $132 #
plane-surface $-1 27.859870466433833 -30.576481928809741 4.1847416616165489 0 -0.86602541151947299 0.49999998660252726 1 0 0 forward_v I I I I #
loop $-1 $-1 $337 $85 #
coedge $-1 $216 $216 $217 $338 reversed $133 $-1 #
coedge $-1 $217 $217 $216 $338 forward $135 $-1 #
coedge $-1 $218 $218 $136 $219 forward $213 $-1 #
edge $-1 $339 2.4903166786703659e-015 $339 6.2831853071796031 $218 $340 forward 7 unknown #
face $-1 $341 $342 $33 $-1 $343 reversed single #
loop $-1 $-1 $344 $137 #
plane-surface $-1 -62.609332560197757 0 0 1 0 0 0 0 -1 forward_v I I I I #
coedge $-1 $345 $231 $346 $347 forward $138 $-1 #
coedge $-1 $348 $140 $345 $349 forward $89 $-1 #
coedge $-1 $140 $348 $350 $351 forward $89 $-1 #
coedge $-1 $234 $233 $140 $227 reversed $235 $-1 #
edge $-1 $352 -30.576481928809734 $353 30.576481928809734 $226 $354 forward 7 unknown #
coedge $-1 $142 $141 $355 $356 forward $56 $-1 #
coedge $-1 $357 $358 $141 $230 reversed $342 $-1 #
edge $-1 $237 -62.609332560197757 $359 62.609332560197757 $229 $360 forward 7 unknown #
coedge $-1 $223 $361 $142 $232 reversed $138 $-1 #
edge $-1 $362 -62.609332560197757 $236 62.609332560197757 $231 $363 forward 7 unknown #
coedge $-1 $226 $143 $361 $364 forward $235 $-1 #
coedge $-1 $143 $226 $357 $365 reversed $235 $-1 #
loop $-1 $-1 $233 $341 #
vertex $-1 $144 $366 #
vertex $-1 $144 $367 #
straight-curve $-1 62.609332560197757 0 7.3957629680768591 0 1 0 I I #
face $-1 $368 $369 $34 $-1 $370 reversed single #
loop $-1 $-1 $371 $145 #
plane-surface $-1 0 -30.576481928809734 0 0 1 0 0 0 1 forward_v I I I I #
coedge $-1 $245 $151 $372 $373 reversed $146 $-1 #
coedge $-1 $374 $148 $371 $375 reversed $93 $-1 #
coedge $-1 $148 $374 $376 $377 reversed $93 $-1 #
coedge $-1 $252 $242 $148 $246 reversed $146 $-1 #
edge $-1 $378 -30.576481928809734 $379 30.576481928809734 $245 $380 forward 7 unknown #
coedge $-1 $150 $149 $381 $382 reversed $59 $-1 #
coedge $-1 $383 $384 $149 $249 forward $385 $-1 #
edge $-1 $386 -32.731733445041243 $254 -27.023464785271774 $248 $387 forward 7 unknown #
coedge $-1 $388 $372 $150 $251 forward $240 $-1 #
edge $-1 $253 27.023464785271774 $389 32.731733445041243 $250 $390 forward 7 unknown #
coedge $-1 $151 $245 $383 $391 reversed $146 $-1 #
vertex $-1 $251 $392 #
vertex $-1 $249 $393 #
straight-curve $-1 -56.901063900428284 0 -3.8957629680768591 0 1 0 I I #
face $-1 $394 $395 $35 $-1 $396 reversed single #
loop $-1 $-1 $267 $153 #
plane-surface $-1 0 -30.576481928809734 0 0 1 0 0 0 1 forward_v I I I I #
coedge $-1 $397 $398 $399 $400 reversed $154 $-1 #
coedge $-1 $401 $156 $402 $403 reversed $97 $-1 #
coedge $-1 $156 $401 $404 $405 reversed $97 $-1 #
coedge $-1 $270 $269 $156 $263 forward $271 $-1 #
edge $-1 $406 -30.576481928809734 $407 30.576481928809734 $262 $408 forward 7 unknown #
coedge $-1 $158 $157 $398 $409 forward $62 $-1 #
coedge $-1 $410 $399 $157 $266 forward $395 $-1 #
edge $-1 $411 27.02346478527177 $272 32.731733445041243 $265 $412 forward 7 unknown #
coedge $-1 $413 $414 $158 $268 forward $257 $-1 #
edge $-1 $273 -32.731733445041243 $415 -27.02346478527177 $267 $416 forward 7 unknown #
coedge $-1 $262 $159 $414 $417 forward $271 $-1 #
coedge $-1 $159 $262 $410 $418 reversed $271 $-1 #
loop $-1 $-1 $159 $394 #
vertex $-1 $418 $419 #
vertex $-1 $417 $420 #
straight-curve $-1 62.609332560197757 0 -3.8957629680768591 0 -1 0 I I #
face $-1 $-1 $421 $36 $-1 $422 forward single #
loop $-1 $-1 $167 $161 #
plane-surface $-1 0 30.576481928809734 0 0 -1 0 0 0 -1 forward_v I I I I #
coedge $-1 $423 $424 $425 $426 reversed $162 $-1 #
coedge $-1 $427 $164 $166 $285 forward $101 $-1 #
coedge $-1 $164 $427 $423 $428 forward $101 $-1 #
coedge $-1 $425 $167 $164 $282 forward $276 $-1 #
edge $-1 $288 -33.098767836306905 $429 -4.3191623789321625 $281 $430 forward 7 unknown #
coedge $-1 $431 $432 $165 $284 forward $421 $-1 #
edge $-1 $433 -26.65867498587907 $287 -22.630380124080979 $283 $434 forward 7 unknown #
edge $-1 $288 -61.152963857619504 $433 -53.331610136367757 $166 $435 forward 7 unknown #
coedge $-1 $167 $425 $431 $436 reversed $276 $-1 #
vertex $-1 $436 $437 #
vertex $-1 $168 $438 #
straight-curve $-1 51.807732943926439 30.576481928809734 58.801127141123303 0 0 -1 I I #
coedge $-1 $290 $290 $-1 $439 reversed $171 $-1 #
edge $-1 $440 0 $440 6.2831853071796004 $172 $441 forward 7 unknown #
vertex $-1 $175 $442 #
ellipse-curve $-1 28.784048578026642 28.56233449791068 4.0436586088963002 0 0.85716730853699208 0.51503806187062418 1 0 0 1 I I #
coedge $-1 $294 $294 $-1 $443 reversed $178 $-1 #
edge $-1 $444 0 $444 6.2831853071796004 $179 $445 forward 7 unknown #
vertex $-1 $182 $446 #
ellipse-curve $-1 37.417930215239068 28.56233449791068 4.0436586088963002 0 0.85716730853699208 0.51503806187062418 1 0 0 1 I I #
coedge $-1 $298 $298 $-1 $447 reversed $185 $-1 #
edge $-1 $448 0 $448 6.2831853071796004 $186 $449 forward 7 unknown #
vertex $-1 $189 $450 #
ellipse-curve $-1 46.051811852451493 28.56233449791068 4.0436586088963002 0 0.85716730853699208 0.51503806187062418 1 0 0 1 I I #
face $-1 $-1 $314 $40 $-1 $451 reversed single #
loop $-1 $-1 $452 $190 #
plane-surface $-1 0 0 7.3957629680768591 0 0 1 1 0 0 forward_v I I I I #
coedge $-1 $453 $454 $455 $456 reversed $191 $-1 #
coedge $-1 $457 $193 $195 $312 forward $120 $-1 #
coedge $-1 $193 $457 $453 $458 forward $120 $-1 #
coedge $-1 $455 $196 $193 $309 forward $314 $-1 #
edge $-1 $316 -23.613097421445065 $459 -5.4280960125493785 $308 $460 forward 7 unknown #
coedge $-1 $461 $462 $194 $311 forward $303 $-1 #
edge $-1 $463 -40.786915980425448 $315 -38.933032030999932 $310 $464 forward 7 unknown #
edge $-1 $316 1.4321304723534956e-014 $463 3.7077679982004876 $195 $465 forward 7 unknown #
coedge $-1 $196 $455 $461 $466 reversed $314 $-1 #
loop $-1 $-1 $455 $302 #
vertex $-1 $466 $467 #
vertex $-1 $197 $468 #
straight-curve $-1 -38.133694138442287 -30.576481928809734 33.397036272100323 0 0 -1 I I #
coedge $-1 $318 $318 $-1 $469 reversed $200 $-1 #
edge $-1 $470 0 $470 6.2831853071796004 $201 $471 forward 7 unknown #
vertex $-1 $204 $472 #
ellipse-curve $-1 -29.041193433994444 -29.649539954096976 5.7902523148467084 0 -0.86602541151947299 0.49999998660252726 0.5 0 0 1 I I #
face $-1 $-1 $473 $42 $-1 $474 forward single #
loop $-1 $-1 $211 $205 #
plane-surface $-1 0 -30.576481928809734 0 0 1 0 0 0 1 forward_v I I I I #
coedge $-1 $475 $476 $477 $478 reversed $206 $-1 #
coedge $-1 $479 $208 $210 $332 forward $129 $-1 #
coedge $-1 $208 $479 $475 $480 forward $129 $-1 #
coedge $-1 $477 $211 $208 $329 forward $323 $-1 #
edge $-1 $335 4.837434528769073 $481 23.02243593766476 $328 $482 forward 7 unknown #
coedge $-1 $483 $484 $209 $331 forward $473 $-1 #
edge $-1 $485 -40.786915980425448 $334 -38.933032030999932 $330 $486 forward 7 unknown #
edge $-1 $335 1.4321304723534956e-014 $485 3.7077679982004876 $210 $487 forward 7 unknown #
coedge $-1 $211 $477 $483 $488 reversed $323 $-1 #
vertex $-1 $488 $489 #
vertex $-1 $212 $490 #
straight-curve $-1 18.767369761985989 -30.576481928809734 33.397036272100323 0 0 -1 I I #
coedge $-1 $337 $337 $-1 $491 reversed $215 $-1 #
edge $-1 $492 0 $492 6.2831853071796004 $216 $493 forward 7 unknown #
vertex $-1 $219 $494 #
ellipse-curve $-1 27.859870466433833 -29.649539954096976 5.7902523148467084 0 -0.86602541151947299 0.49999998660252726 0.5 0 0 1 I I #
face $-1 $-1 $235 $33 $-1 $495 reversed single #
loop $-1 $-1 $357 $220 #
plane-surface $-1 0 30.576481928809734 0 0 -1 0 0 0 -1 forward_v I I I I #
coedge $-1 $496 $355 $358 $497 forward $221 $-1 #
coedge $-1 $361 $223 $224 $349 reversed $138 $-1 #
coedge $-1 $355 $496 $223 $347 reversed $221 $-1 #
edge $-1 $362 -7.3957629680768591 $498 7.3957629680768591 $346 $499 forward 7 unknown #
coedge $-1 $225 $224 $496 $500 forward $89 $-1 #
edge $-1 $353 -62.609332560197757 $498 62.609332560197757 $345 $501 forward 7 unknown #
coedge $-1 $358 $357 $225 $351 reversed $342 $-1 #
edge $-1 $502 -62.609332560197757 $352 62.609332560197757 $350 $503 forward 7 unknown #
vertex $-1 $227 $504 #
vertex $-1 $364 $505 #
straight-curve $-1 62.609332560197757 0 -7.3957629680768591 0 -1 0 I I #
coedge $-1 $344 $346 $228 $356 reversed $221 $-1 #
edge $-1 $359 -30.576481928809734 $362 30.576481928809734 $355 $506 forward 7 unknown #
coedge $-1 $350 $229 $234 $365 forward $342 $-1 #
coedge $-1 $229 $350 $344 $497 reversed $342 $-1 #
vertex $-1 $230 $507 #
straight-curve $-1 0 30.576481928809734 7.3957629680768591 -1 0 0 I I #
coedge $-1 $231 $345 $233 $364 reversed $138 $-1 #
vertex $-1 $356 $508 #
straight-curve $-1 0 -30.576481928809734 7.3957629680768591 1 0 0 I I #
edge $-1 $236 -7.3957629680768591 $353 7.3957629680768591 $233 $509 forward 7 unknown #
edge $-1 $237 -7.3957629680768591 $352 7.3957629680768591 $234 $510 forward 7 unknown #
point $-1 62.609332560197757 -30.576481928809734 7.3957629680768591 #
point $-1 62.609332560197757 30.576481928809734 7.3957629680768591 #
face $-1 $-1 $385 $34 $-1 $511 reversed single #
loop $-1 $-1 $512 $239 #
plane-surface $-1 -62.609332560197757 0 0 1 0 0 0 0 -1 forward_v I I I I #
coedge $-1 $372 $388 $243 $375 forward $240 $-1 #
coedge $-1 $250 $371 $242 $373 forward $240 $-1 #
edge $-1 $379 -4.1978814840384295 $253 -1.1978814840384295 $372 $513 forward 7 unknown #
coedge $-1 $244 $243 $512 $514 reversed $93 $-1 #
edge $-1 $515 -32.731733445041243 $379 -27.023464785271774 $371 $516 forward 7 unknown #
coedge $-1 $384 $383 $244 $377 forward $385 $-1 #
edge $-1 $378 27.023464785271774 $517 32.731733445041243 $376 $518 forward 7 unknown #
vertex $-1 $377 $519 #
vertex $-1 $375 $520 #
straight-curve $-1 -56.901063900428284 0 -6.8957629680768591 0 -1 0 I I #
coedge $-1 $521 $522 $247 $382 forward $369 $-1 #
edge $-1 $389 -30.576481928809734 $386 30.576481928809734 $381 $523 forward 7 unknown #
coedge $-1 $376 $248 $252 $391 forward $385 $-1 #
coedge $-1 $248 $376 $521 $524 reversed $385 $-1 #
loop $-1 $-1 $376 $368 #
vertex $-1 $524 $525 #
straight-curve $-1 -29.87759911515651 30.576481928809734 -3.8957629680768591 1 0 0 I I #
coedge $-1 $371 $250 $522 $526 forward $240 $-1 #
vertex $-1 $526 $527 #
straight-curve $-1 -29.87759911515651 -30.576481928809734 -3.8957629680768591 -1 0 0 I I #
edge $-1 $254 1.1978814840384295 $378 4.1978814840384295 $383 $528 forward 7 unknown #
point $-1 -56.901063900428284 -30.576481928809734 -3.8957629680768591 #
point $-1 -56.901063900428284 30.576481928809734 -3.8957629680768591 #
face $-1 $-1 $271 $35 $-1 $529 reversed single #
loop $-1 $-1 $265 $256 #
plane-surface $-1 0 30.576481928809734 0 0 -1 0 0 0 -1 forward_v I I I I #
coedge $-1 $530 $259 $401 $531 reversed $154 $-1 #
coedge $-1 $259 $530 $264 $409 reversed $154 $-1 #
coedge $-1 $265 $404 $259 $400 forward $395 $-1 #
edge $-1 $532 -4.1978814840384295 $411 -1.1978814840384295 $399 $533 forward 7 unknown #
coedge $-1 $261 $260 $397 $531 forward $97 $-1 #
coedge $-1 $414 $413 $260 $403 forward $257 $-1 #
edge $-1 $534 27.02346478527177 $406 32.731733445041243 $402 $535 forward 7 unknown #
coedge $-1 $399 $410 $261 $405 forward $395 $-1 #
edge $-1 $407 -32.731733445041243 $532 -27.02346478527177 $404 $536 forward 7 unknown #
vertex $-1 $263 $537 #
vertex $-1 $263 $538 #
straight-curve $-1 62.609332560197757 0 -6.8957629680768591 0 1 0 I I #
edge $-1 $411 -30.576481928809734 $415 30.576481928809734 $398 $539 forward 7 unknown #
coedge $-1 $404 $265 $270 $418 forward $395 $-1 #
vertex $-1 $266 $540 #
straight-curve $-1 29.877599115156507 30.576481928809734 -3.8957629680768591 1 0 0 I I #
coedge $-1 $402 $267 $530 $541 forward $257 $-1 #
coedge $-1 $267 $402 $269 $417 reversed $257 $-1 #
vertex $-1 $268 $542 #
straight-curve $-1 29.877599115156507 -30.576481928809734 -3.8957629680768591 -1 0 0 I I #
edge $-1 $273 3.8957629680768591 $406 6.8957629680768591 $269 $543 forward 7 unknown #
edge $-1 $272 3.8957629680768591 $407 6.8957629680768591 $270 $544 forward 7 unknown #
point $-1 62.60933256019775 30.576481928809734 -3.8957629680768591 #
point $-1 62.60933256019775 -30.576481928809734 -3.8957629680768591 #
loop $-1 $-1 $283 $275 #
plane-surface $-1 0 0 7.3957629680768591 0 0 1 1 0 0 forward_v I I I I #
coedge $-1 $424 $278 $280 $428 reversed $162 $-1 #
coedge $-1 $278 $423 $545 $546 reversed $162 $-1 #
coedge $-1 $286 $281 $278 $426 forward $276 $-1 #
edge $-1 $429 -58.109572891407588 $547 -51.405364173046443 $425 $548 forward 7 unknown #
coedge $-1 $280 $279 $432 $549 reversed $101 $-1 #
edge $-1 $550 53.331610136367757 $429 61.152963857619504 $423 $551 forward 7 unknown #
vertex $-1 $282 $552 #
straight-curve $-1 18.708965107619534 30.576481928809734 0.69155424971571122 -1 0 0 I I #
coedge $-1 $545 $283 $286 $436 forward $421 $-1 #
coedge $-1 $283 $545 $427 $549 forward $421 $-1 #
vertex $-1 $284 $553 #
straight-curve $-1 51.807732943926439 53.206862052890713 7.3957629680768591 0 1 0 I I #
straight-curve $-1 51.807732943926439 -0.91962205406294117 53.109875688611368 0 -0.51503806187062418 0.85716730853699208 I I #
edge $-1 $287 -51.807732943926439 $547 -23.028127486551696 $286 $554 forward 7 unknown #
point $-1 51.807732943926439 30.576481928809734 7.3957629680768591 #
point $-1 51.807732943926439 30.576481928809734 0.69155424971571477 #
edge $-1 $555 1 $555 0 $290 $-1 forward 7 unknown #
vertex $-1 $291 $556 #
ellipse-curve $-1 28.784048578026642 25.993160765007627 2.4999433425479212 0 0.85716730853699208 0.51503806187062418 1 0 0 1 I I #
point $-1 29.784048578026642 28.562334497910701 4.0436586088963127 #
edge $-1 $557 1 $557 0 $294 $-1 forward 7 unknown #
vertex $-1 $295 $558 #
ellipse-curve $-1 37.417930215239068 25.993160765007627 2.4999433425479212 0 0.85716730853699208 0.51503806187062418 1 0 0 1 I I #
point $-1 38.417930215239068 28.562334497910701 4.0436586088963127 #
edge $-1 $559 1 $559 0 $298 $-1 forward 7 unknown #
vertex $-1 $299 $560 #
ellipse-curve $-1 46.051811852451493 25.993160765007627 2.4999433425479212 0 0.85716730853699208 0.51503806187062418 1 0 0 1 I I #
point $-1 47.051811852451493 28.562334497910701 4.0436586088963127 #
plane-surface $-1 0 -30.576481928809734 0 0 1 0 0 0 1 forward_v I I I I #
coedge $-1 $462 $461 $454 $561 forward $303 $-1 #
coedge $-1 $454 $305 $307 $458 reversed $191 $-1 #
coedge $-1 $305 $453 $452 $561 reversed $191 $-1 #
coedge $-1 $313 $308 $305 $456 forward $314 $-1 #
edge $-1 $459 -29.21229461048376 $562 -26.001273304023464 $455 $563 forward 7 unknown #
coedge $-1 $307 $306 $462 $564 reversed $120 $-1 #
edge $-1 $565 -3.7077679982004876 $459 -1.4321304723534956e-014 $453 $566 forward 7 unknown #
vertex $-1 $309 $567 #
straight-curve $-1 -14.520596716997222 -30.576481928809734 4.1847416616165578 1 0 0 I I #
coedge $-1 $452 $310 $313 $466 forward $303 $-1 #
coedge $-1 $310 $452 $457 $564 forward $303 $-1 #
vertex $-1 $311 $568 #
straight-curve $-1 -38.133694138442287 -69.509513959809667 7.3957629680768591 0 -1 0 I I #
straight-curve $-1 -38.133694138442287 -30.576481928809741 4.1847416616165489 0 0.49999998660252726 0.86602541151947299 I I #
edge $-1 $315 -38.133694138442287 $562 -19.9486927295466 $313 $569 forward 7 unknown #
point $-1 -38.133694138442287 -30.576481928809734 7.3957629680768591 #
point $-1 -38.133694138442287 -30.576481928809734 4.1847416616165614 #
edge $-1 $570 1 $570 0 $318 $-1 forward 7 unknown #
vertex $-1 $319 $571 #
ellipse-curve $-1 -29.041193433994444 -28.069764450997887 4.8781685354589213 0 -0.86602541151947299 0.49999998660252726 0.5 0 0 1 I I #
point $-1 -28.541193433994444 -29.649539954096969 5.7902523148467058 #
loop $-1 $-1 $330 $322 #
plane-surface $-1 0 0 7.3957629680768591 0 0 1 1 0 0 forward_v I I I I #
coedge $-1 $476 $325 $327 $480 reversed $206 $-1 #
coedge $-1 $325 $475 $572 $573 reversed $206 $-1 #
coedge $-1 $333 $328 $325 $478 forward $323 $-1 #
edge $-1 $481 -29.21229461048376 $574 -26.001273304023464 $477 $575 forward 7 unknown #
coedge $-1 $327 $326 $484 $576 reversed $129 $-1 #
edge $-1 $577 -3.7077679982004876 $481 -1.4321304723534956e-014 $475 $578 forward 7 unknown #
vertex $-1 $329 $579 #
straight-curve $-1 13.929935233216916 -30.576481928809734 4.1847416616165578 1 0 0 I I #
coedge $-1 $572 $330 $333 $488 forward $473 $-1 #
coedge $-1 $330 $572 $479 $576 forward $473 $-1 #
vertex $-1 $331 $580 #
straight-curve $-1 18.767369761985989 -69.509513959809667 7.3957629680768591 0 -1 0 I I #
straight-curve $-1 18.767369761985989 -30.576481928809741 4.1847416616165489 0 0.49999998660252726 0.86602541151947299 I I #
edge $-1 $334 18.767369761985989 $574 36.952371170881676 $333 $581 forward 7 unknown #
point $-1 18.767369761985989 -30.576481928809734 7.3957629680768591 #
point $-1 18.767369761985989 -30.576481928809734 4.1847416616165614 #
edge $-1 $582 1 $582 0 $337 $-1 forward 7 unknown #
vertex $-1 $338 $583 #
ellipse-curve $-1 27.859870466433833 -28.069764450997887 4.8781685354589213 0 -0.86602541151947299 0.49999998660252726 0.5 0 0 1 I I #
point $-1 28.359870466433833 -29.649539954096969 5.7902523148467058 #
plane-surface $-1 62.609332560197757 0 0 -1 0 0 0 0 1 forward_v I I I I #
coedge $-1 $346 $344 $348 $500 reversed $221 $-1 #
edge $-1 $359 -7.3957629680768591 $502 7.3957629680768591 $358 $584 forward 7 unknown #
vertex $-1 $500 $585 #
straight-curve $-1 -62.609332560197757 -30.576481928809734 0 0 0 -1 I I #
edge $-1 $498 -30.576481928809734 $502 30.576481928809734 $496 $586 forward 7 unknown #
straight-curve $-1 0 -30.576481928809734 -7.3957629680768591 -1 0 0 I I #
vertex $-1 $351 $587 #
straight-curve $-1 0 30.576481928809734 -7.3957629680768591 1 0 0 I I #
point $-1 62.609332560197757 30.576481928809734 -7.3957629680768591 #
point $-1 62.609332560197757 -30.576481928809734 -7.3957629680768591 #
straight-curve $-1 -62.609332560197757 0 7.3957629680768591 0 -1 0 I I #
point $-1 -62.609332560197757 30.576481928809734 7.3957629680768591 #
point $-1 -62.609332560197757 -30.576481928809734 7.3957629680768591 #
straight-curve $-1 62.609332560197757 -30.576481928809734 0 0 0 -1 I I #
straight-curve $-1 62.609332560197757 30.576481928809734 0 0 0 -1 I I #
plane-surface $-1 0 30.576481928809734 0 0 -1 0 0 0 -1 forward_v I I I I #
coedge $-1 $522 $521 $374 $514 forward $369 $-1 #
straight-curve $-1 -56.901063900428284 -30.576481928809734 -2.6978814840384295 0 0 1 I I #
edge $-1 $517 -30.576481928809734 $515 30.576481928809734 $512 $588 forward 7 unknown #
vertex $-1 $375 $589 #
straight-curve $-1 -29.87759911515651 -30.576481928809734 -6.8957629680768591 1 0 0 I I #
vertex $-1 $377 $590 #
straight-curve $-1 -29.87759911515651 30.576481928809734 -6.8957629680768591 -1 0 0 I I #
point $-1 -56.901063900428284 30.576481928809734 -6.8957629680768591 #
point $-1 -56.901063900428284 -30.576481928809734 -6.8957629680768591 #
coedge $-1 $512 $381 $384 $524 forward $369 $-1 #
coedge $-1 $381 $512 $388 $526 reversed $369 $-1 #
straight-curve $-1 -62.609332560197757 0 -3.8957629680768591 0 1 0 I I #
edge $-1 $386 3.8957629680768591 $517 6.8957629680768591 $384 $591 forward 7 unknown #
point $-1 -62.609332560197757 30.576481928809734 -3.8957629680768591 #
edge $-1 $389 3.8957629680768591 $515 6.8957629680768591 $522 $592 forward 7 unknown #
point $-1 -62.609332560197757 -30.576481928809734 -3.8957629680768591 #
straight-curve $-1 -56.901063900428284 30.576481928809734 -2.6978814840384295 0 0 -1 I I #
plane-surface $-1 62.609332560197757 0 0 -1 0 0 0 0 1 forward_v I I I I #
coedge $-1 $398 $397 $413 $541 reversed $154 $-1 #
edge $-1 $534 -30.576481928809734 $532 30.576481928809734 $397 $593 forward 7 unknown #
vertex $-1 $405 $594 #
straight-curve $-1 56.901063900428277 30.576481928809734 -2.6978814840384295 0 0 1 I I #
vertex $-1 $403 $595 #
straight-curve $-1 29.877599115156507 -30.576481928809734 -6.8957629680768591 1 0 0 I I #
straight-curve $-1 29.877599115156507 30.576481928809734 -6.8957629680768591 -1 0 0 I I #
point $-1 62.60933256019775 -30.576481928809734 -6.8957629680768591 #
point $-1 62.60933256019775 30.576481928809734 -6.8957629680768591 #
straight-curve $-1 56.901063900428277 0 -3.8957629680768591 0 -1 0 I I #
point $-1 56.901063900428277 30.576481928809734 -3.8957629680768591 #
edge $-1 $415 1.1978814840384295 $534 4.1978814840384295 $413 $596 forward 7 unknown #
point $-1 56.901063900428277 -30.576481928809734 -3.8957629680768591 #
straight-curve $-1 62.609332560197757 -30.576481928809734 0 0 0 -1 I I #
straight-curve $-1 62.609332560197757 30.576481928809734 0 0 0 -1 I I #
coedge $-1 $432 $431 $424 $546 forward $421 $-1 #
edge $-1 $547 22.630380124080979 $550 26.65867498587907 $545 $597 forward 7 unknown #
vertex $-1 $546 $598 #
straight-curve $-1 23.028127486551696 30.576481928809734 58.801127141123303 0 0 1 I I #
edge $-1 $550 4.3191623789321625 $433 33.098767836306905 $432 $599 forward 7 unknown #
vertex $-1 $549 $600 #
straight-curve $-1 23.028127486551696 -0.91962205406294117 53.109875688611368 0 0.51503806187062418 -0.85716730853699208 I I #
point $-1 23.028127486551696 30.576481928809734 0.69155424971571477 #
point $-1 51.807732943926439 26.548187067011643 7.3957629680768591 #
straight-curve $-1 0 30.576481928809734 7.3957629680768591 -1 0 0 I I #
vertex $-1 $439 $601 #
point $-1 29.784048578026642 25.993160765007627 2.4999433425479212 #
vertex $-1 $443 $602 #
point $-1 38.417930215239068 25.993160765007627 2.4999433425479212 #
vertex $-1 $447 $603 #
point $-1 47.051811852451493 25.993160765007627 2.4999433425479212 #
edge $-1 $562 38.933032030999932 $565 40.786915980425448 $452 $604 forward 7 unknown #
vertex $-1 $456 $605 #
straight-curve $-1 -19.9486927295466 -30.576481928809734 33.397036272100323 0 0 1 I I #
edge $-1 $565 5.4280960125493785 $463 23.613097421445065 $462 $606 forward 7 unknown #
vertex $-1 $564 $607 #
straight-curve $-1 -19.9486927295466 -30.576481928809741 4.1847416616165489 0 -0.49999998660252726 -0.86602541151947299 I I #
point $-1 -19.9486927295466 -30.576481928809734 4.1847416616165614 #
point $-1 -38.133694138442287 -28.722597979384219 7.3957629680768591 #
straight-curve $-1 0 -30.576481928809734 7.3957629680768591 1 0 0 I I #
vertex $-1 $469 $608 #
point $-1 -28.541193433994444 -28.069764450997887 4.8781685354589213 #
coedge $-1 $484 $483 $476 $573 forward $473 $-1 #
edge $-1 $574 38.933032030999932 $577 40.786915980425448 $572 $609 forward 7 unknown #
vertex $-1 $573 $610 #
straight-curve $-1 36.952371170881676 -30.576481928809734 33.397036272100323 0 0 1 I I #
edge $-1 $577 -23.02243593766476 $485 -4.837434528769073 $484 $611 forward 7 unknown #
vertex $-1 $576 $612 #
straight-curve $-1 36.952371170881676 -30.576481928809741 4.1847416616165489 0 -0.49999998660252726 -0.86602541151947299 I I #
point $-1 36.952371170881676 -30.576481928809734 4.1847416616165614 #
point $-1 18.767369761985989 -28.722597979384219 7.3957629680768591 #
straight-curve $-1 0 -30.576481928809734 7.3957629680768591 1 0 0 I I #
vertex $-1 $491 $613 #
point $-1 28.359870466433833 -28.069764450997887 4.8781685354589213 #
straight-curve $-1 -62.609332560197757 30.576481928809734 0 0 0 -1 I I #
point $-1 -62.609332560197757 -30.576481928809734 -7.3957629680768591 #
straight-curve $-1 -62.609332560197757 0 -7.3957629680768591 0 1 0 I I #
point $-1 -62.609332560197757 30.576481928809734 -7.3957629680768591 #
straight-curve $-1 -62.609332560197757 0 -6.8957629680768591 0 -1 0 I I #
point $-1 -62.609332560197757 -30.576481928809734 -6.8957629680768591 #
point $-1 -62.609332560197757 30.576481928809734 -6.8957629680768591 #
straight-curve $-1 -62.609332560197757 30.576481928809734 0 0 0 -1 I I #
straight-curve $-1 -62.609332560197757 -30.576481928809734 0 0 0 -1 I I #
straight-curve $-1 56.901063900428277 0 -6.8957629680768591 0 1 0 I I #
point $-1 56.901063900428277 30.576481928809734 -6.8957629680768591 #
point $-1 56.901063900428277 -30.576481928809734 -6.8957629680768591 #
straight-curve $-1 56.901063900428277 -30.576481928809734 -2.6978814840384295 0 0 -1 I I #
straight-curve $-1 23.028127486551696 53.206862052890713 7.3957629680768591 0 -1 0 I I #
point $-1 23.028127486551696 30.576481928809734 7.3957629680768591 #
straight-curve $-1 18.708965107619534 26.548187067011639 7.3957629680768591 1 0 0 I I #
point $-1 23.028127486551696 26.548187067011643 7.3957629680768591 #
point $-1 28.784048578026642 25.135993456470633 1.9849052806772971 #
point $-1 37.417930215239068 25.135993456470633 1.9849052806772971 #
point $-1 46.051811852451493 25.135993456470633 1.9849052806772971 #
straight-curve $-1 -19.9486927295466 -69.509513959809667 7.3957629680768591 0 1 0 I I #
point $-1 -19.9486927295466 -30.576481928809734 7.3957629680768591 #
straight-curve $-1 -14.520596716997222 -28.722597979384219 7.3957629680768591 -1 0 0 I I #
point $-1 -19.9486927295466 -28.722597979384219 7.3957629680768591 #
point $-1 -29.041193433994444 -27.636751745238151 4.6281685421576571 #
straight-curve $-1 36.952371170881676 -69.509513959809667 7.3957629680768591 0 1 0 I I #
point $-1 36.952371170881676 -30.576481928809734 7.3957629680768591 #
straight-curve $-1 13.929935233216916 -28.722597979384219 7.3957629680768591 -1 0 0 I I #
point $-1 36.952371170881676 -28.722597979384219 7.3957629680768591 #
point $-1 27.859870466433833 -27.636751745238151 4.6281685421576571 #
End-of-ACIS-data 