500 0 6 0           
7 Unknown 11 ACIS 5.0 NT 24 Thu Mar 25 18:09:16 1999 
-1 9.9999999999999995e-007 1e-010 
body $-1 $6 $-1 $7 #
body $-1 $8 $-1 $9 #
body $-1 $10 $-1 $11 #
body $-1 $12 $-1 $13 #
body $-1 $14 $-1 $15 #
body $-1 $16 $-1 $17 #
lump $-1 $-1 $18 $0 #
transform $-1 1 0 0 0 1 0 0 0 1 74.173406170842611 48.263080486077484 20.116662323517577 1 rotate no_reflect no_shear #
lump $-1 $-1 $19 $1 #
transform $-1 1 0 0 0 1 0 0 0 1 74.173406170842611 48.263080486077484 20.116662323517577 1 rotate no_reflect no_shear #
lump $-1 $-1 $20 $2 #
transform $-1 1 0 0 0 1 0 0 0 1 74.173406170842611 48.263080486077484 20.116662323517577 1 rotate no_reflect no_shear #
lump $-1 $-1 $21 $3 #
transform $-1 1 0 0 0 1 0 0 0 1 74.173406170842611 48.263080486077484 20.116662323517577 1 rotate no_reflect no_shear #
lump $-1 $-1 $22 $4 #
transform $-1 1 0 0 0 1 0 0 0 1 74.173406170842611 48.263080486077484 20.116662323517577 1 rotate no_reflect no_shear #
lump $-1 $-1 $23 $5 #
transform $-1 1 0 0 0 1 0 0 0 1 74.173406170842611 48.263080486077484 20.116662323517577 1 rotate no_reflect no_shear #
shell $-1 $-1 $-1 $24 $-1 $6 #
shell $-1 $-1 $-1 $25 $-1 $8 #
shell $-1 $-1 $-1 $26 $-1 $10 #
shell $-1 $-1 $-1 $27 $-1 $12 #
shell $-1 $-1 $-1 $28 $-1 $14 #
shell $-1 $-1 $-1 $29 $-1 $16 #
face $-1 $30 $31 $18 $-1 $32 forward single #
face $-1 $33 $34 $19 $-1 $35 reversed single #
face $-1 $36 $37 $20 $-1 $38 reversed single #
face $-1 $39 $40 $21 $-1 $41 forward single #
face $-1 $42 $43 $22 $-1 $44 reversed single #
face $-1 $45 $46 $23 $-1 $47 forward single #
face $-1 $48 $49 $18 $-1 $50 reversed single #
loop $-1 $-1 $51 $24 #
plane-surface $-1 0 0 20.116662323517577 0 0 1 1 0 0 forward_v I I I I #
face $-1 $52 $53 $19 $-1 $54 reversed single #
loop $-1 $-1 $55 $25 #
plane-surface $-1 0 -35.489131905712014 10.15858602053226 0 0 1 1 0 0 forward_v I I I I #
face $-1 $56 $57 $20 $-1 $58 reversed single #
loop $-1 $-1 $59 $26 #
plane-surface $-1 106.99243278258933 -5.3472026919771007 213.30779918167389 0 -1 0 -0.80901700255871778 0 -0.5877852410284794 forward_v I I I I #
face $-1 $60 $61 $21 $-1 $62 forward single #
loop $-1 $63 $64 $27 #
cone-surface $-1 67.762555680507944 -14.031193008661823 12.149228141020643 -0.80901700255871778 0 -0.5877852410284794 0.8816778615427191 0 -1.2135255038380768 1 I I 0 1 1.5 forward I I I I #
face $-1 $65 $66 $22 $-1 $67 reversed single #
loop $-1 $-1 $68 $28 #
plane-surface $-1 -74.173406170842597 -14.031193008661823 6.0966388737990655 -0.80901700255871778 0 0.5877852410284794 0.5877852410284794 0 0.80901700255871778 forward_v I I I I #
face $-1 $69 $70 $23 $-1 $71 forward single #
loop $-1 $72 $73 $29 #
cone-surface $-1 -67.762555680507944 -14.031193008661823 12.149228141020664 0.80901700255871778 0 -0.5877852410284794 0.8816778615427191 0 1.2135255038380768 1 I I 0 1 1.5 forward I I I I #
face $-1 $74 $75 $18 $-1 $76 reversed single #
loop $-1 $-1 $77 $30 #
plane-surface $-1 0 0 -20.116662323517577 0 0 1 1 0 0 forward_v I I I I #
coedge $-1 $78 $79 $80 $81 forward $31 $-1 #
face $-1 $82 $83 $19 $-1 $84 reversed single #
loop $-1 $-1 $85 $33 #
plane-surface $-1 0 -22.715183325346544 15.137624172024918 0 -1 0 0 0 -1 forward_v I I I I #
coedge $-1 $86 $87 $88 $89 reversed $34 $-1 #
face $-1 $90 $91 $20 $-1 $92 forward single #
loop $-1 $-1 $93 $36 #
plane-surface $-1 -13.022660677221452 -14.031193008661823 126.11173233360984 0.80901700255871778 0 0.5877852410284794 0.5877852410284794 0 -0.80901700255871778 forward_v I I I I #
coedge $-1 $94 $95 $96 $97 reversed $37 $-1 #
face $-1 $-1 $98 $21 $-1 $99 forward single #
loop $-1 $100 $101 $39 #
cone-surface $-1 65.838013929059912 -14.031193008661823 10.750966752611628 -0.80901700255871778 0 -0.5877852410284794 0.44083893077135955 0 -0.60676275191903839 1 I I -0.70710678118654757 0.70710678118654757 0.75 forward I I I I #
loop $-1 $-1 $102 $27 #
coedge $-1 $64 $64 $103 $104 reversed $40 $-1 #
face $-1 $105 $106 $22 $-1 $107 forward single #
loop $-1 $-1 $108 $42 #
plane-surface $-1 -194.18849963065338 -5.3472026919771007 93.292705721863115 0 -1 0 0.80901700255871778 0 -0.5877852410284794 forward_v I I I I #
coedge $-1 $109 $110 $111 $112 reversed $43 $-1 #
face $-1 $-1 $113 $23 $-1 $114 forward single #
loop $-1 $115 $116 $45 #
cone-surface $-1 -65.838013929059912 -14.031193008661823 10.750966752611649 0.80901700255871778 0 -0.5877852410284794 0.44083893077135955 0 0.60676275191903839 1 I I -0.70710678118654757 0.70710678118654757 0.75 forward I I I I #
loop $-1 $-1 $117 $29 #
coedge $-1 $73 $73 $118 $119 reversed $46 $-1 #
face $-1 $120 $121 $18 $-1 $122 reversed single #
loop $-1 $-1 $123 $48 #
plane-surface $-1 0 -48.263080486077484 0 0 1 0 0 0 1 forward_v I I I I #
coedge $-1 $124 $125 $126 $127 forward $49 $-1 #
coedge $-1 $128 $51 $129 $130 forward $31 $-1 #
coedge $-1 $51 $128 $131 $132 forward $31 $-1 #
coedge $-1 $133 $134 $51 $81 reversed $135 $-1 #
edge $-1 $136 -48.263080486077484 $137 48.263080486077484 $80 $138 forward 7 unknown #
face $-1 $139 $140 $19 $-1 $141 reversed single #
loop $-1 $-1 $142 $52 #
plane-surface $-1 -74.173406170842611 0 0 1 0 0 0 0 -1 forward_v I I I I #
coedge $-1 $143 $144 $145 $146 reversed $53 $-1 #
coedge $-1 $147 $55 $148 $149 reversed $34 $-1 #
coedge $-1 $55 $147 $150 $151 forward $34 $-1 #
coedge $-1 $152 $153 $55 $89 forward $154 $-1 #
edge $-1 $155 -30.518514533221477 $156 -4.9706173724905369 $88 $157 forward 7 unknown #
face $-1 $158 $159 $20 $-1 $160 forward single #
loop $-1 $-1 $161 $56 #
plane-surface $-1 0 -22.715183325346544 15.137624172024918 0 -1 0 0 0 -1 forward_v I I I I #
coedge $-1 $162 $163 $164 $165 reversed $57 $-1 #
coedge $-1 $95 $59 $166 $167 reversed $37 $-1 #
coedge $-1 $59 $94 $162 $168 reversed $37 $-1 #
coedge $-1 $164 $169 $59 $97 forward $159 $-1 #
edge $-1 $170 -20.677189779547945 $171 -10.491046797936576 $96 $172 forward 7 unknown #
loop $-1 $-1 $103 $60 #
plane-surface $-1 -13.022660677221452 -14.031193008661823 126.11173233360984 0.80901700255871778 0 0.5877852410284794 0.5877852410284794 0 -0.80901700255871778 forward_v I I I I #
loop $-1 $-1 $173 $39 #
coedge $-1 $101 $101 $102 $174 reversed $61 $-1 #
coedge $-1 $102 $102 $101 $174 forward $63 $-1 #
coedge $-1 $103 $103 $64 $104 forward $98 $-1 #
edge $-1 $175 0 $175 6.2831853071796004 $103 $176 forward 7 unknown #
face $-1 $177 $178 $22 $-1 $179 reversed single #
loop $-1 $-1 $111 $65 #
plane-surface $-1 0 0 20.116662323517577 0 0 1 1 0 0 forward_v I I I I #
coedge $-1 $180 $181 $182 $183 reversed $66 $-1 #
coedge $-1 $184 $68 $185 $186 reversed $43 $-1 #
coedge $-1 $68 $184 $180 $187 forward $43 $-1 #
coedge $-1 $182 $188 $68 $112 forward $106 $-1 #
edge $-1 $189 -15.699586821015632 $190 1.6683938123538109 $111 $191 forward 7 unknown #
loop $-1 $-1 $118 $69 #
plane-surface $-1 -74.173406170842597 -14.031193008661823 6.0966388737990655 -0.80901700255871778 0 0.5877852410284794 0.5877852410284794 0 0.80901700255871778 forward_v I I I I #
loop $-1 $-1 $192 $45 #
coedge $-1 $116 $116 $117 $193 reversed $70 $-1 #
coedge $-1 $117 $117 $116 $193 forward $72 $-1 #
coedge $-1 $118 $118 $73 $119 forward $113 $-1 #
edge $-1 $194 0 $194 6.2831853071796004 $118 $195 forward 7 unknown #
face $-1 $196 $197 $18 $-1 $198 reversed single #
loop $-1 $-1 $199 $74 #
plane-surface $-1 -74.173406170842611 0 0 1 0 0 0 0 -1 forward_v I I I I #
coedge $-1 $200 $131 $201 $202 forward $75 $-1 #
coedge $-1 $203 $77 $200 $204 forward $49 $-1 #
coedge $-1 $77 $203 $205 $206 forward $49 $-1 #
coedge $-1 $134 $133 $77 $127 reversed $135 $-1 #
edge $-1 $207 -48.263080486077484 $208 48.263080486077484 $126 $209 forward 7 unknown #
coedge $-1 $79 $78 $210 $211 forward $31 $-1 #
coedge $-1 $212 $213 $78 $130 reversed $197 $-1 #
edge $-1 $137 -74.173406170842611 $214 74.173406170842611 $129 $215 forward 7 unknown #
coedge $-1 $123 $216 $79 $132 reversed $75 $-1 #
edge $-1 $217 -74.173406170842611 $136 74.173406170842611 $131 $218 forward 7 unknown #
coedge $-1 $126 $80 $216 $219 forward $135 $-1 #
coedge $-1 $80 $126 $212 $220 reversed $135 $-1 #
loop $-1 $-1 $133 $196 #
vertex $-1 $81 $221 #
vertex $-1 $81 $222 #
straight-curve $-1 74.173406170842611 0 20.116662323517577 0 1 0 I I #
face $-1 $223 $224 $19 $-1 $225 forward single #
loop $-1 $-1 $148 $82 #
plane-surface $-1 0 -48.263080486077484 0 0 1 0 0 0 1 forward_v I I I I #
coedge $-1 $226 $227 $144 $228 forward $83 $-1 #
coedge $-1 $150 $85 $152 $229 reversed $53 $-1 #
coedge $-1 $85 $150 $142 $228 reversed $53 $-1 #
coedge $-1 $230 $231 $85 $146 forward $224 $-1 #
edge $-1 $232 -74.173406170842611 $233 74.173406170842611 $145 $234 forward 7 unknown #
coedge $-1 $87 $86 $226 $235 reversed $34 $-1 #
coedge $-1 $236 $237 $86 $149 forward $140 $-1 #
edge $-1 $238 -74.173406170842611 $155 74.173406170842611 $148 $239 forward 7 unknown #
coedge $-1 $144 $143 $87 $151 reversed $53 $-1 #
edge $-1 $240 -74.173406170842611 $156 74.173406170842611 $150 $241 forward 7 unknown #
coedge $-1 $242 $88 $143 $229 forward $154 $-1 #
coedge $-1 $88 $242 $236 $243 forward $154 $-1 #
loop $-1 $-1 $152 $223 #
vertex $-1 $149 $244 #
vertex $-1 $89 $245 #
straight-curve $-1 74.173406170842611 -17.744565952856007 10.15858602053226 0 1 0 I I #
face $-1 $-1 $246 $20 $-1 $247 reversed single #
loop $-1 $-1 $164 $90 #
plane-surface $-1 0 0 20.116662323517577 0 0 1 1 0 0 forward_v I I I I #
coedge $-1 $248 $249 $163 $250 reversed $91 $-1 #
coedge $-1 $251 $93 $95 $168 forward $57 $-1 #
coedge $-1 $93 $251 $161 $250 forward $57 $-1 #
coedge $-1 $252 $96 $93 $165 forward $159 $-1 #
edge $-1 $171 -1.6683938123538109 $253 15.699586821015632 $164 $254 forward 7 unknown #
coedge $-1 $255 $256 $94 $167 forward $246 $-1 #
edge $-1 $257 -100.55726071703791 $170 -86.537237267319369 $166 $258 forward 7 unknown #
edge $-1 $171 131.01711048699403 $257 148.34681234168525 $95 $259 forward 7 unknown #
coedge $-1 $96 $252 $255 $260 forward $159 $-1 #
vertex $-1 $167 $261 #
vertex $-1 $97 $262 #
straight-curve $-1 53.496216391294666 -5.3472026919771007 20.116662323517573 -1 0 0 I I #
coedge $-1 $173 $173 $-1 $263 reversed $100 $-1 #
edge $-1 $264 0 $264 6.2831853071796004 $101 $265 forward 7 unknown #
vertex $-1 $104 $266 #
ellipse-curve $-1 69.080334680036927 -14.031193008661823 13.106650598658296 0.80901700255871778 0 0.5877852410284794 0.8816778615427191 0 -1.2135255038380768 1 I I #
face $-1 $-1 $267 $22 $-1 $268 forward single #
loop $-1 $-1 $269 $105 #
plane-surface $-1 -74.173406170842611 0 0 1 0 0 0 0 -1 forward_v I I I I #
coedge $-1 $181 $108 $110 $187 reversed $66 $-1 #
coedge $-1 $108 $180 $269 $270 reversed $66 $-1 #
coedge $-1 $271 $111 $108 $183 forward $106 $-1 #
edge $-1 $190 -33.106986626095434 $272 -22.92084364448408 $182 $273 forward 7 unknown #
coedge $-1 $110 $109 $274 $275 reversed $43 $-1 #
coedge $-1 $276 $277 $109 $186 forward $267 $-1 #
edge $-1 $278 -25.456172125090092 $189 -8.1264702703988867 $185 $279 forward 7 unknown #
edge $-1 $280 -2.4161062406544664e-014 $190 17.32970185469118 $180 $281 forward 7 unknown #
coedge $-1 $111 $271 $276 $282 forward $106 $-1 #
vertex $-1 $186 $283 #
vertex $-1 $112 $284 #
straight-curve $-1 -63.98726318923125 -7.0155965043309116 20.116662323517577 0 1 0 I I #
coedge $-1 $192 $192 $-1 $285 reversed $115 $-1 #
edge $-1 $286 0 $286 6.2831853071796004 $116 $287 forward 7 unknown #
vertex $-1 $119 $288 #
ellipse-curve $-1 -69.080334680036927 -14.031193008661823 13.106650598658316 -0.80901700255871778 0 0.5877852410284794 0.8816778615427191 0 1.2135255038380768 1 I I #
face $-1 $-1 $135 $18 $-1 $289 reversed single #
loop $-1 $-1 $212 $120 #
plane-surface $-1 0 48.263080486077484 0 0 -1 0 0 0 -1 forward_v I I I I #
coedge $-1 $290 $210 $213 $291 forward $121 $-1 #
coedge $-1 $216 $123 $124 $204 reversed $75 $-1 #
coedge $-1 $210 $290 $123 $202 reversed $121 $-1 #
edge $-1 $217 -20.116662323517577 $292 20.116662323517577 $201 $293 forward 7 unknown #
coedge $-1 $125 $124 $290 $294 forward $49 $-1 #
edge $-1 $208 -74.173406170842611 $292 74.173406170842611 $200 $295 forward 7 unknown #
coedge $-1 $213 $212 $125 $206 reversed $197 $-1 #
edge $-1 $296 -74.173406170842611 $207 74.173406170842611 $205 $297 forward 7 unknown #
vertex $-1 $127 $298 #
vertex $-1 $219 $299 #
straight-curve $-1 74.173406170842611 0 -20.116662323517577 0 -1 0 I I #
coedge $-1 $199 $201 $128 $211 reversed $121 $-1 #
edge $-1 $214 -48.263080486077484 $217 48.263080486077484 $210 $300 forward 7 unknown #
coedge $-1 $205 $129 $134 $220 forward $197 $-1 #
coedge $-1 $129 $205 $199 $291 reversed $197 $-1 #
vertex $-1 $130 $301 #
straight-curve $-1 0 48.263080486077484 20.116662323517577 -1 0 0 I I #
coedge $-1 $131 $200 $133 $219 reversed $75 $-1 #
vertex $-1 $211 $302 #
straight-curve $-1 0 -48.263080486077484 20.116662323517577 1 0 0 I I #
edge $-1 $136 -20.116662323517577 $208 20.116662323517577 $133 $303 forward 7 unknown #
edge $-1 $137 -20.116662323517577 $207 20.116662323517577 $134 $304 forward 7 unknown #
point $-1 74.173406170842611 -48.263080486077484 20.116662323517577 #
point $-1 74.173406170842611 48.263080486077484 20.116662323517577 #
face $-1 $-1 $154 $19 $-1 $305 reversed single #
loop $-1 $-1 $145 $139 #
plane-surface $-1 0 0 20.116662323517577 0 0 1 1 0 0 forward_v I I I I #
coedge $-1 $306 $142 $147 $235 forward $83 $-1 #
coedge $-1 $142 $306 $230 $307 reversed $83 $-1 #
edge $-1 $233 -12.547850237505115 $240 -2.5897739345198012 $142 $308 forward 7 unknown #
edge $-1 $156 2.5897739345198012 $232 12.547850237505115 $152 $309 forward 7 unknown #
coedge $-1 $310 $145 $227 $307 forward $224 $-1 #
coedge $-1 $145 $310 $242 $311 forward $224 $-1 #
vertex $-1 $229 $312 #
vertex $-1 $307 $313 #
straight-curve $-1 0 -22.715183325346544 20.116662323517577 -1 0 0 I I #
edge $-1 $240 4.9706173724905369 $238 30.518514533221477 $226 $314 forward 7 unknown #
coedge $-1 $315 $148 $153 $243 reversed $140 $-1 #
coedge $-1 $148 $315 $306 $316 forward $140 $-1 #
vertex $-1 $149 $317 #
straight-curve $-1 0 -48.263080486077484 10.15858602053226 1 0 0 I I #
vertex $-1 $235 $318 #
straight-curve $-1 0 -22.715183325346544 10.15858602053226 1 0 0 I I #
coedge $-1 $153 $152 $231 $311 reversed $154 $-1 #
edge $-1 $319 -20.116662323517577 $155 -10.15858602053226 $153 $320 forward 7 unknown #
point $-1 74.173406170842611 -48.263080486077484 10.15858602053226 #
point $-1 74.173406170842611 -22.715183325346544 10.15858602053226 #
loop $-1 $-1 $166 $158 #
plane-surface $-1 74.173406170842611 0 0 -1 0 0 0 0 1 forward_v I I I I #
coedge $-1 $249 $161 $321 $322 reversed $91 $-1 #
coedge $-1 $161 $248 $252 $323 reversed $91 $-1 #
edge $-1 $324 -148.34681234168525 $253 -131.01711048699406 $161 $325 forward 7 unknown #
coedge $-1 $163 $162 $256 $326 reversed $57 $-1 #
coedge $-1 $169 $164 $249 $323 forward $159 $-1 #
vertex $-1 $323 $327 #
straight-curve $-1 63.987263189231243 -7.0155965043309116 20.116662323517573 0 -1 0 I I #
coedge $-1 $321 $166 $169 $260 reversed $246 $-1 #
coedge $-1 $166 $321 $251 $326 forward $246 $-1 #
vertex $-1 $167 $328 #
straight-curve $-1 74.173406170842611 -5.3472026919771007 106.65389959083694 0 0 1 I I #
straight-curve $-1 -13.022660677221452 -5.3472026919771007 126.11173233360984 0.5877852410284794 0 -0.80901700255871778 I I #
edge $-1 $329 -22.715183325346544 $170 -5.3472026919771007 $255 $330 forward 7 unknown #
point $-1 74.173406170842611 -5.3472026919771007 20.116662323517577 #
point $-1 63.987263189231243 -5.3472026919771007 20.116662323517573 #
edge $-1 $331 1 $331 0 $173 $-1 forward 7 unknown #
vertex $-1 $174 $332 #
ellipse-curve $-1 66.444776680978947 -14.031193008661823 11.191805683382988 0.80901700255871778 0 0.5877852410284794 0.8816778615427191 0 -1.2135255038380768 1 I I #
point $-1 69.962012541579654 -14.031193008661823 11.893125094820221 #
loop $-1 $-1 $185 $177 #
plane-surface $-1 0 -22.715183325346544 15.137624172024918 0 -1 0 0 0 -1 forward_v I I I I #
coedge $-1 $274 $333 $181 $270 forward $178 $-1 #
edge $-1 $272 26.52969053741398 $280 40.549713987132513 $269 $334 forward 7 unknown #
coedge $-1 $188 $182 $333 $335 forward $106 $-1 #
vertex $-1 $335 $336 #
straight-curve $-1 -97.094249815326691 -5.3472026919771007 20.116662323517573 -1 0 0 I I #
coedge $-1 $337 $269 $184 $275 forward $178 $-1 #
edge $-1 $280 -1.6683938123538109 $278 15.699586821015632 $274 $338 forward 7 unknown #
coedge $-1 $277 $185 $188 $282 reversed $267 $-1 #
coedge $-1 $185 $276 $337 $339 reversed $267 $-1 #
vertex $-1 $339 $340 #
straight-curve $-1 -59.210643902634075 -22.715183325346544 26.691114943058217 0.5877852410284794 0 0.80901700255871778 I I #
vertex $-1 $275 $341 #
straight-curve $-1 -74.173406170842597 -5.3472026919771007 6.0966388737990655 0.5877852410284794 0 0.80901700255871778 I I #
edge $-1 $342 -74.173406170842611 $189 -63.987263189231257 $188 $343 forward 7 unknown #
point $-1 -63.987263189231257 -22.715183325346544 20.116662323517577 #
point $-1 -63.987263189231257 -5.3472026919771007 20.116662323517577 #
edge $-1 $344 1 $344 0 $192 $-1 forward 7 unknown #
vertex $-1 $193 $345 #
ellipse-curve $-1 -66.444776680978947 -14.031193008661823 11.191805683383009 -0.80901700255871778 0 0.5877852410284794 0.8816778615427191 0 1.2135255038380768 1 I I #
point $-1 -68.198656818494214 -14.031193008661823 14.320176102496395 #
plane-surface $-1 74.173406170842611 0 0 -1 0 0 0 0 1 forward_v I I I I #
coedge $-1 $201 $199 $203 $294 reversed $121 $-1 #
edge $-1 $214 -20.116662323517577 $296 20.116662323517577 $213 $346 forward 7 unknown #
vertex $-1 $294 $347 #
straight-curve $-1 -74.173406170842611 -48.263080486077484 0 0 0 -1 I I #
edge $-1 $292 -48.263080486077484 $296 48.263080486077484 $290 $348 forward 7 unknown #
straight-curve $-1 0 -48.263080486077484 -20.116662323517577 -1 0 0 I I #
vertex $-1 $206 $349 #
straight-curve $-1 0 48.263080486077484 -20.116662323517577 1 0 0 I I #
point $-1 74.173406170842611 48.263080486077484 -20.116662323517577 #
point $-1 74.173406170842611 -48.263080486077484 -20.116662323517577 #
straight-curve $-1 -74.173406170842611 0 20.116662323517577 0 -1 0 I I #
point $-1 -74.173406170842611 48.263080486077484 20.116662323517577 #
point $-1 -74.173406170842611 -48.263080486077484 20.116662323517577 #
straight-curve $-1 74.173406170842611 -48.263080486077484 0 0 0 -1 I I #
straight-curve $-1 74.173406170842611 48.263080486077484 0 0 0 -1 I I #
plane-surface $-1 74.173406170842611 0 0 -1 0 0 0 0 1 forward_v I I I I #
coedge $-1 $227 $226 $237 $316 reversed $83 $-1 #
edge $-1 $233 22.715183325346544 $350 48.263080486077484 $227 $351 forward 7 unknown #
straight-curve $-1 -74.173406170842611 -22.715183325346544 7.5688120860124588 0 0 -1 I I #
straight-curve $-1 74.173406170842611 -22.715183325346544 7.5688120860124588 0 0 1 I I #
coedge $-1 $231 $230 $315 $352 forward $224 $-1 #
edge $-1 $319 -48.263080486077484 $232 -22.715183325346544 $242 $353 forward 7 unknown #
point $-1 74.173406170842611 -22.715183325346544 20.116662323517573 #
point $-1 -74.173406170842611 -22.715183325346544 20.116662323517573 #
straight-curve $-1 -74.173406170842611 -17.744565952856007 10.15858602053226 0 -1 0 I I #
coedge $-1 $237 $236 $310 $352 reversed $140 $-1 #
edge $-1 $350 -20.116662323517577 $238 -10.15858602053226 $306 $354 forward 7 unknown #
point $-1 -74.173406170842611 -48.263080486077484 10.15858602053226 #
point $-1 -74.173406170842611 -22.715183325346544 10.15858602053226 #
vertex $-1 $311 $355 #
straight-curve $-1 74.173406170842611 -48.263080486077484 0 0 0 -1 I I #
coedge $-1 $256 $255 $248 $322 forward $246 $-1 #
edge $-1 $329 86.537237267319369 $324 100.55726071703791 $321 $356 forward 7 unknown #
edge $-1 $253 63.987263189231257 $329 74.173406170842611 $252 $357 forward 7 unknown #
vertex $-1 $322 $358 #
straight-curve $-1 -13.022660677221452 -22.715183325346544 126.11173233360984 -0.5877852410284794 0 0.80901700255871778 I I #
edge $-1 $324 -15.699586821015632 $257 1.6683938123538109 $256 $359 forward 7 unknown #
point $-1 63.987263189231257 -22.715183325346544 20.116662323517577 #
point $-1 74.173406170842611 -5.3472026919771007 6.0966388737990371 #
vertex $-1 $260 $360 #
straight-curve $-1 74.173406170842611 0 20.116662323517577 0 1 0 I I #
vertex $-1 $263 $361 #
point $-1 67.326454542521674 -14.031193008661823 9.9782801795449103 #
coedge $-1 $269 $337 $271 $335 reversed $178 $-1 #
straight-curve $-1 -74.173406170842611 -5.3472026919771007 46.646352860931557 0 0 -1 I I #
edge $-1 $272 5.3472026919771007 $342 22.715183325346544 $333 $362 forward 7 unknown #
point $-1 -74.173406170842611 -5.3472026919771007 20.116662323517577 #
coedge $-1 $333 $274 $277 $339 forward $178 $-1 #
straight-curve $-1 -74.173406170842611 -7.0155965043309116 6.0966388737990496 0 -1 0 I I #
edge $-1 $278 -40.549713987132513 $342 -26.529690537413984 $337 $363 forward 7 unknown #
point $-1 -74.173406170842611 -22.715183325346544 6.096638873799046 #
point $-1 -74.173406170842611 -5.3472026919771007 6.096638873799046 #
vertex $-1 $339 $364 #
straight-curve $-1 0 -22.715183325346544 20.116662323517577 1 0 0 I I #
vertex $-1 $285 $365 #
point $-1 -65.563098819436235 -14.031193008661823 12.405331187221085 #
straight-curve $-1 -74.173406170842611 48.263080486077484 0 0 0 -1 I I #
point $-1 -74.173406170842611 -48.263080486077484 -20.116662323517577 #
straight-curve $-1 -74.173406170842611 0 -20.116662323517577 0 1 0 I I #
point $-1 -74.173406170842611 48.263080486077484 -20.116662323517577 #
vertex $-1 $307 $366 #
straight-curve $-1 -74.173406170842611 0 20.116662323517577 0 -1 0 I I #
edge $-1 $350 -74.173406170842611 $319 74.173406170842611 $315 $367 forward 7 unknown #
straight-curve $-1 74.173406170842611 0 20.116662323517577 0 1 0 I I #
straight-curve $-1 -74.173406170842611 -48.263080486077484 0 0 0 -1 I I #
point $-1 74.173406170842611 -48.263080486077484 20.116662323517577 #
straight-curve $-1 74.173406170842611 -22.715183325346544 106.65389959083694 0 0 -1 I I #
straight-curve $-1 0 -22.715183325346544 20.116662323517577 1 0 0 I I #
point $-1 74.173406170842611 -22.715183325346544 6.0966388737990371 #
straight-curve $-1 74.173406170842611 -7.0155965043309116 6.0966388737990442 0 1 0 I I #
point $-1 74.173406170842611 -22.715183325346544 20.116662323517573 #
point $-1 65.231251177140877 -14.031193008661823 10.310127821840268 #
straight-curve $-1 -74.173406170842611 0 20.116662323517577 0 -1 0 I I #
straight-curve $-1 -74.173406170842611 -22.715183325346544 46.646352860931557 0 0 1 I I #
point $-1 -74.173406170842611 -22.715183325346544 20.116662323517573 #
point $-1 -65.231251177140877 -14.031193008661823 10.31012782184029 #
point $-1 -74.173406170842611 -48.263080486077484 20.116662323517577 #
straight-curve $-1 0 -48.263080486077484 20.116662323517577 1 0 0 I I #
End-of-ACIS-data 