500 0 10 0           
7 Unknown 11 ACIS 5.0 NT 24 Thu Mar 25 17:03:39 1999 
-1 9.9999999999999995e-007 1e-010 
body $-1 $10 $-1 $11 #
body $-1 $12 $-1 $13 #
body $-1 $14 $-1 $15 #
body $-1 $16 $-1 $17 #
body $-1 $18 $-1 $19 #
body $-1 $20 $-1 $21 #
body $-1 $22 $-1 $23 #
body $-1 $24 $-1 $25 #
body $-1 $26 $-1 $27 #
body $-1 $28 $-1 $29 #
lump $-1 $-1 $30 $0 #
transform $-1 1 0 0 0 1 0 0 0 1 54.165471358378852 22.420475007807497 7.823662626629587 1 rotate no_reflect no_shear #
lump $-1 $-1 $31 $1 #
transform $-1 1 0 0 0 1 0 0 0 1 54.165471358378852 22.420475007807497 7.823662626629587 1 rotate no_reflect no_shear #
lump $-1 $-1 $32 $2 #
transform $-1 1 0 0 0 1 0 0 0 1 54.165471358378852 22.420475007807497 7.823662626629587 1 rotate no_reflect no_shear #
lump $-1 $-1 $33 $3 #
transform $-1 1 0 0 0 1 0 0 0 1 54.165471358378852 22.420475007807497 7.823662626629587 1 rotate no_reflect no_shear #
lump $-1 $-1 $34 $4 #
transform $-1 1 0 0 0 1 0 0 0 1 54.165471358378852 22.420475007807497 7.823662626629587 1 rotate no_reflect no_shear #
lump $-1 $-1 $35 $5 #
transform $-1 1 0 0 0 1 0 0 0 1 54.165471358378852 22.420475007807497 7.823662626629587 1 rotate no_reflect no_shear #
lump $-1 $-1 $36 $6 #
transform $-1 1 0 0 0 1 0 0 0 1 54.165471358378852 22.420475007807497 7.823662626629587 1 rotate no_reflect no_shear #
lump $-1 $-1 $37 $7 #
transform $-1 1 0 0 0 1 0 0 0 1 54.165471358378852 22.420475007807497 7.823662626629587 1 rotate no_reflect no_shear #
lump $-1 $-1 $38 $8 #
transform $-1 1 0 0 0 1 0 0 0 1 54.165471358378852 22.420475007807497 7.823662626629587 1 rotate no_reflect no_shear #
lump $-1 $-1 $39 $9 #
transform $-1 1 0 0 0 1 0 0 0 1 54.165471358378852 22.420475007807497 7.823662626629587 1 rotate no_reflect no_shear #
shell $-1 $-1 $-1 $40 $-1 $10 #
shell $-1 $-1 $-1 $41 $-1 $12 #
shell $-1 $-1 $-1 $42 $-1 $14 #
shell $-1 $-1 $-1 $43 $-1 $16 #
shell $-1 $-1 $-1 $44 $-1 $18 #
shell $-1 $-1 $-1 $45 $-1 $20 #
shell $-1 $-1 $-1 $46 $-1 $22 #
shell $-1 $-1 $-1 $47 $-1 $24 #
shell $-1 $-1 $-1 $48 $-1 $26 #
shell $-1 $-1 $-1 $49 $-1 $28 #
face $-1 $50 $51 $30 $-1 $52 forward single #
face $-1 $53 $54 $31 $-1 $55 reversed single #
face $-1 $56 $57 $32 $-1 $58 reversed single #
face $-1 $59 $60 $33 $-1 $61 forward single #
face $-1 $62 $63 $34 $-1 $64 forward single #
face $-1 $65 $66 $35 $-1 $67 forward single #
face $-1 $68 $69 $36 $-1 $70 reversed single #
face $-1 $71 $72 $37 $-1 $73 forward single #
face $-1 $74 $75 $38 $-1 $76 forward single #
face $-1 $77 $78 $39 $-1 $79 forward single #
face $-1 $80 $81 $30 $-1 $82 reversed single #
loop $-1 $-1 $83 $40 #
plane-surface $-1 0 0 7.823662626629587 0 0 1 1 0 0 forward_v I I I I #
face $-1 $84 $85 $31 $-1 $86 reversed single #
loop $-1 $-1 $87 $41 #
plane-surface $-1 -50.334164054611186 -19.267566247164986 0 0 1 0 0 0 1 forward_v I I I I #
face $-1 $88 $89 $32 $-1 $90 reversed single #
loop $-1 $-1 $91 $42 #
plane-surface $-1 42.599381852693575 65.417592351924696 111.42509251980725 1 0 0 0 -0.69465837861970381 -0.71933979245794832 forward_v I I I I #
face $-1 $92 $93 $33 $-1 $94 forward single #
loop $-1 $95 $96 $43 #
cone-surface $-1 44.912599753830634 19.238656276104251 4.7267579348591084 0 -0.69465837861970381 -0.71933979245794832 0.5 0 0 1 I I 0 1 0.5 forward I I I I #
face $-1 $97 $98 $34 $-1 $99 forward single #
loop $-1 $100 $101 $44 #
cone-surface $-1 48.38242660553621 19.238656276104251 4.7267579348591084 0 -0.69465837861970381 -0.71933979245794832 0.5 0 0 1 I I 0 1 0.5 forward I I I I #
face $-1 $102 $103 $35 $-1 $104 forward single #
loop $-1 $105 $106 $45 #
cone-surface $-1 51.852253457241787 19.238656276104251 4.7267579348591084 0 -0.69465837861970381 -0.71933979245794832 0.5 0 0 1 I I 0 1 0.5 forward I I I I #
face $-1 $107 $108 $36 $-1 $109 reversed single #
loop $-1 $-1 $110 $46 #
plane-surface $-1 48.38242660553621 -22.420475007807511 2.3491930355465769 0 -0.69465837861970381 0.71933979245794832 1 0 0 forward_v I I I I #
face $-1 $111 $112 $37 $-1 $113 forward single #
loop $-1 $114 $115 $47 #
cone-surface $-1 44.912599753830634 -19.238656276104255 4.726757934859112 0 0.69465837861970381 -0.71933979245794832 0.5 0 0 1 I I 0 1 0.5 forward I I I I #
face $-1 $116 $117 $38 $-1 $118 forward single #
loop $-1 $119 $120 $48 #
cone-surface $-1 48.38242660553621 -19.238656276104255 4.726757934859112 0 0.69465837861970381 -0.71933979245794832 0.5 0 0 1 I I 0 1 0.5 forward I I I I #
face $-1 $121 $122 $39 $-1 $123 forward single #
loop $-1 $124 $125 $49 #
cone-surface $-1 51.852253457241787 -19.238656276104255 4.726757934859112 0 0.69465837861970381 -0.71933979245794832 0.5 0 0 1 I I 0 1 0.5 forward I I I I #
face $-1 $126 $127 $30 $-1 $128 reversed single #
loop $-1 $-1 $129 $50 #
plane-surface $-1 0 0 -7.823662626629587 0 0 1 1 0 0 forward_v I I I I #
coedge $-1 $130 $131 $132 $133 forward $51 $-1 #
face $-1 $134 $135 $31 $-1 $136 reversed single #
loop $-1 $-1 $137 $53 #
plane-surface $-1 -50.334164054611186 -15.94121432246552 0 0 -1 0 0 0 -1 forward_v I I I I #
coedge $-1 $138 $139 $140 $141 reversed $54 $-1 #
face $-1 $142 $143 $32 $-1 $144 forward single #
loop $-1 $-1 $145 $56 #
plane-surface $-1 48.38242660553621 -9.8354046700422231 33.498334669160869 0 0.69465837861970381 0.71933979245794832 1 0 0 forward_v I I I I #
coedge $-1 $146 $147 $148 $149 reversed $57 $-1 #
face $-1 $-1 $150 $33 $-1 $151 forward single #
loop $-1 $152 $153 $59 #
cone-surface $-1 44.912599753830634 18.717662492139475 4.1872530905156475 0 -0.69465837861970381 -0.71933979245794832 0.25 0 0 1 I I -0.70710678118654746 0.70710678118654746 0.25 forward I I I I #
loop $-1 $-1 $154 $43 #
coedge $-1 $96 $96 $155 $156 reversed $60 $-1 #
face $-1 $-1 $157 $34 $-1 $158 forward single #
loop $-1 $159 $160 $62 #
cone-surface $-1 48.38242660553621 18.717662492139475 4.1872530905156475 0 -0.69465837861970381 -0.71933979245794832 0.25 0 0 1 I I -0.70710678118654746 0.70710678118654746 0.25 forward I I I I #
loop $-1 $-1 $161 $44 #
coedge $-1 $101 $101 $162 $163 reversed $63 $-1 #
face $-1 $-1 $164 $35 $-1 $165 forward single #
loop $-1 $166 $167 $65 #
cone-surface $-1 51.852253457241787 18.717662492139475 4.1872530905156475 0 -0.69465837861970381 -0.71933979245794832 0.25 0 0 1 I I -0.70710678118654746 0.70710678118654746 0.25 forward I I I I #
loop $-1 $-1 $168 $45 #
coedge $-1 $106 $106 $169 $170 reversed $66 $-1 #
face $-1 $171 $172 $36 $-1 $173 reversed single #
loop $-1 $-1 $174 $68 #
plane-surface $-1 42.599381852693575 -97.67347202977443 80.275950886192959 1 0 0 0 0.69465837861970381 -0.71933979245794832 forward_v I I I I #
coedge $-1 $175 $176 $177 $178 reversed $69 $-1 #
face $-1 $-1 $179 $37 $-1 $180 forward single #
loop $-1 $181 $182 $71 #
cone-surface $-1 44.912599753830634 -18.717662492139478 4.1872530905156511 0 0.69465837861970381 -0.71933979245794832 0.25 0 0 1 I I -0.70710678118654746 0.70710678118654746 0.25 forward I I I I #
loop $-1 $-1 $183 $47 #
coedge $-1 $115 $115 $184 $185 reversed $72 $-1 #
face $-1 $-1 $186 $38 $-1 $187 forward single #
loop $-1 $188 $189 $74 #
cone-surface $-1 48.38242660553621 -18.717662492139478 4.1872530905156511 0 0.69465837861970381 -0.71933979245794832 0.25 0 0 1 I I -0.70710678118654746 0.70710678118654746 0.25 forward I I I I #
loop $-1 $-1 $190 $48 #
coedge $-1 $120 $120 $191 $192 reversed $75 $-1 #
face $-1 $-1 $193 $39 $-1 $194 forward single #
loop $-1 $195 $196 $77 #
cone-surface $-1 51.852253457241787 -18.717662492139478 4.1872530905156511 0 0.69465837861970381 -0.71933979245794832 0.25 0 0 1 I I -0.70710678118654746 0.70710678118654746 0.25 forward I I I I #
loop $-1 $-1 $197 $49 #
coedge $-1 $125 $125 $198 $199 reversed $78 $-1 #
face $-1 $200 $201 $30 $-1 $202 reversed single #
loop $-1 $-1 $203 $80 #
plane-surface $-1 0 -22.420475007807497 0 0 1 0 0 0 1 forward_v I I I I #
coedge $-1 $204 $205 $206 $207 forward $81 $-1 #
coedge $-1 $208 $83 $209 $210 forward $51 $-1 #
coedge $-1 $83 $208 $211 $212 forward $51 $-1 #
coedge $-1 $213 $214 $83 $133 reversed $215 $-1 #
edge $-1 $216 -22.420475007807497 $217 22.420475007807497 $132 $218 forward 7 unknown #
face $-1 $219 $220 $31 $-1 $221 reversed single #
loop $-1 $-1 $222 $84 #
plane-surface $-1 -46.50285675084352 -17.604390284815253 0 -1 0 0 0 0 1 forward_v I I I I #
coedge $-1 $223 $224 $225 $226 forward $85 $-1 #
coedge $-1 $227 $87 $228 $229 reversed $54 $-1 #
coedge $-1 $87 $227 $230 $231 reversed $54 $-1 #
coedge $-1 $232 $233 $87 $141 forward $234 $-1 #
edge $-1 $235 -7.823662626629587 $236 7.823662626629587 $140 $237 forward 7 unknown #
face $-1 $238 $239 $32 $-1 $240 reversed single #
loop $-1 $-1 $148 $88 #
plane-surface $-1 0 0 7.823662626629587 0 0 1 1 0 0 forward_v I I I I #
coedge $-1 $241 $242 $243 $244 reversed $89 $-1 #
coedge $-1 $147 $91 $245 $246 reversed $57 $-1 #
coedge $-1 $91 $146 $241 $247 reversed $57 $-1 #
coedge $-1 $243 $248 $91 $149 forward $143 $-1 #
edge $-1 $249 10.288321168154852 $250 15.957300252941639 $148 $251 forward 7 unknown #
loop $-1 $-1 $155 $92 #
plane-surface $-1 48.38242660553621 -9.8354046700422231 33.498334669160869 0 0.69465837861970381 0.71933979245794832 1 0 0 forward_v I I I I #
loop $-1 $-1 $252 $59 #
coedge $-1 $153 $153 $154 $253 reversed $93 $-1 #
coedge $-1 $154 $154 $153 $253 forward $95 $-1 #
coedge $-1 $155 $155 $96 $156 forward $150 $-1 #
edge $-1 $254 -1.2339611619077996e-015 $254 6.2831853071795996 $155 $255 forward 7 unknown #
loop $-1 $-1 $162 $97 #
plane-surface $-1 48.38242660553621 -9.8354046700422231 33.498334669160869 0 0.69465837861970381 0.71933979245794832 1 0 0 forward_v I I I I #
loop $-1 $-1 $256 $62 #
coedge $-1 $160 $160 $161 $257 reversed $98 $-1 #
coedge $-1 $161 $161 $160 $257 forward $100 $-1 #
coedge $-1 $162 $162 $101 $163 forward $157 $-1 #
edge $-1 $258 -1.2339611619077996e-015 $258 6.2831853071795996 $162 $259 forward 7 unknown #
loop $-1 $-1 $169 $102 #
plane-surface $-1 48.38242660553621 -9.8354046700422231 33.498334669160869 0 0.69465837861970381 0.71933979245794832 1 0 0 forward_v I I I I #
loop $-1 $-1 $260 $65 #
coedge $-1 $167 $167 $168 $261 reversed $103 $-1 #
coedge $-1 $168 $168 $167 $261 forward $105 $-1 #
coedge $-1 $169 $169 $106 $170 forward $164 $-1 #
edge $-1 $262 -1.2339611619077996e-015 $262 6.2831853071795996 $169 $263 forward 7 unknown #
face $-1 $264 $265 $36 $-1 $266 forward single #
loop $-1 $-1 $267 $107 #
plane-surface $-1 54.165471358378852 0 0 -1 0 0 0 0 1 forward_v I I I I #
coedge $-1 $268 $269 $270 $271 reversed $108 $-1 #
coedge $-1 $272 $110 $267 $273 reversed $69 $-1 #
coedge $-1 $110 $272 $268 $274 forward $69 $-1 #
coedge $-1 $270 $275 $110 $178 forward $265 $-1 #
edge $-1 $276 -29.97425805561074 $277 -18.40816854992547 $177 $278 forward 7 unknown #
loop $-1 $-1 $184 $111 #
plane-surface $-1 48.38242660553621 -22.420475007807511 2.3491930355465769 0 -0.69465837861970381 0.71933979245794832 1 0 0 forward_v I I I I #
loop $-1 $-1 $279 $71 #
coedge $-1 $182 $182 $183 $280 reversed $112 $-1 #
coedge $-1 $183 $183 $182 $280 forward $114 $-1 #
coedge $-1 $184 $184 $115 $185 forward $179 $-1 #
edge $-1 $281 -3.7018834857233983e-015 $281 6.2831853071795969 $184 $282 forward 7 unknown #
loop $-1 $-1 $191 $116 #
plane-surface $-1 48.38242660553621 -22.420475007807511 2.3491930355465769 0 -0.69465837861970381 0.71933979245794832 1 0 0 forward_v I I I I #
loop $-1 $-1 $283 $74 #
coedge $-1 $189 $189 $190 $284 reversed $117 $-1 #
coedge $-1 $190 $190 $189 $284 forward $119 $-1 #
coedge $-1 $191 $191 $120 $192 forward $186 $-1 #
edge $-1 $285 -3.7018834857233983e-015 $285 6.2831853071795969 $191 $286 forward 7 unknown #
loop $-1 $-1 $198 $121 #
plane-surface $-1 48.38242660553621 -22.420475007807511 2.3491930355465769 0 -0.69465837861970381 0.71933979245794832 1 0 0 forward_v I I I I #
loop $-1 $-1 $287 $77 #
coedge $-1 $196 $196 $197 $288 reversed $122 $-1 #
coedge $-1 $197 $197 $196 $288 forward $124 $-1 #
coedge $-1 $198 $198 $125 $199 forward $193 $-1 #
edge $-1 $289 -3.7018834857233983e-015 $289 6.2831853071795969 $198 $290 forward 7 unknown #
face $-1 $291 $292 $30 $-1 $293 reversed single #
loop $-1 $-1 $294 $126 #
plane-surface $-1 -54.165471358378852 0 0 1 0 0 0 0 -1 forward_v I I I I #
coedge $-1 $295 $211 $296 $297 forward $127 $-1 #
coedge $-1 $298 $129 $295 $299 forward $81 $-1 #
coedge $-1 $129 $298 $300 $301 forward $81 $-1 #
coedge $-1 $214 $213 $129 $207 reversed $215 $-1 #
edge $-1 $302 -22.420475007807497 $303 22.420475007807497 $206 $304 forward 7 unknown #
coedge $-1 $131 $130 $305 $306 forward $51 $-1 #
coedge $-1 $307 $308 $130 $210 reversed $292 $-1 #
edge $-1 $217 -54.165471358378852 $309 54.165471358378852 $209 $310 forward 7 unknown #
coedge $-1 $203 $311 $131 $212 reversed $127 $-1 #
edge $-1 $312 -54.165471358378852 $216 54.165471358378852 $211 $313 forward 7 unknown #
coedge $-1 $206 $132 $311 $314 forward $215 $-1 #
coedge $-1 $132 $206 $307 $315 reversed $215 $-1 #
loop $-1 $-1 $213 $291 #
vertex $-1 $133 $316 #
vertex $-1 $133 $317 #
straight-curve $-1 54.165471358378852 0 7.823662626629587 0 1 0 I I #
face $-1 $318 $319 $31 $-1 $320 forward single #
loop $-1 $-1 $321 $134 #
plane-surface $-1 0 0 -7.823662626629587 0 0 1 1 0 0 forward_v I I I I #
coedge $-1 $322 $323 $227 $324 forward $135 $-1 #
coedge $-1 $325 $137 $321 $326 reversed $85 $-1 #
coedge $-1 $137 $325 $327 $328 reversed $85 $-1 #
coedge $-1 $323 $322 $137 $226 reversed $135 $-1 #
edge $-1 $329 -7.823662626629587 $330 7.823662626629587 $225 $331 forward 7 unknown #
coedge $-1 $139 $138 $222 $324 reversed $54 $-1 #
coedge $-1 $332 $333 $138 $229 forward $220 $-1 #
edge $-1 $334 21.335774723537927 $235 28.998389331073259 $228 $335 forward 7 unknown #
coedge $-1 $336 $337 $139 $231 forward $319 $-1 #
edge $-1 $236 -28.998389331073259 $338 -21.335774723537927 $230 $339 forward 7 unknown #
coedge $-1 $340 $140 $337 $341 reversed $234 $-1 #
coedge $-1 $140 $340 $332 $342 reversed $234 $-1 #
loop $-1 $-1 $340 $318 #
vertex $-1 $342 $343 #
vertex $-1 $141 $344 #
straight-curve $-1 -54.165471358378852 -19.267566247164986 0 0 0 1 I I #
face $-1 $-1 $345 $32 $-1 $346 reversed single #
loop $-1 $-1 $347 $142 #
plane-surface $-1 54.165471358378852 0 0 -1 0 0 0 0 1 forward_v I I I I #
coedge $-1 $348 $145 $147 $247 forward $89 $-1 #
coedge $-1 $145 $348 $347 $349 reversed $89 $-1 #
coedge $-1 $350 $148 $145 $244 forward $143 $-1 #
edge $-1 $250 18.40816854992547 $351 29.97425805561074 $243 $352 forward 7 unknown #
coedge $-1 $353 $354 $146 $246 forward $345 $-1 #
edge $-1 $355 -53.363353224357041 $249 -47.888883633274041 $245 $356 forward 7 unknown #
edge $-1 $250 36.960141607371412 $355 44.840950015614986 $147 $357 forward 7 unknown #
coedge $-1 $148 $350 $353 $358 forward $143 $-1 #
vertex $-1 $246 $359 #
vertex $-1 $149 $360 #
straight-curve $-1 42.599381852693575 32.708796175962348 7.8236626266295843 0 -1 0 I I #
coedge $-1 $252 $252 $-1 $361 reversed $152 $-1 #
edge $-1 $362 0 $362 6.2831853071796004 $153 $363 forward 7 unknown #
vertex $-1 $156 $364 #
ellipse-curve $-1 44.912599753830634 19.585985465414105 5.0864278310880824 0 0.69465837861970381 0.71933979245794832 0.5 0 0 1 I I #
coedge $-1 $256 $256 $-1 $365 reversed $159 $-1 #
edge $-1 $366 0 $366 6.2831853071796004 $160 $367 forward 7 unknown #
vertex $-1 $163 $368 #
ellipse-curve $-1 48.38242660553621 19.585985465414105 5.0864278310880824 0 0.69465837861970381 0.71933979245794832 0.5 0 0 1 I I #
coedge $-1 $260 $260 $-1 $369 reversed $166 $-1 #
edge $-1 $370 0 $370 6.2831853071796004 $167 $371 forward 7 unknown #
vertex $-1 $170 $372 #
ellipse-curve $-1 51.852253457241787 19.585985465414105 5.0864278310880824 0 0.69465837861970381 0.71933979245794832 0.5 0 0 1 I I #
face $-1 $-1 $373 $36 $-1 $374 reversed single #
loop $-1 $-1 $177 $171 #
plane-surface $-1 0 0 7.823662626629587 0 0 1 1 0 0 forward_v I I I I #
coedge $-1 $375 $376 $175 $273 forward $172 $-1 #
coedge $-1 $269 $174 $176 $274 reversed $108 $-1 #
coedge $-1 $174 $268 $377 $378 reversed $108 $-1 #
coedge $-1 $379 $177 $174 $271 forward $265 $-1 #
edge $-1 $277 -32.085240091866496 $380 -26.416261007079719 $270 $381 forward 7 unknown #
coedge $-1 $176 $175 $382 $383 reversed $69 $-1 #
edge $-1 $384 -7.2480266068936743 $276 0.63278180134988049 $267 $385 forward 7 unknown #
edge $-1 $386 1.9785632286268914e-014 $277 7.8808084082435741 $268 $387 forward 7 unknown #
coedge $-1 $177 $379 $375 $388 forward $265 $-1 #
vertex $-1 $273 $389 #
vertex $-1 $178 $390 #
straight-curve $-1 24.191213302768105 -16.751495923020727 7.823662626629587 -1 0 0 I I #
coedge $-1 $279 $279 $-1 $391 reversed $181 $-1 #
edge $-1 $392 0 $392 6.2831853071796004 $182 $393 forward 7 unknown #
vertex $-1 $185 $394 #
ellipse-curve $-1 44.912599753830634 -19.585985465414108 5.0864278310880895 0 -0.69465837861970381 0.71933979245794832 0.5 0 0 1 I I #
coedge $-1 $283 $283 $-1 $395 reversed $188 $-1 #
edge $-1 $396 0 $396 6.2831853071796004 $189 $397 forward 7 unknown #
vertex $-1 $192 $398 #
ellipse-curve $-1 48.38242660553621 -19.585985465414108 5.0864278310880895 0 -0.69465837861970381 0.71933979245794832 0.5 0 0 1 I I #
coedge $-1 $287 $287 $-1 $399 reversed $195 $-1 #
edge $-1 $400 0 $400 6.2831853071796004 $196 $401 forward 7 unknown #
vertex $-1 $199 $402 #
ellipse-curve $-1 51.852253457241787 -19.585985465414108 5.0864278310880895 0 -0.69465837861970381 0.71933979245794832 0.5 0 0 1 I I #
face $-1 $-1 $215 $30 $-1 $403 reversed single #
loop $-1 $-1 $307 $200 #
plane-surface $-1 0 22.420475007807497 0 0 -1 0 0 0 -1 forward_v I I I I #
coedge $-1 $404 $305 $308 $405 forward $201 $-1 #
coedge $-1 $311 $203 $204 $299 reversed $127 $-1 #
coedge $-1 $305 $404 $203 $297 reversed $201 $-1 #
edge $-1 $312 -7.823662626629587 $406 7.823662626629587 $296 $407 forward 7 unknown #
coedge $-1 $205 $204 $404 $408 forward $81 $-1 #
edge $-1 $303 -54.165471358378852 $406 54.165471358378852 $295 $409 forward 7 unknown #
coedge $-1 $308 $307 $205 $301 reversed $292 $-1 #
edge $-1 $410 -54.165471358378852 $302 54.165471358378852 $300 $411 forward 7 unknown #
vertex $-1 $207 $412 #
vertex $-1 $314 $413 #
straight-curve $-1 54.165471358378852 0 -7.823662626629587 0 -1 0 I I #
coedge $-1 $294 $296 $208 $306 reversed $201 $-1 #
edge $-1 $309 -22.420475007807497 $312 22.420475007807497 $305 $414 forward 7 unknown #
coedge $-1 $300 $209 $214 $315 forward $292 $-1 #
coedge $-1 $209 $300 $294 $405 reversed $292 $-1 #
vertex $-1 $210 $415 #
straight-curve $-1 0 22.420475007807497 7.823662626629587 -1 0 0 I I #
coedge $-1 $211 $295 $213 $314 reversed $127 $-1 #
vertex $-1 $306 $416 #
straight-curve $-1 0 -22.420475007807497 7.823662626629587 1 0 0 I I #
edge $-1 $216 -7.823662626629587 $303 7.823662626629587 $213 $417 forward 7 unknown #
edge $-1 $217 -7.823662626629587 $302 7.823662626629587 $214 $418 forward 7 unknown #
point $-1 54.165471358378852 -22.420475007807497 7.823662626629587 #
point $-1 54.165471358378852 22.420475007807497 7.823662626629587 #
face $-1 $-1 $234 $31 $-1 $419 reversed single #
loop $-1 $-1 $327 $219 #
plane-surface $-1 0 0 7.823662626629587 0 0 1 1 0 0 forward_v I I I I #
coedge $-1 $333 $332 $223 $326 forward $220 $-1 #
coedge $-1 $225 $222 $333 $420 reversed $135 $-1 #
coedge $-1 $222 $225 $336 $421 reversed $135 $-1 #
edge $-1 $338 -7.823662626629587 $334 7.823662626629587 $222 $422 forward 7 unknown #
coedge $-1 $224 $223 $340 $423 reversed $85 $-1 #
edge $-1 $424 -28.998389331073259 $330 -21.335774723537927 $321 $425 forward 7 unknown #
coedge $-1 $337 $336 $224 $328 forward $319 $-1 #
edge $-1 $329 21.335774723537927 $426 28.998389331073259 $327 $427 forward 7 unknown #
vertex $-1 $328 $428 #
vertex $-1 $326 $429 #
straight-curve $-1 -46.50285675084352 -15.94121432246552 0 0 0 -1 I I #
coedge $-1 $321 $228 $233 $342 forward $220 $-1 #
coedge $-1 $228 $321 $322 $420 forward $220 $-1 #
vertex $-1 $229 $430 #
straight-curve $-1 -25.167082027305593 -19.267566247164986 -7.823662626629587 -1 0 0 I I #
coedge $-1 $327 $230 $323 $421 forward $319 $-1 #
coedge $-1 $230 $327 $232 $341 forward $319 $-1 #
vertex $-1 $231 $431 #
straight-curve $-1 -25.167082027305593 -19.267566247164986 7.823662626629587 1 0 0 I I #
coedge $-1 $233 $232 $325 $423 forward $234 $-1 #
edge $-1 $426 15.94121432246552 $236 19.267566247164986 $232 $432 forward 7 unknown #
edge $-1 $235 -19.267566247164986 $424 -15.94121432246552 $233 $433 forward 7 unknown #
point $-1 -54.165471358378852 -19.267566247164986 -7.823662626629587 #
point $-1 -54.165471358378852 -19.267566247164986 7.823662626629587 #
loop $-1 $-1 $245 $238 #
plane-surface $-1 0 22.420475007807497 0 0 -1 0 0 0 -1 forward_v I I I I #
coedge $-1 $434 $435 $242 $349 forward $239 $-1 #
coedge $-1 $242 $241 $354 $436 reversed $89 $-1 #
edge $-1 $351 21.787693206457604 $437 29.668501614701178 $347 $438 forward 7 unknown #
coedge $-1 $248 $243 $435 $439 forward $143 $-1 #
vertex $-1 $439 $440 #
straight-curve $-1 24.191213302768105 16.751495923020709 7.8236626266295879 1 0 0 I I #
coedge $-1 $441 $245 $248 $358 reversed $345 $-1 #
coedge $-1 $245 $441 $348 $436 forward $345 $-1 #
vertex $-1 $246 $442 #
straight-curve $-1 42.599381852693575 22.420475007807497 55.712546259903625 0 0 1 I I #
straight-curve $-1 42.599381852693575 -9.8354046700422231 33.498334669160869 0 0.71933979245794832 -0.69465837861970381 I I #
edge $-1 $443 -54.165471358378852 $249 -42.599381852693575 $353 $444 forward 7 unknown #
point $-1 42.599381852693575 22.420475007807497 7.823662626629587 #
point $-1 42.599381852693575 16.751495923020709 7.8236626266295914 #
edge $-1 $445 1 $445 0 $252 $-1 forward 7 unknown #
vertex $-1 $253 $446 #
ellipse-curve $-1 44.912599753830634 18.891327086794401 4.3670880386301345 0 0.69465837861970381 0.71933979245794832 0.5 0 0 1 I I #
point $-1 45.412599753830634 19.585985465414105 5.0864278310880833 #
edge $-1 $447 1 $447 0 $256 $-1 forward 7 unknown #
vertex $-1 $257 $448 #
ellipse-curve $-1 48.38242660553621 18.891327086794401 4.3670880386301345 0 0.69465837861970381 0.71933979245794832 0.5 0 0 1 I I #
point $-1 48.88242660553621 19.585985465414105 5.0864278310880833 #
edge $-1 $449 1 $449 0 $260 $-1 forward 7 unknown #
vertex $-1 $261 $450 #
ellipse-curve $-1 51.852253457241787 18.891327086794401 4.3670880386301345 0 0.69465837861970381 0.71933979245794832 0.5 0 0 1 I I #
point $-1 52.352253457241787 19.585985465414105 5.0864278310880833 #
loop $-1 $-1 $382 $264 #
plane-surface $-1 0 -22.420475007807497 0 0 1 0 0 0 1 forward_v I I I I #
coedge $-1 $376 $267 $275 $388 reversed $172 $-1 #
coedge $-1 $267 $375 $451 $452 forward $172 $-1 #
coedge $-1 $382 $453 $269 $378 forward $373 $-1 #
edge $-1 $380 32.314312816466895 $386 37.788782407549888 $377 $454 forward 7 unknown #
coedge $-1 $275 $270 $453 $455 forward $265 $-1 #
vertex $-1 $455 $456 #
straight-curve $-1 42.599381852693575 -48.836736014887215 7.8236626266295843 0 -1 0 I I #
coedge $-1 $451 $377 $272 $383 forward $373 $-1 #
edge $-1 $386 18.40816854992547 $384 29.97425805561074 $382 $457 forward 7 unknown #
vertex $-1 $273 $458 #
straight-curve $-1 54.165471358378852 -17.206681052674913 7.3840954464838235 0 0.71933979245794832 0.69465837861970381 I I #
vertex $-1 $383 $459 #
straight-curve $-1 42.599381852693575 -22.420475007807511 2.3491930355465769 0 0.71933979245794832 0.69465837861970381 I I #
edge $-1 $460 -22.420475007807497 $276 -16.751495923020723 $375 $461 forward 7 unknown #
point $-1 54.165471358378845 -16.751495923020723 7.823662626629587 #
point $-1 42.599381852693575 -16.751495923020723 7.823662626629587 #
edge $-1 $462 1 $462 0 $279 $-1 forward 7 unknown #
vertex $-1 $280 $463 #
ellipse-curve $-1 44.912599753830634 -18.891327086794405 4.3670880386301381 0 -0.69465837861970381 0.71933979245794832 0.5 0 0 1 I I #
point $-1 45.412599753830634 -19.585985465414108 5.0864278310880868 #
edge $-1 $464 1 $464 0 $283 $-1 forward 7 unknown #
vertex $-1 $284 $465 #
ellipse-curve $-1 48.38242660553621 -18.891327086794405 4.3670880386301381 0 -0.69465837861970381 0.71933979245794832 0.5 0 0 1 I I #
point $-1 48.88242660553621 -19.585985465414108 5.0864278310880868 #
edge $-1 $466 1 $466 0 $287 $-1 forward 7 unknown #
vertex $-1 $288 $467 #
ellipse-curve $-1 51.852253457241787 -18.891327086794405 4.3670880386301381 0 -0.69465837861970381 0.71933979245794832 0.5 0 0 1 I I #
point $-1 52.352253457241787 -19.585985465414108 5.0864278310880868 #
plane-surface $-1 54.165471358378852 0 0 -1 0 0 0 0 1 forward_v I I I I #
coedge $-1 $296 $294 $298 $408 reversed $201 $-1 #
edge $-1 $309 -7.823662626629587 $410 7.823662626629587 $308 $468 forward 7 unknown #
vertex $-1 $408 $469 #
straight-curve $-1 -54.165471358378852 -22.420475007807497 0 0 0 -1 I I #
edge $-1 $406 -22.420475007807497 $410 22.420475007807497 $404 $470 forward 7 unknown #
straight-curve $-1 0 -22.420475007807497 -7.823662626629587 -1 0 0 I I #
vertex $-1 $301 $471 #
straight-curve $-1 0 22.420475007807497 -7.823662626629587 1 0 0 I I #
point $-1 54.165471358378852 22.420475007807497 -7.823662626629587 #
point $-1 54.165471358378852 -22.420475007807497 -7.823662626629587 #
straight-curve $-1 -54.165471358378852 0 7.823662626629587 0 -1 0 I I #
point $-1 -54.165471358378852 22.420475007807497 7.823662626629587 #
point $-1 -54.165471358378852 -22.420475007807497 7.823662626629587 #
straight-curve $-1 54.165471358378852 -22.420475007807497 0 0 0 -1 I I #
straight-curve $-1 54.165471358378852 22.420475007807497 0 0 0 -1 I I #
plane-surface $-1 -54.165471358378852 0 0 1 0 0 0 0 -1 forward_v I I I I #
edge $-1 $330 7.1390191800578933 $334 10.465371104757359 $333 $472 forward 7 unknown #
edge $-1 $338 -10.465371104757359 $329 -7.1390191800578933 $336 $473 forward 7 unknown #
straight-curve $-1 -46.50285675084352 -19.267566247164986 0 0 0 -1 I I #
edge $-1 $426 -7.823662626629587 $424 7.823662626629587 $340 $474 forward 7 unknown #
vertex $-1 $423 $475 #
straight-curve $-1 -25.167082027305593 -15.94121432246552 -7.823662626629587 1 0 0 I I #
vertex $-1 $341 $476 #
straight-curve $-1 -25.167082027305593 -15.94121432246552 7.823662626629587 -1 0 0 I I #
point $-1 -46.50285675084352 -15.94121432246552 7.823662626629587 #
point $-1 -46.50285675084352 -15.94121432246552 -7.823662626629587 #
point $-1 -46.50285675084352 -19.267566247164986 -7.823662626629587 #
point $-1 -46.50285675084352 -19.267566247164986 7.823662626629587 #
straight-curve $-1 -54.165471358378852 0 7.823662626629587 0 -1 0 I I #
straight-curve $-1 -54.165471358378852 0 -7.823662626629587 0 1 0 I I #
coedge $-1 $435 $347 $441 $477 reversed $239 $-1 #
coedge $-1 $347 $434 $350 $439 reversed $239 $-1 #
edge $-1 $437 -29.97425805561074 $355 -18.40816854992547 $354 $478 forward 7 unknown #
vertex $-1 $349 $479 #
straight-curve $-1 54.165471358378852 1.0787412137500443 22.958666263290965 0 0.71933979245794832 -0.69465837861970381 I I #
edge $-1 $351 16.751495923020709 $443 22.420475007807497 $435 $480 forward 7 unknown #
point $-1 54.165471358378845 16.751495923020709 7.8236626266295914 #
coedge $-1 $354 $353 $434 $477 forward $345 $-1 #
point $-1 42.599381852693575 22.420475007807497 2.3491930355465804 #
vertex $-1 $439 $481 #
straight-curve $-1 0 22.420475007807497 7.823662626629587 -1 0 0 I I #
vertex $-1 $361 $482 #
point $-1 45.412599753830634 18.891327086794401 4.3670880386301345 #
vertex $-1 $365 $483 #
point $-1 48.88242660553621 18.891327086794401 4.3670880386301345 #
vertex $-1 $369 $484 #
point $-1 52.352253457241787 18.891327086794401 4.3670880386301345 #
coedge $-1 $453 $382 $376 $452 reversed $373 $-1 #
edge $-1 $460 -7.823662626629587 $384 -2.3491930355465906 $376 $485 forward 7 unknown #
coedge $-1 $377 $451 $379 $455 reversed $373 $-1 #
straight-curve $-1 42.599381852693575 -22.420475007807497 40.137975443096479 0 0 -1 I I #
edge $-1 $380 42.599381852693575 $460 54.165471358378852 $453 $486 forward 7 unknown #
point $-1 42.599381852693575 -22.420475007807497 7.823662626629587 #
straight-curve $-1 24.191213302768105 -22.420475007807497 2.3491930355465906 1 0 0 I I #
point $-1 54.165471358378845 -22.420475007807497 2.3491930355465906 #
point $-1 42.599381852693575 -22.420475007807497 2.3491930355465906 #
vertex $-1 $388 $487 #
straight-curve $-1 54.165471358378852 0 7.823662626629587 0 1 0 I I #
vertex $-1 $391 $488 #
point $-1 45.412599753830634 -18.891327086794405 4.3670880386301381 #
vertex $-1 $395 $489 #
point $-1 48.88242660553621 -18.891327086794405 4.3670880386301381 #
vertex $-1 $399 $490 #
point $-1 52.352253457241787 -18.891327086794405 4.3670880386301381 #
straight-curve $-1 -54.165471358378852 22.420475007807497 0 0 0 -1 I I #
point $-1 -54.165471358378852 -22.420475007807497 -7.823662626629587 #
straight-curve $-1 -54.165471358378852 0 -7.823662626629587 0 1 0 I I #
point $-1 -54.165471358378852 22.420475007807497 -7.823662626629587 #
straight-curve $-1 -46.50285675084352 -8.8021951424076263 -7.823662626629587 0 -1 0 I I #
straight-curve $-1 -46.50285675084352 -8.8021951424076263 7.823662626629587 0 1 0 I I #
straight-curve $-1 -54.165471358378852 -15.94121432246552 0 0 0 -1 I I #
point $-1 -54.165471358378852 -15.94121432246552 -7.823662626629587 #
point $-1 -54.165471358378852 -15.94121432246552 7.823662626629587 #
edge $-1 $443 -7.823662626629587 $437 -2.3491930355465804 $434 $491 forward 7 unknown #
straight-curve $-1 24.191213302768105 22.420475007807497 2.3491930355465822 -1 0 0 I I #
point $-1 54.165471358378845 22.420475007807497 2.3491930355465804 #
straight-curve $-1 54.165471358378852 0 7.823662626629587 0 1 0 I I #
point $-1 54.165471358378852 22.420475007807497 7.823662626629587 #
point $-1 44.912599753830634 18.543997897484548 4.0074181424011606 #
point $-1 48.38242660553621 18.543997897484548 4.0074181424011606 #
point $-1 51.852253457241787 18.543997897484548 4.0074181424011606 #
straight-curve $-1 54.165471358378852 -22.420475007807497 0 0 0 -1 I I #
straight-curve $-1 0 -22.420475007807497 7.823662626629587 1 0 0 I I #
point $-1 54.165471358378852 -22.420475007807497 7.823662626629587 #
point $-1 44.912599753830634 -18.543997897484552 4.0074181424011641 #
point $-1 48.38242660553621 -18.543997897484552 4.0074181424011641 #
point $-1 51.852253457241787 -18.543997897484552 4.0074181424011641 #
straight-curve $-1 54.165471358378852 22.420475007807497 0 0 0 -1 I I #
End-of-ACIS-data 