500 0 5 0           
7 Unknown 11 ACIS 5.0 NT 24 Thu Mar 25 18:17:31 1999 
-1 9.9999999999999995e-007 1e-010 
body $-1 $5 $-1 $6 #
body $-1 $7 $-1 $8 #
body $-1 $9 $-1 $10 #
body $-1 $11 $-1 $12 #
body $-1 $13 $-1 $14 #
lump $-1 $-1 $15 $0 #
transform $-1 1 0 0 0 1 0 0 0 1 67.709585863826405 31.995450137019834 12.234961705888807 1 rotate no_reflect no_shear #
lump $-1 $-1 $16 $1 #
transform $-1 1 0 0 0 1 0 0 0 1 67.709585863826405 31.995450137019834 12.234961705888807 1 rotate no_reflect no_shear #
lump $-1 $-1 $17 $2 #
transform $-1 1 0 0 0 1 0 0 0 1 67.709585863826405 31.995450137019834 12.234961705888807 1 rotate no_reflect no_shear #
lump $-1 $-1 $18 $3 #
transform $-1 1 0 0 0 1 0 0 0 1 67.709585863826405 31.995450137019834 12.234961705888807 1 rotate no_reflect no_shear #
lump $-1 $-1 $19 $4 #
transform $-1 1 0 0 0 1 0 0 0 1 67.709585863826405 31.995450137019834 12.234961705888807 1 rotate no_reflect no_shear #
shell $-1 $-1 $-1 $20 $-1 $5 #
shell $-1 $-1 $-1 $21 $-1 $7 #
shell $-1 $-1 $-1 $22 $-1 $9 #
shell $-1 $-1 $-1 $23 $-1 $11 #
shell $-1 $-1 $-1 $24 $-1 $13 #
face $-1 $25 $26 $15 $-1 $27 forward single #
face $-1 $28 $29 $16 $-1 $30 forward single #
face $-1 $31 $32 $17 $-1 $33 forward single #
face $-1 $34 $35 $18 $-1 $36 reversed single #
face $-1 $37 $38 $19 $-1 $39 forward single #
face $-1 $40 $41 $15 $-1 $42 reversed single #
loop $-1 $-1 $43 $20 #
plane-surface $-1 0 0 12.234961705888807 0 0 1 1 0 0 forward_v I I I I #
face $-1 $44 $45 $16 $-1 $46 reversed single #
loop $-1 $-1 $47 $21 #
plane-surface $-1 0 -27.47883488268813 9.7836870654524368 0 0 1 1 0 0 forward_v I I I I #
face $-1 $48 $49 $17 $-1 $50 reversed single #
loop $-1 $-1 $51 $22 #
plane-surface $-1 0 24.338459589497628 -6.4192195703896608 0 0 1 1 0 0 forward_v I I I I #
face $-1 $52 $53 $18 $-1 $54 reversed single #
loop $-1 $-1 $55 $23 #
plane-surface $-1 -19.336178499372366 -18.005734135022845 106.6727220820234 0.7660444514056185 0 0.64278759981090561 0.64278759981090561 0 -0.7660444514056185 forward_v I I I I #
face $-1 $56 $57 $19 $-1 $58 forward single #
loop $-1 $59 $60 $24 #
cone-surface $-1 61.155144974749781 -18.005734135022845 5.3592397838238259 -0.7660444514056185 0 -0.64278759981090561 1.2855751996218112 0 -1.532088902811237 1 I I 0 1 2 forward I I I I #
face $-1 $61 $62 $15 $-1 $63 reversed single #
loop $-1 $-1 $64 $25 #
plane-surface $-1 0 0 -12.234961705888807 0 0 1 1 0 0 forward_v I I I I #
coedge $-1 $65 $66 $67 $68 forward $26 $-1 #
face $-1 $69 $70 $16 $-1 $71 reversed single #
loop $-1 $-1 $72 $28 #
plane-surface $-1 0 -27.47883488268813 6.1763392752796484 0 0 1 1 0 0 forward_v I I I I #
coedge $-1 $73 $74 $75 $76 reversed $29 $-1 #
face $-1 $77 $78 $17 $-1 $79 reversed single #
loop $-1 $-1 $80 $31 #
plane-surface $-1 0 16.681469041975426 -9.327090638139234 0 1 0 0 0 1 forward_v I I I I #
coedge $-1 $81 $82 $83 $84 reversed $32 $-1 #
face $-1 $85 $86 $18 $-1 $87 forward single #
loop $-1 $-1 $88 $34 #
plane-surface $-1 84.400926616540673 -13.04924864168926 193.7184864452222 0 -1 0 -0.7660444514056185 0 -0.64278759981090561 forward_v I I I I #
coedge $-1 $89 $90 $91 $92 reversed $35 $-1 #
face $-1 $-1 $93 $19 $-1 $94 forward single #
loop $-1 $95 $96 $37 #
cone-surface $-1 57.736197902789826 -18.005734135022845 2.4904026318371848 -0.7660444514056185 0 -0.64278759981090561 0.64278759981090561 0 -0.7660444514056185 1 I I -0.70710678118654746 0.70710678118654746 1 forward I I I I #
loop $-1 $-1 $97 $24 #
coedge $-1 $60 $60 $98 $99 reversed $38 $-1 #
face $-1 $100 $101 $15 $-1 $102 reversed single #
loop $-1 $-1 $103 $40 #
plane-surface $-1 0 -31.995450137019834 0 0 1 0 0 0 1 forward_v I I I I #
coedge $-1 $104 $105 $106 $107 forward $41 $-1 #
coedge $-1 $108 $43 $109 $110 forward $26 $-1 #
coedge $-1 $43 $108 $111 $112 forward $26 $-1 #
coedge $-1 $113 $114 $43 $68 reversed $115 $-1 #
edge $-1 $116 -31.995450137019834 $117 31.995450137019834 $67 $118 forward 7 unknown #
face $-1 $119 $120 $16 $-1 $121 reversed single #
loop $-1 $-1 $122 $44 #
plane-surface $-1 0 -22.962219628356426 7.9800131703660426 0 -1 0 0 0 -1 forward_v I I I I #
coedge $-1 $123 $124 $125 $126 reversed $45 $-1 #
coedge $-1 $127 $47 $128 $129 forward $29 $-1 #
coedge $-1 $47 $127 $130 $131 reversed $29 $-1 #
coedge $-1 $132 $133 $47 $76 forward $134 $-1 #
edge $-1 $135 9.2228021870123609 $136 18.256032695675771 $75 $137 forward 7 unknown #
face $-1 $138 $139 $17 $-1 $140 reversed single #
loop $-1 $-1 $83 $48 #
plane-surface $-1 67.709585863826405 0 0 -1 0 0 0 0 1 forward_v I I I I #
coedge $-1 $141 $142 $143 $144 reversed $49 $-1 #
coedge $-1 $145 $51 $146 $147 reversed $32 $-1 #
coedge $-1 $51 $145 $142 $148 forward $32 $-1 #
coedge $-1 $149 $150 $51 $84 forward $78 $-1 #
edge $-1 $151 -19.826220342271014 $152 -4.5122392472266117 $83 $153 forward 7 unknown #
face $-1 $154 $155 $18 $-1 $156 reversed single #
loop $-1 $-1 $157 $52 #
plane-surface $-1 0 -22.962219628356426 7.9800131703660426 0 -1 0 0 0 -1 forward_v I I I I #
coedge $-1 $158 $159 $160 $161 reversed $53 $-1 #
coedge $-1 $162 $55 $157 $163 forward $35 $-1 #
coedge $-1 $55 $162 $158 $164 forward $35 $-1 #
coedge $-1 $160 $165 $55 $92 forward $155 $-1 #
edge $-1 $166 -13.959352560845007 $167 -4.0463815741778379 $91 $168 forward 7 unknown #
loop $-1 $-1 $98 $56 #
plane-surface $-1 -19.336178499372366 -18.005734135022845 106.6727220820234 0.7660444514056185 0 0.64278759981090561 0.64278759981090561 0 -0.7660444514056185 forward_v I I I I #
loop $-1 $-1 $169 $37 #
coedge $-1 $96 $96 $97 $170 reversed $57 $-1 #
coedge $-1 $97 $97 $96 $170 forward $59 $-1 #
coedge $-1 $98 $98 $60 $99 forward $93 $-1 #
edge $-1 $171 0 $171 6.2831853071796004 $98 $172 forward 7 unknown #
face $-1 $173 $174 $15 $-1 $175 reversed single #
loop $-1 $-1 $176 $61 #
plane-surface $-1 -67.709585863826405 0 0 1 0 0 0 0 -1 forward_v I I I I #
coedge $-1 $177 $111 $178 $179 forward $62 $-1 #
coedge $-1 $180 $64 $177 $181 forward $41 $-1 #
coedge $-1 $64 $180 $182 $183 forward $41 $-1 #
coedge $-1 $114 $113 $64 $107 reversed $115 $-1 #
edge $-1 $184 -31.995450137019834 $185 31.995450137019834 $106 $186 forward 7 unknown #
coedge $-1 $66 $65 $187 $188 forward $26 $-1 #
coedge $-1 $189 $190 $65 $110 reversed $174 $-1 #
edge $-1 $117 -67.709585863826405 $191 67.709585863826405 $109 $192 forward 7 unknown #
coedge $-1 $103 $193 $66 $112 reversed $62 $-1 #
edge $-1 $194 -67.709585863826405 $116 67.709585863826405 $111 $195 forward 7 unknown #
coedge $-1 $106 $67 $193 $196 forward $115 $-1 #
coedge $-1 $67 $106 $189 $197 reversed $115 $-1 #
loop $-1 $-1 $113 $173 #
vertex $-1 $68 $198 #
vertex $-1 $68 $199 #
straight-curve $-1 67.709585863826405 0 12.234961705888807 0 1 0 I I #
face $-1 $200 $201 $16 $-1 $202 reversed single #
loop $-1 $-1 $203 $69 #
plane-surface $-1 -67.709585863826405 0 0 1 0 0 0 0 -1 forward_v I I I I #
coedge $-1 $204 $205 $124 $206 reversed $70 $-1 #
coedge $-1 $207 $72 $208 $209 reversed $45 $-1 #
coedge $-1 $72 $207 $122 $206 forward $45 $-1 #
coedge $-1 $133 $132 $72 $126 forward $134 $-1 #
edge $-1 $210 -18.256032695675771 $211 -9.2228021870123609 $125 $212 forward 7 unknown #
coedge $-1 $74 $73 $203 $213 reversed $29 $-1 #
coedge $-1 $205 $204 $73 $129 reversed $70 $-1 #
edge $-1 $135 -67.709585863826405 $214 67.709585863826405 $128 $215 forward 7 unknown #
coedge $-1 $216 $217 $74 $131 forward $201 $-1 #
edge $-1 $136 -67.709585863826405 $218 67.709585863826405 $130 $219 forward 7 unknown #
coedge $-1 $125 $75 $217 $220 forward $134 $-1 #
coedge $-1 $75 $125 $205 $221 forward $134 $-1 #
loop $-1 $-1 $75 $200 #
vertex $-1 $76 $222 #
vertex $-1 $220 $223 #
straight-curve $-1 67.709585863826405 -13.739417441344065 9.7836870654524368 0 -1 0 I I #
face $-1 $224 $225 $17 $-1 $226 reversed single #
loop $-1 $-1 $227 $77 #
plane-surface $-1 0 0 -12.234961705888807 0 0 1 1 0 0 forward_v I I I I #
coedge $-1 $228 $80 $227 $229 reversed $49 $-1 #
coedge $-1 $80 $228 $82 $148 reversed $49 $-1 #
coedge $-1 $230 $231 $80 $144 forward $225 $-1 #
edge $-1 $232 -7.5714163868191902 $233 -1.7556742513200438 $143 $234 forward 7 unknown #
coedge $-1 $82 $81 $230 $235 reversed $32 $-1 #
coedge $-1 $236 $237 $81 $147 forward $238 $-1 #
edge $-1 $239 -67.709585863826405 $151 67.709585863826405 $146 $240 forward 7 unknown #
edge $-1 $233 -67.709585863826405 $152 67.709585863826405 $142 $241 forward 7 unknown #
coedge $-1 $242 $83 $228 $243 forward $78 $-1 #
coedge $-1 $83 $242 $236 $244 reversed $78 $-1 #
vertex $-1 $244 $245 #
vertex $-1 $84 $246 #
straight-curve $-1 67.709585863826405 12.169229794748814 -6.4192195703896608 0 -1 0 I I #
face $-1 $-1 $247 $18 $-1 $248 forward single #
loop $-1 $-1 $165 $85 #
plane-surface $-1 67.709585863826405 0 0 -1 0 0 0 0 1 forward_v I I I I #
coedge $-1 $249 $250 $89 $163 reversed $86 $-1 #
coedge $-1 $159 $88 $90 $164 reversed $53 $-1 #
coedge $-1 $88 $158 $251 $252 reversed $53 $-1 #
coedge $-1 $253 $91 $88 $161 forward $155 $-1 #
edge $-1 $167 -93.923626256500711 $254 -84.624281516722291 $160 $255 forward 7 unknown #
coedge $-1 $90 $89 $256 $257 reversed $35 $-1 #
edge $-1 $166 -135.41917172765281 $258 -123.27973944964985 $157 $259 forward 7 unknown #
edge $-1 $260 123.27973944964985 $167 135.41917172765281 $158 $261 forward 7 unknown #
coedge $-1 $91 $253 $249 $262 forward $155 $-1 #
vertex $-1 $92 $263 #
vertex $-1 $92 $264 #
straight-curve $-1 67.709585863826405 -9.0028670675114224 2.9356169661103877 0 1 0 I I #
coedge $-1 $169 $169 $-1 $265 reversed $95 $-1 #
edge $-1 $266 0 $266 6.2831853071796004 $96 $267 forward 7 unknown #
vertex $-1 $99 $268 #
ellipse-curve $-1 63.808047595304153 -18.005734135022845 7.5852893359995894 0.7660444514056185 0 0.64278759981090561 1.2855751996218112 0 -1.532088902811237 1 I I #
face $-1 $-1 $115 $15 $-1 $269 reversed single #
loop $-1 $-1 $189 $100 #
plane-surface $-1 0 31.995450137019834 0 0 -1 0 0 0 -1 forward_v I I I I #
coedge $-1 $270 $187 $190 $271 forward $101 $-1 #
coedge $-1 $193 $103 $104 $181 reversed $62 $-1 #
coedge $-1 $187 $270 $103 $179 reversed $101 $-1 #
edge $-1 $194 -12.234961705888807 $272 12.234961705888807 $178 $273 forward 7 unknown #
coedge $-1 $105 $104 $270 $274 forward $41 $-1 #
edge $-1 $185 -67.709585863826405 $272 67.709585863826405 $177 $275 forward 7 unknown #
coedge $-1 $190 $189 $105 $183 reversed $174 $-1 #
edge $-1 $276 -67.709585863826405 $184 67.709585863826405 $182 $277 forward 7 unknown #
vertex $-1 $107 $278 #
vertex $-1 $196 $279 #
straight-curve $-1 67.709585863826405 0 -12.234961705888807 0 -1 0 I I #
coedge $-1 $176 $178 $108 $188 reversed $101 $-1 #
edge $-1 $191 -31.995450137019834 $194 31.995450137019834 $187 $280 forward 7 unknown #
coedge $-1 $182 $109 $114 $197 forward $174 $-1 #
coedge $-1 $109 $182 $176 $271 reversed $174 $-1 #
vertex $-1 $110 $281 #
straight-curve $-1 0 31.995450137019834 12.234961705888807 -1 0 0 I I #
coedge $-1 $111 $177 $113 $196 reversed $62 $-1 #
vertex $-1 $188 $282 #
straight-curve $-1 0 -31.995450137019834 12.234961705888807 1 0 0 I I #
edge $-1 $116 -12.234961705888807 $185 12.234961705888807 $113 $283 forward 7 unknown #
edge $-1 $117 -12.234961705888807 $184 12.234961705888807 $114 $284 forward 7 unknown #
point $-1 67.709585863826405 -31.995450137019834 12.234961705888807 #
point $-1 67.709585863826405 31.995450137019834 12.234961705888807 #
face $-1 $-1 $134 $16 $-1 $285 reversed single #
loop $-1 $-1 $130 $119 #
plane-surface $-1 0 -31.995450137019834 0 0 1 0 0 0 1 forward_v I I I I #
coedge $-1 $286 $287 $127 $213 forward $120 $-1 #
coedge $-1 $128 $122 $286 $288 reversed $70 $-1 #
coedge $-1 $122 $128 $133 $221 reversed $70 $-1 #
edge $-1 $289 -67.709585863826405 $211 67.709585863826405 $122 $290 forward 7 unknown #
coedge $-1 $124 $123 $291 $292 reversed $45 $-1 #
coedge $-1 $217 $216 $123 $209 forward $201 $-1 #
edge $-1 $293 -67.709585863826405 $210 67.709585863826405 $208 $294 forward 7 unknown #
vertex $-1 $209 $295 #
vertex $-1 $126 $296 #
straight-curve $-1 67.709585863826405 -13.739417441344065 6.1763392752796484 0 1 0 I I #
edge $-1 $218 -18.256032695675771 $214 -9.2228021870123609 $203 $297 forward 7 unknown #
vertex $-1 $213 $298 #
straight-curve $-1 0 -22.962219628356426 9.7836870654524368 -1 0 0 I I #
coedge $-1 $208 $130 $287 $299 forward $201 $-1 #
coedge $-1 $130 $208 $132 $220 reversed $201 $-1 #
vertex $-1 $299 $300 #
straight-curve $-1 0 -31.995450137019834 9.7836870654524368 -1 0 0 I I #
edge $-1 $136 -9.7836870654524368 $210 -6.1763392752796484 $132 $301 forward 7 unknown #
edge $-1 $211 2.1863326900966271 $135 5.7936804802694155 $133 $302 forward 7 unknown #
point $-1 67.709585863826405 -22.962219628356426 9.7836870654524368 #
point $-1 67.709585863826405 -31.995450137019834 9.7836870654524368 #
face $-1 $-1 $238 $17 $-1 $303 reversed single #
loop $-1 $-1 $230 $138 #
plane-surface $-1 -67.709585863826405 0 0 1 0 0 0 0 -1 forward_v I I I I #
coedge $-1 $304 $305 $141 $229 forward $139 $-1 #
coedge $-1 $142 $141 $149 $243 reversed $49 $-1 #
edge $-1 $306 -67.709585863826405 $232 67.709585863826405 $227 $307 forward 7 unknown #
coedge $-1 $308 $143 $145 $235 forward $225 $-1 #
coedge $-1 $143 $308 $304 $309 reversed $225 $-1 #
vertex $-1 $309 $310 #
vertex $-1 $235 $311 #
straight-curve $-1 -67.709585863826405 16.681469041975426 -4.663545319069617 0 0 1 I I #
edge $-1 $233 4.5122392472266117 $239 19.826220342271014 $230 $312 forward 7 unknown #
coedge $-1 $313 $146 $150 $244 forward $238 $-1 #
coedge $-1 $146 $313 $308 $314 reversed $238 $-1 #
loop $-1 $-1 $146 $224 #
vertex $-1 $314 $315 #
straight-curve $-1 0 31.995450137019834 -6.4192195703896608 1 0 0 I I #
straight-curve $-1 0 16.681469041975426 -6.4192195703896608 1 0 0 I I #
coedge $-1 $150 $149 $305 $316 reversed $78 $-1 #
edge $-1 $152 1.7556742513200438 $306 7.5714163868191902 $149 $317 forward 7 unknown #
edge $-1 $151 6.4192195703896608 $318 12.234961705888807 $150 $319 forward 7 unknown #
point $-1 67.709585863826405 31.99545013701983 -6.4192195703896608 #
point $-1 67.709585863826405 16.681469041975426 -6.4192195703896608 #
loop $-1 $-1 $320 $154 #
plane-surface $-1 0 0 12.234961705888807 0 0 1 1 0 0 forward_v I I I I #
coedge $-1 $250 $157 $165 $262 reversed $86 $-1 #
coedge $-1 $157 $249 $320 $321 reversed $86 $-1 #
coedge $-1 $256 $322 $159 $252 forward $247 $-1 #
edge $-1 $254 -25.509122555556068 $260 -17.706046018511522 $251 $323 forward 7 unknown #
coedge $-1 $165 $160 $322 $324 reversed $155 $-1 #
vertex $-1 $252 $325 #
straight-curve $-1 67.709585863826405 -13.04924864168926 96.859243222611099 0 0 1 I I #
coedge $-1 $320 $251 $162 $257 forward $247 $-1 #
edge $-1 $260 4.0463815741778379 $258 13.959352560845007 $256 $326 forward 7 unknown #
vertex $-1 $321 $327 #
straight-curve $-1 -19.336178499372366 -22.962219628356429 106.6727220820234 -0.64278759981090561 0 0.7660444514056185 I I #
vertex $-1 $257 $328 #
straight-curve $-1 -19.336178499372366 -13.04924864168926 106.6727220820234 0.64278759981090561 0 -0.7660444514056185 I I #
edge $-1 $329 84.624281516722291 $166 93.923626256500711 $165 $330 forward 7 unknown #
point $-1 67.709585863826405 -22.962219628356429 2.9356169661103877 #
point $-1 67.709585863826405 -13.04924864168926 2.9356169661103877 #
edge $-1 $331 1 $331 0 $169 $-1 forward 7 unknown #
vertex $-1 $170 $332 #
ellipse-curve $-1 58.502242354195445 -18.005734135022845 3.1331902316480904 0.7660444514056185 0 0.64278759981090561 1.2855751996218112 0 -1.532088902811237 1 I I #
point $-1 65.093622794925935 -18.005734135022845 6.0532004331883238 #
plane-surface $-1 67.709585863826405 0 0 -1 0 0 0 0 1 forward_v I I I I #
coedge $-1 $178 $176 $180 $274 reversed $101 $-1 #
edge $-1 $191 -12.234961705888807 $276 12.234961705888807 $190 $333 forward 7 unknown #
vertex $-1 $274 $334 #
straight-curve $-1 -67.709585863826405 -31.995450137019834 0 0 0 -1 I I #
edge $-1 $272 -31.995450137019834 $276 31.995450137019834 $270 $335 forward 7 unknown #
straight-curve $-1 0 -31.995450137019834 -12.234961705888807 -1 0 0 I I #
vertex $-1 $183 $336 #
straight-curve $-1 0 31.995450137019834 -12.234961705888807 1 0 0 I I #
point $-1 67.709585863826405 31.995450137019834 -12.234961705888807 #
point $-1 67.709585863826405 -31.995450137019834 -12.234961705888807 #
straight-curve $-1 -67.709585863826405 0 12.234961705888807 0 -1 0 I I #
point $-1 -67.709585863826405 31.995450137019834 12.234961705888807 #
point $-1 -67.709585863826405 -31.995450137019834 12.234961705888807 #
straight-curve $-1 67.709585863826405 -31.995450137019834 0 0 0 -1 I I #
straight-curve $-1 67.709585863826405 31.995450137019834 0 0 0 -1 I I #
plane-surface $-1 67.709585863826405 0 0 -1 0 0 0 0 1 forward_v I I I I #
coedge $-1 $291 $203 $204 $288 forward $120 $-1 #
coedge $-1 $203 $291 $216 $299 reversed $120 $-1 #
edge $-1 $214 -5.7936804802694155 $289 -2.1863326900966271 $286 $337 forward 7 unknown #
vertex $-1 $292 $338 #
straight-curve $-1 0 -22.962219628356426 6.1763392752796484 1 0 0 I I #
coedge $-1 $287 $286 $207 $292 forward $120 $-1 #
edge $-1 $289 9.2228021870123609 $293 18.256032695675771 $291 $339 forward 7 unknown #
vertex $-1 $209 $340 #
straight-curve $-1 0 -31.995450137019834 6.1763392752796484 1 0 0 I I #
point $-1 67.709585863826405 -31.995450137019834 6.1763392752796484 #
point $-1 67.709585863826405 -22.962219628356426 6.1763392752796484 #
straight-curve $-1 -67.709585863826405 -13.739417441344065 9.7836870654524368 0 1 0 I I #
point $-1 -67.709585863826405 -22.962219628356426 9.7836870654524368 #
edge $-1 $218 -9.7836870654524368 $293 -6.1763392752796484 $287 $341 forward 7 unknown #
point $-1 -67.709585863826405 -31.995450137019834 9.7836870654524368 #
straight-curve $-1 67.709585863826405 -31.995450137019834 0 0 0 -1 I I #
straight-curve $-1 67.709585863826405 -22.962219628356426 3.9900065851830213 0 0 1 I I #
plane-surface $-1 0 31.995450137019834 0 0 -1 0 0 0 -1 forward_v I I I I #
coedge $-1 $342 $227 $231 $309 forward $139 $-1 #
coedge $-1 $227 $342 $242 $316 forward $139 $-1 #
vertex $-1 $229 $343 #
straight-curve $-1 0 16.681469041975426 -12.234961705888807 -1 0 0 I I #
coedge $-1 $231 $230 $237 $314 forward $225 $-1 #
edge $-1 $232 16.681469041975426 $344 31.995450137019834 $231 $345 forward 7 unknown #
point $-1 -67.709585863826405 16.681469041975426 -12.234961705888807 #
point $-1 -67.709585863826405 16.681469041975426 -6.4192195703896608 #
straight-curve $-1 -67.709585863826405 12.169229794748814 -6.4192195703896608 0 1 0 I I #
coedge $-1 $237 $236 $342 $346 reversed $238 $-1 #
edge $-1 $239 6.4192195703896608 $344 12.234961705888807 $237 $347 forward 7 unknown #
point $-1 -67.709585863826405 31.99545013701983 -6.4192195703896608 #
edge $-1 $318 -31.995450137019834 $306 -16.681469041975426 $242 $348 forward 7 unknown #
straight-curve $-1 67.709585863826405 16.681469041975426 -4.663545319069617 0 0 -1 I I #
vertex $-1 $316 $349 #
straight-curve $-1 67.709585863826405 31.995450137019834 0 0 0 -1 I I #
coedge $-1 $322 $256 $250 $321 forward $247 $-1 #
edge $-1 $258 17.706046018511522 $329 25.509122555556068 $320 $350 forward 7 unknown #
coedge $-1 $251 $320 $253 $324 forward $247 $-1 #
straight-curve $-1 42.200463308270336 -13.04924864168926 12.234961705888807 -1 0 0 I I #
edge $-1 $329 -22.962219628356429 $254 -13.04924864168926 $253 $351 forward 7 unknown #
point $-1 67.709585863826405 -13.04924864168926 12.234961705888807 #
straight-curve $-1 59.906509326781865 -9.0028670675114224 12.234961705888807 0 -1 0 I I #
point $-1 59.906509326781858 -22.962219628356429 12.234961705888807 #
point $-1 59.906509326781858 -13.04924864168926 12.234961705888807 #
vertex $-1 $324 $352 #
straight-curve $-1 67.709585863826405 -22.962219628356429 96.859243222611099 0 0 -1 I I #
vertex $-1 $265 $353 #
point $-1 59.787817553817256 -18.005734135022845 1.6011013288368534 #
straight-curve $-1 -67.709585863826405 31.995450137019834 0 0 0 -1 I I #
point $-1 -67.709585863826405 -31.995450137019834 -12.234961705888807 #
straight-curve $-1 -67.709585863826405 0 -12.234961705888807 0 1 0 I I #
point $-1 -67.709585863826405 31.995450137019834 -12.234961705888807 #
straight-curve $-1 -67.709585863826405 -22.962219628356426 3.9900065851830213 0 0 -1 I I #
point $-1 -67.709585863826405 -22.962219628356426 6.1763392752796484 #
straight-curve $-1 -67.709585863826405 -13.739417441344065 6.1763392752796484 0 -1 0 I I #
point $-1 -67.709585863826405 -31.995450137019834 6.1763392752796484 #
straight-curve $-1 -67.709585863826405 -31.995450137019834 0 0 0 -1 I I #
coedge $-1 $305 $304 $313 $346 forward $139 $-1 #
point $-1 67.709585863826405 16.681469041975426 -12.234961705888807 #
vertex $-1 $346 $354 #
straight-curve $-1 -67.709585863826405 0 -12.234961705888807 0 1 0 I I #
edge $-1 $344 -67.709585863826405 $318 67.709585863826405 $313 $355 forward 7 unknown #
straight-curve $-1 -67.709585863826405 31.995450137019834 0 0 0 -1 I I #
straight-curve $-1 67.709585863826405 0 -12.234961705888807 0 -1 0 I I #
point $-1 67.709585863826405 31.995450137019834 -12.234961705888807 #
straight-curve $-1 42.200463308270336 -22.962219628356429 12.234961705888807 1 0 0 I I #
straight-curve $-1 67.709585863826405 0 12.234961705888807 0 1 0 I I #
point $-1 67.709585863826405 -22.962219628356429 12.234961705888807 #
point $-1 56.970153451384206 -18.005734135022845 1.8476150320262792 #
point $-1 -67.709585863826405 31.995450137019834 -12.234961705888807 #
straight-curve $-1 0 31.995450137019834 -12.234961705888807 1 0 0 I I #
End-of-ACIS-data 