500 0 14 0           
7 Unknown 11 ACIS 5.0 NT 24 Fri Mar 26 01:05:34 1999 
-1 9.9999999999999995e-007 1e-010 
body $-1 $14 $-1 $15 #
body $-1 $16 $-1 $17 #
body $-1 $18 $-1 $19 #
body $-1 $20 $-1 $21 #
body $-1 $22 $-1 $23 #
body $-1 $24 $-1 $25 #
body $-1 $26 $-1 $27 #
body $-1 $28 $-1 $29 #
body $-1 $30 $-1 $31 #
body $-1 $32 $-1 $33 #
body $-1 $34 $-1 $35 #
body $-1 $36 $-1 $37 #
body $-1 $38 $-1 $39 #
body $-1 $40 $-1 $41 #
lump $-1 $-1 $42 $0 #
transform $-1 1 0 0 0 1 0 0 0 1 69.313638721884828 48.2358788124453 12.538502083956507 1 rotate no_reflect no_shear #
lump $-1 $-1 $43 $1 #
transform $-1 1 0 0 0 1 0 0 0 1 69.313638721884828 48.2358788124453 12.538502083956507 1 rotate no_reflect no_shear #
lump $-1 $-1 $44 $2 #
transform $-1 1 0 0 0 1 0 0 0 1 69.313638721884828 48.2358788124453 12.538502083956507 1 rotate no_reflect no_shear #
lump $-1 $-1 $45 $3 #
transform $-1 1 0 0 0 1 0 0 0 1 69.313638721884828 48.2358788124453 12.538502083956507 1 rotate no_reflect no_shear #
lump $-1 $-1 $46 $4 #
transform $-1 1 0 0 0 1 0 0 0 1 69.313638721884828 48.2358788124453 12.538502083956507 1 rotate no_reflect no_shear #
lump $-1 $-1 $47 $5 #
transform $-1 1 0 0 0 1 0 0 0 1 69.313638721884828 48.2358788124453 12.538502083956507 1 rotate no_reflect no_shear #
lump $-1 $-1 $48 $6 #
transform $-1 1 0 0 0 1 0 0 0 1 69.313638721884828 48.2358788124453 12.538502083956507 1 rotate no_reflect no_shear #
lump $-1 $-1 $49 $7 #
transform $-1 1 0 0 0 1 0 0 0 1 69.313638721884828 48.2358788124453 12.538502083956507 1 rotate no_reflect no_shear #
lump $-1 $-1 $50 $8 #
transform $-1 1 0 0 0 1 0 0 0 1 69.313638721884828 48.2358788124453 12.538502083956507 1 rotate no_reflect no_shear #
lump $-1 $-1 $51 $9 #
transform $-1 1 0 0 0 1 0 0 0 1 69.313638721884828 48.2358788124453 12.538502083956507 1 rotate no_reflect no_shear #
lump $-1 $-1 $52 $10 #
transform $-1 1 0 0 0 1 0 0 0 1 69.313638721884828 48.2358788124453 12.538502083956507 1 rotate no_reflect no_shear #
lump $-1 $-1 $53 $11 #
transform $-1 1 0 0 0 1 0 0 0 1 69.313638721884828 48.2358788124453 12.538502083956507 1 rotate no_reflect no_shear #
lump $-1 $-1 $54 $12 #
transform $-1 1 0 0 0 1 0 0 0 1 69.313638721884828 48.2358788124453 12.538502083956507 1 rotate no_reflect no_shear #
lump $-1 $-1 $55 $13 #
transform $-1 1 0 0 0 1 0 0 0 1 69.313638721884828 48.2358788124453 12.538502083956507 1 rotate no_reflect no_shear #
shell $-1 $-1 $-1 $56 $-1 $14 #
shell $-1 $-1 $-1 $57 $-1 $16 #
shell $-1 $-1 $-1 $58 $-1 $18 #
shell $-1 $-1 $-1 $59 $-1 $20 #
shell $-1 $-1 $-1 $60 $-1 $22 #
shell $-1 $-1 $-1 $61 $-1 $24 #
shell $-1 $-1 $-1 $62 $-1 $26 #
shell $-1 $-1 $-1 $63 $-1 $28 #
shell $-1 $-1 $-1 $64 $-1 $30 #
shell $-1 $-1 $-1 $65 $-1 $32 #
shell $-1 $-1 $-1 $66 $-1 $34 #
shell $-1 $-1 $-1 $67 $-1 $36 #
shell $-1 $-1 $-1 $68 $-1 $38 #
shell $-1 $-1 $-1 $69 $-1 $40 #
face $-1 $70 $71 $42 $-1 $72 forward single #
face $-1 $73 $74 $43 $-1 $75 reversed single #
face $-1 $76 $77 $44 $-1 $78 reversed single #
face $-1 $79 $80 $45 $-1 $81 forward single #
face $-1 $82 $83 $46 $-1 $84 forward single #
face $-1 $85 $86 $47 $-1 $87 reversed single #
face $-1 $88 $89 $48 $-1 $90 forward single #
face $-1 $91 $92 $49 $-1 $93 forward single #
face $-1 $94 $95 $50 $-1 $96 reversed single #
face $-1 $97 $98 $51 $-1 $99 forward single #
face $-1 $100 $101 $52 $-1 $102 forward single #
face $-1 $103 $104 $53 $-1 $105 reversed single #
face $-1 $106 $107 $54 $-1 $108 forward single #
face $-1 $109 $110 $55 $-1 $111 forward single #
face $-1 $112 $113 $42 $-1 $114 reversed single #
loop $-1 $-1 $115 $56 #
plane-surface $-1 0 0 12.538502083956507 0 0 1 1 0 0 forward_v I I I I #
face $-1 $116 $117 $43 $-1 $118 reversed single #
loop $-1 $-1 $119 $57 #
plane-surface $-1 -50.820237824166576 -40.954390636226215 0 1 0 0 0 0 -1 forward_v I I I I #
face $-1 $120 $121 $44 $-1 $122 reversed single #
loop $-1 $-1 $123 $58 #
plane-surface $-1 103.35711939482873 -21.670930002247008 202.4008130722232 0 -1 0 -0.81915205242281985 0 -0.57357642473473569 forward_v I I I I #
face $-1 $124 $125 $45 $-1 $126 forward single #
loop $-1 $127 $128 $59 #
cone-surface $-1 67.554777584686377 -30.243767472075664 10.489399606530247 -0.81915205242281985 0 -0.57357642473473569 0.28678821236736785 0 -0.40957602621140993 1 I I 0 1 0.5 forward I I I I #
face $-1 $129 $130 $46 $-1 $131 forward single #
loop $-1 $132 $133 $60 #
cone-surface $-1 67.554777584686377 -25.10006499017847 10.489399606530247 -0.81915205242281985 0 -0.57357642473473569 0.28678821236736785 0 -0.40957602621140993 1 I I 0 1 0.5 forward I I I I #
face $-1 $134 $135 $47 $-1 $136 reversed single #
loop $-1 $-1 $137 $61 #
plane-surface $-1 103.35711939482873 36.233906354685189 202.4008130722232 0 1 0 0.81915205242281985 0 0.57357642473473569 forward_v I I I I #
face $-1 $138 $139 $48 $-1 $140 forward single #
loop $-1 $141 $142 $62 #
cone-surface $-1 67.554777584686377 39.663041342616644 10.489399606530247 -0.81915205242281985 0 -0.57357642473473569 0.28678821236736785 0 -0.40957602621140993 1 I I 0 1 0.5 forward I I I I #
face $-1 $143 $144 $49 $-1 $145 forward single #
loop $-1 $146 $147 $63 #
cone-surface $-1 67.554777584686377 44.806743824513838 10.489399606530247 -0.81915205242281985 0 -0.57357642473473569 0.28678821236736785 0 -0.40957602621140993 1 I I 0 1 0.5 forward I I I I #
face $-1 $148 $149 $50 $-1 $150 reversed single #
loop $-1 $-1 $151 $64 #
plane-surface $-1 -182.87045756173637 -33.67290246000713 88.843994232371628 0 1 0 -0.81915205242281985 0 0.57357642473473569 forward_v I I I I #
face $-1 $152 $153 $51 $-1 $154 forward single #
loop $-1 $155 $156 $65 #
cone-surface $-1 -67.554777584686406 -30.243767472075664 10.489399606530247 0.81915205242281985 0 -0.57357642473473569 0.28678821236736785 0 0.40957602621140993 1 I I 0 1 0.5 forward I I I I #
face $-1 $157 $158 $52 $-1 $159 forward single #
loop $-1 $160 $161 $66 #
cone-surface $-1 -67.554777584686406 -25.10006499017847 10.489399606530247 0.81915205242281985 0 -0.57357642473473569 0.28678821236736785 0 0.40957602621140993 1 I I 0 1 0.5 forward I I I I #
face $-1 $162 $163 $53 $-1 $164 reversed single #
loop $-1 $-1 $165 $67 #
plane-surface $-1 -182.87045756173637 36.233906354685189 88.843994232371628 0 1 0 -0.81915205242281985 0 0.57357642473473569 forward_v I I I I #
face $-1 $166 $167 $54 $-1 $168 forward single #
loop $-1 $169 $170 $68 #
cone-surface $-1 -67.554777584686406 39.663041342616644 10.489399606530247 0.81915205242281985 0 -0.57357642473473569 0.28678821236736785 0 0.40957602621140993 1 I I 0 1 0.5 forward I I I I #
face $-1 $171 $172 $55 $-1 $173 forward single #
loop $-1 $174 $175 $69 #
cone-surface $-1 -67.554777584686406 44.806743824513838 10.489399606530247 0.81915205242281985 0 -0.57357642473473569 0.28678821236736785 0 0.40957602621140993 1 I I 0 1 0.5 forward I I I I #
face $-1 $176 $177 $42 $-1 $178 reversed single #
loop $-1 $-1 $179 $70 #
plane-surface $-1 0 0 -12.538502083956507 0 0 1 1 0 0 forward_v I I I I #
coedge $-1 $180 $181 $182 $183 forward $71 $-1 #
face $-1 $184 $185 $43 $-1 $186 reversed single #
loop $-1 $-1 $187 $73 #
plane-surface $-1 -47.528436189069197 -33.67290246000713 0 0 -1 0 0 0 -1 forward_v I I I I #
coedge $-1 $188 $189 $190 $191 forward $74 $-1 #
face $-1 $192 $193 $44 $-1 $194 reversed single #
loop $-1 $-1 $195 $76 #
plane-surface $-1 -10.199699445022858 -27.671916231127067 122.88747490531553 0.81915205242281985 0 0.57357642473473569 0.57357642473473569 0 -0.81915205242281985 forward_v I I I I #
coedge $-1 $196 $197 $198 $199 reversed $77 $-1 #
face $-1 $-1 $200 $45 $-1 $201 forward single #
loop $-1 $202 $203 $79 #
cone-surface $-1 66.71420738226773 -30.243767472075664 9.900826032166572 -0.81915205242281985 0 -0.57357642473473569 0.14339410618368392 0 -0.20478801310570496 1 I I -0.70710678118654746 0.70710678118654746 0.25 forward I I I I #
loop $-1 $-1 $204 $59 #
coedge $-1 $128 $128 $205 $206 reversed $80 $-1 #
face $-1 $-1 $207 $46 $-1 $208 forward single #
loop $-1 $209 $210 $82 #
cone-surface $-1 66.71420738226773 -25.10006499017847 9.900826032166572 -0.81915205242281985 0 -0.57357642473473569 0.14339410618368392 0 -0.20478801310570496 1 I I -0.70710678118654746 0.70710678118654746 0.25 forward I I I I #
loop $-1 $-1 $211 $60 #
coedge $-1 $133 $133 $212 $213 reversed $83 $-1 #
face $-1 $214 $215 $47 $-1 $216 reversed single #
loop $-1 $-1 $217 $85 #
plane-surface $-1 -10.199699445022858 42.234892583565248 122.88747490531553 0.81915205242281985 0 0.57357642473473569 0.57357642473473569 0 -0.81915205242281985 forward_v I I I I #
coedge $-1 $218 $219 $220 $221 reversed $86 $-1 #
face $-1 $-1 $222 $48 $-1 $223 forward single #
loop $-1 $224 $225 $88 #
cone-surface $-1 66.71420738226773 39.663041342616644 9.900826032166572 -0.81915205242281985 0 -0.57357642473473569 0.14339410618368392 0 -0.20478801310570496 1 I I -0.70710678118654746 0.70710678118654746 0.25 forward I I I I #
loop $-1 $-1 $226 $62 #
coedge $-1 $142 $142 $227 $228 reversed $89 $-1 #
face $-1 $-1 $229 $49 $-1 $230 forward single #
loop $-1 $231 $232 $91 #
cone-surface $-1 66.71420738226773 44.806743824513838 9.900826032166572 -0.81915205242281985 0 -0.57357642473473569 0.14339410618368392 0 -0.20478801310570496 1 I I -0.70710678118654746 0.70710678118654746 0.25 forward I I I I #
loop $-1 $-1 $233 $63 #
coedge $-1 $147 $147 $234 $235 reversed $92 $-1 #
face $-1 $236 $237 $50 $-1 $238 reversed single #
loop $-1 $-1 $239 $94 #
plane-surface $-1 -69.313638721884786 -27.671916231127067 9.3306560654639554 -0.81915205242281985 0 0.57357642473473569 0.57357642473473569 0 0.81915205242281985 forward_v I I I I #
coedge $-1 $240 $241 $242 $243 reversed $95 $-1 #
face $-1 $-1 $244 $51 $-1 $245 forward single #
loop $-1 $246 $247 $97 #
cone-surface $-1 -66.714207382267759 -30.243767472075664 9.900826032166572 0.81915205242281985 0 -0.57357642473473569 0.14339410618368392 0 0.20478801310570496 1 I I -0.70710678118654746 0.70710678118654746 0.25 forward I I I I #
loop $-1 $-1 $248 $65 #
coedge $-1 $156 $156 $249 $250 reversed $98 $-1 #
face $-1 $-1 $251 $52 $-1 $252 forward single #
loop $-1 $253 $254 $100 #
cone-surface $-1 -66.714207382267759 -25.10006499017847 9.900826032166572 0.81915205242281985 0 -0.57357642473473569 0.14339410618368392 0 0.20478801310570496 1 I I -0.70710678118654746 0.70710678118654746 0.25 forward I I I I #
loop $-1 $-1 $255 $66 #
coedge $-1 $161 $161 $256 $257 reversed $101 $-1 #
face $-1 $258 $259 $53 $-1 $260 forward single #
loop $-1 $-1 $261 $103 #
plane-surface $-1 -69.313638721884786 42.234892583565248 9.3306560654639554 -0.81915205242281985 0 0.57357642473473569 0.57357642473473569 0 0.81915205242281985 forward_v I I I I #
coedge $-1 $262 $263 $264 $265 reversed $104 $-1 #
face $-1 $-1 $266 $54 $-1 $267 forward single #
loop $-1 $268 $269 $106 #
cone-surface $-1 -66.714207382267759 39.663041342616644 9.900826032166572 0.81915205242281985 0 -0.57357642473473569 0.14339410618368392 0 0.20478801310570496 1 I I -0.70710678118654746 0.70710678118654746 0.25 forward I I I I #
loop $-1 $-1 $270 $68 #
coedge $-1 $170 $170 $271 $272 reversed $107 $-1 #
face $-1 $-1 $273 $55 $-1 $274 forward single #
loop $-1 $275 $276 $109 #
cone-surface $-1 -66.714207382267759 44.806743824513838 9.900826032166572 0.81915205242281985 0 -0.57357642473473569 0.14339410618368392 0 0.20478801310570496 1 I I -0.70710678118654746 0.70710678118654746 0.25 forward I I I I #
loop $-1 $-1 $277 $69 #
coedge $-1 $175 $175 $278 $279 reversed $110 $-1 #
face $-1 $280 $281 $42 $-1 $282 reversed single #
loop $-1 $-1 $283 $112 #
plane-surface $-1 0 -48.2358788124453 0 0 1 0 0 0 1 forward_v I I I I #
coedge $-1 $284 $285 $286 $287 forward $113 $-1 #
coedge $-1 $288 $115 $289 $290 forward $71 $-1 #
coedge $-1 $115 $288 $291 $292 forward $71 $-1 #
coedge $-1 $293 $294 $115 $183 reversed $295 $-1 #
edge $-1 $296 -48.2358788124453 $297 48.2358788124453 $182 $298 forward 7 unknown #
face $-1 $299 $300 $43 $-1 $301 forward single #
loop $-1 $-1 $302 $116 #
plane-surface $-1 -44.236634553971818 -40.954390636226215 0 -1 0 0 0 0 1 forward_v I I I I #
coedge $-1 $303 $304 $305 $306 forward $117 $-1 #
coedge $-1 $307 $119 $308 $309 reversed $74 $-1 #
coedge $-1 $119 $307 $310 $311 reversed $74 $-1 #
coedge $-1 $304 $303 $119 $191 reversed $117 $-1 #
edge $-1 $312 -12.538502083956507 $313 12.538502083956507 $190 $314 forward 7 unknown #
face $-1 $315 $316 $44 $-1 $317 reversed single #
loop $-1 $-1 $318 $120 #
plane-surface $-1 103.35711939482873 -33.67290246000713 202.4008130722232 0 1 0 0.81915205242281985 0 0.57357642473473569 forward_v I I I I #
coedge $-1 $319 $320 $321 $322 reversed $121 $-1 #
coedge $-1 $197 $123 $323 $324 reversed $77 $-1 #
coedge $-1 $123 $196 $319 $325 reversed $77 $-1 #
coedge $-1 $321 $326 $123 $199 forward $327 $-1 #
edge $-1 $328 -17.635079024470464 $329 -15.388921128699458 $198 $330 forward 7 unknown #
loop $-1 $-1 $205 $124 #
plane-surface $-1 -10.199699445022858 -27.671916231127067 122.88747490531553 0.81915205242281985 0 0.57357642473473569 0.57357642473473569 0 -0.81915205242281985 forward_v I I I I #
loop $-1 $-1 $331 $79 #
coedge $-1 $203 $203 $204 $332 reversed $125 $-1 #
coedge $-1 $204 $204 $203 $332 forward $127 $-1 #
coedge $-1 $205 $205 $128 $206 forward $200 $-1 #
edge $-1 $333 0 $333 6.2831853071796004 $205 $334 forward 7 unknown #
loop $-1 $-1 $212 $129 #
plane-surface $-1 -10.199699445022858 -27.671916231127067 122.88747490531553 0.81915205242281985 0 0.57357642473473569 0.57357642473473569 0 -0.81915205242281985 forward_v I I I I #
loop $-1 $-1 $335 $82 #
coedge $-1 $210 $210 $211 $336 reversed $130 $-1 #
coedge $-1 $211 $211 $210 $336 forward $132 $-1 #
coedge $-1 $212 $212 $133 $213 forward $207 $-1 #
edge $-1 $337 0 $337 6.2831853071796004 $212 $338 forward 7 unknown #
face $-1 $339 $340 $47 $-1 $341 reversed single #
loop $-1 $-1 $220 $134 #
plane-surface $-1 69.313638721884828 0 0 -1 0 0 0 0 1 forward_v I I I I #
coedge $-1 $342 $343 $344 $345 reversed $135 $-1 #
coedge $-1 $219 $137 $346 $347 reversed $86 $-1 #
coedge $-1 $137 $218 $342 $348 reversed $86 $-1 #
coedge $-1 $344 $349 $137 $221 forward $215 $-1 #
edge $-1 $350 88.661904452155099 $351 91.869750470647688 $220 $352 forward 7 unknown #
loop $-1 $-1 $227 $138 #
plane-surface $-1 -10.199699445022858 42.234892583565248 122.88747490531553 0.81915205242281985 0 0.57357642473473569 0.57357642473473569 0 -0.81915205242281985 forward_v I I I I #
loop $-1 $-1 $353 $88 #
coedge $-1 $225 $225 $226 $354 reversed $139 $-1 #
coedge $-1 $226 $226 $225 $354 forward $141 $-1 #
coedge $-1 $227 $227 $142 $228 forward $222 $-1 #
edge $-1 $355 0 $355 6.2831853071796004 $227 $356 forward 7 unknown #
loop $-1 $-1 $234 $143 #
plane-surface $-1 -10.199699445022858 42.234892583565248 122.88747490531553 0.81915205242281985 0 0.57357642473473569 0.57357642473473569 0 -0.81915205242281985 forward_v I I I I #
loop $-1 $-1 $357 $91 #
coedge $-1 $232 $232 $233 $358 reversed $144 $-1 #
coedge $-1 $233 $233 $232 $358 forward $146 $-1 #
coedge $-1 $234 $234 $147 $235 forward $229 $-1 #
edge $-1 $359 0 $359 6.2831853071796004 $234 $360 forward 7 unknown #
face $-1 $361 $362 $50 $-1 $363 reversed single #
loop $-1 $-1 $364 $148 #
plane-surface $-1 -182.87045756173637 -21.670930002247008 88.843994232371628 0 -1 0 0.81915205242281985 0 -0.57357642473473569 forward_v I I I I #
coedge $-1 $365 $366 $367 $368 reversed $149 $-1 #
coedge $-1 $241 $151 $369 $370 reversed $95 $-1 #
coedge $-1 $151 $240 $365 $371 reversed $95 $-1 #
coedge $-1 $367 $372 $151 $243 forward $373 $-1 #
edge $-1 $374 22.121590058983358 $375 24.367747954754378 $242 $376 forward 7 unknown #
loop $-1 $-1 $249 $152 #
plane-surface $-1 -69.313638721884786 -27.671916231127067 9.3306560654639554 -0.81915205242281985 0 0.57357642473473569 0.57357642473473569 0 0.81915205242281985 forward_v I I I I #
loop $-1 $-1 $377 $97 #
coedge $-1 $247 $247 $248 $378 reversed $153 $-1 #
coedge $-1 $248 $248 $247 $378 forward $155 $-1 #
coedge $-1 $249 $249 $156 $250 forward $244 $-1 #
edge $-1 $379 0 $379 6.2831853071796004 $249 $380 forward 7 unknown #
loop $-1 $-1 $256 $157 #
plane-surface $-1 -69.313638721884786 -27.671916231127067 9.3306560654639554 -0.81915205242281985 0 0.57357642473473569 0.57357642473473569 0 0.81915205242281985 forward_v I I I I #
loop $-1 $-1 $381 $100 #
coedge $-1 $254 $254 $255 $382 reversed $158 $-1 #
coedge $-1 $255 $255 $254 $382 forward $160 $-1 #
coedge $-1 $256 $256 $161 $257 forward $251 $-1 #
edge $-1 $383 0 $383 6.2831853071796004 $256 $384 forward 7 unknown #
face $-1 $385 $386 $53 $-1 $387 reversed single #
loop $-1 $-1 $264 $162 #
plane-surface $-1 0 0 12.538502083956507 0 0 1 1 0 0 forward_v I I I I #
coedge $-1 $388 $389 $390 $391 reversed $163 $-1 #
coedge $-1 $263 $165 $392 $393 reversed $104 $-1 #
coedge $-1 $165 $262 $388 $394 reversed $104 $-1 #
coedge $-1 $390 $395 $165 $265 forward $259 $-1 #
edge $-1 $396 22.121590058983358 $397 24.367747954754378 $264 $398 forward 7 unknown #
loop $-1 $-1 $271 $166 #
plane-surface $-1 -69.313638721884786 42.234892583565248 9.3306560654639554 -0.81915205242281985 0 0.57357642473473569 0.57357642473473569 0 0.81915205242281985 forward_v I I I I #
loop $-1 $-1 $399 $106 #
coedge $-1 $269 $269 $270 $400 reversed $167 $-1 #
coedge $-1 $270 $270 $269 $400 forward $169 $-1 #
coedge $-1 $271 $271 $170 $272 forward $266 $-1 #
edge $-1 $401 0 $401 6.2831853071796004 $271 $402 forward 7 unknown #
loop $-1 $-1 $278 $171 #
plane-surface $-1 -69.313638721884786 42.234892583565248 9.3306560654639554 -0.81915205242281985 0 0.57357642473473569 0.57357642473473569 0 0.81915205242281985 forward_v I I I I #
loop $-1 $-1 $403 $109 #
coedge $-1 $276 $276 $277 $404 reversed $172 $-1 #
coedge $-1 $277 $277 $276 $404 forward $174 $-1 #
coedge $-1 $278 $278 $175 $279 forward $273 $-1 #
edge $-1 $405 0 $405 6.2831853071796004 $278 $406 forward 7 unknown #
face $-1 $407 $408 $42 $-1 $409 reversed single #
loop $-1 $-1 $410 $176 #
plane-surface $-1 -69.313638721884828 0 0 1 0 0 0 0 -1 forward_v I I I I #
coedge $-1 $411 $291 $412 $413 forward $177 $-1 #
coedge $-1 $414 $179 $411 $415 forward $113 $-1 #
coedge $-1 $179 $414 $416 $417 forward $113 $-1 #
coedge $-1 $294 $293 $179 $287 reversed $295 $-1 #
edge $-1 $418 -48.2358788124453 $419 48.2358788124453 $286 $420 forward 7 unknown #
coedge $-1 $181 $180 $421 $422 forward $71 $-1 #
coedge $-1 $423 $424 $180 $290 reversed $408 $-1 #
edge $-1 $297 -69.313638721884828 $425 69.313638721884828 $289 $426 forward 7 unknown #
coedge $-1 $283 $427 $181 $292 reversed $177 $-1 #
edge $-1 $428 -69.313638721884828 $296 69.313638721884828 $291 $429 forward 7 unknown #
coedge $-1 $286 $182 $427 $430 forward $295 $-1 #
coedge $-1 $182 $286 $423 $431 reversed $295 $-1 #
loop $-1 $-1 $293 $407 #
vertex $-1 $183 $432 #
vertex $-1 $183 $433 #
straight-curve $-1 69.313638721884828 0 12.538502083956507 0 1 0 I I #
face $-1 $434 $435 $43 $-1 $436 reversed single #
loop $-1 $-1 $437 $184 #
plane-surface $-1 0 0 12.538502083956507 0 0 1 1 0 0 forward_v I I I I #
coedge $-1 $438 $439 $440 $441 reversed $185 $-1 #
coedge $-1 $190 $187 $442 $443 reversed $117 $-1 #
coedge $-1 $187 $190 $444 $445 reversed $117 $-1 #
coedge $-1 $439 $438 $187 $306 reversed $185 $-1 #
edge $-1 $446 -12.538502083956507 $447 12.538502083956507 $305 $448 forward 7 unknown #
coedge $-1 $189 $188 $449 $450 reversed $74 $-1 #
coedge $-1 $442 $451 $188 $309 forward $435 $-1 #
edge $-1 $452 -27.758683494332193 $313 -13.195707141894022 $308 $453 forward 7 unknown #
coedge $-1 $454 $444 $189 $311 forward $300 $-1 #
edge $-1 $312 13.195707141894022 $455 27.758683494332193 $310 $456 forward 7 unknown #
vertex $-1 $311 $457 #
vertex $-1 $309 $458 #
straight-curve $-1 -50.820237824166576 -33.67290246000713 0 0 0 -1 I I #
face $-1 $-1 $327 $44 $-1 $459 forward single #
loop $-1 $-1 $460 $192 #
plane-surface $-1 69.313638721884828 0 0 -1 0 0 0 0 1 forward_v I I I I #
coedge $-1 $461 $462 $463 $464 reversed $193 $-1 #
coedge $-1 $465 $195 $197 $325 forward $121 $-1 #
coedge $-1 $195 $465 $461 $466 forward $121 $-1 #
coedge $-1 $463 $198 $195 $322 forward $327 $-1 #
edge $-1 $329 7.8349718866834746 $467 19.836944344443594 $321 $468 forward 7 unknown #
coedge $-1 $469 $470 $196 $324 forward $316 $-1 #
edge $-1 $471 -91.869750470647688 $328 -88.661904452155099 $323 $472 forward 7 unknown #
edge $-1 $329 134.71122057861911 $471 138.62727744376971 $197 $473 forward 7 unknown #
coedge $-1 $198 $463 $469 $474 forward $327 $-1 #
loop $-1 $-1 $463 $315 #
vertex $-1 $324 $475 #
vertex $-1 $199 $476 #
straight-curve $-1 51.678559697414364 -21.670930002247008 12.538502083956502 -1 0 0 I I #
coedge $-1 $331 $331 $-1 $477 reversed $202 $-1 #
edge $-1 $478 0 $478 6.2831853071796004 $203 $479 forward 7 unknown #
vertex $-1 $206 $480 #
ellipse-curve $-1 68.190559773999311 -30.243767472075664 10.934579074710234 0.81915205242281985 0 0.57357642473473569 0.28678821236736785 0 -0.40957602621140993 1 I I #
coedge $-1 $335 $335 $-1 $481 reversed $209 $-1 #
edge $-1 $482 0 $482 6.2831853071796004 $210 $483 forward 7 unknown #
vertex $-1 $213 $484 #
ellipse-curve $-1 68.190559773999311 -25.10006499017847 10.934579074710234 0.81915205242281985 0 0.57357642473473569 0.28678821236736785 0 -0.40957602621140993 1 I I #
face $-1 $-1 $485 $47 $-1 $486 forward single #
loop $-1 $-1 $487 $214 #
plane-surface $-1 0 48.2358788124453 0 0 -1 0 0 0 -1 forward_v I I I I #
coedge $-1 $488 $217 $219 $348 forward $135 $-1 #
coedge $-1 $217 $488 $487 $489 reversed $135 $-1 #
coedge $-1 $490 $220 $217 $345 forward $215 $-1 #
edge $-1 $351 15.116460062902565 $491 27.118432520662676 $344 $492 forward 7 unknown #
coedge $-1 $493 $494 $218 $347 forward $485 $-1 #
edge $-1 $495 15.388921128699458 $350 17.635079024470464 $346 $496 forward 7 unknown #
edge $-1 $351 -138.62727744376971 $495 -134.71122057861911 $219 $497 forward 7 unknown #
coedge $-1 $220 $490 $493 $498 reversed $215 $-1 #
vertex $-1 $498 $499 #
vertex $-1 $221 $500 #
straight-curve $-1 69.313638721884828 36.233906354685189 101.2004065361116 0 0 -1 I I #
coedge $-1 $353 $353 $-1 $501 reversed $224 $-1 #
edge $-1 $502 0 $502 6.2831853071796004 $225 $503 forward 7 unknown #
vertex $-1 $228 $504 #
ellipse-curve $-1 68.190559773999311 39.663041342616644 10.934579074710234 0.81915205242281985 0 0.57357642473473569 0.28678821236736785 0 -0.40957602621140993 1 I I #
coedge $-1 $357 $357 $-1 $505 reversed $231 $-1 #
edge $-1 $506 0 $506 6.2831853071796004 $232 $507 forward 7 unknown #
vertex $-1 $235 $508 #
ellipse-curve $-1 68.190559773999311 44.806743824513838 10.934579074710234 0.81915205242281985 0 0.57357642473473569 0.28678821236736785 0 -0.40957602621140993 1 I I #
face $-1 $-1 $373 $50 $-1 $509 forward single #
loop $-1 $-1 $510 $236 #
plane-surface $-1 -69.313638721884828 0 0 1 0 0 0 0 -1 forward_v I I I I #
coedge $-1 $511 $512 $513 $514 reversed $237 $-1 #
coedge $-1 $515 $239 $241 $371 forward $149 $-1 #
coedge $-1 $239 $515 $511 $516 forward $149 $-1 #
coedge $-1 $513 $242 $239 $368 forward $373 $-1 #
edge $-1 $375 -19.836944344443594 $517 -7.8349718866834746 $367 $518 forward 7 unknown #
coedge $-1 $519 $520 $240 $370 forward $362 $-1 #
edge $-1 $521 -35.091341050721923 $374 -31.883495032229305 $369 $522 forward 7 unknown #
edge $-1 $375 -3.9160568651505585 $521 7.3926649648131954e-014 $241 $523 forward 7 unknown #
coedge $-1 $242 $513 $519 $524 forward $373 $-1 #
loop $-1 $-1 $513 $361 #
vertex $-1 $370 $525 #
vertex $-1 $243 $526 #
straight-curve $-1 -91.435228780868187 -33.67290246000713 12.538502083956509 1 0 0 I I #
coedge $-1 $377 $377 $-1 $527 reversed $246 $-1 #
edge $-1 $528 0 $528 6.2831853071796004 $247 $529 forward 7 unknown #
vertex $-1 $250 $530 #
ellipse-curve $-1 -68.190559773999311 -30.243767472075664 10.934579074710214 -0.81915205242281985 0 0.57357642473473569 0.28678821236736785 0 0.40957602621140993 1 I I #
coedge $-1 $381 $381 $-1 $531 reversed $253 $-1 #
edge $-1 $532 0 $532 6.2831853071796004 $254 $533 forward 7 unknown #
vertex $-1 $257 $534 #
ellipse-curve $-1 -68.190559773999311 -25.10006499017847 10.934579074710214 -0.81915205242281985 0 0.57357642473473569 0.28678821236736785 0 0.40957602621140993 1 I I #
face $-1 $-1 $535 $53 $-1 $536 reversed single #
loop $-1 $-1 $537 $258 #
plane-surface $-1 0 48.2358788124453 0 0 -1 0 0 0 -1 forward_v I I I I #
coedge $-1 $538 $261 $263 $394 forward $163 $-1 #
coedge $-1 $261 $538 $537 $539 reversed $163 $-1 #
coedge $-1 $540 $264 $261 $391 forward $259 $-1 #
edge $-1 $397 15.116460062902565 $541 27.118432520662683 $390 $542 forward 7 unknown #
coedge $-1 $543 $544 $262 $393 forward $535 $-1 #
edge $-1 $545 -35.091341050721923 $396 -31.883495032229305 $392 $546 forward 7 unknown #
edge $-1 $397 -3.9160568651505585 $545 7.3926649648131954e-014 $263 $547 forward 7 unknown #
coedge $-1 $264 $540 $543 $548 forward $259 $-1 #
vertex $-1 $393 $549 #
vertex $-1 $265 $550 #
straight-curve $-1 -91.435228780868187 36.233906354685189 12.538502083956509 1 0 0 I I #
coedge $-1 $399 $399 $-1 $551 reversed $268 $-1 #
edge $-1 $552 0 $552 6.2831853071796004 $269 $553 forward 7 unknown #
vertex $-1 $272 $554 #
ellipse-curve $-1 -68.190559773999311 39.663041342616644 10.934579074710214 -0.81915205242281985 0 0.57357642473473569 0.28678821236736785 0 0.40957602621140993 1 I I #
coedge $-1 $403 $403 $-1 $555 reversed $275 $-1 #
edge $-1 $556 0 $556 6.2831853071796004 $276 $557 forward 7 unknown #
vertex $-1 $279 $558 #
ellipse-curve $-1 -68.190559773999311 44.806743824513838 10.934579074710214 -0.81915205242281985 0 0.57357642473473569 0.28678821236736785 0 0.40957602621140993 1 I I #
face $-1 $-1 $295 $42 $-1 $559 reversed single #
loop $-1 $-1 $423 $280 #
plane-surface $-1 0 48.2358788124453 0 0 -1 0 0 0 -1 forward_v I I I I #
coedge $-1 $560 $421 $424 $561 forward $281 $-1 #
coedge $-1 $427 $283 $284 $415 reversed $177 $-1 #
coedge $-1 $421 $560 $283 $413 reversed $281 $-1 #
edge $-1 $428 -12.538502083956507 $562 12.538502083956507 $412 $563 forward 7 unknown #
coedge $-1 $285 $284 $560 $564 forward $113 $-1 #
edge $-1 $419 -69.313638721884828 $562 69.313638721884828 $411 $565 forward 7 unknown #
coedge $-1 $424 $423 $285 $417 reversed $408 $-1 #
edge $-1 $566 -69.313638721884828 $418 69.313638721884828 $416 $567 forward 7 unknown #
vertex $-1 $287 $568 #
vertex $-1 $430 $569 #
straight-curve $-1 69.313638721884828 0 -12.538502083956507 0 -1 0 I I #
coedge $-1 $410 $412 $288 $422 reversed $281 $-1 #
edge $-1 $425 -48.2358788124453 $428 48.2358788124453 $421 $570 forward 7 unknown #
coedge $-1 $416 $289 $294 $431 forward $408 $-1 #
coedge $-1 $289 $416 $410 $561 reversed $408 $-1 #
vertex $-1 $290 $571 #
straight-curve $-1 0 48.2358788124453 12.538502083956507 -1 0 0 I I #
coedge $-1 $291 $411 $293 $430 reversed $177 $-1 #
vertex $-1 $422 $572 #
straight-curve $-1 0 -48.2358788124453 12.538502083956507 1 0 0 I I #
edge $-1 $296 -12.538502083956507 $419 12.538502083956507 $293 $573 forward 7 unknown #
edge $-1 $297 -12.538502083956507 $418 12.538502083956507 $294 $574 forward 7 unknown #
point $-1 69.313638721884828 -48.2358788124453 12.538502083956507 #
point $-1 69.313638721884828 48.2358788124453 12.538502083956507 #
face $-1 $-1 $575 $43 $-1 $576 reversed single #
loop $-1 $-1 $577 $299 #
plane-surface $-1 0 0 -12.538502083956507 0 0 1 1 0 0 forward_v I I I I #
coedge $-1 $444 $454 $439 $578 forward $300 $-1 #
coedge $-1 $305 $302 $577 $579 reversed $185 $-1 #
coedge $-1 $302 $305 $437 $578 reversed $185 $-1 #
coedge $-1 $580 $581 $302 $441 forward $575 $-1 #
edge $-1 $582 -12.538502083956507 $583 12.538502083956507 $440 $584 forward 7 unknown #
coedge $-1 $577 $308 $303 $443 forward $435 $-1 #
edge $-1 $313 -27.056019729631977 $447 -20.47241645943722 $442 $585 forward 7 unknown #
coedge $-1 $310 $437 $304 $445 forward $300 $-1 #
edge $-1 $446 20.47241645943722 $312 27.056019729631977 $444 $586 forward 7 unknown #
vertex $-1 $445 $587 #
vertex $-1 $443 $588 #
straight-curve $-1 -44.236634553971818 -33.67290246000713 0 0 0 -1 I I #
coedge $-1 $581 $580 $307 $450 forward $575 $-1 #
edge $-1 $455 -12.538502083956507 $452 12.538502083956507 $449 $589 forward 7 unknown #
coedge $-1 $308 $577 $581 $590 forward $435 $-1 #
vertex $-1 $309 $591 #
straight-curve $-1 -50.820237824166576 -20.477195318113107 -12.538502083956507 0 1 0 I I #
coedge $-1 $437 $310 $580 $592 forward $300 $-1 #
vertex $-1 $592 $593 #
straight-curve $-1 -50.820237824166576 -20.477195318113107 12.538502083956507 0 -1 0 I I #
point $-1 -50.820237824166576 -33.67290246000713 12.538502083956507 #
point $-1 -50.820237824166576 -33.67290246000713 -12.538502083956507 #
plane-surface $-1 0 0 12.538502083956507 0 0 1 1 0 0 forward_v I I I I #
coedge $-1 $470 $469 $462 $594 forward $316 $-1 #
coedge $-1 $462 $318 $320 $466 reversed $193 $-1 #
coedge $-1 $318 $461 $460 $594 reversed $193 $-1 #
coedge $-1 $326 $321 $318 $464 forward $327 $-1 #
edge $-1 $467 15.388921128699458 $595 17.635079024470464 $463 $596 forward 7 unknown #
coedge $-1 $320 $319 $470 $597 reversed $121 $-1 #
edge $-1 $598 -138.62727744376971 $467 -134.71122057861911 $461 $599 forward 7 unknown #
vertex $-1 $322 $600 #
straight-curve $-1 67.067480826113837 -13.835958115563534 12.538502083956502 0 -1 0 I I #
coedge $-1 $460 $323 $326 $474 reversed $316 $-1 #
coedge $-1 $323 $460 $465 $597 forward $316 $-1 #
vertex $-1 $324 $601 #
straight-curve $-1 69.313638721884828 -21.670930002247008 101.2004065361116 0 0 1 I I #
straight-curve $-1 -10.199699445022858 -21.670930002247008 122.88747490531553 0.57357642473473569 0 -0.81915205242281985 I I #
edge $-1 $595 -33.67290246000713 $328 -21.670930002247008 $469 $602 forward 7 unknown #
point $-1 69.313638721884828 -21.670930002247008 12.538502083956507 #
point $-1 67.067480826113822 -21.670930002247008 12.538502083956502 #
edge $-1 $603 1 $603 0 $331 $-1 forward 7 unknown #
vertex $-1 $332 $604 #
ellipse-curve $-1 66.918995395373429 -30.243767472075664 10.044220138350257 0.81915205242281985 0 0.57357642473473569 0.28678821236736785 0 -0.40957602621140993 1 I I #
point $-1 68.477347986366681 -30.243767472075664 10.52500304849883 #
edge $-1 $605 1 $605 0 $335 $-1 forward 7 unknown #
vertex $-1 $336 $606 #
ellipse-curve $-1 66.918995395373429 -25.10006499017847 10.044220138350257 0.81915205242281985 0 0.57357642473473569 0.28678821236736785 0 -0.40957602621140993 1 I I #
point $-1 68.477347986366681 -25.10006499017847 10.52500304849883 #
loop $-1 $-1 $346 $339 #
plane-surface $-1 0 0 12.538502083956507 0 0 1 1 0 0 forward_v I I I I #
coedge $-1 $607 $608 $343 $489 forward $340 $-1 #
coedge $-1 $343 $342 $494 $609 reversed $135 $-1 #
edge $-1 $491 -85.370360230373677 $610 -81.454303365223069 $487 $611 forward 7 unknown #
coedge $-1 $349 $344 $608 $612 reversed $215 $-1 #
vertex $-1 $489 $613 #
straight-curve $-1 69.313638721884843 21.117446291782624 9.3306560654638986 0 1 0 I I #
coedge $-1 $614 $346 $349 $498 forward $485 $-1 #
coedge $-1 $346 $614 $488 $609 forward $485 $-1 #
vertex $-1 $347 $615 #
straight-curve $-1 51.678559697414364 36.233906354685189 12.538502083956502 1 0 0 I I #
straight-curve $-1 -10.199699445022858 36.233906354685189 122.88747490531553 -0.57357642473473569 0 0.81915205242281985 I I #
edge $-1 $350 36.233906354685189 $616 48.2358788124453 $349 $617 forward 7 unknown #
point $-1 69.313638721884828 36.233906354685189 12.538502083956507 #
point $-1 69.313638721884828 36.233906354685189 9.3306560654639128 #
edge $-1 $618 1 $618 0 $353 $-1 forward 7 unknown #
vertex $-1 $354 $619 #
ellipse-curve $-1 66.918995395373429 39.663041342616644 10.044220138350257 0.81915205242281985 0 0.57357642473473569 0.28678821236736785 0 -0.40957602621140993 1 I I #
point $-1 68.477347986366681 39.663041342616644 10.52500304849883 #
edge $-1 $620 1 $620 0 $357 $-1 forward 7 unknown #
vertex $-1 $358 $621 #
ellipse-curve $-1 66.918995395373429 44.806743824513838 10.044220138350257 0.81915205242281985 0 0.57357642473473569 0.28678821236736785 0 -0.40957602621140993 1 I I #
point $-1 68.477347986366681 44.806743824513838 10.52500304849883 #
plane-surface $-1 0 0 12.538502083956507 0 0 1 1 0 0 forward_v I I I I #
coedge $-1 $520 $519 $512 $622 forward $362 $-1 #
coedge $-1 $512 $364 $366 $516 reversed $237 $-1 #
coedge $-1 $364 $511 $510 $622 reversed $237 $-1 #
coedge $-1 $372 $367 $364 $514 forward $373 $-1 #
edge $-1 $517 -24.367747954754378 $623 -22.121590058983358 $513 $624 forward 7 unknown #
coedge $-1 $366 $365 $520 $625 reversed $149 $-1 #
edge $-1 $626 -7.3926649648131954e-014 $517 3.9160568651505585 $511 $627 forward 7 unknown #
vertex $-1 $368 $628 #
straight-curve $-1 -67.067480826113808 -13.835958115563534 12.538502083956507 0 1 0 I I #
coedge $-1 $510 $369 $372 $524 reversed $362 $-1 #
coedge $-1 $369 $510 $515 $625 forward $362 $-1 #
vertex $-1 $370 $629 #
straight-curve $-1 -69.313638721884828 -33.67290246000713 44.421997116185814 0 0 1 I I #
straight-curve $-1 -69.313638721884786 -33.67290246000713 9.3306560654639554 -0.57357642473473569 0 -0.81915205242281985 I I #
edge $-1 $623 21.670930002247008 $374 33.67290246000713 $519 $630 forward 7 unknown #
point $-1 -69.313638721884828 -33.67290246000713 12.538502083956507 #
point $-1 -67.067480826113808 -33.67290246000713 12.538502083956507 #
edge $-1 $631 1 $631 0 $377 $-1 forward 7 unknown #
vertex $-1 $378 $632 #
ellipse-curve $-1 -66.918995395373457 -30.243767472075664 10.044220138350257 -0.81915205242281985 0 0.57357642473473569 0.28678821236736785 0 0.40957602621140993 1 I I #
point $-1 -67.903771561631984 -30.243767472075664 11.344155100921649 #
edge $-1 $633 1 $633 0 $381 $-1 forward 7 unknown #
vertex $-1 $382 $634 #
ellipse-curve $-1 -66.918995395373457 -25.10006499017847 10.044220138350257 -0.81915205242281985 0 0.57357642473473569 0.28678821236736785 0 0.40957602621140993 1 I I #
point $-1 -67.903771561631984 -25.10006499017847 11.344155100921649 #
loop $-1 $-1 $392 $385 #
plane-surface $-1 -69.313638721884828 0 0 1 0 0 0 0 -1 forward_v I I I I #
coedge $-1 $635 $636 $389 $539 forward $386 $-1 #
coedge $-1 $389 $388 $544 $637 reversed $163 $-1 #
edge $-1 $541 12.140664643338232 $638 16.056721508488863 $537 $639 forward 7 unknown #
coedge $-1 $395 $390 $636 $640 forward $259 $-1 #
vertex $-1 $640 $641 #
straight-curve $-1 -67.067480826113808 21.117446291782624 12.538502083956507 0 1 0 I I #
coedge $-1 $642 $392 $395 $548 reversed $535 $-1 #
coedge $-1 $392 $642 $538 $637 forward $535 $-1 #
vertex $-1 $393 $643 #
straight-curve $-1 -69.313638721884828 36.233906354685189 44.421997116185814 0 0 1 I I #
straight-curve $-1 -69.313638721884786 36.233906354685189 9.3306560654639554 -0.57357642473473569 0 -0.81915205242281985 I I #
edge $-1 $644 -48.2358788124453 $396 -36.233906354685189 $543 $645 forward 7 unknown #
point $-1 -69.313638721884828 36.233906354685189 12.538502083956507 #
point $-1 -67.067480826113808 36.233906354685189 12.538502083956507 #
edge $-1 $646 1 $646 0 $399 $-1 forward 7 unknown #
vertex $-1 $400 $647 #
ellipse-curve $-1 -66.918995395373457 39.663041342616644 10.044220138350257 -0.81915205242281985 0 0.57357642473473569 0.28678821236736785 0 0.40957602621140993 1 I I #
point $-1 -67.903771561631984 39.663041342616644 11.344155100921649 #
edge $-1 $648 1 $648 0 $403 $-1 forward 7 unknown #
vertex $-1 $404 $649 #
ellipse-curve $-1 -66.918995395373457 44.806743824513838 10.044220138350257 -0.81915205242281985 0 0.57357642473473569 0.28678821236736785 0 0.40957602621140993 1 I I #
point $-1 -67.903771561631984 44.806743824513838 11.344155100921649 #
plane-surface $-1 69.313638721884828 0 0 -1 0 0 0 0 1 forward_v I I I I #
coedge $-1 $412 $410 $414 $564 reversed $281 $-1 #
edge $-1 $425 -12.538502083956507 $566 12.538502083956507 $424 $650 forward 7 unknown #
vertex $-1 $564 $651 #
straight-curve $-1 -69.313638721884828 -48.2358788124453 0 0 0 -1 I I #
edge $-1 $562 -48.2358788124453 $566 48.2358788124453 $560 $652 forward 7 unknown #
straight-curve $-1 0 -48.2358788124453 -12.538502083956507 -1 0 0 I I #
vertex $-1 $417 $653 #
straight-curve $-1 0 48.2358788124453 -12.538502083956507 1 0 0 I I #
point $-1 69.313638721884828 48.2358788124453 -12.538502083956507 #
point $-1 69.313638721884828 -48.2358788124453 -12.538502083956507 #
straight-curve $-1 -69.313638721884828 0 12.538502083956507 0 -1 0 I I #
point $-1 -69.313638721884828 48.2358788124453 12.538502083956507 #
point $-1 -69.313638721884828 -48.2358788124453 12.538502083956507 #
straight-curve $-1 69.313638721884828 -48.2358788124453 0 0 0 -1 I I #
straight-curve $-1 69.313638721884828 48.2358788124453 0 0 0 -1 I I #
loop $-1 $-1 $440 $434 #
plane-surface $-1 0 -48.2358788124453 0 0 1 0 0 0 1 forward_v I I I I #
coedge $-1 $451 $442 $438 $579 forward $435 $-1 #
edge $-1 $583 -27.758683494332193 $446 -13.195707141894022 $437 $654 forward 7 unknown #
edge $-1 $447 13.195707141894022 $582 27.758683494332193 $577 $655 forward 7 unknown #
coedge $-1 $449 $440 $454 $592 reversed $575 $-1 #
coedge $-1 $440 $449 $451 $590 reversed $575 $-1 #
vertex $-1 $590 $656 #
vertex $-1 $441 $657 #
straight-curve $-1 -44.236634553971818 -48.2358788124453 0 0 0 1 I I #
straight-curve $-1 -23.764218094534598 -33.67290246000713 -12.538502083956507 1 0 0 I I #
straight-curve $-1 -23.764218094534598 -33.67290246000713 12.538502083956507 -1 0 0 I I #
point $-1 -44.236634553971818 -33.67290246000713 12.538502083956507 #
point $-1 -44.236634553971818 -33.67290246000713 -12.538502083956507 #
straight-curve $-1 -50.820237824166576 -48.2358788124453 0 0 0 -1 I I #
edge $-1 $582 44.236634553971818 $452 50.820237824166576 $581 $658 forward 7 unknown #
point $-1 -50.820237824166576 -48.2358788124453 -12.538502083956507 #
edge $-1 $455 -50.820237824166576 $583 -44.236634553971818 $580 $659 forward 7 unknown #
point $-1 -50.820237824166576 -48.2358788124453 12.538502083956507 #
edge $-1 $595 88.661904452155099 $598 91.869750470647688 $460 $660 forward 7 unknown #
vertex $-1 $474 $661 #
straight-curve $-1 51.678559697414364 -33.67290246000713 12.538502083956502 1 0 0 I I #
edge $-1 $598 -19.836944344443594 $471 -7.8349718866834746 $470 $662 forward 7 unknown #
vertex $-1 $597 $663 #
straight-curve $-1 -10.199699445022858 -33.67290246000713 122.88747490531553 -0.57357642473473569 0 0.81915205242281985 I I #
point $-1 67.067480826113822 -33.67290246000713 12.538502083956502 #
point $-1 69.313638721884828 -21.670930002247008 9.3306560654639128 #
straight-curve $-1 69.313638721884828 0 12.538502083956507 0 1 0 I I #
vertex $-1 $477 $664 #
point $-1 67.205783607740798 -30.243767472075664 9.6346441121388455 #
vertex $-1 $481 $665 #
point $-1 67.205783607740798 -25.10006499017847 9.6346441121388455 #
coedge $-1 $608 $487 $614 $666 reversed $340 $-1 #
coedge $-1 $487 $607 $490 $612 forward $340 $-1 #
edge $-1 $610 -27.118432520662683 $495 -15.116460062902565 $494 $667 forward 7 unknown #
vertex $-1 $489 $668 #
straight-curve $-1 20.347212722630637 48.2358788124453 79.261961864249969 -0.57357642473473569 0 0.81915205242281985 I I #
edge $-1 $616 -12.538502083956507 $491 -9.3306560654639092 $490 $669 forward 7 unknown #
point $-1 69.313638721884828 48.2358788124453 9.3306560654639092 #
coedge $-1 $494 $493 $607 $666 forward $485 $-1 #
point $-1 67.067480826113822 36.233906354685189 12.538502083956502 #
vertex $-1 $498 $670 #
straight-curve $-1 69.313638721884828 0 12.538502083956507 0 1 0 I I #
vertex $-1 $501 $671 #
point $-1 67.205783607740798 39.663041342616644 9.6346441121388455 #
vertex $-1 $505 $672 #
point $-1 67.205783607740798 44.806743824513838 9.6346441121388455 #
edge $-1 $623 31.883495032229305 $626 35.091341050721923 $510 $673 forward 7 unknown #
vertex $-1 $524 $674 #
straight-curve $-1 -91.435228780868187 -21.670930002247008 12.538502083956509 -1 0 0 I I #
edge $-1 $626 7.8349718866834746 $521 19.836944344443594 $520 $675 forward 7 unknown #
vertex $-1 $625 $676 #
straight-curve $-1 -69.313638721884786 -21.670930002247008 9.3306560654639554 0.57357642473473569 0 0.81915205242281985 I I #
point $-1 -67.067480826113808 -21.670930002247008 12.538502083956507 #
point $-1 -69.313638721884828 -33.67290246000713 9.330656065463895 #
straight-curve $-1 -69.313638721884828 0 12.538502083956507 0 -1 0 I I #
vertex $-1 $527 $677 #
point $-1 -66.632207183006102 -30.243767472075664 10.453796164561666 #
vertex $-1 $531 $678 #
point $-1 -66.632207183006102 -25.10006499017847 10.453796164561666 #
coedge $-1 $636 $537 $642 $679 reversed $386 $-1 #
coedge $-1 $537 $635 $540 $640 reversed $386 $-1 #
edge $-1 $638 -27.118432520662683 $545 -15.116460062902565 $544 $680 forward 7 unknown #
vertex $-1 $539 $681 #
straight-curve $-1 -60.103881806084459 48.2358788124453 22.483552444324186 -0.57357642473473569 0 -0.81915205242281985 I I #
edge $-1 $541 67.067480826113808 $644 69.313638721884828 $636 $682 forward 7 unknown #
point $-1 -67.067480826113808 48.235878812445307 12.538502083956507 #
coedge $-1 $544 $543 $635 $679 forward $535 $-1 #
point $-1 -69.313638721884828 36.233906354685189 9.330656065463895 #
vertex $-1 $640 $683 #
straight-curve $-1 -69.313638721884828 0 12.538502083956507 0 -1 0 I I #
vertex $-1 $551 $684 #
point $-1 -66.632207183006102 39.663041342616644 10.453796164561666 #
vertex $-1 $555 $685 #
point $-1 -66.632207183006102 44.806743824513838 10.453796164561666 #
straight-curve $-1 -69.313638721884828 48.2358788124453 0 0 0 -1 I I #
point $-1 -69.313638721884828 -48.2358788124453 -12.538502083956507 #
straight-curve $-1 -69.313638721884828 0 -12.538502083956507 0 1 0 I I #
point $-1 -69.313638721884828 48.2358788124453 -12.538502083956507 #
straight-curve $-1 -44.236634553971818 -20.477195318113107 12.538502083956507 0 1 0 I I #
straight-curve $-1 -44.236634553971818 -20.477195318113107 -12.538502083956507 0 -1 0 I I #
point $-1 -44.236634553971818 -48.2358788124453 -12.538502083956507 #
point $-1 -44.236634553971818 -48.2358788124453 12.538502083956507 #
straight-curve $-1 0 -48.2358788124453 -12.538502083956507 -1 0 0 I I #
straight-curve $-1 0 -48.2358788124453 12.538502083956507 1 0 0 I I #
straight-curve $-1 69.313638721884828 -33.67290246000713 101.2004065361116 0 0 -1 I I #
point $-1 69.313638721884828 -33.67290246000713 12.538502083956507 #
straight-curve $-1 69.313638721884843 -13.835958115563534 9.3306560654638986 0 1 0 I I #
point $-1 69.313638721884828 -33.67290246000713 9.3306560654639128 #
point $-1 66.509419369162032 -30.243767472075664 9.7574319259828872 #
point $-1 66.509419369162032 -25.10006499017847 9.7574319259828872 #
edge $-1 $616 -69.313638721884828 $610 -67.067480826113822 $607 $686 forward 7 unknown #
straight-curve $-1 67.067480826113837 21.117446291782624 12.538502083956502 0 -1 0 I I #
point $-1 67.067480826113822 48.235878812445307 12.538502083956502 #
straight-curve $-1 69.313638721884828 48.2358788124453 0 0 0 -1 I I #
point $-1 69.313638721884828 48.2358788124453 12.538502083956507 #
point $-1 66.509419369162032 39.663041342616644 9.7574319259828872 #
point $-1 66.509419369162032 44.806743824513838 9.7574319259828872 #
straight-curve $-1 -69.313638721884828 -21.670930002247008 44.421997116185814 0 0 -1 I I #
point $-1 -69.313638721884828 -21.670930002247008 12.538502083956507 #
straight-curve $-1 -69.313638721884828 -13.835958115563534 9.3306560654639039 0 -1 0 I I #
point $-1 -69.313638721884828 -21.670930002247008 9.330656065463895 #
point $-1 -66.50941936916206 -30.243767472075664 9.7574319259828872 #
point $-1 -66.50941936916206 -25.10006499017847 9.7574319259828872 #
edge $-1 $644 -12.538502083956507 $638 -9.330656065463895 $635 $687 forward 7 unknown #
straight-curve $-1 -69.313638721884828 21.117446291782624 9.3306560654639039 0 -1 0 I I #
point $-1 -69.313638721884828 48.235878812445307 9.330656065463895 #
straight-curve $-1 0 48.2358788124453 12.538502083956507 -1 0 0 I I #
point $-1 -69.313638721884828 48.2358788124453 12.538502083956507 #
point $-1 -66.50941936916206 39.663041342616644 9.7574319259828872 #
point $-1 -66.50941936916206 44.806743824513838 9.7574319259828872 #
straight-curve $-1 0 48.2358788124453 12.538502083956507 -1 0 0 I I #
straight-curve $-1 -69.313638721884828 48.2358788124453 0 0 0 -1 I I #
End-of-ACIS-data 