500 0 8 0           
7 Unknown 11 ACIS 5.0 NT 24 Thu Mar 25 18:03:46 1999 
-1 9.9999999999999995e-007 1e-010 
body $-1 $8 $-1 $9 #
body $-1 $10 $-1 $11 #
body $-1 $12 $-1 $13 #
body $-1 $14 $-1 $15 #
body $-1 $16 $-1 $17 #
body $-1 $18 $-1 $19 #
body $-1 $20 $-1 $21 #
body $-1 $22 $-1 $23 #
lump $-1 $-1 $24 $0 #
transform $-1 1 0 0 0 1 0 0 0 1 64.193853572191529 29.520709328060796 9.8342602866394007 1 rotate no_reflect no_shear #
lump $-1 $-1 $25 $1 #
transform $-1 1 0 0 0 1 0 0 0 1 64.193853572191529 29.520709328060796 9.8342602866394007 1 rotate no_reflect no_shear #
lump $-1 $-1 $26 $2 #
transform $-1 1 0 0 0 1 0 0 0 1 64.193853572191529 29.520709328060796 9.8342602866394007 1 rotate no_reflect no_shear #
lump $-1 $-1 $27 $3 #
transform $-1 1 0 0 0 1 0 0 0 1 64.193853572191529 29.520709328060796 9.8342602866394007 1 rotate no_reflect no_shear #
lump $-1 $-1 $28 $4 #
transform $-1 1 0 0 0 1 0 0 0 1 64.193853572191529 29.520709328060796 9.8342602866394007 1 rotate no_reflect no_shear #
lump $-1 $-1 $29 $5 #
transform $-1 1 0 0 0 1 0 0 0 1 64.193853572191529 29.520709328060796 9.8342602866394007 1 rotate no_reflect no_shear #
lump $-1 $-1 $30 $6 #
transform $-1 1 0 0 0 1 0 0 0 1 64.193853572191529 29.520709328060796 9.8342602866394007 1 rotate no_reflect no_shear #
lump $-1 $-1 $31 $7 #
transform $-1 1 0 0 0 1 0 0 0 1 64.193853572191529 29.520709328060796 9.8342602866394007 1 rotate no_reflect no_shear #
shell $-1 $-1 $-1 $32 $-1 $8 #
shell $-1 $-1 $-1 $33 $-1 $10 #
shell $-1 $-1 $-1 $34 $-1 $12 #
shell $-1 $-1 $-1 $35 $-1 $14 #
shell $-1 $-1 $-1 $36 $-1 $16 #
shell $-1 $-1 $-1 $37 $-1 $18 #
shell $-1 $-1 $-1 $38 $-1 $20 #
shell $-1 $-1 $-1 $39 $-1 $22 #
face $-1 $40 $41 $24 $-1 $42 forward single #
face $-1 $43 $44 $25 $-1 $45 forward single #
face $-1 $46 $47 $26 $-1 $48 forward single #
face $-1 $49 $50 $27 $-1 $51 reversed single #
face $-1 $52 $53 $28 $-1 $54 forward single #
face $-1 $55 $56 $29 $-1 $57 reversed single #
face $-1 $58 $59 $30 $-1 $60 forward single #
face $-1 $61 $62 $31 $-1 $63 forward single #
face $-1 $64 $65 $24 $-1 $66 reversed single #
loop $-1 $-1 $67 $32 #
plane-surface $-1 0 0 9.8342602866394007 0 0 1 1 0 0 forward_v I I I I #
face $-1 $68 $69 $25 $-1 $70 reversed single #
loop $-1 $-1 $71 $33 #
plane-surface $-1 0 -29.520709328060796 0 0 1 0 0 0 1 forward_v I I I I #
face $-1 $72 $73 $26 $-1 $74 reversed single #
loop $-1 $-1 $75 $34 #
plane-surface $-1 0 29.520709328060796 0 0 -1 0 0 0 -1 forward_v I I I I #
face $-1 $76 $77 $27 $-1 $78 reversed single #
loop $-1 $-1 $79 $35 #
plane-surface $-1 -130.31841198156357 -10.672235120130885 114.46269831855957 0 1 0 -0.51503808176128008 0 0.85716729658548041 forward_v I I I I #
face $-1 $80 $81 $28 $-1 $82 forward single #
loop $-1 $83 $84 $36 #
cone-surface $-1 -58.326981450841835 -7.3860688945037545 4.8675298174159707 0.51503808176128008 0 -0.85716729658548041 1.2857509448782207 0 0.77255712264192011 1 I I 0 1 1.5 forward I I I I #
face $-1 $85 $86 $29 $-1 $87 reversed single #
loop $-1 $-1 $88 $37 #
plane-surface $-1 61.025063440417668 -3.2107083347745942 186.37362615088415 0 -1 0 -0.69465837861970381 0 -0.71933979245794832 forward_v I I I I #
face $-1 $89 $90 $30 $-1 $91 forward single #
loop $-1 $92 $93 $38 #
cone-surface $-1 60.240863236624406 -10.222409489941981 5.9216488320349656 -0.69465837861970381 0 -0.71933979245794832 0.71933979245794832 0 -0.69465837861970381 1 I I 0 1 1 forward I I I I #
face $-1 $94 $95 $31 $-1 $96 forward single #
loop $-1 $97 $98 $39 #
cone-surface $-1 60.240863236624406 -6.0153887968415489 5.9216488320349656 -0.69465837861970381 0 -0.71933979245794832 0.71933979245794832 0 -0.69465837861970381 1 I I 0 1 1 forward I I I I #
face $-1 $99 $100 $24 $-1 $101 reversed single #
loop $-1 $-1 $102 $40 #
plane-surface $-1 0 0 -9.8342602866394007 0 0 1 1 0 0 forward_v I I I I #
coedge $-1 $103 $104 $105 $106 forward $41 $-1 #
face $-1 $107 $108 $25 $-1 $109 reversed single #
loop $-1 $-1 $110 $43 #
plane-surface $-1 0 0 -9.8342602866394007 0 0 1 1 0 0 forward_v I I I I #
coedge $-1 $111 $112 $113 $114 forward $44 $-1 #
face $-1 $115 $116 $26 $-1 $117 reversed single #
loop $-1 $-1 $118 $46 #
plane-surface $-1 0 0 -9.8342602866394007 0 0 1 1 0 0 forward_v I I I I #
coedge $-1 $119 $120 $121 $122 forward $47 $-1 #
face $-1 $123 $124 $27 $-1 $125 reversed single #
loop $-1 $-1 $126 $49 #
plane-surface $-1 -64.193853572191529 -7.3860688945037545 4.4129544708003863 -0.51503808176128008 0 0.85716729658548041 0.85716729658548041 0 0.51503808176128008 forward_v I I I I #
coedge $-1 $127 $128 $129 $130 reversed $50 $-1 #
face $-1 $-1 $131 $28 $-1 $132 forward single #
loop $-1 $133 $134 $52 #
cone-surface $-1 -56.58511470491873 -7.3860688945037545 1.9685767836729351 0.51503808176128008 0 -0.85716729658548041 0.64287547243911036 0 0.38627856132096006 1 I I -0.70710678118654757 0.70710678118654757 0.75 forward I I I I #
loop $-1 $-1 $135 $36 #
coedge $-1 $84 $84 $136 $137 reversed $53 $-1 #
face $-1 $138 $139 $29 $-1 $140 reversed single #
loop $-1 $-1 $141 $55 #
plane-surface $-1 -28.160533039200828 -8.118899143391765 94.019239539491792 0.69465837861970381 0 0.71933979245794832 0.71933979245794832 0 -0.69465837861970381 forward_v I I I I #
coedge $-1 $142 $143 $144 $145 reversed $56 $-1 #
face $-1 $-1 $146 $30 $-1 $147 forward single #
loop $-1 $148 $149 $58 #
cone-surface $-1 58.529689015955199 -10.222409489941981 4.1496760945846116 -0.69465837861970381 0 -0.71933979245794832 0.35966989622897416 0 -0.3473291893098519 1 I I -0.70710678118654746 0.70710678118654746 0.5 forward I I I I #
loop $-1 $-1 $150 $38 #
coedge $-1 $93 $93 $151 $152 reversed $59 $-1 #
face $-1 $-1 $153 $31 $-1 $154 forward single #
loop $-1 $155 $156 $61 #
cone-surface $-1 58.529689015955199 -6.0153887968415489 4.1496760945846116 -0.69465837861970381 0 -0.71933979245794832 0.35966989622897416 0 -0.3473291893098519 1 I I -0.70710678118654746 0.70710678118654746 0.5 forward I I I I #
loop $-1 $-1 $157 $39 #
coedge $-1 $98 $98 $158 $159 reversed $62 $-1 #
face $-1 $160 $161 $24 $-1 $162 reversed single #
loop $-1 $-1 $163 $64 #
plane-surface $-1 0 -29.520709328060796 0 0 1 0 0 0 1 forward_v I I I I #
coedge $-1 $164 $165 $166 $167 forward $65 $-1 #
coedge $-1 $168 $67 $169 $170 forward $41 $-1 #
coedge $-1 $67 $168 $171 $172 forward $41 $-1 #
coedge $-1 $173 $174 $67 $106 reversed $175 $-1 #
edge $-1 $176 -29.520709328060796 $177 29.520709328060796 $105 $178 forward 7 unknown #
face $-1 $179 $180 $25 $-1 $181 reversed single #
loop $-1 $-1 $182 $68 #
plane-surface $-1 -46.256135197680415 -41.86766858717187 0 0 1 0 0 0 1 forward_v I I I I #
coedge $-1 $183 $184 $112 $185 forward $69 $-1 #
coedge $-1 $186 $71 $187 $188 reversed $44 $-1 #
coedge $-1 $71 $186 $110 $185 reversed $44 $-1 #
coedge $-1 $189 $190 $71 $114 reversed $180 $-1 #
edge $-1 $191 -9.8342602866394007 $192 9.8342602866394007 $113 $193 forward 7 unknown #
face $-1 $194 $195 $26 $-1 $196 reversed single #
loop $-1 $-1 $197 $72 #
plane-surface $-1 -47.986937396448099 35.694188957616326 0 1 0 0 0 0 -1 forward_v I I I I #
coedge $-1 $198 $199 $120 $200 forward $73 $-1 #
coedge $-1 $201 $75 $202 $203 reversed $47 $-1 #
coedge $-1 $75 $201 $118 $200 reversed $47 $-1 #
coedge $-1 $204 $205 $75 $122 reversed $206 $-1 #
edge $-1 $207 -9.8342602866394007 $208 9.8342602866394007 $121 $209 forward 7 unknown #
face $-1 $210 $211 $27 $-1 $212 reversed single #
loop $-1 $-1 $213 $76 #
plane-surface $-1 -130.31841198156357 -4.0999026688766236 114.46269831855957 0 -1 0 0.51503808176128008 0 -0.85716729658548041 forward_v I I I I #
coedge $-1 $214 $215 $216 $217 reversed $77 $-1 #
coedge $-1 $128 $79 $218 $219 reversed $50 $-1 #
coedge $-1 $79 $127 $214 $220 reversed $50 $-1 #
coedge $-1 $216 $221 $79 $130 forward $222 $-1 #
edge $-1 $223 0.96535241859025689 $224 9.9879202920853629 $129 $225 forward 7 unknown #
loop $-1 $-1 $136 $80 #
plane-surface $-1 -64.193853572191529 -7.3860688945037545 4.4129544708003863 -0.51503808176128008 0 0.85716729658548041 0.85716729658548041 0 0.51503808176128008 forward_v I I I I #
loop $-1 $-1 $226 $52 #
coedge $-1 $134 $134 $135 $227 reversed $81 $-1 #
coedge $-1 $135 $135 $134 $227 forward $83 $-1 #
coedge $-1 $136 $136 $84 $137 forward $131 $-1 #
edge $-1 $228 0 $228 6.2831853071796004 $136 $229 forward 7 unknown #
face $-1 $230 $231 $29 $-1 $232 forward single #
loop $-1 $-1 $233 $85 #
plane-surface $-1 61.025063440417668 -13.027089952008936 186.37362615088415 0 1 0 0.69465837861970381 0 0.71933979245794832 forward_v I I I I #
coedge $-1 $234 $235 $236 $237 reversed $86 $-1 #
coedge $-1 $143 $88 $238 $239 reversed $56 $-1 #
coedge $-1 $88 $142 $234 $240 reversed $56 $-1 #
coedge $-1 $236 $241 $88 $145 forward $231 $-1 #
edge $-1 $242 -33.681321851982695 $243 -28.503031243567158 $144 $244 forward 7 unknown #
loop $-1 $-1 $151 $89 #
plane-surface $-1 -28.160533039200828 -8.118899143391765 94.019239539491792 0.69465837861970381 0 0.71933979245794832 0.71933979245794832 0 -0.69465837861970381 forward_v I I I I #
loop $-1 $-1 $245 $58 #
coedge $-1 $149 $149 $150 $246 reversed $90 $-1 #
coedge $-1 $150 $150 $149 $246 forward $92 $-1 #
coedge $-1 $151 $151 $93 $152 forward $146 $-1 #
edge $-1 $247 0 $247 6.2831853071796004 $151 $248 forward 7 unknown #
loop $-1 $-1 $158 $94 #
plane-surface $-1 -28.160533039200828 -8.118899143391765 94.019239539491792 0.69465837861970381 0 0.71933979245794832 0.71933979245794832 0 -0.69465837861970381 forward_v I I I I #
loop $-1 $-1 $249 $61 #
coedge $-1 $156 $156 $157 $250 reversed $95 $-1 #
coedge $-1 $157 $157 $156 $250 forward $97 $-1 #
coedge $-1 $158 $158 $98 $159 forward $153 $-1 #
edge $-1 $251 0 $251 6.2831853071796004 $158 $252 forward 7 unknown #
face $-1 $253 $254 $24 $-1 $255 reversed single #
loop $-1 $-1 $256 $99 #
plane-surface $-1 -64.193853572191529 0 0 1 0 0 0 0 -1 forward_v I I I I #
coedge $-1 $257 $171 $258 $259 forward $100 $-1 #
coedge $-1 $260 $102 $257 $261 forward $65 $-1 #
coedge $-1 $102 $260 $262 $263 forward $65 $-1 #
coedge $-1 $174 $173 $102 $167 reversed $175 $-1 #
edge $-1 $264 -29.520709328060796 $265 29.520709328060796 $166 $266 forward 7 unknown #
coedge $-1 $104 $103 $267 $268 forward $41 $-1 #
coedge $-1 $269 $270 $103 $170 reversed $254 $-1 #
edge $-1 $177 -64.193853572191529 $271 64.193853572191529 $169 $272 forward 7 unknown #
coedge $-1 $163 $273 $104 $172 reversed $100 $-1 #
edge $-1 $274 -64.193853572191529 $176 64.193853572191529 $171 $275 forward 7 unknown #
coedge $-1 $166 $105 $273 $276 forward $175 $-1 #
coedge $-1 $105 $166 $269 $277 reversed $175 $-1 #
loop $-1 $-1 $173 $253 #
vertex $-1 $106 $278 #
vertex $-1 $106 $279 #
straight-curve $-1 64.193853572191529 0 9.8342602866394007 0 1 0 I I #
face $-1 $280 $281 $25 $-1 $282 reversed single #
loop $-1 $-1 $113 $107 #
plane-surface $-1 -47.986937396448099 -35.694188957616333 0 1 0 0 0 0 -1 forward_v I I I I #
coedge $-1 $283 $284 $285 $286 forward $108 $-1 #
coedge $-1 $287 $110 $288 $289 forward $69 $-1 #
coedge $-1 $110 $287 $189 $290 forward $69 $-1 #
edge $-1 $191 -47.986937396448099 $291 -44.525332998912731 $110 $292 forward 7 unknown #
coedge $-1 $112 $111 $293 $294 forward $44 $-1 #
coedge $-1 $295 $296 $111 $188 forward $297 $-1 #
edge $-1 $298 44.525332998912731 $192 47.986937396448099 $187 $299 forward 7 unknown #
coedge $-1 $285 $113 $184 $290 reversed $180 $-1 #
coedge $-1 $113 $285 $295 $300 reversed $180 $-1 #
vertex $-1 $185 $301 #
vertex $-1 $300 $302 #
straight-curve $-1 -47.986937396448099 -29.520709328060796 0 0 0 1 I I #
face $-1 $303 $206 $26 $-1 $304 reversed single #
loop $-1 $-1 $305 $115 #
plane-surface $-1 -46.256135197680415 41.867668587171863 0 0 -1 0 0 0 -1 forward_v I I I I #
coedge $-1 $306 $307 $308 $309 forward $116 $-1 #
coedge $-1 $310 $118 $306 $311 forward $73 $-1 #
coedge $-1 $118 $310 $204 $312 forward $73 $-1 #
edge $-1 $207 44.525332998912731 $313 47.986937396448099 $118 $314 forward 7 unknown #
coedge $-1 $120 $119 $315 $316 forward $47 $-1 #
coedge $-1 $317 $318 $119 $203 forward $319 $-1 #
edge $-1 $320 -47.986937396448099 $208 -44.525332998912731 $202 $321 forward 7 unknown #
coedge $-1 $322 $121 $199 $312 reversed $206 $-1 #
coedge $-1 $121 $322 $317 $323 reversed $206 $-1 #
loop $-1 $-1 $121 $194 #
vertex $-1 $200 $324 #
vertex $-1 $323 $325 #
straight-curve $-1 -44.525332998912731 29.520709328060796 0 0 0 1 I I #
face $-1 $-1 $222 $27 $-1 $326 forward single #
loop $-1 $-1 $327 $123 #
plane-surface $-1 -64.193853572191529 0 0 1 0 0 0 0 -1 forward_v I I I I #
coedge $-1 $328 $329 $330 $331 reversed $124 $-1 #
coedge $-1 $332 $126 $128 $220 forward $77 $-1 #
coedge $-1 $126 $332 $328 $333 forward $77 $-1 #
coedge $-1 $330 $129 $126 $217 forward $222 $-1 #
edge $-1 $224 -6.9792006728790081 $334 -0.40686822162474634 $216 $335 forward 7 unknown #
coedge $-1 $336 $337 $127 $219 forward $211 $-1 #
edge $-1 $338 -52.818394688479401 $223 -47.397088872640389 $218 $339 forward 7 unknown #
edge $-1 $224 -10.526029060413805 $338 0 $128 $340 forward 7 unknown #
coedge $-1 $129 $330 $336 $341 forward $222 $-1 #
loop $-1 $-1 $330 $210 #
vertex $-1 $219 $342 #
vertex $-1 $130 $343 #
straight-curve $-1 -65.159205990781786 -10.672235120130885 9.8342602866393989 1 0 0 I I #
coedge $-1 $226 $226 $-1 $344 reversed $133 $-1 #
edge $-1 $345 0 $345 6.2831853071796004 $134 $346 forward 7 unknown #
vertex $-1 $137 $347 #
ellipse-curve $-1 -59.682569635443976 -7.3860688945037545 7.1236073787198926 -0.51503808176128008 0 0.85716729658548041 1.2857509448782207 0 0.77255712264192011 1 I I #
face $-1 $-1 $348 $29 $-1 $349 reversed single #
loop $-1 $-1 $144 $138 #
plane-surface $-1 0 0 9.8342602866394007 0 0 1 1 0 0 forward_v I I I I #
coedge $-1 $350 $351 $352 $353 reversed $139 $-1 #
coedge $-1 $354 $141 $143 $240 forward $86 $-1 #
coedge $-1 $141 $354 $350 $355 forward $86 $-1 #
coedge $-1 $352 $144 $141 $237 forward $231 $-1 #
edge $-1 $243 -0.84874123692128833 $356 8.9676403803130533 $236 $357 forward 7 unknown #
coedge $-1 $358 $359 $142 $239 forward $348 $-1 #
edge $-1 $360 -88.353170015568779 $242 -83.352552788802669 $238 $361 forward 7 unknown #
edge $-1 $243 121.18903599799536 $360 128.38770714438306 $143 $362 forward 7 unknown #
coedge $-1 $144 $352 $358 $363 forward $231 $-1 #
vertex $-1 $145 $364 #
vertex $-1 $145 $365 #
straight-curve $-1 30.512531720208834 -3.2107083347745942 9.834260286639406 -1 0 0 I I #
coedge $-1 $245 $245 $-1 $366 reversed $148 $-1 #
edge $-1 $367 0 $367 6.2831853071796004 $149 $368 forward 7 unknown #
vertex $-1 $152 $369 #
ellipse-curve $-1 61.604708267983767 -10.222409489941981 7.333951673256351 0.69465837861970381 0 0.71933979245794832 0.71933979245794832 0 -0.69465837861970381 1 I I #
coedge $-1 $249 $249 $-1 $370 reversed $155 $-1 #
edge $-1 $371 0 $371 6.2831853071796004 $156 $372 forward 7 unknown #
vertex $-1 $159 $373 #
ellipse-curve $-1 61.604708267983767 -6.0153887968415489 7.333951673256351 0.69465837861970381 0 0.71933979245794832 0.71933979245794832 0 -0.69465837861970381 1 I I #
face $-1 $-1 $175 $24 $-1 $374 reversed single #
loop $-1 $-1 $269 $160 #
plane-surface $-1 0 29.520709328060796 0 0 -1 0 0 0 -1 forward_v I I I I #
coedge $-1 $375 $267 $270 $376 forward $161 $-1 #
coedge $-1 $273 $163 $164 $261 reversed $100 $-1 #
coedge $-1 $267 $375 $163 $259 reversed $161 $-1 #
edge $-1 $274 -9.8342602866394007 $377 9.8342602866394007 $258 $378 forward 7 unknown #
coedge $-1 $165 $164 $375 $379 forward $65 $-1 #
edge $-1 $265 -64.193853572191529 $377 64.193853572191529 $257 $380 forward 7 unknown #
coedge $-1 $270 $269 $165 $263 reversed $254 $-1 #
edge $-1 $381 -64.193853572191529 $264 64.193853572191529 $262 $382 forward 7 unknown #
vertex $-1 $167 $383 #
vertex $-1 $276 $384 #
straight-curve $-1 64.193853572191529 0 -9.8342602866394007 0 -1 0 I I #
coedge $-1 $256 $258 $168 $268 reversed $161 $-1 #
edge $-1 $271 -29.520709328060796 $274 29.520709328060796 $267 $385 forward 7 unknown #
coedge $-1 $262 $169 $174 $277 forward $254 $-1 #
coedge $-1 $169 $262 $256 $376 reversed $254 $-1 #
vertex $-1 $170 $386 #
straight-curve $-1 0 29.520709328060796 9.8342602866394007 -1 0 0 I I #
coedge $-1 $171 $257 $173 $276 reversed $100 $-1 #
vertex $-1 $268 $387 #
straight-curve $-1 0 -29.520709328060796 9.8342602866394007 1 0 0 I I #
edge $-1 $176 -9.8342602866394007 $265 9.8342602866394007 $173 $388 forward 7 unknown #
edge $-1 $177 -9.8342602866394007 $264 9.8342602866394007 $174 $389 forward 7 unknown #
point $-1 64.193853572191529 -29.520709328060796 9.8342602866394007 #
point $-1 64.193853572191529 29.520709328060796 9.8342602866394007 #
face $-1 $-1 $297 $25 $-1 $390 forward single #
loop $-1 $-1 $391 $179 #
plane-surface $-1 -44.525332998912731 -35.694188957616333 0 -1 0 0 0 0 1 forward_v I I I I #
coedge $-1 $392 $182 $287 $393 reversed $108 $-1 #
coedge $-1 $182 $392 $394 $395 reversed $108 $-1 #
coedge $-1 $190 $189 $182 $286 reversed $180 $-1 #
edge $-1 $396 -9.8342602866394007 $397 9.8342602866394007 $285 $398 forward 7 unknown #
coedge $-1 $184 $183 $283 $393 forward $69 $-1 #
coedge $-1 $293 $391 $183 $289 reversed $281 $-1 #
edge $-1 $291 -6.1734796295555405 $399 6.173479629555537 $288 $400 forward 7 unknown #
edge $-1 $397 -6.173479629555537 $191 6.1734796295555405 $189 $401 forward 7 unknown #
vertex $-1 $289 $402 #
straight-curve $-1 0 -29.520709328060796 -9.8342602866394007 1 0 0 I I #
coedge $-1 $403 $288 $186 $294 reversed $281 $-1 #
edge $-1 $298 -9.8342602866394007 $291 9.8342602866394007 $293 $404 forward 7 unknown #
coedge $-1 $394 $187 $190 $300 forward $297 $-1 #
coedge $-1 $187 $394 $403 $405 forward $297 $-1 #
loop $-1 $-1 $187 $280 #
vertex $-1 $188 $406 #
straight-curve $-1 0 -29.520709328060796 9.8342602866394007 -1 0 0 I I #
edge $-1 $192 -6.1734796295555405 $396 6.173479629555537 $190 $407 forward 7 unknown #
point $-1 -47.986937396448099 -29.520709328060793 -9.8342602866394007 #
point $-1 -47.986937396448099 -29.520709328060793 9.8342602866394007 #
face $-1 $-1 $319 $26 $-1 $408 forward single #
plane-surface $-1 -44.525332998912731 35.694188957616326 0 -1 0 0 0 0 1 forward_v I I I I #
coedge $-1 $409 $410 $322 $411 forward $195 $-1 #
coedge $-1 $315 $197 $198 $311 reversed $116 $-1 #
coedge $-1 $197 $315 $318 $412 reversed $116 $-1 #
coedge $-1 $410 $409 $197 $309 reversed $195 $-1 #
edge $-1 $413 -9.8342602866394007 $414 9.8342602866394007 $308 $415 forward 7 unknown #
coedge $-1 $199 $198 $409 $416 forward $73 $-1 #
edge $-1 $313 -6.173479629555537 $414 6.173479629555537 $306 $417 forward 7 unknown #
edge $-1 $418 -6.173479629555537 $207 6.173479629555537 $204 $419 forward 7 unknown #
vertex $-1 $311 $420 #
straight-curve $-1 0 29.520709328060796 -9.8342602866394007 -1 0 0 I I #
coedge $-1 $307 $306 $201 $316 reversed $116 $-1 #
edge $-1 $320 -9.8342602866394007 $313 9.8342602866394007 $315 $421 forward 7 unknown #
coedge $-1 $422 $202 $205 $323 forward $319 $-1 #
coedge $-1 $202 $422 $307 $412 forward $319 $-1 #
loop $-1 $-1 $202 $303 #
vertex $-1 $203 $423 #
straight-curve $-1 0 29.520709328060796 9.8342602866394007 1 0 0 I I #
coedge $-1 $205 $204 $305 $411 reversed $206 $-1 #
edge $-1 $208 -6.173479629555537 $424 6.173479629555537 $205 $425 forward 7 unknown #
point $-1 -44.525332998912731 29.520709328060789 -9.8342602866394007 #
point $-1 -44.525332998912731 29.520709328060789 9.8342602866394007 #
plane-surface $-1 0 0 9.8342602866394007 0 0 1 1 0 0 forward_v I I I I #
coedge $-1 $337 $336 $329 $426 forward $211 $-1 #
coedge $-1 $329 $213 $215 $333 reversed $124 $-1 #
coedge $-1 $213 $328 $327 $426 reversed $124 $-1 #
coedge $-1 $221 $216 $213 $331 forward $222 $-1 #
edge $-1 $334 -9.9879202920853629 $427 -0.96535241859025689 $330 $428 forward 7 unknown #
coedge $-1 $215 $214 $337 $429 reversed $77 $-1 #
edge $-1 $430 0 $334 10.526029060413805 $328 $431 forward 7 unknown #
vertex $-1 $217 $432 #
straight-curve $-1 -55.171285698696423 -3.6930344472518772 9.8342602866394007 0 1 0 I I #
coedge $-1 $327 $218 $221 $341 reversed $211 $-1 #
coedge $-1 $218 $327 $332 $429 forward $211 $-1 #
vertex $-1 $219 $433 #
straight-curve $-1 -64.193853572191529 -10.672235120130885 57.231349159279787 0 0 1 I I #
straight-curve $-1 -64.193853572191529 -10.672235120130885 4.4129544708003863 -0.85716729658548041 0 -0.51503808176128008 I I #
edge $-1 $427 4.0999026688766236 $223 10.672235120130885 $336 $434 forward 7 unknown #
point $-1 -64.193853572191529 -10.672235120130885 9.8342602866394007 #
point $-1 -55.171285698696423 -10.672235120130885 9.8342602866394007 #
edge $-1 $435 1 $435 0 $226 $-1 forward 7 unknown #
vertex $-1 $227 $436 #
ellipse-curve $-1 -56.971393266239687 -7.3860688945037545 2.6114522561120452 -0.51503808176128008 0 0.85716729658548041 1.2857509448782207 0 0.77255712264192011 1 I I #
point $-1 -58.396818690565759 -7.3860688945037545 7.8961645013618167 #
loop $-1 $-1 $238 $230 #
plane-surface $-1 64.193853572191529 0 0 -1 0 0 0 0 1 forward_v I I I I #
coedge $-1 $351 $233 $235 $355 reversed $139 $-1 #
coedge $-1 $233 $350 $437 $438 reversed $139 $-1 #
coedge $-1 $241 $236 $233 $353 forward $231 $-1 #
edge $-1 $356 28.503031243567158 $439 33.681321851982695 $352 $440 forward 7 unknown #
coedge $-1 $235 $234 $359 $441 reversed $86 $-1 #
edge $-1 $442 -128.38770714438306 $356 -121.18903599799536 $350 $443 forward 7 unknown #
vertex $-1 $237 $444 #
straight-curve $-1 59.015562963776013 -4.0594495716958825 9.8342602866393918 0 -1 0 I I #
coedge $-1 $437 $238 $241 $363 reversed $348 $-1 #
coedge $-1 $238 $437 $354 $441 forward $348 $-1 #
vertex $-1 $239 $445 #
straight-curve $-1 64.193853572191529 -3.2107083347745942 93.186813075442075 0 0 1 I I #
straight-curve $-1 -28.160533039200828 -3.2107083347745942 94.019239539491792 0.71933979245794832 0 -0.69465837861970381 I I #
edge $-1 $439 -13.027089952008936 $242 -3.2107083347745942 $358 $446 forward 7 unknown #
point $-1 64.193853572191529 -3.2107083347745942 9.8342602866394007 #
point $-1 59.015562963775992 -3.2107083347745942 9.834260286639406 #
edge $-1 $447 1 $447 0 $245 $-1 forward 7 unknown #
vertex $-1 $246 $448 #
ellipse-curve $-1 58.877018205265053 -10.222409489941981 4.5093459908135856 0.69465837861970381 0 0.71933979245794832 0.71933979245794832 0 -0.69465837861970381 1 I I #
point $-1 62.324048060441719 -10.222409489941981 6.6392932946366416 #
edge $-1 $449 1 $449 0 $249 $-1 forward 7 unknown #
vertex $-1 $250 $450 #
ellipse-curve $-1 58.877018205265053 -6.0153887968415489 4.5093459908135856 0.69465837861970381 0 0.71933979245794832 0.71933979245794832 0 -0.69465837861970381 1 I I #
point $-1 62.324048060441719 -6.0153887968415489 6.6392932946366416 #
plane-surface $-1 64.193853572191529 0 0 -1 0 0 0 0 1 forward_v I I I I #
coedge $-1 $258 $256 $260 $379 reversed $161 $-1 #
edge $-1 $271 -9.8342602866394007 $381 9.8342602866394007 $270 $451 forward 7 unknown #
vertex $-1 $379 $452 #
straight-curve $-1 -64.193853572191529 -29.520709328060796 0 0 0 -1 I I #
edge $-1 $377 -29.520709328060796 $381 29.520709328060796 $375 $453 forward 7 unknown #
straight-curve $-1 0 -29.520709328060796 -9.8342602866394007 -1 0 0 I I #
vertex $-1 $263 $454 #
straight-curve $-1 0 29.520709328060796 -9.8342602866394007 1 0 0 I I #
point $-1 64.193853572191529 29.520709328060796 -9.8342602866394007 #
point $-1 64.193853572191529 -29.520709328060796 -9.8342602866394007 #
straight-curve $-1 -64.193853572191529 0 9.8342602866394007 0 -1 0 I I #
point $-1 -64.193853572191529 29.520709328060796 9.8342602866394007 #
point $-1 -64.193853572191529 -29.520709328060796 9.8342602866394007 #
straight-curve $-1 64.193853572191529 -29.520709328060796 0 0 0 -1 I I #
straight-curve $-1 64.193853572191529 29.520709328060796 0 0 0 -1 I I #
plane-surface $-1 0 0 9.8342602866394007 0 0 1 1 0 0 forward_v I I I I #
coedge $-1 $288 $403 $392 $455 forward $281 $-1 #
coedge $-1 $284 $283 $391 $455 reversed $108 $-1 #
edge $-1 $399 -1.7308021987676838 $397 1.7308021987676838 $283 $456 forward 7 unknown #
coedge $-1 $296 $295 $284 $395 forward $297 $-1 #
edge $-1 $396 -1.7308021987676838 $457 1.7308021987676838 $284 $458 forward 7 unknown #
vertex $-1 $300 $459 #
vertex $-1 $290 $460 #
straight-curve $-1 -47.986937396448099 -41.86766858717187 0 0 0 -1 I I #
vertex $-1 $455 $461 #
straight-curve $-1 -44.525332998912731 -35.694188957616333 -9.8342602866394007 0 -1 0 I I #
straight-curve $-1 -47.986937396448099 -35.694188957616333 -9.8342602866394007 0 1 0 I I #
point $-1 -44.525332998912731 -29.520709328060793 -9.8342602866394007 #
coedge $-1 $391 $293 $296 $405 reversed $281 $-1 #
straight-curve $-1 -44.525332998912731 -29.520709328060796 0 0 0 -1 I I #
edge $-1 $457 -6.173479629555537 $298 6.1734796295555405 $403 $462 forward 7 unknown #
point $-1 -44.525332998912731 -29.520709328060793 9.8342602866394007 #
straight-curve $-1 -47.986937396448099 -35.694188957616333 9.8342602866394007 0 -1 0 I I #
plane-surface $-1 0 0 9.8342602866394007 0 0 1 1 0 0 forward_v I I I I #
coedge $-1 $308 $305 $310 $416 reversed $195 $-1 #
coedge $-1 $305 $308 $422 $463 reversed $195 $-1 #
edge $-1 $424 -9.8342602866394007 $418 9.8342602866394007 $322 $464 forward 7 unknown #
edge $-1 $413 -6.173479629555537 $320 6.173479629555537 $307 $465 forward 7 unknown #
vertex $-1 $463 $466 #
vertex $-1 $416 $467 #
straight-curve $-1 -47.986937396448099 41.867668587171863 0 0 0 -1 I I #
edge $-1 $414 -1.7308021987676838 $418 1.7308021987676838 $409 $468 forward 7 unknown #
straight-curve $-1 -47.986937396448099 35.694188957616326 -9.8342602866394007 0 1 0 I I #
vertex $-1 $312 $469 #
straight-curve $-1 -44.525332998912731 35.694188957616326 -9.8342602866394007 0 -1 0 I I #
point $-1 -47.986937396448099 29.520709328060789 -9.8342602866394007 #
straight-curve $-1 -47.986937396448099 29.520709328060796 0 0 0 -1 I I #
coedge $-1 $318 $317 $410 $463 forward $319 $-1 #
point $-1 -47.986937396448099 29.520709328060789 9.8342602866394007 #
vertex $-1 $323 $470 #
straight-curve $-1 -44.525332998912731 35.694188957616326 9.8342602866394007 0 1 0 I I #
edge $-1 $427 47.397088872640389 $430 52.818394688479401 $327 $471 forward 7 unknown #
vertex $-1 $341 $472 #
straight-curve $-1 -65.159205990781786 -4.0999026688766236 9.8342602866393989 -1 0 0 I I #
edge $-1 $430 0.40686822162474634 $338 6.9792006728790081 $337 $473 forward 7 unknown #
vertex $-1 $429 $474 #
straight-curve $-1 -64.193853572191529 -4.0999026688766236 4.4129544708003863 0.85716729658548041 0 0.51503808176128008 I I #
point $-1 -55.171285698696423 -4.0999026688766236 9.8342602866394007 #
point $-1 -64.193853572191529 -10.672235120130885 4.4129544708003863 #
straight-curve $-1 -64.193853572191529 0 9.8342602866394007 0 -1 0 I I #
vertex $-1 $344 $475 #
point $-1 -55.68564232136147 -7.3860688945037545 3.3840093787539658 #
coedge $-1 $359 $358 $351 $438 forward $348 $-1 #
edge $-1 $439 83.352552788802669 $442 88.353170015568779 $437 $476 forward 7 unknown #
vertex $-1 $363 $477 #
straight-curve $-1 30.512531720208834 -13.027089952008936 9.834260286639406 1 0 0 I I #
edge $-1 $442 -8.9676403803130533 $360 0.84874123692128833 $359 $478 forward 7 unknown #
vertex $-1 $441 $479 #
straight-curve $-1 -28.160533039200828 -13.027089952008936 94.019239539491792 -0.71933979245794832 0 0.69465837861970381 I I #
point $-1 59.015562963775992 -13.027089952008936 9.834260286639406 #
point $-1 64.193853572191529 -3.2107083347745942 4.833643059873296 #
straight-curve $-1 64.193853572191529 0 9.8342602866394007 0 1 0 I I #
vertex $-1 $366 $480 #
point $-1 59.596357997722997 -10.222409489941981 3.814687612193882 #
vertex $-1 $370 $481 #
point $-1 59.596357997722997 -6.0153887968415489 3.814687612193882 #
straight-curve $-1 -64.193853572191529 29.520709328060796 0 0 0 -1 I I #
point $-1 -64.193853572191529 -29.520709328060796 -9.8342602866394007 #
straight-curve $-1 -64.193853572191529 0 -9.8342602866394007 0 1 0 I I #
point $-1 -64.193853572191529 29.520709328060796 -9.8342602866394007 #
edge $-1 $457 -9.8342602866394007 $399 9.8342602866394007 $391 $482 forward 7 unknown #
straight-curve $-1 -46.256135197680415 -41.86766858717187 -9.8342602866394007 -1 0 0 I I #
vertex $-1 $405 $483 #
straight-curve $-1 -46.256135197680415 -41.86766858717187 9.8342602866394007 1 0 0 I I #
point $-1 -47.986937396448099 -41.86766858717187 9.8342602866394007 #
point $-1 -47.986937396448099 -41.86766858717187 -9.8342602866394007 #
point $-1 -44.525332998912731 -41.86766858717187 -9.8342602866394007 #
straight-curve $-1 -44.525332998912731 -35.694188957616333 9.8342602866394007 0 1 0 I I #
edge $-1 $424 -1.7308021987676838 $413 1.7308021987676838 $410 $484 forward 7 unknown #
straight-curve $-1 -44.525332998912731 41.867668587171863 0 0 0 -1 I I #
straight-curve $-1 -47.986937396448099 35.694188957616326 9.8342602866394007 0 -1 0 I I #
point $-1 -47.986937396448099 41.867668587171863 9.8342602866394007 #
point $-1 -47.986937396448099 41.867668587171863 -9.8342602866394007 #
straight-curve $-1 -46.256135197680415 41.867668587171863 -9.8342602866394007 1 0 0 I I #
point $-1 -44.525332998912731 41.867668587171863 -9.8342602866394007 #
point $-1 -44.525332998912731 41.867668587171863 9.8342602866394007 #
straight-curve $-1 -64.193853572191529 -4.0999026688766236 57.231349159279787 0 0 -1 I I #
point $-1 -64.193853572191529 -4.0999026688766236 9.8342602866394007 #
straight-curve $-1 -64.193853572191529 -3.6930344472518772 4.4129544708003836 0 -1 0 I I #
point $-1 -64.193853572191529 -4.0999026688766236 4.4129544708003863 #
point $-1 -56.198836143597774 -7.3860688945037545 1.3257013112338247 #
straight-curve $-1 64.193853572191529 -13.027089952008936 93.186813075442075 0 0 -1 I I #
point $-1 64.193853572191529 -13.027089952008936 9.8342602866394007 #
straight-curve $-1 64.193853572191529 -4.0594495716958825 4.833643059873296 0 1 0 I I #
point $-1 64.193853572191529 -13.027089952008936 4.833643059873296 #
point $-1 58.182359826645346 -10.222409489941981 3.7900061983556377 #
point $-1 58.182359826645346 -6.0153887968415489 3.7900061983556377 #
straight-curve $-1 -44.525332998912731 -41.86766858717187 0 0 0 -1 I I #
point $-1 -44.525332998912731 -41.86766858717187 9.8342602866394007 #
straight-curve $-1 -46.256135197680415 41.867668587171863 9.8342602866394007 -1 0 0 I I #
End-of-ACIS-data 