500 0 12 0           
7 Unknown 11 ACIS 5.0 NT 24 Fri Mar 26 15:41:21 1999 
-1 9.9999999999999995e-007 1e-010 
body $-1 $12 $-1 $13 #
body $-1 $14 $-1 $15 #
body $-1 $16 $-1 $17 #
body $-1 $18 $-1 $19 #
body $-1 $20 $-1 $21 #
body $-1 $22 $-1 $23 #
body $-1 $24 $-1 $25 #
body $-1 $26 $-1 $27 #
body $-1 $28 $-1 $29 #
body $-1 $30 $-1 $31 #
body $-1 $32 $-1 $33 #
body $-1 $34 $-1 $35 #
lump $-1 $-1 $36 $0 #
transform $-1 1 0 0 0 1 0 0 0 1 49.446089053010652 32.624429056382006 7.5652393963166427 1 rotate no_reflect no_shear #
lump $-1 $-1 $37 $1 #
transform $-1 1 0 0 0 1 0 0 0 1 49.446089053010652 32.624429056382006 7.5652393963166427 1 rotate no_reflect no_shear #
lump $-1 $-1 $38 $2 #
transform $-1 1 0 0 0 1 0 0 0 1 49.446089053010652 32.624429056382006 7.5652393963166427 1 rotate no_reflect no_shear #
lump $-1 $-1 $39 $3 #
transform $-1 1 0 0 0 1 0 0 0 1 49.446089053010652 32.624429056382006 7.5652393963166427 1 rotate no_reflect no_shear #
lump $-1 $-1 $40 $4 #
transform $-1 1 0 0 0 1 0 0 0 1 49.446089053010652 32.624429056382006 7.5652393963166427 1 rotate no_reflect no_shear #
lump $-1 $-1 $41 $5 #
transform $-1 1 0 0 0 1 0 0 0 1 49.446089053010652 32.624429056382006 7.5652393963166427 1 rotate no_reflect no_shear #
lump $-1 $-1 $42 $6 #
transform $-1 1 0 0 0 1 0 0 0 1 49.446089053010652 32.624429056382006 7.5652393963166427 1 rotate no_reflect no_shear #
lump $-1 $-1 $43 $7 #
transform $-1 1 0 0 0 1 0 0 0 1 49.446089053010652 32.624429056382006 7.5652393963166427 1 rotate no_reflect no_shear #
lump $-1 $-1 $44 $8 #
transform $-1 1 0 0 0 1 0 0 0 1 49.446089053010652 32.624429056382006 7.5652393963166427 1 rotate no_reflect no_shear #
lump $-1 $-1 $45 $9 #
transform $-1 1 0 0 0 1 0 0 0 1 49.446089053010652 32.624429056382006 7.5652393963166427 1 rotate no_reflect no_shear #
lump $-1 $-1 $46 $10 #
transform $-1 1 0 0 0 1 0 0 0 1 49.446089053010652 32.624429056382006 7.5652393963166427 1 rotate no_reflect no_shear #
lump $-1 $-1 $47 $11 #
transform $-1 1 0 0 0 1 0 0 0 1 49.446089053010652 32.624429056382006 7.5652393963166427 1 rotate no_reflect no_shear #
shell $-1 $-1 $-1 $48 $-1 $12 #
shell $-1 $-1 $-1 $49 $-1 $14 #
shell $-1 $-1 $-1 $50 $-1 $16 #
shell $-1 $-1 $-1 $51 $-1 $18 #
shell $-1 $-1 $-1 $52 $-1 $20 #
shell $-1 $-1 $-1 $53 $-1 $22 #
shell $-1 $-1 $-1 $54 $-1 $24 #
shell $-1 $-1 $-1 $55 $-1 $26 #
shell $-1 $-1 $-1 $56 $-1 $28 #
shell $-1 $-1 $-1 $57 $-1 $30 #
shell $-1 $-1 $-1 $58 $-1 $32 #
shell $-1 $-1 $-1 $59 $-1 $34 #
face $-1 $60 $61 $36 $-1 $62 forward single #
face $-1 $63 $64 $37 $-1 $65 forward single #
face $-1 $66 $67 $38 $-1 $68 reversed single #
face $-1 $69 $70 $39 $-1 $71 forward single #
face $-1 $72 $73 $40 $-1 $74 forward single #
face $-1 $75 $76 $41 $-1 $77 reversed single #
face $-1 $78 $79 $42 $-1 $80 forward single #
face $-1 $81 $82 $43 $-1 $83 forward single #
face $-1 $84 $85 $44 $-1 $86 reversed single #
face $-1 $87 $88 $45 $-1 $89 forward single #
face $-1 $90 $91 $46 $-1 $92 forward single #
face $-1 $93 $94 $47 $-1 $95 forward single #
face $-1 $96 $97 $36 $-1 $98 reversed single #
loop $-1 $-1 $99 $48 #
plane-surface $-1 0 0 7.5652393963166427 0 0 1 1 0 0 forward_v I I I I #
face $-1 $100 $101 $37 $-1 $102 reversed single #
loop $-1 $-1 $103 $49 #
plane-surface $-1 0 -32.624429056382006 0 0 1 0 0 0 1 forward_v I I I I #
face $-1 $104 $105 $38 $-1 $106 reversed single #
loop $-1 $-1 $107 $50 #
plane-surface $-1 39.690322645124468 -10.165364894428954 142.47935911084883 0 -1 0 -0.6560590369687036 0 -0.75470957328743171 forward_v I I I I #
face $-1 $108 $109 $39 $-1 $110 forward single #
loop $-1 $111 $112 $51 #
cone-surface $-1 45.888692607707014 -17.605330724830658 4.2165995778990615 -0.6560590369687036 0 -0.75470957328743171 0.75470957328743171 0 -0.6560590369687036 1 I I 0 1 1 forward I I I I #
face $-1 $113 $114 $40 $-1 $115 forward single #
loop $-1 $116 $117 $52 #
cone-surface $-1 45.888692607707014 -13.141351226589634 4.2165995778990615 -0.6560590369687036 0 -0.75470957328743171 0.75470957328743171 0 -0.6560590369687036 1 I I 0 1 1 forward I I I I #
face $-1 $118 $119 $41 $-1 $120 reversed single #
loop $-1 $-1 $121 $53 #
plane-surface $-1 39.690322645124468 28.053913612640052 142.47935911084883 0 -1 0 -0.6560590369687036 0 -0.75470957328743171 forward_v I I I I #
face $-1 $122 $123 $42 $-1 $124 forward single #
loop $-1 $125 $126 $54 #
cone-surface $-1 45.888692607707014 20.613947782238348 4.2165995778990615 -0.6560590369687036 0 -0.75470957328743171 0.75470957328743171 0 -0.6560590369687036 1 I I 0 1 1 forward I I I I #
face $-1 $127 $128 $43 $-1 $129 forward single #
loop $-1 $130 $131 $55 #
cone-surface $-1 45.888692607707014 25.077927280479372 4.2165995778990615 -0.6560590369687036 0 -0.75470957328743171 0.75470957328743171 0 -0.6560590369687036 1 I I 0 1 1 forward I I I I #
face $-1 $132 $133 $44 $-1 $134 reversed single #
loop $-1 $-1 $135 $56 #
plane-surface $-1 -115.61787294908073 -0.66209845792834443 77.605177705963101 0 1 0 -0.66913061440640931 0 0.74314481823134659 forward_v I I I I #
face $-1 $136 $137 $45 $-1 $138 forward single #
loop $-1 $139 $140 $57 #
cone-surface $-1 -46.763416109376799 1.4352073648547616 4.9886964090078401 0.66913061440640931 0 -0.74314481823134659 0.74314481823134659 0 0.66913061440640931 1 I I 0 1 1 forward I I I I #
face $-1 $141 $142 $46 $-1 $143 forward single #
loop $-1 $144 $145 $58 #
cone-surface $-1 -46.763416109376799 4.5811660990294172 4.9886964090078401 0.66913061440640931 0 -0.74314481823134659 0.74314481823134659 0 0.66913061440640931 1 I I 0 1 1 forward I I I I #
face $-1 $146 $147 $47 $-1 $148 forward single #
loop $-1 $149 $150 $59 #
cone-surface $-1 -46.763416109376799 7.7271248332040727 4.9886964090078401 0.66913061440640931 0 -0.74314481823134659 0.74314481823134659 0 0.66913061440640931 1 I I 0 1 1 forward I I I I #
face $-1 $151 $152 $36 $-1 $153 reversed single #
loop $-1 $-1 $154 $60 #
plane-surface $-1 0 0 -7.5652393963166427 0 0 1 1 0 0 forward_v I I I I #
coedge $-1 $155 $156 $157 $158 forward $61 $-1 #
face $-1 $159 $160 $37 $-1 $161 reversed single #
loop $-1 $-1 $162 $63 #
plane-surface $-1 0 0 -7.5652393963166427 0 0 1 1 0 0 forward_v I I I I #
coedge $-1 $163 $164 $165 $166 forward $64 $-1 #
face $-1 $167 $168 $38 $-1 $169 reversed single #
loop $-1 $-1 $170 $66 #
plane-surface $-1 -25.188784486849386 -15.37334097571015 67.844485570988795 0.6560590369687036 0 0.75470957328743171 0.75470957328743171 0 -0.6560590369687036 forward_v I I I I #
coedge $-1 $171 $172 $173 $174 reversed $67 $-1 #
face $-1 $-1 $175 $39 $-1 $176 forward single #
loop $-1 $177 $178 $69 #
cone-surface $-1 44.649033948875953 -17.605330724830658 2.7905354514886076 -0.6560590369687036 0 -0.75470957328743171 0.37735478664371586 0 -0.3280295184843518 1 I I -0.70710678118654746 0.70710678118654746 0.5 forward I I I I #
loop $-1 $-1 $179 $51 #
coedge $-1 $112 $112 $180 $181 reversed $70 $-1 #
face $-1 $-1 $182 $40 $-1 $183 forward single #
loop $-1 $184 $185 $72 #
cone-surface $-1 44.649033948875953 -13.141351226589634 2.7905354514886076 -0.6560590369687036 0 -0.75470957328743171 0.37735478664371586 0 -0.3280295184843518 1 I I -0.70710678118654746 0.70710678118654746 0.5 forward I I I I #
loop $-1 $-1 $186 $52 #
coedge $-1 $117 $117 $187 $188 reversed $73 $-1 #
face $-1 $189 $190 $41 $-1 $191 reversed single #
loop $-1 $-1 $192 $75 #
plane-surface $-1 -25.188784486849386 22.845937531358857 67.844485570988795 0.6560590369687036 0 0.75470957328743171 0.75470957328743171 0 -0.6560590369687036 forward_v I I I I #
coedge $-1 $193 $194 $195 $196 reversed $76 $-1 #
face $-1 $-1 $197 $42 $-1 $198 forward single #
loop $-1 $199 $200 $78 #
cone-surface $-1 44.649033948875953 20.613947782238348 2.7905354514886076 -0.6560590369687036 0 -0.75470957328743171 0.37735478664371586 0 -0.3280295184843518 1 I I -0.70710678118654746 0.70710678118654746 0.5 forward I I I I #
loop $-1 $-1 $201 $54 #
coedge $-1 $126 $126 $202 $203 reversed $79 $-1 #
face $-1 $-1 $204 $43 $-1 $205 forward single #
loop $-1 $206 $207 $81 #
cone-surface $-1 44.649033948875953 25.077927280479372 2.7905354514886076 -0.6560590369687036 0 -0.75470957328743171 0.37735478664371586 0 -0.3280295184843518 1 I I -0.70710678118654746 0.70710678118654746 0.5 forward I I I I #
loop $-1 $-1 $208 $55 #
coedge $-1 $131 $131 $209 $210 reversed $82 $-1 #
face $-1 $211 $212 $44 $-1 $213 reversed single #
loop $-1 $-1 $214 $84 #
plane-surface $-1 -49.446089053010638 4.5811660990294172 4.1139679828619506 -0.66913061440640931 0 0.74314481823134659 0.74314481823134659 0 0.66913061440640931 forward_v I I I I #
coedge $-1 $215 $216 $217 $218 reversed $85 $-1 #
face $-1 $-1 $219 $45 $-1 $220 forward single #
loop $-1 $221 $222 $87 #
cone-surface $-1 -45.662690428730592 1.4352073648547616 3.7662167193107043 0.66913061440640931 0 -0.74314481823134659 0.3715724091156733 0 0.33456530720320465 1 I I -0.70710678118654746 0.70710678118654746 0.5 forward I I I I #
loop $-1 $-1 $223 $57 #
coedge $-1 $140 $140 $224 $225 reversed $88 $-1 #
face $-1 $-1 $226 $46 $-1 $227 forward single #
loop $-1 $228 $229 $90 #
cone-surface $-1 -45.662690428730592 4.5811660990294172 3.7662167193107043 0.66913061440640931 0 -0.74314481823134659 0.3715724091156733 0 0.33456530720320465 1 I I -0.70710678118654746 0.70710678118654746 0.5 forward I I I I #
loop $-1 $-1 $230 $58 #
coedge $-1 $145 $145 $231 $232 reversed $91 $-1 #
face $-1 $-1 $233 $47 $-1 $234 forward single #
loop $-1 $235 $236 $93 #
cone-surface $-1 -45.662690428730592 7.7271248332040727 3.7662167193107043 0.66913061440640931 0 -0.74314481823134659 0.3715724091156733 0 0.33456530720320465 1 I I -0.70710678118654746 0.70710678118654746 0.5 forward I I I I #
loop $-1 $-1 $237 $59 #
coedge $-1 $150 $150 $238 $239 reversed $94 $-1 #
face $-1 $240 $241 $36 $-1 $242 reversed single #
loop $-1 $-1 $243 $96 #
plane-surface $-1 0 -32.624429056382006 0 0 1 0 0 0 1 forward_v I I I I #
coedge $-1 $244 $245 $246 $247 forward $97 $-1 #
coedge $-1 $248 $99 $249 $250 forward $61 $-1 #
coedge $-1 $99 $248 $251 $252 forward $61 $-1 #
coedge $-1 $253 $254 $99 $158 reversed $255 $-1 #
edge $-1 $256 -32.624429056382006 $257 32.624429056382006 $157 $258 forward 7 unknown #
face $-1 $259 $260 $37 $-1 $261 forward single #
loop $-1 $-1 $262 $100 #
plane-surface $-1 49.446089053010652 0 0 -1 0 0 0 0 1 forward_v I I I I #
coedge $-1 $263 $264 $265 $266 forward $101 $-1 #
coedge $-1 $265 $103 $262 $267 reversed $64 $-1 #
coedge $-1 $103 $265 $268 $269 reversed $64 $-1 #
coedge $-1 $270 $271 $103 $166 reversed $260 $-1 #
edge $-1 $272 -49.446089053010652 $273 49.446089053010652 $165 $274 forward 7 unknown #
face $-1 $275 $276 $38 $-1 $277 reversed single #
loop $-1 $-1 $278 $104 #
plane-surface $-1 39.690322645124468 -20.581317056991345 142.47935911084883 0 1 0 0.6560590369687036 0 0.75470957328743171 forward_v I I I I #
coedge $-1 $279 $280 $281 $282 reversed $105 $-1 #
coedge $-1 $172 $107 $283 $284 reversed $67 $-1 #
coedge $-1 $107 $171 $279 $285 reversed $67 $-1 #
coedge $-1 $281 $286 $107 $174 forward $287 $-1 #
edge $-1 $288 -29.600927730448419 $289 -24.309393120534509 $173 $290 forward 7 unknown #
loop $-1 $-1 $180 $108 #
plane-surface $-1 -25.188784486849386 -15.37334097571015 67.844485570988795 0.6560590369687036 0 0.75470957328743171 0.75470957328743171 0 -0.6560590369687036 forward_v I I I I #
loop $-1 $-1 $291 $69 #
coedge $-1 $178 $178 $179 $292 reversed $109 $-1 #
coedge $-1 $179 $179 $178 $292 forward $111 $-1 #
coedge $-1 $180 $180 $112 $181 forward $175 $-1 #
edge $-1 $293 0 $293 6.2831853071796004 $180 $294 forward 7 unknown #
loop $-1 $-1 $187 $113 #
plane-surface $-1 -25.188784486849386 -15.37334097571015 67.844485570988795 0.6560590369687036 0 0.75470957328743171 0.75470957328743171 0 -0.6560590369687036 forward_v I I I I #
loop $-1 $-1 $295 $72 #
coedge $-1 $185 $185 $186 $296 reversed $114 $-1 #
coedge $-1 $186 $186 $185 $296 forward $116 $-1 #
coedge $-1 $187 $187 $117 $188 forward $182 $-1 #
edge $-1 $297 0 $297 6.2831853071796004 $187 $298 forward 7 unknown #
face $-1 $299 $300 $41 $-1 $301 reversed single #
loop $-1 $-1 $302 $118 #
plane-surface $-1 39.690322645124468 17.637961450077661 142.47935911084883 0 1 0 0.6560590369687036 0 0.75470957328743171 forward_v I I I I #
coedge $-1 $303 $304 $305 $306 reversed $119 $-1 #
coedge $-1 $194 $121 $307 $308 reversed $76 $-1 #
coedge $-1 $121 $193 $303 $309 reversed $76 $-1 #
coedge $-1 $305 $310 $121 $196 forward $311 $-1 #
edge $-1 $312 -29.600927730448419 $313 -24.309393120534509 $195 $314 forward 7 unknown #
loop $-1 $-1 $202 $122 #
plane-surface $-1 -25.188784486849386 22.845937531358857 67.844485570988795 0.6560590369687036 0 0.75470957328743171 0.75470957328743171 0 -0.6560590369687036 forward_v I I I I #
loop $-1 $-1 $315 $78 #
coedge $-1 $200 $200 $201 $316 reversed $123 $-1 #
coedge $-1 $201 $201 $200 $316 forward $125 $-1 #
coedge $-1 $202 $202 $126 $203 forward $197 $-1 #
edge $-1 $317 0 $317 6.2831853071796004 $202 $318 forward 7 unknown #
loop $-1 $-1 $209 $127 #
plane-surface $-1 -25.188784486849386 22.845937531358857 67.844485570988795 0.6560590369687036 0 0.75470957328743171 0.75470957328743171 0 -0.6560590369687036 forward_v I I I I #
loop $-1 $-1 $319 $81 #
coedge $-1 $207 $207 $208 $320 reversed $128 $-1 #
coedge $-1 $208 $208 $207 $320 forward $130 $-1 #
coedge $-1 $209 $209 $131 $210 forward $204 $-1 #
edge $-1 $321 0 $321 6.2831853071796004 $209 $322 forward 7 unknown #
face $-1 $323 $324 $44 $-1 $325 forward single #
loop $-1 $-1 $326 $132 #
plane-surface $-1 -115.61787294908073 9.8244306559871788 77.605177705963101 0 -1 0 0.66913061440640931 0 -0.74314481823134659 forward_v I I I I #
coedge $-1 $327 $328 $329 $330 reversed $133 $-1 #
coedge $-1 $216 $135 $331 $332 reversed $85 $-1 #
coedge $-1 $135 $215 $327 $333 reversed $85 $-1 #
coedge $-1 $329 $334 $135 $218 forward $324 $-1 #
edge $-1 $335 8.3628474215297146 $336 12.195872561911443 $217 $337 forward 7 unknown #
loop $-1 $-1 $224 $136 #
plane-surface $-1 -49.446089053010638 4.5811660990294172 4.1139679828619506 -0.66913061440640931 0 0.74314481823134659 0.74314481823134659 0 0.66913061440640931 forward_v I I I I #
loop $-1 $-1 $338 $87 #
coedge $-1 $222 $222 $223 $339 reversed $137 $-1 #
coedge $-1 $223 $223 $222 $339 forward $139 $-1 #
coedge $-1 $224 $224 $140 $225 forward $219 $-1 #
edge $-1 $340 0 $340 6.2831853071796004 $224 $341 forward 7 unknown #
loop $-1 $-1 $231 $141 #
plane-surface $-1 -49.446089053010638 4.5811660990294172 4.1139679828619506 -0.66913061440640931 0 0.74314481823134659 0.74314481823134659 0 0.66913061440640931 forward_v I I I I #
loop $-1 $-1 $342 $90 #
coedge $-1 $229 $229 $230 $343 reversed $142 $-1 #
coedge $-1 $230 $230 $229 $343 forward $144 $-1 #
coedge $-1 $231 $231 $145 $232 forward $226 $-1 #
edge $-1 $344 0 $344 6.2831853071796004 $231 $345 forward 7 unknown #
loop $-1 $-1 $238 $146 #
plane-surface $-1 -49.446089053010638 4.5811660990294172 4.1139679828619506 -0.66913061440640931 0 0.74314481823134659 0.74314481823134659 0 0.66913061440640931 forward_v I I I I #
loop $-1 $-1 $346 $93 #
coedge $-1 $236 $236 $237 $347 reversed $147 $-1 #
coedge $-1 $237 $237 $236 $347 forward $149 $-1 #
coedge $-1 $238 $238 $150 $239 forward $233 $-1 #
edge $-1 $348 0 $348 6.2831853071796004 $238 $349 forward 7 unknown #
face $-1 $350 $351 $36 $-1 $352 reversed single #
loop $-1 $-1 $353 $151 #
plane-surface $-1 -49.446089053010652 0 0 1 0 0 0 0 -1 forward_v I I I I #
coedge $-1 $251 $354 $253 $355 reversed $152 $-1 #
coedge $-1 $356 $154 $354 $357 forward $97 $-1 #
coedge $-1 $154 $356 $358 $359 forward $97 $-1 #
coedge $-1 $254 $253 $154 $247 reversed $255 $-1 #
edge $-1 $360 -32.624429056382006 $361 32.624429056382006 $246 $362 forward 7 unknown #
coedge $-1 $156 $155 $363 $364 forward $61 $-1 #
coedge $-1 $365 $366 $155 $250 reversed $351 $-1 #
edge $-1 $257 -49.446089053010652 $367 49.446089053010652 $249 $368 forward 7 unknown #
coedge $-1 $369 $243 $156 $252 reversed $152 $-1 #
edge $-1 $370 -49.446089053010652 $256 49.446089053010652 $251 $371 forward 7 unknown #
coedge $-1 $246 $157 $243 $355 forward $255 $-1 #
coedge $-1 $157 $246 $365 $372 reversed $255 $-1 #
loop $-1 $-1 $253 $350 #
vertex $-1 $158 $373 #
vertex $-1 $158 $374 #
straight-curve $-1 49.446089053010652 0 7.5652393963166427 0 1 0 I I #
face $-1 $375 $376 $37 $-1 $377 reversed single #
loop $-1 $-1 $271 $159 #
plane-surface $-1 0 -36.360727334206359 -4.5652393963166427 0 0 1 1 0 0 forward_v I I I I #
coedge $-1 $378 $379 $163 $267 forward $160 $-1 #
coedge $-1 $380 $162 $379 $381 forward $101 $-1 #
coedge $-1 $162 $380 $382 $383 forward $101 $-1 #
coedge $-1 $164 $163 $162 $266 reversed $64 $-1 #
edge $-1 $384 -49.446089053010652 $385 49.446089053010652 $162 $386 forward 7 unknown #
edge $-1 $385 -7.5652393963166427 $273 -4.5652393963166427 $262 $387 forward 7 unknown #
coedge $-1 $382 $388 $164 $269 forward $389 $-1 #
edge $-1 $272 4.5652393963166427 $384 7.5652393963166427 $268 $390 forward 7 unknown #
coedge $-1 $391 $165 $388 $392 forward $260 $-1 #
coedge $-1 $165 $391 $378 $393 forward $260 $-1 #
vertex $-1 $269 $394 #
vertex $-1 $393 $395 #
straight-curve $-1 0 -32.624429056382006 -4.5652393963166427 1 0 0 I I #
face $-1 $-1 $287 $38 $-1 $396 forward single #
loop $-1 $-1 $397 $167 #
plane-surface $-1 49.446089053010652 0 0 -1 0 0 0 0 1 forward_v I I I I #
coedge $-1 $398 $399 $400 $401 reversed $168 $-1 #
coedge $-1 $402 $170 $172 $285 forward $105 $-1 #
coedge $-1 $170 $402 $398 $403 forward $105 $-1 #
coedge $-1 $400 $173 $170 $282 forward $287 $-1 #
edge $-1 $289 2.4786944065738794 $404 12.89464656913627 $281 $405 forward 7 unknown #
coedge $-1 $406 $407 $171 $284 forward $276 $-1 #
edge $-1 $408 -68.274301116409475 $288 -63.674440159107775 $283 $409 forward 7 unknown #
edge $-1 $289 91.880825928700219 $408 98.892178106021305 $172 $410 forward 7 unknown #
coedge $-1 $173 $400 $406 $411 forward $287 $-1 #
loop $-1 $-1 $400 $275 #
vertex $-1 $284 $412 #
vertex $-1 $174 $413 #
straight-curve $-1 19.845161322562234 -10.165364894428954 7.5652393963166418 -1 0 0 I I #
coedge $-1 $291 $291 $-1 $414 reversed $177 $-1 #
edge $-1 $415 0 $415 6.2831853071796004 $178 $416 forward 7 unknown #
vertex $-1 $181 $417 #
ellipse-curve $-1 46.800321748053712 -17.605330724830658 5.2653089176657852 0.6560590369687036 0 0.75470957328743171 0.75470957328743171 0 -0.6560590369687036 1 I I #
coedge $-1 $295 $295 $-1 $418 reversed $184 $-1 #
edge $-1 $419 0 $419 6.2831853071796004 $185 $420 forward 7 unknown #
vertex $-1 $188 $421 #
ellipse-curve $-1 46.800321748053712 -13.141351226589634 5.2653089176657852 0.6560590369687036 0 0.75470957328743171 0.75470957328743171 0 -0.6560590369687036 1 I I #
face $-1 $-1 $311 $41 $-1 $422 forward single #
loop $-1 $-1 $423 $189 #
plane-surface $-1 49.446089053010652 0 0 -1 0 0 0 0 1 forward_v I I I I #
coedge $-1 $424 $425 $426 $427 reversed $190 $-1 #
coedge $-1 $428 $192 $194 $309 forward $119 $-1 #
coedge $-1 $192 $428 $424 $429 forward $119 $-1 #
coedge $-1 $426 $195 $192 $306 forward $311 $-1 #
edge $-1 $313 -16.630944846960624 $430 -6.2149926843982328 $305 $431 forward 7 unknown #
coedge $-1 $432 $433 $193 $308 forward $300 $-1 #
edge $-1 $434 -68.274301116409475 $312 -63.674440159107775 $307 $435 forward 7 unknown #
edge $-1 $313 91.880825928700219 $434 98.892178106021305 $194 $436 forward 7 unknown #
coedge $-1 $195 $426 $432 $437 forward $311 $-1 #
loop $-1 $-1 $426 $299 #
vertex $-1 $308 $438 #
vertex $-1 $196 $439 #
straight-curve $-1 19.845161322562234 28.053913612640052 7.5652393963166418 -1 0 0 I I #
coedge $-1 $315 $315 $-1 $440 reversed $199 $-1 #
edge $-1 $441 0 $441 6.2831853071796004 $200 $442 forward 7 unknown #
vertex $-1 $203 $443 #
ellipse-curve $-1 46.800321748053712 20.613947782238348 5.2653089176657852 0.6560590369687036 0 0.75470957328743171 0.75470957328743171 0 -0.6560590369687036 1 I I #
coedge $-1 $319 $319 $-1 $444 reversed $206 $-1 #
edge $-1 $445 0 $445 6.2831853071796004 $207 $446 forward 7 unknown #
vertex $-1 $210 $447 #
ellipse-curve $-1 46.800321748053712 25.077927280479372 5.2653089176657852 0.6560590369687036 0 0.75470957328743171 0.75470957328743171 0 -0.6560590369687036 1 I I #
face $-1 $-1 $448 $44 $-1 $449 reversed single #
loop $-1 $-1 $217 $211 #
plane-surface $-1 0 0 7.5652393963166427 0 0 1 1 0 0 forward_v I I I I #
coedge $-1 $450 $451 $452 $453 reversed $212 $-1 #
coedge $-1 $454 $214 $216 $333 forward $133 $-1 #
coedge $-1 $214 $454 $450 $455 forward $133 $-1 #
coedge $-1 $452 $217 $214 $330 forward $324 $-1 #
edge $-1 $336 -2.952681507443053 $456 7.5338476064724702 $329 $457 forward 7 unknown #
coedge $-1 $458 $459 $215 $332 forward $448 $-1 #
edge $-1 $460 -34.688620870119614 $335 -31.237349456664909 $331 $461 forward 7 unknown #
edge $-1 $336 -5.1578441325933664 $460 1.8881026247711288e-014 $216 $462 forward 7 unknown #
coedge $-1 $217 $452 $458 $463 forward $324 $-1 #
vertex $-1 $332 $464 #
vertex $-1 $218 $465 #
straight-curve $-1 -57.808936474540367 -0.66209845792834443 7.5652393963166418 1 0 0 I I #
coedge $-1 $338 $338 $-1 $466 reversed $221 $-1 #
edge $-1 $467 0 $467 6.2831853071796004 $222 $468 forward 7 unknown #
vertex $-1 $225 $469 #
ellipse-curve $-1 -47.529576482819792 1.4352073648547616 5.8396036895892891 -0.66913061440640931 0 0.74314481823134659 0.74314481823134659 0 0.66913061440640931 1 I I #
coedge $-1 $342 $342 $-1 $470 reversed $228 $-1 #
edge $-1 $471 0 $471 6.2831853071796004 $229 $472 forward 7 unknown #
vertex $-1 $232 $473 #
ellipse-curve $-1 -47.529576482819792 4.5811660990294172 5.8396036895892891 -0.66913061440640931 0 0.74314481823134659 0.74314481823134659 0 0.66913061440640931 1 I I #
coedge $-1 $346 $346 $-1 $474 reversed $235 $-1 #
edge $-1 $475 0 $475 6.2831853071796004 $236 $476 forward 7 unknown #
vertex $-1 $239 $477 #
ellipse-curve $-1 -47.529576482819792 7.7271248332040727 5.8396036895892891 -0.66913061440640931 0 0.74314481823134659 0.74314481823134659 0 0.66913061440640931 1 I I #
face $-1 $-1 $255 $36 $-1 $478 reversed single #
loop $-1 $-1 $365 $240 #
plane-surface $-1 0 32.624429056382006 0 0 -1 0 0 0 -1 forward_v I I I I #
coedge $-1 $479 $363 $366 $480 forward $241 $-1 #
coedge $-1 $243 $369 $244 $357 reversed $152 $-1 #
edge $-1 $256 -7.5652393963166427 $361 7.5652393963166427 $253 $481 forward 7 unknown #
coedge $-1 $245 $244 $479 $482 forward $97 $-1 #
edge $-1 $361 -49.446089053010652 $483 49.446089053010652 $354 $484 forward 7 unknown #
coedge $-1 $366 $365 $245 $359 reversed $351 $-1 #
edge $-1 $485 -49.446089053010652 $360 49.446089053010652 $358 $486 forward 7 unknown #
vertex $-1 $247 $487 #
vertex $-1 $355 $488 #
straight-curve $-1 49.446089053010652 0 -7.5652393963166427 0 -1 0 I I #
coedge $-1 $353 $489 $248 $364 reversed $241 $-1 #
edge $-1 $367 -32.624429056382006 $370 32.624429056382006 $363 $490 forward 7 unknown #
coedge $-1 $358 $249 $254 $372 forward $351 $-1 #
coedge $-1 $249 $358 $353 $480 reversed $351 $-1 #
vertex $-1 $250 $491 #
straight-curve $-1 0 32.624429056382006 7.5652393963166427 -1 0 0 I I #
coedge $-1 $354 $251 $489 $492 forward $152 $-1 #
vertex $-1 $364 $493 #
straight-curve $-1 0 -32.624429056382006 7.5652393963166427 1 0 0 I I #
edge $-1 $257 -7.5652393963166427 $360 7.5652393963166427 $254 $494 forward 7 unknown #
point $-1 49.446089053010652 -32.624429056382006 7.5652393963166427 #
point $-1 49.446089053010652 32.624429056382006 7.5652393963166427 #
face $-1 $-1 $389 $37 $-1 $495 reversed single #
loop $-1 $-1 $496 $259 #
plane-surface $-1 0 -40.09702561203072 -6.0652393963166427 0 1 0 0 0 1 forward_v I I I I #
coedge $-1 $497 $262 $271 $393 reversed $160 $-1 #
coedge $-1 $262 $497 $263 $381 reversed $160 $-1 #
coedge $-1 $264 $263 $498 $499 forward $101 $-1 #
edge $-1 $385 32.624429056382006 $500 40.09702561203072 $379 $501 forward 7 unknown #
coedge $-1 $502 $268 $264 $383 reversed $389 $-1 #
edge $-1 $503 -40.09702561203072 $384 -32.624429056382006 $382 $504 forward 7 unknown #
vertex $-1 $269 $505 #
vertex $-1 $381 $506 #
straight-curve $-1 0 -32.624429056382006 -7.5652393963166427 1 0 0 I I #
straight-curve $-1 49.446089053010652 -32.624429056382006 0 0 0 1 I I #
coedge $-1 $268 $502 $270 $392 reversed $389 $-1 #
loop $-1 $-1 $268 $375 #
straight-curve $-1 -49.446089053010652 -32.624429056382006 0 0 0 -1 I I #
coedge $-1 $271 $270 $507 $508 forward $260 $-1 #
edge $-1 $272 -3.7362982778243605 $509 3.7362982778243605 $388 $510 forward 7 unknown #
edge $-1 $511 -3.7362982778243605 $273 3.7362982778243605 $378 $512 forward 7 unknown #
point $-1 -49.446089053010652 -32.624429056381999 -4.5652393963166427 #
point $-1 49.446089053010652 -32.624429056381999 -4.5652393963166427 #
plane-surface $-1 0 0 7.5652393963166427 0 0 1 1 0 0 forward_v I I I I #
coedge $-1 $407 $406 $399 $513 forward $276 $-1 #
coedge $-1 $399 $278 $280 $403 reversed $168 $-1 #
coedge $-1 $278 $398 $397 $513 reversed $168 $-1 #
coedge $-1 $286 $281 $278 $401 forward $287 $-1 #
edge $-1 $404 24.309393120534509 $514 29.600927730448419 $400 $515 forward 7 unknown #
coedge $-1 $280 $279 $407 $516 reversed $105 $-1 #
edge $-1 $517 -98.892178106021305 $404 -91.880825928700219 $398 $518 forward 7 unknown #
vertex $-1 $282 $519 #
straight-curve $-1 44.154554443096742 -7.6866704878550749 7.5652393963166489 0 -1 0 I I #
coedge $-1 $397 $283 $286 $411 reversed $276 $-1 #
coedge $-1 $283 $397 $402 $516 forward $276 $-1 #
vertex $-1 $284 $520 #
straight-curve $-1 49.446089053010652 -10.165364894428954 71.239679555424416 0 0 1 I I #
straight-curve $-1 -25.188784486849386 -10.165364894428954 67.844485570988795 0.75470957328743171 0 -0.6560590369687036 I I #
edge $-1 $514 -20.581317056991345 $288 -10.165364894428954 $406 $521 forward 7 unknown #
point $-1 49.446089053010652 -10.165364894428954 7.5652393963166427 #
point $-1 44.154554443096742 -10.165364894428954 7.5652393963166347 #
edge $-1 $522 1 $522 0 $291 $-1 forward 7 unknown #
vertex $-1 $292 $523 #
ellipse-curve $-1 44.977063467360303 -17.605330724830658 3.1678902381323235 0.6560590369687036 0 0.75470957328743171 0.75470957328743171 0 -0.6560590369687036 1 I I #
point $-1 47.555031321341147 -17.605330724830658 4.6092498806970958 #
edge $-1 $524 1 $524 0 $295 $-1 forward 7 unknown #
vertex $-1 $296 $525 #
ellipse-curve $-1 44.977063467360303 -13.141351226589634 3.1678902381323235 0.6560590369687036 0 0.75470957328743171 0.75470957328743171 0 -0.6560590369687036 1 I I #
point $-1 47.555031321341147 -13.141351226589634 4.6092498806970958 #
plane-surface $-1 0 0 7.5652393963166427 0 0 1 1 0 0 forward_v I I I I #
coedge $-1 $433 $432 $425 $526 forward $300 $-1 #
coedge $-1 $425 $302 $304 $429 reversed $190 $-1 #
coedge $-1 $302 $424 $423 $526 reversed $190 $-1 #
coedge $-1 $310 $305 $302 $427 forward $311 $-1 #
edge $-1 $430 24.309393120534509 $527 29.600927730448419 $426 $528 forward 7 unknown #
coedge $-1 $304 $303 $433 $529 reversed $119 $-1 #
edge $-1 $530 -98.892178106021305 $430 -91.880825928700219 $424 $531 forward 7 unknown #
vertex $-1 $306 $532 #
straight-curve $-1 44.154554443096742 11.422968765679428 7.5652393963166489 0 -1 0 I I #
coedge $-1 $423 $307 $310 $437 reversed $300 $-1 #
coedge $-1 $307 $423 $428 $529 forward $300 $-1 #
vertex $-1 $308 $533 #
straight-curve $-1 49.446089053010652 28.053913612640052 71.239679555424416 0 0 1 I I #
straight-curve $-1 -25.188784486849386 28.053913612640052 67.844485570988795 0.75470957328743171 0 -0.6560590369687036 I I #
edge $-1 $527 17.637961450077661 $312 28.053913612640052 $432 $534 forward 7 unknown #
point $-1 49.446089053010652 28.053913612640052 7.5652393963166427 #
point $-1 44.154554443096742 28.053913612640052 7.5652393963166347 #
edge $-1 $535 1 $535 0 $315 $-1 forward 7 unknown #
vertex $-1 $316 $536 #
ellipse-curve $-1 44.977063467360303 20.613947782238348 3.1678902381323235 0.6560590369687036 0 0.75470957328743171 0.75470957328743171 0 -0.6560590369687036 1 I I #
point $-1 47.555031321341147 20.613947782238348 4.6092498806970958 #
edge $-1 $537 1 $537 0 $319 $-1 forward 7 unknown #
vertex $-1 $320 $538 #
ellipse-curve $-1 44.977063467360303 25.077927280479372 3.1678902381323235 0.6560590369687036 0 0.75470957328743171 0.75470957328743171 0 -0.6560590369687036 1 I I #
point $-1 47.555031321341147 25.077927280479372 4.6092498806970958 #
loop $-1 $-1 $331 $323 #
plane-surface $-1 -49.446089053010652 0 0 1 0 0 0 0 -1 forward_v I I I I #
coedge $-1 $451 $326 $328 $455 reversed $212 $-1 #
coedge $-1 $326 $450 $539 $540 reversed $212 $-1 #
coedge $-1 $334 $329 $326 $453 forward $324 $-1 #
edge $-1 $456 -12.195872561911443 $541 -8.3628474215297146 $452 $542 forward 7 unknown #
coedge $-1 $328 $327 $459 $543 reversed $133 $-1 #
edge $-1 $544 -1.8881026247711288e-014 $456 5.1578441325933664 $450 $545 forward 7 unknown #
vertex $-1 $330 $546 #
straight-curve $-1 -45.613063912628931 2.2905830495147086 7.5652393963166418 0 1 0 I I #
coedge $-1 $539 $331 $334 $463 reversed $448 $-1 #
coedge $-1 $331 $539 $454 $543 forward $448 $-1 #
vertex $-1 $332 $547 #
straight-curve $-1 -49.446089053010652 -0.66209845792834443 38.80258885298155 0 0 1 I I #
straight-curve $-1 -49.446089053010638 -0.66209845792834443 4.1139679828619506 -0.74314481823134659 0 -0.66913061440640931 I I #
edge $-1 $541 -9.8244306559871788 $335 0.66209845792834443 $458 $548 forward 7 unknown #
point $-1 -49.446089053010652 -0.66209845792834443 7.5652393963166427 #
point $-1 -45.613063912628924 -0.66209845792834443 7.5652393963166427 #
edge $-1 $549 1 $549 0 $338 $-1 forward 7 unknown #
vertex $-1 $339 $550 #
ellipse-curve $-1 -45.997255735933798 1.4352073648547616 4.1377891284263777 -0.66913061440640931 0 0.74314481823134659 0.74314481823134659 0 0.66913061440640931 1 I I #
point $-1 -46.786431664588456 1.4352073648547616 6.5087343039957108 #
edge $-1 $551 1 $551 0 $342 $-1 forward 7 unknown #
vertex $-1 $343 $552 #
ellipse-curve $-1 -45.997255735933798 4.5811660990294172 4.1377891284263777 -0.66913061440640931 0 0.74314481823134659 0.74314481823134659 0 0.66913061440640931 1 I I #
point $-1 -46.786431664588456 4.5811660990294172 6.5087343039957108 #
edge $-1 $553 1 $553 0 $346 $-1 forward 7 unknown #
vertex $-1 $347 $554 #
ellipse-curve $-1 -45.997255735933798 7.7271248332040727 4.1377891284263777 -0.66913061440640931 0 0.74314481823134659 0.74314481823134659 0 0.66913061440640931 1 I I #
point $-1 -46.786431664588456 7.7271248332040727 6.5087343039957108 #
plane-surface $-1 49.446089053010652 0 0 -1 0 0 0 0 1 forward_v I I I I #
coedge $-1 $489 $353 $356 $482 reversed $241 $-1 #
edge $-1 $367 -7.5652393963166427 $485 7.5652393963166427 $366 $555 forward 7 unknown #
straight-curve $-1 49.446089053010652 -32.624429056382006 0 0 0 -1 I I #
edge $-1 $483 -32.624429056382006 $485 32.624429056382006 $479 $556 forward 7 unknown #
vertex $-1 $482 $557 #
straight-curve $-1 0 -32.624429056382006 -7.5652393963166427 -1 0 0 I I #
vertex $-1 $359 $558 #
straight-curve $-1 0 32.624429056382006 -7.5652393963166427 1 0 0 I I #
point $-1 49.446089053010652 32.624429056382006 -7.5652393963166427 #
point $-1 49.446089053010652 -32.624429056382006 -7.5652393963166427 #
coedge $-1 $363 $479 $369 $492 reversed $241 $-1 #
straight-curve $-1 -49.446089053010652 0 7.5652393963166427 0 -1 0 I I #
point $-1 -49.446089053010652 32.624429056382006 7.5652393963166427 #
edge $-1 $370 -7.5652393963166427 $483 7.5652393963166427 $489 $559 forward 7 unknown #
point $-1 -49.446089053010652 -32.624429056382006 7.5652393963166427 #
straight-curve $-1 49.446089053010652 32.624429056382006 0 0 0 -1 I I #
plane-surface $-1 -49.446089053010652 0 0 1 0 0 0 0 -1 forward_v I I I I #
coedge $-1 $498 $507 $502 $560 forward $376 $-1 #
coedge $-1 $379 $378 $561 $562 forward $160 $-1 #
coedge $-1 $561 $496 $380 $499 reversed $376 $-1 #
edge $-1 $500 -49.446089053010652 $503 49.446089053010652 $498 $563 forward 7 unknown #
vertex $-1 $562 $564 #
straight-curve $-1 49.446089053010652 0 -7.5652393963166427 0 -1 0 I I #
coedge $-1 $388 $382 $496 $560 reversed $389 $-1 #
vertex $-1 $383 $565 #
straight-curve $-1 -49.446089053010652 0 -7.5652393963166427 0 1 0 I I #
point $-1 -49.446089053010652 -32.624429056382006 -7.5652393963166427 #
point $-1 49.446089053010652 -32.624429056382006 -7.5652393963166427 #
coedge $-1 $496 $561 $391 $508 reversed $376 $-1 #
edge $-1 $509 -49.446089053010652 $511 49.446089053010652 $507 $566 forward 7 unknown #
vertex $-1 $392 $567 #
straight-curve $-1 -49.446089053010652 -36.360727334206359 -4.5652393963166427 0 -1 0 I I #
vertex $-1 $393 $568 #
straight-curve $-1 49.446089053010652 -36.360727334206359 -4.5652393963166427 0 1 0 I I #
edge $-1 $514 63.674440159107775 $517 68.274301116409475 $397 $569 forward 7 unknown #
vertex $-1 $411 $570 #
straight-curve $-1 19.845161322562234 -20.581317056991345 7.5652393963166418 1 0 0 I I #
edge $-1 $517 -12.89464656913627 $408 -2.4786944065738794 $407 $571 forward 7 unknown #
vertex $-1 $516 $572 #
straight-curve $-1 -25.188784486849386 -20.581317056991345 67.844485570988795 -0.75470957328743171 0 0.6560590369687036 I I #
point $-1 44.154554443096742 -20.581317056991345 7.5652393963166347 #
point $-1 49.446089053010652 -10.165364894428954 2.9653784390149411 #
straight-curve $-1 49.446089053010652 0 7.5652393963166427 0 1 0 I I #
vertex $-1 $414 $573 #
point $-1 45.731773040647738 -17.605330724830658 2.5118312011636199 #
vertex $-1 $418 $574 #
point $-1 45.731773040647738 -13.141351226589634 2.5118312011636199 #
edge $-1 $527 63.674440159107775 $530 68.274301116409475 $423 $575 forward 7 unknown #
vertex $-1 $437 $576 #
straight-curve $-1 19.845161322562234 17.637961450077661 7.5652393963166418 1 0 0 I I #
edge $-1 $530 6.2149926843982328 $434 16.630944846960624 $433 $577 forward 7 unknown #
vertex $-1 $529 $578 #
straight-curve $-1 -25.188784486849386 17.637961450077661 67.844485570988795 -0.75470957328743171 0 0.6560590369687036 I I #
point $-1 44.154554443096742 17.637961450077661 7.5652393963166347 #
point $-1 49.446089053010652 28.053913612640052 2.9653784390149411 #
straight-curve $-1 49.446089053010652 0 7.5652393963166427 0 1 0 I I #
vertex $-1 $440 $579 #
point $-1 45.731773040647738 20.613947782238348 2.5118312011636199 #
vertex $-1 $444 $580 #
point $-1 45.731773040647738 25.077927280479372 2.5118312011636199 #
coedge $-1 $459 $458 $451 $540 forward $448 $-1 #
edge $-1 $541 31.237349456664909 $544 34.688620870119614 $539 $581 forward 7 unknown #
vertex $-1 $463 $582 #
straight-curve $-1 -57.808936474540367 9.8244306559871788 7.5652393963166418 -1 0 0 I I #
edge $-1 $544 -7.5338476064724702 $460 2.952681507443053 $459 $583 forward 7 unknown #
vertex $-1 $543 $584 #
straight-curve $-1 -49.446089053010638 9.8244306559871788 4.1139679828619506 0.74314481823134659 0 0.66913061440640931 I I #
point $-1 -45.613063912628924 9.8244306559871788 7.5652393963166427 #
point $-1 -49.446089053010652 -0.66209845792834443 4.1139679828619382 #
straight-curve $-1 -49.446089053010652 0 7.5652393963166427 0 -1 0 I I #
vertex $-1 $466 $585 #
point $-1 -45.254110917702448 1.4352073648547616 4.806919742832787 #
vertex $-1 $470 $586 #
point $-1 -45.254110917702448 4.5811660990294172 4.806919742832787 #
vertex $-1 $474 $587 #
point $-1 -45.254110917702448 7.7271248332040727 4.806919742832787 #
straight-curve $-1 -49.446089053010652 32.624429056382006 0 0 0 -1 I I #
straight-curve $-1 -49.446089053010652 0 -7.5652393963166427 0 1 0 I I #
point $-1 -49.446089053010652 -32.624429056382006 -7.5652393963166427 #
point $-1 -49.446089053010652 32.624429056382006 -7.5652393963166427 #
straight-curve $-1 -49.446089053010652 -32.624429056382006 0 0 0 -1 I I #
edge $-1 $509 -1.5 $503 1.5 $502 $588 forward 7 unknown #
coedge $-1 $507 $498 $497 $562 reversed $376 $-1 #
edge $-1 $511 -1.5 $500 1.5 $497 $589 forward 7 unknown #
straight-curve $-1 0 -40.09702561203072 -7.5652393963166427 -1 0 0 I I #
point $-1 49.446089053010652 -40.09702561203072 -7.5652393963166427 #
point $-1 -49.446089053010652 -40.09702561203072 -7.5652393963166427 #
straight-curve $-1 0 -40.09702561203072 -4.5652393963166427 1 0 0 I I #
point $-1 -49.446089053010652 -40.09702561203072 -4.5652393963166427 #
point $-1 49.446089053010652 -40.09702561203072 -4.5652393963166427 #
straight-curve $-1 49.446089053010652 -20.581317056991345 71.239679555424416 0 0 -1 I I #
point $-1 49.446089053010652 -20.581317056991345 7.5652393963166427 #
straight-curve $-1 49.446089053010652 -7.6866704878550749 2.9653784390149482 0 1 0 I I #
point $-1 49.446089053010652 -20.581317056991345 2.9653784390149411 #
point $-1 44.321004430391604 -17.605330724830658 2.4131806648448917 #
point $-1 44.321004430391604 -13.141351226589634 2.4131806648448917 #
straight-curve $-1 49.446089053010652 17.637961450077661 71.239679555424416 0 0 -1 I I #
point $-1 49.446089053010652 17.637961450077661 7.5652393963166427 #
straight-curve $-1 49.446089053010652 11.422968765679428 2.9653784390149482 0 1 0 I I #
point $-1 49.446089053010652 17.637961450077661 2.9653784390149411 #
point $-1 44.321004430391604 20.613947782238348 2.4131806648448917 #
point $-1 44.321004430391604 25.077927280479372 2.4131806648448917 #
straight-curve $-1 -49.446089053010652 9.8244306559871788 38.80258885298155 0 0 -1 I I #
point $-1 -49.446089053010652 9.8244306559871788 7.5652393963166427 #
straight-curve $-1 -49.446089053010652 2.2905830495147086 4.1139679828619355 0 -1 0 I I #
point $-1 -49.446089053010652 9.8244306559871788 4.1139679828619382 #
point $-1 -45.328125121527385 1.4352073648547616 3.394644310195031 #
point $-1 -45.328125121527385 4.5811660990294172 3.394644310195031 #
point $-1 -45.328125121527385 7.7271248332040727 3.394644310195031 #
straight-curve $-1 -49.446089053010652 -40.09702561203072 -6.0652393963166427 0 0 -1 I I #
straight-curve $-1 49.446089053010652 -40.09702561203072 -6.0652393963166427 0 0 -1 I I #
End-of-ACIS-data 