500 0 5 0           
7 Unknown 11 ACIS 5.0 NT 24 Fri Mar 26 00:52:58 1999 
-1 9.9999999999999995e-007 1e-010 
body $-1 $5 $-1 $6 #
body $-1 $7 $-1 $8 #
body $-1 $9 $-1 $10 #
body $-1 $11 $-1 $12 #
body $-1 $13 $-1 $14 #
lump $-1 $-1 $15 $0 #
transform $-1 1 0 0 0 1 0 0 0 1 50.847499008148446 32.554224004102977 10.447812587345418 1 rotate no_reflect no_shear #
lump $-1 $-1 $16 $1 #
transform $-1 1 0 0 0 1 0 0 0 1 50.847499008148446 32.554224004102977 10.447812587345418 1 rotate no_reflect no_shear #
lump $-1 $-1 $17 $2 #
transform $-1 1 0 0 0 1 0 0 0 1 50.847499008148446 32.554224004102977 10.447812587345418 1 rotate no_reflect no_shear #
lump $-1 $-1 $18 $3 #
transform $-1 1 0 0 0 1 0 0 0 1 50.847499008148446 32.554224004102977 10.447812587345418 1 rotate no_reflect no_shear #
lump $-1 $-1 $19 $4 #
transform $-1 1 0 0 0 1 0 0 0 1 50.847499008148446 32.554224004102977 10.447812587345418 1 rotate no_reflect no_shear #
shell $-1 $-1 $-1 $20 $-1 $5 #
shell $-1 $-1 $-1 $21 $-1 $7 #
shell $-1 $-1 $-1 $22 $-1 $9 #
shell $-1 $-1 $-1 $23 $-1 $11 #
shell $-1 $-1 $-1 $24 $-1 $13 #
face $-1 $25 $26 $15 $-1 $27 forward single #
face $-1 $28 $29 $16 $-1 $30 forward single #
face $-1 $31 $32 $17 $-1 $33 forward single #
face $-1 $34 $35 $18 $-1 $36 reversed single #
face $-1 $37 $38 $19 $-1 $39 reversed single #
face $-1 $40 $41 $15 $-1 $42 reversed single #
loop $-1 $-1 $43 $20 #
plane-surface $-1 0 0 10.447812587345418 0 0 1 1 0 0 forward_v I I I I #
face $-1 $44 $45 $16 $-1 $46 reversed single #
loop $-1 $-1 $47 $21 #
plane-surface $-1 -54.405654043693723 0 2.1280671896258458 0 0 1 1 0 0 forward_v I I I I #
face $-1 $48 $49 $17 $-1 $50 forward single #
loop $-1 $-1 $51 $22 #
plane-surface $-1 -43.731188937057901 86.190522871856246 113.80620674820983 1 0 0 0 -0.85716730853699208 -0.51503806187062418 forward_v I I I I #
face $-1 $52 $53 $18 $-1 $54 reversed single #
loop $-1 $55 $56 $23 #
cone-surface $-1 -35.966029148043091 29.741853219560102 7.2157493964387589 0 -0.85716730853699208 -0.51503806187062418 1 0 0 1 I I 0 1 1 forward I I I I #
face $-1 $57 $58 $19 $-1 $59 reversed single #
loop $-1 $60 $61 $24 #
cone-surface $-1 -24.318289464520888 29.741853219560102 7.2157493964387589 0 -0.85716730853699208 -0.51503806187062418 1 0 0 1 I I 0 1 1 forward I I I I #
face $-1 $62 $63 $15 $-1 $64 reversed single #
loop $-1 $-1 $65 $25 #
plane-surface $-1 0 0 -10.447812587345418 0 0 1 1 0 0 forward_v I I I I #
coedge $-1 $66 $67 $68 $69 forward $26 $-1 #
face $-1 $70 $71 $16 $-1 $72 reversed single #
loop $-1 $-1 $73 $28 #
plane-surface $-1 -54.405654043693723 0 -3.1477162703410326 0 0 1 1 0 0 forward_v I I I I #
coedge $-1 $74 $75 $76 $77 reversed $29 $-1 #
face $-1 $78 $79 $17 $-1 $80 forward single #
loop $-1 $-1 $81 $31 #
plane-surface $-1 -30.142159306281989 -0.9791048694477098 61.429412067959312 0 0.85716730853699208 0.51503806187062418 1 0 0 forward_v I I I I #
coedge $-1 $82 $83 $84 $85 reversed $32 $-1 #
face $-1 $86 $87 $18 $-1 $88 forward single #
loop $-1 $89 $90 $34 #
cone-surface $-1 -35.966029148043091 27.951146033826376 6.1397840053971393 0 -0.85716730853699208 -0.51503806187062418 0.5 0 0 1 I I -0.70710678118654746 0.70710678118654746 0.5 forward I I I I #
loop $-1 $-1 $91 $23 #
coedge $-1 $56 $56 $92 $93 reversed $35 $-1 #
face $-1 $94 $95 $19 $-1 $96 reversed single #
loop $-1 $97 $98 $37 #
cone-surface $-1 -24.318289464520888 27.951146033826376 6.1397840053971393 0 -0.85716730853699208 -0.51503806187062418 0.5 0 0 1 I I -0.70710678118654746 0.70710678118654746 0.5 forward I I I I #
loop $-1 $-1 $99 $24 #
coedge $-1 $61 $61 $100 $101 reversed $38 $-1 #
face $-1 $102 $103 $15 $-1 $104 reversed single #
loop $-1 $-1 $105 $40 #
plane-surface $-1 0 -32.554224004102977 0 0 1 0 0 0 1 forward_v I I I I #
coedge $-1 $106 $107 $108 $109 forward $41 $-1 #
coedge $-1 $110 $43 $111 $112 forward $26 $-1 #
coedge $-1 $43 $110 $113 $114 forward $26 $-1 #
coedge $-1 $115 $116 $43 $69 reversed $117 $-1 #
edge $-1 $118 -32.554224004102977 $119 32.554224004102977 $68 $120 forward 7 unknown #
face $-1 $121 $122 $16 $-1 $123 reversed single #
loop $-1 $-1 $124 $44 #
plane-surface $-1 -57.963809079238999 0 -0.50982454035759339 1 0 0 0 0 -1 forward_v I I I I #
coedge $-1 $125 $126 $127 $128 reversed $45 $-1 #
coedge $-1 $129 $47 $130 $131 forward $29 $-1 #
coedge $-1 $47 $129 $132 $133 forward $29 $-1 #
coedge $-1 $134 $135 $47 $77 forward $136 $-1 #
edge $-1 $137 -32.554224004102977 $138 32.554224004102977 $76 $139 forward 7 unknown #
face $-1 $140 $141 $17 $-1 $142 forward single #
loop $-1 $-1 $143 $48 #
plane-surface $-1 -16.553129675506078 86.190522871856246 113.80620674820983 -1 0 0 0 0.85716730853699208 0.51503806187062418 forward_v I I I I #
coedge $-1 $144 $145 $146 $147 reversed $49 $-1 #
coedge $-1 $83 $51 $145 $148 forward $32 $-1 #
coedge $-1 $51 $82 $149 $150 reversed $32 $-1 #
coedge $-1 $151 $146 $51 $85 forward $141 $-1 #
edge $-1 $152 -13.441531937980415 $153 -10.541037431825146 $84 $154 forward 7 unknown #
face $-1 $155 $156 $18 $-1 $157 forward single #
loop $-1 $-1 $158 $52 #
plane-surface $-1 -43.731188937057901 86.190522871856246 113.80620674820983 1 0 0 0 -0.85716730853699208 -0.51503806187062418 forward_v I I I I #
loop $-1 $-1 $159 $34 #
coedge $-1 $90 $90 $91 $160 forward $53 $-1 #
coedge $-1 $91 $91 $90 $160 reversed $55 $-1 #
coedge $-1 $92 $92 $56 $93 forward $156 $-1 #
edge $-1 $161 1.2285910259226982e-015 $161 6.2831853071796013 $92 $162 forward 7 unknown #
face $-1 $163 $164 $19 $-1 $165 reversed single #
loop $-1 $166 $167 $57 #
cone-surface $-1 -35.966029148043091 29.741853219560102 7.2157493964387589 0 -0.85716730853699208 -0.51503806187062418 1 0 0 1 I I 0 1 1 forward I I I I #
loop $-1 $-1 $168 $37 #
coedge $-1 $98 $98 $99 $169 forward $58 $-1 #
coedge $-1 $99 $99 $98 $169 reversed $60 $-1 #
coedge $-1 $100 $100 $61 $101 forward $170 $-1 #
edge $-1 $171 1.2285910259226982e-015 $171 6.2831853071796013 $100 $172 forward 7 unknown #
face $-1 $173 $174 $15 $-1 $175 reversed single #
loop $-1 $-1 $176 $62 #
plane-surface $-1 -50.847499008148446 0 0 1 0 0 0 0 -1 forward_v I I I I #
coedge $-1 $177 $113 $178 $179 forward $63 $-1 #
coedge $-1 $180 $65 $177 $181 forward $41 $-1 #
coedge $-1 $65 $180 $182 $183 forward $41 $-1 #
coedge $-1 $116 $115 $65 $109 reversed $117 $-1 #
edge $-1 $184 -32.554224004102977 $185 32.554224004102977 $108 $186 forward 7 unknown #
coedge $-1 $67 $66 $187 $188 forward $26 $-1 #
coedge $-1 $189 $190 $66 $112 reversed $174 $-1 #
edge $-1 $119 -50.847499008148446 $191 50.847499008148446 $111 $192 forward 7 unknown #
coedge $-1 $105 $193 $67 $114 reversed $63 $-1 #
edge $-1 $194 -50.847499008148446 $118 50.847499008148446 $113 $195 forward 7 unknown #
coedge $-1 $108 $68 $193 $196 forward $117 $-1 #
coedge $-1 $68 $108 $189 $197 reversed $117 $-1 #
loop $-1 $-1 $115 $173 #
vertex $-1 $69 $198 #
vertex $-1 $69 $199 #
straight-curve $-1 50.847499008148446 0 10.447812587345418 0 1 0 I I #
face $-1 $200 $136 $16 $-1 $123 reversed single #
loop $-1 $-1 $127 $70 #
plane-surface $-1 -50.847499008148446 0 0 1 0 0 0 0 -1 forward_v I I I I #
coedge $-1 $201 $202 $203 $204 forward $71 $-1 #
coedge $-1 $205 $73 $206 $207 forward $45 $-1 #
coedge $-1 $73 $205 $208 $209 forward $45 $-1 #
coedge $-1 $210 $211 $73 $128 forward $122 $-1 #
edge $-1 $212 -32.554224004102977 $213 32.554224004102977 $127 $214 forward 7 unknown #
coedge $-1 $75 $74 $202 $215 forward $29 $-1 #
coedge $-1 $216 $203 $74 $131 reversed $217 $-1 #
edge $-1 $137 -3.5581550355452762 $218 3.5581550355452762 $130 $219 forward 7 unknown #
coedge $-1 $220 $221 $75 $133 reversed $222 $-1 #
edge $-1 $223 -3.5581550355452762 $138 3.5581550355452762 $132 $224 forward 7 unknown #
coedge $-1 $225 $76 $221 $226 reversed $136 $-1 #
coedge $-1 $76 $225 $216 $227 forward $136 $-1 #
loop $-1 $-1 $76 $121 #
vertex $-1 $227 $228 #
vertex $-1 $133 $229 #
straight-curve $-1 -50.847499008148446 0 2.1280671896258458 0 -1 0 I I #
face $-1 $230 $231 $17 $-1 $232 forward single #
loop $-1 $-1 $233 $78 #
plane-surface $-1 0 0 10.447812587345418 0 0 1 1 0 0 forward_v I I I I #
coedge $-1 $234 $235 $233 $236 reversed $79 $-1 #
coedge $-1 $237 $81 $235 $238 reversed $49 $-1 #
coedge $-1 $81 $237 $82 $148 reversed $49 $-1 #
coedge $-1 $84 $233 $81 $147 forward $141 $-1 #
edge $-1 $239 1.4820500223650832 $152 28.660109283916906 $146 $240 forward 7 unknown #
edge $-1 $152 59.476836053895923 $241 65.10844800820594 $82 $242 forward 7 unknown #
coedge $-1 $243 $244 $83 $150 forward $245 $-1 #
edge $-1 $153 46.455290786759498 $241 51.282524448360164 $149 $246 forward 7 unknown #
coedge $-1 $247 $84 $244 $248 forward $141 $-1 #
vertex $-1 $147 $249 #
vertex $-1 $248 $250 #
straight-curve $-1 -43.731188937057901 43.095261435928123 10.447812587345418 0 1 0 I I #
face $-1 $251 $252 $18 $-1 $253 forward single #
loop $-1 $254 $92 $86 #
plane-surface $-1 -30.142159306281989 -0.9791048694477098 61.429412067959312 0 0.85716730853699208 0.51503806187062418 1 0 0 forward_v I I I I #
coedge $-1 $255 $256 $257 $258 reversed $87 $-1 #
coedge $-1 $159 $159 $-1 $259 forward $89 $-1 #
edge $-1 $260 0 $260 6.2831853071796004 $90 $261 forward 7 unknown #
vertex $-1 $93 $262 #
ellipse-curve $-1 -35.966029148043091 31.103976751025346 8.0341957565450741 0 -0.85716730853699208 -0.51503806187062418 1 0 0 1 I I #
face $-1 $263 $264 $19 $-1 $265 forward single #
loop $-1 $266 $267 $94 #
cone-surface $-1 -35.966029148043091 27.951146033826376 6.1397840053971393 0 -0.85716730853699208 -0.51503806187062418 0.5 0 0 1 I I -0.70710678118654746 0.70710678118654746 0.5 forward I I I I #
loop $-1 $-1 $268 $57 #
coedge $-1 $167 $167 $269 $270 reversed $95 $-1 #
coedge $-1 $168 $168 $-1 $271 forward $97 $-1 #
edge $-1 $272 0 $272 6.2831853071796004 $98 $273 forward 7 unknown #
loop $-1 $274 $100 $263 #
vertex $-1 $101 $275 #
ellipse-curve $-1 -24.318289464520888 31.103976751025346 8.0341957565450741 0 -0.85716730853699208 -0.51503806187062418 1 0 0 1 I I #
face $-1 $-1 $117 $15 $-1 $276 reversed single #
loop $-1 $-1 $189 $102 #
plane-surface $-1 0 32.554224004102977 0 0 -1 0 0 0 -1 forward_v I I I I #
coedge $-1 $277 $187 $190 $278 forward $103 $-1 #
coedge $-1 $193 $105 $106 $181 reversed $63 $-1 #
coedge $-1 $187 $277 $105 $179 reversed $103 $-1 #
edge $-1 $194 -10.447812587345418 $279 10.447812587345418 $178 $280 forward 7 unknown #
coedge $-1 $107 $106 $277 $281 forward $41 $-1 #
edge $-1 $185 -50.847499008148446 $279 50.847499008148446 $177 $282 forward 7 unknown #
coedge $-1 $190 $189 $107 $183 reversed $174 $-1 #
edge $-1 $283 -50.847499008148446 $184 50.847499008148446 $182 $284 forward 7 unknown #
vertex $-1 $109 $285 #
vertex $-1 $196 $286 #
straight-curve $-1 50.847499008148446 0 -10.447812587345418 0 -1 0 I I #
coedge $-1 $176 $178 $110 $188 reversed $103 $-1 #
edge $-1 $191 -32.554224004102977 $194 32.554224004102977 $187 $287 forward 7 unknown #
coedge $-1 $182 $111 $116 $197 forward $174 $-1 #
coedge $-1 $111 $182 $176 $278 reversed $174 $-1 #
vertex $-1 $112 $288 #
straight-curve $-1 0 32.554224004102977 10.447812587345418 -1 0 0 I I #
coedge $-1 $113 $177 $115 $196 reversed $63 $-1 #
vertex $-1 $188 $289 #
straight-curve $-1 0 -32.554224004102977 10.447812587345418 1 0 0 I I #
edge $-1 $118 -10.447812587345418 $185 10.447812587345418 $115 $290 forward 7 unknown #
edge $-1 $119 -10.447812587345418 $184 10.447812587345418 $116 $291 forward 7 unknown #
point $-1 50.847499008148446 -32.554224004102977 10.447812587345418 #
point $-1 50.847499008148446 32.554224004102977 10.447812587345418 #
face $-1 $292 $293 $16 $-1 $294 forward single #
coedge $-1 $295 $124 $205 $296 reversed $71 $-1 #
coedge $-1 $124 $295 $129 $215 reversed $71 $-1 #
coedge $-1 $130 $208 $124 $204 reversed $217 $-1 #
edge $-1 $218 -2.6378917299834392 $297 2.6378917299834392 $203 $298 forward 7 unknown #
coedge $-1 $126 $125 $201 $296 forward $45 $-1 #
coedge $-1 $299 $220 $125 $207 reversed $222 $-1 #
edge $-1 $212 -3.5581550355452762 $300 3.5581550355452762 $206 $301 forward 7 unknown #
coedge $-1 $203 $302 $126 $209 reversed $217 $-1 #
edge $-1 $297 -3.5581550355452762 $213 3.5581550355452762 $208 $303 forward 7 unknown #
coedge $-1 $304 $127 $302 $305 forward $122 $-1 #
coedge $-1 $127 $304 $299 $306 reversed $122 $-1 #
vertex $-1 $306 $307 #
vertex $-1 $305 $308 #
straight-curve $-1 -50.847499008148446 0 -3.1477162703410326 0 1 0 I I #
edge $-1 $218 -32.554224004102977 $223 32.554224004102977 $202 $309 forward 7 unknown #
coedge $-1 $310 $130 $135 $227 reversed $217 $-1 #
loop $-1 $-1 $311 $312 #
vertex $-1 $131 $313 #
straight-curve $-1 -54.405654043693723 32.554224004102977 2.1280671896258458 -1 0 0 I I #
coedge $-1 $206 $132 $295 $314 forward $222 $-1 #
coedge $-1 $132 $315 $134 $226 forward $222 $-1 #
loop $-1 $-1 $221 $316 #
vertex $-1 $215 $317 #
straight-curve $-1 -54.405654043693723 -32.554224004102977 2.1280671896258458 1 0 0 I I #
coedge $-1 $135 $134 $318 $319 reversed $136 $-1 #
edge $-1 $320 -10.447812587345418 $138 -2.1280671896258458 $134 $321 forward 7 unknown #
edge $-1 $322 -10.447812587345418 $137 -2.1280671896258458 $216 $323 forward 7 unknown #
point $-1 -50.847499008148446 32.554224004102977 2.1280671896258458 #
point $-1 -50.847499008148446 -32.554224004102977 2.1280671896258458 #
face $-1 $324 $325 $17 $-1 $326 reversed single #
loop $-1 $-1 $327 $140 #
plane-surface $-1 -54.405654043693723 0 2.1280671896258458 0 0 1 1 0 0 forward_v I I I I #
coedge $-1 $146 $328 $143 $236 forward $141 $-1 #
coedge $-1 $235 $143 $329 $330 reversed $79 $-1 #
coedge $-1 $143 $234 $144 $238 forward $79 $-1 #
edge $-1 $331 10.541037431825146 $239 13.441531937980415 $233 $332 forward 7 unknown #
coedge $-1 $145 $144 $243 $333 reversed $49 $-1 #
edge $-1 $334 -65.10844800820594 $239 -59.476836053895923 $235 $335 forward 7 unknown #
vertex $-1 $147 $336 #
straight-curve $-1 -15.071079653140995 29.653729497947705 10.447812587345418 -1 0 0 I I #
vertex $-1 $333 $337 #
straight-curve $-1 -43.731188937057901 -0.9791048694477098 61.429412067959312 0 0.51503806187062418 -0.85716730853699208 I I #
coedge $-1 $329 $149 $237 $333 forward $245 $-1 #
coedge $-1 $149 $338 $151 $248 reversed $245 $-1 #
loop $-1 $-1 $329 $339 #
straight-curve $-1 -43.731188937057901 32.554224004102977 56.903103374104916 0 0 -1 I I #
coedge $-1 $340 $151 $341 $342 forward $141 $-1 #
edge $-1 $153 43.731188937057901 $343 50.847499008148446 $244 $344 forward 7 unknown #
point $-1 -43.731188937057901 29.653729497947708 10.447812587345418 #
point $-1 -43.731188937057901 32.554224004102977 10.447812587345418 #
face $-1 $345 $346 $18 $-1 $347 forward single #
loop $-1 $-1 $348 $155 #
plane-surface $-1 -16.553129675506078 86.190522871856246 113.80620674820983 -1 0 0 0 0.85716730853699208 0.51503806187062418 forward_v I I I I #
loop $-1 $-1 $349 $86 #
coedge $-1 $256 $158 $350 $351 forward $87 $-1 #
coedge $-1 $158 $255 $352 $353 reversed $87 $-1 #
coedge $-1 $354 $355 $158 $258 forward $346 $-1 #
edge $-1 $356 -13.441531937980415 $357 -10.541037431825146 $257 $358 forward 7 unknown #
edge $-1 $359 1 $359 0 $159 $-1 forward 7 unknown #
vertex $-1 $160 $360 #
ellipse-curve $-1 -35.966029148043091 28.379729688094873 6.3973030363324517 0 0.85716730853699208 0.51503806187062418 1 0 0 1 I I #
point $-1 -34.966029148043091 31.103976751025332 8.034195756545067 #
face $-1 $361 $170 $19 $-1 $362 forward single #
loop $-1 $-1 $363 $163 #
plane-surface $-1 -43.731188937057901 86.190522871856246 113.80620674820983 1 0 0 0 -0.85716730853699208 -0.51503806187062418 forward_v I I I I #
loop $-1 $-1 $364 $94 #
coedge $-1 $267 $267 $268 $365 forward $164 $-1 #
coedge $-1 $268 $268 $267 $365 reversed $166 $-1 #
coedge $-1 $269 $269 $167 $270 forward $274 $-1 #
edge $-1 $366 1.2285910259226982e-015 $366 6.2831853071796013 $269 $367 forward 7 unknown #
edge $-1 $368 1 $368 0 $168 $-1 forward 7 unknown #
vertex $-1 $169 $369 #
ellipse-curve $-1 -24.318289464520888 28.379729688094873 6.3973030363324517 0 0.85716730853699208 0.51503806187062418 1 0 0 1 I I #
loop $-1 $370 $269 $263 #
point $-1 -23.318289464520888 31.103976751025332 8.034195756545067 #
plane-surface $-1 50.847499008148446 0 0 -1 0 0 0 0 1 forward_v I I I I #
coedge $-1 $178 $176 $180 $281 reversed $103 $-1 #
edge $-1 $191 -10.447812587345418 $283 10.447812587345418 $190 $371 forward 7 unknown #
vertex $-1 $281 $372 #
straight-curve $-1 -50.847499008148446 -32.554224004102977 0 0 0 -1 I I #
edge $-1 $279 -32.554224004102977 $283 32.554224004102977 $277 $373 forward 7 unknown #
straight-curve $-1 0 -32.554224004102977 -10.447812587345418 -1 0 0 I I #
vertex $-1 $183 $374 #
straight-curve $-1 0 32.554224004102977 -10.447812587345418 1 0 0 I I #
point $-1 50.847499008148446 32.554224004102977 -10.447812587345418 #
point $-1 50.847499008148446 -32.554224004102977 -10.447812587345418 #
straight-curve $-1 -50.847499008148446 0 10.447812587345418 0 -1 0 I I #
point $-1 -50.847499008148446 32.554224004102977 10.447812587345418 #
point $-1 -50.847499008148446 -32.554224004102977 10.447812587345418 #
straight-curve $-1 50.847499008148446 -32.554224004102977 0 0 0 -1 I I #
straight-curve $-1 50.847499008148446 32.554224004102977 0 0 0 -1 I I #
face $-1 $316 $375 $16 $-1 $376 reversed single #
loop $-1 $-1 $377 $200 #
plane-surface $-1 0 0 10.447812587345418 0 0 1 1 0 0 forward_v I I I I #
coedge $-1 $202 $201 $220 $314 reversed $71 $-1 #
edge $-1 $300 -32.554224004102977 $297 32.554224004102977 $201 $378 forward 7 unknown #
vertex $-1 $209 $379 #
straight-curve $-1 -57.963809079238999 32.554224004102977 -0.50982454035759339 0 0 -1 I I #
coedge $-1 $380 $206 $211 $306 forward $222 $-1 #
vertex $-1 $296 $381 #
straight-curve $-1 -54.405654043693723 -32.554224004102977 -3.1477162703410326 -1 0 0 I I #
coedge $-1 $208 $382 $210 $305 reversed $217 $-1 #
straight-curve $-1 -54.405654043693723 32.554224004102977 -3.1477162703410326 1 0 0 I I #
coedge $-1 $211 $210 $383 $384 reversed $122 $-1 #
edge $-1 $213 3.1477162703410326 $385 10.447812587345418 $302 $323 forward 7 unknown #
edge $-1 $212 3.1477162703410326 $386 10.447812587345418 $211 $321 forward 7 unknown #
point $-1 -50.847499008148446 -32.554224004102977 -3.1477162703410326 #
point $-1 -50.847499008148446 32.554224004102977 -3.1477162703410326 #
straight-curve $-1 -57.963809079238999 0 2.1280671896258458 0 -1 0 I I #
coedge $-1 $311 $216 $387 $388 reversed $217 $-1 #
coedge $-1 $382 $310 $389 $390 forward $217 $-1 #
face $-1 $391 $217 $16 $-1 $392 reversed single #
point $-1 -57.963809079238999 32.554224004102977 2.1280671896258458 #
edge $-1 $223 -2.6378917299834392 $300 2.6378917299834392 $295 $393 forward 7 unknown #
coedge $-1 $221 $394 $395 $396 reversed $222 $-1 #
face $-1 $312 $222 $16 $-1 $397 reversed single #
point $-1 -57.963809079238999 -32.554224004102977 2.1280671896258458 #
coedge $-1 $395 $387 $225 $319 forward $293 $-1 #
edge $-1 $322 -32.554224004102977 $320 32.554224004102977 $225 $398 forward 7 unknown #
vertex $-1 $319 $399 #
straight-curve $-1 -50.847499008148446 -32.554224004102977 0 0 0 -1 I I #
vertex $-1 $388 $400 #
straight-curve $-1 -50.847499008148446 32.554224004102977 0 0 0 -1 I I #
face $-1 $401 $402 $17 $-1 $403 reversed single #
loop $-1 $-1 $404 $230 #
plane-surface $-1 -54.405654043693723 0 -3.1477162703410326 0 0 1 1 0 0 forward_v I I I I #
coedge $-1 $405 $406 $407 $408 reversed $231 $-1 #
coedge $-1 $233 $409 $410 $411 forward $141 $-1 #
coedge $-1 $410 $243 $234 $330 forward $245 $-1 #
edge $-1 $334 -51.282524448360164 $331 -46.455290786759498 $329 $412 forward 7 unknown #
vertex $-1 $330 $413 #
straight-curve $-1 -16.553129675506078 43.095261435928123 10.447812587345418 0 -1 0 I I #
edge $-1 $241 -28.660109283916906 $334 -1.4820500223650832 $243 $414 forward 7 unknown #
vertex $-1 $333 $415 #
straight-curve $-1 -16.553129675506078 -0.9791048694477098 61.429412067959312 0 -0.51503806187062418 0.85716730853699208 I I #
point $-1 -16.553129675506078 29.653729497947708 10.447812587345418 #
point $-1 -43.731188937057901 32.554224004102977 5.620578925744752 #
coedge $-1 $244 $416 $417 $418 reversed $245 $-1 #
face $-1 $419 $245 $17 $-1 $420 reversed single #
coedge $-1 $409 $247 $421 $422 forward $141 $-1 #
coedge $-1 $417 $423 $247 $342 reversed $424 $-1 #
edge $-1 $343 -32.554224004102977 $425 32.554224004102977 $341 $426 forward 7 unknown #
vertex $-1 $248 $427 #
straight-curve $-1 0 32.554224004102977 10.447812587345418 -1 0 0 I I #
face $-1 $428 $429 $18 $-1 $430 forward single #
loop $-1 $-1 $431 $251 #
plane-surface $-1 0 0 10.447812587345418 0 0 1 1 0 0 forward_v I I I I #
coedge $-1 $432 $433 $431 $434 reversed $252 $-1 #
coedge $-1 $435 $350 $355 $436 reversed $254 $-1 #
coedge $-1 $349 $437 $255 $351 reversed $254 $-1 #
edge $-1 $356 59.476836053895923 $438 65.10844800820594 $255 $439 forward 7 unknown #
coedge $-1 $440 $441 $256 $353 forward $442 $-1 #
edge $-1 $357 46.455290786759498 $438 51.282524448360164 $352 $443 forward 7 unknown #
coedge $-1 $444 $257 $441 $445 forward $346 $-1 #
coedge $-1 $257 $431 $349 $436 forward $346 $-1 #
vertex $-1 $436 $446 #
vertex $-1 $445 $447 #
straight-curve $-1 -43.731188937057901 43.095261435928123 10.447812587345418 0 1 0 I I #
vertex $-1 $259 $448 #
point $-1 -34.966029148043091 28.379729688094873 6.3973030363324517 #
face $-1 $449 $450 $19 $-1 $451 forward single #
plane-surface $-1 -30.142159306281989 -0.9791048694477098 61.429412067959312 0 0.85716730853699208 0.51503806187062418 1 0 0 forward_v I I I I #
coedge $-1 $452 $453 $454 $455 reversed $264 $-1 #
coedge $-1 $364 $364 $-1 $456 forward $266 $-1 #
edge $-1 $457 0 $457 6.2831853071796004 $267 $458 forward 7 unknown #
vertex $-1 $270 $459 #
ellipse-curve $-1 -35.966029148043091 31.103976751025346 8.0341957565450741 0 -0.85716730853699208 -0.51503806187062418 1 0 0 1 I I #
vertex $-1 $271 $460 #
point $-1 -23.318289464520888 28.379729688094873 6.3973030363324517 #
loop $-1 $-1 $461 $263 #
straight-curve $-1 -50.847499008148446 32.554224004102977 0 0 0 -1 I I #
point $-1 -50.847499008148446 -32.554224004102977 -10.447812587345418 #
straight-curve $-1 -50.847499008148446 0 -10.447812587345418 0 1 0 I I #
point $-1 -50.847499008148446 32.554224004102977 -10.447812587345418 #
loop $-1 $-1 $462 $292 #
plane-surface $-1 0 0 -10.447812587345418 0 0 1 1 0 0 forward_v I I I I #
coedge $-1 $387 $395 $463 $464 forward $293 $-1 #
straight-curve $-1 -57.963809079238999 0 -3.1477162703410326 0 1 0 I I #
point $-1 -57.963809079238999 32.554224004102977 -3.1477162703410326 #
coedge $-1 $394 $299 $465 $466 reversed $222 $-1 #
point $-1 -57.963809079238999 -32.554224004102977 -3.1477162703410326 #
coedge $-1 $302 $311 $467 $468 reversed $217 $-1 #
coedge $-1 $467 $465 $304 $384 forward $375 $-1 #
edge $-1 $386 -32.554224004102977 $385 32.554224004102977 $304 $469 forward 7 unknown #
vertex $-1 $468 $470 #
vertex $-1 $384 $471 #
coedge $-1 $318 $377 $310 $388 forward $293 $-1 #
edge $-1 $472 -50.847499008148446 $322 50.847499008148446 $310 $473 forward 7 unknown #
coedge $-1 $463 $474 $311 $390 reversed $475 $-1 #
edge $-1 $472 -10.447812587345418 $476 10.447812587345418 $389 $477 forward 7 unknown #
face $-1 $-1 $475 $16 $-1 $478 reversed single #
plane-surface $-1 0 32.554224004102977 0 0 -1 0 0 0 -1 forward_v I I I I #
straight-curve $-1 -57.963809079238999 -32.554224004102977 -0.50982454035759339 0 0 -1 I I #
coedge $-1 $315 $380 $479 $480 reversed $222 $-1 #
coedge $-1 $377 $318 $315 $396 forward $293 $-1 #
edge $-1 $320 -50.847499008148446 $481 50.847499008148446 $315 $482 forward 7 unknown #
plane-surface $-1 0 -32.554224004102977 0 0 1 0 0 0 1 forward_v I I I I #
straight-curve $-1 -50.847499008148446 0 10.447812587345418 0 -1 0 I I #
point $-1 -50.847499008148446 -32.554224004102977 10.447812587345418 #
point $-1 -50.847499008148446 32.554224004102977 10.447812587345418 #
face $-1 $483 $484 $17 $-1 $485 reversed single #
loop $-1 $-1 $486 $324 #
plane-surface $-1 -57.963809079238999 0 -0.50982454035759339 1 0 0 0 0 -1 forward_v I I I I #
coedge $-1 $487 $488 $489 $490 reversed $325 $-1 #
coedge $-1 $491 $327 $416 $492 forward $231 $-1 #
coedge $-1 $327 $491 $493 $494 forward $231 $-1 #
coedge $-1 $423 $417 $327 $408 forward $424 $-1 #
edge $-1 $495 -32.554224004102977 $496 32.554224004102977 $407 $497 forward 7 unknown #
coedge $-1 $328 $340 $498 $499 forward $141 $-1 #
coedge $-1 $500 $329 $328 $411 reversed $245 $-1 #
edge $-1 $501 -50.847499008148446 $331 16.553129675506078 $410 $344 forward 7 unknown #
straight-curve $-1 -16.553129675506078 32.554224004102977 56.903103374104916 0 0 1 I I #
point $-1 -16.553129675506078 32.554224004102977 10.447812587345418 #
straight-curve $-1 -15.071079653140995 32.554224004102977 5.6205789257447485 1 0 0 I I #
point $-1 -16.553129675506078 32.554224004102977 5.620578925744752 #
coedge $-1 $338 $502 $405 $492 reversed $245 $-1 #
coedge $-1 $407 $341 $338 $418 forward $424 $-1 #
edge $-1 $343 -10.447812587345418 $495 -2.1280671896258458 $338 $503 forward 7 unknown #
face $-1 $-1 $504 $17 $-1 $505 reversed single #
plane-surface $-1 0 32.554224004102977 0 0 -1 0 0 0 -1 forward_v I I I I #
coedge $-1 $506 $507 $340 $422 reversed $508 $-1 #
edge $-1 $425 -50.847499008148446 $509 50.847499008148446 $421 $510 forward 7 unknown #
coedge $-1 $341 $407 $506 $511 reversed $424 $-1 #
loop $-1 $-1 $407 $483 #
vertex $-1 $342 $512 #
straight-curve $-1 -50.847499008148446 0 10.447812587345418 0 -1 0 I I #
point $-1 -50.847499008148446 32.554224004102977 10.447812587345418 #
face $-1 $513 $514 $18 $-1 $515 reversed single #
loop $-1 $-1 $516 $345 #
plane-surface $-1 -54.405654043693723 0 2.1280671896258458 0 0 1 1 0 0 forward_v I I I I #
coedge $-1 $355 $517 $348 $434 forward $346 $-1 #
coedge $-1 $433 $348 $518 $519 reversed $252 $-1 #
coedge $-1 $348 $432 $435 $520 forward $252 $-1 #
edge $-1 $521 10.541037431825146 $522 13.441531937980415 $431 $523 forward 7 unknown #
coedge $-1 $437 $349 $433 $520 reversed $254 $-1 #
edge $-1 $522 1.4820500223650832 $356 28.660109283916906 $355 $524 forward 7 unknown #
coedge $-1 $350 $435 $440 $525 reversed $254 $-1 #
vertex $-1 $525 $526 #
straight-curve $-1 -43.731188937057901 -0.9791048694477098 61.429412067959312 0 0.51503806187062418 -0.85716730853699208 I I #
coedge $-1 $518 $352 $437 $525 forward $442 $-1 #
coedge $-1 $352 $527 $354 $445 reversed $442 $-1 #
loop $-1 $-1 $518 $528 #
straight-curve $-1 -43.731188937057901 32.554224004102977 56.903103374104916 0 0 -1 I I #
coedge $-1 $529 $354 $530 $531 forward $346 $-1 #
edge $-1 $357 43.731188937057901 $532 50.847499008148446 $441 $533 forward 7 unknown #
point $-1 -43.731188937057901 29.653729497947708 10.447812587345418 #
point $-1 -43.731188937057901 32.554224004102977 10.447812587345418 #
point $-1 -35.966029148043091 27.522562379557879 5.8822649744618269 #
face $-1 $534 $535 $19 $-1 $536 forward single #
loop $-1 $-1 $537 $361 #
plane-surface $-1 -16.553129675506078 86.190522871856246 113.80620674820983 -1 0 0 0 0.85716730853699208 0.51503806187062418 forward_v I I I I #
coedge $-1 $453 $363 $538 $539 forward $264 $-1 #
coedge $-1 $363 $452 $540 $541 reversed $264 $-1 #
coedge $-1 $542 $543 $363 $455 forward $535 $-1 #
edge $-1 $544 -13.441531937980415 $545 -10.541037431825146 $454 $546 forward 7 unknown #
edge $-1 $547 1 $547 0 $364 $-1 forward 7 unknown #
vertex $-1 $365 $548 #
ellipse-curve $-1 -35.966029148043091 28.379729688094873 6.3973030363324517 0 0.85716730853699208 0.51503806187062418 1 0 0 1 I I #
point $-1 -34.966029148043091 31.103976751025332 8.034195756545067 #
point $-1 -24.318289464520888 27.522562379557879 5.8822649744618269 #
coedge $-1 $549 $538 $543 $550 reversed $370 $-1 #
coedge $-1 $465 $467 $474 $551 forward $375 $-1 #
coedge $-1 $479 $389 $377 $464 reversed $475 $-1 #
edge $-1 $481 -32.554224004102977 $472 32.554224004102977 $463 $552 forward 7 unknown #
coedge $-1 $383 $462 $380 $466 forward $375 $-1 #
edge $-1 $553 -50.847499008148446 $386 50.847499008148446 $380 $554 forward 7 unknown #
coedge $-1 $462 $383 $382 $468 forward $375 $-1 #
edge $-1 $385 -50.847499008148446 $476 50.847499008148446 $382 $555 forward 7 unknown #
straight-curve $-1 -50.847499008148446 0 -10.447812587345418 0 1 0 I I #
point $-1 -50.847499008148446 32.554224004102977 -10.447812587345418 #
point $-1 -50.847499008148446 -32.554224004102977 -10.447812587345418 #
vertex $-1 $464 $556 #
straight-curve $-1 0 32.554224004102977 10.447812587345418 -1 0 0 I I #
coedge $-1 $389 $479 $462 $551 reversed $475 $-1 #
loop $-1 $-1 $479 $391 #
vertex $-1 $551 $557 #
straight-curve $-1 50.847499008148446 32.554224004102977 0 0 0 -1 I I #
plane-surface $-1 50.847499008148446 0 0 -1 0 0 0 0 1 forward_v I I I I #
coedge $-1 $474 $463 $394 $480 forward $475 $-1 #
edge $-1 $481 -10.447812587345418 $553 10.447812587345418 $479 $558 forward 7 unknown #
vertex $-1 $464 $559 #
straight-curve $-1 0 -32.554224004102977 10.447812587345418 1 0 0 I I #
face $-1 $560 $424 $17 $-1 $485 reversed single #
loop $-1 $-1 $489 $401 #
plane-surface $-1 -50.847499008148446 0 0 1 0 0 0 0 -1 forward_v I I I I #
coedge $-1 $561 $562 $502 $563 forward $402 $-1 #
coedge $-1 $564 $404 $565 $566 forward $325 $-1 #
coedge $-1 $404 $564 $567 $568 forward $325 $-1 #
coedge $-1 $569 $570 $404 $490 forward $484 $-1 #
edge $-1 $571 -32.554224004102977 $572 32.554224004102977 $489 $573 forward 7 unknown #
coedge $-1 $406 $405 $562 $574 forward $231 $-1 #
edge $-1 $495 -3.5581550355452762 $575 3.5581550355452762 $416 $576 forward 7 unknown #
coedge $-1 $577 $506 $406 $494 reversed $508 $-1 #
edge $-1 $578 -3.5581550355452762 $496 3.5581550355452762 $493 $579 forward 7 unknown #
vertex $-1 $418 $580 #
vertex $-1 $494 $581 #
straight-curve $-1 -50.847499008148446 0 2.1280671896258458 0 -1 0 I I #
coedge $-1 $582 $583 $409 $499 reversed $504 $-1 #
edge $-1 $509 -32.554224004102977 $501 32.554224004102977 $498 $584 forward 7 unknown #
coedge $-1 $585 $410 $583 $586 forward $245 $-1 #
vertex $-1 $499 $587 #
coedge $-1 $416 $567 $486 $563 reversed $245 $-1 #
straight-curve $-1 -50.847499008148446 32.554224004102977 0 0 0 -1 I I #
loop $-1 $-1 $582 $419 #
plane-surface $-1 50.847499008148446 0 0 -1 0 0 0 0 1 forward_v I I I I #
coedge $-1 $493 $421 $423 $511 forward $508 $-1 #
coedge $-1 $421 $588 $582 $589 reversed $508 $-1 #
loop $-1 $-1 $506 $590 #
vertex $-1 $499 $591 #
straight-curve $-1 0 -32.554224004102977 10.447812587345418 1 0 0 I I #
edge $-1 $425 -10.447812587345418 $496 -2.1280671896258458 $423 $592 forward 7 unknown #
point $-1 -50.847499008148446 -32.554224004102977 10.447812587345418 #
face $-1 $593 $594 $18 $-1 $595 reversed single #
loop $-1 $-1 $596 $428 #
plane-surface $-1 -54.405654043693723 0 -3.1477162703410326 0 0 1 1 0 0 forward_v I I I I #
coedge $-1 $597 $598 $599 $600 reversed $429 $-1 #
coedge $-1 $431 $601 $602 $603 forward $346 $-1 #
coedge $-1 $602 $440 $432 $519 forward $442 $-1 #
edge $-1 $604 -51.282524448360164 $521 -46.455290786759498 $518 $605 forward 7 unknown #
edge $-1 $604 -65.10844800820594 $522 -59.476836053895923 $433 $606 forward 7 unknown #
vertex $-1 $519 $607 #
vertex $-1 $436 $608 #
straight-curve $-1 -16.553129675506078 43.095261435928123 10.447812587345418 0 -1 0 I I #
straight-curve $-1 -15.071079653140995 29.653729497947705 10.447812587345418 -1 0 0 I I #
edge $-1 $438 -28.660109283916906 $604 -1.4820500223650832 $440 $609 forward 7 unknown #
point $-1 -43.731188937057901 32.554224004102977 5.620578925744752 #
coedge $-1 $441 $610 $611 $612 reversed $442 $-1 #
face $-1 $613 $442 $18 $-1 $614 reversed single #
coedge $-1 $601 $444 $615 $616 forward $346 $-1 #
coedge $-1 $611 $617 $444 $531 reversed $618 $-1 #
edge $-1 $532 -32.554224004102977 $619 32.554224004102977 $530 $620 forward 7 unknown #
vertex $-1 $445 $621 #
straight-curve $-1 0 32.554224004102977 10.447812587345418 -1 0 0 I I #
face $-1 $622 $623 $19 $-1 $624 forward single #
loop $-1 $-1 $625 $449 #
plane-surface $-1 0 0 10.447812587345418 0 0 1 1 0 0 forward_v I I I I #
coedge $-1 $626 $627 $625 $628 reversed $450 $-1 #
coedge $-1 $461 $629 $452 $539 reversed $370 $-1 #
edge $-1 $544 59.476836053895923 $630 65.10844800820594 $452 $631 forward 7 unknown #
coedge $-1 $632 $633 $453 $541 forward $634 $-1 #
edge $-1 $545 46.455290786759498 $630 51.282524448360164 $540 $635 forward 7 unknown #
coedge $-1 $636 $454 $633 $637 forward $535 $-1 #
coedge $-1 $454 $625 $461 $550 forward $535 $-1 #
vertex $-1 $550 $638 #
vertex $-1 $637 $639 #
straight-curve $-1 -43.731188937057901 43.095261435928123 10.447812587345418 0 1 0 I I #
vertex $-1 $456 $640 #
point $-1 -34.966029148043091 28.379729688094873 6.3973030363324517 #
coedge $-1 $629 $461 $627 $641 reversed $370 $-1 #
edge $-1 $642 1.4820500223650832 $544 28.660109283916906 $543 $643 forward 7 unknown #
edge $-1 $476 -32.554224004102977 $553 32.554224004102977 $474 $644 forward 7 unknown #
straight-curve $-1 50.847499008148446 0 10.447812587345418 0 1 0 I I #
vertex $-1 $480 $645 #
straight-curve $-1 0 -32.554224004102977 -10.447812587345418 -1 0 0 I I #
straight-curve $-1 0 32.554224004102977 -10.447812587345418 1 0 0 I I #
point $-1 50.847499008148446 32.554224004102977 10.447812587345418 #
point $-1 50.847499008148446 32.554224004102977 -10.447812587345418 #
straight-curve $-1 50.847499008148446 -32.554224004102977 0 0 0 -1 I I #
point $-1 50.847499008148446 -32.554224004102977 10.447812587345418 #
face $-1 $590 $646 $17 $-1 $647 reversed single #
coedge $-1 $648 $486 $564 $649 reversed $402 $-1 #
coedge $-1 $486 $648 $491 $574 reversed $402 $-1 #
edge $-1 $575 -2.6378917299834392 $650 2.6378917299834392 $502 $651 forward 7 unknown #
coedge $-1 $488 $487 $561 $649 forward $325 $-1 #
coedge $-1 $652 $577 $487 $566 reversed $508 $-1 #
edge $-1 $571 -3.5581550355452762 $653 3.5581550355452762 $565 $654 forward 7 unknown #
coedge $-1 $502 $655 $488 $568 reversed $245 $-1 #
edge $-1 $650 -3.5581550355452762 $572 3.5581550355452762 $567 $656 forward 7 unknown #
coedge $-1 $657 $489 $655 $658 forward $484 $-1 #
coedge $-1 $489 $657 $652 $659 reversed $484 $-1 #
vertex $-1 $659 $660 #
vertex $-1 $658 $661 #
straight-curve $-1 -50.847499008148446 0 -3.1477162703410326 0 1 0 I I #
edge $-1 $575 -32.554224004102977 $578 32.554224004102977 $562 $662 forward 7 unknown #
vertex $-1 $492 $663 #
straight-curve $-1 -54.405654043693723 32.554224004102977 2.1280671896258458 -1 0 0 I I #
coedge $-1 $565 $493 $648 $664 forward $508 $-1 #
vertex $-1 $574 $665 #
straight-curve $-1 -54.405654043693723 -32.554224004102977 2.1280671896258458 1 0 0 I I #
point $-1 -50.847499008148446 32.554224004102977 2.1280671896258458 #
point $-1 -50.847499008148446 -32.554224004102977 2.1280671896258458 #
coedge $-1 $666 $498 $507 $589 forward $504 $-1 #
coedge $-1 $498 $666 $500 $586 reversed $504 $-1 #
straight-curve $-1 50.847499008148446 0 10.447812587345418 0 1 0 I I #
coedge $-1 $655 $500 $667 $668 reversed $245 $-1 #
edge $-1 $501 -10.447812587345418 $669 10.447812587345418 $583 $670 forward 7 unknown #
point $-1 50.847499008148446 32.554224004102977 10.447812587345418 #
coedge $-1 $507 $652 $671 $672 reversed $508 $-1 #
edge $-1 $509 -10.447812587345418 $673 10.447812587345418 $582 $674 forward 7 unknown #
face $-1 $339 $508 $17 $-1 $675 reversed single #
point $-1 50.847499008148446 -32.554224004102977 10.447812587345418 #
straight-curve $-1 -50.847499008148446 -32.554224004102977 0 0 0 -1 I I #
face $-1 $676 $677 $18 $-1 $678 reversed single #
loop $-1 $-1 $679 $513 #
plane-surface $-1 -57.963809079238999 0 -0.50982454035759339 1 0 0 0 0 -1 forward_v I I I I #
coedge $-1 $680 $681 $682 $683 reversed $514 $-1 #
coedge $-1 $684 $516 $610 $685 forward $429 $-1 #
coedge $-1 $516 $684 $686 $687 forward $429 $-1 #
coedge $-1 $617 $611 $516 $600 forward $618 $-1 #
edge $-1 $688 -32.554224004102977 $689 32.554224004102977 $599 $690 forward 7 unknown #
coedge $-1 $517 $529 $691 $692 forward $346 $-1 #
coedge $-1 $693 $518 $517 $603 reversed $442 $-1 #
edge $-1 $694 -50.847499008148446 $521 16.553129675506078 $602 $533 forward 7 unknown #
vertex $-1 $525 $695 #
straight-curve $-1 -16.553129675506078 32.554224004102977 56.903103374104916 0 0 1 I I #
straight-curve $-1 -16.553129675506078 -0.9791048694477098 61.429412067959312 0 -0.51503806187062418 0.85716730853699208 I I #
point $-1 -16.553129675506078 32.554224004102977 10.447812587345418 #
point $-1 -16.553129675506078 29.653729497947708 10.447812587345418 #
straight-curve $-1 -15.071079653140995 32.554224004102977 5.6205789257447485 1 0 0 I I #
coedge $-1 $527 $696 $597 $685 reversed $442 $-1 #
coedge $-1 $599 $530 $527 $612 forward $618 $-1 #
edge $-1 $532 -10.447812587345418 $688 -2.1280671896258458 $527 $697 forward 7 unknown #
face $-1 $-1 $698 $18 $-1 $699 reversed single #
plane-surface $-1 0 32.554224004102977 0 0 -1 0 0 0 -1 forward_v I I I I #
coedge $-1 $700 $701 $529 $616 reversed $702 $-1 #
edge $-1 $619 -50.847499008148446 $703 50.847499008148446 $615 $704 forward 7 unknown #
coedge $-1 $530 $599 $700 $705 reversed $618 $-1 #
loop $-1 $-1 $599 $676 #
vertex $-1 $531 $706 #
straight-curve $-1 -50.847499008148446 0 10.447812587345418 0 -1 0 I I #
point $-1 -50.847499008148446 32.554224004102977 10.447812587345418 #
face $-1 $707 $708 $19 $-1 $709 reversed single #
loop $-1 $-1 $710 $534 #
plane-surface $-1 -54.405654043693723 0 2.1280671896258458 0 0 1 1 0 0 forward_v I I I I #
coedge $-1 $543 $711 $537 $628 forward $535 $-1 #
coedge $-1 $627 $537 $712 $713 reversed $450 $-1 #
coedge $-1 $537 $626 $549 $641 forward $450 $-1 #
edge $-1 $714 10.541037431825146 $642 13.441531937980415 $625 $715 forward 7 unknown #
coedge $-1 $538 $549 $632 $716 reversed $370 $-1 #
vertex $-1 $716 $717 #
straight-curve $-1 -43.731188937057901 -0.9791048694477098 61.429412067959312 0 0.51503806187062418 -0.85716730853699208 I I #
coedge $-1 $712 $540 $629 $716 forward $634 $-1 #
coedge $-1 $540 $718 $542 $637 reversed $634 $-1 #
loop $-1 $-1 $712 $719 #
straight-curve $-1 -43.731188937057901 32.554224004102977 56.903103374104916 0 0 -1 I I #
coedge $-1 $720 $542 $721 $722 forward $535 $-1 #
edge $-1 $545 43.731188937057901 $723 50.847499008148446 $633 $724 forward 7 unknown #
point $-1 -43.731188937057901 29.653729497947708 10.447812587345418 #
point $-1 -43.731188937057901 32.554224004102977 10.447812587345418 #
point $-1 -35.966029148043091 27.522562379557879 5.8822649744618269 #
edge $-1 $725 -65.10844800820594 $642 -59.476836053895923 $627 $726 forward 7 unknown #
vertex $-1 $550 $727 #
straight-curve $-1 -15.071079653140995 29.653729497947705 10.447812587345418 -1 0 0 I I #
straight-curve $-1 50.847499008148446 0 -10.447812587345418 0 -1 0 I I #
point $-1 50.847499008148446 -32.554224004102977 -10.447812587345418 #
loop $-1 $-1 $728 $560 #
plane-surface $-1 0 0 -10.447812587345418 0 0 1 1 0 0 forward_v I I I I #
coedge $-1 $562 $561 $577 $664 reversed $402 $-1 #
edge $-1 $653 -32.554224004102977 $650 32.554224004102977 $561 $729 forward 7 unknown #
vertex $-1 $568 $730 #
straight-curve $-1 -57.963809079238999 32.554224004102977 -0.50982454035759339 0 0 -1 I I #
coedge $-1 $588 $565 $570 $659 forward $508 $-1 #
vertex $-1 $649 $731 #
straight-curve $-1 -54.405654043693723 -32.554224004102977 -3.1477162703410326 -1 0 0 I I #
coedge $-1 $567 $585 $569 $658 reversed $245 $-1 #
straight-curve $-1 -54.405654043693723 32.554224004102977 -3.1477162703410326 1 0 0 I I #
coedge $-1 $570 $569 $732 $733 reversed $484 $-1 #
edge $-1 $572 3.1477162703410326 $734 10.447812587345418 $655 $503 forward 7 unknown #
edge $-1 $571 3.1477162703410326 $735 10.447812587345418 $570 $592 forward 7 unknown #
point $-1 -50.847499008148446 -32.554224004102977 -3.1477162703410326 #
point $-1 -50.847499008148446 32.554224004102977 -3.1477162703410326 #
straight-curve $-1 -57.963809079238999 0 2.1280671896258458 0 -1 0 I I #
point $-1 -57.963809079238999 32.554224004102977 2.1280671896258458 #
edge $-1 $578 -2.6378917299834392 $653 2.6378917299834392 $648 $736 forward 7 unknown #
point $-1 -57.963809079238999 -32.554224004102977 2.1280671896258458 #
coedge $-1 $583 $582 $728 $737 reversed $504 $-1 #
coedge $-1 $728 $732 $585 $668 forward $646 $-1 #
edge $-1 $734 -50.847499008148446 $669 50.847499008148446 $585 $738 forward 7 unknown #
vertex $-1 $737 $739 #
straight-curve $-1 50.847499008148446 32.554224004102977 0 0 0 -1 I I #
coedge $-1 $732 $728 $588 $672 forward $646 $-1 #
edge $-1 $673 -50.847499008148446 $735 50.847499008148446 $588 $740 forward 7 unknown #
vertex $-1 $589 $741 #
straight-curve $-1 50.847499008148446 -32.554224004102977 0 0 0 -1 I I #
plane-surface $-1 0 -32.554224004102977 0 0 1 0 0 0 1 forward_v I I I I #
face $-1 $742 $618 $18 $-1 $678 reversed single #
loop $-1 $-1 $682 $593 #
plane-surface $-1 -50.847499008148446 0 0 1 0 0 0 0 -1 forward_v I I I I #
coedge $-1 $743 $744 $696 $745 forward $594 $-1 #
coedge $-1 $746 $596 $747 $748 forward $514 $-1 #
coedge $-1 $596 $746 $749 $750 forward $514 $-1 #
coedge $-1 $751 $752 $596 $683 forward $677 $-1 #
edge $-1 $753 -32.554224004102977 $754 32.554224004102977 $682 $755 forward 7 unknown #
coedge $-1 $598 $597 $744 $756 forward $429 $-1 #
edge $-1 $688 -3.5581550355452762 $757 3.5581550355452762 $610 $758 forward 7 unknown #
coedge $-1 $759 $700 $598 $687 reversed $702 $-1 #
edge $-1 $760 -3.5581550355452762 $689 3.5581550355452762 $686 $761 forward 7 unknown #
vertex $-1 $612 $762 #
vertex $-1 $687 $763 #
straight-curve $-1 -50.847499008148446 0 2.1280671896258458 0 -1 0 I I #
coedge $-1 $764 $765 $601 $692 reversed $698 $-1 #
edge $-1 $703 -32.554224004102977 $694 32.554224004102977 $691 $766 forward 7 unknown #
coedge $-1 $767 $602 $765 $768 forward $442 $-1 #
vertex $-1 $692 $769 #
point $-1 -16.553129675506078 32.554224004102977 5.620578925744752 #
coedge $-1 $610 $749 $679 $745 reversed $442 $-1 #
straight-curve $-1 -50.847499008148446 32.554224004102977 0 0 0 -1 I I #
loop $-1 $-1 $764 $613 #
plane-surface $-1 50.847499008148446 0 0 -1 0 0 0 0 1 forward_v I I I I #
coedge $-1 $686 $615 $617 $705 forward $702 $-1 #
coedge $-1 $615 $770 $764 $771 reversed $702 $-1 #
loop $-1 $-1 $700 $772 #
vertex $-1 $692 $773 #
straight-curve $-1 0 -32.554224004102977 10.447812587345418 1 0 0 I I #
edge $-1 $619 -10.447812587345418 $689 -2.1280671896258458 $617 $774 forward 7 unknown #
point $-1 -50.847499008148446 -32.554224004102977 10.447812587345418 #
face $-1 $775 $776 $19 $-1 $777 reversed single #
loop $-1 $-1 $778 $622 #
plane-surface $-1 -54.405654043693723 0 -3.1477162703410326 0 0 1 1 0 0 forward_v I I I I #
coedge $-1 $779 $780 $781 $782 reversed $623 $-1 #
coedge $-1 $625 $783 $784 $785 forward $535 $-1 #
coedge $-1 $784 $632 $626 $713 forward $634 $-1 #
edge $-1 $725 -51.282524448360164 $714 -46.455290786759498 $712 $786 forward 7 unknown #
vertex $-1 $713 $787 #
straight-curve $-1 -16.553129675506078 43.095261435928123 10.447812587345418 0 -1 0 I I #
edge $-1 $630 -28.660109283916906 $725 -1.4820500223650832 $632 $788 forward 7 unknown #
point $-1 -43.731188937057901 32.554224004102977 5.620578925744752 #
coedge $-1 $633 $789 $790 $791 reversed $634 $-1 #
face $-1 $792 $634 $19 $-1 $793 reversed single #
coedge $-1 $783 $636 $794 $795 forward $535 $-1 #
coedge $-1 $790 $796 $636 $722 reversed $797 $-1 #
edge $-1 $723 -32.554224004102977 $798 32.554224004102977 $721 $799 forward 7 unknown #
vertex $-1 $637 $800 #
straight-curve $-1 0 32.554224004102977 10.447812587345418 -1 0 0 I I #
vertex $-1 $716 $801 #
straight-curve $-1 -16.553129675506078 -0.9791048694477098 61.429412067959312 0 -0.51503806187062418 0.85716730853699208 I I #
point $-1 -16.553129675506078 29.653729497947708 10.447812587345418 #
coedge $-1 $671 $667 $666 $737 forward $646 $-1 #
straight-curve $-1 -57.963809079238999 0 -3.1477162703410326 0 1 0 I I #
point $-1 -57.963809079238999 32.554224004102977 -3.1477162703410326 #
point $-1 -57.963809079238999 -32.554224004102977 -3.1477162703410326 #
coedge $-1 $667 $671 $657 $733 forward $646 $-1 #
edge $-1 $735 -32.554224004102977 $734 32.554224004102977 $657 $802 forward 7 unknown #
vertex $-1 $668 $803 #
vertex $-1 $733 $804 #
straight-curve $-1 -57.963809079238999 -32.554224004102977 -0.50982454035759339 0 0 -1 I I #
edge $-1 $669 -32.554224004102977 $673 32.554224004102977 $666 $805 forward 7 unknown #
straight-curve $-1 0 32.554224004102977 -10.447812587345418 1 0 0 I I #
point $-1 50.847499008148446 32.554224004102977 -10.447812587345418 #
straight-curve $-1 0 -32.554224004102977 -10.447812587345418 -1 0 0 I I #
point $-1 50.847499008148446 -32.554224004102977 -10.447812587345418 #
face $-1 $772 $806 $18 $-1 $807 reversed single #
coedge $-1 $808 $679 $746 $809 reversed $594 $-1 #
coedge $-1 $679 $808 $684 $756 reversed $594 $-1 #
edge $-1 $757 -2.6378917299834392 $810 2.6378917299834392 $696 $811 forward 7 unknown #
coedge $-1 $681 $680 $743 $809 forward $514 $-1 #
coedge $-1 $812 $759 $680 $748 reversed $702 $-1 #
edge $-1 $753 -3.5581550355452762 $813 3.5581550355452762 $747 $814 forward 7 unknown #
coedge $-1 $696 $815 $681 $750 reversed $442 $-1 #
edge $-1 $810 -3.5581550355452762 $754 3.5581550355452762 $749 $816 forward 7 unknown #
coedge $-1 $817 $682 $815 $818 forward $677 $-1 #
coedge $-1 $682 $817 $812 $819 reversed $677 $-1 #
vertex $-1 $819 $820 #
vertex $-1 $818 $821 #
straight-curve $-1 -50.847499008148446 0 -3.1477162703410326 0 1 0 I I #
edge $-1 $757 -32.554224004102977 $760 32.554224004102977 $744 $822 forward 7 unknown #
vertex $-1 $685 $823 #
straight-curve $-1 -54.405654043693723 32.554224004102977 2.1280671896258458 -1 0 0 I I #
coedge $-1 $747 $686 $808 $824 forward $702 $-1 #
vertex $-1 $756 $825 #
straight-curve $-1 -54.405654043693723 -32.554224004102977 2.1280671896258458 1 0 0 I I #
point $-1 -50.847499008148446 32.554224004102977 2.1280671896258458 #
point $-1 -50.847499008148446 -32.554224004102977 2.1280671896258458 #
coedge $-1 $826 $691 $701 $771 forward $698 $-1 #
coedge $-1 $691 $826 $693 $768 reversed $698 $-1 #
straight-curve $-1 50.847499008148446 0 10.447812587345418 0 1 0 I I #
coedge $-1 $815 $693 $827 $828 reversed $442 $-1 #
edge $-1 $694 -10.447812587345418 $829 10.447812587345418 $765 $830 forward 7 unknown #
point $-1 50.847499008148446 32.554224004102977 10.447812587345418 #
coedge $-1 $701 $812 $831 $832 reversed $702 $-1 #
edge $-1 $703 -10.447812587345418 $833 10.447812587345418 $764 $834 forward 7 unknown #
face $-1 $528 $702 $18 $-1 $835 reversed single #
point $-1 50.847499008148446 -32.554224004102977 10.447812587345418 #
straight-curve $-1 -50.847499008148446 -32.554224004102977 0 0 0 -1 I I #
face $-1 $836 $837 $19 $-1 $838 reversed single #
loop $-1 $-1 $839 $707 #
plane-surface $-1 -57.963809079238999 0 -0.50982454035759339 1 0 0 0 0 -1 forward_v I I I I #
coedge $-1 $840 $841 $842 $843 reversed $708 $-1 #
coedge $-1 $844 $710 $789 $845 forward $623 $-1 #
coedge $-1 $710 $844 $846 $847 forward $623 $-1 #
coedge $-1 $796 $790 $710 $782 forward $797 $-1 #
edge $-1 $848 -32.554224004102977 $849 32.554224004102977 $781 $850 forward 7 unknown #
coedge $-1 $711 $720 $851 $852 forward $535 $-1 #
coedge $-1 $853 $712 $711 $785 reversed $634 $-1 #
edge $-1 $854 -50.847499008148446 $714 16.553129675506078 $784 $724 forward 7 unknown #
straight-curve $-1 -16.553129675506078 32.554224004102977 56.903103374104916 0 0 1 I I #
point $-1 -16.553129675506078 32.554224004102977 10.447812587345418 #
straight-curve $-1 -15.071079653140995 32.554224004102977 5.6205789257447485 1 0 0 I I #
coedge $-1 $718 $855 $779 $845 reversed $634 $-1 #
coedge $-1 $781 $721 $718 $791 forward $797 $-1 #
edge $-1 $723 -10.447812587345418 $848 -2.1280671896258458 $718 $856 forward 7 unknown #
face $-1 $-1 $857 $19 $-1 $858 reversed single #
plane-surface $-1 0 32.554224004102977 0 0 -1 0 0 0 -1 forward_v I I I I #
coedge $-1 $859 $860 $720 $795 reversed $861 $-1 #
edge $-1 $798 -50.847499008148446 $862 50.847499008148446 $794 $863 forward 7 unknown #
coedge $-1 $721 $781 $859 $864 reversed $797 $-1 #
loop $-1 $-1 $781 $836 #
vertex $-1 $722 $865 #
straight-curve $-1 -50.847499008148446 0 10.447812587345418 0 -1 0 I I #
point $-1 -50.847499008148446 32.554224004102977 10.447812587345418 #
point $-1 -16.553129675506078 32.554224004102977 5.620578925744752 #
straight-curve $-1 -50.847499008148446 0 -10.447812587345418 0 1 0 I I #
point $-1 -50.847499008148446 32.554224004102977 -10.447812587345418 #
point $-1 -50.847499008148446 -32.554224004102977 -10.447812587345418 #
straight-curve $-1 50.847499008148446 0 -10.447812587345418 0 -1 0 I I #
loop $-1 $-1 $866 $742 #
plane-surface $-1 0 0 -10.447812587345418 0 0 1 1 0 0 forward_v I I I I #
coedge $-1 $744 $743 $759 $824 reversed $594 $-1 #
edge $-1 $813 -32.554224004102977 $810 32.554224004102977 $743 $867 forward 7 unknown #
vertex $-1 $750 $868 #
straight-curve $-1 -57.963809079238999 32.554224004102977 -0.50982454035759339 0 0 -1 I I #
coedge $-1 $770 $747 $752 $819 forward $702 $-1 #
vertex $-1 $809 $869 #
straight-curve $-1 -54.405654043693723 -32.554224004102977 -3.1477162703410326 -1 0 0 I I #
coedge $-1 $749 $767 $751 $818 reversed $442 $-1 #
straight-curve $-1 -54.405654043693723 32.554224004102977 -3.1477162703410326 1 0 0 I I #
coedge $-1 $752 $751 $870 $871 reversed $677 $-1 #
edge $-1 $754 3.1477162703410326 $872 10.447812587345418 $815 $697 forward 7 unknown #
edge $-1 $753 3.1477162703410326 $873 10.447812587345418 $752 $774 forward 7 unknown #
point $-1 -50.847499008148446 -32.554224004102977 -3.1477162703410326 #
point $-1 -50.847499008148446 32.554224004102977 -3.1477162703410326 #
straight-curve $-1 -57.963809079238999 0 2.1280671896258458 0 -1 0 I I #
point $-1 -57.963809079238999 32.554224004102977 2.1280671896258458 #
edge $-1 $760 -2.6378917299834392 $813 2.6378917299834392 $808 $874 forward 7 unknown #
point $-1 -57.963809079238999 -32.554224004102977 2.1280671896258458 #
coedge $-1 $765 $764 $866 $875 reversed $698 $-1 #
coedge $-1 $866 $870 $767 $828 forward $806 $-1 #
edge $-1 $872 -50.847499008148446 $829 50.847499008148446 $767 $876 forward 7 unknown #
vertex $-1 $875 $877 #
straight-curve $-1 50.847499008148446 32.554224004102977 0 0 0 -1 I I #
coedge $-1 $870 $866 $770 $832 forward $806 $-1 #
edge $-1 $833 -50.847499008148446 $873 50.847499008148446 $770 $878 forward 7 unknown #
vertex $-1 $771 $879 #
straight-curve $-1 50.847499008148446 -32.554224004102977 0 0 0 -1 I I #
plane-surface $-1 0 -32.554224004102977 0 0 1 0 0 0 1 forward_v I I I I #
face $-1 $880 $797 $19 $-1 $838 reversed single #
loop $-1 $-1 $842 $775 #
plane-surface $-1 -50.847499008148446 0 0 1 0 0 0 0 -1 forward_v I I I I #
coedge $-1 $881 $882 $855 $883 forward $776 $-1 #
coedge $-1 $884 $778 $885 $886 forward $708 $-1 #
coedge $-1 $778 $884 $887 $888 forward $708 $-1 #
coedge $-1 $889 $890 $778 $843 forward $837 $-1 #
edge $-1 $891 -32.554224004102977 $892 32.554224004102977 $842 $893 forward 7 unknown #
coedge $-1 $780 $779 $882 $894 forward $623 $-1 #
edge $-1 $848 -3.5581550355452762 $895 3.5581550355452762 $789 $896 forward 7 unknown #
coedge $-1 $897 $859 $780 $847 reversed $861 $-1 #
edge $-1 $898 -3.5581550355452762 $849 3.5581550355452762 $846 $899 forward 7 unknown #
vertex $-1 $791 $900 #
vertex $-1 $847 $901 #
straight-curve $-1 -50.847499008148446 0 2.1280671896258458 0 -1 0 I I #
coedge $-1 $902 $903 $783 $852 reversed $857 $-1 #
edge $-1 $862 -32.554224004102977 $854 32.554224004102977 $851 $904 forward 7 unknown #
coedge $-1 $905 $784 $903 $906 forward $634 $-1 #
vertex $-1 $852 $907 #
coedge $-1 $789 $887 $839 $883 reversed $634 $-1 #
straight-curve $-1 -50.847499008148446 32.554224004102977 0 0 0 -1 I I #
loop $-1 $-1 $902 $792 #
plane-surface $-1 50.847499008148446 0 0 -1 0 0 0 0 1 forward_v I I I I #
coedge $-1 $846 $794 $796 $864 forward $861 $-1 #
coedge $-1 $794 $908 $902 $909 reversed $861 $-1 #
loop $-1 $-1 $859 $910 #
vertex $-1 $852 $911 #
straight-curve $-1 0 -32.554224004102977 10.447812587345418 1 0 0 I I #
edge $-1 $798 -10.447812587345418 $849 -2.1280671896258458 $796 $912 forward 7 unknown #
point $-1 -50.847499008148446 -32.554224004102977 10.447812587345418 #
coedge $-1 $831 $827 $826 $875 forward $806 $-1 #
straight-curve $-1 -57.963809079238999 0 -3.1477162703410326 0 1 0 I I #
point $-1 -57.963809079238999 32.554224004102977 -3.1477162703410326 #
point $-1 -57.963809079238999 -32.554224004102977 -3.1477162703410326 #
coedge $-1 $827 $831 $817 $871 forward $806 $-1 #
edge $-1 $873 -32.554224004102977 $872 32.554224004102977 $817 $913 forward 7 unknown #
vertex $-1 $828 $914 #
vertex $-1 $871 $915 #
straight-curve $-1 -57.963809079238999 -32.554224004102977 -0.50982454035759339 0 0 -1 I I #
edge $-1 $829 -32.554224004102977 $833 32.554224004102977 $826 $916 forward 7 unknown #
straight-curve $-1 0 32.554224004102977 -10.447812587345418 1 0 0 I I #
point $-1 50.847499008148446 32.554224004102977 -10.447812587345418 #
straight-curve $-1 0 -32.554224004102977 -10.447812587345418 -1 0 0 I I #
point $-1 50.847499008148446 -32.554224004102977 -10.447812587345418 #
face $-1 $910 $917 $19 $-1 $918 reversed single #
coedge $-1 $919 $839 $884 $920 reversed $776 $-1 #
coedge $-1 $839 $919 $844 $894 reversed $776 $-1 #
edge $-1 $895 -2.6378917299834392 $921 2.6378917299834392 $855 $922 forward 7 unknown #
coedge $-1 $841 $840 $881 $920 forward $708 $-1 #
coedge $-1 $923 $897 $840 $886 reversed $861 $-1 #
edge $-1 $891 -3.5581550355452762 $924 3.5581550355452762 $885 $925 forward 7 unknown #
coedge $-1 $855 $926 $841 $888 reversed $634 $-1 #
edge $-1 $921 -3.5581550355452762 $892 3.5581550355452762 $887 $927 forward 7 unknown #
coedge $-1 $928 $842 $926 $929 forward $837 $-1 #
coedge $-1 $842 $928 $923 $930 reversed $837 $-1 #
vertex $-1 $930 $931 #
vertex $-1 $929 $932 #
straight-curve $-1 -50.847499008148446 0 -3.1477162703410326 0 1 0 I I #
edge $-1 $895 -32.554224004102977 $898 32.554224004102977 $882 $933 forward 7 unknown #
vertex $-1 $845 $934 #
straight-curve $-1 -54.405654043693723 32.554224004102977 2.1280671896258458 -1 0 0 I I #
coedge $-1 $885 $846 $919 $935 forward $861 $-1 #
vertex $-1 $894 $936 #
straight-curve $-1 -54.405654043693723 -32.554224004102977 2.1280671896258458 1 0 0 I I #
point $-1 -50.847499008148446 32.554224004102977 2.1280671896258458 #
point $-1 -50.847499008148446 -32.554224004102977 2.1280671896258458 #
coedge $-1 $937 $851 $860 $909 forward $857 $-1 #
coedge $-1 $851 $937 $853 $906 reversed $857 $-1 #
straight-curve $-1 50.847499008148446 0 10.447812587345418 0 1 0 I I #
coedge $-1 $926 $853 $938 $939 reversed $634 $-1 #
edge $-1 $854 -10.447812587345418 $940 10.447812587345418 $903 $941 forward 7 unknown #
point $-1 50.847499008148446 32.554224004102977 10.447812587345418 #
coedge $-1 $860 $923 $942 $943 reversed $861 $-1 #
edge $-1 $862 -10.447812587345418 $944 10.447812587345418 $902 $945 forward 7 unknown #
face $-1 $719 $861 $19 $-1 $946 reversed single #
point $-1 50.847499008148446 -32.554224004102977 10.447812587345418 #
straight-curve $-1 -50.847499008148446 -32.554224004102977 0 0 0 -1 I I #
straight-curve $-1 -50.847499008148446 0 -10.447812587345418 0 1 0 I I #
point $-1 -50.847499008148446 32.554224004102977 -10.447812587345418 #
point $-1 -50.847499008148446 -32.554224004102977 -10.447812587345418 #
straight-curve $-1 50.847499008148446 0 -10.447812587345418 0 -1 0 I I #
loop $-1 $-1 $947 $880 #
plane-surface $-1 0 0 -10.447812587345418 0 0 1 1 0 0 forward_v I I I I #
coedge $-1 $882 $881 $897 $935 reversed $776 $-1 #
edge $-1 $924 -32.554224004102977 $921 32.554224004102977 $881 $948 forward 7 unknown #
vertex $-1 $888 $949 #
straight-curve $-1 -57.963809079238999 32.554224004102977 -0.50982454035759339 0 0 -1 I I #
coedge $-1 $908 $885 $890 $930 forward $861 $-1 #
vertex $-1 $920 $950 #
straight-curve $-1 -54.405654043693723 -32.554224004102977 -3.1477162703410326 -1 0 0 I I #
coedge $-1 $887 $905 $889 $929 reversed $634 $-1 #
straight-curve $-1 -54.405654043693723 32.554224004102977 -3.1477162703410326 1 0 0 I I #
coedge $-1 $890 $889 $951 $952 reversed $837 $-1 #
edge $-1 $892 3.1477162703410326 $953 10.447812587345418 $926 $856 forward 7 unknown #
edge $-1 $891 3.1477162703410326 $954 10.447812587345418 $890 $912 forward 7 unknown #
point $-1 -50.847499008148446 -32.554224004102977 -3.1477162703410326 #
point $-1 -50.847499008148446 32.554224004102977 -3.1477162703410326 #
straight-curve $-1 -57.963809079238999 0 2.1280671896258458 0 -1 0 I I #
point $-1 -57.963809079238999 32.554224004102977 2.1280671896258458 #
edge $-1 $898 -2.6378917299834392 $924 2.6378917299834392 $919 $955 forward 7 unknown #
point $-1 -57.963809079238999 -32.554224004102977 2.1280671896258458 #
coedge $-1 $903 $902 $947 $956 reversed $857 $-1 #
coedge $-1 $947 $951 $905 $939 forward $917 $-1 #
edge $-1 $953 -50.847499008148446 $940 50.847499008148446 $905 $957 forward 7 unknown #
vertex $-1 $956 $958 #
straight-curve $-1 50.847499008148446 32.554224004102977 0 0 0 -1 I I #
coedge $-1 $951 $947 $908 $943 forward $917 $-1 #
edge $-1 $944 -50.847499008148446 $954 50.847499008148446 $908 $959 forward 7 unknown #
vertex $-1 $909 $960 #
straight-curve $-1 50.847499008148446 -32.554224004102977 0 0 0 -1 I I #
plane-surface $-1 0 -32.554224004102977 0 0 1 0 0 0 1 forward_v I I I I #
coedge $-1 $942 $938 $937 $956 forward $917 $-1 #
straight-curve $-1 -57.963809079238999 0 -3.1477162703410326 0 1 0 I I #
point $-1 -57.963809079238999 32.554224004102977 -3.1477162703410326 #
point $-1 -57.963809079238999 -32.554224004102977 -3.1477162703410326 #
coedge $-1 $938 $942 $928 $952 forward $917 $-1 #
edge $-1 $954 -32.554224004102977 $953 32.554224004102977 $928 $961 forward 7 unknown #
vertex $-1 $939 $962 #
vertex $-1 $952 $963 #
straight-curve $-1 -57.963809079238999 -32.554224004102977 -0.50982454035759339 0 0 -1 I I #
edge $-1 $940 -32.554224004102977 $944 32.554224004102977 $937 $964 forward 7 unknown #
straight-curve $-1 0 32.554224004102977 -10.447812587345418 1 0 0 I I #
point $-1 50.847499008148446 32.554224004102977 -10.447812587345418 #
straight-curve $-1 0 -32.554224004102977 -10.447812587345418 -1 0 0 I I #
point $-1 50.847499008148446 -32.554224004102977 -10.447812587345418 #
straight-curve $-1 -50.847499008148446 0 -10.447812587345418 0 1 0 I I #
point $-1 -50.847499008148446 32.554224004102977 -10.447812587345418 #
point $-1 -50.847499008148446 -32.554224004102977 -10.447812587345418 #
straight-curve $-1 50.847499008148446 0 -10.447812587345418 0 -1 0 I I #
End-of-ACIS-data 