500 0 7 0           
7 Unknown 11 ACIS 5.0 NT 24 Fri Mar 26 15:42:14 1999 
-1 9.9999999999999995e-007 1e-010 
body $-1 $7 $-1 $8 #
body $-1 $9 $-1 $10 #
body $-1 $11 $-1 $12 #
body $-1 $13 $-1 $14 #
body $-1 $15 $-1 $16 #
body $-1 $17 $-1 $18 #
body $-1 $19 $-1 $20 #
lump $-1 $-1 $21 $0 #
transform $-1 1 0 0 0 1 0 0 0 1 74.986419263283182 40.850858313031068 16.712610126941943 1 rotate no_reflect no_shear #
lump $-1 $-1 $22 $1 #
transform $-1 1 0 0 0 1 0 0 0 1 74.986419263283182 40.850858313031068 16.712610126941943 1 rotate no_reflect no_shear #
lump $-1 $-1 $23 $2 #
transform $-1 1 0 0 0 1 0 0 0 1 74.986419263283182 40.850858313031068 16.712610126941943 1 rotate no_reflect no_shear #
lump $-1 $-1 $24 $3 #
transform $-1 1 0 0 0 1 0 0 0 1 74.986419263283182 40.850858313031068 16.712610126941943 1 rotate no_reflect no_shear #
lump $-1 $-1 $25 $4 #
transform $-1 1 0 0 0 1 0 0 0 1 74.986419263283182 40.850858313031068 16.712610126941943 1 rotate no_reflect no_shear #
lump $-1 $-1 $26 $5 #
transform $-1 1 0 0 0 1 0 0 0 1 74.986419263283182 40.850858313031068 16.712610126941943 1 rotate no_reflect no_shear #
lump $-1 $-1 $27 $6 #
transform $-1 1 0 0 0 1 0 0 0 1 74.986419263283182 40.850858313031068 16.712610126941943 1 rotate no_reflect no_shear #
shell $-1 $-1 $-1 $28 $-1 $7 #
shell $-1 $-1 $-1 $29 $-1 $9 #
shell $-1 $-1 $-1 $30 $-1 $11 #
shell $-1 $-1 $-1 $31 $-1 $13 #
shell $-1 $-1 $-1 $32 $-1 $15 #
shell $-1 $-1 $-1 $33 $-1 $17 #
shell $-1 $-1 $-1 $34 $-1 $19 #
face $-1 $35 $36 $21 $-1 $37 forward single #
face $-1 $38 $39 $22 $-1 $40 reversed single #
face $-1 $41 $42 $23 $-1 $43 reversed single #
face $-1 $44 $45 $24 $-1 $46 forward single #
face $-1 $47 $48 $25 $-1 $49 forward single #
face $-1 $50 $51 $26 $-1 $52 reversed single #
face $-1 $53 $54 $27 $-1 $55 forward single #
face $-1 $56 $57 $21 $-1 $58 reversed single #
loop $-1 $-1 $59 $28 #
plane-surface $-1 0 0 16.712610126941943 0 0 1 1 0 0 forward_v I I I I #
face $-1 $60 $61 $22 $-1 $62 reversed single #
loop $-1 $-1 $63 $29 #
plane-surface $-1 -48.247161139287023 -31.444938904208598 0 1 0 0 0 0 -1 forward_v I I I I #
face $-1 $64 $65 $23 $-1 $66 reversed single #
loop $-1 $-1 $67 $30 #
plane-surface $-1 -158.85016737065371 7.5859602264834649 129.24575285310172 0 1 0 -0.55919291073839883 0 0.82903756765294845 forward_v I I I I #
face $-1 $68 $69 $24 $-1 $70 forward single #
loop $-1 $71 $72 $31 #
cone-surface $-1 -65.823573172280817 11.819125229095647 10.196240117547472 0.55919291073839883 0 -0.82903756765294845 0.82903756765294845 0 0.55919291073839883 1 I I 0 1 1 forward I I I I #
face $-1 $73 $74 $25 $-1 $75 forward single #
loop $-1 $76 $77 $32 #
cone-surface $-1 -65.823573172280817 18.168872733013913 10.196240117547472 0.55919291073839883 0 -0.82903756765294845 0.82903756765294845 0 0.55919291073839883 1 I I 0 1 1 forward I I I I #
face $-1 $78 $79 $26 $-1 $80 reversed single #
loop $-1 $-1 $81 $33 #
plane-surface $-1 41.807668875421584 11.010382914185481 220.33171044390028 0 -1 0 -0.5877852598018023 0 -0.80901698891910034 forward_v I I I I #
face $-1 $82 $83 $27 $-1 $84 forward single #
loop $-1 $85 $86 $34 #
cone-surface $-1 70.224812567407795 7.3599601382914699 12.780967152929392 -0.5877852598018023 0 -0.80901698891910034 0.80901698891910034 0 -0.5877852598018023 1 I I 0 1 1 forward I I I I #
face $-1 $87 $88 $21 $-1 $89 reversed single #
loop $-1 $-1 $90 $35 #
plane-surface $-1 0 0 -16.712610126941943 0 0 1 1 0 0 forward_v I I I I #
coedge $-1 $91 $92 $93 $94 forward $36 $-1 #
face $-1 $95 $96 $22 $-1 $97 reversed single #
loop $-1 $-1 $98 $38 #
plane-surface $-1 -44.904180074343159 -22.039019495386128 0 0 -1 0 0 0 -1 forward_v I I I I #
coedge $-1 $99 $100 $101 $102 forward $39 $-1 #
face $-1 $103 $104 $23 $-1 $105 reversed single #
loop $-1 $-1 $106 $41 #
plane-surface $-1 -74.986419263283182 14.99399898105478 4.9126355870287455 -0.55919291073839883 0 0.82903756765294845 0.82903756765294845 0 0.55919291073839883 forward_v I I I I #
coedge $-1 $107 $108 $109 $110 reversed $42 $-1 #
face $-1 $-1 $111 $24 $-1 $112 forward single #
loop $-1 $113 $114 $44 #
cone-surface $-1 -65.128221301664297 11.819125229095647 9.1653385942831136 0.55919291073839883 0 -0.82903756765294845 0.41451878382647422 0 0.27959645536919941 1 I I -0.70710678118654746 0.70710678118654746 0.5 forward I I I I #
loop $-1 $-1 $115 $31 #
coedge $-1 $72 $72 $116 $117 reversed $45 $-1 #
face $-1 $-1 $118 $25 $-1 $119 forward single #
loop $-1 $120 $121 $47 #
cone-surface $-1 -65.128221301664297 18.168872733013913 9.1653385942831136 0.55919291073839883 0 -0.82903756765294845 0.41451878382647422 0 0.27959645536919941 1 I I -0.70710678118654746 0.70710678118654746 0.5 forward I I I I #
loop $-1 $-1 $122 $32 #
coedge $-1 $77 $77 $123 $124 reversed $48 $-1 #
face $-1 $125 $126 $26 $-1 $127 reversed single #
loop $-1 $-1 $128 $50 #
plane-surface $-1 -46.344154981129975 7.3599601382914699 99.001136199487107 0.5877852598018023 0 0.80901698891910034 0.80901698891910034 0 -0.5877852598018023 forward_v I I I I #
coedge $-1 $129 $130 $131 $132 reversed $51 $-1 #
face $-1 $-1 $133 $27 $-1 $134 forward single #
loop $-1 $135 $136 $53 #
cone-surface $-1 69.204381694991781 7.3599601382914699 11.37646457646046 -0.5877852598018023 0 -0.80901698891910034 0.40450849445955017 0 -0.29389262990090115 1 I I -0.70710678118654746 0.70710678118654746 0.5 forward I I I I #
loop $-1 $-1 $137 $34 #
coedge $-1 $86 $86 $138 $139 reversed $54 $-1 #
face $-1 $140 $141 $21 $-1 $142 reversed single #
loop $-1 $-1 $143 $56 #
plane-surface $-1 0 -40.850858313031068 0 0 1 0 0 0 1 forward_v I I I I #
coedge $-1 $144 $145 $146 $147 forward $57 $-1 #
coedge $-1 $148 $59 $149 $150 forward $36 $-1 #
coedge $-1 $59 $148 $151 $152 forward $36 $-1 #
coedge $-1 $153 $154 $59 $94 reversed $155 $-1 #
edge $-1 $156 -40.850858313031068 $157 40.850858313031068 $93 $158 forward 7 unknown #
face $-1 $159 $160 $22 $-1 $161 forward single #
loop $-1 $-1 $162 $60 #
plane-surface $-1 -41.561199009399296 -31.444938904208598 0 -1 0 0 0 0 1 forward_v I I I I #
coedge $-1 $163 $164 $165 $166 forward $61 $-1 #
coedge $-1 $167 $63 $168 $169 reversed $39 $-1 #
coedge $-1 $63 $167 $170 $171 reversed $39 $-1 #
coedge $-1 $164 $163 $63 $102 reversed $61 $-1 #
edge $-1 $172 -16.712610126941943 $173 16.712610126941943 $101 $174 forward 7 unknown #
face $-1 $175 $176 $23 $-1 $177 reversed single #
loop $-1 $-1 $178 $64 #
plane-surface $-1 -158.85016737065371 22.402037735626095 129.24575285310172 0 -1 0 0.55919291073839883 0 -0.82903756765294845 forward_v I I I I #
coedge $-1 $179 $180 $181 $182 reversed $65 $-1 #
coedge $-1 $108 $67 $183 $184 reversed $42 $-1 #
coedge $-1 $67 $107 $179 $185 reversed $42 $-1 #
coedge $-1 $181 $186 $67 $110 forward $187 $-1 #
edge $-1 $188 4.4386644220436722 $189 21.932845773553787 $109 $190 forward 7 unknown #
loop $-1 $-1 $116 $68 #
plane-surface $-1 -74.986419263283182 14.99399898105478 4.9126355870287455 -0.55919291073839883 0 0.82903756765294845 0.82903756765294845 0 0.55919291073839883 forward_v I I I I #
loop $-1 $-1 $191 $44 #
coedge $-1 $114 $114 $115 $192 reversed $69 $-1 #
coedge $-1 $115 $115 $114 $192 forward $71 $-1 #
coedge $-1 $116 $116 $72 $117 forward $111 $-1 #
edge $-1 $193 0 $193 6.2831853071796004 $116 $194 forward 7 unknown #
loop $-1 $-1 $123 $73 #
plane-surface $-1 -74.986419263283182 14.99399898105478 4.9126355870287455 -0.55919291073839883 0 0.82903756765294845 0.82903756765294845 0 0.55919291073839883 forward_v I I I I #
loop $-1 $-1 $195 $47 #
coedge $-1 $121 $121 $122 $196 reversed $74 $-1 #
coedge $-1 $122 $122 $121 $196 forward $76 $-1 #
coedge $-1 $123 $123 $77 $124 forward $118 $-1 #
edge $-1 $197 0 $197 6.2831853071796004 $123 $198 forward 7 unknown #
face $-1 $199 $200 $26 $-1 $201 forward single #
loop $-1 $-1 $202 $78 #
plane-surface $-1 41.807668875421584 3.7095373623974588 220.33171044390028 0 1 0 0.5877852598018023 0 0.80901698891910034 forward_v I I I I #
coedge $-1 $203 $204 $205 $206 reversed $79 $-1 #
coedge $-1 $130 $81 $207 $208 reversed $51 $-1 #
coedge $-1 $81 $129 $203 $209 reversed $51 $-1 #
coedge $-1 $205 $210 $81 $132 forward $200 $-1 #
edge $-1 $211 -54.08258482557239 $212 -46.012447918851798 $131 $213 forward 7 unknown #
loop $-1 $-1 $138 $82 #
plane-surface $-1 -46.344154981129975 7.3599601382914699 99.001136199487107 0.5877852598018023 0 0.80901698891910034 0.80901698891910034 0 -0.5877852598018023 forward_v I I I I #
loop $-1 $-1 $214 $53 #
coedge $-1 $136 $136 $137 $215 reversed $83 $-1 #
coedge $-1 $137 $137 $136 $215 forward $85 $-1 #
coedge $-1 $138 $138 $86 $139 forward $133 $-1 #
edge $-1 $216 0 $216 6.2831853071796004 $138 $217 forward 7 unknown #
face $-1 $218 $219 $21 $-1 $220 reversed single #
loop $-1 $-1 $221 $87 #
plane-surface $-1 -74.986419263283182 0 0 1 0 0 0 0 -1 forward_v I I I I #
coedge $-1 $222 $151 $223 $224 forward $88 $-1 #
coedge $-1 $225 $90 $222 $226 forward $57 $-1 #
coedge $-1 $90 $225 $227 $228 forward $57 $-1 #
coedge $-1 $154 $153 $90 $147 reversed $155 $-1 #
edge $-1 $229 -40.850858313031068 $230 40.850858313031068 $146 $231 forward 7 unknown #
coedge $-1 $92 $91 $232 $233 forward $36 $-1 #
coedge $-1 $234 $235 $91 $150 reversed $219 $-1 #
edge $-1 $157 -74.986419263283182 $236 74.986419263283182 $149 $237 forward 7 unknown #
coedge $-1 $143 $238 $92 $152 reversed $88 $-1 #
edge $-1 $239 -74.986419263283182 $156 74.986419263283182 $151 $240 forward 7 unknown #
coedge $-1 $146 $93 $238 $241 forward $155 $-1 #
coedge $-1 $93 $146 $234 $242 reversed $155 $-1 #
loop $-1 $-1 $153 $218 #
vertex $-1 $94 $243 #
vertex $-1 $94 $244 #
straight-curve $-1 74.986419263283182 0 16.712610126941943 0 1 0 I I #
face $-1 $245 $246 $22 $-1 $247 reversed single #
loop $-1 $-1 $248 $95 #
plane-surface $-1 0 0 16.712610126941943 0 0 1 1 0 0 forward_v I I I I #
coedge $-1 $249 $250 $251 $252 reversed $96 $-1 #
coedge $-1 $101 $98 $253 $254 reversed $61 $-1 #
coedge $-1 $98 $101 $255 $256 reversed $61 $-1 #
coedge $-1 $250 $249 $98 $166 reversed $96 $-1 #
edge $-1 $257 -16.712610126941943 $258 16.712610126941943 $165 $259 forward 7 unknown #
coedge $-1 $100 $99 $260 $261 reversed $39 $-1 #
coedge $-1 $253 $262 $99 $169 forward $246 $-1 #
edge $-1 $263 -25.128388860926769 $173 -6.3165500432818291 $168 $264 forward 7 unknown #
coedge $-1 $265 $255 $100 $171 forward $160 $-1 #
edge $-1 $172 6.3165500432818291 $266 25.128388860926769 $170 $267 forward 7 unknown #
vertex $-1 $171 $268 #
vertex $-1 $169 $269 #
straight-curve $-1 -48.247161139287023 -22.039019495386128 0 0 0 -1 I I #
face $-1 $-1 $187 $23 $-1 $270 forward single #
loop $-1 $-1 $271 $103 #
plane-surface $-1 -74.986419263283182 0 0 1 0 0 0 0 -1 forward_v I I I I #
coedge $-1 $272 $273 $274 $275 reversed $104 $-1 #
coedge $-1 $276 $106 $108 $185 forward $65 $-1 #
coedge $-1 $106 $276 $272 $277 forward $65 $-1 #
coedge $-1 $274 $109 $106 $182 forward $187 $-1 #
edge $-1 $189 0.088960735956074899 $278 14.905038245098705 $181 $279 forward 7 unknown #
coedge $-1 $280 $281 $107 $184 forward $176 $-1 #
edge $-1 $282 -59.710240839522115 $188 -47.910266299608921 $183 $283 forward 7 unknown #
edge $-1 $189 -21.101795665348575 $282 0 $108 $284 forward 7 unknown #
coedge $-1 $109 $274 $280 $285 forward $187 $-1 #
loop $-1 $-1 $274 $175 #
vertex $-1 $184 $286 #
vertex $-1 $110 $287 #
straight-curve $-1 -79.425083685326854 7.5859602264834649 16.712610126941939 1 0 0 I I #
coedge $-1 $191 $191 $-1 $288 reversed $113 $-1 #
edge $-1 $289 0 $289 6.2831853071796004 $114 $290 forward 7 unknown #
vertex $-1 $117 $291 #
ellipse-curve $-1 -66.239328587528121 11.819125229095647 10.812622856985342 -0.55919291073839883 0 0.82903756765294845 0.82903756765294845 0 0.55919291073839883 1 I I #
coedge $-1 $195 $195 $-1 $292 reversed $120 $-1 #
edge $-1 $293 0 $293 6.2831853071796004 $121 $294 forward 7 unknown #
vertex $-1 $124 $295 #
ellipse-curve $-1 -66.239328587528121 18.168872733013913 10.812622856985342 -0.55919291073839883 0 0.82903756765294845 0.82903756765294845 0 0.55919291073839883 1 I I #
face $-1 $-1 $296 $26 $-1 $297 reversed single #
loop $-1 $-1 $131 $125 #
plane-surface $-1 0 0 16.712610126941943 0 0 1 1 0 0 forward_v I I I I #
coedge $-1 $298 $299 $300 $301 reversed $126 $-1 #
coedge $-1 $302 $128 $130 $209 forward $79 $-1 #
coedge $-1 $128 $302 $298 $303 forward $79 $-1 #
coedge $-1 $300 $131 $128 $206 forward $200 $-1 #
edge $-1 $212 -7.330402845039746 $304 -0.029557293251723848 $205 $305 forward 7 unknown #
coedge $-1 $306 $307 $129 $208 forward $296 $-1 #
edge $-1 $308 -99.316542879014591 $211 -93.453245095008199 $207 $309 forward 7 unknown #
edge $-1 $212 139.99760065485881 $308 149.97283852656636 $130 $310 forward 7 unknown #
coedge $-1 $131 $300 $306 $311 forward $200 $-1 #
vertex $-1 $208 $312 #
vertex $-1 $132 $313 #
straight-curve $-1 20.903834437710792 11.010382914185481 16.712610126941939 -1 0 0 I I #
coedge $-1 $214 $214 $-1 $314 reversed $135 $-1 #
edge $-1 $315 0 $315 6.2831853071796004 $136 $316 forward 7 unknown #
vertex $-1 $139 $317 #
ellipse-curve $-1 70.951350809922886 7.3599601382914699 13.780961234938756 0.5877852598018023 0 0.80901698891910034 0.80901698891910034 0 -0.5877852598018023 1 I I #
face $-1 $-1 $155 $21 $-1 $318 reversed single #
loop $-1 $-1 $234 $140 #
plane-surface $-1 0 40.850858313031068 0 0 -1 0 0 0 -1 forward_v I I I I #
coedge $-1 $319 $232 $235 $320 forward $141 $-1 #
coedge $-1 $238 $143 $144 $226 reversed $88 $-1 #
coedge $-1 $232 $319 $143 $224 reversed $141 $-1 #
edge $-1 $239 -16.712610126941943 $321 16.712610126941943 $223 $322 forward 7 unknown #
coedge $-1 $145 $144 $319 $323 forward $57 $-1 #
edge $-1 $230 -74.986419263283182 $321 74.986419263283182 $222 $324 forward 7 unknown #
coedge $-1 $235 $234 $145 $228 reversed $219 $-1 #
edge $-1 $325 -74.986419263283182 $229 74.986419263283182 $227 $326 forward 7 unknown #
vertex $-1 $147 $327 #
vertex $-1 $241 $328 #
straight-curve $-1 74.986419263283182 0 -16.712610126941943 0 -1 0 I I #
coedge $-1 $221 $223 $148 $233 reversed $141 $-1 #
edge $-1 $236 -40.850858313031068 $239 40.850858313031068 $232 $329 forward 7 unknown #
coedge $-1 $227 $149 $154 $242 forward $219 $-1 #
coedge $-1 $149 $227 $221 $320 reversed $219 $-1 #
vertex $-1 $150 $330 #
straight-curve $-1 0 40.850858313031068 16.712610126941943 -1 0 0 I I #
coedge $-1 $151 $222 $153 $241 reversed $88 $-1 #
vertex $-1 $233 $331 #
straight-curve $-1 0 -40.850858313031068 16.712610126941943 1 0 0 I I #
edge $-1 $156 -16.712610126941943 $230 16.712610126941943 $153 $332 forward 7 unknown #
edge $-1 $157 -16.712610126941943 $229 16.712610126941943 $154 $333 forward 7 unknown #
point $-1 74.986419263283182 -40.850858313031068 16.712610126941943 #
point $-1 74.986419263283182 40.850858313031068 16.712610126941943 #
face $-1 $-1 $334 $22 $-1 $335 reversed single #
loop $-1 $-1 $336 $159 #
plane-surface $-1 0 0 -16.712610126941943 0 0 1 1 0 0 forward_v I I I I #
coedge $-1 $255 $265 $250 $337 forward $160 $-1 #
coedge $-1 $165 $162 $336 $338 reversed $96 $-1 #
coedge $-1 $162 $165 $248 $337 reversed $96 $-1 #
coedge $-1 $339 $340 $162 $252 forward $334 $-1 #
edge $-1 $341 -16.712610126941943 $342 16.712610126941943 $251 $343 forward 7 unknown #
coedge $-1 $336 $168 $163 $254 forward $246 $-1 #
edge $-1 $173 -25.795071102115443 $258 -19.109108972227716 $253 $344 forward 7 unknown #
coedge $-1 $170 $248 $164 $256 forward $160 $-1 #
edge $-1 $257 19.109108972227716 $172 25.795071102115443 $255 $345 forward 7 unknown #
vertex $-1 $256 $346 #
vertex $-1 $254 $347 #
straight-curve $-1 -41.561199009399296 -22.039019495386128 0 0 0 -1 I I #
coedge $-1 $340 $339 $167 $261 forward $334 $-1 #
edge $-1 $266 -16.712610126941943 $263 16.712610126941943 $260 $348 forward 7 unknown #
coedge $-1 $168 $336 $340 $349 forward $246 $-1 #
vertex $-1 $169 $350 #
straight-curve $-1 -48.247161139287023 -15.722469452104299 -16.712610126941943 0 1 0 I I #
coedge $-1 $248 $170 $339 $351 forward $160 $-1 #
vertex $-1 $351 $352 #
straight-curve $-1 -48.247161139287023 -15.722469452104299 16.712610126941943 0 -1 0 I I #
point $-1 -48.247161139287023 -22.039019495386128 16.712610126941943 #
point $-1 -48.247161139287023 -22.039019495386128 -16.712610126941943 #
plane-surface $-1 0 0 16.712610126941943 0 0 1 1 0 0 forward_v I I I I #
coedge $-1 $281 $280 $273 $353 forward $176 $-1 #
coedge $-1 $273 $178 $180 $277 reversed $104 $-1 #
coedge $-1 $178 $272 $271 $353 reversed $104 $-1 #
coedge $-1 $186 $181 $178 $275 forward $187 $-1 #
edge $-1 $278 -21.932845773553787 $354 -4.4386644220436722 $274 $355 forward 7 unknown #
coedge $-1 $180 $179 $281 $356 reversed $65 $-1 #
edge $-1 $357 0 $278 21.101795665348575 $272 $358 forward 7 unknown #
vertex $-1 $182 $359 #
straight-curve $-1 -57.492237911773067 7.49699949052739 16.712610126941943 0 1 0 I I #
coedge $-1 $271 $183 $186 $285 reversed $176 $-1 #
coedge $-1 $183 $271 $276 $356 forward $176 $-1 #
vertex $-1 $184 $360 #
straight-curve $-1 -74.986419263283182 7.5859602264834649 64.62287642655086 0 0 1 I I #
straight-curve $-1 -74.986419263283182 7.5859602264834649 4.9126355870287455 -0.82903756765294845 0 -0.55919291073839883 I I #
edge $-1 $354 -22.402037735626095 $188 -7.5859602264834649 $280 $361 forward 7 unknown #
point $-1 -74.986419263283182 7.5859602264834649 16.712610126941943 #
point $-1 -57.492237911773067 7.5859602264834649 16.712610126941943 #
edge $-1 $362 1 $362 0 $191 $-1 forward 7 unknown #
vertex $-1 $192 $363 #
ellipse-curve $-1 -65.407817757033499 11.819125229095647 9.5798573781095886 -0.55919291073839883 0 0.82903756765294845 0.82903756765294845 0 0.55919291073839883 1 I I #
point $-1 -65.410291019875189 11.819125229095647 11.371815767723755 #
edge $-1 $364 1 $364 0 $195 $-1 forward 7 unknown #
vertex $-1 $196 $365 #
ellipse-curve $-1 -65.407817757033499 18.168872733013913 9.5798573781095886 -0.55919291073839883 0 0.82903756765294845 0.82903756765294845 0 0.55919291073839883 1 I I #
point $-1 -65.410291019875189 18.168872733013913 11.371815767723755 #
loop $-1 $-1 $207 $199 #
plane-surface $-1 74.986419263283182 0 0 -1 0 0 0 0 1 forward_v I I I I #
coedge $-1 $299 $202 $204 $303 reversed $126 $-1 #
coedge $-1 $202 $298 $366 $367 reversed $126 $-1 #
coedge $-1 $210 $205 $202 $301 forward $200 $-1 #
edge $-1 $304 46.012447918851798 $368 54.08258482557239 $300 $369 forward 7 unknown #
coedge $-1 $204 $203 $307 $370 reversed $79 $-1 #
edge $-1 $371 -149.97283852656636 $304 -139.99760065485881 $298 $372 forward 7 unknown #
vertex $-1 $206 $373 #
straight-curve $-1 66.91628235656259 3.6799800691457349 16.712610126941932 0 -1 0 I I #
coedge $-1 $366 $207 $210 $311 reversed $296 $-1 #
coedge $-1 $207 $366 $302 $370 forward $296 $-1 #
vertex $-1 $208 $374 #
straight-curve $-1 74.986419263283182 11.010382914185481 110.16585522195014 0 0 1 I I #
straight-curve $-1 -46.344154981129975 11.010382914185481 99.001136199487107 0.80901698891910034 0 -0.5877852598018023 I I #
edge $-1 $368 3.7095373623974588 $211 11.010382914185481 $306 $375 forward 7 unknown #
point $-1 74.986419263283182 11.010382914185481 16.712610126941943 #
point $-1 66.91628235656259 11.010382914185481 16.712610126941939 #
edge $-1 $376 1 $376 0 $214 $-1 forward 7 unknown #
vertex $-1 $215 $377 #
ellipse-curve $-1 69.498274324892677 7.3599601382914699 11.780973070920011 0.5877852598018023 0 0.80901698891910034 0.80901698891910034 0 -0.5877852598018023 1 I I #
point $-1 71.760367798841997 7.3599601382914699 13.193175975136972 #
plane-surface $-1 74.986419263283182 0 0 -1 0 0 0 0 1 forward_v I I I I #
coedge $-1 $223 $221 $225 $323 reversed $141 $-1 #
edge $-1 $236 -16.712610126941943 $325 16.712610126941943 $235 $378 forward 7 unknown #
vertex $-1 $323 $379 #
straight-curve $-1 -74.986419263283182 -40.850858313031068 0 0 0 -1 I I #
edge $-1 $321 -40.850858313031068 $325 40.850858313031068 $319 $380 forward 7 unknown #
straight-curve $-1 0 -40.850858313031068 -16.712610126941943 -1 0 0 I I #
vertex $-1 $228 $381 #
straight-curve $-1 0 40.850858313031068 -16.712610126941943 1 0 0 I I #
point $-1 74.986419263283182 40.850858313031068 -16.712610126941943 #
point $-1 74.986419263283182 -40.850858313031068 -16.712610126941943 #
straight-curve $-1 -74.986419263283182 0 16.712610126941943 0 -1 0 I I #
point $-1 -74.986419263283182 40.850858313031068 16.712610126941943 #
point $-1 -74.986419263283182 -40.850858313031068 16.712610126941943 #
straight-curve $-1 74.986419263283182 -40.850858313031068 0 0 0 -1 I I #
straight-curve $-1 74.986419263283182 40.850858313031068 0 0 0 -1 I I #
loop $-1 $-1 $251 $245 #
plane-surface $-1 0 -40.850858313031068 0 0 1 0 0 0 1 forward_v I I I I #
coedge $-1 $262 $253 $249 $338 forward $246 $-1 #
edge $-1 $342 -25.128388860926769 $257 -6.3165500432818291 $248 $382 forward 7 unknown #
edge $-1 $258 6.3165500432818291 $341 25.128388860926769 $336 $383 forward 7 unknown #
coedge $-1 $260 $251 $265 $351 reversed $334 $-1 #
coedge $-1 $251 $260 $262 $349 reversed $334 $-1 #
vertex $-1 $349 $384 #
vertex $-1 $252 $385 #
straight-curve $-1 -41.561199009399296 -40.850858313031068 0 0 0 1 I I #
straight-curve $-1 -22.45209003717158 -22.039019495386128 -16.712610126941943 1 0 0 I I #
straight-curve $-1 -22.45209003717158 -22.039019495386128 16.712610126941943 -1 0 0 I I #
point $-1 -41.561199009399296 -22.039019495386128 16.712610126941943 #
point $-1 -41.561199009399296 -22.039019495386128 -16.712610126941943 #
straight-curve $-1 -48.247161139287023 -40.850858313031068 0 0 0 -1 I I #
edge $-1 $341 41.561199009399296 $263 48.247161139287023 $340 $386 forward 7 unknown #
point $-1 -48.247161139287023 -40.850858313031068 -16.712610126941943 #
edge $-1 $266 -48.247161139287023 $342 -41.561199009399296 $339 $387 forward 7 unknown #
point $-1 -48.247161139287023 -40.850858313031068 16.712610126941943 #
edge $-1 $354 47.910266299608921 $357 59.710240839522115 $271 $388 forward 7 unknown #
vertex $-1 $285 $389 #
straight-curve $-1 -79.425083685326854 22.402037735626095 16.712610126941939 -1 0 0 I I #
edge $-1 $357 -14.905038245098705 $282 -0.088960735956074899 $281 $390 forward 7 unknown #
vertex $-1 $356 $391 #
straight-curve $-1 -74.986419263283182 22.402037735626095 4.9126355870287455 0.82903756765294845 0 0.55919291073839883 I I #
point $-1 -57.492237911773067 22.402037735626095 16.712610126941943 #
point $-1 -74.986419263283182 7.5859602264834649 4.9126355870287455 #
straight-curve $-1 -74.986419263283182 0 16.712610126941943 0 -1 0 I I #
vertex $-1 $288 $392 #
point $-1 -64.578780189380552 11.819125229095647 10.139050288847987 #
vertex $-1 $292 $393 #
point $-1 -64.578780189380552 18.168872733013913 10.139050288847987 #
coedge $-1 $307 $306 $299 $367 forward $296 $-1 #
edge $-1 $368 93.453245095008199 $371 99.316542879014591 $366 $394 forward 7 unknown #
vertex $-1 $311 $395 #
straight-curve $-1 20.903834437710792 3.7095373623974588 16.712610126941939 1 0 0 I I #
edge $-1 $371 0.029557293251723848 $308 7.330402845039746 $307 $396 forward 7 unknown #
vertex $-1 $370 $397 #
straight-curve $-1 -46.344154981129975 3.7095373623974588 99.001136199487107 -0.80901698891910034 0 0.5877852598018023 I I #
point $-1 66.91628235656259 3.7095373623974588 16.712610126941939 #
point $-1 74.986419263283196 11.010382914185481 10.849312342935548 #
straight-curve $-1 74.986419263283182 0 16.712610126941943 0 1 0 I I #
vertex $-1 $314 $398 #
point $-1 70.307291313811788 7.3599601382914699 11.193187811118207 #
straight-curve $-1 -74.986419263283182 40.850858313031068 0 0 0 -1 I I #
point $-1 -74.986419263283182 -40.850858313031068 -16.712610126941943 #
straight-curve $-1 -74.986419263283182 0 -16.712610126941943 0 1 0 I I #
point $-1 -74.986419263283182 40.850858313031068 -16.712610126941943 #
straight-curve $-1 -41.561199009399296 -15.722469452104299 16.712610126941943 0 1 0 I I #
straight-curve $-1 -41.561199009399296 -15.722469452104299 -16.712610126941943 0 -1 0 I I #
point $-1 -41.561199009399296 -40.850858313031068 -16.712610126941943 #
point $-1 -41.561199009399296 -40.850858313031068 16.712610126941943 #
straight-curve $-1 0 -40.850858313031068 -16.712610126941943 -1 0 0 I I #
straight-curve $-1 0 -40.850858313031068 16.712610126941943 1 0 0 I I #
straight-curve $-1 -74.986419263283182 22.402037735626095 64.62287642655086 0 0 -1 I I #
point $-1 -74.986419263283182 22.402037735626095 16.712610126941943 #
straight-curve $-1 -74.986419263283182 7.49699949052739 4.912635587028749 0 -1 0 I I #
point $-1 -74.986419263283182 22.402037735626095 4.9126355870287455 #
point $-1 -64.848624846295095 11.819125229095647 8.7508198104566386 #
point $-1 -64.848624846295095 18.168872733013913 8.7508198104566386 #
straight-curve $-1 74.986419263283182 3.7095373623974588 110.16585522195014 0 0 -1 I I #
point $-1 74.986419263283182 3.7095373623974588 16.712610126941943 #
straight-curve $-1 74.986419263283196 3.6799800691457349 10.849312342935555 0 1 0 I I #
point $-1 74.986419263283196 3.7095373623974588 10.849312342935548 #
point $-1 68.910489065090886 7.3599601382914699 10.97195608200091 #
End-of-ACIS-data 