500 0 8 0           
7 Unknown 11 ACIS 5.0 NT 24 Fri Mar 26 15:52:34 1999 
-1 9.9999999999999995e-007 1e-010 
body $-1 $8 $-1 $9 #
body $-1 $10 $-1 $11 #
body $-1 $12 $-1 $13 #
body $-1 $14 $-1 $15 #
body $-1 $16 $-1 $17 #
body $-1 $18 $-1 $19 #
body $-1 $20 $-1 $21 #
body $-1 $22 $-1 $23 #
lump $-1 $-1 $24 $0 #
transform $-1 1 0 0 0 1 0 0 0 1 43.245948667867061 19.83873415313915 5.6876446579792006 1 rotate no_reflect no_shear #
lump $-1 $-1 $25 $1 #
transform $-1 1 0 0 0 1 0 0 0 1 43.245948667867061 19.83873415313915 5.6876446579792006 1 rotate no_reflect no_shear #
lump $-1 $-1 $26 $2 #
transform $-1 1 0 0 0 1 0 0 0 1 43.245948667867061 19.83873415313915 5.6876446579792006 1 rotate no_reflect no_shear #
lump $-1 $-1 $27 $3 #
transform $-1 1 0 0 0 1 0 0 0 1 43.245948667867061 19.83873415313915 5.6876446579792006 1 rotate no_reflect no_shear #
lump $-1 $-1 $28 $4 #
transform $-1 1 0 0 0 1 0 0 0 1 43.245948667867061 19.83873415313915 5.6876446579792006 1 rotate no_reflect no_shear #
lump $-1 $-1 $29 $5 #
transform $-1 1 0 0 0 1 0 0 0 1 43.245948667867061 19.83873415313915 5.6876446579792006 1 rotate no_reflect no_shear #
lump $-1 $-1 $30 $6 #
transform $-1 1 0 0 0 1 0 0 0 1 43.245948667867061 19.83873415313915 5.6876446579792006 1 rotate no_reflect no_shear #
lump $-1 $-1 $31 $7 #
transform $-1 1 0 0 0 1 0 0 0 1 43.245948667867061 19.83873415313915 5.6876446579792006 1 rotate no_reflect no_shear #
shell $-1 $-1 $-1 $32 $-1 $8 #
shell $-1 $-1 $-1 $33 $-1 $10 #
shell $-1 $-1 $-1 $34 $-1 $12 #
shell $-1 $-1 $-1 $35 $-1 $14 #
shell $-1 $-1 $-1 $36 $-1 $16 #
shell $-1 $-1 $-1 $37 $-1 $18 #
shell $-1 $-1 $-1 $38 $-1 $20 #
shell $-1 $-1 $-1 $39 $-1 $22 #
face $-1 $40 $41 $24 $-1 $42 forward single #
face $-1 $43 $44 $25 $-1 $45 forward single #
face $-1 $46 $47 $26 $-1 $48 reversed single #
face $-1 $49 $50 $27 $-1 $51 forward single #
face $-1 $52 $53 $28 $-1 $54 reversed single #
face $-1 $55 $56 $29 $-1 $57 forward single #
face $-1 $58 $59 $30 $-1 $60 forward single #
face $-1 $61 $62 $31 $-1 $63 forward single #
face $-1 $64 $65 $24 $-1 $66 reversed single #
loop $-1 $-1 $67 $32 #
plane-surface $-1 0 0 5.6876446579792006 0 0 1 1 0 0 forward_v I I I I #
face $-1 $68 $69 $25 $-1 $70 reversed single #
loop $-1 $-1 $71 $33 #
plane-surface $-1 -43.245948667867061 0 0 1 0 0 0 0 -1 forward_v I I I I #
face $-1 $72 $73 $26 $-1 $74 reversed single #
loop $-1 $-1 $75 $34 #
plane-surface $-1 -12.080770186219837 -93.976761002668212 44.791293508745092 -1 0 0 0 -0.85716730853699208 0.51503806187062418 forward_v I I I I #
face $-1 $76 $77 $27 $-1 $78 forward single #
loop $-1 $79 $80 $35 #
cone-surface $-1 -16.615471834422372 -16.57426962565091 1.9872185885045728 0 0.85716730853699208 -0.51503806187062418 1.5 0 0 1 I I 0 1 1.5 forward I I I I #
face $-1 $81 $82 $28 $-1 $83 reversed single #
loop $-1 $-1 $84 $36 #
plane-surface $-1 -18.225741762736952 72.162169398773671 81.944122908689735 1 0 0 0 -0.84804810408105047 -0.52991925155115449 forward_v I I I I #
face $-1 $85 $86 $29 $-1 $87 forward single #
loop $-1 $88 $89 $37 #
cone-surface $-1 -14.199302191008091 18.243900735471772 3.7080050446206143 0 -0.84804810408105047 -0.52991925155115449 0.5 0 0 1 I I 0 1 0.5 forward I I I I #
face $-1 $90 $91 $30 $-1 $92 forward single #
loop $-1 $93 $94 $38 #
cone-surface $-1 -8.159642833414793 18.243900735471772 3.7080050446206143 0 -0.84804810408105047 -0.52991925155115449 0.5 0 0 1 I I 0 1 0.5 forward I I I I #
face $-1 $95 $96 $31 $-1 $97 forward single #
loop $-1 $98 $99 $39 #
cone-surface $-1 -2.1199834758214919 18.243900735471772 3.7080050446206143 0 -0.84804810408105047 -0.52991925155115449 0.5 0 0 1 I I 0 1 0.5 forward I I I I #
face $-1 $100 $101 $24 $-1 $102 reversed single #
loop $-1 $-1 $103 $40 #
plane-surface $-1 0 0 -5.6876446579792006 0 0 1 1 0 0 forward_v I I I I #
coedge $-1 $104 $105 $106 $107 forward $41 $-1 #
face $-1 $108 $109 $25 $-1 $110 forward single #
loop $-1 $-1 $111 $43 #
plane-surface $-1 0 19.83873415313915 0 0 -1 0 0 0 -1 forward_v I I I I #
coedge $-1 $112 $113 $114 $115 forward $44 $-1 #
face $-1 $116 $117 $26 $-1 $118 reversed single #
loop $-1 $-1 $119 $46 #
plane-surface $-1 -16.615471834422372 -19.838734153139157 0.24467433743558331 0 -0.85716730853699208 0.51503806187062418 1 0 0 forward_v I I I I #
coedge $-1 $120 $121 $122 $123 reversed $47 $-1 #
face $-1 $-1 $124 $27 $-1 $125 forward single #
loop $-1 $126 $127 $49 #
cone-surface $-1 -16.615471834422372 -14.302162818488551 0.62199913289878239 0 0.85716730853699208 -0.51503806187062418 0.75 0 0 1 I I -0.70710678118654746 0.70710678118654768 0.75 forward I I I I #
loop $-1 $-1 $128 $35 #
coedge $-1 $80 $80 $129 $130 reversed $50 $-1 #
face $-1 $131 $132 $28 $-1 $133 reversed single #
loop $-1 $-1 $134 $52 #
plane-surface $-1 -8.159642833414793 -1.1871201551685004 36.11040140729822 0 0.84804810408105047 0.52991925155115449 1 0 0 forward_v I I I I #
coedge $-1 $135 $136 $137 $138 reversed $53 $-1 #
face $-1 $-1 $139 $29 $-1 $140 forward single #
loop $-1 $141 $142 $55 #
cone-surface $-1 -14.199302191008091 17.444858615615018 3.2087081296523667 0 -0.84804810408105047 -0.52991925155115449 0.25 0 0 1 I I -0.70710678118654746 0.70710678118654746 0.25 forward I I I I #
loop $-1 $-1 $143 $37 #
coedge $-1 $89 $89 $144 $145 reversed $56 $-1 #
face $-1 $-1 $146 $30 $-1 $147 forward single #
loop $-1 $148 $149 $58 #
cone-surface $-1 -8.159642833414793 17.444858615615018 3.2087081296523667 0 -0.84804810408105047 -0.52991925155115449 0.25 0 0 1 I I -0.70710678118654746 0.70710678118654746 0.25 forward I I I I #
loop $-1 $-1 $150 $38 #
coedge $-1 $94 $94 $151 $152 reversed $59 $-1 #
face $-1 $-1 $153 $31 $-1 $154 forward single #
loop $-1 $155 $156 $61 #
cone-surface $-1 -2.1199834758214919 17.444858615615018 3.2087081296523667 0 -0.84804810408105047 -0.52991925155115449 0.25 0 0 1 I I -0.70710678118654746 0.70710678118654746 0.25 forward I I I I #
loop $-1 $-1 $157 $39 #
coedge $-1 $99 $99 $158 $159 reversed $62 $-1 #
face $-1 $160 $161 $24 $-1 $162 reversed single #
loop $-1 $-1 $163 $64 #
plane-surface $-1 0 -19.83873415313915 0 0 1 0 0 0 1 forward_v I I I I #
coedge $-1 $164 $165 $166 $167 forward $65 $-1 #
coedge $-1 $168 $67 $169 $170 forward $41 $-1 #
coedge $-1 $67 $168 $171 $172 forward $41 $-1 #
coedge $-1 $173 $174 $67 $107 reversed $175 $-1 #
edge $-1 $176 -19.83873415313915 $177 19.83873415313915 $106 $178 forward 7 unknown #
face $-1 $179 $180 $25 $-1 $181 reversed single #
loop $-1 $-1 $114 $68 #
plane-surface $-1 -46.336080535298358 0 -2.6876446579792006 0 0 1 1 0 0 forward_v I I I I #
coedge $-1 $182 $183 $113 $184 forward $69 $-1 #
coedge $-1 $185 $71 $186 $187 reversed $44 $-1 #
coedge $-1 $71 $185 $111 $184 reversed $44 $-1 #
coedge $-1 $188 $189 $71 $115 reversed $109 $-1 #
edge $-1 $190 -19.83873415313915 $191 19.83873415313915 $114 $192 forward 7 unknown #
face $-1 $193 $194 $26 $-1 $195 reversed single #
loop $-1 $-1 $196 $72 #
plane-surface $-1 -21.150173482624908 -93.976761002668212 44.791293508745092 1 0 0 0 0.85716730853699208 -0.51503806187062418 forward_v I I I I #
coedge $-1 $197 $198 $199 $200 reversed $73 $-1 #
coedge $-1 $121 $75 $201 $202 reversed $47 $-1 #
coedge $-1 $75 $120 $197 $203 reversed $47 $-1 #
coedge $-1 $199 $204 $75 $123 forward $205 $-1 #
edge $-1 $206 27.149646348194956 $207 30.420112751652209 $122 $208 forward 7 unknown #
loop $-1 $-1 $129 $76 #
plane-surface $-1 -16.615471834422372 -19.838734153139157 0.24467433743558331 0 -0.85716730853699208 0.51503806187062418 1 0 0 forward_v I I I I #
loop $-1 $-1 $209 $49 #
coedge $-1 $127 $127 $128 $210 reversed $77 $-1 #
coedge $-1 $128 $128 $127 $210 forward $79 $-1 #
coedge $-1 $129 $129 $80 $130 forward $124 $-1 #
edge $-1 $211 7.1231017466377989e-016 $211 6.2831853071796013 $129 $212 forward 7 unknown #
face $-1 $213 $214 $28 $-1 $215 forward single #
loop $-1 $-1 $216 $81 #
plane-surface $-1 1.9064560959073678 72.162169398773671 81.944122908689735 -1 0 0 0 0.84804810408105047 0.52991925155115449 forward_v I I I I #
coedge $-1 $217 $218 $219 $220 reversed $82 $-1 #
coedge $-1 $136 $84 $221 $222 reversed $53 $-1 #
coedge $-1 $84 $135 $217 $223 reversed $53 $-1 #
coedge $-1 $219 $224 $84 $138 forward $214 $-1 #
edge $-1 $225 16.242350546247685 $226 18.257957193909448 $137 $227 forward 7 unknown #
loop $-1 $-1 $144 $85 #
plane-surface $-1 -8.159642833414793 -1.1871201551685004 36.11040140729822 0 0.84804810408105047 0.52991925155115449 1 0 0 forward_v I I I I #
loop $-1 $-1 $228 $55 #
coedge $-1 $142 $142 $143 $229 reversed $86 $-1 #
coedge $-1 $143 $143 $142 $229 forward $88 $-1 #
coedge $-1 $144 $144 $89 $145 forward $139 $-1 #
edge $-1 $230 1.5064360498247893e-015 $230 6.2831853071796022 $144 $231 forward 7 unknown #
loop $-1 $-1 $151 $90 #
plane-surface $-1 -8.159642833414793 -1.1871201551685004 36.11040140729822 0 0.84804810408105047 0.52991925155115449 1 0 0 forward_v I I I I #
loop $-1 $-1 $232 $58 #
coedge $-1 $149 $149 $150 $233 reversed $91 $-1 #
coedge $-1 $150 $150 $149 $233 forward $93 $-1 #
coedge $-1 $151 $151 $94 $152 forward $146 $-1 #
edge $-1 $234 1.5064360498247893e-015 $234 6.2831853071796022 $151 $235 forward 7 unknown #
loop $-1 $-1 $158 $95 #
plane-surface $-1 -8.159642833414793 -1.1871201551685004 36.11040140729822 0 0.84804810408105047 0.52991925155115449 1 0 0 forward_v I I I I #
loop $-1 $-1 $236 $61 #
coedge $-1 $156 $156 $157 $237 reversed $96 $-1 #
coedge $-1 $157 $157 $156 $237 forward $98 $-1 #
coedge $-1 $158 $158 $99 $159 forward $153 $-1 #
edge $-1 $238 1.5064360498247893e-015 $238 6.2831853071796022 $158 $239 forward 7 unknown #
face $-1 $240 $241 $24 $-1 $242 reversed single #
loop $-1 $-1 $243 $100 #
plane-surface $-1 -43.245948667867061 0 0 1 0 0 0 0 -1 forward_v I I I I #
coedge $-1 $244 $171 $245 $246 forward $101 $-1 #
coedge $-1 $247 $103 $244 $248 forward $65 $-1 #
coedge $-1 $103 $247 $249 $250 forward $65 $-1 #
coedge $-1 $174 $173 $103 $167 reversed $175 $-1 #
edge $-1 $251 -19.83873415313915 $252 19.83873415313915 $166 $253 forward 7 unknown #
coedge $-1 $105 $104 $254 $255 forward $41 $-1 #
coedge $-1 $256 $257 $104 $170 reversed $241 $-1 #
edge $-1 $177 -43.245948667867061 $258 43.245948667867061 $169 $259 forward 7 unknown #
coedge $-1 $163 $260 $105 $172 reversed $101 $-1 #
edge $-1 $261 -43.245948667867061 $176 43.245948667867061 $171 $262 forward 7 unknown #
coedge $-1 $166 $106 $260 $263 forward $175 $-1 #
coedge $-1 $106 $166 $256 $264 reversed $175 $-1 #
loop $-1 $-1 $173 $240 #
vertex $-1 $107 $265 #
vertex $-1 $107 $266 #
straight-curve $-1 43.245948667867061 0 5.6876446579792006 0 1 0 I I #
face $-1 $267 $268 $25 $-1 $269 reversed single #
loop $-1 $-1 $270 $108 #
plane-surface $-1 -49.426212402729654 0 -4.1876446579792006 1 0 0 0 0 -1 forward_v I I I I #
coedge $-1 $271 $111 $272 $273 reversed $69 $-1 #
coedge $-1 $111 $271 $188 $274 reversed $69 $-1 #
edge $-1 $190 2.6876446579792006 $275 5.6876446579792006 $111 $276 forward 7 unknown #
coedge $-1 $113 $112 $277 $278 reversed $44 $-1 #
coedge $-1 $279 $280 $112 $187 forward $281 $-1 #
edge $-1 $282 -5.6876446579792006 $191 -2.6876446579792006 $186 $283 forward 7 unknown #
coedge $-1 $284 $114 $183 $274 forward $109 $-1 #
coedge $-1 $114 $284 $279 $285 forward $109 $-1 #
vertex $-1 $184 $286 #
vertex $-1 $285 $287 #
straight-curve $-1 -43.245948667867061 0 -2.6876446579792006 0 -1 0 I I #
face $-1 $-1 $205 $26 $-1 $288 forward single #
loop $-1 $-1 $289 $116 #
plane-surface $-1 0 -19.83873415313915 0 0 1 0 0 0 1 forward_v I I I I #
coedge $-1 $290 $291 $292 $293 reversed $117 $-1 #
coedge $-1 $294 $119 $121 $203 forward $73 $-1 #
coedge $-1 $119 $294 $290 $295 forward $73 $-1 #
coedge $-1 $292 $122 $119 $200 forward $205 $-1 #
edge $-1 $207 3.7730342690086509 $296 12.842437565413722 $199 $297 forward 7 unknown #
coedge $-1 $298 $299 $120 $202 forward $194 $-1 #
edge $-1 $300 -22.150972416936952 $206 -16.708002096393344 $201 $301 forward 7 unknown #
edge $-1 $207 -6.3499508979567212 $300 -1.379460482718971e-014 $121 $302 forward 7 unknown #
coedge $-1 $122 $292 $298 $303 forward $205 $-1 #
loop $-1 $-1 $292 $193 #
vertex $-1 $202 $304 #
vertex $-1 $123 $305 #
straight-curve $-1 -12.080770186219837 -46.988380501334106 5.6876446579791988 0 1 0 I I #
coedge $-1 $209 $209 $-1 $306 reversed $126 $-1 #
edge $-1 $307 0 $307 6.2831853071796004 $127 $308 forward 7 unknown #
vertex $-1 $130 $309 #
ellipse-curve $-1 -16.615471834422372 -18.203500951410525 2.966159497707396 0 -0.85716730853699208 0.51503806187062418 1.5 0 0 1 I I #
face $-1 $-1 $310 $28 $-1 $311 reversed single #
loop $-1 $-1 $137 $131 #
plane-surface $-1 0 0 5.6876446579792006 0 0 1 1 0 0 forward_v I I I I #
coedge $-1 $312 $313 $314 $315 reversed $132 $-1 #
coedge $-1 $316 $134 $136 $223 forward $82 $-1 #
coedge $-1 $134 $316 $312 $317 forward $82 $-1 #
coedge $-1 $314 $137 $134 $220 forward $214 $-1 #
edge $-1 $226 -14.145920346029556 $318 5.9862775126147643 $219 $319 forward 7 unknown #
coedge $-1 $320 $321 $135 $222 forward $310 $-1 #
edge $-1 $322 -38.510061818921926 $225 -35.284416796365669 $221 $323 forward 7 unknown #
edge $-1 $226 35.873857394310534 $322 39.6774683062783 $136 $324 forward 7 unknown #
coedge $-1 $137 $314 $320 $325 forward $214 $-1 #
vertex $-1 $222 $326 #
vertex $-1 $138 $327 #
straight-curve $-1 -18.225741762736952 36.081084699386835 5.6876446579791988 0 -1 0 I I #
coedge $-1 $228 $228 $-1 $328 reversed $141 $-1 #
edge $-1 $329 0 $329 6.2831853071796004 $142 $330 forward 7 unknown #
vertex $-1 $145 $331 #
ellipse-curve $-1 -14.199302191008091 18.830930829308265 4.0748221467010737 0 0.84804810408105047 0.52991925155115449 0.5 0 0 1 I I #
coedge $-1 $232 $232 $-1 $332 reversed $148 $-1 #
edge $-1 $333 0 $333 6.2831853071796004 $149 $334 forward 7 unknown #
vertex $-1 $152 $335 #
ellipse-curve $-1 -8.159642833414793 18.830930829308265 4.0748221467010737 0 0.84804810408105047 0.52991925155115449 0.5 0 0 1 I I #
coedge $-1 $236 $236 $-1 $336 reversed $155 $-1 #
edge $-1 $337 0 $337 6.2831853071796004 $156 $338 forward 7 unknown #
vertex $-1 $159 $339 #
ellipse-curve $-1 -2.1199834758214919 18.830930829308265 4.0748221467010737 0 0.84804810408105047 0.52991925155115449 0.5 0 0 1 I I #
face $-1 $-1 $175 $24 $-1 $340 reversed single #
loop $-1 $-1 $256 $160 #
plane-surface $-1 0 19.83873415313915 0 0 -1 0 0 0 -1 forward_v I I I I #
coedge $-1 $341 $254 $257 $342 forward $161 $-1 #
coedge $-1 $260 $163 $164 $248 reversed $101 $-1 #
coedge $-1 $254 $341 $163 $246 reversed $161 $-1 #
edge $-1 $261 -5.6876446579792006 $343 5.6876446579792006 $245 $344 forward 7 unknown #
coedge $-1 $165 $164 $341 $345 forward $65 $-1 #
edge $-1 $252 -43.245948667867061 $343 43.245948667867061 $244 $346 forward 7 unknown #
coedge $-1 $257 $256 $165 $250 reversed $241 $-1 #
edge $-1 $347 -43.245948667867061 $251 43.245948667867061 $249 $348 forward 7 unknown #
vertex $-1 $167 $349 #
vertex $-1 $263 $350 #
straight-curve $-1 43.245948667867061 0 -5.6876446579792006 0 -1 0 I I #
coedge $-1 $243 $245 $168 $255 reversed $161 $-1 #
edge $-1 $258 -19.83873415313915 $261 19.83873415313915 $254 $351 forward 7 unknown #
coedge $-1 $249 $169 $174 $264 forward $241 $-1 #
coedge $-1 $169 $249 $243 $342 reversed $241 $-1 #
vertex $-1 $170 $352 #
straight-curve $-1 0 19.83873415313915 5.6876446579792006 -1 0 0 I I #
coedge $-1 $171 $244 $173 $263 reversed $101 $-1 #
vertex $-1 $255 $353 #
straight-curve $-1 0 -19.83873415313915 5.6876446579792006 1 0 0 I I #
edge $-1 $176 -5.6876446579792006 $252 5.6876446579792006 $173 $354 forward 7 unknown #
edge $-1 $177 -5.6876446579792006 $251 5.6876446579792006 $174 $355 forward 7 unknown #
point $-1 43.245948667867061 -19.83873415313915 5.6876446579792006 #
point $-1 43.245948667867061 19.83873415313915 5.6876446579792006 #
face $-1 $-1 $281 $25 $-1 $356 reversed single #
loop $-1 $-1 $277 $179 #
plane-surface $-1 0 0 -5.6876446579792006 0 0 1 1 0 0 forward_v I I I I #
coedge $-1 $357 $358 $271 $359 forward $180 $-1 #
coedge $-1 $183 $182 $270 $359 reversed $69 $-1 #
coedge $-1 $277 $360 $182 $273 forward $268 $-1 #
edge $-1 $361 -49.426212402729654 $275 -43.245948667867061 $182 $362 forward 7 unknown #
edge $-1 $190 -3.0901318674312961 $363 3.0901318674312961 $183 $364 forward 7 unknown #
vertex $-1 $184 $365 #
straight-curve $-1 -43.245948667867061 19.83873415313915 0 0 0 -1 I I #
coedge $-1 $366 $272 $185 $278 forward $268 $-1 #
edge $-1 $275 -19.83873415313915 $282 19.83873415313915 $277 $367 forward 7 unknown #
coedge $-1 $368 $186 $189 $285 reversed $281 $-1 #
coedge $-1 $186 $368 $366 $369 reversed $281 $-1 #
loop $-1 $-1 $186 $267 #
vertex $-1 $369 $370 #
straight-curve $-1 -43.245948667867061 -19.83873415313915 0 0 0 1 I I #
coedge $-1 $189 $188 $358 $371 forward $109 $-1 #
edge $-1 $372 -3.0901318674312961 $191 3.0901318674312961 $279 $373 forward 7 unknown #
point $-1 -43.245948667867061 19.83873415313915 -2.6876446579792006 #
point $-1 -43.245948667867061 -19.83873415313915 -2.6876446579792006 #
plane-surface $-1 0 0 5.6876446579792006 0 0 1 1 0 0 forward_v I I I I #
coedge $-1 $299 $298 $291 $374 forward $194 $-1 #
coedge $-1 $291 $196 $198 $295 reversed $117 $-1 #
coedge $-1 $196 $290 $289 $374 reversed $117 $-1 #
coedge $-1 $204 $199 $196 $293 forward $205 $-1 #
edge $-1 $296 -30.420112751652209 $375 -27.149646348194956 $292 $376 forward 7 unknown #
coedge $-1 $198 $197 $299 $377 reversed $73 $-1 #
edge $-1 $378 1.379460482718971e-014 $296 6.3499508979567212 $290 $379 forward 7 unknown #
vertex $-1 $200 $380 #
straight-curve $-1 -8.3077359172111862 -16.568267749681894 5.6876446579792006 -1 0 0 I I #
coedge $-1 $289 $201 $204 $303 reversed $194 $-1 #
coedge $-1 $201 $289 $294 $377 forward $194 $-1 #
vertex $-1 $202 $381 #
straight-curve $-1 -12.080770186219837 -19.83873415313915 22.395646754372546 0 0 1 I I #
straight-curve $-1 -12.080770186219837 -19.838734153139157 0.24467433743558331 0 -0.51503806187062418 -0.85716730853699208 I I #
edge $-1 $375 -21.150173482624908 $206 -12.080770186219837 $298 $382 forward 7 unknown #
point $-1 -12.080770186219837 -19.83873415313915 5.6876446579792006 #
point $-1 -12.080770186219837 -16.568267749681898 5.6876446579792006 #
edge $-1 $383 1 $383 0 $209 $-1 forward 7 unknown #
vertex $-1 $210 $384 #
ellipse-curve $-1 -16.615471834422372 -14.945038299891294 1.0082776793017507 0 -0.85716730853699208 0.51503806187062418 1.5 0 0 1 I I #
point $-1 -15.115471834422372 -18.203500951410522 2.9661594977073951 #
loop $-1 $-1 $221 $213 #
plane-surface $-1 0 19.83873415313915 0 0 -1 0 0 0 -1 forward_v I I I I #
coedge $-1 $313 $216 $218 $317 reversed $132 $-1 #
coedge $-1 $216 $312 $385 $386 reversed $132 $-1 #
coedge $-1 $224 $219 $216 $315 forward $214 $-1 #
edge $-1 $318 -18.257957193909448 $387 -16.242350546247685 $314 $388 forward 7 unknown #
coedge $-1 $218 $217 $321 $389 reversed $82 $-1 #
edge $-1 $390 -39.6774683062783 $318 -35.873857394310534 $312 $391 forward 7 unknown #
vertex $-1 $220 $392 #
straight-curve $-1 -4.0798214167073965 17.823127505477387 5.6876446579792024 1 0 0 I I #
coedge $-1 $385 $221 $224 $325 reversed $310 $-1 #
coedge $-1 $221 $385 $316 $389 forward $310 $-1 #
vertex $-1 $222 $393 #
straight-curve $-1 -18.225741762736952 19.83873415313915 40.972061454344868 0 0 1 I I #
straight-curve $-1 -18.225741762736952 -1.1871201551685004 36.11040140729822 0 0.52991925155115449 -0.84804810408105047 I I #
edge $-1 $387 -1.9064560959073678 $225 18.225741762736952 $320 $394 forward 7 unknown #
point $-1 -18.225741762736952 19.83873415313915 5.6876446579792006 #
point $-1 -18.225741762736952 17.823127505477387 5.6876446579791988 #
edge $-1 $395 1 $395 0 $228 $-1 forward 7 unknown #
vertex $-1 $229 $396 #
ellipse-curve $-1 -14.199302191008091 17.65687064163528 3.3411879425401554 0 0.84804810408105047 0.52991925155115449 0.5 0 0 1 I I #
point $-1 -13.699302191008091 18.830930829308265 4.0748221467010728 #
edge $-1 $397 1 $397 0 $232 $-1 forward 7 unknown #
vertex $-1 $233 $398 #
ellipse-curve $-1 -8.159642833414793 17.65687064163528 3.3411879425401554 0 0.84804810408105047 0.52991925155115449 0.5 0 0 1 I I #
point $-1 -7.659642833414793 18.830930829308265 4.0748221467010728 #
edge $-1 $399 1 $399 0 $236 $-1 forward 7 unknown #
vertex $-1 $237 $400 #
ellipse-curve $-1 -2.1199834758214919 17.65687064163528 3.3411879425401554 0 0.84804810408105047 0.52991925155115449 0.5 0 0 1 I I #
point $-1 -1.6199834758214919 18.830930829308265 4.0748221467010728 #
plane-surface $-1 43.245948667867061 0 0 -1 0 0 0 0 1 forward_v I I I I #
coedge $-1 $245 $243 $247 $345 reversed $161 $-1 #
edge $-1 $258 -5.6876446579792006 $347 5.6876446579792006 $257 $401 forward 7 unknown #
vertex $-1 $345 $402 #
straight-curve $-1 -43.245948667867061 -19.83873415313915 0 0 0 -1 I I #
edge $-1 $343 -19.83873415313915 $347 19.83873415313915 $341 $403 forward 7 unknown #
straight-curve $-1 0 -19.83873415313915 -5.6876446579792006 -1 0 0 I I #
vertex $-1 $250 $404 #
straight-curve $-1 0 19.83873415313915 -5.6876446579792006 1 0 0 I I #
point $-1 43.245948667867061 19.83873415313915 -5.6876446579792006 #
point $-1 43.245948667867061 -19.83873415313915 -5.6876446579792006 #
straight-curve $-1 -43.245948667867061 0 5.6876446579792006 0 -1 0 I I #
point $-1 -43.245948667867061 19.83873415313915 5.6876446579792006 #
point $-1 -43.245948667867061 -19.83873415313915 5.6876446579792006 #
straight-curve $-1 43.245948667867061 -19.83873415313915 0 0 0 -1 I I #
straight-curve $-1 43.245948667867061 19.83873415313915 0 0 0 -1 I I #
plane-surface $-1 0 -19.83873415313915 0 0 1 0 0 0 1 forward_v I I I I #
coedge $-1 $405 $270 $360 $406 reversed $180 $-1 #
coedge $-1 $270 $405 $284 $371 reversed $180 $-1 #
edge $-1 $363 -1.5 $361 1.5 $271 $407 forward 7 unknown #
coedge $-1 $272 $366 $357 $406 forward $268 $-1 #
vertex $-1 $273 $408 #
straight-curve $-1 0 19.83873415313915 -5.6876446579792006 1 0 0 I I #
vertex $-1 $274 $409 #
straight-curve $-1 -46.336080535298358 19.83873415313915 -2.6876446579792006 -1 0 0 I I #
point $-1 -43.245948667867061 19.83873415313915 -5.6876446579792006 #
coedge $-1 $360 $277 $280 $369 forward $268 $-1 #
straight-curve $-1 -43.245948667867061 0 -5.6876446579792006 0 -1 0 I I #
coedge $-1 $280 $279 $405 $410 forward $281 $-1 #
edge $-1 $282 -3.0901318674312961 $411 3.0901318674312961 $280 $412 forward 7 unknown #
point $-1 -43.245948667867061 -19.83873415313915 -5.6876446579792006 #
edge $-1 $363 -19.83873415313915 $372 19.83873415313915 $358 $413 forward 7 unknown #
vertex $-1 $371 $414 #
straight-curve $-1 -46.336080535298358 -19.83873415313915 -2.6876446579792006 1 0 0 I I #
edge $-1 $375 16.708002096393344 $378 22.150972416936952 $289 $415 forward 7 unknown #
vertex $-1 $303 $416 #
straight-curve $-1 -21.150173482624908 -46.988380501334106 5.6876446579791988 0 -1 0 I I #
edge $-1 $378 -12.842437565413722 $300 -3.7730342690086509 $299 $417 forward 7 unknown #
vertex $-1 $377 $418 #
straight-curve $-1 -21.150173482624908 -19.838734153139157 0.24467433743558331 0 0.51503806187062418 0.85716730853699208 I I #
point $-1 -21.150173482624908 -16.568267749681898 5.6876446579792006 #
point $-1 -12.080770186219837 -19.83873415313915 0.24467433743559514 #
straight-curve $-1 0 -19.83873415313915 5.6876446579792006 1 0 0 I I #
vertex $-1 $306 $419 #
point $-1 -15.115471834422372 -14.945038299891294 1.0082776793017507 #
coedge $-1 $321 $320 $313 $386 forward $310 $-1 #
edge $-1 $387 35.284416796365669 $390 38.510061818921926 $385 $420 forward 7 unknown #
vertex $-1 $325 $421 #
straight-curve $-1 1.9064560959073678 36.081084699386835 5.6876446579791988 0 1 0 I I #
edge $-1 $390 -5.9862775126147643 $322 14.145920346029556 $321 $422 forward 7 unknown #
vertex $-1 $389 $423 #
straight-curve $-1 1.9064560959073678 -1.1871201551685004 36.11040140729822 0 -0.52991925155115449 0.84804810408105047 I I #
point $-1 1.9064560959073678 17.823127505477387 5.6876446579791988 #
point $-1 -18.225741762736952 19.83873415313915 2.4619996354229414 #
straight-curve $-1 0 19.83873415313915 5.6876446579792006 -1 0 0 I I #
vertex $-1 $328 $424 #
point $-1 -13.699302191008091 17.65687064163528 3.3411879425401554 #
vertex $-1 $332 $425 #
point $-1 -7.659642833414793 17.65687064163528 3.3411879425401554 #
vertex $-1 $336 $426 #
point $-1 -1.6199834758214919 17.65687064163528 3.3411879425401554 #
straight-curve $-1 -43.245948667867061 19.83873415313915 0 0 0 -1 I I #
point $-1 -43.245948667867061 -19.83873415313915 -5.6876446579792006 #
straight-curve $-1 -43.245948667867061 0 -5.6876446579792006 0 1 0 I I #
point $-1 -43.245948667867061 19.83873415313915 -5.6876446579792006 #
coedge $-1 $358 $357 $368 $410 reversed $180 $-1 #
edge $-1 $411 -19.83873415313915 $361 19.83873415313915 $357 $427 forward 7 unknown #
straight-curve $-1 -49.426212402729654 19.83873415313915 -4.1876446579792006 0 0 -1 I I #
point $-1 -49.426212402729654 19.83873415313915 -5.6876446579792006 #
point $-1 -49.426212402729654 19.83873415313915 -2.6876446579792006 #
edge $-1 $372 -1.5 $411 1.5 $405 $428 forward 7 unknown #
vertex $-1 $406 $429 #
straight-curve $-1 -46.336080535298358 -19.83873415313915 -5.6876446579792006 -1 0 0 I I #
straight-curve $-1 -49.426212402729654 0 -2.6876446579792006 0 -1 0 I I #
point $-1 -49.426212402729654 -19.83873415313915 -2.6876446579792006 #
straight-curve $-1 -21.150173482624908 -19.83873415313915 22.395646754372546 0 0 -1 I I #
point $-1 -21.150173482624908 -19.83873415313915 5.6876446579792006 #
straight-curve $-1 -8.3077359172111862 -19.83873415313915 0.24467433743559303 1 0 0 I I #
point $-1 -21.150173482624908 -19.83873415313915 0.24467433743559514 #
point $-1 -16.615471834422372 -13.659287337085807 0.23572058649581412 #
straight-curve $-1 1.9064560959073678 19.83873415313915 40.972061454344868 0 0 -1 I I #
point $-1 1.9064560959073678 19.83873415313915 5.6876446579792006 #
straight-curve $-1 -4.0798214167073965 19.83873415313915 2.4619996354229396 -1 0 0 I I #
point $-1 1.9064560959073678 19.83873415313915 2.4619996354229414 #
point $-1 -14.199302191008091 17.232846589594757 3.0762283167645781 #
point $-1 -8.159642833414793 17.232846589594757 3.0762283167645781 #
point $-1 -2.1199834758214919 17.232846589594757 3.0762283167645781 #
straight-curve $-1 -49.426212402729654 0 -5.6876446579792006 0 1 0 I I #
straight-curve $-1 -49.426212402729654 -19.83873415313915 -4.1876446579792006 0 0 -1 I I #
point $-1 -49.426212402729654 -19.83873415313915 -5.6876446579792006 #
End-of-ACIS-data 