500 0 10 0           
7 Unknown 11 ACIS 5.0 NT 24 Fri Mar 26 16:51:09 1999 
-1 9.9999999999999995e-007 1e-010 
body $-1 $10 $-1 $11 #
body $-1 $12 $-1 $13 #
body $-1 $14 $-1 $15 #
body $-1 $16 $-1 $17 #
body $-1 $18 $-1 $19 #
body $-1 $20 $-1 $21 #
body $-1 $22 $-1 $23 #
body $-1 $24 $-1 $25 #
body $-1 $26 $-1 $27 #
body $-1 $28 $-1 $29 #
lump $-1 $-1 $30 $0 #
transform $-1 1 0 0 0 1 0 0 0 1 54.847865230262158 27.854620677014875 12.178352649952171 1 rotate no_reflect no_shear #
lump $-1 $-1 $31 $1 #
transform $-1 1 0 0 0 1 0 0 0 1 54.847865230262158 27.854620677014875 12.178352649952171 1 rotate no_reflect no_shear #
lump $-1 $-1 $32 $2 #
transform $-1 1 0 0 0 1 0 0 0 1 54.847865230262158 27.854620677014875 12.178352649952171 1 rotate no_reflect no_shear #
lump $-1 $-1 $33 $3 #
transform $-1 1 0 0 0 1 0 0 0 1 54.847865230262158 27.854620677014875 12.178352649952171 1 rotate no_reflect no_shear #
lump $-1 $-1 $34 $4 #
transform $-1 1 0 0 0 1 0 0 0 1 54.847865230262158 27.854620677014875 12.178352649952171 1 rotate no_reflect no_shear #
lump $-1 $-1 $35 $5 #
transform $-1 1 0 0 0 1 0 0 0 1 54.847865230262158 27.854620677014875 12.178352649952171 1 rotate no_reflect no_shear #
lump $-1 $-1 $36 $6 #
transform $-1 1 0 0 0 1 0 0 0 1 54.847865230262158 27.854620677014875 12.178352649952171 1 rotate no_reflect no_shear #
lump $-1 $-1 $37 $7 #
transform $-1 1 0 0 0 1 0 0 0 1 54.847865230262158 27.854620677014875 12.178352649952171 1 rotate no_reflect no_shear #
lump $-1 $-1 $38 $8 #
transform $-1 1 0 0 0 1 0 0 0 1 54.847865230262158 27.854620677014875 12.178352649952171 1 rotate no_reflect no_shear #
lump $-1 $-1 $39 $9 #
transform $-1 1 0 0 0 1 0 0 0 1 54.847865230262158 27.854620677014875 12.178352649952171 1 rotate no_reflect no_shear #
shell $-1 $-1 $-1 $40 $-1 $10 #
shell $-1 $-1 $-1 $41 $-1 $12 #
shell $-1 $-1 $-1 $42 $-1 $14 #
shell $-1 $-1 $-1 $43 $-1 $16 #
shell $-1 $-1 $-1 $44 $-1 $18 #
shell $-1 $-1 $-1 $45 $-1 $20 #
shell $-1 $-1 $-1 $46 $-1 $22 #
shell $-1 $-1 $-1 $47 $-1 $24 #
shell $-1 $-1 $-1 $48 $-1 $26 #
shell $-1 $-1 $-1 $49 $-1 $28 #
face $-1 $50 $51 $30 $-1 $52 forward single #
face $-1 $53 $54 $31 $-1 $55 reversed single #
face $-1 $56 $57 $32 $-1 $58 forward single #
face $-1 $59 $60 $33 $-1 $61 forward single #
face $-1 $62 $63 $34 $-1 $64 reversed single #
face $-1 $65 $66 $35 $-1 $67 forward single #
face $-1 $68 $69 $36 $-1 $70 forward single #
face $-1 $71 $72 $37 $-1 $73 reversed single #
face $-1 $74 $75 $38 $-1 $76 forward single #
face $-1 $77 $78 $39 $-1 $79 forward single #
face $-1 $80 $81 $30 $-1 $82 reversed single #
loop $-1 $-1 $83 $40 #
plane-surface $-1 0 0 12.178352649952171 0 0 1 1 0 0 forward_v I I I I #
face $-1 $84 $85 $31 $-1 $86 reversed single #
loop $-1 $-1 $87 $41 #
plane-surface $-1 52.140419510477429 18.874582208964878 159.64425724575301 0 1 0 0.69465837861970381 0 0.71933979245794832 forward_v I I I I #
face $-1 $88 $89 $32 $-1 $90 forward single #
loop $-1 $91 $92 $42 #
cone-surface $-1 49.694208797833177 21.440307485550594 7.1179913661436549 -0.69465837861970381 0 -0.71933979245794832 0.71933979245794832 0 -0.69465837861970381 1 I I 0 1 1 forward I I I I #
face $-1 $93 $94 $33 $-1 $95 forward single #
loop $-1 $96 $97 $43 #
cone-surface $-1 49.694208797833177 25.288895400429166 7.1179913661436549 -0.69465837861970381 0 -0.71933979245794832 0.71933979245794832 0 -0.69465837861970381 1 I I 0 1 1 forward I I I I #
face $-1 $98 $99 $34 $-1 $100 reversed single #
loop $-1 $-1 $101 $44 #
plane-surface $-1 -111.34534382405302 -21.226766631191669 102.08746757397914 0 1 0 -0.51503808176128008 0 0.85716729658548041 forward_v I I I I #
face $-1 $102 $103 $35 $-1 $104 forward single #
loop $-1 $105 $106 $45 #
cone-surface $-1 -51.124011740327433 -18.389305023996211 9.6253145463837857 0.51503808176128008 0 -0.85716729658548041 0.85716729658548041 0 0.51503808176128008 1 I I 0 1 1 forward I I I I #
face $-1 $107 $108 $36 $-1 $109 forward single #
loop $-1 $110 $111 $46 #
cone-surface $-1 -51.124011740327433 -14.133112613203027 9.6253145463837857 0.51503808176128008 0 -0.85716729658548041 0.85716729658548041 0 0.51503808176128008 1 I I 0 1 1 forward I I I I #
face $-1 $112 $113 $37 $-1 $114 reversed single #
loop $-1 $-1 $115 $47 #
plane-surface $-1 -111.34534382405302 11.295651006007567 102.08746757397914 0 1 0 -0.51503808176128008 0 0.85716729658548041 forward_v I I I I #
face $-1 $116 $117 $38 $-1 $118 forward single #
loop $-1 $119 $120 $48 #
cone-surface $-1 -51.124011740327433 14.133112613203028 9.6253145463837857 0.51503808176128008 0 -0.85716729658548041 0.85716729658548041 0 0.51503808176128008 1 I I 0 1 1 forward I I I I #
face $-1 $121 $122 $39 $-1 $123 forward single #
loop $-1 $124 $125 $49 #
cone-surface $-1 -51.124011740327433 18.389305023996211 9.6253145463837857 0.51503808176128008 0 -0.85716729658548041 0.85716729658548041 0 0.51503808176128008 1 I I 0 1 1 forward I I I I #
face $-1 $126 $127 $30 $-1 $128 reversed single #
loop $-1 $-1 $129 $50 #
plane-surface $-1 0 0 -12.178352649952171 0 0 1 1 0 0 forward_v I I I I #
coedge $-1 $130 $131 $132 $133 forward $51 $-1 #
face $-1 $134 $135 $31 $-1 $136 forward single #
loop $-1 $-1 $137 $53 #
plane-surface $-1 -24.060638752734448 23.364601442989876 80.735753262756404 0.69465837861970381 0 0.71933979245794832 0.71933979245794832 0 -0.69465837861970381 forward_v I I I I #
coedge $-1 $138 $139 $140 $141 reversed $54 $-1 #
face $-1 $-1 $142 $32 $-1 $143 forward single #
loop $-1 $144 $145 $56 #
cone-surface $-1 48.150842688860621 21.440307485550594 5.5197890113099852 -0.69465837861970381 0 -0.71933979245794832 0.35966989622897416 0 -0.3473291893098519 1 I I -0.70710678118654746 0.70710678118654746 0.5 forward I I I I #
loop $-1 $-1 $146 $42 #
coedge $-1 $92 $92 $147 $148 reversed $57 $-1 #
face $-1 $-1 $149 $33 $-1 $150 forward single #
loop $-1 $151 $152 $59 #
cone-surface $-1 48.150842688860621 25.288895400429166 5.5197890113099852 -0.69465837861970381 0 -0.71933979245794832 0.35966989622897416 0 -0.3473291893098519 1 I I -0.70710678118654746 0.70710678118654746 0.5 forward I I I I #
loop $-1 $-1 $153 $43 #
coedge $-1 $97 $97 $154 $155 reversed $60 $-1 #
face $-1 $156 $157 $34 $-1 $158 reversed single #
loop $-1 $-1 $159 $62 #
plane-surface $-1 -54.847865230262151 -16.26120881859962 8.0598748481619822 -0.51503808176128008 0 0.85716729658548041 0.85716729658548041 0 0.51503808176128008 forward_v I I I I #
coedge $-1 $160 $161 $162 $163 reversed $63 $-1 #
face $-1 $-1 $164 $35 $-1 $165 forward single #
loop $-1 $166 $167 $65 #
cone-surface $-1 -50.569788199481373 -18.389305023996211 8.7029316954177496 0.51503808176128008 0 -0.85716729658548041 0.4285836482927402 0 0.25751904088064004 1 I I -0.70710678118654746 0.70710678118654746 0.5 forward I I I I #
loop $-1 $-1 $168 $45 #
coedge $-1 $106 $106 $169 $170 reversed $66 $-1 #
face $-1 $-1 $171 $36 $-1 $172 forward single #
loop $-1 $173 $174 $68 #
cone-surface $-1 -50.569788199481373 -14.133112613203027 8.7029316954177496 0.51503808176128008 0 -0.85716729658548041 0.4285836482927402 0 0.25751904088064004 1 I I -0.70710678118654746 0.70710678118654746 0.5 forward I I I I #
loop $-1 $-1 $175 $46 #
coedge $-1 $111 $111 $176 $177 reversed $69 $-1 #
face $-1 $178 $179 $37 $-1 $180 reversed single #
loop $-1 $-1 $181 $71 #
plane-surface $-1 -54.847865230262151 16.261208818599616 8.0598748481619822 -0.51503808176128008 0 0.85716729658548041 0.85716729658548041 0 0.51503808176128008 forward_v I I I I #
coedge $-1 $182 $183 $184 $185 reversed $72 $-1 #
face $-1 $-1 $186 $38 $-1 $187 forward single #
loop $-1 $188 $189 $74 #
cone-surface $-1 -50.569788199481373 14.133112613203028 8.7029316954177496 0.51503808176128008 0 -0.85716729658548041 0.4285836482927402 0 0.25751904088064004 1 I I -0.70710678118654746 0.70710678118654746 0.5 forward I I I I #
loop $-1 $-1 $190 $48 #
coedge $-1 $120 $120 $191 $192 reversed $75 $-1 #
face $-1 $-1 $193 $39 $-1 $194 forward single #
loop $-1 $195 $196 $77 #
cone-surface $-1 -50.569788199481373 18.389305023996211 8.7029316954177496 0.51503808176128008 0 -0.85716729658548041 0.4285836482927402 0 0.25751904088064004 1 I I -0.70710678118654746 0.70710678118654746 0.5 forward I I I I #
loop $-1 $-1 $197 $49 #
coedge $-1 $125 $125 $198 $199 reversed $78 $-1 #
face $-1 $200 $201 $30 $-1 $202 reversed single #
loop $-1 $-1 $203 $80 #
plane-surface $-1 0 -27.854620677014875 0 0 1 0 0 0 1 forward_v I I I I #
coedge $-1 $204 $205 $206 $207 forward $81 $-1 #
coedge $-1 $208 $83 $209 $210 forward $51 $-1 #
coedge $-1 $83 $208 $211 $212 forward $51 $-1 #
coedge $-1 $213 $214 $83 $133 reversed $215 $-1 #
edge $-1 $216 -27.854620677014875 $217 27.854620677014875 $132 $218 forward 7 unknown #
face $-1 $219 $220 $31 $-1 $221 reversed single #
loop $-1 $-1 $222 $84 #
plane-surface $-1 0 0 12.178352649952171 0 0 1 1 0 0 forward_v I I I I #
coedge $-1 $223 $224 $225 $226 reversed $85 $-1 #
coedge $-1 $139 $87 $227 $228 reversed $54 $-1 #
coedge $-1 $87 $138 $223 $229 reversed $54 $-1 #
coedge $-1 $225 $230 $87 $141 forward $220 $-1 #
edge $-1 $231 67.643775972924331 $232 75.287433623331978 $140 $233 forward 7 unknown #
loop $-1 $-1 $147 $88 #
plane-surface $-1 -24.060638752734448 23.364601442989876 80.735753262756404 0.69465837861970381 0 0.71933979245794832 0.71933979245794832 0 -0.69465837861970381 forward_v I I I I #
loop $-1 $-1 $234 $56 #
coedge $-1 $145 $145 $146 $235 reversed $89 $-1 #
coedge $-1 $146 $146 $145 $235 forward $91 $-1 #
coedge $-1 $147 $147 $92 $148 forward $142 $-1 #
edge $-1 $236 0 $236 6.2831853071796004 $147 $237 forward 7 unknown #
loop $-1 $-1 $154 $93 #
plane-surface $-1 -24.060638752734448 23.364601442989876 80.735753262756404 0.69465837861970381 0 0.71933979245794832 0.71933979245794832 0 -0.69465837861970381 forward_v I I I I #
loop $-1 $-1 $238 $59 #
coedge $-1 $152 $152 $153 $239 reversed $94 $-1 #
coedge $-1 $153 $153 $152 $239 forward $96 $-1 #
coedge $-1 $154 $154 $97 $155 forward $149 $-1 #
edge $-1 $240 0 $240 6.2831853071796004 $154 $241 forward 7 unknown #
face $-1 $242 $243 $34 $-1 $244 reversed single #
loop $-1 $-1 $245 $98 #
plane-surface $-1 -111.34534382405302 -11.295651006007571 102.08746757397914 0 -1 0 0.51503808176128008 0 -0.85716729658548041 forward_v I I I I #
coedge $-1 $246 $247 $248 $249 reversed $99 $-1 #
coedge $-1 $161 $101 $250 $251 reversed $63 $-1 #
coedge $-1 $101 $160 $246 $252 reversed $63 $-1 #
coedge $-1 $248 $253 $101 $163 forward $254 $-1 #
edge $-1 $255 0.82480668176435046 $256 7.6791046617029863 $162 $257 forward 7 unknown #
loop $-1 $-1 $169 $102 #
plane-surface $-1 -54.847865230262151 -16.26120881859962 8.0598748481619822 -0.51503808176128008 0 0.85716729658548041 0.85716729658548041 0 0.51503808176128008 forward_v I I I I #
loop $-1 $-1 $258 $65 #
coedge $-1 $167 $167 $168 $259 reversed $103 $-1 #
coedge $-1 $168 $168 $167 $259 forward $105 $-1 #
coedge $-1 $169 $169 $106 $170 forward $164 $-1 #
edge $-1 $260 0 $260 6.2831853071796004 $169 $261 forward 7 unknown #
loop $-1 $-1 $176 $107 #
plane-surface $-1 -54.847865230262151 -16.26120881859962 8.0598748481619822 -0.51503808176128008 0 0.85716729658548041 0.85716729658548041 0 0.51503808176128008 forward_v I I I I #
loop $-1 $-1 $262 $68 #
coedge $-1 $174 $174 $175 $263 reversed $108 $-1 #
coedge $-1 $175 $175 $174 $263 forward $110 $-1 #
coedge $-1 $176 $176 $111 $177 forward $171 $-1 #
edge $-1 $264 0 $264 6.2831853071796004 $176 $265 forward 7 unknown #
face $-1 $266 $267 $37 $-1 $268 forward single #
loop $-1 $-1 $269 $112 #
plane-surface $-1 -111.34534382405302 21.226766631191666 102.08746757397914 0 -1 0 0.51503808176128008 0 -0.85716729658548041 forward_v I I I I #
coedge $-1 $270 $271 $272 $273 reversed $113 $-1 #
coedge $-1 $183 $115 $274 $275 reversed $72 $-1 #
coedge $-1 $115 $182 $270 $276 reversed $72 $-1 #
coedge $-1 $272 $277 $115 $185 forward $267 $-1 #
edge $-1 $278 0.82480668176435046 $279 7.6791046617029863 $184 $280 forward 7 unknown #
loop $-1 $-1 $191 $116 #
plane-surface $-1 -54.847865230262151 16.261208818599616 8.0598748481619822 -0.51503808176128008 0 0.85716729658548041 0.85716729658548041 0 0.51503808176128008 forward_v I I I I #
loop $-1 $-1 $281 $74 #
coedge $-1 $189 $189 $190 $282 reversed $117 $-1 #
coedge $-1 $190 $190 $189 $282 forward $119 $-1 #
coedge $-1 $191 $191 $120 $192 forward $186 $-1 #
edge $-1 $283 0 $283 6.2831853071796004 $191 $284 forward 7 unknown #
loop $-1 $-1 $198 $121 #
plane-surface $-1 -54.847865230262151 16.261208818599616 8.0598748481619822 -0.51503808176128008 0 0.85716729658548041 0.85716729658548041 0 0.51503808176128008 forward_v I I I I #
loop $-1 $-1 $285 $77 #
coedge $-1 $196 $196 $197 $286 reversed $122 $-1 #
coedge $-1 $197 $197 $196 $286 forward $124 $-1 #
coedge $-1 $198 $198 $125 $199 forward $193 $-1 #
edge $-1 $287 0 $287 6.2831853071796004 $198 $288 forward 7 unknown #
face $-1 $289 $290 $30 $-1 $291 reversed single #
loop $-1 $-1 $292 $126 #
plane-surface $-1 -54.847865230262158 0 0 1 0 0 0 0 -1 forward_v I I I I #
coedge $-1 $293 $211 $294 $295 forward $127 $-1 #
coedge $-1 $296 $129 $293 $297 forward $81 $-1 #
coedge $-1 $129 $296 $298 $299 forward $81 $-1 #
coedge $-1 $214 $213 $129 $207 reversed $215 $-1 #
edge $-1 $300 -27.854620677014875 $301 27.854620677014875 $206 $302 forward 7 unknown #
coedge $-1 $131 $130 $303 $304 forward $51 $-1 #
coedge $-1 $305 $306 $130 $210 reversed $290 $-1 #
edge $-1 $217 -54.847865230262158 $307 54.847865230262158 $209 $308 forward 7 unknown #
coedge $-1 $203 $309 $131 $212 reversed $127 $-1 #
edge $-1 $310 -54.847865230262158 $216 54.847865230262158 $211 $311 forward 7 unknown #
coedge $-1 $206 $132 $309 $312 forward $215 $-1 #
coedge $-1 $132 $206 $305 $313 reversed $215 $-1 #
loop $-1 $-1 $213 $289 #
vertex $-1 $133 $314 #
vertex $-1 $133 $315 #
straight-curve $-1 54.847865230262158 0 12.178352649952171 0 1 0 I I #
face $-1 $-1 $316 $31 $-1 $317 reversed single #
loop $-1 $-1 $140 $134 #
plane-surface $-1 54.847865230262158 0 0 -1 0 0 0 0 1 forward_v I I I I #
coedge $-1 $227 $318 $319 $320 forward $135 $-1 #
coedge $-1 $319 $137 $139 $229 forward $85 $-1 #
coedge $-1 $137 $319 $321 $322 reversed $85 $-1 #
coedge $-1 $323 $140 $137 $226 forward $220 $-1 #
edge $-1 $232 7.1922814874699394 $324 16.172319955519939 $225 $325 forward 7 unknown #
coedge $-1 $326 $222 $138 $228 forward $135 $-1 #
edge $-1 $327 20.862416449490887 $231 28.777655475023444 $227 $328 forward 7 unknown #
edge $-1 $232 -109.69573046052432 $327 -98.692253232486394 $139 $329 forward 7 unknown #
coedge $-1 $140 $323 $326 $330 reversed $220 $-1 #
vertex $-1 $330 $331 #
vertex $-1 $141 $332 #
straight-curve $-1 54.847865230262158 18.874582208964878 79.822128622876505 0 0 -1 I I #
coedge $-1 $234 $234 $-1 $333 reversed $144 $-1 #
edge $-1 $334 0 $334 6.2831853071796004 $145 $335 forward 7 unknown #
vertex $-1 $148 $336 #
ellipse-curve $-1 50.89024571749588 21.440307485550594 8.3565238247483471 0.69465837861970381 0 0.71933979245794832 0.71933979245794832 0 -0.69465837861970381 1 I I #
coedge $-1 $238 $238 $-1 $337 reversed $151 $-1 #
edge $-1 $338 0 $338 6.2831853071796004 $152 $339 forward 7 unknown #
vertex $-1 $155 $340 #
ellipse-curve $-1 50.89024571749588 25.288895400429166 8.3565238247483471 0.69465837861970381 0 0.71933979245794832 0.71933979245794832 0 -0.69465837861970381 1 I I #
face $-1 $-1 $254 $34 $-1 $341 forward single #
loop $-1 $-1 $342 $156 #
plane-surface $-1 -54.847865230262158 0 0 1 0 0 0 0 -1 forward_v I I I I #
coedge $-1 $343 $344 $345 $346 reversed $157 $-1 #
coedge $-1 $347 $159 $161 $252 forward $99 $-1 #
coedge $-1 $159 $347 $343 $348 forward $99 $-1 #
coedge $-1 $345 $162 $159 $249 forward $254 $-1 #
edge $-1 $256 -13.096162221891859 $349 -3.1650465967077608 $248 $350 forward 7 unknown #
coedge $-1 $351 $352 $160 $251 forward $243 $-1 #
edge $-1 $353 -42.983858938827595 $255 -38.865381137037403 $250 $354 forward 7 unknown #
edge $-1 $256 -7.9964529762657452 $353 7.9203227973758348e-015 $161 $355 forward 7 unknown #
coedge $-1 $162 $345 $351 $356 forward $254 $-1 #
loop $-1 $-1 $345 $242 #
vertex $-1 $251 $357 #
vertex $-1 $163 $358 #
straight-curve $-1 -55.672671912026509 -21.226766631191669 12.178352649952174 1 0 0 I I #
coedge $-1 $258 $258 $-1 $359 reversed $166 $-1 #
edge $-1 $360 0 $360 6.2831853071796004 $167 $361 forward 7 unknown #
vertex $-1 $170 $362 #
ellipse-curve $-1 -51.420716240292847 -18.389305023996211 10.119113749057073 -0.51503808176128008 0 0.85716729658548041 0.85716729658548041 0 0.51503808176128008 1 I I #
coedge $-1 $262 $262 $-1 $363 reversed $173 $-1 #
edge $-1 $364 0 $364 6.2831853071796004 $174 $365 forward 7 unknown #
vertex $-1 $177 $366 #
ellipse-curve $-1 -51.420716240292847 -14.133112613203027 10.119113749057073 -0.51503808176128008 0 0.85716729658548041 0.85716729658548041 0 0.51503808176128008 1 I I #
face $-1 $-1 $367 $37 $-1 $368 reversed single #
loop $-1 $-1 $184 $178 #
plane-surface $-1 0 0 12.178352649952171 0 0 1 1 0 0 forward_v I I I I #
coedge $-1 $369 $370 $371 $372 reversed $179 $-1 #
coedge $-1 $373 $181 $183 $276 forward $113 $-1 #
coedge $-1 $181 $373 $369 $374 forward $113 $-1 #
coedge $-1 $371 $184 $181 $273 forward $267 $-1 #
edge $-1 $279 3.165046596707759 $375 13.096162221891857 $272 $376 forward 7 unknown #
coedge $-1 $377 $378 $182 $275 forward $367 $-1 #
edge $-1 $379 -42.983858938827595 $278 -38.865381137037403 $274 $380 forward 7 unknown #
edge $-1 $279 -7.9964529762657452 $379 7.9203227973758348e-015 $183 $381 forward 7 unknown #
coedge $-1 $184 $371 $377 $382 forward $267 $-1 #
vertex $-1 $185 $383 #
vertex $-1 $185 $384 #
straight-curve $-1 -55.672671912026509 11.295651006007567 12.178352649952174 1 0 0 I I #
coedge $-1 $281 $281 $-1 $385 reversed $188 $-1 #
edge $-1 $386 0 $386 6.2831853071796004 $189 $387 forward 7 unknown #
vertex $-1 $192 $388 #
ellipse-curve $-1 -51.420716240292847 14.133112613203028 10.119113749057073 -0.51503808176128008 0 0.85716729658548041 0.85716729658548041 0 0.51503808176128008 1 I I #
coedge $-1 $285 $285 $-1 $389 reversed $195 $-1 #
edge $-1 $390 0 $390 6.2831853071796004 $196 $391 forward 7 unknown #
vertex $-1 $199 $392 #
ellipse-curve $-1 -51.420716240292847 18.389305023996211 10.119113749057073 -0.51503808176128008 0 0.85716729658548041 0.85716729658548041 0 0.51503808176128008 1 I I #
face $-1 $-1 $215 $30 $-1 $393 reversed single #
loop $-1 $-1 $305 $200 #
plane-surface $-1 0 27.854620677014875 0 0 -1 0 0 0 -1 forward_v I I I I #
coedge $-1 $394 $303 $306 $395 forward $201 $-1 #
coedge $-1 $309 $203 $204 $297 reversed $127 $-1 #
coedge $-1 $303 $394 $203 $295 reversed $201 $-1 #
edge $-1 $310 -12.178352649952171 $396 12.178352649952171 $294 $397 forward 7 unknown #
coedge $-1 $205 $204 $394 $398 forward $81 $-1 #
edge $-1 $301 -54.847865230262158 $396 54.847865230262158 $293 $399 forward 7 unknown #
coedge $-1 $306 $305 $205 $299 reversed $290 $-1 #
edge $-1 $400 -54.847865230262158 $300 54.847865230262158 $298 $401 forward 7 unknown #
vertex $-1 $207 $402 #
vertex $-1 $312 $403 #
straight-curve $-1 54.847865230262158 0 -12.178352649952171 0 -1 0 I I #
coedge $-1 $292 $294 $208 $304 reversed $201 $-1 #
edge $-1 $307 -27.854620677014875 $310 27.854620677014875 $303 $404 forward 7 unknown #
coedge $-1 $298 $209 $214 $313 forward $290 $-1 #
coedge $-1 $209 $298 $292 $395 reversed $290 $-1 #
vertex $-1 $210 $405 #
straight-curve $-1 0 27.854620677014875 12.178352649952171 -1 0 0 I I #
coedge $-1 $211 $293 $213 $312 reversed $127 $-1 #
vertex $-1 $304 $406 #
straight-curve $-1 0 -27.854620677014875 12.178352649952171 1 0 0 I I #
edge $-1 $216 -12.178352649952171 $301 12.178352649952171 $213 $407 forward 7 unknown #
edge $-1 $217 -12.178352649952171 $300 12.178352649952171 $214 $408 forward 7 unknown #
point $-1 54.847865230262158 -27.854620677014875 12.178352649952171 #
point $-1 54.847865230262158 27.854620677014875 12.178352649952171 #
loop $-1 $-1 $321 $219 #
plane-surface $-1 0 27.854620677014875 0 0 -1 0 0 0 -1 forward_v I I I I #
coedge $-1 $222 $326 $409 $410 forward $135 $-1 #
coedge $-1 $224 $223 $222 $320 reversed $85 $-1 #
edge $-1 $411 -16.172319955519939 $327 -7.1922814874699394 $222 $412 forward 7 unknown #
coedge $-1 $409 $413 $224 $322 forward $316 $-1 #
edge $-1 $324 -72.999959288052082 $411 -61.996482060014152 $321 $414 forward 7 unknown #
coedge $-1 $230 $225 $413 $415 reversed $220 $-1 #
vertex $-1 $226 $416 #
straight-curve $-1 54.847865230262158 11.682300721494938 4.5346949995445271 0 1 0 I I #
coedge $-1 $318 $227 $230 $330 forward $135 $-1 #
vertex $-1 $228 $417 #
straight-curve $-1 26.070209755238714 18.874582208964878 12.178352649952174 1 0 0 I I #
straight-curve $-1 -24.060638752734448 18.874582208964878 80.735753262756404 -0.71933979245794832 0 0.69465837861970381 I I #
edge $-1 $231 18.874582208964878 $418 27.854620677014875 $230 $419 forward 7 unknown #
point $-1 54.847865230262158 18.874582208964878 12.178352649952171 #
point $-1 54.847865230262158 18.874582208964878 4.5346949995445271 #
edge $-1 $420 1 $420 0 $234 $-1 forward 7 unknown #
vertex $-1 $235 $421 #
ellipse-curve $-1 48.498171878170474 21.440307485550594 5.8794589075389592 0.69465837861970381 0 0.71933979245794832 0.71933979245794832 0 -0.69465837861970381 1 I I #
point $-1 51.609585509953831 21.440307485550594 7.6618654461286466 #
edge $-1 $422 1 $422 0 $238 $-1 forward 7 unknown #
vertex $-1 $239 $423 #
ellipse-curve $-1 48.498171878170474 25.288895400429166 5.8794589075389592 0.69465837861970381 0 0.71933979245794832 0.71933979245794832 0 -0.69465837861970381 1 I I #
point $-1 51.609585509953831 25.288895400429166 7.6618654461286466 #
plane-surface $-1 0 0 12.178352649952171 0 0 1 1 0 0 forward_v I I I I #
coedge $-1 $352 $351 $344 $424 forward $243 $-1 #
coedge $-1 $344 $245 $247 $348 reversed $157 $-1 #
coedge $-1 $245 $343 $342 $424 reversed $157 $-1 #
coedge $-1 $253 $248 $245 $346 forward $254 $-1 #
edge $-1 $349 -7.6791046617029863 $425 -0.82480668176435046 $345 $426 forward 7 unknown #
coedge $-1 $247 $246 $352 $427 reversed $99 $-1 #
edge $-1 $428 -7.9203227973758348e-015 $349 7.9964529762657452 $343 $429 forward 7 unknown #
vertex $-1 $249 $430 #
straight-curve $-1 -47.993567250323522 -8.13060440929981 12.178352649952169 0 1 0 I I #
coedge $-1 $342 $250 $253 $356 reversed $243 $-1 #
coedge $-1 $250 $342 $347 $427 forward $243 $-1 #
vertex $-1 $251 $431 #
straight-curve $-1 -54.847865230262158 -21.226766631191669 51.04373378698957 0 0 1 I I #
straight-curve $-1 -54.847865230262151 -21.226766631191669 8.0598748481619822 -0.85716729658548041 0 -0.51503808176128008 I I #
edge $-1 $425 11.295651006007571 $255 21.226766631191669 $351 $432 forward 7 unknown #
point $-1 -54.847865230262158 -21.226766631191669 12.178352649952171 #
point $-1 -47.993567250323522 -21.226766631191669 12.178352649952171 #
edge $-1 $433 1 $433 0 $258 $-1 forward 7 unknown #
vertex $-1 $259 $434 #
ellipse-curve $-1 -50.827307240362011 -18.389305023996211 9.1315153437104897 -0.51503808176128008 0 0.85716729658548041 0.85716729658548041 0 0.51503808176128008 1 I I #
point $-1 -50.563548943707367 -18.389305023996211 10.634151830818359 #
edge $-1 $435 1 $435 0 $262 $-1 forward 7 unknown #
vertex $-1 $263 $436 #
ellipse-curve $-1 -50.827307240362011 -14.133112613203027 9.1315153437104897 -0.51503808176128008 0 0.85716729658548041 0.85716729658548041 0 0.51503808176128008 1 I I #
point $-1 -50.563548943707367 -14.133112613203027 10.634151830818359 #
loop $-1 $-1 $274 $266 #
plane-surface $-1 -54.847865230262158 0 0 1 0 0 0 0 -1 forward_v I I I I #
coedge $-1 $370 $269 $271 $374 reversed $179 $-1 #
coedge $-1 $269 $369 $437 $438 reversed $179 $-1 #
coedge $-1 $277 $272 $269 $372 forward $267 $-1 #
edge $-1 $375 -7.6791046617029863 $439 -0.82480668176435046 $371 $440 forward 7 unknown #
coedge $-1 $271 $270 $378 $441 reversed $113 $-1 #
edge $-1 $442 -7.9203227973758348e-015 $375 7.9964529762657452 $369 $443 forward 7 unknown #
vertex $-1 $273 $444 #
straight-curve $-1 -47.993567250323522 8.1306044092998082 12.178352649952169 0 1 0 I I #
coedge $-1 $437 $274 $277 $382 reversed $367 $-1 #
coedge $-1 $274 $437 $373 $441 forward $367 $-1 #
vertex $-1 $275 $445 #
straight-curve $-1 -54.847865230262158 11.295651006007567 51.04373378698957 0 0 1 I I #
straight-curve $-1 -54.847865230262151 11.295651006007567 8.0598748481619822 -0.85716729658548041 0 -0.51503808176128008 I I #
edge $-1 $439 -21.226766631191666 $278 -11.295651006007567 $377 $446 forward 7 unknown #
point $-1 -54.847865230262158 11.295651006007567 12.178352649952171 #
point $-1 -47.993567250323522 11.295651006007567 12.178352649952171 #
edge $-1 $447 1 $447 0 $281 $-1 forward 7 unknown #
vertex $-1 $282 $448 #
ellipse-curve $-1 -50.827307240362011 14.133112613203028 9.1315153437104897 -0.51503808176128008 0 0.85716729658548041 0.85716729658548041 0 0.51503808176128008 1 I I #
point $-1 -50.563548943707367 14.133112613203028 10.634151830818359 #
edge $-1 $449 1 $449 0 $285 $-1 forward 7 unknown #
vertex $-1 $286 $450 #
ellipse-curve $-1 -50.827307240362011 18.389305023996211 9.1315153437104897 -0.51503808176128008 0 0.85716729658548041 0.85716729658548041 0 0.51503808176128008 1 I I #
point $-1 -50.563548943707367 18.389305023996211 10.634151830818359 #
plane-surface $-1 54.847865230262158 0 0 -1 0 0 0 0 1 forward_v I I I I #
coedge $-1 $294 $292 $296 $398 reversed $201 $-1 #
edge $-1 $307 -12.178352649952171 $400 12.178352649952171 $306 $451 forward 7 unknown #
vertex $-1 $398 $452 #
straight-curve $-1 -54.847865230262158 -27.854620677014875 0 0 0 -1 I I #
edge $-1 $396 -27.854620677014875 $400 27.854620677014875 $394 $453 forward 7 unknown #
straight-curve $-1 0 -27.854620677014875 -12.178352649952171 -1 0 0 I I #
vertex $-1 $299 $454 #
straight-curve $-1 0 27.854620677014875 -12.178352649952171 1 0 0 I I #
point $-1 54.847865230262158 27.854620677014875 -12.178352649952171 #
point $-1 54.847865230262158 -27.854620677014875 -12.178352649952171 #
straight-curve $-1 -54.847865230262158 0 12.178352649952171 0 -1 0 I I #
point $-1 -54.847865230262158 27.854620677014875 12.178352649952171 #
point $-1 -54.847865230262158 -27.854620677014875 12.178352649952171 #
straight-curve $-1 54.847865230262158 -27.854620677014875 0 0 0 -1 I I #
straight-curve $-1 54.847865230262158 27.854620677014875 0 0 0 -1 I I #
coedge $-1 $413 $321 $318 $410 reversed $316 $-1 #
edge $-1 $418 -54.847865230262158 $411 -46.932626204729601 $409 $455 forward 7 unknown #
vertex $-1 $322 $456 #
straight-curve $-1 46.932626204729608 11.682300721494938 12.178352649952174 0 -1 0 I I #
coedge $-1 $321 $409 $323 $415 forward $316 $-1 #
straight-curve $-1 2.3360896665561004 27.854620677014875 55.244728357887162 -0.71933979245794832 0 0.69465837861970381 I I #
edge $-1 $418 -12.178352649952171 $324 -4.53469499954452 $323 $457 forward 7 unknown #
point $-1 54.847865230262158 27.854620677014875 4.53469499954452 #
point $-1 46.932626204729601 18.874582208964878 12.178352649952174 #
vertex $-1 $330 $458 #
straight-curve $-1 54.847865230262158 0 12.178352649952171 0 1 0 I I #
vertex $-1 $333 $459 #
point $-1 49.217511670628419 21.440307485550594 5.184800528919256 #
vertex $-1 $337 $460 #
point $-1 49.217511670628419 25.288895400429166 5.184800528919256 #
edge $-1 $425 38.865381137037403 $428 42.983858938827595 $342 $461 forward 7 unknown #
vertex $-1 $356 $462 #
straight-curve $-1 -55.672671912026509 -11.295651006007571 12.178352649952174 -1 0 0 I I #
edge $-1 $428 3.1650465967077608 $353 13.096162221891859 $352 $463 forward 7 unknown #
vertex $-1 $427 $464 #
straight-curve $-1 -54.847865230262151 -11.295651006007571 8.0598748481619822 0.85716729658548041 0 0.51503808176128008 I I #
point $-1 -47.993567250323522 -11.295651006007571 12.178352649952171 #
point $-1 -54.847865230262158 -21.226766631191669 8.0598748481619786 #
straight-curve $-1 -54.847865230262158 0 12.178352649952171 0 -1 0 I I #
vertex $-1 $359 $465 #
point $-1 -49.97013994377653 -18.389305023996211 9.6465534254717706 #
vertex $-1 $363 $466 #
point $-1 -49.97013994377653 -14.133112613203027 9.6465534254717706 #
coedge $-1 $378 $377 $370 $438 forward $367 $-1 #
edge $-1 $439 38.865381137037403 $442 42.983858938827595 $437 $467 forward 7 unknown #
vertex $-1 $382 $468 #
straight-curve $-1 -55.672671912026509 21.226766631191666 12.178352649952174 -1 0 0 I I #
edge $-1 $442 -13.096162221891857 $379 -3.165046596707759 $378 $469 forward 7 unknown #
vertex $-1 $441 $470 #
straight-curve $-1 -54.847865230262151 21.226766631191666 8.0598748481619822 0.85716729658548041 0 0.51503808176128008 I I #
point $-1 -47.993567250323522 21.226766631191666 12.178352649952171 #
point $-1 -54.847865230262158 11.295651006007567 8.0598748481619786 #
straight-curve $-1 -54.847865230262158 0 12.178352649952171 0 -1 0 I I #
vertex $-1 $385 $471 #
point $-1 -49.97013994377653 14.133112613203028 9.6465534254717706 #
vertex $-1 $389 $472 #
point $-1 -49.97013994377653 18.389305023996211 9.6465534254717706 #
straight-curve $-1 -54.847865230262158 27.854620677014875 0 0 0 -1 I I #
point $-1 -54.847865230262158 -27.854620677014875 -12.178352649952171 #
straight-curve $-1 -54.847865230262158 0 -12.178352649952171 0 1 0 I I #
point $-1 -54.847865230262158 27.854620677014875 -12.178352649952171 #
straight-curve $-1 0 27.854620677014875 12.178352649952171 -1 0 0 I I #
point $-1 46.932626204729601 27.854620677014875 12.178352649952174 #
straight-curve $-1 54.847865230262158 27.854620677014875 0 0 0 -1 I I #
point $-1 54.847865230262158 27.854620677014875 12.178352649952171 #
point $-1 47.803513499550768 21.440307485550594 5.1601191150810113 #
point $-1 47.803513499550768 25.288895400429166 5.1601191150810113 #
straight-curve $-1 -54.847865230262158 -11.295651006007571 51.04373378698957 0 0 -1 I I #
point $-1 -54.847865230262158 -11.295651006007571 12.178352649952171 #
straight-curve $-1 -54.847865230262158 -8.13060440929981 8.0598748481619786 0 -1 0 I I #
point $-1 -54.847865230262158 -11.295651006007571 8.0598748481619786 #
point $-1 -50.312269158600735 -18.389305023996211 8.2743480471250095 #
point $-1 -50.312269158600735 -14.133112613203027 8.2743480471250095 #
straight-curve $-1 -54.847865230262158 21.226766631191666 51.04373378698957 0 0 -1 I I #
point $-1 -54.847865230262158 21.226766631191666 12.178352649952171 #
straight-curve $-1 -54.847865230262158 8.1306044092998082 8.0598748481619786 0 -1 0 I I #
point $-1 -54.847865230262158 21.226766631191666 8.0598748481619786 #
point $-1 -50.312269158600735 14.133112613203028 8.2743480471250095 #
point $-1 -50.312269158600735 18.389305023996211 8.2743480471250095 #
End-of-ACIS-data 