500 0 7 0           
7 Unknown 11 ACIS 5.0 NT 24 Fri Mar 26 19:10:42 1999 
-1 9.9999999999999995e-007 1e-010 
body $-1 $7 $-1 $8 #
body $-1 $9 $-1 $10 #
body $-1 $11 $-1 $12 #
body $-1 $13 $-1 $14 #
body $-1 $15 $-1 $16 #
body $-1 $17 $-1 $18 #
body $-1 $19 $-1 $20 #
lump $-1 $-1 $21 $0 #
transform $-1 1 0 0 0 1 0 0 0 1 51.576281014435253 24.989949275111538 6.035812144935079 1 rotate no_reflect no_shear #
lump $-1 $-1 $22 $1 #
transform $-1 1 0 0 0 1 0 0 0 1 51.576281014435253 24.989949275111538 6.035812144935079 1 rotate no_reflect no_shear #
lump $-1 $-1 $23 $2 #
transform $-1 1 0 0 0 1 0 0 0 1 51.576281014435253 24.989949275111538 6.035812144935079 1 rotate no_reflect no_shear #
lump $-1 $-1 $24 $3 #
transform $-1 1 0 0 0 1 0 0 0 1 51.576281014435253 24.989949275111538 6.035812144935079 1 rotate no_reflect no_shear #
lump $-1 $-1 $25 $4 #
transform $-1 1 0 0 0 1 0 0 0 1 51.576281014435253 24.989949275111538 6.035812144935079 1 rotate no_reflect no_shear #
lump $-1 $-1 $26 $5 #
transform $-1 1 0 0 0 1 0 0 0 1 51.576281014435253 24.989949275111538 6.035812144935079 1 rotate no_reflect no_shear #
lump $-1 $-1 $27 $6 #
transform $-1 1 0 0 0 1 0 0 0 1 51.576281014435253 24.989949275111538 6.035812144935079 1 rotate no_reflect no_shear #
shell $-1 $-1 $-1 $28 $-1 $7 #
shell $-1 $-1 $-1 $29 $-1 $9 #
shell $-1 $-1 $-1 $30 $-1 $11 #
shell $-1 $-1 $-1 $31 $-1 $13 #
shell $-1 $-1 $-1 $32 $-1 $15 #
shell $-1 $-1 $-1 $33 $-1 $17 #
shell $-1 $-1 $-1 $34 $-1 $19 #
face $-1 $35 $36 $21 $-1 $37 forward single #
face $-1 $38 $39 $22 $-1 $40 forward single #
face $-1 $41 $42 $23 $-1 $43 reversed single #
face $-1 $44 $45 $24 $-1 $46 forward single #
face $-1 $47 $48 $25 $-1 $49 reversed single #
face $-1 $50 $51 $26 $-1 $52 forward single #
face $-1 $53 $54 $27 $-1 $55 forward single #
face $-1 $56 $57 $21 $-1 $58 reversed single #
loop $-1 $-1 $59 $28 #
plane-surface $-1 0 0 6.035812144935079 0 0 1 1 0 0 forward_v I I I I #
face $-1 $60 $61 $22 $-1 $62 reversed single #
loop $-1 $-1 $63 $29 #
plane-surface $-1 -47.952566701233408 0 -3.035812144935079 0 0 1 1 0 0 forward_v I I I I #
face $-1 $64 $65 $23 $-1 $66 reversed single #
loop $-1 $-1 $67 $30 #
plane-surface $-1 36.253432711859425 70.050413682462633 106.82561815574425 1 0 0 0 -0.75470958851134928 -0.65605901945558964 forward_v I I I I #
face $-1 $68 $69 $24 $-1 $70 forward single #
loop $-1 $71 $72 $31 #
cone-surface $-1 41.57055239311164 22.367185655703864 3.1933244774033906 0 -0.75470958851134928 -0.65605901945558964 1 0 0 1 I I 0 1 1 forward I I I I #
face $-1 $73 $74 $25 $-1 $75 reversed single #
loop $-1 $-1 $76 $32 #
plane-surface $-1 -26.537216461227917 -102.84017691781185 67.775062873797637 -1 0 0 0 -0.75470958851134928 0.65605901945558964 forward_v I I I I #
face $-1 $77 $78 $26 $-1 $79 forward single #
loop $-1 $80 $81 $33 #
cone-surface $-1 -39.245527837516235 -21.254185556648778 2.0632916449729706 0 0.75470958851134928 -0.65605901945558964 1 0 0 1 I I 0 1 1 forward I I I I #
face $-1 $82 $83 $27 $-1 $84 forward single #
loop $-1 $85 $86 $34 #
cone-surface $-1 -31.620541011743242 -21.254185556648778 2.0632916449729706 0 0.75470958851134928 -0.65605901945558964 1 0 0 1 I I 0 1 1 forward I I I I #
face $-1 $87 $88 $21 $-1 $89 reversed single #
loop $-1 $-1 $90 $35 #
plane-surface $-1 0 0 -6.035812144935079 0 0 1 1 0 0 forward_v I I I I #
coedge $-1 $91 $92 $93 $94 forward $36 $-1 #
face $-1 $95 $96 $22 $-1 $97 reversed single #
loop $-1 $-1 $98 $38 #
plane-surface $-1 -44.328852388031564 0 -4.535812144935079 -1 0 0 0 0 1 forward_v I I I I #
coedge $-1 $99 $100 $101 $102 forward $39 $-1 #
face $-1 $103 $104 $23 $-1 $105 reversed single #
loop $-1 $-1 $106 $41 #
plane-surface $-1 41.57055239311164 -7.7998139602376568 39.151449456751578 0 0.75470958851134928 0.65605901945558964 1 0 0 forward_v I I I I #
coedge $-1 $107 $108 $109 $110 reversed $42 $-1 #
face $-1 $-1 $111 $24 $-1 $112 forward single #
loop $-1 $113 $114 $44 #
cone-surface $-1 41.57055239311164 21.368457062233762 2.3251429785745827 0 -0.75470958851134928 -0.65605901945558964 0.5 0 0 1 I I -0.70710678118654746 0.70710678118654746 0.5 forward I I I I #
loop $-1 $-1 $115 $31 #
coedge $-1 $72 $72 $116 $117 reversed $45 $-1 #
face $-1 $118 $119 $25 $-1 $120 reversed single #
loop $-1 $-1 $121 $47 #
plane-surface $-1 -35.433034424629739 -24.989949275111556 0.10089417480496365 0 -0.75470958851134928 0.65605901945558964 1 0 0 forward_v I I I I #
coedge $-1 $122 $123 $124 $125 reversed $48 $-1 #
face $-1 $-1 $126 $26 $-1 $127 forward single #
loop $-1 $128 $129 $50 #
cone-surface $-1 -39.245527837516235 -19.72063971884036 0.73020062034812394 0 0.75470958851134928 -0.65605901945558964 0.5 0 0 1 I I -0.70710678118654746 0.70710678118654746 0.5 forward I I I I #
loop $-1 $-1 $130 $33 #
coedge $-1 $81 $81 $131 $132 reversed $51 $-1 #
face $-1 $-1 $133 $27 $-1 $134 forward single #
loop $-1 $135 $136 $53 #
cone-surface $-1 -31.620541011743242 -19.72063971884036 0.73020062034812394 0 0.75470958851134928 -0.65605901945558964 0.5 0 0 1 I I -0.70710678118654746 0.70710678118654746 0.5 forward I I I I #
loop $-1 $-1 $137 $34 #
coedge $-1 $86 $86 $138 $139 reversed $54 $-1 #
face $-1 $140 $141 $21 $-1 $142 reversed single #
loop $-1 $-1 $143 $56 #
plane-surface $-1 0 -24.989949275111538 0 0 1 0 0 0 1 forward_v I I I I #
coedge $-1 $144 $145 $146 $147 forward $57 $-1 #
coedge $-1 $148 $59 $149 $150 forward $36 $-1 #
coedge $-1 $59 $148 $151 $152 forward $36 $-1 #
coedge $-1 $153 $154 $59 $94 reversed $155 $-1 #
edge $-1 $156 -24.989949275111538 $157 24.989949275111538 $93 $158 forward 7 unknown #
face $-1 $159 $160 $22 $-1 $161 reversed single #
loop $-1 $-1 $162 $60 #
plane-surface $-1 0 0 -6.035812144935079 0 0 1 1 0 0 forward_v I I I I #
coedge $-1 $163 $101 $164 $165 reversed $61 $-1 #
coedge $-1 $166 $63 $167 $168 reversed $39 $-1 #
coedge $-1 $63 $166 $169 $170 reversed $39 $-1 #
coedge $-1 $98 $171 $63 $102 reversed $61 $-1 #
edge $-1 $172 -24.989949275111538 $173 24.989949275111538 $101 $174 forward 7 unknown #
face $-1 $175 $176 $23 $-1 $177 reversed single #
loop $-1 $-1 $178 $64 #
plane-surface $-1 46.887672074363856 70.050413682462633 106.82561815574425 -1 0 0 0 0.75470958851134928 0.65605901945558964 forward_v I I I I #
coedge $-1 $179 $180 $181 $182 reversed $65 $-1 #
coedge $-1 $108 $67 $183 $184 reversed $42 $-1 #
coedge $-1 $67 $107 $179 $185 reversed $42 $-1 #
coedge $-1 $181 $186 $67 $110 forward $187 $-1 #
edge $-1 $188 10.035257566119778 $189 14.038037206506257 $109 $190 forward 7 unknown #
loop $-1 $-1 $116 $68 #
plane-surface $-1 41.57055239311164 -7.7998139602376568 39.151449456751578 0 0.75470958851134928 0.65605901945558964 1 0 0 forward_v I I I I #
loop $-1 $-1 $191 $44 #
coedge $-1 $114 $114 $115 $192 reversed $69 $-1 #
coedge $-1 $115 $115 $114 $192 forward $71 $-1 #
coedge $-1 $116 $116 $72 $117 forward $111 $-1 #
edge $-1 $193 2.681267078626168e-015 $193 6.2831853071796031 $116 $194 forward 7 unknown #
face $-1 $195 $196 $25 $-1 $197 forward single #
loop $-1 $-1 $198 $73 #
plane-surface $-1 -44.328852388031564 -102.84017691781185 67.775062873797637 1 0 0 0 0.75470958851134928 -0.65605901945558964 forward_v I I I I #
coedge $-1 $199 $200 $201 $202 reversed $74 $-1 #
coedge $-1 $123 $76 $203 $204 reversed $48 $-1 #
coedge $-1 $76 $122 $199 $205 reversed $48 $-1 #
coedge $-1 $201 $206 $76 $125 forward $196 $-1 #
edge $-1 $207 26.430139183794385 $208 31.589284533614403 $124 $209 forward 7 unknown #
loop $-1 $-1 $131 $77 #
plane-surface $-1 -35.433034424629739 -24.989949275111556 0.10089417480496365 0 -0.75470958851134928 0.65605901945558964 1 0 0 forward_v I I I I #
loop $-1 $-1 $210 $50 #
coedge $-1 $129 $129 $130 $211 reversed $78 $-1 #
coedge $-1 $130 $130 $129 $211 forward $80 $-1 #
coedge $-1 $131 $131 $81 $132 forward $126 $-1 #
edge $-1 $212 9.595186306520749e-016 $212 6.2831853071796013 $131 $213 forward 7 unknown #
loop $-1 $-1 $138 $82 #
plane-surface $-1 -35.433034424629739 -24.989949275111556 0.10089417480496365 0 -0.75470958851134928 0.65605901945558964 1 0 0 forward_v I I I I #
loop $-1 $-1 $214 $53 #
coedge $-1 $136 $136 $137 $215 reversed $83 $-1 #
coedge $-1 $137 $137 $136 $215 forward $85 $-1 #
coedge $-1 $138 $138 $86 $139 forward $133 $-1 #
edge $-1 $216 9.595186306520749e-016 $216 6.2831853071796013 $138 $217 forward 7 unknown #
face $-1 $218 $219 $21 $-1 $220 reversed single #
loop $-1 $-1 $221 $87 #
plane-surface $-1 -51.576281014435253 0 0 1 0 0 0 0 -1 forward_v I I I I #
coedge $-1 $222 $151 $223 $224 forward $88 $-1 #
coedge $-1 $225 $90 $222 $226 forward $57 $-1 #
coedge $-1 $90 $225 $227 $228 forward $57 $-1 #
coedge $-1 $154 $153 $90 $147 reversed $155 $-1 #
edge $-1 $229 -24.989949275111538 $230 24.989949275111538 $146 $231 forward 7 unknown #
coedge $-1 $92 $91 $232 $233 forward $36 $-1 #
coedge $-1 $234 $235 $91 $150 reversed $219 $-1 #
edge $-1 $157 -51.576281014435253 $236 51.576281014435253 $149 $237 forward 7 unknown #
coedge $-1 $143 $238 $92 $152 reversed $88 $-1 #
edge $-1 $239 -51.576281014435253 $156 51.576281014435253 $151 $240 forward 7 unknown #
coedge $-1 $146 $93 $238 $241 forward $155 $-1 #
coedge $-1 $93 $146 $234 $242 reversed $155 $-1 #
loop $-1 $-1 $153 $218 #
vertex $-1 $94 $243 #
vertex $-1 $94 $244 #
straight-curve $-1 51.576281014435253 0 6.035812144935079 0 1 0 I I #
face $-1 $245 $246 $22 $-1 $247 reversed single #
loop $-1 $-1 $164 $95 #
plane-surface $-1 0 -24.989949275111538 0 0 1 0 0 0 1 forward_v I I I I #
coedge $-1 $248 $249 $163 $250 forward $96 $-1 #
coedge $-1 $171 $98 $162 $250 reversed $61 $-1 #
coedge $-1 $169 $251 $98 $165 forward $160 $-1 #
edge $-1 $252 -3.7679060724675395 $172 -0.7679060724675395 $164 $253 forward 7 unknown #
coedge $-1 $100 $99 $254 $255 reversed $39 $-1 #
coedge $-1 $256 $257 $99 $168 forward $258 $-1 #
edge $-1 $259 -27.599997663818549 $173 -20.35256903741486 $167 $260 forward 7 unknown #
coedge $-1 $261 $164 $100 $170 forward $160 $-1 #
edge $-1 $172 20.35256903741486 $262 27.599997663818549 $169 $263 forward 7 unknown #
coedge $-1 $101 $163 $256 $264 reversed $61 $-1 #
vertex $-1 $170 $265 #
vertex $-1 $168 $266 #
straight-curve $-1 -44.328852388031564 0 -3.035812144935079 0 1 0 I I #
face $-1 $-1 $187 $23 $-1 $267 forward single #
loop $-1 $-1 $268 $103 #
plane-surface $-1 0 24.989949275111538 0 0 -1 0 0 0 -1 forward_v I I I I #
coedge $-1 $269 $270 $271 $272 reversed $104 $-1 #
coedge $-1 $273 $106 $108 $185 forward $65 $-1 #
coedge $-1 $106 $273 $269 $274 forward $65 $-1 #
coedge $-1 $271 $109 $106 $182 forward $187 $-1 #
edge $-1 $189 15.468156515303605 $275 26.102395877808036 $181 $276 forward 7 unknown #
coedge $-1 $277 $278 $107 $184 forward $176 $-1 #
edge $-1 $279 -51.981668289798385 $188 -47.376996932937047 $183 $280 forward 7 unknown #
edge $-1 $189 43.878649239287512 $279 49.979898550223091 $108 $281 forward 7 unknown #
coedge $-1 $109 $271 $277 $282 forward $187 $-1 #
loop $-1 $-1 $271 $175 #
vertex $-1 $184 $283 #
vertex $-1 $110 $284 #
straight-curve $-1 36.253432711859425 35.025206841231316 6.035812144935079 0 -1 0 I I #
coedge $-1 $191 $191 $-1 $285 reversed $113 $-1 #
edge $-1 $286 0 $286 6.2831853071796004 $114 $287 forward 7 unknown #
vertex $-1 $117 $288 #
ellipse-curve $-1 41.57055239311164 22.988559454918295 3.7334764665044071 0 0.75470958851134928 0.65605901945558964 1 0 0 1 I I #
face $-1 $-1 $289 $25 $-1 $290 reversed single #
loop $-1 $-1 $124 $118 #
plane-surface $-1 0 0 6.035812144935079 0 0 1 1 0 0 forward_v I I I I #
coedge $-1 $291 $292 $293 $294 reversed $119 $-1 #
coedge $-1 $295 $121 $123 $205 forward $74 $-1 #
coedge $-1 $121 $295 $291 $296 forward $74 $-1 #
coedge $-1 $293 $124 $121 $202 forward $196 $-1 #
edge $-1 $208 8.8206992489130478 $297 26.612335175716694 $201 $298 forward 7 unknown #
coedge $-1 $299 $300 $122 $204 forward $289 $-1 #
edge $-1 $301 -33.786637262093834 $207 -27.85171929196374 $203 $302 forward 7 unknown #
edge $-1 $208 -7.8638433385173121 $301 -2.7071234964702059e-014 $123 $303 forward 7 unknown #
coedge $-1 $124 $293 $299 $304 forward $196 $-1 #
vertex $-1 $125 $305 #
vertex $-1 $125 $306 #
straight-curve $-1 -26.537216461227917 -51.420088458905923 6.035812144935079 0 1 0 I I #
coedge $-1 $210 $210 $-1 $307 reversed $128 $-1 #
edge $-1 $308 0 $308 6.2831853071796004 $129 $309 forward 7 unknown #
vertex $-1 $132 $310 #
ellipse-curve $-1 -39.245527837516235 -22.410376600201531 3.0683531598700298 0 -0.75470958851134928 0.65605901945558964 1 0 0 1 I I #
coedge $-1 $214 $214 $-1 $311 reversed $135 $-1 #
edge $-1 $312 0 $312 6.2831853071796004 $136 $313 forward 7 unknown #
vertex $-1 $139 $314 #
ellipse-curve $-1 -31.620541011743242 -22.410376600201531 3.0683531598700298 0 -0.75470958851134928 0.65605901945558964 1 0 0 1 I I #
face $-1 $-1 $155 $21 $-1 $315 reversed single #
loop $-1 $-1 $234 $140 #
plane-surface $-1 0 24.989949275111538 0 0 -1 0 0 0 -1 forward_v I I I I #
coedge $-1 $316 $232 $235 $317 forward $141 $-1 #
coedge $-1 $238 $143 $144 $226 reversed $88 $-1 #
coedge $-1 $232 $316 $143 $224 reversed $141 $-1 #
edge $-1 $239 -6.035812144935079 $318 6.035812144935079 $223 $319 forward 7 unknown #
coedge $-1 $145 $144 $316 $320 forward $57 $-1 #
edge $-1 $230 -51.576281014435253 $318 51.576281014435253 $222 $321 forward 7 unknown #
coedge $-1 $235 $234 $145 $228 reversed $219 $-1 #
edge $-1 $322 -51.576281014435253 $229 51.576281014435253 $227 $323 forward 7 unknown #
vertex $-1 $147 $324 #
vertex $-1 $241 $325 #
straight-curve $-1 51.576281014435253 0 -6.035812144935079 0 -1 0 I I #
coedge $-1 $221 $223 $148 $233 reversed $141 $-1 #
edge $-1 $236 -24.989949275111538 $239 24.989949275111538 $232 $326 forward 7 unknown #
coedge $-1 $227 $149 $154 $242 forward $219 $-1 #
coedge $-1 $149 $227 $221 $317 reversed $219 $-1 #
vertex $-1 $150 $327 #
straight-curve $-1 0 24.989949275111538 6.035812144935079 -1 0 0 I I #
coedge $-1 $151 $222 $153 $241 reversed $88 $-1 #
vertex $-1 $233 $328 #
straight-curve $-1 0 -24.989949275111538 6.035812144935079 1 0 0 I I #
edge $-1 $156 -6.035812144935079 $230 6.035812144935079 $153 $329 forward 7 unknown #
edge $-1 $157 -6.035812144935079 $229 6.035812144935079 $154 $330 forward 7 unknown #
point $-1 51.576281014435253 -24.989949275111538 6.035812144935079 #
point $-1 51.576281014435253 24.989949275111538 6.035812144935079 #
face $-1 $-1 $258 $22 $-1 $331 reversed single #
loop $-1 $-1 $254 $159 #
plane-surface $-1 -51.576281014435253 0 0 1 0 0 0 0 -1 forward_v I I I I #
coedge $-1 $332 $162 $251 $333 forward $96 $-1 #
coedge $-1 $162 $332 $334 $335 forward $96 $-1 #
edge $-1 $336 -24.989949275111538 $252 24.989949275111538 $162 $337 forward 7 unknown #
coedge $-1 $164 $261 $248 $333 reversed $160 $-1 #
vertex $-1 $333 $338 #
straight-curve $-1 -44.328852388031564 -24.989949275111538 -2.2679060724675395 0 0 1 I I #
coedge $-1 $339 $340 $166 $255 forward $246 $-1 #
edge $-1 $262 -24.989949275111538 $259 24.989949275111538 $254 $341 forward 7 unknown #
coedge $-1 $334 $167 $171 $264 forward $258 $-1 #
coedge $-1 $167 $334 $339 $342 reversed $258 $-1 #
loop $-1 $-1 $256 $245 #
vertex $-1 $342 $343 #
straight-curve $-1 -23.976283350616704 24.989949275111538 -3.035812144935079 1 0 0 I I #
coedge $-1 $251 $169 $340 $344 forward $160 $-1 #
vertex $-1 $344 $345 #
straight-curve $-1 -23.976283350616704 -24.989949275111538 -3.035812144935079 -1 0 0 I I #
edge $-1 $173 0.7679060724675395 $336 3.7679060724675395 $256 $346 forward 7 unknown #
point $-1 -44.328852388031564 -24.989949275111538 -3.035812144935079 #
point $-1 -44.328852388031564 24.989949275111538 -3.035812144935079 #
plane-surface $-1 0 0 6.035812144935079 0 0 1 1 0 0 forward_v I I I I #
coedge $-1 $278 $277 $270 $347 forward $176 $-1 #
coedge $-1 $270 $178 $180 $274 reversed $104 $-1 #
coedge $-1 $178 $269 $268 $347 reversed $104 $-1 #
coedge $-1 $186 $181 $178 $272 forward $187 $-1 #
edge $-1 $275 -14.038037206506257 $348 -10.035257566119778 $271 $349 forward 7 unknown #
coedge $-1 $180 $179 $278 $350 reversed $65 $-1 #
edge $-1 $351 -49.979898550223091 $275 -43.878649239287512 $269 $352 forward 7 unknown #
vertex $-1 $182 $353 #
straight-curve $-1 20.78527619655582 20.987169634725056 6.035812144935079 1 0 0 I I #
coedge $-1 $268 $183 $186 $282 reversed $176 $-1 #
coedge $-1 $183 $268 $273 $350 forward $176 $-1 #
vertex $-1 $184 $354 #
straight-curve $-1 36.253432711859425 24.989949275111538 53.412809077872126 0 0 1 I I #
straight-curve $-1 36.253432711859425 -7.7998139602376568 39.151449456751578 0 0.65605901945558964 -0.75470958851134928 I I #
edge $-1 $348 -46.887672074363856 $188 -36.253432711859425 $277 $355 forward 7 unknown #
point $-1 36.253432711859425 24.989949275111538 6.035812144935079 #
point $-1 36.253432711859425 20.98716963472506 6.035812144935079 #
edge $-1 $356 1 $356 0 $191 $-1 forward 7 unknown #
vertex $-1 $192 $357 #
ellipse-curve $-1 41.57055239311164 21.745811856489436 2.6531724883023777 0 0.75470958851134928 0.65605901945558964 1 0 0 1 I I #
point $-1 42.57055239311164 22.988559454918295 3.7334764665044036 #
loop $-1 $-1 $203 $195 #
plane-surface $-1 0 -24.989949275111538 0 0 1 0 0 0 1 forward_v I I I I #
coedge $-1 $292 $198 $200 $296 reversed $119 $-1 #
coedge $-1 $198 $291 $358 $359 reversed $119 $-1 #
coedge $-1 $206 $201 $198 $294 forward $196 $-1 #
edge $-1 $297 -31.589284533614403 $360 -26.430139183794385 $293 $361 forward 7 unknown #
coedge $-1 $200 $199 $300 $362 reversed $74 $-1 #
edge $-1 $363 2.7071234964702059e-014 $297 7.8638433385173121 $291 $364 forward 7 unknown #
vertex $-1 $202 $365 #
straight-curve $-1 -17.716517212314869 -19.830803925291516 6.035812144935079 -1 0 0 I I #
coedge $-1 $358 $203 $206 $304 reversed $289 $-1 #
coedge $-1 $203 $358 $295 $362 forward $289 $-1 #
vertex $-1 $204 $366 #
straight-curve $-1 -26.537216461227917 -24.989949275111542 33.887531436898819 0 0 1 I I #
straight-curve $-1 -26.537216461227917 -24.989949275111556 0.10089417480496365 0 -0.65605901945558964 -0.75470958851134928 I I #
edge $-1 $360 -44.328852388031564 $207 -26.537216461227917 $299 $367 forward 7 unknown #
point $-1 -26.537216461227917 -24.989949275111538 6.035812144935079 #
point $-1 -26.537216461227917 -19.830803925291519 6.035812144935079 #
edge $-1 $368 1 $368 0 $210 $-1 forward 7 unknown #
vertex $-1 $211 $369 #
ellipse-curve $-1 -39.245527837516235 -20.097994513096033 1.0582301300759187 0 -0.75470958851134928 0.65605901945558964 1 0 0 1 I I #
point $-1 -38.245527837516235 -22.41037660020152 3.0683531598700218 #
edge $-1 $370 1 $370 0 $214 $-1 forward 7 unknown #
vertex $-1 $215 $371 #
ellipse-curve $-1 -31.620541011743242 -20.097994513096033 1.0582301300759187 0 -0.75470958851134928 0.65605901945558964 1 0 0 1 I I #
point $-1 -30.620541011743242 -22.41037660020152 3.0683531598700218 #
plane-surface $-1 51.576281014435253 0 0 -1 0 0 0 0 1 forward_v I I I I #
coedge $-1 $223 $221 $225 $320 reversed $141 $-1 #
edge $-1 $236 -6.035812144935079 $322 6.035812144935079 $235 $372 forward 7 unknown #
vertex $-1 $320 $373 #
straight-curve $-1 -51.576281014435253 -24.989949275111538 0 0 0 -1 I I #
edge $-1 $318 -24.989949275111538 $322 24.989949275111538 $316 $374 forward 7 unknown #
straight-curve $-1 0 -24.989949275111538 -6.035812144935079 -1 0 0 I I #
vertex $-1 $228 $375 #
straight-curve $-1 0 24.989949275111538 -6.035812144935079 1 0 0 I I #
point $-1 51.576281014435253 24.989949275111538 -6.035812144935079 #
point $-1 51.576281014435253 -24.989949275111538 -6.035812144935079 #
straight-curve $-1 -51.576281014435253 0 6.035812144935079 0 -1 0 I I #
point $-1 -51.576281014435253 24.989949275111538 6.035812144935079 #
point $-1 -51.576281014435253 -24.989949275111538 6.035812144935079 #
straight-curve $-1 51.576281014435253 -24.989949275111538 0 0 0 -1 I I #
straight-curve $-1 51.576281014435253 24.989949275111538 0 0 0 -1 I I #
plane-surface $-1 0 24.989949275111538 0 0 -1 0 0 0 -1 forward_v I I I I #
coedge $-1 $249 $248 $376 $377 forward $96 $-1 #
edge $-1 $252 44.328852388031564 $378 51.576281014435253 $251 $379 forward 7 unknown #
coedge $-1 $257 $256 $249 $335 reversed $258 $-1 #
edge $-1 $380 -51.576281014435253 $336 -44.328852388031564 $334 $381 forward 7 unknown #
vertex $-1 $264 $382 #
straight-curve $-1 -44.328852388031564 0 -6.035812144935079 0 -1 0 I I #
point $-1 -44.328852388031564 -24.989949275111538 -6.035812144935079 #
coedge $-1 $376 $254 $257 $342 forward $246 $-1 #
coedge $-1 $254 $376 $261 $344 reversed $246 $-1 #
straight-curve $-1 -51.576281014435253 0 -3.035812144935079 0 1 0 I I #
edge $-1 $259 3.035812144935079 $380 6.035812144935079 $257 $383 forward 7 unknown #
point $-1 -51.576281014435253 24.989949275111538 -3.035812144935079 #
edge $-1 $262 3.035812144935079 $378 6.035812144935079 $340 $384 forward 7 unknown #
point $-1 -51.576281014435253 -24.989949275111538 -3.035812144935079 #
straight-curve $-1 -44.328852388031564 24.989949275111538 -2.2679060724675395 0 0 -1 I I #
edge $-1 $348 47.376996932937047 $351 51.981668289798385 $268 $385 forward 7 unknown #
vertex $-1 $282 $386 #
straight-curve $-1 46.887672074363856 35.025206841231316 6.035812144935079 0 1 0 I I #
edge $-1 $351 -26.102395877808036 $279 -15.468156515303605 $278 $387 forward 7 unknown #
vertex $-1 $350 $388 #
straight-curve $-1 46.887672074363856 -7.7998139602376568 39.151449456751578 0 -0.65605901945558964 0.75470958851134928 I I #
point $-1 46.887672074363856 20.98716963472506 6.035812144935079 #
point $-1 36.253432711859425 24.989949275111542 1.4311407880737406 #
straight-curve $-1 0 24.989949275111538 6.035812144935079 -1 0 0 I I #
vertex $-1 $285 $389 #
point $-1 42.57055239311164 21.745811856489436 2.6531724883023777 #
coedge $-1 $300 $299 $292 $359 forward $289 $-1 #
edge $-1 $360 27.85171929196374 $363 33.786637262093834 $358 $390 forward 7 unknown #
vertex $-1 $304 $391 #
straight-curve $-1 -44.328852388031564 -51.420088458905923 6.035812144935079 0 -1 0 I I #
edge $-1 $363 -26.612335175716694 $301 -8.8206992489130478 $300 $392 forward 7 unknown #
vertex $-1 $362 $393 #
straight-curve $-1 -44.328852388031564 -24.989949275111556 0.10089417480496365 0 0.65605901945558964 0.75470958851134928 I I #
point $-1 -44.328852388031564 -19.830803925291519 6.035812144935079 #
point $-1 -26.537216461227917 -24.989949275111538 0.10089417480498408 #
straight-curve $-1 0 -24.989949275111538 6.035812144935079 1 0 0 I I #
vertex $-1 $307 $394 #
point $-1 -38.245527837516235 -20.097994513096033 1.0582301300759187 #
vertex $-1 $311 $395 #
point $-1 -30.620541011743242 -20.097994513096033 1.0582301300759187 #
straight-curve $-1 -51.576281014435253 24.989949275111538 0 0 0 -1 I I #
point $-1 -51.576281014435253 -24.989949275111538 -6.035812144935079 #
straight-curve $-1 -51.576281014435253 0 -6.035812144935079 0 1 0 I I #
point $-1 -51.576281014435253 24.989949275111538 -6.035812144935079 #
coedge $-1 $340 $339 $332 $377 reversed $246 $-1 #
edge $-1 $378 -24.989949275111538 $380 24.989949275111538 $376 $396 forward 7 unknown #
vertex $-1 $377 $397 #
straight-curve $-1 0 -24.989949275111538 -6.035812144935079 -1 0 0 I I #
vertex $-1 $335 $398 #
straight-curve $-1 0 24.989949275111538 -6.035812144935079 1 0 0 I I #
point $-1 -44.328852388031564 24.989949275111538 -6.035812144935079 #
straight-curve $-1 -51.576281014435253 24.989949275111538 0 0 0 -1 I I #
straight-curve $-1 -51.576281014435253 -24.989949275111538 0 0 0 -1 I I #
straight-curve $-1 46.887672074363856 24.989949275111538 53.412809077872126 0 0 -1 I I #
point $-1 46.887672074363856 24.989949275111538 6.035812144935079 #
straight-curve $-1 20.78527619655582 24.989949275111542 1.431140788073737 -1 0 0 I I #
point $-1 46.887672074363856 24.989949275111542 1.4311407880737406 #
point $-1 41.57055239311164 20.991102267978089 1.997113468846788 #
straight-curve $-1 -44.328852388031564 -24.989949275111542 33.887531436898819 0 0 -1 I I #
point $-1 -44.328852388031564 -24.989949275111538 6.035812144935079 #
straight-curve $-1 -17.716517212314869 -24.989949275111538 0.10089417480498807 1 0 0 I I #
point $-1 -44.328852388031564 -24.989949275111538 0.10089417480498408 #
point $-1 -39.245527837516235 -19.343284924584687 0.40217111062032912 #
point $-1 -31.620541011743242 -19.343284924584687 0.40217111062032912 #
straight-curve $-1 -51.576281014435253 0 -6.035812144935079 0 1 0 I I #
point $-1 -51.576281014435253 -24.989949275111538 -6.035812144935079 #
point $-1 -51.576281014435253 24.989949275111538 -6.035812144935079 #
End-of-ACIS-data 