500 0 7 0           
7 Unknown 11 ACIS 5.0 NT 24 Thu Mar 25 22:36:28 1999 
-1 9.9999999999999995e-007 1e-010 
body $-1 $7 $-1 $8 #
body $-1 $9 $-1 $10 #
body $-1 $11 $-1 $12 #
body $-1 $13 $-1 $14 #
body $-1 $15 $-1 $16 #
body $-1 $17 $-1 $18 #
body $-1 $19 $-1 $20 #
lump $-1 $-1 $21 $0 #
transform $-1 1 0 0 0 1 0 0 0 1 70.884731589709162 35.928891144582224 12.064418793191164 1 rotate no_reflect no_shear #
lump $-1 $-1 $22 $1 #
transform $-1 1 0 0 0 1 0 0 0 1 70.884731589709162 35.928891144582224 12.064418793191164 1 rotate no_reflect no_shear #
lump $-1 $-1 $23 $2 #
transform $-1 1 0 0 0 1 0 0 0 1 70.884731589709162 35.928891144582224 12.064418793191164 1 rotate no_reflect no_shear #
lump $-1 $-1 $24 $3 #
transform $-1 1 0 0 0 1 0 0 0 1 70.884731589709162 35.928891144582224 12.064418793191164 1 rotate no_reflect no_shear #
lump $-1 $-1 $25 $4 #
transform $-1 1 0 0 0 1 0 0 0 1 70.884731589709162 35.928891144582224 12.064418793191164 1 rotate no_reflect no_shear #
lump $-1 $-1 $26 $5 #
transform $-1 1 0 0 0 1 0 0 0 1 70.884731589709162 35.928891144582224 12.064418793191164 1 rotate no_reflect no_shear #
lump $-1 $-1 $27 $6 #
transform $-1 1 0 0 0 1 0 0 0 1 70.884731589709162 35.928891144582224 12.064418793191164 1 rotate no_reflect no_shear #
shell $-1 $-1 $-1 $28 $-1 $7 #
shell $-1 $-1 $-1 $29 $-1 $9 #
shell $-1 $-1 $-1 $30 $-1 $11 #
shell $-1 $-1 $-1 $31 $-1 $13 #
shell $-1 $-1 $-1 $32 $-1 $15 #
shell $-1 $-1 $-1 $33 $-1 $17 #
shell $-1 $-1 $-1 $34 $-1 $19 #
face $-1 $35 $36 $21 $-1 $37 forward single #
face $-1 $38 $39 $22 $-1 $40 reversed single #
face $-1 $41 $42 $23 $-1 $43 forward single #
face $-1 $44 $45 $24 $-1 $46 reversed single #
face $-1 $47 $48 $25 $-1 $49 forward single #
face $-1 $50 $51 $26 $-1 $52 reversed single #
face $-1 $53 $54 $27 $-1 $55 forward single #
face $-1 $56 $57 $21 $-1 $58 reversed single #
loop $-1 $-1 $59 $28 #
plane-surface $-1 0 0 12.064418793191164 0 0 1 1 0 0 forward_v I I I I #
face $-1 $60 $61 $22 $-1 $62 reversed single #
loop $-1 $-1 $63 $29 #
plane-surface $-1 0 -28.516900602831576 6.0045584718429783 0 0 1 1 0 0 forward_v I I I I #
face $-1 $64 $65 $23 $-1 $66 reversed single #
loop $-1 $-1 $67 $30 #
plane-surface $-1 0 28.154581441552608 0.025617629283633647 0 0 1 1 0 0 forward_v I I I I #
face $-1 $68 $69 $24 $-1 $70 reversed single #
loop $-1 $-1 $71 $31 #
plane-surface $-1 49.927581833913635 -13.09946468817256 200.11488441301483 0 -1 0 -0.62932039886446345 0 -0.77714595512881146 forward_v I I I I #
face $-1 $72 $73 $25 $-1 $74 forward single #
loop $-1 $75 $76 $32 #
cone-surface $-1 63.098994743488589 -17.102187374626745 5.4273423098262805 -0.62932039886446345 0 -0.77714595512881146 1.1657189326932171 0 -0.94398059829669512 1 I I 0 1 1.5 forward I I I I #
face $-1 $77 $78 $26 $-1 $79 reversed single #
loop $-1 $-1 $80 $33 #
plane-surface $-1 -70.884731589709148 -17.102187374626745 0.7209044274744798 -0.62932039886446345 0 0.77714595512881146 0.77714595512881146 0 0.62932039886446345 forward_v I I I I #
face $-1 $81 $82 $27 $-1 $83 forward single #
loop $-1 $84 $85 $34 #
cone-surface $-1 -63.098994743488589 -17.102187374626745 5.4273423098262823 0.62932039886446345 0 -0.77714595512881146 1.1657189326932171 0 0.94398059829669512 1 I I 0 1 1.5 forward I I I I #
face $-1 $86 $87 $21 $-1 $88 reversed single #
loop $-1 $-1 $89 $35 #
plane-surface $-1 0 0 -12.064418793191164 0 0 1 1 0 0 forward_v I I I I #
coedge $-1 $90 $91 $92 $93 forward $36 $-1 #
face $-1 $94 $95 $22 $-1 $96 reversed single #
loop $-1 $-1 $97 $38 #
plane-surface $-1 0 -21.104910061080929 9.034488632517073 0 -1 0 0 0 -1 forward_v I I I I #
coedge $-1 $98 $99 $100 $101 reversed $39 $-1 #
face $-1 $102 $103 $23 $-1 $104 reversed single #
loop $-1 $-1 $105 $41 #
plane-surface $-1 0 28.154581441552608 -2.9743823707163664 0 0 1 1 0 0 forward_v I I I I #
coedge $-1 $106 $107 $108 $109 reversed $42 $-1 #
face $-1 $110 $111 $24 $-1 $112 forward single #
loop $-1 $-1 $113 $44 #
plane-surface $-1 -39.290833280958765 -17.102187374626745 89.939319542346908 0.62932039886446345 0 0.77714595512881146 0.77714595512881146 0 -0.62932039886446345 forward_v I I I I #
coedge $-1 $114 $115 $116 $117 reversed $45 $-1 #
face $-1 $-1 $118 $25 $-1 $119 forward single #
loop $-1 $120 $121 $47 #
cone-surface $-1 61.845304271783021 -17.102187374626745 3.8791635429731333 -0.62932039886446345 0 -0.77714595512881146 0.58285946634660857 0 -0.47199029914834756 1 I I -0.70710678118654757 0.70710678118654757 0.75 forward I I I I #
loop $-1 $-1 $122 $32 #
coedge $-1 $76 $76 $123 $124 reversed $48 $-1 #
face $-1 $125 $126 $26 $-1 $127 forward single #
loop $-1 $-1 $128 $50 #
plane-surface $-1 -160.10314670458155 -13.09946468817256 110.89646929814241 0 -1 0 0.62932039886446345 0 -0.77714595512881146 forward_v I I I I #
coedge $-1 $129 $130 $131 $132 reversed $51 $-1 #
face $-1 $-1 $133 $27 $-1 $134 forward single #
loop $-1 $135 $136 $53 #
cone-surface $-1 -61.845304271783021 -17.102187374626745 3.879163542973135 0.62932039886446345 0 -0.77714595512881146 0.58285946634660857 0 0.47199029914834756 1 I I -0.70710678118654757 0.70710678118654757 0.75 forward I I I I #
loop $-1 $-1 $137 $34 #
coedge $-1 $85 $85 $138 $139 reversed $54 $-1 #
face $-1 $140 $141 $21 $-1 $142 reversed single #
loop $-1 $-1 $143 $56 #
plane-surface $-1 0 -35.928891144582224 0 0 1 0 0 0 1 forward_v I I I I #
coedge $-1 $144 $145 $146 $147 forward $57 $-1 #
coedge $-1 $148 $59 $149 $150 forward $36 $-1 #
coedge $-1 $59 $148 $151 $152 forward $36 $-1 #
coedge $-1 $153 $154 $59 $93 reversed $155 $-1 #
edge $-1 $156 -35.928891144582224 $157 35.928891144582224 $92 $158 forward 7 unknown #
face $-1 $159 $160 $22 $-1 $161 reversed single #
loop $-1 $-1 $162 $60 #
plane-surface $-1 -70.884731589709162 0 0 1 0 0 0 0 -1 forward_v I I I I #
coedge $-1 $163 $164 $165 $166 reversed $61 $-1 #
coedge $-1 $167 $63 $168 $169 reversed $39 $-1 #
coedge $-1 $63 $167 $170 $171 forward $39 $-1 #
coedge $-1 $172 $173 $63 $101 forward $174 $-1 #
edge $-1 $175 -21.670440843166435 $176 -6.8464597596651409 $100 $177 forward 7 unknown #
face $-1 $178 $179 $23 $-1 $180 reversed single #
loop $-1 $-1 $181 $64 #
plane-surface $-1 0 20.380271738523 -1.4743823707163664 0 1 0 0 0 1 forward_v I I I I #
coedge $-1 $182 $183 $184 $185 reversed $65 $-1 #
coedge $-1 $186 $67 $187 $188 reversed $42 $-1 #
coedge $-1 $67 $186 $189 $190 forward $42 $-1 #
coedge $-1 $191 $192 $67 $109 forward $179 $-1 #
edge $-1 $193 -21.851600423805912 $194 -6.3029810177466956 $108 $195 forward 7 unknown #
face $-1 $196 $197 $24 $-1 $198 forward single #
loop $-1 $-1 $116 $68 #
plane-surface $-1 0 0 12.064418793191164 0 0 1 1 0 0 forward_v I I I I #
coedge $-1 $199 $200 $201 $202 reversed $69 $-1 #
coedge $-1 $115 $71 $203 $204 reversed $45 $-1 #
coedge $-1 $71 $114 $199 $205 reversed $45 $-1 #
coedge $-1 $201 $206 $71 $117 forward $111 $-1 #
edge $-1 $207 -45.920940672752344 $208 -31.912867325425687 $116 $209 forward 7 unknown #
loop $-1 $-1 $123 $72 #
plane-surface $-1 -39.290833280958765 -17.102187374626745 89.939319542346908 0.62932039886446345 0 0.77714595512881146 0.77714595512881146 0 -0.62932039886446345 forward_v I I I I #
loop $-1 $-1 $210 $47 #
coedge $-1 $121 $121 $122 $211 reversed $73 $-1 #
coedge $-1 $122 $122 $121 $211 forward $75 $-1 #
coedge $-1 $123 $123 $76 $124 forward $118 $-1 #
edge $-1 $212 0 $212 6.2831853071796004 $123 $213 forward 7 unknown #
face $-1 $214 $215 $26 $-1 $216 reversed single #
loop $-1 $-1 $131 $77 #
plane-surface $-1 0 0 12.064418793191164 0 0 1 1 0 0 forward_v I I I I #
coedge $-1 $217 $218 $219 $220 reversed $78 $-1 #
coedge $-1 $221 $80 $222 $223 reversed $51 $-1 #
coedge $-1 $80 $221 $217 $224 forward $51 $-1 #
coedge $-1 $219 $225 $80 $132 forward $126 $-1 #
edge $-1 $226 -12.553816373767557 $227 -4.5483710008591878 $131 $228 forward 7 unknown #
loop $-1 $-1 $138 $81 #
plane-surface $-1 -70.884731589709148 -17.102187374626745 0.7209044274744798 -0.62932039886446345 0 0.77714595512881146 0.77714595512881146 0 0.62932039886446345 forward_v I I I I #
loop $-1 $-1 $229 $53 #
coedge $-1 $136 $136 $137 $230 reversed $82 $-1 #
coedge $-1 $137 $137 $136 $230 forward $84 $-1 #
coedge $-1 $138 $138 $85 $139 forward $133 $-1 #
edge $-1 $231 0 $231 6.2831853071796004 $138 $232 forward 7 unknown #
face $-1 $233 $234 $21 $-1 $235 reversed single #
loop $-1 $-1 $236 $86 #
plane-surface $-1 -70.884731589709162 0 0 1 0 0 0 0 -1 forward_v I I I I #
coedge $-1 $237 $151 $238 $239 forward $87 $-1 #
coedge $-1 $240 $89 $237 $241 forward $57 $-1 #
coedge $-1 $89 $240 $242 $243 forward $57 $-1 #
coedge $-1 $154 $153 $89 $147 reversed $155 $-1 #
edge $-1 $244 -35.928891144582224 $245 35.928891144582224 $146 $246 forward 7 unknown #
coedge $-1 $91 $90 $247 $248 forward $36 $-1 #
coedge $-1 $249 $250 $90 $150 reversed $234 $-1 #
edge $-1 $157 -70.884731589709162 $251 70.884731589709162 $149 $252 forward 7 unknown #
coedge $-1 $143 $253 $91 $152 reversed $87 $-1 #
edge $-1 $254 -70.884731589709162 $156 70.884731589709162 $151 $255 forward 7 unknown #
coedge $-1 $146 $92 $253 $256 forward $155 $-1 #
coedge $-1 $92 $146 $249 $257 reversed $155 $-1 #
loop $-1 $-1 $153 $233 #
vertex $-1 $93 $258 #
vertex $-1 $93 $259 #
straight-curve $-1 70.884731589709162 0 12.064418793191164 0 1 0 I I #
face $-1 $260 $261 $22 $-1 $262 forward single #
loop $-1 $-1 $168 $94 #
plane-surface $-1 0 -35.928891144582224 0 0 1 0 0 0 1 forward_v I I I I #
coedge $-1 $263 $264 $164 $265 forward $95 $-1 #
coedge $-1 $170 $97 $172 $266 reversed $61 $-1 #
coedge $-1 $97 $170 $162 $265 reversed $61 $-1 #
coedge $-1 $267 $268 $97 $166 forward $261 $-1 #
edge $-1 $269 -70.884731589709162 $270 70.884731589709162 $165 $271 forward 7 unknown #
coedge $-1 $99 $98 $263 $272 reversed $39 $-1 #
coedge $-1 $273 $274 $98 $169 forward $160 $-1 #
edge $-1 $275 -70.884731589709162 $175 70.884731589709162 $168 $276 forward 7 unknown #
coedge $-1 $164 $163 $99 $171 reversed $61 $-1 #
edge $-1 $277 -70.884731589709162 $176 70.884731589709162 $170 $278 forward 7 unknown #
coedge $-1 $279 $100 $163 $266 forward $174 $-1 #
coedge $-1 $100 $279 $273 $280 forward $174 $-1 #
loop $-1 $-1 $172 $260 #
vertex $-1 $169 $281 #
vertex $-1 $101 $282 #
straight-curve $-1 70.884731589709162 -14.258450301415788 6.0045584718429783 0 1 0 I I #
face $-1 $283 $284 $23 $-1 $285 reversed single #
loop $-1 $-1 $108 $102 #
plane-surface $-1 70.884731589709162 0 0 -1 0 0 0 0 1 forward_v I I I I #
coedge $-1 $286 $189 $287 $288 reversed $103 $-1 #
coedge $-1 $289 $105 $286 $290 forward $65 $-1 #
coedge $-1 $105 $289 $291 $292 reversed $65 $-1 #
coedge $-1 $192 $191 $105 $185 forward $179 $-1 #
edge $-1 $293 6.3029810177466956 $294 21.851600423805912 $184 $295 forward 7 unknown #
coedge $-1 $107 $106 $296 $297 reversed $42 $-1 #
coedge $-1 $298 $299 $106 $188 forward $300 $-1 #
edge $-1 $301 -70.884731589709162 $193 70.884731589709162 $187 $302 forward 7 unknown #
coedge $-1 $181 $303 $107 $190 reversed $103 $-1 #
edge $-1 $304 -70.884731589709162 $194 70.884731589709162 $189 $305 forward 7 unknown #
coedge $-1 $184 $108 $303 $306 forward $179 $-1 #
coedge $-1 $108 $184 $298 $307 reversed $179 $-1 #
vertex $-1 $307 $308 #
vertex $-1 $109 $309 #
straight-curve $-1 70.884731589709162 14.077290720776304 0.025617629283633647 0 -1 0 I I #
face $-1 $-1 $310 $24 $-1 $311 reversed single #
loop $-1 $-1 $312 $110 #
plane-surface $-1 0 -21.104910061080929 9.034488632517073 0 -1 0 0 0 -1 forward_v I I I I #
coedge $-1 $313 $113 $115 $205 forward $69 $-1 #
coedge $-1 $113 $313 $312 $314 forward $69 $-1 #
coedge $-1 $315 $116 $113 $202 forward $111 $-1 #
edge $-1 $208 4.5483710008591878 $316 12.553816373767557 $201 $317 forward 7 unknown #
coedge $-1 $318 $319 $114 $204 forward $310 $-1 #
edge $-1 $320 -99.336537779032909 $207 -87.993023413316251 $203 $321 forward 7 unknown #
edge $-1 $208 123.74444065323813 $320 141.76946317941832 $115 $322 forward 7 unknown #
coedge $-1 $116 $315 $318 $323 forward $111 $-1 #
vertex $-1 $117 $324 #
vertex $-1 $117 $325 #
straight-curve $-1 24.963790916956818 -13.09946468817256 12.064418793191166 -1 0 0 I I #
coedge $-1 $210 $210 $-1 $326 reversed $120 $-1 #
edge $-1 $327 0 $327 6.2831853071796004 $121 $328 forward 7 unknown #
vertex $-1 $124 $329 #
ellipse-curve $-1 63.880694916045819 -17.102187374626745 6.3926616103328247 0.62932039886446345 0 0.77714595512881146 1.1657189326932171 0 -0.94398059829669512 1 I I #
face $-1 $-1 $330 $26 $-1 $331 forward single #
loop $-1 $-1 $332 $125 #
plane-surface $-1 -70.884731589709162 0 0 1 0 0 0 0 -1 forward_v I I I I #
coedge $-1 $218 $128 $130 $224 reversed $78 $-1 #
coedge $-1 $128 $217 $332 $333 reversed $78 $-1 #
coedge $-1 $334 $131 $128 $220 forward $126 $-1 #
edge $-1 $227 -23.174915109908312 $335 -9.1668417625816119 $219 $336 forward 7 unknown #
coedge $-1 $130 $129 $337 $338 reversed $51 $-1 #
coedge $-1 $339 $340 $129 $223 forward $330 $-1 #
edge $-1 $341 -30.159845281622346 $226 -12.134822755442086 $222 $342 forward 7 unknown #
edge $-1 $343 -1.8310242626372826e-014 $227 18.025022526180241 $217 $344 forward 7 unknown #
coedge $-1 $131 $334 $339 $345 forward $126 $-1 #
vertex $-1 $223 $346 #
vertex $-1 $132 $347 #
straight-curve $-1 -56.876658242382469 -8.5510936873133723 12.064418793191164 0 1 0 I I #
coedge $-1 $229 $229 $-1 $348 reversed $135 $-1 #
edge $-1 $349 0 $349 6.2831853071796004 $136 $350 forward 7 unknown #
vertex $-1 $139 $351 #
ellipse-curve $-1 -63.880694916045812 -17.102187374626745 6.3926616103328193 -0.62932039886446345 0 0.77714595512881146 1.1657189326932171 0 0.94398059829669512 1 I I #
face $-1 $-1 $155 $21 $-1 $352 reversed single #
loop $-1 $-1 $249 $140 #
plane-surface $-1 0 35.928891144582224 0 0 -1 0 0 0 -1 forward_v I I I I #
coedge $-1 $353 $247 $250 $354 forward $141 $-1 #
coedge $-1 $253 $143 $144 $241 reversed $87 $-1 #
coedge $-1 $247 $353 $143 $239 reversed $141 $-1 #
edge $-1 $254 -12.064418793191164 $355 12.064418793191164 $238 $356 forward 7 unknown #
coedge $-1 $145 $144 $353 $357 forward $57 $-1 #
edge $-1 $245 -70.884731589709162 $355 70.884731589709162 $237 $358 forward 7 unknown #
coedge $-1 $250 $249 $145 $243 reversed $234 $-1 #
edge $-1 $359 -70.884731589709162 $244 70.884731589709162 $242 $360 forward 7 unknown #
vertex $-1 $147 $361 #
vertex $-1 $256 $362 #
straight-curve $-1 70.884731589709162 0 -12.064418793191164 0 -1 0 I I #
coedge $-1 $236 $238 $148 $248 reversed $141 $-1 #
edge $-1 $251 -35.928891144582224 $254 35.928891144582224 $247 $363 forward 7 unknown #
coedge $-1 $242 $149 $154 $257 forward $234 $-1 #
coedge $-1 $149 $242 $236 $354 reversed $234 $-1 #
vertex $-1 $150 $364 #
straight-curve $-1 0 35.928891144582224 12.064418793191164 -1 0 0 I I #
coedge $-1 $151 $237 $153 $256 reversed $87 $-1 #
vertex $-1 $248 $365 #
straight-curve $-1 0 -35.928891144582224 12.064418793191164 1 0 0 I I #
edge $-1 $156 -12.064418793191164 $245 12.064418793191164 $153 $366 forward 7 unknown #
edge $-1 $157 -12.064418793191164 $244 12.064418793191164 $154 $367 forward 7 unknown #
point $-1 70.884731589709162 -35.928891144582224 12.064418793191164 #
point $-1 70.884731589709162 35.928891144582224 12.064418793191164 #
face $-1 $-1 $174 $22 $-1 $368 reversed single #
loop $-1 $-1 $165 $159 #
plane-surface $-1 0 0 12.064418793191164 0 0 1 1 0 0 forward_v I I I I #
coedge $-1 $369 $162 $167 $272 forward $95 $-1 #
coedge $-1 $162 $369 $267 $370 reversed $95 $-1 #
edge $-1 $270 -7.5471744769326312 $277 -1.4873141555844418 $162 $371 forward 7 unknown #
edge $-1 $176 1.4873141555844418 $269 7.5471744769326312 $172 $372 forward 7 unknown #
coedge $-1 $373 $165 $264 $370 forward $261 $-1 #
coedge $-1 $165 $373 $279 $374 forward $261 $-1 #
vertex $-1 $266 $375 #
vertex $-1 $370 $376 #
straight-curve $-1 0 -21.104910061080929 12.064418793191164 -1 0 0 I I #
edge $-1 $277 6.8464597596651409 $275 21.670440843166435 $263 $377 forward 7 unknown #
coedge $-1 $378 $168 $173 $280 reversed $160 $-1 #
coedge $-1 $168 $378 $369 $379 forward $160 $-1 #
vertex $-1 $169 $380 #
straight-curve $-1 0 -35.928891144582224 6.0045584718429783 1 0 0 I I #
vertex $-1 $272 $381 #
straight-curve $-1 0 -21.104910061080929 6.0045584718429783 1 0 0 I I #
coedge $-1 $173 $172 $268 $374 reversed $174 $-1 #
edge $-1 $382 -12.064418793191164 $175 -6.0045584718429783 $173 $383 forward 7 unknown #
point $-1 70.884731589709162 -35.928891144582224 6.0045584718429783 #
point $-1 70.884731589709162 -21.104910061080929 6.0045584718429783 #
face $-1 $-1 $300 $23 $-1 $384 reversed single #
loop $-1 $-1 $296 $178 #
plane-surface $-1 -70.884731589709162 0 0 1 0 0 0 0 -1 forward_v I I I I #
coedge $-1 $303 $181 $182 $290 reversed $103 $-1 #
coedge $-1 $296 $385 $181 $288 forward $284 $-1 #
edge $-1 $386 -2.2371911853581832 $304 0.76280881464181682 $287 $387 forward 7 unknown #
coedge $-1 $183 $182 $385 $388 reversed $65 $-1 #
edge $-1 $293 -70.884731589709162 $386 70.884731589709162 $286 $389 forward 7 unknown #
coedge $-1 $299 $298 $183 $292 forward $300 $-1 #
edge $-1 $294 -70.884731589709162 $390 70.884731589709162 $291 $391 forward 7 unknown #
vertex $-1 $185 $392 #
vertex $-1 $292 $393 #
straight-curve $-1 70.884731589709162 14.077290720776304 -2.9743823707163664 0 1 0 I I #
coedge $-1 $394 $287 $186 $297 forward $284 $-1 #
edge $-1 $304 6.3029810177466956 $301 21.851600423805912 $296 $395 forward 7 unknown #
coedge $-1 $291 $187 $192 $307 forward $300 $-1 #
coedge $-1 $187 $291 $394 $396 reversed $300 $-1 #
loop $-1 $-1 $187 $283 #
vertex $-1 $396 $397 #
straight-curve $-1 0 35.928891144582224 0.025617629283633647 1 0 0 I I #
coedge $-1 $189 $286 $191 $306 reversed $103 $-1 #
vertex $-1 $297 $398 #
straight-curve $-1 0 20.380271738523 0.025617629283633647 1 0 0 I I #
edge $-1 $194 -0.76280881464181682 $293 2.2371911853581832 $191 $399 forward 7 unknown #
edge $-1 $193 -0.025617629283633647 $294 2.9743823707163664 $192 $400 forward 7 unknown #
point $-1 70.884731589709162 35.928891144582217 0.025617629283633647 #
point $-1 70.884731589709162 20.380271738523 0.025617629283633647 #
loop $-1 $-1 $203 $196 #
plane-surface $-1 70.884731589709162 0 0 -1 0 0 0 0 1 forward_v I I I I #
coedge $-1 $401 $402 $200 $314 reversed $197 $-1 #
coedge $-1 $200 $199 $319 $403 reversed $69 $-1 #
edge $-1 $404 -141.76946317941832 $316 -123.74444065323812 $312 $405 forward 7 unknown #
coedge $-1 $206 $201 $402 $406 forward $111 $-1 #
vertex $-1 $406 $407 #
straight-curve $-1 56.876658242382497 -8.5510936873133723 12.064418793191166 0 -1 0 I I #
coedge $-1 $408 $203 $206 $323 reversed $310 $-1 #
coedge $-1 $203 $408 $313 $403 forward $310 $-1 #
vertex $-1 $204 $409 #
straight-curve $-1 70.884731589709162 -13.09946468817256 100.05744220650742 0 0 1 I I #
straight-curve $-1 -39.290833280958765 -13.09946468817256 89.939319542346908 0.77714595512881146 0 -0.62932039886446345 I I #
edge $-1 $410 -21.104910061080929 $207 -13.09946468817256 $318 $411 forward 7 unknown #
point $-1 70.884731589709162 -13.09946468817256 12.064418793191164 #
point $-1 56.876658242382504 -13.09946468817256 12.064418793191166 #
edge $-1 $412 1 $412 0 $210 $-1 forward 7 unknown #
vertex $-1 $211 $413 #
ellipse-curve $-1 62.317294570931367 -17.102187374626745 4.4620230093197417 0.62932039886446345 0 0.77714595512881146 1.1657189326932171 0 -0.94398059829669512 1 I I #
point $-1 65.046413848739036 -17.102187374626745 5.4486810120361246 #
loop $-1 $-1 $222 $214 #
plane-surface $-1 0 -21.104910061080929 9.034488632517073 0 -1 0 0 0 -1 forward_v I I I I #
coedge $-1 $337 $414 $218 $333 forward $215 $-1 #
edge $-1 $335 43.383815855880037 $343 54.727330221596738 $332 $415 forward 7 unknown #
coedge $-1 $225 $219 $414 $416 forward $126 $-1 #
vertex $-1 $416 $417 #
straight-curve $-1 -80.051573352290774 -13.09946468817256 12.064418793191166 -1 0 0 I I #
coedge $-1 $418 $332 $221 $338 forward $215 $-1 #
edge $-1 $343 4.5483710008591878 $341 12.553816373767557 $337 $419 forward 7 unknown #
coedge $-1 $340 $222 $225 $345 reversed $330 $-1 #
coedge $-1 $222 $339 $418 $420 reversed $330 $-1 #
vertex $-1 $420 $421 #
straight-curve $-1 -47.44612982178559 -21.104910061080929 19.701110289795551 0.77714595512881146 0 0.62932039886446345 I I #
vertex $-1 $338 $422 #
straight-curve $-1 -70.884731589709148 -13.09946468817256 0.7209044274744798 0.77714595512881146 0 0.62932039886446345 I I #
edge $-1 $423 -70.884731589709162 $226 -56.876658242382462 $225 $424 forward 7 unknown #
point $-1 -56.876658242382462 -21.104910061080929 12.064418793191166 #
point $-1 -56.876658242382462 -13.09946468817256 12.064418793191166 #
edge $-1 $425 1 $425 0 $229 $-1 forward 7 unknown #
vertex $-1 $230 $426 #
ellipse-curve $-1 -62.317294570931367 -17.102187374626745 4.4620230093197435 -0.62932039886446345 0 0.77714595512881146 1.1657189326932171 0 0.94398059829669512 1 I I #
point $-1 -62.714975983352595 -17.102187374626745 7.3366422086295167 #
plane-surface $-1 70.884731589709162 0 0 -1 0 0 0 0 1 forward_v I I I I #
coedge $-1 $238 $236 $240 $357 reversed $141 $-1 #
edge $-1 $251 -12.064418793191164 $359 12.064418793191164 $250 $427 forward 7 unknown #
vertex $-1 $357 $428 #
straight-curve $-1 -70.884731589709162 -35.928891144582224 0 0 0 -1 I I #
edge $-1 $355 -35.928891144582224 $359 35.928891144582224 $353 $429 forward 7 unknown #
straight-curve $-1 0 -35.928891144582224 -12.064418793191164 -1 0 0 I I #
vertex $-1 $243 $430 #
straight-curve $-1 0 35.928891144582224 -12.064418793191164 1 0 0 I I #
point $-1 70.884731589709162 35.928891144582224 -12.064418793191164 #
point $-1 70.884731589709162 -35.928891144582224 -12.064418793191164 #
straight-curve $-1 -70.884731589709162 0 12.064418793191164 0 -1 0 I I #
point $-1 -70.884731589709162 35.928891144582224 12.064418793191164 #
point $-1 -70.884731589709162 -35.928891144582224 12.064418793191164 #
straight-curve $-1 70.884731589709162 -35.928891144582224 0 0 0 -1 I I #
straight-curve $-1 70.884731589709162 35.928891144582224 0 0 0 -1 I I #
plane-surface $-1 70.884731589709162 0 0 -1 0 0 0 0 1 forward_v I I I I #
coedge $-1 $264 $263 $274 $379 reversed $95 $-1 #
edge $-1 $270 21.104910061080929 $431 35.928891144582224 $264 $432 forward 7 unknown #
straight-curve $-1 -70.884731589709162 -21.104910061080929 4.5172443162585365 0 0 -1 I I #
straight-curve $-1 70.884731589709162 -21.104910061080929 4.5172443162585365 0 0 1 I I #
coedge $-1 $268 $267 $378 $433 forward $261 $-1 #
edge $-1 $382 -35.928891144582224 $269 -21.104910061080929 $279 $434 forward 7 unknown #
point $-1 70.884731589709162 -21.104910061080929 12.064418793191168 #
point $-1 -70.884731589709162 -21.104910061080929 12.064418793191168 #
straight-curve $-1 -70.884731589709162 -14.258450301415788 6.0045584718429783 0 -1 0 I I #
coedge $-1 $274 $273 $373 $433 reversed $160 $-1 #
edge $-1 $431 -12.064418793191164 $275 -6.0045584718429783 $369 $435 forward 7 unknown #
point $-1 -70.884731589709162 -35.928891144582224 6.0045584718429783 #
point $-1 -70.884731589709162 -21.104910061080929 6.0045584718429783 #
vertex $-1 $374 $436 #
straight-curve $-1 70.884731589709162 -35.928891144582224 0 0 0 -1 I I #
plane-surface $-1 0 35.928891144582224 0 0 -1 0 0 0 -1 forward_v I I I I #
coedge $-1 $287 $394 $289 $388 forward $284 $-1 #
vertex $-1 $388 $437 #
straight-curve $-1 -70.884731589709162 20.380271738523 -0.73719118535818318 0 0 1 I I #
edge $-1 $390 -21.851600423805912 $386 -6.3029810177466956 $385 $438 forward 7 unknown #
straight-curve $-1 0 20.380271738523 -2.9743823707163664 -1 0 0 I I #
vertex $-1 $292 $439 #
straight-curve $-1 0 35.928891144582224 -2.9743823707163664 -1 0 0 I I #
point $-1 70.884731589709162 20.380271738523 -2.9743823707163664 #
point $-1 70.884731589709162 35.928891144582217 -2.9743823707163664 #
coedge $-1 $385 $296 $299 $396 forward $284 $-1 #
straight-curve $-1 -70.884731589709162 14.077290720776304 0.025617629283633647 0 1 0 I I #
edge $-1 $301 -0.025617629283633647 $390 2.9743823707163664 $299 $440 forward 7 unknown #
point $-1 -70.884731589709162 35.928891144582217 0.025617629283633647 #
point $-1 -70.884731589709162 20.380271738523 0.025617629283633647 #
straight-curve $-1 70.884731589709162 20.380271738523 -0.73719118535818318 0 0 -1 I I #
straight-curve $-1 70.884731589709162 35.928891144582224 0 0 0 -1 I I #
coedge $-1 $402 $312 $408 $441 reversed $197 $-1 #
coedge $-1 $312 $401 $315 $406 reversed $197 $-1 #
edge $-1 $404 -12.553816373767557 $320 -4.5483710008591878 $319 $442 forward 7 unknown #
vertex $-1 $441 $443 #
straight-curve $-1 -39.290833280958765 -21.104910061080929 89.939319542346908 -0.77714595512881146 0 0.62932039886446345 I I #
edge $-1 $316 56.876658242382497 $410 70.884731589709162 $315 $444 forward 7 unknown #
point $-1 56.876658242382497 -21.104910061080929 12.064418793191164 #
coedge $-1 $319 $318 $401 $441 forward $310 $-1 #
point $-1 70.884731589709162 -13.09946468817256 0.72090442747450822 #
vertex $-1 $323 $445 #
straight-curve $-1 70.884731589709162 0 12.064418793191164 0 1 0 I I #
vertex $-1 $326 $446 #
point $-1 63.483013503624584 -17.102187374626745 3.5180424110230466 #
coedge $-1 $332 $418 $334 $416 reversed $215 $-1 #
straight-curve $-1 -70.884731589709162 -13.09946468817256 55.448234649071203 0 0 -1 I I #
edge $-1 $335 13.09946468817256 $423 21.104910061080929 $414 $447 forward 7 unknown #
point $-1 -70.884731589709162 -13.09946468817256 12.064418793191164 #
coedge $-1 $414 $337 $340 $420 forward $215 $-1 #
straight-curve $-1 -70.884731589709162 -8.5510936873133723 0.72090442747447758 0 -1 0 I I #
edge $-1 $341 -54.727330221596738 $423 -43.383815855880037 $418 $448 forward 7 unknown #
point $-1 -70.884731589709162 -21.104910061080929 0.72090442747446826 #
point $-1 -70.884731589709162 -13.09946468817256 0.72090442747446826 #
vertex $-1 $420 $449 #
straight-curve $-1 0 -21.104910061080929 12.064418793191164 1 0 0 I I #
vertex $-1 $348 $450 #
point $-1 -61.15157563823815 -17.102187374626745 5.4060036076164391 #
straight-curve $-1 -70.884731589709162 35.928891144582224 0 0 0 -1 I I #
point $-1 -70.884731589709162 -35.928891144582224 -12.064418793191164 #
straight-curve $-1 -70.884731589709162 0 -12.064418793191164 0 1 0 I I #
point $-1 -70.884731589709162 35.928891144582224 -12.064418793191164 #
vertex $-1 $370 $451 #
straight-curve $-1 -70.884731589709162 0 12.064418793191164 0 -1 0 I I #
edge $-1 $431 -70.884731589709162 $382 70.884731589709162 $378 $452 forward 7 unknown #
straight-curve $-1 70.884731589709162 0 12.064418793191164 0 1 0 I I #
straight-curve $-1 -70.884731589709162 -35.928891144582224 0 0 0 -1 I I #
point $-1 70.884731589709162 -35.928891144582224 12.064418793191164 #
point $-1 -70.884731589709162 20.380271738523 -2.9743823707163664 #
straight-curve $-1 -70.884731589709162 14.077290720776304 -2.9743823707163664 0 -1 0 I I #
point $-1 -70.884731589709162 35.928891144582217 -2.9743823707163664 #
straight-curve $-1 -70.884731589709162 35.928891144582224 0 0 0 -1 I I #
edge $-1 $410 87.993023413316251 $404 99.336537779032909 $408 $453 forward 7 unknown #
straight-curve $-1 70.884731589709148 -8.5510936873133723 0.72090442747450822 0 1 0 I I #
point $-1 70.884731589709162 -21.104910061080929 0.72090442747450822 #
straight-curve $-1 0 -21.104910061080929 12.064418793191164 1 0 0 I I #
point $-1 70.884731589709162 -21.104910061080929 12.064418793191168 #
point $-1 61.373313972634676 -17.102187374626745 3.2963040766265248 #
straight-curve $-1 -70.884731589709162 0 12.064418793191164 0 -1 0 I I #
straight-curve $-1 -70.884731589709162 -21.104910061080929 55.448234649071203 0 0 1 I I #
point $-1 -70.884731589709162 -21.104910061080929 12.064418793191168 #
point $-1 -61.373313972634676 -17.102187374626745 3.2963040766265266 #
point $-1 -70.884731589709162 -35.928891144582224 12.064418793191164 #
straight-curve $-1 0 -35.928891144582224 12.064418793191164 1 0 0 I I #
straight-curve $-1 70.884731589709162 -21.104910061080929 100.05744220650742 0 0 -1 I I #
End-of-ACIS-data 