500 0 9 0           
7 Unknown 11 ACIS 5.0 NT 24 Fri Mar 26 15:52:56 1999 
-1 9.9999999999999995e-007 1e-010 
body $-1 $9 $-1 $10 #
body $-1 $11 $-1 $12 #
body $-1 $13 $-1 $14 #
body $-1 $15 $-1 $16 #
body $-1 $17 $-1 $18 #
body $-1 $19 $-1 $20 #
body $-1 $21 $-1 $22 #
body $-1 $23 $-1 $24 #
body $-1 $25 $-1 $26 #
lump $-1 $-1 $27 $0 #
transform $-1 1 0 0 0 1 0 0 0 1 60.916165654469438 27.156187572286047 11.568169591059307 1 rotate no_reflect no_shear #
lump $-1 $-1 $28 $1 #
transform $-1 1 0 0 0 1 0 0 0 1 60.916165654469438 27.156187572286047 11.568169591059307 1 rotate no_reflect no_shear #
lump $-1 $-1 $29 $2 #
transform $-1 1 0 0 0 1 0 0 0 1 60.916165654469438 27.156187572286047 11.568169591059307 1 rotate no_reflect no_shear #
lump $-1 $-1 $30 $3 #
transform $-1 1 0 0 0 1 0 0 0 1 60.916165654469438 27.156187572286047 11.568169591059307 1 rotate no_reflect no_shear #
lump $-1 $-1 $31 $4 #
transform $-1 1 0 0 0 1 0 0 0 1 60.916165654469438 27.156187572286047 11.568169591059307 1 rotate no_reflect no_shear #
lump $-1 $-1 $32 $5 #
transform $-1 1 0 0 0 1 0 0 0 1 60.916165654469438 27.156187572286047 11.568169591059307 1 rotate no_reflect no_shear #
lump $-1 $-1 $33 $6 #
transform $-1 1 0 0 0 1 0 0 0 1 60.916165654469438 27.156187572286047 11.568169591059307 1 rotate no_reflect no_shear #
lump $-1 $-1 $34 $7 #
transform $-1 1 0 0 0 1 0 0 0 1 60.916165654469438 27.156187572286047 11.568169591059307 1 rotate no_reflect no_shear #
lump $-1 $-1 $35 $8 #
transform $-1 1 0 0 0 1 0 0 0 1 60.916165654469438 27.156187572286047 11.568169591059307 1 rotate no_reflect no_shear #
shell $-1 $-1 $-1 $36 $-1 $9 #
shell $-1 $-1 $-1 $37 $-1 $11 #
shell $-1 $-1 $-1 $38 $-1 $13 #
shell $-1 $-1 $-1 $39 $-1 $15 #
shell $-1 $-1 $-1 $40 $-1 $17 #
shell $-1 $-1 $-1 $41 $-1 $19 #
shell $-1 $-1 $-1 $42 $-1 $21 #
shell $-1 $-1 $-1 $43 $-1 $23 #
shell $-1 $-1 $-1 $44 $-1 $25 #
face $-1 $45 $46 $27 $-1 $47 forward single #
face $-1 $48 $49 $28 $-1 $50 forward single #
face $-1 $51 $52 $29 $-1 $53 forward single #
face $-1 $54 $55 $30 $-1 $56 reversed single #
face $-1 $57 $58 $31 $-1 $59 forward single #
face $-1 $60 $61 $32 $-1 $62 reversed single #
face $-1 $63 $64 $33 $-1 $65 forward single #
face $-1 $66 $67 $34 $-1 $68 forward single #
face $-1 $69 $70 $35 $-1 $71 forward single #
face $-1 $72 $73 $27 $-1 $74 reversed single #
loop $-1 $-1 $75 $36 #
plane-surface $-1 0 0 11.568169591059307 0 0 1 1 0 0 forward_v I I I I #
face $-1 $76 $77 $28 $-1 $78 reversed single #
loop $-1 $-1 $79 $37 #
plane-surface $-1 -60.916165654469438 0 0 1 0 0 0 0 -1 forward_v I I I I #
face $-1 $80 $81 $29 $-1 $82 reversed single #
loop $-1 $-1 $83 $38 #
plane-surface $-1 60.916165654469438 0 0 -1 0 0 0 0 1 forward_v I I I I #
face $-1 $84 $85 $30 $-1 $86 reversed single #
loop $-1 $-1 $87 $39 #
plane-surface $-1 -20.797692614451378 -113.30465620814491 89.156883371451045 -1 0 0 0 -0.70710678939079041 0.70710677298230451 forward_v I I I I #
face $-1 $88 $89 $31 $-1 $90 forward single #
loop $-1 $91 $92 $40 #
cone-surface $-1 -36.283786365330158 -21.430979527773722 5.8429614807710806 0 0.70710678939079041 -0.70710677298230451 2 0 0 1 I I 0 1 2 forward I I I I #
face $-1 $93 $94 $32 $-1 $95 reversed single #
loop $-1 $-1 $96 $41 #
plane-surface $-1 -51.769880116208938 70.52408252039946 129.61289644268683 1 0 0 0 -0.68199836817093118 -0.7313536940579346 forward_v I I I I #
face $-1 $97 $98 $33 $-1 $99 forward single #
loop $-1 $100 $101 $42 #
cone-surface $-1 -49.403193827599168 22.47276547874063 7.1531177805599935 0 -0.68199836817093118 -0.7313536940579346 0.5 0 0 1 I I 0 1 0.5 forward I I I I #
face $-1 $102 $103 $34 $-1 $104 forward single #
loop $-1 $105 $106 $43 #
cone-surface $-1 -45.853164394684512 22.47276547874063 7.1531177805599935 0 -0.68199836817093118 -0.7313536940579346 0.5 0 0 1 I I 0 1 0.5 forward I I I I #
face $-1 $107 $108 $35 $-1 $109 forward single #
loop $-1 $110 $111 $44 #
cone-surface $-1 -42.303134961769857 22.47276547874063 7.1531177805599935 0 -0.68199836817093118 -0.7313536940579346 0.5 0 0 1 I I 0 1 0.5 forward I I I I #
face $-1 $112 $113 $27 $-1 $114 reversed single #
loop $-1 $-1 $115 $45 #
plane-surface $-1 0 0 -11.568169591059307 0 0 1 1 0 0 forward_v I I I I #
coedge $-1 $116 $117 $118 $119 forward $46 $-1 #
face $-1 $120 $121 $28 $-1 $122 reversed single #
loop $-1 $-1 $123 $48 #
plane-surface $-1 0 0 -11.568169591059307 0 0 1 1 0 0 forward_v I I I I #
coedge $-1 $124 $125 $126 $127 forward $49 $-1 #
face $-1 $128 $129 $29 $-1 $130 reversed single #
loop $-1 $-1 $131 $51 #
plane-surface $-1 0 0 -11.568169591059307 0 0 1 1 0 0 forward_v I I I I #
coedge $-1 $132 $133 $134 $135 forward $52 $-1 #
face $-1 $136 $137 $30 $-1 $138 reversed single #
loop $-1 $-1 $139 $54 #
plane-surface $-1 -36.283786365330158 -27.156187572286058 3.0084167346762882 0 -0.70710678939079041 0.70710677298230451 1 0 0 forward_v I I I I #
coedge $-1 $140 $141 $142 $143 reversed $55 $-1 #
face $-1 $-1 $144 $31 $-1 $145 forward single #
loop $-1 $146 $147 $57 #
cone-surface $-1 -36.283786365330158 -19.278541022747152 3.6905230256920696 0 0.70710678939079041 -0.70710677298230451 1 0 0 1 I I -0.70710678118654746 0.70710678118654746 1 forward I I I I #
loop $-1 $-1 $148 $40 #
coedge $-1 $92 $92 $149 $150 reversed $58 $-1 #
face $-1 $151 $152 $32 $-1 $153 reversed single #
loop $-1 $-1 $154 $60 #
plane-surface $-1 -45.853164394684512 -12.565368622757106 40.510370884204221 0 0.68199836817093118 0.7313536940579346 1 0 0 forward_v I I I I #
coedge $-1 $155 $156 $157 $158 reversed $61 $-1 #
face $-1 $-1 $159 $33 $-1 $160 forward single #
loop $-1 $161 $162 $63 #
cone-surface $-1 -49.403193827599168 21.961266702612431 6.6046025100165426 0 -0.68199836817093118 -0.7313536940579346 0.25 0 0 1 I I -0.70710678118654746 0.70710678118654746 0.25 forward I I I I #
loop $-1 $-1 $163 $42 #
coedge $-1 $101 $101 $164 $165 reversed $64 $-1 #
face $-1 $-1 $166 $34 $-1 $167 forward single #
loop $-1 $168 $169 $66 #
cone-surface $-1 -45.853164394684512 21.961266702612431 6.6046025100165426 0 -0.68199836817093118 -0.7313536940579346 0.25 0 0 1 I I -0.70710678118654746 0.70710678118654746 0.25 forward I I I I #
loop $-1 $-1 $170 $43 #
coedge $-1 $106 $106 $171 $172 reversed $67 $-1 #
face $-1 $-1 $173 $35 $-1 $174 forward single #
loop $-1 $175 $176 $69 #
cone-surface $-1 -42.303134961769857 21.961266702612431 6.6046025100165426 0 -0.68199836817093118 -0.7313536940579346 0.25 0 0 1 I I -0.70710678118654746 0.70710678118654746 0.25 forward I I I I #
loop $-1 $-1 $177 $44 #
coedge $-1 $111 $111 $178 $179 reversed $70 $-1 #
face $-1 $180 $181 $27 $-1 $182 reversed single #
loop $-1 $-1 $183 $72 #
plane-surface $-1 0 -27.156187572286047 0 0 1 0 0 0 1 forward_v I I I I #
coedge $-1 $184 $185 $186 $187 forward $73 $-1 #
coedge $-1 $188 $75 $189 $190 forward $46 $-1 #
coedge $-1 $75 $188 $191 $192 forward $46 $-1 #
coedge $-1 $193 $194 $75 $119 reversed $195 $-1 #
edge $-1 $196 -27.156187572286047 $197 27.156187572286047 $118 $198 forward 7 unknown #
face $-1 $199 $200 $28 $-1 $201 reversed single #
loop $-1 $-1 $202 $76 #
plane-surface $-1 -65.489308423599681 -22.78772508493164 0 0 1 0 0 0 1 forward_v I I I I #
coedge $-1 $203 $204 $125 $205 forward $77 $-1 #
coedge $-1 $206 $79 $207 $208 reversed $49 $-1 #
coedge $-1 $79 $206 $123 $205 reversed $49 $-1 #
coedge $-1 $209 $210 $79 $127 reversed $211 $-1 #
edge $-1 $212 -11.568169591059307 $213 11.568169591059307 $126 $214 forward 7 unknown #
face $-1 $215 $216 $29 $-1 $217 reversed single #
loop $-1 $-1 $134 $80 #
plane-surface $-1 65.489308423599681 -22.78772508493164 0 0 1 0 0 0 1 forward_v I I I I #
coedge $-1 $218 $219 $133 $220 forward $81 $-1 #
coedge $-1 $221 $83 $222 $223 reversed $52 $-1 #
coedge $-1 $83 $221 $131 $220 reversed $52 $-1 #
coedge $-1 $224 $225 $83 $135 reversed $129 $-1 #
edge $-1 $226 -11.568169591059307 $227 11.568169591059307 $134 $228 forward 7 unknown #
face $-1 $229 $230 $30 $-1 $231 forward single #
loop $-1 $-1 $232 $84 #
plane-surface $-1 -51.769880116208938 -113.30465620814491 89.156883371451045 1 0 0 0 0.70710678939079041 -0.70710677298230451 forward_v I I I I #
coedge $-1 $233 $234 $235 $236 reversed $85 $-1 #
coedge $-1 $141 $87 $237 $238 reversed $55 $-1 #
coedge $-1 $87 $140 $233 $239 reversed $55 $-1 #
coedge $-1 $235 $240 $87 $143 forward $230 $-1 #
edge $-1 $241 29.496140531786406 $242 38.055893189539468 $142 $243 forward 7 unknown #
loop $-1 $-1 $149 $88 #
plane-surface $-1 -36.283786365330158 -27.156187572286058 3.0084167346762882 0 -0.70710678939079041 0.70710677298230451 1 0 0 forward_v I I I I #
loop $-1 $-1 $244 $57 #
coedge $-1 $147 $147 $148 $245 reversed $89 $-1 #
coedge $-1 $148 $148 $147 $245 forward $91 $-1 #
coedge $-1 $149 $149 $92 $150 forward $144 $-1 #
edge $-1 $246 9.4205534040388083e-016 $246 6.2831853071796013 $149 $247 forward 7 unknown #
face $-1 $248 $249 $32 $-1 $250 reversed single #
loop $-1 $-1 $251 $93 #
plane-surface $-1 -39.936448673160086 70.52408252039946 129.61289644268683 -1 0 0 0 0.68199836817093118 0.7313536940579346 forward_v I I I I #
coedge $-1 $252 $253 $254 $255 reversed $94 $-1 #
coedge $-1 $156 $96 $256 $257 reversed $61 $-1 #
coedge $-1 $96 $155 $252 $258 reversed $61 $-1 #
coedge $-1 $254 $259 $96 $158 forward $260 $-1 #
edge $-1 $261 8.1058536879136831 $262 16.79069950683359 $157 $263 forward 7 unknown #
loop $-1 $-1 $164 $97 #
plane-surface $-1 -45.853164394684512 -12.565368622757106 40.510370884204221 0 0.68199836817093118 0.7313536940579346 1 0 0 forward_v I I I I #
loop $-1 $-1 $264 $63 #
coedge $-1 $162 $162 $163 $265 reversed $98 $-1 #
coedge $-1 $163 $163 $162 $265 forward $100 $-1 #
coedge $-1 $164 $164 $101 $165 forward $159 $-1 #
edge $-1 $266 1.5621631485610709e-015 $266 6.2831853071796022 $164 $267 forward 7 unknown #
loop $-1 $-1 $171 $102 #
plane-surface $-1 -45.853164394684512 -12.565368622757106 40.510370884204221 0 0.68199836817093118 0.7313536940579346 1 0 0 forward_v I I I I #
loop $-1 $-1 $268 $66 #
coedge $-1 $169 $169 $170 $269 reversed $103 $-1 #
coedge $-1 $170 $170 $169 $269 forward $105 $-1 #
coedge $-1 $171 $171 $106 $172 forward $166 $-1 #
edge $-1 $270 1.5621631485610709e-015 $270 6.2831853071796022 $171 $271 forward 7 unknown #
loop $-1 $-1 $178 $107 #
plane-surface $-1 -45.853164394684512 -12.565368622757106 40.510370884204221 0 0.68199836817093118 0.7313536940579346 1 0 0 forward_v I I I I #
loop $-1 $-1 $272 $69 #
coedge $-1 $176 $176 $177 $273 reversed $108 $-1 #
coedge $-1 $177 $177 $176 $273 forward $110 $-1 #
coedge $-1 $178 $178 $111 $179 forward $173 $-1 #
edge $-1 $274 1.5621631485610709e-015 $274 6.2831853071796022 $178 $275 forward 7 unknown #
face $-1 $276 $277 $27 $-1 $278 reversed single #
loop $-1 $-1 $279 $112 #
plane-surface $-1 -60.916165654469438 0 0 1 0 0 0 0 -1 forward_v I I I I #
coedge $-1 $280 $191 $281 $282 forward $113 $-1 #
coedge $-1 $283 $115 $280 $284 forward $73 $-1 #
coedge $-1 $115 $283 $285 $286 forward $73 $-1 #
coedge $-1 $194 $193 $115 $187 reversed $195 $-1 #
edge $-1 $287 -27.156187572286047 $288 27.156187572286047 $186 $289 forward 7 unknown #
coedge $-1 $117 $116 $290 $291 forward $46 $-1 #
coedge $-1 $292 $293 $116 $190 reversed $277 $-1 #
edge $-1 $197 -60.916165654469438 $294 60.916165654469438 $189 $295 forward 7 unknown #
coedge $-1 $183 $296 $117 $192 reversed $113 $-1 #
edge $-1 $297 -60.916165654469438 $196 60.916165654469438 $191 $298 forward 7 unknown #
coedge $-1 $186 $118 $296 $299 forward $195 $-1 #
coedge $-1 $118 $186 $292 $300 reversed $195 $-1 #
loop $-1 $-1 $193 $276 #
vertex $-1 $119 $301 #
vertex $-1 $119 $302 #
straight-curve $-1 60.916165654469438 0 11.568169591059307 0 1 0 I I #
face $-1 $303 $211 $28 $-1 $304 reversed single #
loop $-1 $-1 $305 $120 #
plane-surface $-1 -70.062451192729924 -19.842532019362803 0 1 0 0 0 0 -1 forward_v I I I I #
coedge $-1 $306 $307 $308 $309 forward $121 $-1 #
coedge $-1 $310 $123 $306 $311 forward $77 $-1 #
coedge $-1 $123 $310 $209 $312 forward $77 $-1 #
edge $-1 $212 16.897338953793966 $313 22.78772508493164 $123 $314 forward 7 unknown #
coedge $-1 $125 $124 $315 $316 forward $49 $-1 #
coedge $-1 $317 $318 $124 $208 forward $319 $-1 #
edge $-1 $320 -22.78772508493164 $213 -16.897338953793966 $207 $321 forward 7 unknown #
coedge $-1 $322 $126 $204 $312 reversed $211 $-1 #
coedge $-1 $126 $322 $317 $323 reversed $211 $-1 #
loop $-1 $-1 $126 $199 #
vertex $-1 $205 $324 #
vertex $-1 $323 $325 #
straight-curve $-1 -60.916165654469438 -16.897338953793966 0 0 0 1 I I #
face $-1 $326 $327 $29 $-1 $328 reversed single #
loop $-1 $-1 $329 $128 #
plane-surface $-1 65.489308423599681 -16.897338953793966 0 0 -1 0 0 0 -1 forward_v I I I I #
coedge $-1 $330 $131 $331 $332 forward $81 $-1 #
coedge $-1 $131 $330 $224 $333 forward $81 $-1 #
edge $-1 $226 -22.78772508493164 $334 -16.897338953793966 $131 $335 forward 7 unknown #
coedge $-1 $133 $132 $336 $337 forward $52 $-1 #
coedge $-1 $338 $339 $132 $223 forward $340 $-1 #
edge $-1 $341 16.897338953793966 $227 22.78772508493164 $222 $342 forward 7 unknown #
coedge $-1 $343 $134 $219 $333 reversed $129 $-1 #
coedge $-1 $134 $343 $338 $344 reversed $129 $-1 #
vertex $-1 $220 $345 #
vertex $-1 $344 $346 #
straight-curve $-1 60.916165654469438 -22.78772508493164 0 0 0 1 I I #
face $-1 $-1 $347 $30 $-1 $348 reversed single #
loop $-1 $-1 $142 $136 #
plane-surface $-1 0 0 11.568169591059307 0 0 1 1 0 0 forward_v I I I I #
coedge $-1 $349 $350 $351 $352 reversed $137 $-1 #
coedge $-1 $353 $139 $141 $239 forward $85 $-1 #
coedge $-1 $139 $353 $349 $354 forward $85 $-1 #
coedge $-1 $351 $142 $139 $236 forward $230 $-1 #
edge $-1 $242 2.6557994317862992 $355 33.627986933543859 $235 $356 forward 7 unknown #
coedge $-1 $357 $358 $140 $238 forward $347 $-1 #
edge $-1 $359 -41.57002495104922 $241 -33.010272094666213 $237 $360 forward 7 unknown #
edge $-1 $242 -12.105318439606128 $359 -1.5072887603364246e-014 $141 $361 forward 7 unknown #
coedge $-1 $142 $351 $357 $362 forward $230 $-1 #
vertex $-1 $143 $363 #
vertex $-1 $143 $364 #
straight-curve $-1 -20.797692614451378 -56.652328104072453 11.568169591059309 0 1 0 I I #
coedge $-1 $244 $244 $-1 $365 reversed $146 $-1 #
edge $-1 $366 0 $366 6.2831853071796004 $147 $367 forward 7 unknown #
vertex $-1 $150 $368 #
ellipse-curve $-1 -36.283786365330158 -22.876311243409518 7.2882931628678032 0 -0.70710678939079041 0.70710677298230451 2 0 0 1 I I #
face $-1 $-1 $260 $32 $-1 $369 forward single #
loop $-1 $-1 $370 $151 #
plane-surface $-1 0 27.156187572286047 0 0 -1 0 0 0 -1 forward_v I I I I #
coedge $-1 $371 $372 $373 $374 reversed $152 $-1 #
coedge $-1 $375 $154 $156 $258 forward $94 $-1 #
coedge $-1 $154 $375 $371 $376 forward $94 $-1 #
coedge $-1 $373 $157 $154 $255 forward $260 $-1 #
edge $-1 $262 -28.843297918866682 $377 -17.00986647581783 $254 $378 forward 7 unknown #
coedge $-1 $379 $380 $155 $257 forward $249 $-1 #
edge $-1 $381 -61.337028557224805 $261 -53.238278630284107 $256 $382 forward 7 unknown #
edge $-1 $262 42.437346838183409 $381 54.312375144572087 $156 $383 forward 7 unknown #
coedge $-1 $157 $373 $379 $384 forward $260 $-1 #
loop $-1 $-1 $373 $248 #
vertex $-1 $257 $385 #
vertex $-1 $158 $386 #
straight-curve $-1 -51.769880116208938 35.26204126019973 11.568169591059309 0 -1 0 I I #
coedge $-1 $264 $264 $-1 $387 reversed $161 $-1 #
edge $-1 $388 0 $388 6.2831853071796004 $162 $389 forward 7 unknown #
vertex $-1 $165 $390 #
ellipse-curve $-1 -49.403193827599168 22.813764662826092 7.5187946275889583 0 0.68199836817093118 0.7313536940579346 0.5 0 0 1 I I #
coedge $-1 $268 $268 $-1 $391 reversed $168 $-1 #
edge $-1 $392 0 $392 6.2831853071796004 $169 $393 forward 7 unknown #
vertex $-1 $172 $394 #
ellipse-curve $-1 -45.853164394684512 22.813764662826092 7.5187946275889583 0 0.68199836817093118 0.7313536940579346 0.5 0 0 1 I I #
coedge $-1 $272 $272 $-1 $395 reversed $175 $-1 #
edge $-1 $396 0 $396 6.2831853071796004 $176 $397 forward 7 unknown #
vertex $-1 $179 $398 #
ellipse-curve $-1 -42.303134961769857 22.813764662826092 7.5187946275889583 0 0.68199836817093118 0.7313536940579346 0.5 0 0 1 I I #
face $-1 $-1 $195 $27 $-1 $399 reversed single #
loop $-1 $-1 $292 $180 #
plane-surface $-1 0 27.156187572286047 0 0 -1 0 0 0 -1 forward_v I I I I #
coedge $-1 $400 $290 $293 $401 forward $181 $-1 #
coedge $-1 $296 $183 $184 $284 reversed $113 $-1 #
coedge $-1 $290 $400 $183 $282 reversed $181 $-1 #
edge $-1 $297 -11.568169591059307 $402 11.568169591059307 $281 $403 forward 7 unknown #
coedge $-1 $185 $184 $400 $404 forward $73 $-1 #
edge $-1 $288 -60.916165654469438 $402 60.916165654469438 $280 $405 forward 7 unknown #
coedge $-1 $293 $292 $185 $286 reversed $277 $-1 #
edge $-1 $406 -60.916165654469438 $287 60.916165654469438 $285 $407 forward 7 unknown #
vertex $-1 $187 $408 #
vertex $-1 $299 $409 #
straight-curve $-1 60.916165654469438 0 -11.568169591059307 0 -1 0 I I #
coedge $-1 $279 $281 $188 $291 reversed $181 $-1 #
edge $-1 $294 -27.156187572286047 $297 27.156187572286047 $290 $410 forward 7 unknown #
coedge $-1 $285 $189 $194 $300 forward $277 $-1 #
coedge $-1 $189 $285 $279 $401 reversed $277 $-1 #
vertex $-1 $190 $411 #
straight-curve $-1 0 27.156187572286047 11.568169591059307 -1 0 0 I I #
coedge $-1 $191 $280 $193 $299 reversed $113 $-1 #
vertex $-1 $291 $412 #
straight-curve $-1 0 -27.156187572286047 11.568169591059307 1 0 0 I I #
edge $-1 $196 -11.568169591059307 $288 11.568169591059307 $193 $413 forward 7 unknown #
edge $-1 $197 -11.568169591059307 $287 11.568169591059307 $194 $414 forward 7 unknown #
point $-1 60.916165654469438 -27.156187572286047 11.568169591059307 #
point $-1 60.916165654469438 27.156187572286047 11.568169591059307 #
face $-1 $-1 $319 $28 $-1 $415 forward single #
plane-surface $-1 -65.489308423599681 -16.897338953793966 0 0 -1 0 0 0 -1 forward_v I I I I #
coedge $-1 $416 $417 $322 $418 forward $200 $-1 #
coedge $-1 $315 $202 $203 $311 reversed $121 $-1 #
coedge $-1 $202 $315 $318 $419 reversed $121 $-1 #
coedge $-1 $417 $416 $202 $309 reversed $200 $-1 #
edge $-1 $420 -11.568169591059307 $421 11.568169591059307 $308 $422 forward 7 unknown #
coedge $-1 $204 $203 $416 $423 forward $77 $-1 #
edge $-1 $313 -4.57314276913025 $421 4.5731427691302429 $306 $424 forward 7 unknown #
edge $-1 $425 -4.5731427691302429 $212 4.57314276913025 $209 $426 forward 7 unknown #
vertex $-1 $311 $427 #
straight-curve $-1 -60.916165654469438 0 -11.568169591059307 0 -1 0 I I #
coedge $-1 $307 $306 $206 $316 reversed $121 $-1 #
edge $-1 $320 -11.568169591059307 $313 11.568169591059307 $315 $428 forward 7 unknown #
coedge $-1 $429 $207 $210 $323 forward $319 $-1 #
coedge $-1 $207 $429 $307 $419 forward $319 $-1 #
loop $-1 $-1 $207 $303 #
vertex $-1 $208 $430 #
straight-curve $-1 -60.916165654469438 0 11.568169591059307 0 1 0 I I #
coedge $-1 $210 $209 $305 $418 reversed $211 $-1 #
edge $-1 $213 -4.57314276913025 $431 4.5731427691302429 $210 $432 forward 7 unknown #
point $-1 -60.916165654469431 -16.897338953793966 -11.568169591059307 #
point $-1 -60.916165654469431 -16.897338953793966 11.568169591059307 #
face $-1 $-1 $340 $29 $-1 $433 forward single #
loop $-1 $-1 $434 $215 #
plane-surface $-1 70.062451192729924 -19.842532019362803 0 -1 0 0 0 0 1 forward_v I I I I #
coedge $-1 $331 $435 $436 $437 forward $216 $-1 #
coedge $-1 $219 $218 $438 $439 forward $81 $-1 #
coedge $-1 $336 $329 $218 $332 reversed $216 $-1 #
edge $-1 $334 -4.5731427691302429 $440 4.5731427691302429 $331 $441 forward 7 unknown #
edge $-1 $442 -4.5731427691302429 $226 4.5731427691302429 $224 $443 forward 7 unknown #
vertex $-1 $332 $444 #
straight-curve $-1 60.916165654469438 0 -11.568169591059307 0 1 0 I I #
coedge $-1 $435 $331 $221 $337 reversed $216 $-1 #
edge $-1 $341 -11.568169591059307 $334 11.568169591059307 $336 $445 forward 7 unknown #
coedge $-1 $446 $222 $225 $344 forward $340 $-1 #
coedge $-1 $222 $446 $435 $447 forward $340 $-1 #
loop $-1 $-1 $222 $326 #
vertex $-1 $223 $448 #
straight-curve $-1 60.916165654469438 0 11.568169591059307 0 -1 0 I I #
coedge $-1 $225 $224 $434 $449 reversed $129 $-1 #
edge $-1 $227 -4.5731427691302429 $450 4.5731427691302429 $225 $451 forward 7 unknown #
point $-1 60.916165654469438 -22.78772508493164 -11.568169591059307 #
point $-1 60.916165654469438 -22.78772508493164 11.568169591059307 #
loop $-1 $-1 $237 $229 #
plane-surface $-1 0 -27.156187572286047 0 0 1 0 0 0 1 forward_v I I I I #
coedge $-1 $350 $232 $234 $354 reversed $137 $-1 #
coedge $-1 $232 $349 $452 $453 reversed $137 $-1 #
coedge $-1 $240 $235 $232 $352 forward $230 $-1 #
edge $-1 $355 -38.055893189539468 $454 -29.496140531786406 $351 $455 forward 7 unknown #
coedge $-1 $234 $233 $358 $456 reversed $85 $-1 #
edge $-1 $457 1.5072887603364246e-014 $355 12.105318439606128 $349 $458 forward 7 unknown #
vertex $-1 $236 $459 #
straight-curve $-1 -18.141893182665079 -18.596434914532985 11.568169591059307 -1 0 0 I I #
coedge $-1 $452 $237 $240 $362 reversed $347 $-1 #
coedge $-1 $237 $452 $353 $456 forward $347 $-1 #
vertex $-1 $238 $460 #
straight-curve $-1 -20.797692614451378 -27.156187572286044 44.578441685725522 0 0 1 I I #
straight-curve $-1 -20.797692614451378 -27.156187572286058 3.0084167346762882 0 -0.70710677298230451 -0.70710678939079041 I I #
edge $-1 $454 -51.769880116208938 $241 -20.797692614451378 $357 $461 forward 7 unknown #
point $-1 -20.797692614451378 -27.156187572286047 11.568169591059307 #
point $-1 -20.797692614451378 -18.596434914532985 11.568169591059307 #
edge $-1 $462 1 $462 0 $244 $-1 forward 7 unknown #
vertex $-1 $245 $463 #
ellipse-curve $-1 -36.283786365330158 -19.985647812137941 4.397629798674374 0 -0.70710678939079041 0.70710677298230451 2 0 0 1 I I #
point $-1 -34.283786365330158 -22.8763112434095 7.2882931628677881 #
plane-surface $-1 0 0 11.568169591059307 0 0 1 1 0 0 forward_v I I I I #
coedge $-1 $380 $379 $372 $464 forward $249 $-1 #
coedge $-1 $372 $251 $253 $376 reversed $152 $-1 #
coedge $-1 $251 $371 $370 $464 reversed $152 $-1 #
coedge $-1 $259 $254 $251 $374 forward $260 $-1 #
edge $-1 $377 -16.79069950683359 $465 -8.1058536879136831 $373 $466 forward 7 unknown #
coedge $-1 $253 $252 $380 $467 reversed $94 $-1 #
edge $-1 $468 -54.312375144572087 $377 -42.437346838183409 $371 $469 forward 7 unknown #
vertex $-1 $255 $470 #
straight-curve $-1 -22.926582197342256 18.47134175336614 11.568169591059313 1 0 0 I I #
coedge $-1 $370 $256 $259 $384 reversed $249 $-1 #
coedge $-1 $256 $370 $375 $467 forward $249 $-1 #
vertex $-1 $257 $471 #
straight-curve $-1 -51.769880116208938 27.156187572286047 64.806448221343416 0 0 1 I I #
straight-curve $-1 -51.769880116208938 -12.565368622757106 40.510370884204221 0 0.7313536940579346 -0.68199836817093118 I I #
edge $-1 $465 39.936448673160086 $261 51.769880116208938 $379 $472 forward 7 unknown #
point $-1 -51.769880116208938 27.156187572286047 11.568169591059307 #
point $-1 -51.769880116208938 18.47134175336614 11.568169591059309 #
edge $-1 $473 1 $473 0 $264 $-1 forward 7 unknown #
vertex $-1 $265 $474 #
ellipse-curve $-1 -49.403193827599168 22.131766294655165 6.787440933531026 0 0.68199836817093118 0.7313536940579346 0.5 0 0 1 I I #
point $-1 -48.903193827599168 22.813764662826095 7.518794627588961 #
edge $-1 $475 1 $475 0 $268 $-1 forward 7 unknown #
vertex $-1 $269 $476 #
ellipse-curve $-1 -45.853164394684512 22.131766294655165 6.787440933531026 0 0.68199836817093118 0.7313536940579346 0.5 0 0 1 I I #
point $-1 -45.353164394684512 22.813764662826095 7.518794627588961 #
edge $-1 $477 1 $477 0 $272 $-1 forward 7 unknown #
vertex $-1 $273 $478 #
ellipse-curve $-1 -42.303134961769857 22.131766294655165 6.787440933531026 0 0.68199836817093118 0.7313536940579346 0.5 0 0 1 I I #
point $-1 -41.803134961769857 22.813764662826095 7.518794627588961 #
plane-surface $-1 60.916165654469438 0 0 -1 0 0 0 0 1 forward_v I I I I #
coedge $-1 $281 $279 $283 $404 reversed $181 $-1 #
edge $-1 $294 -11.568169591059307 $406 11.568169591059307 $293 $479 forward 7 unknown #
vertex $-1 $404 $480 #
straight-curve $-1 -60.916165654469438 -27.156187572286047 0 0 0 -1 I I #
edge $-1 $402 -27.156187572286047 $406 27.156187572286047 $400 $481 forward 7 unknown #
straight-curve $-1 0 -27.156187572286047 -11.568169591059307 -1 0 0 I I #
vertex $-1 $286 $482 #
straight-curve $-1 0 27.156187572286047 -11.568169591059307 1 0 0 I I #
point $-1 60.916165654469438 27.156187572286047 -11.568169591059307 #
point $-1 60.916165654469438 -27.156187572286047 -11.568169591059307 #
straight-curve $-1 -60.916165654469438 0 11.568169591059307 0 -1 0 I I #
point $-1 -60.916165654469438 27.156187572286047 11.568169591059307 #
point $-1 -60.916165654469438 -27.156187572286047 11.568169591059307 #
straight-curve $-1 60.916165654469438 -27.156187572286047 0 0 0 -1 I I #
straight-curve $-1 60.916165654469438 27.156187572286047 0 0 0 -1 I I #
plane-surface $-1 0 0 11.568169591059307 0 0 1 1 0 0 forward_v I I I I #
coedge $-1 $308 $305 $310 $423 reversed $200 $-1 #
coedge $-1 $305 $308 $429 $483 reversed $200 $-1 #
edge $-1 $431 -11.568169591059307 $425 11.568169591059307 $322 $484 forward 7 unknown #
edge $-1 $420 -4.5731427691302429 $320 4.57314276913025 $307 $485 forward 7 unknown #
vertex $-1 $483 $486 #
vertex $-1 $423 $487 #
straight-curve $-1 -70.062451192729924 -22.78772508493164 0 0 0 -1 I I #
edge $-1 $421 -2.9451930655688372 $425 2.9451930655688372 $416 $488 forward 7 unknown #
straight-curve $-1 -65.489308423599681 -22.78772508493164 -11.568169591059307 -1 0 0 I I #
vertex $-1 $312 $489 #
straight-curve $-1 -65.489308423599681 -16.897338953793966 -11.568169591059307 1 0 0 I I #
point $-1 -60.916165654469431 -22.78772508493164 -11.568169591059307 #
straight-curve $-1 -60.916165654469438 -22.78772508493164 0 0 0 -1 I I #
coedge $-1 $318 $317 $417 $483 forward $319 $-1 #
point $-1 -60.916165654469431 -22.78772508493164 11.568169591059307 #
vertex $-1 $323 $490 #
straight-curve $-1 -65.489308423599681 -16.897338953793966 11.568169591059307 -1 0 0 I I #
plane-surface $-1 0 0 11.568169591059307 0 0 1 1 0 0 forward_v I I I I #
coedge $-1 $438 $491 $343 $449 forward $327 $-1 #
coedge $-1 $329 $336 $339 $447 reversed $216 $-1 #
coedge $-1 $491 $438 $329 $437 reversed $327 $-1 #
edge $-1 $492 -11.568169591059307 $440 11.568169591059307 $436 $493 forward 7 unknown #
coedge $-1 $436 $434 $330 $439 reversed $327 $-1 #
edge $-1 $440 -2.9451930655688372 $442 2.9451930655688372 $438 $494 forward 7 unknown #
vertex $-1 $439 $495 #
straight-curve $-1 65.489308423599681 -16.897338953793966 -11.568169591059307 1 0 0 I I #
vertex $-1 $449 $496 #
straight-curve $-1 65.489308423599681 -22.78772508493164 -11.568169591059307 -1 0 0 I I #
point $-1 60.916165654469438 -16.897338953793966 -11.568169591059307 #
straight-curve $-1 60.916165654469438 -16.897338953793966 0 0 0 -1 I I #
coedge $-1 $339 $338 $491 $497 forward $340 $-1 #
edge $-1 $492 -4.5731427691302429 $341 4.5731427691302429 $435 $498 forward 7 unknown #
point $-1 60.916165654469438 -16.897338953793966 11.568169591059307 #
edge $-1 $450 -11.568169591059307 $442 11.568169591059307 $434 $499 forward 7 unknown #
vertex $-1 $497 $500 #
straight-curve $-1 65.489308423599681 -22.78772508493164 11.568169591059307 1 0 0 I I #
coedge $-1 $358 $357 $350 $453 forward $347 $-1 #
edge $-1 $454 33.010272094666213 $457 41.57002495104922 $452 $501 forward 7 unknown #
vertex $-1 $362 $502 #
straight-curve $-1 -51.769880116208938 -56.652328104072453 11.568169591059309 0 -1 0 I I #
edge $-1 $457 -33.627986933543859 $359 -2.6557994317862992 $358 $503 forward 7 unknown #
vertex $-1 $456 $504 #
straight-curve $-1 -51.769880116208938 -27.156187572286058 3.0084167346762882 0 0.70710677298230451 0.70710678939079041 I I #
point $-1 -51.769880116208938 -18.596434914532985 11.568169591059307 #
point $-1 -20.797692614451378 -27.156187572286047 3.0084167346762989 #
straight-curve $-1 0 -27.156187572286047 11.568169591059307 1 0 0 I I #
vertex $-1 $365 $505 #
point $-1 -34.283786365330158 -19.985647812137941 4.397629798674374 #
edge $-1 $465 53.238278630284107 $468 61.337028557224805 $370 $506 forward 7 unknown #
vertex $-1 $384 $507 #
straight-curve $-1 -39.936448673160086 35.26204126019973 11.568169591059309 0 1 0 I I #
edge $-1 $468 17.00986647581783 $381 28.843297918866682 $380 $508 forward 7 unknown #
vertex $-1 $467 $509 #
straight-curve $-1 -39.936448673160086 -12.565368622757106 40.510370884204221 0 -0.7313536940579346 0.68199836817093118 I I #
point $-1 -39.936448673160086 18.47134175336614 11.568169591059309 #
point $-1 -51.769880116208938 27.156187572286044 3.469419664118611 #
straight-curve $-1 0 27.156187572286047 11.568169591059307 -1 0 0 I I #
vertex $-1 $387 $510 #
point $-1 -48.903193827599168 22.131766294655165 6.787440933531026 #
vertex $-1 $391 $511 #
point $-1 -45.353164394684512 22.131766294655165 6.787440933531026 #
vertex $-1 $395 $512 #
point $-1 -41.803134961769857 22.131766294655165 6.787440933531026 #
straight-curve $-1 -60.916165654469438 27.156187572286047 0 0 0 -1 I I #
point $-1 -60.916165654469438 -27.156187572286047 -11.568169591059307 #
straight-curve $-1 -60.916165654469438 0 -11.568169591059307 0 1 0 I I #
point $-1 -60.916165654469438 27.156187572286047 -11.568169591059307 #
edge $-1 $431 -2.9451930655688372 $420 2.9451930655688372 $417 $513 forward 7 unknown #
straight-curve $-1 -70.062451192729924 -16.897338953793966 0 0 0 -1 I I #
straight-curve $-1 -65.489308423599681 -22.78772508493164 11.568169591059307 1 0 0 I I #
point $-1 -70.062451192729924 -22.78772508493164 11.568169591059307 #
point $-1 -70.062451192729924 -22.78772508493164 -11.568169591059307 #
straight-curve $-1 -70.062451192729924 -19.842532019362803 -11.568169591059307 0 1 0 I I #
point $-1 -70.062451192729924 -16.897338953793966 -11.568169591059307 #
point $-1 -70.062451192729924 -16.897338953793966 11.568169591059307 #
coedge $-1 $434 $436 $446 $497 reversed $327 $-1 #
vertex $-1 $497 $514 #
straight-curve $-1 70.062451192729924 -16.897338953793966 0 0 0 -1 I I #
straight-curve $-1 70.062451192729924 -19.842532019362803 -11.568169591059307 0 -1 0 I I #
point $-1 70.062451192729924 -16.897338953793966 -11.568169591059307 #
point $-1 70.062451192729924 -22.78772508493164 -11.568169591059307 #
edge $-1 $450 -2.9451930655688372 $492 2.9451930655688372 $491 $515 forward 7 unknown #
straight-curve $-1 65.489308423599681 -16.897338953793966 11.568169591059307 -1 0 0 I I #
straight-curve $-1 70.062451192729924 -22.78772508493164 0 0 0 -1 I I #
point $-1 70.062451192729924 -22.78772508493164 11.568169591059307 #
straight-curve $-1 -51.769880116208938 -27.156187572286044 44.578441685725522 0 0 -1 I I #
point $-1 -51.769880116208938 -27.156187572286047 11.568169591059307 #
straight-curve $-1 -18.141893182665079 -27.156187572286047 3.008416734676298 1 0 0 I I #
point $-1 -51.769880116208938 -27.156187572286047 3.0084167346762989 #
point $-1 -36.283786365330158 -18.571434233356364 2.9834162527097652 #
straight-curve $-1 -39.936448673160086 27.156187572286047 64.806448221343416 0 0 -1 I I #
point $-1 -39.936448673160086 27.156187572286047 11.568169591059307 #
straight-curve $-1 -22.926582197342256 27.156187572286047 3.4694196641186075 -1 0 0 I I #
point $-1 -39.936448673160086 27.156187572286044 3.469419664118611 #
point $-1 -49.403193827599168 21.790767110569696 6.4217640865020593 #
point $-1 -45.853164394684512 21.790767110569696 6.4217640865020593 #
point $-1 -42.303134961769857 21.790767110569696 6.4217640865020593 #
straight-curve $-1 -70.062451192729924 -19.842532019362803 11.568169591059307 0 -1 0 I I #
point $-1 70.062451192729924 -16.897338953793966 11.568169591059307 #
straight-curve $-1 70.062451192729924 -19.842532019362803 11.568169591059307 0 1 0 I I #
End-of-ACIS-data 