500 0 14 0           
7 Unknown 11 ACIS 5.0 NT 24 Fri Mar 26 19:38:59 1999 
-1 9.9999999999999995e-007 1e-010 
body $-1 $14 $-1 $15 #
body $-1 $16 $-1 $17 #
body $-1 $18 $-1 $19 #
body $-1 $20 $-1 $21 #
body $-1 $22 $-1 $23 #
body $-1 $24 $-1 $25 #
body $-1 $26 $-1 $27 #
body $-1 $28 $-1 $29 #
body $-1 $30 $-1 $31 #
body $-1 $32 $-1 $33 #
body $-1 $34 $-1 $35 #
body $-1 $36 $-1 $37 #
body $-1 $38 $-1 $39 #
body $-1 $40 $-1 $41 #
lump $-1 $-1 $42 $0 #
transform $-1 1 0 0 0 1 0 0 0 1 57.244178594317454 31.268630211875713 7.9301910698791334 1 rotate no_reflect no_shear #
lump $-1 $-1 $43 $1 #
transform $-1 1 0 0 0 1 0 0 0 1 57.244178594317454 31.268630211875713 7.9301910698791334 1 rotate no_reflect no_shear #
lump $-1 $-1 $44 $2 #
transform $-1 1 0 0 0 1 0 0 0 1 57.244178594317454 31.268630211875713 7.9301910698791334 1 rotate no_reflect no_shear #
lump $-1 $-1 $45 $3 #
transform $-1 1 0 0 0 1 0 0 0 1 57.244178594317454 31.268630211875713 7.9301910698791334 1 rotate no_reflect no_shear #
lump $-1 $-1 $46 $4 #
transform $-1 1 0 0 0 1 0 0 0 1 57.244178594317454 31.268630211875713 7.9301910698791334 1 rotate no_reflect no_shear #
lump $-1 $-1 $47 $5 #
transform $-1 1 0 0 0 1 0 0 0 1 57.244178594317454 31.268630211875713 7.9301910698791334 1 rotate no_reflect no_shear #
lump $-1 $-1 $48 $6 #
transform $-1 1 0 0 0 1 0 0 0 1 57.244178594317454 31.268630211875713 7.9301910698791334 1 rotate no_reflect no_shear #
lump $-1 $-1 $49 $7 #
transform $-1 1 0 0 0 1 0 0 0 1 57.244178594317454 31.268630211875713 7.9301910698791334 1 rotate no_reflect no_shear #
lump $-1 $-1 $50 $8 #
transform $-1 1 0 0 0 1 0 0 0 1 57.244178594317454 31.268630211875713 7.9301910698791334 1 rotate no_reflect no_shear #
lump $-1 $-1 $51 $9 #
transform $-1 1 0 0 0 1 0 0 0 1 57.244178594317454 31.268630211875713 7.9301910698791334 1 rotate no_reflect no_shear #
lump $-1 $-1 $52 $10 #
transform $-1 1 0 0 0 1 0 0 0 1 57.244178594317454 31.268630211875713 7.9301910698791334 1 rotate no_reflect no_shear #
lump $-1 $-1 $53 $11 #
transform $-1 1 0 0 0 1 0 0 0 1 57.244178594317454 31.268630211875713 7.9301910698791334 1 rotate no_reflect no_shear #
lump $-1 $-1 $54 $12 #
transform $-1 1 0 0 0 1 0 0 0 1 57.244178594317454 31.268630211875713 7.9301910698791334 1 rotate no_reflect no_shear #
lump $-1 $-1 $55 $13 #
transform $-1 1 0 0 0 1 0 0 0 1 57.244178594317454 31.268630211875713 7.9301910698791334 1 rotate no_reflect no_shear #
shell $-1 $-1 $-1 $56 $-1 $14 #
shell $-1 $-1 $-1 $57 $-1 $16 #
shell $-1 $-1 $-1 $58 $-1 $18 #
shell $-1 $-1 $-1 $59 $-1 $20 #
shell $-1 $-1 $-1 $60 $-1 $22 #
shell $-1 $-1 $-1 $61 $-1 $24 #
shell $-1 $-1 $-1 $62 $-1 $26 #
shell $-1 $-1 $-1 $63 $-1 $28 #
shell $-1 $-1 $-1 $64 $-1 $30 #
shell $-1 $-1 $-1 $65 $-1 $32 #
shell $-1 $-1 $-1 $66 $-1 $34 #
shell $-1 $-1 $-1 $67 $-1 $36 #
shell $-1 $-1 $-1 $68 $-1 $38 #
shell $-1 $-1 $-1 $69 $-1 $40 #
face $-1 $70 $71 $42 $-1 $72 forward single #
face $-1 $73 $74 $43 $-1 $75 forward single #
face $-1 $76 $77 $44 $-1 $78 reversed single #
face $-1 $79 $80 $45 $-1 $81 forward single #
face $-1 $82 $83 $46 $-1 $84 forward single #
face $-1 $85 $86 $47 $-1 $87 reversed single #
face $-1 $88 $89 $48 $-1 $90 forward single #
face $-1 $91 $92 $49 $-1 $93 forward single #
face $-1 $94 $95 $50 $-1 $96 reversed single #
face $-1 $97 $98 $51 $-1 $99 forward single #
face $-1 $100 $101 $52 $-1 $102 forward single #
face $-1 $103 $104 $53 $-1 $105 reversed single #
face $-1 $106 $107 $54 $-1 $108 forward single #
face $-1 $109 $110 $55 $-1 $111 forward single #
face $-1 $112 $113 $42 $-1 $114 reversed single #
loop $-1 $-1 $115 $56 #
plane-surface $-1 0 0 7.9301910698791334 0 0 1 1 0 0 forward_v I I I I #
face $-1 $116 $117 $43 $-1 $118 forward single #
loop $-1 $-1 $119 $57 #
plane-surface $-1 -57.244178594317454 0 0 1 0 0 0 0 -1 forward_v I I I I #
face $-1 $120 $121 $44 $-1 $122 reversed single #
loop $-1 $-1 $123 $58 #
plane-surface $-1 -47.152658715829531 80.886823036305685 122.91699725962252 1 0 0 0 -0.77714596973225614 -0.62932038083071107 forward_v I I I I #
face $-1 $124 $125 $45 $-1 $126 forward single #
loop $-1 $127 $128 $59 #
cone-surface $-1 -43.585600229996118 28.297517460444155 4.5493795213398771 0 -0.77714596973225614 -0.62932038083071107 1.5 0 0 1 I I 0 1 1.5 forward I I I I #
face $-1 $129 $130 $46 $-1 $131 forward single #
loop $-1 $132 $133 $60 #
cone-surface $-1 -38.23501250124599 28.297517460444155 4.5493795213398771 0 -0.77714596973225614 -0.62932038083071107 1.5 0 0 1 I I 0 1 1.5 forward I I I I #
face $-1 $134 $135 $47 $-1 $136 reversed single #
loop $-1 $-1 $137 $61 #
plane-surface $-1 -17.696494991830825 80.886823036305685 122.91699725962252 1 0 0 0 -0.77714596973225614 -0.62932038083071107 forward_v I I I I #
face $-1 $138 $139 $48 $-1 $140 forward single #
loop $-1 $141 $142 $62 #
cone-surface $-1 -14.129436505997411 28.297517460444155 4.5493795213398771 0 -0.77714596973225614 -0.62932038083071107 1.5 0 0 1 I I 0 1 1.5 forward I I I I #
face $-1 $143 $144 $49 $-1 $145 forward single #
loop $-1 $146 $147 $63 #
cone-surface $-1 -8.7788487772472834 28.297517460444155 4.5493795213398771 0 -0.77714596973225614 -0.62932038083071107 1.5 0 0 1 I I 0 1 1.5 forward I I I I #
face $-1 $148 $149 $50 $-1 $150 reversed single #
loop $-1 $-1 $151 $64 #
plane-surface $-1 11.759668732167887 80.886823036305685 122.91699725962252 1 0 0 0 -0.77714596973225614 -0.62932038083071107 forward_v I I I I #
face $-1 $152 $153 $51 $-1 $154 forward single #
loop $-1 $155 $156 $65 #
cone-surface $-1 15.326727218001302 28.297517460444155 4.5493795213398771 0 -0.77714596973225614 -0.62932038083071107 1.5 0 0 1 I I 0 1 1.5 forward I I I I #
face $-1 $157 $158 $52 $-1 $159 forward single #
loop $-1 $160 $161 $66 #
cone-surface $-1 20.67731494675143 28.297517460444155 4.5493795213398771 0 -0.77714596973225614 -0.62932038083071107 1.5 0 0 1 I I 0 1 1.5 forward I I I I #
face $-1 $162 $163 $53 $-1 $164 reversed single #
loop $-1 $-1 $165 $67 #
plane-surface $-1 41.215832456166602 80.886823036305685 122.91699725962252 1 0 0 0 -0.77714596973225614 -0.62932038083071107 forward_v I I I I #
face $-1 $166 $167 $54 $-1 $168 forward single #
loop $-1 $169 $170 $68 #
cone-surface $-1 44.782890942000016 28.297517460444155 4.5493795213398771 0 -0.77714596973225614 -0.62932038083071107 1.5 0 0 1 I I 0 1 1.5 forward I I I I #
face $-1 $171 $172 $55 $-1 $173 forward single #
loop $-1 $174 $175 $69 #
cone-surface $-1 50.133478670750144 28.297517460444155 4.5493795213398771 0 -0.77714596973225614 -0.62932038083071107 1.5 0 0 1 I I 0 1 1.5 forward I I I I #
face $-1 $176 $177 $42 $-1 $178 reversed single #
loop $-1 $-1 $179 $70 #
plane-surface $-1 0 0 -7.9301910698791334 0 0 1 1 0 0 forward_v I I I I #
coedge $-1 $180 $181 $182 $183 forward $71 $-1 #
face $-1 $184 $185 $43 $-1 $186 reversed single #
loop $-1 $-1 $187 $73 #
plane-surface $-1 0 0 7.9301910698791334 0 0 1 1 0 0 forward_v I I I I #
coedge $-1 $188 $189 $190 $191 forward $74 $-1 #
face $-1 $192 $193 $44 $-1 $194 reversed single #
loop $-1 $-1 $195 $76 #
plane-surface $-1 -40.910306365621054 -8.0873423341089108 50.867140712988316 0 0.77714596973225614 0.62932038083071107 1 0 0 forward_v I I I I #
coedge $-1 $196 $197 $198 $199 reversed $77 $-1 #
face $-1 $-1 $200 $45 $-1 $201 forward single #
loop $-1 $202 $203 $79 #
cone-surface $-1 -43.585600229996118 27.036703844581648 3.5283928138304743 0 -0.77714596973225614 -0.62932038083071107 0.75 0 0 1 I I -0.70710678118654757 0.70710678118654757 0.75 forward I I I I #
loop $-1 $-1 $204 $59 #
coedge $-1 $128 $128 $205 $206 reversed $80 $-1 #
face $-1 $-1 $207 $46 $-1 $208 forward single #
loop $-1 $209 $210 $82 #
cone-surface $-1 -38.23501250124599 27.036703844581648 3.5283928138304743 0 -0.77714596973225614 -0.62932038083071107 0.75 0 0 1 I I -0.70710678118654757 0.70710678118654757 0.75 forward I I I I #
loop $-1 $-1 $211 $60 #
coedge $-1 $133 $133 $212 $213 reversed $83 $-1 #
face $-1 $214 $215 $47 $-1 $216 reversed single #
loop $-1 $-1 $217 $85 #
plane-surface $-1 -11.454142641622347 -8.0873423341089108 50.867140712988316 0 0.77714596973225614 0.62932038083071107 1 0 0 forward_v I I I I #
coedge $-1 $218 $219 $220 $221 reversed $86 $-1 #
face $-1 $-1 $222 $48 $-1 $223 forward single #
loop $-1 $224 $225 $88 #
cone-surface $-1 -14.129436505997411 27.036703844581648 3.5283928138304743 0 -0.77714596973225614 -0.62932038083071107 0.75 0 0 1 I I -0.70710678118654757 0.70710678118654757 0.75 forward I I I I #
loop $-1 $-1 $226 $62 #
coedge $-1 $142 $142 $227 $228 reversed $89 $-1 #
face $-1 $-1 $229 $49 $-1 $230 forward single #
loop $-1 $231 $232 $91 #
cone-surface $-1 -8.7788487772472834 27.036703844581648 3.5283928138304743 0 -0.77714596973225614 -0.62932038083071107 0.75 0 0 1 I I -0.70710678118654757 0.70710678118654757 0.75 forward I I I I #
loop $-1 $-1 $233 $63 #
coedge $-1 $147 $147 $234 $235 reversed $92 $-1 #
face $-1 $236 $237 $50 $-1 $238 reversed single #
loop $-1 $-1 $239 $94 #
plane-surface $-1 18.002021082376366 -8.0873423341089108 50.867140712988316 0 0.77714596973225614 0.62932038083071107 1 0 0 forward_v I I I I #
coedge $-1 $240 $241 $242 $243 reversed $95 $-1 #
face $-1 $-1 $244 $51 $-1 $245 forward single #
loop $-1 $246 $247 $97 #
cone-surface $-1 15.326727218001302 27.036703844581648 3.5283928138304743 0 -0.77714596973225614 -0.62932038083071107 0.75 0 0 1 I I -0.70710678118654757 0.70710678118654757 0.75 forward I I I I #
loop $-1 $-1 $248 $65 #
coedge $-1 $156 $156 $249 $250 reversed $98 $-1 #
face $-1 $-1 $251 $52 $-1 $252 forward single #
loop $-1 $253 $254 $100 #
cone-surface $-1 20.67731494675143 27.036703844581648 3.5283928138304743 0 -0.77714596973225614 -0.62932038083071107 0.75 0 0 1 I I -0.70710678118654757 0.70710678118654757 0.75 forward I I I I #
loop $-1 $-1 $255 $66 #
coedge $-1 $161 $161 $256 $257 reversed $101 $-1 #
face $-1 $258 $259 $53 $-1 $260 reversed single #
loop $-1 $-1 $261 $103 #
plane-surface $-1 47.45818480637508 -8.0873423341089108 50.867140712988316 0 0.77714596973225614 0.62932038083071107 1 0 0 forward_v I I I I #
coedge $-1 $262 $263 $264 $265 reversed $104 $-1 #
face $-1 $-1 $266 $54 $-1 $267 forward single #
loop $-1 $268 $269 $106 #
cone-surface $-1 44.782890942000016 27.036703844581648 3.5283928138304743 0 -0.77714596973225614 -0.62932038083071107 0.75 0 0 1 I I -0.70710678118654757 0.70710678118654757 0.75 forward I I I I #
loop $-1 $-1 $270 $68 #
coedge $-1 $170 $170 $271 $272 reversed $107 $-1 #
face $-1 $-1 $273 $55 $-1 $274 forward single #
loop $-1 $275 $276 $109 #
cone-surface $-1 50.133478670750144 27.036703844581648 3.5283928138304743 0 -0.77714596973225614 -0.62932038083071107 0.75 0 0 1 I I -0.70710678118654757 0.70710678118654757 0.75 forward I I I I #
loop $-1 $-1 $277 $69 #
coedge $-1 $175 $175 $278 $279 reversed $110 $-1 #
face $-1 $280 $281 $42 $-1 $282 reversed single #
loop $-1 $-1 $283 $112 #
plane-surface $-1 0 -31.268630211875713 0 0 1 0 0 0 1 forward_v I I I I #
coedge $-1 $284 $285 $286 $287 forward $113 $-1 #
coedge $-1 $288 $115 $289 $290 forward $71 $-1 #
coedge $-1 $115 $288 $291 $292 forward $71 $-1 #
coedge $-1 $293 $294 $115 $183 reversed $295 $-1 #
edge $-1 $296 -31.268630211875713 $297 31.268630211875713 $182 $298 forward 7 unknown #
face $-1 $299 $300 $43 $-1 $301 reversed single #
loop $-1 $-1 $302 $116 #
plane-surface $-1 -63.792057035071458 -29.75788367677923 0 1 0 0 0 0 -1 forward_v I I I I #
coedge $-1 $303 $304 $188 $305 forward $117 $-1 #
coedge $-1 $306 $119 $187 $305 reversed $74 $-1 #
coedge $-1 $119 $306 $307 $308 reversed $74 $-1 #
coedge $-1 $309 $310 $119 $191 reversed $300 $-1 #
edge $-1 $311 -7.9301910698791334 $312 7.9301910698791334 $190 $313 forward 7 unknown #
face $-1 $314 $315 $44 $-1 $316 forward single #
loop $-1 $-1 $317 $120 #
plane-surface $-1 -34.667954015412576 80.886823036305685 122.91699725962252 -1 0 0 0 0.77714596973225614 0.62932038083071107 forward_v I I I I #
coedge $-1 $318 $319 $320 $321 reversed $121 $-1 #
coedge $-1 $197 $123 $322 $323 reversed $77 $-1 #
coedge $-1 $123 $196 $318 $324 reversed $77 $-1 #
coedge $-1 $320 $325 $123 $199 forward $315 $-1 #
edge $-1 $326 9.1747813062771293 $327 13.761098532013619 $198 $328 forward 7 unknown #
loop $-1 $-1 $205 $124 #
plane-surface $-1 -40.910306365621054 -8.0873423341089108 50.867140712988316 0 0.77714596973225614 0.62932038083071107 1 0 0 forward_v I I I I #
loop $-1 $-1 $329 $79 #
coedge $-1 $203 $203 $204 $330 reversed $125 $-1 #
coedge $-1 $204 $204 $203 $330 forward $127 $-1 #
coedge $-1 $205 $205 $128 $206 forward $200 $-1 #
edge $-1 $331 6.8024590285655488e-016 $331 6.2831853071796013 $205 $332 forward 7 unknown #
loop $-1 $-1 $212 $129 #
plane-surface $-1 -40.910306365621054 -8.0873423341089108 50.867140712988316 0 0.77714596973225614 0.62932038083071107 1 0 0 forward_v I I I I #
loop $-1 $-1 $333 $82 #
coedge $-1 $210 $210 $211 $334 reversed $130 $-1 #
coedge $-1 $211 $211 $210 $334 forward $132 $-1 #
coedge $-1 $212 $212 $133 $213 forward $207 $-1 #
edge $-1 $335 6.8024590285655488e-016 $335 6.2831853071796013 $212 $336 forward 7 unknown #
face $-1 $337 $338 $47 $-1 $339 forward single #
loop $-1 $-1 $340 $134 #
plane-surface $-1 -5.2117902914138678 80.886823036305685 122.91699725962252 -1 0 0 0 0.77714596973225614 0.62932038083071107 forward_v I I I I #
coedge $-1 $341 $342 $343 $344 reversed $135 $-1 #
coedge $-1 $219 $137 $345 $346 reversed $86 $-1 #
coedge $-1 $137 $218 $341 $347 reversed $86 $-1 #
coedge $-1 $343 $348 $137 $221 forward $338 $-1 #
edge $-1 $349 9.1747813062771293 $350 13.761098532013619 $220 $351 forward 7 unknown #
loop $-1 $-1 $227 $138 #
plane-surface $-1 -11.454142641622347 -8.0873423341089108 50.867140712988316 0 0.77714596973225614 0.62932038083071107 1 0 0 forward_v I I I I #
loop $-1 $-1 $352 $88 #
coedge $-1 $225 $225 $226 $353 reversed $139 $-1 #
coedge $-1 $226 $226 $225 $353 forward $141 $-1 #
coedge $-1 $227 $227 $142 $228 forward $222 $-1 #
edge $-1 $354 6.8024590285655488e-016 $354 6.2831853071796013 $227 $355 forward 7 unknown #
loop $-1 $-1 $234 $143 #
plane-surface $-1 -11.454142641622347 -8.0873423341089108 50.867140712988316 0 0.77714596973225614 0.62932038083071107 1 0 0 forward_v I I I I #
loop $-1 $-1 $356 $91 #
coedge $-1 $232 $232 $233 $357 reversed $144 $-1 #
coedge $-1 $233 $233 $232 $357 forward $146 $-1 #
coedge $-1 $234 $234 $147 $235 forward $229 $-1 #
edge $-1 $358 6.8024590285655488e-016 $358 6.2831853071796013 $234 $359 forward 7 unknown #
face $-1 $360 $361 $50 $-1 $362 forward single #
loop $-1 $-1 $363 $148 #
plane-surface $-1 24.244373432584844 80.886823036305685 122.91699725962252 -1 0 0 0 0.77714596973225614 0.62932038083071107 forward_v I I I I #
coedge $-1 $364 $365 $366 $367 reversed $149 $-1 #
coedge $-1 $241 $151 $368 $369 reversed $95 $-1 #
coedge $-1 $151 $240 $364 $370 reversed $95 $-1 #
coedge $-1 $366 $371 $151 $243 forward $361 $-1 #
edge $-1 $372 9.1747813062771293 $373 13.761098532013619 $242 $374 forward 7 unknown #
loop $-1 $-1 $249 $152 #
plane-surface $-1 18.002021082376366 -8.0873423341089108 50.867140712988316 0 0.77714596973225614 0.62932038083071107 1 0 0 forward_v I I I I #
loop $-1 $-1 $375 $97 #
coedge $-1 $247 $247 $248 $376 reversed $153 $-1 #
coedge $-1 $248 $248 $247 $376 forward $155 $-1 #
coedge $-1 $249 $249 $156 $250 forward $244 $-1 #
edge $-1 $377 6.8024590285655488e-016 $377 6.2831853071796013 $249 $378 forward 7 unknown #
loop $-1 $-1 $256 $157 #
plane-surface $-1 18.002021082376366 -8.0873423341089108 50.867140712988316 0 0.77714596973225614 0.62932038083071107 1 0 0 forward_v I I I I #
loop $-1 $-1 $379 $100 #
coedge $-1 $254 $254 $255 $380 reversed $158 $-1 #
coedge $-1 $255 $255 $254 $380 forward $160 $-1 #
coedge $-1 $256 $256 $161 $257 forward $251 $-1 #
edge $-1 $381 6.8024590285655488e-016 $381 6.2831853071796013 $256 $382 forward 7 unknown #
face $-1 $383 $384 $53 $-1 $385 forward single #
loop $-1 $-1 $386 $162 #
plane-surface $-1 53.700537156583557 80.886823036305685 122.91699725962252 -1 0 0 0 0.77714596973225614 0.62932038083071107 forward_v I I I I #
coedge $-1 $387 $388 $389 $390 reversed $163 $-1 #
coedge $-1 $263 $165 $391 $392 reversed $104 $-1 #
coedge $-1 $165 $262 $387 $393 reversed $104 $-1 #
coedge $-1 $389 $394 $165 $265 forward $384 $-1 #
edge $-1 $395 9.1747813062771293 $396 13.761098532013619 $264 $397 forward 7 unknown #
loop $-1 $-1 $271 $166 #
plane-surface $-1 47.45818480637508 -8.0873423341089108 50.867140712988316 0 0.77714596973225614 0.62932038083071107 1 0 0 forward_v I I I I #
loop $-1 $-1 $398 $106 #
coedge $-1 $269 $269 $270 $399 reversed $167 $-1 #
coedge $-1 $270 $270 $269 $399 forward $169 $-1 #
coedge $-1 $271 $271 $170 $272 forward $266 $-1 #
edge $-1 $400 6.8024590285655488e-016 $400 6.2831853071796013 $271 $401 forward 7 unknown #
loop $-1 $-1 $278 $171 #
plane-surface $-1 47.45818480637508 -8.0873423341089108 50.867140712988316 0 0.77714596973225614 0.62932038083071107 1 0 0 forward_v I I I I #
loop $-1 $-1 $402 $109 #
coedge $-1 $276 $276 $277 $403 reversed $172 $-1 #
coedge $-1 $277 $277 $276 $403 forward $174 $-1 #
coedge $-1 $278 $278 $175 $279 forward $273 $-1 #
edge $-1 $404 6.8024590285655488e-016 $404 6.2831853071796013 $278 $405 forward 7 unknown #
face $-1 $406 $407 $42 $-1 $408 reversed single #
loop $-1 $-1 $409 $176 #
plane-surface $-1 -57.244178594317454 0 0 1 0 0 0 0 -1 forward_v I I I I #
coedge $-1 $410 $291 $411 $412 forward $177 $-1 #
coedge $-1 $413 $179 $410 $414 forward $113 $-1 #
coedge $-1 $179 $413 $415 $416 forward $113 $-1 #
coedge $-1 $294 $293 $179 $287 reversed $295 $-1 #
edge $-1 $417 -31.268630211875713 $418 31.268630211875713 $286 $419 forward 7 unknown #
coedge $-1 $181 $180 $420 $421 forward $71 $-1 #
coedge $-1 $422 $423 $180 $290 reversed $407 $-1 #
edge $-1 $297 -57.244178594317454 $424 57.244178594317454 $289 $425 forward 7 unknown #
coedge $-1 $283 $426 $181 $292 reversed $177 $-1 #
edge $-1 $427 -57.244178594317454 $296 57.244178594317454 $291 $428 forward 7 unknown #
coedge $-1 $286 $182 $426 $429 forward $295 $-1 #
coedge $-1 $182 $286 $422 $430 reversed $295 $-1 #
loop $-1 $-1 $293 $406 #
vertex $-1 $183 $431 #
vertex $-1 $183 $432 #
straight-curve $-1 57.244178594317454 0 7.9301910698791334 0 1 0 I I #
face $-1 $433 $434 $43 $-1 $435 reversed single #
loop $-1 $-1 $190 $184 #
plane-surface $-1 -60.518117814694456 -28.247137141682746 0 0 -1 0 0 0 -1 forward_v I I I I #
coedge $-1 $436 $437 $438 $439 forward $185 $-1 #
coedge $-1 $440 $187 $310 $441 forward $117 $-1 #
coedge $-1 $187 $440 $442 $443 forward $117 $-1 #
edge $-1 $444 -31.268630211875713 $312 -28.247137141682746 $187 $445 forward 7 unknown #
coedge $-1 $189 $188 $446 $447 reversed $74 $-1 #
coedge $-1 $448 $449 $189 $308 forward $434 $-1 #
edge $-1 $311 28.247137141682746 $450 31.268630211875713 $307 $451 forward 7 unknown #
coedge $-1 $438 $190 $449 $452 reversed $300 $-1 #
coedge $-1 $190 $438 $303 $441 reversed $300 $-1 #
vertex $-1 $308 $453 #
vertex $-1 $441 $454 #
straight-curve $-1 -57.244178594317454 -28.247137141682746 0 0 0 1 I I #
face $-1 $-1 $455 $44 $-1 $456 reversed single #
loop $-1 $-1 $198 $192 #
plane-surface $-1 0 0 7.9301910698791334 0 0 1 1 0 0 forward_v I I I I #
coedge $-1 $457 $458 $459 $460 reversed $193 $-1 #
coedge $-1 $461 $195 $197 $324 forward $121 $-1 #
coedge $-1 $195 $461 $457 $462 forward $121 $-1 #
coedge $-1 $459 $198 $195 $321 forward $315 $-1 #
edge $-1 $327 -26.697505533019005 $463 -14.212800832602049 $320 $464 forward 7 unknown #
coedge $-1 $465 $466 $196 $323 forward $455 $-1 #
edge $-1 $467 -59.191937813237914 $326 -53.528307559932124 $322 $468 forward 7 unknown #
edge $-1 $327 55.249530095230249 $467 62.537260423751462 $197 $469 forward 7 unknown #
coedge $-1 $198 $459 $465 $470 forward $315 $-1 #
vertex $-1 $323 $471 #
vertex $-1 $199 $472 #
straight-curve $-1 -47.152658715829531 40.443411518152843 7.930191069879136 0 -1 0 I I #
coedge $-1 $329 $329 $-1 $473 reversed $202 $-1 #
edge $-1 $474 0 $474 6.2831853071796004 $203 $475 forward 7 unknown #
vertex $-1 $206 $476 #
ellipse-curve $-1 -43.585600229996118 28.975471599007463 5.0983759432262419 0 0.77714596973225614 0.62932038083071107 1.5 0 0 1 I I #
coedge $-1 $333 $333 $-1 $477 reversed $209 $-1 #
edge $-1 $478 0 $478 6.2831853071796004 $210 $479 forward 7 unknown #
vertex $-1 $213 $480 #
ellipse-curve $-1 -38.23501250124599 28.975471599007463 5.0983759432262419 0 0.77714596973225614 0.62932038083071107 1.5 0 0 1 I I #
face $-1 $-1 $481 $47 $-1 $482 reversed single #
loop $-1 $-1 $220 $214 #
plane-surface $-1 0 0 7.9301910698791334 0 0 1 1 0 0 forward_v I I I I #
coedge $-1 $483 $484 $485 $486 reversed $215 $-1 #
coedge $-1 $487 $217 $219 $347 forward $135 $-1 #
coedge $-1 $217 $487 $483 $488 forward $135 $-1 #
coedge $-1 $485 $220 $217 $344 forward $338 $-1 #
edge $-1 $350 -11.969423671019651 $489 0.5152810293973058 $343 $490 forward 7 unknown #
coedge $-1 $491 $492 $218 $346 forward $481 $-1 #
edge $-1 $493 -59.191937813237914 $349 -53.528307559932124 $345 $494 forward 7 unknown #
edge $-1 $350 55.249530095230249 $493 62.537260423751462 $219 $495 forward 7 unknown #
coedge $-1 $220 $485 $491 $496 forward $338 $-1 #
vertex $-1 $221 $497 #
vertex $-1 $221 $498 #
straight-curve $-1 -17.696494991830825 40.443411518152843 7.930191069879136 0 -1 0 I I #
coedge $-1 $352 $352 $-1 $499 reversed $224 $-1 #
edge $-1 $500 0 $500 6.2831853071796004 $225 $501 forward 7 unknown #
vertex $-1 $228 $502 #
ellipse-curve $-1 -14.129436505997411 28.975471599007463 5.0983759432262419 0 0.77714596973225614 0.62932038083071107 1.5 0 0 1 I I #
coedge $-1 $356 $356 $-1 $503 reversed $231 $-1 #
edge $-1 $504 0 $504 6.2831853071796004 $232 $505 forward 7 unknown #
vertex $-1 $235 $506 #
ellipse-curve $-1 -8.7788487772472834 28.975471599007463 5.0983759432262419 0 0.77714596973225614 0.62932038083071107 1.5 0 0 1 I I #
face $-1 $-1 $507 $50 $-1 $508 reversed single #
loop $-1 $-1 $242 $236 #
plane-surface $-1 0 0 7.9301910698791334 0 0 1 1 0 0 forward_v I I I I #
coedge $-1 $509 $510 $511 $512 reversed $237 $-1 #
coedge $-1 $513 $239 $241 $370 forward $149 $-1 #
coedge $-1 $239 $513 $509 $514 forward $149 $-1 #
coedge $-1 $511 $242 $239 $367 forward $361 $-1 #
edge $-1 $373 2.7586581909797037 $515 15.243362891396661 $366 $516 forward 7 unknown #
coedge $-1 $517 $518 $240 $369 forward $507 $-1 #
edge $-1 $519 -59.191937813237914 $372 -53.528307559932124 $368 $520 forward 7 unknown #
edge $-1 $373 55.249530095230249 $519 62.537260423751462 $241 $521 forward 7 unknown #
coedge $-1 $242 $511 $517 $522 forward $361 $-1 #
vertex $-1 $243 $523 #
vertex $-1 $243 $524 #
straight-curve $-1 11.759668732167887 40.443411518152843 7.930191069879136 0 -1 0 I I #
coedge $-1 $375 $375 $-1 $525 reversed $246 $-1 #
edge $-1 $526 0 $526 6.2831853071796004 $247 $527 forward 7 unknown #
vertex $-1 $250 $528 #
ellipse-curve $-1 15.326727218001302 28.975471599007463 5.0983759432262419 0 0.77714596973225614 0.62932038083071107 1.5 0 0 1 I I #
coedge $-1 $379 $379 $-1 $529 reversed $253 $-1 #
edge $-1 $530 0 $530 6.2831853071796004 $254 $531 forward 7 unknown #
vertex $-1 $257 $532 #
ellipse-curve $-1 20.67731494675143 28.975471599007463 5.0983759432262419 0 0.77714596973225614 0.62932038083071107 1.5 0 0 1 I I #
face $-1 $-1 $533 $53 $-1 $534 reversed single #
loop $-1 $-1 $264 $258 #
plane-surface $-1 0 0 7.9301910698791334 0 0 1 1 0 0 forward_v I I I I #
coedge $-1 $535 $536 $537 $538 reversed $259 $-1 #
coedge $-1 $539 $261 $263 $393 forward $163 $-1 #
coedge $-1 $261 $539 $535 $540 forward $163 $-1 #
coedge $-1 $537 $264 $261 $390 forward $384 $-1 #
edge $-1 $396 17.486740052979062 $541 29.971444753396018 $389 $542 forward 7 unknown #
coedge $-1 $543 $544 $262 $392 forward $533 $-1 #
edge $-1 $545 -59.191937813237914 $395 -53.528307559932124 $391 $546 forward 7 unknown #
edge $-1 $396 55.249530095230249 $545 62.537260423751462 $263 $547 forward 7 unknown #
coedge $-1 $264 $537 $543 $548 forward $384 $-1 #
vertex $-1 $265 $549 #
vertex $-1 $265 $550 #
straight-curve $-1 41.215832456166602 40.443411518152843 7.930191069879136 0 -1 0 I I #
coedge $-1 $398 $398 $-1 $551 reversed $268 $-1 #
edge $-1 $552 0 $552 6.2831853071796004 $269 $553 forward 7 unknown #
vertex $-1 $272 $554 #
ellipse-curve $-1 44.782890942000016 28.975471599007463 5.0983759432262419 0 0.77714596973225614 0.62932038083071107 1.5 0 0 1 I I #
coedge $-1 $402 $402 $-1 $555 reversed $275 $-1 #
edge $-1 $556 0 $556 6.2831853071796004 $276 $557 forward 7 unknown #
vertex $-1 $279 $558 #
ellipse-curve $-1 50.133478670750144 28.975471599007463 5.0983759432262419 0 0.77714596973225614 0.62932038083071107 1.5 0 0 1 I I #
face $-1 $-1 $295 $42 $-1 $559 reversed single #
loop $-1 $-1 $422 $280 #
plane-surface $-1 0 31.268630211875713 0 0 -1 0 0 0 -1 forward_v I I I I #
coedge $-1 $560 $420 $423 $561 forward $281 $-1 #
coedge $-1 $426 $283 $284 $414 reversed $177 $-1 #
coedge $-1 $420 $560 $283 $412 reversed $281 $-1 #
edge $-1 $427 -7.9301910698791334 $562 7.9301910698791334 $411 $563 forward 7 unknown #
coedge $-1 $285 $284 $560 $564 forward $113 $-1 #
edge $-1 $418 -57.244178594317454 $562 57.244178594317454 $410 $565 forward 7 unknown #
coedge $-1 $423 $422 $285 $416 reversed $407 $-1 #
edge $-1 $566 -57.244178594317454 $417 57.244178594317454 $415 $567 forward 7 unknown #
vertex $-1 $287 $568 #
vertex $-1 $429 $569 #
straight-curve $-1 57.244178594317454 0 -7.9301910698791334 0 -1 0 I I #
coedge $-1 $409 $411 $288 $421 reversed $281 $-1 #
edge $-1 $424 -31.268630211875713 $427 31.268630211875713 $420 $570 forward 7 unknown #
coedge $-1 $415 $289 $294 $430 forward $407 $-1 #
coedge $-1 $289 $415 $409 $561 reversed $407 $-1 #
vertex $-1 $290 $571 #
straight-curve $-1 0 31.268630211875713 7.9301910698791334 -1 0 0 I I #
coedge $-1 $291 $410 $293 $429 reversed $177 $-1 #
vertex $-1 $421 $572 #
straight-curve $-1 0 -31.268630211875713 7.9301910698791334 1 0 0 I I #
edge $-1 $296 -7.9301910698791334 $418 7.9301910698791334 $293 $573 forward 7 unknown #
edge $-1 $297 -7.9301910698791334 $417 7.9301910698791334 $294 $574 forward 7 unknown #
point $-1 57.244178594317454 -31.268630211875713 7.9301910698791334 #
point $-1 57.244178594317454 31.268630211875713 7.9301910698791334 #
face $-1 $-1 $575 $43 $-1 $576 reversed single #
loop $-1 $-1 $307 $299 #
plane-surface $-1 0 0 -7.9301910698791334 0 0 1 1 0 0 forward_v I I I I #
coedge $-1 $577 $302 $578 $579 reversed $185 $-1 #
coedge $-1 $302 $577 $440 $580 reversed $185 $-1 #
coedge $-1 $310 $309 $302 $439 reversed $300 $-1 #
edge $-1 $581 -7.9301910698791334 $582 7.9301910698791334 $438 $583 forward 7 unknown #
coedge $-1 $304 $303 $437 $580 forward $117 $-1 #
edge $-1 $312 -3.2739392203770024 $581 3.2739392203770024 $310 $584 forward 7 unknown #
coedge $-1 $585 $446 $304 $443 reversed $575 $-1 #
edge $-1 $586 -63.792057035071458 $444 -57.244178594317454 $442 $587 forward 7 unknown #
vertex $-1 $447 $588 #
straight-curve $-1 -57.244178594317454 0 7.9301910698791334 0 1 0 I I #
coedge $-1 $442 $589 $306 $447 forward $575 $-1 #
edge $-1 $450 -7.9301910698791334 $444 7.9301910698791334 $446 $590 forward 7 unknown #
coedge $-1 $578 $307 $589 $591 forward $434 $-1 #
coedge $-1 $307 $578 $309 $452 forward $434 $-1 #
vertex $-1 $591 $592 #
straight-curve $-1 -57.244178594317454 0 -7.9301910698791334 0 -1 0 I I #
edge $-1 $582 -3.2739392203770024 $311 3.2739392203770024 $309 $593 forward 7 unknown #
point $-1 -57.244178594317454 -28.247137141682746 -7.9301910698791334 #
point $-1 -57.244178594317454 -28.247137141682746 7.9301910698791334 #
loop $-1 $-1 $322 $314 #
plane-surface $-1 0 31.268630211875713 0 0 -1 0 0 0 -1 forward_v I I I I #
coedge $-1 $458 $317 $319 $462 reversed $193 $-1 #
coedge $-1 $317 $457 $594 $595 reversed $193 $-1 #
coedge $-1 $325 $320 $317 $460 forward $315 $-1 #
edge $-1 $463 -13.761098532013619 $596 -9.1747813062771293 $459 $597 forward 7 unknown #
coedge $-1 $319 $318 $466 $598 reversed $121 $-1 #
edge $-1 $599 -62.537260423751462 $463 -55.249530095230249 $457 $600 forward 7 unknown #
vertex $-1 $321 $601 #
straight-curve $-1 -20.455153182810527 26.682312986139223 7.930191069879136 1 0 0 I I #
coedge $-1 $594 $322 $325 $470 reversed $455 $-1 #
coedge $-1 $322 $594 $461 $598 forward $455 $-1 #
vertex $-1 $323 $602 #
straight-curve $-1 -47.152658715829531 31.268630211875713 61.45849862981126 0 0 1 I I #
straight-curve $-1 -47.152658715829531 -8.0873423341089108 50.867140712988316 0 0.62932038083071107 -0.77714596973225614 I I #
edge $-1 $596 34.667954015412576 $326 47.152658715829531 $465 $603 forward 7 unknown #
point $-1 -47.152658715829531 31.268630211875713 7.9301910698791334 #
point $-1 -47.152658715829531 26.682312986139223 7.930191069879136 #
edge $-1 $604 1 $604 0 $329 $-1 forward 7 unknown #
vertex $-1 $330 $605 #
ellipse-curve $-1 -43.585600229996118 27.61956332188084 4.0003830994535079 0 0.77714596973225614 0.62932038083071107 1.5 0 0 1 I I #
point $-1 -42.085600229996118 28.97547159900747 5.0983759432262463 #
edge $-1 $606 1 $606 0 $333 $-1 forward 7 unknown #
vertex $-1 $334 $607 #
ellipse-curve $-1 -38.23501250124599 27.61956332188084 4.0003830994535079 0 0.77714596973225614 0.62932038083071107 1.5 0 0 1 I I #
point $-1 -36.73501250124599 28.97547159900747 5.0983759432262463 #
loop $-1 $-1 $345 $337 #
plane-surface $-1 0 31.268630211875713 0 0 -1 0 0 0 -1 forward_v I I I I #
coedge $-1 $484 $340 $342 $488 reversed $215 $-1 #
coedge $-1 $340 $483 $608 $609 reversed $215 $-1 #
coedge $-1 $348 $343 $340 $486 forward $338 $-1 #
edge $-1 $489 -13.761098532013619 $610 -9.1747813062771293 $485 $611 forward 7 unknown #
coedge $-1 $342 $341 $492 $612 reversed $135 $-1 #
edge $-1 $613 -62.537260423751462 $489 -55.249530095230249 $483 $614 forward 7 unknown #
vertex $-1 $344 $615 #
straight-curve $-1 -5.7270713208111736 26.682312986139223 7.930191069879136 1 0 0 I I #
coedge $-1 $608 $345 $348 $496 reversed $481 $-1 #
coedge $-1 $345 $608 $487 $612 forward $481 $-1 #
vertex $-1 $346 $616 #
straight-curve $-1 -17.696494991830825 31.268630211875713 61.45849862981126 0 0 1 I I #
straight-curve $-1 -17.696494991830825 -8.0873423341089108 50.867140712988316 0 0.62932038083071107 -0.77714596973225614 I I #
edge $-1 $610 5.2117902914138678 $349 17.696494991830825 $491 $617 forward 7 unknown #
point $-1 -17.696494991830825 31.268630211875713 7.9301910698791334 #
point $-1 -17.696494991830825 26.682312986139223 7.930191069879136 #
edge $-1 $618 1 $618 0 $352 $-1 forward 7 unknown #
vertex $-1 $353 $619 #
ellipse-curve $-1 -14.129436505997411 27.61956332188084 4.0003830994535079 0 0.77714596973225614 0.62932038083071107 1.5 0 0 1 I I #
point $-1 -12.629436505997411 28.97547159900747 5.0983759432262463 #
edge $-1 $620 1 $620 0 $356 $-1 forward 7 unknown #
vertex $-1 $357 $621 #
ellipse-curve $-1 -8.7788487772472834 27.61956332188084 4.0003830994535079 0 0.77714596973225614 0.62932038083071107 1.5 0 0 1 I I #
point $-1 -7.2788487772472834 28.97547159900747 5.0983759432262463 #
loop $-1 $-1 $368 $360 #
plane-surface $-1 0 31.268630211875713 0 0 -1 0 0 0 -1 forward_v I I I I #
coedge $-1 $510 $363 $365 $514 reversed $237 $-1 #
coedge $-1 $363 $509 $622 $623 reversed $237 $-1 #
coedge $-1 $371 $366 $363 $512 forward $361 $-1 #
edge $-1 $515 -13.761098532013619 $624 -9.1747813062771293 $511 $625 forward 7 unknown #
coedge $-1 $365 $364 $518 $626 reversed $149 $-1 #
edge $-1 $627 -62.537260423751462 $515 -55.249530095230249 $509 $628 forward 7 unknown #
vertex $-1 $367 $629 #
straight-curve $-1 9.0010105411881831 26.682312986139223 7.930191069879136 1 0 0 I I #
coedge $-1 $622 $368 $371 $522 reversed $507 $-1 #
coedge $-1 $368 $622 $513 $626 forward $507 $-1 #
vertex $-1 $369 $630 #
straight-curve $-1 11.759668732167887 31.268630211875713 61.45849862981126 0 0 1 I I #
straight-curve $-1 11.759668732167887 -8.0873423341089108 50.867140712988316 0 0.62932038083071107 -0.77714596973225614 I I #
edge $-1 $624 -24.244373432584844 $372 -11.759668732167887 $517 $631 forward 7 unknown #
point $-1 11.759668732167887 31.268630211875713 7.9301910698791334 #
point $-1 11.759668732167887 26.682312986139223 7.930191069879136 #
edge $-1 $632 1 $632 0 $375 $-1 forward 7 unknown #
vertex $-1 $376 $633 #
ellipse-curve $-1 15.326727218001302 27.61956332188084 4.0003830994535079 0 0.77714596973225614 0.62932038083071107 1.5 0 0 1 I I #
point $-1 16.826727218001302 28.97547159900747 5.0983759432262463 #
edge $-1 $634 1 $634 0 $379 $-1 forward 7 unknown #
vertex $-1 $380 $635 #
ellipse-curve $-1 20.67731494675143 27.61956332188084 4.0003830994535079 0 0.77714596973225614 0.62932038083071107 1.5 0 0 1 I I #
point $-1 22.17731494675143 28.97547159900747 5.0983759432262463 #
loop $-1 $-1 $391 $383 #
plane-surface $-1 0 31.268630211875713 0 0 -1 0 0 0 -1 forward_v I I I I #
coedge $-1 $536 $386 $388 $540 reversed $259 $-1 #
coedge $-1 $386 $535 $636 $637 reversed $259 $-1 #
coedge $-1 $394 $389 $386 $538 forward $384 $-1 #
edge $-1 $541 -13.761098532013619 $638 -9.1747813062771293 $537 $639 forward 7 unknown #
coedge $-1 $388 $387 $544 $640 reversed $163 $-1 #
edge $-1 $641 -62.537260423751462 $541 -55.249530095230249 $535 $642 forward 7 unknown #
vertex $-1 $390 $643 #
straight-curve $-1 23.72909240318754 26.682312986139223 7.930191069879136 1 0 0 I I #
coedge $-1 $636 $391 $394 $548 reversed $533 $-1 #
coedge $-1 $391 $636 $539 $640 forward $533 $-1 #
vertex $-1 $392 $644 #
straight-curve $-1 41.215832456166602 31.268630211875713 61.45849862981126 0 0 1 I I #
straight-curve $-1 41.215832456166602 -8.0873423341089108 50.867140712988316 0 0.62932038083071107 -0.77714596973225614 I I #
edge $-1 $638 -53.700537156583557 $395 -41.215832456166602 $543 $645 forward 7 unknown #
point $-1 41.215832456166602 31.268630211875713 7.9301910698791334 #
point $-1 41.215832456166602 26.682312986139223 7.930191069879136 #
edge $-1 $646 1 $646 0 $398 $-1 forward 7 unknown #
vertex $-1 $399 $647 #
ellipse-curve $-1 44.782890942000016 27.61956332188084 4.0003830994535079 0 0.77714596973225614 0.62932038083071107 1.5 0 0 1 I I #
point $-1 46.282890942000016 28.97547159900747 5.0983759432262463 #
edge $-1 $648 1 $648 0 $402 $-1 forward 7 unknown #
vertex $-1 $403 $649 #
ellipse-curve $-1 50.133478670750144 27.61956332188084 4.0003830994535079 0 0.77714596973225614 0.62932038083071107 1.5 0 0 1 I I #
point $-1 51.633478670750144 28.97547159900747 5.0983759432262463 #
plane-surface $-1 57.244178594317454 0 0 -1 0 0 0 0 1 forward_v I I I I #
coedge $-1 $411 $409 $413 $564 reversed $281 $-1 #
edge $-1 $424 -7.9301910698791334 $566 7.9301910698791334 $423 $650 forward 7 unknown #
vertex $-1 $564 $651 #
straight-curve $-1 -57.244178594317454 -31.268630211875713 0 0 0 -1 I I #
edge $-1 $562 -31.268630211875713 $566 31.268630211875713 $560 $652 forward 7 unknown #
straight-curve $-1 0 -31.268630211875713 -7.9301910698791334 -1 0 0 I I #
vertex $-1 $416 $653 #
straight-curve $-1 0 31.268630211875713 -7.9301910698791334 1 0 0 I I #
point $-1 57.244178594317454 31.268630211875713 -7.9301910698791334 #
point $-1 57.244178594317454 -31.268630211875713 -7.9301910698791334 #
straight-curve $-1 -57.244178594317454 0 7.9301910698791334 0 -1 0 I I #
point $-1 -57.244178594317454 31.268630211875713 7.9301910698791334 #
point $-1 -57.244178594317454 -31.268630211875713 7.9301910698791334 #
straight-curve $-1 57.244178594317454 -31.268630211875713 0 0 0 -1 I I #
straight-curve $-1 57.244178594317454 31.268630211875713 0 0 0 -1 I I #
loop $-1 $-1 $446 $433 #
plane-surface $-1 0 -31.268630211875713 0 0 1 0 0 0 1 forward_v I I I I #
coedge $-1 $437 $436 $585 $654 reversed $185 $-1 #
coedge $-1 $449 $448 $436 $579 forward $434 $-1 #
edge $-1 $655 -1.5107465350964837 $582 1.5107465350964837 $436 $656 forward 7 unknown #
edge $-1 $581 -1.5107465350964837 $586 1.5107465350964837 $437 $657 forward 7 unknown #
vertex $-1 $441 $658 #
vertex $-1 $452 $659 #
straight-curve $-1 -63.792057035071458 -28.247137141682746 0 0 0 -1 I I #
straight-curve $-1 -60.518117814694456 -28.247137141682746 7.9301910698791334 -1 0 0 I I #
coedge $-1 $589 $442 $577 $654 forward $575 $-1 #
vertex $-1 $580 $660 #
straight-curve $-1 0 -31.268630211875713 7.9301910698791334 1 0 0 I I #
point $-1 -57.244178594317454 -31.268630211875713 7.9301910698791334 #
coedge $-1 $446 $585 $448 $591 reversed $575 $-1 #
straight-curve $-1 -57.244178594317454 -31.268630211875713 0 0 0 1 I I #
edge $-1 $450 -3.2739392203770024 $655 3.2739392203770024 $589 $661 forward 7 unknown #
point $-1 -57.244178594317454 -31.268630211875713 -7.9301910698791334 #
straight-curve $-1 -60.518117814694456 -28.247137141682746 -7.9301910698791334 1 0 0 I I #
coedge $-1 $466 $465 $458 $595 forward $455 $-1 #
edge $-1 $596 53.528307559932124 $599 59.191937813237914 $594 $662 forward 7 unknown #
vertex $-1 $470 $663 #
straight-curve $-1 -34.667954015412576 40.443411518152843 7.930191069879136 0 1 0 I I #
edge $-1 $599 14.212800832602049 $467 26.697505533019005 $466 $664 forward 7 unknown #
vertex $-1 $598 $665 #
straight-curve $-1 -34.667954015412576 -8.0873423341089108 50.867140712988316 0 -0.62932038083071107 0.77714596973225614 I I #
point $-1 -34.667954015412576 26.682312986139223 7.930191069879136 #
point $-1 -47.152658715829531 31.268630211875717 2.266560816573346 #
straight-curve $-1 0 31.268630211875713 7.9301910698791334 -1 0 0 I I #
vertex $-1 $473 $666 #
point $-1 -42.085600229996118 27.61956332188084 4.0003830994535079 #
vertex $-1 $477 $667 #
point $-1 -36.73501250124599 27.61956332188084 4.0003830994535079 #
coedge $-1 $492 $491 $484 $609 forward $481 $-1 #
edge $-1 $610 53.528307559932124 $613 59.191937813237914 $608 $668 forward 7 unknown #
vertex $-1 $496 $669 #
straight-curve $-1 -5.2117902914138678 40.443411518152843 7.930191069879136 0 1 0 I I #
edge $-1 $613 -0.5152810293973058 $493 11.969423671019651 $492 $670 forward 7 unknown #
vertex $-1 $612 $671 #
straight-curve $-1 -5.2117902914138678 -8.0873423341089108 50.867140712988316 0 -0.62932038083071107 0.77714596973225614 I I #
point $-1 -5.2117902914138678 26.682312986139223 7.930191069879136 #
point $-1 -17.696494991830825 31.268630211875717 2.266560816573346 #
straight-curve $-1 0 31.268630211875713 7.9301910698791334 -1 0 0 I I #
vertex $-1 $499 $672 #
point $-1 -12.629436505997411 27.61956332188084 4.0003830994535079 #
vertex $-1 $503 $673 #
point $-1 -7.2788487772472834 27.61956332188084 4.0003830994535079 #
coedge $-1 $518 $517 $510 $623 forward $507 $-1 #
edge $-1 $624 53.528307559932124 $627 59.191937813237914 $622 $674 forward 7 unknown #
vertex $-1 $522 $675 #
straight-curve $-1 24.244373432584844 40.443411518152843 7.930191069879136 0 1 0 I I #
edge $-1 $627 -15.243362891396661 $519 -2.7586581909797037 $518 $676 forward 7 unknown #
vertex $-1 $626 $677 #
straight-curve $-1 24.244373432584844 -8.0873423341089108 50.867140712988316 0 -0.62932038083071107 0.77714596973225614 I I #
point $-1 24.244373432584844 26.682312986139223 7.930191069879136 #
point $-1 11.759668732167887 31.268630211875717 2.266560816573346 #
straight-curve $-1 0 31.268630211875713 7.9301910698791334 -1 0 0 I I #
vertex $-1 $525 $678 #
point $-1 16.826727218001302 27.61956332188084 4.0003830994535079 #
vertex $-1 $529 $679 #
point $-1 22.17731494675143 27.61956332188084 4.0003830994535079 #
coedge $-1 $544 $543 $536 $637 forward $533 $-1 #
edge $-1 $638 53.528307559932124 $641 59.191937813237914 $636 $680 forward 7 unknown #
vertex $-1 $548 $681 #
straight-curve $-1 53.700537156583557 40.443411518152843 7.930191069879136 0 1 0 I I #
edge $-1 $641 -29.971444753396018 $545 -17.486740052979062 $544 $682 forward 7 unknown #
vertex $-1 $640 $683 #
straight-curve $-1 53.700537156583557 -8.0873423341089108 50.867140712988316 0 -0.62932038083071107 0.77714596973225614 I I #
point $-1 53.700537156583557 26.682312986139223 7.930191069879136 #
point $-1 41.215832456166602 31.268630211875717 2.266560816573346 #
straight-curve $-1 0 31.268630211875713 7.9301910698791334 -1 0 0 I I #
vertex $-1 $551 $684 #
point $-1 46.282890942000016 27.61956332188084 4.0003830994535079 #
vertex $-1 $555 $685 #
point $-1 51.633478670750144 27.61956332188084 4.0003830994535079 #
straight-curve $-1 -57.244178594317454 31.268630211875713 0 0 0 -1 I I #
point $-1 -57.244178594317454 -31.268630211875713 -7.9301910698791334 #
straight-curve $-1 -57.244178594317454 0 -7.9301910698791334 0 1 0 I I #
point $-1 -57.244178594317454 31.268630211875713 -7.9301910698791334 #
edge $-1 $586 -7.9301910698791334 $655 7.9301910698791334 $577 $686 forward 7 unknown #
vertex $-1 $579 $687 #
straight-curve $-1 -63.792057035071458 -29.75788367677923 -7.9301910698791334 0 1 0 I I #
straight-curve $-1 -63.792057035071458 -29.75788367677923 7.9301910698791334 0 -1 0 I I #
point $-1 -63.792057035071458 -28.247137141682746 7.9301910698791334 #
point $-1 -63.792057035071458 -28.247137141682746 -7.9301910698791334 #
point $-1 -63.792057035071458 -31.268630211875713 7.9301910698791334 #
straight-curve $-1 -60.518117814694456 -31.268630211875713 -7.9301910698791334 -1 0 0 I I #
straight-curve $-1 -34.667954015412576 31.268630211875713 61.45849862981126 0 0 -1 I I #
point $-1 -34.667954015412576 31.268630211875713 7.9301910698791334 #
straight-curve $-1 -20.455153182810527 31.26863021187571 2.2665608165733389 -1 0 0 I I #
point $-1 -34.667954015412576 31.268630211875717 2.266560816573346 #
point $-1 -43.585600229996118 26.453844367282457 3.0564025282074412 #
point $-1 -38.23501250124599 26.453844367282457 3.0564025282074412 #
straight-curve $-1 -5.2117902914138678 31.268630211875713 61.45849862981126 0 0 -1 I I #
point $-1 -5.2117902914138678 31.268630211875713 7.9301910698791334 #
straight-curve $-1 -5.7270713208111736 31.26863021187571 2.2665608165733389 -1 0 0 I I #
point $-1 -5.2117902914138678 31.268630211875717 2.266560816573346 #
point $-1 -14.129436505997411 26.453844367282457 3.0564025282074412 #
point $-1 -8.7788487772472834 26.453844367282457 3.0564025282074412 #
straight-curve $-1 24.244373432584844 31.268630211875713 61.45849862981126 0 0 -1 I I #
point $-1 24.244373432584844 31.268630211875713 7.9301910698791334 #
straight-curve $-1 9.0010105411881831 31.26863021187571 2.2665608165733389 -1 0 0 I I #
point $-1 24.244373432584844 31.268630211875717 2.266560816573346 #
point $-1 15.326727218001302 26.453844367282457 3.0564025282074412 #
point $-1 20.67731494675143 26.453844367282457 3.0564025282074412 #
straight-curve $-1 53.700537156583557 31.268630211875713 61.45849862981126 0 0 -1 I I #
point $-1 53.700537156583557 31.268630211875713 7.9301910698791334 #
straight-curve $-1 23.72909240318754 31.26863021187571 2.2665608165733389 -1 0 0 I I #
point $-1 53.700537156583557 31.268630211875717 2.266560816573346 #
point $-1 44.782890942000016 26.453844367282457 3.0564025282074412 #
point $-1 50.133478670750144 26.453844367282457 3.0564025282074412 #
straight-curve $-1 -63.792057035071458 -31.268630211875713 0 0 0 -1 I I #
point $-1 -63.792057035071458 -31.268630211875713 -7.9301910698791334 #
End-of-ACIS-data 