500 0 9 0           
7 Unknown 11 ACIS 5.0 NT 24 Thu Mar 25 17:16:17 1999 
-1 9.9999999999999995e-007 1e-010 
body $-1 $9 $-1 $10 #
body $-1 $11 $-1 $12 #
body $-1 $13 $-1 $14 #
body $-1 $15 $-1 $16 #
body $-1 $17 $-1 $18 #
body $-1 $19 $-1 $20 #
body $-1 $21 $-1 $22 #
body $-1 $23 $-1 $24 #
body $-1 $25 $-1 $26 #
lump $-1 $-1 $27 $0 #
transform $-1 1 0 0 0 1 0 0 0 1 78.071230201116975 46.688582763328583 18.958981430472654 1 rotate no_reflect no_shear #
lump $-1 $-1 $28 $1 #
transform $-1 1 0 0 0 1 0 0 0 1 78.071230201116975 46.688582763328583 18.958981430472654 1 rotate no_reflect no_shear #
lump $-1 $-1 $29 $2 #
transform $-1 1 0 0 0 1 0 0 0 1 78.071230201116975 46.688582763328583 18.958981430472654 1 rotate no_reflect no_shear #
lump $-1 $-1 $30 $3 #
transform $-1 1 0 0 0 1 0 0 0 1 78.071230201116975 46.688582763328583 18.958981430472654 1 rotate no_reflect no_shear #
lump $-1 $-1 $31 $4 #
transform $-1 1 0 0 0 1 0 0 0 1 78.071230201116975 46.688582763328583 18.958981430472654 1 rotate no_reflect no_shear #
lump $-1 $-1 $32 $5 #
transform $-1 1 0 0 0 1 0 0 0 1 78.071230201116975 46.688582763328583 18.958981430472654 1 rotate no_reflect no_shear #
lump $-1 $-1 $33 $6 #
transform $-1 1 0 0 0 1 0 0 0 1 78.071230201116975 46.688582763328583 18.958981430472654 1 rotate no_reflect no_shear #
lump $-1 $-1 $34 $7 #
transform $-1 1 0 0 0 1 0 0 0 1 78.071230201116975 46.688582763328583 18.958981430472654 1 rotate no_reflect no_shear #
lump $-1 $-1 $35 $8 #
transform $-1 1 0 0 0 1 0 0 0 1 78.071230201116975 46.688582763328583 18.958981430472654 1 rotate no_reflect no_shear #
shell $-1 $-1 $-1 $36 $-1 $9 #
shell $-1 $-1 $-1 $37 $-1 $11 #
shell $-1 $-1 $-1 $38 $-1 $13 #
shell $-1 $-1 $-1 $39 $-1 $15 #
shell $-1 $-1 $-1 $40 $-1 $17 #
shell $-1 $-1 $-1 $41 $-1 $19 #
shell $-1 $-1 $-1 $42 $-1 $21 #
shell $-1 $-1 $-1 $43 $-1 $23 #
shell $-1 $-1 $-1 $44 $-1 $25 #
face $-1 $45 $46 $27 $-1 $47 forward single #
face $-1 $48 $49 $28 $-1 $50 forward single #
face $-1 $51 $52 $29 $-1 $53 reversed single #
face $-1 $54 $55 $30 $-1 $56 forward single #
face $-1 $57 $58 $31 $-1 $59 reversed single #
face $-1 $60 $61 $32 $-1 $62 forward single #
face $-1 $63 $64 $33 $-1 $65 reversed single #
face $-1 $66 $67 $34 $-1 $68 forward single #
face $-1 $69 $70 $35 $-1 $71 forward single #
face $-1 $72 $73 $27 $-1 $74 reversed single #
loop $-1 $-1 $75 $36 #
plane-surface $-1 0 0 18.958981430472654 0 0 1 1 0 0 forward_v I I I I #
face $-1 $76 $77 $28 $-1 $78 reversed single #
loop $-1 $-1 $79 $37 #
plane-surface $-1 0 -46.688582763328583 0 0 1 0 0 0 1 forward_v I I I I #
face $-1 $80 $81 $29 $-1 $82 reversed single #
loop $-1 $-1 $83 $38 #
plane-surface $-1 -201.11316938155383 -22.980766374554435 109.35609751110681 0 1 0 -0.78801076186113728 0 0.61566146476048833 forward_v I I I I #
face $-1 $84 $85 $30 $-1 $86 forward single #
loop $-1 $87 $88 $39 #
cone-surface $-1 -75.0592319119378 -14.056441475070855 15.488830851118838 0.78801076186113728 0 -0.61566146476048833 0.30783073238024417 0 0.39400538093056864 1 I I 0 1 0.5 forward I I I I #
face $-1 $89 $90 $31 $-1 $91 reversed single #
loop $-1 $-1 $92 $40 #
plane-surface $-1 -201.11316938155383 15.502066965101619 109.35609751110681 0 1 0 -0.78801076186113728 0 0.61566146476048833 forward_v I I I I #
face $-1 $93 $94 $32 $-1 $95 forward single #
loop $-1 $96 $97 $41 #
cone-surface $-1 -75.0592319119378 24.426391864585199 15.488830851118838 0.78801076186113728 0 -0.61566146476048833 0.30783073238024417 0 0.39400538093056864 1 I I 0 1 0.5 forward I I I I #
face $-1 $98 $99 $33 $-1 $100 reversed single #
loop $-1 $-1 $101 $42 #
plane-surface $-1 66.514470311178798 1.4294370545219373 231.87646972194517 0 -1 0 -0.66913061440640931 0 -0.74314481823134659 forward_v I I I I #
face $-1 $102 $103 $34 $-1 $104 forward single #
loop $-1 $105 $106 $43 #
cone-surface $-1 72.851691199007689 -8.7625098820043021 14.049089659862117 -0.66913061440640931 0 -0.74314481823134659 1.4862896364626932 0 -1.3382612288128186 1 I I 0 1 2 forward I I I I #
face $-1 $107 $108 $35 $-1 $109 forward single #
loop $-1 $110 $111 $44 #
cone-surface $-1 72.851691199007689 -2.6473417200885621 14.049089659862117 -0.66913061440640931 0 -0.74314481823134659 1.4862896364626932 0 -1.3382612288128186 1 I I 0 1 2 forward I I I I #
face $-1 $112 $113 $27 $-1 $114 reversed single #
loop $-1 $-1 $115 $45 #
plane-surface $-1 0 0 -18.958981430472654 0 0 1 1 0 0 forward_v I I I I #
coedge $-1 $116 $117 $118 $119 forward $46 $-1 #
face $-1 $120 $121 $28 $-1 $122 reversed single #
loop $-1 $-1 $123 $48 #
plane-surface $-1 0 0 -18.958981430472654 0 0 1 1 0 0 forward_v I I I I #
coedge $-1 $124 $125 $126 $127 forward $49 $-1 #
face $-1 $128 $129 $29 $-1 $130 reversed single #
loop $-1 $-1 $131 $51 #
plane-surface $-1 -78.07123020111699 -14.056441475070855 13.22520162856091 -0.78801076186113728 0 0.61566146476048833 0.61566146476048833 0 0.78801076186113728 forward_v I I I I #
coedge $-1 $132 $133 $134 $135 reversed $52 $-1 #
face $-1 $-1 $136 $30 $-1 $137 forward single #
loop $-1 $138 $139 $54 #
cone-surface $-1 -74.090090742787396 -14.056441475070855 14.731654806530784 0.78801076186113728 0 -0.61566146476048833 0.15391536619012208 0 0.19700269046528432 1 I I -0.70710678118654746 0.70710678118654746 0.25 forward I I I I #
loop $-1 $-1 $140 $39 #
coedge $-1 $88 $88 $141 $142 reversed $55 $-1 #
face $-1 $143 $144 $31 $-1 $145 reversed single #
loop $-1 $-1 $146 $57 #
plane-surface $-1 -78.07123020111699 24.426391864585199 13.22520162856091 -0.78801076186113728 0 0.61566146476048833 0.61566146476048833 0 0.78801076186113728 forward_v I I I I #
coedge $-1 $147 $148 $149 $150 reversed $58 $-1 #
face $-1 $-1 $151 $32 $-1 $152 forward single #
loop $-1 $153 $154 $60 #
cone-surface $-1 -74.090090742787396 24.426391864585199 14.731654806530784 0.78801076186113728 0 -0.61566146476048833 0.15391536619012208 0 0.19700269046528432 1 I I -0.70710678118654746 0.70710678118654746 0.25 forward I I I I #
loop $-1 $-1 $155 $41 #
coedge $-1 $97 $97 $156 $157 reversed $61 $-1 #
face $-1 $158 $159 $33 $-1 $160 reversed single #
loop $-1 $-1 $161 $63 #
plane-surface $-1 -37.965230152696435 -5.7049258010464285 115.84000936813179 0.66913061440640931 0 0.74314481823134659 0.74314481823134659 0 -0.66913061440640931 forward_v I I I I #
coedge $-1 $162 $163 $164 $165 reversed $64 $-1 #
face $-1 $-1 $166 $34 $-1 $167 forward single #
loop $-1 $168 $169 $66 #
cone-surface $-1 71.182611892452513 -8.7625098820043021 12.195389334128272 -0.66913061440640931 0 -0.74314481823134659 0.74314481823134659 0 -0.66913061440640931 1 I I -0.70710678118654746 0.70710678118654746 1 forward I I I I #
loop $-1 $-1 $170 $43 #
coedge $-1 $106 $106 $171 $172 reversed $67 $-1 #
face $-1 $-1 $173 $35 $-1 $174 forward single #
loop $-1 $175 $176 $69 #
cone-surface $-1 71.182611892452513 -2.6473417200885621 12.195389334128272 -0.66913061440640931 0 -0.74314481823134659 0.74314481823134659 0 -0.66913061440640931 1 I I -0.70710678118654746 0.70710678118654746 1 forward I I I I #
loop $-1 $-1 $177 $44 #
coedge $-1 $111 $111 $178 $179 reversed $70 $-1 #
face $-1 $180 $181 $27 $-1 $182 reversed single #
loop $-1 $-1 $183 $72 #
plane-surface $-1 0 -46.688582763328583 0 0 1 0 0 0 1 forward_v I I I I #
coedge $-1 $184 $185 $186 $187 forward $73 $-1 #
coedge $-1 $188 $75 $189 $190 forward $46 $-1 #
coedge $-1 $75 $188 $191 $192 forward $46 $-1 #
coedge $-1 $193 $194 $75 $119 reversed $195 $-1 #
edge $-1 $196 -46.688582763328583 $197 46.688582763328583 $118 $198 forward 7 unknown #
face $-1 $199 $200 $28 $-1 $201 reversed single #
loop $-1 $-1 $202 $76 #
plane-surface $-1 -44.73606748727267 -63.100081610673641 0 0 1 0 0 0 1 forward_v I I I I #
coedge $-1 $203 $204 $125 $205 forward $77 $-1 #
coedge $-1 $206 $79 $207 $208 reversed $49 $-1 #
coedge $-1 $79 $206 $123 $205 reversed $49 $-1 #
coedge $-1 $209 $210 $79 $127 reversed $200 $-1 #
edge $-1 $211 -18.958981430472654 $212 18.958981430472654 $126 $213 forward 7 unknown #
face $-1 $214 $215 $29 $-1 $216 reversed single #
loop $-1 $-1 $217 $80 #
plane-surface $-1 -201.11316938155383 -5.1321165755872755 109.35609751110681 0 -1 0 0.78801076186113728 0 -0.61566146476048833 forward_v I I I I #
coedge $-1 $218 $219 $220 $221 reversed $81 $-1 #
coedge $-1 $133 $83 $222 $223 reversed $52 $-1 #
coedge $-1 $83 $132 $218 $224 reversed $52 $-1 #
coedge $-1 $220 $225 $83 $135 forward $226 $-1 #
edge $-1 $227 22.48535448965994 $228 26.96507411064799 $134 $229 forward 7 unknown #
loop $-1 $-1 $141 $84 #
plane-surface $-1 -78.07123020111699 -14.056441475070855 13.22520162856091 -0.78801076186113728 0 0.61566146476048833 0.61566146476048833 0 0.78801076186113728 forward_v I I I I #
loop $-1 $-1 $230 $54 #
coedge $-1 $139 $139 $140 $231 reversed $85 $-1 #
coedge $-1 $140 $140 $139 $231 forward $87 $-1 #
coedge $-1 $141 $141 $88 $142 forward $136 $-1 #
edge $-1 $232 0 $232 6.2831853071796004 $141 $233 forward 7 unknown #
face $-1 $234 $235 $31 $-1 $236 forward single #
loop $-1 $-1 $237 $89 #
plane-surface $-1 -201.11316938155383 33.350716764068778 109.35609751110681 0 -1 0 0.78801076186113728 0 -0.61566146476048833 forward_v I I I I #
coedge $-1 $238 $239 $240 $241 reversed $90 $-1 #
coedge $-1 $148 $92 $242 $243 reversed $58 $-1 #
coedge $-1 $92 $147 $238 $244 reversed $58 $-1 #
coedge $-1 $240 $245 $92 $150 forward $235 $-1 #
edge $-1 $246 22.48535448965994 $247 26.96507411064799 $149 $248 forward 7 unknown #
loop $-1 $-1 $156 $93 #
plane-surface $-1 -78.07123020111699 24.426391864585199 13.22520162856091 -0.78801076186113728 0 0.61566146476048833 0.61566146476048833 0 0.78801076186113728 forward_v I I I I #
loop $-1 $-1 $249 $60 #
coedge $-1 $154 $154 $155 $250 reversed $94 $-1 #
coedge $-1 $155 $155 $154 $250 forward $96 $-1 #
coedge $-1 $156 $156 $97 $157 forward $151 $-1 #
edge $-1 $251 0 $251 6.2831853071796004 $156 $252 forward 7 unknown #
face $-1 $253 $254 $33 $-1 $255 forward single #
loop $-1 $-1 $256 $98 #
plane-surface $-1 66.514470311178798 -12.839288656614794 231.87646972194517 0 1 0 0.66913061440640931 0 0.74314481823134659 forward_v I I I I #
coedge $-1 $257 $258 $259 $260 reversed $99 $-1 #
coedge $-1 $163 $101 $261 $262 reversed $64 $-1 #
coedge $-1 $101 $162 $257 $263 reversed $64 $-1 #
coedge $-1 $259 $264 $101 $165 forward $254 $-1 #
edge $-1 $265 -44.813995045527577 $266 -36.374814425606559 $164 $267 forward 7 unknown #
loop $-1 $-1 $171 $102 #
plane-surface $-1 -37.965230152696435 -5.7049258010464285 115.84000936813179 0.66913061440640931 0 0.74314481823134659 0.74314481823134659 0 -0.66913061440640931 forward_v I I I I #
loop $-1 $-1 $268 $66 #
coedge $-1 $169 $169 $170 $269 reversed $103 $-1 #
coedge $-1 $170 $170 $169 $269 forward $105 $-1 #
coedge $-1 $171 $171 $106 $172 forward $166 $-1 #
edge $-1 $270 0 $270 6.2831853071796004 $171 $271 forward 7 unknown #
loop $-1 $-1 $178 $107 #
plane-surface $-1 -37.965230152696435 -5.7049258010464285 115.84000936813179 0.66913061440640931 0 0.74314481823134659 0.74314481823134659 0 -0.66913061440640931 forward_v I I I I #
loop $-1 $-1 $272 $69 #
coedge $-1 $176 $176 $177 $273 reversed $108 $-1 #
coedge $-1 $177 $177 $176 $273 forward $110 $-1 #
coedge $-1 $178 $178 $111 $179 forward $173 $-1 #
edge $-1 $274 0 $274 6.2831853071796004 $178 $275 forward 7 unknown #
face $-1 $276 $277 $27 $-1 $278 reversed single #
loop $-1 $-1 $279 $112 #
plane-surface $-1 -78.071230201116975 0 0 1 0 0 0 0 -1 forward_v I I I I #
coedge $-1 $280 $191 $281 $282 forward $113 $-1 #
coedge $-1 $283 $115 $280 $284 forward $73 $-1 #
coedge $-1 $115 $283 $285 $286 forward $73 $-1 #
coedge $-1 $194 $193 $115 $187 reversed $195 $-1 #
edge $-1 $287 -46.688582763328583 $288 46.688582763328583 $186 $289 forward 7 unknown #
coedge $-1 $117 $116 $290 $291 forward $46 $-1 #
coedge $-1 $292 $293 $116 $190 reversed $277 $-1 #
edge $-1 $197 -78.071230201116975 $294 78.071230201116975 $189 $295 forward 7 unknown #
coedge $-1 $183 $296 $117 $192 reversed $113 $-1 #
edge $-1 $297 -78.071230201116975 $196 78.071230201116975 $191 $298 forward 7 unknown #
coedge $-1 $186 $118 $296 $299 forward $195 $-1 #
coedge $-1 $118 $186 $292 $300 reversed $195 $-1 #
loop $-1 $-1 $193 $276 #
vertex $-1 $119 $301 #
vertex $-1 $119 $302 #
straight-curve $-1 78.071230201116975 0 18.958981430472654 0 1 0 I I #
face $-1 $303 $304 $28 $-1 $305 reversed single #
loop $-1 $-1 $126 $120 #
plane-surface $-1 -49.318867634373674 -54.894332187001112 0 1 0 0 0 0 -1 forward_v I I I I #
coedge $-1 $306 $307 $308 $309 forward $121 $-1 #
coedge $-1 $310 $123 $311 $312 forward $77 $-1 #
coedge $-1 $123 $310 $209 $313 forward $77 $-1 #
edge $-1 $211 -49.318867634373674 $314 -40.153267340171666 $123 $315 forward 7 unknown #
coedge $-1 $125 $124 $316 $317 forward $49 $-1 #
coedge $-1 $318 $319 $124 $208 forward $320 $-1 #
edge $-1 $321 40.153267340171666 $212 49.318867634373674 $207 $322 forward 7 unknown #
coedge $-1 $308 $126 $204 $313 reversed $200 $-1 #
coedge $-1 $126 $308 $318 $323 reversed $200 $-1 #
vertex $-1 $205 $324 #
vertex $-1 $323 $325 #
straight-curve $-1 -49.318867634373674 -46.688582763328583 0 0 0 1 I I #
face $-1 $-1 $226 $29 $-1 $326 forward single #
loop $-1 $-1 $327 $128 #
plane-surface $-1 -78.071230201116975 0 0 1 0 0 0 0 -1 forward_v I I I I #
coedge $-1 $328 $329 $330 $331 reversed $129 $-1 #
coedge $-1 $332 $131 $133 $224 forward $81 $-1 #
coedge $-1 $131 $332 $328 $333 forward $81 $-1 #
coedge $-1 $330 $134 $131 $221 forward $226 $-1 #
edge $-1 $228 -15.952545637019007 $334 1.896104161948152 $220 $335 forward 7 unknown #
coedge $-1 $336 $337 $132 $223 forward $215 $-1 #
edge $-1 $338 -41.452847126992481 $227 -35.719067325080751 $222 $339 forward 7 unknown #
edge $-1 $228 -7.2762709336222855 $338 -2.274695869299009e-014 $133 $340 forward 7 unknown #
coedge $-1 $134 $330 $336 $341 forward $226 $-1 #
loop $-1 $-1 $330 $214 #
vertex $-1 $223 $342 #
vertex $-1 $135 $343 #
straight-curve $-1 -100.55658469077692 -22.980766374554435 18.958981430472654 1 0 0 I I #
coedge $-1 $230 $230 $-1 $344 reversed $138 $-1 #
edge $-1 $345 0 $345 6.2831853071796004 $139 $346 forward 7 unknown #
vertex $-1 $142 $347 #
ellipse-curve $-1 -75.831370390622951 -14.056441475070855 16.092091529516789 -0.78801076186113728 0 0.61566146476048833 0.30783073238024417 0 0.39400538093056864 1 I I #
face $-1 $-1 $348 $31 $-1 $349 reversed single #
loop $-1 $-1 $149 $143 #
plane-surface $-1 0 0 18.958981430472654 0 0 1 1 0 0 forward_v I I I I #
coedge $-1 $350 $351 $352 $353 reversed $144 $-1 #
coedge $-1 $354 $146 $148 $244 forward $90 $-1 #
coedge $-1 $146 $354 $350 $355 forward $90 $-1 #
coedge $-1 $352 $149 $146 $241 forward $235 $-1 #
edge $-1 $247 3.2888710328090198 $356 21.137520831776179 $240 $357 forward 7 unknown #
coedge $-1 $358 $359 $147 $243 forward $348 $-1 #
edge $-1 $360 -41.452847126992481 $246 -35.719067325080751 $242 $361 forward 7 unknown #
edge $-1 $247 -7.2762709336222855 $360 -2.274695869299009e-014 $148 $362 forward 7 unknown #
coedge $-1 $149 $352 $358 $363 forward $235 $-1 #
vertex $-1 $150 $364 #
vertex $-1 $150 $365 #
straight-curve $-1 -100.55658469077692 15.502066965101619 18.958981430472654 1 0 0 I I #
coedge $-1 $249 $249 $-1 $366 reversed $153 $-1 #
edge $-1 $367 0 $367 6.2831853071796004 $154 $368 forward 7 unknown #
vertex $-1 $157 $369 #
ellipse-curve $-1 -75.831370390622951 24.426391864585199 16.092091529516789 -0.78801076186113728 0 0.61566146476048833 0.30783073238024417 0 0.39400538093056864 1 I I #
face $-1 $-1 $370 $33 $-1 $371 reversed single #
loop $-1 $-1 $164 $158 #
plane-surface $-1 0 0 18.958981430472654 0 0 1 1 0 0 forward_v I I I I #
coedge $-1 $372 $373 $374 $375 reversed $159 $-1 #
coedge $-1 $376 $161 $163 $263 forward $99 $-1 #
coedge $-1 $161 $376 $372 $377 forward $99 $-1 #
coedge $-1 $374 $164 $161 $260 forward $254 $-1 #
edge $-1 $266 -4.2818999550451515 $378 9.9868257560915801 $259 $379 forward 7 unknown #
coedge $-1 $380 $381 $162 $262 forward $370 $-1 #
edge $-1 $382 -104.57792595671606 $265 -96.979253430499938 $261 $383 forward 7 unknown #
edge $-1 $266 144.78642263828118 $382 156.14246040223398 $163 $384 forward 7 unknown #
coedge $-1 $164 $374 $380 $385 forward $254 $-1 #
vertex $-1 $165 $386 #
vertex $-1 $165 $387 #
straight-curve $-1 33.257235155589399 1.4294370545219373 18.958981430472647 -1 0 0 I I #
coedge $-1 $268 $268 $-1 $388 reversed $168 $-1 #
edge $-1 $389 0 $389 6.2831853071796004 $169 $390 forward 7 unknown #
vertex $-1 $172 $391 #
ellipse-curve $-1 73.851639891156452 -8.7625098820043021 15.159645167364605 0.66913061440640931 0 0.74314481823134659 1.4862896364626932 0 -1.3382612288128186 1 I I #
coedge $-1 $272 $272 $-1 $392 reversed $175 $-1 #
edge $-1 $393 0 $393 6.2831853071796004 $176 $394 forward 7 unknown #
vertex $-1 $179 $395 #
ellipse-curve $-1 73.851639891156452 -2.6473417200885621 15.159645167364605 0.66913061440640931 0 0.74314481823134659 1.4862896364626932 0 -1.3382612288128186 1 I I #
face $-1 $-1 $195 $27 $-1 $396 reversed single #
loop $-1 $-1 $292 $180 #
plane-surface $-1 0 46.688582763328583 0 0 -1 0 0 0 -1 forward_v I I I I #
coedge $-1 $397 $290 $293 $398 forward $181 $-1 #
coedge $-1 $296 $183 $184 $284 reversed $113 $-1 #
coedge $-1 $290 $397 $183 $282 reversed $181 $-1 #
edge $-1 $297 -18.958981430472654 $399 18.958981430472654 $281 $400 forward 7 unknown #
coedge $-1 $185 $184 $397 $401 forward $73 $-1 #
edge $-1 $288 -78.071230201116975 $399 78.071230201116975 $280 $402 forward 7 unknown #
coedge $-1 $293 $292 $185 $286 reversed $277 $-1 #
edge $-1 $403 -78.071230201116975 $287 78.071230201116975 $285 $404 forward 7 unknown #
vertex $-1 $187 $405 #
vertex $-1 $299 $406 #
straight-curve $-1 78.071230201116975 0 -18.958981430472654 0 -1 0 I I #
coedge $-1 $279 $281 $188 $291 reversed $181 $-1 #
edge $-1 $294 -46.688582763328583 $297 46.688582763328583 $290 $407 forward 7 unknown #
coedge $-1 $285 $189 $194 $300 forward $277 $-1 #
coedge $-1 $189 $285 $279 $398 reversed $277 $-1 #
vertex $-1 $190 $408 #
straight-curve $-1 0 46.688582763328583 18.958981430472654 -1 0 0 I I #
coedge $-1 $191 $280 $193 $299 reversed $113 $-1 #
vertex $-1 $291 $409 #
straight-curve $-1 0 -46.688582763328583 18.958981430472654 1 0 0 I I #
edge $-1 $196 -18.958981430472654 $288 18.958981430472654 $193 $410 forward 7 unknown #
edge $-1 $197 -18.958981430472654 $287 18.958981430472654 $194 $411 forward 7 unknown #
point $-1 78.071230201116975 -46.688582763328583 18.958981430472654 #
point $-1 78.071230201116975 46.688582763328583 18.958981430472654 #
face $-1 $-1 $320 $28 $-1 $412 forward single #
loop $-1 $-1 $413 $199 #
plane-surface $-1 -40.153267340171666 -54.894332187001112 0 -1 0 0 0 0 1 forward_v I I I I #
coedge $-1 $414 $202 $310 $415 reversed $121 $-1 #
coedge $-1 $202 $414 $416 $417 reversed $121 $-1 #
coedge $-1 $210 $209 $202 $309 reversed $200 $-1 #
edge $-1 $418 -18.958981430472654 $419 18.958981430472654 $308 $420 forward 7 unknown #
coedge $-1 $204 $203 $306 $415 forward $77 $-1 #
coedge $-1 $316 $413 $203 $312 reversed $304 $-1 #
edge $-1 $314 -8.205749423672529 $421 8.205749423672529 $311 $422 forward 7 unknown #
edge $-1 $419 -8.205749423672529 $211 8.205749423672529 $209 $423 forward 7 unknown #
vertex $-1 $312 $424 #
straight-curve $-1 0 -46.688582763328583 -18.958981430472654 1 0 0 I I #
coedge $-1 $425 $311 $206 $317 reversed $304 $-1 #
edge $-1 $321 -18.958981430472654 $314 18.958981430472654 $316 $426 forward 7 unknown #
coedge $-1 $416 $207 $210 $323 forward $320 $-1 #
coedge $-1 $207 $416 $425 $427 forward $320 $-1 #
loop $-1 $-1 $207 $303 #
vertex $-1 $208 $428 #
straight-curve $-1 0 -46.688582763328583 18.958981430472654 -1 0 0 I I #
edge $-1 $212 -8.205749423672529 $418 8.205749423672529 $210 $429 forward 7 unknown #
point $-1 -49.318867634373674 -46.688582763328583 -18.958981430472654 #
point $-1 -49.318867634373674 -46.688582763328583 18.958981430472654 #
plane-surface $-1 0 0 18.958981430472654 0 0 1 1 0 0 forward_v I I I I #
coedge $-1 $337 $336 $329 $430 forward $215 $-1 #
coedge $-1 $329 $217 $219 $333 reversed $129 $-1 #
coedge $-1 $217 $328 $327 $430 reversed $129 $-1 #
coedge $-1 $225 $220 $217 $331 forward $226 $-1 #
edge $-1 $334 -26.96507411064799 $431 -22.48535448965994 $330 $432 forward 7 unknown #
coedge $-1 $219 $218 $337 $433 reversed $81 $-1 #
edge $-1 $434 2.274695869299009e-014 $334 7.2762709336222855 $328 $435 forward 7 unknown #
vertex $-1 $221 $436 #
straight-curve $-1 -73.591510580128926 -7.0282207375354275 18.958981430472654 0 1 0 I I #
coedge $-1 $327 $222 $225 $341 reversed $215 $-1 #
coedge $-1 $222 $327 $332 $433 forward $215 $-1 #
vertex $-1 $223 $437 #
straight-curve $-1 -78.071230201116975 -22.980766374554435 54.678048755553405 0 0 1 I I #
straight-curve $-1 -78.07123020111699 -22.980766374554435 13.22520162856091 -0.61566146476048833 0 -0.78801076186113728 I I #
edge $-1 $431 5.1321165755872755 $227 22.980766374554435 $336 $438 forward 7 unknown #
point $-1 -78.071230201116975 -22.980766374554435 18.958981430472654 #
point $-1 -73.591510580128926 -22.980766374554435 18.958981430472654 #
edge $-1 $439 1 $439 0 $230 $-1 forward 7 unknown #
vertex $-1 $231 $440 #
ellipse-curve $-1 -74.287093433252679 -14.056441475070855 14.885570172720906 -0.78801076186113728 0 0.61566146476048833 0.30783073238024417 0 0.39400538093056864 1 I I #
point $-1 -75.523539658242683 -14.056441475070855 16.486096910447337 #
loop $-1 $-1 $242 $234 #
plane-surface $-1 -78.071230201116975 0 0 1 0 0 0 0 -1 forward_v I I I I #
coedge $-1 $351 $237 $239 $355 reversed $144 $-1 #
coedge $-1 $237 $350 $441 $442 reversed $144 $-1 #
coedge $-1 $245 $240 $237 $353 forward $235 $-1 #
edge $-1 $356 -26.96507411064799 $443 -22.48535448965994 $352 $444 forward 7 unknown #
coedge $-1 $239 $238 $359 $445 reversed $90 $-1 #
edge $-1 $446 2.274695869299009e-014 $356 7.2762709336222855 $350 $447 forward 7 unknown #
vertex $-1 $241 $448 #
straight-curve $-1 -73.591510580128926 12.213195932292599 18.958981430472654 0 1 0 I I #
coedge $-1 $441 $242 $245 $363 reversed $348 $-1 #
coedge $-1 $242 $441 $354 $445 forward $348 $-1 #
vertex $-1 $243 $449 #
straight-curve $-1 -78.071230201116975 15.502066965101619 54.678048755553405 0 0 1 I I #
straight-curve $-1 -78.07123020111699 15.502066965101619 13.22520162856091 -0.61566146476048833 0 -0.78801076186113728 I I #
edge $-1 $443 -33.350716764068778 $246 -15.502066965101619 $358 $450 forward 7 unknown #
point $-1 -78.071230201116975 15.502066965101619 18.958981430472654 #
point $-1 -73.591510580128926 15.502066965101619 18.958981430472654 #
edge $-1 $451 1 $451 0 $249 $-1 forward 7 unknown #
vertex $-1 $250 $452 #
ellipse-curve $-1 -74.287093433252679 24.426391864585199 14.885570172720906 -0.78801076186113728 0 0.61566146476048833 0.30783073238024417 0 0.39400538093056864 1 I I #
point $-1 -75.523539658242683 24.426391864585199 16.486096910447337 #
loop $-1 $-1 $261 $253 #
plane-surface $-1 78.071230201116975 0 0 -1 0 0 0 0 1 forward_v I I I I #
coedge $-1 $373 $256 $258 $377 reversed $159 $-1 #
coedge $-1 $256 $372 $453 $454 reversed $159 $-1 #
coedge $-1 $264 $259 $256 $375 forward $254 $-1 #
edge $-1 $378 36.374814425606559 $455 44.813995045527577 $374 $456 forward 7 unknown #
coedge $-1 $258 $257 $381 $457 reversed $99 $-1 #
edge $-1 $458 -156.14246040223398 $378 -144.78642263828118 $372 $459 forward 7 unknown #
vertex $-1 $260 $460 #
straight-curve $-1 69.632049581195986 -2.8524629005232143 18.958981430472633 0 -1 0 I I #
coedge $-1 $453 $261 $264 $385 reversed $370 $-1 #
coedge $-1 $261 $453 $376 $457 forward $370 $-1 #
vertex $-1 $262 $461 #
straight-curve $-1 78.071230201116975 1.4294370545219373 115.93823486097259 0 0 1 I I #
straight-curve $-1 -37.965230152696435 1.4294370545219373 115.84000936813179 0.74314481823134659 0 -0.66913061440640931 I I #
edge $-1 $455 -12.839288656614794 $265 1.4294370545219373 $380 $462 forward 7 unknown #
point $-1 78.071230201116975 1.4294370545219373 18.958981430472654 #
point $-1 69.632049581195957 1.4294370545219373 18.958981430472647 #
edge $-1 $463 1 $463 0 $268 $-1 forward 7 unknown #
vertex $-1 $269 $464 #
ellipse-curve $-1 71.851742506858926 -8.7625098820043021 12.938534152359619 0.66913061440640931 0 0.74314481823134659 1.4862896364626932 0 -1.3382612288128186 1 I I #
point $-1 75.337929527619153 -8.7625098820043021 13.821383938551797 #
edge $-1 $465 1 $465 0 $272 $-1 forward 7 unknown #
vertex $-1 $273 $466 #
ellipse-curve $-1 71.851742506858926 -2.6473417200885621 12.938534152359619 0.66913061440640931 0 0.74314481823134659 1.4862896364626932 0 -1.3382612288128186 1 I I #
point $-1 75.337929527619153 -2.6473417200885621 13.821383938551797 #
plane-surface $-1 78.071230201116975 0 0 -1 0 0 0 0 1 forward_v I I I I #
coedge $-1 $281 $279 $283 $401 reversed $181 $-1 #
edge $-1 $294 -18.958981430472654 $403 18.958981430472654 $293 $467 forward 7 unknown #
vertex $-1 $401 $468 #
straight-curve $-1 -78.071230201116975 -46.688582763328583 0 0 0 -1 I I #
edge $-1 $399 -46.688582763328583 $403 46.688582763328583 $397 $469 forward 7 unknown #
straight-curve $-1 0 -46.688582763328583 -18.958981430472654 -1 0 0 I I #
vertex $-1 $286 $470 #
straight-curve $-1 0 46.688582763328583 -18.958981430472654 1 0 0 I I #
point $-1 78.071230201116975 46.688582763328583 -18.958981430472654 #
point $-1 78.071230201116975 -46.688582763328583 -18.958981430472654 #
straight-curve $-1 -78.071230201116975 0 18.958981430472654 0 -1 0 I I #
point $-1 -78.071230201116975 46.688582763328583 18.958981430472654 #
point $-1 -78.071230201116975 -46.688582763328583 18.958981430472654 #
straight-curve $-1 78.071230201116975 -46.688582763328583 0 0 0 -1 I I #
straight-curve $-1 78.071230201116975 46.688582763328583 0 0 0 -1 I I #
plane-surface $-1 0 0 18.958981430472654 0 0 1 1 0 0 forward_v I I I I #
coedge $-1 $311 $425 $414 $471 forward $304 $-1 #
coedge $-1 $307 $306 $413 $471 reversed $121 $-1 #
edge $-1 $421 -4.582800147101004 $419 4.582800147101004 $306 $472 forward 7 unknown #
coedge $-1 $319 $318 $307 $417 forward $320 $-1 #
edge $-1 $418 -4.582800147101004 $473 4.582800147101004 $307 $474 forward 7 unknown #
vertex $-1 $323 $475 #
vertex $-1 $313 $476 #
straight-curve $-1 -49.318867634373674 -63.100081610673641 0 0 0 -1 I I #
vertex $-1 $471 $477 #
straight-curve $-1 -40.153267340171666 -54.894332187001112 -18.958981430472654 0 -1 0 I I #
straight-curve $-1 -49.318867634373674 -54.894332187001112 -18.958981430472654 0 1 0 I I #
point $-1 -40.153267340171666 -46.688582763328583 -18.958981430472654 #
coedge $-1 $413 $316 $319 $427 reversed $304 $-1 #
straight-curve $-1 -40.153267340171666 -46.688582763328583 0 0 0 -1 I I #
edge $-1 $473 -8.205749423672529 $321 8.205749423672529 $425 $478 forward 7 unknown #
point $-1 -40.153267340171666 -46.688582763328583 18.958981430472654 #
straight-curve $-1 -49.318867634373674 -54.894332187001112 18.958981430472654 0 -1 0 I I #
edge $-1 $431 35.719067325080751 $434 41.452847126992481 $327 $479 forward 7 unknown #
vertex $-1 $341 $480 #
straight-curve $-1 -100.55658469077692 -5.1321165755872755 18.958981430472654 -1 0 0 I I #
edge $-1 $434 -1.896104161948152 $338 15.952545637019007 $337 $481 forward 7 unknown #
vertex $-1 $433 $482 #
straight-curve $-1 -78.07123020111699 -5.1321165755872755 13.22520162856091 0.61566146476048833 0 0.78801076186113728 I I #
point $-1 -73.591510580128926 -5.1321165755872755 18.958981430472654 #
point $-1 -78.071230201116975 -22.980766374554435 13.225201628560928 #
straight-curve $-1 -78.071230201116975 0 18.958981430472654 0 -1 0 I I #
vertex $-1 $344 $483 #
point $-1 -73.979262700872439 -14.056441475070855 15.279575553651474 #
coedge $-1 $359 $358 $351 $442 forward $348 $-1 #
edge $-1 $443 35.719067325080751 $446 41.452847126992481 $441 $484 forward 7 unknown #
vertex $-1 $363 $485 #
straight-curve $-1 -100.55658469077692 33.350716764068778 18.958981430472654 -1 0 0 I I #
edge $-1 $446 -21.137520831776179 $360 -3.2888710328090198 $359 $486 forward 7 unknown #
vertex $-1 $445 $487 #
straight-curve $-1 -78.07123020111699 33.350716764068778 13.22520162856091 0.61566146476048833 0 0.78801076186113728 I I #
point $-1 -73.591510580128926 33.350716764068778 18.958981430472654 #
point $-1 -78.071230201116975 15.502066965101619 13.225201628560928 #
straight-curve $-1 -78.071230201116975 0 18.958981430472654 0 -1 0 I I #
vertex $-1 $366 $488 #
point $-1 -73.979262700872439 24.426391864585199 15.279575553651474 #
coedge $-1 $381 $380 $373 $454 forward $370 $-1 #
edge $-1 $455 96.979253430499938 $458 104.57792595671606 $453 $489 forward 7 unknown #
vertex $-1 $385 $490 #
straight-curve $-1 33.257235155589399 -12.839288656614794 18.958981430472647 1 0 0 I I #
edge $-1 $458 -9.9868257560915801 $382 4.2818999550451515 $381 $491 forward 7 unknown #
vertex $-1 $457 $492 #
straight-curve $-1 -37.965230152696435 -12.839288656614794 115.84000936813179 -0.74314481823134659 0 0.66913061440640931 I I #
point $-1 69.632049581195957 -12.839288656614794 18.958981430472647 #
point $-1 78.071230201116975 1.4294370545219373 11.360308904256527 #
straight-curve $-1 78.071230201116975 0 18.958981430472654 0 1 0 I I #
vertex $-1 $388 $493 #
point $-1 73.338032143321612 -8.7625098820043021 11.6002729235468 #
vertex $-1 $392 $494 #
point $-1 73.338032143321612 -2.6473417200885621 11.6002729235468 #
straight-curve $-1 -78.071230201116975 46.688582763328583 0 0 0 -1 I I #
point $-1 -78.071230201116975 -46.688582763328583 -18.958981430472654 #
straight-curve $-1 -78.071230201116975 0 -18.958981430472654 0 1 0 I I #
point $-1 -78.071230201116975 46.688582763328583 -18.958981430472654 #
edge $-1 $473 -18.958981430472654 $421 18.958981430472654 $413 $495 forward 7 unknown #
straight-curve $-1 -44.73606748727267 -63.100081610673641 -18.958981430472654 -1 0 0 I I #
vertex $-1 $427 $496 #
straight-curve $-1 -44.73606748727267 -63.100081610673641 18.958981430472654 1 0 0 I I #
point $-1 -49.318867634373674 -63.100081610673641 18.958981430472654 #
point $-1 -49.318867634373674 -63.100081610673641 -18.958981430472654 #
point $-1 -40.153267340171666 -63.100081610673641 -18.958981430472654 #
straight-curve $-1 -40.153267340171666 -54.894332187001112 18.958981430472654 0 1 0 I I #
straight-curve $-1 -78.071230201116975 -5.1321165755872755 54.678048755553405 0 0 -1 I I #
point $-1 -78.071230201116975 -5.1321165755872755 18.958981430472654 #
straight-curve $-1 -78.071230201116975 -7.0282207375354275 13.225201628560919 0 -1 0 I I #
point $-1 -78.071230201116975 -5.1321165755872755 13.225201628560928 #
point $-1 -73.893088052322113 -14.056441475070855 14.577739440340663 #
straight-curve $-1 -78.071230201116975 33.350716764068778 54.678048755553405 0 0 -1 I I #
point $-1 -78.071230201116975 33.350716764068778 18.958981430472654 #
straight-curve $-1 -78.071230201116975 12.213195932292599 13.225201628560919 0 -1 0 I I #
point $-1 -78.071230201116975 33.350716764068778 13.225201628560928 #
point $-1 -73.893088052322113 24.426391864585199 14.577739440340663 #
straight-curve $-1 78.071230201116975 -12.839288656614794 115.93823486097259 0 0 -1 I I #
point $-1 78.071230201116975 -12.839288656614794 18.958981430472654 #
straight-curve $-1 78.071230201116975 -2.8524629005232143 11.360308904256527 0 1 0 I I #
point $-1 78.071230201116975 -12.839288656614794 11.360308904256527 #
point $-1 70.5134812780461 -8.7625098820043021 11.452244515896925 #
point $-1 70.5134812780461 -2.6473417200885621 11.452244515896925 #
straight-curve $-1 -40.153267340171666 -63.100081610673641 0 0 0 -1 I I #
point $-1 -40.153267340171666 -63.100081610673641 18.958981430472654 #
End-of-ACIS-data 