500 0 9 0           
7 Unknown 11 ACIS 5.0 NT 24 Fri Mar 26 17:53:46 1999 
-1 9.9999999999999995e-007 1e-010 
body $-1 $9 $-1 $10 #
body $-1 $11 $-1 $12 #
body $-1 $13 $-1 $14 #
body $-1 $15 $-1 $16 #
body $-1 $17 $-1 $18 #
body $-1 $19 $-1 $20 #
body $-1 $21 $-1 $22 #
body $-1 $23 $-1 $24 #
body $-1 $25 $-1 $26 #
lump $-1 $-1 $27 $0 #
transform $-1 1 0 0 0 1 0 0 0 1 74.74959562974945 50.564507340070357 11.973481518062073 1 rotate no_reflect no_shear #
lump $-1 $-1 $28 $1 #
transform $-1 1 0 0 0 1 0 0 0 1 74.74959562974945 50.564507340070357 11.973481518062073 1 rotate no_reflect no_shear #
lump $-1 $-1 $29 $2 #
transform $-1 1 0 0 0 1 0 0 0 1 74.74959562974945 50.564507340070357 11.973481518062073 1 rotate no_reflect no_shear #
lump $-1 $-1 $30 $3 #
transform $-1 1 0 0 0 1 0 0 0 1 74.74959562974945 50.564507340070357 11.973481518062073 1 rotate no_reflect no_shear #
lump $-1 $-1 $31 $4 #
transform $-1 1 0 0 0 1 0 0 0 1 74.74959562974945 50.564507340070357 11.973481518062073 1 rotate no_reflect no_shear #
lump $-1 $-1 $32 $5 #
transform $-1 1 0 0 0 1 0 0 0 1 74.74959562974945 50.564507340070357 11.973481518062073 1 rotate no_reflect no_shear #
lump $-1 $-1 $33 $6 #
transform $-1 1 0 0 0 1 0 0 0 1 74.74959562974945 50.564507340070357 11.973481518062073 1 rotate no_reflect no_shear #
lump $-1 $-1 $34 $7 #
transform $-1 1 0 0 0 1 0 0 0 1 74.74959562974945 50.564507340070357 11.973481518062073 1 rotate no_reflect no_shear #
lump $-1 $-1 $35 $8 #
transform $-1 1 0 0 0 1 0 0 0 1 74.74959562974945 50.564507340070357 11.973481518062073 1 rotate no_reflect no_shear #
shell $-1 $-1 $-1 $36 $-1 $9 #
shell $-1 $-1 $-1 $37 $-1 $11 #
shell $-1 $-1 $-1 $38 $-1 $13 #
shell $-1 $-1 $-1 $39 $-1 $15 #
shell $-1 $-1 $-1 $40 $-1 $17 #
shell $-1 $-1 $-1 $41 $-1 $19 #
shell $-1 $-1 $-1 $42 $-1 $21 #
shell $-1 $-1 $-1 $43 $-1 $23 #
shell $-1 $-1 $-1 $44 $-1 $25 #
face $-1 $45 $46 $27 $-1 $47 forward single #
face $-1 $48 $49 $28 $-1 $50 reversed single #
face $-1 $51 $52 $29 $-1 $53 reversed single #
face $-1 $54 $55 $30 $-1 $56 reversed single #
face $-1 $57 $58 $31 $-1 $59 forward single #
face $-1 $60 $61 $32 $-1 $62 forward single #
face $-1 $63 $64 $33 $-1 $65 reversed single #
face $-1 $66 $67 $34 $-1 $68 forward single #
face $-1 $69 $70 $35 $-1 $71 forward single #
face $-1 $72 $73 $27 $-1 $74 reversed single #
loop $-1 $-1 $75 $36 #
plane-surface $-1 0 0 11.973481518062073 0 0 1 1 0 0 forward_v I I I I #
face $-1 $76 $77 $28 $-1 $78 reversed single #
loop $-1 $-1 $79 $37 #
plane-surface $-1 -59.000310862793526 0 9.7701519026118078 -1 0 0 0 0 1 forward_v I I I I #
face $-1 $80 $81 $29 $-1 $82 reversed single #
loop $-1 $-1 $83 $38 #
plane-surface $-1 66.874953246271474 0 7.5668222871615427 0 0 1 1 0 0 forward_v I I I I #
face $-1 $84 $85 $30 $-1 $86 reversed single #
loop $-1 $-1 $87 $39 #
plane-surface $-1 -23.75497607808656 -144.64739801341292 116.58170184038875 -1 0 0 0 -0.62932039886446345 0.77714595512881146 forward_v I I I I #
face $-1 $88 $89 $31 $-1 $90 forward single #
loop $-1 $91 $92 $40 #
cone-surface $-1 -48.930215210020101 -39.885052689033117 1.8235840988453038 0 0.62932039886446345 -0.77714595512881146 4 0 0 1 I I 0 1 4 forward I I I I #
face $-1 $93 $94 $32 $-1 $95 forward single #
loop $-1 $96 $97 $41 #
cone-surface $-1 -33.825071730859975 -39.885052689033117 1.8235840988453038 0 0.62932039886446345 -0.77714595512881146 4 0 0 1 I I 0 1 4 forward I I I I #
face $-1 $98 $99 $33 $-1 $100 reversed single #
loop $-1 $-1 $101 $42 #
plane-surface $-1 -41.377643470440042 -28.027497364763192 64.041561913316926 0 0.62932039886446345 0.77714595512881146 1 0 0 forward_v I I I I #
face $-1 $102 $103 $34 $-1 $104 forward single #
loop $-1 $105 $106 $43 #
cone-surface $-1 -48.930215210020101 39.88505268903311 1.8235840988452914 0 -0.62932039886446345 -0.77714595512881146 4 0 0 1 I I 0 1 4 forward I I I I #
face $-1 $107 $108 $35 $-1 $109 forward single #
loop $-1 $110 $111 $44 #
cone-surface $-1 -33.825071730859975 39.88505268903311 1.8235840988452914 0 -0.62932039886446345 -0.77714595512881146 4 0 0 1 I I 0 1 4 forward I I I I #
face $-1 $112 $113 $27 $-1 $114 reversed single #
loop $-1 $-1 $115 $45 #
plane-surface $-1 0 0 -11.973481518062073 0 0 1 1 0 0 forward_v I I I I #
coedge $-1 $116 $117 $118 $119 forward $46 $-1 #
face $-1 $120 $121 $28 $-1 $122 reversed single #
loop $-1 $-1 $123 $48 #
plane-surface $-1 -66.874953246271488 0 7.5668222871615427 0 0 1 1 0 0 forward_v I I I I #
coedge $-1 $124 $125 $126 $127 reversed $49 $-1 #
face $-1 $128 $129 $29 $-1 $130 forward single #
loop $-1 $-1 $131 $51 #
plane-surface $-1 59.000310862793512 0 9.7701519026118078 1 0 0 0 0 -1 forward_v I I I I #
coedge $-1 $132 $133 $134 $135 reversed $52 $-1 #
face $-1 $136 $137 $30 $-1 $138 forward single #
loop $-1 $-1 $139 $54 #
plane-surface $-1 -41.377643470440042 -50.564507340070364 0.3990100580406164 0 -0.62932039886446345 0.77714595512881146 1 0 0 forward_v I I I I #
coedge $-1 $140 $141 $142 $143 reversed $55 $-1 #
face $-1 $-1 $144 $31 $-1 $145 forward single #
loop $-1 $146 $147 $57 #
cone-surface $-1 -48.930215210020101 -35.093598040517577 -4.093369500618353 0 0.62932039886446345 -0.77714595512881146 2 0 0 1 I I -0.70710678118654746 0.70710678118654746 2 forward I I I I #
loop $-1 $-1 $148 $40 #
coedge $-1 $92 $92 $149 $150 reversed $58 $-1 #
face $-1 $-1 $151 $32 $-1 $152 forward single #
loop $-1 $153 $154 $60 #
cone-surface $-1 -33.825071730859975 -35.093598040517577 -4.093369500618353 0 0.62932039886446345 -0.77714595512881146 2 0 0 1 I I -0.70710678118654746 0.70710678118654746 2 forward I I I I #
loop $-1 $-1 $155 $41 #
coedge $-1 $97 $97 $156 $157 reversed $61 $-1 #
face $-1 $158 $159 $33 $-1 $160 reversed single #
loop $-1 $-1 $161 $63 #
plane-surface $-1 -23.75497607808656 66.055393308579369 180.22425369566506 -1 0 0 0 0.62932039886446345 0.77714595512881146 forward_v I I I I #
coedge $-1 $162 $163 $164 $165 reversed $64 $-1 #
face $-1 $-1 $166 $34 $-1 $167 forward single #
loop $-1 $168 $169 $66 #
cone-surface $-1 -48.930215210020101 35.09359804051757 -4.0933695006183655 0 -0.62932039886446345 -0.77714595512881146 2 0 0 1 I I -0.70710678118654746 0.70710678118654746 2 forward I I I I #
loop $-1 $-1 $170 $43 #
coedge $-1 $106 $106 $171 $172 reversed $67 $-1 #
face $-1 $-1 $173 $35 $-1 $174 forward single #
loop $-1 $175 $176 $69 #
cone-surface $-1 -33.825071730859975 35.09359804051757 -4.0933695006183655 0 -0.62932039886446345 -0.77714595512881146 2 0 0 1 I I -0.70710678118654746 0.70710678118654746 2 forward I I I I #
loop $-1 $-1 $177 $44 #
coedge $-1 $111 $111 $178 $179 reversed $70 $-1 #
face $-1 $180 $181 $27 $-1 $182 reversed single #
loop $-1 $-1 $183 $72 #
plane-surface $-1 0 -50.564507340070357 0 0 1 0 0 0 1 forward_v I I I I #
coedge $-1 $184 $185 $186 $187 forward $73 $-1 #
coedge $-1 $188 $75 $189 $190 forward $46 $-1 #
coedge $-1 $75 $188 $191 $192 forward $46 $-1 #
coedge $-1 $193 $194 $75 $119 reversed $195 $-1 #
edge $-1 $196 -50.564507340070357 $197 50.564507340070357 $118 $198 forward 7 unknown #
face $-1 $199 $200 $28 $-1 $201 reversed single #
loop $-1 $-1 $202 $76 #
plane-surface $-1 0 50.564507340070357 0 0 -1 0 0 0 -1 forward_v I I I I #
coedge $-1 $203 $204 $205 $206 forward $77 $-1 #
coedge $-1 $205 $79 $207 $208 reversed $49 $-1 #
coedge $-1 $79 $205 $202 $209 reversed $49 $-1 #
coedge $-1 $210 $211 $79 $127 forward $212 $-1 #
edge $-1 $213 -50.564507340070357 $214 50.564507340070357 $126 $215 forward 7 unknown #
face $-1 $216 $217 $29 $-1 $218 reversed single #
loop $-1 $-1 $219 $80 #
plane-surface $-1 0 0 11.973481518062073 0 0 1 1 0 0 forward_v I I I I #
coedge $-1 $220 $221 $222 $223 reversed $81 $-1 #
coedge $-1 $224 $83 $225 $226 reversed $52 $-1 #
coedge $-1 $83 $224 $227 $228 reversed $52 $-1 #
coedge $-1 $229 $230 $83 $135 forward $231 $-1 #
edge $-1 $232 -50.564507340070357 $233 50.564507340070357 $134 $234 forward 7 unknown #
face $-1 $235 $236 $30 $-1 $237 forward single #
loop $-1 $-1 $142 $84 #
plane-surface $-1 0 0 11.973481518062073 0 0 1 1 0 0 forward_v I I I I #
coedge $-1 $238 $239 $240 $241 reversed $85 $-1 #
coedge $-1 $141 $87 $242 $243 reversed $55 $-1 #
coedge $-1 $87 $140 $238 $244 reversed $55 $-1 #
coedge $-1 $240 $245 $87 $143 forward $137 $-1 #
edge $-1 $246 21.759191666636106 $247 36.052473267137351 $142 $248 forward 7 unknown #
loop $-1 $-1 $149 $88 #
plane-surface $-1 -41.377643470440042 -50.564507340070364 0.3990100580406164 0 -0.62932039886446345 0.77714595512881146 1 0 0 forward_v I I I I #
loop $-1 $-1 $249 $57 #
coedge $-1 $147 $147 $148 $250 reversed $89 $-1 #
coedge $-1 $148 $148 $147 $250 forward $91 $-1 #
coedge $-1 $149 $149 $92 $150 forward $144 $-1 #
edge $-1 $251 -1.5662066010304781e-016 $251 6.2831853071796004 $149 $252 forward 7 unknown #
loop $-1 $-1 $156 $93 #
plane-surface $-1 -41.377643470440042 -50.564507340070364 0.3990100580406164 0 -0.62932039886446345 0.77714595512881146 1 0 0 forward_v I I I I #
loop $-1 $-1 $253 $60 #
coedge $-1 $154 $154 $155 $254 reversed $94 $-1 #
coedge $-1 $155 $155 $154 $254 forward $96 $-1 #
coedge $-1 $156 $156 $97 $157 forward $151 $-1 #
edge $-1 $255 -1.5662066010304781e-016 $255 6.2831853071796004 $156 $256 forward 7 unknown #
face $-1 $257 $258 $33 $-1 $259 forward single #
loop $-1 $-1 $260 $98 #
plane-surface $-1 0 50.564507340070357 0 0 -1 0 0 0 -1 forward_v I I I I #
coedge $-1 $261 $262 $263 $264 reversed $99 $-1 #
coedge $-1 $265 $101 $266 $267 reversed $64 $-1 #
coedge $-1 $101 $265 $261 $268 forward $64 $-1 #
coedge $-1 $263 $269 $101 $165 forward $258 $-1 #
edge $-1 $270 -38.311489127573509 $271 -3.0661543428665397 $164 $272 forward 7 unknown #
loop $-1 $-1 $171 $102 #
plane-surface $-1 -41.377643470440042 -28.027497364763192 64.041561913316926 0 0.62932039886446345 0.77714595512881146 1 0 0 forward_v I I I I #
loop $-1 $-1 $273 $66 #
coedge $-1 $169 $169 $170 $274 reversed $103 $-1 #
coedge $-1 $170 $170 $169 $274 forward $105 $-1 #
coedge $-1 $171 $171 $106 $172 forward $166 $-1 #
edge $-1 $275 -4.1921159801136875e-016 $275 6.2831853071796004 $171 $276 forward 7 unknown #
loop $-1 $-1 $178 $107 #
plane-surface $-1 -41.377643470440042 -28.027497364763192 64.041561913316926 0 0.62932039886446345 0.77714595512881146 1 0 0 forward_v I I I I #
loop $-1 $-1 $277 $69 #
coedge $-1 $176 $176 $177 $278 reversed $108 $-1 #
coedge $-1 $177 $177 $176 $278 forward $110 $-1 #
coedge $-1 $178 $178 $111 $179 forward $173 $-1 #
edge $-1 $279 -4.1921159801136875e-016 $279 6.2831853071796004 $178 $280 forward 7 unknown #
face $-1 $281 $282 $27 $-1 $283 reversed single #
loop $-1 $-1 $284 $112 #
plane-surface $-1 -74.74959562974945 0 0 1 0 0 0 0 -1 forward_v I I I I #
coedge $-1 $285 $191 $286 $287 forward $113 $-1 #
coedge $-1 $288 $115 $285 $289 forward $73 $-1 #
coedge $-1 $115 $288 $290 $291 forward $73 $-1 #
coedge $-1 $194 $193 $115 $187 reversed $195 $-1 #
edge $-1 $292 -50.564507340070357 $293 50.564507340070357 $186 $294 forward 7 unknown #
coedge $-1 $117 $116 $295 $296 forward $46 $-1 #
coedge $-1 $297 $298 $116 $190 reversed $282 $-1 #
edge $-1 $197 -74.74959562974945 $299 74.74959562974945 $189 $300 forward 7 unknown #
coedge $-1 $183 $301 $117 $192 reversed $113 $-1 #
edge $-1 $302 -74.74959562974945 $196 74.74959562974945 $191 $303 forward 7 unknown #
coedge $-1 $186 $118 $301 $304 forward $195 $-1 #
coedge $-1 $118 $186 $297 $305 reversed $195 $-1 #
loop $-1 $-1 $193 $281 #
vertex $-1 $119 $306 #
vertex $-1 $119 $307 #
straight-curve $-1 74.74959562974945 0 11.973481518062073 0 1 0 I I #
face $-1 $308 $212 $28 $-1 $309 forward single #
loop $-1 $-1 $310 $120 #
plane-surface $-1 -74.74959562974945 0 0 1 0 0 0 0 -1 forward_v I I I I #
coedge $-1 $311 $312 $125 $209 forward $121 $-1 #
coedge $-1 $313 $123 $314 $315 reversed $77 $-1 #
coedge $-1 $123 $313 $311 $316 reversed $77 $-1 #
coedge $-1 $125 $124 $123 $206 reversed $49 $-1 #
edge $-1 $317 -50.564507340070357 $318 50.564507340070357 $205 $319 forward 7 unknown #
coedge $-1 $320 $314 $124 $208 forward $321 $-1 #
edge $-1 $318 2.6817463358556388 $213 7.088405566756169 $207 $322 forward 7 unknown #
edge $-1 $214 -7.088405566756169 $317 -2.6817463358556388 $202 $323 forward 7 unknown #
coedge $-1 $324 $126 $312 $325 forward $212 $-1 #
coedge $-1 $126 $324 $320 $326 forward $212 $-1 #
loop $-1 $-1 $126 $199 #
vertex $-1 $208 $327 #
vertex $-1 $325 $328 #
straight-curve $-1 -59.000310862793526 0 11.973481518062073 0 1 0 I I #
face $-1 $329 $330 $29 $-1 $331 reversed single #
loop $-1 $-1 $332 $128 #
plane-surface $-1 0 -50.564507340070357 0 0 1 0 0 0 1 forward_v I I I I #
coedge $-1 $333 $334 $221 $335 forward $129 $-1 #
coedge $-1 $336 $131 $224 $337 reversed $81 $-1 #
coedge $-1 $131 $336 $219 $335 reversed $81 $-1 #
coedge $-1 $338 $227 $131 $223 forward $330 $-1 #
edge $-1 $339 2.6817463358556388 $340 7.088405566756169 $222 $341 forward 7 unknown #
coedge $-1 $133 $132 $220 $337 forward $52 $-1 #
coedge $-1 $342 $332 $132 $226 forward $217 $-1 #
edge $-1 $343 25.562834239657775 $232 41.312119006613699 $225 $344 forward 7 unknown #
coedge $-1 $222 $345 $133 $228 forward $330 $-1 #
edge $-1 $233 -41.312119006613699 $339 -25.562834239657775 $227 $346 forward 7 unknown #
coedge $-1 $347 $134 $345 $348 reversed $231 $-1 #
coedge $-1 $134 $347 $342 $349 forward $231 $-1 #
loop $-1 $-1 $134 $329 #
vertex $-1 $226 $350 #
vertex $-1 $135 $351 #
straight-curve $-1 74.74959562974945 0 7.5668222871615427 0 1 0 I I #
face $-1 $-1 $352 $30 $-1 $353 reversed single #
loop $-1 $-1 $354 $136 #
plane-surface $-1 -59.000310862793526 0 9.7701519026118078 -1 0 0 0 0 1 forward_v I I I I #
coedge $-1 $355 $139 $141 $244 forward $85 $-1 #
coedge $-1 $139 $355 $354 $356 forward $85 $-1 #
coedge $-1 $357 $142 $139 $241 forward $137 $-1 #
edge $-1 $247 3.0661543428665397 $358 38.311489127573509 $240 $359 forward 7 unknown #
coedge $-1 $360 $361 $140 $243 forward $352 $-1 #
edge $-1 $362 -57.891840862153749 $246 -46.3173694021323 $242 $363 forward 7 unknown #
edge $-1 $247 -18.392016977212663 $362 -9.1551213131864128e-015 $141 $364 forward 7 unknown #
coedge $-1 $142 $357 $360 $365 forward $137 $-1 #
vertex $-1 $243 $366 #
vertex $-1 $143 $367 #
straight-curve $-1 -23.75497607808656 -72.323699006706462 11.973481518062073 0 1 0 I I #
coedge $-1 $249 $249 $-1 $368 reversed $146 $-1 #
edge $-1 $369 0 $369 6.2831853071796004 $147 $370 forward 7 unknown #
vertex $-1 $150 $371 #
ellipse-curve $-1 -48.930215210020101 -43.417866539819734 6.1862457880513473 0 -0.62932039886446345 0.77714595512881146 4 0 0 1 I I #
coedge $-1 $253 $253 $-1 $372 reversed $153 $-1 #
edge $-1 $373 0 $373 6.2831853071796004 $154 $374 forward 7 unknown #
vertex $-1 $157 $375 #
ellipse-curve $-1 -33.825071730859975 -43.417866539819734 6.1862457880513473 0 -0.62932039886446345 0.77714595512881146 4 0 0 1 I I #
face $-1 $-1 $376 $33 $-1 $377 forward single #
loop $-1 $-1 $263 $158 #
plane-surface $-1 0 0 11.973481518062073 0 0 1 1 0 0 forward_v I I I I #
coedge $-1 $378 $379 $262 $380 forward $159 $-1 #
coedge $-1 $262 $161 $163 $268 reversed $99 $-1 #
coedge $-1 $161 $261 $260 $380 reversed $99 $-1 #
coedge $-1 $381 $164 $161 $264 forward $258 $-1 #
edge $-1 $271 3.2435290852793912 $382 17.536810685780672 $263 $383 forward 7 unknown #
coedge $-1 $163 $162 $378 $384 reversed $64 $-1 #
coedge $-1 $385 $386 $162 $267 forward $376 $-1 #
edge $-1 $387 -73.161233877999265 $270 -54.769216900786546 $266 $388 forward 7 unknown #
edge $-1 $389 -101.12901468014073 $271 -82.736997702928008 $261 $390 forward 7 unknown #
coedge $-1 $164 $381 $385 $391 forward $258 $-1 #
vertex $-1 $267 $392 #
vertex $-1 $165 $393 #
straight-curve $-1 -20.688821735220021 36.271225739569076 11.973481518062073 1 0 0 I I #
coedge $-1 $273 $273 $-1 $394 reversed $168 $-1 #
edge $-1 $395 0 $395 6.2831853071796004 $169 $396 forward 7 unknown #
vertex $-1 $172 $397 #
ellipse-curve $-1 -48.930215210020101 43.41786653981972 6.1862457880513224 0 0.62932039886446345 0.77714595512881146 4 0 0 1 I I #
coedge $-1 $277 $277 $-1 $398 reversed $175 $-1 #
edge $-1 $399 0 $399 6.2831853071796004 $176 $400 forward 7 unknown #
vertex $-1 $179 $401 #
ellipse-curve $-1 -33.825071730859975 43.41786653981972 6.1862457880513224 0 0.62932039886446345 0.77714595512881146 4 0 0 1 I I #
face $-1 $-1 $195 $27 $-1 $402 reversed single #
loop $-1 $-1 $297 $180 #
plane-surface $-1 0 50.564507340070357 0 0 -1 0 0 0 -1 forward_v I I I I #
coedge $-1 $403 $295 $298 $404 forward $181 $-1 #
coedge $-1 $301 $183 $184 $289 reversed $113 $-1 #
coedge $-1 $295 $403 $183 $287 reversed $181 $-1 #
edge $-1 $302 -11.973481518062073 $405 11.973481518062073 $286 $406 forward 7 unknown #
coedge $-1 $185 $184 $403 $407 forward $73 $-1 #
edge $-1 $293 -74.74959562974945 $405 74.74959562974945 $285 $408 forward 7 unknown #
coedge $-1 $298 $297 $185 $291 reversed $282 $-1 #
edge $-1 $409 -74.74959562974945 $292 74.74959562974945 $290 $410 forward 7 unknown #
vertex $-1 $187 $411 #
vertex $-1 $304 $412 #
straight-curve $-1 74.74959562974945 0 -11.973481518062073 0 -1 0 I I #
coedge $-1 $284 $286 $188 $296 reversed $181 $-1 #
edge $-1 $299 -50.564507340070357 $302 50.564507340070357 $295 $413 forward 7 unknown #
coedge $-1 $290 $189 $194 $305 forward $282 $-1 #
coedge $-1 $189 $290 $284 $404 reversed $282 $-1 #
vertex $-1 $190 $414 #
straight-curve $-1 0 50.564507340070357 11.973481518062073 -1 0 0 I I #
coedge $-1 $191 $285 $193 $304 reversed $113 $-1 #
vertex $-1 $296 $415 #
straight-curve $-1 0 -50.564507340070357 11.973481518062073 1 0 0 I I #
edge $-1 $196 -11.973481518062073 $293 11.973481518062073 $193 $416 forward 7 unknown #
edge $-1 $197 -11.973481518062073 $292 11.973481518062073 $194 $417 forward 7 unknown #
point $-1 74.74959562974945 -50.564507340070357 11.973481518062073 #
point $-1 74.74959562974945 50.564507340070357 11.973481518062073 #
face $-1 $-1 $321 $28 $-1 $418 reversed single #
plane-surface $-1 0 0 11.973481518062073 0 0 1 1 0 0 forward_v I I I I #
coedge $-1 $419 $420 $313 $421 forward $200 $-1 #
coedge $-1 $422 $202 $204 $316 forward $121 $-1 #
coedge $-1 $202 $422 $210 $325 reversed $121 $-1 #
coedge $-1 $204 $203 $310 $421 reversed $77 $-1 #
coedge $-1 $207 $423 $203 $315 forward $321 $-1 #
edge $-1 $424 -41.312119006613706 $318 -25.562834239657782 $314 $425 forward 7 unknown #
edge $-1 $317 25.562834239657782 $426 41.312119006613706 $311 $427 forward 7 unknown #
vertex $-1 $316 $428 #
vertex $-1 $315 $429 #
straight-curve $-1 -59.000310862793526 0 7.5668222871615427 0 -1 0 I I #
coedge $-1 $423 $207 $211 $326 reversed $321 $-1 #
loop $-1 $-1 $207 $308 #
straight-curve $-1 -59.000310862793526 -50.564507340070357 4.8850759513059039 0 0 1 I I #
straight-curve $-1 -59.000310862793526 50.564507340070357 4.8850759513059039 0 0 -1 I I #
coedge $-1 $211 $210 $430 $431 forward $212 $-1 #
edge $-1 $214 59.000310862793526 $432 74.74959562974945 $312 $433 forward 7 unknown #
edge $-1 $434 -74.74959562974945 $213 -59.000310862793526 $320 $435 forward 7 unknown #
point $-1 -59.000310862793526 -50.564507340070357 11.973481518062073 #
point $-1 -59.000310862793526 50.564507340070357 11.973481518062073 #
face $-1 $-1 $231 $29 $-1 $436 reversed single #
loop $-1 $-1 $222 $216 #
plane-surface $-1 0 50.564507340070357 0 0 -1 0 0 0 -1 forward_v I I I I #
coedge $-1 $225 $437 $336 $438 forward $217 $-1 #
coedge $-1 $439 $219 $437 $440 forward $129 $-1 #
coedge $-1 $219 $439 $338 $441 forward $129 $-1 #
edge $-1 $340 -50.564507340070357 $442 50.564507340070357 $219 $443 forward 7 unknown #
coedge $-1 $221 $220 $332 $438 reversed $81 $-1 #
edge $-1 $343 -50.564507340070357 $339 50.564507340070357 $220 $444 forward 7 unknown #
coedge $-1 $345 $222 $334 $441 reversed $330 $-1 #
vertex $-1 $228 $445 #
vertex $-1 $223 $446 #
straight-curve $-1 59.000310862793512 50.564507340070357 4.8850759513059039 0 0 1 I I #
coedge $-1 $437 $225 $230 $349 reversed $217 $-1 #
vertex $-1 $226 $447 #
straight-curve $-1 33.437476623135737 -50.564507340070357 7.5668222871615427 1 0 0 I I #
coedge $-1 $227 $338 $229 $348 forward $330 $-1 #
straight-curve $-1 33.437476623135737 50.564507340070357 7.5668222871615427 -1 0 0 I I #
coedge $-1 $230 $229 $439 $448 reversed $231 $-1 #
edge $-1 $449 -11.973481518062073 $233 -7.5668222871615427 $229 $450 forward 7 unknown #
edge $-1 $451 -11.973481518062073 $232 -7.5668222871615427 $230 $452 forward 7 unknown #
point $-1 74.749595629749436 -50.564507340070357 7.5668222871615427 #
point $-1 74.749595629749436 50.564507340070357 7.5668222871615427 #
loop $-1 $-1 $242 $235 #
plane-surface $-1 0 -50.564507340070357 0 0 1 0 0 0 1 forward_v I I I I #
coedge $-1 $453 $454 $239 $356 reversed $236 $-1 #
coedge $-1 $239 $238 $361 $455 reversed $85 $-1 #
edge $-1 $456 9.1551213131864128e-015 $358 18.392016977212663 $354 $457 forward 7 unknown #
coedge $-1 $245 $240 $454 $458 forward $137 $-1 #
vertex $-1 $458 $459 #
straight-curve $-1 -20.688821735220021 -36.271225739569111 11.973481518062073 -1 0 0 I I #
coedge $-1 $460 $242 $245 $365 reversed $352 $-1 #
coedge $-1 $242 $460 $355 $455 forward $352 $-1 #
vertex $-1 $243 $461 #
straight-curve $-1 -23.75497607808656 -50.564507340070357 58.290850920194373 0 0 1 I I #
straight-curve $-1 -23.75497607808656 -50.564507340070364 0.3990100580406164 0 -0.77714595512881146 -0.62932039886446345 I I #
edge $-1 $462 -59.000310862793526 $246 -23.75497607808656 $360 $463 forward 7 unknown #
point $-1 -23.75497607808656 -50.564507340070357 11.973481518062073 #
point $-1 -23.75497607808656 -36.271225739569111 11.973481518062073 #
edge $-1 $464 1 $464 0 $249 $-1 forward 7 unknown #
vertex $-1 $250 $465 #
ellipse-curve $-1 -48.930215210020101 -36.352238838246507 -2.5390775903607299 0 -0.62932039886446345 0.77714595512881146 4 0 0 1 I I #
point $-1 -44.930215210020101 -43.417866539819727 6.1862457880513375 #
edge $-1 $466 1 $466 0 $253 $-1 forward 7 unknown #
vertex $-1 $254 $467 #
ellipse-curve $-1 -33.825071730859975 -36.352238838246507 -2.5390775903607299 0 -0.62932039886446345 0.77714595512881146 4 0 0 1 I I #
point $-1 -29.825071730859975 -43.417866539819727 6.1862457880513375 #
loop $-1 $-1 $266 $257 #
plane-surface $-1 -59.000310862793526 0 9.7701519026118078 -1 0 0 0 0 1 forward_v I I I I #
coedge $-1 $468 $260 $265 $384 forward $159 $-1 #
coedge $-1 $260 $468 $381 $469 reversed $159 $-1 #
edge $-1 $382 78.138645329770455 $389 89.71311678979194 $260 $470 forward 7 unknown #
coedge $-1 $269 $263 $379 $469 forward $258 $-1 #
vertex $-1 $469 $471 #
straight-curve $-1 -23.75497607808656 33.027696654289684 11.973481518062073 0 1 0 I I #
edge $-1 $389 3.0661543428665397 $387 38.311489127573509 $378 $472 forward 7 unknown #
coedge $-1 $386 $266 $269 $391 reversed $376 $-1 #
coedge $-1 $266 $385 $468 $473 reversed $376 $-1 #
vertex $-1 $473 $474 #
straight-curve $-1 -59.000310862793526 -6.2924496404497336 46.440866943559371 0 -0.77714595512881146 0.62932039886446345 I I #
vertex $-1 $384 $475 #
straight-curve $-1 -23.75497607808656 -28.027497364763192 64.041561913316926 0 -0.77714595512881146 0.62932039886446345 I I #
edge $-1 $476 -50.564507340070357 $270 -36.271225739569076 $269 $477 forward 7 unknown #
point $-1 -59.000310862793526 36.271225739569076 11.973481518062073 #
point $-1 -23.75497607808656 36.271225739569076 11.973481518062073 #
edge $-1 $478 1 $478 0 $273 $-1 forward 7 unknown #
vertex $-1 $274 $479 #
ellipse-curve $-1 -48.930215210020101 36.3522388382465 -2.5390775903607423 0 0.62932039886446345 0.77714595512881146 4 0 0 1 I I #
point $-1 -44.930215210020101 43.41786653981972 6.1862457880513251 #
edge $-1 $480 1 $480 0 $277 $-1 forward 7 unknown #
vertex $-1 $278 $481 #
ellipse-curve $-1 -33.825071730859975 36.3522388382465 -2.5390775903607423 0 0.62932039886446345 0.77714595512881146 4 0 0 1 I I #
point $-1 -29.825071730859975 43.41786653981972 6.1862457880513251 #
plane-surface $-1 74.74959562974945 0 0 -1 0 0 0 0 1 forward_v I I I I #
coedge $-1 $286 $284 $288 $407 reversed $181 $-1 #
edge $-1 $299 -11.973481518062073 $409 11.973481518062073 $298 $482 forward 7 unknown #
vertex $-1 $407 $483 #
straight-curve $-1 -74.74959562974945 -50.564507340070357 0 0 0 -1 I I #
edge $-1 $405 -50.564507340070357 $409 50.564507340070357 $403 $484 forward 7 unknown #
straight-curve $-1 0 -50.564507340070357 -11.973481518062073 -1 0 0 I I #
vertex $-1 $291 $485 #
straight-curve $-1 0 50.564507340070357 -11.973481518062073 1 0 0 I I #
point $-1 74.74959562974945 50.564507340070357 -11.973481518062073 #
point $-1 74.74959562974945 -50.564507340070357 -11.973481518062073 #
straight-curve $-1 -74.74959562974945 0 11.973481518062073 0 -1 0 I I #
point $-1 -74.74959562974945 50.564507340070357 11.973481518062073 #
point $-1 -74.74959562974945 -50.564507340070357 11.973481518062073 #
straight-curve $-1 74.74959562974945 -50.564507340070357 0 0 0 -1 I I #
straight-curve $-1 74.74959562974945 50.564507340070357 0 0 0 -1 I I #
plane-surface $-1 0 -50.564507340070357 0 0 1 0 0 0 1 forward_v I I I I #
coedge $-1 $430 $310 $423 $486 reversed $200 $-1 #
coedge $-1 $310 $430 $422 $487 forward $200 $-1 #
edge $-1 $426 -50.564507340070357 $424 50.564507340070357 $310 $488 forward 7 unknown #
coedge $-1 $312 $311 $420 $487 reversed $121 $-1 #
coedge $-1 $314 $320 $419 $486 forward $321 $-1 #
vertex $-1 $421 $489 #
straight-curve $-1 -33.437476623135744 -50.564507340070357 7.5668222871615427 1 0 0 I I #
vertex $-1 $421 $490 #
straight-curve $-1 -33.437476623135744 50.564507340070357 7.5668222871615427 -1 0 0 I I #
point $-1 -59.000310862793526 50.564507340070357 7.5668222871615427 #
point $-1 -59.000310862793526 -50.564507340070357 7.5668222871615427 #
coedge $-1 $420 $419 $324 $431 reversed $200 $-1 #
edge $-1 $432 -50.564507340070357 $434 50.564507340070357 $430 $491 forward 7 unknown #
vertex $-1 $325 $492 #
straight-curve $-1 0 50.564507340070357 11.973481518062073 -1 0 0 I I #
vertex $-1 $431 $493 #
straight-curve $-1 0 -50.564507340070357 11.973481518062073 1 0 0 I I #
plane-surface $-1 74.74959562974945 0 0 -1 0 0 0 0 1 forward_v I I I I #
coedge $-1 $332 $342 $333 $440 reversed $217 $-1 #
edge $-1 $442 -7.088405566756169 $343 -2.6817463358556388 $332 $494 forward 7 unknown #
coedge $-1 $334 $333 $347 $448 forward $129 $-1 #
edge $-1 $442 59.000310862793512 $451 74.74959562974945 $437 $495 forward 7 unknown #
edge $-1 $449 -74.74959562974945 $340 -59.000310862793512 $338 $496 forward 7 unknown #
vertex $-1 $440 $497 #
straight-curve $-1 59.000310862793512 0 11.973481518062073 0 -1 0 I I #
straight-curve $-1 59.000310862793512 0 7.5668222871615427 0 1 0 I I #
point $-1 59.000310862793512 50.564507340070357 7.5668222871615427 #
point $-1 59.000310862793512 50.564507340070357 11.973481518062073 #
point $-1 59.000310862793512 -50.564507340070357 7.5668222871615427 #
edge $-1 $451 -50.564507340070357 $449 50.564507340070357 $347 $498 forward 7 unknown #
vertex $-1 $448 $499 #
straight-curve $-1 74.74959562974945 50.564507340070357 0 0 0 -1 I I #
vertex $-1 $448 $500 #
straight-curve $-1 74.74959562974945 -50.564507340070357 0 0 0 -1 I I #
coedge $-1 $454 $354 $460 $501 reversed $236 $-1 #
coedge $-1 $354 $453 $357 $458 reversed $236 $-1 #
edge $-1 $456 -38.311489127573509 $362 -3.0661543428665397 $361 $502 forward 7 unknown #
vertex $-1 $501 $503 #
straight-curve $-1 -59.000310862793526 -50.564507340070364 0.3990100580406164 0 0.77714595512881146 0.62932039886446345 I I #
edge $-1 $358 36.271225739569111 $462 50.564507340070357 $357 $504 forward 7 unknown #
point $-1 -59.000310862793526 -36.271225739569111 11.973481518062073 #
coedge $-1 $361 $360 $453 $501 forward $352 $-1 #
point $-1 -23.75497607808656 -50.564507340070357 0.39901005804062217 #
vertex $-1 $365 $505 #
straight-curve $-1 0 -50.564507340070357 11.973481518062073 1 0 0 I I #
vertex $-1 $368 $506 #
point $-1 -44.930215210020101 -36.352238838246507 -2.5390775903607299 #
vertex $-1 $372 $507 #
point $-1 -29.825071730859975 -36.352238838246507 -2.5390775903607299 #
coedge $-1 $379 $378 $386 $473 forward $159 $-1 #
edge $-1 $382 23.75497607808656 $476 59.000310862793526 $379 $508 forward 7 unknown #
straight-curve $-1 -23.75497607808656 50.564507340070357 90.112126847832528 0 0 -1 I I #
point $-1 -23.75497607808656 50.564507340070357 11.973481518062073 #
straight-curve $-1 -20.688821735220021 50.564507340070357 0.39901005804058798 -1 0 0 I I #
edge $-1 $387 -89.71311678979194 $476 -78.138645329770455 $468 $509 forward 7 unknown #
point $-1 -59.000310862793526 50.564507340070364 0.39901005804058087 #
point $-1 -23.75497607808656 50.564507340070364 0.39901005804058087 #
vertex $-1 $391 $510 #
straight-curve $-1 -59.000310862793526 0 11.973481518062073 0 -1 0 I I #
vertex $-1 $394 $511 #
point $-1 -44.930215210020101 36.3522388382465 -2.5390775903607423 #
vertex $-1 $398 $512 #
point $-1 -29.825071730859975 36.3522388382465 -2.5390775903607423 #
straight-curve $-1 -74.74959562974945 50.564507340070357 0 0 0 -1 I I #
point $-1 -74.74959562974945 -50.564507340070357 -11.973481518062073 #
straight-curve $-1 -74.74959562974945 0 -11.973481518062073 0 1 0 I I #
point $-1 -74.74959562974945 50.564507340070357 -11.973481518062073 #
edge $-1 $434 -11.973481518062073 $424 -7.5668222871615427 $419 $513 forward 7 unknown #
edge $-1 $432 -11.973481518062073 $426 -7.5668222871615427 $422 $514 forward 7 unknown #
straight-curve $-1 -74.74959562974945 0 7.5668222871615427 0 -1 0 I I #
point $-1 -74.74959562974945 -50.564507340070357 7.5668222871615427 #
point $-1 -74.74959562974945 50.564507340070357 7.5668222871615427 #
straight-curve $-1 -74.74959562974945 0 11.973481518062073 0 -1 0 I I #
point $-1 -74.74959562974945 50.564507340070357 11.973481518062073 #
point $-1 -74.74959562974945 -50.564507340070357 11.973481518062073 #
straight-curve $-1 59.000310862793512 -50.564507340070357 4.8850759513059039 0 0 -1 I I #
straight-curve $-1 0 -50.564507340070357 11.973481518062073 1 0 0 I I #
straight-curve $-1 0 50.564507340070357 11.973481518062073 -1 0 0 I I #
point $-1 59.000310862793512 -50.564507340070357 11.973481518062073 #
straight-curve $-1 74.74959562974945 0 11.973481518062073 0 1 0 I I #
point $-1 74.74959562974945 50.564507340070357 11.973481518062073 #
point $-1 74.74959562974945 -50.564507340070357 11.973481518062073 #
edge $-1 $462 46.3173694021323 $456 57.891840862153749 $460 $515 forward 7 unknown #
straight-curve $-1 -20.688821735220021 -50.564507340070357 0.39901005804062545 1 0 0 I I #
point $-1 -59.000310862793526 -50.564507340070357 0.39901005804062217 #
straight-curve $-1 -59.000310862793526 0 11.973481518062073 0 -1 0 I I #
point $-1 -59.000310862793526 -50.564507340070357 11.973481518062073 #
point $-1 -48.930215210020101 -33.834957242788647 -5.6476614108759762 #
point $-1 -33.825071730859975 -33.834957242788647 -5.6476614108759762 #
straight-curve $-1 0 50.564507340070357 11.973481518062073 -1 0 0 I I #
straight-curve $-1 -59.000310862793526 50.564507340070357 90.112126847832528 0 0 1 I I #
point $-1 -59.000310862793526 50.564507340070357 11.973481518062073 #
point $-1 -48.930215210020101 33.83495724278864 -5.6476614108759886 #
point $-1 -33.825071730859975 33.83495724278864 -5.6476614108759886 #
straight-curve $-1 -74.74959562974945 -50.564507340070357 0 0 0 -1 I I #
straight-curve $-1 -74.74959562974945 50.564507340070357 0 0 0 -1 I I #
straight-curve $-1 -59.000310862793526 -50.564507340070357 58.290850920194373 0 0 -1 I I #
End-of-ACIS-data 