500 0 7 0           
7 Unknown 11 ACIS 5.0 NT 24 Fri Mar 26 02:27:07 1999 
-1 9.9999999999999995e-007 1e-010 
body $-1 $7 $-1 $8 #
body $-1 $9 $-1 $10 #
body $-1 $11 $-1 $12 #
body $-1 $13 $-1 $14 #
body $-1 $15 $-1 $16 #
body $-1 $17 $-1 $18 #
body $-1 $19 $-1 $20 #
lump $-1 $-1 $21 $0 #
transform $-1 1 0 0 0 1 0 0 0 1 68.755760368663601 45.354838990954008 20.1365131587451 1 rotate no_reflect no_shear #
lump $-1 $-1 $22 $1 #
transform $-1 1 0 0 0 1 0 0 0 1 68.755760368663601 45.354838990954008 20.1365131587451 1 rotate no_reflect no_shear #
lump $-1 $-1 $23 $2 #
transform $-1 1 0 0 0 1 0 0 0 1 68.755760368663601 45.354838990954008 20.1365131587451 1 rotate no_reflect no_shear #
lump $-1 $-1 $24 $3 #
transform $-1 1 0 0 0 1 0 0 0 1 68.755760368663601 45.354838990954008 20.1365131587451 1 rotate no_reflect no_shear #
lump $-1 $-1 $25 $4 #
transform $-1 1 0 0 0 1 0 0 0 1 68.755760368663601 45.354838990954008 20.1365131587451 1 rotate no_reflect no_shear #
lump $-1 $-1 $26 $5 #
transform $-1 1 0 0 0 1 0 0 0 1 68.755760368663601 45.354838990954008 20.1365131587451 1 rotate no_reflect no_shear #
lump $-1 $-1 $27 $6 #
transform $-1 1 0 0 0 1 0 0 0 1 68.755760368663601 45.354838990954008 20.1365131587451 1 rotate no_reflect no_shear #
shell $-1 $-1 $-1 $28 $-1 $7 #
shell $-1 $-1 $-1 $29 $-1 $9 #
shell $-1 $-1 $-1 $30 $-1 $11 #
shell $-1 $-1 $-1 $31 $-1 $13 #
shell $-1 $-1 $-1 $32 $-1 $15 #
shell $-1 $-1 $-1 $33 $-1 $17 #
shell $-1 $-1 $-1 $34 $-1 $19 #
face $-1 $35 $36 $21 $-1 $37 forward single #
face $-1 $38 $39 $22 $-1 $40 forward single #
face $-1 $41 $42 $23 $-1 $43 reversed single #
face $-1 $44 $45 $24 $-1 $46 forward single #
face $-1 $47 $48 $25 $-1 $49 forward single #
face $-1 $50 $51 $26 $-1 $52 reversed single #
face $-1 $53 $54 $27 $-1 $55 forward single #
face $-1 $56 $57 $21 $-1 $58 reversed single #
loop $-1 $-1 $59 $28 #
plane-surface $-1 0 0 20.1365131587451 0 0 1 1 0 0 forward_v I I I I #
face $-1 $60 $61 $22 $-1 $62 reversed single #
loop $-1 $-1 $63 $29 #
plane-surface $-1 -68.755760368663601 0 0 1 0 0 0 0 -1 forward_v I I I I #
face $-1 $64 $65 $23 $-1 $66 reversed single #
loop $-1 $-1 $67 $30 #
plane-surface $-1 -9.4510120205701078 -122.25030653212369 122.45254107645998 -1 0 0 0 -0.55919291073839883 0.82903756765294845 forward_v I I I I #
face $-1 $68 $69 $24 $-1 $70 forward single #
loop $-1 $71 $72 $31 #
cone-surface $-1 -28.114413507101304 -35.136622088259124 11.987334666112442 0 0.55919291073839883 -0.82903756765294845 1.5 0 0 1 I I 0 1 1.5 forward I I I I #
face $-1 $73 $74 $25 $-1 $75 forward single #
loop $-1 $76 $77 $32 #
cone-surface $-1 -16.916372615182581 -35.136622088259124 11.987334666112442 0 0.55919291073839883 -0.82903756765294845 1.5 0 0 1 I I 0 1 1.5 forward I I I I #
face $-1 $78 $79 $26 $-1 $80 reversed single #
loop $-1 $-1 $81 $33 #
plane-surface $-1 -28.160052119406373 103.28618737894588 155.52873393625171 1 0 0 0 -0.80901700255871778 -0.5877852410284794 forward_v I I I I #
face $-1 $82 $83 $27 $-1 $84 forward single #
loop $-1 $85 $86 $34 #
cone-surface $-1 -11.921961780994586 36.737216857789221 9.4324810628037135 0 -0.80901700255871778 -0.5877852410284794 3 0 0 1 I I 0 1 3 forward I I I I #
face $-1 $87 $88 $21 $-1 $89 reversed single #
loop $-1 $-1 $90 $35 #
plane-surface $-1 0 0 -20.1365131587451 0 0 1 1 0 0 forward_v I I I I #
coedge $-1 $91 $92 $93 $94 forward $36 $-1 #
face $-1 $95 $96 $22 $-1 $97 forward single #
loop $-1 $-1 $98 $38 #
plane-surface $-1 0 45.354838990954008 0 0 -1 0 0 0 -1 forward_v I I I I #
coedge $-1 $99 $100 $101 $102 forward $39 $-1 #
face $-1 $103 $104 $23 $-1 $105 reversed single #
loop $-1 $-1 $106 $41 #
plane-surface $-1 -22.51539306114195 -45.354838990953994 8.4503244001282525 0 -0.55919291073839883 0.82903756765294845 1 0 0 forward_v I I I I #
coedge $-1 $107 $108 $109 $110 reversed $42 $-1 #
face $-1 $-1 $111 $24 $-1 $112 forward single #
loop $-1 $113 $114 $44 #
cone-surface $-1 -28.114413507101304 -33.161754000799611 9.0594723770484826 0 0.55919291073839883 -0.82903756765294845 0.75 0 0 1 I I -0.70710678118654757 0.70710678118654757 0.75 forward I I I I #
loop $-1 $-1 $115 $31 #
coedge $-1 $72 $72 $116 $117 reversed $45 $-1 #
face $-1 $-1 $118 $25 $-1 $119 forward single #
loop $-1 $120 $121 $47 #
cone-surface $-1 -16.916372615182581 -33.161754000799611 9.0594723770484826 0 0.55919291073839883 -0.82903756765294845 0.75 0 0 1 I I -0.70710678118654757 0.70710678118654757 0.75 forward I I I I #
loop $-1 $-1 $122 $32 #
coedge $-1 $77 $77 $123 $124 reversed $48 $-1 #
face $-1 $125 $126 $26 $-1 $127 reversed single #
loop $-1 $-1 $128 $50 #
plane-surface $-1 -11.921961780994586 -7.9629709452575383 74.701491575469092 0 0.80901700255871778 0.5877852410284794 1 0 0 forward_v I I I I #
coedge $-1 $129 $130 $131 $132 reversed $51 $-1 #
face $-1 $-1 $133 $27 $-1 $134 forward single #
loop $-1 $135 $136 $53 #
cone-surface $-1 -11.921961780994586 33.74308608953784 7.2571177889525025 0 -0.80901700255871778 -0.5877852410284794 1.5 0 0 1 I I -0.70710678118654757 0.70710678118654757 1.5 forward I I I I #
loop $-1 $-1 $137 $34 #
coedge $-1 $86 $86 $138 $139 reversed $54 $-1 #
face $-1 $140 $141 $21 $-1 $142 reversed single #
loop $-1 $-1 $143 $56 #
plane-surface $-1 0 -45.354838990954008 0 0 1 0 0 0 1 forward_v I I I I #
coedge $-1 $144 $145 $146 $147 forward $57 $-1 #
coedge $-1 $148 $59 $149 $150 forward $36 $-1 #
coedge $-1 $59 $148 $151 $152 forward $36 $-1 #
coedge $-1 $153 $154 $59 $94 reversed $155 $-1 #
edge $-1 $156 -45.354838990954008 $157 45.354838990954008 $93 $158 forward 7 unknown #
face $-1 $159 $160 $22 $-1 $161 reversed single #
loop $-1 $-1 $101 $60 #
plane-surface $-1 -81.165111676684916 0 -8.9342375488461858 0 0 1 1 0 0 forward_v I I I I #
coedge $-1 $162 $163 $100 $164 forward $61 $-1 #
coedge $-1 $165 $63 $166 $167 reversed $39 $-1 #
coedge $-1 $63 $165 $98 $164 reversed $39 $-1 #
coedge $-1 $168 $169 $63 $102 reversed $96 $-1 #
edge $-1 $170 -45.354838990954008 $171 45.354838990954008 $101 $172 forward 7 unknown #
face $-1 $173 $174 $23 $-1 $175 reversed single #
loop $-1 $-1 $176 $64 #
plane-surface $-1 -35.579774101713795 -122.25030653212369 122.45254107645998 1 0 0 0 0.55919291073839883 -0.82903756765294845 forward_v I I I I #
coedge $-1 $177 $178 $179 $180 reversed $65 $-1 #
coedge $-1 $108 $67 $181 $182 reversed $42 $-1 #
coedge $-1 $67 $107 $177 $183 reversed $42 $-1 #
coedge $-1 $179 $184 $67 $110 forward $185 $-1 #
edge $-1 $186 15.770314275107836 $187 33.095801271686227 $109 $188 forward 7 unknown #
loop $-1 $-1 $116 $68 #
plane-surface $-1 -22.51539306114195 -45.354838990953994 8.4503244001282525 0 -0.55919291073839883 0.82903756765294845 1 0 0 forward_v I I I I #
loop $-1 $-1 $189 $44 #
coedge $-1 $114 $114 $115 $190 reversed $69 $-1 #
coedge $-1 $115 $115 $114 $190 forward $71 $-1 #
coedge $-1 $116 $116 $72 $117 forward $111 $-1 #
edge $-1 $191 -3.1725057807300019e-015 $191 6.2831853071795969 $116 $192 forward 7 unknown #
loop $-1 $-1 $123 $73 #
plane-surface $-1 -22.51539306114195 -45.354838990953994 8.4503244001282525 0 -0.55919291073839883 0.82903756765294845 1 0 0 forward_v I I I I #
loop $-1 $-1 $193 $47 #
coedge $-1 $121 $121 $122 $194 reversed $74 $-1 #
coedge $-1 $122 $122 $121 $194 forward $76 $-1 #
coedge $-1 $123 $123 $77 $124 forward $118 $-1 #
edge $-1 $195 -3.1725057807300019e-015 $195 6.2831853071795969 $123 $196 forward 7 unknown #
face $-1 $197 $198 $26 $-1 $199 forward single #
loop $-1 $-1 $200 $78 #
plane-surface $-1 4.3161285574172013 103.28618737894588 155.52873393625171 -1 0 0 0 0.80901700255871778 0.5877852410284794 forward_v I I I I #
coedge $-1 $201 $202 $203 $204 reversed $79 $-1 #
coedge $-1 $130 $81 $205 $206 reversed $51 $-1 #
coedge $-1 $81 $129 $201 $207 reversed $51 $-1 #
coedge $-1 $203 $208 $81 $132 forward $198 $-1 #
edge $-1 $209 6.2882546985189336 $210 19.962288436021865 $131 $211 forward 7 unknown #
loop $-1 $-1 $138 $82 #
plane-surface $-1 -11.921961780994586 -7.9629709452575383 74.701491575469092 0 0.80901700255871778 0.5877852410284794 1 0 0 forward_v I I I I #
loop $-1 $-1 $212 $53 #
coedge $-1 $136 $136 $137 $213 reversed $83 $-1 #
coedge $-1 $137 $137 $136 $213 forward $85 $-1 #
coedge $-1 $138 $138 $86 $139 forward $133 $-1 #
edge $-1 $214 6.138776202897042e-016 $214 6.2831853071796013 $138 $215 forward 7 unknown #
face $-1 $216 $217 $21 $-1 $218 reversed single #
loop $-1 $-1 $219 $87 #
plane-surface $-1 -68.755760368663601 0 0 1 0 0 0 0 -1 forward_v I I I I #
coedge $-1 $220 $151 $219 $221 forward $88 $-1 #
coedge $-1 $222 $90 $220 $223 forward $57 $-1 #
coedge $-1 $90 $222 $224 $225 forward $57 $-1 #
coedge $-1 $154 $153 $90 $147 reversed $155 $-1 #
edge $-1 $226 -45.354838990954008 $227 45.354838990954008 $146 $228 forward 7 unknown #
coedge $-1 $92 $91 $229 $230 forward $36 $-1 #
coedge $-1 $231 $232 $91 $150 reversed $217 $-1 #
edge $-1 $157 -68.755760368663601 $233 68.755760368663601 $149 $234 forward 7 unknown #
coedge $-1 $143 $235 $92 $152 reversed $88 $-1 #
edge $-1 $236 -68.755760368663601 $156 68.755760368663601 $151 $237 forward 7 unknown #
coedge $-1 $146 $93 $235 $238 forward $155 $-1 #
coedge $-1 $93 $146 $231 $239 reversed $155 $-1 #
loop $-1 $-1 $153 $216 #
vertex $-1 $94 $240 #
vertex $-1 $94 $241 #
straight-curve $-1 68.755760368663601 0 20.1365131587451 0 1 0 I I #
face $-1 $242 $243 $22 $-1 $244 reversed single #
loop $-1 $-1 $245 $95 #
plane-surface $-1 -81.165111676684916 0 -16.168928390627322 0 0 1 1 0 0 forward_v I I I I #
coedge $-1 $246 $98 $247 $248 reversed $61 $-1 #
coedge $-1 $98 $246 $168 $249 reversed $61 $-1 #
edge $-1 $170 8.9342375488461858 $250 16.168928390627322 $98 $251 forward 7 unknown #
coedge $-1 $100 $99 $245 $252 forward $39 $-1 #
coedge $-1 $253 $254 $99 $167 forward $255 $-1 #
edge $-1 $256 -16.168928390627322 $171 -8.9342375488461858 $166 $257 forward 7 unknown #
coedge $-1 $258 $101 $163 $249 forward $96 $-1 #
coedge $-1 $101 $258 $253 $259 forward $96 $-1 #
vertex $-1 $164 $260 #
vertex $-1 $259 $261 #
straight-curve $-1 -68.755760368663601 0 -8.9342375488461858 0 -1 0 I I #
face $-1 $-1 $185 $23 $-1 $262 forward single #
loop $-1 $-1 $263 $103 #
plane-surface $-1 0 -45.354838990954008 0 0 1 0 0 0 1 forward_v I I I I #
coedge $-1 $264 $265 $266 $267 reversed $104 $-1 #
coedge $-1 $268 $106 $108 $183 forward $65 $-1 #
coedge $-1 $106 $268 $264 $269 forward $65 $-1 #
coedge $-1 $266 $109 $106 $180 forward $185 $-1 #
edge $-1 $187 -1.806684510000867 $270 24.32207757114282 $179 $271 forward 7 unknown #
coedge $-1 $272 $273 $107 $182 forward $174 $-1 #
edge $-1 $274 -52.775946138101745 $186 -41.089757379484894 $181 $275 forward 7 unknown #
edge $-1 $187 -20.89831350541543 $274 1.6747963185031944e-014 $108 $276 forward 7 unknown #
coedge $-1 $109 $266 $272 $277 forward $185 $-1 #
loop $-1 $-1 $266 $173 #
vertex $-1 $182 $278 #
vertex $-1 $110 $279 #
straight-curve $-1 -9.4510120205701078 -61.125153266061844 20.136513158745103 0 1 0 I I #
coedge $-1 $189 $189 $-1 $280 reversed $113 $-1 #
edge $-1 $281 0 $281 6.2831853071796004 $114 $282 forward 7 unknown #
vertex $-1 $117 $283 #
ellipse-curve $-1 -28.114413507101304 -36.692095492664819 14.293418779436665 0 -0.55919291073839883 0.82903756765294845 1.5 0 0 1 I I #
coedge $-1 $193 $193 $-1 $284 reversed $120 $-1 #
edge $-1 $285 0 $285 6.2831853071796004 $121 $286 forward 7 unknown #
vertex $-1 $124 $287 #
ellipse-curve $-1 -16.916372615182581 -36.692095492664819 14.293418779436665 0 -0.55919291073839883 0.82903756765294845 1.5 0 0 1 I I #
face $-1 $-1 $288 $26 $-1 $289 reversed single #
loop $-1 $-1 $131 $125 #
plane-surface $-1 0 0 20.1365131587451 0 0 1 1 0 0 forward_v I I I I #
coedge $-1 $290 $291 $292 $293 reversed $126 $-1 #
coedge $-1 $294 $128 $130 $207 forward $79 $-1 #
coedge $-1 $128 $294 $290 $295 forward $79 $-1 #
coedge $-1 $292 $131 $128 $204 forward $198 $-1 #
edge $-1 $210 -22.19907122890908 $296 10.277109447914494 $203 $297 forward 7 unknown #
coedge $-1 $298 $299 $129 $206 forward $288 $-1 #
edge $-1 $300 -76.4485471766465 $209 -57.627853809380753 $205 $301 forward 7 unknown #
edge $-1 $210 67.446021831616207 $300 90.709677981908001 $130 $302 forward 7 unknown #
coedge $-1 $131 $292 $298 $303 forward $198 $-1 #
vertex $-1 $132 $304 #
vertex $-1 $132 $305 #
straight-curve $-1 -28.160052119406373 51.643093689472941 20.136513158745103 0 -1 0 I I #
coedge $-1 $212 $212 $-1 $306 reversed $135 $-1 #
edge $-1 $307 0 $307 6.2831853071796004 $136 $308 forward 7 unknown #
vertex $-1 $139 $309 #
ellipse-curve $-1 -11.921961780994586 38.517822122202553 10.726166475112224 0 0.80901700255871778 0.5877852410284794 3 0 0 1 I I #
face $-1 $-1 $155 $21 $-1 $310 reversed single #
loop $-1 $-1 $231 $140 #
plane-surface $-1 0 45.354838990954008 0 0 -1 0 0 0 -1 forward_v I I I I #
coedge $-1 $229 $311 $143 $221 reversed $141 $-1 #
coedge $-1 $235 $143 $144 $223 reversed $88 $-1 #
edge $-1 $236 -20.1365131587451 $312 20.1365131587451 $219 $313 forward 7 unknown #
coedge $-1 $145 $144 $311 $314 forward $57 $-1 #
edge $-1 $227 -68.755760368663601 $312 68.755760368663601 $220 $315 forward 7 unknown #
coedge $-1 $232 $231 $145 $225 reversed $217 $-1 #
edge $-1 $316 -68.755760368663601 $226 68.755760368663601 $224 $317 forward 7 unknown #
vertex $-1 $147 $318 #
vertex $-1 $238 $319 #
straight-curve $-1 68.755760368663601 0 -20.1365131587451 0 -1 0 I I #
coedge $-1 $320 $219 $148 $230 reversed $141 $-1 #
edge $-1 $233 -45.354838990954008 $236 45.354838990954008 $229 $321 forward 7 unknown #
coedge $-1 $224 $149 $154 $239 forward $217 $-1 #
coedge $-1 $149 $224 $320 $322 reversed $217 $-1 #
vertex $-1 $150 $323 #
straight-curve $-1 0 45.354838990954008 20.1365131587451 -1 0 0 I I #
coedge $-1 $151 $220 $153 $238 reversed $88 $-1 #
vertex $-1 $230 $324 #
straight-curve $-1 0 -45.354838990954008 20.1365131587451 1 0 0 I I #
edge $-1 $156 -20.1365131587451 $227 20.1365131587451 $153 $325 forward 7 unknown #
edge $-1 $157 -20.1365131587451 $226 20.1365131587451 $154 $326 forward 7 unknown #
point $-1 68.755760368663601 -45.354838990954008 20.1365131587451 #
point $-1 68.755760368663601 45.354838990954008 20.1365131587451 #
face $-1 $-1 $255 $22 $-1 $327 reversed single #
loop $-1 $-1 $328 $159 #
plane-surface $-1 -93.57446298470623 0 -12.551582969736755 1 0 0 0 0 -1 forward_v I I I I #
coedge $-1 $329 $247 $165 $252 reversed $160 $-1 #
coedge $-1 $163 $162 $328 $330 reversed $61 $-1 #
coedge $-1 $245 $331 $162 $248 forward $160 $-1 #
edge $-1 $332 -12.409351308021314 $250 12.409351308021314 $162 $333 forward 7 unknown #
edge $-1 $170 -12.409351308021314 $334 12.409351308021314 $163 $335 forward 7 unknown #
vertex $-1 $164 $336 #
straight-curve $-1 -68.755760368663601 45.354838990954008 0 0 0 -1 I I #
edge $-1 $256 -45.354838990954008 $250 45.354838990954008 $245 $337 forward 7 unknown #
coedge $-1 $338 $166 $169 $259 reversed $255 $-1 #
coedge $-1 $166 $338 $329 $339 reversed $255 $-1 #
loop $-1 $-1 $166 $242 #
vertex $-1 $167 $340 #
straight-curve $-1 -68.755760368663601 -45.354838990954008 0 0 0 1 I I #
coedge $-1 $169 $168 $341 $342 forward $96 $-1 #
edge $-1 $343 -12.409351308021314 $171 12.409351308021314 $253 $344 forward 7 unknown #
point $-1 -68.755760368663601 45.354838990954008 -8.9342375488461858 #
point $-1 -68.755760368663601 -45.354838990954008 -8.9342375488461858 #
plane-surface $-1 0 0 20.1365131587451 0 0 1 1 0 0 forward_v I I I I #
coedge $-1 $273 $272 $265 $345 forward $174 $-1 #
coedge $-1 $265 $176 $178 $269 reversed $104 $-1 #
coedge $-1 $176 $264 $263 $345 reversed $104 $-1 #
coedge $-1 $184 $179 $176 $267 forward $185 $-1 #
edge $-1 $270 -33.095801271686227 $346 -15.770314275107836 $266 $347 forward 7 unknown #
coedge $-1 $178 $177 $273 $348 reversed $65 $-1 #
edge $-1 $349 -1.6747963185031944e-014 $270 20.89831350541543 $264 $350 forward 7 unknown #
vertex $-1 $180 $351 #
straight-curve $-1 -11.257696530570975 -28.02935199437562 20.1365131587451 -1 0 0 I I #
coedge $-1 $263 $181 $184 $277 reversed $174 $-1 #
coedge $-1 $181 $263 $268 $348 forward $174 $-1 #
vertex $-1 $182 $352 #
straight-curve $-1 -9.4510120205701078 -45.354838990954008 61.22627053822999 0 0 1 I I #
straight-curve $-1 -9.4510120205701078 -45.354838990953994 8.4503244001282525 0 -0.82903756765294845 -0.55919291073839883 I I #
edge $-1 $346 -35.579774101713795 $186 -9.4510120205701078 $272 $353 forward 7 unknown #
point $-1 -9.4510120205701078 -45.354838990954008 20.1365131587451 #
point $-1 -9.4510120205701078 -28.02935199437562 20.1365131587451 #
edge $-1 $354 1 $354 0 $189 $-1 forward 7 unknown #
vertex $-1 $190 $355 #
ellipse-curve $-1 -28.114413507101304 -33.581148683853414 9.6812505527881942 0 -0.55919291073839883 0.82903756765294845 1.5 0 0 1 I I #
point $-1 -26.614413507101304 -36.692095492664841 14.293418779436688 #
edge $-1 $356 1 $356 0 $193 $-1 forward 7 unknown #
vertex $-1 $194 $357 #
ellipse-curve $-1 -16.916372615182581 -33.581148683853414 9.6812505527881942 0 -0.55919291073839883 0.82903756765294845 1.5 0 0 1 I I #
point $-1 -15.416372615182581 -36.692095492664841 14.293418779436688 #
loop $-1 $-1 $205 $197 #
plane-surface $-1 0 45.354838990954008 0 0 -1 0 0 0 -1 forward_v I I I I #
coedge $-1 $291 $200 $202 $295 reversed $126 $-1 #
coedge $-1 $200 $290 $358 $359 reversed $126 $-1 #
coedge $-1 $208 $203 $200 $293 forward $198 $-1 #
edge $-1 $296 -19.962288436021865 $360 -6.2882546985189336 $292 $361 forward 7 unknown #
coedge $-1 $202 $201 $299 $362 reversed $79 $-1 #
edge $-1 $363 -90.709677981908001 $296 -67.446021831616207 $290 $364 forward 7 unknown #
vertex $-1 $204 $365 #
straight-curve $-1 -5.960980890497293 31.68080525345108 20.13651315874511 1 0 0 I I #
coedge $-1 $358 $205 $208 $303 reversed $288 $-1 #
coedge $-1 $205 $358 $294 $362 forward $288 $-1 #
vertex $-1 $206 $366 #
straight-curve $-1 -28.160052119406373 45.354838990954008 77.764366968125856 0 0 1 I I #
straight-curve $-1 -28.160052119406373 -7.9629709452575383 74.701491575469092 0 0.5877852410284794 -0.80901700255871778 I I #
edge $-1 $360 -4.3161285574172013 $209 28.160052119406373 $298 $367 forward 7 unknown #
point $-1 -28.160052119406373 45.354838990954008 20.1365131587451 #
point $-1 -28.160052119406373 31.680805253451076 20.13651315874511 #
edge $-1 $368 1 $368 0 $212 $-1 forward 7 unknown #
vertex $-1 $213 $369 #
ellipse-curve $-1 -11.921961780994586 34.956611593375918 8.1387956504952221 0 0.80901700255871778 0.5877852410284794 3 0 0 1 I I #
point $-1 -8.9219617809945859 38.517822122202531 10.726166475112207 #
plane-surface $-1 68.755760368663601 0 0 -1 0 0 0 0 1 forward_v I I I I #
coedge $-1 $219 $320 $222 $314 reversed $141 $-1 #
vertex $-1 $314 $370 #
straight-curve $-1 -68.755760368663601 -45.354838990954008 0 0 0 -1 I I #
edge $-1 $312 -45.354838990954008 $316 45.354838990954008 $311 $371 forward 7 unknown #
straight-curve $-1 0 -45.354838990954008 -20.1365131587451 -1 0 0 I I #
vertex $-1 $225 $372 #
straight-curve $-1 0 45.354838990954008 -20.1365131587451 1 0 0 I I #
point $-1 68.755760368663601 45.354838990954008 -20.1365131587451 #
point $-1 68.755760368663601 -45.354838990954008 -20.1365131587451 #
coedge $-1 $311 $229 $232 $322 forward $141 $-1 #
straight-curve $-1 -68.755760368663601 0 20.1365131587451 0 -1 0 I I #
edge $-1 $233 -20.1365131587451 $316 20.1365131587451 $232 $373 forward 7 unknown #
point $-1 -68.755760368663601 45.354838990954008 20.1365131587451 #
point $-1 -68.755760368663601 -45.354838990954008 20.1365131587451 #
straight-curve $-1 68.755760368663601 -45.354838990954008 0 0 0 -1 I I #
straight-curve $-1 68.755760368663601 45.354838990954008 0 0 0 -1 I I #
plane-surface $-1 0 -45.354838990954008 0 0 1 0 0 0 1 forward_v I I I I #
coedge $-1 $374 $341 $246 $330 forward $243 $-1 #
coedge $-1 $331 $245 $254 $339 forward $160 $-1 #
edge $-1 $334 -3.6173454208905689 $332 3.6173454208905671 $246 $375 forward 7 unknown #
coedge $-1 $247 $329 $374 $376 forward $160 $-1 #
vertex $-1 $248 $377 #
straight-curve $-1 -81.165111676684916 45.354838990954008 -16.168928390627322 1 0 0 I I #
vertex $-1 $249 $378 #
straight-curve $-1 -81.165111676684916 45.354838990954008 -8.9342375488461858 -1 0 0 I I #
point $-1 -68.755760368663601 45.354838990954008 -16.168928390627322 #
straight-curve $-1 -68.755760368663601 0 -16.168928390627322 0 1 0 I I #
coedge $-1 $254 $253 $379 $380 forward $255 $-1 #
edge $-1 $256 -12.409351308021314 $381 12.409351308021314 $254 $382 forward 7 unknown #
point $-1 -68.755760368663601 -45.354838990954008 -16.168928390627322 #
coedge $-1 $328 $379 $258 $342 reversed $243 $-1 #
edge $-1 $334 -45.354838990954008 $343 45.354838990954008 $341 $383 forward 7 unknown #
vertex $-1 $342 $384 #
straight-curve $-1 -81.165111676684916 -45.354838990954008 -8.9342375488461858 1 0 0 I I #
edge $-1 $346 41.089757379484894 $349 52.775946138101745 $263 $385 forward 7 unknown #
vertex $-1 $277 $386 #
straight-curve $-1 -35.579774101713795 -61.125153266061844 20.136513158745103 0 -1 0 I I #
edge $-1 $349 -24.32207757114282 $274 1.806684510000867 $273 $387 forward 7 unknown #
vertex $-1 $348 $388 #
straight-curve $-1 -35.579774101713795 -45.354838990953994 8.4503244001282525 0 0.82903756765294845 0.55919291073839883 I I #
point $-1 -35.579774101713795 -28.02935199437562 20.1365131587451 #
point $-1 -9.4510120205701078 -45.354838990954008 8.4503244001282436 #
straight-curve $-1 0 -45.354838990954008 20.1365131587451 1 0 0 I I #
vertex $-1 $280 $389 #
point $-1 -26.614413507101304 -33.581148683853414 9.6812505527881942 #
vertex $-1 $284 $390 #
point $-1 -15.416372615182581 -33.581148683853414 9.6812505527881942 #
coedge $-1 $299 $298 $291 $359 forward $288 $-1 #
edge $-1 $360 57.627853809380753 $363 76.4485471766465 $358 $391 forward 7 unknown #
vertex $-1 $303 $392 #
straight-curve $-1 4.3161285574172013 51.643093689472941 20.136513158745103 0 1 0 I I #
edge $-1 $363 -10.277109447914494 $300 22.19907122890908 $299 $393 forward 7 unknown #
vertex $-1 $362 $394 #
straight-curve $-1 4.3161285574172013 -7.9629709452575383 74.701491575469092 0 -0.5877852410284794 0.80901700255871778 I I #
point $-1 4.3161285574172013 31.680805253451076 20.13651315874511 #
point $-1 -28.160052119406373 45.354838990954008 1.3158197914793561 #
straight-curve $-1 0 45.354838990954008 20.1365131587451 -1 0 0 I I #
vertex $-1 $306 $395 #
point $-1 -8.9219617809945859 34.956611593375918 8.1387956504952221 #
point $-1 -68.755760368663601 -45.354838990954008 -20.1365131587451 #
straight-curve $-1 -68.755760368663601 0 -20.1365131587451 0 1 0 I I #
point $-1 -68.755760368663601 45.354838990954008 -20.1365131587451 #
straight-curve $-1 -68.755760368663601 45.354838990954008 0 0 0 -1 I I #
coedge $-1 $379 $328 $331 $376 reversed $243 $-1 #
straight-curve $-1 -93.57446298470623 45.354838990954008 -12.551582969736755 0 0 -1 I I #
edge $-1 $381 -45.354838990954008 $332 45.354838990954008 $374 $396 forward 7 unknown #
point $-1 -93.57446298470623 45.354838990954008 -16.168928390627322 #
point $-1 -93.57446298470623 45.354838990954008 -8.9342375488461858 #
coedge $-1 $341 $374 $338 $380 reversed $243 $-1 #
edge $-1 $343 -3.6173454208905689 $381 3.6173454208905671 $379 $397 forward 7 unknown #
vertex $-1 $376 $398 #
straight-curve $-1 -81.165111676684916 -45.354838990954008 -16.168928390627322 -1 0 0 I I #
straight-curve $-1 -93.57446298470623 0 -8.9342375488461858 0 -1 0 I I #
point $-1 -93.57446298470623 -45.354838990954008 -8.9342375488461858 #
straight-curve $-1 -35.579774101713795 -45.354838990954008 61.22627053822999 0 0 -1 I I #
point $-1 -35.579774101713795 -45.354838990954008 20.1365131587451 #
straight-curve $-1 -11.257696530570975 -45.354838990954008 8.4503244001282436 1 0 0 I I #
point $-1 -35.579774101713795 -45.354838990954008 8.4503244001282436 #
point $-1 -28.114413507101304 -32.742359317745809 8.437694201308771 #
point $-1 -16.916372615182581 -32.742359317745809 8.437694201308771 #
straight-curve $-1 4.3161285574172013 45.354838990954008 77.764366968125856 0 0 -1 I I #
point $-1 4.3161285574172013 45.354838990954008 20.1365131587451 #
straight-curve $-1 -5.960980890497293 45.354838990954008 1.3158197914793561 -1 0 0 I I #
point $-1 4.3161285574172013 45.354838990954008 1.3158197914793561 #
point $-1 -11.921961780994586 32.529560585699762 6.3754399274097837 #
straight-curve $-1 -93.57446298470623 0 -16.168928390627322 0 1 0 I I #
straight-curve $-1 -93.57446298470623 -45.354838990954008 -12.551582969736755 0 0 -1 I I #
point $-1 -93.57446298470623 -45.354838990954008 -16.168928390627322 #
End-of-ACIS-data 