500 0 11 0           
7 Unknown 11 ACIS 5.0 NT 24 Thu Mar 25 16:07:18 1999 
-1 9.9999999999999995e-007 1e-010 
body $-1 $11 $-1 $12 #
body $-1 $13 $-1 $14 #
body $-1 $15 $-1 $16 #
body $-1 $17 $-1 $18 #
body $-1 $19 $-1 $20 #
body $-1 $21 $-1 $22 #
body $-1 $23 $-1 $24 #
body $-1 $25 $-1 $26 #
body $-1 $27 $-1 $28 #
body $-1 $29 $-1 $30 #
body $-1 $31 $-1 $32 #
lump $-1 $-1 $33 $0 #
transform $-1 1 0 0 0 1 0 0 0 1 41.723685415204322 28.310017795317076 6.8384845073309792 1 rotate no_reflect no_shear #
lump $-1 $-1 $34 $1 #
transform $-1 1 0 0 0 1 0 0 0 1 41.723685415204322 28.310017795317076 6.8384845073309792 1 rotate no_reflect no_shear #
lump $-1 $-1 $35 $2 #
transform $-1 1 0 0 0 1 0 0 0 1 41.723685415204322 28.310017795317076 6.8384845073309792 1 rotate no_reflect no_shear #
lump $-1 $-1 $36 $3 #
transform $-1 1 0 0 0 1 0 0 0 1 41.723685415204322 28.310017795317076 6.8384845073309792 1 rotate no_reflect no_shear #
lump $-1 $-1 $37 $4 #
transform $-1 1 0 0 0 1 0 0 0 1 41.723685415204322 28.310017795317076 6.8384845073309792 1 rotate no_reflect no_shear #
lump $-1 $-1 $38 $5 #
transform $-1 1 0 0 0 1 0 0 0 1 41.723685415204322 28.310017795317076 6.8384845073309792 1 rotate no_reflect no_shear #
lump $-1 $-1 $39 $6 #
transform $-1 1 0 0 0 1 0 0 0 1 41.723685415204322 28.310017795317076 6.8384845073309792 1 rotate no_reflect no_shear #
lump $-1 $-1 $40 $7 #
transform $-1 1 0 0 0 1 0 0 0 1 41.723685415204322 28.310017795317076 6.8384845073309792 1 rotate no_reflect no_shear #
lump $-1 $-1 $41 $8 #
transform $-1 1 0 0 0 1 0 0 0 1 41.723685415204322 28.310017795317076 6.8384845073309792 1 rotate no_reflect no_shear #
lump $-1 $-1 $42 $9 #
transform $-1 1 0 0 0 1 0 0 0 1 41.723685415204322 28.310017795317076 6.8384845073309792 1 rotate no_reflect no_shear #
lump $-1 $-1 $43 $10 #
transform $-1 1 0 0 0 1 0 0 0 1 41.723685415204322 28.310017795317076 6.8384845073309792 1 rotate no_reflect no_shear #
shell $-1 $-1 $-1 $44 $-1 $11 #
shell $-1 $-1 $-1 $45 $-1 $13 #
shell $-1 $-1 $-1 $46 $-1 $15 #
shell $-1 $-1 $-1 $47 $-1 $17 #
shell $-1 $-1 $-1 $48 $-1 $19 #
shell $-1 $-1 $-1 $49 $-1 $21 #
shell $-1 $-1 $-1 $50 $-1 $23 #
shell $-1 $-1 $-1 $51 $-1 $25 #
shell $-1 $-1 $-1 $52 $-1 $27 #
shell $-1 $-1 $-1 $53 $-1 $29 #
shell $-1 $-1 $-1 $54 $-1 $31 #
face $-1 $55 $56 $33 $-1 $57 forward single #
face $-1 $58 $59 $34 $-1 $60 forward single #
face $-1 $61 $62 $35 $-1 $63 reversed single #
face $-1 $64 $65 $36 $-1 $66 forward single #
face $-1 $67 $68 $37 $-1 $69 forward single #
face $-1 $70 $71 $38 $-1 $72 reversed single #
face $-1 $73 $74 $39 $-1 $75 forward single #
face $-1 $76 $77 $40 $-1 $78 forward single #
face $-1 $79 $80 $41 $-1 $81 reversed single #
face $-1 $82 $83 $42 $-1 $84 forward single #
face $-1 $85 $86 $43 $-1 $87 forward single #
face $-1 $88 $89 $33 $-1 $90 reversed single #
loop $-1 $-1 $91 $44 #
plane-surface $-1 0 0 6.8384845073309792 0 0 1 1 0 0 forward_v I I I I #
face $-1 $92 $93 $34 $-1 $94 reversed single #
loop $-1 $-1 $95 $45 #
plane-surface $-1 0 -28.310017795317076 0 0 1 0 0 0 1 forward_v I I I I #
face $-1 $96 $97 $35 $-1 $98 reversed single #
loop $-1 $-1 $99 $46 #
plane-surface $-1 -93.099017496973204 15.341002361822653 68.345037128536305 0 1 0 -0.61566148304635926 0 0.78801074757464917 forward_v I I I I #
face $-1 $100 $101 $36 $-1 $102 forward single #
loop $-1 $103 $104 $47 #
cone-surface $-1 -38.478181181029832 19.046435342821066 4.0409893710356988 0.61566148304635926 0 -0.78801074757464917 0.78801074757464917 0 0.61566148304635926 1 I I 0 1 1 forward I I I I #
face $-1 $105 $106 $37 $-1 $107 forward single #
loop $-1 $108 $109 $48 #
cone-surface $-1 -38.478181181029832 24.604584814318674 4.0409893710356988 0.61566148304635926 0 -0.78801074757464917 0.78801074757464917 0 0.61566148304635926 1 I I 0 1 1 forward I I I I #
face $-1 $110 $111 $38 $-1 $112 reversed single #
loop $-1 $-1 $113 $49 #
plane-surface $-1 39.664086322025561 -8.3800648627551588 121.29978814050406 0 -1 0 -0.69465837861970381 0 -0.71933979245794832 forward_v I I I I #
face $-1 $114 $115 $39 $-1 $116 forward single #
loop $-1 $117 $118 $50 #
cone-surface $-1 39.547026676757014 -14.316582572680947 4.712251559970321 -0.69465837861970381 0 -0.71933979245794832 0.35966989622897416 0 -0.3473291893098519 1 I I 0 1 0.5 forward I I I I #
face $-1 $119 $120 $40 $-1 $121 forward single #
loop $-1 $122 $123 $51 #
cone-surface $-1 39.547026676757014 -10.754671946725477 4.712251559970321 -0.69465837861970381 0 -0.71933979245794832 0.35966989622897416 0 -0.3473291893098519 1 I I 0 1 0.5 forward I I I I #
face $-1 $124 $125 $41 $-1 $126 reversed single #
loop $-1 $-1 $127 $52 #
plane-surface $-1 39.664086322025561 24.745942262420115 121.29978814050406 0 -1 0 -0.69465837861970381 0 -0.71933979245794832 forward_v I I I I #
face $-1 $128 $129 $42 $-1 $130 forward single #
loop $-1 $131 $132 $53 #
cone-surface $-1 39.547026676757014 18.809424552494324 4.712251559970321 -0.69465837861970381 0 -0.71933979245794832 0.35966989622897416 0 -0.3473291893098519 1 I I 0 1 0.5 forward I I I I #
face $-1 $133 $134 $43 $-1 $135 forward single #
loop $-1 $136 $137 $54 #
cone-surface $-1 39.547026676757014 22.371335178449794 4.712251559970321 -0.69465837861970381 0 -0.71933979245794832 0.35966989622897416 0 -0.3473291893098519 1 I I 0 1 0.5 forward I I I I #
face $-1 $138 $139 $33 $-1 $140 reversed single #
loop $-1 $-1 $141 $55 #
plane-surface $-1 0 0 -6.8384845073309792 0 0 1 1 0 0 forward_v I I I I #
coedge $-1 $142 $143 $144 $145 forward $56 $-1 #
face $-1 $146 $147 $34 $-1 $148 reversed single #
loop $-1 $-1 $149 $58 #
plane-surface $-1 0 0 -6.8384845073309792 0 0 1 1 0 0 forward_v I I I I #
coedge $-1 $150 $151 $152 $153 forward $59 $-1 #
face $-1 $154 $155 $35 $-1 $156 reversed single #
loop $-1 $-1 $157 $61 #
plane-surface $-1 -41.723685415204315 21.825510078569867 2.5876120573270214 -0.61566148304635926 0 0.78801074757464917 0.78801074757464917 0 0.61566148304635926 forward_v I I I I #
coedge $-1 $158 $159 $160 $161 reversed $62 $-1 #
face $-1 $-1 $162 $36 $-1 $163 forward single #
loop $-1 $164 $165 $64 #
cone-surface $-1 -37.645280461343503 19.046435342821066 2.9749250859550811 0.61566148304635926 0 -0.78801074757464917 0.39400537378732459 0 0.30783074152317963 1 I I -0.70710678118654746 0.70710678118654746 0.5 forward I I I I #
loop $-1 $-1 $166 $47 #
coedge $-1 $104 $104 $167 $168 reversed $65 $-1 #
face $-1 $-1 $169 $37 $-1 $170 forward single #
loop $-1 $171 $172 $67 #
cone-surface $-1 -37.645280461343503 24.604584814318674 2.9749250859550811 0.61566148304635926 0 -0.78801074757464917 0.39400537378732459 0 0.30783074152317963 1 I I -0.70710678118654746 0.70710678118654746 0.5 forward I I I I #
loop $-1 $-1 $173 $48 #
coedge $-1 $109 $109 $174 $175 reversed $68 $-1 #
face $-1 $176 $177 $38 $-1 $178 reversed single #
loop $-1 $-1 $179 $70 #
plane-surface $-1 -18.303328999103272 -12.53562725970321 61.272773726196455 0.69465837861970381 0 0.71933979245794832 0.71933979245794832 0 -0.69465837861970381 forward_v I I I I #
coedge $-1 $180 $181 $182 $183 reversed $71 $-1 #
face $-1 $-1 $184 $39 $-1 $185 forward single #
loop $-1 $186 $187 $73 #
cone-surface $-1 39.026032892792237 -14.316582572680947 4.1727467156268601 -0.69465837861970381 0 -0.71933979245794832 0.17983494811448708 0 -0.17366459465492595 1 I I -0.70710678118654746 0.70710678118654746 0.25 forward I I I I #
loop $-1 $-1 $188 $50 #
coedge $-1 $118 $118 $189 $190 reversed $74 $-1 #
face $-1 $-1 $191 $40 $-1 $192 forward single #
loop $-1 $193 $194 $76 #
cone-surface $-1 39.026032892792237 -10.754671946725477 4.1727467156268601 -0.69465837861970381 0 -0.71933979245794832 0.17983494811448708 0 -0.17366459465492595 1 I I -0.70710678118654746 0.70710678118654746 0.25 forward I I I I #
loop $-1 $-1 $195 $51 #
coedge $-1 $123 $123 $196 $197 reversed $77 $-1 #
face $-1 $198 $199 $41 $-1 $200 reversed single #
loop $-1 $-1 $201 $79 #
plane-surface $-1 -18.303328999103272 20.590379865472062 61.272773726196455 0.69465837861970381 0 0.71933979245794832 0.71933979245794832 0 -0.69465837861970381 forward_v I I I I #
coedge $-1 $202 $203 $204 $205 reversed $80 $-1 #
face $-1 $-1 $206 $42 $-1 $207 forward single #
loop $-1 $208 $209 $82 #
cone-surface $-1 39.026032892792237 18.809424552494324 4.1727467156268601 -0.69465837861970381 0 -0.71933979245794832 0.17983494811448708 0 -0.17366459465492595 1 I I -0.70710678118654746 0.70710678118654746 0.25 forward I I I I #
loop $-1 $-1 $210 $53 #
coedge $-1 $132 $132 $211 $212 reversed $83 $-1 #
face $-1 $-1 $213 $43 $-1 $214 forward single #
loop $-1 $215 $216 $85 #
cone-surface $-1 39.026032892792237 22.371335178449794 4.1727467156268601 -0.69465837861970381 0 -0.71933979245794832 0.17983494811448708 0 -0.17366459465492595 1 I I -0.70710678118654746 0.70710678118654746 0.25 forward I I I I #
loop $-1 $-1 $217 $54 #
coedge $-1 $137 $137 $218 $219 reversed $86 $-1 #
face $-1 $220 $221 $33 $-1 $222 reversed single #
loop $-1 $-1 $223 $88 #
plane-surface $-1 0 -28.310017795317076 0 0 1 0 0 0 1 forward_v I I I I #
coedge $-1 $224 $225 $226 $227 forward $89 $-1 #
coedge $-1 $228 $91 $229 $230 forward $56 $-1 #
coedge $-1 $91 $228 $231 $232 forward $56 $-1 #
coedge $-1 $233 $234 $91 $145 reversed $235 $-1 #
edge $-1 $236 -28.310017795317076 $237 28.310017795317076 $144 $238 forward 7 unknown #
face $-1 $239 $240 $34 $-1 $241 forward single #
loop $-1 $-1 $242 $92 #
plane-surface $-1 41.723685415204322 0 0 -1 0 0 0 0 1 forward_v I I I I #
coedge $-1 $243 $244 $245 $246 forward $93 $-1 #
coedge $-1 $245 $95 $242 $247 reversed $59 $-1 #
coedge $-1 $95 $245 $248 $249 reversed $59 $-1 #
coedge $-1 $250 $251 $95 $153 reversed $240 $-1 #
edge $-1 $252 -41.723685415204322 $253 41.723685415204322 $152 $254 forward 7 unknown #
face $-1 $255 $256 $35 $-1 $257 reversed single #
loop $-1 $-1 $258 $96 #
plane-surface $-1 0 28.310017795317076 0 0 -1 0 0 0 -1 forward_v I I I I #
coedge $-1 $259 $260 $261 $262 reversed $97 $-1 #
coedge $-1 $159 $99 $263 $264 reversed $62 $-1 #
coedge $-1 $99 $158 $259 $265 reversed $62 $-1 #
coedge $-1 $261 $266 $99 $161 forward $267 $-1 #
edge $-1 $268 4.8258233332822797 $269 10.266691845304933 $160 $270 forward 7 unknown #
loop $-1 $-1 $167 $100 #
plane-surface $-1 -41.723685415204315 21.825510078569867 2.5876120573270214 -0.61566148304635926 0 0.78801074757464917 0.78801074757464917 0 0.61566148304635926 forward_v I I I I #
loop $-1 $-1 $271 $64 #
coedge $-1 $165 $165 $166 $272 reversed $101 $-1 #
coedge $-1 $166 $166 $165 $272 forward $103 $-1 #
coedge $-1 $167 $167 $104 $168 forward $162 $-1 #
edge $-1 $273 0 $273 6.2831853071796004 $167 $274 forward 7 unknown #
loop $-1 $-1 $174 $105 #
plane-surface $-1 -41.723685415204315 21.825510078569867 2.5876120573270214 -0.61566148304635926 0 0.78801074757464917 0.78801074757464917 0 0.61566148304635926 forward_v I I I I #
loop $-1 $-1 $275 $67 #
coedge $-1 $172 $172 $173 $276 reversed $106 $-1 #
coedge $-1 $173 $173 $172 $276 forward $108 $-1 #
coedge $-1 $174 $174 $109 $175 forward $169 $-1 #
edge $-1 $277 0 $277 6.2831853071796004 $174 $278 forward 7 unknown #
face $-1 $279 $280 $38 $-1 $281 forward single #
loop $-1 $-1 $282 $110 #
plane-surface $-1 39.664086322025561 -16.691189656651261 121.29978814050406 0 1 0 0.69465837861970381 0 0.71933979245794832 forward_v I I I I #
coedge $-1 $283 $284 $285 $286 reversed $111 $-1 #
coedge $-1 $181 $113 $287 $288 reversed $71 $-1 #
coedge $-1 $113 $180 $283 $289 reversed $71 $-1 #
coedge $-1 $285 $290 $113 $183 forward $280 $-1 #
edge $-1 $291 -21.891642254191542 $292 -18.232983155916624 $182 $293 forward 7 unknown #
loop $-1 $-1 $189 $114 #
plane-surface $-1 -18.303328999103272 -12.53562725970321 61.272773726196455 0.69465837861970381 0 0.71933979245794832 0.71933979245794832 0 -0.69465837861970381 forward_v I I I I #
loop $-1 $-1 $294 $73 #
coedge $-1 $187 $187 $188 $295 reversed $115 $-1 #
coedge $-1 $188 $188 $187 $295 forward $117 $-1 #
coedge $-1 $189 $189 $118 $190 forward $184 $-1 #
edge $-1 $296 0 $296 6.2831853071796004 $189 $297 forward 7 unknown #
loop $-1 $-1 $196 $119 #
plane-surface $-1 -18.303328999103272 -12.53562725970321 61.272773726196455 0.69465837861970381 0 0.71933979245794832 0.71933979245794832 0 -0.69465837861970381 forward_v I I I I #
loop $-1 $-1 $298 $76 #
coedge $-1 $194 $194 $195 $299 reversed $120 $-1 #
coedge $-1 $195 $195 $194 $299 forward $122 $-1 #
coedge $-1 $196 $196 $123 $197 forward $191 $-1 #
edge $-1 $300 0 $300 6.2831853071796004 $196 $301 forward 7 unknown #
face $-1 $302 $303 $41 $-1 $304 reversed single #
loop $-1 $-1 $305 $124 #
plane-surface $-1 39.664086322025561 16.43481746852401 121.29978814050406 0 1 0 0.69465837861970381 0 0.71933979245794832 forward_v I I I I #
coedge $-1 $306 $307 $308 $309 reversed $125 $-1 #
coedge $-1 $203 $127 $310 $311 reversed $80 $-1 #
coedge $-1 $127 $202 $306 $312 reversed $80 $-1 #
coedge $-1 $308 $313 $127 $205 forward $314 $-1 #
edge $-1 $315 -21.891642254191542 $316 -18.232983155916624 $204 $317 forward 7 unknown #
loop $-1 $-1 $211 $128 #
plane-surface $-1 -18.303328999103272 20.590379865472062 61.272773726196455 0.69465837861970381 0 0.71933979245794832 0.71933979245794832 0 -0.69465837861970381 forward_v I I I I #
loop $-1 $-1 $318 $82 #
coedge $-1 $209 $209 $210 $319 reversed $129 $-1 #
coedge $-1 $210 $210 $209 $319 forward $131 $-1 #
coedge $-1 $211 $211 $132 $212 forward $206 $-1 #
edge $-1 $320 0 $320 6.2831853071796004 $211 $321 forward 7 unknown #
loop $-1 $-1 $218 $133 #
plane-surface $-1 -18.303328999103272 20.590379865472062 61.272773726196455 0.69465837861970381 0 0.71933979245794832 0.71933979245794832 0 -0.69465837861970381 forward_v I I I I #
loop $-1 $-1 $322 $85 #
coedge $-1 $216 $216 $217 $323 reversed $134 $-1 #
coedge $-1 $217 $217 $216 $323 forward $136 $-1 #
coedge $-1 $218 $218 $137 $219 forward $213 $-1 #
edge $-1 $324 0 $324 6.2831853071796004 $218 $325 forward 7 unknown #
face $-1 $326 $327 $33 $-1 $328 reversed single #
loop $-1 $-1 $329 $138 #
plane-surface $-1 -41.723685415204322 0 0 1 0 0 0 0 -1 forward_v I I I I #
coedge $-1 $330 $231 $331 $332 forward $139 $-1 #
coedge $-1 $333 $141 $330 $334 forward $89 $-1 #
coedge $-1 $141 $333 $335 $336 forward $89 $-1 #
coedge $-1 $234 $233 $141 $227 reversed $235 $-1 #
edge $-1 $337 -28.310017795317076 $338 28.310017795317076 $226 $339 forward 7 unknown #
coedge $-1 $143 $142 $340 $341 forward $56 $-1 #
coedge $-1 $342 $343 $142 $230 reversed $327 $-1 #
edge $-1 $237 -41.723685415204322 $344 41.723685415204322 $229 $345 forward 7 unknown #
coedge $-1 $223 $346 $143 $232 reversed $139 $-1 #
edge $-1 $347 -41.723685415204322 $236 41.723685415204322 $231 $348 forward 7 unknown #
coedge $-1 $226 $144 $346 $349 forward $235 $-1 #
coedge $-1 $144 $226 $342 $350 reversed $235 $-1 #
loop $-1 $-1 $233 $326 #
vertex $-1 $145 $351 #
vertex $-1 $145 $352 #
straight-curve $-1 41.723685415204322 0 6.8384845073309792 0 1 0 I I #
face $-1 $353 $354 $34 $-1 $355 reversed single #
loop $-1 $-1 $251 $146 #
plane-surface $-1 0 -32.3373940982015 -3.8384845073309792 0 0 1 1 0 0 forward_v I I I I #
coedge $-1 $356 $357 $150 $247 forward $147 $-1 #
coedge $-1 $358 $149 $357 $359 forward $93 $-1 #
coedge $-1 $149 $358 $360 $361 forward $93 $-1 #
coedge $-1 $151 $150 $149 $246 reversed $59 $-1 #
edge $-1 $362 -41.723685415204322 $363 41.723685415204322 $149 $364 forward 7 unknown #
edge $-1 $363 -6.8384845073309792 $253 -3.8384845073309792 $242 $365 forward 7 unknown #
coedge $-1 $360 $366 $151 $249 forward $367 $-1 #
edge $-1 $252 3.8384845073309792 $362 6.8384845073309792 $248 $368 forward 7 unknown #
coedge $-1 $369 $152 $366 $370 forward $240 $-1 #
coedge $-1 $152 $369 $356 $371 forward $240 $-1 #
vertex $-1 $249 $372 #
vertex $-1 $371 $373 #
straight-curve $-1 0 -28.310017795317076 -3.8384845073309792 1 0 0 I I #
face $-1 $-1 $267 $35 $-1 $374 forward single #
loop $-1 $-1 $375 $154 #
plane-surface $-1 -41.723685415204322 0 0 1 0 0 0 0 -1 forward_v I I I I #
coedge $-1 $376 $377 $260 $378 forward $155 $-1 #
coedge $-1 $379 $157 $159 $265 forward $97 $-1 #
coedge $-1 $157 $379 $258 $378 reversed $97 $-1 #
coedge $-1 $380 $160 $157 $262 forward $267 $-1 #
edge $-1 $269 4.4282473225377199 $381 17.397262756032148 $261 $382 forward 7 unknown #
coedge $-1 $383 $375 $158 $264 forward $256 $-1 #
edge $-1 $384 -31.584906506941138 $268 -27.334034056937174 $263 $385 forward 7 unknown #
edge $-1 $269 -6.9045613004246817 $384 9.1534652039358102e-015 $159 $386 forward 7 unknown #
coedge $-1 $160 $380 $383 $387 forward $267 $-1 #
loop $-1 $-1 $261 $255 #
vertex $-1 $264 $388 #
vertex $-1 $161 $389 #
straight-curve $-1 -46.549508748486602 15.341002361822653 6.8384845073309783 1 0 0 I I #
coedge $-1 $271 $271 $-1 $390 reversed $164 $-1 #
edge $-1 $391 0 $391 6.2831853071796004 $165 $392 forward 7 unknown #
vertex $-1 $168 $393 #
ellipse-curve $-1 -39.003251159192992 19.046435342821066 4.7130482823290007 -0.61566148304635926 0 0.78801074757464917 0.78801074757464917 0 0.61566148304635926 1 I I #
coedge $-1 $275 $275 $-1 $394 reversed $171 $-1 #
edge $-1 $395 0 $395 6.2831853071796004 $172 $396 forward 7 unknown #
vertex $-1 $175 $397 #
ellipse-curve $-1 -39.003251159192992 24.604584814318674 4.7130482823290007 -0.61566148304635926 0 0.78801074757464917 0.78801074757464917 0 0.61566148304635926 1 I I #
face $-1 $-1 $398 $38 $-1 $399 reversed single #
loop $-1 $-1 $182 $176 #
plane-surface $-1 0 0 6.8384845073309792 0 0 1 1 0 0 forward_v I I I I #
coedge $-1 $400 $401 $402 $403 reversed $177 $-1 #
coedge $-1 $404 $179 $181 $289 forward $111 $-1 #
coedge $-1 $179 $404 $400 $405 forward $111 $-1 #
coedge $-1 $402 $182 $179 $286 forward $280 $-1 #
edge $-1 $292 2.1122512329035539 $406 10.423376026799655 $285 $407 forward 7 unknown #
coedge $-1 $408 $409 $180 $288 forward $398 $-1 #
edge $-1 $410 -57.344535665184402 $291 -53.81140956292105 $287 $411 forward 7 unknown #
edge $-1 $292 78.36123610432395 $410 83.44737083040863 $181 $412 forward 7 unknown #
coedge $-1 $182 $402 $408 $413 forward $280 $-1 #
vertex $-1 $288 $414 #
vertex $-1 $183 $415 #
straight-curve $-1 19.832043161012781 -8.3800648627551588 6.8384845073309819 -1 0 0 I I #
coedge $-1 $294 $294 $-1 $416 reversed $186 $-1 #
edge $-1 $417 0 $417 6.2831853071796004 $187 $418 forward 7 unknown #
vertex $-1 $190 $419 #
ellipse-curve $-1 39.894355866066867 -14.316582572680947 5.0719214561993002 0.69465837861970381 0 0.71933979245794832 0.35966989622897416 0 -0.3473291893098519 1 I I #
coedge $-1 $298 $298 $-1 $420 reversed $193 $-1 #
edge $-1 $421 0 $421 6.2831853071796004 $194 $422 forward 7 unknown #
vertex $-1 $197 $423 #
ellipse-curve $-1 39.894355866066867 -10.754671946725477 5.0719214561993002 0.69465837861970381 0 0.71933979245794832 0.35966989622897416 0 -0.3473291893098519 1 I I #
face $-1 $-1 $314 $41 $-1 $424 forward single #
loop $-1 $-1 $425 $198 #
plane-surface $-1 41.723685415204322 0 0 -1 0 0 0 0 1 forward_v I I I I #
coedge $-1 $426 $427 $428 $429 reversed $199 $-1 #
coedge $-1 $430 $201 $203 $312 forward $125 $-1 #
coedge $-1 $201 $430 $426 $431 forward $125 $-1 #
coedge $-1 $428 $204 $201 $309 forward $314 $-1 #
edge $-1 $316 -14.450752329684084 $432 -6.1396275357879784 $308 $433 forward 7 unknown #
coedge $-1 $434 $435 $202 $311 forward $303 $-1 #
edge $-1 $436 -57.344535665184402 $315 -53.81140956292105 $310 $437 forward 7 unknown #
edge $-1 $316 78.36123610432395 $436 83.44737083040863 $203 $438 forward 7 unknown #
coedge $-1 $204 $428 $434 $439 forward $314 $-1 #
loop $-1 $-1 $428 $302 #
vertex $-1 $311 $440 #
vertex $-1 $205 $441 #
straight-curve $-1 19.832043161012781 24.745942262420115 6.8384845073309819 -1 0 0 I I #
coedge $-1 $318 $318 $-1 $442 reversed $208 $-1 #
edge $-1 $443 0 $443 6.2831853071796004 $209 $444 forward 7 unknown #
vertex $-1 $212 $445 #
ellipse-curve $-1 39.894355866066867 18.809424552494324 5.0719214561993002 0.69465837861970381 0 0.71933979245794832 0.35966989622897416 0 -0.3473291893098519 1 I I #
coedge $-1 $322 $322 $-1 $446 reversed $215 $-1 #
edge $-1 $447 0 $447 6.2831853071796004 $216 $448 forward 7 unknown #
vertex $-1 $219 $449 #
ellipse-curve $-1 39.894355866066867 22.371335178449794 5.0719214561993002 0.69465837861970381 0 0.71933979245794832 0.35966989622897416 0 -0.3473291893098519 1 I I #
face $-1 $-1 $235 $33 $-1 $450 reversed single #
loop $-1 $-1 $342 $220 #
plane-surface $-1 0 28.310017795317076 0 0 -1 0 0 0 -1 forward_v I I I I #
coedge $-1 $451 $340 $343 $452 forward $221 $-1 #
coedge $-1 $346 $223 $224 $334 reversed $139 $-1 #
coedge $-1 $340 $451 $223 $332 reversed $221 $-1 #
edge $-1 $347 -6.8384845073309792 $453 6.8384845073309792 $331 $454 forward 7 unknown #
coedge $-1 $225 $224 $451 $455 forward $89 $-1 #
edge $-1 $338 -41.723685415204322 $453 41.723685415204322 $330 $456 forward 7 unknown #
coedge $-1 $343 $342 $225 $336 reversed $327 $-1 #
edge $-1 $457 -41.723685415204322 $337 41.723685415204322 $335 $458 forward 7 unknown #
vertex $-1 $227 $459 #
vertex $-1 $349 $460 #
straight-curve $-1 41.723685415204322 0 -6.8384845073309792 0 -1 0 I I #
coedge $-1 $329 $331 $228 $341 reversed $221 $-1 #
edge $-1 $344 -28.310017795317076 $347 28.310017795317076 $340 $461 forward 7 unknown #
coedge $-1 $335 $229 $234 $350 forward $327 $-1 #
coedge $-1 $229 $335 $329 $452 reversed $327 $-1 #
vertex $-1 $230 $462 #
straight-curve $-1 0 28.310017795317076 6.8384845073309792 -1 0 0 I I #
coedge $-1 $231 $330 $233 $349 reversed $139 $-1 #
vertex $-1 $341 $463 #
straight-curve $-1 0 -28.310017795317076 6.8384845073309792 1 0 0 I I #
edge $-1 $236 -6.8384845073309792 $338 6.8384845073309792 $233 $464 forward 7 unknown #
edge $-1 $237 -6.8384845073309792 $337 6.8384845073309792 $234 $465 forward 7 unknown #
point $-1 41.723685415204322 -28.310017795317076 6.8384845073309792 #
point $-1 41.723685415204322 28.310017795317076 6.8384845073309792 #
face $-1 $-1 $367 $34 $-1 $466 reversed single #
loop $-1 $-1 $467 $239 #
plane-surface $-1 0 -36.36477040108592 -5.3384845073309792 0 1 0 0 0 1 forward_v I I I I #
coedge $-1 $468 $242 $251 $371 reversed $147 $-1 #
coedge $-1 $242 $468 $243 $359 reversed $147 $-1 #
coedge $-1 $244 $243 $469 $470 forward $93 $-1 #
edge $-1 $363 28.310017795317076 $471 36.36477040108592 $357 $472 forward 7 unknown #
coedge $-1 $473 $248 $244 $361 reversed $367 $-1 #
edge $-1 $474 -36.36477040108592 $362 -28.310017795317076 $360 $475 forward 7 unknown #
vertex $-1 $249 $476 #
vertex $-1 $359 $477 #
straight-curve $-1 0 -28.310017795317076 -6.8384845073309792 1 0 0 I I #
straight-curve $-1 41.723685415204322 -28.310017795317076 0 0 0 1 I I #
coedge $-1 $248 $473 $250 $370 reversed $367 $-1 #
loop $-1 $-1 $248 $353 #
straight-curve $-1 -41.723685415204322 -28.310017795317076 0 0 0 -1 I I #
coedge $-1 $251 $250 $478 $479 forward $240 $-1 #
edge $-1 $252 -4.0273763028844236 $480 4.0273763028844201 $366 $481 forward 7 unknown #
edge $-1 $482 -4.0273763028844201 $253 4.0273763028844236 $356 $483 forward 7 unknown #
point $-1 -41.723685415204322 -28.310017795317076 -3.8384845073309792 #
point $-1 41.723685415204322 -28.310017795317076 -3.8384845073309792 #
plane-surface $-1 0 0 6.8384845073309792 0 0 1 1 0 0 forward_v I I I I #
coedge $-1 $263 $484 $379 $485 forward $256 $-1 #
coedge $-1 $377 $258 $484 $486 reversed $155 $-1 #
coedge $-1 $258 $376 $380 $487 reversed $155 $-1 #
edge $-1 $381 8.7382484289963411 $488 15.642809729421032 $258 $489 forward 7 unknown #
coedge $-1 $260 $259 $375 $485 reversed $97 $-1 #
coedge $-1 $266 $261 $377 $487 forward $267 $-1 #
vertex $-1 $487 $490 #
straight-curve $-1 -36.282816903181669 10.912755039284933 6.8384845073309792 0 1 0 I I #
coedge $-1 $484 $263 $266 $387 reversed $256 $-1 #
vertex $-1 $264 $491 #
straight-curve $-1 -41.723685415204322 15.341002361822653 34.172518564268152 0 0 1 I I #
straight-curve $-1 -41.723685415204315 15.341002361822653 2.5876120573270214 -0.78801074757464917 0 -0.61566148304635926 I I #
edge $-1 $492 -28.310017795317076 $268 -15.341002361822653 $383 $493 forward 7 unknown #
point $-1 -41.723685415204322 15.341002361822653 6.8384845073309792 #
point $-1 -36.282816903181669 15.341002361822653 6.8384845073309792 #
edge $-1 $494 1 $494 0 $271 $-1 forward 7 unknown #
vertex $-1 $272 $495 #
ellipse-curve $-1 -37.95311120286668 19.046435342821066 3.3689304597424057 -0.61566148304635926 0 0.78801074757464917 0.78801074757464917 0 0.61566148304635926 1 I I #
point $-1 -38.215240411618339 19.046435342821066 5.3287097653753515 #
edge $-1 $496 1 $496 0 $275 $-1 forward 7 unknown #
vertex $-1 $276 $497 #
ellipse-curve $-1 -37.95311120286668 24.604584814318674 3.3689304597424057 -0.61566148304635926 0 0.78801074757464917 0.78801074757464917 0 0.61566148304635926 1 I I #
point $-1 -38.215240411618339 24.604584814318674 5.3287097653753515 #
loop $-1 $-1 $287 $279 #
plane-surface $-1 41.723685415204322 0 0 -1 0 0 0 0 1 forward_v I I I I #
coedge $-1 $401 $282 $284 $405 reversed $177 $-1 #
coedge $-1 $282 $400 $498 $499 reversed $177 $-1 #
coedge $-1 $290 $285 $282 $403 forward $280 $-1 #
edge $-1 $406 18.232983155916624 $500 21.891642254191542 $402 $501 forward 7 unknown #
coedge $-1 $284 $283 $409 $502 reversed $111 $-1 #
edge $-1 $503 -83.44737083040863 $406 -78.36123610432395 $400 $504 forward 7 unknown #
vertex $-1 $286 $505 #
straight-curve $-1 38.065026316929405 -6.267813629851605 6.8384845073309819 0 -1 0 I I #
coedge $-1 $498 $287 $290 $413 reversed $398 $-1 #
coedge $-1 $287 $498 $404 $502 forward $398 $-1 #
vertex $-1 $288 $506 #
straight-curve $-1 41.723685415204322 -8.3800648627551588 60.649894070252031 0 0 1 I I #
straight-curve $-1 -18.303328999103272 -8.3800648627551588 61.272773726196455 0.71933979245794832 0 -0.69465837861970381 I I #
edge $-1 $500 -16.691189656651261 $291 -8.3800648627551588 $408 $507 forward 7 unknown #
point $-1 41.723685415204322 -8.3800648627551588 6.8384845073309792 #
point $-1 38.065026316929405 -8.3800648627551588 6.8384845073309819 #
edge $-1 $508 1 $508 0 $294 $-1 forward 7 unknown #
vertex $-1 $295 $509 #
ellipse-curve $-1 39.19969748744716 -14.316582572680947 4.352581663741347 0.69465837861970381 0 0.71933979245794832 0.35966989622897416 0 -0.3473291893098519 1 I I #
point $-1 40.254025762295839 -14.316582572680947 4.7245922668894433 #
edge $-1 $510 1 $510 0 $298 $-1 forward 7 unknown #
vertex $-1 $299 $511 #
ellipse-curve $-1 39.19969748744716 -10.754671946725477 4.352581663741347 0.69465837861970381 0 0.71933979245794832 0.35966989622897416 0 -0.3473291893098519 1 I I #
point $-1 40.254025762295839 -10.754671946725477 4.7245922668894433 #
plane-surface $-1 0 0 6.8384845073309792 0 0 1 1 0 0 forward_v I I I I #
coedge $-1 $435 $434 $427 $512 forward $303 $-1 #
coedge $-1 $427 $305 $307 $431 reversed $199 $-1 #
coedge $-1 $305 $426 $425 $512 reversed $199 $-1 #
coedge $-1 $313 $308 $305 $429 forward $314 $-1 #
edge $-1 $432 18.232983155916624 $513 21.891642254191542 $428 $514 forward 7 unknown #
coedge $-1 $307 $306 $435 $515 reversed $125 $-1 #
edge $-1 $516 -83.44737083040863 $432 -78.36123610432395 $426 $517 forward 7 unknown #
vertex $-1 $309 $518 #
straight-curve $-1 38.065026316929405 10.295189932736031 6.8384845073309819 0 -1 0 I I #
coedge $-1 $425 $310 $313 $439 reversed $303 $-1 #
coedge $-1 $310 $425 $430 $515 forward $303 $-1 #
vertex $-1 $311 $519 #
straight-curve $-1 41.723685415204322 24.745942262420115 60.649894070252031 0 0 1 I I #
straight-curve $-1 -18.303328999103272 24.745942262420115 61.272773726196455 0.71933979245794832 0 -0.69465837861970381 I I #
edge $-1 $513 16.43481746852401 $315 24.745942262420115 $434 $520 forward 7 unknown #
point $-1 41.723685415204322 24.745942262420115 6.8384845073309792 #
point $-1 38.065026316929405 24.745942262420115 6.8384845073309819 #
edge $-1 $521 1 $521 0 $318 $-1 forward 7 unknown #
vertex $-1 $319 $522 #
ellipse-curve $-1 39.19969748744716 18.809424552494324 4.352581663741347 0.69465837861970381 0 0.71933979245794832 0.35966989622897416 0 -0.3473291893098519 1 I I #
point $-1 40.254025762295839 18.809424552494324 4.7245922668894433 #
edge $-1 $523 1 $523 0 $322 $-1 forward 7 unknown #
vertex $-1 $323 $524 #
ellipse-curve $-1 39.19969748744716 22.371335178449794 4.352581663741347 0.69465837861970381 0 0.71933979245794832 0.35966989622897416 0 -0.3473291893098519 1 I I #
point $-1 40.254025762295839 22.371335178449794 4.7245922668894433 #
plane-surface $-1 41.723685415204322 0 0 -1 0 0 0 0 1 forward_v I I I I #
coedge $-1 $331 $329 $333 $455 reversed $221 $-1 #
edge $-1 $344 -6.8384845073309792 $457 6.8384845073309792 $343 $525 forward 7 unknown #
vertex $-1 $455 $526 #
straight-curve $-1 -41.723685415204322 -28.310017795317076 0 0 0 -1 I I #
edge $-1 $453 -28.310017795317076 $457 28.310017795317076 $451 $527 forward 7 unknown #
straight-curve $-1 0 -28.310017795317076 -6.8384845073309792 -1 0 0 I I #
vertex $-1 $336 $528 #
straight-curve $-1 0 28.310017795317076 -6.8384845073309792 1 0 0 I I #
point $-1 41.723685415204322 28.310017795317076 -6.8384845073309792 #
point $-1 41.723685415204322 -28.310017795317076 -6.8384845073309792 #
straight-curve $-1 -41.723685415204322 0 6.8384845073309792 0 -1 0 I I #
point $-1 -41.723685415204322 28.310017795317076 6.8384845073309792 #
point $-1 -41.723685415204322 -28.310017795317076 6.8384845073309792 #
straight-curve $-1 41.723685415204322 -28.310017795317076 0 0 0 -1 I I #
straight-curve $-1 41.723685415204322 28.310017795317076 0 0 0 -1 I I #
plane-surface $-1 -41.723685415204322 0 0 1 0 0 0 0 -1 forward_v I I I I #
coedge $-1 $469 $478 $473 $529 forward $354 $-1 #
coedge $-1 $357 $356 $530 $531 forward $147 $-1 #
coedge $-1 $530 $467 $358 $470 reversed $354 $-1 #
edge $-1 $471 -41.723685415204322 $474 41.723685415204322 $469 $532 forward 7 unknown #
vertex $-1 $531 $533 #
straight-curve $-1 41.723685415204322 0 -6.8384845073309792 0 -1 0 I I #
coedge $-1 $366 $360 $467 $529 reversed $367 $-1 #
vertex $-1 $361 $534 #
straight-curve $-1 -41.723685415204322 0 -6.8384845073309792 0 1 0 I I #
point $-1 -41.723685415204322 -28.310017795317076 -6.8384845073309792 #
point $-1 41.723685415204322 -28.310017795317076 -6.8384845073309792 #
coedge $-1 $467 $530 $369 $479 reversed $354 $-1 #
edge $-1 $480 -41.723685415204322 $482 41.723685415204322 $478 $535 forward 7 unknown #
vertex $-1 $370 $536 #
straight-curve $-1 -41.723685415204322 -32.3373940982015 -3.8384845073309792 0 -1 0 I I #
vertex $-1 $371 $537 #
straight-curve $-1 41.723685415204322 -32.3373940982015 -3.8384845073309792 0 1 0 I I #
coedge $-1 $375 $383 $376 $486 forward $256 $-1 #
edge $-1 $488 -17.397262756032148 $384 -4.4282473225377199 $375 $538 forward 7 unknown #
edge $-1 $492 -6.8384845073309792 $488 -2.5876120573270156 $376 $539 forward 7 unknown #
edge $-1 $381 36.282816903181669 $492 41.723685415204322 $377 $540 forward 7 unknown #
vertex $-1 $378 $541 #
straight-curve $-1 -29.396983226155257 28.310017795317076 12.218287494354385 -0.78801074757464917 0 -0.61566148304635926 I I #
point $-1 -36.282816903181669 28.31001779531708 6.8384845073309792 #
point $-1 -41.723685415204322 15.341002361822653 2.5876120573270156 #
vertex $-1 $487 $542 #
straight-curve $-1 -41.723685415204322 0 6.8384845073309792 0 -1 0 I I #
vertex $-1 $390 $543 #
point $-1 -37.165100455292034 19.046435342821066 3.9845919427887648 #
vertex $-1 $394 $544 #
point $-1 -37.165100455292034 24.604584814318674 3.9845919427887648 #
coedge $-1 $409 $408 $401 $499 forward $398 $-1 #
edge $-1 $500 53.81140956292105 $503 57.344535665184402 $498 $545 forward 7 unknown #
vertex $-1 $413 $546 #
straight-curve $-1 19.832043161012781 -16.691189656651261 6.8384845073309819 1 0 0 I I #
edge $-1 $503 -10.423376026799655 $410 -2.1122512329035539 $409 $547 forward 7 unknown #
vertex $-1 $502 $548 #
straight-curve $-1 -18.303328999103272 -16.691189656651261 61.272773726196455 -0.71933979245794832 0 0.69465837861970381 I I #
point $-1 38.065026316929405 -16.691189656651261 6.8384845073309819 #
point $-1 41.723685415204322 -8.3800648627551588 3.3053584050676292 #
straight-curve $-1 41.723685415204322 0 6.8384845073309792 0 1 0 I I #
vertex $-1 $416 $549 #
point $-1 39.55936738367614 -14.316582572680947 4.0052524744314955 #
vertex $-1 $420 $550 #
point $-1 39.55936738367614 -10.754671946725477 4.0052524744314955 #
edge $-1 $513 53.81140956292105 $516 57.344535665184402 $425 $551 forward 7 unknown #
vertex $-1 $439 $552 #
straight-curve $-1 19.832043161012781 16.43481746852401 6.8384845073309819 1 0 0 I I #
edge $-1 $516 6.1396275357879784 $436 14.450752329684084 $435 $553 forward 7 unknown #
vertex $-1 $515 $554 #
straight-curve $-1 -18.303328999103272 16.43481746852401 61.272773726196455 -0.71933979245794832 0 0.69465837861970381 I I #
point $-1 38.065026316929405 16.43481746852401 6.8384845073309819 #
point $-1 41.723685415204322 24.745942262420115 3.3053584050676292 #
straight-curve $-1 41.723685415204322 0 6.8384845073309792 0 1 0 I I #
vertex $-1 $442 $555 #
point $-1 39.55936738367614 18.809424552494324 4.0052524744314955 #
vertex $-1 $446 $556 #
point $-1 39.55936738367614 22.371335178449794 4.0052524744314955 #
straight-curve $-1 -41.723685415204322 28.310017795317076 0 0 0 -1 I I #
point $-1 -41.723685415204322 -28.310017795317076 -6.8384845073309792 #
straight-curve $-1 -41.723685415204322 0 -6.8384845073309792 0 1 0 I I #
point $-1 -41.723685415204322 28.310017795317076 -6.8384845073309792 #
edge $-1 $480 -1.5 $474 1.5 $473 $557 forward 7 unknown #
coedge $-1 $478 $469 $468 $531 reversed $354 $-1 #
edge $-1 $482 -1.5 $471 1.5 $468 $558 forward 7 unknown #
straight-curve $-1 0 -36.36477040108592 -6.8384845073309792 -1 0 0 I I #
point $-1 41.723685415204322 -36.36477040108592 -6.8384845073309792 #
point $-1 -41.723685415204322 -36.36477040108592 -6.8384845073309792 #
straight-curve $-1 0 -36.36477040108592 -3.8384845073309792 1 0 0 I I #
point $-1 -41.723685415204322 -36.36477040108592 -3.8384845073309792 #
point $-1 41.723685415204322 -36.36477040108592 -3.8384845073309792 #
straight-curve $-1 -41.723685415204322 10.912755039284933 2.5876120573270116 0 -1 0 I I #
straight-curve $-1 -41.723685415204322 28.310017795317076 0 0 0 -1 I I #
straight-curve $-1 0 28.310017795317076 6.8384845073309792 -1 0 0 I I #
point $-1 -41.723685415204322 28.31001779531708 2.5876120573270156 #
point $-1 -41.723685415204322 28.310017795317076 6.8384845073309792 #
point $-1 -37.337449719820327 19.046435342821066 2.5809197121677565 #
point $-1 -37.337449719820327 24.604584814318674 2.5809197121677565 #
straight-curve $-1 41.723685415204322 -16.691189656651261 60.649894070252031 0 0 -1 I I #
point $-1 41.723685415204322 -16.691189656651261 6.8384845073309792 #
straight-curve $-1 41.723685415204322 -6.267813629851605 3.3053584050676292 0 1 0 I I #
point $-1 41.723685415204322 -16.691189656651261 3.3053584050676292 #
point $-1 38.852368298137314 -14.316582572680947 3.9929117675123731 #
point $-1 38.852368298137314 -10.754671946725477 3.9929117675123731 #
straight-curve $-1 41.723685415204322 16.43481746852401 60.649894070252031 0 0 -1 I I #
point $-1 41.723685415204322 16.43481746852401 6.8384845073309792 #
straight-curve $-1 41.723685415204322 10.295189932736031 3.3053584050676292 0 1 0 I I #
point $-1 41.723685415204322 16.43481746852401 3.3053584050676292 #
point $-1 38.852368298137314 18.809424552494324 3.9929117675123731 #
point $-1 38.852368298137314 22.371335178449794 3.9929117675123731 #
straight-curve $-1 -41.723685415204322 -36.36477040108592 -5.3384845073309792 0 0 -1 I I #
straight-curve $-1 41.723685415204322 -36.36477040108592 -5.3384845073309792 0 0 -1 I I #
End-of-ACIS-data 