500 0 5 0           
7 Unknown 11 ACIS 5.0 NT 24 Fri Mar 26 00:43:10 1999 
-1 9.9999999999999995e-007 1e-010 
body $-1 $5 $-1 $6 #
body $-1 $7 $-1 $8 #
body $-1 $9 $-1 $10 #
body $-1 $11 $-1 $12 #
body $-1 $13 $-1 $14 #
lump $-1 $-1 $15 $0 #
transform $-1 1 0 0 0 1 0 0 0 1 42.3596911526841 19.807586530394172 5.4656292725367583 1 rotate no_reflect no_shear #
lump $-1 $-1 $16 $1 #
transform $-1 1 0 0 0 1 0 0 0 1 42.3596911526841 19.807586530394172 5.4656292725367583 1 rotate no_reflect no_shear #
lump $-1 $-1 $17 $2 #
transform $-1 1 0 0 0 1 0 0 0 1 42.3596911526841 19.807586530394172 5.4656292725367583 1 rotate no_reflect no_shear #
lump $-1 $-1 $18 $3 #
transform $-1 1 0 0 0 1 0 0 0 1 42.3596911526841 19.807586530394172 5.4656292725367583 1 rotate no_reflect no_shear #
lump $-1 $-1 $19 $4 #
transform $-1 1 0 0 0 1 0 0 0 1 42.3596911526841 19.807586530394172 5.4656292725367583 1 rotate no_reflect no_shear #
shell $-1 $-1 $-1 $20 $-1 $5 #
shell $-1 $-1 $-1 $21 $-1 $7 #
shell $-1 $-1 $-1 $22 $-1 $9 #
shell $-1 $-1 $-1 $23 $-1 $11 #
shell $-1 $-1 $-1 $24 $-1 $13 #
face $-1 $25 $26 $15 $-1 $27 forward single #
face $-1 $28 $29 $16 $-1 $30 forward single #
face $-1 $31 $32 $17 $-1 $33 reversed single #
face $-1 $34 $35 $18 $-1 $36 forward single #
face $-1 $37 $38 $19 $-1 $39 forward single #
face $-1 $40 $41 $15 $-1 $42 reversed single #
loop $-1 $-1 $43 $20 #
plane-surface $-1 0 0 5.4656292725367583 0 0 1 1 0 0 forward_v I I I I #
face $-1 $44 $45 $16 $-1 $46 reversed single #
loop $-1 $-1 $47 $21 #
plane-surface $-1 -42.3596911526841 0 0 1 0 0 0 0 -1 forward_v I I I I #
face $-1 $48 $49 $17 $-1 $50 reversed single #
loop $-1 $-1 $51 $22 #
plane-surface $-1 2.8111021988724403 -89.205642425830064 50.444877207579452 -1 0 0 0 -0.81915205242281985 0.57357642473473569 forward_v I I I I #
face $-1 $52 $53 $18 $-1 $54 forward single #
loop $-1 $55 $56 $23 #
cone-surface $-1 -5.6247506260480122 -17.745544025414787 3.1007795536656841 0 0.81915205242281985 -0.57357642473473569 0.5 0 0 1 I I 0 1 0.5 forward I I I I #
face $-1 $57 $58 $19 $-1 $59 forward single #
loop $-1 $60 $61 $24 #
cone-surface $-1 -0.5632389310957393 -17.745544025414787 3.1007795536656841 0 0.81915205242281985 -0.57357642473473569 0.5 0 0 1 I I 0 1 0.5 forward I I I I #
face $-1 $62 $63 $15 $-1 $64 reversed single #
loop $-1 $-1 $65 $25 #
plane-surface $-1 0 0 -5.4656292725367583 0 0 1 1 0 0 forward_v I I I I #
coedge $-1 $66 $67 $68 $69 forward $26 $-1 #
face $-1 $70 $71 $16 $-1 $72 forward single #
loop $-1 $-1 $73 $28 #
plane-surface $-1 0 19.807586530394172 0 0 -1 0 0 0 -1 forward_v I I I I #
coedge $-1 $74 $75 $76 $77 forward $29 $-1 #
face $-1 $78 $79 $17 $-1 $80 reversed single #
loop $-1 $-1 $81 $31 #
plane-surface $-1 -3.0939947785718758 -19.807586530394175 1.851836799131128 0 -0.81915205242281985 0.57357642473473569 1 0 0 forward_v I I I I #
coedge $-1 $82 $83 $84 $85 reversed $32 $-1 #
face $-1 $-1 $86 $18 $-1 $87 forward single #
loop $-1 $88 $89 $34 #
cone-surface $-1 -5.6247506260480122 -16.743915834845438 2.3994319653137417 0 0.81915205242281985 -0.57357642473473569 0.25 0 0 1 I I -0.70710678118654746 0.70710678118654746 0.25 forward I I I I #
loop $-1 $-1 $90 $23 #
coedge $-1 $56 $56 $91 $92 reversed $35 $-1 #
face $-1 $-1 $93 $19 $-1 $94 forward single #
loop $-1 $95 $96 $37 #
cone-surface $-1 -0.5632389310957393 -16.743915834845438 2.3994319653137417 0 0.81915205242281985 -0.57357642473473569 0.25 0 0 1 I I -0.70710678118654746 0.70710678118654746 0.25 forward I I I I #
loop $-1 $-1 $97 $24 #
coedge $-1 $61 $61 $98 $99 reversed $38 $-1 #
face $-1 $100 $101 $15 $-1 $102 reversed single #
loop $-1 $-1 $103 $40 #
plane-surface $-1 0 -19.807586530394172 0 0 1 0 0 0 1 forward_v I I I I #
coedge $-1 $104 $105 $106 $107 forward $41 $-1 #
coedge $-1 $108 $43 $109 $110 forward $26 $-1 #
coedge $-1 $43 $108 $111 $112 forward $26 $-1 #
coedge $-1 $113 $114 $43 $69 reversed $115 $-1 #
edge $-1 $116 -19.807586530394172 $117 19.807586530394172 $68 $118 forward 7 unknown #
face $-1 $119 $120 $16 $-1 $121 reversed single #
loop $-1 $-1 $76 $44 #
plane-surface $-1 -45.118818939919692 0 0.18361004677320736 0 0 1 1 0 0 forward_v I I I I #
coedge $-1 $122 $123 $75 $124 forward $45 $-1 #
coedge $-1 $125 $47 $126 $127 reversed $29 $-1 #
coedge $-1 $47 $125 $73 $124 reversed $29 $-1 #
coedge $-1 $128 $129 $47 $77 reversed $71 $-1 #
edge $-1 $130 -19.807586530394172 $131 19.807586530394172 $76 $132 forward 7 unknown #
face $-1 $133 $134 $17 $-1 $135 reversed single #
loop $-1 $-1 $136 $48 #
plane-surface $-1 -8.9990917560161918 -89.205642425830064 50.444877207579452 1 0 0 0 0.81915205242281985 -0.57357642473473569 forward_v I I I I #
coedge $-1 $137 $138 $139 $140 reversed $49 $-1 #
coedge $-1 $83 $51 $141 $142 reversed $32 $-1 #
coedge $-1 $51 $82 $137 $143 reversed $32 $-1 #
coedge $-1 $139 $144 $51 $85 forward $145 $-1 #
edge $-1 $146 24.79523468252086 $147 27.325639337552342 $84 $148 forward 7 unknown #
loop $-1 $-1 $91 $52 #
plane-surface $-1 -3.0939947785718758 -19.807586530394175 1.851836799131128 0 -0.81915205242281985 0.57357642473473569 1 0 0 forward_v I I I I #
loop $-1 $-1 $149 $34 #
coedge $-1 $89 $89 $90 $150 reversed $53 $-1 #
coedge $-1 $90 $90 $89 $150 forward $55 $-1 #
coedge $-1 $91 $91 $56 $92 forward $86 $-1 #
edge $-1 $151 1.165292918325106e-015 $151 6.2831853071796013 $91 $152 forward 7 unknown #
loop $-1 $-1 $98 $57 #
plane-surface $-1 -3.0939947785718758 -19.807586530394175 1.851836799131128 0 -0.81915205242281985 0.57357642473473569 1 0 0 forward_v I I I I #
loop $-1 $-1 $153 $37 #
coedge $-1 $96 $96 $97 $154 reversed $58 $-1 #
coedge $-1 $97 $97 $96 $154 forward $60 $-1 #
coedge $-1 $98 $98 $61 $99 forward $93 $-1 #
edge $-1 $155 1.165292918325106e-015 $155 6.2831853071796013 $98 $156 forward 7 unknown #
face $-1 $157 $158 $15 $-1 $159 reversed single #
loop $-1 $-1 $160 $62 #
plane-surface $-1 -42.3596911526841 0 0 1 0 0 0 0 -1 forward_v I I I I #
coedge $-1 $161 $111 $160 $162 forward $63 $-1 #
coedge $-1 $163 $65 $161 $164 forward $41 $-1 #
coedge $-1 $65 $163 $165 $166 forward $41 $-1 #
coedge $-1 $114 $113 $65 $107 reversed $115 $-1 #
edge $-1 $167 -19.807586530394172 $168 19.807586530394172 $106 $169 forward 7 unknown #
coedge $-1 $67 $66 $170 $171 forward $26 $-1 #
coedge $-1 $172 $173 $66 $110 reversed $158 $-1 #
edge $-1 $117 -42.3596911526841 $174 42.3596911526841 $109 $175 forward 7 unknown #
coedge $-1 $103 $176 $67 $112 reversed $63 $-1 #
edge $-1 $177 -42.3596911526841 $116 42.3596911526841 $111 $178 forward 7 unknown #
coedge $-1 $106 $68 $176 $179 forward $115 $-1 #
coedge $-1 $68 $106 $172 $180 reversed $115 $-1 #
loop $-1 $-1 $113 $157 #
vertex $-1 $69 $181 #
vertex $-1 $69 $182 #
straight-curve $-1 42.3596911526841 0 5.4656292725367583 0 1 0 I I #
face $-1 $183 $184 $16 $-1 $185 reversed single #
loop $-1 $-1 $186 $70 #
plane-surface $-1 -45.118818939919692 0 -2.8163899532267926 0 0 1 1 0 0 forward_v I I I I #
coedge $-1 $187 $73 $188 $189 reversed $45 $-1 #
coedge $-1 $73 $187 $128 $190 reversed $45 $-1 #
edge $-1 $130 -0.18361004677320736 $191 2.8163899532267926 $73 $192 forward 7 unknown #
coedge $-1 $75 $74 $186 $193 forward $29 $-1 #
coedge $-1 $194 $195 $74 $127 forward $196 $-1 #
edge $-1 $197 -2.8163899532267926 $131 0.18361004677320736 $126 $198 forward 7 unknown #
coedge $-1 $199 $76 $123 $190 forward $71 $-1 #
coedge $-1 $76 $199 $194 $200 forward $71 $-1 #
vertex $-1 $124 $201 #
vertex $-1 $200 $202 #
straight-curve $-1 -42.3596911526841 0 0.18361004677320736 0 -1 0 I I #
face $-1 $-1 $145 $17 $-1 $203 forward single #
loop $-1 $-1 $204 $78 #
plane-surface $-1 0 -19.807586530394172 0 0 1 0 0 0 1 forward_v I I I I #
coedge $-1 $205 $206 $207 $208 reversed $79 $-1 #
coedge $-1 $209 $81 $83 $143 forward $49 $-1 #
coedge $-1 $81 $209 $205 $210 forward $49 $-1 #
coedge $-1 $207 $84 $81 $140 forward $145 $-1 #
edge $-1 $147 -4.3580995881583782 $211 7.4520943667302539 $139 $212 forward 7 unknown #
coedge $-1 $213 $214 $82 $142 forward $134 $-1 #
edge $-1 $215 -23.370601804658595 $146 -19.756809331252967 $141 $216 forward 7 unknown #
edge $-1 $147 -4.4116259767854515 $215 -6.2211835686289132e-015 $83 $217 forward 7 unknown #
coedge $-1 $84 $207 $213 $218 forward $145 $-1 #
loop $-1 $-1 $207 $133 #
vertex $-1 $142 $219 #
vertex $-1 $85 $220 #
straight-curve $-1 2.8111021988724403 -44.602821212915032 5.4656292725367592 0 1 0 I I #
coedge $-1 $149 $149 $-1 $221 reversed $88 $-1 #
edge $-1 $222 0 $222 6.2831853071796004 $89 $223 forward 7 unknown #
vertex $-1 $92 $224 #
ellipse-curve $-1 -5.6247506260480122 -18.542384202878431 3.6587330358339445 0 -0.81915205242281985 0.57357642473473569 0.5 0 0 1 I I #
coedge $-1 $153 $153 $-1 $225 reversed $95 $-1 #
edge $-1 $226 0 $226 6.2831853071796004 $96 $227 forward 7 unknown #
vertex $-1 $99 $228 #
ellipse-curve $-1 -0.5632389310957393 -18.542384202878431 3.6587330358339445 0 -0.81915205242281985 0.57357642473473569 0.5 0 0 1 I I #
face $-1 $-1 $115 $15 $-1 $229 reversed single #
loop $-1 $-1 $172 $100 #
plane-surface $-1 0 19.807586530394172 0 0 -1 0 0 0 -1 forward_v I I I I #
coedge $-1 $170 $230 $103 $162 reversed $101 $-1 #
coedge $-1 $176 $103 $104 $164 reversed $63 $-1 #
edge $-1 $177 -5.4656292725367583 $231 5.4656292725367583 $160 $232 forward 7 unknown #
coedge $-1 $105 $104 $230 $233 forward $41 $-1 #
edge $-1 $168 -42.3596911526841 $231 42.3596911526841 $161 $234 forward 7 unknown #
coedge $-1 $173 $172 $105 $166 reversed $158 $-1 #
edge $-1 $235 -42.3596911526841 $167 42.3596911526841 $165 $236 forward 7 unknown #
vertex $-1 $107 $237 #
vertex $-1 $179 $238 #
straight-curve $-1 42.3596911526841 0 -5.4656292725367583 0 -1 0 I I #
coedge $-1 $239 $160 $108 $171 reversed $101 $-1 #
edge $-1 $174 -19.807586530394172 $177 19.807586530394172 $170 $240 forward 7 unknown #
coedge $-1 $165 $109 $114 $180 forward $158 $-1 #
coedge $-1 $109 $165 $239 $241 reversed $158 $-1 #
vertex $-1 $110 $242 #
straight-curve $-1 0 19.807586530394172 5.4656292725367583 -1 0 0 I I #
coedge $-1 $111 $161 $113 $179 reversed $63 $-1 #
vertex $-1 $171 $243 #
straight-curve $-1 0 -19.807586530394172 5.4656292725367583 1 0 0 I I #
edge $-1 $116 -5.4656292725367583 $168 5.4656292725367583 $113 $244 forward 7 unknown #
edge $-1 $117 -5.4656292725367583 $167 5.4656292725367583 $114 $245 forward 7 unknown #
point $-1 42.3596911526841 -19.807586530394172 5.4656292725367583 #
point $-1 42.3596911526841 19.807586530394172 5.4656292725367583 #
face $-1 $-1 $196 $16 $-1 $246 reversed single #
loop $-1 $-1 $247 $119 #
plane-surface $-1 -47.877946727155283 0 -1.3163899532267926 1 0 0 0 0 -1 forward_v I I I I #
coedge $-1 $248 $188 $125 $193 reversed $120 $-1 #
coedge $-1 $123 $122 $247 $249 reversed $45 $-1 #
coedge $-1 $186 $250 $122 $189 forward $120 $-1 #
edge $-1 $251 -2.7591277872355917 $191 2.7591277872355917 $122 $252 forward 7 unknown #
edge $-1 $130 -2.7591277872355917 $253 2.7591277872355917 $123 $254 forward 7 unknown #
vertex $-1 $124 $255 #
straight-curve $-1 -42.3596911526841 19.807586530394172 0 0 0 -1 I I #
edge $-1 $197 -19.807586530394172 $191 19.807586530394172 $186 $256 forward 7 unknown #
coedge $-1 $257 $126 $129 $200 reversed $196 $-1 #
coedge $-1 $126 $257 $248 $258 reversed $196 $-1 #
loop $-1 $-1 $126 $183 #
vertex $-1 $127 $259 #
straight-curve $-1 -42.3596911526841 -19.807586530394172 0 0 0 1 I I #
coedge $-1 $129 $128 $260 $261 forward $71 $-1 #
edge $-1 $262 -2.7591277872355917 $131 2.7591277872355917 $194 $263 forward 7 unknown #
point $-1 -42.3596911526841 19.807586530394172 0.18361004677320736 #
point $-1 -42.3596911526841 -19.807586530394172 0.18361004677320736 #
plane-surface $-1 0 0 5.4656292725367583 0 0 1 1 0 0 forward_v I I I I #
coedge $-1 $214 $213 $206 $264 forward $134 $-1 #
coedge $-1 $206 $136 $138 $210 reversed $79 $-1 #
coedge $-1 $136 $205 $204 $264 reversed $79 $-1 #
coedge $-1 $144 $139 $136 $208 forward $145 $-1 #
edge $-1 $211 -27.325639337552342 $265 -24.79523468252086 $207 $266 forward 7 unknown #
coedge $-1 $138 $137 $214 $267 reversed $49 $-1 #
edge $-1 $268 6.2211835686289132e-015 $211 4.4116259767854515 $205 $269 forward 7 unknown #
vertex $-1 $140 $270 #
straight-curve $-1 -1.5469973892859379 -17.277181875362693 5.4656292725367583 -1 0 0 I I #
coedge $-1 $204 $141 $144 $218 reversed $134 $-1 #
coedge $-1 $141 $204 $209 $267 forward $134 $-1 #
vertex $-1 $142 $271 #
straight-curve $-1 2.8111021988724403 -19.807586530394168 25.222438603789726 0 0 1 I I #
straight-curve $-1 2.8111021988724403 -19.807586530394175 1.851836799131128 0 -0.57357642473473569 -0.81915205242281985 I I #
edge $-1 $265 -8.9990917560161918 $146 2.8111021988724403 $213 $272 forward 7 unknown #
point $-1 2.8111021988724403 -19.807586530394172 5.4656292725367583 #
point $-1 2.8111021988724403 -17.27718187536269 5.4656292725367575 #
edge $-1 $273 1 $273 0 $149 $-1 forward 7 unknown #
vertex $-1 $150 $274 #
ellipse-curve $-1 -5.6247506260480122 -16.948703847951144 2.5428260714974256 0 -0.81915205242281985 0.57357642473473569 0.5 0 0 1 I I #
point $-1 -5.1247506260480122 -18.542384202878427 3.6587330358339427 #
edge $-1 $275 1 $275 0 $153 $-1 forward 7 unknown #
vertex $-1 $154 $276 #
ellipse-curve $-1 -0.5632389310957393 -16.948703847951144 2.5428260714974256 0 -0.81915205242281985 0.57357642473473569 0.5 0 0 1 I I #
point $-1 -0.063238931095739304 -18.542384202878427 3.6587330358339427 #
plane-surface $-1 42.3596911526841 0 0 -1 0 0 0 0 1 forward_v I I I I #
coedge $-1 $160 $239 $163 $233 reversed $101 $-1 #
vertex $-1 $233 $277 #
straight-curve $-1 -42.3596911526841 -19.807586530394172 0 0 0 -1 I I #
edge $-1 $231 -19.807586530394172 $235 19.807586530394172 $230 $278 forward 7 unknown #
straight-curve $-1 0 -19.807586530394172 -5.4656292725367583 -1 0 0 I I #
vertex $-1 $166 $279 #
straight-curve $-1 0 19.807586530394172 -5.4656292725367583 1 0 0 I I #
point $-1 42.3596911526841 19.807586530394172 -5.4656292725367583 #
point $-1 42.3596911526841 -19.807586530394172 -5.4656292725367583 #
coedge $-1 $230 $170 $173 $241 forward $101 $-1 #
straight-curve $-1 -42.3596911526841 0 5.4656292725367583 0 -1 0 I I #
edge $-1 $174 -5.4656292725367583 $235 5.4656292725367583 $173 $280 forward 7 unknown #
point $-1 -42.3596911526841 19.807586530394172 5.4656292725367583 #
point $-1 -42.3596911526841 -19.807586530394172 5.4656292725367583 #
straight-curve $-1 42.3596911526841 -19.807586530394172 0 0 0 -1 I I #
straight-curve $-1 42.3596911526841 19.807586530394172 0 0 0 -1 I I #
plane-surface $-1 0 -19.807586530394172 0 0 1 0 0 0 1 forward_v I I I I #
coedge $-1 $281 $260 $187 $249 forward $184 $-1 #
coedge $-1 $250 $186 $195 $258 forward $120 $-1 #
edge $-1 $253 -1.5 $251 1.5 $187 $282 forward 7 unknown #
coedge $-1 $188 $248 $281 $283 forward $120 $-1 #
vertex $-1 $189 $284 #
straight-curve $-1 -45.118818939919692 19.807586530394172 -2.8163899532267926 1 0 0 I I #
vertex $-1 $190 $285 #
straight-curve $-1 -45.118818939919692 19.807586530394172 0.18361004677320736 -1 0 0 I I #
point $-1 -42.3596911526841 19.807586530394172 -2.8163899532267926 #
straight-curve $-1 -42.3596911526841 0 -2.8163899532267926 0 1 0 I I #
coedge $-1 $195 $194 $286 $287 forward $196 $-1 #
edge $-1 $197 -2.7591277872355917 $288 2.7591277872355917 $195 $289 forward 7 unknown #
point $-1 -42.3596911526841 -19.807586530394172 -2.8163899532267926 #
coedge $-1 $247 $286 $199 $261 reversed $184 $-1 #
edge $-1 $253 -19.807586530394172 $262 19.807586530394172 $260 $290 forward 7 unknown #
vertex $-1 $261 $291 #
straight-curve $-1 -45.118818939919692 -19.807586530394172 0.18361004677320736 1 0 0 I I #
edge $-1 $265 19.756809331252967 $268 23.370601804658595 $204 $292 forward 7 unknown #
vertex $-1 $218 $293 #
straight-curve $-1 -8.9990917560161918 -44.602821212915032 5.4656292725367592 0 -1 0 I I #
edge $-1 $268 -7.4520943667302539 $215 4.3580995881583782 $214 $294 forward 7 unknown #
vertex $-1 $267 $295 #
straight-curve $-1 -8.9990917560161918 -19.807586530394175 1.851836799131128 0 0.57357642473473569 0.81915205242281985 I I #
point $-1 -8.9990917560161918 -17.27718187536269 5.4656292725367575 #
point $-1 2.8111021988724403 -19.807586530394172 1.8518367991311331 #
straight-curve $-1 0 -19.807586530394172 5.4656292725367583 1 0 0 I I #
vertex $-1 $221 $296 #
point $-1 -5.1247506260480122 -16.948703847951144 2.5428260714974256 #
vertex $-1 $225 $297 #
point $-1 -0.063238931095739304 -16.948703847951144 2.5428260714974256 #
point $-1 -42.3596911526841 -19.807586530394172 -5.4656292725367583 #
straight-curve $-1 -42.3596911526841 0 -5.4656292725367583 0 1 0 I I #
point $-1 -42.3596911526841 19.807586530394172 -5.4656292725367583 #
straight-curve $-1 -42.3596911526841 19.807586530394172 0 0 0 -1 I I #
coedge $-1 $286 $247 $250 $283 reversed $184 $-1 #
straight-curve $-1 -47.877946727155283 19.807586530394172 -1.3163899532267926 0 0 -1 I I #
edge $-1 $288 -19.807586530394172 $251 19.807586530394172 $281 $298 forward 7 unknown #
point $-1 -47.877946727155283 19.807586530394172 -2.8163899532267926 #
point $-1 -47.877946727155283 19.807586530394172 0.18361004677320736 #
coedge $-1 $260 $281 $257 $287 reversed $184 $-1 #
edge $-1 $262 -1.5 $288 1.5 $286 $299 forward 7 unknown #
vertex $-1 $283 $300 #
straight-curve $-1 -45.118818939919692 -19.807586530394172 -2.8163899532267926 -1 0 0 I I #
straight-curve $-1 -47.877946727155283 0 0.18361004677320736 0 -1 0 I I #
point $-1 -47.877946727155283 -19.807586530394172 0.18361004677320736 #
straight-curve $-1 -8.9990917560161918 -19.807586530394168 25.222438603789726 0 0 -1 I I #
point $-1 -8.9990917560161918 -19.807586530394172 5.4656292725367583 #
straight-curve $-1 -1.5469973892859379 -19.807586530394172 1.8518367991311346 1 0 0 I I #
point $-1 -8.9990917560161918 -19.807586530394172 1.8518367991311331 #
point $-1 -5.6247506260480122 -16.539127821739733 2.2560378591300578 #
point $-1 -0.5632389310957393 -16.539127821739733 2.2560378591300578 #
straight-curve $-1 -47.877946727155283 0 -2.8163899532267926 0 1 0 I I #
straight-curve $-1 -47.877946727155283 -19.807586530394172 -1.3163899532267926 0 0 -1 I I #
point $-1 -47.877946727155283 -19.807586530394172 -2.8163899532267926 #
End-of-ACIS-data 