500 0 17 0           
7 Unknown 11 ACIS 5.0 NT 24 Thu Mar 25 20:11:40 1999 
-1 9.9999999999999995e-007 1e-010 
body $-1 $17 $-1 $18 #
body $-1 $19 $-1 $20 #
body $-1 $21 $-1 $22 #
body $-1 $23 $-1 $24 #
body $-1 $25 $-1 $26 #
body $-1 $27 $-1 $28 #
body $-1 $29 $-1 $30 #
body $-1 $31 $-1 $32 #
body $-1 $33 $-1 $34 #
body $-1 $35 $-1 $36 #
body $-1 $37 $-1 $38 #
body $-1 $39 $-1 $40 #
body $-1 $41 $-1 $42 #
body $-1 $43 $-1 $44 #
body $-1 $45 $-1 $46 #
body $-1 $47 $-1 $48 #
body $-1 $49 $-1 $50 #
lump $-1 $-1 $51 $0 #
transform $-1 1 0 0 0 1 0 0 0 1 75.056001464888453 48.992669238316388 17.440116352719812 1 rotate no_reflect no_shear #
lump $-1 $-1 $52 $1 #
transform $-1 1 0 0 0 1 0 0 0 1 75.056001464888453 48.992669238316388 17.440116352719812 1 rotate no_reflect no_shear #
lump $-1 $-1 $53 $2 #
transform $-1 1 0 0 0 1 0 0 0 1 75.056001464888453 48.992669238316388 17.440116352719812 1 rotate no_reflect no_shear #
lump $-1 $-1 $54 $3 #
transform $-1 1 0 0 0 1 0 0 0 1 75.056001464888453 48.992669238316388 17.440116352719812 1 rotate no_reflect no_shear #
lump $-1 $-1 $55 $4 #
transform $-1 1 0 0 0 1 0 0 0 1 75.056001464888453 48.992669238316388 17.440116352719812 1 rotate no_reflect no_shear #
lump $-1 $-1 $56 $5 #
transform $-1 1 0 0 0 1 0 0 0 1 75.056001464888453 48.992669238316388 17.440116352719812 1 rotate no_reflect no_shear #
lump $-1 $-1 $57 $6 #
transform $-1 1 0 0 0 1 0 0 0 1 75.056001464888453 48.992669238316388 17.440116352719812 1 rotate no_reflect no_shear #
lump $-1 $-1 $58 $7 #
transform $-1 1 0 0 0 1 0 0 0 1 75.056001464888453 48.992669238316388 17.440116352719812 1 rotate no_reflect no_shear #
lump $-1 $-1 $59 $8 #
transform $-1 1 0 0 0 1 0 0 0 1 75.056001464888453 48.992669238316388 17.440116352719812 1 rotate no_reflect no_shear #
lump $-1 $-1 $60 $9 #
transform $-1 1 0 0 0 1 0 0 0 1 75.056001464888453 48.992669238316388 17.440116352719812 1 rotate no_reflect no_shear #
lump $-1 $-1 $61 $10 #
transform $-1 1 0 0 0 1 0 0 0 1 75.056001464888453 48.992669238316388 17.440116352719812 1 rotate no_reflect no_shear #
lump $-1 $-1 $62 $11 #
transform $-1 1 0 0 0 1 0 0 0 1 75.056001464888453 48.992669238316388 17.440116352719812 1 rotate no_reflect no_shear #
lump $-1 $-1 $63 $12 #
transform $-1 1 0 0 0 1 0 0 0 1 75.056001464888453 48.992669238316388 17.440116352719812 1 rotate no_reflect no_shear #
lump $-1 $-1 $64 $13 #
transform $-1 1 0 0 0 1 0 0 0 1 75.056001464888453 48.992669238316388 17.440116352719812 1 rotate no_reflect no_shear #
lump $-1 $-1 $65 $14 #
transform $-1 1 0 0 0 1 0 0 0 1 75.056001464888453 48.992669238316388 17.440116352719812 1 rotate no_reflect no_shear #
lump $-1 $-1 $66 $15 #
transform $-1 1 0 0 0 1 0 0 0 1 75.056001464888453 48.992669238316388 17.440116352719812 1 rotate no_reflect no_shear #
lump $-1 $-1 $67 $16 #
transform $-1 1 0 0 0 1 0 0 0 1 75.056001464888453 48.992669238316388 17.440116352719812 1 rotate no_reflect no_shear #
shell $-1 $-1 $-1 $68 $-1 $17 #
shell $-1 $-1 $-1 $69 $-1 $19 #
shell $-1 $-1 $-1 $70 $-1 $21 #
shell $-1 $-1 $-1 $71 $-1 $23 #
shell $-1 $-1 $-1 $72 $-1 $25 #
shell $-1 $-1 $-1 $73 $-1 $27 #
shell $-1 $-1 $-1 $74 $-1 $29 #
shell $-1 $-1 $-1 $75 $-1 $31 #
shell $-1 $-1 $-1 $76 $-1 $33 #
shell $-1 $-1 $-1 $77 $-1 $35 #
shell $-1 $-1 $-1 $78 $-1 $37 #
shell $-1 $-1 $-1 $79 $-1 $39 #
shell $-1 $-1 $-1 $80 $-1 $41 #
shell $-1 $-1 $-1 $81 $-1 $43 #
shell $-1 $-1 $-1 $82 $-1 $45 #
shell $-1 $-1 $-1 $83 $-1 $47 #
shell $-1 $-1 $-1 $84 $-1 $49 #
face $-1 $85 $86 $51 $-1 $87 forward single #
face $-1 $88 $89 $52 $-1 $90 forward single #
face $-1 $91 $92 $53 $-1 $93 forward single #
face $-1 $94 $95 $54 $-1 $96 reversed single #
face $-1 $97 $98 $55 $-1 $99 forward single #
face $-1 $100 $101 $56 $-1 $102 forward single #
face $-1 $103 $104 $57 $-1 $105 reversed single #
face $-1 $106 $107 $58 $-1 $108 forward single #
face $-1 $109 $110 $59 $-1 $111 forward single #
face $-1 $112 $113 $60 $-1 $114 reversed single #
face $-1 $115 $116 $61 $-1 $117 forward single #
face $-1 $118 $119 $62 $-1 $120 forward single #
face $-1 $121 $122 $63 $-1 $123 forward single #
face $-1 $124 $125 $64 $-1 $126 reversed single #
face $-1 $127 $128 $65 $-1 $129 forward single #
face $-1 $130 $131 $66 $-1 $132 forward single #
face $-1 $133 $134 $67 $-1 $135 forward single #
face $-1 $136 $137 $51 $-1 $138 reversed single #
loop $-1 $-1 $139 $68 #
plane-surface $-1 0 0 17.440116352719812 0 0 1 1 0 0 forward_v I I I I #
face $-1 $140 $141 $52 $-1 $142 reversed single #
loop $-1 $-1 $143 $69 #
plane-surface $-1 0 -42.253488293116121 -9.9506649764674364 0 0 1 1 0 0 forward_v I I I I #
face $-1 $144 $145 $53 $-1 $146 reversed single #
loop $-1 $-1 $147 $70 #
plane-surface $-1 0 39.262316996059631 16.864683949209599 0 0 1 1 0 0 forward_v I I I I #
face $-1 $148 $149 $54 $-1 $150 reversed single #
loop $-1 $-1 $151 $71 #
plane-surface $-1 34.549079535546937 -25.155082559280515 220.55444655773221 0 -1 0 -0.55919291073839883 0 -0.82903756765294845 forward_v I I I I #
face $-1 $152 $153 $55 $-1 $154 forward single #
loop $-1 $155 $156 $72 #
cone-surface $-1 70.424214615238171 -32.554528836877182 13.7333363734442 -0.55919291073839883 0 -0.82903756765294845 0.82903756765294845 0 -0.55919291073839883 1 I I 0 1 1 forward I I I I #
face $-1 $157 $158 $56 $-1 $159 forward single #
loop $-1 $160 $161 $73 #
cone-surface $-1 70.424214615238171 -28.114861070319183 13.7333363734442 -0.55919291073839883 0 -0.82903756765294845 0.82903756765294845 0 -0.55919291073839883 1 I I 0 1 1 forward I I I I #
face $-1 $162 $163 $57 $-1 $164 reversed single #
loop $-1 $-1 $165 $74 #
plane-surface $-1 -49.392488319526066 24.352352359485202 96.105956773317686 0.55919291073839883 0 0.82903756765294845 0.82903756765294845 0 -0.55919291073839883 forward_v I I I I #
face $-1 $166 $167 $58 $-1 $168 forward single #
loop $-1 $169 $170 $75 #
cone-surface $-1 70.424214615238171 22.132518476206208 13.7333363734442 -0.55919291073839883 0 -0.82903756765294845 0.82903756765294845 0 -0.55919291073839883 1 I I 0 1 1 forward I I I I #
face $-1 $171 $172 $59 $-1 $173 forward single #
loop $-1 $174 $175 $76 #
cone-surface $-1 70.424214615238171 26.572186242764211 13.7333363734442 -0.55919291073839883 0 -0.82903756765294845 0.82903756765294845 0 -0.55919291073839883 1 I I 0 1 1 forward I I I I #
face $-1 $176 $177 $60 $-1 $178 reversed single #
loop $-1 $-1 $179 $77 #
plane-surface $-1 -200.95052141897457 -21.946368864897018 95.822383718766162 0 1 0 -0.83867057594974714 0 0.54463902268945019 forward_v I I I I #
face $-1 $180 $181 $61 $-1 $182 forward single #
loop $-1 $183 $184 $78 #
cone-surface $-1 -73.540924935211763 -19.383446091302666 15.480503239583472 0.83867057594974714 0 -0.54463902268945019 0.2723195113447251 0 0.41933528797487357 1 I I 0 1 0.5 forward I I I I #
face $-1 $185 $186 $62 $-1 $187 forward single #
loop $-1 $188 $189 $79 #
cone-surface $-1 -73.540924935211763 -15.539061930911146 15.480503239583472 0.83867057594974714 0 -0.54463902268945019 0.2723195113447251 0 0.41933528797487357 1 I I 0 1 0.5 forward I I I I #
face $-1 $190 $191 $63 $-1 $192 forward single #
loop $-1 $193 $194 $80 #
cone-surface $-1 -73.540924935211763 -11.694677770519625 15.480503239583472 0.83867057594974714 0 -0.54463902268945019 0.2723195113447251 0 0.41933528797487357 1 I I 0 1 0.5 forward I I I I #
face $-1 $195 $196 $64 $-1 $197 reversed single #
loop $-1 $-1 $198 $81 #
plane-surface $-1 -200.95052141897457 10.576767185962341 95.822383718766162 0 1 0 -0.83867057594974714 0 0.54463902268945019 forward_v I I I I #
face $-1 $199 $200 $65 $-1 $201 forward single #
loop $-1 $202 $203 $82 #
cone-surface $-1 -73.540924935211763 13.139689959556698 15.480503239583472 0.83867057594974714 0 -0.54463902268945019 0.2723195113447251 0 0.41933528797487357 1 I I 0 1 0.5 forward I I I I #
face $-1 $204 $205 $66 $-1 $206 forward single #
loop $-1 $207 $208 $83 #
cone-surface $-1 -73.540924935211763 16.984074119948211 15.480503239583472 0.83867057594974714 0 -0.54463902268945019 0.2723195113447251 0 0.41933528797487357 1 I I 0 1 0.5 forward I I I I #
face $-1 $209 $210 $67 $-1 $211 forward single #
loop $-1 $212 $213 $84 #
cone-surface $-1 -73.540924935211763 20.828458280339738 15.480503239583472 0.83867057594974714 0 -0.54463902268945019 0.2723195113447251 0 0.41933528797487357 1 I I 0 1 0.5 forward I I I I #
face $-1 $214 $215 $51 $-1 $216 reversed single #
loop $-1 $-1 $217 $85 #
plane-surface $-1 0 0 -17.440116352719812 0 0 1 1 0 0 forward_v I I I I #
coedge $-1 $218 $219 $220 $221 forward $86 $-1 #
face $-1 $222 $223 $52 $-1 $224 reversed single #
loop $-1 $-1 $225 $88 #
plane-surface $-1 0 -35.514307347915853 -13.695390664593624 0 -1 0 0 0 -1 forward_v I I I I #
coedge $-1 $226 $227 $228 $229 reversed $89 $-1 #
face $-1 $230 $231 $53 $-1 $232 reversed single #
loop $-1 $-1 $233 $91 #
plane-surface $-1 0 39.262316996059631 11.35391162666587 0 0 1 1 0 0 forward_v I I I I #
coedge $-1 $234 $235 $236 $237 reversed $92 $-1 #
face $-1 $238 $239 $54 $-1 $240 reversed single #
loop $-1 $-1 $241 $94 #
plane-surface $-1 -49.392488319526066 -30.334694953598184 96.105956773317686 0.55919291073839883 0 0.82903756765294845 0.82903756765294845 0 -0.55919291073839883 forward_v I I I I #
coedge $-1 $242 $243 $244 $245 reversed $95 $-1 #
face $-1 $-1 $246 $55 $-1 $247 forward single #
loop $-1 $248 $249 $97 #
cone-surface $-1 69.423625023699174 -32.554528836877182 12.249901327579643 -0.55919291073839883 0 -0.82903756765294845 0.41451878382647422 0 -0.27959645536919941 1 I I -0.70710678118654746 0.70710678118654746 0.5 forward I I I I #
loop $-1 $-1 $250 $72 #
coedge $-1 $156 $156 $251 $252 reversed $98 $-1 #
face $-1 $-1 $253 $56 $-1 $254 forward single #
loop $-1 $255 $256 $100 #
cone-surface $-1 69.423625023699174 -28.114861070319183 12.249901327579643 -0.55919291073839883 0 -0.82903756765294845 0.41451878382647422 0 -0.27959645536919941 1 I I -0.70710678118654746 0.70710678118654746 0.5 forward I I I I #
loop $-1 $-1 $257 $73 #
coedge $-1 $161 $161 $258 $259 reversed $101 $-1 #
face $-1 $260 $261 $57 $-1 $262 forward single #
loop $-1 $-1 $263 $103 #
plane-surface $-1 34.549079535546937 19.172739965167533 220.55444655773221 0 1 0 0.55919291073839883 0 0.82903756765294845 forward_v I I I I #
coedge $-1 $264 $265 $266 $267 reversed $104 $-1 #
face $-1 $-1 $268 $58 $-1 $269 forward single #
loop $-1 $270 $271 $106 #
cone-surface $-1 69.423625023699174 22.132518476206208 12.249901327579643 -0.55919291073839883 0 -0.82903756765294845 0.41451878382647422 0 -0.27959645536919941 1 I I -0.70710678118654746 0.70710678118654746 0.5 forward I I I I #
loop $-1 $-1 $272 $75 #
coedge $-1 $170 $170 $273 $274 reversed $107 $-1 #
face $-1 $-1 $275 $59 $-1 $276 forward single #
loop $-1 $277 $278 $109 #
cone-surface $-1 69.423625023699174 26.572186242764211 12.249901327579643 -0.55919291073839883 0 -0.82903756765294845 0.41451878382647422 0 -0.27959645536919941 1 I I -0.70710678118654746 0.70710678118654746 0.5 forward I I I I #
loop $-1 $-1 $279 $76 #
coedge $-1 $175 $175 $280 $281 reversed $110 $-1 #
face $-1 $282 $283 $60 $-1 $284 reversed single #
loop $-1 $-1 $285 $112 #
plane-surface $-1 -75.056001464888439 -15.539061930911146 14.06552914913658 -0.83867057594974714 0 0.54463902268945019 0.54463902268945019 0 0.83867057594974714 forward_v I I I I #
coedge $-1 $286 $287 $288 $289 reversed $113 $-1 #
face $-1 $-1 $290 $61 $-1 $291 forward single #
loop $-1 $292 $293 $115 #
cone-surface $-1 -72.911922003249458 -19.383446091302666 15.072023972566384 0.83867057594974714 0 -0.54463902268945019 0.13615975567236255 0 0.20966764398743679 1 I I -0.70710678118654746 0.70710678118654746 0.25 forward I I I I #
loop $-1 $-1 $294 $78 #
coedge $-1 $184 $184 $295 $296 reversed $116 $-1 #
face $-1 $-1 $297 $62 $-1 $298 forward single #
loop $-1 $299 $300 $118 #
cone-surface $-1 -72.911922003249458 -15.539061930911146 15.072023972566384 0.83867057594974714 0 -0.54463902268945019 0.13615975567236255 0 0.20966764398743679 1 I I -0.70710678118654746 0.70710678118654746 0.25 forward I I I I #
loop $-1 $-1 $301 $79 #
coedge $-1 $189 $189 $302 $303 reversed $119 $-1 #
face $-1 $-1 $304 $63 $-1 $305 forward single #
loop $-1 $306 $307 $121 #
cone-surface $-1 -72.911922003249458 -11.694677770519625 15.072023972566384 0.83867057594974714 0 -0.54463902268945019 0.13615975567236255 0 0.20966764398743679 1 I I -0.70710678118654746 0.70710678118654746 0.25 forward I I I I #
loop $-1 $-1 $308 $80 #
coedge $-1 $194 $194 $309 $310 reversed $122 $-1 #
face $-1 $311 $312 $64 $-1 $313 reversed single #
loop $-1 $-1 $314 $124 #
plane-surface $-1 -75.056001464888439 16.984074119948211 14.06552914913658 -0.83867057594974714 0 0.54463902268945019 0.54463902268945019 0 0.83867057594974714 forward_v I I I I #
coedge $-1 $315 $316 $317 $318 reversed $125 $-1 #
face $-1 $-1 $319 $65 $-1 $320 forward single #
loop $-1 $321 $322 $127 #
cone-surface $-1 -72.911922003249458 13.139689959556698 15.072023972566384 0.83867057594974714 0 -0.54463902268945019 0.13615975567236255 0 0.20966764398743679 1 I I -0.70710678118654746 0.70710678118654746 0.25 forward I I I I #
loop $-1 $-1 $323 $82 #
coedge $-1 $203 $203 $324 $325 reversed $128 $-1 #
face $-1 $-1 $326 $66 $-1 $327 forward single #
loop $-1 $328 $329 $130 #
cone-surface $-1 -72.911922003249458 16.984074119948211 15.072023972566384 0.83867057594974714 0 -0.54463902268945019 0.13615975567236255 0 0.20966764398743679 1 I I -0.70710678118654746 0.70710678118654746 0.25 forward I I I I #
loop $-1 $-1 $330 $83 #
coedge $-1 $208 $208 $331 $332 reversed $131 $-1 #
face $-1 $-1 $333 $67 $-1 $334 forward single #
loop $-1 $335 $336 $133 #
cone-surface $-1 -72.911922003249458 20.828458280339738 15.072023972566384 0.83867057594974714 0 -0.54463902268945019 0.13615975567236255 0 0.20966764398743679 1 I I -0.70710678118654746 0.70710678118654746 0.25 forward I I I I #
loop $-1 $-1 $337 $84 #
coedge $-1 $213 $213 $338 $339 reversed $134 $-1 #
face $-1 $340 $341 $51 $-1 $342 reversed single #
loop $-1 $-1 $343 $136 #
plane-surface $-1 0 -48.992669238316388 0 0 1 0 0 0 1 forward_v I I I I #
coedge $-1 $344 $345 $346 $347 forward $137 $-1 #
coedge $-1 $348 $139 $349 $350 forward $86 $-1 #
coedge $-1 $139 $348 $351 $352 forward $86 $-1 #
coedge $-1 $353 $354 $139 $221 reversed $355 $-1 #
edge $-1 $356 -48.992669238316388 $357 48.992669238316388 $220 $358 forward 7 unknown #
face $-1 $359 $360 $52 $-1 $361 reversed single #
loop $-1 $-1 $362 $140 #
plane-surface $-1 0 0 -17.440116352719812 0 0 1 1 0 0 forward_v I I I I #
coedge $-1 $363 $364 $365 $366 reversed $141 $-1 #
coedge $-1 $367 $143 $364 $368 forward $89 $-1 #
coedge $-1 $143 $367 $369 $370 reversed $89 $-1 #
coedge $-1 $371 $365 $143 $229 forward $360 $-1 #
edge $-1 $372 14.387563201357793 $373 27.865925091758328 $228 $374 forward 7 unknown #
face $-1 $375 $376 $53 $-1 $377 reversed single #
loop $-1 $-1 $378 $144 #
plane-surface $-1 0 29.531964753802875 14.109297787937734 0 1 0 0 0 1 forward_v I I I I #
coedge $-1 $379 $380 $381 $382 reversed $145 $-1 #
coedge $-1 $383 $147 $384 $385 reversed $92 $-1 #
coedge $-1 $147 $383 $386 $387 forward $92 $-1 #
coedge $-1 $388 $389 $147 $237 forward $376 $-1 #
edge $-1 $390 -29.361510740286572 $391 -9.900806255773059 $236 $392 forward 7 unknown #
face $-1 $393 $394 $54 $-1 $395 forward single #
loop $-1 $-1 $396 $148 #
plane-surface $-1 34.549079535546937 -35.514307347915853 220.55444655773221 0 1 0 0.55919291073839883 0 0.82903756765294845 forward_v I I I I #
coedge $-1 $397 $398 $399 $400 reversed $149 $-1 #
coedge $-1 $243 $151 $401 $402 reversed $95 $-1 #
coedge $-1 $151 $242 $397 $403 reversed $95 $-1 #
coedge $-1 $399 $404 $151 $245 forward $394 $-1 #
edge $-1 $405 -57.781461697114985 $406 -49.959874270153982 $244 $407 forward 7 unknown #
loop $-1 $-1 $251 $152 #
plane-surface $-1 -49.392488319526066 -30.334694953598184 96.105956773317686 0.55919291073839883 0 0.82903756765294845 0.82903756765294845 0 -0.55919291073839883 forward_v I I I I #
loop $-1 $-1 $408 $97 #
coedge $-1 $249 $249 $250 $409 reversed $153 $-1 #
coedge $-1 $250 $250 $249 $409 forward $155 $-1 #
coedge $-1 $251 $251 $156 $252 forward $246 $-1 #
edge $-1 $410 0 $410 6.2831853071796004 $251 $411 forward 7 unknown #
loop $-1 $-1 $258 $157 #
plane-surface $-1 -49.392488319526066 -30.334694953598184 96.105956773317686 0.55919291073839883 0 0.82903756765294845 0.82903756765294845 0 -0.55919291073839883 forward_v I I I I #
loop $-1 $-1 $412 $100 #
coedge $-1 $256 $256 $257 $413 reversed $158 $-1 #
coedge $-1 $257 $257 $256 $413 forward $160 $-1 #
coedge $-1 $258 $258 $161 $259 forward $253 $-1 #
edge $-1 $414 0 $414 6.2831853071796004 $258 $415 forward 7 unknown #
face $-1 $416 $417 $57 $-1 $418 reversed single #
loop $-1 $-1 $419 $162 #
plane-surface $-1 0 29.531964753802875 14.109297787937734 0 1 0 0 0 1 forward_v I I I I #
coedge $-1 $420 $421 $422 $423 reversed $163 $-1 #
coedge $-1 $424 $165 $419 $425 forward $104 $-1 #
coedge $-1 $165 $424 $420 $426 forward $104 $-1 #
coedge $-1 $422 $427 $165 $267 forward $428 $-1 #
edge $-1 $429 -17.35578857406027 $430 -6.9965637854249323 $266 $431 forward 7 unknown #
loop $-1 $-1 $273 $166 #
plane-surface $-1 -49.392488319526066 24.352352359485202 96.105956773317686 0.55919291073839883 0 0.82903756765294845 0.82903756765294845 0 -0.55919291073839883 forward_v I I I I #
loop $-1 $-1 $432 $106 #
coedge $-1 $271 $271 $272 $433 reversed $167 $-1 #
coedge $-1 $272 $272 $271 $433 forward $169 $-1 #
coedge $-1 $273 $273 $170 $274 forward $268 $-1 #
edge $-1 $434 0 $434 6.2831853071796004 $273 $435 forward 7 unknown #
loop $-1 $-1 $280 $171 #
plane-surface $-1 -49.392488319526066 24.352352359485202 96.105956773317686 0.55919291073839883 0 0.82903756765294845 0.82903756765294845 0 -0.55919291073839883 forward_v I I I I #
loop $-1 $-1 $436 $109 #
coedge $-1 $278 $278 $279 $437 reversed $172 $-1 #
coedge $-1 $279 $279 $278 $437 forward $174 $-1 #
coedge $-1 $280 $280 $175 $281 forward $275 $-1 #
edge $-1 $438 0 $438 6.2831853071796004 $280 $439 forward 7 unknown #
face $-1 $440 $441 $60 $-1 $442 reversed single #
loop $-1 $-1 $443 $176 #
plane-surface $-1 -200.95052141897457 -9.1317549969252756 95.822383718766162 0 -1 0 0.83867057594974714 0 -0.54463902268945019 forward_v I I I I #
coedge $-1 $444 $445 $446 $447 reversed $177 $-1 #
coedge $-1 $287 $179 $448 $449 reversed $113 $-1 #
coedge $-1 $179 $286 $444 $450 reversed $113 $-1 #
coedge $-1 $446 $451 $179 $289 forward $452 $-1 #
edge $-1 $453 25.419259244598834 $454 27.610741728002466 $288 $455 forward 7 unknown #
loop $-1 $-1 $295 $180 #
plane-surface $-1 -75.056001464888439 -15.539061930911146 14.06552914913658 -0.83867057594974714 0 0.54463902268945019 0.54463902268945019 0 0.83867057594974714 forward_v I I I I #
loop $-1 $-1 $456 $115 #
coedge $-1 $293 $293 $294 $457 reversed $181 $-1 #
coedge $-1 $294 $294 $293 $457 forward $183 $-1 #
coedge $-1 $295 $295 $184 $296 forward $290 $-1 #
edge $-1 $458 0 $458 6.2831853071796004 $295 $459 forward 7 unknown #
loop $-1 $-1 $302 $185 #
plane-surface $-1 -75.056001464888439 -15.539061930911146 14.06552914913658 -0.83867057594974714 0 0.54463902268945019 0.54463902268945019 0 0.83867057594974714 forward_v I I I I #
loop $-1 $-1 $460 $118 #
coedge $-1 $300 $300 $301 $461 reversed $186 $-1 #
coedge $-1 $301 $301 $300 $461 forward $188 $-1 #
coedge $-1 $302 $302 $189 $303 forward $297 $-1 #
edge $-1 $462 0 $462 6.2831853071796004 $302 $463 forward 7 unknown #
loop $-1 $-1 $309 $190 #
plane-surface $-1 -75.056001464888439 -15.539061930911146 14.06552914913658 -0.83867057594974714 0 0.54463902268945019 0.54463902268945019 0 0.83867057594974714 forward_v I I I I #
loop $-1 $-1 $464 $121 #
coedge $-1 $307 $307 $308 $465 reversed $191 $-1 #
coedge $-1 $308 $308 $307 $465 forward $193 $-1 #
coedge $-1 $309 $309 $194 $310 forward $304 $-1 #
edge $-1 $466 0 $466 6.2831853071796004 $309 $467 forward 7 unknown #
face $-1 $468 $469 $64 $-1 $470 reversed single #
loop $-1 $-1 $471 $195 #
plane-surface $-1 -200.95052141897457 23.391381053934083 95.822383718766162 0 -1 0 0.83867057594974714 0 -0.54463902268945019 forward_v I I I I #
coedge $-1 $472 $473 $474 $475 reversed $196 $-1 #
coedge $-1 $316 $198 $476 $477 reversed $125 $-1 #
coedge $-1 $198 $315 $472 $478 reversed $125 $-1 #
coedge $-1 $474 $479 $198 $318 forward $480 $-1 #
edge $-1 $481 25.419259244598834 $482 27.610741728002466 $317 $483 forward 7 unknown #
loop $-1 $-1 $324 $199 #
plane-surface $-1 -75.056001464888439 16.984074119948211 14.06552914913658 -0.83867057594974714 0 0.54463902268945019 0.54463902268945019 0 0.83867057594974714 forward_v I I I I #
loop $-1 $-1 $484 $127 #
coedge $-1 $322 $322 $323 $485 reversed $200 $-1 #
coedge $-1 $323 $323 $322 $485 forward $202 $-1 #
coedge $-1 $324 $324 $203 $325 forward $319 $-1 #
edge $-1 $486 0 $486 6.2831853071796004 $324 $487 forward 7 unknown #
loop $-1 $-1 $331 $204 #
plane-surface $-1 -75.056001464888439 16.984074119948211 14.06552914913658 -0.83867057594974714 0 0.54463902268945019 0.54463902268945019 0 0.83867057594974714 forward_v I I I I #
loop $-1 $-1 $488 $130 #
coedge $-1 $329 $329 $330 $489 reversed $205 $-1 #
coedge $-1 $330 $330 $329 $489 forward $207 $-1 #
coedge $-1 $331 $331 $208 $332 forward $326 $-1 #
edge $-1 $490 0 $490 6.2831853071796004 $331 $491 forward 7 unknown #
loop $-1 $-1 $338 $209 #
plane-surface $-1 -75.056001464888439 16.984074119948211 14.06552914913658 -0.83867057594974714 0 0.54463902268945019 0.54463902268945019 0 0.83867057594974714 forward_v I I I I #
loop $-1 $-1 $492 $133 #
coedge $-1 $336 $336 $337 $493 reversed $210 $-1 #
coedge $-1 $337 $337 $336 $493 forward $212 $-1 #
coedge $-1 $338 $338 $213 $339 forward $333 $-1 #
edge $-1 $494 0 $494 6.2831853071796004 $338 $495 forward 7 unknown #
face $-1 $496 $497 $51 $-1 $498 reversed single #
loop $-1 $-1 $499 $214 #
plane-surface $-1 -75.056001464888453 0 0 1 0 0 0 0 -1 forward_v I I I I #
coedge $-1 $500 $351 $501 $502 forward $215 $-1 #
coedge $-1 $503 $217 $500 $504 forward $137 $-1 #
coedge $-1 $217 $503 $505 $506 forward $137 $-1 #
coedge $-1 $354 $353 $217 $347 reversed $355 $-1 #
edge $-1 $507 -48.992669238316388 $508 48.992669238316388 $346 $509 forward 7 unknown #
coedge $-1 $219 $218 $510 $511 forward $86 $-1 #
coedge $-1 $512 $513 $218 $350 reversed $497 $-1 #
edge $-1 $357 -75.056001464888453 $514 75.056001464888453 $349 $515 forward 7 unknown #
coedge $-1 $343 $516 $219 $352 reversed $215 $-1 #
edge $-1 $517 -75.056001464888453 $356 75.056001464888453 $351 $518 forward 7 unknown #
coedge $-1 $346 $220 $516 $519 forward $355 $-1 #
coedge $-1 $220 $346 $512 $520 reversed $355 $-1 #
loop $-1 $-1 $353 $496 #
vertex $-1 $221 $521 #
vertex $-1 $221 $522 #
straight-curve $-1 75.056001464888453 0 17.440116352719812 0 1 0 I I #
face $-1 $523 $524 $52 $-1 $525 reversed single #
loop $-1 $-1 $365 $222 #
plane-surface $-1 75.056001464888453 0 0 -1 0 0 0 0 1 forward_v I I I I #
coedge $-1 $526 $527 $363 $528 forward $223 $-1 #
coedge $-1 $529 $225 $362 $528 reversed $141 $-1 #
coedge $-1 $225 $529 $226 $368 reversed $141 $-1 #
coedge $-1 $228 $530 $225 $366 forward $360 $-1 #
edge $-1 $531 -10.592421020423 $372 -3.1029696441706243 $365 $532 forward 7 unknown #
coedge $-1 $227 $226 $533 $534 reversed $89 $-1 #
edge $-1 $372 -75.056001464888453 $535 75.056001464888453 $364 $536 forward 7 unknown #
coedge $-1 $537 $538 $227 $370 forward $524 $-1 #
edge $-1 $373 -75.056001464888453 $539 75.056001464888453 $369 $540 forward 7 unknown #
coedge $-1 $530 $228 $538 $541 forward $360 $-1 #
vertex $-1 $229 $542 #
vertex $-1 $541 $543 #
straight-curve $-1 75.056001464888453 -21.12674414655806 -9.9506649764674364 0 -1 0 I I #
face $-1 $544 $545 $53 $-1 $546 reversed single #
loop $-1 $-1 $236 $230 #
plane-surface $-1 75.056001464888453 0 0 -1 0 0 0 0 1 forward_v I I I I #
coedge $-1 $547 $386 $548 $549 reversed $231 $-1 #
coedge $-1 $550 $233 $547 $551 forward $145 $-1 #
coedge $-1 $233 $550 $552 $553 reversed $145 $-1 #
coedge $-1 $389 $388 $233 $382 forward $376 $-1 #
edge $-1 $554 9.900806255773059 $555 29.361510740286572 $381 $556 forward 7 unknown #
coedge $-1 $235 $234 $557 $558 reversed $92 $-1 #
coedge $-1 $559 $560 $234 $385 forward $561 $-1 #
edge $-1 $562 -75.056001464888453 $390 75.056001464888453 $384 $563 forward 7 unknown #
coedge $-1 $378 $564 $235 $387 reversed $231 $-1 #
edge $-1 $565 -75.056001464888453 $391 75.056001464888453 $386 $566 forward 7 unknown #
coedge $-1 $381 $236 $564 $567 forward $376 $-1 #
coedge $-1 $236 $381 $559 $568 reversed $376 $-1 #
vertex $-1 $568 $569 #
vertex $-1 $237 $570 #
straight-curve $-1 75.056001464888453 19.631158498029816 16.864683949209599 0 -1 0 I I #
face $-1 $-1 $571 $54 $-1 $572 reversed single #
loop $-1 $-1 $244 $238 #
plane-surface $-1 0 0 17.440116352719812 0 0 1 1 0 0 forward_v I I I I #
coedge $-1 $573 $574 $575 $576 reversed $239 $-1 #
coedge $-1 $577 $241 $243 $403 forward $149 $-1 #
coedge $-1 $241 $577 $573 $578 forward $149 $-1 #
coedge $-1 $575 $244 $241 $400 forward $394 $-1 #
edge $-1 $406 9.9877350824814233 $579 20.346959871116759 $399 $580 forward 7 unknown #
coedge $-1 $581 $582 $242 $402 forward $571 $-1 #
edge $-1 $583 -98.11283436062142 $405 -92.837106926146291 $401 $584 forward 7 unknown #
edge $-1 $406 140.67746373379771 $583 150.11200292977691 $243 $585 forward 7 unknown #
coedge $-1 $244 $575 $581 $586 forward $394 $-1 #
vertex $-1 $402 $587 #
vertex $-1 $245 $588 #
straight-curve $-1 17.274539767773469 -25.155082559280515 17.440116352719812 -1 0 0 I I #
coedge $-1 $408 $408 $-1 $589 reversed $248 $-1 #
edge $-1 $590 0 $590 6.2831853071796004 $249 $591 forward 7 unknown #
vertex $-1 $252 $592 #
ellipse-curve $-1 71.145207751407952 -32.554528836877182 14.802252635482249 0.55919291073839883 0 0.82903756765294845 0.82903756765294845 0 -0.55919291073839883 1 I I #
coedge $-1 $412 $412 $-1 $593 reversed $255 $-1 #
edge $-1 $594 0 $594 6.2831853071796004 $256 $595 forward 7 unknown #
vertex $-1 $259 $596 #
ellipse-curve $-1 71.145207751407952 -28.114861070319183 14.802252635482249 0.55919291073839883 0 0.82903756765294845 0.82903756765294845 0 -0.55919291073839883 1 I I #
face $-1 $-1 $428 $57 $-1 $597 forward single #
loop $-1 $-1 $598 $260 #
plane-surface $-1 75.056001464888453 0 0 -1 0 0 0 0 1 forward_v I I I I #
coedge $-1 $599 $600 $264 $425 reversed $261 $-1 #
coedge $-1 $421 $263 $265 $426 reversed $163 $-1 #
coedge $-1 $263 $420 $598 $601 reversed $163 $-1 #
coedge $-1 $602 $266 $263 $423 forward $428 $-1 #
edge $-1 $430 49.959874270153982 $603 57.781461697114985 $422 $604 forward 7 unknown #
coedge $-1 $265 $264 $605 $606 reversed $104 $-1 #
edge $-1 $429 140.67746373379771 $607 150.11200292977691 $419 $608 forward 7 unknown #
edge $-1 $609 -150.11200292977691 $430 -140.67746373379771 $420 $610 forward 7 unknown #
coedge $-1 $266 $602 $599 $611 forward $428 $-1 #
loop $-1 $-1 $422 $416 #
vertex $-1 $267 $612 #
vertex $-1 $267 $613 #
straight-curve $-1 67.234414037927451 12.176176179742601 17.440116352719812 0 -1 0 I I #
coedge $-1 $432 $432 $-1 $614 reversed $270 $-1 #
edge $-1 $615 0 $615 6.2831853071796004 $271 $616 forward 7 unknown #
vertex $-1 $274 $617 #
ellipse-curve $-1 71.145207751407952 22.132518476206208 14.802252635482249 0.55919291073839883 0 0.82903756765294845 0.82903756765294845 0 -0.55919291073839883 1 I I #
coedge $-1 $436 $436 $-1 $618 reversed $277 $-1 #
edge $-1 $619 0 $619 6.2831853071796004 $278 $620 forward 7 unknown #
vertex $-1 $281 $621 #
ellipse-curve $-1 71.145207751407952 26.572186242764211 14.802252635482249 0.55919291073839883 0 0.82903756765294845 0.82903756765294845 0 -0.55919291073839883 1 I I #
face $-1 $-1 $452 $60 $-1 $622 forward single #
loop $-1 $-1 $623 $282 #
plane-surface $-1 -75.056001464888453 0 0 1 0 0 0 0 -1 forward_v I I I I #
coedge $-1 $624 $625 $626 $627 reversed $283 $-1 #
coedge $-1 $628 $285 $287 $450 forward $177 $-1 #
coedge $-1 $285 $628 $624 $629 forward $177 $-1 #
coedge $-1 $626 $288 $285 $447 forward $452 $-1 #
edge $-1 $454 -14.176837899441445 $630 -1.3622240314697027 $446 $631 forward 7 unknown #
coedge $-1 $632 $633 $286 $449 forward $441 $-1 #
edge $-1 $634 -33.845662710246522 $453 -30.471075506663269 $448 $635 forward 7 unknown #
edge $-1 $454 -4.0237338716237918 $634 2.5617124586774352e-014 $287 $636 forward 7 unknown #
coedge $-1 $288 $626 $632 $637 forward $452 $-1 #
loop $-1 $-1 $626 $440 #
vertex $-1 $449 $638 #
vertex $-1 $289 $639 #
straight-curve $-1 -100.47526070948729 -21.946368864897018 17.440116352719812 1 0 0 I I #
coedge $-1 $456 $456 $-1 $640 reversed $292 $-1 #
edge $-1 $641 0 $641 6.2831853071796004 $293 $642 forward 7 unknown #
vertex $-1 $296 $643 #
ellipse-curve $-1 -73.960260223186637 -19.383446091302666 15.752822750928193 -0.83867057594974714 0 0.54463902268945019 0.2723195113447251 0 0.41933528797487357 1 I I #
coedge $-1 $460 $460 $-1 $644 reversed $299 $-1 #
edge $-1 $645 0 $645 6.2831853071796004 $300 $646 forward 7 unknown #
vertex $-1 $303 $647 #
ellipse-curve $-1 -73.960260223186637 -15.539061930911146 15.752822750928193 -0.83867057594974714 0 0.54463902268945019 0.2723195113447251 0 0.41933528797487357 1 I I #
coedge $-1 $464 $464 $-1 $648 reversed $306 $-1 #
edge $-1 $649 0 $649 6.2831853071796004 $307 $650 forward 7 unknown #
vertex $-1 $310 $651 #
ellipse-curve $-1 -73.960260223186637 -11.694677770519625 15.752822750928193 -0.83867057594974714 0 0.54463902268945019 0.2723195113447251 0 0.41933528797487357 1 I I #
face $-1 $-1 $480 $64 $-1 $652 forward single #
loop $-1 $-1 $653 $311 #
plane-surface $-1 -75.056001464888453 0 0 1 0 0 0 0 -1 forward_v I I I I #
coedge $-1 $654 $655 $656 $657 reversed $312 $-1 #
coedge $-1 $658 $314 $316 $478 forward $196 $-1 #
coedge $-1 $314 $658 $654 $659 forward $196 $-1 #
coedge $-1 $656 $317 $314 $475 forward $480 $-1 #
edge $-1 $482 2.0847301259882354 $660 14.899343993959977 $474 $661 forward 7 unknown #
coedge $-1 $662 $663 $315 $477 forward $469 $-1 #
edge $-1 $664 -33.845662710246522 $481 -30.471075506663269 $476 $665 forward 7 unknown #
edge $-1 $482 -4.0237338716237918 $664 2.5617124586774352e-014 $316 $666 forward 7 unknown #
coedge $-1 $317 $656 $662 $667 forward $480 $-1 #
loop $-1 $-1 $656 $468 #
vertex $-1 $477 $668 #
vertex $-1 $318 $669 #
straight-curve $-1 -100.47526070948729 10.576767185962341 17.440116352719812 1 0 0 I I #
coedge $-1 $484 $484 $-1 $670 reversed $321 $-1 #
edge $-1 $671 0 $671 6.2831853071796004 $322 $672 forward 7 unknown #
vertex $-1 $325 $673 #
ellipse-curve $-1 -73.960260223186637 13.139689959556698 15.752822750928193 -0.83867057594974714 0 0.54463902268945019 0.2723195113447251 0 0.41933528797487357 1 I I #
coedge $-1 $488 $488 $-1 $674 reversed $328 $-1 #
edge $-1 $675 0 $675 6.2831853071796004 $329 $676 forward 7 unknown #
vertex $-1 $332 $677 #
ellipse-curve $-1 -73.960260223186637 16.984074119948211 15.752822750928193 -0.83867057594974714 0 0.54463902268945019 0.2723195113447251 0 0.41933528797487357 1 I I #
coedge $-1 $492 $492 $-1 $678 reversed $335 $-1 #
edge $-1 $679 0 $679 6.2831853071796004 $336 $680 forward 7 unknown #
vertex $-1 $339 $681 #
ellipse-curve $-1 -73.960260223186637 20.828458280339738 15.752822750928193 -0.83867057594974714 0 0.54463902268945019 0.2723195113447251 0 0.41933528797487357 1 I I #
face $-1 $-1 $355 $51 $-1 $682 reversed single #
loop $-1 $-1 $512 $340 #
plane-surface $-1 0 48.992669238316388 0 0 -1 0 0 0 -1 forward_v I I I I #
coedge $-1 $683 $510 $513 $684 forward $341 $-1 #
coedge $-1 $516 $343 $344 $504 reversed $215 $-1 #
coedge $-1 $510 $683 $343 $502 reversed $341 $-1 #
edge $-1 $517 -17.440116352719812 $685 17.440116352719812 $501 $686 forward 7 unknown #
coedge $-1 $345 $344 $683 $687 forward $137 $-1 #
edge $-1 $508 -75.056001464888453 $685 75.056001464888453 $500 $688 forward 7 unknown #
coedge $-1 $513 $512 $345 $506 reversed $497 $-1 #
edge $-1 $689 -75.056001464888453 $507 75.056001464888453 $505 $690 forward 7 unknown #
vertex $-1 $347 $691 #
vertex $-1 $519 $692 #
straight-curve $-1 75.056001464888453 0 -17.440116352719812 0 -1 0 I I #
coedge $-1 $499 $501 $348 $511 reversed $341 $-1 #
edge $-1 $514 -48.992669238316388 $517 48.992669238316388 $510 $693 forward 7 unknown #
coedge $-1 $505 $349 $354 $520 forward $497 $-1 #
coedge $-1 $349 $505 $499 $684 reversed $497 $-1 #
vertex $-1 $350 $694 #
straight-curve $-1 0 48.992669238316388 17.440116352719812 -1 0 0 I I #
coedge $-1 $351 $500 $353 $519 reversed $215 $-1 #
vertex $-1 $511 $695 #
straight-curve $-1 0 -48.992669238316388 17.440116352719812 1 0 0 I I #
edge $-1 $356 -17.440116352719812 $508 17.440116352719812 $353 $696 forward 7 unknown #
edge $-1 $357 -17.440116352719812 $507 17.440116352719812 $354 $697 forward 7 unknown #
point $-1 75.056001464888453 -48.992669238316388 17.440116352719812 #
point $-1 75.056001464888453 48.992669238316388 17.440116352719812 #
face $-1 $-1 $698 $52 $-1 $699 reversed single #
loop $-1 $-1 $369 $359 #
plane-surface $-1 0 -48.992669238316388 0 0 1 0 0 0 1 forward_v I I I I #
coedge $-1 $700 $362 $530 $701 forward $223 $-1 #
coedge $-1 $362 $700 $702 $703 forward $223 $-1 #
edge $-1 $704 -75.056001464888453 $531 75.056001464888453 $362 $705 forward 7 unknown #
coedge $-1 $364 $363 $706 $707 reversed $141 $-1 #
coedge $-1 $365 $371 $526 $701 reversed $360 $-1 #
vertex $-1 $701 $708 #
straight-curve $-1 75.056001464888453 -35.514307347915853 -6.8476953322968122 0 0 1 I I #
coedge $-1 $706 $709 $367 $534 forward $698 $-1 #
edge $-1 $539 -27.865925091758328 $535 -14.387563201357793 $533 $710 forward 7 unknown #
vertex $-1 $534 $711 #
straight-curve $-1 0 -35.514307347915853 -9.9506649764674364 -1 0 0 I I #
coedge $-1 $712 $369 $709 $713 forward $524 $-1 #
coedge $-1 $369 $712 $371 $541 reversed $524 $-1 #
vertex $-1 $713 $714 #
straight-curve $-1 0 -48.992669238316388 -9.9506649764674364 -1 0 0 I I #
edge $-1 $373 9.9506649764674364 $715 17.440116352719812 $371 $716 forward 7 unknown #
point $-1 75.056001464888453 -35.514307347915853 -9.9506649764674364 #
point $-1 75.056001464888453 -48.992669238316388 -9.9506649764674364 #
face $-1 $-1 $561 $53 $-1 $717 reversed single #
loop $-1 $-1 $557 $375 #
plane-surface $-1 -75.056001464888453 0 0 1 0 0 0 0 -1 forward_v I I I I #
coedge $-1 $564 $378 $379 $551 reversed $231 $-1 #
coedge $-1 $557 $718 $378 $549 forward $545 $-1 #
edge $-1 $719 4.2992627326970023 $565 9.810035055240732 $548 $720 forward 7 unknown #
coedge $-1 $380 $379 $718 $721 reversed $145 $-1 #
edge $-1 $554 -75.056001464888453 $719 75.056001464888453 $547 $722 forward 7 unknown #
coedge $-1 $560 $559 $380 $553 forward $561 $-1 #
edge $-1 $555 -75.056001464888453 $723 75.056001464888453 $552 $724 forward 7 unknown #
vertex $-1 $382 $725 #
vertex $-1 $553 $726 #
straight-curve $-1 75.056001464888453 19.631158498029816 11.35391162666587 0 1 0 I I #
coedge $-1 $727 $548 $383 $558 forward $545 $-1 #
edge $-1 $565 9.900806255773059 $562 29.361510740286572 $557 $728 forward 7 unknown #
coedge $-1 $552 $384 $389 $568 forward $561 $-1 #
coedge $-1 $384 $552 $727 $729 reversed $561 $-1 #
loop $-1 $-1 $384 $544 #
vertex $-1 $729 $730 #
straight-curve $-1 0 48.992669238316388 16.864683949209599 1 0 0 I I #
coedge $-1 $386 $547 $388 $567 reversed $231 $-1 #
vertex $-1 $558 $731 #
straight-curve $-1 0 29.531964753802875 16.864683949209599 1 0 0 I I #
edge $-1 $391 -9.810035055240732 $554 -4.2992627326970023 $388 $732 forward 7 unknown #
edge $-1 $390 -16.864683949209599 $555 -11.35391162666587 $389 $733 forward 7 unknown #
point $-1 75.056001464888453 48.992669238316388 16.864683949209599 #
point $-1 75.056001464888453 29.531964753802875 16.864683949209599 #
loop $-1 $-1 $401 $393 #
plane-surface $-1 75.056001464888453 0 0 -1 0 0 0 0 1 forward_v I I I I #
coedge $-1 $574 $396 $398 $578 reversed $239 $-1 #
coedge $-1 $396 $573 $734 $735 reversed $239 $-1 #
coedge $-1 $404 $399 $396 $576 forward $394 $-1 #
edge $-1 $579 49.959874270153982 $736 57.781461697114985 $575 $737 forward 7 unknown #
coedge $-1 $398 $397 $582 $738 reversed $149 $-1 #
edge $-1 $739 -150.11200292977691 $579 -140.67746373379771 $573 $740 forward 7 unknown #
vertex $-1 $400 $741 #
straight-curve $-1 67.234414037927451 -15.167347476799092 17.440116352719812 0 -1 0 I I #
coedge $-1 $734 $401 $404 $586 reversed $571 $-1 #
coedge $-1 $401 $734 $577 $738 forward $571 $-1 #
vertex $-1 $402 $742 #
straight-curve $-1 75.056001464888453 -25.155082559280515 110.2772232788661 0 0 1 I I #
straight-curve $-1 -49.392488319526066 -25.155082559280515 96.105956773317686 0.82903756765294845 0 -0.55919291073839883 I I #
edge $-1 $736 -35.514307347915853 $405 -25.155082559280515 $581 $743 forward 7 unknown #
point $-1 75.056001464888453 -25.155082559280515 17.440116352719812 #
point $-1 67.234414037927451 -25.155082559280515 17.440116352719812 #
edge $-1 $744 1 $744 0 $408 $-1 forward 7 unknown #
vertex $-1 $409 $745 #
ellipse-curve $-1 69.703221479068375 -32.554528836877182 12.664420111406118 0.55919291073839883 0 0.82903756765294845 0.82903756765294845 0 -0.55919291073839883 1 I I #
point $-1 71.974245319060927 -32.554528836877182 14.24305972474388 #
edge $-1 $746 1 $746 0 $412 $-1 forward 7 unknown #
vertex $-1 $413 $747 #
ellipse-curve $-1 69.703221479068375 -28.114861070319183 12.664420111406118 0.55919291073839883 0 0.82903756765294845 0.82903756765294845 0 -0.55919291073839883 1 I I #
point $-1 71.974245319060927 -28.114861070319183 14.24305972474388 #
plane-surface $-1 0 0 17.440116352719812 0 0 1 1 0 0 forward_v I I I I #
coedge $-1 $605 $748 $421 $601 forward $417 $-1 #
coedge $-1 $600 $419 $427 $611 reversed $261 $-1 #
coedge $-1 $419 $599 $749 $750 reversed $261 $-1 #
edge $-1 $603 92.837106926146291 $609 98.11283436062142 $598 $751 forward 7 unknown #
coedge $-1 $427 $422 $748 $752 forward $428 $-1 #
vertex $-1 $752 $753 #
straight-curve $-1 17.274539767773469 19.172739965167533 17.440116352719812 1 0 0 I I #
coedge $-1 $749 $598 $424 $606 forward $417 $-1 #
edge $-1 $609 6.9965637854249323 $607 17.355788574060274 $605 $754 forward 7 unknown #
vertex $-1 $750 $755 #
straight-curve $-1 -49.392488319526066 29.531964753802871 96.105956773317686 0.82903756765294845 0 -0.55919291073839883 I I #
vertex $-1 $606 $756 #
straight-curve $-1 -49.392488319526066 19.172739965167533 96.105956773317686 -0.82903756765294845 0 0.55919291073839883 I I #
edge $-1 $757 -57.781461697114985 $429 -49.959874270153982 $427 $758 forward 7 unknown #
point $-1 67.234414037927451 29.531964753802871 17.440116352719812 #
point $-1 67.234414037927451 19.172739965167533 17.440116352719812 #
edge $-1 $759 1 $759 0 $432 $-1 forward 7 unknown #
vertex $-1 $433 $760 #
ellipse-curve $-1 69.703221479068375 22.132518476206208 12.664420111406118 0.55919291073839883 0 0.82903756765294845 0.82903756765294845 0 -0.55919291073839883 1 I I #
point $-1 71.974245319060927 22.132518476206208 14.24305972474388 #
edge $-1 $761 1 $761 0 $436 $-1 forward 7 unknown #
vertex $-1 $437 $762 #
ellipse-curve $-1 69.703221479068375 26.572186242764211 12.664420111406118 0.55919291073839883 0 0.82903756765294845 0.82903756765294845 0 -0.55919291073839883 1 I I #
point $-1 71.974245319060927 26.572186242764211 14.24305972474388 #
plane-surface $-1 0 0 17.440116352719812 0 0 1 1 0 0 forward_v I I I I #
coedge $-1 $633 $632 $625 $763 forward $441 $-1 #
coedge $-1 $625 $443 $445 $629 reversed $283 $-1 #
coedge $-1 $443 $624 $623 $763 reversed $283 $-1 #
coedge $-1 $451 $446 $443 $627 forward $452 $-1 #
edge $-1 $630 -27.610741728002466 $764 -25.419259244598834 $626 $765 forward 7 unknown #
coedge $-1 $445 $444 $633 $766 reversed $177 $-1 #
edge $-1 $767 -2.5617124586774352e-014 $630 4.0237338716237918 $624 $768 forward 7 unknown #
vertex $-1 $447 $769 #
straight-curve $-1 -72.864518981484821 -7.7695309654555729 17.440116352719812 0 1 0 I I #
coedge $-1 $623 $448 $451 $637 reversed $441 $-1 #
coedge $-1 $448 $623 $628 $766 forward $441 $-1 #
vertex $-1 $449 $770 #
straight-curve $-1 -75.056001464888453 -21.946368864897018 47.911191859383081 0 0 1 I I #
straight-curve $-1 -75.056001464888439 -21.946368864897018 14.06552914913658 -0.54463902268945019 0 -0.83867057594974714 I I #
edge $-1 $764 9.1317549969252756 $453 21.946368864897018 $632 $771 forward 7 unknown #
point $-1 -75.056001464888453 -21.946368864897018 17.440116352719812 #
point $-1 -72.864518981484821 -21.946368864897018 17.440116352719812 #
edge $-1 $772 1 $772 0 $456 $-1 forward 7 unknown #
vertex $-1 $457 $773 #
ellipse-curve $-1 -73.121589647236888 -19.383446091302666 15.208183728238748 -0.83867057594974714 0 0.54463902268945019 0.2723195113447251 0 0.41933528797487357 1 I I #
point $-1 -73.687940711841918 -19.383446091302666 16.172158038903071 #
edge $-1 $774 1 $774 0 $460 $-1 forward 7 unknown #
vertex $-1 $461 $775 #
ellipse-curve $-1 -73.121589647236888 -15.539061930911146 15.208183728238748 -0.83867057594974714 0 0.54463902268945019 0.2723195113447251 0 0.41933528797487357 1 I I #
point $-1 -73.687940711841918 -15.539061930911146 16.172158038903071 #
edge $-1 $776 1 $776 0 $464 $-1 forward 7 unknown #
vertex $-1 $465 $777 #
ellipse-curve $-1 -73.121589647236888 -11.694677770519625 15.208183728238748 -0.83867057594974714 0 0.54463902268945019 0.2723195113447251 0 0.41933528797487357 1 I I #
point $-1 -73.687940711841918 -11.694677770519625 16.172158038903071 #
plane-surface $-1 0 0 17.440116352719812 0 0 1 1 0 0 forward_v I I I I #
coedge $-1 $663 $662 $655 $778 forward $469 $-1 #
coedge $-1 $655 $471 $473 $659 reversed $312 $-1 #
coedge $-1 $471 $654 $653 $778 reversed $312 $-1 #
coedge $-1 $479 $474 $471 $657 forward $480 $-1 #
edge $-1 $660 -27.610741728002466 $779 -25.419259244598834 $656 $780 forward 7 unknown #
coedge $-1 $473 $472 $663 $781 reversed $196 $-1 #
edge $-1 $782 -2.5617124586774352e-014 $660 4.0237338716237918 $654 $783 forward 7 unknown #
vertex $-1 $475 $784 #
straight-curve $-1 -72.864518981484821 8.4920370599741055 17.440116352719812 0 1 0 I I #
coedge $-1 $653 $476 $479 $667 reversed $469 $-1 #
coedge $-1 $476 $653 $658 $781 forward $469 $-1 #
vertex $-1 $477 $785 #
straight-curve $-1 -75.056001464888453 10.576767185962341 47.911191859383081 0 0 1 I I #
straight-curve $-1 -75.056001464888439 10.576767185962341 14.06552914913658 -0.54463902268945019 0 -0.83867057594974714 I I #
edge $-1 $779 -23.391381053934083 $481 -10.576767185962341 $662 $786 forward 7 unknown #
point $-1 -75.056001464888453 10.576767185962341 17.440116352719812 #
point $-1 -72.864518981484821 10.576767185962341 17.440116352719812 #
edge $-1 $787 1 $787 0 $484 $-1 forward 7 unknown #
vertex $-1 $485 $788 #
ellipse-curve $-1 -73.121589647236888 13.139689959556698 15.208183728238748 -0.83867057594974714 0 0.54463902268945019 0.2723195113447251 0 0.41933528797487357 1 I I #
point $-1 -73.687940711841918 13.139689959556698 16.172158038903071 #
edge $-1 $789 1 $789 0 $488 $-1 forward 7 unknown #
vertex $-1 $489 $790 #
ellipse-curve $-1 -73.121589647236888 16.984074119948211 15.208183728238748 -0.83867057594974714 0 0.54463902268945019 0.2723195113447251 0 0.41933528797487357 1 I I #
point $-1 -73.687940711841918 16.984074119948211 16.172158038903071 #
edge $-1 $791 1 $791 0 $492 $-1 forward 7 unknown #
vertex $-1 $493 $792 #
ellipse-curve $-1 -73.121589647236888 20.828458280339738 15.208183728238748 -0.83867057594974714 0 0.54463902268945019 0.2723195113447251 0 0.41933528797487357 1 I I #
point $-1 -73.687940711841918 20.828458280339738 16.172158038903071 #
plane-surface $-1 75.056001464888453 0 0 -1 0 0 0 0 1 forward_v I I I I #
coedge $-1 $501 $499 $503 $687 reversed $341 $-1 #
edge $-1 $514 -17.440116352719812 $689 17.440116352719812 $513 $793 forward 7 unknown #
vertex $-1 $687 $794 #
straight-curve $-1 -75.056001464888453 -48.992669238316388 0 0 0 -1 I I #
edge $-1 $685 -48.992669238316388 $689 48.992669238316388 $683 $795 forward 7 unknown #
straight-curve $-1 0 -48.992669238316388 -17.440116352719812 -1 0 0 I I #
vertex $-1 $506 $796 #
straight-curve $-1 0 48.992669238316388 -17.440116352719812 1 0 0 I I #
point $-1 75.056001464888453 48.992669238316388 -17.440116352719812 #
point $-1 75.056001464888453 -48.992669238316388 -17.440116352719812 #
straight-curve $-1 -75.056001464888453 0 17.440116352719812 0 -1 0 I I #
point $-1 -75.056001464888453 48.992669238316388 17.440116352719812 #
point $-1 -75.056001464888453 -48.992669238316388 17.440116352719812 #
straight-curve $-1 75.056001464888453 -48.992669238316388 0 0 0 -1 I I #
straight-curve $-1 75.056001464888453 48.992669238316388 0 0 0 -1 I I #
loop $-1 $-1 $706 $523 #
plane-surface $-1 -75.056001464888453 0 0 1 0 0 0 0 -1 forward_v I I I I #
coedge $-1 $527 $526 $712 $797 forward $223 $-1 #
edge $-1 $531 35.514307347915853 $715 48.992669238316388 $530 $798 forward 7 unknown #
coedge $-1 $709 $706 $527 $703 reversed $698 $-1 #
edge $-1 $799 -48.992669238316388 $704 -35.514307347915853 $702 $800 forward 7 unknown #
vertex $-1 $707 $801 #
straight-curve $-1 0 -35.514307347915853 -17.440116352719812 1 0 0 I I #
coedge $-1 $702 $533 $529 $707 forward $698 $-1 #
edge $-1 $535 3.1029696441706243 $704 10.592421020423 $706 $802 forward 7 unknown #
point $-1 75.056001464888453 -35.514307347915853 -17.440116352719812 #
coedge $-1 $533 $702 $537 $713 reversed $698 $-1 #
straight-curve $-1 -75.056001464888453 -21.12674414655806 -9.9506649764674364 0 1 0 I I #
point $-1 -75.056001464888453 -35.514307347915853 -9.9506649764674364 #
coedge $-1 $538 $537 $700 $797 reversed $524 $-1 #
edge $-1 $539 9.9506649764674364 $799 17.440116352719812 $709 $803 forward 7 unknown #
point $-1 -75.056001464888453 -48.992669238316388 -9.9506649764674364 #
vertex $-1 $541 $804 #
straight-curve $-1 75.056001464888453 -48.992669238316388 0 0 0 -1 I I #
plane-surface $-1 0 48.992669238316388 0 0 -1 0 0 0 -1 forward_v I I I I #
coedge $-1 $548 $727 $550 $721 forward $545 $-1 #
vertex $-1 $721 $805 #
straight-curve $-1 -75.056001464888453 29.531964753802875 7.0546488939688672 0 0 1 I I #
edge $-1 $723 -29.361510740286572 $719 -9.900806255773059 $718 $806 forward 7 unknown #
straight-curve $-1 0 29.531964753802875 11.35391162666587 -1 0 0 I I #
vertex $-1 $553 $807 #
straight-curve $-1 0 48.992669238316388 11.35391162666587 -1 0 0 I I #
point $-1 75.056001464888453 29.531964753802875 11.35391162666587 #
point $-1 75.056001464888453 48.992669238316388 11.35391162666587 #
coedge $-1 $718 $557 $560 $729 forward $545 $-1 #
straight-curve $-1 -75.056001464888453 19.631158498029816 16.864683949209599 0 1 0 I I #
edge $-1 $562 -16.864683949209599 $723 -11.35391162666587 $560 $808 forward 7 unknown #
point $-1 -75.056001464888453 48.992669238316388 16.864683949209599 #
point $-1 -75.056001464888453 29.531964753802875 16.864683949209599 #
straight-curve $-1 75.056001464888453 29.531964753802875 7.0546488939688672 0 0 -1 I I #
straight-curve $-1 75.056001464888453 48.992669238316388 0 0 0 -1 I I #
coedge $-1 $582 $581 $574 $735 forward $571 $-1 #
edge $-1 $736 92.837106926146291 $739 98.11283436062142 $734 $809 forward 7 unknown #
vertex $-1 $586 $810 #
straight-curve $-1 17.274539767773469 -35.514307347915853 17.440116352719812 1 0 0 I I #
edge $-1 $739 -20.346959871116759 $583 -9.9877350824814233 $582 $811 forward 7 unknown #
vertex $-1 $738 $812 #
straight-curve $-1 -49.392488319526066 -35.514307347915853 96.105956773317686 -0.82903756765294845 0 0.55919291073839883 I I #
point $-1 67.234414037927451 -35.514307347915853 17.440116352719812 #
point $-1 75.056001464888453 -25.155082559280515 12.164388918244683 #
straight-curve $-1 75.056001464888453 0 17.440116352719812 0 1 0 I I #
vertex $-1 $589 $813 #
point $-1 70.532259046721322 -32.554528836877182 12.105227200667718 #
vertex $-1 $593 $814 #
point $-1 70.532259046721322 -28.114861070319183 12.105227200667718 #
coedge $-1 $598 $749 $602 $752 reversed $417 $-1 #
coedge $-1 $748 $605 $600 $750 forward $417 $-1 #
edge $-1 $607 -98.112834360621406 $757 -92.837106926146291 $749 $815 forward 7 unknown #
straight-curve $-1 75.056001464888453 19.172739965167533 110.2772232788661 0 0 -1 I I #
edge $-1 $603 19.172739965167533 $757 29.531964753802871 $748 $816 forward 7 unknown #
point $-1 75.056001464888453 19.172739965167533 17.440116352719812 #
straight-curve $-1 75.056001464888453 12.176176179742601 12.16438891824469 0 1 0 I I #
point $-1 75.056001464888453 29.531964753802875 12.1643889182447 #
point $-1 75.056001464888453 19.172739965167533 12.164388918244683 #
vertex $-1 $750 $817 #
straight-curve $-1 17.274539767773469 29.531964753802871 17.440116352719812 -1 0 0 I I #
vertex $-1 $614 $818 #
point $-1 70.532259046721322 22.132518476206208 12.105227200667718 #
vertex $-1 $618 $819 #
point $-1 70.532259046721322 26.572186242764211 12.105227200667718 #
edge $-1 $764 30.471075506663269 $767 33.845662710246522 $623 $820 forward 7 unknown #
vertex $-1 $637 $821 #
straight-curve $-1 -100.47526070948729 -9.1317549969252756 17.440116352719812 -1 0 0 I I #
edge $-1 $767 1.3622240314697027 $634 14.176837899441445 $633 $822 forward 7 unknown #
vertex $-1 $766 $823 #
straight-curve $-1 -75.056001464888439 -9.1317549969252756 14.06552914913658 0.54463902268945019 0 0.83867057594974714 I I #
point $-1 -72.864518981484821 -9.1317549969252756 17.440116352719812 #
point $-1 -75.056001464888453 -21.946368864897018 14.065529149136559 #
straight-curve $-1 -75.056001464888453 0 17.440116352719812 0 -1 0 I I #
vertex $-1 $640 $824 #
point $-1 -72.849270135892169 -19.383446091302666 15.62751901621362 #
vertex $-1 $644 $825 #
point $-1 -72.849270135892169 -15.539061930911146 15.62751901621362 #
vertex $-1 $648 $826 #
point $-1 -72.849270135892169 -11.694677770519625 15.62751901621362 #
edge $-1 $779 30.471075506663269 $782 33.845662710246522 $653 $827 forward 7 unknown #
vertex $-1 $667 $828 #
straight-curve $-1 -100.47526070948729 23.391381053934083 17.440116352719812 -1 0 0 I I #
edge $-1 $782 -14.899343993959977 $664 -2.0847301259882354 $663 $829 forward 7 unknown #
vertex $-1 $781 $830 #
straight-curve $-1 -75.056001464888439 23.391381053934083 14.06552914913658 0.54463902268945019 0 0.83867057594974714 I I #
point $-1 -72.864518981484821 23.391381053934083 17.440116352719812 #
point $-1 -75.056001464888453 10.576767185962341 14.065529149136559 #
straight-curve $-1 -75.056001464888453 0 17.440116352719812 0 -1 0 I I #
vertex $-1 $670 $831 #
point $-1 -72.849270135892169 13.139689959556698 15.62751901621362 #
vertex $-1 $674 $832 #
point $-1 -72.849270135892169 16.984074119948211 15.62751901621362 #
vertex $-1 $678 $833 #
point $-1 -72.849270135892169 20.828458280339738 15.62751901621362 #
straight-curve $-1 -75.056001464888453 48.992669238316388 0 0 0 -1 I I #
point $-1 -75.056001464888453 -48.992669238316388 -17.440116352719812 #
straight-curve $-1 -75.056001464888453 0 -17.440116352719812 0 1 0 I I #
point $-1 -75.056001464888453 48.992669238316388 -17.440116352719812 #
edge $-1 $715 -75.056001464888453 $799 75.056001464888453 $712 $834 forward 7 unknown #
straight-curve $-1 75.056001464888453 0 -17.440116352719812 0 -1 0 I I #
vertex $-1 $703 $835 #
straight-curve $-1 -75.056001464888453 0 -17.440116352719812 0 1 0 I I #
point $-1 -75.056001464888453 -35.514307347915853 -17.440116352719812 #
straight-curve $-1 -75.056001464888453 -35.514307347915853 -6.8476953322968122 0 0 -1 I I #
straight-curve $-1 -75.056001464888453 -48.992669238316388 0 0 0 -1 I I #
point $-1 75.056001464888453 -48.992669238316388 -17.440116352719812 #
point $-1 -75.056001464888453 29.531964753802875 11.35391162666587 #
straight-curve $-1 -75.056001464888453 19.631158498029816 11.35391162666587 0 -1 0 I I #
point $-1 -75.056001464888453 48.992669238316388 11.35391162666587 #
straight-curve $-1 -75.056001464888453 48.992669238316388 0 0 0 -1 I I #
straight-curve $-1 75.056001464888453 -35.514307347915853 110.2772232788661 0 0 -1 I I #
point $-1 75.056001464888453 -35.514307347915853 17.440116352719812 #
straight-curve $-1 75.056001464888453 -15.167347476799092 12.16438891824469 0 1 0 I I #
point $-1 75.056001464888453 -35.514307347915853 12.164388918244683 #
point $-1 69.144028568329972 -32.554528836877182 11.835382543753168 #
point $-1 69.144028568329972 -28.114861070319183 11.835382543753168 #
straight-curve $-1 75.056001464888453 29.531964753802871 110.2772232788661 0 0 1 I I #
straight-curve $-1 75.056001464888453 0 17.440116352719812 0 1 0 I I #
point $-1 75.056001464888453 29.531964753802871 17.440116352719812 #
point $-1 69.144028568329972 22.132518476206208 11.835382543753168 #
point $-1 69.144028568329972 26.572186242764211 11.835382543753168 #
straight-curve $-1 -75.056001464888453 -9.1317549969252756 47.911191859383081 0 0 -1 I I #
point $-1 -75.056001464888453 -9.1317549969252756 17.440116352719812 #
straight-curve $-1 -75.056001464888453 -7.7695309654555729 14.065529149136568 0 -1 0 I I #
point $-1 -75.056001464888453 -9.1317549969252756 14.065529149136559 #
point $-1 -72.702254359262028 -19.383446091302666 14.935864216894021 #
point $-1 -72.702254359262028 -15.539061930911146 14.935864216894021 #
point $-1 -72.702254359262028 -11.694677770519625 14.935864216894021 #
straight-curve $-1 -75.056001464888453 23.391381053934083 47.911191859383081 0 0 -1 I I #
point $-1 -75.056001464888453 23.391381053934083 17.440116352719812 #
straight-curve $-1 -75.056001464888453 8.4920370599741055 14.065529149136568 0 -1 0 I I #
point $-1 -75.056001464888453 23.391381053934083 14.065529149136559 #
point $-1 -72.702254359262028 13.139689959556698 14.935864216894021 #
point $-1 -72.702254359262028 16.984074119948211 14.935864216894021 #
point $-1 -72.702254359262028 20.828458280339738 14.935864216894021 #
straight-curve $-1 0 -48.992669238316388 -17.440116352719812 -1 0 0 I I #
point $-1 -75.056001464888453 -48.992669238316388 -17.440116352719812 #
End-of-ACIS-data 