500 0 3 0           
7 Unknown 11 ACIS 5.0 NT 24 Fri Mar 26 16:56:42 1999 
-1 9.9999999999999995e-007 1e-010 
body $-1 $3 $-1 $4 #
body $-1 $5 $-1 $6 #
body $-1 $7 $-1 $8 #
lump $-1 $-1 $9 $0 #
transform $-1 1 0 0 0 1 0 0 0 1 46.179387798699914 30.034007246293957 10.68252634823626 1 rotate no_reflect no_shear #
lump $-1 $-1 $10 $1 #
transform $-1 1 0 0 0 1 0 0 0 1 46.179387798699914 30.034007246293957 10.68252634823626 1 rotate no_reflect no_shear #
lump $-1 $-1 $11 $2 #
transform $-1 1 0 0 0 1 0 0 0 1 46.179387798699914 30.034007246293957 10.68252634823626 1 rotate no_reflect no_shear #
shell $-1 $-1 $-1 $12 $-1 $3 #
shell $-1 $-1 $-1 $13 $-1 $5 #
shell $-1 $-1 $-1 $14 $-1 $7 #
face $-1 $15 $16 $9 $-1 $17 forward single #
face $-1 $18 $19 $10 $-1 $20 reversed single #
face $-1 $21 $22 $11 $-1 $23 forward single #
face $-1 $24 $25 $9 $-1 $26 reversed single #
loop $-1 $-1 $27 $12 #
plane-surface $-1 0 0 10.68252634823626 0 0 1 1 0 0 forward_v I I I I #
face $-1 $28 $29 $10 $-1 $30 reversed single #
loop $-1 $-1 $31 $13 #
plane-surface $-1 79.985047881547018 14.718256086729358 126.18412778276387 0 -1 0 -0.86602541151947299 0 -0.49999998660252726 forward_v I I I I #
face $-1 $32 $33 $11 $-1 $34 forward single #
loop $-1 $35 $36 $14 #
cone-surface $-1 41.345806059641426 6.3346369797550359 4.3375793457693659 -0.86602541151947299 0 -0.49999998660252726 0.74999997990379086 0 -1.2990381172792094 1 I I 0 1 1.5 forward I I I I #
face $-1 $37 $38 $9 $-1 $39 reversed single #
loop $-1 $-1 $40 $15 #
plane-surface $-1 0 0 -10.68252634823626 0 0 1 1 0 0 forward_v I I I I #
coedge $-1 $41 $42 $43 $44 forward $16 $-1 #
face $-1 $45 $46 $10 $-1 $47 reversed single #
loop $-1 $-1 $48 $18 #
plane-surface $-1 1.2373741782312209e-006 6.3346369797550359 80.004741221438138 0.86602541151947299 0 0.49999998660252726 0.49999998660252726 0 -0.86602541151947299 forward_v I I I I #
coedge $-1 $49 $50 $51 $52 reversed $19 $-1 #
face $-1 $-1 $53 $11 $-1 $54 forward single #
loop $-1 $55 $56 $21 #
cone-surface $-1 38.940799548620397 6.3346369797550359 2.9490482388360615 -0.86602541151947299 0 -0.49999998660252726 0.37499998995189543 0 -0.64951905863960469 1 I I -0.70710678118654757 0.70710678118654757 0.75 forward I I I I #
loop $-1 $-1 $57 $14 #
coedge $-1 $36 $36 $58 $59 reversed $22 $-1 #
face $-1 $60 $61 $9 $-1 $62 reversed single #
loop $-1 $-1 $63 $24 #
plane-surface $-1 0 -30.034007246293957 0 0 1 0 0 0 1 forward_v I I I I #
coedge $-1 $64 $65 $66 $67 forward $25 $-1 #
coedge $-1 $68 $27 $69 $70 forward $16 $-1 #
coedge $-1 $27 $68 $71 $72 forward $16 $-1 #
coedge $-1 $73 $74 $27 $44 reversed $75 $-1 #
edge $-1 $76 -30.034007246293957 $77 30.034007246293957 $43 $78 forward 7 unknown #
face $-1 $79 $80 $10 $-1 $81 forward single #
loop $-1 $-1 $82 $28 #
plane-surface $-1 79.985047881547018 -2.0489821272192863 126.18412778276387 0 1 0 0.86602541151947299 0 0.49999998660252726 forward_v I I I I #
coedge $-1 $83 $84 $85 $86 reversed $29 $-1 #
coedge $-1 $50 $31 $87 $88 reversed $19 $-1 #
coedge $-1 $31 $49 $83 $89 reversed $19 $-1 #
coedge $-1 $85 $90 $31 $52 forward $80 $-1 #
edge $-1 $91 -6.1868638579264044 $92 -0.03067528457227553 $51 $93 forward 7 unknown #
loop $-1 $-1 $58 $32 #
plane-surface $-1 1.2373741782312209e-006 6.3346369797550359 80.004741221438138 0.86602541151947299 0 0.49999998660252726 0.49999998660252726 0 -0.86602541151947299 forward_v I I I I #
loop $-1 $-1 $94 $21 #
coedge $-1 $56 $56 $57 $95 reversed $33 $-1 #
coedge $-1 $57 $57 $56 $95 forward $35 $-1 #
coedge $-1 $58 $58 $36 $59 forward $53 $-1 #
edge $-1 $96 0 $96 6.2831853071796004 $58 $97 forward 7 unknown #
face $-1 $98 $99 $9 $-1 $100 reversed single #
loop $-1 $-1 $101 $37 #
plane-surface $-1 -46.179387798699914 0 0 1 0 0 0 0 -1 forward_v I I I I #
coedge $-1 $102 $71 $103 $104 forward $38 $-1 #
coedge $-1 $105 $40 $102 $106 forward $25 $-1 #
coedge $-1 $40 $105 $107 $108 forward $25 $-1 #
coedge $-1 $74 $73 $40 $67 reversed $75 $-1 #
edge $-1 $109 -30.034007246293957 $110 30.034007246293957 $66 $111 forward 7 unknown #
coedge $-1 $42 $41 $112 $113 forward $16 $-1 #
coedge $-1 $114 $115 $41 $70 reversed $99 $-1 #
edge $-1 $77 -46.179387798699914 $116 46.179387798699914 $69 $117 forward 7 unknown #
coedge $-1 $63 $118 $42 $72 reversed $38 $-1 #
edge $-1 $119 -46.179387798699914 $76 46.179387798699914 $71 $120 forward 7 unknown #
coedge $-1 $66 $43 $118 $121 forward $75 $-1 #
coedge $-1 $43 $66 $114 $122 reversed $75 $-1 #
loop $-1 $-1 $73 $98 #
vertex $-1 $44 $123 #
vertex $-1 $44 $124 #
straight-curve $-1 46.179387798699914 0 10.68252634823626 0 1 0 I I #
face $-1 $-1 $125 $10 $-1 $126 reversed single #
loop $-1 $-1 $51 $45 #
plane-surface $-1 0 0 10.68252634823626 0 0 1 1 0 0 forward_v I I I I #
coedge $-1 $127 $128 $129 $130 reversed $46 $-1 #
coedge $-1 $131 $48 $50 $89 forward $29 $-1 #
coedge $-1 $48 $131 $127 $132 forward $29 $-1 #
coedge $-1 $129 $51 $48 $86 forward $80 $-1 #
edge $-1 $92 -11.55093759685184 $133 5.2163006170968043 $85 $134 forward 7 unknown #
coedge $-1 $135 $136 $49 $88 forward $125 $-1 #
edge $-1 $137 -63.072369314116635 $91 -52.409537543145674 $87 $138 forward 7 unknown #
edge $-1 $92 80.046398120782086 $137 92.358775597399813 $50 $139 forward 7 unknown #
coedge $-1 $51 $129 $135 $140 forward $80 $-1 #
vertex $-1 $88 $141 #
vertex $-1 $52 $142 #
straight-curve $-1 39.992523940773509 14.718256086729358 10.682526348236259 -1 0 0 I I #
coedge $-1 $94 $94 $-1 $143 reversed $55 $-1 #
edge $-1 $144 0 $144 6.2831853071796004 $56 $145 forward 7 unknown #
vertex $-1 $59 $146 #
ellipse-curve $-1 43.101293512022849 6.3346369797550359 5.3511104627507775 0.86602541151947299 0 0.49999998660252726 0.74999997990379086 0 -1.2990381172792094 1 I I #
face $-1 $-1 $75 $9 $-1 $147 reversed single #
loop $-1 $-1 $114 $60 #
plane-surface $-1 0 30.034007246293957 0 0 -1 0 0 0 -1 forward_v I I I I #
coedge $-1 $148 $112 $115 $149 forward $61 $-1 #
coedge $-1 $118 $63 $64 $106 reversed $38 $-1 #
coedge $-1 $112 $148 $63 $104 reversed $61 $-1 #
edge $-1 $119 -10.68252634823626 $150 10.68252634823626 $103 $151 forward 7 unknown #
coedge $-1 $65 $64 $148 $152 forward $25 $-1 #
edge $-1 $110 -46.179387798699914 $150 46.179387798699914 $102 $153 forward 7 unknown #
coedge $-1 $115 $114 $65 $108 reversed $99 $-1 #
edge $-1 $154 -46.179387798699914 $109 46.179387798699914 $107 $155 forward 7 unknown #
vertex $-1 $67 $156 #
vertex $-1 $121 $157 #
straight-curve $-1 46.179387798699914 0 -10.68252634823626 0 -1 0 I I #
coedge $-1 $101 $103 $68 $113 reversed $61 $-1 #
edge $-1 $116 -30.034007246293957 $119 30.034007246293957 $112 $158 forward 7 unknown #
coedge $-1 $107 $69 $74 $122 forward $99 $-1 #
coedge $-1 $69 $107 $101 $149 reversed $99 $-1 #
vertex $-1 $70 $159 #
straight-curve $-1 0 30.034007246293957 10.68252634823626 -1 0 0 I I #
coedge $-1 $71 $102 $73 $121 reversed $38 $-1 #
vertex $-1 $113 $160 #
straight-curve $-1 0 -30.034007246293957 10.68252634823626 1 0 0 I I #
edge $-1 $76 -10.68252634823626 $110 10.68252634823626 $73 $161 forward 7 unknown #
edge $-1 $77 -10.68252634823626 $109 10.68252634823626 $74 $162 forward 7 unknown #
point $-1 46.179387798699914 -30.034007246293957 10.68252634823626 #
point $-1 46.179387798699914 30.034007246293957 10.68252634823626 #
loop $-1 $-1 $87 $79 #
plane-surface $-1 46.179387798699914 0 0 -1 0 0 0 0 1 forward_v I I I I #
coedge $-1 $128 $82 $84 $132 reversed $46 $-1 #
coedge $-1 $82 $127 $163 $164 reversed $46 $-1 #
coedge $-1 $90 $85 $82 $130 forward $80 $-1 #
edge $-1 $133 0.03067528457227553 $165 6.1868638579264044 $129 $166 forward 7 unknown #
coedge $-1 $84 $83 $136 $167 reversed $29 $-1 #
edge $-1 $168 -92.358775597399813 $133 -80.046398120782086 $127 $169 forward 7 unknown #
vertex $-1 $86 $170 #
straight-curve $-1 40.023199225345778 3.167318489877518 10.682526348236259 0 -1 0 I I #
coedge $-1 $163 $87 $90 $140 reversed $125 $-1 #
coedge $-1 $87 $163 $131 $167 forward $125 $-1 #
vertex $-1 $88 $171 #
straight-curve $-1 46.179387798699914 14.718256086729358 63.092063891381933 0 0 1 I I #
straight-curve $-1 1.2373741782312209e-006 14.718256086729358 80.004741221438138 0.49999998660252726 0 -0.86602541151947299 I I #
edge $-1 $165 -2.0489821272192863 $91 14.718256086729358 $135 $172 forward 7 unknown #
point $-1 46.179387798699914 14.718256086729358 10.68252634823626 #
point $-1 40.023199225345785 14.718256086729358 10.682526348236266 #
edge $-1 $173 1 $173 0 $94 $-1 forward 7 unknown #
vertex $-1 $95 $174 #
ellipse-curve $-1 39.590318607260002 6.3346369797550359 3.3240482287879569 0.86602541151947299 0 0.49999998660252726 0.74999997990379086 0 -1.2990381172792094 1 I I #
point $-1 43.85129349192664 6.3346369797550359 4.052072345471565 #
plane-surface $-1 46.179387798699914 0 0 -1 0 0 0 0 1 forward_v I I I I #
coedge $-1 $103 $101 $105 $152 reversed $61 $-1 #
edge $-1 $116 -10.68252634823626 $154 10.68252634823626 $115 $175 forward 7 unknown #
vertex $-1 $152 $176 #
straight-curve $-1 -46.179387798699914 -30.034007246293957 0 0 0 -1 I I #
edge $-1 $150 -30.034007246293957 $154 30.034007246293957 $148 $177 forward 7 unknown #
straight-curve $-1 0 -30.034007246293957 -10.68252634823626 -1 0 0 I I #
vertex $-1 $108 $178 #
straight-curve $-1 0 30.034007246293957 -10.68252634823626 1 0 0 I I #
point $-1 46.179387798699914 30.034007246293957 -10.68252634823626 #
point $-1 46.179387798699914 -30.034007246293957 -10.68252634823626 #
straight-curve $-1 -46.179387798699914 0 10.68252634823626 0 -1 0 I I #
point $-1 -46.179387798699914 30.034007246293957 10.68252634823626 #
point $-1 -46.179387798699914 -30.034007246293957 10.68252634823626 #
straight-curve $-1 46.179387798699914 -30.034007246293957 0 0 0 -1 I I #
straight-curve $-1 46.179387798699914 30.034007246293957 0 0 0 -1 I I #
coedge $-1 $136 $135 $128 $164 forward $125 $-1 #
edge $-1 $165 52.409537543145674 $168 63.072369314116635 $163 $179 forward 7 unknown #
vertex $-1 $140 $180 #
straight-curve $-1 39.992523940773509 -2.0489821272192863 10.682526348236259 1 0 0 I I #
edge $-1 $168 -5.2163006170968043 $137 11.55093759685184 $136 $181 forward 7 unknown #
vertex $-1 $167 $182 #
straight-curve $-1 1.2373741782312209e-006 -2.0489821272192863 80.004741221438138 -0.49999998660252726 0 0.86602541151947299 I I #
point $-1 40.023199225345785 -2.0489821272192863 10.682526348236266 #
point $-1 46.179387798699914 14.718256086729358 0.019694577265298108 #
straight-curve $-1 46.179387798699914 0 10.68252634823626 0 1 0 I I #
vertex $-1 $143 $183 #
point $-1 40.340318587163793 6.3346369797550359 2.0250101115087475 #
straight-curve $-1 -46.179387798699914 30.034007246293957 0 0 0 -1 I I #
point $-1 -46.179387798699914 -30.034007246293957 -10.68252634823626 #
straight-curve $-1 -46.179387798699914 0 -10.68252634823626 0 1 0 I I #
point $-1 -46.179387798699914 30.034007246293957 -10.68252634823626 #
straight-curve $-1 46.179387798699914 -2.0489821272192863 63.092063891381933 0 0 -1 I I #
point $-1 46.179387798699914 -2.0489821272192863 10.68252634823626 #
straight-curve $-1 46.179387798699914 3.167318489877518 0.019694577265291002 0 1 0 I I #
point $-1 46.179387798699914 -2.0489821272192863 0.019694577265298108 #
point $-1 38.291280489980792 6.3346369797550359 2.5740482488841661 #
End-of-ACIS-data 