500 0 12 0           
7 Unknown 11 ACIS 5.0 NT 24 Fri Mar 26 02:01:08 1999 
-1 9.9999999999999995e-007 1e-010 
body $-1 $12 $-1 $13 #
body $-1 $14 $-1 $15 #
body $-1 $16 $-1 $17 #
body $-1 $18 $-1 $19 #
body $-1 $20 $-1 $21 #
body $-1 $22 $-1 $23 #
body $-1 $24 $-1 $25 #
body $-1 $26 $-1 $27 #
body $-1 $28 $-1 $29 #
body $-1 $30 $-1 $31 #
body $-1 $32 $-1 $33 #
body $-1 $34 $-1 $35 #
lump $-1 $-1 $36 $0 #
transform $-1 1 0 0 0 1 0 0 0 1 79.816888943144022 37.034822111080445 12.250979455745815 1 rotate no_reflect no_shear #
lump $-1 $-1 $37 $1 #
transform $-1 1 0 0 0 1 0 0 0 1 79.816888943144022 37.034822111080445 12.250979455745815 1 rotate no_reflect no_shear #
lump $-1 $-1 $38 $2 #
transform $-1 1 0 0 0 1 0 0 0 1 79.816888943144022 37.034822111080445 12.250979455745815 1 rotate no_reflect no_shear #
lump $-1 $-1 $39 $3 #
transform $-1 1 0 0 0 1 0 0 0 1 79.816888943144022 37.034822111080445 12.250979455745815 1 rotate no_reflect no_shear #
lump $-1 $-1 $40 $4 #
transform $-1 1 0 0 0 1 0 0 0 1 79.816888943144022 37.034822111080445 12.250979455745815 1 rotate no_reflect no_shear #
lump $-1 $-1 $41 $5 #
transform $-1 1 0 0 0 1 0 0 0 1 79.816888943144022 37.034822111080445 12.250979455745815 1 rotate no_reflect no_shear #
lump $-1 $-1 $42 $6 #
transform $-1 1 0 0 0 1 0 0 0 1 79.816888943144022 37.034822111080445 12.250979455745815 1 rotate no_reflect no_shear #
lump $-1 $-1 $43 $7 #
transform $-1 1 0 0 0 1 0 0 0 1 79.816888943144022 37.034822111080445 12.250979455745815 1 rotate no_reflect no_shear #
lump $-1 $-1 $44 $8 #
transform $-1 1 0 0 0 1 0 0 0 1 79.816888943144022 37.034822111080445 12.250979455745815 1 rotate no_reflect no_shear #
lump $-1 $-1 $45 $9 #
transform $-1 1 0 0 0 1 0 0 0 1 79.816888943144022 37.034822111080445 12.250979455745815 1 rotate no_reflect no_shear #
lump $-1 $-1 $46 $10 #
transform $-1 1 0 0 0 1 0 0 0 1 79.816888943144022 37.034822111080445 12.250979455745815 1 rotate no_reflect no_shear #
lump $-1 $-1 $47 $11 #
transform $-1 1 0 0 0 1 0 0 0 1 79.816888943144022 37.034822111080445 12.250979455745815 1 rotate no_reflect no_shear #
shell $-1 $-1 $-1 $48 $-1 $12 #
shell $-1 $-1 $-1 $49 $-1 $14 #
shell $-1 $-1 $-1 $50 $-1 $16 #
shell $-1 $-1 $-1 $51 $-1 $18 #
shell $-1 $-1 $-1 $52 $-1 $20 #
shell $-1 $-1 $-1 $53 $-1 $22 #
shell $-1 $-1 $-1 $54 $-1 $24 #
shell $-1 $-1 $-1 $55 $-1 $26 #
shell $-1 $-1 $-1 $56 $-1 $28 #
shell $-1 $-1 $-1 $57 $-1 $30 #
shell $-1 $-1 $-1 $58 $-1 $32 #
shell $-1 $-1 $-1 $59 $-1 $34 #
face $-1 $60 $61 $36 $-1 $62 forward single #
face $-1 $63 $64 $37 $-1 $65 forward single #
face $-1 $66 $67 $38 $-1 $68 reversed single #
face $-1 $69 $70 $39 $-1 $71 forward single #
face $-1 $72 $73 $40 $-1 $74 forward single #
face $-1 $75 $76 $41 $-1 $77 reversed single #
face $-1 $78 $79 $42 $-1 $80 forward single #
face $-1 $81 $82 $43 $-1 $83 forward single #
face $-1 $84 $85 $44 $-1 $86 reversed single #
face $-1 $87 $88 $45 $-1 $89 forward single #
face $-1 $90 $91 $46 $-1 $92 forward single #
face $-1 $93 $94 $47 $-1 $95 forward single #
face $-1 $96 $97 $36 $-1 $98 reversed single #
loop $-1 $-1 $99 $48 #
plane-surface $-1 0 0 12.250979455745815 0 0 1 1 0 0 forward_v I I I I #
face $-1 $100 $101 $37 $-1 $102 forward single #
loop $-1 $-1 $103 $49 #
plane-surface $-1 -79.816888943144022 0 0 1 0 0 0 0 -1 forward_v I I I I #
face $-1 $104 $105 $38 $-1 $106 reversed single #
loop $-1 $-1 $107 $50 #
plane-surface $-1 -70.739012992832286 82.904799015871973 170.7457251876649 1 0 0 0 -0.64278761758704617 -0.76604443648966558 forward_v I I I I #
face $-1 $108 $109 $39 $-1 $110 forward single #
loop $-1 $111 $112 $51 #
cone-surface $-1 -65.03024332335832 27.875393892310345 3.7313781078247947 0 -0.64278761758704617 -0.76604443648966558 2.5 0 0 1 I I 0 1 2.5 forward I I I I #
face $-1 $113 $114 $40 $-1 $115 forward single #
loop $-1 $116 $117 $52 #
cone-surface $-1 -56.467088819147378 27.875393892310345 3.7313781078247947 0 -0.64278761758704617 -0.76604443648966558 2.5 0 0 1 I I 0 1 2.5 forward I I I I #
face $-1 $118 $119 $41 $-1 $120 reversed single #
loop $-1 $-1 $121 $53 #
plane-surface $-1 4.5389379751558732 82.904799015871973 170.7457251876649 1 0 0 0 -0.64278761758704617 -0.76604443648966558 forward_v I I I I #
face $-1 $122 $123 $42 $-1 $124 forward single #
loop $-1 $125 $126 $54 #
cone-surface $-1 10.247707644629827 27.875393892310345 3.7313781078247947 0 -0.64278761758704617 -0.76604443648966558 2.5 0 0 1 I I 0 1 2.5 forward I I I I #
face $-1 $127 $128 $43 $-1 $129 forward single #
loop $-1 $130 $131 $55 #
cone-surface $-1 18.810862148840769 27.875393892310345 3.7313781078247947 0 -0.64278761758704617 -0.76604443648966558 2.5 0 0 1 I I 0 1 2.5 forward I I I I #
face $-1 $132 $133 $44 $-1 $134 reversed single #
loop $-1 $-1 $135 $56 #
plane-surface $-1 65.833960526902743 -116.85171212356904 138.58033346326107 -1 0 0 0 -0.50000000669873634 0.8660253999169214 forward_v I I I I #
face $-1 $136 $137 $45 $-1 $138 forward single #
loop $-1 $139 $140 $57 #
cone-surface $-1 45.180780285619278 -25.296105556611487 3.8364780189992613 0 0.50000000669873634 -0.8660253999169214 2.5 0 0 1 I I 0 1 2.5 forward I I I I #
face $-1 $141 $142 $46 $-1 $143 forward single #
loop $-1 $144 $145 $58 #
cone-surface $-1 52.925722876100593 -25.296105556611487 3.8364780189992613 0 0.50000000669873634 -0.8660253999169214 2.5 0 0 1 I I 0 1 2.5 forward I I I I #
face $-1 $146 $147 $47 $-1 $148 forward single #
loop $-1 $149 $150 $59 #
cone-surface $-1 60.670665466581909 -25.296105556611487 3.8364780189992613 0 0.50000000669873634 -0.8660253999169214 2.5 0 0 1 I I 0 1 2.5 forward I I I I #
face $-1 $151 $152 $36 $-1 $153 reversed single #
loop $-1 $-1 $154 $60 #
plane-surface $-1 0 0 -12.250979455745815 0 0 1 1 0 0 forward_v I I I I #
coedge $-1 $155 $156 $157 $158 forward $61 $-1 #
face $-1 $159 $160 $37 $-1 $161 reversed single #
loop $-1 $-1 $162 $63 #
plane-surface $-1 0 0 12.250979455745815 0 0 1 1 0 0 forward_v I I I I #
coedge $-1 $163 $164 $165 $166 forward $64 $-1 #
face $-1 $167 $168 $38 $-1 $169 reversed single #
loop $-1 $-1 $170 $66 #
plane-surface $-1 -60.748666071252849 -19.705816758074818 48.459157762046942 0 0.64278761758704617 0.76604443648966558 1 0 0 forward_v I I I I #
coedge $-1 $171 $172 $173 $174 reversed $67 $-1 #
face $-1 $-1 $175 $39 $-1 $176 forward single #
loop $-1 $177 $178 $69 #
cone-surface $-1 -65.03024332335832 24.707187749121346 -0.044342866317416352 0 -0.64278761758704617 -0.76604443648966558 1.25 0 0 1 I I -0.70710678118654746 0.70710678118654768 1.25 forward I I I I #
loop $-1 $-1 $179 $51 #
coedge $-1 $112 $112 $180 $181 reversed $70 $-1 #
face $-1 $-1 $182 $40 $-1 $183 forward single #
loop $-1 $184 $185 $72 #
cone-surface $-1 -56.467088819147378 24.707187749121346 -0.044342866317416352 0 -0.64278761758704617 -0.76604443648966558 1.25 0 0 1 I I -0.70710678118654746 0.70710678118654768 1.25 forward I I I I #
loop $-1 $-1 $186 $52 #
coedge $-1 $117 $117 $187 $188 reversed $73 $-1 #
face $-1 $189 $190 $41 $-1 $191 reversed single #
loop $-1 $-1 $192 $75 #
plane-surface $-1 14.529284896735305 -19.705816758074818 48.459157762046942 0 0.64278761758704617 0.76604443648966558 1 0 0 forward_v I I I I #
coedge $-1 $193 $194 $195 $196 reversed $76 $-1 #
face $-1 $-1 $197 $42 $-1 $198 forward single #
loop $-1 $199 $200 $78 #
cone-surface $-1 10.247707644629827 24.707187749121346 -0.044342866317416352 0 -0.64278761758704617 -0.76604443648966558 1.25 0 0 1 I I -0.70710678118654746 0.70710678118654768 1.25 forward I I I I #
loop $-1 $-1 $201 $54 #
coedge $-1 $126 $126 $202 $203 reversed $79 $-1 #
face $-1 $-1 $204 $43 $-1 $205 forward single #
loop $-1 $206 $207 $81 #
cone-surface $-1 18.810862148840769 24.707187749121346 -0.044342866317416352 0 -0.64278761758704617 -0.76604443648966558 1.25 0 0 1 I I -0.70710678118654746 0.70710678118654768 1.25 forward I I I I #
loop $-1 $-1 $208 $55 #
coedge $-1 $131 $131 $209 $210 reversed $82 $-1 #
face $-1 $211 $212 $44 $-1 $213 reversed single #
loop $-1 $-1 $214 $84 #
plane-surface $-1 52.925722876100565 -37.03482211108043 0.33342712903944971 0 -0.50000000669873634 0.8660253999169214 1 0 0 forward_v I I I I #
coedge $-1 $215 $216 $217 $218 reversed $85 $-1 #
face $-1 $-1 $219 $45 $-1 $220 forward single #
loop $-1 $221 $222 $87 #
cone-surface $-1 45.180780285619278 -23.253291875261809 0.29822099570973393 0 0.50000000669873634 -0.8660253999169214 1.25 0 0 1 I I -0.70710678118654757 0.70710678118654735 1.25 forward I I I I #
loop $-1 $-1 $223 $57 #
coedge $-1 $140 $140 $224 $225 reversed $88 $-1 #
face $-1 $-1 $226 $46 $-1 $227 forward single #
loop $-1 $228 $229 $90 #
cone-surface $-1 52.925722876100593 -23.253291875261809 0.29822099570973393 0 0.50000000669873634 -0.8660253999169214 1.25 0 0 1 I I -0.70710678118654757 0.70710678118654735 1.25 forward I I I I #
loop $-1 $-1 $230 $58 #
coedge $-1 $145 $145 $231 $232 reversed $91 $-1 #
face $-1 $-1 $233 $47 $-1 $234 forward single #
loop $-1 $235 $236 $93 #
cone-surface $-1 60.670665466581909 -23.253291875261809 0.29822099570973393 0 0.50000000669873634 -0.8660253999169214 1.25 0 0 1 I I -0.70710678118654757 0.70710678118654735 1.25 forward I I I I #
loop $-1 $-1 $237 $59 #
coedge $-1 $150 $150 $238 $239 reversed $94 $-1 #
face $-1 $240 $241 $36 $-1 $242 reversed single #
loop $-1 $-1 $243 $96 #
plane-surface $-1 0 -37.034822111080445 0 0 1 0 0 0 1 forward_v I I I I #
coedge $-1 $244 $245 $246 $247 forward $97 $-1 #
coedge $-1 $248 $99 $249 $250 forward $61 $-1 #
coedge $-1 $99 $248 $251 $252 forward $61 $-1 #
coedge $-1 $253 $254 $99 $158 reversed $255 $-1 #
edge $-1 $256 -37.034822111080445 $257 37.034822111080445 $157 $258 forward 7 unknown #
face $-1 $259 $260 $37 $-1 $261 reversed single #
loop $-1 $-1 $262 $100 #
plane-surface $-1 -88.894764893455772 -35.534822111080445 0 1 0 0 0 0 -1 forward_v I I I I #
coedge $-1 $263 $264 $163 $265 forward $101 $-1 #
coedge $-1 $266 $103 $162 $265 reversed $64 $-1 #
coedge $-1 $103 $266 $267 $268 reversed $64 $-1 #
coedge $-1 $269 $270 $103 $166 reversed $260 $-1 #
edge $-1 $271 -12.250979455745815 $272 12.250979455745815 $165 $273 forward 7 unknown #
face $-1 $274 $275 $38 $-1 $276 forward single #
loop $-1 $-1 $277 $104 #
plane-surface $-1 -50.758319149673419 82.904799015871973 170.7457251876649 -1 0 0 0 0.64278761758704617 0.76604443648966558 forward_v I I I I #
coedge $-1 $278 $279 $280 $281 reversed $105 $-1 #
coedge $-1 $172 $107 $282 $283 reversed $67 $-1 #
coedge $-1 $107 $171 $278 $284 reversed $67 $-1 #
coedge $-1 $280 $285 $107 $174 forward $275 $-1 #
edge $-1 $286 4.4175773968555418 $287 18.006990591985378 $173 $288 forward 7 unknown #
loop $-1 $-1 $180 $108 #
plane-surface $-1 -60.748666071252849 -19.705816758074818 48.459157762046942 0 0.64278761758704617 0.76604443648966558 1 0 0 forward_v I I I I #
loop $-1 $-1 $289 $69 #
coedge $-1 $178 $178 $179 $290 reversed $109 $-1 #
coedge $-1 $179 $179 $178 $290 forward $111 $-1 #
coedge $-1 $180 $180 $112 $181 forward $175 $-1 #
edge $-1 $291 -3.3477515925290758e-016 $291 6.2831853071796004 $180 $292 forward 7 unknown #
loop $-1 $-1 $187 $113 #
plane-surface $-1 -60.748666071252849 -19.705816758074818 48.459157762046942 0 0.64278761758704617 0.76604443648966558 1 0 0 forward_v I I I I #
loop $-1 $-1 $293 $72 #
coedge $-1 $185 $185 $186 $294 reversed $114 $-1 #
coedge $-1 $186 $186 $185 $294 forward $116 $-1 #
coedge $-1 $187 $187 $117 $188 forward $182 $-1 #
edge $-1 $295 -3.3477515925290758e-016 $295 6.2831853071796004 $187 $296 forward 7 unknown #
face $-1 $297 $298 $41 $-1 $299 forward single #
loop $-1 $-1 $300 $118 #
plane-surface $-1 24.519631818314735 82.904799015871973 170.7457251876649 -1 0 0 0 0.64278761758704617 0.76604443648966558 forward_v I I I I #
coedge $-1 $301 $302 $303 $304 reversed $119 $-1 #
coedge $-1 $194 $121 $305 $306 reversed $76 $-1 #
coedge $-1 $121 $193 $301 $307 reversed $76 $-1 #
coedge $-1 $303 $308 $121 $196 forward $298 $-1 #
edge $-1 $309 4.4175773968555418 $310 18.006990591985378 $195 $311 forward 7 unknown #
loop $-1 $-1 $202 $122 #
plane-surface $-1 14.529284896735305 -19.705816758074818 48.459157762046942 0 0.64278761758704617 0.76604443648966558 1 0 0 forward_v I I I I #
loop $-1 $-1 $312 $78 #
coedge $-1 $200 $200 $201 $313 reversed $123 $-1 #
coedge $-1 $201 $201 $200 $313 forward $125 $-1 #
coedge $-1 $202 $202 $126 $203 forward $197 $-1 #
edge $-1 $314 -3.3477515925290758e-016 $314 6.2831853071796004 $202 $315 forward 7 unknown #
loop $-1 $-1 $209 $127 #
plane-surface $-1 14.529284896735305 -19.705816758074818 48.459157762046942 0 0.64278761758704617 0.76604443648966558 1 0 0 forward_v I I I I #
loop $-1 $-1 $316 $81 #
coedge $-1 $207 $207 $208 $317 reversed $128 $-1 #
coedge $-1 $208 $208 $207 $317 forward $130 $-1 #
coedge $-1 $209 $209 $131 $210 forward $204 $-1 #
edge $-1 $318 -3.3477515925290758e-016 $318 6.2831853071796004 $209 $319 forward 7 unknown #
face $-1 $320 $321 $44 $-1 $322 forward single #
loop $-1 $-1 $323 $132 #
plane-surface $-1 40.017485225298387 -116.85171212356904 138.58033346326107 1 0 0 0 0.50000000669873634 -0.8660253999169214 forward_v I I I I #
coedge $-1 $324 $325 $326 $327 reversed $133 $-1 #
coedge $-1 $216 $135 $328 $329 reversed $85 $-1 #
coedge $-1 $135 $215 $324 $330 reversed $85 $-1 #
coedge $-1 $326 $331 $135 $218 forward $321 $-1 #
edge $-1 $332 21.391033950704077 $333 42.032839713689498 $217 $334 forward 7 unknown #
loop $-1 $-1 $224 $136 #
plane-surface $-1 52.925722876100565 -37.03482211108043 0.33342712903944971 0 -0.50000000669873634 0.8660253999169214 1 0 0 forward_v I I I I #
loop $-1 $-1 $335 $87 #
coedge $-1 $222 $222 $223 $336 reversed $137 $-1 #
coedge $-1 $223 $223 $222 $336 forward $139 $-1 #
coedge $-1 $224 $224 $140 $225 forward $219 $-1 #
edge $-1 $337 -1.5604601055294936e-015 $337 6.2831853071795987 $224 $338 forward 7 unknown #
loop $-1 $-1 $231 $141 #
plane-surface $-1 52.925722876100565 -37.03482211108043 0.33342712903944971 0 -0.50000000669873634 0.8660253999169214 1 0 0 forward_v I I I I #
loop $-1 $-1 $339 $90 #
coedge $-1 $229 $229 $230 $340 reversed $142 $-1 #
coedge $-1 $230 $230 $229 $340 forward $144 $-1 #
coedge $-1 $231 $231 $145 $232 forward $226 $-1 #
edge $-1 $341 -1.5604601055294936e-015 $341 6.2831853071795987 $231 $342 forward 7 unknown #
loop $-1 $-1 $238 $146 #
plane-surface $-1 52.925722876100565 -37.03482211108043 0.33342712903944971 0 -0.50000000669873634 0.8660253999169214 1 0 0 forward_v I I I I #
loop $-1 $-1 $343 $93 #
coedge $-1 $236 $236 $237 $344 reversed $147 $-1 #
coedge $-1 $237 $237 $236 $344 forward $149 $-1 #
coedge $-1 $238 $238 $150 $239 forward $233 $-1 #
edge $-1 $345 -1.5604601055294936e-015 $345 6.2831853071795987 $238 $346 forward 7 unknown #
face $-1 $347 $348 $36 $-1 $349 reversed single #
loop $-1 $-1 $350 $151 #
plane-surface $-1 -79.816888943144022 0 0 1 0 0 0 0 -1 forward_v I I I I #
coedge $-1 $351 $251 $352 $353 forward $152 $-1 #
coedge $-1 $354 $154 $351 $355 forward $97 $-1 #
coedge $-1 $154 $354 $356 $357 forward $97 $-1 #
coedge $-1 $254 $253 $154 $247 reversed $255 $-1 #
edge $-1 $358 -37.034822111080445 $359 37.034822111080445 $246 $360 forward 7 unknown #
coedge $-1 $156 $155 $350 $361 forward $61 $-1 #
coedge $-1 $362 $363 $155 $250 reversed $348 $-1 #
edge $-1 $257 -79.816888943144022 $364 79.816888943144022 $249 $365 forward 7 unknown #
coedge $-1 $243 $366 $156 $252 reversed $152 $-1 #
edge $-1 $367 -79.816888943144022 $256 79.816888943144022 $251 $368 forward 7 unknown #
coedge $-1 $246 $157 $366 $369 forward $255 $-1 #
coedge $-1 $157 $246 $362 $370 reversed $255 $-1 #
loop $-1 $-1 $253 $347 #
vertex $-1 $158 $371 #
vertex $-1 $158 $372 #
straight-curve $-1 79.816888943144022 0 12.250979455745815 0 1 0 I I #
face $-1 $373 $374 $37 $-1 $375 reversed single #
loop $-1 $-1 $165 $159 #
plane-surface $-1 -84.355826918299897 -34.034822111080445 0 0 -1 0 0 0 -1 forward_v I I I I #
coedge $-1 $376 $377 $378 $379 forward $160 $-1 #
coedge $-1 $380 $162 $270 $381 forward $101 $-1 #
coedge $-1 $162 $380 $382 $383 forward $101 $-1 #
edge $-1 $384 -37.034822111080445 $272 -34.034822111080445 $162 $385 forward 7 unknown #
coedge $-1 $164 $163 $386 $387 reversed $64 $-1 #
coedge $-1 $388 $389 $164 $268 forward $374 $-1 #
edge $-1 $271 34.034822111080445 $390 37.034822111080445 $267 $391 forward 7 unknown #
coedge $-1 $378 $165 $389 $392 reversed $260 $-1 #
coedge $-1 $165 $378 $263 $381 reversed $260 $-1 #
vertex $-1 $268 $393 #
vertex $-1 $381 $394 #
straight-curve $-1 -79.816888943144022 -34.034822111080445 0 0 0 1 I I #
face $-1 $-1 $395 $38 $-1 $396 reversed single #
loop $-1 $-1 $173 $167 #
plane-surface $-1 0 0 12.250979455745815 0 0 1 1 0 0 forward_v I I I I #
coedge $-1 $397 $398 $399 $400 reversed $168 $-1 #
coedge $-1 $401 $170 $172 $284 forward $105 $-1 #
coedge $-1 $170 $401 $397 $402 forward $105 $-1 #
coedge $-1 $399 $173 $170 $281 forward $275 $-1 #
edge $-1 $287 -40.364679957205865 $403 -20.383986114046994 $280 $404 forward 7 unknown #
coedge $-1 $405 $406 $171 $283 forward $395 $-1 #
edge $-1 $407 -84.524754976868437 $286 -73.121883138086631 $282 $408 forward 7 unknown #
edge $-1 $287 56.32992502597147 $407 74.069644222160903 $172 $409 forward 7 unknown #
coedge $-1 $173 $399 $405 $410 forward $275 $-1 #
vertex $-1 $283 $411 #
vertex $-1 $174 $412 #
straight-curve $-1 -70.739012992832286 41.452399507935986 12.250979455745821 0 -1 0 I I #
coedge $-1 $289 $289 $-1 $413 reversed $177 $-1 #
edge $-1 $414 0 $414 6.2831853071796004 $178 $415 forward 7 unknown #
vertex $-1 $181 $416 #
ellipse-curve $-1 -65.03024332335832 30.240115513515526 6.5495435363549142 0 0.64278761758704617 0.76604443648966558 2.5 0 0 1 I I #
coedge $-1 $293 $293 $-1 $417 reversed $184 $-1 #
edge $-1 $418 0 $418 6.2831853071796004 $185 $419 forward 7 unknown #
vertex $-1 $188 $420 #
ellipse-curve $-1 -56.467088819147378 30.240115513515526 6.5495435363549142 0 0.64278761758704617 0.76604443648966558 2.5 0 0 1 I I #
face $-1 $-1 $421 $41 $-1 $422 reversed single #
loop $-1 $-1 $195 $189 #
plane-surface $-1 0 0 12.250979455745815 0 0 1 1 0 0 forward_v I I I I #
coedge $-1 $423 $424 $425 $426 reversed $190 $-1 #
coedge $-1 $427 $192 $194 $307 forward $119 $-1 #
coedge $-1 $192 $427 $423 $428 forward $119 $-1 #
coedge $-1 $425 $195 $192 $304 forward $298 $-1 #
edge $-1 $310 -2.7257044732117794 $429 17.254989369947083 $303 $430 forward 7 unknown #
coedge $-1 $431 $432 $193 $306 forward $421 $-1 #
edge $-1 $433 -84.524754976868437 $309 -73.121883138086631 $305 $434 forward 7 unknown #
edge $-1 $310 56.32992502597147 $433 74.069644222160903 $194 $435 forward 7 unknown #
coedge $-1 $195 $425 $431 $436 forward $298 $-1 #
vertex $-1 $196 $437 #
vertex $-1 $196 $438 #
straight-curve $-1 4.5389379751558732 41.452399507935986 12.250979455745821 0 -1 0 I I #
coedge $-1 $312 $312 $-1 $439 reversed $199 $-1 #
edge $-1 $440 0 $440 6.2831853071796004 $200 $441 forward 7 unknown #
vertex $-1 $203 $442 #
ellipse-curve $-1 10.247707644629827 30.240115513515526 6.5495435363549142 0 0.64278761758704617 0.76604443648966558 2.5 0 0 1 I I #
coedge $-1 $316 $316 $-1 $443 reversed $206 $-1 #
edge $-1 $444 0 $444 6.2831853071796004 $207 $445 forward 7 unknown #
vertex $-1 $210 $446 #
ellipse-curve $-1 18.810862148840769 30.240115513515526 6.5495435363549142 0 0.64278761758704617 0.76604443648966558 2.5 0 0 1 I I #
face $-1 $-1 $447 $44 $-1 $448 reversed single #
loop $-1 $-1 $217 $211 #
plane-surface $-1 0 0 12.250979455745815 0 0 1 1 0 0 forward_v I I I I #
coedge $-1 $449 $450 $451 $452 reversed $212 $-1 #
coedge $-1 $453 $214 $216 $330 forward $133 $-1 #
coedge $-1 $214 $453 $449 $454 forward $133 $-1 #
coedge $-1 $451 $217 $214 $327 forward $321 $-1 #
edge $-1 $333 -39.371099088852461 $455 -13.554623787248104 $326 $456 forward 7 unknown #
coedge $-1 $457 $458 $215 $329 forward $447 $-1 #
edge $-1 $459 -68.956739602591099 $332 -57.039187275884721 $328 $460 forward 7 unknown #
edge $-1 $333 -23.835104334082573 $459 1.641478638404164e-014 $216 $461 forward 7 unknown #
coedge $-1 $217 $451 $457 $462 forward $321 $-1 #
vertex $-1 $218 $463 #
vertex $-1 $218 $464 #
straight-curve $-1 65.833960526902743 -58.425856061784522 12.250979455745814 0 1 0 I I #
coedge $-1 $335 $335 $-1 $465 reversed $221 $-1 #
edge $-1 $466 0 $466 6.2831853071796004 $222 $467 forward 7 unknown #
vertex $-1 $225 $468 #
ellipse-curve $-1 45.180780285619278 -26.713919229587738 6.2922032923926263 0 -0.50000000669873634 0.8660253999169214 2.5 0 0 1 I I #
coedge $-1 $339 $339 $-1 $469 reversed $228 $-1 #
edge $-1 $470 0 $470 6.2831853071796004 $229 $471 forward 7 unknown #
vertex $-1 $232 $472 #
ellipse-curve $-1 52.925722876100593 -26.713919229587738 6.2922032923926263 0 -0.50000000669873634 0.8660253999169214 2.5 0 0 1 I I #
coedge $-1 $343 $343 $-1 $473 reversed $235 $-1 #
edge $-1 $474 0 $474 6.2831853071796004 $236 $475 forward 7 unknown #
vertex $-1 $239 $476 #
ellipse-curve $-1 60.670665466581909 -26.713919229587738 6.2922032923926263 0 -0.50000000669873634 0.8660253999169214 2.5 0 0 1 I I #
face $-1 $-1 $255 $36 $-1 $477 reversed single #
loop $-1 $-1 $362 $240 #
plane-surface $-1 0 37.034822111080445 0 0 -1 0 0 0 -1 forward_v I I I I #
coedge $-1 $478 $352 $248 $361 reversed $241 $-1 #
coedge $-1 $366 $243 $244 $355 reversed $152 $-1 #
coedge $-1 $350 $479 $243 $353 reversed $241 $-1 #
edge $-1 $367 -12.250979455745815 $480 12.250979455745815 $352 $481 forward 7 unknown #
coedge $-1 $245 $244 $479 $482 forward $97 $-1 #
edge $-1 $359 -79.816888943144022 $480 79.816888943144022 $351 $483 forward 7 unknown #
coedge $-1 $363 $362 $245 $357 reversed $348 $-1 #
edge $-1 $484 -79.816888943144022 $358 79.816888943144022 $356 $485 forward 7 unknown #
vertex $-1 $247 $486 #
vertex $-1 $369 $487 #
straight-curve $-1 79.816888943144022 0 -12.250979455745815 0 -1 0 I I #
edge $-1 $364 -37.034822111080445 $367 37.034822111080445 $350 $488 forward 7 unknown #
coedge $-1 $356 $249 $254 $370 forward $348 $-1 #
coedge $-1 $249 $356 $478 $489 reversed $348 $-1 #
vertex $-1 $250 $490 #
straight-curve $-1 0 37.034822111080445 12.250979455745815 -1 0 0 I I #
coedge $-1 $251 $351 $253 $369 reversed $152 $-1 #
vertex $-1 $361 $491 #
straight-curve $-1 0 -37.034822111080445 12.250979455745815 1 0 0 I I #
edge $-1 $256 -12.250979455745815 $359 12.250979455745815 $253 $492 forward 7 unknown #
edge $-1 $257 -12.250979455745815 $358 12.250979455745815 $254 $493 forward 7 unknown #
point $-1 79.816888943144022 -37.034822111080445 12.250979455745815 #
point $-1 79.816888943144022 37.034822111080445 12.250979455745815 #
face $-1 $-1 $494 $37 $-1 $495 reversed single #
loop $-1 $-1 $267 $259 #
plane-surface $-1 0 0 -12.250979455745815 0 0 1 1 0 0 forward_v I I I I #
coedge $-1 $496 $262 $497 $498 reversed $160 $-1 #
coedge $-1 $262 $496 $380 $499 reversed $160 $-1 #
coedge $-1 $270 $269 $262 $379 reversed $260 $-1 #
edge $-1 $500 -12.250979455745815 $501 12.250979455745815 $378 $502 forward 7 unknown #
coedge $-1 $264 $263 $377 $499 forward $101 $-1 #
edge $-1 $272 -4.5389379751558749 $500 4.5389379751558749 $270 $503 forward 7 unknown #
coedge $-1 $504 $386 $264 $383 reversed $494 $-1 #
edge $-1 $505 -88.894764893455772 $384 -79.816888943144022 $382 $506 forward 7 unknown #
vertex $-1 $387 $507 #
straight-curve $-1 -79.816888943144022 0 12.250979455745815 0 1 0 I I #
coedge $-1 $382 $508 $266 $387 forward $494 $-1 #
edge $-1 $390 -12.250979455745815 $384 12.250979455745815 $386 $509 forward 7 unknown #
coedge $-1 $497 $267 $508 $510 forward $374 $-1 #
coedge $-1 $267 $497 $269 $392 forward $374 $-1 #
vertex $-1 $510 $511 #
straight-curve $-1 -79.816888943144022 0 -12.250979455745815 0 -1 0 I I #
edge $-1 $501 -4.5389379751558749 $271 4.5389379751558749 $269 $512 forward 7 unknown #
point $-1 -79.816888943144022 -34.034822111080445 -12.250979455745815 #
point $-1 -79.816888943144022 -34.034822111080445 12.250979455745815 #
loop $-1 $-1 $282 $274 #
plane-surface $-1 0 37.034822111080445 0 0 -1 0 0 0 -1 forward_v I I I I #
coedge $-1 $398 $277 $279 $402 reversed $168 $-1 #
coedge $-1 $277 $397 $513 $514 reversed $168 $-1 #
coedge $-1 $285 $280 $277 $400 forward $275 $-1 #
edge $-1 $403 -18.006990591985378 $515 -4.4175773968555418 $399 $516 forward 7 unknown #
coedge $-1 $279 $278 $406 $517 reversed $105 $-1 #
edge $-1 $518 -74.069644222160903 $403 -56.32992502597147 $397 $519 forward 7 unknown #
vertex $-1 $281 $520 #
straight-curve $-1 -30.374333035626425 23.445408915950601 12.250979455745817 1 0 0 I I #
coedge $-1 $513 $282 $285 $410 reversed $395 $-1 #
coedge $-1 $282 $513 $401 $517 forward $395 $-1 #
vertex $-1 $283 $521 #
straight-curve $-1 -70.739012992832286 37.034822111080445 85.372862593832451 0 0 1 I I #
straight-curve $-1 -70.739012992832286 -19.705816758074818 48.459157762046942 0 0.76604443648966558 -0.64278761758704617 I I #
edge $-1 $515 50.758319149673419 $286 70.739012992832286 $405 $522 forward 7 unknown #
point $-1 -70.739012992832286 37.034822111080445 12.250979455745815 #
point $-1 -70.739012992832286 23.445408915950608 12.250979455745814 #
edge $-1 $523 1 $523 0 $289 $-1 forward 7 unknown #
vertex $-1 $290 $524 #
ellipse-curve $-1 -65.03024332335832 25.510672271105154 0.91321267929466599 0 0.64278761758704617 0.76604443648966558 2.5 0 0 1 I I #
point $-1 -62.53024332335832 30.240115513515534 6.5495435363549239 #
edge $-1 $525 1 $525 0 $293 $-1 forward 7 unknown #
vertex $-1 $294 $526 #
ellipse-curve $-1 -56.467088819147378 25.510672271105154 0.91321267929466599 0 0.64278761758704617 0.76604443648966558 2.5 0 0 1 I I #
point $-1 -53.967088819147378 30.240115513515534 6.5495435363549239 #
loop $-1 $-1 $305 $297 #
plane-surface $-1 0 37.034822111080445 0 0 -1 0 0 0 -1 forward_v I I I I #
coedge $-1 $424 $300 $302 $428 reversed $190 $-1 #
coedge $-1 $300 $423 $527 $528 reversed $190 $-1 #
coedge $-1 $308 $303 $300 $426 forward $298 $-1 #
edge $-1 $429 -18.006990591985378 $529 -4.4175773968555418 $425 $530 forward 7 unknown #
coedge $-1 $302 $301 $432 $531 reversed $119 $-1 #
edge $-1 $532 -74.069644222160903 $429 -56.32992502597147 $423 $533 forward 7 unknown #
vertex $-1 $304 $534 #
straight-curve $-1 7.2646424483676526 23.445408915950601 12.250979455745817 1 0 0 I I #
coedge $-1 $527 $305 $308 $436 reversed $421 $-1 #
coedge $-1 $305 $527 $427 $531 forward $421 $-1 #
vertex $-1 $306 $535 #
straight-curve $-1 4.5389379751558732 37.034822111080445 85.372862593832451 0 0 1 I I #
straight-curve $-1 4.5389379751558732 -19.705816758074818 48.459157762046942 0 0.76604443648966558 -0.64278761758704617 I I #
edge $-1 $529 -24.519631818314735 $309 -4.5389379751558732 $431 $536 forward 7 unknown #
point $-1 4.5389379751558732 37.034822111080445 12.250979455745815 #
point $-1 4.5389379751558732 23.445408915950608 12.250979455745814 #
edge $-1 $537 1 $537 0 $312 $-1 forward 7 unknown #
vertex $-1 $313 $538 #
ellipse-curve $-1 10.247707644629827 25.510672271105154 0.91321267929466599 0 0.64278761758704617 0.76604443648966558 2.5 0 0 1 I I #
point $-1 12.747707644629827 30.240115513515534 6.5495435363549239 #
edge $-1 $539 1 $539 0 $316 $-1 forward 7 unknown #
vertex $-1 $317 $540 #
ellipse-curve $-1 18.810862148840769 25.510672271105154 0.91321267929466599 0 0.64278761758704617 0.76604443648966558 2.5 0 0 1 I I #
point $-1 21.310862148840769 30.240115513515534 6.5495435363549239 #
loop $-1 $-1 $328 $320 #
plane-surface $-1 0 -37.034822111080445 0 0 1 0 0 0 1 forward_v I I I I #
coedge $-1 $450 $323 $325 $454 reversed $212 $-1 #
coedge $-1 $323 $449 $541 $542 reversed $212 $-1 #
coedge $-1 $331 $326 $323 $452 forward $321 $-1 #
edge $-1 $455 -42.032839713689498 $543 -21.391033950704077 $451 $544 forward 7 unknown #
coedge $-1 $325 $324 $458 $545 reversed $133 $-1 #
edge $-1 $546 -1.641478638404164e-014 $455 23.835104334082573 $449 $547 forward 7 unknown #
vertex $-1 $327 $548 #
straight-curve $-1 26.462861438050282 -16.393016348095024 12.250979455745815 -1 0 0 I I #
coedge $-1 $541 $328 $331 $462 reversed $447 $-1 #
coedge $-1 $328 $541 $453 $545 forward $447 $-1 #
vertex $-1 $329 $549 #
straight-curve $-1 65.833960526902743 -37.034822111080445 69.290166731630535 0 0 1 I I #
straight-curve $-1 65.833960526902743 -37.03482211108043 0.33342712903944971 0 -0.8660253999169214 -0.50000000669873634 I I #
edge $-1 $543 40.017485225298387 $332 65.833960526902743 $457 $550 forward 7 unknown #
point $-1 65.833960526902743 -37.034822111080445 12.250979455745815 #
point $-1 65.833960526902743 -16.393016348095024 12.250979455745815 #
edge $-1 $551 1 $551 0 $335 $-1 forward 7 unknown #
vertex $-1 $336 $552 #
ellipse-curve $-1 45.180780285619278 -23.878291883635228 1.3807527456058852 0 -0.50000000669873634 0.8660253999169214 2.5 0 0 1 I I #
point $-1 47.680780285619278 -26.713919229587749 6.292203292392637 #
edge $-1 $553 1 $553 0 $339 $-1 forward 7 unknown #
vertex $-1 $340 $554 #
ellipse-curve $-1 52.925722876100593 -23.878291883635228 1.3807527456058852 0 -0.50000000669873634 0.8660253999169214 2.5 0 0 1 I I #
point $-1 55.425722876100593 -26.713919229587749 6.292203292392637 #
edge $-1 $555 1 $555 0 $343 $-1 forward 7 unknown #
vertex $-1 $344 $556 #
ellipse-curve $-1 60.670665466581909 -23.878291883635228 1.3807527456058852 0 -0.50000000669873634 0.8660253999169214 2.5 0 0 1 I I #
point $-1 63.170665466581909 -26.713919229587749 6.292203292392637 #
plane-surface $-1 79.816888943144022 0 0 -1 0 0 0 0 1 forward_v I I I I #
coedge $-1 $479 $350 $363 $489 forward $241 $-1 #
coedge $-1 $352 $478 $354 $482 reversed $241 $-1 #
vertex $-1 $482 $557 #
straight-curve $-1 -79.816888943144022 -37.034822111080445 0 0 0 -1 I I #
edge $-1 $480 -37.034822111080445 $484 37.034822111080445 $479 $558 forward 7 unknown #
straight-curve $-1 0 -37.034822111080445 -12.250979455745815 -1 0 0 I I #
vertex $-1 $357 $559 #
straight-curve $-1 0 37.034822111080445 -12.250979455745815 1 0 0 I I #
point $-1 79.816888943144022 37.034822111080445 -12.250979455745815 #
point $-1 79.816888943144022 -37.034822111080445 -12.250979455745815 #
straight-curve $-1 -79.816888943144022 0 12.250979455745815 0 -1 0 I I #
edge $-1 $364 -12.250979455745815 $484 12.250979455745815 $363 $560 forward 7 unknown #
point $-1 -79.816888943144022 37.034822111080445 12.250979455745815 #
point $-1 -79.816888943144022 -37.034822111080445 12.250979455745815 #
straight-curve $-1 79.816888943144022 -37.034822111080445 0 0 0 -1 I I #
straight-curve $-1 79.816888943144022 37.034822111080445 0 0 0 -1 I I #
loop $-1 $-1 $386 $373 #
plane-surface $-1 0 -37.034822111080445 0 0 1 0 0 0 1 forward_v I I I I #
coedge $-1 $377 $376 $504 $561 reversed $160 $-1 #
coedge $-1 $389 $388 $376 $498 forward $374 $-1 #
edge $-1 $562 -1.5 $501 1.5 $376 $563 forward 7 unknown #
edge $-1 $500 -1.5 $505 1.5 $377 $564 forward 7 unknown #
vertex $-1 $381 $565 #
vertex $-1 $392 $566 #
straight-curve $-1 -88.894764893455772 -34.034822111080445 0 0 0 -1 I I #
straight-curve $-1 -84.355826918299897 -34.034822111080445 12.250979455745815 -1 0 0 I I #
coedge $-1 $508 $382 $496 $561 forward $494 $-1 #
vertex $-1 $499 $567 #
straight-curve $-1 0 -37.034822111080445 12.250979455745815 1 0 0 I I #
point $-1 -79.816888943144022 -37.034822111080445 12.250979455745815 #
coedge $-1 $386 $504 $388 $510 reversed $494 $-1 #
straight-curve $-1 -79.816888943144022 -37.034822111080445 0 0 0 1 I I #
edge $-1 $390 -4.5389379751558749 $562 4.5389379751558749 $508 $568 forward 7 unknown #
point $-1 -79.816888943144022 -37.034822111080445 -12.250979455745815 #
straight-curve $-1 -84.355826918299897 -34.034822111080445 -12.250979455745815 1 0 0 I I #
coedge $-1 $406 $405 $398 $514 forward $395 $-1 #
edge $-1 $515 73.121883138086631 $518 84.524754976868437 $513 $569 forward 7 unknown #
vertex $-1 $410 $570 #
straight-curve $-1 -50.758319149673419 41.452399507935986 12.250979455745821 0 1 0 I I #
edge $-1 $518 20.383986114046994 $407 40.364679957205865 $406 $571 forward 7 unknown #
vertex $-1 $517 $572 #
straight-curve $-1 -50.758319149673419 -19.705816758074818 48.459157762046942 0 -0.76604443648966558 0.64278761758704617 I I #
point $-1 -50.758319149673419 23.445408915950608 12.250979455745814 #
point $-1 -70.739012992832286 37.034822111080445 0.84810761696401471 #
straight-curve $-1 0 37.034822111080445 12.250979455745815 -1 0 0 I I #
vertex $-1 $413 $573 #
point $-1 -62.53024332335832 25.510672271105154 0.91321267929466599 #
vertex $-1 $417 $574 #
point $-1 -53.967088819147378 25.510672271105154 0.91321267929466599 #
coedge $-1 $432 $431 $424 $528 forward $421 $-1 #
edge $-1 $529 73.121883138086631 $532 84.524754976868437 $527 $575 forward 7 unknown #
vertex $-1 $436 $576 #
straight-curve $-1 24.519631818314735 41.452399507935986 12.250979455745821 0 1 0 I I #
edge $-1 $532 -17.254989369947083 $433 2.7257044732117794 $432 $577 forward 7 unknown #
vertex $-1 $531 $578 #
straight-curve $-1 24.519631818314735 -19.705816758074818 48.459157762046942 0 -0.76604443648966558 0.64278761758704617 I I #
point $-1 24.519631818314735 23.445408915950608 12.250979455745814 #
point $-1 4.5389379751558732 37.034822111080445 0.84810761696401471 #
straight-curve $-1 0 37.034822111080445 12.250979455745815 -1 0 0 I I #
vertex $-1 $439 $579 #
point $-1 12.747707644629827 25.510672271105154 0.91321267929466599 #
vertex $-1 $443 $580 #
point $-1 21.310862148840769 25.510672271105154 0.91321267929466599 #
coedge $-1 $458 $457 $450 $542 forward $447 $-1 #
edge $-1 $543 57.039187275884721 $546 68.956739602591099 $541 $581 forward 7 unknown #
vertex $-1 $462 $582 #
straight-curve $-1 40.017485225298387 -58.425856061784522 12.250979455745814 0 -1 0 I I #
edge $-1 $546 13.554623787248104 $459 39.371099088852461 $458 $583 forward 7 unknown #
vertex $-1 $545 $584 #
straight-curve $-1 40.017485225298387 -37.03482211108043 0.33342712903944971 0 0.8660253999169214 0.50000000669873634 I I #
point $-1 40.017485225298387 -16.393016348095024 12.250979455745815 #
point $-1 65.833960526902743 -37.034822111080445 0.33342712903944149 #
straight-curve $-1 0 -37.034822111080445 12.250979455745815 1 0 0 I I #
vertex $-1 $465 $585 #
point $-1 47.680780285619278 -23.878291883635228 1.3807527456058852 #
vertex $-1 $469 $586 #
point $-1 55.425722876100593 -23.878291883635228 1.3807527456058852 #
vertex $-1 $473 $587 #
point $-1 63.170665466581909 -23.878291883635228 1.3807527456058852 #
point $-1 -79.816888943144022 -37.034822111080445 -12.250979455745815 #
straight-curve $-1 -79.816888943144022 0 -12.250979455745815 0 1 0 I I #
point $-1 -79.816888943144022 37.034822111080445 -12.250979455745815 #
straight-curve $-1 -79.816888943144022 37.034822111080445 0 0 0 -1 I I #
edge $-1 $505 -12.250979455745815 $562 12.250979455745815 $496 $588 forward 7 unknown #
vertex $-1 $498 $589 #
straight-curve $-1 -88.894764893455772 -35.534822111080445 -12.250979455745815 0 1 0 I I #
straight-curve $-1 -88.894764893455772 -35.534822111080445 12.250979455745815 0 -1 0 I I #
point $-1 -88.894764893455772 -34.034822111080445 12.250979455745815 #
point $-1 -88.894764893455772 -34.034822111080445 -12.250979455745815 #
point $-1 -88.894764893455772 -37.034822111080445 12.250979455745815 #
straight-curve $-1 -84.355826918299897 -37.034822111080445 -12.250979455745815 -1 0 0 I I #
straight-curve $-1 -50.758319149673419 37.034822111080445 85.372862593832451 0 0 -1 I I #
point $-1 -50.758319149673419 37.034822111080445 12.250979455745815 #
straight-curve $-1 -30.374333035626425 37.034822111080437 0.84810761696402182 -1 0 0 I I #
point $-1 -50.758319149673419 37.034822111080445 0.84810761696401471 #
point $-1 -65.03024332335832 23.903703227137537 -1.0018984119294987 #
point $-1 -56.467088819147378 23.903703227137537 -1.0018984119294987 #
straight-curve $-1 24.519631818314735 37.034822111080445 85.372862593832451 0 0 -1 I I #
point $-1 24.519631818314735 37.034822111080445 12.250979455745815 #
straight-curve $-1 7.2646424483676526 37.034822111080437 0.84810761696402182 -1 0 0 I I #
point $-1 24.519631818314735 37.034822111080445 0.84810761696401471 #
point $-1 10.247707644629827 23.903703227137537 -1.0018984119294987 #
point $-1 18.810862148840769 23.903703227137537 -1.0018984119294987 #
straight-curve $-1 40.017485225298387 -37.034822111080445 69.290166731630535 0 0 -1 I I #
point $-1 40.017485225298387 -37.034822111080445 12.250979455745815 #
straight-curve $-1 26.462861438050282 -37.034822111080445 0.33342712903943955 1 0 0 I I #
point $-1 40.017485225298387 -37.034822111080445 0.33342712903944149 #
point $-1 45.180780285619278 -22.628291866888389 -0.78431075418641738 #
point $-1 52.925722876100593 -22.628291866888389 -0.78431075418641738 #
point $-1 60.670665466581909 -22.628291866888389 -0.78431075418641738 #
straight-curve $-1 -88.894764893455772 -37.034822111080445 0 0 0 -1 I I #
point $-1 -88.894764893455772 -37.034822111080445 -12.250979455745815 #
End-of-ACIS-data 