500 0 6 0           
7 Unknown 11 ACIS 5.0 NT 24 Fri Mar 26 03:17:26 1999 
-1 9.9999999999999995e-007 1e-010 
body $-1 $6 $-1 $7 #
body $-1 $8 $-1 $9 #
body $-1 $10 $-1 $11 #
body $-1 $12 $-1 $13 #
body $-1 $14 $-1 $15 #
body $-1 $16 $-1 $17 #
lump $-1 $-1 $18 $0 #
transform $-1 1 0 0 0 1 0 0 0 1 58.106021301919611 30.644023630850615 11.11272546146872 1 rotate no_reflect no_shear #
lump $-1 $-1 $19 $1 #
transform $-1 1 0 0 0 1 0 0 0 1 58.106021301919611 30.644023630850615 11.11272546146872 1 rotate no_reflect no_shear #
lump $-1 $-1 $20 $2 #
transform $-1 1 0 0 0 1 0 0 0 1 58.106021301919611 30.644023630850615 11.11272546146872 1 rotate no_reflect no_shear #
lump $-1 $-1 $21 $3 #
transform $-1 1 0 0 0 1 0 0 0 1 58.106021301919611 30.644023630850615 11.11272546146872 1 rotate no_reflect no_shear #
lump $-1 $-1 $22 $4 #
transform $-1 1 0 0 0 1 0 0 0 1 58.106021301919611 30.644023630850615 11.11272546146872 1 rotate no_reflect no_shear #
lump $-1 $-1 $23 $5 #
transform $-1 1 0 0 0 1 0 0 0 1 58.106021301919611 30.644023630850615 11.11272546146872 1 rotate no_reflect no_shear #
shell $-1 $-1 $-1 $24 $-1 $6 #
shell $-1 $-1 $-1 $25 $-1 $8 #
shell $-1 $-1 $-1 $26 $-1 $10 #
shell $-1 $-1 $-1 $27 $-1 $12 #
shell $-1 $-1 $-1 $28 $-1 $14 #
shell $-1 $-1 $-1 $29 $-1 $16 #
face $-1 $30 $31 $18 $-1 $32 forward single #
face $-1 $33 $34 $19 $-1 $35 forward single #
face $-1 $36 $37 $20 $-1 $38 reversed single #
face $-1 $39 $40 $21 $-1 $41 forward single #
face $-1 $42 $43 $22 $-1 $44 forward single #
face $-1 $45 $46 $23 $-1 $47 forward single #
face $-1 $48 $49 $18 $-1 $50 reversed single #
loop $-1 $-1 $51 $24 #
plane-surface $-1 0 0 11.11272546146872 0 0 1 1 0 0 forward_v I I I I #
face $-1 $52 $53 $19 $-1 $54 reversed single #
loop $-1 $-1 $55 $25 #
plane-surface $-1 0 -30.644023630850615 0 0 1 0 0 0 1 forward_v I I I I #
face $-1 $56 $57 $20 $-1 $58 reversed single #
loop $-1 $-1 $59 $26 #
plane-surface $-1 -24.355252412891701 42.53715807978061 133.08638489892624 1 0 0 0 -0.54463904215088732 -0.83867056331134215 forward_v I I I I #
face $-1 $60 $61 $21 $-1 $62 forward single #
loop $-1 $63 $64 $27 #
cone-surface $-1 -18.378420281880565 21.351645752793907 2.8847984796891755 0 -0.54463904215088732 -0.83867056331134215 2.5 0 0 1 I I 0 1 2.5 forward I I I I #
face $-1 $65 $66 $22 $-1 $67 forward single #
loop $-1 $68 $69 $28 #
cone-surface $-1 -9.4131720853638612 21.351645752793907 2.8847984796891755 0 -0.54463904215088732 -0.83867056331134215 2.5 0 0 1 I I 0 1 2.5 forward I I I I #
face $-1 $70 $71 $23 $-1 $72 forward single #
loop $-1 $73 $74 $29 #
cone-surface $-1 -0.44792388884715706 21.351645752793907 2.8847984796891755 0 -0.54463904215088732 -0.83867056331134215 2.5 0 0 1 I I 0 1 2.5 forward I I I I #
face $-1 $75 $76 $18 $-1 $77 reversed single #
loop $-1 $-1 $78 $30 #
plane-surface $-1 0 0 -11.11272546146872 0 0 1 1 0 0 forward_v I I I I #
coedge $-1 $79 $80 $81 $82 forward $31 $-1 #
face $-1 $83 $84 $19 $-1 $85 reversed single #
loop $-1 $-1 $86 $33 #
plane-surface $-1 0 0 -11.11272546146872 0 0 1 1 0 0 forward_v I I I I #
coedge $-1 $87 $88 $89 $90 forward $34 $-1 #
face $-1 $91 $92 $20 $-1 $93 reversed single #
loop $-1 $-1 $94 $36 #
plane-surface $-1 -9.4131720853638612 -20.75645749037249 35.622765664802699 0 0.54463904215088732 0.83867056331134215 1 0 0 forward_v I I I I #
coedge $-1 $95 $96 $97 $98 reversed $37 $-1 #
face $-1 $-1 $99 $21 $-1 $100 forward single #
loop $-1 $101 $102 $39 #
cone-surface $-1 -18.378420281880565 18.207633898780852 -1.9565551299408988 0 -0.54463904215088732 -0.83867056331134215 1.25 0 0 1 I I -0.70710678118654746 0.70710678118654746 1.25 forward I I I I #
loop $-1 $-1 $103 $27 #
coedge $-1 $64 $64 $104 $105 reversed $40 $-1 #
face $-1 $-1 $106 $22 $-1 $107 forward single #
loop $-1 $108 $109 $42 #
cone-surface $-1 -9.4131720853638612 18.207633898780852 -1.9565551299408988 0 -0.54463904215088732 -0.83867056331134215 1.25 0 0 1 I I -0.70710678118654746 0.70710678118654746 1.25 forward I I I I #
loop $-1 $-1 $110 $28 #
coedge $-1 $69 $69 $111 $112 reversed $43 $-1 #
face $-1 $-1 $113 $23 $-1 $114 forward single #
loop $-1 $115 $116 $45 #
cone-surface $-1 -0.44792388884715706 18.207633898780852 -1.9565551299408988 0 -0.54463904215088732 -0.83867056331134215 1.25 0 0 1 I I -0.70710678118654746 0.70710678118654746 1.25 forward I I I I #
loop $-1 $-1 $117 $29 #
coedge $-1 $74 $74 $118 $119 reversed $46 $-1 #
face $-1 $120 $121 $18 $-1 $122 reversed single #
loop $-1 $-1 $123 $48 #
plane-surface $-1 0 -30.644023630850615 0 0 1 0 0 0 1 forward_v I I I I #
coedge $-1 $124 $125 $126 $127 forward $49 $-1 #
coedge $-1 $128 $51 $129 $130 forward $31 $-1 #
coedge $-1 $51 $128 $131 $132 forward $31 $-1 #
coedge $-1 $133 $134 $51 $82 reversed $135 $-1 #
edge $-1 $136 -30.644023630850615 $137 30.644023630850615 $81 $138 forward 7 unknown #
face $-1 $139 $140 $19 $-1 $141 reversed single #
loop $-1 $-1 $142 $52 #
plane-surface $-1 -38.359384066605209 -40.159246055309474 0 0 1 0 0 0 1 forward_v I I I I #
coedge $-1 $143 $144 $88 $145 forward $53 $-1 #
coedge $-1 $146 $55 $147 $148 reversed $34 $-1 #
coedge $-1 $55 $146 $86 $145 reversed $34 $-1 #
coedge $-1 $149 $150 $55 $90 reversed $140 $-1 #
edge $-1 $151 -11.11272546146872 $152 11.11272546146872 $89 $153 forward 7 unknown #
face $-1 $154 $155 $20 $-1 $156 forward single #
loop $-1 $-1 $157 $56 #
plane-surface $-1 5.528908242163979 42.53715807978061 133.08638489892624 -1 0 0 0 0.54463904215088732 0.83867056331134215 forward_v I I I I #
coedge $-1 $158 $159 $160 $161 reversed $57 $-1 #
coedge $-1 $96 $59 $162 $163 reversed $37 $-1 #
coedge $-1 $59 $95 $158 $164 reversed $37 $-1 #
coedge $-1 $160 $165 $59 $98 forward $155 $-1 #
edge $-1 $166 -9.3754445909603099 $167 4.2828850625041923 $97 $168 forward 7 unknown #
loop $-1 $-1 $104 $60 #
plane-surface $-1 -9.4131720853638612 -20.75645749037249 35.622765664802699 0 0.54463904215088732 0.83867056331134215 1 0 0 forward_v I I I I #
loop $-1 $-1 $169 $39 #
coedge $-1 $102 $102 $103 $170 reversed $61 $-1 #
coedge $-1 $103 $103 $102 $170 forward $63 $-1 #
coedge $-1 $104 $104 $64 $105 forward $99 $-1 #
edge $-1 $171 -4.7955313864701648e-016 $171 6.2831853071795996 $104 $172 forward 7 unknown #
loop $-1 $-1 $111 $65 #
plane-surface $-1 -9.4131720853638612 -20.75645749037249 35.622765664802699 0 0.54463904215088732 0.83867056331134215 1 0 0 forward_v I I I I #
loop $-1 $-1 $173 $42 #
coedge $-1 $109 $109 $110 $174 reversed $66 $-1 #
coedge $-1 $110 $110 $109 $174 forward $68 $-1 #
coedge $-1 $111 $111 $69 $112 forward $106 $-1 #
edge $-1 $175 -4.7955313864701648e-016 $175 6.2831853071795996 $111 $176 forward 7 unknown #
loop $-1 $-1 $118 $70 #
plane-surface $-1 -9.4131720853638612 -20.75645749037249 35.622765664802699 0 0.54463904215088732 0.83867056331134215 1 0 0 forward_v I I I I #
loop $-1 $-1 $177 $45 #
coedge $-1 $116 $116 $117 $178 reversed $71 $-1 #
coedge $-1 $117 $117 $116 $178 forward $73 $-1 #
coedge $-1 $118 $118 $74 $119 forward $113 $-1 #
edge $-1 $179 -4.7955313864701648e-016 $179 6.2831853071795996 $118 $180 forward 7 unknown #
face $-1 $181 $182 $18 $-1 $183 reversed single #
loop $-1 $-1 $184 $75 #
plane-surface $-1 -58.106021301919611 0 0 1 0 0 0 0 -1 forward_v I I I I #
coedge $-1 $185 $131 $186 $187 forward $76 $-1 #
coedge $-1 $188 $78 $185 $189 forward $49 $-1 #
coedge $-1 $78 $188 $190 $191 forward $49 $-1 #
coedge $-1 $134 $133 $78 $127 reversed $135 $-1 #
edge $-1 $192 -30.644023630850615 $193 30.644023630850615 $126 $194 forward 7 unknown #
coedge $-1 $80 $79 $195 $196 forward $31 $-1 #
coedge $-1 $197 $198 $79 $130 reversed $182 $-1 #
edge $-1 $137 -58.106021301919611 $199 58.106021301919611 $129 $200 forward 7 unknown #
coedge $-1 $123 $201 $80 $132 reversed $76 $-1 #
edge $-1 $202 -58.106021301919611 $136 58.106021301919611 $131 $203 forward 7 unknown #
coedge $-1 $126 $81 $201 $204 forward $135 $-1 #
coedge $-1 $81 $126 $197 $205 reversed $135 $-1 #
loop $-1 $-1 $133 $181 #
vertex $-1 $82 $206 #
vertex $-1 $82 $207 #
straight-curve $-1 58.106021301919611 0 11.11272546146872 0 1 0 I I #
face $-1 $208 $209 $19 $-1 $210 reversed single #
loop $-1 $-1 $89 $83 #
plane-surface $-1 -40.237935585011577 -35.401634843080046 0 1 0 0 0 0 -1 forward_v I I I I #
coedge $-1 $211 $212 $213 $214 forward $84 $-1 #
coedge $-1 $215 $86 $216 $217 forward $53 $-1 #
coedge $-1 $86 $215 $149 $218 forward $53 $-1 #
edge $-1 $151 -40.237935585011577 $219 -36.48083254819884 $86 $220 forward 7 unknown #
coedge $-1 $88 $87 $221 $222 forward $34 $-1 #
coedge $-1 $223 $224 $87 $148 forward $225 $-1 #
edge $-1 $226 36.48083254819884 $152 40.237935585011577 $147 $227 forward 7 unknown #
coedge $-1 $213 $89 $144 $218 reversed $140 $-1 #
coedge $-1 $89 $213 $223 $228 reversed $140 $-1 #
vertex $-1 $145 $229 #
vertex $-1 $228 $230 #
straight-curve $-1 -40.237935585011577 -30.644023630850615 0 0 0 1 I I #
face $-1 $-1 $231 $20 $-1 $232 reversed single #
loop $-1 $-1 $97 $91 #
plane-surface $-1 0 0 11.11272546146872 0 0 1 1 0 0 forward_v I I I I #
coedge $-1 $233 $234 $235 $236 reversed $92 $-1 #
coedge $-1 $237 $94 $96 $164 forward $57 $-1 #
coedge $-1 $94 $237 $233 $238 forward $57 $-1 #
coedge $-1 $235 $97 $94 $161 forward $155 $-1 #
edge $-1 $167 -19.648666370209771 $239 10.23549428484591 $160 $240 forward 7 unknown #
coedge $-1 $241 $242 $95 $163 forward $231 $-1 #
edge $-1 $243 -64.300290140571676 $166 -55.4304669879944 $162 $244 forward 7 unknown #
edge $-1 $167 45.002356251470665 $243 61.288047261701195 $96 $245 forward 7 unknown #
coedge $-1 $97 $235 $241 $246 forward $155 $-1 #
vertex $-1 $163 $247 #
vertex $-1 $98 $248 #
straight-curve $-1 -24.355252412891701 21.268579039890305 11.11272546146872 0 -1 0 I I #
coedge $-1 $169 $169 $-1 $249 reversed $101 $-1 #
edge $-1 $250 0 $250 6.2831853071796004 $102 $251 forward 7 unknown #
vertex $-1 $105 $252 #
ellipse-curve $-1 -18.378420281880565 23.814858804118359 6.6778138851800861 0 0.54463904215088732 0.83867056331134215 2.5 0 0 1 I I #
coedge $-1 $173 $173 $-1 $253 reversed $108 $-1 #
edge $-1 $254 0 $254 6.2831853071796004 $109 $255 forward 7 unknown #
vertex $-1 $112 $256 #
ellipse-curve $-1 -9.4131720853638612 23.814858804118359 6.6778138851800861 0 0.54463904215088732 0.83867056331134215 2.5 0 0 1 I I #
coedge $-1 $177 $177 $-1 $257 reversed $115 $-1 #
edge $-1 $258 0 $258 6.2831853071796004 $116 $259 forward 7 unknown #
vertex $-1 $119 $260 #
ellipse-curve $-1 -0.44792388884715706 23.814858804118359 6.6778138851800861 0 0.54463904215088732 0.83867056331134215 2.5 0 0 1 I I #
face $-1 $-1 $135 $18 $-1 $261 reversed single #
loop $-1 $-1 $197 $120 #
plane-surface $-1 0 30.644023630850615 0 0 -1 0 0 0 -1 forward_v I I I I #
coedge $-1 $262 $195 $198 $263 forward $121 $-1 #
coedge $-1 $201 $123 $124 $189 reversed $76 $-1 #
coedge $-1 $195 $262 $123 $187 reversed $121 $-1 #
edge $-1 $202 -11.11272546146872 $264 11.11272546146872 $186 $265 forward 7 unknown #
coedge $-1 $125 $124 $262 $266 forward $49 $-1 #
edge $-1 $193 -58.106021301919611 $264 58.106021301919611 $185 $267 forward 7 unknown #
coedge $-1 $198 $197 $125 $191 reversed $182 $-1 #
edge $-1 $268 -58.106021301919611 $192 58.106021301919611 $190 $269 forward 7 unknown #
vertex $-1 $127 $270 #
vertex $-1 $204 $271 #
straight-curve $-1 58.106021301919611 0 -11.11272546146872 0 -1 0 I I #
coedge $-1 $184 $186 $128 $196 reversed $121 $-1 #
edge $-1 $199 -30.644023630850615 $202 30.644023630850615 $195 $272 forward 7 unknown #
coedge $-1 $190 $129 $134 $205 forward $182 $-1 #
coedge $-1 $129 $190 $184 $263 reversed $182 $-1 #
vertex $-1 $130 $273 #
straight-curve $-1 0 30.644023630850615 11.11272546146872 -1 0 0 I I #
coedge $-1 $131 $185 $133 $204 reversed $76 $-1 #
vertex $-1 $196 $274 #
straight-curve $-1 0 -30.644023630850615 11.11272546146872 1 0 0 I I #
edge $-1 $136 -11.11272546146872 $193 11.11272546146872 $133 $275 forward 7 unknown #
edge $-1 $137 -11.11272546146872 $192 11.11272546146872 $134 $276 forward 7 unknown #
point $-1 58.106021301919611 -30.644023630850615 11.11272546146872 #
point $-1 58.106021301919611 30.644023630850615 11.11272546146872 #
face $-1 $-1 $225 $19 $-1 $277 forward single #
loop $-1 $-1 $278 $139 #
plane-surface $-1 -36.48083254819884 -35.401634843080046 0 -1 0 0 0 0 1 forward_v I I I I #
coedge $-1 $279 $142 $215 $280 reversed $84 $-1 #
coedge $-1 $142 $279 $281 $282 reversed $84 $-1 #
coedge $-1 $150 $149 $142 $214 reversed $140 $-1 #
edge $-1 $283 -11.11272546146872 $284 11.11272546146872 $213 $285 forward 7 unknown #
coedge $-1 $144 $143 $211 $280 forward $53 $-1 #
coedge $-1 $221 $278 $143 $217 reversed $209 $-1 #
edge $-1 $219 -4.7576112122294276 $286 4.7576112122294276 $216 $287 forward 7 unknown #
edge $-1 $284 -4.7576112122294276 $151 4.7576112122294276 $149 $288 forward 7 unknown #
vertex $-1 $217 $289 #
straight-curve $-1 0 -30.644023630850615 -11.11272546146872 1 0 0 I I #
coedge $-1 $290 $216 $146 $222 reversed $209 $-1 #
edge $-1 $226 -11.11272546146872 $219 11.11272546146872 $221 $291 forward 7 unknown #
coedge $-1 $281 $147 $150 $228 forward $225 $-1 #
coedge $-1 $147 $281 $290 $292 forward $225 $-1 #
loop $-1 $-1 $147 $208 #
vertex $-1 $148 $293 #
straight-curve $-1 0 -30.644023630850615 11.11272546146872 -1 0 0 I I #
edge $-1 $152 -4.7576112122294276 $283 4.7576112122294276 $150 $294 forward 7 unknown #
point $-1 -40.237935585011577 -30.644023630850619 -11.11272546146872 #
point $-1 -40.237935585011577 -30.644023630850619 11.11272546146872 #
loop $-1 $-1 $162 $154 #
plane-surface $-1 0 30.644023630850615 0 0 -1 0 0 0 -1 forward_v I I I I #
coedge $-1 $234 $157 $159 $238 reversed $92 $-1 #
coedge $-1 $157 $233 $295 $296 reversed $92 $-1 #
coedge $-1 $165 $160 $157 $236 forward $155 $-1 #
edge $-1 $239 -4.2828850625041923 $297 9.3754445909603099 $235 $298 forward 7 unknown #
coedge $-1 $159 $158 $242 $299 reversed $57 $-1 #
edge $-1 $300 -61.288047261701195 $239 -45.002356251470665 $233 $301 forward 7 unknown #
vertex $-1 $161 $302 #
straight-curve $-1 -4.7065860426819306 16.985693977386113 11.11272546146872 1 0 0 I I #
coedge $-1 $295 $162 $165 $246 reversed $231 $-1 #
coedge $-1 $162 $295 $237 $299 forward $231 $-1 #
vertex $-1 $163 $303 #
straight-curve $-1 -24.355252412891701 30.644023630850615 66.54319244946312 0 0 1 I I #
straight-curve $-1 -24.355252412891701 -20.75645749037249 35.622765664802699 0 0.83867056331134215 -0.54463904215088732 I I #
edge $-1 $297 -5.528908242163979 $166 24.355252412891701 $241 $304 forward 7 unknown #
point $-1 -24.355252412891701 30.644023630850615 11.11272546146872 #
point $-1 -24.355252412891701 16.985693977386113 11.11272546146872 #
edge $-1 $305 1 $305 0 $169 $-1 forward 7 unknown #
vertex $-1 $170 $306 #
ellipse-curve $-1 -18.378420281880565 18.888432701469462 -0.90821692580172098 0 0.54463904215088732 0.83867056331134215 2.5 0 0 1 I I #
point $-1 -15.878420281880565 23.814858804118348 6.6778138851800719 #
edge $-1 $307 1 $307 0 $173 $-1 forward 7 unknown #
vertex $-1 $174 $308 #
ellipse-curve $-1 -9.4131720853638612 18.888432701469462 -0.90821692580172098 0 0.54463904215088732 0.83867056331134215 2.5 0 0 1 I I #
point $-1 -6.9131720853638612 23.814858804118348 6.6778138851800719 #
edge $-1 $309 1 $309 0 $177 $-1 forward 7 unknown #
vertex $-1 $178 $310 #
ellipse-curve $-1 -0.44792388884715706 18.888432701469462 -0.90821692580172098 0 0.54463904215088732 0.83867056331134215 2.5 0 0 1 I I #
point $-1 2.0520761111528429 23.814858804118348 6.6778138851800719 #
plane-surface $-1 58.106021301919611 0 0 -1 0 0 0 0 1 forward_v I I I I #
coedge $-1 $186 $184 $188 $266 reversed $121 $-1 #
edge $-1 $199 -11.11272546146872 $268 11.11272546146872 $198 $311 forward 7 unknown #
vertex $-1 $266 $312 #
straight-curve $-1 -58.106021301919611 -30.644023630850615 0 0 0 -1 I I #
edge $-1 $264 -30.644023630850615 $268 30.644023630850615 $262 $313 forward 7 unknown #
straight-curve $-1 0 -30.644023630850615 -11.11272546146872 -1 0 0 I I #
vertex $-1 $191 $314 #
straight-curve $-1 0 30.644023630850615 -11.11272546146872 1 0 0 I I #
point $-1 58.106021301919611 30.644023630850615 -11.11272546146872 #
point $-1 58.106021301919611 -30.644023630850615 -11.11272546146872 #
straight-curve $-1 -58.106021301919611 0 11.11272546146872 0 -1 0 I I #
point $-1 -58.106021301919611 30.644023630850615 11.11272546146872 #
point $-1 -58.106021301919611 -30.644023630850615 11.11272546146872 #
straight-curve $-1 58.106021301919611 -30.644023630850615 0 0 0 -1 I I #
straight-curve $-1 58.106021301919611 30.644023630850615 0 0 0 -1 I I #
plane-surface $-1 0 0 11.11272546146872 0 0 1 1 0 0 forward_v I I I I #
coedge $-1 $216 $290 $279 $315 forward $209 $-1 #
coedge $-1 $212 $211 $278 $315 reversed $84 $-1 #
edge $-1 $286 -1.8785515184063684 $284 1.8785515184063684 $211 $316 forward 7 unknown #
coedge $-1 $224 $223 $212 $282 forward $225 $-1 #
edge $-1 $283 -1.8785515184063684 $317 1.8785515184063684 $212 $318 forward 7 unknown #
vertex $-1 $228 $319 #
vertex $-1 $218 $320 #
straight-curve $-1 -40.237935585011577 -40.159246055309474 0 0 0 -1 I I #
vertex $-1 $315 $321 #
straight-curve $-1 -36.48083254819884 -35.401634843080046 -11.11272546146872 0 -1 0 I I #
straight-curve $-1 -40.237935585011577 -35.401634843080046 -11.11272546146872 0 1 0 I I #
point $-1 -36.48083254819884 -30.644023630850619 -11.11272546146872 #
coedge $-1 $278 $221 $224 $292 reversed $209 $-1 #
straight-curve $-1 -36.48083254819884 -30.644023630850615 0 0 0 -1 I I #
edge $-1 $317 -4.7576112122294276 $226 4.7576112122294276 $290 $322 forward 7 unknown #
point $-1 -36.48083254819884 -30.644023630850619 11.11272546146872 #
straight-curve $-1 -40.237935585011577 -35.401634843080046 11.11272546146872 0 -1 0 I I #
coedge $-1 $242 $241 $234 $296 forward $231 $-1 #
edge $-1 $297 55.4304669879944 $300 64.300290140571676 $295 $323 forward 7 unknown #
vertex $-1 $246 $324 #
straight-curve $-1 5.528908242163979 21.268579039890305 11.11272546146872 0 1 0 I I #
edge $-1 $300 -10.23549428484591 $243 19.648666370209771 $242 $325 forward 7 unknown #
vertex $-1 $299 $326 #
straight-curve $-1 5.528908242163979 -20.75645749037249 35.622765664802699 0 -0.83867056331134215 0.54463904215088732 I I #
point $-1 5.528908242163979 16.985693977386113 11.11272546146872 #
point $-1 -24.355252412891701 30.644023630850619 2.2429023088914448 #
straight-curve $-1 0 30.644023630850615 11.11272546146872 -1 0 0 I I #
vertex $-1 $249 $327 #
point $-1 -15.878420281880565 18.888432701469462 -0.90821692580172098 #
vertex $-1 $253 $328 #
point $-1 -6.9131720853638612 18.888432701469462 -0.90821692580172098 #
vertex $-1 $257 $329 #
point $-1 2.0520761111528429 18.888432701469462 -0.90821692580172098 #
straight-curve $-1 -58.106021301919611 30.644023630850615 0 0 0 -1 I I #
point $-1 -58.106021301919611 -30.644023630850615 -11.11272546146872 #
straight-curve $-1 -58.106021301919611 0 -11.11272546146872 0 1 0 I I #
point $-1 -58.106021301919611 30.644023630850615 -11.11272546146872 #
edge $-1 $317 -11.11272546146872 $286 11.11272546146872 $278 $330 forward 7 unknown #
straight-curve $-1 -38.359384066605209 -40.159246055309474 -11.11272546146872 -1 0 0 I I #
vertex $-1 $292 $331 #
straight-curve $-1 -38.359384066605209 -40.159246055309474 11.11272546146872 1 0 0 I I #
point $-1 -40.237935585011577 -40.159246055309474 11.11272546146872 #
point $-1 -40.237935585011577 -40.159246055309474 -11.11272546146872 #
point $-1 -36.48083254819884 -40.159246055309474 -11.11272546146872 #
straight-curve $-1 -36.48083254819884 -35.401634843080046 11.11272546146872 0 1 0 I I #
straight-curve $-1 5.528908242163979 30.644023630850615 66.54319244946312 0 0 -1 I I #
point $-1 5.528908242163979 30.644023630850615 11.11272546146872 #
straight-curve $-1 -4.7065860426819306 30.644023630850612 2.2429023088914448 -1 0 0 I I #
point $-1 5.528908242163979 30.644023630850619 2.2429023088914448 #
point $-1 -18.378420281880565 17.526835096092242 -3.0048933340800765 #
point $-1 -9.4131720853638612 17.526835096092242 -3.0048933340800765 #
point $-1 -0.44792388884715706 17.526835096092242 -3.0048933340800765 #
straight-curve $-1 -36.48083254819884 -40.159246055309474 0 0 0 -1 I I #
point $-1 -36.48083254819884 -40.159246055309474 11.11272546146872 #
End-of-ACIS-data 