500 0 4 0           
7 Unknown 11 ACIS 5.0 NT 24 Thu Mar 25 20:24:58 1999 
-1 9.9999999999999995e-007 1e-010 
body $-1 $4 $-1 $5 #
body $-1 $6 $-1 $7 #
body $-1 $8 $-1 $9 #
body $-1 $10 $-1 $11 #
lump $-1 $-1 $12 $0 #
transform $-1 1 0 0 0 1 0 0 0 1 79.324930570390947 46.793405422777298 17.469090564140991 1 rotate no_reflect no_shear #
lump $-1 $-1 $13 $1 #
transform $-1 1 0 0 0 1 0 0 0 1 79.324930570390947 46.793405422777298 17.469090564140991 1 rotate no_reflect no_shear #
lump $-1 $-1 $14 $2 #
transform $-1 1 0 0 0 1 0 0 0 1 79.324930570390947 46.793405422777298 17.469090564140991 1 rotate no_reflect no_shear #
lump $-1 $-1 $15 $3 #
transform $-1 1 0 0 0 1 0 0 0 1 79.324930570390947 46.793405422777298 17.469090564140991 1 rotate no_reflect no_shear #
shell $-1 $-1 $-1 $16 $-1 $4 #
shell $-1 $-1 $-1 $17 $-1 $6 #
shell $-1 $-1 $-1 $18 $-1 $8 #
shell $-1 $-1 $-1 $19 $-1 $10 #
face $-1 $20 $21 $12 $-1 $22 forward single #
face $-1 $23 $24 $13 $-1 $25 forward single #
face $-1 $26 $27 $14 $-1 $28 reversed single #
face $-1 $29 $30 $15 $-1 $31 forward single #
face $-1 $32 $33 $12 $-1 $34 reversed single #
loop $-1 $-1 $35 $16 #
plane-surface $-1 0 0 17.469090564140991 0 0 1 1 0 0 forward_v I I I I #
face $-1 $36 $37 $13 $-1 $38 reversed single #
loop $-1 $-1 $39 $17 #
plane-surface $-1 -71.584577904849937 0 15.548864779535783 0 0 1 1 0 0 forward_v I I I I #
face $-1 $40 $41 $14 $-1 $42 reversed single #
loop $-1 $-1 $43 $18 #
plane-surface $-1 1.7014897785783774 -133.20031383186404 139.08158506980018 1 0 0 0 0.54463904215088732 -0.83867056331134215 forward_v I I I I #
face $-1 $44 $45 $15 $-1 $46 forward single #
loop $-1 $47 $48 $19 #
cone-surface $-1 23.149336501832394 -35.580966337026005 8.0483174547696059 0 0.54463904215088732 -0.83867056331134215 3 0 0 1 I I 0 1 3 forward I I I I #
face $-1 $49 $50 $12 $-1 $51 reversed single #
loop $-1 $-1 $52 $20 #
plane-surface $-1 0 0 -17.469090564140991 0 0 1 1 0 0 forward_v I I I I #
coedge $-1 $53 $54 $55 $56 forward $21 $-1 #
face $-1 $57 $58 $13 $-1 $59 reversed single #
loop $-1 $-1 $60 $23 #
plane-surface $-1 -71.584577904849937 0 11.095198323811395 0 0 1 1 0 0 forward_v I I I I #
coedge $-1 $61 $62 $63 $64 forward $24 $-1 #
face $-1 $65 $66 $14 $-1 $67 reversed single #
loop $-1 $-1 $68 $26 #
plane-surface $-1 23.149336501832394 -46.793405422777312 6.0266166575944169 0 -0.54463904215088732 0.83867056331134215 1 0 0 forward_v I I I I #
coedge $-1 $69 $70 $71 $72 reversed $27 $-1 #
face $-1 $-1 $73 $15 $-1 $74 forward single #
loop $-1 $75 $76 $29 #
cone-surface $-1 23.149336501832394 -32.361500857968124 3.0907754537044951 0 0.54463904215088732 -0.83867056331134215 1.5 0 0 1 I I -0.70710678118654757 0.70710678118654757 1.5 forward I I I I #
loop $-1 $-1 $77 $19 #
coedge $-1 $48 $48 $78 $79 reversed $30 $-1 #
face $-1 $80 $81 $12 $-1 $82 reversed single #
loop $-1 $-1 $83 $32 #
plane-surface $-1 0 -46.793405422777298 0 0 1 0 0 0 1 forward_v I I I I #
coedge $-1 $84 $85 $86 $87 forward $33 $-1 #
coedge $-1 $88 $35 $89 $90 forward $21 $-1 #
coedge $-1 $35 $88 $91 $92 forward $21 $-1 #
coedge $-1 $93 $94 $35 $56 reversed $95 $-1 #
edge $-1 $96 -46.793405422777298 $97 46.793405422777298 $55 $98 forward 7 unknown #
face $-1 $99 $100 $13 $-1 $101 reversed single #
loop $-1 $-1 $102 $36 #
plane-surface $-1 -63.844225239308919 0 13.322031551673589 -1 0 0 0 0 1 forward_v I I I I #
coedge $-1 $103 $104 $105 $106 forward $37 $-1 #
coedge $-1 $107 $39 $108 $109 reversed $24 $-1 #
coedge $-1 $39 $107 $110 $111 reversed $24 $-1 #
coedge $-1 $102 $112 $39 $64 reversed $58 $-1 #
edge $-1 $113 -46.793405422777298 $114 46.793405422777298 $63 $115 forward 7 unknown #
face $-1 $116 $117 $14 $-1 $118 forward single #
loop $-1 $-1 $119 $40 #
plane-surface $-1 44.597183225086411 -133.20031383186404 139.08158506980018 -1 0 0 0 -0.54463904215088732 0.83867056331134215 forward_v I I I I #
coedge $-1 $120 $121 $122 $123 reversed $41 $-1 #
coedge $-1 $70 $43 $124 $125 reversed $27 $-1 #
coedge $-1 $43 $69 $120 $126 reversed $27 $-1 #
coedge $-1 $122 $127 $43 $72 forward $128 $-1 #
edge $-1 $129 52.071701970759101 $130 63.514175877305668 $71 $131 forward 7 unknown #
loop $-1 $-1 $78 $44 #
plane-surface $-1 23.149336501832394 -46.793405422777312 6.0266166575944169 0 -0.54463904215088732 0.83867056331134215 1 0 0 forward_v I I I I #
loop $-1 $-1 $132 $29 #
coedge $-1 $76 $76 $77 $133 reversed $45 $-1 #
coedge $-1 $77 $77 $76 $133 forward $47 $-1 #
coedge $-1 $78 $78 $48 $79 forward $73 $-1 #
edge $-1 $134 -1.2899643833721733e-015 $134 6.2831853071795996 $78 $135 forward 7 unknown #
face $-1 $136 $137 $12 $-1 $138 reversed single #
loop $-1 $-1 $139 $49 #
plane-surface $-1 -79.324930570390947 0 0 1 0 0 0 0 -1 forward_v I I I I #
coedge $-1 $140 $91 $141 $142 forward $50 $-1 #
coedge $-1 $143 $52 $140 $144 forward $33 $-1 #
coedge $-1 $52 $143 $145 $146 forward $33 $-1 #
coedge $-1 $94 $93 $52 $87 reversed $95 $-1 #
edge $-1 $147 -46.793405422777298 $148 46.793405422777298 $86 $149 forward 7 unknown #
coedge $-1 $54 $53 $150 $151 forward $21 $-1 #
coedge $-1 $152 $153 $53 $90 reversed $137 $-1 #
edge $-1 $97 -79.324930570390947 $154 79.324930570390947 $89 $155 forward 7 unknown #
coedge $-1 $83 $156 $54 $92 reversed $50 $-1 #
edge $-1 $157 -79.324930570390947 $96 79.324930570390947 $91 $158 forward 7 unknown #
coedge $-1 $86 $55 $156 $159 forward $95 $-1 #
coedge $-1 $55 $86 $152 $160 reversed $95 $-1 #
loop $-1 $-1 $93 $136 #
vertex $-1 $56 $161 #
vertex $-1 $56 $162 #
straight-curve $-1 79.324930570390947 0 17.469090564140991 0 1 0 I I #
face $-1 $163 $164 $13 $-1 $165 reversed single #
loop $-1 $-1 $166 $57 #
plane-surface $-1 0 -46.793405422777298 0 0 1 0 0 0 1 forward_v I I I I #
coedge $-1 $105 $63 $167 $168 reversed $58 $-1 #
coedge $-1 $169 $60 $166 $170 reversed $37 $-1 #
coedge $-1 $60 $169 $171 $172 reversed $37 $-1 #
coedge $-1 $112 $102 $60 $106 reversed $58 $-1 #
edge $-1 $173 -46.793405422777298 $174 46.793405422777298 $105 $175 forward 7 unknown #
coedge $-1 $62 $61 $176 $177 reversed $24 $-1 #
coedge $-1 $178 $179 $61 $109 forward $180 $-1 #
edge $-1 $181 -43.532641617965993 $114 -28.051936286883951 $108 $182 forward 7 unknown #
coedge $-1 $183 $167 $62 $111 forward $100 $-1 #
edge $-1 $113 28.051936286883951 $184 43.532641617965993 $110 $185 forward 7 unknown #
coedge $-1 $63 $105 $178 $186 reversed $58 $-1 #
vertex $-1 $111 $187 #
vertex $-1 $109 $188 #
straight-curve $-1 -63.844225239308919 0 15.548864779535783 0 1 0 I I #
face $-1 $-1 $128 $14 $-1 $189 reversed single #
loop $-1 $-1 $190 $65 #
plane-surface $-1 0 0 17.469090564140991 0 0 1 1 0 0 forward_v I I I I #
coedge $-1 $191 $192 $193 $194 reversed $66 $-1 #
coedge $-1 $195 $68 $70 $126 forward $41 $-1 #
coedge $-1 $68 $195 $191 $196 forward $41 $-1 #
coedge $-1 $193 $71 $68 $123 forward $128 $-1 #
edge $-1 $130 -9.8731784723378198 $197 33.022514974170214 $122 $198 forward 7 unknown #
coedge $-1 $199 $200 $69 $125 forward $117 $-1 #
edge $-1 $201 -37.426615832994187 $129 -19.806751493154721 $124 $202 forward 7 unknown #
edge $-1 $130 1.6755591966779756e-014 $201 21.009279579660653 $70 $203 forward 7 unknown #
coedge $-1 $71 $193 $199 $204 reversed $128 $-1 #
loop $-1 $-1 $193 $116 #
vertex $-1 $204 $205 #
vertex $-1 $72 $206 #
straight-curve $-1 1.7014897785783774 -46.793405422777298 69.540792534900092 0 0 -1 I I #
coedge $-1 $132 $132 $-1 $207 reversed $75 $-1 #
edge $-1 $208 0 $208 6.2831853071796004 $76 $209 forward 7 unknown #
vertex $-1 $79 $210 #
ellipse-curve $-1 23.149336501832394 -37.983473252857564 11.747853610867711 0 -0.54463904215088732 0.83867056331134215 3 0 0 1 I I #
face $-1 $-1 $95 $12 $-1 $211 reversed single #
loop $-1 $-1 $152 $80 #
plane-surface $-1 0 46.793405422777298 0 0 -1 0 0 0 -1 forward_v I I I I #
coedge $-1 $212 $150 $153 $213 forward $81 $-1 #
coedge $-1 $156 $83 $84 $144 reversed $50 $-1 #
coedge $-1 $150 $212 $83 $142 reversed $81 $-1 #
edge $-1 $157 -17.469090564140991 $214 17.469090564140991 $141 $215 forward 7 unknown #
coedge $-1 $85 $84 $212 $216 forward $33 $-1 #
edge $-1 $148 -79.324930570390947 $214 79.324930570390947 $140 $217 forward 7 unknown #
coedge $-1 $153 $152 $85 $146 reversed $137 $-1 #
edge $-1 $218 -79.324930570390947 $147 79.324930570390947 $145 $219 forward 7 unknown #
vertex $-1 $87 $220 #
vertex $-1 $159 $221 #
straight-curve $-1 79.324930570390947 0 -17.469090564140991 0 -1 0 I I #
coedge $-1 $139 $141 $88 $151 reversed $81 $-1 #
edge $-1 $154 -46.793405422777298 $157 46.793405422777298 $150 $222 forward 7 unknown #
coedge $-1 $145 $89 $94 $160 forward $137 $-1 #
coedge $-1 $89 $145 $139 $213 reversed $137 $-1 #
vertex $-1 $90 $223 #
straight-curve $-1 0 46.793405422777298 17.469090564140991 -1 0 0 I I #
coedge $-1 $91 $140 $93 $159 reversed $50 $-1 #
vertex $-1 $151 $224 #
straight-curve $-1 0 -46.793405422777298 17.469090564140991 1 0 0 I I #
edge $-1 $96 -17.469090564140991 $148 17.469090564140991 $93 $225 forward 7 unknown #
edge $-1 $97 -17.469090564140991 $147 17.469090564140991 $94 $226 forward 7 unknown #
point $-1 79.324930570390947 -46.793405422777298 17.469090564140991 #
point $-1 79.324930570390947 46.793405422777298 17.469090564140991 #
face $-1 $-1 $180 $13 $-1 $227 reversed single #
loop $-1 $-1 $228 $99 #
plane-surface $-1 -79.324930570390947 0 0 1 0 0 0 0 -1 forward_v I I I I #
coedge $-1 $167 $183 $103 $170 forward $100 $-1 #
coedge $-1 $110 $166 $102 $168 forward $100 $-1 #
edge $-1 $174 4.4341825479746007 $113 8.8878490036989888 $167 $229 forward 7 unknown #
coedge $-1 $104 $103 $228 $230 reversed $37 $-1 #
edge $-1 $231 -43.532641617965993 $174 -28.051936286883951 $166 $232 forward 7 unknown #
coedge $-1 $179 $178 $104 $172 forward $180 $-1 #
edge $-1 $173 28.051936286883951 $233 43.532641617965993 $171 $234 forward 7 unknown #
vertex $-1 $172 $235 #
vertex $-1 $170 $236 #
straight-curve $-1 -63.844225239308919 0 11.095198323811395 0 -1 0 I I #
coedge $-1 $237 $238 $107 $177 forward $164 $-1 #
edge $-1 $184 -46.793405422777298 $181 46.793405422777298 $176 $239 forward 7 unknown #
coedge $-1 $171 $108 $112 $186 forward $180 $-1 #
coedge $-1 $108 $171 $237 $240 reversed $180 $-1 #
loop $-1 $-1 $171 $163 #
vertex $-1 $240 $241 #
straight-curve $-1 -35.792288952424968 46.793405422777298 15.548864779535783 1 0 0 I I #
coedge $-1 $166 $110 $238 $242 forward $100 $-1 #
vertex $-1 $242 $243 #
straight-curve $-1 -35.792288952424968 -46.793405422777298 15.548864779535783 -1 0 0 I I #
edge $-1 $114 -8.8878490036989888 $173 -4.4341825479746007 $178 $244 forward 7 unknown #
point $-1 -63.844225239308919 -46.793405422777298 15.548864779535783 #
point $-1 -63.844225239308919 46.793405422777298 15.548864779535783 #
plane-surface $-1 0 -46.793405422777298 0 0 1 0 0 0 1 forward_v I I I I #
coedge $-1 $200 $199 $192 $245 forward $117 $-1 #
coedge $-1 $192 $119 $121 $196 reversed $66 $-1 #
coedge $-1 $119 $191 $190 $245 reversed $66 $-1 #
coedge $-1 $127 $122 $119 $194 forward $128 $-1 #
edge $-1 $197 -63.514175877305668 $246 -52.071701970759101 $193 $247 forward 7 unknown #
coedge $-1 $121 $120 $200 $248 reversed $41 $-1 #
edge $-1 $249 -21.009279579660653 $197 -1.6755591966779756e-014 $191 $250 forward 7 unknown #
vertex $-1 $123 $251 #
straight-curve $-1 11.574668250916197 -46.793405422777298 6.0266166575944249 1 0 0 I I #
coedge $-1 $190 $124 $127 $204 forward $117 $-1 #
coedge $-1 $124 $190 $195 $248 forward $117 $-1 #
vertex $-1 $125 $252 #
straight-curve $-1 1.7014897785783774 -66.600156915932018 17.469090564140991 0 -1 0 I I #
straight-curve $-1 1.7014897785783774 -46.793405422777312 6.0266166575944169 0 0.83867056331134215 0.54463904215088732 I I #
edge $-1 $129 1.7014897785783774 $246 44.597183225086411 $127 $253 forward 7 unknown #
point $-1 1.7014897785783774 -46.793405422777298 17.469090564140991 #
point $-1 1.7014897785783774 -46.793405422777298 6.0266166575944258 #
edge $-1 $254 1 $254 0 $132 $-1 forward 7 unknown #
vertex $-1 $133 $255 #
ellipse-curve $-1 23.149336501832394 -33.178459421194454 4.3487812986715086 0 -0.54463904215088732 0.83867056331134215 3 0 0 1 I I #
point $-1 26.149336501832394 -37.983473252857564 11.747853610867704 #
plane-surface $-1 79.324930570390947 0 0 -1 0 0 0 0 1 forward_v I I I I #
coedge $-1 $141 $139 $143 $216 reversed $81 $-1 #
edge $-1 $154 -17.469090564140991 $218 17.469090564140991 $153 $256 forward 7 unknown #
vertex $-1 $216 $257 #
straight-curve $-1 -79.324930570390947 -46.793405422777298 0 0 0 -1 I I #
edge $-1 $214 -46.793405422777298 $218 46.793405422777298 $212 $258 forward 7 unknown #
straight-curve $-1 0 -46.793405422777298 -17.469090564140991 -1 0 0 I I #
vertex $-1 $146 $259 #
straight-curve $-1 0 46.793405422777298 -17.469090564140991 1 0 0 I I #
point $-1 79.324930570390947 46.793405422777298 -17.469090564140991 #
point $-1 79.324930570390947 -46.793405422777298 -17.469090564140991 #
straight-curve $-1 -79.324930570390947 0 17.469090564140991 0 -1 0 I I #
point $-1 -79.324930570390947 46.793405422777298 17.469090564140991 #
point $-1 -79.324930570390947 -46.793405422777298 17.469090564140991 #
straight-curve $-1 79.324930570390947 -46.793405422777298 0 0 0 -1 I I #
straight-curve $-1 79.324930570390947 46.793405422777298 0 0 0 -1 I I #
plane-surface $-1 0 46.793405422777298 0 0 -1 0 0 0 -1 forward_v I I I I #
coedge $-1 $238 $237 $169 $230 forward $164 $-1 #
straight-curve $-1 -63.844225239308919 -46.793405422777298 6.6610157758367947 0 0 1 I I #
edge $-1 $233 -46.793405422777298 $231 46.793405422777298 $228 $260 forward 7 unknown #
vertex $-1 $170 $261 #
straight-curve $-1 -35.792288952424968 -46.793405422777298 11.095198323811395 1 0 0 I I #
vertex $-1 $172 $262 #
straight-curve $-1 -35.792288952424968 46.793405422777298 11.095198323811395 -1 0 0 I I #
point $-1 -63.844225239308919 46.793405422777298 11.095198323811395 #
point $-1 -63.844225239308919 -46.793405422777298 11.095198323811395 #
coedge $-1 $228 $176 $179 $240 forward $164 $-1 #
coedge $-1 $176 $228 $183 $242 reversed $164 $-1 #
straight-curve $-1 -79.324930570390947 0 15.548864779535783 0 1 0 I I #
edge $-1 $181 -15.548864779535783 $233 -11.095198323811395 $179 $263 forward 7 unknown #
point $-1 -79.324930570390961 46.793405422777298 15.548864779535783 #
edge $-1 $184 -15.548864779535783 $231 -11.095198323811395 $238 $264 forward 7 unknown #
point $-1 -79.324930570390961 -46.793405422777298 15.548864779535783 #
straight-curve $-1 -63.844225239308919 46.793405422777298 6.6610157758367947 0 0 -1 I I #
edge $-1 $246 19.806751493154721 $249 37.426615832994187 $190 $265 forward 7 unknown #
vertex $-1 $245 $266 #
straight-curve $-1 44.597183225086411 -46.793405422777298 69.540792534900092 0 0 1 I I #
edge $-1 $249 -33.022514974170214 $201 9.8731784723378198 $200 $267 forward 7 unknown #
vertex $-1 $248 $268 #
straight-curve $-1 44.597183225086411 -46.793405422777312 6.0266166575944169 0 -0.83867056331134215 -0.54463904215088732 I I #
point $-1 44.597183225086411 -46.793405422777298 6.0266166575944258 #
point $-1 1.7014897785783774 -29.173541082937835 17.469090564140991 #
straight-curve $-1 0 -46.793405422777298 17.469090564140991 1 0 0 I I #
vertex $-1 $207 $269 #
point $-1 26.149336501832394 -33.178459421194454 4.3487812986715086 #
straight-curve $-1 -79.324930570390947 46.793405422777298 0 0 0 -1 I I #
point $-1 -79.324930570390947 -46.793405422777298 -17.469090564140991 #
straight-curve $-1 -79.324930570390947 0 -17.469090564140991 0 1 0 I I #
point $-1 -79.324930570390947 46.793405422777298 -17.469090564140991 #
straight-curve $-1 -79.324930570390947 0 11.095198323811395 0 -1 0 I I #
point $-1 -79.324930570390961 -46.793405422777298 11.095198323811395 #
point $-1 -79.324930570390961 46.793405422777298 11.095198323811395 #
straight-curve $-1 -79.324930570390947 46.793405422777298 0 0 0 -1 I I #
straight-curve $-1 -79.324930570390947 -46.793405422777298 0 0 0 -1 I I #
straight-curve $-1 44.597183225086411 -66.600156915932018 17.469090564140991 0 1 0 I I #
point $-1 44.597183225086411 -46.793405422777298 17.469090564140991 #
straight-curve $-1 11.574668250916197 -29.173541082937831 17.469090564140991 -1 0 0 I I #
point $-1 44.597183225086411 -29.173541082937835 17.469090564140991 #
point $-1 23.149336501832394 -31.544542294741795 1.8327696087374818 #
End-of-ACIS-data 