500 0 7 0           
7 Unknown 11 ACIS 5.0 NT 24 Fri Mar 26 20:41:24 1999 
-1 9.9999999999999995e-007 1e-010 
body $-1 $7 $-1 $8 #
body $-1 $9 $-1 $10 #
body $-1 $11 $-1 $12 #
body $-1 $13 $-1 $14 #
body $-1 $15 $-1 $16 #
body $-1 $17 $-1 $18 #
body $-1 $19 $-1 $20 #
lump $-1 $-1 $21 $0 #
transform $-1 1 0 0 0 1 0 0 0 1 73.821832941679133 45.716727690537645 12.478028324238515 1 rotate no_reflect no_shear #
lump $-1 $-1 $22 $1 #
transform $-1 1 0 0 0 1 0 0 0 1 73.821832941679133 45.716727690537645 12.478028324238515 1 rotate no_reflect no_shear #
lump $-1 $-1 $23 $2 #
transform $-1 1 0 0 0 1 0 0 0 1 73.821832941679133 45.716727690537645 12.478028324238515 1 rotate no_reflect no_shear #
lump $-1 $-1 $24 $3 #
transform $-1 1 0 0 0 1 0 0 0 1 73.821832941679133 45.716727690537645 12.478028324238515 1 rotate no_reflect no_shear #
lump $-1 $-1 $25 $4 #
transform $-1 1 0 0 0 1 0 0 0 1 73.821832941679133 45.716727690537645 12.478028324238515 1 rotate no_reflect no_shear #
lump $-1 $-1 $26 $5 #
transform $-1 1 0 0 0 1 0 0 0 1 73.821832941679133 45.716727690537645 12.478028324238515 1 rotate no_reflect no_shear #
lump $-1 $-1 $27 $6 #
transform $-1 1 0 0 0 1 0 0 0 1 73.821832941679133 45.716727690537645 12.478028324238515 1 rotate no_reflect no_shear #
shell $-1 $-1 $-1 $28 $-1 $7 #
shell $-1 $-1 $-1 $29 $-1 $9 #
shell $-1 $-1 $-1 $30 $-1 $11 #
shell $-1 $-1 $-1 $31 $-1 $13 #
shell $-1 $-1 $-1 $32 $-1 $15 #
shell $-1 $-1 $-1 $33 $-1 $17 #
shell $-1 $-1 $-1 $34 $-1 $19 #
face $-1 $35 $36 $21 $-1 $37 forward single #
face $-1 $38 $39 $22 $-1 $40 reversed single #
face $-1 $41 $42 $23 $-1 $43 reversed single #
face $-1 $44 $45 $24 $-1 $46 reversed single #
face $-1 $47 $48 $25 $-1 $49 forward single #
face $-1 $50 $51 $26 $-1 $52 forward single #
face $-1 $53 $54 $27 $-1 $55 forward single #
face $-1 $56 $57 $21 $-1 $58 reversed single #
loop $-1 $-1 $59 $28 #
plane-surface $-1 0 0 12.478028324238515 0 0 1 1 0 0 forward_v I I I I #
face $-1 $60 $61 $22 $-1 $62 reversed single #
loop $-1 $-1 $63 $29 #
plane-surface $-1 0 -39.603628627921225 6.4134636013518289 0 0 1 1 0 0 forward_v I I I I #
face $-1 $64 $65 $23 $-1 $66 reversed single #
loop $-1 $-1 $67 $30 #
plane-surface $-1 0 38.577050228445152 5.1637947958822679 0 0 1 1 0 0 forward_v I I I I #
face $-1 $68 $69 $24 $-1 $70 reversed single #
loop $-1 $-1 $71 $31 #
plane-surface $-1 -196.22398050082631 -11.011301541279849 84.73764529338456 0 1 0 -0.82903758062907751 0 0.55919289150049634 forward_v I I I I #
face $-1 $72 $73 $25 $-1 $74 forward single #
loop $-1 $75 $76 $32 #
cone-surface $-1 -69.586806598511046 -9.3933252428731748 6.8140643800937815 0.82903758062907751 0 -0.55919289150049634 0.27959644575024817 0 0.41451879031453875 1 I I 0 1 0.5 forward I I I I #
face $-1 $77 $78 $26 $-1 $79 forward single #
loop $-1 $80 $81 $33 #
cone-surface $-1 -69.586806598511046 -6.9663607952631565 6.8140643800937815 0.82903758062907751 0 -0.55919289150049634 0.27959644575024817 0 0.41451879031453875 1 I I 0 1 0.5 forward I I I I #
face $-1 $82 $83 $27 $-1 $84 forward single #
loop $-1 $85 $86 $34 #
cone-surface $-1 -69.586806598511046 -4.5393963476531383 6.8140643800937815 0.82903758062907751 0 -0.55919289150049634 0.27959644575024817 0 0.41451879031453875 1 I I 0 1 0.5 forward I I I I #
face $-1 $87 $88 $21 $-1 $89 reversed single #
loop $-1 $-1 $90 $35 #
plane-surface $-1 0 0 -12.478028324238515 0 0 1 1 0 0 forward_v I I I I #
coedge $-1 $91 $92 $93 $94 forward $36 $-1 #
face $-1 $95 $96 $22 $-1 $97 reversed single #
loop $-1 $-1 $98 $38 #
plane-surface $-1 0 -33.490529565304804 9.4457459627951721 0 -1 0 0 0 -1 forward_v I I I I #
coedge $-1 $99 $100 $101 $102 reversed $39 $-1 #
face $-1 $103 $104 $23 $-1 $105 forward single #
loop $-1 $-1 $106 $41 #
plane-surface $-1 0 31.437372766352659 8.8209115600603916 0 1 0 0 0 1 forward_v I I I I #
coedge $-1 $107 $108 $109 $110 reversed $42 $-1 #
face $-1 $111 $112 $24 $-1 $113 reversed single #
loop $-1 $-1 $114 $44 #
plane-surface $-1 -73.821832941679105 -6.9663607952631565 2.1763568563362696 -0.82903758062907751 0 0.55919289150049634 0.55919289150049634 0 0.82903758062907751 forward_v I I I I #
coedge $-1 $115 $116 $117 $118 reversed $45 $-1 #
face $-1 $-1 $119 $25 $-1 $120 forward single #
loop $-1 $121 $122 $47 #
cone-surface $-1 -68.618803323384299 -9.3933252428731748 6.1611379470250469 0.82903758062907751 0 -0.55919289150049634 0.13979822287512408 0 0.20725939515726938 1 I I -0.70710678118654746 0.70710678118654746 0.25 forward I I I I #
loop $-1 $-1 $123 $32 #
coedge $-1 $76 $76 $124 $125 reversed $48 $-1 #
face $-1 $-1 $126 $26 $-1 $127 forward single #
loop $-1 $128 $129 $50 #
cone-surface $-1 -68.618803323384299 -6.9663607952631565 6.1611379470250469 0.82903758062907751 0 -0.55919289150049634 0.13979822287512408 0 0.20725939515726938 1 I I -0.70710678118654746 0.70710678118654746 0.25 forward I I I I #
loop $-1 $-1 $130 $33 #
coedge $-1 $81 $81 $131 $132 reversed $51 $-1 #
face $-1 $-1 $133 $27 $-1 $134 forward single #
loop $-1 $135 $136 $53 #
cone-surface $-1 -68.618803323384299 -4.5393963476531383 6.1611379470250469 0.82903758062907751 0 -0.55919289150049634 0.13979822287512408 0 0.20725939515726938 1 I I -0.70710678118654746 0.70710678118654746 0.25 forward I I I I #
loop $-1 $-1 $137 $34 #
coedge $-1 $86 $86 $138 $139 reversed $54 $-1 #
face $-1 $140 $141 $21 $-1 $142 reversed single #
loop $-1 $-1 $143 $56 #
plane-surface $-1 0 -45.716727690537645 0 0 1 0 0 0 1 forward_v I I I I #
coedge $-1 $144 $145 $146 $147 forward $57 $-1 #
coedge $-1 $148 $59 $149 $150 forward $36 $-1 #
coedge $-1 $59 $148 $151 $152 forward $36 $-1 #
coedge $-1 $153 $154 $59 $94 reversed $155 $-1 #
edge $-1 $156 -45.716727690537645 $157 45.716727690537645 $93 $158 forward 7 unknown #
face $-1 $159 $160 $22 $-1 $161 reversed single #
loop $-1 $-1 $162 $60 #
plane-surface $-1 -73.821832941679133 0 0 1 0 0 0 0 -1 forward_v I I I I #
coedge $-1 $163 $164 $165 $166 reversed $61 $-1 #
coedge $-1 $167 $63 $168 $169 reversed $39 $-1 #
coedge $-1 $63 $167 $163 $170 forward $39 $-1 #
coedge $-1 $165 $171 $63 $102 forward $172 $-1 #
edge $-1 $173 -25.914913376577033 $174 -13.688715251344192 $101 $175 forward 7 unknown #
face $-1 $176 $177 $23 $-1 $178 reversed single #
loop $-1 $-1 $179 $64 #
plane-surface $-1 0 0 12.478028324238515 0 0 1 1 0 0 forward_v I I I I #
coedge $-1 $180 $181 $182 $183 reversed $65 $-1 #
coedge $-1 $184 $67 $180 $185 forward $42 $-1 #
coedge $-1 $67 $184 $186 $187 reversed $42 $-1 #
coedge $-1 $188 $189 $67 $110 forward $177 $-1 #
edge $-1 $190 12.148847652130083 $191 26.428202576315069 $109 $192 forward 7 unknown #
face $-1 $193 $194 $24 $-1 $195 reversed single #
loop $-1 $-1 $196 $68 #
plane-surface $-1 -196.22398050082631 -2.9214200492464641 84.73764529338456 0 -1 0 0.82903758062907751 0 -0.55919289150049634 forward_v I I I I #
coedge $-1 $197 $198 $199 $200 reversed $69 $-1 #
coedge $-1 $116 $71 $201 $202 reversed $45 $-1 #
coedge $-1 $71 $115 $197 $203 reversed $45 $-1 #
coedge $-1 $199 $204 $71 $118 forward $205 $-1 #
edge $-1 $206 24.290157308734024 $207 31.238722235131277 $117 $208 forward 7 unknown #
loop $-1 $-1 $124 $72 #
plane-surface $-1 -73.821832941679105 -6.9663607952631565 2.1763568563362696 -0.82903758062907751 0 0.55919289150049634 0.55919289150049634 0 0.82903758062907751 forward_v I I I I #
loop $-1 $-1 $209 $47 #
coedge $-1 $122 $122 $123 $210 reversed $73 $-1 #
coedge $-1 $123 $123 $122 $210 forward $75 $-1 #
coedge $-1 $124 $124 $76 $125 forward $119 $-1 #
edge $-1 $211 0 $211 6.2831853071796004 $124 $212 forward 7 unknown #
loop $-1 $-1 $131 $77 #
plane-surface $-1 -73.821832941679105 -6.9663607952631565 2.1763568563362696 -0.82903758062907751 0 0.55919289150049634 0.55919289150049634 0 0.82903758062907751 forward_v I I I I #
loop $-1 $-1 $213 $50 #
coedge $-1 $129 $129 $130 $214 reversed $78 $-1 #
coedge $-1 $130 $130 $129 $214 forward $80 $-1 #
coedge $-1 $131 $131 $81 $132 forward $126 $-1 #
edge $-1 $215 0 $215 6.2831853071796004 $131 $216 forward 7 unknown #
loop $-1 $-1 $138 $82 #
plane-surface $-1 -73.821832941679105 -6.9663607952631565 2.1763568563362696 -0.82903758062907751 0 0.55919289150049634 0.55919289150049634 0 0.82903758062907751 forward_v I I I I #
loop $-1 $-1 $217 $53 #
coedge $-1 $136 $136 $137 $218 reversed $83 $-1 #
coedge $-1 $137 $137 $136 $218 forward $85 $-1 #
coedge $-1 $138 $138 $86 $139 forward $133 $-1 #
edge $-1 $219 0 $219 6.2831853071796004 $138 $220 forward 7 unknown #
face $-1 $221 $222 $21 $-1 $223 reversed single #
loop $-1 $-1 $224 $87 #
plane-surface $-1 -73.821832941679133 0 0 1 0 0 0 0 -1 forward_v I I I I #
coedge $-1 $225 $151 $226 $227 forward $88 $-1 #
coedge $-1 $228 $90 $225 $229 forward $57 $-1 #
coedge $-1 $90 $228 $230 $231 forward $57 $-1 #
coedge $-1 $154 $153 $90 $147 reversed $155 $-1 #
edge $-1 $232 -45.716727690537645 $233 45.716727690537645 $146 $234 forward 7 unknown #
coedge $-1 $92 $91 $235 $236 forward $36 $-1 #
coedge $-1 $237 $238 $91 $150 reversed $222 $-1 #
edge $-1 $157 -73.821832941679133 $239 73.821832941679133 $149 $240 forward 7 unknown #
coedge $-1 $143 $241 $92 $152 reversed $88 $-1 #
edge $-1 $242 -73.821832941679133 $156 73.821832941679133 $151 $243 forward 7 unknown #
coedge $-1 $146 $93 $241 $244 forward $155 $-1 #
coedge $-1 $93 $146 $237 $245 reversed $155 $-1 #
loop $-1 $-1 $153 $221 #
vertex $-1 $94 $246 #
vertex $-1 $94 $247 #
straight-curve $-1 73.821832941679133 0 12.478028324238515 0 1 0 I I #
face $-1 $248 $249 $22 $-1 $250 forward single #
loop $-1 $-1 $168 $95 #
plane-surface $-1 0 -45.716727690537645 0 0 1 0 0 0 1 forward_v I I I I #
coedge $-1 $251 $252 $253 $254 forward $96 $-1 #
coedge $-1 $253 $98 $100 $170 reversed $61 $-1 #
coedge $-1 $98 $253 $255 $256 reversed $61 $-1 #
coedge $-1 $257 $101 $98 $166 forward $172 $-1 #
edge $-1 $174 1.6905906199542429 $258 7.7551553428409292 $165 $259 forward 7 unknown #
coedge $-1 $100 $99 $251 $260 reversed $39 $-1 #
coedge $-1 $261 $262 $99 $169 forward $160 $-1 #
edge $-1 $263 -73.821832941679133 $173 73.821832941679133 $168 $264 forward 7 unknown #
edge $-1 $265 -73.821832941679133 $174 73.821832941679133 $163 $266 forward 7 unknown #
coedge $-1 $101 $257 $261 $267 forward $172 $-1 #
loop $-1 $-1 $165 $248 #
vertex $-1 $169 $268 #
vertex $-1 $102 $269 #
straight-curve $-1 73.821832941679133 -19.801814313960612 6.4134636013518289 0 1 0 I I #
face $-1 $270 $271 $23 $-1 $272 reversed single #
loop $-1 $-1 $189 $103 #
plane-surface $-1 73.821832941679133 0 0 -1 0 0 0 0 1 forward_v I I I I #
coedge $-1 $273 $274 $181 $275 forward $104 $-1 #
coedge $-1 $276 $106 $107 $185 reversed $65 $-1 #
coedge $-1 $106 $276 $179 $275 reversed $65 $-1 #
coedge $-1 $277 $278 $106 $183 forward $271 $-1 #
edge $-1 $279 0.75333901585207208 $280 8.0675725442083195 $182 $281 forward 7 unknown #
coedge $-1 $108 $107 $278 $282 reversed $42 $-1 #
edge $-1 $190 -73.821832941679133 $279 73.821832941679133 $180 $283 forward 7 unknown #
coedge $-1 $284 $285 $108 $187 forward $286 $-1 #
edge $-1 $191 -73.821832941679133 $287 73.821832941679133 $186 $288 forward 7 unknown #
coedge $-1 $289 $109 $285 $290 reversed $177 $-1 #
coedge $-1 $109 $289 $276 $291 forward $177 $-1 #
vertex $-1 $110 $292 #
vertex $-1 $187 $293 #
straight-curve $-1 73.821832941679133 19.288525114222576 5.1637947958822679 0 1 0 I I #
face $-1 $-1 $205 $24 $-1 $294 forward single #
loop $-1 $-1 $295 $111 #
plane-surface $-1 -73.821832941679133 0 0 1 0 0 0 0 -1 forward_v I I I I #
coedge $-1 $296 $297 $298 $299 reversed $112 $-1 #
coedge $-1 $300 $114 $116 $203 forward $69 $-1 #
coedge $-1 $114 $300 $296 $301 forward $69 $-1 #
coedge $-1 $298 $117 $114 $200 forward $205 $-1 #
edge $-1 $207 -7.5281211436482707 $302 0.56176034838511413 $199 $303 forward 7 unknown #
coedge $-1 $304 $305 $115 $202 forward $194 $-1 #
edge $-1 $306 -40.192465790356053 $206 -29.890794322453765 $201 $307 forward 7 unknown #
edge $-1 $207 -12.426060903156273 $306 5.0869049068944123e-014 $116 $308 forward 7 unknown #
coedge $-1 $117 $298 $304 $309 forward $205 $-1 #
loop $-1 $-1 $298 $193 #
vertex $-1 $202 $310 #
vertex $-1 $118 $311 #
straight-curve $-1 -98.111990250413157 -11.011301541279849 12.478028324238515 1 0 0 I I #
coedge $-1 $209 $209 $-1 $312 reversed $121 $-1 #
edge $-1 $313 0 $313 6.2831853071796004 $122 $314 forward 7 unknown #
vertex $-1 $125 $315 #
ellipse-curve $-1 -70.3475504784805 -9.3933252428731748 7.3271925902873773 -0.82903758062907751 0 0.55919289150049634 0.27959644575024817 0 0.41451879031453875 1 I I #
coedge $-1 $213 $213 $-1 $316 reversed $128 $-1 #
edge $-1 $317 0 $317 6.2831853071796004 $129 $318 forward 7 unknown #
vertex $-1 $132 $319 #
ellipse-curve $-1 -70.3475504784805 -6.9663607952631565 7.3271925902873773 -0.82903758062907751 0 0.55919289150049634 0.27959644575024817 0 0.41451879031453875 1 I I #
coedge $-1 $217 $217 $-1 $320 reversed $135 $-1 #
edge $-1 $321 0 $321 6.2831853071796004 $136 $322 forward 7 unknown #
vertex $-1 $139 $323 #
ellipse-curve $-1 -70.3475504784805 -4.5393963476531383 7.3271925902873773 -0.82903758062907751 0 0.55919289150049634 0.27959644575024817 0 0.41451879031453875 1 I I #
face $-1 $-1 $155 $21 $-1 $324 reversed single #
loop $-1 $-1 $237 $140 #
plane-surface $-1 0 45.716727690537645 0 0 -1 0 0 0 -1 forward_v I I I I #
coedge $-1 $325 $235 $238 $326 forward $141 $-1 #
coedge $-1 $241 $143 $144 $229 reversed $88 $-1 #
coedge $-1 $235 $325 $143 $227 reversed $141 $-1 #
edge $-1 $242 -12.478028324238515 $327 12.478028324238515 $226 $328 forward 7 unknown #
coedge $-1 $145 $144 $325 $329 forward $57 $-1 #
edge $-1 $233 -73.821832941679133 $327 73.821832941679133 $225 $330 forward 7 unknown #
coedge $-1 $238 $237 $145 $231 reversed $222 $-1 #
edge $-1 $331 -73.821832941679133 $232 73.821832941679133 $230 $332 forward 7 unknown #
vertex $-1 $147 $333 #
vertex $-1 $244 $334 #
straight-curve $-1 73.821832941679133 0 -12.478028324238515 0 -1 0 I I #
coedge $-1 $224 $226 $148 $236 reversed $141 $-1 #
edge $-1 $239 -45.716727690537645 $242 45.716727690537645 $235 $335 forward 7 unknown #
coedge $-1 $230 $149 $154 $245 forward $222 $-1 #
coedge $-1 $149 $230 $224 $326 reversed $222 $-1 #
vertex $-1 $150 $336 #
straight-curve $-1 0 45.716727690537645 12.478028324238515 -1 0 0 I I #
coedge $-1 $151 $225 $153 $244 reversed $88 $-1 #
vertex $-1 $236 $337 #
straight-curve $-1 0 -45.716727690537645 12.478028324238515 1 0 0 I I #
edge $-1 $156 -12.478028324238515 $233 12.478028324238515 $153 $338 forward 7 unknown #
edge $-1 $157 -12.478028324238515 $232 12.478028324238515 $154 $339 forward 7 unknown #
point $-1 73.821832941679133 -45.716727690537645 12.478028324238515 #
point $-1 73.821832941679133 45.716727690537645 12.478028324238515 #
face $-1 $-1 $172 $22 $-1 $340 reversed single #
loop $-1 $-1 $255 $159 #
plane-surface $-1 0 0 12.478028324238515 0 0 1 1 0 0 forward_v I I I I #
coedge $-1 $341 $162 $167 $260 forward $96 $-1 #
coedge $-1 $162 $341 $342 $343 reversed $96 $-1 #
coedge $-1 $164 $163 $162 $254 reversed $61 $-1 #
edge $-1 $344 -7.7551553428409292 $265 -1.6905906199542429 $162 $345 forward 7 unknown #
coedge $-1 $342 $346 $164 $256 forward $249 $-1 #
edge $-1 $258 -73.821832941679133 $344 73.821832941679133 $255 $347 forward 7 unknown #
coedge $-1 $171 $165 $346 $348 reversed $172 $-1 #
vertex $-1 $166 $349 #
straight-curve $-1 73.821832941679133 -33.490529565304804 4.722872981397586 0 0 1 I I #
edge $-1 $265 13.688715251344192 $263 25.914913376577033 $251 $350 forward 7 unknown #
coedge $-1 $351 $168 $171 $267 reversed $160 $-1 #
coedge $-1 $168 $351 $341 $352 forward $160 $-1 #
vertex $-1 $169 $353 #
straight-curve $-1 0 -45.716727690537645 6.4134636013518289 1 0 0 I I #
vertex $-1 $260 $354 #
straight-curve $-1 0 -33.490529565304804 6.4134636013518289 1 0 0 I I #
edge $-1 $355 -12.478028324238515 $173 -6.4134636013518289 $171 $356 forward 7 unknown #
point $-1 73.821832941679133 -45.716727690537645 6.4134636013518289 #
point $-1 73.821832941679133 -33.490529565304804 6.4134636013518289 #
face $-1 $-1 $286 $23 $-1 $357 reversed single #
loop $-1 $-1 $182 $176 #
plane-surface $-1 -73.821832941679133 0 0 1 0 0 0 0 -1 forward_v I I I I #
coedge $-1 $358 $179 $289 $359 forward $104 $-1 #
coedge $-1 $179 $358 $277 $360 forward $104 $-1 #
edge $-1 $280 -73.821832941679133 $361 73.821832941679133 $179 $362 forward 7 unknown #
coedge $-1 $181 $180 $189 $291 reversed $65 $-1 #
coedge $-1 $363 $182 $274 $360 reversed $271 $-1 #
coedge $-1 $182 $363 $184 $282 forward $271 $-1 #
vertex $-1 $282 $364 #
vertex $-1 $183 $365 #
straight-curve $-1 -73.821832941679133 31.437372766352659 4.4104557800301958 0 0 1 I I #
edge $-1 $287 -26.428202576315069 $279 -12.148847652130083 $278 $366 forward 7 unknown #
straight-curve $-1 0 31.437372766352659 5.1637947958822679 -1 0 0 I I #
coedge $-1 $367 $186 $363 $368 reversed $286 $-1 #
coedge $-1 $186 $367 $188 $290 forward $286 $-1 #
loop $-1 $-1 $186 $270 #
vertex $-1 $187 $369 #
straight-curve $-1 0 45.716727690537645 5.1637947958822679 -1 0 0 I I #
coedge $-1 $189 $188 $273 $359 reversed $177 $-1 #
edge $-1 $370 -12.478028324238515 $191 -5.1637947958822679 $188 $371 forward 7 unknown #
edge $-1 $361 -8.0675725442083195 $190 -0.75333901585207208 $189 $372 forward 7 unknown #
point $-1 73.821832941679133 31.437372766352659 5.1637947958822679 #
point $-1 73.821832941679133 45.716727690537645 5.1637947958822679 #
plane-surface $-1 0 0 12.478028324238515 0 0 1 1 0 0 forward_v I I I I #
coedge $-1 $305 $304 $297 $373 forward $194 $-1 #
coedge $-1 $297 $196 $198 $301 reversed $112 $-1 #
coedge $-1 $196 $296 $295 $373 reversed $112 $-1 #
coedge $-1 $204 $199 $196 $299 forward $205 $-1 #
edge $-1 $302 -31.238722235131277 $374 -24.290157308734024 $298 $375 forward 7 unknown #
coedge $-1 $198 $197 $305 $376 reversed $69 $-1 #
edge $-1 $377 -5.0869049068944123e-014 $302 12.426060903156273 $296 $378 forward 7 unknown #
vertex $-1 $200 $379 #
straight-curve $-1 -66.87326801528188 -3.4831803976315783 12.478028324238515 0 1 0 I I #
coedge $-1 $295 $201 $204 $309 reversed $194 $-1 #
coedge $-1 $201 $295 $300 $376 forward $194 $-1 #
vertex $-1 $202 $380 #
straight-curve $-1 -73.821832941679133 -11.011301541279849 42.36882264669228 0 0 1 I I #
straight-curve $-1 -73.821832941679105 -11.011301541279849 2.1763568563362696 -0.55919289150049634 0 -0.82903758062907751 I I #
edge $-1 $374 2.9214200492464641 $206 11.011301541279849 $304 $381 forward 7 unknown #
point $-1 -73.821832941679133 -11.011301541279849 12.478028324238515 #
point $-1 -66.87326801528188 -11.011301541279849 12.478028324238515 #
edge $-1 $382 1 $382 0 $209 $-1 forward 7 unknown #
vertex $-1 $210 $383 #
ellipse-curve $-1 -68.826062718541564 -9.3933252428731748 6.3009361699001714 -0.82903758062907751 0 0.55919289150049634 0.27959644575024817 0 0.41451879031453875 1 I I #
point $-1 -70.067954032730285 -9.3933252428731748 7.7417113806019309 #
edge $-1 $384 1 $384 0 $213 $-1 forward 7 unknown #
vertex $-1 $214 $385 #
ellipse-curve $-1 -68.826062718541564 -6.9663607952631565 6.3009361699001714 -0.82903758062907751 0 0.55919289150049634 0.27959644575024817 0 0.41451879031453875 1 I I #
point $-1 -70.067954032730285 -6.9663607952631565 7.7417113806019309 #
edge $-1 $386 1 $386 0 $217 $-1 forward 7 unknown #
vertex $-1 $218 $387 #
ellipse-curve $-1 -68.826062718541564 -4.5393963476531383 6.3009361699001714 -0.82903758062907751 0 0.55919289150049634 0.27959644575024817 0 0.41451879031453875 1 I I #
point $-1 -70.067954032730285 -4.5393963476531383 7.7417113806019309 #
plane-surface $-1 73.821832941679133 0 0 -1 0 0 0 0 1 forward_v I I I I #
coedge $-1 $226 $224 $228 $329 reversed $141 $-1 #
edge $-1 $239 -12.478028324238515 $331 12.478028324238515 $238 $388 forward 7 unknown #
vertex $-1 $329 $389 #
straight-curve $-1 -73.821832941679133 -45.716727690537645 0 0 0 -1 I I #
edge $-1 $327 -45.716727690537645 $331 45.716727690537645 $325 $390 forward 7 unknown #
straight-curve $-1 0 -45.716727690537645 -12.478028324238515 -1 0 0 I I #
vertex $-1 $231 $391 #
straight-curve $-1 0 45.716727690537645 -12.478028324238515 1 0 0 I I #
point $-1 73.821832941679133 45.716727690537645 -12.478028324238515 #
point $-1 73.821832941679133 -45.716727690537645 -12.478028324238515 #
straight-curve $-1 -73.821832941679133 0 12.478028324238515 0 -1 0 I I #
point $-1 -73.821832941679133 45.716727690537645 12.478028324238515 #
point $-1 -73.821832941679133 -45.716727690537645 12.478028324238515 #
straight-curve $-1 73.821832941679133 -45.716727690537645 0 0 0 -1 I I #
straight-curve $-1 73.821832941679133 45.716727690537645 0 0 0 -1 I I #
plane-surface $-1 73.821832941679133 0 0 -1 0 0 0 0 1 forward_v I I I I #
coedge $-1 $252 $251 $262 $352 reversed $96 $-1 #
coedge $-1 $392 $255 $252 $343 forward $249 $-1 #
edge $-1 $344 33.490529565304804 $393 45.716727690537645 $252 $394 forward 7 unknown #
vertex $-1 $343 $395 #
straight-curve $-1 -73.821832941679133 -33.490529565304804 4.722872981397586 0 0 -1 I I #
coedge $-1 $255 $392 $257 $348 forward $249 $-1 #
straight-curve $-1 0 -33.490529565304804 12.478028324238515 -1 0 0 I I #
edge $-1 $355 -45.716727690537645 $258 -33.490529565304804 $257 $396 forward 7 unknown #
point $-1 73.821832941679133 -33.490529565304804 12.478028324238515 #
straight-curve $-1 -73.821832941679133 -19.801814313960612 6.4134636013518289 0 -1 0 I I #
coedge $-1 $262 $261 $392 $397 reversed $160 $-1 #
edge $-1 $393 -12.478028324238515 $263 -6.4134636013518289 $341 $398 forward 7 unknown #
point $-1 -73.821832941679133 -45.716727690537645 6.4134636013518289 #
point $-1 -73.821832941679133 -33.490529565304804 6.4134636013518289 #
vertex $-1 $348 $399 #
straight-curve $-1 73.821832941679133 -45.716727690537645 0 0 0 -1 I I #
plane-surface $-1 0 45.716727690537645 0 0 -1 0 0 0 -1 forward_v I I I I #
coedge $-1 $274 $273 $367 $400 forward $104 $-1 #
edge $-1 $361 31.437372766352659 $370 45.716727690537645 $289 $401 forward 7 unknown #
edge $-1 $402 -45.716727690537645 $280 -31.437372766352659 $277 $403 forward 7 unknown #
vertex $-1 $359 $404 #
straight-curve $-1 0 31.437372766352659 12.478028324238515 1 0 0 I I #
coedge $-1 $278 $277 $284 $368 forward $271 $-1 #
point $-1 -73.821832941679133 31.437372766352659 5.1637947958822679 #
point $-1 -73.821832941679133 31.437372766352659 12.478028324238515 #
straight-curve $-1 -73.821832941679133 19.288525114222576 5.1637947958822679 0 -1 0 I I #
coedge $-1 $285 $284 $358 $400 reversed $286 $-1 #
edge $-1 $402 -12.478028324238515 $287 -5.1637947958822679 $284 $405 forward 7 unknown #
point $-1 -73.821832941679133 45.716727690537645 5.1637947958822679 #
vertex $-1 $359 $406 #
straight-curve $-1 73.821832941679133 45.716727690537645 0 0 0 -1 I I #
straight-curve $-1 73.821832941679133 31.437372766352659 4.4104557800301958 0 0 -1 I I #
edge $-1 $374 29.890794322453765 $377 40.192465790356053 $295 $407 forward 7 unknown #
vertex $-1 $309 $408 #
straight-curve $-1 -98.111990250413157 -2.9214200492464641 12.478028324238515 -1 0 0 I I #
edge $-1 $377 -0.56176034838511413 $306 7.5281211436482707 $305 $409 forward 7 unknown #
vertex $-1 $376 $410 #
straight-curve $-1 -73.821832941679105 -2.9214200492464641 2.1763568563362696 0.55919289150049634 0 0.82903758062907751 I I #
point $-1 -66.87326801528188 -2.9214200492464641 12.478028324238515 #
point $-1 -73.821832941679133 -11.011301541279849 2.1763568563362274 #
straight-curve $-1 -73.821832941679133 0 12.478028324238515 0 -1 0 I I #
vertex $-1 $312 $411 #
point $-1 -68.546466272791321 -9.3933252428731748 6.7154549602147098 #
vertex $-1 $316 $412 #
point $-1 -68.546466272791321 -6.9663607952631565 6.7154549602147098 #
vertex $-1 $320 $413 #
point $-1 -68.546466272791321 -4.5393963476531383 6.7154549602147098 #
straight-curve $-1 -73.821832941679133 45.716727690537645 0 0 0 -1 I I #
point $-1 -73.821832941679133 -45.716727690537645 -12.478028324238515 #
straight-curve $-1 -73.821832941679133 0 -12.478028324238515 0 1 0 I I #
point $-1 -73.821832941679133 45.716727690537645 -12.478028324238515 #
coedge $-1 $346 $342 $351 $397 forward $249 $-1 #
vertex $-1 $343 $414 #
straight-curve $-1 -73.821832941679133 0 12.478028324238515 0 -1 0 I I #
point $-1 -73.821832941679133 -33.490529565304804 12.478028324238515 #
straight-curve $-1 73.821832941679133 0 12.478028324238515 0 1 0 I I #
edge $-1 $393 -73.821832941679133 $355 73.821832941679133 $351 $415 forward 7 unknown #
straight-curve $-1 -73.821832941679133 -45.716727690537645 0 0 0 -1 I I #
point $-1 73.821832941679133 -45.716727690537645 12.478028324238515 #
edge $-1 $370 -73.821832941679133 $402 73.821832941679133 $367 $416 forward 7 unknown #
straight-curve $-1 73.821832941679133 0 12.478028324238515 0 1 0 I I #
vertex $-1 $400 $417 #
straight-curve $-1 -73.821832941679133 0 12.478028324238515 0 -1 0 I I #
point $-1 73.821832941679133 31.437372766352659 12.478028324238515 #
straight-curve $-1 -73.821832941679133 45.716727690537645 0 0 0 -1 I I #
point $-1 73.821832941679133 45.716727690537645 12.478028324238515 #
straight-curve $-1 -73.821832941679133 -2.9214200492464641 42.36882264669228 0 0 -1 I I #
point $-1 -73.821832941679133 -2.9214200492464641 12.478028324238515 #
straight-curve $-1 -73.821832941679133 -3.4831803976315783 2.1763568563362345 0 -1 0 I I #
point $-1 -73.821832941679133 -2.9214200492464641 2.1763568563362274 #
point $-1 -68.411543928227033 -9.3933252428731748 6.0213397241499225 #
point $-1 -68.411543928227033 -6.9663607952631565 6.0213397241499225 #
point $-1 -68.411543928227033 -4.5393963476531383 6.0213397241499225 #
point $-1 -73.821832941679133 -45.716727690537645 12.478028324238515 #
straight-curve $-1 0 -45.716727690537645 12.478028324238515 1 0 0 I I #
straight-curve $-1 0 45.716727690537645 12.478028324238515 -1 0 0 I I #
point $-1 -73.821832941679133 45.716727690537645 12.478028324238515 #
End-of-ACIS-data 