500 0 10 0           
7 Unknown 11 ACIS 5.0 NT 24 Fri Mar 26 20:12:37 1999 
-1 9.9999999999999995e-007 1e-010 
body $-1 $10 $-1 $11 #
body $-1 $12 $-1 $13 #
body $-1 $14 $-1 $15 #
body $-1 $16 $-1 $17 #
body $-1 $18 $-1 $19 #
body $-1 $20 $-1 $21 #
body $-1 $22 $-1 $23 #
body $-1 $24 $-1 $25 #
body $-1 $26 $-1 $27 #
body $-1 $28 $-1 $29 #
lump $-1 $-1 $30 $0 #
transform $-1 1 0 0 0 1 0 0 0 1 42.481765190588092 23.62692466984339 8.3372391886673842 1 rotate no_reflect no_shear #
lump $-1 $-1 $31 $1 #
transform $-1 1 0 0 0 1 0 0 0 1 42.481765190588092 23.62692466984339 8.3372391886673842 1 rotate no_reflect no_shear #
lump $-1 $-1 $32 $2 #
transform $-1 1 0 0 0 1 0 0 0 1 42.481765190588092 23.62692466984339 8.3372391886673842 1 rotate no_reflect no_shear #
lump $-1 $-1 $33 $3 #
transform $-1 1 0 0 0 1 0 0 0 1 42.481765190588092 23.62692466984339 8.3372391886673842 1 rotate no_reflect no_shear #
lump $-1 $-1 $34 $4 #
transform $-1 1 0 0 0 1 0 0 0 1 42.481765190588092 23.62692466984339 8.3372391886673842 1 rotate no_reflect no_shear #
lump $-1 $-1 $35 $5 #
transform $-1 1 0 0 0 1 0 0 0 1 42.481765190588092 23.62692466984339 8.3372391886673842 1 rotate no_reflect no_shear #
lump $-1 $-1 $36 $6 #
transform $-1 1 0 0 0 1 0 0 0 1 42.481765190588092 23.62692466984339 8.3372391886673842 1 rotate no_reflect no_shear #
lump $-1 $-1 $37 $7 #
transform $-1 1 0 0 0 1 0 0 0 1 42.481765190588092 23.62692466984339 8.3372391886673842 1 rotate no_reflect no_shear #
lump $-1 $-1 $38 $8 #
transform $-1 1 0 0 0 1 0 0 0 1 42.481765190588092 23.62692466984339 8.3372391886673842 1 rotate no_reflect no_shear #
lump $-1 $-1 $39 $9 #
transform $-1 1 0 0 0 1 0 0 0 1 42.481765190588092 23.62692466984339 8.3372391886673842 1 rotate no_reflect no_shear #
shell $-1 $-1 $-1 $40 $-1 $10 #
shell $-1 $-1 $-1 $41 $-1 $12 #
shell $-1 $-1 $-1 $42 $-1 $14 #
shell $-1 $-1 $-1 $43 $-1 $16 #
shell $-1 $-1 $-1 $44 $-1 $18 #
shell $-1 $-1 $-1 $45 $-1 $20 #
shell $-1 $-1 $-1 $46 $-1 $22 #
shell $-1 $-1 $-1 $47 $-1 $24 #
shell $-1 $-1 $-1 $48 $-1 $26 #
shell $-1 $-1 $-1 $49 $-1 $28 #
face $-1 $50 $51 $30 $-1 $52 forward single #
face $-1 $53 $54 $31 $-1 $55 reversed single #
face $-1 $56 $57 $32 $-1 $58 forward single #
face $-1 $59 $60 $33 $-1 $61 forward single #
face $-1 $62 $63 $34 $-1 $64 reversed single #
face $-1 $65 $66 $35 $-1 $67 forward single #
face $-1 $68 $69 $36 $-1 $70 forward single #
face $-1 $71 $72 $37 $-1 $73 reversed single #
face $-1 $74 $75 $38 $-1 $76 forward single #
face $-1 $77 $78 $39 $-1 $79 forward single #
face $-1 $80 $81 $30 $-1 $82 reversed single #
loop $-1 $-1 $83 $40 #
plane-surface $-1 0 0 8.3372391886673842 0 0 1 1 0 0 forward_v I I I I #
face $-1 $84 $85 $31 $-1 $86 reversed single #
loop $-1 $-1 $87 $41 #
plane-surface $-1 -88.756220995149704 11.335162220721628 75.031262137398699 0 1 0 -0.54463904215088732 0 0.83867056331134215 forward_v I I I I #
face $-1 $88 $89 $32 $-1 $90 forward single #
loop $-1 $91 $92 $42 #
cone-surface $-1 -38.176201466550005 13.969407489818984 4.8351899822024507 0.54463904215088732 0 -0.83867056331134215 0.83867056331134215 0 0.54463904215088732 1 I I 0 1 1 forward I I I I #
face $-1 $93 $94 $33 $-1 $95 forward single #
loop $-1 $96 $97 $43 #
cone-surface $-1 -38.176201466550005 17.920775393465014 4.8351899822024507 0.54463904215088732 0 -0.83867056331134215 0.83867056331134215 0 0.54463904215088732 1 I I 0 1 1 forward I I I I #
face $-1 $98 $99 $34 $-1 $100 reversed single #
loop $-1 $-1 $101 $44 #
plane-surface $-1 -6.2513127982880405 -18.079731495537814 74.584761855103707 0.81915205242281985 0 0.57357642473473569 0.57357642473473569 0 -0.81915205242281985 forward_v I I I I #
face $-1 $102 $103 $35 $-1 $104 forward single #
loop $-1 $105 $106 $45 #
cone-surface $-1 40.899156849291067 -20.457099998811632 6.375187163103635 -0.81915205242281985 0 -0.57357642473473569 0.28678821236736785 0 -0.40957602621140993 1 I I 0 1 0.5 forward I I I I #
face $-1 $107 $108 $36 $-1 $109 forward single #
loop $-1 $110 $111 $46 #
cone-surface $-1 40.899156849291067 -15.702362992263998 6.375187163103635 -0.81915205242281985 0 -0.57357642473473569 0.28678821236736785 0 -0.40957602621140993 1 I I 0 1 0.5 forward I I I I #
face $-1 $112 $113 $37 $-1 $114 reversed single #
loop $-1 $-1 $115 $47 #
plane-surface $-1 63.346737494541046 12.53253832123224 123.31783984397984 0 1 0 0.81915205242281985 0 0.57357642473473569 forward_v I I I I #
face $-1 $116 $117 $38 $-1 $118 forward single #
loop $-1 $119 $120 $48 #
cone-surface $-1 40.899156849291067 15.702362992263993 6.375187163103635 -0.81915205242281985 0 -0.57357642473473569 0.28678821236736785 0 -0.40957602621140993 1 I I 0 1 0.5 forward I I I I #
face $-1 $121 $122 $39 $-1 $123 forward single #
loop $-1 $124 $125 $49 #
cone-surface $-1 40.899156849291067 20.457099998811628 6.375187163103635 -0.81915205242281985 0 -0.57357642473473569 0.28678821236736785 0 -0.40957602621140993 1 I I 0 1 0.5 forward I I I I #
face $-1 $126 $127 $30 $-1 $128 reversed single #
loop $-1 $-1 $129 $50 #
plane-surface $-1 0 0 -8.3372391886673842 0 0 1 1 0 0 forward_v I I I I #
coedge $-1 $130 $131 $132 $133 forward $51 $-1 #
face $-1 $134 $135 $31 $-1 $136 reversed single #
loop $-1 $-1 $137 $53 #
plane-surface $-1 -42.481765190588092 15.945091441641999 3.7748502516973303 -0.54463904215088732 0 0.83867056331134215 0.83867056331134215 0 0.54463904215088732 forward_v I I I I #
coedge $-1 $138 $139 $140 $141 reversed $54 $-1 #
face $-1 $-1 $142 $32 $-1 $143 forward single #
loop $-1 $144 $145 $56 #
cone-surface $-1 -37.111049593670757 13.969407489818984 3.1949999625668699 0.54463904215088732 0 -0.83867056331134215 0.41933528165567108 0 0.27231952107544366 1 I I -0.70710678118654746 0.70710678118654746 0.5 forward I I I I #
loop $-1 $-1 $146 $42 #
coedge $-1 $92 $92 $147 $148 reversed $57 $-1 #
face $-1 $-1 $149 $33 $-1 $150 forward single #
loop $-1 $151 $152 $59 #
cone-surface $-1 -37.111049593670757 17.920775393465014 3.1949999625668699 0.54463904215088732 0 -0.83867056331134215 0.41933528165567108 0 0.27231952107544366 1 I I -0.70710678118654746 0.70710678118654746 0.5 forward I I I I #
loop $-1 $-1 $153 $43 #
coedge $-1 $97 $97 $154 $155 reversed $60 $-1 #
face $-1 $156 $157 $34 $-1 $158 reversed single #
loop $-1 $-1 $159 $62 #
plane-surface $-1 63.346737494541046 -12.53253832123224 123.31783984397984 0 -1 0 -0.81915205242281985 0 -0.57357642473473569 forward_v I I I I #
coedge $-1 $160 $161 $162 $163 reversed $63 $-1 #
face $-1 $-1 $164 $35 $-1 $165 forward single #
loop $-1 $166 $167 $65 #
cone-surface $-1 40.284792809973951 -20.457099998811632 5.9450048445525834 -0.81915205242281985 0 -0.57357642473473569 0.14339410618368392 0 -0.20478801310570496 1 I I -0.70710678118654746 0.70710678118654746 0.25 forward I I I I #
loop $-1 $-1 $168 $45 #
coedge $-1 $106 $106 $169 $170 reversed $66 $-1 #
face $-1 $-1 $171 $36 $-1 $172 forward single #
loop $-1 $173 $174 $68 #
cone-surface $-1 40.284792809973951 -15.702362992263998 5.9450048445525834 -0.81915205242281985 0 -0.57357642473473569 0.14339410618368392 0 -0.20478801310570496 1 I I -0.70710678118654746 0.70710678118654746 0.25 forward I I I I #
loop $-1 $-1 $175 $46 #
coedge $-1 $111 $111 $176 $177 reversed $69 $-1 #
face $-1 $178 $179 $37 $-1 $180 reversed single #
loop $-1 $-1 $181 $71 #
plane-surface $-1 -6.2513127982880405 18.079731495537814 74.584761855103707 0.81915205242281985 0 0.57357642473473569 0.57357642473473569 0 -0.81915205242281985 forward_v I I I I #
coedge $-1 $182 $183 $184 $185 reversed $72 $-1 #
face $-1 $-1 $186 $38 $-1 $187 forward single #
loop $-1 $188 $189 $74 #
cone-surface $-1 40.284792809973951 15.702362992263993 5.9450048445525834 -0.81915205242281985 0 -0.57357642473473569 0.14339410618368392 0 -0.20478801310570496 1 I I -0.70710678118654746 0.70710678118654746 0.25 forward I I I I #
loop $-1 $-1 $190 $48 #
coedge $-1 $120 $120 $191 $192 reversed $75 $-1 #
face $-1 $-1 $193 $39 $-1 $194 forward single #
loop $-1 $195 $196 $77 #
cone-surface $-1 40.284792809973951 20.457099998811628 5.9450048445525834 -0.81915205242281985 0 -0.57357642473473569 0.14339410618368392 0 -0.20478801310570496 1 I I -0.70710678118654746 0.70710678118654746 0.25 forward I I I I #
loop $-1 $-1 $197 $49 #
coedge $-1 $125 $125 $198 $199 reversed $78 $-1 #
face $-1 $200 $201 $30 $-1 $202 reversed single #
loop $-1 $-1 $203 $80 #
plane-surface $-1 0 -23.62692466984339 0 0 1 0 0 0 1 forward_v I I I I #
coedge $-1 $204 $205 $206 $207 forward $81 $-1 #
coedge $-1 $208 $83 $209 $210 forward $51 $-1 #
coedge $-1 $83 $208 $211 $212 forward $51 $-1 #
coedge $-1 $213 $214 $83 $133 reversed $215 $-1 #
edge $-1 $216 -23.62692466984339 $217 23.62692466984339 $132 $218 forward 7 unknown #
face $-1 $219 $220 $31 $-1 $221 reversed single #
loop $-1 $-1 $222 $84 #
plane-surface $-1 -88.756220995149704 20.55502066256237 75.031262137398699 0 -1 0 0.54463904215088732 0 -0.83867056331134215 forward_v I I I I #
coedge $-1 $223 $224 $225 $226 reversed $85 $-1 #
coedge $-1 $139 $87 $227 $228 reversed $54 $-1 #
coedge $-1 $87 $138 $223 $229 reversed $54 $-1 #
coedge $-1 $225 $230 $87 $141 forward $231 $-1 #
edge $-1 $232 1.8963453069867597 $233 8.9218080514553364 $140 $234 forward 7 unknown #
loop $-1 $-1 $147 $88 #
plane-surface $-1 -42.481765190588092 15.945091441641999 3.7748502516973303 -0.54463904215088732 0 0.83867056331134215 0.83867056331134215 0 0.54463904215088732 forward_v I I I I #
loop $-1 $-1 $235 $56 #
coedge $-1 $145 $145 $146 $236 reversed $89 $-1 #
coedge $-1 $146 $146 $145 $236 forward $91 $-1 #
coedge $-1 $147 $147 $92 $148 forward $142 $-1 #
edge $-1 $237 0 $237 6.2831853071796004 $147 $238 forward 7 unknown #
loop $-1 $-1 $154 $93 #
plane-surface $-1 -42.481765190588092 15.945091441641999 3.7748502516973303 -0.54463904215088732 0 0.83867056331134215 0.83867056331134215 0 0.54463904215088732 forward_v I I I I #
loop $-1 $-1 $239 $59 #
coedge $-1 $152 $152 $153 $240 reversed $94 $-1 #
coedge $-1 $153 $153 $152 $240 forward $96 $-1 #
coedge $-1 $154 $154 $97 $155 forward $149 $-1 #
edge $-1 $241 0 $241 6.2831853071796004 $154 $242 forward 7 unknown #
face $-1 $243 $244 $34 $-1 $245 forward single #
loop $-1 $-1 $162 $98 #
plane-surface $-1 42.481765190588092 0 0 -1 0 0 0 0 1 forward_v I I I I #
coedge $-1 $246 $247 $248 $249 reversed $99 $-1 #
coedge $-1 $250 $101 $251 $252 reversed $63 $-1 #
coedge $-1 $101 $250 $246 $253 forward $63 $-1 #
coedge $-1 $248 $254 $101 $163 forward $157 $-1 #
edge $-1 $255 -14.587058922074483 $256 -3.4926725734633326 $162 $257 forward 7 unknown #
loop $-1 $-1 $169 $102 #
plane-surface $-1 -6.2513127982880405 -18.079731495537814 74.584761855103707 0.81915205242281985 0 0.57357642473473569 0.57357642473473569 0 -0.81915205242281985 forward_v I I I I #
loop $-1 $-1 $258 $65 #
coedge $-1 $167 $167 $168 $259 reversed $103 $-1 #
coedge $-1 $168 $168 $167 $259 forward $105 $-1 #
coedge $-1 $169 $169 $106 $170 forward $164 $-1 #
edge $-1 $260 0 $260 6.2831853071796004 $169 $261 forward 7 unknown #
loop $-1 $-1 $176 $107 #
plane-surface $-1 -6.2513127982880405 -18.079731495537814 74.584761855103707 0.81915205242281985 0 0.57357642473473569 0.57357642473473569 0 -0.81915205242281985 forward_v I I I I #
loop $-1 $-1 $262 $68 #
coedge $-1 $174 $174 $175 $263 reversed $108 $-1 #
coedge $-1 $175 $175 $174 $263 forward $110 $-1 #
coedge $-1 $176 $176 $111 $177 forward $171 $-1 #
edge $-1 $264 0 $264 6.2831853071796004 $176 $265 forward 7 unknown #
face $-1 $266 $267 $37 $-1 $268 reversed single #
loop $-1 $-1 $184 $112 #
plane-surface $-1 42.481765190588092 0 0 -1 0 0 0 0 1 forward_v I I I I #
coedge $-1 $269 $270 $271 $272 reversed $113 $-1 #
coedge $-1 $183 $115 $273 $274 reversed $72 $-1 #
coedge $-1 $115 $182 $269 $275 reversed $72 $-1 #
coedge $-1 $271 $276 $115 $185 forward $179 $-1 #
edge $-1 $277 53.321680733322538 $278 56.672208359715299 $184 $279 forward 7 unknown #
loop $-1 $-1 $191 $116 #
plane-surface $-1 -6.2513127982880405 18.079731495537814 74.584761855103707 0.81915205242281985 0 0.57357642473473569 0.57357642473473569 0 -0.81915205242281985 forward_v I I I I #
loop $-1 $-1 $280 $74 #
coedge $-1 $189 $189 $190 $281 reversed $117 $-1 #
coedge $-1 $190 $190 $189 $281 forward $119 $-1 #
coedge $-1 $191 $191 $120 $192 forward $186 $-1 #
edge $-1 $282 0 $282 6.2831853071796004 $191 $283 forward 7 unknown #
loop $-1 $-1 $198 $121 #
plane-surface $-1 -6.2513127982880405 18.079731495537814 74.584761855103707 0.81915205242281985 0 0.57357642473473569 0.57357642473473569 0 -0.81915205242281985 forward_v I I I I #
loop $-1 $-1 $284 $77 #
coedge $-1 $196 $196 $197 $285 reversed $122 $-1 #
coedge $-1 $197 $197 $196 $285 forward $124 $-1 #
coedge $-1 $198 $198 $125 $199 forward $193 $-1 #
edge $-1 $286 0 $286 6.2831853071796004 $198 $287 forward 7 unknown #
face $-1 $288 $289 $30 $-1 $290 reversed single #
loop $-1 $-1 $291 $126 #
plane-surface $-1 -42.481765190588092 0 0 1 0 0 0 0 -1 forward_v I I I I #
coedge $-1 $292 $211 $293 $294 forward $127 $-1 #
coedge $-1 $295 $129 $292 $296 forward $81 $-1 #
coedge $-1 $129 $295 $297 $298 forward $81 $-1 #
coedge $-1 $214 $213 $129 $207 reversed $215 $-1 #
edge $-1 $299 -23.62692466984339 $300 23.62692466984339 $206 $301 forward 7 unknown #
coedge $-1 $131 $130 $302 $303 forward $51 $-1 #
coedge $-1 $304 $305 $130 $210 reversed $289 $-1 #
edge $-1 $217 -42.481765190588092 $306 42.481765190588092 $209 $307 forward 7 unknown #
coedge $-1 $203 $308 $131 $212 reversed $127 $-1 #
edge $-1 $309 -42.481765190588092 $216 42.481765190588092 $211 $310 forward 7 unknown #
coedge $-1 $206 $132 $308 $311 forward $215 $-1 #
coedge $-1 $132 $206 $304 $312 reversed $215 $-1 #
loop $-1 $-1 $213 $288 #
vertex $-1 $133 $313 #
vertex $-1 $133 $314 #
straight-curve $-1 42.481765190588092 0 8.3372391886673842 0 1 0 I I #
face $-1 $-1 $231 $31 $-1 $315 forward single #
loop $-1 $-1 $316 $134 #
plane-surface $-1 -42.481765190588092 0 0 1 0 0 0 0 -1 forward_v I I I I #
coedge $-1 $317 $318 $319 $320 reversed $135 $-1 #
coedge $-1 $321 $137 $139 $229 forward $85 $-1 #
coedge $-1 $137 $321 $317 $322 forward $85 $-1 #
coedge $-1 $319 $140 $137 $226 forward $231 $-1 #
edge $-1 $233 3.3626164999006285 $323 12.582474941741371 $225 $324 forward 7 unknown #
coedge $-1 $325 $326 $138 $228 forward $220 $-1 #
edge $-1 $327 -33.740780817002019 $232 -29.178391880031967 $227 $328 forward 7 unknown #
edge $-1 $233 -8.3769039379774846 $327 0 $139 $329 forward 7 unknown #
coedge $-1 $140 $319 $325 $330 forward $231 $-1 #
loop $-1 $-1 $319 $219 #
vertex $-1 $228 $331 #
vertex $-1 $141 $332 #
straight-curve $-1 -44.378110497574852 11.335162220721628 8.3372391886673825 1 0 0 I I #
coedge $-1 $235 $235 $-1 $333 reversed $144 $-1 #
edge $-1 $334 0 $334 6.2831853071796004 $145 $335 forward 7 unknown #
vertex $-1 $148 $336 #
ellipse-curve $-1 -38.9690338183538 13.969407489818984 6.0560447201823564 -0.54463904215088732 0 0.83867056331134215 0.83867056331134215 0 0.54463904215088732 1 I I #
coedge $-1 $239 $239 $-1 $337 reversed $151 $-1 #
edge $-1 $338 0 $338 6.2831853071796004 $152 $339 forward 7 unknown #
vertex $-1 $155 $340 #
ellipse-curve $-1 -38.9690338183538 17.920775393465014 6.0560447201823564 -0.54463904215088732 0 0.83867056331134215 0.83867056331134215 0 0.54463904215088732 1 I I #
face $-1 $-1 $341 $34 $-1 $342 reversed single #
loop $-1 $-1 $343 $156 #
plane-surface $-1 0 0 8.3372391886673842 0 0 1 1 0 0 forward_v I I I I #
coedge $-1 $247 $159 $161 $253 reversed $99 $-1 #
coedge $-1 $159 $246 $343 $344 reversed $99 $-1 #
coedge $-1 $345 $162 $159 $249 forward $157 $-1 #
edge $-1 $256 -56.672208359715299 $346 -53.321680733322538 $248 $347 forward 7 unknown #
coedge $-1 $161 $160 $348 $349 reversed $63 $-1 #
coedge $-1 $350 $351 $160 $252 forward $341 $-1 #
edge $-1 $352 48.532358237639002 $255 52.622597182268201 $251 $353 forward 7 unknown #
edge $-1 $354 80.873291436546992 $256 84.963530381176199 $246 $355 forward 7 unknown #
coedge $-1 $162 $345 $350 $356 forward $157 $-1 #
vertex $-1 $252 $357 #
vertex $-1 $163 $358 #
straight-curve $-1 42.481765190588092 -9.0398657477689071 4.9867115622746141 0 1 0 I I #
coedge $-1 $258 $258 $-1 $359 reversed $166 $-1 #
edge $-1 $360 0 $360 6.2831853071796004 $167 $361 forward 7 unknown #
vertex $-1 $170 $362 #
ellipse-curve $-1 41.308732875502486 -20.457099998811632 6.6619753754710107 0.81915205242281985 0 0.57357642473473569 0.28678821236736785 0 -0.40957602621140993 1 I I #
coedge $-1 $262 $262 $-1 $363 reversed $173 $-1 #
edge $-1 $364 0 $364 6.2831853071796004 $174 $365 forward 7 unknown #
vertex $-1 $177 $366 #
ellipse-curve $-1 41.308732875502486 -15.702362992263998 6.6619753754710107 0.81915205242281985 0 0.57357642473473569 0.28678821236736785 0 -0.40957602621140993 1 I I #
face $-1 $-1 $367 $37 $-1 $368 forward single #
loop $-1 $-1 $369 $178 #
plane-surface $-1 0 23.62692466984339 0 0 -1 0 0 0 -1 forward_v I I I I #
coedge $-1 $370 $181 $183 $275 forward $113 $-1 #
coedge $-1 $181 $370 $369 $371 reversed $113 $-1 #
coedge $-1 $372 $184 $181 $272 forward $179 $-1 #
edge $-1 $278 3.4926725734633326 $373 14.587058922074483 $271 $374 forward 7 unknown #
coedge $-1 $375 $376 $182 $274 forward $367 $-1 #
edge $-1 $377 8.4623318131463776 $277 10.808396443317569 $273 $378 forward 7 unknown #
edge $-1 $278 -84.963530381176199 $377 -80.873291436546992 $183 $379 forward 7 unknown #
coedge $-1 $184 $372 $375 $380 reversed $179 $-1 #
vertex $-1 $380 $381 #
vertex $-1 $185 $382 #
straight-curve $-1 42.481765190588092 12.53253832123224 61.65891992198992 0 0 -1 I I #
coedge $-1 $280 $280 $-1 $383 reversed $188 $-1 #
edge $-1 $384 0 $384 6.2831853071796004 $189 $385 forward 7 unknown #
vertex $-1 $192 $386 #
ellipse-curve $-1 41.308732875502486 15.702362992263993 6.6619753754710107 0.81915205242281985 0 0.57357642473473569 0.28678821236736785 0 -0.40957602621140993 1 I I #
coedge $-1 $284 $284 $-1 $387 reversed $195 $-1 #
edge $-1 $388 0 $388 6.2831853071796004 $196 $389 forward 7 unknown #
vertex $-1 $199 $390 #
ellipse-curve $-1 41.308732875502486 20.457099998811628 6.6619753754710107 0.81915205242281985 0 0.57357642473473569 0.28678821236736785 0 -0.40957602621140993 1 I I #
face $-1 $-1 $215 $30 $-1 $391 reversed single #
loop $-1 $-1 $304 $200 #
plane-surface $-1 0 23.62692466984339 0 0 -1 0 0 0 -1 forward_v I I I I #
coedge $-1 $392 $302 $305 $393 forward $201 $-1 #
coedge $-1 $308 $203 $204 $296 reversed $127 $-1 #
coedge $-1 $302 $392 $203 $294 reversed $201 $-1 #
edge $-1 $309 -8.3372391886673842 $394 8.3372391886673842 $293 $395 forward 7 unknown #
coedge $-1 $205 $204 $392 $396 forward $81 $-1 #
edge $-1 $300 -42.481765190588092 $394 42.481765190588092 $292 $397 forward 7 unknown #
coedge $-1 $305 $304 $205 $298 reversed $289 $-1 #
edge $-1 $398 -42.481765190588092 $299 42.481765190588092 $297 $399 forward 7 unknown #
vertex $-1 $207 $400 #
vertex $-1 $311 $401 #
straight-curve $-1 42.481765190588092 0 -8.3372391886673842 0 -1 0 I I #
coedge $-1 $291 $293 $208 $303 reversed $201 $-1 #
edge $-1 $306 -23.62692466984339 $309 23.62692466984339 $302 $402 forward 7 unknown #
coedge $-1 $297 $209 $214 $312 forward $289 $-1 #
coedge $-1 $209 $297 $291 $393 reversed $289 $-1 #
vertex $-1 $210 $403 #
straight-curve $-1 0 23.62692466984339 8.3372391886673842 -1 0 0 I I #
coedge $-1 $211 $292 $213 $311 reversed $127 $-1 #
vertex $-1 $303 $404 #
straight-curve $-1 0 -23.62692466984339 8.3372391886673842 1 0 0 I I #
edge $-1 $216 -8.3372391886673842 $300 8.3372391886673842 $213 $405 forward 7 unknown #
edge $-1 $217 -8.3372391886673842 $299 8.3372391886673842 $214 $406 forward 7 unknown #
point $-1 42.481765190588092 -23.62692466984339 8.3372391886673842 #
point $-1 42.481765190588092 23.62692466984339 8.3372391886673842 #
plane-surface $-1 0 0 8.3372391886673842 0 0 1 1 0 0 forward_v I I I I #
coedge $-1 $326 $325 $318 $407 forward $220 $-1 #
coedge $-1 $318 $222 $224 $322 reversed $135 $-1 #
coedge $-1 $222 $317 $316 $407 reversed $135 $-1 #
coedge $-1 $230 $225 $222 $320 forward $231 $-1 #
edge $-1 $323 -8.9218080514553364 $408 -1.8963453069867597 $319 $409 forward 7 unknown #
coedge $-1 $224 $223 $326 $410 reversed $85 $-1 #
edge $-1 $411 0 $323 8.3769039379774846 $317 $412 forward 7 unknown #
vertex $-1 $226 $413 #
straight-curve $-1 -35.456302446119516 7.9725457208209995 8.3372391886673842 0 1 0 I I #
coedge $-1 $316 $227 $230 $330 reversed $220 $-1 #
coedge $-1 $227 $316 $321 $410 forward $220 $-1 #
vertex $-1 $228 $414 #
straight-curve $-1 -42.481765190588092 11.335162220721628 37.515631068699349 0 0 1 I I #
straight-curve $-1 -42.481765190588092 11.335162220721628 3.7748502516973303 -0.83867056331134215 0 -0.54463904215088732 I I #
edge $-1 $408 -20.55502066256237 $232 -11.335162220721628 $325 $415 forward 7 unknown #
point $-1 -42.481765190588092 11.335162220721628 8.3372391886673842 #
point $-1 -35.456302446119516 11.335162220721628 8.3372391886673842 #
edge $-1 $416 1 $416 0 $235 $-1 forward 7 unknown #
vertex $-1 $236 $417 #
ellipse-curve $-1 -37.383369114746202 13.969407489818984 3.6143352442225409 -0.54463904215088732 0 0.83867056331134215 0.83867056331134215 0 0.54463904215088732 1 I I #
point $-1 -38.130363255042461 13.969407489818984 6.6006837623332473 #
edge $-1 $418 1 $418 0 $239 $-1 forward 7 unknown #
vertex $-1 $240 $419 #
ellipse-curve $-1 -37.383369114746202 17.920775393465014 3.6143352442225409 -0.54463904215088732 0 0.83867056331134215 0.83867056331134215 0 0.54463904215088732 1 I I #
point $-1 -38.130363255042461 17.920775393465014 6.6006837623332473 #
loop $-1 $-1 $251 $243 #
plane-surface $-1 0 -23.62692466984339 0 0 1 0 0 0 1 forward_v I I I I #
coedge $-1 $348 $420 $247 $344 forward $244 $-1 #
edge $-1 $346 -10.808396443317569 $354 -8.4623318131463776 $343 $421 forward 7 unknown #
coedge $-1 $254 $248 $420 $422 reversed $157 $-1 #
vertex $-1 $249 $423 #
straight-curve $-1 42.481765190588092 -12.53253832123224 61.65891992198992 0 0 1 I I #
coedge $-1 $424 $343 $250 $349 forward $244 $-1 #
edge $-1 $354 3.4926725734633326 $352 14.587058922074483 $348 $425 forward 7 unknown #
coedge $-1 $351 $251 $254 $356 reversed $341 $-1 #
coedge $-1 $251 $350 $424 $426 reversed $341 $-1 #
vertex $-1 $426 $427 #
straight-curve $-1 12.298684038526527 -23.62692466984339 48.092620047948913 0.57357642473473569 0 -0.81915205242281985 I I #
vertex $-1 $349 $428 #
straight-curve $-1 -6.2513127982880405 -12.53253832123224 74.584761855103707 0.57357642473473569 0 -0.81915205242281985 I I #
edge $-1 $429 -8.3372391886673842 $255 -4.986711562274623 $254 $430 forward 7 unknown #
point $-1 42.481765190588092 -23.62692466984339 4.986711562274623 #
point $-1 42.481765190588092 -12.53253832123224 4.9867115622746212 #
edge $-1 $431 1 $431 0 $258 $-1 forward 7 unknown #
vertex $-1 $259 $432 #
ellipse-curve $-1 40.489580823079656 -20.457099998811632 6.0883989507362672 0.81915205242281985 0 0.57357642473473569 0.28678821236736785 0 -0.40957602621140993 1 I I #
point $-1 41.595521087869841 -20.457099998811632 6.2523993492595933 #
edge $-1 $433 1 $433 0 $262 $-1 forward 7 unknown #
vertex $-1 $263 $434 #
ellipse-curve $-1 40.489580823079656 -15.702362992263998 6.0883989507362672 0.81915205242281985 0 0.57357642473473569 0.28678821236736785 0 -0.40957602621140993 1 I I #
point $-1 41.595521087869841 -15.702362992263998 6.2523993492595933 #
loop $-1 $-1 $273 $266 #
plane-surface $-1 0 0 8.3372391886673842 0 0 1 1 0 0 forward_v I I I I #
coedge $-1 $435 $436 $270 $371 forward $267 $-1 #
coedge $-1 $270 $269 $376 $437 reversed $113 $-1 #
edge $-1 $373 -52.622597182268201 $438 -48.532358237639002 $369 $439 forward 7 unknown #
coedge $-1 $276 $271 $436 $440 reversed $179 $-1 #
vertex $-1 $371 $441 #
straight-curve $-1 42.481765190588092 9.0398657477689071 4.9867115622746141 0 1 0 I I #
coedge $-1 $442 $273 $276 $380 forward $367 $-1 #
coedge $-1 $273 $442 $370 $437 forward $367 $-1 #
vertex $-1 $274 $443 #
straight-curve $-1 31.673368747270523 12.53253832123224 8.3372391886673825 1 0 0 I I #
straight-curve $-1 -6.2513127982880405 12.53253832123224 74.584761855103707 -0.57357642473473569 0 0.81915205242281985 I I #
edge $-1 $277 12.53253832123224 $444 23.62692466984339 $276 $445 forward 7 unknown #
point $-1 42.481765190588092 12.53253832123224 8.3372391886673842 #
point $-1 42.481765190588092 12.53253832123224 4.9867115622746212 #
edge $-1 $446 1 $446 0 $280 $-1 forward 7 unknown #
vertex $-1 $281 $447 #
ellipse-curve $-1 40.489580823079656 15.702362992263993 6.0883989507362672 0.81915205242281985 0 0.57357642473473569 0.28678821236736785 0 -0.40957602621140993 1 I I #
point $-1 41.595521087869841 15.702362992263993 6.2523993492595933 #
edge $-1 $448 1 $448 0 $284 $-1 forward 7 unknown #
vertex $-1 $285 $449 #
ellipse-curve $-1 40.489580823079656 20.457099998811628 6.0883989507362672 0.81915205242281985 0 0.57357642473473569 0.28678821236736785 0 -0.40957602621140993 1 I I #
point $-1 41.595521087869841 20.457099998811628 6.2523993492595933 #
plane-surface $-1 42.481765190588092 0 0 -1 0 0 0 0 1 forward_v I I I I #
coedge $-1 $293 $291 $295 $396 reversed $201 $-1 #
edge $-1 $306 -8.3372391886673842 $398 8.3372391886673842 $305 $450 forward 7 unknown #
vertex $-1 $396 $451 #
straight-curve $-1 -42.481765190588092 -23.62692466984339 0 0 0 -1 I I #
edge $-1 $394 -23.62692466984339 $398 23.62692466984339 $392 $452 forward 7 unknown #
straight-curve $-1 0 -23.62692466984339 -8.3372391886673842 -1 0 0 I I #
vertex $-1 $298 $453 #
straight-curve $-1 0 23.62692466984339 -8.3372391886673842 1 0 0 I I #
point $-1 42.481765190588092 23.62692466984339 -8.3372391886673842 #
point $-1 42.481765190588092 -23.62692466984339 -8.3372391886673842 #
straight-curve $-1 -42.481765190588092 0 8.3372391886673842 0 -1 0 I I #
point $-1 -42.481765190588092 23.62692466984339 8.3372391886673842 #
point $-1 -42.481765190588092 -23.62692466984339 8.3372391886673842 #
straight-curve $-1 42.481765190588092 -23.62692466984339 0 0 0 -1 I I #
straight-curve $-1 42.481765190588092 23.62692466984339 0 0 0 -1 I I #
edge $-1 $408 29.178391880031967 $411 33.740780817002019 $316 $454 forward 7 unknown #
vertex $-1 $330 $455 #
straight-curve $-1 -44.378110497574852 20.55502066256237 8.3372391886673825 -1 0 0 I I #
edge $-1 $411 -12.582474941741371 $327 -3.3626164999006285 $326 $456 forward 7 unknown #
vertex $-1 $410 $457 #
straight-curve $-1 -42.481765190588092 20.55502066256237 3.7748502516973303 0.83867056331134215 0 0.54463904215088732 I I #
point $-1 -35.456302446119516 20.55502066256237 8.3372391886673842 #
point $-1 -42.481765190588092 11.335162220721628 3.7748502516973303 #
straight-curve $-1 -42.481765190588092 0 8.3372391886673842 0 -1 0 I I #
vertex $-1 $333 $458 #
point $-1 -36.544698551434855 13.969407489818984 4.1589742863734287 #
vertex $-1 $337 $459 #
point $-1 -36.544698551434855 17.920775393465014 4.1589742863734287 #
coedge $-1 $343 $424 $345 $422 forward $244 $-1 #
straight-curve $-1 31.673368747270523 -12.53253832123224 8.3372391886673825 -1 0 0 I I #
edge $-1 $429 -23.62692466984339 $346 -12.53253832123224 $345 $460 forward 7 unknown #
point $-1 42.481765190588092 -12.53253832123224 8.3372391886673842 #
coedge $-1 $420 $348 $351 $426 forward $244 $-1 #
straight-curve $-1 40.135700560416907 -9.0398657477689071 8.3372391886673825 0 -1 0 I I #
edge $-1 $352 40.1357005604169 $429 42.481765190588092 $351 $461 forward 7 unknown #
point $-1 40.1357005604169 -23.62692466984339 8.3372391886673825 #
point $-1 40.1357005604169 -12.53253832123224 8.3372391886673825 #
vertex $-1 $422 $462 #
straight-curve $-1 42.481765190588092 -23.62692466984339 0 0 0 -1 I I #
vertex $-1 $359 $463 #
point $-1 40.776369035447026 -20.457099998811632 5.6788229245248569 #
vertex $-1 $363 $464 #
point $-1 40.776369035447026 -15.702362992263998 5.6788229245248569 #
coedge $-1 $436 $369 $442 $465 reversed $267 $-1 #
coedge $-1 $369 $435 $372 $440 forward $267 $-1 #
edge $-1 $438 -14.587058922074483 $377 -3.4926725734633326 $376 $466 forward 7 unknown #
vertex $-1 $371 $467 #
straight-curve $-1 12.298684038526527 23.62692466984339 48.092620047948913 -0.57357642473473569 0 0.81915205242281985 I I #
edge $-1 $444 -8.3372391886673842 $373 -4.9867115622746212 $372 $468 forward 7 unknown #
point $-1 42.481765190588092 23.62692466984339 4.9867115622746212 #
coedge $-1 $376 $375 $435 $465 forward $367 $-1 #
point $-1 40.1357005604169 12.53253832123224 8.3372391886673825 #
vertex $-1 $380 $469 #
straight-curve $-1 42.481765190588092 0 8.3372391886673842 0 1 0 I I #
vertex $-1 $383 $470 #
point $-1 40.776369035447026 15.702362992263993 5.6788229245248569 #
vertex $-1 $387 $471 #
point $-1 40.776369035447026 20.457099998811628 5.6788229245248569 #
straight-curve $-1 -42.481765190588092 23.62692466984339 0 0 0 -1 I I #
point $-1 -42.481765190588092 -23.62692466984339 -8.3372391886673842 #
straight-curve $-1 -42.481765190588092 0 -8.3372391886673842 0 1 0 I I #
point $-1 -42.481765190588092 23.62692466984339 -8.3372391886673842 #
straight-curve $-1 -42.481765190588092 20.55502066256237 37.515631068699349 0 0 -1 I I #
point $-1 -42.481765190588092 20.55502066256237 8.3372391886673842 #
straight-curve $-1 -42.481765190588092 7.9725457208209995 3.7748502516973286 0 -1 0 I I #
point $-1 -42.481765190588092 20.55502066256237 3.7748502516973303 #
point $-1 -36.838730072595311 13.969407489818984 2.7756646809111989 #
point $-1 -36.838730072595311 17.920775393465014 2.7756646809111989 #
straight-curve $-1 42.481765190588092 0 8.3372391886673842 0 1 0 I I #
straight-curve $-1 0 -23.62692466984339 8.3372391886673842 1 0 0 I I #
point $-1 42.481765190588092 -23.62692466984339 8.3372391886673842 #
point $-1 40.080004796868245 -20.457099998811632 5.8016107383688995 #
point $-1 40.080004796868245 -15.702362992263998 5.8016107383688995 #
edge $-1 $444 -42.481765190588092 $438 -40.1357005604169 $435 $472 forward 7 unknown #
straight-curve $-1 40.135700560416907 9.0398657477689071 8.3372391886673825 0 -1 0 I I #
point $-1 40.1357005604169 23.62692466984339 8.3372391886673825 #
straight-curve $-1 42.481765190588092 23.62692466984339 0 0 0 -1 I I #
point $-1 42.481765190588092 23.62692466984339 8.3372391886673842 #
point $-1 40.080004796868245 15.702362992263993 5.8016107383688995 #
point $-1 40.080004796868245 20.457099998811628 5.8016107383688995 #
straight-curve $-1 0 23.62692466984339 8.3372391886673842 -1 0 0 I I #
End-of-ACIS-data 