500 0 8 0           
7 Unknown 11 ACIS 5.0 NT 24 Thu Mar 25 22:06:10 1999 
-1 9.9999999999999995e-007 1e-010 
body $-1 $8 $-1 $9 #
body $-1 $10 $-1 $11 #
body $-1 $12 $-1 $13 #
body $-1 $14 $-1 $15 #
body $-1 $16 $-1 $17 #
body $-1 $18 $-1 $19 #
body $-1 $20 $-1 $21 #
body $-1 $22 $-1 $23 #
lump $-1 $-1 $24 $0 #
transform $-1 1 0 0 0 1 0 0 0 1 51.523789178136539 26.550939585851278 7.1430754364181448 1 rotate no_reflect no_shear #
lump $-1 $-1 $25 $1 #
transform $-1 1 0 0 0 1 0 0 0 1 51.523789178136539 26.550939585851278 7.1430754364181448 1 rotate no_reflect no_shear #
lump $-1 $-1 $26 $2 #
transform $-1 1 0 0 0 1 0 0 0 1 51.523789178136539 26.550939585851278 7.1430754364181448 1 rotate no_reflect no_shear #
lump $-1 $-1 $27 $3 #
transform $-1 1 0 0 0 1 0 0 0 1 51.523789178136539 26.550939585851278 7.1430754364181448 1 rotate no_reflect no_shear #
lump $-1 $-1 $28 $4 #
transform $-1 1 0 0 0 1 0 0 0 1 51.523789178136539 26.550939585851278 7.1430754364181448 1 rotate no_reflect no_shear #
lump $-1 $-1 $29 $5 #
transform $-1 1 0 0 0 1 0 0 0 1 51.523789178136539 26.550939585851278 7.1430754364181448 1 rotate no_reflect no_shear #
lump $-1 $-1 $30 $6 #
transform $-1 1 0 0 0 1 0 0 0 1 51.523789178136539 26.550939585851278 7.1430754364181448 1 rotate no_reflect no_shear #
lump $-1 $-1 $31 $7 #
transform $-1 1 0 0 0 1 0 0 0 1 51.523789178136539 26.550939585851278 7.1430754364181448 1 rotate no_reflect no_shear #
shell $-1 $-1 $-1 $32 $-1 $8 #
shell $-1 $-1 $-1 $33 $-1 $10 #
shell $-1 $-1 $-1 $34 $-1 $12 #
shell $-1 $-1 $-1 $35 $-1 $14 #
shell $-1 $-1 $-1 $36 $-1 $16 #
shell $-1 $-1 $-1 $37 $-1 $18 #
shell $-1 $-1 $-1 $38 $-1 $20 #
shell $-1 $-1 $-1 $39 $-1 $22 #
face $-1 $40 $41 $24 $-1 $42 reversed single #
face $-1 $43 $44 $25 $-1 $45 forward single #
face $-1 $46 $47 $26 $-1 $48 reversed single #
face $-1 $49 $50 $27 $-1 $51 forward single #
face $-1 $52 $53 $28 $-1 $54 forward single #
face $-1 $55 $56 $29 $-1 $57 reversed single #
face $-1 $58 $59 $30 $-1 $60 forward single #
face $-1 $61 $62 $31 $-1 $63 forward single #
face $-1 $64 $65 $24 $-1 $66 forward single #
loop $-1 $-1 $67 $32 #
plane-surface $-1 0 -26.550939585851278 0 0 1 0 0 0 1 forward_v I I I I #
face $-1 $68 $69 $25 $-1 $70 reversed single #
loop $-1 $-1 $71 $33 #
plane-surface $-1 0 -26.550939585851278 0 0 1 0 0 0 1 forward_v I I I I #
face $-1 $72 $73 $26 $-1 $74 reversed single #
loop $-1 $-1 $75 $34 #
plane-surface $-1 21.224552962140422 0.23219290612494703 145.20423111490777 0 -1 0 -0.54463904215088732 0 -0.83867056331134215 forward_v I I I I #
face $-1 $76 $77 $27 $-1 $78 forward single #
loop $-1 $79 $80 $35 #
cone-surface $-1 47.566577216166436 -6.9698761058148015 4.1247602395782339 -0.54463904215088732 0 -0.83867056331134215 0.83867056331134215 0 -0.54463904215088732 1 I I 0 1 1 forward I I I I #
face $-1 $81 $82 $28 $-1 $83 forward single #
loop $-1 $84 $85 $36 #
cone-surface $-1 47.566577216166436 -2.6486346986509481 4.1247602395782339 -0.54463904215088732 0 -0.83867056331134215 0.83867056331134215 0 -0.54463904215088732 1 I I 0 1 1 forward I I I I #
face $-1 $86 $87 $29 $-1 $88 reversed single #
loop $-1 $-1 $89 $37 #
plane-surface $-1 21.224552962140422 15.984339877885901 145.20423111490777 0 -1 0 -0.54463904215088732 0 -0.83867056331134215 forward_v I I I I #
face $-1 $90 $91 $30 $-1 $92 forward single #
loop $-1 $93 $94 $38 #
cone-surface $-1 47.566577216166436 8.7822708659461561 4.1247602395782339 -0.54463904215088732 0 -0.83867056331134215 0.83867056331134215 0 -0.54463904215088732 1 I I 0 1 1 forward I I I I #
face $-1 $95 $96 $31 $-1 $97 forward single #
loop $-1 $98 $99 $39 #
cone-surface $-1 47.566577216166436 13.10351227311001 4.1247602395782339 -0.54463904215088732 0 -0.83867056331134215 0.83867056331134215 0 -0.54463904215088732 1 I I 0 1 1 forward I I I I #
face $-1 $100 $101 $24 $-1 $102 reversed single #
loop $-1 $-1 $103 $40 #
plane-surface $-1 0 0 7.1430754364181448 0 0 1 1 0 0 forward_v I I I I #
coedge $-1 $104 $105 $106 $107 reversed $41 $-1 #
face $-1 $108 $109 $25 $-1 $110 reversed single #
loop $-1 $-1 $111 $43 #
plane-surface $-1 0 0 -7.1430754364181448 0 0 1 1 0 0 forward_v I I I I #
coedge $-1 $112 $113 $114 $115 forward $44 $-1 #
face $-1 $116 $117 $26 $-1 $118 reversed single #
loop $-1 $-1 $119 $46 #
plane-surface $-1 -34.899181409788653 -4.8092554022328784 58.781260526982564 0.54463904215088732 0 0.83867056331134215 0.83867056331134215 0 -0.54463904215088732 forward_v I I I I #
coedge $-1 $120 $121 $122 $123 reversed $47 $-1 #
face $-1 $-1 $124 $27 $-1 $125 forward single #
loop $-1 $126 $127 $49 #
cone-surface $-1 46.790615759708047 -6.9698761058148015 2.9298844017649861 -0.54463904215088732 0 -0.83867056331134215 0.41933528165567108 0 -0.27231952107544366 1 I I -0.70710678118654746 0.70710678118654746 0.5 forward I I I I #
loop $-1 $-1 $128 $35 #
coedge $-1 $80 $80 $129 $130 reversed $50 $-1 #
face $-1 $-1 $131 $28 $-1 $132 forward single #
loop $-1 $133 $134 $52 #
cone-surface $-1 46.790615759708047 -2.6486346986509481 2.9298844017649861 -0.54463904215088732 0 -0.83867056331134215 0.41933528165567108 0 -0.27231952107544366 1 I I -0.70710678118654746 0.70710678118654746 0.5 forward I I I I #
loop $-1 $-1 $135 $36 #
coedge $-1 $85 $85 $136 $137 reversed $53 $-1 #
face $-1 $138 $139 $29 $-1 $140 reversed single #
loop $-1 $-1 $141 $55 #
plane-surface $-1 -34.899181409788653 10.942891569528076 58.781260526982564 0.54463904215088732 0 0.83867056331134215 0.83867056331134215 0 -0.54463904215088732 forward_v I I I I #
coedge $-1 $142 $143 $144 $145 reversed $56 $-1 #
face $-1 $-1 $146 $30 $-1 $147 forward single #
loop $-1 $148 $149 $58 #
cone-surface $-1 46.790615759708047 8.7822708659461561 2.9298844017649861 -0.54463904215088732 0 -0.83867056331134215 0.41933528165567108 0 -0.27231952107544366 1 I I -0.70710678118654746 0.70710678118654746 0.5 forward I I I I #
loop $-1 $-1 $150 $38 #
coedge $-1 $94 $94 $151 $152 reversed $59 $-1 #
face $-1 $-1 $153 $31 $-1 $154 forward single #
loop $-1 $155 $156 $61 #
cone-surface $-1 46.790615759708047 13.10351227311001 2.9298844017649861 -0.54463904215088732 0 -0.83867056331134215 0.41933528165567108 0 -0.27231952107544366 1 I I -0.70710678118654746 0.70710678118654746 0.5 forward I I I I #
loop $-1 $-1 $157 $39 #
coedge $-1 $99 $99 $158 $159 reversed $62 $-1 #
face $-1 $160 $161 $24 $-1 $162 reversed single #
loop $-1 $-1 $163 $64 #
plane-surface $-1 0 0 -7.1430754364181448 0 0 1 1 0 0 forward_v I I I I #
coedge $-1 $164 $165 $166 $167 forward $65 $-1 #
coedge $-1 $168 $67 $169 $170 reversed $41 $-1 #
coedge $-1 $67 $168 $171 $172 forward $41 $-1 #
coedge $-1 $173 $163 $67 $107 forward $101 $-1 #
edge $-1 $174 -51.523789178136539 $175 51.523789178136539 $67 $176 forward 7 unknown #
face $-1 $177 $178 $25 $-1 $179 reversed single #
loop $-1 $-1 $180 $68 #
plane-surface $-1 -40.755691772628595 -32.684575753146476 0 0 1 0 0 0 1 forward_v I I I I #
coedge $-1 $181 $182 $113 $183 forward $69 $-1 #
coedge $-1 $184 $71 $185 $186 reversed $44 $-1 #
coedge $-1 $71 $184 $111 $183 reversed $44 $-1 #
coedge $-1 $187 $188 $71 $115 reversed $178 $-1 #
edge $-1 $189 -7.1430754364181448 $190 7.1430754364181448 $114 $191 forward 7 unknown #
face $-1 $192 $193 $26 $-1 $194 forward single #
loop $-1 $-1 $195 $72 #
plane-surface $-1 21.224552962140422 -9.8507037105907038 145.20423111490777 0 1 0 0.54463904215088732 0 0.83867056331134215 forward_v I I I I #
coedge $-1 $196 $197 $198 $199 reversed $73 $-1 #
coedge $-1 $121 $75 $200 $201 reversed $47 $-1 #
coedge $-1 $75 $120 $196 $202 reversed $47 $-1 #
coedge $-1 $198 $203 $75 $123 forward $193 $-1 #
edge $-1 $204 -40.911512697066328 $205 -34.00437264389204 $122 $206 forward 7 unknown #
loop $-1 $-1 $129 $76 #
plane-surface $-1 -34.899181409788653 -4.8092554022328784 58.781260526982564 0.54463904215088732 0 0.83867056331134215 0.83867056331134215 0 -0.54463904215088732 forward_v I I I I #
loop $-1 $-1 $207 $49 #
coedge $-1 $127 $127 $128 $208 reversed $77 $-1 #
coedge $-1 $128 $128 $127 $208 forward $79 $-1 #
coedge $-1 $129 $129 $80 $130 forward $124 $-1 #
edge $-1 $209 0 $209 6.2831853071796004 $129 $210 forward 7 unknown #
loop $-1 $-1 $136 $81 #
plane-surface $-1 -34.899181409788653 -4.8092554022328784 58.781260526982564 0.54463904215088732 0 0.83867056331134215 0.83867056331134215 0 -0.54463904215088732 forward_v I I I I #
loop $-1 $-1 $211 $52 #
coedge $-1 $134 $134 $135 $212 reversed $82 $-1 #
coedge $-1 $135 $135 $134 $212 forward $84 $-1 #
coedge $-1 $136 $136 $85 $137 forward $131 $-1 #
edge $-1 $213 0 $213 6.2831853071796004 $136 $214 forward 7 unknown #
face $-1 $215 $216 $29 $-1 $217 reversed single #
loop $-1 $-1 $218 $86 #
plane-surface $-1 21.224552962140422 5.9014432611702503 145.20423111490777 0 1 0 0.54463904215088732 0 0.83867056331134215 forward_v I I I I #
coedge $-1 $219 $220 $221 $222 reversed $87 $-1 #
coedge $-1 $143 $89 $223 $224 reversed $56 $-1 #
coedge $-1 $89 $142 $219 $225 reversed $56 $-1 #
coedge $-1 $221 $226 $89 $145 forward $227 $-1 #
edge $-1 $228 -40.911512697066328 $229 -34.00437264389204 $144 $230 forward 7 unknown #
loop $-1 $-1 $151 $90 #
plane-surface $-1 -34.899181409788653 10.942891569528076 58.781260526982564 0.54463904215088732 0 0.83867056331134215 0.83867056331134215 0 -0.54463904215088732 forward_v I I I I #
loop $-1 $-1 $231 $58 #
coedge $-1 $149 $149 $150 $232 reversed $91 $-1 #
coedge $-1 $150 $150 $149 $232 forward $93 $-1 #
coedge $-1 $151 $151 $94 $152 forward $146 $-1 #
edge $-1 $233 0 $233 6.2831853071796004 $151 $234 forward 7 unknown #
loop $-1 $-1 $158 $95 #
plane-surface $-1 -34.899181409788653 10.942891569528076 58.781260526982564 0.54463904215088732 0 0.83867056331134215 0.83867056331134215 0 -0.54463904215088732 forward_v I I I I #
loop $-1 $-1 $235 $61 #
coedge $-1 $156 $156 $157 $236 reversed $96 $-1 #
coedge $-1 $157 $157 $156 $236 forward $98 $-1 #
coedge $-1 $158 $158 $99 $159 forward $153 $-1 #
edge $-1 $237 0 $237 6.2831853071796004 $158 $238 forward 7 unknown #
face $-1 $239 $240 $24 $-1 $241 reversed single #
loop $-1 $-1 $242 $100 #
plane-surface $-1 -51.523789178136539 0 0 1 0 0 0 0 -1 forward_v I I I I #
coedge $-1 $106 $243 $244 $245 forward $101 $-1 #
coedge $-1 $246 $103 $247 $248 forward $65 $-1 #
coedge $-1 $103 $246 $168 $249 forward $65 $-1 #
coedge $-1 $169 $250 $103 $167 reversed $251 $-1 #
edge $-1 $252 -26.550939585851278 $253 26.550939585851278 $166 $254 forward 7 unknown #
coedge $-1 $105 $104 $165 $249 reversed $41 $-1 #
coedge $-1 $244 $166 $104 $170 forward $251 $-1 #
edge $-1 $252 -7.1430754364181448 $174 7.1430754364181448 $169 $255 forward 7 unknown #
coedge $-1 $256 $257 $105 $172 reversed $161 $-1 #
edge $-1 $258 -7.1430754364181448 $175 7.1430754364181448 $171 $259 forward 7 unknown #
coedge $-1 $243 $106 $257 $260 forward $101 $-1 #
vertex $-1 $170 $261 #
vertex $-1 $260 $262 #
straight-curve $-1 0 -26.550939585851278 -7.1430754364181448 -1 0 0 I I #
face $-1 $263 $264 $25 $-1 $265 reversed single #
loop $-1 $-1 $114 $108 #
plane-surface $-1 -42.255691772628595 -29.617757669498875 0 1 0 0 0 0 -1 forward_v I I I I #
coedge $-1 $266 $267 $268 $269 forward $109 $-1 #
coedge $-1 $270 $111 $271 $272 forward $69 $-1 #
coedge $-1 $111 $270 $187 $273 forward $69 $-1 #
edge $-1 $189 -42.255691772628595 $274 -39.255691772628595 $111 $275 forward 7 unknown #
coedge $-1 $113 $112 $276 $277 forward $44 $-1 #
coedge $-1 $278 $279 $112 $186 forward $280 $-1 #
edge $-1 $281 39.255691772628595 $190 42.255691772628595 $185 $282 forward 7 unknown #
coedge $-1 $268 $114 $182 $273 reversed $178 $-1 #
coedge $-1 $114 $268 $278 $283 reversed $178 $-1 #
vertex $-1 $183 $284 #
vertex $-1 $283 $285 #
straight-curve $-1 -42.255691772628595 -26.550939585851278 0 0 0 1 I I #
face $-1 $-1 $286 $26 $-1 $287 reversed single #
loop $-1 $-1 $122 $116 #
plane-surface $-1 0 0 7.1430754364181448 0 0 1 1 0 0 forward_v I I I I #
coedge $-1 $288 $289 $290 $291 reversed $117 $-1 #
coedge $-1 $292 $119 $121 $202 forward $73 $-1 #
coedge $-1 $119 $292 $288 $293 forward $73 $-1 #
coedge $-1 $290 $122 $119 $199 forward $193 $-1 #
edge $-1 $205 -2.6368206072413862 $294 7.4460760094742646 $198 $295 forward 7 unknown #
coedge $-1 $296 $297 $120 $201 forward $286 $-1 #
edge $-1 $298 -69.944589402400382 $204 -65.459040121035741 $200 $299 forward 7 unknown #
edge $-1 $205 94.811758052884002 $298 103.04757835627305 $121 $300 forward 7 unknown #
coedge $-1 $122 $290 $296 $301 forward $193 $-1 #
vertex $-1 $123 $302 #
vertex $-1 $123 $303 #
straight-curve $-1 10.612276481070211 0.23219290612494703 7.1430754364181439 -1 0 0 I I #
coedge $-1 $207 $207 $-1 $304 reversed $126 $-1 #
edge $-1 $305 0 $305 6.2831853071796004 $127 $306 forward 7 unknown #
vertex $-1 $130 $307 #
ellipse-curve $-1 48.070219151549388 -6.9698761058148015 4.9003007957358182 0.54463904215088732 0 0.83867056331134215 0.83867056331134215 0 -0.54463904215088732 1 I I #
coedge $-1 $211 $211 $-1 $308 reversed $133 $-1 #
edge $-1 $309 0 $309 6.2831853071796004 $134 $310 forward 7 unknown #
vertex $-1 $137 $311 #
ellipse-curve $-1 48.070219151549388 -2.6486346986509481 4.9003007957358182 0.54463904215088732 0 0.83867056331134215 0.83867056331134215 0 -0.54463904215088732 1 I I #
face $-1 $-1 $227 $29 $-1 $312 forward single #
loop $-1 $-1 $313 $138 #
plane-surface $-1 51.523789178136539 0 0 -1 0 0 0 0 1 forward_v I I I I #
coedge $-1 $314 $315 $316 $317 reversed $139 $-1 #
coedge $-1 $318 $141 $143 $225 forward $87 $-1 #
coedge $-1 $141 $318 $314 $319 forward $87 $-1 #
coedge $-1 $316 $144 $141 $222 forward $227 $-1 #
edge $-1 $229 -10.512894093121863 $320 -0.42999747640621244 $221 $321 forward 7 unknown #
coedge $-1 $322 $323 $142 $224 forward $216 $-1 #
edge $-1 $324 -69.944589402400382 $228 -65.459040121035741 $223 $325 forward 7 unknown #
edge $-1 $229 94.811758052884002 $324 103.04757835627305 $143 $326 forward 7 unknown #
coedge $-1 $144 $316 $322 $327 forward $227 $-1 #
loop $-1 $-1 $316 $215 #
vertex $-1 $224 $328 #
vertex $-1 $145 $329 #
straight-curve $-1 10.612276481070211 15.984339877885901 7.1430754364181439 -1 0 0 I I #
coedge $-1 $231 $231 $-1 $330 reversed $148 $-1 #
edge $-1 $331 0 $331 6.2831853071796004 $149 $332 forward 7 unknown #
vertex $-1 $152 $333 #
ellipse-curve $-1 48.070219151549388 8.7822708659461561 4.9003007957358182 0.54463904215088732 0 0.83867056331134215 0.83867056331134215 0 -0.54463904215088732 1 I I #
coedge $-1 $235 $235 $-1 $334 reversed $155 $-1 #
edge $-1 $335 0 $335 6.2831853071796004 $156 $336 forward 7 unknown #
vertex $-1 $159 $337 #
ellipse-curve $-1 48.070219151549388 13.10351227311001 4.9003007957358182 0.54463904215088732 0 0.83867056331134215 0.83867056331134215 0 -0.54463904215088732 1 I I #
face $-1 $-1 $251 $24 $-1 $338 reversed single #
loop $-1 $-1 $339 $160 #
plane-surface $-1 0 26.550939585851278 0 0 -1 0 0 0 -1 forward_v I I I I #
coedge $-1 $257 $256 $340 $341 forward $161 $-1 #
coedge $-1 $163 $173 $342 $343 forward $101 $-1 #
coedge $-1 $250 $169 $163 $245 reversed $251 $-1 #
edge $-1 $344 -26.550939585851278 $174 26.550939585851278 $244 $345 forward 7 unknown #
coedge $-1 $165 $164 $256 $346 forward $65 $-1 #
coedge $-1 $339 $340 $164 $248 reversed $240 $-1 #
edge $-1 $253 -51.523789178136539 $347 51.523789178136539 $247 $348 forward 7 unknown #
edge $-1 $258 -51.523789178136539 $252 51.523789178136539 $168 $349 forward 7 unknown #
coedge $-1 $166 $244 $339 $350 reversed $251 $-1 #
loop $-1 $-1 $169 $239 #
vertex $-1 $167 $351 #
vertex $-1 $167 $352 #
straight-curve $-1 51.523789178136539 0 7.1430754364181448 0 1 0 I I #
straight-curve $-1 51.523789178136539 -26.550939585851278 0 0 0 -1 I I #
coedge $-1 $242 $171 $246 $346 reversed $161 $-1 #
coedge $-1 $171 $242 $173 $260 reversed $161 $-1 #
vertex $-1 $346 $353 #
straight-curve $-1 -51.523789178136539 -26.550939585851278 0 0 0 -1 I I #
edge $-1 $175 -26.550939585851278 $354 26.550939585851278 $257 $355 forward 7 unknown #
point $-1 51.523789178136539 -26.550939585851278 -7.1430754364181448 #
point $-1 -51.523789178136539 -26.550939585851278 -7.1430754364181448 #
face $-1 $-1 $280 $25 $-1 $356 forward single #
loop $-1 $-1 $357 $177 #
plane-surface $-1 -39.255691772628595 -29.617757669498875 0 -1 0 0 0 0 1 forward_v I I I I #
coedge $-1 $358 $180 $270 $359 reversed $109 $-1 #
coedge $-1 $180 $358 $360 $361 reversed $109 $-1 #
coedge $-1 $188 $187 $180 $269 reversed $178 $-1 #
edge $-1 $362 -7.1430754364181448 $363 7.1430754364181448 $268 $364 forward 7 unknown #
coedge $-1 $182 $181 $266 $359 forward $69 $-1 #
coedge $-1 $276 $357 $181 $272 reversed $264 $-1 #
edge $-1 $274 -3.0668180836475969 $365 3.0668180836476004 $271 $366 forward 7 unknown #
edge $-1 $363 -3.0668180836476004 $189 3.0668180836475969 $187 $367 forward 7 unknown #
vertex $-1 $272 $368 #
straight-curve $-1 0 -26.550939585851278 -7.1430754364181448 1 0 0 I I #
coedge $-1 $369 $271 $184 $277 reversed $264 $-1 #
edge $-1 $281 -7.1430754364181448 $274 7.1430754364181448 $276 $370 forward 7 unknown #
coedge $-1 $360 $185 $188 $283 forward $280 $-1 #
coedge $-1 $185 $360 $369 $371 forward $280 $-1 #
loop $-1 $-1 $185 $263 #
vertex $-1 $186 $372 #
straight-curve $-1 0 -26.550939585851278 7.1430754364181448 -1 0 0 I I #
edge $-1 $190 -3.0668180836475969 $362 3.0668180836476004 $188 $373 forward 7 unknown #
point $-1 -42.255691772628595 -26.550939585851278 -7.1430754364181448 #
point $-1 -42.255691772628595 -26.550939585851278 7.1430754364181448 #
loop $-1 $-1 $200 $192 #
plane-surface $-1 51.523789178136539 0 0 -1 0 0 0 0 1 forward_v I I I I #
coedge $-1 $289 $195 $197 $293 reversed $117 $-1 #
coedge $-1 $195 $288 $374 $375 reversed $117 $-1 #
coedge $-1 $203 $198 $195 $291 forward $193 $-1 #
edge $-1 $294 34.00437264389204 $376 40.911512697066328 $290 $377 forward 7 unknown #
coedge $-1 $197 $196 $297 $378 reversed $73 $-1 #
edge $-1 $379 -103.04757835627305 $294 -94.811758052884002 $288 $380 forward 7 unknown #
vertex $-1 $199 $381 #
straight-curve $-1 44.616649124962265 -2.4046277011164392 7.1430754364181368 0 -1 0 I I #
coedge $-1 $374 $200 $203 $301 reversed $286 $-1 #
coedge $-1 $200 $374 $292 $378 forward $286 $-1 #
vertex $-1 $201 $382 #
straight-curve $-1 51.523789178136539 0.23219290612494703 72.602115557453885 0 0 1 I I #
straight-curve $-1 -34.899181409788653 0.23219290612494703 58.781260526982564 0.83867056331134215 0 -0.54463904215088732 I I #
edge $-1 $376 -9.8507037105907038 $204 0.23219290612494703 $296 $383 forward 7 unknown #
point $-1 51.523789178136539 0.23219290612494703 7.1430754364181448 #
point $-1 44.616649124962251 0.23219290612494703 7.1430754364181439 #
edge $-1 $384 1 $384 0 $207 $-1 forward 7 unknown #
vertex $-1 $208 $385 #
ellipse-curve $-1 47.062935280783492 -6.9698761058148015 3.3492196834206571 0.54463904215088732 0 0.83867056331134215 0.83867056331134215 0 -0.54463904215088732 1 I I #
point $-1 48.90888971486072 -6.9698761058148015 4.3556617535849229 #
edge $-1 $386 1 $386 0 $211 $-1 forward 7 unknown #
vertex $-1 $212 $387 #
ellipse-curve $-1 47.062935280783492 -2.6486346986509481 3.3492196834206571 0.54463904215088732 0 0.83867056331134215 0.83867056331134215 0 -0.54463904215088732 1 I I #
point $-1 48.90888971486072 -2.6486346986509481 4.3556617535849229 #
plane-surface $-1 0 0 7.1430754364181448 0 0 1 1 0 0 forward_v I I I I #
coedge $-1 $323 $322 $315 $388 forward $216 $-1 #
coedge $-1 $315 $218 $220 $319 reversed $139 $-1 #
coedge $-1 $218 $314 $313 $388 reversed $139 $-1 #
coedge $-1 $226 $221 $218 $317 forward $227 $-1 #
edge $-1 $320 34.00437264389204 $389 40.911512697066328 $316 $390 forward 7 unknown #
coedge $-1 $220 $219 $323 $391 reversed $87 $-1 #
edge $-1 $392 -103.04757835627305 $320 -94.811758052884002 $314 $393 forward 7 unknown #
vertex $-1 $222 $394 #
straight-curve $-1 44.616649124962265 5.4714457847640379 7.1430754364181368 0 -1 0 I I #
coedge $-1 $313 $223 $226 $327 reversed $216 $-1 #
coedge $-1 $223 $313 $318 $391 forward $216 $-1 #
vertex $-1 $224 $395 #
straight-curve $-1 51.523789178136539 15.984339877885901 72.602115557453885 0 0 1 I I #
straight-curve $-1 -34.899181409788653 15.984339877885901 58.781260526982564 0.83867056331134215 0 -0.54463904215088732 I I #
edge $-1 $389 5.9014432611702503 $228 15.984339877885901 $322 $396 forward 7 unknown #
point $-1 51.523789178136539 15.984339877885901 7.1430754364181448 #
point $-1 44.616649124962251 15.984339877885901 7.1430754364181439 #
edge $-1 $397 1 $397 0 $231 $-1 forward 7 unknown #
vertex $-1 $232 $398 #
ellipse-curve $-1 47.062935280783492 8.7822708659461561 3.3492196834206571 0.54463904215088732 0 0.83867056331134215 0.83867056331134215 0 -0.54463904215088732 1 I I #
point $-1 48.90888971486072 8.7822708659461561 4.3556617535849229 #
edge $-1 $399 1 $399 0 $235 $-1 forward 7 unknown #
vertex $-1 $236 $400 #
ellipse-curve $-1 47.062935280783492 13.10351227311001 3.3492196834206571 0.54463904215088732 0 0.83867056331134215 0.83867056331134215 0 -0.54463904215088732 1 I I #
point $-1 48.90888971486072 13.10351227311001 4.3556617535849229 #
plane-surface $-1 51.523789178136539 0 0 -1 0 0 0 0 1 forward_v I I I I #
coedge $-1 $342 $247 $250 $350 forward $240 $-1 #
coedge $-1 $247 $342 $242 $341 reversed $240 $-1 #
edge $-1 $347 -7.1430754364181448 $354 7.1430754364181448 $340 $401 forward 7 unknown #
coedge $-1 $340 $339 $243 $343 reversed $240 $-1 #
edge $-1 $354 -51.523789178136539 $344 51.523789178136539 $342 $402 forward 7 unknown #
vertex $-1 $245 $403 #
straight-curve $-1 51.523789178136539 0 -7.1430754364181448 0 -1 0 I I #
edge $-1 $347 -26.550939585851278 $258 26.550939585851278 $256 $404 forward 7 unknown #
vertex $-1 $248 $405 #
straight-curve $-1 0 26.550939585851278 7.1430754364181448 -1 0 0 I I #
straight-curve $-1 0 -26.550939585851278 7.1430754364181448 1 0 0 I I #
edge $-1 $253 -7.1430754364181448 $344 7.1430754364181448 $250 $406 forward 7 unknown #
point $-1 51.523789178136539 -26.550939585851278 7.1430754364181448 #
point $-1 51.523789178136539 26.550939585851278 7.1430754364181448 #
point $-1 -51.523789178136539 -26.550939585851278 7.1430754364181448 #
vertex $-1 $343 $407 #
straight-curve $-1 -51.523789178136539 0 -7.1430754364181448 0 1 0 I I #
plane-surface $-1 0 0 7.1430754364181448 0 0 1 1 0 0 forward_v I I I I #
coedge $-1 $271 $369 $358 $408 forward $264 $-1 #
coedge $-1 $267 $266 $357 $408 reversed $109 $-1 #
edge $-1 $365 -1.5 $363 1.5 $266 $409 forward 7 unknown #
coedge $-1 $279 $278 $267 $361 forward $280 $-1 #
edge $-1 $362 -1.5 $410 1.5 $267 $411 forward 7 unknown #
vertex $-1 $283 $412 #
vertex $-1 $273 $413 #
straight-curve $-1 -42.255691772628595 -32.684575753146476 0 0 0 -1 I I #
vertex $-1 $408 $414 #
straight-curve $-1 -39.255691772628595 -29.617757669498875 -7.1430754364181448 0 -1 0 I I #
straight-curve $-1 -42.255691772628595 -29.617757669498875 -7.1430754364181448 0 1 0 I I #
point $-1 -39.255691772628595 -26.550939585851278 -7.1430754364181448 #
coedge $-1 $357 $276 $279 $371 reversed $264 $-1 #
straight-curve $-1 -39.255691772628595 -26.550939585851278 0 0 0 -1 I I #
edge $-1 $410 -3.0668180836476004 $281 3.0668180836475969 $369 $415 forward 7 unknown #
point $-1 -39.255691772628595 -26.550939585851278 7.1430754364181448 #
straight-curve $-1 -42.255691772628595 -29.617757669498875 7.1430754364181448 0 -1 0 I I #
coedge $-1 $297 $296 $289 $375 forward $286 $-1 #
edge $-1 $376 65.459040121035741 $379 69.944589402400382 $374 $416 forward 7 unknown #
vertex $-1 $301 $417 #
straight-curve $-1 10.612276481070211 -9.8507037105907038 7.1430754364181439 1 0 0 I I #
edge $-1 $379 -7.4460760094742646 $298 2.6368206072413862 $297 $418 forward 7 unknown #
vertex $-1 $378 $419 #
straight-curve $-1 -34.899181409788653 -9.8507037105907038 58.781260526982564 -0.83867056331134215 0 0.54463904215088732 I I #
point $-1 44.616649124962251 -9.8507037105907038 7.1430754364181439 #
point $-1 51.523789178136539 0.23219290612494703 2.6575261550535032 #
straight-curve $-1 51.523789178136539 0 7.1430754364181448 0 1 0 I I #
vertex $-1 $304 $420 #
point $-1 47.901605844094831 -6.9698761058148015 2.8045806412697698 #
vertex $-1 $308 $421 #
point $-1 47.901605844094831 -2.6486346986509481 2.8045806412697698 #
edge $-1 $389 65.459040121035741 $392 69.944589402400382 $313 $422 forward 7 unknown #
vertex $-1 $327 $423 #
straight-curve $-1 10.612276481070211 5.9014432611702503 7.1430754364181439 1 0 0 I I #
edge $-1 $392 0.42999747640621244 $324 10.512894093121863 $323 $424 forward 7 unknown #
vertex $-1 $391 $425 #
straight-curve $-1 -34.899181409788653 5.9014432611702503 58.781260526982564 -0.83867056331134215 0 0.54463904215088732 I I #
point $-1 44.616649124962251 5.9014432611702503 7.1430754364181439 #
point $-1 51.523789178136539 15.984339877885901 2.6575261550535032 #
straight-curve $-1 51.523789178136539 0 7.1430754364181448 0 1 0 I I #
vertex $-1 $330 $426 #
point $-1 47.901605844094831 8.7822708659461561 2.8045806412697698 #
vertex $-1 $334 $427 #
point $-1 47.901605844094831 13.10351227311001 2.8045806412697698 #
straight-curve $-1 -51.523789178136539 26.550939585851278 0 0 0 -1 I I #
straight-curve $-1 0 26.550939585851278 -7.1430754364181448 1 0 0 I I #
point $-1 51.523789178136539 26.550939585851278 -7.1430754364181448 #
straight-curve $-1 -51.523789178136539 0 7.1430754364181448 0 -1 0 I I #
point $-1 -51.523789178136539 26.550939585851278 7.1430754364181448 #
straight-curve $-1 51.523789178136539 26.550939585851278 0 0 0 -1 I I #
point $-1 -51.523789178136539 26.550939585851278 -7.1430754364181448 #
edge $-1 $410 -7.1430754364181448 $365 7.1430754364181448 $357 $428 forward 7 unknown #
straight-curve $-1 -40.755691772628595 -32.684575753146476 -7.1430754364181448 -1 0 0 I I #
vertex $-1 $371 $429 #
straight-curve $-1 -40.755691772628595 -32.684575753146476 7.1430754364181448 1 0 0 I I #
point $-1 -42.255691772628595 -32.684575753146476 7.1430754364181448 #
point $-1 -42.255691772628595 -32.684575753146476 -7.1430754364181448 #
point $-1 -39.255691772628595 -32.684575753146476 -7.1430754364181448 #
straight-curve $-1 -39.255691772628595 -29.617757669498875 7.1430754364181448 0 1 0 I I #
straight-curve $-1 51.523789178136539 -9.8507037105907038 72.602115557453885 0 0 -1 I I #
point $-1 51.523789178136539 -9.8507037105907038 7.1430754364181448 #
straight-curve $-1 51.523789178136525 -2.4046277011164392 2.6575261550535068 0 1 0 I I #
point $-1 51.523789178136539 -9.8507037105907038 2.6575261550535032 #
point $-1 46.518296238632601 -6.9698761058148015 2.5105491201093151 #
point $-1 46.518296238632601 -2.6486346986509481 2.5105491201093151 #
straight-curve $-1 51.523789178136539 5.9014432611702503 72.602115557453885 0 0 -1 I I #
point $-1 51.523789178136539 5.9014432611702503 7.1430754364181448 #
straight-curve $-1 51.523789178136525 5.4714457847640379 2.6575261550535068 0 1 0 I I #
point $-1 51.523789178136539 5.9014432611702503 2.6575261550535032 #
point $-1 46.518296238632601 8.7822708659461561 2.5105491201093151 #
point $-1 46.518296238632601 13.10351227311001 2.5105491201093151 #
straight-curve $-1 -39.255691772628595 -32.684575753146476 0 0 0 -1 I I #
point $-1 -39.255691772628595 -32.684575753146476 7.1430754364181448 #
End-of-ACIS-data 