500 0 13 0           
7 Unknown 11 ACIS 5.0 NT 24 Fri Mar 26 20:18:04 1999 
-1 9.9999999999999995e-007 1e-010 
body $-1 $13 $-1 $14 #
body $-1 $15 $-1 $16 #
body $-1 $17 $-1 $18 #
body $-1 $19 $-1 $20 #
body $-1 $21 $-1 $22 #
body $-1 $23 $-1 $24 #
body $-1 $25 $-1 $26 #
body $-1 $27 $-1 $28 #
body $-1 $29 $-1 $30 #
body $-1 $31 $-1 $32 #
body $-1 $33 $-1 $34 #
body $-1 $35 $-1 $36 #
body $-1 $37 $-1 $38 #
lump $-1 $-1 $39 $0 #
transform $-1 1 0 0 0 1 0 0 0 1 60.944242683187355 34.923485702495569 10.913709185961917 1 rotate no_reflect no_shear #
lump $-1 $-1 $40 $1 #
transform $-1 1 0 0 0 1 0 0 0 1 60.944242683187355 34.923485702495569 10.913709185961917 1 rotate no_reflect no_shear #
lump $-1 $-1 $41 $2 #
transform $-1 1 0 0 0 1 0 0 0 1 60.944242683187355 34.923485702495569 10.913709185961917 1 rotate no_reflect no_shear #
lump $-1 $-1 $42 $3 #
transform $-1 1 0 0 0 1 0 0 0 1 60.944242683187355 34.923485702495569 10.913709185961917 1 rotate no_reflect no_shear #
lump $-1 $-1 $43 $4 #
transform $-1 1 0 0 0 1 0 0 0 1 60.944242683187355 34.923485702495569 10.913709185961917 1 rotate no_reflect no_shear #
lump $-1 $-1 $44 $5 #
transform $-1 1 0 0 0 1 0 0 0 1 60.944242683187355 34.923485702495569 10.913709185961917 1 rotate no_reflect no_shear #
lump $-1 $-1 $45 $6 #
transform $-1 1 0 0 0 1 0 0 0 1 60.944242683187355 34.923485702495569 10.913709185961917 1 rotate no_reflect no_shear #
lump $-1 $-1 $46 $7 #
transform $-1 1 0 0 0 1 0 0 0 1 60.944242683187355 34.923485702495569 10.913709185961917 1 rotate no_reflect no_shear #
lump $-1 $-1 $47 $8 #
transform $-1 1 0 0 0 1 0 0 0 1 60.944242683187355 34.923485702495569 10.913709185961917 1 rotate no_reflect no_shear #
lump $-1 $-1 $48 $9 #
transform $-1 1 0 0 0 1 0 0 0 1 60.944242683187355 34.923485702495569 10.913709185961917 1 rotate no_reflect no_shear #
lump $-1 $-1 $49 $10 #
transform $-1 1 0 0 0 1 0 0 0 1 60.944242683187355 34.923485702495569 10.913709185961917 1 rotate no_reflect no_shear #
lump $-1 $-1 $50 $11 #
transform $-1 1 0 0 0 1 0 0 0 1 60.944242683187355 34.923485702495569 10.913709185961917 1 rotate no_reflect no_shear #
lump $-1 $-1 $51 $12 #
transform $-1 1 0 0 0 1 0 0 0 1 60.944242683187355 34.923485702495569 10.913709185961917 1 rotate no_reflect no_shear #
shell $-1 $-1 $-1 $52 $-1 $13 #
shell $-1 $-1 $-1 $53 $-1 $15 #
shell $-1 $-1 $-1 $54 $-1 $17 #
shell $-1 $-1 $-1 $55 $-1 $19 #
shell $-1 $-1 $-1 $56 $-1 $21 #
shell $-1 $-1 $-1 $57 $-1 $23 #
shell $-1 $-1 $-1 $58 $-1 $25 #
shell $-1 $-1 $-1 $59 $-1 $27 #
shell $-1 $-1 $-1 $60 $-1 $29 #
shell $-1 $-1 $-1 $61 $-1 $31 #
shell $-1 $-1 $-1 $62 $-1 $33 #
shell $-1 $-1 $-1 $63 $-1 $35 #
shell $-1 $-1 $-1 $64 $-1 $37 #
face $-1 $65 $66 $39 $-1 $67 forward single #
face $-1 $68 $69 $40 $-1 $70 reversed single #
face $-1 $71 $72 $41 $-1 $73 reversed single #
face $-1 $74 $75 $42 $-1 $76 reversed single #
face $-1 $77 $78 $43 $-1 $79 forward single #
face $-1 $80 $81 $44 $-1 $82 reversed single #
face $-1 $83 $84 $45 $-1 $85 forward single #
face $-1 $86 $87 $46 $-1 $88 forward single #
face $-1 $89 $90 $47 $-1 $91 forward single #
face $-1 $92 $93 $48 $-1 $94 reversed single #
face $-1 $95 $96 $49 $-1 $97 forward single #
face $-1 $98 $99 $50 $-1 $100 forward single #
face $-1 $101 $102 $51 $-1 $103 forward single #
face $-1 $104 $105 $39 $-1 $106 reversed single #
loop $-1 $-1 $107 $52 #
plane-surface $-1 0 0 10.913709185961917 0 0 1 1 0 0 forward_v I I I I #
face $-1 $108 $109 $40 $-1 $110 reversed single #
loop $-1 $-1 $111 $53 #
plane-surface $-1 -51.453251848889494 -28.794398982284925 0 1 0 0 0 0 -1 forward_v I I I I #
face $-1 $112 $113 $41 $-1 $114 reversed single #
loop $-1 $-1 $115 $54 #
plane-surface $-1 -49.953251848889494 22.665312262074281 0 0 1 0 0 0 1 forward_v I I I I #
face $-1 $116 $117 $42 $-1 $118 reversed single #
loop $-1 $-1 $119 $55 #
plane-surface $-1 -121.88848618287355 -7.2491882138362058 109.92728204294124 0 1 0 -0.50000000669873634 0 0.8660253999169214 forward_v I I I I #
face $-1 $120 $121 $43 $-1 $122 forward single #
loop $-1 $123 $124 $56 #
cone-surface $-1 -54.080914030753597 -0.51221182048434599 5.5710265402156747 0.50000000669873634 0 -0.8660253999169214 2.5980761997507642 0 1.5000000200962091 1 I I 0 1 3 forward I I I I #
face $-1 $125 $126 $44 $-1 $127 reversed single #
loop $-1 $-1 $128 $57 #
plane-surface $-1 81.951637460744763 -7.1054273576010019e-015 176.79001884796944 0 -1 0 -0.78801076186113728 0 -0.61566146476048833 forward_v I I I I #
face $-1 $129 $130 $45 $-1 $131 forward single #
loop $-1 $132 $133 $58 #
cone-surface $-1 58.512967900101138 -5.831150524803963 7.9982924577071195 -0.78801076186113728 0 -0.61566146476048833 0.30783073238024417 0 -0.39400538093056864 1 I I 0 1 0.5 forward I I I I #
face $-1 $134 $135 $46 $-1 $136 forward single #
loop $-1 $137 $138 $59 #
cone-surface $-1 58.512967900101138 -3.64446907800248 7.9982924577071195 -0.78801076186113728 0 -0.61566146476048833 0.30783073238024417 0 -0.39400538093056864 1 I I 0 1 0.5 forward I I I I #
face $-1 $139 $140 $47 $-1 $141 forward single #
loop $-1 $142 $143 $60 #
cone-surface $-1 58.512967900101138 -1.4577876312009934 7.9982924577071195 -0.78801076186113728 0 -0.61566146476048833 0.30783073238024417 0 -0.39400538093056864 1 I I 0 1 0.5 forward I I I I #
face $-1 $144 $145 $48 $-1 $146 reversed single #
loop $-1 $-1 $147 $61 #
plane-surface $-1 81.951637460744763 7.2889381560049458 176.79001884796944 0 -1 0 -0.78801076186113728 0 -0.61566146476048833 forward_v I I I I #
face $-1 $148 $149 $49 $-1 $150 forward single #
loop $-1 $151 $152 $62 #
cone-surface $-1 58.512967900101138 1.4577876312009863 7.9982924577071195 -0.78801076186113728 0 -0.61566146476048833 0.30783073238024417 0 -0.39400538093056864 1 I I 0 1 0.5 forward I I I I #
face $-1 $153 $154 $50 $-1 $155 forward single #
loop $-1 $156 $157 $63 #
cone-surface $-1 58.512967900101138 3.6444690780024729 7.9982924577071195 -0.78801076186113728 0 -0.61566146476048833 0.30783073238024417 0 -0.39400538093056864 1 I I 0 1 0.5 forward I I I I #
face $-1 $158 $159 $51 $-1 $160 forward single #
loop $-1 $161 $162 $64 #
cone-surface $-1 58.512967900101138 5.8311505248039595 7.9982924577071195 -0.78801076186113728 0 -0.61566146476048833 0.30783073238024417 0 -0.39400538093056864 1 I I 0 1 0.5 forward I I I I #
face $-1 $163 $164 $39 $-1 $165 reversed single #
loop $-1 $-1 $166 $65 #
plane-surface $-1 0 0 -10.913709185961917 0 0 1 1 0 0 forward_v I I I I #
coedge $-1 $167 $168 $169 $170 forward $66 $-1 #
face $-1 $171 $172 $40 $-1 $173 reversed single #
loop $-1 $-1 $174 $68 #
plane-surface $-1 -49.953251848889494 -22.665312262074281 0 0 -1 0 0 0 -1 forward_v I I I I #
coedge $-1 $175 $176 $177 $178 forward $69 $-1 #
face $-1 $179 $180 $41 $-1 $181 reversed single #
loop $-1 $-1 $182 $71 #
plane-surface $-1 -51.453251848889494 28.794398982284925 0 1 0 0 0 0 -1 forward_v I I I I #
coedge $-1 $183 $184 $185 $186 forward $72 $-1 #
face $-1 $187 $188 $42 $-1 $189 reversed single #
loop $-1 $-1 $190 $74 #
plane-surface $-1 -60.944242683187369 -0.51221182048434599 4.3687577582587664 -0.50000000669873634 0 0.8660253999169214 0.8660253999169214 0 0.50000000669873634 forward_v I I I I #
coedge $-1 $191 $192 $193 $194 reversed $75 $-1 #
face $-1 $-1 $195 $43 $-1 $196 forward single #
loop $-1 $197 $198 $77 #
cone-surface $-1 -52.13567946994705 -0.51221182048434599 2.2017815084456256 0.50000000669873634 0 -0.8660253999169214 1.2990380998753821 0 0.75000001004810457 1 I I -0.70710678118654746 0.70710678118654768 1.5 forward I I I I #
loop $-1 $-1 $199 $56 #
coedge $-1 $124 $124 $200 $201 reversed $78 $-1 #
face $-1 $202 $203 $44 $-1 $204 reversed single #
loop $-1 $-1 $205 $80 #
plane-surface $-1 -14.097800754912257 -3.64446907800248 101.74797540986984 0.78801076186113728 0 0.61566146476048833 0.61566146476048833 0 -0.78801076186113728 forward_v I I I I #
coedge $-1 $206 $207 $208 $209 reversed $81 $-1 #
face $-1 $-1 $210 $45 $-1 $211 forward single #
loop $-1 $212 $213 $83 #
cone-surface $-1 57.921959828705283 -5.831150524803963 7.5365463591367536 -0.78801076186113728 0 -0.61566146476048833 0.15391536619012208 0 -0.19700269046528432 1 I I -0.70710678118654746 0.70710678118654746 0.25 forward I I I I #
loop $-1 $-1 $214 $58 #
coedge $-1 $133 $133 $215 $216 reversed $84 $-1 #
face $-1 $-1 $217 $46 $-1 $218 forward single #
loop $-1 $219 $220 $86 #
cone-surface $-1 57.921959828705283 -3.64446907800248 7.5365463591367536 -0.78801076186113728 0 -0.61566146476048833 0.15391536619012208 0 -0.19700269046528432 1 I I -0.70710678118654746 0.70710678118654746 0.25 forward I I I I #
loop $-1 $-1 $221 $59 #
coedge $-1 $138 $138 $222 $223 reversed $87 $-1 #
face $-1 $-1 $224 $47 $-1 $225 forward single #
loop $-1 $226 $227 $89 #
cone-surface $-1 57.921959828705283 -1.4577876312009934 7.5365463591367536 -0.78801076186113728 0 -0.61566146476048833 0.15391536619012208 0 -0.19700269046528432 1 I I -0.70710678118654746 0.70710678118654746 0.25 forward I I I I #
loop $-1 $-1 $228 $60 #
coedge $-1 $143 $143 $229 $230 reversed $90 $-1 #
face $-1 $231 $232 $48 $-1 $233 forward single #
loop $-1 $-1 $234 $92 #
plane-surface $-1 -14.097800754912257 -3.64446907800248 101.74797540986984 0.78801076186113728 0 0.61566146476048833 0.61566146476048833 0 -0.78801076186113728 forward_v I I I I #
coedge $-1 $235 $236 $237 $238 reversed $93 $-1 #
face $-1 $-1 $239 $49 $-1 $240 forward single #
loop $-1 $241 $242 $95 #
cone-surface $-1 57.921959828705283 1.4577876312009863 7.5365463591367536 -0.78801076186113728 0 -0.61566146476048833 0.15391536619012208 0 -0.19700269046528432 1 I I -0.70710678118654746 0.70710678118654746 0.25 forward I I I I #
loop $-1 $-1 $243 $62 #
coedge $-1 $152 $152 $244 $245 reversed $96 $-1 #
face $-1 $-1 $246 $50 $-1 $247 forward single #
loop $-1 $248 $249 $98 #
cone-surface $-1 57.921959828705283 3.6444690780024729 7.5365463591367536 -0.78801076186113728 0 -0.61566146476048833 0.15391536619012208 0 -0.19700269046528432 1 I I -0.70710678118654746 0.70710678118654746 0.25 forward I I I I #
loop $-1 $-1 $250 $63 #
coedge $-1 $157 $157 $251 $252 reversed $99 $-1 #
face $-1 $-1 $253 $51 $-1 $254 forward single #
loop $-1 $255 $256 $101 #
cone-surface $-1 57.921959828705283 5.8311505248039595 7.5365463591367536 -0.78801076186113728 0 -0.61566146476048833 0.15391536619012208 0 -0.19700269046528432 1 I I -0.70710678118654746 0.70710678118654746 0.25 forward I I I I #
loop $-1 $-1 $257 $64 #
coedge $-1 $162 $162 $258 $259 reversed $102 $-1 #
face $-1 $260 $261 $39 $-1 $262 reversed single #
loop $-1 $-1 $263 $104 #
plane-surface $-1 0 -34.923485702495569 0 0 1 0 0 0 1 forward_v I I I I #
coedge $-1 $264 $265 $266 $267 forward $105 $-1 #
coedge $-1 $268 $107 $269 $270 forward $66 $-1 #
coedge $-1 $107 $268 $271 $272 forward $66 $-1 #
coedge $-1 $273 $274 $107 $170 reversed $275 $-1 #
edge $-1 $276 -34.923485702495569 $277 34.923485702495569 $169 $278 forward 7 unknown #
face $-1 $279 $280 $40 $-1 $281 forward single #
loop $-1 $-1 $282 $108 #
plane-surface $-1 -48.453251848889494 -28.794398982284925 0 -1 0 0 0 0 1 forward_v I I I I #
coedge $-1 $283 $284 $285 $286 forward $109 $-1 #
coedge $-1 $287 $111 $288 $289 reversed $69 $-1 #
coedge $-1 $111 $287 $290 $291 reversed $69 $-1 #
coedge $-1 $284 $283 $111 $178 reversed $109 $-1 #
edge $-1 $292 -10.913709185961917 $293 10.913709185961917 $177 $294 forward 7 unknown #
face $-1 $295 $296 $41 $-1 $297 reversed single #
loop $-1 $-1 $298 $112 #
plane-surface $-1 -48.453251848889494 28.794398982284925 0 -1 0 0 0 0 1 forward_v I I I I #
coedge $-1 $299 $300 $301 $302 reversed $113 $-1 #
coedge $-1 $303 $115 $304 $305 reversed $72 $-1 #
coedge $-1 $115 $303 $306 $307 reversed $72 $-1 #
coedge $-1 $300 $299 $115 $186 reversed $113 $-1 #
edge $-1 $308 -10.913709185961917 $309 10.913709185961917 $185 $310 forward 7 unknown #
face $-1 $311 $312 $42 $-1 $313 reversed single #
loop $-1 $-1 $314 $116 #
plane-surface $-1 -121.88848618287355 6.2247645728675138 109.92728204294124 0 -1 0 0.50000000669873634 0 -0.8660253999169214 forward_v I I I I #
coedge $-1 $315 $316 $317 $318 reversed $117 $-1 #
coedge $-1 $192 $119 $319 $320 reversed $75 $-1 #
coedge $-1 $119 $191 $315 $321 reversed $75 $-1 #
coedge $-1 $317 $322 $119 $194 forward $323 $-1 #
edge $-1 $324 4.0824942004746845e-007 $325 11.336188611600029 $193 $326 forward 7 unknown #
loop $-1 $-1 $200 $120 #
plane-surface $-1 -60.944242683187369 -0.51221182048434599 4.3687577582587664 -0.50000000669873634 0 0.8660253999169214 0.8660253999169214 0 0.50000000669873634 forward_v I I I I #
loop $-1 $-1 $327 $77 #
coedge $-1 $198 $198 $199 $328 reversed $121 $-1 #
coedge $-1 $199 $199 $198 $328 forward $123 $-1 #
coedge $-1 $200 $200 $124 $201 forward $195 $-1 #
edge $-1 $329 0 $329 6.2831853071796004 $200 $330 forward 7 unknown #
face $-1 $331 $332 $44 $-1 $333 forward single #
loop $-1 $-1 $334 $125 #
plane-surface $-1 81.951637460744763 -7.2889381560049529 176.79001884796944 0 1 0 0.78801076186113728 0 0.61566146476048833 forward_v I I I I #
coedge $-1 $335 $336 $337 $338 reversed $126 $-1 #
coedge $-1 $207 $128 $339 $340 reversed $81 $-1 #
coedge $-1 $128 $206 $335 $341 reversed $81 $-1 #
coedge $-1 $337 $342 $128 $209 forward $332 $-1 #
edge $-1 $343 -19.968423952814973 $344 -15.893885148503642 $208 $345 forward 7 unknown #
loop $-1 $-1 $215 $129 #
plane-surface $-1 -14.097800754912257 -3.64446907800248 101.74797540986984 0.78801076186113728 0 0.61566146476048833 0.61566146476048833 0 -0.78801076186113728 forward_v I I I I #
loop $-1 $-1 $346 $83 #
coedge $-1 $213 $213 $214 $347 reversed $130 $-1 #
coedge $-1 $214 $214 $213 $347 forward $132 $-1 #
coedge $-1 $215 $215 $133 $216 forward $210 $-1 #
edge $-1 $348 0 $348 6.2831853071796004 $215 $349 forward 7 unknown #
loop $-1 $-1 $222 $134 #
plane-surface $-1 -14.097800754912257 -3.64446907800248 101.74797540986984 0.78801076186113728 0 0.61566146476048833 0.61566146476048833 0 -0.78801076186113728 forward_v I I I I #
loop $-1 $-1 $350 $86 #
coedge $-1 $220 $220 $221 $351 reversed $135 $-1 #
coedge $-1 $221 $221 $220 $351 forward $137 $-1 #
coedge $-1 $222 $222 $138 $223 forward $217 $-1 #
edge $-1 $352 0 $352 6.2831853071796004 $222 $353 forward 7 unknown #
loop $-1 $-1 $229 $139 #
plane-surface $-1 -14.097800754912257 -3.64446907800248 101.74797540986984 0.78801076186113728 0 0.61566146476048833 0.61566146476048833 0 -0.78801076186113728 forward_v I I I I #
loop $-1 $-1 $354 $89 #
coedge $-1 $227 $227 $228 $355 reversed $140 $-1 #
coedge $-1 $228 $228 $227 $355 forward $142 $-1 #
coedge $-1 $229 $229 $143 $230 forward $224 $-1 #
edge $-1 $356 0 $356 6.2831853071796004 $229 $357 forward 7 unknown #
face $-1 $358 $359 $48 $-1 $360 forward single #
loop $-1 $-1 $361 $144 #
plane-surface $-1 0 0 10.913709185961917 0 0 1 1 0 0 forward_v I I I I #
coedge $-1 $362 $363 $364 $365 reversed $145 $-1 #
coedge $-1 $236 $147 $366 $367 reversed $93 $-1 #
coedge $-1 $147 $235 $361 $368 reversed $93 $-1 #
coedge $-1 $369 $370 $147 $238 forward $371 $-1 #
edge $-1 $372 -82.696472229771913 $373 -77.481300238022797 $237 $374 forward 7 unknown #
loop $-1 $-1 $244 $148 #
plane-surface $-1 -14.097800754912257 -3.64446907800248 101.74797540986984 0.78801076186113728 0 0.61566146476048833 0.61566146476048833 0 -0.78801076186113728 forward_v I I I I #
loop $-1 $-1 $375 $95 #
coedge $-1 $242 $242 $243 $376 reversed $149 $-1 #
coedge $-1 $243 $243 $242 $376 forward $151 $-1 #
coedge $-1 $244 $244 $152 $245 forward $239 $-1 #
edge $-1 $377 0 $377 6.2831853071796004 $244 $378 forward 7 unknown #
loop $-1 $-1 $251 $153 #
plane-surface $-1 -14.097800754912257 -3.64446907800248 101.74797540986984 0.78801076186113728 0 0.61566146476048833 0.61566146476048833 0 -0.78801076186113728 forward_v I I I I #
loop $-1 $-1 $379 $98 #
coedge $-1 $249 $249 $250 $380 reversed $154 $-1 #
coedge $-1 $250 $250 $249 $380 forward $156 $-1 #
coedge $-1 $251 $251 $157 $252 forward $246 $-1 #
edge $-1 $381 0 $381 6.2831853071796004 $251 $382 forward 7 unknown #
loop $-1 $-1 $258 $158 #
plane-surface $-1 -14.097800754912257 -3.64446907800248 101.74797540986984 0.78801076186113728 0 0.61566146476048833 0.61566146476048833 0 -0.78801076186113728 forward_v I I I I #
loop $-1 $-1 $383 $101 #
coedge $-1 $256 $256 $257 $384 reversed $159 $-1 #
coedge $-1 $257 $257 $256 $384 forward $161 $-1 #
coedge $-1 $258 $258 $162 $259 forward $253 $-1 #
edge $-1 $385 0 $385 6.2831853071796004 $258 $386 forward 7 unknown #
face $-1 $387 $388 $39 $-1 $389 reversed single #
loop $-1 $-1 $390 $163 #
plane-surface $-1 -60.944242683187355 0 0 1 0 0 0 0 -1 forward_v I I I I #
coedge $-1 $391 $271 $392 $393 forward $164 $-1 #
coedge $-1 $394 $166 $391 $395 forward $105 $-1 #
coedge $-1 $166 $394 $396 $397 forward $105 $-1 #
coedge $-1 $274 $273 $166 $267 reversed $275 $-1 #
edge $-1 $398 -34.923485702495569 $399 34.923485702495569 $266 $400 forward 7 unknown #
coedge $-1 $168 $167 $401 $402 forward $66 $-1 #
coedge $-1 $403 $404 $167 $270 reversed $388 $-1 #
edge $-1 $277 -60.944242683187355 $405 60.944242683187355 $269 $406 forward 7 unknown #
coedge $-1 $263 $407 $168 $272 reversed $164 $-1 #
edge $-1 $408 -60.944242683187355 $276 60.944242683187355 $271 $409 forward 7 unknown #
coedge $-1 $266 $169 $407 $410 forward $275 $-1 #
coedge $-1 $169 $266 $403 $411 reversed $275 $-1 #
loop $-1 $-1 $273 $387 #
vertex $-1 $170 $412 #
vertex $-1 $170 $413 #
straight-curve $-1 60.944242683187355 0 10.913709185961917 0 1 0 I I #
face $-1 $414 $415 $40 $-1 $416 reversed single #
loop $-1 $-1 $417 $171 #
plane-surface $-1 0 0 10.913709185961917 0 0 1 1 0 0 forward_v I I I I #
coedge $-1 $418 $419 $420 $421 reversed $172 $-1 #
coedge $-1 $177 $174 $422 $423 reversed $109 $-1 #
coedge $-1 $174 $177 $424 $425 reversed $109 $-1 #
coedge $-1 $419 $418 $174 $286 reversed $172 $-1 #
edge $-1 $426 -10.913709185961917 $427 10.913709185961917 $285 $428 forward 7 unknown #
coedge $-1 $176 $175 $429 $430 reversed $69 $-1 #
coedge $-1 $422 $431 $175 $289 forward $415 $-1 #
edge $-1 $432 -20.526286211353106 $293 -8.2681127709318183 $288 $433 forward 7 unknown #
coedge $-1 $434 $424 $176 $291 forward $280 $-1 #
edge $-1 $292 8.2681127709318183 $435 20.526286211353106 $290 $436 forward 7 unknown #
vertex $-1 $291 $437 #
vertex $-1 $289 $438 #
straight-curve $-1 -51.453251848889494 -22.665312262074281 0 0 0 -1 I I #
face $-1 $439 $440 $41 $-1 $441 forward single #
loop $-1 $-1 $442 $179 #
plane-surface $-1 0 0 -10.913709185961917 0 0 1 1 0 0 forward_v I I I I #
coedge $-1 $443 $444 $303 $445 forward $180 $-1 #
coedge $-1 $185 $182 $446 $447 reversed $113 $-1 #
coedge $-1 $182 $185 $448 $449 reversed $113 $-1 #
coedge $-1 $450 $451 $182 $302 forward $452 $-1 #
edge $-1 $453 -10.913709185961917 $454 10.913709185961917 $301 $455 forward 7 unknown #
coedge $-1 $184 $183 $298 $445 reversed $72 $-1 #
coedge $-1 $446 $442 $183 $305 forward $296 $-1 #
edge $-1 $456 23.476625924444747 $309 26.476625924444747 $304 $457 forward 7 unknown #
coedge $-1 $458 $448 $184 $307 forward $440 $-1 #
edge $-1 $308 -26.476625924444747 $459 -23.476625924444747 $306 $460 forward 7 unknown #
vertex $-1 $307 $461 #
vertex $-1 $305 $462 #
straight-curve $-1 -51.453251848889494 22.665312262074281 0 0 0 -1 I I #
face $-1 $-1 $323 $42 $-1 $463 forward single #
loop $-1 $-1 $464 $187 #
plane-surface $-1 -60.944242683187355 0 0 1 0 0 0 0 -1 forward_v I I I I #
coedge $-1 $465 $466 $467 $468 reversed $188 $-1 #
coedge $-1 $469 $190 $192 $321 forward $117 $-1 #
coedge $-1 $190 $469 $465 $470 forward $117 $-1 #
coedge $-1 $467 $193 $190 $318 forward $323 $-1 #
edge $-1 $325 -6.9930823035940328 $471 6.4808704831096868 $317 $472 forward 7 unknown #
coedge $-1 $473 $474 $191 $320 forward $312 $-1 #
edge $-1 $475 -50.594883263211848 $324 -44.049931835508701 $319 $476 forward 7 unknown #
edge $-1 $325 -13.08990268003469 $475 -1.6303764080091705e-014 $192 $477 forward 7 unknown #
coedge $-1 $193 $467 $473 $478 forward $323 $-1 #
loop $-1 $-1 $467 $311 #
vertex $-1 $320 $479 #
vertex $-1 $194 $480 #
straight-curve $-1 -60.944243091436775 -7.2491882138362058 10.91370918596192 1 0 0 I I #
coedge $-1 $327 $327 $-1 $481 reversed $197 $-1 #
edge $-1 $482 0 $482 6.2831853071796004 $198 $483 forward 7 unknown #
vertex $-1 $201 $484 #
ellipse-curve $-1 -55.276148581512047 -0.51221182048434599 7.6412334721103488 -0.50000000669873634 0 0.8660253999169214 2.5980761997507642 0 1.5000000200962091 1 I I #
face $-1 $-1 $485 $44 $-1 $486 reversed single #
loop $-1 $-1 $208 $202 #
plane-surface $-1 0 0 10.913709185961917 0 0 1 1 0 0 forward_v I I I I #
coedge $-1 $487 $488 $489 $490 reversed $203 $-1 #
coedge $-1 $491 $205 $207 $341 forward $126 $-1 #
coedge $-1 $205 $491 $487 $492 forward $126 $-1 #
coedge $-1 $489 $208 $205 $338 forward $332 $-1 #
edge $-1 $344 -1.8222345390012329 $493 5.4667036170037129 $337 $494 forward 7 unknown #
coedge $-1 $495 $496 $206 $340 forward $485 $-1 #
edge $-1 $497 -82.696472229771913 $343 -77.481300238022797 $339 $498 forward 7 unknown #
edge $-1 $344 115.27033718343387 $497 121.88848536637474 $207 $499 forward 7 unknown #
coedge $-1 $208 $489 $495 $500 forward $332 $-1 #
vertex $-1 $209 $501 #
vertex $-1 $209 $502 #
straight-curve $-1 40.975818730372382 -7.1054273576010019e-015 10.91370918596192 -1 0 0 I I #
coedge $-1 $346 $346 $-1 $503 reversed $212 $-1 #
edge $-1 $504 0 $504 6.2831853071796004 $213 $505 forward 7 unknown #
vertex $-1 $216 $506 #
ellipse-curve $-1 58.906973281031689 -5.831150524803963 8.3061231900873498 0.78801076186113728 0 0.61566146476048833 0.30783073238024417 0 -0.39400538093056864 1 I I #
coedge $-1 $350 $350 $-1 $507 reversed $219 $-1 #
edge $-1 $508 0 $508 6.2831853071796004 $220 $509 forward 7 unknown #
vertex $-1 $223 $510 #
ellipse-curve $-1 58.906973281031689 -3.64446907800248 8.3061231900873498 0.78801076186113728 0 0.61566146476048833 0.30783073238024417 0 -0.39400538093056864 1 I I #
coedge $-1 $354 $354 $-1 $511 reversed $226 $-1 #
edge $-1 $512 0 $512 6.2831853071796004 $227 $513 forward 7 unknown #
vertex $-1 $230 $514 #
ellipse-curve $-1 58.906973281031689 -1.4577876312009934 8.3061231900873498 0.78801076186113728 0 0.61566146476048833 0.30783073238024417 0 -0.39400538093056864 1 I I #
face $-1 $-1 $371 $48 $-1 $515 reversed single #
loop $-1 $-1 $516 $231 #
plane-surface $-1 81.951637460744763 -7.1054273576010019e-015 176.79001884796944 0 -1 0 -0.78801076186113728 0 -0.61566146476048833 forward_v I I I I #
coedge $-1 $517 $518 $236 $368 forward $232 $-1 #
coedge $-1 $366 $234 $517 $519 reversed $145 $-1 #
coedge $-1 $234 $366 $370 $520 reversed $145 $-1 #
coedge $-1 $521 $516 $234 $365 forward $359 $-1 #
edge $-1 $522 115.27033718343387 $523 121.88848536637474 $364 $524 forward 7 unknown #
coedge $-1 $363 $362 $235 $367 forward $145 $-1 #
edge $-1 $525 115.27033718343387 $372 121.88848536637474 $235 $526 forward 7 unknown #
edge $-1 $373 -19.968423952814973 $525 -15.893885148503642 $361 $527 forward 7 unknown #
coedge $-1 $528 $237 $518 $529 reversed $371 $-1 #
coedge $-1 $237 $528 $363 $520 forward $371 $-1 #
loop $-1 $-1 $237 $358 #
vertex $-1 $238 $530 #
vertex $-1 $238 $531 #
straight-curve $-1 60.944242683187355 7.2889381560049458 88.395009423984718 0 0 1 I I #
coedge $-1 $375 $375 $-1 $532 reversed $241 $-1 #
edge $-1 $533 0 $533 6.2831853071796004 $242 $534 forward 7 unknown #
vertex $-1 $245 $535 #
ellipse-curve $-1 58.906973281031689 1.4577876312009863 8.3061231900873498 0.78801076186113728 0 0.61566146476048833 0.30783073238024417 0 -0.39400538093056864 1 I I #
coedge $-1 $379 $379 $-1 $536 reversed $248 $-1 #
edge $-1 $537 0 $537 6.2831853071796004 $249 $538 forward 7 unknown #
vertex $-1 $252 $539 #
ellipse-curve $-1 58.906973281031689 3.6444690780024729 8.3061231900873498 0.78801076186113728 0 0.61566146476048833 0.30783073238024417 0 -0.39400538093056864 1 I I #
coedge $-1 $383 $383 $-1 $540 reversed $255 $-1 #
edge $-1 $541 0 $541 6.2831853071796004 $256 $542 forward 7 unknown #
vertex $-1 $259 $543 #
ellipse-curve $-1 58.906973281031689 5.8311505248039595 8.3061231900873498 0.78801076186113728 0 0.61566146476048833 0.30783073238024417 0 -0.39400538093056864 1 I I #
face $-1 $-1 $275 $39 $-1 $544 reversed single #
loop $-1 $-1 $403 $260 #
plane-surface $-1 0 34.923485702495569 0 0 -1 0 0 0 -1 forward_v I I I I #
coedge $-1 $545 $401 $404 $546 forward $261 $-1 #
coedge $-1 $407 $263 $264 $395 reversed $164 $-1 #
coedge $-1 $401 $545 $263 $393 reversed $261 $-1 #
edge $-1 $408 -10.913709185961917 $547 10.913709185961917 $392 $548 forward 7 unknown #
coedge $-1 $265 $264 $545 $549 forward $105 $-1 #
edge $-1 $399 -60.944242683187355 $547 60.944242683187355 $391 $550 forward 7 unknown #
coedge $-1 $404 $403 $265 $397 reversed $388 $-1 #
edge $-1 $551 -60.944242683187355 $398 60.944242683187355 $396 $552 forward 7 unknown #
vertex $-1 $267 $553 #
vertex $-1 $410 $554 #
straight-curve $-1 60.944242683187355 0 -10.913709185961917 0 -1 0 I I #
coedge $-1 $390 $392 $268 $402 reversed $261 $-1 #
edge $-1 $405 -34.923485702495569 $408 34.923485702495569 $401 $555 forward 7 unknown #
coedge $-1 $396 $269 $274 $411 forward $388 $-1 #
coedge $-1 $269 $396 $390 $546 reversed $388 $-1 #
vertex $-1 $270 $556 #
straight-curve $-1 0 34.923485702495569 10.913709185961917 -1 0 0 I I #
coedge $-1 $271 $391 $273 $410 reversed $164 $-1 #
vertex $-1 $402 $557 #
straight-curve $-1 0 -34.923485702495569 10.913709185961917 1 0 0 I I #
edge $-1 $276 -10.913709185961917 $399 10.913709185961917 $273 $558 forward 7 unknown #
edge $-1 $277 -10.913709185961917 $398 10.913709185961917 $274 $559 forward 7 unknown #
point $-1 60.944242683187355 -34.923485702495569 10.913709185961917 #
point $-1 60.944242683187355 34.923485702495569 10.913709185961917 #
face $-1 $-1 $560 $40 $-1 $561 reversed single #
loop $-1 $-1 $562 $279 #
plane-surface $-1 0 0 -10.913709185961917 0 0 1 1 0 0 forward_v I I I I #
coedge $-1 $424 $434 $419 $563 forward $280 $-1 #
coedge $-1 $285 $282 $562 $564 reversed $172 $-1 #
coedge $-1 $282 $285 $417 $563 reversed $172 $-1 #
coedge $-1 $565 $566 $282 $421 forward $560 $-1 #
edge $-1 $567 -10.913709185961917 $568 10.913709185961917 $420 $569 forward 7 unknown #
coedge $-1 $562 $288 $283 $423 forward $415 $-1 #
edge $-1 $293 -26.476625924444747 $427 -23.476625924444747 $422 $570 forward 7 unknown #
coedge $-1 $290 $417 $284 $425 forward $280 $-1 #
edge $-1 $426 23.476625924444747 $292 26.476625924444747 $424 $571 forward 7 unknown #
vertex $-1 $425 $572 #
vertex $-1 $423 $573 #
straight-curve $-1 -48.453251848889494 -22.665312262074281 0 0 0 -1 I I #
coedge $-1 $566 $565 $287 $430 forward $560 $-1 #
edge $-1 $435 -10.913709185961917 $432 10.913709185961917 $429 $574 forward 7 unknown #
coedge $-1 $288 $562 $566 $575 forward $415 $-1 #
vertex $-1 $289 $576 #
straight-curve $-1 -51.453251848889494 -14.397199491142462 -10.913709185961917 0 1 0 I I #
coedge $-1 $417 $290 $565 $577 forward $280 $-1 #
vertex $-1 $577 $578 #
straight-curve $-1 -51.453251848889494 -14.397199491142462 10.913709185961917 0 -1 0 I I #
point $-1 -51.453251848889494 -22.665312262074281 10.913709185961917 #
point $-1 -51.453251848889494 -22.665312262074281 -10.913709185961917 #
face $-1 $-1 $452 $41 $-1 $579 reversed single #
loop $-1 $-1 $458 $295 #
plane-surface $-1 0 0 10.913709185961917 0 0 1 1 0 0 forward_v I I I I #
coedge $-1 $304 $580 $443 $581 forward $296 $-1 #
coedge $-1 $582 $298 $442 $581 reversed $180 $-1 #
coedge $-1 $298 $582 $458 $583 reversed $180 $-1 #
edge $-1 $459 -10.913709185961917 $456 10.913709185961917 $298 $584 forward 7 unknown #
coedge $-1 $580 $304 $299 $447 forward $296 $-1 #
edge $-1 $309 8.2681127709318183 $453 20.526286211353106 $446 $585 forward 7 unknown #
coedge $-1 $306 $586 $300 $449 forward $440 $-1 #
edge $-1 $454 -20.526286211353106 $308 -8.2681127709318183 $448 $587 forward 7 unknown #
coedge $-1 $588 $301 $586 $589 reversed $452 $-1 #
coedge $-1 $301 $588 $580 $590 reversed $452 $-1 #
loop $-1 $-1 $588 $439 #
vertex $-1 $590 $591 #
vertex $-1 $302 $592 #
straight-curve $-1 -51.453251848889494 34.923485702495569 0 0 0 1 I I #
vertex $-1 $305 $593 #
straight-curve $-1 -24.976625924444747 22.665312262074281 -10.913709185961917 -1 0 0 I I #
coedge $-1 $586 $306 $444 $583 forward $440 $-1 #
vertex $-1 $307 $594 #
straight-curve $-1 -24.976625924444747 22.665312262074281 10.913709185961917 1 0 0 I I #
point $-1 -51.453251848889494 22.665312262074281 10.913709185961917 #
point $-1 -51.453251848889494 22.665312262074281 -10.913709185961917 #
plane-surface $-1 0 0 10.913709185961917 0 0 1 1 0 0 forward_v I I I I #
coedge $-1 $474 $473 $466 $595 forward $312 $-1 #
coedge $-1 $466 $314 $316 $470 reversed $188 $-1 #
coedge $-1 $314 $465 $464 $595 reversed $188 $-1 #
coedge $-1 $322 $317 $314 $468 forward $323 $-1 #
edge $-1 $471 -11.336188611600029 $596 -4.0824942004746845e-007 $467 $597 forward 7 unknown #
coedge $-1 $316 $315 $474 $598 reversed $117 $-1 #
edge $-1 $599 1.6303764080091705e-014 $471 13.08990268003469 $465 $600 forward 7 unknown #
vertex $-1 $318 $601 #
straight-curve $-1 -49.608054479836738 -0.256105910242173 10.913709185961917 0 1 0 I I #
coedge $-1 $464 $319 $322 $478 reversed $312 $-1 #
coedge $-1 $319 $464 $469 $598 forward $312 $-1 #
vertex $-1 $320 $602 #
straight-curve $-1 -60.944242683187355 -7.2491882138362058 54.963641021470622 0 0 1 I I #
straight-curve $-1 -60.944242683187369 -7.2491882138362058 4.3687577582587664 -0.8660253999169214 0 -0.50000000669873634 I I #
edge $-1 $596 -6.2247645728675138 $324 7.2491882138362058 $473 $603 forward 7 unknown #
point $-1 -60.944242683187355 -7.2491882138362058 10.913709185961917 #
point $-1 -49.608054479836746 -7.2491882138362058 10.913709185961917 #
edge $-1 $604 1 $604 0 $327 $-1 forward 7 unknown #
vertex $-1 $328 $605 #
ellipse-curve $-1 -52.885679479995154 -0.51221182048434599 3.5008196083210081 -0.50000000669873634 0 0.8660253999169214 2.5980761997507642 0 1.5000000200962091 1 I I #
point $-1 -52.678072381761282 -0.51221182048434599 9.1412334922065526 #
loop $-1 $-1 $339 $331 #
plane-surface $-1 60.944242683187355 0 0 -1 0 0 0 0 1 forward_v I I I I #
coedge $-1 $488 $334 $336 $492 reversed $203 $-1 #
coedge $-1 $334 $487 $606 $607 reversed $203 $-1 #
coedge $-1 $342 $337 $334 $490 forward $332 $-1 #
edge $-1 $493 15.893885148503642 $608 19.968423952814973 $489 $609 forward 7 unknown #
coedge $-1 $336 $335 $496 $610 reversed $126 $-1 #
edge $-1 $611 -121.88848536637474 $493 -115.27033718343387 $487 $612 forward 7 unknown #
vertex $-1 $338 $613 #
straight-curve $-1 56.869703878876038 -1.82223453900124 10.913709185961928 0 -1 0 I I #
coedge $-1 $606 $339 $342 $500 reversed $485 $-1 #
coedge $-1 $339 $606 $491 $610 forward $485 $-1 #
vertex $-1 $340 $614 #
straight-curve $-1 60.944242683187355 -7.1054273576010019e-015 88.395009423984718 0 0 1 I I #
straight-curve $-1 -14.097800754912257 -7.1054273576010019e-015 101.74797540986984 0.61566146476048833 0 -0.78801076186113728 I I #
edge $-1 $608 -7.2889381560049529 $343 -7.1054273576010019e-015 $495 $615 forward 7 unknown #
point $-1 60.944242683187355 -7.1054273576010019e-015 10.913709185961917 #
point $-1 56.869703878876024 -7.1054273576010019e-015 10.91370918596192 #
edge $-1 $616 1 $616 0 $346 $-1 forward 7 unknown #
vertex $-1 $347 $617 #
ellipse-curve $-1 58.118962519170566 -5.831150524803963 7.6904617253268759 0.78801076186113728 0 0.61566146476048833 0.30783073238024417 0 -0.39400538093056864 1 I I #
point $-1 59.21480401341195 -5.831150524803963 7.9121178091567952 #
edge $-1 $618 1 $618 0 $350 $-1 forward 7 unknown #
vertex $-1 $351 $619 #
ellipse-curve $-1 58.118962519170566 -3.64446907800248 7.6904617253268759 0.78801076186113728 0 0.61566146476048833 0.30783073238024417 0 -0.39400538093056864 1 I I #
point $-1 59.21480401341195 -3.64446907800248 7.9121178091567952 #
edge $-1 $620 1 $620 0 $354 $-1 forward 7 unknown #
vertex $-1 $355 $621 #
ellipse-curve $-1 58.118962519170566 -1.4577876312009934 7.6904617253268759 0.78801076186113728 0 0.61566146476048833 0.30783073238024417 0 -0.39400538093056864 1 I I #
point $-1 59.21480401341195 -1.4577876312009934 7.9121178091567952 #
plane-surface $-1 60.944242683187355 0 0 -1 0 0 0 0 1 forward_v I I I I #
coedge $-1 $364 $521 $622 $623 reversed $359 $-1 #
coedge $-1 $622 $361 $362 $519 forward $232 $-1 #
coedge $-1 $361 $622 $369 $529 forward $232 $-1 #
edge $-1 $525 -9.1111726950061858 $522 -1.8222345390012329 $517 $624 forward 7 unknown #
edge $-1 $523 1.8222345390012329 $372 9.1111726950061858 $370 $625 forward 7 unknown #
coedge $-1 $516 $364 $528 $626 reversed $359 $-1 #
vertex $-1 $519 $627 #
vertex $-1 $520 $628 #
straight-curve $-1 -14.097800754912257 -7.1054273576010019e-015 101.74797540986984 0.61566146476048833 0 -0.78801076186113728 I I #
vertex $-1 $368 $629 #
straight-curve $-1 -14.097800754912257 7.2889381560049458 101.74797540986984 0.61566146476048833 0 -0.78801076186113728 I I #
straight-curve $-1 40.975818730372382 7.2889381560049458 10.91370918596192 -1 0 0 I I #
coedge $-1 $370 $369 $521 $626 forward $371 $-1 #
edge $-1 $630 -7.1054273576010019e-015 $373 7.2889381560049458 $369 $631 forward 7 unknown #
point $-1 60.944242683187355 7.2889381560049458 5.698537194212804 #
point $-1 60.944242683187355 7.2889381560049458 10.913709185961917 #
edge $-1 $632 1 $632 0 $375 $-1 forward 7 unknown #
vertex $-1 $376 $633 #
ellipse-curve $-1 58.118962519170566 1.4577876312009863 7.6904617253268759 0.78801076186113728 0 0.61566146476048833 0.30783073238024417 0 -0.39400538093056864 1 I I #
point $-1 59.21480401341195 1.4577876312009863 7.9121178091567952 #
edge $-1 $634 1 $634 0 $379 $-1 forward 7 unknown #
vertex $-1 $380 $635 #
ellipse-curve $-1 58.118962519170566 3.6444690780024729 7.6904617253268759 0.78801076186113728 0 0.61566146476048833 0.30783073238024417 0 -0.39400538093056864 1 I I #
point $-1 59.21480401341195 3.6444690780024729 7.9121178091567952 #
edge $-1 $636 1 $636 0 $383 $-1 forward 7 unknown #
vertex $-1 $384 $637 #
ellipse-curve $-1 58.118962519170566 5.8311505248039595 7.6904617253268759 0.78801076186113728 0 0.61566146476048833 0.30783073238024417 0 -0.39400538093056864 1 I I #
point $-1 59.21480401341195 5.8311505248039595 7.9121178091567952 #
plane-surface $-1 60.944242683187355 0 0 -1 0 0 0 0 1 forward_v I I I I #
coedge $-1 $392 $390 $394 $549 reversed $261 $-1 #
edge $-1 $405 -10.913709185961917 $551 10.913709185961917 $404 $638 forward 7 unknown #
vertex $-1 $549 $639 #
straight-curve $-1 -60.944242683187355 -34.923485702495569 0 0 0 -1 I I #
edge $-1 $547 -34.923485702495569 $551 34.923485702495569 $545 $640 forward 7 unknown #
straight-curve $-1 0 -34.923485702495569 -10.913709185961917 -1 0 0 I I #
vertex $-1 $397 $641 #
straight-curve $-1 0 34.923485702495569 -10.913709185961917 1 0 0 I I #
point $-1 60.944242683187355 34.923485702495569 -10.913709185961917 #
point $-1 60.944242683187355 -34.923485702495569 -10.913709185961917 #
straight-curve $-1 -60.944242683187355 0 10.913709185961917 0 -1 0 I I #
point $-1 -60.944242683187355 34.923485702495569 10.913709185961917 #
point $-1 -60.944242683187355 -34.923485702495569 10.913709185961917 #
straight-curve $-1 60.944242683187355 -34.923485702495569 0 0 0 -1 I I #
straight-curve $-1 60.944242683187355 34.923485702495569 0 0 0 -1 I I #
loop $-1 $-1 $420 $414 #
plane-surface $-1 0 -34.923485702495569 0 0 1 0 0 0 1 forward_v I I I I #
coedge $-1 $431 $422 $418 $564 forward $415 $-1 #
edge $-1 $568 -20.526286211353106 $426 -8.2681127709318183 $417 $642 forward 7 unknown #
edge $-1 $427 8.2681127709318183 $567 20.526286211353106 $562 $643 forward 7 unknown #
coedge $-1 $429 $420 $434 $577 reversed $560 $-1 #
coedge $-1 $420 $429 $431 $575 reversed $560 $-1 #
vertex $-1 $575 $644 #
vertex $-1 $421 $645 #
straight-curve $-1 -48.453251848889494 -34.923485702495569 0 0 0 1 I I #
straight-curve $-1 -24.976625924444747 -22.665312262074281 -10.913709185961917 1 0 0 I I #
straight-curve $-1 -24.976625924444747 -22.665312262074281 10.913709185961917 -1 0 0 I I #
point $-1 -48.453251848889494 -22.665312262074281 10.913709185961917 #
point $-1 -48.453251848889494 -22.665312262074281 -10.913709185961917 #
straight-curve $-1 -51.453251848889494 -34.923485702495569 0 0 0 -1 I I #
edge $-1 $567 48.453251848889494 $432 51.453251848889494 $566 $646 forward 7 unknown #
point $-1 -51.453251848889494 -34.923485702495569 -10.913709185961917 #
edge $-1 $435 -51.453251848889494 $568 -48.453251848889494 $565 $647 forward 7 unknown #
point $-1 -51.453251848889494 -34.923485702495569 10.913709185961917 #
plane-surface $-1 0 34.923485702495569 0 0 -1 0 0 0 -1 forward_v I I I I #
coedge $-1 $442 $446 $451 $590 forward $296 $-1 #
edge $-1 $648 -20.526286211353106 $456 -8.2681127709318183 $442 $649 forward 7 unknown #
coedge $-1 $444 $443 $588 $650 reversed $180 $-1 #
edge $-1 $459 8.2681127709318183 $651 20.526286211353106 $458 $652 forward 7 unknown #
straight-curve $-1 -48.453251848889494 22.665312262074281 0 0 0 -1 I I #
straight-curve $-1 -51.453251848889494 14.397199491142462 -10.913709185961917 0 1 0 I I #
coedge $-1 $448 $458 $450 $589 forward $440 $-1 #
straight-curve $-1 -51.453251848889494 14.397199491142462 10.913709185961917 0 -1 0 I I #
coedge $-1 $451 $450 $582 $650 forward $452 $-1 #
edge $-1 $651 48.453251848889494 $454 51.453251848889494 $450 $653 forward 7 unknown #
edge $-1 $453 -51.453251848889494 $648 -48.453251848889494 $451 $654 forward 7 unknown #
point $-1 -51.453251848889494 34.923485702495569 -10.913709185961917 #
point $-1 -51.453251848889494 34.923485702495569 10.913709185961917 #
point $-1 -48.453251848889494 22.665312262074281 -10.913709185961917 #
point $-1 -48.453251848889494 22.665312262074281 10.913709185961917 #
edge $-1 $596 44.049931835508701 $599 50.594883263211848 $464 $655 forward 7 unknown #
vertex $-1 $478 $656 #
straight-curve $-1 -60.944243091436775 6.2247645728675138 10.91370918596192 -1 0 0 I I #
edge $-1 $599 -6.4808704831096868 $475 6.9930823035940328 $474 $657 forward 7 unknown #
vertex $-1 $598 $658 #
straight-curve $-1 -60.944242683187369 6.2247645728675138 4.3687577582587664 0.8660253999169214 0 0.50000000669873634 I I #
point $-1 -49.608054479836746 6.2247645728675138 10.913709185961917 #
point $-1 -60.944242683187355 -7.2491882138362058 4.3687577582587744 #
straight-curve $-1 -60.944242683187355 0 10.913709185961917 0 -1 0 I I #
vertex $-1 $481 $659 #
point $-1 -50.28760328024439 -0.51221182048434599 5.0008196284172168 #
coedge $-1 $496 $495 $488 $607 forward $485 $-1 #
edge $-1 $608 77.481300238022797 $611 82.696472229771913 $606 $660 forward 7 unknown #
vertex $-1 $500 $661 #
straight-curve $-1 40.975818730372382 -7.2889381560049529 10.91370918596192 1 0 0 I I #
edge $-1 $611 -5.4667036170037129 $497 1.8222345390012329 $496 $662 forward 7 unknown #
vertex $-1 $610 $663 #
straight-curve $-1 -14.097800754912257 -7.2889381560049529 101.74797540986984 -0.61566146476048833 0 0.78801076186113728 I I #
point $-1 56.869703878876024 -7.2889381560049529 10.91370918596192 #
point $-1 60.944242683187355 -7.1054273576010019e-015 5.698537194212804 #
straight-curve $-1 60.944242683187355 0 10.913709185961917 0 1 0 I I #
vertex $-1 $503 $664 #
point $-1 58.426793251550812 -5.831150524803963 7.2964563443963071 #
vertex $-1 $507 $665 #
point $-1 58.426793251550812 -3.64446907800248 7.2964563443963071 #
vertex $-1 $511 $666 #
point $-1 58.426793251550812 -1.4577876312009934 7.2964563443963071 #
coedge $-1 $518 $517 $516 $623 forward $232 $-1 #
edge $-1 $522 15.893885148503642 $630 19.968423952814973 $622 $667 forward 7 unknown #
straight-curve $-1 56.869703878876038 -1.82223453900124 10.913709185961928 0 -1 0 I I #
straight-curve $-1 60.944242683187355 -1.82223453900124 5.6985371942127969 0 1 0 I I #
edge $-1 $630 77.481300238022797 $523 82.696472229771913 $528 $668 forward 7 unknown #
point $-1 56.869703878876024 -7.1054273576010019e-015 10.91370918596192 #
point $-1 60.944242683187355 -7.1054273576010019e-015 5.698537194212804 #
point $-1 56.869703878876024 7.2889381560049458 10.91370918596192 #
vertex $-1 $529 $669 #
straight-curve $-1 60.944242683187355 0 10.913709185961917 0 1 0 I I #
vertex $-1 $532 $670 #
point $-1 58.426793251550812 1.4577876312009863 7.2964563443963071 #
vertex $-1 $536 $671 #
point $-1 58.426793251550812 3.6444690780024729 7.2964563443963071 #
vertex $-1 $540 $672 #
point $-1 58.426793251550812 5.8311505248039595 7.2964563443963071 #
straight-curve $-1 -60.944242683187355 34.923485702495569 0 0 0 -1 I I #
point $-1 -60.944242683187355 -34.923485702495569 -10.913709185961917 #
straight-curve $-1 -60.944242683187355 0 -10.913709185961917 0 1 0 I I #
point $-1 -60.944242683187355 34.923485702495569 -10.913709185961917 #
straight-curve $-1 -48.453251848889494 -14.397199491142462 10.913709185961917 0 1 0 I I #
straight-curve $-1 -48.453251848889494 -14.397199491142462 -10.913709185961917 0 -1 0 I I #
point $-1 -48.453251848889494 -34.923485702495569 -10.913709185961917 #
point $-1 -48.453251848889494 -34.923485702495569 10.913709185961917 #
straight-curve $-1 0 -34.923485702495569 -10.913709185961917 -1 0 0 I I #
straight-curve $-1 0 -34.923485702495569 10.913709185961917 1 0 0 I I #
vertex $-1 $650 $673 #
straight-curve $-1 -48.453251848889494 14.397199491142462 -10.913709185961917 0 -1 0 I I #
edge $-1 $651 -10.913709185961917 $648 10.913709185961917 $588 $674 forward 7 unknown #
vertex $-1 $589 $675 #
straight-curve $-1 -48.453251848889494 14.397199491142462 10.913709185961917 0 1 0 I I #
straight-curve $-1 0 34.923485702495569 10.913709185961917 -1 0 0 I I #
straight-curve $-1 0 34.923485702495569 -10.913709185961917 1 0 0 I I #
straight-curve $-1 -60.944242683187355 6.2247645728675138 54.963641021470622 0 0 -1 I I #
point $-1 -60.944242683187355 6.2247645728675138 10.913709185961917 #
straight-curve $-1 -60.944242683187355 -0.256105910242173 4.3687577582587753 0 -1 0 I I #
point $-1 -60.944242683187355 6.2247645728675138 4.3687577582587744 #
point $-1 -51.385679459898945 -0.51221182048434599 0.90274340857024304 #
straight-curve $-1 60.944242683187355 -7.2889381560049529 88.395009423984718 0 0 -1 I I #
point $-1 60.944242683187355 -7.2889381560049529 10.913709185961917 #
straight-curve $-1 60.944242683187355 -1.82223453900124 5.6985371942127969 0 1 0 I I #
point $-1 60.944242683187355 -7.2889381560049529 5.698537194212804 #
point $-1 57.724957138240001 -5.831150524803963 7.3826309929466314 #
point $-1 57.724957138240001 -3.64446907800248 7.3826309929466314 #
point $-1 57.724957138240001 -1.4577876312009934 7.3826309929466314 #
straight-curve $-1 40.975818730372382 -7.1054273576010019e-015 10.91370918596192 1 0 0 I I #
straight-curve $-1 60.944242683187355 -7.1054273576010019e-015 88.395009423984718 0 0 -1 I I #
point $-1 60.944242683187355 -7.1054273576010019e-015 10.913709185961917 #
point $-1 57.724957138240001 1.4577876312009863 7.3826309929466314 #
point $-1 57.724957138240001 3.6444690780024729 7.3826309929466314 #
point $-1 57.724957138240001 5.8311505248039595 7.3826309929466314 #
point $-1 -48.453251848889494 34.923485702495569 -10.913709185961917 #
straight-curve $-1 -48.453251848889494 34.923485702495569 0 0 0 -1 I I #
point $-1 -48.453251848889494 34.923485702495569 10.913709185961917 #
End-of-ACIS-data 