500 0 5 0           
7 Unknown 11 ACIS 5.0 NT 24 Fri Mar 26 19:34:33 1999 
-1 9.9999999999999995e-007 1e-010 
body $-1 $5 $-1 $6 #
body $-1 $7 $-1 $8 #
body $-1 $9 $-1 $10 #
body $-1 $11 $-1 $12 #
body $-1 $13 $-1 $14 #
lump $-1 $-1 $15 $0 #
transform $-1 1 0 0 0 1 0 0 0 1 54.77095858638264 37.133663545027765 18.036124211915215 1 rotate no_reflect no_shear #
lump $-1 $-1 $16 $1 #
transform $-1 1 0 0 0 1 0 0 0 1 54.77095858638264 37.133663545027765 18.036124211915215 1 rotate no_reflect no_shear #
lump $-1 $-1 $17 $2 #
transform $-1 1 0 0 0 1 0 0 0 1 54.77095858638264 37.133663545027765 18.036124211915215 1 rotate no_reflect no_shear #
lump $-1 $-1 $18 $3 #
transform $-1 1 0 0 0 1 0 0 0 1 54.77095858638264 37.133663545027765 18.036124211915215 1 rotate no_reflect no_shear #
lump $-1 $-1 $19 $4 #
transform $-1 1 0 0 0 1 0 0 0 1 54.77095858638264 37.133663545027765 18.036124211915215 1 rotate no_reflect no_shear #
shell $-1 $-1 $-1 $20 $-1 $5 #
shell $-1 $-1 $-1 $21 $-1 $7 #
shell $-1 $-1 $-1 $22 $-1 $9 #
shell $-1 $-1 $-1 $23 $-1 $11 #
shell $-1 $-1 $-1 $24 $-1 $13 #
face $-1 $25 $26 $15 $-1 $27 forward single #
face $-1 $28 $29 $16 $-1 $30 forward single #
face $-1 $31 $32 $17 $-1 $33 forward single #
face $-1 $34 $35 $18 $-1 $36 reversed single #
face $-1 $37 $38 $19 $-1 $39 forward single #
face $-1 $40 $41 $15 $-1 $42 reversed single #
loop $-1 $-1 $43 $20 #
plane-surface $-1 0 0 18.036124211915215 0 0 1 1 0 0 forward_v I I I I #
face $-1 $44 $45 $16 $-1 $46 reversed single #
loop $-1 $-1 $47 $21 #
plane-surface $-1 0 -28.863604926581921 5.4513952175248273 0 0 1 1 0 0 forward_v I I I I #
face $-1 $48 $49 $17 $-1 $50 reversed single #
loop $-1 $-1 $51 $22 #
plane-surface $-1 0 25.418367785066351 14.472400481802296 0 0 1 1 0 0 forward_v I I I I #
face $-1 $52 $53 $18 $-1 $54 reversed single #
loop $-1 $-1 $55 $23 #
plane-surface $-1 -145.58532457676276 -12.139425114893463 69.220761047116241 0 -1 0 0.82903758062907751 0 -0.55919289150049634 forward_v I I I I #
face $-1 $56 $57 $19 $-1 $58 forward single #
loop $-1 $59 $60 $24 #
cone-surface $-1 -50.511901320128288 -16.36648571151477 12.418970413008946 0.82903758062907751 0 -0.55919289150049634 0.55919289150049634 0 0.82903758062907751 1 I I 0 1 1 forward I I I I #
face $-1 $61 $62 $15 $-1 $63 reversed single #
loop $-1 $-1 $64 $25 #
plane-surface $-1 0 0 -18.036124211915215 0 0 1 1 0 0 forward_v I I I I #
coedge $-1 $65 $66 $67 $68 forward $26 $-1 #
face $-1 $69 $70 $16 $-1 $71 reversed single #
loop $-1 $-1 $72 $28 #
plane-surface $-1 0 -28.863604926581921 -3.8717733568511443 0 0 1 1 0 0 forward_v I I I I #
coedge $-1 $73 $74 $75 $76 reversed $29 $-1 #
face $-1 $77 $78 $17 $-1 $79 reversed single #
loop $-1 $-1 $80 $31 #
plane-surface $-1 0 25.418367785066351 8.0830538029159342 0 0 1 1 0 0 forward_v I I I I #
coedge $-1 $81 $82 $83 $84 reversed $32 $-1 #
face $-1 $85 $86 $18 $-1 $87 reversed single #
loop $-1 $-1 $88 $34 #
plane-surface $-1 -54.770958586382648 -16.36648571151477 7.9656996427697564 -0.82903758062907751 0 0.55919289150049634 0.55919289150049634 0 0.82903758062907751 forward_v I I I I #
coedge $-1 $89 $90 $91 $92 reversed $35 $-1 #
face $-1 $-1 $93 $19 $-1 $94 forward single #
loop $-1 $95 $96 $37 #
cone-surface $-1 -49.234618727834572 -16.36648571151477 11.557432452925163 0.82903758062907751 0 -0.55919289150049634 0.27959644575024817 0 0.41451879031453875 1 I I -0.70710678118654746 0.70710678118654746 0.5 forward I I I I #
loop $-1 $-1 $97 $24 #
coedge $-1 $60 $60 $98 $99 reversed $38 $-1 #
face $-1 $100 $101 $15 $-1 $102 reversed single #
loop $-1 $-1 $103 $40 #
plane-surface $-1 0 -37.133663545027765 0 0 1 0 0 0 1 forward_v I I I I #
coedge $-1 $104 $105 $106 $107 forward $41 $-1 #
coedge $-1 $108 $43 $109 $110 forward $26 $-1 #
coedge $-1 $43 $108 $111 $112 forward $26 $-1 #
coedge $-1 $113 $114 $43 $68 reversed $115 $-1 #
edge $-1 $116 -37.133663545027765 $117 37.133663545027765 $67 $118 forward 7 unknown #
face $-1 $119 $120 $16 $-1 $121 reversed single #
loop $-1 $-1 $122 $44 #
plane-surface $-1 0 -20.593546308136077 0.78981093033684147 0 -1 0 0 0 -1 forward_v I I I I #
coedge $-1 $123 $124 $125 $126 reversed $45 $-1 #
coedge $-1 $127 $47 $128 $129 forward $29 $-1 #
coedge $-1 $47 $127 $130 $131 reversed $29 $-1 #
coedge $-1 $132 $133 $47 $76 forward $134 $-1 #
edge $-1 $135 6.1617438448451161 $136 22.701861081736805 $75 $137 forward 7 unknown #
face $-1 $138 $139 $17 $-1 $140 reversed single #
loop $-1 $-1 $141 $48 #
plane-surface $-1 0 13.703072025104937 11.277727142359115 0 1 0 0 0 1 forward_v I I I I #
coedge $-1 $142 $143 $144 $145 reversed $49 $-1 #
coedge $-1 $146 $51 $147 $148 reversed $32 $-1 #
coedge $-1 $51 $146 $149 $150 forward $32 $-1 #
coedge $-1 $151 $152 $51 $84 forward $139 $-1 #
edge $-1 $153 -24.42447965249459 $154 -0.99388813257176167 $83 $155 forward 7 unknown #
face $-1 $156 $157 $18 $-1 $158 reversed single #
loop $-1 $-1 $159 $52 #
plane-surface $-1 -145.58532457676276 -20.593546308136077 69.220761047116241 0 1 0 -0.82903758062907751 0 0.55919289150049634 forward_v I I I I #
coedge $-1 $160 $161 $162 $163 reversed $53 $-1 #
coedge $-1 $90 $55 $164 $165 reversed $35 $-1 #
coedge $-1 $55 $89 $160 $166 reversed $35 $-1 #
coedge $-1 $162 $167 $55 $92 forward $157 $-1 #
edge $-1 $168 16.574256311642905 $169 26.644680880788354 $91 $170 forward 7 unknown #
loop $-1 $-1 $98 $56 #
plane-surface $-1 -54.770958586382648 -16.36648571151477 7.9656996427697564 -0.82903758062907751 0 0.55919289150049634 0.55919289150049634 0 0.82903758062907751 forward_v I I I I #
loop $-1 $-1 $171 $37 #
coedge $-1 $96 $96 $97 $172 reversed $57 $-1 #
coedge $-1 $97 $97 $96 $172 forward $59 $-1 #
coedge $-1 $98 $98 $60 $99 forward $93 $-1 #
edge $-1 $173 0 $173 6.2831853071796004 $98 $174 forward 7 unknown #
face $-1 $175 $176 $15 $-1 $177 reversed single #
loop $-1 $-1 $178 $61 #
plane-surface $-1 -54.77095858638264 0 0 1 0 0 0 0 -1 forward_v I I I I #
coedge $-1 $179 $111 $180 $181 forward $62 $-1 #
coedge $-1 $182 $64 $179 $183 forward $41 $-1 #
coedge $-1 $64 $182 $184 $185 forward $41 $-1 #
coedge $-1 $114 $113 $64 $107 reversed $115 $-1 #
edge $-1 $186 -37.133663545027765 $187 37.133663545027765 $106 $188 forward 7 unknown #
coedge $-1 $66 $65 $189 $190 forward $26 $-1 #
coedge $-1 $191 $192 $65 $110 reversed $176 $-1 #
edge $-1 $117 -54.77095858638264 $193 54.77095858638264 $109 $194 forward 7 unknown #
coedge $-1 $103 $195 $66 $112 reversed $62 $-1 #
edge $-1 $196 -54.77095858638264 $116 54.77095858638264 $111 $197 forward 7 unknown #
coedge $-1 $106 $67 $195 $198 forward $115 $-1 #
coedge $-1 $67 $106 $191 $199 reversed $115 $-1 #
loop $-1 $-1 $113 $175 #
vertex $-1 $68 $200 #
vertex $-1 $68 $201 #
straight-curve $-1 54.77095858638264 0 18.036124211915215 0 1 0 I I #
face $-1 $202 $203 $16 $-1 $204 reversed single #
loop $-1 $-1 $205 $69 #
plane-surface $-1 -54.77095858638264 0 0 1 0 0 0 0 -1 forward_v I I I I #
coedge $-1 $206 $128 $133 $207 reversed $70 $-1 #
coedge $-1 $208 $72 $209 $210 reversed $45 $-1 #
coedge $-1 $72 $208 $206 $211 forward $45 $-1 #
coedge $-1 $133 $132 $72 $126 forward $134 $-1 #
edge $-1 $212 -22.701861081736805 $213 -6.1617438448451161 $125 $214 forward 7 unknown #
coedge $-1 $74 $73 $205 $215 reversed $29 $-1 #
coedge $-1 $122 $216 $73 $129 reversed $70 $-1 #
edge $-1 $135 -54.77095858638264 $217 54.77095858638264 $128 $218 forward 7 unknown #
coedge $-1 $219 $220 $74 $131 forward $203 $-1 #
edge $-1 $136 -54.77095858638264 $221 54.77095858638264 $130 $222 forward 7 unknown #
coedge $-1 $125 $75 $220 $223 forward $134 $-1 #
coedge $-1 $75 $125 $122 $207 forward $134 $-1 #
loop $-1 $-1 $75 $202 #
vertex $-1 $76 $224 #
vertex $-1 $223 $225 #
straight-curve $-1 54.77095858638264 -14.431802463290961 5.4513952175248273 0 -1 0 I I #
face $-1 $226 $227 $17 $-1 $228 reversed single #
loop $-1 $-1 $83 $77 #
plane-surface $-1 54.77095858638264 0 0 -1 0 0 0 0 1 forward_v I I I I #
coedge $-1 $229 $149 $230 $231 reversed $78 $-1 #
coedge $-1 $232 $80 $229 $233 forward $49 $-1 #
coedge $-1 $80 $232 $234 $235 reversed $49 $-1 #
coedge $-1 $152 $151 $80 $145 forward $139 $-1 #
edge $-1 $236 0.99388813257176167 $237 24.42447965249459 $144 $238 forward 7 unknown #
coedge $-1 $82 $81 $239 $240 reversed $32 $-1 #
coedge $-1 $241 $242 $81 $148 forward $243 $-1 #
edge $-1 $244 -54.77095858638264 $153 54.77095858638264 $147 $245 forward 7 unknown #
coedge $-1 $141 $246 $82 $150 reversed $78 $-1 #
edge $-1 $247 -54.77095858638264 $154 54.77095858638264 $149 $248 forward 7 unknown #
coedge $-1 $144 $83 $246 $249 forward $139 $-1 #
coedge $-1 $83 $144 $241 $250 reversed $139 $-1 #
vertex $-1 $250 $251 #
vertex $-1 $84 $252 #
straight-curve $-1 54.77095858638264 12.709183892533176 14.472400481802296 0 -1 0 I I #
face $-1 $-1 $253 $18 $-1 $254 forward single #
loop $-1 $-1 $91 $85 #
plane-surface $-1 -54.77095858638264 0 0 1 0 0 0 0 -1 forward_v I I I I #
coedge $-1 $255 $256 $257 $258 reversed $86 $-1 #
coedge $-1 $259 $88 $90 $166 forward $53 $-1 #
coedge $-1 $88 $259 $255 $260 forward $53 $-1 #
coedge $-1 $257 $91 $88 $163 forward $157 $-1 #
edge $-1 $169 3.956182259136078 $261 12.410303452378692 $162 $262 forward 7 unknown #
coedge $-1 $263 $264 $89 $165 forward $253 $-1 #
edge $-1 $265 -24.814290630549095 $168 -18.021703701998739 $164 $266 forward 7 unknown #
edge $-1 $169 1.2809303928265426e-014 $265 12.147126746056523 $90 $267 forward 7 unknown #
coedge $-1 $91 $257 $263 $268 reversed $157 $-1 #
vertex $-1 $268 $269 #
vertex $-1 $92 $270 #
straight-curve $-1 -54.77095858638264 -12.139425114893463 34.610380523558121 0 0 -1 I I #
coedge $-1 $171 $171 $-1 $271 reversed $95 $-1 #
edge $-1 $272 0 $272 6.2831853071796004 $96 $273 forward 7 unknown #
vertex $-1 $99 $274 #
ellipse-curve $-1 -51.374665122107466 -16.36648571151477 13.000911927342484 -0.82903758062907751 0 0.55919289150049634 0.55919289150049634 0 0.82903758062907751 1 I I #
face $-1 $-1 $115 $15 $-1 $275 reversed single #
loop $-1 $-1 $191 $100 #
plane-surface $-1 0 37.133663545027765 0 0 -1 0 0 0 -1 forward_v I I I I #
coedge $-1 $276 $189 $192 $277 forward $101 $-1 #
coedge $-1 $195 $103 $104 $183 reversed $62 $-1 #
coedge $-1 $189 $276 $103 $181 reversed $101 $-1 #
edge $-1 $196 -18.036124211915215 $278 18.036124211915215 $180 $279 forward 7 unknown #
coedge $-1 $105 $104 $276 $280 forward $41 $-1 #
edge $-1 $187 -54.77095858638264 $278 54.77095858638264 $179 $281 forward 7 unknown #
coedge $-1 $192 $191 $105 $185 reversed $176 $-1 #
edge $-1 $282 -54.77095858638264 $186 54.77095858638264 $184 $283 forward 7 unknown #
vertex $-1 $107 $284 #
vertex $-1 $198 $285 #
straight-curve $-1 54.77095858638264 0 -18.036124211915215 0 -1 0 I I #
coedge $-1 $178 $180 $108 $190 reversed $101 $-1 #
edge $-1 $193 -37.133663545027765 $196 37.133663545027765 $189 $286 forward 7 unknown #
coedge $-1 $184 $109 $114 $199 forward $176 $-1 #
coedge $-1 $109 $184 $178 $277 reversed $176 $-1 #
vertex $-1 $110 $287 #
straight-curve $-1 0 37.133663545027765 18.036124211915215 -1 0 0 I I #
coedge $-1 $111 $179 $113 $198 reversed $62 $-1 #
vertex $-1 $190 $288 #
straight-curve $-1 0 -37.133663545027765 18.036124211915215 1 0 0 I I #
edge $-1 $116 -18.036124211915215 $187 18.036124211915215 $113 $289 forward 7 unknown #
edge $-1 $117 -18.036124211915215 $186 18.036124211915215 $114 $290 forward 7 unknown #
point $-1 54.77095858638264 -37.133663545027765 18.036124211915215 #
point $-1 54.77095858638264 37.133663545027765 18.036124211915215 #
face $-1 $-1 $134 $16 $-1 $291 reversed single #
loop $-1 $-1 $130 $119 #
plane-surface $-1 0 -37.133663545027765 0 0 1 0 0 0 1 forward_v I I I I #
coedge $-1 $292 $293 $127 $215 forward $120 $-1 #
coedge $-1 $216 $122 $124 $211 reversed $70 $-1 #
edge $-1 $213 -4.2666788220195651 $135 5.0564897523564065 $133 $294 forward 7 unknown #
coedge $-1 $124 $123 $295 $296 reversed $45 $-1 #
coedge $-1 $220 $219 $123 $210 forward $203 $-1 #
edge $-1 $297 -54.77095858638264 $212 54.77095858638264 $209 $298 forward 7 unknown #
edge $-1 $299 -54.77095858638264 $213 54.77095858638264 $206 $300 forward 7 unknown #
vertex $-1 $210 $301 #
vertex $-1 $126 $302 #
straight-curve $-1 54.77095858638264 -14.431802463290961 -3.8717733568511443 0 1 0 I I #
edge $-1 $221 -22.701861081736805 $217 -6.1617438448451161 $205 $303 forward 7 unknown #
coedge $-1 $128 $206 $292 $304 reversed $70 $-1 #
vertex $-1 $215 $305 #
straight-curve $-1 0 -20.593546308136077 5.4513952175248273 -1 0 0 I I #
coedge $-1 $209 $130 $293 $306 forward $203 $-1 #
coedge $-1 $130 $209 $132 $223 reversed $203 $-1 #
vertex $-1 $306 $307 #
straight-curve $-1 0 -37.133663545027765 5.4513952175248273 -1 0 0 I I #
edge $-1 $136 -5.4513952175248273 $212 3.8717733568511443 $132 $308 forward 7 unknown #
point $-1 54.77095858638264 -20.593546308136077 5.4513952175248273 #
point $-1 54.77095858638264 -37.133663545027765 5.4513952175248273 #
face $-1 $-1 $243 $17 $-1 $309 reversed single #
loop $-1 $-1 $239 $138 #
plane-surface $-1 -54.77095858638264 0 0 1 0 0 0 0 -1 forward_v I I I I #
coedge $-1 $246 $141 $142 $233 reversed $78 $-1 #
coedge $-1 $239 $310 $141 $231 forward $227 $-1 #
edge $-1 $311 2.4441902317363766 $247 8.8335369106227386 $230 $312 forward 7 unknown #
coedge $-1 $143 $142 $310 $313 reversed $49 $-1 #
edge $-1 $236 -54.77095858638264 $311 54.77095858638264 $229 $314 forward 7 unknown #
coedge $-1 $242 $241 $143 $235 forward $243 $-1 #
edge $-1 $237 -54.77095858638264 $315 54.77095858638264 $234 $316 forward 7 unknown #
vertex $-1 $145 $317 #
vertex $-1 $235 $318 #
straight-curve $-1 54.77095858638264 12.709183892533176 8.0830538029159342 0 1 0 I I #
coedge $-1 $319 $230 $146 $240 forward $227 $-1 #
edge $-1 $247 0.99388813257176167 $244 24.42447965249459 $239 $320 forward 7 unknown #
coedge $-1 $234 $147 $152 $250 forward $243 $-1 #
coedge $-1 $147 $234 $319 $321 reversed $243 $-1 #
loop $-1 $-1 $147 $226 #
vertex $-1 $321 $322 #
straight-curve $-1 0 37.133663545027765 14.472400481802296 1 0 0 I I #
coedge $-1 $149 $229 $151 $249 reversed $78 $-1 #
vertex $-1 $240 $323 #
straight-curve $-1 0 13.703072025104937 14.472400481802296 1 0 0 I I #
edge $-1 $154 -8.8335369106227386 $236 -2.4441902317363766 $151 $324 forward 7 unknown #
edge $-1 $153 -14.472400481802296 $237 -8.0830538029159342 $152 $325 forward 7 unknown #
point $-1 54.77095858638264 37.133663545027765 14.472400481802296 #
point $-1 54.77095858638264 13.703072025104937 14.472400481802296 #
loop $-1 $-1 $164 $156 #
plane-surface $-1 0 0 18.036124211915215 0 0 1 1 0 0 forward_v I I I I #
coedge $-1 $256 $159 $161 $260 reversed $86 $-1 #
coedge $-1 $159 $255 $326 $327 reversed $86 $-1 #
coedge $-1 $167 $162 $159 $258 forward $157 $-1 #
edge $-1 $261 -26.644680880788354 $328 -16.574256311642905 $257 $329 forward 7 unknown #
coedge $-1 $161 $160 $264 $330 reversed $53 $-1 #
edge $-1 $331 -12.147126746056523 $261 -1.2809303928265426e-014 $255 $332 forward 7 unknown #
vertex $-1 $163 $333 #
straight-curve $-1 -54.77095858638264 -8.1832428557573849 7.9656996427697742 0 -1 0 I I #
coedge $-1 $326 $164 $167 $268 forward $253 $-1 #
coedge $-1 $164 $326 $259 $330 forward $253 $-1 #
vertex $-1 $165 $334 #
straight-curve $-1 -72.792662288381379 -12.139425114893463 18.036124211915215 -1 0 0 I I #
straight-curve $-1 -54.770958586382648 -12.139425114893463 7.9656996427697564 0.55919289150049634 0 0.82903758062907751 I I #
edge $-1 $168 12.139425114893463 $328 20.593546308136077 $167 $335 forward 7 unknown #
point $-1 -54.77095858638264 -12.139425114893463 18.036124211915215 #
point $-1 -54.77095858638264 -12.139425114893463 7.9656996427697671 #
edge $-1 $336 1 $336 0 $171 $-1 forward 7 unknown #
vertex $-1 $172 $337 #
ellipse-curve $-1 -49.649137518149111 -16.36648571151477 11.837028898675412 -0.82903758062907751 0 0.55919289150049634 0.55919289150049634 0 0.82903758062907751 1 I I #
point $-1 -50.815472230606964 -16.36648571151477 13.829949507971559 #
plane-surface $-1 54.77095858638264 0 0 -1 0 0 0 0 1 forward_v I I I I #
coedge $-1 $180 $178 $182 $280 reversed $101 $-1 #
edge $-1 $193 -18.036124211915215 $282 18.036124211915215 $192 $338 forward 7 unknown #
vertex $-1 $280 $339 #
straight-curve $-1 -54.77095858638264 -37.133663545027765 0 0 0 -1 I I #
edge $-1 $278 -37.133663545027765 $282 37.133663545027765 $276 $340 forward 7 unknown #
straight-curve $-1 0 -37.133663545027765 -18.036124211915215 -1 0 0 I I #
vertex $-1 $185 $341 #
straight-curve $-1 0 37.133663545027765 -18.036124211915215 1 0 0 I I #
point $-1 54.77095858638264 37.133663545027765 -18.036124211915215 #
point $-1 54.77095858638264 -37.133663545027765 -18.036124211915215 #
straight-curve $-1 -54.77095858638264 0 18.036124211915215 0 -1 0 I I #
point $-1 -54.77095858638264 37.133663545027765 18.036124211915215 #
point $-1 -54.77095858638264 -37.133663545027765 18.036124211915215 #
straight-curve $-1 54.77095858638264 -37.133663545027765 0 0 0 -1 I I #
straight-curve $-1 54.77095858638264 37.133663545027765 0 0 0 -1 I I #
plane-surface $-1 54.77095858638264 0 0 -1 0 0 0 0 1 forward_v I I I I #
coedge $-1 $295 $205 $216 $304 forward $120 $-1 #
coedge $-1 $205 $295 $219 $306 reversed $120 $-1 #
straight-curve $-1 54.77095858638264 -20.593546308136077 0.39490546516842073 0 0 1 I I #
coedge $-1 $293 $292 $208 $296 forward $120 $-1 #
edge $-1 $299 6.1617438448451161 $297 22.701861081736805 $295 $342 forward 7 unknown #
vertex $-1 $210 $343 #
straight-curve $-1 0 -37.133663545027765 -3.8717733568511443 1 0 0 I I #
vertex $-1 $296 $344 #
straight-curve $-1 0 -20.593546308136077 -3.8717733568511443 1 0 0 I I #
point $-1 54.77095858638264 -37.133663545027765 -3.8717733568511443 #
point $-1 54.77095858638264 -20.593546308136077 -3.8717733568511443 #
straight-curve $-1 -54.77095858638264 -14.431802463290961 5.4513952175248273 0 1 0 I I #
edge $-1 $217 -5.0564897523564065 $299 4.2666788220195651 $292 $345 forward 7 unknown #
point $-1 -54.77095858638264 -20.593546308136077 5.4513952175248273 #
edge $-1 $221 -5.4513952175248273 $297 3.8717733568511443 $293 $346 forward 7 unknown #
point $-1 -54.77095858638264 -37.133663545027765 5.4513952175248273 #
straight-curve $-1 54.77095858638264 -37.133663545027765 0 0 0 -1 I I #
plane-surface $-1 0 37.133663545027765 0 0 -1 0 0 0 -1 forward_v I I I I #
coedge $-1 $230 $319 $232 $313 forward $227 $-1 #
vertex $-1 $313 $347 #
straight-curve $-1 -54.77095858638264 13.703072025104937 5.6388635711795576 0 0 1 I I #
edge $-1 $315 -24.42447965249459 $311 -0.99388813257176167 $310 $348 forward 7 unknown #
straight-curve $-1 0 13.703072025104937 8.0830538029159342 -1 0 0 I I #
vertex $-1 $235 $349 #
straight-curve $-1 0 37.133663545027765 8.0830538029159342 -1 0 0 I I #
point $-1 54.77095858638264 13.703072025104937 8.0830538029159342 #
point $-1 54.77095858638264 37.133663545027765 8.0830538029159342 #
coedge $-1 $310 $239 $242 $321 forward $227 $-1 #
straight-curve $-1 -54.77095858638264 12.709183892533176 14.472400481802296 0 1 0 I I #
edge $-1 $244 -14.472400481802296 $315 -8.0830538029159342 $242 $350 forward 7 unknown #
point $-1 -54.77095858638264 37.133663545027765 14.472400481802296 #
point $-1 -54.77095858638264 13.703072025104937 14.472400481802296 #
straight-curve $-1 54.77095858638264 13.703072025104937 5.6388635711795576 0 0 -1 I I #
straight-curve $-1 54.77095858638264 37.133663545027765 0 0 0 -1 I I #
coedge $-1 $264 $263 $256 $327 forward $253 $-1 #
edge $-1 $328 18.021703701998739 $331 24.814290630549095 $326 $351 forward 7 unknown #
vertex $-1 $327 $352 #
straight-curve $-1 -54.77095858638264 -20.593546308136077 34.610380523558121 0 0 1 I I #
edge $-1 $331 -12.410303452378692 $265 -3.956182259136078 $264 $353 forward 7 unknown #
vertex $-1 $330 $354 #
straight-curve $-1 -54.770958586382648 -20.593546308136077 7.9656996427697564 -0.55919289150049634 0 -0.82903758062907751 I I #
point $-1 -54.77095858638264 -20.593546308136077 7.9656996427697671 #
point $-1 -47.978371657832284 -12.139425114893463 18.036124211915215 #
straight-curve $-1 -54.77095858638264 0 18.036124211915215 0 -1 0 I I #
vertex $-1 $271 $355 #
point $-1 -49.089944626648617 -16.36648571151477 12.666066479304488 #
straight-curve $-1 -54.77095858638264 37.133663545027765 0 0 0 -1 I I #
point $-1 -54.77095858638264 -37.133663545027765 -18.036124211915215 #
straight-curve $-1 -54.77095858638264 0 -18.036124211915215 0 1 0 I I #
point $-1 -54.77095858638264 37.133663545027765 -18.036124211915215 #
straight-curve $-1 -54.77095858638264 -14.431802463290961 -3.8717733568511443 0 -1 0 I I #
point $-1 -54.77095858638264 -37.133663545027765 -3.8717733568511443 #
point $-1 -54.77095858638264 -20.593546308136077 -3.8717733568511443 #
straight-curve $-1 -54.77095858638264 -20.593546308136077 0.39490546516842073 0 0 -1 I I #
straight-curve $-1 -54.77095858638264 -37.133663545027765 0 0 0 -1 I I #
point $-1 -54.77095858638264 13.703072025104937 8.0830538029159342 #
straight-curve $-1 -54.77095858638264 12.709183892533176 8.0830538029159342 0 -1 0 I I #
point $-1 -54.77095858638264 37.133663545027765 8.0830538029159342 #
straight-curve $-1 -54.77095858638264 37.133663545027765 0 0 0 -1 I I #
straight-curve $-1 -72.792662288381379 -20.593546308136077 18.036124211915215 1 0 0 I I #
point $-1 -54.77095858638264 -20.593546308136077 18.036124211915215 #
straight-curve $-1 -47.978371657832284 -8.1832428557573849 18.036124211915215 0 1 0 I I #
point $-1 -47.978371657832284 -20.593546308136077 18.036124211915215 #
point $-1 -48.820099937520034 -16.36648571151477 11.277836007174914 #
End-of-ACIS-data 