500 0 9 0           
7 Unknown 11 ACIS 5.0 NT 24 Fri Mar 26 15:41:08 1999 
-1 9.9999999999999995e-007 1e-010 
body $-1 $9 $-1 $10 #
body $-1 $11 $-1 $12 #
body $-1 $13 $-1 $14 #
body $-1 $15 $-1 $16 #
body $-1 $17 $-1 $18 #
body $-1 $19 $-1 $20 #
body $-1 $21 $-1 $22 #
body $-1 $23 $-1 $24 #
body $-1 $25 $-1 $26 #
lump $-1 $-1 $27 $0 #
transform $-1 1 0 0 0 1 0 0 0 1 51.145359660634178 29.147719710889508 8.7242121971663202 1 rotate no_reflect no_shear #
lump $-1 $-1 $28 $1 #
transform $-1 1 0 0 0 1 0 0 0 1 51.145359660634178 29.147719710889508 8.7242121971663202 1 rotate no_reflect no_shear #
lump $-1 $-1 $29 $2 #
transform $-1 1 0 0 0 1 0 0 0 1 51.145359660634178 29.147719710889508 8.7242121971663202 1 rotate no_reflect no_shear #
lump $-1 $-1 $30 $3 #
transform $-1 1 0 0 0 1 0 0 0 1 51.145359660634178 29.147719710889508 8.7242121971663202 1 rotate no_reflect no_shear #
lump $-1 $-1 $31 $4 #
transform $-1 1 0 0 0 1 0 0 0 1 51.145359660634178 29.147719710889508 8.7242121971663202 1 rotate no_reflect no_shear #
lump $-1 $-1 $32 $5 #
transform $-1 1 0 0 0 1 0 0 0 1 51.145359660634178 29.147719710889508 8.7242121971663202 1 rotate no_reflect no_shear #
lump $-1 $-1 $33 $6 #
transform $-1 1 0 0 0 1 0 0 0 1 51.145359660634178 29.147719710889508 8.7242121971663202 1 rotate no_reflect no_shear #
lump $-1 $-1 $34 $7 #
transform $-1 1 0 0 0 1 0 0 0 1 51.145359660634178 29.147719710889508 8.7242121971663202 1 rotate no_reflect no_shear #
lump $-1 $-1 $35 $8 #
transform $-1 1 0 0 0 1 0 0 0 1 51.145359660634178 29.147719710889508 8.7242121971663202 1 rotate no_reflect no_shear #
shell $-1 $-1 $-1 $36 $-1 $9 #
shell $-1 $-1 $-1 $37 $-1 $11 #
shell $-1 $-1 $-1 $38 $-1 $13 #
shell $-1 $-1 $-1 $39 $-1 $15 #
shell $-1 $-1 $-1 $40 $-1 $17 #
shell $-1 $-1 $-1 $41 $-1 $19 #
shell $-1 $-1 $-1 $42 $-1 $21 #
shell $-1 $-1 $-1 $43 $-1 $23 #
shell $-1 $-1 $-1 $44 $-1 $25 #
face $-1 $45 $46 $27 $-1 $47 forward single #
face $-1 $48 $49 $28 $-1 $50 forward single #
face $-1 $51 $52 $29 $-1 $53 reversed single #
face $-1 $54 $55 $30 $-1 $56 forward single #
face $-1 $57 $58 $31 $-1 $59 forward single #
face $-1 $60 $61 $32 $-1 $62 reversed single #
face $-1 $63 $64 $33 $-1 $65 forward single #
face $-1 $66 $67 $34 $-1 $68 reversed single #
face $-1 $69 $70 $35 $-1 $71 forward single #
face $-1 $72 $73 $27 $-1 $74 reversed single #
loop $-1 $-1 $75 $36 #
plane-surface $-1 0 0 8.7242121971663202 0 0 1 1 0 0 forward_v I I I I #
face $-1 $76 $77 $28 $-1 $78 reversed single #
loop $-1 $-1 $79 $37 #
plane-surface $-1 0 -24.841579352344933 -5.2242121971663202 0 0 1 1 0 0 forward_v I I I I #
face $-1 $80 $81 $29 $-1 $82 reversed single #
loop $-1 $-1 $83 $38 #
plane-surface $-1 -137.89281024612271 2.0291513027701065 59.73699628180114 0 1 0 -0.84804810408105047 0 0.52991925155115449 forward_v I I I I #
face $-1 $84 $85 $30 $-1 $86 forward single #
loop $-1 $87 $88 $39 #
cone-surface $-1 -49.696066031715098 4.1207254949567265 6.8454537506498525 0.84804810408105047 0 -0.52991925155115449 0.26495962577557725 0 0.42402405204052523 1 I I 0 1 0.5 forward I I I I #
face $-1 $89 $90 $31 $-1 $91 forward single #
loop $-1 $92 $93 $40 #
cone-surface $-1 -49.696066031715098 7.25808678323666 6.8454537506498525 0.84804810408105047 0 -0.52991925155115449 0.26495962577557725 0 0.42402405204052523 1 I I 0 1 0.5 forward I I I I #
face $-1 $94 $95 $32 $-1 $96 reversed single #
loop $-1 $-1 $97 $41 #
plane-surface $-1 61.23639733080028 -2.0415868976451641 149.9871526572575 0 -1 0 -0.75470958851134928 0 -0.65605901945558964 forward_v I I I I #
face $-1 $98 $99 $33 $-1 $100 forward single #
loop $-1 $101 $102 $42 #
cone-surface $-1 49.226501053228247 -6.1682182719898897 6.6840926066737945 -0.75470958851134928 0 -0.65605901945558964 0.32802950972779482 0 -0.37735479425567464 1 I I 0 1 0.5 forward I I I I #
face $-1 $103 $104 $34 $-1 $105 reversed single #
loop $-1 $-1 $106 $43 #
plane-surface $-1 61.23639733080028 18.907130363423757 149.9871526572575 0 -1 0 -0.75470958851134928 0 -0.65605901945558964 forward_v I I I I #
face $-1 $107 $108 $35 $-1 $109 forward single #
loop $-1 $110 $111 $44 #
cone-surface $-1 49.226501053228247 14.780498989079032 6.6840926066737945 -0.75470958851134928 0 -0.65605901945558964 0.32802950972779482 0 -0.37735479425567464 1 I I 0 1 0.5 forward I I I I #
face $-1 $112 $113 $27 $-1 $114 reversed single #
loop $-1 $-1 $115 $45 #
plane-surface $-1 0 0 -8.7242121971663202 0 0 1 1 0 0 forward_v I I I I #
coedge $-1 $116 $117 $118 $119 forward $46 $-1 #
face $-1 $120 $121 $28 $-1 $122 reversed single #
loop $-1 $-1 $123 $48 #
plane-surface $-1 0 -24.841579352344933 -8.2242121971663202 0 0 1 1 0 0 forward_v I I I I #
coedge $-1 $124 $125 $126 $127 reversed $49 $-1 #
face $-1 $128 $129 $29 $-1 $130 reversed single #
loop $-1 $-1 $131 $51 #
plane-surface $-1 -51.145359660634199 5.6894061390966932 5.5311748584453966 -0.84804810408105047 0 0.52991925155115449 0.52991925155115449 0 0.84804810408105047 forward_v I I I I #
coedge $-1 $132 $133 $134 $135 reversed $52 $-1 #
face $-1 $-1 $136 $30 $-1 $137 forward single #
loop $-1 $138 $139 $54 #
cone-surface $-1 -49.032375929812929 4.1207254949567265 6.4307341606060611 0.84804810408105047 0 -0.52991925155115449 0.13247981288778862 0 0.21201202602026262 1 I I -0.70710678118654746 0.70710678118654746 0.25 forward I I I I #
loop $-1 $-1 $140 $39 #
coedge $-1 $88 $88 $141 $142 reversed $55 $-1 #
face $-1 $-1 $143 $31 $-1 $144 forward single #
loop $-1 $145 $146 $57 #
cone-surface $-1 -49.032375929812929 7.25808678323666 6.4307341606060611 0.84804810408105047 0 -0.52991925155115449 0.13247981288778862 0 0.21201202602026262 1 I I -0.70710678118654746 0.70710678118654746 0.25 forward I I I I #
loop $-1 $-1 $147 $40 #
coedge $-1 $93 $93 $148 $149 reversed $58 $-1 #
face $-1 $150 $151 $32 $-1 $152 reversed single #
loop $-1 $-1 $153 $60 #
plane-surface $-1 -15.963389356684083 -6.1682182719898897 82.878403639939236 0.75470958851134928 0 0.65605901945558964 0.65605901945558964 0 -0.75470958851134928 forward_v I I I I #
coedge $-1 $154 $155 $156 $157 reversed $61 $-1 #
face $-1 $-1 $158 $33 $-1 $159 forward single #
loop $-1 $160 $161 $63 #
cone-surface $-1 48.44271279240953 -6.1682182719898897 6.0027558836730925 -0.75470958851134928 0 -0.65605901945558964 0.16401475486389741 0 -0.18867739712783732 1 I I -0.70710678118654746 0.70710678118654746 0.25 forward I I I I #
loop $-1 $-1 $162 $42 #
coedge $-1 $102 $102 $163 $164 reversed $64 $-1 #
face $-1 $165 $166 $34 $-1 $167 reversed single #
loop $-1 $-1 $168 $66 #
plane-surface $-1 -15.963389356684083 14.780498989079032 82.878403639939236 0.75470958851134928 0 0.65605901945558964 0.65605901945558964 0 -0.75470958851134928 forward_v I I I I #
coedge $-1 $169 $170 $171 $172 reversed $67 $-1 #
face $-1 $-1 $173 $35 $-1 $174 forward single #
loop $-1 $175 $176 $69 #
cone-surface $-1 48.44271279240953 14.780498989079032 6.0027558836730925 -0.75470958851134928 0 -0.65605901945558964 0.16401475486389741 0 -0.18867739712783732 1 I I -0.70710678118654746 0.70710678118654746 0.25 forward I I I I #
loop $-1 $-1 $177 $44 #
coedge $-1 $111 $111 $178 $179 reversed $70 $-1 #
face $-1 $180 $181 $27 $-1 $182 reversed single #
loop $-1 $-1 $183 $72 #
plane-surface $-1 0 -29.147719710889508 0 0 1 0 0 0 1 forward_v I I I I #
coedge $-1 $184 $185 $186 $187 forward $73 $-1 #
coedge $-1 $188 $75 $189 $190 forward $46 $-1 #
coedge $-1 $75 $188 $191 $192 forward $46 $-1 #
coedge $-1 $193 $194 $75 $119 reversed $195 $-1 #
edge $-1 $196 -29.147719710889508 $197 29.147719710889508 $118 $198 forward 7 unknown #
face $-1 $199 $200 $28 $-1 $201 reversed single #
loop $-1 $-1 $202 $76 #
plane-surface $-1 0 -20.535438993800359 -6.7242121971663202 0 -1 0 0 0 -1 forward_v I I I I #
coedge $-1 $203 $204 $205 $206 reversed $77 $-1 #
coedge $-1 $207 $79 $208 $209 forward $49 $-1 #
coedge $-1 $79 $207 $210 $211 reversed $49 $-1 #
coedge $-1 $212 $213 $79 $127 forward $214 $-1 #
edge $-1 $215 8.114649317627892 $216 16.726930034717043 $126 $217 forward 7 unknown #
face $-1 $218 $219 $29 $-1 $220 reversed single #
loop $-1 $-1 $221 $80 #
plane-surface $-1 -137.89281024612271 9.34966097542328 59.73699628180114 0 -1 0 0.84804810408105047 0 -0.52991925155115449 forward_v I I I I #
coedge $-1 $222 $223 $224 $225 reversed $81 $-1 #
coedge $-1 $133 $83 $226 $227 reversed $52 $-1 #
coedge $-1 $83 $132 $222 $228 reversed $52 $-1 #
coedge $-1 $224 $229 $83 $135 forward $230 $-1 #
edge $-1 $231 17.801045462427176 $232 19.796276568501497 $134 $233 forward 7 unknown #
loop $-1 $-1 $141 $84 #
plane-surface $-1 -51.145359660634199 5.6894061390966932 5.5311748584453966 -0.84804810408105047 0 0.52991925155115449 0.52991925155115449 0 0.84804810408105047 forward_v I I I I #
loop $-1 $-1 $234 $54 #
coedge $-1 $139 $139 $140 $235 reversed $85 $-1 #
coedge $-1 $140 $140 $139 $235 forward $87 $-1 #
coedge $-1 $141 $141 $88 $142 forward $136 $-1 #
edge $-1 $236 0 $236 6.2831853071796004 $141 $237 forward 7 unknown #
loop $-1 $-1 $148 $89 #
plane-surface $-1 -51.145359660634199 5.6894061390966932 5.5311748584453966 -0.84804810408105047 0 0.52991925155115449 0.52991925155115449 0 0.84804810408105047 forward_v I I I I #
loop $-1 $-1 $238 $57 #
coedge $-1 $146 $146 $147 $239 reversed $90 $-1 #
coedge $-1 $147 $147 $146 $239 forward $92 $-1 #
coedge $-1 $148 $148 $93 $149 forward $143 $-1 #
edge $-1 $240 0 $240 6.2831853071796004 $148 $241 forward 7 unknown #
face $-1 $242 $243 $32 $-1 $244 forward single #
loop $-1 $-1 $245 $94 #
plane-surface $-1 61.23639733080028 -10.294849646334615 149.9871526572575 0 1 0 0.75470958851134928 0 0.65605901945558964 forward_v I I I I #
coedge $-1 $246 $247 $248 $249 reversed $95 $-1 #
coedge $-1 $155 $97 $250 $251 reversed $61 $-1 #
coedge $-1 $97 $154 $246 $252 reversed $61 $-1 #
coedge $-1 $248 $253 $97 $157 forward $243 $-1 #
edge $-1 $254 -20.527160995234038 $255 -17.87966550780396 $156 $256 forward 7 unknown #
loop $-1 $-1 $163 $98 #
plane-surface $-1 -15.963389356684083 -6.1682182719898897 82.878403639939236 0.75470958851134928 0 0.65605901945558964 0.65605901945558964 0 -0.75470958851134928 forward_v I I I I #
loop $-1 $-1 $257 $63 #
coedge $-1 $161 $161 $162 $258 reversed $99 $-1 #
coedge $-1 $162 $162 $161 $258 forward $101 $-1 #
coedge $-1 $163 $163 $102 $164 forward $158 $-1 #
edge $-1 $259 0 $259 6.2831853071796004 $163 $260 forward 7 unknown #
face $-1 $261 $262 $34 $-1 $263 reversed single #
loop $-1 $-1 $264 $103 #
plane-surface $-1 61.23639733080028 10.653867614734306 149.9871526572575 0 1 0 0.75470958851134928 0 0.65605901945558964 forward_v I I I I #
coedge $-1 $265 $266 $267 $268 reversed $104 $-1 #
coedge $-1 $170 $106 $269 $270 reversed $67 $-1 #
coedge $-1 $106 $169 $265 $271 reversed $67 $-1 #
coedge $-1 $267 $272 $106 $172 forward $273 $-1 #
edge $-1 $274 -20.527160995234038 $275 -17.87966550780396 $171 $276 forward 7 unknown #
loop $-1 $-1 $178 $107 #
plane-surface $-1 -15.963389356684083 14.780498989079032 82.878403639939236 0.75470958851134928 0 0.65605901945558964 0.65605901945558964 0 -0.75470958851134928 forward_v I I I I #
loop $-1 $-1 $277 $69 #
coedge $-1 $176 $176 $177 $278 reversed $108 $-1 #
coedge $-1 $177 $177 $176 $278 forward $110 $-1 #
coedge $-1 $178 $178 $111 $179 forward $173 $-1 #
edge $-1 $279 0 $279 6.2831853071796004 $178 $280 forward 7 unknown #
face $-1 $281 $282 $27 $-1 $283 reversed single #
loop $-1 $-1 $284 $112 #
plane-surface $-1 -51.145359660634178 0 0 1 0 0 0 0 -1 forward_v I I I I #
coedge $-1 $285 $191 $286 $287 forward $113 $-1 #
coedge $-1 $288 $115 $285 $289 forward $73 $-1 #
coedge $-1 $115 $288 $290 $291 forward $73 $-1 #
coedge $-1 $194 $193 $115 $187 reversed $195 $-1 #
edge $-1 $292 -29.147719710889508 $293 29.147719710889508 $186 $294 forward 7 unknown #
coedge $-1 $117 $116 $295 $296 forward $46 $-1 #
coedge $-1 $297 $298 $116 $190 reversed $282 $-1 #
edge $-1 $197 -51.145359660634178 $299 51.145359660634178 $189 $300 forward 7 unknown #
coedge $-1 $183 $301 $117 $192 reversed $113 $-1 #
edge $-1 $302 -51.145359660634178 $196 51.145359660634178 $191 $303 forward 7 unknown #
coedge $-1 $186 $118 $301 $304 forward $195 $-1 #
coedge $-1 $118 $186 $297 $305 reversed $195 $-1 #
loop $-1 $-1 $193 $281 #
vertex $-1 $119 $306 #
vertex $-1 $119 $307 #
straight-curve $-1 51.145359660634178 0 8.7242121971663202 0 1 0 I I #
face $-1 $308 $309 $28 $-1 $310 reversed single #
loop $-1 $-1 $311 $120 #
plane-surface $-1 -51.145359660634178 0 0 1 0 0 0 0 -1 forward_v I I I I #
coedge $-1 $312 $208 $213 $313 reversed $121 $-1 #
coedge $-1 $314 $123 $315 $316 reversed $77 $-1 #
coedge $-1 $123 $314 $312 $317 forward $77 $-1 #
coedge $-1 $213 $212 $123 $206 forward $214 $-1 #
edge $-1 $318 -16.726930034717043 $319 -8.114649317627892 $205 $320 forward 7 unknown #
coedge $-1 $125 $124 $311 $321 reversed $49 $-1 #
coedge $-1 $202 $322 $124 $209 reversed $121 $-1 #
edge $-1 $215 -51.145359660634178 $323 51.145359660634178 $208 $324 forward 7 unknown #
coedge $-1 $325 $326 $125 $211 forward $309 $-1 #
edge $-1 $216 -51.145359660634178 $327 51.145359660634178 $210 $328 forward 7 unknown #
coedge $-1 $205 $126 $326 $329 forward $214 $-1 #
coedge $-1 $126 $205 $202 $313 forward $214 $-1 #
loop $-1 $-1 $126 $308 #
vertex $-1 $127 $330 #
vertex $-1 $329 $331 #
straight-curve $-1 51.145359660634178 -12.420789676172467 -5.2242121971663202 0 -1 0 I I #
face $-1 $-1 $230 $29 $-1 $332 forward single #
loop $-1 $-1 $333 $128 #
plane-surface $-1 -51.145359660634178 0 0 1 0 0 0 0 -1 forward_v I I I I #
coedge $-1 $334 $335 $336 $337 reversed $129 $-1 #
coedge $-1 $338 $131 $133 $228 forward $81 $-1 #
coedge $-1 $131 $338 $334 $339 forward $81 $-1 #
coedge $-1 $336 $134 $131 $225 forward $230 $-1 #
edge $-1 $232 -0.81555176677824015 $340 6.5049579058749334 $224 $341 forward 7 unknown #
coedge $-1 $342 $343 $132 $227 forward $219 $-1 #
edge $-1 $344 -24.337323282455138 $231 -21.14428594373425 $226 $345 forward 7 unknown #
edge $-1 $232 -3.7651606357647802 $344 -3.9918193188544054e-014 $133 $346 forward 7 unknown #
coedge $-1 $134 $336 $342 $347 forward $230 $-1 #
loop $-1 $-1 $336 $218 #
vertex $-1 $227 $348 #
vertex $-1 $135 $349 #
straight-curve $-1 -68.946405123061353 2.0291513027701065 8.7242121971663202 1 0 0 I I #
coedge $-1 $234 $234 $-1 $350 reversed $138 $-1 #
edge $-1 $351 0 $351 6.2831853071796004 $139 $352 forward 7 unknown #
vertex $-1 $142 $353 #
ellipse-curve $-1 -50.147744107597021 4.1207254949567265 7.1276935278058664 -0.84804810408105047 0 0.52991925155115449 0.26495962577557725 0 0.42402405204052523 1 I I #
coedge $-1 $238 $238 $-1 $354 reversed $145 $-1 #
edge $-1 $355 0 $355 6.2831853071796004 $146 $356 forward 7 unknown #
vertex $-1 $149 $357 #
ellipse-curve $-1 -50.147744107597021 7.25808678323666 7.1276935278058664 -0.84804810408105047 0 0.52991925155115449 0.26495962577557725 0 0.42402405204052523 1 I I #
face $-1 $-1 $358 $32 $-1 $359 reversed single #
loop $-1 $-1 $156 $150 #
plane-surface $-1 0 0 8.7242121971663202 0 0 1 1 0 0 forward_v I I I I #
coedge $-1 $360 $361 $362 $363 reversed $151 $-1 #
coedge $-1 $364 $153 $155 $252 forward $95 $-1 #
coedge $-1 $153 $364 $360 $365 forward $95 $-1 #
coedge $-1 $362 $156 $153 $249 forward $243 $-1 #
edge $-1 $255 -1.0425222383497807 $366 7.2107405103396705 $248 $367 forward 7 unknown #
coedge $-1 $368 $369 $154 $251 forward $358 $-1 #
edge $-1 $370 -69.314959376173874 $254 -66.269364131462424 $250 $371 forward 7 unknown #
edge $-1 $255 98.255266093863597 $370 102.29071932126838 $155 $372 forward 7 unknown #
coedge $-1 $156 $362 $368 $373 forward $243 $-1 #
vertex $-1 $251 $374 #
vertex $-1 $157 $375 #
straight-curve $-1 30.61819866540014 -2.0415868976451641 8.7242121971663238 -1 0 0 I I #
coedge $-1 $257 $257 $-1 $376 reversed $160 $-1 #
edge $-1 $377 0 $377 6.2831853071796004 $161 $378 forward 7 unknown #
vertex $-1 $164 $379 #
ellipse-curve $-1 49.821611916919139 -6.1682182719898897 7.2014145748106069 0.75470958851134928 0 0.65605901945558964 0.32802950972779482 0 -0.37735479425567464 1 I I #
face $-1 $-1 $273 $34 $-1 $380 forward single #
loop $-1 $-1 $381 $165 #
plane-surface $-1 51.145359660634178 0 0 -1 0 0 0 0 1 forward_v I I I I #
coedge $-1 $382 $383 $384 $385 reversed $166 $-1 #
coedge $-1 $386 $168 $170 $271 forward $104 $-1 #
coedge $-1 $168 $386 $382 $387 forward $104 $-1 #
coedge $-1 $384 $171 $168 $268 forward $273 $-1 #
edge $-1 $275 -11.516880868884241 $388 -3.2636181201947903 $267 $389 forward 7 unknown #
coedge $-1 $390 $391 $169 $270 forward $262 $-1 #
edge $-1 $392 -69.314959376173874 $274 -66.269364131462424 $269 $393 forward 7 unknown #
edge $-1 $275 98.255266093863597 $392 102.29071932126838 $170 $394 forward 7 unknown #
coedge $-1 $171 $384 $390 $395 forward $273 $-1 #
loop $-1 $-1 $384 $261 #
vertex $-1 $270 $396 #
vertex $-1 $172 $397 #
straight-curve $-1 30.61819866540014 18.907130363423757 8.7242121971663238 -1 0 0 I I #
coedge $-1 $277 $277 $-1 $398 reversed $175 $-1 #
edge $-1 $399 0 $399 6.2831853071796004 $176 $400 forward 7 unknown #
vertex $-1 $179 $401 #
ellipse-curve $-1 49.821611916919139 14.780498989079032 7.2014145748106069 0.75470958851134928 0 0.65605901945558964 0.32802950972779482 0 -0.37735479425567464 1 I I #
face $-1 $-1 $195 $27 $-1 $402 reversed single #
loop $-1 $-1 $297 $180 #
plane-surface $-1 0 29.147719710889508 0 0 -1 0 0 0 -1 forward_v I I I I #
coedge $-1 $403 $295 $298 $404 forward $181 $-1 #
coedge $-1 $301 $183 $184 $289 reversed $113 $-1 #
coedge $-1 $295 $403 $183 $287 reversed $181 $-1 #
edge $-1 $302 -8.7242121971663202 $405 8.7242121971663202 $286 $406 forward 7 unknown #
coedge $-1 $185 $184 $403 $407 forward $73 $-1 #
edge $-1 $293 -51.145359660634178 $405 51.145359660634178 $285 $408 forward 7 unknown #
coedge $-1 $298 $297 $185 $291 reversed $282 $-1 #
edge $-1 $409 -51.145359660634178 $292 51.145359660634178 $290 $410 forward 7 unknown #
vertex $-1 $187 $411 #
vertex $-1 $304 $412 #
straight-curve $-1 51.145359660634178 0 -8.7242121971663202 0 -1 0 I I #
coedge $-1 $284 $286 $188 $296 reversed $181 $-1 #
edge $-1 $299 -29.147719710889508 $302 29.147719710889508 $295 $413 forward 7 unknown #
coedge $-1 $290 $189 $194 $305 forward $282 $-1 #
coedge $-1 $189 $290 $284 $404 reversed $282 $-1 #
vertex $-1 $190 $414 #
straight-curve $-1 0 29.147719710889508 8.7242121971663202 -1 0 0 I I #
coedge $-1 $191 $285 $193 $304 reversed $113 $-1 #
vertex $-1 $296 $415 #
straight-curve $-1 0 -29.147719710889508 8.7242121971663202 1 0 0 I I #
edge $-1 $196 -8.7242121971663202 $293 8.7242121971663202 $193 $416 forward 7 unknown #
edge $-1 $197 -8.7242121971663202 $292 8.7242121971663202 $194 $417 forward 7 unknown #
point $-1 51.145359660634178 -29.147719710889508 8.7242121971663202 #
point $-1 51.145359660634178 29.147719710889508 8.7242121971663202 #
face $-1 $-1 $214 $28 $-1 $418 reversed single #
loop $-1 $-1 $210 $199 #
plane-surface $-1 0 -29.147719710889508 0 0 1 0 0 0 1 forward_v I I I I #
coedge $-1 $419 $420 $207 $321 forward $200 $-1 #
coedge $-1 $322 $202 $204 $317 reversed $121 $-1 #
edge $-1 $319 -4.8621060985831601 $215 -1.8621060985831601 $213 $421 forward 7 unknown #
coedge $-1 $204 $203 $422 $423 reversed $77 $-1 #
coedge $-1 $326 $325 $203 $316 forward $309 $-1 #
edge $-1 $424 -51.145359660634178 $318 51.145359660634178 $315 $425 forward 7 unknown #
edge $-1 $426 -51.145359660634178 $319 51.145359660634178 $312 $427 forward 7 unknown #
vertex $-1 $316 $428 #
vertex $-1 $206 $429 #
straight-curve $-1 51.145359660634178 -12.420789676172467 -8.2242121971663202 0 1 0 I I #
edge $-1 $327 -16.726930034717043 $323 -8.114649317627892 $311 $430 forward 7 unknown #
coedge $-1 $208 $312 $419 $431 reversed $121 $-1 #
vertex $-1 $321 $432 #
straight-curve $-1 0 -20.535438993800359 -5.2242121971663202 -1 0 0 I I #
coedge $-1 $315 $210 $420 $433 forward $309 $-1 #
coedge $-1 $210 $315 $212 $329 reversed $309 $-1 #
vertex $-1 $433 $434 #
straight-curve $-1 0 -29.147719710889508 -5.2242121971663202 -1 0 0 I I #
edge $-1 $216 5.2242121971663202 $318 8.2242121971663202 $212 $435 forward 7 unknown #
point $-1 51.145359660634178 -20.535438993800359 -5.2242121971663202 #
point $-1 51.145359660634178 -29.147719710889508 -5.2242121971663202 #
plane-surface $-1 0 0 8.7242121971663202 0 0 1 1 0 0 forward_v I I I I #
coedge $-1 $343 $342 $335 $436 forward $219 $-1 #
coedge $-1 $335 $221 $223 $339 reversed $129 $-1 #
coedge $-1 $221 $334 $333 $436 reversed $129 $-1 #
coedge $-1 $229 $224 $221 $337 forward $230 $-1 #
edge $-1 $340 -19.796276568501497 $437 -17.801045462427176 $336 $438 forward 7 unknown #
coedge $-1 $223 $222 $343 $439 reversed $81 $-1 #
edge $-1 $440 3.9918193188544054e-014 $340 3.7651606357647802 $334 $441 forward 7 unknown #
vertex $-1 $225 $442 #
straight-curve $-1 -49.150128554559849 2.8447030695483466 8.7242121971663202 0 1 0 I I #
coedge $-1 $333 $226 $229 $347 reversed $219 $-1 #
coedge $-1 $226 $333 $338 $439 forward $219 $-1 #
vertex $-1 $227 $443 #
straight-curve $-1 -51.145359660634178 2.0291513027701065 29.86849814090057 0 0 1 I I #
straight-curve $-1 -51.145359660634199 2.0291513027701065 5.5311748584453966 -0.52991925155115449 0 -0.84804810408105047 I I #
edge $-1 $437 -9.34966097542328 $231 -2.0291513027701065 $342 $444 forward 7 unknown #
point $-1 -51.145359660634178 2.0291513027701065 8.7242121971663202 #
point $-1 -49.150128554559856 2.0291513027701065 8.7242121971663202 #
edge $-1 $445 1 $445 0 $234 $-1 forward 7 unknown #
vertex $-1 $235 $446 #
ellipse-curve $-1 -49.24438795583319 4.1207254949567265 6.5632139734938493 -0.84804810408105047 0 0.52991925155115449 0.26495962577557725 0 0.42402405204052523 1 I I #
point $-1 -49.882784481821432 4.1207254949567265 7.5517175798463807 #
edge $-1 $447 1 $447 0 $238 $-1 forward 7 unknown #
vertex $-1 $239 $448 #
ellipse-curve $-1 -49.24438795583319 7.25808678323666 6.5632139734938493 -0.84804810408105047 0 0.52991925155115449 0.26495962577557725 0 0.42402405204052523 1 I I #
point $-1 -49.882784481821432 7.25808678323666 7.5517175798463807 #
loop $-1 $-1 $250 $242 #
plane-surface $-1 51.145359660634178 0 0 -1 0 0 0 0 1 forward_v I I I I #
coedge $-1 $361 $245 $247 $365 reversed $151 $-1 #
coedge $-1 $245 $360 $449 $450 reversed $151 $-1 #
coedge $-1 $253 $248 $245 $363 forward $243 $-1 #
edge $-1 $366 17.87966550780396 $451 20.527160995234038 $362 $452 forward 7 unknown #
coedge $-1 $247 $246 $369 $453 reversed $95 $-1 #
edge $-1 $454 -102.29071932126838 $366 -98.255266093863597 $360 $455 forward 7 unknown #
vertex $-1 $249 $456 #
straight-curve $-1 48.4978641732041 -3.0841091359949449 8.7242121971663238 0 -1 0 I I #
coedge $-1 $449 $250 $253 $373 reversed $358 $-1 #
coedge $-1 $250 $449 $364 $453 forward $358 $-1 #
vertex $-1 $251 $457 #
straight-curve $-1 51.145359660634178 -2.0415868976451641 74.993576328628748 0 0 1 I I #
straight-curve $-1 -15.963389356684083 -2.0415868976451641 82.878403639939236 0.65605901945558964 0 -0.75470958851134928 I I #
edge $-1 $451 -10.294849646334615 $254 -2.0415868976451641 $368 $458 forward 7 unknown #
point $-1 51.145359660634178 -2.0415868976451641 8.7242121971663202 #
point $-1 48.4978641732041 -2.0415868976451641 8.7242121971663238 #
edge $-1 $459 1 $459 0 $257 $-1 forward 7 unknown #
vertex $-1 $258 $460 #
ellipse-curve $-1 48.63139018953737 -6.1682182719898897 6.16677063853699 0.75470958851134928 0 0.65605901945558964 0.32802950972779482 0 -0.37735479425567464 1 I I #
point $-1 50.149641426646923 -6.1682182719898897 6.8240597805549239 #
plane-surface $-1 0 0 8.7242121971663202 0 0 1 1 0 0 forward_v I I I I #
coedge $-1 $391 $390 $383 $461 forward $262 $-1 #
coedge $-1 $383 $264 $266 $387 reversed $166 $-1 #
coedge $-1 $264 $382 $381 $461 reversed $166 $-1 #
coedge $-1 $272 $267 $264 $385 forward $273 $-1 #
edge $-1 $388 17.87966550780396 $462 20.527160995234038 $384 $463 forward 7 unknown #
coedge $-1 $266 $265 $391 $464 reversed $104 $-1 #
edge $-1 $465 -102.29071932126838 $388 -98.255266093863597 $382 $466 forward 7 unknown #
vertex $-1 $268 $467 #
straight-curve $-1 48.4978641732041 7.3902494945395159 8.7242121971663238 0 -1 0 I I #
coedge $-1 $381 $269 $272 $395 reversed $262 $-1 #
coedge $-1 $269 $381 $386 $464 forward $262 $-1 #
vertex $-1 $270 $468 #
straight-curve $-1 51.145359660634178 18.907130363423757 74.993576328628748 0 0 1 I I #
straight-curve $-1 -15.963389356684083 18.907130363423757 82.878403639939236 0.65605901945558964 0 -0.75470958851134928 I I #
edge $-1 $462 10.653867614734306 $274 18.907130363423757 $390 $469 forward 7 unknown #
point $-1 51.145359660634178 18.907130363423757 8.7242121971663202 #
point $-1 48.4978641732041 18.907130363423757 8.7242121971663238 #
edge $-1 $470 1 $470 0 $277 $-1 forward 7 unknown #
vertex $-1 $278 $471 #
ellipse-curve $-1 48.63139018953737 14.780498989079032 6.16677063853699 0.75470958851134928 0 0.65605901945558964 0.32802950972779482 0 -0.37735479425567464 1 I I #
point $-1 50.149641426646923 14.780498989079032 6.8240597805549239 #
plane-surface $-1 51.145359660634178 0 0 -1 0 0 0 0 1 forward_v I I I I #
coedge $-1 $286 $284 $288 $407 reversed $181 $-1 #
edge $-1 $299 -8.7242121971663202 $409 8.7242121971663202 $298 $472 forward 7 unknown #
vertex $-1 $407 $473 #
straight-curve $-1 -51.145359660634178 -29.147719710889508 0 0 0 -1 I I #
edge $-1 $405 -29.147719710889508 $409 29.147719710889508 $403 $474 forward 7 unknown #
straight-curve $-1 0 -29.147719710889508 -8.7242121971663202 -1 0 0 I I #
vertex $-1 $291 $475 #
straight-curve $-1 0 29.147719710889508 -8.7242121971663202 1 0 0 I I #
point $-1 51.145359660634178 29.147719710889508 -8.7242121971663202 #
point $-1 51.145359660634178 -29.147719710889508 -8.7242121971663202 #
straight-curve $-1 -51.145359660634178 0 8.7242121971663202 0 -1 0 I I #
point $-1 -51.145359660634178 29.147719710889508 8.7242121971663202 #
point $-1 -51.145359660634178 -29.147719710889508 8.7242121971663202 #
straight-curve $-1 51.145359660634178 -29.147719710889508 0 0 0 -1 I I #
straight-curve $-1 51.145359660634178 29.147719710889508 0 0 0 -1 I I #
plane-surface $-1 51.145359660634178 0 0 -1 0 0 0 0 1 forward_v I I I I #
coedge $-1 $422 $311 $322 $431 forward $200 $-1 #
coedge $-1 $311 $422 $325 $433 reversed $200 $-1 #
straight-curve $-1 51.145359660634178 -20.535438993800359 -3.3621060985831601 0 0 1 I I #
coedge $-1 $420 $419 $314 $423 forward $200 $-1 #
edge $-1 $426 8.114649317627892 $424 16.726930034717043 $422 $476 forward 7 unknown #
vertex $-1 $316 $477 #
straight-curve $-1 0 -29.147719710889508 -8.2242121971663202 1 0 0 I I #
vertex $-1 $423 $478 #
straight-curve $-1 0 -20.535438993800359 -8.2242121971663202 1 0 0 I I #
point $-1 51.145359660634178 -29.147719710889508 -8.2242121971663202 #
point $-1 51.145359660634178 -20.535438993800359 -8.2242121971663202 #
straight-curve $-1 -51.145359660634178 -12.420789676172467 -5.2242121971663202 0 1 0 I I #
edge $-1 $323 1.8621060985831601 $426 4.8621060985831601 $419 $479 forward 7 unknown #
point $-1 -51.145359660634178 -20.535438993800359 -5.2242121971663202 #
edge $-1 $327 5.2242121971663202 $424 8.2242121971663202 $420 $480 forward 7 unknown #
point $-1 -51.145359660634178 -29.147719710889508 -5.2242121971663202 #
straight-curve $-1 51.145359660634178 -29.147719710889508 0 0 0 -1 I I #
edge $-1 $437 21.14428594373425 $440 24.337323282455138 $333 $481 forward 7 unknown #
vertex $-1 $347 $482 #
straight-curve $-1 -68.946405123061353 9.34966097542328 8.7242121971663202 -1 0 0 I I #
edge $-1 $440 -6.5049579058749334 $344 0.81555176677824015 $343 $483 forward 7 unknown #
vertex $-1 $439 $484 #
straight-curve $-1 -51.145359660634199 9.34966097542328 5.5311748584453966 0.52991925155115449 0 0.84804810408105047 I I #
point $-1 -49.150128554559856 9.34966097542328 8.7242121971663202 #
point $-1 -51.145359660634178 2.0291513027701065 5.5311748584454303 #
straight-curve $-1 -51.145359660634178 0 8.7242121971663202 0 -1 0 I I #
vertex $-1 $350 $485 #
point $-1 -48.979428330057615 4.1207254949567265 6.9872380255343751 #
vertex $-1 $354 $486 #
point $-1 -48.979428330057615 7.25808678323666 6.9872380255343751 #
coedge $-1 $369 $368 $361 $450 forward $358 $-1 #
edge $-1 $451 66.269364131462424 $454 69.314959376173874 $449 $487 forward 7 unknown #
vertex $-1 $373 $488 #
straight-curve $-1 30.61819866540014 -10.294849646334615 8.7242121971663238 1 0 0 I I #
edge $-1 $454 -7.2107405103396705 $370 1.0425222383497807 $369 $489 forward 7 unknown #
vertex $-1 $453 $490 #
straight-curve $-1 -15.963389356684083 -10.294849646334615 82.878403639939236 -0.65605901945558964 0 0.75470958851134928 I I #
point $-1 48.4978641732041 -10.294849646334615 8.7242121971663238 #
point $-1 51.145359660634178 -2.0415868976451641 5.678616952454874 #
straight-curve $-1 51.145359660634178 0 8.7242121971663202 0 1 0 I I #
vertex $-1 $376 $491 #
point $-1 48.959419699265162 -6.1682182719898897 5.7894158442813151 #
edge $-1 $462 66.269364131462424 $465 69.314959376173874 $381 $492 forward 7 unknown #
vertex $-1 $395 $493 #
straight-curve $-1 30.61819866540014 10.653867614734306 8.7242121971663238 1 0 0 I I #
edge $-1 $465 3.2636181201947903 $392 11.516880868884241 $391 $494 forward 7 unknown #
vertex $-1 $464 $495 #
straight-curve $-1 -15.963389356684083 10.653867614734306 82.878403639939236 -0.65605901945558964 0 0.75470958851134928 I I #
point $-1 48.4978641732041 10.653867614734306 8.7242121971663238 #
point $-1 51.145359660634178 18.907130363423757 5.678616952454874 #
straight-curve $-1 51.145359660634178 0 8.7242121971663202 0 1 0 I I #
vertex $-1 $398 $496 #
point $-1 48.959419699265162 14.780498989079032 5.7894158442813151 #
straight-curve $-1 -51.145359660634178 29.147719710889508 0 0 0 -1 I I #
point $-1 -51.145359660634178 -29.147719710889508 -8.7242121971663202 #
straight-curve $-1 -51.145359660634178 0 -8.7242121971663202 0 1 0 I I #
point $-1 -51.145359660634178 29.147719710889508 -8.7242121971663202 #
straight-curve $-1 -51.145359660634178 -12.420789676172467 -8.2242121971663202 0 -1 0 I I #
point $-1 -51.145359660634178 -29.147719710889508 -8.2242121971663202 #
point $-1 -51.145359660634178 -20.535438993800359 -8.2242121971663202 #
straight-curve $-1 -51.145359660634178 -20.535438993800359 -3.3621060985831601 0 0 -1 I I #
straight-curve $-1 -51.145359660634178 -29.147719710889508 0 0 0 -1 I I #
straight-curve $-1 -51.145359660634178 9.34966097542328 29.86849814090057 0 0 -1 I I #
point $-1 -51.145359660634178 9.34966097542328 8.7242121971663202 #
straight-curve $-1 -51.145359660634178 2.8447030695483466 5.531174858445425 0 -1 0 I I #
point $-1 -51.145359660634178 9.34966097542328 5.5311748584454303 #
point $-1 -48.820363903792668 4.1207254949567265 6.2982543477182729 #
point $-1 -48.820363903792668 7.25808678323666 6.2982543477182729 #
straight-curve $-1 51.145359660634178 -10.294849646334615 74.993576328628748 0 0 -1 I I #
point $-1 51.145359660634178 -10.294849646334615 8.7242121971663202 #
straight-curve $-1 51.145359660634185 -3.0841091359949449 5.6786169524548598 0 1 0 I I #
point $-1 51.145359660634178 -10.294849646334615 5.678616952454874 #
point $-1 48.25403539528169 -6.1682182719898897 5.838741128809195 #
straight-curve $-1 51.145359660634178 10.653867614734306 74.993576328628748 0 0 -1 I I #
point $-1 51.145359660634178 10.653867614734306 8.7242121971663202 #
straight-curve $-1 51.145359660634185 7.3902494945395159 5.6786169524548598 0 1 0 I I #
point $-1 51.145359660634178 10.653867614734306 5.678616952454874 #
point $-1 48.25403539528169 14.780498989079032 5.838741128809195 #
End-of-ACIS-data 